0, 0, Header, 0, 1, 384
1, 0, Start_track
1, 0, Title_t, "Prelude and Fugue--Frank Duepree"
1, 0, Text_t, "2008 e-Piano Junior Competition recital round"
1, 0, Text_t, "recorded July 2008"
1, 0, Text_t, "http://www.piano-e-competition.com/"
1, 0, Text_t, "File processed for distribution by software from Zenph Studios, Inc., http://www.zenph.com"
1, 0, Instrument_name_t, "Yamaha Disklavier Pro Mark IV concert grand piano, model DCFIIISM4PRO"
1, 0, Sequencer_specific, 39, 67, 113, 0, 1, 0, 1, 0, 80, 114, 101, 108, 117, 100, 101, 32, 38, 32, 70, 117, 103, 117, 101, 32, 70, 114, 97, 110, 107, 32, 68, 117, 101, 112, 114, 101, 101, 32, 32, 32
1, 0, Sequencer_specific, 6, 67, 113, 0, 0, 0, 69
1, 0, System_exclusive, 21, 67, 113, 126, 21, 0, 2, 2, 0, 3, 14, 1, 4, 1, 13, 13, 10, 11, 9, 2, 7, 247
1, 0, Sequencer_specific, 5, 67, 123, 12, 2, 1
1, 0, Tempo, 512820
1, 0, Time_signature, 4, 2, 24, 8
1, 0, System_exclusive, 5, 126, 127, 9, 1, 247
1, 1, System_exclusive, 8, 67, 16, 76, 0, 0, 126, 0, 247
1, 2, System_exclusive, 8, 67, 16, 76, 8, 9, 7, 1, 247
1, 3, Control_c, 0, 0, 0
1, 3, Control_c, 1, 0, 0
1, 3, Control_c, 2, 0, 0
1, 3, Control_c, 3, 0, 0
1, 3, Control_c, 4, 0, 0
1, 3, Control_c, 5, 0, 0
1, 3, Control_c, 6, 0, 0
1, 3, Control_c, 7, 0, 0
1, 3, Control_c, 8, 0, 0
1, 3, Control_c, 9, 0, 127
1, 3, Control_c, 10, 0, 0
1, 3, Control_c, 11, 0, 0
1, 3, Control_c, 12, 0, 0
1, 3, Control_c, 13, 0, 0
1, 3, Control_c, 14, 0, 0
1, 3, Control_c, 15, 0, 0
1, 4, Control_c, 0, 32, 0
1, 4, Control_c, 1, 32, 0
1, 4, Control_c, 2, 32, 0
1, 4, Control_c, 3, 32, 0
1, 4, Control_c, 4, 32, 0
1, 4, Control_c, 5, 32, 0
1, 4, Control_c, 6, 32, 0
1, 4, Control_c, 7, 32, 0
1, 4, Control_c, 8, 32, 0
1, 4, Control_c, 9, 32, 0
1, 4, Control_c, 10, 32, 0
1, 4, Control_c, 11, 32, 0
1, 4, Control_c, 12, 32, 0
1, 4, Control_c, 13, 32, 0
1, 4, Control_c, 14, 32, 0
1, 4, Control_c, 15, 32, 0
1, 5, Program_c, 0, 0
1, 5, Program_c, 1, 0
1, 5, Program_c, 2, 0
1, 5, Program_c, 3, 0
1, 5, Program_c, 4, 0
1, 5, Program_c, 5, 0
1, 5, Program_c, 6, 0
1, 5, Program_c, 7, 0
1, 5, Program_c, 8, 0
1, 5, Program_c, 9, 0
1, 5, Program_c, 10, 0
1, 5, Program_c, 11, 0
1, 5, Program_c, 12, 0
1, 5, Program_c, 13, 0
1, 5, Program_c, 14, 0
1, 5, Program_c, 15, 0
1, 6, Control_c, 0, 7, 100
1, 6, Control_c, 1, 7, 100
1, 6, Control_c, 2, 7, 100
1, 6, Control_c, 3, 7, 100
1, 6, Control_c, 4, 7, 100
1, 6, Control_c, 5, 7, 100
1, 6, Control_c, 6, 7, 100
1, 6, Control_c, 7, 7, 100
1, 6, Control_c, 8, 7, 100
1, 6, Control_c, 9, 7, 100
1, 6, Control_c, 10, 7, 100
1, 6, Control_c, 11, 7, 100
1, 6, Control_c, 12, 7, 100
1, 6, Control_c, 13, 7, 100
1, 6, Control_c, 14, 7, 100
1, 6, Control_c, 15, 7, 100
1, 117, Control_c, 0, 64, 15
1, 229, Control_c, 0, 64, 31
1, 341, Control_c, 0, 64, 46
1, 452, Control_c, 0, 64, 63
1, 564, Control_c, 0, 64, 77
1, 676, Control_c, 0, 64, 94
1, 787, Control_c, 0, 64, 108
1, 899, Control_c, 0, 64, 127
1, 1128, Note_on_c, 0, 26, 97
1, 1129, Note_on_c, 0, 38, 98
1, 1984, Note_on_c, 0, 69, 92
1, 1989, Note_on_c, 0, 65, 82
1, 2723, Note_off_c, 0, 69, 47
1, 2726, Note_off_c, 0, 65, 52
1, 2988, Note_on_c, 0, 69, 86
1, 2995, Note_on_c, 0, 65, 80
1, 3066, Note_off_c, 0, 69, 66
1, 3069, Note_off_c, 0, 65, 61
1, 3315, Control_c, 0, 64, 124
1, 3323, Note_on_c, 0, 67, 84
1, 3327, Note_on_c, 0, 65, 78
1, 3330, Control_c, 0, 64, 117
1, 3345, Control_c, 0, 64, 112
1, 3360, Control_c, 0, 64, 106
1, 3375, Control_c, 0, 64, 102
1, 3389, Control_c, 0, 64, 99
1, 3404, Control_c, 0, 64, 96
1, 3418, Control_c, 0, 64, 92
1, 3433, Control_c, 0, 64, 88
1, 3448, Control_c, 0, 64, 84
1, 3462, Control_c, 0, 64, 80
1, 3477, Control_c, 0, 64, 78
1, 3492, Control_c, 0, 64, 75
1, 3508, Control_c, 0, 64, 73
1, 3523, Control_c, 0, 64, 70
1, 3538, Control_c, 0, 64, 68
1, 3553, Control_c, 0, 64, 66
1, 3567, Control_c, 0, 64, 65
1, 3611, Control_c, 0, 64, 64
1, 3626, Control_c, 0, 64, 64
1, 3641, Control_c, 0, 64, 63
1, 3701, Control_c, 0, 64, 63
1, 3716, Control_c, 0, 64, 62
1, 3730, Control_c, 0, 64, 62
1, 3760, Control_c, 0, 64, 61
1, 3775, Control_c, 0, 64, 61
1, 3790, Control_c, 0, 64, 60
1, 3804, Control_c, 0, 64, 57
1, 3819, Control_c, 0, 64, 53
1, 3834, Control_c, 0, 64, 48
1, 3849, Control_c, 0, 64, 41
1, 3864, Control_c, 0, 64, 32
1, 3879, Control_c, 0, 64, 13
1, 3893, Control_c, 0, 64, 0
1, 3901, Note_on_c, 0, 64, 76
1, 3946, Note_off_c, 0, 65, 64
1, 4034, Control_c, 0, 64, 39
1, 4049, Control_c, 0, 64, 56
1, 4064, Control_c, 0, 64, 58
1, 4079, Control_c, 0, 64, 58
1, 4093, Control_c, 0, 64, 57
1, 4108, Control_c, 0, 64, 57
1, 4123, Control_c, 0, 64, 56
1, 4137, Control_c, 0, 64, 55
1, 4168, Control_c, 0, 64, 56
1, 4183, Control_c, 0, 64, 61
1, 4198, Control_c, 0, 64, 67
1, 4202, Note_on_c, 0, 62, 79
1, 4212, Control_c, 0, 64, 74
1, 4216, Note_off_c, 0, 64, 65
1, 4227, Control_c, 0, 64, 82
1, 4242, Control_c, 0, 64, 92
1, 4257, Control_c, 0, 64, 98
1, 4260, Note_off_c, 0, 67, 52
1, 4270, Note_off_c, 0, 38, 61
1, 4271, Note_off_c, 0, 26, 60
1, 4272, Control_c, 0, 64, 102
1, 4286, Control_c, 0, 64, 106
1, 4301, Control_c, 0, 64, 110
1, 4317, Control_c, 0, 64, 115
1, 4332, Control_c, 0, 64, 122
1, 4347, Control_c, 0, 64, 127
1, 4508, Note_on_c, 0, 67, 88
1, 4511, Note_on_c, 0, 60, 84
1, 4519, Note_on_c, 0, 40, 89
1, 4520, Note_on_c, 0, 28, 87
1, 4524, Control_c, 0, 64, 107
1, 4539, Control_c, 0, 64, 94
1, 4553, Control_c, 0, 64, 83
1, 4568, Control_c, 0, 64, 73
1, 4572, Note_off_c, 0, 62, 50
1, 4583, Control_c, 0, 64, 65
1, 4598, Control_c, 0, 64, 57
1, 4613, Control_c, 0, 64, 50
1, 4628, Control_c, 0, 64, 35
1, 4643, Control_c, 0, 64, 0
1, 4917, Control_c, 0, 64, 45
1, 4932, Control_c, 0, 64, 51
1, 4947, Control_c, 0, 64, 53
1, 4961, Control_c, 0, 64, 55
1, 4976, Control_c, 0, 64, 58
1, 4991, Control_c, 0, 64, 62
1, 5006, Control_c, 0, 64, 63
1, 5021, Control_c, 0, 64, 64
1, 5035, Control_c, 0, 64, 64
1, 5080, Control_c, 0, 64, 65
1, 5094, Control_c, 0, 64, 66
1, 5111, Control_c, 0, 64, 66
1, 5116, Note_on_c, 0, 72, 89
1, 5126, Control_c, 0, 64, 67
1, 5140, Control_c, 0, 64, 67
1, 5155, Control_c, 0, 64, 68
1, 5170, Control_c, 0, 64, 68
1, 5184, Control_c, 0, 64, 69
1, 5199, Control_c, 0, 64, 71
1, 5214, Control_c, 0, 64, 72
1, 5229, Control_c, 0, 64, 74
1, 5244, Control_c, 0, 64, 77
1, 5248, Note_off_c, 0, 67, 45
1, 5258, Control_c, 0, 64, 79
1, 5273, Control_c, 0, 64, 81
1, 5288, Control_c, 0, 64, 85
1, 5303, Control_c, 0, 64, 89
1, 5318, Control_c, 0, 64, 92
1, 5332, Control_c, 0, 64, 94
1, 5347, Control_c, 0, 64, 97
1, 5362, Control_c, 0, 64, 99
1, 5376, Control_c, 0, 64, 102
1, 5391, Control_c, 0, 64, 105
1, 5406, Control_c, 0, 64, 107
1, 5421, Control_c, 0, 64, 109
1, 5444, Control_c, 0, 64, 111
1, 5458, Control_c, 0, 64, 114
1, 5473, Control_c, 0, 64, 116
1, 5488, Control_c, 0, 64, 117
1, 5503, Control_c, 0, 64, 119
1, 5518, Control_c, 0, 64, 120
1, 5532, Control_c, 0, 64, 122
1, 5547, Control_c, 0, 64, 125
1, 5562, Control_c, 0, 64, 127
1, 5702, Note_on_c, 0, 67, 82
1, 5807, Note_off_c, 0, 28, 57
1, 5867, Note_off_c, 0, 40, 57
1, 6038, Note_off_c, 0, 60, 52
1, 6103, Note_off_c, 0, 72, 44
1, 6222, Control_c, 0, 64, 121
1, 6237, Control_c, 0, 64, 114
1, 6252, Control_c, 0, 64, 105
1, 6257, Note_on_c, 0, 65, 86
1, 6263, Note_on_c, 0, 29, 88
1, 6264, Note_on_c, 0, 60, 81
1, 6266, Note_on_c, 0, 41, 86
1, 6267, Control_c, 0, 64, 97
1, 6281, Control_c, 0, 64, 87
1, 6296, Note_off_c, 0, 67, 61
1, 6296, Control_c, 0, 64, 78
1, 6311, Control_c, 0, 64, 70
1, 6326, Control_c, 0, 64, 64
1, 6340, Control_c, 0, 64, 56
1, 6355, Control_c, 0, 64, 52
1, 6370, Control_c, 0, 64, 46
1, 6385, Control_c, 0, 64, 41
1, 6400, Control_c, 0, 64, 37
1, 6414, Control_c, 0, 64, 36
1, 6429, Control_c, 0, 64, 39
1, 6444, Control_c, 0, 64, 48
1, 6459, Control_c, 0, 64, 56
1, 6474, Control_c, 0, 64, 62
1, 6488, Control_c, 0, 64, 64
1, 6503, Control_c, 0, 64, 67
1, 6518, Control_c, 0, 64, 70
1, 6533, Control_c, 0, 64, 75
1, 6547, Control_c, 0, 64, 79
1, 6562, Control_c, 0, 64, 81
1, 6577, Control_c, 0, 64, 82
1, 6592, Control_c, 0, 64, 83
1, 6607, Control_c, 0, 64, 83
1, 6622, Control_c, 0, 64, 84
1, 6801, Control_c, 0, 64, 83
1, 6816, Control_c, 0, 64, 81
1, 6830, Control_c, 0, 64, 77
1, 6845, Control_c, 0, 64, 72
1, 6860, Control_c, 0, 64, 66
1, 6866, Note_on_c, 0, 62, 85
1, 6875, Control_c, 0, 64, 57
1, 6890, Control_c, 0, 64, 42
1, 6905, Control_c, 0, 64, 34
1, 6918, Note_off_c, 0, 60, 56
1, 6941, Control_c, 0, 64, 36
1, 6956, Control_c, 0, 64, 41
1, 6971, Control_c, 0, 64, 49
1, 6986, Control_c, 0, 64, 59
1, 7001, Control_c, 0, 64, 65
1, 7015, Control_c, 0, 64, 69
1, 7030, Control_c, 0, 64, 74
1, 7045, Control_c, 0, 64, 77
1, 7060, Control_c, 0, 64, 80
1, 7075, Control_c, 0, 64, 81
1, 7090, Control_c, 0, 64, 84
1, 7105, Control_c, 0, 64, 88
1, 7119, Control_c, 0, 64, 91
1, 7134, Control_c, 0, 64, 92
1, 7149, Control_c, 0, 64, 93
1, 7163, Control_c, 0, 64, 93
1, 7178, Control_c, 0, 64, 94
1, 7193, Control_c, 0, 64, 95
1, 7208, Control_c, 0, 64, 98
1, 7223, Control_c, 0, 64, 100
1, 7237, Control_c, 0, 64, 102
1, 7252, Control_c, 0, 64, 103
1, 7267, Control_c, 0, 64, 104
1, 7282, Control_c, 0, 64, 106
1, 7297, Control_c, 0, 64, 107
1, 7311, Control_c, 0, 64, 108
1, 7326, Control_c, 0, 64, 108
1, 7385, Control_c, 0, 64, 108
1, 7400, Control_c, 0, 64, 106
1, 7415, Control_c, 0, 64, 105
1, 7429, Note_on_c, 0, 64, 72
1, 7430, Control_c, 0, 64, 103
1, 7431, Note_on_c, 0, 60, 77
1, 7439, Note_off_c, 0, 65, 62
1, 7445, Control_c, 0, 64, 102
1, 7525, Note_off_c, 0, 62, 56
1, 7564, Control_c, 0, 64, 103
1, 7594, Control_c, 0, 64, 104
1, 7609, Control_c, 0, 64, 104
1, 7624, Control_c, 0, 64, 105
1, 7638, Control_c, 0, 64, 105
1, 7653, Control_c, 0, 64, 106
1, 7668, Control_c, 0, 64, 106
1, 7690, Control_c, 0, 64, 108
1, 7705, Control_c, 0, 64, 109
1, 7719, Note_on_c, 0, 65, 89
1, 7720, Control_c, 0, 64, 110
1, 7734, Control_c, 0, 64, 112
1, 7740, Note_off_c, 0, 60, 63
1, 7749, Control_c, 0, 64, 114
1, 7764, Control_c, 0, 64, 116
1, 7779, Control_c, 0, 64, 121
1, 7793, Control_c, 0, 64, 127
1, 7794, Note_off_c, 0, 64, 54
1, 7986, Note_on_c, 0, 67, 84
1, 7996, Note_on_c, 0, 57, 71
1, 8014, Note_off_c, 0, 65, 64
1, 8049, Note_off_c, 0, 29, 61
1, 8068, Note_off_c, 0, 41, 65
1, 8252, Note_on_c, 0, 65, 82
1, 8264, Note_off_c, 0, 67, 53
1, 8572, Control_c, 0, 64, 111
1, 8577, Note_on_c, 0, 58, 83
1, 8578, Note_on_c, 0, 62, 86
1, 8581, Note_on_c, 0, 46, 80
1, 8584, Note_on_c, 0, 34, 75
1, 8587, Control_c, 0, 64, 96
1, 8598, Note_off_c, 0, 65, 56
1, 8602, Control_c, 0, 64, 82
1, 8607, Note_off_c, 0, 57, 63
1, 8616, Control_c, 0, 64, 69
1, 8631, Control_c, 0, 64, 44
1, 8646, Control_c, 0, 64, 0
1, 8779, Control_c, 0, 64, 63
1, 8794, Control_c, 0, 64, 70
1, 8808, Control_c, 0, 64, 77
1, 8823, Control_c, 0, 64, 83
1, 8838, Note_off_c, 0, 62, 61
1, 8838, Control_c, 0, 64, 88
1, 8853, Control_c, 0, 64, 92
1, 8868, Control_c, 0, 64, 94
1, 8882, Control_c, 0, 64, 97
1, 8891, Note_off_c, 0, 58, 64
1, 8897, Control_c, 0, 64, 99
1, 8912, Control_c, 0, 64, 100
1, 8926, Control_c, 0, 64, 101
1, 8941, Control_c, 0, 64, 102
1, 8971, Control_c, 0, 64, 102
1, 8986, Control_c, 0, 64, 103
1, 9150, Control_c, 0, 64, 102
1, 9157, Note_on_c, 0, 60, 83
1, 9159, Note_on_c, 0, 58, 75
1, 9165, Control_c, 0, 64, 100
1, 9187, Control_c, 0, 64, 96
1, 9202, Control_c, 0, 64, 92
1, 9217, Control_c, 0, 64, 85
1, 9231, Control_c, 0, 64, 79
1, 9246, Control_c, 0, 64, 74
1, 9261, Control_c, 0, 64, 70
1, 9276, Control_c, 0, 64, 66
1, 9291, Control_c, 0, 64, 63
1, 9305, Control_c, 0, 64, 61
1, 9335, Control_c, 0, 64, 62
1, 9349, Control_c, 0, 64, 63
1, 9364, Control_c, 0, 64, 64
1, 9379, Control_c, 0, 64, 65
1, 9394, Control_c, 0, 64, 67
1, 9409, Control_c, 0, 64, 69
1, 9423, Control_c, 0, 64, 71
1, 9438, Control_c, 0, 64, 73
1, 9453, Control_c, 0, 64, 74
1, 9483, Control_c, 0, 64, 74
1, 9498, Control_c, 0, 64, 75
1, 9512, Control_c, 0, 64, 78
1, 9527, Control_c, 0, 64, 80
1, 9542, Control_c, 0, 64, 82
1, 9556, Control_c, 0, 64, 83
1, 9571, Control_c, 0, 64, 84
1, 9586, Control_c, 0, 64, 85
1, 9601, Control_c, 0, 64, 87
1, 9616, Control_c, 0, 64, 89
1, 9630, Control_c, 0, 64, 91
1, 9645, Control_c, 0, 64, 92
1, 9660, Control_c, 0, 64, 92
1, 9675, Control_c, 0, 64, 93
1, 9690, Control_c, 0, 64, 94
1, 9704, Control_c, 0, 64, 95
1, 9719, Control_c, 0, 64, 97
1, 9734, Control_c, 0, 64, 98
1, 9748, Note_on_c, 0, 57, 64
1, 9749, Control_c, 0, 64, 99
1, 9764, Control_c, 0, 64, 99
1, 9779, Control_c, 0, 64, 101
1, 9794, Control_c, 0, 64, 103
1, 9809, Control_c, 0, 64, 105
1, 9823, Control_c, 0, 64, 107
1, 9825, Note_off_c, 0, 58, 60
1, 9838, Control_c, 0, 64, 108
1, 9853, Control_c, 0, 64, 109
1, 9868, Control_c, 0, 64, 110
1, 9871, Note_off_c, 0, 46, 62
1, 9882, Control_c, 0, 64, 114
1, 9898, Control_c, 0, 64, 118
1, 9913, Control_c, 0, 64, 121
1, 9935, Control_c, 0, 64, 124
1, 9950, Control_c, 0, 64, 126
1, 9965, Control_c, 0, 64, 127
1, 10052, Note_on_c, 0, 55, 75
1, 10083, Note_off_c, 0, 57, 62
1, 10149, Note_off_c, 0, 34, 61
1, 10191, Note_off_c, 0, 60, 63
1, 10365, Control_c, 0, 64, 116
1, 10371, Note_on_c, 0, 60, 81
1, 10374, Note_on_c, 0, 53, 77
1, 10375, Note_on_c, 0, 45, 76
1, 10379, Note_on_c, 0, 33, 73
1, 10379, Control_c, 0, 64, 107
1, 10394, Control_c, 0, 64, 98
1, 10409, Control_c, 0, 64, 90
1, 10410, Note_off_c, 0, 55, 59
1, 10424, Control_c, 0, 64, 82
1, 10439, Control_c, 0, 64, 74
1, 10453, Control_c, 0, 64, 68
1, 10468, Control_c, 0, 64, 64
1, 10483, Control_c, 0, 64, 63
1, 10512, Control_c, 0, 64, 62
1, 10527, Control_c, 0, 64, 62
1, 10542, Control_c, 0, 64, 60
1, 10557, Control_c, 0, 64, 58
1, 10572, Control_c, 0, 64, 57
1, 10587, Control_c, 0, 64, 57
1, 10601, Control_c, 0, 64, 55
1, 10616, Control_c, 0, 64, 52
1, 10631, Control_c, 0, 64, 48
1, 10646, Control_c, 0, 64, 44
1, 10661, Control_c, 0, 64, 44
1, 10698, Control_c, 0, 64, 43
1, 10714, Control_c, 0, 64, 39
1, 10729, Control_c, 0, 64, 35
1, 10744, Control_c, 0, 64, 34
1, 10758, Control_c, 0, 64, 34
1, 10773, Control_c, 0, 64, 35
1, 10847, Control_c, 0, 64, 36
1, 10907, Control_c, 0, 64, 36
1, 10942, Note_on_c, 0, 58, 75
1, 10966, Control_c, 0, 64, 35
1, 10981, Control_c, 0, 64, 34
1, 11040, Control_c, 0, 64, 36
1, 11055, Control_c, 0, 64, 40
1, 11069, Control_c, 0, 64, 47
1, 11084, Control_c, 0, 64, 55
1, 11099, Control_c, 0, 64, 62
1, 11105, Note_off_c, 0, 60, 47
1, 11114, Control_c, 0, 64, 66
1, 11129, Control_c, 0, 64, 71
1, 11144, Control_c, 0, 64, 75
1, 11159, Control_c, 0, 64, 80
1, 11174, Control_c, 0, 64, 84
1, 11189, Control_c, 0, 64, 87
1, 11201, Note_off_c, 0, 45, 61
1, 11203, Control_c, 0, 64, 89
1, 11218, Control_c, 0, 64, 90
1, 11233, Control_c, 0, 64, 91
1, 11248, Control_c, 0, 64, 93
1, 11254, Note_off_c, 0, 33, 64
1, 11263, Control_c, 0, 64, 94
1, 11277, Control_c, 0, 64, 96
1, 11292, Control_c, 0, 64, 96
1, 11321, Control_c, 0, 64, 97
1, 11336, Control_c, 0, 64, 97
1, 11351, Control_c, 0, 64, 98
1, 11366, Control_c, 0, 64, 99
1, 11381, Control_c, 0, 64, 99
1, 11395, Control_c, 0, 64, 100
1, 11477, Control_c, 0, 64, 99
1, 11492, Control_c, 0, 64, 94
1, 11508, Control_c, 0, 64, 84
1, 11518, Note_on_c, 0, 57, 75
1, 11523, Control_c, 0, 64, 74
1, 11530, Note_on_c, 0, 31, 70
1, 11532, Note_on_c, 0, 43, 65
1, 11537, Control_c, 0, 64, 64
1, 11552, Control_c, 0, 64, 35
1, 11562, Note_off_c, 0, 58, 63
1, 11567, Control_c, 0, 64, 0
1, 11612, Control_c, 0, 64, 34
1, 11626, Control_c, 0, 64, 60
1, 11641, Control_c, 0, 64, 66
1, 11656, Control_c, 0, 64, 71
1, 11671, Control_c, 0, 64, 75
1, 11686, Control_c, 0, 64, 80
1, 11700, Control_c, 0, 64, 85
1, 11715, Control_c, 0, 64, 90
1, 11718, Note_off_c, 0, 43, 51
1, 11730, Control_c, 0, 64, 95
1, 11745, Control_c, 0, 64, 98
1, 11759, Control_c, 0, 64, 98
1, 11804, Control_c, 0, 64, 97
1, 11812, Note_off_c, 0, 57, 62
1, 11815, Note_on_c, 0, 45, 81
1, 11818, Note_on_c, 0, 33, 78
1, 11818, Control_c, 0, 64, 94
1, 11833, Control_c, 0, 64, 90
1, 11848, Control_c, 0, 64, 87
1, 11863, Control_c, 0, 64, 84
1, 11922, Control_c, 0, 64, 85
1, 11923, Note_off_c, 0, 31, 29
1, 11937, Control_c, 0, 64, 86
1, 11952, Control_c, 0, 64, 87
1, 11967, Control_c, 0, 64, 89
1, 11979, Note_off_c, 0, 45, 63
1, 11982, Control_c, 0, 64, 90
1, 11997, Control_c, 0, 64, 92
1, 12011, Control_c, 0, 64, 93
1, 12019, Note_off_c, 0, 53, 56
1, 12026, Control_c, 0, 64, 94
1, 12041, Control_c, 0, 64, 94
1, 12056, Control_c, 0, 64, 95
1, 12130, Control_c, 0, 64, 94
1, 12144, Control_c, 0, 64, 91
1, 12152, Note_on_c, 0, 55, 82
1, 12154, Note_on_c, 0, 53, 75
1, 12158, Note_on_c, 0, 46, 82
1, 12159, Control_c, 0, 64, 84
1, 12163, Note_on_c, 0, 34, 73
1, 12181, Control_c, 0, 64, 74
1, 12196, Control_c, 0, 64, 66
1, 12211, Control_c, 0, 64, 55
1, 12219, Note_off_c, 0, 33, 64
1, 12226, Control_c, 0, 64, 34
1, 12241, Control_c, 0, 64, 16
1, 12256, Control_c, 0, 64, 0
1, 12772, Note_on_c, 0, 52, 73
1, 12814, Note_off_c, 0, 53, 61
1, 12930, Control_c, 0, 64, 16
1, 12945, Control_c, 0, 64, 32
1, 12960, Control_c, 0, 64, 35
1, 12974, Control_c, 0, 64, 36
1, 12989, Control_c, 0, 64, 36
1, 13004, Control_c, 0, 64, 41
1, 13019, Control_c, 0, 64, 47
1, 13034, Control_c, 0, 64, 52
1, 13049, Control_c, 0, 64, 54
1, 13094, Control_c, 0, 64, 54
1, 13109, Control_c, 0, 64, 56
1, 13123, Control_c, 0, 64, 58
1, 13138, Control_c, 0, 64, 59
1, 13153, Control_c, 0, 64, 60
1, 13168, Control_c, 0, 64, 61
1, 13183, Control_c, 0, 64, 61
1, 13198, Control_c, 0, 64, 62
1, 13213, Control_c, 0, 64, 62
1, 13228, Control_c, 0, 64, 63
1, 13257, Control_c, 0, 64, 62
1, 13302, Control_c, 0, 64, 62
1, 13331, Control_c, 0, 64, 61
1, 13341, Note_on_c, 0, 50, 76
1, 13346, Control_c, 0, 64, 61
1, 13361, Note_off_c, 0, 52, 63
1, 13420, Control_c, 0, 64, 61
1, 13435, Control_c, 0, 64, 62
1, 13450, Control_c, 0, 64, 62
1, 13465, Control_c, 0, 64, 64
1, 13479, Control_c, 0, 64, 66
1, 13494, Control_c, 0, 64, 70
1, 13509, Control_c, 0, 64, 75
1, 13523, Control_c, 0, 64, 80
1, 13538, Control_c, 0, 64, 83
1, 13553, Control_c, 0, 64, 85
1, 13568, Control_c, 0, 64, 87
1, 13583, Control_c, 0, 64, 89
1, 13597, Control_c, 0, 64, 91
1, 13612, Control_c, 0, 64, 93
1, 13627, Control_c, 0, 64, 94
1, 13642, Control_c, 0, 64, 95
1, 13648, Note_off_c, 0, 46, 60
1, 13657, Note_on_c, 0, 57, 83
1, 13657, Control_c, 0, 64, 96
1, 13679, Control_c, 0, 64, 97
1, 13694, Control_c, 0, 64, 98
1, 13699, Note_off_c, 0, 55, 63
1, 13709, Control_c, 0, 64, 99
1, 13723, Control_c, 0, 64, 100
1, 13738, Control_c, 0, 64, 102
1, 13753, Control_c, 0, 64, 104
1, 13768, Control_c, 0, 64, 106
1, 13783, Control_c, 0, 64, 108
1, 13797, Control_c, 0, 64, 108
1, 13812, Control_c, 0, 64, 109
1, 13827, Control_c, 0, 64, 109
1, 13842, Control_c, 0, 64, 110
1, 13857, Control_c, 0, 64, 113
1, 13872, Control_c, 0, 64, 116
1, 13886, Control_c, 0, 64, 118
1, 13902, Control_c, 0, 64, 119
1, 13917, Control_c, 0, 64, 120
1, 13932, Control_c, 0, 64, 121
1, 13991, Control_c, 0, 64, 119
1, 13994, Note_on_c, 0, 55, 83
1, 14003, Note_on_c, 0, 45, 82
1, 14005, Note_on_c, 0, 33, 79
1, 14006, Control_c, 0, 64, 112
1, 14021, Control_c, 0, 64, 104
1, 14032, Note_off_c, 0, 57, 58
1, 14035, Control_c, 0, 64, 95
1, 14050, Control_c, 0, 64, 85
1, 14065, Control_c, 0, 64, 74
1, 14072, Note_off_c, 0, 34, 26
1, 14080, Control_c, 0, 64, 64
1, 14095, Control_c, 0, 64, 0
1, 14228, Control_c, 0, 64, 61
1, 14243, Control_c, 0, 64, 67
1, 14258, Control_c, 0, 64, 71
1, 14273, Control_c, 0, 64, 76
1, 14288, Control_c, 0, 64, 83
1, 14302, Control_c, 0, 64, 90
1, 14317, Control_c, 0, 64, 96
1, 14332, Control_c, 0, 64, 98
1, 14346, Control_c, 0, 64, 99
1, 14361, Control_c, 0, 64, 100
1, 14376, Control_c, 0, 64, 103
1, 14391, Control_c, 0, 64, 107
1, 14406, Control_c, 0, 64, 110
1, 14428, Control_c, 0, 64, 112
1, 14443, Control_c, 0, 64, 113
1, 14458, Control_c, 0, 64, 113
1, 14472, Control_c, 0, 64, 116
1, 14487, Control_c, 0, 64, 121
1, 14502, Control_c, 0, 64, 124
1, 14517, Control_c, 0, 64, 125
1, 14581, Note_on_c, 0, 48, 88
1, 14593, Note_off_c, 0, 50, 63
1, 14608, Note_off_c, 0, 45, 59
1, 14650, Control_c, 0, 64, 125
1, 14665, Control_c, 0, 64, 126
1, 14679, Control_c, 0, 64, 126
1, 14711, Control_c, 0, 64, 127
1, 14725, Control_c, 0, 64, 127
1, 14879, Note_on_c, 0, 43, 87
1, 14884, Note_on_c, 0, 31, 87
1, 14918, Note_off_c, 0, 33, 35
1, 15022, Control_c, 0, 64, 121
1, 15037, Control_c, 0, 64, 113
1, 15051, Control_c, 0, 64, 107
1, 15066, Control_c, 0, 64, 101
1, 15081, Control_c, 0, 64, 97
1, 15095, Control_c, 0, 64, 92
1, 15110, Control_c, 0, 64, 86
1, 15125, Control_c, 0, 64, 80
1, 15140, Control_c, 0, 64, 72
1, 15155, Control_c, 0, 64, 64
1, 15177, Control_c, 0, 64, 34
1, 15192, Control_c, 0, 64, 0
1, 15219, Note_on_c, 0, 50, 87
1, 15243, Note_off_c, 0, 48, 64
1, 15325, Control_c, 0, 64, 64
1, 15340, Control_c, 0, 64, 75
1, 15355, Control_c, 0, 64, 84
1, 15369, Control_c, 0, 64, 92
1, 15384, Control_c, 0, 64, 99
1, 15399, Control_c, 0, 64, 103
1, 15407, Note_off_c, 0, 43, 61
1, 15414, Control_c, 0, 64, 107
1, 15429, Control_c, 0, 64, 112
1, 15443, Control_c, 0, 64, 117
1, 15453, Note_off_c, 0, 31, 59
1, 15458, Control_c, 0, 64, 121
1, 15473, Control_c, 0, 64, 126
1, 15488, Control_c, 0, 64, 127
1, 15520, Note_on_c, 0, 57, 92
1, 15547, Note_off_c, 0, 50, 63
1, 15566, Note_off_c, 0, 55, 62
1, 15830, Control_c, 0, 64, 112
1, 15836, Note_on_c, 0, 24, 100
1, 15837, Note_on_c, 0, 36, 93
1, 15839, Note_on_c, 0, 52, 94
1, 15842, Note_on_c, 0, 55, 97
1, 15845, Control_c, 0, 64, 93
1, 15859, Control_c, 0, 64, 76
1, 15874, Control_c, 0, 64, 55
1, 15875, Note_off_c, 0, 57, 61
1, 15889, Control_c, 0, 64, 0
1, 16015, Control_c, 0, 64, 63
1, 16030, Control_c, 0, 64, 72
1, 16045, Control_c, 0, 64, 80
1, 16060, Control_c, 0, 64, 86
1, 16074, Control_c, 0, 64, 89
1, 16089, Control_c, 0, 64, 94
1, 16104, Control_c, 0, 64, 100
1, 16118, Control_c, 0, 64, 106
1, 16133, Control_c, 0, 64, 111
1, 16148, Control_c, 0, 64, 114
1, 16163, Control_c, 0, 64, 117
1, 16178, Control_c, 0, 64, 121
1, 16192, Control_c, 0, 64, 127
1, 16207, Control_c, 0, 64, 127
1, 16418, Note_on_c, 0, 58, 89
1, 16424, Note_on_c, 0, 50, 83
1, 16427, Note_off_c, 0, 52, 64
1, 16435, Note_off_c, 0, 55, 58
1, 17012, Note_on_c, 0, 57, 85
1, 17014, Note_on_c, 0, 53, 88
1, 17037, Note_off_c, 0, 58, 66
1, 17048, Note_off_c, 0, 50, 63
1, 17616, Control_c, 0, 64, 125
1, 17619, Note_on_c, 0, 60, 85
1, 17623, Note_off_c, 0, 53, 64
1, 17630, Note_on_c, 0, 55, 75
1, 17631, Control_c, 0, 64, 100
1, 17645, Note_off_c, 0, 57, 59
1, 17645, Control_c, 0, 64, 79
1, 17660, Control_c, 0, 64, 63
1, 17675, Control_c, 0, 64, 0
1, 17794, Control_c, 0, 64, 64
1, 17809, Control_c, 0, 64, 73
1, 17824, Control_c, 0, 64, 79
1, 17838, Control_c, 0, 64, 83
1, 17853, Control_c, 0, 64, 88
1, 17868, Control_c, 0, 64, 96
1, 17883, Control_c, 0, 64, 104
1, 17891, Note_off_c, 0, 55, 64
1, 17899, Control_c, 0, 64, 108
1, 17913, Control_c, 0, 64, 109
1, 17920, Note_off_c, 0, 60, 63
1, 17928, Control_c, 0, 64, 112
1, 17943, Control_c, 0, 64, 115
1, 17958, Control_c, 0, 64, 118
1, 17973, Control_c, 0, 64, 120
1, 17987, Control_c, 0, 64, 120
1, 18002, Control_c, 0, 64, 121
1, 18017, Control_c, 0, 64, 121
1, 18032, Control_c, 0, 64, 122
1, 18047, Control_c, 0, 64, 123
1, 18135, Control_c, 0, 64, 121
1, 18150, Control_c, 0, 64, 113
1, 18173, Control_c, 0, 64, 102
1, 18188, Control_c, 0, 64, 91
1, 18202, Control_c, 0, 64, 80
1, 18217, Control_c, 0, 64, 69
1, 18232, Control_c, 0, 64, 61
1, 18247, Control_c, 0, 64, 41
1, 18262, Control_c, 0, 64, 0
1, 18272, Note_on_c, 0, 62, 70
1, 18273, Note_on_c, 0, 58, 63
1, 18350, Control_c, 0, 64, 48
1, 18365, Control_c, 0, 64, 64
1, 18380, Control_c, 0, 64, 71
1, 18394, Control_c, 0, 64, 79
1, 18409, Control_c, 0, 64, 93
1, 18424, Control_c, 0, 64, 105
1, 18439, Control_c, 0, 64, 117
1, 18454, Control_c, 0, 64, 125
1, 18468, Control_c, 0, 64, 127
1, 18531, Note_off_c, 0, 58, 64
1, 18587, Note_on_c, 0, 64, 92
1, 18671, Note_off_c, 0, 62, 60
1, 18881, Note_on_c, 0, 65, 96
1, 18885, Note_on_c, 0, 57, 93
1, 18929, Note_off_c, 0, 64, 64
1, 19002, Note_off_c, 0, 36, 62
1, 19009, Note_off_c, 0, 24, 61
1, 19218, Note_on_c, 0, 67, 106
1, 19247, Note_off_c, 0, 65, 60
1, 19324, Poly_aftertouch_c, 0, 64, 0
1, 19537, Note_on_c, 0, 26, 106
1, 19537, Note_on_c, 0, 38, 103
1, 19549, Note_on_c, 0, 36, 86
1, 19562, Note_off_c, 0, 57, 61
1, 19577, Note_off_c, 0, 67, 66
1, 19579, Note_on_c, 0, 31, 41
1, 19580, Note_off_c, 0, 31, 127
1, 19589, Control_c, 0, 64, 103
1, 19596, Note_off_c, 0, 36, 0
1, 19604, Control_c, 0, 64, 68
1, 19613, Poly_aftertouch_c, 0, 31, 0
1, 19619, Control_c, 0, 64, 0
1, 19667, Poly_aftertouch_c, 0, 36, 0
1, 20239, Note_on_c, 0, 69, 107
1, 20241, Note_on_c, 0, 65, 112
1, 20507, Control_c, 0, 64, 34
1, 20522, Control_c, 0, 64, 65
1, 20537, Control_c, 0, 64, 68
1, 20552, Control_c, 0, 64, 73
1, 20567, Control_c, 0, 64, 79
1, 20582, Control_c, 0, 64, 85
1, 20596, Control_c, 0, 64, 88
1, 20611, Control_c, 0, 64, 93
1, 20626, Control_c, 0, 64, 96
1, 20641, Control_c, 0, 64, 100
1, 20656, Control_c, 0, 64, 104
1, 20670, Control_c, 0, 64, 107
1, 20685, Control_c, 0, 64, 110
1, 20700, Control_c, 0, 64, 114
1, 20714, Control_c, 0, 64, 119
1, 20729, Control_c, 0, 64, 125
1, 20744, Control_c, 0, 64, 127
1, 20868, Note_on_c, 0, 66, 23
1, 20873, Note_off_c, 0, 69, 53
1, 20905, Note_off_c, 0, 66, 47
1, 20921, Note_off_c, 0, 65, 50
1, 21185, Note_on_c, 0, 69, 101
1, 21190, Note_on_c, 0, 65, 96
1, 21302, Note_off_c, 0, 65, 65
1, 21345, Note_off_c, 0, 26, 60
1, 21345, Note_off_c, 0, 69, 60
1, 21359, Note_off_c, 0, 38, 55
1, 21525, Note_on_c, 0, 69, 106
1, 21526, Note_on_c, 0, 67, 95
1, 21534, Note_on_c, 0, 36, 97
1, 21535, Note_on_c, 0, 24, 104
1, 21552, Control_c, 0, 64, 107
1, 21567, Control_c, 0, 64, 86
1, 21582, Control_c, 0, 64, 66
1, 21597, Control_c, 0, 64, 0
1, 21863, Control_c, 0, 64, 13
1, 21879, Control_c, 0, 64, 36
1, 21894, Control_c, 0, 64, 43
1, 21916, Control_c, 0, 64, 49
1, 21931, Control_c, 0, 64, 54
1, 21946, Control_c, 0, 64, 56
1, 21960, Control_c, 0, 64, 58
1, 21975, Control_c, 0, 64, 59
1, 21990, Control_c, 0, 64, 59
1, 22005, Control_c, 0, 64, 60
1, 22049, Control_c, 0, 64, 60
1, 22063, Note_on_c, 0, 70, 88
1, 22064, Control_c, 0, 64, 61
1, 22079, Control_c, 0, 64, 62
1, 22093, Control_c, 0, 64, 63
1, 22102, Note_off_c, 0, 69, 61
1, 22108, Control_c, 0, 64, 64
1, 22123, Control_c, 0, 64, 67
1, 22138, Control_c, 0, 64, 72
1, 22152, Control_c, 0, 64, 78
1, 22167, Control_c, 0, 64, 83
1, 22182, Control_c, 0, 64, 87
1, 22197, Control_c, 0, 64, 91
1, 22212, Control_c, 0, 64, 96
1, 22227, Control_c, 0, 64, 101
1, 22242, Control_c, 0, 64, 106
1, 22257, Control_c, 0, 64, 109
1, 22272, Control_c, 0, 64, 112
1, 22286, Control_c, 0, 64, 114
1, 22301, Control_c, 0, 64, 117
1, 22316, Control_c, 0, 64, 121
1, 22331, Control_c, 0, 64, 125
1, 22343, Note_on_c, 0, 69, 96
1, 22346, Control_c, 0, 64, 127
1, 22370, Note_off_c, 0, 70, 64
1, 22562, Note_off_c, 0, 24, 59
1, 22624, Note_on_c, 0, 72, 100
1, 22631, Note_on_c, 0, 65, 98
1, 22635, Note_off_c, 0, 36, 59
1, 22679, Note_off_c, 0, 67, 60
1, 22698, Note_off_c, 0, 69, 61
1, 22996, Note_off_c, 0, 72, 57
1, 23187, Note_on_c, 0, 69, 105
1, 23196, Note_on_c, 0, 43, 103
1, 23199, Note_on_c, 0, 31, 95
1, 23213, Control_c, 0, 64, 118
1, 23227, Control_c, 0, 64, 103
1, 23242, Control_c, 0, 64, 92
1, 23257, Control_c, 0, 64, 81
1, 23272, Control_c, 0, 64, 65
1, 23287, Control_c, 0, 64, 0
1, 23518, Control_c, 0, 64, 59
1, 23532, Control_c, 0, 64, 66
1, 23547, Control_c, 0, 64, 70
1, 23562, Control_c, 0, 64, 74
1, 23577, Control_c, 0, 64, 78
1, 23592, Control_c, 0, 64, 81
1, 23606, Control_c, 0, 64, 84
1, 23621, Control_c, 0, 64, 86
1, 23637, Control_c, 0, 64, 88
1, 23652, Control_c, 0, 64, 90
1, 23667, Control_c, 0, 64, 93
1, 23681, Control_c, 0, 64, 97
1, 23696, Control_c, 0, 64, 100
1, 23711, Control_c, 0, 64, 103
1, 23726, Control_c, 0, 64, 106
1, 23728, Note_off_c, 0, 31, 48
1, 23740, Control_c, 0, 64, 108
1, 23755, Control_c, 0, 64, 111
1, 23770, Control_c, 0, 64, 114
1, 23776, Note_off_c, 0, 43, 53
1, 23785, Control_c, 0, 64, 119
1, 23800, Control_c, 0, 64, 124
1, 23814, Control_c, 0, 64, 127
1, 23819, Note_off_c, 0, 65, 66
1, 23822, Note_on_c, 0, 64, 88
1, 24099, Note_on_c, 0, 65, 92
1, 24117, Note_off_c, 0, 64, 58
1, 24293, Note_off_c, 0, 69, 54
1, 24355, Control_c, 0, 64, 119
1, 24370, Control_c, 0, 64, 101
1, 24376, Note_on_c, 0, 29, 77
1, 24379, Note_on_c, 0, 41, 81
1, 24385, Control_c, 0, 64, 88
1, 24388, Note_on_c, 0, 67, 83
1, 24389, Note_on_c, 0, 62, 73
1, 24400, Control_c, 0, 64, 78
1, 24415, Control_c, 0, 64, 63
1, 24429, Control_c, 0, 64, 0
1, 24487, Note_off_c, 0, 65, 60
1, 24518, Control_c, 0, 64, 56
1, 24533, Control_c, 0, 64, 69
1, 24548, Control_c, 0, 64, 75
1, 24562, Control_c, 0, 64, 81
1, 24563, Note_off_c, 0, 29, 62
1, 24577, Control_c, 0, 64, 84
1, 24592, Control_c, 0, 64, 86
1, 24607, Control_c, 0, 64, 87
1, 24622, Control_c, 0, 64, 89
1, 24632, Note_off_c, 0, 41, 62
1, 24636, Control_c, 0, 64, 90
1, 24651, Control_c, 0, 64, 90
1, 24666, Control_c, 0, 64, 91
1, 24680, Control_c, 0, 64, 91
1, 24690, Note_on_c, 0, 69, 89
1, 24695, Control_c, 0, 64, 92
1, 24704, Note_off_c, 0, 67, 62
1, 24710, Control_c, 0, 64, 94
1, 24725, Control_c, 0, 64, 94
1, 24740, Control_c, 0, 64, 95
1, 24755, Control_c, 0, 64, 95
1, 24770, Control_c, 0, 64, 96
1, 24785, Control_c, 0, 64, 97
1, 24829, Control_c, 0, 64, 97
1, 24844, Control_c, 0, 64, 98
1, 24859, Control_c, 0, 64, 99
1, 24873, Control_c, 0, 64, 100
1, 24925, Control_c, 0, 64, 102
1, 24940, Control_c, 0, 64, 105
1, 24955, Control_c, 0, 64, 106
1, 24999, Control_c, 0, 64, 101
1, 25012, Note_on_c, 0, 46, 77
1, 25014, Note_on_c, 0, 70, 90
1, 25014, Control_c, 0, 64, 89
1, 25016, Note_on_c, 0, 34, 70
1, 25029, Control_c, 0, 64, 73
1, 25039, Note_off_c, 0, 69, 64
1, 25044, Control_c, 0, 64, 0
1, 25178, Control_c, 0, 64, 57
1, 25193, Control_c, 0, 64, 69
1, 25208, Control_c, 0, 64, 72
1, 25223, Control_c, 0, 64, 75
1, 25235, Note_off_c, 0, 62, 61
1, 25238, Control_c, 0, 64, 79
1, 25252, Control_c, 0, 64, 87
1, 25267, Control_c, 0, 64, 95
1, 25282, Control_c, 0, 64, 102
1, 25297, Control_c, 0, 64, 106
1, 25310, Note_off_c, 0, 70, 46
1, 25311, Control_c, 0, 64, 108
1, 25326, Control_c, 0, 64, 110
1, 25341, Control_c, 0, 64, 112
1, 25356, Control_c, 0, 64, 114
1, 25371, Control_c, 0, 64, 115
1, 25563, Control_c, 0, 64, 114
1, 25578, Control_c, 0, 64, 102
1, 25592, Control_c, 0, 64, 83
1, 25607, Control_c, 0, 64, 58
1, 25621, Note_on_c, 0, 63, 103
1, 25621, Note_on_c, 0, 72, 103
1, 25622, Note_on_c, 0, 70, 96
1, 25622, Control_c, 0, 64, 0
1, 25733, Control_c, 0, 64, 13
1, 25748, Control_c, 0, 64, 70
1, 25756, Note_on_c, 0, 71, 32
1, 25763, Control_c, 0, 64, 78
1, 25777, Control_c, 0, 64, 85
1, 25788, Note_off_c, 0, 71, 45
1, 25792, Control_c, 0, 64, 90
1, 25807, Control_c, 0, 64, 94
1, 25822, Control_c, 0, 64, 96
1, 25837, Control_c, 0, 64, 97
1, 25847, Note_off_c, 0, 70, 40
1, 25849, Note_off_c, 0, 63, 55
1, 25852, Control_c, 0, 64, 97
1, 25867, Control_c, 0, 64, 99
1, 25882, Control_c, 0, 64, 101
1, 25897, Control_c, 0, 64, 104
1, 25912, Control_c, 0, 64, 106
1, 25925, Note_off_c, 0, 72, 52
1, 25926, Control_c, 0, 64, 106
1, 25941, Control_c, 0, 64, 107
1, 25956, Control_c, 0, 64, 111
1, 25971, Control_c, 0, 64, 120
1, 25986, Control_c, 0, 64, 127
1, 26194, Control_c, 0, 64, 98
1, 26208, Note_on_c, 0, 65, 105
1, 26208, Note_on_c, 0, 74, 106
1, 26208, Control_c, 0, 64, 79
1, 26209, Note_on_c, 0, 70, 103
1, 26223, Control_c, 0, 64, 54
1, 26238, Control_c, 0, 64, 0
1, 26297, Control_c, 0, 64, 62
1, 26312, Control_c, 0, 64, 74
1, 26326, Control_c, 0, 64, 86
1, 26341, Control_c, 0, 64, 101
1, 26356, Control_c, 0, 64, 113
1, 26363, Note_off_c, 0, 74, 63
1, 26371, Control_c, 0, 64, 127
1, 26402, Note_off_c, 0, 65, 59
1, 26424, Note_off_c, 0, 46, 63
1, 26459, Note_off_c, 0, 34, 57
1, 26477, Poly_aftertouch_c, 0, 66, 0
1, 26508, Note_off_c, 0, 70, 46
1, 26803, Note_on_c, 0, 75, 102
1, 26803, Note_on_c, 0, 67, 98
1, 26803, Note_on_c, 0, 70, 104
1, 26809, Note_on_c, 0, 39, 102
1, 26812, Note_on_c, 0, 27, 98
1, 26824, Control_c, 0, 64, 96
1, 26838, Control_c, 0, 64, 69
1, 26849, Note_on_c, 0, 31, 37
1, 26850, Note_off_c, 0, 31, 127
1, 26853, Control_c, 0, 64, 0
1, 26889, Poly_aftertouch_c, 0, 31, 0
1, 27061, Control_c, 0, 64, 40
1, 27075, Control_c, 0, 64, 42
1, 27090, Control_c, 0, 64, 53
1, 27105, Control_c, 0, 64, 66
1, 27120, Control_c, 0, 64, 72
1, 27135, Control_c, 0, 64, 78
1, 27157, Control_c, 0, 64, 80
1, 27187, Control_c, 0, 64, 82
1, 27202, Control_c, 0, 64, 87
1, 27217, Control_c, 0, 64, 96
1, 27231, Control_c, 0, 64, 102
1, 27246, Control_c, 0, 64, 103
1, 27261, Control_c, 0, 64, 104
1, 27275, Control_c, 0, 64, 104
1, 27290, Control_c, 0, 64, 105
1, 27305, Control_c, 0, 64, 107
1, 27320, Control_c, 0, 64, 108
1, 27335, Control_c, 0, 64, 109
1, 27364, Control_c, 0, 64, 110
1, 27380, Control_c, 0, 64, 110
1, 27395, Control_c, 0, 64, 111
1, 27408, Note_on_c, 0, 63, 100
1, 27410, Control_c, 0, 64, 112
1, 27424, Control_c, 0, 64, 113
1, 27427, Note_off_c, 0, 67, 55
1, 27439, Control_c, 0, 64, 114
1, 27454, Control_c, 0, 64, 116
1, 27469, Control_c, 0, 64, 120
1, 27485, Control_c, 0, 64, 125
1, 27499, Control_c, 0, 64, 127
1, 27680, Note_on_c, 0, 65, 90
1, 27693, Note_off_c, 0, 63, 58
1, 27939, Note_off_c, 0, 65, 61
1, 27986, Note_on_c, 0, 67, 103
1, 27995, Control_c, 0, 64, 97
1, 28010, Control_c, 0, 64, 77
1, 28025, Control_c, 0, 64, 58
1, 28040, Control_c, 0, 64, 0
1, 28084, Control_c, 0, 64, 65
1, 28099, Control_c, 0, 64, 74
1, 28114, Control_c, 0, 64, 84
1, 28128, Control_c, 0, 64, 94
1, 28143, Control_c, 0, 64, 103
1, 28158, Control_c, 0, 64, 114
1, 28172, Control_c, 0, 64, 127
1, 28213, Note_off_c, 0, 27, 61
1, 28216, Note_off_c, 0, 39, 61
1, 28250, Note_off_c, 0, 70, 54
1, 28267, Note_off_c, 0, 75, 59
1, 28547, Note_on_c, 0, 76, 100
1, 28549, Note_on_c, 0, 72, 99
1, 28554, Note_on_c, 0, 36, 95
1, 28555, Note_on_c, 0, 24, 97
1, 28558, Control_c, 0, 64, 123
1, 28573, Control_c, 0, 64, 91
1, 28588, Control_c, 0, 64, 70
1, 28593, Note_on_c, 0, 25, 44
1, 28603, Control_c, 0, 64, 0
1, 28633, Note_off_c, 0, 25, 32
1, 28728, Control_c, 0, 64, 21
1, 28743, Control_c, 0, 64, 70
1, 28758, Control_c, 0, 64, 78
1, 28773, Control_c, 0, 64, 83
1, 28788, Control_c, 0, 64, 86
1, 28803, Control_c, 0, 64, 88
1, 28818, Control_c, 0, 64, 93
1, 28833, Control_c, 0, 64, 103
1, 28847, Control_c, 0, 64, 111
1, 28862, Control_c, 0, 64, 113
1, 28877, Control_c, 0, 64, 114
1, 28892, Control_c, 0, 64, 115
1, 28907, Control_c, 0, 64, 121
1, 28921, Control_c, 0, 64, 127
1, 29159, Note_on_c, 0, 64, 97
1, 29170, Note_off_c, 0, 67, 59
1, 29435, Note_off_c, 0, 64, 67
1, 29447, Note_on_c, 0, 65, 102
1, 29704, Note_off_c, 0, 65, 65
1, 29759, Note_on_c, 0, 67, 106
1, 29788, Control_c, 0, 64, 102
1, 29803, Control_c, 0, 64, 86
1, 29818, Control_c, 0, 64, 75
1, 29833, Control_c, 0, 64, 67
1, 29833, Control_c, 0, 66, 127
1, 29848, Control_c, 0, 64, 0
1, 29908, Control_c, 0, 64, 63
1, 29923, Control_c, 0, 64, 76
1, 29938, Control_c, 0, 64, 91
1, 29948, Note_off_c, 0, 72, 62
1, 29953, Control_c, 0, 64, 112
1, 29967, Control_c, 0, 64, 127
1, 29971, Note_off_c, 0, 76, 61
1, 29974, Note_off_c, 0, 36, 60
1, 29987, Note_off_c, 0, 24, 61
1, 30226, Control_c, 0, 66, 0
1, 30308, Note_off_c, 0, 67, 48
1, 30356, Note_on_c, 0, 69, 106
1, 30356, Note_on_c, 0, 76, 105
1, 30358, Note_on_c, 0, 73, 97
1, 30365, Note_on_c, 0, 33, 110
1, 30365, Note_on_c, 0, 21, 99
1, 30390, Control_c, 0, 64, 92
1, 30405, Control_c, 0, 64, 60
1, 30419, Control_c, 0, 64, 0
1, 30582, Control_c, 0, 66, 127
1, 30702, Note_off_c, 0, 76, 61
1, 30710, Note_off_c, 0, 21, 60
1, 30746, Note_off_c, 0, 69, 61
1, 30754, Note_off_c, 0, 73, 59
1, 30757, Note_off_c, 0, 33, 63
1, 31077, Note_on_c, 0, 58, 112
1, 31083, Note_on_c, 0, 46, 102
1, 31088, Note_on_c, 0, 34, 100
1, 31131, Note_on_c, 0, 38, 27
1, 31132, Note_off_c, 0, 38, 127
1, 31465, Control_c, 0, 64, 24
1, 31480, Control_c, 0, 64, 49
1, 31495, Control_c, 0, 64, 54
1, 31510, Control_c, 0, 64, 59
1, 31525, Control_c, 0, 64, 62
1, 31539, Control_c, 0, 64, 65
1, 31554, Control_c, 0, 64, 70
1, 31569, Control_c, 0, 64, 76
1, 31584, Control_c, 0, 64, 83
1, 31599, Control_c, 0, 64, 90
1, 31614, Control_c, 0, 64, 95
1, 31629, Control_c, 0, 64, 98
1, 31651, Control_c, 0, 64, 102
1, 31665, Control_c, 0, 64, 106
1, 31680, Control_c, 0, 64, 110
1, 31695, Control_c, 0, 64, 113
1, 31710, Control_c, 0, 64, 117
1, 31725, Control_c, 0, 64, 122
1, 31740, Control_c, 0, 64, 127
1, 31852, Note_off_c, 0, 34, 62
1, 31853, Note_off_c, 0, 46, 60
1, 31935, Note_on_c, 0, 57, 97
1, 31936, Note_on_c, 0, 45, 91
1, 31937, Note_on_c, 0, 33, 89
1, 31942, Note_off_c, 0, 58, 59
1, 32059, Note_off_c, 0, 45, 62
1, 32213, Control_c, 0, 64, 126
1, 32228, Control_c, 0, 64, 108
1, 32240, Note_on_c, 0, 46, 106
1, 32243, Note_on_c, 0, 34, 91
1, 32243, Control_c, 0, 64, 89
1, 32244, Note_on_c, 0, 58, 98
1, 32258, Note_off_c, 0, 57, 65
1, 32258, Control_c, 0, 64, 71
1, 32259, Note_off_c, 0, 33, 64
1, 32274, Control_c, 0, 64, 0
1, 32474, Control_c, 0, 64, 66
1, 32488, Control_c, 0, 64, 72
1, 32503, Control_c, 0, 64, 76
1, 32518, Control_c, 0, 64, 80
1, 32533, Control_c, 0, 64, 84
1, 32548, Control_c, 0, 64, 87
1, 32562, Control_c, 0, 64, 89
1, 32577, Control_c, 0, 64, 90
1, 32580, Note_off_c, 0, 46, 57
1, 32592, Control_c, 0, 64, 91
1, 32607, Control_c, 0, 64, 91
1, 32621, Control_c, 0, 64, 92
1, 32636, Control_c, 0, 64, 94
1, 32651, Control_c, 0, 64, 96
1, 32666, Control_c, 0, 64, 99
1, 32681, Control_c, 0, 64, 100
1, 32695, Control_c, 0, 64, 102
1, 32710, Control_c, 0, 64, 103
1, 32725, Control_c, 0, 64, 103
1, 32755, Control_c, 0, 64, 103
1, 32769, Control_c, 0, 64, 97
1, 32784, Control_c, 0, 64, 85
1, 32790, Note_off_c, 0, 34, 65
1, 32799, Control_c, 0, 64, 71
1, 32800, Note_on_c, 0, 43, 82
1, 32801, Note_on_c, 0, 31, 83
1, 32806, Note_on_c, 0, 55, 95
1, 32813, Control_c, 0, 64, 32
1, 32820, Note_off_c, 0, 58, 59
1, 32828, Control_c, 0, 64, 0
1, 32947, Control_c, 0, 64, 61
1, 32961, Control_c, 0, 64, 66
1, 32967, Note_off_c, 0, 43, 61
1, 32976, Control_c, 0, 64, 69
1, 32991, Control_c, 0, 64, 73
1, 33006, Control_c, 0, 64, 77
1, 33021, Control_c, 0, 64, 79
1, 33036, Control_c, 0, 64, 80
1, 33051, Control_c, 0, 64, 79
1, 33066, Control_c, 0, 64, 77
1, 33072, Note_on_c, 0, 45, 85
1, 33073, Note_on_c, 0, 57, 94
1, 33074, Note_on_c, 0, 33, 83
1, 33081, Control_c, 0, 64, 71
1, 33096, Control_c, 0, 64, 62
1, 33110, Control_c, 0, 64, 0
1, 33113, Note_off_c, 0, 55, 61
1, 33146, Note_off_c, 0, 31, 53
1, 33178, Control_c, 0, 64, 61
1, 33192, Control_c, 0, 64, 68
1, 33207, Control_c, 0, 64, 73
1, 33222, Control_c, 0, 64, 78
1, 33224, Note_off_c, 0, 45, 60
1, 33237, Control_c, 0, 64, 83
1, 33251, Control_c, 0, 64, 85
1, 33266, Control_c, 0, 64, 87
1, 33281, Control_c, 0, 64, 90
1, 33296, Control_c, 0, 64, 92
1, 33311, Control_c, 0, 64, 93
1, 33355, Control_c, 0, 64, 91
1, 33370, Control_c, 0, 64, 82
1, 33379, Note_on_c, 0, 58, 96
1, 33382, Note_on_c, 0, 46, 102
1, 33385, Control_c, 0, 64, 67
1, 33387, Note_on_c, 0, 34, 83
1, 33399, Control_c, 0, 64, 0
1, 33404, Note_off_c, 0, 57, 63
1, 33421, Note_off_c, 0, 33, 65
1, 33504, Control_c, 0, 64, 62
1, 33518, Control_c, 0, 64, 78
1, 33533, Control_c, 0, 64, 89
1, 33548, Control_c, 0, 64, 97
1, 33563, Control_c, 0, 64, 103
1, 33566, Note_off_c, 0, 34, 64
1, 33578, Note_off_c, 0, 58, 66
1, 33578, Control_c, 0, 64, 108
1, 33592, Control_c, 0, 64, 114
1, 33599, Note_off_c, 0, 46, 63
1, 33607, Control_c, 0, 64, 124
1, 33622, Control_c, 0, 64, 127
1, 33990, Note_on_c, 0, 63, 105
1, 33990, Note_on_c, 0, 70, 102
1, 33990, Note_on_c, 0, 75, 107
1, 33990, Note_on_c, 0, 67, 100
1, 33994, Note_on_c, 0, 58, 96
1, 33996, Note_on_c, 0, 55, 90
1, 34015, Control_c, 0, 64, 104
1, 34022, Note_on_c, 0, 73, 54
1, 34030, Control_c, 0, 64, 78
1, 34030, Control_c, 0, 66, 0
1, 34043, Note_off_c, 0, 73, 58
1, 34045, Control_c, 0, 64, 0
1, 34073, Note_on_c, 0, 62, 9
1, 34099, Note_off_c, 0, 62, 31
1, 34163, Control_c, 0, 66, 127
1, 34300, Note_off_c, 0, 63, 60
1, 34321, Note_off_c, 0, 67, 56
1, 34330, Note_off_c, 0, 75, 59
1, 34344, Note_off_c, 0, 58, 62
1, 34359, Note_off_c, 0, 55, 63
1, 34383, Note_off_c, 0, 70, 55
1, 34687, Note_on_c, 0, 46, 102
1, 34690, Note_on_c, 0, 58, 103
1, 34692, Note_on_c, 0, 34, 88
1, 35030, Control_c, 0, 64, 39
1, 35045, Control_c, 0, 64, 50
1, 35060, Control_c, 0, 64, 59
1, 35075, Control_c, 0, 64, 64
1, 35089, Control_c, 0, 64, 68
1, 35104, Control_c, 0, 64, 74
1, 35119, Control_c, 0, 64, 81
1, 35134, Control_c, 0, 64, 86
1, 35149, Control_c, 0, 64, 91
1, 35163, Control_c, 0, 64, 95
1, 35178, Control_c, 0, 64, 99
1, 35193, Control_c, 0, 64, 103
1, 35207, Control_c, 0, 64, 106
1, 35222, Control_c, 0, 64, 108
1, 35237, Control_c, 0, 64, 110
1, 35252, Control_c, 0, 64, 112
1, 35267, Control_c, 0, 64, 115
1, 35281, Control_c, 0, 64, 117
1, 35296, Control_c, 0, 64, 119
1, 35326, Control_c, 0, 64, 120
1, 35355, Control_c, 0, 64, 120
1, 35370, Control_c, 0, 64, 121
1, 35389, Note_off_c, 0, 46, 60
1, 35393, Note_off_c, 0, 34, 63
1, 35534, Note_on_c, 0, 57, 91
1, 35539, Note_on_c, 0, 45, 87
1, 35543, Note_on_c, 0, 33, 89
1, 35544, Note_off_c, 0, 58, 60
1, 35601, Control_c, 0, 64, 120
1, 35616, Control_c, 0, 64, 119
1, 35650, Note_off_c, 0, 45, 63
1, 35764, Control_c, 0, 64, 119
1, 35779, Control_c, 0, 64, 117
1, 35793, Control_c, 0, 64, 110
1, 35808, Control_c, 0, 64, 101
1, 35823, Control_c, 0, 64, 87
1, 35833, Note_on_c, 0, 46, 102
1, 35835, Note_on_c, 0, 58, 93
1, 35838, Control_c, 0, 64, 74
1, 35839, Note_on_c, 0, 34, 83
1, 35850, Note_off_c, 0, 57, 63
1, 35853, Control_c, 0, 64, 58
1, 35856, Note_off_c, 0, 33, 64
1, 35868, Control_c, 0, 64, 0
1, 36030, Control_c, 0, 64, 60
1, 36045, Control_c, 0, 64, 68
1, 36060, Control_c, 0, 64, 73
1, 36075, Control_c, 0, 64, 78
1, 36090, Control_c, 0, 64, 83
1, 36104, Control_c, 0, 64, 86
1, 36119, Control_c, 0, 64, 90
1, 36142, Control_c, 0, 64, 92
1, 36157, Control_c, 0, 64, 95
1, 36172, Control_c, 0, 64, 97
1, 36186, Control_c, 0, 64, 99
1, 36201, Control_c, 0, 64, 101
1, 36216, Control_c, 0, 64, 103
1, 36231, Control_c, 0, 64, 105
1, 36245, Control_c, 0, 64, 108
1, 36261, Control_c, 0, 64, 110
1, 36276, Control_c, 0, 64, 112
1, 36291, Control_c, 0, 64, 114
1, 36306, Control_c, 0, 64, 115
1, 36321, Note_off_c, 0, 46, 58
1, 36321, Control_c, 0, 64, 115
1, 36380, Control_c, 0, 64, 113
1, 36383, Note_off_c, 0, 34, 64
1, 36395, Control_c, 0, 64, 101
1, 36405, Note_on_c, 0, 33, 75
1, 36407, Note_on_c, 0, 57, 95
1, 36407, Note_on_c, 0, 45, 96
1, 36409, Control_c, 0, 64, 87
1, 36424, Control_c, 0, 64, 72
1, 36439, Control_c, 0, 64, 50
1, 36443, Note_off_c, 0, 58, 65
1, 36451, Note_on_c, 0, 34, 11
1, 36454, Control_c, 0, 64, 0
1, 36535, Note_off_c, 0, 34, 0
1, 36572, Poly_aftertouch_c, 0, 34, 127
1, 36631, Control_c, 0, 64, 56
1, 36646, Control_c, 0, 64, 67
1, 36661, Control_c, 0, 64, 72
1, 36675, Control_c, 0, 64, 77
1, 36690, Control_c, 0, 64, 81
1, 36705, Control_c, 0, 64, 86
1, 36720, Control_c, 0, 64, 92
1, 36735, Control_c, 0, 64, 96
1, 36750, Control_c, 0, 64, 100
1, 36765, Control_c, 0, 64, 103
1, 36780, Control_c, 0, 64, 108
1, 36795, Control_c, 0, 64, 114
1, 36809, Control_c, 0, 64, 124
1, 36818, Note_off_c, 0, 45, 51
1, 36824, Control_c, 0, 64, 127
1, 36994, Note_off_c, 0, 33, 61
1, 36998, Poly_aftertouch_c, 0, 34, 0
1, 37027, Note_on_c, 0, 43, 107
1, 37030, Note_on_c, 0, 55, 101
1, 37030, Note_on_c, 0, 31, 91
1, 37039, Control_c, 0, 64, 95
1, 37052, Note_off_c, 0, 57, 61
1, 37054, Control_c, 0, 64, 72
1, 37065, Note_on_c, 0, 32, 47
1, 37069, Control_c, 0, 64, 0
1, 37103, Note_off_c, 0, 32, 34
1, 37158, Control_c, 0, 64, 71
1, 37173, Control_c, 0, 64, 84
1, 37188, Control_c, 0, 64, 99
1, 37203, Control_c, 0, 64, 110
1, 37218, Control_c, 0, 64, 127
1, 37243, Note_off_c, 0, 43, 58
1, 37269, Note_off_c, 0, 31, 62
1, 37352, Note_off_c, 0, 55, 55
1, 37573, Control_c, 0, 66, 0
1, 37656, Note_on_c, 0, 60, 105
1, 37656, Note_on_c, 0, 48, 106
1, 37662, Note_on_c, 0, 24, 113
1, 37662, Note_on_c, 0, 36, 104
1, 37684, Control_c, 0, 64, 97
1, 37699, Control_c, 0, 64, 67
1, 37700, Note_on_c, 0, 31, 45
1, 37710, Note_on_c, 0, 29, 27
1, 37714, Control_c, 0, 64, 0
1, 37725, Note_off_c, 0, 31, 62
1, 37759, Note_off_c, 0, 29, 32
1, 37773, Control_c, 0, 66, 127
1, 37895, Note_off_c, 0, 48, 67
1, 37920, Note_off_c, 0, 24, 63
1, 37939, Note_off_c, 0, 36, 65
1, 37939, Note_off_c, 0, 60, 56
1, 38145, Control_c, 0, 64, 10
1, 38160, Control_c, 0, 64, 29
1, 38175, Control_c, 0, 64, 36
1, 38189, Control_c, 0, 64, 43
1, 38204, Control_c, 0, 64, 49
1, 38219, Control_c, 0, 64, 56
1, 38233, Control_c, 0, 64, 60
1, 38248, Control_c, 0, 64, 62
1, 38263, Control_c, 0, 64, 62
1, 38293, Control_c, 0, 64, 62
1, 38307, Note_on_c, 0, 73, 100
1, 38307, Control_c, 0, 64, 59
1, 38310, Note_on_c, 0, 65, 97
1, 38312, Note_on_c, 0, 70, 97
1, 38313, Note_on_c, 0, 61, 101
1, 38318, Note_on_c, 0, 53, 86
1, 38318, Note_on_c, 0, 58, 94
1, 38322, Control_c, 0, 64, 53
1, 38337, Control_c, 0, 64, 25
1, 38352, Control_c, 0, 64, 0
1, 38398, Note_on_c, 0, 74, 53
1, 38481, Note_off_c, 0, 74, 40
1, 38655, Control_c, 0, 64, 60
1, 38670, Control_c, 0, 64, 72
1, 38685, Control_c, 0, 64, 86
1, 38688, Note_off_c, 0, 65, 51
1, 38696, Note_off_c, 0, 53, 47
1, 38700, Control_c, 0, 64, 99
1, 38714, Note_off_c, 0, 70, 43
1, 38715, Control_c, 0, 64, 103
1, 38729, Control_c, 0, 64, 105
1, 38744, Control_c, 0, 64, 106
1, 38759, Control_c, 0, 64, 106
1, 38774, Control_c, 0, 64, 107
1, 38779, Note_off_c, 0, 58, 58
1, 38786, Note_off_c, 0, 61, 53
1, 38789, Control_c, 0, 64, 107
1, 38804, Control_c, 0, 64, 108
1, 38819, Control_c, 0, 64, 110
1, 38834, Control_c, 0, 64, 112
1, 38849, Control_c, 0, 64, 113
1, 38872, Note_off_c, 0, 73, 59
1, 38905, Note_on_c, 0, 60, 103
1, 38905, Note_on_c, 0, 72, 100
1, 38907, Note_on_c, 0, 64, 98
1, 38908, Control_c, 0, 64, 110
1, 38909, Note_on_c, 0, 58, 91
1, 38911, Note_on_c, 0, 70, 96
1, 38914, Note_on_c, 0, 52, 85
1, 38922, Control_c, 0, 64, 100
1, 38937, Control_c, 0, 64, 87
1, 38952, Control_c, 0, 64, 70
1, 38967, Control_c, 0, 64, 0
1, 39070, Control_c, 0, 64, 66
1, 39074, Note_off_c, 0, 52, 61
1, 39083, Note_off_c, 0, 64, 62
1, 39085, Control_c, 0, 64, 80
1, 39100, Control_c, 0, 64, 92
1, 39115, Control_c, 0, 64, 98
1, 39137, Control_c, 0, 64, 105
1, 39152, Control_c, 0, 64, 118
1, 39167, Control_c, 0, 64, 127
1, 39175, Note_off_c, 0, 72, 59
1, 39183, Note_off_c, 0, 70, 58
1, 39187, Note_off_c, 0, 60, 58
1, 39310, Note_off_c, 0, 58, 57
1, 39486, Note_on_c, 0, 79, 102
1, 39488, Note_on_c, 0, 70, 101
1, 39490, Note_on_c, 0, 72, 94
1, 39494, Note_on_c, 0, 67, 92
1, 39504, Note_on_c, 0, 60, 78
1, 39508, Note_on_c, 0, 58, 78
1, 39508, Control_c, 0, 64, 118
1, 39523, Control_c, 0, 64, 95
1, 39538, Control_c, 0, 64, 77
1, 39552, Control_c, 0, 64, 58
1, 39567, Control_c, 0, 64, 0
1, 39701, Control_c, 0, 64, 43
1, 39716, Control_c, 0, 64, 60
1, 39731, Control_c, 0, 64, 65
1, 39746, Control_c, 0, 64, 72
1, 39760, Control_c, 0, 64, 82
1, 39775, Control_c, 0, 64, 96
1, 39790, Control_c, 0, 64, 103
1, 39804, Control_c, 0, 64, 106
1, 39819, Control_c, 0, 64, 108
1, 39834, Control_c, 0, 64, 110
1, 39849, Control_c, 0, 64, 112
1, 39864, Note_off_c, 0, 67, 53
1, 39864, Control_c, 0, 64, 113
1, 39867, Note_off_c, 0, 72, 59
1, 39902, Note_off_c, 0, 70, 58
1, 39916, Control_c, 0, 64, 114
1, 39925, Note_off_c, 0, 60, 54
1, 39931, Control_c, 0, 64, 115
1, 39945, Control_c, 0, 64, 115
1, 40070, Note_off_c, 0, 79, 54
1, 40100, Note_off_c, 0, 58, 63
1, 40119, Note_on_c, 0, 77, 95
1, 40121, Note_on_c, 0, 69, 90
1, 40121, Note_on_c, 0, 65, 95
1, 40122, Note_on_c, 0, 72, 96
1, 40123, Note_on_c, 0, 60, 80
1, 40124, Control_c, 0, 64, 111
1, 40129, Note_on_c, 0, 57, 82
1, 40139, Control_c, 0, 64, 102
1, 40153, Control_c, 0, 64, 88
1, 40166, Note_on_c, 0, 58, 13
1, 40168, Control_c, 0, 64, 74
1, 40183, Control_c, 0, 64, 46
1, 40198, Control_c, 0, 64, 0
1, 40202, Note_off_c, 0, 58, 41
1, 40242, Control_c, 0, 64, 63
1, 40258, Control_c, 0, 64, 74
1, 40273, Control_c, 0, 64, 86
1, 40288, Control_c, 0, 64, 101
1, 40298, Note_off_c, 0, 65, 62
1, 40302, Note_off_c, 0, 77, 63
1, 40302, Control_c, 0, 64, 115
1, 40317, Control_c, 0, 64, 127
1, 40330, Note_off_c, 0, 72, 65
1, 40375, Note_off_c, 0, 60, 65
1, 40378, Note_off_c, 0, 69, 64
1, 40399, Note_off_c, 0, 57, 64
1, 40724, Control_c, 0, 64, 106
1, 40738, Note_on_c, 0, 46, 110
1, 40738, Note_on_c, 0, 72, 90
1, 40739, Control_c, 0, 64, 82
1, 40740, Note_on_c, 0, 64, 95
1, 40740, Note_on_c, 0, 67, 92
1, 40740, Note_on_c, 0, 76, 96
1, 40743, Note_on_c, 0, 34, 93
1, 40754, Control_c, 0, 64, 62
1, 40769, Control_c, 0, 64, 0
1, 40813, Control_c, 0, 64, 63
1, 40828, Control_c, 0, 64, 78
1, 40843, Control_c, 0, 64, 94
1, 40858, Control_c, 0, 64, 109
1, 40873, Control_c, 0, 64, 119
1, 40887, Control_c, 0, 64, 127
1, 40917, Note_off_c, 0, 46, 62
1, 40937, Note_off_c, 0, 34, 64
1, 40971, Note_off_c, 0, 64, 59
1, 40981, Note_off_c, 0, 76, 61
1, 41017, Note_off_c, 0, 72, 60
1, 41034, Note_on_c, 0, 48, 97
1, 41036, Note_on_c, 0, 36, 94
1, 41056, Note_off_c, 0, 67, 59
1, 41125, Control_c, 0, 66, 0
1, 41207, Note_off_c, 0, 36, 60
1, 41247, Note_off_c, 0, 48, 59
1, 41391, Note_on_c, 0, 70, 93
1, 41391, Note_on_c, 0, 74, 99
1, 41394, Note_on_c, 0, 62, 97
1, 41395, Note_on_c, 0, 65, 93
1, 41397, Note_on_c, 0, 50, 91
1, 41399, Note_on_c, 0, 41, 88
1, 41400, Note_on_c, 0, 46, 92
1, 41402, Note_on_c, 0, 38, 91
1, 41414, Control_c, 0, 64, 98
1, 41429, Control_c, 0, 64, 74
1, 41444, Control_c, 0, 64, 0
1, 41547, Control_c, 0, 64, 61
1, 41562, Control_c, 0, 64, 72
1, 41576, Control_c, 0, 64, 79
1, 41591, Control_c, 0, 64, 87
1, 41606, Control_c, 0, 64, 95
1, 41621, Control_c, 0, 64, 105
1, 41636, Control_c, 0, 64, 122
1, 41651, Control_c, 0, 64, 127
1, 41663, Note_off_c, 0, 38, 61
1, 41667, Note_off_c, 0, 50, 60
1, 41688, Note_off_c, 0, 62, 58
1, 41715, Note_off_c, 0, 74, 57
1, 41763, Note_off_c, 0, 65, 57
1, 41766, Note_off_c, 0, 70, 56
1, 41795, Note_off_c, 0, 46, 56
1, 41856, Note_off_c, 0, 41, 22
1, 42047, Note_on_c, 0, 70, 92
1, 42047, Note_on_c, 0, 74, 95
1, 42048, Note_on_c, 0, 41, 66
1, 42048, Note_on_c, 0, 65, 87
1, 42050, Note_on_c, 0, 46, 87
1, 42050, Note_on_c, 0, 62, 93
1, 42051, Note_on_c, 0, 50, 86
1, 42054, Note_on_c, 0, 38, 83
1, 42885, Note_off_c, 0, 74, 55
1, 42909, Note_off_c, 0, 38, 59
1, 42917, Note_off_c, 0, 50, 55
1, 42956, Note_off_c, 0, 62, 58
1, 42967, Note_off_c, 0, 70, 56
1, 43001, Control_c, 0, 64, 104
1, 43004, Note_off_c, 0, 65, 62
1, 43013, Note_off_c, 0, 41, 35
1, 43016, Control_c, 0, 64, 85
1, 43025, Note_off_c, 0, 46, 54
1, 43030, Control_c, 0, 64, 68
1, 43045, Control_c, 0, 64, 0
1, 43382, Note_on_c, 0, 46, 65
1, 43383, Note_on_c, 0, 70, 83
1, 43384, Note_on_c, 0, 51, 73
1, 43385, Note_on_c, 0, 58, 83
1, 43386, Note_on_c, 0, 67, 83
1, 43388, Note_on_c, 0, 63, 74
1, 43391, Note_on_c, 0, 38, 70
1, 43394, Note_on_c, 0, 43, 66
1, 43460, Control_c, 0, 64, 27
1, 43475, Control_c, 0, 64, 66
1, 43490, Control_c, 0, 64, 74
1, 43505, Control_c, 0, 64, 82
1, 43520, Control_c, 0, 64, 89
1, 43534, Control_c, 0, 64, 94
1, 43549, Control_c, 0, 64, 99
1, 43564, Control_c, 0, 64, 103
1, 43579, Control_c, 0, 64, 106
1, 43580, Note_off_c, 0, 38, 61
1, 43594, Control_c, 0, 64, 110
1, 43609, Control_c, 0, 64, 113
1, 43614, Note_off_c, 0, 51, 61
1, 43630, Note_off_c, 0, 70, 58
1, 43631, Control_c, 0, 64, 115
1, 43635, Note_off_c, 0, 58, 62
1, 43645, Control_c, 0, 64, 116
1, 43652, Note_off_c, 0, 67, 57
1, 43660, Control_c, 0, 64, 117
1, 43675, Control_c, 0, 64, 118
1, 43687, Note_off_c, 0, 63, 62
1, 43695, Note_off_c, 0, 43, 52
1, 43696, Note_off_c, 0, 46, 61
1, 43734, Control_c, 0, 64, 118
1, 44028, Note_on_c, 0, 70, 72
1, 44031, Note_on_c, 0, 46, 68
1, 44033, Note_on_c, 0, 51, 66
1, 44034, Note_on_c, 0, 67, 64
1, 44035, Note_on_c, 0, 58, 65
1, 44037, Note_on_c, 0, 63, 61
1, 44041, Note_on_c, 0, 38, 60
1, 44048, Note_on_c, 0, 43, 52
1, 44667, Note_off_c, 0, 51, 58
1, 44735, Note_off_c, 0, 46, 58
1, 44774, Note_off_c, 0, 43, 40
1, 44809, Note_off_c, 0, 38, 36
1, 44970, Note_off_c, 0, 70, 54
1, 44972, Control_c, 0, 64, 117
1, 44987, Control_c, 0, 64, 114
1, 45001, Control_c, 0, 64, 110
1, 45009, Note_off_c, 0, 67, 34
1, 45010, Note_off_c, 0, 58, 59
1, 45016, Control_c, 0, 64, 105
1, 45031, Control_c, 0, 64, 98
1, 45047, Control_c, 0, 64, 90
1, 45062, Control_c, 0, 64, 81
1, 45064, Note_off_c, 0, 63, 63
1, 45077, Control_c, 0, 64, 73
1, 45091, Control_c, 0, 64, 64
1, 45106, Control_c, 0, 64, 54
1, 45129, Control_c, 0, 64, 48
1, 45144, Control_c, 0, 64, 48
1, 45159, Control_c, 0, 64, 46
1, 45173, Control_c, 0, 64, 41
1, 45188, Control_c, 0, 64, 33
1, 45203, Control_c, 0, 64, 24
1, 45218, Control_c, 0, 64, 23
1, 45292, Control_c, 0, 64, 26
1, 45306, Control_c, 0, 64, 32
1, 45321, Control_c, 0, 64, 36
1, 45336, Control_c, 0, 64, 40
1, 45351, Control_c, 0, 64, 43
1, 45366, Control_c, 0, 64, 46
1, 45380, Control_c, 0, 64, 48
1, 45395, Control_c, 0, 64, 53
1, 45410, Control_c, 0, 64, 55
1, 45424, Control_c, 0, 64, 57
1, 45469, Control_c, 0, 64, 57
1, 45481, Note_on_c, 0, 70, 58
1, 45484, Control_c, 0, 64, 59
1, 45485, Note_on_c, 0, 66, 48
1, 45493, Note_on_c, 0, 58, 43
1, 45497, Note_on_c, 0, 46, 45
1, 45499, Control_c, 0, 64, 63
1, 45499, Note_on_c, 0, 42, 46
1, 45502, Note_on_c, 0, 61, 41
1, 45508, Note_on_c, 0, 34, 39
1, 45514, Control_c, 0, 64, 67
1, 45517, Note_on_c, 0, 37, 30
1, 45529, Control_c, 0, 64, 73
1, 45543, Control_c, 0, 64, 81
1, 45558, Control_c, 0, 64, 89
1, 45573, Control_c, 0, 64, 95
1, 45588, Control_c, 0, 64, 100
1, 45603, Control_c, 0, 64, 103
1, 45609, Note_off_c, 0, 46, 57
1, 45613, Note_off_c, 0, 34, 54
1, 45618, Note_off_c, 0, 42, 63
1, 45618, Control_c, 0, 64, 104
1, 45627, Note_off_c, 0, 58, 62
1, 45630, Note_off_c, 0, 37, 55
1, 45632, Control_c, 0, 64, 106
1, 45633, Note_off_c, 0, 70, 59
1, 45642, Note_off_c, 0, 61, 61
1, 45647, Note_off_c, 0, 66, 63
1, 45647, Control_c, 0, 64, 107
1, 45662, Control_c, 0, 64, 108
1, 45677, Control_c, 0, 64, 108
1, 45706, Control_c, 0, 64, 109
1, 46160, Note_on_c, 0, 70, 49
1, 46162, Note_on_c, 0, 58, 41
1, 46164, Note_on_c, 0, 61, 44
1, 46169, Note_on_c, 0, 66, 45
1, 46175, Note_on_c, 0, 42, 40
1, 46178, Note_on_c, 0, 46, 44
1, 46205, Note_on_c, 0, 34, 27
1, 46208, Note_on_c, 0, 37, 24
1, 46876, Note_off_c, 0, 42, 48
1, 46895, Note_off_c, 0, 37, 41
1, 46900, Note_off_c, 0, 34, 40
1, 46922, Control_c, 0, 64, 108
1, 46932, Note_off_c, 0, 46, 36
1, 46951, Control_c, 0, 64, 108
1, 46977, Note_off_c, 0, 70, 48
1, 47025, Control_c, 0, 64, 107
1, 47040, Control_c, 0, 64, 106
1, 47055, Control_c, 0, 64, 105
1, 47067, Note_off_c, 0, 58, 40
1, 47070, Control_c, 0, 64, 104
1, 47073, Note_off_c, 0, 66, 28
1, 47085, Control_c, 0, 64, 102
1, 47100, Control_c, 0, 64, 100
1, 47115, Control_c, 0, 64, 98
1, 47129, Control_c, 0, 64, 96
1, 47144, Control_c, 0, 64, 94
1, 47152, Note_off_c, 0, 61, 28
1, 47159, Control_c, 0, 64, 92
1, 47174, Control_c, 0, 64, 90
1, 47188, Control_c, 0, 64, 89
1, 47203, Control_c, 0, 64, 87
1, 47218, Control_c, 0, 64, 86
1, 47233, Control_c, 0, 64, 84
1, 47248, Control_c, 0, 64, 82
1, 47262, Control_c, 0, 64, 80
1, 47277, Control_c, 0, 64, 78
1, 47292, Control_c, 0, 64, 76
1, 47307, Control_c, 0, 64, 74
1, 47322, Control_c, 0, 64, 72
1, 47336, Control_c, 0, 64, 70
1, 47351, Control_c, 0, 64, 68
1, 47374, Control_c, 0, 64, 67
1, 47389, Control_c, 0, 64, 67
1, 47403, Control_c, 0, 64, 66
1, 47418, Control_c, 0, 64, 66
1, 47433, Control_c, 0, 64, 65
1, 47448, Control_c, 0, 64, 64
1, 47463, Control_c, 0, 64, 63
1, 47478, Control_c, 0, 64, 62
1, 47493, Control_c, 0, 64, 62
1, 47508, Control_c, 0, 64, 61
1, 47523, Control_c, 0, 64, 60
1, 47538, Control_c, 0, 64, 58
1, 47553, Control_c, 0, 64, 57
1, 47567, Control_c, 0, 64, 56
1, 47582, Control_c, 0, 64, 56
1, 47597, Control_c, 0, 64, 55
1, 47612, Control_c, 0, 64, 55
1, 47626, Control_c, 0, 64, 54
1, 47641, Control_c, 0, 64, 54
1, 47715, Control_c, 0, 64, 54
1, 47745, Control_c, 0, 64, 55
1, 47760, Control_c, 0, 64, 56
1, 47774, Control_c, 0, 64, 56
1, 47789, Control_c, 0, 64, 57
1, 47804, Control_c, 0, 64, 58
1, 47818, Control_c, 0, 64, 58
1, 47833, Control_c, 0, 64, 59
1, 47848, Control_c, 0, 64, 60
1, 47852, Note_on_c, 0, 45, 38
1, 47852, Note_on_c, 0, 69, 47
1, 47862, Note_on_c, 0, 57, 38
1, 47863, Note_on_c, 0, 64, 37
1, 47863, Control_c, 0, 64, 62
1, 47878, Control_c, 0, 64, 62
1, 47893, Control_c, 0, 64, 63
1, 47907, Control_c, 0, 64, 63
1, 47922, Control_c, 0, 64, 64
1, 47937, Control_c, 0, 64, 65
1, 47952, Control_c, 0, 64, 66
1, 47967, Control_c, 0, 64, 67
1, 47982, Control_c, 0, 64, 69
1, 47997, Control_c, 0, 64, 71
1, 48011, Control_c, 0, 64, 73
1, 48026, Control_c, 0, 64, 76
1, 48041, Control_c, 0, 64, 78
1, 48056, Control_c, 0, 64, 81
1, 48071, Control_c, 0, 64, 82
1, 48085, Control_c, 0, 64, 84
1, 48100, Control_c, 0, 64, 86
1, 48122, Control_c, 0, 64, 87
1, 48137, Control_c, 0, 64, 89
1, 48152, Control_c, 0, 64, 90
1, 48167, Control_c, 0, 64, 92
1, 48182, Control_c, 0, 64, 93
1, 48197, Control_c, 0, 64, 94
1, 48212, Control_c, 0, 64, 96
1, 48226, Control_c, 0, 64, 96
1, 48241, Note_off_c, 0, 45, 46
1, 48241, Control_c, 0, 64, 98
1, 48256, Control_c, 0, 64, 99
1, 48271, Control_c, 0, 64, 100
1, 48286, Control_c, 0, 64, 100
1, 48301, Control_c, 0, 64, 101
1, 48316, Control_c, 0, 64, 102
1, 48331, Control_c, 0, 64, 102
1, 48346, Control_c, 0, 64, 103
1, 48361, Control_c, 0, 64, 104
1, 48375, Control_c, 0, 64, 104
1, 48449, Control_c, 0, 64, 100
1, 48464, Control_c, 0, 64, 94
1, 48479, Control_c, 0, 64, 86
1, 48494, Control_c, 0, 64, 80
1, 48509, Control_c, 0, 64, 75
1, 48516, Note_on_c, 0, 55, 51
1, 48520, Note_on_c, 0, 43, 40
1, 48523, Control_c, 0, 64, 72
1, 48538, Control_c, 0, 64, 72
1, 48553, Control_c, 0, 64, 72
1, 48567, Control_c, 0, 64, 74
1, 48582, Control_c, 0, 64, 77
1, 48597, Control_c, 0, 64, 79
1, 48612, Control_c, 0, 64, 83
1, 48627, Control_c, 0, 64, 86
1, 48641, Control_c, 0, 64, 89
1, 48656, Control_c, 0, 64, 92
1, 48671, Control_c, 0, 64, 95
1, 48672, Note_off_c, 0, 55, 61
1, 48686, Control_c, 0, 64, 96
1, 48760, Control_c, 0, 64, 96
1, 48775, Control_c, 0, 64, 94
1, 48790, Control_c, 0, 64, 93
1, 48805, Control_c, 0, 64, 92
1, 48820, Note_on_c, 0, 41, 62
1, 48820, Control_c, 0, 64, 91
1, 48821, Note_on_c, 0, 53, 57
1, 48834, Control_c, 0, 64, 91
1, 48876, Note_off_c, 0, 43, 41
1, 48930, Control_c, 0, 64, 91
1, 48945, Control_c, 0, 64, 92
1, 48960, Control_c, 0, 64, 93
1, 48975, Control_c, 0, 64, 94
1, 48990, Control_c, 0, 64, 96
1, 48996, Note_off_c, 0, 53, 62
1, 49004, Control_c, 0, 64, 96
1, 49105, Note_off_c, 0, 41, 63
1, 49110, Note_on_c, 0, 40, 77
1, 49113, Note_on_c, 0, 52, 76
1, 49242, Control_c, 0, 64, 97
1, 49256, Control_c, 0, 64, 99
1, 49271, Control_c, 0, 64, 101
1, 49286, Control_c, 0, 64, 103
1, 49292, Note_off_c, 0, 52, 64
1, 49301, Control_c, 0, 64, 103
1, 49316, Control_c, 0, 64, 104
1, 49322, Note_off_c, 0, 40, 64
1, 49331, Control_c, 0, 64, 105
1, 49345, Control_c, 0, 64, 106
1, 49360, Control_c, 0, 64, 106
1, 49375, Control_c, 0, 64, 107
1, 49401, Note_on_c, 0, 38, 77
1, 49404, Note_on_c, 0, 50, 77
1, 49495, Note_off_c, 0, 64, 61
1, 49504, Note_off_c, 0, 57, 48
1, 49508, Control_c, 0, 64, 108
1, 49513, Note_off_c, 0, 69, 62
1, 49523, Control_c, 0, 64, 109
1, 49538, Control_c, 0, 64, 110
1, 49553, Control_c, 0, 64, 111
1, 49568, Control_c, 0, 64, 112
1, 49582, Control_c, 0, 64, 113
1, 49596, Note_off_c, 0, 50, 62
1, 49597, Control_c, 0, 64, 118
1, 49619, Control_c, 0, 64, 121
1, 49634, Control_c, 0, 64, 124
1, 49646, Note_off_c, 0, 38, 63
1, 49649, Control_c, 0, 64, 125
1, 49663, Control_c, 0, 64, 126
1, 49678, Control_c, 0, 64, 126
1, 49693, Control_c, 0, 64, 127
1, 49723, Control_c, 0, 64, 125
1, 49738, Control_c, 0, 64, 113
1, 49740, Note_on_c, 0, 69, 86
1, 49741, Note_on_c, 0, 36, 87
1, 49742, Note_on_c, 0, 65, 81
1, 49744, Note_on_c, 0, 48, 85
1, 49746, Note_on_c, 0, 57, 81
1, 49753, Control_c, 0, 64, 98
1, 49768, Control_c, 0, 64, 84
1, 49782, Control_c, 0, 64, 71
1, 49797, Control_c, 0, 64, 39
1, 49812, Control_c, 0, 64, 0
1, 49902, Control_c, 0, 64, 56
1, 49917, Control_c, 0, 64, 66
1, 49932, Control_c, 0, 64, 70
1, 49947, Control_c, 0, 64, 76
1, 49961, Control_c, 0, 64, 83
1, 49976, Control_c, 0, 64, 89
1, 49979, Note_off_c, 0, 48, 64
1, 49991, Control_c, 0, 64, 95
1, 50006, Control_c, 0, 64, 100
1, 50021, Control_c, 0, 64, 103
1, 50036, Control_c, 0, 64, 105
1, 50051, Control_c, 0, 64, 107
1, 50066, Control_c, 0, 64, 108
1, 50081, Control_c, 0, 64, 110
1, 50095, Control_c, 0, 64, 111
1, 50110, Control_c, 0, 64, 112
1, 50125, Control_c, 0, 64, 113
1, 50169, Control_c, 0, 64, 114
1, 50184, Control_c, 0, 64, 114
1, 50199, Control_c, 0, 64, 115
1, 50346, Note_on_c, 0, 46, 89
1, 50349, Note_on_c, 0, 34, 86
1, 50350, Note_off_c, 0, 36, 42
1, 50517, Control_c, 0, 64, 115
1, 50561, Control_c, 0, 64, 116
1, 50576, Control_c, 0, 64, 117
1, 50585, Note_off_c, 0, 46, 62
1, 50591, Control_c, 0, 64, 118
1, 50606, Control_c, 0, 64, 119
1, 50620, Control_c, 0, 64, 119
1, 50636, Control_c, 0, 64, 120
1, 50639, Note_on_c, 0, 33, 78
1, 50642, Note_on_c, 0, 45, 89
1, 50651, Control_c, 0, 64, 121
1, 50666, Control_c, 0, 64, 124
1, 50681, Control_c, 0, 64, 127
1, 50707, Note_off_c, 0, 57, 61
1, 50739, Note_off_c, 0, 34, 49
1, 50740, Note_off_c, 0, 69, 61
1, 50752, Note_off_c, 0, 65, 60
1, 50840, Note_off_c, 0, 45, 60
1, 50874, Poly_aftertouch_c, 0, 34, 127
1, 50924, Poly_aftertouch_c, 0, 34, 0
1, 50925, Note_on_c, 0, 31, 90
1, 50927, Note_on_c, 0, 43, 92
1, 50957, Note_off_c, 0, 33, 56
1, 51154, Note_off_c, 0, 43, 60
1, 51174, Note_off_c, 0, 31, 63
1, 51228, Note_on_c, 0, 41, 108
1, 51228, Note_on_c, 0, 29, 95
1, 51511, Note_off_c, 0, 29, 61
1, 51511, Note_off_c, 0, 41, 60
1, 51590, Note_on_c, 0, 70, 101
1, 51592, Note_on_c, 0, 57, 100
1, 51592, Note_on_c, 0, 67, 95
1, 51593, Note_on_c, 0, 40, 100
1, 51594, Note_on_c, 0, 28, 98
1, 51622, Control_c, 0, 64, 105
1, 51637, Control_c, 0, 64, 82
1, 51652, Control_c, 0, 64, 55
1, 51666, Control_c, 0, 64, 0
1, 51845, Control_c, 0, 64, 69
1, 51866, Control_c, 0, 64, 79
1, 51881, Control_c, 0, 64, 86
1, 51896, Control_c, 0, 64, 89
1, 51911, Control_c, 0, 64, 92
1, 51926, Control_c, 0, 64, 98
1, 51941, Control_c, 0, 64, 106
1, 51956, Control_c, 0, 64, 114
1, 51970, Control_c, 0, 64, 119
1, 51985, Control_c, 0, 64, 124
1, 52000, Control_c, 0, 64, 127
1, 52096, Note_off_c, 0, 70, 58
1, 52122, Note_off_c, 0, 67, 55
1, 52174, Note_on_c, 0, 69, 90
1, 52181, Note_on_c, 0, 65, 79
1, 52307, Note_off_c, 0, 28, 55
1, 52402, Note_off_c, 0, 65, 64
1, 52430, Note_off_c, 0, 69, 64
1, 52456, Note_on_c, 0, 67, 75
1, 52466, Note_on_c, 0, 64, 86
1, 52489, Note_off_c, 0, 40, 57
1, 52495, Note_off_c, 0, 57, 64
1, 52570, Note_off_c, 0, 64, 62
1, 52578, Note_off_c, 0, 67, 63
1, 52771, Note_on_c, 0, 62, 71
1, 52772, Note_on_c, 0, 65, 91
1, 52778, Note_on_c, 0, 57, 70
1, 52778, Control_c, 0, 64, 108
1, 52780, Note_on_c, 0, 29, 81
1, 52782, Note_on_c, 0, 41, 78
1, 52793, Control_c, 0, 64, 89
1, 52808, Control_c, 0, 64, 72
1, 52823, Control_c, 0, 64, 0
1, 52941, Control_c, 0, 64, 56
1, 52956, Control_c, 0, 64, 71
1, 52971, Control_c, 0, 64, 78
1, 52986, Control_c, 0, 64, 84
1, 53001, Control_c, 0, 64, 88
1, 53015, Control_c, 0, 64, 92
1, 53031, Control_c, 0, 64, 95
1, 53046, Control_c, 0, 64, 99
1, 53061, Control_c, 0, 64, 101
1, 53061, Note_off_c, 0, 29, 58
1, 53076, Control_c, 0, 64, 102
1, 53091, Control_c, 0, 64, 103
1, 53105, Control_c, 0, 64, 104
1, 53120, Control_c, 0, 64, 106
1, 53122, Note_off_c, 0, 41, 64
1, 53135, Control_c, 0, 64, 107
1, 53150, Control_c, 0, 64, 108
1, 53194, Control_c, 0, 64, 108
1, 53342, Control_c, 0, 64, 107
1, 53364, Control_c, 0, 64, 104
1, 53379, Control_c, 0, 64, 100
1, 53394, Control_c, 0, 64, 94
1, 53404, Note_on_c, 0, 31, 75
1, 53404, Note_on_c, 0, 43, 75
1, 53409, Control_c, 0, 64, 87
1, 53424, Control_c, 0, 64, 79
1, 53438, Control_c, 0, 64, 68
1, 53453, Control_c, 0, 64, 59
1, 53468, Control_c, 0, 64, 38
1, 53483, Control_c, 0, 64, 25
1, 53498, Control_c, 0, 64, 18
1, 53512, Control_c, 0, 64, 0
1, 53794, Control_c, 0, 64, 16
1, 53809, Control_c, 0, 64, 36
1, 53824, Control_c, 0, 64, 47
1, 53839, Control_c, 0, 64, 54
1, 53854, Control_c, 0, 64, 58
1, 53869, Control_c, 0, 64, 59
1, 53884, Control_c, 0, 64, 59
1, 53899, Control_c, 0, 64, 60
1, 53914, Control_c, 0, 64, 62
1, 53928, Control_c, 0, 64, 63
1, 53943, Control_c, 0, 64, 63
1, 53987, Control_c, 0, 64, 64
1, 54018, Note_off_c, 0, 65, 56
1, 54024, Note_on_c, 0, 64, 54
1, 54030, Note_on_c, 0, 60, 53
1, 54061, Control_c, 0, 64, 63
1, 54096, Note_off_c, 0, 62, 51
1, 54158, Control_c, 0, 64, 64
1, 54187, Control_c, 0, 64, 64
1, 54202, Control_c, 0, 64, 65
1, 54217, Control_c, 0, 64, 66
1, 54232, Control_c, 0, 64, 67
1, 54247, Control_c, 0, 64, 68
1, 54261, Control_c, 0, 64, 70
1, 54276, Control_c, 0, 64, 72
1, 54291, Control_c, 0, 64, 73
1, 54306, Control_c, 0, 64, 74
1, 54321, Control_c, 0, 64, 76
1, 54335, Control_c, 0, 64, 79
1, 54350, Control_c, 0, 64, 81
1, 54354, Note_off_c, 0, 31, 56
1, 54365, Control_c, 0, 64, 84
1, 54370, Note_on_c, 0, 65, 62
1, 54379, Control_c, 0, 64, 86
1, 54394, Control_c, 0, 64, 88
1, 54407, Note_off_c, 0, 64, 61
1, 54409, Control_c, 0, 64, 90
1, 54424, Control_c, 0, 64, 91
1, 54439, Control_c, 0, 64, 92
1, 54454, Control_c, 0, 64, 93
1, 54466, Note_off_c, 0, 43, 38
1, 54468, Control_c, 0, 64, 93
1, 54483, Control_c, 0, 64, 94
1, 54498, Control_c, 0, 64, 94
1, 54513, Control_c, 0, 64, 95
1, 54528, Control_c, 0, 64, 95
1, 54543, Control_c, 0, 64, 96
1, 54662, Control_c, 0, 64, 95
1, 54677, Control_c, 0, 64, 91
1, 54692, Control_c, 0, 64, 85
1, 54704, Note_on_c, 0, 64, 58
1, 54707, Note_on_c, 0, 45, 49
1, 54707, Control_c, 0, 64, 77
1, 54716, Note_on_c, 0, 33, 47
1, 54722, Control_c, 0, 64, 67
1, 54736, Control_c, 0, 64, 48
1, 54751, Control_c, 0, 64, 0
1, 54754, Note_off_c, 0, 65, 59
1, 54892, Control_c, 0, 64, 56
1, 54907, Control_c, 0, 64, 66
1, 54922, Control_c, 0, 64, 73
1, 54936, Control_c, 0, 64, 81
1, 54951, Control_c, 0, 64, 88
1, 54966, Control_c, 0, 64, 92
1, 54981, Control_c, 0, 64, 95
1, 54996, Control_c, 0, 64, 96
1, 55008, Note_off_c, 0, 45, 62
1, 55010, Control_c, 0, 64, 98
1, 55025, Control_c, 0, 64, 99
1, 55040, Control_c, 0, 64, 99
1, 55055, Control_c, 0, 64, 100
1, 55070, Control_c, 0, 64, 100
1, 55084, Control_c, 0, 64, 101
1, 55086, Note_off_c, 0, 33, 44
1, 55099, Control_c, 0, 64, 101
1, 55114, Control_c, 0, 64, 102
1, 55134, Note_on_c, 0, 62, 51
1, 55143, Control_c, 0, 64, 102
1, 55148, Note_off_c, 0, 64, 61
1, 55188, Control_c, 0, 64, 103
1, 55214, Note_off_c, 0, 60, 56
1, 55255, Note_off_c, 0, 62, 61
1, 55266, Note_off_c, 0, 57, 61
1, 55515, Control_c, 0, 64, 102
1, 55530, Control_c, 0, 64, 96
1, 55545, Control_c, 0, 64, 87
1, 55559, Control_c, 0, 64, 76
1, 55571, Note_on_c, 0, 62, 49
1, 55574, Control_c, 0, 64, 64
1, 55578, Note_on_c, 0, 50, 45
1, 55580, Note_on_c, 0, 26, 38
1, 55589, Control_c, 0, 64, 18
1, 55590, Note_on_c, 0, 38, 27
1, 55611, Control_c, 0, 64, 0
1, 55729, Control_c, 0, 64, 50
1, 55744, Control_c, 0, 64, 68
1, 55759, Control_c, 0, 64, 76
1, 55774, Control_c, 0, 64, 83
1, 55789, Control_c, 0, 64, 86
1, 55804, Control_c, 0, 64, 89
1, 55819, Control_c, 0, 64, 91
1, 55833, Control_c, 0, 64, 92
1, 55848, Note_off_c, 0, 62, 55
1, 55848, Control_c, 0, 64, 94
1, 55854, Note_off_c, 0, 26, 41
1, 55854, Note_off_c, 0, 38, 40
1, 55863, Control_c, 0, 64, 95
1, 55878, Control_c, 0, 64, 96
1, 55885, Note_off_c, 0, 50, 35
1, 55893, Control_c, 0, 64, 97
1, 55907, Control_c, 0, 64, 97
1, 55937, Control_c, 0, 64, 98
1, 55966, Control_c, 0, 64, 98
1, 56292, Note_on_c, 0, 62, 37
1, 56314, Note_on_c, 0, 38, 30
1, 56314, Note_on_c, 0, 50, 30
1, 56316, Note_on_c, 0, 26, 36
1, 57110, Control_c, 0, 64, 98
1, 57124, Control_c, 0, 64, 97
1, 57138, Note_off_c, 0, 26, 37
1, 57139, Control_c, 0, 64, 97
1, 57142, Note_off_c, 0, 38, 30
1, 57154, Control_c, 0, 64, 96
1, 57169, Control_c, 0, 64, 93
1, 57184, Control_c, 0, 64, 89
1, 57199, Control_c, 0, 64, 85
1, 57213, Control_c, 0, 64, 79
1, 57228, Control_c, 0, 64, 74
1, 57243, Control_c, 0, 64, 69
1, 57247, Note_off_c, 0, 50, 39
1, 57254, Note_off_c, 0, 62, 35
1, 57258, Control_c, 0, 64, 64
1, 57273, Control_c, 0, 64, 57
1, 57287, Control_c, 0, 64, 49
1, 57302, Control_c, 0, 64, 44
1, 57317, Control_c, 0, 64, 42
1, 57331, Control_c, 0, 64, 36
1, 57345, Control_c, 0, 64, 16
1, 57360, Control_c, 0, 64, 0
1, 57509, Control_c, 0, 64, 10
1, 57523, Control_c, 0, 64, 33
1, 57538, Control_c, 0, 64, 44
1, 57553, Control_c, 0, 64, 49
1, 57568, Control_c, 0, 64, 54
1, 57583, Control_c, 0, 64, 57
1, 57597, Control_c, 0, 64, 59
1, 57612, Control_c, 0, 64, 60
1, 57642, Control_c, 0, 64, 60
1, 57657, Control_c, 0, 64, 61
1, 57671, Control_c, 0, 64, 62
1, 57686, Control_c, 0, 64, 62
1, 57701, Control_c, 0, 64, 63
1, 57716, Control_c, 0, 64, 64
1, 57730, Control_c, 0, 64, 67
1, 57738, Note_on_c, 0, 50, 26
1, 57740, Note_on_c, 0, 26, 32
1, 57745, Control_c, 0, 64, 71
1, 57747, Note_on_c, 0, 38, 18
1, 57760, Control_c, 0, 64, 76
1, 57775, Control_c, 0, 64, 82
1, 57790, Control_c, 0, 64, 86
1, 57804, Control_c, 0, 64, 88
1, 57820, Control_c, 0, 64, 90
1, 57835, Control_c, 0, 64, 91
1, 57858, Control_c, 0, 64, 93
1, 57873, Control_c, 0, 64, 94
1, 57888, Control_c, 0, 64, 95
1, 57891, Note_off_c, 0, 38, 37
1, 57900, Note_off_c, 0, 50, 40
1, 57902, Control_c, 0, 64, 96
1, 57909, Note_off_c, 0, 26, 34
1, 57917, Control_c, 0, 64, 97
1, 57932, Control_c, 0, 64, 98
1, 57947, Control_c, 0, 64, 98
1, 57961, Control_c, 0, 64, 99
1, 57991, Control_c, 0, 64, 99
1, 58006, Control_c, 0, 64, 100
1, 58021, Control_c, 0, 64, 100
1, 58405, Note_on_c, 0, 50, 33
1, 58412, Note_on_c, 0, 26, 24
1, 58418, Note_on_c, 0, 38, 22
1, 58902, Control_c, 0, 67, 9
1, 58917, Control_c, 0, 67, 11
1, 58931, Control_c, 0, 67, 13
1, 58946, Control_c, 0, 67, 16
1, 58961, Control_c, 0, 67, 19
1, 58976, Control_c, 0, 67, 22
1, 58990, Control_c, 0, 67, 26
1, 59005, Control_c, 0, 67, 30
1, 59020, Control_c, 0, 67, 34
1, 59035, Control_c, 0, 67, 38
1, 59050, Control_c, 0, 67, 43
1, 59065, Control_c, 0, 67, 48
1, 59080, Control_c, 0, 67, 52
1, 59094, Control_c, 0, 67, 57
1, 59109, Control_c, 0, 67, 62
1, 59124, Control_c, 0, 67, 67
1, 59139, Control_c, 0, 67, 72
1, 59154, Control_c, 0, 67, 78
1, 59168, Control_c, 0, 67, 83
1, 59183, Control_c, 0, 67, 89
1, 59198, Control_c, 0, 67, 94
1, 59213, Control_c, 0, 67, 99
1, 59228, Control_c, 0, 67, 104
1, 59242, Control_c, 0, 67, 110
1, 59257, Control_c, 0, 67, 115
1, 59272, Control_c, 0, 67, 120
1, 59287, Control_c, 0, 67, 124
1, 59301, Control_c, 0, 67, 127
1, 59525, Note_off_c, 0, 50, 34
1, 59798, Control_c, 0, 64, 101
1, 60051, Control_c, 0, 64, 101
1, 60222, Control_c, 0, 64, 102
1, 60517, Note_on_c, 0, 62, 37
1, 60666, Control_c, 0, 64, 102
1, 60866, Control_c, 0, 64, 103
1, 61154, Note_on_c, 0, 67, 46
1, 61175, Note_on_c, 0, 55, 27
1, 61182, Note_on_c, 0, 59, 27
1, 61236, Note_off_c, 0, 55, 0
1, 61236, Note_on_c, 0, 55, 3
1, 61330, Note_off_c, 0, 62, 31
1, 61430, Control_c, 0, 64, 103
1, 61499, Note_off_c, 0, 67, 38
1, 61642, Note_off_c, 0, 26, 32
1, 61659, Control_c, 0, 64, 104
1, 61768, Note_on_c, 0, 67, 45
1, 61897, Control_c, 0, 64, 104
1, 62149, Control_c, 0, 64, 105
1, 62366, Note_on_c, 0, 62, 43
1, 62448, Note_off_c, 0, 67, 29
1, 62517, Note_off_c, 0, 38, 26
1, 63014, Note_on_c, 0, 67, 45
1, 63054, Note_off_c, 0, 55, 38
1, 63156, Note_off_c, 0, 62, 50
1, 63189, Note_off_c, 0, 59, 39
1, 64311, Note_on_c, 0, 65, 42
1, 64374, Note_off_c, 0, 67, 55
1, 64620, Note_on_c, 0, 67, 48
1, 64892, Control_c, 0, 64, 104
1, 64907, Control_c, 0, 64, 101
1, 64921, Control_c, 0, 64, 96
1, 64936, Note_on_c, 0, 69, 59
1, 64936, Control_c, 0, 64, 89
1, 64951, Control_c, 0, 64, 81
1, 64958, Note_on_c, 0, 57, 38
1, 64960, Note_on_c, 0, 50, 39
1, 64966, Control_c, 0, 64, 73
1, 64981, Note_off_c, 0, 67, 52
1, 64981, Control_c, 0, 64, 66
1, 64995, Control_c, 0, 64, 54
1, 65011, Control_c, 0, 64, 27
1, 65026, Control_c, 0, 64, 0
1, 65141, Note_off_c, 0, 65, 30
1, 65144, Control_c, 0, 64, 36
1, 65159, Control_c, 0, 64, 58
1, 65174, Control_c, 0, 64, 64
1, 65189, Control_c, 0, 64, 68
1, 65204, Control_c, 0, 64, 71
1, 65218, Control_c, 0, 64, 76
1, 65233, Control_c, 0, 64, 80
1, 65248, Control_c, 0, 64, 84
1, 65263, Control_c, 0, 64, 87
1, 65278, Control_c, 0, 64, 90
1, 65292, Control_c, 0, 64, 94
1, 65295, Note_off_c, 0, 69, 55
1, 65307, Control_c, 0, 64, 96
1, 65322, Control_c, 0, 64, 98
1, 65344, Control_c, 0, 64, 99
1, 65359, Control_c, 0, 64, 100
1, 65374, Control_c, 0, 64, 101
1, 65389, Control_c, 0, 64, 101
1, 65404, Control_c, 0, 64, 102
1, 65418, Control_c, 0, 64, 103
1, 65547, Note_on_c, 0, 69, 48
1, 66147, Note_on_c, 0, 62, 40
1, 66214, Note_off_c, 0, 57, 41
1, 66214, Note_off_c, 0, 69, 59
1, 66235, Note_off_c, 0, 50, 36
1, 66702, Control_c, 0, 64, 101
1, 66717, Control_c, 0, 64, 100
1, 66732, Control_c, 0, 64, 97
1, 66747, Control_c, 0, 64, 95
1, 66760, Note_on_c, 0, 67, 46
1, 66762, Control_c, 0, 64, 92
1, 66774, Note_on_c, 0, 55, 31
1, 66774, Note_on_c, 0, 59, 34
1, 66777, Control_c, 0, 64, 88
1, 66791, Control_c, 0, 64, 84
1, 66806, Control_c, 0, 64, 80
1, 66821, Control_c, 0, 64, 76
1, 66843, Control_c, 0, 64, 72
1, 66858, Control_c, 0, 64, 68
1, 66872, Control_c, 0, 64, 64
1, 66887, Control_c, 0, 64, 62
1, 66902, Note_off_c, 0, 62, 37
1, 66902, Control_c, 0, 64, 61
1, 66917, Control_c, 0, 64, 61
1, 66932, Control_c, 0, 64, 60
1, 66947, Control_c, 0, 64, 59
1, 66961, Control_c, 0, 64, 58
1, 66976, Control_c, 0, 64, 57
1, 67065, Control_c, 0, 64, 58
1, 67080, Control_c, 0, 64, 59
1, 67095, Control_c, 0, 64, 60
1, 67109, Control_c, 0, 64, 62
1, 67124, Control_c, 0, 64, 64
1, 67139, Control_c, 0, 64, 65
1, 67154, Control_c, 0, 64, 65
1, 67169, Control_c, 0, 64, 66
1, 67184, Control_c, 0, 64, 66
1, 67198, Control_c, 0, 64, 67
1, 67213, Control_c, 0, 64, 68
1, 67228, Control_c, 0, 64, 68
1, 67243, Control_c, 0, 64, 70
1, 67258, Control_c, 0, 64, 71
1, 67272, Control_c, 0, 64, 72
1, 67287, Control_c, 0, 64, 73
1, 67302, Control_c, 0, 64, 74
1, 67316, Control_c, 0, 64, 75
1, 67331, Control_c, 0, 64, 75
1, 67346, Control_c, 0, 64, 76
1, 67361, Control_c, 0, 64, 77
1, 67376, Control_c, 0, 64, 78
1, 67391, Control_c, 0, 64, 79
1, 67406, Control_c, 0, 64, 80
1, 67436, Control_c, 0, 64, 80
1, 67451, Control_c, 0, 64, 81
1, 67466, Control_c, 0, 64, 81
1, 67480, Control_c, 0, 64, 82
1, 67495, Control_c, 0, 64, 83
1, 67510, Control_c, 0, 64, 83
1, 67540, Control_c, 0, 64, 84
1, 67555, Control_c, 0, 64, 85
1, 67570, Control_c, 0, 64, 86
1, 67592, Control_c, 0, 64, 87
1, 67607, Control_c, 0, 64, 88
1, 67621, Control_c, 0, 64, 89
1, 67636, Control_c, 0, 64, 89
1, 67651, Control_c, 0, 64, 90
1, 67666, Control_c, 0, 64, 90
1, 67725, Control_c, 0, 64, 91
1, 67754, Control_c, 0, 64, 91
1, 67769, Control_c, 0, 64, 92
1, 67799, Control_c, 0, 64, 92
1, 67828, Control_c, 0, 64, 93
1, 67887, Control_c, 0, 64, 93
1, 67931, Control_c, 0, 64, 94
1, 68075, Note_on_c, 0, 62, 40
1, 68231, Note_off_c, 0, 67, 27
1, 68648, Note_on_c, 0, 67, 50
1, 68780, Note_off_c, 0, 62, 53
1, 68887, Control_c, 0, 64, 94
1, 68977, Control_c, 0, 64, 95
1, 69008, Note_off_c, 0, 67, 52
1, 69108, Note_off_c, 0, 59, 36
1, 69215, Note_on_c, 0, 67, 52
1, 69402, Note_off_c, 0, 55, 38
1, 69802, Note_on_c, 0, 62, 53
1, 70196, Note_off_c, 0, 67, 23
1, 70312, Control_c, 0, 64, 94
1, 70342, Control_c, 0, 64, 94
1, 70357, Control_c, 0, 64, 93
1, 70372, Control_c, 0, 64, 91
1, 70386, Control_c, 0, 64, 88
1, 70401, Control_c, 0, 64, 84
1, 70416, Control_c, 0, 64, 80
1, 70422, Note_on_c, 0, 64, 54
1, 70425, Note_on_c, 0, 48, 45
1, 70425, Note_on_c, 0, 60, 43
1, 70428, Note_on_c, 0, 55, 46
1, 70431, Control_c, 0, 64, 76
1, 70446, Control_c, 0, 64, 72
1, 70460, Control_c, 0, 64, 68
1, 70475, Control_c, 0, 64, 65
1, 70490, Control_c, 0, 64, 63
1, 70495, Note_off_c, 0, 62, 57
1, 70505, Control_c, 0, 64, 62
1, 70520, Control_c, 0, 64, 61
1, 70534, Control_c, 0, 64, 61
1, 70549, Control_c, 0, 64, 59
1, 70564, Control_c, 0, 64, 57
1, 70586, Control_c, 0, 64, 56
1, 70601, Control_c, 0, 64, 54
1, 70617, Control_c, 0, 64, 53
1, 70631, Control_c, 0, 64, 52
1, 70646, Control_c, 0, 64, 51
1, 70661, Control_c, 0, 64, 49
1, 70691, Control_c, 0, 64, 50
1, 70705, Control_c, 0, 64, 52
1, 70720, Control_c, 0, 64, 54
1, 70735, Control_c, 0, 64, 56
1, 70750, Control_c, 0, 64, 59
1, 70765, Control_c, 0, 64, 61
1, 70780, Control_c, 0, 64, 63
1, 70795, Control_c, 0, 64, 63
1, 70810, Control_c, 0, 64, 64
1, 70823, Control_c, 0, 64, 65
1, 70837, Control_c, 0, 64, 65
1, 70852, Control_c, 0, 64, 66
1, 70867, Control_c, 0, 64, 66
1, 70881, Control_c, 0, 64, 67
1, 70911, Control_c, 0, 64, 67
1, 70941, Control_c, 0, 64, 68
1, 70986, Control_c, 0, 64, 68
1, 71015, Control_c, 0, 64, 69
1, 71060, Control_c, 0, 64, 69
1, 71104, Control_c, 0, 64, 70
1, 71134, Control_c, 0, 64, 70
1, 71163, Control_c, 0, 64, 71
1, 71178, Control_c, 0, 64, 71
1, 71193, Control_c, 0, 64, 72
1, 71208, Control_c, 0, 64, 72
1, 71222, Control_c, 0, 64, 73
1, 71237, Control_c, 0, 64, 74
1, 71267, Control_c, 0, 64, 74
1, 71281, Control_c, 0, 64, 75
1, 71296, Control_c, 0, 64, 76
1, 71311, Control_c, 0, 64, 76
1, 71334, Control_c, 0, 64, 77
1, 71378, Control_c, 0, 64, 77
1, 71483, Control_c, 0, 64, 77
1, 71498, Control_c, 0, 64, 76
1, 71512, Control_c, 0, 64, 74
1, 71527, Control_c, 0, 64, 70
1, 71542, Control_c, 0, 64, 66
1, 71555, Note_on_c, 0, 65, 51
1, 71557, Control_c, 0, 64, 60
1, 71572, Control_c, 0, 64, 52
1, 71586, Control_c, 0, 64, 47
1, 71606, Note_off_c, 0, 64, 63
1, 71631, Control_c, 0, 64, 50
1, 71646, Control_c, 0, 64, 54
1, 71660, Control_c, 0, 64, 61
1, 71675, Control_c, 0, 64, 66
1, 71690, Control_c, 0, 64, 71
1, 71692, Note_off_c, 0, 55, 63
1, 71704, Control_c, 0, 64, 79
1, 71719, Control_c, 0, 64, 85
1, 71734, Control_c, 0, 64, 89
1, 71749, Control_c, 0, 64, 91
1, 71764, Control_c, 0, 64, 93
1, 71770, Note_off_c, 0, 48, 53
1, 71779, Control_c, 0, 64, 95
1, 71793, Control_c, 0, 64, 96
1, 71805, Note_off_c, 0, 60, 53
1, 71808, Control_c, 0, 64, 97
1, 71841, Note_off_c, 0, 65, 62
1, 71853, Control_c, 0, 64, 97
1, 71868, Control_c, 0, 64, 98
1, 71883, Control_c, 0, 64, 98
1, 72098, Control_c, 0, 64, 97
1, 72112, Control_c, 0, 64, 95
1, 72127, Control_c, 0, 64, 91
1, 72142, Control_c, 0, 64, 86
1, 72150, Note_on_c, 0, 65, 58
1, 72157, Note_on_c, 0, 57, 46
1, 72157, Note_on_c, 0, 60, 47
1, 72157, Control_c, 0, 64, 81
1, 72159, Note_on_c, 0, 41, 44
1, 72172, Control_c, 0, 64, 75
1, 72186, Control_c, 0, 64, 69
1, 72202, Control_c, 0, 64, 65
1, 72217, Control_c, 0, 64, 62
1, 72232, Control_c, 0, 64, 60
1, 72261, Control_c, 0, 64, 60
1, 72276, Control_c, 0, 64, 58
1, 72291, Control_c, 0, 64, 57
1, 72306, Control_c, 0, 64, 56
1, 72321, Control_c, 0, 64, 55
1, 72350, Control_c, 0, 64, 56
1, 72365, Control_c, 0, 64, 56
1, 72409, Control_c, 0, 64, 57
1, 72424, Control_c, 0, 64, 58
1, 72439, Control_c, 0, 64, 59
1, 72453, Control_c, 0, 64, 60
1, 72468, Control_c, 0, 64, 61
1, 72483, Control_c, 0, 64, 61
1, 72498, Control_c, 0, 64, 62
1, 72513, Control_c, 0, 64, 63
1, 72527, Control_c, 0, 64, 64
1, 72542, Control_c, 0, 64, 64
1, 72601, Control_c, 0, 64, 65
1, 72676, Control_c, 0, 64, 65
1, 72720, Control_c, 0, 64, 66
1, 72735, Control_c, 0, 64, 66
1, 72750, Control_c, 0, 64, 67
1, 72765, Control_c, 0, 64, 67
1, 72795, Control_c, 0, 64, 68
1, 72861, Control_c, 0, 64, 68
1, 73129, Control_c, 0, 64, 68
1, 73189, Control_c, 0, 64, 67
1, 73203, Control_c, 0, 64, 67
1, 73218, Control_c, 0, 64, 66
1, 73231, Note_on_c, 0, 64, 50
1, 73233, Control_c, 0, 64, 65
1, 73245, Note_off_c, 0, 65, 59
1, 73248, Control_c, 0, 64, 64
1, 73263, Control_c, 0, 64, 63
1, 73277, Control_c, 0, 64, 61
1, 73292, Control_c, 0, 64, 57
1, 73307, Control_c, 0, 64, 52
1, 73322, Control_c, 0, 64, 49
1, 73351, Control_c, 0, 64, 52
1, 73366, Control_c, 0, 64, 57
1, 73381, Control_c, 0, 64, 64
1, 73396, Control_c, 0, 64, 69
1, 73411, Control_c, 0, 64, 74
1, 73425, Control_c, 0, 64, 81
1, 73431, Note_off_c, 0, 60, 63
1, 73440, Control_c, 0, 64, 85
1, 73455, Control_c, 0, 64, 87
1, 73462, Note_off_c, 0, 57, 59
1, 73469, Control_c, 0, 64, 88
1, 73484, Note_off_c, 0, 41, 43
1, 73484, Control_c, 0, 64, 90
1, 73499, Control_c, 0, 64, 91
1, 73514, Control_c, 0, 64, 92
1, 73639, Note_off_c, 0, 64, 42
1, 73819, Control_c, 0, 64, 91
1, 73834, Control_c, 0, 64, 90
1, 73848, Control_c, 0, 64, 87
1, 73863, Control_c, 0, 64, 83
1, 73878, Control_c, 0, 64, 79
1, 73892, Note_on_c, 0, 63, 47
1, 73893, Control_c, 0, 64, 74
1, 73901, Note_on_c, 0, 58, 33
1, 73903, Note_on_c, 0, 55, 37
1, 73904, Note_on_c, 0, 43, 29
1, 73907, Control_c, 0, 64, 69
1, 73922, Control_c, 0, 64, 65
1, 73937, Control_c, 0, 64, 63
1, 73952, Control_c, 0, 64, 62
1, 73967, Control_c, 0, 64, 61
1, 73996, Control_c, 0, 64, 60
1, 74011, Control_c, 0, 64, 58
1, 74026, Control_c, 0, 64, 56
1, 74041, Control_c, 0, 64, 55
1, 74056, Control_c, 0, 64, 54
1, 74086, Control_c, 0, 64, 54
1, 74100, Control_c, 0, 64, 53
1, 74115, Control_c, 0, 64, 52
1, 74130, Control_c, 0, 64, 51
1, 74219, Control_c, 0, 64, 52
1, 74345, Control_c, 0, 64, 52
1, 74360, Control_c, 0, 64, 53
1, 74419, Control_c, 0, 64, 53
1, 74478, Control_c, 0, 64, 54
1, 74522, Control_c, 0, 64, 54
1, 74566, Control_c, 0, 64, 55
1, 74596, Control_c, 0, 64, 55
1, 74611, Control_c, 0, 64, 56
1, 74656, Control_c, 0, 64, 56
1, 74715, Control_c, 0, 64, 57
1, 74819, Control_c, 0, 64, 57
1, 74908, Control_c, 0, 64, 58
1, 74952, Control_c, 0, 64, 58
1, 74996, Control_c, 0, 64, 59
1, 75026, Control_c, 0, 64, 59
1, 75137, Control_c, 0, 64, 59
1, 75163, Note_on_c, 0, 62, 38
1, 75167, Control_c, 0, 64, 58
1, 75182, Control_c, 0, 64, 58
1, 75196, Control_c, 0, 64, 57
1, 75203, Note_off_c, 0, 63, 49
1, 75211, Control_c, 0, 64, 56
1, 75226, Control_c, 0, 64, 54
1, 75241, Control_c, 0, 64, 53
1, 75255, Control_c, 0, 64, 52
1, 75270, Control_c, 0, 64, 51
1, 75285, Control_c, 0, 64, 50
1, 75300, Control_c, 0, 64, 48
1, 75315, Control_c, 0, 64, 46
1, 75329, Control_c, 0, 64, 46
1, 75344, Control_c, 0, 64, 45
1, 75389, Control_c, 0, 64, 46
1, 75405, Control_c, 0, 64, 48
1, 75419, Control_c, 0, 64, 52
1, 75434, Control_c, 0, 64, 57
1, 75449, Control_c, 0, 64, 60
1, 75464, Control_c, 0, 64, 63
1, 75478, Control_c, 0, 64, 66
1, 75493, Control_c, 0, 64, 68
1, 75508, Control_c, 0, 64, 71
1, 75523, Control_c, 0, 64, 74
1, 75538, Control_c, 0, 64, 77
1, 75552, Control_c, 0, 64, 78
1, 75567, Control_c, 0, 64, 79
1, 75582, Control_c, 0, 64, 80
1, 75597, Control_c, 0, 64, 81
1, 75612, Control_c, 0, 64, 82
1, 75627, Control_c, 0, 64, 83
1, 75642, Control_c, 0, 64, 83
1, 75760, Control_c, 0, 64, 83
1, 75775, Control_c, 0, 64, 82
1, 75790, Control_c, 0, 64, 80
1, 75805, Control_c, 0, 64, 76
1, 75808, Note_on_c, 0, 67, 52
1, 75827, Control_c, 0, 64, 71
1, 75842, Control_c, 0, 64, 67
1, 75845, Note_off_c, 0, 62, 50
1, 75856, Control_c, 0, 64, 64
1, 75871, Control_c, 0, 64, 62
1, 75945, Control_c, 0, 64, 62
1, 75975, Control_c, 0, 64, 63
1, 75990, Control_c, 0, 64, 63
1, 76005, Control_c, 0, 64, 64
1, 76019, Control_c, 0, 64, 65
1, 76034, Control_c, 0, 64, 66
1, 76049, Control_c, 0, 64, 70
1, 76065, Control_c, 0, 64, 74
1, 76079, Control_c, 0, 64, 78
1, 76094, Control_c, 0, 64, 81
1, 76109, Control_c, 0, 64, 83
1, 76124, Control_c, 0, 64, 84
1, 76139, Control_c, 0, 64, 86
1, 76153, Control_c, 0, 64, 87
1, 76168, Control_c, 0, 64, 88
1, 76183, Control_c, 0, 64, 89
1, 76189, Note_off_c, 0, 67, 51
1, 76199, Control_c, 0, 64, 89
1, 76229, Control_c, 0, 64, 90
1, 76387, Note_on_c, 0, 67, 55
1, 76858, Control_c, 0, 64, 89
1, 76932, Control_c, 0, 64, 89
1, 76959, Note_on_c, 0, 62, 53
1, 77022, Control_c, 0, 64, 88
1, 77088, Note_off_c, 0, 67, 56
1, 77096, Control_c, 0, 64, 88
1, 77170, Control_c, 0, 64, 87
1, 77214, Control_c, 0, 64, 87
1, 77229, Control_c, 0, 64, 86
1, 77243, Control_c, 0, 64, 86
1, 77258, Control_c, 0, 64, 85
1, 77273, Control_c, 0, 64, 84
1, 77288, Control_c, 0, 64, 83
1, 77303, Control_c, 0, 64, 82
1, 77325, Control_c, 0, 64, 81
1, 77340, Control_c, 0, 64, 79
1, 77355, Control_c, 0, 64, 76
1, 77370, Control_c, 0, 64, 74
1, 77385, Control_c, 0, 64, 71
1, 77399, Control_c, 0, 64, 70
1, 77414, Control_c, 0, 64, 68
1, 77429, Control_c, 0, 64, 68
1, 77444, Control_c, 0, 64, 67
1, 77458, Control_c, 0, 64, 66
1, 77473, Control_c, 0, 64, 66
1, 77488, Control_c, 0, 64, 65
1, 77503, Control_c, 0, 64, 65
1, 77518, Control_c, 0, 64, 64
1, 77532, Control_c, 0, 64, 64
1, 77543, Note_on_c, 0, 63, 55
1, 77547, Control_c, 0, 64, 63
1, 77562, Control_c, 0, 64, 63
1, 77577, Control_c, 0, 64, 62
1, 77591, Control_c, 0, 64, 62
1, 77606, Control_c, 0, 64, 61
1, 77608, Note_off_c, 0, 62, 57
1, 77636, Control_c, 0, 64, 61
1, 77651, Control_c, 0, 64, 60
1, 77666, Control_c, 0, 64, 59
1, 77681, Control_c, 0, 64, 59
1, 77696, Control_c, 0, 64, 58
1, 77711, Control_c, 0, 64, 58
1, 77725, Control_c, 0, 64, 57
1, 77740, Control_c, 0, 64, 56
1, 77755, Control_c, 0, 64, 56
1, 77770, Control_c, 0, 64, 55
1, 77785, Control_c, 0, 64, 54
1, 78101, Note_on_c, 0, 62, 51
1, 78134, Control_c, 0, 64, 54
1, 78158, Note_off_c, 0, 63, 61
1, 78208, Control_c, 0, 64, 53
1, 78369, Control_c, 0, 64, 54
1, 78399, Control_c, 0, 64, 54
1, 78459, Control_c, 0, 64, 55
1, 78473, Control_c, 0, 64, 56
1, 78488, Control_c, 0, 64, 56
1, 78518, Control_c, 0, 64, 57
1, 78533, Control_c, 0, 64, 57
1, 78547, Control_c, 0, 64, 58
1, 78562, Control_c, 0, 64, 59
1, 78577, Control_c, 0, 64, 59
1, 78593, Control_c, 0, 64, 60
1, 78623, Control_c, 0, 64, 60
1, 78652, Control_c, 0, 64, 61
1, 78711, Control_c, 0, 64, 60
1, 78718, Note_on_c, 0, 63, 56
1, 78741, Control_c, 0, 64, 60
1, 78756, Control_c, 0, 64, 59
1, 78783, Note_off_c, 0, 62, 60
1, 78785, Control_c, 0, 64, 59
1, 78882, Control_c, 0, 64, 59
1, 78896, Control_c, 0, 64, 60
1, 78911, Control_c, 0, 64, 62
1, 78926, Control_c, 0, 64, 64
1, 78941, Control_c, 0, 64, 67
1, 78956, Control_c, 0, 64, 69
1, 78970, Control_c, 0, 64, 72
1, 78985, Control_c, 0, 64, 77
1, 79000, Control_c, 0, 64, 82
1, 79014, Control_c, 0, 64, 86
1, 79029, Control_c, 0, 64, 89
1, 79044, Control_c, 0, 64, 92
1, 79059, Control_c, 0, 64, 93
1, 79074, Control_c, 0, 64, 95
1, 79088, Control_c, 0, 64, 97
1, 79103, Control_c, 0, 64, 98
1, 79118, Control_c, 0, 64, 99
1, 79133, Control_c, 0, 64, 101
1, 79147, Note_off_c, 0, 55, 43
1, 79148, Control_c, 0, 64, 101
1, 79177, Control_c, 0, 64, 102
1, 79222, Control_c, 0, 64, 102
1, 79257, Note_off_c, 0, 63, 39
1, 79281, Note_off_c, 0, 58, 35
1, 79385, Control_c, 0, 64, 102
1, 79401, Control_c, 0, 64, 101
1, 79416, Control_c, 0, 64, 98
1, 79431, Control_c, 0, 64, 94
1, 79445, Control_c, 0, 64, 87
1, 79460, Control_c, 0, 64, 80
1, 79461, Note_on_c, 0, 64, 55
1, 79463, Note_on_c, 0, 60, 49
1, 79473, Note_on_c, 0, 55, 40
1, 79475, Control_c, 0, 64, 74
1, 79478, Note_on_c, 0, 48, 38
1, 79490, Control_c, 0, 64, 69
1, 79505, Control_c, 0, 64, 66
1, 79519, Control_c, 0, 64, 64
1, 79534, Control_c, 0, 64, 62
1, 79549, Control_c, 0, 64, 62
1, 79571, Control_c, 0, 64, 61
1, 79586, Control_c, 0, 64, 60
1, 79600, Control_c, 0, 64, 58
1, 79601, Note_off_c, 0, 43, 41
1, 79615, Control_c, 0, 64, 55
1, 79630, Control_c, 0, 64, 52
1, 79645, Control_c, 0, 64, 52
1, 79705, Control_c, 0, 64, 52
1, 79719, Control_c, 0, 64, 53
1, 79734, Control_c, 0, 64, 55
1, 79749, Control_c, 0, 64, 58
1, 79764, Control_c, 0, 64, 61
1, 79779, Control_c, 0, 64, 63
1, 79793, Control_c, 0, 64, 64
1, 79809, Control_c, 0, 64, 65
1, 79824, Control_c, 0, 64, 66
1, 79838, Control_c, 0, 64, 67
1, 79853, Control_c, 0, 64, 69
1, 79868, Control_c, 0, 64, 71
1, 79883, Control_c, 0, 64, 74
1, 79898, Control_c, 0, 64, 76
1, 79912, Control_c, 0, 64, 78
1, 79927, Control_c, 0, 64, 80
1, 79942, Control_c, 0, 64, 83
1, 79957, Control_c, 0, 64, 86
1, 79972, Control_c, 0, 64, 88
1, 79986, Control_c, 0, 64, 89
1, 80001, Control_c, 0, 64, 91
1, 80016, Control_c, 0, 64, 93
1, 80031, Control_c, 0, 64, 95
1, 80045, Control_c, 0, 64, 96
1, 80060, Control_c, 0, 64, 97
1, 80075, Control_c, 0, 64, 98
1, 80090, Control_c, 0, 64, 99
1, 80105, Control_c, 0, 64, 100
1, 80107, Note_off_c, 0, 48, 51
1, 80119, Control_c, 0, 64, 101
1, 80134, Control_c, 0, 64, 102
1, 80149, Control_c, 0, 64, 103
1, 80164, Control_c, 0, 64, 103
1, 80195, Control_c, 0, 64, 104
1, 80210, Control_c, 0, 64, 105
1, 80224, Control_c, 0, 64, 105
1, 80254, Control_c, 0, 64, 106
1, 80283, Control_c, 0, 64, 106
1, 80321, Control_c, 0, 64, 107
1, 80587, Control_c, 0, 64, 104
1, 80602, Control_c, 0, 64, 98
1, 80617, Control_c, 0, 64, 86
1, 80632, Control_c, 0, 64, 76
1, 80647, Control_c, 0, 64, 68
1, 80661, Note_on_c, 0, 43, 30
1, 80661, Control_c, 0, 64, 61
1, 80674, Note_on_c, 0, 31, 32
1, 80676, Control_c, 0, 64, 58
1, 80691, Control_c, 0, 64, 59
1, 80706, Control_c, 0, 64, 63
1, 80721, Control_c, 0, 64, 66
1, 80735, Control_c, 0, 64, 71
1, 80750, Control_c, 0, 64, 77
1, 80765, Control_c, 0, 64, 83
1, 80780, Control_c, 0, 64, 87
1, 80794, Control_c, 0, 64, 90
1, 80809, Control_c, 0, 64, 92
1, 80824, Control_c, 0, 64, 93
1, 80832, Note_off_c, 0, 31, 51
1, 80839, Control_c, 0, 64, 95
1, 80854, Control_c, 0, 64, 96
1, 80868, Control_c, 0, 64, 97
1, 80883, Control_c, 0, 64, 98
1, 80884, Note_off_c, 0, 43, 39
1, 80898, Control_c, 0, 64, 98
1, 80928, Control_c, 0, 64, 99
1, 80942, Control_c, 0, 64, 100
1, 80957, Control_c, 0, 64, 101
1, 80972, Control_c, 0, 64, 102
1, 81003, Control_c, 0, 64, 102
1, 81032, Control_c, 0, 64, 103
1, 81047, Control_c, 0, 64, 103
1, 81159, Control_c, 0, 64, 101
1, 81173, Control_c, 0, 64, 95
1, 81188, Control_c, 0, 64, 84
1, 81203, Control_c, 0, 64, 74
1, 81210, Note_on_c, 0, 48, 47
1, 81217, Note_on_c, 0, 36, 38
1, 81218, Control_c, 0, 64, 66
1, 81233, Control_c, 0, 64, 60
1, 81247, Control_c, 0, 64, 58
1, 81262, Control_c, 0, 64, 60
1, 81277, Control_c, 0, 64, 63
1, 81291, Control_c, 0, 64, 67
1, 81306, Control_c, 0, 64, 71
1, 81321, Control_c, 0, 64, 76
1, 81336, Control_c, 0, 64, 81
1, 81351, Control_c, 0, 64, 83
1, 81365, Control_c, 0, 64, 86
1, 81380, Control_c, 0, 64, 88
1, 81384, Note_off_c, 0, 48, 63
1, 81395, Control_c, 0, 64, 90
1, 81410, Control_c, 0, 64, 92
1, 81425, Control_c, 0, 64, 94
1, 81438, Note_off_c, 0, 36, 41
1, 81440, Control_c, 0, 64, 95
1, 81455, Control_c, 0, 64, 95
1, 81469, Control_c, 0, 64, 96
1, 81499, Control_c, 0, 64, 97
1, 81514, Control_c, 0, 64, 98
1, 81529, Control_c, 0, 64, 98
1, 81736, Control_c, 0, 64, 98
1, 81751, Control_c, 0, 64, 95
1, 81760, Note_on_c, 0, 36, 36
1, 81762, Note_on_c, 0, 48, 44
1, 81765, Control_c, 0, 64, 92
1, 81781, Control_c, 0, 64, 89
1, 81796, Control_c, 0, 64, 86
1, 81818, Control_c, 0, 64, 84
1, 81833, Control_c, 0, 64, 83
1, 81848, Control_c, 0, 64, 82
1, 81922, Control_c, 0, 64, 83
1, 81937, Control_c, 0, 64, 84
1, 81941, Note_off_c, 0, 48, 56
1, 81952, Control_c, 0, 64, 85
1, 81967, Control_c, 0, 64, 86
1, 81982, Control_c, 0, 64, 87
1, 81996, Control_c, 0, 64, 87
1, 82011, Control_c, 0, 64, 88
1, 82012, Note_off_c, 0, 36, 53
1, 82040, Control_c, 0, 64, 88
1, 82055, Control_c, 0, 64, 89
1, 82100, Control_c, 0, 64, 89
1, 82129, Control_c, 0, 64, 90
1, 82292, Control_c, 0, 64, 88
1, 82307, Control_c, 0, 64, 85
1, 82322, Control_c, 0, 64, 80
1, 82325, Note_on_c, 0, 43, 45
1, 82337, Control_c, 0, 64, 74
1, 82341, Note_on_c, 0, 31, 40
1, 82352, Control_c, 0, 64, 69
1, 82367, Control_c, 0, 64, 65
1, 82381, Control_c, 0, 64, 63
1, 82411, Control_c, 0, 64, 63
1, 82426, Control_c, 0, 64, 64
1, 82440, Control_c, 0, 64, 65
1, 82455, Control_c, 0, 64, 66
1, 82470, Control_c, 0, 64, 69
1, 82485, Control_c, 0, 64, 73
1, 82500, Control_c, 0, 64, 78
1, 82514, Control_c, 0, 64, 82
1, 82529, Control_c, 0, 64, 85
1, 82544, Control_c, 0, 64, 87
1, 82564, Note_off_c, 0, 31, 54
1, 82566, Control_c, 0, 64, 88
1, 82577, Note_off_c, 0, 64, 52
1, 82581, Control_c, 0, 64, 89
1, 82596, Note_off_c, 0, 60, 49
1, 82597, Control_c, 0, 64, 91
1, 82605, Note_off_c, 0, 55, 43
1, 82611, Control_c, 0, 64, 92
1, 82624, Note_off_c, 0, 43, 46
1, 82626, Control_c, 0, 64, 92
1, 82641, Control_c, 0, 64, 93
1, 82671, Control_c, 0, 64, 94
1, 82907, Control_c, 0, 64, 93
1, 82922, Control_c, 0, 64, 92
1, 82936, Control_c, 0, 64, 88
1, 82951, Control_c, 0, 64, 83
1, 82960, Note_on_c, 0, 64, 57
1, 82966, Control_c, 0, 64, 77
1, 82969, Note_on_c, 0, 48, 50
1, 82971, Note_on_c, 0, 60, 50
1, 82972, Note_on_c, 0, 55, 50
1, 82974, Note_on_c, 0, 36, 39
1, 82981, Control_c, 0, 64, 71
1, 82996, Control_c, 0, 64, 66
1, 83011, Control_c, 0, 64, 63
1, 83026, Control_c, 0, 64, 62
1, 83055, Control_c, 0, 64, 61
1, 83070, Control_c, 0, 64, 60
1, 83085, Control_c, 0, 64, 58
1, 83100, Control_c, 0, 64, 57
1, 83144, Control_c, 0, 64, 58
1, 83159, Control_c, 0, 64, 58
1, 83174, Control_c, 0, 64, 59
1, 83188, Control_c, 0, 64, 60
1, 83203, Control_c, 0, 64, 62
1, 83218, Control_c, 0, 64, 64
1, 83233, Control_c, 0, 64, 65
1, 83248, Control_c, 0, 64, 66
1, 83262, Control_c, 0, 64, 67
1, 83277, Control_c, 0, 64, 68
1, 83292, Control_c, 0, 64, 69
1, 83315, Control_c, 0, 64, 71
1, 83330, Control_c, 0, 64, 73
1, 83344, Control_c, 0, 64, 74
1, 83359, Control_c, 0, 64, 75
1, 83374, Control_c, 0, 64, 75
1, 83389, Control_c, 0, 64, 77
1, 83404, Control_c, 0, 64, 78
1, 83419, Control_c, 0, 64, 80
1, 83434, Control_c, 0, 64, 82
1, 83449, Control_c, 0, 64, 83
1, 83464, Control_c, 0, 64, 84
1, 83479, Control_c, 0, 64, 85
1, 83493, Control_c, 0, 64, 86
1, 83508, Control_c, 0, 64, 88
1, 83523, Control_c, 0, 64, 89
1, 83538, Control_c, 0, 64, 90
1, 83553, Control_c, 0, 64, 91
1, 83567, Control_c, 0, 64, 92
1, 83582, Control_c, 0, 64, 93
1, 83597, Control_c, 0, 64, 94
1, 83611, Control_c, 0, 64, 94
1, 83626, Control_c, 0, 64, 95
1, 83656, Control_c, 0, 64, 95
1, 83671, Control_c, 0, 64, 96
1, 83700, Control_c, 0, 64, 96
1, 83730, Control_c, 0, 64, 97
1, 83732, Note_off_c, 0, 48, 65
1, 83780, Note_off_c, 0, 36, 41
1, 83789, Control_c, 0, 64, 97
1, 83833, Control_c, 0, 64, 98
1, 83863, Control_c, 0, 64, 98
1, 83893, Control_c, 0, 64, 99
1, 84011, Control_c, 0, 64, 98
1, 84026, Control_c, 0, 64, 95
1, 84040, Note_on_c, 0, 50, 54
1, 84041, Control_c, 0, 64, 88
1, 84048, Note_on_c, 0, 38, 47
1, 84063, Control_c, 0, 64, 81
1, 84078, Control_c, 0, 64, 74
1, 84093, Control_c, 0, 64, 68
1, 84108, Control_c, 0, 64, 63
1, 84122, Control_c, 0, 64, 61
1, 84137, Control_c, 0, 64, 62
1, 84152, Control_c, 0, 64, 63
1, 84167, Control_c, 0, 64, 64
1, 84182, Control_c, 0, 64, 66
1, 84197, Control_c, 0, 64, 69
1, 84212, Control_c, 0, 64, 73
1, 84227, Control_c, 0, 64, 77
1, 84242, Control_c, 0, 64, 82
1, 84257, Control_c, 0, 64, 85
1, 84272, Control_c, 0, 64, 87
1, 84286, Control_c, 0, 64, 89
1, 84294, Note_off_c, 0, 55, 57
1, 84301, Control_c, 0, 64, 90
1, 84303, Note_off_c, 0, 60, 58
1, 84316, Control_c, 0, 64, 92
1, 84331, Control_c, 0, 64, 93
1, 84346, Control_c, 0, 64, 94
1, 84349, Note_off_c, 0, 64, 54
1, 84361, Control_c, 0, 64, 94
1, 84376, Note_off_c, 0, 50, 62
1, 84376, Control_c, 0, 64, 95
1, 84385, Note_off_c, 0, 38, 59
1, 84390, Control_c, 0, 64, 95
1, 84449, Control_c, 0, 64, 96
1, 84479, Control_c, 0, 64, 96
1, 84612, Control_c, 0, 64, 95
1, 84626, Control_c, 0, 64, 92
1, 84641, Control_c, 0, 64, 87
1, 84652, Note_on_c, 0, 64, 56
1, 84653, Note_on_c, 0, 61, 59
1, 84656, Control_c, 0, 64, 79
1, 84661, Note_on_c, 0, 57, 48
1, 84664, Note_on_c, 0, 52, 53
1, 84667, Note_on_c, 0, 40, 51
1, 84671, Control_c, 0, 64, 72
1, 84686, Control_c, 0, 64, 65
1, 84701, Control_c, 0, 64, 59
1, 84716, Control_c, 0, 64, 55
1, 84812, Control_c, 0, 64, 56
1, 84827, Control_c, 0, 64, 59
1, 84841, Control_c, 0, 64, 62
1, 84856, Control_c, 0, 64, 66
1, 84871, Control_c, 0, 64, 69
1, 84886, Control_c, 0, 64, 73
1, 84901, Control_c, 0, 64, 77
1, 84915, Control_c, 0, 64, 81
1, 84930, Control_c, 0, 64, 83
1, 84945, Control_c, 0, 64, 85
1, 84957, Note_off_c, 0, 52, 65
1, 84960, Control_c, 0, 64, 87
1, 84975, Control_c, 0, 64, 88
1, 84991, Control_c, 0, 64, 89
1, 84996, Note_off_c, 0, 40, 60
1, 85005, Control_c, 0, 64, 90
1, 85035, Control_c, 0, 64, 91
1, 85050, Control_c, 0, 64, 91
1, 85064, Control_c, 0, 64, 92
1, 85168, Control_c, 0, 64, 91
1, 85183, Control_c, 0, 64, 87
1, 85198, Control_c, 0, 64, 80
1, 85212, Control_c, 0, 64, 73
1, 85227, Control_c, 0, 64, 66
1, 85229, Note_on_c, 0, 50, 44
1, 85234, Note_on_c, 0, 38, 44
1, 85242, Control_c, 0, 64, 59
1, 85256, Control_c, 0, 64, 55
1, 85271, Control_c, 0, 64, 55
1, 85301, Control_c, 0, 64, 55
1, 85316, Control_c, 0, 64, 57
1, 85330, Control_c, 0, 64, 59
1, 85345, Control_c, 0, 64, 63
1, 85360, Control_c, 0, 64, 66
1, 85375, Control_c, 0, 64, 70
1, 85390, Control_c, 0, 64, 74
1, 85404, Control_c, 0, 64, 78
1, 85419, Control_c, 0, 64, 81
1, 85434, Control_c, 0, 64, 83
1, 85449, Control_c, 0, 64, 85
1, 85464, Control_c, 0, 64, 86
1, 85467, Note_off_c, 0, 50, 63
1, 85479, Control_c, 0, 64, 88
1, 85494, Control_c, 0, 64, 89
1, 85494, Note_off_c, 0, 38, 54
1, 85509, Control_c, 0, 64, 90
1, 85523, Control_c, 0, 64, 90
1, 85538, Control_c, 0, 64, 91
1, 85560, Control_c, 0, 64, 91
1, 85575, Control_c, 0, 64, 92
1, 85604, Control_c, 0, 64, 92
1, 85619, Control_c, 0, 64, 93
1, 85634, Control_c, 0, 64, 93
1, 85753, Control_c, 0, 64, 92
1, 85768, Control_c, 0, 64, 90
1, 85783, Control_c, 0, 64, 84
1, 85799, Note_on_c, 0, 37, 47
1, 85799, Control_c, 0, 64, 77
1, 85803, Note_on_c, 0, 49, 44
1, 85813, Control_c, 0, 64, 70
1, 85828, Control_c, 0, 64, 64
1, 85843, Control_c, 0, 64, 56
1, 85858, Control_c, 0, 64, 54
1, 85902, Control_c, 0, 64, 53
1, 85911, Note_off_c, 0, 64, 29
1, 85917, Control_c, 0, 64, 53
1, 85932, Control_c, 0, 64, 54
1, 85947, Note_off_c, 0, 61, 61
1, 85947, Control_c, 0, 64, 59
1, 85962, Control_c, 0, 64, 66
1, 85977, Control_c, 0, 64, 71
1, 85992, Control_c, 0, 64, 77
1, 86006, Control_c, 0, 64, 81
1, 86021, Control_c, 0, 64, 84
1, 86036, Control_c, 0, 64, 86
1, 86051, Control_c, 0, 64, 87
1, 86066, Control_c, 0, 64, 89
1, 86077, Note_off_c, 0, 49, 61
1, 86080, Control_c, 0, 64, 90
1, 86095, Control_c, 0, 64, 91
1, 86110, Control_c, 0, 64, 91
1, 86123, Note_off_c, 0, 57, 60
1, 86125, Control_c, 0, 64, 92
1, 86136, Note_off_c, 0, 37, 64
1, 86140, Control_c, 0, 64, 92
1, 86169, Control_c, 0, 64, 93
1, 86184, Control_c, 0, 64, 93
1, 86399, Control_c, 0, 64, 93
1, 86413, Control_c, 0, 64, 91
1, 86428, Control_c, 0, 64, 87
1, 86443, Control_c, 0, 64, 82
1, 86444, Note_on_c, 0, 61, 53
1, 86447, Note_on_c, 0, 32, 46
1, 86447, Note_on_c, 0, 64, 52
1, 86453, Note_on_c, 0, 44, 43
1, 86453, Note_on_c, 0, 56, 49
1, 86458, Control_c, 0, 64, 76
1, 86473, Control_c, 0, 64, 70
1, 86487, Control_c, 0, 64, 65
1, 86502, Control_c, 0, 64, 62
1, 86517, Control_c, 0, 64, 60
1, 86547, Control_c, 0, 64, 60
1, 86561, Control_c, 0, 64, 59
1, 86577, Control_c, 0, 64, 57
1, 86592, Control_c, 0, 64, 56
1, 86607, Control_c, 0, 64, 55
1, 86651, Control_c, 0, 64, 56
1, 86666, Control_c, 0, 64, 56
1, 86681, Control_c, 0, 64, 58
1, 86696, Control_c, 0, 64, 60
1, 86710, Control_c, 0, 64, 62
1, 86725, Control_c, 0, 64, 64
1, 86740, Control_c, 0, 64, 64
1, 86755, Control_c, 0, 64, 65
1, 86770, Control_c, 0, 64, 66
1, 86784, Control_c, 0, 64, 67
1, 86799, Control_c, 0, 64, 69
1, 86814, Control_c, 0, 64, 71
1, 86829, Control_c, 0, 64, 74
1, 86844, Control_c, 0, 64, 76
1, 86859, Control_c, 0, 64, 77
1, 86874, Control_c, 0, 64, 79
1, 86889, Control_c, 0, 64, 81
1, 86903, Control_c, 0, 64, 83
1, 86918, Control_c, 0, 64, 84
1, 86933, Control_c, 0, 64, 85
1, 86948, Control_c, 0, 64, 86
1, 86963, Control_c, 0, 64, 86
1, 86977, Control_c, 0, 64, 87
1, 86992, Control_c, 0, 64, 88
1, 87007, Control_c, 0, 64, 88
1, 87021, Control_c, 0, 64, 89
1, 87036, Control_c, 0, 64, 89
1, 87074, Control_c, 0, 64, 90
1, 87103, Control_c, 0, 64, 90
1, 87133, Control_c, 0, 64, 91
1, 87266, Control_c, 0, 64, 91
1, 87299, Note_off_c, 0, 44, 41
1, 87336, Note_off_c, 0, 32, 41
1, 87578, Control_c, 0, 64, 91
1, 87593, Control_c, 0, 64, 89
1, 87607, Control_c, 0, 64, 85
1, 87622, Control_c, 0, 64, 80
1, 87625, Note_on_c, 0, 45, 44
1, 87629, Note_on_c, 0, 33, 39
1, 87637, Control_c, 0, 64, 74
1, 87652, Control_c, 0, 64, 68
1, 87667, Control_c, 0, 64, 61
1, 87682, Control_c, 0, 64, 54
1, 87711, Control_c, 0, 64, 55
1, 87726, Control_c, 0, 64, 56
1, 87741, Control_c, 0, 64, 57
1, 87756, Control_c, 0, 64, 58
1, 87771, Control_c, 0, 64, 62
1, 87785, Control_c, 0, 64, 66
1, 87807, Control_c, 0, 64, 71
1, 87822, Control_c, 0, 64, 76
1, 87837, Control_c, 0, 64, 80
1, 87852, Control_c, 0, 64, 83
1, 87866, Control_c, 0, 64, 85
1, 87881, Control_c, 0, 64, 87
1, 87896, Control_c, 0, 64, 88
1, 87911, Control_c, 0, 64, 89
1, 87913, Note_off_c, 0, 33, 41
1, 87919, Note_off_c, 0, 45, 47
1, 87926, Control_c, 0, 64, 89
1, 87941, Control_c, 0, 64, 90
1, 87956, Control_c, 0, 64, 90
1, 87971, Control_c, 0, 64, 91
1, 87985, Control_c, 0, 64, 91
1, 88015, Control_c, 0, 64, 92
1, 88179, Control_c, 0, 64, 90
1, 88194, Control_c, 0, 64, 87
1, 88209, Control_c, 0, 64, 83
1, 88223, Control_c, 0, 64, 77
1, 88238, Control_c, 0, 64, 72
1, 88239, Note_on_c, 0, 59, 38
1, 88239, Note_on_c, 0, 47, 41
1, 88247, Note_on_c, 0, 35, 34
1, 88253, Control_c, 0, 64, 68
1, 88268, Control_c, 0, 64, 64
1, 88272, Note_off_c, 0, 61, 49
1, 88282, Control_c, 0, 64, 63
1, 88297, Control_c, 0, 64, 63
1, 88312, Control_c, 0, 64, 62
1, 88327, Control_c, 0, 64, 60
1, 88342, Control_c, 0, 64, 57
1, 88356, Control_c, 0, 64, 52
1, 88371, Control_c, 0, 64, 47
1, 88386, Control_c, 0, 64, 46
1, 88400, Control_c, 0, 64, 45
1, 88415, Control_c, 0, 64, 43
1, 88430, Control_c, 0, 64, 42
1, 88445, Control_c, 0, 64, 39
1, 88460, Control_c, 0, 64, 37
1, 88475, Control_c, 0, 64, 36
1, 88489, Control_c, 0, 64, 36
1, 88504, Control_c, 0, 64, 34
1, 88645, Control_c, 0, 64, 35
1, 88660, Control_c, 0, 64, 36
1, 88675, Control_c, 0, 64, 36
1, 88719, Control_c, 0, 64, 37
1, 88734, Control_c, 0, 64, 38
1, 88779, Control_c, 0, 64, 38
1, 88852, Control_c, 0, 64, 39
1, 88899, Note_on_c, 0, 63, 40
1, 88988, Note_off_c, 0, 64, 49
1, 89030, Control_c, 0, 64, 39
1, 89060, Control_c, 0, 64, 40
1, 89075, Control_c, 0, 64, 41
1, 89090, Control_c, 0, 64, 42
1, 89104, Control_c, 0, 64, 43
1, 89119, Control_c, 0, 64, 43
1, 89134, Control_c, 0, 64, 44
1, 89149, Control_c, 0, 64, 45
1, 89164, Control_c, 0, 64, 45
1, 89178, Control_c, 0, 64, 46
1, 89193, Control_c, 0, 64, 48
1, 89208, Control_c, 0, 64, 50
1, 89223, Control_c, 0, 64, 51
1, 89238, Control_c, 0, 64, 52
1, 89253, Control_c, 0, 64, 53
1, 89268, Control_c, 0, 64, 54
1, 89282, Control_c, 0, 64, 55
1, 89304, Control_c, 0, 64, 56
1, 89334, Control_c, 0, 64, 56
1, 89349, Control_c, 0, 64, 57
1, 89364, Control_c, 0, 64, 57
1, 89378, Control_c, 0, 64, 58
1, 89393, Control_c, 0, 64, 58
1, 89437, Control_c, 0, 64, 59
1, 89491, Note_on_c, 0, 61, 40
1, 89515, Note_off_c, 0, 63, 58
1, 89572, Control_c, 0, 64, 58
1, 89616, Control_c, 0, 64, 59
1, 89631, Control_c, 0, 64, 59
1, 89646, Control_c, 0, 64, 60
1, 89650, Note_off_c, 0, 59, 41
1, 89661, Control_c, 0, 64, 63
1, 89676, Control_c, 0, 64, 66
1, 89691, Control_c, 0, 64, 71
1, 89705, Control_c, 0, 64, 78
1, 89717, Note_off_c, 0, 56, 52
1, 89720, Control_c, 0, 64, 83
1, 89735, Control_c, 0, 64, 86
1, 89749, Control_c, 0, 64, 89
1, 89764, Control_c, 0, 64, 90
1, 89780, Control_c, 0, 64, 92
1, 89795, Control_c, 0, 64, 93
1, 89798, Note_off_c, 0, 61, 54
1, 89810, Control_c, 0, 64, 94
1, 89825, Control_c, 0, 64, 95
1, 89840, Control_c, 0, 64, 95
1, 89854, Control_c, 0, 64, 96
1, 90084, Control_c, 0, 64, 95
1, 90099, Control_c, 0, 64, 92
1, 90114, Control_c, 0, 64, 88
1, 90128, Control_c, 0, 64, 83
1, 90143, Control_c, 0, 64, 78
1, 90157, Note_on_c, 0, 59, 36
1, 90158, Control_c, 0, 64, 73
1, 90168, Note_on_c, 0, 63, 40
1, 90172, Control_c, 0, 64, 70
1, 90187, Control_c, 0, 64, 66
1, 90189, Note_on_c, 0, 54, 32
1, 90202, Control_c, 0, 64, 64
1, 90217, Control_c, 0, 64, 63
1, 90232, Control_c, 0, 64, 63
1, 90261, Control_c, 0, 64, 62
1, 90276, Control_c, 0, 64, 61
1, 90291, Control_c, 0, 64, 59
1, 90306, Control_c, 0, 64, 57
1, 90320, Control_c, 0, 64, 57
1, 90365, Control_c, 0, 64, 56
1, 90394, Control_c, 0, 64, 57
1, 90409, Control_c, 0, 64, 58
1, 90424, Control_c, 0, 64, 59
1, 90439, Control_c, 0, 64, 61
1, 90454, Control_c, 0, 64, 62
1, 90469, Control_c, 0, 64, 64
1, 90484, Control_c, 0, 64, 65
1, 90499, Control_c, 0, 64, 66
1, 90514, Control_c, 0, 64, 68
1, 90528, Control_c, 0, 64, 69
1, 90543, Control_c, 0, 64, 71
1, 90558, Control_c, 0, 64, 73
1, 90573, Control_c, 0, 64, 74
1, 90588, Control_c, 0, 64, 76
1, 90603, Control_c, 0, 64, 79
1, 90618, Control_c, 0, 64, 81
1, 90633, Control_c, 0, 64, 83
1, 90648, Control_c, 0, 64, 84
1, 90663, Control_c, 0, 64, 86
1, 90677, Control_c, 0, 64, 88
1, 90692, Control_c, 0, 64, 90
1, 90707, Control_c, 0, 64, 92
1, 90722, Control_c, 0, 64, 93
1, 90737, Control_c, 0, 64, 95
1, 90743, Note_off_c, 0, 47, 42
1, 90751, Control_c, 0, 64, 96
1, 90766, Control_c, 0, 64, 97
1, 90781, Control_c, 0, 64, 98
1, 90803, Control_c, 0, 64, 99
1, 90818, Control_c, 0, 64, 99
1, 90832, Control_c, 0, 64, 100
1, 90847, Note_off_c, 0, 59, 41
1, 90847, Control_c, 0, 64, 100
1, 90856, Note_off_c, 0, 35, 49
1, 90862, Control_c, 0, 64, 101
1, 90892, Note_off_c, 0, 54, 40
1, 90892, Control_c, 0, 64, 101
1, 90978, Note_off_c, 0, 63, 39
1, 91470, Control_c, 0, 64, 101
1, 91485, Control_c, 0, 64, 99
1, 91500, Control_c, 0, 64, 94
1, 91515, Control_c, 0, 64, 87
1, 91530, Control_c, 0, 64, 80
1, 91552, Control_c, 0, 64, 73
1, 91566, Note_on_c, 0, 40, 25
1, 91566, Note_on_c, 0, 64, 32
1, 91566, Note_on_c, 0, 28, 27
1, 91567, Control_c, 0, 64, 68
1, 91578, Note_on_c, 0, 52, 30
1, 91581, Control_c, 0, 64, 63
1, 91596, Control_c, 0, 64, 60
1, 91611, Control_c, 0, 64, 60
1, 91700, Control_c, 0, 64, 61
1, 91715, Control_c, 0, 64, 63
1, 91730, Control_c, 0, 64, 67
1, 91745, Control_c, 0, 64, 72
1, 91760, Control_c, 0, 64, 78
1, 91774, Control_c, 0, 64, 84
1, 91789, Control_c, 0, 64, 88
1, 91804, Control_c, 0, 64, 90
1, 91818, Control_c, 0, 64, 92
1, 91833, Control_c, 0, 64, 93
1, 91844, Note_off_c, 0, 40, 41
1, 91846, Note_off_c, 0, 28, 40
1, 91848, Control_c, 0, 64, 95
1, 91863, Control_c, 0, 64, 97
1, 91870, Note_off_c, 0, 64, 41
1, 91878, Control_c, 0, 64, 99
1, 91885, Note_off_c, 0, 52, 42
1, 91892, Control_c, 0, 64, 100
1, 91907, Control_c, 0, 64, 101
1, 91922, Control_c, 0, 64, 102
1, 91937, Control_c, 0, 64, 103
1, 91952, Control_c, 0, 64, 103
1, 91966, Control_c, 0, 64, 104
1, 91981, Control_c, 0, 64, 104
1, 91996, Control_c, 0, 64, 105
1, 92338, Note_on_c, 0, 64, 32
1, 92341, Note_on_c, 0, 52, 34
1, 92346, Note_on_c, 0, 28, 25
1, 92353, Note_on_c, 0, 40, 20
1, 93465, Control_c, 0, 64, 104
1, 93494, Control_c, 0, 64, 104
1, 93509, Control_c, 0, 64, 103
1, 93524, Control_c, 0, 64, 103
1, 93539, Control_c, 0, 64, 102
1, 93553, Control_c, 0, 64, 102
1, 93568, Control_c, 0, 64, 101
1, 93597, Control_c, 0, 64, 101
1, 93612, Control_c, 0, 64, 100
1, 93627, Control_c, 0, 64, 100
1, 93642, Control_c, 0, 64, 99
1, 93657, Control_c, 0, 64, 98
1, 93671, Control_c, 0, 64, 98
1, 93686, Control_c, 0, 64, 97
1, 93701, Control_c, 0, 64, 96
1, 93715, Control_c, 0, 64, 95
1, 93730, Control_c, 0, 64, 95
1, 93761, Control_c, 0, 64, 94
1, 93776, Control_c, 0, 64, 94
1, 93798, Control_c, 0, 64, 93
1, 93813, Control_c, 0, 64, 93
1, 93843, Control_c, 0, 64, 92
1, 93873, Control_c, 0, 64, 92
1, 93902, Control_c, 0, 64, 91
1, 93917, Control_c, 0, 64, 91
1, 93932, Control_c, 0, 64, 90
1, 93962, Control_c, 0, 64, 90
1, 93976, Control_c, 0, 64, 89
1, 93991, Control_c, 0, 64, 89
1, 94006, Control_c, 0, 64, 88
1, 94020, Control_c, 0, 64, 88
1, 94035, Control_c, 0, 64, 87
1, 94050, Control_c, 0, 64, 86
1, 94065, Control_c, 0, 64, 86
1, 94080, Control_c, 0, 64, 85
1, 94094, Control_c, 0, 64, 85
1, 94109, Control_c, 0, 64, 84
1, 94124, Control_c, 0, 64, 83
1, 94139, Control_c, 0, 64, 83
1, 94168, Control_c, 0, 64, 82
1, 94198, Control_c, 0, 64, 82
1, 94228, Control_c, 0, 64, 81
1, 94243, Control_c, 0, 64, 81
1, 94272, Control_c, 0, 64, 80
1, 94282, Note_off_c, 0, 64, 20
1, 94302, Control_c, 0, 64, 80
1, 94317, Control_c, 0, 64, 79
1, 94329, Note_off_c, 0, 52, 33
1, 94346, Control_c, 0, 64, 79
1, 94361, Control_c, 0, 64, 78
1, 94391, Control_c, 0, 64, 78
1, 94435, Control_c, 0, 64, 77
1, 94465, Control_c, 0, 64, 77
1, 94480, Control_c, 0, 64, 76
1, 94524, Control_c, 0, 64, 76
1, 94577, Control_c, 0, 64, 75
1, 94606, Control_c, 0, 64, 75
1, 94636, Control_c, 0, 64, 74
1, 94651, Control_c, 0, 64, 74
1, 94666, Control_c, 0, 64, 73
1, 94696, Control_c, 0, 64, 73
1, 94711, Control_c, 0, 64, 72
1, 94740, Control_c, 0, 64, 72
1, 94769, Control_c, 0, 64, 71
1, 94784, Control_c, 0, 64, 71
1, 94799, Control_c, 0, 64, 70
1, 94843, Control_c, 0, 64, 70
1, 94873, Control_c, 0, 64, 69
1, 94888, Control_c, 0, 64, 69
1, 94903, Control_c, 0, 64, 68
1, 94917, Control_c, 0, 64, 68
1, 94961, Control_c, 0, 64, 67
1, 94991, Control_c, 0, 64, 67
1, 95021, Control_c, 0, 64, 66
1, 95065, Control_c, 0, 64, 66
1, 95095, Control_c, 0, 64, 65
1, 95110, Control_c, 0, 64, 65
1, 95169, Control_c, 0, 64, 64
1, 95199, Control_c, 0, 64, 64
1, 95229, Control_c, 0, 64, 63
1, 95295, Control_c, 0, 64, 63
1, 95310, Control_c, 0, 64, 62
1, 95325, Control_c, 0, 64, 62
1, 95355, Control_c, 0, 64, 61
1, 95370, Control_c, 0, 64, 61
1, 95385, Control_c, 0, 64, 60
1, 95399, Control_c, 0, 64, 59
1, 95429, Control_c, 0, 64, 59
1, 95459, Control_c, 0, 64, 58
1, 95474, Control_c, 0, 64, 57
1, 95651, Control_c, 0, 64, 58
1, 95680, Control_c, 0, 64, 58
1, 95710, Control_c, 0, 64, 59
1, 95739, Control_c, 0, 64, 59
1, 95769, Control_c, 0, 64, 60
1, 95784, Control_c, 0, 64, 61
1, 95799, Control_c, 0, 64, 61
1, 95814, Control_c, 0, 64, 62
1, 95828, Control_c, 0, 64, 63
1, 95843, Control_c, 0, 64, 63
1, 95858, Control_c, 0, 64, 64
1, 95873, Control_c, 0, 64, 65
1, 95888, Control_c, 0, 64, 65
1, 95903, Control_c, 0, 64, 66
1, 95918, Control_c, 0, 64, 66
1, 95933, Control_c, 0, 64, 67
1, 95947, Control_c, 0, 64, 68
1, 95962, Control_c, 0, 64, 68
1, 95977, Control_c, 0, 64, 69
1, 95991, Control_c, 0, 64, 70
1, 96006, Control_c, 0, 64, 71
1, 96021, Control_c, 0, 64, 71
1, 96043, Control_c, 0, 64, 72
1, 96058, Control_c, 0, 64, 72
1, 96088, Control_c, 0, 64, 73
1, 96103, Control_c, 0, 64, 73
1, 96117, Control_c, 0, 64, 74
1, 96132, Control_c, 0, 64, 74
1, 96162, Control_c, 0, 64, 75
1, 96177, Control_c, 0, 64, 75
1, 96192, Control_c, 0, 64, 76
1, 96207, Control_c, 0, 64, 76
1, 96222, Control_c, 0, 64, 77
1, 96237, Control_c, 0, 64, 77
1, 96252, Control_c, 0, 64, 78
1, 96267, Control_c, 0, 64, 78
1, 96282, Control_c, 0, 64, 80
1, 96296, Control_c, 0, 64, 81
1, 96311, Control_c, 0, 64, 82
1, 96326, Control_c, 0, 64, 84
1, 96341, Control_c, 0, 64, 85
1, 96356, Control_c, 0, 64, 86
1, 96370, Control_c, 0, 64, 87
1, 96385, Control_c, 0, 64, 88
1, 96400, Control_c, 0, 64, 89
1, 96414, Control_c, 0, 64, 90
1, 96429, Control_c, 0, 64, 91
1, 96444, Control_c, 0, 64, 92
1, 96459, Control_c, 0, 64, 92
1, 96474, Control_c, 0, 64, 93
1, 96518, Control_c, 0, 64, 94
1, 96533, Control_c, 0, 64, 94
1, 96548, Control_c, 0, 64, 95
1, 96562, Control_c, 0, 64, 96
1, 96592, Control_c, 0, 64, 96
1, 96636, Control_c, 0, 64, 97
1, 96651, Control_c, 0, 64, 97
1, 96666, Control_c, 0, 64, 98
1, 96681, Control_c, 0, 64, 98
1, 96711, Control_c, 0, 64, 99
1, 96755, Control_c, 0, 64, 99
1, 96836, Control_c, 0, 64, 100
1, 97212, Note_on_c, 0, 69, 34
1, 97215, Note_on_c, 0, 65, 16
1, 97570, Control_c, 0, 64, 100
1, 97640, Note_off_c, 0, 69, 36
1, 97641, Note_off_c, 0, 65, 35
1, 98156, Note_on_c, 0, 69, 42
1, 98166, Note_on_c, 0, 65, 35
1, 98220, Note_off_c, 0, 69, 59
1, 98231, Note_off_c, 0, 65, 62
1, 98500, Note_on_c, 0, 67, 44
1, 98509, Note_on_c, 0, 65, 40
1, 98511, Control_c, 0, 64, 100
1, 98526, Control_c, 0, 64, 99
1, 98541, Control_c, 0, 64, 97
1, 98557, Control_c, 0, 64, 96
1, 98572, Control_c, 0, 64, 95
1, 98587, Control_c, 0, 64, 94
1, 98602, Control_c, 0, 64, 93
1, 98616, Control_c, 0, 64, 91
1, 98631, Control_c, 0, 64, 89
1, 98646, Control_c, 0, 64, 87
1, 98661, Control_c, 0, 64, 85
1, 98676, Control_c, 0, 64, 84
1, 98690, Control_c, 0, 64, 83
1, 98705, Control_c, 0, 64, 82
1, 98720, Control_c, 0, 64, 81
1, 98735, Control_c, 0, 64, 79
1, 98750, Control_c, 0, 64, 78
1, 98765, Control_c, 0, 64, 78
1, 98780, Control_c, 0, 64, 77
1, 98794, Control_c, 0, 64, 76
1, 98809, Control_c, 0, 64, 75
1, 98824, Control_c, 0, 64, 74
1, 98839, Control_c, 0, 64, 72
1, 98854, Control_c, 0, 64, 71
1, 98869, Control_c, 0, 64, 70
1, 98883, Control_c, 0, 64, 69
1, 98898, Control_c, 0, 64, 68
1, 98913, Control_c, 0, 64, 67
1, 98928, Control_c, 0, 64, 66
1, 98942, Control_c, 0, 64, 65
1, 98957, Control_c, 0, 64, 65
1, 98987, Control_c, 0, 64, 64
1, 99002, Control_c, 0, 64, 64
1, 99016, Control_c, 0, 64, 63
1, 99039, Control_c, 0, 64, 63
1, 99054, Control_c, 0, 64, 62
1, 99069, Control_c, 0, 64, 62
1, 99084, Control_c, 0, 64, 61
1, 99086, Note_off_c, 0, 65, 53
1, 99089, Note_on_c, 0, 64, 35
1, 99098, Control_c, 0, 64, 60
1, 99113, Control_c, 0, 64, 58
1, 99128, Control_c, 0, 64, 56
1, 99142, Control_c, 0, 64, 55
1, 99172, Control_c, 0, 64, 54
1, 99187, Control_c, 0, 64, 53
1, 99202, Control_c, 0, 64, 51
1, 99231, Control_c, 0, 64, 52
1, 99261, Control_c, 0, 64, 52
1, 99276, Control_c, 0, 64, 53
1, 99290, Control_c, 0, 64, 55
1, 99305, Control_c, 0, 64, 59
1, 99320, Control_c, 0, 64, 63
1, 99334, Control_c, 0, 64, 65
1, 99349, Control_c, 0, 64, 68
1, 99366, Control_c, 0, 64, 73
1, 99379, Note_on_c, 0, 62, 46
1, 99380, Control_c, 0, 64, 77
1, 99387, Note_off_c, 0, 64, 56
1, 99395, Control_c, 0, 64, 80
1, 99410, Control_c, 0, 64, 83
1, 99417, Note_off_c, 0, 67, 61
1, 99425, Control_c, 0, 64, 85
1, 99439, Control_c, 0, 64, 87
1, 99454, Control_c, 0, 64, 89
1, 99469, Control_c, 0, 64, 90
1, 99484, Control_c, 0, 64, 91
1, 99499, Control_c, 0, 64, 91
1, 99528, Control_c, 0, 64, 92
1, 99572, Control_c, 0, 64, 92
1, 99632, Control_c, 0, 64, 92
1, 99647, Control_c, 0, 64, 91
1, 99662, Control_c, 0, 64, 88
1, 99677, Control_c, 0, 64, 83
1, 99681, Note_on_c, 0, 67, 57
1, 99692, Control_c, 0, 64, 78
1, 99696, Note_on_c, 0, 60, 41
1, 99706, Control_c, 0, 64, 74
1, 99721, Control_c, 0, 64, 69
1, 99734, Note_off_c, 0, 62, 32
1, 99736, Control_c, 0, 64, 66
1, 99751, Control_c, 0, 64, 63
1, 99759, Note_off_c, 0, 60, 0
1, 99759, Note_on_c, 0, 60, 3
1, 99765, Control_c, 0, 64, 63
1, 99787, Control_c, 0, 64, 62
1, 99802, Control_c, 0, 64, 62
1, 99817, Control_c, 0, 64, 61
1, 99832, Control_c, 0, 64, 60
1, 99862, Control_c, 0, 64, 61
1, 99877, Control_c, 0, 64, 62
1, 99891, Control_c, 0, 64, 63
1, 99906, Control_c, 0, 64, 65
1, 99921, Control_c, 0, 64, 66
1, 99936, Control_c, 0, 64, 69
1, 99951, Control_c, 0, 64, 72
1, 99965, Control_c, 0, 64, 75
1, 99980, Control_c, 0, 64, 78
1, 99995, Control_c, 0, 64, 80
1, 100010, Control_c, 0, 64, 81
1, 100025, Control_c, 0, 64, 83
1, 100039, Control_c, 0, 64, 85
1, 100054, Control_c, 0, 64, 86
1, 100069, Control_c, 0, 64, 88
1, 100084, Control_c, 0, 64, 89
1, 100099, Control_c, 0, 64, 89
1, 100113, Control_c, 0, 64, 90
1, 100128, Control_c, 0, 64, 90
1, 100143, Control_c, 0, 64, 91
1, 100159, Control_c, 0, 64, 91
1, 100174, Control_c, 0, 64, 92
1, 100266, Note_on_c, 0, 72, 61
1, 100407, Note_off_c, 0, 67, 38
1, 100455, Control_c, 0, 64, 92
1, 100610, Control_c, 0, 64, 93
1, 100669, Control_c, 0, 64, 93
1, 100831, Note_on_c, 0, 67, 50
1, 100961, Note_off_c, 0, 28, 40
1, 100967, Control_c, 0, 64, 94
1, 101032, Note_off_c, 0, 40, 40
1, 101074, Note_off_c, 0, 60, 41
1, 101085, Control_c, 0, 64, 94
1, 101145, Control_c, 0, 64, 95
1, 101248, Control_c, 0, 64, 95
1, 101403, Control_c, 0, 64, 95
1, 101415, Note_off_c, 0, 72, 38
1, 101418, Control_c, 0, 64, 93
1, 101433, Control_c, 0, 64, 91
1, 101439, Note_on_c, 0, 65, 65
1, 101441, Note_on_c, 0, 41, 57
1, 101447, Note_on_c, 0, 29, 52
1, 101448, Control_c, 0, 64, 88
1, 101455, Note_on_c, 0, 60, 46
1, 101463, Control_c, 0, 64, 85
1, 101477, Control_c, 0, 64, 81
1, 101492, Control_c, 0, 64, 77
1, 101507, Note_off_c, 0, 67, 38
1, 101507, Control_c, 0, 64, 74
1, 101522, Control_c, 0, 64, 71
1, 101537, Control_c, 0, 64, 69
1, 101552, Control_c, 0, 64, 67
1, 101567, Control_c, 0, 64, 66
1, 101582, Control_c, 0, 64, 65
1, 101597, Control_c, 0, 64, 65
1, 101611, Control_c, 0, 64, 64
1, 101760, Control_c, 0, 64, 65
1, 101790, Control_c, 0, 64, 65
1, 101834, Control_c, 0, 64, 66
1, 101923, Control_c, 0, 64, 66
1, 102049, Control_c, 0, 64, 67
1, 102060, Note_on_c, 0, 62, 61
1, 102105, Note_off_c, 0, 60, 58
1, 102138, Control_c, 0, 64, 67
1, 102197, Control_c, 0, 64, 68
1, 102212, Control_c, 0, 64, 68
1, 102226, Control_c, 0, 64, 69
1, 102241, Control_c, 0, 64, 70
1, 102256, Control_c, 0, 64, 70
1, 102272, Control_c, 0, 64, 71
1, 102287, Control_c, 0, 64, 72
1, 102301, Control_c, 0, 64, 74
1, 102316, Control_c, 0, 64, 76
1, 102331, Control_c, 0, 64, 78
1, 102346, Control_c, 0, 64, 79
1, 102360, Control_c, 0, 64, 80
1, 102375, Control_c, 0, 64, 81
1, 102390, Control_c, 0, 64, 81
1, 102405, Control_c, 0, 64, 82
1, 102420, Control_c, 0, 64, 83
1, 102434, Control_c, 0, 64, 83
1, 102479, Control_c, 0, 64, 84
1, 102509, Control_c, 0, 64, 84
1, 102538, Control_c, 0, 64, 85
1, 102619, Note_on_c, 0, 64, 57
1, 102630, Note_on_c, 0, 60, 51
1, 102635, Note_off_c, 0, 65, 54
1, 102643, Control_c, 0, 64, 85
1, 102688, Control_c, 0, 64, 86
1, 102702, Control_c, 0, 64, 86
1, 102705, Note_off_c, 0, 62, 58
1, 102717, Control_c, 0, 64, 87
1, 102732, Control_c, 0, 64, 87
1, 102762, Control_c, 0, 64, 88
1, 102798, Control_c, 0, 64, 88
1, 102828, Control_c, 0, 64, 89
1, 102917, Note_on_c, 0, 65, 70
1, 102917, Control_c, 0, 64, 89
1, 102935, Note_off_c, 0, 60, 61
1, 103006, Note_off_c, 0, 64, 60
1, 103188, Note_on_c, 0, 67, 73
1, 103194, Note_on_c, 0, 57, 63
1, 103230, Note_off_c, 0, 65, 60
1, 103304, Note_off_c, 0, 29, 40
1, 103345, Note_off_c, 0, 41, 55
1, 103464, Note_on_c, 0, 65, 74
1, 103468, Note_off_c, 0, 67, 60
1, 103799, Control_c, 0, 64, 88
1, 103813, Control_c, 0, 64, 86
1, 103816, Note_off_c, 0, 65, 58
1, 103822, Note_on_c, 0, 46, 70
1, 103822, Note_on_c, 0, 62, 75
1, 103824, Note_on_c, 0, 58, 66
1, 103827, Note_on_c, 0, 34, 62
1, 103828, Control_c, 0, 64, 80
1, 103843, Control_c, 0, 64, 74
1, 103858, Control_c, 0, 64, 66
1, 103861, Note_off_c, 0, 57, 55
1, 103872, Control_c, 0, 64, 55
1, 103887, Control_c, 0, 64, 38
1, 103902, Control_c, 0, 64, 30
1, 103976, Control_c, 0, 64, 31
1, 103991, Control_c, 0, 64, 40
1, 104005, Control_c, 0, 64, 54
1, 104020, Control_c, 0, 64, 63
1, 104035, Control_c, 0, 64, 68
1, 104050, Control_c, 0, 64, 72
1, 104065, Control_c, 0, 64, 76
1, 104080, Control_c, 0, 64, 79
1, 104095, Control_c, 0, 64, 81
1, 104109, Control_c, 0, 64, 82
1, 104124, Control_c, 0, 64, 83
1, 104139, Control_c, 0, 64, 84
1, 104154, Control_c, 0, 64, 86
1, 104169, Control_c, 0, 64, 87
1, 104184, Control_c, 0, 64, 87
1, 104199, Control_c, 0, 64, 88
1, 104244, Control_c, 0, 64, 88
1, 104399, Control_c, 0, 64, 87
1, 104408, Note_on_c, 0, 63, 68
1, 104414, Control_c, 0, 64, 86
1, 104427, Note_on_c, 0, 60, 60
1, 104428, Control_c, 0, 64, 83
1, 104443, Note_off_c, 0, 62, 58
1, 104443, Control_c, 0, 64, 80
1, 104458, Control_c, 0, 64, 77
1, 104460, Note_off_c, 0, 58, 58
1, 104473, Control_c, 0, 64, 73
1, 104488, Control_c, 0, 64, 69
1, 104503, Control_c, 0, 64, 66
1, 104518, Control_c, 0, 64, 66
1, 104533, Control_c, 0, 64, 66
1, 104548, Control_c, 0, 64, 67
1, 104562, Control_c, 0, 64, 68
1, 104577, Control_c, 0, 64, 68
1, 104592, Control_c, 0, 64, 70
1, 104607, Control_c, 0, 64, 71
1, 104622, Control_c, 0, 64, 72
1, 104636, Control_c, 0, 64, 72
1, 104873, Control_c, 0, 64, 72
1, 104888, Control_c, 0, 64, 71
1, 104917, Control_c, 0, 64, 71
1, 104933, Note_on_c, 0, 58, 67
1, 104992, Control_c, 0, 64, 71
1, 105001, Note_off_c, 0, 60, 55
1, 105007, Control_c, 0, 64, 72
1, 105030, Control_c, 0, 64, 73
1, 105045, Control_c, 0, 64, 74
1, 105059, Control_c, 0, 64, 75
1, 105074, Control_c, 0, 64, 76
1, 105089, Control_c, 0, 64, 77
1, 105104, Control_c, 0, 64, 78
1, 105119, Control_c, 0, 64, 79
1, 105133, Control_c, 0, 64, 80
1, 105148, Control_c, 0, 64, 80
1, 105177, Control_c, 0, 64, 81
1, 105227, Note_on_c, 0, 57, 67
1, 105260, Note_off_c, 0, 58, 65
1, 105370, Control_c, 0, 64, 81
1, 105415, Control_c, 0, 64, 82
1, 105459, Control_c, 0, 64, 82
1, 105502, Note_on_c, 0, 55, 74
1, 105531, Note_off_c, 0, 57, 60
1, 105622, Control_c, 0, 64, 83
1, 105651, Control_c, 0, 64, 83
1, 105681, Control_c, 0, 64, 84
1, 105695, Control_c, 0, 64, 84
1, 105725, Control_c, 0, 64, 85
1, 105779, Control_c, 0, 64, 85
1, 105794, Control_c, 0, 64, 86
1, 105823, Control_c, 0, 64, 86
1, 105868, Control_c, 0, 64, 87
1, 105912, Control_c, 0, 64, 87
1, 106043, Note_on_c, 0, 62, 71
1, 106090, Note_off_c, 0, 63, 52
1, 106105, Control_c, 0, 64, 88
1, 106164, Control_c, 0, 64, 88
1, 106208, Control_c, 0, 64, 89
1, 106238, Control_c, 0, 64, 89
1, 106253, Control_c, 0, 64, 90
1, 106312, Control_c, 0, 64, 90
1, 106318, Note_off_c, 0, 46, 60
1, 106350, Note_on_c, 0, 60, 79
1, 106354, Note_off_c, 0, 34, 64
1, 106431, Control_c, 0, 64, 91
1, 106446, Control_c, 0, 64, 91
1, 106446, Note_off_c, 0, 62, 52
1, 106461, Control_c, 0, 64, 92
1, 106475, Control_c, 0, 64, 93
1, 106490, Control_c, 0, 64, 94
1, 106505, Control_c, 0, 64, 95
1, 106527, Control_c, 0, 64, 96
1, 106542, Control_c, 0, 64, 97
1, 106557, Control_c, 0, 64, 98
1, 106617, Control_c, 0, 64, 95
1, 106631, Control_c, 0, 64, 90
1, 106634, Note_on_c, 0, 58, 86
1, 106637, Note_on_c, 0, 45, 76
1, 106639, Note_on_c, 0, 33, 78
1, 106646, Control_c, 0, 64, 80
1, 106661, Control_c, 0, 64, 71
1, 106676, Control_c, 0, 64, 64
1, 106691, Control_c, 0, 64, 60
1, 106701, Note_off_c, 0, 60, 60
1, 106706, Control_c, 0, 64, 61
1, 106721, Control_c, 0, 64, 64
1, 106736, Control_c, 0, 64, 68
1, 106750, Control_c, 0, 64, 73
1, 106765, Control_c, 0, 64, 79
1, 106780, Control_c, 0, 64, 85
1, 106795, Control_c, 0, 64, 88
1, 106803, Note_off_c, 0, 45, 64
1, 106810, Control_c, 0, 64, 90
1, 106824, Control_c, 0, 64, 93
1, 106836, Note_off_c, 0, 33, 64
1, 106839, Control_c, 0, 64, 95
1, 106854, Control_c, 0, 64, 96
1, 106869, Control_c, 0, 64, 97
1, 106884, Control_c, 0, 64, 98
1, 106898, Control_c, 0, 64, 98
1, 106913, Note_on_c, 0, 46, 92
1, 106914, Note_on_c, 0, 34, 85
1, 106928, Control_c, 0, 64, 99
1, 106938, Note_off_c, 0, 58, 65
1, 106943, Control_c, 0, 64, 99
1, 107001, Note_off_c, 0, 55, 55
1, 107046, Control_c, 0, 64, 100
1, 107096, Note_off_c, 0, 34, 64
1, 107110, Note_off_c, 0, 46, 62
1, 107195, Control_c, 0, 64, 99
1, 107210, Control_c, 0, 64, 99
1, 107224, Control_c, 0, 64, 97
1, 107239, Control_c, 0, 64, 94
1, 107239, Note_on_c, 0, 57, 87
1, 107242, Note_on_c, 0, 55, 85
1, 107245, Note_on_c, 0, 48, 92
1, 107249, Note_on_c, 0, 36, 82
1, 107254, Control_c, 0, 64, 89
1, 107275, Control_c, 0, 64, 84
1, 107290, Control_c, 0, 64, 79
1, 107305, Control_c, 0, 64, 74
1, 107320, Control_c, 0, 64, 69
1, 107335, Control_c, 0, 64, 65
1, 107351, Control_c, 0, 64, 64
1, 107366, Control_c, 0, 64, 63
1, 107380, Control_c, 0, 64, 62
1, 107395, Control_c, 0, 64, 61
1, 107410, Control_c, 0, 64, 58
1, 107410, Control_c, 0, 67, 126
1, 107425, Control_c, 0, 64, 55
1, 107425, Control_c, 0, 67, 123
1, 107440, Control_c, 0, 64, 52
1, 107440, Control_c, 0, 67, 120
1, 107454, Control_c, 0, 64, 48
1, 107454, Control_c, 0, 67, 115
1, 107469, Control_c, 0, 64, 43
1, 107469, Control_c, 0, 67, 110
1, 107484, Control_c, 0, 64, 32
1, 107484, Control_c, 0, 67, 105
1, 107499, Control_c, 0, 64, 0
1, 107499, Control_c, 0, 67, 100
1, 107513, Control_c, 0, 67, 96
1, 107527, Control_c, 0, 67, 93
1, 107542, Control_c, 0, 67, 89
1, 107557, Control_c, 0, 67, 85
1, 107571, Control_c, 0, 67, 82
1, 107586, Control_c, 0, 67, 79
1, 107601, Control_c, 0, 67, 75
1, 107616, Control_c, 0, 67, 72
1, 107631, Control_c, 0, 67, 69
1, 107645, Control_c, 0, 67, 66
1, 107660, Control_c, 0, 67, 62
1, 107675, Control_c, 0, 67, 57
1, 107689, Control_c, 0, 67, 53
1, 107704, Control_c, 0, 67, 48
1, 107719, Control_c, 0, 67, 42
1, 107734, Control_c, 0, 67, 38
1, 107749, Control_c, 0, 67, 33
1, 107764, Control_c, 0, 67, 29
1, 107779, Control_c, 0, 67, 26
1, 107794, Control_c, 0, 67, 24
1, 107809, Control_c, 0, 67, 21
1, 107824, Control_c, 0, 67, 19
1, 107837, Note_on_c, 0, 53, 89
1, 107838, Control_c, 0, 67, 16
1, 107853, Control_c, 0, 67, 13
1, 107868, Control_c, 0, 67, 11
1, 107883, Control_c, 0, 67, 8
1, 107883, Note_off_c, 0, 55, 63
1, 107897, Control_c, 0, 67, 0
1, 108038, Control_c, 0, 64, 48
1, 108053, Control_c, 0, 64, 55
1, 108068, Control_c, 0, 64, 57
1, 108083, Control_c, 0, 64, 60
1, 108097, Control_c, 0, 64, 62
1, 108112, Control_c, 0, 64, 64
1, 108127, Control_c, 0, 64, 66
1, 108142, Control_c, 0, 64, 67
1, 108157, Control_c, 0, 64, 68
1, 108172, Control_c, 0, 64, 68
1, 108187, Control_c, 0, 64, 69
1, 108202, Control_c, 0, 64, 71
1, 108217, Control_c, 0, 64, 72
1, 108232, Control_c, 0, 64, 73
1, 108247, Control_c, 0, 64, 74
1, 108276, Control_c, 0, 64, 74
1, 108306, Control_c, 0, 64, 75
1, 108365, Control_c, 0, 64, 74
1, 108380, Control_c, 0, 64, 73
1, 108389, Note_on_c, 0, 51, 87
1, 108394, Control_c, 0, 64, 70
1, 108409, Control_c, 0, 64, 66
1, 108421, Note_off_c, 0, 53, 62
1, 108424, Control_c, 0, 64, 60
1, 108439, Control_c, 0, 64, 52
1, 108454, Control_c, 0, 64, 47
1, 108468, Control_c, 0, 64, 46
1, 108483, Control_c, 0, 64, 48
1, 108498, Control_c, 0, 64, 51
1, 108512, Control_c, 0, 64, 56
1, 108527, Control_c, 0, 64, 62
1, 108542, Control_c, 0, 64, 66
1, 108557, Control_c, 0, 64, 70
1, 108572, Control_c, 0, 64, 75
1, 108587, Control_c, 0, 64, 80
1, 108602, Control_c, 0, 64, 84
1, 108617, Control_c, 0, 64, 88
1, 108631, Control_c, 0, 64, 92
1, 108646, Control_c, 0, 64, 97
1, 108661, Control_c, 0, 64, 102
1, 108667, Note_on_c, 0, 58, 90
1, 108676, Control_c, 0, 64, 105
1, 108679, Note_off_c, 0, 57, 66
1, 108691, Control_c, 0, 64, 109
1, 108706, Control_c, 0, 64, 113
1, 108720, Control_c, 0, 64, 118
1, 108735, Control_c, 0, 64, 127
1, 108747, Note_off_c, 0, 48, 61
1, 108778, Note_off_c, 0, 36, 63
1, 108982, Note_on_c, 0, 57, 88
1, 108988, Note_on_c, 0, 46, 105
1, 108995, Note_on_c, 0, 34, 94
1, 109011, Control_c, 0, 64, 115
1, 109025, Control_c, 0, 64, 100
1, 109028, Note_off_c, 0, 58, 59
1, 109040, Control_c, 0, 64, 84
1, 109055, Control_c, 0, 64, 73
1, 109070, Control_c, 0, 64, 64
1, 109085, Control_c, 0, 64, 54
1, 109099, Control_c, 0, 64, 28
1, 109114, Control_c, 0, 64, 0
1, 109537, Note_on_c, 0, 50, 91
1, 109566, Note_off_c, 0, 51, 64
1, 109596, Control_c, 0, 64, 74
1, 109611, Control_c, 0, 64, 85
1, 109625, Control_c, 0, 64, 89
1, 109640, Control_c, 0, 64, 91
1, 109655, Control_c, 0, 64, 95
1, 109669, Control_c, 0, 64, 102
1, 109684, Control_c, 0, 64, 112
1, 109699, Control_c, 0, 64, 119
1, 109714, Control_c, 0, 64, 121
1, 109721, Note_off_c, 0, 46, 57
1, 109729, Control_c, 0, 64, 123
1, 109745, Control_c, 0, 64, 125
1, 109749, Note_off_c, 0, 34, 62
1, 109759, Control_c, 0, 64, 127
1, 109834, Note_on_c, 0, 45, 99
1, 109838, Note_on_c, 0, 33, 92
1, 110055, Control_c, 0, 64, 121
1, 110070, Control_c, 0, 64, 105
1, 110085, Control_c, 0, 64, 85
1, 110099, Control_c, 0, 64, 68
1, 110114, Control_c, 0, 64, 0
1, 110125, Note_on_c, 0, 51, 95
1, 110156, Note_off_c, 0, 50, 57
1, 110192, Note_off_c, 0, 57, 61
1, 110218, Control_c, 0, 64, 63
1, 110233, Control_c, 0, 64, 81
1, 110247, Control_c, 0, 64, 102
1, 110270, Control_c, 0, 64, 126
1, 110285, Control_c, 0, 64, 127
1, 110287, Note_off_c, 0, 45, 65
1, 110346, Note_off_c, 0, 33, 61
1, 110415, Note_on_c, 0, 58, 97
1, 110444, Note_off_c, 0, 51, 61
1, 110712, Note_off_c, 0, 58, 60
1, 110742, Note_on_c, 0, 53, 95
1, 110742, Note_on_c, 0, 57, 96
1, 110745, Control_c, 0, 64, 105
1, 110746, Note_on_c, 0, 26, 95
1, 110746, Note_on_c, 0, 38, 98
1, 110760, Control_c, 0, 64, 83
1, 110775, Control_c, 0, 64, 65
1, 110789, Control_c, 0, 64, 0
1, 110952, Control_c, 0, 64, 64
1, 110967, Control_c, 0, 64, 74
1, 110982, Control_c, 0, 64, 84
1, 110996, Control_c, 0, 64, 91
1, 111019, Control_c, 0, 64, 94
1, 111034, Control_c, 0, 64, 95
1, 111049, Control_c, 0, 64, 97
1, 111064, Control_c, 0, 64, 101
1, 111078, Control_c, 0, 64, 106
1, 111093, Control_c, 0, 64, 109
1, 111108, Control_c, 0, 64, 111
1, 111122, Control_c, 0, 64, 112
1, 111137, Control_c, 0, 64, 113
1, 111152, Control_c, 0, 64, 115
1, 111167, Control_c, 0, 64, 118
1, 111182, Control_c, 0, 64, 121
1, 111196, Control_c, 0, 64, 123
1, 111202, Note_off_c, 0, 53, 47
1, 111211, Control_c, 0, 64, 123
1, 111226, Control_c, 0, 64, 124
1, 111241, Control_c, 0, 64, 124
1, 111256, Control_c, 0, 64, 125
1, 111270, Control_c, 0, 64, 126
1, 111344, Note_on_c, 0, 63, 95
1, 111349, Note_on_c, 0, 55, 88
1, 111349, Note_off_c, 0, 57, 64
1, 111895, Note_on_c, 0, 57, 88
1, 111895, Note_on_c, 0, 62, 91
1, 111904, Note_off_c, 0, 63, 67
1, 111924, Note_off_c, 0, 55, 64
1, 112125, Note_off_c, 0, 57, 59
1, 112406, Control_c, 0, 64, 124
1, 112421, Control_c, 0, 64, 118
1, 112435, Control_c, 0, 64, 111
1, 112441, Note_on_c, 0, 67, 92
1, 112442, Note_off_c, 0, 62, 59
1, 112447, Note_on_c, 0, 58, 88
1, 112450, Control_c, 0, 64, 102
1, 112465, Control_c, 0, 64, 92
1, 112480, Control_c, 0, 64, 81
1, 112495, Control_c, 0, 64, 73
1, 112517, Control_c, 0, 64, 66
1, 112532, Control_c, 0, 64, 62
1, 112547, Control_c, 0, 64, 61
1, 112561, Control_c, 0, 64, 63
1, 112576, Control_c, 0, 64, 66
1, 112591, Control_c, 0, 64, 70
1, 112606, Control_c, 0, 64, 75
1, 112621, Control_c, 0, 64, 80
1, 112635, Control_c, 0, 64, 85
1, 112650, Control_c, 0, 64, 89
1, 112665, Control_c, 0, 64, 92
1, 112680, Control_c, 0, 64, 96
1, 112694, Control_c, 0, 64, 99
1, 112706, Note_off_c, 0, 58, 64
1, 112709, Control_c, 0, 64, 102
1, 112724, Control_c, 0, 64, 104
1, 112739, Control_c, 0, 64, 106
1, 112754, Control_c, 0, 64, 107
1, 112769, Control_c, 0, 64, 109
1, 112784, Control_c, 0, 64, 112
1, 112799, Control_c, 0, 64, 115
1, 112814, Control_c, 0, 64, 117
1, 112829, Control_c, 0, 64, 117
1, 112843, Control_c, 0, 64, 118
1, 112858, Control_c, 0, 64, 121
1, 112873, Control_c, 0, 64, 125
1, 112887, Control_c, 0, 64, 127
1, 112900, Note_off_c, 0, 67, 46
1, 113031, Note_on_c, 0, 65, 89
1, 113037, Note_on_c, 0, 60, 80
1, 113037, Control_c, 0, 64, 125
1, 113052, Control_c, 0, 64, 106
1, 113066, Control_c, 0, 64, 96
1, 113081, Control_c, 0, 64, 87
1, 113096, Control_c, 0, 64, 80
1, 113110, Control_c, 0, 64, 76
1, 113125, Control_c, 0, 64, 76
1, 113140, Control_c, 0, 64, 77
1, 113155, Control_c, 0, 64, 81
1, 113170, Control_c, 0, 64, 88
1, 113184, Control_c, 0, 64, 93
1, 113199, Control_c, 0, 64, 97
1, 113214, Control_c, 0, 64, 100
1, 113229, Control_c, 0, 64, 103
1, 113244, Control_c, 0, 64, 106
1, 113266, Control_c, 0, 64, 110
1, 113281, Control_c, 0, 64, 113
1, 113296, Control_c, 0, 64, 116
1, 113310, Control_c, 0, 64, 119
1, 113324, Note_on_c, 0, 67, 98
1, 113325, Control_c, 0, 64, 125
1, 113340, Control_c, 0, 64, 127
1, 113350, Note_off_c, 0, 60, 61
1, 113595, Note_on_c, 0, 69, 99
1, 113601, Note_on_c, 0, 62, 97
1, 113630, Note_off_c, 0, 65, 64
1, 113638, Note_off_c, 0, 67, 58
1, 113714, Note_off_c, 0, 26, 57
1, 113763, Note_off_c, 0, 38, 58
1, 113879, Note_on_c, 0, 72, 98
1, 113901, Note_off_c, 0, 69, 66
1, 114177, Note_off_c, 0, 72, 0
1, 114189, Note_on_c, 0, 70, 96
1, 114192, Note_on_c, 0, 63, 97
1, 114201, Note_on_c, 0, 26, 91
1, 114203, Note_on_c, 0, 38, 96
1, 114214, Poly_aftertouch_c, 0, 72, 127
1, 114233, Note_off_c, 0, 62, 61
1, 114237, Control_c, 0, 64, 89
1, 114250, Poly_aftertouch_c, 0, 72, 0
1, 114251, Control_c, 0, 64, 63
1, 114265, Control_c, 0, 64, 0
1, 114840, Note_on_c, 0, 62, 76
1, 114843, Note_off_c, 0, 63, 64
1, 114985, Control_c, 0, 64, 20
1, 115000, Control_c, 0, 64, 45
1, 115015, Control_c, 0, 64, 54
1, 115030, Control_c, 0, 64, 59
1, 115044, Control_c, 0, 64, 61
1, 115059, Control_c, 0, 64, 62
1, 115088, Control_c, 0, 64, 62
1, 115118, Control_c, 0, 64, 63
1, 115133, Control_c, 0, 64, 64
1, 115144, Note_on_c, 0, 69, 82
1, 115148, Control_c, 0, 64, 66
1, 115163, Control_c, 0, 64, 69
1, 115178, Control_c, 0, 64, 73
1, 115179, Note_off_c, 0, 70, 60
1, 115192, Control_c, 0, 64, 76
1, 115207, Control_c, 0, 64, 79
1, 115222, Control_c, 0, 64, 83
1, 115237, Control_c, 0, 64, 86
1, 115252, Control_c, 0, 64, 90
1, 115267, Control_c, 0, 64, 93
1, 115281, Control_c, 0, 64, 95
1, 115296, Control_c, 0, 64, 97
1, 115311, Control_c, 0, 64, 98
1, 115327, Control_c, 0, 64, 98
1, 115371, Control_c, 0, 64, 99
1, 115418, Note_on_c, 0, 70, 85
1, 115460, Note_off_c, 0, 69, 64
1, 115686, Note_on_c, 0, 74, 81
1, 115728, Note_off_c, 0, 70, 60
1, 115824, Control_c, 0, 64, 98
1, 115854, Control_c, 0, 64, 98
1, 115912, Control_c, 0, 64, 97
1, 115942, Control_c, 0, 64, 97
1, 115957, Control_c, 0, 64, 96
1, 115972, Control_c, 0, 64, 94
1, 115986, Control_c, 0, 64, 90
1, 115995, Note_on_c, 0, 69, 80
1, 115997, Note_on_c, 0, 65, 76
1, 116001, Control_c, 0, 64, 84
1, 116016, Control_c, 0, 64, 75
1, 116025, Note_off_c, 0, 62, 59
1, 116030, Control_c, 0, 64, 67
1, 116045, Control_c, 0, 64, 54
1, 116060, Control_c, 0, 64, 0
1, 116066, Note_off_c, 0, 74, 61
1, 116306, Control_c, 0, 64, 49
1, 116321, Control_c, 0, 64, 58
1, 116335, Control_c, 0, 64, 62
1, 116350, Control_c, 0, 64, 64
1, 116365, Control_c, 0, 64, 65
1, 116380, Control_c, 0, 64, 66
1, 116395, Control_c, 0, 64, 67
1, 116409, Control_c, 0, 64, 68
1, 116424, Control_c, 0, 64, 69
1, 116439, Control_c, 0, 64, 70
1, 116454, Control_c, 0, 64, 71
1, 116469, Control_c, 0, 64, 71
1, 116498, Control_c, 0, 64, 72
1, 116543, Control_c, 0, 64, 72
1, 116602, Control_c, 0, 64, 73
1, 116605, Note_on_c, 0, 62, 67
1, 116632, Control_c, 0, 64, 73
1, 116647, Control_c, 0, 64, 74
1, 116648, Note_off_c, 0, 65, 62
1, 116661, Control_c, 0, 64, 74
1, 116676, Control_c, 0, 64, 75
1, 116691, Control_c, 0, 64, 75
1, 116706, Control_c, 0, 64, 76
1, 116721, Control_c, 0, 64, 76
1, 116735, Control_c, 0, 64, 77
1, 116750, Control_c, 0, 64, 78
1, 116765, Control_c, 0, 64, 80
1, 116780, Control_c, 0, 64, 81
1, 116795, Control_c, 0, 64, 82
1, 116809, Control_c, 0, 64, 83
1, 116824, Control_c, 0, 64, 83
1, 116839, Control_c, 0, 64, 84
1, 116853, Control_c, 0, 64, 84
1, 116868, Control_c, 0, 64, 85
1, 116890, Note_on_c, 0, 67, 60
1, 116898, Control_c, 0, 64, 85
1, 116913, Control_c, 0, 64, 86
1, 116929, Control_c, 0, 64, 87
1, 116944, Control_c, 0, 64, 88
1, 116958, Control_c, 0, 64, 88
1, 116964, Note_off_c, 0, 69, 59
1, 116973, Control_c, 0, 64, 89
1, 116988, Control_c, 0, 64, 90
1, 117011, Control_c, 0, 64, 90
1, 117026, Control_c, 0, 64, 91
1, 117040, Control_c, 0, 64, 92
1, 117055, Control_c, 0, 64, 93
1, 117070, Control_c, 0, 64, 93
1, 117084, Control_c, 0, 64, 94
1, 117099, Control_c, 0, 64, 94
1, 117143, Note_on_c, 0, 69, 68
1, 117144, Control_c, 0, 64, 95
1, 117188, Control_c, 0, 64, 95
1, 117203, Control_c, 0, 64, 96
1, 117231, Note_off_c, 0, 67, 63
1, 117232, Control_c, 0, 64, 96
1, 117406, Note_on_c, 0, 74, 67
1, 117446, Note_off_c, 0, 69, 66
1, 117714, Note_on_c, 0, 70, 79
1, 117722, Control_c, 0, 64, 95
1, 117734, Note_on_c, 0, 63, 62
1, 117737, Control_c, 0, 64, 93
1, 117759, Control_c, 0, 64, 91
1, 117774, Control_c, 0, 64, 88
1, 117789, Control_c, 0, 64, 84
1, 117804, Control_c, 0, 64, 79
1, 117819, Control_c, 0, 64, 75
1, 117834, Control_c, 0, 64, 71
1, 117848, Control_c, 0, 64, 68
1, 117851, Note_off_c, 0, 62, 53
1, 117863, Control_c, 0, 64, 66
1, 117872, Note_off_c, 0, 74, 49
1, 117878, Control_c, 0, 64, 65
1, 117893, Control_c, 0, 64, 64
1, 117907, Control_c, 0, 64, 64
1, 117922, Control_c, 0, 64, 63
1, 117937, Control_c, 0, 64, 62
1, 117952, Control_c, 0, 64, 61
1, 117967, Control_c, 0, 64, 59
1, 117981, Control_c, 0, 64, 58
1, 117995, Control_c, 0, 64, 58
1, 118010, Control_c, 0, 64, 57
1, 118025, Control_c, 0, 64, 57
1, 118040, Control_c, 0, 64, 56
1, 118054, Control_c, 0, 64, 56
1, 118084, Control_c, 0, 64, 56
1, 118099, Control_c, 0, 64, 57
1, 118114, Control_c, 0, 64, 57
1, 118129, Control_c, 0, 64, 58
1, 118144, Control_c, 0, 64, 58
1, 118173, Control_c, 0, 64, 59
1, 118188, Control_c, 0, 64, 59
1, 118218, Control_c, 0, 64, 60
1, 118233, Control_c, 0, 64, 60
1, 118262, Control_c, 0, 64, 61
1, 118277, Control_c, 0, 64, 61
1, 118292, Control_c, 0, 64, 62
1, 118327, Note_on_c, 0, 62, 49
1, 118351, Control_c, 0, 64, 62
1, 118366, Control_c, 0, 64, 63
1, 118380, Control_c, 0, 64, 63
1, 118385, Note_off_c, 0, 63, 63
1, 118395, Control_c, 0, 64, 64
1, 118410, Control_c, 0, 64, 64
1, 118424, Control_c, 0, 64, 65
1, 118439, Control_c, 0, 64, 65
1, 118454, Control_c, 0, 64, 66
1, 118484, Control_c, 0, 64, 66
1, 118506, Control_c, 0, 64, 67
1, 118521, Control_c, 0, 64, 67
1, 118552, Control_c, 0, 64, 68
1, 118567, Control_c, 0, 64, 68
1, 118611, Control_c, 0, 64, 69
1, 118623, Note_on_c, 0, 69, 56
1, 118626, Control_c, 0, 64, 69
1, 118656, Control_c, 0, 64, 70
1, 118671, Control_c, 0, 64, 70
1, 118673, Note_off_c, 0, 70, 57
1, 118685, Control_c, 0, 64, 71
1, 118700, Control_c, 0, 64, 72
1, 118715, Control_c, 0, 64, 72
1, 118729, Control_c, 0, 64, 73
1, 118745, Control_c, 0, 64, 74
1, 118760, Control_c, 0, 64, 76
1, 118775, Control_c, 0, 64, 77
1, 118790, Control_c, 0, 64, 78
1, 118804, Control_c, 0, 64, 79
1, 118819, Control_c, 0, 64, 80
1, 118834, Control_c, 0, 64, 81
1, 118849, Control_c, 0, 64, 82
1, 118864, Control_c, 0, 64, 83
1, 118878, Control_c, 0, 64, 84
1, 118893, Control_c, 0, 64, 84
1, 118908, Control_c, 0, 64, 85
1, 118924, Note_on_c, 0, 70, 66
1, 118937, Control_c, 0, 64, 85
1, 118952, Control_c, 0, 64, 86
1, 118963, Note_off_c, 0, 69, 62
1, 118967, Control_c, 0, 64, 86
1, 118982, Control_c, 0, 64, 87
1, 119026, Control_c, 0, 64, 87
1, 119085, Control_c, 0, 64, 88
1, 119194, Note_on_c, 0, 74, 61
1, 119214, Note_off_c, 0, 70, 61
1, 119524, Control_c, 0, 64, 87
1, 119533, Note_on_c, 0, 70, 66
1, 119539, Control_c, 0, 64, 86
1, 119545, Note_on_c, 0, 65, 55
1, 119553, Control_c, 0, 64, 83
1, 119568, Control_c, 0, 64, 79
1, 119580, Note_off_c, 0, 74, 58
1, 119583, Control_c, 0, 64, 74
1, 119598, Control_c, 0, 64, 70
1, 119613, Control_c, 0, 64, 66
1, 119618, Note_off_c, 0, 62, 53
1, 119627, Control_c, 0, 64, 63
1, 119642, Control_c, 0, 64, 62
1, 119657, Control_c, 0, 64, 62
1, 119672, Control_c, 0, 64, 61
1, 119686, Control_c, 0, 64, 60
1, 119701, Control_c, 0, 64, 58
1, 119716, Control_c, 0, 64, 56
1, 119731, Control_c, 0, 64, 55
1, 119745, Control_c, 0, 64, 54
1, 119760, Control_c, 0, 64, 54
1, 119775, Control_c, 0, 64, 52
1, 119790, Control_c, 0, 64, 50
1, 119805, Control_c, 0, 64, 50
1, 119834, Control_c, 0, 64, 50
1, 119893, Control_c, 0, 64, 51
1, 119908, Control_c, 0, 64, 51
1, 119923, Control_c, 0, 64, 52
1, 119938, Control_c, 0, 64, 52
1, 119968, Control_c, 0, 64, 53
1, 119983, Control_c, 0, 64, 54
1, 120005, Control_c, 0, 64, 54
1, 120020, Control_c, 0, 64, 55
1, 120049, Control_c, 0, 64, 55
1, 120078, Control_c, 0, 64, 56
1, 120093, Control_c, 0, 64, 56
1, 120123, Control_c, 0, 64, 57
1, 120139, Control_c, 0, 64, 57
1, 120198, Control_c, 0, 64, 58
1, 120218, Note_on_c, 0, 62, 40
1, 120256, Control_c, 0, 64, 58
1, 120290, Note_off_c, 0, 65, 58
1, 120345, Control_c, 0, 64, 59
1, 120419, Control_c, 0, 64, 59
1, 120448, Control_c, 0, 64, 60
1, 120537, Control_c, 0, 64, 60
1, 120557, Note_on_c, 0, 69, 45
1, 120612, Control_c, 0, 64, 60
1, 120615, Note_off_c, 0, 70, 56
1, 120730, Control_c, 0, 64, 59
1, 120874, Note_on_c, 0, 70, 55
1, 120915, Note_off_c, 0, 69, 58
1, 121094, Control_c, 0, 64, 59
1, 121153, Control_c, 0, 64, 59
1, 121225, Note_on_c, 0, 69, 55
1, 121260, Note_off_c, 0, 70, 59
1, 121590, Control_c, 0, 64, 60
1, 121634, Control_c, 0, 64, 60
1, 121679, Control_c, 0, 64, 60
1, 121694, Control_c, 0, 64, 59
1, 121709, Control_c, 0, 64, 55
1, 121712, Note_on_c, 0, 68, 53
1, 121718, Note_off_c, 0, 26, 56
1, 121719, Note_on_c, 0, 63, 43
1, 121724, Control_c, 0, 64, 38
1, 121740, Control_c, 0, 64, 0
1, 121743, Note_off_c, 0, 38, 58
1, 121750, Note_off_c, 0, 62, 39
1, 121777, Note_off_c, 0, 69, 55
1, 122847, Note_on_c, 0, 62, 34
1, 122861, Note_off_c, 0, 63, 57
1, 123044, Control_c, 0, 64, 23
1, 123059, Control_c, 0, 64, 54
1, 123074, Control_c, 0, 64, 60
1, 123089, Control_c, 0, 64, 61
1, 123133, Control_c, 0, 64, 61
1, 123163, Control_c, 0, 64, 61
1, 123177, Note_on_c, 0, 43, 33
1, 123177, Control_c, 0, 64, 60
1, 123178, Note_on_c, 0, 63, 43
1, 123192, Control_c, 0, 64, 58
1, 123196, Note_on_c, 0, 31, 31
1, 123207, Control_c, 0, 64, 56
1, 123221, Control_c, 0, 64, 54
1, 123236, Control_c, 0, 64, 53
1, 123261, Note_off_c, 0, 62, 45
1, 123266, Control_c, 0, 64, 53
1, 123281, Control_c, 0, 64, 54
1, 123295, Control_c, 0, 64, 56
1, 123310, Control_c, 0, 64, 59
1, 123326, Control_c, 0, 64, 62
1, 123341, Control_c, 0, 64, 65
1, 123356, Control_c, 0, 64, 67
1, 123371, Control_c, 0, 64, 69
1, 123386, Control_c, 0, 64, 71
1, 123400, Control_c, 0, 64, 73
1, 123415, Control_c, 0, 64, 76
1, 123430, Control_c, 0, 64, 78
1, 123432, Note_off_c, 0, 31, 57
1, 123444, Control_c, 0, 64, 80
1, 123459, Control_c, 0, 64, 81
1, 123474, Control_c, 0, 64, 83
1, 123480, Note_off_c, 0, 43, 54
1, 123485, Note_on_c, 0, 65, 48
1, 123489, Control_c, 0, 64, 83
1, 123504, Control_c, 0, 64, 84
1, 123518, Control_c, 0, 64, 85
1, 123528, Note_off_c, 0, 63, 65
1, 123533, Control_c, 0, 64, 86
1, 123548, Control_c, 0, 64, 87
1, 123563, Control_c, 0, 64, 88
1, 123578, Control_c, 0, 64, 88
1, 123608, Control_c, 0, 64, 89
1, 123622, Control_c, 0, 64, 89
1, 123652, Control_c, 0, 64, 90
1, 123726, Control_c, 0, 64, 89
1, 123748, Control_c, 0, 64, 87
1, 123763, Control_c, 0, 64, 84
1, 123778, Control_c, 0, 64, 77
1, 123780, Note_on_c, 0, 63, 50
1, 123790, Note_on_c, 0, 48, 45
1, 123793, Control_c, 0, 64, 69
1, 123801, Note_on_c, 0, 36, 41
1, 123807, Control_c, 0, 64, 60
1, 123822, Control_c, 0, 64, 36
1, 123827, Note_off_c, 0, 65, 62
1, 123837, Control_c, 0, 64, 13
1, 123852, Control_c, 0, 64, 0
1, 123912, Control_c, 0, 64, 18
1, 123926, Control_c, 0, 64, 41
1, 123941, Control_c, 0, 64, 58
1, 123956, Control_c, 0, 64, 65
1, 123971, Control_c, 0, 64, 69
1, 123986, Control_c, 0, 64, 73
1, 124000, Control_c, 0, 64, 76
1, 124015, Control_c, 0, 64, 79
1, 124030, Control_c, 0, 64, 81
1, 124044, Control_c, 0, 64, 83
1, 124059, Control_c, 0, 64, 86
1, 124074, Control_c, 0, 64, 87
1, 124089, Control_c, 0, 64, 88
1, 124102, Note_off_c, 0, 48, 41
1, 124104, Control_c, 0, 64, 89
1, 124111, Note_off_c, 0, 36, 40
1, 124120, Control_c, 0, 64, 90
1, 124135, Control_c, 0, 64, 91
1, 124149, Control_c, 0, 64, 92
1, 124164, Control_c, 0, 64, 92
1, 124179, Control_c, 0, 64, 93
1, 124267, Control_c, 0, 64, 90
1, 124282, Control_c, 0, 64, 86
1, 124297, Control_c, 0, 64, 80
1, 124307, Note_on_c, 0, 48, 53
1, 124312, Control_c, 0, 64, 73
1, 124315, Note_on_c, 0, 36, 45
1, 124327, Control_c, 0, 64, 66
1, 124341, Control_c, 0, 64, 61
1, 124356, Control_c, 0, 64, 60
1, 124371, Control_c, 0, 64, 62
1, 124386, Control_c, 0, 64, 63
1, 124401, Control_c, 0, 64, 64
1, 124415, Control_c, 0, 64, 65
1, 124430, Control_c, 0, 64, 67
1, 124445, Control_c, 0, 64, 70
1, 124460, Control_c, 0, 64, 74
1, 124475, Control_c, 0, 64, 77
1, 124497, Control_c, 0, 64, 78
1, 124512, Control_c, 0, 64, 79
1, 124527, Control_c, 0, 64, 80
1, 124541, Control_c, 0, 64, 82
1, 124556, Control_c, 0, 64, 83
1, 124560, Note_off_c, 0, 48, 56
1, 124571, Control_c, 0, 64, 84
1, 124582, Note_on_c, 0, 67, 57
1, 124586, Control_c, 0, 64, 85
1, 124601, Control_c, 0, 64, 85
1, 124615, Control_c, 0, 64, 86
1, 124617, Note_off_c, 0, 36, 63
1, 124619, Note_off_c, 0, 68, 56
1, 124630, Control_c, 0, 64, 86
1, 124645, Control_c, 0, 64, 87
1, 124660, Control_c, 0, 64, 87
1, 124734, Control_c, 0, 64, 88
1, 124808, Control_c, 0, 64, 87
1, 124822, Control_c, 0, 64, 83
1, 124831, Note_on_c, 0, 43, 57
1, 124837, Control_c, 0, 64, 77
1, 124842, Note_on_c, 0, 31, 53
1, 124844, Note_on_c, 0, 68, 59
1, 124852, Control_c, 0, 64, 70
1, 124866, Control_c, 0, 64, 61
1, 124881, Control_c, 0, 64, 32
1, 124896, Control_c, 0, 64, 0
1, 124907, Note_off_c, 0, 67, 56
1, 125001, Control_c, 0, 64, 61
1, 125016, Control_c, 0, 64, 69
1, 125031, Control_c, 0, 64, 75
1, 125045, Control_c, 0, 64, 81
1, 125060, Control_c, 0, 64, 84
1, 125075, Control_c, 0, 64, 85
1, 125089, Note_off_c, 0, 31, 62
1, 125089, Control_c, 0, 64, 86
1, 125104, Control_c, 0, 64, 87
1, 125110, Note_on_c, 0, 70, 60
1, 125119, Control_c, 0, 64, 88
1, 125127, Note_off_c, 0, 43, 60
1, 125134, Control_c, 0, 64, 89
1, 125149, Control_c, 0, 64, 89
1, 125164, Control_c, 0, 64, 90
1, 125166, Note_off_c, 0, 68, 56
1, 125178, Control_c, 0, 64, 90
1, 125193, Control_c, 0, 64, 91
1, 125378, Control_c, 0, 64, 89
1, 125393, Control_c, 0, 64, 85
1, 125408, Control_c, 0, 64, 80
1, 125412, Note_on_c, 0, 68, 60
1, 125418, Note_on_c, 0, 36, 48
1, 125422, Note_on_c, 0, 48, 51
1, 125423, Control_c, 0, 64, 73
1, 125438, Control_c, 0, 64, 65
1, 125453, Control_c, 0, 64, 45
1, 125464, Note_off_c, 0, 70, 55
1, 125468, Control_c, 0, 64, 0
1, 125781, Control_c, 0, 64, 55
1, 125795, Control_c, 0, 64, 65
1, 125810, Control_c, 0, 64, 69
1, 125825, Control_c, 0, 64, 72
1, 125840, Control_c, 0, 64, 75
1, 125855, Control_c, 0, 64, 78
1, 125869, Control_c, 0, 64, 82
1, 125884, Control_c, 0, 64, 84
1, 125899, Control_c, 0, 64, 86
1, 125913, Control_c, 0, 64, 88
1, 125928, Control_c, 0, 64, 90
1, 125943, Control_c, 0, 64, 93
1, 125958, Control_c, 0, 64, 95
1, 125973, Control_c, 0, 64, 97
1, 125995, Control_c, 0, 64, 99
1, 126010, Control_c, 0, 64, 100
1, 126021, Note_off_c, 0, 36, 41
1, 126025, Control_c, 0, 64, 102
1, 126040, Control_c, 0, 64, 103
1, 126054, Control_c, 0, 64, 106
1, 126069, Control_c, 0, 64, 108
1, 126084, Control_c, 0, 64, 110
1, 126088, Note_off_c, 0, 48, 60
1, 126099, Control_c, 0, 64, 112
1, 126114, Control_c, 0, 64, 114
1, 126128, Control_c, 0, 64, 117
1, 126143, Control_c, 0, 64, 120
1, 126158, Control_c, 0, 64, 124
1, 126173, Control_c, 0, 64, 127
1, 126350, Control_c, 0, 64, 127
1, 126365, Control_c, 0, 64, 104
1, 126380, Control_c, 0, 64, 89
1, 126395, Control_c, 0, 64, 75
1, 126406, Note_on_c, 0, 46, 60
1, 126410, Control_c, 0, 64, 62
1, 126415, Note_on_c, 0, 34, 55
1, 126424, Control_c, 0, 64, 0
1, 126484, Control_c, 0, 64, 50
1, 126499, Control_c, 0, 64, 66
1, 126514, Control_c, 0, 64, 72
1, 126529, Control_c, 0, 64, 78
1, 126544, Control_c, 0, 64, 87
1, 126559, Control_c, 0, 64, 93
1, 126574, Control_c, 0, 64, 97
1, 126579, Note_off_c, 0, 34, 65
1, 126588, Control_c, 0, 64, 100
1, 126589, Note_off_c, 0, 46, 63
1, 126603, Control_c, 0, 64, 102
1, 126648, Control_c, 0, 64, 101
1, 126662, Control_c, 0, 64, 94
1, 126674, Note_on_c, 0, 36, 70
1, 126675, Note_on_c, 0, 48, 71
1, 126677, Control_c, 0, 64, 84
1, 126692, Control_c, 0, 64, 73
1, 126707, Control_c, 0, 64, 65
1, 126722, Control_c, 0, 64, 59
1, 126743, Control_c, 0, 64, 60
1, 126758, Control_c, 0, 64, 64
1, 126773, Control_c, 0, 64, 68
1, 126788, Note_off_c, 0, 63, 64
1, 126788, Control_c, 0, 64, 74
1, 126803, Control_c, 0, 64, 79
1, 126812, Note_off_c, 0, 68, 52
1, 126818, Control_c, 0, 64, 81
1, 126822, Note_off_c, 0, 48, 65
1, 126833, Control_c, 0, 64, 83
1, 126848, Control_c, 0, 64, 84
1, 126863, Control_c, 0, 64, 86
1, 126877, Control_c, 0, 64, 88
1, 126892, Control_c, 0, 64, 89
1, 126907, Control_c, 0, 64, 89
1, 126996, Control_c, 0, 64, 89
1, 127011, Control_c, 0, 64, 88
1, 127025, Control_c, 0, 64, 84
1, 127040, Control_c, 0, 64, 80
1, 127055, Control_c, 0, 64, 74
1, 127059, Note_on_c, 0, 68, 72
1, 127065, Note_on_c, 0, 49, 61
1, 127069, Control_c, 0, 64, 67
1, 127071, Note_on_c, 0, 37, 57
1, 127072, Note_on_c, 0, 65, 58
1, 127084, Control_c, 0, 64, 61
1, 127099, Control_c, 0, 64, 43
1, 127114, Control_c, 0, 64, 0
1, 127128, Note_off_c, 0, 36, 37
1, 127337, Control_c, 0, 64, 54
1, 127352, Control_c, 0, 64, 67
1, 127366, Control_c, 0, 64, 73
1, 127381, Control_c, 0, 64, 78
1, 127396, Control_c, 0, 64, 81
1, 127411, Control_c, 0, 64, 83
1, 127426, Control_c, 0, 64, 86
1, 127437, Note_off_c, 0, 49, 54
1, 127441, Note_off_c, 0, 37, 57
1, 127441, Control_c, 0, 64, 88
1, 127456, Control_c, 0, 64, 90
1, 127471, Control_c, 0, 64, 91
1, 127492, Control_c, 0, 64, 91
1, 127566, Control_c, 0, 64, 90
1, 127577, Note_on_c, 0, 49, 62
1, 127581, Control_c, 0, 64, 86
1, 127590, Note_on_c, 0, 37, 60
1, 127596, Control_c, 0, 64, 79
1, 127611, Control_c, 0, 64, 71
1, 127626, Control_c, 0, 64, 63
1, 127641, Control_c, 0, 64, 51
1, 127670, Control_c, 0, 64, 56
1, 127685, Control_c, 0, 64, 61
1, 127700, Control_c, 0, 64, 64
1, 127715, Control_c, 0, 64, 65
1, 127730, Control_c, 0, 64, 68
1, 127745, Control_c, 0, 64, 71
1, 127760, Control_c, 0, 64, 75
1, 127774, Control_c, 0, 64, 78
1, 127789, Control_c, 0, 64, 80
1, 127793, Note_off_c, 0, 49, 62
1, 127804, Control_c, 0, 64, 82
1, 127818, Control_c, 0, 64, 84
1, 127833, Control_c, 0, 64, 85
1, 127846, Note_on_c, 0, 67, 55
1, 127848, Control_c, 0, 64, 87
1, 127863, Control_c, 0, 64, 88
1, 127877, Note_off_c, 0, 68, 63
1, 127878, Control_c, 0, 64, 89
1, 127892, Control_c, 0, 64, 89
1, 127922, Control_c, 0, 64, 90
1, 127937, Control_c, 0, 64, 90
1, 128068, Note_off_c, 0, 37, 37
1, 128100, Control_c, 0, 64, 89
1, 128115, Control_c, 0, 64, 85
1, 128130, Control_c, 0, 64, 80
1, 128131, Note_on_c, 0, 43, 46
1, 128137, Note_on_c, 0, 31, 50
1, 128145, Control_c, 0, 64, 72
1, 128160, Control_c, 0, 64, 64
1, 128175, Control_c, 0, 64, 40
1, 128189, Control_c, 0, 64, 16
1, 128204, Control_c, 0, 64, 0
1, 128301, Control_c, 0, 64, 56
1, 128315, Control_c, 0, 64, 67
1, 128330, Control_c, 0, 64, 73
1, 128345, Control_c, 0, 64, 79
1, 128360, Control_c, 0, 64, 83
1, 128368, Note_off_c, 0, 31, 56
1, 128375, Control_c, 0, 64, 85
1, 128389, Control_c, 0, 64, 87
1, 128404, Control_c, 0, 64, 88
1, 128418, Note_off_c, 0, 43, 52
1, 128419, Control_c, 0, 64, 89
1, 128434, Control_c, 0, 64, 90
1, 128449, Control_c, 0, 64, 91
1, 128478, Control_c, 0, 64, 92
1, 128508, Control_c, 0, 64, 92
1, 128656, Control_c, 0, 64, 90
1, 128671, Control_c, 0, 64, 86
1, 128686, Control_c, 0, 64, 80
1, 128696, Note_on_c, 0, 48, 51
1, 128701, Control_c, 0, 64, 72
1, 128702, Note_on_c, 0, 36, 46
1, 128715, Control_c, 0, 64, 64
1, 128730, Control_c, 0, 64, 46
1, 128745, Control_c, 0, 64, 34
1, 128789, Control_c, 0, 64, 33
1, 128804, Control_c, 0, 64, 27
1, 128819, Control_c, 0, 64, 24
1, 128909, Control_c, 0, 64, 25
1, 128924, Control_c, 0, 64, 29
1, 128938, Control_c, 0, 64, 37
1, 128953, Control_c, 0, 64, 44
1, 128968, Control_c, 0, 64, 50
1, 128991, Control_c, 0, 64, 55
1, 129006, Control_c, 0, 64, 59
1, 129020, Control_c, 0, 64, 62
1, 129035, Control_c, 0, 64, 64
1, 129050, Control_c, 0, 64, 65
1, 129064, Control_c, 0, 64, 66
1, 129079, Control_c, 0, 64, 66
1, 129094, Control_c, 0, 64, 67
1, 129109, Control_c, 0, 64, 68
1, 129124, Control_c, 0, 64, 69
1, 129138, Control_c, 0, 64, 70
1, 129153, Control_c, 0, 64, 71
1, 129227, Control_c, 0, 64, 70
1, 129242, Control_c, 0, 64, 69
1, 129252, Note_on_c, 0, 63, 46
1, 129256, Control_c, 0, 64, 66
1, 129271, Control_c, 0, 64, 63
1, 129283, Note_off_c, 0, 65, 55
1, 129286, Control_c, 0, 64, 56
1, 129301, Control_c, 0, 64, 47
1, 129316, Control_c, 0, 64, 30
1, 129331, Control_c, 0, 64, 20
1, 129346, Control_c, 0, 64, 21
1, 129361, Control_c, 0, 64, 30
1, 129376, Control_c, 0, 64, 45
1, 129390, Control_c, 0, 64, 59
1, 129405, Control_c, 0, 64, 66
1, 129420, Control_c, 0, 64, 70
1, 129435, Control_c, 0, 64, 74
1, 129450, Control_c, 0, 64, 78
1, 129464, Control_c, 0, 64, 80
1, 129479, Control_c, 0, 64, 82
1, 129484, Note_off_c, 0, 48, 65
1, 129494, Control_c, 0, 64, 83
1, 129509, Control_c, 0, 64, 85
1, 129524, Control_c, 0, 64, 86
1, 129538, Control_c, 0, 64, 88
1, 129543, Note_off_c, 0, 36, 55
1, 129553, Control_c, 0, 64, 88
1, 129568, Control_c, 0, 64, 89
1, 129582, Control_c, 0, 64, 89
1, 129597, Control_c, 0, 64, 90
1, 129612, Control_c, 0, 64, 92
1, 129627, Control_c, 0, 64, 92
1, 129642, Control_c, 0, 64, 93
1, 129671, Control_c, 0, 64, 94
1, 129701, Control_c, 0, 64, 94
1, 129784, Control_c, 0, 64, 94
1, 129799, Control_c, 0, 64, 90
1, 129814, Control_c, 0, 64, 84
1, 129829, Control_c, 0, 64, 75
1, 129842, Note_on_c, 0, 43, 48
1, 129843, Control_c, 0, 64, 66
1, 129850, Note_on_c, 0, 31, 38
1, 129858, Control_c, 0, 64, 52
1, 129873, Control_c, 0, 64, 13
1, 129887, Control_c, 0, 64, 0
1, 129932, Control_c, 0, 64, 28
1, 129947, Control_c, 0, 64, 42
1, 129961, Control_c, 0, 64, 55
1, 129976, Control_c, 0, 64, 63
1, 129991, Control_c, 0, 64, 68
1, 130006, Control_c, 0, 64, 73
1, 130021, Control_c, 0, 64, 78
1, 130035, Control_c, 0, 64, 81
1, 130050, Control_c, 0, 64, 83
1, 130065, Control_c, 0, 64, 85
1, 130070, Note_off_c, 0, 31, 57
1, 130079, Control_c, 0, 64, 86
1, 130093, Note_off_c, 0, 43, 60
1, 130094, Control_c, 0, 64, 88
1, 130109, Control_c, 0, 64, 89
1, 130124, Control_c, 0, 64, 90
1, 130139, Control_c, 0, 64, 90
1, 130154, Control_c, 0, 64, 91
1, 130168, Control_c, 0, 64, 92
1, 130183, Control_c, 0, 64, 92
1, 130198, Control_c, 0, 64, 93
1, 130213, Control_c, 0, 64, 93
1, 130347, Control_c, 0, 64, 91
1, 130361, Control_c, 0, 64, 86
1, 130376, Control_c, 0, 64, 79
1, 130382, Note_on_c, 0, 48, 51
1, 130389, Note_on_c, 0, 36, 45
1, 130391, Control_c, 0, 64, 71
1, 130405, Control_c, 0, 64, 63
1, 130420, Control_c, 0, 64, 52
1, 130435, Control_c, 0, 64, 49
1, 130450, Control_c, 0, 64, 51
1, 130465, Control_c, 0, 64, 53
1, 130487, Control_c, 0, 64, 54
1, 130502, Control_c, 0, 64, 56
1, 130517, Control_c, 0, 64, 59
1, 130532, Control_c, 0, 64, 63
1, 130547, Control_c, 0, 64, 66
1, 130562, Control_c, 0, 64, 70
1, 130577, Control_c, 0, 64, 73
1, 130592, Control_c, 0, 64, 76
1, 130607, Control_c, 0, 64, 78
1, 130622, Control_c, 0, 64, 81
1, 130636, Control_c, 0, 64, 83
1, 130651, Control_c, 0, 64, 85
1, 130666, Control_c, 0, 64, 87
1, 130681, Control_c, 0, 64, 89
1, 130696, Control_c, 0, 64, 90
1, 130700, Note_off_c, 0, 48, 59
1, 130710, Control_c, 0, 64, 90
1, 130725, Control_c, 0, 64, 91
1, 130740, Control_c, 0, 64, 92
1, 130749, Note_off_c, 0, 36, 41
1, 130770, Control_c, 0, 64, 92
1, 130799, Control_c, 0, 64, 93
1, 130814, Control_c, 0, 64, 93
1, 130829, Control_c, 0, 64, 94
1, 130917, Control_c, 0, 64, 93
1, 130932, Control_c, 0, 64, 91
1, 130947, Control_c, 0, 64, 85
1, 130955, Note_on_c, 0, 36, 50
1, 130957, Note_on_c, 0, 48, 55
1, 130962, Control_c, 0, 64, 78
1, 130976, Control_c, 0, 64, 71
1, 130991, Control_c, 0, 64, 66
1, 131006, Control_c, 0, 64, 63
1, 131021, Control_c, 0, 64, 64
1, 131036, Control_c, 0, 64, 65
1, 131051, Control_c, 0, 64, 67
1, 131066, Control_c, 0, 64, 69
1, 131081, Control_c, 0, 64, 72
1, 131096, Control_c, 0, 64, 75
1, 131110, Control_c, 0, 64, 78
1, 131125, Control_c, 0, 64, 80
1, 131140, Control_c, 0, 64, 82
1, 131155, Control_c, 0, 64, 83
1, 131170, Control_c, 0, 64, 85
1, 131184, Control_c, 0, 64, 86
1, 131185, Note_off_c, 0, 48, 64
1, 131199, Control_c, 0, 64, 87
1, 131214, Control_c, 0, 64, 88
1, 131236, Control_c, 0, 64, 88
1, 131245, Note_off_c, 0, 36, 63
1, 131251, Control_c, 0, 64, 89
1, 131265, Control_c, 0, 64, 90
1, 131280, Control_c, 0, 64, 91
1, 131295, Control_c, 0, 64, 91
1, 131326, Control_c, 0, 64, 92
1, 131340, Control_c, 0, 64, 92
1, 131355, Control_c, 0, 64, 93
1, 131370, Control_c, 0, 64, 93
1, 131444, Control_c, 0, 64, 94
1, 131519, Control_c, 0, 64, 93
1, 131533, Control_c, 0, 64, 91
1, 131535, Note_on_c, 0, 43, 56
1, 131542, Note_on_c, 0, 31, 62
1, 131548, Control_c, 0, 64, 87
1, 131563, Control_c, 0, 64, 82
1, 131578, Control_c, 0, 64, 75
1, 131593, Control_c, 0, 64, 69
1, 131607, Control_c, 0, 64, 64
1, 131622, Control_c, 0, 64, 62
1, 131637, Control_c, 0, 64, 63
1, 131652, Control_c, 0, 64, 64
1, 131666, Control_c, 0, 64, 65
1, 131681, Control_c, 0, 64, 65
1, 131696, Control_c, 0, 64, 67
1, 131711, Control_c, 0, 64, 70
1, 131726, Note_off_c, 0, 67, 62
1, 131726, Control_c, 0, 64, 75
1, 131740, Control_c, 0, 64, 78
1, 131755, Control_c, 0, 64, 81
1, 131770, Control_c, 0, 64, 83
1, 131785, Control_c, 0, 64, 85
1, 131800, Control_c, 0, 64, 88
1, 131814, Control_c, 0, 64, 90
1, 131829, Control_c, 0, 64, 92
1, 131844, Control_c, 0, 64, 93
1, 131853, Note_off_c, 0, 63, 61
1, 131859, Control_c, 0, 64, 93
1, 131862, Note_off_c, 0, 43, 52
1, 131868, Note_off_c, 0, 31, 59
1, 131874, Control_c, 0, 64, 94
1, 131903, Control_c, 0, 64, 94
1, 131918, Control_c, 0, 64, 95
1, 131933, Control_c, 0, 64, 95
1, 131999, Control_c, 0, 64, 96
1, 132029, Control_c, 0, 64, 96
1, 132104, Control_c, 0, 64, 97
1, 132193, Control_c, 0, 64, 95
1, 132204, Note_on_c, 0, 65, 69
1, 132208, Control_c, 0, 64, 92
1, 132214, Note_on_c, 0, 33, 63
1, 132215, Note_on_c, 0, 45, 63
1, 132221, Note_on_c, 0, 60, 62
1, 132224, Control_c, 0, 64, 88
1, 132238, Control_c, 0, 64, 82
1, 132253, Control_c, 0, 64, 76
1, 132268, Control_c, 0, 64, 71
1, 132282, Control_c, 0, 64, 66
1, 132297, Control_c, 0, 64, 64
1, 132312, Control_c, 0, 64, 64
1, 132327, Control_c, 0, 64, 63
1, 132342, Control_c, 0, 64, 63
1, 132356, Control_c, 0, 64, 62
1, 132371, Control_c, 0, 64, 60
1, 132386, Control_c, 0, 64, 58
1, 132401, Control_c, 0, 64, 57
1, 132416, Control_c, 0, 64, 57
1, 132431, Control_c, 0, 64, 56
1, 132446, Control_c, 0, 64, 55
1, 132461, Control_c, 0, 64, 54
1, 132520, Control_c, 0, 64, 55
1, 132535, Control_c, 0, 64, 56
1, 132550, Control_c, 0, 64, 57
1, 132564, Control_c, 0, 64, 59
1, 132579, Control_c, 0, 64, 62
1, 132594, Control_c, 0, 64, 64
1, 132608, Control_c, 0, 64, 66
1, 132623, Control_c, 0, 64, 67
1, 132638, Control_c, 0, 64, 68
1, 132653, Control_c, 0, 64, 70
1, 132668, Control_c, 0, 64, 72
1, 132682, Control_c, 0, 64, 75
1, 132697, Control_c, 0, 64, 78
1, 132712, Control_c, 0, 64, 80
1, 132735, Control_c, 0, 64, 81
1, 132750, Control_c, 0, 64, 82
1, 132764, Control_c, 0, 64, 84
1, 132779, Control_c, 0, 64, 86
1, 132794, Control_c, 0, 64, 88
1, 132808, Control_c, 0, 64, 89
1, 132823, Control_c, 0, 64, 90
1, 132853, Control_c, 0, 64, 91
1, 132868, Control_c, 0, 64, 92
1, 132882, Control_c, 0, 64, 93
1, 132897, Control_c, 0, 64, 94
1, 132902, Note_off_c, 0, 45, 63
1, 132913, Control_c, 0, 64, 94
1, 132985, Control_c, 0, 64, 95
1, 133237, Control_c, 0, 64, 94
1, 133252, Control_c, 0, 64, 92
1, 133267, Control_c, 0, 64, 88
1, 133272, Note_on_c, 0, 46, 70
1, 133281, Note_on_c, 0, 34, 64
1, 133282, Control_c, 0, 64, 83
1, 133297, Control_c, 0, 64, 78
1, 133311, Control_c, 0, 64, 72
1, 133320, Note_off_c, 0, 33, 63
1, 133326, Control_c, 0, 64, 67
1, 133341, Control_c, 0, 64, 62
1, 133356, Control_c, 0, 64, 59
1, 133371, Control_c, 0, 64, 58
1, 133385, Control_c, 0, 64, 57
1, 133400, Control_c, 0, 64, 55
1, 133415, Control_c, 0, 64, 52
1, 133430, Control_c, 0, 64, 47
1, 133445, Control_c, 0, 64, 46
1, 133459, Control_c, 0, 64, 47
1, 133482, Control_c, 0, 64, 49
1, 133497, Control_c, 0, 64, 52
1, 133511, Control_c, 0, 64, 56
1, 133526, Control_c, 0, 64, 64
1, 133541, Control_c, 0, 64, 69
1, 133556, Control_c, 0, 64, 75
1, 133571, Control_c, 0, 64, 81
1, 133575, Note_off_c, 0, 60, 60
1, 133585, Control_c, 0, 64, 85
1, 133600, Control_c, 0, 64, 88
1, 133612, Note_off_c, 0, 65, 63
1, 133615, Control_c, 0, 64, 91
1, 133629, Control_c, 0, 64, 95
1, 133644, Control_c, 0, 64, 97
1, 133659, Control_c, 0, 64, 99
1, 133674, Control_c, 0, 64, 101
1, 133689, Control_c, 0, 64, 102
1, 133705, Control_c, 0, 64, 103
1, 133720, Control_c, 0, 64, 104
1, 133725, Note_off_c, 0, 46, 52
1, 133734, Note_off_c, 0, 34, 50
1, 133734, Control_c, 0, 64, 104
1, 133749, Control_c, 0, 64, 105
1, 133779, Control_c, 0, 64, 105
1, 133883, Control_c, 0, 64, 105
1, 133898, Control_c, 0, 64, 102
1, 133907, Note_on_c, 0, 62, 77
1, 133908, Note_on_c, 0, 34, 70
1, 133909, Note_on_c, 0, 46, 71
1, 133911, Note_on_c, 0, 58, 69
1, 133913, Control_c, 0, 64, 97
1, 133918, Note_on_c, 0, 53, 66
1, 133927, Control_c, 0, 64, 91
1, 133942, Control_c, 0, 64, 85
1, 133957, Control_c, 0, 64, 79
1, 133972, Control_c, 0, 64, 73
1, 133987, Control_c, 0, 64, 68
1, 134001, Control_c, 0, 64, 65
1, 134016, Control_c, 0, 64, 64
1, 134031, Control_c, 0, 64, 63
1, 134046, Control_c, 0, 64, 62
1, 134060, Control_c, 0, 64, 61
1, 134075, Control_c, 0, 64, 60
1, 134090, Control_c, 0, 64, 58
1, 134105, Control_c, 0, 64, 57
1, 134120, Control_c, 0, 64, 56
1, 134134, Control_c, 0, 64, 56
1, 134149, Control_c, 0, 64, 55
1, 134179, Control_c, 0, 64, 55
1, 134208, Control_c, 0, 64, 55
1, 134231, Control_c, 0, 64, 56
1, 134246, Control_c, 0, 64, 56
1, 134260, Control_c, 0, 64, 57
1, 134275, Control_c, 0, 64, 58
1, 134290, Control_c, 0, 64, 59
1, 134305, Control_c, 0, 64, 61
1, 134320, Control_c, 0, 64, 63
1, 134334, Control_c, 0, 64, 64
1, 134349, Control_c, 0, 64, 66
1, 134364, Control_c, 0, 64, 67
1, 134378, Control_c, 0, 64, 69
1, 134393, Control_c, 0, 64, 72
1, 134408, Control_c, 0, 64, 75
1, 134423, Control_c, 0, 64, 77
1, 134438, Control_c, 0, 64, 79
1, 134452, Control_c, 0, 64, 82
1, 134467, Control_c, 0, 64, 85
1, 134482, Control_c, 0, 64, 89
1, 134497, Control_c, 0, 64, 92
1, 134513, Control_c, 0, 64, 94
1, 134528, Control_c, 0, 64, 96
1, 134543, Control_c, 0, 64, 98
1, 134557, Control_c, 0, 64, 100
1, 134572, Control_c, 0, 64, 102
1, 134587, Control_c, 0, 64, 104
1, 134602, Control_c, 0, 64, 105
1, 134617, Control_c, 0, 64, 105
1, 134631, Control_c, 0, 64, 106
1, 134646, Control_c, 0, 64, 107
1, 134661, Control_c, 0, 64, 107
1, 134676, Control_c, 0, 64, 108
1, 134691, Control_c, 0, 64, 109
1, 134691, Note_off_c, 0, 46, 34
1, 134720, Control_c, 0, 64, 109
1, 134735, Control_c, 0, 64, 110
1, 134750, Control_c, 0, 64, 110
1, 134765, Control_c, 0, 64, 111
1, 134780, Control_c, 0, 64, 111
1, 135128, Control_c, 0, 64, 108
1, 135143, Control_c, 0, 64, 103
1, 135153, Note_on_c, 0, 33, 70
1, 135157, Control_c, 0, 64, 95
1, 135158, Note_on_c, 0, 45, 67
1, 135172, Control_c, 0, 64, 87
1, 135187, Control_c, 0, 64, 80
1, 135192, Note_off_c, 0, 34, 43
1, 135201, Control_c, 0, 64, 73
1, 135216, Control_c, 0, 64, 68
1, 135231, Control_c, 0, 64, 65
1, 135246, Control_c, 0, 64, 64
1, 135261, Control_c, 0, 64, 63
1, 135275, Control_c, 0, 64, 64
1, 135306, Control_c, 0, 64, 65
1, 135321, Control_c, 0, 64, 68
1, 135336, Control_c, 0, 64, 74
1, 135351, Control_c, 0, 64, 83
1, 135353, Note_off_c, 0, 53, 61
1, 135366, Control_c, 0, 64, 89
1, 135380, Control_c, 0, 64, 93
1, 135395, Control_c, 0, 64, 96
1, 135405, Note_off_c, 0, 45, 63
1, 135410, Control_c, 0, 64, 99
1, 135424, Control_c, 0, 64, 105
1, 135439, Control_c, 0, 64, 111
1, 135454, Control_c, 0, 64, 114
1, 135469, Control_c, 0, 64, 116
1, 135484, Control_c, 0, 64, 118
1, 135498, Control_c, 0, 64, 120
1, 135506, Note_off_c, 0, 58, 34
1, 135513, Control_c, 0, 64, 124
1, 135528, Control_c, 0, 64, 127
1, 135951, Control_c, 0, 64, 120
1, 135963, Note_off_c, 0, 62, 56
1, 135966, Control_c, 0, 64, 109
1, 135974, Note_on_c, 0, 63, 71
1, 135978, Note_on_c, 0, 59, 65
1, 135979, Note_on_c, 0, 44, 64
1, 135980, Note_on_c, 0, 32, 66
1, 135980, Control_c, 0, 64, 100
1, 135981, Note_on_c, 0, 56, 68
1, 135995, Control_c, 0, 64, 90
1, 136010, Control_c, 0, 64, 81
1, 136024, Control_c, 0, 64, 71
1, 136039, Control_c, 0, 64, 63
1, 136047, Note_off_c, 0, 33, 64
1, 136054, Control_c, 0, 64, 45
1, 136069, Control_c, 0, 64, 10
1, 136084, Control_c, 0, 64, 0
1, 136440, Control_c, 0, 64, 36
1, 136455, Control_c, 0, 64, 49
1, 136477, Control_c, 0, 64, 55
1, 136492, Control_c, 0, 64, 59
1, 136507, Control_c, 0, 64, 63
1, 136522, Control_c, 0, 64, 65
1, 136536, Control_c, 0, 64, 68
1, 136551, Control_c, 0, 64, 71
1, 136566, Control_c, 0, 64, 73
1, 136580, Control_c, 0, 64, 75
1, 136595, Control_c, 0, 64, 77
1, 136610, Control_c, 0, 64, 79
1, 136625, Control_c, 0, 64, 83
1, 136640, Control_c, 0, 64, 87
1, 136655, Control_c, 0, 64, 90
1, 136670, Control_c, 0, 64, 94
1, 136685, Control_c, 0, 64, 97
1, 136700, Control_c, 0, 64, 100
1, 136715, Control_c, 0, 64, 103
1, 136729, Control_c, 0, 64, 106
1, 136744, Control_c, 0, 64, 109
1, 136759, Control_c, 0, 64, 111
1, 136773, Control_c, 0, 64, 114
1, 136786, Note_off_c, 0, 44, 60
1, 136788, Control_c, 0, 64, 117
1, 136803, Control_c, 0, 64, 120
1, 136818, Control_c, 0, 64, 123
1, 136833, Control_c, 0, 64, 127
1, 137156, Note_on_c, 0, 27, 63
1, 137156, Note_on_c, 0, 39, 60
1, 137173, Note_off_c, 0, 32, 62
1, 137436, Note_off_c, 0, 27, 65
1, 137460, Note_off_c, 0, 39, 62
1, 137700, Note_on_c, 0, 44, 64
1, 137701, Control_c, 0, 64, 120
1, 137704, Note_on_c, 0, 32, 62
1, 137716, Control_c, 0, 64, 110
1, 137731, Control_c, 0, 64, 102
1, 137746, Control_c, 0, 64, 93
1, 137761, Control_c, 0, 64, 87
1, 137775, Control_c, 0, 64, 82
1, 137790, Control_c, 0, 64, 78
1, 137805, Control_c, 0, 64, 76
1, 137819, Control_c, 0, 64, 74
1, 137834, Control_c, 0, 64, 73
1, 137879, Control_c, 0, 64, 74
1, 137893, Control_c, 0, 64, 75
1, 137908, Control_c, 0, 64, 77
1, 137923, Control_c, 0, 64, 81
1, 137938, Control_c, 0, 64, 84
1, 137953, Control_c, 0, 64, 87
1, 137975, Control_c, 0, 64, 89
1, 137990, Control_c, 0, 64, 91
1, 138005, Control_c, 0, 64, 94
1, 138020, Control_c, 0, 64, 96
1, 138023, Note_off_c, 0, 32, 58
1, 138023, Note_off_c, 0, 44, 54
1, 138034, Control_c, 0, 64, 98
1, 138049, Control_c, 0, 64, 99
1, 138064, Control_c, 0, 64, 99
1, 138079, Control_c, 0, 64, 100
1, 138094, Control_c, 0, 64, 100
1, 138108, Control_c, 0, 64, 101
1, 138226, Note_on_c, 0, 32, 66
1, 138228, Note_on_c, 0, 44, 62
1, 138461, Note_off_c, 0, 44, 62
1, 138520, Note_off_c, 0, 32, 50
1, 138756, Note_on_c, 0, 27, 70
1, 138757, Note_on_c, 0, 39, 69
1, 138804, Note_off_c, 0, 56, 57
1, 138885, Note_off_c, 0, 59, 55
1, 138929, Poly_aftertouch_c, 0, 30, 127
1, 139049, Note_off_c, 0, 63, 52
1, 139073, Poly_aftertouch_c, 0, 30, 0
1, 139139, Note_off_c, 0, 27, 63
1, 139233, Note_off_c, 0, 39, 60
1, 139362, Control_c, 0, 64, 100
1, 139377, Control_c, 0, 64, 98
1, 139391, Control_c, 0, 64, 94
1, 139402, Note_on_c, 0, 63, 70
1, 139406, Control_c, 0, 64, 89
1, 139407, Note_on_c, 0, 29, 65
1, 139409, Note_on_c, 0, 56, 62
1, 139409, Note_on_c, 0, 59, 59
1, 139412, Note_on_c, 0, 41, 62
1, 139421, Control_c, 0, 64, 82
1, 139436, Control_c, 0, 64, 75
1, 139451, Control_c, 0, 64, 65
1, 139472, Control_c, 0, 64, 39
1, 139487, Control_c, 0, 64, 0
1, 139858, Control_c, 0, 64, 37
1, 139872, Control_c, 0, 64, 61
1, 139887, Control_c, 0, 64, 65
1, 139902, Control_c, 0, 64, 67
1, 139917, Control_c, 0, 64, 68
1, 139932, Control_c, 0, 64, 70
1, 139946, Control_c, 0, 64, 72
1, 139961, Control_c, 0, 64, 74
1, 139976, Control_c, 0, 64, 77
1, 139991, Control_c, 0, 64, 81
1, 140005, Control_c, 0, 64, 83
1, 140020, Control_c, 0, 64, 86
1, 140035, Control_c, 0, 64, 88
1, 140050, Control_c, 0, 64, 89
1, 140065, Control_c, 0, 64, 90
1, 140080, Control_c, 0, 64, 92
1, 140095, Control_c, 0, 64, 94
1, 140110, Control_c, 0, 64, 96
1, 140125, Control_c, 0, 64, 97
1, 140140, Control_c, 0, 64, 97
1, 140155, Control_c, 0, 64, 98
1, 140169, Control_c, 0, 64, 99
1, 140184, Control_c, 0, 64, 99
1, 140199, Control_c, 0, 64, 100
1, 140221, Control_c, 0, 64, 101
1, 140236, Control_c, 0, 64, 101
1, 140251, Control_c, 0, 64, 102
1, 140253, Note_off_c, 0, 29, 58
1, 140277, Note_off_c, 0, 41, 65
1, 140503, Control_c, 0, 64, 100
1, 140518, Control_c, 0, 64, 96
1, 140533, Control_c, 0, 64, 90
1, 140548, Control_c, 0, 64, 83
1, 140560, Note_on_c, 0, 27, 61
1, 140563, Control_c, 0, 64, 74
1, 140563, Note_on_c, 0, 39, 60
1, 140577, Control_c, 0, 64, 65
1, 140592, Control_c, 0, 64, 48
1, 140607, Control_c, 0, 64, 0
1, 140710, Control_c, 0, 64, 28
1, 140725, Control_c, 0, 64, 54
1, 140739, Control_c, 0, 64, 65
1, 140754, Control_c, 0, 64, 70
1, 140769, Control_c, 0, 64, 76
1, 140784, Control_c, 0, 64, 82
1, 140799, Control_c, 0, 64, 87
1, 140813, Control_c, 0, 64, 90
1, 140828, Control_c, 0, 64, 93
1, 140843, Control_c, 0, 64, 95
1, 140858, Control_c, 0, 64, 97
1, 140873, Control_c, 0, 64, 98
1, 140889, Control_c, 0, 64, 99
1, 140903, Note_off_c, 0, 56, 61
1, 140903, Note_off_c, 0, 59, 61
1, 140904, Control_c, 0, 64, 100
1, 140912, Note_off_c, 0, 39, 55
1, 140918, Control_c, 0, 64, 100
1, 140971, Control_c, 0, 64, 101
1, 141163, Note_off_c, 0, 27, 34
1, 141251, Control_c, 0, 64, 100
1, 141266, Control_c, 0, 64, 98
1, 141281, Control_c, 0, 64, 94
1, 141291, Note_on_c, 0, 65, 67
1, 141296, Control_c, 0, 64, 89
1, 141298, Note_on_c, 0, 26, 57
1, 141299, Note_on_c, 0, 58, 59
1, 141302, Note_on_c, 0, 38, 50
1, 141305, Note_on_c, 0, 53, 54
1, 141311, Control_c, 0, 64, 82
1, 141326, Control_c, 0, 64, 74
1, 141341, Note_off_c, 0, 63, 60
1, 141341, Control_c, 0, 64, 67
1, 141356, Control_c, 0, 64, 60
1, 141370, Control_c, 0, 64, 50
1, 141385, Control_c, 0, 64, 47
1, 141415, Control_c, 0, 64, 45
1, 141430, Control_c, 0, 64, 37
1, 141444, Control_c, 0, 64, 18
1, 141459, Control_c, 0, 64, 0
1, 142016, Control_c, 0, 64, 16
1, 142031, Control_c, 0, 64, 27
1, 142046, Control_c, 0, 64, 35
1, 142061, Control_c, 0, 64, 40
1, 142075, Control_c, 0, 64, 46
1, 142090, Control_c, 0, 64, 50
1, 142105, Control_c, 0, 64, 53
1, 142120, Control_c, 0, 64, 54
1, 142135, Control_c, 0, 64, 55
1, 142164, Control_c, 0, 64, 55
1, 142179, Control_c, 0, 64, 56
1, 142193, Control_c, 0, 64, 58
1, 142208, Control_c, 0, 64, 58
1, 142223, Control_c, 0, 64, 59
1, 142253, Control_c, 0, 64, 59
1, 142283, Control_c, 0, 64, 60
1, 142483, Control_c, 0, 64, 59
1, 142498, Control_c, 0, 64, 59
1, 142513, Control_c, 0, 64, 58
1, 142528, Control_c, 0, 64, 54
1, 142543, Control_c, 0, 64, 47
1, 142558, Control_c, 0, 64, 32
1, 142572, Note_on_c, 0, 63, 57
1, 142572, Control_c, 0, 64, 0
1, 142721, Note_off_c, 0, 65, 33
1, 142883, Note_on_c, 0, 62, 61
1, 142896, Note_off_c, 0, 63, 65
1, 142972, Control_c, 0, 64, 64
1, 142987, Control_c, 0, 64, 75
1, 143002, Control_c, 0, 64, 87
1, 143016, Control_c, 0, 64, 94
1, 143031, Control_c, 0, 64, 96
1, 143036, Note_off_c, 0, 53, 64
1, 143046, Control_c, 0, 64, 98
1, 143061, Control_c, 0, 64, 102
1, 143076, Control_c, 0, 64, 106
1, 143084, Note_off_c, 0, 62, 61
1, 143091, Control_c, 0, 64, 111
1, 143106, Control_c, 0, 64, 112
1, 143121, Control_c, 0, 64, 113
1, 143135, Control_c, 0, 64, 115
1, 143150, Control_c, 0, 64, 117
1, 143165, Control_c, 0, 64, 120
1, 143180, Control_c, 0, 64, 122
1, 143195, Control_c, 0, 64, 124
1, 143216, Control_c, 0, 64, 125
1, 143231, Control_c, 0, 64, 126
1, 143246, Control_c, 0, 64, 127
1, 143261, Control_c, 0, 64, 127
1, 143334, Note_on_c, 0, 70, 73
1, 143797, Note_off_c, 0, 58, 57
1, 144170, Note_off_c, 0, 70, 61
1, 144501, Note_on_c, 0, 69, 52
1, 144735, Note_off_c, 0, 69, 65
1, 145098, Note_on_c, 0, 67, 47
1, 145398, Note_off_c, 0, 67, 36
1, 145554, Note_on_c, 0, 65, 46
1, 145763, Note_off_c, 0, 65, 53
1, 145985, Note_on_c, 0, 63, 46
1, 146285, Control_c, 0, 67, 10
1, 146300, Control_c, 0, 67, 14
1, 146314, Control_c, 0, 67, 19
1, 146329, Control_c, 0, 67, 27
1, 146344, Control_c, 0, 67, 35
1, 146358, Control_c, 0, 67, 41
1, 146373, Control_c, 0, 67, 46
1, 146388, Note_off_c, 0, 63, 27
1, 146388, Control_c, 0, 67, 51
1, 146403, Control_c, 0, 67, 57
1, 146418, Control_c, 0, 67, 62
1, 146432, Control_c, 0, 67, 69
1, 146444, Note_off_c, 0, 38, 40
1, 146447, Control_c, 0, 67, 76
1, 146450, Note_on_c, 0, 62, 45
1, 146454, Note_off_c, 0, 26, 41
1, 146462, Control_c, 0, 67, 83
1, 146477, Control_c, 0, 67, 90
1, 146493, Control_c, 0, 67, 97
1, 146508, Control_c, 0, 67, 104
1, 146523, Control_c, 0, 67, 114
1, 146537, Control_c, 0, 67, 122
1, 146552, Control_c, 0, 67, 127
1, 146568, Note_off_c, 0, 62, 61
1, 146989, Control_c, 0, 64, 118
1, 147004, Control_c, 0, 64, 108
1, 147012, Note_on_c, 0, 61, 54
1, 147014, Note_on_c, 0, 58, 46
1, 147019, Control_c, 0, 64, 98
1, 147020, Note_on_c, 0, 53, 42
1, 147034, Control_c, 0, 64, 90
1, 147037, Note_on_c, 0, 38, 37
1, 147040, Note_on_c, 0, 26, 35
1, 147049, Control_c, 0, 64, 83
1, 147063, Control_c, 0, 64, 77
1, 147078, Control_c, 0, 64, 72
1, 147093, Control_c, 0, 64, 68
1, 147108, Control_c, 0, 64, 64
1, 147123, Control_c, 0, 64, 63
1, 147181, Control_c, 0, 64, 62
1, 147196, Control_c, 0, 64, 62
1, 147211, Control_c, 0, 64, 61
1, 147255, Control_c, 0, 64, 61
1, 147270, Control_c, 0, 64, 60
1, 147286, Control_c, 0, 64, 60
1, 147404, Control_c, 0, 64, 60
1, 147434, Control_c, 0, 64, 61
1, 147449, Control_c, 0, 64, 61
1, 147464, Control_c, 0, 64, 62
1, 147479, Control_c, 0, 64, 63
1, 147494, Control_c, 0, 64, 63
1, 147508, Control_c, 0, 64, 64
1, 147523, Control_c, 0, 64, 64
1, 147553, Control_c, 0, 64, 65
1, 147583, Control_c, 0, 64, 65
1, 147612, Control_c, 0, 64, 66
1, 147686, Control_c, 0, 64, 66
1, 147812, Control_c, 0, 64, 67
1, 147946, Control_c, 0, 64, 67
1, 148050, Control_c, 0, 64, 68
1, 148199, Control_c, 0, 64, 68
1, 148376, Note_on_c, 0, 62, 33
1, 148391, Control_c, 0, 64, 68
1, 148412, Note_off_c, 0, 61, 37
1, 148421, Control_c, 0, 64, 67
1, 148435, Control_c, 0, 64, 67
1, 148458, Control_c, 0, 64, 66
1, 148576, Control_c, 0, 64, 67
1, 148591, Control_c, 0, 64, 67
1, 148606, Control_c, 0, 64, 68
1, 148621, Control_c, 0, 64, 69
1, 148635, Control_c, 0, 64, 71
1, 148650, Control_c, 0, 64, 74
1, 148665, Control_c, 0, 64, 78
1, 148680, Control_c, 0, 64, 81
1, 148695, Control_c, 0, 64, 83
1, 148710, Control_c, 0, 64, 84
1, 148725, Control_c, 0, 64, 85
1, 148740, Control_c, 0, 64, 86
1, 148754, Control_c, 0, 64, 86
1, 148769, Control_c, 0, 64, 87
1, 148771, Note_off_c, 0, 58, 33
1, 148781, Note_off_c, 0, 53, 39
1, 148799, Control_c, 0, 64, 87
1, 148814, Control_c, 0, 64, 88
1, 148828, Control_c, 0, 64, 88
1, 148843, Control_c, 0, 64, 89
1, 148874, Control_c, 0, 64, 89
1, 149037, Control_c, 0, 64, 88
1, 149051, Control_c, 0, 64, 87
1, 149066, Control_c, 0, 64, 84
1, 149073, Note_on_c, 0, 57, 36
1, 149081, Control_c, 0, 64, 80
1, 149085, Note_on_c, 0, 53, 36
1, 149096, Control_c, 0, 64, 76
1, 149111, Control_c, 0, 64, 71
1, 149125, Control_c, 0, 64, 67
1, 149140, Control_c, 0, 64, 64
1, 149152, Note_off_c, 0, 62, 32
1, 149155, Control_c, 0, 64, 63
1, 149207, Control_c, 0, 64, 62
1, 149237, Control_c, 0, 64, 62
1, 149311, Control_c, 0, 64, 61
1, 149414, Control_c, 0, 64, 62
1, 149458, Control_c, 0, 64, 62
1, 149473, Control_c, 0, 64, 63
1, 149488, Control_c, 0, 64, 63
1, 149502, Control_c, 0, 64, 64
1, 149517, Control_c, 0, 64, 64
1, 149532, Control_c, 0, 64, 65
1, 149547, Control_c, 0, 64, 65
1, 149562, Control_c, 0, 64, 66
1, 149591, Control_c, 0, 64, 66
1, 149606, Control_c, 0, 64, 67
1, 149621, Control_c, 0, 64, 67
1, 149636, Control_c, 0, 64, 68
1, 149650, Control_c, 0, 64, 69
1, 149681, Control_c, 0, 64, 69
1, 149696, Control_c, 0, 64, 70
1, 149726, Control_c, 0, 64, 70
1, 149741, Control_c, 0, 64, 71
1, 149755, Control_c, 0, 64, 71
1, 149770, Control_c, 0, 64, 72
1, 149785, Control_c, 0, 64, 72
1, 149799, Control_c, 0, 64, 73
1, 149829, Control_c, 0, 64, 73
1, 149844, Control_c, 0, 64, 74
1, 149859, Control_c, 0, 64, 74
1, 149873, Control_c, 0, 64, 75
1, 149888, Control_c, 0, 64, 75
1, 149903, Control_c, 0, 64, 76
1, 149933, Control_c, 0, 64, 76
1, 149970, Control_c, 0, 64, 77
1, 149985, Control_c, 0, 64, 77
1, 150000, Control_c, 0, 64, 78
1, 150014, Control_c, 0, 64, 78
1, 150029, Control_c, 0, 64, 79
1, 150044, Control_c, 0, 64, 79
1, 150059, Control_c, 0, 64, 80
1, 150074, Control_c, 0, 64, 80
1, 150088, Control_c, 0, 64, 81
1, 150103, Control_c, 0, 64, 81
1, 150118, Control_c, 0, 64, 82
1, 150132, Control_c, 0, 64, 82
1, 150147, Control_c, 0, 64, 83
1, 150162, Control_c, 0, 64, 83
1, 150177, Control_c, 0, 64, 84
1, 150192, Control_c, 0, 64, 84
1, 150221, Control_c, 0, 64, 85
1, 150266, Control_c, 0, 64, 85
1, 150281, Control_c, 0, 64, 86
1, 150310, Control_c, 0, 64, 86
1, 150325, Control_c, 0, 64, 87
1, 150328, Note_on_c, 0, 62, 31
1, 150340, Control_c, 0, 64, 87
1, 150355, Control_c, 0, 64, 88
1, 150370, Control_c, 0, 64, 88
1, 150385, Control_c, 0, 64, 89
1, 150414, Control_c, 0, 64, 89
1, 150416, Note_off_c, 0, 57, 43
1, 150429, Control_c, 0, 64, 90
1, 150444, Control_c, 0, 64, 90
1, 150459, Control_c, 0, 64, 91
1, 150474, Control_c, 0, 64, 91
1, 150489, Control_c, 0, 64, 92
1, 150519, Control_c, 0, 64, 92
1, 150563, Control_c, 0, 64, 93
1, 150667, Control_c, 0, 64, 93
1, 150965, Note_on_c, 0, 57, 29
1, 151121, Note_off_c, 0, 62, 26
1, 152345, Note_on_c, 0, 62, 32
1, 152439, Note_off_c, 0, 57, 33
1, 153146, Note_on_c, 0, 57, 26
1, 153503, Note_off_c, 0, 62, 16
1, 155143, Note_on_c, 0, 62, 22
1, 156857, Note_off_c, 0, 53, 27
1, 156872, Note_off_c, 0, 26, 35
1, 156877, Note_off_c, 0, 62, 12
1, 157119, Note_off_c, 0, 38, 13
1, 157414, Note_off_c, 0, 57, 9
1, 158169, Control_c, 0, 64, 93
1, 158207, Control_c, 0, 64, 92
1, 158280, Control_c, 0, 64, 92
1, 158325, Control_c, 0, 64, 91
1, 158354, Control_c, 0, 64, 91
1, 158369, Control_c, 0, 64, 90
1, 158384, Control_c, 0, 64, 90
1, 158414, Control_c, 0, 64, 89
1, 158443, Control_c, 0, 64, 89
1, 158458, Control_c, 0, 64, 88
1, 158489, Control_c, 0, 64, 88
1, 158518, Control_c, 0, 64, 87
1, 158548, Control_c, 0, 64, 87
1, 158577, Control_c, 0, 64, 86
1, 158607, Control_c, 0, 64, 86
1, 158636, Control_c, 0, 64, 85
1, 158666, Control_c, 0, 64, 85
1, 158696, Control_c, 0, 64, 84
1, 158726, Control_c, 0, 64, 84
1, 158755, Control_c, 0, 64, 83
1, 158770, Control_c, 0, 64, 83
1, 158785, Control_c, 0, 64, 82
1, 158800, Control_c, 0, 64, 82
1, 158815, Control_c, 0, 64, 81
1, 158830, Control_c, 0, 64, 81
1, 158844, Control_c, 0, 64, 80
1, 158874, Control_c, 0, 64, 80
1, 158888, Control_c, 0, 64, 79
1, 158903, Control_c, 0, 64, 79
1, 158918, Control_c, 0, 64, 78
1, 158940, Control_c, 0, 64, 77
1, 158955, Control_c, 0, 64, 77
1, 158985, Control_c, 0, 64, 76
1, 159000, Control_c, 0, 64, 76
1, 159015, Control_c, 0, 64, 75
1, 159030, Control_c, 0, 64, 75
1, 159044, Control_c, 0, 64, 74
1, 159059, Control_c, 0, 64, 74
1, 159074, Control_c, 0, 64, 73
1, 159103, Control_c, 0, 64, 73
1, 159133, Control_c, 0, 64, 72
1, 159148, Control_c, 0, 64, 72
1, 159177, Control_c, 0, 64, 71
1, 159192, Control_c, 0, 64, 71
1, 159237, Control_c, 0, 64, 70
1, 159267, Control_c, 0, 64, 70
1, 159282, Control_c, 0, 64, 69
1, 159297, Control_c, 0, 64, 69
1, 159326, Control_c, 0, 64, 68
1, 159356, Control_c, 0, 64, 68
1, 159385, Control_c, 0, 64, 67
1, 159415, Control_c, 0, 64, 67
1, 159445, Control_c, 0, 64, 66
1, 159474, Control_c, 0, 64, 66
1, 159504, Control_c, 0, 64, 65
1, 159548, Control_c, 0, 64, 65
1, 159608, Control_c, 0, 64, 64
1, 159623, Control_c, 0, 64, 64
1, 159689, Control_c, 0, 64, 63
1, 159733, Control_c, 0, 64, 63
1, 159823, Control_c, 0, 64, 62
1, 159842, Note_on_c, 0, 45, 32
1, 159867, Control_c, 0, 64, 62
1, 159897, Control_c, 0, 64, 61
1, 159911, Control_c, 0, 64, 61
1, 159940, Control_c, 0, 64, 60
1, 160075, Control_c, 0, 64, 61
1, 160089, Control_c, 0, 64, 61
1, 160104, Control_c, 0, 64, 62
1, 160119, Control_c, 0, 64, 63
1, 160133, Control_c, 0, 64, 65
1, 160148, Control_c, 0, 64, 66
1, 160163, Control_c, 0, 64, 68
1, 160178, Control_c, 0, 64, 70
1, 160193, Control_c, 0, 64, 71
1, 160207, Control_c, 0, 64, 72
1, 160222, Control_c, 0, 64, 73
1, 160237, Control_c, 0, 64, 73
1, 160267, Control_c, 0, 64, 74
1, 160326, Control_c, 0, 64, 73
1, 160341, Control_c, 0, 64, 73
1, 160356, Control_c, 0, 64, 71
1, 160368, Note_on_c, 0, 50, 36
1, 160371, Note_off_c, 0, 45, 41
1, 160371, Control_c, 0, 64, 68
1, 160386, Control_c, 0, 64, 64
1, 160401, Control_c, 0, 64, 60
1, 160415, Control_c, 0, 64, 57
1, 160437, Control_c, 0, 64, 56
1, 160452, Control_c, 0, 64, 55
1, 160482, Control_c, 0, 64, 56
1, 160496, Control_c, 0, 64, 58
1, 160511, Control_c, 0, 64, 62
1, 160526, Control_c, 0, 64, 67
1, 160541, Control_c, 0, 64, 71
1, 160556, Control_c, 0, 64, 75
1, 160571, Control_c, 0, 64, 79
1, 160586, Control_c, 0, 64, 82
1, 160601, Control_c, 0, 64, 83
1, 160615, Control_c, 0, 64, 85
1, 160630, Control_c, 0, 64, 87
1, 160637, Note_off_c, 0, 50, 40
1, 160645, Control_c, 0, 64, 88
1, 160659, Control_c, 0, 64, 89
1, 160674, Control_c, 0, 64, 90
1, 160689, Control_c, 0, 64, 91
1, 160704, Control_c, 0, 64, 92
1, 160719, Control_c, 0, 64, 92
1, 160733, Control_c, 0, 64, 93
1, 160822, Control_c, 0, 64, 92
1, 160837, Control_c, 0, 64, 89
1, 160853, Control_c, 0, 64, 84
1, 160868, Control_c, 0, 64, 78
1, 160883, Control_c, 0, 64, 72
1, 160890, Note_on_c, 0, 50, 37
1, 160898, Control_c, 0, 64, 66
1, 160912, Control_c, 0, 64, 63
1, 160927, Control_c, 0, 64, 62
1, 160942, Control_c, 0, 64, 63
1, 160956, Control_c, 0, 64, 63
1, 160971, Control_c, 0, 64, 64
1, 160986, Control_c, 0, 64, 66
1, 161001, Control_c, 0, 64, 68
1, 161016, Control_c, 0, 64, 70
1, 161030, Control_c, 0, 64, 74
1, 161045, Control_c, 0, 64, 77
1, 161060, Control_c, 0, 64, 79
1, 161075, Control_c, 0, 64, 81
1, 161090, Control_c, 0, 64, 82
1, 161104, Control_c, 0, 64, 83
1, 161119, Control_c, 0, 64, 84
1, 161134, Control_c, 0, 64, 85
1, 161149, Control_c, 0, 64, 86
1, 161164, Control_c, 0, 64, 87
1, 161186, Control_c, 0, 64, 88
1, 161201, Control_c, 0, 64, 89
1, 161216, Control_c, 0, 64, 89
1, 161231, Control_c, 0, 64, 90
1, 161334, Control_c, 0, 64, 89
1, 161349, Control_c, 0, 64, 86
1, 161364, Note_on_c, 0, 45, 43
1, 161364, Control_c, 0, 64, 82
1, 161379, Control_c, 0, 64, 75
1, 161393, Control_c, 0, 64, 68
1, 161408, Control_c, 0, 64, 63
1, 161416, Note_off_c, 0, 50, 15
1, 161424, Control_c, 0, 64, 60
1, 161453, Control_c, 0, 64, 61
1, 161468, Control_c, 0, 64, 62
1, 161483, Control_c, 0, 64, 63
1, 161498, Control_c, 0, 64, 64
1, 161513, Control_c, 0, 64, 66
1, 161528, Control_c, 0, 64, 70
1, 161543, Control_c, 0, 64, 74
1, 161557, Control_c, 0, 64, 77
1, 161572, Control_c, 0, 64, 80
1, 161587, Control_c, 0, 64, 81
1, 161602, Control_c, 0, 64, 82
1, 161617, Control_c, 0, 64, 84
1, 161631, Control_c, 0, 64, 85
1, 161646, Control_c, 0, 64, 85
1, 161692, Control_c, 0, 64, 86
1, 161721, Control_c, 0, 64, 86
1, 161810, Control_c, 0, 64, 86
1, 161825, Control_c, 0, 64, 85
1, 161840, Control_c, 0, 64, 84
1, 161854, Control_c, 0, 64, 82
1, 161869, Control_c, 0, 64, 80
1, 161880, Note_on_c, 0, 50, 42
1, 161884, Control_c, 0, 64, 77
1, 161899, Control_c, 0, 64, 74
1, 161913, Control_c, 0, 64, 71
1, 161936, Control_c, 0, 64, 68
1, 161951, Control_c, 0, 64, 66
1, 161966, Control_c, 0, 64, 65
1, 161995, Control_c, 0, 64, 64
1, 162010, Control_c, 0, 64, 64
1, 162025, Control_c, 0, 64, 63
1, 162033, Note_off_c, 0, 45, 40
1, 162040, Control_c, 0, 64, 62
1, 162055, Control_c, 0, 64, 60
1, 162069, Control_c, 0, 64, 59
1, 162084, Control_c, 0, 64, 58
1, 162099, Control_c, 0, 64, 56
1, 162113, Control_c, 0, 64, 55
1, 162128, Control_c, 0, 64, 53
1, 162143, Control_c, 0, 64, 51
1, 162158, Control_c, 0, 64, 48
1, 162173, Control_c, 0, 64, 46
1, 162187, Control_c, 0, 64, 43
1, 162202, Control_c, 0, 64, 40
1, 162217, Control_c, 0, 64, 36
1, 162232, Control_c, 0, 64, 33
1, 162247, Control_c, 0, 64, 28
1, 162261, Control_c, 0, 64, 25
1, 162276, Control_c, 0, 64, 24
1, 162291, Control_c, 0, 64, 23
1, 162306, Control_c, 0, 64, 20
1, 162321, Control_c, 0, 64, 16
1, 162335, Control_c, 0, 64, 13
1, 162410, Control_c, 0, 64, 10
1, 162763, Note_on_c, 0, 48, 41
1, 162803, Note_off_c, 0, 50, 40
1, 162936, Control_c, 0, 64, 16
1, 162951, Control_c, 0, 64, 20
1, 162966, Control_c, 0, 64, 23
1, 162981, Control_c, 0, 64, 25
1, 162996, Control_c, 0, 64, 28
1, 163000, Note_on_c, 0, 50, 47
1, 163010, Control_c, 0, 64, 31
1, 163025, Control_c, 0, 64, 36
1, 163040, Control_c, 0, 64, 40
1, 163054, Control_c, 0, 64, 44
1, 163057, Note_off_c, 0, 48, 41
1, 163069, Control_c, 0, 64, 48
1, 163084, Control_c, 0, 64, 50
1, 163099, Control_c, 0, 64, 53
1, 163114, Control_c, 0, 64, 55
1, 163128, Control_c, 0, 64, 56
1, 163143, Control_c, 0, 64, 57
1, 163158, Control_c, 0, 64, 57
1, 163173, Control_c, 0, 64, 58
1, 163188, Control_c, 0, 64, 59
1, 163233, Control_c, 0, 64, 58
1, 163248, Control_c, 0, 64, 58
1, 163263, Control_c, 0, 64, 56
1, 163264, Note_on_c, 0, 52, 52
1, 163268, Note_off_c, 0, 50, 58
1, 163278, Control_c, 0, 64, 55
1, 163293, Control_c, 0, 64, 54
1, 163307, Control_c, 0, 64, 53
1, 163322, Control_c, 0, 64, 50
1, 163337, Control_c, 0, 64, 47
1, 163352, Control_c, 0, 64, 44
1, 163367, Control_c, 0, 64, 43
1, 163397, Control_c, 0, 64, 44
1, 163412, Control_c, 0, 64, 47
1, 163433, Control_c, 0, 64, 53
1, 163448, Control_c, 0, 64, 60
1, 163463, Control_c, 0, 64, 65
1, 163478, Control_c, 0, 64, 68
1, 163492, Control_c, 0, 64, 73
1, 163507, Control_c, 0, 64, 77
1, 163522, Control_c, 0, 64, 80
1, 163537, Control_c, 0, 64, 82
1, 163552, Control_c, 0, 64, 84
1, 163560, Note_off_c, 0, 52, 52
1, 163567, Control_c, 0, 64, 85
1, 163581, Control_c, 0, 64, 87
1, 163596, Control_c, 0, 64, 87
1, 163611, Control_c, 0, 64, 88
1, 163641, Control_c, 0, 64, 89
1, 163715, Control_c, 0, 64, 88
1, 163730, Control_c, 0, 64, 85
1, 163745, Control_c, 0, 64, 81
1, 163751, Note_on_c, 0, 52, 45
1, 163759, Control_c, 0, 64, 75
1, 163774, Control_c, 0, 64, 67
1, 163789, Control_c, 0, 64, 60
1, 163804, Control_c, 0, 64, 50
1, 163819, Control_c, 0, 64, 50
1, 163833, Control_c, 0, 64, 52
1, 163848, Control_c, 0, 64, 55
1, 163863, Control_c, 0, 64, 58
1, 163877, Control_c, 0, 64, 63
1, 163892, Control_c, 0, 64, 66
1, 163907, Control_c, 0, 64, 69
1, 163922, Control_c, 0, 64, 71
1, 163937, Control_c, 0, 64, 74
1, 163951, Control_c, 0, 64, 76
1, 163966, Control_c, 0, 64, 78
1, 163981, Control_c, 0, 64, 79
1, 163996, Control_c, 0, 64, 81
1, 164011, Control_c, 0, 64, 82
1, 164026, Control_c, 0, 64, 82
1, 164040, Control_c, 0, 64, 83
1, 164056, Control_c, 0, 64, 83
1, 164071, Control_c, 0, 64, 84
1, 164086, Control_c, 0, 64, 84
1, 164100, Control_c, 0, 64, 85
1, 164212, Control_c, 0, 64, 84
1, 164227, Control_c, 0, 64, 83
1, 164242, Control_c, 0, 64, 79
1, 164246, Note_on_c, 0, 45, 43
1, 164256, Control_c, 0, 64, 73
1, 164271, Control_c, 0, 64, 67
1, 164281, Note_off_c, 0, 52, 42
1, 164286, Control_c, 0, 64, 62
1, 164301, Control_c, 0, 64, 56
1, 164315, Control_c, 0, 64, 55
1, 164345, Control_c, 0, 64, 55
1, 164360, Control_c, 0, 64, 56
1, 164375, Control_c, 0, 64, 56
1, 164389, Control_c, 0, 64, 58
1, 164404, Control_c, 0, 64, 61
1, 164419, Control_c, 0, 64, 64
1, 164434, Control_c, 0, 64, 67
1, 164449, Control_c, 0, 64, 70
1, 164464, Control_c, 0, 64, 74
1, 164479, Control_c, 0, 64, 77
1, 164494, Control_c, 0, 64, 78
1, 164508, Control_c, 0, 64, 80
1, 164523, Control_c, 0, 64, 80
1, 164538, Control_c, 0, 64, 81
1, 164553, Control_c, 0, 64, 82
1, 164568, Control_c, 0, 64, 82
1, 164582, Control_c, 0, 64, 83
1, 164700, Control_c, 0, 64, 82
1, 164715, Control_c, 0, 64, 81
1, 164730, Control_c, 0, 64, 78
1, 164745, Control_c, 0, 64, 75
1, 164746, Note_on_c, 0, 50, 42
1, 164760, Control_c, 0, 64, 71
1, 164774, Control_c, 0, 64, 67
1, 164789, Control_c, 0, 64, 64
1, 164804, Control_c, 0, 64, 62
1, 164819, Control_c, 0, 64, 62
1, 164833, Control_c, 0, 64, 61
1, 164850, Control_c, 0, 64, 59
1, 164865, Control_c, 0, 64, 56
1, 164879, Control_c, 0, 64, 53
1, 164894, Control_c, 0, 64, 52
1, 164917, Note_off_c, 0, 45, 38
1, 164931, Control_c, 0, 64, 51
1, 164946, Control_c, 0, 64, 50
1, 164961, Control_c, 0, 64, 49
1, 164976, Control_c, 0, 64, 48
1, 164991, Control_c, 0, 64, 47
1, 165020, Control_c, 0, 64, 46
1, 165035, Control_c, 0, 64, 45
1, 165050, Control_c, 0, 64, 44
1, 165065, Control_c, 0, 64, 43
1, 165094, Control_c, 0, 64, 43
1, 165109, Control_c, 0, 64, 42
1, 165124, Control_c, 0, 64, 41
1, 165138, Control_c, 0, 64, 41
1, 165287, Control_c, 0, 64, 41
1, 165301, Control_c, 0, 64, 42
1, 165331, Control_c, 0, 64, 42
1, 165346, Control_c, 0, 64, 43
1, 165391, Control_c, 0, 64, 43
1, 165405, Control_c, 0, 64, 44
1, 165420, Control_c, 0, 64, 45
1, 165435, Control_c, 0, 64, 45
1, 165449, Control_c, 0, 64, 46
1, 165494, Control_c, 0, 64, 46
1, 165509, Control_c, 0, 64, 47
1, 165523, Control_c, 0, 64, 47
1, 165583, Control_c, 0, 64, 48
1, 165612, Control_c, 0, 64, 48
1, 165680, Control_c, 0, 64, 49
1, 165710, Control_c, 0, 64, 50
1, 165740, Control_c, 0, 64, 51
1, 165769, Control_c, 0, 64, 52
1, 165784, Control_c, 0, 64, 52
1, 165799, Control_c, 0, 64, 53
1, 165828, Control_c, 0, 64, 53
1, 165858, Control_c, 0, 64, 54
1, 165873, Control_c, 0, 64, 54
1, 165917, Control_c, 0, 64, 55
1, 165947, Control_c, 0, 64, 55
1, 165961, Control_c, 0, 64, 56
1, 165991, Control_c, 0, 64, 56
1, 166050, Control_c, 0, 64, 57
1, 166094, Note_on_c, 0, 48, 41
1, 166139, Control_c, 0, 64, 57
1, 166270, Note_off_c, 0, 50, 40
1, 166696, Control_c, 0, 64, 58
1, 166740, Control_c, 0, 64, 58
1, 166954, Note_on_c, 0, 50, 34
1, 167024, Note_off_c, 0, 48, 43
1, 167444, Note_on_c, 0, 45, 37
1, 167571, Note_off_c, 0, 50, 43
1, 167799, Control_c, 0, 64, 59
1, 167966, Note_on_c, 0, 46, 35
1, 167970, Control_c, 0, 64, 59
1, 168050, Note_off_c, 0, 45, 35
1, 168060, Control_c, 0, 64, 60
1, 168074, Control_c, 0, 64, 60
1, 168104, Control_c, 0, 64, 61
1, 168297, Control_c, 0, 64, 61
1, 168312, Control_c, 0, 64, 62
1, 168341, Control_c, 0, 64, 62
1, 168356, Control_c, 0, 64, 63
1, 168386, Control_c, 0, 64, 63
1, 168401, Control_c, 0, 64, 64
1, 168430, Control_c, 0, 64, 64
1, 168460, Control_c, 0, 64, 65
1, 168478, Note_on_c, 0, 50, 37
1, 168489, Control_c, 0, 64, 65
1, 168504, Control_c, 0, 64, 66
1, 168534, Control_c, 0, 64, 66
1, 168548, Control_c, 0, 64, 67
1, 168563, Control_c, 0, 64, 67
1, 168578, Control_c, 0, 64, 68
1, 168593, Control_c, 0, 64, 69
1, 168608, Control_c, 0, 64, 71
1, 168622, Control_c, 0, 64, 73
1, 168637, Control_c, 0, 64, 75
1, 168652, Control_c, 0, 64, 78
1, 168674, Control_c, 0, 64, 80
1, 168676, Note_off_c, 0, 46, 34
1, 168689, Control_c, 0, 64, 82
1, 168704, Control_c, 0, 64, 83
1, 168719, Control_c, 0, 64, 85
1, 168734, Control_c, 0, 64, 86
1, 168748, Control_c, 0, 64, 87
1, 168763, Control_c, 0, 64, 88
1, 168793, Control_c, 0, 64, 88
1, 168822, Control_c, 0, 64, 89
1, 168942, Control_c, 0, 64, 88
1, 168957, Control_c, 0, 64, 87
1, 168971, Control_c, 0, 64, 84
1, 168986, Control_c, 0, 64, 79
1, 169001, Control_c, 0, 64, 74
1, 169007, Note_on_c, 0, 57, 45
1, 169016, Note_on_c, 0, 48, 39
1, 169016, Control_c, 0, 64, 68
1, 169031, Control_c, 0, 64, 62
1, 169045, Control_c, 0, 64, 55
1, 169060, Control_c, 0, 64, 53
1, 169075, Control_c, 0, 64, 51
1, 169090, Control_c, 0, 64, 48
1, 169105, Control_c, 0, 64, 40
1, 169119, Note_off_c, 0, 50, 37
1, 169120, Control_c, 0, 64, 25
1, 169135, Control_c, 0, 64, 0
1, 169194, Control_c, 0, 64, 30
1, 169209, Control_c, 0, 64, 48
1, 169224, Control_c, 0, 64, 61
1, 169239, Control_c, 0, 64, 65
1, 169253, Control_c, 0, 64, 69
1, 169268, Control_c, 0, 64, 73
1, 169283, Control_c, 0, 64, 78
1, 169297, Control_c, 0, 64, 81
1, 169312, Control_c, 0, 64, 82
1, 169327, Control_c, 0, 64, 84
1, 169342, Control_c, 0, 64, 86
1, 169344, Note_off_c, 0, 57, 52
1, 169357, Control_c, 0, 64, 87
1, 169371, Control_c, 0, 64, 88
1, 169386, Control_c, 0, 64, 89
1, 169401, Control_c, 0, 64, 90
1, 169438, Control_c, 0, 64, 90
1, 169453, Control_c, 0, 64, 91
1, 169468, Control_c, 0, 64, 91
1, 169483, Control_c, 0, 64, 92
1, 169497, Control_c, 0, 64, 92
1, 169507, Note_on_c, 0, 57, 44
1, 169572, Control_c, 0, 64, 93
1, 170026, Note_on_c, 0, 52, 43
1, 170045, Control_c, 0, 64, 92
1, 170134, Control_c, 0, 64, 92
1, 170136, Note_off_c, 0, 57, 38
1, 170216, Control_c, 0, 64, 91
1, 170267, Note_off_c, 0, 48, 41
1, 170275, Control_c, 0, 64, 91
1, 170305, Control_c, 0, 64, 90
1, 170334, Control_c, 0, 64, 90
1, 170379, Control_c, 0, 64, 89
1, 170393, Control_c, 0, 64, 89
1, 170408, Control_c, 0, 64, 88
1, 170423, Control_c, 0, 64, 88
1, 170438, Control_c, 0, 64, 87
1, 170453, Control_c, 0, 64, 86
1, 170468, Control_c, 0, 64, 84
1, 170483, Control_c, 0, 64, 83
1, 170497, Control_c, 0, 64, 81
1, 170512, Control_c, 0, 64, 79
1, 170527, Control_c, 0, 64, 77
1, 170542, Control_c, 0, 64, 76
1, 170557, Control_c, 0, 64, 74
1, 170561, Note_on_c, 0, 57, 39
1, 170572, Control_c, 0, 64, 72
1, 170587, Control_c, 0, 64, 71
1, 170601, Control_c, 0, 64, 69
1, 170616, Control_c, 0, 64, 68
1, 170631, Control_c, 0, 64, 68
1, 170646, Control_c, 0, 64, 67
1, 170661, Control_c, 0, 64, 66
1, 170675, Control_c, 0, 64, 65
1, 170690, Control_c, 0, 64, 65
1, 170720, Control_c, 0, 64, 64
1, 170735, Control_c, 0, 64, 63
1, 170749, Control_c, 0, 64, 63
1, 170764, Control_c, 0, 64, 62
1, 170779, Control_c, 0, 64, 62
1, 170794, Control_c, 0, 64, 61
1, 170809, Control_c, 0, 64, 60
1, 170823, Control_c, 0, 64, 59
1, 170838, Control_c, 0, 64, 58
1, 170853, Control_c, 0, 64, 57
1, 170920, Control_c, 0, 64, 57
1, 170935, Control_c, 0, 64, 56
1, 170949, Control_c, 0, 64, 56
1, 170994, Control_c, 0, 64, 55
1, 171009, Control_c, 0, 64, 55
1, 171023, Control_c, 0, 64, 54
1, 171038, Control_c, 0, 64, 53
1, 171053, Control_c, 0, 64, 53
1, 171067, Control_c, 0, 64, 52
1, 171082, Control_c, 0, 64, 51
1, 171087, Note_on_c, 0, 53, 36
1, 171097, Control_c, 0, 64, 50
1, 171112, Control_c, 0, 64, 50
1, 171133, Note_off_c, 0, 52, 44
1, 171141, Control_c, 0, 64, 49
1, 171157, Control_c, 0, 64, 48
1, 171172, Control_c, 0, 64, 47
1, 171202, Control_c, 0, 64, 47
1, 171216, Control_c, 0, 64, 46
1, 171231, Control_c, 0, 64, 46
1, 171247, Control_c, 0, 64, 45
1, 171262, Control_c, 0, 64, 44
1, 171292, Control_c, 0, 64, 44
1, 171306, Control_c, 0, 64, 43
1, 171321, Control_c, 0, 64, 43
1, 171336, Control_c, 0, 64, 42
1, 171366, Control_c, 0, 64, 42
1, 171395, Control_c, 0, 64, 41
1, 171410, Control_c, 0, 64, 41
1, 171425, Control_c, 0, 64, 40
1, 171439, Control_c, 0, 64, 39
1, 171514, Control_c, 0, 64, 39
1, 171557, Note_on_c, 0, 55, 39
1, 171558, Control_c, 0, 64, 38
1, 171561, Note_on_c, 0, 52, 33
1, 171564, Note_off_c, 0, 57, 54
1, 171573, Control_c, 0, 64, 38
1, 171588, Control_c, 0, 64, 37
1, 171603, Control_c, 0, 64, 36
1, 171623, Note_off_c, 0, 53, 42
1, 171713, Control_c, 0, 64, 37
1, 171743, Control_c, 0, 64, 38
1, 171758, Control_c, 0, 64, 41
1, 171773, Control_c, 0, 64, 44
1, 171788, Control_c, 0, 64, 49
1, 171803, Control_c, 0, 64, 56
1, 171804, Note_on_c, 0, 57, 45
1, 171817, Control_c, 0, 64, 61
1, 171832, Control_c, 0, 64, 63
1, 171847, Control_c, 0, 64, 65
1, 171862, Control_c, 0, 64, 67
1, 171877, Control_c, 0, 64, 68
1, 171891, Control_c, 0, 64, 70
1, 171900, Note_off_c, 0, 55, 55
1, 171906, Control_c, 0, 64, 71
1, 171921, Control_c, 0, 64, 71
1, 171936, Control_c, 0, 64, 72
1, 171951, Control_c, 0, 64, 72
1, 171965, Control_c, 0, 64, 73
1, 172056, Control_c, 0, 64, 72
1, 172070, Control_c, 0, 64, 71
1, 172084, Note_on_c, 0, 58, 47
1, 172085, Control_c, 0, 64, 68
1, 172087, Note_on_c, 0, 50, 39
1, 172100, Control_c, 0, 64, 65
1, 172114, Control_c, 0, 64, 61
1, 172119, Note_off_c, 0, 52, 54
1, 172129, Control_c, 0, 64, 57
1, 172135, Note_off_c, 0, 57, 56
1, 172144, Control_c, 0, 64, 55
1, 172159, Control_c, 0, 64, 55
1, 172188, Control_c, 0, 64, 54
1, 172218, Control_c, 0, 64, 55
1, 172233, Control_c, 0, 64, 56
1, 172247, Control_c, 0, 64, 59
1, 172262, Control_c, 0, 64, 62
1, 172277, Control_c, 0, 64, 64
1, 172292, Control_c, 0, 64, 66
1, 172307, Control_c, 0, 64, 69
1, 172321, Control_c, 0, 64, 72
1, 172336, Control_c, 0, 64, 74
1, 172351, Control_c, 0, 64, 77
1, 172366, Control_c, 0, 64, 79
1, 172381, Control_c, 0, 64, 81
1, 172389, Note_off_c, 0, 58, 57
1, 172396, Control_c, 0, 64, 82
1, 172418, Control_c, 0, 64, 83
1, 172433, Control_c, 0, 64, 84
1, 172447, Control_c, 0, 64, 85
1, 172462, Control_c, 0, 64, 86
1, 172507, Control_c, 0, 64, 86
1, 172611, Note_on_c, 0, 58, 50
1, 173111, Note_on_c, 0, 52, 46
1, 173173, Note_off_c, 0, 58, 62
1, 173478, Control_c, 0, 64, 86
1, 173552, Control_c, 0, 64, 85
1, 173582, Control_c, 0, 64, 85
1, 173597, Control_c, 0, 64, 84
1, 173611, Control_c, 0, 64, 82
1, 173626, Control_c, 0, 64, 79
1, 173638, Note_on_c, 0, 57, 50
1, 173642, Control_c, 0, 64, 76
1, 173653, Note_on_c, 0, 53, 41
1, 173657, Control_c, 0, 64, 73
1, 173672, Control_c, 0, 64, 70
1, 173686, Control_c, 0, 64, 67
1, 173701, Control_c, 0, 64, 64
1, 173716, Control_c, 0, 64, 63
1, 173731, Control_c, 0, 64, 62
1, 173746, Note_off_c, 0, 52, 56
1, 173746, Control_c, 0, 64, 62
1, 173760, Control_c, 0, 64, 61
1, 173775, Control_c, 0, 64, 60
1, 173790, Control_c, 0, 64, 58
1, 173805, Control_c, 0, 64, 57
1, 173813, Note_off_c, 0, 50, 28
1, 173820, Control_c, 0, 64, 56
1, 173834, Control_c, 0, 64, 55
1, 173849, Control_c, 0, 64, 54
1, 173864, Control_c, 0, 64, 52
1, 173879, Control_c, 0, 64, 52
1, 173931, Control_c, 0, 64, 51
1, 173946, Control_c, 0, 64, 51
1, 173961, Control_c, 0, 64, 50
1, 174140, Note_on_c, 0, 52, 36
1, 174235, Note_off_c, 0, 53, 55
1, 174316, Control_c, 0, 64, 51
1, 174647, Note_on_c, 0, 50, 31
1, 174694, Note_off_c, 0, 52, 58
1, 174724, Control_c, 0, 64, 50
1, 174888, Control_c, 0, 64, 51
1, 174976, Control_c, 0, 64, 51
1, 174990, Control_c, 0, 64, 52
1, 175138, Note_on_c, 0, 55, 46
1, 175150, Note_on_c, 0, 52, 37
1, 175209, Note_off_c, 0, 50, 57
1, 175247, Note_off_c, 0, 57, 54
1, 175443, Control_c, 0, 64, 52
1, 175532, Control_c, 0, 64, 53
1, 175657, Note_on_c, 0, 50, 36
1, 175759, Note_off_c, 0, 52, 37
1, 175769, Control_c, 0, 64, 52
1, 176095, Control_c, 0, 64, 52
1, 176131, Note_on_c, 0, 57, 40
1, 176139, Note_on_c, 0, 48, 36
1, 176162, Control_c, 0, 64, 51
1, 176177, Control_c, 0, 64, 51
1, 176207, Control_c, 0, 64, 50
1, 176213, Note_off_c, 0, 55, 63
1, 176226, Note_off_c, 0, 50, 40
1, 176251, Control_c, 0, 64, 50
1, 176266, Control_c, 0, 64, 49
1, 176295, Control_c, 0, 64, 49
1, 176370, Control_c, 0, 64, 48
1, 176592, Control_c, 0, 64, 48
1, 176606, Control_c, 0, 64, 47
1, 176666, Control_c, 0, 64, 47
1, 176673, Note_on_c, 0, 52, 37
1, 176680, Control_c, 0, 64, 46
1, 176695, Control_c, 0, 64, 46
1, 176710, Control_c, 0, 64, 45
1, 176769, Control_c, 0, 64, 45
1, 176784, Control_c, 0, 64, 44
1, 176814, Control_c, 0, 64, 43
1, 176849, Note_off_c, 0, 57, 55
1, 176889, Control_c, 0, 64, 43
1, 177178, Note_on_c, 0, 43, 38
1, 177308, Note_off_c, 0, 48, 43
1, 177444, Control_c, 0, 64, 42
1, 177679, Note_on_c, 0, 45, 44
1, 177779, Control_c, 0, 64, 42
1, 177808, Control_c, 0, 64, 41
1, 177817, Note_off_c, 0, 43, 41
1, 177823, Control_c, 0, 64, 41
1, 177838, Control_c, 0, 64, 40
1, 177882, Control_c, 0, 64, 39
1, 178197, Note_on_c, 0, 50, 44
1, 178200, Note_on_c, 0, 46, 52
1, 178237, Note_off_c, 0, 52, 64
1, 178253, Control_c, 0, 64, 39
1, 178268, Control_c, 0, 64, 38
1, 178283, Control_c, 0, 64, 38
1, 178298, Control_c, 0, 64, 37
1, 178309, Note_off_c, 0, 45, 36
1, 178313, Control_c, 0, 64, 36
1, 178357, Control_c, 0, 64, 36
1, 178469, Control_c, 0, 64, 35
1, 178483, Control_c, 0, 64, 34
1, 178513, Control_c, 0, 64, 34
1, 178557, Control_c, 0, 64, 33
1, 178587, Control_c, 0, 64, 32
1, 178632, Control_c, 0, 64, 31
1, 178661, Control_c, 0, 64, 30
1, 178690, Control_c, 0, 64, 29
1, 178705, Control_c, 0, 64, 28
1, 178718, Note_on_c, 0, 52, 48
1, 178720, Control_c, 0, 64, 27
1, 178779, Control_c, 0, 64, 26
1, 178794, Control_c, 0, 64, 25
1, 178853, Control_c, 0, 64, 24
1, 178893, Note_off_c, 0, 50, 36
1, 179231, Note_on_c, 0, 53, 50
1, 179240, Note_on_c, 0, 45, 38
1, 179247, Control_c, 0, 64, 25
1, 179330, Note_off_c, 0, 46, 55
1, 179395, Note_off_c, 0, 52, 60
1, 179499, Control_c, 0, 64, 26
1, 179543, Control_c, 0, 64, 27
1, 179617, Control_c, 0, 64, 28
1, 179646, Control_c, 0, 64, 29
1, 179676, Control_c, 0, 64, 30
1, 179738, Note_on_c, 0, 43, 42
1, 179739, Note_on_c, 0, 55, 49
1, 179840, Note_off_c, 0, 45, 42
1, 179852, Note_off_c, 0, 53, 63
1, 180069, Control_c, 0, 64, 31
1, 180114, Control_c, 0, 64, 32
1, 180143, Control_c, 0, 64, 33
1, 180203, Control_c, 0, 64, 34
1, 180261, Note_on_c, 0, 45, 43
1, 180262, Control_c, 0, 64, 34
1, 180401, Note_off_c, 0, 43, 42
1, 180714, Control_c, 0, 64, 35
1, 180775, Note_on_c, 0, 46, 43
1, 180787, Control_c, 0, 64, 36
1, 180844, Note_off_c, 0, 45, 48
1, 180952, Control_c, 0, 64, 36
1, 181056, Control_c, 0, 64, 37
1, 181285, Note_on_c, 0, 48, 37
1, 181338, Control_c, 0, 64, 36
1, 181341, Note_off_c, 0, 46, 53
1, 181404, Control_c, 0, 64, 36
1, 181538, Control_c, 0, 64, 35
1, 181552, Control_c, 0, 64, 34
1, 181597, Control_c, 0, 64, 34
1, 181657, Control_c, 0, 64, 33
1, 181790, Control_c, 0, 64, 32
1, 181805, Note_on_c, 0, 53, 40
1, 181820, Control_c, 0, 64, 31
1, 181864, Control_c, 0, 64, 30
1, 181894, Control_c, 0, 64, 29
1, 181908, Control_c, 0, 64, 28
1, 181923, Control_c, 0, 64, 27
1, 181924, Note_off_c, 0, 55, 35
1, 181938, Control_c, 0, 64, 26
1, 181953, Control_c, 0, 64, 25
1, 181983, Control_c, 0, 64, 24
1, 181997, Control_c, 0, 64, 21
1, 182012, Control_c, 0, 64, 20
1, 182027, Control_c, 0, 64, 18
1, 182057, Control_c, 0, 64, 16
1, 182072, Control_c, 0, 64, 13
1, 182101, Control_c, 0, 64, 10
1, 182182, Control_c, 0, 64, 0
1, 182310, Note_on_c, 0, 52, 35
1, 182350, Note_off_c, 0, 53, 61
1, 182825, Note_on_c, 0, 55, 41
1, 182844, Note_on_c, 0, 46, 30
1, 182915, Note_off_c, 0, 48, 56
1, 182987, Note_off_c, 0, 52, 33
1, 183391, Note_on_c, 0, 53, 38
1, 183424, Note_off_c, 0, 55, 64
1, 183578, Note_off_c, 0, 46, 39
1, 183583, Control_c, 0, 64, 10
1, 183664, Control_c, 0, 64, 13
1, 183738, Control_c, 0, 64, 16
1, 183783, Control_c, 0, 64, 18
1, 183812, Control_c, 0, 64, 20
1, 183973, Note_on_c, 0, 57, 43
1, 183995, Note_on_c, 0, 52, 28
1, 184125, Control_c, 0, 64, 21
1, 184140, Control_c, 0, 64, 24
1, 184155, Control_c, 0, 64, 33
1, 184169, Control_c, 0, 64, 43
1, 184184, Control_c, 0, 64, 55
1, 184199, Control_c, 0, 64, 62
1, 184214, Control_c, 0, 64, 65
1, 184228, Control_c, 0, 64, 68
1, 184243, Control_c, 0, 64, 70
1, 184258, Control_c, 0, 64, 73
1, 184273, Control_c, 0, 64, 74
1, 184288, Control_c, 0, 64, 76
1, 184302, Control_c, 0, 64, 77
1, 184317, Control_c, 0, 64, 78
1, 184332, Control_c, 0, 64, 78
1, 184347, Control_c, 0, 64, 79
1, 184376, Control_c, 0, 64, 80
1, 184414, Control_c, 0, 64, 80
1, 184502, Control_c, 0, 64, 80
1, 184517, Control_c, 0, 64, 78
1, 184532, Control_c, 0, 64, 75
1, 184547, Control_c, 0, 64, 71
1, 184562, Control_c, 0, 64, 65
1, 184576, Control_c, 0, 64, 59
1, 184581, Note_on_c, 0, 62, 48
1, 184586, Note_on_c, 0, 50, 35
1, 184591, Control_c, 0, 64, 54
1, 184606, Control_c, 0, 64, 53
1, 184615, Note_off_c, 0, 57, 59
1, 184621, Control_c, 0, 64, 53
1, 184621, Note_off_c, 0, 52, 42
1, 184636, Control_c, 0, 64, 50
1, 184650, Control_c, 0, 64, 43
1, 184665, Control_c, 0, 64, 35
1, 184680, Control_c, 0, 64, 31
1, 184710, Control_c, 0, 64, 30
1, 184725, Control_c, 0, 64, 27
1, 184754, Control_c, 0, 64, 28
1, 184769, Control_c, 0, 64, 37
1, 184784, Control_c, 0, 64, 50
1, 184799, Control_c, 0, 64, 61
1, 184814, Control_c, 0, 64, 66
1, 184829, Control_c, 0, 64, 70
1, 184844, Control_c, 0, 64, 74
1, 184859, Control_c, 0, 64, 78
1, 184874, Control_c, 0, 64, 81
1, 184889, Control_c, 0, 64, 83
1, 184904, Control_c, 0, 64, 85
1, 184918, Control_c, 0, 64, 87
1, 184927, Note_off_c, 0, 62, 53
1, 184933, Control_c, 0, 64, 88
1, 184948, Control_c, 0, 64, 89
1, 184978, Control_c, 0, 64, 89
1, 185127, Note_on_c, 0, 62, 43
1, 185269, Note_off_c, 0, 53, 38
1, 185634, Note_on_c, 0, 57, 46
1, 185648, Note_on_c, 0, 53, 35
1, 185787, Note_off_c, 0, 62, 49
1, 185985, Control_c, 0, 64, 89
1, 186029, Control_c, 0, 64, 88
1, 186059, Control_c, 0, 64, 88
1, 186073, Control_c, 0, 64, 87
1, 186103, Control_c, 0, 64, 86
1, 186118, Control_c, 0, 64, 85
1, 186133, Control_c, 0, 64, 84
1, 186147, Control_c, 0, 64, 82
1, 186162, Control_c, 0, 64, 80
1, 186177, Control_c, 0, 64, 78
1, 186192, Note_on_c, 0, 62, 51
1, 186192, Control_c, 0, 64, 75
1, 186206, Control_c, 0, 64, 71
1, 186221, Control_c, 0, 64, 68
1, 186236, Control_c, 0, 64, 65
1, 186251, Control_c, 0, 64, 63
1, 186266, Control_c, 0, 64, 62
1, 186311, Control_c, 0, 64, 61
1, 186326, Control_c, 0, 64, 59
1, 186341, Control_c, 0, 64, 57
1, 186355, Control_c, 0, 64, 56
1, 186399, Control_c, 0, 64, 57
1, 186415, Control_c, 0, 64, 58
1, 186430, Control_c, 0, 64, 61
1, 186445, Control_c, 0, 64, 64
1, 186448, Note_off_c, 0, 57, 34
1, 186460, Control_c, 0, 64, 67
1, 186475, Control_c, 0, 64, 69
1, 186489, Control_c, 0, 64, 71
1, 186504, Control_c, 0, 64, 73
1, 186519, Control_c, 0, 64, 74
1, 186534, Control_c, 0, 64, 76
1, 186549, Control_c, 0, 64, 77
1, 186563, Control_c, 0, 64, 77
1, 186578, Control_c, 0, 64, 78
1, 186593, Control_c, 0, 64, 78
1, 186689, Control_c, 0, 64, 77
1, 186704, Control_c, 0, 64, 75
1, 186719, Control_c, 0, 64, 71
1, 186722, Note_on_c, 0, 58, 42
1, 186734, Control_c, 0, 64, 66
1, 186749, Control_c, 0, 64, 59
1, 186764, Control_c, 0, 64, 52
1, 186778, Control_c, 0, 64, 49
1, 186782, Note_off_c, 0, 50, 6
1, 186793, Control_c, 0, 64, 49
1, 186808, Control_c, 0, 64, 48
1, 186822, Control_c, 0, 64, 47
1, 186837, Control_c, 0, 64, 46
1, 186852, Control_c, 0, 64, 48
1, 186867, Control_c, 0, 64, 52
1, 186882, Control_c, 0, 64, 58
1, 186896, Control_c, 0, 64, 63
1, 186911, Control_c, 0, 64, 66
1, 186926, Control_c, 0, 64, 69
1, 186941, Control_c, 0, 64, 71
1, 186956, Control_c, 0, 64, 74
1, 186970, Control_c, 0, 64, 75
1, 186985, Control_c, 0, 64, 77
1, 187000, Control_c, 0, 64, 78
1, 187014, Control_c, 0, 64, 79
1, 187029, Control_c, 0, 64, 80
1, 187044, Control_c, 0, 64, 80
1, 187059, Control_c, 0, 64, 81
1, 187074, Control_c, 0, 64, 81
1, 187089, Control_c, 0, 64, 82
1, 187104, Control_c, 0, 64, 82
1, 187178, Control_c, 0, 64, 80
1, 187193, Control_c, 0, 64, 76
1, 187202, Note_on_c, 0, 60, 44
1, 187208, Control_c, 0, 64, 68
1, 187211, Note_off_c, 0, 62, 39
1, 187213, Note_on_c, 0, 57, 42
1, 187223, Control_c, 0, 64, 62
1, 187238, Control_c, 0, 64, 52
1, 187253, Control_c, 0, 64, 50
1, 187268, Control_c, 0, 64, 51
1, 187277, Note_off_c, 0, 58, 58
1, 187283, Control_c, 0, 64, 53
1, 187298, Control_c, 0, 64, 54
1, 187312, Control_c, 0, 64, 56
1, 187327, Control_c, 0, 64, 58
1, 187342, Control_c, 0, 64, 61
1, 187357, Control_c, 0, 64, 64
1, 187372, Control_c, 0, 64, 67
1, 187393, Control_c, 0, 64, 69
1, 187408, Control_c, 0, 64, 72
1, 187423, Control_c, 0, 64, 74
1, 187438, Control_c, 0, 64, 76
1, 187453, Control_c, 0, 64, 77
1, 187467, Control_c, 0, 64, 78
1, 187475, Note_on_c, 0, 62, 61
1, 187482, Control_c, 0, 64, 79
1, 187497, Control_c, 0, 64, 81
1, 187512, Control_c, 0, 64, 82
1, 187527, Control_c, 0, 64, 82
1, 187542, Control_c, 0, 64, 83
1, 187546, Note_off_c, 0, 57, 61
1, 187557, Control_c, 0, 64, 83
1, 187571, Control_c, 0, 64, 84
1, 187601, Control_c, 0, 64, 84
1, 187631, Control_c, 0, 64, 85
1, 187646, Control_c, 0, 64, 85
1, 187794, Control_c, 0, 64, 84
1, 187801, Note_on_c, 0, 64, 62
1, 187809, Control_c, 0, 64, 81
1, 187823, Note_on_c, 0, 55, 51
1, 187824, Control_c, 0, 64, 76
1, 187832, Note_on_c, 0, 48, 44
1, 187838, Control_c, 0, 64, 71
1, 187853, Control_c, 0, 64, 64
1, 187861, Note_off_c, 0, 62, 54
1, 187868, Control_c, 0, 64, 55
1, 187878, Note_off_c, 0, 60, 36
1, 187883, Control_c, 0, 64, 43
1, 187895, Note_off_c, 0, 53, 41
1, 187898, Control_c, 0, 64, 36
1, 187912, Control_c, 0, 64, 26
1, 187927, Control_c, 0, 64, 0
1, 188032, Control_c, 0, 64, 21
1, 188047, Control_c, 0, 64, 45
1, 188062, Control_c, 0, 64, 58
1, 188076, Control_c, 0, 64, 65
1, 188091, Control_c, 0, 64, 68
1, 188106, Control_c, 0, 64, 72
1, 188121, Control_c, 0, 64, 75
1, 188143, Control_c, 0, 64, 78
1, 188158, Control_c, 0, 64, 80
1, 188173, Control_c, 0, 64, 82
1, 188188, Control_c, 0, 64, 84
1, 188202, Control_c, 0, 64, 85
1, 188217, Control_c, 0, 64, 86
1, 188222, Note_off_c, 0, 64, 58
1, 188232, Control_c, 0, 64, 88
1, 188247, Control_c, 0, 64, 89
1, 188262, Control_c, 0, 64, 89
1, 188276, Control_c, 0, 64, 90
1, 188336, Control_c, 0, 64, 90
1, 188403, Note_on_c, 0, 64, 52
1, 188934, Note_on_c, 0, 57, 53
1, 189008, Note_off_c, 0, 64, 59
1, 189059, Note_off_c, 0, 55, 39
1, 189365, Control_c, 0, 64, 90
1, 189380, Control_c, 0, 64, 89
1, 189395, Control_c, 0, 64, 88
1, 189409, Control_c, 0, 64, 86
1, 189424, Control_c, 0, 64, 81
1, 189430, Note_on_c, 0, 62, 50
1, 189439, Control_c, 0, 64, 77
1, 189443, Note_on_c, 0, 58, 43
1, 189449, Note_on_c, 0, 53, 42
1, 189454, Control_c, 0, 64, 73
1, 189468, Note_off_c, 0, 57, 62
1, 189469, Control_c, 0, 64, 68
1, 189483, Control_c, 0, 64, 65
1, 189498, Control_c, 0, 64, 63
1, 189513, Control_c, 0, 64, 61
1, 189528, Control_c, 0, 64, 60
1, 189542, Control_c, 0, 64, 59
1, 189543, Note_off_c, 0, 48, 43
1, 189557, Control_c, 0, 64, 57
1, 189572, Control_c, 0, 64, 52
1, 189587, Control_c, 0, 64, 46
1, 189602, Control_c, 0, 64, 40
1, 189618, Control_c, 0, 64, 38
1, 189640, Control_c, 0, 64, 36
1, 189655, Control_c, 0, 64, 33
1, 189670, Control_c, 0, 64, 29
1, 189685, Control_c, 0, 64, 27
1, 189714, Control_c, 0, 64, 26
1, 189818, Control_c, 0, 64, 27
1, 189948, Note_on_c, 0, 57, 43
1, 189980, Control_c, 0, 64, 26
1, 189992, Note_off_c, 0, 58, 57
1, 190010, Control_c, 0, 64, 24
1, 190055, Control_c, 0, 64, 25
1, 190070, Control_c, 0, 64, 33
1, 190085, Control_c, 0, 64, 44
1, 190100, Control_c, 0, 64, 54
1, 190114, Control_c, 0, 64, 61
1, 190129, Control_c, 0, 64, 65
1, 190144, Control_c, 0, 64, 67
1, 190158, Control_c, 0, 64, 69
1, 190173, Control_c, 0, 64, 72
1, 190188, Control_c, 0, 64, 73
1, 190203, Control_c, 0, 64, 75
1, 190218, Control_c, 0, 64, 76
1, 190232, Control_c, 0, 64, 77
1, 190247, Control_c, 0, 64, 78
1, 190262, Control_c, 0, 64, 78
1, 190277, Control_c, 0, 64, 79
1, 190388, Control_c, 0, 64, 77
1, 190403, Control_c, 0, 64, 74
1, 190419, Control_c, 0, 64, 70
1, 190433, Note_on_c, 0, 55, 43
1, 190433, Control_c, 0, 64, 64
1, 190434, Note_on_c, 0, 46, 39
1, 190445, Note_off_c, 0, 57, 60
1, 190448, Control_c, 0, 64, 57
1, 190459, Note_off_c, 0, 53, 61
1, 190463, Control_c, 0, 64, 49
1, 190478, Control_c, 0, 64, 46
1, 190493, Control_c, 0, 64, 43
1, 190508, Control_c, 0, 64, 38
1, 190523, Control_c, 0, 64, 26
1, 190537, Control_c, 0, 64, 16
1, 190567, Control_c, 0, 64, 25
1, 190582, Control_c, 0, 64, 38
1, 190596, Control_c, 0, 64, 52
1, 190611, Control_c, 0, 64, 62
1, 190627, Control_c, 0, 64, 66
1, 190642, Control_c, 0, 64, 69
1, 190657, Control_c, 0, 64, 73
1, 190671, Control_c, 0, 64, 76
1, 190686, Control_c, 0, 64, 78
1, 190701, Control_c, 0, 64, 79
1, 190716, Control_c, 0, 64, 80
1, 190731, Control_c, 0, 64, 81
1, 190745, Control_c, 0, 64, 82
1, 190760, Control_c, 0, 64, 83
1, 190775, Control_c, 0, 64, 84
1, 190789, Control_c, 0, 64, 84
1, 190878, Control_c, 0, 64, 83
1, 190891, Note_off_c, 0, 62, 54
1, 190893, Control_c, 0, 64, 81
1, 190907, Note_on_c, 0, 60, 58
1, 190908, Control_c, 0, 64, 76
1, 190913, Note_on_c, 0, 57, 41
1, 190915, Note_on_c, 0, 53, 38
1, 190923, Control_c, 0, 64, 70
1, 190937, Control_c, 0, 64, 63
1, 190947, Note_off_c, 0, 55, 49
1, 190952, Control_c, 0, 64, 52
1, 190967, Control_c, 0, 64, 49
1, 190997, Control_c, 0, 64, 48
1, 191012, Control_c, 0, 64, 45
1, 191026, Note_off_c, 0, 46, 37
1, 191027, Control_c, 0, 64, 42
1, 191056, Control_c, 0, 64, 44
1, 191071, Control_c, 0, 64, 45
1, 191086, Control_c, 0, 64, 46
1, 191101, Control_c, 0, 64, 47
1, 191116, Control_c, 0, 64, 50
1, 191137, Control_c, 0, 64, 54
1, 191152, Control_c, 0, 64, 58
1, 191167, Control_c, 0, 64, 61
1, 191182, Control_c, 0, 64, 61
1, 191227, Control_c, 0, 64, 61
1, 191242, Control_c, 0, 64, 60
1, 191257, Control_c, 0, 64, 59
1, 191272, Control_c, 0, 64, 57
1, 191286, Control_c, 0, 64, 54
1, 191301, Control_c, 0, 64, 52
1, 191316, Control_c, 0, 64, 51
1, 191331, Control_c, 0, 64, 50
1, 191346, Control_c, 0, 64, 49
1, 191375, Control_c, 0, 64, 50
1, 191378, Note_off_c, 0, 57, 61
1, 191387, Note_on_c, 0, 55, 44
1, 191390, Control_c, 0, 64, 52
1, 191405, Control_c, 0, 64, 58
1, 191420, Control_c, 0, 64, 63
1, 191435, Control_c, 0, 64, 67
1, 191450, Control_c, 0, 64, 70
1, 191465, Control_c, 0, 64, 73
1, 191480, Control_c, 0, 64, 75
1, 191494, Control_c, 0, 64, 76
1, 191509, Control_c, 0, 64, 76
1, 191524, Control_c, 0, 64, 78
1, 191539, Control_c, 0, 64, 78
1, 191554, Control_c, 0, 64, 79
1, 191583, Control_c, 0, 64, 79
1, 191612, Note_on_c, 0, 52, 46
1, 191612, Control_c, 0, 64, 81
1, 191627, Control_c, 0, 64, 82
1, 191635, Note_off_c, 0, 53, 58
1, 191638, Note_off_c, 0, 55, 54
1, 191642, Control_c, 0, 64, 82
1, 191657, Control_c, 0, 64, 83
1, 191686, Control_c, 0, 64, 83
1, 191701, Control_c, 0, 64, 84
1, 191716, Control_c, 0, 64, 84
1, 191730, Control_c, 0, 64, 85
1, 191745, Control_c, 0, 64, 85
1, 191798, Note_off_c, 0, 52, 57
1, 191834, Control_c, 0, 64, 84
1, 191849, Control_c, 0, 64, 82
1, 191864, Control_c, 0, 64, 77
1, 191879, Control_c, 0, 64, 71
1, 191890, Note_on_c, 0, 62, 58
1, 191897, Note_on_c, 0, 53, 43
1, 191901, Control_c, 0, 64, 64
1, 191903, Note_on_c, 0, 50, 39
1, 191916, Control_c, 0, 64, 54
1, 191924, Note_off_c, 0, 60, 58
1, 191931, Control_c, 0, 64, 47
1, 191945, Control_c, 0, 64, 43
1, 191960, Control_c, 0, 64, 39
1, 191975, Control_c, 0, 64, 34
1, 191990, Control_c, 0, 64, 33
1, 192005, Control_c, 0, 64, 34
1, 192021, Control_c, 0, 64, 41
1, 192035, Control_c, 0, 64, 51
1, 192050, Control_c, 0, 64, 61
1, 192065, Control_c, 0, 64, 66
1, 192080, Control_c, 0, 64, 70
1, 192095, Control_c, 0, 64, 74
1, 192097, Note_off_c, 0, 53, 65
1, 192102, Note_off_c, 0, 50, 53
1, 192109, Control_c, 0, 64, 77
1, 192124, Control_c, 0, 64, 79
1, 192139, Control_c, 0, 64, 80
1, 192154, Control_c, 0, 64, 82
1, 192169, Control_c, 0, 64, 83
1, 192183, Control_c, 0, 64, 84
1, 192198, Control_c, 0, 64, 85
1, 192213, Control_c, 0, 64, 85
1, 192228, Control_c, 0, 64, 86
1, 192332, Control_c, 0, 64, 85
1, 192347, Control_c, 0, 64, 82
1, 192361, Control_c, 0, 64, 76
1, 192367, Note_on_c, 0, 57, 55
1, 192374, Note_off_c, 0, 62, 46
1, 192376, Control_c, 0, 64, 69
1, 192380, Note_on_c, 0, 48, 48
1, 192386, Note_on_c, 0, 52, 44
1, 192391, Control_c, 0, 64, 60
1, 192406, Control_c, 0, 64, 43
1, 192421, Control_c, 0, 64, 33
1, 192435, Control_c, 0, 64, 25
1, 192450, Control_c, 0, 64, 0
1, 192539, Control_c, 0, 64, 34
1, 192553, Control_c, 0, 64, 60
1, 192568, Control_c, 0, 64, 67
1, 192583, Control_c, 0, 64, 70
1, 192598, Control_c, 0, 64, 74
1, 192613, Control_c, 0, 64, 77
1, 192621, Note_off_c, 0, 48, 61
1, 192635, Control_c, 0, 64, 79
1, 192650, Control_c, 0, 64, 81
1, 192665, Control_c, 0, 64, 82
1, 192667, Note_off_c, 0, 52, 60
1, 192672, Note_on_c, 0, 46, 18
1, 192680, Control_c, 0, 64, 83
1, 192695, Control_c, 0, 64, 83
1, 192710, Control_c, 0, 64, 84
1, 192726, Note_off_c, 0, 46, 44
1, 192739, Control_c, 0, 64, 84
1, 192820, Note_off_c, 0, 57, 34
1, 192829, Control_c, 0, 64, 84
1, 192844, Control_c, 0, 64, 82
1, 192858, Control_c, 0, 64, 78
1, 192872, Note_on_c, 0, 58, 52
1, 192873, Control_c, 0, 64, 72
1, 192877, Note_on_c, 0, 50, 50
1, 192880, Note_on_c, 0, 46, 46
1, 192888, Control_c, 0, 64, 66
1, 192903, Control_c, 0, 64, 60
1, 192918, Control_c, 0, 64, 55
1, 192962, Control_c, 0, 64, 53
1, 192977, Control_c, 0, 64, 50
1, 192991, Control_c, 0, 64, 48
1, 193006, Control_c, 0, 64, 48
1, 193021, Control_c, 0, 64, 48
1, 193066, Control_c, 0, 64, 48
1, 193095, Control_c, 0, 64, 48
1, 193125, Control_c, 0, 64, 49
1, 193139, Note_on_c, 0, 52, 57
1, 193155, Control_c, 0, 64, 49
1, 193170, Control_c, 0, 64, 50
1, 193185, Control_c, 0, 64, 50
1, 193200, Control_c, 0, 64, 51
1, 193215, Control_c, 0, 64, 52
1, 193230, Control_c, 0, 64, 53
1, 193232, Note_off_c, 0, 50, 57
1, 193244, Control_c, 0, 64, 55
1, 193259, Control_c, 0, 64, 57
1, 193274, Control_c, 0, 64, 59
1, 193289, Control_c, 0, 64, 60
1, 193304, Control_c, 0, 64, 62
1, 193319, Control_c, 0, 64, 62
1, 193348, Control_c, 0, 64, 62
1, 193363, Control_c, 0, 64, 61
1, 193385, Control_c, 0, 64, 60
1, 193397, Note_off_c, 0, 52, 66
1, 193399, Control_c, 0, 64, 58
1, 193402, Note_on_c, 0, 53, 54
1, 193410, Note_on_c, 0, 62, 60
1, 193414, Control_c, 0, 64, 56
1, 193429, Control_c, 0, 64, 53
1, 193444, Control_c, 0, 64, 48
1, 193459, Control_c, 0, 64, 43
1, 193474, Control_c, 0, 64, 37
1, 193489, Control_c, 0, 64, 36
1, 193502, Note_off_c, 0, 58, 64
1, 193548, Control_c, 0, 64, 37
1, 193563, Control_c, 0, 64, 41
1, 193578, Control_c, 0, 64, 47
1, 193592, Control_c, 0, 64, 54
1, 193608, Control_c, 0, 64, 57
1, 193623, Control_c, 0, 64, 58
1, 193638, Control_c, 0, 64, 59
1, 193653, Control_c, 0, 64, 60
1, 193655, Note_off_c, 0, 53, 64
1, 193668, Control_c, 0, 64, 62
1, 193672, Note_on_c, 0, 55, 56
1, 193683, Control_c, 0, 64, 64
1, 193697, Control_c, 0, 64, 65
1, 193712, Control_c, 0, 64, 67
1, 193727, Control_c, 0, 64, 69
1, 193742, Control_c, 0, 64, 72
1, 193756, Control_c, 0, 64, 76
1, 193771, Control_c, 0, 64, 79
1, 193786, Control_c, 0, 64, 81
1, 193801, Control_c, 0, 64, 83
1, 193811, Note_off_c, 0, 55, 65
1, 193815, Control_c, 0, 64, 84
1, 193830, Control_c, 0, 64, 85
1, 193845, Control_c, 0, 64, 85
1, 193859, Note_off_c, 0, 46, 53
1, 193860, Control_c, 0, 64, 86
1, 193993, Control_c, 0, 64, 85
1, 194008, Control_c, 0, 64, 82
1, 194018, Note_on_c, 0, 69, 67
1, 194019, Note_on_c, 0, 57, 50
1, 194022, Control_c, 0, 64, 77
1, 194026, Note_on_c, 0, 45, 52
1, 194037, Note_on_c, 0, 60, 48
1, 194037, Control_c, 0, 64, 70
1, 194052, Control_c, 0, 64, 64
1, 194062, Note_off_c, 0, 62, 58
1, 194067, Control_c, 0, 64, 51
1, 194082, Control_c, 0, 64, 40
1, 194097, Control_c, 0, 64, 32
1, 194112, Control_c, 0, 64, 18
1, 194133, Control_c, 0, 64, 0
1, 194267, Control_c, 0, 64, 39
1, 194282, Control_c, 0, 64, 60
1, 194297, Control_c, 0, 64, 66
1, 194312, Control_c, 0, 64, 70
1, 194326, Control_c, 0, 64, 74
1, 194341, Control_c, 0, 64, 78
1, 194356, Control_c, 0, 64, 80
1, 194371, Control_c, 0, 64, 82
1, 194386, Control_c, 0, 64, 83
1, 194397, Note_off_c, 0, 69, 60
1, 194401, Control_c, 0, 64, 84
1, 194416, Control_c, 0, 64, 85
1, 194431, Control_c, 0, 64, 85
1, 194446, Control_c, 0, 64, 86
1, 194461, Control_c, 0, 64, 86
1, 194535, Control_c, 0, 64, 87
1, 194541, Note_on_c, 0, 69, 61
1, 194594, Control_c, 0, 64, 87
1, 194609, Control_c, 0, 64, 88
1, 194624, Control_c, 0, 64, 89
1, 194638, Control_c, 0, 64, 90
1, 194668, Control_c, 0, 64, 90
1, 194686, Note_off_c, 0, 45, 59
1, 194712, Control_c, 0, 64, 91
1, 195031, Note_on_c, 0, 64, 58
1, 195044, Note_on_c, 0, 43, 48
1, 195128, Note_off_c, 0, 60, 54
1, 195153, Note_off_c, 0, 69, 50
1, 195291, Note_off_c, 0, 57, 51
1, 195460, Control_c, 0, 64, 90
1, 195505, Control_c, 0, 64, 90
1, 195520, Control_c, 0, 64, 89
1, 195522, Note_on_c, 0, 69, 58
1, 195534, Control_c, 0, 64, 88
1, 195536, Note_on_c, 0, 60, 50
1, 195549, Control_c, 0, 64, 85
1, 195564, Control_c, 0, 64, 82
1, 195565, Note_off_c, 0, 64, 60
1, 195578, Control_c, 0, 64, 78
1, 195593, Control_c, 0, 64, 74
1, 195608, Control_c, 0, 64, 69
1, 195623, Control_c, 0, 64, 65
1, 195646, Control_c, 0, 64, 63
1, 195690, Control_c, 0, 64, 63
1, 195720, Control_c, 0, 64, 64
1, 195734, Control_c, 0, 64, 66
1, 195749, Control_c, 0, 64, 68
1, 195764, Control_c, 0, 64, 70
1, 195778, Control_c, 0, 64, 72
1, 195793, Control_c, 0, 64, 74
1, 195808, Control_c, 0, 64, 75
1, 195823, Control_c, 0, 64, 77
1, 195838, Control_c, 0, 64, 78
1, 195853, Control_c, 0, 64, 78
1, 195867, Control_c, 0, 64, 79
1, 195882, Control_c, 0, 64, 80
1, 195897, Control_c, 0, 64, 80
1, 195911, Control_c, 0, 64, 81
1, 196031, Control_c, 0, 64, 79
1, 196040, Note_on_c, 0, 65, 52
1, 196043, Note_off_c, 0, 43, 34
1, 196046, Control_c, 0, 64, 75
1, 196055, Note_on_c, 0, 41, 46
1, 196061, Control_c, 0, 64, 70
1, 196075, Control_c, 0, 64, 64
1, 196090, Control_c, 0, 64, 54
1, 196105, Control_c, 0, 64, 39
1, 196120, Control_c, 0, 64, 31
1, 196149, Control_c, 0, 64, 32
1, 196164, Control_c, 0, 64, 36
1, 196179, Control_c, 0, 64, 44
1, 196194, Control_c, 0, 64, 55
1, 196208, Control_c, 0, 64, 64
1, 196223, Control_c, 0, 64, 69
1, 196238, Control_c, 0, 64, 73
1, 196253, Control_c, 0, 64, 77
1, 196268, Control_c, 0, 64, 80
1, 196270, Note_off_c, 0, 60, 59
1, 196282, Control_c, 0, 64, 81
1, 196297, Control_c, 0, 64, 83
1, 196312, Control_c, 0, 64, 84
1, 196327, Control_c, 0, 64, 85
1, 196342, Control_c, 0, 64, 86
1, 196356, Control_c, 0, 64, 87
1, 196387, Note_off_c, 0, 69, 55
1, 196394, Control_c, 0, 64, 87
1, 196511, Note_on_c, 0, 67, 57
1, 196524, Note_on_c, 0, 64, 51
1, 196559, Note_off_c, 0, 65, 51
1, 196764, Note_on_c, 0, 69, 69
1, 196826, Note_off_c, 0, 64, 63
1, 196957, Control_c, 0, 64, 88
1, 197017, Control_c, 0, 64, 87
1, 197031, Control_c, 0, 64, 85
1, 197046, Control_c, 0, 64, 81
1, 197047, Note_on_c, 0, 70, 66
1, 197060, Note_on_c, 0, 55, 46
1, 197060, Note_on_c, 0, 62, 49
1, 197061, Control_c, 0, 64, 76
1, 197076, Control_c, 0, 64, 67
1, 197087, Note_off_c, 0, 69, 63
1, 197088, Note_off_c, 0, 67, 40
1, 197091, Control_c, 0, 64, 59
1, 197105, Control_c, 0, 64, 43
1, 197128, Control_c, 0, 64, 36
1, 197143, Control_c, 0, 64, 30
1, 197157, Control_c, 0, 64, 20
1, 197172, Control_c, 0, 64, 0
1, 197217, Control_c, 0, 64, 13
1, 197231, Control_c, 0, 64, 46
1, 197246, Control_c, 0, 64, 62
1, 197261, Control_c, 0, 64, 67
1, 197276, Control_c, 0, 64, 71
1, 197291, Control_c, 0, 64, 75
1, 197305, Control_c, 0, 64, 78
1, 197320, Control_c, 0, 64, 81
1, 197335, Control_c, 0, 64, 83
1, 197349, Control_c, 0, 64, 85
1, 197365, Note_off_c, 0, 70, 53
1, 197365, Control_c, 0, 64, 87
1, 197380, Control_c, 0, 64, 88
1, 197395, Control_c, 0, 64, 89
1, 197410, Control_c, 0, 64, 90
1, 197425, Control_c, 0, 64, 90
1, 197454, Control_c, 0, 64, 91
1, 197537, Note_on_c, 0, 70, 55
1, 197543, Note_off_c, 0, 55, 42
1, 197573, Control_c, 0, 64, 91
1, 197633, Control_c, 0, 64, 92
1, 197722, Note_off_c, 0, 41, 51
1, 197737, Control_c, 0, 64, 92
1, 197877, Control_c, 0, 64, 93
1, 198053, Note_on_c, 0, 64, 54
1, 198068, Note_on_c, 0, 40, 46
1, 198183, Note_off_c, 0, 62, 58
1, 198225, Note_off_c, 0, 70, 51
1, 198288, Note_off_c, 0, 64, 62
1, 198381, Control_c, 0, 64, 93
1, 198411, Control_c, 0, 64, 94
1, 198530, Control_c, 0, 64, 92
1, 198544, Control_c, 0, 64, 88
1, 198548, Note_on_c, 0, 65, 57
1, 198555, Note_on_c, 0, 69, 61
1, 198559, Control_c, 0, 64, 83
1, 198562, Note_on_c, 0, 58, 50
1, 198568, Note_on_c, 0, 38, 46
1, 198574, Control_c, 0, 64, 76
1, 198577, Note_off_c, 0, 40, 41
1, 198589, Control_c, 0, 64, 70
1, 198604, Control_c, 0, 64, 63
1, 198626, Control_c, 0, 64, 57
1, 198641, Control_c, 0, 64, 55
1, 198685, Control_c, 0, 64, 54
1, 198700, Control_c, 0, 64, 51
1, 198715, Control_c, 0, 64, 49
1, 198729, Control_c, 0, 64, 48
1, 198744, Control_c, 0, 64, 49
1, 198759, Control_c, 0, 64, 50
1, 198774, Control_c, 0, 64, 51
1, 198789, Control_c, 0, 64, 53
1, 198804, Control_c, 0, 64, 56
1, 198819, Control_c, 0, 64, 61
1, 198834, Control_c, 0, 64, 65
1, 198849, Control_c, 0, 64, 68
1, 198863, Control_c, 0, 64, 71
1, 198878, Control_c, 0, 64, 74
1, 198893, Control_c, 0, 64, 78
1, 198908, Control_c, 0, 64, 81
1, 198922, Control_c, 0, 64, 83
1, 198937, Control_c, 0, 64, 85
1, 198952, Control_c, 0, 64, 87
1, 198967, Control_c, 0, 64, 89
1, 198982, Control_c, 0, 64, 92
1, 198996, Control_c, 0, 64, 94
1, 199011, Control_c, 0, 64, 95
1, 199012, Note_off_c, 0, 58, 60
1, 199026, Control_c, 0, 64, 96
1, 199029, Note_on_c, 0, 64, 51
1, 199041, Control_c, 0, 64, 97
1, 199056, Control_c, 0, 64, 97
1, 199070, Control_c, 0, 64, 98
1, 199096, Note_off_c, 0, 65, 57
1, 199100, Control_c, 0, 64, 99
1, 199115, Control_c, 0, 64, 99
1, 199273, Note_on_c, 0, 36, 52
1, 199293, Note_off_c, 0, 38, 40
1, 199344, Note_off_c, 0, 64, 38
1, 199479, Control_c, 0, 64, 99
1, 199494, Control_c, 0, 64, 96
1, 199508, Control_c, 0, 64, 90
1, 199523, Control_c, 0, 64, 82
1, 199528, Note_on_c, 0, 62, 59
1, 199529, Note_on_c, 0, 38, 53
1, 199537, Note_on_c, 0, 53, 52
1, 199538, Control_c, 0, 64, 73
1, 199543, Note_off_c, 0, 36, 37
1, 199552, Control_c, 0, 64, 65
1, 199567, Control_c, 0, 64, 45
1, 199582, Control_c, 0, 64, 13
1, 199597, Control_c, 0, 64, 0
1, 199671, Control_c, 0, 64, 28
1, 199686, Control_c, 0, 64, 60
1, 199700, Control_c, 0, 64, 67
1, 199715, Control_c, 0, 64, 74
1, 199730, Control_c, 0, 64, 80
1, 199733, Note_off_c, 0, 53, 65
1, 199744, Control_c, 0, 64, 85
1, 199751, Note_off_c, 0, 69, 65
1, 199759, Control_c, 0, 64, 88
1, 199774, Control_c, 0, 64, 89
1, 199789, Control_c, 0, 64, 90
1, 199804, Control_c, 0, 64, 92
1, 199818, Control_c, 0, 64, 93
1, 199833, Control_c, 0, 64, 94
1, 199945, Note_off_c, 0, 62, 37
1, 199951, Control_c, 0, 64, 93
1, 199966, Control_c, 0, 64, 92
1, 199981, Control_c, 0, 64, 88
1, 199997, Control_c, 0, 64, 83
1, 200012, Control_c, 0, 64, 76
1, 200017, Note_on_c, 0, 67, 63
1, 200025, Note_on_c, 0, 64, 57
1, 200027, Control_c, 0, 64, 69
1, 200029, Note_on_c, 0, 43, 50
1, 200032, Note_on_c, 0, 60, 46
1, 200041, Control_c, 0, 64, 62
1, 200056, Control_c, 0, 64, 57
1, 200071, Control_c, 0, 64, 56
1, 200086, Control_c, 0, 64, 55
1, 200101, Control_c, 0, 64, 54
1, 200116, Control_c, 0, 64, 51
1, 200136, Note_off_c, 0, 38, 42
1, 200138, Control_c, 0, 64, 45
1, 200153, Control_c, 0, 64, 42
1, 200227, Control_c, 0, 64, 43
1, 200242, Control_c, 0, 64, 43
1, 200256, Control_c, 0, 64, 45
1, 200271, Control_c, 0, 64, 46
1, 200286, Control_c, 0, 64, 47
1, 200301, Control_c, 0, 64, 49
1, 200316, Control_c, 0, 64, 52
1, 200330, Control_c, 0, 64, 56
1, 200345, Control_c, 0, 64, 59
1, 200361, Control_c, 0, 64, 61
1, 200375, Control_c, 0, 64, 63
1, 200390, Control_c, 0, 64, 63
1, 200405, Control_c, 0, 64, 64
1, 200420, Control_c, 0, 64, 65
1, 200449, Control_c, 0, 64, 65
1, 200464, Control_c, 0, 64, 66
1, 200494, Control_c, 0, 64, 67
1, 200509, Control_c, 0, 64, 68
1, 200512, Note_on_c, 0, 62, 54
1, 200524, Control_c, 0, 64, 70
1, 200539, Control_c, 0, 64, 72
1, 200554, Control_c, 0, 64, 73
1, 200568, Control_c, 0, 64, 75
1, 200583, Control_c, 0, 64, 76
1, 200598, Control_c, 0, 64, 78
1, 200604, Note_off_c, 0, 64, 38
1, 200613, Control_c, 0, 64, 79
1, 200628, Control_c, 0, 64, 80
1, 200642, Control_c, 0, 64, 81
1, 200647, Note_off_c, 0, 67, 46
1, 200672, Control_c, 0, 64, 81
1, 200687, Control_c, 0, 64, 82
1, 200701, Control_c, 0, 64, 82
1, 200731, Control_c, 0, 64, 83
1, 200739, Note_on_c, 0, 58, 60
1, 200746, Control_c, 0, 64, 83
1, 200775, Control_c, 0, 64, 84
1, 200793, Note_off_c, 0, 60, 60
1, 200794, Note_off_c, 0, 62, 59
1, 200806, Control_c, 0, 64, 84
1, 200824, Note_off_c, 0, 58, 64
1, 200836, Control_c, 0, 64, 85
1, 200932, Control_c, 0, 64, 85
1, 200992, Control_c, 0, 64, 85
1, 201003, Note_on_c, 0, 69, 63
1, 201006, Control_c, 0, 64, 83
1, 201008, Note_on_c, 0, 57, 54
1, 201013, Note_on_c, 0, 60, 52
1, 201021, Control_c, 0, 64, 80
1, 201026, Note_on_c, 0, 40, 49
1, 201036, Control_c, 0, 64, 74
1, 201051, Control_c, 0, 64, 68
1, 201060, Note_off_c, 0, 43, 35
1, 201066, Control_c, 0, 64, 61
1, 201080, Control_c, 0, 64, 48
1, 201095, Control_c, 0, 64, 42
1, 201110, Control_c, 0, 64, 41
1, 201124, Control_c, 0, 64, 41
1, 201139, Control_c, 0, 64, 39
1, 201154, Control_c, 0, 64, 38
1, 201169, Control_c, 0, 64, 40
1, 201184, Control_c, 0, 64, 48
1, 201198, Control_c, 0, 64, 60
1, 201213, Control_c, 0, 64, 65
1, 201228, Control_c, 0, 64, 68
1, 201233, Note_off_c, 0, 69, 63
1, 201243, Control_c, 0, 64, 72
1, 201247, Note_on_c, 0, 41, 58
1, 201258, Control_c, 0, 64, 76
1, 201272, Control_c, 0, 64, 78
1, 201281, Note_off_c, 0, 57, 55
1, 201287, Control_c, 0, 64, 80
1, 201299, Note_off_c, 0, 60, 57
1, 201302, Control_c, 0, 64, 81
1, 201317, Control_c, 0, 64, 81
1, 201332, Control_c, 0, 64, 82
1, 201347, Control_c, 0, 64, 82
1, 201347, Note_off_c, 0, 40, 28
1, 201361, Control_c, 0, 64, 83
1, 201376, Control_c, 0, 64, 83
1, 201406, Control_c, 0, 64, 84
1, 201495, Control_c, 0, 64, 83
1, 201510, Control_c, 0, 64, 81
1, 201521, Note_on_c, 0, 64, 62
1, 201522, Note_on_c, 0, 60, 53
1, 201524, Control_c, 0, 64, 76
1, 201525, Note_on_c, 0, 43, 55
1, 201528, Note_off_c, 0, 41, 37
1, 201532, Note_on_c, 0, 55, 47
1, 201539, Control_c, 0, 64, 70
1, 201554, Control_c, 0, 64, 63
1, 201569, Control_c, 0, 64, 44
1, 201584, Control_c, 0, 64, 34
1, 201600, Control_c, 0, 64, 29
1, 201621, Control_c, 0, 64, 23
1, 201636, Control_c, 0, 64, 0
1, 201695, Control_c, 0, 64, 46
1, 201710, Control_c, 0, 64, 64
1, 201725, Control_c, 0, 64, 69
1, 201740, Control_c, 0, 64, 73
1, 201755, Control_c, 0, 64, 78
1, 201770, Control_c, 0, 64, 80
1, 201785, Control_c, 0, 64, 81
1, 201800, Control_c, 0, 64, 82
1, 201829, Note_off_c, 0, 55, 61
1, 201829, Control_c, 0, 64, 82
1, 201874, Control_c, 0, 64, 83
1, 202056, Note_on_c, 0, 55, 57
1, 202563, Control_c, 0, 64, 82
1, 202571, Note_on_c, 0, 57, 56
1, 202637, Note_off_c, 0, 60, 51
1, 202637, Control_c, 0, 64, 82
1, 202844, Control_c, 0, 64, 81
1, 203007, Control_c, 0, 64, 81
1, 203022, Control_c, 0, 64, 80
1, 203037, Control_c, 0, 64, 79
1, 203052, Control_c, 0, 64, 78
1, 203065, Note_on_c, 0, 58, 55
1, 203066, Note_on_c, 0, 62, 64
1, 203066, Control_c, 0, 64, 76
1, 203072, Note_off_c, 0, 57, 56
1, 203081, Control_c, 0, 64, 74
1, 203096, Control_c, 0, 64, 72
1, 203111, Control_c, 0, 64, 69
1, 203133, Control_c, 0, 64, 67
1, 203148, Control_c, 0, 64, 65
1, 203159, Note_off_c, 0, 64, 61
1, 203163, Control_c, 0, 64, 64
1, 203193, Control_c, 0, 64, 64
1, 203208, Control_c, 0, 64, 63
1, 203223, Control_c, 0, 64, 62
1, 203238, Control_c, 0, 64, 61
1, 203282, Control_c, 0, 64, 61
1, 203297, Control_c, 0, 64, 60
1, 203312, Control_c, 0, 64, 59
1, 203327, Control_c, 0, 64, 58
1, 203356, Control_c, 0, 64, 59
1, 203415, Control_c, 0, 64, 59
1, 203430, Control_c, 0, 64, 60
1, 203505, Control_c, 0, 64, 60
1, 203549, Control_c, 0, 64, 60
1, 203575, Note_on_c, 0, 64, 65
1, 203579, Control_c, 0, 64, 59
1, 203608, Control_c, 0, 64, 59
1, 203623, Control_c, 0, 64, 58
1, 203638, Control_c, 0, 64, 58
1, 203697, Control_c, 0, 64, 58
1, 203711, Control_c, 0, 64, 59
1, 203726, Control_c, 0, 64, 62
1, 203741, Control_c, 0, 64, 65
1, 203756, Control_c, 0, 64, 69
1, 203771, Control_c, 0, 64, 75
1, 203785, Control_c, 0, 64, 79
1, 203800, Control_c, 0, 64, 81
1, 203815, Control_c, 0, 64, 83
1, 203830, Control_c, 0, 64, 85
1, 203845, Control_c, 0, 64, 88
1, 203860, Control_c, 0, 64, 90
1, 203882, Control_c, 0, 64, 92
1, 203897, Control_c, 0, 64, 93
1, 203941, Control_c, 0, 64, 93
1, 204046, Control_c, 0, 64, 91
1, 204061, Control_c, 0, 64, 86
1, 204070, Note_on_c, 0, 65, 71
1, 204076, Control_c, 0, 64, 80
1, 204077, Note_on_c, 0, 57, 53
1, 204082, Note_on_c, 0, 48, 57
1, 204087, Note_on_c, 0, 45, 51
1, 204090, Control_c, 0, 64, 74
1, 204105, Control_c, 0, 64, 68
1, 204108, Note_off_c, 0, 62, 61
1, 204115, Note_off_c, 0, 64, 59
1, 204120, Control_c, 0, 64, 63
1, 204133, Note_off_c, 0, 58, 59
1, 204135, Control_c, 0, 64, 56
1, 204149, Control_c, 0, 64, 53
1, 204155, Note_off_c, 0, 55, 57
1, 204164, Control_c, 0, 64, 52
1, 204179, Control_c, 0, 64, 50
1, 204188, Note_off_c, 0, 43, 28
1, 204194, Control_c, 0, 64, 47
1, 204209, Control_c, 0, 64, 46
1, 204238, Control_c, 0, 64, 47
1, 204253, Control_c, 0, 64, 55
1, 204268, Control_c, 0, 64, 63
1, 204283, Control_c, 0, 64, 67
1, 204298, Control_c, 0, 64, 72
1, 204313, Control_c, 0, 64, 78
1, 204327, Control_c, 0, 64, 83
1, 204342, Control_c, 0, 64, 86
1, 204357, Control_c, 0, 64, 87
1, 204372, Control_c, 0, 64, 89
1, 204387, Control_c, 0, 64, 90
1, 204393, Note_off_c, 0, 57, 56
1, 204402, Control_c, 0, 64, 91
1, 204416, Control_c, 0, 64, 92
1, 204446, Control_c, 0, 64, 92
1, 204549, Control_c, 0, 64, 92
1, 204564, Control_c, 0, 64, 90
1, 204579, Control_c, 0, 64, 87
1, 204594, Control_c, 0, 64, 81
1, 204596, Note_on_c, 0, 67, 68
1, 204600, Note_on_c, 0, 55, 58
1, 204605, Note_on_c, 0, 46, 60
1, 204608, Note_off_c, 0, 48, 30
1, 204608, Note_on_c, 0, 50, 53
1, 204609, Control_c, 0, 64, 75
1, 204631, Control_c, 0, 64, 68
1, 204646, Control_c, 0, 64, 64
1, 204655, Note_off_c, 0, 65, 63
1, 204657, Note_off_c, 0, 45, 54
1, 204661, Control_c, 0, 64, 61
1, 204675, Control_c, 0, 64, 60
1, 204705, Control_c, 0, 64, 60
1, 204720, Control_c, 0, 64, 58
1, 204735, Control_c, 0, 64, 56
1, 204749, Control_c, 0, 64, 53
1, 204764, Control_c, 0, 64, 53
1, 204840, Control_c, 0, 64, 53
1, 204854, Control_c, 0, 64, 55
1, 204869, Control_c, 0, 64, 57
1, 204884, Control_c, 0, 64, 59
1, 204899, Control_c, 0, 64, 61
1, 204914, Control_c, 0, 64, 62
1, 204928, Control_c, 0, 64, 63
1, 204943, Control_c, 0, 64, 64
1, 204958, Control_c, 0, 64, 65
1, 204972, Control_c, 0, 64, 65
1, 204987, Control_c, 0, 64, 66
1, 205002, Control_c, 0, 64, 67
1, 205017, Control_c, 0, 64, 68
1, 205032, Control_c, 0, 64, 69
1, 205046, Control_c, 0, 64, 70
1, 205061, Control_c, 0, 64, 71
1, 205076, Control_c, 0, 64, 72
1, 205091, Control_c, 0, 64, 72
1, 205106, Control_c, 0, 64, 73
1, 205120, Control_c, 0, 64, 74
1, 205126, Note_on_c, 0, 57, 62
1, 205135, Control_c, 0, 64, 74
1, 205150, Control_c, 0, 64, 75
1, 205165, Control_c, 0, 64, 75
1, 205180, Control_c, 0, 64, 76
1, 205210, Control_c, 0, 64, 77
1, 205225, Control_c, 0, 64, 77
1, 205239, Control_c, 0, 64, 78
1, 205254, Control_c, 0, 64, 79
1, 205269, Control_c, 0, 64, 80
1, 205283, Control_c, 0, 64, 81
1, 205298, Control_c, 0, 64, 82
1, 205313, Control_c, 0, 64, 83
1, 205328, Control_c, 0, 64, 84
1, 205335, Note_off_c, 0, 55, 51
1, 205343, Control_c, 0, 64, 85
1, 205365, Control_c, 0, 64, 86
1, 205380, Control_c, 0, 64, 87
1, 205395, Control_c, 0, 64, 87
1, 205409, Control_c, 0, 64, 88
1, 205424, Control_c, 0, 64, 89
1, 205439, Control_c, 0, 64, 90
1, 205454, Control_c, 0, 64, 91
1, 205469, Control_c, 0, 64, 91
1, 205484, Control_c, 0, 64, 92
1, 205498, Control_c, 0, 64, 92
1, 205528, Control_c, 0, 64, 93
1, 205572, Control_c, 0, 64, 93
1, 205636, Note_on_c, 0, 58, 63
1, 205648, Control_c, 0, 64, 94
1, 205668, Note_off_c, 0, 46, 58
1, 205788, Note_off_c, 0, 50, 47
1, 205795, Note_off_c, 0, 57, 55
1, 205943, Control_c, 0, 64, 94
1, 206128, Control_c, 0, 64, 92
1, 206143, Control_c, 0, 64, 89
1, 206147, Note_on_c, 0, 52, 58
1, 206149, Note_on_c, 0, 60, 65
1, 206157, Note_on_c, 0, 45, 57
1, 206158, Control_c, 0, 64, 84
1, 206173, Control_c, 0, 64, 78
1, 206187, Control_c, 0, 64, 71
1, 206201, Note_off_c, 0, 58, 65
1, 206202, Control_c, 0, 64, 66
1, 206217, Control_c, 0, 64, 60
1, 206232, Control_c, 0, 64, 57
1, 206247, Control_c, 0, 64, 56
1, 206277, Control_c, 0, 64, 55
1, 206292, Control_c, 0, 64, 54
1, 206321, Control_c, 0, 64, 56
1, 206336, Control_c, 0, 64, 59
1, 206351, Control_c, 0, 64, 63
1, 206366, Control_c, 0, 64, 65
1, 206381, Control_c, 0, 64, 67
1, 206396, Control_c, 0, 64, 70
1, 206411, Control_c, 0, 64, 74
1, 206426, Control_c, 0, 64, 78
1, 206441, Control_c, 0, 64, 81
1, 206456, Control_c, 0, 64, 83
1, 206471, Control_c, 0, 64, 84
1, 206485, Control_c, 0, 64, 86
1, 206500, Control_c, 0, 64, 87
1, 206515, Control_c, 0, 64, 88
1, 206530, Control_c, 0, 64, 89
1, 206544, Control_c, 0, 64, 90
1, 206559, Control_c, 0, 64, 91
1, 206574, Control_c, 0, 64, 91
1, 206589, Control_c, 0, 64, 92
1, 206618, Control_c, 0, 64, 92
1, 206658, Note_on_c, 0, 65, 79
1, 206668, Note_on_c, 0, 53, 61
1, 206692, Control_c, 0, 64, 93
1, 206760, Note_off_c, 0, 67, 52
1, 206840, Note_off_c, 0, 45, 61
1, 206892, Control_c, 0, 64, 93
1, 206894, Note_off_c, 0, 53, 53
1, 206981, Control_c, 0, 64, 94
1, 207011, Control_c, 0, 64, 94
1, 207025, Control_c, 0, 64, 95
1, 207040, Control_c, 0, 64, 95
1, 207147, Note_on_c, 0, 64, 81
1, 207157, Note_on_c, 0, 55, 69
1, 207158, Control_c, 0, 64, 95
1, 207164, Note_on_c, 0, 43, 66
1, 207172, Note_off_c, 0, 52, 62
1, 207173, Control_c, 0, 64, 92
1, 207189, Control_c, 0, 64, 87
1, 207204, Control_c, 0, 64, 81
1, 207208, Note_off_c, 0, 65, 57
1, 207219, Control_c, 0, 64, 74
1, 207233, Control_c, 0, 64, 68
1, 207248, Control_c, 0, 64, 63
1, 207263, Control_c, 0, 64, 56
1, 207278, Control_c, 0, 64, 55
1, 207293, Control_c, 0, 64, 59
1, 207307, Control_c, 0, 64, 64
1, 207322, Control_c, 0, 64, 68
1, 207337, Control_c, 0, 64, 73
1, 207352, Note_off_c, 0, 60, 40
1, 207352, Control_c, 0, 64, 79
1, 207366, Control_c, 0, 64, 84
1, 207381, Control_c, 0, 64, 86
1, 207396, Control_c, 0, 64, 88
1, 207401, Note_off_c, 0, 55, 63
1, 207411, Control_c, 0, 64, 89
1, 207426, Control_c, 0, 64, 91
1, 207440, Control_c, 0, 64, 92
1, 207448, Note_off_c, 0, 43, 61
1, 207455, Control_c, 0, 64, 93
1, 207470, Control_c, 0, 64, 94
1, 207484, Control_c, 0, 64, 94
1, 207499, Control_c, 0, 64, 95
1, 207514, Control_c, 0, 64, 96
1, 207529, Control_c, 0, 64, 96
1, 207626, Control_c, 0, 64, 96
1, 207640, Control_c, 0, 64, 93
1, 207654, Note_on_c, 0, 69, 81
1, 207655, Control_c, 0, 64, 89
1, 207664, Note_on_c, 0, 41, 73
1, 207666, Note_on_c, 0, 60, 74
1, 207667, Note_on_c, 0, 57, 62
1, 207669, Note_off_c, 0, 64, 55
1, 207670, Control_c, 0, 64, 82
1, 207685, Control_c, 0, 64, 76
1, 207699, Control_c, 0, 64, 69
1, 207714, Control_c, 0, 64, 64
1, 207729, Control_c, 0, 64, 60
1, 207744, Control_c, 0, 64, 58
1, 207759, Control_c, 0, 64, 58
1, 207788, Control_c, 0, 64, 56
1, 207803, Control_c, 0, 64, 54
1, 207818, Control_c, 0, 64, 51
1, 207833, Control_c, 0, 64, 49
1, 207848, Control_c, 0, 64, 48
1, 207863, Control_c, 0, 64, 47
1, 207878, Control_c, 0, 64, 42
1, 207892, Control_c, 0, 64, 33
1, 207907, Control_c, 0, 64, 27
1, 207937, Control_c, 0, 64, 26
1, 207952, Control_c, 0, 64, 25
1, 207966, Control_c, 0, 64, 23
1, 208012, Control_c, 0, 64, 24
1, 208027, Control_c, 0, 64, 26
1, 208042, Control_c, 0, 64, 29
1, 208056, Control_c, 0, 64, 33
1, 208071, Control_c, 0, 64, 35
1, 208086, Control_c, 0, 64, 37
1, 208101, Control_c, 0, 64, 39
1, 208115, Control_c, 0, 64, 40
1, 208130, Control_c, 0, 64, 41
1, 208175, Control_c, 0, 64, 40
1, 208198, Note_on_c, 0, 62, 74
1, 208204, Control_c, 0, 64, 39
1, 208234, Control_c, 0, 64, 38
1, 208249, Control_c, 0, 64, 37
1, 208263, Control_c, 0, 64, 36
1, 208307, Control_c, 0, 64, 38
1, 208322, Control_c, 0, 64, 41
1, 208337, Control_c, 0, 64, 46
1, 208359, Note_off_c, 0, 60, 46
1, 208360, Control_c, 0, 64, 53
1, 208375, Control_c, 0, 64, 62
1, 208389, Control_c, 0, 64, 65
1, 208404, Control_c, 0, 64, 68
1, 208419, Control_c, 0, 64, 71
1, 208434, Control_c, 0, 64, 74
1, 208449, Control_c, 0, 64, 77
1, 208463, Control_c, 0, 64, 80
1, 208478, Control_c, 0, 64, 82
1, 208493, Control_c, 0, 64, 84
1, 208508, Control_c, 0, 64, 86
1, 208522, Control_c, 0, 64, 88
1, 208537, Control_c, 0, 64, 89
1, 208552, Control_c, 0, 64, 91
1, 208567, Control_c, 0, 64, 92
1, 208582, Control_c, 0, 64, 93
1, 208596, Control_c, 0, 64, 93
1, 208671, Control_c, 0, 64, 93
1, 208680, Note_on_c, 0, 64, 77
1, 208685, Control_c, 0, 64, 90
1, 208687, Note_on_c, 0, 40, 74
1, 208700, Control_c, 0, 64, 84
1, 208715, Control_c, 0, 64, 77
1, 208720, Note_off_c, 0, 41, 66
1, 208730, Control_c, 0, 64, 68
1, 208734, Note_off_c, 0, 62, 57
1, 208745, Control_c, 0, 64, 54
1, 208760, Control_c, 0, 64, 31
1, 208775, Control_c, 0, 64, 28
1, 208790, Control_c, 0, 64, 33
1, 208805, Control_c, 0, 64, 38
1, 208820, Control_c, 0, 64, 42
1, 208835, Control_c, 0, 64, 49
1, 208849, Control_c, 0, 64, 61
1, 208864, Control_c, 0, 64, 66
1, 208879, Control_c, 0, 64, 70
1, 208894, Control_c, 0, 64, 73
1, 208909, Control_c, 0, 64, 76
1, 208924, Control_c, 0, 64, 79
1, 208938, Control_c, 0, 64, 81
1, 208953, Control_c, 0, 64, 83
1, 208968, Control_c, 0, 64, 85
1, 208983, Control_c, 0, 64, 86
1, 208998, Control_c, 0, 64, 87
1, 209027, Control_c, 0, 64, 88
1, 209042, Control_c, 0, 64, 89
1, 209057, Control_c, 0, 64, 91
1, 209072, Control_c, 0, 64, 92
1, 209086, Control_c, 0, 64, 92
1, 209138, Control_c, 0, 64, 93
1, 209198, Control_c, 0, 64, 92
1, 209208, Note_on_c, 0, 65, 82
1, 209209, Note_on_c, 0, 38, 70
1, 209212, Control_c, 0, 64, 88
1, 209216, Note_off_c, 0, 40, 63
1, 209227, Control_c, 0, 64, 81
1, 209233, Note_off_c, 0, 64, 65
1, 209242, Control_c, 0, 64, 72
1, 209257, Control_c, 0, 64, 64
1, 209272, Control_c, 0, 64, 36
1, 209286, Control_c, 0, 64, 0
1, 209390, Control_c, 0, 64, 52
1, 209404, Control_c, 0, 64, 65
1, 209419, Control_c, 0, 64, 71
1, 209434, Control_c, 0, 64, 76
1, 209449, Control_c, 0, 64, 79
1, 209453, Note_off_c, 0, 57, 61
1, 209464, Control_c, 0, 64, 81
1, 209478, Control_c, 0, 64, 82
1, 209493, Control_c, 0, 64, 84
1, 209494, Note_off_c, 0, 69, 57
1, 209508, Control_c, 0, 64, 86
1, 209523, Control_c, 0, 64, 89
1, 209538, Control_c, 0, 64, 90
1, 209553, Control_c, 0, 64, 91
1, 209568, Control_c, 0, 64, 91
1, 209583, Control_c, 0, 64, 92
1, 209598, Control_c, 0, 64, 92
1, 209613, Control_c, 0, 64, 93
1, 209706, Note_on_c, 0, 67, 82
1, 209717, Note_on_c, 0, 62, 66
1, 210094, Control_c, 0, 64, 94
1, 210139, Control_c, 0, 64, 94
1, 210198, Control_c, 0, 64, 95
1, 210210, Note_on_c, 0, 69, 82
1, 210221, Note_on_c, 0, 60, 63
1, 210239, Note_off_c, 0, 65, 54
1, 210248, Note_off_c, 0, 67, 55
1, 210259, Note_off_c, 0, 62, 51
1, 210475, Note_off_c, 0, 60, 61
1, 210480, Control_c, 0, 64, 95
1, 210483, Note_off_c, 0, 69, 64
1, 210510, Control_c, 0, 64, 96
1, 210540, Control_c, 0, 64, 96
1, 210665, Control_c, 0, 64, 97
1, 210754, Control_c, 0, 64, 96
1, 210769, Control_c, 0, 64, 93
1, 210774, Note_on_c, 0, 70, 78
1, 210781, Note_on_c, 0, 58, 71
1, 210784, Note_on_c, 0, 65, 70
1, 210784, Control_c, 0, 64, 89
1, 210787, Note_on_c, 0, 43, 54
1, 210799, Control_c, 0, 64, 84
1, 210814, Control_c, 0, 64, 79
1, 210829, Control_c, 0, 64, 75
1, 210844, Control_c, 0, 64, 70
1, 210850, Note_off_c, 0, 38, 35
1, 210858, Control_c, 0, 64, 66
1, 210873, Control_c, 0, 64, 64
1, 210888, Control_c, 0, 64, 62
1, 210902, Control_c, 0, 64, 61
1, 210917, Control_c, 0, 64, 60
1, 210932, Control_c, 0, 64, 58
1, 210947, Control_c, 0, 64, 54
1, 210962, Control_c, 0, 64, 49
1, 210976, Control_c, 0, 64, 44
1, 210991, Control_c, 0, 64, 42
1, 211006, Control_c, 0, 64, 39
1, 211021, Control_c, 0, 64, 34
1, 211036, Control_c, 0, 64, 24
1, 211050, Control_c, 0, 64, 0
1, 211324, Note_on_c, 0, 64, 61
1, 211334, Note_off_c, 0, 65, 55
1, 211568, Note_on_c, 0, 41, 54
1, 211585, Note_off_c, 0, 43, 52
1, 211811, Note_on_c, 0, 62, 64
1, 211828, Note_on_c, 0, 43, 52
1, 211848, Note_off_c, 0, 64, 62
1, 211848, Note_off_c, 0, 41, 57
1, 212057, Note_on_c, 0, 45, 55
1, 212107, Note_off_c, 0, 43, 54
1, 212349, Note_off_c, 0, 45, 63
1, 212361, Note_on_c, 0, 46, 58
1, 212474, Control_c, 0, 64, 44
1, 212489, Control_c, 0, 64, 57
1, 212504, Control_c, 0, 64, 61
1, 212519, Control_c, 0, 64, 63
1, 212534, Control_c, 0, 64, 64
1, 212548, Control_c, 0, 64, 66
1, 212563, Control_c, 0, 64, 68
1, 212578, Control_c, 0, 64, 70
1, 212593, Control_c, 0, 64, 72
1, 212608, Control_c, 0, 64, 73
1, 212623, Control_c, 0, 64, 74
1, 212637, Control_c, 0, 64, 75
1, 212651, Note_off_c, 0, 70, 60
1, 212652, Control_c, 0, 64, 75
1, 212667, Control_c, 0, 64, 76
1, 212681, Control_c, 0, 64, 77
1, 212696, Control_c, 0, 64, 77
1, 212711, Control_c, 0, 64, 78
1, 212741, Control_c, 0, 64, 78
1, 212868, Control_c, 0, 64, 77
1, 212883, Control_c, 0, 64, 75
1, 212893, Note_on_c, 0, 69, 53
1, 212898, Control_c, 0, 64, 72
1, 212912, Control_c, 0, 64, 68
1, 212927, Control_c, 0, 64, 64
1, 212942, Control_c, 0, 64, 60
1, 212957, Control_c, 0, 64, 59
1, 212972, Control_c, 0, 64, 61
1, 212986, Control_c, 0, 64, 62
1, 213001, Control_c, 0, 64, 64
1, 213016, Control_c, 0, 64, 66
1, 213027, Note_off_c, 0, 62, 51
1, 213031, Control_c, 0, 64, 69
1, 213046, Control_c, 0, 64, 71
1, 213060, Control_c, 0, 64, 73
1, 213075, Control_c, 0, 64, 75
1, 213090, Control_c, 0, 64, 76
1, 213104, Control_c, 0, 64, 77
1, 213119, Control_c, 0, 64, 78
1, 213134, Control_c, 0, 64, 78
1, 213149, Control_c, 0, 64, 79
1, 213164, Control_c, 0, 64, 79
1, 213178, Control_c, 0, 64, 80
1, 213193, Control_c, 0, 64, 80
1, 213208, Control_c, 0, 64, 81
1, 213223, Control_c, 0, 64, 81
1, 213252, Control_c, 0, 64, 82
1, 213357, Control_c, 0, 64, 81
1, 213371, Control_c, 0, 64, 78
1, 213381, Note_on_c, 0, 67, 54
1, 213386, Note_on_c, 0, 48, 41
1, 213386, Control_c, 0, 64, 74
1, 213393, Note_on_c, 0, 64, 38
1, 213395, Note_off_c, 0, 69, 40
1, 213401, Control_c, 0, 64, 69
1, 213416, Control_c, 0, 64, 63
1, 213430, Control_c, 0, 64, 49
1, 213445, Control_c, 0, 64, 43
1, 213460, Control_c, 0, 64, 42
1, 213473, Note_off_c, 0, 46, 33
1, 213475, Control_c, 0, 64, 43
1, 213490, Control_c, 0, 64, 43
1, 213504, Control_c, 0, 64, 44
1, 213519, Control_c, 0, 64, 47
1, 213534, Control_c, 0, 64, 55
1, 213549, Control_c, 0, 64, 62
1, 213564, Control_c, 0, 64, 66
1, 213580, Control_c, 0, 64, 69
1, 213601, Control_c, 0, 64, 71
1, 213616, Control_c, 0, 64, 72
1, 213631, Control_c, 0, 64, 74
1, 213646, Control_c, 0, 64, 75
1, 213661, Control_c, 0, 64, 76
1, 213676, Control_c, 0, 64, 77
1, 213690, Control_c, 0, 64, 78
1, 213705, Control_c, 0, 64, 78
1, 213735, Control_c, 0, 64, 79
1, 213765, Control_c, 0, 64, 79
1, 213914, Control_c, 0, 64, 79
1, 213928, Control_c, 0, 64, 77
1, 213943, Control_c, 0, 64, 74
1, 213947, Note_on_c, 0, 65, 44
1, 213952, Note_on_c, 0, 50, 36
1, 213958, Control_c, 0, 64, 71
1, 213973, Control_c, 0, 64, 67
1, 213986, Note_off_c, 0, 48, 42
1, 213988, Control_c, 0, 64, 64
1, 214002, Control_c, 0, 64, 60
1, 214017, Control_c, 0, 64, 58
1, 214032, Control_c, 0, 64, 58
1, 214046, Note_off_c, 0, 67, 36
1, 214046, Control_c, 0, 64, 56
1, 214061, Control_c, 0, 64, 54
1, 214076, Control_c, 0, 64, 51
1, 214081, Note_off_c, 0, 64, 39
1, 214091, Control_c, 0, 64, 48
1, 214106, Control_c, 0, 64, 47
1, 214150, Control_c, 0, 64, 46
1, 214165, Control_c, 0, 64, 45
1, 214299, Control_c, 0, 64, 46
1, 214365, Control_c, 0, 64, 46
1, 214381, Control_c, 0, 64, 47
1, 214396, Control_c, 0, 64, 48
1, 214411, Control_c, 0, 64, 48
1, 214495, Note_on_c, 0, 64, 35
1, 214573, Control_c, 0, 64, 49
1, 214736, Control_c, 0, 64, 49
1, 214780, Control_c, 0, 64, 50
1, 214810, Control_c, 0, 64, 50
1, 214824, Control_c, 0, 64, 51
1, 214839, Control_c, 0, 64, 51
1, 214854, Control_c, 0, 64, 52
1, 214898, Control_c, 0, 64, 53
1, 214913, Control_c, 0, 64, 53
1, 214928, Control_c, 0, 64, 54
1, 214942, Control_c, 0, 64, 55
1, 214957, Control_c, 0, 64, 56
1, 214972, Control_c, 0, 64, 57
1, 214987, Control_c, 0, 64, 57
1, 215002, Control_c, 0, 64, 58
1, 215030, Note_on_c, 0, 62, 32
1, 215032, Control_c, 0, 64, 58
1, 215062, Control_c, 0, 64, 59
1, 215068, Note_off_c, 0, 64, 40
1, 215076, Control_c, 0, 64, 59
1, 215091, Control_c, 0, 64, 60
1, 215113, Control_c, 0, 64, 60
1, 215143, Control_c, 0, 64, 61
1, 215157, Control_c, 0, 64, 61
1, 215172, Control_c, 0, 64, 62
1, 215188, Control_c, 0, 64, 63
1, 215203, Control_c, 0, 64, 64
1, 215218, Control_c, 0, 64, 65
1, 215233, Control_c, 0, 64, 66
1, 215247, Control_c, 0, 64, 67
1, 215262, Control_c, 0, 64, 68
1, 215277, Control_c, 0, 64, 69
1, 215292, Control_c, 0, 64, 70
1, 215306, Control_c, 0, 64, 72
1, 215321, Control_c, 0, 64, 73
1, 215336, Control_c, 0, 64, 74
1, 215341, Note_off_c, 0, 50, 37
1, 215351, Control_c, 0, 64, 75
1, 215366, Control_c, 0, 64, 76
1, 215396, Control_c, 0, 64, 76
1, 215410, Control_c, 0, 64, 77
1, 215425, Control_c, 0, 64, 77
1, 215544, Control_c, 0, 64, 77
1, 215559, Control_c, 0, 64, 75
1, 215573, Control_c, 0, 64, 72
1, 215588, Control_c, 0, 64, 69
1, 215595, Note_on_c, 0, 55, 27
1, 215603, Control_c, 0, 64, 65
1, 215618, Control_c, 0, 64, 62
1, 215633, Control_c, 0, 64, 61
1, 215662, Control_c, 0, 64, 62
1, 215677, Control_c, 0, 64, 63
1, 215691, Control_c, 0, 64, 64
1, 215706, Control_c, 0, 64, 66
1, 215721, Control_c, 0, 64, 68
1, 215730, Note_off_c, 0, 65, 62
1, 215736, Control_c, 0, 64, 70
1, 215751, Control_c, 0, 64, 72
1, 215765, Control_c, 0, 64, 73
1, 215780, Control_c, 0, 64, 74
1, 215795, Control_c, 0, 64, 75
1, 215810, Control_c, 0, 64, 76
1, 215825, Control_c, 0, 64, 77
1, 215847, Control_c, 0, 64, 78
1, 215862, Control_c, 0, 64, 79
1, 215877, Control_c, 0, 64, 79
1, 215943, Note_off_c, 0, 55, 43
1, 216115, Control_c, 0, 64, 78
1, 216129, Control_c, 0, 64, 77
1, 216144, Control_c, 0, 64, 74
1, 216159, Control_c, 0, 64, 69
1, 216174, Note_on_c, 0, 77, 37
1, 216174, Control_c, 0, 64, 64
1, 216189, Control_c, 0, 64, 58
1, 216194, Note_on_c, 0, 53, 20
1, 216203, Control_c, 0, 64, 54
1, 216218, Control_c, 0, 64, 53
1, 216233, Control_c, 0, 64, 52
1, 216248, Control_c, 0, 64, 48
1, 216263, Control_c, 0, 64, 42
1, 216278, Control_c, 0, 64, 36
1, 216308, Control_c, 0, 64, 41
1, 216322, Control_c, 0, 64, 44
1, 216337, Control_c, 0, 64, 48
1, 216352, Control_c, 0, 64, 52
1, 216367, Control_c, 0, 64, 57
1, 216382, Control_c, 0, 64, 62
1, 216396, Control_c, 0, 64, 64
1, 216410, Note_off_c, 0, 58, 59
1, 216411, Control_c, 0, 64, 66
1, 216426, Control_c, 0, 64, 68
1, 216440, Control_c, 0, 64, 69
1, 216455, Control_c, 0, 64, 71
1, 216470, Control_c, 0, 64, 72
1, 216485, Control_c, 0, 64, 73
1, 216500, Control_c, 0, 64, 75
1, 216514, Control_c, 0, 64, 75
1, 216544, Control_c, 0, 64, 76
1, 216759, Control_c, 0, 64, 75
1, 216775, Control_c, 0, 64, 73
1, 216790, Control_c, 0, 64, 71
1, 216805, Control_c, 0, 64, 68
1, 216817, Note_on_c, 0, 74, 36
1, 216818, Note_on_c, 0, 57, 30
1, 216820, Control_c, 0, 64, 64
1, 216835, Control_c, 0, 64, 61
1, 216850, Control_c, 0, 64, 58
1, 216853, Note_off_c, 0, 62, 38
1, 216865, Control_c, 0, 64, 57
1, 216877, Note_off_c, 0, 77, 28
1, 216894, Control_c, 0, 64, 56
1, 216909, Control_c, 0, 64, 55
1, 216924, Control_c, 0, 64, 54
1, 216939, Control_c, 0, 64, 55
1, 216953, Control_c, 0, 64, 56
1, 216968, Control_c, 0, 64, 58
1, 216983, Control_c, 0, 64, 59
1, 216998, Control_c, 0, 64, 60
1, 217013, Control_c, 0, 64, 62
1, 217027, Control_c, 0, 64, 63
1, 217042, Control_c, 0, 64, 64
1, 217057, Control_c, 0, 64, 66
1, 217071, Control_c, 0, 64, 68
1, 217086, Control_c, 0, 64, 69
1, 217101, Control_c, 0, 64, 70
1, 217116, Control_c, 0, 64, 71
1, 217131, Control_c, 0, 64, 73
1, 217145, Control_c, 0, 64, 74
1, 217160, Control_c, 0, 64, 75
1, 217175, Control_c, 0, 64, 77
1, 217190, Control_c, 0, 64, 78
1, 217205, Control_c, 0, 64, 79
1, 217220, Control_c, 0, 64, 79
1, 217235, Control_c, 0, 64, 80
1, 217250, Control_c, 0, 64, 80
1, 217265, Control_c, 0, 64, 81
1, 217279, Control_c, 0, 64, 82
1, 217309, Control_c, 0, 64, 82
1, 217345, Control_c, 0, 64, 83
1, 217405, Control_c, 0, 64, 83
1, 217477, Note_on_c, 0, 81, 44
1, 217495, Note_on_c, 0, 62, 39
1, 217598, Control_c, 0, 64, 84
1, 217652, Note_off_c, 0, 74, 33
1, 217762, Control_c, 0, 64, 84
1, 217780, Note_off_c, 0, 62, 46
1, 218030, Note_on_c, 0, 62, 36
1, 218058, Note_off_c, 0, 57, 35
1, 218314, Note_off_c, 0, 53, 40
1, 218562, Note_on_c, 0, 77, 46
1, 218573, Note_on_c, 0, 57, 37
1, 218638, Note_off_c, 0, 81, 33
1, 218729, Note_off_c, 0, 62, 53
1, 219035, Control_c, 0, 64, 84
1, 219050, Control_c, 0, 64, 83
1, 219065, Control_c, 0, 64, 83
1, 219080, Control_c, 0, 64, 82
1, 219095, Control_c, 0, 64, 81
1, 219110, Control_c, 0, 64, 79
1, 219124, Control_c, 0, 64, 77
1, 219125, Note_on_c, 0, 62, 45
1, 219139, Control_c, 0, 64, 75
1, 219154, Control_c, 0, 64, 72
1, 219169, Control_c, 0, 64, 70
1, 219184, Control_c, 0, 64, 67
1, 219199, Control_c, 0, 64, 65
1, 219214, Control_c, 0, 64, 63
1, 219229, Control_c, 0, 64, 63
1, 219244, Control_c, 0, 64, 63
1, 219273, Control_c, 0, 64, 64
1, 219288, Control_c, 0, 64, 64
1, 219303, Control_c, 0, 64, 65
1, 219318, Control_c, 0, 64, 67
1, 219333, Control_c, 0, 64, 70
1, 219347, Control_c, 0, 64, 72
1, 219362, Control_c, 0, 64, 74
1, 219377, Control_c, 0, 64, 75
1, 219392, Control_c, 0, 64, 76
1, 219407, Control_c, 0, 64, 78
1, 219421, Control_c, 0, 64, 79
1, 219436, Control_c, 0, 64, 80
1, 219451, Control_c, 0, 64, 81
1, 219480, Control_c, 0, 64, 81
1, 219525, Control_c, 0, 64, 82
1, 219621, Control_c, 0, 64, 81
1, 219636, Control_c, 0, 64, 80
1, 219651, Control_c, 0, 64, 78
1, 219666, Control_c, 0, 64, 74
1, 219680, Control_c, 0, 64, 69
1, 219691, Note_off_c, 0, 57, 35
1, 219695, Control_c, 0, 64, 64
1, 219696, Note_on_c, 0, 58, 22
1, 219710, Control_c, 0, 64, 60
1, 219725, Control_c, 0, 64, 58
1, 219769, Control_c, 0, 64, 58
1, 219799, Control_c, 0, 64, 58
1, 219814, Control_c, 0, 64, 61
1, 219828, Control_c, 0, 64, 63
1, 219843, Control_c, 0, 64, 66
1, 219858, Control_c, 0, 64, 69
1, 219872, Control_c, 0, 64, 72
1, 219887, Control_c, 0, 64, 74
1, 219902, Control_c, 0, 64, 76
1, 219917, Control_c, 0, 64, 78
1, 219932, Note_off_c, 0, 58, 55
1, 219932, Control_c, 0, 64, 79
1, 219946, Control_c, 0, 64, 80
1, 219961, Control_c, 0, 64, 81
1, 219992, Control_c, 0, 64, 81
1, 220022, Control_c, 0, 64, 82
1, 220051, Control_c, 0, 64, 82
1, 220118, Note_off_c, 0, 62, 32
1, 220169, Control_c, 0, 64, 81
1, 220184, Control_c, 0, 64, 78
1, 220199, Control_c, 0, 64, 73
1, 220201, Note_on_c, 0, 60, 39
1, 220209, Note_on_c, 0, 57, 34
1, 220214, Control_c, 0, 64, 69
1, 220229, Control_c, 0, 64, 64
1, 220243, Control_c, 0, 64, 61
1, 220258, Control_c, 0, 64, 62
1, 220273, Control_c, 0, 64, 63
1, 220287, Control_c, 0, 64, 64
1, 220302, Control_c, 0, 64, 65
1, 220317, Control_c, 0, 64, 68
1, 220340, Control_c, 0, 64, 71
1, 220355, Control_c, 0, 64, 73
1, 220369, Control_c, 0, 64, 75
1, 220384, Control_c, 0, 64, 76
1, 220399, Control_c, 0, 64, 77
1, 220414, Control_c, 0, 64, 78
1, 220429, Control_c, 0, 64, 79
1, 220443, Control_c, 0, 64, 80
1, 220445, Note_off_c, 0, 60, 61
1, 220451, Note_on_c, 0, 62, 59
1, 220458, Control_c, 0, 64, 81
1, 220472, Note_off_c, 0, 57, 53
1, 220487, Control_c, 0, 64, 81
1, 220517, Control_c, 0, 64, 82
1, 220532, Control_c, 0, 64, 83
1, 220606, Control_c, 0, 64, 83
1, 220725, Control_c, 0, 64, 83
1, 220740, Control_c, 0, 64, 81
1, 220755, Control_c, 0, 64, 78
1, 220764, Note_off_c, 0, 77, 11
1, 220770, Control_c, 0, 64, 74
1, 220775, Note_on_c, 0, 64, 44
1, 220781, Note_on_c, 0, 72, 45
1, 220782, Note_off_c, 0, 62, 37
1, 220785, Control_c, 0, 64, 68
1, 220794, Note_on_c, 0, 55, 41
1, 220800, Control_c, 0, 64, 61
1, 220815, Control_c, 0, 64, 52
1, 220830, Control_c, 0, 64, 47
1, 220845, Control_c, 0, 64, 42
1, 220859, Control_c, 0, 64, 34
1, 220874, Control_c, 0, 64, 10
1, 220889, Control_c, 0, 64, 0
1, 220992, Control_c, 0, 64, 45
1, 221007, Control_c, 0, 64, 63
1, 221022, Control_c, 0, 64, 68
1, 221036, Control_c, 0, 64, 72
1, 221051, Control_c, 0, 64, 76
1, 221066, Control_c, 0, 64, 78
1, 221089, Control_c, 0, 64, 79
1, 221104, Control_c, 0, 64, 81
1, 221118, Control_c, 0, 64, 82
1, 221133, Control_c, 0, 64, 83
1, 221138, Note_off_c, 0, 64, 29
1, 221148, Control_c, 0, 64, 84
1, 221163, Control_c, 0, 64, 85
1, 221192, Control_c, 0, 64, 85
1, 221207, Control_c, 0, 64, 86
1, 221236, Control_c, 0, 64, 87
1, 221251, Control_c, 0, 64, 87
1, 221301, Note_on_c, 0, 64, 43
1, 221340, Control_c, 0, 64, 88
1, 221623, Note_off_c, 0, 55, 43
1, 221798, Note_on_c, 0, 57, 41
1, 221852, Control_c, 0, 64, 88
1, 221897, Control_c, 0, 64, 89
1, 221900, Note_off_c, 0, 64, 62
1, 222237, Note_off_c, 0, 57, 33
1, 222281, Control_c, 0, 64, 88
1, 222296, Note_on_c, 0, 77, 52
1, 222296, Control_c, 0, 64, 88
1, 222311, Control_c, 0, 64, 86
1, 222315, Note_on_c, 0, 62, 46
1, 222321, Note_on_c, 0, 58, 41
1, 222326, Control_c, 0, 64, 85
1, 222341, Control_c, 0, 64, 82
1, 222356, Control_c, 0, 64, 78
1, 222366, Note_off_c, 0, 72, 54
1, 222371, Control_c, 0, 64, 75
1, 222386, Control_c, 0, 64, 72
1, 222401, Control_c, 0, 64, 69
1, 222416, Control_c, 0, 64, 67
1, 222431, Control_c, 0, 64, 66
1, 222445, Control_c, 0, 64, 65
1, 222460, Control_c, 0, 64, 64
1, 222475, Control_c, 0, 64, 64
1, 222490, Control_c, 0, 64, 63
1, 222520, Control_c, 0, 64, 63
1, 222535, Control_c, 0, 64, 62
1, 222550, Control_c, 0, 64, 61
1, 222564, Control_c, 0, 64, 61
1, 222616, Control_c, 0, 64, 60
1, 222631, Control_c, 0, 64, 58
1, 222645, Control_c, 0, 64, 56
1, 222705, Control_c, 0, 64, 56
1, 222720, Control_c, 0, 64, 55
1, 222734, Control_c, 0, 64, 54
1, 222809, Control_c, 0, 64, 54
1, 222817, Note_on_c, 0, 57, 37
1, 222883, Control_c, 0, 64, 54
1, 222897, Control_c, 0, 64, 55
1, 222912, Control_c, 0, 64, 56
1, 222927, Control_c, 0, 64, 58
1, 222942, Control_c, 0, 64, 62
1, 222956, Control_c, 0, 64, 64
1, 222971, Control_c, 0, 64, 67
1, 222986, Control_c, 0, 64, 70
1, 223001, Control_c, 0, 64, 73
1, 223015, Control_c, 0, 64, 76
1, 223030, Control_c, 0, 64, 78
1, 223045, Control_c, 0, 64, 79
1, 223060, Control_c, 0, 64, 80
1, 223075, Control_c, 0, 64, 80
1, 223089, Control_c, 0, 64, 81
1, 223104, Control_c, 0, 64, 82
1, 223119, Control_c, 0, 64, 83
1, 223149, Control_c, 0, 64, 83
1, 223179, Note_off_c, 0, 57, 33
1, 223253, Control_c, 0, 64, 82
1, 223268, Control_c, 0, 64, 79
1, 223273, Note_on_c, 0, 70, 48
1, 223283, Control_c, 0, 64, 75
1, 223287, Note_on_c, 0, 55, 42
1, 223298, Control_c, 0, 64, 69
1, 223313, Control_c, 0, 64, 63
1, 223328, Control_c, 0, 64, 57
1, 223349, Note_off_c, 0, 77, 51
1, 223350, Control_c, 0, 64, 55
1, 223380, Control_c, 0, 64, 55
1, 223402, Note_off_c, 0, 58, 46
1, 223409, Control_c, 0, 64, 56
1, 223424, Control_c, 0, 64, 58
1, 223438, Control_c, 0, 64, 62
1, 223444, Note_off_c, 0, 62, 58
1, 223453, Control_c, 0, 64, 66
1, 223468, Control_c, 0, 64, 69
1, 223483, Control_c, 0, 64, 73
1, 223498, Control_c, 0, 64, 75
1, 223513, Control_c, 0, 64, 77
1, 223527, Control_c, 0, 64, 78
1, 223542, Control_c, 0, 64, 80
1, 223557, Control_c, 0, 64, 81
1, 223573, Control_c, 0, 64, 82
1, 223587, Control_c, 0, 64, 83
1, 223602, Control_c, 0, 64, 83
1, 223617, Control_c, 0, 64, 84
1, 223647, Control_c, 0, 64, 84
1, 223736, Control_c, 0, 64, 83
1, 223751, Control_c, 0, 64, 81
1, 223766, Control_c, 0, 64, 76
1, 223772, Note_on_c, 0, 77, 51
1, 223780, Note_on_c, 0, 60, 45
1, 223780, Control_c, 0, 64, 71
1, 223786, Note_on_c, 0, 57, 40
1, 223795, Control_c, 0, 64, 65
1, 223801, Note_off_c, 0, 55, 44
1, 223810, Control_c, 0, 64, 58
1, 223825, Control_c, 0, 64, 54
1, 223838, Note_off_c, 0, 70, 57
1, 223839, Control_c, 0, 64, 53
1, 223854, Control_c, 0, 64, 53
1, 223869, Control_c, 0, 64, 51
1, 223884, Control_c, 0, 64, 48
1, 223899, Control_c, 0, 64, 48
1, 223913, Control_c, 0, 64, 48
1, 223928, Control_c, 0, 64, 50
1, 223943, Control_c, 0, 64, 52
1, 223959, Control_c, 0, 64, 56
1, 223974, Control_c, 0, 64, 58
1, 223989, Control_c, 0, 64, 61
1, 224003, Control_c, 0, 64, 62
1, 224018, Control_c, 0, 64, 63
1, 224033, Control_c, 0, 64, 64
1, 224048, Control_c, 0, 64, 65
1, 224062, Control_c, 0, 64, 66
1, 224085, Control_c, 0, 64, 67
1, 224100, Control_c, 0, 64, 67
1, 224115, Control_c, 0, 64, 68
1, 224130, Control_c, 0, 64, 69
1, 224144, Control_c, 0, 64, 70
1, 224159, Control_c, 0, 64, 71
1, 224174, Control_c, 0, 64, 72
1, 224189, Control_c, 0, 64, 73
1, 224204, Control_c, 0, 64, 74
1, 224218, Control_c, 0, 64, 75
1, 224233, Control_c, 0, 64, 76
1, 224248, Control_c, 0, 64, 77
1, 224258, Note_on_c, 0, 55, 43
1, 224262, Control_c, 0, 64, 78
1, 224277, Control_c, 0, 64, 79
1, 224292, Control_c, 0, 64, 79
1, 224307, Control_c, 0, 64, 80
1, 224322, Control_c, 0, 64, 81
1, 224329, Note_off_c, 0, 57, 53
1, 224336, Control_c, 0, 64, 81
1, 224351, Control_c, 0, 64, 82
1, 224366, Control_c, 0, 64, 82
1, 224396, Control_c, 0, 64, 83
1, 224425, Control_c, 0, 64, 83
1, 224455, Control_c, 0, 64, 84
1, 224469, Control_c, 0, 64, 84
1, 224474, Note_on_c, 0, 76, 48
1, 224474, Note_off_c, 0, 60, 57
1, 224499, Control_c, 0, 64, 85
1, 224529, Control_c, 0, 64, 85
1, 224580, Note_off_c, 0, 77, 29
1, 224692, Note_off_c, 0, 55, 35
1, 224707, Control_c, 0, 64, 84
1, 224722, Control_c, 0, 64, 82
1, 224736, Control_c, 0, 64, 77
1, 224747, Note_on_c, 0, 74, 48
1, 224752, Control_c, 0, 64, 71
1, 224758, Note_on_c, 0, 62, 50
1, 224759, Note_on_c, 0, 53, 47
1, 224767, Control_c, 0, 64, 65
1, 224770, Note_off_c, 0, 76, 54
1, 224782, Control_c, 0, 64, 59
1, 224797, Control_c, 0, 64, 55
1, 224812, Control_c, 0, 64, 54
1, 224833, Control_c, 0, 64, 55
1, 224848, Control_c, 0, 64, 56
1, 224863, Control_c, 0, 64, 57
1, 224878, Control_c, 0, 64, 60
1, 224893, Control_c, 0, 64, 64
1, 224908, Control_c, 0, 64, 67
1, 224922, Control_c, 0, 64, 71
1, 224937, Control_c, 0, 64, 75
1, 224952, Control_c, 0, 64, 77
1, 224967, Control_c, 0, 64, 79
1, 224982, Control_c, 0, 64, 81
1, 224997, Control_c, 0, 64, 83
1, 225010, Note_off_c, 0, 53, 50
1, 225012, Control_c, 0, 64, 84
1, 225027, Control_c, 0, 64, 85
1, 225039, Note_off_c, 0, 74, 58
1, 225041, Control_c, 0, 64, 86
1, 225056, Control_c, 0, 64, 86
1, 225076, Note_off_c, 0, 62, 49
1, 225084, Control_c, 0, 64, 87
1, 225114, Control_c, 0, 64, 87
1, 225218, Control_c, 0, 64, 87
1, 225232, Control_c, 0, 64, 85
1, 225247, Control_c, 0, 64, 82
1, 225262, Control_c, 0, 64, 78
1, 225267, Note_on_c, 0, 57, 49
1, 225277, Control_c, 0, 64, 73
1, 225282, Note_on_c, 0, 52, 43
1, 225292, Control_c, 0, 64, 68
1, 225307, Control_c, 0, 64, 64
1, 225322, Control_c, 0, 64, 62
1, 225337, Control_c, 0, 64, 62
1, 225381, Control_c, 0, 64, 61
1, 225396, Control_c, 0, 64, 60
1, 225425, Control_c, 0, 64, 61
1, 225440, Control_c, 0, 64, 61
1, 225484, Control_c, 0, 64, 62
1, 225514, Control_c, 0, 64, 63
1, 225529, Control_c, 0, 64, 63
1, 225560, Control_c, 0, 64, 64
1, 225596, Control_c, 0, 64, 64
1, 225641, Control_c, 0, 64, 65
1, 225700, Control_c, 0, 64, 65
1, 225771, Note_off_c, 0, 57, 57
1, 225787, Note_on_c, 0, 58, 46
1, 225789, Control_c, 0, 64, 66
1, 225795, Note_on_c, 0, 50, 40
1, 225819, Control_c, 0, 64, 66
1, 225838, Note_off_c, 0, 52, 57
1, 225937, Control_c, 0, 64, 67
1, 225981, Control_c, 0, 64, 68
1, 225996, Control_c, 0, 64, 69
1, 226011, Control_c, 0, 64, 71
1, 226025, Control_c, 0, 64, 72
1, 226040, Control_c, 0, 64, 74
1, 226055, Control_c, 0, 64, 75
1, 226066, Note_on_c, 0, 52, 46
1, 226070, Control_c, 0, 64, 76
1, 226075, Note_off_c, 0, 50, 53
1, 226085, Control_c, 0, 64, 78
1, 226100, Control_c, 0, 64, 79
1, 226115, Control_c, 0, 64, 79
1, 226130, Control_c, 0, 64, 80
1, 226307, Control_c, 0, 64, 79
1, 226322, Control_c, 0, 64, 78
1, 226344, Control_c, 0, 64, 77
1, 226347, Note_off_c, 0, 52, 56
1, 226360, Control_c, 0, 64, 73
1, 226368, Note_on_c, 0, 38, 54
1, 226371, Note_on_c, 0, 53, 45
1, 226375, Control_c, 0, 64, 69
1, 226390, Control_c, 0, 64, 65
1, 226405, Control_c, 0, 64, 61
1, 226419, Control_c, 0, 64, 58
1, 226449, Control_c, 0, 64, 57
1, 226464, Control_c, 0, 64, 56
1, 226479, Control_c, 0, 64, 55
1, 226493, Control_c, 0, 64, 54
1, 226508, Control_c, 0, 64, 55
1, 226523, Control_c, 0, 64, 58
1, 226538, Control_c, 0, 64, 61
1, 226553, Control_c, 0, 64, 64
1, 226568, Control_c, 0, 64, 67
1, 226583, Control_c, 0, 64, 70
1, 226598, Control_c, 0, 64, 72
1, 226613, Control_c, 0, 64, 74
1, 226628, Control_c, 0, 64, 76
1, 226642, Control_c, 0, 64, 77
1, 226657, Control_c, 0, 64, 78
1, 226672, Control_c, 0, 64, 78
1, 226675, Note_on_c, 0, 55, 51
1, 226687, Control_c, 0, 64, 79
1, 226717, Control_c, 0, 64, 80
1, 226731, Control_c, 0, 64, 80
1, 226738, Note_off_c, 0, 58, 35
1, 226746, Control_c, 0, 64, 81
1, 226816, Note_off_c, 0, 53, 34
1, 226968, Control_c, 0, 64, 80
1, 226982, Control_c, 0, 64, 78
1, 226997, Control_c, 0, 64, 74
1, 227012, Control_c, 0, 64, 70
1, 227027, Control_c, 0, 64, 64
1, 227028, Note_on_c, 0, 57, 49
1, 227030, Note_on_c, 0, 60, 49
1, 227042, Note_on_c, 0, 45, 46
1, 227042, Control_c, 0, 64, 57
1, 227057, Control_c, 0, 64, 51
1, 227072, Control_c, 0, 64, 48
1, 227082, Note_off_c, 0, 55, 55
1, 227094, Control_c, 0, 64, 44
1, 227109, Control_c, 0, 64, 37
1, 227124, Control_c, 0, 64, 18
1, 227133, Note_off_c, 0, 38, 36
1, 227138, Control_c, 0, 64, 0
1, 227273, Control_c, 0, 64, 27
1, 227287, Control_c, 0, 64, 57
1, 227302, Control_c, 0, 64, 65
1, 227317, Control_c, 0, 64, 69
1, 227332, Control_c, 0, 64, 73
1, 227347, Control_c, 0, 64, 75
1, 227361, Control_c, 0, 64, 77
1, 227376, Control_c, 0, 64, 78
1, 227391, Control_c, 0, 64, 79
1, 227406, Control_c, 0, 64, 80
1, 227421, Control_c, 0, 64, 81
1, 227432, Note_off_c, 0, 45, 60
1, 227435, Control_c, 0, 64, 81
1, 227450, Control_c, 0, 64, 82
1, 227465, Control_c, 0, 64, 82
1, 227480, Control_c, 0, 64, 83
1, 227614, Note_on_c, 0, 45, 46
1, 228096, Control_c, 0, 64, 82
1, 228110, Control_c, 0, 64, 80
1, 228121, Note_on_c, 0, 40, 52
1, 228125, Control_c, 0, 64, 78
1, 228126, Note_on_c, 0, 64, 50
1, 228140, Control_c, 0, 64, 74
1, 228155, Control_c, 0, 64, 70
1, 228170, Note_off_c, 0, 60, 61
1, 228170, Control_c, 0, 64, 65
1, 228184, Control_c, 0, 64, 61
1, 228199, Control_c, 0, 64, 59
1, 228210, Note_off_c, 0, 45, 54
1, 228228, Control_c, 0, 64, 59
1, 228258, Control_c, 0, 64, 60
1, 228273, Control_c, 0, 64, 61
1, 228288, Control_c, 0, 64, 63
1, 228303, Control_c, 0, 64, 66
1, 228318, Control_c, 0, 64, 68
1, 228333, Control_c, 0, 64, 71
1, 228348, Control_c, 0, 64, 72
1, 228362, Control_c, 0, 64, 74
1, 228377, Control_c, 0, 64, 75
1, 228392, Control_c, 0, 64, 77
1, 228407, Control_c, 0, 64, 77
1, 228422, Control_c, 0, 64, 78
1, 228436, Control_c, 0, 64, 79
1, 228451, Control_c, 0, 64, 79
1, 228496, Control_c, 0, 64, 80
1, 228592, Control_c, 0, 64, 79
1, 228607, Control_c, 0, 64, 79
1, 228622, Control_c, 0, 64, 77
1, 228636, Control_c, 0, 64, 75
1, 228651, Control_c, 0, 64, 72
1, 228653, Note_on_c, 0, 45, 50
1, 228666, Control_c, 0, 64, 68
1, 228671, Note_on_c, 0, 60, 43
1, 228681, Control_c, 0, 64, 65
1, 228696, Control_c, 0, 64, 63
1, 228710, Control_c, 0, 64, 62
1, 228739, Note_off_c, 0, 57, 55
1, 228740, Control_c, 0, 64, 62
1, 228756, Control_c, 0, 64, 61
1, 228771, Control_c, 0, 64, 60
1, 228786, Control_c, 0, 64, 59
1, 228800, Control_c, 0, 64, 59
1, 228829, Control_c, 0, 64, 58
1, 228878, Note_off_c, 0, 40, 57
1, 228992, Control_c, 0, 64, 59
1, 229006, Control_c, 0, 64, 59
1, 229036, Control_c, 0, 64, 60
1, 229051, Control_c, 0, 64, 60
1, 229066, Control_c, 0, 64, 61
1, 229081, Control_c, 0, 64, 61
1, 229155, Control_c, 0, 64, 61
1, 229167, Note_on_c, 0, 65, 48
1, 229199, Control_c, 0, 64, 60
1, 229229, Control_c, 0, 64, 59
1, 229233, Note_off_c, 0, 64, 59
1, 229244, Control_c, 0, 64, 58
1, 229258, Control_c, 0, 64, 58
1, 229273, Control_c, 0, 64, 57
1, 229318, Control_c, 0, 64, 58
1, 229340, Control_c, 0, 64, 60
1, 229355, Control_c, 0, 64, 62
1, 229370, Control_c, 0, 64, 64
1, 229384, Control_c, 0, 64, 67
1, 229399, Control_c, 0, 64, 68
1, 229414, Control_c, 0, 64, 70
1, 229429, Control_c, 0, 64, 71
1, 229444, Control_c, 0, 64, 72
1, 229458, Control_c, 0, 64, 73
1, 229473, Control_c, 0, 64, 74
1, 229488, Control_c, 0, 64, 75
1, 229503, Control_c, 0, 64, 75
1, 229532, Control_c, 0, 64, 76
1, 229622, Control_c, 0, 64, 74
1, 229637, Control_c, 0, 64, 72
1, 229651, Note_on_c, 0, 64, 57
1, 229652, Control_c, 0, 64, 68
1, 229667, Control_c, 0, 64, 65
1, 229671, Note_on_c, 0, 43, 48
1, 229681, Control_c, 0, 64, 61
1, 229695, Note_off_c, 0, 45, 59
1, 229696, Control_c, 0, 64, 54
1, 229711, Control_c, 0, 64, 46
1, 229726, Control_c, 0, 64, 43
1, 229741, Note_off_c, 0, 65, 36
1, 229741, Control_c, 0, 64, 41
1, 229755, Control_c, 0, 64, 38
1, 229770, Control_c, 0, 64, 32
1, 229785, Control_c, 0, 64, 20
1, 229800, Control_c, 0, 64, 0
1, 229912, Note_on_c, 0, 45, 61
1, 229918, Control_c, 0, 64, 24
1, 229933, Control_c, 0, 64, 38
1, 229948, Control_c, 0, 64, 50
1, 229963, Control_c, 0, 64, 58
1, 229978, Control_c, 0, 64, 63
1, 229993, Control_c, 0, 64, 66
1, 230007, Control_c, 0, 64, 68
1, 230022, Control_c, 0, 64, 70
1, 230037, Control_c, 0, 64, 71
1, 230052, Control_c, 0, 64, 72
1, 230067, Control_c, 0, 64, 73
1, 230082, Note_off_c, 0, 43, 36
1, 230118, Control_c, 0, 64, 73
1, 230133, Control_c, 0, 64, 74
1, 230148, Control_c, 0, 64, 74
1, 230193, Control_c, 0, 64, 74
1, 230207, Control_c, 0, 64, 72
1, 230222, Control_c, 0, 64, 69
1, 230229, Note_on_c, 0, 46, 56
1, 230237, Control_c, 0, 64, 65
1, 230246, Note_on_c, 0, 55, 48
1, 230250, Note_on_c, 0, 62, 60
1, 230252, Control_c, 0, 64, 60
1, 230267, Control_c, 0, 64, 54
1, 230276, Note_off_c, 0, 45, 60
1, 230281, Control_c, 0, 64, 46
1, 230291, Note_off_c, 0, 64, 59
1, 230293, Note_off_c, 0, 60, 63
1, 230296, Control_c, 0, 64, 33
1, 230312, Control_c, 0, 64, 0
1, 230491, Control_c, 0, 64, 51
1, 230505, Control_c, 0, 64, 65
1, 230520, Control_c, 0, 64, 68
1, 230535, Control_c, 0, 64, 71
1, 230550, Control_c, 0, 64, 72
1, 230565, Control_c, 0, 64, 74
1, 230579, Control_c, 0, 64, 76
1, 230583, Note_off_c, 0, 46, 55
1, 230594, Control_c, 0, 64, 77
1, 230609, Control_c, 0, 64, 78
1, 230623, Control_c, 0, 64, 79
1, 230638, Control_c, 0, 64, 79
1, 230653, Control_c, 0, 64, 80
1, 230738, Note_on_c, 0, 46, 54
1, 230757, Control_c, 0, 64, 79
1, 230771, Control_c, 0, 64, 77
1, 230786, Control_c, 0, 64, 73
1, 230801, Control_c, 0, 64, 68
1, 230823, Control_c, 0, 64, 63
1, 230838, Control_c, 0, 64, 61
1, 230868, Control_c, 0, 64, 62
1, 230883, Control_c, 0, 64, 63
1, 230898, Control_c, 0, 64, 63
1, 230912, Control_c, 0, 64, 65
1, 230927, Control_c, 0, 64, 67
1, 230942, Control_c, 0, 64, 69
1, 230957, Control_c, 0, 64, 71
1, 230972, Control_c, 0, 64, 73
1, 230986, Control_c, 0, 64, 74
1, 231001, Control_c, 0, 64, 75
1, 231016, Control_c, 0, 64, 76
1, 231030, Control_c, 0, 64, 77
1, 231045, Control_c, 0, 64, 78
1, 231060, Control_c, 0, 64, 78
1, 231075, Control_c, 0, 64, 79
1, 231090, Control_c, 0, 64, 79
1, 231105, Control_c, 0, 64, 80
1, 231224, Control_c, 0, 64, 78
1, 231239, Control_c, 0, 64, 75
1, 231254, Control_c, 0, 64, 71
1, 231255, Note_on_c, 0, 64, 52
1, 231257, Note_on_c, 0, 40, 39
1, 231269, Control_c, 0, 64, 66
1, 231284, Control_c, 0, 64, 61
1, 231299, Control_c, 0, 64, 58
1, 231328, Control_c, 0, 64, 57
1, 231343, Control_c, 0, 64, 54
1, 231358, Control_c, 0, 64, 51
1, 231370, Note_off_c, 0, 62, 48
1, 231373, Control_c, 0, 64, 49
1, 231379, Note_off_c, 0, 46, 36
1, 231388, Control_c, 0, 64, 50
1, 231402, Control_c, 0, 64, 53
1, 231417, Control_c, 0, 64, 56
1, 231432, Control_c, 0, 64, 61
1, 231446, Control_c, 0, 64, 65
1, 231461, Control_c, 0, 64, 68
1, 231476, Control_c, 0, 64, 71
1, 231491, Control_c, 0, 64, 73
1, 231506, Control_c, 0, 64, 75
1, 231520, Control_c, 0, 64, 76
1, 231535, Control_c, 0, 64, 77
1, 231550, Control_c, 0, 64, 77
1, 231588, Control_c, 0, 64, 78
1, 231721, Control_c, 0, 64, 76
1, 231735, Control_c, 0, 64, 74
1, 231750, Control_c, 0, 64, 70
1, 231755, Note_on_c, 0, 45, 44
1, 231765, Control_c, 0, 64, 66
1, 231767, Note_on_c, 0, 65, 50
1, 231774, Note_on_c, 0, 60, 40
1, 231779, Control_c, 0, 64, 63
1, 231782, Note_off_c, 0, 55, 35
1, 231794, Control_c, 0, 64, 61
1, 231823, Control_c, 0, 64, 59
1, 231838, Control_c, 0, 64, 56
1, 231850, Note_off_c, 0, 64, 52
1, 231852, Control_c, 0, 64, 50
1, 231867, Control_c, 0, 64, 47
1, 231882, Control_c, 0, 64, 46
1, 231897, Control_c, 0, 64, 47
1, 231926, Control_c, 0, 64, 46
1, 231941, Control_c, 0, 64, 46
1, 232009, Note_off_c, 0, 40, 31
1, 232031, Control_c, 0, 64, 47
1, 232046, Control_c, 0, 64, 47
1, 232061, Control_c, 0, 64, 48
1, 232075, Control_c, 0, 64, 48
1, 232120, Control_c, 0, 64, 49
1, 232135, Control_c, 0, 64, 49
1, 232149, Control_c, 0, 64, 50
1, 232179, Control_c, 0, 64, 51
1, 232223, Control_c, 0, 64, 52
1, 232238, Control_c, 0, 64, 52
1, 232253, Control_c, 0, 64, 53
1, 232282, Note_on_c, 0, 64, 50
1, 232335, Control_c, 0, 64, 54
1, 232349, Control_c, 0, 64, 54
1, 232408, Control_c, 0, 64, 55
1, 232423, Control_c, 0, 64, 56
1, 232438, Control_c, 0, 64, 58
1, 232453, Control_c, 0, 64, 59
1, 232467, Control_c, 0, 64, 60
1, 232482, Control_c, 0, 64, 61
1, 232497, Control_c, 0, 64, 62
1, 232512, Control_c, 0, 64, 63
1, 232527, Control_c, 0, 64, 64
1, 232542, Control_c, 0, 64, 65
1, 232557, Control_c, 0, 64, 66
1, 232586, Control_c, 0, 64, 67
1, 232629, Note_off_c, 0, 65, 25
1, 232631, Control_c, 0, 64, 67
1, 232675, Control_c, 0, 64, 68
1, 232750, Control_c, 0, 64, 67
1, 232765, Control_c, 0, 64, 66
1, 232780, Control_c, 0, 64, 65
1, 232795, Control_c, 0, 64, 64
1, 232795, Note_on_c, 0, 62, 50
1, 232810, Control_c, 0, 64, 62
1, 232812, Note_on_c, 0, 53, 33
1, 232824, Control_c, 0, 64, 59
1, 232838, Note_off_c, 0, 60, 57
1, 232839, Control_c, 0, 64, 56
1, 232854, Control_c, 0, 64, 54
1, 232866, Note_off_c, 0, 64, 56
1, 232869, Control_c, 0, 64, 54
1, 232898, Control_c, 0, 64, 54
1, 232928, Control_c, 0, 64, 55
1, 232943, Control_c, 0, 64, 57
1, 232958, Control_c, 0, 64, 61
1, 232972, Control_c, 0, 64, 64
1, 232987, Control_c, 0, 64, 66
1, 233002, Control_c, 0, 64, 69
1, 233016, Control_c, 0, 64, 71
1, 233031, Control_c, 0, 64, 73
1, 233046, Control_c, 0, 64, 74
1, 233061, Control_c, 0, 64, 76
1, 233084, Control_c, 0, 64, 77
1, 233098, Control_c, 0, 64, 78
1, 233113, Control_c, 0, 64, 79
1, 233127, Note_off_c, 0, 53, 41
1, 233128, Control_c, 0, 64, 79
1, 233246, Control_c, 0, 64, 79
1, 233261, Control_c, 0, 64, 77
1, 233276, Control_c, 0, 64, 75
1, 233290, Control_c, 0, 64, 72
1, 233306, Control_c, 0, 64, 68
1, 233314, Note_on_c, 0, 64, 48
1, 233317, Note_on_c, 0, 60, 47
1, 233321, Control_c, 0, 64, 65
1, 233336, Control_c, 0, 64, 63
1, 233338, Note_off_c, 0, 62, 57
1, 233341, Note_on_c, 0, 43, 30
1, 233351, Control_c, 0, 64, 60
1, 233365, Control_c, 0, 64, 59
1, 233370, Note_off_c, 0, 45, 41
1, 233380, Control_c, 0, 64, 58
1, 233395, Control_c, 0, 64, 57
1, 233410, Control_c, 0, 64, 55
1, 233424, Control_c, 0, 64, 54
1, 233439, Control_c, 0, 64, 53
1, 233469, Control_c, 0, 64, 52
1, 233484, Control_c, 0, 64, 51
1, 233513, Control_c, 0, 64, 50
1, 233603, Control_c, 0, 64, 51
1, 233618, Control_c, 0, 64, 51
1, 233633, Control_c, 0, 64, 52
1, 233648, Control_c, 0, 64, 53
1, 233677, Control_c, 0, 64, 53
1, 233707, Control_c, 0, 64, 54
1, 233722, Control_c, 0, 64, 55
1, 233737, Control_c, 0, 64, 56
1, 233752, Control_c, 0, 64, 57
1, 233767, Control_c, 0, 64, 58
1, 233782, Control_c, 0, 64, 58
1, 233796, Control_c, 0, 64, 59
1, 233811, Control_c, 0, 64, 60
1, 233833, Control_c, 0, 64, 62
1, 233837, Note_on_c, 0, 62, 47
1, 233847, Control_c, 0, 64, 63
1, 233859, Note_off_c, 0, 60, 53
1, 233862, Control_c, 0, 64, 64
1, 233877, Control_c, 0, 64, 65
1, 233892, Control_c, 0, 64, 66
1, 233907, Control_c, 0, 64, 67
1, 233922, Control_c, 0, 64, 68
1, 233937, Control_c, 0, 64, 69
1, 233952, Control_c, 0, 64, 70
1, 233967, Control_c, 0, 64, 71
1, 233981, Control_c, 0, 64, 72
1, 233996, Control_c, 0, 64, 73
1, 234011, Control_c, 0, 64, 73
1, 234055, Control_c, 0, 64, 74
1, 234056, Note_on_c, 0, 58, 49
1, 234070, Control_c, 0, 64, 74
1, 234085, Control_c, 0, 64, 75
1, 234115, Control_c, 0, 64, 75
1, 234159, Control_c, 0, 64, 76
1, 234265, Note_off_c, 0, 64, 19
1, 234301, Note_off_c, 0, 62, 33
1, 234307, Control_c, 0, 64, 75
1, 234321, Control_c, 0, 64, 73
1, 234322, Note_on_c, 0, 60, 50
1, 234330, Note_on_c, 0, 45, 42
1, 234337, Note_on_c, 0, 57, 36
1, 234337, Control_c, 0, 64, 71
1, 234352, Control_c, 0, 64, 67
1, 234367, Control_c, 0, 64, 63
1, 234382, Control_c, 0, 64, 59
1, 234391, Note_off_c, 0, 58, 55
1, 234396, Control_c, 0, 64, 56
1, 234403, Note_off_c, 0, 43, 42
1, 234411, Control_c, 0, 64, 55
1, 234426, Control_c, 0, 64, 53
1, 234441, Control_c, 0, 64, 51
1, 234456, Control_c, 0, 64, 48
1, 234470, Control_c, 0, 64, 46
1, 234485, Control_c, 0, 64, 47
1, 234500, Control_c, 0, 64, 49
1, 234515, Control_c, 0, 64, 52
1, 234530, Control_c, 0, 64, 57
1, 234545, Control_c, 0, 64, 63
1, 234560, Control_c, 0, 64, 66
1, 234582, Control_c, 0, 64, 69
1, 234596, Control_c, 0, 64, 72
1, 234611, Control_c, 0, 64, 74
1, 234626, Control_c, 0, 64, 75
1, 234641, Control_c, 0, 64, 76
1, 234656, Control_c, 0, 64, 77
1, 234670, Control_c, 0, 64, 77
1, 234685, Control_c, 0, 64, 78
1, 234819, Control_c, 0, 64, 77
1, 234834, Control_c, 0, 64, 77
1, 234849, Control_c, 0, 64, 76
1, 234864, Control_c, 0, 64, 74
1, 234878, Control_c, 0, 64, 70
1, 234888, Note_on_c, 0, 40, 38
1, 234893, Control_c, 0, 64, 67
1, 234908, Control_c, 0, 64, 64
1, 234923, Control_c, 0, 64, 62
1, 234938, Control_c, 0, 64, 60
1, 234952, Control_c, 0, 64, 59
1, 234967, Control_c, 0, 64, 59
1, 234982, Control_c, 0, 64, 58
1, 234992, Note_off_c, 0, 45, 53
1, 234996, Control_c, 0, 64, 56
1, 235011, Control_c, 0, 64, 54
1, 235026, Control_c, 0, 64, 52
1, 235041, Control_c, 0, 64, 52
1, 235070, Control_c, 0, 64, 51
1, 235085, Control_c, 0, 64, 50
1, 235100, Control_c, 0, 64, 49
1, 235293, Control_c, 0, 64, 49
1, 235390, Control_c, 0, 64, 48
1, 235409, Note_on_c, 0, 55, 39
1, 235417, Note_off_c, 0, 57, 58
1, 235449, Control_c, 0, 64, 48
1, 235493, Control_c, 0, 64, 47
1, 235597, Control_c, 0, 64, 48
1, 235612, Control_c, 0, 64, 48
1, 235641, Control_c, 0, 64, 49
1, 235656, Control_c, 0, 64, 50
1, 235671, Control_c, 0, 64, 51
1, 235686, Control_c, 0, 64, 52
1, 235700, Control_c, 0, 64, 52
1, 235715, Control_c, 0, 64, 53
1, 235730, Control_c, 0, 64, 53
1, 235745, Control_c, 0, 64, 54
1, 235760, Control_c, 0, 64, 55
1, 235774, Control_c, 0, 64, 55
1, 235789, Control_c, 0, 64, 56
1, 235848, Control_c, 0, 64, 56
1, 235856, Note_on_c, 0, 58, 36
1, 235878, Control_c, 0, 64, 57
1, 235896, Note_off_c, 0, 60, 60
1, 235907, Control_c, 0, 64, 58
1, 235938, Control_c, 0, 64, 58
1, 235968, Control_c, 0, 64, 59
1, 235982, Control_c, 0, 64, 59
1, 235997, Control_c, 0, 64, 60
1, 236012, Control_c, 0, 64, 61
1, 236027, Control_c, 0, 64, 63
1, 236041, Control_c, 0, 64, 65
1, 236064, Control_c, 0, 64, 67
1, 236079, Control_c, 0, 64, 68
1, 236094, Control_c, 0, 64, 70
1, 236109, Control_c, 0, 64, 71
1, 236123, Control_c, 0, 64, 72
1, 236128, Note_on_c, 0, 60, 50
1, 236138, Control_c, 0, 64, 72
1, 236153, Control_c, 0, 64, 73
1, 236168, Control_c, 0, 64, 73
1, 236183, Control_c, 0, 64, 74
1, 236189, Note_off_c, 0, 58, 59
1, 236197, Control_c, 0, 64, 74
1, 236227, Control_c, 0, 64, 75
1, 236375, Control_c, 0, 64, 74
1, 236390, Control_c, 0, 64, 73
1, 236405, Control_c, 0, 64, 71
1, 236420, Control_c, 0, 64, 68
1, 236428, Note_on_c, 0, 41, 49
1, 236429, Note_on_c, 0, 62, 63
1, 236435, Control_c, 0, 64, 66
1, 236436, Note_on_c, 0, 57, 41
1, 236450, Control_c, 0, 64, 64
1, 236463, Note_off_c, 0, 60, 59
1, 236465, Control_c, 0, 64, 63
1, 236470, Note_off_c, 0, 55, 39
1, 236479, Control_c, 0, 64, 61
1, 236494, Control_c, 0, 64, 59
1, 236509, Control_c, 0, 64, 57
1, 236524, Control_c, 0, 64, 56
1, 236551, Note_off_c, 0, 40, 38
1, 236554, Control_c, 0, 64, 55
1, 236568, Control_c, 0, 64, 54
1, 236583, Control_c, 0, 64, 54
1, 236747, Control_c, 0, 64, 54
1, 236777, Control_c, 0, 64, 55
1, 236792, Control_c, 0, 64, 55
1, 236873, Control_c, 0, 64, 56
1, 236903, Control_c, 0, 64, 56
1, 236947, Control_c, 0, 64, 57
1, 236958, Note_on_c, 0, 58, 54
1, 236991, Control_c, 0, 64, 57
1, 236999, Note_off_c, 0, 57, 63
1, 237021, Control_c, 0, 64, 58
1, 237051, Control_c, 0, 64, 58
1, 237065, Control_c, 0, 64, 59
1, 237080, Control_c, 0, 64, 59
1, 237095, Control_c, 0, 64, 60
1, 237139, Control_c, 0, 64, 60
1, 237183, Control_c, 0, 64, 61
1, 237257, Control_c, 0, 64, 61
1, 237461, Note_on_c, 0, 57, 46
1, 237465, Control_c, 0, 64, 61
1, 237536, Note_off_c, 0, 58, 58
1, 237785, Control_c, 0, 64, 61
1, 237859, Control_c, 0, 64, 61
1, 237918, Control_c, 0, 64, 60
1, 237970, Note_on_c, 0, 46, 56
1, 237992, Control_c, 0, 64, 60
1, 238113, Note_off_c, 0, 41, 58
1, 238170, Control_c, 0, 64, 60
1, 238244, Control_c, 0, 64, 61
1, 238259, Control_c, 0, 64, 61
1, 238325, Control_c, 0, 64, 62
1, 238444, Control_c, 0, 64, 61
1, 238482, Note_on_c, 0, 55, 59
1, 238487, Note_off_c, 0, 57, 62
1, 238504, Control_c, 0, 64, 61
1, 238518, Control_c, 0, 64, 60
1, 238563, Control_c, 0, 64, 61
1, 238578, Control_c, 0, 64, 61
1, 238593, Control_c, 0, 64, 62
1, 238608, Control_c, 0, 64, 63
1, 238623, Control_c, 0, 64, 64
1, 238637, Control_c, 0, 64, 64
1, 238652, Control_c, 0, 64, 65
1, 238667, Control_c, 0, 64, 66
1, 238682, Control_c, 0, 64, 68
1, 238697, Control_c, 0, 64, 69
1, 238711, Control_c, 0, 64, 70
1, 238726, Control_c, 0, 64, 71
1, 238741, Control_c, 0, 64, 71
1, 238756, Control_c, 0, 64, 72
1, 238770, Control_c, 0, 64, 72
1, 238785, Control_c, 0, 64, 73
1, 238800, Control_c, 0, 64, 74
1, 238815, Control_c, 0, 64, 74
1, 238844, Control_c, 0, 64, 75
1, 238933, Control_c, 0, 64, 74
1, 238948, Control_c, 0, 64, 71
1, 238963, Control_c, 0, 64, 67
1, 238965, Note_on_c, 0, 64, 66
1, 238970, Note_on_c, 0, 60, 56
1, 238977, Note_on_c, 0, 45, 50
1, 238977, Control_c, 0, 64, 62
1, 238992, Control_c, 0, 64, 53
1, 238995, Note_off_c, 0, 62, 61
1, 238996, Note_off_c, 0, 46, 54
1, 239007, Control_c, 0, 64, 45
1, 239017, Note_off_c, 0, 55, 58
1, 239022, Control_c, 0, 64, 38
1, 239037, Control_c, 0, 64, 29
1, 239059, Control_c, 0, 64, 0
1, 239217, Note_on_c, 0, 46, 67
1, 239238, Control_c, 0, 64, 43
1, 239253, Control_c, 0, 64, 61
1, 239267, Control_c, 0, 64, 65
1, 239281, Note_off_c, 0, 45, 58
1, 239282, Control_c, 0, 64, 68
1, 239296, Control_c, 0, 64, 69
1, 239311, Control_c, 0, 64, 70
1, 239326, Control_c, 0, 64, 71
1, 239341, Control_c, 0, 64, 72
1, 239356, Control_c, 0, 64, 73
1, 239385, Control_c, 0, 64, 73
1, 239459, Control_c, 0, 64, 73
1, 239474, Control_c, 0, 64, 72
1, 239489, Control_c, 0, 64, 70
1, 239504, Control_c, 0, 64, 66
1, 239517, Note_on_c, 0, 55, 63
1, 239519, Control_c, 0, 64, 63
1, 239522, Note_on_c, 0, 48, 69
1, 239531, Note_off_c, 0, 60, 61
1, 239533, Control_c, 0, 64, 59
1, 239548, Control_c, 0, 64, 54
1, 239552, Note_off_c, 0, 46, 62
1, 239563, Control_c, 0, 64, 49
1, 239578, Control_c, 0, 64, 44
1, 239592, Control_c, 0, 64, 36
1, 239607, Control_c, 0, 64, 18
1, 239622, Control_c, 0, 64, 0
1, 239741, Control_c, 0, 64, 24
1, 239755, Control_c, 0, 64, 48
1, 239770, Control_c, 0, 64, 57
1, 239785, Control_c, 0, 64, 62
1, 239807, Control_c, 0, 64, 65
1, 239822, Control_c, 0, 64, 67
1, 239837, Control_c, 0, 64, 68
1, 239852, Control_c, 0, 64, 70
1, 239866, Control_c, 0, 64, 72
1, 239881, Control_c, 0, 64, 73
1, 239896, Control_c, 0, 64, 74
1, 239910, Control_c, 0, 64, 75
1, 239971, Control_c, 0, 64, 74
1, 239986, Control_c, 0, 64, 73
1, 240001, Control_c, 0, 64, 71
1, 240015, Control_c, 0, 64, 68
1, 240030, Control_c, 0, 64, 65
1, 240042, Note_on_c, 0, 65, 68
1, 240046, Control_c, 0, 64, 63
1, 240061, Control_c, 0, 64, 61
1, 240076, Control_c, 0, 64, 59
1, 240090, Control_c, 0, 64, 57
1, 240105, Control_c, 0, 64, 56
1, 240107, Note_off_c, 0, 64, 59
1, 240135, Control_c, 0, 64, 58
1, 240150, Control_c, 0, 64, 59
1, 240164, Control_c, 0, 64, 60
1, 240179, Control_c, 0, 64, 63
1, 240194, Control_c, 0, 64, 65
1, 240209, Control_c, 0, 64, 67
1, 240223, Control_c, 0, 64, 70
1, 240238, Control_c, 0, 64, 72
1, 240253, Control_c, 0, 64, 74
1, 240268, Control_c, 0, 64, 75
1, 240283, Control_c, 0, 64, 76
1, 240298, Control_c, 0, 64, 77
1, 240313, Control_c, 0, 64, 79
1, 240318, Note_off_c, 0, 55, 53
1, 240328, Control_c, 0, 64, 79
1, 240342, Control_c, 0, 64, 80
1, 240357, Control_c, 0, 64, 81
1, 240372, Control_c, 0, 64, 81
1, 240387, Control_c, 0, 64, 82
1, 240402, Control_c, 0, 64, 82
1, 240416, Control_c, 0, 64, 83
1, 240490, Control_c, 0, 64, 82
1, 240505, Control_c, 0, 64, 81
1, 240516, Note_off_c, 0, 65, 63
1, 240520, Note_on_c, 0, 64, 63
1, 240520, Control_c, 0, 64, 78
1, 240532, Note_on_c, 0, 57, 61
1, 240534, Control_c, 0, 64, 75
1, 240549, Control_c, 0, 64, 72
1, 240572, Control_c, 0, 64, 68
1, 240587, Control_c, 0, 64, 65
1, 240602, Control_c, 0, 64, 64
1, 240616, Control_c, 0, 64, 64
1, 240646, Control_c, 0, 64, 65
1, 240661, Control_c, 0, 64, 66
1, 240676, Control_c, 0, 64, 67
1, 240690, Control_c, 0, 64, 70
1, 240705, Control_c, 0, 64, 73
1, 240720, Control_c, 0, 64, 75
1, 240736, Control_c, 0, 64, 76
1, 240751, Control_c, 0, 64, 77
1, 240766, Control_c, 0, 64, 78
1, 240780, Control_c, 0, 64, 79
1, 240795, Control_c, 0, 64, 80
1, 240810, Control_c, 0, 64, 81
1, 240825, Control_c, 0, 64, 82
1, 240839, Control_c, 0, 64, 82
1, 240854, Control_c, 0, 64, 83
1, 240884, Control_c, 0, 64, 83
1, 240917, Note_off_c, 0, 57, 36
1, 240987, Control_c, 0, 64, 82
1, 241002, Control_c, 0, 64, 79
1, 241017, Control_c, 0, 64, 75
1, 241025, Note_on_c, 0, 43, 51
1, 241031, Note_on_c, 0, 67, 75
1, 241031, Control_c, 0, 64, 71
1, 241042, Note_on_c, 0, 58, 68
1, 241046, Control_c, 0, 64, 67
1, 241059, Note_off_c, 0, 64, 51
1, 241061, Control_c, 0, 64, 64
1, 241076, Note_off_c, 0, 48, 62
1, 241076, Control_c, 0, 64, 62
1, 241091, Control_c, 0, 64, 61
1, 241106, Control_c, 0, 64, 61
1, 241121, Control_c, 0, 64, 60
1, 241136, Control_c, 0, 64, 58
1, 241151, Control_c, 0, 64, 55
1, 241165, Control_c, 0, 64, 54
1, 241195, Control_c, 0, 64, 54
1, 241210, Control_c, 0, 64, 52
1, 241225, Control_c, 0, 64, 51
1, 241239, Control_c, 0, 64, 50
1, 241254, Control_c, 0, 64, 51
1, 241269, Control_c, 0, 64, 52
1, 241299, Control_c, 0, 64, 53
1, 241320, Control_c, 0, 64, 54
1, 241335, Control_c, 0, 64, 58
1, 241350, Control_c, 0, 64, 62
1, 241365, Control_c, 0, 64, 64
1, 241380, Control_c, 0, 64, 66
1, 241395, Control_c, 0, 64, 67
1, 241410, Control_c, 0, 64, 68
1, 241425, Control_c, 0, 64, 69
1, 241439, Control_c, 0, 64, 70
1, 241454, Control_c, 0, 64, 72
1, 241469, Control_c, 0, 64, 73
1, 241484, Control_c, 0, 64, 73
1, 241577, Note_on_c, 0, 65, 73
1, 241648, Control_c, 0, 64, 74
1, 241662, Control_c, 0, 64, 74
1, 241675, Note_off_c, 0, 58, 65
1, 241677, Control_c, 0, 64, 76
1, 241692, Control_c, 0, 64, 77
1, 241707, Control_c, 0, 64, 78
1, 241722, Control_c, 0, 64, 79
1, 241727, Note_off_c, 0, 67, 32
1, 241736, Control_c, 0, 64, 80
1, 241751, Control_c, 0, 64, 81
1, 241766, Control_c, 0, 64, 81
1, 241780, Control_c, 0, 64, 82
1, 241840, Control_c, 0, 64, 82
1, 242036, Note_on_c, 0, 64, 70
1, 242042, Note_on_c, 0, 60, 58
1, 242089, Note_off_c, 0, 65, 60
1, 242500, Control_c, 0, 64, 82
1, 242515, Control_c, 0, 64, 81
1, 242530, Control_c, 0, 64, 79
1, 242543, Note_off_c, 0, 60, 56
1, 242545, Control_c, 0, 64, 76
1, 242559, Control_c, 0, 64, 73
1, 242562, Note_on_c, 0, 69, 73
1, 242568, Note_on_c, 0, 41, 61
1, 242574, Note_on_c, 0, 62, 61
1, 242574, Control_c, 0, 64, 70
1, 242589, Control_c, 0, 64, 67
1, 242590, Note_off_c, 0, 64, 63
1, 242603, Control_c, 0, 64, 65
1, 242618, Control_c, 0, 64, 64
1, 242633, Control_c, 0, 64, 63
1, 242648, Control_c, 0, 64, 62
1, 242663, Control_c, 0, 64, 62
1, 242677, Control_c, 0, 64, 61
1, 242692, Control_c, 0, 64, 61
1, 242707, Control_c, 0, 64, 60
1, 242722, Control_c, 0, 64, 60
1, 242737, Control_c, 0, 64, 59
1, 242766, Control_c, 0, 64, 59
1, 242833, Control_c, 0, 64, 59
1, 242878, Control_c, 0, 64, 60
1, 242892, Control_c, 0, 64, 60
1, 242907, Control_c, 0, 64, 61
1, 242922, Control_c, 0, 64, 61
1, 242951, Control_c, 0, 64, 62
1, 242966, Control_c, 0, 64, 62
1, 242981, Control_c, 0, 64, 63
1, 242996, Control_c, 0, 64, 63
1, 243011, Control_c, 0, 64, 64
1, 243015, Note_off_c, 0, 43, 0
1, 243041, Control_c, 0, 64, 64
1, 243053, Poly_aftertouch_c, 0, 43, 127
1, 243085, Control_c, 0, 64, 65
1, 243106, Note_on_c, 0, 65, 50
1, 243205, Control_c, 0, 64, 65
1, 243220, Control_c, 0, 64, 66
1, 243234, Control_c, 0, 64, 67
1, 243249, Control_c, 0, 64, 70
1, 243264, Control_c, 0, 64, 72
1, 243273, Note_off_c, 0, 62, 61
1, 243279, Control_c, 0, 64, 74
1, 243294, Control_c, 0, 64, 76
1, 243309, Control_c, 0, 64, 77
1, 243324, Control_c, 0, 64, 78
1, 243338, Control_c, 0, 64, 79
1, 243353, Control_c, 0, 64, 80
1, 243368, Control_c, 0, 64, 81
1, 243383, Control_c, 0, 64, 81
1, 243383, Note_off_c, 0, 69, 64
1, 243400, Poly_aftertouch_c, 0, 43, 0
1, 243413, Control_c, 0, 64, 82
1, 243625, Note_on_c, 0, 64, 50
1, 243628, Note_on_c, 0, 67, 62
1, 243662, Note_off_c, 0, 65, 59
1, 243895, Note_on_c, 0, 69, 74
1, 243998, Note_off_c, 0, 64, 63
1, 244221, Control_c, 0, 64, 81
1, 244235, Note_on_c, 0, 70, 75
1, 244236, Control_c, 0, 64, 79
1, 244239, Note_on_c, 0, 62, 54
1, 244248, Note_on_c, 0, 46, 63
1, 244250, Control_c, 0, 64, 75
1, 244265, Control_c, 0, 64, 70
1, 244280, Control_c, 0, 64, 65
1, 244289, Note_off_c, 0, 69, 60
1, 244290, Note_off_c, 0, 67, 50
1, 244295, Control_c, 0, 64, 60
1, 244317, Control_c, 0, 64, 56
1, 244331, Control_c, 0, 64, 55
1, 244346, Control_c, 0, 64, 54
1, 244361, Control_c, 0, 64, 50
1, 244376, Note_off_c, 0, 41, 36
1, 244376, Control_c, 0, 64, 44
1, 244391, Control_c, 0, 64, 35
1, 244406, Control_c, 0, 64, 27
1, 244421, Control_c, 0, 64, 20
1, 244435, Control_c, 0, 64, 0
1, 244495, Control_c, 0, 64, 21
1, 244510, Control_c, 0, 64, 34
1, 244524, Control_c, 0, 64, 48
1, 244538, Control_c, 0, 64, 60
1, 244553, Control_c, 0, 64, 64
1, 244568, Control_c, 0, 64, 66
1, 244582, Control_c, 0, 64, 68
1, 244597, Control_c, 0, 64, 71
1, 244612, Control_c, 0, 64, 74
1, 244626, Note_off_c, 0, 70, 56
1, 244627, Control_c, 0, 64, 77
1, 244642, Control_c, 0, 64, 78
1, 244656, Control_c, 0, 64, 79
1, 244671, Control_c, 0, 64, 80
1, 244686, Control_c, 0, 64, 81
1, 244701, Control_c, 0, 64, 82
1, 244716, Control_c, 0, 64, 83
1, 244732, Control_c, 0, 64, 83
1, 244762, Note_on_c, 0, 70, 67
1, 244776, Control_c, 0, 64, 84
1, 244805, Control_c, 0, 64, 84
1, 245240, Note_on_c, 0, 65, 65
1, 245249, Note_on_c, 0, 45, 53
1, 245258, Control_c, 0, 64, 84
1, 245273, Control_c, 0, 64, 83
1, 245287, Control_c, 0, 64, 82
1, 245302, Control_c, 0, 64, 82
1, 245321, Note_off_c, 0, 70, 56
1, 245331, Control_c, 0, 64, 81
1, 245658, Control_c, 0, 64, 80
1, 245673, Control_c, 0, 64, 79
1, 245688, Control_c, 0, 64, 77
1, 245702, Control_c, 0, 64, 75
1, 245717, Control_c, 0, 64, 73
1, 245732, Control_c, 0, 64, 71
1, 245742, Note_on_c, 0, 70, 69
1, 245747, Control_c, 0, 64, 69
1, 245762, Control_c, 0, 64, 68
1, 245764, Note_on_c, 0, 43, 50
1, 245776, Note_off_c, 0, 45, 56
1, 245777, Control_c, 0, 64, 67
1, 245792, Control_c, 0, 64, 65
1, 245814, Control_c, 0, 64, 65
1, 245839, Note_off_c, 0, 46, 41
1, 245841, Note_off_c, 0, 65, 63
1, 245843, Control_c, 0, 64, 64
1, 245858, Control_c, 0, 64, 64
1, 245888, Control_c, 0, 64, 63
1, 245947, Control_c, 0, 64, 63
1, 246169, Control_c, 0, 64, 63
1, 246243, Note_on_c, 0, 45, 57
1, 246362, Note_off_c, 0, 43, 35
1, 246466, Control_c, 0, 64, 64
1, 246592, Control_c, 0, 64, 64
1, 246696, Control_c, 0, 64, 64
1, 246704, Note_on_c, 0, 46, 59
1, 246706, Note_on_c, 0, 67, 54
1, 246786, Note_off_c, 0, 45, 37
1, 246943, Note_on_c, 0, 65, 66
1, 246948, Note_off_c, 0, 67, 58
1, 247010, Note_off_c, 0, 62, 59
1, 247225, Note_off_c, 0, 65, 65
1, 247226, Note_on_c, 0, 64, 58
1, 247232, Note_on_c, 0, 48, 49
1, 247244, Note_off_c, 0, 46, 63
1, 247245, Control_c, 0, 64, 63
1, 247297, Control_c, 0, 64, 63
1, 247400, Control_c, 0, 64, 63
1, 247533, Control_c, 0, 64, 63
1, 247563, Control_c, 0, 64, 61
1, 247578, Control_c, 0, 64, 58
1, 247593, Control_c, 0, 64, 52
1, 247607, Control_c, 0, 64, 46
1, 247622, Control_c, 0, 64, 39
1, 247637, Control_c, 0, 64, 24
1, 247652, Control_c, 0, 64, 0
1, 247717, Note_on_c, 0, 69, 72
1, 247769, Note_off_c, 0, 70, 61
1, 247845, Control_c, 0, 64, 64
1, 247860, Control_c, 0, 64, 70
1, 247874, Control_c, 0, 64, 75
1, 247889, Control_c, 0, 64, 79
1, 247904, Control_c, 0, 64, 82
1, 247920, Control_c, 0, 64, 85
1, 247935, Control_c, 0, 64, 88
1, 247941, Note_off_c, 0, 48, 63
1, 247949, Control_c, 0, 64, 91
1, 247964, Control_c, 0, 64, 93
1, 247966, Note_off_c, 0, 64, 60
1, 247979, Control_c, 0, 64, 95
1, 247994, Control_c, 0, 64, 96
1, 248009, Control_c, 0, 64, 97
1, 248023, Control_c, 0, 64, 98
1, 248038, Control_c, 0, 64, 99
1, 248060, Control_c, 0, 64, 99
1, 248075, Control_c, 0, 64, 100
1, 248090, Control_c, 0, 64, 100
1, 248120, Control_c, 0, 64, 101
1, 248223, Control_c, 0, 64, 99
1, 248236, Note_on_c, 0, 46, 47
1, 248238, Control_c, 0, 64, 96
1, 248241, Note_on_c, 0, 74, 67
1, 248253, Control_c, 0, 64, 90
1, 248254, Note_on_c, 0, 65, 59
1, 248268, Control_c, 0, 64, 83
1, 248283, Control_c, 0, 64, 76
1, 248297, Control_c, 0, 64, 69
1, 248312, Control_c, 0, 64, 64
1, 248320, Note_off_c, 0, 69, 62
1, 248327, Control_c, 0, 64, 60
1, 248341, Control_c, 0, 64, 57
1, 248386, Control_c, 0, 64, 56
1, 248415, Control_c, 0, 64, 58
1, 248430, Control_c, 0, 64, 63
1, 248445, Control_c, 0, 64, 67
1, 248460, Control_c, 0, 64, 70
1, 248475, Control_c, 0, 64, 74
1, 248490, Control_c, 0, 64, 75
1, 248504, Control_c, 0, 64, 77
1, 248519, Control_c, 0, 64, 78
1, 248534, Control_c, 0, 64, 79
1, 248549, Control_c, 0, 64, 80
1, 248564, Control_c, 0, 64, 80
1, 248712, Control_c, 0, 64, 80
1, 248728, Control_c, 0, 64, 79
1, 248743, Control_c, 0, 64, 77
1, 248755, Note_on_c, 0, 70, 65
1, 248758, Control_c, 0, 64, 73
1, 248769, Note_on_c, 0, 50, 44
1, 248772, Control_c, 0, 64, 70
1, 248787, Control_c, 0, 64, 66
1, 248809, Control_c, 0, 64, 65
1, 248824, Control_c, 0, 64, 64
1, 248839, Control_c, 0, 64, 63
1, 248853, Control_c, 0, 64, 63
1, 248868, Control_c, 0, 64, 61
1, 248883, Control_c, 0, 64, 60
1, 248898, Control_c, 0, 64, 58
1, 248910, Note_off_c, 0, 46, 36
1, 248913, Control_c, 0, 64, 58
1, 248928, Control_c, 0, 64, 57
1, 248943, Control_c, 0, 64, 57
1, 248957, Control_c, 0, 64, 56
1, 248972, Control_c, 0, 64, 56
1, 249063, Note_off_c, 0, 74, 40
1, 249120, Control_c, 0, 64, 56
1, 249179, Control_c, 0, 64, 57
1, 249241, Note_on_c, 0, 69, 48
1, 249328, Note_off_c, 0, 70, 53
1, 249431, Control_c, 0, 64, 56
1, 249476, Control_c, 0, 64, 56
1, 249483, Note_on_c, 0, 48, 40
1, 249548, Note_off_c, 0, 50, 36
1, 249741, Note_on_c, 0, 67, 52
1, 249747, Note_on_c, 0, 50, 40
1, 249762, Note_off_c, 0, 48, 41
1, 249765, Control_c, 0, 64, 55
1, 249770, Note_off_c, 0, 69, 60
1, 249780, Control_c, 0, 64, 55
1, 249795, Control_c, 0, 64, 54
1, 249855, Control_c, 0, 64, 54
1, 249986, Note_on_c, 0, 52, 44
1, 250006, Note_off_c, 0, 50, 40
1, 250047, Control_c, 0, 64, 54
1, 250091, Control_c, 0, 64, 55
1, 250135, Control_c, 0, 64, 55
1, 250165, Control_c, 0, 64, 56
1, 250284, Note_on_c, 0, 53, 35
1, 250297, Note_on_c, 0, 69, 41
1, 250302, Note_off_c, 0, 52, 35
1, 250341, Note_off_c, 0, 67, 61
1, 250396, Control_c, 0, 64, 56
1, 250440, Control_c, 0, 64, 57
1, 250470, Control_c, 0, 64, 57
1, 250499, Control_c, 0, 64, 58
1, 250529, Control_c, 0, 64, 58
1, 250588, Control_c, 0, 64, 59
1, 250809, Note_on_c, 0, 64, 39
1, 250811, Control_c, 0, 64, 59
1, 250870, Control_c, 0, 64, 60
1, 250928, Note_off_c, 0, 65, 35
1, 250943, Control_c, 0, 64, 60
1, 251070, Control_c, 0, 64, 61
1, 251160, Control_c, 0, 64, 61
1, 251278, Control_c, 0, 64, 62
1, 251345, Note_on_c, 0, 62, 40
1, 251362, Note_off_c, 0, 64, 42
1, 251470, Control_c, 0, 64, 62
1, 251574, Control_c, 0, 64, 63
1, 251678, Control_c, 0, 64, 63
1, 251868, Note_on_c, 0, 64, 35
1, 251890, Note_off_c, 0, 62, 52
1, 252010, Note_off_c, 0, 53, 41
1, 252063, Note_off_c, 0, 69, 38
1, 252086, Control_c, 0, 64, 64
1, 252400, Note_on_c, 0, 62, 33
1, 252401, Note_off_c, 0, 64, 40
1, 252567, Control_c, 0, 64, 65
1, 252582, Control_c, 0, 64, 67
1, 252597, Control_c, 0, 64, 70
1, 252612, Control_c, 0, 64, 72
1, 252627, Control_c, 0, 64, 74
1, 252642, Control_c, 0, 64, 76
1, 252657, Control_c, 0, 64, 78
1, 252669, Note_off_c, 0, 62, 55
1, 252671, Control_c, 0, 64, 81
1, 252686, Control_c, 0, 64, 83
1, 252701, Control_c, 0, 64, 84
1, 252716, Control_c, 0, 64, 86
1, 252731, Control_c, 0, 64, 86
1, 252746, Control_c, 0, 64, 87
1, 252761, Control_c, 0, 64, 88
1, 252776, Control_c, 0, 64, 88
1, 252791, Control_c, 0, 64, 89
1, 252821, Control_c, 0, 64, 89
1, 252999, Control_c, 0, 64, 88
1, 253013, Control_c, 0, 64, 85
1, 253028, Control_c, 0, 64, 81
1, 253030, Note_on_c, 0, 60, 34
1, 253033, Note_on_c, 0, 72, 41
1, 253043, Control_c, 0, 64, 76
1, 253058, Control_c, 0, 64, 71
1, 253073, Control_c, 0, 64, 67
1, 253087, Control_c, 0, 64, 65
1, 253102, Control_c, 0, 64, 64
1, 253117, Control_c, 0, 64, 63
1, 253132, Control_c, 0, 64, 63
1, 253146, Control_c, 0, 64, 62
1, 253161, Control_c, 0, 64, 61
1, 253176, Control_c, 0, 64, 61
1, 253206, Control_c, 0, 64, 62
1, 253220, Control_c, 0, 64, 62
1, 253235, Control_c, 0, 64, 64
1, 253250, Control_c, 0, 64, 65
1, 253265, Control_c, 0, 64, 68
1, 253280, Control_c, 0, 64, 71
1, 253302, Control_c, 0, 64, 75
1, 253317, Control_c, 0, 64, 77
1, 253332, Control_c, 0, 64, 79
1, 253346, Control_c, 0, 64, 80
1, 253361, Control_c, 0, 64, 81
1, 253376, Control_c, 0, 64, 82
1, 253391, Control_c, 0, 64, 84
1, 253406, Control_c, 0, 64, 84
1, 253420, Control_c, 0, 64, 85
1, 253450, Control_c, 0, 64, 86
1, 253480, Control_c, 0, 64, 86
1, 253658, Control_c, 0, 64, 85
1, 253673, Control_c, 0, 64, 82
1, 253688, Control_c, 0, 64, 78
1, 253692, Note_on_c, 0, 77, 55
1, 253703, Control_c, 0, 64, 73
1, 253706, Note_on_c, 0, 69, 41
1, 253718, Control_c, 0, 64, 69
1, 253733, Control_c, 0, 64, 64
1, 253748, Control_c, 0, 64, 61
1, 253762, Control_c, 0, 64, 59
1, 253777, Note_off_c, 0, 72, 62
1, 253777, Control_c, 0, 64, 58
1, 253792, Control_c, 0, 64, 56
1, 253796, Note_off_c, 0, 60, 38
1, 253807, Control_c, 0, 64, 54
1, 253822, Control_c, 0, 64, 53
1, 253851, Control_c, 0, 64, 54
1, 253866, Control_c, 0, 64, 55
1, 253880, Control_c, 0, 64, 57
1, 253895, Control_c, 0, 64, 60
1, 253910, Control_c, 0, 64, 63
1, 253925, Control_c, 0, 64, 66
1, 253940, Control_c, 0, 64, 68
1, 253955, Control_c, 0, 64, 71
1, 253969, Control_c, 0, 64, 74
1, 253984, Control_c, 0, 64, 77
1, 253999, Control_c, 0, 64, 79
1, 254014, Control_c, 0, 64, 81
1, 254036, Control_c, 0, 64, 83
1, 254051, Note_off_c, 0, 77, 53
1, 254051, Control_c, 0, 64, 84
1, 254066, Control_c, 0, 64, 85
1, 254081, Control_c, 0, 64, 86
1, 254095, Control_c, 0, 64, 87
1, 254110, Control_c, 0, 64, 88
1, 254140, Control_c, 0, 64, 88
1, 254155, Control_c, 0, 64, 89
1, 254199, Control_c, 0, 64, 89
1, 254240, Note_on_c, 0, 77, 46
1, 254258, Control_c, 0, 64, 90
1, 254302, Control_c, 0, 64, 90
1, 254747, Note_on_c, 0, 72, 41
1, 254833, Note_off_c, 0, 77, 48
1, 254958, Note_off_c, 0, 69, 40
1, 255214, Control_c, 0, 64, 90
1, 255244, Control_c, 0, 64, 89
1, 255274, Control_c, 0, 64, 89
1, 255289, Control_c, 0, 64, 88
1, 255304, Control_c, 0, 64, 87
1, 255315, Note_on_c, 0, 77, 40
1, 255319, Control_c, 0, 64, 87
1, 255333, Control_c, 0, 64, 86
1, 255348, Control_c, 0, 64, 85
1, 255363, Control_c, 0, 64, 85
1, 255378, Control_c, 0, 64, 84
1, 255393, Control_c, 0, 64, 83
1, 255407, Control_c, 0, 64, 82
1, 255422, Control_c, 0, 64, 80
1, 255437, Control_c, 0, 64, 79
1, 255452, Control_c, 0, 64, 78
1, 255467, Control_c, 0, 64, 77
1, 255481, Control_c, 0, 64, 76
1, 255496, Control_c, 0, 64, 74
1, 255511, Control_c, 0, 64, 73
1, 255526, Control_c, 0, 64, 71
1, 255548, Control_c, 0, 64, 70
1, 255563, Control_c, 0, 64, 69
1, 255578, Control_c, 0, 64, 68
1, 255593, Control_c, 0, 64, 67
1, 255608, Control_c, 0, 64, 66
1, 255622, Control_c, 0, 64, 65
1, 255637, Control_c, 0, 64, 65
1, 255652, Control_c, 0, 64, 64
1, 255667, Control_c, 0, 64, 64
1, 255681, Control_c, 0, 64, 63
1, 255696, Control_c, 0, 64, 62
1, 255711, Control_c, 0, 64, 61
1, 255726, Control_c, 0, 64, 60
1, 255740, Control_c, 0, 64, 58
1, 255755, Control_c, 0, 64, 57
1, 255770, Control_c, 0, 64, 55
1, 255785, Control_c, 0, 64, 53
1, 255800, Control_c, 0, 64, 50
1, 255814, Control_c, 0, 64, 47
1, 255829, Control_c, 0, 64, 43
1, 255844, Control_c, 0, 64, 36
1, 255858, Control_c, 0, 64, 24
1, 255871, Note_on_c, 0, 74, 27
1, 255873, Control_c, 0, 64, 0
1, 255898, Note_off_c, 0, 72, 44
1, 256369, Note_on_c, 0, 75, 35
1, 256380, Note_off_c, 0, 77, 53
1, 256389, Note_on_c, 0, 72, 21
1, 256480, Note_off_c, 0, 74, 60
1, 256615, Note_on_c, 0, 77, 52
1, 256758, Control_c, 0, 64, 16
1, 256773, Control_c, 0, 64, 24
1, 256787, Control_c, 0, 64, 33
1, 256802, Control_c, 0, 64, 42
1, 256817, Control_c, 0, 64, 46
1, 256832, Control_c, 0, 64, 49
1, 256847, Control_c, 0, 64, 51
1, 256861, Control_c, 0, 64, 53
1, 256876, Control_c, 0, 64, 54
1, 256891, Control_c, 0, 64, 54
1, 256925, Note_on_c, 0, 70, 41
1, 256935, Note_on_c, 0, 79, 50
1, 256935, Control_c, 0, 64, 55
1, 256950, Control_c, 0, 64, 56
1, 256967, Note_off_c, 0, 77, 55
1, 256980, Note_off_c, 0, 75, 42
1, 256982, Note_off_c, 0, 72, 47
1, 256988, Note_off_c, 0, 70, 0
1, 256988, Note_on_c, 0, 70, 14
1, 256994, Control_c, 0, 64, 56
1, 257009, Control_c, 0, 64, 57
1, 257024, Control_c, 0, 64, 58
1, 257047, Control_c, 0, 64, 59
1, 257061, Control_c, 0, 64, 59
1, 257076, Control_c, 0, 64, 60
1, 257091, Control_c, 0, 64, 62
1, 257106, Control_c, 0, 64, 63
1, 257120, Control_c, 0, 64, 65
1, 257135, Control_c, 0, 64, 67
1, 257150, Control_c, 0, 64, 68
1, 257165, Control_c, 0, 64, 70
1, 257180, Control_c, 0, 64, 73
1, 257194, Control_c, 0, 64, 75
1, 257209, Control_c, 0, 64, 76
1, 257224, Control_c, 0, 64, 78
1, 257239, Control_c, 0, 64, 79
1, 257250, Note_off_c, 0, 79, 53
1, 257254, Control_c, 0, 64, 80
1, 257267, Control_c, 0, 64, 81
1, 257282, Control_c, 0, 64, 82
1, 257297, Control_c, 0, 64, 83
1, 257311, Control_c, 0, 64, 84
1, 257341, Control_c, 0, 64, 84
1, 257385, Control_c, 0, 64, 85
1, 257430, Control_c, 0, 64, 85
1, 257449, Note_on_c, 0, 79, 49
1, 257549, Control_c, 0, 64, 86
1, 257934, Note_on_c, 0, 72, 50
1, 257980, Note_off_c, 0, 79, 36
1, 258106, Note_off_c, 0, 70, 38
1, 258402, Control_c, 0, 64, 85
1, 258417, Control_c, 0, 64, 84
1, 258429, Note_on_c, 0, 77, 56
1, 258431, Control_c, 0, 64, 82
1, 258446, Control_c, 0, 64, 80
1, 258461, Control_c, 0, 64, 78
1, 258476, Control_c, 0, 64, 75
1, 258490, Control_c, 0, 64, 73
1, 258491, Poly_aftertouch_c, 0, 74, 127
1, 258505, Control_c, 0, 64, 70
1, 258528, Control_c, 0, 64, 68
1, 258543, Control_c, 0, 64, 66
1, 258557, Control_c, 0, 64, 65
1, 258572, Control_c, 0, 64, 65
1, 258585, Note_off_c, 0, 72, 54
1, 258587, Control_c, 0, 64, 64
1, 258602, Control_c, 0, 64, 63
1, 258690, Control_c, 0, 64, 63
1, 258720, Control_c, 0, 64, 63
1, 258904, Note_on_c, 0, 72, 43
1, 259002, Control_c, 0, 64, 63
1, 259012, Poly_aftertouch_c, 0, 74, 0
1, 259398, Note_on_c, 0, 70, 44
1, 259440, Control_c, 0, 64, 62
1, 259444, Note_off_c, 0, 72, 60
1, 259588, Control_c, 0, 64, 63
1, 259880, Note_on_c, 0, 75, 54
1, 259899, Note_on_c, 0, 72, 34
1, 259959, Note_off_c, 0, 77, 43
1, 259960, Note_off_c, 0, 70, 61
1, 260277, Control_c, 0, 64, 63
1, 260385, Note_on_c, 0, 70, 38
1, 260445, Note_off_c, 0, 72, 57
1, 260529, Control_c, 0, 64, 64
1, 260574, Control_c, 0, 64, 64
1, 260633, Control_c, 0, 64, 65
1, 260677, Control_c, 0, 64, 65
1, 260723, Control_c, 0, 64, 66
1, 260887, Note_on_c, 0, 77, 44
1, 260902, Note_on_c, 0, 69, 31
1, 260908, Control_c, 0, 64, 65
1, 260926, Note_off_c, 0, 75, 62
1, 260962, Note_off_c, 0, 70, 59
1, 261071, Control_c, 0, 64, 66
1, 261100, Control_c, 0, 64, 66
1, 261115, Control_c, 0, 64, 67
1, 261130, Control_c, 0, 64, 68
1, 261145, Control_c, 0, 64, 68
1, 261159, Control_c, 0, 64, 69
1, 261174, Control_c, 0, 64, 69
1, 261189, Control_c, 0, 64, 70
1, 261204, Control_c, 0, 64, 70
1, 261367, Control_c, 0, 64, 70
1, 261397, Note_on_c, 0, 72, 43
1, 261412, Control_c, 0, 64, 69
1, 261485, Control_c, 0, 64, 70
1, 261501, Control_c, 0, 64, 71
1, 261516, Control_c, 0, 64, 72
1, 261517, Note_off_c, 0, 77, 36
1, 261538, Control_c, 0, 64, 75
1, 261553, Control_c, 0, 64, 77
1, 261568, Control_c, 0, 64, 78
1, 261582, Note_off_c, 0, 69, 58
1, 261582, Control_c, 0, 64, 79
1, 261597, Control_c, 0, 64, 80
1, 261612, Control_c, 0, 64, 81
1, 261627, Control_c, 0, 64, 82
1, 261642, Control_c, 0, 64, 82
1, 261671, Control_c, 0, 64, 83
1, 261701, Control_c, 0, 64, 83
1, 261731, Control_c, 0, 64, 84
1, 261923, Control_c, 0, 64, 83
1, 261938, Control_c, 0, 64, 82
1, 261948, Note_on_c, 0, 74, 44
1, 261953, Control_c, 0, 64, 79
1, 261963, Note_on_c, 0, 67, 35
1, 261968, Control_c, 0, 64, 75
1, 261982, Control_c, 0, 64, 71
1, 261997, Control_c, 0, 64, 67
1, 262002, Note_off_c, 0, 72, 33
1, 262012, Control_c, 0, 64, 63
1, 262026, Note_off_c, 0, 67, 0
1, 262026, Note_on_c, 0, 67, 3
1, 262027, Control_c, 0, 64, 61
1, 262056, Control_c, 0, 64, 62
1, 262071, Control_c, 0, 64, 62
1, 262086, Control_c, 0, 64, 63
1, 262100, Control_c, 0, 64, 64
1, 262115, Control_c, 0, 64, 65
1, 262130, Control_c, 0, 64, 67
1, 262145, Control_c, 0, 64, 70
1, 262160, Control_c, 0, 64, 73
1, 262175, Control_c, 0, 64, 75
1, 262190, Control_c, 0, 64, 76
1, 262205, Control_c, 0, 64, 78
1, 262219, Control_c, 0, 64, 79
1, 262234, Control_c, 0, 64, 81
1, 262249, Control_c, 0, 64, 82
1, 262271, Control_c, 0, 64, 82
1, 262286, Control_c, 0, 64, 83
1, 262302, Control_c, 0, 64, 84
1, 262317, Control_c, 0, 64, 84
1, 262346, Control_c, 0, 64, 85
1, 262420, Control_c, 0, 64, 84
1, 262435, Control_c, 0, 64, 83
1, 262450, Control_c, 0, 64, 80
1, 262465, Note_on_c, 0, 65, 44
1, 262465, Control_c, 0, 64, 77
1, 262476, Note_on_c, 0, 53, 45
1, 262476, Note_off_c, 0, 67, 52
1, 262479, Control_c, 0, 64, 72
1, 262494, Control_c, 0, 64, 67
1, 262510, Control_c, 0, 64, 63
1, 262524, Control_c, 0, 64, 61
1, 262539, Control_c, 0, 64, 60
1, 262584, Control_c, 0, 64, 60
1, 262613, Control_c, 0, 64, 60
1, 262628, Control_c, 0, 64, 62
1, 262643, Control_c, 0, 64, 64
1, 262658, Control_c, 0, 64, 67
1, 262673, Control_c, 0, 64, 71
1, 262688, Control_c, 0, 64, 74
1, 262702, Control_c, 0, 64, 76
1, 262717, Control_c, 0, 64, 78
1, 262732, Control_c, 0, 64, 79
1, 262747, Control_c, 0, 64, 81
1, 262762, Control_c, 0, 64, 82
1, 262777, Control_c, 0, 64, 83
1, 262792, Control_c, 0, 64, 84
1, 262806, Control_c, 0, 64, 85
1, 262836, Control_c, 0, 64, 85
1, 262846, Note_off_c, 0, 65, 36
1, 262880, Control_c, 0, 64, 86
1, 263013, Control_c, 0, 64, 85
1, 263036, Control_c, 0, 64, 84
1, 263050, Control_c, 0, 64, 81
1, 263065, Control_c, 0, 64, 76
1, 263067, Note_on_c, 0, 76, 56
1, 263080, Control_c, 0, 64, 72
1, 263083, Note_on_c, 0, 60, 44
1, 263083, Note_on_c, 0, 67, 42
1, 263096, Control_c, 0, 64, 67
1, 263111, Control_c, 0, 64, 62
1, 263126, Control_c, 0, 64, 59
1, 263129, Note_off_c, 0, 74, 58
1, 263135, Note_off_c, 0, 67, 0
1, 263135, Note_on_c, 0, 67, 14
1, 263141, Note_off_c, 0, 53, 38
1, 263141, Control_c, 0, 64, 58
1, 263155, Control_c, 0, 64, 57
1, 263170, Control_c, 0, 64, 54
1, 263185, Control_c, 0, 64, 51
1, 263200, Control_c, 0, 64, 48
1, 263215, Control_c, 0, 64, 47
1, 263229, Control_c, 0, 64, 48
1, 263244, Control_c, 0, 64, 49
1, 263259, Control_c, 0, 64, 51
1, 263273, Control_c, 0, 64, 53
1, 263288, Control_c, 0, 64, 58
1, 263303, Control_c, 0, 64, 63
1, 263318, Control_c, 0, 64, 67
1, 263333, Control_c, 0, 64, 70
1, 263347, Control_c, 0, 64, 74
1, 263362, Control_c, 0, 64, 77
1, 263377, Control_c, 0, 64, 79
1, 263392, Control_c, 0, 64, 82
1, 263407, Control_c, 0, 64, 83
1, 263421, Control_c, 0, 64, 84
1, 263436, Control_c, 0, 64, 85
1, 263451, Control_c, 0, 64, 86
1, 263457, Note_off_c, 0, 60, 59
1, 263466, Control_c, 0, 64, 86
1, 263480, Control_c, 0, 64, 87
1, 263495, Control_c, 0, 64, 87
1, 263525, Note_off_c, 0, 67, 41
1, 263555, Control_c, 0, 64, 88
1, 263609, Note_on_c, 0, 60, 48
1, 264067, Control_c, 0, 64, 87
1, 264082, Control_c, 0, 64, 86
1, 264089, Note_on_c, 0, 79, 57
1, 264096, Control_c, 0, 64, 83
1, 264101, Note_on_c, 0, 64, 48
1, 264103, Note_off_c, 0, 60, 28
1, 264111, Control_c, 0, 64, 81
1, 264117, Note_on_c, 0, 55, 40
1, 264123, Note_off_c, 0, 76, 64
1, 264126, Control_c, 0, 64, 78
1, 264141, Control_c, 0, 64, 75
1, 264156, Control_c, 0, 64, 72
1, 264170, Control_c, 0, 64, 70
1, 264185, Control_c, 0, 64, 69
1, 264200, Control_c, 0, 64, 68
1, 264215, Control_c, 0, 64, 68
1, 264259, Control_c, 0, 64, 68
1, 264274, Control_c, 0, 64, 69
1, 264289, Control_c, 0, 64, 71
1, 264303, Control_c, 0, 64, 73
1, 264318, Control_c, 0, 64, 74
1, 264333, Control_c, 0, 64, 76
1, 264348, Control_c, 0, 64, 77
1, 264363, Control_c, 0, 64, 78
1, 264378, Control_c, 0, 64, 78
1, 264393, Control_c, 0, 64, 79
1, 264408, Control_c, 0, 64, 80
1, 264422, Control_c, 0, 64, 80
1, 264437, Control_c, 0, 64, 81
1, 264496, Control_c, 0, 64, 81
1, 264592, Control_c, 0, 64, 81
1, 264607, Control_c, 0, 64, 80
1, 264617, Note_on_c, 0, 60, 46
1, 264622, Control_c, 0, 64, 79
1, 264637, Control_c, 0, 64, 78
1, 264637, Note_on_c, 0, 76, 44
1, 264652, Control_c, 0, 64, 76
1, 264667, Control_c, 0, 64, 74
1, 264682, Control_c, 0, 64, 71
1, 264697, Control_c, 0, 64, 70
1, 264712, Control_c, 0, 64, 68
1, 264726, Control_c, 0, 64, 68
1, 264741, Control_c, 0, 64, 67
1, 264761, Note_off_c, 0, 64, 50
1, 264844, Note_off_c, 0, 55, 34
1, 264845, Control_c, 0, 64, 68
1, 264874, Control_c, 0, 64, 69
1, 264889, Control_c, 0, 64, 70
1, 264904, Control_c, 0, 64, 71
1, 264918, Control_c, 0, 64, 72
1, 264933, Control_c, 0, 64, 74
1, 264948, Control_c, 0, 64, 75
1, 264963, Control_c, 0, 64, 75
1, 264978, Control_c, 0, 64, 76
1, 264992, Control_c, 0, 64, 77
1, 265007, Control_c, 0, 64, 77
1, 265022, Control_c, 0, 64, 78
1, 265051, Control_c, 0, 64, 78
1, 265096, Control_c, 0, 64, 79
1, 265133, Note_on_c, 0, 81, 62
1, 265171, Note_off_c, 0, 79, 57
1, 265618, Note_on_c, 0, 79, 61
1, 265620, Note_on_c, 0, 58, 46
1, 265623, Control_c, 0, 64, 78
1, 265638, Control_c, 0, 64, 76
1, 265646, Note_off_c, 0, 60, 48
1, 265653, Control_c, 0, 64, 74
1, 265667, Control_c, 0, 64, 72
1, 265682, Control_c, 0, 64, 71
1, 265697, Control_c, 0, 64, 70
1, 265727, Control_c, 0, 64, 71
1, 265741, Control_c, 0, 64, 73
1, 265756, Control_c, 0, 64, 74
1, 265771, Control_c, 0, 64, 75
1, 265786, Control_c, 0, 64, 76
1, 265801, Control_c, 0, 64, 77
1, 265815, Control_c, 0, 64, 78
1, 265828, Note_off_c, 0, 81, 29
1, 265830, Control_c, 0, 64, 78
1, 265845, Control_c, 0, 64, 79
1, 265860, Control_c, 0, 64, 79
1, 265872, Note_on_c, 0, 60, 57
1, 265889, Control_c, 0, 64, 80
1, 265925, Note_off_c, 0, 58, 52
1, 265925, Note_off_c, 0, 76, 63
1, 266015, Control_c, 0, 64, 80
1, 266074, Control_c, 0, 64, 81
1, 266163, Control_c, 0, 64, 80
1, 266178, Control_c, 0, 64, 78
1, 266188, Note_on_c, 0, 77, 61
1, 266193, Control_c, 0, 64, 75
1, 266199, Note_off_c, 0, 60, 52
1, 266205, Note_on_c, 0, 62, 48
1, 266205, Note_on_c, 0, 70, 52
1, 266208, Control_c, 0, 64, 72
1, 266217, Note_off_c, 0, 79, 60
1, 266223, Control_c, 0, 64, 67
1, 266238, Control_c, 0, 64, 63
1, 266253, Control_c, 0, 64, 58
1, 266268, Control_c, 0, 64, 55
1, 266283, Control_c, 0, 64, 54
1, 266298, Control_c, 0, 64, 51
1, 266313, Control_c, 0, 64, 46
1, 266328, Control_c, 0, 64, 37
1, 266343, Control_c, 0, 64, 25
1, 266358, Control_c, 0, 64, 23
1, 266372, Control_c, 0, 64, 24
1, 266387, Control_c, 0, 64, 33
1, 266402, Control_c, 0, 64, 43
1, 266417, Control_c, 0, 64, 55
1, 266432, Control_c, 0, 64, 63
1, 266446, Control_c, 0, 64, 67
1, 266461, Control_c, 0, 64, 70
1, 266476, Control_c, 0, 64, 73
1, 266491, Control_c, 0, 64, 74
1, 266506, Control_c, 0, 64, 76
1, 266521, Control_c, 0, 64, 78
1, 266536, Control_c, 0, 64, 79
1, 266551, Control_c, 0, 64, 80
1, 266561, Note_off_c, 0, 62, 56
1, 266565, Control_c, 0, 64, 81
1, 266580, Control_c, 0, 64, 81
1, 266595, Control_c, 0, 64, 82
1, 266610, Control_c, 0, 64, 83
1, 266625, Control_c, 0, 64, 84
1, 266639, Control_c, 0, 64, 84
1, 266709, Note_on_c, 0, 62, 49
1, 266728, Control_c, 0, 64, 84
1, 266743, Control_c, 0, 64, 83
1, 266758, Control_c, 0, 64, 82
1, 266780, Control_c, 0, 64, 81
1, 266795, Control_c, 0, 64, 80
1, 266810, Control_c, 0, 64, 79
1, 266840, Control_c, 0, 64, 78
1, 266943, Control_c, 0, 64, 79
1, 266987, Control_c, 0, 64, 79
1, 267046, Control_c, 0, 64, 80
1, 267181, Control_c, 0, 64, 79
1, 267195, Control_c, 0, 64, 78
1, 267204, Note_on_c, 0, 79, 62
1, 267210, Control_c, 0, 64, 76
1, 267218, Note_on_c, 0, 55, 44
1, 267225, Control_c, 0, 64, 73
1, 267240, Control_c, 0, 64, 69
1, 267242, Note_off_c, 0, 77, 58
1, 267255, Control_c, 0, 64, 65
1, 267269, Control_c, 0, 64, 63
1, 267284, Control_c, 0, 64, 63
1, 267299, Control_c, 0, 64, 63
1, 267329, Control_c, 0, 64, 64
1, 267344, Control_c, 0, 64, 64
1, 267359, Control_c, 0, 64, 66
1, 267374, Control_c, 0, 64, 69
1, 267388, Control_c, 0, 64, 71
1, 267403, Control_c, 0, 64, 74
1, 267418, Control_c, 0, 64, 75
1, 267433, Control_c, 0, 64, 76
1, 267447, Control_c, 0, 64, 78
1, 267462, Control_c, 0, 64, 79
1, 267477, Control_c, 0, 64, 80
1, 267492, Control_c, 0, 64, 81
1, 267495, Note_off_c, 0, 70, 54
1, 267505, Note_off_c, 0, 62, 58
1, 267507, Control_c, 0, 64, 81
1, 267543, Control_c, 0, 64, 82
1, 267573, Control_c, 0, 64, 82
1, 267662, Control_c, 0, 64, 82
1, 267677, Control_c, 0, 64, 81
1, 267692, Control_c, 0, 64, 78
1, 267705, Note_on_c, 0, 81, 61
1, 267707, Control_c, 0, 64, 74
1, 267721, Control_c, 0, 64, 69
1, 267722, Note_on_c, 0, 76, 47
1, 267725, Note_on_c, 0, 60, 42
1, 267736, Control_c, 0, 64, 65
1, 267749, Note_off_c, 0, 79, 58
1, 267751, Control_c, 0, 64, 62
1, 267766, Control_c, 0, 64, 61
1, 267781, Control_c, 0, 64, 60
1, 267795, Control_c, 0, 64, 59
1, 267810, Control_c, 0, 64, 57
1, 267825, Control_c, 0, 64, 55
1, 267839, Control_c, 0, 64, 54
1, 267854, Control_c, 0, 64, 53
1, 267869, Control_c, 0, 64, 52
1, 267872, Note_off_c, 0, 55, 38
1, 267930, Control_c, 0, 64, 54
1, 267944, Control_c, 0, 64, 56
1, 267959, Control_c, 0, 64, 60
1, 267974, Control_c, 0, 64, 62
1, 267989, Control_c, 0, 64, 65
1, 268004, Control_c, 0, 64, 67
1, 268018, Control_c, 0, 64, 69
1, 268033, Control_c, 0, 64, 71
1, 268048, Control_c, 0, 64, 73
1, 268062, Control_c, 0, 64, 74
1, 268077, Control_c, 0, 64, 75
1, 268092, Control_c, 0, 64, 77
1, 268107, Control_c, 0, 64, 78
1, 268122, Control_c, 0, 64, 79
1, 268137, Control_c, 0, 64, 80
1, 268152, Control_c, 0, 64, 80
1, 268166, Control_c, 0, 64, 81
1, 268196, Control_c, 0, 64, 81
1, 268211, Control_c, 0, 64, 82
1, 268220, Note_on_c, 0, 79, 63
1, 268226, Control_c, 0, 64, 82
1, 268256, Control_c, 0, 64, 83
1, 268292, Control_c, 0, 64, 83
1, 268301, Note_off_c, 0, 81, 49
1, 268456, Control_c, 0, 64, 84
1, 268709, Note_on_c, 0, 77, 56
1, 268722, Note_on_c, 0, 69, 37
1, 268769, Note_off_c, 0, 76, 39
1, 268821, Note_off_c, 0, 79, 35
1, 269066, Note_off_c, 0, 69, 37
1, 269144, Control_c, 0, 64, 83
1, 269159, Control_c, 0, 64, 81
1, 269174, Control_c, 0, 64, 78
1, 269189, Control_c, 0, 64, 75
1, 269192, Note_on_c, 0, 58, 44
1, 269192, Note_on_c, 0, 76, 51
1, 269193, Note_on_c, 0, 79, 52
1, 269204, Note_off_c, 0, 77, 59
1, 269204, Control_c, 0, 64, 70
1, 269219, Control_c, 0, 64, 67
1, 269228, Note_off_c, 0, 60, 39
1, 269234, Control_c, 0, 64, 63
1, 269248, Control_c, 0, 64, 62
1, 269263, Control_c, 0, 64, 61
1, 269278, Control_c, 0, 64, 60
1, 269292, Control_c, 0, 64, 59
1, 269337, Control_c, 0, 64, 60
1, 269352, Control_c, 0, 64, 61
1, 269366, Control_c, 0, 64, 63
1, 269381, Control_c, 0, 64, 64
1, 269396, Control_c, 0, 64, 66
1, 269410, Control_c, 0, 64, 67
1, 269425, Control_c, 0, 64, 69
1, 269440, Control_c, 0, 64, 70
1, 269455, Control_c, 0, 64, 71
1, 269470, Control_c, 0, 64, 73
1, 269486, Control_c, 0, 64, 74
1, 269501, Control_c, 0, 64, 75
1, 269515, Control_c, 0, 64, 76
1, 269530, Control_c, 0, 64, 76
1, 269545, Control_c, 0, 64, 77
1, 269698, Note_on_c, 0, 77, 53
1, 269727, Note_off_c, 0, 76, 39
1, 269789, Control_c, 0, 64, 77
1, 269804, Control_c, 0, 64, 78
1, 269819, Control_c, 0, 64, 78
1, 269834, Control_c, 0, 64, 79
1, 269863, Control_c, 0, 64, 79
1, 269908, Control_c, 0, 64, 80
1, 269922, Control_c, 0, 64, 80
1, 269946, Note_on_c, 0, 74, 44
1, 269952, Control_c, 0, 64, 81
1, 269982, Control_c, 0, 64, 81
1, 270012, Control_c, 0, 64, 82
1, 270041, Control_c, 0, 64, 82
1, 270066, Note_off_c, 0, 79, 27
1, 270101, Control_c, 0, 64, 83
1, 270175, Control_c, 0, 64, 82
1, 270189, Control_c, 0, 64, 80
1, 270193, Note_off_c, 0, 77, 36
1, 270204, Control_c, 0, 64, 76
1, 270214, Note_on_c, 0, 76, 50
1, 270219, Control_c, 0, 64, 71
1, 270221, Note_on_c, 0, 60, 39
1, 270223, Note_on_c, 0, 72, 47
1, 270229, Note_off_c, 0, 58, 39
1, 270233, Control_c, 0, 64, 65
1, 270248, Control_c, 0, 64, 60
1, 270256, Note_off_c, 0, 74, 64
1, 270263, Control_c, 0, 64, 55
1, 270278, Control_c, 0, 64, 52
1, 270294, Control_c, 0, 64, 47
1, 270309, Control_c, 0, 64, 42
1, 270324, Control_c, 0, 64, 36
1, 270338, Control_c, 0, 64, 35
1, 270353, Control_c, 0, 64, 43
1, 270368, Control_c, 0, 64, 55
1, 270383, Control_c, 0, 64, 63
1, 270398, Control_c, 0, 64, 67
1, 270412, Control_c, 0, 64, 70
1, 270427, Control_c, 0, 64, 74
1, 270437, Note_off_c, 0, 76, 67
1, 270442, Control_c, 0, 64, 76
1, 270456, Control_c, 0, 64, 79
1, 270471, Control_c, 0, 64, 81
1, 270486, Control_c, 0, 64, 82
1, 270501, Control_c, 0, 64, 83
1, 270524, Control_c, 0, 64, 84
1, 270538, Control_c, 0, 64, 86
1, 270553, Control_c, 0, 64, 86
1, 270568, Control_c, 0, 64, 87
1, 270583, Control_c, 0, 64, 87
1, 270790, Control_c, 0, 64, 87
1, 270805, Control_c, 0, 64, 86
1, 270819, Control_c, 0, 64, 85
1, 270833, Note_on_c, 0, 70, 52
1, 270834, Control_c, 0, 64, 83
1, 270838, Note_on_c, 0, 75, 51
1, 270849, Control_c, 0, 64, 81
1, 270855, Note_on_c, 0, 55, 40
1, 270863, Control_c, 0, 64, 79
1, 270878, Control_c, 0, 64, 77
1, 270885, Note_off_c, 0, 70, 0
1, 270885, Note_on_c, 0, 70, 19
1, 270893, Control_c, 0, 64, 75
1, 270908, Control_c, 0, 64, 73
1, 270915, Note_off_c, 0, 72, 37
1, 270923, Control_c, 0, 64, 70
1, 270937, Control_c, 0, 64, 68
1, 270952, Control_c, 0, 64, 67
1, 270967, Control_c, 0, 64, 66
1, 270981, Control_c, 0, 64, 65
1, 270996, Control_c, 0, 64, 64
1, 271011, Control_c, 0, 64, 63
1, 271026, Control_c, 0, 64, 62
1, 271028, Note_off_c, 0, 60, 37
1, 271041, Control_c, 0, 64, 61
1, 271055, Control_c, 0, 64, 60
1, 271086, Control_c, 0, 64, 59
1, 271101, Control_c, 0, 64, 58
1, 271116, Control_c, 0, 64, 57
1, 271131, Control_c, 0, 64, 56
1, 271146, Control_c, 0, 64, 55
1, 271160, Control_c, 0, 64, 54
1, 271175, Control_c, 0, 64, 53
1, 271190, Control_c, 0, 64, 51
1, 271205, Control_c, 0, 64, 50
1, 271272, Control_c, 0, 64, 50
1, 271286, Control_c, 0, 64, 49
1, 271331, Control_c, 0, 64, 49
1, 271360, Control_c, 0, 64, 48
1, 271389, Note_on_c, 0, 69, 48
1, 271405, Control_c, 0, 64, 48
1, 271434, Control_c, 0, 64, 47
1, 271446, Note_off_c, 0, 70, 50
1, 271672, Control_c, 0, 64, 48
1, 271701, Control_c, 0, 64, 48
1, 271746, Control_c, 0, 64, 49
1, 271804, Control_c, 0, 64, 49
1, 271899, Note_on_c, 0, 67, 43
1, 271902, Note_on_c, 0, 57, 33
1, 271937, Note_off_c, 0, 69, 66
1, 272021, Note_off_c, 0, 55, 41
1, 272051, Control_c, 0, 64, 50
1, 272389, Note_on_c, 0, 74, 53
1, 272390, Note_on_c, 0, 58, 43
1, 272421, Control_c, 0, 64, 49
1, 272462, Note_off_c, 0, 75, 57
1, 272478, Note_off_c, 0, 57, 56
1, 272495, Control_c, 0, 64, 48
1, 272554, Control_c, 0, 64, 48
1, 272569, Control_c, 0, 64, 47
1, 272614, Control_c, 0, 64, 47
1, 272643, Control_c, 0, 64, 46
1, 272814, Control_c, 0, 64, 45
1, 272829, Control_c, 0, 64, 45
1, 272844, Control_c, 0, 64, 44
1, 272858, Control_c, 0, 64, 44
1, 272891, Note_on_c, 0, 70, 55
1, 273007, Control_c, 0, 64, 44
1, 273037, Control_c, 0, 64, 45
1, 273066, Control_c, 0, 64, 46
1, 273140, Control_c, 0, 64, 46
1, 273214, Control_c, 0, 64, 47
1, 273229, Control_c, 0, 64, 47
1, 273347, Note_off_c, 0, 74, 51
1, 273389, Note_on_c, 0, 72, 59
1, 273437, Control_c, 0, 64, 47
1, 273578, Control_c, 0, 64, 47
1, 273637, Control_c, 0, 64, 48
1, 273652, Control_c, 0, 64, 48
1, 273681, Control_c, 0, 64, 49
1, 273696, Control_c, 0, 64, 49
1, 273726, Control_c, 0, 64, 50
1, 273734, Note_off_c, 0, 70, 63
1, 273741, Control_c, 0, 64, 50
1, 273756, Control_c, 0, 64, 51
1, 273771, Control_c, 0, 64, 52
1, 273815, Control_c, 0, 64, 52
1, 273830, Control_c, 0, 64, 53
1, 273845, Control_c, 0, 64, 54
1, 273919, Control_c, 0, 64, 54
1, 273970, Note_on_c, 0, 73, 50
1, 274016, Note_off_c, 0, 72, 63
1, 274037, Control_c, 0, 64, 54
1, 274081, Control_c, 0, 64, 53
1, 274111, Control_c, 0, 64, 54
1, 274126, Control_c, 0, 64, 54
1, 274155, Control_c, 0, 64, 56
1, 274170, Control_c, 0, 64, 58
1, 274185, Control_c, 0, 64, 59
1, 274200, Control_c, 0, 64, 61
1, 274215, Control_c, 0, 64, 62
1, 274230, Control_c, 0, 64, 63
1, 274245, Control_c, 0, 64, 63
1, 274267, Control_c, 0, 64, 64
1, 274298, Control_c, 0, 64, 64
1, 274312, Control_c, 0, 64, 65
1, 274431, Control_c, 0, 64, 64
1, 274460, Control_c, 0, 64, 64
1, 274475, Control_c, 0, 64, 63
1, 274482, Note_on_c, 0, 66, 46
1, 274490, Control_c, 0, 64, 62
1, 274498, Note_off_c, 0, 67, 49
1, 274504, Control_c, 0, 64, 59
1, 274519, Control_c, 0, 64, 56
1, 274534, Control_c, 0, 64, 54
1, 274564, Control_c, 0, 64, 55
1, 274578, Control_c, 0, 64, 56
1, 274593, Control_c, 0, 64, 58
1, 274608, Control_c, 0, 64, 60
1, 274623, Control_c, 0, 64, 64
1, 274638, Control_c, 0, 64, 67
1, 274653, Control_c, 0, 64, 71
1, 274668, Control_c, 0, 64, 74
1, 274683, Control_c, 0, 64, 76
1, 274698, Control_c, 0, 64, 78
1, 274712, Control_c, 0, 64, 79
1, 274727, Control_c, 0, 64, 81
1, 274742, Control_c, 0, 64, 82
1, 274757, Control_c, 0, 64, 83
1, 274786, Control_c, 0, 64, 83
1, 274801, Control_c, 0, 64, 84
1, 274919, Control_c, 0, 64, 83
1, 274934, Control_c, 0, 64, 81
1, 274940, Note_on_c, 0, 56, 44
1, 274945, Note_on_c, 0, 65, 49
1, 274949, Control_c, 0, 64, 76
1, 274962, Note_off_c, 0, 66, 65
1, 274964, Control_c, 0, 64, 71
1, 274978, Control_c, 0, 64, 65
1, 274993, Control_c, 0, 64, 59
1, 275016, Control_c, 0, 64, 56
1, 275021, Note_off_c, 0, 58, 57
1, 275030, Control_c, 0, 64, 55
1, 275045, Control_c, 0, 64, 53
1, 275060, Control_c, 0, 64, 49
1, 275075, Control_c, 0, 64, 43
1, 275091, Control_c, 0, 64, 41
1, 275106, Control_c, 0, 64, 42
1, 275121, Control_c, 0, 64, 46
1, 275135, Control_c, 0, 64, 52
1, 275150, Control_c, 0, 64, 58
1, 275157, Note_off_c, 0, 73, 32
1, 275165, Control_c, 0, 64, 64
1, 275180, Control_c, 0, 64, 68
1, 275195, Control_c, 0, 64, 71
1, 275209, Control_c, 0, 64, 75
1, 275224, Control_c, 0, 64, 77
1, 275238, Control_c, 0, 64, 79
1, 275252, Control_c, 0, 64, 80
1, 275267, Control_c, 0, 64, 81
1, 275282, Control_c, 0, 64, 82
1, 275297, Control_c, 0, 64, 82
1, 275312, Control_c, 0, 64, 83
1, 275416, Control_c, 0, 64, 82
1, 275423, Note_on_c, 0, 72, 59
1, 275431, Control_c, 0, 64, 80
1, 275435, Note_on_c, 0, 63, 54
1, 275443, Note_on_c, 0, 60, 45
1, 275446, Control_c, 0, 64, 76
1, 275460, Control_c, 0, 64, 71
1, 275475, Control_c, 0, 64, 67
1, 275490, Control_c, 0, 64, 63
1, 275492, Note_off_c, 0, 65, 63
1, 275505, Control_c, 0, 64, 61
1, 275520, Control_c, 0, 64, 60
1, 275534, Control_c, 0, 64, 60
1, 275549, Control_c, 0, 64, 58
1, 275564, Control_c, 0, 64, 56
1, 275579, Control_c, 0, 64, 54
1, 275594, Control_c, 0, 64, 52
1, 275608, Control_c, 0, 64, 51
1, 275623, Control_c, 0, 64, 51
1, 275638, Control_c, 0, 64, 50
1, 275652, Control_c, 0, 64, 49
1, 275667, Control_c, 0, 64, 48
1, 275717, Note_off_c, 0, 56, 19
1, 275852, Control_c, 0, 64, 49
1, 275898, Control_c, 0, 64, 49
1, 275920, Note_on_c, 0, 70, 54
1, 275928, Control_c, 0, 64, 50
1, 275954, Note_off_c, 0, 72, 65
1, 276047, Control_c, 0, 64, 50
1, 276091, Control_c, 0, 64, 51
1, 276106, Control_c, 0, 64, 53
1, 276121, Control_c, 0, 64, 55
1, 276136, Control_c, 0, 64, 56
1, 276150, Control_c, 0, 64, 57
1, 276165, Control_c, 0, 64, 58
1, 276180, Control_c, 0, 64, 58
1, 276194, Control_c, 0, 64, 59
1, 276209, Control_c, 0, 64, 59
1, 276224, Control_c, 0, 64, 60
1, 276239, Control_c, 0, 64, 60
1, 276313, Control_c, 0, 64, 61
1, 276343, Control_c, 0, 64, 61
1, 276371, Note_on_c, 0, 68, 57
1, 276373, Control_c, 0, 64, 62
1, 276462, Control_c, 0, 64, 62
1, 276491, Control_c, 0, 64, 63
1, 276505, Note_off_c, 0, 70, 55
1, 276513, Control_c, 0, 64, 63
1, 276528, Control_c, 0, 64, 64
1, 276543, Control_c, 0, 64, 65
1, 276558, Control_c, 0, 64, 68
1, 276573, Control_c, 0, 64, 70
1, 276587, Control_c, 0, 64, 73
1, 276602, Control_c, 0, 64, 76
1, 276617, Control_c, 0, 64, 77
1, 276632, Control_c, 0, 64, 78
1, 276647, Control_c, 0, 64, 79
1, 276662, Control_c, 0, 64, 80
1, 276677, Control_c, 0, 64, 80
1, 276707, Control_c, 0, 64, 81
1, 276870, Control_c, 0, 64, 80
1, 276885, Control_c, 0, 64, 80
1, 276899, Control_c, 0, 64, 78
1, 276914, Control_c, 0, 64, 76
1, 276927, Note_on_c, 0, 67, 56
1, 276929, Control_c, 0, 64, 74
1, 276933, Note_on_c, 0, 61, 55
1, 276942, Note_on_c, 0, 65, 40
1, 276944, Control_c, 0, 64, 71
1, 276959, Control_c, 0, 64, 67
1, 276962, Note_off_c, 0, 68, 59
1, 276973, Control_c, 0, 64, 65
1, 276988, Control_c, 0, 64, 62
1, 276991, Note_off_c, 0, 60, 54
1, 277003, Control_c, 0, 64, 61
1, 277017, Note_off_c, 0, 63, 62
1, 277018, Control_c, 0, 64, 59
1, 277032, Control_c, 0, 64, 56
1, 277047, Control_c, 0, 64, 54
1, 277062, Control_c, 0, 64, 51
1, 277077, Control_c, 0, 64, 49
1, 277092, Control_c, 0, 64, 48
1, 277106, Control_c, 0, 64, 46
1, 277121, Control_c, 0, 64, 43
1, 277136, Control_c, 0, 64, 39
1, 277151, Control_c, 0, 64, 36
1, 277166, Control_c, 0, 64, 34
1, 277181, Control_c, 0, 64, 33
1, 277196, Control_c, 0, 64, 31
1, 277211, Control_c, 0, 64, 29
1, 277225, Control_c, 0, 64, 27
1, 277240, Control_c, 0, 64, 26
1, 277262, Control_c, 0, 64, 25
1, 277277, Control_c, 0, 64, 24
1, 277380, Control_c, 0, 64, 23
1, 277413, Note_on_c, 0, 60, 46
1, 277440, Control_c, 0, 64, 21
1, 277455, Note_off_c, 0, 61, 53
1, 277470, Control_c, 0, 64, 20
1, 277500, Control_c, 0, 64, 18
1, 277663, Control_c, 0, 64, 20
1, 277678, Control_c, 0, 64, 23
1, 277693, Control_c, 0, 64, 24
1, 277752, Control_c, 0, 64, 25
1, 277767, Control_c, 0, 64, 26
1, 277826, Control_c, 0, 64, 27
1, 277841, Control_c, 0, 64, 28
1, 277855, Control_c, 0, 64, 29
1, 277870, Control_c, 0, 64, 30
1, 277884, Note_on_c, 0, 68, 48
1, 277894, Note_on_c, 0, 58, 38
1, 277896, Note_off_c, 0, 60, 59
1, 277919, Note_off_c, 0, 67, 60
1, 277944, Control_c, 0, 64, 31
1, 278026, Control_c, 0, 64, 32
1, 278055, Control_c, 0, 64, 33
1, 278070, Control_c, 0, 64, 34
1, 278115, Control_c, 0, 64, 34
1, 278376, Note_on_c, 0, 60, 43
1, 278377, Note_on_c, 0, 67, 54
1, 278400, Note_off_c, 0, 68, 63
1, 278491, Note_off_c, 0, 58, 36
1, 278545, Control_c, 0, 64, 34
1, 278560, Control_c, 0, 64, 33
1, 278575, Control_c, 0, 64, 32
1, 278605, Control_c, 0, 64, 31
1, 278738, Control_c, 0, 64, 30
1, 278775, Control_c, 0, 64, 29
1, 278819, Control_c, 0, 64, 30
1, 278850, Note_on_c, 0, 63, 49
1, 278892, Note_off_c, 0, 65, 61
1, 278893, Control_c, 0, 64, 31
1, 278952, Control_c, 0, 64, 33
1, 278967, Control_c, 0, 64, 36
1, 278982, Control_c, 0, 64, 40
1, 278996, Control_c, 0, 64, 47
1, 279011, Control_c, 0, 64, 51
1, 279026, Control_c, 0, 64, 54
1, 279041, Control_c, 0, 64, 58
1, 279056, Control_c, 0, 64, 60
1, 279072, Control_c, 0, 64, 62
1, 279087, Control_c, 0, 64, 63
1, 279101, Control_c, 0, 64, 64
1, 279116, Control_c, 0, 64, 65
1, 279131, Control_c, 0, 64, 65
1, 279146, Control_c, 0, 64, 66
1, 279175, Control_c, 0, 64, 66
1, 279205, Control_c, 0, 64, 67
1, 279264, Control_c, 0, 64, 66
1, 279294, Control_c, 0, 64, 65
1, 279309, Control_c, 0, 64, 65
1, 279324, Control_c, 0, 64, 64
1, 279326, Note_on_c, 0, 70, 62
1, 279338, Note_on_c, 0, 55, 34
1, 279339, Control_c, 0, 64, 63
1, 279354, Control_c, 0, 64, 62
1, 279365, Note_off_c, 0, 67, 27
1, 279368, Control_c, 0, 64, 61
1, 279383, Control_c, 0, 64, 59
1, 279387, Note_off_c, 0, 60, 53
1, 279398, Control_c, 0, 64, 58
1, 279487, Control_c, 0, 64, 58
1, 279524, Control_c, 0, 64, 59
1, 279553, Control_c, 0, 64, 60
1, 279642, Control_c, 0, 64, 60
1, 279853, Note_on_c, 0, 60, 40
1, 279880, Control_c, 0, 64, 60
1, 280022, Note_off_c, 0, 55, 40
1, 280191, Control_c, 0, 64, 60
1, 280345, Note_on_c, 0, 68, 55
1, 280392, Note_off_c, 0, 70, 55
1, 280406, Control_c, 0, 64, 60
1, 280495, Control_c, 0, 64, 60
1, 280583, Control_c, 0, 64, 61
1, 280613, Control_c, 0, 64, 61
1, 280628, Control_c, 0, 64, 62
1, 280673, Control_c, 0, 64, 62
1, 280830, Note_on_c, 0, 67, 58
1, 280851, Control_c, 0, 64, 62
1, 280856, Note_on_c, 0, 58, 39
1, 280865, Control_c, 0, 64, 61
1, 280874, Note_off_c, 0, 68, 61
1, 280880, Control_c, 0, 64, 60
1, 280895, Control_c, 0, 64, 59
1, 280910, Control_c, 0, 64, 58
1, 280925, Control_c, 0, 64, 57
1, 280940, Control_c, 0, 64, 56
1, 280955, Control_c, 0, 64, 55
1, 280984, Control_c, 0, 64, 56
1, 281006, Control_c, 0, 64, 57
1, 281021, Control_c, 0, 64, 60
1, 281036, Control_c, 0, 64, 63
1, 281038, Note_off_c, 0, 60, 30
1, 281051, Control_c, 0, 64, 67
1, 281066, Control_c, 0, 64, 70
1, 281080, Control_c, 0, 64, 73
1, 281095, Control_c, 0, 64, 75
1, 281110, Control_c, 0, 64, 77
1, 281125, Control_c, 0, 64, 78
1, 281140, Control_c, 0, 64, 79
1, 281154, Control_c, 0, 64, 80
1, 281169, Control_c, 0, 64, 81
1, 281184, Control_c, 0, 64, 82
1, 281362, Control_c, 0, 64, 81
1, 281377, Control_c, 0, 64, 80
1, 281391, Control_c, 0, 64, 79
1, 281406, Control_c, 0, 64, 77
1, 281417, Note_on_c, 0, 66, 58
1, 281421, Control_c, 0, 64, 75
1, 281436, Control_c, 0, 64, 72
1, 281445, Note_on_c, 0, 57, 38
1, 281451, Control_c, 0, 64, 69
1, 281467, Control_c, 0, 64, 67
1, 281478, Note_off_c, 0, 67, 48
1, 281482, Control_c, 0, 64, 65
1, 281496, Control_c, 0, 64, 64
1, 281511, Control_c, 0, 64, 63
1, 281526, Control_c, 0, 64, 62
1, 281541, Control_c, 0, 64, 61
1, 281556, Control_c, 0, 64, 59
1, 281570, Note_off_c, 0, 58, 55
1, 281570, Control_c, 0, 64, 58
1, 281585, Control_c, 0, 64, 56
1, 281600, Control_c, 0, 64, 55
1, 281614, Control_c, 0, 64, 54
1, 281629, Control_c, 0, 64, 52
1, 281644, Control_c, 0, 64, 50
1, 281659, Control_c, 0, 64, 49
1, 281674, Control_c, 0, 64, 48
1, 281688, Control_c, 0, 64, 47
1, 281703, Control_c, 0, 64, 46
1, 281815, Control_c, 0, 64, 46
1, 281844, Control_c, 0, 64, 47
1, 281859, Control_c, 0, 64, 47
1, 281874, Control_c, 0, 64, 48
1, 281889, Control_c, 0, 64, 48
1, 281963, Control_c, 0, 64, 49
1, 282007, Note_on_c, 0, 62, 38
1, 282021, Note_off_c, 0, 63, 55
1, 282050, Control_c, 0, 64, 50
1, 282153, Control_c, 0, 64, 50
1, 282227, Control_c, 0, 64, 51
1, 282273, Control_c, 0, 64, 51
1, 282317, Control_c, 0, 64, 52
1, 282478, Note_on_c, 0, 60, 41
1, 282511, Note_off_c, 0, 62, 57
1, 282517, Note_on_c, 0, 58, 25
1, 282544, Note_off_c, 0, 57, 48
1, 282636, Control_c, 0, 64, 52
1, 282680, Control_c, 0, 64, 53
1, 282695, Control_c, 0, 64, 53
1, 282710, Control_c, 0, 64, 54
1, 282725, Control_c, 0, 64, 54
1, 282755, Control_c, 0, 64, 55
1, 282770, Control_c, 0, 64, 56
1, 282785, Control_c, 0, 64, 57
1, 282800, Control_c, 0, 64, 58
1, 282859, Control_c, 0, 64, 58
1, 282874, Control_c, 0, 64, 59
1, 282889, Control_c, 0, 64, 60
1, 282904, Control_c, 0, 64, 60
1, 283006, Note_on_c, 0, 65, 54
1, 283007, Note_on_c, 0, 57, 40
1, 283007, Control_c, 0, 64, 60
1, 283022, Control_c, 0, 64, 59
1, 283051, Control_c, 0, 64, 59
1, 283053, Note_off_c, 0, 66, 53
1, 283067, Control_c, 0, 64, 58
1, 283082, Control_c, 0, 64, 58
1, 283112, Control_c, 0, 64, 57
1, 283138, Note_off_c, 0, 58, 51
1, 283201, Control_c, 0, 64, 58
1, 283253, Control_c, 0, 64, 58
1, 283267, Control_c, 0, 64, 59
1, 283282, Control_c, 0, 64, 59
1, 283297, Control_c, 0, 64, 60
1, 283312, Control_c, 0, 64, 61
1, 283327, Control_c, 0, 64, 62
1, 283341, Control_c, 0, 64, 63
1, 283356, Control_c, 0, 64, 63
1, 283371, Control_c, 0, 64, 64
1, 283386, Control_c, 0, 64, 64
1, 283400, Control_c, 0, 64, 65
1, 283445, Control_c, 0, 64, 65
1, 283504, Control_c, 0, 64, 66
1, 283558, Note_on_c, 0, 63, 53
1, 283637, Note_off_c, 0, 65, 64
1, 283667, Control_c, 0, 64, 67
1, 283682, Control_c, 0, 64, 70
1, 283686, Note_off_c, 0, 60, 60
1, 283697, Control_c, 0, 64, 74
1, 283705, Note_off_c, 0, 57, 58
1, 283712, Control_c, 0, 64, 78
1, 283727, Control_c, 0, 64, 80
1, 283741, Control_c, 0, 64, 83
1, 283756, Control_c, 0, 64, 84
1, 283771, Control_c, 0, 64, 86
1, 283785, Control_c, 0, 64, 88
1, 283800, Control_c, 0, 64, 89
1, 283815, Control_c, 0, 64, 89
1, 283830, Control_c, 0, 64, 90
1, 283845, Note_off_c, 0, 63, 66
1, 283845, Control_c, 0, 64, 90
1, 284076, Control_c, 0, 64, 89
1, 284090, Control_c, 0, 64, 87
1, 284105, Control_c, 0, 64, 84
1, 284114, Note_on_c, 0, 62, 63
1, 284120, Control_c, 0, 64, 79
1, 284120, Note_on_c, 0, 53, 58
1, 284121, Note_on_c, 0, 57, 55
1, 284135, Control_c, 0, 64, 72
1, 284150, Control_c, 0, 64, 66
1, 284164, Control_c, 0, 64, 60
1, 284179, Control_c, 0, 64, 57
1, 284194, Control_c, 0, 64, 56
1, 284209, Control_c, 0, 64, 56
1, 284223, Control_c, 0, 64, 55
1, 284238, Control_c, 0, 64, 54
1, 284253, Control_c, 0, 64, 54
1, 284268, Control_c, 0, 64, 56
1, 284283, Control_c, 0, 64, 59
1, 284297, Control_c, 0, 64, 64
1, 284312, Control_c, 0, 64, 67
1, 284327, Control_c, 0, 64, 71
1, 284342, Control_c, 0, 64, 76
1, 284357, Control_c, 0, 64, 80
1, 284371, Control_c, 0, 64, 82
1, 284386, Control_c, 0, 64, 84
1, 284401, Control_c, 0, 64, 85
1, 284415, Control_c, 0, 64, 86
1, 284430, Control_c, 0, 64, 86
1, 284445, Control_c, 0, 64, 87
1, 284460, Control_c, 0, 64, 87
1, 284669, Control_c, 0, 64, 87
1, 284684, Control_c, 0, 64, 85
1, 284699, Control_c, 0, 64, 83
1, 284713, Control_c, 0, 64, 79
1, 284727, Note_on_c, 0, 58, 66
1, 284728, Control_c, 0, 64, 74
1, 284740, Note_on_c, 0, 46, 53
1, 284750, Control_c, 0, 64, 67
1, 284765, Control_c, 0, 64, 63
1, 284780, Control_c, 0, 64, 59
1, 284794, Control_c, 0, 64, 57
1, 284802, Note_off_c, 0, 57, 57
1, 284807, Note_off_c, 0, 53, 64
1, 284809, Control_c, 0, 64, 56
1, 284824, Control_c, 0, 64, 51
1, 284839, Control_c, 0, 64, 41
1, 284854, Control_c, 0, 64, 29
1, 284868, Control_c, 0, 64, 23
1, 284898, Control_c, 0, 64, 26
1, 284913, Control_c, 0, 64, 36
1, 284928, Control_c, 0, 64, 53
1, 284943, Control_c, 0, 64, 63
1, 284958, Control_c, 0, 64, 68
1, 284973, Control_c, 0, 64, 74
1, 284987, Control_c, 0, 64, 80
1, 285002, Control_c, 0, 64, 84
1, 285017, Control_c, 0, 64, 86
1, 285032, Control_c, 0, 64, 88
1, 285046, Control_c, 0, 64, 89
1, 285061, Control_c, 0, 64, 90
1, 285076, Control_c, 0, 64, 90
1, 285099, Note_off_c, 0, 58, 60
1, 285106, Control_c, 0, 64, 91
1, 285120, Control_c, 0, 64, 91
1, 285135, Control_c, 0, 64, 92
1, 285164, Control_c, 0, 64, 93
1, 285294, Note_on_c, 0, 58, 67
1, 285751, Control_c, 0, 64, 92
1, 285766, Control_c, 0, 64, 91
1, 285780, Note_on_c, 0, 65, 69
1, 285781, Control_c, 0, 64, 88
1, 285785, Note_on_c, 0, 50, 51
1, 285790, Note_on_c, 0, 53, 54
1, 285795, Control_c, 0, 64, 82
1, 285810, Control_c, 0, 64, 76
1, 285814, Note_off_c, 0, 62, 62
1, 285825, Control_c, 0, 64, 70
1, 285829, Note_off_c, 0, 58, 59
1, 285840, Control_c, 0, 64, 65
1, 285855, Control_c, 0, 64, 59
1, 285869, Control_c, 0, 64, 56
1, 285884, Control_c, 0, 64, 58
1, 285899, Control_c, 0, 64, 60
1, 285914, Control_c, 0, 64, 62
1, 285929, Control_c, 0, 64, 65
1, 285943, Control_c, 0, 64, 68
1, 285958, Control_c, 0, 64, 71
1, 285973, Control_c, 0, 64, 75
1, 285987, Control_c, 0, 64, 77
1, 286002, Control_c, 0, 64, 78
1, 286017, Control_c, 0, 64, 79
1, 286032, Control_c, 0, 64, 79
1, 286076, Control_c, 0, 64, 80
1, 286165, Control_c, 0, 64, 80
1, 286263, Control_c, 0, 64, 81
1, 286287, Note_on_c, 0, 58, 62
1, 286313, Note_off_c, 0, 53, 59
1, 286381, Control_c, 0, 64, 81
1, 286529, Control_c, 0, 64, 82
1, 286542, Note_off_c, 0, 46, 32
1, 286544, Control_c, 0, 64, 82
1, 286574, Control_c, 0, 64, 83
1, 286603, Control_c, 0, 64, 83
1, 286633, Control_c, 0, 64, 84
1, 286648, Control_c, 0, 64, 84
1, 286663, Control_c, 0, 64, 85
1, 286678, Control_c, 0, 64, 85
1, 286707, Control_c, 0, 64, 86
1, 286794, Note_on_c, 0, 67, 59
1, 286869, Note_off_c, 0, 58, 60
1, 286893, Note_off_c, 0, 65, 58
1, 287025, Control_c, 0, 64, 86
1, 287055, Control_c, 0, 64, 87
1, 287233, Control_c, 0, 64, 85
1, 287248, Control_c, 0, 64, 82
1, 287263, Control_c, 0, 64, 77
1, 287265, Note_on_c, 0, 65, 66
1, 287268, Note_on_c, 0, 56, 57
1, 287278, Control_c, 0, 64, 71
1, 287293, Control_c, 0, 64, 66
1, 287307, Control_c, 0, 64, 62
1, 287322, Control_c, 0, 64, 60
1, 287352, Control_c, 0, 64, 61
1, 287355, Note_off_c, 0, 67, 38
1, 287366, Control_c, 0, 64, 63
1, 287381, Control_c, 0, 64, 65
1, 287396, Control_c, 0, 64, 68
1, 287411, Control_c, 0, 64, 71
1, 287426, Control_c, 0, 64, 75
1, 287441, Control_c, 0, 64, 77
1, 287456, Control_c, 0, 64, 79
1, 287471, Control_c, 0, 64, 81
1, 287486, Control_c, 0, 64, 83
1, 287498, Note_on_c, 0, 58, 68
1, 287501, Control_c, 0, 64, 85
1, 287515, Control_c, 0, 64, 87
1, 287530, Control_c, 0, 64, 89
1, 287543, Note_off_c, 0, 56, 51
1, 287545, Control_c, 0, 64, 90
1, 287559, Control_c, 0, 64, 91
1, 287574, Control_c, 0, 64, 92
1, 287589, Control_c, 0, 64, 92
1, 287604, Control_c, 0, 64, 94
1, 287619, Control_c, 0, 64, 95
1, 287633, Control_c, 0, 64, 95
1, 287648, Control_c, 0, 64, 96
1, 287678, Control_c, 0, 64, 96
1, 287774, Control_c, 0, 64, 95
1, 287789, Control_c, 0, 64, 91
1, 287790, Note_on_c, 0, 63, 71
1, 287791, Note_on_c, 0, 60, 60
1, 287793, Note_on_c, 0, 44, 59
1, 287801, Note_off_c, 0, 58, 54
1, 287804, Control_c, 0, 64, 84
1, 287819, Control_c, 0, 64, 77
1, 287833, Control_c, 0, 64, 69
1, 287848, Control_c, 0, 64, 61
1, 287864, Control_c, 0, 64, 43
1, 287879, Control_c, 0, 64, 24
1, 287894, Control_c, 0, 64, 0
1, 287908, Note_off_c, 0, 65, 39
1, 287914, Note_off_c, 0, 50, 36
1, 287997, Control_c, 0, 64, 48
1, 288012, Control_c, 0, 64, 65
1, 288027, Control_c, 0, 64, 70
1, 288042, Control_c, 0, 64, 75
1, 288056, Control_c, 0, 64, 79
1, 288071, Control_c, 0, 64, 81
1, 288082, Note_off_c, 0, 60, 63
1, 288086, Control_c, 0, 64, 83
1, 288101, Control_c, 0, 64, 86
1, 288116, Control_c, 0, 64, 88
1, 288130, Control_c, 0, 64, 89
1, 288145, Control_c, 0, 64, 90
1, 288160, Control_c, 0, 64, 91
1, 288175, Control_c, 0, 64, 91
1, 288204, Control_c, 0, 64, 92
1, 288234, Control_c, 0, 64, 92
1, 288302, Note_on_c, 0, 60, 61
1, 288762, Note_off_c, 0, 60, 59
1, 288776, Note_on_c, 0, 53, 61
1, 288786, Note_on_c, 0, 65, 61
1, 288860, Note_off_c, 0, 63, 62
1, 289158, Note_off_c, 0, 53, 56
1, 289243, Control_c, 0, 64, 91
1, 289258, Control_c, 0, 64, 90
1, 289273, Control_c, 0, 64, 87
1, 289287, Note_on_c, 0, 67, 67
1, 289287, Control_c, 0, 64, 84
1, 289293, Note_on_c, 0, 58, 62
1, 289296, Note_on_c, 0, 50, 54
1, 289302, Control_c, 0, 64, 81
1, 289317, Control_c, 0, 64, 78
1, 289331, Control_c, 0, 64, 75
1, 289346, Control_c, 0, 64, 72
1, 289355, Note_off_c, 0, 65, 61
1, 289361, Control_c, 0, 64, 69
1, 289376, Control_c, 0, 64, 66
1, 289378, Note_off_c, 0, 44, 32
1, 289391, Control_c, 0, 64, 65
1, 289405, Control_c, 0, 64, 64
1, 289420, Control_c, 0, 64, 63
1, 289435, Control_c, 0, 64, 62
1, 289450, Control_c, 0, 64, 61
1, 289465, Control_c, 0, 64, 60
1, 289480, Control_c, 0, 64, 60
1, 289495, Control_c, 0, 64, 59
1, 289525, Control_c, 0, 64, 59
1, 289569, Control_c, 0, 64, 58
1, 289785, Note_on_c, 0, 65, 58
1, 289895, Control_c, 0, 64, 59
1, 289906, Note_off_c, 0, 67, 37
1, 289909, Control_c, 0, 64, 60
1, 289924, Control_c, 0, 64, 61
1, 289939, Control_c, 0, 64, 62
1, 289954, Control_c, 0, 64, 64
1, 289969, Control_c, 0, 64, 65
1, 289991, Control_c, 0, 64, 66
1, 290006, Control_c, 0, 64, 68
1, 290021, Control_c, 0, 64, 68
1, 290035, Control_c, 0, 64, 69
1, 290168, Control_c, 0, 64, 68
1, 290198, Control_c, 0, 64, 67
1, 290213, Control_c, 0, 64, 66
1, 290228, Control_c, 0, 64, 65
1, 290243, Control_c, 0, 64, 64
1, 290258, Control_c, 0, 64, 63
1, 290269, Note_on_c, 0, 63, 64
1, 290273, Control_c, 0, 64, 62
1, 290279, Note_on_c, 0, 43, 49
1, 290288, Control_c, 0, 64, 59
1, 290303, Control_c, 0, 64, 57
1, 290318, Control_c, 0, 64, 54
1, 290329, Note_off_c, 0, 65, 56
1, 290332, Control_c, 0, 64, 53
1, 290347, Control_c, 0, 64, 52
1, 290362, Control_c, 0, 64, 51
1, 290392, Control_c, 0, 64, 54
1, 290407, Control_c, 0, 64, 59
1, 290422, Control_c, 0, 64, 64
1, 290422, Note_off_c, 0, 50, 51
1, 290437, Control_c, 0, 64, 68
1, 290451, Control_c, 0, 64, 71
1, 290466, Control_c, 0, 64, 74
1, 290481, Control_c, 0, 64, 77
1, 290496, Control_c, 0, 64, 79
1, 290511, Control_c, 0, 64, 81
1, 290525, Control_c, 0, 64, 82
1, 290540, Control_c, 0, 64, 82
1, 290555, Control_c, 0, 64, 83
1, 290570, Control_c, 0, 64, 83
1, 290584, Control_c, 0, 64, 84
1, 290614, Control_c, 0, 64, 84
1, 290718, Control_c, 0, 64, 84
1, 290740, Control_c, 0, 64, 82
1, 290755, Control_c, 0, 64, 78
1, 290766, Note_off_c, 0, 58, 61
1, 290768, Note_on_c, 0, 65, 66
1, 290769, Note_on_c, 0, 56, 59
1, 290770, Control_c, 0, 64, 72
1, 290783, Note_on_c, 0, 50, 54
1, 290784, Control_c, 0, 64, 66
1, 290799, Control_c, 0, 64, 59
1, 290814, Control_c, 0, 64, 49
1, 290818, Note_off_c, 0, 63, 64
1, 290829, Control_c, 0, 64, 45
1, 290844, Control_c, 0, 64, 41
1, 290858, Control_c, 0, 64, 34
1, 290873, Control_c, 0, 64, 13
1, 290888, Control_c, 0, 64, 0
1, 290929, Note_off_c, 0, 43, 37
1, 291067, Control_c, 0, 64, 23
1, 291081, Control_c, 0, 64, 45
1, 291096, Control_c, 0, 64, 57
1, 291111, Control_c, 0, 64, 62
1, 291126, Control_c, 0, 64, 64
1, 291141, Control_c, 0, 64, 64
1, 291170, Control_c, 0, 64, 65
1, 291200, Control_c, 0, 64, 65
1, 291230, Control_c, 0, 64, 65
1, 291234, Note_on_c, 0, 63, 63
1, 291274, Control_c, 0, 64, 65
1, 291304, Control_c, 0, 64, 66
1, 291319, Control_c, 0, 64, 67
1, 291332, Note_off_c, 0, 65, 60
1, 291334, Control_c, 0, 64, 69
1, 291348, Control_c, 0, 64, 71
1, 291363, Control_c, 0, 64, 72
1, 291378, Control_c, 0, 64, 74
1, 291393, Control_c, 0, 64, 75
1, 291407, Control_c, 0, 64, 77
1, 291422, Control_c, 0, 64, 78
1, 291437, Control_c, 0, 64, 79
1, 291450, Note_on_c, 0, 48, 63
1, 291452, Control_c, 0, 64, 80
1, 291467, Control_c, 0, 64, 81
1, 291489, Control_c, 0, 64, 81
1, 291504, Control_c, 0, 64, 82
1, 291519, Control_c, 0, 64, 83
1, 291533, Control_c, 0, 64, 84
1, 291563, Control_c, 0, 64, 84
1, 291578, Control_c, 0, 64, 85
1, 291607, Control_c, 0, 64, 85
1, 291696, Control_c, 0, 64, 83
1, 291711, Control_c, 0, 64, 80
1, 291720, Note_on_c, 0, 62, 71
1, 291722, Note_on_c, 0, 58, 67
1, 291725, Note_on_c, 0, 46, 67
1, 291725, Control_c, 0, 64, 74
1, 291733, Note_off_c, 0, 50, 62
1, 291740, Control_c, 0, 64, 68
1, 291755, Control_c, 0, 64, 60
1, 291770, Control_c, 0, 64, 31
1, 291785, Control_c, 0, 64, 0
1, 291787, Note_off_c, 0, 48, 65
1, 291790, Note_off_c, 0, 63, 49
1, 291836, Note_off_c, 0, 56, 37
1, 291890, Control_c, 0, 64, 56
1, 291904, Control_c, 0, 64, 66
1, 291919, Control_c, 0, 64, 71
1, 291934, Control_c, 0, 64, 75
1, 291949, Control_c, 0, 64, 78
1, 291964, Control_c, 0, 64, 81
1, 291978, Control_c, 0, 64, 84
1, 291993, Control_c, 0, 64, 86
1, 292008, Control_c, 0, 64, 89
1, 292023, Control_c, 0, 64, 90
1, 292038, Control_c, 0, 64, 92
1, 292052, Control_c, 0, 64, 93
1, 292067, Control_c, 0, 64, 94
1, 292082, Control_c, 0, 64, 95
1, 292097, Control_c, 0, 64, 96
1, 292112, Control_c, 0, 64, 97
1, 292127, Control_c, 0, 64, 97
1, 292137, Note_off_c, 0, 58, 59
1, 292216, Control_c, 0, 64, 96
1, 292237, Control_c, 0, 64, 91
1, 292242, Note_on_c, 0, 44, 71
1, 292244, Note_on_c, 0, 53, 77
1, 292252, Control_c, 0, 64, 83
1, 292267, Control_c, 0, 64, 73
1, 292273, Note_off_c, 0, 46, 54
1, 292282, Control_c, 0, 64, 63
1, 292297, Control_c, 0, 64, 27
1, 292312, Control_c, 0, 64, 0
1, 292371, Control_c, 0, 64, 13
1, 292386, Control_c, 0, 64, 53
1, 292401, Control_c, 0, 64, 65
1, 292416, Control_c, 0, 64, 69
1, 292430, Control_c, 0, 64, 74
1, 292445, Control_c, 0, 64, 78
1, 292461, Control_c, 0, 64, 82
1, 292476, Control_c, 0, 64, 85
1, 292491, Control_c, 0, 64, 87
1, 292505, Control_c, 0, 64, 89
1, 292520, Control_c, 0, 64, 91
1, 292535, Control_c, 0, 64, 92
1, 292549, Control_c, 0, 64, 94
1, 292564, Control_c, 0, 64, 95
1, 292571, Note_off_c, 0, 53, 63
1, 292579, Control_c, 0, 64, 95
1, 292594, Control_c, 0, 64, 96
1, 292609, Control_c, 0, 64, 96
1, 292638, Control_c, 0, 64, 97
1, 292654, Control_c, 0, 64, 97
1, 292669, Control_c, 0, 64, 98
1, 292684, Control_c, 0, 64, 98
1, 292713, Poly_aftertouch_c, 0, 46, 127
1, 292743, Control_c, 0, 64, 97
1, 292750, Note_on_c, 0, 60, 75
1, 292750, Note_off_c, 0, 62, 61
1, 292758, Control_c, 0, 64, 94
1, 292765, Note_on_c, 0, 43, 80
1, 292767, Note_on_c, 0, 55, 79
1, 292772, Control_c, 0, 64, 87
1, 292781, Poly_aftertouch_c, 0, 46, 0
1, 292787, Control_c, 0, 64, 79
1, 292802, Control_c, 0, 64, 70
1, 292806, Note_off_c, 0, 44, 53
1, 292817, Control_c, 0, 64, 62
1, 292832, Control_c, 0, 64, 45
1, 292846, Control_c, 0, 64, 30
1, 292861, Control_c, 0, 64, 25
1, 292876, Control_c, 0, 64, 0
1, 293010, Note_on_c, 0, 62, 82
1, 293041, Note_off_c, 0, 60, 62
1, 293076, Control_c, 0, 64, 56
1, 293091, Control_c, 0, 64, 68
1, 293106, Control_c, 0, 64, 72
1, 293121, Control_c, 0, 64, 75
1, 293135, Control_c, 0, 64, 77
1, 293150, Control_c, 0, 64, 78
1, 293165, Control_c, 0, 64, 80
1, 293179, Control_c, 0, 64, 82
1, 293194, Control_c, 0, 64, 83
1, 293209, Control_c, 0, 64, 83
1, 293284, Control_c, 0, 64, 82
1, 293298, Control_c, 0, 64, 78
1, 293313, Control_c, 0, 64, 72
1, 293319, Note_on_c, 0, 58, 85
1, 293319, Note_on_c, 0, 70, 82
1, 293328, Control_c, 0, 64, 64
1, 293333, Note_off_c, 0, 62, 63
1, 293343, Control_c, 0, 64, 40
1, 293358, Control_c, 0, 64, 0
1, 293507, Control_c, 0, 64, 40
1, 293522, Control_c, 0, 64, 65
1, 293537, Control_c, 0, 64, 73
1, 293551, Control_c, 0, 64, 78
1, 293566, Control_c, 0, 64, 81
1, 293581, Control_c, 0, 64, 83
1, 293595, Control_c, 0, 64, 86
1, 293610, Control_c, 0, 64, 89
1, 293625, Control_c, 0, 64, 91
1, 293640, Control_c, 0, 64, 93
1, 293655, Control_c, 0, 64, 95
1, 293669, Control_c, 0, 64, 96
1, 293684, Control_c, 0, 64, 98
1, 293699, Control_c, 0, 64, 99
1, 293714, Control_c, 0, 64, 99
1, 293737, Control_c, 0, 64, 100
1, 293751, Control_c, 0, 64, 100
1, 293766, Control_c, 0, 64, 101
1, 293781, Control_c, 0, 64, 102
1, 293796, Control_c, 0, 64, 102
1, 293810, Control_c, 0, 64, 103
1, 293870, Control_c, 0, 64, 103
1, 293876, Note_on_c, 0, 63, 84
1, 294075, Control_c, 0, 64, 104
1, 294101, Note_off_c, 0, 58, 56
1, 294105, Control_c, 0, 64, 104
1, 294134, Control_c, 0, 64, 105
1, 294149, Control_c, 0, 64, 105
1, 294223, Note_off_c, 0, 63, 62
1, 294358, Note_on_c, 0, 63, 89
1, 294454, Note_off_c, 0, 55, 58
1, 294824, Control_c, 0, 64, 104
1, 294839, Control_c, 0, 64, 103
1, 294854, Control_c, 0, 64, 101
1, 294861, Note_on_c, 0, 73, 76
1, 294869, Note_on_c, 0, 58, 74
1, 294869, Control_c, 0, 64, 99
1, 294870, Note_on_c, 0, 55, 64
1, 294873, Note_on_c, 0, 46, 68
1, 294884, Control_c, 0, 64, 96
1, 294898, Control_c, 0, 64, 94
1, 294899, Note_off_c, 0, 63, 64
1, 294913, Control_c, 0, 64, 92
1, 294928, Control_c, 0, 64, 91
1, 294957, Control_c, 0, 64, 91
1, 294968, Note_off_c, 0, 70, 54
1, 294972, Control_c, 0, 64, 90
1, 294987, Control_c, 0, 64, 90
1, 295016, Control_c, 0, 64, 89
1, 295063, Note_off_c, 0, 43, 30
1, 295395, Note_on_c, 0, 63, 81
1, 295498, Note_off_c, 0, 58, 48
1, 295651, Note_off_c, 0, 73, 23
1, 295841, Control_c, 0, 64, 88
1, 295856, Control_c, 0, 64, 85
1, 295863, Note_on_c, 0, 72, 71
1, 295871, Control_c, 0, 64, 80
1, 295872, Note_on_c, 0, 48, 62
1, 295886, Control_c, 0, 64, 73
1, 295901, Control_c, 0, 64, 65
1, 295916, Control_c, 0, 64, 48
1, 295922, Note_off_c, 0, 46, 54
1, 295931, Control_c, 0, 64, 18
1, 295945, Control_c, 0, 64, 21
1, 295960, Control_c, 0, 64, 36
1, 295982, Control_c, 0, 64, 48
1, 295996, Control_c, 0, 64, 57
1, 296011, Control_c, 0, 64, 63
1, 296026, Control_c, 0, 64, 68
1, 296041, Control_c, 0, 64, 73
1, 296056, Control_c, 0, 64, 78
1, 296071, Control_c, 0, 64, 81
1, 296086, Control_c, 0, 64, 83
1, 296100, Control_c, 0, 64, 84
1, 296115, Control_c, 0, 64, 86
1, 296130, Control_c, 0, 64, 87
1, 296145, Control_c, 0, 64, 88
1, 296160, Control_c, 0, 64, 89
1, 296175, Control_c, 0, 64, 90
1, 296190, Control_c, 0, 64, 90
1, 296203, Control_c, 0, 64, 91
1, 296233, Control_c, 0, 64, 91
1, 296248, Note_off_c, 0, 48, 58
1, 296292, Control_c, 0, 64, 91
1, 296307, Control_c, 0, 64, 89
1, 296320, Note_on_c, 0, 46, 76
1, 296320, Note_on_c, 0, 61, 77
1, 296322, Control_c, 0, 64, 83
1, 296327, Note_off_c, 0, 63, 62
1, 296336, Control_c, 0, 64, 75
1, 296351, Control_c, 0, 64, 68
1, 296366, Control_c, 0, 64, 59
1, 296381, Control_c, 0, 64, 47
1, 296396, Control_c, 0, 64, 47
1, 296411, Control_c, 0, 64, 49
1, 296425, Control_c, 0, 64, 53
1, 296440, Control_c, 0, 64, 57
1, 296455, Control_c, 0, 64, 62
1, 296470, Control_c, 0, 64, 65
1, 296485, Control_c, 0, 64, 68
1, 296500, Control_c, 0, 64, 72
1, 296514, Control_c, 0, 64, 76
1, 296529, Control_c, 0, 64, 78
1, 296544, Control_c, 0, 64, 80
1, 296559, Control_c, 0, 64, 82
1, 296574, Control_c, 0, 64, 83
1, 296575, Note_on_c, 0, 63, 87
1, 296588, Control_c, 0, 64, 85
1, 296603, Control_c, 0, 64, 87
1, 296618, Control_c, 0, 64, 88
1, 296633, Control_c, 0, 64, 89
1, 296643, Note_off_c, 0, 46, 54
1, 296649, Control_c, 0, 64, 90
1, 296664, Control_c, 0, 64, 91
1, 296679, Control_c, 0, 64, 92
1, 296693, Control_c, 0, 64, 94
1, 296708, Control_c, 0, 64, 95
1, 296730, Control_c, 0, 64, 96
1, 296744, Control_c, 0, 64, 96
1, 296774, Note_off_c, 0, 61, 37
1, 296789, Control_c, 0, 64, 97
1, 296849, Control_c, 0, 64, 96
1, 296864, Control_c, 0, 64, 92
1, 296869, Note_on_c, 0, 65, 85
1, 296872, Note_on_c, 0, 44, 61
1, 296875, Note_on_c, 0, 49, 68
1, 296879, Control_c, 0, 64, 85
1, 296893, Control_c, 0, 64, 74
1, 296904, Note_off_c, 0, 63, 62
1, 296908, Control_c, 0, 64, 65
1, 296923, Control_c, 0, 64, 47
1, 296938, Control_c, 0, 64, 0
1, 296942, Note_off_c, 0, 55, 64
1, 297071, Control_c, 0, 64, 45
1, 297086, Control_c, 0, 64, 68
1, 297100, Control_c, 0, 64, 74
1, 297115, Control_c, 0, 64, 79
1, 297130, Control_c, 0, 64, 82
1, 297139, Note_off_c, 0, 65, 64
1, 297144, Control_c, 0, 64, 85
1, 297159, Control_c, 0, 64, 88
1, 297174, Control_c, 0, 64, 91
1, 297189, Control_c, 0, 64, 93
1, 297204, Control_c, 0, 64, 94
1, 297218, Control_c, 0, 64, 95
1, 297248, Control_c, 0, 64, 95
1, 297308, Control_c, 0, 64, 96
1, 297359, Note_on_c, 0, 65, 77
1, 297566, Note_off_c, 0, 72, 39
1, 297833, Note_on_c, 0, 70, 77
1, 297843, Note_on_c, 0, 58, 64
1, 297847, Note_on_c, 0, 46, 64
1, 297867, Note_off_c, 0, 65, 63
1, 297958, Note_off_c, 0, 49, 60
1, 298095, Note_off_c, 0, 58, 57
1, 298101, Control_c, 0, 64, 96
1, 298127, Note_off_c, 0, 46, 54
1, 298160, Control_c, 0, 64, 97
1, 298208, Note_off_c, 0, 44, 34
1, 298258, Control_c, 0, 64, 96
1, 298272, Control_c, 0, 64, 92
1, 298287, Control_c, 0, 64, 85
1, 298291, Note_on_c, 0, 68, 83
1, 298296, Note_on_c, 0, 63, 74
1, 298299, Note_on_c, 0, 53, 66
1, 298300, Note_on_c, 0, 48, 73
1, 298302, Control_c, 0, 64, 77
1, 298317, Control_c, 0, 64, 68
1, 298325, Note_off_c, 0, 70, 61
1, 298332, Control_c, 0, 64, 55
1, 298346, Control_c, 0, 64, 31
1, 298361, Control_c, 0, 64, 18
1, 298376, Control_c, 0, 64, 13
1, 298390, Control_c, 0, 64, 0
1, 298451, Control_c, 0, 64, 30
1, 298465, Control_c, 0, 64, 50
1, 298480, Control_c, 0, 64, 61
1, 298495, Control_c, 0, 64, 65
1, 298510, Control_c, 0, 64, 68
1, 298524, Control_c, 0, 64, 73
1, 298539, Control_c, 0, 64, 76
1, 298554, Control_c, 0, 64, 79
1, 298569, Control_c, 0, 64, 81
1, 298584, Control_c, 0, 64, 83
1, 298598, Control_c, 0, 64, 84
1, 298613, Control_c, 0, 64, 86
1, 298628, Control_c, 0, 64, 87
1, 298643, Control_c, 0, 64, 88
1, 298658, Control_c, 0, 64, 89
1, 298673, Control_c, 0, 64, 89
1, 298688, Control_c, 0, 64, 90
1, 298784, Note_on_c, 0, 46, 73
1, 298791, Control_c, 0, 64, 89
1, 298806, Control_c, 0, 64, 88
1, 298815, Note_off_c, 0, 48, 57
1, 298821, Control_c, 0, 64, 87
1, 298836, Control_c, 0, 64, 86
1, 298851, Control_c, 0, 64, 85
1, 298880, Control_c, 0, 64, 85
1, 298910, Control_c, 0, 64, 84
1, 298993, Note_on_c, 0, 67, 81
1, 298997, Note_off_c, 0, 68, 62
1, 299095, Note_off_c, 0, 46, 58
1, 299229, Control_c, 0, 64, 84
1, 299234, Note_on_c, 0, 68, 85
1, 299244, Note_on_c, 0, 48, 71
1, 299244, Control_c, 0, 64, 80
1, 299246, Note_on_c, 0, 44, 68
1, 299259, Control_c, 0, 64, 74
1, 299268, Note_off_c, 0, 63, 60
1, 299273, Note_off_c, 0, 67, 62
1, 299274, Control_c, 0, 64, 67
1, 299288, Control_c, 0, 64, 52
1, 299303, Control_c, 0, 64, 20
1, 299318, Control_c, 0, 64, 0
1, 299320, Note_off_c, 0, 53, 66
1, 299392, Control_c, 0, 64, 29
1, 299407, Control_c, 0, 64, 61
1, 299421, Control_c, 0, 64, 67
1, 299436, Control_c, 0, 64, 72
1, 299451, Control_c, 0, 64, 76
1, 299466, Control_c, 0, 64, 79
1, 299481, Control_c, 0, 64, 81
1, 299496, Control_c, 0, 64, 83
1, 299511, Control_c, 0, 64, 84
1, 299526, Control_c, 0, 64, 85
1, 299540, Control_c, 0, 64, 86
1, 299555, Control_c, 0, 64, 87
1, 299570, Control_c, 0, 64, 87
1, 299583, Note_off_c, 0, 48, 59
1, 299585, Control_c, 0, 64, 88
1, 299600, Control_c, 0, 64, 88
1, 299644, Control_c, 0, 64, 89
1, 299681, Note_off_c, 0, 44, 61
1, 299688, Control_c, 0, 64, 88
1, 299690, Note_on_c, 0, 73, 81
1, 299694, Note_on_c, 0, 55, 76
1, 299695, Note_on_c, 0, 46, 70
1, 299697, Note_on_c, 0, 61, 74
1, 299703, Control_c, 0, 64, 84
1, 299725, Control_c, 0, 64, 77
1, 299727, Note_off_c, 0, 68, 61
1, 299740, Control_c, 0, 64, 69
1, 299755, Control_c, 0, 64, 58
1, 299770, Control_c, 0, 64, 0
1, 299845, Control_c, 0, 64, 34
1, 299859, Control_c, 0, 64, 56
1, 299874, Control_c, 0, 64, 64
1, 299889, Control_c, 0, 64, 69
1, 299904, Control_c, 0, 64, 73
1, 299919, Control_c, 0, 64, 76
1, 299934, Control_c, 0, 64, 78
1, 299948, Control_c, 0, 64, 80
1, 299962, Control_c, 0, 64, 82
1, 299977, Control_c, 0, 64, 83
1, 299992, Control_c, 0, 64, 85
1, 300007, Control_c, 0, 64, 86
1, 300022, Control_c, 0, 64, 87
1, 300036, Control_c, 0, 64, 88
1, 300051, Control_c, 0, 64, 89
1, 300066, Control_c, 0, 64, 90
1, 300081, Control_c, 0, 64, 91
1, 300155, Control_c, 0, 64, 90
1, 300169, Control_c, 0, 64, 87
1, 300172, Note_on_c, 0, 44, 70
1, 300184, Control_c, 0, 64, 82
1, 300199, Control_c, 0, 64, 77
1, 300214, Control_c, 0, 64, 72
1, 300226, Note_off_c, 0, 55, 61
1, 300229, Control_c, 0, 64, 70
1, 300259, Control_c, 0, 64, 71
1, 300274, Control_c, 0, 64, 73
1, 300288, Control_c, 0, 64, 76
1, 300303, Control_c, 0, 64, 78
1, 300318, Control_c, 0, 64, 79
1, 300333, Control_c, 0, 64, 80
1, 300348, Control_c, 0, 64, 81
1, 300362, Control_c, 0, 64, 82
1, 300372, Note_off_c, 0, 46, 16
1, 300377, Control_c, 0, 64, 83
1, 300389, Note_on_c, 0, 53, 71
1, 300392, Control_c, 0, 64, 84
1, 300407, Control_c, 0, 64, 85
1, 300422, Control_c, 0, 64, 85
1, 300436, Control_c, 0, 64, 86
1, 300449, Note_off_c, 0, 44, 53
1, 300451, Control_c, 0, 64, 87
1, 300473, Control_c, 0, 64, 87
1, 300488, Control_c, 0, 64, 88
1, 300503, Control_c, 0, 64, 88
1, 300518, Control_c, 0, 64, 89
1, 300533, Control_c, 0, 64, 90
1, 300548, Control_c, 0, 64, 90
1, 300618, Note_off_c, 0, 53, 58
1, 300619, Note_on_c, 0, 51, 68
1, 300622, Control_c, 0, 64, 89
1, 300625, Note_on_c, 0, 70, 76
1, 300626, Note_on_c, 0, 43, 59
1, 300632, Note_on_c, 0, 63, 67
1, 300637, Control_c, 0, 64, 85
1, 300652, Control_c, 0, 64, 79
1, 300667, Control_c, 0, 64, 70
1, 300668, Note_off_c, 0, 61, 60
1, 300682, Control_c, 0, 64, 61
1, 300694, Note_off_c, 0, 73, 53
1, 300697, Control_c, 0, 64, 24
1, 300712, Control_c, 0, 64, 0
1, 300815, Control_c, 0, 64, 59
1, 300830, Control_c, 0, 64, 67
1, 300845, Control_c, 0, 64, 72
1, 300859, Note_on_c, 0, 68, 79
1, 300859, Control_c, 0, 64, 77
1, 300874, Control_c, 0, 64, 81
1, 300889, Note_off_c, 0, 70, 60
1, 300889, Control_c, 0, 64, 82
1, 300904, Control_c, 0, 64, 83
1, 300918, Control_c, 0, 64, 85
1, 300933, Control_c, 0, 64, 86
1, 300948, Control_c, 0, 64, 86
1, 300952, Note_off_c, 0, 63, 64
1, 300963, Control_c, 0, 64, 87
1, 301126, Control_c, 0, 64, 86
1, 301140, Note_on_c, 0, 70, 80
1, 301141, Control_c, 0, 64, 85
1, 301142, Note_on_c, 0, 58, 73
1, 301156, Control_c, 0, 64, 83
1, 301171, Control_c, 0, 64, 81
1, 301185, Control_c, 0, 64, 79
1, 301194, Note_off_c, 0, 68, 56
1, 301200, Control_c, 0, 64, 77
1, 301222, Control_c, 0, 64, 75
1, 301237, Control_c, 0, 64, 73
1, 301252, Control_c, 0, 64, 72
1, 301266, Control_c, 0, 64, 72
1, 301281, Control_c, 0, 64, 71
1, 301296, Control_c, 0, 64, 71
1, 301311, Control_c, 0, 64, 70
1, 301326, Control_c, 0, 64, 69
1, 301341, Control_c, 0, 64, 68
1, 301356, Control_c, 0, 64, 67
1, 301371, Control_c, 0, 64, 67
1, 301385, Control_c, 0, 64, 66
1, 301400, Control_c, 0, 64, 66
1, 301415, Control_c, 0, 64, 65
1, 301430, Control_c, 0, 64, 64
1, 301445, Control_c, 0, 64, 64
1, 301460, Control_c, 0, 64, 63
1, 301475, Control_c, 0, 64, 62
1, 301490, Control_c, 0, 64, 57
1, 301505, Control_c, 0, 64, 50
1, 301520, Control_c, 0, 64, 43
1, 301535, Control_c, 0, 64, 35
1, 301549, Control_c, 0, 64, 24
1, 301564, Control_c, 0, 64, 0
1, 301648, Note_on_c, 0, 63, 68
1, 301771, Control_c, 0, 64, 51
1, 301786, Control_c, 0, 64, 67
1, 301801, Control_c, 0, 64, 71
1, 301806, Note_off_c, 0, 43, 60
1, 301815, Control_c, 0, 64, 74
1, 301830, Control_c, 0, 64, 75
1, 301845, Control_c, 0, 64, 78
1, 301860, Control_c, 0, 64, 81
1, 301875, Control_c, 0, 64, 85
1, 301889, Control_c, 0, 64, 88
1, 301904, Control_c, 0, 64, 89
1, 301919, Control_c, 0, 64, 90
1, 301934, Control_c, 0, 64, 91
1, 301949, Control_c, 0, 64, 91
1, 301971, Control_c, 0, 64, 92
1, 302075, Control_c, 0, 64, 91
1, 302089, Control_c, 0, 64, 88
1, 302104, Control_c, 0, 64, 83
1, 302114, Note_on_c, 0, 61, 71
1, 302119, Control_c, 0, 64, 77
1, 302129, Note_on_c, 0, 41, 49
1, 302134, Control_c, 0, 64, 71
1, 302149, Control_c, 0, 64, 65
1, 302164, Control_c, 0, 64, 61
1, 302179, Control_c, 0, 64, 59
1, 302194, Control_c, 0, 64, 57
1, 302208, Note_off_c, 0, 63, 61
1, 302208, Control_c, 0, 64, 54
1, 302223, Note_off_c, 0, 58, 61
1, 302223, Control_c, 0, 64, 49
1, 302239, Control_c, 0, 64, 42
1, 302254, Control_c, 0, 64, 33
1, 302269, Control_c, 0, 64, 30
1, 302284, Control_c, 0, 64, 29
1, 302328, Control_c, 0, 64, 33
1, 302343, Control_c, 0, 64, 47
1, 302357, Control_c, 0, 64, 61
1, 302368, Note_on_c, 0, 43, 53
1, 302372, Control_c, 0, 64, 67
1, 302387, Control_c, 0, 64, 73
1, 302402, Control_c, 0, 64, 77
1, 302405, Note_off_c, 0, 41, 36
1, 302417, Control_c, 0, 64, 79
1, 302432, Control_c, 0, 64, 80
1, 302447, Control_c, 0, 64, 81
1, 302462, Control_c, 0, 64, 82
1, 302477, Control_c, 0, 64, 83
1, 302492, Control_c, 0, 64, 84
1, 302610, Control_c, 0, 64, 83
1, 302622, Note_off_c, 0, 43, 52
1, 302625, Control_c, 0, 64, 80
1, 302638, Note_on_c, 0, 60, 63
1, 302639, Control_c, 0, 64, 76
1, 302647, Note_on_c, 0, 44, 46
1, 302654, Control_c, 0, 64, 70
1, 302669, Control_c, 0, 64, 65
1, 302683, Control_c, 0, 64, 61
1, 302698, Control_c, 0, 64, 59
1, 302733, Note_off_c, 0, 61, 58
1, 302751, Control_c, 0, 64, 58
1, 302765, Control_c, 0, 64, 56
1, 302780, Control_c, 0, 64, 55
1, 302795, Control_c, 0, 64, 54
1, 302913, Control_c, 0, 64, 55
1, 302928, Control_c, 0, 64, 55
1, 302943, Control_c, 0, 64, 56
1, 302972, Control_c, 0, 64, 56
1, 303017, Control_c, 0, 64, 57
1, 303077, Control_c, 0, 64, 58
1, 303107, Control_c, 0, 64, 58
1, 303122, Control_c, 0, 64, 59
1, 303179, Note_on_c, 0, 68, 49
1, 303240, Control_c, 0, 64, 59
1, 303255, Control_c, 0, 64, 60
1, 303270, Control_c, 0, 64, 61
1, 303284, Control_c, 0, 64, 62
1, 303291, Note_off_c, 0, 70, 57
1, 303299, Control_c, 0, 64, 64
1, 303314, Control_c, 0, 64, 66
1, 303329, Control_c, 0, 64, 68
1, 303344, Control_c, 0, 64, 71
1, 303359, Control_c, 0, 64, 73
1, 303374, Control_c, 0, 64, 75
1, 303388, Control_c, 0, 64, 76
1, 303403, Control_c, 0, 64, 77
1, 303418, Control_c, 0, 64, 78
1, 303433, Control_c, 0, 64, 78
1, 303499, Control_c, 0, 64, 79
1, 303588, Control_c, 0, 64, 78
1, 303603, Control_c, 0, 64, 77
1, 303618, Control_c, 0, 64, 75
1, 303633, Control_c, 0, 64, 72
1, 303648, Note_on_c, 0, 67, 49
1, 303648, Control_c, 0, 64, 67
1, 303660, Note_on_c, 0, 53, 43
1, 303662, Control_c, 0, 64, 64
1, 303669, Note_off_c, 0, 51, 55
1, 303677, Control_c, 0, 64, 61
1, 303692, Control_c, 0, 64, 60
1, 303693, Note_off_c, 0, 68, 62
1, 303721, Control_c, 0, 64, 61
1, 303751, Control_c, 0, 64, 62
1, 303766, Control_c, 0, 64, 64
1, 303780, Control_c, 0, 64, 67
1, 303795, Control_c, 0, 64, 70
1, 303810, Control_c, 0, 64, 73
1, 303825, Control_c, 0, 64, 75
1, 303841, Control_c, 0, 64, 76
1, 303856, Control_c, 0, 64, 77
1, 303871, Control_c, 0, 64, 78
1, 303876, Note_on_c, 0, 51, 59
1, 303885, Control_c, 0, 64, 79
1, 303900, Control_c, 0, 64, 80
1, 303929, Control_c, 0, 64, 81
1, 303974, Control_c, 0, 64, 81
1, 303976, Note_off_c, 0, 44, 40
1, 303989, Control_c, 0, 64, 82
1, 304137, Control_c, 0, 64, 81
1, 304152, Control_c, 0, 64, 80
1, 304152, Note_on_c, 0, 66, 65
1, 304158, Note_on_c, 0, 46, 56
1, 304167, Control_c, 0, 64, 77
1, 304167, Note_on_c, 0, 61, 49
1, 304173, Note_on_c, 0, 49, 49
1, 304182, Control_c, 0, 64, 74
1, 304197, Control_c, 0, 64, 70
1, 304215, Note_off_c, 0, 67, 52
1, 304218, Control_c, 0, 64, 65
1, 304226, Note_off_c, 0, 60, 58
1, 304233, Control_c, 0, 64, 60
1, 304235, Note_off_c, 0, 53, 44
1, 304248, Control_c, 0, 64, 57
1, 304263, Control_c, 0, 64, 57
1, 304292, Control_c, 0, 64, 56
1, 304307, Control_c, 0, 64, 54
1, 304322, Control_c, 0, 64, 53
1, 304337, Control_c, 0, 64, 52
1, 304367, Control_c, 0, 64, 53
1, 304426, Control_c, 0, 64, 53
1, 304440, Control_c, 0, 64, 54
1, 304455, Control_c, 0, 64, 56
1, 304469, Control_c, 0, 64, 57
1, 304484, Control_c, 0, 64, 58
1, 304499, Control_c, 0, 64, 59
1, 304514, Control_c, 0, 64, 60
1, 304522, Note_off_c, 0, 51, 36
1, 304528, Control_c, 0, 64, 61
1, 304543, Control_c, 0, 64, 62
1, 304573, Control_c, 0, 64, 61
1, 304603, Control_c, 0, 64, 61
1, 304617, Control_c, 0, 64, 60
1, 304633, Control_c, 0, 64, 58
1, 304648, Control_c, 0, 64, 54
1, 304663, Control_c, 0, 64, 49
1, 304671, Note_on_c, 0, 65, 62
1, 304678, Control_c, 0, 64, 45
1, 304693, Control_c, 0, 64, 37
1, 304707, Control_c, 0, 64, 13
1, 304722, Control_c, 0, 64, 0
1, 304727, Note_off_c, 0, 66, 53
1, 304900, Control_c, 0, 64, 51
1, 304915, Control_c, 0, 64, 65
1, 304930, Control_c, 0, 64, 69
1, 304945, Control_c, 0, 64, 71
1, 304966, Control_c, 0, 64, 73
1, 304981, Control_c, 0, 64, 75
1, 304996, Control_c, 0, 64, 77
1, 305011, Control_c, 0, 64, 79
1, 305026, Control_c, 0, 64, 80
1, 305040, Control_c, 0, 64, 81
1, 305055, Control_c, 0, 64, 81
1, 305070, Control_c, 0, 64, 82
1, 305159, Control_c, 0, 64, 81
1, 305173, Note_on_c, 0, 63, 60
1, 305174, Control_c, 0, 64, 79
1, 305183, Note_on_c, 0, 48, 50
1, 305189, Control_c, 0, 64, 75
1, 305192, Note_off_c, 0, 49, 47
1, 305204, Control_c, 0, 64, 69
1, 305219, Control_c, 0, 64, 63
1, 305234, Control_c, 0, 64, 57
1, 305249, Control_c, 0, 64, 55
1, 305252, Note_off_c, 0, 65, 61
1, 305264, Control_c, 0, 64, 56
1, 305279, Control_c, 0, 64, 58
1, 305293, Control_c, 0, 64, 61
1, 305297, Note_off_c, 0, 46, 56
1, 305300, Note_off_c, 0, 61, 55
1, 305308, Control_c, 0, 64, 63
1, 305323, Control_c, 0, 64, 67
1, 305338, Control_c, 0, 64, 71
1, 305353, Control_c, 0, 64, 75
1, 305367, Control_c, 0, 64, 78
1, 305382, Control_c, 0, 64, 79
1, 305397, Control_c, 0, 64, 80
1, 305412, Control_c, 0, 64, 81
1, 305428, Control_c, 0, 64, 82
1, 305443, Control_c, 0, 64, 82
1, 305457, Control_c, 0, 64, 83
1, 305472, Control_c, 0, 64, 83
1, 305487, Control_c, 0, 64, 84
1, 305635, Control_c, 0, 64, 83
1, 305649, Control_c, 0, 64, 82
1, 305660, Note_on_c, 0, 65, 61
1, 305664, Control_c, 0, 64, 79
1, 305669, Note_on_c, 0, 56, 55
1, 305673, Note_on_c, 0, 49, 45
1, 305679, Control_c, 0, 64, 74
1, 305694, Control_c, 0, 64, 67
1, 305716, Control_c, 0, 64, 62
1, 305721, Note_off_c, 0, 48, 34
1, 305731, Control_c, 0, 64, 58
1, 305741, Note_off_c, 0, 63, 60
1, 305776, Control_c, 0, 64, 57
1, 305790, Control_c, 0, 64, 56
1, 305805, Control_c, 0, 64, 55
1, 305820, Control_c, 0, 64, 54
1, 305850, Control_c, 0, 64, 55
1, 305923, Control_c, 0, 64, 55
1, 305938, Control_c, 0, 64, 56
1, 305953, Control_c, 0, 64, 56
1, 305982, Control_c, 0, 64, 57
1, 305997, Control_c, 0, 64, 57
1, 306179, Note_on_c, 0, 48, 48
1, 306265, Control_c, 0, 64, 58
1, 306280, Control_c, 0, 64, 59
1, 306295, Control_c, 0, 64, 61
1, 306310, Control_c, 0, 64, 62
1, 306324, Control_c, 0, 64, 63
1, 306339, Control_c, 0, 64, 65
1, 306354, Control_c, 0, 64, 66
1, 306369, Control_c, 0, 64, 67
1, 306384, Control_c, 0, 64, 68
1, 306398, Control_c, 0, 64, 69
1, 306413, Control_c, 0, 64, 70
1, 306456, Note_off_c, 0, 49, 33
1, 306465, Control_c, 0, 64, 70
1, 306569, Control_c, 0, 64, 70
1, 306584, Control_c, 0, 64, 69
1, 306599, Control_c, 0, 64, 67
1, 306613, Control_c, 0, 64, 65
1, 306628, Control_c, 0, 64, 63
1, 306643, Control_c, 0, 64, 60
1, 306655, Note_on_c, 0, 58, 50
1, 306657, Control_c, 0, 64, 55
1, 306668, Note_on_c, 0, 46, 52
1, 306672, Control_c, 0, 64, 50
1, 306686, Control_c, 0, 64, 46
1, 306701, Control_c, 0, 64, 41
1, 306710, Note_off_c, 0, 56, 59
1, 306715, Control_c, 0, 64, 36
1, 306719, Note_off_c, 0, 48, 64
1, 306730, Control_c, 0, 64, 28
1, 306745, Control_c, 0, 64, 24
1, 306775, Control_c, 0, 64, 28
1, 306790, Control_c, 0, 64, 36
1, 306804, Control_c, 0, 64, 46
1, 306819, Control_c, 0, 64, 56
1, 306834, Control_c, 0, 64, 63
1, 306848, Control_c, 0, 64, 67
1, 306863, Control_c, 0, 64, 70
1, 306878, Control_c, 0, 64, 72
1, 306893, Control_c, 0, 64, 74
1, 306908, Control_c, 0, 64, 75
1, 306922, Control_c, 0, 64, 75
1, 306937, Control_c, 0, 64, 76
1, 307087, Control_c, 0, 64, 75
1, 307101, Control_c, 0, 64, 73
1, 307116, Control_c, 0, 64, 69
1, 307131, Control_c, 0, 64, 65
1, 307139, Note_on_c, 0, 44, 57
1, 307143, Note_on_c, 0, 60, 53
1, 307144, Note_on_c, 0, 53, 56
1, 307146, Control_c, 0, 64, 61
1, 307160, Control_c, 0, 64, 58
1, 307175, Control_c, 0, 64, 57
1, 307179, Note_off_c, 0, 58, 57
1, 307190, Control_c, 0, 64, 55
1, 307213, Control_c, 0, 64, 53
1, 307227, Control_c, 0, 64, 47
1, 307230, Note_off_c, 0, 46, 36
1, 307242, Control_c, 0, 64, 43
1, 307257, Control_c, 0, 64, 42
1, 307287, Control_c, 0, 64, 42
1, 307316, Control_c, 0, 64, 41
1, 307434, Control_c, 0, 64, 42
1, 307449, Control_c, 0, 64, 43
1, 307464, Control_c, 0, 64, 43
1, 307479, Control_c, 0, 64, 44
1, 307494, Control_c, 0, 64, 45
1, 307508, Control_c, 0, 64, 46
1, 307523, Control_c, 0, 64, 47
1, 307538, Control_c, 0, 64, 47
1, 307553, Control_c, 0, 64, 48
1, 307568, Control_c, 0, 64, 49
1, 307583, Control_c, 0, 64, 50
1, 307598, Control_c, 0, 64, 51
1, 307613, Control_c, 0, 64, 52
1, 307627, Control_c, 0, 64, 52
1, 307644, Note_on_c, 0, 61, 53
1, 307724, Note_off_c, 0, 60, 49
1, 307760, Control_c, 0, 64, 53
1, 307790, Control_c, 0, 64, 53
1, 307805, Control_c, 0, 64, 54
1, 307850, Control_c, 0, 64, 54
1, 307880, Control_c, 0, 64, 55
1, 307894, Control_c, 0, 64, 55
1, 307962, Control_c, 0, 64, 56
1, 308006, Control_c, 0, 64, 56
1, 308156, Note_on_c, 0, 60, 50
1, 308215, Note_off_c, 0, 61, 57
1, 308273, Control_c, 0, 64, 56
1, 308450, Control_c, 0, 64, 56
1, 308629, Control_c, 0, 64, 57
1, 308747, Note_on_c, 0, 58, 49
1, 308752, Note_on_c, 0, 46, 48
1, 308785, Control_c, 0, 64, 56
1, 308799, Note_off_c, 0, 60, 57
1, 308826, Note_off_c, 0, 44, 57
1, 308844, Control_c, 0, 64, 56
1, 308933, Control_c, 0, 64, 55
1, 309037, Control_c, 0, 64, 55
1, 309096, Control_c, 0, 64, 54
1, 309185, Control_c, 0, 64, 54
1, 309199, Control_c, 0, 64, 53
1, 309229, Control_c, 0, 64, 53
1, 309243, Control_c, 0, 64, 52
1, 309258, Control_c, 0, 64, 48
1, 309273, Control_c, 0, 64, 41
1, 309283, Note_on_c, 0, 63, 47
1, 309288, Control_c, 0, 64, 28
1, 309303, Control_c, 0, 64, 0
1, 309451, Note_off_c, 0, 65, 27
1, 309783, Note_on_c, 0, 61, 48
1, 309822, Note_off_c, 0, 63, 59
1, 310328, Note_on_c, 0, 60, 40
1, 310331, Note_on_c, 0, 54, 44
1, 310382, Note_off_c, 0, 61, 54
1, 310427, Note_off_c, 0, 53, 62
1, 310871, Note_on_c, 0, 61, 44
1, 310883, Note_off_c, 0, 60, 60
1, 311031, Control_c, 0, 64, 37
1, 311046, Control_c, 0, 64, 63
1, 311061, Control_c, 0, 64, 67
1, 311075, Control_c, 0, 64, 69
1, 311090, Control_c, 0, 64, 72
1, 311105, Control_c, 0, 64, 75
1, 311119, Control_c, 0, 64, 77
1, 311134, Control_c, 0, 64, 79
1, 311139, Note_off_c, 0, 58, 53
1, 311145, Note_off_c, 0, 61, 57
1, 311149, Control_c, 0, 64, 80
1, 311164, Control_c, 0, 64, 81
1, 311179, Control_c, 0, 64, 82
1, 311193, Control_c, 0, 64, 82
1, 311208, Control_c, 0, 64, 83
1, 311238, Control_c, 0, 64, 83
1, 311416, Control_c, 0, 64, 82
1, 311431, Control_c, 0, 64, 80
1, 311446, Control_c, 0, 64, 76
1, 311461, Control_c, 0, 64, 70
1, 311461, Note_on_c, 0, 60, 44
1, 311465, Note_on_c, 0, 63, 42
1, 311475, Control_c, 0, 64, 64
1, 311490, Control_c, 0, 64, 53
1, 311505, Control_c, 0, 64, 38
1, 311519, Control_c, 0, 64, 34
1, 311534, Control_c, 0, 64, 37
1, 311549, Control_c, 0, 64, 42
1, 311564, Control_c, 0, 64, 48
1, 311579, Control_c, 0, 64, 59
1, 311593, Control_c, 0, 64, 65
1, 311608, Control_c, 0, 64, 70
1, 311623, Control_c, 0, 64, 75
1, 311637, Control_c, 0, 64, 79
1, 311652, Note_off_c, 0, 46, 56
1, 311652, Control_c, 0, 64, 81
1, 311667, Control_c, 0, 64, 83
1, 311682, Control_c, 0, 64, 84
1, 311705, Control_c, 0, 64, 85
1, 311714, Note_off_c, 0, 60, 53
1, 311720, Control_c, 0, 64, 87
1, 311723, Note_off_c, 0, 63, 58
1, 311734, Control_c, 0, 64, 88
1, 311749, Control_c, 0, 64, 88
1, 311764, Control_c, 0, 64, 89
1, 311779, Control_c, 0, 64, 89
1, 311793, Control_c, 0, 64, 90
1, 312062, Control_c, 0, 64, 89
1, 312076, Control_c, 0, 64, 87
1, 312091, Control_c, 0, 64, 83
1, 312106, Control_c, 0, 64, 76
1, 312117, Note_on_c, 0, 64, 41
1, 312121, Control_c, 0, 64, 69
1, 312126, Note_on_c, 0, 61, 39
1, 312136, Control_c, 0, 64, 63
1, 312138, Note_on_c, 0, 40, 26
1, 312150, Control_c, 0, 64, 56
1, 312165, Control_c, 0, 64, 53
1, 312180, Control_c, 0, 64, 52
1, 312224, Control_c, 0, 64, 53
1, 312239, Control_c, 0, 64, 55
1, 312254, Control_c, 0, 64, 59
1, 312269, Control_c, 0, 64, 63
1, 312284, Control_c, 0, 64, 67
1, 312299, Control_c, 0, 64, 72
1, 312314, Control_c, 0, 64, 76
1, 312329, Control_c, 0, 64, 79
1, 312335, Note_off_c, 0, 64, 52
1, 312343, Control_c, 0, 64, 82
1, 312358, Control_c, 0, 64, 84
1, 312373, Note_off_c, 0, 61, 54
1, 312373, Control_c, 0, 64, 86
1, 312388, Control_c, 0, 64, 87
1, 312403, Control_c, 0, 64, 89
1, 312417, Control_c, 0, 64, 90
1, 312432, Control_c, 0, 64, 90
1, 312454, Control_c, 0, 64, 91
1, 312484, Control_c, 0, 64, 91
1, 312528, Control_c, 0, 64, 92
1, 312704, Note_on_c, 0, 64, 33
1, 312715, Note_on_c, 0, 61, 35
1, 312781, Control_c, 0, 64, 92
1, 312899, Control_c, 0, 64, 93
1, 312970, Note_off_c, 0, 64, 30
1, 313057, Note_off_c, 0, 61, 18
1, 313241, Note_on_c, 0, 57, 38
1, 313396, Note_off_c, 0, 57, 50
1, 313459, Note_off_c, 0, 54, 36
1, 313722, Control_c, 0, 64, 92
1, 313737, Control_c, 0, 64, 91
1, 313752, Control_c, 0, 64, 89
1, 313767, Control_c, 0, 64, 87
1, 313782, Control_c, 0, 64, 85
1, 313796, Control_c, 0, 64, 81
1, 313811, Control_c, 0, 64, 77
1, 313825, Note_on_c, 0, 64, 36
1, 313826, Control_c, 0, 64, 72
1, 313836, Note_on_c, 0, 56, 35
1, 313837, Note_on_c, 0, 59, 33
1, 313840, Control_c, 0, 64, 68
1, 313855, Control_c, 0, 64, 64
1, 313870, Control_c, 0, 64, 62
1, 313885, Control_c, 0, 64, 59
1, 313900, Control_c, 0, 64, 55
1, 313914, Control_c, 0, 64, 47
1, 313929, Control_c, 0, 64, 21
1, 313952, Control_c, 0, 64, 0
1, 314370, Note_off_c, 0, 56, 39
1, 314379, Note_on_c, 0, 57, 28
1, 314894, Note_off_c, 0, 57, 41
1, 314923, Note_on_c, 0, 56, 15
1, 314996, Note_off_c, 0, 64, 25
1, 315028, Note_off_c, 0, 59, 45
1, 315072, Control_c, 0, 64, 54
1, 315086, Control_c, 0, 64, 64
1, 315101, Control_c, 0, 64, 67
1, 315116, Control_c, 0, 64, 71
1, 315131, Control_c, 0, 64, 75
1, 315146, Control_c, 0, 64, 79
1, 315160, Control_c, 0, 64, 82
1, 315175, Note_off_c, 0, 56, 42
1, 315175, Control_c, 0, 64, 84
1, 315190, Control_c, 0, 64, 85
1, 315205, Control_c, 0, 64, 86
1, 315220, Control_c, 0, 64, 87
1, 315235, Control_c, 0, 64, 87
1, 315246, Note_off_c, 0, 40, 39
1, 315250, Control_c, 0, 64, 88
1, 315280, Control_c, 0, 64, 88
1, 315309, Control_c, 0, 64, 89
1, 315494, Control_c, 0, 64, 87
1, 315509, Control_c, 0, 64, 84
1, 315524, Control_c, 0, 64, 80
1, 315527, Note_on_c, 0, 61, 43
1, 315533, Note_on_c, 0, 64, 43
1, 315536, Note_on_c, 0, 54, 34
1, 315539, Control_c, 0, 64, 74
1, 315542, Note_on_c, 0, 45, 38
1, 315554, Control_c, 0, 64, 68
1, 315568, Control_c, 0, 64, 63
1, 315583, Control_c, 0, 64, 57
1, 315598, Control_c, 0, 64, 54
1, 315627, Control_c, 0, 64, 55
1, 315642, Control_c, 0, 64, 56
1, 315657, Control_c, 0, 64, 57
1, 315672, Control_c, 0, 64, 59
1, 315687, Control_c, 0, 64, 63
1, 315701, Control_c, 0, 64, 65
1, 315716, Control_c, 0, 64, 68
1, 315731, Control_c, 0, 64, 72
1, 315746, Control_c, 0, 64, 75
1, 315760, Control_c, 0, 64, 78
1, 315775, Control_c, 0, 64, 81
1, 315790, Control_c, 0, 64, 83
1, 315795, Note_off_c, 0, 64, 54
1, 315805, Control_c, 0, 64, 85
1, 315821, Control_c, 0, 64, 86
1, 315836, Control_c, 0, 64, 88
1, 315846, Note_off_c, 0, 61, 33
1, 315851, Control_c, 0, 64, 88
1, 315865, Control_c, 0, 64, 89
1, 315880, Control_c, 0, 64, 89
1, 315909, Control_c, 0, 64, 90
1, 315983, Control_c, 0, 64, 90
1, 316102, Note_on_c, 0, 64, 41
1, 316111, Note_on_c, 0, 61, 36
1, 316132, Control_c, 0, 64, 91
1, 316162, Control_c, 0, 64, 91
1, 316228, Control_c, 0, 64, 92
1, 316403, Note_off_c, 0, 64, 25
1, 316639, Note_on_c, 0, 57, 33
1, 316719, Note_off_c, 0, 61, 39
1, 316827, Note_off_c, 0, 57, 36
1, 316838, Note_off_c, 0, 54, 35
1, 317155, Control_c, 0, 64, 90
1, 317170, Control_c, 0, 64, 88
1, 317184, Control_c, 0, 64, 85
1, 317190, Note_on_c, 0, 64, 44
1, 317199, Note_on_c, 0, 40, 37
1, 317199, Note_on_c, 0, 56, 41
1, 317199, Control_c, 0, 64, 81
1, 317200, Note_on_c, 0, 59, 39
1, 317214, Control_c, 0, 64, 76
1, 317229, Control_c, 0, 64, 72
1, 317244, Control_c, 0, 64, 69
1, 317258, Control_c, 0, 64, 66
1, 317266, Note_off_c, 0, 45, 31
1, 317273, Control_c, 0, 64, 63
1, 317288, Control_c, 0, 64, 62
1, 317303, Control_c, 0, 64, 59
1, 317318, Control_c, 0, 64, 56
1, 317333, Control_c, 0, 64, 53
1, 317347, Control_c, 0, 64, 49
1, 317362, Control_c, 0, 64, 43
1, 317377, Control_c, 0, 64, 29
1, 317392, Control_c, 0, 64, 0
1, 317707, Note_on_c, 0, 57, 47
1, 317744, Note_off_c, 0, 56, 50
1, 318203, Note_on_c, 0, 56, 49
1, 318241, Note_off_c, 0, 57, 58
1, 318311, Note_off_c, 0, 59, 49
1, 318747, Note_on_c, 0, 60, 41
1, 318860, Note_off_c, 0, 56, 51
1, 318934, Note_off_c, 0, 60, 56
1, 319250, Note_on_c, 0, 59, 42
1, 319314, Note_off_c, 0, 59, 0
1, 319314, Note_on_c, 0, 59, 3
1, 319533, Control_c, 0, 64, 10
1, 319543, Note_on_c, 0, 57, 49
1, 319548, Control_c, 0, 64, 16
1, 319563, Control_c, 0, 64, 20
1, 319578, Control_c, 0, 64, 25
1, 319593, Control_c, 0, 64, 28
1, 319608, Control_c, 0, 64, 30
1, 319652, Control_c, 0, 64, 32
1, 319667, Control_c, 0, 64, 36
1, 319682, Control_c, 0, 64, 39
1, 319687, Note_off_c, 0, 59, 40
1, 319697, Control_c, 0, 64, 41
1, 319726, Control_c, 0, 64, 41
1, 319741, Control_c, 0, 64, 42
1, 319756, Control_c, 0, 64, 43
1, 319771, Control_c, 0, 64, 43
1, 319802, Control_c, 0, 64, 43
1, 319831, Control_c, 0, 64, 42
1, 319842, Note_on_c, 0, 56, 47
1, 319846, Note_off_c, 0, 40, 35
1, 319846, Control_c, 0, 64, 40
1, 319861, Control_c, 0, 64, 38
1, 319864, Note_off_c, 0, 57, 51
1, 319875, Control_c, 0, 64, 36
1, 319884, Note_off_c, 0, 64, 48
1, 319890, Control_c, 0, 64, 34
1, 319905, Control_c, 0, 64, 27
1, 319920, Control_c, 0, 64, 16
1, 319942, Control_c, 0, 64, 0
1, 320046, Control_c, 0, 64, 34
1, 320061, Control_c, 0, 64, 64
1, 320076, Control_c, 0, 64, 68
1, 320090, Control_c, 0, 64, 72
1, 320105, Control_c, 0, 64, 76
1, 320120, Control_c, 0, 64, 79
1, 320135, Control_c, 0, 64, 82
1, 320150, Control_c, 0, 64, 83
1, 320156, Note_off_c, 0, 56, 61
1, 320164, Control_c, 0, 64, 84
1, 320179, Control_c, 0, 64, 84
1, 320194, Control_c, 0, 64, 85
1, 320416, Control_c, 0, 64, 83
1, 320431, Control_c, 0, 64, 80
1, 320446, Control_c, 0, 64, 75
1, 320460, Control_c, 0, 64, 69
1, 320472, Note_on_c, 0, 64, 44
1, 320473, Note_on_c, 0, 61, 45
1, 320475, Note_on_c, 0, 45, 38
1, 320475, Note_on_c, 0, 54, 37
1, 320475, Control_c, 0, 64, 63
1, 320490, Control_c, 0, 64, 54
1, 320505, Control_c, 0, 64, 44
1, 320520, Control_c, 0, 64, 39
1, 320535, Control_c, 0, 64, 36
1, 320550, Control_c, 0, 64, 27
1, 320565, Control_c, 0, 64, 0
1, 320654, Control_c, 0, 64, 38
1, 320669, Control_c, 0, 64, 59
1, 320692, Control_c, 0, 64, 66
1, 320706, Control_c, 0, 64, 71
1, 320721, Control_c, 0, 64, 76
1, 320736, Control_c, 0, 64, 79
1, 320751, Control_c, 0, 64, 81
1, 320766, Control_c, 0, 64, 83
1, 320773, Note_off_c, 0, 64, 56
1, 320780, Control_c, 0, 64, 84
1, 320795, Control_c, 0, 64, 86
1, 320810, Control_c, 0, 64, 87
1, 320821, Note_off_c, 0, 61, 36
1, 320825, Control_c, 0, 64, 88
1, 320840, Control_c, 0, 64, 89
1, 320854, Control_c, 0, 64, 90
1, 320869, Control_c, 0, 64, 90
1, 320884, Control_c, 0, 64, 91
1, 320899, Control_c, 0, 64, 91
1, 320943, Control_c, 0, 64, 92
1, 321059, Note_on_c, 0, 64, 45
1, 321068, Note_on_c, 0, 61, 39
1, 321268, Control_c, 0, 64, 92
1, 321419, Note_off_c, 0, 54, 37
1, 321498, Note_off_c, 0, 64, 17
1, 321601, Note_on_c, 0, 57, 41
1, 321647, Note_off_c, 0, 61, 39
1, 321791, Note_off_c, 0, 57, 37
1, 322048, Control_c, 0, 64, 92
1, 322062, Control_c, 0, 64, 91
1, 322077, Control_c, 0, 64, 89
1, 322092, Control_c, 0, 64, 88
1, 322107, Control_c, 0, 64, 86
1, 322120, Note_on_c, 0, 59, 45
1, 322122, Control_c, 0, 64, 83
1, 322124, Note_on_c, 0, 56, 46
1, 322134, Note_on_c, 0, 64, 41
1, 322136, Note_on_c, 0, 40, 35
1, 322136, Control_c, 0, 64, 81
1, 322151, Control_c, 0, 64, 78
1, 322166, Control_c, 0, 64, 76
1, 322188, Control_c, 0, 64, 74
1, 322204, Control_c, 0, 64, 72
1, 322219, Control_c, 0, 64, 70
1, 322234, Control_c, 0, 64, 68
1, 322249, Control_c, 0, 64, 67
1, 322253, Note_off_c, 0, 45, 29
1, 322264, Control_c, 0, 64, 66
1, 322293, Control_c, 0, 64, 66
1, 322323, Control_c, 0, 64, 65
1, 322352, Control_c, 0, 64, 65
1, 322500, Control_c, 0, 64, 64
1, 322574, Control_c, 0, 64, 64
1, 322634, Control_c, 0, 64, 63
1, 322663, Control_c, 0, 64, 63
1, 322678, Control_c, 0, 64, 62
1, 322680, Note_on_c, 0, 57, 49
1, 322693, Control_c, 0, 64, 62
1, 322708, Control_c, 0, 64, 61
1, 322715, Note_off_c, 0, 56, 48
1, 322723, Control_c, 0, 64, 60
1, 322738, Control_c, 0, 64, 58
1, 322752, Control_c, 0, 64, 57
1, 322767, Control_c, 0, 64, 56
1, 322782, Control_c, 0, 64, 54
1, 322796, Control_c, 0, 64, 53
1, 322811, Control_c, 0, 64, 52
1, 322826, Control_c, 0, 64, 51
1, 322841, Control_c, 0, 64, 49
1, 322856, Control_c, 0, 64, 48
1, 322870, Control_c, 0, 64, 48
1, 322885, Control_c, 0, 64, 47
1, 322900, Control_c, 0, 64, 47
1, 322915, Control_c, 0, 64, 46
1, 323224, Note_on_c, 0, 56, 52
1, 323264, Control_c, 0, 64, 46
1, 323268, Note_off_c, 0, 59, 57
1, 323283, Note_off_c, 0, 57, 62
1, 323368, Control_c, 0, 64, 47
1, 323426, Control_c, 0, 64, 47
1, 323471, Control_c, 0, 64, 48
1, 323516, Control_c, 0, 64, 48
1, 323546, Control_c, 0, 64, 49
1, 323561, Control_c, 0, 64, 49
1, 323619, Control_c, 0, 64, 50
1, 323634, Control_c, 0, 64, 50
1, 323664, Control_c, 0, 64, 51
1, 323725, Note_off_c, 0, 40, 41
1, 323784, Note_on_c, 0, 60, 46
1, 323790, Control_c, 0, 64, 51
1, 323850, Control_c, 0, 64, 52
1, 323885, Note_off_c, 0, 56, 58
1, 324043, Control_c, 0, 64, 52
1, 324047, Note_off_c, 0, 64, 38
1, 324321, Note_on_c, 0, 59, 47
1, 324388, Note_off_c, 0, 60, 53
1, 324868, Note_on_c, 0, 57, 35
1, 324881, Control_c, 0, 64, 52
1, 324904, Note_off_c, 0, 59, 61
1, 325103, Control_c, 0, 64, 51
1, 325388, Note_on_c, 0, 59, 35
1, 325474, Note_off_c, 0, 57, 47
1, 325689, Control_c, 0, 64, 52
1, 325881, Control_c, 0, 64, 51
1, 325926, Note_on_c, 0, 57, 34
1, 325948, Control_c, 0, 64, 51
1, 326007, Control_c, 0, 64, 50
1, 326028, Note_off_c, 0, 59, 48
1, 326036, Control_c, 0, 64, 50
1, 326066, Control_c, 0, 64, 49
1, 326081, Control_c, 0, 64, 49
1, 326110, Control_c, 0, 64, 48
1, 326140, Control_c, 0, 64, 48
1, 326169, Control_c, 0, 64, 47
1, 326318, Control_c, 0, 64, 48
1, 326378, Control_c, 0, 64, 48
1, 326430, Note_on_c, 0, 56, 34
1, 326491, Note_off_c, 0, 57, 59
1, 326659, Control_c, 0, 64, 49
1, 326726, Control_c, 0, 64, 49
1, 326800, Control_c, 0, 64, 50
1, 326830, Control_c, 0, 64, 50
1, 326889, Control_c, 0, 64, 51
1, 326968, Note_on_c, 0, 60, 45
1, 327139, Note_off_c, 0, 56, 42
1, 327245, Control_c, 0, 64, 51
1, 327319, Control_c, 0, 64, 52
1, 327492, Note_on_c, 0, 59, 35
1, 327543, Note_off_c, 0, 60, 57
1, 327712, Control_c, 0, 64, 51
1, 327846, Control_c, 0, 64, 51
1, 327993, Note_on_c, 0, 57, 39
1, 328054, Note_off_c, 0, 59, 42
1, 328112, Control_c, 0, 64, 50
1, 328525, Note_on_c, 0, 59, 39
1, 328604, Note_off_c, 0, 57, 56
1, 329099, Note_on_c, 0, 57, 35
1, 329174, Note_off_c, 0, 59, 40
1, 329628, Note_on_c, 0, 56, 35
1, 329670, Note_off_c, 0, 57, 36
1, 329781, Control_c, 0, 64, 51
1, 329899, Control_c, 0, 64, 51
1, 329958, Control_c, 0, 64, 52
1, 330017, Control_c, 0, 64, 52
1, 330047, Control_c, 0, 64, 53
1, 330092, Control_c, 0, 64, 53
1, 330194, Note_on_c, 0, 59, 26
1, 330292, Note_off_c, 0, 56, 49
1, 330330, Control_c, 0, 64, 54
1, 330515, Control_c, 0, 64, 54
1, 330648, Control_c, 0, 64, 55
1, 330763, Note_on_c, 0, 57, 29
1, 330847, Note_off_c, 0, 59, 38
1, 330944, Control_c, 0, 64, 55
1, 331108, Control_c, 0, 64, 56
1, 331278, Control_c, 0, 64, 56
1, 331323, Control_c, 0, 64, 57
1, 331426, Control_c, 0, 64, 56
1, 331427, Note_on_c, 0, 56, 35
1, 331455, Control_c, 0, 64, 56
1, 331481, Note_off_c, 0, 57, 53
1, 331485, Control_c, 0, 64, 55
1, 331500, Control_c, 0, 64, 55
1, 331559, Control_c, 0, 64, 54
1, 331692, Control_c, 0, 64, 55
1, 331737, Control_c, 0, 64, 55
1, 331766, Control_c, 0, 64, 56
1, 331827, Control_c, 0, 64, 56
1, 331856, Control_c, 0, 64, 57
1, 331871, Control_c, 0, 64, 57
1, 331901, Control_c, 0, 64, 58
1, 331923, Control_c, 0, 64, 58
1, 331937, Control_c, 0, 64, 59
1, 331952, Control_c, 0, 64, 60
1, 331967, Control_c, 0, 64, 60
1, 331982, Control_c, 0, 64, 61
1, 332011, Control_c, 0, 64, 61
1, 332041, Control_c, 0, 64, 62
1, 332086, Control_c, 0, 64, 62
1, 332124, Note_on_c, 0, 72, 34
1, 332160, Control_c, 0, 64, 63
1, 332189, Control_c, 0, 64, 63
1, 332204, Control_c, 0, 64, 64
1, 332234, Control_c, 0, 64, 64
1, 332249, Control_c, 0, 64, 65
1, 332263, Control_c, 0, 64, 65
1, 332278, Control_c, 0, 64, 66
1, 332293, Control_c, 0, 64, 66
1, 332308, Control_c, 0, 64, 67
1, 332323, Control_c, 0, 64, 67
1, 332352, Control_c, 0, 64, 68
1, 332367, Control_c, 0, 64, 68
1, 332381, Note_on_c, 0, 73, 44
1, 332382, Control_c, 0, 64, 69
1, 332391, Note_off_c, 0, 72, 48
1, 332396, Control_c, 0, 64, 71
1, 332411, Control_c, 0, 64, 72
1, 332426, Control_c, 0, 64, 73
1, 332441, Control_c, 0, 64, 74
1, 332456, Control_c, 0, 64, 75
1, 332470, Control_c, 0, 64, 75
1, 332485, Control_c, 0, 64, 76
1, 332492, Note_off_c, 0, 73, 58
1, 332500, Control_c, 0, 64, 76
1, 332545, Control_c, 0, 64, 76
1, 332560, Control_c, 0, 64, 75
1, 332575, Control_c, 0, 64, 73
1, 332590, Control_c, 0, 64, 69
1, 332605, Note_on_c, 0, 73, 47
1, 332605, Control_c, 0, 64, 67
1, 332620, Control_c, 0, 64, 66
1, 332649, Control_c, 0, 64, 66
1, 332672, Control_c, 0, 64, 67
1, 332686, Control_c, 0, 64, 69
1, 332701, Control_c, 0, 64, 71
1, 332716, Control_c, 0, 64, 73
1, 332731, Control_c, 0, 64, 75
1, 332746, Control_c, 0, 64, 76
1, 332760, Control_c, 0, 64, 77
1, 332770, Note_off_c, 0, 73, 53
1, 332775, Control_c, 0, 64, 78
1, 332790, Control_c, 0, 64, 78
1, 332810, Note_on_c, 0, 72, 47
1, 332834, Control_c, 0, 64, 79
1, 332849, Control_c, 0, 64, 79
1, 332884, Note_off_c, 0, 72, 57
1, 333018, Note_on_c, 0, 72, 52
1, 333183, Note_off_c, 0, 72, 57
1, 333225, Note_on_c, 0, 70, 50
1, 333303, Note_off_c, 0, 70, 58
1, 333436, Control_c, 0, 64, 78
1, 333440, Note_on_c, 0, 70, 53
1, 333450, Control_c, 0, 64, 75
1, 333465, Control_c, 0, 64, 70
1, 333468, Note_on_c, 0, 55, 41
1, 333480, Control_c, 0, 64, 66
1, 333485, Note_off_c, 0, 56, 40
1, 333495, Control_c, 0, 64, 62
1, 333509, Control_c, 0, 64, 59
1, 333524, Control_c, 0, 64, 58
1, 333554, Control_c, 0, 64, 59
1, 333569, Control_c, 0, 64, 60
1, 333583, Control_c, 0, 64, 62
1, 333598, Control_c, 0, 64, 64
1, 333613, Control_c, 0, 64, 65
1, 333621, Note_off_c, 0, 70, 56
1, 333628, Control_c, 0, 64, 67
1, 333642, Note_on_c, 0, 68, 45
1, 333642, Control_c, 0, 64, 69
1, 333657, Control_c, 0, 64, 71
1, 333672, Control_c, 0, 64, 73
1, 333687, Control_c, 0, 64, 74
1, 333702, Control_c, 0, 64, 76
1, 333717, Control_c, 0, 64, 77
1, 333731, Control_c, 0, 64, 78
1, 333734, Note_off_c, 0, 68, 60
1, 333746, Control_c, 0, 64, 78
1, 333761, Control_c, 0, 64, 79
1, 333791, Control_c, 0, 64, 79
1, 333821, Control_c, 0, 64, 80
1, 333835, Control_c, 0, 64, 80
1, 333838, Note_on_c, 0, 68, 49
1, 333850, Control_c, 0, 64, 81
1, 333895, Control_c, 0, 64, 81
1, 333924, Control_c, 0, 64, 82
1, 334024, Note_on_c, 0, 73, 55
1, 334037, Note_off_c, 0, 68, 39
1, 334057, Control_c, 0, 64, 82
1, 334107, Note_off_c, 0, 73, 61
1, 334199, Control_c, 0, 64, 81
1, 334202, Note_off_c, 0, 55, 42
1, 334214, Control_c, 0, 64, 80
1, 334229, Control_c, 0, 64, 76
1, 334241, Note_on_c, 0, 73, 49
1, 334244, Control_c, 0, 64, 72
1, 334248, Note_on_c, 0, 53, 42
1, 334259, Control_c, 0, 64, 68
1, 334273, Control_c, 0, 64, 65
1, 334288, Control_c, 0, 64, 62
1, 334303, Control_c, 0, 64, 61
1, 334318, Control_c, 0, 64, 62
1, 334332, Control_c, 0, 64, 62
1, 334347, Control_c, 0, 64, 63
1, 334362, Control_c, 0, 64, 65
1, 334377, Control_c, 0, 64, 67
1, 334392, Control_c, 0, 64, 69
1, 334403, Note_off_c, 0, 73, 53
1, 334407, Control_c, 0, 64, 71
1, 334422, Control_c, 0, 64, 73
1, 334428, Note_on_c, 0, 72, 54
1, 334437, Control_c, 0, 64, 74
1, 334452, Control_c, 0, 64, 75
1, 334466, Control_c, 0, 64, 76
1, 334481, Control_c, 0, 64, 77
1, 334490, Note_off_c, 0, 72, 56
1, 334511, Control_c, 0, 64, 77
1, 334526, Control_c, 0, 64, 78
1, 334599, Control_c, 0, 64, 76
1, 334614, Control_c, 0, 64, 74
1, 334620, Note_on_c, 0, 72, 56
1, 334625, Note_on_c, 0, 56, 53
1, 334629, Control_c, 0, 64, 70
1, 334644, Control_c, 0, 64, 66
1, 334655, Note_off_c, 0, 53, 43
1, 334659, Control_c, 0, 64, 61
1, 334673, Control_c, 0, 64, 57
1, 334688, Control_c, 0, 64, 55
1, 334703, Control_c, 0, 64, 56
1, 334718, Control_c, 0, 64, 56
1, 334733, Control_c, 0, 64, 58
1, 334748, Control_c, 0, 64, 59
1, 334763, Control_c, 0, 64, 61
1, 334776, Note_off_c, 0, 72, 61
1, 334777, Control_c, 0, 64, 63
1, 334792, Control_c, 0, 64, 64
1, 334801, Note_on_c, 0, 70, 51
1, 334807, Control_c, 0, 64, 66
1, 334822, Control_c, 0, 64, 68
1, 334837, Control_c, 0, 64, 69
1, 334851, Control_c, 0, 64, 71
1, 334866, Control_c, 0, 64, 72
1, 334881, Control_c, 0, 64, 73
1, 334900, Note_off_c, 0, 70, 60
1, 334933, Control_c, 0, 64, 72
1, 334948, Control_c, 0, 64, 71
1, 334963, Control_c, 0, 64, 70
1, 334977, Control_c, 0, 64, 69
1, 335008, Note_on_c, 0, 70, 50
1, 335022, Control_c, 0, 64, 69
1, 335037, Control_c, 0, 64, 70
1, 335052, Control_c, 0, 64, 71
1, 335067, Control_c, 0, 64, 73
1, 335082, Control_c, 0, 64, 74
1, 335097, Control_c, 0, 64, 75
1, 335112, Control_c, 0, 64, 76
1, 335126, Control_c, 0, 64, 77
1, 335141, Control_c, 0, 64, 78
1, 335156, Control_c, 0, 64, 78
1, 335171, Control_c, 0, 64, 79
1, 335173, Note_on_c, 0, 75, 62
1, 335186, Control_c, 0, 64, 80
1, 335199, Note_off_c, 0, 70, 33
1, 335201, Control_c, 0, 64, 80
1, 335215, Control_c, 0, 64, 81
1, 335245, Control_c, 0, 64, 81
1, 335258, Note_off_c, 0, 75, 58
1, 335321, Note_off_c, 0, 56, 34
1, 335334, Control_c, 0, 64, 81
1, 335349, Control_c, 0, 64, 78
1, 335363, Control_c, 0, 64, 73
1, 335365, Note_on_c, 0, 75, 54
1, 335378, Control_c, 0, 64, 69
1, 335382, Note_on_c, 0, 55, 47
1, 335393, Control_c, 0, 64, 65
1, 335408, Control_c, 0, 64, 63
1, 335437, Control_c, 0, 64, 63
1, 335452, Control_c, 0, 64, 64
1, 335467, Control_c, 0, 64, 65
1, 335481, Control_c, 0, 64, 67
1, 335496, Control_c, 0, 64, 69
1, 335511, Control_c, 0, 64, 71
1, 335526, Control_c, 0, 64, 73
1, 335541, Control_c, 0, 64, 74
1, 335543, Note_off_c, 0, 75, 54
1, 335544, Note_on_c, 0, 73, 56
1, 335556, Control_c, 0, 64, 75
1, 335571, Control_c, 0, 64, 76
1, 335586, Control_c, 0, 64, 77
1, 335600, Control_c, 0, 64, 78
1, 335608, Note_off_c, 0, 73, 53
1, 335630, Control_c, 0, 64, 78
1, 335711, Control_c, 0, 64, 77
1, 335719, Note_off_c, 0, 55, 51
1, 335726, Note_on_c, 0, 58, 57
1, 335726, Control_c, 0, 64, 75
1, 335735, Note_on_c, 0, 73, 56
1, 335741, Control_c, 0, 64, 71
1, 335755, Control_c, 0, 64, 65
1, 335770, Control_c, 0, 64, 60
1, 335786, Control_c, 0, 64, 57
1, 335801, Control_c, 0, 64, 57
1, 335816, Control_c, 0, 64, 59
1, 335830, Control_c, 0, 64, 62
1, 335845, Control_c, 0, 64, 64
1, 335860, Control_c, 0, 64, 67
1, 335875, Control_c, 0, 64, 69
1, 335886, Note_off_c, 0, 73, 57
1, 335890, Control_c, 0, 64, 72
1, 335894, Note_on_c, 0, 72, 59
1, 335904, Control_c, 0, 64, 74
1, 335919, Control_c, 0, 64, 76
1, 335934, Control_c, 0, 64, 77
1, 335949, Control_c, 0, 64, 78
1, 335963, Control_c, 0, 64, 78
1, 335970, Note_off_c, 0, 72, 61
1, 336037, Control_c, 0, 64, 77
1, 336049, Note_off_c, 0, 58, 56
1, 336052, Control_c, 0, 64, 74
1, 336067, Control_c, 0, 64, 69
1, 336069, Note_on_c, 0, 72, 57
1, 336082, Note_on_c, 0, 56, 49
1, 336082, Control_c, 0, 64, 64
1, 336097, Control_c, 0, 64, 60
1, 336111, Control_c, 0, 64, 59
1, 336126, Control_c, 0, 64, 61
1, 336141, Control_c, 0, 64, 62
1, 336156, Control_c, 0, 64, 65
1, 336170, Control_c, 0, 64, 67
1, 336185, Control_c, 0, 64, 69
1, 336200, Control_c, 0, 64, 72
1, 336215, Control_c, 0, 64, 74
1, 336229, Control_c, 0, 64, 75
1, 336235, Note_off_c, 0, 72, 53
1, 336239, Note_on_c, 0, 77, 56
1, 336244, Control_c, 0, 64, 76
1, 336259, Control_c, 0, 64, 78
1, 336274, Control_c, 0, 64, 79
1, 336289, Control_c, 0, 64, 79
1, 336304, Control_c, 0, 64, 80
1, 336363, Control_c, 0, 64, 79
1, 336378, Control_c, 0, 64, 76
1, 336393, Control_c, 0, 64, 72
1, 336415, Control_c, 0, 64, 67
1, 336420, Note_on_c, 0, 58, 52
1, 336429, Control_c, 0, 64, 63
1, 336432, Note_on_c, 0, 79, 54
1, 336441, Note_off_c, 0, 77, 57
1, 336444, Control_c, 0, 64, 61
1, 336459, Control_c, 0, 64, 62
1, 336461, Note_off_c, 0, 56, 36
1, 336474, Control_c, 0, 64, 63
1, 336489, Control_c, 0, 64, 65
1, 336504, Control_c, 0, 64, 67
1, 336519, Control_c, 0, 64, 70
1, 336533, Control_c, 0, 64, 72
1, 336548, Control_c, 0, 64, 74
1, 336563, Control_c, 0, 64, 75
1, 336578, Control_c, 0, 64, 76
1, 336593, Note_on_c, 0, 80, 66
1, 336593, Control_c, 0, 64, 77
1, 336599, Note_off_c, 0, 79, 53
1, 336608, Control_c, 0, 64, 78
1, 336623, Control_c, 0, 64, 79
1, 336638, Control_c, 0, 64, 79
1, 336712, Control_c, 0, 64, 79
1, 336727, Control_c, 0, 64, 77
1, 336742, Control_c, 0, 64, 74
1, 336757, Control_c, 0, 64, 69
1, 336763, Note_on_c, 0, 60, 51
1, 336769, Note_on_c, 0, 79, 60
1, 336771, Note_off_c, 0, 58, 60
1, 336772, Control_c, 0, 64, 64
1, 336786, Control_c, 0, 64, 57
1, 336791, Note_off_c, 0, 80, 47
1, 336801, Control_c, 0, 64, 53
1, 336816, Control_c, 0, 64, 52
1, 336831, Control_c, 0, 64, 49
1, 336846, Control_c, 0, 64, 46
1, 336860, Control_c, 0, 64, 45
1, 336875, Control_c, 0, 64, 46
1, 336890, Control_c, 0, 64, 48
1, 336905, Control_c, 0, 64, 50
1, 336920, Control_c, 0, 64, 52
1, 336934, Control_c, 0, 64, 55
1, 336937, Note_on_c, 0, 75, 59
1, 336943, Note_off_c, 0, 79, 55
1, 336949, Control_c, 0, 64, 58
1, 336964, Control_c, 0, 64, 61
1, 336978, Control_c, 0, 64, 63
1, 336993, Control_c, 0, 64, 64
1, 337008, Control_c, 0, 64, 65
1, 337023, Control_c, 0, 64, 66
1, 337038, Control_c, 0, 64, 67
1, 337052, Control_c, 0, 64, 68
1, 337067, Control_c, 0, 64, 68
1, 337082, Control_c, 0, 64, 69
1, 337095, Note_on_c, 0, 79, 60
1, 337097, Control_c, 0, 64, 71
1, 337112, Control_c, 0, 64, 72
1, 337127, Control_c, 0, 64, 73
1, 337137, Note_off_c, 0, 75, 61
1, 337142, Control_c, 0, 64, 74
1, 337164, Control_c, 0, 64, 74
1, 337179, Control_c, 0, 64, 75
1, 337193, Control_c, 0, 64, 75
1, 337208, Control_c, 0, 64, 76
1, 337223, Control_c, 0, 64, 76
1, 337238, Control_c, 0, 64, 77
1, 337261, Note_off_c, 0, 79, 62
1, 337264, Note_on_c, 0, 82, 67
1, 337356, Control_c, 0, 64, 76
1, 337371, Control_c, 0, 64, 75
1, 337387, Control_c, 0, 64, 73
1, 337401, Control_c, 0, 64, 71
1, 337416, Control_c, 0, 64, 69
1, 337429, Note_on_c, 0, 80, 68
1, 337431, Control_c, 0, 64, 68
1, 337446, Control_c, 0, 64, 67
1, 337457, Note_off_c, 0, 82, 56
1, 337475, Control_c, 0, 64, 67
1, 337490, Control_c, 0, 64, 68
1, 337505, Control_c, 0, 64, 68
1, 337520, Control_c, 0, 64, 69
1, 337535, Control_c, 0, 64, 71
1, 337550, Control_c, 0, 64, 72
1, 337565, Control_c, 0, 64, 72
1, 337580, Control_c, 0, 64, 73
1, 337587, Note_off_c, 0, 80, 59
1, 337589, Note_on_c, 0, 79, 64
1, 337595, Control_c, 0, 64, 73
1, 337609, Control_c, 0, 64, 74
1, 337624, Control_c, 0, 64, 74
1, 337698, Control_c, 0, 64, 73
1, 337713, Control_c, 0, 64, 72
1, 337728, Control_c, 0, 64, 70
1, 337732, Note_off_c, 0, 79, 54
1, 337743, Control_c, 0, 64, 68
1, 337749, Note_on_c, 0, 80, 64
1, 337757, Control_c, 0, 64, 68
1, 337801, Control_c, 0, 64, 69
1, 337816, Control_c, 0, 64, 70
1, 337831, Control_c, 0, 64, 72
1, 337846, Control_c, 0, 64, 74
1, 337861, Control_c, 0, 64, 74
1, 337875, Control_c, 0, 64, 75
1, 337890, Control_c, 0, 64, 76
1, 337913, Control_c, 0, 64, 77
1, 337919, Note_off_c, 0, 80, 56
1, 337922, Note_on_c, 0, 79, 63
1, 337928, Control_c, 0, 64, 77
1, 337942, Control_c, 0, 64, 78
1, 337957, Control_c, 0, 64, 79
1, 337985, Note_off_c, 0, 79, 58
1, 337991, Note_off_c, 0, 60, 51
1, 338016, Control_c, 0, 64, 78
1, 338031, Control_c, 0, 64, 77
1, 338046, Control_c, 0, 64, 75
1, 338061, Control_c, 0, 64, 74
1, 338072, Note_on_c, 0, 79, 58
1, 338135, Control_c, 0, 64, 75
1, 338150, Control_c, 0, 64, 77
1, 338165, Control_c, 0, 64, 78
1, 338181, Control_c, 0, 64, 79
1, 338196, Control_c, 0, 64, 79
1, 338211, Note_off_c, 0, 79, 62
1, 338211, Control_c, 0, 64, 80
1, 338220, Note_on_c, 0, 77, 66
1, 338281, Note_off_c, 0, 77, 61
1, 338314, Control_c, 0, 64, 79
1, 338365, Note_on_c, 0, 77, 58
1, 338514, Note_on_c, 0, 80, 68
1, 338516, Note_off_c, 0, 77, 56
1, 338605, Note_off_c, 0, 80, 62
1, 338692, Control_c, 0, 64, 78
1, 338707, Control_c, 0, 64, 76
1, 338721, Control_c, 0, 64, 71
1, 338729, Note_on_c, 0, 65, 44
1, 338729, Note_on_c, 0, 80, 70
1, 338736, Control_c, 0, 64, 65
1, 338751, Control_c, 0, 64, 61
1, 338766, Control_c, 0, 64, 59
1, 338781, Control_c, 0, 64, 60
1, 338796, Control_c, 0, 64, 62
1, 338811, Control_c, 0, 64, 65
1, 338826, Control_c, 0, 64, 67
1, 338840, Control_c, 0, 64, 71
1, 338855, Control_c, 0, 64, 74
1, 338870, Control_c, 0, 64, 77
1, 338885, Control_c, 0, 64, 78
1, 338894, Note_on_c, 0, 68, 49
1, 338900, Control_c, 0, 64, 80
1, 338914, Control_c, 0, 64, 81
1, 338929, Control_c, 0, 64, 82
1, 338932, Note_off_c, 0, 68, 48
1, 338944, Control_c, 0, 64, 83
1, 338981, Note_off_c, 0, 65, 33
1, 338989, Control_c, 0, 64, 82
1, 339004, Control_c, 0, 64, 80
1, 339019, Control_c, 0, 64, 77
1, 339034, Control_c, 0, 64, 74
1, 339045, Note_on_c, 0, 68, 53
1, 339048, Control_c, 0, 64, 73
1, 339063, Control_c, 0, 64, 72
1, 339078, Control_c, 0, 64, 73
1, 339093, Control_c, 0, 64, 75
1, 339108, Control_c, 0, 64, 77
1, 339122, Control_c, 0, 64, 79
1, 339137, Control_c, 0, 64, 81
1, 339152, Control_c, 0, 64, 82
1, 339159, Note_off_c, 0, 68, 60
1, 339167, Control_c, 0, 64, 82
1, 339181, Control_c, 0, 64, 83
1, 339182, Note_on_c, 0, 67, 47
1, 339196, Control_c, 0, 64, 83
1, 339223, Note_off_c, 0, 67, 51
1, 339255, Control_c, 0, 64, 82
1, 339270, Control_c, 0, 64, 79
1, 339285, Control_c, 0, 64, 75
1, 339300, Control_c, 0, 64, 71
1, 339315, Control_c, 0, 64, 68
1, 339324, Note_on_c, 0, 67, 58
1, 339326, Note_on_c, 0, 72, 68
1, 339330, Control_c, 0, 64, 68
1, 339330, Note_off_c, 0, 80, 64
1, 339344, Control_c, 0, 64, 68
1, 339359, Control_c, 0, 64, 70
1, 339374, Control_c, 0, 64, 73
1, 339389, Control_c, 0, 64, 76
1, 339411, Control_c, 0, 64, 78
1, 339426, Control_c, 0, 64, 79
1, 339441, Control_c, 0, 64, 80
1, 339444, Note_off_c, 0, 67, 50
1, 339455, Control_c, 0, 64, 81
1, 339470, Control_c, 0, 64, 81
1, 339476, Note_on_c, 0, 65, 52
1, 339485, Control_c, 0, 64, 82
1, 339510, Note_off_c, 0, 65, 53
1, 339529, Control_c, 0, 64, 82
1, 339574, Control_c, 0, 64, 82
1, 339589, Control_c, 0, 64, 79
1, 339604, Control_c, 0, 64, 75
1, 339619, Control_c, 0, 64, 69
1, 339628, Note_on_c, 0, 80, 79
1, 339633, Control_c, 0, 64, 64
1, 339634, Note_on_c, 0, 65, 50
1, 339648, Control_c, 0, 64, 60
1, 339662, Control_c, 0, 64, 58
1, 339692, Control_c, 0, 64, 59
1, 339705, Note_off_c, 0, 72, 61
1, 339706, Control_c, 0, 64, 60
1, 339721, Control_c, 0, 64, 63
1, 339736, Control_c, 0, 64, 67
1, 339751, Control_c, 0, 64, 71
1, 339753, Note_off_c, 0, 65, 55
1, 339766, Control_c, 0, 64, 74
1, 339782, Control_c, 0, 64, 77
1, 339784, Note_on_c, 0, 63, 49
1, 339797, Control_c, 0, 64, 78
1, 339811, Control_c, 0, 64, 80
1, 339824, Note_off_c, 0, 63, 62
1, 339826, Control_c, 0, 64, 82
1, 339841, Control_c, 0, 64, 83
1, 339856, Control_c, 0, 64, 83
1, 339885, Control_c, 0, 64, 84
1, 339915, Control_c, 0, 64, 85
1, 339929, Note_on_c, 0, 63, 56
1, 339930, Control_c, 0, 64, 86
1, 339945, Control_c, 0, 64, 87
1, 339959, Control_c, 0, 64, 88
1, 339974, Control_c, 0, 64, 88
1, 339989, Control_c, 0, 64, 89
1, 340018, Control_c, 0, 64, 89
1, 340030, Note_off_c, 0, 63, 60
1, 340033, Control_c, 0, 64, 90
1, 340048, Control_c, 0, 64, 91
1, 340063, Control_c, 0, 64, 91
1, 340065, Note_on_c, 0, 68, 56
1, 340078, Control_c, 0, 64, 92
1, 340093, Control_c, 0, 64, 92
1, 340108, Control_c, 0, 64, 93
1, 340109, Note_off_c, 0, 68, 58
1, 340122, Control_c, 0, 64, 93
1, 340189, Control_c, 0, 64, 92
1, 340203, Control_c, 0, 64, 89
1, 340218, Control_c, 0, 64, 84
1, 340220, Note_on_c, 0, 72, 70
1, 340230, Note_on_c, 0, 68, 58
1, 340233, Control_c, 0, 64, 78
1, 340248, Control_c, 0, 64, 71
1, 340263, Control_c, 0, 64, 68
1, 340283, Note_off_c, 0, 80, 50
1, 340292, Control_c, 0, 64, 69
1, 340307, Control_c, 0, 64, 71
1, 340322, Control_c, 0, 64, 74
1, 340337, Control_c, 0, 64, 77
1, 340350, Note_off_c, 0, 68, 37
1, 340352, Control_c, 0, 64, 79
1, 340367, Control_c, 0, 64, 81
1, 340376, Note_on_c, 0, 67, 36
1, 340382, Control_c, 0, 64, 83
1, 340396, Control_c, 0, 64, 84
1, 340411, Note_off_c, 0, 67, 50
1, 340411, Control_c, 0, 64, 84
1, 340456, Control_c, 0, 64, 84
1, 340470, Control_c, 0, 64, 81
1, 340485, Control_c, 0, 64, 76
1, 340500, Control_c, 0, 64, 69
1, 340502, Note_on_c, 0, 67, 60
1, 340503, Note_on_c, 0, 75, 69
1, 340515, Control_c, 0, 64, 63
1, 340529, Note_off_c, 0, 72, 55
1, 340529, Control_c, 0, 64, 58
1, 340544, Control_c, 0, 64, 60
1, 340559, Control_c, 0, 64, 63
1, 340575, Control_c, 0, 64, 66
1, 340586, Note_off_c, 0, 67, 55
1, 340590, Control_c, 0, 64, 69
1, 340605, Control_c, 0, 64, 72
1, 340620, Control_c, 0, 64, 76
1, 340634, Control_c, 0, 64, 80
1, 340641, Note_on_c, 0, 65, 54
1, 340649, Control_c, 0, 64, 83
1, 340664, Control_c, 0, 64, 84
1, 340674, Note_off_c, 0, 65, 62
1, 340679, Control_c, 0, 64, 85
1, 340723, Control_c, 0, 64, 83
1, 340738, Control_c, 0, 64, 79
1, 340753, Control_c, 0, 64, 74
1, 340768, Control_c, 0, 64, 69
1, 340770, Note_on_c, 0, 65, 61
1, 340782, Control_c, 0, 64, 66
1, 340797, Control_c, 0, 64, 67
1, 340812, Control_c, 0, 64, 70
1, 340826, Control_c, 0, 64, 74
1, 340841, Control_c, 0, 64, 78
1, 340856, Control_c, 0, 64, 81
1, 340871, Control_c, 0, 64, 83
1, 340886, Control_c, 0, 64, 84
1, 340908, Control_c, 0, 64, 85
1, 340909, Note_on_c, 0, 70, 67
1, 340918, Note_off_c, 0, 65, 30
1, 340923, Control_c, 0, 64, 86
1, 340938, Control_c, 0, 64, 87
1, 340964, Note_off_c, 0, 70, 55
1, 340997, Control_c, 0, 64, 86
1, 341012, Control_c, 0, 64, 82
1, 341026, Control_c, 0, 64, 76
1, 341041, Control_c, 0, 64, 69
1, 341051, Note_on_c, 0, 74, 73
1, 341056, Control_c, 0, 64, 63
1, 341058, Note_off_c, 0, 75, 65
1, 341061, Note_on_c, 0, 70, 58
1, 341071, Control_c, 0, 64, 59
1, 341086, Control_c, 0, 64, 61
1, 341100, Control_c, 0, 64, 64
1, 341115, Control_c, 0, 64, 68
1, 341131, Control_c, 0, 64, 71
1, 341142, Note_off_c, 0, 70, 52
1, 341145, Control_c, 0, 64, 75
1, 341160, Control_c, 0, 64, 79
1, 341175, Control_c, 0, 64, 81
1, 341181, Note_on_c, 0, 68, 60
1, 341190, Control_c, 0, 64, 83
1, 341205, Control_c, 0, 64, 84
1, 341213, Note_off_c, 0, 68, 54
1, 341219, Control_c, 0, 64, 84
1, 341279, Control_c, 0, 64, 83
1, 341294, Control_c, 0, 64, 79
1, 341309, Control_c, 0, 64, 73
1, 341309, Note_on_c, 0, 68, 62
1, 341318, Note_on_c, 0, 75, 77
1, 341324, Control_c, 0, 64, 67
1, 341339, Control_c, 0, 64, 63
1, 341353, Control_c, 0, 64, 62
1, 341356, Note_off_c, 0, 74, 56
1, 341368, Control_c, 0, 64, 64
1, 341383, Control_c, 0, 64, 66
1, 341397, Note_off_c, 0, 68, 61
1, 341398, Control_c, 0, 64, 69
1, 341413, Control_c, 0, 64, 71
1, 341428, Control_c, 0, 64, 74
1, 341443, Control_c, 0, 64, 77
1, 341458, Note_on_c, 0, 67, 57
1, 341458, Control_c, 0, 64, 78
1, 341473, Control_c, 0, 64, 78
1, 341488, Note_off_c, 0, 67, 57
1, 341503, Control_c, 0, 64, 78
1, 341518, Control_c, 0, 64, 76
1, 341532, Control_c, 0, 64, 74
1, 341547, Control_c, 0, 64, 71
1, 341562, Control_c, 0, 64, 70
1, 341581, Note_on_c, 0, 67, 57
1, 341591, Control_c, 0, 64, 72
1, 341606, Control_c, 0, 64, 75
1, 341621, Control_c, 0, 64, 77
1, 341636, Control_c, 0, 64, 79
1, 341658, Control_c, 0, 64, 80
1, 341673, Control_c, 0, 64, 81
1, 341674, Note_off_c, 0, 67, 60
1, 341687, Control_c, 0, 64, 82
1, 341702, Control_c, 0, 64, 82
1, 341717, Note_on_c, 0, 72, 58
1, 341717, Control_c, 0, 64, 83
1, 341791, Control_c, 0, 64, 82
1, 341806, Control_c, 0, 64, 80
1, 341821, Control_c, 0, 64, 76
1, 341824, Note_off_c, 0, 72, 61
1, 341828, Note_off_c, 0, 75, 62
1, 341836, Control_c, 0, 64, 71
1, 341839, Note_on_c, 0, 77, 71
1, 341850, Control_c, 0, 64, 69
1, 341860, Note_on_c, 0, 74, 40
1, 341880, Control_c, 0, 64, 70
1, 341895, Control_c, 0, 64, 72
1, 341909, Control_c, 0, 64, 76
1, 341924, Control_c, 0, 64, 79
1, 341939, Control_c, 0, 64, 81
1, 341953, Note_off_c, 0, 74, 60
1, 341954, Control_c, 0, 64, 82
1, 341969, Control_c, 0, 64, 83
1, 341970, Note_on_c, 0, 75, 54
1, 341983, Control_c, 0, 64, 83
1, 342042, Control_c, 0, 64, 83
1, 342045, Note_off_c, 0, 75, 62
1, 342057, Control_c, 0, 64, 80
1, 342072, Control_c, 0, 64, 74
1, 342087, Control_c, 0, 64, 68
1, 342093, Note_on_c, 0, 74, 53
1, 342099, Note_on_c, 0, 79, 74
1, 342102, Control_c, 0, 64, 63
1, 342104, Note_off_c, 0, 77, 60
1, 342117, Control_c, 0, 64, 61
1, 342132, Control_c, 0, 64, 62
1, 342147, Control_c, 0, 64, 64
1, 342161, Control_c, 0, 64, 66
1, 342177, Control_c, 0, 64, 69
1, 342191, Note_off_c, 0, 74, 61
1, 342191, Control_c, 0, 64, 72
1, 342206, Control_c, 0, 64, 76
1, 342221, Control_c, 0, 64, 79
1, 342226, Note_on_c, 0, 70, 57
1, 342236, Control_c, 0, 64, 81
1, 342251, Control_c, 0, 64, 82
1, 342266, Control_c, 0, 64, 82
1, 342281, Control_c, 0, 64, 83
1, 342296, Control_c, 0, 64, 83
1, 342329, Note_off_c, 0, 70, 57
1, 342347, Note_on_c, 0, 74, 59
1, 342355, Control_c, 0, 64, 84
1, 342370, Control_c, 0, 64, 85
1, 342385, Control_c, 0, 64, 87
1, 342406, Control_c, 0, 64, 89
1, 342421, Control_c, 0, 64, 90
1, 342435, Note_off_c, 0, 74, 59
1, 342436, Control_c, 0, 64, 90
1, 342455, Note_off_c, 0, 79, 59
1, 342468, Note_on_c, 0, 77, 79
1, 342570, Control_c, 0, 64, 89
1, 342585, Control_c, 0, 64, 84
1, 342598, Note_on_c, 0, 75, 64
1, 342599, Control_c, 0, 64, 78
1, 342600, Note_on_c, 0, 79, 81
1, 342603, Note_off_c, 0, 77, 60
1, 342614, Control_c, 0, 64, 72
1, 342629, Control_c, 0, 64, 68
1, 342644, Control_c, 0, 64, 67
1, 342659, Control_c, 0, 64, 68
1, 342673, Control_c, 0, 64, 71
1, 342688, Control_c, 0, 64, 75
1, 342703, Control_c, 0, 64, 80
1, 342709, Note_on_c, 0, 74, 63
1, 342710, Note_off_c, 0, 75, 58
1, 342718, Control_c, 0, 64, 84
1, 342732, Control_c, 0, 64, 86
1, 342768, Note_off_c, 0, 74, 62
1, 342777, Control_c, 0, 64, 86
1, 342792, Control_c, 0, 64, 82
1, 342806, Control_c, 0, 64, 77
1, 342821, Control_c, 0, 64, 72
1, 342836, Control_c, 0, 64, 71
1, 342837, Note_on_c, 0, 75, 75
1, 342866, Control_c, 0, 64, 72
1, 342880, Control_c, 0, 64, 75
1, 342895, Control_c, 0, 64, 79
1, 342910, Control_c, 0, 64, 84
1, 342925, Control_c, 0, 64, 87
1, 342939, Control_c, 0, 64, 88
1, 342942, Note_on_c, 0, 74, 69
1, 342944, Note_off_c, 0, 75, 63
1, 342954, Control_c, 0, 64, 89
1, 342985, Note_off_c, 0, 74, 59
1, 343014, Control_c, 0, 64, 86
1, 343029, Control_c, 0, 64, 81
1, 343044, Control_c, 0, 64, 74
1, 343059, Control_c, 0, 64, 68
1, 343074, Control_c, 0, 64, 64
1, 343076, Note_on_c, 0, 82, 77
1, 343085, Note_off_c, 0, 79, 57
1, 343085, Note_on_c, 0, 74, 65
1, 343088, Control_c, 0, 64, 63
1, 343103, Control_c, 0, 64, 64
1, 343118, Control_c, 0, 64, 66
1, 343133, Control_c, 0, 64, 70
1, 343155, Control_c, 0, 64, 73
1, 343170, Control_c, 0, 64, 77
1, 343172, Note_off_c, 0, 74, 54
1, 343185, Control_c, 0, 64, 80
1, 343200, Control_c, 0, 64, 81
1, 343205, Note_on_c, 0, 72, 60
1, 343215, Control_c, 0, 64, 82
1, 343235, Note_off_c, 0, 72, 58
1, 343259, Control_c, 0, 64, 81
1, 343274, Control_c, 0, 64, 79
1, 343289, Control_c, 0, 64, 74
1, 343303, Control_c, 0, 64, 69
1, 343318, Control_c, 0, 64, 66
1, 343319, Note_on_c, 0, 72, 63
1, 343348, Control_c, 0, 64, 66
1, 343363, Control_c, 0, 64, 68
1, 343378, Control_c, 0, 64, 70
1, 343393, Control_c, 0, 64, 73
1, 343407, Control_c, 0, 64, 78
1, 343413, Note_off_c, 0, 72, 58
1, 343422, Control_c, 0, 64, 80
1, 343432, Note_on_c, 0, 75, 63
1, 343435, Note_on_c, 0, 80, 71
1, 343437, Control_c, 0, 64, 81
1, 343470, Note_off_c, 0, 75, 63
1, 343496, Control_c, 0, 64, 80
1, 343511, Control_c, 0, 64, 78
1, 343524, Note_off_c, 0, 82, 32
1, 343526, Control_c, 0, 64, 73
1, 343541, Control_c, 0, 64, 67
1, 343553, Note_off_c, 0, 80, 62
1, 343554, Note_on_c, 0, 79, 74
1, 343555, Control_c, 0, 64, 62
1, 343565, Note_on_c, 0, 75, 62
1, 343570, Control_c, 0, 64, 58
1, 343585, Control_c, 0, 64, 60
1, 343600, Control_c, 0, 64, 63
1, 343615, Control_c, 0, 64, 65
1, 343629, Control_c, 0, 64, 69
1, 343644, Control_c, 0, 64, 73
1, 343657, Note_off_c, 0, 75, 57
1, 343659, Control_c, 0, 64, 77
1, 343674, Control_c, 0, 64, 79
1, 343676, Note_on_c, 0, 73, 63
1, 343710, Note_off_c, 0, 73, 59
1, 343733, Control_c, 0, 64, 77
1, 343747, Control_c, 0, 64, 74
1, 343763, Control_c, 0, 64, 70
1, 343778, Control_c, 0, 64, 67
1, 343793, Control_c, 0, 64, 68
1, 343796, Note_on_c, 0, 73, 62
1, 343808, Control_c, 0, 64, 69
1, 343823, Control_c, 0, 64, 71
1, 343837, Control_c, 0, 64, 73
1, 343852, Control_c, 0, 64, 76
1, 343858, Note_off_c, 0, 73, 57
1, 343867, Control_c, 0, 64, 78
1, 343882, Control_c, 0, 64, 79
1, 343903, Note_off_c, 0, 79, 58
1, 343905, Control_c, 0, 64, 81
1, 343911, Note_on_c, 0, 72, 58
1, 343911, Note_on_c, 0, 80, 75
1, 343919, Control_c, 0, 64, 81
1, 343954, Note_off_c, 0, 72, 63
1, 343978, Control_c, 0, 64, 79
1, 343993, Control_c, 0, 64, 75
1, 344008, Control_c, 0, 64, 70
1, 344023, Control_c, 0, 64, 64
1, 344025, Note_off_c, 0, 80, 64
1, 344035, Note_on_c, 0, 75, 71
1, 344038, Control_c, 0, 64, 63
1, 344039, Note_on_c, 0, 72, 64
1, 344052, Control_c, 0, 64, 63
1, 344067, Control_c, 0, 64, 65
1, 344082, Control_c, 0, 64, 67
1, 344084, Note_off_c, 0, 72, 58
1, 344097, Control_c, 0, 64, 70
1, 344112, Control_c, 0, 64, 73
1, 344125, Control_c, 0, 64, 75
1, 344138, Note_on_c, 0, 70, 68
1, 344140, Control_c, 0, 64, 77
1, 344155, Control_c, 0, 64, 78
1, 344182, Note_off_c, 0, 70, 53
1, 344229, Control_c, 0, 64, 76
1, 344243, Control_c, 0, 64, 72
1, 344258, Control_c, 0, 64, 67
1, 344273, Control_c, 0, 64, 59
1, 344275, Note_on_c, 0, 70, 75
1, 344288, Control_c, 0, 64, 54
1, 344303, Control_c, 0, 64, 55
1, 344317, Control_c, 0, 64, 57
1, 344332, Control_c, 0, 64, 60
1, 344347, Control_c, 0, 64, 63
1, 344362, Control_c, 0, 64, 65
1, 344376, Note_off_c, 0, 75, 60
1, 344376, Control_c, 0, 64, 67
1, 344385, Note_on_c, 0, 77, 68
1, 344391, Control_c, 0, 64, 69
1, 344406, Control_c, 0, 64, 71
1, 344421, Control_c, 0, 64, 72
1, 344433, Note_off_c, 0, 77, 59
1, 344436, Control_c, 0, 64, 73
1, 344481, Control_c, 0, 64, 72
1, 344495, Control_c, 0, 64, 69
1, 344500, Note_off_c, 0, 70, 61
1, 344508, Note_on_c, 0, 77, 66
1, 344510, Control_c, 0, 64, 65
1, 344511, Note_on_c, 0, 68, 67
1, 344525, Control_c, 0, 64, 60
1, 344540, Control_c, 0, 64, 53
1, 344555, Control_c, 0, 64, 46
1, 344570, Control_c, 0, 64, 44
1, 344600, Control_c, 0, 64, 45
1, 344615, Control_c, 0, 64, 46
1, 344630, Control_c, 0, 64, 48
1, 344651, Note_on_c, 0, 72, 60
1, 344652, Control_c, 0, 64, 50
1, 344662, Note_off_c, 0, 77, 59
1, 344703, Note_off_c, 0, 72, 60
1, 344740, Control_c, 0, 64, 52
1, 344755, Control_c, 0, 64, 56
1, 344769, Note_on_c, 0, 72, 64
1, 344770, Control_c, 0, 64, 61
1, 344785, Control_c, 0, 64, 65
1, 344800, Control_c, 0, 64, 68
1, 344814, Control_c, 0, 64, 71
1, 344829, Control_c, 0, 64, 74
1, 344844, Control_c, 0, 64, 76
1, 344859, Control_c, 0, 64, 78
1, 344874, Control_c, 0, 64, 79
1, 344878, Note_on_c, 0, 70, 70
1, 344889, Control_c, 0, 64, 79
1, 344897, Note_off_c, 0, 68, 47
1, 344904, Control_c, 0, 64, 80
1, 344916, Note_off_c, 0, 70, 58
1, 344919, Control_c, 0, 64, 80
1, 344963, Control_c, 0, 64, 79
1, 344978, Control_c, 0, 64, 76
1, 344993, Control_c, 0, 64, 72
1, 345004, Note_on_c, 0, 73, 74
1, 345008, Control_c, 0, 64, 66
1, 345013, Note_on_c, 0, 70, 69
1, 345014, Note_off_c, 0, 72, 55
1, 345023, Control_c, 0, 64, 62
1, 345038, Control_c, 0, 64, 61
1, 345053, Control_c, 0, 64, 63
1, 345067, Control_c, 0, 64, 66
1, 345082, Control_c, 0, 64, 69
1, 345084, Note_off_c, 0, 70, 62
1, 345097, Control_c, 0, 64, 73
1, 345111, Control_c, 0, 64, 76
1, 345120, Note_on_c, 0, 68, 72
1, 345126, Control_c, 0, 64, 79
1, 345141, Control_c, 0, 64, 81
1, 345156, Control_c, 0, 64, 81
1, 345169, Note_off_c, 0, 68, 60
1, 345171, Control_c, 0, 64, 82
1, 345215, Note_off_c, 0, 73, 60
1, 345215, Control_c, 0, 64, 80
1, 345229, Note_on_c, 0, 72, 82
1, 345230, Control_c, 0, 64, 75
1, 345237, Note_on_c, 0, 68, 76
1, 345245, Control_c, 0, 64, 69
1, 345260, Control_c, 0, 64, 62
1, 345274, Control_c, 0, 64, 57
1, 345289, Control_c, 0, 64, 59
1, 345304, Note_off_c, 0, 68, 63
1, 345304, Control_c, 0, 64, 64
1, 345318, Control_c, 0, 64, 69
1, 345333, Control_c, 0, 64, 73
1, 345348, Note_on_c, 0, 67, 67
1, 345348, Control_c, 0, 64, 76
1, 345364, Control_c, 0, 64, 79
1, 345379, Control_c, 0, 64, 80
1, 345402, Control_c, 0, 64, 80
1, 345403, Note_off_c, 0, 67, 60
1, 345446, Control_c, 0, 64, 79
1, 345461, Control_c, 0, 64, 75
1, 345476, Control_c, 0, 64, 69
1, 345483, Note_on_c, 0, 67, 63
1, 345489, Note_on_c, 0, 75, 87
1, 345491, Control_c, 0, 64, 61
1, 345497, Note_off_c, 0, 72, 59
1, 345505, Control_c, 0, 64, 43
1, 345520, Control_c, 0, 64, 35
1, 345535, Control_c, 0, 64, 42
1, 345549, Control_c, 0, 64, 54
1, 345564, Control_c, 0, 64, 63
1, 345579, Control_c, 0, 64, 66
1, 345594, Control_c, 0, 64, 70
1, 345601, Note_off_c, 0, 67, 54
1, 345609, Control_c, 0, 64, 73
1, 345610, Note_on_c, 0, 70, 72
1, 345623, Control_c, 0, 64, 76
1, 345638, Control_c, 0, 64, 77
1, 345647, Note_off_c, 0, 70, 62
1, 345653, Control_c, 0, 64, 78
1, 345683, Control_c, 0, 64, 77
1, 345697, Control_c, 0, 64, 74
1, 345712, Control_c, 0, 64, 69
1, 345727, Control_c, 0, 64, 62
1, 345733, Note_on_c, 0, 70, 71
1, 345741, Control_c, 0, 64, 54
1, 345756, Control_c, 0, 64, 55
1, 345771, Control_c, 0, 64, 59
1, 345786, Control_c, 0, 64, 63
1, 345801, Control_c, 0, 64, 66
1, 345816, Control_c, 0, 64, 69
1, 345831, Control_c, 0, 64, 73
1, 345839, Note_on_c, 0, 73, 76
1, 345846, Control_c, 0, 64, 76
1, 345861, Control_c, 0, 64, 78
1, 345876, Control_c, 0, 64, 79
1, 345882, Note_off_c, 0, 75, 63
1, 345890, Control_c, 0, 64, 79
1, 345894, Note_off_c, 0, 73, 64
1, 345934, Note_off_c, 0, 70, 54
1, 345934, Control_c, 0, 64, 78
1, 345949, Control_c, 0, 64, 73
1, 345957, Note_on_c, 0, 73, 78
1, 345959, Note_on_c, 0, 65, 66
1, 345964, Control_c, 0, 64, 65
1, 345979, Control_c, 0, 64, 45
1, 345994, Control_c, 0, 64, 30
1, 346008, Control_c, 0, 64, 35
1, 346023, Control_c, 0, 64, 50
1, 346038, Control_c, 0, 64, 62
1, 346053, Control_c, 0, 64, 67
1, 346068, Control_c, 0, 64, 71
1, 346072, Note_on_c, 0, 72, 81
1, 346082, Control_c, 0, 64, 75
1, 346088, Note_off_c, 0, 73, 58
1, 346097, Control_c, 0, 64, 77
1, 346112, Control_c, 0, 64, 78
1, 346123, Note_off_c, 0, 72, 65
1, 346180, Control_c, 0, 64, 74
1, 346181, Note_off_c, 0, 65, 63
1, 346193, Note_on_c, 0, 67, 69
1, 346195, Control_c, 0, 64, 67
1, 346201, Note_on_c, 0, 72, 80
1, 346209, Control_c, 0, 64, 53
1, 346224, Control_c, 0, 64, 0
1, 346269, Control_c, 0, 64, 44
1, 346284, Control_c, 0, 64, 62
1, 346299, Control_c, 0, 64, 67
1, 346308, Note_off_c, 0, 72, 61
1, 346314, Control_c, 0, 64, 71
1, 346318, Note_on_c, 0, 70, 81
1, 346328, Control_c, 0, 64, 74
1, 346343, Control_c, 0, 64, 77
1, 346358, Control_c, 0, 64, 78
1, 346372, Note_off_c, 0, 70, 64
1, 346386, Control_c, 0, 64, 77
1, 346401, Control_c, 0, 64, 73
1, 346416, Control_c, 0, 64, 67
1, 346431, Control_c, 0, 64, 60
1, 346434, Note_on_c, 0, 70, 78
1, 346445, Control_c, 0, 64, 58
1, 346460, Control_c, 0, 64, 62
1, 346475, Control_c, 0, 64, 66
1, 346490, Control_c, 0, 64, 69
1, 346505, Control_c, 0, 64, 73
1, 346519, Control_c, 0, 64, 76
1, 346531, Note_off_c, 0, 70, 54
1, 346534, Control_c, 0, 64, 78
1, 346535, Note_on_c, 0, 82, 78
1, 346549, Control_c, 0, 64, 80
1, 346564, Control_c, 0, 64, 82
1, 346579, Control_c, 0, 64, 83
1, 346588, Note_off_c, 0, 82, 63
1, 346594, Control_c, 0, 64, 83
1, 346624, Control_c, 0, 64, 80
1, 346638, Control_c, 0, 64, 72
1, 346648, Note_on_c, 0, 82, 82
1, 346652, Note_off_c, 0, 67, 60
1, 346653, Control_c, 0, 64, 48
1, 346657, Note_on_c, 0, 72, 72
1, 346668, Control_c, 0, 64, 0
1, 346727, Control_c, 0, 64, 63
1, 346742, Control_c, 0, 64, 72
1, 346756, Control_c, 0, 64, 79
1, 346766, Note_on_c, 0, 80, 90
1, 346771, Control_c, 0, 64, 83
1, 346786, Control_c, 0, 64, 84
1, 346794, Note_off_c, 0, 82, 63
1, 346801, Control_c, 0, 64, 85
1, 346816, Control_c, 0, 64, 86
1, 346830, Control_c, 0, 64, 86
1, 346833, Note_off_c, 0, 80, 64
1, 346868, Note_off_c, 0, 72, 63
1, 346877, Note_on_c, 0, 80, 82
1, 346880, Note_on_c, 0, 73, 75
1, 346897, Control_c, 0, 64, 87
1, 346936, Note_off_c, 0, 73, 59
1, 346957, Control_c, 0, 64, 87
1, 346987, Control_c, 0, 64, 88
1, 346998, Note_on_c, 0, 79, 85
1, 347002, Control_c, 0, 64, 88
1, 347017, Control_c, 0, 64, 89
1, 347030, Note_off_c, 0, 80, 60
1, 347047, Control_c, 0, 64, 89
1, 347053, Note_off_c, 0, 79, 62
1, 347076, Control_c, 0, 64, 90
1, 347106, Control_c, 0, 64, 89
1, 347120, Control_c, 0, 64, 87
1, 347135, Control_c, 0, 64, 79
1, 347143, Note_on_c, 0, 79, 85
1, 347149, Note_on_c, 0, 60, 63
1, 347149, Note_on_c, 0, 75, 74
1, 347150, Control_c, 0, 64, 69
1, 347165, Control_c, 0, 64, 50
1, 347180, Control_c, 0, 64, 0
1, 347224, Control_c, 0, 64, 32
1, 347239, Control_c, 0, 64, 64
1, 347254, Control_c, 0, 64, 71
1, 347262, Note_on_c, 0, 61, 67
1, 347268, Note_off_c, 0, 60, 51
1, 347268, Control_c, 0, 64, 78
1, 347283, Control_c, 0, 64, 84
1, 347298, Control_c, 0, 64, 87
1, 347302, Note_off_c, 0, 61, 58
1, 347312, Control_c, 0, 64, 88
1, 347342, Control_c, 0, 64, 86
1, 347357, Control_c, 0, 64, 82
1, 347372, Control_c, 0, 64, 78
1, 347382, Note_on_c, 0, 77, 80
1, 347383, Note_off_c, 0, 79, 59
1, 347384, Note_on_c, 0, 61, 73
1, 347387, Control_c, 0, 64, 75
1, 347407, Note_off_c, 0, 75, 31
1, 347417, Control_c, 0, 64, 77
1, 347432, Control_c, 0, 64, 81
1, 347432, Control_c, 0, 67, 125
1, 347447, Control_c, 0, 64, 86
1, 347447, Control_c, 0, 67, 121
1, 347460, Note_off_c, 0, 61, 58
1, 347461, Control_c, 0, 64, 91
1, 347461, Control_c, 0, 67, 114
1, 347476, Control_c, 0, 64, 93
1, 347476, Control_c, 0, 67, 108
1, 347490, Note_on_c, 0, 60, 72
1, 347491, Control_c, 0, 64, 95
1, 347491, Control_c, 0, 67, 100
1, 347496, Note_on_c, 0, 79, 81
1, 347505, Control_c, 0, 64, 96
1, 347505, Control_c, 0, 67, 94
1, 347520, Control_c, 0, 64, 97
1, 347520, Control_c, 0, 67, 89
1, 347535, Control_c, 0, 67, 83
1, 347539, Note_off_c, 0, 60, 59
1, 347542, Note_off_c, 0, 77, 47
1, 347550, Control_c, 0, 67, 79
1, 347565, Control_c, 0, 67, 75
1, 347580, Control_c, 0, 64, 93
1, 347580, Control_c, 0, 67, 71
1, 347594, Control_c, 0, 64, 86
1, 347594, Control_c, 0, 67, 70
1, 347601, Note_on_c, 0, 80, 88
1, 347609, Control_c, 0, 64, 76
1, 347609, Control_c, 0, 67, 70
1, 347610, Note_on_c, 0, 65, 67
1, 347618, Note_on_c, 0, 60, 71
1, 347624, Control_c, 0, 64, 70
1, 347640, Note_off_c, 0, 79, 59
1, 347646, Control_c, 0, 64, 68
1, 347661, Control_c, 0, 64, 70
1, 347661, Control_c, 0, 67, 69
1, 347676, Control_c, 0, 64, 74
1, 347676, Control_c, 0, 67, 69
1, 347691, Control_c, 0, 64, 81
1, 347691, Control_c, 0, 67, 68
1, 347706, Control_c, 0, 64, 87
1, 347720, Control_c, 0, 64, 92
1, 347729, Note_off_c, 0, 80, 63
1, 347735, Note_on_c, 0, 58, 72
1, 347735, Note_off_c, 0, 65, 38
1, 347735, Control_c, 0, 64, 94
1, 347750, Control_c, 0, 64, 95
1, 347761, Note_off_c, 0, 60, 53
1, 347776, Note_off_c, 0, 58, 59
1, 347810, Control_c, 0, 64, 91
1, 347825, Control_c, 0, 64, 83
1, 347840, Control_c, 0, 64, 73
1, 347846, Note_on_c, 0, 79, 83
1, 347850, Note_on_c, 0, 58, 73
1, 347853, Note_on_c, 0, 73, 67
1, 347855, Control_c, 0, 64, 65
1, 347870, Control_c, 0, 64, 60
1, 347885, Control_c, 0, 64, 62
1, 347900, Control_c, 0, 64, 67
1, 347912, Note_off_c, 0, 58, 60
1, 347915, Control_c, 0, 64, 74
1, 347915, Control_c, 0, 67, 68
1, 347929, Control_c, 0, 64, 81
1, 347944, Control_c, 0, 64, 86
1, 347956, Note_on_c, 0, 56, 72
1, 347959, Control_c, 0, 64, 87
1, 347959, Control_c, 0, 67, 67
1, 347999, Note_off_c, 0, 56, 59
1, 348004, Control_c, 0, 64, 84
1, 348018, Control_c, 0, 64, 78
1, 348033, Control_c, 0, 64, 72
1, 348048, Control_c, 0, 64, 67
1, 348063, Control_c, 0, 64, 66
1, 348067, Note_on_c, 0, 56, 68
1, 348074, Note_on_c, 0, 77, 80
1, 348078, Control_c, 0, 64, 69
1, 348092, Control_c, 0, 64, 76
1, 348092, Control_c, 0, 67, 67
1, 348093, Note_off_c, 0, 79, 48
1, 348097, Note_off_c, 0, 73, 53
1, 348107, Control_c, 0, 64, 83
1, 348122, Control_c, 0, 64, 89
1, 348122, Control_c, 0, 67, 66
1, 348136, Control_c, 0, 64, 92
1, 348136, Control_c, 0, 67, 66
1, 348140, Note_off_c, 0, 56, 59
1, 348151, Control_c, 0, 64, 93
1, 348151, Control_c, 0, 67, 65
1, 348166, Control_c, 0, 64, 93
1, 348166, Control_c, 0, 67, 64
1, 348174, Note_on_c, 0, 61, 80
1, 348181, Control_c, 0, 64, 94
1, 348181, Control_c, 0, 67, 64
1, 348188, Note_on_c, 0, 79, 83
1, 348203, Note_off_c, 0, 77, 53
1, 348225, Note_off_c, 0, 61, 63
1, 348240, Control_c, 0, 64, 91
1, 348255, Control_c, 0, 64, 83
1, 348270, Control_c, 0, 64, 74
1, 348284, Control_c, 0, 64, 65
1, 348291, Note_on_c, 0, 80, 89
1, 348293, Note_on_c, 0, 61, 75
1, 348293, Note_off_c, 0, 79, 55
1, 348299, Control_c, 0, 64, 63
1, 348299, Control_c, 0, 67, 64
1, 348301, Note_on_c, 0, 65, 66
1, 348314, Control_c, 0, 64, 65
1, 348329, Control_c, 0, 64, 70
1, 348344, Note_off_c, 0, 65, 58
1, 348344, Control_c, 0, 64, 76
1, 348359, Control_c, 0, 64, 83
1, 348367, Note_off_c, 0, 61, 62
1, 348374, Control_c, 0, 64, 88
1, 348396, Control_c, 0, 64, 91
1, 348411, Control_c, 0, 64, 93
1, 348415, Note_on_c, 0, 60, 71
1, 348425, Control_c, 0, 64, 94
1, 348440, Note_off_c, 0, 80, 62
1, 348440, Control_c, 0, 64, 95
1, 348463, Note_off_c, 0, 60, 61
1, 348470, Control_c, 0, 67, 65
1, 348485, Control_c, 0, 64, 93
1, 348499, Control_c, 0, 64, 86
1, 348514, Control_c, 0, 64, 76
1, 348514, Control_c, 0, 67, 66
1, 348529, Control_c, 0, 64, 66
1, 348529, Control_c, 0, 67, 66
1, 348531, Note_on_c, 0, 79, 89
1, 348535, Note_on_c, 0, 60, 71
1, 348535, Note_on_c, 0, 68, 84
1, 348544, Control_c, 0, 64, 53
1, 348559, Control_c, 0, 64, 51
1, 348574, Control_c, 0, 64, 63
1, 348589, Control_c, 0, 64, 69
1, 348594, Note_off_c, 0, 60, 60
1, 348604, Control_c, 0, 64, 75
1, 348619, Control_c, 0, 64, 82
1, 348633, Control_c, 0, 64, 87
1, 348648, Note_on_c, 0, 58, 69
1, 348648, Control_c, 0, 64, 89
1, 348663, Control_c, 0, 64, 89
1, 348691, Note_off_c, 0, 58, 57
1, 348693, Control_c, 0, 64, 87
1, 348707, Control_c, 0, 64, 82
1, 348722, Control_c, 0, 64, 74
1, 348737, Control_c, 0, 64, 68
1, 348751, Note_on_c, 0, 77, 80
1, 348752, Control_c, 0, 64, 66
1, 348755, Note_on_c, 0, 58, 69
1, 348767, Control_c, 0, 64, 71
1, 348782, Control_c, 0, 64, 78
1, 348791, Note_off_c, 0, 79, 56
1, 348795, Note_off_c, 0, 68, 62
1, 348797, Control_c, 0, 64, 87
1, 348812, Control_c, 0, 64, 93
1, 348827, Control_c, 0, 64, 96
1, 348841, Control_c, 0, 64, 98
1, 348841, Control_c, 0, 67, 66
1, 348856, Control_c, 0, 64, 99
1, 348860, Note_on_c, 0, 63, 78
1, 348877, Note_off_c, 0, 58, 51
1, 348901, Control_c, 0, 64, 97
1, 348902, Note_off_c, 0, 63, 63
1, 348915, Control_c, 0, 64, 92
1, 348930, Control_c, 0, 64, 82
1, 348945, Control_c, 0, 64, 71
1, 348959, Control_c, 0, 64, 62
1, 348959, Control_c, 0, 67, 66
1, 348967, Note_on_c, 0, 63, 81
1, 348970, Note_on_c, 0, 75, 82
1, 348974, Control_c, 0, 64, 61
1, 348977, Note_on_c, 0, 67, 78
1, 348989, Control_c, 0, 64, 66
1, 349004, Control_c, 0, 64, 73
1, 349019, Control_c, 0, 64, 81
1, 349023, Note_off_c, 0, 77, 58
1, 349029, Note_off_c, 0, 63, 64
1, 349033, Control_c, 0, 64, 89
1, 349048, Control_c, 0, 64, 94
1, 349063, Control_c, 0, 64, 97
1, 349077, Note_off_c, 0, 67, 59
1, 349078, Control_c, 0, 64, 99
1, 349079, Note_on_c, 0, 61, 77
1, 349092, Control_c, 0, 64, 100
1, 349122, Control_c, 0, 67, 67
1, 349125, Note_off_c, 0, 61, 61
1, 349145, Control_c, 0, 64, 95
1, 349160, Control_c, 0, 64, 84
1, 349160, Control_c, 0, 67, 67
1, 349174, Control_c, 0, 64, 71
1, 349174, Control_c, 0, 67, 68
1, 349189, Control_c, 0, 64, 58
1, 349195, Note_on_c, 0, 61, 75
1, 349199, Note_on_c, 0, 68, 86
1, 349204, Control_c, 0, 64, 27
1, 349219, Control_c, 0, 64, 49
1, 349219, Control_c, 0, 67, 68
1, 349234, Control_c, 0, 64, 64
1, 349248, Control_c, 0, 64, 73
1, 349256, Note_off_c, 0, 61, 63
1, 349263, Control_c, 0, 64, 80
1, 349278, Control_c, 0, 64, 87
1, 349292, Control_c, 0, 64, 90
1, 349292, Control_c, 0, 67, 68
1, 349307, Note_on_c, 0, 60, 78
1, 349307, Control_c, 0, 64, 92
1, 349322, Control_c, 0, 64, 93
1, 349337, Control_c, 0, 64, 94
1, 349352, Control_c, 0, 67, 67
1, 349368, Control_c, 0, 67, 67
1, 349370, Note_off_c, 0, 60, 59
1, 349397, Control_c, 0, 67, 66
1, 349415, Note_off_c, 0, 68, 62
1, 349421, Note_on_c, 0, 77, 87
1, 349424, Note_off_c, 0, 75, 51
1, 349427, Control_c, 0, 67, 66
1, 349433, Note_on_c, 0, 60, 75
1, 349456, Control_c, 0, 67, 65
1, 349471, Control_c, 0, 67, 65
1, 349486, Control_c, 0, 67, 64
1, 349507, Note_off_c, 0, 60, 60
1, 349516, Control_c, 0, 67, 64
1, 349524, Note_on_c, 0, 65, 83
1, 349560, Control_c, 0, 67, 63
1, 349620, Control_c, 0, 64, 93
1, 349620, Note_off_c, 0, 65, 43
1, 349623, Note_on_c, 0, 67, 81
1, 349629, Note_on_c, 0, 75, 85
1, 349632, Note_on_c, 0, 70, 88
1, 349635, Control_c, 0, 64, 87
1, 349649, Control_c, 0, 64, 78
1, 349660, Note_off_c, 0, 77, 53
1, 349664, Control_c, 0, 64, 69
1, 349679, Control_c, 0, 64, 64
1, 349694, Control_c, 0, 64, 65
1, 349708, Control_c, 0, 64, 69
1, 349718, Note_off_c, 0, 67, 58
1, 349723, Control_c, 0, 64, 75
1, 349723, Control_c, 0, 67, 62
1, 349731, Note_on_c, 0, 68, 85
1, 349738, Control_c, 0, 64, 83
1, 349738, Control_c, 0, 67, 62
1, 349753, Control_c, 0, 64, 88
1, 349753, Control_c, 0, 67, 60
1, 349768, Control_c, 0, 64, 90
1, 349768, Control_c, 0, 67, 55
1, 349782, Control_c, 0, 67, 48
1, 349797, Control_c, 0, 67, 42
1, 349812, Control_c, 0, 64, 87
1, 349812, Control_c, 0, 67, 37
1, 349818, Note_off_c, 0, 68, 62
1, 349825, Note_off_c, 0, 70, 61
1, 349827, Control_c, 0, 64, 79
1, 349827, Control_c, 0, 67, 34
1, 349842, Control_c, 0, 64, 69
1, 349842, Control_c, 0, 67, 33
1, 349849, Note_on_c, 0, 72, 91
1, 349850, Note_on_c, 0, 67, 76
1, 349856, Control_c, 0, 64, 49
1, 349871, Control_c, 0, 64, 0
1, 349871, Control_c, 0, 67, 32
1, 349894, Control_c, 0, 67, 31
1, 349909, Control_c, 0, 67, 30
1, 349923, Control_c, 0, 64, 64
1, 349923, Control_c, 0, 67, 29
1, 349938, Control_c, 0, 64, 71
1, 349953, Control_c, 0, 64, 77
1, 349958, Note_off_c, 0, 67, 60
1, 349965, Note_on_c, 0, 63, 83
1, 349968, Control_c, 0, 64, 82
1, 349983, Control_c, 0, 64, 84
1, 349983, Control_c, 0, 67, 28
1, 349997, Control_c, 0, 64, 86
1, 350012, Control_c, 0, 64, 87
1, 350012, Control_c, 0, 67, 28
1, 350027, Control_c, 0, 64, 88
1, 350027, Control_c, 0, 67, 27
1, 350073, Note_on_c, 0, 67, 80
1, 350077, Note_off_c, 0, 63, 64
1, 350084, Note_on_c, 0, 73, 85
1, 350098, Note_off_c, 0, 72, 46
1, 350101, Control_c, 0, 67, 27
1, 350144, Control_c, 0, 67, 26
1, 350150, Note_off_c, 0, 67, 57
1, 350163, Note_off_c, 0, 75, 59
1, 350175, Control_c, 0, 64, 89
1, 350177, Note_on_c, 0, 70, 92
1, 350190, Control_c, 0, 64, 89
1, 350203, Note_off_c, 0, 73, 63
1, 350205, Control_c, 0, 64, 90
1, 350219, Control_c, 0, 64, 92
1, 350234, Control_c, 0, 64, 92
1, 350260, Note_off_c, 0, 70, 64
1, 350281, Note_on_c, 0, 72, 89
1, 350283, Note_on_c, 0, 68, 84
1, 350293, Control_c, 0, 64, 89
1, 350293, Control_c, 0, 67, 27
1, 350308, Control_c, 0, 64, 81
1, 350308, Control_c, 0, 67, 27
1, 350323, Control_c, 0, 64, 71
1, 350338, Control_c, 0, 64, 63
1, 350353, Control_c, 0, 64, 64
1, 350368, Control_c, 0, 64, 68
1, 350383, Control_c, 0, 64, 76
1, 350386, Note_on_c, 0, 67, 77
1, 350395, Note_off_c, 0, 68, 49
1, 350398, Control_c, 0, 64, 85
1, 350412, Control_c, 0, 64, 88
1, 350427, Control_c, 0, 67, 28
1, 350442, Control_c, 0, 64, 87
1, 350442, Control_c, 0, 67, 28
1, 350454, Note_off_c, 0, 67, 61
1, 350457, Control_c, 0, 64, 82
1, 350472, Control_c, 0, 64, 73
1, 350486, Control_c, 0, 64, 59
1, 350494, Note_on_c, 0, 77, 95
1, 350501, Control_c, 0, 64, 38
1, 350502, Note_on_c, 0, 68, 85
1, 350516, Control_c, 0, 64, 46
1, 350520, Note_off_c, 0, 72, 59
1, 350530, Control_c, 0, 64, 61
1, 350545, Control_c, 0, 64, 69
1, 350560, Control_c, 0, 64, 77
1, 350575, Control_c, 0, 64, 88
1, 350576, Note_off_c, 0, 68, 62
1, 350590, Control_c, 0, 64, 93
1, 350604, Control_c, 0, 64, 95
1, 350606, Note_on_c, 0, 67, 79
1, 350657, Control_c, 0, 64, 90
1, 350658, Note_off_c, 0, 67, 60
1, 350672, Control_c, 0, 64, 83
1, 350686, Control_c, 0, 64, 74
1, 350701, Control_c, 0, 64, 69
1, 350701, Control_c, 0, 67, 27
1, 350710, Note_on_c, 0, 79, 90
1, 350716, Control_c, 0, 64, 68
1, 350716, Control_c, 0, 67, 27
1, 350717, Note_on_c, 0, 75, 91
1, 350719, Note_on_c, 0, 67, 87
1, 350731, Control_c, 0, 64, 72
1, 350731, Control_c, 0, 67, 26
1, 350738, Note_off_c, 0, 77, 50
1, 350745, Control_c, 0, 64, 80
1, 350745, Control_c, 0, 67, 22
1, 350760, Control_c, 0, 64, 90
1, 350760, Control_c, 0, 67, 13
1, 350773, Note_off_c, 0, 67, 61
1, 350775, Control_c, 0, 64, 98
1, 350775, Control_c, 0, 67, 0
1, 350790, Control_c, 0, 64, 99
1, 350805, Control_c, 0, 64, 100
1, 350816, Note_on_c, 0, 65, 83
1, 350819, Control_c, 0, 64, 100
1, 350849, Control_c, 0, 64, 98
1, 350857, Note_off_c, 0, 65, 62
1, 350864, Control_c, 0, 64, 88
1, 350878, Note_off_c, 0, 79, 60
1, 350879, Control_c, 0, 64, 76
1, 350894, Control_c, 0, 64, 64
1, 350909, Control_c, 0, 64, 53
1, 350916, Note_on_c, 0, 65, 80
1, 350921, Note_on_c, 0, 80, 92
1, 350924, Control_c, 0, 64, 59
1, 350938, Control_c, 0, 64, 65
1, 350946, Note_off_c, 0, 75, 63
1, 350953, Control_c, 0, 64, 73
1, 350969, Control_c, 0, 64, 86
1, 350971, Note_on_c, 0, 66, 17
1, 350984, Control_c, 0, 64, 97
1, 350999, Control_c, 0, 64, 102
1, 351014, Control_c, 0, 64, 104
1, 351024, Note_off_c, 0, 66, 43
1, 351024, Note_on_c, 0, 73, 86
1, 351027, Note_on_c, 0, 68, 82
1, 351029, Control_c, 0, 64, 109
1, 351036, Note_off_c, 0, 65, 61
1, 351043, Control_c, 0, 64, 119
1, 351048, Note_off_c, 0, 68, 69
1, 351053, Note_off_c, 0, 80, 55
1, 351058, Control_c, 0, 64, 127
1, 351087, Note_off_c, 0, 73, 54
1, 351176, Control_c, 0, 64, 111
1, 351191, Control_c, 0, 64, 95
1, 351206, Control_c, 0, 64, 80
1, 351211, Note_on_c, 0, 80, 93
1, 351213, Note_on_c, 0, 53, 77
1, 351214, Note_on_c, 0, 73, 89
1, 351216, Note_on_c, 0, 68, 95
1, 351221, Control_c, 0, 64, 67
1, 351235, Control_c, 0, 64, 46
1, 351238, Note_on_c, 0, 78, 56
1, 351250, Control_c, 0, 64, 0
1, 351260, Note_off_c, 0, 78, 39
1, 351325, Control_c, 0, 64, 44
1, 351327, Note_on_c, 0, 56, 73
1, 351340, Control_c, 0, 64, 68
1, 351354, Control_c, 0, 64, 80
1, 351359, Note_off_c, 0, 53, 53
1, 351369, Control_c, 0, 64, 88
1, 351372, Note_off_c, 0, 56, 60
1, 351391, Control_c, 0, 64, 93
1, 351406, Control_c, 0, 64, 97
1, 351421, Control_c, 0, 64, 100
1, 351435, Control_c, 0, 64, 104
1, 351443, Note_on_c, 0, 56, 73
1, 351450, Control_c, 0, 64, 106
1, 351452, Note_off_c, 0, 68, 57
1, 351465, Control_c, 0, 64, 107
1, 351479, Note_off_c, 0, 73, 58
1, 351480, Control_c, 0, 64, 108
1, 351495, Control_c, 0, 64, 108
1, 351506, Note_off_c, 0, 56, 59
1, 351510, Control_c, 0, 64, 109
1, 351524, Control_c, 0, 64, 110
1, 351537, Note_on_c, 0, 55, 77
1, 351539, Control_c, 0, 64, 111
1, 351554, Note_off_c, 0, 80, 53
1, 351569, Control_c, 0, 64, 111
1, 351578, Note_off_c, 0, 55, 63
1, 351641, Note_on_c, 0, 72, 94
1, 351649, Note_on_c, 0, 68, 84
1, 351653, Note_on_c, 0, 55, 74
1, 351715, Note_off_c, 0, 55, 61
1, 351748, Note_on_c, 0, 53, 76
1, 351757, Note_off_c, 0, 68, 62
1, 351763, Control_c, 0, 64, 114
1, 351778, Control_c, 0, 64, 120
1, 351786, Note_off_c, 0, 53, 63
1, 351792, Control_c, 0, 64, 124
1, 351807, Control_c, 0, 64, 124
1, 351822, Control_c, 0, 64, 123
1, 351833, Note_off_c, 0, 72, 64
1, 351837, Control_c, 0, 64, 110
1, 351852, Control_c, 0, 64, 92
1, 351866, Note_on_c, 0, 53, 78
1, 351866, Note_on_c, 0, 80, 99
1, 351866, Control_c, 0, 64, 72
1, 351867, Note_on_c, 0, 74, 88
1, 351873, Note_on_c, 0, 70, 83
1, 351881, Control_c, 0, 64, 0
1, 351918, Note_on_c, 0, 78, 25
1, 351919, Note_off_c, 0, 78, 127
1, 351937, Note_off_c, 0, 53, 65
1, 351940, Control_c, 0, 64, 52
1, 351955, Control_c, 0, 64, 72
1, 351970, Control_c, 0, 64, 83
1, 351977, Note_on_c, 0, 51, 79
1, 351984, Control_c, 0, 64, 95
1, 351999, Note_off_c, 0, 80, 64
1, 351999, Control_c, 0, 64, 101
1, 352014, Control_c, 0, 64, 103
1, 352022, Note_off_c, 0, 51, 61
1, 352027, Note_off_c, 0, 74, 66
1, 352058, Note_off_c, 0, 70, 62
1, 352058, Control_c, 0, 64, 104
1, 352073, Control_c, 0, 64, 104
1, 352079, Note_on_c, 0, 51, 71
1, 352088, Control_c, 0, 64, 105
1, 352103, Control_c, 0, 64, 106
1, 352118, Control_c, 0, 64, 107
1, 352140, Control_c, 0, 64, 108
1, 352155, Control_c, 0, 64, 109
1, 352160, Note_off_c, 0, 51, 61
1, 352170, Control_c, 0, 64, 110
1, 352187, Note_on_c, 0, 56, 80
1, 352199, Control_c, 0, 64, 111
1, 352234, Note_off_c, 0, 56, 62
1, 352283, Note_on_c, 0, 56, 75
1, 352289, Note_on_c, 0, 72, 86
1, 352290, Note_on_c, 0, 65, 91
1, 352292, Note_on_c, 0, 68, 90
1, 352317, Control_c, 0, 64, 111
1, 352332, Control_c, 0, 64, 112
1, 352347, Note_off_c, 0, 56, 63
1, 352347, Control_c, 0, 64, 114
1, 352348, Note_off_c, 0, 65, 63
1, 352362, Control_c, 0, 64, 117
1, 352371, Note_off_c, 0, 68, 62
1, 352377, Control_c, 0, 64, 122
1, 352392, Control_c, 0, 64, 127
1, 352393, Note_on_c, 0, 55, 79
1, 352431, Note_off_c, 0, 72, 55
1, 352440, Note_off_c, 0, 55, 63
1, 352481, Control_c, 0, 64, 105
1, 352495, Note_on_c, 0, 55, 82
1, 352496, Control_c, 0, 64, 83
1, 352499, Note_on_c, 0, 63, 97
1, 352500, Note_on_c, 0, 75, 90
1, 352502, Note_on_c, 0, 72, 83
1, 352510, Control_c, 0, 64, 65
1, 352525, Control_c, 0, 64, 0
1, 352557, Note_off_c, 0, 55, 65
1, 352571, Control_c, 0, 64, 46
1, 352586, Control_c, 0, 64, 69
1, 352601, Control_c, 0, 64, 82
1, 352604, Note_on_c, 0, 53, 78
1, 352615, Control_c, 0, 64, 95
1, 352628, Note_off_c, 0, 63, 62
1, 352630, Control_c, 0, 64, 103
1, 352645, Control_c, 0, 64, 106
1, 352648, Note_off_c, 0, 53, 66
1, 352660, Control_c, 0, 64, 107
1, 352675, Control_c, 0, 64, 108
1, 352689, Control_c, 0, 64, 109
1, 352704, Control_c, 0, 64, 111
1, 352706, Note_on_c, 0, 53, 75
1, 352719, Control_c, 0, 64, 112
1, 352725, Note_on_c, 0, 65, 83
1, 352729, Note_off_c, 0, 75, 63
1, 352733, Control_c, 0, 64, 114
1, 352748, Control_c, 0, 64, 116
1, 352763, Control_c, 0, 64, 119
1, 352772, Note_off_c, 0, 53, 64
1, 352778, Control_c, 0, 64, 122
1, 352793, Control_c, 0, 64, 127
1, 352806, Note_on_c, 0, 58, 83
1, 352818, Poly_aftertouch_c, 0, 64, 0
1, 352819, Note_off_c, 0, 72, 50
1, 352852, Note_off_c, 0, 58, 63
1, 352882, Note_off_c, 0, 65, 63
1, 352911, Note_on_c, 0, 58, 75
1, 352916, Note_on_c, 0, 74, 86
1, 352918, Note_on_c, 0, 70, 92
1, 352923, Note_on_c, 0, 67, 87
1, 352933, Control_c, 0, 64, 112
1, 352948, Control_c, 0, 64, 104
1, 352963, Control_c, 0, 64, 101
1, 352976, Note_off_c, 0, 58, 63
1, 352988, Note_off_c, 0, 74, 63
1, 353007, Control_c, 0, 64, 102
1, 353019, Note_on_c, 0, 56, 79
1, 353022, Control_c, 0, 64, 104
1, 353037, Control_c, 0, 64, 110
1, 353052, Control_c, 0, 64, 119
1, 353065, Note_off_c, 0, 70, 60
1, 353067, Note_off_c, 0, 56, 62
1, 353067, Control_c, 0, 64, 124
1, 353091, Note_off_c, 0, 67, 60
1, 353096, Control_c, 0, 64, 122
1, 353111, Control_c, 0, 64, 108
1, 353126, Control_c, 0, 64, 91
1, 353128, Note_on_c, 0, 75, 95
1, 353131, Note_on_c, 0, 72, 85
1, 353132, Note_on_c, 0, 56, 83
1, 353132, Note_on_c, 0, 65, 92
1, 353141, Control_c, 0, 64, 73
1, 353156, Control_c, 0, 64, 34
1, 353171, Control_c, 0, 64, 0
1, 353192, Note_off_c, 0, 56, 63
1, 353215, Control_c, 0, 64, 63
1, 353230, Control_c, 0, 64, 72
1, 353242, Note_on_c, 0, 55, 78
1, 353245, Control_c, 0, 64, 81
1, 353259, Control_c, 0, 64, 90
1, 353272, Note_off_c, 0, 55, 66
1, 353274, Control_c, 0, 64, 94
1, 353289, Control_c, 0, 64, 96
1, 353304, Note_off_c, 0, 65, 61
1, 353304, Control_c, 0, 64, 99
1, 353319, Control_c, 0, 64, 103
1, 353334, Control_c, 0, 64, 107
1, 353346, Note_on_c, 0, 67, 86
1, 353348, Note_on_c, 0, 55, 85
1, 353349, Control_c, 0, 64, 110
1, 353364, Control_c, 0, 64, 112
1, 353376, Note_off_c, 0, 72, 61
1, 353379, Control_c, 0, 64, 114
1, 353387, Note_off_c, 0, 67, 65
1, 353394, Control_c, 0, 64, 115
1, 353395, Note_off_c, 0, 75, 63
1, 353409, Control_c, 0, 64, 117
1, 353422, Note_off_c, 0, 55, 62
1, 353424, Control_c, 0, 64, 119
1, 353438, Control_c, 0, 64, 121
1, 353444, Note_on_c, 0, 60, 81
1, 353453, Control_c, 0, 64, 124
1, 353468, Control_c, 0, 64, 127
1, 353534, Note_off_c, 0, 60, 51
1, 353543, Note_on_c, 0, 62, 80
1, 353546, Note_on_c, 0, 77, 91
1, 353548, Note_on_c, 0, 70, 92
1, 353550, Note_on_c, 0, 65, 85
1, 353605, Note_off_c, 0, 65, 62
1, 353623, Note_off_c, 0, 62, 61
1, 353641, Note_off_c, 0, 77, 61
1, 353649, Note_off_c, 0, 70, 54
1, 353658, Note_on_c, 0, 63, 82
1, 353732, Note_off_c, 0, 63, 63
1, 353757, Control_c, 0, 64, 118
1, 353767, Note_on_c, 0, 62, 77
1, 353769, Note_on_c, 0, 79, 94
1, 353772, Control_c, 0, 64, 98
1, 353775, Note_on_c, 0, 68, 93
1, 353775, Note_on_c, 0, 70, 94
1, 353787, Control_c, 0, 64, 80
1, 353802, Control_c, 0, 64, 62
1, 353817, Control_c, 0, 64, 0
1, 353859, Note_off_c, 0, 62, 59
1, 353870, Note_on_c, 0, 58, 80
1, 353876, Control_c, 0, 64, 67
1, 353890, Control_c, 0, 64, 77
1, 353905, Control_c, 0, 64, 87
1, 353920, Control_c, 0, 64, 93
1, 353924, Note_off_c, 0, 68, 59
1, 353935, Control_c, 0, 64, 93
1, 353950, Control_c, 0, 64, 94
1, 353964, Control_c, 0, 64, 94
1, 353968, Note_on_c, 0, 62, 83
1, 353978, Note_off_c, 0, 58, 60
1, 353988, Note_off_c, 0, 70, 61
1, 353994, Control_c, 0, 64, 95
1, 354004, Note_off_c, 0, 79, 54
1, 354009, Control_c, 0, 64, 95
1, 354024, Control_c, 0, 64, 96
1, 354050, Note_off_c, 0, 62, 59
1, 354053, Control_c, 0, 64, 96
1, 354058, Note_on_c, 0, 77, 82
1, 354060, Note_on_c, 0, 72, 84
1, 354063, Note_on_c, 0, 65, 78
1, 354068, Control_c, 0, 64, 97
1, 354082, Control_c, 0, 64, 98
1, 354097, Control_c, 0, 64, 100
1, 354112, Control_c, 0, 64, 101
1, 354115, Note_off_c, 0, 72, 65
1, 354117, Note_off_c, 0, 77, 61
1, 354127, Note_off_c, 0, 65, 62
1, 354157, Note_on_c, 0, 79, 102
1, 354158, Note_on_c, 0, 63, 82
1, 354158, Control_c, 0, 64, 95
1, 354162, Note_on_c, 0, 70, 91
1, 354168, Note_on_c, 0, 74, 82
1, 354172, Control_c, 0, 64, 81
1, 354187, Control_c, 0, 64, 66
1, 354202, Control_c, 0, 64, 0
1, 354232, Control_c, 0, 64, 57
1, 354246, Note_off_c, 0, 63, 58
1, 354246, Control_c, 0, 64, 73
1, 354256, Note_on_c, 0, 62, 81
1, 354261, Control_c, 0, 64, 86
1, 354276, Note_off_c, 0, 70, 59
1, 354276, Control_c, 0, 64, 102
1, 354291, Control_c, 0, 64, 107
1, 354319, Note_off_c, 0, 62, 60
1, 354321, Control_c, 0, 64, 98
1, 354323, Note_off_c, 0, 79, 54
1, 354335, Control_c, 0, 64, 84
1, 354350, Control_c, 0, 64, 69
1, 354353, Note_off_c, 0, 74, 57
1, 354365, Control_c, 0, 64, 52
1, 354368, Note_on_c, 0, 72, 81
1, 354369, Note_on_c, 0, 63, 86
1, 354381, Note_on_c, 0, 68, 81
1, 354387, Control_c, 0, 64, 61
1, 354402, Control_c, 0, 64, 71
1, 354403, Note_off_c, 0, 68, 71
1, 354414, Note_off_c, 0, 72, 66
1, 354417, Control_c, 0, 64, 87
1, 354428, Note_off_c, 0, 63, 67
1, 354432, Control_c, 0, 64, 104
1, 354447, Control_c, 0, 64, 117
1, 354461, Control_c, 0, 64, 119
1, 354476, Control_c, 0, 64, 120
1, 354479, Note_on_c, 0, 62, 85
1, 354491, Control_c, 0, 64, 121
1, 354522, Note_off_c, 0, 62, 62
1, 354550, Control_c, 0, 64, 117
1, 354565, Control_c, 0, 64, 101
1, 354580, Control_c, 0, 64, 82
1, 354580, Note_on_c, 0, 82, 106
1, 354586, Note_on_c, 0, 62, 94
1, 354586, Note_on_c, 0, 72, 89
1, 354589, Note_on_c, 0, 75, 92
1, 354595, Control_c, 0, 64, 63
1, 354610, Control_c, 0, 64, 0
1, 354636, Note_off_c, 0, 62, 63
1, 354654, Control_c, 0, 64, 38
1, 354669, Control_c, 0, 64, 69
1, 354684, Control_c, 0, 64, 79
1, 354688, Note_on_c, 0, 60, 84
1, 354699, Control_c, 0, 64, 91
1, 354713, Control_c, 0, 64, 95
1, 354728, Control_c, 0, 64, 97
1, 354733, Note_off_c, 0, 60, 61
1, 354743, Control_c, 0, 64, 98
1, 354746, Note_off_c, 0, 72, 52
1, 354758, Control_c, 0, 64, 100
1, 354773, Control_c, 0, 64, 103
1, 354787, Control_c, 0, 64, 106
1, 354794, Note_on_c, 0, 60, 81
1, 354802, Control_c, 0, 64, 108
1, 354809, Note_off_c, 0, 75, 60
1, 354817, Control_c, 0, 64, 109
1, 354832, Control_c, 0, 64, 111
1, 354847, Control_c, 0, 64, 113
1, 354851, Note_off_c, 0, 82, 59
1, 354853, Note_off_c, 0, 60, 60
1, 354861, Control_c, 0, 64, 116
1, 354876, Control_c, 0, 64, 120
1, 354887, Note_on_c, 0, 63, 80
1, 354891, Control_c, 0, 64, 127
1, 354899, Note_on_c, 0, 80, 96
1, 354923, Note_off_c, 0, 63, 62
1, 354966, Note_off_c, 0, 80, 61
1, 355055, Control_c, 0, 64, 119
1, 355057, Note_on_c, 0, 79, 96
1, 355066, Note_on_c, 0, 55, 94
1, 355066, Note_on_c, 0, 67, 99
1, 355069, Control_c, 0, 64, 102
1, 355084, Control_c, 0, 64, 90
1, 355099, Control_c, 0, 64, 79
1, 355114, Control_c, 0, 64, 68
1, 355136, Control_c, 0, 64, 56
1, 355151, Control_c, 0, 64, 28
1, 355166, Control_c, 0, 64, 0
1, 355232, Note_on_c, 0, 80, 85
1, 355255, Control_c, 0, 64, 54
1, 355260, Note_off_c, 0, 79, 59
1, 355270, Control_c, 0, 64, 70
1, 355283, Note_off_c, 0, 80, 65
1, 355284, Control_c, 0, 64, 78
1, 355299, Control_c, 0, 64, 88
1, 355314, Control_c, 0, 64, 96
1, 355328, Control_c, 0, 64, 102
1, 355333, Note_on_c, 0, 80, 85
1, 355343, Control_c, 0, 64, 106
1, 355358, Control_c, 0, 64, 108
1, 355373, Control_c, 0, 64, 110
1, 355387, Note_off_c, 0, 55, 61
1, 355388, Control_c, 0, 64, 111
1, 355403, Control_c, 0, 64, 111
1, 355406, Note_off_c, 0, 67, 55
1, 355426, Note_off_c, 0, 80, 47
1, 355432, Note_on_c, 0, 79, 91
1, 355478, Note_off_c, 0, 79, 63
1, 355533, Note_on_c, 0, 79, 89
1, 355624, Note_off_c, 0, 79, 56
1, 355625, Control_c, 0, 64, 112
1, 355628, Note_on_c, 0, 77, 89
1, 355640, Control_c, 0, 64, 112
1, 355671, Note_off_c, 0, 77, 63
1, 355699, Control_c, 0, 64, 111
1, 355714, Control_c, 0, 64, 101
1, 355728, Control_c, 0, 64, 86
1, 355730, Note_on_c, 0, 68, 98
1, 355732, Note_on_c, 0, 77, 89
1, 355736, Note_on_c, 0, 55, 84
1, 355743, Control_c, 0, 64, 68
1, 355759, Control_c, 0, 64, 24
1, 355774, Control_c, 0, 64, 0
1, 355789, Control_c, 0, 64, 27
1, 355804, Control_c, 0, 64, 63
1, 355819, Control_c, 0, 64, 71
1, 355833, Control_c, 0, 64, 81
1, 355841, Note_on_c, 0, 75, 88
1, 355844, Note_off_c, 0, 77, 60
1, 355848, Control_c, 0, 64, 89
1, 355863, Control_c, 0, 64, 95
1, 355885, Control_c, 0, 64, 99
1, 355900, Control_c, 0, 64, 102
1, 355908, Note_off_c, 0, 75, 64
1, 355915, Control_c, 0, 64, 104
1, 355930, Control_c, 0, 64, 106
1, 355945, Control_c, 0, 64, 109
1, 355955, Note_on_c, 0, 75, 82
1, 355959, Control_c, 0, 64, 112
1, 355974, Control_c, 0, 64, 116
1, 355984, Note_off_c, 0, 68, 60
1, 355989, Control_c, 0, 64, 122
1, 356004, Control_c, 0, 64, 127
1, 356049, Note_on_c, 0, 82, 89
1, 356052, Note_off_c, 0, 75, 60
1, 356094, Note_off_c, 0, 82, 63
1, 356153, Note_on_c, 0, 63, 86
1, 356153, Note_on_c, 0, 82, 94
1, 356214, Note_off_c, 0, 55, 53
1, 356247, Note_on_c, 0, 80, 95
1, 356259, Note_off_c, 0, 82, 58
1, 356294, Note_off_c, 0, 80, 66
1, 356333, Note_off_c, 0, 63, 62
1, 356344, Control_c, 0, 64, 103
1, 356357, Note_on_c, 0, 72, 92
1, 356357, Note_on_c, 0, 80, 94
1, 356358, Control_c, 0, 64, 84
1, 356359, Note_on_c, 0, 55, 93
1, 356373, Control_c, 0, 64, 68
1, 356388, Control_c, 0, 64, 0
1, 356432, Control_c, 0, 64, 63
1, 356447, Control_c, 0, 64, 73
1, 356462, Control_c, 0, 64, 83
1, 356467, Note_on_c, 0, 82, 89
1, 356476, Control_c, 0, 64, 91
1, 356482, Note_off_c, 0, 80, 63
1, 356491, Control_c, 0, 64, 96
1, 356506, Control_c, 0, 64, 102
1, 356512, Note_off_c, 0, 82, 65
1, 356521, Control_c, 0, 64, 105
1, 356536, Control_c, 0, 64, 109
1, 356552, Control_c, 0, 64, 111
1, 356567, Control_c, 0, 64, 112
1, 356570, Note_on_c, 0, 82, 92
1, 356581, Control_c, 0, 64, 113
1, 356611, Control_c, 0, 64, 113
1, 356634, Control_c, 0, 64, 114
1, 356638, Note_off_c, 0, 55, 62
1, 356649, Control_c, 0, 64, 115
1, 356663, Control_c, 0, 64, 115
1, 356673, Note_on_c, 0, 80, 88
1, 356678, Control_c, 0, 64, 116
1, 356684, Note_off_c, 0, 82, 62
1, 356693, Control_c, 0, 64, 117
1, 356707, Control_c, 0, 64, 119
1, 356721, Note_off_c, 0, 80, 64
1, 356722, Control_c, 0, 64, 121
1, 356737, Control_c, 0, 64, 125
1, 356752, Control_c, 0, 64, 127
1, 356774, Note_on_c, 0, 80, 76
1, 356816, Note_off_c, 0, 72, 63
1, 356852, Note_off_c, 0, 80, 65
1, 356866, Note_on_c, 0, 79, 67
1, 356893, Note_off_c, 0, 79, 67
1, 356944, Control_c, 0, 64, 109
1, 356959, Control_c, 0, 64, 91
1, 356968, Note_on_c, 0, 55, 80
1, 356969, Note_on_c, 0, 70, 88
1, 356970, Note_on_c, 0, 79, 86
1, 356973, Control_c, 0, 64, 75
1, 356988, Control_c, 0, 64, 56
1, 357003, Control_c, 0, 64, 0
1, 357062, Note_on_c, 0, 77, 74
1, 357067, Note_off_c, 0, 79, 58
1, 357077, Control_c, 0, 64, 64
1, 357091, Control_c, 0, 64, 74
1, 357106, Control_c, 0, 64, 81
1, 357121, Control_c, 0, 64, 87
1, 357123, Note_off_c, 0, 77, 62
1, 357136, Control_c, 0, 64, 90
1, 357151, Control_c, 0, 64, 94
1, 357165, Control_c, 0, 64, 98
1, 357171, Note_off_c, 0, 70, 44
1, 357179, Note_on_c, 0, 77, 79
1, 357180, Control_c, 0, 64, 104
1, 357195, Control_c, 0, 64, 107
1, 357210, Control_c, 0, 64, 110
1, 357225, Control_c, 0, 64, 112
1, 357239, Control_c, 0, 64, 113
1, 357254, Control_c, 0, 64, 115
1, 357261, Note_on_c, 0, 75, 76
1, 357266, Note_off_c, 0, 77, 61
1, 357269, Control_c, 0, 64, 118
1, 357284, Control_c, 0, 64, 121
1, 357298, Control_c, 0, 64, 121
1, 357310, Note_off_c, 0, 75, 64
1, 357313, Control_c, 0, 64, 122
1, 357328, Control_c, 0, 64, 123
1, 357344, Control_c, 0, 64, 124
1, 357359, Control_c, 0, 64, 124
1, 357380, Note_on_c, 0, 75, 79
1, 357382, Note_on_c, 0, 67, 79
1, 357483, Note_on_c, 0, 72, 82
1, 357483, Note_off_c, 0, 67, 62
1, 357515, Note_off_c, 0, 75, 60
1, 357541, Note_off_c, 0, 72, 59
1, 357544, Control_c, 0, 64, 125
1, 357591, Note_off_c, 0, 55, 61
1, 357604, Control_c, 0, 64, 122
1, 357616, Note_on_c, 0, 77, 83
1, 357619, Control_c, 0, 64, 108
1, 357623, Note_on_c, 0, 75, 81
1, 357629, Note_on_c, 0, 56, 84
1, 357634, Control_c, 0, 64, 91
1, 357649, Control_c, 0, 64, 72
1, 357664, Control_c, 0, 64, 0
1, 357722, Control_c, 0, 64, 39
1, 357734, Note_on_c, 0, 74, 77
1, 357737, Control_c, 0, 64, 67
1, 357752, Control_c, 0, 64, 74
1, 357767, Control_c, 0, 64, 82
1, 357769, Note_off_c, 0, 75, 63
1, 357782, Control_c, 0, 64, 89
1, 357786, Note_off_c, 0, 74, 63
1, 357796, Control_c, 0, 64, 93
1, 357811, Control_c, 0, 64, 96
1, 357826, Control_c, 0, 64, 98
1, 357841, Note_on_c, 0, 74, 71
1, 357841, Control_c, 0, 64, 99
1, 357856, Control_c, 0, 64, 101
1, 357871, Control_c, 0, 64, 104
1, 357886, Control_c, 0, 64, 105
1, 357901, Control_c, 0, 64, 107
1, 357915, Control_c, 0, 64, 108
1, 357930, Control_c, 0, 64, 108
1, 357932, Note_on_c, 0, 72, 76
1, 357945, Control_c, 0, 64, 109
1, 357988, Note_off_c, 0, 72, 64
1, 357993, Note_off_c, 0, 74, 54
1, 358002, Note_off_c, 0, 56, 63
1, 358003, Note_off_c, 0, 77, 60
1, 358030, Note_on_c, 0, 51, 77
1, 358035, Note_on_c, 0, 78, 86
1, 358045, Note_on_c, 0, 72, 73
1, 358078, Control_c, 0, 64, 109
1, 358108, Control_c, 0, 64, 110
1, 358130, Control_c, 0, 64, 112
1, 358140, Note_on_c, 0, 74, 75
1, 358145, Control_c, 0, 64, 115
1, 358160, Control_c, 0, 64, 119
1, 358161, Note_off_c, 0, 72, 55
1, 358166, Note_off_c, 0, 78, 61
1, 358175, Control_c, 0, 64, 122
1, 358187, Note_off_c, 0, 74, 64
1, 358190, Control_c, 0, 64, 124
1, 358220, Note_off_c, 0, 51, 59
1, 358234, Control_c, 0, 64, 117
1, 358246, Note_on_c, 0, 54, 86
1, 358249, Control_c, 0, 64, 97
1, 358251, Note_on_c, 0, 75, 90
1, 358253, Note_on_c, 0, 73, 88
1, 358264, Control_c, 0, 64, 79
1, 358279, Control_c, 0, 64, 62
1, 358294, Control_c, 0, 64, 0
1, 358361, Note_on_c, 0, 72, 72
1, 358368, Control_c, 0, 64, 24
1, 358383, Control_c, 0, 64, 68
1, 358392, Note_off_c, 0, 73, 62
1, 358398, Control_c, 0, 64, 78
1, 358401, Note_off_c, 0, 72, 61
1, 358413, Control_c, 0, 64, 86
1, 358427, Control_c, 0, 64, 91
1, 358442, Control_c, 0, 64, 93
1, 358457, Control_c, 0, 64, 95
1, 358467, Note_on_c, 0, 72, 78
1, 358471, Control_c, 0, 64, 98
1, 358486, Control_c, 0, 64, 101
1, 358501, Control_c, 0, 64, 103
1, 358516, Control_c, 0, 64, 105
1, 358528, Note_off_c, 0, 72, 58
1, 358531, Control_c, 0, 64, 106
1, 358545, Control_c, 0, 64, 108
1, 358559, Note_on_c, 0, 70, 79
1, 358560, Control_c, 0, 64, 111
1, 358575, Control_c, 0, 64, 114
1, 358590, Control_c, 0, 64, 117
1, 358605, Control_c, 0, 64, 119
1, 358619, Control_c, 0, 64, 122
1, 358622, Note_off_c, 0, 70, 61
1, 358627, Note_off_c, 0, 75, 60
1, 358634, Control_c, 0, 64, 126
1, 358640, Poly_aftertouch_c, 0, 72, 0
1, 358649, Control_c, 0, 64, 127
1, 358659, Note_off_c, 0, 54, 61
1, 358669, Note_on_c, 0, 77, 87
1, 358670, Note_on_c, 0, 49, 79
1, 358674, Note_on_c, 0, 70, 80
1, 358755, Note_off_c, 0, 70, 49
1, 358774, Note_on_c, 0, 72, 82
1, 358809, Note_off_c, 0, 77, 57
1, 358827, Note_off_c, 0, 72, 64
1, 358878, Control_c, 0, 64, 108
1, 358882, Note_off_c, 0, 49, 61
1, 358893, Control_c, 0, 64, 86
1, 358897, Note_on_c, 0, 77, 97
1, 358901, Note_on_c, 0, 61, 92
1, 358905, Note_on_c, 0, 72, 82
1, 358908, Control_c, 0, 64, 60
1, 358923, Control_c, 0, 64, 0
1, 359013, Control_c, 0, 64, 68
1, 359016, Note_on_c, 0, 73, 78
1, 359027, Note_off_c, 0, 72, 55
1, 359028, Control_c, 0, 64, 78
1, 359042, Control_c, 0, 64, 87
1, 359057, Control_c, 0, 64, 93
1, 359063, Note_off_c, 0, 73, 64
1, 359072, Control_c, 0, 64, 97
1, 359087, Control_c, 0, 64, 101
1, 359102, Control_c, 0, 64, 108
1, 359117, Control_c, 0, 64, 115
1, 359120, Note_on_c, 0, 73, 86
1, 359130, Note_off_c, 0, 77, 59
1, 359132, Control_c, 0, 64, 122
1, 359147, Control_c, 0, 64, 127
1, 359218, Note_on_c, 0, 78, 89
1, 359261, Note_off_c, 0, 78, 63
1, 359303, Note_off_c, 0, 61, 59
1, 359321, Note_on_c, 0, 78, 93
1, 359325, Note_on_c, 0, 58, 82
1, 359401, Note_off_c, 0, 78, 53
1, 359425, Note_on_c, 0, 77, 91
1, 359448, Note_off_c, 0, 73, 61
1, 359472, Note_off_c, 0, 77, 64
1, 359518, Note_off_c, 0, 58, 64
1, 359530, Note_on_c, 0, 61, 92
1, 359531, Control_c, 0, 64, 103
1, 359533, Note_on_c, 0, 77, 93
1, 359540, Note_on_c, 0, 72, 89
1, 359546, Control_c, 0, 64, 80
1, 359561, Control_c, 0, 64, 56
1, 359576, Control_c, 0, 64, 0
1, 359627, Control_c, 0, 64, 62
1, 359642, Control_c, 0, 64, 73
1, 359656, Note_on_c, 0, 73, 83
1, 359657, Control_c, 0, 64, 82
1, 359672, Control_c, 0, 64, 91
1, 359687, Control_c, 0, 64, 96
1, 359689, Note_off_c, 0, 72, 60
1, 359699, Note_off_c, 0, 73, 62
1, 359701, Control_c, 0, 64, 103
1, 359716, Control_c, 0, 64, 111
1, 359721, Note_off_c, 0, 77, 50
1, 359731, Control_c, 0, 64, 119
1, 359747, Control_c, 0, 64, 127
1, 359753, Note_on_c, 0, 73, 89
1, 359762, Control_c, 0, 64, 127
1, 359847, Note_off_c, 0, 61, 60
1, 359854, Note_on_c, 0, 78, 92
1, 359902, Note_off_c, 0, 78, 62
1, 359937, Note_off_c, 0, 73, 0
1, 359952, Note_on_c, 0, 78, 90
1, 359969, Note_on_c, 0, 58, 80
1, 359974, Poly_aftertouch_c, 0, 73, 127
1, 360017, Poly_aftertouch_c, 0, 73, 0
1, 360047, Note_on_c, 0, 77, 82
1, 360061, Note_off_c, 0, 78, 62
1, 360086, Note_off_c, 0, 77, 61
1, 360133, Note_off_c, 0, 58, 63
1, 360147, Control_c, 0, 64, 93
1, 360162, Control_c, 0, 64, 68
1, 360165, Note_on_c, 0, 70, 93
1, 360170, Note_on_c, 0, 75, 91
1, 360171, Note_on_c, 0, 63, 91
1, 360173, Note_on_c, 0, 55, 89
1, 360177, Control_c, 0, 64, 0
1, 360236, Control_c, 0, 64, 65
1, 360251, Control_c, 0, 64, 79
1, 360265, Control_c, 0, 64, 90
1, 360280, Control_c, 0, 64, 98
1, 360281, Note_on_c, 0, 64, 83
1, 360295, Control_c, 0, 64, 101
1, 360298, Note_off_c, 0, 63, 61
1, 360310, Control_c, 0, 64, 105
1, 360320, Note_off_c, 0, 64, 65
1, 360324, Control_c, 0, 64, 108
1, 360339, Control_c, 0, 64, 110
1, 360348, Note_off_c, 0, 75, 55
1, 360354, Control_c, 0, 64, 112
1, 360377, Control_c, 0, 64, 112
1, 360384, Note_on_c, 0, 64, 86
1, 360392, Control_c, 0, 64, 113
1, 360406, Control_c, 0, 64, 114
1, 360421, Control_c, 0, 64, 116
1, 360423, Note_off_c, 0, 70, 56
1, 360425, Note_off_c, 0, 64, 66
1, 360436, Control_c, 0, 64, 118
1, 360450, Control_c, 0, 64, 120
1, 360465, Control_c, 0, 64, 123
1, 360476, Note_on_c, 0, 63, 92
1, 360480, Control_c, 0, 64, 127
1, 360530, Note_off_c, 0, 63, 63
1, 360565, Poly_aftertouch_c, 0, 70, 0
1, 360572, Note_off_c, 0, 55, 39
1, 360579, Note_on_c, 0, 46, 79
1, 360580, Note_on_c, 0, 70, 41
1, 360582, Note_on_c, 0, 63, 86
1, 360583, Note_on_c, 0, 76, 91
1, 360620, Note_off_c, 0, 63, 62
1, 360646, Note_off_c, 0, 46, 62
1, 360652, Note_off_c, 0, 76, 64
1, 360679, Note_on_c, 0, 61, 81
1, 360721, Note_off_c, 0, 70, 57
1, 360735, Note_off_c, 0, 61, 64
1, 360777, Control_c, 0, 64, 107
1, 360792, Control_c, 0, 64, 83
1, 360801, Note_on_c, 0, 55, 86
1, 360801, Note_on_c, 0, 61, 92
1, 360801, Note_on_c, 0, 75, 94
1, 360802, Note_on_c, 0, 70, 89
1, 360807, Control_c, 0, 64, 61
1, 360822, Control_c, 0, 64, 0
1, 360866, Control_c, 0, 64, 57
1, 360881, Control_c, 0, 64, 73
1, 360896, Control_c, 0, 64, 83
1, 360898, Note_off_c, 0, 61, 63
1, 360904, Note_on_c, 0, 60, 83
1, 360911, Control_c, 0, 64, 94
1, 360926, Control_c, 0, 64, 100
1, 360935, Note_off_c, 0, 75, 61
1, 360940, Control_c, 0, 64, 104
1, 360946, Note_off_c, 0, 60, 62
1, 360955, Control_c, 0, 64, 109
1, 360963, Note_off_c, 0, 70, 57
1, 360970, Control_c, 0, 64, 114
1, 360985, Control_c, 0, 64, 118
1, 361000, Control_c, 0, 64, 120
1, 361011, Note_on_c, 0, 60, 85
1, 361044, Control_c, 0, 64, 120
1, 361052, Note_off_c, 0, 60, 65
1, 361059, Control_c, 0, 64, 121
1, 361073, Control_c, 0, 64, 122
1, 361088, Control_c, 0, 64, 122
1, 361103, Control_c, 0, 64, 123
1, 361105, Note_on_c, 0, 64, 84
1, 361126, Control_c, 0, 64, 125
1, 361141, Control_c, 0, 64, 127
1, 361154, Note_off_c, 0, 55, 58
1, 361171, Note_off_c, 0, 64, 64
1, 361212, Note_on_c, 0, 64, 88
1, 361213, Note_on_c, 0, 73, 88
1, 361216, Note_on_c, 0, 46, 73
1, 361220, Note_on_c, 0, 68, 82
1, 361274, Note_off_c, 0, 46, 62
1, 361323, Note_on_c, 0, 63, 85
1, 361327, Note_off_c, 0, 64, 60
1, 361329, Note_off_c, 0, 73, 65
1, 361349, Note_off_c, 0, 63, 70
1, 361356, Note_off_c, 0, 68, 61
1, 361408, Control_c, 0, 64, 117
1, 361423, Control_c, 0, 64, 94
1, 361429, Note_on_c, 0, 48, 88
1, 361432, Note_on_c, 0, 63, 101
1, 361432, Note_on_c, 0, 75, 98
1, 361433, Note_on_c, 0, 69, 86
1, 361437, Control_c, 0, 64, 73
1, 361452, Control_c, 0, 64, 0
1, 361511, Control_c, 0, 64, 44
1, 361526, Control_c, 0, 64, 70
1, 361537, Note_on_c, 0, 61, 81
1, 361539, Note_off_c, 0, 63, 64
1, 361541, Control_c, 0, 64, 79
1, 361556, Control_c, 0, 64, 89
1, 361570, Control_c, 0, 64, 95
1, 361579, Note_off_c, 0, 61, 61
1, 361584, Note_off_c, 0, 69, 62
1, 361585, Control_c, 0, 64, 99
1, 361600, Control_c, 0, 64, 102
1, 361615, Control_c, 0, 64, 107
1, 361630, Control_c, 0, 64, 112
1, 361637, Note_on_c, 0, 61, 89
1, 361645, Control_c, 0, 64, 115
1, 361654, Note_off_c, 0, 48, 57
1, 361660, Control_c, 0, 64, 116
1, 361674, Control_c, 0, 64, 119
1, 361689, Control_c, 0, 64, 127
1, 361692, Note_off_c, 0, 75, 60
1, 361702, Note_off_c, 0, 61, 62
1, 361727, Note_on_c, 0, 66, 87
1, 361782, Note_off_c, 0, 66, 64
1, 361808, Control_c, 0, 64, 119
1, 361823, Control_c, 0, 64, 95
1, 361827, Note_on_c, 0, 73, 94
1, 361829, Note_on_c, 0, 46, 89
1, 361831, Note_on_c, 0, 66, 83
1, 361837, Note_on_c, 0, 70, 71
1, 361837, Control_c, 0, 64, 75
1, 361852, Control_c, 0, 64, 52
1, 361874, Control_c, 0, 64, 0
1, 361889, Control_c, 0, 64, 62
1, 361904, Control_c, 0, 64, 72
1, 361910, Note_off_c, 0, 66, 60
1, 361916, Note_off_c, 0, 46, 63
1, 361919, Control_c, 0, 64, 85
1, 361934, Control_c, 0, 64, 102
1, 361943, Note_on_c, 0, 64, 83
1, 361949, Control_c, 0, 64, 118
1, 361964, Control_c, 0, 64, 124
1, 361978, Control_c, 0, 64, 125
1, 361992, Note_off_c, 0, 73, 61
1, 361996, Note_off_c, 0, 64, 62
1, 362011, Note_off_c, 0, 70, 62
1, 362022, Control_c, 0, 64, 123
1, 362037, Control_c, 0, 64, 107
1, 362052, Control_c, 0, 64, 89
1, 362057, Note_on_c, 0, 48, 79
1, 362059, Note_on_c, 0, 75, 104
1, 362067, Note_on_c, 0, 64, 83
1, 362067, Control_c, 0, 64, 69
1, 362068, Note_on_c, 0, 68, 88
1, 362082, Control_c, 0, 64, 0
1, 362142, Control_c, 0, 64, 63
1, 362157, Control_c, 0, 64, 74
1, 362158, Note_off_c, 0, 64, 64
1, 362168, Note_on_c, 0, 63, 84
1, 362172, Control_c, 0, 64, 87
1, 362187, Control_c, 0, 64, 94
1, 362201, Control_c, 0, 64, 97
1, 362205, Note_off_c, 0, 68, 62
1, 362211, Note_off_c, 0, 63, 66
1, 362214, Note_off_c, 0, 75, 64
1, 362216, Control_c, 0, 64, 99
1, 362231, Control_c, 0, 64, 102
1, 362246, Control_c, 0, 64, 108
1, 362261, Control_c, 0, 64, 114
1, 362274, Note_on_c, 0, 63, 80
1, 362275, Control_c, 0, 64, 118
1, 362290, Control_c, 0, 64, 120
1, 362292, Note_off_c, 0, 48, 51
1, 362305, Control_c, 0, 64, 123
1, 362319, Control_c, 0, 64, 127
1, 362329, Note_off_c, 0, 63, 62
1, 362363, Note_on_c, 0, 68, 90
1, 362428, Note_off_c, 0, 68, 60
1, 362438, Control_c, 0, 64, 113
1, 362453, Control_c, 0, 64, 92
1, 362464, Note_on_c, 0, 49, 77
1, 362466, Note_on_c, 0, 70, 91
1, 362466, Note_on_c, 0, 78, 97
1, 362467, Control_c, 0, 64, 75
1, 362469, Note_on_c, 0, 76, 90
1, 362482, Control_c, 0, 64, 59
1, 362497, Control_c, 0, 64, 0
1, 362512, Control_c, 0, 64, 43
1, 362527, Control_c, 0, 64, 65
1, 362542, Control_c, 0, 64, 77
1, 362557, Control_c, 0, 64, 89
1, 362572, Control_c, 0, 64, 100
1, 362578, Note_off_c, 0, 70, 63
1, 362578, Note_on_c, 0, 71, 81
1, 362586, Control_c, 0, 64, 104
1, 362599, Note_off_c, 0, 76, 61
1, 362601, Control_c, 0, 64, 105
1, 362623, Control_c, 0, 64, 107
1, 362626, Note_off_c, 0, 78, 61
1, 362637, Control_c, 0, 64, 109
1, 362660, Note_off_c, 0, 71, 62
1, 362663, Note_off_c, 0, 49, 61
1, 362667, Control_c, 0, 64, 107
1, 362682, Control_c, 0, 64, 96
1, 362697, Note_on_c, 0, 51, 86
1, 362697, Control_c, 0, 64, 79
1, 362701, Note_on_c, 0, 78, 99
1, 362703, Note_on_c, 0, 70, 89
1, 362712, Note_on_c, 0, 75, 80
1, 362712, Control_c, 0, 64, 60
1, 362727, Control_c, 0, 64, 0
1, 362786, Control_c, 0, 64, 49
1, 362801, Control_c, 0, 64, 69
1, 362816, Control_c, 0, 64, 77
1, 362822, Note_on_c, 0, 66, 83
1, 362824, Note_off_c, 0, 70, 63
1, 362831, Control_c, 0, 64, 86
1, 362845, Control_c, 0, 64, 89
1, 362860, Control_c, 0, 64, 92
1, 362875, Control_c, 0, 64, 95
1, 362890, Control_c, 0, 64, 98
1, 362891, Note_off_c, 0, 66, 61
1, 362905, Control_c, 0, 64, 101
1, 362914, Note_on_c, 0, 70, 91
1, 362919, Control_c, 0, 64, 105
1, 362934, Control_c, 0, 64, 111
1, 362943, Note_off_c, 0, 51, 60
1, 362947, Note_off_c, 0, 75, 61
1, 362950, Control_c, 0, 64, 116
1, 362962, Note_off_c, 0, 78, 59
1, 362965, Control_c, 0, 64, 122
1, 362980, Control_c, 0, 64, 127
1, 363006, Note_on_c, 0, 49, 80
1, 363007, Note_on_c, 0, 73, 77
1, 363025, Note_off_c, 0, 70, 55
1, 363054, Control_c, 0, 64, 120
1, 363061, Note_on_c, 0, 74, 27
1, 363065, Note_off_c, 0, 73, 63
1, 363068, Control_c, 0, 64, 101
1, 363071, Note_off_c, 0, 49, 60
1, 363083, Control_c, 0, 64, 84
1, 363093, Note_off_c, 0, 74, 45
1, 363098, Control_c, 0, 64, 66
1, 363105, Note_on_c, 0, 51, 87
1, 363108, Note_on_c, 0, 77, 94
1, 363110, Note_on_c, 0, 71, 86
1, 363113, Control_c, 0, 64, 0
1, 363116, Note_on_c, 0, 75, 81
1, 363157, Control_c, 0, 64, 62
1, 363172, Control_c, 0, 64, 73
1, 363177, Note_off_c, 0, 51, 62
1, 363187, Control_c, 0, 64, 85
1, 363201, Note_off_c, 0, 77, 62
1, 363202, Control_c, 0, 64, 98
1, 363216, Control_c, 0, 64, 109
1, 363219, Note_off_c, 0, 71, 57
1, 363221, Note_on_c, 0, 70, 68
1, 363231, Control_c, 0, 64, 114
1, 363246, Control_c, 0, 64, 116
1, 363254, Note_off_c, 0, 70, 65
1, 363260, Control_c, 0, 64, 117
1, 363287, Note_off_c, 0, 75, 63
1, 363290, Control_c, 0, 64, 117
1, 363305, Control_c, 0, 64, 105
1, 363320, Control_c, 0, 64, 87
1, 363326, Note_on_c, 0, 51, 96
1, 363332, Note_on_c, 0, 71, 83
1, 363335, Control_c, 0, 64, 67
1, 363336, Note_on_c, 0, 75, 65
1, 363336, Note_on_c, 0, 78, 96
1, 363350, Control_c, 0, 64, 0
1, 363390, Note_on_c, 0, 79, 34
1, 363391, Note_off_c, 0, 79, 127
1, 363416, Control_c, 0, 64, 60
1, 363431, Control_c, 0, 64, 72
1, 363433, Note_off_c, 0, 71, 60
1, 363440, Note_on_c, 0, 70, 82
1, 363446, Control_c, 0, 64, 80
1, 363461, Control_c, 0, 64, 85
1, 363475, Control_c, 0, 64, 86
1, 363490, Control_c, 0, 64, 88
1, 363505, Control_c, 0, 64, 88
1, 363507, Note_off_c, 0, 70, 60
1, 363520, Control_c, 0, 64, 87
1, 363534, Control_c, 0, 64, 78
1, 363548, Note_off_c, 0, 51, 58
1, 363549, Control_c, 0, 64, 60
1, 363554, Note_on_c, 0, 70, 87
1, 363559, Note_on_c, 0, 54, 98
1, 363564, Control_c, 0, 64, 0
1, 363588, Note_off_c, 0, 75, 59
1, 363588, Note_off_c, 0, 78, 59
1, 363639, Control_c, 0, 64, 67
1, 363654, Control_c, 0, 64, 79
1, 363667, Note_on_c, 0, 68, 94
1, 363668, Control_c, 0, 64, 89
1, 363683, Control_c, 0, 64, 94
1, 363698, Control_c, 0, 64, 96
1, 363700, Note_off_c, 0, 70, 61
1, 363713, Control_c, 0, 64, 97
1, 363717, Note_off_c, 0, 68, 63
1, 363728, Control_c, 0, 64, 100
1, 363743, Control_c, 0, 64, 102
1, 363758, Control_c, 0, 64, 104
1, 363773, Control_c, 0, 64, 105
1, 363775, Note_on_c, 0, 80, 90
1, 363788, Note_on_c, 0, 75, 83
1, 363788, Control_c, 0, 64, 108
1, 363792, Note_on_c, 0, 68, 82
1, 363792, Note_off_c, 0, 54, 48
1, 363803, Control_c, 0, 64, 112
1, 363818, Control_c, 0, 64, 119
1, 363824, Note_on_c, 0, 69, 48
1, 363828, Note_off_c, 0, 68, 56
1, 363833, Control_c, 0, 64, 127
1, 363845, Note_off_c, 0, 69, 61
1, 363886, Note_on_c, 0, 53, 91
1, 363886, Note_on_c, 0, 71, 85
1, 363903, Note_off_c, 0, 75, 61
1, 363919, Note_off_c, 0, 53, 68
1, 363922, Note_off_c, 0, 71, 63
1, 363943, Note_off_c, 0, 80, 61
1, 364136, Control_c, 0, 64, 108
1, 364142, Note_on_c, 0, 82, 99
1, 364149, Note_on_c, 0, 73, 101
1, 364151, Control_c, 0, 64, 90
1, 364152, Note_on_c, 0, 66, 100
1, 364155, Note_on_c, 0, 61, 84
1, 364165, Control_c, 0, 64, 73
1, 364180, Control_c, 0, 64, 0
1, 364297, Note_on_c, 0, 83, 80
1, 364298, Control_c, 0, 64, 68
1, 364313, Control_c, 0, 64, 84
1, 364315, Note_off_c, 0, 82, 62
1, 364328, Control_c, 0, 64, 102
1, 364333, Note_off_c, 0, 73, 64
1, 364344, Note_off_c, 0, 83, 63
1, 364344, Control_c, 0, 64, 112
1, 364359, Control_c, 0, 64, 113
1, 364366, Note_off_c, 0, 66, 68
1, 364373, Control_c, 0, 64, 114
1, 364375, Note_off_c, 0, 61, 64
1, 364388, Control_c, 0, 64, 116
1, 364403, Control_c, 0, 64, 117
1, 364413, Note_on_c, 0, 83, 94
1, 364417, Control_c, 0, 64, 118
1, 364499, Note_on_c, 0, 82, 90
1, 364517, Note_off_c, 0, 83, 56
1, 364554, Note_off_c, 0, 82, 66
1, 364567, Control_c, 0, 64, 117
1, 364581, Note_on_c, 0, 65, 85
1, 364581, Note_on_c, 0, 53, 84
1, 364599, Note_on_c, 0, 82, 89
1, 364611, Note_off_c, 0, 53, 68
1, 364622, Note_off_c, 0, 65, 66
1, 364656, Control_c, 0, 64, 118
1, 364670, Control_c, 0, 64, 119
1, 364685, Control_c, 0, 64, 124
1, 364691, Note_on_c, 0, 80, 92
1, 364691, Note_off_c, 0, 82, 61
1, 364700, Control_c, 0, 64, 127
1, 364742, Note_off_c, 0, 80, 65
1, 364760, Control_c, 0, 64, 120
1, 364775, Control_c, 0, 64, 98
1, 364789, Control_c, 0, 64, 76
1, 364789, Note_on_c, 0, 73, 96
1, 364792, Note_on_c, 0, 64, 76
1, 364793, Note_on_c, 0, 61, 87
1, 364798, Note_on_c, 0, 80, 94
1, 364804, Control_c, 0, 64, 0
1, 364870, Control_c, 0, 64, 62
1, 364885, Control_c, 0, 64, 77
1, 364900, Control_c, 0, 64, 92
1, 364906, Note_on_c, 0, 79, 90
1, 364915, Control_c, 0, 64, 108
1, 364921, Note_off_c, 0, 80, 62
1, 364930, Control_c, 0, 64, 113
1, 364944, Control_c, 0, 64, 117
1, 364959, Note_off_c, 0, 73, 64
1, 364959, Control_c, 0, 64, 121
1, 364964, Note_off_c, 0, 79, 64
1, 364974, Control_c, 0, 64, 127
1, 364989, Control_c, 0, 64, 127
1, 365001, Note_on_c, 0, 79, 83
1, 365001, Note_off_c, 0, 64, 65
1, 365016, Note_off_c, 0, 61, 63
1, 365057, Note_off_c, 0, 79, 61
1, 365098, Note_on_c, 0, 83, 90
1, 365140, Note_off_c, 0, 83, 62
1, 365190, Note_on_c, 0, 65, 87
1, 365192, Note_on_c, 0, 53, 84
1, 365195, Note_on_c, 0, 83, 96
1, 365231, Note_off_c, 0, 53, 66
1, 365232, Note_off_c, 0, 65, 66
1, 365296, Note_on_c, 0, 82, 97
1, 365314, Note_off_c, 0, 83, 58
1, 365353, Note_off_c, 0, 82, 64
1, 365404, Control_c, 0, 64, 115
1, 365414, Note_on_c, 0, 82, 95
1, 365415, Note_on_c, 0, 66, 95
1, 365417, Note_on_c, 0, 63, 97
1, 365418, Control_c, 0, 64, 85
1, 365424, Note_on_c, 0, 56, 82
1, 365433, Control_c, 0, 64, 63
1, 365448, Control_c, 0, 64, 0
1, 365493, Control_c, 0, 64, 27
1, 365508, Control_c, 0, 64, 71
1, 365520, Note_on_c, 0, 80, 91
1, 365523, Control_c, 0, 64, 80
1, 365537, Control_c, 0, 64, 88
1, 365545, Note_off_c, 0, 82, 59
1, 365552, Control_c, 0, 64, 93
1, 365567, Control_c, 0, 64, 97
1, 365582, Control_c, 0, 64, 103
1, 365585, Note_off_c, 0, 80, 64
1, 365597, Control_c, 0, 64, 108
1, 365618, Control_c, 0, 64, 111
1, 365626, Poly_aftertouch_c, 0, 80, 0
1, 365631, Note_on_c, 0, 80, 78
1, 365633, Control_c, 0, 64, 114
1, 365640, Note_off_c, 0, 66, 58
1, 365648, Control_c, 0, 64, 116
1, 365663, Control_c, 0, 64, 120
1, 365678, Control_c, 0, 64, 124
1, 365693, Control_c, 0, 64, 127
1, 365720, Note_on_c, 0, 85, 91
1, 365729, Note_off_c, 0, 80, 61
1, 365760, Note_off_c, 0, 63, 57
1, 365764, Note_off_c, 0, 85, 64
1, 365812, Note_off_c, 0, 56, 0
1, 365819, Note_on_c, 0, 65, 86
1, 365819, Note_on_c, 0, 85, 90
1, 365826, Note_on_c, 0, 58, 78
1, 365838, Note_on_c, 0, 56, 27
1, 365864, Note_off_c, 0, 56, 56
1, 365868, Note_off_c, 0, 65, 65
1, 365872, Note_off_c, 0, 58, 65
1, 365923, Note_on_c, 0, 83, 88
1, 365924, Note_off_c, 0, 85, 64
1, 365984, Note_off_c, 0, 83, 61
1, 366018, Control_c, 0, 64, 113
1, 366029, Note_on_c, 0, 66, 92
1, 366030, Note_on_c, 0, 63, 97
1, 366033, Control_c, 0, 64, 88
1, 366035, Note_on_c, 0, 83, 88
1, 366048, Control_c, 0, 64, 66
1, 366062, Control_c, 0, 64, 0
1, 366107, Control_c, 0, 64, 44
1, 366122, Control_c, 0, 64, 71
1, 366138, Control_c, 0, 64, 82
1, 366142, Note_off_c, 0, 83, 53
1, 366149, Note_on_c, 0, 82, 90
1, 366152, Control_c, 0, 64, 91
1, 366167, Control_c, 0, 64, 96
1, 366182, Control_c, 0, 64, 101
1, 366197, Control_c, 0, 64, 106
1, 366199, Note_off_c, 0, 82, 64
1, 366212, Control_c, 0, 64, 111
1, 366227, Control_c, 0, 64, 114
1, 366241, Control_c, 0, 64, 116
1, 366248, Note_on_c, 0, 82, 85
1, 366256, Control_c, 0, 64, 118
1, 366264, Note_off_c, 0, 66, 62
1, 366271, Control_c, 0, 64, 124
1, 366286, Control_c, 0, 64, 127
1, 366315, Note_off_c, 0, 63, 56
1, 366345, Note_on_c, 0, 87, 94
1, 366369, Note_off_c, 0, 82, 59
1, 366438, Note_off_c, 0, 87, 58
1, 366444, Note_on_c, 0, 68, 99
1, 366449, Note_on_c, 0, 65, 86
1, 366451, Note_on_c, 0, 89, 95
1, 366453, Note_on_c, 0, 61, 80
1, 366527, Note_off_c, 0, 68, 61
1, 366529, Note_off_c, 0, 61, 61
1, 366550, Note_on_c, 0, 90, 93
1, 366567, Note_off_c, 0, 89, 63
1, 366599, Note_off_c, 0, 65, 36
1, 366623, Note_off_c, 0, 90, 62
1, 366634, Control_c, 0, 64, 115
1, 366649, Control_c, 0, 64, 88
1, 366653, Note_on_c, 0, 89, 95
1, 366658, Note_on_c, 0, 70, 101
1, 366659, Note_on_c, 0, 65, 88
1, 366664, Control_c, 0, 64, 61
1, 366664, Note_on_c, 0, 58, 91
1, 366679, Control_c, 0, 64, 0
1, 366708, Control_c, 0, 64, 53
1, 366723, Control_c, 0, 64, 72
1, 366738, Control_c, 0, 64, 83
1, 366753, Control_c, 0, 64, 94
1, 366756, Note_on_c, 0, 85, 86
1, 366766, Note_off_c, 0, 89, 63
1, 366767, Control_c, 0, 64, 97
1, 366778, Note_off_c, 0, 70, 58
1, 366782, Control_c, 0, 64, 100
1, 366797, Control_c, 0, 64, 102
1, 366811, Control_c, 0, 64, 103
1, 366825, Note_off_c, 0, 65, 65
1, 366826, Control_c, 0, 64, 104
1, 366851, Note_off_c, 0, 85, 58
1, 366859, Note_on_c, 0, 63, 88
1, 366859, Note_on_c, 0, 89, 89
1, 366871, Control_c, 0, 64, 105
1, 366885, Control_c, 0, 64, 105
1, 366900, Control_c, 0, 64, 106
1, 366915, Control_c, 0, 64, 107
1, 366931, Control_c, 0, 64, 108
1, 366946, Control_c, 0, 64, 111
1, 366954, Note_on_c, 0, 92, 93
1, 366954, Note_on_c, 0, 68, 96
1, 366961, Control_c, 0, 64, 114
1, 366963, Note_off_c, 0, 89, 61
1, 366975, Control_c, 0, 64, 118
1, 366980, Note_off_c, 0, 63, 59
1, 366990, Control_c, 0, 64, 121
1, 366998, Note_off_c, 0, 68, 63
1, 367005, Control_c, 0, 64, 121
1, 367013, Note_off_c, 0, 58, 63
1, 367020, Note_off_c, 0, 92, 65
1, 367020, Control_c, 0, 64, 121
1, 367035, Control_c, 0, 64, 112
1, 367048, Note_on_c, 0, 61, 56
1, 367050, Control_c, 0, 64, 90
1, 367055, Note_on_c, 0, 70, 103
1, 367057, Note_on_c, 0, 90, 103
1, 367060, Note_on_c, 0, 58, 69
1, 367064, Control_c, 0, 64, 72
1, 367079, Control_c, 0, 64, 62
1, 367085, Note_off_c, 0, 58, 70
1, 367094, Control_c, 0, 64, 67
1, 367110, Note_off_c, 0, 61, 63
1, 367116, Note_off_c, 0, 70, 57
1, 367116, Control_c, 0, 64, 77
1, 367131, Control_c, 0, 64, 93
1, 367146, Control_c, 0, 64, 117
1, 367161, Control_c, 0, 64, 127
1, 367168, Note_on_c, 0, 89, 92
1, 367182, Note_off_c, 0, 90, 59
1, 367234, Control_c, 0, 64, 108
1, 367246, Note_off_c, 0, 89, 66
1, 367249, Control_c, 0, 64, 85
1, 367264, Control_c, 0, 64, 64
1, 367267, Note_on_c, 0, 63, 96
1, 367267, Note_on_c, 0, 72, 96
1, 367268, Note_on_c, 0, 68, 86
1, 367273, Note_on_c, 0, 90, 99
1, 367279, Control_c, 0, 64, 0
1, 367308, Control_c, 0, 64, 64
1, 367323, Note_off_c, 0, 72, 64
1, 367323, Control_c, 0, 64, 80
1, 367330, Note_off_c, 0, 63, 65
1, 367339, Control_c, 0, 64, 99
1, 367350, Note_off_c, 0, 68, 65
1, 367354, Control_c, 0, 64, 111
1, 367364, Note_off_c, 0, 90, 60
1, 367369, Control_c, 0, 64, 112
1, 367376, Note_on_c, 0, 89, 86
1, 367383, Control_c, 0, 64, 113
1, 367398, Control_c, 0, 64, 117
1, 367413, Control_c, 0, 64, 121
1, 367428, Control_c, 0, 64, 122
1, 367435, Note_off_c, 0, 89, 64
1, 367457, Control_c, 0, 64, 115
1, 367472, Control_c, 0, 64, 98
1, 367484, Note_on_c, 0, 65, 92
1, 367484, Note_on_c, 0, 75, 99
1, 367485, Note_on_c, 0, 89, 88
1, 367487, Note_on_c, 0, 70, 98
1, 367487, Control_c, 0, 64, 79
1, 367502, Control_c, 0, 64, 61
1, 367511, Note_on_c, 0, 66, 59
1, 367517, Control_c, 0, 64, 0
1, 367533, Note_off_c, 0, 66, 40
1, 367547, Control_c, 0, 64, 57
1, 367555, Note_off_c, 0, 89, 63
1, 367562, Control_c, 0, 64, 72
1, 367577, Control_c, 0, 64, 85
1, 367583, Note_on_c, 0, 87, 90
1, 367591, Control_c, 0, 64, 98
1, 367606, Control_c, 0, 64, 102
1, 367612, Note_off_c, 0, 65, 62
1, 367644, Note_off_c, 0, 75, 61
1, 367645, Note_off_c, 0, 87, 63
1, 367693, Note_on_c, 0, 66, 94
1, 367696, Note_on_c, 0, 87, 77
1, 367709, Control_c, 0, 64, 103
1, 367724, Control_c, 0, 64, 103
1, 367740, Control_c, 0, 64, 105
1, 367752, Note_off_c, 0, 87, 64
1, 367755, Control_c, 0, 64, 106
1, 367770, Control_c, 0, 64, 107
1, 367785, Control_c, 0, 64, 108
1, 367794, Note_on_c, 0, 90, 102
1, 367794, Note_off_c, 0, 70, 0
1, 367797, Note_on_c, 0, 73, 97
1, 367800, Control_c, 0, 64, 111
1, 367806, Poly_aftertouch_c, 0, 86, 0
1, 367814, Control_c, 0, 64, 114
1, 367829, Control_c, 0, 64, 117
1, 367830, Note_off_c, 0, 66, 53
1, 367830, Poly_aftertouch_c, 0, 70, 127
1, 367833, Note_on_c, 0, 70, 24
1, 367835, Note_off_c, 0, 90, 67
1, 367844, Control_c, 0, 64, 119
1, 367859, Note_off_c, 0, 73, 62
1, 367866, Control_c, 0, 64, 120
1, 367871, Note_off_c, 0, 70, 47
1, 367881, Control_c, 0, 64, 121
1, 367896, Control_c, 0, 64, 124
1, 367910, Control_c, 0, 64, 127
1, 367925, Control_c, 0, 64, 127
1, 367985, Control_c, 0, 64, 116
1, 367996, Note_on_c, 0, 72, 92
1, 368000, Control_c, 0, 64, 97
1, 368003, Note_on_c, 0, 82, 108
1, 368003, Note_on_c, 0, 94, 110
1, 368014, Control_c, 0, 64, 81
1, 368029, Control_c, 0, 64, 64
1, 368038, Note_on_c, 0, 92, 46
1, 368044, Control_c, 0, 64, 0
1, 368065, Note_off_c, 0, 92, 41
1, 368124, Note_on_c, 0, 70, 78
1, 368132, Control_c, 0, 64, 70
1, 368147, Control_c, 0, 64, 84
1, 368151, Note_off_c, 0, 72, 61
1, 368162, Control_c, 0, 64, 97
1, 368171, Note_off_c, 0, 70, 60
1, 368177, Control_c, 0, 64, 104
1, 368192, Control_c, 0, 64, 106
1, 368194, Note_off_c, 0, 82, 67
1, 368206, Note_off_c, 0, 94, 64
1, 368206, Control_c, 0, 64, 109
1, 368221, Control_c, 0, 64, 113
1, 368236, Note_on_c, 0, 70, 85
1, 368236, Control_c, 0, 64, 116
1, 368250, Control_c, 0, 64, 117
1, 368265, Control_c, 0, 64, 118
1, 368308, Note_off_c, 0, 70, 59
1, 368325, Control_c, 0, 64, 119
1, 368340, Note_on_c, 0, 68, 84
1, 368399, Note_off_c, 0, 68, 61
1, 368426, Note_on_c, 0, 73, 97
1, 368429, Note_on_c, 0, 85, 101
1, 368429, Control_c, 0, 64, 119
1, 368434, Poly_aftertouch_c, 0, 68, 0
1, 368440, Note_on_c, 0, 68, 80
1, 368444, Control_c, 0, 64, 121
1, 368458, Control_c, 0, 64, 122
1, 368461, Note_off_c, 0, 73, 67
1, 368473, Control_c, 0, 64, 127
1, 368483, Note_off_c, 0, 85, 62
1, 368509, Note_off_c, 0, 68, 63
1, 368536, Note_on_c, 0, 67, 85
1, 368584, Note_off_c, 0, 67, 62
1, 368644, Control_c, 0, 64, 97
1, 368659, Note_on_c, 0, 70, 95
1, 368659, Note_on_c, 0, 94, 110
1, 368659, Note_on_c, 0, 82, 100
1, 368659, Control_c, 0, 64, 76
1, 368674, Control_c, 0, 64, 18
1, 368688, Control_c, 0, 64, 0
1, 368718, Control_c, 0, 64, 67
1, 368733, Control_c, 0, 64, 79
1, 368748, Control_c, 0, 64, 94
1, 368759, Note_on_c, 0, 68, 91
1, 368763, Control_c, 0, 64, 111
1, 368778, Control_c, 0, 64, 121
1, 368778, Note_off_c, 0, 70, 60
1, 368793, Control_c, 0, 64, 127
1, 368816, Note_off_c, 0, 94, 65
1, 368822, Note_off_c, 0, 68, 63
1, 368842, Note_off_c, 0, 82, 62
1, 368863, Note_on_c, 0, 68, 87
1, 368939, Note_off_c, 0, 68, 63
1, 368963, Note_on_c, 0, 67, 82
1, 369008, Note_off_c, 0, 67, 62
1, 369062, Note_on_c, 0, 84, 96
1, 369064, Note_on_c, 0, 72, 93
1, 369068, Note_on_c, 0, 67, 86
1, 369135, Note_off_c, 0, 67, 61
1, 369162, Note_off_c, 0, 72, 64
1, 369167, Note_on_c, 0, 65, 83
1, 369199, Note_off_c, 0, 65, 61
1, 369231, Note_off_c, 0, 84, 60
1, 369250, Control_c, 0, 64, 103
1, 369265, Control_c, 0, 64, 81
1, 369278, Note_on_c, 0, 65, 84
1, 369279, Control_c, 0, 64, 62
1, 369281, Note_on_c, 0, 85, 96
1, 369288, Note_on_c, 0, 73, 92
1, 369294, Control_c, 0, 64, 0
1, 369340, Control_c, 0, 64, 68
1, 369362, Control_c, 0, 64, 80
1, 369377, Control_c, 0, 64, 90
1, 369389, Note_on_c, 0, 68, 92
1, 369392, Control_c, 0, 64, 97
1, 369399, Note_off_c, 0, 65, 62
1, 369407, Control_c, 0, 64, 99
1, 369422, Control_c, 0, 64, 102
1, 369434, Note_off_c, 0, 68, 64
1, 369437, Control_c, 0, 64, 105
1, 369448, Note_off_c, 0, 73, 60
1, 369452, Control_c, 0, 64, 108
1, 369466, Control_c, 0, 64, 109
1, 369481, Control_c, 0, 64, 110
1, 369495, Note_on_c, 0, 68, 90
1, 369496, Control_c, 0, 64, 111
1, 369497, Note_off_c, 0, 85, 63
1, 369510, Control_c, 0, 64, 112
1, 369525, Control_c, 0, 64, 113
1, 369540, Control_c, 0, 64, 115
1, 369550, Note_off_c, 0, 68, 61
1, 369555, Control_c, 0, 64, 118
1, 369570, Control_c, 0, 64, 122
1, 369577, Note_on_c, 0, 87, 90
1, 369580, Note_on_c, 0, 75, 86
1, 369584, Control_c, 0, 64, 127
1, 369591, Note_on_c, 0, 67, 85
1, 369609, Note_off_c, 0, 75, 63
1, 369617, Note_off_c, 0, 87, 64
1, 369631, Note_off_c, 0, 67, 61
1, 369658, Control_c, 0, 64, 110
1, 369673, Control_c, 0, 64, 93
1, 369684, Note_on_c, 0, 67, 86
1, 369684, Note_on_c, 0, 82, 98
1, 369688, Note_on_c, 0, 70, 96
1, 369688, Control_c, 0, 64, 78
1, 369702, Control_c, 0, 64, 68
1, 369717, Control_c, 0, 64, 66
1, 369732, Control_c, 0, 64, 72
1, 369736, Note_off_c, 0, 67, 61
1, 369738, Note_off_c, 0, 70, 61
1, 369747, Control_c, 0, 64, 82
1, 369762, Control_c, 0, 64, 97
1, 369777, Control_c, 0, 64, 112
1, 369782, Note_on_c, 0, 65, 87
1, 369784, Note_off_c, 0, 82, 58
1, 369791, Control_c, 0, 64, 119
1, 369806, Control_c, 0, 64, 120
1, 369833, Note_off_c, 0, 65, 64
1, 369836, Control_c, 0, 64, 116
1, 369851, Control_c, 0, 64, 101
1, 369866, Control_c, 0, 64, 83
1, 369881, Control_c, 0, 64, 68
1, 369893, Note_on_c, 0, 70, 91
1, 369896, Control_c, 0, 64, 50
1, 369899, Note_on_c, 0, 85, 103
1, 369901, Note_on_c, 0, 73, 103
1, 369910, Control_c, 0, 64, 62
1, 369925, Control_c, 0, 64, 72
1, 369937, Note_off_c, 0, 73, 65
1, 369940, Control_c, 0, 64, 84
1, 369955, Control_c, 0, 64, 98
1, 369958, Note_off_c, 0, 85, 63
1, 369960, Note_off_c, 0, 70, 62
1, 369969, Control_c, 0, 64, 105
1, 369984, Control_c, 0, 64, 106
1, 369999, Control_c, 0, 64, 109
1, 370005, Note_on_c, 0, 68, 86
1, 370014, Control_c, 0, 64, 115
1, 370028, Control_c, 0, 64, 120
1, 370043, Control_c, 0, 64, 121
1, 370049, Note_off_c, 0, 68, 64
1, 370073, Control_c, 0, 64, 121
1, 370088, Control_c, 0, 64, 112
1, 370110, Control_c, 0, 64, 94
1, 370125, Control_c, 0, 64, 77
1, 370128, Note_on_c, 0, 68, 90
1, 370129, Note_on_c, 0, 89, 101
1, 370133, Note_on_c, 0, 77, 108
1, 370140, Control_c, 0, 64, 64
1, 370155, Control_c, 0, 64, 26
1, 370170, Control_c, 0, 64, 34
1, 370183, Note_off_c, 0, 68, 62
1, 370185, Control_c, 0, 64, 58
1, 370200, Control_c, 0, 64, 70
1, 370215, Control_c, 0, 64, 79
1, 370230, Control_c, 0, 64, 89
1, 370233, Note_on_c, 0, 67, 85
1, 370245, Control_c, 0, 64, 95
1, 370259, Control_c, 0, 64, 97
1, 370274, Control_c, 0, 64, 99
1, 370279, Note_off_c, 0, 67, 61
1, 370280, Note_off_c, 0, 89, 62
1, 370289, Control_c, 0, 64, 101
1, 370299, Note_off_c, 0, 77, 59
1, 370304, Control_c, 0, 64, 103
1, 370345, Poly_aftertouch_c, 0, 82, 127
1, 370346, Note_on_c, 0, 67, 73
1, 370377, Poly_aftertouch_c, 0, 82, 0
1, 370382, Note_off_c, 0, 67, 57
1, 370448, Note_on_c, 0, 87, 82
1, 370453, Note_on_c, 0, 70, 84
1, 370456, Note_on_c, 0, 75, 87
1, 370466, Control_c, 0, 64, 103
1, 370495, Note_off_c, 0, 75, 60
1, 370498, Note_off_c, 0, 70, 63
1, 370498, Note_off_c, 0, 87, 63
1, 370554, Note_on_c, 0, 85, 101
1, 370555, Control_c, 0, 64, 97
1, 370559, Note_on_c, 0, 73, 101
1, 370560, Note_on_c, 0, 70, 92
1, 370570, Control_c, 0, 64, 85
1, 370585, Control_c, 0, 64, 69
1, 370599, Control_c, 0, 64, 55
1, 370614, Control_c, 0, 64, 50
1, 370626, Note_off_c, 0, 70, 56
1, 370629, Control_c, 0, 64, 61
1, 370644, Control_c, 0, 64, 69
1, 370653, Note_on_c, 0, 68, 83
1, 370659, Control_c, 0, 64, 81
1, 370674, Control_c, 0, 64, 98
1, 370689, Control_c, 0, 64, 108
1, 370704, Note_off_c, 0, 68, 64
1, 370704, Control_c, 0, 64, 109
1, 370733, Control_c, 0, 64, 108
1, 370748, Note_off_c, 0, 73, 57
1, 370748, Control_c, 0, 64, 99
1, 370748, Note_on_c, 0, 68, 88
1, 370763, Control_c, 0, 64, 87
1, 370778, Control_c, 0, 64, 77
1, 370791, Note_off_c, 0, 85, 60
1, 370793, Control_c, 0, 64, 73
1, 370807, Control_c, 0, 64, 74
1, 370808, Note_off_c, 0, 68, 62
1, 370822, Control_c, 0, 64, 78
1, 370837, Control_c, 0, 64, 87
1, 370853, Note_on_c, 0, 67, 89
1, 370859, Control_c, 0, 64, 100
1, 370864, Note_on_c, 0, 87, 89
1, 370867, Note_on_c, 0, 75, 84
1, 370873, Control_c, 0, 64, 116
1, 370888, Control_c, 0, 64, 121
1, 370892, Note_off_c, 0, 67, 66
1, 370895, Note_off_c, 0, 75, 66
1, 370903, Note_off_c, 0, 87, 64
1, 370903, Control_c, 0, 64, 122
1, 370934, Control_c, 0, 64, 121
1, 370948, Control_c, 0, 64, 105
1, 370963, Control_c, 0, 64, 83
1, 370968, Note_on_c, 0, 82, 100
1, 370970, Note_on_c, 0, 67, 95
1, 370972, Note_on_c, 0, 70, 96
1, 370978, Control_c, 0, 64, 66
1, 370993, Control_c, 0, 64, 36
1, 371008, Control_c, 0, 64, 56
1, 371023, Control_c, 0, 64, 68
1, 371026, Note_off_c, 0, 67, 59
1, 371037, Control_c, 0, 64, 78
1, 371052, Control_c, 0, 64, 89
1, 371067, Control_c, 0, 64, 99
1, 371075, Note_on_c, 0, 66, 94
1, 371082, Control_c, 0, 64, 100
1, 371085, Note_off_c, 0, 70, 59
1, 371097, Control_c, 0, 64, 100
1, 371112, Control_c, 0, 64, 101
1, 371127, Note_off_c, 0, 66, 65
1, 371142, Control_c, 0, 64, 99
1, 371156, Control_c, 0, 64, 87
1, 371171, Control_c, 0, 64, 69
1, 371186, Control_c, 0, 64, 0
1, 371202, Note_on_c, 0, 66, 105
1, 371229, Note_off_c, 0, 82, 59
1, 371274, Control_c, 0, 64, 62
1, 371289, Control_c, 0, 64, 78
1, 371304, Control_c, 0, 64, 89
1, 371319, Control_c, 0, 64, 97
1, 371322, Note_on_c, 0, 84, 88
1, 371327, Note_on_c, 0, 72, 86
1, 371334, Control_c, 0, 64, 99
1, 371348, Control_c, 0, 64, 105
1, 371360, Note_off_c, 0, 72, 61
1, 371362, Note_off_c, 0, 84, 66
1, 371363, Control_c, 0, 64, 111
1, 371378, Control_c, 0, 64, 115
1, 371392, Note_off_c, 0, 66, 65
1, 371393, Control_c, 0, 64, 117
1, 371407, Control_c, 0, 64, 118
1, 371422, Note_on_c, 0, 84, 89
1, 371422, Control_c, 0, 64, 118
1, 371433, Note_on_c, 0, 72, 83
1, 371437, Control_c, 0, 64, 121
1, 371452, Control_c, 0, 64, 125
1, 371453, Note_off_c, 0, 72, 72
1, 371461, Note_off_c, 0, 84, 70
1, 371467, Control_c, 0, 64, 127
1, 371521, Note_on_c, 0, 85, 97
1, 371526, Note_on_c, 0, 73, 93
1, 371561, Note_off_c, 0, 85, 67
1, 371562, Note_off_c, 0, 73, 58
1, 371630, Note_on_c, 0, 85, 102
1, 371636, Note_on_c, 0, 65, 91
1, 371636, Note_on_c, 0, 73, 78
1, 371651, Note_off_c, 0, 73, 69
1, 371668, Note_off_c, 0, 85, 66
1, 371740, Note_on_c, 0, 94, 99
1, 371743, Note_on_c, 0, 82, 93
1, 371775, Note_off_c, 0, 65, 61
1, 371780, Note_off_c, 0, 82, 64
1, 371780, Note_off_c, 0, 94, 66
1, 371816, Control_c, 0, 64, 92
1, 371830, Control_c, 0, 64, 64
1, 371843, Note_on_c, 0, 73, 106
1, 371845, Control_c, 0, 64, 0
1, 371848, Note_on_c, 0, 94, 99
1, 371848, Note_on_c, 0, 82, 100
1, 371890, Control_c, 0, 64, 65
1, 371892, Note_off_c, 0, 82, 62
1, 371893, Note_off_c, 0, 94, 66
1, 371905, Control_c, 0, 64, 79
1, 371920, Control_c, 0, 64, 94
1, 371935, Control_c, 0, 64, 103
1, 371950, Control_c, 0, 64, 108
1, 371956, Note_on_c, 0, 92, 98
1, 371959, Note_on_c, 0, 80, 96
1, 371964, Control_c, 0, 64, 114
1, 371979, Control_c, 0, 64, 121
1, 371993, Note_off_c, 0, 92, 68
1, 371994, Control_c, 0, 64, 127
1, 371997, Note_off_c, 0, 80, 61
1, 372041, Note_off_c, 0, 73, 59
1, 372054, Note_on_c, 0, 92, 105
1, 372065, Note_on_c, 0, 80, 79
1, 372077, Note_off_c, 0, 80, 72
1, 372093, Note_off_c, 0, 92, 67
1, 372096, Note_on_c, 0, 93, 40
1, 372125, Note_off_c, 0, 93, 44
1, 372161, Note_on_c, 0, 99, 101
1, 372161, Note_on_c, 0, 87, 94
1, 372197, Note_off_c, 0, 87, 65
1, 372199, Note_off_c, 0, 99, 66
1, 372260, Note_on_c, 0, 72, 82
1, 372264, Note_on_c, 0, 99, 99
1, 372266, Note_on_c, 0, 87, 98
1, 372279, Note_off_c, 0, 72, 73
1, 372291, Note_off_c, 0, 87, 64
1, 372299, Note_off_c, 0, 99, 67
1, 372300, Note_on_c, 0, 97, 40
1, 372332, Note_off_c, 0, 97, 38
1, 372391, Note_on_c, 0, 80, 91
1, 372392, Note_on_c, 0, 92, 98
1, 372403, Note_off_c, 0, 80, 74
1, 372406, Note_off_c, 0, 92, 76
1, 372414, Note_on_c, 0, 78, 55
1, 372415, Note_off_c, 0, 78, 127
1, 372611, Note_on_c, 0, 54, 81
1, 372615, Note_on_c, 0, 82, 104
1, 372618, Note_on_c, 0, 73, 98
1, 372621, Note_on_c, 0, 70, 96
1, 372624, Control_c, 0, 64, 96
1, 372639, Control_c, 0, 64, 73
1, 372653, Control_c, 0, 64, 0
1, 372671, Note_on_c, 0, 83, 8
1, 372704, Note_off_c, 0, 83, 35
1, 372757, Control_c, 0, 64, 71
1, 372772, Control_c, 0, 64, 86
1, 372776, Note_on_c, 0, 58, 72
1, 372787, Control_c, 0, 64, 103
1, 372799, Note_off_c, 0, 82, 60
1, 372802, Control_c, 0, 64, 110
1, 372817, Control_c, 0, 64, 114
1, 372831, Note_off_c, 0, 58, 63
1, 372832, Control_c, 0, 64, 121
1, 372841, Note_off_c, 0, 54, 55
1, 372845, Note_off_c, 0, 70, 58
1, 372846, Control_c, 0, 64, 127
1, 372861, Note_off_c, 0, 73, 60
1, 372891, Note_on_c, 0, 58, 75
1, 372963, Note_off_c, 0, 58, 56
1, 372983, Note_on_c, 0, 56, 77
1, 373026, Note_off_c, 0, 56, 60
1, 373064, Note_on_c, 0, 70, 73
1, 373067, Note_on_c, 0, 73, 93
1, 373067, Note_on_c, 0, 61, 91
1, 373076, Note_on_c, 0, 56, 75
1, 373114, Note_off_c, 0, 61, 64
1, 373144, Note_off_c, 0, 73, 62
1, 373145, Note_off_c, 0, 70, 65
1, 373151, Note_off_c, 0, 56, 62
1, 373190, Note_on_c, 0, 54, 71
1, 373238, Note_off_c, 0, 54, 59
1, 373283, Control_c, 0, 64, 124
1, 373298, Control_c, 0, 64, 100
1, 373301, Note_on_c, 0, 82, 101
1, 373303, Note_on_c, 0, 73, 91
1, 373306, Note_on_c, 0, 54, 74
1, 373307, Note_on_c, 0, 70, 88
1, 373313, Control_c, 0, 64, 82
1, 373329, Control_c, 0, 64, 66
1, 373344, Control_c, 0, 64, 23
1, 373358, Control_c, 0, 64, 45
1, 373373, Control_c, 0, 64, 66
1, 373374, Note_off_c, 0, 54, 61
1, 373388, Control_c, 0, 64, 76
1, 373403, Control_c, 0, 64, 88
1, 373416, Note_on_c, 0, 53, 77
1, 373418, Control_c, 0, 64, 101
1, 373422, Note_off_c, 0, 82, 63
1, 373432, Control_c, 0, 64, 110
1, 373447, Control_c, 0, 64, 115
1, 373452, Note_off_c, 0, 53, 66
1, 373462, Control_c, 0, 64, 118
1, 373463, Note_off_c, 0, 70, 63
1, 373476, Control_c, 0, 64, 120
1, 373484, Note_off_c, 0, 73, 57
1, 373491, Control_c, 0, 64, 121
1, 373506, Control_c, 0, 64, 122
1, 373521, Note_on_c, 0, 53, 78
1, 373521, Control_c, 0, 64, 126
1, 373536, Control_c, 0, 64, 127
1, 373573, Note_off_c, 0, 53, 63
1, 373613, Note_on_c, 0, 58, 82
1, 373647, Note_off_c, 0, 58, 62
1, 373705, Note_on_c, 0, 73, 89
1, 373708, Note_on_c, 0, 61, 89
1, 373708, Note_on_c, 0, 70, 89
1, 373710, Note_on_c, 0, 58, 87
1, 373746, Note_off_c, 0, 61, 61
1, 373765, Note_off_c, 0, 58, 62
1, 373768, Note_off_c, 0, 70, 65
1, 373770, Note_off_c, 0, 73, 63
1, 373813, Note_on_c, 0, 56, 71
1, 373875, Note_off_c, 0, 56, 64
1, 373961, Note_on_c, 0, 77, 96
1, 373962, Note_on_c, 0, 66, 99
1, 373962, Note_on_c, 0, 73, 89
1, 373968, Note_on_c, 0, 56, 74
1, 373973, Control_c, 0, 64, 126
1, 373988, Control_c, 0, 64, 101
1, 374001, Note_on_c, 0, 76, 39
1, 374002, Control_c, 0, 64, 84
1, 374017, Control_c, 0, 64, 67
1, 374027, Note_off_c, 0, 76, 49
1, 374032, Note_off_c, 0, 56, 63
1, 374032, Control_c, 0, 64, 0
1, 374077, Control_c, 0, 64, 67
1, 374078, Note_on_c, 0, 54, 73
1, 374092, Control_c, 0, 64, 76
1, 374107, Control_c, 0, 64, 85
1, 374116, Note_off_c, 0, 54, 63
1, 374123, Control_c, 0, 64, 94
1, 374138, Control_c, 0, 64, 99
1, 374152, Control_c, 0, 64, 101
1, 374167, Control_c, 0, 64, 103
1, 374185, Note_on_c, 0, 54, 77
1, 374245, Note_off_c, 0, 54, 61
1, 374274, Note_on_c, 0, 59, 78
1, 374313, Note_off_c, 0, 59, 62
1, 374331, Note_off_c, 0, 77, 55
1, 374339, Note_off_c, 0, 66, 63
1, 374342, Note_off_c, 0, 73, 62
1, 374373, Note_on_c, 0, 71, 89
1, 374375, Note_on_c, 0, 75, 94
1, 374376, Note_on_c, 0, 59, 78
1, 374431, Note_off_c, 0, 59, 62
1, 374448, Control_c, 0, 64, 103
1, 374463, Control_c, 0, 64, 106
1, 374478, Control_c, 0, 64, 113
1, 374479, Note_on_c, 0, 58, 80
1, 374492, Control_c, 0, 64, 123
1, 374507, Control_c, 0, 64, 127
1, 374527, Note_off_c, 0, 58, 63
1, 374549, Note_off_c, 0, 75, 61
1, 374560, Note_off_c, 0, 71, 59
1, 374567, Control_c, 0, 64, 110
1, 374582, Control_c, 0, 64, 93
1, 374583, Note_on_c, 0, 77, 92
1, 374586, Note_on_c, 0, 58, 81
1, 374588, Note_on_c, 0, 68, 95
1, 374596, Note_on_c, 0, 73, 94
1, 374604, Control_c, 0, 64, 72
1, 374619, Control_c, 0, 64, 0
1, 374656, Note_off_c, 0, 58, 65
1, 374663, Control_c, 0, 64, 67
1, 374678, Control_c, 0, 64, 77
1, 374693, Control_c, 0, 64, 90
1, 374702, Note_on_c, 0, 56, 81
1, 374707, Control_c, 0, 64, 100
1, 374718, Note_off_c, 0, 77, 58
1, 374722, Control_c, 0, 64, 112
1, 374737, Control_c, 0, 64, 121
1, 374748, Note_off_c, 0, 56, 61
1, 374752, Control_c, 0, 64, 122
1, 374781, Control_c, 0, 64, 123
1, 374796, Control_c, 0, 64, 124
1, 374801, Note_on_c, 0, 56, 77
1, 374811, Control_c, 0, 64, 127
1, 374857, Note_off_c, 0, 56, 65
1, 374907, Note_on_c, 0, 61, 87
1, 374933, Note_off_c, 0, 68, 53
1, 374969, Note_off_c, 0, 73, 61
1, 374996, Note_on_c, 0, 78, 100
1, 374999, Note_on_c, 0, 71, 91
1, 375004, Note_on_c, 0, 63, 94
1, 375023, Note_off_c, 0, 61, 61
1, 375036, Note_off_c, 0, 71, 65
1, 375082, Note_off_c, 0, 78, 60
1, 375106, Note_off_c, 0, 63, 62
1, 375107, Note_on_c, 0, 65, 82
1, 375197, Control_c, 0, 64, 104
1, 375200, Note_off_c, 0, 65, 54
1, 375205, Note_on_c, 0, 80, 100
1, 375208, Note_on_c, 0, 63, 90
1, 375208, Note_on_c, 0, 77, 89
1, 375209, Note_on_c, 0, 71, 94
1, 375212, Control_c, 0, 64, 83
1, 375227, Control_c, 0, 64, 63
1, 375241, Control_c, 0, 64, 0
1, 375286, Control_c, 0, 64, 36
1, 375301, Control_c, 0, 64, 68
1, 375307, Note_on_c, 0, 59, 81
1, 375309, Note_off_c, 0, 63, 62
1, 375315, Control_c, 0, 64, 77
1, 375330, Control_c, 0, 64, 86
1, 375353, Control_c, 0, 64, 91
1, 375368, Control_c, 0, 64, 93
1, 375383, Control_c, 0, 64, 95
1, 375397, Control_c, 0, 64, 98
1, 375412, Control_c, 0, 64, 101
1, 375414, Note_off_c, 0, 59, 57
1, 375419, Note_on_c, 0, 63, 89
1, 375427, Control_c, 0, 64, 103
1, 375428, Note_off_c, 0, 80, 59
1, 375442, Control_c, 0, 64, 104
1, 375445, Note_off_c, 0, 71, 56
1, 375456, Control_c, 0, 64, 105
1, 375458, Note_off_c, 0, 77, 59
1, 375471, Control_c, 0, 64, 105
1, 375486, Control_c, 0, 64, 107
1, 375500, Note_off_c, 0, 63, 52
1, 375501, Control_c, 0, 64, 109
1, 375515, Note_on_c, 0, 66, 87
1, 375516, Control_c, 0, 64, 112
1, 375520, Note_on_c, 0, 78, 84
1, 375523, Note_on_c, 0, 75, 81
1, 375530, Control_c, 0, 64, 116
1, 375545, Control_c, 0, 64, 120
1, 375553, Note_on_c, 0, 71, 50
1, 375556, Note_off_c, 0, 75, 60
1, 375558, Note_off_c, 0, 78, 60
1, 375560, Control_c, 0, 64, 123
1, 375572, Note_off_c, 0, 66, 65
1, 375574, Control_c, 0, 64, 124
1, 375577, Note_off_c, 0, 71, 55
1, 375604, Control_c, 0, 64, 118
1, 375610, Note_on_c, 0, 65, 93
1, 375617, Note_on_c, 0, 80, 102
1, 375619, Control_c, 0, 64, 101
1, 375620, Note_on_c, 0, 73, 92
1, 375626, Note_on_c, 0, 71, 90
1, 375634, Control_c, 0, 64, 83
1, 375648, Control_c, 0, 64, 65
1, 375663, Control_c, 0, 64, 31
1, 375678, Control_c, 0, 64, 49
1, 375686, Note_off_c, 0, 65, 64
1, 375693, Control_c, 0, 64, 67
1, 375703, Note_off_c, 0, 73, 57
1, 375708, Control_c, 0, 64, 81
1, 375714, Note_on_c, 0, 63, 90
1, 375723, Control_c, 0, 64, 100
1, 375738, Control_c, 0, 64, 120
1, 375753, Control_c, 0, 64, 122
1, 375774, Note_off_c, 0, 71, 53
1, 375776, Note_off_c, 0, 80, 59
1, 375783, Control_c, 0, 64, 118
1, 375783, Note_off_c, 0, 63, 64
1, 375798, Control_c, 0, 64, 103
1, 375813, Control_c, 0, 64, 86
1, 375818, Note_on_c, 0, 65, 89
1, 375827, Control_c, 0, 64, 69
1, 375834, Note_on_c, 0, 78, 91
1, 375837, Note_on_c, 0, 75, 96
1, 375839, Note_on_c, 0, 71, 87
1, 375842, Control_c, 0, 64, 0
1, 375871, Control_c, 0, 64, 64
1, 375885, Note_off_c, 0, 71, 60
1, 375886, Control_c, 0, 64, 76
1, 375893, Note_off_c, 0, 65, 59
1, 375901, Control_c, 0, 64, 89
1, 375916, Control_c, 0, 64, 105
1, 375919, Note_off_c, 0, 78, 63
1, 375923, Note_on_c, 0, 63, 87
1, 375924, Note_off_c, 0, 75, 58
1, 375931, Control_c, 0, 64, 113
1, 375945, Control_c, 0, 64, 117
1, 375960, Control_c, 0, 64, 125
1, 375975, Control_c, 0, 64, 127
1, 375984, Note_off_c, 0, 63, 63
1, 376034, Control_c, 0, 64, 121
1, 376046, Note_on_c, 0, 63, 94
1, 376049, Control_c, 0, 64, 96
1, 376051, Note_on_c, 0, 82, 105
1, 376054, Note_on_c, 0, 78, 108
1, 376055, Note_on_c, 0, 71, 98
1, 376063, Control_c, 0, 64, 75
1, 376078, Control_c, 0, 64, 0
1, 376086, Note_on_c, 0, 80, 55
1, 376110, Note_off_c, 0, 63, 67
1, 376116, Note_off_c, 0, 80, 58
1, 376145, Control_c, 0, 64, 47
1, 376156, Note_on_c, 0, 61, 88
1, 376160, Control_c, 0, 64, 71
1, 376175, Control_c, 0, 64, 80
1, 376190, Control_c, 0, 64, 87
1, 376204, Control_c, 0, 64, 92
1, 376209, Note_off_c, 0, 61, 63
1, 376219, Control_c, 0, 64, 97
1, 376234, Control_c, 0, 64, 104
1, 376249, Control_c, 0, 64, 108
1, 376264, Control_c, 0, 64, 109
1, 376272, Note_on_c, 0, 61, 81
1, 376278, Control_c, 0, 64, 110
1, 376296, Note_off_c, 0, 71, 48
1, 376333, Note_off_c, 0, 78, 52
1, 376334, Note_off_c, 0, 82, 60
1, 376337, Note_off_c, 0, 61, 62
1, 376381, Note_on_c, 0, 65, 85
1, 376381, Note_on_c, 0, 80, 87
1, 376382, Control_c, 0, 64, 111
1, 376385, Note_on_c, 0, 77, 95
1, 376397, Control_c, 0, 64, 112
1, 376406, Note_off_c, 0, 65, 68
1, 376412, Control_c, 0, 64, 114
1, 376427, Note_off_c, 0, 77, 63
1, 376427, Control_c, 0, 64, 118
1, 376442, Control_c, 0, 64, 123
1, 376443, Note_off_c, 0, 80, 64
1, 376457, Control_c, 0, 64, 127
1, 376576, Control_c, 0, 64, 117
1, 376588, Note_on_c, 0, 66, 92
1, 376589, Note_on_c, 0, 63, 97
1, 376590, Note_on_c, 0, 71, 93
1, 376591, Control_c, 0, 64, 99
1, 376606, Control_c, 0, 64, 83
1, 376620, Control_c, 0, 64, 66
1, 376635, Control_c, 0, 64, 0
1, 376759, Note_on_c, 0, 75, 75
1, 376768, Control_c, 0, 64, 39
1, 376783, Control_c, 0, 64, 70
1, 376791, Note_off_c, 0, 71, 52
1, 376798, Control_c, 0, 64, 82
1, 376812, Control_c, 0, 64, 90
1, 376813, Note_off_c, 0, 75, 65
1, 376827, Control_c, 0, 64, 94
1, 376850, Control_c, 0, 64, 97
1, 376865, Control_c, 0, 64, 100
1, 376868, Note_on_c, 0, 75, 77
1, 376880, Control_c, 0, 64, 102
1, 376894, Control_c, 0, 64, 103
1, 376909, Control_c, 0, 64, 103
1, 376966, Note_on_c, 0, 73, 91
1, 376968, Control_c, 0, 64, 104
1, 376981, Note_off_c, 0, 75, 34
1, 377017, Note_off_c, 0, 73, 61
1, 377041, Note_off_c, 0, 63, 60
1, 377042, Note_off_c, 0, 66, 54
1, 377066, Note_on_c, 0, 73, 87
1, 377079, Note_on_c, 0, 54, 86
1, 377132, Control_c, 0, 64, 104
1, 377142, Note_off_c, 0, 73, 59
1, 377162, Control_c, 0, 64, 105
1, 377174, Note_on_c, 0, 71, 77
1, 377191, Control_c, 0, 64, 105
1, 377223, Note_off_c, 0, 71, 63
1, 377265, Control_c, 0, 64, 105
1, 377278, Note_on_c, 0, 71, 86
1, 377280, Control_c, 0, 64, 99
1, 377285, Note_on_c, 0, 66, 93
1, 377290, Note_on_c, 0, 63, 87
1, 377294, Control_c, 0, 64, 89
1, 377309, Control_c, 0, 64, 78
1, 377325, Control_c, 0, 64, 66
1, 377329, Note_off_c, 0, 54, 61
1, 377340, Control_c, 0, 64, 40
1, 377355, Control_c, 0, 64, 0
1, 377392, Note_off_c, 0, 71, 58
1, 377400, Note_on_c, 0, 70, 83
1, 377414, Control_c, 0, 64, 49
1, 377429, Control_c, 0, 64, 68
1, 377443, Control_c, 0, 64, 77
1, 377453, Note_off_c, 0, 70, 63
1, 377458, Control_c, 0, 64, 87
1, 377473, Control_c, 0, 64, 95
1, 377488, Control_c, 0, 64, 101
1, 377502, Note_on_c, 0, 70, 82
1, 377503, Control_c, 0, 64, 104
1, 377518, Control_c, 0, 64, 107
1, 377533, Control_c, 0, 64, 109
1, 377548, Control_c, 0, 64, 111
1, 377563, Control_c, 0, 64, 113
1, 377578, Note_off_c, 0, 70, 59
1, 377578, Control_c, 0, 64, 114
1, 377599, Control_c, 0, 64, 115
1, 377604, Note_on_c, 0, 75, 81
1, 377614, Control_c, 0, 64, 117
1, 377618, Note_off_c, 0, 66, 57
1, 377629, Control_c, 0, 64, 117
1, 377651, Note_off_c, 0, 75, 65
1, 377658, Control_c, 0, 64, 118
1, 377673, Control_c, 0, 64, 118
1, 377679, Note_off_c, 0, 63, 61
1, 377688, Control_c, 0, 64, 119
1, 377694, Note_on_c, 0, 54, 81
1, 377703, Control_c, 0, 64, 120
1, 377706, Note_on_c, 0, 75, 86
1, 377718, Control_c, 0, 64, 121
1, 377733, Control_c, 0, 64, 123
1, 377747, Control_c, 0, 64, 125
1, 377762, Control_c, 0, 64, 127
1, 377777, Control_c, 0, 64, 127
1, 377797, Note_off_c, 0, 75, 0
1, 377811, Note_on_c, 0, 73, 88
1, 377844, Poly_aftertouch_c, 0, 75, 0
1, 377858, Note_off_c, 0, 73, 64
1, 377914, Note_on_c, 0, 63, 91
1, 377915, Note_on_c, 0, 58, 86
1, 377920, Note_on_c, 0, 73, 89
1, 377925, Control_c, 0, 64, 105
1, 377929, Note_off_c, 0, 54, 60
1, 377940, Control_c, 0, 64, 85
1, 377955, Control_c, 0, 64, 65
1, 377969, Control_c, 0, 64, 0
1, 378025, Note_on_c, 0, 71, 76
1, 378043, Control_c, 0, 64, 56
1, 378050, Note_off_c, 0, 73, 58
1, 378058, Control_c, 0, 64, 70
1, 378073, Control_c, 0, 64, 77
1, 378081, Note_off_c, 0, 71, 63
1, 378088, Control_c, 0, 64, 85
1, 378103, Control_c, 0, 64, 91
1, 378119, Control_c, 0, 64, 96
1, 378133, Note_on_c, 0, 71, 76
1, 378134, Control_c, 0, 64, 100
1, 378148, Control_c, 0, 64, 103
1, 378163, Control_c, 0, 64, 107
1, 378178, Control_c, 0, 64, 110
1, 378193, Control_c, 0, 64, 113
1, 378205, Note_off_c, 0, 71, 54
1, 378208, Control_c, 0, 64, 117
1, 378222, Control_c, 0, 64, 120
1, 378224, Note_on_c, 0, 76, 86
1, 378237, Control_c, 0, 64, 121
1, 378252, Control_c, 0, 64, 121
1, 378266, Control_c, 0, 64, 122
1, 378272, Note_off_c, 0, 76, 67
1, 378281, Control_c, 0, 64, 123
1, 378288, Note_off_c, 0, 58, 62
1, 378296, Control_c, 0, 64, 124
1, 378324, Note_on_c, 0, 76, 88
1, 378325, Note_on_c, 0, 56, 76
1, 378348, Control_c, 0, 64, 124
1, 378363, Control_c, 0, 64, 126
1, 378378, Control_c, 0, 64, 127
1, 378411, Note_off_c, 0, 63, 56
1, 378444, Note_on_c, 0, 75, 88
1, 378463, Note_off_c, 0, 76, 63
1, 378472, Note_off_c, 0, 56, 59
1, 378485, Note_off_c, 0, 75, 67
1, 378540, Note_on_c, 0, 63, 94
1, 378540, Note_on_c, 0, 75, 90
1, 378540, Control_c, 0, 64, 108
1, 378541, Note_on_c, 0, 58, 92
1, 378555, Control_c, 0, 64, 87
1, 378570, Control_c, 0, 64, 68
1, 378585, Control_c, 0, 64, 0
1, 378630, Control_c, 0, 64, 50
1, 378639, Note_on_c, 0, 73, 88
1, 378644, Note_off_c, 0, 75, 66
1, 378645, Control_c, 0, 64, 70
1, 378660, Control_c, 0, 64, 80
1, 378674, Control_c, 0, 64, 88
1, 378689, Control_c, 0, 64, 93
1, 378701, Note_off_c, 0, 73, 62
1, 378704, Control_c, 0, 64, 97
1, 378719, Control_c, 0, 64, 103
1, 378734, Control_c, 0, 64, 111
1, 378744, Note_on_c, 0, 73, 83
1, 378748, Control_c, 0, 64, 117
1, 378763, Control_c, 0, 64, 120
1, 378778, Control_c, 0, 64, 122
1, 378792, Control_c, 0, 64, 126
1, 378807, Control_c, 0, 64, 127
1, 378841, Note_on_c, 0, 78, 91
1, 378860, Note_off_c, 0, 73, 59
1, 378874, Note_off_c, 0, 58, 58
1, 378922, Note_on_c, 0, 59, 82
1, 378938, Note_on_c, 0, 80, 90
1, 378956, Note_off_c, 0, 63, 62
1, 378968, Note_off_c, 0, 59, 64
1, 378972, Note_off_c, 0, 78, 59
1, 379032, Note_on_c, 0, 82, 88
1, 379055, Note_off_c, 0, 80, 61
1, 379146, Note_on_c, 0, 80, 99
1, 379152, Note_on_c, 0, 64, 96
1, 379154, Note_on_c, 0, 61, 92
1, 379157, Control_c, 0, 64, 123
1, 379171, Control_c, 0, 64, 99
1, 379186, Control_c, 0, 64, 80
1, 379194, Note_off_c, 0, 82, 54
1, 379201, Control_c, 0, 64, 59
1, 379215, Control_c, 0, 64, 0
1, 379260, Control_c, 0, 64, 41
1, 379262, Note_on_c, 0, 76, 85
1, 379263, Note_off_c, 0, 80, 63
1, 379275, Control_c, 0, 64, 68
1, 379289, Control_c, 0, 64, 78
1, 379304, Control_c, 0, 64, 88
1, 379318, Control_c, 0, 64, 94
1, 379333, Control_c, 0, 64, 99
1, 379348, Control_c, 0, 64, 101
1, 379362, Note_on_c, 0, 80, 91
1, 379363, Control_c, 0, 64, 102
1, 379376, Note_off_c, 0, 61, 58
1, 379378, Control_c, 0, 64, 103
1, 379393, Control_c, 0, 64, 103
1, 379396, Note_off_c, 0, 76, 62
1, 379405, Note_off_c, 0, 64, 57
1, 379449, Note_on_c, 0, 66, 84
1, 379455, Note_on_c, 0, 83, 90
1, 379456, Note_on_c, 0, 59, 71
1, 379464, Note_off_c, 0, 80, 65
1, 379506, Note_off_c, 0, 66, 65
1, 379518, Note_off_c, 0, 59, 60
1, 379548, Note_on_c, 0, 82, 91
1, 379553, Note_on_c, 0, 64, 92
1, 379556, Note_on_c, 0, 61, 87
1, 379574, Note_off_c, 0, 83, 59
1, 379585, Control_c, 0, 64, 104
1, 379600, Control_c, 0, 64, 105
1, 379614, Control_c, 0, 64, 107
1, 379629, Control_c, 0, 64, 109
1, 379644, Control_c, 0, 64, 113
1, 379649, Note_on_c, 0, 80, 96
1, 379654, Note_off_c, 0, 61, 57
1, 379659, Control_c, 0, 64, 116
1, 379668, Note_off_c, 0, 82, 61
1, 379669, Note_off_c, 0, 64, 59
1, 379674, Control_c, 0, 64, 121
1, 379688, Control_c, 0, 64, 123
1, 379703, Control_c, 0, 64, 123
1, 379734, Control_c, 0, 64, 121
1, 379749, Control_c, 0, 64, 105
1, 379757, Note_on_c, 0, 59, 87
1, 379758, Note_on_c, 0, 64, 104
1, 379758, Note_on_c, 0, 82, 102
1, 379764, Control_c, 0, 64, 84
1, 379776, Note_off_c, 0, 80, 62
1, 379779, Control_c, 0, 64, 66
1, 379793, Control_c, 0, 64, 0
1, 379860, Control_c, 0, 64, 59
1, 379870, Note_on_c, 0, 80, 96
1, 379875, Control_c, 0, 64, 73
1, 379884, Note_off_c, 0, 82, 59
1, 379890, Control_c, 0, 64, 82
1, 379905, Control_c, 0, 64, 91
1, 379919, Control_c, 0, 64, 95
1, 379934, Control_c, 0, 64, 97
1, 379935, Note_off_c, 0, 64, 66
1, 379949, Control_c, 0, 64, 98
1, 379956, Note_off_c, 0, 59, 63
1, 379975, Note_on_c, 0, 82, 98
1, 379979, Control_c, 0, 64, 96
1, 379980, Note_on_c, 0, 66, 103
1, 379981, Note_on_c, 0, 63, 94
1, 379993, Control_c, 0, 64, 87
1, 380001, Note_off_c, 0, 80, 63
1, 380008, Control_c, 0, 64, 74
1, 380023, Control_c, 0, 64, 63
1, 380037, Control_c, 0, 64, 52
1, 380052, Control_c, 0, 64, 64
1, 380067, Control_c, 0, 64, 74
1, 380080, Note_on_c, 0, 80, 95
1, 380082, Control_c, 0, 64, 86
1, 380096, Note_off_c, 0, 82, 60
1, 380097, Control_c, 0, 64, 99
1, 380111, Control_c, 0, 64, 105
1, 380126, Control_c, 0, 64, 108
1, 380141, Control_c, 0, 64, 112
1, 380156, Control_c, 0, 64, 121
1, 380171, Control_c, 0, 64, 127
1, 380190, Note_on_c, 0, 78, 97
1, 380201, Note_off_c, 0, 66, 57
1, 380227, Note_off_c, 0, 80, 63
1, 380238, Note_off_c, 0, 63, 59
1, 380263, Note_off_c, 0, 78, 64
1, 380286, Note_on_c, 0, 64, 85
1, 380292, Note_on_c, 0, 61, 79
1, 380294, Note_on_c, 0, 82, 97
1, 380323, Note_off_c, 0, 64, 64
1, 380344, Note_off_c, 0, 61, 63
1, 380348, Note_off_c, 0, 82, 64
1, 380437, Note_on_c, 0, 84, 108
1, 380437, Control_c, 0, 64, 96
1, 380439, Note_on_c, 0, 72, 106
1, 380442, Note_on_c, 0, 60, 99
1, 380452, Control_c, 0, 64, 74
1, 380467, Control_c, 0, 64, 0
1, 380470, Note_on_c, 0, 74, 44
1, 380471, Note_off_c, 0, 74, 127
1, 380478, Note_on_c, 0, 85, 47
1, 380521, Note_off_c, 0, 85, 55
1, 380572, Control_c, 0, 64, 65
1, 380579, Note_on_c, 0, 61, 82
1, 380580, Note_off_c, 0, 60, 42
1, 380594, Control_c, 0, 64, 69
1, 380609, Control_c, 0, 64, 70
1, 380624, Control_c, 0, 64, 74
1, 380639, Note_off_c, 0, 61, 63
1, 380639, Control_c, 0, 64, 86
1, 380654, Control_c, 0, 64, 101
1, 380668, Control_c, 0, 64, 112
1, 380683, Control_c, 0, 64, 113
1, 380687, Note_on_c, 0, 61, 76
1, 380688, Note_off_c, 0, 72, 59
1, 380698, Control_c, 0, 64, 115
1, 380713, Control_c, 0, 64, 118
1, 380728, Control_c, 0, 64, 124
1, 380742, Control_c, 0, 64, 127
1, 380745, Note_off_c, 0, 61, 57
1, 380781, Note_off_c, 0, 84, 52
1, 380788, Note_on_c, 0, 60, 80
1, 380828, Note_off_c, 0, 60, 63
1, 380885, Note_on_c, 0, 60, 83
1, 380934, Note_off_c, 0, 60, 62
1, 380978, Note_on_c, 0, 58, 88
1, 381031, Note_off_c, 0, 58, 62
1, 381068, Control_c, 0, 64, 103
1, 381078, Note_on_c, 0, 85, 102
1, 381079, Note_on_c, 0, 58, 86
1, 381081, Note_on_c, 0, 72, 105
1, 381083, Control_c, 0, 64, 83
1, 381098, Control_c, 0, 64, 66
1, 381113, Control_c, 0, 64, 0
1, 381157, Control_c, 0, 64, 61
1, 381162, Note_off_c, 0, 58, 64
1, 381172, Control_c, 0, 64, 72
1, 381186, Control_c, 0, 64, 80
1, 381190, Note_on_c, 0, 56, 84
1, 381201, Control_c, 0, 64, 88
1, 381216, Control_c, 0, 64, 92
1, 381231, Control_c, 0, 64, 96
1, 381239, Note_off_c, 0, 56, 63
1, 381246, Control_c, 0, 64, 100
1, 381260, Control_c, 0, 64, 104
1, 381275, Control_c, 0, 64, 108
1, 381290, Control_c, 0, 64, 110
1, 381292, Note_on_c, 0, 56, 81
1, 381306, Control_c, 0, 64, 112
1, 381320, Note_off_c, 0, 72, 51
1, 381321, Control_c, 0, 64, 113
1, 381343, Control_c, 0, 64, 116
1, 381357, Control_c, 0, 64, 119
1, 381363, Note_off_c, 0, 56, 63
1, 381372, Control_c, 0, 64, 122
1, 381387, Control_c, 0, 64, 126
1, 381402, Control_c, 0, 64, 127
1, 381406, Note_on_c, 0, 63, 88
1, 381447, Note_off_c, 0, 63, 67
1, 381494, Note_on_c, 0, 80, 102
1, 381500, Note_on_c, 0, 63, 95
1, 381514, Note_off_c, 0, 85, 64
1, 381544, Note_off_c, 0, 80, 67
1, 381557, Note_off_c, 0, 63, 63
1, 381609, Note_on_c, 0, 61, 90
1, 381655, Note_off_c, 0, 61, 63
1, 381697, Control_c, 0, 64, 112
1, 381710, Note_on_c, 0, 89, 109
1, 381712, Note_on_c, 0, 61, 94
1, 381712, Control_c, 0, 64, 90
1, 381713, Note_on_c, 0, 77, 103
1, 381714, Note_on_c, 0, 84, 101
1, 381727, Control_c, 0, 64, 71
1, 381742, Control_c, 0, 64, 36
1, 381757, Control_c, 0, 64, 0
1, 381772, Note_off_c, 0, 61, 60
1, 381787, Control_c, 0, 64, 60
1, 381801, Control_c, 0, 64, 72
1, 381813, Note_on_c, 0, 60, 92
1, 381816, Control_c, 0, 64, 81
1, 381831, Control_c, 0, 64, 90
1, 381846, Control_c, 0, 64, 95
1, 381860, Note_off_c, 0, 60, 64
1, 381861, Control_c, 0, 64, 100
1, 381867, Note_off_c, 0, 77, 59
1, 381876, Control_c, 0, 64, 105
1, 381890, Control_c, 0, 64, 110
1, 381905, Control_c, 0, 64, 114
1, 381913, Note_on_c, 0, 60, 87
1, 381920, Control_c, 0, 64, 117
1, 381935, Control_c, 0, 64, 119
1, 381950, Control_c, 0, 64, 121
1, 381959, Note_off_c, 0, 89, 53
1, 381964, Control_c, 0, 64, 124
1, 381970, Note_off_c, 0, 60, 62
1, 381979, Control_c, 0, 64, 127
1, 382011, Note_on_c, 0, 63, 97
1, 382039, Note_off_c, 0, 84, 55
1, 382050, Note_off_c, 0, 63, 67
1, 382125, Note_on_c, 0, 63, 97
1, 382174, Note_off_c, 0, 63, 63
1, 382217, Note_on_c, 0, 60, 89
1, 382256, Note_off_c, 0, 60, 64
1, 382323, Note_on_c, 0, 60, 104
1, 382323, Note_on_c, 0, 82, 102
1, 382323, Note_on_c, 0, 90, 103
1, 382326, Note_on_c, 0, 78, 101
1, 382328, Control_c, 0, 64, 110
1, 382343, Control_c, 0, 64, 86
1, 382358, Control_c, 0, 64, 63
1, 382373, Control_c, 0, 64, 0
1, 382417, Control_c, 0, 64, 59
1, 382431, Control_c, 0, 64, 75
1, 382438, Note_on_c, 0, 61, 98
1, 382446, Control_c, 0, 64, 90
1, 382456, Note_off_c, 0, 60, 60
1, 382461, Control_c, 0, 64, 99
1, 382476, Control_c, 0, 64, 103
1, 382491, Control_c, 0, 64, 108
1, 382505, Control_c, 0, 64, 115
1, 382516, Note_off_c, 0, 78, 61
1, 382520, Control_c, 0, 64, 127
1, 382541, Note_on_c, 0, 63, 100
1, 382579, Note_off_c, 0, 61, 60
1, 382609, Note_off_c, 0, 90, 60
1, 382617, Note_off_c, 0, 82, 51
1, 382632, Note_on_c, 0, 65, 91
1, 382636, Note_off_c, 0, 63, 65
1, 382734, Note_on_c, 0, 66, 99
1, 382736, Note_on_c, 0, 84, 95
1, 382736, Note_on_c, 0, 89, 92
1, 382737, Note_on_c, 0, 77, 95
1, 382737, Note_off_c, 0, 65, 42
1, 382791, Note_off_c, 0, 84, 64
1, 382791, Note_off_c, 0, 89, 64
1, 382812, Note_off_c, 0, 77, 59
1, 382842, Note_on_c, 0, 68, 97
1, 382855, Note_off_c, 0, 66, 63
1, 382888, Note_off_c, 0, 68, 68
1, 383045, Note_on_c, 0, 65, 112
1, 383045, Note_on_c, 0, 77, 92
1, 383047, Note_on_c, 0, 53, 101
1, 383047, Control_c, 0, 64, 115
1, 383062, Control_c, 0, 64, 96
1, 383077, Control_c, 0, 64, 81
1, 383092, Control_c, 0, 64, 67
1, 383107, Control_c, 0, 64, 0
1, 383225, Control_c, 0, 64, 18
1, 383227, Note_on_c, 0, 78, 91
1, 383240, Control_c, 0, 64, 68
1, 383254, Control_c, 0, 64, 77
1, 383259, Note_off_c, 0, 77, 57
1, 383269, Control_c, 0, 64, 86
1, 383284, Control_c, 0, 64, 92
1, 383286, Note_off_c, 0, 78, 64
1, 383299, Control_c, 0, 64, 99
1, 383314, Control_c, 0, 64, 105
1, 383328, Control_c, 0, 64, 109
1, 383343, Note_on_c, 0, 78, 89
1, 383343, Control_c, 0, 64, 111
1, 383358, Control_c, 0, 64, 112
1, 383363, Note_off_c, 0, 53, 57
1, 383373, Control_c, 0, 64, 113
1, 383387, Control_c, 0, 64, 114
1, 383402, Control_c, 0, 64, 115
1, 383415, Note_off_c, 0, 65, 59
1, 383420, Note_off_c, 0, 78, 61
1, 383443, Note_on_c, 0, 77, 88
1, 383462, Control_c, 0, 64, 115
1, 383496, Note_off_c, 0, 77, 63
1, 383544, Note_on_c, 0, 77, 84
1, 383617, Control_c, 0, 64, 116
1, 383624, Note_off_c, 0, 77, 61
1, 383632, Control_c, 0, 64, 116
1, 383647, Note_on_c, 0, 75, 87
1, 383647, Control_c, 0, 64, 117
1, 383662, Control_c, 0, 64, 119
1, 383676, Control_c, 0, 64, 121
1, 383697, Note_off_c, 0, 75, 65
1, 383737, Control_c, 0, 64, 117
1, 383744, Note_on_c, 0, 66, 109
1, 383745, Note_on_c, 0, 75, 82
1, 383748, Note_on_c, 0, 53, 94
1, 383752, Control_c, 0, 64, 103
1, 383766, Control_c, 0, 64, 86
1, 383781, Control_c, 0, 64, 69
1, 383796, Control_c, 0, 64, 0
1, 383841, Control_c, 0, 64, 61
1, 383856, Control_c, 0, 64, 72
1, 383858, Note_on_c, 0, 73, 84
1, 383861, Note_off_c, 0, 75, 66
1, 383871, Control_c, 0, 64, 83
1, 383885, Control_c, 0, 64, 97
1, 383900, Control_c, 0, 64, 106
1, 383915, Control_c, 0, 64, 109
1, 383919, Note_off_c, 0, 73, 62
1, 383930, Control_c, 0, 64, 111
1, 383945, Control_c, 0, 64, 112
1, 383955, Note_on_c, 0, 73, 82
1, 383960, Control_c, 0, 64, 114
1, 383975, Control_c, 0, 64, 118
1, 383989, Control_c, 0, 64, 125
1, 384004, Control_c, 0, 64, 127
1, 384049, Note_off_c, 0, 73, 61
1, 384052, Note_on_c, 0, 80, 89
1, 384062, Note_off_c, 0, 53, 57
1, 384096, Note_off_c, 0, 80, 64
1, 384130, Note_on_c, 0, 61, 92
1, 384148, Note_on_c, 0, 80, 90
1, 384178, Note_off_c, 0, 66, 64
1, 384185, Note_off_c, 0, 61, 64
1, 384233, Note_off_c, 0, 80, 62
1, 384240, Note_on_c, 0, 78, 95
1, 384293, Note_off_c, 0, 78, 65
1, 384355, Note_on_c, 0, 70, 97
1, 384359, Note_on_c, 0, 65, 90
1, 384359, Note_on_c, 0, 78, 95
1, 384361, Note_on_c, 0, 66, 95
1, 384367, Control_c, 0, 64, 104
1, 384382, Control_c, 0, 64, 84
1, 384397, Control_c, 0, 64, 65
1, 384411, Control_c, 0, 64, 0
1, 384471, Control_c, 0, 64, 61
1, 384477, Note_on_c, 0, 80, 92
1, 384485, Control_c, 0, 64, 74
1, 384495, Note_off_c, 0, 78, 62
1, 384500, Control_c, 0, 64, 85
1, 384516, Control_c, 0, 64, 95
1, 384526, Note_off_c, 0, 80, 66
1, 384531, Control_c, 0, 64, 98
1, 384546, Control_c, 0, 64, 100
1, 384561, Control_c, 0, 64, 104
1, 384576, Control_c, 0, 64, 109
1, 384586, Note_on_c, 0, 80, 96
1, 384590, Control_c, 0, 64, 115
1, 384605, Control_c, 0, 64, 120
1, 384611, Note_off_c, 0, 65, 62
1, 384613, Note_off_c, 0, 70, 56
1, 384620, Control_c, 0, 64, 123
1, 384634, Control_c, 0, 64, 127
1, 384649, Control_c, 0, 64, 127
1, 384663, Note_off_c, 0, 66, 63
1, 384666, Note_on_c, 0, 78, 95
1, 384668, Note_off_c, 0, 80, 63
1, 384720, Note_off_c, 0, 78, 64
1, 384782, Note_on_c, 0, 77, 84
1, 384824, Note_on_c, 0, 78, 75
1, 384825, Note_off_c, 0, 77, 63
1, 384866, Note_on_c, 0, 79, 42
1, 384887, Note_off_c, 0, 78, 61
1, 384893, Note_off_c, 0, 79, 52
1, 384922, Note_on_c, 0, 77, 87
1, 384964, Note_off_c, 0, 77, 58
1, 385006, Note_on_c, 0, 77, 86
1, 385020, Note_on_c, 0, 72, 93
1, 385024, Note_on_c, 0, 65, 83
1, 385024, Note_on_c, 0, 68, 87
1, 385034, Control_c, 0, 64, 100
1, 385049, Control_c, 0, 64, 80
1, 385064, Control_c, 0, 64, 59
1, 385086, Control_c, 0, 64, 0
1, 385115, Note_on_c, 0, 78, 88
1, 385131, Control_c, 0, 64, 57
1, 385138, Note_off_c, 0, 77, 56
1, 385146, Control_c, 0, 64, 72
1, 385160, Control_c, 0, 64, 80
1, 385161, Note_off_c, 0, 78, 66
1, 385175, Control_c, 0, 64, 88
1, 385190, Control_c, 0, 64, 93
1, 385205, Control_c, 0, 64, 100
1, 385219, Note_on_c, 0, 78, 93
1, 385220, Control_c, 0, 64, 105
1, 385221, Note_off_c, 0, 72, 63
1, 385234, Control_c, 0, 64, 109
1, 385249, Control_c, 0, 64, 113
1, 385264, Control_c, 0, 64, 115
1, 385279, Control_c, 0, 64, 119
1, 385294, Control_c, 0, 64, 124
1, 385307, Note_on_c, 0, 80, 95
1, 385310, Control_c, 0, 64, 127
1, 385317, Note_off_c, 0, 78, 60
1, 385367, Note_off_c, 0, 68, 60
1, 385373, Note_off_c, 0, 80, 65
1, 385408, Note_on_c, 0, 70, 85
1, 385408, Note_on_c, 0, 73, 86
1, 385408, Note_on_c, 0, 80, 87
1, 385453, Note_off_c, 0, 70, 62
1, 385453, Note_off_c, 0, 73, 59
1, 385458, Note_off_c, 0, 65, 29
1, 385459, Note_on_c, 0, 74, 17
1, 385482, Note_off_c, 0, 80, 65
1, 385495, Note_off_c, 0, 74, 52
1, 385507, Note_on_c, 0, 81, 93
1, 385560, Note_off_c, 0, 81, 61
1, 385605, Control_c, 0, 64, 117
1, 385616, Note_on_c, 0, 72, 83
1, 385618, Note_on_c, 0, 75, 89
1, 385620, Note_on_c, 0, 81, 90
1, 385620, Control_c, 0, 64, 95
1, 385623, Note_on_c, 0, 64, 78
1, 385635, Control_c, 0, 64, 78
1, 385650, Control_c, 0, 64, 60
1, 385665, Control_c, 0, 64, 0
1, 385709, Control_c, 0, 64, 64
1, 385713, Note_on_c, 0, 82, 91
1, 385724, Control_c, 0, 64, 75
1, 385727, Note_off_c, 0, 81, 62
1, 385739, Control_c, 0, 64, 85
1, 385742, Note_off_c, 0, 75, 64
1, 385754, Control_c, 0, 64, 94
1, 385769, Control_c, 0, 64, 96
1, 385783, Control_c, 0, 64, 97
1, 385798, Control_c, 0, 64, 100
1, 385813, Control_c, 0, 64, 102
1, 385832, Note_on_c, 0, 81, 97
1, 385834, Note_on_c, 0, 73, 99
1, 385835, Note_on_c, 0, 70, 79
1, 385835, Control_c, 0, 64, 104
1, 385850, Control_c, 0, 64, 105
1, 385855, Note_off_c, 0, 72, 36
1, 385859, Note_off_c, 0, 82, 64
1, 385864, Control_c, 0, 64, 105
1, 385879, Control_c, 0, 64, 106
1, 385894, Control_c, 0, 64, 107
1, 385909, Control_c, 0, 64, 108
1, 385924, Control_c, 0, 64, 111
1, 385930, Note_on_c, 0, 79, 92
1, 385933, Note_off_c, 0, 81, 64
1, 385939, Control_c, 0, 64, 113
1, 385954, Control_c, 0, 64, 117
1, 385960, Note_off_c, 0, 70, 63
1, 385966, Note_off_c, 0, 73, 56
1, 385969, Control_c, 0, 64, 121
1, 385983, Control_c, 0, 64, 125
1, 385998, Control_c, 0, 64, 127
1, 386004, Note_off_c, 0, 64, 56
1, 386039, Note_on_c, 0, 78, 98
1, 386043, Note_on_c, 0, 69, 89
1, 386044, Note_on_c, 0, 72, 92
1, 386054, Note_off_c, 0, 79, 58
1, 386056, Note_on_c, 0, 64, 58
1, 386100, Note_off_c, 0, 64, 50
1, 386127, Note_off_c, 0, 69, 61
1, 386142, Note_off_c, 0, 78, 65
1, 386147, Note_on_c, 0, 79, 93
1, 386207, Note_off_c, 0, 72, 33
1, 386243, Note_on_c, 0, 75, 100
1, 386247, Note_on_c, 0, 72, 74
1, 386249, Note_on_c, 0, 64, 84
1, 386249, Note_on_c, 0, 81, 101
1, 386250, Control_c, 0, 64, 112
1, 386255, Note_off_c, 0, 79, 34
1, 386265, Control_c, 0, 64, 90
1, 386279, Control_c, 0, 64, 69
1, 386294, Control_c, 0, 64, 25
1, 386309, Control_c, 0, 64, 0
1, 386324, Control_c, 0, 64, 62
1, 386339, Control_c, 0, 64, 74
1, 386349, Note_on_c, 0, 82, 98
1, 386351, Note_off_c, 0, 75, 63
1, 386353, Control_c, 0, 64, 87
1, 386355, Note_off_c, 0, 81, 64
1, 386368, Control_c, 0, 64, 99
1, 386383, Control_c, 0, 64, 101
1, 386398, Control_c, 0, 64, 104
1, 386413, Control_c, 0, 64, 108
1, 386425, Note_off_c, 0, 72, 60
1, 386428, Control_c, 0, 64, 111
1, 386443, Note_on_c, 0, 73, 92
1, 386443, Control_c, 0, 64, 114
1, 386447, Note_on_c, 0, 70, 83
1, 386450, Note_on_c, 0, 81, 97
1, 386458, Control_c, 0, 64, 114
1, 386472, Control_c, 0, 64, 115
1, 386477, Note_off_c, 0, 82, 62
1, 386502, Control_c, 0, 64, 116
1, 386517, Control_c, 0, 64, 116
1, 386532, Control_c, 0, 64, 117
1, 386543, Note_off_c, 0, 81, 55
1, 386544, Note_on_c, 0, 79, 90
1, 386546, Control_c, 0, 64, 119
1, 386561, Control_c, 0, 64, 121
1, 386562, Note_off_c, 0, 73, 59
1, 386583, Control_c, 0, 64, 123
1, 386596, Note_off_c, 0, 70, 62
1, 386598, Control_c, 0, 64, 124
1, 386613, Control_c, 0, 64, 126
1, 386628, Control_c, 0, 64, 127
1, 386650, Note_on_c, 0, 78, 95
1, 386654, Note_on_c, 0, 69, 85
1, 386657, Note_on_c, 0, 72, 91
1, 386658, Note_off_c, 0, 79, 53
1, 386676, Note_off_c, 0, 64, 54
1, 386709, Note_off_c, 0, 72, 63
1, 386718, Note_off_c, 0, 78, 63
1, 386733, Note_off_c, 0, 69, 65
1, 386742, Note_on_c, 0, 79, 83
1, 386768, Note_off_c, 0, 79, 64
1, 386909, Note_on_c, 0, 85, 99
1, 386911, Note_on_c, 0, 73, 103
1, 386911, Control_c, 0, 64, 113
1, 386917, Note_on_c, 0, 82, 102
1, 386926, Control_c, 0, 64, 87
1, 386941, Control_c, 0, 64, 63
1, 386946, Note_on_c, 0, 81, 45
1, 386947, Note_off_c, 0, 81, 127
1, 386954, Note_on_c, 0, 83, 47
1, 386955, Control_c, 0, 64, 0
1, 386978, Note_off_c, 0, 83, 51
1, 387039, Note_on_c, 0, 64, 80
1, 387059, Control_c, 0, 64, 56
1, 387074, Control_c, 0, 64, 75
1, 387089, Control_c, 0, 64, 86
1, 387103, Control_c, 0, 64, 99
1, 387112, Note_off_c, 0, 85, 56
1, 387118, Control_c, 0, 64, 103
1, 387132, Note_on_c, 0, 65, 93
1, 387133, Control_c, 0, 64, 104
1, 387135, Note_off_c, 0, 73, 55
1, 387143, Note_off_c, 0, 64, 64
1, 387146, Note_off_c, 0, 82, 58
1, 387163, Control_c, 0, 64, 104
1, 387177, Control_c, 0, 64, 105
1, 387192, Control_c, 0, 64, 107
1, 387207, Control_c, 0, 64, 110
1, 387220, Note_on_c, 0, 66, 92
1, 387221, Control_c, 0, 64, 113
1, 387224, Note_off_c, 0, 65, 67
1, 387236, Control_c, 0, 64, 118
1, 387251, Control_c, 0, 64, 120
1, 387292, Note_off_c, 0, 66, 66
1, 387305, Note_on_c, 0, 72, 99
1, 387306, Note_on_c, 0, 82, 99
1, 387307, Note_on_c, 0, 84, 91
1, 387314, Note_on_c, 0, 68, 93
1, 387362, Note_off_c, 0, 72, 64
1, 387381, Note_off_c, 0, 84, 59
1, 387400, Note_off_c, 0, 68, 61
1, 387407, Control_c, 0, 64, 122
1, 387412, Note_off_c, 0, 82, 53
1, 387422, Control_c, 0, 64, 127
1, 387435, Note_on_c, 0, 66, 84
1, 387502, Note_off_c, 0, 66, 65
1, 387525, Control_c, 0, 64, 105
1, 387536, Note_on_c, 0, 85, 106
1, 387539, Note_on_c, 0, 82, 94
1, 387540, Control_c, 0, 64, 85
1, 387541, Note_on_c, 0, 73, 101
1, 387555, Control_c, 0, 64, 64
1, 387570, Control_c, 0, 64, 0
1, 387629, Control_c, 0, 64, 66
1, 387644, Control_c, 0, 64, 78
1, 387659, Control_c, 0, 64, 97
1, 387667, Note_on_c, 0, 64, 85
1, 387674, Control_c, 0, 64, 127
1, 387742, Note_off_c, 0, 73, 56
1, 387748, Note_off_c, 0, 64, 62
1, 387757, Note_off_c, 0, 85, 50
1, 387766, Note_on_c, 0, 65, 87
1, 387773, Note_off_c, 0, 82, 54
1, 387854, Note_on_c, 0, 66, 92
1, 387862, Note_off_c, 0, 65, 63
1, 387926, Note_off_c, 0, 66, 66
1, 387948, Note_on_c, 0, 72, 97
1, 387948, Note_on_c, 0, 84, 86
1, 387950, Note_on_c, 0, 82, 92
1, 387962, Note_on_c, 0, 68, 78
1, 387982, Note_off_c, 0, 84, 61
1, 387995, Note_off_c, 0, 82, 65
1, 387999, Note_off_c, 0, 72, 63
1, 388054, Note_off_c, 0, 68, 62
1, 388056, Note_on_c, 0, 66, 74
1, 388086, Note_off_c, 0, 66, 72
1, 388215, Control_c, 0, 64, 103
1, 388230, Control_c, 0, 64, 80
1, 388232, Note_on_c, 0, 77, 85
1, 388234, Note_on_c, 0, 70, 75
1, 388235, Note_on_c, 0, 65, 77
1, 388236, Note_on_c, 0, 49, 69
1, 388240, Note_on_c, 0, 53, 72
1, 388245, Control_c, 0, 64, 53
1, 388259, Control_c, 0, 64, 0
1, 388348, Control_c, 0, 64, 59
1, 388355, Note_on_c, 0, 54, 79
1, 388363, Control_c, 0, 64, 74
1, 388374, Note_off_c, 0, 77, 62
1, 388377, Control_c, 0, 64, 86
1, 388387, Note_off_c, 0, 53, 64
1, 388392, Control_c, 0, 64, 98
1, 388399, Note_off_c, 0, 54, 61
1, 388401, Note_off_c, 0, 65, 63
1, 388407, Control_c, 0, 64, 105
1, 388422, Control_c, 0, 64, 115
1, 388433, Note_off_c, 0, 70, 62
1, 388437, Control_c, 0, 64, 127
1, 388463, Note_on_c, 0, 54, 68
1, 388525, Note_off_c, 0, 54, 62
1, 388552, Note_on_c, 0, 53, 77
1, 388606, Note_off_c, 0, 53, 66
1, 388610, Note_off_c, 0, 49, 60
1, 388644, Note_on_c, 0, 70, 93
1, 388645, Poly_aftertouch_c, 0, 53, 0
1, 388647, Note_on_c, 0, 58, 88
1, 388652, Note_on_c, 0, 53, 67
1, 388678, Note_off_c, 0, 58, 65
1, 388706, Note_off_c, 0, 70, 62
1, 388718, Note_off_c, 0, 53, 64
1, 388759, Note_on_c, 0, 51, 73
1, 388810, Note_off_c, 0, 51, 60
1, 388856, Poly_aftertouch_c, 0, 51, 0
1, 388860, Control_c, 0, 64, 95
1, 388862, Note_on_c, 0, 51, 73
1, 388868, Note_on_c, 0, 66, 91
1, 388868, Note_on_c, 0, 70, 91
1, 388868, Note_on_c, 0, 78, 99
1, 388869, Note_on_c, 0, 46, 81
1, 388875, Control_c, 0, 64, 73
1, 388890, Control_c, 0, 64, 0
1, 388934, Control_c, 0, 64, 55
1, 388949, Control_c, 0, 64, 72
1, 388964, Control_c, 0, 64, 85
1, 388965, Note_on_c, 0, 49, 90
1, 388979, Control_c, 0, 64, 97
1, 388980, Note_off_c, 0, 51, 60
1, 388994, Control_c, 0, 64, 104
1, 389004, Note_off_c, 0, 78, 62
1, 389008, Control_c, 0, 64, 112
1, 389023, Control_c, 0, 64, 120
1, 389028, Note_off_c, 0, 49, 61
1, 389038, Control_c, 0, 64, 127
1, 389044, Note_off_c, 0, 70, 63
1, 389048, Note_off_c, 0, 66, 64
1, 389069, Note_on_c, 0, 49, 70
1, 389149, Note_off_c, 0, 49, 60
1, 389161, Note_on_c, 0, 54, 82
1, 389201, Note_off_c, 0, 54, 60
1, 389258, Note_on_c, 0, 54, 80
1, 389269, Note_on_c, 0, 70, 91
1, 389271, Note_on_c, 0, 58, 90
1, 389284, Note_off_c, 0, 46, 62
1, 389313, Note_off_c, 0, 58, 65
1, 389324, Note_off_c, 0, 54, 52
1, 389330, Note_off_c, 0, 70, 58
1, 389372, Note_on_c, 0, 53, 84
1, 389383, Note_on_c, 0, 54, 24
1, 389412, Note_off_c, 0, 53, 65
1, 389416, Note_off_c, 0, 54, 42
1, 389453, Control_c, 0, 64, 96
1, 389468, Control_c, 0, 64, 75
1, 389473, Note_on_c, 0, 61, 95
1, 389474, Note_on_c, 0, 53, 91
1, 389474, Note_on_c, 0, 73, 91
1, 389477, Note_on_c, 0, 70, 85
1, 389478, Note_on_c, 0, 42, 83
1, 389483, Control_c, 0, 64, 30
1, 389498, Control_c, 0, 64, 0
1, 389528, Control_c, 0, 64, 28
1, 389542, Control_c, 0, 64, 68
1, 389557, Control_c, 0, 64, 77
1, 389577, Note_off_c, 0, 53, 63
1, 389579, Control_c, 0, 64, 87
1, 389585, Note_on_c, 0, 51, 79
1, 389594, Control_c, 0, 64, 94
1, 389609, Control_c, 0, 64, 97
1, 389623, Control_c, 0, 64, 99
1, 389635, Note_off_c, 0, 51, 63
1, 389638, Control_c, 0, 64, 101
1, 389653, Control_c, 0, 64, 101
1, 389668, Control_c, 0, 64, 102
1, 389674, Note_off_c, 0, 70, 54
1, 389683, Control_c, 0, 64, 104
1, 389692, Note_on_c, 0, 51, 80
1, 389698, Control_c, 0, 64, 106
1, 389713, Control_c, 0, 64, 109
1, 389716, Note_off_c, 0, 61, 61
1, 389725, Note_off_c, 0, 42, 62
1, 389728, Control_c, 0, 64, 112
1, 389735, Note_off_c, 0, 51, 63
1, 389742, Control_c, 0, 64, 115
1, 389755, Note_off_c, 0, 73, 55
1, 389757, Control_c, 0, 64, 119
1, 389772, Control_c, 0, 64, 127
1, 389793, Note_on_c, 0, 58, 88
1, 389799, Note_on_c, 0, 46, 83
1, 389830, Control_c, 0, 64, 127
1, 389831, Note_off_c, 0, 46, 65
1, 389832, Note_off_c, 0, 58, 60
1, 389845, Control_c, 0, 64, 123
1, 389865, Note_on_c, 0, 60, 84
1, 389865, Note_on_c, 0, 72, 82
1, 389876, Note_on_c, 0, 70, 78
1, 389891, Note_on_c, 0, 46, 89
1, 389893, Note_on_c, 0, 58, 80
1, 389910, Note_off_c, 0, 60, 61
1, 389916, Note_off_c, 0, 46, 66
1, 389918, Note_off_c, 0, 58, 68
1, 389919, Control_c, 0, 64, 127
1, 389930, Note_off_c, 0, 72, 62
1, 389945, Note_off_c, 0, 70, 58
1, 389999, Note_on_c, 0, 44, 69
1, 390002, Note_on_c, 0, 56, 64
1, 390017, Note_on_c, 0, 54, 45
1, 390021, Note_on_c, 0, 42, 41
1, 390021, Note_off_c, 0, 44, 65
1, 390030, Note_off_c, 0, 56, 64
1, 390038, Control_c, 0, 64, 117
1, 390042, Note_off_c, 0, 54, 54
1, 390048, Note_off_c, 0, 42, 58
1, 390053, Control_c, 0, 64, 91
1, 390068, Control_c, 0, 64, 70
1, 390082, Control_c, 0, 64, 0
1, 390088, Note_on_c, 0, 54, 90
1, 390090, Note_on_c, 0, 73, 86
1, 390091, Note_on_c, 0, 70, 84
1, 390092, Note_on_c, 0, 42, 82
1, 390094, Note_on_c, 0, 61, 84
1, 390097, Note_on_c, 0, 44, 72
1, 390113, Control_c, 0, 64, 43
1, 390116, Note_off_c, 0, 44, 63
1, 390127, Control_c, 0, 64, 71
1, 390130, Note_off_c, 0, 54, 60
1, 390137, Note_off_c, 0, 42, 60
1, 390142, Control_c, 0, 64, 84
1, 390148, Note_off_c, 0, 61, 61
1, 390157, Control_c, 0, 64, 97
1, 390169, Note_off_c, 0, 73, 61
1, 390172, Control_c, 0, 64, 105
1, 390175, Note_off_c, 0, 70, 61
1, 390185, Note_on_c, 0, 42, 78
1, 390186, Note_on_c, 0, 54, 77
1, 390187, Control_c, 0, 64, 108
1, 390202, Control_c, 0, 64, 110
1, 390217, Control_c, 0, 64, 112
1, 390221, Note_off_c, 0, 54, 61
1, 390231, Note_off_c, 0, 42, 61
1, 390231, Control_c, 0, 64, 113
1, 390246, Control_c, 0, 64, 113
1, 390280, Note_on_c, 0, 41, 85
1, 390282, Note_on_c, 0, 53, 86
1, 390321, Note_off_c, 0, 53, 65
1, 390324, Note_off_c, 0, 41, 67
1, 390342, Control_c, 0, 64, 114
1, 390357, Control_c, 0, 64, 115
1, 390372, Control_c, 0, 64, 118
1, 390386, Control_c, 0, 64, 127
1, 390425, Note_on_c, 0, 58, 91
1, 390426, Note_on_c, 0, 46, 90
1, 390443, Note_off_c, 0, 58, 71
1, 390444, Note_off_c, 0, 46, 67
1, 390479, Note_on_c, 0, 70, 82
1, 390482, Note_on_c, 0, 75, 78
1, 390484, Note_on_c, 0, 63, 76
1, 390508, Note_on_c, 0, 48, 95
1, 390509, Note_on_c, 0, 60, 93
1, 390533, Note_off_c, 0, 63, 64
1, 390541, Note_off_c, 0, 60, 63
1, 390544, Note_off_c, 0, 48, 64
1, 390574, Note_off_c, 0, 75, 60
1, 390596, Note_off_c, 0, 70, 61
1, 390604, Note_on_c, 0, 49, 98
1, 390604, Note_on_c, 0, 61, 92
1, 390634, Note_off_c, 0, 61, 61
1, 390645, Note_off_c, 0, 49, 62
1, 390684, Control_c, 0, 64, 95
1, 390699, Control_c, 0, 64, 72
1, 390704, Note_on_c, 0, 77, 95
1, 390707, Note_on_c, 0, 60, 93
1, 390707, Note_on_c, 0, 65, 96
1, 390708, Note_on_c, 0, 48, 94
1, 390708, Note_on_c, 0, 72, 89
1, 390714, Control_c, 0, 64, 0
1, 390734, Note_off_c, 0, 60, 65
1, 390738, Note_off_c, 0, 48, 69
1, 390743, Control_c, 0, 64, 37
1, 390758, Control_c, 0, 64, 71
1, 390772, Control_c, 0, 64, 87
1, 390787, Control_c, 0, 64, 101
1, 390799, Note_off_c, 0, 77, 61
1, 390802, Control_c, 0, 64, 105
1, 390806, Note_on_c, 0, 56, 99
1, 390807, Note_off_c, 0, 65, 63
1, 390809, Note_on_c, 0, 44, 96
1, 390831, Note_on_c, 0, 46, 56
1, 390836, Note_off_c, 0, 44, 67
1, 390837, Note_off_c, 0, 56, 61
1, 390853, Note_off_c, 0, 46, 61
1, 390909, Note_on_c, 0, 60, 87
1, 390913, Note_on_c, 0, 48, 78
1, 390917, Note_off_c, 0, 72, 59
1, 390928, Note_off_c, 0, 60, 71
1, 390938, Note_off_c, 0, 48, 69
1, 390966, Control_c, 0, 64, 105
1, 390981, Control_c, 0, 64, 106
1, 390995, Control_c, 0, 64, 106
1, 390997, Note_on_c, 0, 51, 95
1, 390998, Note_on_c, 0, 63, 89
1, 391003, Note_on_c, 0, 66, 87
1, 391003, Note_on_c, 0, 78, 89
1, 391010, Control_c, 0, 64, 107
1, 391020, Note_off_c, 0, 63, 69
1, 391023, Note_off_c, 0, 51, 60
1, 391040, Control_c, 0, 64, 106
1, 391041, Note_off_c, 0, 66, 67
1, 391055, Note_off_c, 0, 78, 60
1, 391055, Control_c, 0, 64, 96
1, 391077, Control_c, 0, 64, 79
1, 391092, Control_c, 0, 64, 58
1, 391105, Note_on_c, 0, 77, 108
1, 391107, Control_c, 0, 64, 0
1, 391108, Note_on_c, 0, 65, 100
1, 391108, Note_on_c, 0, 72, 100
1, 391109, Note_on_c, 0, 61, 94
1, 391110, Note_on_c, 0, 49, 93
1, 391135, Note_on_c, 0, 51, 55
1, 391136, Note_off_c, 0, 51, 127
1, 391141, Note_off_c, 0, 61, 61
1, 391147, Note_off_c, 0, 49, 65
1, 391166, Control_c, 0, 64, 69
1, 391181, Control_c, 0, 64, 78
1, 391185, Note_off_c, 0, 77, 59
1, 391194, Note_off_c, 0, 72, 65
1, 391195, Control_c, 0, 64, 89
1, 391201, Note_off_c, 0, 65, 62
1, 391210, Control_c, 0, 64, 97
1, 391211, Note_on_c, 0, 48, 89
1, 391211, Note_on_c, 0, 60, 85
1, 391225, Control_c, 0, 64, 102
1, 391239, Note_off_c, 0, 48, 67
1, 391240, Control_c, 0, 64, 104
1, 391241, Note_off_c, 0, 60, 62
1, 391255, Control_c, 0, 64, 105
1, 391284, Control_c, 0, 64, 101
1, 391299, Control_c, 0, 64, 88
1, 391314, Control_c, 0, 64, 71
1, 391322, Note_on_c, 0, 49, 91
1, 391324, Note_on_c, 0, 61, 89
1, 391325, Note_on_c, 0, 78, 104
1, 391326, Note_on_c, 0, 66, 103
1, 391326, Note_on_c, 0, 70, 97
1, 391328, Control_c, 0, 64, 0
1, 391368, Note_on_c, 0, 79, 39
1, 391368, Note_off_c, 0, 49, 60
1, 391370, Note_off_c, 0, 61, 58
1, 391388, Control_c, 0, 64, 57
1, 391396, Note_off_c, 0, 79, 37
1, 391403, Control_c, 0, 64, 72
1, 391418, Control_c, 0, 64, 80
1, 391427, Note_on_c, 0, 48, 90
1, 391429, Note_on_c, 0, 60, 88
1, 391433, Control_c, 0, 64, 88
1, 391448, Control_c, 0, 64, 91
1, 391460, Note_off_c, 0, 60, 62
1, 391463, Control_c, 0, 64, 94
1, 391468, Note_off_c, 0, 48, 65
1, 391474, Note_off_c, 0, 66, 60
1, 391477, Control_c, 0, 64, 97
1, 391492, Control_c, 0, 64, 101
1, 391507, Control_c, 0, 64, 104
1, 391513, Note_off_c, 0, 70, 56
1, 391521, Control_c, 0, 64, 107
1, 391522, Note_on_c, 0, 48, 81
1, 391526, Note_on_c, 0, 60, 81
1, 391534, Note_off_c, 0, 78, 59
1, 391536, Control_c, 0, 64, 109
1, 391551, Control_c, 0, 64, 110
1, 391552, Note_off_c, 0, 60, 64
1, 391555, Note_off_c, 0, 48, 70
1, 391566, Control_c, 0, 64, 112
1, 391581, Control_c, 0, 64, 118
1, 391595, Control_c, 0, 64, 127
1, 391615, Note_on_c, 0, 80, 94
1, 391620, Note_on_c, 0, 58, 91
1, 391620, Note_on_c, 0, 68, 88
1, 391623, Note_on_c, 0, 46, 95
1, 391653, Note_off_c, 0, 46, 63
1, 391655, Note_off_c, 0, 80, 66
1, 391658, Note_off_c, 0, 68, 64
1, 391662, Note_off_c, 0, 58, 63
1, 391669, Control_c, 0, 64, 116
1, 391684, Control_c, 0, 64, 95
1, 391700, Control_c, 0, 64, 76
1, 391714, Note_on_c, 0, 78, 38
1, 391715, Control_c, 0, 64, 61
1, 391717, Note_on_c, 0, 66, 107
1, 391719, Note_on_c, 0, 73, 99
1, 391722, Note_on_c, 0, 58, 95
1, 391725, Note_on_c, 0, 46, 100
1, 391730, Control_c, 0, 64, 53
1, 391744, Control_c, 0, 64, 67
1, 391759, Control_c, 0, 64, 78
1, 391763, Note_off_c, 0, 66, 67
1, 391769, Note_off_c, 0, 58, 65
1, 391770, Note_off_c, 0, 46, 63
1, 391774, Control_c, 0, 64, 91
1, 391782, Note_off_c, 0, 78, 63
1, 391783, Note_off_c, 0, 73, 62
1, 391789, Control_c, 0, 64, 101
1, 391804, Control_c, 0, 64, 105
1, 391826, Control_c, 0, 64, 107
1, 391841, Note_on_c, 0, 60, 96
1, 391841, Control_c, 0, 64, 112
1, 391843, Note_on_c, 0, 48, 98
1, 391856, Control_c, 0, 64, 116
1, 391871, Control_c, 0, 64, 118
1, 391874, Note_off_c, 0, 48, 65
1, 391876, Note_off_c, 0, 60, 66
1, 391886, Control_c, 0, 64, 119
1, 391944, Control_c, 0, 64, 117
1, 391959, Control_c, 0, 64, 103
1, 391974, Control_c, 0, 64, 86
1, 391989, Control_c, 0, 64, 68
1, 391993, Note_on_c, 0, 61, 109
1, 391996, Note_on_c, 0, 49, 104
1, 391999, Note_on_c, 0, 73, 106
1, 391999, Note_on_c, 0, 85, 105
1, 392004, Control_c, 0, 64, 0
1, 392047, Note_on_c, 0, 82, 17
1, 392048, Note_off_c, 0, 82, 127
1, 392083, Note_off_c, 0, 61, 61
1, 392107, Control_c, 0, 64, 56
1, 392122, Control_c, 0, 64, 77
1, 392133, Note_on_c, 0, 62, 84
1, 392137, Control_c, 0, 64, 88
1, 392151, Control_c, 0, 64, 96
1, 392166, Control_c, 0, 64, 98
1, 392170, Note_off_c, 0, 73, 62
1, 392171, Note_off_c, 0, 62, 60
1, 392181, Note_off_c, 0, 49, 59
1, 392181, Control_c, 0, 64, 100
1, 392196, Control_c, 0, 64, 104
1, 392205, Note_off_c, 0, 85, 57
1, 392211, Control_c, 0, 64, 107
1, 392226, Control_c, 0, 64, 108
1, 392227, Note_on_c, 0, 62, 85
1, 392270, Control_c, 0, 64, 109
1, 392279, Note_off_c, 0, 62, 62
1, 392285, Control_c, 0, 64, 111
1, 392300, Control_c, 0, 64, 115
1, 392315, Control_c, 0, 64, 119
1, 392330, Control_c, 0, 64, 122
1, 392339, Note_on_c, 0, 57, 93
1, 392344, Control_c, 0, 64, 122
1, 392381, Note_off_c, 0, 57, 64
1, 392389, Control_c, 0, 64, 122
1, 392404, Control_c, 0, 64, 109
1, 392418, Control_c, 0, 64, 89
1, 392423, Note_on_c, 0, 73, 110
1, 392423, Note_on_c, 0, 86, 100
1, 392428, Note_on_c, 0, 57, 98
1, 392428, Note_on_c, 0, 50, 98
1, 392433, Control_c, 0, 64, 68
1, 392448, Control_c, 0, 64, 0
1, 392508, Note_off_c, 0, 57, 62
1, 392508, Control_c, 0, 64, 70
1, 392523, Control_c, 0, 64, 84
1, 392533, Note_on_c, 0, 59, 88
1, 392538, Control_c, 0, 64, 99
1, 392539, Note_on_c, 0, 84, 22
1, 392539, Note_off_c, 0, 50, 60
1, 392553, Control_c, 0, 64, 106
1, 392556, Note_off_c, 0, 86, 58
1, 392574, Control_c, 0, 64, 107
1, 392583, Note_off_c, 0, 59, 66
1, 392583, Note_off_c, 0, 84, 42
1, 392589, Control_c, 0, 64, 108
1, 392604, Control_c, 0, 64, 112
1, 392619, Control_c, 0, 64, 116
1, 392634, Control_c, 0, 64, 118
1, 392643, Note_off_c, 0, 73, 53
1, 392645, Note_on_c, 0, 59, 81
1, 392649, Control_c, 0, 64, 119
1, 392664, Control_c, 0, 64, 122
1, 392679, Note_off_c, 0, 59, 61
1, 392679, Control_c, 0, 64, 127
1, 392726, Note_on_c, 0, 64, 92
1, 392761, Note_off_c, 0, 64, 69
1, 392824, Note_on_c, 0, 81, 108
1, 392825, Note_on_c, 0, 45, 106
1, 392828, Note_on_c, 0, 73, 97
1, 392860, Note_off_c, 0, 45, 69
1, 392911, Note_off_c, 0, 73, 54
1, 392933, Note_on_c, 0, 62, 93
1, 392970, Note_off_c, 0, 81, 55
1, 392975, Note_off_c, 0, 62, 63
1, 393026, Note_on_c, 0, 47, 103
1, 393026, Note_on_c, 0, 73, 97
1, 393026, Note_on_c, 0, 83, 101
1, 393061, Note_on_c, 0, 82, 38
1, 393068, Note_off_c, 0, 47, 67
1, 393080, Note_off_c, 0, 73, 62
1, 393092, Note_off_c, 0, 82, 53
1, 393093, Note_off_c, 0, 83, 60
1, 393129, Note_on_c, 0, 61, 96
1, 393172, Note_off_c, 0, 61, 63
1, 393212, Control_c, 0, 64, 124
1, 393227, Control_c, 0, 64, 88
1, 393242, Control_c, 0, 64, 63
1, 393242, Note_on_c, 0, 61, 103
1, 393244, Note_on_c, 0, 73, 107
1, 393245, Note_on_c, 0, 49, 94
1, 393245, Note_on_c, 0, 85, 107
1, 393257, Control_c, 0, 64, 0
1, 393277, Note_on_c, 0, 80, 51
1, 393278, Note_off_c, 0, 80, 127
1, 393293, Note_off_c, 0, 61, 62
1, 393296, Note_on_c, 0, 82, 15
1, 393297, Note_off_c, 0, 82, 127
1, 393299, Note_on_c, 0, 51, 13
1, 393300, Note_off_c, 0, 51, 127
1, 393302, Control_c, 0, 64, 65
1, 393325, Control_c, 0, 64, 79
1, 393339, Control_c, 0, 64, 93
1, 393354, Control_c, 0, 64, 105
1, 393363, Note_on_c, 0, 62, 89
1, 393369, Control_c, 0, 64, 106
1, 393384, Control_c, 0, 64, 107
1, 393386, Note_off_c, 0, 49, 60
1, 393398, Control_c, 0, 64, 108
1, 393402, Note_off_c, 0, 73, 60
1, 393403, Note_off_c, 0, 62, 62
1, 393413, Control_c, 0, 64, 111
1, 393428, Control_c, 0, 64, 116
1, 393432, Note_off_c, 0, 85, 60
1, 393443, Control_c, 0, 64, 123
1, 393458, Control_c, 0, 64, 127
1, 393464, Note_on_c, 0, 62, 85
1, 393513, Note_off_c, 0, 62, 63
1, 393559, Note_on_c, 0, 57, 89
1, 393600, Note_off_c, 0, 57, 65
1, 393635, Control_c, 0, 64, 105
1, 393650, Control_c, 0, 64, 77
1, 393654, Note_on_c, 0, 86, 100
1, 393657, Note_on_c, 0, 73, 109
1, 393657, Note_on_c, 0, 50, 100
1, 393659, Note_on_c, 0, 57, 96
1, 393664, Control_c, 0, 64, 25
1, 393679, Control_c, 0, 64, 0
1, 393709, Control_c, 0, 64, 65
1, 393723, Control_c, 0, 64, 79
1, 393728, Note_off_c, 0, 57, 64
1, 393738, Control_c, 0, 64, 98
1, 393752, Note_off_c, 0, 86, 66
1, 393753, Control_c, 0, 64, 113
1, 393754, Note_off_c, 0, 50, 62
1, 393768, Note_on_c, 0, 59, 90
1, 393768, Control_c, 0, 64, 118
1, 393783, Control_c, 0, 64, 119
1, 393797, Control_c, 0, 64, 119
1, 393808, Note_off_c, 0, 59, 66
1, 393812, Control_c, 0, 64, 120
1, 393827, Control_c, 0, 64, 120
1, 393842, Control_c, 0, 64, 121
1, 393848, Note_off_c, 0, 73, 52
1, 393857, Control_c, 0, 64, 124
1, 393871, Control_c, 0, 64, 127
1, 393872, Note_on_c, 0, 59, 87
1, 393911, Note_off_c, 0, 59, 66
1, 393965, Note_on_c, 0, 64, 90
1, 394002, Note_off_c, 0, 64, 68
1, 394069, Note_on_c, 0, 81, 109
1, 394071, Note_on_c, 0, 45, 101
1, 394072, Note_on_c, 0, 73, 96
1, 394109, Note_off_c, 0, 45, 67
1, 394175, Note_on_c, 0, 62, 95
1, 394181, Note_off_c, 0, 73, 58
1, 394214, Note_off_c, 0, 62, 65
1, 394238, Note_off_c, 0, 81, 55
1, 394274, Note_on_c, 0, 47, 93
1, 394280, Note_on_c, 0, 83, 107
1, 394282, Note_on_c, 0, 73, 102
1, 394318, Note_on_c, 0, 82, 41
1, 394322, Note_off_c, 0, 47, 66
1, 394346, Note_off_c, 0, 82, 56
1, 394373, Note_off_c, 0, 83, 59
1, 394378, Note_off_c, 0, 73, 58
1, 394384, Note_on_c, 0, 61, 91
1, 394458, Note_on_c, 0, 82, 32
1, 394458, Note_off_c, 0, 61, 59
1, 394498, Note_off_c, 0, 82, 51
1, 394532, Control_c, 0, 64, 99
1, 394546, Control_c, 0, 64, 78
1, 394559, Note_on_c, 0, 85, 99
1, 394561, Note_on_c, 0, 73, 101
1, 394561, Control_c, 0, 64, 0
1, 394563, Note_on_c, 0, 61, 103
1, 394568, Note_on_c, 0, 49, 99
1, 394588, Note_on_c, 0, 86, 62
1, 394616, Note_off_c, 0, 86, 49
1, 394694, Control_c, 0, 64, 66
1, 394705, Note_off_c, 0, 49, 61
1, 394709, Control_c, 0, 64, 82
1, 394724, Control_c, 0, 64, 96
1, 394739, Note_off_c, 0, 61, 63
1, 394739, Control_c, 0, 64, 107
1, 394753, Control_c, 0, 64, 111
1, 394768, Control_c, 0, 64, 119
1, 394772, Note_off_c, 0, 85, 60
1, 394783, Control_c, 0, 64, 127
1, 394834, Note_on_c, 0, 68, 72
1, 394867, Note_off_c, 0, 73, 57
1, 394869, Note_off_c, 0, 68, 58
1, 394950, Note_on_c, 0, 68, 72
1, 394991, Note_off_c, 0, 68, 53
1, 395041, Note_on_c, 0, 67, 74
1, 395087, Note_off_c, 0, 67, 59
1, 395150, Note_on_c, 0, 67, 71
1, 395153, Note_on_c, 0, 80, 86
1, 395163, Note_on_c, 0, 73, 73
1, 395225, Note_off_c, 0, 67, 60
1, 395272, Note_on_c, 0, 65, 64
1, 395313, Note_off_c, 0, 73, 61
1, 395328, Note_off_c, 0, 65, 60
1, 395334, Note_off_c, 0, 80, 61
1, 395369, Control_c, 0, 64, 110
1, 395384, Control_c, 0, 64, 92
1, 395397, Note_on_c, 0, 79, 81
1, 395399, Control_c, 0, 64, 75
1, 395400, Note_on_c, 0, 65, 64
1, 395405, Note_on_c, 0, 73, 74
1, 395414, Control_c, 0, 64, 52
1, 395429, Control_c, 0, 64, 0
1, 395473, Control_c, 0, 64, 62
1, 395486, Note_off_c, 0, 65, 64
1, 395488, Control_c, 0, 64, 73
1, 395503, Control_c, 0, 64, 82
1, 395517, Control_c, 0, 64, 91
1, 395523, Note_on_c, 0, 63, 71
1, 395532, Control_c, 0, 64, 95
1, 395547, Control_c, 0, 64, 98
1, 395566, Note_off_c, 0, 63, 61
1, 395569, Control_c, 0, 64, 101
1, 395584, Control_c, 0, 64, 105
1, 395585, Note_off_c, 0, 73, 62
1, 395599, Control_c, 0, 64, 111
1, 395614, Control_c, 0, 64, 117
1, 395629, Control_c, 0, 64, 120
1, 395643, Control_c, 0, 64, 121
1, 395644, Note_on_c, 0, 63, 69
1, 395658, Control_c, 0, 64, 126
1, 395673, Control_c, 0, 64, 127
1, 395709, Note_off_c, 0, 63, 60
1, 395721, Note_on_c, 0, 67, 77
1, 395763, Note_off_c, 0, 67, 61
1, 395797, Note_off_c, 0, 79, 57
1, 395823, Note_on_c, 0, 80, 91
1, 395830, Note_on_c, 0, 75, 88
1, 395832, Note_on_c, 0, 67, 72
1, 395879, Note_off_c, 0, 67, 60
1, 395928, Note_on_c, 0, 68, 71
1, 395968, Note_off_c, 0, 68, 62
1, 395988, Note_off_c, 0, 80, 61
1, 396014, Control_c, 0, 64, 116
1, 396029, Control_c, 0, 64, 96
1, 396038, Note_on_c, 0, 68, 78
1, 396039, Note_on_c, 0, 79, 98
1, 396044, Control_c, 0, 64, 76
1, 396047, Note_on_c, 0, 73, 84
1, 396052, Note_off_c, 0, 75, 62
1, 396059, Control_c, 0, 64, 62
1, 396074, Control_c, 0, 64, 36
1, 396089, Control_c, 0, 64, 57
1, 396104, Control_c, 0, 64, 68
1, 396118, Control_c, 0, 64, 79
1, 396133, Control_c, 0, 64, 95
1, 396143, Note_on_c, 0, 70, 84
1, 396148, Note_off_c, 0, 68, 60
1, 396148, Control_c, 0, 64, 104
1, 396163, Control_c, 0, 64, 107
1, 396178, Note_off_c, 0, 70, 57
1, 396178, Control_c, 0, 64, 108
1, 396192, Control_c, 0, 64, 112
1, 396199, Note_off_c, 0, 73, 55
1, 396207, Control_c, 0, 64, 117
1, 396222, Control_c, 0, 64, 123
1, 396237, Control_c, 0, 64, 127
1, 396238, Note_on_c, 0, 70, 88
1, 396289, Note_off_c, 0, 70, 64
1, 396339, Note_on_c, 0, 68, 89
1, 396387, Note_off_c, 0, 68, 64
1, 396408, Note_off_c, 0, 79, 56
1, 396442, Note_on_c, 0, 68, 87
1, 396444, Note_on_c, 0, 82, 94
1, 396449, Note_on_c, 0, 75, 96
1, 396494, Note_off_c, 0, 68, 62
1, 396547, Note_on_c, 0, 67, 88
1, 396573, Note_off_c, 0, 82, 59
1, 396635, Note_off_c, 0, 75, 63
1, 396639, Note_off_c, 0, 67, 60
1, 396663, Note_on_c, 0, 79, 104
1, 396665, Note_on_c, 0, 73, 105
1, 396667, Note_on_c, 0, 72, 101
1, 396675, Control_c, 0, 64, 99
1, 396689, Control_c, 0, 64, 80
1, 396704, Control_c, 0, 64, 63
1, 396719, Control_c, 0, 64, 0
1, 396748, Control_c, 0, 64, 64
1, 396757, Note_off_c, 0, 72, 59
1, 396763, Control_c, 0, 64, 78
1, 396778, Control_c, 0, 64, 94
1, 396785, Note_on_c, 0, 70, 81
1, 396793, Control_c, 0, 64, 111
1, 396807, Control_c, 0, 64, 115
1, 396812, Note_off_c, 0, 70, 64
1, 396822, Control_c, 0, 64, 116
1, 396837, Control_c, 0, 64, 118
1, 396852, Control_c, 0, 64, 120
1, 396867, Note_off_c, 0, 73, 56
1, 396867, Control_c, 0, 64, 120
1, 396882, Note_on_c, 0, 70, 98
1, 396882, Control_c, 0, 64, 121
1, 396928, Note_off_c, 0, 70, 61
1, 396941, Control_c, 0, 64, 121
1, 396980, Note_on_c, 0, 68, 91
1, 397025, Note_off_c, 0, 68, 64
1, 397045, Control_c, 0, 64, 122
1, 397088, Note_on_c, 0, 68, 93
1, 397089, Note_on_c, 0, 75, 100
1, 397092, Note_on_c, 0, 72, 93
1, 397093, Note_off_c, 0, 79, 43
1, 397111, Control_c, 0, 64, 123
1, 397126, Control_c, 0, 64, 124
1, 397138, Note_off_c, 0, 68, 64
1, 397141, Control_c, 0, 64, 126
1, 397146, Note_off_c, 0, 72, 64
1, 397156, Control_c, 0, 64, 127
1, 397183, Note_on_c, 0, 67, 88
1, 397225, Note_off_c, 0, 67, 64
1, 397252, Note_off_c, 0, 75, 60
1, 397290, Control_c, 0, 64, 120
1, 397293, Note_on_c, 0, 72, 98
1, 397293, Note_on_c, 0, 79, 101
1, 397296, Note_on_c, 0, 73, 103
1, 397305, Control_c, 0, 64, 90
1, 397320, Control_c, 0, 64, 67
1, 397335, Control_c, 0, 64, 0
1, 397360, Note_off_c, 0, 72, 66
1, 397364, Control_c, 0, 64, 46
1, 397379, Control_c, 0, 64, 75
1, 397394, Control_c, 0, 64, 93
1, 397409, Control_c, 0, 64, 121
1, 397412, Note_on_c, 0, 70, 92
1, 397424, Control_c, 0, 64, 127
1, 397438, Note_off_c, 0, 73, 46
1, 397450, Note_off_c, 0, 70, 65
1, 397517, Note_on_c, 0, 70, 103
1, 397546, Note_off_c, 0, 79, 33
1, 397556, Note_off_c, 0, 70, 61
1, 397607, Note_on_c, 0, 68, 95
1, 397656, Note_off_c, 0, 68, 64
1, 397706, Note_on_c, 0, 82, 102
1, 397708, Note_on_c, 0, 75, 106
1, 397711, Note_on_c, 0, 68, 94
1, 397746, Note_off_c, 0, 75, 70
1, 397754, Note_off_c, 0, 68, 65
1, 397770, Note_off_c, 0, 82, 65
1, 397809, Note_on_c, 0, 67, 90
1, 397832, Note_off_c, 0, 67, 67
1, 397994, Control_c, 0, 64, 106
1, 398009, Control_c, 0, 64, 78
1, 398024, Control_c, 0, 64, 0
1, 398027, Note_on_c, 0, 91, 108
1, 398030, Note_on_c, 0, 79, 103
1, 398038, Note_on_c, 0, 63, 103
1, 398040, Note_on_c, 0, 51, 96
1, 398054, Note_on_c, 0, 55, 83
1, 398098, Note_off_c, 0, 63, 65
1, 398113, Control_c, 0, 64, 72
1, 398125, Note_off_c, 0, 79, 62
1, 398128, Control_c, 0, 64, 102
1, 398133, Note_off_c, 0, 55, 66
1, 398143, Control_c, 0, 64, 127
1, 398151, Note_off_c, 0, 91, 60
1, 398158, Note_off_c, 0, 51, 61
1, 398215, Note_on_c, 0, 92, 102
1, 398220, Note_on_c, 0, 80, 99
1, 398262, Note_off_c, 0, 80, 64
1, 398273, Note_off_c, 0, 92, 65
1, 398330, Note_on_c, 0, 48, 107
1, 398334, Note_on_c, 0, 36, 98
1, 398343, Note_on_c, 0, 92, 105
1, 398349, Note_on_c, 0, 80, 98
1, 398357, Note_off_c, 0, 36, 70
1, 398366, Note_off_c, 0, 48, 68
1, 398385, Note_off_c, 0, 80, 66
1, 398391, Note_off_c, 0, 92, 67
1, 398450, Note_on_c, 0, 91, 97
1, 398450, Note_on_c, 0, 79, 90
1, 398492, Note_off_c, 0, 91, 61
1, 398494, Note_off_c, 0, 79, 62
1, 398545, Note_on_c, 0, 60, 86
1, 398562, Note_on_c, 0, 48, 93
1, 398564, Note_on_c, 0, 91, 97
1, 398568, Note_on_c, 0, 79, 97
1, 398579, Note_off_c, 0, 48, 73
1, 398597, Note_off_c, 0, 60, 64
1, 398599, Note_off_c, 0, 79, 66
1, 398599, Note_off_c, 0, 91, 65
1, 398662, Note_on_c, 0, 94, 97
1, 398665, Note_on_c, 0, 82, 97
1, 398706, Note_off_c, 0, 82, 63
1, 398706, Note_off_c, 0, 94, 65
1, 398727, Control_c, 0, 64, 106
1, 398742, Control_c, 0, 64, 80
1, 398757, Control_c, 0, 64, 55
1, 398762, Note_on_c, 0, 60, 98
1, 398763, Note_on_c, 0, 65, 94
1, 398766, Note_on_c, 0, 53, 94
1, 398768, Note_on_c, 0, 94, 100
1, 398772, Control_c, 0, 64, 50
1, 398775, Note_on_c, 0, 82, 98
1, 398780, Note_off_c, 0, 65, 74
1, 398784, Note_on_c, 0, 80, 85
1, 398787, Control_c, 0, 64, 72
1, 398797, Note_off_c, 0, 60, 65
1, 398802, Control_c, 0, 64, 91
1, 398808, Note_off_c, 0, 82, 63
1, 398810, Note_on_c, 0, 92, 34
1, 398811, Note_off_c, 0, 92, 127
1, 398812, Note_off_c, 0, 80, 55
1, 398814, Note_off_c, 0, 94, 68
1, 398816, Note_off_c, 0, 53, 67
1, 398816, Control_c, 0, 64, 127
1, 398871, Note_on_c, 0, 92, 94
1, 398877, Note_on_c, 0, 80, 98
1, 398915, Note_off_c, 0, 80, 63
1, 398924, Note_off_c, 0, 92, 65
1, 398968, Note_on_c, 0, 48, 99
1, 398974, Note_on_c, 0, 36, 87
1, 398977, Note_on_c, 0, 92, 98
1, 398980, Note_on_c, 0, 80, 93
1, 398992, Note_off_c, 0, 36, 68
1, 399005, Note_off_c, 0, 48, 67
1, 399013, Note_off_c, 0, 80, 67
1, 399024, Note_off_c, 0, 92, 66
1, 399085, Note_on_c, 0, 96, 96
1, 399088, Note_on_c, 0, 84, 91
1, 399108, Poly_aftertouch_c, 0, 36, 127
1, 399122, Note_off_c, 0, 96, 66
1, 399124, Note_off_c, 0, 84, 66
1, 399135, Poly_aftertouch_c, 0, 36, 0
1, 399179, Note_on_c, 0, 68, 106
1, 399182, Note_on_c, 0, 61, 87
1, 399182, Note_on_c, 0, 96, 101
1, 399183, Note_on_c, 0, 84, 104
1, 399184, Note_on_c, 0, 56, 93
1, 399211, Note_off_c, 0, 68, 65
1, 399211, Note_off_c, 0, 96, 67
1, 399216, Note_off_c, 0, 84, 69
1, 399220, Note_off_c, 0, 61, 66
1, 399227, Note_off_c, 0, 56, 63
1, 399279, Poly_aftertouch_c, 0, 55, 0
1, 399299, Note_on_c, 0, 79, 93
1, 399302, Note_on_c, 0, 91, 86
1, 399302, Poly_aftertouch_c, 0, 55, 0
1, 399303, Note_on_c, 0, 93, 86
1, 399328, Note_off_c, 0, 93, 70
1, 399340, Note_on_c, 0, 81, 40
1, 399341, Note_off_c, 0, 81, 127
1, 399345, Note_off_c, 0, 79, 65
1, 399349, Note_off_c, 0, 91, 59
1, 399358, Control_c, 0, 64, 112
1, 399373, Control_c, 0, 64, 82
1, 399388, Control_c, 0, 64, 33
1, 399401, Poly_aftertouch_c, 0, 54, 0
1, 399403, Control_c, 0, 64, 0
1, 399404, Note_on_c, 0, 63, 96
1, 399405, Note_on_c, 0, 51, 92
1, 399406, Note_on_c, 0, 55, 88
1, 399410, Note_on_c, 0, 91, 105
1, 399412, Note_on_c, 0, 79, 98
1, 399417, Control_c, 0, 64, 23
1, 399425, Note_off_c, 0, 63, 68
1, 399432, Control_c, 0, 64, 71
1, 399444, Note_off_c, 0, 55, 68
1, 399447, Control_c, 0, 64, 89
1, 399454, Note_off_c, 0, 51, 67
1, 399454, Note_off_c, 0, 79, 66
1, 399458, Note_off_c, 0, 91, 63
1, 399461, Control_c, 0, 64, 114
1, 399476, Control_c, 0, 64, 127
1, 399499, Poly_aftertouch_c, 0, 56, 0
1, 399505, Poly_aftertouch_c, 0, 64, 0
1, 399523, Note_on_c, 0, 92, 98
1, 399530, Note_on_c, 0, 80, 89
1, 399568, Note_off_c, 0, 92, 65
1, 399574, Note_off_c, 0, 80, 60
1, 399626, Note_on_c, 0, 48, 97
1, 399630, Note_on_c, 0, 36, 91
1, 399632, Note_on_c, 0, 92, 103
1, 399634, Note_on_c, 0, 80, 93
1, 399654, Note_off_c, 0, 36, 69
1, 399663, Note_off_c, 0, 48, 69
1, 399679, Note_off_c, 0, 80, 65
1, 399679, Note_off_c, 0, 92, 67
1, 399688, Note_on_c, 0, 93, 11
1, 399714, Note_off_c, 0, 93, 41
1, 399740, Note_on_c, 0, 91, 94
1, 399741, Note_on_c, 0, 79, 93
1, 399780, Note_off_c, 0, 91, 62
1, 399781, Note_off_c, 0, 79, 63
1, 399839, Note_on_c, 0, 60, 96
1, 399844, Note_on_c, 0, 48, 98
1, 399844, Note_on_c, 0, 91, 97
1, 399848, Note_on_c, 0, 79, 92
1, 399868, Note_off_c, 0, 48, 69
1, 399878, Note_off_c, 0, 60, 64
1, 399881, Note_off_c, 0, 79, 62
1, 399882, Note_off_c, 0, 91, 65
1, 399945, Note_on_c, 0, 94, 95
1, 399947, Note_on_c, 0, 82, 96
1, 399988, Note_off_c, 0, 94, 66
1, 399994, Note_off_c, 0, 82, 63
1, 400011, Control_c, 0, 64, 92
1, 400025, Control_c, 0, 64, 68
1, 400040, Control_c, 0, 64, 0
1, 400042, Note_on_c, 0, 60, 88
1, 400043, Note_on_c, 0, 65, 98
1, 400046, Note_on_c, 0, 53, 100
1, 400051, Note_on_c, 0, 94, 96
1, 400061, Note_on_c, 0, 82, 98
1, 400062, Control_c, 0, 64, 62
1, 400068, Note_off_c, 0, 65, 72
1, 400077, Control_c, 0, 64, 79
1, 400081, Note_off_c, 0, 60, 67
1, 400092, Control_c, 0, 64, 101
1, 400102, Note_off_c, 0, 53, 67
1, 400103, Note_off_c, 0, 82, 62
1, 400103, Note_off_c, 0, 94, 66
1, 400107, Control_c, 0, 64, 127
1, 400163, Note_on_c, 0, 92, 95
1, 400168, Note_on_c, 0, 80, 93
1, 400213, Note_off_c, 0, 80, 63
1, 400217, Note_off_c, 0, 92, 66
1, 400267, Note_on_c, 0, 48, 90
1, 400271, Note_on_c, 0, 36, 84
1, 400280, Note_on_c, 0, 92, 97
1, 400283, Note_on_c, 0, 80, 96
1, 400289, Note_off_c, 0, 36, 68
1, 400305, Note_off_c, 0, 48, 68
1, 400314, Note_off_c, 0, 80, 65
1, 400326, Note_on_c, 0, 94, 23
1, 400331, Note_off_c, 0, 92, 67
1, 400349, Note_off_c, 0, 94, 43
1, 400402, Note_on_c, 0, 98, 90
1, 400405, Note_on_c, 0, 96, 86
1, 400407, Note_on_c, 0, 84, 83
1, 400409, Note_on_c, 0, 86, 78
1, 400426, Note_off_c, 0, 96, 62
1, 400428, Note_off_c, 0, 98, 66
1, 400429, Note_off_c, 0, 86, 71
1, 400431, Note_off_c, 0, 84, 65
1, 400520, Note_on_c, 0, 68, 106
1, 400523, Note_on_c, 0, 96, 102
1, 400525, Note_on_c, 0, 56, 94
1, 400525, Note_on_c, 0, 84, 103
1, 400526, Note_on_c, 0, 61, 94
1, 400539, Note_off_c, 0, 68, 69
1, 400548, Note_off_c, 0, 84, 66
1, 400549, Note_off_c, 0, 96, 70
1, 400551, Note_off_c, 0, 56, 66
1, 400551, Note_off_c, 0, 61, 65
1, 400657, Note_on_c, 0, 93, 108
1, 400659, Note_on_c, 0, 79, 109
1, 400668, Note_on_c, 0, 91, 78
1, 400672, Note_off_c, 0, 93, 71
1, 400680, Note_off_c, 0, 79, 64
1, 400683, Note_off_c, 0, 91, 43
1, 400684, Note_on_c, 0, 81, 56
1, 400685, Note_off_c, 0, 81, 127
1, 400989, Control_c, 0, 64, 102
1, 400991, Note_on_c, 0, 60, 97
1, 400996, Note_on_c, 0, 51, 107
1, 400997, Note_on_c, 0, 63, 100
1, 400998, Note_on_c, 0, 24, 108
1, 400998, Note_on_c, 0, 36, 111
1, 401004, Control_c, 0, 64, 73
1, 401019, Control_c, 0, 64, 0
1, 401038, Note_on_c, 0, 52, 43
1, 401039, Note_off_c, 0, 52, 127
1, 401152, Control_c, 0, 64, 61
1, 401167, Control_c, 0, 64, 94
1, 401168, Note_off_c, 0, 24, 64
1, 401181, Note_off_c, 0, 51, 66
1, 401181, Control_c, 0, 64, 127
1, 401197, Note_off_c, 0, 36, 64
1, 401227, Note_off_c, 0, 60, 57
1, 401249, Note_off_c, 0, 63, 62
1, 401461, Note_on_c, 0, 68, 90
1, 401463, Note_on_c, 0, 92, 105
1, 401464, Note_on_c, 0, 80, 100
1, 401503, Note_off_c, 0, 80, 64
1, 401515, Note_off_c, 0, 92, 65
1, 401523, Note_off_c, 0, 68, 62
1, 401610, Note_on_c, 0, 92, 107
1, 401610, Note_on_c, 0, 68, 96
1, 401613, Note_on_c, 0, 80, 94
1, 401650, Note_off_c, 0, 80, 67
1, 401663, Note_off_c, 0, 92, 65
1, 401669, Note_off_c, 0, 68, 65
1, 401730, Note_on_c, 0, 91, 96
1, 401733, Note_on_c, 0, 67, 95
1, 401735, Note_on_c, 0, 79, 88
1, 401777, Note_off_c, 0, 79, 63
1, 401777, Note_off_c, 0, 91, 61
1, 401779, Note_off_c, 0, 67, 65
1, 401849, Note_on_c, 0, 79, 91
1, 401850, Note_on_c, 0, 91, 99
1, 401851, Note_on_c, 0, 67, 92
1, 401882, Note_off_c, 0, 79, 60
1, 401893, Note_off_c, 0, 91, 62
1, 401896, Note_off_c, 0, 67, 64
1, 401958, Note_on_c, 0, 72, 89
1, 401964, Note_on_c, 0, 96, 95
1, 401967, Note_on_c, 0, 84, 91
1, 402001, Note_off_c, 0, 96, 65
1, 402006, Note_off_c, 0, 72, 65
1, 402007, Note_off_c, 0, 84, 65
1, 402076, Note_on_c, 0, 72, 88
1, 402084, Note_on_c, 0, 96, 93
1, 402086, Note_on_c, 0, 84, 96
1, 402107, Note_off_c, 0, 96, 58
1, 402114, Note_off_c, 0, 84, 64
1, 402119, Note_off_c, 0, 72, 65
1, 402126, Note_on_c, 0, 95, 30
1, 402127, Note_off_c, 0, 95, 127
1, 402133, Note_on_c, 0, 67, 4
1, 402161, Note_off_c, 0, 67, 0
1, 402174, Note_on_c, 0, 67, 30
1, 402195, Note_on_c, 0, 91, 92
1, 402197, Note_on_c, 0, 79, 89
1, 402216, Note_off_c, 0, 91, 60
1, 402223, Note_off_c, 0, 79, 64
1, 402230, Note_off_c, 0, 67, 63
1, 402285, Note_on_c, 0, 67, 82
1, 402305, Note_on_c, 0, 79, 89
1, 402305, Note_on_c, 0, 91, 89
1, 402340, Note_off_c, 0, 67, 63
1, 402342, Note_off_c, 0, 91, 60
1, 402345, Note_off_c, 0, 79, 60
1, 402350, Note_on_c, 0, 89, 26
1, 402351, Note_off_c, 0, 89, 127
1, 402403, Note_on_c, 0, 70, 95
1, 402411, Note_on_c, 0, 94, 98
1, 402413, Note_on_c, 0, 82, 97
1, 402444, Note_off_c, 0, 70, 63
1, 402450, Note_off_c, 0, 82, 64
1, 402450, Note_off_c, 0, 94, 65
1, 402506, Note_on_c, 0, 70, 86
1, 402509, Note_on_c, 0, 94, 90
1, 402517, Note_on_c, 0, 82, 91
1, 402543, Note_off_c, 0, 82, 64
1, 402546, Note_off_c, 0, 94, 67
1, 402562, Note_off_c, 0, 70, 62
1, 402612, Note_on_c, 0, 63, 86
1, 402621, Note_on_c, 0, 87, 91
1, 402624, Note_on_c, 0, 75, 90
1, 402652, Note_off_c, 0, 75, 60
1, 402659, Note_off_c, 0, 63, 62
1, 402663, Note_off_c, 0, 87, 64
1, 402715, Note_on_c, 0, 63, 85
1, 402719, Note_on_c, 0, 87, 90
1, 402732, Note_on_c, 0, 75, 79
1, 402754, Note_off_c, 0, 75, 71
1, 402770, Note_off_c, 0, 63, 62
1, 402776, Note_off_c, 0, 87, 63
1, 402822, Note_on_c, 0, 67, 85
1, 402829, Note_on_c, 0, 91, 99
1, 402833, Note_on_c, 0, 79, 84
1, 402866, Note_off_c, 0, 67, 63
1, 402870, Note_off_c, 0, 79, 61
1, 402872, Note_off_c, 0, 91, 63
1, 402936, Note_on_c, 0, 91, 88
1, 402942, Note_on_c, 0, 67, 83
1, 402950, Note_on_c, 0, 79, 76
1, 402973, Note_off_c, 0, 79, 64
1, 402981, Note_off_c, 0, 91, 59
1, 402990, Note_off_c, 0, 67, 59
1, 403046, Note_on_c, 0, 92, 97
1, 403055, Note_on_c, 0, 68, 90
1, 403059, Note_on_c, 0, 80, 92
1, 403082, Note_off_c, 0, 80, 62
1, 403098, Note_off_c, 0, 68, 64
1, 403100, Note_off_c, 0, 92, 66
1, 403157, Note_on_c, 0, 68, 88
1, 403161, Note_on_c, 0, 92, 95
1, 403165, Note_on_c, 0, 80, 92
1, 403204, Note_off_c, 0, 80, 64
1, 403204, Note_off_c, 0, 92, 67
1, 403206, Note_off_c, 0, 68, 64
1, 403254, Note_on_c, 0, 67, 88
1, 403263, Note_on_c, 0, 91, 98
1, 403267, Note_on_c, 0, 79, 87
1, 403303, Note_off_c, 0, 67, 63
1, 403311, Note_off_c, 0, 79, 62
1, 403311, Note_off_c, 0, 91, 61
1, 403367, Note_on_c, 0, 67, 84
1, 403373, Note_on_c, 0, 91, 91
1, 403374, Note_on_c, 0, 79, 82
1, 403390, Note_off_c, 0, 91, 66
1, 403398, Note_off_c, 0, 79, 66
1, 403410, Note_off_c, 0, 67, 62
1, 403470, Note_on_c, 0, 60, 76
1, 403480, Note_on_c, 0, 72, 85
1, 403480, Note_on_c, 0, 84, 88
1, 403502, Note_off_c, 0, 72, 67
1, 403504, Note_off_c, 0, 84, 59
1, 403514, Note_off_c, 0, 60, 59
1, 403576, Note_on_c, 0, 60, 77
1, 403583, Note_on_c, 0, 84, 85
1, 403584, Note_on_c, 0, 72, 87
1, 403616, Note_off_c, 0, 72, 61
1, 403620, Note_off_c, 0, 84, 60
1, 403628, Note_off_c, 0, 60, 60
1, 403682, Note_on_c, 0, 62, 85
1, 403693, Note_on_c, 0, 86, 86
1, 403696, Note_on_c, 0, 74, 86
1, 403728, Note_off_c, 0, 62, 59
1, 403729, Note_off_c, 0, 86, 65
1, 403731, Note_off_c, 0, 74, 65
1, 403786, Note_on_c, 0, 62, 75
1, 403808, Note_on_c, 0, 75, 90
1, 403809, Note_on_c, 0, 87, 87
1, 403849, Note_off_c, 0, 62, 59
1, 403857, Note_off_c, 0, 87, 59
1, 403862, Note_off_c, 0, 75, 59
1, 403911, Note_on_c, 0, 63, 83
1, 403925, Note_on_c, 0, 87, 77
1, 403929, Note_on_c, 0, 75, 70
1, 403958, Note_off_c, 0, 63, 65
1, 403970, Note_off_c, 0, 75, 58
1, 403979, Note_off_c, 0, 87, 59
1, 404025, Poly_aftertouch_c, 0, 84, 0
1, 404042, Note_on_c, 0, 84, 55
1, 404045, Control_c, 0, 64, 115
1, 404045, Note_on_c, 0, 67, 87
1, 404048, Note_on_c, 0, 87, 85
1, 404053, Note_on_c, 0, 75, 95
1, 404060, Control_c, 0, 64, 90
1, 404074, Control_c, 0, 64, 72
1, 404089, Control_c, 0, 64, 43
1, 404104, Control_c, 0, 64, 53
1, 404119, Control_c, 0, 64, 69
1, 404128, Note_off_c, 0, 75, 64
1, 404128, Note_off_c, 0, 87, 62
1, 404133, Note_off_c, 0, 84, 64
1, 404133, Control_c, 0, 64, 80
1, 404148, Control_c, 0, 64, 93
1, 404163, Control_c, 0, 64, 104
1, 404178, Control_c, 0, 64, 114
1, 404186, Note_on_c, 0, 84, 74
1, 404191, Note_on_c, 0, 72, 83
1, 404193, Control_c, 0, 64, 119
1, 404207, Control_c, 0, 64, 122
1, 404222, Control_c, 0, 64, 124
1, 404235, Note_off_c, 0, 72, 65
1, 404240, Note_off_c, 0, 84, 65
1, 404251, Control_c, 0, 64, 124
1, 404255, Note_off_c, 0, 67, 58
1, 404266, Control_c, 0, 64, 125
1, 404281, Control_c, 0, 64, 126
1, 404296, Control_c, 0, 64, 127
1, 404299, Note_on_c, 0, 68, 83
1, 404300, Note_on_c, 0, 72, 86
1, 404301, Note_on_c, 0, 84, 87
1, 404340, Note_off_c, 0, 72, 66
1, 404342, Note_off_c, 0, 84, 66
1, 404407, Note_on_c, 0, 74, 87
1, 404409, Note_on_c, 0, 86, 91
1, 404449, Note_off_c, 0, 86, 65
1, 404453, Note_off_c, 0, 74, 64
1, 404470, Note_off_c, 0, 68, 62
1, 404490, Control_c, 0, 64, 117
1, 404504, Note_on_c, 0, 74, 90
1, 404504, Control_c, 0, 64, 105
1, 404506, Note_on_c, 0, 67, 87
1, 404507, Note_on_c, 0, 84, 90
1, 404507, Note_on_c, 0, 86, 86
1, 404519, Control_c, 0, 64, 97
1, 404534, Control_c, 0, 64, 92
1, 404548, Note_off_c, 0, 86, 68
1, 404556, Control_c, 0, 64, 92
1, 404564, Note_off_c, 0, 74, 67
1, 404571, Control_c, 0, 64, 93
1, 404575, Note_off_c, 0, 84, 66
1, 404586, Control_c, 0, 64, 99
1, 404601, Control_c, 0, 64, 109
1, 404616, Control_c, 0, 64, 122
1, 404625, Note_on_c, 0, 87, 89
1, 404626, Note_on_c, 0, 75, 94
1, 404630, Control_c, 0, 64, 127
1, 404679, Note_off_c, 0, 87, 62
1, 404686, Note_off_c, 0, 75, 60
1, 404689, Control_c, 0, 64, 116
1, 404704, Control_c, 0, 64, 100
1, 404719, Control_c, 0, 64, 86
1, 404727, Note_on_c, 0, 68, 99
1, 404728, Note_on_c, 0, 87, 79
1, 404731, Note_on_c, 0, 84, 75
1, 404731, Note_on_c, 0, 75, 84
1, 404734, Control_c, 0, 64, 73
1, 404738, Note_off_c, 0, 67, 54
1, 404748, Control_c, 0, 64, 65
1, 404763, Control_c, 0, 64, 68
1, 404778, Control_c, 0, 64, 75
1, 404790, Note_off_c, 0, 75, 66
1, 404793, Control_c, 0, 64, 85
1, 404796, Note_off_c, 0, 87, 63
1, 404796, Note_off_c, 0, 84, 64
1, 404808, Control_c, 0, 64, 93
1, 404822, Control_c, 0, 64, 98
1, 404837, Control_c, 0, 64, 103
1, 404847, Note_on_c, 0, 86, 82
1, 404849, Note_on_c, 0, 74, 78
1, 404852, Control_c, 0, 64, 109
1, 404867, Control_c, 0, 64, 115
1, 404869, Note_on_c, 0, 84, 52
1, 404881, Control_c, 0, 64, 117
1, 404889, Note_off_c, 0, 84, 63
1, 404892, Note_off_c, 0, 86, 62
1, 404895, Note_off_c, 0, 74, 64
1, 404925, Note_off_c, 0, 68, 63
1, 404926, Control_c, 0, 64, 114
1, 404941, Control_c, 0, 64, 104
1, 404950, Note_on_c, 0, 74, 81
1, 404951, Note_on_c, 0, 84, 84
1, 404953, Note_on_c, 0, 67, 97
1, 404953, Note_on_c, 0, 86, 78
1, 404955, Control_c, 0, 64, 96
1, 404970, Control_c, 0, 64, 93
1, 404985, Control_c, 0, 64, 92
1, 404986, Note_off_c, 0, 86, 61
1, 404992, Note_off_c, 0, 84, 66
1, 404993, Note_off_c, 0, 74, 63
1, 405000, Control_c, 0, 64, 93
1, 405015, Control_c, 0, 64, 94
1, 405029, Control_c, 0, 64, 97
1, 405044, Control_c, 0, 64, 101
1, 405058, Note_on_c, 0, 84, 89
1, 405059, Control_c, 0, 64, 104
1, 405064, Note_on_c, 0, 72, 84
1, 405073, Control_c, 0, 64, 105
1, 405088, Control_c, 0, 64, 105
1, 405102, Note_off_c, 0, 84, 65
1, 405103, Note_off_c, 0, 72, 61
1, 405136, Note_off_c, 0, 67, 61
1, 405163, Note_on_c, 0, 68, 103
1, 405166, Note_on_c, 0, 72, 90
1, 405168, Note_on_c, 0, 84, 85
1, 405199, Note_off_c, 0, 84, 67
1, 405205, Note_off_c, 0, 72, 66
1, 405222, Control_c, 0, 64, 106
1, 405237, Control_c, 0, 64, 108
1, 405252, Control_c, 0, 64, 114
1, 405267, Control_c, 0, 64, 127
1, 405269, Note_on_c, 0, 75, 89
1, 405270, Note_on_c, 0, 87, 85
1, 405330, Note_off_c, 0, 87, 62
1, 405334, Note_off_c, 0, 75, 64
1, 405344, Note_off_c, 0, 68, 60
1, 405364, Control_c, 0, 64, 110
1, 405377, Note_on_c, 0, 87, 80
1, 405378, Control_c, 0, 64, 90
1, 405379, Note_on_c, 0, 75, 92
1, 405383, Note_on_c, 0, 67, 106
1, 405384, Note_on_c, 0, 84, 85
1, 405393, Control_c, 0, 64, 73
1, 405408, Control_c, 0, 64, 64
1, 405423, Control_c, 0, 64, 67
1, 405438, Control_c, 0, 64, 75
1, 405444, Note_off_c, 0, 75, 65
1, 405446, Note_off_c, 0, 87, 64
1, 405450, Note_off_c, 0, 84, 63
1, 405452, Control_c, 0, 64, 87
1, 405467, Control_c, 0, 64, 100
1, 405482, Control_c, 0, 64, 108
1, 405497, Note_on_c, 0, 86, 88
1, 405497, Note_on_c, 0, 74, 77
1, 405497, Control_c, 0, 64, 110
1, 405512, Control_c, 0, 64, 112
1, 405527, Control_c, 0, 64, 114
1, 405538, Note_on_c, 0, 84, 33
1, 405542, Control_c, 0, 64, 117
1, 405543, Note_off_c, 0, 86, 64
1, 405549, Note_off_c, 0, 74, 64
1, 405557, Control_c, 0, 64, 118
1, 405571, Note_off_c, 0, 67, 61
1, 405571, Note_off_c, 0, 84, 49
1, 405572, Control_c, 0, 64, 119
1, 405586, Control_c, 0, 64, 119
1, 405595, Note_on_c, 0, 84, 72
1, 405599, Note_on_c, 0, 74, 79
1, 405601, Note_on_c, 0, 86, 81
1, 405601, Control_c, 0, 64, 121
1, 405604, Note_on_c, 0, 68, 103
1, 405616, Control_c, 0, 64, 121
1, 405631, Control_c, 0, 64, 122
1, 405640, Note_off_c, 0, 74, 67
1, 405641, Note_off_c, 0, 86, 65
1, 405642, Note_off_c, 0, 84, 67
1, 405661, Control_c, 0, 64, 123
1, 405676, Control_c, 0, 64, 126
1, 405690, Control_c, 0, 64, 127
1, 405708, Note_on_c, 0, 84, 92
1, 405709, Note_on_c, 0, 72, 93
1, 405748, Note_off_c, 0, 84, 66
1, 405754, Note_off_c, 0, 72, 63
1, 405773, Note_off_c, 0, 68, 60
1, 405813, Note_on_c, 0, 67, 107
1, 405824, Note_on_c, 0, 72, 83
1, 405828, Note_on_c, 0, 74, 77
1, 405828, Note_on_c, 0, 84, 80
1, 405830, Note_on_c, 0, 86, 79
1, 405848, Note_off_c, 0, 86, 69
1, 405849, Note_off_c, 0, 74, 63
1, 405851, Note_off_c, 0, 72, 65
1, 405855, Note_off_c, 0, 84, 66
1, 405925, Note_on_c, 0, 86, 93
1, 405929, Note_on_c, 0, 74, 87
1, 405946, Note_on_c, 0, 85, 60
1, 405972, Note_off_c, 0, 86, 63
1, 405990, Note_off_c, 0, 74, 63
1, 405991, Note_off_c, 0, 67, 58
1, 405992, Note_off_c, 0, 85, 57
1, 406031, Control_c, 0, 64, 113
1, 406034, Note_on_c, 0, 68, 103
1, 406039, Note_on_c, 0, 74, 94
1, 406042, Note_on_c, 0, 84, 93
1, 406053, Control_c, 0, 64, 89
1, 406054, Note_on_c, 0, 86, 82
1, 406068, Control_c, 0, 64, 70
1, 406069, Note_on_c, 0, 88, 59
1, 406078, Note_off_c, 0, 86, 65
1, 406084, Control_c, 0, 64, 0
1, 406090, Note_off_c, 0, 88, 44
1, 406099, Control_c, 0, 64, 43
1, 406111, Note_off_c, 0, 74, 66
1, 406114, Control_c, 0, 64, 68
1, 406128, Control_c, 0, 64, 81
1, 406129, Note_off_c, 0, 84, 65
1, 406143, Control_c, 0, 64, 99
1, 406158, Control_c, 0, 64, 117
1, 406160, Note_on_c, 0, 75, 89
1, 406161, Note_on_c, 0, 87, 81
1, 406170, Note_on_c, 0, 84, 63
1, 406173, Control_c, 0, 64, 121
1, 406188, Control_c, 0, 64, 122
1, 406202, Control_c, 0, 64, 127
1, 406224, Note_off_c, 0, 87, 62
1, 406225, Note_off_c, 0, 75, 63
1, 406230, Note_off_c, 0, 68, 51
1, 406231, Note_off_c, 0, 84, 64
1, 406276, Note_on_c, 0, 75, 96
1, 406277, Note_on_c, 0, 84, 76
1, 406278, Note_on_c, 0, 87, 92
1, 406284, Note_on_c, 0, 67, 100
1, 406308, Note_off_c, 0, 75, 69
1, 406311, Note_off_c, 0, 67, 68
1, 406321, Note_off_c, 0, 84, 65
1, 406332, Note_off_c, 0, 87, 65
1, 406404, Note_on_c, 0, 82, 99
1, 406407, Note_on_c, 0, 94, 102
1, 406486, Note_off_c, 0, 82, 57
1, 406489, Note_off_c, 0, 94, 62
1, 406555, Note_on_c, 0, 69, 108
1, 406557, Note_on_c, 0, 86, 96
1, 406557, Control_c, 0, 64, 89
1, 406561, Note_on_c, 0, 82, 101
1, 406561, Note_on_c, 0, 94, 98
1, 406561, Note_on_c, 0, 57, 100
1, 406572, Control_c, 0, 64, 68
1, 406587, Control_c, 0, 64, 50
1, 406594, Note_off_c, 0, 69, 71
1, 406598, Note_off_c, 0, 57, 69
1, 406601, Control_c, 0, 64, 68
1, 406609, Note_on_c, 0, 92, 22
1, 406610, Note_off_c, 0, 92, 127
1, 406616, Control_c, 0, 64, 85
1, 406631, Control_c, 0, 64, 124
1, 406638, Note_off_c, 0, 82, 67
1, 406644, Note_off_c, 0, 94, 66
1, 406645, Control_c, 0, 64, 127
1, 406692, Note_off_c, 0, 86, 57
1, 406720, Note_on_c, 0, 81, 105
1, 406722, Note_on_c, 0, 93, 102
1, 406823, Note_off_c, 0, 93, 58
1, 406839, Note_off_c, 0, 81, 55
1, 406906, Control_c, 0, 64, 109
1, 406913, Note_on_c, 0, 74, 105
1, 406915, Note_on_c, 0, 62, 100
1, 406915, Note_on_c, 0, 86, 105
1, 406915, Note_on_c, 0, 93, 108
1, 406916, Note_on_c, 0, 81, 103
1, 406919, Note_on_c, 0, 69, 104
1, 406921, Control_c, 0, 64, 81
1, 406936, Control_c, 0, 64, 0
1, 406995, Control_c, 0, 64, 74
1, 406996, Note_off_c, 0, 81, 60
1, 406998, Note_off_c, 0, 93, 61
1, 407010, Control_c, 0, 64, 97
1, 407020, Note_off_c, 0, 62, 54
1, 407024, Control_c, 0, 64, 127
1, 407038, Note_off_c, 0, 74, 58
1, 407069, Note_off_c, 0, 86, 60
1, 407087, Note_off_c, 0, 69, 56
1, 407099, Note_on_c, 0, 82, 99
1, 407100, Note_on_c, 0, 94, 89
1, 407172, Poly_aftertouch_c, 0, 86, 0
1, 407173, Note_off_c, 0, 94, 63
1, 407181, Note_off_c, 0, 82, 60
1, 407200, Poly_aftertouch_c, 0, 86, 0
1, 407243, Note_on_c, 0, 94, 91
1, 407245, Note_on_c, 0, 69, 90
1, 407246, Note_on_c, 0, 74, 97
1, 407246, Note_on_c, 0, 86, 91
1, 407249, Note_on_c, 0, 82, 94
1, 407250, Note_on_c, 0, 62, 88
1, 407279, Note_off_c, 0, 74, 63
1, 407282, Note_off_c, 0, 69, 68
1, 407288, Note_off_c, 0, 82, 64
1, 407298, Note_off_c, 0, 62, 62
1, 407306, Note_off_c, 0, 94, 67
1, 407357, Note_off_c, 0, 86, 0
1, 407363, Note_on_c, 0, 81, 73
1, 407366, Note_on_c, 0, 93, 94
1, 407400, Poly_aftertouch_c, 0, 86, 0
1, 407422, Note_off_c, 0, 93, 62
1, 407430, Note_off_c, 0, 81, 61
1, 407480, Note_on_c, 0, 69, 100
1, 407484, Note_on_c, 0, 57, 95
1, 407487, Note_on_c, 0, 81, 92
1, 407488, Note_on_c, 0, 93, 100
1, 407504, Note_on_c, 0, 86, 71
1, 407512, Note_off_c, 0, 57, 65
1, 407524, Note_off_c, 0, 86, 67
1, 407527, Note_off_c, 0, 69, 69
1, 407545, Note_off_c, 0, 93, 62
1, 407552, Note_off_c, 0, 81, 59
1, 407607, Note_on_c, 0, 91, 93
1, 407611, Note_on_c, 0, 79, 94
1, 407667, Note_off_c, 0, 79, 61
1, 407669, Note_off_c, 0, 91, 61
1, 407699, Control_c, 0, 64, 102
1, 407714, Control_c, 0, 64, 80
1, 407729, Control_c, 0, 64, 66
1, 407733, Note_on_c, 0, 91, 98
1, 407734, Note_on_c, 0, 69, 93
1, 407735, Note_on_c, 0, 74, 104
1, 407736, Note_on_c, 0, 79, 96
1, 407738, Note_on_c, 0, 62, 95
1, 407742, Note_on_c, 0, 86, 87
1, 407744, Control_c, 0, 64, 53
1, 407759, Control_c, 0, 64, 63
1, 407773, Control_c, 0, 64, 71
1, 407788, Control_c, 0, 64, 81
1, 407796, Note_off_c, 0, 79, 64
1, 407800, Note_off_c, 0, 91, 58
1, 407803, Control_c, 0, 64, 93
1, 407818, Control_c, 0, 64, 103
1, 407827, Note_off_c, 0, 86, 65
1, 407833, Control_c, 0, 64, 108
1, 407847, Control_c, 0, 64, 110
1, 407860, Note_on_c, 0, 78, 93
1, 407861, Note_on_c, 0, 90, 93
1, 407862, Control_c, 0, 64, 111
1, 407868, Note_on_c, 0, 86, 64
1, 407893, Note_off_c, 0, 74, 57
1, 407906, Note_off_c, 0, 78, 63
1, 407906, Control_c, 0, 64, 111
1, 407917, Note_off_c, 0, 62, 59
1, 407922, Note_off_c, 0, 90, 62
1, 407923, Note_off_c, 0, 86, 59
1, 407976, Note_on_c, 0, 90, 93
1, 407984, Note_on_c, 0, 78, 89
1, 407991, Note_on_c, 0, 86, 62
1, 408001, Note_off_c, 0, 78, 73
1, 408039, Note_off_c, 0, 86, 61
1, 408045, Note_off_c, 0, 90, 62
1, 408079, Poly_aftertouch_c, 0, 86, 0
1, 408084, Note_on_c, 0, 86, 71
1, 408084, Note_on_c, 0, 94, 92
1, 408086, Note_on_c, 0, 82, 88
1, 408125, Note_off_c, 0, 94, 66
1, 408133, Note_off_c, 0, 82, 64
1, 408144, Note_off_c, 0, 69, 57
1, 408148, Note_off_c, 0, 86, 63
1, 408186, Note_on_c, 0, 60, 84
1, 408186, Note_on_c, 0, 72, 89
1, 408194, Note_on_c, 0, 86, 78
1, 408195, Note_on_c, 0, 94, 94
1, 408197, Note_on_c, 0, 82, 88
1, 408201, Note_on_c, 0, 69, 60
1, 408218, Control_c, 0, 64, 112
1, 408229, Note_off_c, 0, 60, 62
1, 408230, Note_off_c, 0, 72, 67
1, 408233, Control_c, 0, 64, 114
1, 408235, Note_off_c, 0, 69, 65
1, 408240, Note_off_c, 0, 82, 65
1, 408247, Control_c, 0, 64, 118
1, 408248, Note_off_c, 0, 94, 66
1, 408256, Note_off_c, 0, 86, 64
1, 408262, Control_c, 0, 64, 121
1, 408277, Control_c, 0, 64, 124
1, 408297, Note_on_c, 0, 74, 89
1, 408299, Control_c, 0, 64, 127
1, 408301, Note_on_c, 0, 81, 93
1, 408305, Note_on_c, 0, 69, 84
1, 408308, Note_on_c, 0, 93, 82
1, 408318, Note_on_c, 0, 62, 55
1, 408332, Note_on_c, 0, 95, 41
1, 408333, Note_off_c, 0, 95, 127
1, 408338, Note_off_c, 0, 62, 61
1, 408342, Note_off_c, 0, 74, 66
1, 408348, Note_off_c, 0, 93, 64
1, 408353, Note_off_c, 0, 69, 66
1, 408354, Note_off_c, 0, 81, 62
1, 408358, Control_c, 0, 64, 126
1, 408373, Control_c, 0, 64, 97
1, 408388, Control_c, 0, 64, 71
1, 408401, Note_on_c, 0, 76, 104
1, 408403, Control_c, 0, 64, 0
1, 408404, Note_on_c, 0, 88, 89
1, 408405, Note_on_c, 0, 69, 94
1, 408406, Note_on_c, 0, 64, 95
1, 408407, Note_on_c, 0, 93, 99
1, 408408, Note_on_c, 0, 81, 100
1, 408447, Control_c, 0, 64, 66
1, 408453, Note_off_c, 0, 81, 61
1, 408454, Note_off_c, 0, 93, 62
1, 408462, Control_c, 0, 64, 81
1, 408471, Note_off_c, 0, 88, 61
1, 408478, Control_c, 0, 64, 98
1, 408486, Note_off_c, 0, 64, 60
1, 408491, Note_off_c, 0, 76, 60
1, 408492, Control_c, 0, 64, 121
1, 408507, Control_c, 0, 64, 127
1, 408518, Note_on_c, 0, 91, 95
1, 408521, Note_on_c, 0, 79, 88
1, 408526, Note_on_c, 0, 88, 63
1, 408564, Note_off_c, 0, 88, 56
1, 408568, Note_off_c, 0, 79, 61
1, 408568, Note_off_c, 0, 91, 60
1, 408572, Note_off_c, 0, 69, 56
1, 408627, Note_on_c, 0, 79, 95
1, 408627, Note_on_c, 0, 91, 87
1, 408630, Note_on_c, 0, 76, 101
1, 408630, Note_on_c, 0, 88, 83
1, 408636, Note_on_c, 0, 64, 93
1, 408661, Note_off_c, 0, 76, 71
1, 408663, Note_off_c, 0, 79, 61
1, 408673, Note_off_c, 0, 88, 65
1, 408674, Note_off_c, 0, 64, 66
1, 408675, Note_off_c, 0, 91, 59
1, 408737, Note_on_c, 0, 96, 98
1, 408741, Note_on_c, 0, 84, 88
1, 408783, Note_off_c, 0, 96, 63
1, 408795, Note_off_c, 0, 84, 63
1, 408845, Note_on_c, 0, 69, 109
1, 408849, Note_on_c, 0, 96, 96
1, 408850, Note_on_c, 0, 57, 94
1, 408851, Note_on_c, 0, 88, 89
1, 408852, Note_on_c, 0, 84, 94
1, 408883, Note_off_c, 0, 96, 65
1, 408883, Note_off_c, 0, 57, 66
1, 408889, Note_off_c, 0, 69, 67
1, 408895, Note_off_c, 0, 88, 65
1, 408895, Note_off_c, 0, 84, 65
1, 408904, Note_on_c, 0, 92, 11
1, 408905, Note_off_c, 0, 92, 127
1, 408965, Note_on_c, 0, 94, 87
1, 408968, Note_on_c, 0, 82, 90
1, 409020, Note_off_c, 0, 94, 65
1, 409023, Note_off_c, 0, 82, 63
1, 409047, Control_c, 0, 64, 107
1, 409062, Control_c, 0, 64, 78
1, 409077, Note_on_c, 0, 94, 91
1, 409077, Control_c, 0, 64, 51
1, 409078, Note_on_c, 0, 74, 98
1, 409079, Note_on_c, 0, 82, 91
1, 409082, Note_on_c, 0, 62, 92
1, 409082, Note_on_c, 0, 69, 94
1, 409084, Note_on_c, 0, 86, 86
1, 409092, Control_c, 0, 64, 45
1, 409107, Control_c, 0, 64, 68
1, 409121, Control_c, 0, 64, 81
1, 409136, Control_c, 0, 64, 101
1, 409138, Note_off_c, 0, 82, 65
1, 409147, Note_off_c, 0, 94, 65
1, 409151, Control_c, 0, 64, 127
1, 409155, Note_off_c, 0, 86, 58
1, 409190, Note_off_c, 0, 74, 60
1, 409197, Note_on_c, 0, 81, 90
1, 409198, Note_on_c, 0, 93, 89
1, 409245, Note_off_c, 0, 62, 59
1, 409247, Note_off_c, 0, 93, 63
1, 409247, Note_on_c, 0, 86, 13
1, 409248, Note_off_c, 0, 81, 62
1, 409299, Note_on_c, 0, 81, 86
1, 409300, Note_off_c, 0, 69, 53
1, 409300, Note_on_c, 0, 93, 90
1, 409303, Note_off_c, 0, 86, 35
1, 409327, Note_off_c, 0, 93, 62
1, 409335, Note_off_c, 0, 81, 64
1, 409413, Note_on_c, 0, 86, 84
1, 409414, Note_on_c, 0, 74, 88
1, 409442, Note_off_c, 0, 86, 54
1, 409451, Note_off_c, 0, 74, 55
1, 409506, Note_on_c, 0, 76, 83
1, 409506, Note_on_c, 0, 88, 82
1, 409516, Note_on_c, 0, 81, 77
1, 409530, Note_off_c, 0, 88, 63
1, 409544, Note_off_c, 0, 76, 65
1, 409563, Note_off_c, 0, 81, 63
1, 409611, Note_on_c, 0, 90, 97
1, 409615, Note_on_c, 0, 78, 88
1, 409616, Note_on_c, 0, 81, 72
1, 409655, Note_off_c, 0, 81, 56
1, 409655, Note_off_c, 0, 78, 62
1, 409660, Note_off_c, 0, 90, 65
1, 409701, Control_c, 0, 64, 91
1, 409710, Note_on_c, 0, 72, 95
1, 409714, Note_on_c, 0, 60, 86
1, 409716, Control_c, 0, 64, 65
1, 409717, Note_on_c, 0, 88, 91
1, 409721, Note_on_c, 0, 76, 91
1, 409722, Note_on_c, 0, 69, 87
1, 409731, Control_c, 0, 64, 0
1, 409740, Note_on_c, 0, 81, 67
1, 409741, Note_on_c, 0, 89, 44
1, 409742, Note_off_c, 0, 89, 127
1, 409757, Note_off_c, 0, 72, 65
1, 409757, Note_off_c, 0, 76, 70
1, 409760, Control_c, 0, 64, 68
1, 409775, Control_c, 0, 64, 82
1, 409798, Control_c, 0, 64, 100
1, 409813, Control_c, 0, 64, 117
1, 409827, Control_c, 0, 64, 124
1, 409835, Note_on_c, 0, 72, 90
1, 409837, Note_on_c, 0, 84, 71
1, 409842, Control_c, 0, 64, 126
1, 409846, Note_off_c, 0, 88, 38
1, 409857, Control_c, 0, 64, 127
1, 409868, Note_off_c, 0, 60, 59
1, 409879, Note_off_c, 0, 72, 62
1, 409917, Note_off_c, 0, 69, 58
1, 409922, Note_on_c, 0, 76, 82
1, 409931, Note_on_c, 0, 88, 88
1, 409956, Note_off_c, 0, 76, 67
1, 409956, Note_off_c, 0, 84, 63
1, 409974, Note_off_c, 0, 81, 13
1, 409978, Note_off_c, 0, 88, 64
1, 410035, Note_on_c, 0, 79, 99
1, 410036, Note_on_c, 0, 91, 93
1, 410066, Poly_aftertouch_c, 0, 69, 127
1, 410066, Note_off_c, 0, 91, 59
1, 410069, Note_off_c, 0, 79, 65
1, 410095, Poly_aftertouch_c, 0, 69, 0
1, 410110, Control_c, 0, 64, 120
1, 410119, Note_on_c, 0, 69, 74
1, 410119, Note_on_c, 0, 74, 93
1, 410123, Note_on_c, 0, 62, 90
1, 410125, Control_c, 0, 64, 94
1, 410135, Note_on_c, 0, 90, 96
1, 410139, Note_on_c, 0, 78, 91
1, 410140, Control_c, 0, 64, 74
1, 410141, Note_on_c, 0, 81, 89
1, 410147, Note_off_c, 0, 74, 67
1, 410155, Control_c, 0, 64, 64
1, 410156, Note_off_c, 0, 69, 69
1, 410169, Control_c, 0, 64, 71
1, 410177, Note_off_c, 0, 62, 63
1, 410184, Control_c, 0, 64, 84
1, 410186, Note_off_c, 0, 78, 65
1, 410188, Note_off_c, 0, 81, 52
1, 410188, Note_off_c, 0, 90, 64
1, 410199, Control_c, 0, 64, 106
1, 410214, Control_c, 0, 64, 127
1, 410245, Note_on_c, 0, 88, 91
1, 410248, Note_on_c, 0, 76, 93
1, 410289, Note_off_c, 0, 88, 65
1, 410290, Note_on_c, 0, 81, 55
1, 410293, Note_off_c, 0, 76, 67
1, 410302, Control_c, 0, 64, 95
1, 410310, Note_off_c, 0, 81, 60
1, 410317, Control_c, 0, 64, 75
1, 410332, Control_c, 0, 64, 48
1, 410347, Control_c, 0, 64, 0
1, 410349, Note_on_c, 0, 69, 99
1, 410351, Note_on_c, 0, 57, 84
1, 410351, Note_on_c, 0, 62, 97
1, 410359, Note_on_c, 0, 90, 102
1, 410362, Note_on_c, 0, 78, 95
1, 410362, Control_c, 0, 64, 62
1, 410363, Note_on_c, 0, 81, 92
1, 410376, Control_c, 0, 64, 76
1, 410391, Control_c, 0, 64, 97
1, 410404, Note_off_c, 0, 90, 66
1, 410406, Control_c, 0, 64, 117
1, 410407, Note_off_c, 0, 78, 64
1, 410419, Note_off_c, 0, 69, 61
1, 410420, Note_off_c, 0, 57, 61
1, 410421, Control_c, 0, 64, 127
1, 410427, Note_off_c, 0, 81, 57
1, 410460, Note_off_c, 0, 62, 59
1, 410470, Note_on_c, 0, 88, 88
1, 410474, Note_on_c, 0, 76, 82
1, 410474, Note_on_c, 0, 81, 64
1, 410517, Note_off_c, 0, 76, 66
1, 410519, Note_off_c, 0, 88, 64
1, 410531, Note_off_c, 0, 81, 59
1, 410577, Note_on_c, 0, 88, 88
1, 410588, Note_on_c, 0, 76, 87
1, 410590, Note_on_c, 0, 81, 70
1, 410625, Note_off_c, 0, 76, 63
1, 410629, Note_off_c, 0, 88, 65
1, 410630, Note_off_c, 0, 81, 58
1, 410686, Note_on_c, 0, 86, 88
1, 410689, Note_on_c, 0, 74, 88
1, 410713, Note_off_c, 0, 86, 59
1, 410729, Note_off_c, 0, 74, 62
1, 410812, Control_c, 0, 64, 102
1, 410827, Control_c, 0, 64, 82
1, 410828, Note_on_c, 0, 69, 87
1, 410828, Note_on_c, 0, 74, 95
1, 410842, Control_c, 0, 64, 64
1, 410857, Control_c, 0, 64, 0
1, 410873, Control_c, 0, 64, 51
1, 410888, Control_c, 0, 64, 68
1, 410903, Control_c, 0, 64, 80
1, 410917, Control_c, 0, 64, 94
1, 410926, Note_on_c, 0, 67, 74
1, 410932, Control_c, 0, 64, 108
1, 410947, Control_c, 0, 64, 118
1, 410962, Control_c, 0, 64, 121
1, 410967, Note_off_c, 0, 69, 59
1, 410977, Control_c, 0, 64, 123
1, 410986, Note_off_c, 0, 67, 63
1, 410997, Note_off_c, 0, 74, 63
1, 411006, Control_c, 0, 64, 122
1, 411021, Control_c, 0, 64, 113
1, 411036, Control_c, 0, 64, 96
1, 411041, Note_on_c, 0, 67, 75
1, 411042, Note_on_c, 0, 81, 100
1, 411051, Control_c, 0, 64, 79
1, 411052, Note_on_c, 0, 74, 75
1, 411053, Note_on_c, 0, 69, 87
1, 411065, Control_c, 0, 64, 59
1, 411080, Control_c, 0, 64, 38
1, 411095, Control_c, 0, 64, 65
1, 411110, Control_c, 0, 64, 77
1, 411125, Control_c, 0, 64, 92
1, 411126, Note_off_c, 0, 67, 55
1, 411140, Control_c, 0, 64, 108
1, 411144, Note_on_c, 0, 66, 78
1, 411154, Control_c, 0, 64, 120
1, 411169, Control_c, 0, 64, 127
1, 411178, Note_off_c, 0, 69, 57
1, 411191, Note_off_c, 0, 81, 55
1, 411203, Note_off_c, 0, 66, 65
1, 411208, Note_off_c, 0, 74, 61
1, 411229, Control_c, 0, 64, 117
1, 411243, Control_c, 0, 64, 101
1, 411256, Note_on_c, 0, 66, 78
1, 411257, Note_on_c, 0, 81, 94
1, 411258, Control_c, 0, 64, 82
1, 411260, Note_on_c, 0, 74, 79
1, 411264, Note_on_c, 0, 69, 99
1, 411273, Control_c, 0, 64, 70
1, 411295, Control_c, 0, 64, 68
1, 411310, Control_c, 0, 64, 77
1, 411323, Note_off_c, 0, 74, 66
1, 411324, Control_c, 0, 64, 91
1, 411339, Control_c, 0, 64, 107
1, 411350, Note_off_c, 0, 66, 65
1, 411354, Control_c, 0, 64, 115
1, 411368, Note_on_c, 0, 64, 77
1, 411369, Note_off_c, 0, 69, 62
1, 411369, Control_c, 0, 64, 117
1, 411381, Note_off_c, 0, 81, 52
1, 411384, Control_c, 0, 64, 124
1, 411399, Control_c, 0, 64, 127
1, 411418, Note_off_c, 0, 64, 63
1, 411473, Control_c, 0, 64, 117
1, 411483, Note_on_c, 0, 72, 96
1, 411483, Note_on_c, 0, 76, 97
1, 411488, Note_on_c, 0, 69, 89
1, 411488, Control_c, 0, 64, 102
1, 411493, Note_on_c, 0, 64, 84
1, 411503, Control_c, 0, 64, 89
1, 411517, Control_c, 0, 64, 80
1, 411532, Control_c, 0, 64, 78
1, 411547, Control_c, 0, 64, 84
1, 411562, Control_c, 0, 64, 92
1, 411572, Note_off_c, 0, 72, 65
1, 411577, Control_c, 0, 64, 98
1, 411583, Note_off_c, 0, 64, 57
1, 411583, Note_off_c, 0, 69, 49
1, 411591, Control_c, 0, 64, 102
1, 411605, Note_on_c, 0, 62, 76
1, 411606, Control_c, 0, 64, 106
1, 411611, Poly_aftertouch_c, 0, 78, 0
1, 411621, Control_c, 0, 64, 111
1, 411635, Control_c, 0, 64, 115
1, 411650, Control_c, 0, 64, 117
1, 411655, Note_off_c, 0, 62, 62
1, 411680, Note_off_c, 0, 76, 54
1, 411711, Control_c, 0, 64, 110
1, 411726, Control_c, 0, 64, 95
1, 411733, Note_on_c, 0, 62, 82
1, 411733, Note_on_c, 0, 81, 101
1, 411739, Note_on_c, 0, 69, 94
1, 411739, Note_on_c, 0, 76, 92
1, 411740, Control_c, 0, 64, 73
1, 411755, Control_c, 0, 64, 0
1, 411812, Note_off_c, 0, 62, 60
1, 411829, Control_c, 0, 64, 66
1, 411844, Control_c, 0, 64, 77
1, 411858, Control_c, 0, 64, 88
1, 411861, Note_on_c, 0, 60, 75
1, 411873, Control_c, 0, 64, 98
1, 411879, Note_off_c, 0, 69, 63
1, 411882, Note_off_c, 0, 81, 57
1, 411888, Control_c, 0, 64, 101
1, 411907, Note_off_c, 0, 60, 60
1, 411918, Control_c, 0, 64, 101
1, 411961, Note_on_c, 0, 60, 74
1, 411962, Control_c, 0, 64, 102
1, 411977, Control_c, 0, 64, 102
1, 411992, Control_c, 0, 64, 104
1, 412007, Control_c, 0, 64, 105
1, 412013, Note_off_c, 0, 60, 61
1, 412022, Control_c, 0, 64, 106
1, 412067, Note_on_c, 0, 66, 88
1, 412073, Control_c, 0, 64, 107
1, 412099, Note_off_c, 0, 76, 61
1, 412115, Note_off_c, 0, 66, 64
1, 412153, Note_on_c, 0, 67, 84
1, 412156, Note_on_c, 0, 79, 82
1, 412158, Note_on_c, 0, 74, 80
1, 412162, Note_on_c, 0, 66, 82
1, 412162, Control_c, 0, 64, 107
1, 412177, Control_c, 0, 64, 108
1, 412192, Note_off_c, 0, 74, 60
1, 412192, Control_c, 0, 64, 109
1, 412196, Note_off_c, 0, 67, 62
1, 412200, Note_off_c, 0, 79, 61
1, 412207, Control_c, 0, 64, 109
1, 412222, Note_off_c, 0, 66, 64
1, 412222, Control_c, 0, 64, 110
1, 412236, Control_c, 0, 64, 114
1, 412251, Control_c, 0, 64, 123
1, 412256, Note_on_c, 0, 81, 96
1, 412259, Note_on_c, 0, 69, 88
1, 412263, Note_on_c, 0, 64, 84
1, 412266, Control_c, 0, 64, 127
1, 412305, Note_off_c, 0, 69, 67
1, 412308, Note_off_c, 0, 81, 62
1, 412309, Note_off_c, 0, 64, 65
1, 412340, Control_c, 0, 64, 113
1, 412355, Control_c, 0, 64, 95
1, 412370, Control_c, 0, 64, 77
1, 412374, Note_on_c, 0, 83, 101
1, 412378, Note_on_c, 0, 71, 93
1, 412378, Note_on_c, 0, 78, 92
1, 412379, Note_on_c, 0, 64, 90
1, 412385, Control_c, 0, 64, 54
1, 412400, Control_c, 0, 64, 0
1, 412440, Note_off_c, 0, 64, 65
1, 412444, Control_c, 0, 64, 54
1, 412460, Control_c, 0, 64, 70
1, 412475, Control_c, 0, 64, 80
1, 412489, Control_c, 0, 64, 95
1, 412494, Note_on_c, 0, 62, 83
1, 412504, Control_c, 0, 64, 110
1, 412508, Note_off_c, 0, 83, 54
1, 412513, Note_off_c, 0, 71, 55
1, 412519, Control_c, 0, 64, 112
1, 412529, Note_off_c, 0, 78, 60
1, 412539, Note_off_c, 0, 62, 60
1, 412563, Control_c, 0, 64, 110
1, 412578, Control_c, 0, 64, 100
1, 412593, Control_c, 0, 64, 86
1, 412598, Note_on_c, 0, 62, 84
1, 412603, Note_on_c, 0, 83, 93
1, 412603, Note_on_c, 0, 78, 95
1, 412606, Note_on_c, 0, 71, 95
1, 412608, Control_c, 0, 64, 75
1, 412623, Control_c, 0, 64, 72
1, 412637, Control_c, 0, 64, 75
1, 412652, Control_c, 0, 64, 83
1, 412654, Note_off_c, 0, 83, 59
1, 412656, Note_off_c, 0, 78, 64
1, 412666, Note_off_c, 0, 62, 61
1, 412667, Control_c, 0, 64, 93
1, 412681, Control_c, 0, 64, 104
1, 412682, Note_off_c, 0, 71, 50
1, 412696, Control_c, 0, 64, 113
1, 412708, Note_on_c, 0, 67, 81
1, 412711, Control_c, 0, 64, 117
1, 412726, Control_c, 0, 64, 118
1, 412761, Note_off_c, 0, 67, 61
1, 412770, Control_c, 0, 64, 118
1, 412793, Control_c, 0, 64, 109
1, 412808, Control_c, 0, 64, 94
1, 412823, Control_c, 0, 64, 78
1, 412824, Note_on_c, 0, 76, 88
1, 412827, Note_on_c, 0, 72, 91
1, 412832, Note_on_c, 0, 67, 85
1, 412833, Note_on_c, 0, 69, 87
1, 412837, Control_c, 0, 64, 64
1, 412852, Control_c, 0, 64, 33
1, 412867, Control_c, 0, 64, 56
1, 412874, Note_on_c, 0, 78, 26
1, 412882, Control_c, 0, 64, 68
1, 412884, Note_off_c, 0, 72, 64
1, 412885, Note_off_c, 0, 76, 67
1, 412890, Note_off_c, 0, 67, 61
1, 412896, Note_off_c, 0, 78, 35
1, 412896, Control_c, 0, 64, 80
1, 412911, Control_c, 0, 64, 93
1, 412926, Control_c, 0, 64, 104
1, 412937, Note_off_c, 0, 69, 62
1, 412938, Note_on_c, 0, 66, 84
1, 412941, Control_c, 0, 64, 107
1, 412994, Note_off_c, 0, 66, 64
1, 413000, Control_c, 0, 64, 103
1, 413015, Control_c, 0, 64, 93
1, 413030, Control_c, 0, 64, 78
1, 413041, Note_on_c, 0, 74, 81
1, 413042, Note_on_c, 0, 69, 93
1, 413043, Note_on_c, 0, 81, 98
1, 413045, Control_c, 0, 64, 60
1, 413046, Note_on_c, 0, 66, 83
1, 413060, Control_c, 0, 64, 0
1, 413119, Control_c, 0, 64, 35
1, 413128, Note_off_c, 0, 66, 65
1, 413134, Control_c, 0, 64, 69
1, 413149, Control_c, 0, 64, 79
1, 413153, Note_on_c, 0, 64, 79
1, 413164, Control_c, 0, 64, 87
1, 413178, Control_c, 0, 64, 88
1, 413194, Note_off_c, 0, 64, 59
1, 413223, Control_c, 0, 64, 87
1, 413238, Control_c, 0, 64, 85
1, 413253, Control_c, 0, 64, 84
1, 413259, Note_on_c, 0, 72, 89
1, 413260, Note_on_c, 0, 64, 84
1, 413298, Note_off_c, 0, 74, 61
1, 413298, Control_c, 0, 64, 84
1, 413310, Note_off_c, 0, 69, 51
1, 413313, Control_c, 0, 64, 88
1, 413321, Note_off_c, 0, 64, 61
1, 413328, Control_c, 0, 64, 94
1, 413342, Control_c, 0, 64, 102
1, 413355, Note_on_c, 0, 57, 91
1, 413357, Control_c, 0, 64, 109
1, 413372, Control_c, 0, 64, 112
1, 413382, Note_off_c, 0, 81, 51
1, 413387, Control_c, 0, 64, 114
1, 413402, Control_c, 0, 64, 117
1, 413417, Control_c, 0, 64, 119
1, 413432, Control_c, 0, 64, 123
1, 413447, Control_c, 0, 64, 127
1, 413465, Note_on_c, 0, 59, 90
1, 413467, Note_on_c, 0, 74, 95
1, 413491, Note_off_c, 0, 72, 65
1, 413503, Note_off_c, 0, 57, 57
1, 413530, Note_off_c, 0, 74, 65
1, 413553, Note_off_c, 0, 59, 62
1, 413582, Note_on_c, 0, 60, 93
1, 413633, Note_off_c, 0, 60, 63
1, 413720, Control_c, 0, 64, 125
1, 413734, Note_on_c, 0, 75, 93
1, 413734, Note_on_c, 0, 79, 96
1, 413735, Control_c, 0, 64, 101
1, 413738, Note_on_c, 0, 60, 89
1, 413738, Note_on_c, 0, 67, 93
1, 413750, Control_c, 0, 64, 82
1, 413765, Control_c, 0, 64, 67
1, 413780, Control_c, 0, 64, 0
1, 413866, Note_on_c, 0, 59, 82
1, 413868, Control_c, 0, 64, 61
1, 413870, Note_off_c, 0, 60, 61
1, 413883, Control_c, 0, 64, 72
1, 413898, Control_c, 0, 64, 81
1, 413912, Control_c, 0, 64, 89
1, 413920, Note_off_c, 0, 67, 57
1, 413925, Note_off_c, 0, 79, 58
1, 413927, Control_c, 0, 64, 93
1, 413942, Note_off_c, 0, 59, 62
1, 413942, Control_c, 0, 64, 97
1, 413957, Control_c, 0, 64, 101
1, 413972, Control_c, 0, 64, 104
1, 413974, Note_on_c, 0, 60, 89
1, 413986, Control_c, 0, 64, 108
1, 414001, Control_c, 0, 64, 111
1, 414016, Control_c, 0, 64, 113
1, 414025, Note_off_c, 0, 60, 64
1, 414031, Control_c, 0, 64, 114
1, 414046, Control_c, 0, 64, 116
1, 414062, Control_c, 0, 64, 117
1, 414069, Note_on_c, 0, 62, 85
1, 414077, Control_c, 0, 64, 117
1, 414106, Control_c, 0, 64, 115
1, 414121, Control_c, 0, 64, 106
1, 414124, Note_off_c, 0, 62, 61
1, 414129, Note_off_c, 0, 75, 62
1, 414135, Control_c, 0, 64, 93
1, 414150, Control_c, 0, 64, 82
1, 414153, Note_on_c, 0, 81, 97
1, 414157, Note_on_c, 0, 74, 86
1, 414162, Note_on_c, 0, 69, 86
1, 414165, Note_on_c, 0, 60, 85
1, 414165, Control_c, 0, 64, 73
1, 414180, Control_c, 0, 64, 71
1, 414191, Note_off_c, 0, 74, 69
1, 414195, Note_off_c, 0, 81, 65
1, 414195, Control_c, 0, 64, 74
1, 414210, Control_c, 0, 64, 81
1, 414216, Note_off_c, 0, 69, 64
1, 414225, Control_c, 0, 64, 91
1, 414240, Control_c, 0, 64, 99
1, 414246, Note_off_c, 0, 60, 54
1, 414254, Control_c, 0, 64, 103
1, 414262, Note_on_c, 0, 59, 81
1, 414269, Control_c, 0, 64, 106
1, 414291, Control_c, 0, 64, 107
1, 414306, Control_c, 0, 64, 108
1, 414337, Note_off_c, 0, 59, 61
1, 414350, Control_c, 0, 64, 105
1, 414365, Control_c, 0, 64, 96
1, 414380, Control_c, 0, 64, 81
1, 414382, Note_on_c, 0, 69, 84
1, 414385, Note_on_c, 0, 76, 96
1, 414386, Note_on_c, 0, 60, 82
1, 414386, Note_on_c, 0, 64, 93
1, 414395, Control_c, 0, 64, 66
1, 414410, Control_c, 0, 64, 0
1, 414454, Control_c, 0, 64, 60
1, 414469, Control_c, 0, 64, 74
1, 414471, Note_off_c, 0, 60, 53
1, 414484, Control_c, 0, 64, 86
1, 414489, Note_on_c, 0, 59, 77
1, 414499, Control_c, 0, 64, 99
1, 414514, Control_c, 0, 64, 102
1, 414525, Note_off_c, 0, 59, 60
1, 414543, Control_c, 0, 64, 101
1, 414558, Control_c, 0, 64, 94
1, 414573, Control_c, 0, 64, 82
1, 414588, Control_c, 0, 64, 70
1, 414600, Note_on_c, 0, 67, 81
1, 414603, Note_on_c, 0, 59, 77
1, 414603, Control_c, 0, 64, 44
1, 414617, Control_c, 0, 64, 41
1, 414626, Note_off_c, 0, 69, 64
1, 414632, Control_c, 0, 64, 64
1, 414647, Control_c, 0, 64, 74
1, 414661, Note_off_c, 0, 59, 61
1, 414661, Control_c, 0, 64, 86
1, 414670, Note_off_c, 0, 76, 56
1, 414676, Control_c, 0, 64, 98
1, 414691, Control_c, 0, 64, 105
1, 414698, Note_on_c, 0, 57, 76
1, 414706, Control_c, 0, 64, 107
1, 414721, Control_c, 0, 64, 108
1, 414746, Note_off_c, 0, 57, 59
1, 414752, Note_off_c, 0, 64, 58
1, 414765, Control_c, 0, 64, 102
1, 414780, Control_c, 0, 64, 90
1, 414795, Control_c, 0, 64, 72
1, 414803, Note_on_c, 0, 69, 92
1, 414806, Note_on_c, 0, 57, 79
1, 414809, Control_c, 0, 64, 55
1, 414824, Control_c, 0, 64, 39
1, 414839, Control_c, 0, 64, 63
1, 414843, Note_off_c, 0, 67, 61
1, 414855, Control_c, 0, 64, 73
1, 414867, Note_off_c, 0, 57, 62
1, 414870, Control_c, 0, 64, 85
1, 414884, Control_c, 0, 64, 99
1, 414899, Control_c, 0, 64, 109
1, 414903, Note_on_c, 0, 55, 80
1, 414914, Control_c, 0, 64, 112
1, 414929, Control_c, 0, 64, 112
1, 414945, Note_off_c, 0, 55, 62
1, 414958, Control_c, 0, 64, 112
1, 414967, Note_off_c, 0, 69, 66
1, 414973, Control_c, 0, 64, 101
1, 414988, Control_c, 0, 64, 84
1, 415003, Control_c, 0, 64, 68
1, 415006, Note_on_c, 0, 74, 97
1, 415009, Note_on_c, 0, 62, 95
1, 415009, Note_on_c, 0, 71, 88
1, 415012, Note_on_c, 0, 55, 81
1, 415018, Control_c, 0, 64, 52
1, 415040, Control_c, 0, 64, 63
1, 415055, Control_c, 0, 64, 73
1, 415070, Control_c, 0, 64, 87
1, 415076, Note_off_c, 0, 55, 64
1, 415084, Control_c, 0, 64, 104
1, 415099, Control_c, 0, 64, 123
1, 415114, Control_c, 0, 64, 127
1, 415115, Note_off_c, 0, 62, 61
1, 415120, Note_on_c, 0, 54, 76
1, 415158, Note_off_c, 0, 74, 64
1, 415181, Note_off_c, 0, 54, 61
1, 415188, Control_c, 0, 64, 111
1, 415203, Control_c, 0, 64, 93
1, 415218, Control_c, 0, 64, 80
1, 415220, Poly_aftertouch_c, 0, 54, 0
1, 415225, Note_on_c, 0, 54, 79
1, 415232, Note_on_c, 0, 76, 100
1, 415232, Control_c, 0, 64, 71
1, 415235, Note_on_c, 0, 64, 94
1, 415247, Control_c, 0, 64, 70
1, 415262, Control_c, 0, 64, 77
1, 415272, Note_on_c, 0, 73, 26
1, 415277, Control_c, 0, 64, 94
1, 415291, Control_c, 0, 64, 113
1, 415292, Note_off_c, 0, 54, 62
1, 415306, Control_c, 0, 64, 127
1, 415308, Note_off_c, 0, 73, 40
1, 415308, Note_off_c, 0, 76, 67
1, 415327, Note_off_c, 0, 64, 61
1, 415345, Note_on_c, 0, 52, 64
1, 415368, Note_off_c, 0, 52, 66
1, 415381, Note_off_c, 0, 71, 42
1, 415387, Note_on_c, 0, 53, 3
1, 415405, Note_on_c, 0, 69, 22
1, 415410, Control_c, 0, 64, 112
1, 415424, Note_off_c, 0, 53, 36
1, 415425, Control_c, 0, 64, 92
1, 415431, Note_off_c, 0, 69, 0
1, 415431, Note_on_c, 0, 69, 28
1, 415436, Note_on_c, 0, 78, 105
1, 415438, Note_on_c, 0, 66, 96
1, 415438, Note_on_c, 0, 52, 86
1, 415439, Control_c, 0, 64, 76
1, 415454, Control_c, 0, 64, 63
1, 415483, Control_c, 0, 64, 72
1, 415498, Control_c, 0, 64, 85
1, 415510, Note_off_c, 0, 52, 66
1, 415513, Control_c, 0, 64, 101
1, 415514, Note_off_c, 0, 69, 65
1, 415528, Control_c, 0, 64, 115
1, 415529, Note_off_c, 0, 66, 65
1, 415539, Note_on_c, 0, 50, 83
1, 415543, Control_c, 0, 64, 124
1, 415557, Control_c, 0, 64, 127
1, 415572, Note_off_c, 0, 78, 64
1, 415584, Note_off_c, 0, 50, 63
1, 415617, Control_c, 0, 64, 111
1, 415632, Control_c, 0, 64, 93
1, 415647, Control_c, 0, 64, 75
1, 415647, Note_on_c, 0, 76, 92
1, 415647, Note_on_c, 0, 79, 99
1, 415648, Note_on_c, 0, 67, 100
1, 415651, Note_on_c, 0, 50, 87
1, 415662, Control_c, 0, 64, 47
1, 415677, Control_c, 0, 64, 0
1, 415692, Control_c, 0, 64, 25
1, 415706, Control_c, 0, 64, 66
1, 415721, Control_c, 0, 64, 80
1, 415730, Note_off_c, 0, 50, 62
1, 415736, Control_c, 0, 64, 96
1, 415751, Note_on_c, 0, 48, 83
1, 415751, Control_c, 0, 64, 109
1, 415762, Note_off_c, 0, 67, 60
1, 415766, Control_c, 0, 64, 111
1, 415788, Control_c, 0, 64, 114
1, 415803, Control_c, 0, 64, 117
1, 415805, Note_off_c, 0, 48, 65
1, 415818, Control_c, 0, 64, 119
1, 415865, Note_on_c, 0, 69, 92
1, 415867, Note_on_c, 0, 48, 90
1, 415877, Control_c, 0, 64, 119
1, 415907, Control_c, 0, 64, 120
1, 415913, Note_off_c, 0, 76, 59
1, 415915, Note_off_c, 0, 48, 66
1, 415915, Note_off_c, 0, 79, 51
1, 415921, Control_c, 0, 64, 120
1, 415936, Control_c, 0, 64, 125
1, 415951, Control_c, 0, 64, 127
1, 415963, Note_on_c, 0, 50, 86
1, 415978, Note_off_c, 0, 69, 59
1, 416010, Note_off_c, 0, 50, 62
1, 416040, Control_c, 0, 64, 115
1, 416055, Control_c, 0, 64, 96
1, 416065, Note_on_c, 0, 79, 101
1, 416067, Note_on_c, 0, 71, 101
1, 416070, Note_on_c, 0, 76, 91
1, 416070, Control_c, 0, 64, 77
1, 416071, Note_on_c, 0, 50, 90
1, 416085, Control_c, 0, 64, 58
1, 416100, Control_c, 0, 64, 0
1, 416142, Note_off_c, 0, 50, 62
1, 416144, Control_c, 0, 64, 64
1, 416159, Control_c, 0, 64, 75
1, 416174, Control_c, 0, 64, 86
1, 416177, Note_on_c, 0, 47, 82
1, 416184, Note_off_c, 0, 71, 57
1, 416188, Control_c, 0, 64, 94
1, 416203, Control_c, 0, 64, 97
1, 416218, Control_c, 0, 64, 98
1, 416227, Note_off_c, 0, 47, 65
1, 416232, Control_c, 0, 64, 98
1, 416262, Control_c, 0, 64, 96
1, 416277, Control_c, 0, 64, 88
1, 416288, Note_on_c, 0, 47, 94
1, 416290, Note_on_c, 0, 72, 95
1, 416291, Note_on_c, 0, 67, 96
1, 416292, Control_c, 0, 64, 76
1, 416306, Control_c, 0, 64, 66
1, 416321, Control_c, 0, 64, 61
1, 416322, Note_off_c, 0, 79, 59
1, 416336, Control_c, 0, 64, 68
1, 416351, Control_c, 0, 64, 77
1, 416353, Note_off_c, 0, 47, 64
1, 416366, Control_c, 0, 64, 90
1, 416380, Note_off_c, 0, 76, 57
1, 416380, Control_c, 0, 64, 101
1, 416395, Control_c, 0, 64, 107
1, 416399, Note_on_c, 0, 45, 84
1, 416410, Control_c, 0, 64, 110
1, 416425, Control_c, 0, 64, 113
1, 416440, Control_c, 0, 64, 115
1, 416452, Note_off_c, 0, 45, 65
1, 416485, Control_c, 0, 64, 113
1, 416500, Note_off_c, 0, 67, 61
1, 416500, Control_c, 0, 64, 105
1, 416501, Note_on_c, 0, 45, 78
1, 416514, Note_on_c, 0, 78, 107
1, 416515, Control_c, 0, 64, 92
1, 416537, Control_c, 0, 64, 82
1, 416550, Note_off_c, 0, 72, 65
1, 416552, Control_c, 0, 64, 76
1, 416571, Note_off_c, 0, 45, 64
1, 416582, Control_c, 0, 64, 80
1, 416597, Control_c, 0, 64, 87
1, 416611, Control_c, 0, 64, 97
1, 416620, Note_on_c, 0, 43, 82
1, 416626, Control_c, 0, 64, 108
1, 416641, Control_c, 0, 64, 115
1, 416654, Note_off_c, 0, 78, 59
1, 416655, Control_c, 0, 64, 117
1, 416669, Note_off_c, 0, 43, 61
1, 416715, Control_c, 0, 64, 107
1, 416720, Note_on_c, 0, 76, 105
1, 416727, Note_on_c, 0, 67, 97
1, 416727, Note_on_c, 0, 72, 95
1, 416729, Note_on_c, 0, 43, 81
1, 416730, Control_c, 0, 64, 91
1, 416744, Control_c, 0, 64, 73
1, 416760, Control_c, 0, 64, 0
1, 416796, Note_off_c, 0, 43, 62
1, 416804, Control_c, 0, 64, 54
1, 416819, Control_c, 0, 64, 73
1, 416834, Control_c, 0, 64, 84
1, 416837, Note_on_c, 0, 47, 91
1, 416849, Control_c, 0, 64, 99
1, 416863, Control_c, 0, 64, 112
1, 416878, Control_c, 0, 64, 121
1, 416890, Note_off_c, 0, 47, 64
1, 416893, Control_c, 0, 64, 122
1, 416910, Note_off_c, 0, 76, 64
1, 416925, Note_off_c, 0, 72, 65
1, 416937, Control_c, 0, 64, 118
1, 416949, Note_on_c, 0, 47, 92
1, 416952, Control_c, 0, 64, 110
1, 416967, Control_c, 0, 64, 104
1, 416982, Control_c, 0, 64, 103
1, 416997, Control_c, 0, 64, 103
1, 417012, Control_c, 0, 64, 107
1, 417015, Note_off_c, 0, 47, 63
1, 417027, Control_c, 0, 64, 110
1, 417042, Control_c, 0, 64, 115
1, 417050, Note_on_c, 0, 43, 91
1, 417056, Control_c, 0, 64, 119
1, 417071, Control_c, 0, 64, 119
1, 417098, Note_off_c, 0, 43, 63
1, 417116, Control_c, 0, 64, 119
1, 417130, Control_c, 0, 64, 117
1, 417145, Control_c, 0, 64, 114
1, 417146, Note_off_c, 0, 67, 61
1, 417155, Note_on_c, 0, 74, 93
1, 417156, Note_on_c, 0, 43, 91
1, 417157, Note_on_c, 0, 71, 95
1, 417160, Control_c, 0, 64, 114
1, 417190, Control_c, 0, 64, 114
1, 417204, Control_c, 0, 64, 117
1, 417207, Note_off_c, 0, 71, 60
1, 417212, Note_off_c, 0, 43, 62
1, 417212, Note_off_c, 0, 74, 59
1, 417219, Control_c, 0, 64, 118
1, 417234, Control_c, 0, 64, 118
1, 417250, Control_c, 0, 64, 121
1, 417255, Note_on_c, 0, 38, 90
1, 417265, Control_c, 0, 64, 127
1, 417322, Note_off_c, 0, 38, 62
1, 417361, Control_c, 0, 64, 117
1, 417376, Control_c, 0, 64, 94
1, 417377, Note_on_c, 0, 38, 86
1, 417387, Note_on_c, 0, 69, 80
1, 417390, Control_c, 0, 64, 70
1, 417392, Note_on_c, 0, 72, 100
1, 417394, Note_on_c, 0, 62, 92
1, 417405, Control_c, 0, 64, 0
1, 417456, Note_off_c, 0, 38, 62
1, 417465, Control_c, 0, 64, 65
1, 417479, Control_c, 0, 64, 79
1, 417486, Note_off_c, 0, 72, 59
1, 417493, Note_off_c, 0, 69, 66
1, 417494, Control_c, 0, 64, 94
1, 417498, Note_on_c, 0, 40, 89
1, 417509, Control_c, 0, 64, 106
1, 417519, Note_off_c, 0, 62, 59
1, 417524, Control_c, 0, 64, 111
1, 417539, Control_c, 0, 64, 112
1, 417553, Control_c, 0, 64, 113
1, 417556, Note_off_c, 0, 40, 63
1, 417583, Control_c, 0, 64, 111
1, 417598, Control_c, 0, 64, 102
1, 417612, Note_on_c, 0, 71, 98
1, 417613, Control_c, 0, 64, 87
1, 417616, Note_on_c, 0, 67, 97
1, 417617, Note_on_c, 0, 40, 84
1, 417619, Note_on_c, 0, 60, 96
1, 417627, Control_c, 0, 64, 67
1, 417642, Control_c, 0, 64, 0
1, 417701, Control_c, 0, 64, 68
1, 417716, Control_c, 0, 64, 80
1, 417724, Note_off_c, 0, 40, 60
1, 417730, Note_on_c, 0, 43, 90
1, 417731, Control_c, 0, 64, 92
1, 417746, Control_c, 0, 64, 98
1, 417760, Control_c, 0, 64, 102
1, 417775, Control_c, 0, 64, 107
1, 417782, Note_off_c, 0, 43, 60
1, 417790, Control_c, 0, 64, 108
1, 417811, Note_off_c, 0, 67, 60
1, 417820, Control_c, 0, 64, 106
1, 417825, Note_off_c, 0, 71, 56
1, 417835, Control_c, 0, 64, 94
1, 417850, Control_c, 0, 64, 77
1, 417850, Note_on_c, 0, 43, 89
1, 417853, Note_on_c, 0, 64, 97
1, 417853, Note_on_c, 0, 70, 103
1, 417864, Control_c, 0, 64, 0
1, 417878, Note_off_c, 0, 60, 60
1, 417924, Control_c, 0, 64, 65
1, 417935, Note_off_c, 0, 43, 61
1, 417939, Control_c, 0, 64, 78
1, 417953, Control_c, 0, 64, 92
1, 417961, Note_on_c, 0, 42, 92
1, 417968, Control_c, 0, 64, 100
1, 417983, Control_c, 0, 64, 103
1, 417997, Control_c, 0, 64, 110
1, 418006, Note_off_c, 0, 42, 64
1, 418012, Control_c, 0, 64, 121
1, 418034, Control_c, 0, 64, 127
1, 418083, Note_off_c, 0, 64, 58
1, 418154, Control_c, 0, 64, 111
1, 418166, Note_on_c, 0, 42, 80
1, 418166, Note_on_c, 0, 66, 103
1, 418169, Control_c, 0, 64, 94
1, 418177, Note_off_c, 0, 70, 58
1, 418183, Control_c, 0, 64, 78
1, 418198, Control_c, 0, 64, 61
1, 418213, Control_c, 0, 64, 0
1, 418215, Note_on_c, 0, 44, 23
1, 418254, Note_off_c, 0, 44, 31
1, 418352, Note_on_c, 0, 54, 80
1, 418360, Control_c, 0, 64, 53
1, 418374, Control_c, 0, 64, 71
1, 418389, Control_c, 0, 64, 82
1, 418404, Control_c, 0, 64, 92
1, 418419, Control_c, 0, 64, 95
1, 418449, Control_c, 0, 64, 96
1, 418459, Note_off_c, 0, 66, 62
1, 418464, Control_c, 0, 64, 97
1, 418479, Control_c, 0, 64, 97
1, 418529, Note_off_c, 0, 42, 48
1, 418580, Note_on_c, 0, 52, 68
1, 418581, Note_on_c, 0, 71, 88
1, 418597, Note_on_c, 0, 66, 77
1, 418597, Control_c, 0, 64, 94
1, 418612, Control_c, 0, 64, 86
1, 418626, Control_c, 0, 64, 73
1, 418631, Note_off_c, 0, 54, 56
1, 418641, Control_c, 0, 64, 62
1, 418656, Control_c, 0, 64, 0
1, 418703, Note_off_c, 0, 66, 59
1, 418756, Note_on_c, 0, 67, 74
1, 418760, Control_c, 0, 64, 55
1, 418782, Control_c, 0, 64, 70
1, 418797, Control_c, 0, 64, 77
1, 418812, Control_c, 0, 64, 85
1, 418816, Note_off_c, 0, 71, 57
1, 418822, Note_off_c, 0, 67, 62
1, 418827, Control_c, 0, 64, 92
1, 418841, Control_c, 0, 64, 96
1, 418857, Control_c, 0, 64, 97
1, 418872, Control_c, 0, 64, 97
1, 418887, Note_on_c, 0, 71, 85
1, 418887, Control_c, 0, 64, 92
1, 418893, Note_on_c, 0, 50, 74
1, 418896, Note_on_c, 0, 67, 82
1, 418902, Control_c, 0, 64, 84
1, 418916, Note_off_c, 0, 52, 64
1, 418917, Control_c, 0, 64, 71
1, 418931, Control_c, 0, 64, 63
1, 418946, Control_c, 0, 64, 61
1, 418961, Control_c, 0, 64, 67
1, 418976, Control_c, 0, 64, 78
1, 418991, Control_c, 0, 64, 92
1, 418994, Note_off_c, 0, 67, 59
1, 419005, Control_c, 0, 64, 106
1, 419010, Note_on_c, 0, 66, 81
1, 419020, Control_c, 0, 64, 108
1, 419035, Control_c, 0, 64, 108
1, 419051, Note_off_c, 0, 71, 59
1, 419069, Note_off_c, 0, 66, 67
1, 419079, Control_c, 0, 64, 108
1, 419090, Note_off_c, 0, 50, 63
1, 419094, Control_c, 0, 64, 101
1, 419109, Control_c, 0, 64, 85
1, 419122, Note_on_c, 0, 49, 75
1, 419122, Note_on_c, 0, 66, 90
1, 419123, Control_c, 0, 64, 68
1, 419138, Control_c, 0, 64, 0
1, 419197, Control_c, 0, 64, 68
1, 419212, Control_c, 0, 64, 77
1, 419227, Control_c, 0, 64, 86
1, 419233, Note_on_c, 0, 64, 80
1, 419242, Control_c, 0, 64, 92
1, 419250, Note_off_c, 0, 66, 64
1, 419257, Control_c, 0, 64, 96
1, 419271, Control_c, 0, 64, 98
1, 419286, Note_off_c, 0, 64, 66
1, 419286, Control_c, 0, 64, 98
1, 419316, Control_c, 0, 64, 96
1, 419331, Control_c, 0, 64, 87
1, 419345, Note_on_c, 0, 55, 73
1, 419346, Control_c, 0, 64, 72
1, 419346, Note_on_c, 0, 71, 92
1, 419352, Note_off_c, 0, 49, 58
1, 419356, Note_on_c, 0, 64, 82
1, 419361, Control_c, 0, 64, 34
1, 419376, Control_c, 0, 64, 0
1, 419420, Control_c, 0, 64, 54
1, 419435, Note_off_c, 0, 64, 63
1, 419435, Control_c, 0, 64, 73
1, 419449, Control_c, 0, 64, 85
1, 419464, Control_c, 0, 64, 98
1, 419476, Note_on_c, 0, 62, 73
1, 419479, Control_c, 0, 64, 103
1, 419494, Control_c, 0, 64, 104
1, 419525, Note_off_c, 0, 62, 58
1, 419546, Control_c, 0, 64, 100
1, 419561, Control_c, 0, 64, 88
1, 419575, Note_off_c, 0, 55, 64
1, 419575, Control_c, 0, 64, 74
1, 419578, Note_on_c, 0, 54, 67
1, 419588, Note_on_c, 0, 62, 68
1, 419590, Control_c, 0, 64, 49
1, 419605, Control_c, 0, 64, 0
1, 419620, Control_c, 0, 64, 57
1, 419635, Control_c, 0, 64, 69
1, 419650, Control_c, 0, 64, 80
1, 419665, Control_c, 0, 64, 93
1, 419680, Control_c, 0, 64, 103
1, 419692, Note_on_c, 0, 67, 71
1, 419695, Control_c, 0, 64, 107
1, 419710, Control_c, 0, 64, 110
1, 419725, Control_c, 0, 64, 111
1, 419732, Note_off_c, 0, 62, 52
1, 419734, Note_off_c, 0, 71, 57
1, 419754, Control_c, 0, 64, 109
1, 419756, Note_off_c, 0, 67, 61
1, 419769, Control_c, 0, 64, 98
1, 419784, Control_c, 0, 64, 82
1, 419791, Note_on_c, 0, 67, 71
1, 419791, Note_on_c, 0, 69, 93
1, 419793, Note_off_c, 0, 54, 58
1, 419799, Control_c, 0, 64, 66
1, 419808, Note_on_c, 0, 52, 70
1, 419814, Control_c, 0, 64, 0
1, 419859, Control_c, 0, 64, 57
1, 419873, Control_c, 0, 64, 73
1, 419883, Note_off_c, 0, 67, 63
1, 419888, Control_c, 0, 64, 83
1, 419895, Note_on_c, 0, 71, 81
1, 419903, Control_c, 0, 64, 93
1, 419912, Note_on_c, 0, 66, 74
1, 419918, Control_c, 0, 64, 98
1, 419921, Note_off_c, 0, 69, 61
1, 419933, Control_c, 0, 64, 101
1, 419947, Control_c, 0, 64, 102
1, 419953, Note_off_c, 0, 66, 58
1, 419977, Note_off_c, 0, 71, 60
1, 419992, Control_c, 0, 64, 96
1, 420007, Control_c, 0, 64, 85
1, 420008, Note_off_c, 0, 52, 62
1, 420021, Control_c, 0, 64, 70
1, 420026, Note_on_c, 0, 73, 95
1, 420029, Note_on_c, 0, 66, 79
1, 420032, Note_on_c, 0, 57, 65
1, 420036, Control_c, 0, 64, 0
1, 420094, Note_on_c, 0, 74, 8
1, 420110, Control_c, 0, 64, 52
1, 420125, Control_c, 0, 64, 68
1, 420138, Note_off_c, 0, 74, 36
1, 420140, Control_c, 0, 64, 77
1, 420153, Note_on_c, 0, 64, 68
1, 420154, Control_c, 0, 64, 87
1, 420169, Control_c, 0, 64, 91
1, 420176, Note_off_c, 0, 73, 61
1, 420178, Note_off_c, 0, 66, 55
1, 420184, Control_c, 0, 64, 91
1, 420190, Note_off_c, 0, 64, 59
1, 420243, Control_c, 0, 64, 90
1, 420249, Note_on_c, 0, 73, 89
1, 420258, Control_c, 0, 64, 90
1, 420259, Note_on_c, 0, 64, 80
1, 420340, Control_c, 0, 64, 91
1, 420354, Control_c, 0, 64, 93
1, 420364, Note_off_c, 0, 73, 61
1, 420365, Note_on_c, 0, 69, 80
1, 420369, Control_c, 0, 64, 93
1, 420387, Note_off_c, 0, 64, 59
1, 420413, Note_off_c, 0, 69, 64
1, 420473, Note_on_c, 0, 69, 73
1, 420497, Note_on_c, 0, 66, 71
1, 420548, Control_c, 0, 64, 94
1, 420556, Note_off_c, 0, 66, 58
1, 420563, Control_c, 0, 64, 95
1, 420577, Control_c, 0, 64, 97
1, 420589, Note_on_c, 0, 67, 82
1, 420592, Control_c, 0, 64, 100
1, 420607, Control_c, 0, 64, 102
1, 420612, Note_off_c, 0, 69, 53
1, 420622, Control_c, 0, 64, 103
1, 420632, Note_off_c, 0, 67, 61
1, 420652, Note_off_c, 0, 57, 58
1, 420681, Control_c, 0, 64, 100
1, 420696, Control_c, 0, 64, 91
1, 420699, Note_on_c, 0, 71, 91
1, 420702, Note_on_c, 0, 49, 72
1, 420711, Control_c, 0, 64, 77
1, 420711, Note_on_c, 0, 67, 79
1, 420726, Control_c, 0, 64, 55
1, 420741, Control_c, 0, 64, 0
1, 420785, Control_c, 0, 64, 46
1, 420786, Note_off_c, 0, 67, 60
1, 420800, Control_c, 0, 64, 69
1, 420815, Note_on_c, 0, 66, 80
1, 420815, Control_c, 0, 64, 79
1, 420829, Control_c, 0, 64, 92
1, 420844, Control_c, 0, 64, 96
1, 420859, Control_c, 0, 64, 97
1, 420863, Note_off_c, 0, 66, 64
1, 420874, Control_c, 0, 64, 96
1, 420889, Control_c, 0, 64, 93
1, 420903, Control_c, 0, 64, 85
1, 420914, Note_on_c, 0, 66, 76
1, 420918, Control_c, 0, 64, 70
1, 420926, Note_on_c, 0, 50, 73
1, 420926, Note_off_c, 0, 49, 61
1, 420933, Control_c, 0, 64, 54
1, 420948, Control_c, 0, 64, 0
1, 420963, Control_c, 0, 64, 52
1, 420977, Control_c, 0, 64, 68
1, 420992, Control_c, 0, 64, 77
1, 421007, Control_c, 0, 64, 89
1, 421029, Control_c, 0, 64, 96
1, 421030, Note_on_c, 0, 59, 78
1, 421033, Note_off_c, 0, 71, 50
1, 421044, Control_c, 0, 64, 101
1, 421059, Control_c, 0, 64, 106
1, 421074, Control_c, 0, 64, 108
1, 421089, Control_c, 0, 64, 109
1, 421103, Control_c, 0, 64, 108
1, 421107, Note_off_c, 0, 59, 57
1, 421107, Note_off_c, 0, 66, 54
1, 421112, Note_off_c, 0, 50, 63
1, 421118, Control_c, 0, 64, 97
1, 421133, Control_c, 0, 64, 83
1, 421134, Note_on_c, 0, 52, 84
1, 421139, Note_on_c, 0, 61, 85
1, 421148, Control_c, 0, 64, 69
1, 421163, Control_c, 0, 64, 52
1, 421177, Control_c, 0, 64, 54
1, 421192, Control_c, 0, 64, 66
1, 421207, Control_c, 0, 64, 76
1, 421221, Control_c, 0, 64, 91
1, 421229, Note_on_c, 0, 62, 83
1, 421236, Control_c, 0, 64, 101
1, 421239, Note_off_c, 0, 61, 60
1, 421252, Control_c, 0, 64, 105
1, 421266, Control_c, 0, 64, 106
1, 421304, Note_off_c, 0, 62, 62
1, 421311, Control_c, 0, 64, 104
1, 421322, Note_off_c, 0, 52, 62
1, 421325, Control_c, 0, 64, 94
1, 421337, Note_on_c, 0, 69, 98
1, 421340, Note_on_c, 0, 45, 87
1, 421340, Control_c, 0, 64, 80
1, 421343, Note_on_c, 0, 61, 80
1, 421355, Control_c, 0, 64, 65
1, 421370, Control_c, 0, 64, 0
1, 421400, Control_c, 0, 64, 28
1, 421415, Control_c, 0, 64, 67
1, 421430, Control_c, 0, 64, 77
1, 421444, Control_c, 0, 64, 89
1, 421459, Note_on_c, 0, 57, 82
1, 421459, Control_c, 0, 64, 98
1, 421473, Note_off_c, 0, 61, 60
1, 421474, Control_c, 0, 64, 103
1, 421489, Control_c, 0, 64, 105
1, 421504, Control_c, 0, 64, 106
1, 421533, Control_c, 0, 64, 104
1, 421548, Control_c, 0, 64, 93
1, 421558, Note_on_c, 0, 61, 85
1, 421559, Note_on_c, 0, 38, 88
1, 421563, Control_c, 0, 64, 79
1, 421569, Note_off_c, 0, 57, 41
1, 421574, Note_off_c, 0, 69, 61
1, 421578, Note_off_c, 0, 45, 58
1, 421578, Control_c, 0, 64, 65
1, 421593, Control_c, 0, 64, 48
1, 421607, Control_c, 0, 64, 64
1, 421622, Control_c, 0, 64, 73
1, 421637, Control_c, 0, 64, 85
1, 421651, Control_c, 0, 64, 100
1, 421661, Note_on_c, 0, 64, 86
1, 421666, Control_c, 0, 64, 109
1, 421671, Note_off_c, 0, 61, 61
1, 421681, Control_c, 0, 64, 115
1, 421696, Control_c, 0, 64, 117
1, 421711, Control_c, 0, 64, 118
1, 421740, Control_c, 0, 64, 112
1, 421746, Note_off_c, 0, 64, 61
1, 421755, Control_c, 0, 64, 96
1, 421766, Note_on_c, 0, 40, 95
1, 421777, Note_on_c, 0, 71, 89
1, 421777, Control_c, 0, 64, 79
1, 421782, Note_on_c, 0, 62, 91
1, 421792, Control_c, 0, 64, 57
1, 421794, Note_off_c, 0, 38, 60
1, 421807, Control_c, 0, 64, 0
1, 421837, Control_c, 0, 64, 55
1, 421851, Control_c, 0, 64, 71
1, 421866, Control_c, 0, 64, 82
1, 421881, Control_c, 0, 64, 97
1, 421891, Note_on_c, 0, 61, 88
1, 421896, Note_off_c, 0, 62, 64
1, 421896, Control_c, 0, 64, 103
1, 421898, Note_off_c, 0, 71, 57
1, 421911, Control_c, 0, 64, 105
1, 421925, Control_c, 0, 64, 107
1, 421940, Control_c, 0, 64, 107
1, 421950, Note_off_c, 0, 61, 61
1, 421969, Control_c, 0, 64, 103
1, 421984, Control_c, 0, 64, 87
1, 421999, Control_c, 0, 64, 70
1, 422001, Note_on_c, 0, 66, 90
1, 422002, Note_on_c, 0, 42, 91
1, 422004, Note_on_c, 0, 61, 85
1, 422014, Control_c, 0, 64, 0
1, 422023, Note_off_c, 0, 40, 64
1, 422088, Note_off_c, 0, 61, 62
1, 422115, Note_on_c, 0, 60, 85
1, 422166, Note_off_c, 0, 60, 63
1, 422193, Control_c, 0, 64, 44
1, 422208, Control_c, 0, 64, 60
1, 422213, Note_on_c, 0, 60, 78
1, 422223, Control_c, 0, 64, 64
1, 422237, Control_c, 0, 64, 66
1, 422252, Control_c, 0, 64, 68
1, 422267, Control_c, 0, 64, 73
1, 422282, Control_c, 0, 64, 78
1, 422285, Note_off_c, 0, 60, 61
1, 422297, Control_c, 0, 64, 84
1, 422312, Control_c, 0, 64, 87
1, 422320, Note_on_c, 0, 59, 83
1, 422327, Control_c, 0, 64, 90
1, 422341, Control_c, 0, 64, 92
1, 422356, Control_c, 0, 64, 98
1, 422371, Control_c, 0, 64, 107
1, 422379, Note_off_c, 0, 59, 62
1, 422386, Control_c, 0, 64, 116
1, 422387, Note_off_c, 0, 42, 62
1, 422401, Control_c, 0, 64, 123
1, 422416, Control_c, 0, 64, 127
1, 422427, Note_on_c, 0, 59, 78
1, 422470, Note_off_c, 0, 66, 62
1, 422524, Note_on_c, 0, 68, 86
1, 422526, Note_off_c, 0, 59, 65
1, 422547, Note_off_c, 0, 68, 66
1, 422577, Note_on_c, 0, 69, 17
1, 422619, Note_off_c, 0, 69, 41
1, 422748, Control_c, 0, 64, 114
1, 422756, Note_on_c, 0, 75, 96
1, 422757, Note_on_c, 0, 84, 100
1, 422759, Note_on_c, 0, 87, 97
1, 422764, Control_c, 0, 64, 93
1, 422774, Note_on_c, 0, 68, 86
1, 422779, Control_c, 0, 64, 75
1, 422793, Control_c, 0, 64, 52
1, 422808, Control_c, 0, 64, 0
1, 422869, Control_c, 0, 64, 66
1, 422869, Poly_aftertouch_c, 0, 85, 127
1, 422884, Control_c, 0, 64, 80
1, 422898, Control_c, 0, 64, 95
1, 422913, Control_c, 0, 64, 110
1, 422921, Note_on_c, 0, 67, 69
1, 422928, Control_c, 0, 64, 118
1, 422934, Note_off_c, 0, 68, 53
1, 422938, Note_off_c, 0, 87, 61
1, 422943, Control_c, 0, 64, 127
1, 422957, Note_off_c, 0, 84, 63
1, 422967, Note_off_c, 0, 67, 62
1, 422979, Note_off_c, 0, 75, 63
1, 422983, Poly_aftertouch_c, 0, 85, 0
1, 423034, Note_on_c, 0, 67, 86
1, 423091, Note_off_c, 0, 67, 63
1, 423130, Note_on_c, 0, 65, 78
1, 423167, Note_off_c, 0, 65, 62
1, 423214, Note_on_c, 0, 67, 94
1, 423214, Note_on_c, 0, 79, 93
1, 423224, Note_on_c, 0, 65, 89
1, 423257, Note_off_c, 0, 67, 64
1, 423276, Note_off_c, 0, 65, 66
1, 423277, Note_off_c, 0, 79, 65
1, 423334, Note_on_c, 0, 63, 88
1, 423385, Note_off_c, 0, 63, 64
1, 423424, Control_c, 0, 64, 100
1, 423435, Note_on_c, 0, 80, 15
1, 423439, Control_c, 0, 64, 79
1, 423440, Note_on_c, 0, 87, 104
1, 423442, Note_on_c, 0, 63, 85
1, 423444, Note_on_c, 0, 75, 100
1, 423454, Control_c, 0, 64, 54
1, 423469, Control_c, 0, 64, 0
1, 423498, Control_c, 0, 64, 43
1, 423513, Control_c, 0, 64, 74
1, 423513, Note_off_c, 0, 63, 64
1, 423528, Control_c, 0, 64, 87
1, 423543, Control_c, 0, 64, 101
1, 423549, Note_on_c, 0, 62, 88
1, 423558, Note_off_c, 0, 75, 65
1, 423558, Control_c, 0, 64, 109
1, 423561, Note_off_c, 0, 87, 60
1, 423572, Control_c, 0, 64, 114
1, 423587, Control_c, 0, 64, 119
1, 423598, Note_off_c, 0, 62, 63
1, 423602, Control_c, 0, 64, 127
1, 423635, Note_off_c, 0, 80, 63
1, 423652, Note_on_c, 0, 62, 87
1, 423701, Note_off_c, 0, 62, 62
1, 423755, Note_on_c, 0, 60, 85
1, 423796, Note_off_c, 0, 60, 64
1, 423848, Note_on_c, 0, 80, 101
1, 423850, Note_on_c, 0, 68, 103
1, 423857, Note_on_c, 0, 60, 91
1, 423880, Note_on_c, 0, 78, 50
1, 423898, Note_off_c, 0, 68, 62
1, 423903, Note_off_c, 0, 78, 37
1, 423912, Note_off_c, 0, 60, 62
1, 423922, Note_off_c, 0, 80, 62
1, 423960, Note_on_c, 0, 67, 86
1, 424006, Note_off_c, 0, 67, 63
1, 424083, Note_on_c, 0, 67, 91
1, 424084, Note_on_c, 0, 82, 101
1, 424084, Control_c, 0, 64, 97
1, 424087, Note_on_c, 0, 70, 104
1, 424087, Note_on_c, 0, 80, 100
1, 424099, Control_c, 0, 64, 78
1, 424114, Control_c, 0, 64, 59
1, 424128, Control_c, 0, 64, 0
1, 424148, Note_off_c, 0, 67, 53
1, 424158, Control_c, 0, 64, 63
1, 424172, Control_c, 0, 64, 78
1, 424187, Control_c, 0, 64, 96
1, 424196, Note_on_c, 0, 65, 78
1, 424202, Control_c, 0, 64, 112
1, 424217, Control_c, 0, 64, 119
1, 424221, Note_off_c, 0, 70, 58
1, 424232, Control_c, 0, 64, 125
1, 424240, Note_off_c, 0, 65, 63
1, 424247, Control_c, 0, 64, 127
1, 424294, Note_on_c, 0, 65, 81
1, 424333, Note_off_c, 0, 82, 59
1, 424349, Note_off_c, 0, 80, 60
1, 424362, Note_off_c, 0, 65, 60
1, 424383, Note_on_c, 0, 84, 88
1, 424386, Note_on_c, 0, 72, 80
1, 424401, Note_on_c, 0, 68, 90
1, 424419, Note_off_c, 0, 72, 63
1, 424423, Note_off_c, 0, 84, 66
1, 424443, Note_off_c, 0, 68, 64
1, 424485, Note_on_c, 0, 82, 101
1, 424486, Note_on_c, 0, 86, 98
1, 424488, Note_on_c, 0, 74, 94
1, 424498, Note_on_c, 0, 68, 95
1, 424557, Note_off_c, 0, 68, 61
1, 424571, Note_off_c, 0, 74, 60
1, 424594, Note_off_c, 0, 86, 63
1, 424600, Note_on_c, 0, 67, 89
1, 424625, Note_off_c, 0, 82, 52
1, 424641, Note_off_c, 0, 67, 63
1, 424694, Note_on_c, 0, 84, 100
1, 424696, Note_on_c, 0, 67, 92
1, 424696, Note_on_c, 0, 72, 106
1, 424700, Note_on_c, 0, 82, 94
1, 424707, Control_c, 0, 64, 97
1, 424722, Control_c, 0, 64, 77
1, 424736, Control_c, 0, 64, 48
1, 424751, Control_c, 0, 64, 0
1, 424774, Control_c, 0, 64, 41
1, 424778, Note_off_c, 0, 67, 57
1, 424789, Control_c, 0, 64, 72
1, 424803, Control_c, 0, 64, 88
1, 424813, Note_on_c, 0, 70, 96
1, 424818, Control_c, 0, 64, 109
1, 424822, Note_off_c, 0, 72, 59
1, 424833, Control_c, 0, 64, 127
1, 424862, Note_off_c, 0, 70, 63
1, 424882, Note_off_c, 0, 84, 61
1, 424912, Note_on_c, 0, 86, 99
1, 424914, Note_on_c, 0, 74, 104
1, 424915, Note_on_c, 0, 70, 99
1, 424934, Note_on_c, 0, 84, 60
1, 424954, Note_off_c, 0, 84, 59
1, 424972, Note_off_c, 0, 86, 61
1, 424976, Note_off_c, 0, 70, 63
1, 424976, Note_off_c, 0, 74, 60
1, 425005, Note_off_c, 0, 82, 61
1, 425016, Note_on_c, 0, 68, 97
1, 425068, Note_off_c, 0, 68, 64
1, 425119, Note_on_c, 0, 84, 94
1, 425120, Note_on_c, 0, 75, 109
1, 425123, Note_on_c, 0, 87, 99
1, 425125, Note_on_c, 0, 68, 102
1, 425189, Note_off_c, 0, 68, 59
1, 425224, Note_off_c, 0, 87, 59
1, 425228, Note_on_c, 0, 72, 95
1, 425233, Note_off_c, 0, 75, 62
1, 425270, Note_off_c, 0, 84, 56
1, 425283, Note_off_c, 0, 72, 65
1, 425375, Note_on_c, 0, 72, 103
1, 425379, Note_on_c, 0, 75, 106
1, 425379, Note_on_c, 0, 84, 96
1, 425380, Note_on_c, 0, 87, 102
1, 425397, Control_c, 0, 64, 117
1, 425411, Control_c, 0, 64, 92
1, 425412, Note_on_c, 0, 77, 54
1, 425413, Note_off_c, 0, 77, 127
1, 425426, Control_c, 0, 64, 69
1, 425441, Control_c, 0, 64, 0
1, 425485, Control_c, 0, 64, 66
1, 425500, Control_c, 0, 64, 83
1, 425504, Note_on_c, 0, 70, 77
1, 425522, Control_c, 0, 64, 104
1, 425524, Note_off_c, 0, 72, 61
1, 425537, Control_c, 0, 64, 110
1, 425546, Note_off_c, 0, 70, 60
1, 425552, Control_c, 0, 64, 111
1, 425567, Control_c, 0, 64, 113
1, 425582, Control_c, 0, 64, 118
1, 425597, Control_c, 0, 64, 123
1, 425606, Note_on_c, 0, 70, 93
1, 425612, Control_c, 0, 64, 127
1, 425621, Note_off_c, 0, 75, 55
1, 425654, Note_off_c, 0, 70, 64
1, 425656, Note_off_c, 0, 87, 54
1, 425698, Note_on_c, 0, 69, 90
1, 425735, Note_off_c, 0, 69, 68
1, 425791, Note_on_c, 0, 79, 99
1, 425794, Note_on_c, 0, 69, 101
1, 425794, Note_on_c, 0, 75, 97
1, 425815, Note_off_c, 0, 84, 30
1, 425862, Note_off_c, 0, 69, 63
1, 425903, Note_on_c, 0, 70, 96
1, 425920, Note_off_c, 0, 75, 49
1, 425960, Note_off_c, 0, 70, 63
1, 425972, Note_off_c, 0, 79, 55
1, 426011, Control_c, 0, 64, 106
1, 426013, Note_on_c, 0, 79, 93
1, 426013, Note_on_c, 0, 87, 101
1, 426017, Note_on_c, 0, 70, 95
1, 426017, Note_on_c, 0, 75, 98
1, 426025, Control_c, 0, 64, 85
1, 426041, Control_c, 0, 64, 65
1, 426056, Control_c, 0, 64, 0
1, 426104, Note_off_c, 0, 70, 60
1, 426115, Control_c, 0, 64, 46
1, 426123, Note_on_c, 0, 72, 87
1, 426130, Control_c, 0, 64, 70
1, 426145, Control_c, 0, 64, 81
1, 426160, Control_c, 0, 64, 93
1, 426174, Note_off_c, 0, 72, 65
1, 426175, Control_c, 0, 64, 99
1, 426189, Control_c, 0, 64, 103
1, 426204, Control_c, 0, 64, 108
1, 426219, Control_c, 0, 64, 115
1, 426223, Note_off_c, 0, 75, 56
1, 426226, Note_on_c, 0, 72, 85
1, 426234, Control_c, 0, 64, 126
1, 426248, Control_c, 0, 64, 127
1, 426252, Note_off_c, 0, 79, 55
1, 426293, Note_off_c, 0, 72, 65
1, 426347, Note_on_c, 0, 73, 84
1, 426393, Note_off_c, 0, 73, 63
1, 426440, Note_on_c, 0, 80, 93
1, 426443, Note_on_c, 0, 76, 86
1, 426447, Note_on_c, 0, 73, 80
1, 426473, Note_off_c, 0, 87, 55
1, 426530, Note_off_c, 0, 73, 62
1, 426548, Note_off_c, 0, 76, 53
1, 426562, Note_on_c, 0, 68, 80
1, 426612, Note_off_c, 0, 80, 52
1, 426631, Note_off_c, 0, 68, 59
1, 426701, Control_c, 0, 64, 118
1, 426715, Control_c, 0, 64, 101
1, 426727, Note_on_c, 0, 88, 90
1, 426730, Note_on_c, 0, 68, 73
1, 426730, Control_c, 0, 64, 86
1, 426731, Note_on_c, 0, 85, 84
1, 426733, Note_on_c, 0, 76, 89
1, 426745, Control_c, 0, 64, 71
1, 426759, Control_c, 0, 64, 0
1, 426850, Control_c, 0, 64, 62
1, 426864, Control_c, 0, 64, 72
1, 426879, Note_on_c, 0, 67, 71
1, 426879, Control_c, 0, 64, 80
1, 426894, Control_c, 0, 64, 88
1, 426897, Note_off_c, 0, 68, 43
1, 426909, Control_c, 0, 64, 95
1, 426924, Control_c, 0, 64, 101
1, 426925, Note_off_c, 0, 67, 60
1, 426938, Control_c, 0, 64, 107
1, 426953, Control_c, 0, 64, 113
1, 426956, Note_off_c, 0, 76, 62
1, 426968, Control_c, 0, 64, 119
1, 426978, Note_on_c, 0, 67, 75
1, 426983, Control_c, 0, 64, 125
1, 426998, Control_c, 0, 64, 127
1, 427064, Note_off_c, 0, 67, 55
1, 427091, Note_on_c, 0, 70, 84
1, 427123, Note_off_c, 0, 88, 22
1, 427129, Note_off_c, 0, 70, 58
1, 427186, Note_on_c, 0, 79, 92
1, 427190, Note_on_c, 0, 76, 87
1, 427194, Note_on_c, 0, 70, 90
1, 427221, Note_off_c, 0, 85, 33
1, 427260, Note_off_c, 0, 70, 61
1, 427303, Note_on_c, 0, 68, 81
1, 427326, Note_off_c, 0, 76, 58
1, 427348, Note_off_c, 0, 68, 63
1, 427356, Note_off_c, 0, 79, 60
1, 427400, Note_on_c, 0, 68, 92
1, 427405, Control_c, 0, 64, 109
1, 427406, Note_on_c, 0, 85, 97
1, 427406, Note_on_c, 0, 88, 102
1, 427409, Note_on_c, 0, 76, 106
1, 427420, Control_c, 0, 64, 86
1, 427435, Control_c, 0, 64, 64
1, 427450, Control_c, 0, 64, 0
1, 427471, Note_off_c, 0, 68, 64
1, 427479, Control_c, 0, 64, 13
1, 427494, Control_c, 0, 64, 69
1, 427509, Control_c, 0, 64, 80
1, 427514, Note_on_c, 0, 67, 81
1, 427524, Control_c, 0, 64, 92
1, 427538, Control_c, 0, 64, 98
1, 427552, Note_off_c, 0, 67, 62
1, 427553, Control_c, 0, 64, 102
1, 427568, Control_c, 0, 64, 107
1, 427582, Control_c, 0, 64, 115
1, 427597, Control_c, 0, 64, 127
1, 427604, Note_off_c, 0, 76, 58
1, 427612, Control_c, 0, 64, 127
1, 427617, Note_on_c, 0, 67, 84
1, 427683, Note_off_c, 0, 67, 58
1, 427734, Note_on_c, 0, 70, 85
1, 427789, Note_off_c, 0, 70, 62
1, 427833, Note_on_c, 0, 79, 82
1, 427839, Note_on_c, 0, 76, 79
1, 427848, Note_on_c, 0, 70, 82
1, 427871, Note_off_c, 0, 79, 62
1, 427878, Note_off_c, 0, 85, 50
1, 427892, Note_off_c, 0, 76, 59
1, 427892, Note_off_c, 0, 88, 57
1, 427918, Note_off_c, 0, 70, 60
1, 427955, Note_on_c, 0, 68, 76
1, 428030, Note_off_c, 0, 68, 61
1, 428095, Control_c, 0, 64, 112
1, 428100, Note_on_c, 0, 71, 76
1, 428100, Note_on_c, 0, 89, 86
1, 428101, Note_on_c, 0, 77, 91
1, 428102, Note_on_c, 0, 86, 83
1, 428110, Control_c, 0, 64, 95
1, 428125, Control_c, 0, 64, 79
1, 428140, Control_c, 0, 64, 64
1, 428155, Control_c, 0, 64, 0
1, 428213, Control_c, 0, 64, 66
1, 428223, Note_on_c, 0, 68, 62
1, 428228, Control_c, 0, 64, 76
1, 428242, Note_off_c, 0, 71, 60
1, 428243, Control_c, 0, 64, 87
1, 428253, Note_off_c, 0, 68, 67
1, 428258, Control_c, 0, 64, 96
1, 428273, Control_c, 0, 64, 103
1, 428287, Control_c, 0, 64, 109
1, 428292, Note_off_c, 0, 77, 59
1, 428301, Note_off_c, 0, 89, 61
1, 428302, Control_c, 0, 64, 112
1, 428317, Control_c, 0, 64, 113
1, 428319, Note_on_c, 0, 68, 82
1, 428375, Note_off_c, 0, 68, 63
1, 428412, Note_on_c, 0, 79, 90
1, 428414, Note_on_c, 0, 91, 83
1, 428415, Note_off_c, 0, 86, 0
1, 428420, Note_on_c, 0, 67, 81
1, 428431, Note_on_c, 0, 86, 28
1, 428447, Note_off_c, 0, 91, 59
1, 428455, Note_off_c, 0, 79, 65
1, 428468, Note_off_c, 0, 67, 63
1, 428468, Note_off_c, 0, 86, 50
1, 428526, Note_on_c, 0, 92, 97
1, 428527, Note_on_c, 0, 83, 92
1, 428528, Note_on_c, 0, 80, 95
1, 428531, Note_on_c, 0, 67, 92
1, 428589, Note_off_c, 0, 67, 62
1, 428617, Note_off_c, 0, 92, 66
1, 428628, Note_off_c, 0, 80, 65
1, 428632, Note_on_c, 0, 65, 89
1, 428666, Control_c, 0, 64, 114
1, 428681, Control_c, 0, 64, 122
1, 428687, Note_off_c, 0, 65, 65
1, 428688, Note_off_c, 0, 83, 51
1, 428696, Control_c, 0, 64, 127
1, 428740, Control_c, 0, 64, 117
1, 428745, Note_on_c, 0, 86, 102
1, 428746, Note_on_c, 0, 71, 98
1, 428747, Note_on_c, 0, 77, 104
1, 428747, Note_on_c, 0, 89, 101
1, 428755, Control_c, 0, 64, 95
1, 428770, Control_c, 0, 64, 68
1, 428784, Control_c, 0, 64, 0
1, 428829, Control_c, 0, 64, 59
1, 428843, Control_c, 0, 64, 79
1, 428857, Note_on_c, 0, 68, 91
1, 428858, Control_c, 0, 64, 95
1, 428867, Note_off_c, 0, 89, 60
1, 428870, Note_off_c, 0, 71, 56
1, 428873, Control_c, 0, 64, 114
1, 428888, Control_c, 0, 64, 115
1, 428903, Control_c, 0, 64, 116
1, 428905, Note_off_c, 0, 68, 64
1, 428916, Note_off_c, 0, 77, 46
1, 428947, Control_c, 0, 64, 116
1, 428953, Note_on_c, 0, 68, 94
1, 428962, Control_c, 0, 64, 117
1, 428977, Control_c, 0, 64, 118
1, 428992, Control_c, 0, 64, 122
1, 429007, Control_c, 0, 64, 127
1, 429013, Note_off_c, 0, 68, 65
1, 429022, Control_c, 0, 64, 127
1, 429031, Note_off_c, 0, 86, 59
1, 429054, Note_on_c, 0, 67, 95
1, 429058, Note_on_c, 0, 79, 101
1, 429062, Note_on_c, 0, 91, 92
1, 429078, Note_on_c, 0, 86, 44
1, 429099, Note_off_c, 0, 67, 65
1, 429101, Note_off_c, 0, 91, 60
1, 429104, Note_off_c, 0, 86, 59
1, 429112, Note_off_c, 0, 79, 59
1, 429156, Note_on_c, 0, 67, 97
1, 429159, Note_on_c, 0, 92, 98
1, 429159, Note_on_c, 0, 80, 97
1, 429159, Note_on_c, 0, 83, 85
1, 429188, Note_on_c, 0, 90, 56
1, 429189, Note_off_c, 0, 90, 127
1, 429198, Note_off_c, 0, 83, 63
1, 429204, Note_off_c, 0, 92, 65
1, 429208, Note_off_c, 0, 80, 62
1, 429209, Note_off_c, 0, 67, 64
1, 429270, Note_on_c, 0, 67, 90
1, 429276, Poly_aftertouch_c, 0, 79, 0
1, 429308, Note_off_c, 0, 67, 57
1, 429310, Note_on_c, 0, 90, 53
1, 429344, Note_off_c, 0, 90, 65
1, 429356, Control_c, 0, 64, 122
1, 429370, Note_on_c, 0, 65, 97
1, 429371, Control_c, 0, 64, 91
1, 429384, Note_on_c, 0, 91, 102
1, 429385, Control_c, 0, 64, 69
1, 429389, Note_on_c, 0, 82, 104
1, 429391, Note_on_c, 0, 94, 101
1, 429400, Control_c, 0, 64, 0
1, 429430, Control_c, 0, 64, 13
1, 429436, Note_off_c, 0, 65, 65
1, 429445, Control_c, 0, 64, 75
1, 429459, Control_c, 0, 64, 93
1, 429474, Control_c, 0, 64, 118
1, 429481, Note_off_c, 0, 94, 66
1, 429485, Note_on_c, 0, 65, 83
1, 429489, Control_c, 0, 64, 127
1, 429502, Note_off_c, 0, 91, 63
1, 429520, Note_off_c, 0, 65, 61
1, 429521, Note_off_c, 0, 82, 62
1, 429576, Note_on_c, 0, 63, 95
1, 429627, Note_off_c, 0, 63, 63
1, 429671, Note_on_c, 0, 63, 84
1, 429731, Note_off_c, 0, 63, 63
1, 429779, Note_on_c, 0, 63, 61
1, 429797, Note_on_c, 0, 70, 67
1, 429807, Note_off_c, 0, 63, 66
1, 429816, Note_off_c, 0, 70, 68
1, 429846, Note_on_c, 0, 87, 96
1, 429848, Note_on_c, 0, 79, 99
1, 429851, Note_on_c, 0, 75, 96
1, 429853, Note_on_c, 0, 70, 100
1, 429872, Note_off_c, 0, 75, 66
1, 429892, Note_off_c, 0, 79, 66
1, 429907, Note_off_c, 0, 70, 62
1, 429925, Note_off_c, 0, 87, 66
1, 429946, Note_on_c, 0, 71, 100
1, 429958, Poly_aftertouch_c, 0, 82, 0
1, 429989, Note_off_c, 0, 71, 65
1, 430071, Poly_aftertouch_c, 0, 68, 0
1, 430074, Note_on_c, 0, 71, 105
1, 430075, Control_c, 0, 64, 125
1, 430076, Note_on_c, 0, 97, 106
1, 430077, Note_on_c, 0, 89, 101
1, 430078, Note_on_c, 0, 85, 102
1, 430089, Control_c, 0, 64, 93
1, 430104, Control_c, 0, 64, 72
1, 430119, Control_c, 0, 64, 0
1, 430120, Note_on_c, 0, 65, 37
1, 430149, Control_c, 0, 64, 58
1, 430152, Note_off_c, 0, 65, 39
1, 430161, Note_off_c, 0, 71, 59
1, 430164, Control_c, 0, 64, 80
1, 430179, Control_c, 0, 64, 100
1, 430187, Note_on_c, 0, 70, 87
1, 430193, Control_c, 0, 64, 127
1, 430196, Note_off_c, 0, 97, 65
1, 430227, Note_off_c, 0, 70, 66
1, 430229, Note_off_c, 0, 85, 63
1, 430230, Note_off_c, 0, 89, 65
1, 430285, Note_on_c, 0, 70, 99
1, 430337, Note_off_c, 0, 70, 64
1, 430383, Note_on_c, 0, 68, 99
1, 430429, Note_off_c, 0, 68, 64
1, 430477, Note_on_c, 0, 87, 92
1, 430479, Note_on_c, 0, 82, 103
1, 430480, Note_on_c, 0, 68, 96
1, 430481, Note_on_c, 0, 75, 91
1, 430507, Note_off_c, 0, 75, 66
1, 430524, Note_off_c, 0, 82, 66
1, 430524, Note_off_c, 0, 68, 65
1, 430539, Note_off_c, 0, 87, 65
1, 430586, Note_on_c, 0, 67, 95
1, 430638, Note_off_c, 0, 67, 63
1, 430682, Control_c, 0, 64, 121
1, 430697, Control_c, 0, 64, 93
1, 430699, Note_on_c, 0, 67, 100
1, 430703, Note_on_c, 0, 94, 109
1, 430704, Note_on_c, 0, 87, 104
1, 430706, Note_on_c, 0, 82, 96
1, 430712, Control_c, 0, 64, 72
1, 430726, Control_c, 0, 64, 0
1, 430729, Note_on_c, 0, 95, 65
1, 430760, Note_off_c, 0, 95, 52
1, 430778, Control_c, 0, 64, 72
1, 430793, Control_c, 0, 64, 90
1, 430802, Note_off_c, 0, 82, 66
1, 430808, Control_c, 0, 64, 119
1, 430817, Note_on_c, 0, 70, 95
1, 430822, Control_c, 0, 64, 127
1, 430837, Note_off_c, 0, 67, 59
1, 430861, Note_off_c, 0, 70, 64
1, 430865, Note_off_c, 0, 94, 59
1, 430866, Note_off_c, 0, 87, 63
1, 430922, Note_on_c, 0, 70, 100
1, 430972, Note_off_c, 0, 70, 62
1, 431002, Note_on_c, 0, 92, 20
1, 431022, Note_on_c, 0, 72, 97
1, 431057, Note_off_c, 0, 72, 68
1, 431059, Note_off_c, 0, 92, 42
1, 431090, Control_c, 0, 64, 123
1, 431104, Control_c, 0, 64, 91
1, 431119, Control_c, 0, 64, 69
1, 431121, Note_on_c, 0, 92, 117
1, 431121, Note_on_c, 0, 87, 102
1, 431121, Note_on_c, 0, 99, 105
1, 431126, Note_on_c, 0, 72, 111
1, 431134, Control_c, 0, 64, 0
1, 431163, Control_c, 0, 64, 72
1, 431178, Control_c, 0, 64, 90
1, 431185, Note_off_c, 0, 72, 61
1, 431193, Control_c, 0, 64, 126
1, 431206, Note_off_c, 0, 99, 67
1, 431208, Control_c, 0, 64, 127
1, 431246, Note_on_c, 0, 73, 99
1, 431263, Note_off_c, 0, 92, 61
1, 431264, Note_off_c, 0, 87, 62
1, 431290, Note_off_c, 0, 73, 65
1, 431355, Note_on_c, 0, 73, 97
1, 431407, Note_off_c, 0, 73, 62
1, 431465, Note_on_c, 0, 72, 88
1, 431514, Note_off_c, 0, 72, 66
1, 431576, Note_on_c, 0, 72, 97
1, 431590, Note_off_c, 0, 72, 76
1, 431683, Note_on_c, 0, 77, 89
1, 431780, Note_off_c, 0, 77, 57
1, 431793, Control_c, 0, 64, 97
1, 431808, Control_c, 0, 64, 78
1, 431809, Note_on_c, 0, 50, 107
1, 431812, Note_on_c, 0, 38, 101
1, 431814, Note_on_c, 0, 82, 97
1, 431815, Note_on_c, 0, 79, 91
1, 431818, Note_on_c, 0, 77, 78
1, 431823, Control_c, 0, 64, 54
1, 431824, Poly_aftertouch_c, 0, 46, 0
1, 431838, Control_c, 0, 64, 58
1, 431840, Note_off_c, 0, 38, 68
1, 431841, Note_off_c, 0, 50, 68
1, 431853, Control_c, 0, 64, 83
1, 431867, Control_c, 0, 64, 121
1, 431882, Control_c, 0, 64, 127
1, 431921, Note_off_c, 0, 77, 57
1, 431933, Note_on_c, 0, 75, 87
1, 431937, Note_off_c, 0, 79, 55
1, 431998, Note_off_c, 0, 82, 58
1, 432023, Note_off_c, 0, 75, 59
1, 432045, Control_c, 0, 64, 121
1, 432060, Control_c, 0, 64, 92
1, 432071, Note_on_c, 0, 79, 100
1, 432072, Note_on_c, 0, 55, 107
1, 432074, Note_on_c, 0, 75, 91
1, 432074, Control_c, 0, 64, 73
1, 432077, Note_on_c, 0, 43, 103
1, 432078, Note_on_c, 0, 82, 97
1, 432089, Control_c, 0, 64, 33
1, 432106, Note_on_c, 0, 46, 63
1, 432107, Note_off_c, 0, 46, 127
1, 432117, Note_off_c, 0, 55, 67
1, 432119, Control_c, 0, 64, 71
1, 432123, Note_off_c, 0, 43, 63
1, 432134, Control_c, 0, 64, 86
1, 432149, Control_c, 0, 64, 110
1, 432163, Note_off_c, 0, 82, 62
1, 432164, Control_c, 0, 64, 127
1, 432175, Note_off_c, 0, 75, 62
1, 432195, Note_on_c, 0, 74, 80
1, 432226, Note_off_c, 0, 79, 31
1, 432281, Note_off_c, 0, 74, 62
1, 432289, Control_c, 0, 64, 117
1, 432304, Control_c, 0, 64, 96
1, 432319, Note_on_c, 0, 74, 73
1, 432319, Control_c, 0, 64, 80
1, 432320, Note_on_c, 0, 79, 91
1, 432323, Note_on_c, 0, 55, 99
1, 432325, Note_on_c, 0, 82, 91
1, 432326, Note_on_c, 0, 43, 97
1, 432334, Control_c, 0, 64, 73
1, 432349, Control_c, 0, 64, 76
1, 432357, Note_off_c, 0, 55, 64
1, 432364, Control_c, 0, 64, 86
1, 432369, Note_on_c, 0, 46, 40
1, 432370, Note_off_c, 0, 46, 127
1, 432376, Note_off_c, 0, 43, 61
1, 432378, Control_c, 0, 64, 103
1, 432388, Note_off_c, 0, 74, 61
1, 432393, Control_c, 0, 64, 127
1, 432393, Note_off_c, 0, 79, 62
1, 432400, Note_off_c, 0, 82, 62
1, 432402, Poly_aftertouch_c, 0, 46, 0
1, 432414, Note_on_c, 0, 72, 80
1, 432490, Note_on_c, 0, 44, 30
1, 432503, Note_off_c, 0, 72, 64
1, 432513, Control_c, 0, 64, 118
1, 432527, Note_off_c, 0, 44, 45
1, 432528, Control_c, 0, 64, 93
1, 432542, Note_on_c, 0, 80, 90
1, 432542, Control_c, 0, 64, 73
1, 432545, Note_on_c, 0, 77, 85
1, 432546, Note_on_c, 0, 72, 79
1, 432547, Note_on_c, 0, 50, 96
1, 432551, Note_on_c, 0, 38, 96
1, 432557, Control_c, 0, 64, 16
1, 432572, Control_c, 0, 64, 0
1, 432587, Note_off_c, 0, 38, 63
1, 432587, Control_c, 0, 64, 65
1, 432590, Note_off_c, 0, 50, 65
1, 432601, Control_c, 0, 64, 80
1, 432610, Note_on_c, 0, 75, 16
1, 432610, Note_off_c, 0, 72, 64
1, 432616, Control_c, 0, 64, 100
1, 432631, Control_c, 0, 64, 127
1, 432632, Note_off_c, 0, 77, 60
1, 432655, Note_on_c, 0, 70, 73
1, 432673, Note_off_c, 0, 75, 0
1, 432698, Note_off_c, 0, 80, 59
1, 432709, Poly_aftertouch_c, 0, 75, 127
1, 432718, Note_off_c, 0, 70, 61
1, 432735, Control_c, 0, 64, 108
1, 432741, Poly_aftertouch_c, 0, 75, 0
1, 432750, Control_c, 0, 64, 84
1, 432764, Control_c, 0, 64, 59
1, 432768, Note_on_c, 0, 75, 83
1, 432769, Note_on_c, 0, 70, 85
1, 432769, Note_on_c, 0, 55, 101
1, 432772, Note_on_c, 0, 43, 101
1, 432776, Note_on_c, 0, 80, 91
1, 432779, Control_c, 0, 64, 0
1, 432823, Control_c, 0, 64, 67
1, 432838, Control_c, 0, 64, 88
1, 432853, Control_c, 0, 64, 119
1, 432868, Control_c, 0, 64, 127
1, 432873, Note_off_c, 0, 43, 61
1, 432874, Note_off_c, 0, 70, 61
1, 432882, Note_on_c, 0, 79, 76
1, 432882, Note_off_c, 0, 75, 63
1, 432887, Note_off_c, 0, 55, 62
1, 432900, Note_off_c, 0, 80, 62
1, 432907, Note_off_c, 0, 79, 65
1, 432995, Note_on_c, 0, 70, 92
1, 433007, Note_on_c, 0, 63, 85
1, 433069, Note_off_c, 0, 63, 61
1, 433073, Note_off_c, 0, 70, 63
1, 433104, Note_on_c, 0, 75, 92
1, 433161, Note_off_c, 0, 75, 61
1, 433213, Note_on_c, 0, 53, 102
1, 433213, Note_on_c, 0, 75, 92
1, 433214, Note_on_c, 0, 41, 99
1, 433214, Note_on_c, 0, 63, 94
1, 433216, Control_c, 0, 64, 97
1, 433221, Note_on_c, 0, 70, 89
1, 433231, Control_c, 0, 64, 76
1, 433247, Control_c, 0, 64, 43
1, 433255, Note_off_c, 0, 53, 68
1, 433258, Note_off_c, 0, 41, 67
1, 433262, Control_c, 0, 64, 0
1, 433277, Control_c, 0, 64, 63
1, 433282, Note_off_c, 0, 63, 63
1, 433292, Note_off_c, 0, 70, 57
1, 433292, Control_c, 0, 64, 76
1, 433306, Control_c, 0, 64, 95
1, 433318, Note_on_c, 0, 55, 95
1, 433320, Note_on_c, 0, 43, 95
1, 433320, Note_on_c, 0, 74, 84
1, 433321, Control_c, 0, 64, 127
1, 433322, Note_off_c, 0, 75, 0
1, 433356, Note_off_c, 0, 55, 67
1, 433358, Note_off_c, 0, 43, 62
1, 433385, Note_off_c, 0, 74, 62
1, 433395, Control_c, 0, 64, 99
1, 433398, Poly_aftertouch_c, 0, 75, 0
1, 433410, Control_c, 0, 64, 79
1, 433425, Control_c, 0, 64, 54
1, 433426, Note_on_c, 0, 56, 106
1, 433428, Note_on_c, 0, 44, 99
1, 433434, Note_on_c, 0, 74, 86
1, 433440, Note_on_c, 0, 63, 89
1, 433440, Control_c, 0, 64, 0
1, 433447, Note_on_c, 0, 70, 78
1, 433460, Note_on_c, 0, 46, 49
1, 433461, Note_off_c, 0, 46, 127
1, 433469, Control_c, 0, 64, 66
1, 433484, Control_c, 0, 64, 86
1, 433494, Note_off_c, 0, 56, 57
1, 433499, Control_c, 0, 64, 114
1, 433502, Note_off_c, 0, 44, 62
1, 433514, Note_off_c, 0, 63, 58
1, 433514, Control_c, 0, 64, 127
1, 433538, Note_on_c, 0, 72, 79
1, 433567, Note_off_c, 0, 74, 61
1, 433573, Control_c, 0, 64, 104
1, 433588, Control_c, 0, 64, 88
1, 433589, Note_off_c, 0, 70, 59
1, 433593, Note_off_c, 0, 72, 64
1, 433603, Control_c, 0, 64, 75
1, 433618, Control_c, 0, 64, 70
1, 433632, Note_on_c, 0, 56, 95
1, 433632, Control_c, 0, 64, 76
1, 433636, Note_on_c, 0, 44, 97
1, 433642, Note_on_c, 0, 72, 81
1, 433644, Note_on_c, 0, 63, 91
1, 433644, Note_on_c, 0, 70, 83
1, 433647, Control_c, 0, 64, 96
1, 433662, Control_c, 0, 64, 127
1, 433668, Note_off_c, 0, 56, 61
1, 433675, Note_off_c, 0, 44, 66
1, 433694, Note_off_c, 0, 63, 66
1, 433708, Note_off_c, 0, 72, 64
1, 433746, Note_on_c, 0, 77, 85
1, 433768, Note_off_c, 0, 70, 65
1, 433801, Note_off_c, 0, 77, 62
1, 433818, Control_c, 0, 64, 94
1, 433832, Control_c, 0, 64, 72
1, 433847, Control_c, 0, 64, 0
1, 433856, Note_on_c, 0, 50, 95
1, 433859, Poly_aftertouch_c, 0, 42, 0
1, 433860, Note_on_c, 0, 38, 90
1, 433863, Note_on_c, 0, 77, 92
1, 433867, Note_on_c, 0, 65, 93
1, 433867, Note_on_c, 0, 72, 91
1, 433877, Control_c, 0, 64, 40
1, 433888, Note_off_c, 0, 38, 69
1, 433892, Control_c, 0, 64, 73
1, 433903, Note_off_c, 0, 50, 63
1, 433906, Control_c, 0, 64, 92
1, 433921, Control_c, 0, 64, 127
1, 433940, Note_off_c, 0, 65, 60
1, 433941, Note_off_c, 0, 72, 62
1, 433979, Note_on_c, 0, 75, 82
1, 434026, Control_c, 0, 64, 98
1, 434041, Control_c, 0, 64, 68
1, 434042, Note_off_c, 0, 75, 62
1, 434045, Note_off_c, 0, 77, 23
1, 434055, Control_c, 0, 64, 0
1, 434080, Note_on_c, 0, 55, 97
1, 434080, Note_on_c, 0, 75, 86
1, 434083, Note_on_c, 0, 43, 92
1, 434090, Note_on_c, 0, 70, 84
1, 434091, Note_on_c, 0, 67, 81
1, 434100, Control_c, 0, 64, 59
1, 434111, Note_off_c, 0, 43, 66
1, 434115, Control_c, 0, 64, 89
1, 434124, Note_off_c, 0, 55, 62
1, 434129, Control_c, 0, 64, 127
1, 434144, Note_off_c, 0, 67, 61
1, 434158, Note_off_c, 0, 70, 61
1, 434164, Note_off_c, 0, 75, 65
1, 434195, Note_on_c, 0, 74, 87
1, 434239, Note_off_c, 0, 74, 68
1, 434302, Note_on_c, 0, 68, 101
1, 434307, Note_on_c, 0, 74, 104
1, 434310, Note_on_c, 0, 56, 84
1, 434310, Note_on_c, 0, 62, 81
1, 434313, Note_on_c, 0, 65, 78
1, 434337, Note_off_c, 0, 65, 71
1, 434338, Note_off_c, 0, 68, 66
1, 434351, Note_off_c, 0, 62, 61
1, 434361, Note_off_c, 0, 74, 70
1, 434364, Note_off_c, 0, 56, 66
1, 434410, Note_on_c, 0, 84, 92
1, 434476, Note_off_c, 0, 84, 64
1, 434507, Control_c, 0, 64, 115
1, 434522, Control_c, 0, 64, 83
1, 434528, Note_on_c, 0, 67, 100
1, 434530, Note_on_c, 0, 84, 94
1, 434531, Note_on_c, 0, 63, 89
1, 434532, Note_on_c, 0, 60, 85
1, 434532, Note_on_c, 0, 72, 97
1, 434534, Note_on_c, 0, 55, 80
1, 434537, Control_c, 0, 64, 65
1, 434538, Note_on_c, 0, 79, 82
1, 434542, Note_on_c, 0, 75, 83
1, 434546, Note_off_c, 0, 67, 72
1, 434552, Control_c, 0, 64, 57
1, 434553, Note_off_c, 0, 63, 70
1, 434562, Note_on_c, 0, 82, 56
1, 434563, Note_off_c, 0, 60, 65
1, 434566, Control_c, 0, 64, 71
1, 434575, Note_off_c, 0, 84, 65
1, 434576, Note_on_c, 0, 80, 24
1, 434577, Note_off_c, 0, 80, 127
1, 434581, Control_c, 0, 64, 90
1, 434581, Note_off_c, 0, 72, 65
1, 434585, Note_off_c, 0, 55, 64
1, 434586, Note_off_c, 0, 82, 58
1, 434596, Control_c, 0, 64, 127
1, 434598, Note_off_c, 0, 75, 67
1, 434598, Note_off_c, 0, 79, 64
1, 434648, Note_on_c, 0, 82, 86
1, 434655, Note_on_c, 0, 70, 91
1, 434714, Note_off_c, 0, 82, 63
1, 434715, Note_off_c, 0, 70, 61
1, 434729, Control_c, 0, 64, 87
1, 434744, Control_c, 0, 64, 49
1, 434759, Control_c, 0, 64, 0
1, 434760, Note_on_c, 0, 53, 104
1, 434763, Note_on_c, 0, 41, 97
1, 434766, Note_on_c, 0, 82, 91
1, 434769, Note_on_c, 0, 70, 101
1, 434769, Note_on_c, 0, 74, 97
1, 434788, Control_c, 0, 64, 60
1, 434795, Note_off_c, 0, 41, 68
1, 434802, Note_on_c, 0, 78, 52
1, 434803, Note_off_c, 0, 53, 69
1, 434803, Control_c, 0, 64, 94
1, 434818, Control_c, 0, 64, 127
1, 434827, Note_off_c, 0, 82, 64
1, 434831, Note_off_c, 0, 78, 53
1, 434833, Note_off_c, 0, 70, 62
1, 434856, Note_off_c, 0, 74, 60
1, 434890, Note_on_c, 0, 81, 99
1, 434894, Note_on_c, 0, 69, 95
1, 434921, Note_on_c, 0, 74, 45
1, 434954, Note_off_c, 0, 69, 63
1, 434956, Note_off_c, 0, 74, 48
1, 434960, Note_off_c, 0, 81, 58
1, 434998, Note_on_c, 0, 58, 97
1, 435000, Note_on_c, 0, 62, 89
1, 435011, Note_on_c, 0, 81, 93
1, 435013, Note_on_c, 0, 69, 94
1, 435021, Note_on_c, 0, 74, 68
1, 435024, Note_off_c, 0, 62, 66
1, 435037, Note_off_c, 0, 58, 69
1, 435043, Note_off_c, 0, 74, 71
1, 435047, Note_off_c, 0, 69, 66
1, 435065, Note_off_c, 0, 81, 64
1, 435115, Control_c, 0, 64, 103
1, 435130, Control_c, 0, 64, 74
1, 435145, Control_c, 0, 64, 0
1, 435146, Note_on_c, 0, 55, 101
1, 435147, Note_on_c, 0, 86, 104
1, 435148, Note_on_c, 0, 43, 100
1, 435148, Note_on_c, 0, 74, 98
1, 435171, Note_off_c, 0, 43, 69
1, 435175, Control_c, 0, 64, 59
1, 435178, Note_off_c, 0, 55, 68
1, 435189, Control_c, 0, 64, 86
1, 435204, Control_c, 0, 64, 127
1, 435234, Note_off_c, 0, 86, 59
1, 435237, Note_off_c, 0, 74, 61
1, 435303, Note_on_c, 0, 62, 99
1, 435303, Note_on_c, 0, 64, 103
1, 435304, Note_on_c, 0, 86, 104
1, 435306, Note_on_c, 0, 58, 91
1, 435306, Note_on_c, 0, 74, 102
1, 435308, Note_on_c, 0, 82, 99
1, 435327, Note_off_c, 0, 62, 63
1, 435328, Note_off_c, 0, 64, 62
1, 435330, Note_on_c, 0, 57, 59
1, 435336, Note_off_c, 0, 74, 70
1, 435338, Note_off_c, 0, 58, 59
1, 435352, Note_off_c, 0, 57, 61
1, 435354, Note_off_c, 0, 82, 69
1, 435358, Note_off_c, 0, 86, 67
1, 435462, Note_on_c, 0, 92, 103
1, 435466, Note_on_c, 0, 78, 97
1, 435472, Note_on_c, 0, 80, 84
1, 435473, Note_on_c, 0, 90, 80
1, 435485, Note_off_c, 0, 80, 70
1, 435502, Note_on_c, 0, 87, 28
1, 435519, Note_off_c, 0, 78, 58
1, 435543, Note_off_c, 0, 92, 63
1, 435559, Note_off_c, 0, 90, 27
1, 435585, Note_off_c, 0, 87, 45
1, 435642, Control_c, 0, 64, 101
1, 435657, Control_c, 0, 64, 67
1, 435663, Note_on_c, 0, 90, 110
1, 435665, Note_on_c, 0, 78, 121
1, 435667, Note_on_c, 0, 50, 110
1, 435668, Note_on_c, 0, 86, 102
1, 435669, Note_on_c, 0, 38, 99
1, 435672, Control_c, 0, 64, 0
1, 435716, Control_c, 0, 64, 57
1, 435731, Control_c, 0, 64, 87
1, 435742, Note_off_c, 0, 38, 65
1, 435746, Control_c, 0, 64, 127
1, 435776, Note_off_c, 0, 50, 65
1, 435780, Note_off_c, 0, 78, 58
1, 435819, Note_off_c, 0, 86, 58
1, 435826, Note_off_c, 0, 90, 56
1, 435878, Note_on_c, 0, 79, 110
1, 435881, Note_on_c, 0, 91, 107
1, 435914, Note_on_c, 0, 85, 38
1, 435944, Note_off_c, 0, 85, 35
1, 435973, Note_off_c, 0, 91, 54
1, 435977, Note_off_c, 0, 79, 55
1, 435989, Poly_aftertouch_c, 0, 90, 0
1, 436021, Poly_aftertouch_c, 0, 63, 0
1, 436054, Note_on_c, 0, 69, 106
1, 436057, Note_on_c, 0, 62, 98
1, 436058, Note_on_c, 0, 57, 99
1, 436063, Note_on_c, 0, 91, 103
1, 436066, Note_on_c, 0, 79, 105
1, 436066, Note_on_c, 0, 86, 101
1, 436082, Note_off_c, 0, 69, 73
1, 436097, Note_off_c, 0, 62, 67
1, 436103, Note_on_c, 0, 90, 38
1, 436106, Note_off_c, 0, 57, 68
1, 436131, Note_off_c, 0, 91, 59
1, 436143, Note_off_c, 0, 79, 57
1, 436152, Note_off_c, 0, 90, 44
1, 436179, Note_off_c, 0, 86, 62
1, 436218, Note_on_c, 0, 90, 102
1, 436221, Note_on_c, 0, 78, 108
1, 436230, Note_on_c, 0, 86, 76
1, 436274, Note_on_c, 0, 42, 39
1, 436274, Note_off_c, 0, 86, 0
1, 436281, Note_on_c, 0, 39, 27
1, 436296, Note_off_c, 0, 78, 60
1, 436308, Note_on_c, 0, 86, 26
1, 436308, Note_off_c, 0, 90, 62
1, 436313, Note_off_c, 0, 42, 51
1, 436318, Note_off_c, 0, 39, 48
1, 436332, Note_off_c, 0, 86, 56
1, 436347, Poly_aftertouch_c, 0, 37, 0
1, 436358, Note_on_c, 0, 45, 106
1, 436361, Note_on_c, 0, 33, 104
1, 436373, Note_on_c, 0, 90, 102
1, 436376, Note_on_c, 0, 78, 104
1, 436385, Note_on_c, 0, 86, 80
1, 436386, Note_off_c, 0, 33, 69
1, 436391, Note_off_c, 0, 45, 68
1, 436408, Note_on_c, 0, 85, 52
1, 436430, Note_off_c, 0, 78, 65
1, 436441, Note_off_c, 0, 85, 34
1, 436458, Note_off_c, 0, 90, 65
1, 436473, Note_off_c, 0, 86, 54
1, 436504, Note_on_c, 0, 94, 101
1, 436507, Note_on_c, 0, 82, 100
1, 436511, Note_on_c, 0, 86, 65
1, 436570, Note_off_c, 0, 94, 66
1, 436573, Note_off_c, 0, 82, 62
1, 436604, Note_off_c, 0, 86, 61
1, 436611, Poly_aftertouch_c, 0, 45, 127
1, 436646, Note_on_c, 0, 50, 104
1, 436646, Note_on_c, 0, 86, 92
1, 436646, Poly_aftertouch_c, 0, 45, 0
1, 436648, Note_on_c, 0, 38, 98
1, 436648, Note_on_c, 0, 94, 100
1, 436649, Note_on_c, 0, 82, 101
1, 436686, Note_off_c, 0, 50, 65
1, 436690, Note_off_c, 0, 38, 65
1, 436706, Note_off_c, 0, 82, 64
1, 436713, Note_off_c, 0, 94, 66
1, 436760, Note_off_c, 0, 86, 61
1, 436783, Note_on_c, 0, 93, 104
1, 436785, Note_on_c, 0, 81, 98
1, 436811, Note_on_c, 0, 86, 43
1, 436844, Note_off_c, 0, 86, 50
1, 436845, Note_off_c, 0, 93, 62
1, 436852, Note_off_c, 0, 81, 57
1, 436913, Note_on_c, 0, 50, 103
1, 436916, Note_on_c, 0, 38, 96
1, 436918, Note_on_c, 0, 93, 105
1, 436921, Note_on_c, 0, 81, 99
1, 436926, Note_on_c, 0, 86, 88
1, 436947, Note_off_c, 0, 50, 67
1, 436953, Note_off_c, 0, 38, 67
1, 436968, Note_off_c, 0, 93, 61
1, 436975, Note_off_c, 0, 81, 58
1, 436977, Note_off_c, 0, 86, 63
1, 437038, Note_on_c, 0, 91, 101
1, 437041, Note_on_c, 0, 79, 94
1, 437097, Note_off_c, 0, 91, 60
1, 437100, Note_off_c, 0, 79, 61
1, 437130, Poly_aftertouch_c, 0, 37, 127
1, 437160, Note_on_c, 0, 45, 101
1, 437163, Note_on_c, 0, 33, 95
1, 437163, Note_on_c, 0, 79, 99
1, 437163, Note_on_c, 0, 86, 97
1, 437164, Note_on_c, 0, 91, 101
1, 437168, Poly_aftertouch_c, 0, 37, 0
1, 437194, Note_off_c, 0, 45, 71
1, 437198, Note_off_c, 0, 33, 66
1, 437213, Note_off_c, 0, 79, 56
1, 437217, Note_off_c, 0, 91, 60
1, 437247, Note_off_c, 0, 86, 65
1, 437289, Note_on_c, 0, 90, 104
1, 437294, Note_on_c, 0, 78, 102
1, 437324, Note_on_c, 0, 86, 32
1, 437359, Note_off_c, 0, 86, 46
1, 437389, Note_off_c, 0, 78, 59
1, 437392, Note_off_c, 0, 90, 59
1, 437421, Control_c, 0, 64, 96
1, 437436, Control_c, 0, 64, 68
1, 437451, Control_c, 0, 64, 0
1, 437470, Note_on_c, 0, 50, 101
1, 437471, Note_on_c, 0, 38, 93
1, 437476, Note_on_c, 0, 78, 111
1, 437476, Note_on_c, 0, 90, 112
1, 437478, Note_on_c, 0, 86, 103
1, 437518, Control_c, 0, 64, 52
1, 437532, Control_c, 0, 64, 85
1, 437538, Note_off_c, 0, 38, 64
1, 437547, Control_c, 0, 64, 127
1, 437561, Note_off_c, 0, 50, 67
1, 437586, Note_off_c, 0, 90, 62
1, 437599, Note_off_c, 0, 78, 58
1, 437601, Note_off_c, 0, 86, 60
1, 437674, Note_on_c, 0, 70, 97
1, 437725, Note_off_c, 0, 70, 60
1, 437803, Note_on_c, 0, 70, 95
1, 437848, Note_off_c, 0, 70, 66
1, 437920, Note_on_c, 0, 69, 87
1, 437965, Note_off_c, 0, 69, 65
1, 438026, Note_on_c, 0, 81, 102
1, 438028, Note_on_c, 0, 69, 107
1, 438083, Note_off_c, 0, 69, 64
1, 438126, Note_off_c, 0, 81, 56
1, 438131, Note_on_c, 0, 67, 68
1, 438209, Note_off_c, 0, 67, 63
1, 438269, Note_on_c, 0, 66, 94
1, 438276, Note_on_c, 0, 86, 103
1, 438278, Note_on_c, 0, 81, 90
1, 438279, Note_on_c, 0, 74, 98
1, 438363, Note_off_c, 0, 86, 60
1, 438364, Note_off_c, 0, 74, 60
1, 438377, Note_off_c, 0, 66, 49
1, 438383, Note_off_c, 0, 81, 60
1, 438394, Note_on_c, 0, 70, 92
1, 438430, Note_on_c, 0, 68, 38
1, 438442, Note_off_c, 0, 70, 64
1, 438460, Note_off_c, 0, 68, 53
1, 438504, Note_on_c, 0, 70, 91
1, 438504, Note_on_c, 0, 86, 98
1, 438506, Note_on_c, 0, 81, 96
1, 438507, Note_on_c, 0, 74, 96
1, 438549, Note_off_c, 0, 86, 60
1, 438558, Note_off_c, 0, 70, 61
1, 438558, Note_off_c, 0, 81, 59
1, 438563, Note_on_c, 0, 68, 25
1, 438563, Note_off_c, 0, 74, 61
1, 438600, Note_off_c, 0, 68, 52
1, 438607, Note_on_c, 0, 69, 88
1, 438649, Note_off_c, 0, 69, 66
1, 438719, Note_on_c, 0, 69, 104
1, 438722, Note_on_c, 0, 81, 98
1, 438761, Note_off_c, 0, 69, 65
1, 438765, Note_off_c, 0, 81, 61
1, 438835, Note_on_c, 0, 67, 82
1, 438883, Note_off_c, 0, 67, 62
1, 438934, Note_on_c, 0, 81, 44
1, 438942, Note_on_c, 0, 74, 97
1, 438942, Note_on_c, 0, 86, 96
1, 438945, Note_on_c, 0, 67, 86
1, 438962, Note_off_c, 0, 86, 67
1, 438978, Note_off_c, 0, 74, 68
1, 438984, Note_off_c, 0, 81, 62
1, 439014, Note_off_c, 0, 67, 64
1, 439070, Note_on_c, 0, 66, 82
1, 439130, Note_off_c, 0, 66, 64
1, 439179, Note_on_c, 0, 66, 82
1, 439183, Note_on_c, 0, 38, 113
1, 439223, Note_off_c, 0, 38, 65
1, 439299, Note_on_c, 0, 70, 87
1, 439299, Note_off_c, 0, 66, 62
1, 439361, Note_off_c, 0, 70, 61
1, 439401, Note_on_c, 0, 70, 79
1, 439410, Note_on_c, 0, 83, 94
1, 439425, Note_on_c, 0, 72, 75
1, 439446, Note_off_c, 0, 72, 71
1, 439457, Note_off_c, 0, 83, 61
1, 439500, Note_off_c, 0, 70, 51
1, 439501, Note_on_c, 0, 69, 90
1, 439510, Note_on_c, 0, 86, 92
1, 439512, Note_on_c, 0, 74, 93
1, 439545, Note_on_c, 0, 84, 42
1, 439548, Note_off_c, 0, 86, 66
1, 439550, Note_off_c, 0, 74, 66
1, 439554, Note_off_c, 0, 69, 65
1, 439571, Note_off_c, 0, 84, 36
1, 439616, Note_on_c, 0, 88, 98
1, 439619, Note_on_c, 0, 69, 100
1, 439619, Note_on_c, 0, 76, 108
1, 439625, Note_on_c, 0, 84, 99
1, 439661, Note_off_c, 0, 76, 65
1, 439686, Note_off_c, 0, 69, 65
1, 439697, Note_off_c, 0, 84, 58
1, 439706, Note_off_c, 0, 88, 61
1, 439732, Note_on_c, 0, 67, 87
1, 439791, Note_off_c, 0, 67, 62
1, 439849, Note_on_c, 0, 76, 97
1, 439850, Note_on_c, 0, 67, 90
1, 439851, Note_on_c, 0, 84, 94
1, 439851, Note_on_c, 0, 88, 93
1, 439888, Note_off_c, 0, 76, 67
1, 439888, Note_off_c, 0, 88, 65
1, 439890, Note_off_c, 0, 84, 65
1, 439903, Note_off_c, 0, 67, 63
1, 439959, Note_on_c, 0, 72, 89
1, 440001, Note_off_c, 0, 72, 65
1, 440063, Note_on_c, 0, 81, 94
1, 440065, Note_on_c, 0, 69, 94
1, 440065, Note_on_c, 0, 72, 86
1, 440100, Note_off_c, 0, 69, 67
1, 440104, Note_on_c, 0, 79, 20
1, 440105, Note_off_c, 0, 79, 127
1, 440105, Note_off_c, 0, 81, 63
1, 440108, Note_off_c, 0, 72, 65
1, 440162, Note_on_c, 0, 70, 81
1, 440224, Note_off_c, 0, 70, 61
1, 440253, Control_c, 0, 64, 87
1, 440267, Control_c, 0, 64, 35
1, 440271, Note_on_c, 0, 78, 97
1, 440275, Note_on_c, 0, 70, 91
1, 440276, Note_on_c, 0, 74, 94
1, 440278, Note_on_c, 0, 86, 89
1, 440282, Control_c, 0, 64, 0
1, 440295, Note_off_c, 0, 86, 72
1, 440312, Control_c, 0, 64, 73
1, 440316, Note_on_c, 0, 80, 32
1, 440317, Note_off_c, 0, 80, 127
1, 440320, Note_off_c, 0, 74, 67
1, 440321, Note_off_c, 0, 78, 69
1, 440326, Control_c, 0, 64, 105
1, 440341, Control_c, 0, 64, 127
1, 440349, Note_off_c, 0, 70, 60
1, 440385, Note_on_c, 0, 69, 88
1, 440444, Note_off_c, 0, 69, 64
1, 440513, Note_on_c, 0, 69, 89
1, 440520, Note_on_c, 0, 38, 113
1, 440534, Note_on_c, 0, 62, 49
1, 440534, Note_on_c, 0, 40, 67
1, 440535, Note_off_c, 0, 40, 127
1, 440551, Note_off_c, 0, 38, 66
1, 440555, Note_off_c, 0, 62, 61
1, 440570, Note_off_c, 0, 69, 65
1, 440621, Note_on_c, 0, 62, 91
1, 440653, Poly_aftertouch_c, 0, 66, 0
1, 440738, Note_on_c, 0, 64, 71
1, 440756, Note_off_c, 0, 62, 52
1, 440829, Note_on_c, 0, 66, 87
1, 440830, Note_off_c, 0, 64, 60
1, 440880, Note_off_c, 0, 66, 67
1, 440943, Note_on_c, 0, 67, 93
1, 440947, Note_on_c, 0, 84, 100
1, 440949, Note_on_c, 0, 72, 101
1, 440953, Note_on_c, 0, 79, 92
1, 441047, Note_off_c, 0, 67, 56
1, 441059, Note_on_c, 0, 64, 67
1, 441062, Note_off_c, 0, 72, 58
1, 441125, Note_off_c, 0, 64, 64
1, 441166, Note_on_c, 0, 60, 87
1, 441247, Note_off_c, 0, 60, 59
1, 441266, Note_on_c, 0, 64, 92
1, 441293, Note_off_c, 0, 79, 29
1, 441315, Note_off_c, 0, 64, 66
1, 441340, Note_off_c, 0, 84, 55
1, 441355, Note_on_c, 0, 67, 96
1, 441374, Note_on_c, 0, 86, 89
1, 441375, Note_on_c, 0, 74, 92
1, 441413, Note_off_c, 0, 67, 61
1, 441413, Note_off_c, 0, 86, 65
1, 441426, Note_off_c, 0, 74, 63
1, 441448, Note_on_c, 0, 66, 92
1, 441518, Note_off_c, 0, 66, 63
1, 441555, Note_on_c, 0, 64, 95
1, 441631, Note_off_c, 0, 64, 62
1, 441669, Note_on_c, 0, 66, 104
1, 441670, Note_on_c, 0, 81, 100
1, 441672, Note_on_c, 0, 69, 103
1, 441673, Note_on_c, 0, 78, 92
1, 441729, Note_off_c, 0, 81, 59
1, 441742, Note_off_c, 0, 78, 66
1, 441743, Note_off_c, 0, 66, 65
1, 441752, Note_off_c, 0, 69, 65
1, 441774, Note_on_c, 0, 64, 91
1, 441792, Note_off_c, 0, 64, 72
1, 441913, Note_on_c, 0, 64, 97
1, 441918, Note_on_c, 0, 50, 101
1, 441921, Note_on_c, 0, 38, 100
1, 441928, Control_c, 0, 64, 110
1, 441943, Control_c, 0, 64, 96
1, 441958, Control_c, 0, 64, 86
1, 441972, Control_c, 0, 64, 80
1, 441995, Control_c, 0, 64, 79
1, 442022, Note_off_c, 0, 64, 64
1, 442040, Control_c, 0, 64, 78
1, 442056, Note_on_c, 0, 62, 84
1, 442069, Control_c, 0, 64, 81
1, 442084, Control_c, 0, 64, 91
1, 442099, Control_c, 0, 64, 104
1, 442111, Note_off_c, 0, 62, 62
1, 442114, Control_c, 0, 64, 115
1, 442129, Control_c, 0, 64, 119
1, 442144, Control_c, 0, 64, 122
1, 442159, Control_c, 0, 64, 124
1, 442174, Control_c, 0, 64, 126
1, 442183, Note_on_c, 0, 69, 106
1, 442189, Note_on_c, 0, 62, 94
1, 442241, Note_off_c, 0, 50, 48
1, 442276, Note_off_c, 0, 62, 51
1, 442293, Note_off_c, 0, 38, 61
1, 442297, Note_on_c, 0, 66, 91
1, 442305, Note_off_c, 0, 69, 62
1, 442307, Control_c, 0, 64, 127
1, 442322, Control_c, 0, 64, 127
1, 442338, Note_off_c, 0, 66, 68
1, 442354, Poly_aftertouch_c, 0, 42, 127
1, 442389, Poly_aftertouch_c, 0, 42, 0
1, 442441, Note_on_c, 0, 74, 100
1, 442445, Note_on_c, 0, 69, 102
1, 442516, Note_off_c, 0, 69, 55
1, 442565, Note_on_c, 0, 70, 82
1, 442585, Note_off_c, 0, 74, 56
1, 442616, Note_off_c, 0, 70, 63
1, 442689, Note_on_c, 0, 74, 95
1, 442692, Note_on_c, 0, 70, 92
1, 442812, Note_off_c, 0, 70, 46
1, 442818, Note_on_c, 0, 69, 88
1, 442827, Note_off_c, 0, 74, 56
1, 442877, Note_off_c, 0, 69, 64
1, 442907, Control_c, 0, 64, 116
1, 442922, Control_c, 0, 64, 94
1, 442937, Control_c, 0, 64, 74
1, 442938, Note_on_c, 0, 69, 101
1, 442939, Note_on_c, 0, 54, 92
1, 442949, Note_on_c, 0, 42, 96
1, 442952, Control_c, 0, 64, 54
1, 442967, Control_c, 0, 64, 43
1, 442981, Control_c, 0, 64, 65
1, 442993, Note_off_c, 0, 42, 65
1, 442996, Control_c, 0, 64, 75
1, 443011, Control_c, 0, 64, 88
1, 443014, Note_off_c, 0, 54, 61
1, 443025, Control_c, 0, 64, 101
1, 443040, Control_c, 0, 64, 110
1, 443055, Control_c, 0, 64, 114
1, 443062, Note_on_c, 0, 67, 86
1, 443070, Control_c, 0, 64, 117
1, 443085, Control_c, 0, 64, 120
1, 443092, Note_off_c, 0, 69, 60
1, 443099, Control_c, 0, 64, 124
1, 443114, Control_c, 0, 64, 126
1, 443136, Note_off_c, 0, 67, 63
1, 443158, Control_c, 0, 64, 115
1, 443173, Control_c, 0, 64, 96
1, 443188, Control_c, 0, 64, 77
1, 443202, Note_on_c, 0, 59, 95
1, 443203, Control_c, 0, 64, 54
1, 443207, Note_on_c, 0, 74, 100
1, 443210, Note_on_c, 0, 47, 89
1, 443210, Note_on_c, 0, 67, 98
1, 443217, Control_c, 0, 64, 0
1, 443247, Control_c, 0, 64, 63
1, 443262, Control_c, 0, 64, 77
1, 443277, Control_c, 0, 64, 90
1, 443287, Note_off_c, 0, 67, 63
1, 443292, Control_c, 0, 64, 102
1, 443306, Control_c, 0, 64, 106
1, 443312, Note_off_c, 0, 47, 59
1, 443321, Control_c, 0, 64, 108
1, 443336, Control_c, 0, 64, 112
1, 443345, Note_off_c, 0, 59, 59
1, 443351, Control_c, 0, 64, 121
1, 443357, Note_on_c, 0, 66, 86
1, 443366, Control_c, 0, 64, 127
1, 443399, Note_off_c, 0, 66, 65
1, 443460, Note_on_c, 0, 66, 82
1, 443464, Note_on_c, 0, 59, 83
1, 443470, Note_on_c, 0, 47, 87
1, 443502, Note_off_c, 0, 59, 66
1, 443503, Note_off_c, 0, 47, 68
1, 443510, Note_off_c, 0, 66, 67
1, 443562, Note_on_c, 0, 71, 85
1, 443599, Note_off_c, 0, 74, 61
1, 443611, Note_off_c, 0, 71, 61
1, 443640, Control_c, 0, 64, 97
1, 443655, Control_c, 0, 64, 77
1, 443668, Note_on_c, 0, 71, 92
1, 443670, Control_c, 0, 64, 56
1, 443673, Note_on_c, 0, 72, 99
1, 443675, Note_on_c, 0, 54, 93
1, 443678, Note_on_c, 0, 42, 90
1, 443685, Control_c, 0, 64, 0
1, 443700, Control_c, 0, 64, 54
1, 443710, Note_off_c, 0, 42, 67
1, 443715, Control_c, 0, 64, 71
1, 443718, Note_off_c, 0, 54, 62
1, 443730, Control_c, 0, 64, 84
1, 443734, Note_off_c, 0, 71, 58
1, 443745, Control_c, 0, 64, 101
1, 443760, Control_c, 0, 64, 118
1, 443760, Note_off_c, 0, 72, 0
1, 443771, Note_on_c, 0, 74, 88
1, 443774, Control_c, 0, 64, 127
1, 443784, Note_on_c, 0, 69, 83
1, 443801, Poly_aftertouch_c, 0, 72, 0
1, 443831, Note_off_c, 0, 69, 65
1, 443831, Note_off_c, 0, 74, 66
1, 443834, Control_c, 0, 64, 116
1, 443848, Control_c, 0, 64, 95
1, 443863, Control_c, 0, 64, 74
1, 443878, Control_c, 0, 64, 0
1, 443891, Note_on_c, 0, 47, 88
1, 443891, Note_on_c, 0, 59, 79
1, 443902, Note_on_c, 0, 76, 104
1, 443908, Control_c, 0, 64, 43
1, 443909, Note_on_c, 0, 69, 82
1, 443911, Note_on_c, 0, 71, 88
1, 443911, Note_off_c, 0, 59, 69
1, 443922, Control_c, 0, 64, 73
1, 443937, Control_c, 0, 64, 89
1, 443938, Note_off_c, 0, 47, 64
1, 443952, Control_c, 0, 64, 107
1, 443956, Note_off_c, 0, 71, 56
1, 443962, Note_off_c, 0, 69, 64
1, 443966, Control_c, 0, 64, 115
1, 443981, Control_c, 0, 64, 116
1, 443996, Control_c, 0, 64, 117
1, 444007, Note_on_c, 0, 67, 82
1, 444011, Control_c, 0, 64, 118
1, 444025, Note_off_c, 0, 76, 58
1, 444026, Control_c, 0, 64, 118
1, 444077, Note_off_c, 0, 67, 60
1, 444100, Control_c, 0, 64, 117
1, 444114, Control_c, 0, 64, 114
1, 444116, Note_on_c, 0, 38, 94
1, 444119, Note_on_c, 0, 76, 96
1, 444128, Note_on_c, 0, 67, 90
1, 444129, Control_c, 0, 64, 110
1, 444144, Control_c, 0, 64, 110
1, 444173, Note_off_c, 0, 38, 63
1, 444176, Note_off_c, 0, 76, 67
1, 444198, Note_off_c, 0, 67, 59
1, 444219, Control_c, 0, 64, 112
1, 444240, Control_c, 0, 64, 127
1, 444254, Note_on_c, 0, 66, 89
1, 444311, Note_off_c, 0, 66, 62
1, 444329, Control_c, 0, 64, 100
1, 444344, Control_c, 0, 64, 83
1, 444346, Note_on_c, 0, 45, 96
1, 444346, Note_on_c, 0, 69, 82
1, 444347, Note_on_c, 0, 57, 90
1, 444359, Control_c, 0, 64, 70
1, 444365, Note_on_c, 0, 66, 59
1, 444374, Control_c, 0, 64, 68
1, 444375, Note_off_c, 0, 45, 68
1, 444380, Note_off_c, 0, 57, 61
1, 444389, Control_c, 0, 64, 77
1, 444403, Control_c, 0, 64, 92
1, 444406, Note_off_c, 0, 66, 56
1, 444419, Control_c, 0, 64, 111
1, 444434, Control_c, 0, 64, 127
1, 444453, Note_on_c, 0, 59, 89
1, 444454, Note_on_c, 0, 47, 92
1, 444457, Note_on_c, 0, 67, 89
1, 444463, Note_off_c, 0, 69, 61
1, 444487, Note_off_c, 0, 47, 61
1, 444490, Note_off_c, 0, 59, 63
1, 444514, Note_off_c, 0, 67, 62
1, 444523, Control_c, 0, 64, 103
1, 444538, Control_c, 0, 64, 83
1, 444552, Control_c, 0, 64, 64
1, 444567, Control_c, 0, 64, 0
1, 444570, Note_on_c, 0, 60, 94
1, 444572, Note_on_c, 0, 48, 92
1, 444575, Note_on_c, 0, 74, 95
1, 444580, Note_on_c, 0, 64, 82
1, 444591, Note_on_c, 0, 65, 71
1, 444611, Note_off_c, 0, 65, 59
1, 444612, Control_c, 0, 64, 63
1, 444627, Note_off_c, 0, 64, 61
1, 444627, Control_c, 0, 64, 77
1, 444642, Control_c, 0, 64, 91
1, 444656, Control_c, 0, 64, 109
1, 444671, Control_c, 0, 64, 117
1, 444686, Control_c, 0, 64, 118
1, 444687, Note_on_c, 0, 71, 84
1, 444719, Note_off_c, 0, 60, 57
1, 444724, Note_off_c, 0, 48, 61
1, 444726, Note_off_c, 0, 71, 63
1, 444730, Control_c, 0, 64, 112
1, 444745, Control_c, 0, 64, 98
1, 444760, Control_c, 0, 64, 80
1, 444775, Control_c, 0, 64, 66
1, 444789, Control_c, 0, 64, 55
1, 444795, Note_on_c, 0, 71, 87
1, 444799, Note_on_c, 0, 60, 84
1, 444804, Control_c, 0, 64, 66
1, 444805, Note_on_c, 0, 48, 81
1, 444819, Control_c, 0, 64, 78
1, 444822, Note_on_c, 0, 50, 56
1, 444824, Note_off_c, 0, 60, 64
1, 444834, Control_c, 0, 64, 93
1, 444838, Note_off_c, 0, 48, 66
1, 444849, Note_off_c, 0, 50, 55
1, 444849, Control_c, 0, 64, 112
1, 444863, Control_c, 0, 64, 121
1, 444878, Control_c, 0, 64, 126
1, 444893, Control_c, 0, 64, 127
1, 444895, Note_on_c, 0, 69, 91
1, 444922, Note_off_c, 0, 71, 62
1, 444943, Note_off_c, 0, 69, 67
1, 444952, Control_c, 0, 64, 111
1, 444967, Control_c, 0, 64, 92
1, 444989, Control_c, 0, 64, 73
1, 445004, Control_c, 0, 64, 0
1, 445006, Note_on_c, 0, 54, 90
1, 445007, Note_on_c, 0, 69, 94
1, 445009, Note_on_c, 0, 42, 88
1, 445027, Note_off_c, 0, 74, 52
1, 445034, Control_c, 0, 64, 16
1, 445045, Note_off_c, 0, 42, 65
1, 445049, Control_c, 0, 64, 71
1, 445053, Note_off_c, 0, 54, 62
1, 445063, Control_c, 0, 64, 87
1, 445069, Note_off_c, 0, 69, 64
1, 445078, Control_c, 0, 64, 108
1, 445093, Control_c, 0, 64, 126
1, 445108, Control_c, 0, 64, 127
1, 445112, Note_on_c, 0, 67, 92
1, 445164, Note_off_c, 0, 67, 64
1, 445167, Control_c, 0, 64, 117
1, 445182, Control_c, 0, 64, 97
1, 445196, Control_c, 0, 64, 76
1, 445212, Control_c, 0, 64, 0
1, 445226, Note_on_c, 0, 59, 83
1, 445226, Note_on_c, 0, 72, 106
1, 445229, Note_on_c, 0, 47, 85
1, 445235, Note_on_c, 0, 67, 94
1, 445253, Note_off_c, 0, 59, 64
1, 445257, Control_c, 0, 64, 59
1, 445272, Control_c, 0, 64, 78
1, 445276, Note_off_c, 0, 47, 64
1, 445286, Control_c, 0, 64, 94
1, 445301, Control_c, 0, 64, 110
1, 445316, Control_c, 0, 64, 111
1, 445339, Note_on_c, 0, 66, 85
1, 445344, Note_off_c, 0, 67, 63
1, 445371, Note_off_c, 0, 72, 61
1, 445390, Note_off_c, 0, 66, 66
1, 445451, Note_on_c, 0, 66, 91
1, 445457, Note_on_c, 0, 38, 98
1, 445503, Note_off_c, 0, 38, 64
1, 445522, Note_off_c, 0, 66, 58
1, 445546, Note_on_c, 0, 64, 89
1, 445604, Note_off_c, 0, 64, 63
1, 445657, Note_on_c, 0, 74, 95
1, 445657, Control_c, 0, 64, 111
1, 445661, Note_on_c, 0, 64, 90
1, 445672, Control_c, 0, 64, 112
1, 445686, Control_c, 0, 64, 113
1, 445701, Control_c, 0, 64, 114
1, 445715, Note_off_c, 0, 64, 59
1, 445716, Control_c, 0, 64, 115
1, 445738, Control_c, 0, 64, 118
1, 445753, Control_c, 0, 64, 127
1, 445768, Control_c, 0, 64, 127
1, 445769, Note_on_c, 0, 66, 91
1, 445776, Note_off_c, 0, 74, 60
1, 445807, Note_off_c, 0, 66, 67
1, 445886, Control_c, 0, 64, 105
1, 445895, Note_on_c, 0, 69, 101
1, 445901, Control_c, 0, 64, 76
1, 445903, Note_on_c, 0, 66, 100
1, 445912, Note_on_c, 0, 57, 100
1, 445916, Control_c, 0, 64, 0
1, 445917, Note_on_c, 0, 45, 97
1, 445977, Note_off_c, 0, 66, 65
1, 445991, Control_c, 0, 64, 66
1, 446007, Control_c, 0, 64, 83
1, 446017, Note_on_c, 0, 62, 85
1, 446022, Control_c, 0, 64, 100
1, 446031, Note_off_c, 0, 45, 64
1, 446036, Control_c, 0, 64, 127
1, 446047, Note_off_c, 0, 57, 62
1, 446064, Note_off_c, 0, 62, 62
1, 446132, Note_on_c, 0, 62, 91
1, 446177, Note_off_c, 0, 69, 61
1, 446219, Note_off_c, 0, 62, 57
1, 446222, Note_on_c, 0, 66, 91
1, 446281, Note_off_c, 0, 66, 66
1, 446317, Control_c, 0, 64, 99
1, 446330, Note_on_c, 0, 69, 97
1, 446331, Note_on_c, 0, 59, 95
1, 446332, Control_c, 0, 64, 81
1, 446333, Note_on_c, 0, 66, 90
1, 446335, Note_on_c, 0, 47, 95
1, 446347, Control_c, 0, 64, 68
1, 446362, Control_c, 0, 64, 65
1, 446369, Note_off_c, 0, 59, 67
1, 446377, Control_c, 0, 64, 73
1, 446383, Note_off_c, 0, 66, 67
1, 446386, Note_off_c, 0, 47, 64
1, 446392, Control_c, 0, 64, 85
1, 446407, Control_c, 0, 64, 107
1, 446421, Control_c, 0, 64, 127
1, 446443, Note_on_c, 0, 67, 87
1, 446462, Note_off_c, 0, 69, 61
1, 446496, Note_off_c, 0, 67, 63
1, 446532, Control_c, 0, 64, 103
1, 446547, Control_c, 0, 64, 81
1, 446562, Control_c, 0, 64, 52
1, 446577, Control_c, 0, 64, 0
1, 446578, Note_on_c, 0, 54, 92
1, 446579, Note_on_c, 0, 74, 100
1, 446583, Note_on_c, 0, 42, 87
1, 446590, Note_on_c, 0, 69, 84
1, 446621, Note_off_c, 0, 54, 62
1, 446636, Control_c, 0, 64, 69
1, 446645, Note_off_c, 0, 42, 63
1, 446651, Control_c, 0, 64, 82
1, 446666, Control_c, 0, 64, 99
1, 446681, Control_c, 0, 64, 109
1, 446693, Note_off_c, 0, 69, 58
1, 446695, Control_c, 0, 64, 112
1, 446708, Note_on_c, 0, 70, 80
1, 446710, Control_c, 0, 64, 114
1, 446724, Control_c, 0, 64, 118
1, 446739, Control_c, 0, 64, 124
1, 446754, Control_c, 0, 64, 127
1, 446761, Note_off_c, 0, 74, 60
1, 446767, Note_off_c, 0, 70, 61
1, 446805, Poly_aftertouch_c, 0, 42, 0
1, 446823, Note_on_c, 0, 38, 103
1, 446825, Poly_aftertouch_c, 0, 42, 0
1, 446829, Note_on_c, 0, 74, 89
1, 446830, Note_on_c, 0, 70, 85
1, 446878, Note_off_c, 0, 38, 64
1, 446928, Note_off_c, 0, 70, 60
1, 446944, Note_on_c, 0, 69, 83
1, 446980, Note_off_c, 0, 74, 57
1, 447000, Note_off_c, 0, 69, 67
1, 447065, Control_c, 0, 64, 97
1, 447077, Note_on_c, 0, 69, 99
1, 447079, Note_on_c, 0, 53, 102
1, 447080, Control_c, 0, 64, 74
1, 447085, Note_on_c, 0, 41, 98
1, 447095, Control_c, 0, 64, 0
1, 447155, Control_c, 0, 64, 66
1, 447170, Control_c, 0, 64, 77
1, 447184, Control_c, 0, 64, 88
1, 447188, Note_off_c, 0, 41, 66
1, 447199, Control_c, 0, 64, 97
1, 447202, Note_on_c, 0, 67, 90
1, 447214, Control_c, 0, 64, 102
1, 447229, Note_off_c, 0, 53, 69
1, 447236, Control_c, 0, 64, 106
1, 447247, Note_off_c, 0, 69, 57
1, 447251, Control_c, 0, 64, 109
1, 447265, Control_c, 0, 64, 111
1, 447280, Control_c, 0, 64, 115
1, 447295, Control_c, 0, 64, 121
1, 447310, Control_c, 0, 64, 127
1, 447316, Note_off_c, 0, 67, 60
1, 447369, Control_c, 0, 64, 121
1, 447384, Control_c, 0, 64, 102
1, 447390, Note_on_c, 0, 58, 96
1, 447394, Note_on_c, 0, 74, 102
1, 447396, Note_on_c, 0, 46, 93
1, 447399, Control_c, 0, 64, 84
1, 447402, Note_on_c, 0, 67, 95
1, 447414, Control_c, 0, 64, 65
1, 447429, Control_c, 0, 64, 0
1, 447488, Control_c, 0, 64, 53
1, 447503, Control_c, 0, 64, 68
1, 447504, Note_off_c, 0, 67, 62
1, 447517, Control_c, 0, 64, 74
1, 447532, Control_c, 0, 64, 82
1, 447536, Note_on_c, 0, 65, 82
1, 447547, Control_c, 0, 64, 90
1, 447562, Control_c, 0, 64, 103
1, 447577, Control_c, 0, 64, 118
1, 447578, Note_off_c, 0, 46, 61
1, 447581, Note_off_c, 0, 65, 67
1, 447586, Note_off_c, 0, 58, 62
1, 447591, Control_c, 0, 64, 127
1, 447622, Control_c, 0, 64, 118
1, 447637, Control_c, 0, 64, 102
1, 447652, Control_c, 0, 64, 86
1, 447654, Note_on_c, 0, 65, 85
1, 447667, Control_c, 0, 64, 72
1, 447670, Note_on_c, 0, 58, 81
1, 447673, Note_on_c, 0, 46, 93
1, 447681, Control_c, 0, 64, 65
1, 447696, Control_c, 0, 64, 68
1, 447701, Note_off_c, 0, 58, 63
1, 447706, Note_off_c, 0, 46, 63
1, 447711, Control_c, 0, 64, 78
1, 447726, Control_c, 0, 64, 94
1, 447727, Note_off_c, 0, 65, 56
1, 447740, Control_c, 0, 64, 109
1, 447755, Note_on_c, 0, 70, 87
1, 447755, Control_c, 0, 64, 120
1, 447770, Control_c, 0, 64, 127
1, 447813, Note_off_c, 0, 70, 62
1, 447817, Note_off_c, 0, 74, 60
1, 447828, Note_on_c, 0, 49, 24
1, 447829, Control_c, 0, 64, 125
1, 447844, Control_c, 0, 64, 101
1, 447859, Control_c, 0, 64, 81
1, 447870, Note_off_c, 0, 49, 40
1, 447870, Note_on_c, 0, 72, 97
1, 447871, Note_on_c, 0, 70, 86
1, 447874, Control_c, 0, 64, 62
1, 447875, Note_on_c, 0, 53, 95
1, 447877, Note_on_c, 0, 41, 88
1, 447888, Control_c, 0, 64, 0
1, 447918, Note_off_c, 0, 41, 67
1, 447918, Control_c, 0, 64, 65
1, 447929, Note_off_c, 0, 53, 64
1, 447933, Control_c, 0, 64, 80
1, 447948, Control_c, 0, 64, 98
1, 447951, Note_off_c, 0, 70, 60
1, 447963, Note_on_c, 0, 74, 79
1, 447963, Control_c, 0, 64, 119
1, 447985, Control_c, 0, 64, 126
1, 447987, Note_on_c, 0, 69, 86
1, 447999, Note_off_c, 0, 72, 61
1, 448000, Control_c, 0, 64, 127
1, 448030, Note_off_c, 0, 74, 65
1, 448038, Note_off_c, 0, 69, 66
1, 448044, Control_c, 0, 64, 119
1, 448059, Control_c, 0, 64, 99
1, 448074, Control_c, 0, 64, 78
1, 448088, Control_c, 0, 64, 45
1, 448094, Note_on_c, 0, 58, 87
1, 448094, Note_on_c, 0, 46, 93
1, 448103, Note_on_c, 0, 69, 96
1, 448103, Control_c, 0, 64, 0
1, 448106, Note_on_c, 0, 75, 93
1, 448128, Note_off_c, 0, 58, 64
1, 448133, Control_c, 0, 64, 50
1, 448147, Note_off_c, 0, 46, 64
1, 448147, Control_c, 0, 64, 74
1, 448161, Note_off_c, 0, 69, 66
1, 448162, Control_c, 0, 64, 87
1, 448177, Control_c, 0, 64, 102
1, 448192, Control_c, 0, 64, 110
1, 448199, Note_on_c, 0, 67, 83
1, 448207, Control_c, 0, 64, 114
1, 448222, Control_c, 0, 64, 119
1, 448237, Control_c, 0, 64, 124
1, 448246, Note_off_c, 0, 75, 62
1, 448252, Control_c, 0, 64, 124
1, 448267, Control_c, 0, 64, 124
1, 448273, Note_off_c, 0, 67, 59
1, 448281, Control_c, 0, 64, 115
1, 448296, Control_c, 0, 64, 102
1, 448311, Note_on_c, 0, 38, 97
1, 448311, Control_c, 0, 64, 92
1, 448312, Note_on_c, 0, 75, 92
1, 448316, Note_on_c, 0, 67, 85
1, 448325, Control_c, 0, 64, 84
1, 448340, Control_c, 0, 64, 82
1, 448355, Control_c, 0, 64, 83
1, 448370, Control_c, 0, 64, 89
1, 448371, Note_off_c, 0, 38, 63
1, 448385, Control_c, 0, 64, 100
1, 448400, Control_c, 0, 64, 112
1, 448416, Note_on_c, 0, 66, 86
1, 448416, Control_c, 0, 64, 123
1, 448430, Control_c, 0, 64, 127
1, 448435, Note_off_c, 0, 67, 59
1, 448478, Note_off_c, 0, 66, 64
1, 448517, Note_on_c, 0, 45, 91
1, 448518, Note_on_c, 0, 57, 91
1, 448523, Note_on_c, 0, 66, 83
1, 448524, Note_on_c, 0, 69, 90
1, 448544, Note_off_c, 0, 45, 67
1, 448547, Note_off_c, 0, 75, 55
1, 448550, Note_off_c, 0, 57, 63
1, 448583, Note_off_c, 0, 66, 65
1, 448628, Note_on_c, 0, 46, 97
1, 448630, Note_on_c, 0, 67, 91
1, 448631, Note_on_c, 0, 58, 92
1, 448642, Note_off_c, 0, 69, 61
1, 448686, Note_off_c, 0, 58, 63
1, 448689, Note_off_c, 0, 46, 61
1, 448690, Note_off_c, 0, 67, 64
1, 448734, Control_c, 0, 64, 112
1, 448749, Control_c, 0, 64, 88
1, 448763, Control_c, 0, 64, 68
1, 448765, Note_on_c, 0, 74, 98
1, 448766, Note_on_c, 0, 59, 92
1, 448770, Note_on_c, 0, 47, 93
1, 448770, Note_on_c, 0, 67, 97
1, 448778, Control_c, 0, 64, 0
1, 448837, Control_c, 0, 64, 62
1, 448852, Control_c, 0, 64, 77
1, 448867, Control_c, 0, 64, 96
1, 448879, Note_on_c, 0, 68, 85
1, 448881, Control_c, 0, 64, 120
1, 448886, Note_off_c, 0, 67, 60
1, 448896, Control_c, 0, 64, 127
1, 448911, Note_off_c, 0, 59, 61
1, 448920, Note_off_c, 0, 47, 62
1, 448921, Note_off_c, 0, 68, 66
1, 448955, Control_c, 0, 64, 119
1, 448971, Control_c, 0, 64, 95
1, 448986, Control_c, 0, 64, 79
1, 448988, Note_on_c, 0, 68, 93
1, 448997, Note_on_c, 0, 59, 86
1, 448997, Note_on_c, 0, 47, 88
1, 449001, Control_c, 0, 64, 69
1, 449016, Note_off_c, 0, 59, 68
1, 449016, Control_c, 0, 64, 67
1, 449030, Control_c, 0, 64, 75
1, 449033, Note_off_c, 0, 47, 65
1, 449045, Control_c, 0, 64, 88
1, 449060, Note_off_c, 0, 68, 56
1, 449060, Control_c, 0, 64, 108
1, 449074, Control_c, 0, 64, 122
1, 449086, Note_on_c, 0, 67, 87
1, 449089, Control_c, 0, 64, 127
1, 449138, Note_off_c, 0, 67, 63
1, 449164, Control_c, 0, 64, 121
1, 449179, Control_c, 0, 64, 97
1, 449194, Control_c, 0, 64, 78
1, 449200, Note_on_c, 0, 67, 94
1, 449203, Note_on_c, 0, 53, 87
1, 449209, Control_c, 0, 64, 57
1, 449211, Note_on_c, 0, 41, 81
1, 449224, Control_c, 0, 64, 0
1, 449239, Control_c, 0, 64, 55
1, 449244, Note_off_c, 0, 41, 70
1, 449247, Note_off_c, 0, 53, 66
1, 449253, Control_c, 0, 64, 76
1, 449264, Note_off_c, 0, 67, 60
1, 449268, Control_c, 0, 64, 95
1, 449283, Control_c, 0, 64, 127
1, 449304, Note_on_c, 0, 66, 88
1, 449311, Note_on_c, 0, 67, 43
1, 449331, Note_off_c, 0, 67, 63
1, 449337, Note_off_c, 0, 74, 58
1, 449360, Note_off_c, 0, 66, 66
1, 449373, Control_c, 0, 64, 99
1, 449387, Control_c, 0, 64, 75
1, 449402, Control_c, 0, 64, 0
1, 449407, Note_on_c, 0, 72, 100
1, 449414, Note_on_c, 0, 66, 99
1, 449416, Note_on_c, 0, 58, 88
1, 449417, Note_on_c, 0, 46, 95
1, 449442, Note_off_c, 0, 58, 67
1, 449447, Control_c, 0, 64, 51
1, 449461, Control_c, 0, 64, 81
1, 449469, Note_off_c, 0, 46, 63
1, 449483, Control_c, 0, 64, 104
1, 449489, Note_off_c, 0, 66, 63
1, 449498, Control_c, 0, 64, 127
1, 449525, Note_on_c, 0, 65, 82
1, 449579, Note_off_c, 0, 65, 64
1, 449641, Note_on_c, 0, 38, 97
1, 449648, Note_on_c, 0, 65, 80
1, 449650, Note_on_c, 0, 36, 70
1, 449669, Note_off_c, 0, 38, 67
1, 449674, Note_off_c, 0, 36, 61
1, 449700, Note_off_c, 0, 72, 61
1, 449744, Note_on_c, 0, 70, 90
1, 449760, Note_off_c, 0, 65, 36
1, 449809, Note_off_c, 0, 70, 61
1, 449855, Note_on_c, 0, 74, 93
1, 449857, Note_on_c, 0, 70, 93
1, 449939, Note_off_c, 0, 70, 62
1, 449957, Note_on_c, 0, 65, 80
1, 449965, Note_off_c, 0, 74, 65
1, 450006, Note_off_c, 0, 65, 66
1, 450047, Control_c, 0, 64, 103
1, 450062, Control_c, 0, 64, 77
1, 450067, Note_on_c, 0, 69, 99
1, 450070, Note_on_c, 0, 65, 93
1, 450074, Note_on_c, 0, 57, 93
1, 450076, Note_on_c, 0, 45, 94
1, 450076, Control_c, 0, 64, 0
1, 450136, Control_c, 0, 64, 69
1, 450151, Control_c, 0, 64, 86
1, 450156, Note_off_c, 0, 65, 56
1, 450166, Control_c, 0, 64, 103
1, 450171, Note_off_c, 0, 45, 65
1, 450179, Note_off_c, 0, 57, 61
1, 450180, Control_c, 0, 64, 114
1, 450190, Note_on_c, 0, 63, 91
1, 450195, Control_c, 0, 64, 120
1, 450210, Control_c, 0, 64, 127
1, 450244, Note_off_c, 0, 63, 63
1, 450303, Note_on_c, 0, 63, 94
1, 450354, Note_off_c, 0, 63, 64
1, 450415, Note_on_c, 0, 62, 93
1, 450448, Note_off_c, 0, 69, 48
1, 450466, Note_off_c, 0, 62, 63
1, 450511, Note_on_c, 0, 58, 96
1, 450514, Note_on_c, 0, 46, 96
1, 450519, Note_on_c, 0, 62, 95
1, 450541, Note_off_c, 0, 58, 60
1, 450552, Note_off_c, 0, 46, 62
1, 450580, Note_off_c, 0, 62, 58
1, 450624, Note_on_c, 0, 65, 96
1, 450678, Note_off_c, 0, 65, 66
1, 450690, Control_c, 0, 64, 117
1, 450705, Control_c, 0, 64, 89
1, 450720, Control_c, 0, 64, 66
1, 450735, Control_c, 0, 64, 0
1, 450737, Note_on_c, 0, 69, 92
1, 450741, Note_on_c, 0, 65, 110
1, 450744, Note_on_c, 0, 53, 100
1, 450749, Note_on_c, 0, 41, 93
1, 450780, Control_c, 0, 64, 70
1, 450795, Control_c, 0, 64, 84
1, 450809, Note_off_c, 0, 65, 58
1, 450810, Control_c, 0, 64, 99
1, 450824, Control_c, 0, 64, 110
1, 450839, Note_off_c, 0, 69, 61
1, 450839, Control_c, 0, 64, 124
1, 450854, Control_c, 0, 64, 127
1, 450858, Note_on_c, 0, 63, 89
1, 450907, Note_off_c, 0, 63, 66
1, 450943, Control_c, 0, 64, 111
1, 450958, Control_c, 0, 64, 83
1, 450980, Control_c, 0, 64, 0
1, 450992, Note_on_c, 0, 69, 96
1, 450994, Note_on_c, 0, 72, 102
1, 450997, Note_on_c, 0, 63, 108
1, 451023, Note_on_c, 0, 70, 47
1, 451024, Note_off_c, 0, 70, 127
1, 451025, Control_c, 0, 64, 63
1, 451035, Note_off_c, 0, 53, 64
1, 451038, Note_off_c, 0, 41, 65
1, 451039, Control_c, 0, 64, 89
1, 451054, Control_c, 0, 64, 127
1, 451072, Note_off_c, 0, 72, 59
1, 451084, Note_off_c, 0, 63, 60
1, 451105, Note_off_c, 0, 69, 67
1, 451119, Note_on_c, 0, 62, 89
1, 451199, Note_off_c, 0, 62, 58
1, 451203, Control_c, 0, 64, 99
1, 451218, Control_c, 0, 64, 69
1, 451232, Control_c, 0, 64, 0
1, 451258, Note_on_c, 0, 70, 97
1, 451265, Note_on_c, 0, 55, 99
1, 451265, Note_on_c, 0, 62, 106
1, 451266, Note_on_c, 0, 43, 94
1, 451269, Note_on_c, 0, 69, 97
1, 451274, Note_on_c, 0, 68, 61
1, 451291, Control_c, 0, 64, 81
1, 451294, Note_off_c, 0, 55, 69
1, 451304, Note_off_c, 0, 43, 63
1, 451306, Control_c, 0, 64, 127
1, 451320, Note_on_c, 0, 71, 4
1, 451362, Note_off_c, 0, 62, 53
1, 451362, Note_off_c, 0, 68, 27
1, 451367, Note_off_c, 0, 71, 36
1, 451370, Note_off_c, 0, 70, 55
1, 451375, Note_off_c, 0, 69, 59
1, 451421, Note_on_c, 0, 67, 102
1, 451558, Control_c, 0, 64, 100
1, 451562, Note_off_c, 0, 67, 51
1, 451572, Control_c, 0, 64, 66
1, 451587, Control_c, 0, 64, 0
1, 451616, Note_on_c, 0, 69, 101
1, 451617, Note_on_c, 0, 66, 102
1, 451620, Note_on_c, 0, 62, 97
1, 451621, Note_on_c, 0, 50, 105
1, 451623, Note_on_c, 0, 38, 98
1, 451692, Control_c, 0, 64, 95
1, 451694, Note_off_c, 0, 50, 64
1, 451707, Control_c, 0, 64, 127
1, 451712, Note_off_c, 0, 62, 62
1, 451738, Note_off_c, 0, 38, 61
1, 451746, Note_off_c, 0, 66, 65
1, 451750, Note_off_c, 0, 69, 66
1, 451864, Note_on_c, 0, 70, 103
1, 451867, Note_on_c, 0, 82, 102
1, 451913, Note_off_c, 0, 70, 61
1, 451920, Note_off_c, 0, 82, 60
1, 452028, Note_on_c, 0, 70, 100
1, 452029, Note_on_c, 0, 82, 99
1, 452070, Note_off_c, 0, 70, 64
1, 452079, Note_off_c, 0, 82, 65
1, 452161, Note_on_c, 0, 81, 100
1, 452162, Note_on_c, 0, 69, 105
1, 452206, Note_off_c, 0, 81, 64
1, 452209, Note_off_c, 0, 69, 66
1, 452292, Note_on_c, 0, 45, 99
1, 452294, Note_on_c, 0, 33, 95
1, 452300, Note_on_c, 0, 69, 102
1, 452305, Note_on_c, 0, 81, 92
1, 452309, Note_on_c, 0, 79, 84
1, 452321, Note_off_c, 0, 33, 71
1, 452328, Note_off_c, 0, 45, 66
1, 452337, Note_off_c, 0, 81, 61
1, 452346, Note_off_c, 0, 69, 66
1, 452348, Note_off_c, 0, 79, 59
1, 452427, Note_on_c, 0, 67, 99
1, 452431, Note_on_c, 0, 79, 94
1, 452482, Note_off_c, 0, 79, 62
1, 452483, Note_off_c, 0, 67, 61
1, 452508, Control_c, 0, 64, 118
1, 452523, Control_c, 0, 64, 86
1, 452537, Control_c, 0, 64, 58
1, 452551, Note_on_c, 0, 51, 98
1, 452552, Control_c, 0, 64, 0
1, 452553, Note_on_c, 0, 67, 101
1, 452554, Note_on_c, 0, 79, 100
1, 452556, Note_on_c, 0, 39, 97
1, 452561, Note_on_c, 0, 74, 91
1, 452596, Control_c, 0, 64, 68
1, 452601, Note_off_c, 0, 79, 64
1, 452610, Note_off_c, 0, 67, 60
1, 452611, Control_c, 0, 64, 88
1, 452613, Note_off_c, 0, 51, 57
1, 452625, Note_off_c, 0, 39, 59
1, 452626, Control_c, 0, 64, 114
1, 452634, Note_off_c, 0, 74, 68
1, 452641, Control_c, 0, 64, 127
1, 452676, Note_on_c, 0, 78, 93
1, 452679, Note_on_c, 0, 66, 93
1, 452713, Note_on_c, 0, 65, 52
1, 452728, Note_off_c, 0, 66, 63
1, 452736, Note_off_c, 0, 65, 63
1, 452744, Note_off_c, 0, 78, 61
1, 452789, Note_on_c, 0, 51, 88
1, 452794, Note_on_c, 0, 78, 95
1, 452795, Note_on_c, 0, 66, 98
1, 452795, Note_on_c, 0, 74, 79
1, 452797, Note_on_c, 0, 39, 89
1, 452815, Note_on_c, 0, 65, 65
1, 452818, Note_off_c, 0, 51, 61
1, 452827, Note_off_c, 0, 39, 66
1, 452833, Note_off_c, 0, 65, 66
1, 452841, Note_off_c, 0, 66, 65
1, 452853, Note_off_c, 0, 74, 64
1, 452866, Note_off_c, 0, 78, 64
1, 452910, Note_on_c, 0, 82, 100
1, 452911, Note_on_c, 0, 70, 95
1, 452956, Note_off_c, 0, 70, 63
1, 452957, Note_off_c, 0, 82, 64
1, 453012, Control_c, 0, 64, 97
1, 453016, Note_on_c, 0, 45, 95
1, 453018, Note_on_c, 0, 70, 103
1, 453018, Note_on_c, 0, 78, 92
1, 453018, Note_on_c, 0, 82, 95
1, 453021, Note_on_c, 0, 73, 91
1, 453021, Note_on_c, 0, 33, 95
1, 453027, Control_c, 0, 64, 85
1, 453042, Control_c, 0, 64, 92
1, 453047, Note_off_c, 0, 33, 71
1, 453056, Control_c, 0, 64, 127
1, 453057, Note_off_c, 0, 45, 65
1, 453069, Note_off_c, 0, 82, 63
1, 453072, Note_off_c, 0, 70, 62
1, 453082, Note_off_c, 0, 78, 64
1, 453085, Note_off_c, 0, 73, 60
1, 453133, Note_on_c, 0, 69, 87
1, 453133, Note_on_c, 0, 81, 89
1, 453166, Note_on_c, 0, 78, 54
1, 453175, Control_c, 0, 64, 84
1, 453178, Note_off_c, 0, 81, 62
1, 453182, Note_off_c, 0, 78, 65
1, 453184, Note_off_c, 0, 69, 64
1, 453190, Control_c, 0, 64, 0
1, 453224, Poly_aftertouch_c, 0, 74, 0
1, 453242, Note_on_c, 0, 50, 102
1, 453245, Note_on_c, 0, 38, 95
1, 453248, Note_on_c, 0, 74, 41
1, 453250, Note_on_c, 0, 78, 95
1, 453250, Note_on_c, 0, 81, 99
1, 453251, Note_on_c, 0, 69, 105
1, 453257, Control_c, 0, 64, 65
1, 453272, Note_off_c, 0, 38, 69
1, 453272, Control_c, 0, 64, 127
1, 453284, Note_off_c, 0, 50, 67
1, 453289, Note_off_c, 0, 81, 63
1, 453303, Note_off_c, 0, 69, 63
1, 453303, Note_off_c, 0, 78, 63
1, 453309, Note_off_c, 0, 74, 66
1, 453367, Note_on_c, 0, 67, 98
1, 453369, Note_on_c, 0, 79, 87
1, 453411, Note_off_c, 0, 79, 61
1, 453414, Note_on_c, 0, 62, 45
1, 453427, Note_off_c, 0, 67, 60
1, 453445, Note_off_c, 0, 62, 52
1, 453468, Note_on_c, 0, 62, 80
1, 453471, Note_on_c, 0, 69, 108
1, 453472, Note_on_c, 0, 57, 102
1, 453474, Note_on_c, 0, 67, 104
1, 453483, Note_on_c, 0, 74, 91
1, 453483, Note_on_c, 0, 79, 93
1, 453489, Note_off_c, 0, 69, 74
1, 453504, Note_on_c, 0, 77, 68
1, 453508, Note_off_c, 0, 62, 65
1, 453513, Note_off_c, 0, 57, 69
1, 453519, Note_off_c, 0, 79, 60
1, 453522, Note_off_c, 0, 77, 41
1, 453525, Note_off_c, 0, 67, 64
1, 453536, Note_off_c, 0, 74, 64
1, 453588, Note_on_c, 0, 78, 93
1, 453593, Note_on_c, 0, 66, 90
1, 453608, Note_on_c, 0, 74, 55
1, 453647, Note_off_c, 0, 66, 64
1, 453650, Note_off_c, 0, 78, 61
1, 453654, Note_off_c, 0, 74, 60
1, 453692, Note_on_c, 0, 74, 74
1, 453693, Note_on_c, 0, 66, 84
1, 453693, Note_on_c, 0, 78, 84
1, 453695, Note_on_c, 0, 48, 91
1, 453702, Note_on_c, 0, 36, 73
1, 453706, Note_on_c, 0, 35, 78
1, 453725, Note_off_c, 0, 66, 67
1, 453727, Note_off_c, 0, 35, 65
1, 453732, Note_on_c, 0, 79, 42
1, 453733, Note_off_c, 0, 79, 127
1, 453734, Note_off_c, 0, 48, 66
1, 453734, Note_off_c, 0, 74, 67
1, 453737, Note_off_c, 0, 36, 64
1, 453741, Note_off_c, 0, 78, 63
1, 453746, Note_on_c, 0, 47, 12
1, 453787, Note_off_c, 0, 47, 53
1, 453798, Note_on_c, 0, 50, 100
1, 453802, Note_on_c, 0, 70, 106
1, 453802, Note_on_c, 0, 38, 93
1, 453805, Note_on_c, 0, 82, 92
1, 453832, Note_off_c, 0, 50, 67
1, 453835, Note_off_c, 0, 38, 67
1, 453852, Note_off_c, 0, 70, 61
1, 453855, Note_off_c, 0, 82, 62
1, 453894, Control_c, 0, 64, 90
1, 453901, Note_on_c, 0, 51, 108
1, 453901, Note_on_c, 0, 74, 23
1, 453904, Note_on_c, 0, 79, 72
1, 453904, Note_on_c, 0, 39, 102
1, 453905, Note_on_c, 0, 70, 97
1, 453905, Note_on_c, 0, 82, 93
1, 453909, Control_c, 0, 64, 64
1, 453924, Control_c, 0, 64, 0
1, 453953, Control_c, 0, 64, 58
1, 453957, Note_off_c, 0, 70, 63
1, 453971, Note_off_c, 0, 82, 66
1, 453975, Control_c, 0, 64, 82
1, 453981, Note_off_c, 0, 74, 65
1, 453981, Note_off_c, 0, 79, 62
1, 453986, Note_off_c, 0, 39, 61
1, 453990, Control_c, 0, 64, 119
1, 454002, Note_off_c, 0, 51, 57
1, 454006, Control_c, 0, 64, 127
1, 454029, Note_on_c, 0, 69, 95
1, 454029, Note_on_c, 0, 81, 96
1, 454076, Note_off_c, 0, 69, 68
1, 454079, Note_off_c, 0, 81, 63
1, 454095, Control_c, 0, 64, 93
1, 454109, Control_c, 0, 64, 73
1, 454121, Note_on_c, 0, 51, 93
1, 454124, Control_c, 0, 64, 32
1, 454127, Note_on_c, 0, 39, 94
1, 454136, Note_on_c, 0, 78, 78
1, 454139, Note_on_c, 0, 73, 87
1, 454139, Control_c, 0, 64, 48
1, 454141, Note_on_c, 0, 81, 103
1, 454142, Note_on_c, 0, 69, 102
1, 454154, Note_off_c, 0, 51, 63
1, 454154, Control_c, 0, 64, 74
1, 454169, Control_c, 0, 64, 95
1, 454172, Note_off_c, 0, 39, 63
1, 454184, Control_c, 0, 64, 127
1, 454195, Note_off_c, 0, 73, 61
1, 454196, Note_off_c, 0, 81, 58
1, 454199, Note_off_c, 0, 78, 64
1, 454205, Note_off_c, 0, 69, 60
1, 454252, Note_on_c, 0, 79, 88
1, 454261, Note_on_c, 0, 67, 85
1, 454297, Note_off_c, 0, 79, 63
1, 454300, Note_off_c, 0, 67, 63
1, 454332, Control_c, 0, 64, 95
1, 454347, Control_c, 0, 64, 69
1, 454354, Poly_aftertouch_c, 0, 37, 0
1, 454357, Note_on_c, 0, 45, 98
1, 454357, Poly_aftertouch_c, 0, 69, 0
1, 454361, Note_on_c, 0, 67, 99
1, 454362, Note_on_c, 0, 33, 101
1, 454362, Control_c, 0, 64, 0
1, 454365, Note_on_c, 0, 79, 88
1, 454366, Note_on_c, 0, 70, 82
1, 454369, Note_on_c, 0, 73, 91
1, 454377, Note_on_c, 0, 69, 68
1, 454378, Note_on_c, 0, 77, 81
1, 454381, Note_off_c, 0, 70, 62
1, 454389, Note_off_c, 0, 33, 69
1, 454391, Control_c, 0, 64, 57
1, 454394, Note_off_c, 0, 77, 63
1, 454401, Note_off_c, 0, 79, 64
1, 454405, Note_off_c, 0, 45, 66
1, 454406, Control_c, 0, 64, 77
1, 454412, Note_off_c, 0, 67, 61
1, 454421, Control_c, 0, 64, 103
1, 454436, Control_c, 0, 64, 127
1, 454443, Note_off_c, 0, 69, 65
1, 454447, Note_off_c, 0, 73, 67
1, 454486, Note_on_c, 0, 78, 89
1, 454491, Note_on_c, 0, 66, 99
1, 454528, Note_on_c, 0, 75, 40
1, 454556, Note_off_c, 0, 75, 48
1, 454580, Note_on_c, 0, 46, 19
1, 454584, Note_off_c, 0, 66, 62
1, 454588, Note_off_c, 0, 78, 61
1, 454613, Control_c, 0, 64, 95
1, 454625, Note_off_c, 0, 46, 51
1, 454628, Control_c, 0, 64, 70
1, 454643, Control_c, 0, 64, 0
1, 454658, Note_on_c, 0, 50, 102
1, 454659, Note_on_c, 0, 66, 110
1, 454659, Note_on_c, 0, 74, 95
1, 454661, Note_on_c, 0, 38, 96
1, 454663, Note_on_c, 0, 69, 92
1, 454664, Note_on_c, 0, 78, 98
1, 454702, Control_c, 0, 64, 55
1, 454724, Control_c, 0, 64, 88
1, 454729, Note_off_c, 0, 66, 68
1, 454739, Control_c, 0, 64, 127
1, 454745, Note_off_c, 0, 69, 66
1, 454747, Note_off_c, 0, 50, 62
1, 454755, Note_off_c, 0, 38, 63
1, 454757, Note_off_c, 0, 74, 64
1, 454780, Note_off_c, 0, 78, 63
1, 454857, Note_on_c, 0, 81, 99
1, 454858, Note_on_c, 0, 69, 98
1, 454901, Note_off_c, 0, 81, 64
1, 454905, Note_off_c, 0, 69, 67
1, 454986, Note_on_c, 0, 69, 102
1, 454987, Note_on_c, 0, 81, 107
1, 455017, Note_off_c, 0, 69, 71
1, 455030, Note_off_c, 0, 81, 63
1, 455114, Note_on_c, 0, 81, 103
1, 455119, Note_on_c, 0, 93, 100
1, 455153, Note_off_c, 0, 81, 66
1, 455155, Note_off_c, 0, 93, 62
1, 455227, Note_on_c, 0, 69, 100
1, 455232, Note_on_c, 0, 57, 88
1, 455232, Note_on_c, 0, 81, 106
1, 455234, Note_on_c, 0, 93, 105
1, 455252, Note_off_c, 0, 57, 71
1, 455262, Note_off_c, 0, 69, 69
1, 455272, Note_off_c, 0, 93, 67
1, 455278, Note_off_c, 0, 81, 62
1, 455342, Note_on_c, 0, 94, 94
1, 455343, Note_on_c, 0, 82, 98
1, 455345, Note_on_c, 0, 87, 69
1, 455351, Note_on_c, 0, 86, 93
1, 455363, Note_off_c, 0, 87, 46
1, 455388, Note_off_c, 0, 94, 66
1, 455393, Note_off_c, 0, 82, 64
1, 455419, Note_off_c, 0, 86, 61
1, 455452, Note_on_c, 0, 74, 95
1, 455454, Note_on_c, 0, 86, 78
1, 455454, Note_on_c, 0, 62, 101
1, 455454, Note_on_c, 0, 66, 96
1, 455456, Note_on_c, 0, 94, 93
1, 455471, Note_on_c, 0, 82, 93
1, 455498, Note_off_c, 0, 74, 69
1, 455502, Note_off_c, 0, 62, 62
1, 455504, Note_off_c, 0, 66, 65
1, 455513, Note_off_c, 0, 82, 63
1, 455516, Note_off_c, 0, 94, 65
1, 455536, Note_off_c, 0, 86, 61
1, 455579, Note_on_c, 0, 81, 100
1, 455585, Note_on_c, 0, 86, 76
1, 455585, Note_on_c, 0, 93, 93
1, 455594, Note_on_c, 0, 92, 73
1, 455609, Note_off_c, 0, 92, 64
1, 455624, Note_off_c, 0, 93, 64
1, 455625, Note_off_c, 0, 81, 62
1, 455653, Note_off_c, 0, 86, 54
1, 455671, Note_on_c, 0, 66, 56
1, 455677, Note_on_c, 0, 74, 84
1, 455680, Note_on_c, 0, 62, 83
1, 455686, Note_on_c, 0, 86, 64
1, 455692, Note_on_c, 0, 93, 95
1, 455695, Note_on_c, 0, 81, 80
1, 455697, Note_off_c, 0, 74, 70
1, 455708, Note_off_c, 0, 81, 70
1, 455713, Note_off_c, 0, 93, 64
1, 455719, Note_off_c, 0, 66, 67
1, 455723, Note_off_c, 0, 62, 62
1, 455740, Note_off_c, 0, 86, 63
1, 455790, Note_on_c, 0, 81, 83
1, 455806, Note_on_c, 0, 93, 78
1, 455811, Note_on_c, 0, 86, 53
1, 455830, Note_off_c, 0, 81, 63
1, 455832, Note_off_c, 0, 86, 62
1, 455838, Note_on_c, 0, 61, 32
1, 455845, Note_off_c, 0, 93, 59
1, 455881, Note_off_c, 0, 61, 48
1, 455904, Note_on_c, 0, 69, 89
1, 455906, Note_on_c, 0, 57, 81
1, 455919, Note_on_c, 0, 105, 99
1, 455922, Note_on_c, 0, 93, 104
1, 455934, Note_off_c, 0, 57, 65
1, 455935, Note_off_c, 0, 105, 69
1, 455943, Note_off_c, 0, 69, 68
1, 455955, Note_off_c, 0, 93, 62
1, 456044, Note_on_c, 0, 81, 95
1, 456048, Note_on_c, 0, 93, 94
1, 456071, Note_on_c, 0, 85, 59
1, 456082, Note_off_c, 0, 81, 63
1, 456083, Note_off_c, 0, 93, 61
1, 456090, Note_off_c, 0, 85, 63
1, 456139, Note_on_c, 0, 74, 89
1, 456139, Note_on_c, 0, 62, 86
1, 456139, Note_on_c, 0, 66, 84
1, 456143, Note_on_c, 0, 86, 96
1, 456143, Note_on_c, 0, 94, 97
1, 456145, Note_on_c, 0, 82, 97
1, 456177, Note_off_c, 0, 74, 64
1, 456184, Note_off_c, 0, 62, 60
1, 456184, Note_off_c, 0, 66, 67
1, 456192, Note_off_c, 0, 82, 64
1, 456192, Note_off_c, 0, 94, 66
1, 456196, Note_off_c, 0, 86, 60
1, 456256, Note_on_c, 0, 81, 97
1, 456256, Note_on_c, 0, 93, 96
1, 456300, Note_off_c, 0, 93, 64
1, 456313, Note_on_c, 0, 86, 34
1, 456314, Note_off_c, 0, 81, 58
1, 456345, Note_off_c, 0, 86, 46
1, 456362, Note_on_c, 0, 74, 84
1, 456363, Note_on_c, 0, 62, 88
1, 456363, Note_on_c, 0, 66, 90
1, 456369, Note_on_c, 0, 86, 84
1, 456371, Note_on_c, 0, 82, 96
1, 456373, Note_on_c, 0, 94, 91
1, 456378, Note_off_c, 0, 74, 73
1, 456398, Note_off_c, 0, 82, 62
1, 456401, Note_off_c, 0, 66, 66
1, 456403, Note_off_c, 0, 62, 65
1, 456414, Note_off_c, 0, 94, 67
1, 456421, Note_off_c, 0, 86, 63
1, 456467, Note_on_c, 0, 81, 92
1, 456469, Note_on_c, 0, 93, 95
1, 456493, Note_off_c, 0, 81, 64
1, 456513, Note_off_c, 0, 93, 64
1, 456574, Note_on_c, 0, 69, 96
1, 456576, Note_on_c, 0, 57, 89
1, 456584, Note_on_c, 0, 105, 106
1, 456586, Note_on_c, 0, 93, 109
1, 456596, Note_off_c, 0, 57, 71
1, 456598, Note_on_c, 0, 103, 81
1, 456599, Note_off_c, 0, 105, 72
1, 456610, Note_off_c, 0, 69, 69
1, 456612, Note_off_c, 0, 103, 66
1, 456616, Note_off_c, 0, 93, 63
1, 456700, Note_on_c, 0, 81, 97
1, 456704, Note_on_c, 0, 93, 100
1, 456739, Note_off_c, 0, 93, 64
1, 456744, Note_off_c, 0, 81, 62
1, 456805, Note_on_c, 0, 74, 102
1, 456805, Note_on_c, 0, 86, 84
1, 456806, Note_on_c, 0, 82, 102
1, 456806, Note_on_c, 0, 94, 95
1, 456811, Note_on_c, 0, 64, 80
1, 456813, Note_on_c, 0, 67, 93
1, 456822, Note_on_c, 0, 62, 65
1, 456823, Note_off_c, 0, 62, 127
1, 456837, Note_on_c, 0, 66, 29
1, 456840, Note_off_c, 0, 64, 65
1, 456842, Note_off_c, 0, 74, 67
1, 456847, Note_on_c, 0, 92, 38
1, 456850, Note_off_c, 0, 67, 59
1, 456855, Note_off_c, 0, 82, 63
1, 456859, Note_off_c, 0, 94, 66
1, 456861, Note_off_c, 0, 66, 59
1, 456877, Note_off_c, 0, 92, 37
1, 456880, Note_off_c, 0, 86, 56
1, 456911, Poly_aftertouch_c, 0, 70, 0
1, 456914, Note_on_c, 0, 93, 98
1, 456916, Note_on_c, 0, 81, 97
1, 456932, Note_on_c, 0, 86, 65
1, 456947, Note_on_c, 0, 66, 57
1, 456950, Note_on_c, 0, 62, 34
1, 456968, Note_off_c, 0, 93, 64
1, 456973, Note_off_c, 0, 81, 63
1, 456980, Note_off_c, 0, 66, 57
1, 456982, Note_off_c, 0, 62, 55
1, 457000, Note_off_c, 0, 86, 63
1, 457029, Control_c, 0, 64, 115
1, 457038, Note_on_c, 0, 74, 88
1, 457039, Note_on_c, 0, 62, 100
1, 457039, Note_on_c, 0, 66, 100
1, 457042, Note_on_c, 0, 82, 101
1, 457044, Control_c, 0, 64, 95
1, 457045, Note_on_c, 0, 86, 81
1, 457045, Note_on_c, 0, 94, 95
1, 457059, Control_c, 0, 64, 91
1, 457069, Note_off_c, 0, 74, 71
1, 457074, Control_c, 0, 64, 100
1, 457078, Note_on_c, 0, 92, 46
1, 457079, Note_off_c, 0, 92, 127
1, 457083, Note_off_c, 0, 82, 66
1, 457087, Note_off_c, 0, 66, 69
1, 457088, Note_off_c, 0, 62, 63
1, 457089, Control_c, 0, 64, 127
1, 457094, Note_off_c, 0, 94, 66
1, 457108, Note_off_c, 0, 86, 60
1, 457156, Note_on_c, 0, 81, 90
1, 457156, Note_on_c, 0, 93, 95
1, 457189, Note_off_c, 0, 81, 64
1, 457204, Note_off_c, 0, 93, 64
1, 457284, Note_on_c, 0, 57, 92
1, 457284, Note_on_c, 0, 69, 93
1, 457291, Note_on_c, 0, 105, 111
1, 457292, Note_on_c, 0, 93, 113
1, 457304, Note_off_c, 0, 69, 72
1, 457315, Note_off_c, 0, 57, 66
1, 457317, Note_off_c, 0, 105, 64
1, 457319, Note_off_c, 0, 93, 68
1, 457448, Note_on_c, 0, 81, 106
1, 457448, Note_on_c, 0, 93, 103
1, 457460, Note_off_c, 0, 93, 74
1, 457463, Note_off_c, 0, 81, 68
1, 457642, Note_on_c, 0, 81, 104
1, 457646, Note_on_c, 0, 69, 107
1, 457647, Note_on_c, 0, 78, 101
1, 457648, Note_on_c, 0, 66, 110
1, 457648, Note_on_c, 0, 74, 90
1, 457649, Note_on_c, 0, 62, 103
1, 457651, Note_on_c, 0, 54, 96
1, 457652, Control_c, 0, 64, 103
1, 457666, Control_c, 0, 64, 74
1, 457681, Control_c, 0, 64, 50
1, 457696, Control_c, 0, 64, 67
1, 457712, Note_off_c, 0, 66, 70
1, 457718, Control_c, 0, 64, 86
1, 457733, Control_c, 0, 64, 127
1, 457745, Note_off_c, 0, 81, 57
1, 457755, Note_off_c, 0, 62, 63
1, 457764, Note_off_c, 0, 54, 56
1, 457767, Note_off_c, 0, 69, 59
1, 457809, Poly_aftertouch_c, 0, 59, 0
1, 457813, Note_off_c, 0, 74, 61
1, 457822, Note_off_c, 0, 78, 65
1, 457862, Note_on_c, 0, 82, 97
1, 457864, Note_on_c, 0, 70, 97
1, 457877, Note_on_c, 0, 75, 73
1, 457901, Note_off_c, 0, 75, 71
1, 457925, Poly_aftertouch_c, 0, 46, 0
1, 457928, Note_off_c, 0, 70, 65
1, 457929, Note_on_c, 0, 46, 37
1, 457943, Note_off_c, 0, 82, 62
1, 457967, Note_off_c, 0, 46, 50
1, 458020, Note_on_c, 0, 78, 100
1, 458021, Note_on_c, 0, 69, 105
1, 458022, Note_on_c, 0, 50, 102
1, 458023, Note_on_c, 0, 74, 90
1, 458026, Note_on_c, 0, 38, 97
1, 458026, Note_on_c, 0, 81, 86
1, 458040, Note_on_c, 0, 83, 63
1, 458041, Note_off_c, 0, 83, 127
1, 458054, Note_off_c, 0, 50, 68
1, 458064, Note_off_c, 0, 38, 63
1, 458076, Note_off_c, 0, 81, 61
1, 458077, Note_off_c, 0, 69, 58
1, 458094, Note_off_c, 0, 74, 61
1, 458121, Note_off_c, 0, 78, 66
1, 458161, Note_on_c, 0, 70, 108
1, 458165, Note_on_c, 0, 82, 97
1, 458230, Note_off_c, 0, 70, 60
1, 458241, Note_off_c, 0, 82, 65
1, 458297, Control_c, 0, 64, 109
1, 458301, Note_on_c, 0, 69, 98
1, 458301, Note_on_c, 0, 78, 99
1, 458302, Note_on_c, 0, 45, 107
1, 458302, Note_on_c, 0, 73, 99
1, 458303, Note_on_c, 0, 81, 97
1, 458304, Note_on_c, 0, 33, 98
1, 458312, Control_c, 0, 64, 97
1, 458327, Control_c, 0, 64, 94
1, 458333, Note_off_c, 0, 33, 69
1, 458341, Note_off_c, 0, 45, 67
1, 458341, Control_c, 0, 64, 105
1, 458347, Note_off_c, 0, 81, 61
1, 458347, Note_off_c, 0, 69, 66
1, 458356, Control_c, 0, 64, 127
1, 458389, Note_off_c, 0, 73, 65
1, 458393, Note_off_c, 0, 78, 66
1, 458435, Note_on_c, 0, 70, 107
1, 458435, Note_on_c, 0, 82, 97
1, 458503, Note_off_c, 0, 70, 66
1, 458505, Note_off_c, 0, 82, 67
1, 458541, Control_c, 0, 64, 109
1, 458556, Control_c, 0, 64, 90
1, 458571, Control_c, 0, 64, 73
1, 458579, Note_on_c, 0, 78, 101
1, 458580, Note_on_c, 0, 69, 101
1, 458581, Note_on_c, 0, 81, 97
1, 458582, Note_on_c, 0, 51, 104
1, 458584, Note_on_c, 0, 74, 88
1, 458586, Note_on_c, 0, 39, 106
1, 458586, Control_c, 0, 64, 63
1, 458601, Control_c, 0, 64, 75
1, 458615, Control_c, 0, 64, 108
1, 458628, Note_off_c, 0, 81, 62
1, 458630, Control_c, 0, 64, 127
1, 458636, Note_off_c, 0, 69, 64
1, 458643, Note_off_c, 0, 51, 62
1, 458646, Note_off_c, 0, 39, 63
1, 458664, Note_off_c, 0, 74, 65
1, 458676, Note_off_c, 0, 78, 65
1, 458706, Poly_aftertouch_c, 0, 38, 0
1, 458709, Note_on_c, 0, 70, 106
1, 458711, Note_on_c, 0, 82, 94
1, 458773, Note_off_c, 0, 70, 66
1, 458777, Note_off_c, 0, 82, 65
1, 458811, Poly_aftertouch_c, 0, 80, 0
1, 458840, Note_on_c, 0, 78, 100
1, 458841, Note_on_c, 0, 51, 97
1, 458841, Note_on_c, 0, 69, 101
1, 458843, Note_on_c, 0, 81, 95
1, 458846, Note_on_c, 0, 74, 83
1, 458846, Note_on_c, 0, 39, 98
1, 458872, Note_off_c, 0, 51, 64
1, 458881, Note_off_c, 0, 39, 64
1, 458884, Note_off_c, 0, 81, 61
1, 458893, Note_off_c, 0, 69, 61
1, 458894, Note_off_c, 0, 74, 63
1, 458917, Note_off_c, 0, 78, 66
1, 458959, Note_on_c, 0, 70, 107
1, 458960, Note_on_c, 0, 82, 99
1, 459011, Note_off_c, 0, 70, 66
1, 459016, Note_on_c, 0, 80, 20
1, 459016, Note_off_c, 0, 82, 65
1, 459055, Note_off_c, 0, 80, 51
1, 459075, Note_on_c, 0, 69, 101
1, 459075, Note_on_c, 0, 78, 102
1, 459076, Note_on_c, 0, 45, 97
1, 459076, Control_c, 0, 64, 108
1, 459078, Note_on_c, 0, 73, 96
1, 459078, Note_on_c, 0, 81, 105
1, 459080, Note_on_c, 0, 33, 99
1, 459090, Control_c, 0, 64, 101
1, 459105, Control_c, 0, 64, 105
1, 459108, Note_off_c, 0, 33, 69
1, 459108, Note_off_c, 0, 81, 64
1, 459119, Note_off_c, 0, 69, 66
1, 459120, Note_off_c, 0, 45, 66
1, 459120, Control_c, 0, 64, 127
1, 459138, Note_off_c, 0, 73, 67
1, 459148, Note_off_c, 0, 78, 64
1, 459190, Note_on_c, 0, 70, 106
1, 459191, Note_on_c, 0, 82, 99
1, 459239, Note_off_c, 0, 70, 67
1, 459243, Note_off_c, 0, 82, 68
1, 459290, Control_c, 0, 64, 104
1, 459305, Control_c, 0, 64, 79
1, 459309, Note_on_c, 0, 69, 100
1, 459309, Note_on_c, 0, 81, 103
1, 459310, Note_on_c, 0, 78, 98
1, 459311, Note_on_c, 0, 50, 103
1, 459314, Note_on_c, 0, 38, 102
1, 459316, Note_on_c, 0, 74, 80
1, 459320, Control_c, 0, 64, 56
1, 459322, Poly_aftertouch_c, 0, 42, 0
1, 459335, Control_c, 0, 64, 48
1, 459343, Note_off_c, 0, 81, 63
1, 459350, Control_c, 0, 64, 86
1, 459352, Note_off_c, 0, 69, 66
1, 459356, Note_off_c, 0, 50, 66
1, 459360, Note_off_c, 0, 38, 64
1, 459365, Control_c, 0, 64, 127
1, 459369, Note_off_c, 0, 74, 66
1, 459385, Note_off_c, 0, 78, 63
1, 459424, Note_on_c, 0, 70, 102
1, 459426, Note_on_c, 0, 82, 99
1, 459466, Note_on_c, 0, 80, 39
1, 459467, Note_off_c, 0, 80, 127
1, 459473, Note_off_c, 0, 70, 66
1, 459475, Note_off_c, 0, 82, 67
1, 459530, Poly_aftertouch_c, 0, 42, 0
1, 459543, Note_on_c, 0, 69, 98
1, 459544, Note_on_c, 0, 78, 91
1, 459544, Note_on_c, 0, 81, 98
1, 459545, Note_on_c, 0, 50, 100
1, 459547, Note_on_c, 0, 74, 86
1, 459550, Note_on_c, 0, 38, 94
1, 459577, Note_off_c, 0, 81, 65
1, 459578, Note_off_c, 0, 50, 66
1, 459588, Note_off_c, 0, 69, 64
1, 459596, Note_off_c, 0, 38, 65
1, 459599, Note_off_c, 0, 74, 65
1, 459612, Note_off_c, 0, 78, 66
1, 459660, Note_on_c, 0, 70, 98
1, 459660, Note_on_c, 0, 82, 97
1, 459709, Note_off_c, 0, 70, 67
1, 459710, Note_off_c, 0, 82, 67
1, 459751, Control_c, 0, 64, 107
1, 459766, Control_c, 0, 64, 81
1, 459775, Note_on_c, 0, 45, 104
1, 459776, Note_on_c, 0, 69, 102
1, 459776, Note_on_c, 0, 78, 101
1, 459776, Note_on_c, 0, 33, 93
1, 459777, Note_on_c, 0, 81, 97
1, 459779, Note_on_c, 0, 73, 91
1, 459781, Control_c, 0, 64, 46
1, 459795, Control_c, 0, 64, 48
1, 459810, Control_c, 0, 64, 73
1, 459811, Note_off_c, 0, 81, 62
1, 459812, Note_off_c, 0, 33, 67
1, 459818, Note_off_c, 0, 69, 67
1, 459819, Note_off_c, 0, 45, 65
1, 459825, Control_c, 0, 64, 95
1, 459840, Control_c, 0, 64, 127
1, 459841, Note_off_c, 0, 73, 64
1, 459848, Note_off_c, 0, 78, 65
1, 459891, Note_on_c, 0, 70, 101
1, 459892, Note_on_c, 0, 82, 99
1, 459943, Note_off_c, 0, 70, 68
1, 459944, Note_off_c, 0, 82, 66
1, 459995, Control_c, 0, 64, 92
1, 460010, Control_c, 0, 64, 70
1, 460017, Note_on_c, 0, 69, 100
1, 460017, Note_on_c, 0, 81, 99
1, 460020, Note_on_c, 0, 78, 92
1, 460021, Note_on_c, 0, 74, 84
1, 460023, Note_on_c, 0, 51, 106
1, 460025, Control_c, 0, 64, 0
1, 460026, Note_on_c, 0, 39, 97
1, 460054, Control_c, 0, 64, 66
1, 460058, Note_off_c, 0, 81, 64
1, 460065, Note_off_c, 0, 69, 63
1, 460069, Control_c, 0, 64, 87
1, 460084, Note_off_c, 0, 39, 62
1, 460084, Control_c, 0, 64, 111
1, 460098, Note_off_c, 0, 74, 64
1, 460099, Control_c, 0, 64, 127
1, 460110, Note_off_c, 0, 78, 64
1, 460115, Note_off_c, 0, 51, 57
1, 460144, Note_on_c, 0, 70, 97
1, 460144, Note_on_c, 0, 82, 92
1, 460199, Note_off_c, 0, 70, 67
1, 460208, Note_off_c, 0, 82, 64
1, 460272, Note_on_c, 0, 51, 108
1, 460274, Note_on_c, 0, 78, 96
1, 460275, Note_on_c, 0, 39, 103
1, 460276, Note_on_c, 0, 69, 103
1, 460277, Note_on_c, 0, 81, 99
1, 460280, Note_on_c, 0, 74, 82
1, 460298, Note_on_c, 0, 42, 62
1, 460299, Note_off_c, 0, 42, 127
1, 460307, Note_off_c, 0, 51, 66
1, 460316, Note_off_c, 0, 39, 65
1, 460318, Note_off_c, 0, 81, 59
1, 460332, Note_off_c, 0, 69, 59
1, 460339, Note_off_c, 0, 74, 61
1, 460357, Note_off_c, 0, 78, 66
1, 460403, Note_on_c, 0, 70, 100
1, 460403, Note_on_c, 0, 82, 100
1, 460433, Note_on_c, 0, 80, 57
1, 460453, Note_off_c, 0, 80, 64
1, 460470, Note_off_c, 0, 70, 61
1, 460474, Note_off_c, 0, 82, 65
1, 460531, Note_on_c, 0, 45, 108
1, 460535, Note_on_c, 0, 33, 101
1, 460536, Note_on_c, 0, 78, 98
1, 460537, Note_on_c, 0, 69, 102
1, 460537, Note_on_c, 0, 73, 93
1, 460538, Note_on_c, 0, 81, 101
1, 460550, Note_on_c, 0, 35, 68
1, 460557, Note_off_c, 0, 33, 74
1, 460569, Note_off_c, 0, 45, 67
1, 460573, Note_off_c, 0, 81, 65
1, 460575, Note_off_c, 0, 35, 59
1, 460583, Note_off_c, 0, 69, 63
1, 460602, Note_off_c, 0, 73, 65
1, 460623, Note_off_c, 0, 78, 64
1, 460667, Note_on_c, 0, 70, 104
1, 460670, Note_on_c, 0, 82, 103
1, 460750, Note_off_c, 0, 70, 63
1, 460760, Note_off_c, 0, 82, 64
1, 460818, Control_c, 0, 64, 103
1, 460833, Control_c, 0, 64, 68
1, 460842, Poly_aftertouch_c, 0, 42, 0
1, 460848, Control_c, 0, 64, 0
1, 460861, Note_on_c, 0, 81, 108
1, 460861, Note_on_c, 0, 50, 113
1, 460861, Note_on_c, 0, 69, 109
1, 460862, Note_on_c, 0, 78, 101
1, 460864, Note_on_c, 0, 38, 97
1, 460864, Note_on_c, 0, 74, 94
1, 460892, Control_c, 0, 64, 49
1, 460907, Control_c, 0, 64, 87
1, 460922, Control_c, 0, 64, 127
1, 460928, Note_off_c, 0, 50, 58
1, 460976, Note_off_c, 0, 69, 52
1, 460977, Note_off_c, 0, 38, 64
1, 461005, Note_off_c, 0, 81, 0
1, 461042, Poly_aftertouch_c, 0, 81, 127
1, 461075, Poly_aftertouch_c, 0, 81, 0
1, 461144, Poly_aftertouch_c, 0, 69, 127
1, 461186, Note_off_c, 0, 74, 44
1, 461187, Poly_aftertouch_c, 0, 30, 127
1, 461208, Note_off_c, 0, 78, 56
1, 461219, Poly_aftertouch_c, 0, 30, 0
1, 461225, Note_on_c, 0, 26, 112
1, 461260, Poly_aftertouch_c, 0, 69, 0
1, 461268, Note_on_c, 0, 28, 50
1, 461269, Note_off_c, 0, 28, 127
1, 461274, Note_off_c, 0, 26, 65
1, 461305, Poly_aftertouch_c, 0, 28, 0
1, 461687, Note_on_c, 0, 57, 96
1, 461688, Note_on_c, 0, 45, 101
1, 461690, Note_on_c, 0, 21, 98
1, 461691, Note_on_c, 0, 33, 96
1, 461826, Note_off_c, 0, 33, 66
1, 461835, Note_off_c, 0, 45, 64
1, 461864, Note_off_c, 0, 21, 59
1, 461893, Note_off_c, 0, 57, 55
1, 462235, Note_on_c, 0, 50, 101
1, 462236, Note_on_c, 0, 62, 99
1, 462238, Note_on_c, 0, 38, 104
1, 462240, Note_on_c, 0, 26, 99
1, 462448, Note_off_c, 0, 38, 63
1, 462469, Note_off_c, 0, 26, 60
1, 462735, Note_off_c, 0, 62, 50
1, 462736, Note_off_c, 0, 50, 48
1, 462858, Note_on_c, 0, 62, 97
1, 462860, Note_on_c, 0, 50, 100
1, 462861, Note_on_c, 0, 38, 106
1, 462862, Note_on_c, 0, 26, 93
1, 463006, Note_off_c, 0, 62, 60
1, 463011, Note_off_c, 0, 38, 63
1, 463043, Note_off_c, 0, 50, 61
1, 463045, Note_off_c, 0, 26, 62
1, 463575, Note_on_c, 0, 57, 97
1, 463576, Note_on_c, 0, 45, 102
1, 463580, Note_on_c, 0, 33, 102
1, 463583, Note_on_c, 0, 21, 98
1, 463775, Note_off_c, 0, 21, 59
1, 463781, Note_off_c, 0, 33, 61
1, 463782, Note_off_c, 0, 45, 62
1, 463814, Note_off_c, 0, 57, 59
1, 464587, Note_on_c, 0, 38, 105
1, 464587, Note_on_c, 0, 50, 107
1, 464587, Note_on_c, 0, 62, 104
1, 464590, Note_on_c, 0, 26, 96
1, 468631, Control_c, 0, 64, 125
1, 468644, Note_off_c, 0, 38, 44
1, 468646, Control_c, 0, 64, 120
1, 468661, Control_c, 0, 64, 116
1, 468662, Note_off_c, 0, 26, 36
1, 468675, Control_c, 0, 64, 113
1, 468690, Control_c, 0, 64, 112
1, 468705, Control_c, 0, 64, 111
1, 468720, Control_c, 0, 64, 110
1, 468722, Note_off_c, 0, 50, 42
1, 468735, Control_c, 0, 64, 109
1, 468749, Control_c, 0, 64, 108
1, 468758, Note_off_c, 0, 62, 38
1, 468764, Control_c, 0, 64, 107
1, 468779, Control_c, 0, 64, 106
1, 468793, Control_c, 0, 64, 105
1, 468808, Control_c, 0, 64, 104
1, 468823, Control_c, 0, 64, 103
1, 468838, Control_c, 0, 64, 103
1, 468853, Control_c, 0, 64, 102
1, 468883, Control_c, 0, 64, 102
1, 468898, Control_c, 0, 64, 101
1, 468912, Control_c, 0, 64, 100
1, 468927, Control_c, 0, 64, 99
1, 468949, Control_c, 0, 64, 99
1, 468964, Control_c, 0, 64, 98
1, 468979, Control_c, 0, 64, 97
1, 468994, Control_c, 0, 64, 96
1, 469008, Control_c, 0, 64, 95
1, 469023, Control_c, 0, 64, 94
1, 469038, Control_c, 0, 64, 93
1, 469053, Control_c, 0, 64, 92
1, 469068, Control_c, 0, 64, 91
1, 469082, Control_c, 0, 64, 91
1, 469097, Control_c, 0, 64, 90
1, 469112, Control_c, 0, 64, 89
1, 469127, Control_c, 0, 64, 88
1, 469142, Control_c, 0, 64, 88
1, 469157, Control_c, 0, 64, 87
1, 469172, Control_c, 0, 64, 86
1, 469188, Control_c, 0, 64, 85
1, 469203, Control_c, 0, 64, 85
1, 469218, Control_c, 0, 64, 84
1, 469233, Control_c, 0, 64, 83
1, 469247, Control_c, 0, 64, 83
1, 469262, Control_c, 0, 64, 82
1, 469277, Control_c, 0, 64, 81
1, 469292, Control_c, 0, 64, 80
1, 469306, Control_c, 0, 64, 79
1, 469321, Control_c, 0, 64, 78
1, 469336, Control_c, 0, 64, 77
1, 469351, Control_c, 0, 64, 76
1, 469366, Control_c, 0, 64, 75
1, 469380, Control_c, 0, 64, 75
1, 469395, Control_c, 0, 64, 74
1, 469410, Control_c, 0, 64, 73
1, 469425, Control_c, 0, 64, 73
1, 469440, Control_c, 0, 64, 72
1, 469455, Control_c, 0, 64, 71
1, 469470, Control_c, 0, 64, 71
1, 469485, Control_c, 0, 64, 70
1, 469499, Control_c, 0, 64, 70
1, 469514, Control_c, 0, 64, 69
1, 469529, Control_c, 0, 64, 68
1, 469544, Control_c, 0, 64, 67
1, 469559, Control_c, 0, 64, 67
1, 469573, Control_c, 0, 64, 66
1, 469603, Control_c, 0, 64, 65
1, 469617, Control_c, 0, 64, 65
1, 469632, Control_c, 0, 64, 64
1, 469647, Control_c, 0, 64, 64
1, 469677, Control_c, 0, 64, 63
1, 469699, Control_c, 0, 64, 63
1, 469714, Control_c, 0, 64, 62
1, 469729, Control_c, 0, 64, 62
1, 469744, Control_c, 0, 64, 61
1, 469759, Control_c, 0, 64, 61
1, 469773, Control_c, 0, 64, 60
1, 469788, Control_c, 0, 64, 59
1, 469803, Control_c, 0, 64, 58
1, 469818, Control_c, 0, 64, 57
1, 469832, Control_c, 0, 64, 56
1, 469847, Control_c, 0, 64, 56
1, 469862, Control_c, 0, 64, 54
1, 469877, Control_c, 0, 64, 53
1, 469892, Control_c, 0, 64, 52
1, 469906, Control_c, 0, 64, 51
1, 469921, Control_c, 0, 64, 50
1, 469936, Control_c, 0, 64, 50
1, 469951, Control_c, 0, 64, 49
1, 469966, Control_c, 0, 64, 48
1, 469982, Control_c, 0, 64, 47
1, 469996, Control_c, 0, 64, 47
1, 470011, Control_c, 0, 64, 46
1, 470026, Control_c, 0, 64, 45
1, 470041, Control_c, 0, 64, 44
1, 470055, Control_c, 0, 64, 43
1, 470070, Control_c, 0, 64, 42
1, 470085, Control_c, 0, 64, 41
1, 470100, Control_c, 0, 64, 41
1, 470115, Control_c, 0, 64, 40
1, 470144, Control_c, 0, 64, 39
1, 470159, Control_c, 0, 64, 38
1, 470174, Control_c, 0, 64, 38
1, 470189, Control_c, 0, 64, 37
1, 470263, Control_c, 0, 64, 36
1, 470293, Control_c, 0, 64, 36
1, 470352, Control_c, 0, 64, 35
1, 470448, Control_c, 0, 64, 34
1, 470492, Control_c, 0, 64, 34
1, 470537, Control_c, 0, 64, 33
1, 470581, Control_c, 0, 64, 32
1, 470596, Control_c, 0, 64, 31
1, 470626, Control_c, 0, 64, 30
1, 470655, Control_c, 0, 64, 29
1, 470670, Control_c, 0, 64, 28
1, 470685, Control_c, 0, 64, 27
1, 470759, Control_c, 0, 64, 26
1, 471804, Control_c, 0, 64, 25
1, 471878, Control_c, 0, 64, 24
1, 472842, Control_c, 0, 64, 25
1, 472902, Control_c, 0, 64, 26
1, 472931, Control_c, 0, 64, 27
1, 472990, Control_c, 0, 64, 28
1, 473020, Control_c, 0, 64, 29
1, 473110, Control_c, 0, 64, 30
1, 473169, Control_c, 0, 64, 31
1, 473362, Control_c, 0, 64, 32
1, 473421, Control_c, 0, 64, 33
1, 473473, Control_c, 0, 64, 34
1, 473503, Control_c, 0, 64, 34
1, 473533, Control_c, 0, 64, 35
1, 473577, Control_c, 0, 64, 36
1, 473651, Control_c, 0, 64, 36
1, 473665, Control_c, 0, 64, 37
1, 473695, Control_c, 0, 64, 38
1, 473739, Control_c, 0, 64, 38
1, 473754, Control_c, 0, 64, 39
1, 473902, Control_c, 0, 64, 39
1, 473977, Control_c, 0, 64, 41
1, 473992, Control_c, 0, 64, 43
1, 474007, Control_c, 0, 64, 44
1, 474022, Control_c, 0, 64, 45
1, 474037, Control_c, 0, 64, 46
1, 474051, Control_c, 0, 64, 46
1, 474066, Control_c, 0, 64, 47
1, 474081, Control_c, 0, 64, 48
1, 474096, Control_c, 0, 64, 49
1, 474111, Control_c, 0, 64, 50
1, 474126, Control_c, 0, 64, 49
1, 474170, Control_c, 0, 64, 50
1, 474192, Control_c, 0, 64, 52
1, 474207, Control_c, 0, 64, 53
1, 474221, Control_c, 0, 64, 54
1, 474251, Control_c, 0, 64, 54
1, 474281, Control_c, 0, 64, 55
1, 474296, Control_c, 0, 64, 56
1, 474311, Control_c, 0, 64, 57
1, 474326, Control_c, 0, 64, 57
1, 474356, Control_c, 0, 64, 58
1, 474370, Control_c, 0, 64, 58
1, 474385, Control_c, 0, 64, 59
1, 474400, Control_c, 0, 64, 60
1, 474414, Control_c, 0, 64, 61
1, 474429, Control_c, 0, 64, 62
1, 474444, Control_c, 0, 64, 62
1, 474459, Control_c, 0, 64, 63
1, 474474, Control_c, 0, 64, 63
1, 474488, Control_c, 0, 64, 64
1, 474503, Control_c, 0, 64, 64
1, 474518, Control_c, 0, 64, 65
1, 474592, Control_c, 0, 64, 66
1, 474621, Control_c, 0, 64, 65
1, 474755, Control_c, 0, 64, 65
1, 474785, Control_c, 0, 64, 64
1, 474830, Control_c, 0, 64, 64
1, 474844, Control_c, 0, 64, 63
1, 474859, Control_c, 0, 64, 62
1, 474874, Control_c, 0, 64, 61
1, 474956, Control_c, 0, 64, 61
1, 474971, Control_c, 0, 64, 60
1, 475044, Control_c, 0, 64, 61
1, 475104, Control_c, 0, 64, 60
1, 475268, Control_c, 0, 64, 59
1, 475283, Control_c, 0, 64, 58
1, 475401, Control_c, 0, 64, 58
1, 475986, Control_c, 0, 64, 58
1, 476016, Control_c, 0, 64, 57
1, 476208, Control_c, 0, 64, 58
1, 476572, Control_c, 0, 64, 57
1, 476661, Control_c, 0, 64, 57
1, 477075, Control_c, 0, 64, 56
1, 477120, Control_c, 0, 64, 56
1, 477166, Control_c, 0, 64, 55
1, 477187, Control_c, 0, 64, 55
1, 477351, Control_c, 0, 64, 54
1, 477425, Control_c, 0, 64, 54
1, 478025, Control_c, 0, 64, 53
1, 478070, Control_c, 0, 64, 53
1, 478174, Control_c, 0, 64, 53
1, 478203, Control_c, 0, 64, 54
1, 478322, Control_c, 0, 64, 53
1, 478848, Control_c, 0, 64, 53
1, 479101, Control_c, 0, 64, 52
1, 479278, Control_c, 0, 64, 52
1, 479657, Control_c, 0, 64, 52
1, 479790, Control_c, 0, 64, 53
1, 479864, Control_c, 0, 64, 53
1, 479894, Control_c, 0, 64, 54
1, 479938, Control_c, 0, 64, 54
1, 479967, Control_c, 0, 64, 55
1, 479982, Control_c, 0, 64, 55
1, 479997, Control_c, 0, 64, 56
1, 480026, Control_c, 0, 64, 56
1, 480056, Control_c, 0, 64, 57
1, 480071, Control_c, 0, 64, 57
1, 480086, Control_c, 0, 64, 58
1, 480145, Control_c, 0, 64, 58
1, 480212, Control_c, 0, 64, 59
1, 480271, Control_c, 0, 64, 59
1, 480376, Control_c, 0, 64, 59
1, 480419, Control_c, 0, 64, 58
1, 480582, Control_c, 0, 64, 58
1, 480627, Control_c, 0, 64, 57
1, 481227, Control_c, 0, 64, 58
1, 481361, Control_c, 0, 64, 57
1, 481553, Control_c, 0, 64, 58
1, 481597, Control_c, 0, 64, 58
1, 481679, Control_c, 0, 64, 59
1, 481857, Control_c, 0, 64, 59
1, 481991, Control_c, 0, 64, 59
1, 482080, Control_c, 0, 64, 58
1, 482391, Control_c, 0, 64, 59
1, 482770, Control_c, 0, 64, 58
1, 482903, Control_c, 0, 64, 59
1, 483155, Control_c, 0, 64, 58
1, 483236, Control_c, 0, 64, 59
1, 483355, Control_c, 0, 64, 59
1, 483637, Control_c, 0, 64, 60
1, 483696, Control_c, 0, 64, 60
1, 483903, Control_c, 0, 64, 60
1, 483985, Control_c, 0, 64, 59
1, 484059, Control_c, 0, 64, 59
1, 484281, Control_c, 0, 64, 58
1, 484401, Control_c, 0, 64, 58
1, 484445, Control_c, 0, 64, 57
1, 484475, Control_c, 0, 64, 57
1, 484519, Control_c, 0, 64, 56
1, 484549, Control_c, 0, 64, 56
1, 484622, Control_c, 0, 64, 55
1, 484637, Control_c, 0, 64, 55
1, 484652, Control_c, 0, 64, 54
1, 484675, Control_c, 0, 64, 53
1, 484690, Control_c, 0, 64, 51
1, 484704, Control_c, 0, 64, 50
1, 484719, Control_c, 0, 64, 48
1, 484734, Control_c, 0, 64, 45
1, 484748, Control_c, 0, 64, 42
1, 484763, Control_c, 0, 64, 36
1, 484778, Control_c, 0, 64, 32
1, 484793, Control_c, 0, 64, 29
1, 484808, Control_c, 0, 64, 26
1, 484822, Control_c, 0, 64, 23
1, 484837, Control_c, 0, 64, 13
1, 484852, Control_c, 0, 64, 0
1, 484852, End_track
0, 0, End_of_file
