0, 0, Header, 0, 1, 384
1, 0, Start_track
1, 0, Title_t, "Sonata Op. 57--Frank Duepree       "
1, 0, Text_t, "2008 e-Piano Junior Competition virtual audition round"
1, 0, Text_t, "recorded January and February 2008"
1, 0, Text_t, "http://www.piano-e-competition.com/"
1, 0, Text_t, "File processed for distribution by software from Zenph Studios, Inc., http://www.zenph.com"
1, 0, Instrument_name_t, "Yamaha Disklavier Pro Mark IV concert grand piano, model DCFIIISM4PRO"
1, 0, Sequencer_specific, 39, 67, 113, 0, 1, 0, 1, 0, 83, 111, 110, 97, 116, 97, 32, 79, 112, 46, 32, 53, 55, 32, 32, 32, 70, 114, 97, 110, 107, 32, 68, 117, 101, 112, 114, 101, 101, 32, 32, 32
1, 0, Sequencer_specific, 6, 67, 113, 0, 0, 0, 69
1, 0, System_exclusive, 21, 67, 113, 126, 21, 0, 2, 2, 1, 7, 11, 14, 4, 7, 9, 11, 4, 4, 1, 7, 0, 247
1, 0, Sequencer_specific, 5, 67, 123, 12, 2, 1
1, 0, Tempo, 512820
1, 0, Time_signature, 4, 2, 24, 8
1, 0, System_exclusive, 5, 126, 127, 9, 1, 247
1, 1, System_exclusive, 8, 67, 16, 76, 0, 0, 126, 0, 247
1, 2, System_exclusive, 8, 67, 16, 76, 8, 9, 7, 1, 247
1, 3, Control_c, 0, 0, 0
1, 3, Control_c, 1, 0, 0
1, 3, Control_c, 2, 0, 0
1, 3, Control_c, 3, 0, 0
1, 3, Control_c, 4, 0, 0
1, 3, Control_c, 5, 0, 0
1, 3, Control_c, 6, 0, 0
1, 3, Control_c, 7, 0, 0
1, 3, Control_c, 8, 0, 0
1, 3, Control_c, 9, 0, 127
1, 3, Control_c, 10, 0, 0
1, 3, Control_c, 11, 0, 0
1, 3, Control_c, 12, 0, 0
1, 3, Control_c, 13, 0, 0
1, 3, Control_c, 14, 0, 0
1, 3, Control_c, 15, 0, 0
1, 4, Control_c, 0, 32, 0
1, 4, Control_c, 1, 32, 0
1, 4, Control_c, 2, 32, 0
1, 4, Control_c, 3, 32, 0
1, 4, Control_c, 4, 32, 0
1, 4, Control_c, 5, 32, 0
1, 4, Control_c, 6, 32, 0
1, 4, Control_c, 7, 32, 0
1, 4, Control_c, 8, 32, 0
1, 4, Control_c, 9, 32, 0
1, 4, Control_c, 10, 32, 0
1, 4, Control_c, 11, 32, 0
1, 4, Control_c, 12, 32, 0
1, 4, Control_c, 13, 32, 0
1, 4, Control_c, 14, 32, 0
1, 4, Control_c, 15, 32, 0
1, 5, Program_c, 0, 0
1, 5, Program_c, 1, 0
1, 5, Program_c, 2, 0
1, 5, Program_c, 3, 0
1, 5, Program_c, 4, 0
1, 5, Program_c, 5, 0
1, 5, Program_c, 6, 0
1, 5, Program_c, 7, 0
1, 5, Program_c, 8, 0
1, 5, Program_c, 9, 0
1, 5, Program_c, 10, 0
1, 5, Program_c, 11, 0
1, 5, Program_c, 12, 0
1, 5, Program_c, 13, 0
1, 5, Program_c, 14, 0
1, 5, Program_c, 15, 0
1, 6, Control_c, 0, 7, 100
1, 117, Control_c, 0, 64, 13
1, 229, Control_c, 0, 64, 26
1, 341, Control_c, 0, 64, 39
1, 452, Control_c, 0, 64, 52
1, 564, Control_c, 0, 64, 65
1, 676, Control_c, 0, 64, 78
1, 787, Control_c, 0, 64, 91
1, 899, Control_c, 0, 64, 104
1, 899, Control_c, 1, 7, 100
1, 899, Control_c, 2, 7, 100
1, 899, Control_c, 3, 7, 100
1, 899, Control_c, 4, 7, 100
1, 899, Control_c, 5, 7, 100
1, 899, Control_c, 6, 7, 100
1, 899, Control_c, 7, 7, 100
1, 899, Control_c, 8, 7, 100
1, 899, Control_c, 9, 7, 100
1, 899, Control_c, 10, 7, 100
1, 899, Control_c, 11, 7, 100
1, 899, Control_c, 12, 7, 100
1, 899, Control_c, 13, 7, 100
1, 899, Control_c, 14, 7, 100
1, 899, Control_c, 15, 7, 100
1, 1133, Note_on_c, 0, 36, 28
1, 1152, Note_on_c, 0, 60, 34
1, 1533, Note_on_c, 0, 32, 37
1, 1549, Note_on_c, 0, 56, 38
1, 1579, Control_c, 0, 64, 102
1, 1594, Control_c, 0, 64, 99
1, 1609, Control_c, 0, 64, 96
1, 1623, Control_c, 0, 64, 92
1, 1638, Control_c, 0, 64, 89
1, 1642, Note_off_c, 0, 60, 31
1, 1653, Control_c, 0, 64, 85
1, 1675, Control_c, 0, 64, 81
1, 1690, Control_c, 0, 64, 76
1, 1705, Control_c, 0, 64, 73
1, 1717, Note_on_c, 0, 53, 34
1, 1720, Note_on_c, 0, 29, 32
1, 1720, Control_c, 0, 64, 71
1, 1735, Control_c, 0, 64, 70
1, 1749, Control_c, 0, 64, 69
1, 1764, Control_c, 0, 64, 67
1, 1779, Control_c, 0, 64, 65
1, 1794, Control_c, 0, 64, 64
1, 1801, Note_off_c, 0, 32, 38
1, 1808, Control_c, 0, 64, 63
1, 1823, Control_c, 0, 64, 59
1, 1838, Control_c, 0, 64, 13
1, 1844, Note_off_c, 0, 56, 39
1, 1853, Control_c, 0, 64, 0
1, 1877, Note_off_c, 0, 36, 36
1, 2403, Control_c, 0, 64, 57
1, 2425, Control_c, 0, 64, 63
1, 2440, Control_c, 0, 64, 64
1, 2455, Control_c, 0, 64, 64
1, 2470, Control_c, 0, 64, 65
1, 2485, Control_c, 0, 64, 66
1, 2499, Control_c, 0, 64, 67
1, 2514, Control_c, 0, 64, 68
1, 2529, Control_c, 0, 64, 68
1, 2544, Control_c, 0, 64, 69
1, 2558, Control_c, 0, 64, 70
1, 2573, Control_c, 0, 64, 70
1, 2588, Control_c, 0, 64, 72
1, 2603, Control_c, 0, 64, 73
1, 2618, Control_c, 0, 64, 75
1, 2632, Control_c, 0, 64, 76
1, 2647, Control_c, 0, 64, 77
1, 2662, Control_c, 0, 64, 78
1, 2677, Control_c, 0, 64, 79
1, 2692, Control_c, 0, 64, 80
1, 2706, Control_c, 0, 64, 81
1, 2721, Control_c, 0, 64, 81
1, 2736, Control_c, 0, 64, 82
1, 2765, Control_c, 0, 64, 82
1, 2795, Control_c, 0, 64, 83
1, 2855, Control_c, 0, 64, 83
1, 2884, Control_c, 0, 64, 84
1, 3128, Note_on_c, 0, 56, 36
1, 3130, Note_on_c, 0, 32, 19
1, 3366, Control_c, 0, 64, 83
1, 3441, Control_c, 0, 64, 83
1, 3455, Note_on_c, 0, 36, 38
1, 3455, Control_c, 0, 64, 82
1, 3470, Note_on_c, 0, 60, 44
1, 3470, Control_c, 0, 64, 81
1, 3485, Control_c, 0, 64, 79
1, 3500, Control_c, 0, 64, 76
1, 3515, Control_c, 0, 64, 73
1, 3527, Note_off_c, 0, 53, 48
1, 3529, Control_c, 0, 64, 70
1, 3543, Control_c, 0, 64, 67
1, 3549, Note_off_c, 0, 29, 31
1, 3558, Control_c, 0, 64, 64
1, 3572, Control_c, 0, 64, 60
1, 3579, Note_on_c, 0, 41, 44
1, 3587, Control_c, 0, 64, 13
1, 3592, Note_on_c, 0, 65, 53
1, 3602, Control_c, 0, 64, 0
1, 3605, Note_off_c, 0, 56, 57
1, 3634, Note_off_c, 0, 32, 41
1, 3636, Note_off_c, 0, 60, 57
1, 3654, Note_off_c, 0, 36, 60
1, 4057, Note_on_c, 0, 68, 49
1, 4058, Note_on_c, 0, 44, 32
1, 4141, Note_off_c, 0, 41, 62
1, 4171, Note_off_c, 0, 65, 58
1, 4405, Note_on_c, 0, 72, 49
1, 4439, Note_on_c, 0, 48, 20
1, 4472, Note_off_c, 0, 44, 36
1, 4613, Note_on_c, 0, 77, 53
1, 4619, Note_on_c, 0, 53, 27
1, 4699, Note_off_c, 0, 48, 49
1, 4706, Note_off_c, 0, 68, 60
1, 4708, Note_off_c, 0, 72, 59
1, 4907, Control_c, 0, 64, 44
1, 4922, Control_c, 0, 64, 60
1, 4936, Control_c, 0, 64, 64
1, 4951, Control_c, 0, 64, 64
1, 4966, Control_c, 0, 64, 65
1, 4981, Control_c, 0, 64, 66
1, 4996, Control_c, 0, 64, 67
1, 5010, Control_c, 0, 64, 67
1, 5025, Control_c, 0, 64, 68
1, 5055, Control_c, 0, 64, 68
1, 5070, Control_c, 0, 64, 69
1, 5099, Control_c, 0, 64, 69
1, 5114, Control_c, 0, 64, 70
1, 5144, Control_c, 0, 64, 70
1, 5155, Note_on_c, 0, 65, 34
1, 5159, Control_c, 0, 64, 71
1, 5167, Note_on_c, 0, 56, 21
1, 5174, Control_c, 0, 64, 72
1, 5189, Control_c, 0, 64, 73
1, 5204, Control_c, 0, 64, 74
1, 5218, Control_c, 0, 64, 75
1, 5233, Control_c, 0, 64, 76
1, 5248, Control_c, 0, 64, 79
1, 5262, Control_c, 0, 64, 81
1, 5277, Control_c, 0, 64, 85
1, 5279, Note_off_c, 0, 77, 59
1, 5292, Control_c, 0, 64, 88
1, 5301, Note_off_c, 0, 53, 51
1, 5305, Note_off_c, 0, 65, 63
1, 5307, Control_c, 0, 64, 91
1, 5322, Control_c, 0, 64, 94
1, 5336, Control_c, 0, 64, 97
1, 5351, Control_c, 0, 64, 99
1, 5381, Control_c, 0, 64, 102
1, 5403, Note_off_c, 0, 56, 40
1, 5701, Control_c, 0, 64, 100
1, 5759, Control_c, 0, 64, 98
1, 5805, Control_c, 0, 64, 95
1, 5820, Control_c, 0, 64, 92
1, 5834, Control_c, 0, 64, 88
1, 5849, Control_c, 0, 64, 82
1, 5864, Control_c, 0, 64, 75
1, 5870, Note_on_c, 0, 72, 47
1, 5877, Note_on_c, 0, 60, 32
1, 5879, Control_c, 0, 64, 69
1, 5883, Note_on_c, 0, 52, 26
1, 5893, Control_c, 0, 64, 65
1, 5898, Note_on_c, 0, 55, 31
1, 5908, Control_c, 0, 64, 58
1, 5923, Control_c, 0, 64, 0
1, 6243, Control_c, 0, 64, 65
1, 6258, Control_c, 0, 64, 66
1, 6272, Control_c, 0, 64, 67
1, 6287, Control_c, 0, 64, 69
1, 6302, Control_c, 0, 64, 70
1, 6316, Control_c, 0, 64, 72
1, 6331, Control_c, 0, 64, 75
1, 6346, Control_c, 0, 64, 78
1, 6361, Control_c, 0, 64, 81
1, 6376, Control_c, 0, 64, 83
1, 6390, Control_c, 0, 64, 85
1, 6405, Control_c, 0, 64, 86
1, 6420, Control_c, 0, 64, 88
1, 6427, Note_off_c, 0, 52, 51
1, 6435, Control_c, 0, 64, 90
1, 6450, Control_c, 0, 64, 91
1, 6464, Control_c, 0, 64, 92
1, 6479, Control_c, 0, 64, 94
1, 6494, Control_c, 0, 64, 95
1, 6506, Note_off_c, 0, 60, 39
1, 6509, Control_c, 0, 64, 95
1, 6524, Control_c, 0, 64, 96
1, 6576, Note_off_c, 0, 55, 41
1, 6800, Note_on_c, 0, 74, 46
1, 6870, Note_off_c, 0, 72, 36
1, 6931, Control_c, 0, 64, 95
1, 6946, Control_c, 0, 64, 94
1, 6961, Control_c, 0, 64, 94
1, 6976, Control_c, 0, 64, 93
1, 7005, Control_c, 0, 64, 93
1, 7020, Control_c, 0, 64, 92
1, 7036, Control_c, 0, 64, 90
1, 7051, Control_c, 0, 64, 87
1, 7066, Control_c, 0, 64, 84
1, 7081, Control_c, 0, 64, 79
1, 7085, Note_on_c, 0, 72, 49
1, 7091, Note_on_c, 0, 59, 36
1, 7093, Note_off_c, 0, 74, 58
1, 7095, Control_c, 0, 64, 73
1, 7104, Note_on_c, 0, 56, 31
1, 7106, Note_on_c, 0, 53, 36
1, 7110, Control_c, 0, 64, 66
1, 7125, Control_c, 0, 64, 38
1, 7139, Control_c, 0, 64, 0
1, 7260, Note_on_c, 0, 74, 49
1, 7272, Note_off_c, 0, 72, 53
1, 7302, Control_c, 0, 64, 66
1, 7317, Control_c, 0, 64, 71
1, 7332, Control_c, 0, 64, 74
1, 7342, Note_off_c, 0, 74, 61
1, 7346, Control_c, 0, 64, 78
1, 7361, Control_c, 0, 64, 81
1, 7362, Note_on_c, 0, 76, 49
1, 7376, Control_c, 0, 64, 85
1, 7391, Control_c, 0, 64, 88
1, 7406, Note_off_c, 0, 76, 61
1, 7406, Control_c, 0, 64, 91
1, 7420, Control_c, 0, 64, 93
1, 7435, Control_c, 0, 64, 96
1, 7436, Note_on_c, 0, 74, 62
1, 7450, Control_c, 0, 64, 99
1, 7464, Control_c, 0, 64, 101
1, 7469, Note_off_c, 0, 74, 64
1, 7494, Control_c, 0, 64, 104
1, 7506, Note_on_c, 0, 76, 56
1, 7509, Control_c, 0, 64, 106
1, 7524, Control_c, 0, 64, 108
1, 7528, Note_off_c, 0, 76, 61
1, 7538, Control_c, 0, 64, 110
1, 7559, Note_on_c, 0, 74, 58
1, 7568, Control_c, 0, 64, 112
1, 7589, Note_off_c, 0, 74, 63
1, 7612, Control_c, 0, 64, 115
1, 7615, Note_on_c, 0, 76, 53
1, 7627, Control_c, 0, 64, 117
1, 7636, Note_off_c, 0, 76, 59
1, 7664, Control_c, 0, 64, 120
1, 7668, Note_on_c, 0, 74, 62
1, 7694, Control_c, 0, 64, 123
1, 7700, Note_off_c, 0, 74, 64
1, 7709, Control_c, 0, 64, 127
1, 7724, Note_on_c, 0, 76, 58
1, 7746, Note_off_c, 0, 76, 61
1, 7779, Note_on_c, 0, 74, 59
1, 7809, Note_off_c, 0, 74, 65
1, 7830, Note_on_c, 0, 76, 55
1, 7867, Note_off_c, 0, 76, 61
1, 7886, Note_on_c, 0, 74, 54
1, 7908, Note_off_c, 0, 74, 63
1, 7950, Note_on_c, 0, 76, 62
1, 7979, Note_off_c, 0, 53, 55
1, 7989, Note_on_c, 0, 74, 49
1, 8003, Note_off_c, 0, 76, 57
1, 8044, Note_off_c, 0, 74, 60
1, 8047, Note_off_c, 0, 59, 40
1, 8053, Note_off_c, 0, 56, 57
1, 8080, Control_c, 0, 64, 123
1, 8087, Note_on_c, 0, 72, 46
1, 8095, Control_c, 0, 64, 119
1, 8110, Control_c, 0, 64, 114
1, 8125, Control_c, 0, 64, 109
1, 8140, Control_c, 0, 64, 105
1, 8150, Note_off_c, 0, 72, 54
1, 8155, Control_c, 0, 64, 102
1, 8169, Control_c, 0, 64, 99
1, 8183, Note_on_c, 0, 76, 45
1, 8184, Control_c, 0, 64, 96
1, 8199, Control_c, 0, 64, 94
1, 8214, Control_c, 0, 64, 92
1, 8229, Control_c, 0, 64, 91
1, 8243, Control_c, 0, 64, 89
1, 8253, Note_off_c, 0, 76, 47
1, 8258, Control_c, 0, 64, 88
1, 8273, Control_c, 0, 64, 87
1, 8284, Note_on_c, 0, 74, 46
1, 8287, Control_c, 0, 64, 87
1, 8302, Control_c, 0, 64, 86
1, 8317, Control_c, 0, 64, 85
1, 8332, Control_c, 0, 64, 84
1, 8347, Control_c, 0, 64, 84
1, 8361, Control_c, 0, 64, 83
1, 8391, Control_c, 0, 64, 82
1, 8414, Control_c, 0, 64, 81
1, 8429, Control_c, 0, 64, 80
1, 8443, Control_c, 0, 64, 78
1, 8451, Note_off_c, 0, 74, 38
1, 8458, Control_c, 0, 64, 75
1, 8473, Control_c, 0, 64, 72
1, 8487, Note_on_c, 0, 72, 39
1, 8487, Control_c, 0, 64, 70
1, 8500, Note_on_c, 0, 60, 20
1, 8502, Control_c, 0, 64, 67
1, 8517, Note_on_c, 0, 52, 10
1, 8517, Control_c, 0, 64, 63
1, 8527, Note_on_c, 0, 55, 5
1, 8532, Control_c, 0, 64, 0
1, 8770, Control_c, 0, 64, 62
1, 8784, Control_c, 0, 64, 66
1, 8799, Control_c, 0, 64, 68
1, 8814, Control_c, 0, 64, 70
1, 8829, Control_c, 0, 64, 72
1, 8844, Control_c, 0, 64, 74
1, 8858, Control_c, 0, 64, 76
1, 8873, Control_c, 0, 64, 78
1, 8878, Note_off_c, 0, 72, 46
1, 8888, Control_c, 0, 64, 78
1, 8895, Note_off_c, 0, 60, 38
1, 8903, Control_c, 0, 64, 79
1, 8938, Note_off_c, 0, 52, 40
1, 8992, Control_c, 0, 64, 78
1, 8995, Note_off_c, 0, 55, 38
1, 9022, Control_c, 0, 64, 78
1, 9036, Control_c, 0, 64, 77
1, 9051, Control_c, 0, 64, 77
1, 9066, Control_c, 0, 64, 75
1, 9081, Control_c, 0, 64, 74
1, 9096, Control_c, 0, 64, 71
1, 9110, Control_c, 0, 64, 69
1, 9125, Control_c, 0, 64, 68
1, 9140, Control_c, 0, 64, 67
1, 9162, Control_c, 0, 64, 67
1, 9192, Control_c, 0, 64, 66
1, 9207, Control_c, 0, 64, 65
1, 9222, Control_c, 0, 64, 64
1, 9236, Control_c, 0, 64, 64
1, 9281, Control_c, 0, 64, 62
1, 9296, Control_c, 0, 64, 56
1, 9310, Control_c, 0, 64, 44
1, 9325, Control_c, 0, 64, 38
1, 9340, Control_c, 0, 64, 34
1, 9355, Control_c, 0, 64, 13
1, 9370, Control_c, 0, 64, 0
1, 10599, Note_on_c, 0, 37, 28
1, 10607, Note_on_c, 0, 61, 28
1, 10720, Control_c, 0, 64, 38
1, 10735, Control_c, 0, 64, 61
1, 10750, Control_c, 0, 64, 64
1, 10764, Control_c, 0, 64, 66
1, 10779, Control_c, 0, 64, 67
1, 10794, Control_c, 0, 64, 69
1, 10808, Control_c, 0, 64, 71
1, 10823, Control_c, 0, 64, 72
1, 10838, Control_c, 0, 64, 73
1, 10853, Control_c, 0, 64, 74
1, 10868, Control_c, 0, 64, 75
1, 10882, Control_c, 0, 64, 76
1, 10897, Control_c, 0, 64, 76
1, 11016, Note_on_c, 0, 58, 33
1, 11034, Note_on_c, 0, 34, 20
1, 11120, Control_c, 0, 64, 76
1, 11150, Control_c, 0, 64, 75
1, 11165, Control_c, 0, 64, 74
1, 11179, Control_c, 0, 64, 74
1, 11194, Control_c, 0, 64, 72
1, 11209, Control_c, 0, 64, 71
1, 11222, Note_off_c, 0, 61, 34
1, 11223, Control_c, 0, 64, 69
1, 11238, Control_c, 0, 64, 67
1, 11248, Note_on_c, 0, 54, 36
1, 11253, Control_c, 0, 64, 66
1, 11256, Note_on_c, 0, 30, 26
1, 11268, Control_c, 0, 64, 64
1, 11283, Control_c, 0, 64, 63
1, 11297, Control_c, 0, 64, 50
1, 11312, Control_c, 0, 64, 0
1, 11422, Note_off_c, 0, 58, 44
1, 11474, Note_off_c, 0, 34, 40
1, 11474, Note_off_c, 0, 37, 56
1, 11705, Control_c, 0, 64, 30
1, 11720, Control_c, 0, 64, 55
1, 11735, Control_c, 0, 64, 62
1, 11750, Control_c, 0, 64, 64
1, 11764, Control_c, 0, 64, 64
1, 11779, Control_c, 0, 64, 65
1, 11794, Control_c, 0, 64, 65
1, 11809, Control_c, 0, 64, 66
1, 11824, Control_c, 0, 64, 67
1, 11839, Control_c, 0, 64, 67
1, 11854, Control_c, 0, 64, 68
1, 11869, Control_c, 0, 64, 69
1, 11884, Control_c, 0, 64, 69
1, 11914, Control_c, 0, 64, 70
1, 11928, Control_c, 0, 64, 70
1, 11943, Control_c, 0, 64, 71
1, 11958, Control_c, 0, 64, 72
1, 11973, Control_c, 0, 64, 72
1, 11988, Control_c, 0, 64, 73
1, 12002, Control_c, 0, 64, 74
1, 12017, Control_c, 0, 64, 74
1, 12032, Control_c, 0, 64, 75
1, 12047, Control_c, 0, 64, 76
1, 12061, Control_c, 0, 64, 77
1, 12076, Control_c, 0, 64, 77
1, 12091, Control_c, 0, 64, 78
1, 12106, Control_c, 0, 64, 79
1, 12120, Control_c, 0, 64, 80
1, 12135, Control_c, 0, 64, 80
1, 12158, Control_c, 0, 64, 81
1, 12173, Control_c, 0, 64, 81
1, 12188, Control_c, 0, 64, 82
1, 12203, Control_c, 0, 64, 82
1, 12232, Control_c, 0, 64, 83
1, 12261, Control_c, 0, 64, 83
1, 12321, Control_c, 0, 64, 84
1, 12594, Note_on_c, 0, 58, 40
1, 12603, Note_on_c, 0, 34, 31
1, 12707, Control_c, 0, 64, 83
1, 12841, Control_c, 0, 64, 83
1, 12885, Control_c, 0, 64, 82
1, 12907, Control_c, 0, 64, 81
1, 12922, Control_c, 0, 64, 80
1, 12936, Note_on_c, 0, 61, 49
1, 12937, Control_c, 0, 64, 79
1, 12939, Note_on_c, 0, 37, 44
1, 12952, Control_c, 0, 64, 78
1, 12966, Control_c, 0, 64, 75
1, 12981, Note_off_c, 0, 54, 54
1, 12981, Control_c, 0, 64, 72
1, 12996, Control_c, 0, 64, 70
1, 13010, Control_c, 0, 64, 67
1, 13025, Control_c, 0, 64, 66
1, 13040, Control_c, 0, 64, 64
1, 13055, Note_on_c, 0, 42, 40
1, 13055, Control_c, 0, 64, 63
1, 13059, Note_on_c, 0, 66, 57
1, 13070, Control_c, 0, 64, 30
1, 13080, Note_off_c, 0, 58, 58
1, 13085, Control_c, 0, 64, 0
1, 13100, Note_off_c, 0, 61, 61
1, 13109, Note_off_c, 0, 30, 39
1, 13112, Note_off_c, 0, 34, 57
1, 13130, Note_off_c, 0, 37, 60
1, 13519, Note_on_c, 0, 70, 54
1, 13546, Note_on_c, 0, 46, 32
1, 13616, Note_off_c, 0, 42, 60
1, 13674, Note_off_c, 0, 66, 61
1, 13886, Note_on_c, 0, 73, 52
1, 13890, Note_on_c, 0, 49, 30
1, 14084, Note_on_c, 0, 78, 62
1, 14089, Note_on_c, 0, 54, 39
1, 14180, Note_off_c, 0, 46, 32
1, 14197, Note_off_c, 0, 49, 51
1, 14212, Note_off_c, 0, 70, 58
1, 14236, Note_off_c, 0, 73, 55
1, 14449, Control_c, 0, 64, 30
1, 14464, Control_c, 0, 64, 48
1, 14479, Control_c, 0, 64, 57
1, 14494, Control_c, 0, 64, 62
1, 14509, Control_c, 0, 64, 64
1, 14538, Control_c, 0, 64, 64
1, 14568, Control_c, 0, 64, 65
1, 14612, Control_c, 0, 64, 65
1, 14636, Note_on_c, 0, 66, 47
1, 14639, Note_on_c, 0, 58, 34
1, 14656, Control_c, 0, 64, 66
1, 14671, Control_c, 0, 64, 67
1, 14686, Control_c, 0, 64, 69
1, 14701, Control_c, 0, 64, 71
1, 14716, Control_c, 0, 64, 74
1, 14730, Control_c, 0, 64, 77
1, 14745, Control_c, 0, 64, 80
1, 14754, Note_off_c, 0, 78, 58
1, 14760, Control_c, 0, 64, 83
1, 14773, Note_off_c, 0, 54, 45
1, 14775, Control_c, 0, 64, 85
1, 14788, Note_off_c, 0, 66, 61
1, 14790, Control_c, 0, 64, 88
1, 14805, Control_c, 0, 64, 90
1, 14820, Control_c, 0, 64, 92
1, 14835, Control_c, 0, 64, 94
1, 14849, Control_c, 0, 64, 95
1, 14862, Note_off_c, 0, 58, 54
1, 14879, Control_c, 0, 64, 98
1, 14968, Control_c, 0, 64, 100
1, 15228, Control_c, 0, 64, 97
1, 15258, Control_c, 0, 64, 94
1, 15272, Control_c, 0, 64, 90
1, 15287, Control_c, 0, 64, 85
1, 15302, Control_c, 0, 64, 80
1, 15317, Control_c, 0, 64, 74
1, 15332, Control_c, 0, 64, 69
1, 15346, Control_c, 0, 64, 66
1, 15347, Note_on_c, 0, 73, 52
1, 15352, Note_on_c, 0, 61, 39
1, 15361, Control_c, 0, 64, 65
1, 15365, Note_on_c, 0, 56, 29
1, 15371, Note_on_c, 0, 53, 24
1, 15376, Control_c, 0, 64, 64
1, 15391, Control_c, 0, 64, 58
1, 15405, Control_c, 0, 64, 0
1, 15642, Control_c, 0, 64, 62
1, 15657, Control_c, 0, 64, 66
1, 15671, Control_c, 0, 64, 68
1, 15686, Control_c, 0, 64, 70
1, 15701, Control_c, 0, 64, 72
1, 15716, Control_c, 0, 64, 74
1, 15731, Control_c, 0, 64, 77
1, 15745, Control_c, 0, 64, 80
1, 15760, Control_c, 0, 64, 84
1, 15775, Control_c, 0, 64, 87
1, 15790, Control_c, 0, 64, 90
1, 15804, Control_c, 0, 64, 93
1, 15820, Control_c, 0, 64, 96
1, 15835, Control_c, 0, 64, 99
1, 15850, Control_c, 0, 64, 103
1, 15865, Control_c, 0, 64, 107
1, 15880, Control_c, 0, 64, 110
1, 15902, Control_c, 0, 64, 113
1, 15932, Control_c, 0, 64, 115
1, 15947, Control_c, 0, 64, 117
1, 15962, Control_c, 0, 64, 120
1, 15976, Control_c, 0, 64, 122
1, 16035, Control_c, 0, 64, 124
1, 16050, Control_c, 0, 64, 127
1, 16155, Note_off_c, 0, 61, 53
1, 16170, Note_off_c, 0, 56, 55
1, 16176, Note_off_c, 0, 53, 24
1, 16242, Control_c, 0, 64, 124
1, 16288, Control_c, 0, 64, 122
1, 16332, Control_c, 0, 64, 119
1, 16339, Note_on_c, 0, 75, 47
1, 16346, Control_c, 0, 64, 117
1, 16376, Control_c, 0, 64, 115
1, 16406, Control_c, 0, 64, 112
1, 16436, Control_c, 0, 64, 108
1, 16443, Note_off_c, 0, 73, 60
1, 16465, Control_c, 0, 64, 106
1, 16510, Control_c, 0, 64, 103
1, 16540, Control_c, 0, 64, 101
1, 16554, Control_c, 0, 64, 99
1, 16569, Control_c, 0, 64, 96
1, 16584, Control_c, 0, 64, 92
1, 16599, Control_c, 0, 64, 87
1, 16611, Note_on_c, 0, 73, 46
1, 16614, Control_c, 0, 64, 80
1, 16628, Note_on_c, 0, 60, 39
1, 16629, Control_c, 0, 64, 71
1, 16631, Note_on_c, 0, 54, 33
1, 16633, Note_on_c, 0, 57, 32
1, 16651, Control_c, 0, 64, 66
1, 16666, Control_c, 0, 64, 64
1, 16681, Control_c, 0, 64, 56
1, 16692, Note_off_c, 0, 75, 59
1, 16696, Control_c, 0, 64, 0
1, 16829, Control_c, 0, 64, 53
1, 16832, Note_on_c, 0, 75, 46
1, 16844, Control_c, 0, 64, 67
1, 16859, Control_c, 0, 64, 71
1, 16874, Control_c, 0, 64, 74
1, 16889, Control_c, 0, 64, 77
1, 16904, Control_c, 0, 64, 79
1, 16918, Control_c, 0, 64, 82
1, 16918, Note_off_c, 0, 73, 54
1, 16933, Control_c, 0, 64, 85
1, 16948, Control_c, 0, 64, 87
1, 16963, Control_c, 0, 64, 89
1, 16963, Note_off_c, 0, 75, 58
1, 16973, Note_on_c, 0, 77, 50
1, 16977, Control_c, 0, 64, 91
1, 16992, Control_c, 0, 64, 92
1, 17007, Control_c, 0, 64, 93
1, 17022, Control_c, 0, 64, 94
1, 17032, Note_off_c, 0, 77, 58
1, 17037, Control_c, 0, 64, 95
1, 17060, Note_on_c, 0, 75, 51
1, 17066, Control_c, 0, 64, 97
1, 17109, Note_off_c, 0, 75, 58
1, 17125, Control_c, 0, 64, 99
1, 17157, Note_on_c, 0, 77, 47
1, 17169, Control_c, 0, 64, 101
1, 17183, Note_off_c, 0, 77, 54
1, 17203, Note_on_c, 0, 75, 60
1, 17214, Control_c, 0, 64, 103
1, 17225, Note_off_c, 0, 75, 63
1, 17243, Control_c, 0, 64, 107
1, 17249, Note_off_c, 0, 60, 36
1, 17258, Control_c, 0, 64, 109
1, 17262, Note_on_c, 0, 77, 61
1, 17273, Control_c, 0, 64, 111
1, 17288, Control_c, 0, 64, 113
1, 17292, Note_off_c, 0, 77, 59
1, 17303, Control_c, 0, 64, 117
1, 17314, Note_on_c, 0, 75, 61
1, 17318, Control_c, 0, 64, 121
1, 17333, Control_c, 0, 64, 127
1, 17348, Note_off_c, 0, 75, 63
1, 17378, Note_on_c, 0, 77, 56
1, 17410, Note_off_c, 0, 77, 60
1, 17433, Note_on_c, 0, 75, 61
1, 17458, Note_off_c, 0, 75, 61
1, 17491, Note_on_c, 0, 77, 61
1, 17510, Note_off_c, 0, 77, 63
1, 17533, Note_on_c, 0, 75, 57
1, 17553, Note_off_c, 0, 75, 61
1, 17591, Note_on_c, 0, 77, 64
1, 17611, Note_off_c, 0, 77, 62
1, 17633, Note_on_c, 0, 75, 54
1, 17655, Note_off_c, 0, 75, 61
1, 17656, Note_off_c, 0, 54, 49
1, 17656, Note_off_c, 0, 57, 52
1, 17703, Note_on_c, 0, 73, 45
1, 17750, Note_off_c, 0, 73, 56
1, 17785, Note_on_c, 0, 77, 43
1, 17813, Control_c, 0, 64, 121
1, 17828, Control_c, 0, 64, 112
1, 17843, Control_c, 0, 64, 107
1, 17858, Control_c, 0, 64, 104
1, 17872, Control_c, 0, 64, 101
1, 17881, Note_off_c, 0, 77, 57
1, 17887, Control_c, 0, 64, 99
1, 17890, Note_on_c, 0, 75, 53
1, 17917, Control_c, 0, 64, 96
1, 17932, Control_c, 0, 64, 95
1, 17947, Control_c, 0, 64, 95
1, 17962, Control_c, 0, 64, 94
1, 17977, Control_c, 0, 64, 94
1, 17991, Control_c, 0, 64, 93
1, 18006, Control_c, 0, 64, 91
1, 18021, Control_c, 0, 64, 90
1, 18036, Control_c, 0, 64, 87
1, 18051, Control_c, 0, 64, 84
1, 18065, Control_c, 0, 64, 79
1, 18080, Control_c, 0, 64, 74
1, 18095, Control_c, 0, 64, 70
1, 18099, Note_on_c, 0, 53, 19
1, 18105, Note_on_c, 0, 73, 39
1, 18107, Note_off_c, 0, 75, 32
1, 18110, Control_c, 0, 64, 67
1, 18111, Note_on_c, 0, 56, 25
1, 18116, Note_on_c, 0, 61, 28
1, 18124, Control_c, 0, 64, 64
1, 18147, Control_c, 0, 64, 0
1, 18385, Control_c, 0, 64, 66
1, 18400, Control_c, 0, 64, 69
1, 18415, Control_c, 0, 64, 71
1, 18429, Control_c, 0, 64, 73
1, 18444, Control_c, 0, 64, 76
1, 18459, Control_c, 0, 64, 79
1, 18474, Control_c, 0, 64, 81
1, 18476, Note_off_c, 0, 53, 41
1, 18489, Control_c, 0, 64, 82
1, 18503, Control_c, 0, 64, 82
1, 18504, Note_off_c, 0, 61, 50
1, 18533, Control_c, 0, 64, 83
1, 18546, Note_off_c, 0, 56, 51
1, 18579, Note_off_c, 0, 73, 36
1, 18666, Control_c, 0, 64, 82
1, 18695, Control_c, 0, 64, 82
1, 18725, Control_c, 0, 64, 81
1, 18740, Control_c, 0, 64, 80
1, 18755, Control_c, 0, 64, 80
1, 18770, Control_c, 0, 64, 79
1, 18785, Control_c, 0, 64, 78
1, 18799, Control_c, 0, 64, 77
1, 18814, Control_c, 0, 64, 76
1, 18829, Control_c, 0, 64, 74
1, 18844, Control_c, 0, 64, 72
1, 18859, Control_c, 0, 64, 71
1, 18874, Control_c, 0, 64, 70
1, 18895, Control_c, 0, 64, 69
1, 18910, Control_c, 0, 64, 69
1, 18925, Control_c, 0, 64, 68
1, 18940, Control_c, 0, 64, 68
1, 18954, Control_c, 0, 64, 67
1, 18969, Control_c, 0, 64, 66
1, 18984, Control_c, 0, 64, 66
1, 18999, Control_c, 0, 64, 65
1, 19015, Control_c, 0, 64, 65
1, 19030, Control_c, 0, 64, 64
1, 19044, Control_c, 0, 64, 64
1, 19059, Control_c, 0, 64, 62
1, 19074, Control_c, 0, 64, 56
1, 19089, Control_c, 0, 64, 41
1, 19104, Control_c, 0, 64, 0
1, 20060, Note_on_c, 0, 72, 50
1, 20084, Note_on_c, 0, 67, 26
1, 20094, Note_on_c, 0, 64, 27
1, 20283, Control_c, 0, 64, 34
1, 20298, Control_c, 0, 64, 61
1, 20312, Control_c, 0, 64, 64
1, 20327, Control_c, 0, 64, 65
1, 20342, Control_c, 0, 64, 66
1, 20357, Control_c, 0, 64, 68
1, 20372, Control_c, 0, 64, 70
1, 20394, Control_c, 0, 64, 72
1, 20409, Control_c, 0, 64, 75
1, 20424, Control_c, 0, 64, 77
1, 20439, Control_c, 0, 64, 79
1, 20454, Control_c, 0, 64, 81
1, 20468, Control_c, 0, 64, 83
1, 20483, Control_c, 0, 64, 85
1, 20498, Control_c, 0, 64, 88
1, 20513, Control_c, 0, 64, 90
1, 20527, Control_c, 0, 64, 92
1, 20542, Control_c, 0, 64, 94
1, 20557, Control_c, 0, 64, 96
1, 20587, Control_c, 0, 64, 99
1, 20617, Control_c, 0, 64, 102
1, 20647, Control_c, 0, 64, 105
1, 20668, Note_off_c, 0, 64, 37
1, 20677, Control_c, 0, 64, 107
1, 20721, Control_c, 0, 64, 109
1, 20750, Control_c, 0, 64, 111
1, 20794, Note_off_c, 0, 67, 57
1, 20824, Control_c, 0, 64, 113
1, 20928, Note_on_c, 0, 74, 53
1, 21014, Note_off_c, 0, 72, 58
1, 21121, Control_c, 0, 64, 111
1, 21142, Control_c, 0, 64, 109
1, 21157, Control_c, 0, 64, 105
1, 21172, Control_c, 0, 64, 98
1, 21187, Control_c, 0, 64, 90
1, 21195, Note_on_c, 0, 72, 59
1, 21202, Note_on_c, 0, 65, 43
1, 21202, Control_c, 0, 64, 82
1, 21204, Note_on_c, 0, 71, 42
1, 21206, Note_on_c, 0, 68, 45
1, 21217, Control_c, 0, 64, 75
1, 21232, Control_c, 0, 64, 69
1, 21241, Note_off_c, 0, 74, 60
1, 21247, Control_c, 0, 64, 65
1, 21262, Control_c, 0, 64, 44
1, 21276, Control_c, 0, 64, 0
1, 21357, Note_on_c, 0, 74, 64
1, 21386, Note_off_c, 0, 72, 56
1, 21410, Control_c, 0, 64, 68
1, 21426, Control_c, 0, 64, 73
1, 21440, Control_c, 0, 64, 77
1, 21441, Note_off_c, 0, 74, 61
1, 21455, Control_c, 0, 64, 82
1, 21460, Note_on_c, 0, 76, 59
1, 21470, Control_c, 0, 64, 87
1, 21485, Control_c, 0, 64, 91
1, 21497, Note_off_c, 0, 76, 61
1, 21500, Control_c, 0, 64, 94
1, 21513, Control_c, 0, 64, 97
1, 21528, Control_c, 0, 64, 100
1, 21534, Note_on_c, 0, 74, 60
1, 21543, Control_c, 0, 64, 102
1, 21554, Note_off_c, 0, 74, 65
1, 21557, Control_c, 0, 64, 104
1, 21587, Control_c, 0, 64, 106
1, 21593, Note_on_c, 0, 76, 56
1, 21613, Note_off_c, 0, 76, 62
1, 21617, Control_c, 0, 64, 110
1, 21637, Note_on_c, 0, 74, 62
1, 21646, Control_c, 0, 64, 112
1, 21667, Note_off_c, 0, 74, 64
1, 21691, Control_c, 0, 64, 114
1, 21699, Note_on_c, 0, 76, 55
1, 21706, Control_c, 0, 64, 117
1, 21721, Control_c, 0, 64, 119
1, 21721, Note_off_c, 0, 76, 60
1, 21736, Control_c, 0, 64, 123
1, 21745, Note_on_c, 0, 74, 64
1, 21751, Control_c, 0, 64, 127
1, 21775, Note_off_c, 0, 74, 62
1, 21800, Note_on_c, 0, 76, 62
1, 21834, Note_off_c, 0, 76, 59
1, 21846, Note_on_c, 0, 74, 61
1, 21876, Note_off_c, 0, 74, 65
1, 21924, Note_on_c, 0, 76, 61
1, 21960, Note_on_c, 0, 74, 58
1, 21977, Note_off_c, 0, 76, 57
1, 21997, Note_off_c, 0, 71, 54
1, 22011, Note_off_c, 0, 65, 60
1, 22011, Note_off_c, 0, 74, 59
1, 22034, Note_on_c, 0, 72, 60
1, 22036, Note_off_c, 0, 68, 55
1, 22090, Note_off_c, 0, 72, 48
1, 22119, Note_on_c, 0, 76, 53
1, 22172, Control_c, 0, 64, 120
1, 22187, Control_c, 0, 64, 113
1, 22191, Note_off_c, 0, 76, 57
1, 22202, Control_c, 0, 64, 108
1, 22218, Control_c, 0, 64, 104
1, 22224, Note_on_c, 0, 74, 43
1, 22233, Control_c, 0, 64, 101
1, 22248, Control_c, 0, 64, 99
1, 22262, Control_c, 0, 64, 95
1, 22277, Control_c, 0, 64, 88
1, 22292, Control_c, 0, 64, 76
1, 22307, Control_c, 0, 64, 66
1, 22311, Note_off_c, 0, 74, 52
1, 22321, Control_c, 0, 64, 0
1, 22342, Note_on_c, 0, 72, 47
1, 22355, Note_on_c, 0, 67, 31
1, 22358, Note_on_c, 0, 64, 28
1, 22440, Control_c, 0, 64, 68
1, 22455, Control_c, 0, 64, 74
1, 22463, Note_off_c, 0, 72, 61
1, 22469, Control_c, 0, 64, 78
1, 22477, Note_off_c, 0, 67, 63
1, 22484, Control_c, 0, 64, 82
1, 22496, Note_off_c, 0, 64, 63
1, 22499, Control_c, 0, 64, 85
1, 22514, Control_c, 0, 64, 87
1, 22529, Control_c, 0, 64, 90
1, 22543, Control_c, 0, 64, 91
1, 22558, Control_c, 0, 64, 91
1, 22699, Control_c, 0, 64, 91
1, 22728, Control_c, 0, 64, 90
1, 22743, Control_c, 0, 64, 90
1, 22758, Control_c, 0, 64, 89
1, 22773, Control_c, 0, 64, 86
1, 22788, Control_c, 0, 64, 83
1, 22803, Control_c, 0, 64, 76
1, 22818, Control_c, 0, 64, 68
1, 22829, Note_on_c, 0, 37, 48
1, 22833, Control_c, 0, 64, 0
1, 22868, Note_off_c, 0, 37, 63
1, 22985, Note_on_c, 0, 37, 51
1, 23026, Note_off_c, 0, 37, 63
1, 23145, Note_on_c, 0, 37, 47
1, 23187, Note_off_c, 0, 37, 62
1, 23318, Note_on_c, 0, 36, 41
1, 23352, Control_c, 0, 64, 65
1, 23367, Control_c, 0, 64, 68
1, 23390, Control_c, 0, 64, 70
1, 23405, Control_c, 0, 64, 74
1, 23419, Control_c, 0, 64, 78
1, 23434, Control_c, 0, 64, 82
1, 23449, Control_c, 0, 64, 84
1, 23451, Note_off_c, 0, 36, 60
1, 23463, Control_c, 0, 64, 85
1, 23478, Control_c, 0, 64, 86
1, 23493, Control_c, 0, 64, 86
1, 23508, Control_c, 0, 64, 87
1, 23523, Control_c, 0, 64, 87
1, 23611, Control_c, 0, 64, 87
1, 23641, Control_c, 0, 64, 86
1, 23655, Control_c, 0, 64, 86
1, 23670, Control_c, 0, 64, 85
1, 23685, Control_c, 0, 64, 83
1, 23700, Control_c, 0, 64, 81
1, 23715, Control_c, 0, 64, 78
1, 23730, Control_c, 0, 64, 75
1, 23745, Control_c, 0, 64, 72
1, 23760, Control_c, 0, 64, 70
1, 23775, Control_c, 0, 64, 68
1, 23789, Control_c, 0, 64, 67
1, 23804, Control_c, 0, 64, 66
1, 23820, Control_c, 0, 64, 64
1, 23834, Control_c, 0, 64, 63
1, 23849, Control_c, 0, 64, 55
1, 23864, Control_c, 0, 64, 0
1, 24318, Note_on_c, 0, 76, 56
1, 24332, Note_on_c, 0, 73, 43
1, 24335, Note_on_c, 0, 70, 40
1, 24344, Note_on_c, 0, 67, 34
1, 24628, Control_c, 0, 64, 34
1, 24643, Control_c, 0, 64, 62
1, 24657, Control_c, 0, 64, 65
1, 24672, Control_c, 0, 64, 68
1, 24687, Control_c, 0, 64, 71
1, 24702, Control_c, 0, 64, 73
1, 24717, Control_c, 0, 64, 76
1, 24731, Control_c, 0, 64, 78
1, 24746, Control_c, 0, 64, 80
1, 24761, Control_c, 0, 64, 83
1, 24776, Control_c, 0, 64, 86
1, 24791, Control_c, 0, 64, 89
1, 24806, Control_c, 0, 64, 91
1, 24819, Note_off_c, 0, 67, 54
1, 24821, Control_c, 0, 64, 93
1, 24836, Control_c, 0, 64, 95
1, 24865, Control_c, 0, 64, 97
1, 24902, Control_c, 0, 64, 100
1, 24931, Control_c, 0, 64, 102
1, 24956, Note_off_c, 0, 73, 52
1, 24991, Control_c, 0, 64, 104
1, 25110, Note_off_c, 0, 70, 37
1, 25177, Note_on_c, 0, 77, 70
1, 25295, Note_off_c, 0, 76, 60
1, 25421, Control_c, 0, 64, 100
1, 25436, Control_c, 0, 64, 93
1, 25451, Control_c, 0, 64, 84
1, 25459, Note_on_c, 0, 79, 72
1, 25463, Note_on_c, 0, 70, 52
1, 25466, Control_c, 0, 64, 74
1, 25474, Note_on_c, 0, 68, 50
1, 25475, Note_on_c, 0, 73, 57
1, 25480, Control_c, 0, 64, 66
1, 25495, Control_c, 0, 64, 0
1, 25506, Note_off_c, 0, 77, 60
1, 25653, Note_off_c, 0, 79, 63
1, 25659, Note_on_c, 0, 77, 66
1, 25665, Control_c, 0, 64, 67
1, 25680, Control_c, 0, 64, 71
1, 25695, Control_c, 0, 64, 75
1, 25710, Control_c, 0, 64, 79
1, 25725, Control_c, 0, 64, 84
1, 25733, Note_off_c, 0, 77, 58
1, 25739, Control_c, 0, 64, 88
1, 25754, Control_c, 0, 64, 91
1, 25765, Note_on_c, 0, 79, 66
1, 25769, Control_c, 0, 64, 94
1, 25784, Control_c, 0, 64, 97
1, 25793, Note_off_c, 0, 79, 66
1, 25799, Control_c, 0, 64, 99
1, 25828, Control_c, 0, 64, 102
1, 25842, Note_on_c, 0, 77, 61
1, 25860, Note_off_c, 0, 77, 63
1, 25873, Control_c, 0, 64, 104
1, 25900, Note_on_c, 0, 79, 61
1, 25918, Control_c, 0, 64, 106
1, 25918, Note_off_c, 0, 79, 65
1, 25944, Note_on_c, 0, 77, 67
1, 25962, Control_c, 0, 64, 109
1, 25977, Note_off_c, 0, 77, 60
1, 26005, Control_c, 0, 64, 111
1, 26008, Note_on_c, 0, 79, 55
1, 26029, Note_off_c, 0, 79, 64
1, 26050, Control_c, 0, 64, 114
1, 26059, Note_on_c, 0, 77, 73
1, 26079, Control_c, 0, 64, 116
1, 26088, Note_off_c, 0, 77, 64
1, 26109, Note_on_c, 0, 79, 64
1, 26139, Note_off_c, 0, 79, 63
1, 26153, Control_c, 0, 64, 118
1, 26157, Note_on_c, 0, 77, 68
1, 26183, Control_c, 0, 64, 120
1, 26188, Note_off_c, 0, 77, 63
1, 26213, Note_on_c, 0, 79, 69
1, 26214, Control_c, 0, 64, 124
1, 26228, Control_c, 0, 64, 127
1, 26265, Note_on_c, 0, 77, 56
1, 26273, Note_off_c, 0, 79, 62
1, 26280, Note_off_c, 0, 70, 56
1, 26282, Note_off_c, 0, 68, 59
1, 26282, Note_off_c, 0, 73, 57
1, 26290, Note_off_c, 0, 77, 57
1, 26323, Note_on_c, 0, 76, 60
1, 26368, Note_off_c, 0, 76, 50
1, 26410, Note_on_c, 0, 79, 59
1, 26458, Control_c, 0, 64, 124
1, 26473, Control_c, 0, 64, 119
1, 26483, Note_off_c, 0, 79, 60
1, 26487, Control_c, 0, 64, 114
1, 26502, Control_c, 0, 64, 108
1, 26505, Note_on_c, 0, 77, 62
1, 26517, Control_c, 0, 64, 101
1, 26532, Control_c, 0, 64, 91
1, 26547, Control_c, 0, 64, 79
1, 26562, Control_c, 0, 64, 66
1, 26576, Note_off_c, 0, 77, 34
1, 26577, Control_c, 0, 64, 0
1, 26618, Note_on_c, 0, 76, 53
1, 26627, Note_on_c, 0, 70, 27
1, 26635, Note_on_c, 0, 73, 41
1, 26641, Note_on_c, 0, 67, 33
1, 26720, Note_off_c, 0, 76, 60
1, 26725, Control_c, 0, 64, 70
1, 26730, Note_off_c, 0, 73, 62
1, 26740, Control_c, 0, 64, 74
1, 26752, Note_off_c, 0, 67, 63
1, 26752, Note_off_c, 0, 70, 62
1, 26755, Control_c, 0, 64, 77
1, 26770, Control_c, 0, 64, 80
1, 26785, Control_c, 0, 64, 84
1, 26800, Control_c, 0, 64, 87
1, 26814, Control_c, 0, 64, 89
1, 26829, Control_c, 0, 64, 90
1, 26859, Control_c, 0, 64, 90
1, 27008, Control_c, 0, 64, 90
1, 27038, Control_c, 0, 64, 89
1, 27052, Control_c, 0, 64, 89
1, 27067, Control_c, 0, 64, 87
1, 27082, Control_c, 0, 64, 81
1, 27097, Control_c, 0, 64, 73
1, 27111, Control_c, 0, 64, 64
1, 27119, Note_on_c, 0, 37, 43
1, 27134, Control_c, 0, 64, 0
1, 27157, Note_off_c, 0, 37, 58
1, 27290, Note_on_c, 0, 37, 43
1, 27332, Note_off_c, 0, 37, 63
1, 27438, Note_on_c, 0, 37, 52
1, 27483, Note_off_c, 0, 37, 61
1, 27605, Note_on_c, 0, 36, 45
1, 27623, Control_c, 0, 64, 66
1, 27637, Control_c, 0, 64, 70
1, 27652, Control_c, 0, 64, 74
1, 27667, Control_c, 0, 64, 78
1, 27682, Control_c, 0, 64, 82
1, 27691, Note_off_c, 0, 36, 62
1, 27697, Control_c, 0, 64, 85
1, 27711, Control_c, 0, 64, 86
1, 27726, Control_c, 0, 64, 87
1, 27741, Control_c, 0, 64, 88
1, 27771, Control_c, 0, 64, 88
1, 27785, Control_c, 0, 64, 89
1, 27801, Control_c, 0, 64, 90
1, 27882, Control_c, 0, 64, 89
1, 27912, Control_c, 0, 64, 89
1, 27927, Control_c, 0, 64, 88
1, 27942, Control_c, 0, 64, 87
1, 27957, Control_c, 0, 64, 86
1, 27972, Control_c, 0, 64, 84
1, 27987, Control_c, 0, 64, 82
1, 28001, Control_c, 0, 64, 79
1, 28016, Control_c, 0, 64, 76
1, 28031, Control_c, 0, 64, 71
1, 28046, Control_c, 0, 64, 66
1, 28060, Control_c, 0, 64, 56
1, 28075, Control_c, 0, 64, 0
1, 28102, Note_on_c, 0, 79, 43
1, 28105, Note_on_c, 0, 76, 42
1, 28130, Note_off_c, 0, 79, 56
1, 28136, Note_off_c, 0, 76, 52
1, 28246, Note_on_c, 0, 79, 49
1, 28247, Note_on_c, 0, 76, 48
1, 28291, Note_off_c, 0, 79, 61
1, 28294, Note_off_c, 0, 76, 58
1, 28404, Note_on_c, 0, 79, 58
1, 28405, Note_on_c, 0, 76, 42
1, 28443, Note_off_c, 0, 79, 61
1, 28448, Note_off_c, 0, 76, 45
1, 28564, Control_c, 0, 64, 65
1, 28565, Note_on_c, 0, 79, 54
1, 28577, Note_on_c, 0, 82, 54
1, 28578, Control_c, 0, 64, 70
1, 28593, Control_c, 0, 64, 73
1, 28601, Note_off_c, 0, 79, 64
1, 28610, Control_c, 0, 64, 75
1, 28610, Note_off_c, 0, 82, 64
1, 28631, Control_c, 0, 64, 79
1, 28646, Control_c, 0, 64, 81
1, 28661, Control_c, 0, 64, 84
1, 28676, Control_c, 0, 64, 85
1, 28690, Control_c, 0, 64, 85
1, 28750, Control_c, 0, 64, 86
1, 28898, Control_c, 0, 64, 85
1, 28928, Control_c, 0, 64, 85
1, 28957, Control_c, 0, 64, 84
1, 28972, Control_c, 0, 64, 84
1, 28987, Control_c, 0, 64, 83
1, 29001, Control_c, 0, 64, 82
1, 29016, Control_c, 0, 64, 81
1, 29031, Control_c, 0, 64, 78
1, 29046, Control_c, 0, 64, 74
1, 29061, Control_c, 0, 64, 69
1, 29075, Control_c, 0, 64, 65
1, 29090, Control_c, 0, 64, 0
1, 29103, Note_on_c, 0, 37, 46
1, 29139, Note_off_c, 0, 37, 57
1, 29291, Note_on_c, 0, 37, 41
1, 29336, Note_off_c, 0, 37, 61
1, 29482, Note_on_c, 0, 37, 42
1, 29535, Note_off_c, 0, 37, 58
1, 29699, Note_on_c, 0, 36, 38
1, 29751, Control_c, 0, 64, 65
1, 29766, Control_c, 0, 64, 69
1, 29780, Control_c, 0, 64, 72
1, 29795, Control_c, 0, 64, 76
1, 29810, Control_c, 0, 64, 78
1, 29816, Note_off_c, 0, 36, 61
1, 29824, Control_c, 0, 64, 80
1, 29839, Control_c, 0, 64, 81
1, 29854, Control_c, 0, 64, 82
1, 29884, Control_c, 0, 64, 83
1, 29898, Control_c, 0, 64, 83
1, 29913, Control_c, 0, 64, 84
1, 29928, Control_c, 0, 64, 84
1, 29943, Control_c, 0, 64, 85
1, 29958, Control_c, 0, 64, 85
1, 30172, Control_c, 0, 64, 85
1, 30187, Control_c, 0, 64, 83
1, 30203, Control_c, 0, 64, 76
1, 30218, Control_c, 0, 64, 66
1, 30233, Control_c, 0, 64, 0
1, 30365, Note_on_c, 0, 82, 86
1, 30366, Control_c, 0, 64, 64
1, 30368, Note_on_c, 0, 79, 75
1, 30381, Control_c, 0, 64, 91
1, 30395, Note_off_c, 0, 82, 63
1, 30396, Control_c, 0, 64, 98
1, 30399, Note_off_c, 0, 79, 61
1, 30410, Control_c, 0, 64, 108
1, 30425, Control_c, 0, 64, 110
1, 30455, Control_c, 0, 64, 114
1, 30470, Control_c, 0, 64, 119
1, 30485, Control_c, 0, 64, 122
1, 30499, Control_c, 0, 64, 127
1, 30511, Note_on_c, 0, 82, 88
1, 30515, Note_on_c, 0, 79, 80
1, 30541, Note_off_c, 0, 79, 62
1, 30549, Note_off_c, 0, 82, 64
1, 30639, Note_on_c, 0, 82, 90
1, 30646, Note_on_c, 0, 79, 69
1, 30683, Note_off_c, 0, 82, 64
1, 30698, Note_off_c, 0, 79, 60
1, 30758, Note_on_c, 0, 88, 93
1, 30822, Note_on_c, 0, 82, 89
1, 30824, Note_off_c, 0, 88, 65
1, 30887, Note_on_c, 0, 91, 83
1, 30890, Note_off_c, 0, 82, 64
1, 30915, Note_off_c, 0, 91, 60
1, 30946, Note_on_c, 0, 88, 85
1, 31016, Note_on_c, 0, 94, 83
1, 31016, Note_off_c, 0, 88, 63
1, 31074, Note_on_c, 0, 91, 91
1, 31076, Note_off_c, 0, 94, 64
1, 31127, Note_off_c, 0, 91, 65
1, 31131, Note_on_c, 0, 88, 77
1, 31161, Note_off_c, 0, 88, 61
1, 31197, Note_on_c, 0, 91, 92
1, 31247, Note_off_c, 0, 91, 57
1, 31266, Note_on_c, 0, 82, 80
1, 31310, Note_off_c, 0, 82, 60
1, 31334, Note_on_c, 0, 88, 57
1, 31352, Note_off_c, 0, 88, 63
1, 31361, Note_on_c, 0, 79, 76
1, 31379, Poly_aftertouch_c, 0, 87, 127
1, 31397, Poly_aftertouch_c, 0, 87, 0
1, 31400, Note_off_c, 0, 79, 61
1, 31429, Note_on_c, 0, 82, 82
1, 31466, Note_off_c, 0, 82, 58
1, 31484, Note_on_c, 0, 76, 76
1, 31519, Note_off_c, 0, 76, 59
1, 31549, Note_on_c, 0, 79, 78
1, 31602, Note_off_c, 0, 79, 58
1, 31611, Note_on_c, 0, 70, 81
1, 31665, Note_off_c, 0, 70, 63
1, 31671, Note_on_c, 0, 76, 68
1, 31699, Note_off_c, 0, 76, 64
1, 31719, Note_on_c, 0, 67, 81
1, 31766, Note_off_c, 0, 67, 61
1, 31791, Note_on_c, 0, 70, 76
1, 31838, Note_off_c, 0, 70, 61
1, 31854, Note_on_c, 0, 64, 71
1, 31892, Note_off_c, 0, 64, 60
1, 31909, Note_on_c, 0, 67, 75
1, 31964, Note_off_c, 0, 67, 62
1, 31981, Note_on_c, 0, 58, 80
1, 32026, Note_off_c, 0, 58, 62
1, 32029, Note_on_c, 0, 64, 70
1, 32064, Note_off_c, 0, 64, 64
1, 32085, Note_on_c, 0, 55, 84
1, 32139, Note_off_c, 0, 55, 59
1, 32151, Note_on_c, 0, 58, 83
1, 32202, Note_off_c, 0, 58, 61
1, 32217, Note_on_c, 0, 52, 77
1, 32257, Note_off_c, 0, 52, 60
1, 32281, Note_on_c, 0, 55, 80
1, 32339, Note_off_c, 0, 55, 62
1, 32354, Note_on_c, 0, 46, 79
1, 32392, Note_off_c, 0, 46, 65
1, 32407, Note_on_c, 0, 52, 73
1, 32454, Note_off_c, 0, 52, 62
1, 32477, Note_on_c, 0, 31, 80
1, 32547, Note_on_c, 0, 34, 75
1, 32622, Note_on_c, 0, 40, 79
1, 32639, Note_off_c, 0, 31, 59
1, 32643, Note_off_c, 0, 34, 61
1, 32673, Note_off_c, 0, 40, 63
1, 32679, Note_on_c, 0, 43, 78
1, 32747, Note_on_c, 0, 46, 80
1, 32749, Note_off_c, 0, 43, 60
1, 32802, Note_off_c, 0, 46, 62
1, 32810, Note_on_c, 0, 49, 88
1, 32849, Note_off_c, 0, 49, 63
1, 32880, Note_on_c, 0, 52, 77
1, 32944, Note_on_c, 0, 55, 84
1, 32957, Note_off_c, 0, 52, 61
1, 33018, Note_on_c, 0, 58, 99
1, 33035, Note_off_c, 0, 55, 57
1, 33057, Note_off_c, 0, 58, 68
1, 33181, Control_c, 0, 64, 101
1, 33196, Control_c, 0, 64, 65
1, 33211, Control_c, 0, 64, 0
1, 33522, Note_on_c, 0, 61, 90
1, 33525, Note_on_c, 0, 49, 84
1, 33527, Note_on_c, 0, 29, 80
1, 33527, Note_on_c, 0, 41, 87
1, 33529, Note_on_c, 0, 56, 79
1, 33539, Control_c, 0, 64, 69
1, 33544, Note_off_c, 0, 61, 68
1, 33546, Note_off_c, 0, 49, 68
1, 33548, Note_off_c, 0, 41, 66
1, 33549, Note_off_c, 0, 29, 65
1, 33553, Control_c, 0, 64, 86
1, 33556, Note_off_c, 0, 56, 67
1, 33568, Control_c, 0, 64, 91
1, 33583, Control_c, 0, 64, 94
1, 33597, Control_c, 0, 64, 95
1, 33612, Control_c, 0, 64, 99
1, 33627, Note_on_c, 0, 49, 10
1, 33627, Control_c, 0, 64, 102
1, 33657, Control_c, 0, 64, 104
1, 33665, Note_off_c, 0, 49, 54
1, 33761, Control_c, 0, 64, 101
1, 33805, Control_c, 0, 64, 99
1, 33820, Control_c, 0, 64, 97
1, 33835, Control_c, 0, 64, 94
1, 33850, Control_c, 0, 64, 90
1, 33871, Control_c, 0, 64, 87
1, 33886, Control_c, 0, 64, 84
1, 33901, Control_c, 0, 64, 80
1, 33916, Control_c, 0, 64, 77
1, 33930, Control_c, 0, 64, 74
1, 33945, Control_c, 0, 64, 72
1, 33960, Control_c, 0, 64, 70
1, 33975, Control_c, 0, 64, 69
1, 33990, Control_c, 0, 64, 67
1, 34005, Control_c, 0, 64, 65
1, 34020, Control_c, 0, 64, 63
1, 34035, Control_c, 0, 64, 59
1, 34050, Control_c, 0, 64, 56
1, 34065, Control_c, 0, 64, 50
1, 34079, Control_c, 0, 64, 0
1, 34444, Note_on_c, 0, 60, 40
1, 34447, Note_on_c, 0, 40, 25
1, 34458, Note_on_c, 0, 52, 31
1, 34462, Note_on_c, 0, 48, 27
1, 34476, Note_on_c, 0, 55, 25
1, 35169, Control_c, 0, 64, 23
1, 35184, Control_c, 0, 64, 53
1, 35199, Control_c, 0, 64, 62
1, 35214, Control_c, 0, 64, 64
1, 35243, Control_c, 0, 64, 64
1, 35258, Control_c, 0, 64, 65
1, 35288, Control_c, 0, 64, 65
1, 35303, Control_c, 0, 64, 66
1, 35317, Control_c, 0, 64, 66
1, 35332, Control_c, 0, 64, 67
1, 35369, Control_c, 0, 64, 67
1, 35384, Control_c, 0, 64, 68
1, 35399, Control_c, 0, 64, 68
1, 35414, Control_c, 0, 64, 69
1, 35429, Control_c, 0, 64, 69
1, 35443, Control_c, 0, 64, 70
1, 35458, Control_c, 0, 64, 70
1, 35473, Control_c, 0, 64, 71
1, 35488, Control_c, 0, 64, 72
1, 35502, Control_c, 0, 64, 73
1, 35517, Control_c, 0, 64, 73
1, 35532, Control_c, 0, 64, 74
1, 35547, Control_c, 0, 64, 75
1, 35562, Control_c, 0, 64, 75
1, 35576, Control_c, 0, 64, 76
1, 35591, Control_c, 0, 64, 77
1, 35606, Control_c, 0, 64, 78
1, 35621, Control_c, 0, 64, 78
1, 35636, Control_c, 0, 64, 79
1, 35650, Control_c, 0, 64, 80
1, 35665, Control_c, 0, 64, 80
1, 35680, Control_c, 0, 64, 81
1, 35695, Control_c, 0, 64, 82
1, 35710, Control_c, 0, 64, 83
1, 35725, Control_c, 0, 64, 84
1, 35740, Control_c, 0, 64, 84
1, 35755, Control_c, 0, 64, 85
1, 35769, Control_c, 0, 64, 86
1, 35785, Control_c, 0, 64, 87
1, 35800, Control_c, 0, 64, 88
1, 35814, Control_c, 0, 64, 89
1, 35829, Control_c, 0, 64, 91
1, 35844, Control_c, 0, 64, 92
1, 35859, Control_c, 0, 64, 93
1, 35874, Control_c, 0, 64, 94
1, 35889, Control_c, 0, 64, 94
1, 35904, Control_c, 0, 64, 95
1, 35919, Control_c, 0, 64, 96
1, 35978, Control_c, 0, 64, 98
1, 35980, Note_off_c, 0, 52, 32
1, 35991, Note_off_c, 0, 48, 38
1, 36022, Control_c, 0, 64, 101
1, 36066, Control_c, 0, 64, 103
1, 36128, Note_off_c, 0, 40, 34
1, 36136, Note_off_c, 0, 55, 40
1, 36163, Control_c, 0, 64, 105
1, 36237, Control_c, 0, 64, 107
1, 36301, Note_off_c, 0, 60, 44
1, 36971, Control_c, 0, 64, 103
1, 36986, Control_c, 0, 64, 94
1, 37001, Control_c, 0, 64, 82
1, 37015, Control_c, 0, 64, 70
1, 37016, Note_on_c, 0, 36, 35
1, 37023, Note_on_c, 0, 60, 40
1, 37030, Control_c, 0, 64, 0
1, 37134, Control_c, 0, 64, 67
1, 37148, Control_c, 0, 64, 72
1, 37163, Control_c, 0, 64, 76
1, 37178, Control_c, 0, 64, 79
1, 37193, Control_c, 0, 64, 81
1, 37208, Control_c, 0, 64, 82
1, 37222, Control_c, 0, 64, 83
1, 37237, Control_c, 0, 64, 84
1, 37252, Control_c, 0, 64, 85
1, 37266, Control_c, 0, 64, 86
1, 37281, Control_c, 0, 64, 88
1, 37296, Control_c, 0, 64, 89
1, 37305, Note_off_c, 0, 60, 59
1, 37326, Control_c, 0, 64, 85
1, 37328, Note_off_c, 0, 36, 59
1, 37332, Note_on_c, 0, 32, 53
1, 37341, Control_c, 0, 64, 71
1, 37344, Note_on_c, 0, 56, 71
1, 37356, Control_c, 0, 64, 0
1, 37378, Note_off_c, 0, 56, 68
1, 37386, Note_off_c, 0, 32, 63
1, 37425, Note_on_c, 0, 29, 99
1, 37430, Note_on_c, 0, 53, 87
1, 37445, Control_c, 0, 64, 78
1, 37460, Control_c, 0, 64, 101
1, 37470, Note_off_c, 0, 29, 64
1, 37475, Control_c, 0, 64, 127
1, 37518, Note_off_c, 0, 53, 62
1, 37606, Note_on_c, 0, 65, 93
1, 37608, Note_on_c, 0, 53, 93
1, 37621, Note_on_c, 0, 60, 76
1, 37622, Note_on_c, 0, 56, 74
1, 37662, Note_off_c, 0, 53, 61
1, 37666, Note_off_c, 0, 56, 56
1, 37681, Note_off_c, 0, 60, 60
1, 37689, Note_off_c, 0, 65, 60
1, 37755, Note_on_c, 0, 41, 81
1, 37763, Note_on_c, 0, 32, 75
1, 37764, Note_on_c, 0, 29, 70
1, 37767, Note_on_c, 0, 36, 73
1, 37792, Note_off_c, 0, 29, 64
1, 37794, Note_off_c, 0, 41, 63
1, 37796, Note_off_c, 0, 36, 63
1, 37803, Note_off_c, 0, 32, 64
1, 37880, Note_on_c, 0, 68, 86
1, 37880, Note_on_c, 0, 65, 78
1, 37882, Note_on_c, 0, 56, 82
1, 37886, Note_on_c, 0, 60, 76
1, 37926, Note_off_c, 0, 56, 63
1, 37931, Note_off_c, 0, 60, 56
1, 37940, Poly_aftertouch_c, 0, 29, 0
1, 37953, Note_off_c, 0, 65, 63
1, 37976, Note_off_c, 0, 68, 63
1, 38010, Note_on_c, 0, 41, 84
1, 38015, Note_on_c, 0, 32, 74
1, 38018, Note_on_c, 0, 36, 74
1, 38022, Note_on_c, 0, 29, 74
1, 38087, Note_off_c, 0, 36, 58
1, 38092, Note_off_c, 0, 41, 54
1, 38101, Note_off_c, 0, 32, 61
1, 38138, Note_on_c, 0, 72, 91
1, 38140, Note_on_c, 0, 60, 85
1, 38142, Note_on_c, 0, 68, 75
1, 38144, Note_on_c, 0, 65, 79
1, 38148, Note_off_c, 0, 29, 36
1, 38187, Note_off_c, 0, 60, 60
1, 38193, Note_off_c, 0, 65, 63
1, 38216, Note_off_c, 0, 68, 64
1, 38222, Note_off_c, 0, 72, 61
1, 38258, Note_on_c, 0, 41, 86
1, 38261, Note_on_c, 0, 32, 68
1, 38265, Note_on_c, 0, 36, 77
1, 38268, Note_on_c, 0, 29, 80
1, 38382, Note_off_c, 0, 32, 53
1, 38391, Note_on_c, 0, 77, 91
1, 38393, Note_on_c, 0, 72, 79
1, 38396, Note_on_c, 0, 65, 85
1, 38401, Note_on_c, 0, 68, 72
1, 38413, Note_off_c, 0, 29, 52
1, 38416, Note_off_c, 0, 41, 52
1, 38447, Note_off_c, 0, 65, 63
1, 38458, Note_off_c, 0, 68, 62
1, 38463, Note_off_c, 0, 72, 62
1, 38480, Note_off_c, 0, 77, 60
1, 38497, Note_off_c, 0, 36, 0
1, 38512, Note_on_c, 0, 36, 40
1, 38518, Note_on_c, 0, 41, 92
1, 38518, Note_on_c, 0, 32, 71
1, 38521, Note_on_c, 0, 29, 81
1, 38608, Note_off_c, 0, 32, 61
1, 38633, Note_on_c, 0, 80, 91
1, 38634, Note_on_c, 0, 77, 77
1, 38636, Note_on_c, 0, 68, 87
1, 38638, Note_on_c, 0, 72, 80
1, 38664, Note_off_c, 0, 41, 49
1, 38678, Note_off_c, 0, 29, 32
1, 38681, Note_off_c, 0, 36, 51
1, 38681, Note_off_c, 0, 68, 62
1, 38682, Note_off_c, 0, 72, 58
1, 38712, Note_off_c, 0, 77, 61
1, 38733, Note_off_c, 0, 80, 62
1, 38763, Note_on_c, 0, 41, 88
1, 38766, Note_on_c, 0, 29, 70
1, 38767, Note_on_c, 0, 32, 73
1, 38768, Note_on_c, 0, 36, 68
1, 38801, Note_off_c, 0, 29, 62
1, 38807, Note_off_c, 0, 41, 62
1, 38825, Note_off_c, 0, 36, 57
1, 38848, Note_off_c, 0, 32, 61
1, 38895, Note_on_c, 0, 84, 91
1, 38896, Note_on_c, 0, 77, 79
1, 38897, Note_on_c, 0, 80, 84
1, 38898, Note_on_c, 0, 72, 86
1, 38918, Note_off_c, 0, 77, 67
1, 38920, Note_off_c, 0, 72, 67
1, 38939, Note_off_c, 0, 80, 64
1, 38953, Note_off_c, 0, 84, 64
1, 39070, Note_on_c, 0, 77, 77
1, 39072, Note_on_c, 0, 89, 103
1, 39075, Note_on_c, 0, 84, 87
1, 39078, Note_on_c, 0, 36, 74
1, 39078, Note_on_c, 0, 80, 90
1, 39080, Note_on_c, 0, 41, 80
1, 39081, Note_on_c, 0, 29, 81
1, 39081, Note_on_c, 0, 32, 78
1, 39940, Note_off_c, 0, 89, 51
1, 40016, Note_off_c, 0, 29, 53
1, 40048, Note_off_c, 0, 77, 57
1, 40049, Note_off_c, 0, 84, 60
1, 40059, Note_off_c, 0, 41, 55
1, 40082, Note_off_c, 0, 80, 59
1, 40092, Note_off_c, 0, 32, 36
1, 40234, Control_c, 0, 64, 117
1, 40249, Control_c, 0, 64, 109
1, 40264, Control_c, 0, 64, 104
1, 40279, Control_c, 0, 64, 101
1, 40293, Control_c, 0, 64, 99
1, 40323, Control_c, 0, 64, 97
1, 40338, Control_c, 0, 64, 96
1, 40352, Control_c, 0, 64, 95
1, 40367, Control_c, 0, 64, 93
1, 40382, Control_c, 0, 64, 92
1, 40390, Note_off_c, 0, 36, 50
1, 40397, Control_c, 0, 64, 92
1, 40412, Control_c, 0, 64, 91
1, 40427, Control_c, 0, 64, 90
1, 40441, Control_c, 0, 64, 89
1, 40456, Control_c, 0, 64, 88
1, 40471, Control_c, 0, 64, 87
1, 40485, Control_c, 0, 64, 85
1, 40500, Control_c, 0, 64, 83
1, 40515, Control_c, 0, 64, 80
1, 40530, Control_c, 0, 64, 79
1, 40545, Control_c, 0, 64, 77
1, 40560, Control_c, 0, 64, 75
1, 40575, Control_c, 0, 64, 73
1, 40590, Control_c, 0, 64, 72
1, 40613, Control_c, 0, 64, 70
1, 40628, Control_c, 0, 64, 68
1, 40643, Control_c, 0, 64, 65
1, 40658, Control_c, 0, 64, 64
1, 40672, Control_c, 0, 64, 55
1, 40676, Note_on_c, 0, 32, 32
1, 40680, Note_on_c, 0, 56, 45
1, 40687, Control_c, 0, 64, 0
1, 41022, Note_on_c, 0, 36, 40
1, 41024, Note_on_c, 0, 60, 43
1, 41111, Note_off_c, 0, 32, 46
1, 41138, Note_on_c, 0, 41, 42
1, 41144, Note_off_c, 0, 56, 61
1, 41150, Note_on_c, 0, 65, 56
1, 41183, Note_off_c, 0, 60, 60
1, 41198, Note_off_c, 0, 36, 62
1, 41575, Note_on_c, 0, 68, 53
1, 41576, Note_on_c, 0, 44, 40
1, 41654, Note_off_c, 0, 41, 62
1, 41686, Note_off_c, 0, 65, 56
1, 41913, Note_on_c, 0, 72, 53
1, 41914, Note_on_c, 0, 48, 33
1, 41964, Note_off_c, 0, 44, 35
1, 42079, Note_on_c, 0, 53, 42
1, 42080, Note_on_c, 0, 77, 65
1, 42188, Note_off_c, 0, 72, 56
1, 42194, Note_off_c, 0, 48, 49
1, 42196, Note_off_c, 0, 68, 55
1, 42377, Control_c, 0, 64, 34
1, 42392, Control_c, 0, 64, 57
1, 42407, Control_c, 0, 64, 63
1, 42422, Control_c, 0, 64, 64
1, 42436, Control_c, 0, 64, 65
1, 42451, Control_c, 0, 64, 66
1, 42466, Control_c, 0, 64, 67
1, 42480, Control_c, 0, 64, 68
1, 42495, Control_c, 0, 64, 68
1, 42510, Control_c, 0, 64, 69
1, 42525, Control_c, 0, 64, 70
1, 42540, Control_c, 0, 64, 71
1, 42550, Note_on_c, 0, 41, 36
1, 42552, Note_on_c, 0, 65, 54
1, 42554, Control_c, 0, 64, 73
1, 42569, Control_c, 0, 64, 75
1, 42584, Control_c, 0, 64, 77
1, 42599, Control_c, 0, 64, 79
1, 42614, Control_c, 0, 64, 81
1, 42629, Control_c, 0, 64, 84
1, 42644, Control_c, 0, 64, 87
1, 42659, Note_off_c, 0, 77, 60
1, 42659, Control_c, 0, 64, 91
1, 42662, Note_off_c, 0, 41, 61
1, 42673, Control_c, 0, 64, 94
1, 42688, Control_c, 0, 64, 99
1, 42703, Control_c, 0, 64, 103
1, 42708, Note_off_c, 0, 53, 62
1, 42718, Control_c, 0, 64, 107
1, 42733, Control_c, 0, 64, 112
1, 42734, Note_off_c, 0, 65, 65
1, 42748, Control_c, 0, 64, 127
1, 42918, Control_c, 0, 64, 95
1, 42933, Control_c, 0, 64, 69
1, 42948, Control_c, 0, 64, 0
1, 42979, Note_on_c, 0, 52, 87
1, 42983, Note_on_c, 0, 60, 97
1, 42986, Note_on_c, 0, 55, 89
1, 42992, Control_c, 0, 64, 64
1, 43007, Control_c, 0, 64, 80
1, 43010, Note_off_c, 0, 60, 66
1, 43022, Control_c, 0, 64, 99
1, 43026, Note_off_c, 0, 55, 63
1, 43031, Note_off_c, 0, 52, 63
1, 43037, Control_c, 0, 64, 127
1, 43167, Note_on_c, 0, 64, 83
1, 43170, Note_on_c, 0, 55, 76
1, 43170, Note_on_c, 0, 60, 77
1, 43204, Note_off_c, 0, 55, 62
1, 43205, Note_off_c, 0, 60, 54
1, 43234, Note_off_c, 0, 64, 64
1, 43292, Note_on_c, 0, 48, 78
1, 43293, Note_on_c, 0, 40, 77
1, 43294, Note_on_c, 0, 43, 81
1, 43329, Note_off_c, 0, 48, 62
1, 43332, Note_off_c, 0, 40, 64
1, 43335, Note_off_c, 0, 43, 63
1, 43426, Note_on_c, 0, 67, 85
1, 43429, Note_on_c, 0, 64, 78
1, 43431, Note_on_c, 0, 60, 76
1, 43472, Note_off_c, 0, 60, 58
1, 43481, Note_off_c, 0, 64, 62
1, 43502, Note_off_c, 0, 67, 63
1, 43544, Note_on_c, 0, 48, 79
1, 43546, Note_on_c, 0, 43, 78
1, 43547, Note_on_c, 0, 40, 79
1, 43608, Note_off_c, 0, 40, 58
1, 43612, Note_off_c, 0, 43, 59
1, 43612, Note_off_c, 0, 48, 57
1, 43690, Note_on_c, 0, 72, 92
1, 43696, Note_on_c, 0, 64, 80
1, 43696, Note_on_c, 0, 67, 79
1, 43745, Note_off_c, 0, 64, 62
1, 43750, Note_off_c, 0, 67, 62
1, 43773, Note_off_c, 0, 72, 61
1, 43798, Note_on_c, 0, 43, 80
1, 43799, Note_on_c, 0, 48, 79
1, 43800, Note_on_c, 0, 40, 78
1, 43865, Note_off_c, 0, 40, 61
1, 43865, Note_off_c, 0, 43, 58
1, 43899, Note_off_c, 0, 48, 50
1, 43936, Note_on_c, 0, 72, 73
1, 43938, Note_on_c, 0, 76, 88
1, 43945, Note_on_c, 0, 67, 76
1, 43988, Note_off_c, 0, 67, 59
1, 43999, Note_off_c, 0, 72, 60
1, 44022, Note_off_c, 0, 76, 62
1, 44049, Note_on_c, 0, 43, 74
1, 44050, Note_on_c, 0, 40, 76
1, 44051, Note_on_c, 0, 48, 77
1, 44104, Note_off_c, 0, 43, 57
1, 44127, Note_off_c, 0, 40, 57
1, 44153, Note_off_c, 0, 48, 51
1, 44185, Note_on_c, 0, 79, 89
1, 44188, Note_on_c, 0, 76, 77
1, 44189, Note_on_c, 0, 72, 73
1, 44238, Note_off_c, 0, 72, 58
1, 44241, Note_off_c, 0, 76, 60
1, 44265, Note_off_c, 0, 79, 64
1, 44308, Note_on_c, 0, 40, 72
1, 44313, Note_on_c, 0, 48, 75
1, 44315, Note_on_c, 0, 43, 67
1, 44360, Note_off_c, 0, 48, 58
1, 44364, Note_off_c, 0, 40, 64
1, 44390, Note_off_c, 0, 43, 59
1, 44477, Note_on_c, 0, 84, 86
1, 44485, Note_on_c, 0, 76, 73
1, 44485, Note_on_c, 0, 79, 73
1, 44508, Note_off_c, 0, 79, 68
1, 44509, Note_off_c, 0, 76, 66
1, 44522, Note_off_c, 0, 84, 65
1, 44683, Control_c, 0, 64, 117
1, 44698, Control_c, 0, 64, 114
1, 44727, Control_c, 0, 64, 111
1, 44757, Control_c, 0, 64, 108
1, 44772, Control_c, 0, 64, 105
1, 44787, Control_c, 0, 64, 103
1, 44817, Control_c, 0, 64, 100
1, 44831, Control_c, 0, 64, 97
1, 44846, Control_c, 0, 64, 92
1, 44861, Control_c, 0, 64, 86
1, 44875, Control_c, 0, 64, 80
1, 44890, Control_c, 0, 64, 75
1, 44905, Control_c, 0, 64, 71
1, 44920, Control_c, 0, 64, 68
1, 44935, Control_c, 0, 64, 66
1, 44949, Control_c, 0, 64, 64
1, 44961, Note_on_c, 0, 72, 56
1, 44964, Control_c, 0, 64, 34
1, 44968, Note_on_c, 0, 67, 39
1, 44970, Note_on_c, 0, 64, 36
1, 44979, Control_c, 0, 64, 0
1, 45402, Control_c, 0, 64, 63
1, 45417, Control_c, 0, 64, 66
1, 45431, Control_c, 0, 64, 68
1, 45446, Control_c, 0, 64, 69
1, 45461, Control_c, 0, 64, 71
1, 45476, Control_c, 0, 64, 73
1, 45490, Note_off_c, 0, 64, 59
1, 45491, Control_c, 0, 64, 76
1, 45505, Control_c, 0, 64, 79
1, 45520, Control_c, 0, 64, 82
1, 45535, Control_c, 0, 64, 83
1, 45550, Control_c, 0, 64, 85
1, 45565, Control_c, 0, 64, 86
1, 45580, Control_c, 0, 64, 86
1, 45595, Control_c, 0, 64, 87
1, 45622, Note_off_c, 0, 67, 58
1, 45624, Control_c, 0, 64, 87
1, 45654, Control_c, 0, 64, 88
1, 45773, Note_on_c, 0, 74, 48
1, 45866, Note_off_c, 0, 72, 59
1, 45972, Control_c, 0, 64, 87
1, 45987, Control_c, 0, 64, 85
1, 46002, Control_c, 0, 64, 79
1, 46009, Note_on_c, 0, 71, 49
1, 46009, Note_on_c, 0, 76, 58
1, 46010, Note_on_c, 0, 65, 44
1, 46016, Note_on_c, 0, 68, 41
1, 46017, Control_c, 0, 64, 71
1, 46031, Control_c, 0, 64, 0
1, 46039, Note_off_c, 0, 74, 61
1, 46131, Note_off_c, 0, 76, 61
1, 46149, Control_c, 0, 64, 65
1, 46150, Note_on_c, 0, 74, 66
1, 46164, Control_c, 0, 64, 71
1, 46181, Control_c, 0, 64, 76
1, 46196, Control_c, 0, 64, 81
1, 46210, Control_c, 0, 64, 86
1, 46214, Note_off_c, 0, 74, 61
1, 46224, Control_c, 0, 64, 91
1, 46239, Control_c, 0, 64, 94
1, 46250, Note_on_c, 0, 76, 58
1, 46254, Control_c, 0, 64, 97
1, 46268, Control_c, 0, 64, 100
1, 46269, Note_off_c, 0, 76, 61
1, 46283, Control_c, 0, 64, 103
1, 46298, Control_c, 0, 64, 107
1, 46313, Control_c, 0, 64, 110
1, 46316, Note_on_c, 0, 74, 60
1, 46328, Control_c, 0, 64, 115
1, 46334, Note_off_c, 0, 74, 66
1, 46343, Control_c, 0, 64, 120
1, 46358, Control_c, 0, 64, 127
1, 46366, Note_on_c, 0, 76, 48
1, 46391, Note_off_c, 0, 76, 56
1, 46413, Note_on_c, 0, 74, 64
1, 46443, Note_off_c, 0, 74, 61
1, 46477, Note_on_c, 0, 76, 57
1, 46498, Note_off_c, 0, 76, 62
1, 46525, Note_on_c, 0, 74, 61
1, 46556, Note_off_c, 0, 74, 65
1, 46575, Note_on_c, 0, 76, 59
1, 46614, Note_off_c, 0, 76, 59
1, 46616, Note_off_c, 0, 71, 58
1, 46649, Note_on_c, 0, 74, 26
1, 46677, Note_on_c, 0, 76, 71
1, 46692, Note_off_c, 0, 68, 63
1, 46695, Note_off_c, 0, 74, 0
1, 46695, Note_on_c, 0, 74, 34
1, 46700, Note_off_c, 0, 65, 63
1, 46710, Note_off_c, 0, 76, 63
1, 46748, Note_off_c, 0, 74, 62
1, 46752, Note_on_c, 0, 72, 75
1, 46802, Note_off_c, 0, 72, 59
1, 46808, Note_on_c, 0, 76, 76
1, 46882, Note_on_c, 0, 74, 82
1, 46886, Note_off_c, 0, 76, 62
1, 46924, Note_off_c, 0, 74, 61
1, 46927, Control_c, 0, 64, 115
1, 46942, Control_c, 0, 64, 78
1, 46957, Control_c, 0, 64, 0
1, 46985, Note_on_c, 0, 52, 83
1, 46986, Note_on_c, 0, 60, 90
1, 46987, Note_on_c, 0, 55, 89
1, 47017, Control_c, 0, 64, 69
1, 47032, Control_c, 0, 64, 83
1, 47035, Note_off_c, 0, 60, 61
1, 47047, Control_c, 0, 64, 101
1, 47061, Note_off_c, 0, 55, 64
1, 47062, Control_c, 0, 64, 127
1, 47078, Note_off_c, 0, 52, 61
1, 47184, Note_on_c, 0, 55, 79
1, 47187, Note_on_c, 0, 64, 78
1, 47190, Note_on_c, 0, 60, 72
1, 47239, Note_off_c, 0, 60, 56
1, 47240, Note_off_c, 0, 55, 59
1, 47261, Note_off_c, 0, 64, 64
1, 47319, Note_on_c, 0, 48, 79
1, 47321, Note_on_c, 0, 40, 80
1, 47325, Note_on_c, 0, 43, 77
1, 47371, Note_off_c, 0, 43, 63
1, 47372, Note_off_c, 0, 48, 59
1, 47375, Note_off_c, 0, 40, 62
1, 47452, Note_on_c, 0, 67, 81
1, 47454, Note_on_c, 0, 64, 72
1, 47459, Note_on_c, 0, 60, 77
1, 47511, Note_off_c, 0, 60, 60
1, 47525, Note_off_c, 0, 64, 64
1, 47540, Note_off_c, 0, 67, 63
1, 47578, Note_on_c, 0, 40, 80
1, 47578, Note_on_c, 0, 43, 82
1, 47582, Note_on_c, 0, 48, 80
1, 47640, Note_off_c, 0, 43, 59
1, 47640, Note_off_c, 0, 48, 60
1, 47645, Note_off_c, 0, 40, 62
1, 47710, Note_on_c, 0, 72, 90
1, 47716, Note_on_c, 0, 67, 81
1, 47717, Note_on_c, 0, 64, 77
1, 47770, Note_off_c, 0, 64, 64
1, 47777, Note_off_c, 0, 67, 63
1, 47801, Note_off_c, 0, 72, 61
1, 47827, Note_on_c, 0, 43, 84
1, 47830, Note_on_c, 0, 48, 80
1, 47831, Note_on_c, 0, 40, 77
1, 47900, Note_off_c, 0, 40, 60
1, 47909, Note_off_c, 0, 43, 58
1, 47915, Note_off_c, 0, 48, 59
1, 47962, Note_on_c, 0, 72, 79
1, 47962, Note_on_c, 0, 76, 90
1, 47968, Note_on_c, 0, 67, 80
1, 48016, Note_off_c, 0, 67, 61
1, 48024, Note_off_c, 0, 72, 61
1, 48050, Note_off_c, 0, 76, 61
1, 48075, Note_on_c, 0, 43, 79
1, 48077, Note_on_c, 0, 48, 77
1, 48078, Note_on_c, 0, 40, 69
1, 48133, Note_off_c, 0, 43, 62
1, 48135, Note_off_c, 0, 40, 60
1, 48142, Note_off_c, 0, 48, 58
1, 48218, Note_on_c, 0, 79, 89
1, 48222, Note_on_c, 0, 76, 81
1, 48224, Note_on_c, 0, 72, 81
1, 48257, Note_off_c, 0, 72, 57
1, 48275, Note_off_c, 0, 76, 59
1, 48306, Note_off_c, 0, 79, 64
1, 48338, Note_on_c, 0, 40, 79
1, 48340, Note_on_c, 0, 43, 67
1, 48341, Note_on_c, 0, 48, 77
1, 48373, Note_off_c, 0, 48, 65
1, 48375, Note_off_c, 0, 40, 65
1, 48395, Note_off_c, 0, 43, 61
1, 48492, Note_on_c, 0, 84, 88
1, 48501, Note_on_c, 0, 76, 74
1, 48504, Note_on_c, 0, 79, 73
1, 48521, Note_off_c, 0, 79, 70
1, 48524, Note_off_c, 0, 76, 67
1, 48536, Note_off_c, 0, 84, 67
1, 48693, Control_c, 0, 64, 115
1, 48708, Control_c, 0, 64, 110
1, 48737, Control_c, 0, 64, 108
1, 48752, Control_c, 0, 64, 105
1, 48766, Control_c, 0, 64, 100
1, 48781, Control_c, 0, 64, 95
1, 48796, Control_c, 0, 64, 89
1, 48811, Control_c, 0, 64, 84
1, 48826, Control_c, 0, 64, 79
1, 48848, Control_c, 0, 64, 74
1, 48863, Control_c, 0, 64, 70
1, 48878, Control_c, 0, 64, 67
1, 48893, Control_c, 0, 64, 65
1, 48908, Control_c, 0, 64, 64
1, 48922, Control_c, 0, 64, 50
1, 48937, Control_c, 0, 64, 0
1, 48965, Note_on_c, 0, 72, 58
1, 48986, Note_on_c, 0, 67, 35
1, 48988, Note_on_c, 0, 64, 33
1, 49383, Control_c, 0, 64, 64
1, 49397, Control_c, 0, 64, 66
1, 49412, Control_c, 0, 64, 68
1, 49427, Control_c, 0, 64, 70
1, 49442, Control_c, 0, 64, 73
1, 49457, Control_c, 0, 64, 76
1, 49471, Control_c, 0, 64, 80
1, 49486, Control_c, 0, 64, 83
1, 49501, Control_c, 0, 64, 86
1, 49516, Control_c, 0, 64, 90
1, 49531, Control_c, 0, 64, 92
1, 49540, Note_off_c, 0, 64, 60
1, 49545, Control_c, 0, 64, 94
1, 49560, Control_c, 0, 64, 96
1, 49597, Control_c, 0, 64, 99
1, 49642, Control_c, 0, 64, 101
1, 49730, Note_off_c, 0, 67, 28
1, 49828, Note_on_c, 0, 73, 47
1, 49952, Note_off_c, 0, 72, 56
1, 50042, Control_c, 0, 64, 99
1, 50086, Control_c, 0, 64, 96
1, 50101, Control_c, 0, 64, 95
1, 50115, Control_c, 0, 64, 94
1, 50130, Control_c, 0, 64, 91
1, 50145, Control_c, 0, 64, 87
1, 50156, Note_on_c, 0, 72, 51
1, 50160, Control_c, 0, 64, 82
1, 50170, Note_on_c, 0, 63, 35
1, 50176, Control_c, 0, 64, 77
1, 50183, Note_on_c, 0, 67, 23
1, 50191, Control_c, 0, 64, 73
1, 50203, Note_off_c, 0, 73, 52
1, 50206, Control_c, 0, 64, 68
1, 50220, Control_c, 0, 64, 64
1, 50235, Control_c, 0, 64, 0
1, 50433, Note_on_c, 0, 73, 44
1, 50462, Note_off_c, 0, 72, 47
1, 50480, Control_c, 0, 64, 64
1, 50494, Control_c, 0, 64, 68
1, 50509, Control_c, 0, 64, 70
1, 50524, Control_c, 0, 64, 72
1, 50539, Control_c, 0, 64, 75
1, 50553, Control_c, 0, 64, 78
1, 50555, Note_off_c, 0, 73, 59
1, 50568, Control_c, 0, 64, 81
1, 50583, Control_c, 0, 64, 84
1, 50587, Note_on_c, 0, 75, 41
1, 50598, Control_c, 0, 64, 86
1, 50612, Control_c, 0, 64, 88
1, 50627, Control_c, 0, 64, 89
1, 50638, Note_off_c, 0, 75, 47
1, 50642, Control_c, 0, 64, 91
1, 50657, Control_c, 0, 64, 93
1, 50672, Control_c, 0, 64, 94
1, 50675, Note_on_c, 0, 73, 57
1, 50687, Control_c, 0, 64, 96
1, 50709, Note_off_c, 0, 73, 61
1, 50731, Control_c, 0, 64, 98
1, 50742, Note_on_c, 0, 75, 58
1, 50761, Control_c, 0, 64, 100
1, 50764, Note_off_c, 0, 75, 64
1, 50799, Note_on_c, 0, 73, 62
1, 50820, Control_c, 0, 64, 102
1, 50830, Note_off_c, 0, 73, 63
1, 50869, Note_on_c, 0, 75, 42
1, 50894, Control_c, 0, 64, 105
1, 50895, Note_off_c, 0, 75, 56
1, 50912, Note_on_c, 0, 73, 63
1, 50939, Control_c, 0, 64, 107
1, 50940, Note_off_c, 0, 73, 64
1, 50968, Note_on_c, 0, 75, 61
1, 50987, Note_off_c, 0, 75, 66
1, 50999, Control_c, 0, 64, 109
1, 51003, Note_on_c, 0, 73, 67
1, 51035, Note_off_c, 0, 73, 62
1, 51059, Note_on_c, 0, 75, 68
1, 51095, Control_c, 0, 64, 111
1, 51119, Note_on_c, 0, 73, 62
1, 51127, Note_off_c, 0, 75, 61
1, 51148, Note_off_c, 0, 73, 64
1, 51175, Note_on_c, 0, 72, 63
1, 51214, Control_c, 0, 64, 109
1, 51243, Control_c, 0, 64, 107
1, 51273, Control_c, 0, 64, 105
1, 51276, Note_on_c, 0, 73, 61
1, 51277, Note_off_c, 0, 72, 58
1, 51303, Control_c, 0, 64, 102
1, 51307, Note_off_c, 0, 73, 64
1, 51332, Control_c, 0, 64, 99
1, 51362, Control_c, 0, 64, 96
1, 51376, Control_c, 0, 64, 95
1, 51391, Control_c, 0, 64, 94
1, 51406, Control_c, 0, 64, 92
1, 51421, Control_c, 0, 64, 89
1, 51436, Control_c, 0, 64, 84
1, 51450, Control_c, 0, 64, 75
1, 51465, Control_c, 0, 64, 65
1, 51479, Note_on_c, 0, 82, 55
1, 51480, Control_c, 0, 64, 0
1, 51485, Note_on_c, 0, 79, 50
1, 51547, Note_off_c, 0, 79, 0
1, 51547, Note_on_c, 0, 79, 24
1, 51598, Control_c, 0, 64, 23
1, 51610, Note_off_c, 0, 67, 53
1, 51613, Control_c, 0, 64, 67
1, 51628, Control_c, 0, 64, 70
1, 51631, Note_on_c, 0, 75, 55
1, 51643, Control_c, 0, 64, 71
1, 51648, Note_off_c, 0, 63, 60
1, 51655, Note_off_c, 0, 75, 62
1, 51658, Control_c, 0, 64, 73
1, 51673, Control_c, 0, 64, 74
1, 51687, Control_c, 0, 64, 75
1, 51747, Note_on_c, 0, 75, 58
1, 51762, Control_c, 0, 64, 75
1, 51777, Control_c, 0, 64, 74
1, 51784, Note_off_c, 0, 75, 63
1, 51792, Control_c, 0, 64, 72
1, 51807, Control_c, 0, 64, 69
1, 51822, Control_c, 0, 64, 66
1, 51844, Control_c, 0, 64, 65
1, 51873, Control_c, 0, 64, 64
1, 51881, Note_on_c, 0, 75, 58
1, 51888, Control_c, 0, 64, 55
1, 51903, Control_c, 0, 64, 0
1, 51920, Note_off_c, 0, 75, 63
1, 52004, Note_on_c, 0, 75, 61
1, 52036, Note_off_c, 0, 75, 64
1, 52119, Note_on_c, 0, 75, 58
1, 52155, Note_off_c, 0, 75, 64
1, 52169, Note_off_c, 0, 82, 58
1, 52179, Note_off_c, 0, 79, 43
1, 52230, Note_on_c, 0, 75, 65
1, 52263, Note_off_c, 0, 75, 64
1, 52352, Note_on_c, 0, 75, 58
1, 52388, Note_off_c, 0, 75, 63
1, 52471, Note_on_c, 0, 75, 61
1, 52506, Note_off_c, 0, 75, 64
1, 52605, Note_on_c, 0, 75, 58
1, 52642, Note_off_c, 0, 75, 64
1, 52721, Note_on_c, 0, 75, 62
1, 52756, Note_off_c, 0, 75, 63
1, 52855, Note_on_c, 0, 75, 50
1, 52878, Note_off_c, 0, 75, 60
1, 52972, Note_on_c, 0, 83, 59
1, 52978, Note_on_c, 0, 80, 48
1, 53008, Control_c, 0, 64, 61
1, 53022, Control_c, 0, 64, 66
1, 53037, Control_c, 0, 64, 67
1, 53052, Control_c, 0, 64, 68
1, 53067, Control_c, 0, 64, 69
1, 53082, Control_c, 0, 64, 71
1, 53096, Control_c, 0, 64, 72
1, 53109, Note_on_c, 0, 75, 46
1, 53111, Control_c, 0, 64, 73
1, 53126, Control_c, 0, 64, 74
1, 53133, Note_off_c, 0, 75, 57
1, 53155, Control_c, 0, 64, 75
1, 53185, Control_c, 0, 64, 75
1, 53200, Control_c, 0, 64, 75
1, 53214, Control_c, 0, 64, 74
1, 53219, Note_on_c, 0, 75, 37
1, 53229, Control_c, 0, 64, 72
1, 53244, Control_c, 0, 64, 66
1, 53248, Note_off_c, 0, 75, 52
1, 53259, Control_c, 0, 64, 0
1, 53312, Note_on_c, 0, 71, 55
1, 53339, Note_on_c, 0, 68, 43
1, 53372, Note_off_c, 0, 71, 58
1, 53386, Control_c, 0, 64, 68
1, 53388, Note_off_c, 0, 68, 59
1, 53401, Control_c, 0, 64, 72
1, 53416, Control_c, 0, 64, 74
1, 53431, Note_off_c, 0, 80, 57
1, 53431, Control_c, 0, 64, 75
1, 53443, Note_off_c, 0, 83, 59
1, 53445, Control_c, 0, 64, 77
1, 53456, Note_on_c, 0, 75, 59
1, 53460, Control_c, 0, 64, 77
1, 53479, Note_off_c, 0, 75, 60
1, 53549, Control_c, 0, 64, 77
1, 53563, Note_on_c, 0, 75, 58
1, 53563, Control_c, 0, 64, 76
1, 53578, Control_c, 0, 64, 74
1, 53593, Control_c, 0, 64, 71
1, 53599, Note_off_c, 0, 75, 62
1, 53608, Control_c, 0, 64, 67
1, 53623, Control_c, 0, 64, 64
1, 53637, Control_c, 0, 64, 51
1, 53652, Control_c, 0, 64, 0
1, 53683, Note_on_c, 0, 75, 63
1, 53716, Note_off_c, 0, 75, 64
1, 53801, Note_on_c, 0, 75, 59
1, 53837, Note_off_c, 0, 75, 63
1, 53917, Note_on_c, 0, 75, 66
1, 53952, Note_off_c, 0, 75, 60
1, 54032, Note_on_c, 0, 75, 65
1, 54063, Note_off_c, 0, 75, 64
1, 54154, Note_on_c, 0, 75, 64
1, 54188, Note_off_c, 0, 75, 61
1, 54265, Note_on_c, 0, 75, 67
1, 54302, Note_off_c, 0, 75, 59
1, 54386, Note_on_c, 0, 88, 76
1, 54394, Note_on_c, 0, 83, 60
1, 54398, Note_on_c, 0, 80, 62
1, 54446, Control_c, 0, 64, 64
1, 54461, Control_c, 0, 64, 68
1, 54476, Control_c, 0, 64, 71
1, 54491, Control_c, 0, 64, 74
1, 54498, Note_on_c, 0, 75, 57
1, 54506, Control_c, 0, 64, 78
1, 54520, Control_c, 0, 64, 82
1, 54535, Control_c, 0, 64, 85
1, 54540, Note_off_c, 0, 75, 59
1, 54550, Control_c, 0, 64, 87
1, 54565, Control_c, 0, 64, 89
1, 54580, Control_c, 0, 64, 90
1, 54594, Control_c, 0, 64, 91
1, 54609, Control_c, 0, 64, 92
1, 54618, Note_on_c, 0, 75, 58
1, 54624, Control_c, 0, 64, 93
1, 54639, Control_c, 0, 64, 93
1, 54643, Note_off_c, 0, 75, 57
1, 54684, Control_c, 0, 64, 94
1, 54735, Note_on_c, 0, 71, 52
1, 54751, Note_on_c, 0, 68, 36
1, 54773, Control_c, 0, 64, 94
1, 54785, Note_off_c, 0, 68, 53
1, 54786, Note_off_c, 0, 71, 57
1, 54863, Note_on_c, 0, 75, 58
1, 54886, Note_off_c, 0, 75, 59
1, 54980, Note_on_c, 0, 75, 55
1, 55010, Note_off_c, 0, 75, 52
1, 55083, Note_on_c, 0, 68, 47
1, 55086, Note_on_c, 0, 71, 48
1, 55130, Note_off_c, 0, 68, 56
1, 55137, Note_off_c, 0, 71, 57
1, 55205, Note_on_c, 0, 75, 51
1, 55234, Note_off_c, 0, 75, 52
1, 55303, Note_on_c, 0, 75, 53
1, 55339, Note_off_c, 0, 75, 49
1, 55387, Note_off_c, 0, 80, 21
1, 55420, Note_on_c, 0, 71, 50
1, 55429, Note_on_c, 0, 68, 41
1, 55465, Note_off_c, 0, 68, 49
1, 55470, Note_off_c, 0, 71, 55
1, 55541, Note_on_c, 0, 75, 52
1, 55557, Note_off_c, 0, 83, 40
1, 55565, Note_off_c, 0, 75, 58
1, 55631, Control_c, 0, 64, 94
1, 55655, Note_on_c, 0, 75, 64
1, 55661, Control_c, 0, 64, 93
1, 55676, Control_c, 0, 64, 92
1, 55681, Note_off_c, 0, 75, 58
1, 55691, Control_c, 0, 64, 87
1, 55706, Control_c, 0, 64, 77
1, 55715, Note_off_c, 0, 88, 59
1, 55721, Control_c, 0, 64, 54
1, 55735, Control_c, 0, 64, 0
1, 55787, Note_on_c, 0, 70, 57
1, 55790, Note_on_c, 0, 87, 56
1, 55798, Note_on_c, 0, 67, 55
1, 55799, Note_on_c, 0, 82, 47
1, 55805, Note_on_c, 0, 79, 44
1, 55825, Control_c, 0, 64, 68
1, 55826, Note_off_c, 0, 70, 65
1, 55831, Note_off_c, 0, 67, 65
1, 55840, Control_c, 0, 64, 73
1, 55855, Control_c, 0, 64, 77
1, 55870, Control_c, 0, 64, 81
1, 55885, Control_c, 0, 64, 83
1, 55900, Control_c, 0, 64, 84
1, 55915, Control_c, 0, 64, 85
1, 55973, Note_on_c, 0, 63, 52
1, 55998, Note_off_c, 0, 63, 59
1, 56033, Control_c, 0, 64, 84
1, 56048, Control_c, 0, 64, 84
1, 56063, Control_c, 0, 64, 83
1, 56078, Control_c, 0, 64, 82
1, 56079, Note_on_c, 0, 63, 63
1, 56092, Control_c, 0, 64, 82
1, 56107, Control_c, 0, 64, 80
1, 56112, Note_off_c, 0, 63, 64
1, 56122, Control_c, 0, 64, 78
1, 56137, Control_c, 0, 64, 75
1, 56152, Control_c, 0, 64, 72
1, 56166, Control_c, 0, 64, 70
1, 56181, Control_c, 0, 64, 69
1, 56192, Note_on_c, 0, 63, 58
1, 56196, Control_c, 0, 64, 68
1, 56211, Control_c, 0, 64, 67
1, 56226, Control_c, 0, 64, 65
1, 56230, Note_off_c, 0, 63, 60
1, 56240, Control_c, 0, 64, 64
1, 56255, Control_c, 0, 64, 53
1, 56269, Note_off_c, 0, 79, 43
1, 56270, Note_off_c, 0, 87, 59
1, 56270, Control_c, 0, 64, 13
1, 56284, Control_c, 0, 64, 0
1, 56287, Note_off_c, 0, 82, 53
1, 56320, Note_on_c, 0, 63, 59
1, 56359, Note_off_c, 0, 63, 63
1, 56436, Note_on_c, 0, 63, 58
1, 56472, Note_off_c, 0, 63, 63
1, 56548, Note_on_c, 0, 63, 59
1, 56585, Note_off_c, 0, 63, 63
1, 56669, Note_on_c, 0, 63, 53
1, 56702, Note_off_c, 0, 63, 58
1, 56797, Note_on_c, 0, 63, 48
1, 56823, Note_off_c, 0, 63, 57
1, 56916, Note_on_c, 0, 63, 50
1, 56920, Note_on_c, 0, 82, 52
1, 56929, Note_on_c, 0, 79, 47
1, 56944, Note_off_c, 0, 63, 57
1, 57032, Note_on_c, 0, 63, 55
1, 57071, Note_off_c, 0, 63, 63
1, 57103, Note_off_c, 0, 79, 59
1, 57120, Note_off_c, 0, 82, 61
1, 57166, Note_on_c, 0, 63, 55
1, 57202, Note_off_c, 0, 63, 63
1, 57220, Note_on_c, 0, 79, 58
1, 57221, Note_on_c, 0, 82, 58
1, 57238, Note_off_c, 0, 82, 64
1, 57250, Note_off_c, 0, 79, 65
1, 57282, Note_on_c, 0, 63, 60
1, 57295, Note_on_c, 0, 83, 64
1, 57298, Note_on_c, 0, 80, 60
1, 57319, Note_off_c, 0, 63, 62
1, 57411, Note_on_c, 0, 63, 53
1, 57453, Note_off_c, 0, 63, 62
1, 57501, Note_off_c, 0, 83, 54
1, 57530, Note_off_c, 0, 80, 48
1, 57535, Note_on_c, 0, 63, 56
1, 57539, Note_on_c, 0, 82, 61
1, 57540, Note_on_c, 0, 79, 56
1, 57566, Note_off_c, 0, 63, 63
1, 57568, Note_off_c, 0, 82, 64
1, 57571, Note_off_c, 0, 79, 65
1, 57653, Note_on_c, 0, 63, 57
1, 57692, Note_off_c, 0, 63, 63
1, 57769, Note_on_c, 0, 63, 64
1, 57805, Note_off_c, 0, 63, 62
1, 57898, Note_on_c, 0, 70, 61
1, 57903, Note_on_c, 0, 67, 53
1, 57903, Note_on_c, 0, 63, 49
1, 57926, Note_off_c, 0, 67, 57
1, 57928, Note_off_c, 0, 70, 66
1, 57934, Note_off_c, 0, 63, 54
1, 58018, Note_on_c, 0, 63, 66
1, 58049, Note_off_c, 0, 63, 64
1, 58122, Note_on_c, 0, 63, 60
1, 58165, Note_off_c, 0, 63, 60
1, 58241, Note_on_c, 0, 63, 58
1, 58243, Note_on_c, 0, 58, 59
1, 58245, Note_on_c, 0, 55, 51
1, 58267, Note_off_c, 0, 63, 62
1, 58272, Note_off_c, 0, 55, 54
1, 58273, Note_off_c, 0, 58, 64
1, 58347, Note_on_c, 0, 58, 59
1, 58348, Note_on_c, 0, 61, 66
1, 58384, Control_c, 0, 64, 69
1, 58388, Note_off_c, 0, 58, 62
1, 58388, Note_off_c, 0, 61, 59
1, 58399, Control_c, 0, 64, 73
1, 58414, Control_c, 0, 64, 79
1, 58428, Control_c, 0, 64, 83
1, 58443, Control_c, 0, 64, 86
1, 58458, Control_c, 0, 64, 87
1, 58469, Note_on_c, 0, 63, 60
1, 58473, Control_c, 0, 64, 87
1, 58490, Note_off_c, 0, 63, 63
1, 58547, Control_c, 0, 64, 87
1, 58561, Note_on_c, 0, 63, 68
1, 58599, Control_c, 0, 64, 86
1, 58613, Note_off_c, 0, 63, 60
1, 58614, Control_c, 0, 64, 84
1, 58629, Control_c, 0, 64, 79
1, 58643, Control_c, 0, 64, 71
1, 58644, Note_on_c, 0, 82, 67
1, 58648, Note_on_c, 0, 79, 60
1, 58658, Control_c, 0, 64, 64
1, 58666, Note_off_c, 0, 82, 65
1, 58673, Control_c, 0, 64, 0
1, 58685, Note_off_c, 0, 79, 63
1, 58709, Note_on_c, 0, 63, 60
1, 58714, Note_on_c, 0, 85, 73
1, 58725, Note_on_c, 0, 82, 70
1, 58748, Note_off_c, 0, 63, 61
1, 58832, Note_on_c, 0, 63, 59
1, 58875, Note_off_c, 0, 63, 60
1, 58919, Note_off_c, 0, 85, 63
1, 58934, Note_off_c, 0, 82, 57
1, 58958, Note_on_c, 0, 63, 65
1, 58961, Note_on_c, 0, 83, 70
1, 58976, Note_on_c, 0, 80, 61
1, 58988, Note_off_c, 0, 83, 65
1, 58995, Note_off_c, 0, 80, 66
1, 58997, Note_off_c, 0, 63, 64
1, 59085, Note_on_c, 0, 63, 68
1, 59122, Note_off_c, 0, 63, 62
1, 59200, Note_on_c, 0, 63, 69
1, 59234, Note_off_c, 0, 63, 62
1, 59318, Note_on_c, 0, 71, 66
1, 59319, Note_on_c, 0, 63, 62
1, 59319, Note_on_c, 0, 68, 63
1, 59355, Note_off_c, 0, 71, 66
1, 59357, Note_off_c, 0, 68, 67
1, 59367, Note_off_c, 0, 63, 61
1, 59445, Note_on_c, 0, 63, 67
1, 59479, Note_off_c, 0, 63, 62
1, 59553, Note_on_c, 0, 63, 56
1, 59591, Note_off_c, 0, 63, 61
1, 59664, Note_on_c, 0, 63, 68
1, 59668, Note_on_c, 0, 59, 68
1, 59690, Note_on_c, 0, 56, 43
1, 59700, Note_off_c, 0, 59, 63
1, 59702, Note_off_c, 0, 63, 60
1, 59716, Note_off_c, 0, 56, 51
1, 59772, Note_on_c, 0, 59, 53
1, 59790, Note_on_c, 0, 56, 59
1, 59807, Control_c, 0, 64, 67
1, 59822, Control_c, 0, 64, 72
1, 59832, Note_off_c, 0, 56, 64
1, 59837, Control_c, 0, 64, 76
1, 59839, Note_off_c, 0, 59, 57
1, 59851, Control_c, 0, 64, 79
1, 59866, Control_c, 0, 64, 82
1, 59881, Control_c, 0, 64, 85
1, 59896, Control_c, 0, 64, 86
1, 59903, Note_on_c, 0, 63, 65
1, 59937, Note_off_c, 0, 63, 62
1, 59970, Control_c, 0, 64, 85
1, 59985, Control_c, 0, 64, 85
1, 59998, Note_on_c, 0, 63, 68
1, 60000, Control_c, 0, 64, 84
1, 60014, Control_c, 0, 64, 83
1, 60029, Control_c, 0, 64, 82
1, 60030, Note_off_c, 0, 63, 63
1, 60044, Control_c, 0, 64, 81
1, 60058, Control_c, 0, 64, 79
1, 60081, Control_c, 0, 64, 79
1, 60091, Note_on_c, 0, 83, 73
1, 60096, Note_on_c, 0, 80, 67
1, 60096, Control_c, 0, 64, 78
1, 60111, Control_c, 0, 64, 78
1, 60124, Note_off_c, 0, 80, 65
1, 60126, Control_c, 0, 64, 77
1, 60127, Note_off_c, 0, 83, 61
1, 60155, Control_c, 0, 64, 77
1, 60229, Control_c, 0, 64, 76
1, 60244, Control_c, 0, 64, 74
1, 60258, Control_c, 0, 64, 70
1, 60265, Note_on_c, 0, 88, 86
1, 60273, Control_c, 0, 64, 65
1, 60277, Note_on_c, 0, 83, 67
1, 60285, Note_on_c, 0, 80, 71
1, 60288, Control_c, 0, 64, 0
1, 60427, Note_on_c, 0, 63, 48
1, 60437, Control_c, 0, 64, 60
1, 60451, Control_c, 0, 64, 67
1, 60460, Note_off_c, 0, 63, 52
1, 60465, Control_c, 0, 64, 70
1, 60480, Control_c, 0, 64, 72
1, 60495, Control_c, 0, 64, 75
1, 60510, Control_c, 0, 64, 78
1, 60524, Control_c, 0, 64, 80
1, 60539, Note_on_c, 0, 63, 44
1, 60539, Control_c, 0, 64, 81
1, 60555, Control_c, 0, 64, 82
1, 60570, Control_c, 0, 64, 83
1, 60585, Control_c, 0, 64, 84
1, 60600, Control_c, 0, 64, 85
1, 60608, Note_off_c, 0, 63, 38
1, 60615, Control_c, 0, 64, 86
1, 60629, Control_c, 0, 64, 87
1, 60644, Control_c, 0, 64, 88
1, 60659, Control_c, 0, 64, 89
1, 60663, Note_on_c, 0, 59, 47
1, 60672, Note_on_c, 0, 56, 33
1, 60673, Control_c, 0, 64, 90
1, 60688, Control_c, 0, 64, 91
1, 60703, Control_c, 0, 64, 92
1, 60718, Control_c, 0, 64, 93
1, 60728, Note_off_c, 0, 56, 43
1, 60733, Control_c, 0, 64, 95
1, 60747, Control_c, 0, 64, 97
1, 60762, Control_c, 0, 64, 99
1, 60782, Note_on_c, 0, 63, 57
1, 60791, Control_c, 0, 64, 102
1, 60800, Note_off_c, 0, 59, 27
1, 60818, Note_off_c, 0, 63, 63
1, 60829, Control_c, 0, 64, 105
1, 60873, Control_c, 0, 64, 107
1, 60896, Note_off_c, 0, 80, 53
1, 60902, Note_on_c, 0, 63, 53
1, 60918, Control_c, 0, 64, 109
1, 60943, Note_off_c, 0, 63, 59
1, 60977, Control_c, 0, 64, 111
1, 60998, Note_off_c, 0, 83, 55
1, 61024, Note_on_c, 0, 59, 43
1, 61027, Note_on_c, 0, 56, 37
1, 61066, Control_c, 0, 64, 113
1, 61078, Note_off_c, 0, 56, 50
1, 61139, Note_on_c, 0, 63, 53
1, 61150, Note_off_c, 0, 59, 27
1, 61155, Control_c, 0, 64, 115
1, 61165, Note_off_c, 0, 63, 60
1, 61185, Control_c, 0, 64, 117
1, 61199, Control_c, 0, 64, 119
1, 61214, Control_c, 0, 64, 121
1, 61229, Control_c, 0, 64, 124
1, 61244, Control_c, 0, 64, 127
1, 61268, Note_on_c, 0, 63, 40
1, 61294, Note_off_c, 0, 63, 55
1, 61368, Note_on_c, 0, 56, 38
1, 61370, Note_on_c, 0, 59, 36
1, 61425, Note_off_c, 0, 59, 40
1, 61493, Note_on_c, 0, 63, 49
1, 61522, Note_off_c, 0, 56, 23
1, 61522, Note_off_c, 0, 63, 57
1, 61638, Note_on_c, 0, 63, 30
1, 61670, Note_off_c, 0, 63, 52
1, 61711, Control_c, 0, 64, 113
1, 61726, Control_c, 0, 64, 100
1, 61741, Control_c, 0, 64, 86
1, 61754, Note_on_c, 0, 87, 52
1, 61756, Control_c, 0, 64, 72
1, 61766, Note_on_c, 0, 79, 33
1, 61767, Note_off_c, 0, 88, 48
1, 61771, Control_c, 0, 64, 48
1, 61771, Note_on_c, 0, 82, 33
1, 61785, Control_c, 0, 64, 0
1, 61889, Control_c, 0, 64, 66
1, 61894, Note_on_c, 0, 63, 40
1, 61903, Control_c, 0, 64, 70
1, 61918, Control_c, 0, 64, 73
1, 61930, Note_off_c, 0, 63, 51
1, 61933, Control_c, 0, 64, 75
1, 61948, Control_c, 0, 64, 78
1, 61963, Control_c, 0, 64, 81
1, 61978, Control_c, 0, 64, 84
1, 61993, Control_c, 0, 64, 87
1, 62008, Control_c, 0, 64, 90
1, 62011, Note_on_c, 0, 63, 37
1, 62023, Control_c, 0, 64, 92
1, 62037, Control_c, 0, 64, 93
1, 62052, Control_c, 0, 64, 92
1, 62067, Control_c, 0, 64, 91
1, 62082, Control_c, 0, 64, 87
1, 62083, Note_off_c, 0, 87, 64
1, 62096, Control_c, 0, 64, 81
1, 62104, Note_off_c, 0, 82, 61
1, 62105, Note_on_c, 0, 58, 34
1, 62111, Control_c, 0, 64, 76
1, 62121, Note_off_c, 0, 79, 60
1, 62126, Note_on_c, 0, 55, 30
1, 62126, Control_c, 0, 64, 72
1, 62142, Note_off_c, 0, 63, 36
1, 62157, Control_c, 0, 64, 73
1, 62172, Control_c, 0, 64, 74
1, 62186, Control_c, 0, 64, 76
1, 62201, Control_c, 0, 64, 79
1, 62216, Control_c, 0, 64, 82
1, 62230, Note_off_c, 0, 58, 0
1, 62231, Control_c, 0, 64, 83
1, 62245, Control_c, 0, 64, 84
1, 62255, Note_on_c, 0, 63, 51
1, 62260, Control_c, 0, 64, 85
1, 62267, Poly_aftertouch_c, 0, 58, 127
1, 62275, Control_c, 0, 64, 86
1, 62282, Note_off_c, 0, 63, 56
1, 62290, Control_c, 0, 64, 87
1, 62305, Control_c, 0, 64, 87
1, 62331, Note_off_c, 0, 55, 34
1, 62339, Poly_aftertouch_c, 0, 58, 0
1, 62341, Control_c, 0, 64, 88
1, 62371, Control_c, 0, 64, 88
1, 62382, Note_on_c, 0, 63, 42
1, 62386, Control_c, 0, 64, 89
1, 62407, Note_off_c, 0, 63, 54
1, 62446, Control_c, 0, 64, 89
1, 62460, Control_c, 0, 64, 90
1, 62520, Control_c, 0, 64, 88
1, 62534, Control_c, 0, 64, 83
1, 62538, Note_on_c, 0, 75, 58
1, 62544, Note_on_c, 0, 66, 44
1, 62547, Note_on_c, 0, 69, 44
1, 62549, Control_c, 0, 64, 75
1, 62564, Control_c, 0, 64, 66
1, 62578, Control_c, 0, 64, 0
1, 62667, Control_c, 0, 64, 65
1, 62672, Note_on_c, 0, 63, 45
1, 62682, Control_c, 0, 64, 69
1, 62697, Control_c, 0, 64, 72
1, 62704, Note_off_c, 0, 63, 55
1, 62712, Control_c, 0, 64, 75
1, 62726, Control_c, 0, 64, 79
1, 62741, Control_c, 0, 64, 81
1, 62756, Control_c, 0, 64, 82
1, 62771, Control_c, 0, 64, 84
1, 62786, Control_c, 0, 64, 85
1, 62792, Note_on_c, 0, 63, 38
1, 62801, Control_c, 0, 64, 86
1, 62815, Control_c, 0, 64, 88
1, 62830, Control_c, 0, 64, 89
1, 62838, Note_off_c, 0, 63, 44
1, 62845, Control_c, 0, 64, 89
1, 62890, Control_c, 0, 64, 90
1, 62893, Note_on_c, 0, 57, 42
1, 62905, Control_c, 0, 64, 90
1, 62913, Note_on_c, 0, 54, 34
1, 62920, Control_c, 0, 64, 91
1, 62934, Control_c, 0, 64, 91
1, 62964, Control_c, 0, 64, 92
1, 62979, Control_c, 0, 64, 92
1, 62981, Note_off_c, 0, 69, 59
1, 62994, Note_off_c, 0, 75, 47
1, 62994, Control_c, 0, 64, 93
1, 63009, Control_c, 0, 64, 93
1, 63020, Note_off_c, 0, 66, 35
1, 63039, Control_c, 0, 64, 94
1, 63044, Note_on_c, 0, 63, 50
1, 63078, Note_off_c, 0, 63, 56
1, 63117, Note_off_c, 0, 57, 41
1, 63135, Control_c, 0, 64, 94
1, 63156, Note_off_c, 0, 54, 38
1, 63171, Note_on_c, 0, 63, 39
1, 63204, Note_off_c, 0, 63, 51
1, 63224, Control_c, 0, 64, 94
1, 63239, Control_c, 0, 64, 92
1, 63254, Control_c, 0, 64, 87
1, 63260, Note_on_c, 0, 74, 49
1, 63269, Control_c, 0, 64, 77
1, 63270, Note_on_c, 0, 65, 41
1, 63279, Note_on_c, 0, 68, 38
1, 63283, Control_c, 0, 64, 68
1, 63298, Control_c, 0, 64, 53
1, 63313, Control_c, 0, 64, 0
1, 63357, Control_c, 0, 64, 59
1, 63372, Control_c, 0, 64, 65
1, 63387, Control_c, 0, 64, 67
1, 63395, Note_on_c, 0, 63, 41
1, 63401, Control_c, 0, 64, 70
1, 63416, Control_c, 0, 64, 73
1, 63427, Note_off_c, 0, 63, 52
1, 63431, Control_c, 0, 64, 76
1, 63446, Control_c, 0, 64, 80
1, 63461, Control_c, 0, 64, 82
1, 63475, Control_c, 0, 64, 83
1, 63490, Control_c, 0, 64, 84
1, 63505, Control_c, 0, 64, 86
1, 63507, Note_on_c, 0, 63, 41
1, 63520, Control_c, 0, 64, 88
1, 63535, Control_c, 0, 64, 89
1, 63549, Control_c, 0, 64, 89
1, 63564, Control_c, 0, 64, 88
1, 63573, Note_off_c, 0, 74, 57
1, 63579, Control_c, 0, 64, 86
1, 63593, Control_c, 0, 64, 83
1, 63605, Note_off_c, 0, 68, 56
1, 63608, Control_c, 0, 64, 78
1, 63621, Note_on_c, 0, 56, 32
1, 63623, Control_c, 0, 64, 74
1, 63635, Note_on_c, 0, 53, 36
1, 63635, Note_off_c, 0, 65, 58
1, 63638, Control_c, 0, 64, 72
1, 63641, Note_off_c, 0, 63, 23
1, 63668, Control_c, 0, 64, 72
1, 63683, Control_c, 0, 64, 73
1, 63698, Control_c, 0, 64, 74
1, 63713, Control_c, 0, 64, 76
1, 63727, Control_c, 0, 64, 78
1, 63743, Control_c, 0, 64, 80
1, 63758, Control_c, 0, 64, 81
1, 63768, Note_on_c, 0, 63, 47
1, 63772, Control_c, 0, 64, 82
1, 63787, Control_c, 0, 64, 83
1, 63796, Note_off_c, 0, 63, 54
1, 63802, Control_c, 0, 64, 84
1, 63824, Control_c, 0, 64, 85
1, 63839, Control_c, 0, 64, 86
1, 63854, Control_c, 0, 64, 86
1, 63866, Note_off_c, 0, 53, 36
1, 63869, Note_off_c, 0, 56, 30
1, 63869, Control_c, 0, 64, 87
1, 63889, Note_on_c, 0, 63, 48
1, 63913, Control_c, 0, 64, 87
1, 63921, Note_off_c, 0, 63, 52
1, 63958, Control_c, 0, 64, 86
1, 63972, Control_c, 0, 64, 83
1, 63987, Control_c, 0, 64, 78
1, 64001, Note_on_c, 0, 73, 44
1, 64002, Control_c, 0, 64, 71
1, 64008, Note_on_c, 0, 64, 37
1, 64008, Note_on_c, 0, 67, 33
1, 64017, Control_c, 0, 64, 65
1, 64032, Control_c, 0, 64, 63
1, 64076, Control_c, 0, 64, 64
1, 64106, Control_c, 0, 64, 65
1, 64121, Control_c, 0, 64, 68
1, 64136, Control_c, 0, 64, 71
1, 64149, Note_on_c, 0, 63, 23
1, 64150, Control_c, 0, 64, 74
1, 64165, Control_c, 0, 64, 77
1, 64180, Control_c, 0, 64, 80
1, 64195, Control_c, 0, 64, 81
1, 64206, Note_off_c, 0, 63, 41
1, 64210, Control_c, 0, 64, 82
1, 64224, Control_c, 0, 64, 83
1, 64239, Control_c, 0, 64, 85
1, 64254, Control_c, 0, 64, 87
1, 64258, Note_on_c, 0, 63, 22
1, 64269, Control_c, 0, 64, 87
1, 64284, Control_c, 0, 64, 88
1, 64313, Control_c, 0, 64, 87
1, 64328, Control_c, 0, 64, 84
1, 64342, Control_c, 0, 64, 79
1, 64357, Control_c, 0, 64, 72
1, 64372, Control_c, 0, 64, 67
1, 64380, Note_on_c, 0, 52, 24
1, 64387, Control_c, 0, 64, 66
1, 64391, Note_off_c, 0, 63, 40
1, 64410, Poly_aftertouch_c, 0, 55, 127
1, 64416, Control_c, 0, 64, 67
1, 64431, Control_c, 0, 64, 68
1, 64446, Control_c, 0, 64, 70
1, 64456, Note_off_c, 0, 64, 36
1, 64461, Control_c, 0, 64, 73
1, 64476, Control_c, 0, 64, 77
1, 64491, Control_c, 0, 64, 80
1, 64504, Note_on_c, 0, 63, 48
1, 64506, Control_c, 0, 64, 82
1, 64514, Note_off_c, 0, 67, 37
1, 64521, Control_c, 0, 64, 82
1, 64527, Note_off_c, 0, 73, 37
1, 64535, Note_off_c, 0, 63, 54
1, 64535, Control_c, 0, 64, 83
1, 64574, Control_c, 0, 64, 83
1, 64589, Control_c, 0, 64, 84
1, 64603, Control_c, 0, 64, 84
1, 64651, Note_on_c, 0, 63, 48
1, 64712, Note_off_c, 0, 52, 32
1, 64714, Note_off_c, 0, 63, 51
1, 64750, Poly_aftertouch_c, 0, 55, 0
1, 64751, Control_c, 0, 64, 84
1, 64869, Control_c, 0, 64, 83
1, 64881, Note_on_c, 0, 73, 43
1, 64884, Control_c, 0, 64, 83
1, 64890, Note_on_c, 0, 63, 28
1, 64893, Note_on_c, 0, 67, 35
1, 64899, Control_c, 0, 64, 81
1, 64914, Control_c, 0, 64, 79
1, 64929, Control_c, 0, 64, 77
1, 64944, Control_c, 0, 64, 74
1, 64959, Control_c, 0, 64, 71
1, 64974, Control_c, 0, 64, 69
1, 64989, Control_c, 0, 64, 68
1, 65003, Control_c, 0, 64, 67
1, 65018, Control_c, 0, 64, 67
1, 65033, Control_c, 0, 64, 66
1, 65045, Note_on_c, 0, 51, 43
1, 65048, Control_c, 0, 64, 64
1, 65063, Control_c, 0, 64, 63
1, 65076, Note_off_c, 0, 51, 56
1, 65078, Control_c, 0, 64, 59
1, 65093, Control_c, 0, 64, 38
1, 65108, Control_c, 0, 64, 0
1, 65167, Note_on_c, 0, 51, 51
1, 65194, Note_off_c, 0, 51, 58
1, 65284, Note_on_c, 0, 51, 51
1, 65311, Note_off_c, 0, 51, 58
1, 65415, Note_on_c, 0, 51, 49
1, 65443, Note_off_c, 0, 51, 57
1, 65540, Note_on_c, 0, 51, 50
1, 65570, Note_off_c, 0, 51, 56
1, 65668, Note_on_c, 0, 51, 45
1, 65698, Note_off_c, 0, 51, 56
1, 65733, Note_off_c, 0, 73, 57
1, 65734, Note_off_c, 0, 67, 56
1, 65753, Note_off_c, 0, 63, 53
1, 65799, Note_on_c, 0, 51, 42
1, 65829, Note_off_c, 0, 51, 51
1, 65931, Note_on_c, 0, 51, 37
1, 65964, Note_off_c, 0, 51, 47
1, 66059, Note_on_c, 0, 51, 42
1, 66094, Note_off_c, 0, 51, 54
1, 66196, Note_on_c, 0, 51, 42
1, 66227, Note_off_c, 0, 51, 54
1, 66333, Note_on_c, 0, 51, 39
1, 66362, Note_off_c, 0, 51, 49
1, 66459, Note_on_c, 0, 61, 34
1, 66460, Note_on_c, 0, 58, 24
1, 66464, Note_on_c, 0, 55, 34
1, 66485, Control_c, 0, 64, 62
1, 66500, Control_c, 0, 64, 66
1, 66515, Control_c, 0, 64, 67
1, 66530, Control_c, 0, 64, 68
1, 66545, Control_c, 0, 64, 69
1, 66559, Control_c, 0, 64, 70
1, 66574, Control_c, 0, 64, 71
1, 66599, Note_on_c, 0, 39, 41
1, 66635, Note_off_c, 0, 39, 51
1, 66679, Control_c, 0, 64, 70
1, 66708, Control_c, 0, 64, 69
1, 66723, Control_c, 0, 64, 68
1, 66737, Control_c, 0, 64, 66
1, 66738, Note_on_c, 0, 39, 54
1, 66752, Control_c, 0, 64, 64
1, 66767, Control_c, 0, 64, 63
1, 66768, Note_off_c, 0, 39, 57
1, 66782, Control_c, 0, 64, 56
1, 66797, Control_c, 0, 64, 0
1, 66880, Note_on_c, 0, 39, 51
1, 66909, Note_off_c, 0, 39, 57
1, 67010, Note_on_c, 0, 39, 49
1, 67039, Note_off_c, 0, 39, 55
1, 67136, Note_on_c, 0, 39, 52
1, 67173, Note_off_c, 0, 39, 60
1, 67269, Note_on_c, 0, 39, 48
1, 67272, Note_off_c, 0, 61, 47
1, 67275, Note_off_c, 0, 55, 39
1, 67291, Note_off_c, 0, 58, 47
1, 67303, Note_off_c, 0, 39, 55
1, 67400, Note_on_c, 0, 39, 47
1, 67436, Note_off_c, 0, 39, 54
1, 67547, Note_on_c, 0, 39, 46
1, 67590, Note_off_c, 0, 39, 52
1, 67702, Note_on_c, 0, 39, 50
1, 67743, Note_off_c, 0, 39, 53
1, 67859, Note_on_c, 0, 39, 52
1, 67913, Note_off_c, 0, 39, 53
1, 68054, Note_on_c, 0, 39, 42
1, 68144, Note_off_c, 0, 39, 39
1, 68306, Note_on_c, 0, 32, 41
1, 68451, Control_c, 0, 64, 64
1, 68466, Control_c, 0, 64, 66
1, 68480, Control_c, 0, 64, 68
1, 68495, Control_c, 0, 64, 69
1, 68510, Control_c, 0, 64, 70
1, 68524, Control_c, 0, 64, 72
1, 68540, Control_c, 0, 64, 74
1, 68555, Control_c, 0, 64, 76
1, 68570, Control_c, 0, 64, 77
1, 68585, Control_c, 0, 64, 78
1, 68600, Control_c, 0, 64, 80
1, 68614, Control_c, 0, 64, 81
1, 68629, Control_c, 0, 64, 83
1, 68636, Note_off_c, 0, 32, 57
1, 68644, Control_c, 0, 64, 85
1, 68659, Control_c, 0, 64, 86
1, 68674, Control_c, 0, 64, 88
1, 68688, Control_c, 0, 64, 89
1, 68693, Note_on_c, 0, 36, 32
1, 68698, Note_on_c, 0, 39, 25
1, 68703, Note_on_c, 0, 44, 21
1, 68703, Control_c, 0, 64, 91
1, 68718, Control_c, 0, 64, 93
1, 68733, Control_c, 0, 64, 94
1, 68747, Control_c, 0, 64, 96
1, 68777, Control_c, 0, 64, 98
1, 68801, Note_off_c, 0, 44, 32
1, 68809, Note_off_c, 0, 36, 48
1, 68822, Control_c, 0, 64, 100
1, 68827, Note_off_c, 0, 39, 28
1, 68856, Note_on_c, 0, 32, 35
1, 68867, Control_c, 0, 64, 102
1, 68923, Note_off_c, 0, 32, 55
1, 68970, Note_on_c, 0, 44, 29
1, 68985, Note_on_c, 0, 39, 38
1, 68987, Note_on_c, 0, 36, 38
1, 69014, Control_c, 0, 64, 104
1, 69051, Note_off_c, 0, 44, 48
1, 69069, Note_off_c, 0, 39, 47
1, 69071, Note_off_c, 0, 36, 42
1, 69108, Note_on_c, 0, 32, 34
1, 69126, Control_c, 0, 64, 106
1, 69188, Note_off_c, 0, 32, 51
1, 69200, Control_c, 0, 64, 108
1, 69221, Note_on_c, 0, 44, 31
1, 69229, Control_c, 0, 64, 111
1, 69236, Note_on_c, 0, 39, 36
1, 69240, Note_on_c, 0, 36, 39
1, 69244, Control_c, 0, 64, 113
1, 69259, Control_c, 0, 64, 117
1, 69273, Control_c, 0, 64, 124
1, 69288, Control_c, 0, 64, 127
1, 69296, Note_off_c, 0, 36, 55
1, 69297, Note_off_c, 0, 44, 52
1, 69301, Note_off_c, 0, 39, 52
1, 69357, Note_on_c, 0, 32, 38
1, 69440, Note_off_c, 0, 32, 54
1, 69470, Note_on_c, 0, 39, 35
1, 69470, Note_on_c, 0, 44, 29
1, 69471, Note_on_c, 0, 36, 32
1, 69558, Note_off_c, 0, 36, 51
1, 69558, Note_off_c, 0, 39, 51
1, 69560, Note_off_c, 0, 44, 53
1, 69597, Note_on_c, 0, 32, 41
1, 69730, Note_on_c, 0, 44, 23
1, 69737, Note_off_c, 0, 32, 33
1, 69745, Note_on_c, 0, 36, 32
1, 69747, Note_on_c, 0, 39, 30
1, 69756, Note_on_c, 0, 60, 47
1, 69762, Note_on_c, 0, 48, 43
1, 69823, Note_off_c, 0, 36, 52
1, 69829, Note_off_c, 0, 39, 47
1, 69843, Note_on_c, 0, 32, 20
1, 69849, Note_off_c, 0, 44, 37
1, 69905, Note_off_c, 0, 48, 60
1, 69955, Note_off_c, 0, 60, 60
1, 69961, Note_off_c, 0, 32, 58
1, 69993, Note_on_c, 0, 36, 34
1, 70011, Note_on_c, 0, 44, 29
1, 70014, Note_on_c, 0, 39, 31
1, 70065, Note_on_c, 0, 63, 53
1, 70069, Note_on_c, 0, 51, 41
1, 70098, Note_off_c, 0, 51, 51
1, 70116, Note_off_c, 0, 63, 60
1, 70120, Note_off_c, 0, 36, 50
1, 70129, Note_on_c, 0, 32, 41
1, 70182, Note_off_c, 0, 39, 33
1, 70187, Note_off_c, 0, 44, 33
1, 70208, Note_on_c, 0, 56, 56
1, 70209, Note_on_c, 0, 68, 63
1, 70310, Note_off_c, 0, 32, 52
1, 70340, Note_off_c, 0, 56, 62
1, 70341, Note_on_c, 0, 44, 35
1, 70342, Note_on_c, 0, 36, 35
1, 70345, Note_on_c, 0, 39, 39
1, 70442, Note_off_c, 0, 36, 56
1, 70458, Note_off_c, 0, 39, 55
1, 70459, Note_on_c, 0, 32, 45
1, 70473, Note_off_c, 0, 44, 46
1, 70581, Note_off_c, 0, 32, 58
1, 70623, Note_on_c, 0, 72, 62
1, 70634, Note_on_c, 0, 36, 31
1, 70637, Note_on_c, 0, 60, 45
1, 70640, Note_on_c, 0, 39, 35
1, 70643, Note_on_c, 0, 44, 32
1, 70678, Note_off_c, 0, 68, 60
1, 70698, Note_off_c, 0, 39, 48
1, 70711, Note_off_c, 0, 44, 50
1, 70737, Note_on_c, 0, 32, 45
1, 70745, Note_off_c, 0, 60, 60
1, 70757, Note_off_c, 0, 72, 56
1, 70810, Note_off_c, 0, 36, 20
1, 70834, Note_off_c, 0, 32, 58
1, 70856, Note_on_c, 0, 39, 41
1, 70858, Note_on_c, 0, 44, 33
1, 70918, Note_on_c, 0, 68, 54
1, 70951, Note_off_c, 0, 44, 45
1, 70952, Note_on_c, 0, 56, 34
1, 70979, Control_c, 0, 64, 109
1, 70983, Note_off_c, 0, 56, 57
1, 70994, Control_c, 0, 64, 86
1, 71003, Note_off_c, 0, 39, 52
1, 71008, Control_c, 0, 64, 71
1, 71023, Control_c, 0, 64, 13
1, 71029, Note_on_c, 0, 34, 38
1, 71036, Note_on_c, 0, 67, 57
1, 71038, Control_c, 0, 64, 0
1, 71040, Note_off_c, 0, 68, 56
1, 71060, Note_on_c, 0, 55, 24
1, 71156, Control_c, 0, 64, 65
1, 71157, Note_off_c, 0, 34, 56
1, 71171, Control_c, 0, 64, 70
1, 71181, Note_on_c, 0, 39, 31
1, 71186, Control_c, 0, 64, 76
1, 71192, Note_on_c, 0, 46, 37
1, 71195, Note_on_c, 0, 37, 30
1, 71201, Control_c, 0, 64, 82
1, 71216, Control_c, 0, 64, 88
1, 71231, Control_c, 0, 64, 93
1, 71245, Control_c, 0, 64, 97
1, 71260, Control_c, 0, 64, 99
1, 71269, Note_off_c, 0, 37, 45
1, 71275, Control_c, 0, 64, 101
1, 71276, Note_off_c, 0, 55, 39
1, 71277, Note_off_c, 0, 46, 49
1, 71286, Note_off_c, 0, 39, 48
1, 71290, Control_c, 0, 64, 103
1, 71317, Note_on_c, 0, 34, 44
1, 71327, Control_c, 0, 64, 107
1, 71356, Control_c, 0, 64, 109
1, 71409, Note_off_c, 0, 34, 55
1, 71448, Note_on_c, 0, 37, 37
1, 71448, Note_on_c, 0, 70, 62
1, 71457, Note_on_c, 0, 58, 47
1, 71458, Note_on_c, 0, 46, 27
1, 71461, Note_on_c, 0, 39, 39
1, 71477, Note_off_c, 0, 67, 58
1, 71490, Control_c, 0, 64, 111
1, 71514, Note_off_c, 0, 37, 52
1, 71517, Note_off_c, 0, 46, 47
1, 71523, Note_off_c, 0, 39, 53
1, 71558, Note_on_c, 0, 34, 51
1, 71582, Note_off_c, 0, 58, 57
1, 71608, Control_c, 0, 64, 114
1, 71623, Control_c, 0, 64, 117
1, 71638, Control_c, 0, 64, 119
1, 71669, Note_on_c, 0, 39, 44
1, 71674, Note_off_c, 0, 70, 62
1, 71675, Note_on_c, 0, 37, 42
1, 71680, Note_off_c, 0, 34, 52
1, 71682, Control_c, 0, 64, 121
1, 71690, Note_on_c, 0, 46, 40
1, 71714, Note_off_c, 0, 39, 61
1, 71716, Note_off_c, 0, 37, 60
1, 71741, Note_off_c, 0, 46, 60
1, 71784, Note_on_c, 0, 67, 56
1, 71789, Note_on_c, 0, 55, 51
1, 71830, Note_off_c, 0, 55, 55
1, 71936, Control_c, 0, 64, 117
1, 71951, Control_c, 0, 64, 110
1, 71965, Control_c, 0, 64, 96
1, 71980, Control_c, 0, 64, 83
1, 71990, Note_on_c, 0, 36, 45
1, 71995, Control_c, 0, 64, 71
1, 72010, Note_on_c, 0, 68, 57
1, 72010, Control_c, 0, 64, 50
1, 72019, Note_on_c, 0, 56, 45
1, 72020, Note_off_c, 0, 67, 59
1, 72024, Control_c, 0, 64, 0
1, 72172, Note_off_c, 0, 36, 56
1, 72180, Control_c, 0, 64, 67
1, 72190, Note_on_c, 0, 48, 30
1, 72195, Control_c, 0, 64, 73
1, 72202, Note_on_c, 0, 39, 22
1, 72207, Note_on_c, 0, 44, 10
1, 72210, Control_c, 0, 64, 78
1, 72225, Control_c, 0, 64, 84
1, 72233, Note_off_c, 0, 68, 63
1, 72239, Control_c, 0, 64, 89
1, 72254, Control_c, 0, 64, 93
1, 72255, Note_off_c, 0, 39, 42
1, 72257, Note_off_c, 0, 56, 64
1, 72265, Note_off_c, 0, 44, 43
1, 72269, Control_c, 0, 64, 97
1, 72284, Control_c, 0, 64, 100
1, 72298, Control_c, 0, 64, 102
1, 72314, Note_off_c, 0, 48, 26
1, 72322, Note_on_c, 0, 36, 42
1, 72328, Control_c, 0, 64, 105
1, 72429, Note_off_c, 0, 36, 50
1, 72480, Note_on_c, 0, 48, 21
1, 72481, Note_on_c, 0, 63, 48
1, 72483, Note_on_c, 0, 39, 32
1, 72503, Note_on_c, 0, 51, 35
1, 72506, Note_on_c, 0, 44, 22
1, 72562, Note_off_c, 0, 44, 51
1, 72567, Note_off_c, 0, 39, 49
1, 72590, Note_on_c, 0, 36, 49
1, 72598, Note_off_c, 0, 48, 34
1, 72696, Note_off_c, 0, 36, 55
1, 72734, Note_on_c, 0, 48, 41
1, 72736, Note_on_c, 0, 39, 39
1, 72745, Note_on_c, 0, 44, 25
1, 72815, Note_off_c, 0, 44, 54
1, 72816, Note_off_c, 0, 39, 50
1, 72819, Note_off_c, 0, 48, 52
1, 72858, Note_off_c, 0, 51, 54
1, 72859, Note_on_c, 0, 36, 52
1, 72927, Note_off_c, 0, 36, 52
1, 72979, Note_on_c, 0, 48, 37
1, 72983, Note_on_c, 0, 44, 29
1, 72984, Note_on_c, 0, 39, 26
1, 73058, Note_off_c, 0, 39, 45
1, 73063, Note_off_c, 0, 48, 47
1, 73069, Note_off_c, 0, 44, 51
1, 73085, Note_on_c, 0, 36, 45
1, 73188, Note_off_c, 0, 36, 58
1, 73195, Control_c, 0, 64, 98
1, 73210, Control_c, 0, 64, 85
1, 73223, Note_on_c, 0, 44, 41
1, 73225, Control_c, 0, 64, 69
1, 73240, Note_on_c, 0, 65, 55
1, 73240, Control_c, 0, 64, 0
1, 73241, Note_off_c, 0, 63, 57
1, 73254, Note_on_c, 0, 53, 42
1, 73343, Note_off_c, 0, 44, 57
1, 73359, Control_c, 0, 64, 66
1, 73362, Note_on_c, 0, 37, 47
1, 73374, Control_c, 0, 64, 70
1, 73389, Control_c, 0, 64, 74
1, 73404, Note_off_c, 0, 53, 62
1, 73404, Control_c, 0, 64, 77
1, 73419, Control_c, 0, 64, 82
1, 73420, Note_off_c, 0, 65, 55
1, 73433, Control_c, 0, 64, 86
1, 73448, Control_c, 0, 64, 88
1, 73460, Note_off_c, 0, 37, 60
1, 73463, Control_c, 0, 64, 90
1, 73478, Control_c, 0, 64, 91
1, 73489, Note_on_c, 0, 44, 40
1, 73493, Control_c, 0, 64, 92
1, 73508, Control_c, 0, 64, 94
1, 73523, Control_c, 0, 64, 95
1, 73537, Control_c, 0, 64, 95
1, 73559, Control_c, 0, 64, 96
1, 73562, Note_on_c, 0, 61, 53
1, 73581, Note_on_c, 0, 49, 39
1, 73618, Control_c, 0, 64, 95
1, 73627, Note_off_c, 0, 49, 49
1, 73633, Control_c, 0, 64, 93
1, 73648, Control_c, 0, 64, 88
1, 73663, Control_c, 0, 64, 80
1, 73672, Note_off_c, 0, 44, 48
1, 73674, Note_on_c, 0, 39, 42
1, 73678, Control_c, 0, 64, 71
1, 73690, Note_on_c, 0, 60, 62
1, 73693, Control_c, 0, 64, 62
1, 73707, Note_on_c, 0, 48, 25
1, 73708, Control_c, 0, 64, 0
1, 73710, Note_off_c, 0, 61, 57
1, 73826, Control_c, 0, 64, 64
1, 73832, Note_off_c, 0, 39, 60
1, 73841, Control_c, 0, 64, 71
1, 73851, Note_on_c, 0, 44, 38
1, 73856, Control_c, 0, 64, 76
1, 73870, Control_c, 0, 64, 82
1, 73885, Control_c, 0, 64, 85
1, 73900, Control_c, 0, 64, 87
1, 73915, Control_c, 0, 64, 89
1, 73929, Control_c, 0, 64, 90
1, 73943, Note_off_c, 0, 48, 36
1, 73943, Control_c, 0, 64, 91
1, 73958, Control_c, 0, 64, 91
1, 73961, Note_off_c, 0, 44, 47
1, 73973, Control_c, 0, 64, 92
1, 73980, Note_on_c, 0, 39, 45
1, 73988, Control_c, 0, 64, 92
1, 74003, Control_c, 0, 64, 93
1, 74018, Control_c, 0, 64, 93
1, 74062, Control_c, 0, 64, 94
1, 74080, Note_off_c, 0, 39, 52
1, 74092, Control_c, 0, 64, 94
1, 74097, Note_on_c, 0, 63, 62
1, 74107, Note_on_c, 0, 44, 41
1, 74122, Note_on_c, 0, 51, 42
1, 74131, Note_off_c, 0, 60, 44
1, 74137, Control_c, 0, 64, 95
1, 74152, Control_c, 0, 64, 95
1, 74167, Control_c, 0, 64, 96
1, 74195, Note_off_c, 0, 44, 53
1, 74211, Control_c, 0, 64, 98
1, 74243, Note_on_c, 0, 39, 50
1, 74244, Note_off_c, 0, 51, 55
1, 74281, Note_off_c, 0, 63, 59
1, 74316, Note_off_c, 0, 39, 54
1, 74334, Note_on_c, 0, 44, 47
1, 74385, Note_on_c, 0, 60, 55
1, 74393, Note_on_c, 0, 48, 39
1, 74425, Note_off_c, 0, 48, 53
1, 74426, Control_c, 0, 64, 95
1, 74441, Control_c, 0, 64, 85
1, 74456, Control_c, 0, 64, 73
1, 74465, Note_off_c, 0, 44, 52
1, 74471, Control_c, 0, 64, 41
1, 74479, Note_on_c, 0, 39, 37
1, 74485, Note_off_c, 0, 60, 51
1, 74485, Control_c, 0, 64, 0
1, 74489, Note_on_c, 0, 58, 67
1, 74503, Note_on_c, 0, 46, 50
1, 74589, Control_c, 0, 64, 41
1, 74604, Control_c, 0, 64, 66
1, 74619, Control_c, 0, 64, 70
1, 74627, Note_off_c, 0, 39, 60
1, 74633, Note_on_c, 0, 43, 47
1, 74633, Control_c, 0, 64, 73
1, 74648, Control_c, 0, 64, 76
1, 74663, Control_c, 0, 64, 79
1, 74677, Control_c, 0, 64, 82
1, 74691, Note_off_c, 0, 46, 62
1, 74692, Control_c, 0, 64, 84
1, 74707, Control_c, 0, 64, 86
1, 74722, Control_c, 0, 64, 89
1, 74737, Control_c, 0, 64, 91
1, 74740, Note_off_c, 0, 43, 56
1, 74751, Control_c, 0, 64, 93
1, 74766, Control_c, 0, 64, 94
1, 74778, Note_on_c, 0, 39, 48
1, 74781, Control_c, 0, 64, 95
1, 74796, Control_c, 0, 64, 96
1, 74855, Control_c, 0, 64, 98
1, 74876, Note_off_c, 0, 39, 50
1, 74907, Note_on_c, 0, 43, 46
1, 74923, Note_on_c, 0, 63, 62
1, 74938, Note_on_c, 0, 51, 47
1, 74991, Note_off_c, 0, 43, 53
1, 75037, Note_on_c, 0, 39, 42
1, 75057, Note_off_c, 0, 58, 50
1, 75094, Note_off_c, 0, 51, 57
1, 75164, Note_off_c, 0, 39, 52
1, 75169, Note_on_c, 0, 43, 47
1, 75208, Note_off_c, 0, 43, 58
1, 75248, Note_on_c, 0, 61, 51
1, 75264, Control_c, 0, 64, 96
1, 75278, Note_on_c, 0, 49, 49
1, 75279, Control_c, 0, 64, 95
1, 75293, Control_c, 0, 64, 95
1, 75308, Control_c, 0, 64, 94
1, 75323, Control_c, 0, 64, 94
1, 75328, Note_off_c, 0, 49, 60
1, 75338, Control_c, 0, 64, 93
1, 75353, Control_c, 0, 64, 92
1, 75368, Control_c, 0, 64, 91
1, 75382, Control_c, 0, 64, 90
1, 75390, Note_off_c, 0, 63, 49
1, 75397, Control_c, 0, 64, 88
1, 75412, Control_c, 0, 64, 87
1, 75426, Control_c, 0, 64, 86
1, 75441, Control_c, 0, 64, 85
1, 75456, Control_c, 0, 64, 84
1, 75471, Control_c, 0, 64, 82
1, 75486, Control_c, 0, 64, 79
1, 75500, Control_c, 0, 64, 76
1, 75515, Control_c, 0, 64, 72
1, 75530, Control_c, 0, 64, 69
1, 75545, Control_c, 0, 64, 65
1, 75552, Note_on_c, 0, 60, 58
1, 75554, Note_on_c, 0, 44, 44
1, 75560, Control_c, 0, 64, 63
1, 75574, Control_c, 0, 64, 0
1, 75586, Note_off_c, 0, 61, 61
1, 75790, Note_on_c, 0, 56, 30
1, 75798, Control_c, 0, 64, 67
1, 75806, Note_on_c, 0, 48, 26
1, 75809, Note_off_c, 0, 44, 59
1, 75816, Note_on_c, 0, 51, 26
1, 75820, Control_c, 0, 64, 73
1, 75835, Control_c, 0, 64, 78
1, 75850, Control_c, 0, 64, 82
1, 75864, Control_c, 0, 64, 86
1, 75877, Note_off_c, 0, 51, 50
1, 75878, Note_off_c, 0, 56, 51
1, 75879, Control_c, 0, 64, 89
1, 75894, Control_c, 0, 64, 92
1, 75909, Control_c, 0, 64, 94
1, 75921, Note_off_c, 0, 48, 36
1, 75924, Control_c, 0, 64, 95
1, 75938, Control_c, 0, 64, 96
1, 75947, Note_on_c, 0, 44, 46
1, 76015, Note_off_c, 0, 44, 53
1, 76081, Note_on_c, 0, 56, 35
1, 76083, Note_on_c, 0, 63, 59
1, 76086, Note_on_c, 0, 48, 36
1, 76088, Note_on_c, 0, 51, 32
1, 76171, Note_off_c, 0, 56, 37
1, 76174, Note_off_c, 0, 51, 47
1, 76176, Control_c, 0, 64, 98
1, 76180, Note_off_c, 0, 48, 52
1, 76212, Note_on_c, 0, 44, 50
1, 76307, Note_off_c, 0, 44, 58
1, 76332, Note_on_c, 0, 48, 44
1, 76337, Control_c, 0, 64, 101
1, 76340, Note_on_c, 0, 51, 41
1, 76340, Note_on_c, 0, 56, 38
1, 76352, Control_c, 0, 64, 103
1, 76367, Control_c, 0, 64, 106
1, 76372, Note_off_c, 0, 63, 57
1, 76382, Control_c, 0, 64, 108
1, 76396, Control_c, 0, 64, 110
1, 76411, Control_c, 0, 64, 114
1, 76420, Note_off_c, 0, 56, 53
1, 76423, Note_off_c, 0, 60, 56
1, 76426, Control_c, 0, 64, 118
1, 76428, Note_off_c, 0, 51, 49
1, 76434, Note_off_c, 0, 48, 56
1, 76441, Control_c, 0, 64, 123
1, 76447, Note_on_c, 0, 44, 48
1, 76456, Control_c, 0, 64, 127
1, 76575, Note_off_c, 0, 44, 60
1, 76584, Note_on_c, 0, 48, 48
1, 76590, Note_on_c, 0, 51, 41
1, 76592, Note_on_c, 0, 56, 35
1, 76672, Note_off_c, 0, 56, 52
1, 76677, Note_off_c, 0, 51, 53
1, 76682, Note_off_c, 0, 48, 55
1, 76701, Note_on_c, 0, 44, 57
1, 76805, Note_off_c, 0, 44, 60
1, 76823, Note_on_c, 0, 72, 67
1, 76827, Note_on_c, 0, 48, 44
1, 76831, Note_on_c, 0, 56, 41
1, 76832, Note_on_c, 0, 60, 55
1, 76832, Note_on_c, 0, 51, 46
1, 76922, Note_off_c, 0, 48, 54
1, 76926, Note_on_c, 0, 44, 59
1, 76929, Note_off_c, 0, 56, 59
1, 76930, Note_off_c, 0, 51, 57
1, 76952, Note_off_c, 0, 60, 58
1, 77005, Note_off_c, 0, 72, 62
1, 77037, Note_off_c, 0, 44, 61
1, 77050, Note_on_c, 0, 48, 46
1, 77067, Note_on_c, 0, 51, 47
1, 77067, Note_on_c, 0, 56, 46
1, 77091, Note_on_c, 0, 75, 74
1, 77095, Note_on_c, 0, 63, 51
1, 77118, Note_off_c, 0, 63, 62
1, 77145, Note_off_c, 0, 75, 59
1, 77168, Note_on_c, 0, 44, 55
1, 77179, Note_off_c, 0, 48, 53
1, 77197, Note_off_c, 0, 51, 51
1, 77202, Note_on_c, 0, 80, 83
1, 77205, Note_off_c, 0, 56, 46
1, 77208, Note_on_c, 0, 68, 67
1, 77317, Note_off_c, 0, 68, 63
1, 77332, Note_off_c, 0, 44, 61
1, 77341, Note_on_c, 0, 48, 49
1, 77353, Note_on_c, 0, 51, 50
1, 77353, Note_on_c, 0, 56, 52
1, 77449, Note_off_c, 0, 56, 59
1, 77455, Note_on_c, 0, 44, 60
1, 77468, Note_off_c, 0, 51, 56
1, 77470, Note_off_c, 0, 48, 54
1, 77586, Note_off_c, 0, 44, 61
1, 77589, Note_on_c, 0, 56, 47
1, 77589, Note_on_c, 0, 84, 83
1, 77598, Note_on_c, 0, 72, 69
1, 77600, Note_on_c, 0, 48, 54
1, 77604, Note_on_c, 0, 51, 55
1, 77614, Note_off_c, 0, 80, 63
1, 77658, Note_off_c, 0, 56, 50
1, 77664, Note_off_c, 0, 51, 54
1, 77684, Note_on_c, 0, 44, 66
1, 77707, Note_off_c, 0, 72, 53
1, 77732, Note_off_c, 0, 84, 60
1, 77795, Note_off_c, 0, 44, 61
1, 77800, Note_on_c, 0, 51, 51
1, 77800, Note_off_c, 0, 48, 21
1, 77803, Note_on_c, 0, 56, 53
1, 77863, Note_on_c, 0, 80, 67
1, 77872, Note_on_c, 0, 68, 60
1, 77923, Note_off_c, 0, 68, 58
1, 77939, Control_c, 0, 64, 113
1, 77950, Note_off_c, 0, 56, 38
1, 77953, Note_off_c, 0, 51, 55
1, 77954, Control_c, 0, 64, 93
1, 77963, Note_on_c, 0, 46, 59
1, 77966, Note_on_c, 0, 79, 78
1, 77968, Control_c, 0, 64, 75
1, 77972, Note_off_c, 0, 80, 57
1, 77982, Note_on_c, 0, 67, 60
1, 77983, Control_c, 0, 64, 0
1, 78095, Control_c, 0, 64, 69
1, 78109, Control_c, 0, 64, 79
1, 78115, Note_off_c, 0, 46, 62
1, 78120, Note_on_c, 0, 51, 46
1, 78121, Note_on_c, 0, 58, 51
1, 78125, Control_c, 0, 64, 89
1, 78125, Note_on_c, 0, 49, 52
1, 78140, Control_c, 0, 64, 100
1, 78155, Control_c, 0, 64, 106
1, 78170, Control_c, 0, 64, 111
1, 78185, Control_c, 0, 64, 116
1, 78199, Control_c, 0, 64, 120
1, 78203, Note_off_c, 0, 49, 48
1, 78206, Note_off_c, 0, 58, 50
1, 78210, Note_off_c, 0, 67, 63
1, 78214, Control_c, 0, 64, 124
1, 78224, Note_off_c, 0, 51, 59
1, 78229, Control_c, 0, 64, 127
1, 78237, Note_on_c, 0, 46, 61
1, 78381, Note_on_c, 0, 58, 47
1, 78383, Note_off_c, 0, 46, 60
1, 78388, Note_on_c, 0, 51, 46
1, 78393, Note_on_c, 0, 70, 64
1, 78394, Note_on_c, 0, 82, 72
1, 78394, Note_on_c, 0, 49, 46
1, 78426, Note_off_c, 0, 79, 62
1, 78463, Note_off_c, 0, 49, 48
1, 78488, Note_off_c, 0, 51, 56
1, 78506, Note_on_c, 0, 46, 59
1, 78516, Note_off_c, 0, 58, 34
1, 78520, Note_off_c, 0, 70, 62
1, 78590, Note_off_c, 0, 82, 55
1, 78668, Note_on_c, 0, 58, 47
1, 78669, Note_on_c, 0, 51, 43
1, 78671, Note_off_c, 0, 46, 53
1, 78674, Note_on_c, 0, 49, 49
1, 78706, Note_off_c, 0, 51, 62
1, 78707, Note_off_c, 0, 49, 64
1, 78716, Note_off_c, 0, 58, 55
1, 78766, Note_on_c, 0, 79, 64
1, 78780, Note_on_c, 0, 67, 40
1, 78835, Note_off_c, 0, 67, 55
1, 78910, Note_off_c, 0, 79, 61
1, 79038, Control_c, 0, 64, 119
1, 79052, Control_c, 0, 64, 114
1, 79067, Control_c, 0, 64, 109
1, 79082, Control_c, 0, 64, 104
1, 79097, Control_c, 0, 64, 100
1, 79112, Control_c, 0, 64, 94
1, 79127, Control_c, 0, 64, 85
1, 79142, Control_c, 0, 64, 76
1, 79156, Control_c, 0, 64, 69
1, 79171, Control_c, 0, 64, 64
1, 79175, Note_on_c, 0, 80, 53
1, 79186, Control_c, 0, 64, 0
1, 79187, Note_on_c, 0, 68, 41
1, 79193, Note_on_c, 0, 60, 33
1, 79198, Note_on_c, 0, 56, 35
1, 79204, Note_on_c, 0, 51, 33
1, 79204, Note_on_c, 0, 48, 28
1, 79254, Note_off_c, 0, 60, 0
1, 79254, Note_on_c, 0, 60, 3
1, 79378, Control_c, 0, 64, 64
1, 79392, Control_c, 0, 64, 69
1, 79407, Control_c, 0, 64, 74
1, 79422, Control_c, 0, 64, 79
1, 79437, Control_c, 0, 64, 84
1, 79452, Control_c, 0, 64, 89
1, 79453, Note_off_c, 0, 80, 64
1, 79467, Control_c, 0, 64, 93
1, 79479, Note_off_c, 0, 68, 60
1, 79482, Control_c, 0, 64, 97
1, 79497, Control_c, 0, 64, 100
1, 79511, Control_c, 0, 64, 102
1, 79526, Control_c, 0, 64, 104
1, 79563, Control_c, 0, 64, 106
1, 79607, Control_c, 0, 64, 108
1, 79786, Control_c, 0, 64, 110
1, 79810, Note_on_c, 0, 75, 45
1, 79820, Note_on_c, 0, 63, 33
1, 79860, Control_c, 0, 64, 112
1, 79905, Control_c, 0, 64, 114
1, 79949, Control_c, 0, 64, 116
1, 80126, Control_c, 0, 64, 119
1, 80311, Control_c, 0, 64, 121
1, 80504, Control_c, 0, 64, 124
1, 80579, Control_c, 0, 64, 127
1, 80812, Note_off_c, 0, 60, 39
1, 80852, Note_off_c, 0, 75, 49
1, 80877, Note_off_c, 0, 48, 51
1, 80896, Note_off_c, 0, 63, 40
1, 80972, Note_off_c, 0, 51, 50
1, 81075, Note_off_c, 0, 56, 61
1, 81164, Control_c, 0, 64, 124
1, 81223, Control_c, 0, 64, 122
1, 81401, Control_c, 0, 64, 117
1, 81416, Control_c, 0, 64, 106
1, 81432, Control_c, 0, 64, 92
1, 81434, Note_on_c, 0, 76, 79
1, 81441, Note_on_c, 0, 56, 63
1, 81443, Note_on_c, 0, 49, 64
1, 81443, Note_on_c, 0, 64, 72
1, 81443, Note_on_c, 0, 52, 69
1, 81447, Control_c, 0, 64, 75
1, 81462, Control_c, 0, 64, 62
1, 81476, Control_c, 0, 64, 0
1, 81565, Control_c, 0, 64, 34
1, 81580, Control_c, 0, 64, 70
1, 81595, Control_c, 0, 64, 76
1, 81610, Control_c, 0, 64, 81
1, 81625, Control_c, 0, 64, 87
1, 81640, Control_c, 0, 64, 91
1, 81655, Control_c, 0, 64, 96
1, 81669, Control_c, 0, 64, 100
1, 81684, Control_c, 0, 64, 103
1, 81699, Control_c, 0, 64, 107
1, 81714, Control_c, 0, 64, 110
1, 81727, Note_off_c, 0, 56, 63
1, 81729, Control_c, 0, 64, 115
1, 81735, Note_off_c, 0, 64, 62
1, 81743, Control_c, 0, 64, 119
1, 81758, Control_c, 0, 64, 127
1, 82091, Control_c, 0, 64, 124
1, 82106, Control_c, 0, 64, 117
1, 82122, Control_c, 0, 64, 108
1, 82137, Control_c, 0, 64, 100
1, 82146, Note_on_c, 0, 57, 60
1, 82146, Note_on_c, 0, 73, 73
1, 82150, Note_on_c, 0, 61, 65
1, 82151, Control_c, 0, 64, 90
1, 82166, Control_c, 0, 64, 80
1, 82181, Control_c, 0, 64, 72
1, 82192, Poly_aftertouch_c, 0, 74, 127
1, 82196, Control_c, 0, 64, 67
1, 82211, Control_c, 0, 64, 64
1, 82225, Control_c, 0, 64, 41
1, 82240, Control_c, 0, 64, 0
1, 82269, Note_off_c, 0, 76, 42
1, 82272, Poly_aftertouch_c, 0, 74, 0
1, 82558, Control_c, 0, 64, 44
1, 82573, Control_c, 0, 64, 59
1, 82588, Control_c, 0, 64, 63
1, 82603, Control_c, 0, 64, 64
1, 82618, Control_c, 0, 64, 65
1, 82632, Control_c, 0, 64, 66
1, 82647, Control_c, 0, 64, 67
1, 82662, Control_c, 0, 64, 67
1, 82692, Control_c, 0, 64, 68
1, 82707, Control_c, 0, 64, 69
1, 82722, Control_c, 0, 64, 70
1, 82737, Control_c, 0, 64, 71
1, 82751, Control_c, 0, 64, 72
1, 82766, Control_c, 0, 64, 73
1, 82781, Control_c, 0, 64, 73
1, 82796, Control_c, 0, 64, 74
1, 82811, Control_c, 0, 64, 75
1, 82825, Control_c, 0, 64, 76
1, 82840, Control_c, 0, 64, 78
1, 82855, Control_c, 0, 64, 79
1, 82870, Control_c, 0, 64, 81
1, 82885, Control_c, 0, 64, 82
1, 82899, Control_c, 0, 64, 84
1, 82915, Control_c, 0, 64, 85
1, 82930, Control_c, 0, 64, 86
1, 82945, Control_c, 0, 64, 88
1, 82960, Control_c, 0, 64, 90
1, 82974, Control_c, 0, 64, 91
1, 82989, Control_c, 0, 64, 93
1, 83004, Control_c, 0, 64, 95
1, 83019, Control_c, 0, 64, 97
1, 83034, Control_c, 0, 64, 99
1, 83048, Control_c, 0, 64, 101
1, 83078, Control_c, 0, 64, 104
1, 83093, Control_c, 0, 64, 106
1, 83108, Control_c, 0, 64, 109
1, 83122, Control_c, 0, 64, 111
1, 83135, Note_off_c, 0, 49, 51
1, 83137, Control_c, 0, 64, 113
1, 83140, Note_off_c, 0, 61, 59
1, 83152, Control_c, 0, 64, 115
1, 83166, Control_c, 0, 64, 117
1, 83169, Note_off_c, 0, 52, 53
1, 83169, Note_off_c, 0, 73, 57
1, 83175, Note_off_c, 0, 57, 39
1, 83181, Control_c, 0, 64, 120
1, 83196, Control_c, 0, 64, 122
1, 83211, Control_c, 0, 64, 124
1, 83226, Control_c, 0, 64, 127
1, 83589, Control_c, 0, 64, 124
1, 83604, Control_c, 0, 64, 122
1, 83634, Control_c, 0, 64, 119
1, 83663, Control_c, 0, 64, 117
1, 83678, Control_c, 0, 64, 115
1, 83707, Control_c, 0, 64, 112
1, 83738, Control_c, 0, 64, 109
1, 83768, Control_c, 0, 64, 106
1, 83797, Control_c, 0, 64, 104
1, 83827, Control_c, 0, 64, 101
1, 83857, Control_c, 0, 64, 98
1, 83901, Control_c, 0, 64, 96
1, 83916, Control_c, 0, 64, 96
1, 83931, Control_c, 0, 64, 95
1, 83945, Control_c, 0, 64, 95
1, 83960, Control_c, 0, 64, 94
1, 83975, Control_c, 0, 64, 93
1, 83989, Control_c, 0, 64, 90
1, 84004, Control_c, 0, 64, 87
1, 84016, Note_on_c, 0, 71, 39
1, 84019, Control_c, 0, 64, 82
1, 84027, Note_on_c, 0, 56, 25
1, 84033, Note_on_c, 0, 59, 28
1, 84042, Control_c, 0, 64, 77
1, 84054, Note_on_c, 0, 51, 23
1, 84057, Control_c, 0, 64, 72
1, 84071, Control_c, 0, 64, 69
1, 84086, Control_c, 0, 64, 66
1, 84101, Control_c, 0, 64, 64
1, 84115, Control_c, 0, 64, 55
1, 84130, Control_c, 0, 64, 38
1, 84145, Control_c, 0, 64, 0
1, 84575, Control_c, 0, 64, 13
1, 84590, Control_c, 0, 64, 48
1, 84605, Control_c, 0, 64, 57
1, 84619, Control_c, 0, 64, 61
1, 84634, Control_c, 0, 64, 63
1, 84649, Control_c, 0, 64, 64
1, 84664, Control_c, 0, 64, 64
1, 84693, Control_c, 0, 64, 65
1, 84708, Control_c, 0, 64, 66
1, 84723, Control_c, 0, 64, 66
1, 84737, Control_c, 0, 64, 67
1, 84752, Control_c, 0, 64, 68
1, 84767, Control_c, 0, 64, 69
1, 84790, Control_c, 0, 64, 70
1, 84805, Control_c, 0, 64, 71
1, 84819, Control_c, 0, 64, 73
1, 84834, Control_c, 0, 64, 74
1, 84849, Control_c, 0, 64, 76
1, 84864, Control_c, 0, 64, 77
1, 84879, Control_c, 0, 64, 78
1, 84893, Control_c, 0, 64, 80
1, 84908, Control_c, 0, 64, 81
1, 84923, Control_c, 0, 64, 83
1, 84937, Control_c, 0, 64, 84
1, 84952, Control_c, 0, 64, 85
1, 84967, Control_c, 0, 64, 87
1, 84982, Control_c, 0, 64, 88
1, 84997, Control_c, 0, 64, 89
1, 85011, Control_c, 0, 64, 90
1, 85026, Control_c, 0, 64, 91
1, 85041, Control_c, 0, 64, 92
1, 85056, Control_c, 0, 64, 93
1, 85071, Control_c, 0, 64, 94
1, 85086, Control_c, 0, 64, 95
1, 85116, Control_c, 0, 64, 98
1, 85145, Control_c, 0, 64, 100
1, 85175, Control_c, 0, 64, 102
1, 85205, Note_off_c, 0, 59, 39
1, 85208, Note_off_c, 0, 51, 36
1, 85235, Control_c, 0, 64, 104
1, 85300, Note_on_c, 0, 70, 31
1, 85324, Control_c, 0, 64, 106
1, 85399, Note_off_c, 0, 56, 39
1, 85400, Note_off_c, 0, 71, 41
1, 85673, Control_c, 0, 64, 104
1, 85681, Note_on_c, 0, 68, 29
1, 85717, Control_c, 0, 64, 102
1, 85728, Note_off_c, 0, 70, 30
1, 85761, Control_c, 0, 64, 100
1, 85806, Control_c, 0, 64, 97
1, 85821, Control_c, 0, 64, 95
1, 85835, Control_c, 0, 64, 94
1, 85850, Control_c, 0, 64, 93
1, 85865, Control_c, 0, 64, 92
1, 85880, Control_c, 0, 64, 92
1, 85894, Control_c, 0, 64, 91
1, 85909, Control_c, 0, 64, 90
1, 85924, Control_c, 0, 64, 89
1, 85939, Control_c, 0, 64, 88
1, 85954, Control_c, 0, 64, 87
1, 85968, Control_c, 0, 64, 86
1, 85983, Control_c, 0, 64, 83
1, 85995, Note_on_c, 0, 69, 35
1, 85998, Note_off_c, 0, 68, 38
1, 85998, Control_c, 0, 64, 80
1, 86002, Note_on_c, 0, 61, 32
1, 86011, Note_on_c, 0, 55, 28
1, 86013, Control_c, 0, 64, 76
1, 86016, Note_on_c, 0, 51, 27
1, 86028, Control_c, 0, 64, 73
1, 86043, Control_c, 0, 64, 69
1, 86058, Control_c, 0, 64, 67
1, 86072, Control_c, 0, 64, 66
1, 86087, Control_c, 0, 64, 64
1, 86102, Control_c, 0, 64, 59
1, 86117, Control_c, 0, 64, 0
1, 86248, Note_off_c, 0, 69, 55
1, 86268, Note_on_c, 0, 70, 33
1, 86303, Control_c, 0, 64, 57
1, 86317, Control_c, 0, 64, 65
1, 86332, Control_c, 0, 64, 67
1, 86347, Control_c, 0, 64, 69
1, 86362, Control_c, 0, 64, 71
1, 86377, Control_c, 0, 64, 75
1, 86391, Control_c, 0, 64, 78
1, 86406, Control_c, 0, 64, 81
1, 86421, Control_c, 0, 64, 83
1, 86433, Note_off_c, 0, 70, 60
1, 86436, Control_c, 0, 64, 84
1, 86451, Control_c, 0, 64, 85
1, 86466, Note_on_c, 0, 71, 37
1, 86466, Control_c, 0, 64, 86
1, 86481, Control_c, 0, 64, 88
1, 86496, Control_c, 0, 64, 89
1, 86510, Control_c, 0, 64, 89
1, 86525, Control_c, 0, 64, 90
1, 86540, Control_c, 0, 64, 91
1, 86555, Control_c, 0, 64, 92
1, 86570, Control_c, 0, 64, 93
1, 86584, Control_c, 0, 64, 94
1, 86588, Note_off_c, 0, 71, 41
1, 86589, Note_on_c, 0, 70, 37
1, 86599, Control_c, 0, 64, 94
1, 86614, Control_c, 0, 64, 95
1, 86644, Control_c, 0, 64, 97
1, 86671, Note_off_c, 0, 70, 55
1, 86688, Control_c, 0, 64, 99
1, 86703, Note_on_c, 0, 71, 44
1, 86747, Control_c, 0, 64, 101
1, 86761, Note_off_c, 0, 71, 57
1, 86803, Note_on_c, 0, 70, 47
1, 86806, Control_c, 0, 64, 103
1, 86850, Control_c, 0, 64, 105
1, 86853, Note_off_c, 0, 70, 57
1, 86880, Control_c, 0, 64, 107
1, 86901, Note_on_c, 0, 71, 42
1, 86926, Control_c, 0, 64, 110
1, 86932, Note_off_c, 0, 71, 55
1, 86955, Control_c, 0, 64, 113
1, 86976, Note_on_c, 0, 70, 46
1, 86985, Control_c, 0, 64, 115
1, 87000, Control_c, 0, 64, 117
1, 87007, Note_off_c, 0, 70, 59
1, 87029, Control_c, 0, 64, 122
1, 87052, Control_c, 0, 64, 127
1, 87056, Note_on_c, 0, 71, 44
1, 87077, Note_off_c, 0, 61, 54
1, 87078, Note_off_c, 0, 55, 41
1, 87083, Note_off_c, 0, 71, 59
1, 87089, Note_off_c, 0, 51, 40
1, 87119, Note_on_c, 0, 70, 48
1, 87157, Note_off_c, 0, 70, 63
1, 87202, Note_on_c, 0, 71, 34
1, 87235, Note_off_c, 0, 71, 51
1, 87259, Note_on_c, 0, 70, 51
1, 87290, Note_off_c, 0, 70, 63
1, 87324, Note_on_c, 0, 71, 53
1, 87351, Note_off_c, 0, 71, 60
1, 87392, Note_on_c, 0, 70, 47
1, 87420, Note_off_c, 0, 70, 61
1, 87446, Note_on_c, 0, 71, 57
1, 87479, Note_off_c, 0, 71, 64
1, 87506, Note_on_c, 0, 70, 59
1, 87542, Note_off_c, 0, 70, 62
1, 87569, Note_on_c, 0, 71, 55
1, 87601, Note_off_c, 0, 71, 65
1, 87628, Note_on_c, 0, 70, 55
1, 87662, Note_off_c, 0, 70, 63
1, 87688, Note_on_c, 0, 71, 54
1, 87717, Note_off_c, 0, 71, 62
1, 87747, Note_on_c, 0, 70, 54
1, 87786, Note_off_c, 0, 70, 65
1, 87806, Note_on_c, 0, 71, 58
1, 87833, Note_off_c, 0, 71, 62
1, 87864, Note_on_c, 0, 70, 54
1, 87886, Note_off_c, 0, 70, 61
1, 87916, Note_on_c, 0, 71, 60
1, 87949, Note_off_c, 0, 71, 65
1, 87954, Note_on_c, 0, 70, 68
1, 87978, Note_off_c, 0, 70, 67
1, 88023, Control_c, 0, 64, 100
1, 88037, Control_c, 0, 64, 79
1, 88051, Note_on_c, 0, 76, 58
1, 88052, Control_c, 0, 64, 0
1, 88141, Control_c, 0, 64, 60
1, 88145, Note_off_c, 0, 76, 60
1, 88146, Note_on_c, 0, 75, 60
1, 88156, Control_c, 0, 64, 70
1, 88170, Control_c, 0, 64, 74
1, 88180, Note_off_c, 0, 75, 62
1, 88185, Control_c, 0, 64, 77
1, 88200, Control_c, 0, 64, 81
1, 88215, Control_c, 0, 64, 85
1, 88219, Note_on_c, 0, 76, 50
1, 88229, Control_c, 0, 64, 89
1, 88242, Note_off_c, 0, 76, 59
1, 88244, Control_c, 0, 64, 93
1, 88259, Control_c, 0, 64, 96
1, 88274, Control_c, 0, 64, 100
1, 88283, Note_on_c, 0, 75, 55
1, 88288, Control_c, 0, 64, 103
1, 88303, Control_c, 0, 64, 106
1, 88305, Note_off_c, 0, 75, 62
1, 88318, Control_c, 0, 64, 110
1, 88333, Control_c, 0, 64, 115
1, 88339, Note_on_c, 0, 76, 55
1, 88348, Control_c, 0, 64, 123
1, 88359, Note_off_c, 0, 76, 61
1, 88362, Control_c, 0, 64, 127
1, 88394, Note_on_c, 0, 75, 59
1, 88421, Note_off_c, 0, 75, 59
1, 88447, Note_on_c, 0, 76, 58
1, 88466, Note_off_c, 0, 76, 63
1, 88505, Note_on_c, 0, 75, 59
1, 88542, Note_off_c, 0, 75, 53
1, 88559, Note_on_c, 0, 76, 58
1, 88588, Note_off_c, 0, 76, 61
1, 88621, Note_on_c, 0, 75, 66
1, 88651, Note_off_c, 0, 75, 63
1, 88663, Note_on_c, 0, 76, 65
1, 88694, Note_off_c, 0, 76, 60
1, 88722, Note_on_c, 0, 75, 68
1, 88754, Note_off_c, 0, 75, 61
1, 88784, Note_on_c, 0, 76, 55
1, 88806, Note_off_c, 0, 76, 59
1, 88835, Note_on_c, 0, 75, 58
1, 88857, Note_off_c, 0, 75, 61
1, 88880, Note_on_c, 0, 76, 65
1, 88908, Note_off_c, 0, 76, 60
1, 88931, Note_on_c, 0, 75, 66
1, 88961, Note_off_c, 0, 75, 63
1, 88982, Note_on_c, 0, 76, 53
1, 89005, Note_off_c, 0, 76, 57
1, 89041, Note_on_c, 0, 75, 64
1, 89063, Note_off_c, 0, 75, 63
1, 89086, Note_on_c, 0, 76, 62
1, 89119, Note_off_c, 0, 76, 62
1, 89139, Note_on_c, 0, 75, 67
1, 89173, Note_off_c, 0, 75, 61
1, 89190, Note_on_c, 0, 76, 62
1, 89225, Note_off_c, 0, 76, 58
1, 89255, Note_on_c, 0, 75, 58
1, 89285, Note_off_c, 0, 75, 61
1, 89316, Note_on_c, 0, 76, 61
1, 89337, Note_off_c, 0, 76, 60
1, 89364, Note_on_c, 0, 75, 60
1, 89384, Note_off_c, 0, 75, 65
1, 89414, Note_on_c, 0, 76, 58
1, 89465, Note_on_c, 0, 75, 64
1, 89466, Note_off_c, 0, 76, 60
1, 89499, Note_off_c, 0, 75, 63
1, 89536, Note_on_c, 0, 74, 43
1, 89564, Control_c, 0, 64, 94
1, 89579, Control_c, 0, 64, 67
1, 89583, Note_off_c, 0, 74, 63
1, 89588, Note_on_c, 0, 75, 70
1, 89594, Control_c, 0, 64, 0
1, 89620, Note_off_c, 0, 75, 62
1, 89647, Note_on_c, 0, 88, 70
1, 89697, Control_c, 0, 64, 65
1, 89712, Control_c, 0, 64, 69
1, 89718, Note_off_c, 0, 88, 62
1, 89727, Control_c, 0, 64, 72
1, 89742, Control_c, 0, 64, 75
1, 89757, Note_on_c, 0, 87, 64
1, 89757, Control_c, 0, 64, 81
1, 89772, Control_c, 0, 64, 86
1, 89784, Note_off_c, 0, 87, 68
1, 89787, Control_c, 0, 64, 92
1, 89801, Control_c, 0, 64, 96
1, 89816, Control_c, 0, 64, 99
1, 89826, Note_on_c, 0, 88, 69
1, 89831, Control_c, 0, 64, 104
1, 89843, Note_off_c, 0, 88, 68
1, 89846, Control_c, 0, 64, 109
1, 89860, Control_c, 0, 64, 117
1, 89875, Control_c, 0, 64, 127
1, 89880, Note_on_c, 0, 87, 56
1, 89900, Note_off_c, 0, 87, 65
1, 89923, Note_on_c, 0, 88, 67
1, 89955, Note_off_c, 0, 88, 64
1, 89985, Note_on_c, 0, 87, 62
1, 90005, Note_off_c, 0, 87, 64
1, 90043, Note_on_c, 0, 88, 72
1, 90062, Note_off_c, 0, 88, 66
1, 90090, Note_on_c, 0, 87, 68
1, 90124, Note_off_c, 0, 87, 61
1, 90135, Note_on_c, 0, 88, 62
1, 90165, Note_off_c, 0, 88, 65
1, 90210, Note_on_c, 0, 87, 48
1, 90231, Note_off_c, 0, 87, 60
1, 90239, Note_on_c, 0, 88, 70
1, 90258, Note_off_c, 0, 88, 65
1, 90296, Note_on_c, 0, 87, 69
1, 90323, Note_off_c, 0, 87, 61
1, 90338, Note_on_c, 0, 88, 60
1, 90389, Note_on_c, 0, 87, 67
1, 90419, Note_off_c, 0, 87, 62
1, 90426, Note_off_c, 0, 88, 0
1, 90442, Note_on_c, 0, 88, 43
1, 90490, Note_off_c, 0, 88, 62
1, 90501, Note_on_c, 0, 87, 62
1, 90518, Note_off_c, 0, 87, 67
1, 90534, Note_on_c, 0, 88, 56
1, 90580, Note_off_c, 0, 88, 61
1, 90590, Note_on_c, 0, 87, 66
1, 90630, Note_off_c, 0, 87, 61
1, 90657, Note_on_c, 0, 88, 59
1, 90690, Note_off_c, 0, 88, 66
1, 90726, Note_on_c, 0, 87, 48
1, 90749, Note_off_c, 0, 87, 59
1, 90765, Note_on_c, 0, 88, 62
1, 90806, Note_off_c, 0, 88, 61
1, 90826, Note_on_c, 0, 87, 62
1, 90844, Note_off_c, 0, 87, 67
1, 90885, Note_on_c, 0, 88, 63
1, 90928, Note_on_c, 0, 87, 60
1, 90942, Note_off_c, 0, 88, 63
1, 90992, Note_off_c, 0, 87, 64
1, 91027, Note_on_c, 0, 86, 45
1, 91120, Control_c, 0, 64, 124
1, 91134, Note_on_c, 0, 87, 50
1, 91135, Control_c, 0, 64, 114
1, 91136, Note_off_c, 0, 86, 57
1, 91150, Control_c, 0, 64, 110
1, 91165, Control_c, 0, 64, 107
1, 91179, Control_c, 0, 64, 104
1, 91194, Control_c, 0, 64, 101
1, 91209, Control_c, 0, 64, 99
1, 91238, Control_c, 0, 64, 96
1, 91253, Control_c, 0, 64, 95
1, 91268, Control_c, 0, 64, 95
1, 91283, Control_c, 0, 64, 94
1, 91298, Control_c, 0, 64, 94
1, 91313, Control_c, 0, 64, 93
1, 91328, Control_c, 0, 64, 93
1, 91331, Note_off_c, 0, 87, 58
1, 91339, Note_on_c, 0, 88, 53
1, 91343, Control_c, 0, 64, 92
1, 91372, Control_c, 0, 64, 92
1, 91402, Control_c, 0, 64, 91
1, 91431, Control_c, 0, 64, 91
1, 91446, Control_c, 0, 64, 90
1, 91476, Control_c, 0, 64, 90
1, 91491, Control_c, 0, 64, 89
1, 91514, Note_on_c, 0, 87, 51
1, 91527, Control_c, 0, 64, 89
1, 91542, Control_c, 0, 64, 88
1, 91548, Note_off_c, 0, 88, 55
1, 91557, Control_c, 0, 64, 88
1, 91572, Control_c, 0, 64, 87
1, 91587, Control_c, 0, 64, 86
1, 91646, Control_c, 0, 64, 86
1, 91651, Note_on_c, 0, 85, 53
1, 91655, Note_off_c, 0, 87, 58
1, 91676, Control_c, 0, 64, 85
1, 91721, Control_c, 0, 64, 85
1, 91745, Note_off_c, 0, 85, 63
1, 91782, Note_on_c, 0, 83, 44
1, 91825, Control_c, 0, 64, 84
1, 91854, Control_c, 0, 64, 84
1, 91889, Note_off_c, 0, 83, 59
1, 91906, Note_on_c, 0, 82, 46
1, 91929, Control_c, 0, 64, 83
1, 91944, Control_c, 0, 64, 83
1, 91959, Control_c, 0, 64, 82
1, 91989, Control_c, 0, 64, 82
1, 92006, Note_off_c, 0, 82, 56
1, 92021, Note_on_c, 0, 80, 49
1, 92113, Note_off_c, 0, 80, 62
1, 92136, Control_c, 0, 64, 81
1, 92151, Note_on_c, 0, 79, 42
1, 92166, Control_c, 0, 64, 81
1, 92181, Control_c, 0, 64, 80
1, 92210, Control_c, 0, 64, 80
1, 92246, Note_off_c, 0, 79, 59
1, 92277, Control_c, 0, 64, 79
1, 92278, Note_on_c, 0, 78, 47
1, 92307, Control_c, 0, 64, 79
1, 92366, Control_c, 0, 64, 78
1, 92368, Note_off_c, 0, 78, 61
1, 92407, Note_on_c, 0, 76, 37
1, 92527, Note_off_c, 0, 76, 35
1, 92532, Note_on_c, 0, 75, 43
1, 92639, Note_off_c, 0, 75, 52
1, 92657, Note_on_c, 0, 73, 38
1, 92738, Note_off_c, 0, 73, 61
1, 92773, Note_on_c, 0, 71, 42
1, 92856, Control_c, 0, 64, 78
1, 92884, Note_off_c, 0, 71, 60
1, 92899, Note_on_c, 0, 70, 41
1, 93003, Control_c, 0, 64, 77
1, 93009, Note_off_c, 0, 70, 52
1, 93036, Note_on_c, 0, 68, 35
1, 93056, Control_c, 0, 64, 77
1, 93100, Control_c, 0, 64, 76
1, 93117, Note_off_c, 0, 68, 62
1, 93154, Note_on_c, 0, 67, 39
1, 93159, Control_c, 0, 64, 76
1, 93239, Note_off_c, 0, 67, 61
1, 93248, Control_c, 0, 64, 75
1, 93269, Note_on_c, 0, 66, 39
1, 93362, Note_off_c, 0, 66, 63
1, 93368, Control_c, 0, 64, 75
1, 93401, Note_on_c, 0, 64, 36
1, 93495, Note_off_c, 0, 64, 61
1, 93501, Control_c, 0, 64, 74
1, 93523, Note_on_c, 0, 63, 37
1, 93644, Note_on_c, 0, 61, 40
1, 93665, Note_off_c, 0, 63, 37
1, 93730, Note_off_c, 0, 61, 61
1, 93738, Control_c, 0, 64, 74
1, 93760, Note_on_c, 0, 59, 43
1, 93870, Note_off_c, 0, 59, 59
1, 93892, Note_on_c, 0, 58, 43
1, 94005, Note_off_c, 0, 58, 53
1, 94016, Note_on_c, 0, 56, 36
1, 94106, Note_off_c, 0, 56, 64
1, 94136, Note_on_c, 0, 55, 44
1, 94161, Control_c, 0, 64, 74
1, 94226, Note_off_c, 0, 55, 60
1, 94256, Note_on_c, 0, 54, 40
1, 94294, Control_c, 0, 64, 75
1, 94324, Control_c, 0, 64, 75
1, 94342, Note_off_c, 0, 54, 61
1, 94365, Note_on_c, 0, 52, 48
1, 94368, Control_c, 0, 64, 76
1, 94398, Control_c, 0, 64, 76
1, 94471, Note_off_c, 0, 52, 59
1, 94506, Note_on_c, 0, 51, 40
1, 94598, Control_c, 0, 64, 76
1, 94634, Note_on_c, 0, 49, 43
1, 94636, Note_off_c, 0, 51, 54
1, 94702, Control_c, 0, 64, 75
1, 94723, Note_off_c, 0, 49, 64
1, 94751, Note_on_c, 0, 47, 46
1, 94852, Note_off_c, 0, 47, 57
1, 94872, Note_on_c, 0, 46, 43
1, 94986, Note_on_c, 0, 44, 45
1, 95024, Note_off_c, 0, 46, 37
1, 95076, Note_off_c, 0, 44, 63
1, 95102, Control_c, 0, 64, 75
1, 95105, Note_on_c, 0, 43, 48
1, 95131, Control_c, 0, 64, 74
1, 95161, Control_c, 0, 64, 74
1, 95176, Control_c, 0, 64, 73
1, 95200, Note_off_c, 0, 43, 60
1, 95205, Control_c, 0, 64, 73
1, 95220, Control_c, 0, 64, 72
1, 95222, Note_on_c, 0, 42, 49
1, 95286, Control_c, 0, 64, 72
1, 95331, Control_c, 0, 64, 71
1, 95334, Note_off_c, 0, 42, 61
1, 95346, Control_c, 0, 64, 71
1, 95353, Note_on_c, 0, 40, 54
1, 95462, Note_off_c, 0, 40, 60
1, 95474, Note_on_c, 0, 39, 54
1, 95479, Control_c, 0, 64, 70
1, 95524, Control_c, 0, 64, 70
1, 95553, Control_c, 0, 64, 69
1, 95604, Note_on_c, 0, 37, 50
1, 95611, Note_off_c, 0, 39, 57
1, 95642, Control_c, 0, 64, 69
1, 95658, Control_c, 0, 64, 68
1, 95720, Note_off_c, 0, 37, 62
1, 95737, Note_on_c, 0, 35, 57
1, 95748, Control_c, 0, 64, 68
1, 95777, Control_c, 0, 64, 67
1, 95821, Control_c, 0, 64, 67
1, 95913, Note_on_c, 0, 34, 55
1, 95919, Note_off_c, 0, 35, 54
1, 96097, Note_off_c, 0, 34, 62
1, 96101, Note_on_c, 0, 35, 51
1, 96232, Note_on_c, 0, 37, 52
1, 96234, Note_off_c, 0, 35, 53
1, 96356, Note_on_c, 0, 39, 56
1, 96357, Note_off_c, 0, 37, 57
1, 96476, Note_on_c, 0, 40, 51
1, 96492, Note_off_c, 0, 39, 55
1, 96556, Control_c, 0, 64, 66
1, 96570, Control_c, 0, 64, 66
1, 96585, Control_c, 0, 64, 65
1, 96600, Control_c, 0, 64, 64
1, 96628, Note_on_c, 0, 39, 62
1, 96644, Note_off_c, 0, 40, 57
1, 96644, Control_c, 0, 64, 64
1, 96674, Control_c, 0, 64, 60
1, 96689, Control_c, 0, 64, 34
1, 96704, Control_c, 0, 64, 0
1, 96753, Note_on_c, 0, 37, 61
1, 96818, Note_off_c, 0, 39, 53
1, 96868, Note_off_c, 0, 37, 62
1, 96882, Note_on_c, 0, 35, 62
1, 97024, Note_on_c, 0, 34, 57
1, 97033, Note_off_c, 0, 35, 59
1, 97150, Note_off_c, 0, 34, 63
1, 97158, Note_on_c, 0, 39, 58
1, 97319, Note_on_c, 0, 37, 63
1, 97321, Note_off_c, 0, 39, 61
1, 97452, Note_off_c, 0, 37, 58
1, 97461, Note_on_c, 0, 39, 60
1, 97560, Note_off_c, 0, 39, 62
1, 97592, Note_on_c, 0, 32, 83
1, 97600, Note_on_c, 0, 56, 90
1, 97623, Control_c, 0, 64, 96
1, 97638, Control_c, 0, 64, 127
1, 97667, Note_on_c, 0, 51, 78
1, 97668, Note_off_c, 0, 32, 63
1, 97668, Note_off_c, 0, 56, 63
1, 97671, Note_on_c, 0, 39, 78
1, 97697, Control_c, 0, 64, 120
1, 97712, Control_c, 0, 64, 117
1, 97714, Note_off_c, 0, 39, 63
1, 97719, Note_off_c, 0, 51, 60
1, 97724, Note_on_c, 0, 47, 72
1, 97740, Note_on_c, 0, 44, 72
1, 97786, Control_c, 0, 64, 114
1, 97795, Note_off_c, 0, 47, 60
1, 97798, Note_off_c, 0, 44, 62
1, 97800, Control_c, 0, 64, 106
1, 97809, Note_on_c, 0, 39, 64
1, 97815, Control_c, 0, 64, 100
1, 97824, Note_on_c, 0, 52, 58
1, 97830, Control_c, 0, 64, 94
1, 97845, Control_c, 0, 64, 89
1, 97851, Note_off_c, 0, 39, 62
1, 97860, Control_c, 0, 64, 82
1, 97861, Note_on_c, 0, 32, 73
1, 97865, Note_off_c, 0, 52, 62
1, 97870, Note_on_c, 0, 56, 67
1, 97874, Control_c, 0, 64, 72
1, 97889, Control_c, 0, 64, 0
1, 97892, Note_off_c, 0, 56, 61
1, 97904, Note_off_c, 0, 32, 64
1, 97934, Note_on_c, 0, 39, 69
1, 97934, Note_on_c, 0, 51, 71
1, 97971, Note_off_c, 0, 51, 61
1, 97981, Note_off_c, 0, 39, 59
1, 97999, Note_on_c, 0, 59, 80
1, 98003, Note_on_c, 0, 32, 68
1, 98056, Note_off_c, 0, 59, 62
1, 98058, Note_off_c, 0, 32, 64
1, 98066, Note_on_c, 0, 51, 75
1, 98079, Note_on_c, 0, 39, 72
1, 98109, Note_off_c, 0, 51, 61
1, 98118, Note_off_c, 0, 39, 63
1, 98128, Note_on_c, 0, 58, 80
1, 98148, Note_on_c, 0, 32, 73
1, 98179, Note_off_c, 0, 58, 61
1, 98181, Note_off_c, 0, 32, 62
1, 98198, Note_on_c, 0, 39, 66
1, 98200, Note_on_c, 0, 51, 75
1, 98235, Note_off_c, 0, 39, 62
1, 98238, Note_off_c, 0, 51, 60
1, 98255, Note_on_c, 0, 32, 70
1, 98282, Note_on_c, 0, 55, 66
1, 98309, Note_off_c, 0, 32, 63
1, 98315, Note_off_c, 0, 55, 63
1, 98328, Note_on_c, 0, 39, 69
1, 98339, Note_on_c, 0, 51, 75
1, 98369, Note_off_c, 0, 39, 63
1, 98375, Note_off_c, 0, 51, 61
1, 98395, Note_on_c, 0, 32, 77
1, 98410, Note_on_c, 0, 56, 85
1, 98416, Control_c, 0, 64, 68
1, 98431, Control_c, 0, 64, 92
1, 98446, Control_c, 0, 64, 106
1, 98461, Note_on_c, 0, 39, 71
1, 98461, Control_c, 0, 64, 108
1, 98474, Note_off_c, 0, 32, 62
1, 98476, Control_c, 0, 64, 102
1, 98480, Note_on_c, 0, 51, 76
1, 98490, Note_off_c, 0, 56, 60
1, 98490, Control_c, 0, 64, 96
1, 98505, Control_c, 0, 64, 95
1, 98506, Note_off_c, 0, 39, 61
1, 98520, Control_c, 0, 64, 95
1, 98536, Note_off_c, 0, 51, 62
1, 98539, Note_on_c, 0, 44, 68
1, 98542, Note_on_c, 0, 47, 71
1, 98549, Control_c, 0, 64, 95
1, 98583, Note_off_c, 0, 44, 64
1, 98599, Note_off_c, 0, 47, 59
1, 98607, Note_on_c, 0, 39, 62
1, 98609, Control_c, 0, 64, 95
1, 98611, Note_on_c, 0, 51, 76
1, 98638, Control_c, 0, 64, 94
1, 98649, Note_off_c, 0, 39, 63
1, 98653, Control_c, 0, 64, 92
1, 98656, Note_on_c, 0, 32, 75
1, 98667, Note_on_c, 0, 56, 78
1, 98668, Note_off_c, 0, 51, 62
1, 98668, Control_c, 0, 64, 88
1, 98683, Control_c, 0, 64, 83
1, 98694, Note_off_c, 0, 32, 65
1, 98697, Note_off_c, 0, 56, 60
1, 98697, Control_c, 0, 64, 75
1, 98712, Control_c, 0, 64, 66
1, 98727, Control_c, 0, 64, 0
1, 98730, Note_on_c, 0, 39, 74
1, 98737, Note_on_c, 0, 51, 76
1, 98766, Note_off_c, 0, 51, 60
1, 98774, Note_off_c, 0, 39, 62
1, 98795, Note_on_c, 0, 32, 66
1, 98796, Note_on_c, 0, 59, 83
1, 98829, Note_off_c, 0, 32, 65
1, 98841, Note_off_c, 0, 59, 59
1, 98863, Note_on_c, 0, 39, 66
1, 98865, Note_on_c, 0, 51, 74
1, 98902, Note_off_c, 0, 39, 62
1, 98914, Note_on_c, 0, 32, 67
1, 98925, Note_off_c, 0, 51, 61
1, 98929, Note_on_c, 0, 58, 79
1, 98959, Note_off_c, 0, 32, 62
1, 98965, Note_off_c, 0, 58, 63
1, 98980, Note_on_c, 0, 39, 64
1, 98989, Note_on_c, 0, 51, 78
1, 99040, Note_off_c, 0, 39, 60
1, 99042, Note_off_c, 0, 51, 59
1, 99050, Note_on_c, 0, 32, 63
1, 99062, Note_on_c, 0, 56, 75
1, 99087, Note_off_c, 0, 32, 63
1, 99092, Note_off_c, 0, 56, 68
1, 99108, Note_on_c, 0, 39, 60
1, 99122, Note_on_c, 0, 51, 78
1, 99152, Note_off_c, 0, 39, 64
1, 99165, Note_off_c, 0, 51, 60
1, 99168, Note_on_c, 0, 32, 73
1, 99194, Note_on_c, 0, 64, 87
1, 99224, Control_c, 0, 64, 74
1, 99239, Control_c, 0, 64, 89
1, 99248, Note_off_c, 0, 32, 63
1, 99250, Note_on_c, 0, 40, 73
1, 99254, Control_c, 0, 64, 93
1, 99261, Note_on_c, 0, 59, 63
1, 99278, Note_off_c, 0, 64, 60
1, 99284, Control_c, 0, 64, 91
1, 99302, Note_off_c, 0, 40, 62
1, 99305, Note_on_c, 0, 58, 14
1, 99314, Note_off_c, 0, 59, 60
1, 99317, Note_on_c, 0, 44, 78
1, 99326, Note_on_c, 0, 56, 75
1, 99328, Control_c, 0, 64, 92
1, 99343, Control_c, 0, 64, 92
1, 99347, Note_off_c, 0, 58, 48
1, 99375, Note_off_c, 0, 44, 63
1, 99380, Note_on_c, 0, 40, 69
1, 99385, Note_off_c, 0, 56, 65
1, 99395, Note_on_c, 0, 59, 75
1, 99434, Note_off_c, 0, 40, 61
1, 99440, Note_on_c, 0, 32, 75
1, 99446, Control_c, 0, 64, 91
1, 99457, Note_on_c, 0, 64, 78
1, 99461, Control_c, 0, 64, 86
1, 99462, Note_off_c, 0, 59, 62
1, 99476, Control_c, 0, 64, 75
1, 99484, Note_off_c, 0, 32, 62
1, 99486, Note_off_c, 0, 64, 63
1, 99490, Control_c, 0, 64, 46
1, 99505, Control_c, 0, 64, 0
1, 99513, Note_on_c, 0, 59, 73
1, 99523, Note_on_c, 0, 40, 69
1, 99566, Note_off_c, 0, 59, 60
1, 99568, Note_off_c, 0, 40, 60
1, 99578, Note_on_c, 0, 32, 71
1, 99581, Note_on_c, 0, 68, 83
1, 99618, Note_off_c, 0, 32, 65
1, 99623, Note_off_c, 0, 68, 59
1, 99642, Note_on_c, 0, 59, 79
1, 99652, Note_on_c, 0, 40, 72
1, 99690, Note_off_c, 0, 40, 66
1, 99695, Note_off_c, 0, 59, 62
1, 99699, Note_on_c, 0, 32, 70
1, 99710, Note_on_c, 0, 66, 84
1, 99744, Note_off_c, 0, 32, 63
1, 99745, Note_off_c, 0, 66, 61
1, 99773, Note_on_c, 0, 40, 68
1, 99774, Note_on_c, 0, 59, 72
1, 99815, Note_off_c, 0, 40, 64
1, 99816, Note_off_c, 0, 59, 56
1, 99832, Note_on_c, 0, 32, 67
1, 99843, Note_on_c, 0, 64, 83
1, 99866, Note_off_c, 0, 32, 64
1, 99886, Note_off_c, 0, 64, 64
1, 99890, Note_on_c, 0, 40, 72
1, 99904, Note_on_c, 0, 59, 73
1, 99931, Note_off_c, 0, 40, 65
1, 99934, Note_off_c, 0, 59, 62
1, 99949, Note_on_c, 0, 32, 73
1, 99966, Note_on_c, 0, 64, 90
1, 99987, Control_c, 0, 64, 54
1, 100002, Control_c, 0, 64, 78
1, 100017, Control_c, 0, 64, 80
1, 100026, Note_on_c, 0, 59, 65
1, 100026, Note_off_c, 0, 32, 63
1, 100029, Note_on_c, 0, 40, 75
1, 100047, Note_off_c, 0, 64, 65
1, 100084, Note_off_c, 0, 40, 61
1, 100086, Note_off_c, 0, 59, 62
1, 100092, Control_c, 0, 64, 81
1, 100098, Note_on_c, 0, 44, 78
1, 100100, Note_on_c, 0, 56, 80
1, 100107, Control_c, 0, 64, 81
1, 100136, Note_off_c, 0, 56, 65
1, 100159, Note_off_c, 0, 44, 62
1, 100160, Note_on_c, 0, 40, 66
1, 100172, Note_on_c, 0, 59, 75
1, 100181, Control_c, 0, 64, 81
1, 100195, Control_c, 0, 64, 80
1, 100210, Control_c, 0, 64, 78
1, 100212, Note_off_c, 0, 40, 62
1, 100220, Note_on_c, 0, 32, 78
1, 100225, Control_c, 0, 64, 76
1, 100233, Note_on_c, 0, 64, 80
1, 100238, Note_off_c, 0, 59, 63
1, 100240, Control_c, 0, 64, 72
1, 100255, Control_c, 0, 64, 68
1, 100264, Note_off_c, 0, 32, 63
1, 100269, Control_c, 0, 64, 64
1, 100270, Note_off_c, 0, 64, 59
1, 100284, Control_c, 0, 64, 0
1, 100300, Note_on_c, 0, 59, 78
1, 100306, Note_on_c, 0, 40, 68
1, 100351, Note_off_c, 0, 59, 62
1, 100358, Note_on_c, 0, 32, 75
1, 100361, Note_off_c, 0, 40, 61
1, 100363, Note_on_c, 0, 68, 82
1, 100403, Note_off_c, 0, 32, 62
1, 100412, Note_off_c, 0, 68, 60
1, 100429, Note_on_c, 0, 59, 84
1, 100434, Note_on_c, 0, 40, 71
1, 100479, Note_off_c, 0, 40, 60
1, 100493, Note_off_c, 0, 59, 60
1, 100499, Note_on_c, 0, 66, 85
1, 100502, Note_on_c, 0, 32, 73
1, 100541, Note_off_c, 0, 32, 64
1, 100557, Note_off_c, 0, 66, 62
1, 100567, Note_on_c, 0, 59, 78
1, 100580, Note_on_c, 0, 40, 64
1, 100616, Note_off_c, 0, 40, 66
1, 100623, Note_on_c, 0, 32, 73
1, 100634, Note_on_c, 0, 64, 90
1, 100634, Note_off_c, 0, 59, 61
1, 100663, Control_c, 0, 64, 66
1, 100691, Note_off_c, 0, 64, 64
1, 100692, Control_c, 0, 64, 67
1, 100694, Note_off_c, 0, 32, 63
1, 100697, Note_on_c, 0, 40, 73
1, 100707, Control_c, 0, 64, 68
1, 100713, Note_on_c, 0, 59, 85
1, 100722, Control_c, 0, 64, 70
1, 100736, Note_off_c, 0, 40, 66
1, 100736, Control_c, 0, 64, 72
1, 100751, Control_c, 0, 64, 74
1, 100765, Note_off_c, 0, 59, 63
1, 100766, Control_c, 0, 64, 75
1, 100781, Control_c, 0, 64, 75
1, 100810, Control_c, 0, 64, 75
1, 100825, Control_c, 0, 64, 72
1, 100840, Control_c, 0, 64, 66
1, 100855, Control_c, 0, 64, 0
1, 100861, Note_on_c, 0, 33, 97
1, 100864, Note_on_c, 0, 45, 97
1, 100864, Note_on_c, 0, 73, 90
1, 101097, Note_off_c, 0, 73, 62
1, 101100, Note_on_c, 0, 76, 83
1, 101107, Control_c, 0, 64, 74
1, 101122, Control_c, 0, 64, 78
1, 101136, Control_c, 0, 64, 81
1, 101151, Control_c, 0, 64, 82
1, 101164, Note_off_c, 0, 76, 57
1, 101166, Control_c, 0, 64, 84
1, 101181, Control_c, 0, 64, 87
1, 101192, Note_on_c, 0, 73, 80
1, 101196, Control_c, 0, 64, 89
1, 101210, Control_c, 0, 64, 91
1, 101225, Control_c, 0, 64, 91
1, 101240, Control_c, 0, 64, 92
1, 101254, Note_off_c, 0, 73, 62
1, 101255, Control_c, 0, 64, 92
1, 101257, Note_on_c, 0, 76, 83
1, 101277, Control_c, 0, 64, 94
1, 101293, Control_c, 0, 64, 95
1, 101317, Note_off_c, 0, 76, 56
1, 101323, Control_c, 0, 64, 97
1, 101336, Note_on_c, 0, 73, 79
1, 101367, Control_c, 0, 64, 100
1, 101382, Control_c, 0, 64, 102
1, 101388, Note_off_c, 0, 73, 62
1, 101391, Note_on_c, 0, 76, 76
1, 101427, Control_c, 0, 64, 104
1, 101436, Note_off_c, 0, 76, 57
1, 101454, Note_on_c, 0, 73, 75
1, 101456, Control_c, 0, 64, 106
1, 101471, Control_c, 0, 64, 108
1, 101501, Control_c, 0, 64, 110
1, 101505, Note_off_c, 0, 73, 62
1, 101508, Note_on_c, 0, 76, 75
1, 101543, Note_off_c, 0, 76, 57
1, 101559, Control_c, 0, 64, 113
1, 101570, Note_on_c, 0, 73, 76
1, 101621, Note_on_c, 0, 76, 81
1, 101621, Note_off_c, 0, 73, 63
1, 101657, Note_off_c, 0, 76, 56
1, 101686, Note_on_c, 0, 73, 78
1, 101737, Note_off_c, 0, 73, 62
1, 101746, Note_on_c, 0, 76, 75
1, 101779, Note_off_c, 0, 76, 56
1, 101799, Note_on_c, 0, 73, 75
1, 101850, Note_off_c, 0, 73, 63
1, 101855, Note_on_c, 0, 76, 78
1, 101897, Note_off_c, 0, 76, 54
1, 101915, Note_off_c, 0, 33, 59
1, 101918, Note_on_c, 0, 73, 75
1, 101930, Control_c, 0, 64, 115
1, 101934, Note_off_c, 0, 45, 55
1, 101971, Note_off_c, 0, 73, 62
1, 101977, Note_on_c, 0, 76, 76
1, 102033, Note_off_c, 0, 76, 56
1, 102044, Note_on_c, 0, 73, 71
1, 102056, Control_c, 0, 64, 117
1, 102071, Control_c, 0, 64, 120
1, 102086, Control_c, 0, 64, 127
1, 102100, Note_off_c, 0, 73, 61
1, 102119, Note_on_c, 0, 76, 62
1, 102145, Control_c, 0, 64, 111
1, 102148, Note_off_c, 0, 76, 50
1, 102160, Control_c, 0, 64, 90
1, 102170, Note_on_c, 0, 73, 74
1, 102175, Control_c, 0, 64, 72
1, 102189, Note_on_c, 0, 46, 89
1, 102190, Control_c, 0, 64, 0
1, 102194, Note_on_c, 0, 34, 83
1, 102223, Note_on_c, 0, 76, 80
1, 102226, Note_off_c, 0, 73, 62
1, 102239, Note_off_c, 0, 46, 62
1, 102241, Note_off_c, 0, 34, 61
1, 102298, Note_off_c, 0, 76, 58
1, 102305, Note_on_c, 0, 37, 84
1, 102308, Note_on_c, 0, 70, 79
1, 102360, Note_off_c, 0, 70, 63
1, 102360, Note_on_c, 0, 73, 74
1, 102369, Note_off_c, 0, 37, 62
1, 102403, Note_off_c, 0, 73, 60
1, 102417, Note_on_c, 0, 40, 82
1, 102430, Note_on_c, 0, 67, 72
1, 102470, Note_off_c, 0, 67, 61
1, 102471, Note_off_c, 0, 40, 64
1, 102484, Note_on_c, 0, 70, 74
1, 102515, Note_off_c, 0, 70, 65
1, 102532, Note_on_c, 0, 43, 85
1, 102545, Note_on_c, 0, 64, 79
1, 102581, Note_off_c, 0, 43, 61
1, 102594, Note_off_c, 0, 64, 53
1, 102605, Note_on_c, 0, 67, 76
1, 102661, Note_on_c, 0, 46, 82
1, 102667, Note_on_c, 0, 61, 76
1, 102667, Note_off_c, 0, 67, 62
1, 102700, Note_off_c, 0, 46, 57
1, 102719, Note_on_c, 0, 64, 70
1, 102719, Note_off_c, 0, 61, 60
1, 102778, Note_off_c, 0, 64, 61
1, 102785, Note_on_c, 0, 49, 85
1, 102798, Note_on_c, 0, 58, 76
1, 102833, Note_off_c, 0, 49, 61
1, 102837, Note_off_c, 0, 58, 59
1, 102859, Note_on_c, 0, 61, 75
1, 102909, Note_off_c, 0, 61, 58
1, 102921, Note_on_c, 0, 52, 86
1, 102923, Note_on_c, 0, 56, 73
1, 102970, Note_off_c, 0, 52, 61
1, 102979, Note_on_c, 0, 58, 77
1, 102982, Note_off_c, 0, 56, 64
1, 103034, Note_off_c, 0, 58, 64
1, 103040, Note_on_c, 0, 61, 75
1, 103047, Note_on_c, 0, 52, 86
1, 103086, Control_c, 0, 64, 34
1, 103098, Note_off_c, 0, 52, 62
1, 103101, Control_c, 0, 64, 62
1, 103111, Note_on_c, 0, 58, 83
1, 103111, Note_off_c, 0, 61, 61
1, 103116, Control_c, 0, 64, 65
1, 103131, Control_c, 0, 64, 66
1, 103145, Control_c, 0, 64, 68
1, 103160, Control_c, 0, 64, 70
1, 103164, Note_off_c, 0, 58, 63
1, 103174, Note_on_c, 0, 56, 79
1, 103175, Control_c, 0, 64, 72
1, 103177, Note_on_c, 0, 52, 88
1, 103190, Control_c, 0, 64, 74
1, 103205, Control_c, 0, 64, 76
1, 103219, Control_c, 0, 64, 78
1, 103231, Note_off_c, 0, 52, 63
1, 103234, Control_c, 0, 64, 80
1, 103248, Note_on_c, 0, 58, 86
1, 103249, Control_c, 0, 64, 81
1, 103250, Note_off_c, 0, 56, 64
1, 103263, Control_c, 0, 64, 83
1, 103278, Control_c, 0, 64, 83
1, 103316, Note_off_c, 0, 58, 53
1, 103338, Control_c, 0, 64, 82
1, 103353, Control_c, 0, 64, 80
1, 103358, Note_on_c, 0, 52, 86
1, 103368, Control_c, 0, 64, 76
1, 103383, Control_c, 0, 64, 70
1, 103397, Control_c, 0, 64, 59
1, 103412, Control_c, 0, 64, 0
1, 103453, Note_on_c, 0, 56, 72
1, 103524, Note_off_c, 0, 56, 61
1, 103535, Note_on_c, 0, 61, 78
1, 103567, Control_c, 0, 64, 65
1, 103582, Control_c, 0, 64, 68
1, 103597, Control_c, 0, 64, 71
1, 103601, Note_off_c, 0, 61, 61
1, 103605, Note_on_c, 0, 58, 76
1, 103612, Control_c, 0, 64, 73
1, 103627, Control_c, 0, 64, 75
1, 103642, Control_c, 0, 64, 78
1, 103653, Note_off_c, 0, 58, 59
1, 103657, Control_c, 0, 64, 80
1, 103663, Note_on_c, 0, 56, 75
1, 103671, Control_c, 0, 64, 82
1, 103687, Control_c, 0, 64, 83
1, 103702, Control_c, 0, 64, 83
1, 103716, Control_c, 0, 64, 84
1, 103728, Note_off_c, 0, 56, 64
1, 103731, Note_on_c, 0, 61, 76
1, 103761, Control_c, 0, 64, 83
1, 103776, Control_c, 0, 64, 78
1, 103783, Note_off_c, 0, 61, 58
1, 103791, Control_c, 0, 64, 67
1, 103803, Note_on_c, 0, 51, 86
1, 103806, Control_c, 0, 64, 0
1, 103809, Note_off_c, 0, 52, 60
1, 103885, Note_on_c, 0, 55, 72
1, 103924, Control_c, 0, 64, 70
1, 103939, Control_c, 0, 64, 76
1, 103948, Note_on_c, 0, 61, 77
1, 103950, Note_off_c, 0, 55, 61
1, 103954, Control_c, 0, 64, 81
1, 103968, Control_c, 0, 64, 84
1, 103983, Control_c, 0, 64, 86
1, 103984, Note_off_c, 0, 51, 56
1, 103998, Control_c, 0, 64, 87
1, 104013, Control_c, 0, 64, 89
1, 104020, Note_on_c, 0, 58, 78
1, 104020, Note_off_c, 0, 61, 60
1, 104028, Control_c, 0, 64, 89
1, 104042, Control_c, 0, 64, 90
1, 104057, Control_c, 0, 64, 91
1, 104072, Control_c, 0, 64, 93
1, 104074, Note_off_c, 0, 58, 61
1, 104077, Note_on_c, 0, 55, 66
1, 104087, Control_c, 0, 64, 95
1, 104102, Control_c, 0, 64, 98
1, 104117, Control_c, 0, 64, 100
1, 104138, Note_on_c, 0, 61, 75
1, 104150, Note_off_c, 0, 55, 61
1, 104161, Control_c, 0, 64, 88
1, 104167, Note_off_c, 0, 61, 63
1, 104176, Control_c, 0, 64, 66
1, 104191, Control_c, 0, 64, 0
1, 104235, Note_on_c, 0, 44, 75
1, 104240, Note_on_c, 0, 68, 91
1, 104273, Control_c, 0, 64, 75
1, 104287, Control_c, 0, 64, 83
1, 104302, Control_c, 0, 64, 89
1, 104314, Note_off_c, 0, 44, 59
1, 104315, Note_on_c, 0, 51, 66
1, 104316, Note_off_c, 0, 68, 62
1, 104317, Control_c, 0, 64, 91
1, 104319, Note_on_c, 0, 63, 78
1, 104332, Control_c, 0, 64, 91
1, 104347, Control_c, 0, 64, 92
1, 104356, Note_off_c, 0, 63, 63
1, 104357, Note_off_c, 0, 51, 59
1, 104376, Note_on_c, 0, 59, 76
1, 104389, Note_on_c, 0, 56, 69
1, 104421, Control_c, 0, 64, 91
1, 104427, Note_off_c, 0, 56, 63
1, 104435, Control_c, 0, 64, 86
1, 104440, Note_off_c, 0, 59, 61
1, 104450, Control_c, 0, 64, 77
1, 104454, Note_on_c, 0, 63, 74
1, 104465, Note_on_c, 0, 51, 56
1, 104465, Control_c, 0, 64, 63
1, 104481, Control_c, 0, 64, 0
1, 104499, Note_off_c, 0, 51, 62
1, 104505, Note_on_c, 0, 68, 78
1, 104506, Note_on_c, 0, 44, 72
1, 104506, Note_off_c, 0, 63, 61
1, 104536, Note_off_c, 0, 68, 64
1, 104545, Note_off_c, 0, 44, 65
1, 104578, Note_on_c, 0, 51, 69
1, 104584, Note_on_c, 0, 63, 68
1, 104613, Note_off_c, 0, 63, 57
1, 104614, Note_off_c, 0, 51, 64
1, 104635, Note_on_c, 0, 71, 81
1, 104640, Note_on_c, 0, 44, 66
1, 104673, Note_off_c, 0, 44, 67
1, 104677, Note_off_c, 0, 71, 62
1, 104703, Note_on_c, 0, 51, 66
1, 104706, Note_on_c, 0, 63, 73
1, 104740, Note_off_c, 0, 51, 64
1, 104758, Note_on_c, 0, 44, 57
1, 104760, Note_off_c, 0, 63, 61
1, 104766, Note_on_c, 0, 70, 83
1, 104793, Note_off_c, 0, 44, 63
1, 104815, Note_off_c, 0, 70, 61
1, 104816, Note_on_c, 0, 51, 65
1, 104840, Note_on_c, 0, 63, 76
1, 104853, Note_off_c, 0, 51, 64
1, 104867, Note_on_c, 0, 44, 63
1, 104879, Note_off_c, 0, 63, 59
1, 104897, Note_on_c, 0, 68, 79
1, 104906, Note_off_c, 0, 44, 65
1, 104922, Note_off_c, 0, 68, 67
1, 104928, Note_on_c, 0, 51, 66
1, 104959, Note_on_c, 0, 63, 72
1, 104967, Note_off_c, 0, 51, 62
1, 104991, Note_off_c, 0, 63, 64
1, 104997, Note_on_c, 0, 44, 67
1, 105022, Control_c, 0, 64, 69
1, 105028, Note_on_c, 0, 68, 81
1, 105036, Control_c, 0, 64, 85
1, 105051, Control_c, 0, 64, 86
1, 105066, Control_c, 0, 64, 87
1, 105079, Note_on_c, 0, 51, 67
1, 105087, Note_off_c, 0, 44, 62
1, 105096, Control_c, 0, 64, 87
1, 105097, Note_on_c, 0, 63, 78
1, 105110, Note_off_c, 0, 68, 62
1, 105110, Control_c, 0, 64, 89
1, 105119, Note_off_c, 0, 51, 62
1, 105125, Control_c, 0, 64, 90
1, 105144, Note_off_c, 0, 63, 61
1, 105157, Note_on_c, 0, 56, 66
1, 105158, Note_on_c, 0, 59, 75
1, 105195, Note_off_c, 0, 56, 64
1, 105215, Note_off_c, 0, 59, 50
1, 105228, Note_on_c, 0, 51, 56
1, 105231, Note_on_c, 0, 63, 79
1, 105243, Control_c, 0, 64, 89
1, 105258, Control_c, 0, 64, 89
1, 105263, Note_off_c, 0, 51, 62
1, 105270, Note_on_c, 0, 44, 72
1, 105273, Control_c, 0, 64, 88
1, 105283, Note_on_c, 0, 68, 84
1, 105287, Note_off_c, 0, 63, 64
1, 105289, Control_c, 0, 64, 86
1, 105304, Control_c, 0, 64, 80
1, 105305, Note_off_c, 0, 44, 64
1, 105319, Control_c, 0, 64, 69
1, 105321, Note_off_c, 0, 68, 57
1, 105333, Control_c, 0, 64, 0
1, 105338, Note_on_c, 0, 51, 69
1, 105354, Note_on_c, 0, 63, 79
1, 105385, Note_off_c, 0, 51, 61
1, 105398, Note_on_c, 0, 44, 58
1, 105406, Note_off_c, 0, 63, 61
1, 105426, Note_on_c, 0, 71, 78
1, 105433, Note_off_c, 0, 44, 65
1, 105459, Note_off_c, 0, 71, 61
1, 105471, Note_on_c, 0, 51, 67
1, 105486, Note_on_c, 0, 63, 82
1, 105505, Note_off_c, 0, 51, 62
1, 105521, Note_on_c, 0, 44, 63
1, 105546, Note_off_c, 0, 63, 60
1, 105547, Note_on_c, 0, 70, 74
1, 105560, Note_off_c, 0, 44, 66
1, 105582, Note_on_c, 0, 51, 62
1, 105599, Note_off_c, 0, 70, 61
1, 105621, Note_on_c, 0, 63, 73
1, 105630, Note_off_c, 0, 51, 60
1, 105636, Note_on_c, 0, 44, 61
1, 105664, Note_off_c, 0, 63, 62
1, 105670, Note_on_c, 0, 68, 77
1, 105680, Note_off_c, 0, 44, 60
1, 105701, Note_off_c, 0, 68, 66
1, 105704, Note_on_c, 0, 51, 60
1, 105729, Note_on_c, 0, 63, 75
1, 105743, Note_off_c, 0, 51, 61
1, 105765, Note_off_c, 0, 63, 66
1, 105782, Note_on_c, 0, 44, 70
1, 105807, Note_on_c, 0, 76, 95
1, 105814, Control_c, 0, 64, 72
1, 105829, Control_c, 0, 64, 75
1, 105844, Control_c, 0, 64, 77
1, 105848, Note_on_c, 0, 52, 74
1, 105851, Note_off_c, 0, 44, 62
1, 105858, Control_c, 0, 64, 78
1, 105863, Note_on_c, 0, 71, 57
1, 105873, Control_c, 0, 64, 80
1, 105878, Note_on_c, 0, 70, 61
1, 105888, Note_off_c, 0, 76, 57
1, 105888, Control_c, 0, 64, 82
1, 105899, Note_off_c, 0, 70, 56
1, 105903, Control_c, 0, 64, 84
1, 105904, Note_off_c, 0, 52, 59
1, 105918, Note_on_c, 0, 56, 73
1, 105918, Control_c, 0, 64, 84
1, 105922, Note_off_c, 0, 71, 62
1, 105937, Note_on_c, 0, 68, 73
1, 105947, Control_c, 0, 64, 85
1, 105962, Control_c, 0, 64, 85
1, 105975, Note_off_c, 0, 56, 63
1, 105977, Control_c, 0, 64, 86
1, 105981, Note_on_c, 0, 52, 63
1, 105990, Note_off_c, 0, 68, 64
1, 105992, Control_c, 0, 64, 86
1, 106003, Note_on_c, 0, 71, 73
1, 106012, Note_on_c, 0, 70, 17
1, 106021, Control_c, 0, 64, 86
1, 106031, Note_off_c, 0, 52, 58
1, 106036, Control_c, 0, 64, 85
1, 106040, Note_on_c, 0, 44, 72
1, 106048, Note_off_c, 0, 70, 52
1, 106050, Control_c, 0, 64, 83
1, 106059, Note_on_c, 0, 76, 80
1, 106064, Note_off_c, 0, 71, 64
1, 106065, Control_c, 0, 64, 80
1, 106080, Note_off_c, 0, 44, 63
1, 106081, Control_c, 0, 64, 73
1, 106092, Note_off_c, 0, 76, 59
1, 106096, Control_c, 0, 64, 65
1, 106111, Control_c, 0, 64, 0
1, 106121, Note_on_c, 0, 71, 75
1, 106130, Note_on_c, 0, 52, 66
1, 106170, Note_off_c, 0, 71, 62
1, 106171, Note_off_c, 0, 52, 61
1, 106181, Note_on_c, 0, 44, 69
1, 106187, Note_on_c, 0, 80, 88
1, 106215, Note_off_c, 0, 44, 67
1, 106235, Note_off_c, 0, 80, 63
1, 106244, Note_on_c, 0, 52, 72
1, 106247, Note_on_c, 0, 71, 83
1, 106300, Note_off_c, 0, 52, 58
1, 106300, Note_off_c, 0, 71, 60
1, 106304, Note_on_c, 0, 44, 67
1, 106313, Note_on_c, 0, 78, 88
1, 106341, Note_off_c, 0, 44, 64
1, 106357, Note_off_c, 0, 78, 59
1, 106374, Note_on_c, 0, 52, 63
1, 106374, Note_on_c, 0, 71, 77
1, 106411, Note_off_c, 0, 52, 62
1, 106432, Note_off_c, 0, 71, 56
1, 106435, Note_on_c, 0, 44, 64
1, 106439, Note_on_c, 0, 76, 84
1, 106463, Note_off_c, 0, 44, 65
1, 106477, Note_on_c, 0, 52, 73
1, 106486, Note_off_c, 0, 76, 60
1, 106495, Note_on_c, 0, 71, 73
1, 106530, Note_off_c, 0, 52, 59
1, 106542, Note_off_c, 0, 71, 65
1, 106550, Note_on_c, 0, 44, 65
1, 106572, Note_on_c, 0, 76, 91
1, 106593, Control_c, 0, 64, 70
1, 106608, Control_c, 0, 64, 74
1, 106623, Control_c, 0, 64, 74
1, 106630, Note_on_c, 0, 52, 74
1, 106631, Note_off_c, 0, 44, 62
1, 106638, Note_on_c, 0, 71, 77
1, 106653, Control_c, 0, 64, 75
1, 106656, Note_off_c, 0, 76, 60
1, 106668, Control_c, 0, 64, 76
1, 106676, Note_off_c, 0, 52, 59
1, 106682, Control_c, 0, 64, 77
1, 106686, Note_off_c, 0, 71, 61
1, 106697, Control_c, 0, 64, 77
1, 106698, Note_on_c, 0, 56, 75
1, 106711, Note_on_c, 0, 68, 79
1, 106742, Control_c, 0, 64, 78
1, 106746, Note_off_c, 0, 68, 63
1, 106751, Note_off_c, 0, 56, 63
1, 106760, Note_on_c, 0, 52, 67
1, 106771, Note_on_c, 0, 71, 79
1, 106786, Control_c, 0, 64, 77
1, 106801, Control_c, 0, 64, 77
1, 106815, Control_c, 0, 64, 76
1, 106820, Note_on_c, 0, 44, 76
1, 106822, Note_off_c, 0, 52, 60
1, 106830, Control_c, 0, 64, 75
1, 106835, Note_on_c, 0, 76, 88
1, 106843, Note_off_c, 0, 71, 64
1, 106845, Control_c, 0, 64, 74
1, 106860, Control_c, 0, 64, 72
1, 106869, Note_off_c, 0, 44, 60
1, 106875, Control_c, 0, 64, 69
1, 106877, Note_off_c, 0, 76, 59
1, 106891, Control_c, 0, 64, 66
1, 106905, Control_c, 0, 64, 65
1, 106906, Note_on_c, 0, 52, 71
1, 106910, Note_on_c, 0, 71, 81
1, 106920, Control_c, 0, 64, 64
1, 106935, Control_c, 0, 64, 64
1, 106950, Control_c, 0, 64, 61
1, 106953, Note_off_c, 0, 71, 63
1, 106965, Note_off_c, 0, 52, 57
1, 106965, Control_c, 0, 64, 0
1, 106966, Note_on_c, 0, 44, 73
1, 106967, Note_on_c, 0, 80, 87
1, 106998, Note_off_c, 0, 44, 63
1, 107016, Note_off_c, 0, 80, 63
1, 107026, Note_on_c, 0, 52, 66
1, 107033, Note_on_c, 0, 71, 86
1, 107085, Note_off_c, 0, 52, 59
1, 107088, Note_on_c, 0, 44, 60
1, 107097, Note_off_c, 0, 71, 59
1, 107100, Note_on_c, 0, 78, 88
1, 107127, Note_off_c, 0, 44, 65
1, 107148, Note_off_c, 0, 78, 62
1, 107157, Note_on_c, 0, 71, 78
1, 107159, Note_on_c, 0, 52, 66
1, 107198, Note_off_c, 0, 52, 63
1, 107222, Note_on_c, 0, 44, 74
1, 107228, Note_on_c, 0, 76, 92
1, 107228, Note_off_c, 0, 71, 63
1, 107268, Control_c, 0, 64, 66
1, 107279, Note_off_c, 0, 44, 58
1, 107283, Control_c, 0, 64, 70
1, 107291, Note_on_c, 0, 52, 71
1, 107298, Control_c, 0, 64, 72
1, 107300, Note_off_c, 0, 76, 58
1, 107312, Control_c, 0, 64, 74
1, 107314, Note_on_c, 0, 71, 88
1, 107327, Note_off_c, 0, 52, 64
1, 107327, Control_c, 0, 64, 75
1, 107342, Control_c, 0, 64, 76
1, 107357, Control_c, 0, 64, 77
1, 107366, Note_off_c, 0, 71, 63
1, 107401, Control_c, 0, 64, 76
1, 107416, Control_c, 0, 64, 75
1, 107431, Control_c, 0, 64, 72
1, 107446, Control_c, 0, 64, 67
1, 107454, Note_on_c, 0, 57, 93
1, 107454, Note_on_c, 0, 45, 91
1, 107457, Note_on_c, 0, 85, 94
1, 107460, Control_c, 0, 64, 0
1, 107693, Note_on_c, 0, 88, 82
1, 107700, Note_off_c, 0, 85, 62
1, 107758, Control_c, 0, 64, 63
1, 107773, Control_c, 0, 64, 65
1, 107788, Control_c, 0, 64, 66
1, 107790, Note_off_c, 0, 88, 64
1, 107793, Note_on_c, 0, 85, 79
1, 107832, Control_c, 0, 64, 68
1, 107847, Control_c, 0, 64, 70
1, 107861, Control_c, 0, 64, 73
1, 107869, Note_off_c, 0, 85, 63
1, 107874, Note_on_c, 0, 88, 84
1, 107876, Control_c, 0, 64, 75
1, 107891, Control_c, 0, 64, 77
1, 107906, Control_c, 0, 64, 79
1, 107920, Control_c, 0, 64, 82
1, 107931, Note_off_c, 0, 88, 62
1, 107935, Control_c, 0, 64, 85
1, 107947, Note_on_c, 0, 85, 78
1, 107950, Control_c, 0, 64, 90
1, 107965, Control_c, 0, 64, 95
1, 107980, Control_c, 0, 64, 100
1, 108002, Control_c, 0, 64, 103
1, 108015, Note_off_c, 0, 85, 63
1, 108017, Control_c, 0, 64, 106
1, 108019, Note_on_c, 0, 88, 77
1, 108047, Control_c, 0, 64, 108
1, 108048, Note_off_c, 0, 88, 60
1, 108072, Note_on_c, 0, 85, 75
1, 108127, Note_off_c, 0, 85, 64
1, 108128, Note_on_c, 0, 88, 80
1, 108164, Note_off_c, 0, 88, 57
1, 108187, Note_on_c, 0, 85, 76
1, 108236, Note_on_c, 0, 88, 80
1, 108238, Note_off_c, 0, 85, 64
1, 108253, Control_c, 0, 64, 106
1, 108271, Note_off_c, 0, 88, 61
1, 108296, Note_on_c, 0, 85, 76
1, 108343, Control_c, 0, 64, 104
1, 108351, Note_off_c, 0, 85, 64
1, 108352, Note_on_c, 0, 88, 83
1, 108390, Note_off_c, 0, 88, 60
1, 108409, Note_on_c, 0, 85, 74
1, 108432, Control_c, 0, 64, 102
1, 108459, Note_on_c, 0, 88, 77
1, 108462, Note_off_c, 0, 85, 64
1, 108495, Note_off_c, 0, 88, 62
1, 108522, Note_on_c, 0, 85, 77
1, 108578, Note_off_c, 0, 85, 64
1, 108581, Note_on_c, 0, 88, 78
1, 108599, Note_off_c, 0, 57, 64
1, 108611, Control_c, 0, 64, 104
1, 108612, Note_off_c, 0, 88, 59
1, 108625, Note_off_c, 0, 45, 60
1, 108625, Control_c, 0, 64, 108
1, 108632, Note_on_c, 0, 85, 71
1, 108640, Control_c, 0, 64, 115
1, 108655, Control_c, 0, 64, 127
1, 108688, Note_on_c, 0, 88, 81
1, 108689, Note_off_c, 0, 85, 64
1, 108699, Control_c, 0, 64, 102
1, 108714, Control_c, 0, 64, 73
1, 108717, Note_off_c, 0, 88, 62
1, 108729, Control_c, 0, 64, 0
1, 108753, Note_on_c, 0, 85, 67
1, 108759, Note_on_c, 0, 58, 83
1, 108760, Note_on_c, 0, 46, 78
1, 108796, Note_off_c, 0, 46, 64
1, 108796, Control_c, 0, 64, 69
1, 108799, Note_off_c, 0, 58, 61
1, 108807, Note_on_c, 0, 88, 81
1, 108810, Control_c, 0, 64, 78
1, 108811, Note_off_c, 0, 85, 64
1, 108825, Control_c, 0, 64, 89
1, 108840, Control_c, 0, 64, 94
1, 108854, Note_off_c, 0, 88, 60
1, 108855, Control_c, 0, 64, 96
1, 108871, Note_on_c, 0, 85, 74
1, 108886, Note_on_c, 0, 61, 86
1, 108887, Note_on_c, 0, 49, 88
1, 108899, Control_c, 0, 64, 99
1, 108914, Control_c, 0, 64, 101
1, 108929, Control_c, 0, 64, 106
1, 108930, Note_on_c, 0, 88, 80
1, 108930, Note_off_c, 0, 85, 64
1, 108935, Note_off_c, 0, 49, 60
1, 108940, Note_off_c, 0, 61, 58
1, 108944, Control_c, 0, 64, 109
1, 108981, Note_off_c, 0, 88, 62
1, 108999, Note_on_c, 0, 85, 75
1, 109002, Control_c, 0, 64, 112
1, 109019, Note_on_c, 0, 52, 87
1, 109021, Note_on_c, 0, 64, 82
1, 109032, Control_c, 0, 64, 114
1, 109052, Note_off_c, 0, 52, 62
1, 109055, Note_off_c, 0, 64, 62
1, 109055, Note_off_c, 0, 85, 64
1, 109058, Note_on_c, 0, 88, 80
1, 109113, Note_off_c, 0, 88, 63
1, 109118, Note_on_c, 0, 85, 75
1, 109138, Note_on_c, 0, 55, 86
1, 109139, Note_on_c, 0, 67, 85
1, 109167, Note_off_c, 0, 55, 65
1, 109173, Note_off_c, 0, 67, 64
1, 109184, Note_on_c, 0, 88, 79
1, 109186, Note_off_c, 0, 85, 63
1, 109243, Note_off_c, 0, 88, 65
1, 109253, Note_on_c, 0, 82, 80
1, 109255, Control_c, 0, 64, 117
1, 109255, Note_on_c, 0, 70, 88
1, 109257, Note_on_c, 0, 58, 83
1, 109270, Control_c, 0, 64, 127
1, 109291, Note_off_c, 0, 58, 60
1, 109294, Note_off_c, 0, 70, 60
1, 109304, Note_on_c, 0, 85, 76
1, 109306, Note_off_c, 0, 82, 62
1, 109356, Note_off_c, 0, 85, 63
1, 109368, Note_on_c, 0, 80, 76
1, 109374, Note_on_c, 0, 73, 90
1, 109375, Note_on_c, 0, 61, 86
1, 109418, Note_off_c, 0, 80, 60
1, 109420, Note_off_c, 0, 73, 57
1, 109421, Note_on_c, 0, 82, 78
1, 109423, Note_off_c, 0, 61, 58
1, 109478, Note_off_c, 0, 82, 61
1, 109492, Note_on_c, 0, 80, 84
1, 109505, Note_on_c, 0, 76, 92
1, 109505, Note_on_c, 0, 64, 88
1, 109545, Note_off_c, 0, 76, 62
1, 109549, Note_off_c, 0, 64, 65
1, 109572, Note_on_c, 0, 82, 84
1, 109576, Note_off_c, 0, 80, 63
1, 109631, Note_off_c, 0, 82, 63
1, 109634, Note_on_c, 0, 85, 81
1, 109637, Note_on_c, 0, 76, 91
1, 109639, Note_on_c, 0, 64, 90
1, 109678, Note_off_c, 0, 76, 62
1, 109681, Note_off_c, 0, 64, 65
1, 109703, Note_on_c, 0, 82, 86
1, 109713, Note_off_c, 0, 85, 61
1, 109759, Note_off_c, 0, 82, 62
1, 109767, Note_on_c, 0, 76, 90
1, 109770, Note_on_c, 0, 64, 87
1, 109770, Note_on_c, 0, 80, 84
1, 109781, Control_c, 0, 64, 121
1, 109796, Control_c, 0, 64, 117
1, 109811, Control_c, 0, 64, 113
1, 109820, Note_off_c, 0, 76, 58
1, 109823, Note_off_c, 0, 64, 62
1, 109825, Control_c, 0, 64, 110
1, 109843, Note_on_c, 0, 82, 87
1, 109854, Note_off_c, 0, 80, 62
1, 109855, Control_c, 0, 64, 108
1, 109944, Control_c, 0, 64, 103
1, 109953, Note_on_c, 0, 76, 95
1, 109956, Note_on_c, 0, 64, 89
1, 109958, Control_c, 0, 64, 97
1, 109973, Control_c, 0, 64, 88
1, 109988, Control_c, 0, 64, 76
1, 110003, Control_c, 0, 64, 66
1, 110018, Control_c, 0, 64, 0
1, 110049, Note_on_c, 0, 80, 75
1, 110049, Note_off_c, 0, 82, 54
1, 110125, Note_off_c, 0, 80, 62
1, 110127, Note_on_c, 0, 85, 76
1, 110137, Control_c, 0, 64, 63
1, 110152, Control_c, 0, 64, 68
1, 110167, Control_c, 0, 64, 72
1, 110182, Note_on_c, 0, 82, 70
1, 110182, Control_c, 0, 64, 77
1, 110189, Note_off_c, 0, 85, 62
1, 110197, Control_c, 0, 64, 84
1, 110212, Control_c, 0, 64, 90
1, 110214, Note_off_c, 0, 64, 65
1, 110227, Control_c, 0, 64, 94
1, 110236, Note_off_c, 0, 76, 57
1, 110239, Note_off_c, 0, 82, 62
1, 110242, Note_on_c, 0, 80, 77
1, 110242, Control_c, 0, 64, 98
1, 110263, Control_c, 0, 64, 101
1, 110278, Control_c, 0, 64, 106
1, 110293, Control_c, 0, 64, 110
1, 110305, Note_on_c, 0, 85, 78
1, 110308, Control_c, 0, 64, 115
1, 110319, Note_off_c, 0, 80, 62
1, 110323, Control_c, 0, 64, 119
1, 110337, Control_c, 0, 64, 123
1, 110367, Note_on_c, 0, 75, 86
1, 110367, Control_c, 0, 64, 120
1, 110370, Note_off_c, 0, 85, 59
1, 110372, Note_on_c, 0, 63, 79
1, 110382, Control_c, 0, 64, 108
1, 110397, Control_c, 0, 64, 93
1, 110412, Control_c, 0, 64, 78
1, 110426, Control_c, 0, 64, 65
1, 110427, Note_on_c, 0, 79, 71
1, 110441, Control_c, 0, 64, 0
1, 110491, Note_off_c, 0, 79, 62
1, 110493, Note_on_c, 0, 85, 75
1, 110530, Control_c, 0, 64, 65
1, 110545, Control_c, 0, 64, 70
1, 110557, Note_on_c, 0, 82, 76
1, 110560, Note_off_c, 0, 85, 62
1, 110560, Control_c, 0, 64, 73
1, 110574, Control_c, 0, 64, 75
1, 110589, Control_c, 0, 64, 78
1, 110604, Control_c, 0, 64, 80
1, 110606, Note_off_c, 0, 82, 63
1, 110608, Note_on_c, 0, 79, 73
1, 110619, Control_c, 0, 64, 83
1, 110634, Control_c, 0, 64, 85
1, 110643, Note_off_c, 0, 75, 62
1, 110648, Control_c, 0, 64, 88
1, 110663, Control_c, 0, 64, 91
1, 110668, Note_on_c, 0, 85, 79
1, 110678, Control_c, 0, 64, 93
1, 110680, Note_off_c, 0, 79, 61
1, 110693, Control_c, 0, 64, 96
1, 110708, Control_c, 0, 64, 98
1, 110716, Note_off_c, 0, 85, 59
1, 110725, Note_on_c, 0, 68, 92
1, 110737, Control_c, 0, 64, 94
1, 110752, Control_c, 0, 64, 82
1, 110763, Note_off_c, 0, 63, 62
1, 110767, Control_c, 0, 64, 67
1, 110781, Control_c, 0, 64, 0
1, 110795, Note_on_c, 0, 76, 73
1, 110850, Note_on_c, 0, 85, 75
1, 110853, Note_off_c, 0, 76, 58
1, 110871, Control_c, 0, 64, 65
1, 110886, Control_c, 0, 64, 70
1, 110901, Control_c, 0, 64, 73
1, 110916, Control_c, 0, 64, 75
1, 110923, Note_on_c, 0, 82, 74
1, 110929, Note_off_c, 0, 85, 63
1, 110931, Control_c, 0, 64, 79
1, 110945, Control_c, 0, 64, 87
1, 110960, Control_c, 0, 64, 96
1, 110975, Note_off_c, 0, 82, 58
1, 110975, Control_c, 0, 64, 104
1, 110979, Note_on_c, 0, 76, 71
1, 110997, Control_c, 0, 64, 108
1, 111012, Control_c, 0, 64, 114
1, 111027, Control_c, 0, 64, 127
1, 111032, Note_on_c, 0, 85, 77
1, 111052, Note_off_c, 0, 76, 58
1, 111071, Control_c, 0, 64, 122
1, 111086, Control_c, 0, 64, 99
1, 111101, Control_c, 0, 64, 82
1, 111102, Note_off_c, 0, 85, 54
1, 111106, Note_on_c, 0, 67, 82
1, 111116, Control_c, 0, 64, 66
1, 111131, Control_c, 0, 64, 0
1, 111135, Note_off_c, 0, 68, 62
1, 111175, Note_on_c, 0, 75, 78
1, 111204, Control_c, 0, 64, 67
1, 111219, Control_c, 0, 64, 75
1, 111234, Note_off_c, 0, 67, 63
1, 111234, Note_off_c, 0, 75, 60
1, 111234, Note_on_c, 0, 85, 73
1, 111234, Control_c, 0, 64, 84
1, 111249, Control_c, 0, 64, 93
1, 111264, Control_c, 0, 64, 97
1, 111279, Control_c, 0, 64, 100
1, 111294, Control_c, 0, 64, 103
1, 111304, Note_on_c, 0, 82, 78
1, 111306, Note_off_c, 0, 85, 63
1, 111309, Control_c, 0, 64, 108
1, 111324, Control_c, 0, 64, 113
1, 111339, Control_c, 0, 64, 120
1, 111353, Note_on_c, 0, 75, 80
1, 111353, Control_c, 0, 64, 127
1, 111354, Note_off_c, 0, 82, 62
1, 111399, Note_off_c, 0, 75, 63
1, 111410, Note_on_c, 0, 85, 81
1, 111458, Note_off_c, 0, 85, 61
1, 111478, Note_on_c, 0, 76, 96
1, 111486, Control_c, 0, 64, 103
1, 111501, Control_c, 0, 64, 85
1, 111516, Control_c, 0, 64, 68
1, 111531, Control_c, 0, 64, 0
1, 111542, Note_on_c, 0, 80, 75
1, 111601, Note_off_c, 0, 80, 63
1, 111610, Note_on_c, 0, 85, 77
1, 111619, Control_c, 0, 64, 65
1, 111634, Control_c, 0, 64, 71
1, 111649, Control_c, 0, 64, 74
1, 111665, Control_c, 0, 64, 77
1, 111667, Note_on_c, 0, 82, 79
1, 111668, Note_off_c, 0, 85, 62
1, 111680, Control_c, 0, 64, 79
1, 111694, Control_c, 0, 64, 82
1, 111709, Control_c, 0, 64, 85
1, 111716, Note_off_c, 0, 82, 62
1, 111720, Note_on_c, 0, 80, 83
1, 111724, Control_c, 0, 64, 88
1, 111747, Control_c, 0, 64, 90
1, 111762, Control_c, 0, 64, 92
1, 111776, Control_c, 0, 64, 93
1, 111791, Control_c, 0, 64, 95
1, 111793, Note_on_c, 0, 85, 73
1, 111795, Note_off_c, 0, 80, 62
1, 111806, Control_c, 0, 64, 97
1, 111829, Note_off_c, 0, 85, 56
1, 111843, Note_on_c, 0, 75, 89
1, 111850, Control_c, 0, 64, 96
1, 111857, Note_off_c, 0, 76, 57
1, 111865, Control_c, 0, 64, 89
1, 111880, Control_c, 0, 64, 76
1, 111894, Control_c, 0, 64, 63
1, 111909, Control_c, 0, 64, 0
1, 111915, Note_on_c, 0, 79, 70
1, 111971, Note_off_c, 0, 79, 63
1, 111978, Note_on_c, 0, 85, 79
1, 111998, Control_c, 0, 64, 64
1, 112013, Control_c, 0, 64, 71
1, 112027, Control_c, 0, 64, 74
1, 112031, Note_off_c, 0, 75, 60
1, 112039, Note_on_c, 0, 82, 77
1, 112042, Control_c, 0, 64, 76
1, 112045, Note_off_c, 0, 85, 62
1, 112057, Control_c, 0, 64, 79
1, 112072, Control_c, 0, 64, 83
1, 112087, Control_c, 0, 64, 87
1, 112092, Note_off_c, 0, 82, 63
1, 112093, Note_on_c, 0, 79, 74
1, 112102, Control_c, 0, 64, 92
1, 112117, Control_c, 0, 64, 94
1, 112132, Control_c, 0, 64, 96
1, 112141, Note_on_c, 0, 85, 81
1, 112148, Note_off_c, 0, 79, 63
1, 112161, Control_c, 0, 64, 98
1, 112166, Note_off_c, 0, 85, 65
1, 112191, Control_c, 0, 64, 90
1, 112206, Control_c, 0, 64, 71
1, 112212, Note_on_c, 0, 74, 81
1, 112220, Control_c, 0, 64, 0
1, 112269, Note_on_c, 0, 77, 82
1, 112294, Control_c, 0, 64, 63
1, 112309, Control_c, 0, 64, 76
1, 112324, Control_c, 0, 64, 84
1, 112330, Note_on_c, 0, 80, 88
1, 112339, Control_c, 0, 64, 91
1, 112353, Control_c, 0, 64, 93
1, 112368, Control_c, 0, 64, 95
1, 112382, Note_on_c, 0, 83, 76
1, 112383, Control_c, 0, 64, 98
1, 112398, Control_c, 0, 64, 101
1, 112413, Control_c, 0, 64, 103
1, 112442, Control_c, 0, 64, 105
1, 112443, Note_on_c, 0, 86, 81
1, 112444, Note_off_c, 0, 83, 61
1, 112473, Control_c, 0, 64, 108
1, 112488, Control_c, 0, 64, 110
1, 112510, Note_on_c, 0, 89, 79
1, 112510, Control_c, 0, 64, 113
1, 112516, Note_off_c, 0, 86, 64
1, 112555, Control_c, 0, 64, 115
1, 112564, Note_on_c, 0, 92, 81
1, 112570, Note_off_c, 0, 89, 64
1, 112584, Control_c, 0, 64, 117
1, 112592, Note_off_c, 0, 77, 56
1, 112599, Control_c, 0, 64, 119
1, 112626, Note_off_c, 0, 92, 63
1, 112629, Control_c, 0, 64, 124
1, 112632, Note_on_c, 0, 89, 82
1, 112635, Note_off_c, 0, 74, 59
1, 112639, Note_off_c, 0, 80, 61
1, 112643, Control_c, 0, 64, 127
1, 112676, Note_off_c, 0, 89, 61
1, 112686, Note_on_c, 0, 86, 77
1, 112743, Note_on_c, 0, 95, 80
1, 112754, Note_off_c, 0, 86, 61
1, 112806, Note_on_c, 0, 94, 75
1, 112828, Note_off_c, 0, 95, 63
1, 112865, Note_on_c, 0, 92, 78
1, 112885, Note_off_c, 0, 94, 63
1, 112911, Control_c, 0, 64, 114
1, 112921, Note_off_c, 0, 92, 62
1, 112925, Control_c, 0, 64, 90
1, 112928, Note_on_c, 0, 75, 80
1, 112930, Note_on_c, 0, 91, 86
1, 112940, Control_c, 0, 64, 69
1, 112955, Control_c, 0, 64, 0
1, 112973, Note_off_c, 0, 91, 65
1, 112990, Note_on_c, 0, 79, 75
1, 112993, Note_on_c, 0, 94, 82
1, 113029, Control_c, 0, 64, 68
1, 113044, Control_c, 0, 64, 78
1, 113054, Note_on_c, 0, 92, 78
1, 113059, Control_c, 0, 64, 87
1, 113072, Note_off_c, 0, 94, 64
1, 113073, Control_c, 0, 64, 94
1, 113088, Control_c, 0, 64, 96
1, 113103, Control_c, 0, 64, 98
1, 113115, Note_off_c, 0, 92, 63
1, 113117, Note_on_c, 0, 91, 87
1, 113118, Control_c, 0, 64, 101
1, 113148, Control_c, 0, 64, 104
1, 113157, Note_off_c, 0, 91, 64
1, 113177, Control_c, 0, 64, 106
1, 113178, Note_on_c, 0, 88, 74
1, 113199, Note_off_c, 0, 79, 58
1, 113222, Control_c, 0, 64, 109
1, 113225, Note_off_c, 0, 75, 57
1, 113237, Note_off_c, 0, 88, 60
1, 113246, Note_on_c, 0, 87, 77
1, 113258, Control_c, 0, 64, 111
1, 113289, Control_c, 0, 64, 113
1, 113293, Note_off_c, 0, 87, 64
1, 113296, Note_on_c, 0, 85, 77
1, 113348, Note_off_c, 0, 85, 63
1, 113356, Note_on_c, 0, 88, 77
1, 113425, Note_on_c, 0, 87, 76
1, 113438, Note_off_c, 0, 88, 64
1, 113487, Note_on_c, 0, 85, 73
1, 113493, Note_off_c, 0, 87, 65
1, 113525, Note_off_c, 0, 85, 61
1, 113541, Control_c, 0, 64, 110
1, 113555, Note_on_c, 0, 83, 69
1, 113586, Control_c, 0, 64, 108
1, 113613, Note_off_c, 0, 83, 54
1, 113628, Note_on_c, 0, 82, 51
1, 113629, Control_c, 0, 64, 106
1, 113649, Note_off_c, 0, 82, 60
1, 113688, Control_c, 0, 64, 101
1, 113703, Control_c, 0, 64, 92
1, 113717, Control_c, 0, 64, 79
1, 113732, Control_c, 0, 64, 66
1, 113744, Note_on_c, 0, 71, 40
1, 113747, Control_c, 0, 64, 0
1, 113750, Note_on_c, 0, 68, 40
1, 113836, Note_on_c, 0, 80, 54
1, 113878, Note_off_c, 0, 80, 60
1, 113881, Control_c, 0, 64, 66
1, 113885, Note_on_c, 0, 83, 53
1, 113896, Control_c, 0, 64, 70
1, 113910, Control_c, 0, 64, 73
1, 113920, Note_off_c, 0, 71, 62
1, 113925, Control_c, 0, 64, 77
1, 113940, Control_c, 0, 64, 80
1, 113949, Note_off_c, 0, 83, 61
1, 113955, Control_c, 0, 64, 82
1, 113958, Note_on_c, 0, 87, 64
1, 113970, Control_c, 0, 64, 83
1, 113985, Control_c, 0, 64, 84
1, 114006, Control_c, 0, 64, 84
1, 114016, Note_off_c, 0, 87, 62
1, 114021, Control_c, 0, 64, 85
1, 114026, Note_on_c, 0, 92, 55
1, 114051, Control_c, 0, 64, 86
1, 114057, Note_off_c, 0, 92, 62
1, 114084, Note_on_c, 0, 80, 65
1, 114096, Control_c, 0, 64, 85
1, 114102, Note_off_c, 0, 80, 66
1, 114105, Note_off_c, 0, 68, 61
1, 114111, Control_c, 0, 64, 80
1, 114126, Control_c, 0, 64, 71
1, 114128, Note_on_c, 0, 76, 57
1, 114132, Note_on_c, 0, 73, 53
1, 114141, Control_c, 0, 64, 0
1, 114260, Control_c, 0, 64, 64
1, 114275, Control_c, 0, 64, 69
1, 114290, Control_c, 0, 64, 71
1, 114304, Control_c, 0, 64, 73
1, 114311, Note_on_c, 0, 92, 67
1, 114319, Control_c, 0, 64, 76
1, 114334, Control_c, 0, 64, 80
1, 114338, Note_off_c, 0, 92, 65
1, 114348, Control_c, 0, 64, 82
1, 114363, Control_c, 0, 64, 83
1, 114378, Control_c, 0, 64, 83
1, 114381, Note_on_c, 0, 80, 52
1, 114394, Note_off_c, 0, 73, 56
1, 114403, Note_off_c, 0, 80, 63
1, 114408, Control_c, 0, 64, 84
1, 114424, Note_on_c, 0, 92, 62
1, 114437, Control_c, 0, 64, 83
1, 114441, Note_off_c, 0, 92, 58
1, 114452, Control_c, 0, 64, 79
1, 114455, Note_off_c, 0, 76, 58
1, 114467, Control_c, 0, 64, 70
1, 114482, Control_c, 0, 64, 0
1, 114483, Note_on_c, 0, 71, 50
1, 114483, Note_on_c, 0, 75, 59
1, 114600, Control_c, 0, 64, 65
1, 114615, Control_c, 0, 64, 70
1, 114629, Control_c, 0, 64, 72
1, 114638, Note_off_c, 0, 71, 63
1, 114644, Control_c, 0, 64, 75
1, 114651, Note_off_c, 0, 75, 62
1, 114659, Note_on_c, 0, 92, 63
1, 114659, Control_c, 0, 64, 79
1, 114674, Control_c, 0, 64, 82
1, 114687, Note_off_c, 0, 92, 65
1, 114689, Control_c, 0, 64, 84
1, 114704, Control_c, 0, 64, 86
1, 114719, Control_c, 0, 64, 87
1, 114728, Note_on_c, 0, 80, 55
1, 114740, Control_c, 0, 64, 87
1, 114755, Control_c, 0, 64, 88
1, 114763, Note_off_c, 0, 80, 65
1, 114770, Control_c, 0, 64, 89
1, 114772, Note_on_c, 0, 92, 75
1, 114796, Note_off_c, 0, 92, 66
1, 114800, Control_c, 0, 64, 88
1, 114814, Control_c, 0, 64, 83
1, 114829, Control_c, 0, 64, 75
1, 114834, Note_on_c, 0, 75, 62
1, 114838, Note_on_c, 0, 73, 55
1, 114844, Control_c, 0, 64, 62
1, 114853, Note_on_c, 0, 70, 44
1, 114859, Control_c, 0, 64, 0
1, 114978, Control_c, 0, 64, 65
1, 114993, Control_c, 0, 64, 68
1, 115008, Control_c, 0, 64, 71
1, 115022, Note_on_c, 0, 91, 58
1, 115023, Control_c, 0, 64, 75
1, 115038, Control_c, 0, 64, 81
1, 115048, Note_off_c, 0, 91, 58
1, 115053, Control_c, 0, 64, 85
1, 115068, Control_c, 0, 64, 88
1, 115068, Note_on_c, 0, 79, 61
1, 115083, Control_c, 0, 64, 89
1, 115085, Note_off_c, 0, 73, 57
1, 115098, Control_c, 0, 64, 90
1, 115104, Note_off_c, 0, 79, 62
1, 115112, Control_c, 0, 64, 91
1, 115116, Note_on_c, 0, 91, 50
1, 115127, Control_c, 0, 64, 93
1, 115134, Note_off_c, 0, 70, 56
1, 115139, Note_off_c, 0, 91, 57
1, 115142, Control_c, 0, 64, 93
1, 115186, Control_c, 0, 64, 93
1, 115201, Control_c, 0, 64, 87
1, 115210, Note_on_c, 0, 71, 52
1, 115216, Note_on_c, 0, 68, 43
1, 115216, Control_c, 0, 64, 77
1, 115223, Note_off_c, 0, 75, 59
1, 115231, Control_c, 0, 64, 65
1, 115245, Control_c, 0, 64, 0
1, 115267, Note_on_c, 0, 80, 54
1, 115312, Note_off_c, 0, 80, 62
1, 115331, Note_on_c, 0, 83, 48
1, 115334, Control_c, 0, 64, 65
1, 115349, Control_c, 0, 64, 73
1, 115351, Note_off_c, 0, 71, 63
1, 115363, Control_c, 0, 64, 78
1, 115378, Note_off_c, 0, 83, 62
1, 115378, Control_c, 0, 64, 81
1, 115379, Note_off_c, 0, 68, 64
1, 115392, Note_on_c, 0, 87, 56
1, 115393, Control_c, 0, 64, 83
1, 115408, Control_c, 0, 64, 84
1, 115423, Control_c, 0, 64, 85
1, 115437, Control_c, 0, 64, 85
1, 115440, Note_off_c, 0, 87, 60
1, 115441, Note_on_c, 0, 92, 68
1, 115452, Control_c, 0, 64, 86
1, 115489, Control_c, 0, 64, 86
1, 115499, Note_off_c, 0, 92, 57
1, 115506, Note_on_c, 0, 80, 64
1, 115526, Note_off_c, 0, 80, 65
1, 115582, Note_on_c, 0, 64, 55
1, 115589, Note_on_c, 0, 61, 51
1, 115593, Control_c, 0, 64, 85
1, 115608, Control_c, 0, 64, 79
1, 115623, Control_c, 0, 64, 70
1, 115637, Control_c, 0, 64, 0
1, 115754, Note_on_c, 0, 80, 60
1, 115757, Control_c, 0, 64, 66
1, 115772, Control_c, 0, 64, 69
1, 115783, Note_off_c, 0, 80, 63
1, 115787, Control_c, 0, 64, 72
1, 115801, Control_c, 0, 64, 75
1, 115813, Note_on_c, 0, 68, 56
1, 115816, Control_c, 0, 64, 77
1, 115831, Control_c, 0, 64, 80
1, 115840, Note_off_c, 0, 61, 61
1, 115846, Control_c, 0, 64, 81
1, 115850, Note_off_c, 0, 68, 63
1, 115855, Note_on_c, 0, 80, 66
1, 115861, Control_c, 0, 64, 83
1, 115876, Control_c, 0, 64, 84
1, 115883, Note_off_c, 0, 80, 66
1, 115890, Control_c, 0, 64, 85
1, 115929, Note_on_c, 0, 59, 49
1, 115934, Note_on_c, 0, 63, 59
1, 115935, Control_c, 0, 64, 83
1, 115950, Control_c, 0, 64, 77
1, 115965, Control_c, 0, 64, 66
1, 115969, Note_off_c, 0, 64, 63
1, 115980, Control_c, 0, 64, 0
1, 116068, Control_c, 0, 64, 64
1, 116083, Control_c, 0, 64, 68
1, 116098, Control_c, 0, 64, 72
1, 116104, Note_on_c, 0, 80, 56
1, 116112, Control_c, 0, 64, 76
1, 116125, Note_off_c, 0, 63, 63
1, 116127, Note_off_c, 0, 80, 64
1, 116127, Control_c, 0, 64, 80
1, 116131, Note_off_c, 0, 59, 62
1, 116142, Control_c, 0, 64, 82
1, 116157, Control_c, 0, 64, 84
1, 116171, Note_on_c, 0, 68, 56
1, 116172, Control_c, 0, 64, 86
1, 116186, Control_c, 0, 64, 88
1, 116201, Note_on_c, 0, 80, 69
1, 116201, Control_c, 0, 64, 90
1, 116208, Note_off_c, 0, 68, 62
1, 116216, Control_c, 0, 64, 92
1, 116230, Note_off_c, 0, 80, 65
1, 116268, Control_c, 0, 64, 88
1, 116283, Control_c, 0, 64, 81
1, 116298, Control_c, 0, 64, 70
1, 116302, Note_on_c, 0, 63, 60
1, 116308, Note_on_c, 0, 61, 54
1, 116311, Note_on_c, 0, 58, 45
1, 116312, Control_c, 0, 64, 0
1, 116455, Note_on_c, 0, 79, 60
1, 116462, Control_c, 0, 64, 64
1, 116477, Control_c, 0, 64, 69
1, 116487, Note_off_c, 0, 79, 62
1, 116491, Control_c, 0, 64, 75
1, 116506, Control_c, 0, 64, 82
1, 116514, Note_off_c, 0, 61, 57
1, 116519, Note_on_c, 0, 67, 55
1, 116521, Control_c, 0, 64, 88
1, 116535, Control_c, 0, 64, 92
1, 116544, Note_off_c, 0, 67, 60
1, 116550, Control_c, 0, 64, 93
1, 116560, Note_on_c, 0, 79, 67
1, 116565, Control_c, 0, 64, 96
1, 116568, Note_off_c, 0, 58, 56
1, 116580, Control_c, 0, 64, 98
1, 116588, Note_off_c, 0, 79, 66
1, 116609, Control_c, 0, 64, 100
1, 116639, Control_c, 0, 64, 98
1, 116654, Control_c, 0, 64, 90
1, 116666, Note_on_c, 0, 59, 52
1, 116668, Control_c, 0, 64, 80
1, 116675, Note_on_c, 0, 56, 50
1, 116679, Note_off_c, 0, 63, 59
1, 116683, Control_c, 0, 64, 68
1, 116698, Control_c, 0, 64, 0
1, 116740, Note_on_c, 0, 80, 53
1, 116791, Note_off_c, 0, 80, 58
1, 116802, Control_c, 0, 64, 65
1, 116810, Note_on_c, 0, 83, 51
1, 116816, Control_c, 0, 64, 72
1, 116823, Note_off_c, 0, 59, 63
1, 116831, Control_c, 0, 64, 75
1, 116846, Control_c, 0, 64, 80
1, 116847, Note_off_c, 0, 56, 65
1, 116855, Note_off_c, 0, 83, 61
1, 116861, Control_c, 0, 64, 82
1, 116865, Note_on_c, 0, 87, 61
1, 116876, Control_c, 0, 64, 84
1, 116890, Control_c, 0, 64, 85
1, 116905, Control_c, 0, 64, 86
1, 116920, Control_c, 0, 64, 86
1, 116930, Note_off_c, 0, 87, 63
1, 116934, Note_on_c, 0, 92, 56
1, 116961, Note_off_c, 0, 92, 54
1, 116994, Note_on_c, 0, 80, 58
1, 117002, Control_c, 0, 64, 87
1, 117014, Note_off_c, 0, 80, 64
1, 117046, Control_c, 0, 64, 86
1, 117061, Control_c, 0, 64, 84
1, 117062, Note_on_c, 0, 52, 51
1, 117068, Note_on_c, 0, 49, 51
1, 117075, Control_c, 0, 64, 79
1, 117090, Control_c, 0, 64, 70
1, 117105, Control_c, 0, 64, 30
1, 117120, Control_c, 0, 64, 0
1, 117238, Control_c, 0, 64, 64
1, 117251, Note_on_c, 0, 92, 55
1, 117253, Control_c, 0, 64, 68
1, 117269, Control_c, 0, 64, 71
1, 117271, Note_off_c, 0, 92, 61
1, 117284, Control_c, 0, 64, 74
1, 117299, Control_c, 0, 64, 76
1, 117309, Note_on_c, 0, 80, 53
1, 117313, Control_c, 0, 64, 77
1, 117324, Note_off_c, 0, 49, 58
1, 117328, Control_c, 0, 64, 78
1, 117343, Note_off_c, 0, 80, 59
1, 117343, Control_c, 0, 64, 79
1, 117344, Note_on_c, 0, 92, 70
1, 117357, Control_c, 0, 64, 80
1, 117369, Note_off_c, 0, 92, 65
1, 117372, Control_c, 0, 64, 81
1, 117429, Note_on_c, 0, 51, 54
1, 117432, Note_on_c, 0, 47, 47
1, 117432, Control_c, 0, 64, 79
1, 117446, Control_c, 0, 64, 73
1, 117453, Note_off_c, 0, 52, 61
1, 117461, Control_c, 0, 64, 65
1, 117476, Control_c, 0, 64, 0
1, 117595, Control_c, 0, 64, 66
1, 117610, Control_c, 0, 64, 69
1, 117625, Control_c, 0, 64, 71
1, 117631, Note_on_c, 0, 92, 54
1, 117639, Control_c, 0, 64, 72
1, 117644, Note_off_c, 0, 51, 62
1, 117654, Control_c, 0, 64, 75
1, 117660, Note_off_c, 0, 92, 63
1, 117669, Control_c, 0, 64, 78
1, 117683, Control_c, 0, 64, 80
1, 117691, Note_on_c, 0, 80, 57
1, 117698, Control_c, 0, 64, 82
1, 117713, Control_c, 0, 64, 83
1, 117724, Note_off_c, 0, 80, 63
1, 117728, Control_c, 0, 64, 85
1, 117745, Note_on_c, 0, 92, 61
1, 117751, Control_c, 0, 64, 85
1, 117768, Note_off_c, 0, 92, 62
1, 117780, Control_c, 0, 64, 86
1, 117801, Note_off_c, 0, 47, 59
1, 117810, Control_c, 0, 64, 84
1, 117825, Control_c, 0, 64, 77
1, 117826, Note_on_c, 0, 51, 57
1, 117835, Note_on_c, 0, 49, 54
1, 117839, Control_c, 0, 64, 67
1, 117842, Note_on_c, 0, 46, 35
1, 117854, Control_c, 0, 64, 0
1, 118017, Control_c, 0, 64, 67
1, 118032, Control_c, 0, 64, 72
1, 118046, Control_c, 0, 64, 75
1, 118062, Control_c, 0, 64, 78
1, 118069, Note_on_c, 0, 91, 47
1, 118077, Control_c, 0, 64, 80
1, 118087, Note_off_c, 0, 49, 63
1, 118087, Note_off_c, 0, 51, 61
1, 118092, Control_c, 0, 64, 81
1, 118107, Control_c, 0, 64, 83
1, 118114, Note_off_c, 0, 91, 61
1, 118121, Control_c, 0, 64, 84
1, 118136, Control_c, 0, 64, 85
1, 118137, Note_off_c, 0, 46, 62
1, 118151, Control_c, 0, 64, 85
1, 118166, Control_c, 0, 64, 86
1, 118174, Note_on_c, 0, 79, 37
1, 118180, Control_c, 0, 64, 86
1, 118264, Note_off_c, 0, 79, 29
1, 118282, Note_on_c, 0, 91, 47
1, 118448, Control_c, 0, 64, 86
1, 118499, Control_c, 0, 64, 85
1, 118514, Control_c, 0, 64, 83
1, 118529, Control_c, 0, 64, 81
1, 118542, Note_on_c, 0, 44, 44
1, 118543, Control_c, 0, 64, 76
1, 118547, Note_on_c, 0, 92, 48
1, 118558, Control_c, 0, 64, 70
1, 118567, Note_off_c, 0, 91, 55
1, 118573, Control_c, 0, 64, 64
1, 118588, Control_c, 0, 64, 0
1, 118795, Control_c, 0, 64, 64
1, 118810, Control_c, 0, 64, 66
1, 118825, Control_c, 0, 64, 69
1, 118827, Note_on_c, 0, 87, 48
1, 118830, Note_off_c, 0, 92, 54
1, 118839, Control_c, 0, 64, 72
1, 118854, Control_c, 0, 64, 74
1, 118871, Control_c, 0, 64, 77
1, 118885, Control_c, 0, 64, 79
1, 118900, Control_c, 0, 64, 81
1, 118901, Note_off_c, 0, 87, 63
1, 118915, Control_c, 0, 64, 83
1, 118930, Control_c, 0, 64, 86
1, 118934, Note_on_c, 0, 83, 50
1, 118944, Control_c, 0, 64, 88
1, 118959, Control_c, 0, 64, 90
1, 118974, Control_c, 0, 64, 92
1, 118983, Note_off_c, 0, 83, 43
1, 118989, Control_c, 0, 64, 93
1, 119004, Control_c, 0, 64, 95
1, 119023, Note_on_c, 0, 87, 54
1, 119033, Control_c, 0, 64, 99
1, 119055, Note_off_c, 0, 87, 58
1, 119063, Control_c, 0, 64, 102
1, 119086, Note_on_c, 0, 92, 48
1, 119092, Control_c, 0, 64, 105
1, 119107, Control_c, 0, 64, 107
1, 119122, Control_c, 0, 64, 110
1, 119128, Note_off_c, 0, 92, 59
1, 119137, Control_c, 0, 64, 112
1, 119145, Note_on_c, 0, 87, 59
1, 119181, Note_off_c, 0, 87, 65
1, 119181, Control_c, 0, 64, 114
1, 119211, Control_c, 0, 64, 119
1, 119213, Note_on_c, 0, 83, 49
1, 119233, Control_c, 0, 64, 121
1, 119262, Note_off_c, 0, 83, 47
1, 119271, Note_on_c, 0, 87, 62
1, 119323, Note_off_c, 0, 87, 63
1, 119336, Control_c, 0, 64, 124
1, 119343, Note_on_c, 0, 92, 49
1, 119384, Note_off_c, 0, 92, 58
1, 119409, Note_on_c, 0, 87, 57
1, 119447, Note_off_c, 0, 87, 65
1, 119475, Note_on_c, 0, 83, 49
1, 119500, Control_c, 0, 64, 127
1, 119527, Note_off_c, 0, 83, 45
1, 119530, Note_on_c, 0, 87, 61
1, 119573, Note_off_c, 0, 87, 61
1, 119596, Note_on_c, 0, 39, 38
1, 119602, Note_on_c, 0, 92, 47
1, 119649, Note_off_c, 0, 92, 57
1, 119675, Note_on_c, 0, 87, 60
1, 119715, Note_off_c, 0, 87, 61
1, 119721, Note_off_c, 0, 44, 38
1, 119757, Note_on_c, 0, 83, 45
1, 119804, Note_off_c, 0, 83, 46
1, 119816, Note_on_c, 0, 87, 62
1, 119879, Note_off_c, 0, 87, 64
1, 119905, Note_on_c, 0, 92, 49
1, 119952, Note_off_c, 0, 92, 59
1, 119996, Note_on_c, 0, 87, 53
1, 120069, Note_off_c, 0, 87, 59
1, 120090, Note_on_c, 0, 35, 39
1, 120091, Note_on_c, 0, 92, 45
1, 120145, Control_c, 0, 64, 124
1, 120174, Note_off_c, 0, 92, 59
1, 120189, Control_c, 0, 64, 122
1, 120201, Note_on_c, 0, 87, 50
1, 120219, Note_off_c, 0, 39, 50
1, 120219, Control_c, 0, 64, 120
1, 120249, Control_c, 0, 64, 117
1, 120285, Note_off_c, 0, 87, 64
1, 120293, Control_c, 0, 64, 115
1, 120317, Note_on_c, 0, 92, 39
1, 120352, Control_c, 0, 64, 113
1, 120411, Control_c, 0, 64, 111
1, 120413, Note_off_c, 0, 92, 56
1, 120442, Note_on_c, 0, 87, 44
1, 120502, Control_c, 0, 64, 109
1, 120561, Control_c, 0, 64, 107
1, 120577, Note_on_c, 0, 92, 37
1, 120597, Note_off_c, 0, 87, 35
1, 120605, Control_c, 0, 64, 105
1, 120664, Control_c, 0, 64, 103
1, 120708, Control_c, 0, 64, 101
1, 120739, Note_on_c, 0, 87, 42
1, 120761, Note_off_c, 0, 92, 36
1, 120776, Control_c, 0, 64, 99
1, 120835, Control_c, 0, 64, 97
1, 120850, Control_c, 0, 64, 96
1, 120864, Control_c, 0, 64, 95
1, 120879, Control_c, 0, 64, 94
1, 120894, Control_c, 0, 64, 93
1, 120908, Control_c, 0, 64, 93
1, 120923, Control_c, 0, 64, 92
1, 120938, Control_c, 0, 64, 91
1, 120953, Control_c, 0, 64, 90
1, 120968, Control_c, 0, 64, 89
1, 120982, Control_c, 0, 64, 88
1, 120997, Control_c, 0, 64, 87
1, 121012, Control_c, 0, 64, 86
1, 121027, Control_c, 0, 64, 84
1, 121036, Note_on_c, 0, 92, 41
1, 121041, Control_c, 0, 64, 82
1, 121042, Note_on_c, 0, 32, 32
1, 121056, Control_c, 0, 64, 80
1, 121071, Control_c, 0, 64, 78
1, 121086, Control_c, 0, 64, 76
1, 121101, Control_c, 0, 64, 74
1, 121116, Control_c, 0, 64, 72
1, 121131, Control_c, 0, 64, 70
1, 121146, Control_c, 0, 64, 67
1, 121161, Control_c, 0, 64, 66
1, 121175, Control_c, 0, 64, 65
1, 121190, Control_c, 0, 64, 65
1, 121203, Note_off_c, 0, 35, 40
1, 121205, Control_c, 0, 64, 64
1, 121220, Control_c, 0, 64, 60
1, 121234, Control_c, 0, 64, 30
1, 121241, Note_off_c, 0, 87, 42
1, 121250, Control_c, 0, 64, 0
1, 121613, Control_c, 0, 67, 8
1, 121643, Control_c, 0, 67, 10
1, 121702, Control_c, 0, 67, 12
1, 121791, Control_c, 0, 64, 41
1, 121805, Control_c, 0, 64, 55
1, 121820, Control_c, 0, 64, 62
1, 121835, Control_c, 0, 64, 64
1, 121850, Control_c, 0, 64, 64
1, 121864, Control_c, 0, 64, 65
1, 121864, Control_c, 0, 67, 14
1, 121879, Control_c, 0, 64, 65
1, 121894, Control_c, 0, 64, 66
1, 121924, Control_c, 0, 64, 66
1, 121924, Control_c, 0, 67, 17
1, 121954, Control_c, 0, 64, 67
1, 121968, Control_c, 0, 67, 19
1, 121983, Control_c, 0, 64, 67
1, 121998, Control_c, 0, 64, 68
1, 121998, Control_c, 0, 67, 22
1, 122013, Control_c, 0, 67, 25
1, 122028, Control_c, 0, 64, 68
1, 122028, Control_c, 0, 67, 27
1, 122043, Control_c, 0, 67, 30
1, 122058, Control_c, 0, 64, 69
1, 122058, Control_c, 0, 67, 33
1, 122073, Control_c, 0, 64, 69
1, 122073, Control_c, 0, 67, 38
1, 122088, Control_c, 0, 64, 70
1, 122088, Control_c, 0, 67, 44
1, 122103, Control_c, 0, 64, 70
1, 122103, Control_c, 0, 67, 51
1, 122118, Control_c, 0, 67, 59
1, 122132, Control_c, 0, 64, 71
1, 122132, Control_c, 0, 67, 65
1, 122147, Control_c, 0, 64, 71
1, 122147, Control_c, 0, 67, 71
1, 122162, Control_c, 0, 64, 72
1, 122162, Control_c, 0, 67, 78
1, 122177, Control_c, 0, 64, 73
1, 122177, Control_c, 0, 67, 84
1, 122192, Control_c, 0, 64, 74
1, 122192, Control_c, 0, 67, 90
1, 122207, Control_c, 0, 64, 75
1, 122207, Control_c, 0, 67, 96
1, 122228, Control_c, 0, 64, 75
1, 122228, Control_c, 0, 67, 100
1, 122243, Control_c, 0, 64, 76
1, 122243, Control_c, 0, 67, 104
1, 122258, Control_c, 0, 64, 77
1, 122258, Control_c, 0, 67, 108
1, 122273, Control_c, 0, 64, 78
1, 122273, Control_c, 0, 67, 111
1, 122287, Control_c, 0, 64, 79
1, 122287, Control_c, 0, 67, 115
1, 122302, Control_c, 0, 64, 80
1, 122302, Control_c, 0, 67, 117
1, 122317, Control_c, 0, 64, 81
1, 122332, Control_c, 0, 64, 82
1, 122332, Control_c, 0, 67, 120
1, 122347, Control_c, 0, 64, 83
1, 122362, Control_c, 0, 64, 83
1, 122377, Control_c, 0, 64, 85
1, 122377, Control_c, 0, 67, 122
1, 122392, Control_c, 0, 64, 87
1, 122392, Control_c, 0, 67, 124
1, 122407, Control_c, 0, 64, 89
1, 122407, Control_c, 0, 67, 126
1, 122422, Control_c, 0, 64, 90
1, 122436, Control_c, 0, 64, 92
1, 122451, Control_c, 0, 64, 94
1, 122466, Control_c, 0, 64, 96
1, 122495, Control_c, 0, 64, 99
1, 122497, Note_off_c, 0, 92, 61
1, 122525, Control_c, 0, 64, 102
1, 122526, Note_off_c, 0, 32, 40
1, 122554, Control_c, 0, 64, 105
1, 122584, Control_c, 0, 64, 108
1, 122599, Control_c, 0, 64, 110
1, 122613, Control_c, 0, 64, 112
1, 122628, Control_c, 0, 64, 114
1, 122643, Control_c, 0, 64, 116
1, 122673, Control_c, 0, 64, 120
1, 122687, Control_c, 0, 64, 127
1, 123527, Note_on_c, 0, 59, 33
1, 123544, Note_on_c, 0, 47, 23
1, 123967, Note_on_c, 0, 56, 31
1, 123979, Control_c, 0, 64, 124
1, 123982, Note_on_c, 0, 44, 16
1, 123994, Control_c, 0, 64, 117
1, 124008, Control_c, 0, 64, 110
1, 124023, Control_c, 0, 64, 106
1, 124038, Control_c, 0, 64, 102
1, 124052, Control_c, 0, 64, 100
1, 124082, Control_c, 0, 64, 97
1, 124097, Control_c, 0, 64, 93
1, 124112, Control_c, 0, 64, 86
1, 124126, Control_c, 0, 64, 81
1, 124141, Control_c, 0, 64, 77
1, 124148, Note_on_c, 0, 39, 33
1, 124149, Note_on_c, 0, 51, 31
1, 124156, Control_c, 0, 64, 76
1, 124171, Control_c, 0, 64, 76
1, 124171, Note_off_c, 0, 56, 38
1, 124186, Control_c, 0, 64, 74
1, 124200, Control_c, 0, 64, 71
1, 124202, Note_off_c, 0, 59, 28
1, 124215, Control_c, 0, 64, 68
1, 124230, Control_c, 0, 64, 66
1, 124245, Control_c, 0, 64, 66
1, 124259, Control_c, 0, 64, 65
1, 124274, Control_c, 0, 64, 65
1, 124289, Control_c, 0, 64, 64
1, 124299, Note_off_c, 0, 47, 31
1, 124304, Control_c, 0, 64, 63
1, 124319, Control_c, 0, 64, 60
1, 124333, Control_c, 0, 64, 56
1, 124335, Note_off_c, 0, 44, 29
1, 124348, Control_c, 0, 64, 48
1, 124363, Control_c, 0, 64, 0
1, 124830, Control_c, 0, 64, 38
1, 124845, Control_c, 0, 64, 51
1, 124860, Control_c, 0, 64, 56
1, 124875, Control_c, 0, 64, 60
1, 124890, Control_c, 0, 64, 62
1, 124905, Control_c, 0, 64, 64
1, 124934, Control_c, 0, 64, 65
1, 124949, Control_c, 0, 64, 65
1, 124964, Control_c, 0, 64, 66
1, 124979, Control_c, 0, 64, 67
1, 124993, Control_c, 0, 64, 67
1, 125008, Control_c, 0, 64, 68
1, 125023, Control_c, 0, 64, 68
1, 125038, Control_c, 0, 64, 69
1, 125053, Control_c, 0, 64, 70
1, 125068, Control_c, 0, 64, 71
1, 125082, Control_c, 0, 64, 72
1, 125097, Control_c, 0, 64, 73
1, 125112, Control_c, 0, 64, 74
1, 125127, Control_c, 0, 64, 75
1, 125142, Control_c, 0, 64, 76
1, 125156, Control_c, 0, 64, 77
1, 125171, Control_c, 0, 64, 78
1, 125186, Control_c, 0, 64, 78
1, 125200, Control_c, 0, 64, 79
1, 125215, Control_c, 0, 64, 80
1, 125238, Control_c, 0, 64, 81
1, 125253, Control_c, 0, 64, 81
1, 125268, Control_c, 0, 64, 83
1, 125283, Control_c, 0, 64, 83
1, 125298, Control_c, 0, 64, 84
1, 125313, Control_c, 0, 64, 85
1, 125328, Control_c, 0, 64, 86
1, 125343, Control_c, 0, 64, 87
1, 125358, Control_c, 0, 64, 88
1, 125364, Note_off_c, 0, 51, 37
1, 125373, Control_c, 0, 64, 90
1, 125387, Control_c, 0, 64, 91
1, 125402, Control_c, 0, 64, 92
1, 125417, Control_c, 0, 64, 93
1, 125431, Control_c, 0, 64, 94
1, 125446, Control_c, 0, 64, 95
1, 125476, Control_c, 0, 64, 97
1, 125535, Control_c, 0, 64, 99
1, 125609, Control_c, 0, 64, 101
1, 126193, Note_on_c, 0, 59, 23
1, 126207, Note_on_c, 0, 47, 17
1, 126293, Note_off_c, 0, 39, 30
1, 126689, Note_on_c, 0, 56, 24
1, 126690, Note_on_c, 0, 44, 15
1, 126751, Control_c, 0, 64, 99
1, 126783, Note_off_c, 0, 56, 0
1, 126783, Note_on_c, 0, 56, 3
1, 126825, Control_c, 0, 64, 97
1, 126871, Control_c, 0, 64, 96
1, 126885, Control_c, 0, 64, 95
1, 126900, Control_c, 0, 64, 95
1, 126915, Control_c, 0, 64, 94
1, 126930, Control_c, 0, 64, 94
1, 126945, Control_c, 0, 64, 93
1, 126959, Control_c, 0, 64, 93
1, 126989, Control_c, 0, 64, 92
1, 127048, Control_c, 0, 64, 92
1, 127063, Control_c, 0, 64, 91
1, 127078, Control_c, 0, 64, 90
1, 127093, Control_c, 0, 64, 88
1, 127108, Control_c, 0, 64, 83
1, 127122, Control_c, 0, 64, 78
1, 127126, Note_on_c, 0, 52, 33
1, 127134, Note_on_c, 0, 40, 27
1, 127137, Control_c, 0, 64, 74
1, 127152, Control_c, 0, 64, 70
1, 127167, Control_c, 0, 64, 68
1, 127182, Control_c, 0, 64, 66
1, 127182, Note_off_c, 0, 59, 30
1, 127196, Control_c, 0, 64, 64
1, 127211, Control_c, 0, 64, 61
1, 127226, Control_c, 0, 64, 30
1, 127241, Control_c, 0, 64, 0
1, 127309, Note_off_c, 0, 44, 35
1, 127315, Note_off_c, 0, 56, 27
1, 127367, Note_off_c, 0, 47, 42
1, 127618, Control_c, 0, 64, 13
1, 127633, Control_c, 0, 64, 48
1, 127649, Control_c, 0, 64, 61
1, 127664, Control_c, 0, 64, 64
1, 127679, Control_c, 0, 64, 64
1, 127693, Control_c, 0, 64, 65
1, 127708, Control_c, 0, 64, 65
1, 127723, Control_c, 0, 64, 66
1, 127738, Control_c, 0, 64, 66
1, 127753, Control_c, 0, 64, 67
1, 127768, Control_c, 0, 64, 68
1, 127797, Control_c, 0, 64, 68
1, 127812, Control_c, 0, 64, 69
1, 127826, Control_c, 0, 64, 69
1, 127841, Control_c, 0, 64, 70
1, 127856, Control_c, 0, 64, 70
1, 127871, Control_c, 0, 64, 71
1, 127886, Control_c, 0, 64, 71
1, 127915, Control_c, 0, 64, 72
1, 127930, Control_c, 0, 64, 72
1, 127945, Control_c, 0, 64, 73
1, 127960, Control_c, 0, 64, 74
1, 127974, Control_c, 0, 64, 74
1, 127989, Control_c, 0, 64, 75
1, 128004, Control_c, 0, 64, 75
1, 128018, Control_c, 0, 64, 76
1, 128033, Control_c, 0, 64, 76
1, 128048, Control_c, 0, 64, 77
1, 128063, Control_c, 0, 64, 78
1, 128078, Control_c, 0, 64, 78
1, 128092, Control_c, 0, 64, 79
1, 128122, Control_c, 0, 64, 80
1, 128137, Control_c, 0, 64, 80
1, 128151, Control_c, 0, 64, 81
1, 128166, Control_c, 0, 64, 82
1, 128181, Control_c, 0, 64, 83
1, 128196, Control_c, 0, 64, 83
1, 128211, Control_c, 0, 64, 84
1, 128233, Control_c, 0, 64, 85
1, 128248, Control_c, 0, 64, 86
1, 128263, Control_c, 0, 64, 87
1, 128278, Control_c, 0, 64, 87
1, 128293, Control_c, 0, 64, 88
1, 128307, Control_c, 0, 64, 88
1, 128322, Control_c, 0, 64, 89
1, 128337, Control_c, 0, 64, 89
1, 128351, Control_c, 0, 64, 90
1, 128366, Control_c, 0, 64, 90
1, 128396, Control_c, 0, 64, 91
1, 128425, Control_c, 0, 64, 91
1, 128486, Control_c, 0, 64, 92
1, 128545, Control_c, 0, 64, 92
1, 128696, Note_on_c, 0, 56, 30
1, 128707, Note_on_c, 0, 44, 14
1, 129019, Note_off_c, 0, 52, 37
1, 129039, Note_on_c, 0, 47, 40
1, 129039, Note_on_c, 0, 59, 40
1, 129071, Control_c, 0, 64, 93
1, 129116, Control_c, 0, 64, 93
1, 129158, Note_off_c, 0, 40, 34
1, 129164, Note_on_c, 0, 64, 53
1, 129169, Note_on_c, 0, 52, 37
1, 129175, Note_off_c, 0, 56, 32
1, 129204, Control_c, 0, 64, 94
1, 129224, Note_off_c, 0, 59, 36
1, 129234, Control_c, 0, 67, 124
1, 129237, Note_off_c, 0, 44, 37
1, 129244, Note_off_c, 0, 47, 36
1, 129250, Control_c, 0, 64, 94
1, 129265, Control_c, 0, 64, 95
1, 129279, Control_c, 0, 64, 96
1, 129324, Control_c, 0, 64, 98
1, 129324, Control_c, 0, 67, 122
1, 129353, Control_c, 0, 64, 100
1, 129383, Control_c, 0, 64, 102
1, 129412, Control_c, 0, 64, 104
1, 129457, Control_c, 0, 64, 106
1, 129501, Control_c, 0, 67, 120
1, 129531, Control_c, 0, 67, 117
1, 129546, Control_c, 0, 67, 114
1, 129561, Control_c, 0, 67, 112
1, 129576, Control_c, 0, 67, 109
1, 129590, Control_c, 0, 67, 107
1, 129605, Control_c, 0, 67, 104
1, 129620, Control_c, 0, 67, 100
1, 129632, Note_on_c, 0, 68, 55
1, 129635, Control_c, 0, 67, 97
1, 129650, Control_c, 0, 67, 94
1, 129656, Note_on_c, 0, 56, 37
1, 129664, Control_c, 0, 67, 89
1, 129679, Control_c, 0, 67, 84
1, 129682, Note_off_c, 0, 52, 59
1, 129694, Control_c, 0, 67, 78
1, 129709, Control_c, 0, 67, 72
1, 129731, Control_c, 0, 67, 65
1, 129746, Control_c, 0, 67, 61
1, 129761, Control_c, 0, 67, 56
1, 129775, Control_c, 0, 67, 52
1, 129790, Control_c, 0, 67, 48
1, 129805, Control_c, 0, 67, 45
1, 129820, Control_c, 0, 67, 44
1, 129835, Control_c, 0, 67, 42
1, 129850, Control_c, 0, 67, 40
1, 129865, Control_c, 0, 67, 36
1, 129879, Control_c, 0, 67, 32
1, 129894, Control_c, 0, 67, 30
1, 129917, Note_off_c, 0, 64, 25
1, 129923, Control_c, 0, 67, 28
1, 129968, Control_c, 0, 67, 26
1, 129983, Control_c, 0, 67, 24
1, 129984, Note_on_c, 0, 71, 51
1, 129998, Note_on_c, 0, 59, 36
1, 130012, Control_c, 0, 67, 22
1, 130043, Control_c, 0, 67, 19
1, 130058, Control_c, 0, 67, 17
1, 130073, Control_c, 0, 67, 14
1, 130088, Control_c, 0, 67, 11
1, 130103, Control_c, 0, 67, 9
1, 130118, Control_c, 0, 67, 0
1, 130238, Note_on_c, 0, 76, 56
1, 130249, Note_on_c, 0, 64, 41
1, 130379, Note_off_c, 0, 68, 62
1, 130403, Note_off_c, 0, 71, 58
1, 130473, Note_off_c, 0, 56, 36
1, 130516, Note_off_c, 0, 64, 54
1, 130567, Note_off_c, 0, 59, 35
1, 130592, Note_off_c, 0, 76, 54
1, 130789, Note_on_c, 0, 64, 46
1, 130801, Note_on_c, 0, 52, 32
1, 130906, Note_off_c, 0, 64, 61
1, 130949, Note_off_c, 0, 52, 53
1, 131450, Control_c, 0, 64, 102
1, 131465, Control_c, 0, 64, 96
1, 131480, Control_c, 0, 64, 89
1, 131489, Note_on_c, 0, 71, 48
1, 131494, Control_c, 0, 64, 80
1, 131498, Note_on_c, 0, 59, 34
1, 131509, Control_c, 0, 64, 72
1, 131515, Note_on_c, 0, 54, 25
1, 131518, Note_on_c, 0, 51, 28
1, 131524, Control_c, 0, 64, 66
1, 131539, Control_c, 0, 64, 60
1, 131554, Control_c, 0, 64, 0
1, 131564, Note_off_c, 0, 59, 0
1, 131564, Note_on_c, 0, 59, 3
1, 131806, Control_c, 0, 64, 59
1, 131821, Control_c, 0, 64, 64
1, 131836, Control_c, 0, 64, 66
1, 131851, Control_c, 0, 64, 68
1, 131865, Control_c, 0, 64, 70
1, 131880, Control_c, 0, 64, 72
1, 131895, Control_c, 0, 64, 74
1, 131910, Control_c, 0, 64, 77
1, 131925, Control_c, 0, 64, 80
1, 131940, Control_c, 0, 64, 83
1, 131955, Control_c, 0, 64, 85
1, 131977, Control_c, 0, 64, 87
1, 131991, Control_c, 0, 64, 90
1, 132006, Control_c, 0, 64, 93
1, 132021, Control_c, 0, 64, 95
1, 132036, Control_c, 0, 64, 97
1, 132051, Control_c, 0, 64, 99
1, 132080, Control_c, 0, 64, 102
1, 132104, Note_off_c, 0, 59, 39
1, 132110, Control_c, 0, 64, 105
1, 132139, Control_c, 0, 64, 107
1, 132195, Note_off_c, 0, 51, 41
1, 132199, Control_c, 0, 64, 109
1, 132252, Note_off_c, 0, 54, 40
1, 132434, Note_on_c, 0, 73, 46
1, 132551, Note_off_c, 0, 71, 57
1, 132629, Control_c, 0, 64, 107
1, 132659, Control_c, 0, 64, 103
1, 132674, Control_c, 0, 64, 97
1, 132688, Control_c, 0, 64, 91
1, 132703, Control_c, 0, 64, 82
1, 132726, Note_on_c, 0, 71, 39
1, 132726, Control_c, 0, 64, 74
1, 132736, Note_on_c, 0, 58, 28
1, 132738, Note_on_c, 0, 55, 29
1, 132740, Note_on_c, 0, 52, 30
1, 132740, Control_c, 0, 64, 68
1, 132755, Control_c, 0, 64, 64
1, 132770, Control_c, 0, 64, 56
1, 132777, Note_off_c, 0, 73, 49
1, 132785, Control_c, 0, 64, 0
1, 132944, Note_on_c, 0, 73, 40
1, 132962, Control_c, 0, 64, 63
1, 132977, Control_c, 0, 64, 68
1, 132984, Note_off_c, 0, 71, 52
1, 132992, Control_c, 0, 64, 72
1, 133007, Control_c, 0, 64, 76
1, 133022, Control_c, 0, 64, 80
1, 133037, Control_c, 0, 64, 84
1, 133048, Note_off_c, 0, 73, 60
1, 133051, Control_c, 0, 64, 87
1, 133066, Control_c, 0, 64, 89
1, 133078, Note_on_c, 0, 75, 49
1, 133081, Control_c, 0, 64, 91
1, 133096, Control_c, 0, 64, 93
1, 133111, Control_c, 0, 64, 94
1, 133126, Control_c, 0, 64, 96
1, 133135, Note_off_c, 0, 75, 59
1, 133155, Control_c, 0, 64, 98
1, 133172, Note_on_c, 0, 73, 54
1, 133200, Control_c, 0, 64, 101
1, 133211, Note_off_c, 0, 73, 60
1, 133245, Control_c, 0, 64, 103
1, 133263, Note_on_c, 0, 75, 42
1, 133292, Note_off_c, 0, 75, 54
1, 133302, Note_on_c, 0, 73, 60
1, 133305, Control_c, 0, 64, 105
1, 133333, Note_off_c, 0, 73, 63
1, 133363, Control_c, 0, 64, 107
1, 133370, Note_on_c, 0, 75, 52
1, 133393, Note_off_c, 0, 75, 60
1, 133393, Control_c, 0, 64, 110
1, 133416, Note_on_c, 0, 73, 62
1, 133423, Control_c, 0, 64, 113
1, 133448, Note_off_c, 0, 73, 64
1, 133452, Control_c, 0, 64, 116
1, 133475, Control_c, 0, 64, 120
1, 133484, Note_on_c, 0, 75, 53
1, 133490, Control_c, 0, 64, 127
1, 133508, Note_off_c, 0, 75, 60
1, 133530, Note_on_c, 0, 73, 64
1, 133558, Note_off_c, 0, 73, 64
1, 133585, Note_on_c, 0, 75, 60
1, 133618, Note_off_c, 0, 75, 64
1, 133644, Note_on_c, 0, 73, 51
1, 133677, Note_off_c, 0, 73, 48
1, 133690, Note_on_c, 0, 75, 65
1, 133711, Note_off_c, 0, 52, 54
1, 133723, Note_off_c, 0, 55, 40
1, 133736, Note_on_c, 0, 73, 50
1, 133739, Note_off_c, 0, 75, 57
1, 133791, Note_off_c, 0, 73, 60
1, 133797, Note_off_c, 0, 58, 40
1, 133826, Note_on_c, 0, 71, 36
1, 133938, Note_on_c, 0, 75, 45
1, 133947, Note_off_c, 0, 71, 34
1, 133964, Control_c, 0, 64, 117
1, 133979, Control_c, 0, 64, 113
1, 133993, Control_c, 0, 64, 111
1, 134039, Control_c, 0, 64, 108
1, 134051, Note_on_c, 0, 73, 41
1, 134053, Control_c, 0, 64, 106
1, 134065, Note_off_c, 0, 75, 37
1, 134068, Control_c, 0, 64, 104
1, 134098, Control_c, 0, 64, 101
1, 134113, Control_c, 0, 64, 99
1, 134128, Control_c, 0, 64, 96
1, 134142, Control_c, 0, 64, 93
1, 134157, Control_c, 0, 64, 87
1, 134172, Control_c, 0, 64, 81
1, 134187, Control_c, 0, 64, 74
1, 134190, Note_on_c, 0, 71, 39
1, 134202, Control_c, 0, 64, 69
1, 134213, Note_off_c, 0, 73, 31
1, 134217, Note_on_c, 0, 54, 23
1, 134220, Note_on_c, 0, 59, 18
1, 134223, Note_on_c, 0, 51, 20
1, 134224, Control_c, 0, 64, 66
1, 134239, Control_c, 0, 64, 64
1, 134254, Control_c, 0, 64, 50
1, 134268, Control_c, 0, 64, 0
1, 134491, Control_c, 0, 64, 66
1, 134506, Control_c, 0, 64, 70
1, 134520, Control_c, 0, 64, 73
1, 134535, Control_c, 0, 64, 75
1, 134550, Control_c, 0, 64, 78
1, 134565, Control_c, 0, 64, 80
1, 134580, Control_c, 0, 64, 82
1, 134593, Control_c, 0, 64, 82
1, 134595, Note_off_c, 0, 59, 40
1, 134608, Control_c, 0, 64, 83
1, 134622, Note_off_c, 0, 51, 50
1, 134635, Note_off_c, 0, 71, 36
1, 134658, Note_off_c, 0, 54, 40
1, 134712, Control_c, 0, 64, 82
1, 134786, Control_c, 0, 64, 82
1, 134816, Control_c, 0, 64, 81
1, 134831, Control_c, 0, 64, 81
1, 134846, Control_c, 0, 64, 80
1, 134861, Control_c, 0, 64, 80
1, 134876, Control_c, 0, 64, 79
1, 134891, Control_c, 0, 64, 78
1, 134906, Control_c, 0, 64, 77
1, 134921, Control_c, 0, 64, 76
1, 134935, Control_c, 0, 64, 74
1, 134950, Control_c, 0, 64, 73
1, 134972, Control_c, 0, 64, 72
1, 134987, Control_c, 0, 64, 71
1, 135002, Control_c, 0, 64, 71
1, 135016, Control_c, 0, 64, 70
1, 135031, Control_c, 0, 64, 69
1, 135046, Control_c, 0, 64, 69
1, 135061, Control_c, 0, 64, 68
1, 135076, Control_c, 0, 64, 68
1, 135090, Control_c, 0, 64, 67
1, 135105, Control_c, 0, 64, 66
1, 135120, Control_c, 0, 64, 66
1, 135150, Control_c, 0, 64, 65
1, 135165, Control_c, 0, 64, 65
1, 135180, Control_c, 0, 64, 64
1, 135195, Control_c, 0, 64, 64
1, 135209, Control_c, 0, 64, 63
1, 135224, Control_c, 0, 64, 63
1, 135239, Control_c, 0, 64, 61
1, 135254, Control_c, 0, 64, 59
1, 135268, Control_c, 0, 64, 54
1, 135283, Control_c, 0, 64, 38
1, 135298, Control_c, 0, 64, 0
1, 136366, Note_on_c, 0, 78, 54
1, 136376, Note_on_c, 0, 73, 34
1, 136389, Note_on_c, 0, 69, 34
1, 136588, Control_c, 0, 64, 34
1, 136603, Control_c, 0, 64, 60
1, 136618, Control_c, 0, 64, 64
1, 136633, Control_c, 0, 64, 65
1, 136648, Control_c, 0, 64, 66
1, 136662, Control_c, 0, 64, 68
1, 136677, Control_c, 0, 64, 71
1, 136692, Control_c, 0, 64, 74
1, 136706, Control_c, 0, 64, 78
1, 136721, Control_c, 0, 64, 81
1, 136736, Control_c, 0, 64, 84
1, 136751, Control_c, 0, 64, 86
1, 136766, Control_c, 0, 64, 89
1, 136781, Control_c, 0, 64, 92
1, 136795, Control_c, 0, 64, 94
1, 136810, Control_c, 0, 64, 96
1, 136825, Control_c, 0, 64, 98
1, 136841, Control_c, 0, 64, 100
1, 136855, Control_c, 0, 64, 102
1, 136870, Control_c, 0, 64, 105
1, 136885, Control_c, 0, 64, 108
1, 136900, Control_c, 0, 64, 110
1, 136907, Note_off_c, 0, 69, 44
1, 136915, Control_c, 0, 64, 112
1, 136945, Control_c, 0, 64, 115
1, 136959, Control_c, 0, 64, 119
1, 136974, Control_c, 0, 64, 127
1, 137081, Note_off_c, 0, 73, 58
1, 137275, Note_on_c, 0, 80, 64
1, 137383, Control_c, 0, 64, 120
1, 137398, Control_c, 0, 64, 117
1, 137451, Note_off_c, 0, 78, 52
1, 137501, Control_c, 0, 64, 115
1, 137516, Control_c, 0, 64, 112
1, 137530, Control_c, 0, 64, 107
1, 137545, Control_c, 0, 64, 99
1, 137560, Control_c, 0, 64, 86
1, 137571, Note_on_c, 0, 81, 68
1, 137572, Note_on_c, 0, 77, 53
1, 137574, Note_on_c, 0, 74, 50
1, 137575, Control_c, 0, 64, 75
1, 137590, Control_c, 0, 64, 67
1, 137595, Note_on_c, 0, 71, 39
1, 137604, Control_c, 0, 64, 0
1, 137626, Note_off_c, 0, 80, 54
1, 137767, Note_off_c, 0, 81, 61
1, 137767, Control_c, 0, 64, 68
1, 137778, Note_on_c, 0, 80, 46
1, 137782, Control_c, 0, 64, 73
1, 137797, Control_c, 0, 64, 77
1, 137812, Control_c, 0, 64, 82
1, 137827, Control_c, 0, 64, 86
1, 137842, Control_c, 0, 64, 90
1, 137856, Control_c, 0, 64, 93
1, 137861, Note_off_c, 0, 80, 62
1, 137871, Control_c, 0, 64, 95
1, 137886, Control_c, 0, 64, 98
1, 137890, Note_on_c, 0, 81, 61
1, 137901, Control_c, 0, 64, 100
1, 137916, Control_c, 0, 64, 102
1, 137930, Control_c, 0, 64, 104
1, 137952, Control_c, 0, 64, 106
1, 137964, Note_off_c, 0, 81, 59
1, 137967, Control_c, 0, 64, 108
1, 137997, Note_on_c, 0, 80, 59
1, 137997, Control_c, 0, 64, 110
1, 138034, Note_off_c, 0, 80, 61
1, 138057, Control_c, 0, 64, 113
1, 138079, Note_on_c, 0, 81, 55
1, 138086, Control_c, 0, 64, 115
1, 138098, Note_off_c, 0, 81, 61
1, 138128, Note_on_c, 0, 80, 59
1, 138131, Control_c, 0, 64, 118
1, 138146, Control_c, 0, 64, 120
1, 138150, Note_off_c, 0, 80, 63
1, 138161, Control_c, 0, 64, 127
1, 138185, Note_on_c, 0, 81, 50
1, 138208, Note_off_c, 0, 81, 59
1, 138232, Note_on_c, 0, 80, 57
1, 138254, Note_off_c, 0, 80, 64
1, 138284, Note_on_c, 0, 81, 64
1, 138315, Note_off_c, 0, 81, 62
1, 138331, Note_on_c, 0, 80, 61
1, 138359, Note_off_c, 0, 80, 66
1, 138386, Note_on_c, 0, 81, 67
1, 138436, Note_on_c, 0, 80, 65
1, 138438, Note_off_c, 0, 77, 53
1, 138443, Note_off_c, 0, 81, 60
1, 138472, Note_off_c, 0, 80, 63
1, 138482, Note_off_c, 0, 71, 58
1, 138485, Note_off_c, 0, 74, 56
1, 138510, Note_on_c, 0, 78, 52
1, 138560, Note_off_c, 0, 78, 57
1, 138610, Note_on_c, 0, 81, 32
1, 138712, Note_off_c, 0, 81, 57
1, 138730, Control_c, 0, 64, 122
1, 138736, Note_on_c, 0, 80, 43
1, 138745, Control_c, 0, 64, 119
1, 138819, Control_c, 0, 64, 117
1, 138835, Control_c, 0, 64, 113
1, 138849, Control_c, 0, 64, 108
1, 138864, Control_c, 0, 64, 101
1, 138879, Control_c, 0, 64, 93
1, 138894, Control_c, 0, 64, 84
1, 138909, Control_c, 0, 64, 74
1, 138924, Control_c, 0, 64, 66
1, 138925, Note_on_c, 0, 78, 40
1, 138939, Control_c, 0, 64, 38
1, 138942, Note_off_c, 0, 80, 36
1, 138943, Note_on_c, 0, 73, 21
1, 138947, Note_on_c, 0, 69, 28
1, 138954, Control_c, 0, 64, 0
1, 139175, Control_c, 0, 64, 65
1, 139190, Control_c, 0, 64, 69
1, 139205, Control_c, 0, 64, 70
1, 139220, Control_c, 0, 64, 72
1, 139231, Note_off_c, 0, 69, 50
1, 139234, Control_c, 0, 64, 74
1, 139249, Control_c, 0, 64, 76
1, 139264, Control_c, 0, 64, 78
1, 139279, Note_off_c, 0, 78, 35
1, 139279, Control_c, 0, 64, 79
1, 139294, Control_c, 0, 64, 80
1, 139308, Control_c, 0, 64, 80
1, 139338, Control_c, 0, 64, 81
1, 139349, Note_off_c, 0, 73, 40
1, 139353, Control_c, 0, 64, 81
1, 139442, Control_c, 0, 64, 81
1, 139479, Control_c, 0, 64, 80
1, 139494, Control_c, 0, 64, 80
1, 139508, Control_c, 0, 64, 79
1, 139523, Control_c, 0, 64, 78
1, 139538, Control_c, 0, 64, 77
1, 139553, Control_c, 0, 64, 76
1, 139568, Control_c, 0, 64, 75
1, 139583, Control_c, 0, 64, 74
1, 139598, Control_c, 0, 64, 72
1, 139612, Control_c, 0, 64, 71
1, 139628, Control_c, 0, 64, 71
1, 139643, Control_c, 0, 64, 70
1, 139657, Control_c, 0, 64, 69
1, 139672, Control_c, 0, 64, 68
1, 139687, Control_c, 0, 64, 67
1, 139702, Control_c, 0, 64, 66
1, 139717, Control_c, 0, 64, 65
1, 139732, Control_c, 0, 64, 65
1, 139747, Control_c, 0, 64, 64
1, 139761, Control_c, 0, 64, 64
1, 139776, Control_c, 0, 64, 57
1, 139791, Control_c, 0, 64, 0
1, 141010, Note_on_c, 0, 64, 47
1, 141033, Note_on_c, 0, 59, 34
1, 141039, Note_on_c, 0, 56, 30
1, 141275, Control_c, 0, 64, 38
1, 141290, Control_c, 0, 64, 53
1, 141304, Control_c, 0, 64, 60
1, 141319, Control_c, 0, 64, 64
1, 141334, Control_c, 0, 64, 65
1, 141349, Control_c, 0, 64, 67
1, 141364, Control_c, 0, 64, 68
1, 141378, Control_c, 0, 64, 70
1, 141393, Control_c, 0, 64, 73
1, 141408, Control_c, 0, 64, 77
1, 141422, Control_c, 0, 64, 82
1, 141437, Control_c, 0, 64, 85
1, 141452, Control_c, 0, 64, 88
1, 141467, Control_c, 0, 64, 90
1, 141482, Control_c, 0, 64, 92
1, 141496, Control_c, 0, 64, 94
1, 141511, Control_c, 0, 64, 96
1, 141556, Control_c, 0, 64, 98
1, 141684, Note_off_c, 0, 59, 33
1, 141786, Note_off_c, 0, 56, 50
1, 141967, Note_on_c, 0, 66, 61
1, 142024, Control_c, 0, 64, 96
1, 142053, Control_c, 0, 64, 95
1, 142098, Control_c, 0, 64, 94
1, 142113, Control_c, 0, 64, 94
1, 142127, Control_c, 0, 64, 93
1, 142170, Note_off_c, 0, 64, 52
1, 142172, Control_c, 0, 64, 90
1, 142187, Control_c, 0, 64, 84
1, 142201, Control_c, 0, 64, 76
1, 142212, Note_on_c, 0, 68, 56
1, 142216, Control_c, 0, 64, 68
1, 142218, Note_on_c, 0, 60, 46
1, 142228, Note_on_c, 0, 63, 41
1, 142229, Note_on_c, 0, 57, 43
1, 142231, Control_c, 0, 64, 63
1, 142245, Control_c, 0, 64, 0
1, 142280, Note_off_c, 0, 66, 62
1, 142394, Control_c, 0, 64, 62
1, 142406, Note_off_c, 0, 68, 63
1, 142409, Control_c, 0, 64, 69
1, 142409, Note_on_c, 0, 66, 59
1, 142423, Control_c, 0, 64, 74
1, 142438, Control_c, 0, 64, 78
1, 142460, Control_c, 0, 64, 83
1, 142475, Control_c, 0, 64, 87
1, 142490, Control_c, 0, 64, 90
1, 142492, Note_off_c, 0, 66, 62
1, 142505, Control_c, 0, 64, 93
1, 142520, Control_c, 0, 64, 96
1, 142524, Note_on_c, 0, 68, 56
1, 142534, Control_c, 0, 64, 99
1, 142549, Control_c, 0, 64, 102
1, 142556, Note_off_c, 0, 68, 66
1, 142564, Control_c, 0, 64, 104
1, 142578, Control_c, 0, 64, 106
1, 142593, Control_c, 0, 64, 108
1, 142599, Note_on_c, 0, 66, 56
1, 142608, Control_c, 0, 64, 111
1, 142623, Control_c, 0, 64, 113
1, 142624, Note_off_c, 0, 66, 63
1, 142638, Control_c, 0, 64, 117
1, 142653, Control_c, 0, 64, 119
1, 142661, Note_on_c, 0, 68, 51
1, 142668, Control_c, 0, 64, 122
1, 142683, Control_c, 0, 64, 127
1, 142685, Note_off_c, 0, 68, 62
1, 142707, Note_on_c, 0, 66, 63
1, 142737, Note_off_c, 0, 66, 66
1, 142766, Note_on_c, 0, 68, 61
1, 142798, Note_off_c, 0, 68, 63
1, 142824, Note_on_c, 0, 66, 60
1, 142853, Note_off_c, 0, 66, 67
1, 142876, Note_on_c, 0, 68, 65
1, 142912, Note_off_c, 0, 68, 61
1, 142932, Note_on_c, 0, 66, 58
1, 142960, Note_off_c, 0, 66, 65
1, 142979, Note_off_c, 0, 60, 58
1, 142987, Note_on_c, 0, 68, 69
1, 143005, Note_off_c, 0, 63, 53
1, 143011, Note_off_c, 0, 57, 59
1, 143031, Note_on_c, 0, 66, 68
1, 143034, Note_off_c, 0, 68, 60
1, 143070, Note_off_c, 0, 66, 63
1, 143091, Note_on_c, 0, 64, 57
1, 143160, Note_on_c, 0, 68, 66
1, 143166, Note_off_c, 0, 64, 62
1, 143228, Note_off_c, 0, 68, 62
1, 143258, Note_on_c, 0, 66, 60
1, 143282, Control_c, 0, 64, 99
1, 143297, Control_c, 0, 64, 82
1, 143306, Note_off_c, 0, 66, 62
1, 143312, Control_c, 0, 64, 65
1, 143327, Control_c, 0, 64, 0
1, 143334, Note_on_c, 0, 59, 46
1, 143334, Note_on_c, 0, 64, 60
1, 143339, Note_on_c, 0, 56, 47
1, 143461, Control_c, 0, 64, 71
1, 143475, Control_c, 0, 64, 79
1, 143490, Control_c, 0, 64, 89
1, 143505, Note_off_c, 0, 64, 64
1, 143505, Control_c, 0, 64, 97
1, 143512, Note_off_c, 0, 59, 61
1, 143520, Control_c, 0, 64, 103
1, 143535, Control_c, 0, 64, 112
1, 143549, Control_c, 0, 64, 127
1, 143564, Note_off_c, 0, 56, 64
1, 143906, Control_c, 0, 64, 113
1, 143921, Control_c, 0, 64, 98
1, 143936, Control_c, 0, 64, 85
1, 143947, Note_on_c, 0, 42, 50
1, 143951, Note_on_c, 0, 69, 69
1, 143959, Control_c, 0, 64, 75
1, 143963, Note_on_c, 0, 61, 51
1, 143968, Note_on_c, 0, 57, 46
1, 143973, Control_c, 0, 64, 67
1, 143979, Note_on_c, 0, 54, 27
1, 143988, Control_c, 0, 64, 58
1, 144003, Control_c, 0, 64, 0
1, 144034, Note_off_c, 0, 54, 44
1, 144195, Control_c, 0, 64, 65
1, 144210, Poly_aftertouch_c, 0, 54, 127
1, 144210, Control_c, 0, 64, 70
1, 144224, Control_c, 0, 64, 74
1, 144239, Control_c, 0, 64, 78
1, 144254, Control_c, 0, 64, 81
1, 144269, Control_c, 0, 64, 83
1, 144284, Control_c, 0, 64, 85
1, 144298, Control_c, 0, 64, 88
1, 144300, Poly_aftertouch_c, 0, 54, 0
1, 144313, Control_c, 0, 64, 90
1, 144328, Control_c, 0, 64, 94
1, 144337, Poly_aftertouch_c, 0, 54, 127
1, 144343, Control_c, 0, 64, 96
1, 144358, Control_c, 0, 64, 99
1, 144388, Control_c, 0, 64, 101
1, 144418, Control_c, 0, 64, 103
1, 144421, Poly_aftertouch_c, 0, 54, 0
1, 144461, Note_off_c, 0, 57, 58
1, 144549, Note_off_c, 0, 61, 59
1, 144900, Control_c, 0, 64, 93
1, 144915, Control_c, 0, 64, 81
1, 144929, Control_c, 0, 64, 69
1, 144933, Note_on_c, 0, 66, 46
1, 144934, Note_off_c, 0, 69, 51
1, 144939, Note_on_c, 0, 45, 27
1, 144944, Control_c, 0, 64, 30
1, 144945, Note_on_c, 0, 57, 33
1, 144947, Note_on_c, 0, 61, 31
1, 144959, Control_c, 0, 64, 0
1, 145014, Note_off_c, 0, 42, 55
1, 145018, Control_c, 0, 64, 59
1, 145033, Control_c, 0, 64, 67
1, 145047, Control_c, 0, 64, 72
1, 145062, Control_c, 0, 64, 78
1, 145076, Control_c, 0, 64, 84
1, 145091, Control_c, 0, 64, 86
1, 145106, Control_c, 0, 64, 87
1, 145120, Control_c, 0, 64, 88
1, 145135, Control_c, 0, 64, 90
1, 145137, Note_off_c, 0, 61, 58
1, 145150, Control_c, 0, 64, 91
1, 145158, Note_off_c, 0, 57, 51
1, 145164, Control_c, 0, 64, 92
1, 145179, Control_c, 0, 64, 92
1, 145209, Control_c, 0, 64, 93
1, 145225, Control_c, 0, 64, 93
1, 145240, Control_c, 0, 64, 94
1, 145263, Note_off_c, 0, 66, 50
1, 145288, Note_on_c, 0, 68, 42
1, 145387, Control_c, 0, 64, 93
1, 145402, Control_c, 0, 64, 92
1, 145417, Control_c, 0, 64, 90
1, 145432, Control_c, 0, 64, 85
1, 145455, Control_c, 0, 64, 78
1, 145461, Note_on_c, 0, 64, 48
1, 145469, Control_c, 0, 64, 71
1, 145479, Note_on_c, 0, 59, 37
1, 145482, Note_on_c, 0, 56, 25
1, 145484, Control_c, 0, 64, 65
1, 145499, Control_c, 0, 64, 50
1, 145506, Note_on_c, 0, 47, 26
1, 145514, Control_c, 0, 64, 0
1, 145568, Note_off_c, 0, 68, 36
1, 145580, Note_off_c, 0, 45, 40
1, 145736, Control_c, 0, 64, 50
1, 145750, Control_c, 0, 64, 64
1, 145765, Control_c, 0, 64, 66
1, 145780, Control_c, 0, 64, 68
1, 145795, Control_c, 0, 64, 70
1, 145810, Control_c, 0, 64, 72
1, 145825, Control_c, 0, 64, 75
1, 145840, Control_c, 0, 64, 77
1, 145854, Control_c, 0, 64, 80
1, 145869, Control_c, 0, 64, 82
1, 145884, Control_c, 0, 64, 85
1, 145899, Control_c, 0, 64, 87
1, 145913, Control_c, 0, 64, 90
1, 145914, Note_off_c, 0, 59, 58
1, 145928, Control_c, 0, 64, 91
1, 145943, Control_c, 0, 64, 93
1, 145958, Control_c, 0, 64, 94
1, 145973, Control_c, 0, 64, 95
1, 146002, Control_c, 0, 64, 97
1, 146027, Note_off_c, 0, 56, 58
1, 146058, Note_off_c, 0, 64, 63
1, 146063, Control_c, 0, 64, 99
1, 146425, Control_c, 0, 64, 96
1, 146440, Control_c, 0, 64, 93
1, 146455, Control_c, 0, 64, 88
1, 146460, Note_on_c, 0, 35, 31
1, 146470, Control_c, 0, 64, 84
1, 146483, Note_on_c, 0, 57, 28
1, 146485, Control_c, 0, 64, 78
1, 146490, Note_on_c, 0, 63, 34
1, 146491, Note_on_c, 0, 54, 23
1, 146499, Control_c, 0, 64, 73
1, 146514, Control_c, 0, 64, 68
1, 146529, Control_c, 0, 64, 66
1, 146543, Control_c, 0, 64, 65
1, 146558, Control_c, 0, 64, 64
1, 146573, Control_c, 0, 64, 57
1, 146588, Control_c, 0, 64, 0
1, 146856, Control_c, 0, 64, 63
1, 146871, Control_c, 0, 64, 65
1, 146886, Control_c, 0, 64, 67
1, 146887, Note_off_c, 0, 47, 36
1, 146901, Control_c, 0, 64, 70
1, 146906, Note_off_c, 0, 35, 58
1, 146915, Control_c, 0, 64, 74
1, 146930, Control_c, 0, 64, 78
1, 146952, Control_c, 0, 64, 82
1, 146966, Control_c, 0, 64, 84
1, 146981, Control_c, 0, 64, 86
1, 146996, Control_c, 0, 64, 88
1, 147011, Note_off_c, 0, 54, 55
1, 147011, Control_c, 0, 64, 90
1, 147026, Control_c, 0, 64, 93
1, 147041, Control_c, 0, 64, 94
1, 147044, Note_off_c, 0, 57, 53
1, 147056, Control_c, 0, 64, 95
1, 147100, Control_c, 0, 64, 95
1, 147144, Note_off_c, 0, 63, 48
1, 147174, Control_c, 0, 64, 95
1, 147248, Control_c, 0, 64, 94
1, 147263, Control_c, 0, 64, 94
1, 147278, Control_c, 0, 64, 93
1, 147293, Control_c, 0, 64, 92
1, 147308, Control_c, 0, 64, 91
1, 147323, Control_c, 0, 64, 90
1, 147338, Control_c, 0, 64, 89
1, 147353, Control_c, 0, 64, 88
1, 147367, Control_c, 0, 64, 86
1, 147382, Control_c, 0, 64, 85
1, 147397, Control_c, 0, 64, 84
1, 147412, Control_c, 0, 64, 84
1, 147427, Control_c, 0, 64, 83
1, 147441, Control_c, 0, 64, 82
1, 147456, Control_c, 0, 64, 81
1, 147471, Control_c, 0, 64, 80
1, 147485, Control_c, 0, 64, 78
1, 147500, Control_c, 0, 64, 77
1, 147515, Control_c, 0, 64, 75
1, 147530, Control_c, 0, 64, 74
1, 147545, Control_c, 0, 64, 73
1, 147560, Control_c, 0, 64, 72
1, 147574, Control_c, 0, 64, 71
1, 147589, Control_c, 0, 64, 70
1, 147604, Control_c, 0, 64, 70
1, 147620, Control_c, 0, 64, 69
1, 147635, Control_c, 0, 64, 68
1, 147650, Control_c, 0, 64, 67
1, 147664, Control_c, 0, 64, 66
1, 147679, Control_c, 0, 64, 65
1, 147702, Control_c, 0, 64, 64
1, 147717, Control_c, 0, 64, 63
1, 147732, Control_c, 0, 64, 51
1, 147746, Control_c, 0, 64, 0
1, 147804, Note_on_c, 0, 76, 57
1, 147816, Note_on_c, 0, 68, 33
1, 147818, Note_on_c, 0, 71, 37
1, 148087, Control_c, 0, 64, 62
1, 148102, Control_c, 0, 64, 65
1, 148116, Control_c, 0, 64, 66
1, 148131, Control_c, 0, 64, 67
1, 148146, Control_c, 0, 64, 69
1, 148161, Control_c, 0, 64, 71
1, 148176, Control_c, 0, 64, 73
1, 148190, Control_c, 0, 64, 75
1, 148205, Control_c, 0, 64, 78
1, 148220, Control_c, 0, 64, 80
1, 148235, Control_c, 0, 64, 82
1, 148250, Control_c, 0, 64, 84
1, 148264, Control_c, 0, 64, 86
1, 148279, Control_c, 0, 64, 87
1, 148294, Control_c, 0, 64, 88
1, 148308, Control_c, 0, 64, 89
1, 148323, Control_c, 0, 64, 90
1, 148338, Control_c, 0, 64, 90
1, 148353, Control_c, 0, 64, 91
1, 148358, Note_off_c, 0, 71, 55
1, 148368, Control_c, 0, 64, 91
1, 148383, Control_c, 0, 64, 92
1, 148397, Control_c, 0, 64, 92
1, 148451, Control_c, 0, 64, 93
1, 148466, Control_c, 0, 64, 93
1, 148544, Note_off_c, 0, 68, 60
1, 148711, Note_on_c, 0, 78, 69
1, 148732, Control_c, 0, 64, 93
1, 148820, Control_c, 0, 64, 92
1, 148865, Control_c, 0, 64, 92
1, 148880, Control_c, 0, 64, 91
1, 148894, Control_c, 0, 64, 91
1, 148909, Control_c, 0, 64, 90
1, 148924, Control_c, 0, 64, 89
1, 148938, Control_c, 0, 64, 88
1, 148953, Control_c, 0, 64, 86
1, 148968, Control_c, 0, 64, 83
1, 148983, Control_c, 0, 64, 79
1, 148985, Note_off_c, 0, 76, 36
1, 148998, Control_c, 0, 64, 75
1, 149007, Note_on_c, 0, 80, 75
1, 149012, Control_c, 0, 64, 72
1, 149026, Note_on_c, 0, 72, 53
1, 149027, Note_on_c, 0, 69, 46
1, 149027, Control_c, 0, 64, 69
1, 149028, Note_on_c, 0, 75, 51
1, 149042, Control_c, 0, 64, 66
1, 149056, Control_c, 0, 64, 64
1, 149071, Control_c, 0, 64, 0
1, 149089, Note_off_c, 0, 78, 61
1, 149232, Note_on_c, 0, 78, 68
1, 149237, Note_off_c, 0, 80, 63
1, 149258, Control_c, 0, 64, 68
1, 149273, Control_c, 0, 64, 73
1, 149288, Control_c, 0, 64, 77
1, 149303, Control_c, 0, 64, 81
1, 149307, Note_off_c, 0, 78, 61
1, 149317, Control_c, 0, 64, 84
1, 149332, Control_c, 0, 64, 88
1, 149344, Note_on_c, 0, 80, 65
1, 149347, Control_c, 0, 64, 91
1, 149361, Control_c, 0, 64, 94
1, 149372, Note_off_c, 0, 80, 67
1, 149376, Control_c, 0, 64, 96
1, 149406, Control_c, 0, 64, 99
1, 149421, Note_on_c, 0, 78, 59
1, 149435, Control_c, 0, 64, 101
1, 149440, Note_off_c, 0, 78, 63
1, 149480, Control_c, 0, 64, 103
1, 149485, Note_on_c, 0, 80, 56
1, 149506, Note_off_c, 0, 80, 61
1, 149530, Note_on_c, 0, 78, 58
1, 149563, Note_off_c, 0, 78, 62
1, 149569, Control_c, 0, 64, 105
1, 149585, Note_on_c, 0, 80, 62
1, 149617, Note_off_c, 0, 80, 65
1, 149639, Note_on_c, 0, 78, 68
1, 149643, Control_c, 0, 64, 108
1, 149670, Note_off_c, 0, 78, 65
1, 149673, Control_c, 0, 64, 111
1, 149687, Control_c, 0, 64, 113
1, 149693, Note_on_c, 0, 80, 63
1, 149702, Control_c, 0, 64, 115
1, 149710, Note_off_c, 0, 80, 67
1, 149717, Control_c, 0, 64, 121
1, 149732, Control_c, 0, 64, 127
1, 149755, Note_on_c, 0, 78, 44
1, 149774, Note_on_c, 0, 80, 79
1, 149778, Note_off_c, 0, 78, 58
1, 149833, Note_off_c, 0, 80, 64
1, 149838, Note_on_c, 0, 78, 71
1, 149843, Note_off_c, 0, 72, 59
1, 149863, Note_off_c, 0, 69, 58
1, 149867, Note_off_c, 0, 78, 64
1, 149873, Note_off_c, 0, 75, 56
1, 149897, Note_on_c, 0, 76, 56
1, 149947, Note_off_c, 0, 76, 59
1, 149962, Note_on_c, 0, 80, 68
1, 150020, Note_off_c, 0, 80, 63
1, 150049, Note_on_c, 0, 78, 68
1, 150066, Control_c, 0, 64, 121
1, 150081, Control_c, 0, 64, 101
1, 150088, Note_off_c, 0, 78, 59
1, 150096, Control_c, 0, 64, 85
1, 150110, Control_c, 0, 64, 70
1, 150121, Note_on_c, 0, 76, 75
1, 150125, Control_c, 0, 64, 0
1, 150131, Note_on_c, 0, 71, 45
1, 150138, Note_on_c, 0, 68, 42
1, 150214, Control_c, 0, 64, 30
1, 150229, Control_c, 0, 64, 72
1, 150244, Control_c, 0, 64, 80
1, 150258, Control_c, 0, 64, 87
1, 150273, Control_c, 0, 64, 94
1, 150274, Note_off_c, 0, 76, 62
1, 150288, Control_c, 0, 64, 98
1, 150294, Note_off_c, 0, 71, 62
1, 150303, Control_c, 0, 64, 102
1, 150317, Control_c, 0, 64, 107
1, 150332, Control_c, 0, 64, 110
1, 150339, Note_off_c, 0, 68, 63
1, 150347, Control_c, 0, 64, 113
1, 150377, Control_c, 0, 64, 115
1, 150406, Control_c, 0, 64, 118
1, 150614, Control_c, 0, 64, 115
1, 150629, Control_c, 0, 64, 112
1, 150644, Control_c, 0, 64, 107
1, 150658, Control_c, 0, 64, 101
1, 150673, Control_c, 0, 64, 94
1, 150695, Control_c, 0, 64, 86
1, 150707, Note_on_c, 0, 81, 76
1, 150710, Control_c, 0, 64, 77
1, 150719, Note_on_c, 0, 73, 54
1, 150725, Control_c, 0, 64, 71
1, 150729, Note_on_c, 0, 66, 38
1, 150731, Note_on_c, 0, 69, 59
1, 150732, Note_on_c, 0, 54, 32
1, 150740, Control_c, 0, 64, 66
1, 150755, Control_c, 0, 64, 61
1, 150770, Control_c, 0, 64, 0
1, 150978, Control_c, 0, 64, 65
1, 150993, Control_c, 0, 64, 70
1, 151007, Control_c, 0, 64, 73
1, 151022, Control_c, 0, 64, 76
1, 151037, Control_c, 0, 64, 80
1, 151052, Control_c, 0, 64, 84
1, 151068, Control_c, 0, 64, 88
1, 151082, Control_c, 0, 64, 90
1, 151097, Control_c, 0, 64, 93
1, 151112, Control_c, 0, 64, 94
1, 151127, Control_c, 0, 64, 96
1, 151156, Control_c, 0, 64, 98
1, 151189, Note_off_c, 0, 69, 57
1, 151259, Control_c, 0, 64, 100
1, 151290, Note_off_c, 0, 73, 58
1, 151566, Note_off_c, 0, 54, 35
1, 151683, Control_c, 0, 64, 98
1, 151687, Note_on_c, 0, 78, 55
1, 151696, Note_on_c, 0, 57, 32
1, 151700, Note_on_c, 0, 73, 42
1, 151701, Note_on_c, 0, 69, 42
1, 151789, Note_off_c, 0, 81, 44
1, 151802, Note_off_c, 0, 66, 61
1, 151816, Control_c, 0, 64, 96
1, 151890, Control_c, 0, 64, 95
1, 151898, Note_off_c, 0, 73, 58
1, 151907, Note_off_c, 0, 69, 49
1, 151920, Control_c, 0, 64, 95
1, 152022, Note_on_c, 0, 80, 56
1, 152047, Note_off_c, 0, 78, 46
1, 152053, Control_c, 0, 64, 94
1, 152127, Control_c, 0, 64, 94
1, 152171, Control_c, 0, 64, 93
1, 152194, Control_c, 0, 64, 93
1, 152209, Control_c, 0, 64, 91
1, 152224, Control_c, 0, 64, 87
1, 152238, Control_c, 0, 64, 82
1, 152239, Note_on_c, 0, 76, 50
1, 152243, Note_on_c, 0, 68, 43
1, 152251, Note_on_c, 0, 59, 31
1, 152253, Control_c, 0, 64, 75
1, 152254, Note_on_c, 0, 71, 43
1, 152268, Control_c, 0, 64, 70
1, 152282, Control_c, 0, 64, 65
1, 152297, Note_off_c, 0, 68, 0
1, 152297, Note_on_c, 0, 68, 17
1, 152297, Control_c, 0, 64, 48
1, 152312, Control_c, 0, 64, 0
1, 152342, Note_off_c, 0, 57, 42
1, 152372, Note_off_c, 0, 80, 37
1, 152579, Control_c, 0, 64, 63
1, 152594, Control_c, 0, 64, 68
1, 152609, Control_c, 0, 64, 71
1, 152624, Control_c, 0, 64, 73
1, 152639, Control_c, 0, 64, 76
1, 152654, Control_c, 0, 64, 80
1, 152669, Control_c, 0, 64, 83
1, 152684, Control_c, 0, 64, 87
1, 152699, Control_c, 0, 64, 90
1, 152712, Note_off_c, 0, 71, 62
1, 152713, Control_c, 0, 64, 92
1, 152728, Control_c, 0, 64, 94
1, 152743, Control_c, 0, 64, 96
1, 152773, Control_c, 0, 64, 98
1, 152832, Control_c, 0, 64, 100
1, 152836, Note_off_c, 0, 68, 55
1, 152873, Note_off_c, 0, 76, 60
1, 153342, Control_c, 0, 64, 98
1, 153357, Control_c, 0, 64, 95
1, 153372, Control_c, 0, 64, 91
1, 153387, Control_c, 0, 64, 84
1, 153393, Note_on_c, 0, 75, 40
1, 153396, Note_on_c, 0, 66, 22
1, 153400, Note_on_c, 0, 47, 25
1, 153402, Control_c, 0, 64, 76
1, 153417, Control_c, 0, 64, 68
1, 153420, Note_on_c, 0, 69, 8
1, 153432, Control_c, 0, 64, 60
1, 153447, Control_c, 0, 64, 0
1, 153456, Note_off_c, 0, 66, 0
1, 153456, Note_on_c, 0, 66, 10
1, 153595, Control_c, 0, 64, 64
1, 153609, Control_c, 0, 64, 68
1, 153624, Control_c, 0, 64, 71
1, 153639, Control_c, 0, 64, 75
1, 153653, Control_c, 0, 64, 78
1, 153657, Note_off_c, 0, 59, 40
1, 153676, Control_c, 0, 64, 79
1, 153691, Control_c, 0, 64, 80
1, 153702, Note_off_c, 0, 47, 49
1, 153706, Control_c, 0, 64, 81
1, 153721, Control_c, 0, 64, 82
1, 153735, Control_c, 0, 64, 82
1, 153993, Note_off_c, 0, 66, 52
1, 154014, Note_off_c, 0, 69, 39
1, 154031, Note_off_c, 0, 75, 36
1, 154092, Control_c, 0, 64, 81
1, 154107, Control_c, 0, 64, 80
1, 154122, Control_c, 0, 64, 78
1, 154137, Control_c, 0, 64, 76
1, 154151, Control_c, 0, 64, 73
1, 154166, Control_c, 0, 64, 70
1, 154181, Control_c, 0, 64, 68
1, 154196, Control_c, 0, 64, 66
1, 154211, Control_c, 0, 64, 64
1, 154225, Control_c, 0, 64, 58
1, 154240, Control_c, 0, 64, 0
1, 154306, Note_on_c, 0, 47, 88
1, 154672, Note_on_c, 0, 43, 83
1, 154701, Note_off_c, 0, 47, 61
1, 154824, Note_on_c, 0, 40, 89
1, 154832, Note_on_c, 0, 71, 79
1, 154838, Note_off_c, 0, 43, 61
1, 154940, Note_off_c, 0, 71, 63
1, 154958, Note_on_c, 0, 67, 65
1, 155015, Note_off_c, 0, 67, 61
1, 155019, Control_c, 0, 64, 51
1, 155033, Control_c, 0, 64, 66
1, 155036, Note_on_c, 0, 71, 71
1, 155048, Control_c, 0, 64, 69
1, 155063, Control_c, 0, 64, 72
1, 155068, Note_off_c, 0, 71, 63
1, 155078, Control_c, 0, 64, 75
1, 155093, Control_c, 0, 64, 79
1, 155104, Note_on_c, 0, 67, 67
1, 155108, Control_c, 0, 64, 82
1, 155123, Control_c, 0, 64, 85
1, 155138, Control_c, 0, 64, 87
1, 155143, Note_off_c, 0, 67, 61
1, 155153, Control_c, 0, 64, 90
1, 155155, Note_on_c, 0, 71, 70
1, 155168, Control_c, 0, 64, 93
1, 155190, Control_c, 0, 64, 95
1, 155198, Note_off_c, 0, 71, 63
1, 155205, Control_c, 0, 64, 97
1, 155220, Control_c, 0, 64, 99
1, 155231, Note_on_c, 0, 67, 65
1, 155249, Control_c, 0, 64, 102
1, 155269, Note_off_c, 0, 67, 61
1, 155279, Control_c, 0, 64, 105
1, 155285, Note_on_c, 0, 71, 74
1, 155312, Note_off_c, 0, 71, 66
1, 155323, Control_c, 0, 64, 107
1, 155344, Note_on_c, 0, 67, 70
1, 155353, Control_c, 0, 64, 110
1, 155368, Control_c, 0, 64, 112
1, 155382, Note_off_c, 0, 67, 61
1, 155391, Note_on_c, 0, 71, 63
1, 155397, Control_c, 0, 64, 115
1, 155426, Control_c, 0, 64, 117
1, 155435, Note_off_c, 0, 71, 62
1, 155456, Control_c, 0, 64, 119
1, 155461, Note_on_c, 0, 67, 68
1, 155486, Control_c, 0, 64, 121
1, 155498, Note_off_c, 0, 67, 62
1, 155516, Control_c, 0, 64, 127
1, 155519, Note_on_c, 0, 71, 70
1, 155546, Note_off_c, 0, 71, 65
1, 155566, Note_on_c, 0, 67, 65
1, 155613, Note_off_c, 0, 67, 60
1, 155618, Note_on_c, 0, 71, 72
1, 155665, Note_off_c, 0, 71, 61
1, 155685, Note_on_c, 0, 67, 62
1, 155725, Note_off_c, 0, 67, 62
1, 155741, Note_on_c, 0, 71, 74
1, 155763, Note_off_c, 0, 71, 66
1, 155796, Note_on_c, 0, 67, 72
1, 155840, Note_off_c, 0, 67, 53
1, 155846, Note_on_c, 0, 71, 65
1, 155885, Note_off_c, 0, 71, 63
1, 155906, Note_on_c, 0, 67, 65
1, 155956, Note_off_c, 0, 67, 60
1, 155968, Note_on_c, 0, 43, 87
1, 155976, Note_on_c, 0, 71, 73
1, 156001, Note_off_c, 0, 40, 63
1, 156001, Note_off_c, 0, 71, 67
1, 156028, Note_on_c, 0, 67, 69
1, 156070, Note_off_c, 0, 67, 56
1, 156083, Note_on_c, 0, 71, 66
1, 156126, Note_off_c, 0, 71, 62
1, 156146, Note_on_c, 0, 67, 63
1, 156188, Note_off_c, 0, 67, 56
1, 156206, Note_on_c, 0, 71, 73
1, 156236, Note_off_c, 0, 71, 59
1, 156255, Note_on_c, 0, 47, 81
1, 156261, Note_off_c, 0, 43, 59
1, 156274, Note_on_c, 0, 67, 62
1, 156294, Control_c, 0, 64, 108
1, 156309, Control_c, 0, 64, 83
1, 156312, Note_off_c, 0, 67, 62
1, 156320, Note_on_c, 0, 71, 72
1, 156323, Note_off_c, 0, 47, 62
1, 156323, Control_c, 0, 64, 0
1, 156325, Note_on_c, 0, 52, 88
1, 156371, Note_off_c, 0, 71, 61
1, 156383, Note_on_c, 0, 67, 66
1, 156428, Control_c, 0, 64, 66
1, 156443, Control_c, 0, 64, 73
1, 156446, Note_off_c, 0, 67, 63
1, 156453, Note_on_c, 0, 71, 71
1, 156458, Control_c, 0, 64, 78
1, 156472, Control_c, 0, 64, 83
1, 156482, Note_off_c, 0, 71, 63
1, 156487, Control_c, 0, 64, 88
1, 156502, Control_c, 0, 64, 91
1, 156516, Note_on_c, 0, 67, 63
1, 156517, Control_c, 0, 64, 95
1, 156532, Control_c, 0, 64, 98
1, 156547, Control_c, 0, 64, 101
1, 156562, Control_c, 0, 64, 105
1, 156562, Note_on_c, 0, 71, 63
1, 156562, Note_off_c, 0, 67, 61
1, 156577, Control_c, 0, 64, 107
1, 156592, Control_c, 0, 64, 110
1, 156614, Note_off_c, 0, 71, 61
1, 156621, Control_c, 0, 64, 112
1, 156633, Note_on_c, 0, 67, 64
1, 156636, Control_c, 0, 64, 114
1, 156651, Control_c, 0, 64, 117
1, 156666, Control_c, 0, 64, 122
1, 156687, Control_c, 0, 64, 124
1, 156691, Note_off_c, 0, 52, 57
1, 156694, Note_on_c, 0, 55, 84
1, 156695, Note_off_c, 0, 67, 60
1, 156702, Control_c, 0, 64, 127
1, 156704, Note_on_c, 0, 71, 75
1, 156746, Note_off_c, 0, 71, 61
1, 156763, Note_on_c, 0, 67, 61
1, 156824, Note_off_c, 0, 67, 62
1, 156830, Note_on_c, 0, 71, 75
1, 156867, Note_off_c, 0, 71, 58
1, 156891, Note_on_c, 0, 67, 61
1, 156940, Note_off_c, 0, 67, 62
1, 156947, Note_on_c, 0, 71, 78
1, 156979, Note_on_c, 0, 59, 79
1, 156983, Note_off_c, 0, 55, 60
1, 156994, Note_off_c, 0, 71, 58
1, 157015, Note_on_c, 0, 67, 65
1, 157045, Note_off_c, 0, 59, 62
1, 157057, Control_c, 0, 64, 94
1, 157058, Note_on_c, 0, 64, 90
1, 157065, Note_off_c, 0, 67, 61
1, 157069, Note_on_c, 0, 71, 81
1, 157072, Control_c, 0, 64, 71
1, 157087, Control_c, 0, 64, 0
1, 157113, Note_off_c, 0, 71, 59
1, 157133, Note_on_c, 0, 67, 65
1, 157146, Control_c, 0, 64, 67
1, 157161, Control_c, 0, 64, 75
1, 157176, Control_c, 0, 64, 82
1, 157188, Note_off_c, 0, 67, 62
1, 157191, Control_c, 0, 64, 90
1, 157192, Note_on_c, 0, 71, 77
1, 157206, Control_c, 0, 64, 94
1, 157221, Control_c, 0, 64, 97
1, 157233, Note_off_c, 0, 71, 63
1, 157236, Control_c, 0, 64, 101
1, 157250, Control_c, 0, 64, 105
1, 157254, Note_on_c, 0, 67, 63
1, 157265, Control_c, 0, 64, 109
1, 157280, Control_c, 0, 64, 113
1, 157295, Control_c, 0, 64, 115
1, 157295, Note_off_c, 0, 64, 55
1, 157301, Note_off_c, 0, 67, 60
1, 157310, Note_on_c, 0, 71, 76
1, 157325, Control_c, 0, 64, 119
1, 157340, Control_c, 0, 64, 127
1, 157359, Note_off_c, 0, 71, 60
1, 157379, Note_on_c, 0, 67, 67
1, 157434, Note_off_c, 0, 67, 60
1, 157441, Note_on_c, 0, 64, 85
1, 157443, Note_on_c, 0, 71, 78
1, 157493, Note_off_c, 0, 71, 60
1, 157507, Note_on_c, 0, 67, 68
1, 157556, Note_off_c, 0, 64, 63
1, 157565, Note_off_c, 0, 67, 61
1, 157570, Note_on_c, 0, 71, 74
1, 157617, Note_off_c, 0, 71, 59
1, 157638, Note_on_c, 0, 67, 66
1, 157694, Note_off_c, 0, 67, 61
1, 157709, Note_on_c, 0, 71, 73
1, 157751, Note_off_c, 0, 71, 62
1, 157776, Note_on_c, 0, 67, 80
1, 157818, Note_off_c, 0, 67, 62
1, 157822, Control_c, 0, 64, 121
1, 157836, Control_c, 0, 64, 85
1, 157851, Control_c, 0, 64, 0
1, 157866, Note_on_c, 0, 65, 80
1, 157940, Control_c, 0, 64, 64
1, 157945, Note_off_c, 0, 65, 65
1, 157948, Note_on_c, 0, 67, 70
1, 157954, Control_c, 0, 64, 75
1, 157969, Control_c, 0, 64, 83
1, 157984, Control_c, 0, 64, 91
1, 157987, Note_off_c, 0, 67, 64
1, 158000, Control_c, 0, 64, 96
1, 158010, Note_on_c, 0, 71, 76
1, 158015, Control_c, 0, 64, 99
1, 158030, Control_c, 0, 64, 101
1, 158044, Control_c, 0, 64, 104
1, 158059, Control_c, 0, 64, 106
1, 158066, Note_off_c, 0, 71, 60
1, 158067, Note_on_c, 0, 67, 70
1, 158074, Control_c, 0, 64, 109
1, 158089, Control_c, 0, 64, 111
1, 158118, Control_c, 0, 64, 113
1, 158128, Note_off_c, 0, 67, 61
1, 158130, Note_on_c, 0, 65, 76
1, 158148, Control_c, 0, 64, 117
1, 158163, Control_c, 0, 64, 121
1, 158186, Control_c, 0, 64, 127
1, 158201, Note_off_c, 0, 65, 64
1, 158203, Note_on_c, 0, 62, 74
1, 158274, Note_on_c, 0, 65, 65
1, 158280, Note_off_c, 0, 62, 63
1, 158312, Note_off_c, 0, 65, 65
1, 158336, Note_on_c, 0, 67, 74
1, 158390, Note_off_c, 0, 67, 62
1, 158397, Note_on_c, 0, 65, 73
1, 158461, Note_off_c, 0, 65, 65
1, 158465, Note_on_c, 0, 62, 65
1, 158514, Note_off_c, 0, 62, 64
1, 158520, Note_on_c, 0, 59, 71
1, 158583, Note_on_c, 0, 62, 75
1, 158586, Note_off_c, 0, 59, 61
1, 158636, Note_off_c, 0, 62, 63
1, 158654, Note_on_c, 0, 65, 70
1, 158708, Note_off_c, 0, 65, 63
1, 158711, Note_on_c, 0, 62, 74
1, 158766, Note_off_c, 0, 62, 63
1, 158769, Note_on_c, 0, 59, 64
1, 158829, Note_off_c, 0, 59, 61
1, 158832, Note_on_c, 0, 55, 70
1, 158844, Note_on_c, 0, 71, 86
1, 158915, Note_off_c, 0, 55, 60
1, 158929, Note_on_c, 0, 59, 67
1, 158958, Note_off_c, 0, 59, 63
1, 158992, Note_on_c, 0, 62, 67
1, 159033, Note_on_c, 0, 59, 67
1, 159038, Note_off_c, 0, 62, 59
1, 159100, Note_off_c, 0, 71, 61
1, 159102, Note_on_c, 0, 74, 82
1, 159121, Note_on_c, 0, 55, 56
1, 159124, Note_off_c, 0, 59, 60
1, 159154, Note_on_c, 0, 53, 76
1, 159155, Note_off_c, 0, 55, 62
1, 159182, Note_on_c, 0, 79, 85
1, 159194, Note_off_c, 0, 74, 61
1, 159234, Note_off_c, 0, 53, 63
1, 159240, Note_on_c, 0, 55, 75
1, 159289, Note_off_c, 0, 55, 61
1, 159321, Note_on_c, 0, 59, 65
1, 159367, Note_off_c, 0, 59, 60
1, 159371, Note_on_c, 0, 55, 78
1, 159434, Note_off_c, 0, 55, 62
1, 159435, Note_on_c, 0, 53, 76
1, 159495, Note_off_c, 0, 53, 62
1, 159498, Note_on_c, 0, 50, 78
1, 159527, Note_on_c, 0, 83, 95
1, 159546, Note_off_c, 0, 79, 58
1, 159578, Note_on_c, 0, 53, 74
1, 159579, Note_off_c, 0, 50, 62
1, 159611, Note_off_c, 0, 53, 66
1, 159642, Note_on_c, 0, 55, 73
1, 159699, Note_on_c, 0, 53, 78
1, 159704, Note_off_c, 0, 55, 61
1, 159769, Note_on_c, 0, 50, 61
1, 159769, Note_off_c, 0, 53, 62
1, 159776, Note_on_c, 0, 86, 86
1, 159799, Note_off_c, 0, 83, 61
1, 159820, Note_off_c, 0, 50, 62
1, 159825, Note_on_c, 0, 47, 71
1, 159856, Note_off_c, 0, 86, 58
1, 159860, Note_on_c, 0, 91, 102
1, 159863, Note_on_c, 0, 79, 90
1, 159912, Note_on_c, 0, 50, 77
1, 159915, Note_off_c, 0, 47, 60
1, 159943, Note_off_c, 0, 50, 66
1, 159978, Note_on_c, 0, 53, 67
1, 160017, Note_on_c, 0, 50, 70
1, 160017, Note_off_c, 0, 53, 62
1, 160073, Note_on_c, 0, 47, 63
1, 160089, Note_off_c, 0, 50, 63
1, 160108, Note_off_c, 0, 47, 62
1, 160111, Note_off_c, 0, 91, 60
1, 160113, Note_on_c, 0, 43, 75
1, 160139, Note_off_c, 0, 79, 57
1, 160186, Note_off_c, 0, 43, 61
1, 160199, Note_on_c, 0, 91, 96
1, 160202, Note_on_c, 0, 79, 88
1, 160203, Note_on_c, 0, 41, 75
1, 160214, Note_on_c, 0, 43, 62
1, 160295, Note_off_c, 0, 41, 61
1, 160331, Note_off_c, 0, 43, 61
1, 160340, Note_off_c, 0, 79, 59
1, 160355, Note_on_c, 0, 47, 81
1, 160419, Note_on_c, 0, 43, 82
1, 160419, Note_off_c, 0, 47, 59
1, 160465, Note_off_c, 0, 91, 47
1, 160494, Note_on_c, 0, 41, 83
1, 160506, Note_off_c, 0, 43, 60
1, 160561, Note_on_c, 0, 38, 82
1, 160577, Note_off_c, 0, 41, 60
1, 160642, Note_off_c, 0, 38, 60
1, 160703, Note_on_c, 0, 36, 91
1, 160712, Note_on_c, 0, 79, 82
1, 160712, Note_on_c, 0, 91, 91
1, 160726, Control_c, 0, 64, 104
1, 160741, Control_c, 0, 64, 78
1, 160756, Control_c, 0, 64, 0
1, 160963, Control_c, 0, 64, 69
1, 160978, Control_c, 0, 64, 74
1, 160993, Control_c, 0, 64, 80
1, 161000, Note_on_c, 0, 87, 71
1, 161002, Note_off_c, 0, 91, 63
1, 161008, Control_c, 0, 64, 87
1, 161023, Control_c, 0, 64, 95
1, 161037, Control_c, 0, 64, 103
1, 161052, Control_c, 0, 64, 110
1, 161067, Control_c, 0, 64, 117
1, 161081, Note_off_c, 0, 79, 61
1, 161082, Control_c, 0, 64, 127
1, 161095, Note_off_c, 0, 87, 66
1, 161096, Note_on_c, 0, 91, 84
1, 161180, Note_off_c, 0, 91, 62
1, 161186, Note_on_c, 0, 87, 72
1, 161242, Note_off_c, 0, 87, 65
1, 161243, Note_on_c, 0, 84, 75
1, 161284, Note_off_c, 0, 84, 61
1, 161293, Note_on_c, 0, 79, 72
1, 161359, Note_off_c, 0, 79, 63
1, 161365, Note_on_c, 0, 84, 70
1, 161393, Note_off_c, 0, 84, 65
1, 161406, Note_on_c, 0, 87, 77
1, 161466, Note_off_c, 0, 87, 66
1, 161469, Note_on_c, 0, 84, 78
1, 161505, Note_off_c, 0, 84, 58
1, 161531, Note_on_c, 0, 79, 69
1, 161597, Note_off_c, 0, 79, 61
1, 161603, Note_on_c, 0, 75, 70
1, 161656, Note_on_c, 0, 79, 71
1, 161661, Note_off_c, 0, 75, 61
1, 161700, Note_off_c, 0, 79, 63
1, 161721, Note_on_c, 0, 84, 72
1, 161777, Note_off_c, 0, 84, 61
1, 161783, Note_on_c, 0, 79, 73
1, 161832, Note_off_c, 0, 79, 58
1, 161843, Note_on_c, 0, 75, 73
1, 161880, Note_off_c, 0, 75, 61
1, 161902, Note_on_c, 0, 72, 71
1, 161909, Note_on_c, 0, 39, 87
1, 161956, Note_off_c, 0, 36, 61
1, 161987, Note_on_c, 0, 75, 76
1, 161992, Note_off_c, 0, 72, 59
1, 162059, Note_off_c, 0, 75, 62
1, 162065, Note_on_c, 0, 79, 72
1, 162157, Note_on_c, 0, 75, 75
1, 162158, Note_off_c, 0, 79, 59
1, 162193, Note_on_c, 0, 43, 79
1, 162207, Note_on_c, 0, 72, 72
1, 162214, Note_off_c, 0, 39, 61
1, 162216, Note_off_c, 0, 75, 59
1, 162225, Control_c, 0, 64, 90
1, 162240, Control_c, 0, 64, 67
1, 162255, Control_c, 0, 64, 0
1, 162262, Note_on_c, 0, 48, 86
1, 162265, Note_off_c, 0, 43, 63
1, 162269, Note_off_c, 0, 72, 61
1, 162279, Note_on_c, 0, 67, 75
1, 162343, Control_c, 0, 64, 69
1, 162358, Control_c, 0, 64, 76
1, 162361, Note_off_c, 0, 67, 63
1, 162369, Note_on_c, 0, 72, 67
1, 162373, Control_c, 0, 64, 81
1, 162388, Control_c, 0, 64, 86
1, 162403, Control_c, 0, 64, 90
1, 162412, Note_off_c, 0, 72, 58
1, 162417, Control_c, 0, 64, 94
1, 162419, Note_on_c, 0, 75, 77
1, 162432, Control_c, 0, 64, 98
1, 162447, Control_c, 0, 64, 103
1, 162462, Control_c, 0, 64, 107
1, 162477, Control_c, 0, 64, 110
1, 162478, Note_off_c, 0, 75, 63
1, 162488, Note_on_c, 0, 72, 76
1, 162491, Control_c, 0, 64, 113
1, 162506, Control_c, 0, 64, 120
1, 162513, Note_off_c, 0, 72, 64
1, 162521, Control_c, 0, 64, 127
1, 162543, Note_on_c, 0, 67, 69
1, 162594, Note_on_c, 0, 51, 86
1, 162603, Note_off_c, 0, 48, 62
1, 162606, Note_off_c, 0, 67, 62
1, 162610, Note_on_c, 0, 63, 73
1, 162671, Note_off_c, 0, 63, 56
1, 162687, Note_on_c, 0, 67, 77
1, 162739, Note_off_c, 0, 67, 62
1, 162751, Note_on_c, 0, 72, 70
1, 162800, Note_on_c, 0, 67, 66
1, 162808, Note_off_c, 0, 72, 60
1, 162864, Note_on_c, 0, 63, 81
1, 162869, Note_off_c, 0, 67, 63
1, 162871, Note_on_c, 0, 55, 77
1, 162890, Note_off_c, 0, 51, 61
1, 162892, Note_off_c, 0, 63, 65
1, 162929, Control_c, 0, 64, 98
1, 162942, Note_off_c, 0, 55, 62
1, 162944, Control_c, 0, 64, 73
1, 162945, Note_on_c, 0, 60, 93
1, 162950, Note_on_c, 0, 63, 79
1, 162959, Control_c, 0, 64, 0
1, 163027, Note_on_c, 0, 67, 76
1, 163033, Control_c, 0, 64, 68
1, 163041, Note_off_c, 0, 63, 61
1, 163048, Control_c, 0, 64, 74
1, 163063, Control_c, 0, 64, 80
1, 163078, Control_c, 0, 64, 86
1, 163091, Note_off_c, 0, 67, 63
1, 163093, Control_c, 0, 64, 91
1, 163097, Note_on_c, 0, 72, 81
1, 163108, Control_c, 0, 64, 94
1, 163122, Control_c, 0, 64, 97
1, 163137, Control_c, 0, 64, 102
1, 163152, Control_c, 0, 64, 109
1, 163156, Note_on_c, 0, 67, 71
1, 163163, Note_off_c, 0, 72, 61
1, 163166, Control_c, 0, 64, 117
1, 163181, Control_c, 0, 64, 127
1, 163185, Note_off_c, 0, 60, 57
1, 163211, Note_on_c, 0, 63, 77
1, 163217, Note_off_c, 0, 67, 63
1, 163235, Note_off_c, 0, 63, 66
1, 163285, Note_on_c, 0, 60, 88
1, 163285, Note_on_c, 0, 63, 76
1, 163374, Note_on_c, 0, 67, 77
1, 163386, Note_off_c, 0, 63, 61
1, 163448, Note_off_c, 0, 60, 58
1, 163453, Note_on_c, 0, 72, 82
1, 163458, Note_off_c, 0, 67, 63
1, 163516, Note_on_c, 0, 67, 66
1, 163538, Note_off_c, 0, 72, 58
1, 163608, Note_off_c, 0, 67, 62
1, 163610, Note_on_c, 0, 63, 83
1, 163680, Note_off_c, 0, 63, 60
1, 163708, Control_c, 0, 64, 108
1, 163723, Control_c, 0, 64, 81
1, 163735, Note_on_c, 0, 61, 83
1, 163737, Control_c, 0, 64, 0
1, 163829, Note_on_c, 0, 63, 71
1, 163841, Control_c, 0, 64, 71
1, 163855, Note_off_c, 0, 61, 59
1, 163856, Control_c, 0, 64, 82
1, 163870, Control_c, 0, 64, 94
1, 163885, Control_c, 0, 64, 99
1, 163887, Note_off_c, 0, 63, 62
1, 163901, Note_on_c, 0, 67, 74
1, 163914, Control_c, 0, 64, 102
1, 163929, Control_c, 0, 64, 105
1, 163944, Control_c, 0, 64, 107
1, 163947, Note_off_c, 0, 67, 64
1, 163965, Note_on_c, 0, 63, 65
1, 164023, Note_off_c, 0, 63, 63
1, 164026, Note_on_c, 0, 61, 71
1, 164077, Control_c, 0, 64, 109
1, 164083, Note_on_c, 0, 58, 63
1, 164089, Note_off_c, 0, 61, 60
1, 164124, Poly_aftertouch_c, 0, 61, 0
1, 164133, Note_on_c, 0, 61, 58
1, 164136, Control_c, 0, 64, 111
1, 164144, Note_off_c, 0, 58, 59
1, 164174, Control_c, 0, 64, 113
1, 164188, Note_off_c, 0, 61, 60
1, 164189, Control_c, 0, 64, 115
1, 164205, Note_on_c, 0, 63, 76
1, 164218, Control_c, 0, 64, 117
1, 164263, Control_c, 0, 64, 120
1, 164267, Note_off_c, 0, 63, 60
1, 164279, Note_on_c, 0, 61, 60
1, 164292, Control_c, 0, 64, 122
1, 164321, Note_on_c, 0, 58, 68
1, 164337, Note_off_c, 0, 61, 58
1, 164351, Control_c, 0, 64, 127
1, 164385, Note_off_c, 0, 58, 62
1, 164387, Note_on_c, 0, 55, 65
1, 164449, Note_on_c, 0, 58, 67
1, 164449, Note_off_c, 0, 55, 59
1, 164496, Note_off_c, 0, 58, 62
1, 164523, Note_on_c, 0, 61, 77
1, 164588, Note_off_c, 0, 61, 59
1, 164592, Note_on_c, 0, 58, 56
1, 164645, Note_on_c, 0, 55, 63
1, 164676, Note_off_c, 0, 58, 61
1, 164697, Note_off_c, 0, 55, 60
1, 164709, Note_on_c, 0, 51, 66
1, 164709, Note_on_c, 0, 67, 81
1, 164786, Note_off_c, 0, 51, 60
1, 164796, Note_on_c, 0, 55, 69
1, 164831, Note_off_c, 0, 55, 61
1, 164861, Note_on_c, 0, 58, 71
1, 164922, Note_on_c, 0, 55, 63
1, 164924, Note_off_c, 0, 58, 56
1, 164950, Note_on_c, 0, 70, 79
1, 164985, Note_off_c, 0, 55, 60
1, 164989, Note_on_c, 0, 51, 68
1, 165000, Note_off_c, 0, 67, 57
1, 165043, Note_on_c, 0, 75, 88
1, 165051, Note_on_c, 0, 49, 73
1, 165052, Note_off_c, 0, 51, 59
1, 165072, Note_off_c, 0, 70, 62
1, 165114, Note_off_c, 0, 49, 64
1, 165134, Note_on_c, 0, 51, 74
1, 165192, Note_off_c, 0, 51, 59
1, 165194, Note_off_c, 0, 75, 63
1, 165202, Note_on_c, 0, 55, 69
1, 165252, Note_on_c, 0, 51, 58
1, 165252, Note_off_c, 0, 55, 57
1, 165302, Note_on_c, 0, 49, 75
1, 165318, Note_off_c, 0, 51, 59
1, 165352, Note_off_c, 0, 49, 59
1, 165361, Note_on_c, 0, 46, 76
1, 165373, Note_on_c, 0, 79, 89
1, 165444, Note_on_c, 0, 49, 81
1, 165444, Note_off_c, 0, 46, 63
1, 165499, Note_off_c, 0, 49, 62
1, 165510, Note_on_c, 0, 51, 78
1, 165592, Note_on_c, 0, 46, 53
1, 165600, Note_off_c, 0, 51, 62
1, 165603, Note_on_c, 0, 49, 72
1, 165613, Note_on_c, 0, 82, 84
1, 165616, Note_off_c, 0, 79, 64
1, 165624, Note_off_c, 0, 49, 69
1, 165644, Note_off_c, 0, 46, 60
1, 165666, Note_on_c, 0, 43, 73
1, 165677, Note_off_c, 0, 82, 62
1, 165716, Note_on_c, 0, 87, 100
1, 165718, Note_on_c, 0, 75, 101
1, 165751, Note_on_c, 0, 46, 75
1, 165751, Note_off_c, 0, 43, 60
1, 165803, Note_off_c, 0, 46, 61
1, 165810, Note_on_c, 0, 49, 72
1, 165874, Note_off_c, 0, 49, 62
1, 165892, Note_on_c, 0, 46, 60
1, 165915, Note_off_c, 0, 46, 62
1, 165956, Note_off_c, 0, 75, 55
1, 165957, Note_on_c, 0, 43, 72
1, 165982, Note_on_c, 0, 45, 26
1, 166003, Note_off_c, 0, 43, 53
1, 166008, Note_off_c, 0, 87, 62
1, 166021, Note_off_c, 0, 45, 53
1, 166024, Note_on_c, 0, 39, 77
1, 166079, Note_on_c, 0, 87, 94
1, 166084, Note_on_c, 0, 75, 86
1, 166093, Note_on_c, 0, 37, 77
1, 166104, Note_off_c, 0, 39, 61
1, 166166, Note_on_c, 0, 39, 74
1, 166190, Note_off_c, 0, 37, 61
1, 166202, Note_off_c, 0, 75, 61
1, 166232, Note_on_c, 0, 43, 85
1, 166232, Note_off_c, 0, 39, 62
1, 166292, Note_on_c, 0, 39, 74
1, 166308, Note_off_c, 0, 43, 53
1, 166327, Note_off_c, 0, 87, 59
1, 166370, Note_on_c, 0, 37, 76
1, 166426, Note_off_c, 0, 39, 61
1, 166461, Note_on_c, 0, 34, 86
1, 166463, Note_off_c, 0, 37, 61
1, 166546, Note_off_c, 0, 34, 61
1, 166559, Poly_aftertouch_c, 0, 33, 127
1, 166584, Control_c, 0, 64, 105
1, 166587, Poly_aftertouch_c, 0, 33, 0
1, 166599, Note_on_c, 0, 32, 95
1, 166599, Control_c, 0, 64, 79
1, 166603, Note_on_c, 0, 87, 89
1, 166613, Control_c, 0, 64, 0
1, 166650, Note_on_c, 0, 31, 31
1, 166689, Note_off_c, 0, 31, 31
1, 166807, Control_c, 0, 64, 61
1, 166811, Note_on_c, 0, 92, 77
1, 166822, Control_c, 0, 64, 83
1, 166835, Note_off_c, 0, 87, 61
1, 166837, Control_c, 0, 64, 87
1, 166852, Control_c, 0, 64, 94
1, 166867, Control_c, 0, 64, 97
1, 166881, Control_c, 0, 64, 100
1, 166891, Note_on_c, 0, 96, 81
1, 166895, Note_off_c, 0, 92, 63
1, 166896, Control_c, 0, 64, 107
1, 166911, Control_c, 0, 64, 112
1, 166926, Control_c, 0, 64, 117
1, 166940, Control_c, 0, 64, 119
1, 166955, Control_c, 0, 64, 122
1, 166960, Note_on_c, 0, 92, 74
1, 166963, Note_off_c, 0, 96, 64
1, 166970, Control_c, 0, 64, 127
1, 167015, Note_off_c, 0, 92, 60
1, 167017, Note_on_c, 0, 87, 83
1, 167062, Note_off_c, 0, 87, 66
1, 167073, Note_on_c, 0, 84, 75
1, 167132, Note_off_c, 0, 84, 64
1, 167133, Note_on_c, 0, 87, 79
1, 167189, Note_off_c, 0, 87, 63
1, 167192, Note_on_c, 0, 92, 80
1, 167246, Note_off_c, 0, 92, 61
1, 167247, Note_on_c, 0, 87, 69
1, 167280, Note_off_c, 0, 87, 65
1, 167295, Note_on_c, 0, 84, 70
1, 167328, Note_off_c, 0, 84, 58
1, 167361, Note_on_c, 0, 80, 78
1, 167415, Note_off_c, 0, 80, 63
1, 167420, Note_on_c, 0, 84, 72
1, 167476, Note_off_c, 0, 84, 63
1, 167479, Note_on_c, 0, 87, 73
1, 167536, Note_on_c, 0, 84, 63
1, 167552, Note_off_c, 0, 87, 60
1, 167602, Note_on_c, 0, 80, 75
1, 167609, Note_off_c, 0, 84, 62
1, 167654, Note_off_c, 0, 80, 62
1, 167672, Note_on_c, 0, 75, 76
1, 167686, Note_on_c, 0, 36, 87
1, 167713, Note_off_c, 0, 32, 62
1, 167718, Note_off_c, 0, 75, 63
1, 167755, Note_on_c, 0, 80, 77
1, 167808, Note_off_c, 0, 80, 64
1, 167812, Note_on_c, 0, 84, 73
1, 167884, Note_on_c, 0, 80, 75
1, 167888, Note_off_c, 0, 84, 59
1, 167937, Note_on_c, 0, 39, 78
1, 167940, Note_off_c, 0, 36, 63
1, 167952, Note_on_c, 0, 75, 76
1, 167955, Note_off_c, 0, 80, 60
1, 168003, Note_off_c, 0, 75, 62
1, 168007, Control_c, 0, 64, 101
1, 168009, Note_off_c, 0, 39, 61
1, 168012, Note_on_c, 0, 44, 88
1, 168015, Note_on_c, 0, 72, 74
1, 168022, Control_c, 0, 64, 74
1, 168036, Control_c, 0, 64, 0
1, 168097, Note_on_c, 0, 75, 78
1, 168097, Note_off_c, 0, 72, 61
1, 168110, Control_c, 0, 64, 65
1, 168125, Control_c, 0, 64, 76
1, 168139, Note_off_c, 0, 44, 64
1, 168140, Control_c, 0, 64, 83
1, 168150, Note_off_c, 0, 75, 63
1, 168153, Note_on_c, 0, 80, 74
1, 168155, Control_c, 0, 64, 90
1, 168170, Control_c, 0, 64, 94
1, 168184, Control_c, 0, 64, 97
1, 168199, Control_c, 0, 64, 100
1, 168214, Control_c, 0, 64, 102
1, 168226, Note_on_c, 0, 75, 77
1, 168229, Note_off_c, 0, 80, 61
1, 168244, Control_c, 0, 64, 105
1, 168264, Note_off_c, 0, 75, 62
1, 168274, Control_c, 0, 64, 108
1, 168287, Note_on_c, 0, 72, 70
1, 168304, Control_c, 0, 64, 110
1, 168333, Control_c, 0, 64, 112
1, 168343, Note_off_c, 0, 72, 51
1, 168348, Note_on_c, 0, 48, 78
1, 168348, Control_c, 0, 64, 115
1, 168352, Note_on_c, 0, 68, 78
1, 168363, Control_c, 0, 64, 117
1, 168393, Control_c, 0, 64, 119
1, 168410, Note_off_c, 0, 68, 64
1, 168423, Control_c, 0, 64, 121
1, 168424, Note_on_c, 0, 72, 70
1, 168476, Note_off_c, 0, 72, 61
1, 168482, Note_on_c, 0, 75, 78
1, 168483, Control_c, 0, 64, 124
1, 168497, Control_c, 0, 64, 127
1, 168560, Note_on_c, 0, 72, 70
1, 168566, Note_off_c, 0, 75, 60
1, 168591, Note_on_c, 0, 51, 73
1, 168611, Note_on_c, 0, 68, 74
1, 168613, Note_off_c, 0, 72, 59
1, 168619, Note_off_c, 0, 48, 61
1, 168648, Note_off_c, 0, 68, 62
1, 168681, Note_on_c, 0, 56, 87
1, 168682, Note_off_c, 0, 51, 61
1, 168684, Note_on_c, 0, 63, 76
1, 168734, Note_off_c, 0, 63, 63
1, 168766, Note_on_c, 0, 68, 69
1, 168835, Note_off_c, 0, 68, 63
1, 168836, Note_on_c, 0, 72, 75
1, 168915, Note_on_c, 0, 68, 75
1, 168924, Note_off_c, 0, 72, 59
1, 168957, Note_off_c, 0, 56, 60
1, 168962, Note_on_c, 0, 63, 78
1, 168978, Note_off_c, 0, 68, 62
1, 169008, Control_c, 0, 64, 113
1, 169019, Note_off_c, 0, 63, 63
1, 169023, Control_c, 0, 64, 100
1, 169032, Note_on_c, 0, 60, 74
1, 169033, Note_on_c, 0, 56, 86
1, 169037, Control_c, 0, 64, 91
1, 169052, Control_c, 0, 64, 87
1, 169067, Control_c, 0, 64, 87
1, 169082, Control_c, 0, 64, 87
1, 169097, Control_c, 0, 64, 88
1, 169111, Control_c, 0, 64, 90
1, 169115, Note_on_c, 0, 63, 80
1, 169117, Note_off_c, 0, 60, 56
1, 169126, Control_c, 0, 64, 93
1, 169141, Control_c, 0, 64, 98
1, 169156, Control_c, 0, 64, 103
1, 169170, Note_off_c, 0, 63, 63
1, 169171, Control_c, 0, 64, 107
1, 169178, Note_on_c, 0, 68, 74
1, 169187, Control_c, 0, 64, 112
1, 169201, Control_c, 0, 64, 119
1, 169216, Control_c, 0, 64, 127
1, 169237, Note_off_c, 0, 56, 63
1, 169256, Note_on_c, 0, 63, 81
1, 169264, Note_off_c, 0, 68, 62
1, 169311, Note_off_c, 0, 63, 62
1, 169331, Note_on_c, 0, 60, 80
1, 169505, Control_c, 0, 64, 115
1, 169520, Control_c, 0, 64, 95
1, 169535, Control_c, 0, 64, 77
1, 169546, Note_on_c, 0, 66, 84
1, 169550, Control_c, 0, 64, 63
1, 169556, Note_on_c, 0, 57, 57
1, 169565, Control_c, 0, 64, 0
1, 169586, Note_off_c, 0, 60, 58
1, 169678, Note_on_c, 0, 60, 62
1, 169690, Note_off_c, 0, 57, 57
1, 169698, Control_c, 0, 64, 71
1, 169713, Control_c, 0, 64, 77
1, 169728, Control_c, 0, 64, 83
1, 169742, Control_c, 0, 64, 89
1, 169749, Note_off_c, 0, 60, 60
1, 169757, Control_c, 0, 64, 92
1, 169770, Note_on_c, 0, 63, 70
1, 169772, Control_c, 0, 64, 95
1, 169787, Control_c, 0, 64, 97
1, 169813, Note_off_c, 0, 63, 58
1, 169816, Control_c, 0, 64, 99
1, 169820, Note_on_c, 0, 60, 62
1, 169860, Control_c, 0, 64, 102
1, 169890, Control_c, 0, 64, 104
1, 169891, Note_off_c, 0, 60, 58
1, 169893, Note_on_c, 0, 57, 59
1, 169927, Note_off_c, 0, 57, 65
1, 169947, Note_on_c, 0, 54, 60
1, 169949, Control_c, 0, 64, 106
1, 169980, Control_c, 0, 64, 109
1, 170010, Control_c, 0, 64, 112
1, 170012, Note_off_c, 0, 54, 59
1, 170024, Note_on_c, 0, 57, 71
1, 170039, Control_c, 0, 64, 117
1, 170054, Control_c, 0, 64, 127
1, 170083, Note_off_c, 0, 57, 62
1, 170098, Note_on_c, 0, 60, 75
1, 170161, Note_off_c, 0, 60, 58
1, 170163, Note_on_c, 0, 57, 69
1, 170218, Note_off_c, 0, 57, 63
1, 170220, Note_on_c, 0, 54, 70
1, 170274, Note_on_c, 0, 51, 69
1, 170279, Note_off_c, 0, 54, 60
1, 170336, Note_on_c, 0, 54, 63
1, 170339, Note_off_c, 0, 51, 61
1, 170344, Note_off_c, 0, 66, 66
1, 170381, Note_off_c, 0, 54, 62
1, 170396, Note_on_c, 0, 57, 70
1, 170435, Note_off_c, 0, 57, 58
1, 170453, Note_on_c, 0, 54, 71
1, 170495, Note_on_c, 0, 51, 62
1, 170530, Note_off_c, 0, 51, 60
1, 170532, Note_off_c, 0, 54, 60
1, 170554, Note_on_c, 0, 48, 68
1, 170595, Note_on_c, 0, 72, 89
1, 170634, Note_off_c, 0, 48, 61
1, 170637, Note_on_c, 0, 51, 73
1, 170697, Note_off_c, 0, 51, 61
1, 170716, Note_on_c, 0, 54, 72
1, 170772, Note_on_c, 0, 51, 61
1, 170787, Note_off_c, 0, 54, 59
1, 170846, Note_on_c, 0, 48, 65
1, 170855, Note_on_c, 0, 75, 88
1, 170877, Note_off_c, 0, 51, 59
1, 170912, Note_off_c, 0, 48, 62
1, 170918, Note_off_c, 0, 72, 57
1, 170921, Note_on_c, 0, 45, 73
1, 170947, Note_on_c, 0, 78, 92
1, 170979, Note_off_c, 0, 75, 62
1, 171009, Note_off_c, 0, 45, 60
1, 171021, Note_on_c, 0, 48, 68
1, 171073, Note_off_c, 0, 48, 60
1, 171096, Note_on_c, 0, 51, 67
1, 171118, Note_off_c, 0, 78, 62
1, 171139, Note_on_c, 0, 48, 64
1, 171149, Note_off_c, 0, 51, 59
1, 171210, Note_on_c, 0, 45, 68
1, 171225, Note_off_c, 0, 48, 60
1, 171254, Note_off_c, 0, 45, 64
1, 171260, Note_on_c, 0, 42, 75
1, 171294, Note_on_c, 0, 84, 93
1, 171348, Note_off_c, 0, 42, 59
1, 171357, Note_on_c, 0, 45, 83
1, 171418, Note_off_c, 0, 45, 63
1, 171428, Note_on_c, 0, 48, 79
1, 171493, Note_on_c, 0, 45, 74
1, 171494, Note_off_c, 0, 48, 61
1, 171542, Note_on_c, 0, 87, 94
1, 171544, Note_on_c, 0, 42, 75
1, 171576, Note_off_c, 0, 45, 62
1, 171592, Note_off_c, 0, 84, 61
1, 171613, Note_on_c, 0, 39, 76
1, 171624, Note_off_c, 0, 42, 59
1, 171635, Note_on_c, 0, 90, 102
1, 171676, Note_off_c, 0, 87, 66
1, 171703, Note_on_c, 0, 42, 74
1, 171711, Note_off_c, 0, 39, 62
1, 171758, Note_off_c, 0, 42, 59
1, 171769, Note_on_c, 0, 45, 74
1, 171815, Note_on_c, 0, 42, 66
1, 171816, Note_off_c, 0, 45, 64
1, 171837, Note_on_c, 0, 39, 79
1, 171902, Note_off_c, 0, 42, 59
1, 171908, Note_off_c, 0, 39, 63
1, 171913, Note_on_c, 0, 36, 65
1, 171919, Note_off_c, 0, 90, 54
1, 171944, Note_on_c, 0, 33, 87
1, 171963, Note_off_c, 0, 36, 56
1, 171978, Note_on_c, 0, 90, 99
1, 172042, Note_off_c, 0, 33, 63
1, 172042, Note_on_c, 0, 36, 69
1, 172101, Note_on_c, 0, 39, 87
1, 172131, Note_off_c, 0, 36, 61
1, 172137, Note_off_c, 0, 90, 62
1, 172160, Note_off_c, 0, 39, 63
1, 172173, Note_on_c, 0, 42, 84
1, 172235, Note_on_c, 0, 39, 78
1, 172241, Note_off_c, 0, 42, 60
1, 172274, Note_on_c, 0, 36, 75
1, 172310, Note_off_c, 0, 39, 59
1, 172359, Control_c, 0, 64, 111
1, 172363, Note_on_c, 0, 32, 93
1, 172367, Note_on_c, 0, 90, 106
1, 172370, Note_off_c, 0, 36, 59
1, 172375, Control_c, 0, 64, 75
1, 172390, Control_c, 0, 64, 0
1, 172448, Note_on_c, 0, 36, 76
1, 172471, Control_c, 0, 64, 72
1, 172477, Note_off_c, 0, 32, 63
1, 172486, Control_c, 0, 64, 80
1, 172499, Note_on_c, 0, 39, 85
1, 172501, Control_c, 0, 64, 88
1, 172516, Control_c, 0, 64, 96
1, 172519, Note_off_c, 0, 36, 62
1, 172531, Control_c, 0, 64, 101
1, 172545, Control_c, 0, 64, 106
1, 172560, Control_c, 0, 64, 111
1, 172565, Note_on_c, 0, 42, 85
1, 172567, Note_off_c, 0, 39, 61
1, 172575, Control_c, 0, 64, 119
1, 172590, Control_c, 0, 64, 127
1, 172614, Note_on_c, 0, 39, 57
1, 172624, Note_off_c, 0, 90, 54
1, 172627, Note_off_c, 0, 42, 59
1, 172653, Note_on_c, 0, 36, 59
1, 172678, Note_on_c, 0, 37, 32
1, 172679, Note_off_c, 0, 39, 60
1, 172700, Note_on_c, 0, 33, 93
1, 172713, Note_off_c, 0, 36, 59
1, 172718, Note_off_c, 0, 37, 31
1, 172780, Note_on_c, 0, 36, 67
1, 172782, Note_off_c, 0, 33, 62
1, 172808, Note_on_c, 0, 84, 28
1, 172828, Note_on_c, 0, 90, 85
1, 172842, Note_off_c, 0, 84, 43
1, 172849, Note_on_c, 0, 39, 84
1, 172867, Note_off_c, 0, 36, 61
1, 172882, Note_on_c, 0, 87, 78
1, 172912, Note_on_c, 0, 42, 79
1, 172915, Note_off_c, 0, 90, 63
1, 172941, Note_on_c, 0, 84, 72
1, 172953, Note_off_c, 0, 87, 64
1, 172969, Note_on_c, 0, 36, 71
1, 172975, Note_off_c, 0, 42, 59
1, 172984, Note_off_c, 0, 39, 55
1, 172989, Control_c, 0, 64, 98
1, 172996, Note_on_c, 0, 78, 84
1, 173000, Note_off_c, 0, 84, 63
1, 173003, Control_c, 0, 64, 70
1, 173007, Note_off_c, 0, 36, 62
1, 173018, Control_c, 0, 64, 0
1, 173039, Note_on_c, 0, 32, 92
1, 173049, Note_on_c, 0, 90, 104
1, 173076, Note_off_c, 0, 78, 62
1, 173092, Control_c, 0, 64, 65
1, 173107, Control_c, 0, 64, 76
1, 173109, Note_on_c, 0, 36, 78
1, 173122, Control_c, 0, 64, 85
1, 173127, Note_off_c, 0, 32, 63
1, 173137, Control_c, 0, 64, 96
1, 173159, Note_on_c, 0, 39, 74
1, 173159, Control_c, 0, 64, 104
1, 173168, Note_off_c, 0, 90, 63
1, 173174, Control_c, 0, 64, 109
1, 173177, Note_off_c, 0, 36, 61
1, 173189, Control_c, 0, 64, 116
1, 173204, Control_c, 0, 64, 127
1, 173221, Note_on_c, 0, 42, 79
1, 173222, Note_off_c, 0, 39, 62
1, 173267, Note_on_c, 0, 39, 54
1, 173282, Note_off_c, 0, 42, 60
1, 173300, Note_on_c, 0, 36, 70
1, 173344, Note_off_c, 0, 39, 62
1, 173368, Note_on_c, 0, 33, 86
1, 173377, Note_off_c, 0, 36, 61
1, 173446, Note_off_c, 0, 33, 62
1, 173448, Note_on_c, 0, 36, 68
1, 173468, Note_on_c, 0, 73, 32
1, 173499, Note_off_c, 0, 73, 46
1, 173511, Note_on_c, 0, 39, 80
1, 173511, Note_on_c, 0, 78, 82
1, 173532, Note_off_c, 0, 36, 61
1, 173563, Note_on_c, 0, 75, 77
1, 173573, Note_on_c, 0, 42, 78
1, 173583, Note_off_c, 0, 78, 61
1, 173616, Note_on_c, 0, 72, 83
1, 173616, Note_off_c, 0, 75, 62
1, 173619, Note_on_c, 0, 73, 28
1, 173619, Control_c, 0, 64, 102
1, 173634, Control_c, 0, 64, 71
1, 173639, Note_on_c, 0, 36, 61
1, 173648, Note_off_c, 0, 42, 60
1, 173648, Control_c, 0, 64, 0
1, 173654, Note_off_c, 0, 73, 54
1, 173657, Note_off_c, 0, 39, 37
1, 173669, Note_on_c, 0, 66, 80
1, 173676, Note_off_c, 0, 72, 61
1, 173696, Note_off_c, 0, 36, 62
1, 173717, Note_on_c, 0, 32, 87
1, 173723, Note_on_c, 0, 78, 102
1, 173746, Note_off_c, 0, 66, 64
1, 173767, Control_c, 0, 64, 76
1, 173782, Control_c, 0, 64, 85
1, 173790, Note_on_c, 0, 36, 77
1, 173797, Control_c, 0, 64, 93
1, 173803, Note_off_c, 0, 78, 63
1, 173812, Control_c, 0, 64, 97
1, 173815, Note_off_c, 0, 32, 58
1, 173839, Note_on_c, 0, 39, 77
1, 173841, Control_c, 0, 64, 102
1, 173853, Note_off_c, 0, 36, 62
1, 173856, Control_c, 0, 64, 106
1, 173871, Control_c, 0, 64, 110
1, 173886, Control_c, 0, 64, 116
1, 173902, Note_on_c, 0, 42, 83
1, 173905, Note_off_c, 0, 39, 60
1, 173908, Control_c, 0, 64, 127
1, 173947, Note_on_c, 0, 39, 45
1, 173962, Note_off_c, 0, 42, 58
1, 173994, Note_on_c, 0, 36, 65
1, 174027, Note_off_c, 0, 39, 60
1, 174045, Note_on_c, 0, 33, 85
1, 174054, Note_off_c, 0, 36, 60
1, 174119, Note_on_c, 0, 36, 73
1, 174127, Note_off_c, 0, 33, 62
1, 174187, Note_on_c, 0, 39, 78
1, 174189, Note_on_c, 0, 66, 82
1, 174205, Control_c, 0, 64, 118
1, 174211, Note_off_c, 0, 36, 60
1, 174220, Control_c, 0, 64, 75
1, 174235, Control_c, 0, 64, 0
1, 174239, Note_on_c, 0, 63, 68
1, 174252, Note_on_c, 0, 42, 73
1, 174254, Note_off_c, 0, 66, 61
1, 174289, Note_on_c, 0, 60, 81
1, 174292, Note_off_c, 0, 63, 63
1, 174303, Note_off_c, 0, 39, 36
1, 174322, Note_off_c, 0, 42, 59
1, 174323, Note_on_c, 0, 36, 57
1, 174336, Note_on_c, 0, 54, 76
1, 174340, Note_off_c, 0, 60, 59
1, 174370, Note_off_c, 0, 36, 60
1, 174378, Note_on_c, 0, 32, 88
1, 174385, Note_on_c, 0, 66, 88
1, 174391, Note_off_c, 0, 54, 62
1, 174412, Control_c, 0, 64, 65
1, 174426, Control_c, 0, 64, 95
1, 174436, Note_off_c, 0, 66, 63
1, 174441, Control_c, 0, 64, 98
1, 174464, Note_on_c, 0, 36, 69
1, 174471, Control_c, 0, 64, 86
1, 174473, Note_off_c, 0, 32, 64
1, 174486, Control_c, 0, 64, 72
1, 174501, Control_c, 0, 64, 0
1, 174517, Note_on_c, 0, 39, 77
1, 174535, Note_on_c, 0, 66, 81
1, 174544, Note_off_c, 0, 36, 61
1, 174584, Note_on_c, 0, 42, 81
1, 174590, Note_off_c, 0, 39, 61
1, 174591, Note_off_c, 0, 66, 64
1, 174592, Note_on_c, 0, 63, 76
1, 174647, Note_on_c, 0, 60, 79
1, 174652, Note_off_c, 0, 63, 63
1, 174661, Note_off_c, 0, 42, 61
1, 174675, Note_on_c, 0, 36, 50
1, 174698, Note_on_c, 0, 54, 76
1, 174702, Note_off_c, 0, 60, 62
1, 174732, Note_on_c, 0, 33, 85
1, 174738, Note_off_c, 0, 36, 63
1, 174742, Poly_aftertouch_c, 0, 39, 0
1, 174747, Note_on_c, 0, 66, 91
1, 174754, Note_off_c, 0, 54, 62
1, 174790, Control_c, 0, 64, 73
1, 174800, Note_off_c, 0, 66, 63
1, 174805, Control_c, 0, 64, 80
1, 174814, Note_off_c, 0, 33, 62
1, 174820, Control_c, 0, 64, 74
1, 174822, Note_on_c, 0, 36, 72
1, 174835, Control_c, 0, 64, 34
1, 174850, Control_c, 0, 64, 0
1, 174854, Note_on_c, 0, 60, 36
1, 174884, Note_off_c, 0, 60, 50
1, 174889, Note_on_c, 0, 39, 74
1, 174897, Note_on_c, 0, 66, 84
1, 174899, Note_off_c, 0, 36, 62
1, 174939, Note_on_c, 0, 42, 75
1, 174943, Note_off_c, 0, 39, 62
1, 174957, Note_on_c, 0, 63, 70
1, 174957, Note_off_c, 0, 66, 62
1, 174989, Note_on_c, 0, 36, 63
1, 174997, Note_off_c, 0, 42, 60
1, 175000, Note_on_c, 0, 60, 63
1, 175015, Note_off_c, 0, 63, 63
1, 175055, Note_on_c, 0, 39, 71
1, 175062, Note_off_c, 0, 36, 61
1, 175063, Note_on_c, 0, 54, 74
1, 175067, Note_off_c, 0, 60, 61
1, 175089, Note_off_c, 0, 39, 65
1, 175131, Note_off_c, 0, 54, 62
1, 175134, Note_on_c, 0, 44, 87
1, 175136, Note_on_c, 0, 32, 81
1, 175137, Note_on_c, 0, 66, 94
1, 175205, Control_c, 0, 64, 63
1, 175220, Control_c, 0, 64, 65
1, 175235, Control_c, 0, 64, 66
1, 175250, Control_c, 0, 64, 68
1, 175265, Control_c, 0, 64, 70
1, 175279, Control_c, 0, 64, 74
1, 175294, Control_c, 0, 64, 77
1, 175309, Control_c, 0, 64, 80
1, 175324, Control_c, 0, 64, 83
1, 175328, Note_on_c, 0, 56, 55
1, 175330, Note_off_c, 0, 66, 62
1, 175339, Control_c, 0, 64, 85
1, 175348, Note_off_c, 0, 44, 62
1, 175350, Note_off_c, 0, 32, 62
1, 175351, Note_off_c, 0, 56, 59
1, 175353, Control_c, 0, 64, 85
1, 175438, Note_on_c, 0, 56, 56
1, 175450, Control_c, 0, 64, 85
1, 175465, Control_c, 0, 64, 84
1, 175471, Note_off_c, 0, 56, 66
1, 175479, Control_c, 0, 64, 83
1, 175494, Control_c, 0, 64, 81
1, 175509, Control_c, 0, 64, 79
1, 175524, Control_c, 0, 64, 77
1, 175539, Control_c, 0, 64, 73
1, 175553, Control_c, 0, 64, 67
1, 175560, Note_on_c, 0, 56, 57
1, 175569, Control_c, 0, 64, 0
1, 175601, Note_off_c, 0, 56, 66
1, 175684, Note_on_c, 0, 56, 58
1, 175722, Note_off_c, 0, 56, 64
1, 175802, Note_on_c, 0, 56, 58
1, 175842, Note_off_c, 0, 56, 64
1, 175918, Note_on_c, 0, 56, 54
1, 175956, Note_off_c, 0, 56, 63
1, 176036, Note_on_c, 0, 56, 52
1, 176070, Note_off_c, 0, 56, 60
1, 176159, Note_on_c, 0, 56, 56
1, 176194, Note_off_c, 0, 56, 64
1, 176269, Note_on_c, 0, 56, 57
1, 176311, Note_off_c, 0, 56, 65
1, 176403, Note_on_c, 0, 56, 55
1, 176445, Note_off_c, 0, 56, 64
1, 176526, Note_on_c, 0, 56, 57
1, 176556, Note_off_c, 0, 56, 65
1, 176672, Note_on_c, 0, 60, 40
1, 176674, Note_on_c, 0, 63, 41
1, 176704, Control_c, 0, 64, 64
1, 176718, Control_c, 0, 64, 67
1, 176733, Control_c, 0, 64, 69
1, 176748, Control_c, 0, 64, 70
1, 176762, Control_c, 0, 64, 72
1, 176777, Control_c, 0, 64, 73
1, 176792, Control_c, 0, 64, 75
1, 176807, Control_c, 0, 64, 76
1, 176809, Note_on_c, 0, 56, 45
1, 176822, Control_c, 0, 64, 76
1, 176836, Note_off_c, 0, 56, 59
1, 176836, Control_c, 0, 64, 77
1, 176851, Control_c, 0, 64, 78
1, 176866, Control_c, 0, 64, 79
1, 176881, Control_c, 0, 64, 79
1, 176898, Note_off_c, 0, 60, 54
1, 176904, Control_c, 0, 64, 80
1, 176936, Note_off_c, 0, 63, 58
1, 176937, Note_on_c, 0, 56, 51
1, 176966, Note_off_c, 0, 56, 58
1, 177022, Control_c, 0, 64, 78
1, 177037, Control_c, 0, 64, 74
1, 177051, Control_c, 0, 64, 66
1, 177060, Note_on_c, 0, 56, 49
1, 177066, Control_c, 0, 64, 0
1, 177081, Note_off_c, 0, 56, 62
1, 177154, Note_on_c, 0, 56, 59
1, 177194, Note_off_c, 0, 56, 62
1, 177271, Note_on_c, 0, 56, 53
1, 177314, Note_off_c, 0, 56, 59
1, 177401, Note_on_c, 0, 75, 57
1, 177415, Note_on_c, 0, 54, 34
1, 177415, Note_on_c, 0, 72, 45
1, 177437, Control_c, 0, 64, 63
1, 177452, Control_c, 0, 64, 67
1, 177467, Control_c, 0, 64, 69
1, 177482, Control_c, 0, 64, 71
1, 177485, Note_off_c, 0, 54, 39
1, 177497, Control_c, 0, 64, 74
1, 177512, Control_c, 0, 64, 75
1, 177527, Control_c, 0, 64, 76
1, 177541, Control_c, 0, 64, 77
1, 177550, Note_on_c, 0, 56, 38
1, 177556, Control_c, 0, 64, 78
1, 177571, Control_c, 0, 64, 78
1, 177583, Note_off_c, 0, 56, 56
1, 177585, Control_c, 0, 64, 79
1, 177600, Control_c, 0, 64, 80
1, 177615, Control_c, 0, 64, 80
1, 177631, Note_off_c, 0, 72, 59
1, 177660, Note_off_c, 0, 75, 62
1, 177682, Control_c, 0, 64, 80
1, 177682, Note_on_c, 0, 56, 47
1, 177706, Note_off_c, 0, 56, 60
1, 177711, Control_c, 0, 64, 79
1, 177726, Control_c, 0, 64, 77
1, 177741, Control_c, 0, 64, 73
1, 177756, Control_c, 0, 64, 67
1, 177771, Control_c, 0, 64, 0
1, 177791, Note_on_c, 0, 56, 52
1, 177828, Note_off_c, 0, 56, 63
1, 177908, Note_on_c, 0, 56, 56
1, 177943, Note_off_c, 0, 56, 64
1, 178021, Note_on_c, 0, 56, 57
1, 178064, Note_off_c, 0, 56, 64
1, 178136, Note_on_c, 0, 65, 53
1, 178147, Note_on_c, 0, 61, 40
1, 178200, Control_c, 0, 64, 64
1, 178215, Control_c, 0, 64, 67
1, 178230, Control_c, 0, 64, 68
1, 178245, Control_c, 0, 64, 70
1, 178260, Control_c, 0, 64, 72
1, 178275, Control_c, 0, 64, 74
1, 178289, Control_c, 0, 64, 75
1, 178296, Note_on_c, 0, 56, 39
1, 178304, Control_c, 0, 64, 77
1, 178319, Control_c, 0, 64, 78
1, 178325, Note_off_c, 0, 56, 55
1, 178333, Control_c, 0, 64, 78
1, 178348, Control_c, 0, 64, 79
1, 178362, Note_off_c, 0, 61, 60
1, 178378, Control_c, 0, 64, 79
1, 178392, Note_off_c, 0, 65, 62
1, 178418, Note_on_c, 0, 56, 46
1, 178442, Note_off_c, 0, 56, 59
1, 178460, Control_c, 0, 64, 79
1, 178474, Control_c, 0, 64, 78
1, 178489, Control_c, 0, 64, 77
1, 178504, Control_c, 0, 64, 75
1, 178519, Control_c, 0, 64, 71
1, 178521, Note_on_c, 0, 56, 57
1, 178534, Control_c, 0, 64, 67
1, 178548, Control_c, 0, 64, 64
1, 178555, Note_off_c, 0, 56, 63
1, 178563, Control_c, 0, 64, 30
1, 178578, Control_c, 0, 64, 0
1, 178629, Note_on_c, 0, 56, 55
1, 178665, Note_off_c, 0, 56, 64
1, 178749, Note_on_c, 0, 56, 51
1, 178779, Note_off_c, 0, 56, 58
1, 178868, Note_on_c, 0, 77, 58
1, 178874, Note_on_c, 0, 53, 36
1, 178875, Note_on_c, 0, 73, 51
1, 178934, Note_off_c, 0, 53, 51
1, 178950, Control_c, 0, 64, 66
1, 178964, Control_c, 0, 64, 69
1, 178979, Control_c, 0, 64, 71
1, 178994, Control_c, 0, 64, 72
1, 179009, Control_c, 0, 64, 74
1, 179011, Note_on_c, 0, 56, 43
1, 179024, Control_c, 0, 64, 75
1, 179038, Control_c, 0, 64, 75
1, 179039, Note_off_c, 0, 56, 57
1, 179127, Control_c, 0, 64, 75
1, 179129, Note_on_c, 0, 56, 45
1, 179146, Note_off_c, 0, 77, 59
1, 179150, Control_c, 0, 64, 74
1, 179165, Control_c, 0, 64, 74
1, 179167, Note_off_c, 0, 56, 57
1, 179170, Note_off_c, 0, 73, 57
1, 179179, Control_c, 0, 64, 72
1, 179194, Control_c, 0, 64, 70
1, 179209, Control_c, 0, 64, 68
1, 179224, Control_c, 0, 64, 66
1, 179238, Control_c, 0, 64, 65
1, 179253, Control_c, 0, 64, 64
1, 179256, Note_on_c, 0, 56, 39
1, 179268, Control_c, 0, 64, 64
1, 179283, Control_c, 0, 64, 57
1, 179286, Note_off_c, 0, 56, 52
1, 179298, Control_c, 0, 64, 0
1, 179392, Note_on_c, 0, 56, 33
1, 179422, Note_off_c, 0, 56, 47
1, 179530, Note_on_c, 0, 56, 25
1, 179568, Note_off_c, 0, 56, 41
1, 179652, Note_on_c, 0, 70, 58
1, 179662, Note_on_c, 0, 65, 47
1, 179668, Note_on_c, 0, 61, 40
1, 179802, Control_c, 0, 64, 57
1, 179817, Control_c, 0, 64, 65
1, 179824, Note_on_c, 0, 56, 27
1, 179832, Control_c, 0, 64, 66
1, 179847, Control_c, 0, 64, 68
1, 179861, Control_c, 0, 64, 71
1, 179862, Note_off_c, 0, 56, 41
1, 179876, Control_c, 0, 64, 74
1, 179899, Control_c, 0, 64, 76
1, 179914, Control_c, 0, 64, 78
1, 179928, Control_c, 0, 64, 80
1, 179943, Control_c, 0, 64, 82
1, 179950, Note_on_c, 0, 56, 19
1, 179958, Control_c, 0, 64, 84
1, 179973, Control_c, 0, 64, 86
1, 179988, Control_c, 0, 64, 87
1, 179995, Note_off_c, 0, 56, 49
1, 180002, Control_c, 0, 64, 89
1, 180017, Control_c, 0, 64, 90
1, 180032, Control_c, 0, 64, 91
1, 180047, Control_c, 0, 64, 92
1, 180054, Note_on_c, 0, 53, 42
1, 180062, Control_c, 0, 64, 93
1, 180065, Note_on_c, 0, 49, 39
1, 180076, Control_c, 0, 64, 94
1, 180091, Control_c, 0, 64, 96
1, 180135, Control_c, 0, 64, 98
1, 180159, Note_off_c, 0, 53, 30
1, 180167, Note_off_c, 0, 49, 45
1, 180186, Note_on_c, 0, 56, 40
1, 180194, Control_c, 0, 64, 100
1, 180215, Note_off_c, 0, 56, 54
1, 180239, Control_c, 0, 64, 103
1, 180299, Control_c, 0, 64, 106
1, 180302, Note_on_c, 0, 56, 42
1, 180327, Note_off_c, 0, 61, 33
1, 180343, Control_c, 0, 64, 108
1, 180344, Note_off_c, 0, 56, 47
1, 180406, Note_on_c, 0, 53, 48
1, 180411, Note_on_c, 0, 49, 40
1, 180445, Note_off_c, 0, 65, 34
1, 180463, Control_c, 0, 64, 110
1, 180505, Note_off_c, 0, 53, 33
1, 180525, Note_off_c, 0, 49, 52
1, 180532, Note_on_c, 0, 56, 50
1, 180551, Control_c, 0, 64, 112
1, 180558, Note_off_c, 0, 56, 61
1, 180581, Control_c, 0, 64, 114
1, 180625, Control_c, 0, 64, 116
1, 180649, Note_on_c, 0, 56, 56
1, 180689, Note_off_c, 0, 56, 59
1, 180753, Note_on_c, 0, 49, 47
1, 180755, Note_on_c, 0, 53, 48
1, 180859, Note_off_c, 0, 53, 35
1, 180883, Note_on_c, 0, 56, 45
1, 180885, Control_c, 0, 64, 113
1, 180899, Control_c, 0, 64, 110
1, 180913, Note_off_c, 0, 49, 34
1, 180916, Note_off_c, 0, 56, 54
1, 180929, Control_c, 0, 64, 107
1, 180958, Control_c, 0, 64, 105
1, 180999, Note_on_c, 0, 56, 41
1, 181027, Note_off_c, 0, 56, 56
1, 181032, Control_c, 0, 64, 103
1, 181047, Control_c, 0, 64, 101
1, 181062, Control_c, 0, 64, 96
1, 181077, Control_c, 0, 64, 89
1, 181092, Control_c, 0, 64, 81
1, 181107, Control_c, 0, 64, 72
1, 181121, Note_off_c, 0, 70, 55
1, 181122, Control_c, 0, 64, 64
1, 181136, Control_c, 0, 64, 0
1, 181150, Note_on_c, 0, 68, 45
1, 181154, Note_on_c, 0, 60, 39
1, 181164, Note_on_c, 0, 63, 37
1, 181178, Note_on_c, 0, 48, 30
1, 181185, Note_on_c, 0, 51, 30
1, 181271, Control_c, 0, 64, 67
1, 181285, Control_c, 0, 64, 71
1, 181300, Control_c, 0, 64, 74
1, 181315, Control_c, 0, 64, 76
1, 181318, Note_off_c, 0, 51, 55
1, 181327, Note_on_c, 0, 56, 47
1, 181330, Control_c, 0, 64, 77
1, 181339, Note_off_c, 0, 48, 38
1, 181345, Control_c, 0, 64, 79
1, 181359, Control_c, 0, 64, 80
1, 181360, Note_off_c, 0, 56, 55
1, 181374, Control_c, 0, 64, 80
1, 181426, Control_c, 0, 64, 80
1, 181455, Control_c, 0, 64, 79
1, 181464, Note_on_c, 0, 56, 51
1, 181470, Control_c, 0, 64, 78
1, 181485, Control_c, 0, 64, 77
1, 181488, Note_off_c, 0, 56, 62
1, 181500, Control_c, 0, 64, 75
1, 181515, Control_c, 0, 64, 72
1, 181530, Control_c, 0, 64, 68
1, 181545, Control_c, 0, 64, 65
1, 181559, Control_c, 0, 64, 61
1, 181569, Note_on_c, 0, 56, 53
1, 181574, Control_c, 0, 64, 34
1, 181589, Control_c, 0, 64, 0
1, 181607, Note_off_c, 0, 56, 65
1, 181670, Note_off_c, 0, 60, 36
1, 181687, Note_on_c, 0, 56, 56
1, 181714, Note_off_c, 0, 56, 64
1, 181736, Note_off_c, 0, 68, 57
1, 181761, Note_off_c, 0, 63, 38
1, 181798, Note_on_c, 0, 56, 56
1, 181833, Note_off_c, 0, 56, 65
1, 181908, Note_on_c, 0, 56, 57
1, 181946, Note_off_c, 0, 56, 63
1, 182028, Note_on_c, 0, 56, 57
1, 182067, Note_off_c, 0, 56, 62
1, 182156, Note_on_c, 0, 56, 51
1, 182191, Note_off_c, 0, 56, 61
1, 182272, Note_on_c, 0, 63, 49
1, 182278, Note_on_c, 0, 60, 48
1, 182291, Note_on_c, 0, 56, 44
1, 182318, Note_off_c, 0, 56, 58
1, 182415, Note_on_c, 0, 56, 44
1, 182442, Note_off_c, 0, 56, 58
1, 182448, Note_off_c, 0, 60, 57
1, 182469, Note_off_c, 0, 63, 61
1, 182529, Note_on_c, 0, 56, 49
1, 182560, Note_off_c, 0, 56, 57
1, 182572, Note_on_c, 0, 60, 55
1, 182583, Note_on_c, 0, 63, 53
1, 182606, Note_off_c, 0, 63, 60
1, 182616, Note_off_c, 0, 60, 57
1, 182649, Note_on_c, 0, 65, 64
1, 182650, Note_on_c, 0, 56, 53
1, 182656, Note_on_c, 0, 61, 59
1, 182677, Note_off_c, 0, 56, 60
1, 182769, Note_on_c, 0, 56, 48
1, 182809, Note_off_c, 0, 56, 63
1, 182862, Note_off_c, 0, 61, 53
1, 182871, Note_off_c, 0, 65, 60
1, 182906, Note_on_c, 0, 56, 53
1, 182925, Note_on_c, 0, 63, 59
1, 182929, Note_on_c, 0, 60, 55
1, 182942, Note_off_c, 0, 56, 64
1, 182955, Note_off_c, 0, 63, 64
1, 182957, Note_off_c, 0, 60, 61
1, 183034, Note_on_c, 0, 56, 51
1, 183072, Note_off_c, 0, 56, 64
1, 183152, Note_on_c, 0, 56, 58
1, 183195, Note_off_c, 0, 56, 65
1, 183272, Note_on_c, 0, 75, 66
1, 183275, Note_on_c, 0, 72, 58
1, 183277, Note_on_c, 0, 56, 54
1, 183305, Note_off_c, 0, 72, 62
1, 183309, Note_off_c, 0, 75, 63
1, 183314, Note_off_c, 0, 56, 64
1, 183395, Note_on_c, 0, 56, 58
1, 183429, Note_off_c, 0, 56, 65
1, 183503, Note_on_c, 0, 56, 59
1, 183537, Note_off_c, 0, 56, 65
1, 183614, Note_on_c, 0, 56, 53
1, 183633, Note_on_c, 0, 84, 59
1, 183634, Note_on_c, 0, 87, 58
1, 183662, Note_off_c, 0, 84, 64
1, 183664, Note_off_c, 0, 56, 61
1, 183664, Note_off_c, 0, 87, 68
1, 183744, Note_on_c, 0, 51, 46
1, 183747, Note_on_c, 0, 54, 49
1, 183776, Control_c, 0, 64, 66
1, 183788, Note_off_c, 0, 54, 61
1, 183791, Control_c, 0, 64, 72
1, 183794, Note_off_c, 0, 51, 58
1, 183806, Control_c, 0, 64, 76
1, 183821, Control_c, 0, 64, 79
1, 183835, Control_c, 0, 64, 82
1, 183850, Control_c, 0, 64, 84
1, 183855, Note_on_c, 0, 56, 58
1, 183865, Control_c, 0, 64, 85
1, 183879, Control_c, 0, 64, 86
1, 183885, Note_off_c, 0, 56, 62
1, 183963, Note_on_c, 0, 56, 61
1, 183991, Note_off_c, 0, 56, 58
1, 183998, Control_c, 0, 64, 85
1, 184013, Control_c, 0, 64, 85
1, 184026, Note_on_c, 0, 60, 61
1, 184028, Control_c, 0, 64, 83
1, 184031, Note_on_c, 0, 63, 62
1, 184043, Control_c, 0, 64, 80
1, 184051, Note_off_c, 0, 63, 65
1, 184058, Control_c, 0, 64, 75
1, 184064, Note_off_c, 0, 60, 62
1, 184073, Control_c, 0, 64, 68
1, 184087, Control_c, 0, 64, 0
1, 184099, Note_on_c, 0, 56, 49
1, 184107, Note_on_c, 0, 66, 72
1, 184120, Note_on_c, 0, 63, 67
1, 184141, Note_off_c, 0, 56, 63
1, 184247, Note_on_c, 0, 56, 47
1, 184287, Note_off_c, 0, 56, 62
1, 184353, Note_off_c, 0, 63, 55
1, 184369, Note_off_c, 0, 66, 60
1, 184374, Note_on_c, 0, 65, 67
1, 184374, Note_on_c, 0, 56, 58
1, 184392, Note_on_c, 0, 61, 58
1, 184414, Note_off_c, 0, 65, 66
1, 184421, Note_off_c, 0, 56, 62
1, 184424, Note_off_c, 0, 61, 63
1, 184505, Note_on_c, 0, 56, 59
1, 184546, Note_off_c, 0, 56, 65
1, 184627, Note_on_c, 0, 56, 56
1, 184664, Note_off_c, 0, 56, 63
1, 184743, Note_on_c, 0, 77, 71
1, 184746, Note_on_c, 0, 56, 59
1, 184749, Note_on_c, 0, 73, 63
1, 184779, Note_off_c, 0, 77, 62
1, 184779, Note_off_c, 0, 73, 64
1, 184788, Note_off_c, 0, 56, 64
1, 184869, Note_on_c, 0, 56, 62
1, 184904, Note_off_c, 0, 56, 64
1, 184979, Note_on_c, 0, 56, 55
1, 185016, Note_off_c, 0, 56, 64
1, 185099, Note_on_c, 0, 56, 50
1, 185105, Note_on_c, 0, 89, 66
1, 185114, Note_on_c, 0, 85, 58
1, 185141, Note_off_c, 0, 56, 58
1, 185143, Note_off_c, 0, 89, 66
1, 185144, Note_off_c, 0, 85, 63
1, 185249, Note_on_c, 0, 53, 42
1, 185256, Note_on_c, 0, 49, 40
1, 185289, Control_c, 0, 64, 64
1, 185304, Control_c, 0, 64, 70
1, 185319, Control_c, 0, 64, 74
1, 185333, Control_c, 0, 64, 77
1, 185348, Control_c, 0, 64, 79
1, 185363, Control_c, 0, 64, 80
1, 185377, Note_on_c, 0, 56, 49
1, 185378, Control_c, 0, 64, 81
1, 185393, Control_c, 0, 64, 82
1, 185405, Note_off_c, 0, 56, 57
1, 185450, Note_off_c, 0, 53, 32
1, 185471, Note_off_c, 0, 49, 40
1, 185497, Note_on_c, 0, 56, 45
1, 185526, Note_off_c, 0, 56, 55
1, 185556, Control_c, 0, 64, 81
1, 185575, Note_on_c, 0, 65, 59
1, 185581, Note_on_c, 0, 61, 54
1, 185601, Control_c, 0, 64, 81
1, 185611, Note_off_c, 0, 65, 64
1, 185611, Note_off_c, 0, 61, 52
1, 185615, Control_c, 0, 64, 80
1, 185630, Control_c, 0, 64, 79
1, 185645, Control_c, 0, 64, 79
1, 185659, Control_c, 0, 64, 78
1, 185674, Control_c, 0, 64, 78
1, 185689, Control_c, 0, 64, 77
1, 185704, Control_c, 0, 64, 75
1, 185719, Control_c, 0, 64, 71
1, 185733, Control_c, 0, 64, 67
1, 185748, Control_c, 0, 64, 63
1, 185757, Note_on_c, 0, 70, 71
1, 185763, Control_c, 0, 64, 0
1, 185773, Note_on_c, 0, 65, 46
1, 185781, Note_on_c, 0, 61, 39
1, 185933, Control_c, 0, 64, 55
1, 185945, Note_on_c, 0, 56, 25
1, 185948, Control_c, 0, 64, 67
1, 185964, Control_c, 0, 64, 71
1, 185979, Control_c, 0, 64, 74
1, 185985, Note_off_c, 0, 56, 43
1, 185994, Control_c, 0, 64, 77
1, 186009, Control_c, 0, 64, 79
1, 186024, Control_c, 0, 64, 81
1, 186038, Control_c, 0, 64, 83
1, 186052, Note_on_c, 0, 56, 40
1, 186053, Control_c, 0, 64, 85
1, 186068, Control_c, 0, 64, 87
1, 186082, Control_c, 0, 64, 88
1, 186089, Note_off_c, 0, 56, 50
1, 186097, Control_c, 0, 64, 89
1, 186112, Control_c, 0, 64, 91
1, 186127, Control_c, 0, 64, 92
1, 186142, Control_c, 0, 64, 93
1, 186156, Control_c, 0, 64, 94
1, 186171, Control_c, 0, 64, 94
1, 186180, Note_on_c, 0, 53, 37
1, 186186, Control_c, 0, 64, 95
1, 186194, Note_on_c, 0, 49, 37
1, 186201, Control_c, 0, 64, 96
1, 186246, Control_c, 0, 64, 98
1, 186274, Note_off_c, 0, 49, 46
1, 186303, Note_on_c, 0, 56, 43
1, 186334, Control_c, 0, 64, 100
1, 186343, Note_off_c, 0, 56, 50
1, 186366, Note_off_c, 0, 53, 41
1, 186416, Note_on_c, 0, 56, 45
1, 186437, Note_off_c, 0, 61, 37
1, 186454, Note_off_c, 0, 56, 50
1, 186493, Note_off_c, 0, 65, 50
1, 186532, Note_on_c, 0, 53, 44
1, 186559, Note_on_c, 0, 49, 38
1, 186672, Note_on_c, 0, 56, 45
1, 186697, Note_off_c, 0, 56, 59
1, 186706, Note_off_c, 0, 53, 36
1, 186708, Note_off_c, 0, 49, 30
1, 186785, Note_on_c, 0, 56, 41
1, 186834, Note_off_c, 0, 56, 46
1, 186884, Note_on_c, 0, 53, 41
1, 186892, Note_on_c, 0, 49, 33
1, 186949, Control_c, 0, 64, 98
1, 187029, Note_on_c, 0, 56, 49
1, 187053, Note_off_c, 0, 56, 62
1, 187082, Note_off_c, 0, 53, 32
1, 187096, Control_c, 0, 64, 96
1, 187131, Note_off_c, 0, 49, 42
1, 187135, Note_on_c, 0, 56, 50
1, 187163, Note_off_c, 0, 56, 58
1, 187200, Control_c, 0, 64, 95
1, 187215, Control_c, 0, 64, 94
1, 187229, Control_c, 0, 64, 92
1, 187244, Control_c, 0, 64, 87
1, 187259, Control_c, 0, 64, 82
1, 187274, Control_c, 0, 64, 74
1, 187278, Note_off_c, 0, 70, 38
1, 187279, Note_on_c, 0, 68, 51
1, 187281, Note_on_c, 0, 60, 39
1, 187289, Note_on_c, 0, 63, 41
1, 187289, Control_c, 0, 64, 66
1, 187304, Control_c, 0, 64, 0
1, 187423, Note_on_c, 0, 56, 50
1, 187429, Control_c, 0, 64, 38
1, 187444, Control_c, 0, 64, 65
1, 187459, Control_c, 0, 64, 68
1, 187462, Note_off_c, 0, 56, 60
1, 187474, Control_c, 0, 64, 70
1, 187489, Control_c, 0, 64, 72
1, 187504, Control_c, 0, 64, 75
1, 187519, Control_c, 0, 64, 78
1, 187533, Control_c, 0, 64, 80
1, 187549, Control_c, 0, 64, 82
1, 187552, Note_on_c, 0, 56, 34
1, 187564, Control_c, 0, 64, 82
1, 187590, Note_off_c, 0, 56, 50
1, 187594, Control_c, 0, 64, 82
1, 187608, Control_c, 0, 64, 79
1, 187623, Control_c, 0, 64, 73
1, 187636, Note_off_c, 0, 60, 53
1, 187638, Control_c, 0, 64, 66
1, 187649, Note_on_c, 0, 51, 36
1, 187653, Control_c, 0, 64, 0
1, 187663, Note_on_c, 0, 48, 34
1, 187697, Note_off_c, 0, 63, 55
1, 187697, Control_c, 0, 64, 30
1, 187712, Control_c, 0, 64, 64
1, 187727, Control_c, 0, 64, 67
1, 187742, Control_c, 0, 64, 71
1, 187753, Note_off_c, 0, 68, 58
1, 187757, Control_c, 0, 64, 75
1, 187772, Control_c, 0, 64, 77
1, 187787, Control_c, 0, 64, 79
1, 187793, Note_on_c, 0, 56, 45
1, 187801, Control_c, 0, 64, 79
1, 187816, Control_c, 0, 64, 80
1, 187824, Note_off_c, 0, 56, 56
1, 187847, Note_off_c, 0, 51, 39
1, 187860, Control_c, 0, 64, 80
1, 187885, Note_off_c, 0, 48, 34
1, 187926, Note_on_c, 0, 56, 24
1, 187958, Note_off_c, 0, 56, 46
1, 188023, Control_c, 0, 64, 80
1, 188038, Control_c, 0, 64, 79
1, 188049, Note_on_c, 0, 69, 47
1, 188052, Control_c, 0, 64, 77
1, 188066, Note_on_c, 0, 64, 47
1, 188067, Control_c, 0, 64, 74
1, 188068, Note_on_c, 0, 61, 45
1, 188082, Control_c, 0, 64, 68
1, 188097, Control_c, 0, 64, 60
1, 188112, Control_c, 0, 64, 0
1, 188217, Note_on_c, 0, 56, 41
1, 188223, Control_c, 0, 64, 62
1, 188238, Control_c, 0, 64, 67
1, 188247, Note_off_c, 0, 56, 55
1, 188252, Control_c, 0, 64, 70
1, 188267, Control_c, 0, 64, 72
1, 188282, Control_c, 0, 64, 74
1, 188297, Control_c, 0, 64, 76
1, 188312, Control_c, 0, 64, 77
1, 188326, Note_on_c, 0, 56, 36
1, 188326, Control_c, 0, 64, 77
1, 188341, Control_c, 0, 64, 78
1, 188357, Control_c, 0, 64, 79
1, 188371, Note_off_c, 0, 56, 47
1, 188372, Control_c, 0, 64, 80
1, 188387, Control_c, 0, 64, 80
1, 188402, Control_c, 0, 64, 81
1, 188417, Control_c, 0, 64, 81
1, 188428, Note_on_c, 0, 52, 37
1, 188446, Control_c, 0, 64, 82
1, 188449, Note_on_c, 0, 49, 26
1, 188461, Control_c, 0, 64, 82
1, 188476, Note_off_c, 0, 61, 32
1, 188490, Control_c, 0, 64, 83
1, 188507, Note_off_c, 0, 64, 37
1, 188532, Note_off_c, 0, 49, 0
1, 188569, Poly_aftertouch_c, 0, 49, 127
1, 188574, Note_on_c, 0, 56, 37
1, 188606, Note_off_c, 0, 56, 52
1, 188632, Note_off_c, 0, 52, 17
1, 188664, Poly_aftertouch_c, 0, 49, 0
1, 188673, Note_on_c, 0, 56, 38
1, 188709, Note_off_c, 0, 56, 50
1, 188772, Control_c, 0, 64, 82
1, 188783, Note_off_c, 0, 69, 47
1, 188787, Control_c, 0, 64, 81
1, 188798, Note_on_c, 0, 68, 45
1, 188801, Control_c, 0, 64, 77
1, 188803, Note_on_c, 0, 60, 45
1, 188816, Control_c, 0, 64, 70
1, 188819, Note_on_c, 0, 63, 39
1, 188831, Control_c, 0, 64, 0
1, 188932, Note_on_c, 0, 56, 40
1, 188957, Control_c, 0, 64, 64
1, 188964, Note_off_c, 0, 56, 55
1, 188972, Control_c, 0, 64, 67
1, 188987, Control_c, 0, 64, 70
1, 189001, Control_c, 0, 64, 72
1, 189016, Control_c, 0, 64, 75
1, 189031, Control_c, 0, 64, 77
1, 189045, Note_on_c, 0, 56, 40
1, 189046, Control_c, 0, 64, 79
1, 189061, Control_c, 0, 64, 81
1, 189075, Control_c, 0, 64, 82
1, 189088, Note_off_c, 0, 56, 47
1, 189105, Control_c, 0, 64, 81
1, 189120, Control_c, 0, 64, 78
1, 189135, Control_c, 0, 64, 73
1, 189151, Control_c, 0, 64, 66
1, 189161, Note_off_c, 0, 60, 56
1, 189161, Note_on_c, 0, 51, 37
1, 189166, Control_c, 0, 64, 0
1, 189170, Note_on_c, 0, 48, 42
1, 189195, Control_c, 0, 64, 61
1, 189206, Note_off_c, 0, 63, 58
1, 189210, Control_c, 0, 64, 66
1, 189224, Control_c, 0, 64, 69
1, 189239, Control_c, 0, 64, 73
1, 189253, Note_off_c, 0, 68, 62
1, 189254, Control_c, 0, 64, 76
1, 189269, Control_c, 0, 64, 78
1, 189284, Control_c, 0, 64, 79
1, 189298, Control_c, 0, 64, 80
1, 189302, Note_on_c, 0, 56, 45
1, 189333, Note_off_c, 0, 56, 57
1, 189343, Control_c, 0, 64, 80
1, 189360, Note_off_c, 0, 51, 33
1, 189383, Note_off_c, 0, 48, 30
1, 189441, Note_on_c, 0, 56, 38
1, 189476, Note_off_c, 0, 56, 46
1, 189521, Control_c, 0, 64, 80
1, 189566, Control_c, 0, 64, 79
1, 189580, Control_c, 0, 64, 79
1, 189595, Control_c, 0, 64, 77
1, 189610, Control_c, 0, 64, 73
1, 189611, Note_on_c, 0, 81, 56
1, 189632, Control_c, 0, 64, 67
1, 189633, Note_on_c, 0, 76, 43
1, 189641, Note_on_c, 0, 73, 37
1, 189647, Control_c, 0, 64, 0
1, 189751, Control_c, 0, 64, 64
1, 189762, Note_on_c, 0, 56, 41
1, 189766, Control_c, 0, 64, 67
1, 189780, Control_c, 0, 64, 70
1, 189794, Note_off_c, 0, 56, 56
1, 189795, Control_c, 0, 64, 72
1, 189810, Control_c, 0, 64, 74
1, 189824, Control_c, 0, 64, 75
1, 189839, Control_c, 0, 64, 77
1, 189854, Control_c, 0, 64, 77
1, 189868, Note_on_c, 0, 56, 40
1, 189869, Control_c, 0, 64, 78
1, 189884, Control_c, 0, 64, 79
1, 189898, Control_c, 0, 64, 79
1, 189913, Note_off_c, 0, 56, 48
1, 189928, Control_c, 0, 64, 80
1, 189959, Control_c, 0, 64, 80
1, 189974, Control_c, 0, 64, 81
1, 189977, Note_on_c, 0, 52, 42
1, 189985, Note_on_c, 0, 49, 39
1, 189989, Control_c, 0, 64, 81
1, 190003, Control_c, 0, 64, 82
1, 190047, Control_c, 0, 64, 82
1, 190090, Note_off_c, 0, 76, 36
1, 190118, Note_on_c, 0, 56, 40
1, 190121, Control_c, 0, 64, 83
1, 190132, Note_off_c, 0, 73, 30
1, 190134, Note_off_c, 0, 52, 21
1, 190147, Note_off_c, 0, 56, 56
1, 190219, Note_off_c, 0, 49, 42
1, 190231, Note_on_c, 0, 56, 44
1, 190258, Note_off_c, 0, 56, 56
1, 190329, Control_c, 0, 64, 82
1, 190344, Note_off_c, 0, 81, 37
1, 190344, Control_c, 0, 64, 81
1, 190353, Note_on_c, 0, 80, 51
1, 190359, Control_c, 0, 64, 77
1, 190378, Note_on_c, 0, 72, 38
1, 190380, Control_c, 0, 64, 71
1, 190382, Note_on_c, 0, 75, 37
1, 190395, Control_c, 0, 64, 63
1, 190410, Control_c, 0, 64, 0
1, 190485, Note_on_c, 0, 56, 44
1, 190499, Control_c, 0, 64, 57
1, 190514, Control_c, 0, 64, 66
1, 190527, Note_off_c, 0, 56, 47
1, 190529, Control_c, 0, 64, 69
1, 190544, Control_c, 0, 64, 71
1, 190559, Control_c, 0, 64, 74
1, 190573, Control_c, 0, 64, 76
1, 190588, Control_c, 0, 64, 77
1, 190603, Control_c, 0, 64, 78
1, 190610, Note_on_c, 0, 56, 9
1, 190618, Control_c, 0, 64, 80
1, 190633, Control_c, 0, 64, 81
1, 190647, Control_c, 0, 64, 81
1, 190692, Control_c, 0, 64, 80
1, 190703, Note_off_c, 0, 56, 31
1, 190707, Control_c, 0, 64, 76
1, 190708, Note_on_c, 0, 51, 36
1, 190717, Note_off_c, 0, 80, 60
1, 190721, Control_c, 0, 64, 71
1, 190734, Note_on_c, 0, 48, 28
1, 190736, Control_c, 0, 64, 65
1, 190741, Note_off_c, 0, 75, 53
1, 190752, Control_c, 0, 64, 57
1, 190760, Note_off_c, 0, 72, 58
1, 190767, Control_c, 0, 64, 62
1, 190782, Control_c, 0, 64, 64
1, 190797, Control_c, 0, 64, 66
1, 190812, Control_c, 0, 64, 68
1, 190826, Control_c, 0, 64, 71
1, 190841, Control_c, 0, 64, 74
1, 190847, Note_on_c, 0, 56, 43
1, 190856, Control_c, 0, 64, 77
1, 190870, Control_c, 0, 64, 78
1, 190880, Note_off_c, 0, 56, 56
1, 190885, Control_c, 0, 64, 79
1, 190900, Control_c, 0, 64, 79
1, 190915, Control_c, 0, 64, 80
1, 190930, Control_c, 0, 64, 81
1, 190938, Note_off_c, 0, 51, 16
1, 190942, Note_off_c, 0, 48, 39
1, 190944, Control_c, 0, 64, 82
1, 190959, Control_c, 0, 64, 82
1, 190971, Note_on_c, 0, 56, 44
1, 190974, Control_c, 0, 64, 83
1, 190988, Control_c, 0, 64, 83
1, 190999, Note_off_c, 0, 56, 51
1, 191003, Control_c, 0, 64, 84
1, 191018, Control_c, 0, 64, 84
1, 191033, Control_c, 0, 64, 85
1, 191093, Control_c, 0, 64, 84
1, 191108, Control_c, 0, 64, 80
1, 191126, Note_on_c, 0, 68, 47
1, 191130, Control_c, 0, 64, 74
1, 191132, Note_on_c, 0, 59, 42
1, 191134, Note_on_c, 0, 62, 43
1, 191145, Control_c, 0, 64, 66
1, 191159, Control_c, 0, 64, 0
1, 191218, Control_c, 0, 64, 59
1, 191233, Control_c, 0, 64, 65
1, 191248, Control_c, 0, 64, 68
1, 191257, Note_on_c, 0, 56, 40
1, 191263, Control_c, 0, 64, 71
1, 191277, Control_c, 0, 64, 74
1, 191289, Note_off_c, 0, 56, 55
1, 191292, Control_c, 0, 64, 77
1, 191307, Control_c, 0, 64, 78
1, 191322, Control_c, 0, 64, 79
1, 191337, Control_c, 0, 64, 81
1, 191352, Control_c, 0, 64, 82
1, 191367, Control_c, 0, 64, 84
1, 191369, Note_on_c, 0, 56, 43
1, 191382, Control_c, 0, 64, 85
1, 191396, Control_c, 0, 64, 85
1, 191416, Note_off_c, 0, 56, 45
1, 191426, Control_c, 0, 64, 85
1, 191441, Control_c, 0, 64, 83
1, 191456, Control_c, 0, 64, 80
1, 191470, Control_c, 0, 64, 74
1, 191485, Control_c, 0, 64, 68
1, 191496, Note_on_c, 0, 50, 31
1, 191500, Note_on_c, 0, 47, 36
1, 191500, Control_c, 0, 64, 65
1, 191515, Control_c, 0, 64, 66
1, 191525, Note_off_c, 0, 59, 53
1, 191529, Control_c, 0, 64, 66
1, 191546, Control_c, 0, 64, 67
1, 191552, Note_off_c, 0, 68, 55
1, 191561, Control_c, 0, 64, 69
1, 191575, Control_c, 0, 64, 71
1, 191584, Note_off_c, 0, 62, 61
1, 191590, Control_c, 0, 64, 74
1, 191605, Control_c, 0, 64, 76
1, 191619, Control_c, 0, 64, 79
1, 191633, Note_on_c, 0, 56, 36
1, 191634, Control_c, 0, 64, 80
1, 191649, Control_c, 0, 64, 80
1, 191664, Control_c, 0, 64, 81
1, 191668, Note_off_c, 0, 56, 51
1, 191679, Control_c, 0, 64, 82
1, 191693, Control_c, 0, 64, 83
1, 191708, Control_c, 0, 64, 84
1, 191723, Control_c, 0, 64, 84
1, 191730, Note_off_c, 0, 50, 33
1, 191738, Control_c, 0, 64, 85
1, 191743, Note_on_c, 0, 56, 40
1, 191751, Note_off_c, 0, 47, 36
1, 191767, Control_c, 0, 64, 85
1, 191782, Control_c, 0, 64, 86
1, 191788, Note_off_c, 0, 56, 55
1, 191826, Control_c, 0, 64, 85
1, 191841, Control_c, 0, 64, 82
1, 191856, Control_c, 0, 64, 77
1, 191872, Note_on_c, 0, 67, 42
1, 191879, Control_c, 0, 64, 71
1, 191885, Note_on_c, 0, 58, 39
1, 191889, Note_on_c, 0, 61, 39
1, 191894, Control_c, 0, 64, 66
1, 191908, Control_c, 0, 64, 64
1, 191938, Control_c, 0, 64, 65
1, 191967, Control_c, 0, 64, 65
1, 191982, Control_c, 0, 64, 67
1, 191997, Control_c, 0, 64, 69
1, 192006, Note_on_c, 0, 56, 37
1, 192012, Control_c, 0, 64, 72
1, 192026, Control_c, 0, 64, 75
1, 192040, Note_off_c, 0, 56, 52
1, 192041, Control_c, 0, 64, 77
1, 192056, Control_c, 0, 64, 79
1, 192071, Control_c, 0, 64, 80
1, 192086, Control_c, 0, 64, 81
1, 192100, Control_c, 0, 64, 82
1, 192115, Control_c, 0, 64, 84
1, 192128, Note_on_c, 0, 56, 32
1, 192130, Control_c, 0, 64, 84
1, 192175, Control_c, 0, 64, 84
1, 192176, Note_off_c, 0, 56, 43
1, 192190, Control_c, 0, 64, 82
1, 192205, Control_c, 0, 64, 79
1, 192219, Control_c, 0, 64, 73
1, 192222, Note_off_c, 0, 67, 38
1, 192234, Note_on_c, 0, 49, 32
1, 192234, Control_c, 0, 64, 68
1, 192237, Note_on_c, 0, 46, 34
1, 192249, Control_c, 0, 64, 66
1, 192263, Note_off_c, 0, 61, 54
1, 192264, Control_c, 0, 64, 65
1, 192301, Note_off_c, 0, 58, 49
1, 192309, Control_c, 0, 64, 66
1, 192324, Control_c, 0, 64, 67
1, 192339, Control_c, 0, 64, 69
1, 192354, Control_c, 0, 64, 71
1, 192369, Control_c, 0, 64, 74
1, 192380, Note_on_c, 0, 56, 37
1, 192384, Control_c, 0, 64, 77
1, 192398, Control_c, 0, 64, 79
1, 192413, Note_off_c, 0, 56, 53
1, 192413, Control_c, 0, 64, 79
1, 192428, Control_c, 0, 64, 80
1, 192443, Control_c, 0, 64, 81
1, 192458, Control_c, 0, 64, 82
1, 192473, Control_c, 0, 64, 82
1, 192482, Note_off_c, 0, 49, 38
1, 192488, Control_c, 0, 64, 83
1, 192490, Note_off_c, 0, 46, 38
1, 192509, Note_on_c, 0, 56, 30
1, 192543, Note_off_c, 0, 56, 53
1, 192547, Control_c, 0, 64, 83
1, 192591, Control_c, 0, 64, 83
1, 192606, Control_c, 0, 64, 82
1, 192628, Control_c, 0, 64, 79
1, 192642, Note_on_c, 0, 60, 40
1, 192643, Note_on_c, 0, 66, 41
1, 192643, Note_on_c, 0, 57, 34
1, 192643, Control_c, 0, 64, 74
1, 192658, Control_c, 0, 64, 68
1, 192673, Control_c, 0, 64, 65
1, 192687, Control_c, 0, 64, 64
1, 192702, Control_c, 0, 64, 65
1, 192747, Control_c, 0, 64, 66
1, 192762, Control_c, 0, 64, 68
1, 192763, Note_on_c, 0, 56, 37
1, 192776, Control_c, 0, 64, 70
1, 192791, Control_c, 0, 64, 73
1, 192800, Note_off_c, 0, 56, 53
1, 192806, Control_c, 0, 64, 76
1, 192821, Control_c, 0, 64, 78
1, 192836, Control_c, 0, 64, 79
1, 192850, Control_c, 0, 64, 79
1, 192865, Control_c, 0, 64, 81
1, 192880, Control_c, 0, 64, 82
1, 192887, Note_on_c, 0, 56, 35
1, 192895, Control_c, 0, 64, 82
1, 192939, Control_c, 0, 64, 82
1, 192954, Control_c, 0, 64, 81
1, 192968, Control_c, 0, 64, 81
1, 192983, Control_c, 0, 64, 80
1, 193020, Note_on_c, 0, 48, 27
1, 193023, Note_on_c, 0, 45, 30
1, 193039, Note_off_c, 0, 56, 21
1, 193087, Control_c, 0, 64, 81
1, 193116, Control_c, 0, 64, 81
1, 193146, Control_c, 0, 64, 82
1, 193161, Control_c, 0, 64, 82
1, 193176, Control_c, 0, 64, 83
1, 193186, Note_on_c, 0, 56, 43
1, 193191, Control_c, 0, 64, 84
1, 193191, Note_off_c, 0, 57, 34
1, 193206, Control_c, 0, 64, 85
1, 193221, Control_c, 0, 64, 85
1, 193234, Note_off_c, 0, 56, 46
1, 193236, Control_c, 0, 64, 86
1, 193245, Note_off_c, 0, 66, 35
1, 193265, Control_c, 0, 64, 86
1, 193295, Control_c, 0, 64, 87
1, 193307, Note_off_c, 0, 60, 31
1, 193392, Note_on_c, 0, 56, 28
1, 193454, Note_off_c, 0, 56, 42
1, 193528, Note_off_c, 0, 48, 36
1, 193574, Note_off_c, 0, 45, 38
1, 193584, Control_c, 0, 64, 86
1, 193702, Control_c, 0, 64, 86
1, 193716, Control_c, 0, 64, 85
1, 193731, Control_c, 0, 64, 84
1, 193746, Control_c, 0, 64, 83
1, 193761, Control_c, 0, 64, 81
1, 193764, Note_on_c, 0, 66, 42
1, 193776, Control_c, 0, 64, 78
1, 193778, Note_on_c, 0, 56, 36
1, 193778, Note_on_c, 0, 60, 37
1, 193790, Control_c, 0, 64, 75
1, 193805, Control_c, 0, 64, 71
1, 193820, Control_c, 0, 64, 68
1, 193835, Control_c, 0, 64, 68
1, 193850, Control_c, 0, 64, 67
1, 193865, Control_c, 0, 64, 66
1, 193880, Control_c, 0, 64, 65
1, 193895, Control_c, 0, 64, 64
1, 193910, Control_c, 0, 64, 62
1, 193924, Control_c, 0, 64, 55
1, 193940, Control_c, 0, 64, 30
1, 193955, Control_c, 0, 64, 0
1, 194020, Note_on_c, 0, 44, 21
1, 194154, Control_c, 0, 64, 59
1, 194169, Control_c, 0, 64, 65
1, 194173, Note_off_c, 0, 44, 57
1, 194184, Control_c, 0, 64, 66
1, 194189, Note_on_c, 0, 43, 35
1, 194199, Control_c, 0, 64, 67
1, 194214, Control_c, 0, 64, 68
1, 194229, Control_c, 0, 64, 70
1, 194243, Control_c, 0, 64, 73
1, 194258, Control_c, 0, 64, 75
1, 194259, Note_off_c, 0, 56, 62
1, 194273, Control_c, 0, 64, 76
1, 194288, Control_c, 0, 64, 77
1, 194295, Note_off_c, 0, 60, 58
1, 194303, Control_c, 0, 64, 78
1, 194318, Control_c, 0, 64, 78
1, 194325, Note_on_c, 0, 44, 42
1, 194328, Note_off_c, 0, 43, 52
1, 194333, Control_c, 0, 64, 79
1, 194347, Control_c, 0, 64, 80
1, 194382, Note_off_c, 0, 66, 61
1, 194444, Note_off_c, 0, 44, 60
1, 194458, Note_on_c, 0, 46, 45
1, 194583, Note_on_c, 0, 44, 38
1, 194584, Control_c, 0, 64, 79
1, 194638, Note_off_c, 0, 46, 50
1, 194658, Control_c, 0, 64, 79
1, 194688, Control_c, 0, 64, 78
1, 194703, Control_c, 0, 64, 78
1, 194717, Control_c, 0, 64, 77
1, 194732, Control_c, 0, 64, 76
1, 194735, Note_on_c, 0, 75, 46
1, 194748, Control_c, 0, 64, 75
1, 194754, Note_on_c, 0, 42, 41
1, 194762, Control_c, 0, 64, 74
1, 194777, Control_c, 0, 64, 73
1, 194779, Note_off_c, 0, 44, 36
1, 194792, Control_c, 0, 64, 73
1, 194807, Control_c, 0, 64, 72
1, 194822, Control_c, 0, 64, 72
1, 194852, Control_c, 0, 64, 71
1, 194914, Note_on_c, 0, 77, 49
1, 194918, Control_c, 0, 64, 71
1, 194920, Note_on_c, 0, 44, 48
1, 194926, Note_off_c, 0, 75, 57
1, 194945, Note_off_c, 0, 42, 56
1, 195037, Control_c, 0, 64, 70
1, 195043, Note_off_c, 0, 77, 57
1, 195049, Note_on_c, 0, 75, 61
1, 195068, Note_on_c, 0, 42, 46
1, 195170, Note_off_c, 0, 75, 60
1, 195178, Note_on_c, 0, 73, 54
1, 195179, Note_on_c, 0, 41, 50
1, 195180, Note_off_c, 0, 42, 57
1, 195285, Note_off_c, 0, 41, 59
1, 195305, Note_on_c, 0, 75, 58
1, 195311, Note_off_c, 0, 73, 60
1, 195314, Note_on_c, 0, 42, 57
1, 195410, Note_off_c, 0, 42, 56
1, 195421, Note_on_c, 0, 41, 52
1, 195436, Note_on_c, 0, 73, 58
1, 195468, Note_off_c, 0, 75, 57
1, 195510, Control_c, 0, 64, 70
1, 195533, Note_off_c, 0, 41, 56
1, 195574, Note_on_c, 0, 39, 36
1, 195582, Note_on_c, 0, 72, 60
1, 195585, Control_c, 0, 64, 69
1, 195588, Note_off_c, 0, 73, 56
1, 195606, Note_off_c, 0, 44, 55
1, 195623, Control_c, 0, 64, 69
1, 195638, Control_c, 0, 64, 68
1, 195653, Control_c, 0, 64, 67
1, 195667, Control_c, 0, 64, 67
1, 195682, Control_c, 0, 64, 66
1, 195697, Control_c, 0, 64, 65
1, 195712, Control_c, 0, 64, 62
1, 195726, Control_c, 0, 64, 0
1, 195751, Note_on_c, 0, 44, 46
1, 195754, Note_on_c, 0, 78, 64
1, 195868, Note_off_c, 0, 44, 58
1, 195894, Note_on_c, 0, 43, 44
1, 195904, Control_c, 0, 64, 64
1, 195919, Control_c, 0, 64, 68
1, 195934, Control_c, 0, 64, 71
1, 195949, Control_c, 0, 64, 74
1, 195963, Control_c, 0, 64, 77
1, 195978, Control_c, 0, 64, 80
1, 195986, Note_off_c, 0, 72, 59
1, 195993, Control_c, 0, 64, 81
1, 196008, Note_off_c, 0, 43, 61
1, 196008, Control_c, 0, 64, 82
1, 196021, Note_on_c, 0, 44, 45
1, 196023, Control_c, 0, 64, 84
1, 196027, Note_off_c, 0, 39, 60
1, 196038, Control_c, 0, 64, 85
1, 196053, Control_c, 0, 64, 86
1, 196064, Note_off_c, 0, 78, 60
1, 196068, Control_c, 0, 64, 87
1, 196083, Control_c, 0, 64, 87
1, 196098, Control_c, 0, 64, 88
1, 196141, Note_off_c, 0, 44, 61
1, 196142, Control_c, 0, 64, 88
1, 196152, Note_on_c, 0, 46, 60
1, 196216, Control_c, 0, 64, 89
1, 196234, Note_off_c, 0, 46, 61
1, 196260, Note_on_c, 0, 44, 53
1, 196335, Control_c, 0, 64, 86
1, 196350, Control_c, 0, 64, 81
1, 196372, Control_c, 0, 64, 71
1, 196385, Note_on_c, 0, 78, 56
1, 196387, Control_c, 0, 64, 48
1, 196393, Note_on_c, 0, 39, 48
1, 196402, Control_c, 0, 64, 0
1, 196476, Control_c, 0, 64, 59
1, 196491, Control_c, 0, 64, 68
1, 196506, Control_c, 0, 64, 72
1, 196518, Note_off_c, 0, 39, 61
1, 196521, Control_c, 0, 64, 75
1, 196524, Note_on_c, 0, 80, 67
1, 196536, Control_c, 0, 64, 78
1, 196538, Note_on_c, 0, 41, 49
1, 196547, Note_off_c, 0, 78, 61
1, 196550, Control_c, 0, 64, 80
1, 196565, Control_c, 0, 64, 81
1, 196580, Control_c, 0, 64, 82
1, 196595, Control_c, 0, 64, 83
1, 196610, Control_c, 0, 64, 83
1, 196624, Control_c, 0, 64, 84
1, 196646, Note_off_c, 0, 41, 56
1, 196652, Note_on_c, 0, 39, 61
1, 196652, Note_on_c, 0, 78, 74
1, 196654, Control_c, 0, 64, 85
1, 196708, Note_off_c, 0, 80, 53
1, 196713, Control_c, 0, 64, 85
1, 196767, Note_on_c, 0, 77, 73
1, 196783, Note_on_c, 0, 37, 61
1, 196789, Note_off_c, 0, 78, 61
1, 196795, Note_off_c, 0, 39, 60
1, 196863, Note_off_c, 0, 37, 61
1, 196890, Note_on_c, 0, 78, 85
1, 196911, Note_off_c, 0, 77, 59
1, 196917, Note_on_c, 0, 39, 63
1, 196920, Control_c, 0, 64, 85
1, 196979, Control_c, 0, 64, 84
1, 197001, Note_off_c, 0, 39, 61
1, 197004, Note_on_c, 0, 37, 59
1, 197008, Control_c, 0, 64, 84
1, 197023, Control_c, 0, 64, 83
1, 197028, Note_on_c, 0, 77, 78
1, 197053, Control_c, 0, 64, 83
1, 197068, Note_off_c, 0, 78, 58
1, 197082, Control_c, 0, 64, 82
1, 197097, Control_c, 0, 64, 82
1, 197120, Control_c, 0, 64, 81
1, 197139, Note_off_c, 0, 37, 61
1, 197150, Control_c, 0, 64, 81
1, 197180, Control_c, 0, 64, 80
1, 197209, Control_c, 0, 64, 80
1, 197224, Control_c, 0, 64, 79
1, 197227, Note_on_c, 0, 75, 77
1, 197232, Note_on_c, 0, 36, 56
1, 197233, Note_off_c, 0, 77, 61
1, 197239, Control_c, 0, 64, 78
1, 197254, Control_c, 0, 64, 76
1, 197260, Note_off_c, 0, 44, 62
1, 197269, Control_c, 0, 64, 73
1, 197284, Control_c, 0, 64, 68
1, 197299, Control_c, 0, 64, 64
1, 197313, Control_c, 0, 64, 0
1, 197412, Note_on_c, 0, 44, 49
1, 197435, Note_on_c, 0, 87, 80
1, 197446, Control_c, 0, 64, 66
1, 197461, Control_c, 0, 64, 70
1, 197476, Control_c, 0, 64, 74
1, 197491, Control_c, 0, 64, 78
1, 197506, Control_c, 0, 64, 81
1, 197520, Control_c, 0, 64, 83
1, 197535, Control_c, 0, 64, 85
1, 197543, Note_off_c, 0, 75, 62
1, 197550, Control_c, 0, 64, 86
1, 197551, Note_on_c, 0, 43, 57
1, 197555, Note_off_c, 0, 44, 56
1, 197564, Control_c, 0, 64, 87
1, 197579, Control_c, 0, 64, 88
1, 197594, Control_c, 0, 64, 89
1, 197609, Control_c, 0, 64, 89
1, 197642, Note_off_c, 0, 36, 62
1, 197657, Note_off_c, 0, 43, 60
1, 197675, Note_on_c, 0, 44, 63
1, 197711, Note_off_c, 0, 87, 53
1, 197787, Control_c, 0, 64, 90
1, 197791, Note_off_c, 0, 44, 58
1, 197794, Note_on_c, 0, 46, 65
1, 197831, Control_c, 0, 64, 90
1, 197868, Control_c, 0, 64, 91
1, 197883, Note_off_c, 0, 46, 62
1, 197883, Control_c, 0, 64, 91
1, 197898, Control_c, 0, 64, 92
1, 197913, Control_c, 0, 64, 93
1, 197916, Note_on_c, 0, 44, 64
1, 197928, Control_c, 0, 64, 93
1, 197943, Control_c, 0, 64, 94
1, 197958, Control_c, 0, 64, 94
1, 197973, Control_c, 0, 64, 95
1, 198002, Control_c, 0, 64, 95
1, 198032, Control_c, 0, 64, 93
1, 198047, Control_c, 0, 64, 88
1, 198062, Control_c, 0, 64, 79
1, 198063, Note_on_c, 0, 87, 70
1, 198077, Control_c, 0, 64, 67
1, 198092, Control_c, 0, 64, 0
1, 198097, Note_on_c, 0, 36, 41
1, 198113, Note_on_c, 0, 35, 31
1, 198151, Note_off_c, 0, 35, 40
1, 198225, Control_c, 0, 64, 63
1, 198239, Note_on_c, 0, 37, 67
1, 198240, Control_c, 0, 64, 69
1, 198245, Note_on_c, 0, 89, 70
1, 198254, Control_c, 0, 64, 72
1, 198259, Note_off_c, 0, 36, 57
1, 198269, Control_c, 0, 64, 75
1, 198284, Control_c, 0, 64, 77
1, 198289, Note_off_c, 0, 87, 64
1, 198299, Control_c, 0, 64, 80
1, 198313, Control_c, 0, 64, 82
1, 198328, Control_c, 0, 64, 85
1, 198343, Control_c, 0, 64, 87
1, 198346, Note_off_c, 0, 37, 56
1, 198356, Note_on_c, 0, 36, 57
1, 198358, Control_c, 0, 64, 88
1, 198373, Control_c, 0, 64, 89
1, 198379, Note_on_c, 0, 87, 83
1, 198387, Control_c, 0, 64, 90
1, 198402, Control_c, 0, 64, 91
1, 198417, Control_c, 0, 64, 91
1, 198432, Control_c, 0, 64, 92
1, 198438, Note_off_c, 0, 89, 55
1, 198447, Control_c, 0, 64, 92
1, 198461, Control_c, 0, 64, 93
1, 198490, Note_on_c, 0, 34, 67
1, 198491, Note_off_c, 0, 36, 61
1, 198494, Note_on_c, 0, 85, 79
1, 198526, Note_off_c, 0, 87, 66
1, 198599, Note_off_c, 0, 34, 61
1, 198624, Note_on_c, 0, 87, 85
1, 198625, Note_on_c, 0, 36, 66
1, 198646, Control_c, 0, 64, 93
1, 198658, Note_off_c, 0, 85, 63
1, 198709, Note_off_c, 0, 36, 61
1, 198724, Note_on_c, 0, 34, 65
1, 198743, Note_on_c, 0, 85, 85
1, 198766, Note_off_c, 0, 34, 63
1, 198766, Control_c, 0, 64, 93
1, 198778, Note_off_c, 0, 87, 64
1, 198796, Control_c, 0, 64, 92
1, 198809, Note_off_c, 0, 85, 63
1, 198810, Control_c, 0, 64, 91
1, 198825, Control_c, 0, 64, 90
1, 198840, Control_c, 0, 64, 89
1, 198853, Note_on_c, 0, 32, 69
1, 198855, Control_c, 0, 64, 87
1, 198865, Note_on_c, 0, 84, 77
1, 198870, Control_c, 0, 64, 85
1, 198874, Note_off_c, 0, 44, 57
1, 198885, Control_c, 0, 64, 81
1, 198900, Control_c, 0, 64, 78
1, 198915, Control_c, 0, 64, 75
1, 198929, Control_c, 0, 64, 74
1, 198944, Control_c, 0, 64, 73
1, 198959, Control_c, 0, 64, 73
1, 198971, Note_on_c, 0, 31, 70
1, 198974, Control_c, 0, 64, 71
1, 198985, Note_on_c, 0, 85, 78
1, 198989, Control_c, 0, 64, 70
1, 199004, Control_c, 0, 64, 69
1, 199004, Note_off_c, 0, 32, 62
1, 199011, Note_off_c, 0, 84, 62
1, 199019, Control_c, 0, 64, 69
1, 199064, Control_c, 0, 64, 68
1, 199078, Control_c, 0, 64, 68
1, 199093, Control_c, 0, 64, 67
1, 199099, Note_on_c, 0, 84, 81
1, 199100, Note_on_c, 0, 32, 75
1, 199108, Control_c, 0, 64, 67
1, 199122, Note_off_c, 0, 31, 60
1, 199141, Note_off_c, 0, 85, 61
1, 199167, Control_c, 0, 64, 66
1, 199197, Control_c, 0, 64, 66
1, 199212, Note_on_c, 0, 34, 75
1, 199213, Note_on_c, 0, 82, 82
1, 199234, Note_off_c, 0, 32, 63
1, 199238, Note_off_c, 0, 84, 62
1, 199285, Control_c, 0, 64, 65
1, 199336, Note_on_c, 0, 84, 76
1, 199342, Note_on_c, 0, 32, 74
1, 199344, Note_off_c, 0, 34, 62
1, 199377, Note_off_c, 0, 82, 62
1, 199411, Control_c, 0, 64, 65
1, 199441, Control_c, 0, 64, 64
1, 199462, Note_on_c, 0, 34, 69
1, 199471, Note_on_c, 0, 82, 76
1, 199481, Note_off_c, 0, 84, 60
1, 199500, Control_c, 0, 64, 64
1, 199505, Note_off_c, 0, 32, 49
1, 199575, Control_c, 0, 64, 63
1, 199598, Note_on_c, 0, 80, 70
1, 199600, Note_on_c, 0, 35, 54
1, 199601, Note_off_c, 0, 34, 59
1, 199605, Control_c, 0, 64, 63
1, 199620, Control_c, 0, 64, 62
1, 199623, Note_off_c, 0, 82, 61
1, 199634, Control_c, 0, 64, 61
1, 199649, Control_c, 0, 64, 61
1, 199664, Control_c, 0, 64, 60
1, 199728, Note_off_c, 0, 35, 60
1, 199733, Note_on_c, 0, 82, 69
1, 199734, Note_on_c, 0, 34, 57
1, 199749, Note_off_c, 0, 80, 60
1, 199827, Control_c, 0, 64, 61
1, 199854, Note_off_c, 0, 34, 59
1, 199861, Note_on_c, 0, 80, 67
1, 199864, Note_on_c, 0, 35, 59
1, 199876, Note_off_c, 0, 82, 56
1, 200001, Note_off_c, 0, 35, 53
1, 200003, Note_on_c, 0, 36, 51
1, 200015, Note_on_c, 0, 78, 62
1, 200020, Control_c, 0, 64, 60
1, 200023, Note_off_c, 0, 80, 61
1, 200049, Control_c, 0, 64, 59
1, 200093, Control_c, 0, 64, 58
1, 200116, Control_c, 0, 64, 54
1, 200131, Control_c, 0, 64, 48
1, 200146, Control_c, 0, 64, 34
1, 200160, Control_c, 0, 64, 0
1, 200177, Note_off_c, 0, 36, 58
1, 200187, Note_on_c, 0, 35, 45
1, 200193, Note_on_c, 0, 80, 52
1, 200193, Note_off_c, 0, 78, 59
1, 200389, Note_off_c, 0, 35, 60
1, 200390, Note_on_c, 0, 78, 48
1, 200396, Note_on_c, 0, 36, 49
1, 200409, Note_off_c, 0, 80, 50
1, 200487, Control_c, 0, 64, 65
1, 200502, Control_c, 0, 64, 70
1, 200516, Control_c, 0, 64, 74
1, 200531, Control_c, 0, 64, 77
1, 200533, Note_off_c, 0, 36, 62
1, 200546, Control_c, 0, 64, 79
1, 200561, Control_c, 0, 64, 81
1, 200576, Control_c, 0, 64, 83
1, 200590, Control_c, 0, 64, 84
1, 200605, Control_c, 0, 64, 84
1, 200620, Control_c, 0, 64, 85
1, 200635, Control_c, 0, 64, 86
1, 200650, Control_c, 0, 64, 86
1, 200679, Control_c, 0, 64, 87
1, 200754, Control_c, 0, 64, 86
1, 200769, Control_c, 0, 64, 85
1, 200783, Control_c, 0, 64, 82
1, 200790, Note_on_c, 0, 37, 42
1, 200795, Note_on_c, 0, 77, 52
1, 200798, Control_c, 0, 64, 77
1, 200813, Control_c, 0, 64, 69
1, 200823, Note_off_c, 0, 78, 55
1, 200827, Control_c, 0, 64, 54
1, 200842, Control_c, 0, 64, 0
1, 201027, Control_c, 0, 64, 64
1, 201042, Control_c, 0, 64, 67
1, 201057, Control_c, 0, 64, 69
1, 201072, Control_c, 0, 64, 71
1, 201087, Control_c, 0, 64, 74
1, 201100, Note_off_c, 0, 37, 56
1, 201102, Control_c, 0, 64, 76
1, 201116, Control_c, 0, 64, 78
1, 201120, Note_on_c, 0, 41, 30
1, 201132, Control_c, 0, 64, 80
1, 201139, Note_on_c, 0, 44, 20
1, 201147, Control_c, 0, 64, 82
1, 201151, Note_on_c, 0, 49, 19
1, 201162, Control_c, 0, 64, 84
1, 201177, Control_c, 0, 64, 85
1, 201192, Control_c, 0, 64, 87
1, 201206, Control_c, 0, 64, 88
1, 201208, Note_off_c, 0, 41, 51
1, 201209, Note_off_c, 0, 44, 46
1, 201212, Note_off_c, 0, 49, 44
1, 201221, Control_c, 0, 64, 89
1, 201234, Control_c, 0, 64, 91
1, 201249, Control_c, 0, 64, 92
1, 201262, Note_on_c, 0, 37, 40
1, 201264, Control_c, 0, 64, 93
1, 201278, Control_c, 0, 64, 94
1, 201293, Control_c, 0, 64, 96
1, 201353, Control_c, 0, 64, 98
1, 201373, Note_off_c, 0, 37, 41
1, 201404, Note_on_c, 0, 41, 37
1, 201409, Note_on_c, 0, 44, 33
1, 201417, Note_on_c, 0, 49, 33
1, 201442, Control_c, 0, 64, 100
1, 201479, Note_off_c, 0, 44, 55
1, 201481, Note_off_c, 0, 49, 51
1, 201494, Note_off_c, 0, 41, 53
1, 201500, Note_off_c, 0, 77, 52
1, 201536, Note_on_c, 0, 37, 45
1, 201545, Control_c, 0, 64, 102
1, 201590, Control_c, 0, 64, 105
1, 201612, Control_c, 0, 64, 107
1, 201614, Note_off_c, 0, 37, 51
1, 201627, Control_c, 0, 64, 110
1, 201642, Control_c, 0, 64, 113
1, 201656, Control_c, 0, 64, 115
1, 201659, Note_on_c, 0, 41, 44
1, 201659, Note_on_c, 0, 44, 33
1, 201669, Note_on_c, 0, 49, 30
1, 201671, Control_c, 0, 64, 120
1, 201686, Control_c, 0, 64, 127
1, 201736, Note_off_c, 0, 44, 57
1, 201740, Note_off_c, 0, 41, 52
1, 201743, Note_off_c, 0, 49, 55
1, 201770, Note_on_c, 0, 37, 44
1, 201871, Note_off_c, 0, 37, 56
1, 201892, Note_on_c, 0, 49, 42
1, 201898, Note_on_c, 0, 44, 32
1, 201901, Note_on_c, 0, 41, 44
1, 201974, Note_off_c, 0, 44, 54
1, 201976, Note_off_c, 0, 41, 53
1, 201984, Note_off_c, 0, 49, 49
1, 202021, Note_on_c, 0, 37, 51
1, 202113, Note_off_c, 0, 37, 57
1, 202133, Note_on_c, 0, 41, 38
1, 202137, Note_on_c, 0, 44, 30
1, 202140, Note_on_c, 0, 65, 51
1, 202141, Note_on_c, 0, 49, 34
1, 202151, Note_on_c, 0, 53, 45
1, 202227, Note_off_c, 0, 44, 54
1, 202228, Note_off_c, 0, 49, 53
1, 202238, Note_off_c, 0, 41, 54
1, 202259, Note_on_c, 0, 37, 50
1, 202267, Note_off_c, 0, 53, 61
1, 202323, Note_off_c, 0, 65, 65
1, 202346, Note_off_c, 0, 37, 59
1, 202386, Note_on_c, 0, 44, 37
1, 202393, Note_on_c, 0, 41, 35
1, 202399, Note_on_c, 0, 49, 28
1, 202434, Note_on_c, 0, 68, 55
1, 202436, Note_on_c, 0, 56, 42
1, 202465, Note_off_c, 0, 56, 57
1, 202482, Note_off_c, 0, 68, 60
1, 202515, Note_on_c, 0, 37, 48
1, 202550, Note_off_c, 0, 41, 35
1, 202568, Note_off_c, 0, 44, 32
1, 202570, Note_on_c, 0, 73, 62
1, 202579, Note_on_c, 0, 61, 53
1, 202580, Note_off_c, 0, 49, 41
1, 202678, Note_off_c, 0, 37, 60
1, 202700, Note_on_c, 0, 44, 40
1, 202706, Note_on_c, 0, 49, 43
1, 202715, Note_off_c, 0, 61, 58
1, 202726, Note_on_c, 0, 41, 38
1, 202808, Note_off_c, 0, 41, 51
1, 202817, Note_off_c, 0, 44, 54
1, 202830, Note_on_c, 0, 37, 54
1, 202861, Note_off_c, 0, 49, 35
1, 202939, Note_off_c, 0, 37, 59
1, 202971, Note_on_c, 0, 77, 66
1, 202980, Note_on_c, 0, 65, 49
1, 202983, Note_on_c, 0, 44, 37
1, 202986, Note_on_c, 0, 41, 33
1, 202997, Note_on_c, 0, 49, 44
1, 203016, Note_off_c, 0, 73, 60
1, 203040, Note_off_c, 0, 44, 57
1, 203058, Note_off_c, 0, 49, 52
1, 203070, Note_off_c, 0, 41, 42
1, 203080, Note_off_c, 0, 65, 63
1, 203084, Note_on_c, 0, 37, 52
1, 203114, Note_off_c, 0, 77, 60
1, 203177, Note_off_c, 0, 37, 58
1, 203195, Note_on_c, 0, 44, 34
1, 203198, Note_on_c, 0, 49, 44
1, 203252, Note_on_c, 0, 73, 60
1, 203274, Note_on_c, 0, 61, 47
1, 203317, Note_off_c, 0, 44, 53
1, 203317, Control_c, 0, 64, 109
1, 203318, Note_off_c, 0, 61, 61
1, 203329, Note_off_c, 0, 49, 36
1, 203332, Control_c, 0, 64, 89
1, 203341, Note_on_c, 0, 39, 52
1, 203347, Control_c, 0, 64, 78
1, 203362, Control_c, 0, 64, 64
1, 203370, Note_on_c, 0, 72, 63
1, 203374, Note_on_c, 0, 60, 46
1, 203377, Control_c, 0, 64, 0
1, 203378, Note_off_c, 0, 73, 55
1, 203466, Control_c, 0, 64, 66
1, 203475, Note_off_c, 0, 39, 58
1, 203480, Control_c, 0, 64, 73
1, 203495, Control_c, 0, 64, 79
1, 203499, Note_on_c, 0, 51, 43
1, 203503, Note_on_c, 0, 44, 25
1, 203507, Note_on_c, 0, 42, 39
1, 203509, Control_c, 0, 64, 85
1, 203525, Control_c, 0, 64, 90
1, 203540, Control_c, 0, 64, 93
1, 203549, Note_off_c, 0, 51, 54
1, 203555, Control_c, 0, 64, 96
1, 203562, Note_off_c, 0, 60, 57
1, 203570, Control_c, 0, 64, 98
1, 203582, Note_off_c, 0, 42, 50
1, 203585, Note_off_c, 0, 44, 53
1, 203585, Control_c, 0, 64, 100
1, 203612, Note_on_c, 0, 39, 54
1, 203614, Control_c, 0, 64, 102
1, 203658, Control_c, 0, 64, 105
1, 203688, Control_c, 0, 64, 108
1, 203717, Control_c, 0, 64, 110
1, 203723, Note_off_c, 0, 39, 55
1, 203735, Note_on_c, 0, 42, 44
1, 203741, Note_on_c, 0, 75, 69
1, 203742, Note_on_c, 0, 44, 36
1, 203747, Control_c, 0, 64, 112
1, 203750, Note_on_c, 0, 63, 53
1, 203759, Note_on_c, 0, 51, 40
1, 203762, Control_c, 0, 64, 114
1, 203771, Note_off_c, 0, 72, 50
1, 203777, Control_c, 0, 64, 116
1, 203814, Note_off_c, 0, 42, 51
1, 203815, Note_off_c, 0, 51, 52
1, 203818, Note_off_c, 0, 44, 55
1, 203832, Note_off_c, 0, 63, 59
1, 203858, Control_c, 0, 64, 119
1, 203872, Note_on_c, 0, 39, 54
1, 203903, Control_c, 0, 64, 121
1, 203947, Control_c, 0, 64, 124
1, 203963, Note_off_c, 0, 75, 61
1, 203966, Note_on_c, 0, 44, 37
1, 203969, Note_on_c, 0, 42, 42
1, 203974, Note_off_c, 0, 39, 57
1, 203997, Note_on_c, 0, 51, 36
1, 203997, Note_off_c, 0, 44, 58
1, 204001, Note_off_c, 0, 42, 53
1, 204029, Note_off_c, 0, 51, 59
1, 204050, Note_on_c, 0, 72, 60
1, 204059, Note_on_c, 0, 60, 47
1, 204080, Control_c, 0, 64, 121
1, 204098, Note_off_c, 0, 60, 62
1, 204155, Control_c, 0, 64, 119
1, 204170, Control_c, 0, 64, 113
1, 204185, Control_c, 0, 64, 103
1, 204199, Control_c, 0, 64, 90
1, 204214, Control_c, 0, 64, 77
1, 204229, Control_c, 0, 64, 66
1, 204244, Control_c, 0, 64, 0
1, 204247, Note_on_c, 0, 41, 43
1, 204249, Note_on_c, 0, 61, 47
1, 204252, Note_on_c, 0, 73, 62
1, 204257, Note_off_c, 0, 72, 59
1, 204400, Note_off_c, 0, 41, 57
1, 204408, Control_c, 0, 64, 68
1, 204422, Control_c, 0, 64, 74
1, 204423, Note_on_c, 0, 53, 35
1, 204427, Note_on_c, 0, 49, 36
1, 204433, Note_on_c, 0, 44, 23
1, 204437, Control_c, 0, 64, 80
1, 204452, Control_c, 0, 64, 86
1, 204455, Note_off_c, 0, 73, 61
1, 204466, Control_c, 0, 64, 90
1, 204481, Control_c, 0, 64, 93
1, 204482, Note_off_c, 0, 61, 61
1, 204486, Note_off_c, 0, 44, 47
1, 204496, Control_c, 0, 64, 97
1, 204501, Note_off_c, 0, 49, 50
1, 204511, Control_c, 0, 64, 100
1, 204526, Control_c, 0, 64, 102
1, 204536, Note_off_c, 0, 53, 35
1, 204540, Control_c, 0, 64, 104
1, 204542, Note_on_c, 0, 41, 50
1, 204555, Control_c, 0, 64, 106
1, 204570, Control_c, 0, 64, 108
1, 204585, Control_c, 0, 64, 110
1, 204622, Control_c, 0, 64, 112
1, 204652, Note_off_c, 0, 41, 57
1, 204690, Note_on_c, 0, 68, 53
1, 204697, Note_on_c, 0, 49, 33
1, 204698, Note_on_c, 0, 53, 36
1, 204698, Note_on_c, 0, 56, 47
1, 204709, Note_on_c, 0, 44, 23
1, 204774, Note_off_c, 0, 44, 55
1, 204775, Note_off_c, 0, 53, 53
1, 204782, Note_off_c, 0, 49, 57
1, 204813, Note_on_c, 0, 41, 46
1, 204873, Control_c, 0, 64, 114
1, 204909, Note_off_c, 0, 41, 58
1, 204933, Note_on_c, 0, 53, 43
1, 204933, Note_on_c, 0, 49, 42
1, 204937, Note_on_c, 0, 44, 34
1, 205000, Note_off_c, 0, 44, 53
1, 205016, Note_off_c, 0, 53, 52
1, 205019, Note_off_c, 0, 49, 54
1, 205034, Note_off_c, 0, 56, 59
1, 205052, Note_on_c, 0, 41, 58
1, 205067, Control_c, 0, 64, 116
1, 205147, Note_off_c, 0, 41, 57
1, 205166, Note_on_c, 0, 49, 47
1, 205166, Note_on_c, 0, 53, 47
1, 205171, Control_c, 0, 64, 119
1, 205183, Note_on_c, 0, 44, 34
1, 205216, Control_c, 0, 64, 121
1, 205230, Control_c, 0, 64, 127
1, 205236, Note_off_c, 0, 44, 55
1, 205243, Note_off_c, 0, 53, 48
1, 205279, Note_on_c, 0, 41, 58
1, 205282, Note_off_c, 0, 49, 50
1, 205326, Note_off_c, 0, 41, 59
1, 205401, Control_c, 0, 64, 107
1, 205416, Control_c, 0, 64, 91
1, 205417, Note_on_c, 0, 70, 66
1, 205430, Note_on_c, 0, 49, 51
1, 205430, Control_c, 0, 64, 77
1, 205433, Note_on_c, 0, 58, 52
1, 205434, Note_on_c, 0, 54, 50
1, 205442, Note_on_c, 0, 51, 46
1, 205445, Control_c, 0, 64, 65
1, 205454, Note_off_c, 0, 68, 63
1, 205460, Control_c, 0, 64, 0
1, 205519, Control_c, 0, 64, 63
1, 205534, Control_c, 0, 64, 67
1, 205544, Note_off_c, 0, 54, 51
1, 205549, Control_c, 0, 64, 72
1, 205564, Control_c, 0, 64, 78
1, 205569, Note_off_c, 0, 51, 57
1, 205570, Note_off_c, 0, 49, 54
1, 205574, Note_on_c, 0, 42, 63
1, 205578, Control_c, 0, 64, 83
1, 205593, Control_c, 0, 64, 87
1, 205608, Control_c, 0, 64, 88
1, 205622, Control_c, 0, 64, 89
1, 205637, Control_c, 0, 64, 89
1, 205652, Control_c, 0, 64, 91
1, 205659, Note_off_c, 0, 58, 62
1, 205667, Control_c, 0, 64, 93
1, 205675, Note_off_c, 0, 42, 59
1, 205682, Control_c, 0, 64, 94
1, 205686, Note_on_c, 0, 54, 54
1, 205696, Control_c, 0, 64, 94
1, 205707, Note_on_c, 0, 49, 26
1, 205717, Note_on_c, 0, 51, 31
1, 205729, Note_on_c, 0, 66, 70
1, 205742, Note_off_c, 0, 49, 54
1, 205752, Note_off_c, 0, 51, 49
1, 205754, Note_off_c, 0, 54, 50
1, 205756, Control_c, 0, 64, 95
1, 205771, Control_c, 0, 64, 95
1, 205776, Note_off_c, 0, 70, 56
1, 205815, Control_c, 0, 64, 94
1, 205830, Control_c, 0, 64, 93
1, 205845, Control_c, 0, 64, 89
1, 205860, Control_c, 0, 64, 83
1, 205864, Note_on_c, 0, 65, 76
1, 205869, Note_on_c, 0, 44, 57
1, 205875, Control_c, 0, 64, 73
1, 205888, Note_off_c, 0, 66, 61
1, 205890, Control_c, 0, 64, 61
1, 205904, Control_c, 0, 64, 0
1, 206009, Control_c, 0, 64, 63
1, 206020, Note_off_c, 0, 44, 61
1, 206024, Control_c, 0, 64, 70
1, 206024, Note_on_c, 0, 56, 46
1, 206028, Note_on_c, 0, 49, 43
1, 206033, Note_on_c, 0, 53, 48
1, 206039, Control_c, 0, 64, 77
1, 206053, Control_c, 0, 64, 82
1, 206068, Control_c, 0, 64, 85
1, 206075, Note_off_c, 0, 56, 49
1, 206083, Control_c, 0, 64, 87
1, 206095, Note_off_c, 0, 49, 53
1, 206105, Control_c, 0, 64, 89
1, 206106, Note_off_c, 0, 53, 55
1, 206120, Control_c, 0, 64, 92
1, 206134, Control_c, 0, 64, 94
1, 206147, Note_on_c, 0, 44, 56
1, 206149, Control_c, 0, 64, 95
1, 206179, Control_c, 0, 64, 97
1, 206247, Note_off_c, 0, 44, 55
1, 206268, Note_on_c, 0, 68, 73
1, 206277, Note_on_c, 0, 53, 51
1, 206279, Note_on_c, 0, 49, 47
1, 206279, Note_on_c, 0, 56, 46
1, 206305, Note_off_c, 0, 56, 57
1, 206322, Note_off_c, 0, 65, 56
1, 206326, Note_off_c, 0, 49, 56
1, 206337, Note_off_c, 0, 53, 56
1, 206368, Note_on_c, 0, 44, 64
1, 206475, Note_off_c, 0, 44, 54
1, 206490, Note_on_c, 0, 53, 46
1, 206492, Note_on_c, 0, 49, 49
1, 206502, Note_on_c, 0, 56, 41
1, 206526, Note_on_c, 0, 65, 70
1, 206526, Note_off_c, 0, 68, 63
1, 206555, Note_off_c, 0, 56, 48
1, 206557, Note_off_c, 0, 53, 57
1, 206557, Note_off_c, 0, 49, 48
1, 206594, Control_c, 0, 64, 95
1, 206609, Control_c, 0, 64, 86
1, 206611, Note_on_c, 0, 44, 57
1, 206613, Note_off_c, 0, 65, 60
1, 206617, Note_on_c, 0, 63, 83
1, 206624, Control_c, 0, 64, 73
1, 206638, Control_c, 0, 64, 0
1, 206743, Control_c, 0, 64, 67
1, 206758, Control_c, 0, 64, 73
1, 206759, Note_off_c, 0, 44, 61
1, 206764, Note_on_c, 0, 48, 48
1, 206766, Note_on_c, 0, 56, 49
1, 206767, Note_on_c, 0, 51, 51
1, 206773, Control_c, 0, 64, 77
1, 206788, Control_c, 0, 64, 80
1, 206802, Control_c, 0, 64, 82
1, 206814, Note_off_c, 0, 48, 58
1, 206817, Control_c, 0, 64, 85
1, 206818, Note_off_c, 0, 56, 59
1, 206821, Note_off_c, 0, 51, 55
1, 206832, Control_c, 0, 64, 87
1, 206855, Control_c, 0, 64, 90
1, 206870, Control_c, 0, 64, 92
1, 206883, Note_on_c, 0, 44, 57
1, 206884, Control_c, 0, 64, 94
1, 206899, Control_c, 0, 64, 96
1, 206914, Control_c, 0, 64, 98
1, 206944, Control_c, 0, 64, 100
1, 207002, Note_off_c, 0, 44, 60
1, 207017, Note_on_c, 0, 56, 51
1, 207017, Note_on_c, 0, 66, 80
1, 207017, Control_c, 0, 64, 102
1, 207026, Note_on_c, 0, 51, 51
1, 207033, Note_on_c, 0, 48, 43
1, 207075, Note_off_c, 0, 48, 50
1, 207076, Control_c, 0, 64, 104
1, 207080, Note_off_c, 0, 51, 55
1, 207098, Note_off_c, 0, 56, 50
1, 207103, Note_off_c, 0, 63, 61
1, 207117, Note_on_c, 0, 44, 60
1, 207121, Control_c, 0, 64, 107
1, 207151, Control_c, 0, 64, 110
1, 207181, Control_c, 0, 64, 112
1, 207258, Note_on_c, 0, 56, 60
1, 207261, Note_off_c, 0, 44, 57
1, 207264, Note_on_c, 0, 48, 50
1, 207269, Note_on_c, 0, 51, 56
1, 207300, Note_off_c, 0, 51, 63
1, 207306, Note_off_c, 0, 56, 53
1, 207308, Note_off_c, 0, 48, 60
1, 207344, Note_on_c, 0, 63, 82
1, 207387, Control_c, 0, 64, 110
1, 207416, Note_off_c, 0, 66, 60
1, 207491, Control_c, 0, 64, 108
1, 207506, Control_c, 0, 64, 106
1, 207521, Control_c, 0, 64, 102
1, 207536, Control_c, 0, 64, 96
1, 207551, Control_c, 0, 64, 85
1, 207565, Control_c, 0, 64, 71
1, 207580, Control_c, 0, 64, 0
1, 207598, Note_on_c, 0, 45, 59
1, 207599, Note_on_c, 0, 60, 82
1, 207679, Note_off_c, 0, 63, 61
1, 207766, Control_c, 0, 64, 68
1, 207769, Note_on_c, 0, 57, 48
1, 207769, Note_off_c, 0, 45, 60
1, 207776, Note_on_c, 0, 48, 44
1, 207780, Note_on_c, 0, 53, 49
1, 207780, Control_c, 0, 64, 73
1, 207795, Control_c, 0, 64, 77
1, 207810, Control_c, 0, 64, 81
1, 207824, Control_c, 0, 64, 84
1, 207835, Note_off_c, 0, 48, 55
1, 207839, Control_c, 0, 64, 87
1, 207854, Control_c, 0, 64, 90
1, 207857, Note_off_c, 0, 53, 50
1, 207869, Control_c, 0, 64, 91
1, 207884, Control_c, 0, 64, 93
1, 207899, Control_c, 0, 64, 94
1, 207900, Note_on_c, 0, 45, 52
1, 207905, Note_off_c, 0, 57, 37
1, 207914, Control_c, 0, 64, 95
1, 207944, Control_c, 0, 64, 98
1, 207959, Control_c, 0, 64, 100
1, 207973, Control_c, 0, 64, 103
1, 208012, Note_off_c, 0, 45, 58
1, 208032, Control_c, 0, 64, 105
1, 208040, Note_on_c, 0, 57, 43
1, 208048, Note_on_c, 0, 65, 62
1, 208057, Note_on_c, 0, 48, 40
1, 208075, Note_on_c, 0, 53, 33
1, 208106, Control_c, 0, 64, 107
1, 208126, Note_off_c, 0, 48, 49
1, 208142, Note_off_c, 0, 57, 56
1, 208145, Note_off_c, 0, 53, 53
1, 208163, Note_on_c, 0, 45, 47
1, 208239, Control_c, 0, 64, 109
1, 208269, Note_off_c, 0, 45, 58
1, 208290, Note_on_c, 0, 57, 44
1, 208295, Note_on_c, 0, 53, 39
1, 208300, Note_on_c, 0, 48, 36
1, 208329, Control_c, 0, 64, 111
1, 208332, Note_off_c, 0, 60, 54
1, 208367, Control_c, 0, 64, 113
1, 208371, Note_off_c, 0, 48, 51
1, 208388, Note_off_c, 0, 57, 43
1, 208391, Note_off_c, 0, 53, 51
1, 208426, Note_on_c, 0, 45, 48
1, 208426, Control_c, 0, 64, 115
1, 208455, Control_c, 0, 64, 117
1, 208485, Control_c, 0, 64, 120
1, 208500, Control_c, 0, 64, 122
1, 208514, Control_c, 0, 64, 127
1, 208527, Note_off_c, 0, 65, 62
1, 208536, Note_off_c, 0, 45, 58
1, 208567, Note_on_c, 0, 57, 39
1, 208572, Note_on_c, 0, 53, 37
1, 208588, Note_on_c, 0, 48, 21
1, 208632, Note_off_c, 0, 48, 47
1, 208652, Note_off_c, 0, 57, 51
1, 208670, Note_on_c, 0, 45, 53
1, 208680, Note_off_c, 0, 53, 50
1, 208757, Note_off_c, 0, 45, 56
1, 208796, Control_c, 0, 64, 115
1, 208811, Control_c, 0, 64, 92
1, 208826, Control_c, 0, 64, 75
1, 208838, Note_on_c, 0, 73, 59
1, 208840, Note_on_c, 0, 53, 36
1, 208841, Control_c, 0, 64, 0
1, 208845, Note_on_c, 0, 58, 42
1, 208847, Note_on_c, 0, 61, 45
1, 208856, Note_on_c, 0, 49, 40
1, 208915, Control_c, 0, 64, 65
1, 208930, Control_c, 0, 64, 73
1, 208942, Note_off_c, 0, 58, 60
1, 208945, Control_c, 0, 64, 80
1, 208951, Note_off_c, 0, 53, 60
1, 208957, Note_off_c, 0, 49, 60
1, 208960, Control_c, 0, 64, 85
1, 208966, Note_off_c, 0, 61, 61
1, 208973, Note_on_c, 0, 46, 55
1, 208974, Control_c, 0, 64, 89
1, 208975, Poly_aftertouch_c, 0, 68, 127
1, 208989, Control_c, 0, 64, 93
1, 209004, Control_c, 0, 64, 98
1, 209007, Poly_aftertouch_c, 0, 68, 0
1, 209019, Control_c, 0, 64, 102
1, 209034, Control_c, 0, 64, 106
1, 209053, Note_off_c, 0, 73, 61
1, 209063, Control_c, 0, 64, 108
1, 209065, Note_off_c, 0, 46, 58
1, 209080, Note_on_c, 0, 58, 46
1, 209101, Note_on_c, 0, 53, 44
1, 209106, Note_on_c, 0, 49, 46
1, 209136, Note_on_c, 0, 77, 66
1, 209142, Note_on_c, 0, 65, 46
1, 209169, Note_off_c, 0, 65, 54
1, 209171, Note_off_c, 0, 77, 58
1, 209190, Note_off_c, 0, 49, 38
1, 209190, Control_c, 0, 64, 110
1, 209218, Note_off_c, 0, 53, 52
1, 209220, Control_c, 0, 64, 113
1, 209230, Note_off_c, 0, 58, 44
1, 209234, Note_on_c, 0, 46, 46
1, 209249, Control_c, 0, 64, 115
1, 209273, Note_on_c, 0, 82, 69
1, 209279, Control_c, 0, 64, 117
1, 209285, Note_on_c, 0, 70, 53
1, 209368, Note_off_c, 0, 46, 53
1, 209392, Note_on_c, 0, 58, 49
1, 209400, Note_on_c, 0, 53, 42
1, 209415, Note_on_c, 0, 49, 40
1, 209416, Note_off_c, 0, 70, 60
1, 209489, Note_off_c, 0, 58, 52
1, 209492, Note_off_c, 0, 49, 51
1, 209509, Note_off_c, 0, 53, 59
1, 209512, Note_on_c, 0, 46, 53
1, 209640, Note_on_c, 0, 85, 71
1, 209640, Note_off_c, 0, 46, 57
1, 209649, Note_on_c, 0, 73, 55
1, 209650, Note_on_c, 0, 58, 47
1, 209658, Note_on_c, 0, 53, 42
1, 209672, Note_on_c, 0, 49, 35
1, 209685, Note_off_c, 0, 82, 60
1, 209688, Note_off_c, 0, 58, 60
1, 209707, Note_off_c, 0, 53, 59
1, 209709, Control_c, 0, 64, 115
1, 209745, Note_on_c, 0, 46, 51
1, 209749, Note_off_c, 0, 49, 37
1, 209753, Note_off_c, 0, 73, 60
1, 209807, Note_off_c, 0, 85, 62
1, 209813, Control_c, 0, 64, 113
1, 209822, Note_off_c, 0, 46, 53
1, 209846, Note_on_c, 0, 58, 47
1, 209849, Note_on_c, 0, 53, 40
1, 209896, Note_on_c, 0, 82, 64
1, 209920, Note_on_c, 0, 70, 36
1, 209923, Note_off_c, 0, 58, 60
1, 209932, Note_off_c, 0, 53, 43
1, 209950, Note_off_c, 0, 70, 55
1, 209955, Control_c, 0, 64, 109
1, 209969, Control_c, 0, 64, 96
1, 209980, Note_on_c, 0, 48, 52
1, 209984, Control_c, 0, 64, 82
1, 209999, Control_c, 0, 64, 69
1, 210000, Note_on_c, 0, 69, 50
1, 210000, Note_off_c, 0, 82, 56
1, 210004, Note_on_c, 0, 81, 62
1, 210013, Control_c, 0, 64, 0
1, 210088, Control_c, 0, 64, 65
1, 210089, Note_off_c, 0, 48, 59
1, 210102, Control_c, 0, 64, 73
1, 210117, Control_c, 0, 64, 77
1, 210123, Note_on_c, 0, 60, 50
1, 210132, Note_off_c, 0, 69, 61
1, 210132, Control_c, 0, 64, 82
1, 210147, Control_c, 0, 64, 85
1, 210147, Note_on_c, 0, 53, 38
1, 210158, Note_on_c, 0, 51, 27
1, 210161, Control_c, 0, 64, 89
1, 210173, Note_off_c, 0, 81, 62
1, 210176, Control_c, 0, 64, 92
1, 210191, Control_c, 0, 64, 94
1, 210206, Control_c, 0, 64, 96
1, 210212, Note_off_c, 0, 51, 44
1, 210221, Control_c, 0, 64, 98
1, 210222, Note_off_c, 0, 53, 54
1, 210222, Note_off_c, 0, 60, 50
1, 210236, Control_c, 0, 64, 100
1, 210260, Note_on_c, 0, 48, 41
1, 210266, Control_c, 0, 64, 102
1, 210352, Note_off_c, 0, 48, 55
1, 210364, Note_on_c, 0, 60, 46
1, 210365, Note_on_c, 0, 84, 67
1, 210369, Note_on_c, 0, 53, 37
1, 210371, Note_on_c, 0, 72, 52
1, 210413, Control_c, 0, 64, 104
1, 210425, Poly_aftertouch_c, 0, 51, 127
1, 210437, Note_off_c, 0, 53, 53
1, 210443, Note_off_c, 0, 60, 47
1, 210462, Poly_aftertouch_c, 0, 51, 0
1, 210474, Note_on_c, 0, 48, 50
1, 210479, Note_off_c, 0, 72, 58
1, 210507, Note_off_c, 0, 84, 61
1, 210530, Note_off_c, 0, 48, 58
1, 210579, Note_on_c, 0, 51, 48
1, 210603, Note_on_c, 0, 60, 42
1, 210612, Note_off_c, 0, 51, 57
1, 210638, Note_on_c, 0, 81, 61
1, 210644, Note_on_c, 0, 69, 50
1, 210664, Note_off_c, 0, 60, 56
1, 210668, Note_off_c, 0, 69, 59
1, 210748, Control_c, 0, 64, 100
1, 210763, Control_c, 0, 64, 92
1, 210777, Control_c, 0, 64, 80
1, 210792, Control_c, 0, 64, 69
1, 210798, Note_off_c, 0, 81, 62
1, 210802, Note_on_c, 0, 49, 42
1, 210807, Control_c, 0, 64, 0
1, 210808, Note_on_c, 0, 82, 63
1, 210817, Note_on_c, 0, 70, 48
1, 210925, Control_c, 0, 64, 64
1, 210940, Control_c, 0, 64, 72
1, 210955, Control_c, 0, 64, 77
1, 210960, Note_off_c, 0, 49, 61
1, 210969, Note_on_c, 0, 61, 42
1, 210969, Control_c, 0, 64, 82
1, 210971, Note_off_c, 0, 82, 62
1, 210972, Note_on_c, 0, 53, 37
1, 210984, Control_c, 0, 64, 84
1, 210987, Note_on_c, 0, 58, 33
1, 210991, Note_off_c, 0, 70, 61
1, 210999, Control_c, 0, 64, 87
1, 211014, Control_c, 0, 64, 90
1, 211020, Note_off_c, 0, 53, 45
1, 211029, Control_c, 0, 64, 92
1, 211038, Note_off_c, 0, 61, 51
1, 211039, Note_off_c, 0, 58, 43
1, 211044, Control_c, 0, 64, 93
1, 211059, Control_c, 0, 64, 94
1, 211074, Control_c, 0, 64, 95
1, 211089, Control_c, 0, 64, 96
1, 211108, Note_on_c, 0, 49, 42
1, 211133, Control_c, 0, 64, 98
1, 211172, Note_off_c, 0, 49, 50
1, 211205, Note_on_c, 0, 77, 60
1, 211207, Control_c, 0, 64, 101
1, 211211, Note_on_c, 0, 65, 41
1, 211222, Note_on_c, 0, 61, 34
1, 211246, Note_on_c, 0, 53, 26
1, 211251, Control_c, 0, 64, 104
1, 211254, Note_on_c, 0, 58, 11
1, 211281, Control_c, 0, 64, 106
1, 211288, Note_off_c, 0, 61, 39
1, 211289, Note_off_c, 0, 53, 50
1, 211309, Note_off_c, 0, 58, 45
1, 211347, Note_on_c, 0, 49, 41
1, 211348, Control_c, 0, 64, 108
1, 211392, Control_c, 0, 64, 110
1, 211422, Control_c, 0, 64, 113
1, 211434, Note_off_c, 0, 49, 59
1, 211451, Control_c, 0, 64, 115
1, 211464, Note_on_c, 0, 61, 37
1, 211466, Note_on_c, 0, 58, 29
1, 211473, Note_on_c, 0, 53, 33
1, 211481, Control_c, 0, 64, 117
1, 211495, Control_c, 0, 64, 119
1, 211510, Control_c, 0, 64, 122
1, 211527, Control_c, 0, 64, 127
1, 211527, Note_off_c, 0, 65, 39
1, 211554, Note_off_c, 0, 53, 50
1, 211556, Note_off_c, 0, 58, 51
1, 211566, Note_off_c, 0, 61, 36
1, 211591, Note_on_c, 0, 49, 46
1, 211680, Note_off_c, 0, 49, 60
1, 211696, Note_on_c, 0, 61, 46
1, 211709, Note_on_c, 0, 58, 41
1, 211715, Note_on_c, 0, 53, 36
1, 211755, Note_off_c, 0, 53, 51
1, 211756, Note_off_c, 0, 61, 52
1, 211766, Note_off_c, 0, 58, 54
1, 211795, Note_on_c, 0, 49, 54
1, 211861, Note_off_c, 0, 49, 56
1, 211896, Control_c, 0, 64, 108
1, 211910, Control_c, 0, 64, 90
1, 211916, Note_on_c, 0, 58, 44
1, 211917, Note_on_c, 0, 63, 60
1, 211925, Control_c, 0, 64, 78
1, 211926, Note_on_c, 0, 78, 74
1, 211940, Control_c, 0, 64, 71
1, 211942, Note_on_c, 0, 66, 55
1, 211953, Note_on_c, 0, 54, 32
1, 211955, Control_c, 0, 64, 68
1, 211959, Note_off_c, 0, 77, 60
1, 211970, Control_c, 0, 64, 0
1, 212014, Control_c, 0, 64, 64
1, 212018, Note_off_c, 0, 63, 60
1, 212029, Control_c, 0, 64, 70
1, 212031, Note_off_c, 0, 58, 59
1, 212044, Control_c, 0, 64, 74
1, 212048, Note_on_c, 0, 51, 60
1, 212058, Control_c, 0, 64, 79
1, 212073, Control_c, 0, 64, 84
1, 212096, Control_c, 0, 64, 86
1, 212110, Control_c, 0, 64, 88
1, 212125, Control_c, 0, 64, 91
1, 212140, Note_off_c, 0, 54, 0
1, 212140, Control_c, 0, 64, 95
1, 212144, Note_on_c, 0, 63, 59
1, 212150, Note_off_c, 0, 51, 60
1, 212155, Control_c, 0, 64, 98
1, 212161, Note_off_c, 0, 66, 61
1, 212170, Control_c, 0, 64, 100
1, 212171, Note_on_c, 0, 58, 42
1, 212177, Poly_aftertouch_c, 0, 54, 127
1, 212189, Note_off_c, 0, 63, 61
1, 212199, Control_c, 0, 64, 103
1, 212200, Note_off_c, 0, 58, 52
1, 212211, Poly_aftertouch_c, 0, 54, 0
1, 212218, Note_on_c, 0, 75, 75
1, 212229, Control_c, 0, 64, 105
1, 212288, Control_c, 0, 64, 101
1, 212301, Note_off_c, 0, 78, 45
1, 212303, Control_c, 0, 64, 93
1, 212308, Note_on_c, 0, 53, 59
1, 212319, Control_c, 0, 64, 81
1, 212321, Note_on_c, 0, 73, 80
1, 212334, Control_c, 0, 64, 66
1, 212348, Control_c, 0, 64, 0
1, 212354, Note_off_c, 0, 75, 62
1, 212452, Control_c, 0, 64, 67
1, 212455, Note_on_c, 0, 65, 55
1, 212456, Note_on_c, 0, 58, 50
1, 212457, Note_on_c, 0, 61, 55
1, 212466, Note_off_c, 0, 53, 60
1, 212467, Control_c, 0, 64, 75
1, 212482, Control_c, 0, 64, 80
1, 212496, Control_c, 0, 64, 84
1, 212511, Control_c, 0, 64, 86
1, 212526, Control_c, 0, 64, 88
1, 212540, Control_c, 0, 64, 89
1, 212544, Note_off_c, 0, 65, 52
1, 212549, Note_off_c, 0, 58, 52
1, 212552, Note_off_c, 0, 61, 56
1, 212555, Control_c, 0, 64, 90
1, 212565, Note_on_c, 0, 53, 68
1, 212570, Control_c, 0, 64, 91
1, 212585, Control_c, 0, 64, 91
1, 212673, Note_on_c, 0, 65, 58
1, 212677, Note_on_c, 0, 77, 82
1, 212678, Note_on_c, 0, 61, 61
1, 212679, Note_on_c, 0, 58, 59
1, 212679, Note_off_c, 0, 53, 59
1, 212732, Note_off_c, 0, 65, 58
1, 212738, Note_off_c, 0, 58, 50
1, 212748, Note_off_c, 0, 61, 56
1, 212750, Note_off_c, 0, 73, 61
1, 212766, Note_on_c, 0, 53, 59
1, 212874, Control_c, 0, 64, 91
1, 212875, Note_off_c, 0, 53, 59
1, 212878, Note_on_c, 0, 61, 60
1, 212878, Note_on_c, 0, 65, 57
1, 212879, Note_on_c, 0, 58, 56
1, 212922, Note_on_c, 0, 73, 79
1, 212927, Note_off_c, 0, 65, 59
1, 212931, Note_off_c, 0, 58, 48
1, 212943, Note_off_c, 0, 61, 47
1, 212945, Note_off_c, 0, 77, 55
1, 212993, Control_c, 0, 64, 89
1, 212997, Note_on_c, 0, 53, 66
1, 213007, Control_c, 0, 64, 81
1, 213014, Note_on_c, 0, 72, 89
1, 213022, Control_c, 0, 64, 69
1, 213037, Note_off_c, 0, 73, 62
1, 213037, Control_c, 0, 64, 0
1, 213142, Control_c, 0, 64, 66
1, 213146, Note_on_c, 0, 63, 61
1, 213152, Note_on_c, 0, 60, 52
1, 213157, Control_c, 0, 64, 73
1, 213157, Note_off_c, 0, 53, 62
1, 213157, Note_on_c, 0, 57, 43
1, 213171, Control_c, 0, 64, 78
1, 213186, Control_c, 0, 64, 82
1, 213201, Control_c, 0, 64, 85
1, 213209, Note_off_c, 0, 57, 52
1, 213216, Note_off_c, 0, 63, 58
1, 213217, Control_c, 0, 64, 87
1, 213226, Note_off_c, 0, 60, 50
1, 213231, Control_c, 0, 64, 90
1, 213246, Control_c, 0, 64, 93
1, 213261, Control_c, 0, 64, 94
1, 213276, Control_c, 0, 64, 95
1, 213277, Note_on_c, 0, 53, 67
1, 213291, Control_c, 0, 64, 96
1, 213335, Control_c, 0, 64, 98
1, 213376, Note_off_c, 0, 53, 59
1, 213377, Note_on_c, 0, 75, 88
1, 213384, Note_on_c, 0, 60, 55
1, 213386, Note_on_c, 0, 63, 63
1, 213390, Note_on_c, 0, 57, 44
1, 213394, Control_c, 0, 64, 101
1, 213409, Control_c, 0, 64, 103
1, 213424, Control_c, 0, 64, 105
1, 213438, Control_c, 0, 64, 107
1, 213440, Note_off_c, 0, 72, 60
1, 213453, Control_c, 0, 64, 110
1, 213468, Note_off_c, 0, 63, 59
1, 213468, Control_c, 0, 64, 113
1, 213472, Note_off_c, 0, 57, 48
1, 213482, Control_c, 0, 64, 117
1, 213488, Note_off_c, 0, 60, 56
1, 213491, Note_on_c, 0, 53, 69
1, 213497, Control_c, 0, 64, 123
1, 213512, Control_c, 0, 64, 127
1, 213600, Note_off_c, 0, 53, 60
1, 213613, Note_on_c, 0, 63, 58
1, 213622, Note_on_c, 0, 60, 56
1, 213646, Note_on_c, 0, 72, 86
1, 213667, Poly_aftertouch_c, 0, 57, 127
1, 213682, Note_off_c, 0, 75, 62
1, 213706, Poly_aftertouch_c, 0, 57, 0
1, 213747, Note_off_c, 0, 60, 34
1, 213786, Control_c, 0, 64, 117
1, 213801, Control_c, 0, 64, 101
1, 213816, Control_c, 0, 64, 86
1, 213831, Control_c, 0, 64, 72
1, 213843, Note_on_c, 0, 54, 61
1, 213846, Control_c, 0, 64, 0
1, 213852, Note_on_c, 0, 70, 90
1, 213858, Note_off_c, 0, 63, 62
1, 213884, Note_off_c, 0, 72, 62
1, 213965, Control_c, 0, 64, 69
1, 213980, Control_c, 0, 64, 74
1, 213995, Control_c, 0, 64, 78
1, 214009, Note_on_c, 0, 61, 59
1, 214010, Control_c, 0, 64, 81
1, 214011, Note_off_c, 0, 54, 61
1, 214012, Note_on_c, 0, 66, 52
1, 214019, Note_on_c, 0, 58, 50
1, 214025, Control_c, 0, 64, 84
1, 214040, Control_c, 0, 64, 87
1, 214054, Control_c, 0, 64, 90
1, 214069, Control_c, 0, 64, 93
1, 214072, Note_off_c, 0, 58, 52
1, 214084, Control_c, 0, 64, 94
1, 214099, Control_c, 0, 64, 95
1, 214108, Note_off_c, 0, 61, 56
1, 214126, Note_on_c, 0, 54, 63
1, 214128, Control_c, 0, 64, 95
1, 214144, Note_off_c, 0, 66, 34
1, 214234, Note_off_c, 0, 54, 60
1, 214237, Note_on_c, 0, 73, 79
1, 214240, Note_on_c, 0, 61, 55
1, 214257, Note_on_c, 0, 66, 49
1, 214263, Note_on_c, 0, 58, 46
1, 214305, Control_c, 0, 64, 96
1, 214324, Note_off_c, 0, 58, 55
1, 214346, Note_off_c, 0, 61, 57
1, 214348, Note_off_c, 0, 70, 61
1, 214355, Note_off_c, 0, 66, 51
1, 214363, Note_on_c, 0, 54, 63
1, 214373, Control_c, 0, 64, 98
1, 214432, Control_c, 0, 64, 100
1, 214461, Control_c, 0, 64, 102
1, 214470, Note_off_c, 0, 54, 59
1, 214479, Note_on_c, 0, 61, 58
1, 214481, Note_on_c, 0, 66, 60
1, 214483, Note_on_c, 0, 58, 48
1, 214491, Control_c, 0, 64, 106
1, 214520, Control_c, 0, 64, 108
1, 214535, Control_c, 0, 64, 111
1, 214537, Note_off_c, 0, 73, 61
1, 214550, Control_c, 0, 64, 114
1, 214565, Control_c, 0, 64, 117
1, 214566, Note_off_c, 0, 58, 55
1, 214576, Note_off_c, 0, 61, 59
1, 214585, Note_on_c, 0, 54, 70
1, 214585, Note_off_c, 0, 66, 54
1, 214594, Control_c, 0, 64, 119
1, 214624, Control_c, 0, 64, 121
1, 214700, Note_off_c, 0, 54, 60
1, 214703, Note_on_c, 0, 58, 52
1, 214704, Note_on_c, 0, 61, 57
1, 214714, Note_on_c, 0, 66, 62
1, 214790, Note_off_c, 0, 61, 58
1, 214790, Note_off_c, 0, 66, 51
1, 214791, Note_off_c, 0, 58, 59
1, 214807, Note_on_c, 0, 54, 67
1, 214895, Note_on_c, 0, 82, 78
1, 214900, Note_on_c, 0, 70, 74
1, 214909, Note_off_c, 0, 54, 60
1, 214917, Note_on_c, 0, 61, 56
1, 214919, Note_on_c, 0, 66, 62
1, 214923, Note_on_c, 0, 58, 57
1, 214981, Control_c, 0, 64, 127
1, 214982, Note_off_c, 0, 58, 56
1, 214988, Note_off_c, 0, 70, 61
1, 214992, Note_off_c, 0, 66, 56
1, 214995, Note_off_c, 0, 61, 58
1, 215003, Note_on_c, 0, 54, 68
1, 215119, Note_off_c, 0, 54, 60
1, 215123, Note_on_c, 0, 58, 55
1, 215124, Note_on_c, 0, 66, 63
1, 215129, Note_on_c, 0, 61, 61
1, 215139, Note_on_c, 0, 73, 68
1, 215139, Note_on_c, 0, 85, 82
1, 215166, Note_off_c, 0, 73, 66
1, 215166, Note_off_c, 0, 82, 63
1, 215187, Note_off_c, 0, 85, 64
1, 215214, Note_off_c, 0, 58, 56
1, 215227, Note_on_c, 0, 54, 75
1, 215229, Note_off_c, 0, 61, 56
1, 215232, Note_on_c, 0, 90, 91
1, 215237, Note_on_c, 0, 78, 88
1, 215238, Note_off_c, 0, 66, 58
1, 215351, Note_off_c, 0, 54, 60
1, 215355, Note_on_c, 0, 58, 59
1, 215356, Note_on_c, 0, 61, 62
1, 215360, Note_on_c, 0, 66, 62
1, 215372, Note_off_c, 0, 78, 60
1, 215441, Note_off_c, 0, 58, 58
1, 215441, Note_off_c, 0, 66, 50
1, 215449, Note_off_c, 0, 61, 58
1, 215457, Note_on_c, 0, 54, 76
1, 215555, Note_off_c, 0, 54, 58
1, 215557, Note_on_c, 0, 94, 91
1, 215560, Note_on_c, 0, 82, 85
1, 215563, Note_on_c, 0, 58, 68
1, 215566, Note_on_c, 0, 61, 63
1, 215566, Note_on_c, 0, 66, 69
1, 215574, Note_off_c, 0, 90, 62
1, 215611, Note_off_c, 0, 66, 50
1, 215644, Note_off_c, 0, 61, 58
1, 215650, Note_off_c, 0, 58, 60
1, 215658, Note_on_c, 0, 54, 74
1, 215682, Note_off_c, 0, 82, 61
1, 215702, Note_off_c, 0, 94, 62
1, 215749, Note_off_c, 0, 54, 59
1, 215767, Note_on_c, 0, 66, 61
1, 215770, Note_on_c, 0, 61, 57
1, 215793, Note_on_c, 0, 90, 84
1, 215808, Note_on_c, 0, 78, 70
1, 215833, Note_off_c, 0, 66, 56
1, 215842, Note_off_c, 0, 78, 66
1, 215846, Note_off_c, 0, 90, 64
1, 215856, Poly_aftertouch_c, 0, 58, 0
1, 215869, Control_c, 0, 64, 102
1, 215880, Note_on_c, 0, 56, 73
1, 215882, Note_off_c, 0, 61, 54
1, 215883, Control_c, 0, 64, 79
1, 215890, Note_on_c, 0, 89, 94
1, 215893, Note_on_c, 0, 77, 88
1, 215898, Control_c, 0, 64, 0
1, 215987, Control_c, 0, 64, 64
1, 216002, Control_c, 0, 64, 77
1, 216006, Note_off_c, 0, 56, 63
1, 216009, Note_on_c, 0, 61, 59
1, 216010, Note_on_c, 0, 68, 67
1, 216017, Control_c, 0, 64, 87
1, 216021, Note_on_c, 0, 59, 49
1, 216031, Control_c, 0, 64, 97
1, 216046, Control_c, 0, 64, 102
1, 216059, Note_off_c, 0, 59, 47
1, 216061, Control_c, 0, 64, 105
1, 216068, Note_off_c, 0, 68, 59
1, 216076, Control_c, 0, 64, 109
1, 216091, Control_c, 0, 64, 114
1, 216091, Note_off_c, 0, 61, 58
1, 216101, Note_on_c, 0, 56, 76
1, 216105, Control_c, 0, 64, 123
1, 216108, Note_off_c, 0, 77, 59
1, 216120, Control_c, 0, 64, 127
1, 216214, Note_on_c, 0, 68, 71
1, 216216, Note_on_c, 0, 61, 70
1, 216217, Note_off_c, 0, 56, 62
1, 216223, Note_on_c, 0, 59, 58
1, 216225, Note_on_c, 0, 92, 90
1, 216228, Note_on_c, 0, 80, 87
1, 216249, Note_off_c, 0, 89, 64
1, 216258, Note_off_c, 0, 59, 59
1, 216293, Note_off_c, 0, 68, 61
1, 216303, Note_off_c, 0, 61, 55
1, 216320, Note_on_c, 0, 56, 75
1, 216348, Note_off_c, 0, 80, 60
1, 216421, Note_off_c, 0, 92, 62
1, 216424, Note_on_c, 0, 61, 63
1, 216424, Note_on_c, 0, 68, 65
1, 216430, Note_off_c, 0, 56, 61
1, 216454, Note_off_c, 0, 61, 63
1, 216484, Note_off_c, 0, 68, 60
1, 216486, Note_on_c, 0, 89, 92
1, 216491, Note_on_c, 0, 77, 86
1, 216526, Note_off_c, 0, 77, 62
1, 216588, Control_c, 0, 64, 106
1, 216603, Control_c, 0, 64, 89
1, 216618, Control_c, 0, 64, 72
1, 216633, Control_c, 0, 64, 0
1, 216654, Note_on_c, 0, 58, 70
1, 216664, Note_on_c, 0, 90, 94
1, 216666, Note_on_c, 0, 78, 97
1, 216689, Note_off_c, 0, 89, 65
1, 216752, Control_c, 0, 64, 41
1, 216767, Control_c, 0, 64, 71
1, 216781, Control_c, 0, 64, 78
1, 216785, Note_on_c, 0, 70, 66
1, 216792, Note_on_c, 0, 66, 63
1, 216796, Control_c, 0, 64, 84
1, 216797, Note_on_c, 0, 61, 60
1, 216803, Note_off_c, 0, 58, 62
1, 216811, Control_c, 0, 64, 89
1, 216819, Note_off_c, 0, 90, 64
1, 216825, Control_c, 0, 64, 93
1, 216840, Control_c, 0, 64, 97
1, 216841, Note_off_c, 0, 78, 61
1, 216842, Note_off_c, 0, 61, 57
1, 216845, Note_off_c, 0, 70, 49
1, 216855, Control_c, 0, 64, 100
1, 216856, Note_off_c, 0, 66, 54
1, 216870, Control_c, 0, 64, 104
1, 216885, Control_c, 0, 64, 106
1, 216904, Note_on_c, 0, 58, 73
1, 216914, Control_c, 0, 64, 109
1, 216959, Control_c, 0, 64, 111
1, 217003, Note_on_c, 0, 66, 62
1, 217005, Note_off_c, 0, 58, 60
1, 217006, Note_on_c, 0, 85, 91
1, 217007, Note_on_c, 0, 70, 63
1, 217009, Note_on_c, 0, 61, 62
1, 217010, Note_on_c, 0, 73, 82
1, 217050, Note_off_c, 0, 61, 56
1, 217091, Note_off_c, 0, 66, 61
1, 217091, Note_off_c, 0, 70, 54
1, 217115, Note_on_c, 0, 58, 69
1, 217214, Note_on_c, 0, 70, 67
1, 217219, Note_off_c, 0, 58, 60
1, 217220, Note_on_c, 0, 66, 66
1, 217224, Note_on_c, 0, 61, 59
1, 217256, Control_c, 0, 64, 113
1, 217256, Note_off_c, 0, 61, 62
1, 217287, Note_off_c, 0, 66, 61
1, 217293, Note_off_c, 0, 70, 58
1, 217329, Note_on_c, 0, 58, 76
1, 217361, Note_off_c, 0, 73, 59
1, 217382, Control_c, 0, 64, 116
1, 217429, Note_on_c, 0, 70, 68
1, 217429, Note_off_c, 0, 58, 61
1, 217432, Note_on_c, 0, 66, 67
1, 217435, Note_on_c, 0, 61, 66
1, 217441, Control_c, 0, 64, 118
1, 217456, Control_c, 0, 64, 120
1, 217471, Control_c, 0, 64, 127
1, 217474, Note_off_c, 0, 61, 61
1, 217498, Note_off_c, 0, 66, 60
1, 217504, Note_off_c, 0, 70, 59
1, 217516, Note_off_c, 0, 85, 60
1, 217531, Note_on_c, 0, 58, 80
1, 217635, Note_off_c, 0, 58, 59
1, 217636, Note_on_c, 0, 70, 77
1, 217641, Note_on_c, 0, 61, 70
1, 217641, Note_on_c, 0, 66, 69
1, 217680, Note_off_c, 0, 61, 61
1, 217682, Note_off_c, 0, 66, 60
1, 217686, Note_off_c, 0, 70, 61
1, 217730, Note_on_c, 0, 58, 79
1, 217832, Note_on_c, 0, 70, 78
1, 217833, Note_on_c, 0, 66, 76
1, 217841, Note_on_c, 0, 61, 59
1, 217847, Note_off_c, 0, 58, 61
1, 217867, Note_off_c, 0, 61, 66
1, 217873, Note_off_c, 0, 70, 57
1, 217891, Note_off_c, 0, 66, 62
1, 217939, Note_on_c, 0, 59, 81
1, 217945, Control_c, 0, 64, 100
1, 217949, Note_on_c, 0, 90, 97
1, 217952, Note_on_c, 0, 78, 93
1, 217960, Control_c, 0, 64, 77
1, 217974, Control_c, 0, 64, 0
1, 217986, Note_on_c, 0, 80, 43
1, 217987, Note_off_c, 0, 80, 127
1, 217998, Note_on_c, 0, 91, 27
1, 218030, Note_off_c, 0, 91, 34
1, 218055, Note_on_c, 0, 71, 77
1, 218064, Control_c, 0, 64, 71
1, 218065, Note_on_c, 0, 62, 62
1, 218067, Note_off_c, 0, 59, 60
1, 218067, Note_on_c, 0, 66, 71
1, 218085, Control_c, 0, 64, 80
1, 218100, Note_off_c, 0, 71, 59
1, 218100, Control_c, 0, 64, 91
1, 218102, Note_off_c, 0, 90, 62
1, 218107, Note_off_c, 0, 62, 64
1, 218110, Note_off_c, 0, 66, 62
1, 218115, Note_off_c, 0, 78, 61
1, 218115, Control_c, 0, 64, 100
1, 218130, Control_c, 0, 64, 108
1, 218145, Control_c, 0, 64, 115
1, 218159, Control_c, 0, 64, 123
1, 218166, Note_on_c, 0, 59, 81
1, 218174, Control_c, 0, 64, 127
1, 218262, Note_on_c, 0, 86, 95
1, 218264, Note_on_c, 0, 74, 91
1, 218265, Note_on_c, 0, 62, 62
1, 218265, Note_on_c, 0, 71, 73
1, 218269, Note_on_c, 0, 66, 75
1, 218269, Note_off_c, 0, 59, 59
1, 218311, Note_off_c, 0, 62, 54
1, 218329, Note_off_c, 0, 71, 59
1, 218335, Note_off_c, 0, 66, 61
1, 218366, Note_on_c, 0, 59, 80
1, 218472, Note_on_c, 0, 71, 74
1, 218474, Note_on_c, 0, 66, 74
1, 218476, Note_on_c, 0, 62, 70
1, 218481, Note_off_c, 0, 59, 59
1, 218514, Note_off_c, 0, 62, 63
1, 218528, Note_off_c, 0, 71, 60
1, 218532, Note_off_c, 0, 66, 63
1, 218575, Note_on_c, 0, 59, 86
1, 218669, Note_on_c, 0, 71, 77
1, 218670, Note_off_c, 0, 59, 60
1, 218672, Note_on_c, 0, 66, 78
1, 218679, Note_on_c, 0, 62, 66
1, 218711, Note_off_c, 0, 62, 65
1, 218720, Note_off_c, 0, 71, 61
1, 218729, Note_off_c, 0, 66, 63
1, 218735, Note_off_c, 0, 74, 58
1, 218767, Note_on_c, 0, 59, 87
1, 218793, Note_off_c, 0, 86, 60
1, 218874, Note_on_c, 0, 71, 77
1, 218875, Note_on_c, 0, 66, 80
1, 218878, Note_off_c, 0, 59, 58
1, 218878, Note_on_c, 0, 62, 58
1, 218910, Note_off_c, 0, 62, 65
1, 218922, Note_off_c, 0, 71, 62
1, 218930, Note_off_c, 0, 66, 63
1, 218968, Note_on_c, 0, 59, 87
1, 219064, Note_on_c, 0, 66, 79
1, 219065, Note_on_c, 0, 71, 80
1, 219074, Note_on_c, 0, 62, 57
1, 219077, Note_off_c, 0, 59, 58
1, 219094, Note_off_c, 0, 62, 65
1, 219111, Note_off_c, 0, 66, 64
1, 219111, Note_off_c, 0, 71, 60
1, 219164, Note_on_c, 0, 59, 90
1, 219176, Control_c, 0, 64, 101
1, 219176, Note_on_c, 0, 91, 96
1, 219181, Note_on_c, 0, 79, 95
1, 219191, Control_c, 0, 64, 75
1, 219206, Control_c, 0, 64, 0
1, 219280, Control_c, 0, 64, 48
1, 219283, Note_on_c, 0, 71, 74
1, 219284, Note_on_c, 0, 67, 73
1, 219286, Note_off_c, 0, 59, 59
1, 219292, Note_on_c, 0, 62, 61
1, 219295, Control_c, 0, 64, 76
1, 219309, Control_c, 0, 64, 84
1, 219318, Note_off_c, 0, 71, 57
1, 219322, Note_off_c, 0, 62, 66
1, 219323, Note_off_c, 0, 67, 59
1, 219324, Control_c, 0, 64, 93
1, 219332, Note_off_c, 0, 91, 62
1, 219339, Control_c, 0, 64, 98
1, 219354, Control_c, 0, 64, 103
1, 219358, Note_off_c, 0, 79, 62
1, 219369, Control_c, 0, 64, 107
1, 219379, Note_on_c, 0, 59, 89
1, 219383, Control_c, 0, 64, 111
1, 219413, Control_c, 0, 64, 113
1, 219471, Note_on_c, 0, 74, 93
1, 219471, Note_on_c, 0, 86, 101
1, 219481, Note_on_c, 0, 71, 79
1, 219484, Note_on_c, 0, 67, 74
1, 219486, Note_on_c, 0, 62, 65
1, 219489, Note_off_c, 0, 59, 60
1, 219522, Note_off_c, 0, 62, 63
1, 219530, Note_off_c, 0, 71, 58
1, 219533, Note_off_c, 0, 67, 59
1, 219593, Note_on_c, 0, 59, 86
1, 219688, Control_c, 0, 64, 115
1, 219688, Note_off_c, 0, 59, 58
1, 219689, Note_on_c, 0, 71, 75
1, 219691, Note_on_c, 0, 67, 73
1, 219692, Note_on_c, 0, 62, 66
1, 219723, Note_off_c, 0, 62, 66
1, 219730, Note_off_c, 0, 67, 59
1, 219732, Control_c, 0, 64, 117
1, 219736, Note_off_c, 0, 71, 58
1, 219762, Control_c, 0, 64, 119
1, 219777, Control_c, 0, 64, 121
1, 219781, Note_on_c, 0, 59, 89
1, 219792, Control_c, 0, 64, 127
1, 219887, Note_on_c, 0, 71, 79
1, 219889, Note_off_c, 0, 59, 60
1, 219890, Note_on_c, 0, 67, 76
1, 219893, Note_on_c, 0, 62, 71
1, 219909, Note_off_c, 0, 74, 58
1, 219925, Note_off_c, 0, 62, 63
1, 219935, Note_off_c, 0, 67, 57
1, 219945, Note_off_c, 0, 71, 56
1, 219984, Note_on_c, 0, 59, 88
1, 220015, Note_off_c, 0, 86, 60
1, 220079, Note_on_c, 0, 71, 79
1, 220084, Note_on_c, 0, 67, 78
1, 220085, Note_on_c, 0, 62, 65
1, 220092, Note_off_c, 0, 59, 61
1, 220121, Note_off_c, 0, 62, 62
1, 220122, Note_off_c, 0, 67, 59
1, 220133, Note_off_c, 0, 71, 57
1, 220175, Note_on_c, 0, 59, 90
1, 220253, Note_on_c, 0, 62, 24
1, 220270, Note_on_c, 0, 67, 78
1, 220270, Note_on_c, 0, 71, 80
1, 220276, Note_off_c, 0, 59, 58
1, 220286, Note_off_c, 0, 62, 64
1, 220307, Note_off_c, 0, 67, 63
1, 220328, Note_off_c, 0, 71, 63
1, 220377, Note_on_c, 0, 60, 98
1, 220381, Note_on_c, 0, 91, 104
1, 220385, Note_on_c, 0, 79, 101
1, 220393, Control_c, 0, 64, 93
1, 220408, Control_c, 0, 64, 73
1, 220422, Control_c, 0, 64, 0
1, 220486, Note_on_c, 0, 72, 84
1, 220493, Note_on_c, 0, 67, 75
1, 220496, Note_on_c, 0, 64, 69
1, 220496, Note_off_c, 0, 60, 61
1, 220522, Note_off_c, 0, 64, 66
1, 220526, Control_c, 0, 64, 77
1, 220530, Note_off_c, 0, 67, 59
1, 220541, Control_c, 0, 64, 89
1, 220544, Note_off_c, 0, 72, 58
1, 220556, Control_c, 0, 64, 107
1, 220566, Note_off_c, 0, 91, 61
1, 220571, Control_c, 0, 64, 127
1, 220577, Note_off_c, 0, 79, 60
1, 220579, Note_on_c, 0, 60, 94
1, 220680, Note_on_c, 0, 64, 67
1, 220680, Note_on_c, 0, 76, 97
1, 220680, Note_on_c, 0, 88, 101
1, 220685, Note_on_c, 0, 72, 88
1, 220687, Note_on_c, 0, 67, 78
1, 220688, Note_off_c, 0, 60, 56
1, 220729, Note_off_c, 0, 64, 64
1, 220741, Note_off_c, 0, 67, 60
1, 220766, Note_off_c, 0, 72, 58
1, 220776, Note_on_c, 0, 60, 93
1, 220876, Note_on_c, 0, 72, 84
1, 220882, Note_off_c, 0, 60, 60
1, 220884, Note_on_c, 0, 67, 76
1, 220885, Note_on_c, 0, 64, 72
1, 220911, Note_off_c, 0, 64, 66
1, 220921, Note_off_c, 0, 67, 57
1, 220934, Note_off_c, 0, 72, 58
1, 220969, Note_on_c, 0, 60, 94
1, 221078, Note_on_c, 0, 64, 56
1, 221079, Note_on_c, 0, 72, 86
1, 221081, Note_off_c, 0, 60, 58
1, 221087, Note_on_c, 0, 67, 75
1, 221115, Note_off_c, 0, 64, 65
1, 221122, Note_off_c, 0, 67, 58
1, 221138, Note_off_c, 0, 72, 58
1, 221172, Note_on_c, 0, 60, 89
1, 221277, Note_on_c, 0, 72, 88
1, 221280, Note_on_c, 0, 67, 79
1, 221286, Note_on_c, 0, 64, 70
1, 221288, Note_off_c, 0, 60, 59
1, 221310, Note_off_c, 0, 64, 67
1, 221331, Note_off_c, 0, 67, 61
1, 221337, Note_off_c, 0, 72, 59
1, 221371, Note_on_c, 0, 60, 90
1, 221477, Note_on_c, 0, 72, 83
1, 221480, Note_on_c, 0, 64, 47
1, 221483, Note_on_c, 0, 67, 68
1, 221483, Note_off_c, 0, 60, 58
1, 221498, Note_off_c, 0, 67, 68
1, 221510, Note_off_c, 0, 64, 52
1, 221520, Note_off_c, 0, 72, 57
1, 221578, Note_off_c, 0, 76, 54
1, 221623, Poly_aftertouch_c, 0, 67, 127
1, 221671, Note_on_c, 0, 61, 82
1, 221680, Note_off_c, 0, 88, 55
1, 221694, Poly_aftertouch_c, 0, 67, 0
1, 221704, Control_c, 0, 64, 93
1, 221716, Note_on_c, 0, 64, 74
1, 221719, Control_c, 0, 64, 75
1, 221734, Control_c, 0, 64, 57
1, 221749, Control_c, 0, 64, 0
1, 221786, Note_on_c, 0, 67, 77
1, 221856, Note_on_c, 0, 70, 84
1, 221875, Control_c, 0, 64, 64
1, 221890, Control_c, 0, 64, 68
1, 221900, Note_on_c, 0, 73, 89
1, 221906, Control_c, 0, 64, 68
1, 221921, Control_c, 0, 64, 70
1, 221935, Control_c, 0, 64, 73
1, 221950, Control_c, 0, 64, 76
1, 221965, Control_c, 0, 64, 81
1, 221980, Control_c, 0, 64, 86
1, 221995, Control_c, 0, 64, 91
1, 222009, Control_c, 0, 64, 98
1, 222024, Note_on_c, 0, 79, 76
1, 222024, Control_c, 0, 64, 107
1, 222039, Control_c, 0, 64, 120
1, 222040, Note_off_c, 0, 61, 58
1, 222046, Note_off_c, 0, 73, 62
1, 222053, Control_c, 0, 64, 127
1, 222068, Note_off_c, 0, 64, 62
1, 222069, Note_off_c, 0, 67, 58
1, 222079, Note_on_c, 0, 82, 78
1, 222088, Note_off_c, 0, 79, 61
1, 222107, Note_off_c, 0, 70, 60
1, 222133, Note_on_c, 0, 85, 76
1, 222148, Note_off_c, 0, 82, 63
1, 222182, Note_on_c, 0, 88, 82
1, 222220, Note_off_c, 0, 85, 63
1, 222227, Note_on_c, 0, 91, 86
1, 222255, Note_off_c, 0, 88, 65
1, 222282, Note_on_c, 0, 79, 87
1, 222292, Note_off_c, 0, 91, 62
1, 222341, Note_off_c, 0, 79, 61
1, 222345, Note_on_c, 0, 64, 88
1, 222393, Note_on_c, 0, 67, 72
1, 222460, Note_on_c, 0, 70, 87
1, 222505, Note_off_c, 0, 64, 61
1, 222508, Note_on_c, 0, 73, 86
1, 222514, Note_off_c, 0, 67, 62
1, 222559, Note_on_c, 0, 76, 86
1, 222680, Note_on_c, 0, 79, 80
1, 222697, Note_off_c, 0, 76, 59
1, 222735, Note_on_c, 0, 82, 75
1, 222756, Note_off_c, 0, 79, 59
1, 222779, Note_off_c, 0, 73, 51
1, 222783, Note_on_c, 0, 85, 82
1, 222792, Note_off_c, 0, 70, 54
1, 222805, Note_off_c, 0, 82, 62
1, 222831, Note_on_c, 0, 88, 80
1, 222869, Note_off_c, 0, 85, 63
1, 222875, Note_on_c, 0, 91, 87
1, 222902, Note_off_c, 0, 88, 64
1, 222932, Note_on_c, 0, 79, 88
1, 222947, Note_off_c, 0, 91, 65
1, 222985, Note_off_c, 0, 79, 62
1, 222998, Note_on_c, 0, 67, 87
1, 223050, Note_on_c, 0, 70, 83
1, 223091, Note_on_c, 0, 73, 88
1, 223104, Note_off_c, 0, 67, 62
1, 223141, Note_on_c, 0, 76, 80
1, 223323, Note_on_c, 0, 79, 85
1, 223326, Note_off_c, 0, 76, 59
1, 223381, Note_on_c, 0, 82, 82
1, 223391, Note_off_c, 0, 79, 58
1, 223412, Note_off_c, 0, 70, 59
1, 223423, Note_on_c, 0, 85, 77
1, 223446, Note_off_c, 0, 82, 62
1, 223476, Note_off_c, 0, 73, 27
1, 223481, Note_on_c, 0, 88, 82
1, 223517, Note_off_c, 0, 85, 64
1, 223524, Note_on_c, 0, 91, 86
1, 223553, Note_off_c, 0, 88, 62
1, 223573, Note_on_c, 0, 79, 85
1, 223587, Note_off_c, 0, 91, 65
1, 223617, Note_off_c, 0, 79, 64
1, 223642, Note_on_c, 0, 70, 89
1, 223695, Note_on_c, 0, 73, 92
1, 223750, Note_on_c, 0, 76, 88
1, 223918, Note_off_c, 0, 76, 57
1, 223947, Note_on_c, 0, 79, 84
1, 223981, Note_off_c, 0, 70, 60
1, 223983, Note_off_c, 0, 73, 59
1, 224002, Note_on_c, 0, 82, 79
1, 224020, Note_off_c, 0, 79, 59
1, 224050, Note_on_c, 0, 85, 78
1, 224094, Note_off_c, 0, 82, 61
1, 224116, Note_on_c, 0, 88, 79
1, 224149, Note_off_c, 0, 85, 63
1, 224164, Note_on_c, 0, 91, 85
1, 224196, Note_off_c, 0, 88, 62
1, 224205, Note_on_c, 0, 79, 87
1, 224220, Note_off_c, 0, 91, 64
1, 224252, Note_off_c, 0, 79, 62
1, 224282, Note_on_c, 0, 73, 80
1, 224336, Note_on_c, 0, 76, 75
1, 224360, Note_off_c, 0, 73, 63
1, 224383, Note_off_c, 0, 76, 63
1, 224391, Note_on_c, 0, 82, 85
1, 224395, Note_on_c, 0, 79, 79
1, 224422, Note_off_c, 0, 79, 63
1, 224449, Note_on_c, 0, 85, 79
1, 224453, Note_off_c, 0, 82, 63
1, 224499, Note_on_c, 0, 88, 84
1, 224541, Note_off_c, 0, 85, 63
1, 224548, Note_on_c, 0, 91, 87
1, 224562, Note_off_c, 0, 88, 66
1, 224585, Note_off_c, 0, 91, 66
1, 224589, Note_on_c, 0, 76, 75
1, 224625, Note_on_c, 0, 79, 75
1, 224681, Note_off_c, 0, 76, 58
1, 224695, Note_off_c, 0, 79, 63
1, 224702, Note_on_c, 0, 82, 80
1, 224719, Note_on_c, 0, 85, 88
1, 224726, Note_off_c, 0, 82, 63
1, 224750, Note_on_c, 0, 88, 73
1, 224777, Note_off_c, 0, 85, 63
1, 224799, Note_on_c, 0, 91, 80
1, 224846, Note_off_c, 0, 88, 64
1, 224854, Note_on_c, 0, 94, 84
1, 224869, Note_off_c, 0, 91, 66
1, 224902, Note_on_c, 0, 79, 81
1, 224906, Note_off_c, 0, 94, 64
1, 224959, Note_on_c, 0, 82, 84
1, 224968, Note_off_c, 0, 79, 61
1, 225005, Note_off_c, 0, 82, 62
1, 225007, Note_on_c, 0, 85, 84
1, 225035, Note_off_c, 0, 85, 59
1, 225066, Note_on_c, 0, 88, 80
1, 225108, Note_on_c, 0, 91, 82
1, 225117, Note_off_c, 0, 88, 65
1, 225170, Note_on_c, 0, 94, 88
1, 225174, Note_off_c, 0, 91, 64
1, 225209, Note_off_c, 0, 94, 65
1, 225225, Note_on_c, 0, 82, 79
1, 225267, Note_on_c, 0, 85, 89
1, 225281, Note_off_c, 0, 82, 63
1, 225315, Note_off_c, 0, 85, 65
1, 225331, Note_on_c, 0, 88, 78
1, 225352, Note_off_c, 0, 88, 71
1, 225389, Note_on_c, 0, 88, 80
1, 225434, Note_on_c, 0, 91, 84
1, 225438, Note_off_c, 0, 88, 66
1, 225488, Note_off_c, 0, 91, 64
1, 225494, Note_on_c, 0, 94, 90
1, 225528, Note_off_c, 0, 94, 66
1, 225560, Note_on_c, 0, 85, 82
1, 225626, Note_on_c, 0, 88, 88
1, 225629, Note_off_c, 0, 85, 63
1, 225644, Note_off_c, 0, 88, 73
1, 225692, Note_on_c, 0, 88, 83
1, 225750, Note_on_c, 0, 91, 88
1, 225755, Note_off_c, 0, 88, 66
1, 225796, Note_off_c, 0, 91, 64
1, 225801, Note_on_c, 0, 94, 89
1, 225834, Note_off_c, 0, 94, 66
1, 225899, Note_on_c, 0, 82, 73
1, 225954, Note_on_c, 0, 85, 87
1, 225959, Note_off_c, 0, 82, 62
1, 225972, Note_off_c, 0, 85, 70
1, 226020, Note_on_c, 0, 85, 83
1, 226065, Note_off_c, 0, 85, 66
1, 226078, Note_on_c, 0, 88, 78
1, 226136, Note_on_c, 0, 91, 95
1, 226143, Note_off_c, 0, 88, 64
1, 226173, Note_off_c, 0, 91, 66
1, 226233, Note_on_c, 0, 79, 72
1, 226288, Note_on_c, 0, 82, 88
1, 226288, Note_off_c, 0, 79, 62
1, 226316, Note_off_c, 0, 82, 68
1, 226372, Note_on_c, 0, 82, 79
1, 226416, Note_off_c, 0, 82, 65
1, 226421, Note_on_c, 0, 85, 79
1, 226479, Note_on_c, 0, 88, 89
1, 226486, Note_off_c, 0, 85, 64
1, 226515, Note_off_c, 0, 88, 63
1, 226579, Note_on_c, 0, 76, 72
1, 226628, Note_off_c, 0, 76, 61
1, 226632, Note_on_c, 0, 79, 89
1, 226650, Note_off_c, 0, 79, 72
1, 226702, Note_on_c, 0, 79, 84
1, 226762, Note_off_c, 0, 79, 62
1, 226762, Note_on_c, 0, 82, 83
1, 226819, Note_off_c, 0, 82, 62
1, 226823, Note_on_c, 0, 85, 90
1, 226858, Note_off_c, 0, 85, 63
1, 226919, Note_on_c, 0, 73, 76
1, 226974, Note_off_c, 0, 73, 61
1, 226980, Note_on_c, 0, 76, 74
1, 226996, Note_off_c, 0, 76, 68
1, 227048, Note_on_c, 0, 76, 79
1, 227105, Note_on_c, 0, 79, 82
1, 227108, Note_off_c, 0, 76, 59
1, 227152, Note_off_c, 0, 79, 63
1, 227164, Note_on_c, 0, 82, 84
1, 227182, Note_off_c, 0, 82, 71
1, 227258, Note_on_c, 0, 70, 76
1, 227317, Note_off_c, 0, 70, 62
1, 227317, Note_on_c, 0, 73, 80
1, 227339, Note_off_c, 0, 73, 69
1, 227388, Note_on_c, 0, 73, 78
1, 227433, Note_off_c, 0, 73, 61
1, 227439, Note_on_c, 0, 76, 75
1, 227501, Note_on_c, 0, 79, 82
1, 227502, Note_off_c, 0, 76, 62
1, 227527, Note_off_c, 0, 79, 65
1, 227594, Note_on_c, 0, 67, 75
1, 227644, Note_off_c, 0, 67, 64
1, 227652, Note_on_c, 0, 70, 82
1, 227670, Note_off_c, 0, 70, 70
1, 227714, Note_on_c, 0, 70, 78
1, 227762, Note_off_c, 0, 70, 65
1, 227769, Note_on_c, 0, 73, 80
1, 227838, Note_on_c, 0, 76, 85
1, 227843, Note_off_c, 0, 73, 62
1, 227876, Note_off_c, 0, 76, 58
1, 227932, Note_on_c, 0, 64, 75
1, 227986, Note_on_c, 0, 67, 83
1, 227990, Note_off_c, 0, 64, 63
1, 228006, Note_off_c, 0, 67, 69
1, 228050, Note_on_c, 0, 67, 83
1, 228115, Note_off_c, 0, 67, 62
1, 228117, Note_on_c, 0, 70, 81
1, 228173, Note_off_c, 0, 70, 63
1, 228178, Note_on_c, 0, 73, 88
1, 228216, Note_off_c, 0, 73, 62
1, 228287, Note_on_c, 0, 61, 78
1, 228340, Note_on_c, 0, 64, 81
1, 228343, Note_off_c, 0, 61, 62
1, 228361, Note_off_c, 0, 64, 69
1, 228403, Note_on_c, 0, 64, 78
1, 228461, Note_on_c, 0, 67, 78
1, 228466, Note_off_c, 0, 64, 63
1, 228512, Note_off_c, 0, 67, 62
1, 228516, Note_on_c, 0, 70, 90
1, 228550, Note_off_c, 0, 70, 63
1, 228627, Note_on_c, 0, 58, 76
1, 228688, Note_on_c, 0, 61, 86
1, 228698, Note_off_c, 0, 58, 62
1, 228713, Note_off_c, 0, 61, 66
1, 228758, Note_on_c, 0, 61, 71
1, 228801, Note_off_c, 0, 61, 58
1, 228815, Note_on_c, 0, 64, 74
1, 228867, Note_on_c, 0, 67, 80
1, 228874, Note_off_c, 0, 64, 64
1, 228910, Note_off_c, 0, 67, 63
1, 228918, Poly_aftertouch_c, 0, 58, 127
1, 228953, Poly_aftertouch_c, 0, 58, 0
1, 228962, Note_on_c, 0, 55, 77
1, 229022, Note_off_c, 0, 55, 61
1, 229025, Note_on_c, 0, 58, 76
1, 229049, Note_off_c, 0, 58, 64
1, 229097, Note_on_c, 0, 58, 72
1, 229144, Note_on_c, 0, 61, 78
1, 229144, Note_off_c, 0, 58, 63
1, 229210, Note_on_c, 0, 64, 83
1, 229216, Note_off_c, 0, 61, 62
1, 229251, Note_off_c, 0, 64, 63
1, 229290, Note_on_c, 0, 52, 78
1, 229356, Note_on_c, 0, 55, 78
1, 229359, Note_off_c, 0, 52, 61
1, 229373, Note_off_c, 0, 55, 66
1, 229421, Note_on_c, 0, 55, 82
1, 229484, Note_off_c, 0, 55, 59
1, 229485, Note_on_c, 0, 58, 79
1, 229549, Note_off_c, 0, 58, 62
1, 229550, Note_on_c, 0, 61, 86
1, 229580, Note_off_c, 0, 61, 62
1, 229630, Note_on_c, 0, 49, 82
1, 229688, Note_on_c, 0, 52, 75
1, 229689, Note_off_c, 0, 49, 64
1, 229713, Note_off_c, 0, 52, 64
1, 229763, Note_on_c, 0, 52, 77
1, 229821, Note_on_c, 0, 55, 79
1, 229821, Note_off_c, 0, 52, 58
1, 229878, Note_on_c, 0, 58, 89
1, 229879, Note_off_c, 0, 55, 61
1, 229916, Note_off_c, 0, 58, 63
1, 229969, Note_on_c, 0, 46, 80
1, 230028, Note_on_c, 0, 49, 84
1, 230037, Note_off_c, 0, 46, 62
1, 230052, Note_off_c, 0, 49, 67
1, 230101, Note_on_c, 0, 49, 78
1, 230148, Note_off_c, 0, 49, 65
1, 230177, Note_on_c, 0, 52, 64
1, 230233, Note_on_c, 0, 55, 84
1, 230246, Note_off_c, 0, 52, 61
1, 230282, Note_off_c, 0, 55, 60
1, 230327, Note_on_c, 0, 43, 84
1, 230383, Note_on_c, 0, 46, 88
1, 230393, Note_off_c, 0, 43, 60
1, 230415, Note_off_c, 0, 46, 65
1, 230458, Note_on_c, 0, 46, 70
1, 230524, Note_off_c, 0, 46, 61
1, 230533, Note_on_c, 0, 49, 77
1, 230602, Note_on_c, 0, 52, 84
1, 230604, Note_off_c, 0, 49, 63
1, 230649, Note_off_c, 0, 52, 62
1, 230707, Note_on_c, 0, 40, 93
1, 230768, Note_off_c, 0, 40, 64
1, 230771, Note_on_c, 0, 43, 90
1, 230797, Note_off_c, 0, 43, 67
1, 230884, Note_on_c, 0, 43, 87
1, 230914, Note_on_c, 0, 49, 25
1, 230955, Note_off_c, 0, 49, 41
1, 230961, Note_on_c, 0, 46, 86
1, 230976, Note_off_c, 0, 43, 58
1, 231040, Note_on_c, 0, 49, 89
1, 231056, Note_off_c, 0, 46, 59
1, 231081, Note_off_c, 0, 49, 66
1, 231295, Note_on_c, 0, 37, 99
1, 231295, Note_on_c, 0, 46, 72
1, 231300, Note_on_c, 0, 43, 84
1, 231458, Note_off_c, 0, 37, 62
1, 231608, Note_on_c, 0, 52, 62
1, 231610, Note_off_c, 0, 46, 61
1, 231626, Note_off_c, 0, 43, 58
1, 231701, Note_off_c, 0, 52, 60
1, 231718, Note_on_c, 0, 46, 68
1, 231726, Note_on_c, 0, 43, 61
1, 231774, Note_off_c, 0, 43, 52
1, 231774, Note_off_c, 0, 46, 60
1, 231783, Note_on_c, 0, 52, 67
1, 231851, Note_off_c, 0, 52, 60
1, 231857, Note_on_c, 0, 46, 66
1, 231858, Note_on_c, 0, 43, 64
1, 231901, Note_off_c, 0, 46, 61
1, 231903, Note_off_c, 0, 43, 57
1, 231904, Note_on_c, 0, 52, 58
1, 231965, Note_on_c, 0, 73, 80
1, 231970, Note_off_c, 0, 52, 60
1, 231972, Note_on_c, 0, 43, 69
1, 231976, Note_on_c, 0, 46, 74
1, 232015, Note_off_c, 0, 73, 61
1, 232018, Note_off_c, 0, 46, 61
1, 232022, Note_off_c, 0, 43, 58
1, 232029, Note_on_c, 0, 52, 58
1, 232080, Note_on_c, 0, 73, 83
1, 232086, Note_off_c, 0, 52, 61
1, 232088, Note_on_c, 0, 46, 73
1, 232094, Note_on_c, 0, 43, 63
1, 232138, Note_off_c, 0, 43, 58
1, 232145, Note_off_c, 0, 46, 61
1, 232145, Note_off_c, 0, 73, 61
1, 232155, Note_on_c, 0, 52, 67
1, 232199, Note_on_c, 0, 73, 92
1, 232219, Note_on_c, 0, 43, 71
1, 232220, Note_off_c, 0, 52, 59
1, 232222, Note_on_c, 0, 46, 77
1, 232264, Note_off_c, 0, 73, 62
1, 232278, Note_on_c, 0, 52, 63
1, 232280, Note_off_c, 0, 46, 62
1, 232280, Note_off_c, 0, 43, 55
1, 232339, Note_on_c, 0, 73, 100
1, 232354, Note_off_c, 0, 52, 60
1, 232357, Note_on_c, 0, 46, 73
1, 232366, Note_on_c, 0, 43, 63
1, 232402, Note_off_c, 0, 73, 64
1, 232405, Note_off_c, 0, 43, 58
1, 232412, Note_off_c, 0, 46, 62
1, 232422, Note_on_c, 0, 52, 62
1, 232472, Note_off_c, 0, 52, 59
1, 232481, Note_on_c, 0, 43, 63
1, 232483, Note_on_c, 0, 46, 62
1, 232523, Note_off_c, 0, 43, 57
1, 232532, Note_off_c, 0, 46, 62
1, 232543, Note_on_c, 0, 52, 64
1, 232591, Note_off_c, 0, 52, 60
1, 232602, Note_on_c, 0, 43, 59
1, 232608, Note_on_c, 0, 46, 63
1, 232643, Note_off_c, 0, 46, 58
1, 232643, Note_off_c, 0, 43, 58
1, 232662, Note_on_c, 0, 52, 65
1, 232697, Note_off_c, 0, 52, 57
1, 232711, Note_on_c, 0, 37, 84
1, 232712, Note_on_c, 0, 43, 68
1, 232714, Note_on_c, 0, 46, 70
1, 232765, Note_off_c, 0, 43, 50
1, 232766, Note_off_c, 0, 37, 60
1, 232772, Note_on_c, 0, 52, 63
1, 232778, Note_off_c, 0, 46, 61
1, 232825, Note_on_c, 0, 37, 82
1, 232828, Note_off_c, 0, 52, 55
1, 232834, Note_on_c, 0, 46, 57
1, 232840, Note_on_c, 0, 43, 61
1, 232885, Note_off_c, 0, 37, 61
1, 232889, Note_off_c, 0, 43, 57
1, 232895, Note_on_c, 0, 52, 63
1, 232897, Note_off_c, 0, 46, 61
1, 232947, Note_on_c, 0, 37, 86
1, 232962, Note_off_c, 0, 52, 59
1, 232964, Note_on_c, 0, 46, 68
1, 232972, Note_on_c, 0, 43, 69
1, 233008, Note_off_c, 0, 43, 54
1, 233009, Note_off_c, 0, 37, 61
1, 233021, Note_on_c, 0, 52, 64
1, 233025, Note_off_c, 0, 46, 62
1, 233077, Note_on_c, 0, 37, 92
1, 233097, Note_off_c, 0, 52, 59
1, 233100, Note_on_c, 0, 43, 62
1, 233101, Note_on_c, 0, 46, 71
1, 233155, Note_on_c, 0, 52, 66
1, 233165, Note_off_c, 0, 46, 61
1, 233171, Note_off_c, 0, 43, 56
1, 233176, Note_off_c, 0, 37, 61
1, 233216, Note_on_c, 0, 43, 46
1, 233221, Note_on_c, 0, 46, 63
1, 233223, Note_off_c, 0, 52, 60
1, 233273, Note_off_c, 0, 43, 59
1, 233276, Note_on_c, 0, 52, 59
1, 233280, Note_off_c, 0, 46, 61
1, 233340, Note_off_c, 0, 52, 59
1, 233350, Note_on_c, 0, 46, 66
1, 233353, Note_on_c, 0, 43, 58
1, 233392, Note_off_c, 0, 43, 56
1, 233401, Note_on_c, 0, 52, 58
1, 233404, Note_off_c, 0, 46, 59
1, 233456, Note_off_c, 0, 52, 61
1, 233457, Note_on_c, 0, 46, 60
1, 233478, Poly_aftertouch_c, 0, 43, 127
1, 233480, Note_on_c, 0, 73, 80
1, 233505, Poly_aftertouch_c, 0, 43, 0
1, 233520, Note_off_c, 0, 46, 60
1, 233527, Note_on_c, 0, 52, 66
1, 233539, Note_off_c, 0, 73, 61
1, 233585, Note_off_c, 0, 52, 61
1, 233585, Note_on_c, 0, 46, 64
1, 233598, Note_on_c, 0, 73, 84
1, 233603, Note_on_c, 0, 43, 53
1, 233633, Note_off_c, 0, 43, 57
1, 233645, Note_off_c, 0, 46, 62
1, 233651, Note_on_c, 0, 52, 56
1, 233654, Note_off_c, 0, 73, 61
1, 233704, Note_off_c, 0, 52, 61
1, 233705, Note_on_c, 0, 46, 61
1, 233709, Note_on_c, 0, 73, 92
1, 233725, Note_on_c, 0, 43, 55
1, 233761, Note_off_c, 0, 43, 60
1, 233763, Note_off_c, 0, 46, 61
1, 233772, Note_off_c, 0, 73, 62
1, 233779, Note_on_c, 0, 52, 67
1, 233832, Note_off_c, 0, 52, 60
1, 233842, Note_on_c, 0, 73, 94
1, 233850, Note_on_c, 0, 46, 68
1, 233851, Note_on_c, 0, 43, 64
1, 233902, Note_off_c, 0, 43, 55
1, 233904, Note_off_c, 0, 46, 60
1, 233905, Note_off_c, 0, 73, 63
1, 233914, Note_on_c, 0, 52, 67
1, 233964, Note_off_c, 0, 52, 58
1, 233979, Note_on_c, 0, 46, 60
1, 233982, Note_on_c, 0, 43, 59
1, 234018, Note_off_c, 0, 43, 61
1, 234028, Note_off_c, 0, 46, 61
1, 234040, Note_on_c, 0, 52, 55
1, 234074, Note_off_c, 0, 52, 61
1, 234104, Note_on_c, 0, 46, 56
1, 234110, Note_on_c, 0, 43, 52
1, 234137, Note_off_c, 0, 46, 62
1, 234143, Note_off_c, 0, 43, 55
1, 234146, Note_on_c, 0, 52, 67
1, 234189, Note_off_c, 0, 52, 55
1, 234205, Note_on_c, 0, 37, 86
1, 234209, Note_on_c, 0, 46, 63
1, 234225, Note_on_c, 0, 43, 57
1, 234259, Note_off_c, 0, 37, 62
1, 234262, Note_off_c, 0, 43, 58
1, 234270, Note_off_c, 0, 46, 60
1, 234277, Note_on_c, 0, 52, 68
1, 234322, Note_off_c, 0, 52, 60
1, 234327, Note_on_c, 0, 37, 87
1, 234337, Note_on_c, 0, 46, 65
1, 234340, Note_on_c, 0, 43, 59
1, 234381, Note_off_c, 0, 37, 61
1, 234384, Note_off_c, 0, 43, 54
1, 234396, Note_on_c, 0, 52, 70
1, 234397, Note_off_c, 0, 46, 60
1, 234453, Note_on_c, 0, 37, 88
1, 234458, Note_off_c, 0, 52, 59
1, 234472, Note_on_c, 0, 43, 63
1, 234472, Note_on_c, 0, 46, 66
1, 234512, Note_off_c, 0, 37, 60
1, 234518, Note_off_c, 0, 43, 53
1, 234530, Note_on_c, 0, 52, 65
1, 234532, Note_off_c, 0, 46, 60
1, 234537, Control_c, 0, 64, 95
1, 234559, Control_c, 0, 64, 65
1, 234574, Control_c, 0, 64, 0
1, 234607, Note_off_c, 0, 52, 60
1, 234611, Note_on_c, 0, 36, 92
1, 234627, Note_on_c, 0, 46, 64
1, 234629, Note_on_c, 0, 43, 60
1, 234694, Note_off_c, 0, 46, 62
1, 234694, Note_off_c, 0, 43, 55
1, 234697, Note_on_c, 0, 52, 67
1, 234738, Control_c, 0, 64, 34
1, 234746, Note_off_c, 0, 52, 58
1, 234749, Note_off_c, 0, 36, 63
1, 234753, Control_c, 0, 64, 73
1, 234768, Control_c, 0, 64, 82
1, 234769, Note_on_c, 0, 46, 61
1, 234773, Note_on_c, 0, 43, 58
1, 234782, Control_c, 0, 64, 90
1, 234797, Control_c, 0, 64, 95
1, 234812, Control_c, 0, 64, 101
1, 234820, Note_off_c, 0, 46, 60
1, 234822, Note_off_c, 0, 43, 56
1, 234826, Control_c, 0, 64, 109
1, 234827, Note_on_c, 0, 52, 70
1, 234841, Control_c, 0, 64, 127
1, 234890, Note_off_c, 0, 52, 59
1, 234897, Note_on_c, 0, 46, 64
1, 234909, Note_on_c, 0, 43, 56
1, 234942, Note_off_c, 0, 43, 60
1, 234952, Note_on_c, 0, 52, 60
1, 234954, Note_off_c, 0, 46, 59
1, 234997, Note_on_c, 0, 73, 89
1, 235014, Note_off_c, 0, 52, 59
1, 235016, Note_on_c, 0, 46, 58
1, 235028, Note_on_c, 0, 43, 61
1, 235034, Note_off_c, 0, 73, 58
1, 235061, Note_off_c, 0, 46, 59
1, 235064, Note_off_c, 0, 43, 61
1, 235079, Note_on_c, 0, 52, 58
1, 235119, Note_on_c, 0, 73, 89
1, 235122, Note_off_c, 0, 52, 57
1, 235141, Note_on_c, 0, 46, 68
1, 235157, Note_on_c, 0, 43, 55
1, 235168, Note_off_c, 0, 73, 61
1, 235195, Note_off_c, 0, 43, 57
1, 235196, Note_off_c, 0, 46, 60
1, 235204, Note_on_c, 0, 52, 70
1, 235229, Note_on_c, 0, 73, 89
1, 235260, Note_off_c, 0, 52, 58
1, 235268, Note_on_c, 0, 46, 64
1, 235290, Note_off_c, 0, 73, 62
1, 235309, Note_on_c, 0, 43, 38
1, 235319, Note_off_c, 0, 46, 59
1, 235334, Note_on_c, 0, 52, 62
1, 235339, Note_off_c, 0, 43, 48
1, 235353, Control_c, 0, 64, 93
1, 235359, Note_on_c, 0, 72, 94
1, 235368, Control_c, 0, 64, 71
1, 235374, Note_off_c, 0, 52, 60
1, 235382, Control_c, 0, 64, 0
1, 235399, Note_on_c, 0, 46, 67
1, 235404, Note_on_c, 0, 43, 52
1, 235437, Note_off_c, 0, 46, 62
1, 235451, Note_off_c, 0, 43, 58
1, 235454, Note_off_c, 0, 72, 64
1, 235456, Control_c, 0, 64, 53
1, 235458, Note_on_c, 0, 52, 68
1, 235472, Control_c, 0, 64, 76
1, 235487, Control_c, 0, 64, 89
1, 235500, Note_off_c, 0, 52, 61
1, 235502, Control_c, 0, 64, 113
1, 235517, Control_c, 0, 64, 127
1, 235519, Note_on_c, 0, 46, 70
1, 235526, Note_on_c, 0, 43, 56
1, 235559, Note_off_c, 0, 46, 59
1, 235570, Note_off_c, 0, 43, 55
1, 235579, Note_on_c, 0, 52, 69
1, 235619, Note_off_c, 0, 52, 60
1, 235641, Note_on_c, 0, 43, 48
1, 235642, Note_on_c, 0, 46, 64
1, 235679, Note_off_c, 0, 46, 59
1, 235685, Note_on_c, 0, 52, 66
1, 235686, Note_off_c, 0, 43, 56
1, 235733, Note_off_c, 0, 52, 54
1, 235736, Note_on_c, 0, 37, 81
1, 235750, Note_on_c, 0, 46, 67
1, 235759, Note_on_c, 0, 43, 58
1, 235778, Note_off_c, 0, 37, 62
1, 235801, Note_off_c, 0, 43, 55
1, 235806, Note_off_c, 0, 46, 59
1, 235812, Note_on_c, 0, 52, 70
1, 235850, Note_on_c, 0, 37, 83
1, 235863, Note_off_c, 0, 52, 56
1, 235878, Note_on_c, 0, 46, 58
1, 235882, Note_on_c, 0, 43, 62
1, 235905, Note_off_c, 0, 37, 60
1, 235922, Note_off_c, 0, 43, 58
1, 235928, Note_off_c, 0, 46, 60
1, 235928, Note_on_c, 0, 52, 64
1, 235976, Note_on_c, 0, 37, 86
1, 235987, Note_off_c, 0, 52, 58
1, 236002, Note_on_c, 0, 46, 63
1, 236009, Note_on_c, 0, 43, 63
1, 236038, Note_off_c, 0, 37, 60
1, 236042, Note_off_c, 0, 43, 62
1, 236066, Note_on_c, 0, 52, 67
1, 236069, Note_off_c, 0, 46, 60
1, 236101, Control_c, 0, 64, 96
1, 236116, Control_c, 0, 64, 69
1, 236123, Note_on_c, 0, 36, 88
1, 236126, Note_off_c, 0, 52, 60
1, 236131, Control_c, 0, 64, 0
1, 236134, Note_on_c, 0, 43, 55
1, 236140, Note_on_c, 0, 46, 63
1, 236189, Note_off_c, 0, 43, 54
1, 236196, Note_on_c, 0, 52, 62
1, 236200, Note_off_c, 0, 46, 61
1, 236235, Control_c, 0, 64, 70
1, 236245, Note_off_c, 0, 36, 63
1, 236249, Control_c, 0, 64, 86
1, 236251, Note_off_c, 0, 52, 58
1, 236264, Control_c, 0, 64, 98
1, 236267, Note_on_c, 0, 43, 60
1, 236269, Note_on_c, 0, 46, 61
1, 236280, Control_c, 0, 64, 106
1, 236315, Note_off_c, 0, 46, 60
1, 236321, Note_off_c, 0, 43, 57
1, 236324, Note_on_c, 0, 52, 67
1, 236325, Control_c, 0, 64, 109
1, 236340, Control_c, 0, 64, 113
1, 236354, Control_c, 0, 64, 120
1, 236369, Control_c, 0, 64, 127
1, 236371, Note_off_c, 0, 52, 55
1, 236390, Note_on_c, 0, 46, 61
1, 236402, Note_on_c, 0, 43, 53
1, 236438, Note_off_c, 0, 43, 56
1, 236442, Note_off_c, 0, 46, 60
1, 236452, Note_on_c, 0, 52, 66
1, 236505, Note_off_c, 0, 52, 57
1, 236511, Note_on_c, 0, 46, 61
1, 236533, Poly_aftertouch_c, 0, 43, 127
1, 236535, Note_on_c, 0, 73, 80
1, 236558, Poly_aftertouch_c, 0, 43, 0
1, 236569, Note_off_c, 0, 46, 60
1, 236572, Note_on_c, 0, 52, 62
1, 236587, Note_off_c, 0, 73, 59
1, 236639, Note_off_c, 0, 52, 60
1, 236644, Note_on_c, 0, 46, 65
1, 236662, Note_on_c, 0, 73, 85
1, 236664, Note_on_c, 0, 43, 52
1, 236708, Note_off_c, 0, 43, 52
1, 236711, Note_off_c, 0, 46, 61
1, 236712, Note_off_c, 0, 73, 61
1, 236718, Note_on_c, 0, 52, 57
1, 236772, Note_on_c, 0, 73, 83
1, 236781, Note_off_c, 0, 52, 59
1, 236782, Note_on_c, 0, 46, 60
1, 236813, Note_on_c, 0, 43, 57
1, 236847, Note_off_c, 0, 73, 61
1, 236849, Note_off_c, 0, 43, 57
1, 236853, Note_on_c, 0, 52, 65
1, 236855, Note_off_c, 0, 46, 61
1, 236894, Control_c, 0, 64, 96
1, 236909, Control_c, 0, 64, 70
1, 236912, Note_on_c, 0, 72, 86
1, 236919, Note_off_c, 0, 52, 61
1, 236924, Control_c, 0, 64, 0
1, 236930, Note_on_c, 0, 46, 60
1, 236941, Note_on_c, 0, 43, 60
1, 236984, Note_off_c, 0, 43, 59
1, 236985, Note_off_c, 0, 46, 59
1, 236993, Note_on_c, 0, 52, 62
1, 236997, Control_c, 0, 64, 65
1, 237012, Control_c, 0, 64, 77
1, 237013, Note_off_c, 0, 72, 63
1, 237027, Control_c, 0, 64, 90
1, 237042, Control_c, 0, 64, 104
1, 237057, Control_c, 0, 64, 120
1, 237061, Note_off_c, 0, 52, 59
1, 237064, Note_on_c, 0, 46, 59
1, 237073, Control_c, 0, 64, 127
1, 237076, Note_on_c, 0, 43, 57
1, 237115, Note_off_c, 0, 43, 60
1, 237116, Note_off_c, 0, 46, 60
1, 237117, Note_on_c, 0, 52, 57
1, 237174, Note_off_c, 0, 52, 58
1, 237195, Note_on_c, 0, 46, 57
1, 237204, Note_on_c, 0, 43, 61
1, 237250, Note_off_c, 0, 46, 56
1, 237257, Note_off_c, 0, 43, 54
1, 237262, Note_on_c, 0, 52, 62
1, 237314, Note_off_c, 0, 52, 56
1, 237326, Note_on_c, 0, 46, 53
1, 237330, Note_on_c, 0, 37, 76
1, 237348, Note_on_c, 0, 43, 52
1, 237398, Note_off_c, 0, 43, 56
1, 237399, Note_off_c, 0, 46, 57
1, 237400, Note_on_c, 0, 52, 61
1, 237405, Note_off_c, 0, 37, 61
1, 237476, Note_off_c, 0, 52, 58
1, 237487, Note_on_c, 0, 46, 56
1, 237494, Note_on_c, 0, 37, 86
1, 237508, Note_on_c, 0, 43, 52
1, 237566, Note_off_c, 0, 37, 60
1, 237580, Note_off_c, 0, 43, 48
1, 237586, Note_off_c, 0, 46, 56
1, 237603, Note_on_c, 0, 52, 58
1, 237717, Note_off_c, 0, 52, 55
1, 237719, Note_on_c, 0, 37, 69
1, 237734, Note_on_c, 0, 46, 44
1, 237742, Note_on_c, 0, 43, 40
1, 237777, Note_off_c, 0, 37, 57
1, 237836, Control_c, 0, 67, 8
1, 237851, Control_c, 0, 67, 10
1, 237869, Note_off_c, 0, 46, 59
1, 237879, Note_on_c, 0, 52, 48
1, 237881, Control_c, 0, 67, 13
1, 237888, Note_off_c, 0, 43, 54
1, 237923, Note_off_c, 0, 52, 60
1, 237926, Control_c, 0, 67, 16
1, 237941, Control_c, 0, 67, 18
1, 237970, Control_c, 0, 67, 20
1, 238000, Control_c, 0, 67, 22
1, 238030, Control_c, 0, 67, 26
1, 238044, Control_c, 0, 64, 119
1, 238044, Control_c, 0, 67, 29
1, 238059, Control_c, 0, 64, 108
1, 238059, Control_c, 0, 67, 32
1, 238074, Control_c, 0, 64, 103
1, 238074, Control_c, 0, 67, 37
1, 238089, Control_c, 0, 64, 100
1, 238089, Control_c, 0, 67, 40
1, 238104, Control_c, 0, 64, 97
1, 238104, Control_c, 0, 67, 45
1, 238118, Control_c, 0, 64, 92
1, 238118, Control_c, 0, 67, 50
1, 238133, Control_c, 0, 64, 87
1, 238133, Control_c, 0, 67, 55
1, 238148, Control_c, 0, 64, 81
1, 238148, Control_c, 0, 67, 61
1, 238163, Control_c, 0, 64, 75
1, 238163, Control_c, 0, 67, 66
1, 238178, Control_c, 0, 64, 69
1, 238178, Control_c, 0, 67, 73
1, 238192, Control_c, 0, 64, 65
1, 238192, Control_c, 0, 67, 79
1, 238207, Control_c, 0, 64, 0
1, 238207, Control_c, 0, 67, 86
1, 238222, Control_c, 0, 67, 94
1, 238236, Control_c, 0, 67, 101
1, 238251, Control_c, 0, 67, 108
1, 238266, Control_c, 0, 67, 115
1, 238281, Control_c, 0, 67, 124
1, 238304, Control_c, 0, 67, 127
1, 238304, Note_on_c, 0, 36, 37
1, 238320, Note_on_c, 0, 52, 40
1, 238328, Note_on_c, 0, 43, 36
1, 238334, Note_on_c, 0, 46, 36
1, 238444, Note_off_c, 0, 36, 59
1, 238451, Control_c, 0, 64, 64
1, 238466, Control_c, 0, 64, 67
1, 238481, Control_c, 0, 64, 69
1, 238496, Control_c, 0, 64, 70
1, 238511, Control_c, 0, 64, 71
1, 238525, Control_c, 0, 64, 72
1, 238539, Note_on_c, 0, 36, 41
1, 238540, Control_c, 0, 64, 73
1, 238555, Control_c, 0, 64, 74
1, 238570, Control_c, 0, 64, 75
1, 238581, Note_off_c, 0, 36, 60
1, 238584, Control_c, 0, 64, 75
1, 238685, Note_on_c, 0, 36, 46
1, 238689, Control_c, 0, 64, 75
1, 238712, Note_off_c, 0, 36, 57
1, 238734, Control_c, 0, 64, 74
1, 238763, Control_c, 0, 64, 74
1, 238778, Control_c, 0, 64, 73
1, 238793, Control_c, 0, 64, 73
1, 238808, Control_c, 0, 64, 72
1, 238818, Note_on_c, 0, 36, 46
1, 238823, Control_c, 0, 64, 72
1, 238838, Control_c, 0, 64, 71
1, 238843, Note_off_c, 0, 36, 57
1, 238853, Control_c, 0, 64, 71
1, 238882, Control_c, 0, 64, 70
1, 238897, Control_c, 0, 64, 69
1, 238912, Control_c, 0, 64, 69
1, 238927, Control_c, 0, 64, 68
1, 238941, Control_c, 0, 64, 68
1, 238945, Note_on_c, 0, 36, 48
1, 238971, Control_c, 0, 64, 67
1, 238974, Note_off_c, 0, 36, 53
1, 238984, Note_off_c, 0, 52, 54
1, 238986, Control_c, 0, 64, 67
1, 238990, Note_off_c, 0, 43, 35
1, 239000, Control_c, 0, 64, 66
1, 239015, Control_c, 0, 64, 66
1, 239030, Control_c, 0, 64, 65
1, 239052, Control_c, 0, 64, 65
1, 239060, Note_off_c, 0, 46, 53
1, 239075, Note_on_c, 0, 36, 45
1, 239082, Control_c, 0, 64, 64
1, 239112, Control_c, 0, 64, 64
1, 239117, Note_off_c, 0, 36, 48
1, 239142, Control_c, 0, 64, 63
1, 239156, Control_c, 0, 64, 61
1, 239171, Control_c, 0, 64, 58
1, 239186, Control_c, 0, 64, 53
1, 239192, Note_on_c, 0, 36, 43
1, 239200, Control_c, 0, 64, 46
1, 239215, Control_c, 0, 64, 41
1, 239230, Control_c, 0, 64, 46
1, 239243, Note_off_c, 0, 36, 54
1, 239245, Control_c, 0, 64, 57
1, 239260, Control_c, 0, 64, 64
1, 239274, Control_c, 0, 64, 65
1, 239289, Control_c, 0, 64, 66
1, 239304, Control_c, 0, 64, 67
1, 239318, Note_on_c, 0, 36, 41
1, 239319, Control_c, 0, 64, 68
1, 239334, Control_c, 0, 64, 68
1, 239348, Control_c, 0, 64, 69
1, 239363, Control_c, 0, 64, 70
1, 239371, Note_off_c, 0, 36, 53
1, 239378, Control_c, 0, 64, 70
1, 239393, Control_c, 0, 64, 71
1, 239407, Control_c, 0, 64, 71
1, 239452, Control_c, 0, 64, 72
1, 239461, Poly_aftertouch_c, 0, 36, 127
1, 239490, Poly_aftertouch_c, 0, 36, 0
1, 239574, Note_on_c, 0, 36, 30
1, 239631, Note_off_c, 0, 36, 44
1, 239646, Control_c, 0, 64, 72
1, 239675, Control_c, 0, 64, 73
1, 239696, Note_on_c, 0, 36, 39
1, 239705, Control_c, 0, 64, 74
1, 239735, Control_c, 0, 64, 74
1, 239738, Note_off_c, 0, 36, 58
1, 239750, Control_c, 0, 64, 75
1, 239779, Control_c, 0, 64, 75
1, 239801, Control_c, 0, 64, 76
1, 239830, Control_c, 0, 64, 76
1, 239837, Note_on_c, 0, 36, 43
1, 239845, Control_c, 0, 64, 77
1, 239860, Control_c, 0, 64, 77
1, 239875, Control_c, 0, 64, 78
1, 239878, Note_off_c, 0, 36, 56
1, 239905, Control_c, 0, 64, 78
1, 239935, Control_c, 0, 64, 79
1, 239968, Note_on_c, 0, 36, 46
1, 240012, Note_off_c, 0, 36, 57
1, 240023, Control_c, 0, 64, 79
1, 240083, Control_c, 0, 64, 80
1, 240097, Note_on_c, 0, 36, 41
1, 240136, Note_off_c, 0, 36, 50
1, 240141, Control_c, 0, 64, 80
1, 240221, Note_on_c, 0, 36, 35
1, 240230, Control_c, 0, 64, 81
1, 240267, Note_off_c, 0, 36, 49
1, 240291, Control_c, 0, 64, 81
1, 240335, Control_c, 0, 64, 82
1, 240343, Note_on_c, 0, 36, 34
1, 240380, Control_c, 0, 64, 82
1, 240390, Note_off_c, 0, 36, 53
1, 240424, Control_c, 0, 64, 83
1, 240468, Control_c, 0, 64, 83
1, 240483, Control_c, 0, 64, 84
1, 240486, Poly_aftertouch_c, 0, 36, 127
1, 240516, Poly_aftertouch_c, 0, 36, 0
1, 240528, Control_c, 0, 64, 84
1, 240579, Control_c, 0, 64, 85
1, 240624, Control_c, 0, 64, 85
1, 240625, Poly_aftertouch_c, 0, 36, 127
1, 240653, Control_c, 0, 64, 86
1, 240659, Poly_aftertouch_c, 0, 36, 0
1, 240668, Control_c, 0, 64, 86
1, 240683, Control_c, 0, 64, 87
1, 240698, Control_c, 0, 64, 87
1, 240728, Control_c, 0, 64, 88
1, 240740, Poly_aftertouch_c, 0, 36, 127
1, 240743, Control_c, 0, 64, 88
1, 240757, Control_c, 0, 64, 89
1, 240772, Poly_aftertouch_c, 0, 36, 0
1, 240772, Control_c, 0, 64, 89
1, 240802, Control_c, 0, 64, 90
1, 240832, Control_c, 0, 64, 90
1, 240866, Note_on_c, 0, 36, 31
1, 240876, Control_c, 0, 64, 91
1, 240903, Note_off_c, 0, 36, 57
1, 240920, Control_c, 0, 64, 91
1, 240994, Note_on_c, 0, 36, 40
1, 241033, Note_off_c, 0, 36, 47
1, 241166, Note_on_c, 0, 36, 38
1, 241168, Note_on_c, 0, 60, 51
1, 241178, Note_on_c, 0, 48, 41
1, 241205, Note_off_c, 0, 36, 49
1, 241240, Note_off_c, 0, 48, 0
1, 241240, Note_on_c, 0, 48, 14
1, 241304, Note_off_c, 0, 60, 60
1, 241317, Note_off_c, 0, 48, 61
1, 241339, Note_on_c, 0, 36, 43
1, 241366, Note_off_c, 0, 36, 52
1, 241485, Note_on_c, 0, 36, 44
1, 241515, Note_off_c, 0, 36, 51
1, 241554, Note_on_c, 0, 56, 45
1, 241571, Note_on_c, 0, 44, 31
1, 241614, Note_off_c, 0, 44, 56
1, 241637, Note_off_c, 0, 56, 60
1, 241728, Control_c, 0, 64, 91
1, 241743, Control_c, 0, 64, 89
1, 241758, Control_c, 0, 64, 88
1, 241762, Note_on_c, 0, 36, 27
1, 241773, Control_c, 0, 64, 85
1, 241780, Note_on_c, 0, 53, 54
1, 241783, Note_on_c, 0, 41, 46
1, 241787, Control_c, 0, 64, 81
1, 241802, Control_c, 0, 64, 77
1, 241817, Control_c, 0, 64, 75
1, 241832, Control_c, 0, 64, 73
1, 241847, Control_c, 0, 64, 72
1, 241863, Control_c, 0, 64, 71
1, 241867, Note_off_c, 0, 36, 58
1, 241878, Control_c, 0, 64, 70
1, 241892, Control_c, 0, 64, 71
1, 241922, Control_c, 0, 64, 72
1, 241937, Control_c, 0, 64, 73
1, 241952, Control_c, 0, 64, 74
1, 241966, Control_c, 0, 64, 76
1, 241975, Note_on_c, 0, 36, 22
1, 241981, Control_c, 0, 64, 78
1, 241996, Control_c, 0, 64, 79
1, 242009, Note_off_c, 0, 36, 47
1, 242011, Control_c, 0, 64, 80
1, 242025, Control_c, 0, 64, 81
1, 242063, Control_c, 0, 64, 82
1, 242078, Control_c, 0, 64, 82
1, 242093, Control_c, 0, 64, 83
1, 242107, Control_c, 0, 64, 84
1, 242137, Note_on_c, 0, 36, 20
1, 242177, Note_off_c, 0, 36, 30
1, 242181, Control_c, 0, 64, 84
1, 242211, Control_c, 0, 64, 85
1, 242240, Note_on_c, 0, 36, 27
1, 242270, Control_c, 0, 64, 85
1, 242281, Note_off_c, 0, 36, 49
1, 242299, Control_c, 0, 64, 86
1, 242343, Control_c, 0, 64, 86
1, 242388, Note_on_c, 0, 36, 34
1, 242388, Control_c, 0, 64, 87
1, 242429, Note_off_c, 0, 36, 38
1, 242477, Control_c, 0, 64, 87
1, 242503, Note_on_c, 0, 36, 30
1, 242540, Note_off_c, 0, 36, 49
1, 242579, Note_off_c, 0, 41, 48
1, 242625, Control_c, 0, 64, 88
1, 242638, Note_on_c, 0, 36, 41
1, 242654, Note_off_c, 0, 53, 60
1, 242669, Note_off_c, 0, 36, 49
1, 242772, Note_on_c, 0, 36, 39
1, 242812, Note_off_c, 0, 36, 45
1, 242905, Note_on_c, 0, 36, 35
1, 242915, Control_c, 0, 64, 88
1, 242944, Note_off_c, 0, 36, 42
1, 243019, Control_c, 0, 64, 89
1, 243033, Note_on_c, 0, 36, 43
1, 243058, Note_on_c, 0, 44, 44
1, 243058, Note_on_c, 0, 56, 47
1, 243078, Note_off_c, 0, 36, 54
1, 243108, Control_c, 0, 64, 89
1, 243109, Note_off_c, 0, 44, 62
1, 243152, Control_c, 0, 64, 90
1, 243186, Note_on_c, 0, 36, 41
1, 243195, Control_c, 0, 64, 90
1, 243223, Note_off_c, 0, 36, 49
1, 243239, Control_c, 0, 64, 91
1, 243313, Control_c, 0, 64, 91
1, 243315, Note_on_c, 0, 36, 45
1, 243343, Control_c, 0, 64, 92
1, 243348, Note_on_c, 0, 60, 58
1, 243357, Control_c, 0, 64, 92
1, 243363, Note_off_c, 0, 36, 53
1, 243364, Note_off_c, 0, 56, 64
1, 243387, Control_c, 0, 64, 93
1, 243392, Note_off_c, 0, 60, 60
1, 243463, Note_on_c, 0, 36, 47
1, 243476, Note_on_c, 0, 65, 58
1, 243490, Note_on_c, 0, 53, 41
1, 243502, Note_off_c, 0, 36, 49
1, 243544, Control_c, 0, 64, 92
1, 243616, Note_on_c, 0, 36, 44
1, 243645, Note_off_c, 0, 36, 51
1, 243697, Note_off_c, 0, 53, 61
1, 243707, Control_c, 0, 64, 92
1, 243749, Note_on_c, 0, 36, 40
1, 243773, Note_off_c, 0, 65, 65
1, 243779, Note_off_c, 0, 36, 48
1, 243884, Note_on_c, 0, 56, 47
1, 243886, Note_on_c, 0, 36, 46
1, 243890, Note_on_c, 0, 68, 61
1, 243924, Note_off_c, 0, 36, 48
1, 243965, Note_off_c, 0, 56, 64
1, 244034, Note_on_c, 0, 36, 46
1, 244070, Note_off_c, 0, 36, 49
1, 244108, Control_c, 0, 64, 91
1, 244167, Control_c, 0, 64, 91
1, 244175, Note_on_c, 0, 72, 65
1, 244179, Note_on_c, 0, 36, 45
1, 244197, Note_on_c, 0, 60, 32
1, 244197, Note_off_c, 0, 68, 63
1, 244228, Note_off_c, 0, 36, 47
1, 244231, Note_off_c, 0, 60, 43
1, 244323, Control_c, 0, 64, 90
1, 244332, Note_off_c, 0, 72, 55
1, 244352, Control_c, 0, 64, 90
1, 244360, Note_on_c, 0, 65, 57
1, 244362, Note_on_c, 0, 77, 63
1, 244378, Note_on_c, 0, 36, 42
1, 244414, Note_off_c, 0, 36, 49
1, 244522, Note_off_c, 0, 77, 61
1, 244537, Note_on_c, 0, 36, 46
1, 244549, Note_off_c, 0, 65, 63
1, 244565, Note_off_c, 0, 36, 53
1, 244685, Note_on_c, 0, 36, 36
1, 244721, Note_off_c, 0, 36, 42
1, 244818, Note_on_c, 0, 65, 45
1, 244824, Note_on_c, 0, 36, 38
1, 244835, Note_on_c, 0, 53, 34
1, 244862, Note_off_c, 0, 36, 50
1, 244931, Note_off_c, 0, 53, 62
1, 244981, Note_on_c, 0, 36, 44
1, 244989, Note_off_c, 0, 65, 59
1, 245012, Note_off_c, 0, 36, 49
1, 245151, Note_on_c, 0, 36, 45
1, 245190, Note_off_c, 0, 36, 48
1, 245339, Control_c, 0, 64, 89
1, 245354, Control_c, 0, 64, 82
1, 245368, Control_c, 0, 64, 69
1, 245375, Note_on_c, 0, 72, 53
1, 245383, Control_c, 0, 64, 0
1, 245389, Note_on_c, 0, 64, 36
1, 245393, Note_on_c, 0, 67, 37
1, 245403, Note_on_c, 0, 36, 32
1, 245445, Note_off_c, 0, 36, 55
1, 245486, Control_c, 0, 64, 66
1, 245501, Control_c, 0, 64, 71
1, 245516, Control_c, 0, 64, 74
1, 245531, Control_c, 0, 64, 76
1, 245546, Control_c, 0, 64, 78
1, 245551, Note_on_c, 0, 36, 43
1, 245560, Control_c, 0, 64, 80
1, 245575, Control_c, 0, 64, 81
1, 245581, Note_off_c, 0, 36, 50
1, 245590, Control_c, 0, 64, 83
1, 245605, Control_c, 0, 64, 83
1, 245620, Control_c, 0, 64, 84
1, 245634, Control_c, 0, 64, 85
1, 245649, Control_c, 0, 64, 85
1, 245664, Control_c, 0, 64, 86
1, 245679, Control_c, 0, 64, 86
1, 245691, Note_on_c, 0, 36, 46
1, 245694, Control_c, 0, 64, 87
1, 245709, Control_c, 0, 64, 87
1, 245721, Note_off_c, 0, 36, 48
1, 245759, Note_off_c, 0, 64, 33
1, 245824, Note_off_c, 0, 67, 60
1, 245837, Note_on_c, 0, 36, 42
1, 245864, Note_off_c, 0, 36, 52
1, 245954, Control_c, 0, 64, 88
1, 245963, Note_on_c, 0, 36, 52
1, 246005, Note_off_c, 0, 36, 48
1, 246079, Note_on_c, 0, 74, 53
1, 246081, Note_off_c, 0, 72, 50
1, 246099, Note_on_c, 0, 36, 46
1, 246117, Control_c, 0, 64, 89
1, 246132, Control_c, 0, 64, 89
1, 246151, Note_off_c, 0, 36, 54
1, 246236, Control_c, 0, 64, 85
1, 246251, Control_c, 0, 64, 76
1, 246260, Note_off_c, 0, 74, 60
1, 246265, Note_on_c, 0, 76, 63
1, 246265, Control_c, 0, 64, 65
1, 246276, Note_on_c, 0, 71, 48
1, 246280, Control_c, 0, 64, 0
1, 246283, Note_on_c, 0, 65, 40
1, 246293, Note_on_c, 0, 36, 47
1, 246354, Control_c, 0, 64, 66
1, 246369, Control_c, 0, 64, 72
1, 246374, Note_off_c, 0, 36, 56
1, 246383, Control_c, 0, 64, 79
1, 246385, Note_off_c, 0, 76, 57
1, 246394, Note_off_c, 0, 65, 63
1, 246398, Control_c, 0, 64, 84
1, 246407, Note_on_c, 0, 74, 56
1, 246413, Control_c, 0, 64, 86
1, 246417, Note_off_c, 0, 71, 62
1, 246428, Control_c, 0, 64, 88
1, 246443, Control_c, 0, 64, 90
1, 246457, Control_c, 0, 64, 91
1, 246472, Control_c, 0, 64, 92
1, 246478, Note_on_c, 0, 36, 45
1, 246487, Note_off_c, 0, 74, 58
1, 246502, Control_c, 0, 64, 92
1, 246508, Note_on_c, 0, 76, 53
1, 246532, Note_off_c, 0, 36, 56
1, 246537, Note_off_c, 0, 76, 63
1, 246539, Control_c, 0, 64, 93
1, 246554, Control_c, 0, 64, 93
1, 246581, Note_on_c, 0, 74, 50
1, 246607, Note_off_c, 0, 74, 59
1, 246628, Control_c, 0, 64, 94
1, 246633, Note_on_c, 0, 36, 56
1, 246638, Note_on_c, 0, 76, 55
1, 246664, Note_off_c, 0, 76, 58
1, 246674, Note_off_c, 0, 36, 54
1, 246688, Control_c, 0, 64, 94
1, 246697, Note_on_c, 0, 74, 60
1, 246718, Control_c, 0, 64, 95
1, 246731, Note_off_c, 0, 74, 64
1, 246746, Note_on_c, 0, 76, 63
1, 246757, Note_on_c, 0, 36, 56
1, 246777, Control_c, 0, 64, 95
1, 246803, Note_off_c, 0, 76, 45
1, 246804, Note_off_c, 0, 36, 59
1, 246824, Note_on_c, 0, 74, 45
1, 246861, Note_off_c, 0, 74, 47
1, 246880, Note_on_c, 0, 36, 59
1, 246882, Poly_aftertouch_c, 0, 76, 0
1, 246914, Note_on_c, 0, 74, 32
1, 246939, Note_off_c, 0, 36, 54
1, 246949, Note_off_c, 0, 74, 51
1, 246976, Note_on_c, 0, 76, 62
1, 246999, Control_c, 0, 64, 95
1, 247005, Note_off_c, 0, 76, 55
1, 247011, Note_on_c, 0, 36, 48
1, 247026, Note_on_c, 0, 74, 46
1, 247052, Note_off_c, 0, 74, 57
1, 247056, Note_on_c, 0, 72, 61
1, 247074, Note_off_c, 0, 36, 49
1, 247087, Control_c, 0, 64, 94
1, 247122, Note_off_c, 0, 72, 57
1, 247131, Control_c, 0, 64, 94
1, 247133, Note_on_c, 0, 76, 57
1, 247146, Control_c, 0, 64, 93
1, 247161, Control_c, 0, 64, 93
1, 247176, Control_c, 0, 64, 92
1, 247191, Control_c, 0, 64, 91
1, 247205, Control_c, 0, 64, 90
1, 247220, Control_c, 0, 64, 89
1, 247235, Control_c, 0, 64, 87
1, 247247, Note_on_c, 0, 74, 52
1, 247250, Note_off_c, 0, 76, 52
1, 247250, Control_c, 0, 64, 86
1, 247265, Control_c, 0, 64, 84
1, 247287, Control_c, 0, 64, 83
1, 247302, Control_c, 0, 64, 82
1, 247317, Control_c, 0, 64, 82
1, 247331, Control_c, 0, 64, 81
1, 247343, Note_off_c, 0, 74, 56
1, 247346, Control_c, 0, 64, 80
1, 247347, Note_on_c, 0, 36, 28
1, 247361, Control_c, 0, 64, 79
1, 247376, Control_c, 0, 64, 78
1, 247378, Note_off_c, 0, 36, 45
1, 247391, Control_c, 0, 64, 76
1, 247402, Note_on_c, 0, 72, 43
1, 247405, Control_c, 0, 64, 74
1, 247420, Control_c, 0, 64, 72
1, 247434, Note_on_c, 0, 64, 47
1, 247435, Control_c, 0, 64, 70
1, 247443, Note_on_c, 0, 67, 34
1, 247451, Control_c, 0, 64, 67
1, 247466, Control_c, 0, 64, 65
1, 247477, Note_on_c, 0, 36, 34
1, 247481, Control_c, 0, 64, 64
1, 247496, Control_c, 0, 64, 46
1, 247510, Control_c, 0, 64, 0
1, 247526, Note_off_c, 0, 36, 44
1, 247628, Note_on_c, 0, 36, 43
1, 247628, Control_c, 0, 64, 13
1, 247643, Control_c, 0, 64, 62
1, 247659, Control_c, 0, 64, 65
1, 247661, Note_off_c, 0, 36, 54
1, 247674, Control_c, 0, 64, 66
1, 247688, Control_c, 0, 64, 67
1, 247703, Control_c, 0, 64, 68
1, 247718, Control_c, 0, 64, 69
1, 247733, Control_c, 0, 64, 71
1, 247748, Control_c, 0, 64, 72
1, 247763, Control_c, 0, 64, 73
1, 247769, Note_on_c, 0, 36, 42
1, 247778, Control_c, 0, 64, 74
1, 247801, Note_off_c, 0, 36, 50
1, 247822, Control_c, 0, 64, 75
1, 247837, Control_c, 0, 64, 76
1, 247852, Control_c, 0, 64, 78
1, 247867, Control_c, 0, 64, 79
1, 247881, Control_c, 0, 64, 79
1, 247900, Note_on_c, 0, 36, 45
1, 247911, Control_c, 0, 64, 80
1, 247926, Control_c, 0, 64, 80
1, 247938, Note_off_c, 0, 36, 56
1, 247955, Control_c, 0, 64, 81
1, 248038, Note_on_c, 0, 36, 44
1, 248057, Note_off_c, 0, 64, 37
1, 248074, Note_off_c, 0, 36, 55
1, 248141, Control_c, 0, 64, 80
1, 248188, Note_on_c, 0, 36, 44
1, 248225, Note_off_c, 0, 36, 50
1, 248232, Note_off_c, 0, 72, 37
1, 248237, Note_off_c, 0, 67, 41
1, 248332, Note_on_c, 0, 36, 45
1, 248334, Control_c, 0, 64, 80
1, 248349, Control_c, 0, 64, 77
1, 248364, Control_c, 0, 64, 72
1, 248378, Control_c, 0, 64, 65
1, 248393, Control_c, 0, 64, 0
1, 248422, Note_off_c, 0, 36, 45
1, 248498, Note_on_c, 0, 37, 46
1, 248556, Control_c, 0, 64, 53
1, 248571, Control_c, 0, 64, 67
1, 248576, Note_off_c, 0, 37, 61
1, 248585, Control_c, 0, 64, 70
1, 248600, Control_c, 0, 64, 72
1, 248615, Control_c, 0, 64, 74
1, 248630, Control_c, 0, 64, 75
1, 248645, Control_c, 0, 64, 78
1, 248660, Control_c, 0, 64, 79
1, 248665, Note_on_c, 0, 37, 47
1, 248675, Control_c, 0, 64, 80
1, 248690, Control_c, 0, 64, 81
1, 248704, Control_c, 0, 64, 82
1, 248708, Note_off_c, 0, 37, 50
1, 248719, Control_c, 0, 64, 83
1, 248734, Control_c, 0, 64, 84
1, 248749, Control_c, 0, 64, 85
1, 248764, Control_c, 0, 64, 86
1, 248785, Control_c, 0, 64, 86
1, 248800, Control_c, 0, 64, 87
1, 248830, Control_c, 0, 64, 88
1, 248835, Note_on_c, 0, 61, 51
1, 248851, Note_on_c, 0, 49, 42
1, 248854, Note_on_c, 0, 37, 44
1, 248860, Control_c, 0, 64, 89
1, 248874, Control_c, 0, 64, 90
1, 248883, Note_off_c, 0, 37, 53
1, 248889, Control_c, 0, 64, 91
1, 248904, Control_c, 0, 64, 92
1, 248934, Control_c, 0, 64, 92
1, 248949, Control_c, 0, 64, 93
1, 248964, Control_c, 0, 64, 95
1, 248978, Control_c, 0, 64, 96
1, 248994, Note_on_c, 0, 37, 47
1, 249024, Note_off_c, 0, 49, 62
1, 249025, Note_off_c, 0, 61, 60
1, 249034, Note_off_c, 0, 37, 52
1, 249053, Control_c, 0, 64, 98
1, 249149, Note_on_c, 0, 37, 44
1, 249180, Note_off_c, 0, 37, 51
1, 249209, Note_on_c, 0, 58, 55
1, 249242, Note_on_c, 0, 46, 29
1, 249280, Note_off_c, 0, 46, 44
1, 249288, Note_off_c, 0, 58, 58
1, 249413, Note_on_c, 0, 37, 11
1, 249436, Note_on_c, 0, 54, 55
1, 249444, Note_on_c, 0, 42, 41
1, 249500, Note_off_c, 0, 37, 53
1, 249596, Note_on_c, 0, 37, 38
1, 249646, Note_off_c, 0, 37, 55
1, 249739, Note_on_c, 0, 37, 40
1, 249777, Note_off_c, 0, 37, 50
1, 249875, Note_on_c, 0, 37, 40
1, 249903, Note_off_c, 0, 37, 54
1, 250019, Note_on_c, 0, 37, 39
1, 250056, Note_off_c, 0, 37, 46
1, 250135, Note_on_c, 0, 37, 42
1, 250182, Note_off_c, 0, 42, 34
1, 250183, Note_off_c, 0, 37, 51
1, 250279, Note_off_c, 0, 54, 59
1, 250281, Note_on_c, 0, 37, 44
1, 250322, Note_off_c, 0, 37, 50
1, 250420, Note_on_c, 0, 37, 39
1, 250472, Note_off_c, 0, 37, 42
1, 250541, Note_on_c, 0, 37, 37
1, 250585, Note_off_c, 0, 37, 49
1, 250677, Note_on_c, 0, 37, 38
1, 250689, Note_on_c, 0, 58, 53
1, 250695, Note_on_c, 0, 46, 45
1, 250732, Note_off_c, 0, 37, 45
1, 250774, Note_off_c, 0, 46, 56
1, 250816, Note_on_c, 0, 37, 48
1, 250870, Note_off_c, 0, 37, 52
1, 250945, Note_on_c, 0, 37, 42
1, 250979, Note_on_c, 0, 61, 65
1, 250997, Note_off_c, 0, 37, 57
1, 251011, Note_off_c, 0, 58, 62
1, 251042, Poly_aftertouch_c, 0, 49, 127
1, 251055, Note_off_c, 0, 61, 60
1, 251071, Poly_aftertouch_c, 0, 49, 0
1, 251095, Note_on_c, 0, 66, 65
1, 251107, Note_on_c, 0, 37, 48
1, 251112, Note_on_c, 0, 54, 48
1, 251135, Note_off_c, 0, 37, 54
1, 251235, Note_on_c, 0, 37, 57
1, 251277, Note_off_c, 0, 37, 58
1, 251310, Note_off_c, 0, 54, 61
1, 251371, Note_on_c, 0, 37, 52
1, 251382, Note_off_c, 0, 66, 65
1, 251411, Note_off_c, 0, 37, 54
1, 251498, Note_on_c, 0, 58, 53
1, 251504, Note_on_c, 0, 70, 64
1, 251507, Note_on_c, 0, 37, 57
1, 251507, Control_c, 0, 64, 96
1, 251554, Note_off_c, 0, 37, 56
1, 251590, Note_off_c, 0, 58, 60
1, 251596, Control_c, 0, 64, 95
1, 251664, Note_on_c, 0, 37, 47
1, 251689, Note_off_c, 0, 37, 56
1, 251715, Control_c, 0, 64, 95
1, 251759, Control_c, 0, 64, 94
1, 251801, Note_on_c, 0, 37, 56
1, 251808, Note_on_c, 0, 73, 69
1, 251819, Note_on_c, 0, 61, 48
1, 251842, Note_off_c, 0, 61, 58
1, 251854, Note_off_c, 0, 37, 53
1, 251874, Note_off_c, 0, 70, 56
1, 251929, Control_c, 0, 64, 94
1, 251975, Note_on_c, 0, 37, 52
1, 251978, Note_on_c, 0, 78, 73
1, 251989, Control_c, 0, 64, 93
1, 251991, Note_off_c, 0, 73, 56
1, 251993, Note_on_c, 0, 66, 61
1, 252031, Note_off_c, 0, 37, 56
1, 252133, Note_off_c, 0, 78, 62
1, 252135, Note_on_c, 0, 37, 52
1, 252158, Note_off_c, 0, 66, 63
1, 252178, Note_off_c, 0, 37, 50
1, 252288, Note_on_c, 0, 37, 47
1, 252318, Note_off_c, 0, 37, 53
1, 252445, Note_on_c, 0, 66, 56
1, 252459, Note_on_c, 0, 37, 44
1, 252459, Note_on_c, 0, 54, 45
1, 252502, Note_off_c, 0, 37, 52
1, 252592, Note_off_c, 0, 54, 58
1, 252627, Note_on_c, 0, 37, 45
1, 252660, Note_off_c, 0, 37, 51
1, 252681, Note_off_c, 0, 66, 59
1, 252784, Note_on_c, 0, 37, 41
1, 252816, Note_off_c, 0, 37, 50
1, 252989, Control_c, 0, 64, 90
1, 253003, Control_c, 0, 64, 82
1, 253010, Note_on_c, 0, 73, 59
1, 253018, Control_c, 0, 64, 71
1, 253031, Note_on_c, 0, 37, 37
1, 253032, Note_on_c, 0, 65, 38
1, 253033, Control_c, 0, 64, 34
1, 253035, Note_on_c, 0, 68, 34
1, 253049, Control_c, 0, 64, 0
1, 253081, Note_off_c, 0, 37, 53
1, 253123, Control_c, 0, 64, 66
1, 253138, Control_c, 0, 64, 70
1, 253153, Control_c, 0, 64, 75
1, 253168, Control_c, 0, 64, 79
1, 253175, Note_on_c, 0, 37, 42
1, 253182, Control_c, 0, 64, 81
1, 253197, Control_c, 0, 64, 83
1, 253207, Note_off_c, 0, 37, 54
1, 253212, Control_c, 0, 64, 84
1, 253227, Control_c, 0, 64, 85
1, 253242, Control_c, 0, 64, 86
1, 253256, Control_c, 0, 64, 87
1, 253279, Control_c, 0, 64, 87
1, 253294, Control_c, 0, 64, 88
1, 253308, Control_c, 0, 64, 88
1, 253323, Control_c, 0, 64, 89
1, 253326, Note_on_c, 0, 37, 48
1, 253338, Control_c, 0, 64, 89
1, 253360, Note_off_c, 0, 37, 49
1, 253368, Control_c, 0, 64, 90
1, 253376, Note_off_c, 0, 65, 58
1, 253397, Control_c, 0, 64, 90
1, 253441, Note_off_c, 0, 68, 62
1, 253441, Control_c, 0, 64, 91
1, 253469, Note_on_c, 0, 37, 40
1, 253507, Note_off_c, 0, 37, 41
1, 253597, Note_on_c, 0, 37, 39
1, 253638, Note_off_c, 0, 37, 43
1, 253704, Note_on_c, 0, 75, 60
1, 253730, Note_off_c, 0, 73, 55
1, 253739, Note_on_c, 0, 37, 42
1, 253768, Note_off_c, 0, 37, 51
1, 253812, Control_c, 0, 64, 91
1, 253826, Control_c, 0, 64, 92
1, 253842, Control_c, 0, 64, 92
1, 253872, Control_c, 0, 64, 92
1, 253887, Control_c, 0, 64, 88
1, 253902, Control_c, 0, 64, 80
1, 253916, Control_c, 0, 64, 68
1, 253918, Note_on_c, 0, 77, 64
1, 253925, Note_off_c, 0, 75, 58
1, 253931, Control_c, 0, 64, 0
1, 253934, Note_on_c, 0, 72, 51
1, 253940, Note_on_c, 0, 66, 51
1, 253946, Note_on_c, 0, 37, 46
1, 254005, Control_c, 0, 64, 67
1, 254028, Control_c, 0, 64, 75
1, 254030, Note_off_c, 0, 72, 61
1, 254043, Control_c, 0, 64, 81
1, 254047, Note_off_c, 0, 37, 58
1, 254057, Control_c, 0, 64, 87
1, 254061, Note_off_c, 0, 66, 62
1, 254072, Control_c, 0, 64, 88
1, 254087, Control_c, 0, 64, 89
1, 254102, Control_c, 0, 64, 91
1, 254117, Control_c, 0, 64, 92
1, 254131, Note_off_c, 0, 77, 59
1, 254131, Control_c, 0, 64, 92
1, 254145, Note_on_c, 0, 37, 44
1, 254146, Control_c, 0, 64, 93
1, 254163, Note_on_c, 0, 75, 55
1, 254195, Note_off_c, 0, 37, 51
1, 254198, Note_off_c, 0, 75, 61
1, 254205, Control_c, 0, 64, 93
1, 254235, Control_c, 0, 64, 94
1, 254239, Note_on_c, 0, 77, 55
1, 254259, Note_off_c, 0, 77, 61
1, 254264, Control_c, 0, 64, 94
1, 254279, Control_c, 0, 64, 95
1, 254294, Note_on_c, 0, 75, 59
1, 254294, Control_c, 0, 64, 95
1, 254303, Note_on_c, 0, 37, 47
1, 254309, Control_c, 0, 64, 96
1, 254321, Note_off_c, 0, 75, 56
1, 254339, Note_on_c, 0, 77, 63
1, 254339, Note_off_c, 0, 37, 50
1, 254377, Note_off_c, 0, 77, 59
1, 254383, Control_c, 0, 64, 98
1, 254401, Note_on_c, 0, 75, 68
1, 254434, Note_off_c, 0, 75, 63
1, 254443, Note_on_c, 0, 37, 58
1, 254443, Control_c, 0, 64, 100
1, 254467, Note_on_c, 0, 77, 60
1, 254485, Note_off_c, 0, 37, 56
1, 254514, Note_on_c, 0, 75, 76
1, 254550, Note_off_c, 0, 75, 61
1, 254561, Note_off_c, 0, 77, 57
1, 254585, Note_on_c, 0, 37, 54
1, 254596, Note_on_c, 0, 73, 67
1, 254622, Note_off_c, 0, 37, 50
1, 254635, Note_off_c, 0, 73, 59
1, 254690, Note_on_c, 0, 77, 60
1, 254777, Control_c, 0, 64, 97
1, 254783, Note_off_c, 0, 77, 58
1, 254784, Note_on_c, 0, 37, 38
1, 254785, Note_on_c, 0, 75, 63
1, 254806, Control_c, 0, 64, 96
1, 254836, Control_c, 0, 64, 95
1, 254840, Note_off_c, 0, 37, 48
1, 254851, Control_c, 0, 64, 95
1, 254866, Control_c, 0, 64, 94
1, 254881, Control_c, 0, 64, 93
1, 254896, Control_c, 0, 64, 92
1, 254911, Control_c, 0, 64, 88
1, 254924, Note_off_c, 0, 75, 55
1, 254926, Control_c, 0, 64, 81
1, 254941, Control_c, 0, 64, 71
1, 254947, Note_on_c, 0, 73, 55
1, 254955, Control_c, 0, 64, 63
1, 254963, Note_on_c, 0, 65, 41
1, 254963, Note_on_c, 0, 68, 41
1, 254970, Control_c, 0, 64, 0
1, 255007, Note_on_c, 0, 37, 40
1, 255059, Control_c, 0, 64, 65
1, 255068, Note_off_c, 0, 37, 56
1, 255073, Control_c, 0, 64, 68
1, 255088, Control_c, 0, 64, 71
1, 255103, Control_c, 0, 64, 72
1, 255118, Control_c, 0, 64, 73
1, 255133, Control_c, 0, 64, 74
1, 255146, Control_c, 0, 64, 75
1, 255161, Control_c, 0, 64, 75
1, 255164, Note_on_c, 0, 35, 36
1, 255169, Note_on_c, 0, 41, 37
1, 255206, Note_off_c, 0, 35, 46
1, 255206, Note_off_c, 0, 41, 49
1, 255280, Control_c, 0, 64, 75
1, 255283, Note_on_c, 0, 35, 36
1, 255285, Note_on_c, 0, 41, 38
1, 255310, Control_c, 0, 64, 74
1, 255319, Note_off_c, 0, 41, 55
1, 255325, Control_c, 0, 64, 74
1, 255335, Note_off_c, 0, 35, 54
1, 255339, Control_c, 0, 64, 73
1, 255354, Control_c, 0, 64, 72
1, 255369, Control_c, 0, 64, 72
1, 255400, Note_on_c, 0, 35, 44
1, 255413, Control_c, 0, 64, 71
1, 255417, Note_on_c, 0, 41, 46
1, 255450, Note_off_c, 0, 41, 54
1, 255455, Note_off_c, 0, 35, 55
1, 255545, Note_on_c, 0, 41, 49
1, 255554, Poly_aftertouch_c, 0, 35, 127
1, 255555, Control_c, 0, 64, 71
1, 255583, Note_off_c, 0, 41, 56
1, 255590, Poly_aftertouch_c, 0, 35, 0
1, 255599, Control_c, 0, 64, 70
1, 255614, Control_c, 0, 64, 70
1, 255621, Note_off_c, 0, 65, 42
1, 255644, Control_c, 0, 64, 69
1, 255673, Note_on_c, 0, 35, 47
1, 255682, Note_on_c, 0, 41, 49
1, 255689, Note_off_c, 0, 73, 53
1, 255689, Control_c, 0, 64, 69
1, 255698, Note_off_c, 0, 68, 53
1, 255712, Note_off_c, 0, 41, 56
1, 255715, Note_off_c, 0, 35, 55
1, 255733, Control_c, 0, 64, 68
1, 255763, Control_c, 0, 64, 68
1, 255792, Control_c, 0, 64, 67
1, 255807, Control_c, 0, 64, 67
1, 255812, Note_on_c, 0, 35, 41
1, 255814, Note_on_c, 0, 41, 45
1, 255821, Control_c, 0, 64, 66
1, 255845, Note_off_c, 0, 41, 53
1, 255849, Note_off_c, 0, 35, 49
1, 255851, Control_c, 0, 64, 66
1, 255925, Control_c, 0, 64, 66
1, 255930, Note_on_c, 0, 35, 46
1, 255939, Note_on_c, 0, 41, 45
1, 255954, Control_c, 0, 64, 67
1, 255969, Control_c, 0, 64, 69
1, 255975, Note_off_c, 0, 41, 52
1, 255982, Note_off_c, 0, 35, 56
1, 255984, Control_c, 0, 64, 70
1, 255999, Control_c, 0, 64, 71
1, 256014, Control_c, 0, 64, 72
1, 256029, Control_c, 0, 64, 74
1, 256044, Control_c, 0, 64, 76
1, 256058, Control_c, 0, 64, 77
1, 256061, Note_on_c, 0, 35, 44
1, 256069, Note_on_c, 0, 41, 48
1, 256073, Control_c, 0, 64, 78
1, 256088, Control_c, 0, 64, 79
1, 256103, Control_c, 0, 64, 79
1, 256104, Note_off_c, 0, 41, 49
1, 256112, Note_off_c, 0, 35, 52
1, 256118, Control_c, 0, 64, 80
1, 256133, Control_c, 0, 64, 81
1, 256147, Control_c, 0, 64, 82
1, 256162, Control_c, 0, 64, 82
1, 256177, Note_on_c, 0, 35, 39
1, 256177, Control_c, 0, 64, 83
1, 256182, Note_on_c, 0, 41, 49
1, 256226, Note_off_c, 0, 41, 54
1, 256230, Note_off_c, 0, 35, 56
1, 256237, Control_c, 0, 64, 83
1, 256334, Note_on_c, 0, 35, 44
1, 256334, Note_on_c, 0, 41, 45
1, 256372, Note_off_c, 0, 35, 48
1, 256372, Note_off_c, 0, 41, 48
1, 256470, Note_on_c, 0, 35, 41
1, 256471, Note_on_c, 0, 41, 44
1, 256502, Note_off_c, 0, 41, 54
1, 256606, Note_off_c, 0, 35, 26
1, 256630, Control_c, 0, 64, 82
1, 256644, Control_c, 0, 64, 79
1, 256658, Note_on_c, 0, 72, 61
1, 256659, Control_c, 0, 64, 73
1, 256660, Note_on_c, 0, 40, 55
1, 256674, Control_c, 0, 64, 65
1, 256689, Control_c, 0, 64, 0
1, 256792, Control_c, 0, 64, 53
1, 256807, Control_c, 0, 64, 67
1, 256816, Note_on_c, 0, 36, 48
1, 256822, Control_c, 0, 64, 71
1, 256836, Control_c, 0, 64, 75
1, 256851, Control_c, 0, 64, 79
1, 256858, Note_off_c, 0, 36, 60
1, 256866, Control_c, 0, 64, 81
1, 256881, Control_c, 0, 64, 83
1, 256896, Control_c, 0, 64, 84
1, 256911, Control_c, 0, 64, 85
1, 256926, Control_c, 0, 64, 86
1, 256941, Control_c, 0, 64, 87
1, 256956, Control_c, 0, 64, 88
1, 256957, Note_on_c, 0, 36, 54
1, 256970, Control_c, 0, 64, 88
1, 256985, Control_c, 0, 64, 89
1, 256986, Note_off_c, 0, 36, 57
1, 257000, Control_c, 0, 64, 89
1, 257022, Control_c, 0, 64, 90
1, 257037, Control_c, 0, 64, 91
1, 257082, Control_c, 0, 64, 91
1, 257091, Note_on_c, 0, 36, 60
1, 257122, Note_off_c, 0, 36, 60
1, 257209, Note_on_c, 0, 36, 59
1, 257248, Note_off_c, 0, 36, 62
1, 257343, Note_on_c, 0, 74, 58
1, 257346, Note_on_c, 0, 36, 58
1, 257380, Note_off_c, 0, 40, 62
1, 257388, Note_off_c, 0, 72, 59
1, 257465, Control_c, 0, 64, 90
1, 257480, Control_c, 0, 64, 88
1, 257495, Control_c, 0, 64, 80
1, 257501, Note_off_c, 0, 36, 61
1, 257510, Control_c, 0, 64, 70
1, 257515, Note_on_c, 0, 41, 62
1, 257519, Note_off_c, 0, 74, 62
1, 257525, Control_c, 0, 64, 0
1, 257528, Note_on_c, 0, 72, 56
1, 257616, Note_off_c, 0, 72, 60
1, 257622, Note_on_c, 0, 74, 65
1, 257629, Control_c, 0, 64, 67
1, 257644, Control_c, 0, 64, 73
1, 257658, Control_c, 0, 64, 77
1, 257665, Note_on_c, 0, 36, 52
1, 257666, Note_off_c, 0, 74, 58
1, 257673, Control_c, 0, 64, 81
1, 257688, Control_c, 0, 64, 84
1, 257702, Note_on_c, 0, 76, 57
1, 257703, Control_c, 0, 64, 85
1, 257710, Note_off_c, 0, 36, 61
1, 257717, Control_c, 0, 64, 87
1, 257720, Note_off_c, 0, 76, 62
1, 257732, Control_c, 0, 64, 88
1, 257747, Control_c, 0, 64, 89
1, 257770, Control_c, 0, 64, 89
1, 257772, Note_on_c, 0, 74, 58
1, 257793, Note_off_c, 0, 74, 62
1, 257799, Control_c, 0, 64, 90
1, 257811, Note_on_c, 0, 36, 63
1, 257814, Control_c, 0, 64, 90
1, 257817, Note_on_c, 0, 76, 52
1, 257829, Control_c, 0, 64, 91
1, 257841, Note_off_c, 0, 76, 59
1, 257844, Control_c, 0, 64, 91
1, 257853, Note_off_c, 0, 36, 60
1, 257878, Note_on_c, 0, 74, 42
1, 257904, Control_c, 0, 64, 92
1, 257904, Note_off_c, 0, 74, 56
1, 257923, Note_on_c, 0, 76, 56
1, 257933, Note_on_c, 0, 36, 66
1, 257943, Note_off_c, 0, 76, 60
1, 257949, Poly_aftertouch_c, 0, 72, 0
1, 257963, Control_c, 0, 64, 92
1, 257975, Note_on_c, 0, 74, 71
1, 257975, Note_off_c, 0, 36, 63
1, 257978, Poly_aftertouch_c, 0, 72, 0
1, 257978, Control_c, 0, 64, 93
1, 258004, Note_off_c, 0, 74, 66
1, 258008, Control_c, 0, 64, 93
1, 258022, Control_c, 0, 64, 94
1, 258024, Note_on_c, 0, 76, 63
1, 258037, Control_c, 0, 64, 94
1, 258052, Control_c, 0, 64, 95
1, 258057, Note_on_c, 0, 36, 69
1, 258067, Control_c, 0, 64, 95
1, 258083, Note_off_c, 0, 76, 61
1, 258086, Note_on_c, 0, 74, 69
1, 258094, Note_off_c, 0, 36, 61
1, 258126, Control_c, 0, 64, 97
1, 258133, Note_off_c, 0, 74, 53
1, 258181, Note_on_c, 0, 72, 69
1, 258192, Note_on_c, 0, 36, 62
1, 258211, Note_off_c, 0, 41, 58
1, 258248, Note_on_c, 0, 76, 50
1, 258249, Note_off_c, 0, 72, 54
1, 258323, Note_off_c, 0, 76, 60
1, 258340, Note_on_c, 0, 74, 55
1, 258358, Note_off_c, 0, 36, 30
1, 258363, Control_c, 0, 64, 92
1, 258378, Control_c, 0, 64, 84
1, 258390, Note_off_c, 0, 74, 58
1, 258393, Control_c, 0, 64, 74
1, 258407, Control_c, 0, 64, 64
1, 258410, Note_on_c, 0, 40, 47
1, 258422, Control_c, 0, 64, 0
1, 258431, Note_on_c, 0, 72, 59
1, 258534, Control_c, 0, 64, 55
1, 258548, Control_c, 0, 64, 70
1, 258562, Note_on_c, 0, 36, 50
1, 258563, Control_c, 0, 64, 76
1, 258568, Note_off_c, 0, 72, 60
1, 258578, Control_c, 0, 64, 81
1, 258593, Control_c, 0, 64, 84
1, 258604, Note_off_c, 0, 36, 61
1, 258608, Control_c, 0, 64, 86
1, 258622, Control_c, 0, 64, 88
1, 258638, Control_c, 0, 64, 89
1, 258653, Control_c, 0, 64, 90
1, 258668, Control_c, 0, 64, 91
1, 258683, Control_c, 0, 64, 91
1, 258706, Note_on_c, 0, 36, 56
1, 258712, Control_c, 0, 64, 92
1, 258740, Note_off_c, 0, 36, 58
1, 258786, Control_c, 0, 64, 91
1, 258801, Control_c, 0, 64, 91
1, 258816, Control_c, 0, 64, 90
1, 258831, Control_c, 0, 64, 88
1, 258837, Note_on_c, 0, 36, 60
1, 258846, Control_c, 0, 64, 84
1, 258849, Note_off_c, 0, 40, 60
1, 258849, Note_on_c, 0, 49, 58
1, 258861, Control_c, 0, 64, 76
1, 258875, Control_c, 0, 64, 69
1, 258879, Note_off_c, 0, 36, 61
1, 258881, Note_off_c, 0, 49, 64
1, 258890, Control_c, 0, 64, 65
1, 258905, Control_c, 0, 64, 59
1, 258920, Control_c, 0, 64, 0
1, 258961, Note_on_c, 0, 49, 63
1, 258971, Note_on_c, 0, 36, 58
1, 259012, Note_off_c, 0, 36, 61
1, 259016, Note_off_c, 0, 49, 62
1, 259090, Note_on_c, 0, 49, 61
1, 259105, Note_on_c, 0, 36, 55
1, 259144, Note_off_c, 0, 36, 60
1, 259167, Note_off_c, 0, 49, 57
1, 259228, Note_on_c, 0, 48, 61
1, 259244, Note_on_c, 0, 36, 56
1, 259292, Note_off_c, 0, 36, 59
1, 259298, Control_c, 0, 64, 64
1, 259312, Control_c, 0, 64, 68
1, 259327, Control_c, 0, 64, 72
1, 259342, Control_c, 0, 64, 76
1, 259357, Control_c, 0, 64, 79
1, 259361, Note_off_c, 0, 48, 62
1, 259371, Control_c, 0, 64, 83
1, 259382, Note_on_c, 0, 36, 59
1, 259386, Control_c, 0, 64, 86
1, 259401, Control_c, 0, 64, 89
1, 259416, Control_c, 0, 64, 93
1, 259424, Note_off_c, 0, 36, 59
1, 259431, Control_c, 0, 64, 96
1, 259447, Control_c, 0, 64, 98
1, 259476, Control_c, 0, 64, 101
1, 259506, Control_c, 0, 64, 105
1, 259507, Note_on_c, 0, 36, 56
1, 259535, Control_c, 0, 64, 108
1, 259548, Note_off_c, 0, 36, 61
1, 259565, Control_c, 0, 64, 110
1, 259594, Control_c, 0, 64, 113
1, 259640, Note_on_c, 0, 36, 60
1, 259668, Note_off_c, 0, 36, 59
1, 259752, Note_on_c, 0, 36, 59
1, 259796, Note_off_c, 0, 36, 62
1, 259888, Note_on_c, 0, 36, 64
1, 260032, Control_c, 0, 64, 109
1, 260047, Control_c, 0, 64, 102
1, 260061, Control_c, 0, 64, 94
1, 260072, Note_on_c, 0, 76, 67
1, 260076, Control_c, 0, 64, 85
1, 260077, Note_on_c, 0, 43, 66
1, 260091, Control_c, 0, 64, 76
1, 260106, Control_c, 0, 64, 68
1, 260111, Note_off_c, 0, 36, 17
1, 260120, Control_c, 0, 64, 48
1, 260135, Control_c, 0, 64, 0
1, 260194, Control_c, 0, 64, 64
1, 260209, Control_c, 0, 64, 68
1, 260224, Control_c, 0, 64, 72
1, 260236, Note_on_c, 0, 36, 51
1, 260240, Control_c, 0, 64, 77
1, 260255, Control_c, 0, 64, 82
1, 260270, Control_c, 0, 64, 85
1, 260282, Note_off_c, 0, 36, 58
1, 260284, Control_c, 0, 64, 87
1, 260299, Control_c, 0, 64, 88
1, 260314, Control_c, 0, 64, 90
1, 260329, Control_c, 0, 64, 92
1, 260343, Control_c, 0, 64, 93
1, 260358, Control_c, 0, 64, 95
1, 260359, Note_on_c, 0, 36, 54
1, 260388, Control_c, 0, 64, 97
1, 260403, Note_off_c, 0, 36, 57
1, 260432, Control_c, 0, 64, 99
1, 260473, Note_on_c, 0, 36, 55
1, 260518, Note_off_c, 0, 36, 61
1, 260608, Note_on_c, 0, 36, 63
1, 260646, Note_off_c, 0, 36, 59
1, 260721, Note_on_c, 0, 77, 65
1, 260738, Note_on_c, 0, 36, 63
1, 260751, Note_off_c, 0, 43, 60
1, 260762, Note_off_c, 0, 76, 53
1, 260885, Control_c, 0, 64, 97
1, 260899, Control_c, 0, 64, 92
1, 260914, Control_c, 0, 64, 86
1, 260917, Note_off_c, 0, 36, 55
1, 260929, Control_c, 0, 64, 78
1, 260929, Note_off_c, 0, 77, 60
1, 260932, Note_on_c, 0, 44, 63
1, 260943, Control_c, 0, 64, 70
1, 260945, Note_on_c, 0, 76, 56
1, 260958, Control_c, 0, 64, 56
1, 260973, Control_c, 0, 64, 0
1, 261038, Note_off_c, 0, 76, 60
1, 261046, Note_on_c, 0, 77, 65
1, 261086, Note_on_c, 0, 36, 47
1, 261093, Control_c, 0, 64, 67
1, 261107, Control_c, 0, 64, 72
1, 261109, Note_off_c, 0, 77, 60
1, 261122, Control_c, 0, 64, 76
1, 261135, Note_on_c, 0, 79, 60
1, 261138, Control_c, 0, 64, 79
1, 261153, Control_c, 0, 64, 82
1, 261153, Note_off_c, 0, 36, 59
1, 261156, Note_off_c, 0, 79, 65
1, 261167, Control_c, 0, 64, 84
1, 261182, Control_c, 0, 64, 86
1, 261197, Control_c, 0, 64, 88
1, 261201, Note_on_c, 0, 77, 67
1, 261212, Control_c, 0, 64, 90
1, 261218, Note_off_c, 0, 77, 64
1, 261227, Control_c, 0, 64, 92
1, 261235, Note_on_c, 0, 36, 59
1, 261241, Control_c, 0, 64, 93
1, 261256, Control_c, 0, 64, 94
1, 261257, Note_on_c, 0, 79, 51
1, 261271, Control_c, 0, 64, 95
1, 261277, Note_off_c, 0, 36, 62
1, 261278, Note_off_c, 0, 79, 62
1, 261301, Note_on_c, 0, 77, 66
1, 261301, Control_c, 0, 64, 98
1, 261335, Note_off_c, 0, 77, 61
1, 261353, Note_on_c, 0, 79, 65
1, 261364, Note_on_c, 0, 36, 63
1, 261374, Control_c, 0, 64, 101
1, 261388, Note_off_c, 0, 79, 60
1, 261404, Control_c, 0, 64, 103
1, 261405, Note_off_c, 0, 36, 59
1, 261411, Note_on_c, 0, 77, 67
1, 261440, Note_off_c, 0, 77, 62
1, 261463, Control_c, 0, 64, 106
1, 261472, Note_on_c, 0, 79, 70
1, 261482, Note_on_c, 0, 36, 67
1, 261493, Control_c, 0, 64, 108
1, 261522, Note_on_c, 0, 77, 68
1, 261532, Note_off_c, 0, 79, 62
1, 261537, Note_off_c, 0, 36, 58
1, 261560, Note_off_c, 0, 77, 58
1, 261591, Note_on_c, 0, 76, 61
1, 261627, Note_on_c, 0, 36, 58
1, 261652, Note_off_c, 0, 76, 57
1, 261655, Note_on_c, 0, 79, 67
1, 261663, Control_c, 0, 64, 106
1, 261667, Note_off_c, 0, 44, 38
1, 261678, Control_c, 0, 64, 104
1, 261692, Control_c, 0, 64, 99
1, 261707, Control_c, 0, 64, 95
1, 261716, Note_off_c, 0, 79, 62
1, 261722, Control_c, 0, 64, 92
1, 261737, Control_c, 0, 64, 89
1, 261745, Note_on_c, 0, 77, 59
1, 261752, Control_c, 0, 64, 85
1, 261767, Control_c, 0, 64, 78
1, 261782, Control_c, 0, 64, 69
1, 261783, Note_off_c, 0, 36, 32
1, 261797, Control_c, 0, 64, 0
1, 261801, Note_off_c, 0, 77, 48
1, 261838, Note_on_c, 0, 43, 50
1, 261848, Note_on_c, 0, 76, 59
1, 261930, Control_c, 0, 64, 68
1, 261945, Control_c, 0, 64, 76
1, 261948, Note_off_c, 0, 76, 61
1, 261960, Control_c, 0, 64, 86
1, 261970, Note_on_c, 0, 36, 53
1, 261975, Control_c, 0, 64, 92
1, 261989, Control_c, 0, 64, 95
1, 262014, Note_off_c, 0, 36, 60
1, 262019, Control_c, 0, 64, 97
1, 262049, Control_c, 0, 64, 99
1, 262116, Note_on_c, 0, 36, 54
1, 262151, Note_off_c, 0, 36, 56
1, 262167, Control_c, 0, 64, 97
1, 262181, Control_c, 0, 64, 94
1, 262196, Control_c, 0, 64, 91
1, 262211, Control_c, 0, 64, 86
1, 262226, Control_c, 0, 64, 81
1, 262228, Note_on_c, 0, 36, 53
1, 262235, Note_on_c, 0, 49, 58
1, 262241, Control_c, 0, 64, 74
1, 262263, Control_c, 0, 64, 68
1, 262277, Note_off_c, 0, 49, 64
1, 262277, Note_off_c, 0, 36, 61
1, 262278, Control_c, 0, 64, 61
1, 262282, Note_off_c, 0, 43, 36
1, 262293, Control_c, 0, 64, 0
1, 262357, Note_on_c, 0, 49, 63
1, 262359, Note_on_c, 0, 36, 61
1, 262400, Note_off_c, 0, 36, 61
1, 262417, Note_off_c, 0, 49, 62
1, 262482, Note_on_c, 0, 49, 63
1, 262494, Note_on_c, 0, 36, 56
1, 262532, Note_off_c, 0, 36, 61
1, 262545, Note_off_c, 0, 49, 60
1, 262613, Note_on_c, 0, 48, 67
1, 262631, Note_on_c, 0, 36, 54
1, 262649, Control_c, 0, 64, 68
1, 262664, Control_c, 0, 64, 72
1, 262665, Note_off_c, 0, 36, 60
1, 262679, Control_c, 0, 64, 76
1, 262688, Note_off_c, 0, 48, 63
1, 262694, Control_c, 0, 64, 82
1, 262709, Control_c, 0, 64, 87
1, 262724, Control_c, 0, 64, 93
1, 262738, Control_c, 0, 64, 96
1, 262753, Control_c, 0, 64, 99
1, 262754, Note_on_c, 0, 36, 63
1, 262768, Control_c, 0, 64, 103
1, 262783, Control_c, 0, 64, 106
1, 262797, Note_off_c, 0, 36, 57
1, 262887, Note_on_c, 0, 36, 58
1, 262926, Note_off_c, 0, 36, 58
1, 262960, Control_c, 0, 64, 102
1, 262975, Control_c, 0, 64, 98
1, 262990, Control_c, 0, 64, 91
1, 263012, Control_c, 0, 64, 82
1, 263026, Note_on_c, 0, 79, 58
1, 263027, Control_c, 0, 64, 72
1, 263030, Note_on_c, 0, 36, 57
1, 263030, Note_on_c, 0, 76, 55
1, 263042, Control_c, 0, 64, 66
1, 263057, Control_c, 0, 64, 64
1, 263058, Note_off_c, 0, 79, 63
1, 263070, Note_off_c, 0, 76, 60
1, 263071, Note_off_c, 0, 36, 57
1, 263072, Control_c, 0, 64, 55
1, 263086, Control_c, 0, 64, 0
1, 263138, Note_on_c, 0, 79, 62
1, 263145, Note_on_c, 0, 76, 66
1, 263150, Note_on_c, 0, 36, 56
1, 263195, Note_off_c, 0, 36, 62
1, 263198, Note_off_c, 0, 76, 53
1, 263198, Note_off_c, 0, 79, 62
1, 263274, Note_on_c, 0, 79, 71
1, 263278, Note_on_c, 0, 76, 59
1, 263281, Note_on_c, 0, 36, 60
1, 263323, Note_off_c, 0, 36, 59
1, 263334, Note_off_c, 0, 79, 61
1, 263344, Note_off_c, 0, 76, 51
1, 263409, Note_on_c, 0, 79, 72
1, 263411, Note_on_c, 0, 82, 73
1, 263412, Control_c, 0, 64, 65
1, 263418, Note_on_c, 0, 36, 59
1, 263427, Control_c, 0, 64, 70
1, 263442, Control_c, 0, 64, 76
1, 263457, Control_c, 0, 64, 83
1, 263463, Note_off_c, 0, 36, 61
1, 263472, Control_c, 0, 64, 90
1, 263473, Note_off_c, 0, 79, 61
1, 263487, Control_c, 0, 64, 95
1, 263491, Note_off_c, 0, 82, 62
1, 263502, Control_c, 0, 64, 97
1, 263517, Control_c, 0, 64, 99
1, 263546, Control_c, 0, 64, 102
1, 263554, Note_on_c, 0, 36, 63
1, 263576, Control_c, 0, 64, 105
1, 263601, Note_off_c, 0, 36, 60
1, 263621, Control_c, 0, 64, 107
1, 263693, Note_on_c, 0, 36, 63
1, 263725, Note_off_c, 0, 36, 61
1, 263791, Control_c, 0, 64, 105
1, 263814, Note_on_c, 0, 36, 64
1, 263824, Note_on_c, 0, 49, 66
1, 263850, Control_c, 0, 64, 102
1, 263861, Note_off_c, 0, 36, 60
1, 263863, Note_off_c, 0, 49, 65
1, 263865, Control_c, 0, 64, 99
1, 263879, Control_c, 0, 64, 94
1, 263894, Control_c, 0, 64, 86
1, 263909, Control_c, 0, 64, 77
1, 263924, Control_c, 0, 64, 68
1, 263939, Control_c, 0, 64, 48
1, 263943, Note_on_c, 0, 49, 77
1, 263953, Control_c, 0, 64, 0
1, 263954, Note_on_c, 0, 36, 59
1, 263987, Note_off_c, 0, 36, 64
1, 263999, Note_off_c, 0, 49, 64
1, 264064, Note_on_c, 0, 36, 59
1, 264070, Note_on_c, 0, 49, 78
1, 264111, Note_off_c, 0, 36, 60
1, 264134, Note_off_c, 0, 49, 62
1, 264204, Note_on_c, 0, 48, 74
1, 264217, Note_on_c, 0, 36, 56
1, 264250, Note_off_c, 0, 36, 61
1, 264265, Control_c, 0, 64, 71
1, 264277, Note_off_c, 0, 48, 63
1, 264280, Control_c, 0, 64, 82
1, 264295, Control_c, 0, 64, 93
1, 264310, Control_c, 0, 64, 103
1, 264325, Control_c, 0, 64, 113
1, 264339, Note_on_c, 0, 36, 62
1, 264339, Control_c, 0, 64, 127
1, 264381, Note_off_c, 0, 36, 59
1, 264414, Control_c, 0, 67, 124
1, 264429, Control_c, 0, 67, 119
1, 264444, Control_c, 0, 67, 115
1, 264458, Control_c, 0, 67, 112
1, 264469, Note_on_c, 0, 36, 59
1, 264488, Control_c, 0, 67, 107
1, 264509, Control_c, 0, 67, 100
1, 264521, Note_off_c, 0, 36, 59
1, 264524, Control_c, 0, 67, 89
1, 264539, Control_c, 0, 67, 74
1, 264554, Control_c, 0, 67, 57
1, 264569, Control_c, 0, 67, 41
1, 264584, Control_c, 0, 67, 26
1, 264599, Control_c, 0, 67, 9
1, 264608, Note_on_c, 0, 36, 66
1, 264608, Note_on_c, 0, 82, 66
1, 264612, Note_on_c, 0, 79, 59
1, 264614, Control_c, 0, 67, 0
1, 264640, Note_off_c, 0, 82, 63
1, 264651, Note_off_c, 0, 79, 61
1, 264655, Note_off_c, 0, 36, 58
1, 264735, Note_on_c, 0, 82, 75
1, 264737, Note_on_c, 0, 79, 68
1, 264738, Note_on_c, 0, 36, 66
1, 264776, Note_off_c, 0, 79, 54
1, 264777, Note_off_c, 0, 36, 60
1, 264778, Note_off_c, 0, 82, 63
1, 264852, Note_on_c, 0, 36, 72
1, 264863, Note_on_c, 0, 82, 82
1, 264865, Note_on_c, 0, 79, 77
1, 264908, Note_off_c, 0, 36, 61
1, 264910, Note_off_c, 0, 82, 62
1, 264927, Note_off_c, 0, 79, 60
1, 264978, Note_on_c, 0, 88, 89
1, 264986, Note_on_c, 0, 36, 70
1, 265031, Note_off_c, 0, 36, 61
1, 265043, Note_on_c, 0, 82, 87
1, 265047, Note_off_c, 0, 88, 64
1, 265108, Note_off_c, 0, 82, 64
1, 265111, Note_on_c, 0, 91, 79
1, 265112, Note_on_c, 0, 36, 74
1, 265139, Note_off_c, 0, 91, 62
1, 265153, Note_off_c, 0, 36, 63
1, 265166, Note_on_c, 0, 88, 83
1, 265233, Note_off_c, 0, 88, 64
1, 265234, Note_on_c, 0, 36, 77
1, 265235, Note_on_c, 0, 94, 84
1, 265287, Note_off_c, 0, 36, 58
1, 265305, Note_on_c, 0, 91, 90
1, 265307, Note_off_c, 0, 94, 65
1, 265360, Note_on_c, 0, 88, 84
1, 265362, Note_off_c, 0, 91, 63
1, 265366, Note_on_c, 0, 36, 78
1, 265401, Note_off_c, 0, 88, 65
1, 265410, Note_off_c, 0, 36, 61
1, 265430, Note_on_c, 0, 91, 83
1, 265479, Note_off_c, 0, 91, 54
1, 265485, Note_on_c, 0, 36, 72
1, 265497, Note_on_c, 0, 82, 83
1, 265523, Note_off_c, 0, 36, 61
1, 265544, Note_off_c, 0, 82, 61
1, 265552, Note_on_c, 0, 88, 75
1, 265577, Note_off_c, 0, 88, 68
1, 265596, Note_on_c, 0, 79, 78
1, 265605, Note_on_c, 0, 36, 79
1, 265642, Note_off_c, 0, 79, 62
1, 265647, Note_off_c, 0, 36, 62
1, 265671, Note_on_c, 0, 82, 76
1, 265698, Note_off_c, 0, 82, 61
1, 265721, Note_on_c, 0, 76, 76
1, 265723, Note_on_c, 0, 36, 79
1, 265756, Note_off_c, 0, 76, 59
1, 265758, Note_off_c, 0, 36, 60
1, 265782, Note_on_c, 0, 79, 83
1, 265828, Note_off_c, 0, 79, 61
1, 265841, Note_on_c, 0, 36, 77
1, 265847, Note_on_c, 0, 70, 86
1, 265884, Note_off_c, 0, 36, 63
1, 265900, Note_off_c, 0, 70, 64
1, 265903, Note_on_c, 0, 76, 74
1, 265930, Note_off_c, 0, 76, 64
1, 265954, Note_on_c, 0, 67, 82
1, 265957, Note_on_c, 0, 36, 84
1, 266006, Note_off_c, 0, 67, 62
1, 266016, Note_off_c, 0, 36, 60
1, 266030, Note_on_c, 0, 70, 76
1, 266065, Note_off_c, 0, 70, 62
1, 266083, Note_on_c, 0, 36, 77
1, 266086, Note_on_c, 0, 64, 75
1, 266137, Note_off_c, 0, 64, 56
1, 266139, Note_on_c, 0, 67, 78
1, 266139, Note_off_c, 0, 36, 62
1, 266196, Note_off_c, 0, 67, 62
1, 266208, Note_on_c, 0, 36, 72
1, 266213, Note_on_c, 0, 58, 79
1, 266256, Note_off_c, 0, 36, 61
1, 266259, Note_on_c, 0, 64, 74
1, 266262, Note_off_c, 0, 58, 60
1, 266296, Note_off_c, 0, 64, 65
1, 266320, Note_on_c, 0, 55, 80
1, 266332, Note_on_c, 0, 36, 77
1, 266363, Note_off_c, 0, 55, 60
1, 266379, Note_off_c, 0, 36, 61
1, 266384, Note_on_c, 0, 58, 81
1, 266414, Note_off_c, 0, 58, 62
1, 266443, Note_on_c, 0, 52, 77
1, 266457, Note_on_c, 0, 36, 77
1, 266486, Note_off_c, 0, 52, 55
1, 266495, Note_on_c, 0, 55, 82
1, 266499, Note_off_c, 0, 36, 63
1, 266561, Note_off_c, 0, 55, 61
1, 266575, Note_on_c, 0, 46, 82
1, 266577, Note_on_c, 0, 36, 79
1, 266621, Note_off_c, 0, 36, 60
1, 266635, Note_off_c, 0, 46, 61
1, 266641, Note_on_c, 0, 52, 77
1, 266694, Note_off_c, 0, 52, 59
1, 266705, Note_on_c, 0, 43, 83
1, 266706, Note_on_c, 0, 36, 80
1, 266759, Note_off_c, 0, 36, 63
1, 266792, Note_on_c, 0, 46, 83
1, 266797, Note_off_c, 0, 43, 58
1, 266834, Note_on_c, 0, 36, 80
1, 266856, Note_on_c, 0, 49, 82
1, 266863, Note_off_c, 0, 46, 61
1, 266884, Note_off_c, 0, 36, 57
1, 266912, Note_off_c, 0, 49, 64
1, 266921, Note_on_c, 0, 46, 77
1, 266949, Note_on_c, 0, 36, 76
1, 266988, Note_off_c, 0, 46, 62
1, 266989, Note_on_c, 0, 52, 77
1, 267010, Note_off_c, 0, 36, 61
1, 267063, Note_on_c, 0, 49, 84
1, 267073, Note_off_c, 0, 52, 59
1, 267077, Note_on_c, 0, 36, 71
1, 267097, Control_c, 0, 64, 104
1, 267112, Control_c, 0, 64, 86
1, 267115, Note_on_c, 0, 55, 83
1, 267122, Note_off_c, 0, 49, 65
1, 267127, Control_c, 0, 64, 70
1, 267141, Control_c, 0, 64, 0
1, 267143, Note_off_c, 0, 36, 61
1, 267152, Note_off_c, 0, 55, 63
1, 267190, Note_on_c, 0, 52, 78
1, 267240, Note_on_c, 0, 43, 82
1, 267245, Control_c, 0, 64, 65
1, 267246, Note_on_c, 0, 31, 76
1, 267248, Note_on_c, 0, 58, 100
1, 267255, Note_off_c, 0, 52, 60
1, 267260, Control_c, 0, 64, 76
1, 267275, Control_c, 0, 64, 86
1, 267283, Note_off_c, 0, 31, 63
1, 267290, Control_c, 0, 64, 94
1, 267293, Note_off_c, 0, 58, 67
1, 267298, Note_off_c, 0, 43, 60
1, 267304, Control_c, 0, 64, 97
1, 267319, Control_c, 0, 64, 99
1, 267349, Control_c, 0, 64, 101
1, 267378, Control_c, 0, 64, 86
1, 267388, Note_on_c, 0, 36, 85
1, 267393, Control_c, 0, 64, 46
1, 267408, Control_c, 0, 64, 0
1, 267447, Note_off_c, 0, 36, 61
1, 267546, Note_on_c, 0, 36, 86
1, 267595, Note_off_c, 0, 36, 61
1, 267692, Note_on_c, 0, 61, 93
1, 267696, Note_on_c, 0, 49, 90
1, 267696, Note_on_c, 0, 29, 80
1, 267697, Note_on_c, 0, 41, 85
1, 267698, Control_c, 0, 64, 66
1, 267699, Note_on_c, 0, 56, 76
1, 267713, Control_c, 0, 64, 105
1, 267717, Note_off_c, 0, 49, 68
1, 267724, Note_off_c, 0, 56, 67
1, 267727, Control_c, 0, 64, 124
1, 267732, Note_off_c, 0, 41, 64
1, 267733, Note_off_c, 0, 29, 64
1, 267735, Note_off_c, 0, 61, 58
1, 267742, Control_c, 0, 64, 116
1, 267757, Control_c, 0, 64, 98
1, 267799, Note_on_c, 0, 49, 11
1, 267828, Note_off_c, 0, 49, 58
1, 267863, Poly_aftertouch_c, 0, 56, 0
1, 267883, Note_on_c, 0, 36, 80
1, 267905, Control_c, 0, 64, 96
1, 267919, Control_c, 0, 64, 90
1, 267924, Note_off_c, 0, 36, 63
1, 267934, Control_c, 0, 64, 81
1, 267949, Control_c, 0, 64, 67
1, 267964, Control_c, 0, 64, 0
1, 268074, Note_on_c, 0, 36, 63
1, 268113, Control_c, 0, 64, 67
1, 268115, Note_off_c, 0, 36, 62
1, 268127, Control_c, 0, 64, 71
1, 268142, Control_c, 0, 64, 71
1, 268186, Control_c, 0, 64, 72
1, 268201, Control_c, 0, 64, 72
1, 268216, Control_c, 0, 64, 73
1, 268232, Control_c, 0, 64, 72
1, 268254, Control_c, 0, 64, 72
1, 268269, Control_c, 0, 64, 71
1, 268283, Control_c, 0, 64, 68
1, 268298, Control_c, 0, 64, 64
1, 268313, Control_c, 0, 64, 0
1, 268455, Note_on_c, 0, 36, 22
1, 268455, Note_on_c, 0, 60, 44
1, 268472, Note_on_c, 0, 40, 37
1, 268480, Note_on_c, 0, 52, 34
1, 268495, Note_on_c, 0, 55, 24
1, 269211, Control_c, 0, 64, 30
1, 269225, Control_c, 0, 64, 44
1, 269240, Control_c, 0, 64, 54
1, 269255, Control_c, 0, 64, 59
1, 269270, Control_c, 0, 64, 63
1, 269285, Control_c, 0, 64, 64
1, 269315, Control_c, 0, 64, 64
1, 269359, Control_c, 0, 64, 65
1, 269389, Control_c, 0, 64, 65
1, 269404, Control_c, 0, 64, 66
1, 269433, Control_c, 0, 64, 66
1, 269478, Control_c, 0, 64, 67
1, 269492, Control_c, 0, 64, 67
1, 269507, Control_c, 0, 64, 68
1, 269522, Control_c, 0, 64, 68
1, 269552, Control_c, 0, 64, 69
1, 269566, Control_c, 0, 64, 69
1, 269581, Control_c, 0, 64, 70
1, 269596, Control_c, 0, 64, 70
1, 269611, Control_c, 0, 64, 71
1, 269625, Control_c, 0, 64, 71
1, 269640, Control_c, 0, 64, 72
1, 269655, Control_c, 0, 64, 73
1, 269670, Control_c, 0, 64, 74
1, 269685, Control_c, 0, 64, 74
1, 269699, Control_c, 0, 64, 75
1, 269714, Control_c, 0, 64, 75
1, 269729, Control_c, 0, 64, 76
1, 269752, Control_c, 0, 64, 77
1, 269767, Control_c, 0, 64, 78
1, 269781, Control_c, 0, 64, 79
1, 269796, Control_c, 0, 64, 80
1, 269811, Control_c, 0, 64, 81
1, 269827, Control_c, 0, 64, 82
1, 269842, Control_c, 0, 64, 83
1, 269856, Control_c, 0, 64, 85
1, 269871, Control_c, 0, 64, 86
1, 269886, Control_c, 0, 64, 88
1, 269901, Control_c, 0, 64, 89
1, 269916, Control_c, 0, 64, 91
1, 269930, Control_c, 0, 64, 92
1, 269945, Control_c, 0, 64, 93
1, 269960, Control_c, 0, 64, 94
1, 269975, Control_c, 0, 64, 95
1, 269990, Control_c, 0, 64, 95
1, 270004, Note_off_c, 0, 52, 36
1, 270004, Control_c, 0, 64, 96
1, 270043, Note_off_c, 0, 40, 37
1, 270063, Control_c, 0, 64, 98
1, 270118, Note_off_c, 0, 36, 41
1, 270121, Note_off_c, 0, 55, 39
1, 270604, Note_off_c, 0, 60, 33
1, 270767, Control_c, 0, 64, 96
1, 270811, Control_c, 0, 64, 95
1, 270871, Control_c, 0, 64, 95
1, 271049, Control_c, 0, 64, 94
1, 271056, Note_on_c, 0, 36, 34
1, 271064, Control_c, 0, 64, 92
1, 271068, Note_on_c, 0, 60, 42
1, 271078, Control_c, 0, 64, 89
1, 271093, Control_c, 0, 64, 82
1, 271108, Control_c, 0, 64, 74
1, 271123, Control_c, 0, 64, 66
1, 271138, Control_c, 0, 64, 0
1, 271278, Control_c, 0, 64, 64
1, 271293, Control_c, 0, 64, 67
1, 271308, Control_c, 0, 64, 69
1, 271323, Control_c, 0, 64, 70
1, 271338, Control_c, 0, 64, 71
1, 271352, Control_c, 0, 64, 72
1, 271367, Control_c, 0, 64, 74
1, 271382, Control_c, 0, 64, 76
1, 271393, Note_off_c, 0, 60, 59
1, 271396, Control_c, 0, 64, 77
1, 271419, Note_on_c, 0, 33, 62
1, 271422, Note_off_c, 0, 36, 61
1, 271423, Note_on_c, 0, 57, 73
1, 271427, Control_c, 0, 64, 74
1, 271442, Control_c, 0, 64, 0
1, 271478, Note_off_c, 0, 57, 63
1, 271483, Note_off_c, 0, 33, 63
1, 271504, Note_on_c, 0, 29, 99
1, 271509, Note_on_c, 0, 53, 91
1, 271531, Control_c, 0, 64, 65
1, 271546, Control_c, 0, 64, 96
1, 271556, Note_off_c, 0, 29, 62
1, 271561, Control_c, 0, 64, 127
1, 271600, Note_off_c, 0, 53, 63
1, 271711, Note_on_c, 0, 65, 93
1, 271716, Note_on_c, 0, 53, 86
1, 271719, Note_on_c, 0, 57, 62
1, 271719, Note_on_c, 0, 60, 77
1, 271777, Note_off_c, 0, 53, 62
1, 271780, Note_off_c, 0, 57, 63
1, 271787, Note_off_c, 0, 60, 60
1, 271807, Note_off_c, 0, 65, 62
1, 271862, Note_on_c, 0, 41, 87
1, 271865, Note_on_c, 0, 29, 76
1, 271866, Note_on_c, 0, 36, 75
1, 271869, Note_on_c, 0, 33, 74
1, 271898, Note_off_c, 0, 41, 63
1, 271904, Note_off_c, 0, 36, 64
1, 271910, Note_off_c, 0, 29, 59
1, 271913, Note_off_c, 0, 33, 63
1, 271984, Note_on_c, 0, 60, 66
1, 271984, Note_on_c, 0, 65, 76
1, 271985, Note_on_c, 0, 69, 92
1, 271993, Note_on_c, 0, 57, 84
1, 272036, Note_off_c, 0, 57, 64
1, 272050, Note_off_c, 0, 60, 60
1, 272077, Note_off_c, 0, 65, 65
1, 272091, Note_off_c, 0, 69, 61
1, 272117, Note_on_c, 0, 41, 83
1, 272126, Note_on_c, 0, 33, 72
1, 272126, Note_on_c, 0, 36, 79
1, 272129, Note_on_c, 0, 29, 76
1, 272197, Note_off_c, 0, 41, 52
1, 272201, Note_off_c, 0, 33, 62
1, 272203, Note_off_c, 0, 36, 57
1, 272212, Note_off_c, 0, 29, 52
1, 272242, Note_on_c, 0, 72, 94
1, 272245, Note_on_c, 0, 69, 82
1, 272248, Note_on_c, 0, 60, 84
1, 272249, Note_on_c, 0, 65, 83
1, 272278, Note_off_c, 0, 60, 61
1, 272285, Note_off_c, 0, 65, 63
1, 272314, Note_off_c, 0, 69, 63
1, 272331, Note_off_c, 0, 72, 63
1, 272365, Note_on_c, 0, 41, 83
1, 272373, Note_on_c, 0, 36, 72
1, 272373, Note_on_c, 0, 33, 70
1, 272376, Note_on_c, 0, 29, 78
1, 272460, Note_off_c, 0, 33, 62
1, 272465, Note_off_c, 0, 36, 58
1, 272472, Note_off_c, 0, 29, 54
1, 272489, Note_on_c, 0, 77, 92
1, 272490, Note_on_c, 0, 72, 75
1, 272492, Note_on_c, 0, 65, 86
1, 272493, Note_off_c, 0, 41, 57
1, 272498, Note_on_c, 0, 69, 78
1, 272540, Note_off_c, 0, 65, 63
1, 272545, Note_off_c, 0, 69, 59
1, 272561, Note_off_c, 0, 72, 61
1, 272586, Note_off_c, 0, 77, 61
1, 272609, Note_on_c, 0, 41, 89
1, 272616, Note_on_c, 0, 36, 76
1, 272617, Note_on_c, 0, 29, 77
1, 272618, Note_on_c, 0, 33, 76
1, 272705, Note_off_c, 0, 33, 58
1, 272725, Note_off_c, 0, 41, 55
1, 272731, Note_off_c, 0, 29, 48
1, 272747, Note_on_c, 0, 81, 90
1, 272748, Note_on_c, 0, 77, 84
1, 272749, Note_on_c, 0, 69, 84
1, 272756, Note_on_c, 0, 72, 74
1, 272780, Note_off_c, 0, 72, 65
1, 272790, Note_off_c, 0, 36, 25
1, 272793, Note_off_c, 0, 69, 59
1, 272822, Note_off_c, 0, 77, 62
1, 272835, Note_off_c, 0, 81, 62
1, 272872, Note_on_c, 0, 41, 85
1, 272878, Note_on_c, 0, 36, 67
1, 272885, Note_on_c, 0, 29, 76
1, 272886, Note_on_c, 0, 33, 75
1, 272910, Note_off_c, 0, 29, 65
1, 272916, Note_off_c, 0, 41, 61
1, 272967, Note_off_c, 0, 33, 60
1, 272975, Note_on_c, 0, 82, 12
1, 272997, Note_off_c, 0, 82, 0
1, 273011, Note_on_c, 0, 29, 3
1, 273017, Note_on_c, 0, 84, 91
1, 273018, Note_on_c, 0, 72, 85
1, 273020, Note_on_c, 0, 81, 79
1, 273028, Note_on_c, 0, 77, 69
1, 273035, Poly_aftertouch_c, 0, 82, 127
1, 273039, Note_off_c, 0, 29, 39
1, 273040, Note_on_c, 0, 82, 7
1, 273041, Note_off_c, 0, 72, 67
1, 273044, Note_off_c, 0, 77, 66
1, 273060, Note_off_c, 0, 81, 62
1, 273071, Note_off_c, 0, 84, 64
1, 273079, Note_off_c, 0, 82, 0
1, 273097, Poly_aftertouch_c, 0, 82, 0
1, 273211, Note_off_c, 0, 36, 0
1, 273223, Note_on_c, 0, 36, 49
1, 273223, Note_on_c, 0, 89, 97
1, 273224, Note_on_c, 0, 84, 81
1, 273225, Note_on_c, 0, 77, 88
1, 273225, Note_on_c, 0, 81, 84
1, 273227, Note_on_c, 0, 33, 61
1, 273231, Note_on_c, 0, 29, 80
1, 273233, Note_on_c, 0, 41, 82
1, 274021, Note_off_c, 0, 29, 44
1, 274145, Note_off_c, 0, 41, 50
1, 274173, Note_off_c, 0, 89, 52
1, 274251, Note_off_c, 0, 77, 55
1, 274263, Note_off_c, 0, 33, 38
1, 274337, Note_off_c, 0, 84, 53
1, 274345, Note_off_c, 0, 81, 50
1, 274629, Control_c, 0, 64, 117
1, 274644, Control_c, 0, 64, 109
1, 274659, Control_c, 0, 64, 104
1, 274674, Control_c, 0, 64, 101
1, 274689, Control_c, 0, 64, 98
1, 274704, Control_c, 0, 64, 96
1, 274718, Control_c, 0, 64, 94
1, 274733, Control_c, 0, 64, 92
1, 274748, Control_c, 0, 64, 91
1, 274762, Control_c, 0, 64, 90
1, 274777, Control_c, 0, 64, 88
1, 274792, Control_c, 0, 64, 85
1, 274807, Control_c, 0, 64, 82
1, 274822, Control_c, 0, 64, 78
1, 274836, Control_c, 0, 64, 75
1, 274843, Note_off_c, 0, 36, 26
1, 274851, Control_c, 0, 64, 72
1, 274866, Control_c, 0, 64, 69
1, 274881, Control_c, 0, 64, 66
1, 274896, Control_c, 0, 64, 63
1, 274906, Note_on_c, 0, 33, 32
1, 274910, Control_c, 0, 64, 0
1, 274919, Note_on_c, 0, 57, 40
1, 275257, Note_on_c, 0, 36, 36
1, 275266, Note_on_c, 0, 60, 40
1, 275339, Note_off_c, 0, 33, 41
1, 275363, Note_off_c, 0, 57, 40
1, 275369, Note_on_c, 0, 65, 56
1, 275375, Note_on_c, 0, 41, 43
1, 275405, Note_off_c, 0, 60, 56
1, 275429, Note_off_c, 0, 36, 60
1, 275797, Note_on_c, 0, 69, 54
1, 275813, Note_on_c, 0, 45, 47
1, 275899, Note_off_c, 0, 41, 52
1, 275920, Note_off_c, 0, 65, 61
1, 276132, Note_on_c, 0, 72, 53
1, 276136, Note_on_c, 0, 48, 41
1, 276210, Note_off_c, 0, 45, 49
1, 276311, Note_on_c, 0, 77, 61
1, 276320, Note_on_c, 0, 53, 36
1, 276406, Note_off_c, 0, 48, 54
1, 276410, Note_off_c, 0, 72, 54
1, 276418, Note_off_c, 0, 69, 59
1, 276519, Control_c, 0, 64, 34
1, 276534, Control_c, 0, 64, 58
1, 276549, Control_c, 0, 64, 64
1, 276564, Control_c, 0, 64, 65
1, 276579, Control_c, 0, 64, 66
1, 276594, Control_c, 0, 64, 67
1, 276609, Control_c, 0, 64, 68
1, 276623, Control_c, 0, 64, 69
1, 276638, Control_c, 0, 64, 70
1, 276653, Control_c, 0, 64, 72
1, 276668, Control_c, 0, 64, 73
1, 276683, Control_c, 0, 64, 74
1, 276697, Control_c, 0, 64, 76
1, 276712, Control_c, 0, 64, 77
1, 276727, Control_c, 0, 64, 77
1, 276741, Control_c, 0, 64, 78
1, 276756, Control_c, 0, 64, 79
1, 276769, Note_on_c, 0, 41, 16
1, 276771, Control_c, 0, 64, 80
1, 276786, Control_c, 0, 64, 81
1, 276791, Note_on_c, 0, 65, 49
1, 276801, Control_c, 0, 64, 83
1, 276815, Control_c, 0, 64, 84
1, 276830, Control_c, 0, 64, 85
1, 276845, Control_c, 0, 64, 87
1, 276859, Control_c, 0, 64, 89
1, 276874, Control_c, 0, 64, 92
1, 276889, Control_c, 0, 64, 94
1, 276898, Note_off_c, 0, 77, 60
1, 276904, Control_c, 0, 64, 97
1, 276908, Note_off_c, 0, 41, 55
1, 276919, Control_c, 0, 64, 100
1, 276934, Control_c, 0, 64, 105
1, 276949, Control_c, 0, 64, 112
1, 276955, Note_off_c, 0, 53, 63
1, 276964, Control_c, 0, 64, 127
1, 276990, Note_off_c, 0, 65, 65
1, 277157, Control_c, 0, 64, 121
1, 277172, Control_c, 0, 64, 86
1, 277187, Control_c, 0, 64, 68
1, 277202, Control_c, 0, 64, 0
1, 277208, Note_on_c, 0, 52, 89
1, 277210, Note_on_c, 0, 60, 91
1, 277213, Note_on_c, 0, 55, 93
1, 277244, Note_off_c, 0, 60, 66
1, 277253, Control_c, 0, 64, 77
1, 277260, Note_off_c, 0, 55, 63
1, 277265, Note_off_c, 0, 52, 62
1, 277268, Control_c, 0, 64, 94
1, 277283, Control_c, 0, 64, 127
1, 277395, Note_on_c, 0, 64, 82
1, 277399, Note_on_c, 0, 55, 83
1, 277401, Note_on_c, 0, 60, 79
1, 277440, Note_off_c, 0, 55, 57
1, 277443, Note_off_c, 0, 60, 55
1, 277473, Note_off_c, 0, 64, 63
1, 277524, Note_on_c, 0, 40, 81
1, 277527, Note_on_c, 0, 43, 84
1, 277527, Note_on_c, 0, 48, 82
1, 277557, Note_off_c, 0, 48, 66
1, 277561, Note_off_c, 0, 43, 62
1, 277563, Note_off_c, 0, 40, 65
1, 277661, Note_on_c, 0, 67, 84
1, 277662, Note_on_c, 0, 60, 84
1, 277665, Note_on_c, 0, 64, 78
1, 277706, Note_off_c, 0, 60, 59
1, 277717, Note_off_c, 0, 64, 61
1, 277739, Note_off_c, 0, 67, 64
1, 277777, Note_on_c, 0, 48, 79
1, 277778, Note_on_c, 0, 40, 77
1, 277781, Note_on_c, 0, 43, 81
1, 277819, Note_off_c, 0, 48, 60
1, 277821, Note_off_c, 0, 43, 63
1, 277822, Note_off_c, 0, 40, 63
1, 277911, Note_on_c, 0, 72, 92
1, 277913, Note_on_c, 0, 64, 79
1, 277917, Note_on_c, 0, 67, 80
1, 277962, Note_off_c, 0, 64, 63
1, 277962, Note_off_c, 0, 67, 60
1, 277997, Note_off_c, 0, 72, 61
1, 278032, Note_on_c, 0, 43, 82
1, 278033, Note_on_c, 0, 48, 82
1, 278034, Note_on_c, 0, 40, 79
1, 278087, Note_off_c, 0, 40, 58
1, 278087, Note_off_c, 0, 48, 59
1, 278087, Note_off_c, 0, 43, 61
1, 278165, Note_on_c, 0, 76, 86
1, 278166, Note_on_c, 0, 72, 72
1, 278170, Note_on_c, 0, 67, 75
1, 278204, Note_off_c, 0, 67, 59
1, 278217, Note_off_c, 0, 72, 61
1, 278242, Note_off_c, 0, 76, 61
1, 278275, Note_on_c, 0, 48, 78
1, 278278, Note_on_c, 0, 40, 78
1, 278278, Note_on_c, 0, 43, 80
1, 278319, Note_off_c, 0, 48, 58
1, 278321, Note_off_c, 0, 43, 58
1, 278330, Note_off_c, 0, 40, 54
1, 278412, Note_on_c, 0, 79, 86
1, 278415, Note_on_c, 0, 76, 80
1, 278421, Note_on_c, 0, 72, 72
1, 278452, Note_off_c, 0, 72, 61
1, 278466, Note_off_c, 0, 76, 60
1, 278491, Note_off_c, 0, 79, 64
1, 278527, Note_on_c, 0, 40, 74
1, 278527, Note_on_c, 0, 48, 76
1, 278531, Note_on_c, 0, 43, 79
1, 278555, Note_off_c, 0, 48, 65
1, 278555, Note_off_c, 0, 40, 65
1, 278561, Note_off_c, 0, 43, 66
1, 278692, Note_on_c, 0, 84, 86
1, 278701, Note_on_c, 0, 76, 72
1, 278705, Note_on_c, 0, 79, 66
1, 278721, Note_off_c, 0, 79, 68
1, 278725, Note_off_c, 0, 76, 67
1, 278747, Note_off_c, 0, 84, 63
1, 278915, Control_c, 0, 64, 121
1, 278929, Control_c, 0, 64, 116
1, 278944, Control_c, 0, 64, 113
1, 278959, Control_c, 0, 64, 111
1, 278974, Control_c, 0, 64, 109
1, 278989, Control_c, 0, 64, 105
1, 279003, Control_c, 0, 64, 101
1, 279018, Control_c, 0, 64, 97
1, 279033, Control_c, 0, 64, 92
1, 279048, Control_c, 0, 64, 87
1, 279062, Control_c, 0, 64, 80
1, 279077, Control_c, 0, 64, 71
1, 279092, Control_c, 0, 64, 64
1, 279107, Control_c, 0, 64, 0
1, 279136, Note_on_c, 0, 72, 55
1, 279145, Note_on_c, 0, 64, 28
1, 279146, Note_on_c, 0, 67, 36
1, 279530, Control_c, 0, 64, 41
1, 279545, Control_c, 0, 64, 66
1, 279560, Control_c, 0, 64, 69
1, 279575, Control_c, 0, 64, 72
1, 279590, Control_c, 0, 64, 74
1, 279605, Control_c, 0, 64, 78
1, 279620, Control_c, 0, 64, 82
1, 279634, Control_c, 0, 64, 86
1, 279649, Control_c, 0, 64, 89
1, 279664, Control_c, 0, 64, 91
1, 279669, Note_off_c, 0, 64, 52
1, 279678, Control_c, 0, 64, 93
1, 279693, Control_c, 0, 64, 95
1, 279708, Control_c, 0, 64, 97
1, 279738, Control_c, 0, 64, 99
1, 279760, Note_off_c, 0, 67, 56
1, 279914, Note_on_c, 0, 74, 51
1, 279992, Note_off_c, 0, 72, 55
1, 280123, Control_c, 0, 64, 96
1, 280138, Control_c, 0, 64, 88
1, 280147, Note_on_c, 0, 76, 58
1, 280152, Control_c, 0, 64, 77
1, 280153, Note_on_c, 0, 71, 41
1, 280156, Note_on_c, 0, 65, 39
1, 280157, Note_on_c, 0, 68, 39
1, 280157, Note_off_c, 0, 74, 60
1, 280167, Control_c, 0, 64, 66
1, 280182, Control_c, 0, 64, 0
1, 280283, Note_off_c, 0, 76, 61
1, 280294, Control_c, 0, 64, 67
1, 280305, Note_on_c, 0, 74, 57
1, 280308, Control_c, 0, 64, 73
1, 280323, Control_c, 0, 64, 78
1, 280338, Control_c, 0, 64, 84
1, 280353, Note_off_c, 0, 74, 59
1, 280353, Control_c, 0, 64, 87
1, 280368, Control_c, 0, 64, 90
1, 280383, Control_c, 0, 64, 93
1, 280398, Control_c, 0, 64, 95
1, 280411, Note_on_c, 0, 76, 40
1, 280412, Control_c, 0, 64, 98
1, 280427, Control_c, 0, 64, 100
1, 280438, Note_off_c, 0, 76, 52
1, 280457, Control_c, 0, 64, 103
1, 280460, Note_on_c, 0, 74, 56
1, 280472, Control_c, 0, 64, 105
1, 280481, Note_off_c, 0, 74, 63
1, 280502, Control_c, 0, 64, 108
1, 280520, Note_on_c, 0, 76, 56
1, 280531, Control_c, 0, 64, 110
1, 280539, Note_off_c, 0, 76, 61
1, 280561, Control_c, 0, 64, 114
1, 280564, Note_on_c, 0, 74, 63
1, 280575, Control_c, 0, 64, 117
1, 280590, Control_c, 0, 64, 120
1, 280595, Note_off_c, 0, 74, 62
1, 280604, Control_c, 0, 64, 127
1, 280620, Note_on_c, 0, 76, 60
1, 280651, Note_off_c, 0, 76, 63
1, 280675, Note_on_c, 0, 74, 67
1, 280704, Note_off_c, 0, 74, 65
1, 280727, Note_on_c, 0, 76, 62
1, 280764, Note_off_c, 0, 76, 61
1, 280773, Note_on_c, 0, 74, 70
1, 280818, Note_off_c, 0, 71, 61
1, 280823, Note_off_c, 0, 74, 47
1, 280829, Note_on_c, 0, 76, 76
1, 280845, Note_off_c, 0, 68, 63
1, 280860, Note_off_c, 0, 65, 63
1, 280873, Note_off_c, 0, 76, 59
1, 280880, Poly_aftertouch_c, 0, 74, 127
1, 280890, Poly_aftertouch_c, 0, 74, 0
1, 280906, Note_on_c, 0, 72, 73
1, 280981, Note_on_c, 0, 76, 74
1, 280982, Note_off_c, 0, 72, 59
1, 281044, Note_on_c, 0, 74, 86
1, 281045, Note_off_c, 0, 76, 60
1, 281071, Note_off_c, 0, 74, 65
1, 281101, Control_c, 0, 64, 84
1, 281116, Control_c, 0, 64, 44
1, 281131, Control_c, 0, 64, 0
1, 281138, Note_on_c, 0, 52, 87
1, 281138, Note_on_c, 0, 60, 95
1, 281140, Note_on_c, 0, 55, 93
1, 281176, Control_c, 0, 64, 70
1, 281187, Note_off_c, 0, 60, 61
1, 281190, Control_c, 0, 64, 83
1, 281205, Control_c, 0, 64, 100
1, 281210, Note_off_c, 0, 55, 63
1, 281220, Control_c, 0, 64, 117
1, 281229, Note_off_c, 0, 52, 61
1, 281235, Control_c, 0, 64, 127
1, 281336, Note_on_c, 0, 64, 78
1, 281337, Note_on_c, 0, 60, 74
1, 281339, Note_on_c, 0, 55, 78
1, 281374, Note_off_c, 0, 55, 62
1, 281384, Note_off_c, 0, 60, 59
1, 281411, Note_off_c, 0, 64, 64
1, 281462, Note_on_c, 0, 48, 78
1, 281463, Note_on_c, 0, 40, 76
1, 281467, Note_on_c, 0, 43, 80
1, 281505, Note_off_c, 0, 43, 63
1, 281508, Note_off_c, 0, 48, 59
1, 281521, Note_off_c, 0, 40, 60
1, 281596, Note_on_c, 0, 67, 83
1, 281597, Note_on_c, 0, 64, 77
1, 281602, Note_on_c, 0, 60, 76
1, 281653, Note_off_c, 0, 60, 56
1, 281660, Note_off_c, 0, 64, 63
1, 281676, Note_off_c, 0, 67, 64
1, 281715, Note_on_c, 0, 43, 79
1, 281715, Note_on_c, 0, 48, 79
1, 281715, Note_on_c, 0, 40, 77
1, 281778, Note_off_c, 0, 43, 59
1, 281788, Note_off_c, 0, 48, 56
1, 281788, Note_off_c, 0, 40, 61
1, 281852, Note_on_c, 0, 72, 89
1, 281858, Note_on_c, 0, 64, 75
1, 281858, Note_on_c, 0, 67, 81
1, 281909, Note_off_c, 0, 64, 60
1, 281911, Note_off_c, 0, 67, 62
1, 281933, Note_off_c, 0, 72, 60
1, 281968, Note_on_c, 0, 48, 83
1, 281969, Note_on_c, 0, 40, 79
1, 281971, Note_on_c, 0, 43, 80
1, 282034, Note_off_c, 0, 48, 57
1, 282037, Note_off_c, 0, 40, 61
1, 282037, Note_off_c, 0, 43, 60
1, 282096, Note_on_c, 0, 72, 77
1, 282098, Note_on_c, 0, 76, 86
1, 282103, Note_on_c, 0, 67, 76
1, 282151, Note_off_c, 0, 67, 60
1, 282161, Note_off_c, 0, 72, 61
1, 282179, Note_off_c, 0, 76, 61
1, 282208, Note_on_c, 0, 43, 79
1, 282208, Note_on_c, 0, 48, 77
1, 282210, Note_on_c, 0, 40, 78
1, 282259, Note_off_c, 0, 40, 57
1, 282263, Note_off_c, 0, 43, 59
1, 282277, Note_off_c, 0, 48, 49
1, 282342, Note_on_c, 0, 76, 71
1, 282343, Note_on_c, 0, 79, 85
1, 282346, Note_on_c, 0, 72, 70
1, 282382, Note_off_c, 0, 72, 58
1, 282394, Note_off_c, 0, 76, 61
1, 282421, Note_off_c, 0, 79, 64
1, 282463, Note_on_c, 0, 48, 81
1, 282469, Note_on_c, 0, 40, 79
1, 282479, Note_on_c, 0, 43, 79
1, 282505, Note_off_c, 0, 40, 66
1, 282505, Note_off_c, 0, 48, 62
1, 282509, Note_off_c, 0, 43, 64
1, 282618, Note_on_c, 0, 84, 84
1, 282624, Note_on_c, 0, 79, 66
1, 282627, Note_on_c, 0, 76, 72
1, 282643, Note_off_c, 0, 79, 67
1, 282651, Note_off_c, 0, 76, 67
1, 282657, Note_off_c, 0, 84, 65
1, 282866, Control_c, 0, 64, 110
1, 282881, Control_c, 0, 64, 101
1, 282896, Control_c, 0, 64, 95
1, 282910, Control_c, 0, 64, 89
1, 282925, Control_c, 0, 64, 85
1, 282940, Control_c, 0, 64, 81
1, 282955, Control_c, 0, 64, 77
1, 282970, Control_c, 0, 64, 72
1, 282985, Control_c, 0, 64, 66
1, 283000, Control_c, 0, 64, 55
1, 283015, Control_c, 0, 64, 0
1, 283062, Note_on_c, 0, 72, 53
1, 283076, Note_on_c, 0, 64, 39
1, 283077, Note_on_c, 0, 67, 38
1, 283408, Control_c, 0, 64, 55
1, 283423, Control_c, 0, 64, 66
1, 283438, Control_c, 0, 64, 69
1, 283452, Control_c, 0, 64, 71
1, 283467, Control_c, 0, 64, 74
1, 283482, Control_c, 0, 64, 78
1, 283497, Control_c, 0, 64, 81
1, 283512, Control_c, 0, 64, 85
1, 283526, Control_c, 0, 64, 88
1, 283541, Control_c, 0, 64, 91
1, 283556, Control_c, 0, 64, 94
1, 283571, Control_c, 0, 64, 97
1, 283586, Control_c, 0, 64, 99
1, 283593, Note_off_c, 0, 64, 52
1, 283600, Control_c, 0, 64, 101
1, 283615, Control_c, 0, 64, 103
1, 283630, Control_c, 0, 64, 106
1, 283659, Control_c, 0, 64, 108
1, 283687, Note_off_c, 0, 67, 59
1, 283833, Note_on_c, 0, 74, 49
1, 283936, Note_off_c, 0, 72, 58
1, 283956, Control_c, 0, 64, 106
1, 284022, Control_c, 0, 64, 101
1, 284037, Control_c, 0, 64, 93
1, 284052, Control_c, 0, 64, 82
1, 284061, Note_on_c, 0, 76, 56
1, 284067, Control_c, 0, 64, 70
1, 284068, Note_on_c, 0, 68, 36
1, 284074, Note_on_c, 0, 65, 38
1, 284076, Note_off_c, 0, 74, 60
1, 284082, Control_c, 0, 64, 0
1, 284178, Note_off_c, 0, 76, 61
1, 284185, Control_c, 0, 64, 65
1, 284201, Control_c, 0, 64, 72
1, 284203, Note_on_c, 0, 74, 57
1, 284216, Control_c, 0, 64, 77
1, 284231, Control_c, 0, 64, 82
1, 284244, Note_off_c, 0, 74, 60
1, 284246, Control_c, 0, 64, 87
1, 284261, Control_c, 0, 64, 90
1, 284275, Control_c, 0, 64, 93
1, 284290, Control_c, 0, 64, 97
1, 284296, Note_on_c, 0, 76, 47
1, 284305, Control_c, 0, 64, 101
1, 284319, Note_off_c, 0, 76, 56
1, 284320, Control_c, 0, 64, 104
1, 284335, Control_c, 0, 64, 108
1, 284348, Control_c, 0, 64, 112
1, 284350, Note_on_c, 0, 74, 54
1, 284363, Control_c, 0, 64, 117
1, 284370, Note_off_c, 0, 74, 63
1, 284378, Control_c, 0, 64, 127
1, 284405, Note_on_c, 0, 76, 55
1, 284425, Note_off_c, 0, 76, 59
1, 284451, Note_on_c, 0, 74, 63
1, 284480, Note_off_c, 0, 74, 65
1, 284509, Note_on_c, 0, 76, 59
1, 284535, Note_off_c, 0, 76, 62
1, 284559, Note_on_c, 0, 74, 62
1, 284597, Note_off_c, 0, 74, 61
1, 284606, Note_on_c, 0, 76, 61
1, 284639, Note_off_c, 0, 76, 62
1, 284670, Note_on_c, 0, 74, 54
1, 284680, Note_off_c, 0, 68, 62
1, 284688, Note_off_c, 0, 65, 63
1, 284692, Note_off_c, 0, 74, 62
1, 284700, Note_on_c, 0, 76, 74
1, 284753, Note_off_c, 0, 76, 59
1, 284756, Note_on_c, 0, 74, 73
1, 284782, Note_off_c, 0, 74, 66
1, 284803, Note_on_c, 0, 72, 75
1, 284868, Note_on_c, 0, 74, 83
1, 284886, Note_off_c, 0, 72, 59
1, 284909, Note_off_c, 0, 74, 62
1, 284948, Control_c, 0, 64, 85
1, 284963, Control_c, 0, 64, 0
1, 284978, Note_on_c, 0, 55, 86
1, 284978, Note_on_c, 0, 58, 92
1, 284978, Note_on_c, 0, 64, 91
1, 285024, Note_off_c, 0, 64, 65
1, 285024, Control_c, 0, 64, 72
1, 285039, Control_c, 0, 64, 84
1, 285053, Control_c, 0, 64, 100
1, 285056, Note_off_c, 0, 58, 63
1, 285062, Note_off_c, 0, 55, 61
1, 285068, Control_c, 0, 64, 120
1, 285083, Control_c, 0, 64, 127
1, 285161, Note_on_c, 0, 67, 82
1, 285165, Note_on_c, 0, 58, 84
1, 285168, Note_on_c, 0, 64, 70
1, 285210, Note_off_c, 0, 58, 62
1, 285213, Note_off_c, 0, 64, 62
1, 285234, Note_off_c, 0, 67, 63
1, 285291, Note_on_c, 0, 52, 80
1, 285292, Note_on_c, 0, 43, 77
1, 285293, Note_on_c, 0, 46, 81
1, 285327, Note_off_c, 0, 52, 61
1, 285337, Note_off_c, 0, 43, 57
1, 285347, Note_off_c, 0, 46, 61
1, 285417, Note_on_c, 0, 67, 76
1, 285418, Note_on_c, 0, 70, 83
1, 285425, Note_on_c, 0, 64, 79
1, 285474, Note_off_c, 0, 64, 58
1, 285490, Note_off_c, 0, 67, 63
1, 285495, Note_off_c, 0, 70, 60
1, 285547, Note_on_c, 0, 52, 79
1, 285548, Note_on_c, 0, 46, 73
1, 285551, Note_on_c, 0, 43, 80
1, 285599, Note_off_c, 0, 52, 59
1, 285608, Note_off_c, 0, 43, 57
1, 285615, Note_off_c, 0, 46, 61
1, 285678, Note_on_c, 0, 67, 67
1, 285679, Note_on_c, 0, 76, 89
1, 285682, Note_on_c, 0, 70, 80
1, 285728, Note_off_c, 0, 67, 62
1, 285741, Note_off_c, 0, 70, 62
1, 285746, Note_off_c, 0, 76, 60
1, 285798, Note_on_c, 0, 52, 86
1, 285799, Note_on_c, 0, 43, 83
1, 285801, Note_on_c, 0, 46, 86
1, 285870, Note_off_c, 0, 43, 57
1, 285871, Note_off_c, 0, 52, 58
1, 285876, Note_off_c, 0, 46, 61
1, 285925, Note_on_c, 0, 70, 76
1, 285925, Note_on_c, 0, 76, 81
1, 285927, Note_on_c, 0, 79, 91
1, 285979, Note_off_c, 0, 70, 64
1, 285999, Note_off_c, 0, 76, 62
1, 286006, Note_off_c, 0, 79, 63
1, 286043, Note_on_c, 0, 46, 83
1, 286043, Note_on_c, 0, 52, 83
1, 286043, Note_on_c, 0, 43, 84
1, 286097, Note_off_c, 0, 43, 53
1, 286102, Note_off_c, 0, 46, 59
1, 286112, Note_off_c, 0, 52, 48
1, 286172, Note_on_c, 0, 79, 87
1, 286176, Note_on_c, 0, 82, 92
1, 286179, Note_on_c, 0, 76, 84
1, 286228, Note_off_c, 0, 76, 59
1, 286244, Note_off_c, 0, 79, 63
1, 286263, Note_off_c, 0, 82, 63
1, 286303, Note_on_c, 0, 52, 86
1, 286306, Note_on_c, 0, 43, 81
1, 286306, Note_on_c, 0, 46, 76
1, 286330, Note_off_c, 0, 43, 65
1, 286333, Note_off_c, 0, 52, 63
1, 286359, Note_off_c, 0, 46, 62
1, 286446, Note_on_c, 0, 79, 76
1, 286446, Note_on_c, 0, 88, 93
1, 286456, Note_on_c, 0, 82, 87
1, 286470, Note_off_c, 0, 79, 69
1, 286477, Note_off_c, 0, 82, 67
1, 286484, Note_off_c, 0, 88, 70
1, 286802, Control_c, 0, 64, 115
1, 286817, Control_c, 0, 64, 102
1, 286832, Control_c, 0, 64, 95
1, 286847, Control_c, 0, 64, 87
1, 286862, Control_c, 0, 64, 80
1, 286876, Control_c, 0, 64, 72
1, 286890, Note_on_c, 0, 76, 63
1, 286891, Control_c, 0, 64, 66
1, 286902, Note_on_c, 0, 67, 40
1, 286905, Note_on_c, 0, 70, 41
1, 286906, Control_c, 0, 64, 38
1, 286921, Control_c, 0, 64, 0
1, 287358, Control_c, 0, 64, 23
1, 287373, Control_c, 0, 64, 64
1, 287388, Control_c, 0, 64, 66
1, 287403, Control_c, 0, 64, 68
1, 287418, Control_c, 0, 64, 70
1, 287432, Control_c, 0, 64, 73
1, 287435, Note_off_c, 0, 67, 62
1, 287447, Control_c, 0, 64, 76
1, 287462, Control_c, 0, 64, 80
1, 287477, Control_c, 0, 64, 85
1, 287492, Control_c, 0, 64, 88
1, 287507, Control_c, 0, 64, 91
1, 287522, Control_c, 0, 64, 93
1, 287537, Control_c, 0, 64, 95
1, 287566, Control_c, 0, 64, 97
1, 287623, Note_off_c, 0, 70, 58
1, 287668, Note_on_c, 0, 77, 62
1, 287788, Note_off_c, 0, 76, 56
1, 287885, Control_c, 0, 64, 90
1, 287899, Control_c, 0, 64, 80
1, 287910, Note_on_c, 0, 79, 65
1, 287911, Note_on_c, 0, 72, 51
1, 287914, Control_c, 0, 64, 69
1, 287916, Note_on_c, 0, 68, 43
1, 287929, Control_c, 0, 64, 0
1, 287935, Note_off_c, 0, 77, 60
1, 288043, Note_off_c, 0, 79, 62
1, 288061, Note_on_c, 0, 77, 66
1, 288062, Control_c, 0, 64, 68
1, 288077, Control_c, 0, 64, 74
1, 288091, Control_c, 0, 64, 78
1, 288106, Control_c, 0, 64, 83
1, 288113, Note_off_c, 0, 77, 57
1, 288121, Control_c, 0, 64, 88
1, 288136, Control_c, 0, 64, 92
1, 288151, Control_c, 0, 64, 97
1, 288156, Note_on_c, 0, 79, 60
1, 288166, Control_c, 0, 64, 102
1, 288175, Note_off_c, 0, 79, 64
1, 288181, Control_c, 0, 64, 106
1, 288196, Control_c, 0, 64, 112
1, 288211, Control_c, 0, 64, 119
1, 288224, Note_on_c, 0, 77, 57
1, 288226, Control_c, 0, 64, 127
1, 288242, Note_off_c, 0, 77, 62
1, 288269, Note_on_c, 0, 79, 50
1, 288291, Note_off_c, 0, 79, 63
1, 288319, Note_on_c, 0, 77, 66
1, 288351, Note_off_c, 0, 77, 63
1, 288374, Note_on_c, 0, 79, 62
1, 288401, Note_off_c, 0, 79, 65
1, 288428, Note_on_c, 0, 77, 61
1, 288470, Note_off_c, 0, 77, 62
1, 288476, Note_on_c, 0, 79, 66
1, 288504, Note_off_c, 0, 79, 64
1, 288544, Note_off_c, 0, 72, 60
1, 288570, Note_on_c, 0, 79, 74
1, 288597, Note_off_c, 0, 68, 63
1, 288601, Note_on_c, 0, 77, 55
1, 288617, Note_off_c, 0, 79, 64
1, 288652, Note_off_c, 0, 77, 61
1, 288667, Note_on_c, 0, 76, 68
1, 288734, Note_on_c, 0, 77, 84
1, 288740, Note_off_c, 0, 76, 61
1, 288768, Note_off_c, 0, 77, 59
1, 288781, Control_c, 0, 64, 113
1, 288796, Control_c, 0, 64, 76
1, 288811, Control_c, 0, 64, 0
1, 288829, Note_on_c, 0, 67, 94
1, 288830, Note_on_c, 0, 64, 93
1, 288871, Control_c, 0, 64, 66
1, 288883, Note_off_c, 0, 67, 65
1, 288886, Control_c, 0, 64, 79
1, 288901, Control_c, 0, 64, 95
1, 288908, Note_off_c, 0, 64, 65
1, 288915, Control_c, 0, 64, 127
1, 289018, Note_on_c, 0, 76, 88
1, 289021, Note_on_c, 0, 73, 87
1, 289068, Note_off_c, 0, 73, 61
1, 289124, Note_off_c, 0, 76, 50
1, 289143, Note_on_c, 0, 46, 79
1, 289144, Note_on_c, 0, 55, 82
1, 289149, Note_on_c, 0, 49, 79
1, 289149, Note_on_c, 0, 52, 78
1, 289167, Note_off_c, 0, 46, 65
1, 289179, Note_off_c, 0, 52, 65
1, 289179, Note_off_c, 0, 55, 63
1, 289180, Note_off_c, 0, 49, 67
1, 289282, Note_on_c, 0, 76, 88
1, 289282, Note_on_c, 0, 79, 89
1, 289328, Note_off_c, 0, 76, 61
1, 289349, Note_off_c, 0, 79, 64
1, 289410, Note_on_c, 0, 58, 74
1, 289411, Note_on_c, 0, 67, 83
1, 289414, Note_on_c, 0, 61, 78
1, 289416, Note_on_c, 0, 64, 79
1, 289462, Note_off_c, 0, 67, 62
1, 289476, Note_off_c, 0, 58, 61
1, 289486, Note_off_c, 0, 64, 64
1, 289494, Note_off_c, 0, 61, 61
1, 289542, Note_on_c, 0, 82, 95
1, 289546, Note_on_c, 0, 79, 82
1, 289613, Note_off_c, 0, 79, 59
1, 289663, Note_on_c, 0, 67, 81
1, 289669, Note_on_c, 0, 61, 75
1, 289670, Note_on_c, 0, 64, 80
1, 289672, Note_on_c, 0, 58, 74
1, 289722, Note_off_c, 0, 82, 26
1, 289727, Note_off_c, 0, 67, 59
1, 289740, Note_off_c, 0, 58, 59
1, 289786, Note_on_c, 0, 85, 92
1, 289789, Note_on_c, 0, 82, 84
1, 289833, Note_off_c, 0, 61, 55
1, 289840, Note_off_c, 0, 64, 48
1, 289871, Note_off_c, 0, 82, 57
1, 289896, Note_off_c, 0, 85, 57
1, 289916, Note_on_c, 0, 67, 84
1, 289919, Note_on_c, 0, 64, 69
1, 289924, Note_on_c, 0, 61, 78
1, 289927, Note_on_c, 0, 58, 75
1, 290006, Note_off_c, 0, 67, 60
1, 290008, Note_off_c, 0, 58, 61
1, 290024, Note_off_c, 0, 61, 61
1, 290053, Note_on_c, 0, 88, 93
1, 290053, Note_on_c, 0, 85, 92
1, 290137, Note_off_c, 0, 85, 61
1, 290138, Note_off_c, 0, 88, 57
1, 290147, Note_off_c, 0, 64, 30
1, 290187, Note_on_c, 0, 67, 87
1, 290190, Note_on_c, 0, 64, 66
1, 290193, Note_on_c, 0, 58, 76
1, 290196, Note_on_c, 0, 61, 76
1, 290235, Note_off_c, 0, 67, 63
1, 290243, Note_off_c, 0, 58, 60
1, 290282, Note_off_c, 0, 64, 64
1, 290301, Note_off_c, 0, 61, 59
1, 290322, Note_on_c, 0, 91, 99
1, 290324, Note_on_c, 0, 88, 97
1, 290365, Note_off_c, 0, 88, 68
1, 290367, Note_off_c, 0, 91, 66
1, 290678, Note_on_c, 0, 79, 95
1, 290681, Control_c, 0, 64, 97
1, 290689, Note_on_c, 0, 73, 70
1, 290691, Note_on_c, 0, 70, 66
1, 290692, Note_on_c, 0, 76, 70
1, 290696, Control_c, 0, 64, 82
1, 290717, Control_c, 0, 64, 70
1, 290732, Control_c, 0, 64, 63
1, 290747, Control_c, 0, 64, 0
1, 291029, Control_c, 0, 64, 51
1, 291043, Control_c, 0, 64, 65
1, 291058, Control_c, 0, 64, 68
1, 291073, Control_c, 0, 64, 70
1, 291087, Control_c, 0, 64, 73
1, 291102, Control_c, 0, 64, 77
1, 291117, Control_c, 0, 64, 81
1, 291132, Control_c, 0, 64, 86
1, 291147, Control_c, 0, 64, 89
1, 291161, Control_c, 0, 64, 91
1, 291176, Control_c, 0, 64, 94
1, 291188, Note_off_c, 0, 76, 56
1, 291191, Control_c, 0, 64, 97
1, 291206, Control_c, 0, 64, 100
1, 291221, Control_c, 0, 64, 103
1, 291235, Control_c, 0, 64, 106
1, 291250, Control_c, 0, 64, 109
1, 291270, Note_off_c, 0, 70, 61
1, 291309, Control_c, 0, 64, 112
1, 291339, Control_c, 0, 64, 115
1, 291519, Note_on_c, 0, 80, 88
1, 291585, Note_off_c, 0, 73, 58
1, 291629, Control_c, 0, 64, 113
1, 291633, Note_off_c, 0, 79, 54
1, 291821, Control_c, 0, 64, 106
1, 291830, Note_on_c, 0, 82, 90
1, 291836, Control_c, 0, 64, 96
1, 291841, Note_on_c, 0, 77, 71
1, 291841, Note_on_c, 0, 74, 68
1, 291845, Note_on_c, 0, 71, 62
1, 291851, Control_c, 0, 64, 85
1, 291865, Control_c, 0, 64, 74
1, 291868, Note_off_c, 0, 80, 64
1, 291880, Control_c, 0, 64, 65
1, 291895, Control_c, 0, 64, 0
1, 292041, Note_on_c, 0, 80, 85
1, 292042, Note_off_c, 0, 82, 64
1, 292058, Control_c, 0, 64, 64
1, 292073, Control_c, 0, 64, 72
1, 292088, Control_c, 0, 64, 76
1, 292102, Control_c, 0, 64, 81
1, 292117, Control_c, 0, 64, 85
1, 292132, Control_c, 0, 64, 90
1, 292146, Note_off_c, 0, 80, 63
1, 292147, Control_c, 0, 64, 96
1, 292157, Note_on_c, 0, 82, 73
1, 292162, Control_c, 0, 64, 102
1, 292178, Control_c, 0, 64, 109
1, 292193, Control_c, 0, 64, 115
1, 292211, Note_off_c, 0, 82, 59
1, 292214, Control_c, 0, 64, 124
1, 292229, Control_c, 0, 64, 127
1, 292256, Note_on_c, 0, 80, 65
1, 292276, Note_off_c, 0, 80, 67
1, 292317, Note_on_c, 0, 82, 73
1, 292342, Note_off_c, 0, 82, 66
1, 292369, Note_on_c, 0, 80, 61
1, 292402, Note_off_c, 0, 80, 65
1, 292409, Note_off_c, 0, 77, 45
1, 292425, Note_on_c, 0, 82, 56
1, 292452, Note_off_c, 0, 82, 65
1, 292476, Note_on_c, 0, 80, 72
1, 292503, Note_off_c, 0, 80, 64
1, 292529, Note_on_c, 0, 82, 64
1, 292560, Note_off_c, 0, 82, 65
1, 292583, Note_on_c, 0, 80, 69
1, 292610, Note_off_c, 0, 80, 68
1, 292630, Note_on_c, 0, 82, 67
1, 292680, Note_on_c, 0, 80, 71
1, 292698, Note_off_c, 0, 82, 62
1, 292733, Note_off_c, 0, 80, 63
1, 292751, Note_on_c, 0, 79, 67
1, 292753, Note_off_c, 0, 74, 59
1, 292779, Note_off_c, 0, 71, 61
1, 292845, Note_off_c, 0, 79, 54
1, 292849, Note_on_c, 0, 82, 62
1, 292942, Note_off_c, 0, 82, 61
1, 292948, Note_on_c, 0, 80, 61
1, 293038, Control_c, 0, 64, 111
1, 293053, Control_c, 0, 64, 92
1, 293068, Control_c, 0, 64, 76
1, 293083, Control_c, 0, 64, 64
1, 293087, Note_off_c, 0, 80, 58
1, 293098, Control_c, 0, 64, 0
1, 293113, Note_on_c, 0, 60, 38
1, 293122, Note_on_c, 0, 79, 58
1, 293130, Note_on_c, 0, 76, 48
1, 293186, Control_c, 0, 64, 51
1, 293201, Control_c, 0, 64, 73
1, 293216, Control_c, 0, 64, 77
1, 293218, Note_off_c, 0, 60, 54
1, 293231, Control_c, 0, 64, 81
1, 293245, Control_c, 0, 64, 82
1, 293260, Control_c, 0, 64, 84
1, 293272, Note_on_c, 0, 72, 52
1, 293275, Control_c, 0, 64, 85
1, 293290, Control_c, 0, 64, 85
1, 293300, Note_off_c, 0, 72, 54
1, 293305, Control_c, 0, 64, 86
1, 293387, Note_on_c, 0, 72, 64
1, 293394, Control_c, 0, 64, 85
1, 293424, Control_c, 0, 64, 85
1, 293426, Note_off_c, 0, 72, 62
1, 293453, Control_c, 0, 64, 84
1, 293468, Control_c, 0, 64, 83
1, 293482, Control_c, 0, 64, 81
1, 293497, Control_c, 0, 64, 79
1, 293512, Control_c, 0, 64, 76
1, 293519, Note_on_c, 0, 72, 56
1, 293527, Control_c, 0, 64, 74
1, 293542, Control_c, 0, 64, 72
1, 293545, Note_off_c, 0, 72, 56
1, 293556, Control_c, 0, 64, 70
1, 293571, Control_c, 0, 64, 68
1, 293586, Control_c, 0, 64, 66
1, 293601, Control_c, 0, 64, 65
1, 293616, Control_c, 0, 64, 65
1, 293630, Control_c, 0, 64, 64
1, 293632, Note_on_c, 0, 72, 61
1, 293645, Control_c, 0, 64, 63
1, 293650, Note_off_c, 0, 76, 38
1, 293660, Control_c, 0, 64, 55
1, 293661, Note_off_c, 0, 79, 49
1, 293666, Note_off_c, 0, 72, 63
1, 293674, Control_c, 0, 64, 38
1, 293689, Control_c, 0, 64, 0
1, 293759, Note_on_c, 0, 72, 57
1, 293788, Note_off_c, 0, 72, 57
1, 293872, Note_on_c, 0, 72, 59
1, 293908, Note_off_c, 0, 72, 62
1, 293999, Note_on_c, 0, 72, 54
1, 294025, Note_off_c, 0, 72, 55
1, 294113, Note_on_c, 0, 72, 58
1, 294141, Note_off_c, 0, 72, 53
1, 294237, Note_on_c, 0, 72, 48
1, 294266, Note_off_c, 0, 72, 52
1, 294361, Note_on_c, 0, 72, 48
1, 294385, Note_off_c, 0, 72, 54
1, 294489, Note_on_c, 0, 72, 40
1, 294518, Note_off_c, 0, 72, 49
1, 294576, Note_on_c, 0, 80, 54
1, 294591, Note_on_c, 0, 77, 46
1, 294625, Control_c, 0, 64, 23
1, 294640, Control_c, 0, 64, 67
1, 294655, Control_c, 0, 64, 70
1, 294670, Control_c, 0, 64, 71
1, 294684, Control_c, 0, 64, 72
1, 294699, Control_c, 0, 64, 73
1, 294703, Note_on_c, 0, 72, 48
1, 294714, Control_c, 0, 64, 74
1, 294747, Note_off_c, 0, 72, 59
1, 294758, Control_c, 0, 64, 73
1, 294773, Control_c, 0, 64, 72
1, 294788, Control_c, 0, 64, 69
1, 294802, Control_c, 0, 64, 62
1, 294817, Control_c, 0, 64, 0
1, 294825, Note_on_c, 0, 72, 38
1, 294856, Note_off_c, 0, 72, 52
1, 294921, Control_c, 0, 64, 64
1, 294923, Note_on_c, 0, 65, 41
1, 294931, Note_on_c, 0, 68, 32
1, 294935, Control_c, 0, 64, 72
1, 294950, Control_c, 0, 64, 76
1, 294960, Note_off_c, 0, 65, 55
1, 294962, Note_off_c, 0, 68, 47
1, 294965, Control_c, 0, 64, 78
1, 294980, Control_c, 0, 64, 80
1, 294995, Control_c, 0, 64, 81
1, 295009, Control_c, 0, 64, 82
1, 295024, Control_c, 0, 64, 82
1, 295048, Note_on_c, 0, 72, 50
1, 295073, Note_off_c, 0, 72, 56
1, 295073, Note_off_c, 0, 77, 27
1, 295092, Note_off_c, 0, 80, 38
1, 295098, Control_c, 0, 64, 82
1, 295113, Control_c, 0, 64, 81
1, 295127, Control_c, 0, 64, 79
1, 295142, Control_c, 0, 64, 77
1, 295154, Note_on_c, 0, 72, 61
1, 295157, Control_c, 0, 64, 73
1, 295172, Control_c, 0, 64, 69
1, 295177, Note_off_c, 0, 72, 58
1, 295187, Control_c, 0, 64, 66
1, 295209, Control_c, 0, 64, 65
1, 295224, Control_c, 0, 64, 64
1, 295239, Control_c, 0, 64, 0
1, 295277, Note_on_c, 0, 72, 52
1, 295308, Note_off_c, 0, 72, 53
1, 295397, Note_on_c, 0, 72, 60
1, 295421, Note_off_c, 0, 72, 58
1, 295511, Note_on_c, 0, 72, 57
1, 295546, Note_off_c, 0, 72, 60
1, 295628, Note_on_c, 0, 72, 58
1, 295652, Note_off_c, 0, 72, 57
1, 295739, Note_on_c, 0, 72, 59
1, 295779, Note_off_c, 0, 72, 58
1, 295866, Note_on_c, 0, 72, 60
1, 295902, Note_off_c, 0, 72, 61
1, 295965, Note_on_c, 0, 85, 72
1, 295982, Note_on_c, 0, 80, 51
1, 295984, Note_on_c, 0, 77, 51
1, 296003, Control_c, 0, 64, 68
1, 296018, Control_c, 0, 64, 73
1, 296032, Control_c, 0, 64, 75
1, 296047, Control_c, 0, 64, 77
1, 296062, Control_c, 0, 64, 79
1, 296077, Control_c, 0, 64, 82
1, 296087, Note_on_c, 0, 72, 52
1, 296092, Control_c, 0, 64, 84
1, 296107, Control_c, 0, 64, 86
1, 296114, Note_off_c, 0, 72, 55
1, 296122, Control_c, 0, 64, 87
1, 296137, Control_c, 0, 64, 87
1, 296152, Control_c, 0, 64, 89
1, 296166, Control_c, 0, 64, 90
1, 296181, Control_c, 0, 64, 91
1, 296196, Note_on_c, 0, 72, 44
1, 296196, Control_c, 0, 64, 92
1, 296211, Control_c, 0, 64, 93
1, 296221, Note_off_c, 0, 72, 54
1, 296226, Control_c, 0, 64, 94
1, 296241, Control_c, 0, 64, 95
1, 296256, Control_c, 0, 64, 96
1, 296308, Note_on_c, 0, 65, 49
1, 296314, Note_on_c, 0, 68, 48
1, 296315, Control_c, 0, 64, 98
1, 296347, Note_off_c, 0, 65, 52
1, 296363, Note_off_c, 0, 68, 54
1, 296374, Control_c, 0, 64, 100
1, 296420, Note_on_c, 0, 72, 53
1, 296448, Note_off_c, 0, 72, 54
1, 296526, Note_on_c, 0, 72, 53
1, 296560, Note_off_c, 0, 72, 50
1, 296639, Note_on_c, 0, 65, 49
1, 296649, Note_on_c, 0, 68, 44
1, 296694, Note_off_c, 0, 65, 56
1, 296707, Note_off_c, 0, 68, 54
1, 296760, Note_on_c, 0, 72, 52
1, 296788, Note_off_c, 0, 72, 54
1, 296871, Note_on_c, 0, 72, 54
1, 296905, Note_off_c, 0, 72, 49
1, 296992, Note_on_c, 0, 68, 47
1, 296993, Note_on_c, 0, 65, 48
1, 297017, Note_off_c, 0, 85, 58
1, 297035, Note_off_c, 0, 80, 37
1, 297053, Note_off_c, 0, 65, 55
1, 297064, Note_off_c, 0, 77, 39
1, 297109, Note_on_c, 0, 72, 57
1, 297137, Note_off_c, 0, 72, 57
1, 297159, Note_off_c, 0, 68, 34
1, 297230, Note_on_c, 0, 72, 49
1, 297242, Control_c, 0, 64, 91
1, 297256, Note_off_c, 0, 72, 55
1, 297256, Control_c, 0, 64, 76
1, 297271, Control_c, 0, 64, 48
1, 297286, Control_c, 0, 64, 0
1, 297332, Note_on_c, 0, 84, 61
1, 297339, Note_on_c, 0, 79, 54
1, 297341, Note_on_c, 0, 67, 56
1, 297346, Note_on_c, 0, 76, 47
1, 297347, Note_on_c, 0, 64, 46
1, 297375, Control_c, 0, 64, 67
1, 297381, Note_off_c, 0, 67, 64
1, 297390, Control_c, 0, 64, 74
1, 297401, Note_off_c, 0, 64, 60
1, 297404, Control_c, 0, 64, 79
1, 297419, Control_c, 0, 64, 83
1, 297434, Control_c, 0, 64, 85
1, 297456, Control_c, 0, 64, 86
1, 297471, Control_c, 0, 64, 86
1, 297528, Note_on_c, 0, 60, 49
1, 297560, Note_off_c, 0, 60, 51
1, 297619, Control_c, 0, 64, 86
1, 297634, Control_c, 0, 64, 85
1, 297637, Note_on_c, 0, 60, 52
1, 297648, Control_c, 0, 64, 85
1, 297663, Note_off_c, 0, 60, 56
1, 297663, Control_c, 0, 64, 84
1, 297678, Control_c, 0, 64, 83
1, 297693, Control_c, 0, 64, 82
1, 297708, Control_c, 0, 64, 81
1, 297723, Control_c, 0, 64, 79
1, 297737, Control_c, 0, 64, 78
1, 297741, Note_off_c, 0, 84, 27
1, 297751, Note_on_c, 0, 60, 60
1, 297752, Control_c, 0, 64, 76
1, 297767, Note_off_c, 0, 76, 28
1, 297767, Control_c, 0, 64, 74
1, 297783, Control_c, 0, 64, 73
1, 297787, Note_off_c, 0, 60, 59
1, 297798, Control_c, 0, 64, 71
1, 297813, Control_c, 0, 64, 69
1, 297827, Control_c, 0, 64, 68
1, 297832, Note_off_c, 0, 79, 43
1, 297842, Control_c, 0, 64, 66
1, 297857, Control_c, 0, 64, 65
1, 297866, Note_on_c, 0, 60, 61
1, 297872, Control_c, 0, 64, 64
1, 297887, Control_c, 0, 64, 62
1, 297900, Note_off_c, 0, 60, 60
1, 297901, Control_c, 0, 64, 38
1, 297916, Control_c, 0, 64, 0
1, 297979, Note_on_c, 0, 60, 55
1, 298016, Note_off_c, 0, 60, 61
1, 298093, Note_on_c, 0, 60, 61
1, 298128, Note_off_c, 0, 60, 60
1, 298218, Note_on_c, 0, 60, 52
1, 298251, Note_off_c, 0, 60, 57
1, 298340, Note_on_c, 0, 60, 51
1, 298366, Note_off_c, 0, 60, 55
1, 298449, Note_on_c, 0, 79, 58
1, 298458, Note_on_c, 0, 60, 55
1, 298461, Note_on_c, 0, 76, 44
1, 298489, Note_off_c, 0, 60, 60
1, 298572, Note_on_c, 0, 60, 58
1, 298607, Note_off_c, 0, 60, 61
1, 298620, Note_off_c, 0, 76, 52
1, 298650, Note_off_c, 0, 79, 61
1, 298688, Note_on_c, 0, 60, 56
1, 298729, Note_off_c, 0, 60, 60
1, 298740, Note_on_c, 0, 76, 59
1, 298745, Note_on_c, 0, 79, 56
1, 298766, Note_off_c, 0, 79, 62
1, 298774, Note_off_c, 0, 76, 63
1, 298808, Note_on_c, 0, 80, 74
1, 298809, Note_on_c, 0, 60, 64
1, 298812, Note_on_c, 0, 77, 65
1, 298843, Note_off_c, 0, 60, 60
1, 298930, Note_on_c, 0, 60, 55
1, 298979, Note_off_c, 0, 60, 61
1, 299031, Note_off_c, 0, 80, 61
1, 299037, Note_off_c, 0, 77, 50
1, 299067, Note_on_c, 0, 60, 56
1, 299072, Note_on_c, 0, 79, 62
1, 299082, Note_on_c, 0, 76, 51
1, 299094, Note_off_c, 0, 79, 66
1, 299103, Note_off_c, 0, 76, 61
1, 299104, Note_off_c, 0, 60, 59
1, 299190, Note_on_c, 0, 60, 58
1, 299228, Note_off_c, 0, 60, 60
1, 299305, Note_on_c, 0, 60, 58
1, 299335, Note_off_c, 0, 60, 58
1, 299416, Note_on_c, 0, 67, 57
1, 299419, Note_on_c, 0, 64, 55
1, 299420, Note_on_c, 0, 60, 56
1, 299441, Note_off_c, 0, 64, 62
1, 299446, Note_off_c, 0, 67, 65
1, 299455, Note_off_c, 0, 60, 61
1, 299534, Note_on_c, 0, 60, 66
1, 299571, Note_off_c, 0, 60, 58
1, 299643, Note_on_c, 0, 60, 55
1, 299668, Note_off_c, 0, 60, 58
1, 299762, Note_on_c, 0, 60, 51
1, 299764, Note_on_c, 0, 55, 61
1, 299769, Note_on_c, 0, 52, 57
1, 299791, Note_off_c, 0, 60, 56
1, 299794, Note_off_c, 0, 52, 54
1, 299794, Note_off_c, 0, 55, 64
1, 299865, Note_on_c, 0, 55, 64
1, 299874, Note_on_c, 0, 58, 59
1, 299881, Control_c, 0, 64, 64
1, 299896, Control_c, 0, 64, 72
1, 299905, Note_off_c, 0, 58, 63
1, 299908, Note_off_c, 0, 55, 64
1, 299911, Control_c, 0, 64, 78
1, 299925, Control_c, 0, 64, 83
1, 299940, Control_c, 0, 64, 87
1, 299955, Control_c, 0, 64, 89
1, 299970, Control_c, 0, 64, 90
1, 299977, Note_on_c, 0, 60, 63
1, 300021, Note_off_c, 0, 60, 61
1, 300087, Control_c, 0, 64, 90
1, 300095, Note_on_c, 0, 60, 59
1, 300102, Control_c, 0, 64, 89
1, 300117, Control_c, 0, 64, 87
1, 300131, Control_c, 0, 64, 82
1, 300132, Note_off_c, 0, 60, 57
1, 300142, Note_on_c, 0, 79, 71
1, 300146, Control_c, 0, 64, 74
1, 300153, Note_on_c, 0, 76, 57
1, 300161, Control_c, 0, 64, 65
1, 300167, Note_off_c, 0, 79, 67
1, 300177, Control_c, 0, 64, 0
1, 300187, Note_off_c, 0, 76, 62
1, 300218, Note_on_c, 0, 60, 62
1, 300220, Note_on_c, 0, 79, 76
1, 300223, Note_on_c, 0, 82, 79
1, 300259, Note_off_c, 0, 60, 61
1, 300361, Note_on_c, 0, 60, 56
1, 300387, Note_off_c, 0, 60, 60
1, 300476, Note_on_c, 0, 60, 61
1, 300480, Note_off_c, 0, 82, 62
1, 300485, Note_on_c, 0, 80, 64
1, 300487, Note_on_c, 0, 77, 57
1, 300493, Note_off_c, 0, 79, 62
1, 300513, Note_off_c, 0, 77, 61
1, 300514, Note_off_c, 0, 80, 67
1, 300516, Note_off_c, 0, 60, 58
1, 300609, Note_on_c, 0, 60, 55
1, 300646, Note_off_c, 0, 60, 61
1, 300726, Note_on_c, 0, 60, 58
1, 300760, Note_off_c, 0, 60, 61
1, 300838, Note_on_c, 0, 65, 57
1, 300843, Note_on_c, 0, 68, 57
1, 300844, Note_on_c, 0, 60, 58
1, 300860, Note_off_c, 0, 65, 64
1, 300874, Note_off_c, 0, 68, 64
1, 300882, Note_off_c, 0, 60, 58
1, 300960, Note_on_c, 0, 60, 61
1, 301000, Note_off_c, 0, 60, 58
1, 301076, Note_on_c, 0, 60, 57
1, 301111, Note_off_c, 0, 60, 60
1, 301184, Note_on_c, 0, 53, 59
1, 301185, Note_on_c, 0, 56, 56
1, 301200, Note_on_c, 0, 60, 52
1, 301215, Note_off_c, 0, 53, 61
1, 301226, Note_off_c, 0, 56, 64
1, 301228, Note_off_c, 0, 60, 57
1, 301292, Note_on_c, 0, 53, 57
1, 301302, Note_on_c, 0, 56, 57
1, 301333, Control_c, 0, 64, 72
1, 301340, Note_off_c, 0, 53, 61
1, 301343, Note_off_c, 0, 56, 64
1, 301348, Control_c, 0, 64, 77
1, 301363, Control_c, 0, 64, 81
1, 301377, Control_c, 0, 64, 83
1, 301392, Control_c, 0, 64, 84
1, 301407, Control_c, 0, 64, 85
1, 301421, Note_on_c, 0, 60, 53
1, 301455, Note_off_c, 0, 60, 59
1, 301531, Note_on_c, 0, 60, 56
1, 301541, Control_c, 0, 64, 85
1, 301553, Note_off_c, 0, 60, 59
1, 301569, Control_c, 0, 64, 84
1, 301591, Note_on_c, 0, 80, 68
1, 301595, Note_on_c, 0, 77, 59
1, 301599, Control_c, 0, 64, 84
1, 301616, Note_off_c, 0, 80, 67
1, 301620, Note_off_c, 0, 77, 57
1, 301628, Control_c, 0, 64, 83
1, 301643, Control_c, 0, 64, 82
1, 301658, Control_c, 0, 64, 82
1, 301673, Control_c, 0, 64, 81
1, 301688, Control_c, 0, 64, 80
1, 301702, Control_c, 0, 64, 76
1, 301717, Control_c, 0, 64, 70
1, 301732, Control_c, 0, 64, 55
1, 301741, Note_on_c, 0, 85, 80
1, 301747, Control_c, 0, 64, 0
1, 301750, Note_on_c, 0, 77, 53
1, 301756, Note_on_c, 0, 80, 46
1, 301866, Control_c, 0, 64, 60
1, 301881, Control_c, 0, 64, 69
1, 301889, Note_on_c, 0, 60, 55
1, 301896, Control_c, 0, 64, 74
1, 301911, Control_c, 0, 64, 77
1, 301926, Control_c, 0, 64, 81
1, 301930, Note_off_c, 0, 60, 56
1, 301948, Control_c, 0, 64, 83
1, 301963, Control_c, 0, 64, 84
1, 301978, Control_c, 0, 64, 86
1, 301993, Control_c, 0, 64, 87
1, 302007, Control_c, 0, 64, 88
1, 302022, Control_c, 0, 64, 89
1, 302037, Control_c, 0, 64, 89
1, 302039, Poly_aftertouch_c, 0, 60, 0
1, 302051, Control_c, 0, 64, 90
1, 302066, Control_c, 0, 64, 91
1, 302081, Control_c, 0, 64, 91
1, 302096, Control_c, 0, 64, 92
1, 302111, Control_c, 0, 64, 92
1, 302125, Control_c, 0, 64, 93
1, 302133, Note_on_c, 0, 53, 40
1, 302135, Note_on_c, 0, 56, 41
1, 302140, Control_c, 0, 64, 93
1, 302155, Control_c, 0, 64, 95
1, 302170, Control_c, 0, 64, 96
1, 302180, Note_off_c, 0, 56, 47
1, 302181, Note_off_c, 0, 53, 47
1, 302200, Control_c, 0, 64, 98
1, 302236, Note_on_c, 0, 60, 48
1, 302259, Control_c, 0, 64, 100
1, 302265, Note_off_c, 0, 60, 54
1, 302289, Control_c, 0, 64, 103
1, 302345, Note_on_c, 0, 60, 50
1, 302362, Control_c, 0, 64, 105
1, 302373, Note_off_c, 0, 60, 53
1, 302459, Note_on_c, 0, 56, 42
1, 302470, Note_on_c, 0, 53, 37
1, 302525, Note_off_c, 0, 53, 46
1, 302581, Note_on_c, 0, 60, 50
1, 302602, Note_off_c, 0, 56, 25
1, 302614, Note_off_c, 0, 60, 51
1, 302682, Note_on_c, 0, 60, 50
1, 302725, Note_off_c, 0, 77, 37
1, 302727, Control_c, 0, 64, 107
1, 302733, Note_off_c, 0, 60, 50
1, 302814, Note_on_c, 0, 53, 45
1, 302814, Note_on_c, 0, 56, 37
1, 302869, Note_off_c, 0, 53, 52
1, 302880, Note_off_c, 0, 80, 35
1, 302912, Note_off_c, 0, 56, 0
1, 302936, Note_on_c, 0, 60, 35
1, 302948, Poly_aftertouch_c, 0, 56, 127
1, 302952, Note_off_c, 0, 85, 52
1, 302965, Note_off_c, 0, 60, 52
1, 303055, Note_on_c, 0, 60, 49
1, 303085, Note_off_c, 0, 60, 52
1, 303094, Poly_aftertouch_c, 0, 56, 0
1, 303186, Control_c, 0, 64, 99
1, 303201, Control_c, 0, 64, 87
1, 303216, Control_c, 0, 64, 73
1, 303220, Note_on_c, 0, 84, 54
1, 303221, Note_on_c, 0, 79, 44
1, 303228, Note_on_c, 0, 76, 44
1, 303231, Control_c, 0, 64, 0
1, 303335, Control_c, 0, 64, 66
1, 303342, Note_on_c, 0, 60, 44
1, 303349, Control_c, 0, 64, 70
1, 303365, Control_c, 0, 64, 72
1, 303373, Note_off_c, 0, 60, 53
1, 303380, Control_c, 0, 64, 74
1, 303395, Control_c, 0, 64, 76
1, 303410, Control_c, 0, 64, 77
1, 303424, Control_c, 0, 64, 79
1, 303446, Control_c, 0, 64, 82
1, 303455, Note_on_c, 0, 60, 50
1, 303461, Control_c, 0, 64, 85
1, 303476, Control_c, 0, 64, 87
1, 303491, Control_c, 0, 64, 88
1, 303513, Note_off_c, 0, 60, 41
1, 303535, Control_c, 0, 64, 87
1, 303540, Note_off_c, 0, 84, 62
1, 303550, Control_c, 0, 64, 84
1, 303565, Control_c, 0, 64, 79
1, 303580, Control_c, 0, 64, 75
1, 303589, Note_on_c, 0, 52, 36
1, 303589, Note_off_c, 0, 79, 61
1, 303590, Note_on_c, 0, 55, 35
1, 303595, Control_c, 0, 64, 71
1, 303610, Note_off_c, 0, 76, 52
1, 303624, Control_c, 0, 64, 72
1, 303639, Control_c, 0, 64, 74
1, 303654, Control_c, 0, 64, 75
1, 303669, Control_c, 0, 64, 77
1, 303675, Note_off_c, 0, 55, 0
1, 303684, Control_c, 0, 64, 78
1, 303698, Control_c, 0, 64, 79
1, 303705, Note_on_c, 0, 60, 37
1, 303711, Poly_aftertouch_c, 0, 55, 127
1, 303713, Control_c, 0, 64, 80
1, 303728, Control_c, 0, 64, 81
1, 303739, Note_off_c, 0, 60, 50
1, 303743, Control_c, 0, 64, 82
1, 303762, Note_off_c, 0, 52, 19
1, 303772, Control_c, 0, 64, 82
1, 303787, Control_c, 0, 64, 83
1, 303802, Control_c, 0, 64, 83
1, 303806, Poly_aftertouch_c, 0, 55, 0
1, 303816, Note_on_c, 0, 60, 50
1, 303816, Control_c, 0, 64, 84
1, 303860, Note_off_c, 0, 60, 47
1, 303861, Control_c, 0, 64, 84
1, 303876, Control_c, 0, 64, 85
1, 303890, Control_c, 0, 64, 85
1, 303935, Control_c, 0, 64, 84
1, 303950, Control_c, 0, 64, 79
1, 303959, Note_on_c, 0, 72, 58
1, 303965, Control_c, 0, 64, 72
1, 303971, Note_on_c, 0, 63, 46
1, 303974, Note_on_c, 0, 66, 41
1, 303979, Control_c, 0, 64, 64
1, 303994, Control_c, 0, 64, 0
1, 304084, Control_c, 0, 64, 65
1, 304088, Note_on_c, 0, 60, 34
1, 304099, Control_c, 0, 64, 68
1, 304114, Control_c, 0, 64, 70
1, 304126, Note_off_c, 0, 60, 45
1, 304129, Control_c, 0, 64, 73
1, 304143, Control_c, 0, 64, 76
1, 304159, Control_c, 0, 64, 78
1, 304174, Control_c, 0, 64, 79
1, 304196, Control_c, 0, 64, 80
1, 304199, Note_on_c, 0, 60, 35
1, 304211, Control_c, 0, 64, 82
1, 304226, Control_c, 0, 64, 83
1, 304241, Control_c, 0, 64, 84
1, 304250, Note_off_c, 0, 60, 42
1, 304285, Control_c, 0, 64, 83
1, 304300, Control_c, 0, 64, 82
1, 304315, Control_c, 0, 64, 80
1, 304329, Control_c, 0, 64, 78
1, 304331, Note_on_c, 0, 54, 29
1, 304344, Control_c, 0, 64, 76
1, 304353, Note_on_c, 0, 51, 27
1, 304373, Control_c, 0, 64, 77
1, 304378, Note_off_c, 0, 72, 52
1, 304403, Control_c, 0, 64, 77
1, 304418, Control_c, 0, 64, 78
1, 304433, Control_c, 0, 64, 79
1, 304442, Note_off_c, 0, 66, 55
1, 304447, Control_c, 0, 64, 79
1, 304462, Control_c, 0, 64, 80
1, 304468, Note_on_c, 0, 60, 36
1, 304492, Note_off_c, 0, 63, 36
1, 304492, Control_c, 0, 64, 80
1, 304502, Note_off_c, 0, 60, 49
1, 304522, Control_c, 0, 64, 81
1, 304537, Control_c, 0, 64, 81
1, 304552, Control_c, 0, 64, 82
1, 304561, Note_off_c, 0, 54, 33
1, 304566, Control_c, 0, 64, 82
1, 304577, Note_off_c, 0, 51, 36
1, 304584, Note_on_c, 0, 60, 40
1, 304596, Control_c, 0, 64, 83
1, 304617, Note_off_c, 0, 60, 49
1, 304670, Control_c, 0, 64, 81
1, 304685, Control_c, 0, 64, 77
1, 304700, Control_c, 0, 64, 70
1, 304701, Note_on_c, 0, 71, 44
1, 304704, Note_on_c, 0, 62, 43
1, 304708, Note_on_c, 0, 65, 36
1, 304714, Control_c, 0, 64, 62
1, 304729, Control_c, 0, 64, 0
1, 304803, Control_c, 0, 64, 64
1, 304818, Control_c, 0, 64, 66
1, 304826, Note_on_c, 0, 60, 40
1, 304833, Control_c, 0, 64, 68
1, 304847, Control_c, 0, 64, 70
1, 304861, Note_off_c, 0, 60, 48
1, 304862, Control_c, 0, 64, 71
1, 304877, Control_c, 0, 64, 73
1, 304892, Control_c, 0, 64, 76
1, 304907, Control_c, 0, 64, 78
1, 304921, Control_c, 0, 64, 80
1, 304943, Note_on_c, 0, 60, 38
1, 304944, Control_c, 0, 64, 80
1, 304989, Control_c, 0, 64, 80
1, 305004, Control_c, 0, 64, 79
1, 305019, Control_c, 0, 64, 76
1, 305026, Note_off_c, 0, 60, 33
1, 305034, Control_c, 0, 64, 72
1, 305049, Control_c, 0, 64, 69
1, 305053, Note_off_c, 0, 71, 42
1, 305062, Note_on_c, 0, 53, 35
1, 305064, Control_c, 0, 64, 68
1, 305068, Note_off_c, 0, 62, 54
1, 305070, Note_on_c, 0, 50, 39
1, 305093, Control_c, 0, 64, 68
1, 305108, Control_c, 0, 64, 69
1, 305112, Note_off_c, 0, 65, 57
1, 305123, Control_c, 0, 64, 70
1, 305138, Control_c, 0, 64, 71
1, 305152, Control_c, 0, 64, 72
1, 305167, Control_c, 0, 64, 74
1, 305182, Control_c, 0, 64, 75
1, 305196, Control_c, 0, 64, 76
1, 305206, Note_on_c, 0, 60, 27
1, 305211, Control_c, 0, 64, 76
1, 305226, Control_c, 0, 64, 77
1, 305255, Note_off_c, 0, 60, 44
1, 305256, Control_c, 0, 64, 77
1, 305270, Control_c, 0, 64, 78
1, 305285, Control_c, 0, 64, 79
1, 305305, Note_off_c, 0, 53, 36
1, 305315, Control_c, 0, 64, 79
1, 305321, Note_off_c, 0, 50, 22
1, 305348, Note_on_c, 0, 60, 26
1, 305391, Note_off_c, 0, 60, 38
1, 305418, Control_c, 0, 64, 78
1, 305433, Control_c, 0, 64, 74
1, 305448, Control_c, 0, 64, 69
1, 305458, Note_on_c, 0, 70, 37
1, 305462, Control_c, 0, 64, 64
1, 305466, Note_on_c, 0, 65, 37
1, 305477, Control_c, 0, 64, 56
1, 305481, Note_on_c, 0, 61, 30
1, 305492, Control_c, 0, 64, 54
1, 305507, Control_c, 0, 64, 56
1, 305521, Control_c, 0, 64, 58
1, 305536, Control_c, 0, 64, 62
1, 305551, Control_c, 0, 64, 64
1, 305566, Control_c, 0, 64, 66
1, 305581, Control_c, 0, 64, 68
1, 305595, Control_c, 0, 64, 69
1, 305601, Note_on_c, 0, 60, 34
1, 305610, Control_c, 0, 64, 70
1, 305625, Control_c, 0, 64, 72
1, 305637, Note_off_c, 0, 60, 44
1, 305640, Control_c, 0, 64, 73
1, 305655, Control_c, 0, 64, 75
1, 305670, Control_c, 0, 64, 77
1, 305692, Control_c, 0, 64, 77
1, 305707, Control_c, 0, 64, 78
1, 305720, Note_on_c, 0, 60, 30
1, 305721, Control_c, 0, 64, 78
1, 305736, Control_c, 0, 64, 79
1, 305751, Control_c, 0, 64, 79
1, 305768, Note_off_c, 0, 60, 43
1, 305797, Control_c, 0, 64, 80
1, 305840, Note_on_c, 0, 53, 31
1, 305851, Note_on_c, 0, 49, 34
1, 305856, Control_c, 0, 64, 80
1, 305945, Control_c, 0, 64, 81
1, 305986, Note_off_c, 0, 61, 39
1, 306015, Note_off_c, 0, 65, 30
1, 306016, Note_on_c, 0, 60, 12
1, 306033, Note_off_c, 0, 70, 36
1, 306067, Note_off_c, 0, 60, 33
1, 306132, Note_off_c, 0, 49, 18
1, 306149, Note_on_c, 0, 60, 39
1, 306185, Note_off_c, 0, 60, 56
1, 306205, Note_off_c, 0, 53, 12
1, 306272, Control_c, 0, 64, 80
1, 306360, Control_c, 0, 64, 80
1, 306405, Control_c, 0, 64, 79
1, 306419, Control_c, 0, 64, 79
1, 306442, Control_c, 0, 64, 78
1, 306449, Note_on_c, 0, 68, 36
1, 306451, Note_on_c, 0, 60, 31
1, 306457, Control_c, 0, 64, 76
1, 306466, Note_on_c, 0, 65, 30
1, 306472, Control_c, 0, 64, 75
1, 306486, Control_c, 0, 64, 73
1, 306501, Control_c, 0, 64, 71
1, 306516, Control_c, 0, 64, 70
1, 306531, Control_c, 0, 64, 70
1, 306545, Control_c, 0, 64, 69
1, 306560, Control_c, 0, 64, 69
1, 306576, Control_c, 0, 64, 68
1, 306591, Control_c, 0, 64, 67
1, 306603, Note_on_c, 0, 48, 42
1, 306606, Control_c, 0, 64, 66
1, 306634, Note_off_c, 0, 48, 57
1, 306635, Control_c, 0, 64, 65
1, 306650, Control_c, 0, 64, 65
1, 306665, Control_c, 0, 64, 64
1, 306680, Control_c, 0, 64, 62
1, 306695, Control_c, 0, 64, 51
1, 306710, Control_c, 0, 64, 23
1, 306724, Control_c, 0, 64, 0
1, 306728, Note_on_c, 0, 48, 41
1, 306759, Note_off_c, 0, 48, 49
1, 306841, Note_on_c, 0, 48, 45
1, 306869, Note_off_c, 0, 48, 57
1, 306961, Note_on_c, 0, 48, 49
1, 306990, Note_off_c, 0, 48, 57
1, 307094, Note_on_c, 0, 48, 42
1, 307123, Note_off_c, 0, 48, 50
1, 307217, Note_on_c, 0, 48, 45
1, 307245, Note_off_c, 0, 48, 55
1, 307345, Note_on_c, 0, 48, 41
1, 307354, Note_off_c, 0, 68, 55
1, 307373, Note_off_c, 0, 60, 41
1, 307377, Note_off_c, 0, 48, 47
1, 307377, Note_off_c, 0, 65, 51
1, 307466, Note_on_c, 0, 48, 40
1, 307496, Note_off_c, 0, 48, 49
1, 307597, Note_on_c, 0, 48, 37
1, 307628, Note_off_c, 0, 48, 46
1, 307713, Note_on_c, 0, 48, 40
1, 307747, Note_off_c, 0, 48, 52
1, 307849, Note_on_c, 0, 48, 46
1, 307876, Note_off_c, 0, 48, 56
1, 308013, Note_on_c, 0, 55, 40
1, 308024, Note_on_c, 0, 52, 38
1, 308026, Poly_aftertouch_c, 0, 48, 127
1, 308034, Note_on_c, 0, 46, 21
1, 308043, Control_c, 0, 64, 54
1, 308058, Control_c, 0, 64, 63
1, 308072, Control_c, 0, 64, 64
1, 308087, Control_c, 0, 64, 66
1, 308102, Control_c, 0, 64, 67
1, 308117, Control_c, 0, 64, 69
1, 308132, Control_c, 0, 64, 70
1, 308147, Control_c, 0, 64, 71
1, 308147, Note_on_c, 0, 36, 53
1, 308162, Control_c, 0, 64, 71
1, 308177, Control_c, 0, 64, 72
1, 308187, Note_off_c, 0, 36, 61
1, 308192, Control_c, 0, 64, 73
1, 308207, Control_c, 0, 64, 73
1, 308287, Note_on_c, 0, 36, 43
1, 308317, Note_off_c, 0, 36, 46
1, 308326, Control_c, 0, 64, 73
1, 308355, Control_c, 0, 64, 72
1, 308370, Control_c, 0, 64, 71
1, 308385, Control_c, 0, 64, 70
1, 308397, Note_on_c, 0, 36, 51
1, 308400, Control_c, 0, 64, 69
1, 308414, Control_c, 0, 64, 68
1, 308429, Control_c, 0, 64, 67
1, 308438, Note_off_c, 0, 36, 60
1, 308444, Control_c, 0, 64, 66
1, 308459, Control_c, 0, 64, 66
1, 308474, Control_c, 0, 64, 65
1, 308488, Control_c, 0, 64, 65
1, 308503, Control_c, 0, 64, 64
1, 308518, Control_c, 0, 64, 64
1, 308532, Note_on_c, 0, 36, 52
1, 308532, Control_c, 0, 64, 63
1, 308547, Control_c, 0, 64, 57
1, 308562, Control_c, 0, 64, 46
1, 308569, Note_off_c, 0, 36, 58
1, 308577, Control_c, 0, 64, 13
1, 308592, Control_c, 0, 64, 0
1, 308662, Note_on_c, 0, 36, 49
1, 308708, Note_off_c, 0, 36, 57
1, 308799, Note_on_c, 0, 36, 48
1, 308823, Note_off_c, 0, 55, 52
1, 308833, Note_off_c, 0, 46, 52
1, 308841, Note_off_c, 0, 36, 57
1, 308853, Note_off_c, 0, 52, 36
1, 308865, Poly_aftertouch_c, 0, 48, 0
1, 308936, Note_on_c, 0, 36, 44
1, 308971, Note_off_c, 0, 36, 54
1, 309077, Note_on_c, 0, 36, 46
1, 309111, Note_off_c, 0, 36, 53
1, 309220, Note_on_c, 0, 36, 47
1, 309268, Note_off_c, 0, 36, 53
1, 309377, Note_on_c, 0, 36, 38
1, 309439, Note_off_c, 0, 36, 54
1, 309572, Note_on_c, 0, 36, 28
1, 309771, Note_off_c, 0, 36, 33
1, 309875, Note_on_c, 0, 29, 29
1, 310046, Control_c, 0, 64, 62
1, 310060, Control_c, 0, 64, 65
1, 310075, Control_c, 0, 64, 68
1, 310090, Control_c, 0, 64, 70
1, 310104, Control_c, 0, 64, 72
1, 310119, Control_c, 0, 64, 74
1, 310134, Control_c, 0, 64, 77
1, 310149, Control_c, 0, 64, 79
1, 310164, Control_c, 0, 64, 81
1, 310186, Control_c, 0, 64, 82
1, 310201, Control_c, 0, 64, 84
1, 310216, Control_c, 0, 64, 86
1, 310230, Control_c, 0, 64, 88
1, 310245, Control_c, 0, 64, 89
1, 310260, Control_c, 0, 64, 91
1, 310272, Note_on_c, 0, 36, 23
1, 310275, Control_c, 0, 64, 91
1, 310278, Note_on_c, 0, 41, 29
1, 310290, Control_c, 0, 64, 93
1, 310290, Note_off_c, 0, 29, 33
1, 310293, Note_on_c, 0, 33, 17
1, 310305, Control_c, 0, 64, 95
1, 310319, Control_c, 0, 64, 97
1, 310349, Control_c, 0, 64, 99
1, 310379, Control_c, 0, 64, 101
1, 310382, Note_off_c, 0, 41, 39
1, 310393, Control_c, 0, 64, 103
1, 310408, Control_c, 0, 64, 105
1, 310412, Note_off_c, 0, 33, 31
1, 310425, Note_on_c, 0, 29, 47
1, 310438, Control_c, 0, 64, 108
1, 310449, Note_off_c, 0, 36, 20
1, 310467, Control_c, 0, 64, 111
1, 310482, Control_c, 0, 64, 113
1, 310497, Control_c, 0, 64, 115
1, 310502, Note_off_c, 0, 29, 53
1, 310549, Note_on_c, 0, 36, 15
1, 310567, Note_on_c, 0, 41, 34
1, 310588, Note_on_c, 0, 33, 25
1, 310628, Note_off_c, 0, 33, 50
1, 310642, Note_off_c, 0, 41, 50
1, 310670, Note_on_c, 0, 29, 40
1, 310672, Note_off_c, 0, 36, 37
1, 310758, Note_off_c, 0, 29, 55
1, 310796, Note_on_c, 0, 41, 38
1, 310797, Note_on_c, 0, 33, 27
1, 310799, Note_on_c, 0, 36, 31
1, 310883, Note_off_c, 0, 41, 49
1, 310884, Note_off_c, 0, 33, 52
1, 310888, Note_off_c, 0, 36, 51
1, 310915, Note_on_c, 0, 29, 46
1, 311021, Note_off_c, 0, 29, 57
1, 311047, Note_on_c, 0, 41, 45
1, 311062, Note_on_c, 0, 36, 30
1, 311069, Note_on_c, 0, 33, 38
1, 311129, Note_off_c, 0, 33, 54
1, 311137, Note_off_c, 0, 41, 36
1, 311140, Note_off_c, 0, 36, 40
1, 311173, Note_on_c, 0, 29, 47
1, 311281, Note_off_c, 0, 29, 54
1, 311304, Note_on_c, 0, 33, 29
1, 311309, Note_on_c, 0, 57, 51
1, 311315, Note_on_c, 0, 45, 45
1, 311315, Note_on_c, 0, 41, 34
1, 311318, Note_on_c, 0, 36, 27
1, 311380, Control_c, 0, 64, 113
1, 311403, Note_off_c, 0, 41, 45
1, 311408, Note_off_c, 0, 45, 62
1, 311419, Note_on_c, 0, 29, 41
1, 311420, Note_off_c, 0, 36, 42
1, 311424, Control_c, 0, 64, 111
1, 311439, Control_c, 0, 64, 106
1, 311448, Note_off_c, 0, 33, 30
1, 311454, Control_c, 0, 64, 100
1, 311458, Note_off_c, 0, 57, 63
1, 311469, Control_c, 0, 64, 96
1, 311484, Control_c, 0, 64, 94
1, 311498, Control_c, 0, 64, 94
1, 311534, Note_off_c, 0, 29, 56
1, 311574, Poly_aftertouch_c, 0, 33, 127
1, 311579, Note_on_c, 0, 41, 34
1, 311580, Note_on_c, 0, 36, 8
1, 311605, Note_on_c, 0, 48, 26
1, 311615, Note_on_c, 0, 60, 55
1, 311645, Note_off_c, 0, 48, 49
1, 311684, Note_off_c, 0, 41, 31
1, 311694, Note_off_c, 0, 60, 59
1, 311710, Note_on_c, 0, 29, 43
1, 311724, Poly_aftertouch_c, 0, 33, 0
1, 311743, Control_c, 0, 64, 93
1, 311757, Control_c, 0, 64, 90
1, 311769, Note_off_c, 0, 36, 18
1, 311772, Control_c, 0, 64, 86
1, 311778, Note_on_c, 0, 65, 60
1, 311787, Control_c, 0, 64, 82
1, 311802, Note_on_c, 0, 53, 43
1, 311802, Control_c, 0, 64, 79
1, 311817, Control_c, 0, 64, 78
1, 311831, Control_c, 0, 64, 77
1, 311861, Control_c, 0, 64, 77
1, 311864, Note_off_c, 0, 29, 58
1, 311876, Control_c, 0, 64, 76
1, 311897, Note_on_c, 0, 36, 26
1, 311902, Note_on_c, 0, 41, 36
1, 311906, Control_c, 0, 64, 76
1, 311936, Control_c, 0, 64, 77
1, 311949, Note_off_c, 0, 53, 58
1, 311950, Control_c, 0, 64, 78
1, 311953, Poly_aftertouch_c, 0, 33, 127
1, 311965, Control_c, 0, 64, 79
1, 311980, Control_c, 0, 64, 79
1, 311990, Note_off_c, 0, 41, 39
1, 311993, Poly_aftertouch_c, 0, 33, 0
1, 311995, Control_c, 0, 64, 80
1, 312006, Note_off_c, 0, 36, 52
1, 312016, Note_on_c, 0, 29, 43
1, 312025, Control_c, 0, 64, 80
1, 312039, Control_c, 0, 64, 81
1, 312054, Control_c, 0, 64, 82
1, 312069, Control_c, 0, 64, 82
1, 312083, Control_c, 0, 64, 83
1, 312125, Note_off_c, 0, 29, 57
1, 312128, Control_c, 0, 64, 83
1, 312159, Control_c, 0, 64, 84
1, 312168, Note_on_c, 0, 69, 54
1, 312174, Control_c, 0, 64, 84
1, 312174, Note_on_c, 0, 41, 33
1, 312181, Note_on_c, 0, 57, 41
1, 312183, Note_on_c, 0, 36, 34
1, 312203, Control_c, 0, 64, 85
1, 312205, Note_off_c, 0, 65, 39
1, 312221, Poly_aftertouch_c, 0, 33, 127
1, 312240, Note_off_c, 0, 36, 52
1, 312263, Note_off_c, 0, 41, 35
1, 312265, Poly_aftertouch_c, 0, 33, 0
1, 312276, Note_off_c, 0, 57, 53
1, 312287, Note_on_c, 0, 29, 42
1, 312320, Note_off_c, 0, 69, 58
1, 312353, Note_off_c, 0, 29, 54
1, 312395, Control_c, 0, 64, 85
1, 312408, Note_on_c, 0, 36, 35
1, 312439, Note_on_c, 0, 65, 53
1, 312448, Control_c, 0, 64, 86
1, 312453, Note_on_c, 0, 41, 32
1, 312463, Note_on_c, 0, 53, 21
1, 312463, Note_off_c, 0, 65, 59
1, 312477, Control_c, 0, 64, 84
1, 312492, Control_c, 0, 64, 79
1, 312502, Note_off_c, 0, 41, 43
1, 312503, Note_off_c, 0, 53, 42
1, 312506, Control_c, 0, 64, 71
1, 312514, Note_off_c, 0, 36, 52
1, 312521, Control_c, 0, 64, 59
1, 312530, Note_on_c, 0, 64, 57
1, 312536, Control_c, 0, 64, 0
1, 312542, Note_on_c, 0, 52, 53
1, 312547, Note_on_c, 0, 31, 45
1, 312640, Control_c, 0, 64, 53
1, 312654, Control_c, 0, 64, 67
1, 312668, Note_off_c, 0, 31, 49
1, 312669, Control_c, 0, 64, 71
1, 312684, Note_on_c, 0, 36, 35
1, 312684, Control_c, 0, 64, 74
1, 312688, Note_on_c, 0, 43, 41
1, 312699, Control_c, 0, 64, 77
1, 312705, Note_on_c, 0, 34, 32
1, 312714, Control_c, 0, 64, 79
1, 312726, Note_off_c, 0, 52, 58
1, 312728, Control_c, 0, 64, 80
1, 312743, Control_c, 0, 64, 81
1, 312756, Note_off_c, 0, 34, 48
1, 312758, Control_c, 0, 64, 82
1, 312770, Note_off_c, 0, 36, 55
1, 312779, Note_off_c, 0, 43, 48
1, 312803, Control_c, 0, 64, 82
1, 312811, Note_on_c, 0, 31, 41
1, 312818, Control_c, 0, 64, 83
1, 312832, Control_c, 0, 64, 84
1, 312847, Control_c, 0, 64, 84
1, 312862, Control_c, 0, 64, 85
1, 312877, Control_c, 0, 64, 85
1, 312892, Control_c, 0, 64, 86
1, 312906, Control_c, 0, 64, 86
1, 312921, Control_c, 0, 64, 87
1, 312936, Note_off_c, 0, 31, 35
1, 312936, Control_c, 0, 64, 87
1, 312943, Note_on_c, 0, 36, 32
1, 312945, Note_on_c, 0, 67, 56
1, 312946, Note_on_c, 0, 43, 37
1, 312952, Control_c, 0, 64, 88
1, 312955, Note_on_c, 0, 55, 46
1, 312958, Note_on_c, 0, 34, 18
1, 312967, Control_c, 0, 64, 88
1, 312982, Control_c, 0, 64, 89
1, 312995, Note_off_c, 0, 64, 54
1, 312997, Control_c, 0, 64, 89
1, 313008, Note_off_c, 0, 34, 47
1, 313012, Note_off_c, 0, 36, 52
1, 313058, Note_on_c, 0, 31, 41
1, 313074, Note_off_c, 0, 43, 27
1, 313084, Note_off_c, 0, 55, 60
1, 313109, Note_off_c, 0, 67, 54
1, 313165, Note_on_c, 0, 34, 37
1, 313167, Note_off_c, 0, 31, 56
1, 313193, Note_on_c, 0, 36, 14
1, 313193, Note_on_c, 0, 43, 34
1, 313214, Note_off_c, 0, 34, 61
1, 313234, Note_off_c, 0, 36, 29
1, 313258, Note_on_c, 0, 52, 48
1, 313258, Note_on_c, 0, 64, 48
1, 313305, Note_off_c, 0, 52, 47
1, 313329, Control_c, 0, 64, 89
1, 313340, Note_off_c, 0, 43, 30
1, 313389, Control_c, 0, 64, 88
1, 313403, Control_c, 0, 64, 88
1, 313418, Control_c, 0, 64, 86
1, 313433, Control_c, 0, 64, 82
1, 313447, Control_c, 0, 64, 75
1, 313462, Control_c, 0, 64, 68
1, 313474, Note_on_c, 0, 33, 40
1, 313475, Note_on_c, 0, 65, 55
1, 313477, Control_c, 0, 64, 57
1, 313487, Note_on_c, 0, 53, 45
1, 313492, Control_c, 0, 64, 0
1, 313498, Note_off_c, 0, 64, 57
1, 313625, Control_c, 0, 64, 65
1, 313635, Note_on_c, 0, 41, 36
1, 313635, Note_on_c, 0, 45, 36
1, 313640, Control_c, 0, 64, 69
1, 313645, Note_off_c, 0, 33, 40
1, 313646, Note_on_c, 0, 36, 29
1, 313654, Control_c, 0, 64, 74
1, 313669, Control_c, 0, 64, 77
1, 313670, Note_off_c, 0, 65, 64
1, 313684, Control_c, 0, 64, 80
1, 313699, Control_c, 0, 64, 82
1, 313705, Note_off_c, 0, 36, 43
1, 313709, Note_off_c, 0, 53, 63
1, 313714, Control_c, 0, 64, 84
1, 313715, Note_off_c, 0, 45, 49
1, 313728, Control_c, 0, 64, 86
1, 313743, Control_c, 0, 64, 87
1, 313754, Note_off_c, 0, 41, 36
1, 313759, Control_c, 0, 64, 88
1, 313760, Note_on_c, 0, 33, 46
1, 313774, Control_c, 0, 64, 89
1, 313789, Control_c, 0, 64, 89
1, 313804, Control_c, 0, 64, 90
1, 313819, Control_c, 0, 64, 90
1, 313894, Note_off_c, 0, 33, 36
1, 313933, Note_on_c, 0, 41, 37
1, 313948, Note_on_c, 0, 45, 9
1, 313949, Note_on_c, 0, 48, 38
1, 313949, Note_on_c, 0, 36, 26
1, 313960, Note_on_c, 0, 60, 41
1, 313998, Note_off_c, 0, 36, 45
1, 314014, Note_off_c, 0, 45, 39
1, 314044, Note_on_c, 0, 33, 52
1, 314070, Note_off_c, 0, 41, 24
1, 314141, Note_off_c, 0, 33, 55
1, 314179, Note_on_c, 0, 45, 39
1, 314186, Note_on_c, 0, 41, 42
1, 314196, Control_c, 0, 64, 90
1, 314228, Note_on_c, 0, 36, 3
1, 314236, Note_off_c, 0, 45, 49
1, 314240, Control_c, 0, 64, 89
1, 314255, Control_c, 0, 64, 89
1, 314262, Note_off_c, 0, 36, 48
1, 314269, Note_off_c, 0, 41, 48
1, 314270, Control_c, 0, 64, 88
1, 314284, Control_c, 0, 64, 86
1, 314298, Note_on_c, 0, 33, 51
1, 314299, Control_c, 0, 64, 85
1, 314314, Control_c, 0, 64, 83
1, 314329, Note_off_c, 0, 48, 40
1, 314329, Control_c, 0, 64, 82
1, 314344, Control_c, 0, 64, 82
1, 314359, Control_c, 0, 64, 81
1, 314377, Note_off_c, 0, 33, 53
1, 314421, Note_on_c, 0, 36, 30
1, 314423, Note_on_c, 0, 41, 39
1, 314433, Note_on_c, 0, 45, 30
1, 314460, Note_off_c, 0, 36, 51
1, 314479, Note_off_c, 0, 45, 46
1, 314505, Note_off_c, 0, 41, 37
1, 314538, Note_on_c, 0, 33, 47
1, 314618, Note_off_c, 0, 33, 53
1, 314627, Control_c, 0, 64, 81
1, 314642, Control_c, 0, 64, 76
1, 314656, Control_c, 0, 64, 69
1, 314678, Control_c, 0, 64, 0
1, 314684, Note_on_c, 0, 41, 39
1, 314697, Note_off_c, 0, 60, 58
1, 314699, Note_on_c, 0, 62, 62
1, 314705, Note_on_c, 0, 50, 43
1, 314806, Note_off_c, 0, 41, 57
1, 314812, Note_on_c, 0, 34, 51
1, 314812, Control_c, 0, 64, 64
1, 314827, Control_c, 0, 64, 67
1, 314842, Control_c, 0, 64, 70
1, 314856, Control_c, 0, 64, 72
1, 314862, Note_off_c, 0, 50, 63
1, 314871, Control_c, 0, 64, 74
1, 314886, Control_c, 0, 64, 77
1, 314900, Control_c, 0, 64, 80
1, 314913, Note_off_c, 0, 62, 59
1, 314915, Control_c, 0, 64, 82
1, 314923, Note_off_c, 0, 34, 59
1, 314930, Control_c, 0, 64, 85
1, 314945, Control_c, 0, 64, 87
1, 314960, Control_c, 0, 64, 89
1, 314970, Note_on_c, 0, 41, 41
1, 314974, Control_c, 0, 64, 90
1, 314989, Control_c, 0, 64, 90
1, 315004, Control_c, 0, 64, 91
1, 315012, Poly_aftertouch_c, 0, 54, 127
1, 315012, Note_on_c, 0, 54, 3
1, 315019, Control_c, 0, 64, 91
1, 315026, Note_on_c, 0, 58, 55
1, 315041, Note_on_c, 0, 46, 46
1, 315051, Note_off_c, 0, 54, 48
1, 315078, Control_c, 0, 64, 90
1, 315093, Control_c, 0, 64, 85
1, 315106, Note_off_c, 0, 46, 55
1, 315107, Control_c, 0, 64, 77
1, 315122, Control_c, 0, 64, 68
1, 315137, Control_c, 0, 64, 0
1, 315140, Note_on_c, 0, 36, 40
1, 315158, Note_off_c, 0, 41, 37
1, 315177, Note_on_c, 0, 57, 61
1, 315184, Note_on_c, 0, 45, 34
1, 315204, Note_off_c, 0, 58, 53
1, 315271, Control_c, 0, 64, 57
1, 315286, Control_c, 0, 64, 65
1, 315300, Note_off_c, 0, 36, 58
1, 315300, Control_c, 0, 64, 67
1, 315307, Note_on_c, 0, 41, 42
1, 315315, Control_c, 0, 64, 70
1, 315330, Control_c, 0, 64, 74
1, 315346, Control_c, 0, 64, 80
1, 315361, Control_c, 0, 64, 83
1, 315362, Note_off_c, 0, 45, 63
1, 315375, Control_c, 0, 64, 85
1, 315390, Control_c, 0, 64, 87
1, 315405, Control_c, 0, 64, 88
1, 315412, Note_off_c, 0, 57, 62
1, 315427, Control_c, 0, 64, 89
1, 315432, Note_off_c, 0, 41, 56
1, 315442, Control_c, 0, 64, 89
1, 315450, Note_on_c, 0, 36, 51
1, 315456, Control_c, 0, 64, 90
1, 315471, Control_c, 0, 64, 90
1, 315486, Control_c, 0, 64, 91
1, 315560, Control_c, 0, 64, 91
1, 315575, Note_off_c, 0, 36, 49
1, 315587, Note_on_c, 0, 41, 47
1, 315590, Control_c, 0, 64, 92
1, 315601, Note_on_c, 0, 60, 57
1, 315605, Control_c, 0, 64, 92
1, 315608, Note_on_c, 0, 48, 37
1, 315620, Control_c, 0, 64, 93
1, 315635, Control_c, 0, 64, 94
1, 315649, Control_c, 0, 64, 94
1, 315664, Control_c, 0, 64, 95
1, 315679, Control_c, 0, 64, 96
1, 315688, Note_off_c, 0, 41, 53
1, 315695, Note_off_c, 0, 60, 60
1, 315709, Control_c, 0, 64, 98
1, 315714, Note_off_c, 0, 48, 61
1, 315724, Note_on_c, 0, 36, 45
1, 315738, Control_c, 0, 64, 100
1, 315795, Note_off_c, 0, 36, 49
1, 315796, Control_c, 0, 64, 102
1, 315833, Note_on_c, 0, 41, 48
1, 315855, Control_c, 0, 64, 104
1, 315867, Note_on_c, 0, 57, 58
1, 315930, Control_c, 0, 64, 93
1, 315945, Control_c, 0, 64, 80
1, 315945, Note_off_c, 0, 57, 61
1, 315955, Note_off_c, 0, 41, 49
1, 315960, Control_c, 0, 64, 67
1, 315963, Note_on_c, 0, 36, 38
1, 315966, Note_on_c, 0, 55, 62
1, 315975, Control_c, 0, 64, 0
1, 315993, Note_on_c, 0, 43, 46
1, 316093, Note_off_c, 0, 36, 59
1, 316093, Control_c, 0, 64, 64
1, 316108, Control_c, 0, 64, 69
1, 316115, Note_on_c, 0, 40, 46
1, 316122, Control_c, 0, 64, 74
1, 316138, Control_c, 0, 64, 79
1, 316153, Note_off_c, 0, 43, 60
1, 316153, Control_c, 0, 64, 83
1, 316175, Control_c, 0, 64, 88
1, 316190, Control_c, 0, 64, 92
1, 316205, Control_c, 0, 64, 95
1, 316206, Note_off_c, 0, 40, 57
1, 316206, Note_off_c, 0, 55, 62
1, 316219, Control_c, 0, 64, 97
1, 316245, Note_on_c, 0, 36, 47
1, 316249, Control_c, 0, 64, 100
1, 316279, Control_c, 0, 64, 102
1, 316344, Note_off_c, 0, 36, 51
1, 316368, Note_on_c, 0, 40, 45
1, 316368, Note_on_c, 0, 60, 56
1, 316383, Note_on_c, 0, 48, 41
1, 316447, Note_off_c, 0, 40, 58
1, 316495, Note_off_c, 0, 48, 60
1, 316500, Note_on_c, 0, 36, 38
1, 316610, Note_on_c, 0, 40, 46
1, 316611, Note_off_c, 0, 36, 28
1, 316649, Note_off_c, 0, 40, 59
1, 316696, Note_on_c, 0, 46, 44
1, 316703, Note_on_c, 0, 58, 60
1, 316745, Note_off_c, 0, 60, 49
1, 316779, Note_off_c, 0, 46, 53
1, 316887, Control_c, 0, 64, 100
1, 316902, Control_c, 0, 64, 96
1, 316924, Control_c, 0, 64, 90
1, 316939, Control_c, 0, 64, 82
1, 316955, Control_c, 0, 64, 74
1, 316970, Control_c, 0, 64, 68
1, 316973, Note_on_c, 0, 57, 59
1, 316973, Note_on_c, 0, 41, 45
1, 316984, Control_c, 0, 64, 63
1, 316999, Control_c, 0, 64, 0
1, 317035, Note_off_c, 0, 58, 54
1, 317176, Control_c, 0, 64, 51
1, 317191, Control_c, 0, 64, 69
1, 317203, Note_off_c, 0, 41, 59
1, 317206, Control_c, 0, 64, 73
1, 317218, Note_on_c, 0, 53, 39
1, 317221, Control_c, 0, 64, 76
1, 317236, Note_on_c, 0, 48, 28
1, 317236, Control_c, 0, 64, 81
1, 317236, Note_on_c, 0, 45, 16
1, 317250, Control_c, 0, 64, 84
1, 317265, Control_c, 0, 64, 87
1, 317280, Control_c, 0, 64, 89
1, 317289, Note_off_c, 0, 45, 46
1, 317292, Note_off_c, 0, 53, 48
1, 317295, Control_c, 0, 64, 91
1, 317304, Note_off_c, 0, 48, 42
1, 317310, Control_c, 0, 64, 93
1, 317325, Control_c, 0, 64, 95
1, 317343, Note_on_c, 0, 41, 52
1, 317355, Control_c, 0, 64, 98
1, 317384, Control_c, 0, 64, 100
1, 317437, Note_off_c, 0, 41, 56
1, 317485, Note_on_c, 0, 60, 56
1, 317486, Note_on_c, 0, 48, 35
1, 317486, Note_on_c, 0, 53, 39
1, 317519, Note_on_c, 0, 45, 17
1, 317567, Note_off_c, 0, 45, 49
1, 317574, Note_off_c, 0, 53, 51
1, 317581, Note_off_c, 0, 48, 50
1, 317593, Note_on_c, 0, 41, 48
1, 317701, Note_off_c, 0, 41, 57
1, 317745, Note_on_c, 0, 53, 40
1, 317746, Note_on_c, 0, 48, 39
1, 317772, Note_on_c, 0, 45, 22
1, 317801, Note_off_c, 0, 60, 53
1, 317817, Note_off_c, 0, 45, 51
1, 317837, Note_off_c, 0, 53, 50
1, 317842, Note_off_c, 0, 48, 51
1, 317847, Note_off_c, 0, 57, 61
1, 317851, Control_c, 0, 64, 102
1, 317856, Note_on_c, 0, 41, 53
1, 317896, Control_c, 0, 64, 104
1, 317940, Control_c, 0, 64, 107
1, 317957, Note_off_c, 0, 41, 58
1, 317970, Control_c, 0, 64, 110
1, 317989, Note_on_c, 0, 53, 43
1, 317996, Note_on_c, 0, 45, 30
1, 317999, Control_c, 0, 64, 112
1, 318002, Note_on_c, 0, 48, 39
1, 318058, Note_off_c, 0, 45, 55
1, 318071, Note_off_c, 0, 48, 51
1, 318080, Note_off_c, 0, 53, 43
1, 318095, Note_on_c, 0, 41, 53
1, 318205, Note_off_c, 0, 41, 57
1, 318234, Note_on_c, 0, 48, 34
1, 318236, Note_on_c, 0, 69, 58
1, 318241, Note_on_c, 0, 45, 34
1, 318243, Note_on_c, 0, 57, 47
1, 318247, Note_on_c, 0, 53, 38
1, 318302, Note_off_c, 0, 45, 54
1, 318334, Note_off_c, 0, 48, 56
1, 318334, Note_off_c, 0, 53, 55
1, 318347, Note_on_c, 0, 41, 51
1, 318349, Note_off_c, 0, 57, 62
1, 318355, Control_c, 0, 64, 114
1, 318369, Control_c, 0, 64, 116
1, 318384, Control_c, 0, 64, 119
1, 318396, Note_off_c, 0, 69, 62
1, 318422, Control_c, 0, 64, 121
1, 318451, Control_c, 0, 64, 124
1, 318452, Note_off_c, 0, 41, 57
1, 318466, Control_c, 0, 64, 127
1, 318479, Note_on_c, 0, 45, 34
1, 318489, Note_on_c, 0, 53, 40
1, 318504, Note_on_c, 0, 48, 35
1, 318517, Note_on_c, 0, 72, 63
1, 318518, Note_on_c, 0, 60, 37
1, 318547, Note_off_c, 0, 45, 51
1, 318550, Note_off_c, 0, 60, 48
1, 318568, Note_off_c, 0, 72, 60
1, 318586, Note_off_c, 0, 53, 53
1, 318586, Note_off_c, 0, 48, 36
1, 318597, Note_on_c, 0, 41, 54
1, 318631, Note_on_c, 0, 77, 81
1, 318643, Note_on_c, 0, 65, 63
1, 318735, Note_off_c, 0, 41, 58
1, 318759, Note_off_c, 0, 65, 58
1, 318764, Note_on_c, 0, 53, 43
1, 318770, Note_on_c, 0, 48, 45
1, 318785, Note_on_c, 0, 45, 28
1, 318841, Note_off_c, 0, 45, 54
1, 318869, Note_on_c, 0, 41, 59
1, 318881, Note_off_c, 0, 53, 57
1, 318887, Note_off_c, 0, 48, 52
1, 318987, Note_off_c, 0, 41, 58
1, 318997, Note_on_c, 0, 81, 74
1, 319006, Note_on_c, 0, 69, 59
1, 319013, Note_on_c, 0, 53, 55
1, 319015, Note_on_c, 0, 45, 38
1, 319015, Note_on_c, 0, 48, 48
1, 319024, Note_off_c, 0, 77, 57
1, 319082, Note_off_c, 0, 53, 53
1, 319084, Note_off_c, 0, 45, 47
1, 319091, Note_off_c, 0, 48, 58
1, 319105, Note_off_c, 0, 69, 55
1, 319111, Note_on_c, 0, 41, 64
1, 319180, Note_off_c, 0, 81, 59
1, 319202, Note_off_c, 0, 41, 58
1, 319229, Note_on_c, 0, 53, 49
1, 319232, Note_on_c, 0, 48, 52
1, 319244, Poly_aftertouch_c, 0, 77, 0
1, 319257, Note_on_c, 0, 77, 44
1, 319291, Note_on_c, 0, 65, 35
1, 319307, Note_off_c, 0, 77, 60
1, 319321, Note_off_c, 0, 65, 47
1, 319333, Note_off_c, 0, 53, 52
1, 319334, Control_c, 0, 64, 111
1, 319349, Control_c, 0, 64, 93
1, 319355, Note_off_c, 0, 48, 54
1, 319359, Note_on_c, 0, 76, 73
1, 319362, Note_on_c, 0, 43, 62
1, 319364, Control_c, 0, 64, 75
1, 319372, Note_on_c, 0, 64, 61
1, 319379, Control_c, 0, 64, 0
1, 319483, Control_c, 0, 64, 66
1, 319497, Control_c, 0, 64, 75
1, 319500, Note_on_c, 0, 48, 46
1, 319501, Note_off_c, 0, 43, 59
1, 319507, Note_on_c, 0, 55, 55
1, 319512, Control_c, 0, 64, 85
1, 319520, Note_on_c, 0, 46, 46
1, 319527, Control_c, 0, 64, 90
1, 319542, Control_c, 0, 64, 93
1, 319557, Control_c, 0, 64, 95
1, 319579, Note_off_c, 0, 64, 64
1, 319586, Control_c, 0, 64, 97
1, 319596, Note_off_c, 0, 46, 44
1, 319610, Note_off_c, 0, 48, 59
1, 319613, Note_off_c, 0, 55, 50
1, 319623, Note_on_c, 0, 43, 63
1, 319630, Control_c, 0, 64, 99
1, 319660, Control_c, 0, 64, 103
1, 319675, Control_c, 0, 64, 105
1, 319689, Control_c, 0, 64, 107
1, 319704, Control_c, 0, 64, 109
1, 319734, Control_c, 0, 64, 113
1, 319749, Control_c, 0, 64, 116
1, 319763, Control_c, 0, 64, 119
1, 319774, Note_off_c, 0, 43, 56
1, 319775, Note_on_c, 0, 79, 76
1, 319778, Note_on_c, 0, 67, 52
1, 319778, Control_c, 0, 64, 121
1, 319784, Note_on_c, 0, 55, 49
1, 319786, Note_on_c, 0, 48, 44
1, 319793, Control_c, 0, 64, 124
1, 319798, Note_on_c, 0, 46, 45
1, 319808, Control_c, 0, 64, 127
1, 319816, Note_off_c, 0, 76, 59
1, 319849, Note_off_c, 0, 46, 55
1, 319867, Note_off_c, 0, 48, 56
1, 319904, Note_on_c, 0, 43, 62
1, 319943, Note_off_c, 0, 55, 33
1, 319962, Note_off_c, 0, 79, 63
1, 319985, Note_off_c, 0, 67, 63
1, 320053, Note_off_c, 0, 43, 50
1, 320079, Note_on_c, 0, 55, 52
1, 320085, Note_on_c, 0, 46, 48
1, 320100, Note_on_c, 0, 48, 24
1, 320121, Note_off_c, 0, 46, 63
1, 320138, Note_off_c, 0, 48, 54
1, 320140, Note_off_c, 0, 55, 53
1, 320169, Note_on_c, 0, 76, 71
1, 320183, Note_on_c, 0, 64, 54
1, 320253, Note_off_c, 0, 64, 57
1, 320261, Control_c, 0, 64, 123
1, 320276, Control_c, 0, 64, 120
1, 320306, Control_c, 0, 64, 117
1, 320350, Control_c, 0, 64, 115
1, 320379, Control_c, 0, 64, 112
1, 320438, Control_c, 0, 64, 110
1, 320468, Control_c, 0, 64, 107
1, 320483, Control_c, 0, 64, 102
1, 320498, Control_c, 0, 64, 95
1, 320512, Control_c, 0, 64, 87
1, 320521, Note_on_c, 0, 77, 65
1, 320527, Control_c, 0, 64, 76
1, 320537, Note_on_c, 0, 65, 47
1, 320542, Control_c, 0, 64, 66
1, 320545, Note_on_c, 0, 57, 36
1, 320547, Note_off_c, 0, 76, 56
1, 320551, Note_on_c, 0, 48, 31
1, 320553, Note_on_c, 0, 53, 36
1, 320555, Note_on_c, 0, 45, 37
1, 320557, Control_c, 0, 64, 0
1, 320742, Control_c, 0, 64, 63
1, 320757, Control_c, 0, 64, 69
1, 320771, Control_c, 0, 64, 73
1, 320786, Control_c, 0, 64, 77
1, 320801, Control_c, 0, 64, 81
1, 320816, Control_c, 0, 64, 85
1, 320821, Note_off_c, 0, 77, 61
1, 320831, Control_c, 0, 64, 88
1, 320845, Control_c, 0, 64, 90
1, 320860, Control_c, 0, 64, 93
1, 320875, Control_c, 0, 64, 95
1, 320887, Note_off_c, 0, 65, 63
1, 320905, Control_c, 0, 64, 98
1, 321190, Note_on_c, 0, 72, 47
1, 321209, Note_on_c, 0, 60, 35
1, 322184, Note_off_c, 0, 57, 59
1, 322269, Note_off_c, 0, 60, 32
1, 322281, Note_off_c, 0, 72, 54
1, 322342, Note_off_c, 0, 45, 58
1, 322385, Note_off_c, 0, 48, 53
1, 322432, Poly_aftertouch_c, 0, 68, 0
1, 322652, Note_off_c, 0, 53, 35
1, 322878, Control_c, 0, 64, 96
1, 322893, Control_c, 0, 64, 89
1, 322914, Control_c, 0, 64, 80
1, 322923, Note_on_c, 0, 73, 78
1, 322929, Control_c, 0, 64, 67
1, 322931, Note_on_c, 0, 53, 74
1, 322931, Note_on_c, 0, 61, 66
1, 322933, Note_on_c, 0, 46, 62
1, 322935, Note_on_c, 0, 49, 61
1, 322944, Control_c, 0, 64, 0
1, 323063, Control_c, 0, 64, 69
1, 323078, Control_c, 0, 64, 75
1, 323093, Control_c, 0, 64, 83
1, 323108, Control_c, 0, 64, 89
1, 323122, Control_c, 0, 64, 93
1, 323137, Control_c, 0, 64, 96
1, 323152, Control_c, 0, 64, 99
1, 323166, Control_c, 0, 64, 102
1, 323181, Control_c, 0, 64, 104
1, 323234, Note_off_c, 0, 61, 60
1, 323568, Control_c, 0, 64, 102
1, 323597, Control_c, 0, 64, 98
1, 323612, Control_c, 0, 64, 94
1, 323621, Note_on_c, 0, 70, 69
1, 323622, Note_on_c, 0, 58, 61
1, 323624, Note_on_c, 0, 54, 70
1, 323627, Control_c, 0, 64, 87
1, 323642, Control_c, 0, 64, 79
1, 323664, Control_c, 0, 64, 70
1, 323679, Control_c, 0, 64, 62
1, 323693, Note_off_c, 0, 53, 62
1, 323694, Control_c, 0, 64, 0
1, 323713, Note_off_c, 0, 73, 53
1, 323990, Control_c, 0, 64, 34
1, 324005, Control_c, 0, 64, 51
1, 324020, Control_c, 0, 64, 61
1, 324034, Control_c, 0, 64, 64
1, 324049, Control_c, 0, 64, 64
1, 324063, Control_c, 0, 64, 65
1, 324078, Control_c, 0, 64, 65
1, 324093, Control_c, 0, 64, 66
1, 324107, Control_c, 0, 64, 67
1, 324122, Control_c, 0, 64, 68
1, 324139, Control_c, 0, 64, 69
1, 324154, Control_c, 0, 64, 70
1, 324168, Control_c, 0, 64, 71
1, 324183, Control_c, 0, 64, 72
1, 324198, Control_c, 0, 64, 74
1, 324212, Control_c, 0, 64, 76
1, 324227, Control_c, 0, 64, 78
1, 324242, Control_c, 0, 64, 79
1, 324257, Control_c, 0, 64, 80
1, 324272, Control_c, 0, 64, 81
1, 324286, Control_c, 0, 64, 82
1, 324301, Control_c, 0, 64, 84
1, 324316, Control_c, 0, 64, 85
1, 324330, Control_c, 0, 64, 87
1, 324345, Control_c, 0, 64, 89
1, 324360, Control_c, 0, 64, 91
1, 324375, Control_c, 0, 64, 92
1, 324390, Control_c, 0, 64, 94
1, 324412, Control_c, 0, 64, 96
1, 324427, Control_c, 0, 64, 98
1, 324442, Control_c, 0, 64, 100
1, 324457, Control_c, 0, 64, 103
1, 324472, Control_c, 0, 64, 106
1, 324486, Control_c, 0, 64, 108
1, 324501, Control_c, 0, 64, 111
1, 324516, Control_c, 0, 64, 114
1, 324531, Control_c, 0, 64, 117
1, 324545, Control_c, 0, 64, 120
1, 324590, Control_c, 0, 64, 122
1, 324604, Control_c, 0, 64, 124
1, 324619, Control_c, 0, 64, 127
1, 324693, Note_off_c, 0, 46, 37
1, 324700, Note_off_c, 0, 49, 55
1, 324733, Note_off_c, 0, 58, 59
1, 324765, Note_off_c, 0, 54, 34
1, 324825, Note_off_c, 0, 70, 56
1, 324976, Control_c, 0, 64, 124
1, 325021, Control_c, 0, 64, 122
1, 325065, Control_c, 0, 64, 119
1, 325095, Control_c, 0, 64, 117
1, 325139, Control_c, 0, 64, 115
1, 325176, Control_c, 0, 64, 112
1, 325206, Control_c, 0, 64, 109
1, 325250, Control_c, 0, 64, 107
1, 325295, Control_c, 0, 64, 105
1, 325339, Control_c, 0, 64, 103
1, 325398, Control_c, 0, 64, 101
1, 325531, Control_c, 0, 64, 99
1, 325576, Control_c, 0, 64, 94
1, 325589, Note_on_c, 0, 68, 41
1, 325591, Control_c, 0, 64, 91
1, 325606, Control_c, 0, 64, 86
1, 325611, Note_on_c, 0, 56, 31
1, 325612, Note_on_c, 0, 53, 32
1, 325621, Control_c, 0, 64, 80
1, 325623, Note_on_c, 0, 48, 29
1, 325635, Control_c, 0, 64, 73
1, 325650, Control_c, 0, 64, 67
1, 325665, Control_c, 0, 64, 63
1, 325679, Control_c, 0, 64, 60
1, 325694, Control_c, 0, 64, 55
1, 325709, Control_c, 0, 64, 44
1, 325724, Control_c, 0, 64, 0
1, 326088, Control_c, 0, 64, 30
1, 326103, Control_c, 0, 64, 38
1, 326117, Control_c, 0, 64, 41
1, 326132, Control_c, 0, 64, 46
1, 326147, Control_c, 0, 64, 50
1, 326162, Control_c, 0, 64, 54
1, 326177, Control_c, 0, 64, 57
1, 326191, Control_c, 0, 64, 60
1, 326206, Control_c, 0, 64, 62
1, 326221, Control_c, 0, 64, 63
1, 326236, Control_c, 0, 64, 64
1, 326265, Control_c, 0, 64, 64
1, 326295, Control_c, 0, 64, 65
1, 326324, Control_c, 0, 64, 65
1, 326354, Control_c, 0, 64, 66
1, 326384, Control_c, 0, 64, 66
1, 326399, Control_c, 0, 64, 67
1, 326429, Control_c, 0, 64, 67
1, 326444, Control_c, 0, 64, 68
1, 326458, Control_c, 0, 64, 68
1, 326473, Control_c, 0, 64, 69
1, 326488, Control_c, 0, 64, 70
1, 326502, Control_c, 0, 64, 71
1, 326517, Control_c, 0, 64, 72
1, 326533, Control_c, 0, 64, 73
1, 326548, Control_c, 0, 64, 75
1, 326563, Control_c, 0, 64, 76
1, 326578, Control_c, 0, 64, 78
1, 326593, Control_c, 0, 64, 78
1, 326607, Control_c, 0, 64, 79
1, 326622, Control_c, 0, 64, 80
1, 326637, Control_c, 0, 64, 80
1, 326659, Control_c, 0, 64, 81
1, 326674, Control_c, 0, 64, 82
1, 326688, Control_c, 0, 64, 83
1, 326703, Control_c, 0, 64, 84
1, 326718, Control_c, 0, 64, 85
1, 326733, Control_c, 0, 64, 85
1, 326748, Control_c, 0, 64, 86
1, 326763, Control_c, 0, 64, 87
1, 326777, Control_c, 0, 64, 88
1, 326792, Control_c, 0, 64, 89
1, 326807, Control_c, 0, 64, 89
1, 326822, Control_c, 0, 64, 90
1, 326837, Control_c, 0, 64, 91
1, 326852, Control_c, 0, 64, 92
1, 326867, Control_c, 0, 64, 93
1, 326881, Control_c, 0, 64, 93
1, 326896, Control_c, 0, 64, 94
1, 326911, Control_c, 0, 64, 95
1, 326926, Control_c, 0, 64, 95
1, 326940, Control_c, 0, 64, 96
1, 326953, Note_off_c, 0, 48, 37
1, 326954, Note_on_c, 0, 67, 34
1, 326956, Note_off_c, 0, 56, 38
1, 327011, Note_off_c, 0, 53, 38
1, 327040, Note_off_c, 0, 68, 30
1, 327089, Control_c, 0, 64, 98
1, 327295, Note_off_c, 0, 67, 39
1, 327305, Note_on_c, 0, 65, 28
1, 327424, Control_c, 0, 64, 96
1, 327468, Control_c, 0, 64, 95
1, 327497, Control_c, 0, 64, 95
1, 327527, Control_c, 0, 64, 94
1, 327542, Control_c, 0, 64, 93
1, 327556, Control_c, 0, 64, 91
1, 327571, Control_c, 0, 64, 89
1, 327582, Note_on_c, 0, 66, 37
1, 327586, Control_c, 0, 64, 85
1, 327595, Note_on_c, 0, 52, 35
1, 327598, Note_off_c, 0, 65, 35
1, 327601, Note_on_c, 0, 48, 28
1, 327601, Note_on_c, 0, 58, 32
1, 327601, Control_c, 0, 64, 81
1, 327616, Control_c, 0, 64, 76
1, 327630, Control_c, 0, 64, 69
1, 327645, Control_c, 0, 64, 65
1, 327660, Control_c, 0, 64, 64
1, 327690, Control_c, 0, 64, 63
1, 327704, Control_c, 0, 64, 62
1, 327719, Control_c, 0, 64, 59
1, 327734, Control_c, 0, 64, 57
1, 327792, Control_c, 0, 64, 59
1, 327807, Control_c, 0, 64, 60
1, 327809, Note_off_c, 0, 66, 49
1, 327822, Control_c, 0, 64, 62
1, 327831, Note_on_c, 0, 67, 30
1, 327836, Control_c, 0, 64, 64
1, 327851, Control_c, 0, 64, 65
1, 327866, Control_c, 0, 64, 66
1, 327880, Control_c, 0, 64, 67
1, 327895, Control_c, 0, 64, 68
1, 327910, Control_c, 0, 64, 69
1, 327925, Control_c, 0, 64, 71
1, 327934, Note_off_c, 0, 67, 51
1, 327940, Control_c, 0, 64, 73
1, 327955, Control_c, 0, 64, 76
1, 327970, Control_c, 0, 64, 79
1, 327975, Note_on_c, 0, 68, 31
1, 327985, Control_c, 0, 64, 80
1, 328000, Control_c, 0, 64, 81
1, 328015, Control_c, 0, 64, 83
1, 328029, Control_c, 0, 64, 84
1, 328044, Control_c, 0, 64, 85
1, 328059, Control_c, 0, 64, 86
1, 328064, Note_off_c, 0, 68, 60
1, 328073, Control_c, 0, 64, 87
1, 328088, Control_c, 0, 64, 88
1, 328093, Note_on_c, 0, 67, 38
1, 328103, Control_c, 0, 64, 89
1, 328118, Control_c, 0, 64, 90
1, 328134, Control_c, 0, 64, 91
1, 328137, Note_off_c, 0, 67, 48
1, 328156, Control_c, 0, 64, 92
1, 328171, Control_c, 0, 64, 92
1, 328185, Control_c, 0, 64, 93
1, 328200, Control_c, 0, 64, 93
1, 328215, Control_c, 0, 64, 94
1, 328217, Note_on_c, 0, 68, 36
1, 328230, Control_c, 0, 64, 95
1, 328250, Note_off_c, 0, 68, 54
1, 328259, Control_c, 0, 64, 97
1, 328281, Note_on_c, 0, 67, 39
1, 328319, Control_c, 0, 64, 99
1, 328319, Note_off_c, 0, 67, 54
1, 328342, Note_on_c, 0, 68, 51
1, 328363, Control_c, 0, 64, 101
1, 328390, Note_off_c, 0, 68, 63
1, 328429, Note_on_c, 0, 67, 42
1, 328459, Note_off_c, 0, 67, 53
1, 328482, Control_c, 0, 64, 103
1, 328503, Note_on_c, 0, 68, 44
1, 328530, Note_off_c, 0, 68, 55
1, 328555, Note_on_c, 0, 67, 50
1, 328590, Note_off_c, 0, 67, 56
1, 328614, Note_on_c, 0, 68, 53
1, 328655, Note_off_c, 0, 68, 62
1, 328694, Note_on_c, 0, 67, 49
1, 328738, Note_off_c, 0, 67, 60
1, 328769, Note_on_c, 0, 68, 47
1, 328793, Note_off_c, 0, 68, 61
1, 328834, Note_on_c, 0, 67, 43
1, 328837, Control_c, 0, 64, 105
1, 328864, Note_off_c, 0, 67, 55
1, 328870, Note_off_c, 0, 48, 38
1, 328877, Note_on_c, 0, 68, 55
1, 328920, Note_off_c, 0, 68, 66
1, 328955, Note_on_c, 0, 67, 56
1, 328961, Note_off_c, 0, 52, 53
1, 328964, Control_c, 0, 64, 107
1, 328978, Note_off_c, 0, 67, 60
1, 328986, Note_off_c, 0, 58, 40
1, 329001, Note_on_c, 0, 68, 61
1, 329008, Control_c, 0, 64, 109
1, 329038, Note_off_c, 0, 68, 65
1, 329051, Note_on_c, 0, 67, 64
1, 329053, Control_c, 0, 64, 112
1, 329082, Control_c, 0, 64, 115
1, 329094, Note_off_c, 0, 67, 59
1, 329097, Control_c, 0, 64, 117
1, 329112, Control_c, 0, 64, 119
1, 329114, Note_on_c, 0, 68, 60
1, 329126, Control_c, 0, 64, 124
1, 329139, Note_off_c, 0, 68, 62
1, 329141, Control_c, 0, 64, 127
1, 329168, Note_on_c, 0, 67, 51
1, 329189, Note_off_c, 0, 67, 62
1, 329208, Note_on_c, 0, 68, 71
1, 329241, Note_off_c, 0, 68, 64
1, 329255, Note_on_c, 0, 67, 63
1, 329307, Note_off_c, 0, 67, 59
1, 329315, Note_on_c, 0, 68, 62
1, 329347, Note_off_c, 0, 68, 64
1, 329353, Note_on_c, 0, 67, 49
1, 329394, Note_off_c, 0, 67, 61
1, 329424, Note_on_c, 0, 68, 50
1, 329448, Note_off_c, 0, 68, 55
1, 329449, Note_on_c, 0, 67, 50
1, 329472, Note_off_c, 0, 67, 61
1, 329497, Control_c, 0, 64, 114
1, 329512, Control_c, 0, 64, 88
1, 329526, Control_c, 0, 64, 69
1, 329539, Note_on_c, 0, 73, 71
1, 329541, Control_c, 0, 64, 0
1, 329630, Control_c, 0, 64, 61
1, 329638, Note_on_c, 0, 72, 69
1, 329652, Control_c, 0, 64, 70
1, 329656, Note_off_c, 0, 73, 59
1, 329667, Control_c, 0, 64, 76
1, 329676, Note_off_c, 0, 72, 63
1, 329682, Control_c, 0, 64, 83
1, 329697, Control_c, 0, 64, 89
1, 329702, Note_on_c, 0, 73, 52
1, 329712, Control_c, 0, 64, 94
1, 329728, Control_c, 0, 64, 98
1, 329734, Note_off_c, 0, 73, 64
1, 329743, Control_c, 0, 64, 102
1, 329757, Control_c, 0, 64, 106
1, 329766, Note_on_c, 0, 72, 65
1, 329772, Control_c, 0, 64, 111
1, 329787, Control_c, 0, 64, 115
1, 329802, Control_c, 0, 64, 119
1, 329803, Note_off_c, 0, 72, 59
1, 329812, Note_on_c, 0, 73, 69
1, 329817, Control_c, 0, 64, 124
1, 329831, Control_c, 0, 64, 127
1, 329844, Note_off_c, 0, 73, 60
1, 329889, Note_on_c, 0, 72, 63
1, 329911, Note_off_c, 0, 72, 62
1, 329929, Note_on_c, 0, 73, 66
1, 329953, Note_off_c, 0, 73, 67
1, 329976, Note_on_c, 0, 72, 71
1, 329994, Control_c, 0, 64, 120
1, 330000, Note_off_c, 0, 72, 61
1, 330021, Note_on_c, 0, 73, 72
1, 330059, Note_off_c, 0, 73, 58
1, 330065, Note_on_c, 0, 72, 71
1, 330119, Note_off_c, 0, 72, 60
1, 330140, Note_on_c, 0, 73, 61
1, 330157, Note_off_c, 0, 73, 65
1, 330167, Note_on_c, 0, 72, 51
1, 330197, Note_off_c, 0, 72, 56
1, 330216, Note_on_c, 0, 73, 79
1, 330231, Control_c, 0, 64, 118
1, 330246, Note_off_c, 0, 73, 61
1, 330275, Note_on_c, 0, 72, 70
1, 330310, Note_off_c, 0, 72, 62
1, 330320, Note_on_c, 0, 73, 73
1, 330342, Note_off_c, 0, 73, 68
1, 330370, Note_on_c, 0, 72, 49
1, 330405, Note_off_c, 0, 72, 54
1, 330411, Note_on_c, 0, 73, 76
1, 330450, Note_off_c, 0, 73, 59
1, 330473, Note_on_c, 0, 72, 58
1, 330495, Note_off_c, 0, 72, 58
1, 330515, Note_on_c, 0, 73, 65
1, 330545, Note_off_c, 0, 73, 65
1, 330551, Control_c, 0, 64, 120
1, 330566, Control_c, 0, 64, 122
1, 330581, Note_on_c, 0, 72, 36
1, 330595, Control_c, 0, 64, 127
1, 330605, Note_on_c, 0, 73, 72
1, 330607, Note_off_c, 0, 72, 56
1, 330637, Note_off_c, 0, 73, 64
1, 330650, Note_on_c, 0, 72, 63
1, 330683, Note_off_c, 0, 72, 62
1, 330703, Note_on_c, 0, 73, 69
1, 330727, Note_off_c, 0, 73, 66
1, 330751, Note_on_c, 0, 72, 63
1, 330770, Note_off_c, 0, 72, 61
1, 330798, Note_on_c, 0, 73, 67
1, 330828, Note_off_c, 0, 73, 62
1, 330833, Note_on_c, 0, 72, 79
1, 330888, Note_off_c, 0, 72, 58
1, 330897, Note_on_c, 0, 73, 85
1, 330919, Note_off_c, 0, 73, 68
1, 330947, Note_on_c, 0, 71, 67
1, 330980, Control_c, 0, 64, 109
1, 330985, Note_off_c, 0, 71, 61
1, 330995, Control_c, 0, 64, 80
1, 331000, Note_on_c, 0, 72, 67
1, 331010, Control_c, 0, 64, 0
1, 331016, Note_off_c, 0, 72, 68
1, 331052, Note_on_c, 0, 85, 78
1, 331113, Control_c, 0, 64, 66
1, 331128, Control_c, 0, 64, 69
1, 331130, Note_off_c, 0, 85, 62
1, 331150, Control_c, 0, 64, 72
1, 331165, Control_c, 0, 64, 75
1, 331168, Note_on_c, 0, 84, 69
1, 331180, Control_c, 0, 64, 80
1, 331195, Note_off_c, 0, 84, 64
1, 331195, Control_c, 0, 64, 85
1, 331210, Control_c, 0, 64, 87
1, 331224, Control_c, 0, 64, 90
1, 331232, Note_on_c, 0, 85, 58
1, 331239, Control_c, 0, 64, 92
1, 331251, Note_off_c, 0, 85, 61
1, 331254, Control_c, 0, 64, 95
1, 331267, Note_on_c, 0, 84, 72
1, 331284, Control_c, 0, 64, 98
1, 331295, Note_off_c, 0, 84, 58
1, 331309, Note_on_c, 0, 85, 78
1, 331329, Control_c, 0, 64, 100
1, 331360, Note_off_c, 0, 85, 61
1, 331366, Note_on_c, 0, 84, 74
1, 331374, Control_c, 0, 64, 102
1, 331418, Note_on_c, 0, 85, 67
1, 331419, Note_off_c, 0, 84, 62
1, 331443, Note_off_c, 0, 85, 67
1, 331454, Note_on_c, 0, 84, 63
1, 331493, Note_off_c, 0, 84, 61
1, 331504, Note_on_c, 0, 85, 83
1, 331552, Note_off_c, 0, 85, 61
1, 331561, Note_on_c, 0, 84, 57
1, 331594, Poly_aftertouch_c, 0, 85, 0
1, 331601, Note_on_c, 0, 85, 68
1, 331601, Note_off_c, 0, 84, 61
1, 331630, Note_off_c, 0, 85, 64
1, 331657, Note_on_c, 0, 84, 52
1, 331678, Note_off_c, 0, 84, 58
1, 331688, Note_on_c, 0, 85, 83
1, 331726, Note_off_c, 0, 85, 60
1, 331743, Note_on_c, 0, 84, 67
1, 331785, Note_off_c, 0, 84, 61
1, 331791, Note_on_c, 0, 85, 76
1, 331815, Note_off_c, 0, 85, 64
1, 331834, Note_on_c, 0, 84, 58
1, 331857, Note_off_c, 0, 84, 60
1, 331875, Note_on_c, 0, 85, 85
1, 331930, Note_off_c, 0, 85, 62
1, 331937, Note_on_c, 0, 84, 71
1, 331985, Note_on_c, 0, 85, 71
1, 331990, Note_off_c, 0, 84, 61
1, 332011, Note_off_c, 0, 85, 66
1, 332035, Note_on_c, 0, 84, 46
1, 332060, Note_off_c, 0, 84, 60
1, 332075, Note_on_c, 0, 85, 83
1, 332108, Note_off_c, 0, 85, 60
1, 332131, Note_on_c, 0, 84, 73
1, 332180, Note_on_c, 0, 85, 81
1, 332181, Note_off_c, 0, 84, 60
1, 332224, Note_off_c, 0, 85, 58
1, 332248, Note_on_c, 0, 84, 47
1, 332271, Note_off_c, 0, 84, 57
1, 332281, Note_on_c, 0, 85, 64
1, 332337, Note_on_c, 0, 84, 76
1, 332355, Note_off_c, 0, 85, 59
1, 332402, Note_off_c, 0, 84, 62
1, 332415, Note_on_c, 0, 83, 63
1, 332418, Control_c, 0, 64, 100
1, 332463, Control_c, 0, 64, 98
1, 332492, Control_c, 0, 64, 96
1, 332507, Control_c, 0, 64, 95
1, 332522, Control_c, 0, 64, 94
1, 332529, Note_on_c, 0, 84, 61
1, 332534, Note_off_c, 0, 83, 58
1, 332537, Control_c, 0, 64, 93
1, 332551, Control_c, 0, 64, 93
1, 332566, Control_c, 0, 64, 92
1, 332581, Control_c, 0, 64, 91
1, 332596, Control_c, 0, 64, 90
1, 332611, Control_c, 0, 64, 89
1, 332626, Control_c, 0, 64, 88
1, 332648, Control_c, 0, 64, 88
1, 332663, Control_c, 0, 64, 87
1, 332677, Control_c, 0, 64, 86
1, 332692, Control_c, 0, 64, 86
1, 332707, Control_c, 0, 64, 85
1, 332722, Control_c, 0, 64, 84
1, 332737, Control_c, 0, 64, 83
1, 332739, Note_off_c, 0, 84, 59
1, 332741, Note_on_c, 0, 85, 55
1, 332751, Control_c, 0, 64, 83
1, 332766, Control_c, 0, 64, 82
1, 332781, Control_c, 0, 64, 81
1, 332796, Control_c, 0, 64, 81
1, 332811, Control_c, 0, 64, 80
1, 332841, Control_c, 0, 64, 80
1, 332855, Control_c, 0, 64, 79
1, 332870, Control_c, 0, 64, 78
1, 332885, Control_c, 0, 64, 77
1, 332888, Note_on_c, 0, 84, 47
1, 332900, Control_c, 0, 64, 76
1, 332945, Control_c, 0, 64, 76
1, 332966, Note_off_c, 0, 85, 39
1, 332990, Control_c, 0, 64, 75
1, 333018, Note_on_c, 0, 82, 58
1, 333019, Note_off_c, 0, 84, 58
1, 333049, Control_c, 0, 64, 76
1, 333136, Note_on_c, 0, 80, 51
1, 333144, Note_off_c, 0, 82, 55
1, 333242, Note_off_c, 0, 80, 63
1, 333267, Note_on_c, 0, 79, 51
1, 333365, Note_off_c, 0, 79, 61
1, 333382, Note_on_c, 0, 78, 46
1, 333471, Control_c, 0, 64, 75
1, 333488, Note_off_c, 0, 78, 59
1, 333508, Note_on_c, 0, 77, 49
1, 333589, Control_c, 0, 64, 75
1, 333591, Note_off_c, 0, 77, 60
1, 333627, Note_on_c, 0, 76, 43
1, 333634, Control_c, 0, 64, 74
1, 333693, Control_c, 0, 64, 74
1, 333726, Note_off_c, 0, 76, 58
1, 333738, Control_c, 0, 64, 73
1, 333741, Note_on_c, 0, 75, 47
1, 333828, Control_c, 0, 64, 73
1, 333860, Note_off_c, 0, 75, 53
1, 333875, Note_on_c, 0, 73, 41
1, 333887, Control_c, 0, 64, 72
1, 333946, Control_c, 0, 64, 72
1, 333958, Note_off_c, 0, 73, 61
1, 333991, Note_on_c, 0, 72, 43
1, 334036, Control_c, 0, 64, 71
1, 334090, Note_off_c, 0, 72, 58
1, 334095, Control_c, 0, 64, 71
1, 334111, Note_on_c, 0, 70, 35
1, 334139, Control_c, 0, 64, 70
1, 334215, Note_off_c, 0, 70, 57
1, 334242, Note_on_c, 0, 68, 33
1, 334321, Note_off_c, 0, 68, 62
1, 334355, Note_on_c, 0, 67, 37
1, 334413, Control_c, 0, 64, 70
1, 334432, Note_off_c, 0, 67, 54
1, 334462, Note_on_c, 0, 66, 40
1, 334559, Note_off_c, 0, 66, 57
1, 334582, Note_on_c, 0, 65, 42
1, 334657, Note_off_c, 0, 65, 62
1, 334704, Note_on_c, 0, 64, 40
1, 334796, Note_off_c, 0, 64, 61
1, 334817, Note_on_c, 0, 63, 42
1, 334945, Note_off_c, 0, 63, 54
1, 334950, Note_on_c, 0, 61, 37
1, 335038, Note_off_c, 0, 61, 61
1, 335065, Note_on_c, 0, 60, 45
1, 335157, Note_off_c, 0, 60, 60
1, 335185, Note_on_c, 0, 58, 46
1, 335301, Note_off_c, 0, 58, 55
1, 335315, Note_on_c, 0, 56, 40
1, 335325, Control_c, 0, 64, 70
1, 335404, Note_off_c, 0, 56, 64
1, 335428, Control_c, 0, 64, 71
1, 335434, Note_on_c, 0, 55, 42
1, 335503, Control_c, 0, 64, 71
1, 335528, Note_off_c, 0, 55, 61
1, 335547, Note_on_c, 0, 54, 42
1, 335547, Control_c, 0, 64, 72
1, 335592, Control_c, 0, 64, 72
1, 335668, Note_off_c, 0, 54, 55
1, 335673, Control_c, 0, 64, 73
1, 335681, Note_on_c, 0, 53, 44
1, 335767, Note_off_c, 0, 53, 62
1, 335806, Note_on_c, 0, 52, 43
1, 335836, Control_c, 0, 64, 73
1, 335881, Control_c, 0, 64, 74
1, 335898, Note_off_c, 0, 52, 59
1, 335920, Note_on_c, 0, 51, 40
1, 335940, Control_c, 0, 64, 74
1, 335984, Control_c, 0, 64, 74
1, 336034, Note_on_c, 0, 49, 46
1, 336037, Note_off_c, 0, 51, 52
1, 336120, Note_off_c, 0, 49, 63
1, 336148, Note_on_c, 0, 48, 49
1, 336250, Note_off_c, 0, 48, 61
1, 336270, Note_on_c, 0, 46, 46
1, 336394, Note_on_c, 0, 44, 50
1, 336397, Note_off_c, 0, 46, 54
1, 336486, Note_off_c, 0, 44, 63
1, 336510, Note_on_c, 0, 43, 48
1, 336540, Control_c, 0, 64, 74
1, 336602, Note_off_c, 0, 43, 60
1, 336614, Control_c, 0, 64, 74
1, 336620, Note_on_c, 0, 42, 50
1, 336716, Note_off_c, 0, 42, 59
1, 336730, Note_on_c, 0, 41, 52
1, 336827, Note_off_c, 0, 41, 61
1, 336860, Note_on_c, 0, 40, 52
1, 336975, Note_off_c, 0, 40, 61
1, 336983, Note_on_c, 0, 39, 51
1, 337045, Control_c, 0, 64, 73
1, 337106, Note_on_c, 0, 37, 51
1, 337130, Note_off_c, 0, 39, 55
1, 337141, Control_c, 0, 64, 73
1, 337171, Control_c, 0, 64, 72
1, 337224, Note_off_c, 0, 37, 63
1, 337248, Note_on_c, 0, 36, 53
1, 337354, Note_off_c, 0, 36, 60
1, 337364, Note_on_c, 0, 34, 50
1, 337467, Note_off_c, 0, 34, 59
1, 337482, Control_c, 0, 64, 72
1, 337482, Note_on_c, 0, 32, 49
1, 337556, Control_c, 0, 64, 71
1, 337601, Control_c, 0, 64, 71
1, 337604, Note_off_c, 0, 32, 61
1, 337617, Note_on_c, 0, 31, 52
1, 337741, Note_on_c, 0, 32, 55
1, 337750, Control_c, 0, 64, 71
1, 337801, Note_off_c, 0, 31, 36
1, 337875, Note_on_c, 0, 34, 57
1, 337920, Control_c, 0, 64, 72
1, 337932, Note_off_c, 0, 32, 53
1, 337980, Control_c, 0, 64, 72
1, 338032, Note_off_c, 0, 34, 62
1, 338045, Note_on_c, 0, 36, 57
1, 338054, Control_c, 0, 64, 73
1, 338069, Control_c, 0, 64, 73
1, 338084, Control_c, 0, 64, 74
1, 338098, Control_c, 0, 64, 75
1, 338113, Control_c, 0, 64, 76
1, 338128, Control_c, 0, 64, 77
1, 338138, Note_off_c, 0, 36, 60
1, 338142, Control_c, 0, 64, 79
1, 338157, Control_c, 0, 64, 80
1, 338192, Note_on_c, 0, 36, 20
1, 338202, Control_c, 0, 64, 80
1, 338221, Note_off_c, 0, 36, 54
1, 338226, Note_on_c, 0, 35, 62
1, 338231, Control_c, 0, 64, 79
1, 338246, Control_c, 0, 64, 78
1, 338261, Control_c, 0, 64, 76
1, 338276, Control_c, 0, 64, 75
1, 338290, Control_c, 0, 64, 75
1, 338305, Control_c, 0, 64, 74
1, 338349, Control_c, 0, 64, 74
1, 338385, Note_off_c, 0, 35, 58
1, 338386, Note_on_c, 0, 36, 46
1, 338409, Control_c, 0, 64, 73
1, 338439, Control_c, 0, 64, 73
1, 338469, Control_c, 0, 64, 72
1, 338483, Control_c, 0, 64, 72
1, 338498, Control_c, 0, 64, 71
1, 338513, Control_c, 0, 64, 66
1, 338518, Note_off_c, 0, 36, 56
1, 338528, Control_c, 0, 64, 0
1, 338541, Note_on_c, 0, 35, 57
1, 338679, Note_off_c, 0, 35, 62
1, 338699, Note_on_c, 0, 36, 63
1, 338798, Note_off_c, 0, 36, 60
1, 338844, Note_on_c, 0, 29, 85
1, 338850, Note_on_c, 0, 53, 89
1, 338877, Control_c, 0, 64, 82
1, 338892, Control_c, 0, 64, 127
1, 338896, Note_on_c, 0, 51, 24
1, 338899, Note_on_c, 0, 52, 16
1, 338900, Note_off_c, 0, 52, 127
1, 338921, Control_c, 0, 64, 106
1, 338922, Note_on_c, 0, 36, 73
1, 338927, Note_on_c, 0, 48, 68
1, 338928, Note_off_c, 0, 53, 64
1, 338928, Note_off_c, 0, 29, 63
1, 338935, Note_off_c, 0, 51, 50
1, 338936, Control_c, 0, 64, 92
1, 338946, Poly_aftertouch_c, 0, 52, 0
1, 338951, Control_c, 0, 64, 90
1, 338965, Control_c, 0, 64, 88
1, 338974, Note_off_c, 0, 36, 60
1, 338980, Control_c, 0, 64, 87
1, 338987, Note_on_c, 0, 41, 76
1, 338987, Note_off_c, 0, 48, 62
1, 338991, Note_on_c, 0, 44, 74
1, 339038, Control_c, 0, 64, 87
1, 339040, Note_off_c, 0, 44, 62
1, 339041, Poly_aftertouch_c, 0, 47, 0
1, 339053, Note_off_c, 0, 41, 60
1, 339053, Control_c, 0, 64, 86
1, 339055, Note_on_c, 0, 36, 70
1, 339065, Note_on_c, 0, 48, 66
1, 339068, Control_c, 0, 64, 85
1, 339083, Control_c, 0, 64, 83
1, 339098, Control_c, 0, 64, 80
1, 339112, Control_c, 0, 64, 75
1, 339113, Note_off_c, 0, 36, 62
1, 339114, Note_on_c, 0, 29, 68
1, 339127, Note_on_c, 0, 53, 81
1, 339127, Control_c, 0, 64, 68
1, 339129, Note_off_c, 0, 48, 64
1, 339142, Control_c, 0, 64, 0
1, 339154, Note_off_c, 0, 29, 66
1, 339161, Note_off_c, 0, 53, 60
1, 339205, Note_on_c, 0, 36, 70
1, 339211, Note_on_c, 0, 48, 76
1, 339249, Note_off_c, 0, 48, 63
1, 339250, Note_off_c, 0, 36, 59
1, 339261, Note_on_c, 0, 29, 70
1, 339267, Note_on_c, 0, 56, 78
1, 339297, Note_off_c, 0, 56, 68
1, 339301, Note_off_c, 0, 29, 63
1, 339332, Note_on_c, 0, 48, 80
1, 339334, Note_on_c, 0, 36, 70
1, 339392, Note_off_c, 0, 36, 59
1, 339401, Note_off_c, 0, 48, 61
1, 339406, Note_on_c, 0, 55, 81
1, 339410, Note_on_c, 0, 29, 71
1, 339445, Note_off_c, 0, 55, 62
1, 339448, Note_off_c, 0, 29, 61
1, 339475, Note_on_c, 0, 48, 71
1, 339477, Note_on_c, 0, 36, 66
1, 339518, Note_off_c, 0, 36, 63
1, 339527, Note_on_c, 0, 29, 70
1, 339527, Note_off_c, 0, 48, 58
1, 339539, Note_on_c, 0, 53, 80
1, 339574, Note_off_c, 0, 29, 61
1, 339589, Note_off_c, 0, 53, 62
1, 339597, Note_on_c, 0, 36, 67
1, 339603, Note_on_c, 0, 48, 71
1, 339637, Note_off_c, 0, 36, 63
1, 339638, Note_off_c, 0, 48, 65
1, 339655, Note_on_c, 0, 29, 79
1, 339663, Note_on_c, 0, 53, 93
1, 339684, Control_c, 0, 64, 78
1, 339699, Control_c, 0, 64, 100
1, 339714, Control_c, 0, 64, 107
1, 339721, Note_on_c, 0, 48, 74
1, 339729, Control_c, 0, 64, 103
1, 339732, Note_on_c, 0, 36, 70
1, 339735, Note_off_c, 0, 29, 59
1, 339740, Note_off_c, 0, 53, 63
1, 339744, Control_c, 0, 64, 91
1, 339759, Control_c, 0, 64, 88
1, 339774, Control_c, 0, 64, 87
1, 339776, Note_off_c, 0, 36, 62
1, 339786, Note_off_c, 0, 48, 63
1, 339792, Note_on_c, 0, 44, 75
1, 339801, Note_on_c, 0, 41, 74
1, 339803, Control_c, 0, 64, 87
1, 339818, Control_c, 0, 64, 88
1, 339849, Note_off_c, 0, 44, 64
1, 339857, Note_off_c, 0, 41, 60
1, 339858, Note_on_c, 0, 36, 72
1, 339862, Control_c, 0, 64, 87
1, 339870, Note_on_c, 0, 48, 73
1, 339877, Control_c, 0, 64, 86
1, 339892, Control_c, 0, 64, 83
1, 339906, Control_c, 0, 64, 79
1, 339920, Note_on_c, 0, 29, 71
1, 339920, Note_off_c, 0, 36, 63
1, 339921, Control_c, 0, 64, 71
1, 339935, Note_on_c, 0, 53, 83
1, 339936, Control_c, 0, 64, 0
1, 339938, Note_off_c, 0, 48, 64
1, 339957, Note_off_c, 0, 29, 63
1, 339971, Note_off_c, 0, 53, 60
1, 340004, Note_on_c, 0, 36, 66
1, 340010, Note_on_c, 0, 48, 77
1, 340050, Note_off_c, 0, 48, 61
1, 340053, Note_off_c, 0, 36, 60
1, 340060, Note_on_c, 0, 29, 66
1, 340072, Note_on_c, 0, 56, 80
1, 340101, Note_off_c, 0, 29, 64
1, 340105, Note_off_c, 0, 56, 67
1, 340142, Note_on_c, 0, 48, 81
1, 340147, Note_on_c, 0, 36, 71
1, 340186, Note_off_c, 0, 36, 61
1, 340198, Note_off_c, 0, 48, 60
1, 340199, Note_on_c, 0, 29, 69
1, 340210, Note_on_c, 0, 55, 84
1, 340240, Note_off_c, 0, 29, 64
1, 340261, Note_off_c, 0, 55, 59
1, 340269, Note_on_c, 0, 36, 71
1, 340286, Note_on_c, 0, 48, 71
1, 340304, Note_off_c, 0, 36, 60
1, 340318, Note_on_c, 0, 29, 67
1, 340326, Note_off_c, 0, 48, 66
1, 340338, Note_on_c, 0, 53, 78
1, 340362, Note_off_c, 0, 29, 63
1, 340377, Note_off_c, 0, 53, 64
1, 340382, Note_on_c, 0, 36, 66
1, 340391, Note_on_c, 0, 48, 74
1, 340423, Note_off_c, 0, 36, 64
1, 340430, Note_off_c, 0, 48, 64
1, 340448, Note_on_c, 0, 29, 75
1, 340463, Note_on_c, 0, 61, 87
1, 340478, Control_c, 0, 64, 68
1, 340493, Control_c, 0, 64, 94
1, 340508, Control_c, 0, 64, 95
1, 340523, Control_c, 0, 64, 94
1, 340529, Note_on_c, 0, 56, 77
1, 340530, Note_on_c, 0, 37, 71
1, 340534, Note_off_c, 0, 29, 59
1, 340535, Note_off_c, 0, 61, 62
1, 340537, Control_c, 0, 64, 86
1, 340552, Control_c, 0, 64, 82
1, 340567, Control_c, 0, 64, 82
1, 340569, Note_off_c, 0, 37, 65
1, 340579, Note_off_c, 0, 56, 64
1, 340588, Note_on_c, 0, 41, 79
1, 340594, Note_on_c, 0, 53, 74
1, 340597, Control_c, 0, 64, 83
1, 340634, Note_off_c, 0, 41, 59
1, 340649, Note_on_c, 0, 37, 76
1, 340654, Note_off_c, 0, 53, 63
1, 340659, Note_on_c, 0, 56, 78
1, 340671, Control_c, 0, 64, 83
1, 340686, Control_c, 0, 64, 82
1, 340698, Note_off_c, 0, 37, 60
1, 340701, Control_c, 0, 64, 77
1, 340710, Note_on_c, 0, 29, 72
1, 340714, Note_off_c, 0, 56, 65
1, 340716, Control_c, 0, 64, 66
1, 340719, Note_on_c, 0, 61, 78
1, 340730, Control_c, 0, 64, 0
1, 340744, Note_off_c, 0, 61, 64
1, 340750, Note_off_c, 0, 29, 65
1, 340778, Note_on_c, 0, 56, 80
1, 340782, Note_on_c, 0, 37, 72
1, 340822, Note_off_c, 0, 37, 64
1, 340826, Note_off_c, 0, 56, 61
1, 340833, Note_on_c, 0, 29, 71
1, 340844, Note_on_c, 0, 65, 84
1, 340891, Note_off_c, 0, 29, 59
1, 340894, Note_off_c, 0, 65, 63
1, 340918, Note_on_c, 0, 56, 81
1, 340922, Note_on_c, 0, 37, 72
1, 340961, Note_off_c, 0, 37, 65
1, 340972, Note_off_c, 0, 56, 63
1, 340976, Note_on_c, 0, 29, 72
1, 340976, Note_on_c, 0, 63, 80
1, 341015, Note_off_c, 0, 29, 66
1, 341020, Note_off_c, 0, 63, 61
1, 341038, Note_on_c, 0, 37, 74
1, 341041, Note_on_c, 0, 56, 76
1, 341083, Note_off_c, 0, 37, 62
1, 341086, Note_off_c, 0, 56, 62
1, 341090, Note_on_c, 0, 29, 73
1, 341101, Note_on_c, 0, 61, 84
1, 341132, Note_off_c, 0, 61, 63
1, 341140, Note_off_c, 0, 29, 58
1, 341160, Note_on_c, 0, 37, 75
1, 341163, Note_on_c, 0, 56, 78
1, 341193, Note_off_c, 0, 37, 63
1, 341199, Note_off_c, 0, 56, 66
1, 341220, Note_on_c, 0, 29, 79
1, 341228, Note_on_c, 0, 61, 91
1, 341242, Control_c, 0, 64, 62
1, 341257, Control_c, 0, 64, 88
1, 341272, Control_c, 0, 64, 88
1, 341282, Note_on_c, 0, 37, 70
1, 341287, Control_c, 0, 64, 88
1, 341291, Note_off_c, 0, 29, 60
1, 341293, Note_on_c, 0, 56, 76
1, 341302, Control_c, 0, 64, 85
1, 341306, Note_off_c, 0, 61, 60
1, 341316, Control_c, 0, 64, 81
1, 341331, Control_c, 0, 64, 82
1, 341343, Note_off_c, 0, 37, 62
1, 341346, Note_off_c, 0, 56, 64
1, 341356, Note_on_c, 0, 53, 76
1, 341357, Note_on_c, 0, 41, 77
1, 341360, Control_c, 0, 64, 82
1, 341405, Note_off_c, 0, 41, 60
1, 341405, Control_c, 0, 64, 82
1, 341422, Note_on_c, 0, 37, 72
1, 341423, Note_off_c, 0, 53, 63
1, 341430, Note_on_c, 0, 56, 79
1, 341435, Control_c, 0, 64, 81
1, 341449, Control_c, 0, 64, 80
1, 341464, Note_off_c, 0, 37, 62
1, 341464, Control_c, 0, 64, 77
1, 341478, Note_on_c, 0, 29, 71
1, 341479, Control_c, 0, 64, 73
1, 341485, Note_on_c, 0, 61, 85
1, 341488, Note_off_c, 0, 56, 65
1, 341494, Control_c, 0, 64, 68
1, 341509, Control_c, 0, 64, 46
1, 341520, Note_off_c, 0, 29, 64
1, 341524, Control_c, 0, 64, 0
1, 341536, Note_off_c, 0, 61, 61
1, 341551, Note_on_c, 0, 37, 75
1, 341554, Note_on_c, 0, 56, 80
1, 341590, Note_off_c, 0, 37, 64
1, 341604, Note_on_c, 0, 29, 77
1, 341609, Note_off_c, 0, 56, 64
1, 341622, Note_on_c, 0, 65, 89
1, 341660, Note_off_c, 0, 29, 61
1, 341674, Note_off_c, 0, 65, 63
1, 341690, Note_on_c, 0, 37, 76
1, 341697, Note_on_c, 0, 56, 86
1, 341727, Note_off_c, 0, 37, 66
1, 341742, Note_on_c, 0, 29, 75
1, 341759, Note_on_c, 0, 63, 83
1, 341762, Note_off_c, 0, 56, 62
1, 341779, Note_off_c, 0, 29, 67
1, 341807, Note_off_c, 0, 63, 62
1, 341811, Note_on_c, 0, 37, 77
1, 341823, Note_on_c, 0, 56, 78
1, 341846, Note_off_c, 0, 37, 66
1, 341861, Note_on_c, 0, 29, 73
1, 341883, Note_off_c, 0, 56, 63
1, 341884, Note_on_c, 0, 61, 85
1, 341932, Control_c, 0, 64, 68
1, 341935, Note_off_c, 0, 61, 62
1, 341936, Note_off_c, 0, 29, 61
1, 341947, Note_on_c, 0, 37, 74
1, 341947, Control_c, 0, 64, 73
1, 341954, Note_on_c, 0, 56, 88
1, 341962, Control_c, 0, 64, 76
1, 341977, Control_c, 0, 64, 77
1, 341991, Control_c, 0, 64, 79
1, 342004, Control_c, 0, 64, 81
1, 342007, Note_off_c, 0, 37, 63
1, 342016, Note_off_c, 0, 56, 64
1, 342019, Control_c, 0, 64, 82
1, 342034, Control_c, 0, 64, 83
1, 342063, Control_c, 0, 64, 83
1, 342078, Control_c, 0, 64, 80
1, 342093, Control_c, 0, 64, 74
1, 342108, Control_c, 0, 64, 64
1, 342111, Note_on_c, 0, 70, 90
1, 342113, Note_on_c, 0, 42, 102
1, 342117, Note_on_c, 0, 30, 90
1, 342123, Control_c, 0, 64, 0
1, 342375, Control_c, 0, 64, 70
1, 342385, Note_on_c, 0, 73, 81
1, 342385, Note_off_c, 0, 70, 63
1, 342397, Control_c, 0, 64, 77
1, 342412, Control_c, 0, 64, 78
1, 342427, Control_c, 0, 64, 79
1, 342442, Control_c, 0, 64, 80
1, 342454, Note_off_c, 0, 73, 60
1, 342457, Control_c, 0, 64, 83
1, 342471, Control_c, 0, 64, 86
1, 342477, Note_on_c, 0, 70, 79
1, 342486, Control_c, 0, 64, 88
1, 342501, Control_c, 0, 64, 89
1, 342517, Control_c, 0, 64, 91
1, 342531, Control_c, 0, 64, 92
1, 342540, Note_off_c, 0, 70, 64
1, 342546, Control_c, 0, 64, 93
1, 342548, Note_on_c, 0, 73, 83
1, 342561, Control_c, 0, 64, 94
1, 342576, Control_c, 0, 64, 94
1, 342591, Control_c, 0, 64, 95
1, 342602, Note_off_c, 0, 73, 58
1, 342623, Note_on_c, 0, 70, 77
1, 342635, Control_c, 0, 64, 95
1, 342650, Control_c, 0, 64, 96
1, 342671, Note_off_c, 0, 70, 62
1, 342675, Note_on_c, 0, 73, 77
1, 342717, Note_off_c, 0, 73, 58
1, 342740, Note_on_c, 0, 70, 75
1, 342790, Note_off_c, 0, 70, 63
1, 342797, Note_on_c, 0, 73, 78
1, 342830, Note_off_c, 0, 73, 58
1, 342857, Control_c, 0, 64, 98
1, 342858, Note_on_c, 0, 70, 73
1, 342904, Note_on_c, 0, 73, 77
1, 342909, Note_off_c, 0, 70, 63
1, 342943, Note_off_c, 0, 73, 59
1, 342969, Note_on_c, 0, 70, 71
1, 342991, Control_c, 0, 64, 100
1, 343022, Note_off_c, 0, 70, 64
1, 343030, Note_on_c, 0, 73, 77
1, 343068, Note_off_c, 0, 73, 59
1, 343085, Note_on_c, 0, 70, 72
1, 343147, Note_off_c, 0, 70, 64
1, 343152, Note_on_c, 0, 73, 79
1, 343199, Note_off_c, 0, 73, 57
1, 343215, Note_on_c, 0, 70, 74
1, 343235, Note_off_c, 0, 42, 55
1, 343257, Note_off_c, 0, 30, 59
1, 343270, Note_off_c, 0, 70, 63
1, 343283, Note_on_c, 0, 73, 71
1, 343310, Control_c, 0, 64, 102
1, 343324, Note_off_c, 0, 73, 55
1, 343324, Control_c, 0, 64, 104
1, 343339, Note_on_c, 0, 70, 73
1, 343339, Control_c, 0, 64, 106
1, 343354, Control_c, 0, 64, 109
1, 343394, Note_off_c, 0, 70, 63
1, 343413, Note_on_c, 0, 73, 65
1, 343414, Control_c, 0, 64, 96
1, 343428, Control_c, 0, 64, 83
1, 343438, Note_off_c, 0, 73, 54
1, 343443, Control_c, 0, 64, 70
1, 343454, Note_on_c, 0, 31, 86
1, 343455, Note_on_c, 0, 43, 87
1, 343456, Note_on_c, 0, 70, 75
1, 343458, Control_c, 0, 64, 0
1, 343504, Note_off_c, 0, 43, 59
1, 343507, Note_on_c, 0, 73, 76
1, 343508, Note_off_c, 0, 31, 62
1, 343512, Note_off_c, 0, 70, 63
1, 343579, Note_on_c, 0, 34, 85
1, 343582, Note_off_c, 0, 73, 60
1, 343585, Note_on_c, 0, 67, 80
1, 343634, Note_off_c, 0, 67, 61
1, 343639, Note_on_c, 0, 70, 73
1, 343644, Note_off_c, 0, 34, 62
1, 343693, Note_off_c, 0, 70, 64
1, 343694, Note_on_c, 0, 37, 86
1, 343712, Note_on_c, 0, 64, 75
1, 343750, Note_off_c, 0, 64, 63
1, 343762, Note_off_c, 0, 37, 61
1, 343783, Note_on_c, 0, 67, 59
1, 343787, Note_on_c, 0, 65, 63
1, 343811, Note_on_c, 0, 40, 87
1, 343818, Note_off_c, 0, 65, 65
1, 343820, Note_off_c, 0, 67, 63
1, 343824, Note_on_c, 0, 61, 74
1, 343854, Note_off_c, 0, 40, 63
1, 343867, Note_off_c, 0, 61, 57
1, 343890, Note_on_c, 0, 64, 72
1, 343925, Note_off_c, 0, 64, 62
1, 343946, Note_on_c, 0, 58, 78
1, 343950, Note_on_c, 0, 43, 78
1, 343985, Note_off_c, 0, 43, 64
1, 343995, Note_off_c, 0, 58, 57
1, 344015, Note_on_c, 0, 61, 72
1, 344048, Note_off_c, 0, 61, 65
1, 344065, Note_on_c, 0, 46, 80
1, 344092, Note_on_c, 0, 55, 68
1, 344105, Note_on_c, 0, 57, 42
1, 344121, Note_off_c, 0, 46, 60
1, 344130, Note_off_c, 0, 55, 62
1, 344133, Note_off_c, 0, 57, 51
1, 344144, Note_on_c, 0, 58, 75
1, 344183, Note_off_c, 0, 58, 63
1, 344197, Note_on_c, 0, 49, 82
1, 344205, Note_on_c, 0, 53, 78
1, 344237, Note_off_c, 0, 49, 60
1, 344278, Note_on_c, 0, 55, 79
1, 344287, Note_off_c, 0, 53, 62
1, 344323, Note_on_c, 0, 49, 85
1, 344336, Note_off_c, 0, 55, 63
1, 344346, Note_on_c, 0, 58, 77
1, 344356, Control_c, 0, 64, 41
1, 344371, Control_c, 0, 64, 64
1, 344374, Note_off_c, 0, 49, 63
1, 344385, Control_c, 0, 64, 65
1, 344399, Note_off_c, 0, 58, 62
1, 344400, Control_c, 0, 64, 65
1, 344414, Note_on_c, 0, 55, 82
1, 344415, Control_c, 0, 64, 67
1, 344430, Control_c, 0, 64, 68
1, 344445, Control_c, 0, 64, 68
1, 344459, Control_c, 0, 64, 69
1, 344466, Note_on_c, 0, 49, 86
1, 344466, Note_off_c, 0, 55, 62
1, 344471, Note_on_c, 0, 53, 77
1, 344474, Control_c, 0, 64, 69
1, 344489, Control_c, 0, 64, 70
1, 344503, Control_c, 0, 64, 70
1, 344518, Control_c, 0, 64, 71
1, 344529, Note_off_c, 0, 49, 63
1, 344533, Control_c, 0, 64, 71
1, 344548, Control_c, 0, 64, 72
1, 344553, Note_on_c, 0, 55, 85
1, 344558, Note_off_c, 0, 53, 56
1, 344563, Control_c, 0, 64, 73
1, 344577, Control_c, 0, 64, 74
1, 344592, Control_c, 0, 64, 74
1, 344618, Note_off_c, 0, 55, 60
1, 344629, Control_c, 0, 64, 74
1, 344644, Control_c, 0, 64, 72
1, 344651, Note_on_c, 0, 49, 92
1, 344659, Control_c, 0, 64, 68
1, 344674, Control_c, 0, 64, 0
1, 344743, Note_on_c, 0, 53, 77
1, 344802, Note_off_c, 0, 53, 63
1, 344807, Control_c, 0, 64, 63
1, 344819, Note_on_c, 0, 58, 76
1, 344822, Control_c, 0, 64, 69
1, 344836, Control_c, 0, 64, 73
1, 344851, Control_c, 0, 64, 76
1, 344866, Control_c, 0, 64, 79
1, 344876, Note_off_c, 0, 58, 62
1, 344880, Note_on_c, 0, 55, 78
1, 344881, Control_c, 0, 64, 80
1, 344896, Control_c, 0, 64, 81
1, 344912, Control_c, 0, 64, 83
1, 344926, Control_c, 0, 64, 83
1, 344934, Note_off_c, 0, 55, 60
1, 344940, Note_on_c, 0, 53, 79
1, 344941, Control_c, 0, 64, 84
1, 344956, Control_c, 0, 64, 85
1, 344971, Control_c, 0, 64, 85
1, 344986, Control_c, 0, 64, 86
1, 345004, Note_on_c, 0, 58, 79
1, 345010, Note_off_c, 0, 53, 62
1, 345038, Note_off_c, 0, 49, 63
1, 345044, Control_c, 0, 64, 85
1, 345050, Note_off_c, 0, 58, 56
1, 345059, Control_c, 0, 64, 84
1, 345071, Note_on_c, 0, 48, 85
1, 345074, Control_c, 0, 64, 78
1, 345089, Control_c, 0, 64, 70
1, 345104, Control_c, 0, 64, 0
1, 345158, Note_on_c, 0, 52, 76
1, 345220, Note_off_c, 0, 52, 61
1, 345222, Control_c, 0, 64, 66
1, 345232, Note_on_c, 0, 58, 79
1, 345237, Control_c, 0, 64, 73
1, 345251, Control_c, 0, 64, 77
1, 345266, Control_c, 0, 64, 80
1, 345281, Control_c, 0, 64, 82
1, 345285, Note_off_c, 0, 48, 62
1, 345295, Note_off_c, 0, 58, 61
1, 345296, Note_on_c, 0, 55, 77
1, 345296, Control_c, 0, 64, 84
1, 345311, Control_c, 0, 64, 87
1, 345325, Control_c, 0, 64, 89
1, 345340, Control_c, 0, 64, 91
1, 345348, Note_off_c, 0, 55, 60
1, 345355, Control_c, 0, 64, 93
1, 345356, Note_on_c, 0, 52, 69
1, 345378, Control_c, 0, 64, 96
1, 345393, Control_c, 0, 64, 99
1, 345413, Note_on_c, 0, 58, 80
1, 345421, Note_off_c, 0, 52, 61
1, 345422, Control_c, 0, 64, 96
1, 345435, Note_off_c, 0, 58, 69
1, 345437, Control_c, 0, 64, 81
1, 345452, Control_c, 0, 64, 65
1, 345466, Control_c, 0, 64, 0
1, 345492, Note_on_c, 0, 41, 83
1, 345505, Note_on_c, 0, 65, 98
1, 345540, Control_c, 0, 64, 73
1, 345555, Control_c, 0, 64, 81
1, 345570, Note_on_c, 0, 60, 71
1, 345570, Control_c, 0, 64, 87
1, 345575, Note_on_c, 0, 48, 73
1, 345575, Note_off_c, 0, 41, 60
1, 345583, Note_off_c, 0, 65, 62
1, 345585, Control_c, 0, 64, 90
1, 345599, Control_c, 0, 64, 90
1, 345614, Control_c, 0, 64, 91
1, 345627, Note_off_c, 0, 48, 60
1, 345629, Note_off_c, 0, 60, 61
1, 345644, Note_on_c, 0, 56, 70
1, 345652, Note_on_c, 0, 53, 71
1, 345682, Note_off_c, 0, 56, 66
1, 345691, Note_off_c, 0, 53, 60
1, 345708, Note_on_c, 0, 60, 77
1, 345713, Note_on_c, 0, 48, 58
1, 345719, Control_c, 0, 64, 89
1, 345734, Control_c, 0, 64, 82
1, 345748, Control_c, 0, 64, 70
1, 345757, Note_off_c, 0, 48, 62
1, 345763, Control_c, 0, 64, 0
1, 345766, Note_on_c, 0, 41, 74
1, 345774, Note_off_c, 0, 60, 61
1, 345777, Note_on_c, 0, 65, 78
1, 345804, Note_off_c, 0, 41, 65
1, 345813, Note_off_c, 0, 65, 60
1, 345849, Note_on_c, 0, 48, 70
1, 345853, Note_on_c, 0, 60, 82
1, 345888, Note_off_c, 0, 48, 61
1, 345896, Note_off_c, 0, 60, 60
1, 345905, Note_on_c, 0, 41, 66
1, 345914, Note_on_c, 0, 68, 82
1, 345942, Note_off_c, 0, 41, 65
1, 345948, Note_off_c, 0, 68, 62
1, 345971, Note_on_c, 0, 60, 83
1, 345977, Note_on_c, 0, 48, 64
1, 346019, Note_off_c, 0, 48, 63
1, 346021, Note_off_c, 0, 60, 57
1, 346030, Note_on_c, 0, 41, 68
1, 346043, Note_on_c, 0, 67, 84
1, 346072, Note_off_c, 0, 67, 62
1, 346073, Note_off_c, 0, 41, 62
1, 346102, Note_on_c, 0, 60, 74
1, 346103, Note_on_c, 0, 48, 71
1, 346156, Note_off_c, 0, 48, 59
1, 346156, Note_off_c, 0, 60, 54
1, 346163, Note_on_c, 0, 41, 68
1, 346177, Note_on_c, 0, 65, 82
1, 346205, Note_off_c, 0, 41, 63
1, 346216, Note_off_c, 0, 65, 61
1, 346231, Note_on_c, 0, 60, 71
1, 346232, Note_on_c, 0, 48, 64
1, 346259, Note_off_c, 0, 60, 63
1, 346265, Note_off_c, 0, 48, 63
1, 346286, Note_on_c, 0, 41, 78
1, 346296, Note_on_c, 0, 65, 89
1, 346320, Control_c, 0, 64, 86
1, 346335, Control_c, 0, 64, 87
1, 346342, Note_on_c, 0, 60, 64
1, 346349, Control_c, 0, 64, 88
1, 346359, Note_on_c, 0, 48, 66
1, 346364, Note_off_c, 0, 41, 60
1, 346368, Note_off_c, 0, 65, 66
1, 346379, Control_c, 0, 64, 87
1, 346394, Control_c, 0, 64, 89
1, 346404, Note_off_c, 0, 48, 62
1, 346409, Control_c, 0, 64, 90
1, 346413, Note_off_c, 0, 60, 60
1, 346423, Control_c, 0, 64, 90
1, 346428, Note_on_c, 0, 56, 76
1, 346432, Note_on_c, 0, 53, 70
1, 346471, Note_off_c, 0, 56, 64
1, 346472, Note_off_c, 0, 53, 57
1, 346493, Note_on_c, 0, 60, 76
1, 346499, Note_on_c, 0, 48, 68
1, 346528, Control_c, 0, 64, 90
1, 346543, Note_off_c, 0, 48, 63
1, 346543, Control_c, 0, 64, 89
1, 346552, Note_on_c, 0, 41, 71
1, 346558, Control_c, 0, 64, 86
1, 346564, Note_on_c, 0, 65, 86
1, 346565, Note_off_c, 0, 60, 60
1, 346572, Control_c, 0, 64, 81
1, 346587, Control_c, 0, 64, 71
1, 346591, Note_off_c, 0, 41, 65
1, 346598, Note_off_c, 0, 65, 61
1, 346602, Control_c, 0, 64, 0
1, 346635, Note_on_c, 0, 60, 76
1, 346636, Note_on_c, 0, 48, 66
1, 346675, Note_off_c, 0, 48, 63
1, 346678, Note_off_c, 0, 60, 59
1, 346690, Note_on_c, 0, 41, 69
1, 346697, Note_on_c, 0, 68, 80
1, 346726, Note_off_c, 0, 41, 65
1, 346726, Note_off_c, 0, 68, 66
1, 346757, Note_on_c, 0, 60, 83
1, 346758, Note_on_c, 0, 48, 63
1, 346803, Note_off_c, 0, 48, 60
1, 346809, Note_on_c, 0, 41, 68
1, 346813, Note_off_c, 0, 60, 59
1, 346821, Note_on_c, 0, 67, 88
1, 346853, Note_off_c, 0, 41, 63
1, 346865, Note_off_c, 0, 67, 60
1, 346899, Note_on_c, 0, 48, 67
1, 346907, Note_on_c, 0, 60, 67
1, 346937, Note_off_c, 0, 48, 62
1, 346943, Note_on_c, 0, 41, 68
1, 346943, Note_off_c, 0, 60, 60
1, 346953, Note_on_c, 0, 65, 76
1, 346985, Note_off_c, 0, 41, 63
1, 346989, Note_off_c, 0, 65, 61
1, 347003, Note_on_c, 0, 48, 69
1, 347013, Note_on_c, 0, 60, 77
1, 347042, Note_off_c, 0, 48, 63
1, 347046, Note_off_c, 0, 60, 59
1, 347063, Note_on_c, 0, 41, 73
1, 347077, Note_on_c, 0, 73, 93
1, 347098, Control_c, 0, 64, 66
1, 347113, Control_c, 0, 64, 88
1, 347137, Note_on_c, 0, 49, 72
1, 347144, Note_off_c, 0, 41, 59
1, 347147, Note_on_c, 0, 68, 80
1, 347157, Note_off_c, 0, 73, 62
1, 347158, Control_c, 0, 64, 88
1, 347173, Control_c, 0, 64, 86
1, 347177, Note_off_c, 0, 49, 65
1, 347187, Control_c, 0, 64, 87
1, 347200, Note_off_c, 0, 68, 63
1, 347201, Note_on_c, 0, 53, 76
1, 347211, Note_on_c, 0, 65, 77
1, 347231, Control_c, 0, 64, 87
1, 347245, Note_off_c, 0, 53, 61
1, 347262, Note_on_c, 0, 49, 69
1, 347271, Note_off_c, 0, 65, 58
1, 347272, Note_on_c, 0, 68, 81
1, 347313, Note_off_c, 0, 49, 62
1, 347321, Control_c, 0, 64, 87
1, 347329, Note_on_c, 0, 41, 64
1, 347334, Note_on_c, 0, 73, 85
1, 347334, Note_off_c, 0, 68, 62
1, 347336, Control_c, 0, 64, 86
1, 347351, Control_c, 0, 64, 86
1, 347355, Note_off_c, 0, 41, 58
1, 347360, Note_on_c, 0, 43, 38
1, 347365, Note_off_c, 0, 73, 64
1, 347366, Control_c, 0, 64, 83
1, 347381, Control_c, 0, 64, 78
1, 347387, Note_on_c, 0, 49, 72
1, 347395, Note_on_c, 0, 68, 81
1, 347395, Note_off_c, 0, 43, 32
1, 347395, Control_c, 0, 64, 69
1, 347410, Control_c, 0, 64, 0
1, 347430, Note_off_c, 0, 49, 64
1, 347444, Note_on_c, 0, 41, 68
1, 347446, Note_off_c, 0, 68, 64
1, 347462, Note_on_c, 0, 77, 89
1, 347489, Note_off_c, 0, 41, 60
1, 347506, Note_off_c, 0, 77, 60
1, 347515, Note_on_c, 0, 49, 72
1, 347531, Note_on_c, 0, 68, 83
1, 347551, Note_off_c, 0, 49, 65
1, 347576, Note_on_c, 0, 41, 72
1, 347578, Note_off_c, 0, 68, 61
1, 347582, Note_on_c, 0, 75, 85
1, 347625, Note_off_c, 0, 41, 64
1, 347638, Note_off_c, 0, 75, 62
1, 347647, Note_on_c, 0, 49, 71
1, 347658, Note_on_c, 0, 68, 77
1, 347676, Note_off_c, 0, 49, 64
1, 347701, Note_on_c, 0, 41, 75
1, 347704, Note_off_c, 0, 68, 60
1, 347712, Note_on_c, 0, 73, 85
1, 347748, Note_off_c, 0, 73, 59
1, 347755, Note_off_c, 0, 41, 62
1, 347760, Note_on_c, 0, 49, 62
1, 347776, Note_on_c, 0, 68, 77
1, 347808, Note_off_c, 0, 49, 64
1, 347819, Note_off_c, 0, 68, 61
1, 347837, Note_on_c, 0, 41, 81
1, 347843, Note_on_c, 0, 73, 95
1, 347861, Control_c, 0, 64, 64
1, 347876, Control_c, 0, 64, 86
1, 347891, Control_c, 0, 64, 87
1, 347904, Note_off_c, 0, 41, 60
1, 347908, Note_on_c, 0, 49, 79
1, 347909, Note_on_c, 0, 68, 82
1, 347920, Note_off_c, 0, 73, 61
1, 347921, Control_c, 0, 64, 86
1, 347936, Control_c, 0, 64, 84
1, 347951, Control_c, 0, 64, 85
1, 347961, Note_off_c, 0, 49, 62
1, 347962, Note_off_c, 0, 68, 64
1, 347968, Note_on_c, 0, 65, 80
1, 347975, Note_on_c, 0, 53, 80
1, 347981, Control_c, 0, 64, 85
1, 348016, Note_off_c, 0, 53, 58
1, 348030, Note_off_c, 0, 65, 59
1, 348034, Note_on_c, 0, 49, 72
1, 348036, Note_on_c, 0, 68, 83
1, 348089, Note_off_c, 0, 49, 63
1, 348091, Note_on_c, 0, 41, 78
1, 348098, Note_on_c, 0, 73, 88
1, 348100, Control_c, 0, 64, 85
1, 348105, Note_off_c, 0, 68, 63
1, 348130, Control_c, 0, 64, 84
1, 348136, Note_off_c, 0, 41, 63
1, 348145, Note_off_c, 0, 73, 61
1, 348145, Control_c, 0, 64, 83
1, 348159, Control_c, 0, 64, 81
1, 348168, Note_on_c, 0, 49, 77
1, 348169, Note_on_c, 0, 68, 81
1, 348174, Control_c, 0, 64, 77
1, 348189, Control_c, 0, 64, 73
1, 348204, Note_off_c, 0, 49, 65
1, 348204, Control_c, 0, 64, 67
1, 348218, Note_on_c, 0, 41, 77
1, 348219, Control_c, 0, 64, 38
1, 348219, Note_off_c, 0, 68, 63
1, 348231, Note_on_c, 0, 77, 91
1, 348234, Control_c, 0, 64, 0
1, 348266, Note_off_c, 0, 41, 63
1, 348275, Note_off_c, 0, 77, 62
1, 348292, Note_on_c, 0, 49, 76
1, 348298, Note_on_c, 0, 68, 87
1, 348332, Note_off_c, 0, 49, 63
1, 348342, Note_on_c, 0, 41, 78
1, 348360, Note_on_c, 0, 75, 85
1, 348373, Note_off_c, 0, 68, 62
1, 348398, Note_off_c, 0, 41, 62
1, 348418, Note_off_c, 0, 75, 63
1, 348423, Note_on_c, 0, 49, 76
1, 348434, Note_on_c, 0, 68, 84
1, 348458, Note_off_c, 0, 49, 66
1, 348475, Note_on_c, 0, 41, 73
1, 348496, Note_on_c, 0, 73, 87
1, 348507, Note_off_c, 0, 68, 61
1, 348551, Note_off_c, 0, 73, 62
1, 348552, Control_c, 0, 64, 66
1, 348559, Note_on_c, 0, 49, 80
1, 348562, Note_on_c, 0, 68, 89
1, 348566, Note_off_c, 0, 41, 62
1, 348567, Control_c, 0, 64, 80
1, 348582, Control_c, 0, 64, 82
1, 348596, Control_c, 0, 64, 86
1, 348611, Control_c, 0, 64, 86
1, 348623, Note_off_c, 0, 49, 63
1, 348626, Note_off_c, 0, 68, 63
1, 348626, Control_c, 0, 64, 89
1, 348641, Control_c, 0, 64, 91
1, 348656, Control_c, 0, 64, 92
1, 348685, Control_c, 0, 64, 92
1, 348700, Control_c, 0, 64, 89
1, 348711, Note_on_c, 0, 82, 95
1, 348715, Control_c, 0, 64, 83
1, 348717, Note_on_c, 0, 54, 104
1, 348720, Note_on_c, 0, 42, 94
1, 348730, Control_c, 0, 64, 72
1, 348745, Control_c, 0, 64, 62
1, 348759, Control_c, 0, 64, 0
1, 348976, Note_on_c, 0, 85, 79
1, 348984, Note_off_c, 0, 82, 62
1, 349069, Note_off_c, 0, 85, 61
1, 349072, Control_c, 0, 64, 70
1, 349076, Note_on_c, 0, 82, 80
1, 349087, Control_c, 0, 64, 73
1, 349101, Control_c, 0, 64, 77
1, 349123, Control_c, 0, 64, 84
1, 349138, Control_c, 0, 64, 91
1, 349153, Control_c, 0, 64, 98
1, 349155, Note_off_c, 0, 82, 62
1, 349164, Note_on_c, 0, 85, 84
1, 349168, Control_c, 0, 64, 103
1, 349182, Control_c, 0, 64, 107
1, 349197, Control_c, 0, 64, 110
1, 349212, Control_c, 0, 64, 112
1, 349222, Note_off_c, 0, 85, 59
1, 349227, Control_c, 0, 64, 115
1, 349233, Note_on_c, 0, 82, 81
1, 349242, Control_c, 0, 64, 117
1, 349287, Note_off_c, 0, 82, 63
1, 349292, Note_on_c, 0, 85, 75
1, 349336, Note_off_c, 0, 85, 58
1, 349354, Note_on_c, 0, 82, 79
1, 349361, Control_c, 0, 64, 115
1, 349390, Control_c, 0, 64, 112
1, 349404, Note_off_c, 0, 82, 63
1, 349405, Control_c, 0, 64, 110
1, 349411, Note_on_c, 0, 85, 77
1, 349434, Control_c, 0, 64, 107
1, 349443, Note_off_c, 0, 85, 59
1, 349464, Control_c, 0, 64, 105
1, 349466, Note_on_c, 0, 82, 74
1, 349516, Note_on_c, 0, 85, 81
1, 349518, Note_off_c, 0, 82, 63
1, 349552, Control_c, 0, 64, 103
1, 349555, Note_off_c, 0, 85, 58
1, 349575, Note_on_c, 0, 82, 74
1, 349581, Control_c, 0, 64, 101
1, 349632, Note_off_c, 0, 82, 63
1, 349635, Note_on_c, 0, 85, 83
1, 349672, Note_off_c, 0, 85, 60
1, 349694, Note_on_c, 0, 82, 76
1, 349746, Note_off_c, 0, 82, 63
1, 349748, Note_on_c, 0, 85, 82
1, 349783, Note_off_c, 0, 85, 60
1, 349807, Note_on_c, 0, 82, 72
1, 349860, Note_on_c, 0, 85, 78
1, 349861, Note_off_c, 0, 82, 63
1, 349864, Control_c, 0, 64, 103
1, 349886, Control_c, 0, 64, 106
1, 349901, Note_off_c, 0, 85, 61
1, 349901, Control_c, 0, 64, 112
1, 349916, Control_c, 0, 64, 127
1, 349925, Note_off_c, 0, 54, 60
1, 349926, Note_off_c, 0, 42, 57
1, 349927, Note_on_c, 0, 82, 72
1, 349979, Note_on_c, 0, 85, 78
1, 349983, Note_off_c, 0, 82, 62
1, 349990, Control_c, 0, 64, 83
1, 350005, Control_c, 0, 64, 0
1, 350007, Note_off_c, 0, 85, 65
1, 350036, Note_on_c, 0, 55, 85
1, 350037, Note_on_c, 0, 43, 84
1, 350037, Note_on_c, 0, 82, 77
1, 350079, Control_c, 0, 64, 71
1, 350079, Note_off_c, 0, 43, 59
1, 350082, Note_off_c, 0, 55, 63
1, 350094, Control_c, 0, 64, 83
1, 350096, Note_on_c, 0, 85, 75
1, 350097, Note_off_c, 0, 82, 63
1, 350109, Control_c, 0, 64, 93
1, 350122, Note_off_c, 0, 85, 63
1, 350123, Control_c, 0, 64, 97
1, 350161, Note_on_c, 0, 82, 74
1, 350166, Note_on_c, 0, 46, 87
1, 350166, Note_on_c, 0, 58, 88
1, 350168, Control_c, 0, 64, 100
1, 350183, Control_c, 0, 64, 105
1, 350195, Note_off_c, 0, 58, 62
1, 350197, Control_c, 0, 64, 113
1, 350201, Note_off_c, 0, 46, 61
1, 350212, Control_c, 0, 64, 121
1, 350215, Note_on_c, 0, 85, 74
1, 350216, Note_off_c, 0, 82, 63
1, 350227, Control_c, 0, 64, 127
1, 350265, Note_off_c, 0, 85, 60
1, 350284, Note_on_c, 0, 82, 75
1, 350291, Note_on_c, 0, 49, 87
1, 350293, Note_on_c, 0, 61, 85
1, 350324, Note_off_c, 0, 61, 58
1, 350327, Note_off_c, 0, 49, 61
1, 350336, Note_off_c, 0, 82, 63
1, 350349, Note_on_c, 0, 85, 70
1, 350381, Note_off_c, 0, 85, 63
1, 350399, Note_on_c, 0, 82, 75
1, 350407, Note_on_c, 0, 52, 85
1, 350409, Note_on_c, 0, 64, 89
1, 350440, Note_off_c, 0, 52, 62
1, 350443, Note_off_c, 0, 64, 63
1, 350452, Note_off_c, 0, 82, 63
1, 350460, Note_on_c, 0, 85, 82
1, 350528, Note_off_c, 0, 85, 61
1, 350529, Note_on_c, 0, 55, 88
1, 350529, Note_on_c, 0, 67, 85
1, 350538, Note_on_c, 0, 79, 82
1, 350559, Note_off_c, 0, 55, 64
1, 350562, Note_off_c, 0, 67, 65
1, 350591, Note_on_c, 0, 82, 77
1, 350597, Note_off_c, 0, 79, 63
1, 350651, Note_off_c, 0, 82, 62
1, 350653, Note_on_c, 0, 58, 85
1, 350656, Note_on_c, 0, 70, 91
1, 350666, Note_on_c, 0, 77, 82
1, 350680, Note_off_c, 0, 58, 65
1, 350681, Note_off_c, 0, 70, 65
1, 350730, Note_on_c, 0, 79, 83
1, 350738, Note_off_c, 0, 77, 59
1, 350778, Note_on_c, 0, 61, 86
1, 350779, Note_on_c, 0, 73, 87
1, 350787, Note_off_c, 0, 79, 62
1, 350798, Note_on_c, 0, 77, 78
1, 350824, Note_off_c, 0, 73, 60
1, 350827, Note_off_c, 0, 61, 61
1, 350866, Note_on_c, 0, 79, 89
1, 350869, Note_off_c, 0, 77, 62
1, 350917, Note_on_c, 0, 73, 96
1, 350921, Note_on_c, 0, 82, 82
1, 350921, Note_off_c, 0, 79, 64
1, 350922, Note_on_c, 0, 61, 87
1, 350959, Note_off_c, 0, 73, 62
1, 350973, Note_off_c, 0, 61, 60
1, 350989, Note_on_c, 0, 79, 85
1, 350994, Note_off_c, 0, 82, 62
1, 351043, Note_off_c, 0, 79, 63
1, 351054, Note_on_c, 0, 73, 94
1, 351057, Note_on_c, 0, 77, 84
1, 351060, Note_on_c, 0, 61, 90
1, 351102, Note_off_c, 0, 73, 60
1, 351109, Note_off_c, 0, 61, 61
1, 351132, Note_on_c, 0, 79, 93
1, 351141, Note_off_c, 0, 77, 61
1, 351196, Note_off_c, 0, 79, 58
1, 351257, Note_on_c, 0, 73, 99
1, 351258, Control_c, 0, 64, 116
1, 351263, Note_on_c, 0, 61, 90
1, 351272, Control_c, 0, 64, 98
1, 351288, Control_c, 0, 64, 82
1, 351303, Control_c, 0, 64, 67
1, 351318, Control_c, 0, 64, 0
1, 351336, Note_on_c, 0, 77, 70
1, 351416, Note_off_c, 0, 77, 60
1, 351421, Note_on_c, 0, 82, 71
1, 351429, Control_c, 0, 64, 57
1, 351444, Control_c, 0, 64, 74
1, 351459, Control_c, 0, 64, 81
1, 351474, Control_c, 0, 64, 90
1, 351479, Note_on_c, 0, 79, 79
1, 351485, Note_off_c, 0, 82, 62
1, 351489, Control_c, 0, 64, 96
1, 351504, Control_c, 0, 64, 100
1, 351519, Control_c, 0, 64, 106
1, 351534, Control_c, 0, 64, 113
1, 351536, Note_off_c, 0, 79, 62
1, 351544, Note_on_c, 0, 77, 78
1, 351549, Control_c, 0, 64, 120
1, 351564, Control_c, 0, 64, 127
1, 351591, Note_on_c, 0, 82, 81
1, 351605, Note_off_c, 0, 77, 60
1, 351627, Note_off_c, 0, 73, 58
1, 351642, Note_off_c, 0, 61, 57
1, 351645, Note_off_c, 0, 82, 61
1, 351658, Note_on_c, 0, 72, 80
1, 351665, Note_on_c, 0, 60, 73
1, 351667, Control_c, 0, 64, 113
1, 351682, Control_c, 0, 64, 94
1, 351696, Control_c, 0, 64, 76
1, 351711, Control_c, 0, 64, 0
1, 351725, Note_on_c, 0, 76, 73
1, 351781, Note_off_c, 0, 76, 59
1, 351791, Note_on_c, 0, 82, 77
1, 351800, Control_c, 0, 64, 67
1, 351815, Control_c, 0, 64, 72
1, 351829, Control_c, 0, 64, 76
1, 351843, Note_off_c, 0, 82, 61
1, 351844, Control_c, 0, 64, 80
1, 351855, Note_on_c, 0, 79, 70
1, 351859, Control_c, 0, 64, 82
1, 351874, Control_c, 0, 64, 84
1, 351889, Control_c, 0, 64, 87
1, 351903, Control_c, 0, 64, 89
1, 351906, Note_off_c, 0, 79, 63
1, 351909, Note_on_c, 0, 76, 70
1, 351918, Control_c, 0, 64, 93
1, 351933, Control_c, 0, 64, 96
1, 351936, Note_off_c, 0, 72, 59
1, 351948, Control_c, 0, 64, 99
1, 351950, Note_on_c, 0, 82, 80
1, 351952, Note_off_c, 0, 76, 59
1, 351963, Control_c, 0, 64, 102
1, 351978, Control_c, 0, 64, 106
1, 351993, Note_off_c, 0, 82, 53
1, 352012, Note_on_c, 0, 65, 93
1, 352022, Control_c, 0, 64, 96
1, 352037, Control_c, 0, 64, 82
1, 352041, Note_off_c, 0, 60, 58
1, 352052, Control_c, 0, 64, 66
1, 352067, Control_c, 0, 64, 0
1, 352083, Note_on_c, 0, 73, 66
1, 352154, Note_off_c, 0, 73, 59
1, 352157, Note_on_c, 0, 82, 72
1, 352164, Control_c, 0, 64, 62
1, 352179, Control_c, 0, 64, 70
1, 352193, Control_c, 0, 64, 76
1, 352208, Control_c, 0, 64, 83
1, 352219, Note_off_c, 0, 82, 62
1, 352223, Control_c, 0, 64, 88
1, 352231, Note_on_c, 0, 79, 65
1, 352238, Control_c, 0, 64, 91
1, 352252, Control_c, 0, 64, 96
1, 352267, Control_c, 0, 64, 102
1, 352269, Note_on_c, 0, 73, 73
1, 352281, Note_off_c, 0, 79, 57
1, 352282, Control_c, 0, 64, 108
1, 352297, Control_c, 0, 64, 117
1, 352312, Control_c, 0, 64, 127
1, 352320, Note_on_c, 0, 82, 77
1, 352332, Note_off_c, 0, 73, 61
1, 352363, Note_off_c, 0, 82, 56
1, 352371, Control_c, 0, 64, 107
1, 352378, Note_on_c, 0, 64, 85
1, 352386, Control_c, 0, 64, 88
1, 352389, Note_off_c, 0, 65, 64
1, 352401, Control_c, 0, 64, 67
1, 352416, Control_c, 0, 64, 0
1, 352459, Note_on_c, 0, 72, 71
1, 352475, Control_c, 0, 64, 65
1, 352490, Control_c, 0, 64, 74
1, 352493, Note_off_c, 0, 64, 65
1, 352505, Control_c, 0, 64, 84
1, 352517, Note_off_c, 0, 72, 53
1, 352519, Control_c, 0, 64, 94
1, 352522, Note_on_c, 0, 82, 72
1, 352534, Control_c, 0, 64, 100
1, 352549, Control_c, 0, 64, 104
1, 352564, Control_c, 0, 64, 110
1, 352577, Note_on_c, 0, 79, 75
1, 352578, Control_c, 0, 64, 120
1, 352582, Note_off_c, 0, 82, 63
1, 352593, Control_c, 0, 64, 127
1, 352627, Note_on_c, 0, 72, 78
1, 352629, Note_off_c, 0, 79, 62
1, 352674, Note_off_c, 0, 72, 63
1, 352683, Note_on_c, 0, 82, 86
1, 352732, Note_off_c, 0, 82, 63
1, 352751, Note_on_c, 0, 73, 98
1, 352756, Control_c, 0, 64, 106
1, 352771, Control_c, 0, 64, 85
1, 352786, Control_c, 0, 64, 65
1, 352801, Control_c, 0, 64, 0
1, 352826, Note_on_c, 0, 77, 76
1, 352896, Note_off_c, 0, 77, 59
1, 352898, Control_c, 0, 64, 69
1, 352899, Note_on_c, 0, 82, 73
1, 352913, Control_c, 0, 64, 75
1, 352928, Control_c, 0, 64, 80
1, 352942, Control_c, 0, 64, 86
1, 352956, Note_on_c, 0, 79, 81
1, 352957, Note_off_c, 0, 82, 62
1, 352957, Control_c, 0, 64, 90
1, 352972, Control_c, 0, 64, 96
1, 352987, Control_c, 0, 64, 104
1, 353001, Control_c, 0, 64, 111
1, 353003, Note_off_c, 0, 79, 63
1, 353009, Note_on_c, 0, 77, 80
1, 353016, Control_c, 0, 64, 119
1, 353031, Control_c, 0, 64, 127
1, 353069, Note_on_c, 0, 82, 76
1, 353077, Note_off_c, 0, 77, 60
1, 353090, Control_c, 0, 64, 115
1, 353105, Control_c, 0, 64, 97
1, 353120, Control_c, 0, 64, 81
1, 353124, Note_off_c, 0, 82, 60
1, 353127, Note_on_c, 0, 72, 83
1, 353135, Control_c, 0, 64, 64
1, 353149, Control_c, 0, 64, 0
1, 353197, Note_on_c, 0, 76, 75
1, 353238, Control_c, 0, 64, 69
1, 353242, Note_off_c, 0, 73, 48
1, 353253, Control_c, 0, 64, 75
1, 353255, Note_off_c, 0, 72, 63
1, 353257, Note_off_c, 0, 76, 60
1, 353261, Note_on_c, 0, 82, 79
1, 353267, Control_c, 0, 64, 81
1, 353282, Control_c, 0, 64, 86
1, 353297, Control_c, 0, 64, 89
1, 353312, Control_c, 0, 64, 93
1, 353327, Control_c, 0, 64, 96
1, 353334, Note_on_c, 0, 79, 75
1, 353334, Note_off_c, 0, 82, 62
1, 353341, Control_c, 0, 64, 100
1, 353356, Control_c, 0, 64, 103
1, 353371, Control_c, 0, 64, 107
1, 353383, Note_on_c, 0, 76, 73
1, 353383, Note_off_c, 0, 79, 61
1, 353386, Control_c, 0, 64, 111
1, 353400, Control_c, 0, 64, 116
1, 353415, Control_c, 0, 64, 127
1, 353426, Note_off_c, 0, 76, 63
1, 353440, Note_on_c, 0, 82, 84
1, 353472, Note_off_c, 0, 82, 62
1, 353474, Control_c, 0, 64, 107
1, 353489, Control_c, 0, 64, 85
1, 353504, Control_c, 0, 64, 30
1, 353505, Note_on_c, 0, 71, 77
1, 353519, Control_c, 0, 64, 0
1, 353567, Note_on_c, 0, 74, 70
1, 353593, Control_c, 0, 64, 64
1, 353608, Control_c, 0, 64, 76
1, 353630, Control_c, 0, 64, 86
1, 353633, Note_on_c, 0, 77, 82
1, 353637, Note_off_c, 0, 71, 63
1, 353645, Control_c, 0, 64, 95
1, 353660, Control_c, 0, 64, 100
1, 353671, Note_off_c, 0, 74, 61
1, 353674, Control_c, 0, 64, 102
1, 353689, Note_on_c, 0, 80, 84
1, 353690, Control_c, 0, 64, 105
1, 353705, Control_c, 0, 64, 108
1, 353720, Control_c, 0, 64, 112
1, 353735, Control_c, 0, 64, 118
1, 353738, Note_on_c, 0, 83, 74
1, 353740, Note_off_c, 0, 77, 52
1, 353750, Control_c, 0, 64, 127
1, 353770, Note_off_c, 0, 80, 61
1, 353790, Note_on_c, 0, 86, 75
1, 353792, Note_off_c, 0, 83, 63
1, 353842, Note_off_c, 0, 86, 62
1, 353843, Note_on_c, 0, 89, 83
1, 353913, Note_on_c, 0, 86, 84
1, 353917, Note_off_c, 0, 89, 63
1, 353959, Note_off_c, 0, 86, 64
1, 353965, Note_on_c, 0, 83, 81
1, 354012, Note_off_c, 0, 83, 61
1, 354024, Note_on_c, 0, 92, 84
1, 354088, Note_on_c, 0, 91, 79
1, 354096, Note_off_c, 0, 92, 62
1, 354150, Note_on_c, 0, 89, 87
1, 354168, Note_off_c, 0, 91, 63
1, 354194, Control_c, 0, 64, 99
1, 354208, Note_off_c, 0, 89, 62
1, 354208, Control_c, 0, 64, 73
1, 354214, Note_on_c, 0, 88, 76
1, 354220, Note_on_c, 0, 72, 73
1, 354223, Control_c, 0, 64, 0
1, 354251, Note_off_c, 0, 88, 65
1, 354256, Note_on_c, 0, 76, 73
1, 354270, Note_on_c, 0, 91, 85
1, 354297, Control_c, 0, 64, 68
1, 354312, Control_c, 0, 64, 76
1, 354315, Note_on_c, 0, 79, 78
1, 354326, Note_on_c, 0, 89, 75
1, 354327, Control_c, 0, 64, 84
1, 354342, Control_c, 0, 64, 91
1, 354356, Note_off_c, 0, 91, 63
1, 354357, Control_c, 0, 64, 94
1, 354379, Control_c, 0, 64, 97
1, 354394, Control_c, 0, 64, 100
1, 354399, Note_on_c, 0, 88, 73
1, 354400, Note_off_c, 0, 79, 60
1, 354409, Control_c, 0, 64, 103
1, 354413, Note_off_c, 0, 89, 63
1, 354423, Control_c, 0, 64, 106
1, 354433, Note_off_c, 0, 72, 54
1, 354438, Control_c, 0, 64, 109
1, 354449, Note_off_c, 0, 88, 64
1, 354453, Note_on_c, 0, 85, 81
1, 354453, Control_c, 0, 64, 114
1, 354468, Control_c, 0, 64, 127
1, 354480, Note_off_c, 0, 76, 57
1, 354494, Note_off_c, 0, 85, 61
1, 354519, Note_on_c, 0, 84, 69
1, 354550, Note_off_c, 0, 84, 59
1, 354571, Note_on_c, 0, 82, 77
1, 354622, Note_off_c, 0, 82, 61
1, 354634, Note_on_c, 0, 85, 73
1, 354701, Note_on_c, 0, 84, 67
1, 354746, Note_off_c, 0, 85, 58
1, 354766, Note_on_c, 0, 82, 71
1, 354767, Note_off_c, 0, 84, 64
1, 354819, Note_off_c, 0, 82, 60
1, 354828, Note_on_c, 0, 80, 66
1, 354852, Note_off_c, 0, 80, 68
1, 354890, Note_on_c, 0, 79, 66
1, 354917, Note_off_c, 0, 79, 65
1, 354944, Control_c, 0, 64, 107
1, 354958, Control_c, 0, 64, 87
1, 354973, Control_c, 0, 64, 67
1, 354988, Control_c, 0, 64, 0
1, 354991, Note_on_c, 0, 68, 38
1, 354992, Note_on_c, 0, 65, 40
1, 355083, Note_on_c, 0, 77, 51
1, 355129, Note_off_c, 0, 77, 59
1, 355129, Control_c, 0, 64, 65
1, 355135, Note_on_c, 0, 80, 62
1, 355144, Control_c, 0, 64, 69
1, 355159, Control_c, 0, 64, 71
1, 355164, Note_off_c, 0, 80, 64
1, 355173, Control_c, 0, 64, 72
1, 355188, Control_c, 0, 64, 75
1, 355202, Note_on_c, 0, 84, 55
1, 355203, Control_c, 0, 64, 78
1, 355218, Control_c, 0, 64, 81
1, 355233, Control_c, 0, 64, 82
1, 355239, Note_off_c, 0, 84, 62
1, 355247, Control_c, 0, 64, 83
1, 355261, Note_on_c, 0, 89, 59
1, 355262, Control_c, 0, 64, 84
1, 355277, Control_c, 0, 64, 85
1, 355281, Note_off_c, 0, 89, 61
1, 355293, Control_c, 0, 64, 86
1, 355308, Control_c, 0, 64, 86
1, 355323, Note_on_c, 0, 77, 55
1, 355337, Control_c, 0, 64, 85
1, 355343, Note_off_c, 0, 77, 58
1, 355352, Control_c, 0, 64, 81
1, 355361, Note_off_c, 0, 65, 58
1, 355367, Control_c, 0, 64, 70
1, 355380, Note_off_c, 0, 68, 43
1, 355382, Control_c, 0, 64, 0
1, 355385, Note_on_c, 0, 73, 52
1, 355386, Note_on_c, 0, 70, 44
1, 355500, Control_c, 0, 64, 46
1, 355515, Control_c, 0, 64, 68
1, 355530, Control_c, 0, 64, 70
1, 355544, Control_c, 0, 64, 72
1, 355559, Control_c, 0, 64, 73
1, 355560, Note_on_c, 0, 89, 59
1, 355574, Control_c, 0, 64, 75
1, 355579, Note_off_c, 0, 89, 65
1, 355588, Control_c, 0, 64, 78
1, 355603, Control_c, 0, 64, 80
1, 355617, Note_on_c, 0, 77, 57
1, 355618, Control_c, 0, 64, 81
1, 355633, Control_c, 0, 64, 83
1, 355645, Note_off_c, 0, 73, 58
1, 355648, Control_c, 0, 64, 84
1, 355652, Note_off_c, 0, 77, 59
1, 355662, Note_on_c, 0, 89, 57
1, 355662, Control_c, 0, 64, 84
1, 355680, Note_off_c, 0, 89, 63
1, 355707, Control_c, 0, 64, 81
1, 355722, Control_c, 0, 64, 73
1, 355723, Note_on_c, 0, 72, 60
1, 355728, Note_off_c, 0, 70, 61
1, 355734, Note_on_c, 0, 68, 51
1, 355737, Control_c, 0, 64, 30
1, 355752, Control_c, 0, 64, 0
1, 355877, Control_c, 0, 64, 64
1, 355892, Control_c, 0, 64, 68
1, 355907, Control_c, 0, 64, 70
1, 355915, Note_on_c, 0, 89, 58
1, 355922, Control_c, 0, 64, 73
1, 355937, Control_c, 0, 64, 76
1, 355942, Note_off_c, 0, 89, 64
1, 355952, Control_c, 0, 64, 79
1, 355966, Control_c, 0, 64, 82
1, 355969, Note_on_c, 0, 77, 64
1, 355980, Note_off_c, 0, 72, 51
1, 355981, Control_c, 0, 64, 84
1, 355990, Note_off_c, 0, 68, 58
1, 355996, Control_c, 0, 64, 85
1, 356004, Note_off_c, 0, 77, 62
1, 356011, Control_c, 0, 64, 85
1, 356020, Note_on_c, 0, 89, 60
1, 356038, Note_off_c, 0, 89, 61
1, 356070, Control_c, 0, 64, 83
1, 356086, Control_c, 0, 64, 73
1, 356098, Note_on_c, 0, 72, 68
1, 356101, Control_c, 0, 64, 0
1, 356104, Note_on_c, 0, 67, 50
1, 356107, Note_on_c, 0, 70, 52
1, 356232, Control_c, 0, 64, 64
1, 356247, Control_c, 0, 64, 69
1, 356262, Control_c, 0, 64, 72
1, 356276, Note_on_c, 0, 88, 56
1, 356277, Control_c, 0, 64, 76
1, 356291, Control_c, 0, 64, 79
1, 356298, Note_off_c, 0, 88, 61
1, 356306, Control_c, 0, 64, 83
1, 356321, Control_c, 0, 64, 85
1, 356325, Note_on_c, 0, 76, 52
1, 356336, Control_c, 0, 64, 86
1, 356351, Control_c, 0, 64, 88
1, 356362, Note_off_c, 0, 76, 47
1, 356366, Control_c, 0, 64, 89
1, 356379, Note_on_c, 0, 88, 57
1, 356381, Control_c, 0, 64, 90
1, 356381, Note_off_c, 0, 67, 61
1, 356396, Control_c, 0, 64, 91
1, 356398, Note_off_c, 0, 88, 63
1, 356425, Note_off_c, 0, 70, 61
1, 356440, Control_c, 0, 64, 90
1, 356455, Control_c, 0, 64, 86
1, 356463, Note_on_c, 0, 68, 54
1, 356463, Note_off_c, 0, 72, 58
1, 356466, Note_on_c, 0, 65, 45
1, 356470, Control_c, 0, 64, 73
1, 356484, Control_c, 0, 64, 0
1, 356533, Note_on_c, 0, 77, 47
1, 356586, Note_off_c, 0, 77, 59
1, 356588, Control_c, 0, 64, 67
1, 356595, Note_on_c, 0, 80, 51
1, 356602, Note_off_c, 0, 68, 65
1, 356603, Control_c, 0, 64, 72
1, 356616, Note_off_c, 0, 65, 65
1, 356625, Control_c, 0, 64, 76
1, 356640, Control_c, 0, 64, 79
1, 356642, Note_off_c, 0, 80, 65
1, 356655, Note_on_c, 0, 84, 54
1, 356655, Control_c, 0, 64, 81
1, 356670, Control_c, 0, 64, 82
1, 356684, Control_c, 0, 64, 83
1, 356695, Note_off_c, 0, 84, 61
1, 356699, Control_c, 0, 64, 84
1, 356714, Control_c, 0, 64, 84
1, 356719, Note_on_c, 0, 89, 52
1, 356729, Control_c, 0, 64, 85
1, 356742, Note_off_c, 0, 89, 60
1, 356743, Control_c, 0, 64, 85
1, 356758, Control_c, 0, 64, 86
1, 356773, Control_c, 0, 64, 86
1, 356779, Note_on_c, 0, 77, 59
1, 356801, Note_off_c, 0, 77, 60
1, 356838, Note_on_c, 0, 61, 51
1, 356844, Note_on_c, 0, 58, 51
1, 356847, Control_c, 0, 64, 84
1, 356861, Control_c, 0, 64, 78
1, 356876, Control_c, 0, 64, 68
1, 356893, Control_c, 0, 64, 0
1, 356996, Control_c, 0, 64, 62
1, 357011, Control_c, 0, 64, 67
1, 357025, Note_on_c, 0, 77, 51
1, 357026, Control_c, 0, 64, 70
1, 357040, Control_c, 0, 64, 73
1, 357046, Note_off_c, 0, 77, 58
1, 357055, Control_c, 0, 64, 75
1, 357060, Note_on_c, 0, 65, 62
1, 357070, Control_c, 0, 64, 78
1, 357085, Control_c, 0, 64, 80
1, 357096, Note_off_c, 0, 65, 64
1, 357100, Control_c, 0, 64, 81
1, 357105, Note_off_c, 0, 61, 57
1, 357114, Control_c, 0, 64, 82
1, 357118, Note_on_c, 0, 77, 63
1, 357129, Control_c, 0, 64, 83
1, 357137, Note_off_c, 0, 77, 62
1, 357144, Control_c, 0, 64, 83
1, 357174, Control_c, 0, 64, 83
1, 357186, Note_on_c, 0, 60, 60
1, 357186, Note_off_c, 0, 58, 61
1, 357189, Control_c, 0, 64, 81
1, 357193, Note_on_c, 0, 56, 48
1, 357204, Control_c, 0, 64, 74
1, 357218, Control_c, 0, 64, 65
1, 357233, Control_c, 0, 64, 0
1, 357337, Control_c, 0, 64, 65
1, 357352, Control_c, 0, 64, 69
1, 357369, Note_on_c, 0, 77, 57
1, 357373, Control_c, 0, 64, 72
1, 357388, Control_c, 0, 64, 75
1, 357390, Note_off_c, 0, 77, 61
1, 357403, Control_c, 0, 64, 78
1, 357418, Note_on_c, 0, 65, 62
1, 357418, Control_c, 0, 64, 80
1, 357433, Control_c, 0, 64, 82
1, 357434, Note_off_c, 0, 60, 56
1, 357439, Note_off_c, 0, 56, 62
1, 357448, Control_c, 0, 64, 84
1, 357454, Note_off_c, 0, 65, 64
1, 357458, Note_on_c, 0, 77, 71
1, 357463, Control_c, 0, 64, 85
1, 357475, Note_off_c, 0, 77, 67
1, 357478, Control_c, 0, 64, 86
1, 357522, Control_c, 0, 64, 84
1, 357533, Note_on_c, 0, 60, 65
1, 357537, Control_c, 0, 64, 78
1, 357547, Note_on_c, 0, 58, 55
1, 357548, Note_on_c, 0, 55, 55
1, 357552, Control_c, 0, 64, 68
1, 357566, Control_c, 0, 64, 0
1, 357701, Control_c, 0, 64, 61
1, 357705, Note_on_c, 0, 76, 53
1, 357716, Control_c, 0, 64, 68
1, 357727, Note_off_c, 0, 76, 61
1, 357731, Control_c, 0, 64, 72
1, 357746, Control_c, 0, 64, 75
1, 357751, Note_on_c, 0, 64, 64
1, 357761, Control_c, 0, 64, 79
1, 357776, Control_c, 0, 64, 83
1, 357783, Note_off_c, 0, 64, 65
1, 357790, Control_c, 0, 64, 85
1, 357805, Note_off_c, 0, 55, 57
1, 357805, Control_c, 0, 64, 86
1, 357806, Note_on_c, 0, 76, 58
1, 357820, Control_c, 0, 64, 86
1, 357826, Note_off_c, 0, 76, 61
1, 357864, Control_c, 0, 64, 85
1, 357872, Note_off_c, 0, 58, 50
1, 357879, Control_c, 0, 64, 81
1, 357894, Control_c, 0, 64, 73
1, 357907, Note_on_c, 0, 56, 45
1, 357908, Control_c, 0, 64, 62
1, 357911, Note_off_c, 0, 60, 55
1, 357919, Note_on_c, 0, 53, 38
1, 357923, Control_c, 0, 64, 0
1, 357975, Note_on_c, 0, 77, 56
1, 358012, Control_c, 0, 64, 46
1, 358027, Control_c, 0, 64, 70
1, 358033, Note_on_c, 0, 80, 57
1, 358033, Note_off_c, 0, 77, 52
1, 358042, Control_c, 0, 64, 75
1, 358049, Note_off_c, 0, 56, 65
1, 358056, Control_c, 0, 64, 79
1, 358058, Note_off_c, 0, 53, 63
1, 358071, Control_c, 0, 64, 81
1, 358086, Control_c, 0, 64, 82
1, 358093, Note_off_c, 0, 80, 61
1, 358101, Control_c, 0, 64, 84
1, 358112, Note_on_c, 0, 84, 53
1, 358123, Control_c, 0, 64, 85
1, 358138, Control_c, 0, 64, 85
1, 358143, Note_off_c, 0, 84, 55
1, 358153, Control_c, 0, 64, 86
1, 358162, Note_on_c, 0, 89, 61
1, 358193, Note_off_c, 0, 89, 60
1, 358197, Control_c, 0, 64, 86
1, 358234, Note_on_c, 0, 77, 47
1, 358257, Control_c, 0, 64, 86
1, 358259, Note_off_c, 0, 77, 54
1, 358271, Control_c, 0, 64, 83
1, 358277, Note_on_c, 0, 49, 57
1, 358286, Control_c, 0, 64, 76
1, 358292, Note_on_c, 0, 46, 45
1, 358301, Control_c, 0, 64, 65
1, 358315, Control_c, 0, 64, 0
1, 358435, Control_c, 0, 64, 64
1, 358450, Control_c, 0, 64, 68
1, 358464, Control_c, 0, 64, 70
1, 358465, Note_on_c, 0, 89, 58
1, 358479, Control_c, 0, 64, 72
1, 358489, Note_off_c, 0, 89, 63
1, 358494, Control_c, 0, 64, 74
1, 358509, Control_c, 0, 64, 76
1, 358514, Note_on_c, 0, 77, 59
1, 358524, Control_c, 0, 64, 78
1, 358531, Note_off_c, 0, 49, 54
1, 358539, Control_c, 0, 64, 79
1, 358551, Note_off_c, 0, 77, 62
1, 358554, Control_c, 0, 64, 79
1, 358568, Note_on_c, 0, 89, 60
1, 358569, Control_c, 0, 64, 80
1, 358584, Control_c, 0, 64, 81
1, 358587, Note_off_c, 0, 89, 66
1, 358599, Control_c, 0, 64, 81
1, 358628, Control_c, 0, 64, 81
1, 358628, Note_off_c, 0, 46, 49
1, 358637, Note_on_c, 0, 44, 45
1, 358643, Control_c, 0, 64, 79
1, 358649, Note_on_c, 0, 48, 50
1, 358658, Control_c, 0, 64, 75
1, 358673, Control_c, 0, 64, 67
1, 358687, Control_c, 0, 64, 0
1, 358805, Control_c, 0, 64, 65
1, 358820, Control_c, 0, 64, 69
1, 358828, Note_on_c, 0, 89, 58
1, 358835, Control_c, 0, 64, 71
1, 358858, Control_c, 0, 64, 73
1, 358870, Note_off_c, 0, 89, 64
1, 358873, Control_c, 0, 64, 74
1, 358887, Control_c, 0, 64, 76
1, 358902, Control_c, 0, 64, 78
1, 358906, Note_on_c, 0, 77, 55
1, 358907, Note_off_c, 0, 44, 60
1, 358909, Note_off_c, 0, 48, 53
1, 358917, Control_c, 0, 64, 79
1, 358931, Control_c, 0, 64, 79
1, 358945, Note_off_c, 0, 77, 57
1, 358946, Control_c, 0, 64, 80
1, 358950, Note_on_c, 0, 89, 64
1, 358968, Note_off_c, 0, 89, 67
1, 358976, Control_c, 0, 64, 81
1, 359020, Control_c, 0, 64, 80
1, 359035, Control_c, 0, 64, 75
1, 359042, Note_on_c, 0, 48, 52
1, 359050, Control_c, 0, 64, 65
1, 359054, Note_on_c, 0, 46, 34
1, 359056, Note_on_c, 0, 43, 39
1, 359064, Control_c, 0, 64, 0
1, 359198, Control_c, 0, 64, 64
1, 359213, Control_c, 0, 64, 66
1, 359228, Control_c, 0, 64, 68
1, 359242, Control_c, 0, 64, 70
1, 359257, Note_on_c, 0, 88, 56
1, 359257, Control_c, 0, 64, 73
1, 359272, Control_c, 0, 64, 77
1, 359288, Control_c, 0, 64, 79
1, 359291, Note_off_c, 0, 48, 60
1, 359302, Control_c, 0, 64, 81
1, 359311, Note_off_c, 0, 46, 62
1, 359317, Control_c, 0, 64, 82
1, 359325, Note_off_c, 0, 88, 61
1, 359332, Control_c, 0, 64, 83
1, 359347, Control_c, 0, 64, 84
1, 359348, Note_off_c, 0, 43, 61
1, 359362, Control_c, 0, 64, 85
1, 359375, Note_on_c, 0, 76, 46
1, 359391, Control_c, 0, 64, 85
1, 359492, Note_off_c, 0, 76, 24
1, 359511, Note_on_c, 0, 88, 49
1, 359584, Control_c, 0, 64, 85
1, 359666, Control_c, 0, 64, 84
1, 359695, Control_c, 0, 64, 84
1, 359710, Control_c, 0, 64, 83
1, 359725, Control_c, 0, 64, 82
1, 359740, Control_c, 0, 64, 81
1, 359754, Control_c, 0, 64, 79
1, 359769, Control_c, 0, 64, 75
1, 359784, Control_c, 0, 64, 71
1, 359799, Control_c, 0, 64, 66
1, 359804, Note_on_c, 0, 41, 40
1, 359814, Control_c, 0, 64, 63
1, 359818, Note_off_c, 0, 88, 60
1, 359821, Note_on_c, 0, 89, 47
1, 359828, Control_c, 0, 64, 13
1, 359843, Control_c, 0, 64, 0
1, 360020, Control_c, 0, 64, 30
1, 360035, Control_c, 0, 64, 67
1, 360050, Control_c, 0, 64, 70
1, 360065, Control_c, 0, 64, 72
1, 360075, Note_off_c, 0, 89, 59
1, 360080, Note_on_c, 0, 84, 36
1, 360080, Control_c, 0, 64, 75
1, 360095, Control_c, 0, 64, 78
1, 360110, Control_c, 0, 64, 81
1, 360125, Control_c, 0, 64, 83
1, 360140, Control_c, 0, 64, 85
1, 360155, Control_c, 0, 64, 86
1, 360170, Control_c, 0, 64, 87
1, 360179, Note_off_c, 0, 84, 60
1, 360184, Control_c, 0, 64, 89
1, 360199, Control_c, 0, 64, 89
1, 360214, Control_c, 0, 64, 90
1, 360214, Note_on_c, 0, 80, 38
1, 360229, Control_c, 0, 64, 90
1, 360258, Control_c, 0, 64, 91
1, 360263, Note_off_c, 0, 80, 45
1, 360305, Note_on_c, 0, 84, 40
1, 360333, Note_off_c, 0, 84, 57
1, 360363, Note_on_c, 0, 89, 50
1, 360408, Note_off_c, 0, 89, 51
1, 360435, Note_on_c, 0, 84, 52
1, 360473, Control_c, 0, 64, 92
1, 360477, Note_off_c, 0, 84, 63
1, 360488, Control_c, 0, 64, 92
1, 360502, Control_c, 0, 64, 93
1, 360513, Note_on_c, 0, 80, 44
1, 360517, Control_c, 0, 64, 94
1, 360532, Control_c, 0, 64, 95
1, 360547, Control_c, 0, 64, 96
1, 360572, Note_off_c, 0, 80, 59
1, 360581, Note_on_c, 0, 84, 52
1, 360611, Note_off_c, 0, 84, 58
1, 360629, Note_on_c, 0, 89, 60
1, 360665, Control_c, 0, 64, 98
1, 360673, Note_off_c, 0, 89, 62
1, 360711, Note_on_c, 0, 84, 43
1, 360735, Note_off_c, 0, 84, 58
1, 360763, Note_on_c, 0, 80, 52
1, 360798, Control_c, 0, 64, 100
1, 360812, Note_off_c, 0, 80, 57
1, 360826, Note_on_c, 0, 84, 56
1, 360865, Note_off_c, 0, 84, 61
1, 360887, Note_on_c, 0, 89, 49
1, 360902, Note_on_c, 0, 36, 37
1, 360930, Note_off_c, 0, 89, 48
1, 360979, Note_on_c, 0, 84, 46
1, 361003, Note_off_c, 0, 84, 57
1, 361037, Control_c, 0, 64, 102
1, 361044, Note_on_c, 0, 80, 40
1, 361091, Note_on_c, 0, 84, 58
1, 361110, Note_off_c, 0, 80, 45
1, 361170, Note_off_c, 0, 84, 60
1, 361186, Note_on_c, 0, 89, 52
1, 361222, Note_off_c, 0, 89, 50
1, 361276, Note_on_c, 0, 84, 45
1, 361314, Note_off_c, 0, 84, 48
1, 361338, Note_on_c, 0, 32, 41
1, 361341, Note_on_c, 0, 89, 49
1, 361419, Note_off_c, 0, 89, 55
1, 361452, Note_on_c, 0, 84, 39
1, 361535, Note_off_c, 0, 84, 56
1, 361548, Note_on_c, 0, 89, 48
1, 361624, Note_off_c, 0, 89, 48
1, 361679, Note_on_c, 0, 84, 38
1, 361744, Note_off_c, 0, 84, 41
1, 361760, Note_on_c, 0, 89, 49
1, 361861, Note_off_c, 0, 89, 57
1, 361910, Note_on_c, 0, 84, 28
1, 362058, Note_off_c, 0, 32, 27
1, 362064, Note_on_c, 0, 29, 37
1, 362099, Note_on_c, 0, 89, 38
1, 362113, Note_off_c, 0, 84, 39
1, 362262, Note_off_c, 0, 41, 40
1, 362271, Note_on_c, 0, 84, 33
1, 362282, Control_c, 0, 67, 10
1, 362284, Note_off_c, 0, 89, 35
1, 362297, Control_c, 0, 67, 12
1, 362312, Control_c, 0, 67, 15
1, 362327, Control_c, 0, 67, 17
1, 362342, Control_c, 0, 67, 19
1, 362356, Control_c, 0, 67, 22
1, 362371, Control_c, 0, 67, 25
1, 362375, Note_off_c, 0, 36, 32
1, 362386, Control_c, 0, 67, 30
1, 362388, Note_off_c, 0, 84, 36
1, 362393, Note_on_c, 0, 80, 33
1, 362400, Control_c, 0, 67, 36
1, 362415, Control_c, 0, 67, 44
1, 362430, Control_c, 0, 67, 53
1, 362445, Control_c, 0, 67, 61
1, 362460, Control_c, 0, 67, 70
1, 362476, Control_c, 0, 67, 78
1, 362491, Control_c, 0, 67, 87
1, 362494, Note_on_c, 0, 84, 42
1, 362505, Control_c, 0, 67, 94
1, 362506, Note_off_c, 0, 80, 43
1, 362520, Control_c, 0, 67, 99
1, 362533, Note_off_c, 0, 84, 49
1, 362535, Control_c, 0, 67, 103
1, 362550, Control_c, 0, 67, 107
1, 362563, Note_on_c, 0, 89, 48
1, 362565, Control_c, 0, 67, 110
1, 362579, Control_c, 0, 67, 113
1, 362602, Control_c, 0, 67, 116
1, 362617, Control_c, 0, 67, 118
1, 362628, Note_off_c, 0, 89, 45
1, 362647, Control_c, 0, 67, 122
1, 362655, Note_on_c, 0, 84, 41
1, 362661, Control_c, 0, 67, 125
1, 362676, Control_c, 0, 67, 127
1, 362688, Note_off_c, 0, 84, 52
1, 362728, Note_on_c, 0, 80, 41
1, 362772, Note_off_c, 0, 80, 46
1, 362797, Note_on_c, 0, 84, 48
1, 362834, Note_off_c, 0, 84, 50
1, 362866, Note_on_c, 0, 89, 44
1, 362915, Note_off_c, 0, 89, 46
1, 362945, Note_on_c, 0, 84, 47
1, 362971, Note_off_c, 0, 84, 56
1, 363013, Note_on_c, 0, 80, 42
1, 363056, Note_off_c, 0, 80, 46
1, 363068, Note_on_c, 0, 84, 54
1, 363121, Note_off_c, 0, 84, 58
1, 363145, Note_on_c, 0, 89, 46
1, 363194, Note_off_c, 0, 89, 51
1, 363216, Note_on_c, 0, 84, 38
1, 363246, Note_off_c, 0, 84, 56
1, 363278, Note_on_c, 0, 80, 46
1, 363324, Note_off_c, 0, 80, 44
1, 363328, Control_c, 0, 64, 104
1, 363339, Note_on_c, 0, 84, 59
1, 363392, Note_off_c, 0, 84, 58
1, 363411, Note_on_c, 0, 89, 49
1, 363440, Note_off_c, 0, 89, 56
1, 363466, Note_on_c, 0, 84, 51
1, 363509, Note_off_c, 0, 84, 59
1, 363533, Note_on_c, 0, 89, 55
1, 363550, Note_on_c, 0, 32, 42
1, 363601, Note_off_c, 0, 89, 52
1, 363615, Note_on_c, 0, 84, 48
1, 363651, Note_off_c, 0, 84, 48
1, 363689, Note_on_c, 0, 80, 54
1, 363748, Note_on_c, 0, 84, 63
1, 363754, Note_off_c, 0, 80, 54
1, 363794, Note_off_c, 0, 84, 57
1, 363821, Note_on_c, 0, 89, 52
1, 363833, Note_on_c, 0, 36, 45
1, 363857, Note_off_c, 0, 89, 54
1, 363890, Note_on_c, 0, 84, 58
1, 363898, Control_c, 0, 64, 101
1, 363902, Note_off_c, 0, 32, 55
1, 363909, Note_off_c, 0, 84, 63
1, 363913, Control_c, 0, 64, 97
1, 363927, Control_c, 0, 64, 93
1, 363933, Note_off_c, 0, 29, 40
1, 363937, Note_on_c, 0, 41, 55
1, 363942, Control_c, 0, 64, 89
1, 363949, Note_on_c, 0, 89, 58
1, 363949, Note_off_c, 0, 36, 61
1, 363957, Control_c, 0, 64, 87
1, 363972, Control_c, 0, 64, 86
1, 363987, Control_c, 0, 64, 85
1, 364000, Note_on_c, 0, 84, 55
1, 364001, Control_c, 0, 64, 84
1, 364004, Note_off_c, 0, 89, 59
1, 364048, Note_off_c, 0, 84, 59
1, 364060, Control_c, 0, 64, 85
1, 364076, Control_c, 0, 64, 85
1, 364077, Note_on_c, 0, 80, 57
1, 364091, Control_c, 0, 64, 86
1, 364113, Control_c, 0, 64, 86
1, 364128, Control_c, 0, 64, 87
1, 364143, Control_c, 0, 64, 88
1, 364149, Note_off_c, 0, 80, 55
1, 364154, Note_on_c, 0, 84, 59
1, 364158, Control_c, 0, 64, 88
1, 364173, Control_c, 0, 64, 89
1, 364189, Note_off_c, 0, 84, 62
1, 364221, Note_on_c, 0, 89, 47
1, 364244, Note_off_c, 0, 89, 59
1, 364276, Note_on_c, 0, 84, 55
1, 364300, Note_off_c, 0, 84, 59
1, 364321, Control_c, 0, 64, 88
1, 364328, Note_on_c, 0, 89, 59
1, 364345, Note_on_c, 0, 44, 53
1, 364365, Control_c, 0, 64, 88
1, 364367, Note_off_c, 0, 41, 56
1, 364396, Note_on_c, 0, 84, 53
1, 364419, Note_off_c, 0, 89, 48
1, 364468, Control_c, 0, 64, 88
1, 364469, Note_off_c, 0, 84, 62
1, 364491, Note_on_c, 0, 80, 54
1, 364561, Note_off_c, 0, 80, 56
1, 364563, Note_on_c, 0, 84, 52
1, 364603, Note_on_c, 0, 48, 44
1, 364604, Note_off_c, 0, 84, 61
1, 364644, Note_on_c, 0, 89, 49
1, 364671, Note_off_c, 0, 89, 55
1, 364700, Note_off_c, 0, 44, 56
1, 364707, Note_on_c, 0, 84, 51
1, 364715, Note_on_c, 0, 53, 57
1, 364732, Note_off_c, 0, 84, 58
1, 364771, Note_on_c, 0, 89, 51
1, 364810, Note_off_c, 0, 89, 45
1, 364829, Note_on_c, 0, 84, 54
1, 364879, Note_off_c, 0, 84, 56
1, 364906, Note_on_c, 0, 80, 52
1, 364963, Note_off_c, 0, 80, 44
1, 364978, Note_on_c, 0, 84, 52
1, 365017, Note_off_c, 0, 84, 62
1, 365044, Note_on_c, 0, 89, 40
1, 365073, Note_off_c, 0, 89, 56
1, 365118, Note_on_c, 0, 84, 41
1, 365154, Note_off_c, 0, 84, 49
1, 365168, Note_on_c, 0, 41, 48
1, 365175, Note_on_c, 0, 89, 45
1, 365241, Note_off_c, 0, 48, 37
1, 365278, Note_off_c, 0, 89, 55
1, 365283, Note_on_c, 0, 84, 43
1, 365337, Note_off_c, 0, 84, 55
1, 365365, Note_on_c, 0, 80, 51
1, 365455, Note_on_c, 0, 84, 50
1, 365477, Note_off_c, 0, 80, 37
1, 365539, Note_off_c, 0, 84, 62
1, 365544, Control_c, 0, 64, 88
1, 365564, Note_on_c, 0, 89, 43
1, 365660, Note_off_c, 0, 89, 37
1, 365688, Note_on_c, 0, 84, 44
1, 365745, Control_c, 0, 64, 87
1, 365760, Control_c, 0, 64, 87
1, 365775, Control_c, 0, 64, 86
1, 365790, Control_c, 0, 64, 83
1, 365804, Control_c, 0, 64, 78
1, 365806, Note_on_c, 0, 42, 51
1, 365816, Note_off_c, 0, 84, 37
1, 365819, Control_c, 0, 64, 72
1, 365824, Note_on_c, 0, 87, 41
1, 365834, Control_c, 0, 64, 67
1, 365848, Control_c, 0, 64, 59
1, 365849, Note_off_c, 0, 53, 60
1, 365863, Control_c, 0, 64, 0
1, 365870, Note_off_c, 0, 41, 58
1, 365994, Note_off_c, 0, 87, 54
1, 366016, Note_on_c, 0, 84, 40
1, 366071, Control_c, 0, 64, 63
1, 366081, Note_off_c, 0, 84, 62
1, 366086, Control_c, 0, 64, 68
1, 366101, Control_c, 0, 64, 70
1, 366115, Control_c, 0, 64, 72
1, 366128, Note_on_c, 0, 80, 32
1, 366130, Control_c, 0, 64, 75
1, 366145, Control_c, 0, 64, 78
1, 366160, Control_c, 0, 64, 81
1, 366174, Control_c, 0, 64, 83
1, 366188, Note_off_c, 0, 80, 44
1, 366189, Control_c, 0, 64, 85
1, 366204, Control_c, 0, 64, 87
1, 366218, Note_on_c, 0, 84, 44
1, 366219, Control_c, 0, 64, 89
1, 366234, Control_c, 0, 64, 90
1, 366243, Note_off_c, 0, 84, 57
1, 366248, Control_c, 0, 64, 91
1, 366263, Control_c, 0, 64, 91
1, 366278, Control_c, 0, 64, 92
1, 366286, Note_on_c, 0, 87, 40
1, 366293, Control_c, 0, 64, 93
1, 366308, Control_c, 0, 64, 94
1, 366322, Control_c, 0, 64, 95
1, 366326, Note_off_c, 0, 87, 48
1, 366349, Note_on_c, 0, 84, 47
1, 366374, Control_c, 0, 64, 97
1, 366388, Note_off_c, 0, 84, 49
1, 366404, Control_c, 0, 64, 99
1, 366420, Note_on_c, 0, 80, 45
1, 366478, Note_off_c, 0, 80, 45
1, 366498, Note_on_c, 0, 84, 47
1, 366522, Note_off_c, 0, 84, 60
1, 366556, Note_on_c, 0, 87, 42
1, 366596, Note_off_c, 0, 87, 47
1, 366610, Note_on_c, 0, 84, 48
1, 366642, Control_c, 0, 64, 101
1, 366644, Note_off_c, 0, 84, 52
1, 366686, Note_on_c, 0, 80, 48
1, 366722, Note_off_c, 0, 80, 50
1, 366745, Note_on_c, 0, 84, 51
1, 366778, Note_off_c, 0, 84, 57
1, 366808, Note_on_c, 0, 87, 46
1, 366844, Note_off_c, 0, 87, 50
1, 366876, Note_on_c, 0, 84, 48
1, 366902, Note_off_c, 0, 84, 57
1, 366941, Note_on_c, 0, 80, 43
1, 366974, Note_off_c, 0, 80, 51
1, 366995, Note_on_c, 0, 84, 54
1, 367036, Note_off_c, 0, 84, 59
1, 367058, Note_on_c, 0, 87, 43
1, 367094, Note_off_c, 0, 87, 54
1, 367144, Note_on_c, 0, 84, 34
1, 367175, Note_off_c, 0, 84, 48
1, 367175, Note_on_c, 0, 48, 41
1, 367186, Note_on_c, 0, 87, 58
1, 367230, Note_off_c, 0, 87, 61
1, 367266, Note_on_c, 0, 84, 41
1, 367291, Note_off_c, 0, 84, 56
1, 367332, Note_on_c, 0, 80, 39
1, 367362, Note_off_c, 0, 80, 54
1, 367386, Note_on_c, 0, 84, 50
1, 367409, Note_off_c, 0, 84, 60
1, 367428, Note_on_c, 0, 87, 46
1, 367458, Note_on_c, 0, 51, 46
1, 367458, Note_off_c, 0, 87, 54
1, 367497, Note_on_c, 0, 84, 55
1, 367518, Note_off_c, 0, 84, 61
1, 367526, Note_off_c, 0, 48, 53
1, 367533, Note_off_c, 0, 42, 57
1, 367544, Note_on_c, 0, 54, 57
1, 367552, Note_on_c, 0, 87, 57
1, 367577, Note_off_c, 0, 51, 58
1, 367595, Note_off_c, 0, 87, 61
1, 367610, Note_on_c, 0, 84, 52
1, 367643, Note_off_c, 0, 84, 63
1, 367666, Note_on_c, 0, 80, 57
1, 367717, Control_c, 0, 64, 103
1, 367727, Note_off_c, 0, 80, 41
1, 367731, Note_on_c, 0, 84, 56
1, 367768, Note_off_c, 0, 84, 63
1, 367791, Note_on_c, 0, 87, 52
1, 367823, Note_off_c, 0, 87, 52
1, 367842, Control_c, 0, 64, 105
1, 367873, Note_on_c, 0, 84, 55
1, 367905, Note_off_c, 0, 84, 55
1, 367925, Note_on_c, 0, 87, 56
1, 367935, Note_on_c, 0, 60, 55
1, 367956, Note_off_c, 0, 54, 60
1, 367984, Note_off_c, 0, 87, 59
1, 368010, Note_on_c, 0, 84, 47
1, 368039, Note_off_c, 0, 84, 55
1, 368069, Note_on_c, 0, 80, 51
1, 368105, Note_off_c, 0, 80, 49
1, 368137, Note_on_c, 0, 84, 54
1, 368164, Note_off_c, 0, 84, 59
1, 368182, Note_on_c, 0, 63, 44
1, 368200, Note_on_c, 0, 87, 40
1, 368227, Note_off_c, 0, 87, 57
1, 368264, Note_on_c, 0, 84, 47
1, 368292, Note_off_c, 0, 84, 54
1, 368314, Note_on_c, 0, 66, 60
1, 368314, Note_on_c, 0, 87, 54
1, 368388, Note_off_c, 0, 87, 57
1, 368390, Note_on_c, 0, 84, 54
1, 368437, Note_off_c, 0, 60, 38
1, 368444, Note_off_c, 0, 84, 55
1, 368462, Note_off_c, 0, 63, 53
1, 368468, Note_on_c, 0, 80, 53
1, 368540, Note_off_c, 0, 80, 43
1, 368544, Note_on_c, 0, 84, 47
1, 368576, Note_off_c, 0, 84, 52
1, 368620, Note_on_c, 0, 87, 46
1, 368650, Note_off_c, 0, 87, 55
1, 368687, Note_on_c, 0, 84, 47
1, 368725, Note_off_c, 0, 84, 48
1, 368744, Note_on_c, 0, 54, 46
1, 368746, Note_on_c, 0, 87, 53
1, 368784, Control_c, 0, 64, 103
1, 368826, Note_off_c, 0, 87, 57
1, 368834, Note_on_c, 0, 84, 56
1, 368907, Note_off_c, 0, 84, 58
1, 368925, Note_on_c, 0, 80, 56
1, 369019, Note_off_c, 0, 80, 52
1, 369022, Note_on_c, 0, 84, 56
1, 369045, Note_off_c, 0, 54, 60
1, 369064, Note_off_c, 0, 84, 53
1, 369081, Control_c, 0, 64, 101
1, 369106, Note_on_c, 0, 87, 48
1, 369184, Control_c, 0, 64, 99
1, 369194, Note_off_c, 0, 87, 57
1, 369205, Note_on_c, 0, 84, 45
1, 369229, Control_c, 0, 64, 96
1, 369244, Control_c, 0, 64, 94
1, 369258, Control_c, 0, 64, 91
1, 369273, Control_c, 0, 64, 86
1, 369282, Note_off_c, 0, 84, 61
1, 369288, Control_c, 0, 64, 80
1, 369303, Control_c, 0, 64, 73
1, 369307, Note_on_c, 0, 53, 46
1, 369312, Note_on_c, 0, 89, 49
1, 369318, Control_c, 0, 64, 67
1, 369333, Control_c, 0, 64, 38
1, 369355, Control_c, 0, 64, 0
1, 369374, Note_off_c, 0, 66, 59
1, 369440, Note_on_c, 0, 85, 59
1, 369441, Note_off_c, 0, 89, 59
1, 369503, Note_off_c, 0, 85, 61
1, 369503, Control_c, 0, 64, 66
1, 369518, Control_c, 0, 64, 71
1, 369533, Control_c, 0, 64, 75
1, 369536, Note_on_c, 0, 80, 48
1, 369547, Control_c, 0, 64, 79
1, 369562, Control_c, 0, 64, 82
1, 369577, Control_c, 0, 64, 84
1, 369589, Note_off_c, 0, 80, 58
1, 369592, Control_c, 0, 64, 86
1, 369598, Note_on_c, 0, 85, 59
1, 369607, Control_c, 0, 64, 88
1, 369622, Control_c, 0, 64, 90
1, 369637, Note_off_c, 0, 85, 61
1, 369637, Control_c, 0, 64, 92
1, 369652, Control_c, 0, 64, 93
1, 369655, Note_on_c, 0, 89, 55
1, 369682, Control_c, 0, 64, 93
1, 369687, Note_off_c, 0, 89, 51
1, 369711, Control_c, 0, 64, 94
1, 369726, Control_c, 0, 64, 94
1, 369735, Note_on_c, 0, 85, 49
1, 369741, Control_c, 0, 64, 95
1, 369757, Note_off_c, 0, 85, 59
1, 369766, Note_on_c, 0, 56, 51
1, 369777, Note_on_c, 0, 89, 62
1, 369813, Note_off_c, 0, 89, 49
1, 369840, Note_on_c, 0, 85, 60
1, 369860, Control_c, 0, 64, 95
1, 369884, Note_off_c, 0, 85, 56
1, 369919, Control_c, 0, 64, 96
1, 369922, Note_on_c, 0, 80, 51
1, 369965, Note_off_c, 0, 80, 46
1, 369977, Note_on_c, 0, 85, 64
1, 370033, Note_off_c, 0, 85, 60
1, 370045, Note_on_c, 0, 89, 61
1, 370053, Note_on_c, 0, 61, 53
1, 370092, Note_off_c, 0, 89, 56
1, 370114, Note_on_c, 0, 85, 50
1, 370155, Note_on_c, 0, 65, 60
1, 370159, Note_off_c, 0, 85, 57
1, 370173, Note_on_c, 0, 89, 63
1, 370224, Note_off_c, 0, 89, 53
1, 370232, Note_on_c, 0, 85, 53
1, 370299, Note_off_c, 0, 85, 58
1, 370314, Note_on_c, 0, 80, 57
1, 370349, Note_off_c, 0, 56, 49
1, 370356, Note_on_c, 0, 85, 39
1, 370364, Note_off_c, 0, 53, 57
1, 370378, Note_off_c, 0, 80, 54
1, 370428, Note_off_c, 0, 85, 58
1, 370450, Note_on_c, 0, 89, 48
1, 370478, Note_off_c, 0, 89, 54
1, 370497, Note_on_c, 0, 85, 46
1, 370554, Note_off_c, 0, 85, 57
1, 370573, Note_on_c, 0, 89, 53
1, 370580, Note_on_c, 0, 53, 42
1, 370626, Note_on_c, 0, 85, 49
1, 370633, Note_off_c, 0, 89, 49
1, 370681, Note_off_c, 0, 85, 57
1, 370715, Note_on_c, 0, 80, 55
1, 370718, Note_off_c, 0, 53, 61
1, 370719, Note_off_c, 0, 65, 63
1, 370735, Note_off_c, 0, 61, 59
1, 370782, Note_on_c, 0, 85, 61
1, 370785, Note_off_c, 0, 80, 55
1, 370819, Note_off_c, 0, 85, 60
1, 370852, Note_on_c, 0, 89, 59
1, 370895, Note_off_c, 0, 89, 63
1, 370925, Note_on_c, 0, 85, 59
1, 370955, Control_c, 0, 64, 95
1, 370969, Control_c, 0, 64, 86
1, 370976, Note_off_c, 0, 85, 58
1, 370984, Control_c, 0, 64, 74
1, 370993, Note_on_c, 0, 51, 48
1, 370998, Note_on_c, 0, 90, 64
1, 370999, Control_c, 0, 64, 63
1, 371014, Control_c, 0, 64, 0
1, 371084, Note_on_c, 0, 84, 51
1, 371103, Note_off_c, 0, 90, 49
1, 371103, Control_c, 0, 64, 64
1, 371118, Control_c, 0, 64, 69
1, 371133, Control_c, 0, 64, 73
1, 371139, Note_off_c, 0, 84, 61
1, 371148, Control_c, 0, 64, 77
1, 371162, Note_on_c, 0, 80, 52
1, 371162, Control_c, 0, 64, 81
1, 371177, Control_c, 0, 64, 83
1, 371192, Control_c, 0, 64, 85
1, 371207, Control_c, 0, 64, 87
1, 371217, Note_off_c, 0, 80, 45
1, 371222, Control_c, 0, 64, 88
1, 371235, Note_on_c, 0, 84, 51
1, 371236, Control_c, 0, 64, 89
1, 371251, Control_c, 0, 64, 90
1, 371267, Control_c, 0, 64, 90
1, 371274, Note_off_c, 0, 84, 64
1, 371297, Control_c, 0, 64, 91
1, 371312, Control_c, 0, 64, 91
1, 371314, Note_on_c, 0, 90, 49
1, 371339, Note_off_c, 0, 51, 50
1, 371343, Note_off_c, 0, 90, 57
1, 371357, Note_on_c, 0, 54, 41
1, 371369, Note_on_c, 0, 84, 59
1, 371395, Note_off_c, 0, 54, 53
1, 371408, Note_off_c, 0, 84, 62
1, 371419, Note_on_c, 0, 56, 48
1, 371429, Note_on_c, 0, 90, 62
1, 371494, Note_off_c, 0, 90, 60
1, 371509, Note_on_c, 0, 84, 56
1, 371548, Control_c, 0, 64, 92
1, 371563, Note_off_c, 0, 84, 59
1, 371600, Note_on_c, 0, 80, 44
1, 371667, Note_off_c, 0, 80, 42
1, 371679, Note_on_c, 0, 84, 49
1, 371718, Note_off_c, 0, 84, 60
1, 371736, Note_off_c, 0, 56, 59
1, 371746, Note_on_c, 0, 90, 54
1, 371779, Note_on_c, 0, 60, 54
1, 371796, Note_off_c, 0, 90, 55
1, 371826, Note_on_c, 0, 84, 51
1, 371834, Note_off_c, 0, 60, 51
1, 371867, Note_off_c, 0, 84, 63
1, 371878, Note_on_c, 0, 63, 57
1, 371900, Note_on_c, 0, 90, 53
1, 371946, Note_off_c, 0, 90, 56
1, 371969, Note_on_c, 0, 84, 54
1, 372001, Control_c, 0, 64, 92
1, 372022, Note_off_c, 0, 84, 57
1, 372045, Control_c, 0, 64, 93
1, 372059, Note_on_c, 0, 80, 47
1, 372076, Control_c, 0, 64, 93
1, 372090, Control_c, 0, 64, 94
1, 372105, Control_c, 0, 64, 94
1, 372120, Control_c, 0, 64, 95
1, 372128, Note_off_c, 0, 80, 41
1, 372135, Control_c, 0, 64, 95
1, 372142, Note_on_c, 0, 84, 54
1, 372150, Control_c, 0, 64, 96
1, 372191, Note_off_c, 0, 84, 47
1, 372239, Note_on_c, 0, 90, 50
1, 372251, Note_off_c, 0, 63, 57
1, 372269, Control_c, 0, 64, 98
1, 372282, Note_off_c, 0, 90, 60
1, 372292, Note_on_c, 0, 66, 45
1, 372308, Note_on_c, 0, 84, 54
1, 372379, Control_c, 0, 64, 100
1, 372395, Note_off_c, 0, 66, 61
1, 372399, Note_off_c, 0, 84, 59
1, 372409, Note_on_c, 0, 90, 57
1, 372411, Note_on_c, 0, 68, 54
1, 372469, Control_c, 0, 64, 103
1, 372498, Control_c, 0, 64, 105
1, 372530, Note_on_c, 0, 87, 53
1, 372542, Control_c, 0, 64, 107
1, 372557, Control_c, 0, 64, 109
1, 372572, Control_c, 0, 64, 111
1, 372584, Note_off_c, 0, 90, 53
1, 372631, Control_c, 0, 64, 113
1, 372633, Note_off_c, 0, 87, 60
1, 372642, Note_on_c, 0, 80, 50
1, 372749, Control_c, 0, 64, 115
1, 372770, Note_on_c, 0, 87, 49
1, 372809, Control_c, 0, 64, 117
1, 372869, Control_c, 0, 64, 119
1, 372945, Note_off_c, 0, 80, 33
1, 372946, Note_on_c, 0, 90, 50
1, 372984, Note_off_c, 0, 87, 54
1, 373147, Note_on_c, 0, 87, 45
1, 373158, Control_c, 0, 67, 125
1, 373172, Control_c, 0, 64, 116
1, 373176, Note_on_c, 0, 72, 41
1, 373202, Control_c, 0, 64, 114
1, 373232, Control_c, 0, 64, 112
1, 373262, Control_c, 0, 64, 110
1, 373262, Control_c, 0, 67, 123
1, 373265, Note_off_c, 0, 90, 37
1, 373277, Control_c, 0, 64, 108
1, 373291, Control_c, 0, 67, 120
1, 373306, Control_c, 0, 64, 105
1, 373336, Control_c, 0, 64, 103
1, 373336, Control_c, 0, 67, 118
1, 373380, Control_c, 0, 64, 101
1, 373380, Control_c, 0, 67, 116
1, 373425, Control_c, 0, 67, 114
1, 373469, Control_c, 0, 64, 99
1, 373483, Control_c, 0, 67, 111
1, 373498, Control_c, 0, 64, 96
1, 373498, Control_c, 0, 67, 109
1, 373513, Control_c, 0, 64, 93
1, 373513, Control_c, 0, 67, 107
1, 373528, Control_c, 0, 64, 89
1, 373528, Control_c, 0, 67, 105
1, 373543, Control_c, 0, 64, 84
1, 373543, Control_c, 0, 67, 102
1, 373557, Control_c, 0, 64, 77
1, 373557, Control_c, 0, 67, 99
1, 373558, Note_on_c, 0, 89, 51
1, 373569, Note_off_c, 0, 72, 35
1, 373572, Control_c, 0, 64, 70
1, 373572, Control_c, 0, 67, 96
1, 373578, Note_on_c, 0, 61, 39
1, 373587, Control_c, 0, 64, 65
1, 373587, Control_c, 0, 67, 93
1, 373602, Control_c, 0, 64, 62
1, 373602, Control_c, 0, 67, 90
1, 373604, Note_off_c, 0, 68, 58
1, 373617, Control_c, 0, 64, 44
1, 373617, Control_c, 0, 67, 86
1, 373631, Control_c, 0, 64, 0
1, 373631, Control_c, 0, 67, 83
1, 373646, Control_c, 0, 67, 80
1, 373657, Note_off_c, 0, 87, 59
1, 373662, Control_c, 0, 67, 77
1, 373677, Control_c, 0, 67, 74
1, 373692, Control_c, 0, 67, 72
1, 373707, Control_c, 0, 67, 69
1, 373722, Control_c, 0, 67, 66
1, 373736, Control_c, 0, 67, 62
1, 373751, Control_c, 0, 67, 60
1, 373766, Control_c, 0, 67, 58
1, 373780, Control_c, 0, 67, 56
1, 373795, Control_c, 0, 64, 66
1, 373795, Control_c, 0, 67, 54
1, 373810, Control_c, 0, 64, 71
1, 373810, Control_c, 0, 67, 51
1, 373833, Control_c, 0, 64, 75
1, 373833, Control_c, 0, 67, 47
1, 373848, Control_c, 0, 64, 78
1, 373848, Control_c, 0, 67, 44
1, 373862, Control_c, 0, 64, 82
1, 373862, Control_c, 0, 67, 39
1, 373877, Control_c, 0, 64, 86
1, 373877, Control_c, 0, 67, 37
1, 373892, Control_c, 0, 64, 89
1, 373892, Control_c, 0, 67, 35
1, 373900, Note_off_c, 0, 61, 52
1, 373906, Control_c, 0, 64, 92
1, 373906, Control_c, 0, 67, 33
1, 373921, Control_c, 0, 64, 93
1, 373936, Control_c, 0, 64, 95
1, 373940, Note_on_c, 0, 68, 33
1, 373941, Note_on_c, 0, 73, 36
1, 373951, Control_c, 0, 64, 96
1, 373955, Note_on_c, 0, 65, 21
1, 373981, Control_c, 0, 64, 98
1, 374010, Control_c, 0, 64, 100
1, 374024, Note_off_c, 0, 65, 37
1, 374048, Note_off_c, 0, 68, 30
1, 374055, Control_c, 0, 67, 33
1, 374093, Note_off_c, 0, 73, 35
1, 374112, Note_on_c, 0, 61, 39
1, 374144, Control_c, 0, 67, 32
1, 374188, Control_c, 0, 67, 32
1, 374221, Note_off_c, 0, 61, 50
1, 374250, Note_on_c, 0, 73, 38
1, 374267, Note_on_c, 0, 68, 31
1, 374281, Note_on_c, 0, 65, 24
1, 374320, Note_off_c, 0, 68, 47
1, 374326, Note_off_c, 0, 65, 48
1, 374344, Note_off_c, 0, 73, 38
1, 374365, Control_c, 0, 67, 26
1, 374379, Control_c, 0, 67, 23
1, 374387, Note_on_c, 0, 61, 40
1, 374394, Control_c, 0, 67, 20
1, 374409, Control_c, 0, 67, 18
1, 374439, Control_c, 0, 67, 16
1, 374485, Note_off_c, 0, 61, 55
1, 374499, Control_c, 0, 67, 14
1, 374529, Note_on_c, 0, 73, 40
1, 374529, Control_c, 0, 67, 12
1, 374537, Note_on_c, 0, 68, 38
1, 374538, Note_on_c, 0, 65, 32
1, 374558, Control_c, 0, 67, 10
1, 374597, Note_off_c, 0, 68, 55
1, 374600, Note_off_c, 0, 65, 49
1, 374604, Note_off_c, 0, 73, 49
1, 374610, Control_c, 0, 67, 0
1, 374649, Note_on_c, 0, 61, 45
1, 374765, Note_off_c, 0, 61, 57
1, 374799, Note_on_c, 0, 73, 40
1, 374805, Note_on_c, 0, 68, 39
1, 374809, Note_on_c, 0, 65, 25
1, 374865, Note_off_c, 0, 65, 49
1, 374866, Note_off_c, 0, 68, 50
1, 374874, Note_off_c, 0, 73, 44
1, 374909, Note_on_c, 0, 61, 47
1, 375007, Note_off_c, 0, 61, 51
1, 375039, Note_on_c, 0, 73, 39
1, 375048, Note_on_c, 0, 65, 27
1, 375050, Note_on_c, 0, 77, 56
1, 375055, Note_on_c, 0, 68, 32
1, 375130, Note_off_c, 0, 68, 48
1, 375134, Note_off_c, 0, 73, 43
1, 375149, Note_off_c, 0, 65, 37
1, 375165, Note_on_c, 0, 61, 46
1, 375262, Note_off_c, 0, 61, 55
1, 375280, Note_off_c, 0, 89, 29
1, 375301, Note_on_c, 0, 73, 38
1, 375316, Note_on_c, 0, 68, 23
1, 375321, Note_on_c, 0, 65, 25
1, 375348, Note_on_c, 0, 80, 55
1, 375372, Note_off_c, 0, 73, 36
1, 375380, Note_off_c, 0, 65, 45
1, 375381, Note_off_c, 0, 68, 44
1, 375453, Note_on_c, 0, 61, 32
1, 375478, Note_on_c, 0, 85, 62
1, 375488, Note_off_c, 0, 77, 60
1, 375581, Note_off_c, 0, 61, 59
1, 375620, Note_on_c, 0, 73, 37
1, 375636, Note_on_c, 0, 65, 17
1, 375642, Note_off_c, 0, 80, 58
1, 375646, Note_on_c, 0, 68, 11
1, 375663, Note_off_c, 0, 73, 44
1, 375680, Note_off_c, 0, 65, 51
1, 375692, Note_off_c, 0, 68, 51
1, 375718, Note_on_c, 0, 61, 51
1, 375828, Note_off_c, 0, 61, 47
1, 375842, Note_on_c, 0, 89, 69
1, 375846, Note_on_c, 0, 68, 35
1, 375849, Note_on_c, 0, 73, 42
1, 375855, Note_on_c, 0, 65, 26
1, 375910, Note_off_c, 0, 73, 51
1, 375915, Note_off_c, 0, 65, 44
1, 375919, Note_off_c, 0, 68, 52
1, 375927, Note_off_c, 0, 85, 52
1, 375974, Note_on_c, 0, 61, 57
1, 376026, Control_c, 0, 64, 102
1, 376060, Note_off_c, 0, 61, 56
1, 376068, Note_on_c, 0, 68, 45
1, 376072, Control_c, 0, 64, 104
1, 376084, Note_on_c, 0, 73, 41
1, 376120, Note_on_c, 0, 85, 59
1, 376131, Note_off_c, 0, 68, 56
1, 376151, Poly_aftertouch_c, 0, 65, 0
1, 376153, Control_c, 0, 64, 96
1, 376159, Note_off_c, 0, 73, 55
1, 376168, Control_c, 0, 64, 86
1, 376183, Control_c, 0, 64, 74
1, 376198, Control_c, 0, 64, 64
1, 376213, Control_c, 0, 64, 0
1, 376213, Note_off_c, 0, 89, 38
1, 376219, Note_on_c, 0, 63, 52
1, 376219, Note_on_c, 0, 84, 65
1, 376243, Note_off_c, 0, 85, 59
1, 376301, Control_c, 0, 64, 56
1, 376316, Control_c, 0, 64, 69
1, 376322, Note_off_c, 0, 63, 61
1, 376331, Control_c, 0, 64, 75
1, 376337, Note_on_c, 0, 75, 50
1, 376344, Note_on_c, 0, 68, 42
1, 376346, Control_c, 0, 64, 81
1, 376355, Note_on_c, 0, 66, 36
1, 376361, Control_c, 0, 64, 86
1, 376375, Control_c, 0, 64, 90
1, 376390, Control_c, 0, 64, 93
1, 376393, Note_off_c, 0, 66, 50
1, 376399, Note_off_c, 0, 68, 57
1, 376400, Note_off_c, 0, 75, 48
1, 376405, Control_c, 0, 64, 96
1, 376420, Control_c, 0, 64, 100
1, 376435, Control_c, 0, 64, 103
1, 376449, Control_c, 0, 64, 106
1, 376452, Note_on_c, 0, 63, 54
1, 376494, Control_c, 0, 64, 108
1, 376559, Note_on_c, 0, 87, 72
1, 376569, Note_off_c, 0, 63, 59
1, 376578, Note_on_c, 0, 75, 43
1, 376584, Note_on_c, 0, 68, 39
1, 376587, Note_on_c, 0, 66, 28
1, 376629, Note_off_c, 0, 66, 49
1, 376631, Note_off_c, 0, 84, 62
1, 376634, Note_off_c, 0, 68, 56
1, 376639, Note_off_c, 0, 75, 55
1, 376684, Note_on_c, 0, 63, 58
1, 376756, Note_on_c, 0, 66, 39
1, 376760, Note_on_c, 0, 68, 44
1, 376776, Note_on_c, 0, 75, 54
1, 376782, Note_off_c, 0, 63, 60
1, 376795, Note_off_c, 0, 66, 64
1, 376802, Note_off_c, 0, 68, 64
1, 376839, Note_on_c, 0, 84, 63
1, 376843, Note_off_c, 0, 75, 60
1, 376854, Note_off_c, 0, 87, 64
1, 376887, Control_c, 0, 64, 105
1, 376902, Control_c, 0, 64, 102
1, 376917, Control_c, 0, 64, 96
1, 376931, Control_c, 0, 64, 87
1, 376946, Control_c, 0, 64, 76
1, 376961, Control_c, 0, 64, 67
1, 376976, Control_c, 0, 64, 0
1, 376978, Note_on_c, 0, 65, 52
1, 376978, Note_on_c, 0, 85, 71
1, 376986, Note_off_c, 0, 84, 63
1, 377110, Control_c, 0, 64, 68
1, 377121, Note_on_c, 0, 77, 54
1, 377124, Control_c, 0, 64, 75
1, 377126, Note_off_c, 0, 65, 56
1, 377139, Control_c, 0, 64, 80
1, 377140, Note_on_c, 0, 73, 45
1, 377153, Note_on_c, 0, 68, 30
1, 377154, Control_c, 0, 64, 86
1, 377169, Control_c, 0, 64, 91
1, 377184, Control_c, 0, 64, 95
1, 377191, Note_off_c, 0, 68, 50
1, 377199, Note_off_c, 0, 73, 52
1, 377199, Control_c, 0, 64, 98
1, 377213, Control_c, 0, 64, 100
1, 377214, Note_off_c, 0, 77, 46
1, 377243, Control_c, 0, 64, 102
1, 377246, Note_on_c, 0, 65, 52
1, 377338, Note_off_c, 0, 65, 55
1, 377357, Note_on_c, 0, 80, 63
1, 377369, Note_on_c, 0, 77, 44
1, 377371, Note_on_c, 0, 73, 42
1, 377380, Note_on_c, 0, 68, 17
1, 377430, Note_off_c, 0, 68, 48
1, 377435, Note_off_c, 0, 73, 55
1, 377437, Note_off_c, 0, 77, 39
1, 377482, Note_on_c, 0, 65, 51
1, 377581, Note_off_c, 0, 65, 59
1, 377603, Note_on_c, 0, 77, 49
1, 377605, Note_on_c, 0, 68, 33
1, 377610, Note_on_c, 0, 73, 46
1, 377662, Note_off_c, 0, 68, 54
1, 377662, Note_off_c, 0, 73, 55
1, 377664, Note_off_c, 0, 77, 53
1, 377712, Note_on_c, 0, 65, 58
1, 377784, Control_c, 0, 64, 104
1, 377790, Note_off_c, 0, 80, 57
1, 377821, Note_off_c, 0, 65, 60
1, 377827, Note_on_c, 0, 77, 59
1, 377833, Note_on_c, 0, 68, 44
1, 377843, Note_on_c, 0, 73, 49
1, 377872, Note_off_c, 0, 77, 58
1, 377873, Control_c, 0, 64, 107
1, 377879, Note_off_c, 0, 68, 57
1, 377886, Note_off_c, 0, 73, 59
1, 377933, Control_c, 0, 64, 109
1, 377948, Note_on_c, 0, 65, 54
1, 378039, Note_on_c, 0, 77, 70
1, 378040, Note_off_c, 0, 65, 56
1, 378050, Note_on_c, 0, 68, 55
1, 378059, Note_on_c, 0, 73, 57
1, 378067, Note_off_c, 0, 85, 62
1, 378107, Note_off_c, 0, 68, 54
1, 378123, Note_off_c, 0, 73, 54
1, 378171, Note_on_c, 0, 65, 56
1, 378277, Note_off_c, 0, 65, 57
1, 378283, Note_on_c, 0, 68, 47
1, 378287, Note_on_c, 0, 73, 53
1, 378315, Note_on_c, 0, 80, 72
1, 378344, Note_off_c, 0, 68, 59
1, 378374, Note_off_c, 0, 73, 57
1, 378414, Note_off_c, 0, 77, 59
1, 378425, Note_on_c, 0, 65, 52
1, 378436, Note_on_c, 0, 85, 80
1, 378544, Note_off_c, 0, 80, 58
1, 378546, Note_off_c, 0, 65, 59
1, 378574, Note_on_c, 0, 77, 50
1, 378577, Note_on_c, 0, 68, 42
1, 378583, Note_on_c, 0, 73, 48
1, 378610, Note_off_c, 0, 68, 54
1, 378635, Note_off_c, 0, 73, 55
1, 378637, Note_off_c, 0, 77, 46
1, 378663, Note_on_c, 0, 65, 65
1, 378754, Note_off_c, 0, 65, 60
1, 378768, Note_on_c, 0, 89, 82
1, 378779, Note_on_c, 0, 77, 58
1, 378782, Note_on_c, 0, 73, 58
1, 378788, Note_on_c, 0, 68, 50
1, 378830, Note_off_c, 0, 77, 51
1, 378842, Note_off_c, 0, 73, 53
1, 378872, Note_off_c, 0, 85, 58
1, 378872, Note_on_c, 0, 65, 67
1, 378881, Note_off_c, 0, 68, 55
1, 378958, Note_on_c, 0, 68, 43
1, 378961, Note_off_c, 0, 65, 60
1, 378979, Note_on_c, 0, 73, 54
1, 378981, Note_on_c, 0, 77, 56
1, 379003, Note_off_c, 0, 68, 61
1, 379006, Note_on_c, 0, 85, 71
1, 379008, Note_off_c, 0, 77, 58
1, 379045, Note_off_c, 0, 73, 53
1, 379051, Note_off_c, 0, 89, 59
1, 379051, Control_c, 0, 64, 106
1, 379066, Control_c, 0, 64, 98
1, 379089, Control_c, 0, 64, 86
1, 379096, Note_on_c, 0, 66, 64
1, 379098, Note_on_c, 0, 84, 84
1, 379103, Control_c, 0, 64, 69
1, 379118, Control_c, 0, 64, 0
1, 379126, Note_off_c, 0, 85, 61
1, 379207, Control_c, 0, 64, 64
1, 379211, Note_off_c, 0, 66, 63
1, 379218, Note_on_c, 0, 72, 58
1, 379219, Note_on_c, 0, 69, 51
1, 379220, Note_on_c, 0, 75, 57
1, 379221, Control_c, 0, 64, 75
1, 379236, Control_c, 0, 64, 83
1, 379253, Control_c, 0, 64, 91
1, 379268, Control_c, 0, 64, 95
1, 379273, Note_off_c, 0, 69, 52
1, 379282, Control_c, 0, 64, 97
1, 379291, Note_off_c, 0, 75, 52
1, 379297, Control_c, 0, 64, 102
1, 379312, Control_c, 0, 64, 106
1, 379316, Note_off_c, 0, 72, 57
1, 379325, Note_on_c, 0, 66, 71
1, 379326, Control_c, 0, 64, 109
1, 379356, Control_c, 0, 64, 111
1, 379386, Control_c, 0, 64, 115
1, 379400, Control_c, 0, 64, 117
1, 379426, Note_off_c, 0, 66, 62
1, 379430, Control_c, 0, 64, 119
1, 379431, Note_on_c, 0, 87, 86
1, 379435, Note_on_c, 0, 75, 63
1, 379438, Note_on_c, 0, 69, 45
1, 379439, Note_on_c, 0, 72, 63
1, 379474, Control_c, 0, 64, 121
1, 379485, Note_off_c, 0, 84, 55
1, 379507, Note_off_c, 0, 75, 53
1, 379509, Note_off_c, 0, 69, 52
1, 379519, Note_off_c, 0, 72, 58
1, 379519, Control_c, 0, 64, 124
1, 379527, Note_on_c, 0, 66, 71
1, 379533, Control_c, 0, 64, 127
1, 379638, Note_on_c, 0, 75, 60
1, 379640, Note_on_c, 0, 72, 61
1, 379647, Note_off_c, 0, 66, 53
1, 379684, Note_on_c, 0, 84, 82
1, 379713, Poly_aftertouch_c, 0, 69, 127
1, 379742, Note_off_c, 0, 75, 59
1, 379744, Poly_aftertouch_c, 0, 69, 0
1, 379744, Note_off_c, 0, 87, 64
1, 379756, Control_c, 0, 64, 118
1, 379760, Note_off_c, 0, 72, 54
1, 379771, Control_c, 0, 64, 103
1, 379786, Control_c, 0, 64, 89
1, 379800, Control_c, 0, 64, 75
1, 379815, Control_c, 0, 64, 66
1, 379826, Note_on_c, 0, 65, 53
1, 379838, Control_c, 0, 64, 0
1, 379854, Note_on_c, 0, 83, 89
1, 379889, Note_off_c, 0, 84, 62
1, 379971, Control_c, 0, 64, 72
1, 379982, Note_on_c, 0, 74, 54
1, 379984, Note_off_c, 0, 65, 61
1, 379986, Note_on_c, 0, 71, 54
1, 379986, Control_c, 0, 64, 79
1, 379999, Note_on_c, 0, 68, 44
1, 380000, Control_c, 0, 64, 86
1, 380015, Control_c, 0, 64, 92
1, 380030, Control_c, 0, 64, 97
1, 380046, Control_c, 0, 64, 103
1, 380058, Note_off_c, 0, 68, 54
1, 380061, Control_c, 0, 64, 108
1, 380074, Note_off_c, 0, 71, 58
1, 380075, Control_c, 0, 64, 113
1, 380082, Note_off_c, 0, 74, 57
1, 380090, Control_c, 0, 64, 115
1, 380093, Note_on_c, 0, 65, 65
1, 380105, Control_c, 0, 64, 117
1, 380135, Control_c, 0, 64, 119
1, 380179, Control_c, 0, 64, 121
1, 380194, Note_off_c, 0, 65, 59
1, 380200, Note_on_c, 0, 86, 81
1, 380210, Note_on_c, 0, 71, 52
1, 380211, Note_on_c, 0, 74, 53
1, 380214, Note_on_c, 0, 68, 47
1, 380238, Control_c, 0, 64, 124
1, 380253, Control_c, 0, 64, 127
1, 380283, Note_off_c, 0, 83, 58
1, 380304, Note_off_c, 0, 74, 58
1, 380306, Note_off_c, 0, 68, 56
1, 380307, Note_off_c, 0, 71, 59
1, 380326, Note_on_c, 0, 65, 54
1, 380431, Note_off_c, 0, 65, 62
1, 380438, Note_on_c, 0, 71, 55
1, 380443, Note_on_c, 0, 74, 50
1, 380449, Note_on_c, 0, 68, 50
1, 380506, Note_off_c, 0, 68, 54
1, 380525, Note_off_c, 0, 86, 62
1, 380526, Note_off_c, 0, 71, 59
1, 380535, Note_off_c, 0, 74, 56
1, 380547, Note_on_c, 0, 65, 67
1, 380656, Note_off_c, 0, 65, 62
1, 380657, Note_on_c, 0, 71, 62
1, 380665, Note_on_c, 0, 74, 64
1, 380668, Note_on_c, 0, 68, 53
1, 380717, Note_off_c, 0, 68, 58
1, 380742, Note_off_c, 0, 74, 56
1, 380750, Note_off_c, 0, 71, 57
1, 380758, Note_on_c, 0, 65, 76
1, 380823, Control_c, 0, 64, 123
1, 380858, Note_on_c, 0, 86, 88
1, 380861, Note_on_c, 0, 74, 66
1, 380867, Note_off_c, 0, 65, 61
1, 380869, Note_on_c, 0, 71, 65
1, 380869, Control_c, 0, 64, 120
1, 380884, Note_on_c, 0, 68, 54
1, 380913, Control_c, 0, 64, 118
1, 380922, Note_off_c, 0, 68, 62
1, 380933, Note_off_c, 0, 74, 59
1, 380939, Note_off_c, 0, 71, 59
1, 380953, Note_on_c, 0, 65, 65
1, 381030, Note_off_c, 0, 65, 62
1, 381032, Note_on_c, 0, 68, 51
1, 381054, Note_on_c, 0, 74, 61
1, 381091, Note_on_c, 0, 83, 86
1, 381099, Note_on_c, 0, 71, 5
1, 381137, Note_off_c, 0, 68, 51
1, 381140, Note_off_c, 0, 86, 62
1, 381150, Control_c, 0, 64, 115
1, 381151, Note_off_c, 0, 71, 50
1, 381152, Note_off_c, 0, 74, 45
1, 381164, Control_c, 0, 64, 99
1, 381167, Note_on_c, 0, 64, 69
1, 381179, Control_c, 0, 64, 79
1, 381192, Note_on_c, 0, 84, 92
1, 381194, Control_c, 0, 64, 0
1, 381224, Note_off_c, 0, 83, 62
1, 381298, Control_c, 0, 64, 68
1, 381310, Note_on_c, 0, 72, 63
1, 381311, Note_off_c, 0, 64, 61
1, 381313, Note_on_c, 0, 76, 55
1, 381313, Control_c, 0, 64, 81
1, 381331, Note_on_c, 0, 67, 54
1, 381335, Control_c, 0, 64, 92
1, 381350, Control_c, 0, 64, 100
1, 381365, Control_c, 0, 64, 103
1, 381370, Note_off_c, 0, 67, 61
1, 381379, Control_c, 0, 64, 106
1, 381394, Control_c, 0, 64, 110
1, 381409, Control_c, 0, 64, 113
1, 381423, Note_on_c, 0, 64, 78
1, 381423, Note_off_c, 0, 72, 50
1, 381423, Control_c, 0, 64, 116
1, 381437, Note_off_c, 0, 76, 24
1, 381453, Control_c, 0, 64, 118
1, 381532, Note_off_c, 0, 64, 61
1, 381541, Note_on_c, 0, 88, 95
1, 381543, Note_on_c, 0, 72, 63
1, 381546, Note_on_c, 0, 76, 62
1, 381548, Note_on_c, 0, 67, 52
1, 381590, Note_off_c, 0, 67, 59
1, 381608, Note_off_c, 0, 84, 63
1, 381631, Note_off_c, 0, 76, 50
1, 381647, Note_off_c, 0, 72, 50
1, 381652, Note_on_c, 0, 64, 71
1, 381749, Note_off_c, 0, 64, 60
1, 381767, Note_on_c, 0, 76, 63
1, 381773, Note_on_c, 0, 67, 55
1, 381774, Note_on_c, 0, 72, 61
1, 381810, Note_off_c, 0, 67, 61
1, 381838, Note_off_c, 0, 76, 54
1, 381862, Note_on_c, 0, 64, 74
1, 381867, Note_off_c, 0, 72, 44
1, 381936, Note_off_c, 0, 88, 61
1, 381963, Note_off_c, 0, 64, 61
1, 381972, Note_on_c, 0, 76, 66
1, 381986, Note_on_c, 0, 72, 67
1, 381989, Note_on_c, 0, 67, 50
1, 382018, Note_off_c, 0, 76, 51
1, 382023, Note_off_c, 0, 67, 48
1, 382058, Note_off_c, 0, 72, 50
1, 382071, Note_on_c, 0, 64, 78
1, 382131, Note_on_c, 0, 67, 8
1, 382167, Note_off_c, 0, 64, 61
1, 382172, Note_on_c, 0, 91, 99
1, 382173, Note_on_c, 0, 72, 72
1, 382173, Note_on_c, 0, 76, 69
1, 382175, Note_on_c, 0, 79, 89
1, 382204, Note_off_c, 0, 76, 61
1, 382232, Control_c, 0, 64, 120
1, 382255, Note_off_c, 0, 72, 56
1, 382261, Control_c, 0, 64, 124
1, 382270, Note_on_c, 0, 64, 74
1, 382276, Control_c, 0, 64, 127
1, 382318, Note_off_c, 0, 91, 60
1, 382325, Note_off_c, 0, 79, 59
1, 382341, Note_off_c, 0, 64, 62
1, 382345, Note_on_c, 0, 72, 54
1, 382347, Note_on_c, 0, 76, 53
1, 382368, Note_off_c, 0, 76, 61
1, 382371, Note_off_c, 0, 67, 59
1, 382378, Note_off_c, 0, 72, 63
1, 382409, Note_on_c, 0, 89, 84
1, 382421, Note_on_c, 0, 77, 80
1, 382464, Note_off_c, 0, 77, 58
1, 382467, Note_off_c, 0, 89, 64
1, 382514, Control_c, 0, 64, 93
1, 382515, Note_on_c, 0, 58, 76
1, 382526, Note_on_c, 0, 88, 100
1, 382529, Control_c, 0, 64, 70
1, 382530, Note_on_c, 0, 76, 86
1, 382544, Control_c, 0, 64, 0
1, 382633, Control_c, 0, 64, 66
1, 382648, Control_c, 0, 64, 78
1, 382653, Note_on_c, 0, 67, 66
1, 382654, Note_off_c, 0, 58, 62
1, 382657, Note_on_c, 0, 61, 61
1, 382658, Note_on_c, 0, 64, 61
1, 382663, Control_c, 0, 64, 87
1, 382677, Control_c, 0, 64, 100
1, 382692, Control_c, 0, 64, 106
1, 382707, Control_c, 0, 64, 111
1, 382714, Note_off_c, 0, 76, 55
1, 382722, Control_c, 0, 64, 119
1, 382732, Note_off_c, 0, 67, 46
1, 382737, Note_off_c, 0, 61, 50
1, 382737, Control_c, 0, 64, 127
1, 382741, Note_off_c, 0, 64, 60
1, 382746, Note_on_c, 0, 58, 80
1, 382854, Note_off_c, 0, 58, 61
1, 382856, Note_on_c, 0, 91, 98
1, 382858, Note_on_c, 0, 79, 91
1, 382859, Note_on_c, 0, 67, 74
1, 382865, Note_on_c, 0, 64, 69
1, 382872, Note_on_c, 0, 61, 64
1, 382885, Note_off_c, 0, 88, 62
1, 382933, Note_off_c, 0, 61, 49
1, 382933, Note_off_c, 0, 67, 58
1, 382947, Note_off_c, 0, 64, 62
1, 382955, Note_on_c, 0, 58, 78
1, 383054, Note_off_c, 0, 58, 58
1, 383054, Note_on_c, 0, 67, 69
1, 383060, Note_on_c, 0, 61, 64
1, 383063, Note_on_c, 0, 64, 69
1, 383117, Note_off_c, 0, 79, 60
1, 383125, Note_off_c, 0, 91, 60
1, 383128, Note_off_c, 0, 67, 58
1, 383148, Note_off_c, 0, 61, 54
1, 383148, Note_off_c, 0, 64, 59
1, 383156, Note_on_c, 0, 58, 80
1, 383245, Note_off_c, 0, 58, 61
1, 383248, Note_on_c, 0, 67, 70
1, 383258, Note_on_c, 0, 64, 67
1, 383264, Note_on_c, 0, 61, 66
1, 383321, Note_off_c, 0, 67, 58
1, 383323, Note_off_c, 0, 61, 56
1, 383338, Note_off_c, 0, 64, 59
1, 383340, Note_on_c, 0, 58, 81
1, 383427, Note_off_c, 0, 58, 59
1, 383429, Note_on_c, 0, 67, 73
1, 383437, Note_on_c, 0, 61, 67
1, 383440, Note_on_c, 0, 64, 65
1, 383441, Note_on_c, 0, 91, 96
1, 383447, Note_on_c, 0, 79, 83
1, 383504, Note_off_c, 0, 61, 59
1, 383510, Note_off_c, 0, 67, 61
1, 383521, Note_off_c, 0, 64, 61
1, 383525, Note_on_c, 0, 58, 79
1, 383550, Note_off_c, 0, 79, 61
1, 383581, Note_off_c, 0, 91, 64
1, 383623, Note_on_c, 0, 67, 68
1, 383623, Note_off_c, 0, 58, 60
1, 383627, Note_on_c, 0, 61, 66
1, 383665, Note_on_c, 0, 88, 93
1, 383674, Note_on_c, 0, 76, 77
1, 383686, Note_off_c, 0, 67, 57
1, 383698, Note_off_c, 0, 76, 67
1, 383708, Poly_aftertouch_c, 0, 64, 127
1, 383711, Note_off_c, 0, 88, 64
1, 383737, Note_on_c, 0, 56, 74
1, 383737, Note_off_c, 0, 61, 60
1, 383740, Poly_aftertouch_c, 0, 64, 0
1, 383745, Control_c, 0, 64, 87
1, 383750, Note_on_c, 0, 89, 102
1, 383755, Note_on_c, 0, 77, 89
1, 383760, Control_c, 0, 64, 54
1, 383774, Control_c, 0, 64, 0
1, 383848, Control_c, 0, 64, 66
1, 383863, Control_c, 0, 64, 78
1, 383865, Note_on_c, 0, 68, 68
1, 383867, Note_on_c, 0, 60, 56
1, 383873, Note_off_c, 0, 56, 62
1, 383875, Note_on_c, 0, 65, 58
1, 383878, Control_c, 0, 64, 89
1, 383892, Control_c, 0, 64, 101
1, 383907, Control_c, 0, 64, 109
1, 383915, Note_off_c, 0, 68, 47
1, 383922, Control_c, 0, 64, 115
1, 383930, Note_off_c, 0, 77, 61
1, 383937, Control_c, 0, 64, 127
1, 383949, Note_off_c, 0, 60, 45
1, 383954, Note_off_c, 0, 65, 60
1, 383961, Note_on_c, 0, 56, 78
1, 384064, Note_off_c, 0, 56, 63
1, 384067, Note_on_c, 0, 68, 68
1, 384069, Note_on_c, 0, 60, 68
1, 384075, Note_on_c, 0, 92, 96
1, 384076, Note_on_c, 0, 65, 68
1, 384076, Note_on_c, 0, 80, 96
1, 384100, Note_off_c, 0, 89, 64
1, 384128, Note_off_c, 0, 60, 54
1, 384136, Note_off_c, 0, 68, 59
1, 384164, Note_off_c, 0, 65, 50
1, 384174, Note_on_c, 0, 56, 74
1, 384267, Note_on_c, 0, 68, 66
1, 384268, Note_on_c, 0, 60, 70
1, 384269, Note_off_c, 0, 56, 61
1, 384278, Note_on_c, 0, 65, 69
1, 384325, Note_off_c, 0, 60, 52
1, 384339, Note_off_c, 0, 68, 61
1, 384361, Note_off_c, 0, 80, 62
1, 384364, Note_off_c, 0, 65, 54
1, 384367, Note_off_c, 0, 92, 58
1, 384374, Note_on_c, 0, 56, 80
1, 384466, Note_off_c, 0, 56, 62
1, 384468, Note_on_c, 0, 60, 66
1, 384469, Note_on_c, 0, 68, 70
1, 384474, Note_on_c, 0, 65, 76
1, 384519, Note_off_c, 0, 60, 52
1, 384525, Note_off_c, 0, 68, 55
1, 384568, Note_on_c, 0, 56, 81
1, 384572, Note_off_c, 0, 65, 52
1, 384663, Note_off_c, 0, 56, 59
1, 384667, Note_on_c, 0, 60, 71
1, 384673, Note_on_c, 0, 68, 75
1, 384676, Note_on_c, 0, 92, 99
1, 384679, Note_on_c, 0, 65, 76
1, 384679, Note_on_c, 0, 80, 89
1, 384726, Note_off_c, 0, 60, 57
1, 384726, Note_off_c, 0, 80, 63
1, 384731, Note_off_c, 0, 92, 64
1, 384735, Note_off_c, 0, 68, 62
1, 384767, Note_on_c, 0, 56, 76
1, 384777, Note_off_c, 0, 65, 57
1, 384875, Note_off_c, 0, 56, 0
1, 384894, Note_on_c, 0, 68, 85
1, 384896, Note_on_c, 0, 60, 45
1, 384902, Note_on_c, 0, 65, 73
1, 384913, Poly_aftertouch_c, 0, 56, 127
1, 384915, Note_off_c, 0, 68, 70
1, 384926, Note_off_c, 0, 65, 68
1, 384947, Note_off_c, 0, 60, 60
1, 384963, Poly_aftertouch_c, 0, 56, 0
1, 384973, Note_on_c, 0, 89, 86
1, 384977, Note_on_c, 0, 77, 88
1, 385002, Note_off_c, 0, 89, 63
1, 385018, Note_off_c, 0, 77, 62
1, 385108, Control_c, 0, 64, 117
1, 385123, Control_c, 0, 64, 80
1, 385138, Control_c, 0, 64, 0
1, 385173, Note_on_c, 0, 46, 97
1, 385174, Note_on_c, 0, 34, 93
1, 385196, Control_c, 0, 64, 65
1, 385205, Note_off_c, 0, 34, 65
1, 385209, Note_off_c, 0, 46, 62
1, 385211, Control_c, 0, 64, 81
1, 385225, Note_on_c, 0, 61, 73
1, 385226, Control_c, 0, 64, 97
1, 385241, Control_c, 0, 64, 127
1, 385296, Note_on_c, 0, 58, 81
1, 385297, Note_off_c, 0, 61, 61
1, 385372, Note_on_c, 0, 66, 82
1, 385372, Note_off_c, 0, 58, 60
1, 385424, Note_off_c, 0, 66, 62
1, 385458, Note_on_c, 0, 49, 82
1, 385515, Note_on_c, 0, 54, 76
1, 385540, Note_off_c, 0, 49, 64
1, 385559, Note_on_c, 0, 58, 92
1, 385576, Note_off_c, 0, 54, 61
1, 385583, Note_off_c, 0, 58, 67
1, 385608, Note_on_c, 0, 66, 71
1, 385666, Note_off_c, 0, 66, 63
1, 385684, Note_on_c, 0, 61, 79
1, 385740, Note_on_c, 0, 70, 77
1, 385747, Note_off_c, 0, 61, 62
1, 385782, Note_off_c, 0, 70, 61
1, 385800, Note_on_c, 0, 54, 78
1, 385839, Note_on_c, 0, 58, 77
1, 385877, Note_off_c, 0, 54, 61
1, 385894, Note_off_c, 0, 58, 63
1, 385898, Note_on_c, 0, 61, 88
1, 385923, Note_off_c, 0, 61, 66
1, 385963, Note_on_c, 0, 70, 76
1, 386016, Note_off_c, 0, 70, 62
1, 386017, Note_on_c, 0, 66, 80
1, 386080, Note_on_c, 0, 73, 85
1, 386088, Note_off_c, 0, 66, 63
1, 386125, Note_on_c, 0, 58, 78
1, 386125, Note_off_c, 0, 73, 62
1, 386169, Note_on_c, 0, 61, 79
1, 386201, Note_off_c, 0, 58, 62
1, 386214, Note_on_c, 0, 66, 93
1, 386217, Note_off_c, 0, 61, 63
1, 386249, Note_off_c, 0, 66, 66
1, 386279, Note_on_c, 0, 73, 77
1, 386338, Note_off_c, 0, 73, 62
1, 386339, Note_on_c, 0, 70, 80
1, 386390, Note_on_c, 0, 78, 88
1, 386402, Note_off_c, 0, 70, 65
1, 386437, Note_off_c, 0, 78, 63
1, 386448, Note_on_c, 0, 61, 78
1, 386507, Note_on_c, 0, 66, 83
1, 386536, Note_off_c, 0, 61, 61
1, 386563, Note_on_c, 0, 70, 88
1, 386572, Note_off_c, 0, 66, 62
1, 386594, Note_off_c, 0, 70, 61
1, 386626, Note_on_c, 0, 78, 78
1, 386680, Note_on_c, 0, 73, 83
1, 386683, Note_off_c, 0, 78, 61
1, 386741, Note_on_c, 0, 82, 84
1, 386746, Note_off_c, 0, 73, 64
1, 386782, Note_off_c, 0, 82, 62
1, 386786, Note_on_c, 0, 66, 76
1, 386837, Note_on_c, 0, 70, 80
1, 386862, Note_off_c, 0, 66, 64
1, 386884, Note_on_c, 0, 73, 91
1, 386884, Note_off_c, 0, 70, 63
1, 386913, Note_off_c, 0, 73, 63
1, 386921, Note_on_c, 0, 85, 28
1, 386948, Note_on_c, 0, 82, 80
1, 386958, Note_off_c, 0, 85, 49
1, 386999, Note_off_c, 0, 82, 63
1, 387001, Note_on_c, 0, 78, 83
1, 387057, Note_on_c, 0, 85, 79
1, 387074, Note_off_c, 0, 78, 63
1, 387102, Note_off_c, 0, 85, 64
1, 387108, Note_on_c, 0, 70, 80
1, 387159, Note_on_c, 0, 73, 80
1, 387188, Note_off_c, 0, 70, 63
1, 387206, Note_on_c, 0, 78, 96
1, 387208, Note_off_c, 0, 73, 62
1, 387224, Note_on_c, 0, 87, 41
1, 387245, Note_off_c, 0, 78, 64
1, 387260, Note_off_c, 0, 87, 49
1, 387274, Note_on_c, 0, 85, 81
1, 387334, Note_off_c, 0, 85, 64
1, 387334, Note_on_c, 0, 82, 81
1, 387388, Note_on_c, 0, 90, 97
1, 387393, Note_off_c, 0, 82, 63
1, 387434, Note_off_c, 0, 90, 65
1, 387451, Note_on_c, 0, 73, 77
1, 387512, Note_on_c, 0, 78, 80
1, 387540, Note_off_c, 0, 73, 60
1, 387565, Note_on_c, 0, 82, 99
1, 387594, Note_off_c, 0, 78, 61
1, 387606, Note_off_c, 0, 82, 64
1, 387683, Note_on_c, 0, 90, 72
1, 387735, Note_off_c, 0, 90, 64
1, 387750, Note_on_c, 0, 85, 82
1, 387803, Note_off_c, 0, 85, 65
1, 387805, Note_on_c, 0, 94, 100
1, 387832, Note_off_c, 0, 94, 63
1, 387932, Control_c, 0, 64, 86
1, 387947, Control_c, 0, 64, 0
1, 387999, Note_on_c, 0, 48, 95
1, 388000, Note_on_c, 0, 36, 87
1, 388021, Control_c, 0, 64, 76
1, 388035, Note_off_c, 0, 36, 64
1, 388037, Control_c, 0, 64, 92
1, 388046, Note_off_c, 0, 48, 64
1, 388052, Control_c, 0, 64, 117
1, 388074, Control_c, 0, 64, 127
1, 388091, Note_on_c, 0, 63, 74
1, 388150, Note_on_c, 0, 60, 78
1, 388151, Note_off_c, 0, 63, 63
1, 388207, Note_on_c, 0, 69, 85
1, 388210, Note_off_c, 0, 60, 60
1, 388248, Note_off_c, 0, 69, 57
1, 388268, Note_on_c, 0, 51, 77
1, 388323, Note_on_c, 0, 57, 74
1, 388342, Note_on_c, 0, 56, 41
1, 388346, Note_off_c, 0, 51, 61
1, 388369, Note_on_c, 0, 60, 86
1, 388371, Note_off_c, 0, 57, 64
1, 388372, Note_off_c, 0, 56, 34
1, 388399, Note_off_c, 0, 60, 61
1, 388431, Note_on_c, 0, 69, 79
1, 388487, Note_on_c, 0, 63, 76
1, 388506, Note_off_c, 0, 69, 60
1, 388539, Note_on_c, 0, 72, 88
1, 388548, Note_off_c, 0, 63, 63
1, 388578, Note_off_c, 0, 72, 61
1, 388586, Note_on_c, 0, 57, 79
1, 388643, Note_on_c, 0, 60, 76
1, 388682, Note_off_c, 0, 57, 62
1, 388690, Note_off_c, 0, 60, 63
1, 388698, Note_on_c, 0, 63, 86
1, 388727, Note_off_c, 0, 63, 65
1, 388759, Note_on_c, 0, 72, 74
1, 388823, Note_on_c, 0, 69, 79
1, 388823, Note_off_c, 0, 72, 61
1, 388878, Note_on_c, 0, 75, 92
1, 388895, Note_off_c, 0, 69, 62
1, 388920, Note_off_c, 0, 75, 64
1, 388927, Note_on_c, 0, 60, 78
1, 388971, Note_on_c, 0, 63, 84
1, 388999, Note_off_c, 0, 60, 60
1, 389020, Note_on_c, 0, 69, 86
1, 389020, Note_off_c, 0, 63, 63
1, 389057, Note_off_c, 0, 69, 66
1, 389081, Note_on_c, 0, 75, 81
1, 389130, Poly_aftertouch_c, 0, 78, 0
1, 389139, Note_on_c, 0, 72, 85
1, 389141, Note_off_c, 0, 75, 62
1, 389196, Note_on_c, 0, 81, 85
1, 389203, Note_off_c, 0, 72, 62
1, 389225, Note_off_c, 0, 81, 60
1, 389233, Note_on_c, 0, 63, 78
1, 389284, Note_on_c, 0, 69, 78
1, 389304, Note_off_c, 0, 63, 62
1, 389329, Note_off_c, 0, 69, 64
1, 389329, Note_on_c, 0, 72, 87
1, 389366, Note_off_c, 0, 72, 62
1, 389403, Note_on_c, 0, 81, 72
1, 389451, Note_on_c, 0, 75, 83
1, 389464, Note_off_c, 0, 81, 60
1, 389505, Note_on_c, 0, 84, 81
1, 389508, Note_off_c, 0, 75, 64
1, 389545, Note_on_c, 0, 69, 79
1, 389547, Note_off_c, 0, 84, 62
1, 389597, Poly_aftertouch_c, 0, 76, 0
1, 389609, Note_on_c, 0, 72, 78
1, 389642, Note_off_c, 0, 69, 61
1, 389657, Note_off_c, 0, 72, 60
1, 389666, Note_on_c, 0, 75, 83
1, 389687, Note_off_c, 0, 75, 68
1, 389727, Note_on_c, 0, 84, 80
1, 389740, Poly_aftertouch_c, 0, 87, 127
1, 389769, Poly_aftertouch_c, 0, 87, 0
1, 389779, Note_off_c, 0, 84, 62
1, 389782, Note_on_c, 0, 81, 79
1, 389799, Note_on_c, 0, 75, 7
1, 389835, Note_on_c, 0, 87, 93
1, 389849, Note_off_c, 0, 75, 51
1, 389849, Note_off_c, 0, 81, 63
1, 389874, Note_off_c, 0, 87, 68
1, 389889, Note_on_c, 0, 72, 85
1, 389932, Note_on_c, 0, 75, 78
1, 389961, Note_off_c, 0, 72, 61
1, 389978, Note_off_c, 0, 75, 63
1, 389982, Note_on_c, 0, 81, 86
1, 390002, Note_on_c, 0, 90, 42
1, 390020, Note_off_c, 0, 81, 65
1, 390037, Note_off_c, 0, 90, 48
1, 390047, Note_on_c, 0, 87, 79
1, 390104, Note_on_c, 0, 84, 78
1, 390105, Note_off_c, 0, 87, 65
1, 390150, Note_on_c, 0, 93, 92
1, 390160, Note_off_c, 0, 84, 64
1, 390187, Note_off_c, 0, 93, 66
1, 390216, Note_on_c, 0, 75, 73
1, 390266, Note_on_c, 0, 81, 74
1, 390312, Note_off_c, 0, 75, 62
1, 390318, Note_on_c, 0, 84, 97
1, 390340, Note_off_c, 0, 81, 62
1, 390351, Note_off_c, 0, 84, 67
1, 390448, Note_on_c, 0, 93, 63
1, 390495, Note_on_c, 0, 87, 80
1, 390504, Note_off_c, 0, 93, 64
1, 390549, Note_on_c, 0, 96, 104
1, 390555, Note_off_c, 0, 87, 66
1, 390576, Note_off_c, 0, 96, 72
1, 390691, Control_c, 0, 64, 117
1, 390706, Control_c, 0, 64, 73
1, 390721, Control_c, 0, 64, 0
1, 390767, Note_on_c, 0, 49, 97
1, 390771, Note_on_c, 0, 37, 86
1, 390795, Control_c, 0, 64, 74
1, 390800, Note_off_c, 0, 37, 68
1, 390807, Note_off_c, 0, 49, 65
1, 390809, Control_c, 0, 64, 91
1, 390824, Control_c, 0, 64, 109
1, 390839, Note_on_c, 0, 65, 67
1, 390839, Control_c, 0, 64, 122
1, 390869, Control_c, 0, 64, 124
1, 390912, Note_on_c, 0, 61, 73
1, 390917, Note_off_c, 0, 65, 65
1, 390972, Control_c, 0, 64, 127
1, 390973, Note_on_c, 0, 70, 83
1, 390975, Note_off_c, 0, 61, 62
1, 391017, Note_off_c, 0, 70, 60
1, 391056, Note_on_c, 0, 53, 75
1, 391083, Control_c, 0, 64, 124
1, 391117, Note_on_c, 0, 58, 78
1, 391162, Note_on_c, 0, 61, 99
1, 391172, Control_c, 0, 64, 127
1, 391186, Note_off_c, 0, 53, 61
1, 391204, Note_off_c, 0, 61, 62
1, 391211, Note_off_c, 0, 58, 62
1, 391290, Note_on_c, 0, 70, 78
1, 391292, Note_on_c, 0, 73, 3
1, 391327, Note_off_c, 0, 73, 51
1, 391353, Note_on_c, 0, 65, 81
1, 391353, Note_off_c, 0, 70, 62
1, 391406, Note_on_c, 0, 73, 90
1, 391424, Note_off_c, 0, 65, 65
1, 391449, Note_off_c, 0, 73, 64
1, 391484, Control_c, 0, 64, 103
1, 391499, Control_c, 0, 64, 69
1, 391514, Control_c, 0, 64, 0
1, 391541, Note_on_c, 0, 52, 97
1, 391544, Note_on_c, 0, 40, 93
1, 391571, Note_off_c, 0, 40, 69
1, 391573, Control_c, 0, 64, 68
1, 391588, Note_off_c, 0, 52, 64
1, 391588, Control_c, 0, 64, 86
1, 391603, Control_c, 0, 64, 104
1, 391618, Control_c, 0, 64, 127
1, 391633, Note_on_c, 0, 67, 73
1, 391690, Note_off_c, 0, 67, 62
1, 391691, Note_on_c, 0, 64, 79
1, 391746, Note_on_c, 0, 72, 87
1, 391755, Note_off_c, 0, 64, 64
1, 391788, Note_off_c, 0, 72, 58
1, 391818, Note_on_c, 0, 55, 74
1, 391872, Note_on_c, 0, 60, 81
1, 391901, Note_off_c, 0, 55, 61
1, 391922, Note_on_c, 0, 64, 95
1, 391929, Note_off_c, 0, 60, 61
1, 391964, Note_off_c, 0, 64, 65
1, 392044, Note_on_c, 0, 72, 75
1, 392093, Note_off_c, 0, 72, 61
1, 392104, Note_on_c, 0, 67, 78
1, 392166, Note_on_c, 0, 76, 87
1, 392172, Note_off_c, 0, 67, 60
1, 392203, Control_c, 0, 64, 101
1, 392210, Note_off_c, 0, 76, 56
1, 392218, Control_c, 0, 64, 77
1, 392233, Control_c, 0, 64, 0
1, 392286, Note_on_c, 0, 53, 93
1, 392291, Note_on_c, 0, 41, 88
1, 392320, Note_off_c, 0, 41, 67
1, 392322, Control_c, 0, 64, 81
1, 392331, Note_off_c, 0, 53, 66
1, 392336, Control_c, 0, 64, 104
1, 392342, Note_on_c, 0, 73, 32
1, 392351, Control_c, 0, 64, 127
1, 392371, Note_on_c, 0, 68, 73
1, 392379, Note_off_c, 0, 73, 55
1, 392423, Note_on_c, 0, 65, 80
1, 392427, Note_off_c, 0, 68, 63
1, 392483, Note_on_c, 0, 73, 79
1, 392486, Note_off_c, 0, 65, 63
1, 392522, Note_off_c, 0, 73, 58
1, 392536, Note_on_c, 0, 56, 71
1, 392600, Note_on_c, 0, 61, 83
1, 392624, Note_off_c, 0, 56, 63
1, 392647, Note_on_c, 0, 65, 89
1, 392653, Note_off_c, 0, 61, 61
1, 392679, Note_off_c, 0, 65, 63
1, 392787, Note_on_c, 0, 73, 69
1, 392812, Note_off_c, 0, 73, 67
1, 392828, Note_on_c, 0, 68, 78
1, 392880, Note_off_c, 0, 68, 65
1, 392893, Note_on_c, 0, 77, 85
1, 392927, Note_off_c, 0, 77, 57
1, 392937, Control_c, 0, 64, 120
1, 392952, Control_c, 0, 64, 82
1, 392967, Control_c, 0, 64, 0
1, 393010, Note_on_c, 0, 55, 95
1, 393013, Note_on_c, 0, 43, 87
1, 393040, Note_off_c, 0, 43, 68
1, 393054, Note_off_c, 0, 55, 65
1, 393056, Control_c, 0, 64, 76
1, 393071, Control_c, 0, 64, 87
1, 393085, Control_c, 0, 64, 102
1, 393094, Note_on_c, 0, 70, 77
1, 393100, Control_c, 0, 64, 113
1, 393115, Control_c, 0, 64, 120
1, 393129, Control_c, 0, 64, 127
1, 393151, Note_off_c, 0, 70, 63
1, 393153, Note_on_c, 0, 67, 76
1, 393200, Note_on_c, 0, 76, 81
1, 393205, Note_off_c, 0, 67, 63
1, 393226, Note_off_c, 0, 76, 63
1, 393254, Note_on_c, 0, 58, 73
1, 393310, Note_on_c, 0, 64, 76
1, 393341, Note_off_c, 0, 58, 62
1, 393358, Note_on_c, 0, 67, 89
1, 393365, Note_off_c, 0, 64, 65
1, 393391, Note_off_c, 0, 67, 65
1, 393472, Note_on_c, 0, 76, 74
1, 393537, Note_off_c, 0, 76, 59
1, 393541, Note_on_c, 0, 70, 74
1, 393591, Note_on_c, 0, 79, 86
1, 393596, Note_off_c, 0, 70, 65
1, 393618, Note_off_c, 0, 79, 62
1, 393642, Control_c, 0, 64, 106
1, 393657, Control_c, 0, 64, 74
1, 393672, Control_c, 0, 64, 0
1, 393729, Note_on_c, 0, 44, 81
1, 393760, Control_c, 0, 64, 62
1, 393761, Note_off_c, 0, 44, 65
1, 393775, Control_c, 0, 64, 79
1, 393790, Control_c, 0, 64, 87
1, 393805, Control_c, 0, 64, 99
1, 393808, Note_on_c, 0, 72, 70
1, 393820, Control_c, 0, 64, 102
1, 393871, Note_on_c, 0, 68, 68
1, 393871, Note_off_c, 0, 72, 60
1, 393893, Control_c, 0, 64, 95
1, 393908, Control_c, 0, 64, 82
1, 393921, Note_on_c, 0, 77, 75
1, 393923, Control_c, 0, 64, 65
1, 393926, Note_off_c, 0, 68, 63
1, 393938, Control_c, 0, 64, 0
1, 393949, Note_off_c, 0, 77, 60
1, 393971, Note_on_c, 0, 56, 65
1, 394006, Note_off_c, 0, 56, 68
1, 394007, Note_on_c, 0, 60, 73
1, 394029, Note_off_c, 0, 60, 65
1, 394067, Note_on_c, 0, 46, 81
1, 394089, Note_off_c, 0, 46, 67
1, 394093, Control_c, 0, 64, 73
1, 394108, Control_c, 0, 64, 88
1, 394121, Note_on_c, 0, 73, 71
1, 394123, Control_c, 0, 64, 92
1, 394138, Control_c, 0, 64, 95
1, 394167, Control_c, 0, 64, 95
1, 394175, Note_off_c, 0, 73, 60
1, 394181, Note_on_c, 0, 70, 81
1, 394182, Control_c, 0, 64, 97
1, 394229, Note_off_c, 0, 70, 64
1, 394233, Poly_aftertouch_c, 0, 46, 0
1, 394241, Control_c, 0, 64, 91
1, 394248, Note_on_c, 0, 79, 78
1, 394256, Control_c, 0, 64, 79
1, 394271, Control_c, 0, 64, 64
1, 394286, Control_c, 0, 64, 0
1, 394290, Note_on_c, 0, 58, 68
1, 394290, Note_off_c, 0, 79, 45
1, 394330, Note_off_c, 0, 58, 64
1, 394343, Note_on_c, 0, 61, 75
1, 394369, Note_off_c, 0, 61, 64
1, 394390, Note_on_c, 0, 48, 83
1, 394419, Control_c, 0, 64, 68
1, 394426, Note_off_c, 0, 48, 65
1, 394435, Control_c, 0, 64, 83
1, 394450, Control_c, 0, 64, 86
1, 394453, Note_on_c, 0, 75, 76
1, 394465, Control_c, 0, 64, 89
1, 394495, Control_c, 0, 64, 91
1, 394507, Note_off_c, 0, 75, 63
1, 394509, Control_c, 0, 64, 93
1, 394511, Note_on_c, 0, 72, 83
1, 394524, Control_c, 0, 64, 95
1, 394539, Control_c, 0, 64, 95
1, 394557, Note_on_c, 0, 81, 79
1, 394562, Note_off_c, 0, 72, 59
1, 394583, Control_c, 0, 64, 93
1, 394590, Note_off_c, 0, 81, 59
1, 394598, Control_c, 0, 64, 83
1, 394613, Control_c, 0, 64, 67
1, 394614, Note_on_c, 0, 60, 72
1, 394628, Control_c, 0, 64, 0
1, 394653, Note_off_c, 0, 60, 63
1, 394662, Note_on_c, 0, 63, 82
1, 394688, Note_off_c, 0, 63, 66
1, 394710, Note_on_c, 0, 49, 86
1, 394731, Control_c, 0, 64, 68
1, 394739, Note_off_c, 0, 49, 69
1, 394746, Control_c, 0, 64, 78
1, 394761, Control_c, 0, 64, 84
1, 394763, Note_on_c, 0, 77, 72
1, 394775, Control_c, 0, 64, 89
1, 394790, Control_c, 0, 64, 90
1, 394813, Control_c, 0, 64, 92
1, 394827, Control_c, 0, 64, 94
1, 394829, Note_on_c, 0, 73, 82
1, 394829, Note_off_c, 0, 77, 60
1, 394842, Control_c, 0, 64, 95
1, 394857, Control_c, 0, 64, 95
1, 394869, Note_on_c, 0, 82, 82
1, 394872, Control_c, 0, 64, 96
1, 394883, Note_off_c, 0, 73, 62
1, 394901, Control_c, 0, 64, 95
1, 394916, Control_c, 0, 64, 89
1, 394921, Note_off_c, 0, 82, 59
1, 394927, Note_on_c, 0, 61, 74
1, 394931, Control_c, 0, 64, 76
1, 394946, Control_c, 0, 64, 0
1, 394974, Note_off_c, 0, 61, 60
1, 394975, Note_on_c, 0, 65, 80
1, 395001, Note_off_c, 0, 65, 68
1, 395019, Note_on_c, 0, 52, 90
1, 395061, Note_off_c, 0, 52, 64
1, 395064, Control_c, 0, 64, 76
1, 395079, Control_c, 0, 64, 81
1, 395085, Note_on_c, 0, 79, 76
1, 395094, Control_c, 0, 64, 85
1, 395109, Control_c, 0, 64, 87
1, 395124, Control_c, 0, 64, 88
1, 395138, Note_off_c, 0, 79, 62
1, 395138, Control_c, 0, 64, 89
1, 395141, Note_on_c, 0, 76, 82
1, 395153, Control_c, 0, 64, 91
1, 395168, Control_c, 0, 64, 92
1, 395180, Note_on_c, 0, 84, 83
1, 395183, Control_c, 0, 64, 93
1, 395191, Note_off_c, 0, 76, 62
1, 395198, Control_c, 0, 64, 94
1, 395213, Control_c, 0, 64, 95
1, 395214, Note_off_c, 0, 84, 62
1, 395235, Note_on_c, 0, 64, 73
1, 395243, Control_c, 0, 64, 91
1, 395258, Control_c, 0, 64, 76
1, 395273, Control_c, 0, 64, 0
1, 395282, Note_on_c, 0, 67, 78
1, 395282, Note_off_c, 0, 64, 64
1, 395310, Note_off_c, 0, 67, 66
1, 395329, Note_on_c, 0, 53, 93
1, 395362, Control_c, 0, 64, 61
1, 395371, Note_off_c, 0, 53, 63
1, 395375, Note_on_c, 0, 85, 15
1, 395377, Control_c, 0, 64, 75
1, 395392, Control_c, 0, 64, 83
1, 395395, Note_on_c, 0, 80, 77
1, 395406, Control_c, 0, 64, 89
1, 395419, Note_off_c, 0, 85, 42
1, 395421, Control_c, 0, 64, 92
1, 395436, Control_c, 0, 64, 94
1, 395445, Note_on_c, 0, 77, 84
1, 395447, Note_off_c, 0, 80, 63
1, 395450, Control_c, 0, 64, 96
1, 395465, Control_c, 0, 64, 98
1, 395494, Note_on_c, 0, 85, 83
1, 395495, Control_c, 0, 64, 101
1, 395504, Note_off_c, 0, 77, 61
1, 395510, Control_c, 0, 64, 103
1, 395524, Control_c, 0, 64, 106
1, 395535, Note_off_c, 0, 85, 60
1, 395553, Note_on_c, 0, 65, 70
1, 395577, Control_c, 0, 64, 98
1, 395592, Control_c, 0, 64, 82
1, 395601, Note_on_c, 0, 68, 76
1, 395601, Note_off_c, 0, 65, 64
1, 395606, Control_c, 0, 64, 64
1, 395621, Control_c, 0, 64, 0
1, 395627, Note_off_c, 0, 68, 68
1, 395643, Note_on_c, 0, 55, 92
1, 395687, Note_off_c, 0, 55, 62
1, 395695, Control_c, 0, 64, 73
1, 395706, Note_on_c, 0, 82, 76
1, 395710, Control_c, 0, 64, 81
1, 395724, Control_c, 0, 64, 88
1, 395739, Control_c, 0, 64, 93
1, 395750, Poly_aftertouch_c, 0, 85, 0
1, 395753, Note_on_c, 0, 79, 84
1, 395754, Control_c, 0, 64, 94
1, 395755, Note_off_c, 0, 82, 63
1, 395769, Control_c, 0, 64, 96
1, 395798, Control_c, 0, 64, 99
1, 395803, Note_on_c, 0, 88, 89
1, 395803, Note_off_c, 0, 79, 61
1, 395828, Control_c, 0, 64, 102
1, 395849, Note_off_c, 0, 88, 62
1, 395857, Control_c, 0, 64, 105
1, 395868, Note_on_c, 0, 67, 72
1, 395887, Control_c, 0, 64, 101
1, 395902, Note_off_c, 0, 67, 65
1, 395902, Control_c, 0, 64, 86
1, 395904, Note_on_c, 0, 70, 80
1, 395918, Control_c, 0, 64, 67
1, 395932, Control_c, 0, 64, 0
1, 395944, Note_off_c, 0, 70, 63
1, 395958, Note_on_c, 0, 56, 84
1, 395979, Note_off_c, 0, 56, 68
1, 395992, Control_c, 0, 64, 68
1, 396006, Control_c, 0, 64, 78
1, 396018, Note_on_c, 0, 84, 76
1, 396022, Control_c, 0, 64, 86
1, 396037, Control_c, 0, 64, 93
1, 396044, Note_on_c, 0, 56, 32
1, 396052, Control_c, 0, 64, 94
1, 396066, Control_c, 0, 64, 96
1, 396073, Note_on_c, 0, 80, 82
1, 396073, Note_off_c, 0, 84, 63
1, 396074, Note_off_c, 0, 56, 56
1, 396096, Control_c, 0, 64, 99
1, 396126, Note_off_c, 0, 80, 62
1, 396131, Note_on_c, 0, 89, 82
1, 396141, Control_c, 0, 64, 101
1, 396176, Note_on_c, 0, 68, 74
1, 396189, Note_off_c, 0, 89, 60
1, 396200, Control_c, 0, 64, 93
1, 396215, Control_c, 0, 64, 75
1, 396224, Note_on_c, 0, 72, 72
1, 396226, Note_off_c, 0, 68, 63
1, 396229, Control_c, 0, 64, 0
1, 396241, Note_off_c, 0, 72, 63
1, 396278, Note_on_c, 0, 58, 90
1, 396307, Note_off_c, 0, 58, 69
1, 396326, Control_c, 0, 64, 73
1, 396330, Note_on_c, 0, 85, 78
1, 396341, Control_c, 0, 64, 82
1, 396355, Poly_aftertouch_c, 0, 87, 0
1, 396355, Control_c, 0, 64, 92
1, 396370, Control_c, 0, 64, 99
1, 396378, Note_off_c, 0, 85, 64
1, 396383, Note_on_c, 0, 82, 87
1, 396385, Control_c, 0, 64, 102
1, 396400, Control_c, 0, 64, 105
1, 396415, Control_c, 0, 64, 109
1, 396435, Note_off_c, 0, 82, 64
1, 396444, Control_c, 0, 64, 112
1, 396446, Note_on_c, 0, 91, 92
1, 396459, Control_c, 0, 64, 115
1, 396474, Control_c, 0, 64, 117
1, 396488, Note_on_c, 0, 70, 73
1, 396504, Control_c, 0, 64, 115
1, 396507, Note_off_c, 0, 91, 61
1, 396519, Control_c, 0, 64, 100
1, 396531, Note_off_c, 0, 70, 63
1, 396534, Control_c, 0, 64, 80
1, 396547, Note_on_c, 0, 73, 59
1, 396548, Control_c, 0, 64, 0
1, 396568, Note_off_c, 0, 73, 41
1, 396581, Note_on_c, 0, 60, 91
1, 396607, Note_on_c, 0, 90, 17
1, 396622, Control_c, 0, 64, 60
1, 396628, Note_off_c, 0, 60, 63
1, 396637, Control_c, 0, 64, 72
1, 396646, Note_off_c, 0, 90, 52
1, 396647, Note_on_c, 0, 87, 80
1, 396652, Control_c, 0, 64, 78
1, 396667, Control_c, 0, 64, 83
1, 396681, Control_c, 0, 64, 86
1, 396696, Control_c, 0, 64, 88
1, 396700, Note_off_c, 0, 87, 61
1, 396704, Note_on_c, 0, 84, 82
1, 396711, Control_c, 0, 64, 90
1, 396726, Control_c, 0, 64, 92
1, 396741, Control_c, 0, 64, 95
1, 396749, Note_on_c, 0, 93, 90
1, 396752, Note_off_c, 0, 84, 63
1, 396755, Control_c, 0, 64, 98
1, 396770, Control_c, 0, 64, 102
1, 396785, Control_c, 0, 64, 104
1, 396790, Note_off_c, 0, 93, 64
1, 396799, Note_on_c, 0, 72, 72
1, 396842, Note_off_c, 0, 72, 62
1, 396845, Control_c, 0, 64, 91
1, 396847, Note_on_c, 0, 75, 88
1, 396860, Control_c, 0, 64, 72
1, 396873, Note_off_c, 0, 75, 66
1, 396875, Control_c, 0, 64, 0
1, 396900, Note_on_c, 0, 61, 84
1, 396922, Note_off_c, 0, 61, 67
1, 396934, Control_c, 0, 64, 48
1, 396949, Control_c, 0, 64, 72
1, 396959, Note_on_c, 0, 89, 75
1, 396964, Control_c, 0, 64, 81
1, 396978, Control_c, 0, 64, 90
1, 396993, Control_c, 0, 64, 95
1, 397008, Control_c, 0, 64, 97
1, 397018, Note_on_c, 0, 85, 79
1, 397022, Control_c, 0, 64, 99
1, 397025, Note_off_c, 0, 89, 65
1, 397045, Control_c, 0, 64, 101
1, 397070, Poly_aftertouch_c, 0, 61, 0
1, 397075, Control_c, 0, 64, 104
1, 397076, Note_on_c, 0, 94, 90
1, 397093, Note_off_c, 0, 85, 64
1, 397104, Control_c, 0, 64, 107
1, 397125, Note_on_c, 0, 73, 69
1, 397130, Note_off_c, 0, 94, 60
1, 397134, Control_c, 0, 64, 110
1, 397159, Note_off_c, 0, 73, 62
1, 397167, Note_on_c, 0, 77, 76
1, 397181, Note_off_c, 0, 77, 68
1, 397193, Control_c, 0, 64, 112
1, 397208, Control_c, 0, 64, 114
1, 397222, Control_c, 0, 64, 119
1, 397226, Note_on_c, 0, 61, 84
1, 397237, Control_c, 0, 64, 127
1, 397249, Note_off_c, 0, 61, 66
1, 397287, Note_on_c, 0, 89, 79
1, 397332, Note_on_c, 0, 61, 4
1, 397350, Note_off_c, 0, 89, 63
1, 397362, Note_on_c, 0, 85, 82
1, 397375, Note_off_c, 0, 61, 50
1, 397401, Note_on_c, 0, 94, 91
1, 397418, Note_off_c, 0, 85, 62
1, 397442, Note_on_c, 0, 73, 73
1, 397458, Note_off_c, 0, 94, 62
1, 397495, Note_off_c, 0, 73, 63
1, 397501, Note_on_c, 0, 77, 82
1, 397527, Note_off_c, 0, 77, 64
1, 397577, Note_on_c, 0, 61, 91
1, 397619, Note_off_c, 0, 61, 61
1, 397669, Note_on_c, 0, 73, 69
1, 397687, Note_off_c, 0, 73, 67
1, 397723, Note_on_c, 0, 77, 81
1, 397747, Note_off_c, 0, 77, 66
1, 397771, Note_on_c, 0, 89, 79
1, 397832, Note_off_c, 0, 89, 64
1, 397833, Note_on_c, 0, 85, 86
1, 397881, Note_off_c, 0, 85, 62
1, 397886, Note_on_c, 0, 94, 89
1, 397939, Note_on_c, 0, 90, 83
1, 397973, Note_off_c, 0, 94, 61
1, 398005, Note_off_c, 0, 90, 65
1, 398007, Note_on_c, 0, 85, 77
1, 398044, Note_off_c, 0, 85, 61
1, 398064, Note_on_c, 0, 82, 72
1, 398080, Note_off_c, 0, 82, 68
1, 398145, Note_on_c, 0, 77, 74
1, 398149, Control_c, 0, 64, 113
1, 398164, Control_c, 0, 64, 97
1, 398177, Control_c, 0, 64, 90
1, 398184, Note_on_c, 0, 73, 80
1, 398192, Control_c, 0, 64, 89
1, 398197, Note_off_c, 0, 77, 60
1, 398207, Control_c, 0, 64, 90
1, 398222, Control_c, 0, 64, 91
1, 398237, Control_c, 0, 64, 92
1, 398239, Note_off_c, 0, 73, 61
1, 398240, Note_on_c, 0, 82, 80
1, 398251, Control_c, 0, 64, 95
1, 398266, Control_c, 0, 64, 98
1, 398281, Control_c, 0, 64, 101
1, 398296, Control_c, 0, 64, 103
1, 398310, Note_on_c, 0, 77, 75
1, 398325, Control_c, 0, 64, 106
1, 398336, Note_on_c, 0, 78, 4
1, 398339, Note_off_c, 0, 82, 60
1, 398355, Control_c, 0, 64, 108
1, 398360, Note_on_c, 0, 73, 85
1, 398368, Note_off_c, 0, 78, 0
1, 398370, Note_off_c, 0, 77, 61
1, 398370, Control_c, 0, 64, 111
1, 398385, Control_c, 0, 64, 116
1, 398389, Poly_aftertouch_c, 0, 78, 0
1, 398400, Control_c, 0, 64, 121
1, 398403, Note_off_c, 0, 73, 61
1, 398415, Control_c, 0, 64, 127
1, 398431, Note_on_c, 0, 70, 65
1, 398448, Note_off_c, 0, 70, 66
1, 398490, Note_on_c, 0, 66, 87
1, 398573, Note_off_c, 0, 66, 63
1, 398592, Note_on_c, 0, 62, 63
1, 398623, Note_off_c, 0, 62, 65
1, 398633, Note_on_c, 0, 70, 73
1, 398645, Control_c, 0, 64, 105
1, 398660, Control_c, 0, 64, 90
1, 398674, Control_c, 0, 64, 77
1, 398675, Poly_aftertouch_c, 0, 63, 0
1, 398689, Control_c, 0, 64, 61
1, 398692, Note_on_c, 0, 65, 72
1, 398704, Control_c, 0, 64, 0
1, 398720, Note_off_c, 0, 70, 60
1, 398749, Note_on_c, 0, 61, 85
1, 398763, Control_c, 0, 64, 70
1, 398771, Note_off_c, 0, 65, 65
1, 398778, Control_c, 0, 64, 77
1, 398793, Control_c, 0, 64, 83
1, 398808, Control_c, 0, 64, 87
1, 398808, Note_on_c, 0, 58, 77
1, 398809, Note_off_c, 0, 61, 61
1, 398823, Control_c, 0, 64, 89
1, 398838, Control_c, 0, 64, 91
1, 398853, Control_c, 0, 64, 93
1, 398859, Note_off_c, 0, 58, 58
1, 398865, Note_on_c, 0, 53, 63
1, 398867, Control_c, 0, 64, 95
1, 398882, Control_c, 0, 64, 96
1, 398917, Note_on_c, 0, 49, 75
1, 398927, Control_c, 0, 64, 99
1, 398930, Note_off_c, 0, 53, 63
1, 398971, Note_off_c, 0, 49, 64
1, 398985, Note_on_c, 0, 58, 78
1, 399030, Control_c, 0, 64, 101
1, 399043, Note_off_c, 0, 58, 60
1, 399044, Note_on_c, 0, 53, 69
1, 399091, Note_on_c, 0, 49, 75
1, 399110, Note_off_c, 0, 53, 61
1, 399149, Note_off_c, 0, 49, 64
1, 399153, Note_on_c, 0, 46, 82
1, 399222, Note_on_c, 0, 49, 68
1, 399255, Note_off_c, 0, 46, 60
1, 399261, Note_on_c, 0, 53, 67
1, 399285, Note_off_c, 0, 49, 63
1, 399313, Note_off_c, 0, 53, 63
1, 399324, Note_on_c, 0, 58, 82
1, 399365, Control_c, 0, 64, 103
1, 399382, Note_off_c, 0, 58, 59
1, 399402, Note_on_c, 0, 61, 81
1, 399423, Control_c, 0, 64, 106
1, 399438, Note_off_c, 0, 61, 61
1, 399453, Control_c, 0, 64, 109
1, 399461, Note_on_c, 0, 65, 75
1, 399468, Control_c, 0, 64, 111
1, 399483, Control_c, 0, 64, 113
1, 399512, Control_c, 0, 64, 117
1, 399527, Control_c, 0, 64, 121
1, 399532, Note_on_c, 0, 70, 76
1, 399542, Control_c, 0, 64, 127
1, 399548, Note_off_c, 0, 65, 62
1, 399586, Note_on_c, 0, 73, 82
1, 399616, Note_off_c, 0, 70, 63
1, 399646, Note_off_c, 0, 73, 63
1, 399646, Note_on_c, 0, 77, 86
1, 399714, Note_off_c, 0, 77, 62
1, 399721, Note_on_c, 0, 73, 80
1, 399765, Note_off_c, 0, 73, 61
1, 399771, Note_on_c, 0, 70, 85
1, 399824, Note_on_c, 0, 73, 83
1, 399827, Note_off_c, 0, 70, 65
1, 399851, Note_off_c, 0, 73, 67
1, 399898, Note_on_c, 0, 77, 84
1, 399957, Note_on_c, 0, 82, 84
1, 399962, Note_off_c, 0, 77, 58
1, 400015, Note_on_c, 0, 85, 84
1, 400017, Note_off_c, 0, 82, 63
1, 400045, Note_off_c, 0, 85, 66
1, 400093, Note_on_c, 0, 82, 89
1, 400158, Note_on_c, 0, 89, 84
1, 400160, Note_off_c, 0, 82, 61
1, 400216, Note_on_c, 0, 85, 86
1, 400233, Note_off_c, 0, 89, 64
1, 400258, Note_on_c, 0, 94, 84
1, 400279, Note_off_c, 0, 85, 62
1, 400321, Note_on_c, 0, 89, 85
1, 400354, Note_off_c, 0, 94, 61
1, 400383, Note_on_c, 0, 85, 90
1, 400394, Note_off_c, 0, 89, 65
1, 400409, Control_c, 0, 64, 106
1, 400424, Control_c, 0, 64, 73
1, 400429, Note_off_c, 0, 85, 63
1, 400439, Control_c, 0, 64, 0
1, 400444, Note_on_c, 0, 82, 81
1, 400493, Note_off_c, 0, 82, 61
1, 400507, Note_on_c, 0, 62, 84
1, 400556, Note_off_c, 0, 62, 65
1, 400558, Control_c, 0, 64, 69
1, 400568, Note_on_c, 0, 74, 80
1, 400572, Control_c, 0, 64, 94
1, 400587, Control_c, 0, 64, 101
1, 400602, Control_c, 0, 64, 111
1, 400637, Note_on_c, 0, 77, 87
1, 400638, Note_off_c, 0, 74, 54
1, 400646, Control_c, 0, 64, 116
1, 400658, Note_off_c, 0, 77, 68
1, 400676, Control_c, 0, 64, 120
1, 400691, Note_on_c, 0, 92, 84
1, 400691, Control_c, 0, 64, 124
1, 400705, Control_c, 0, 64, 127
1, 400744, Note_off_c, 0, 92, 62
1, 400754, Note_on_c, 0, 89, 90
1, 400812, Note_off_c, 0, 89, 65
1, 400826, Note_on_c, 0, 95, 91
1, 400901, Note_on_c, 0, 92, 77
1, 400928, Note_off_c, 0, 95, 65
1, 400947, Note_on_c, 0, 89, 83
1, 400953, Note_off_c, 0, 92, 62
1, 400987, Note_off_c, 0, 89, 64
1, 400990, Note_on_c, 0, 86, 83
1, 401012, Note_off_c, 0, 86, 69
1, 401065, Note_on_c, 0, 83, 81
1, 401132, Note_on_c, 0, 80, 72
1, 401132, Note_off_c, 0, 83, 63
1, 401181, Note_on_c, 0, 77, 82
1, 401184, Note_off_c, 0, 80, 63
1, 401233, Note_off_c, 0, 77, 58
1, 401239, Note_on_c, 0, 83, 89
1, 401301, Note_on_c, 0, 80, 77
1, 401330, Note_off_c, 0, 83, 60
1, 401363, Note_on_c, 0, 77, 80
1, 401366, Note_off_c, 0, 80, 63
1, 401399, Note_off_c, 0, 77, 58
1, 401418, Note_on_c, 0, 74, 71
1, 401444, Note_off_c, 0, 74, 67
1, 401488, Note_on_c, 0, 71, 81
1, 401547, Note_off_c, 0, 71, 62
1, 401555, Note_on_c, 0, 68, 72
1, 401586, Note_off_c, 0, 68, 64
1, 401617, Note_on_c, 0, 74, 78
1, 401667, Note_on_c, 0, 71, 72
1, 401707, Note_off_c, 0, 74, 57
1, 401733, Note_on_c, 0, 68, 80
1, 401734, Note_off_c, 0, 71, 63
1, 401776, Note_off_c, 0, 68, 62
1, 401798, Note_on_c, 0, 65, 58
1, 401817, Note_off_c, 0, 65, 62
1, 401868, Note_on_c, 0, 62, 79
1, 401921, Note_off_c, 0, 62, 60
1, 401928, Note_on_c, 0, 59, 78
1, 401987, Note_off_c, 0, 59, 61
1, 401992, Note_on_c, 0, 68, 85
1, 402054, Note_on_c, 0, 65, 76
1, 402089, Note_off_c, 0, 68, 62
1, 402124, Note_on_c, 0, 62, 74
1, 402126, Note_off_c, 0, 65, 64
1, 402174, Note_off_c, 0, 62, 63
1, 402177, Note_on_c, 0, 59, 77
1, 402215, Note_off_c, 0, 59, 55
1, 402255, Note_on_c, 0, 56, 70
1, 402319, Note_on_c, 0, 53, 77
1, 402340, Note_off_c, 0, 56, 64
1, 402373, Note_on_c, 0, 50, 76
1, 402379, Note_off_c, 0, 53, 61
1, 402430, Note_off_c, 0, 50, 63
1, 402434, Note_on_c, 0, 47, 74
1, 402497, Note_off_c, 0, 47, 62
1, 402500, Note_on_c, 0, 50, 82
1, 402562, Note_on_c, 0, 53, 83
1, 402586, Note_off_c, 0, 50, 61
1, 402607, Note_on_c, 0, 56, 73
1, 402618, Note_off_c, 0, 53, 64
1, 402632, Note_off_c, 0, 56, 69
1, 402675, Note_on_c, 0, 59, 81
1, 402734, Note_off_c, 0, 59, 61
1, 402738, Note_on_c, 0, 62, 84
1, 402799, Note_on_c, 0, 65, 84
1, 402832, Note_off_c, 0, 62, 61
1, 402853, Note_on_c, 0, 68, 80
1, 402869, Note_off_c, 0, 65, 66
1, 402898, Note_off_c, 0, 68, 64
1, 402925, Note_on_c, 0, 71, 85
1, 402984, Note_off_c, 0, 71, 62
1, 402993, Note_on_c, 0, 74, 82
1, 403068, Note_on_c, 0, 77, 90
1, 403099, Note_off_c, 0, 74, 62
1, 403132, Note_on_c, 0, 80, 82
1, 403155, Note_off_c, 0, 77, 61
1, 403177, Note_off_c, 0, 80, 65
1, 403207, Note_on_c, 0, 83, 93
1, 403267, Note_off_c, 0, 83, 66
1, 403282, Note_on_c, 0, 86, 92
1, 403362, Note_on_c, 0, 89, 94
1, 403384, Note_off_c, 0, 86, 66
1, 403441, Note_on_c, 0, 92, 84
1, 403497, Note_off_c, 0, 89, 60
1, 403533, Note_on_c, 0, 95, 89
1, 403533, Note_off_c, 0, 92, 62
1, 403533, Note_on_c, 0, 93, 85
1, 403551, Note_off_c, 0, 93, 69
1, 403571, Note_off_c, 0, 95, 65
1, 403686, Control_c, 0, 64, 88
1, 403688, Note_on_c, 0, 36, 101
1, 403701, Control_c, 0, 64, 67
1, 403715, Control_c, 0, 64, 0
1, 403960, Control_c, 0, 64, 72
1, 403989, Control_c, 0, 64, 73
1, 404004, Control_c, 0, 64, 75
1, 404020, Control_c, 0, 64, 81
1, 404035, Control_c, 0, 64, 89
1, 404050, Control_c, 0, 64, 96
1, 404051, Note_on_c, 0, 92, 88
1, 404065, Control_c, 0, 64, 101
1, 404080, Control_c, 0, 64, 105
1, 404094, Control_c, 0, 64, 110
1, 404109, Control_c, 0, 64, 117
1, 404124, Control_c, 0, 64, 127
1, 404145, Note_off_c, 0, 92, 61
1, 404149, Note_on_c, 0, 89, 90
1, 404225, Note_off_c, 0, 89, 65
1, 404236, Note_on_c, 0, 96, 97
1, 404315, Note_on_c, 0, 92, 86
1, 404325, Note_off_c, 0, 96, 64
1, 404393, Note_on_c, 0, 89, 90
1, 404396, Note_off_c, 0, 92, 61
1, 404435, Note_off_c, 0, 89, 65
1, 404466, Note_on_c, 0, 84, 66
1, 404491, Note_off_c, 0, 84, 66
1, 404532, Note_on_c, 0, 80, 80
1, 404582, Note_off_c, 0, 80, 64
1, 404592, Note_on_c, 0, 77, 88
1, 404642, Note_off_c, 0, 77, 61
1, 404662, Note_on_c, 0, 84, 82
1, 404729, Note_on_c, 0, 80, 80
1, 404743, Note_off_c, 0, 84, 55
1, 404789, Note_on_c, 0, 77, 84
1, 404800, Note_off_c, 0, 80, 63
1, 404834, Note_off_c, 0, 77, 63
1, 404853, Note_on_c, 0, 72, 73
1, 404883, Note_off_c, 0, 72, 61
1, 404923, Note_on_c, 0, 68, 79
1, 404972, Note_off_c, 0, 68, 63
1, 404979, Note_on_c, 0, 65, 83
1, 405029, Note_off_c, 0, 65, 65
1, 405044, Note_on_c, 0, 72, 88
1, 405110, Note_on_c, 0, 68, 78
1, 405145, Note_off_c, 0, 72, 53
1, 405149, Note_off_c, 0, 36, 53
1, 405178, Note_on_c, 0, 65, 83
1, 405187, Note_off_c, 0, 68, 63
1, 405225, Note_off_c, 0, 65, 65
1, 405244, Note_on_c, 0, 60, 74
1, 405291, Note_off_c, 0, 60, 58
1, 405325, Note_on_c, 0, 56, 78
1, 405378, Note_off_c, 0, 56, 64
1, 405384, Note_on_c, 0, 53, 82
1, 405443, Note_off_c, 0, 53, 61
1, 405452, Note_on_c, 0, 60, 87
1, 405524, Note_on_c, 0, 56, 76
1, 405545, Note_off_c, 0, 60, 55
1, 405583, Note_on_c, 0, 53, 82
1, 405591, Note_off_c, 0, 56, 63
1, 405640, Note_off_c, 0, 53, 61
1, 405652, Note_on_c, 0, 48, 83
1, 405694, Note_off_c, 0, 48, 61
1, 405715, Note_on_c, 0, 44, 72
1, 405779, Note_off_c, 0, 44, 64
1, 405781, Note_on_c, 0, 41, 75
1, 405840, Note_off_c, 0, 41, 60
1, 405840, Note_on_c, 0, 36, 79
1, 405897, Note_on_c, 0, 41, 75
1, 405914, Note_off_c, 0, 36, 61
1, 405978, Note_on_c, 0, 44, 75
1, 405982, Note_off_c, 0, 41, 61
1, 406037, Note_on_c, 0, 48, 74
1, 406072, Note_off_c, 0, 44, 58
1, 406097, Note_on_c, 0, 53, 78
1, 406099, Note_off_c, 0, 48, 62
1, 406151, Note_on_c, 0, 56, 81
1, 406162, Note_off_c, 0, 53, 63
1, 406182, Note_off_c, 0, 56, 68
1, 406230, Note_on_c, 0, 60, 81
1, 406287, Note_off_c, 0, 60, 60
1, 406292, Note_on_c, 0, 65, 85
1, 406350, Note_on_c, 0, 68, 81
1, 406362, Note_off_c, 0, 65, 65
1, 406385, Note_off_c, 0, 68, 62
1, 406432, Note_on_c, 0, 72, 85
1, 406491, Note_off_c, 0, 72, 61
1, 406499, Note_on_c, 0, 77, 86
1, 406563, Note_on_c, 0, 80, 83
1, 406575, Note_off_c, 0, 77, 60
1, 406609, Note_off_c, 0, 80, 64
1, 406645, Note_on_c, 0, 84, 87
1, 406705, Note_off_c, 0, 84, 64
1, 406714, Note_on_c, 0, 89, 93
1, 406793, Note_on_c, 0, 92, 87
1, 406810, Note_off_c, 0, 89, 63
1, 406862, Note_on_c, 0, 96, 94
1, 406867, Note_off_c, 0, 92, 63
1, 406943, Note_on_c, 0, 92, 91
1, 406954, Note_off_c, 0, 96, 65
1, 407017, Note_on_c, 0, 89, 93
1, 407024, Note_off_c, 0, 92, 62
1, 407074, Control_c, 0, 64, 109
1, 407078, Note_off_c, 0, 89, 63
1, 407089, Control_c, 0, 64, 77
1, 407093, Note_on_c, 0, 84, 78
1, 407104, Control_c, 0, 64, 0
1, 407148, Note_on_c, 0, 36, 84
1, 407151, Note_off_c, 0, 84, 62
1, 407209, Control_c, 0, 64, 82
1, 407224, Control_c, 0, 64, 92
1, 407225, Note_on_c, 0, 48, 80
1, 407226, Note_off_c, 0, 36, 62
1, 407238, Control_c, 0, 64, 104
1, 407253, Control_c, 0, 64, 110
1, 407256, Note_off_c, 0, 48, 65
1, 407283, Control_c, 0, 64, 113
1, 407298, Control_c, 0, 64, 118
1, 407312, Control_c, 0, 64, 127
1, 407324, Note_on_c, 0, 52, 78
1, 407396, Note_on_c, 0, 55, 75
1, 407396, Note_off_c, 0, 52, 60
1, 407409, Note_on_c, 0, 91, 78
1, 407460, Note_off_c, 0, 55, 61
1, 407474, Note_on_c, 0, 58, 81
1, 407474, Note_off_c, 0, 91, 63
1, 407479, Note_on_c, 0, 88, 85
1, 407518, Note_off_c, 0, 58, 58
1, 407549, Note_off_c, 0, 88, 63
1, 407557, Note_on_c, 0, 94, 85
1, 407624, Note_off_c, 0, 94, 65
1, 407631, Note_on_c, 0, 91, 84
1, 407705, Note_on_c, 0, 88, 78
1, 407709, Note_off_c, 0, 91, 62
1, 407751, Note_off_c, 0, 88, 63
1, 407778, Note_on_c, 0, 84, 66
1, 407805, Note_off_c, 0, 84, 66
1, 407844, Note_on_c, 0, 82, 72
1, 407914, Note_on_c, 0, 79, 76
1, 407934, Note_off_c, 0, 82, 61
1, 407967, Note_off_c, 0, 79, 61
1, 407983, Note_on_c, 0, 76, 73
1, 408022, Note_off_c, 0, 76, 56
1, 408064, Note_on_c, 0, 72, 65
1, 408094, Note_off_c, 0, 72, 64
1, 408138, Note_on_c, 0, 70, 53
1, 408184, Note_on_c, 0, 69, 30
1, 408189, Note_off_c, 0, 70, 0
1, 408210, Note_on_c, 0, 67, 66
1, 408219, Note_off_c, 0, 69, 45
1, 408226, Poly_aftertouch_c, 0, 70, 127
1, 408253, Note_off_c, 0, 67, 56
1, 408255, Poly_aftertouch_c, 0, 70, 0
1, 408284, Note_on_c, 0, 64, 63
1, 408316, Note_off_c, 0, 64, 64
1, 408351, Note_on_c, 0, 60, 68
1, 408392, Note_off_c, 0, 60, 56
1, 408439, Note_on_c, 0, 58, 64
1, 408508, Note_on_c, 0, 55, 70
1, 408536, Note_off_c, 0, 58, 59
1, 408572, Note_off_c, 0, 55, 61
1, 408584, Note_on_c, 0, 52, 59
1, 408634, Note_off_c, 0, 52, 61
1, 408649, Note_on_c, 0, 48, 70
1, 408708, Note_off_c, 0, 48, 61
1, 408719, Note_on_c, 0, 46, 63
1, 408767, Note_off_c, 0, 46, 56
1, 408782, Note_on_c, 0, 43, 56
1, 408851, Note_on_c, 0, 39, 34
1, 408852, Note_off_c, 0, 39, 127
1, 408858, Note_off_c, 0, 43, 56
1, 408860, Note_on_c, 0, 40, 70
1, 408884, Poly_aftertouch_c, 0, 39, 0
1, 408941, Note_off_c, 0, 40, 63
1, 408943, Note_on_c, 0, 36, 72
1, 409039, Note_off_c, 0, 36, 59
1, 409046, Note_on_c, 0, 40, 61
1, 409125, Note_on_c, 0, 43, 65
1, 409127, Note_off_c, 0, 40, 62
1, 409196, Note_on_c, 0, 46, 60
1, 409205, Note_off_c, 0, 43, 59
1, 409259, Note_on_c, 0, 48, 52
1, 409275, Note_off_c, 0, 46, 56
1, 409324, Note_on_c, 0, 52, 64
1, 409334, Note_off_c, 0, 48, 60
1, 409408, Note_on_c, 0, 55, 66
1, 409421, Note_off_c, 0, 52, 54
1, 409480, Note_on_c, 0, 58, 64
1, 409484, Note_off_c, 0, 55, 61
1, 409504, Note_off_c, 0, 58, 66
1, 409556, Note_on_c, 0, 60, 67
1, 409616, Note_off_c, 0, 60, 57
1, 409632, Note_on_c, 0, 64, 67
1, 409700, Note_on_c, 0, 67, 65
1, 409712, Note_off_c, 0, 64, 56
1, 409784, Note_on_c, 0, 70, 67
1, 409784, Note_off_c, 0, 67, 61
1, 409830, Note_off_c, 0, 70, 62
1, 409876, Note_on_c, 0, 72, 68
1, 409953, Note_off_c, 0, 72, 58
1, 409960, Note_on_c, 0, 76, 65
1, 410022, Note_off_c, 0, 76, 60
1, 410038, Note_on_c, 0, 79, 61
1, 410120, Note_off_c, 0, 79, 61
1, 410127, Note_on_c, 0, 76, 67
1, 410190, Note_off_c, 0, 76, 61
1, 410211, Note_on_c, 0, 72, 61
1, 410302, Note_on_c, 0, 76, 66
1, 410323, Note_off_c, 0, 72, 55
1, 410399, Note_off_c, 0, 76, 59
1, 410405, Note_on_c, 0, 79, 59
1, 410485, Note_off_c, 0, 79, 61
1, 410499, Note_on_c, 0, 76, 65
1, 410631, Note_on_c, 0, 82, 60
1, 410638, Note_off_c, 0, 76, 55
1, 410742, Note_on_c, 0, 79, 58
1, 410773, Note_off_c, 0, 82, 55
1, 410874, Note_off_c, 0, 79, 60
1, 410876, Note_on_c, 0, 76, 56
1, 411048, Note_on_c, 0, 79, 63
1, 411143, Note_off_c, 0, 76, 54
1, 411505, Note_on_c, 0, 82, 57
1, 411721, Note_off_c, 0, 79, 58
1, 411805, Note_off_c, 0, 82, 58
1, 412253, Note_on_c, 0, 49, 30
1, 412347, Note_off_c, 0, 49, 52
1, 412511, Note_on_c, 0, 49, 37
1, 412582, Note_off_c, 0, 49, 51
1, 412729, Note_on_c, 0, 49, 43
1, 412906, Note_off_c, 0, 49, 33
1, 413039, Note_on_c, 0, 48, 41
1, 413787, Note_on_c, 0, 79, 39
1, 413795, Note_on_c, 0, 76, 28
1, 413862, Note_off_c, 0, 79, 54
1, 413883, Note_off_c, 0, 76, 34
1, 414017, Note_on_c, 0, 79, 41
1, 414030, Note_on_c, 0, 76, 40
1, 414079, Note_off_c, 0, 79, 54
1, 414089, Note_off_c, 0, 76, 39
1, 414237, Note_on_c, 0, 79, 48
1, 414248, Note_on_c, 0, 76, 37
1, 414320, Note_off_c, 0, 76, 47
1, 414330, Note_off_c, 0, 79, 54
1, 414624, Note_on_c, 0, 79, 38
1, 414626, Note_on_c, 0, 82, 46
1, 414795, Note_off_c, 0, 48, 35
1, 414920, Note_off_c, 0, 82, 53
1, 414929, Note_off_c, 0, 79, 35
1, 415440, Note_on_c, 0, 49, 28
1, 415590, Note_off_c, 0, 49, 35
1, 415731, Note_on_c, 0, 49, 35
1, 415830, Note_off_c, 0, 49, 51
1, 416022, Note_on_c, 0, 49, 31
1, 416183, Note_off_c, 0, 49, 32
1, 416383, Note_on_c, 0, 48, 33
1, 417402, Note_on_c, 0, 64, 31
1, 417406, Note_on_c, 0, 67, 26
1, 417536, Note_off_c, 0, 64, 34
1, 417542, Note_off_c, 0, 67, 34
1, 417739, Note_on_c, 0, 67, 38
1, 417755, Note_on_c, 0, 64, 36
1, 417841, Note_off_c, 0, 64, 47
1, 417879, Note_off_c, 0, 67, 36
1, 418088, Note_on_c, 0, 67, 30
1, 418107, Note_on_c, 0, 64, 33
1, 418184, Note_off_c, 0, 64, 41
1, 418240, Note_off_c, 0, 67, 36
1, 418616, Note_on_c, 0, 67, 33
1, 418616, Note_on_c, 0, 70, 38
1, 418902, Note_off_c, 0, 48, 52
1, 419823, Note_on_c, 0, 37, 35
1, 420005, Note_off_c, 0, 37, 52
1, 420285, Note_on_c, 0, 37, 33
1, 420455, Note_off_c, 0, 37, 35
1, 420717, Note_on_c, 0, 37, 27
1, 420891, Note_off_c, 0, 37, 35
1, 420920, Note_off_c, 0, 67, 24
1, 420922, Note_off_c, 0, 70, 31
1, 421242, Control_c, 0, 64, 122
1, 421257, Control_c, 0, 64, 115
1, 421272, Control_c, 0, 64, 112
1, 421287, Control_c, 0, 64, 110
1, 421302, Control_c, 0, 64, 108
1, 421314, Note_on_c, 0, 36, 34
1, 421331, Control_c, 0, 64, 104
1, 421346, Control_c, 0, 64, 102
1, 421360, Control_c, 0, 64, 100
1, 421390, Control_c, 0, 64, 97
1, 421405, Control_c, 0, 64, 94
1, 421420, Control_c, 0, 64, 92
1, 421434, Control_c, 0, 64, 91
1, 421449, Control_c, 0, 64, 90
1, 421464, Control_c, 0, 64, 88
1, 421478, Control_c, 0, 64, 86
1, 421493, Control_c, 0, 64, 85
1, 421508, Control_c, 0, 64, 83
1, 421523, Control_c, 0, 64, 83
1, 421538, Control_c, 0, 64, 82
1, 421552, Control_c, 0, 64, 82
1, 421567, Control_c, 0, 64, 81
1, 421583, Control_c, 0, 64, 80
1, 421598, Control_c, 0, 64, 80
1, 421613, Control_c, 0, 64, 79
1, 421643, Control_c, 0, 64, 79
1, 421657, Control_c, 0, 64, 78
1, 421672, Control_c, 0, 64, 77
1, 421687, Control_c, 0, 64, 75
1, 421702, Control_c, 0, 64, 72
1, 421717, Control_c, 0, 64, 70
1, 421731, Control_c, 0, 64, 70
1, 421746, Control_c, 0, 64, 69
1, 421783, Control_c, 0, 64, 69
1, 421902, Control_c, 0, 64, 68
1, 421931, Control_c, 0, 64, 68
1, 421961, Control_c, 0, 64, 67
1, 421990, Control_c, 0, 64, 67
1, 422005, Control_c, 0, 64, 66
1, 422020, Control_c, 0, 64, 66
1, 422035, Control_c, 0, 64, 65
1, 422050, Control_c, 0, 64, 65
1, 422065, Control_c, 0, 64, 64
1, 422080, Control_c, 0, 64, 63
1, 422095, Control_c, 0, 64, 54
1, 422109, Control_c, 0, 64, 34
1, 422124, Control_c, 0, 64, 0
1, 422301, Control_c, 0, 64, 54
1, 422315, Control_c, 0, 64, 64
1, 422330, Control_c, 0, 64, 66
1, 422345, Control_c, 0, 64, 68
1, 422360, Control_c, 0, 64, 70
1, 422376, Control_c, 0, 64, 72
1, 422391, Control_c, 0, 64, 75
1, 422405, Control_c, 0, 64, 77
1, 422420, Control_c, 0, 64, 79
1, 422435, Control_c, 0, 64, 80
1, 422450, Control_c, 0, 64, 81
1, 422465, Control_c, 0, 64, 82
1, 422479, Control_c, 0, 64, 83
1, 422494, Control_c, 0, 64, 83
1, 422517, Control_c, 0, 64, 84
1, 422531, Control_c, 0, 64, 85
1, 422546, Control_c, 0, 64, 86
1, 422550, Note_off_c, 0, 36, 32
1, 422561, Control_c, 0, 64, 87
1, 422576, Control_c, 0, 64, 87
1, 422591, Control_c, 0, 64, 88
1, 422620, Control_c, 0, 64, 88
1, 422635, Control_c, 0, 64, 89
1, 422650, Control_c, 0, 64, 89
1, 422873, Control_c, 0, 64, 89
1, 422887, Control_c, 0, 64, 88
1, 422902, Control_c, 0, 64, 86
1, 422917, Control_c, 0, 64, 83
1, 422922, Note_on_c, 0, 37, 30
1, 422931, Control_c, 0, 64, 77
1, 422946, Control_c, 0, 64, 71
1, 422961, Control_c, 0, 64, 65
1, 422976, Control_c, 0, 64, 0
1, 423079, Control_c, 0, 64, 59
1, 423094, Control_c, 0, 64, 67
1, 423109, Control_c, 0, 64, 71
1, 423123, Control_c, 0, 64, 75
1, 423138, Control_c, 0, 64, 78
1, 423153, Note_off_c, 0, 37, 58
1, 423153, Control_c, 0, 64, 80
1, 423168, Control_c, 0, 64, 81
1, 423184, Control_c, 0, 64, 83
1, 423199, Control_c, 0, 64, 84
1, 423214, Control_c, 0, 64, 86
1, 423228, Control_c, 0, 64, 87
1, 423266, Control_c, 0, 64, 88
1, 423281, Control_c, 0, 64, 88
1, 423296, Control_c, 0, 64, 89
1, 423310, Control_c, 0, 64, 90
1, 423325, Control_c, 0, 64, 91
1, 423340, Control_c, 0, 64, 91
1, 423354, Control_c, 0, 64, 92
1, 423368, Note_on_c, 0, 37, 23
1, 423369, Control_c, 0, 64, 93
1, 423384, Control_c, 0, 64, 94
1, 423399, Control_c, 0, 64, 94
1, 423414, Control_c, 0, 64, 95
1, 423428, Control_c, 0, 64, 95
1, 423458, Control_c, 0, 64, 97
1, 423487, Control_c, 0, 64, 99
1, 423526, Note_off_c, 0, 37, 40
1, 423547, Control_c, 0, 64, 101
1, 423849, Note_on_c, 0, 37, 25
1, 424025, Note_off_c, 0, 37, 33
1, 424149, Control_c, 0, 64, 99
1, 424238, Control_c, 0, 64, 97
1, 424311, Control_c, 0, 64, 96
1, 424326, Control_c, 0, 64, 95
1, 424341, Control_c, 0, 64, 95
1, 424356, Control_c, 0, 64, 94
1, 424371, Control_c, 0, 64, 93
1, 424385, Control_c, 0, 64, 93
1, 424400, Control_c, 0, 64, 92
1, 424415, Control_c, 0, 64, 91
1, 424429, Note_on_c, 0, 36, 27
1, 424430, Control_c, 0, 64, 89
1, 424445, Control_c, 0, 64, 87
1, 424459, Control_c, 0, 64, 86
1, 424474, Control_c, 0, 64, 85
1, 424489, Control_c, 0, 64, 84
1, 424503, Control_c, 0, 64, 83
1, 424518, Control_c, 0, 64, 81
1, 424533, Control_c, 0, 64, 78
1, 424548, Control_c, 0, 64, 76
1, 424563, Control_c, 0, 64, 75
1, 424578, Control_c, 0, 64, 75
1, 424593, Control_c, 0, 64, 73
1, 424608, Control_c, 0, 64, 71
1, 424623, Control_c, 0, 64, 70
1, 424638, Control_c, 0, 64, 69
1, 424667, Control_c, 0, 64, 69
1, 424682, Control_c, 0, 64, 68
1, 424696, Control_c, 0, 64, 67
1, 424711, Control_c, 0, 64, 67
1, 424794, Control_c, 0, 64, 66
1, 424838, Control_c, 0, 64, 66
1, 424853, Control_c, 0, 64, 65
1, 424868, Control_c, 0, 64, 65
1, 424942, Control_c, 0, 64, 64
1, 425001, Control_c, 0, 64, 65
1, 425061, Control_c, 0, 64, 65
1, 425076, Control_c, 0, 64, 66
1, 425090, Control_c, 0, 64, 66
1, 425105, Control_c, 0, 64, 67
1, 425120, Control_c, 0, 64, 67
1, 425134, Control_c, 0, 64, 68
1, 425149, Control_c, 0, 64, 68
1, 425164, Control_c, 0, 64, 69
1, 425179, Control_c, 0, 64, 70
1, 425194, Control_c, 0, 64, 70
1, 425223, Control_c, 0, 64, 71
1, 425238, Control_c, 0, 64, 71
1, 425252, Control_c, 0, 64, 72
1, 425267, Control_c, 0, 64, 74
1, 425282, Control_c, 0, 64, 75
1, 425297, Control_c, 0, 64, 76
1, 425312, Control_c, 0, 64, 76
1, 425326, Control_c, 0, 64, 77
1, 425341, Control_c, 0, 64, 78
1, 425356, Control_c, 0, 64, 78
1, 425371, Control_c, 0, 64, 79
1, 425386, Control_c, 0, 64, 80
1, 425401, Control_c, 0, 64, 81
1, 425416, Control_c, 0, 64, 82
1, 425430, Control_c, 0, 64, 83
1, 425445, Control_c, 0, 64, 84
1, 425460, Control_c, 0, 64, 85
1, 425475, Control_c, 0, 64, 87
1, 425490, Control_c, 0, 64, 88
1, 425512, Control_c, 0, 64, 90
1, 425526, Control_c, 0, 64, 91
1, 425541, Control_c, 0, 64, 93
1, 425556, Control_c, 0, 64, 94
1, 425571, Control_c, 0, 64, 95
1, 425600, Note_off_c, 0, 36, 31
1, 425617, Control_c, 0, 64, 98
1, 425646, Control_c, 0, 64, 100
1, 425749, Control_c, 0, 64, 102
1, 425839, Control_c, 0, 64, 104
1, 426395, Control_c, 0, 64, 100
1, 426410, Control_c, 0, 64, 96
1, 426417, Note_on_c, 0, 76, 34
1, 426425, Control_c, 0, 64, 91
1, 426433, Note_on_c, 0, 70, 30
1, 426438, Note_on_c, 0, 67, 29
1, 426440, Control_c, 0, 64, 87
1, 426441, Note_on_c, 0, 37, 29
1, 426454, Control_c, 0, 64, 80
1, 426469, Control_c, 0, 64, 73
1, 426484, Control_c, 0, 64, 67
1, 426498, Control_c, 0, 64, 65
1, 426513, Control_c, 0, 64, 64
1, 426543, Control_c, 0, 64, 65
1, 426572, Control_c, 0, 64, 65
1, 426587, Control_c, 0, 64, 68
1, 426602, Control_c, 0, 64, 73
1, 426617, Control_c, 0, 64, 78
1, 426631, Control_c, 0, 64, 84
1, 426645, Control_c, 0, 64, 88
1, 426660, Control_c, 0, 64, 89
1, 426675, Control_c, 0, 64, 92
1, 426690, Control_c, 0, 64, 98
1, 426696, Note_off_c, 0, 67, 55
1, 426704, Control_c, 0, 64, 102
1, 426719, Control_c, 0, 64, 106
1, 426729, Note_off_c, 0, 76, 40
1, 426733, Note_off_c, 0, 70, 58
1, 426734, Control_c, 0, 64, 109
1, 426744, Note_off_c, 0, 37, 55
1, 426749, Control_c, 0, 64, 111
1, 426764, Control_c, 0, 64, 114
1, 426778, Control_c, 0, 64, 116
1, 426793, Control_c, 0, 64, 119
1, 426823, Control_c, 0, 64, 123
1, 426986, Control_c, 0, 64, 127
1, 427095, Note_on_c, 0, 76, 39
1, 427100, Note_on_c, 0, 37, 28
1, 427106, Note_on_c, 0, 70, 36
1, 427120, Note_on_c, 0, 67, 32
1, 427305, Note_off_c, 0, 67, 56
1, 427328, Note_off_c, 0, 76, 54
1, 427371, Note_off_c, 0, 37, 41
1, 427372, Note_off_c, 0, 70, 59
1, 427806, Note_on_c, 0, 76, 46
1, 427812, Note_on_c, 0, 67, 37
1, 427823, Note_on_c, 0, 70, 40
1, 427831, Note_on_c, 0, 37, 32
1, 428058, Note_off_c, 0, 67, 61
1, 428070, Note_off_c, 0, 76, 59
1, 428116, Note_off_c, 0, 70, 62
1, 428168, Note_off_c, 0, 37, 31
1, 428714, Control_c, 0, 64, 120
1, 428729, Control_c, 0, 64, 110
1, 428743, Control_c, 0, 64, 104
1, 428758, Control_c, 0, 64, 100
1, 428760, Note_on_c, 0, 36, 37
1, 428761, Note_on_c, 0, 76, 44
1, 428774, Control_c, 0, 64, 96
1, 428775, Note_on_c, 0, 70, 41
1, 428777, Note_on_c, 0, 67, 37
1, 428789, Control_c, 0, 64, 93
1, 428804, Control_c, 0, 64, 90
1, 428819, Control_c, 0, 64, 87
1, 428834, Control_c, 0, 64, 84
1, 428848, Control_c, 0, 64, 83
1, 428863, Control_c, 0, 64, 82
1, 428877, Control_c, 0, 64, 81
1, 428891, Control_c, 0, 64, 80
1, 428906, Control_c, 0, 64, 78
1, 428921, Control_c, 0, 64, 77
1, 428936, Control_c, 0, 64, 76
1, 428951, Control_c, 0, 64, 75
1, 428966, Control_c, 0, 64, 74
1, 428981, Control_c, 0, 64, 74
1, 428996, Control_c, 0, 64, 73
1, 429010, Control_c, 0, 64, 73
1, 429025, Control_c, 0, 64, 72
1, 429040, Control_c, 0, 64, 72
1, 429055, Control_c, 0, 64, 71
1, 429085, Control_c, 0, 64, 71
1, 429114, Control_c, 0, 64, 70
1, 429144, Control_c, 0, 64, 69
1, 429159, Control_c, 0, 64, 66
1, 429173, Control_c, 0, 64, 65
1, 429329, Control_c, 0, 64, 65
1, 429344, Control_c, 0, 64, 64
1, 429359, Control_c, 0, 64, 61
1, 429373, Control_c, 0, 64, 0
1, 429596, Control_c, 0, 64, 65
1, 429611, Control_c, 0, 64, 66
1, 429626, Control_c, 0, 64, 67
1, 429640, Control_c, 0, 64, 69
1, 429655, Control_c, 0, 64, 71
1, 429670, Control_c, 0, 64, 73
1, 429685, Control_c, 0, 64, 75
1, 429700, Control_c, 0, 64, 78
1, 429715, Control_c, 0, 64, 79
1, 429729, Control_c, 0, 64, 81
1, 429744, Control_c, 0, 64, 82
1, 429759, Control_c, 0, 64, 84
1, 429774, Control_c, 0, 64, 86
1, 429789, Control_c, 0, 64, 87
1, 429803, Control_c, 0, 64, 88
1, 429818, Control_c, 0, 64, 90
1, 429833, Control_c, 0, 64, 91
1, 429848, Control_c, 0, 64, 93
1, 429863, Control_c, 0, 64, 94
1, 429878, Control_c, 0, 64, 96
1, 429908, Control_c, 0, 64, 99
1, 429922, Control_c, 0, 64, 102
1, 429937, Control_c, 0, 64, 105
1, 429952, Control_c, 0, 64, 109
1, 429967, Control_c, 0, 64, 113
1, 429982, Control_c, 0, 64, 119
1, 430003, Control_c, 0, 64, 127
1, 430129, Note_off_c, 0, 70, 53
1, 430134, Note_off_c, 0, 67, 33
1, 430752, Note_off_c, 0, 36, 34
1, 431320, Note_off_c, 0, 76, 60
1, 431602, Note_on_c, 0, 36, 82
1, 431606, Note_on_c, 0, 79, 69
1, 431607, Note_on_c, 0, 48, 72
1, 431608, Note_on_c, 0, 76, 71
1, 431612, Note_on_c, 0, 84, 64
1, 431613, Note_on_c, 0, 88, 65
1, 431616, Note_on_c, 0, 82, 56
1, 431627, Note_off_c, 0, 79, 67
1, 431630, Note_off_c, 0, 88, 64
1, 431633, Note_off_c, 0, 76, 65
1, 431636, Note_off_c, 0, 48, 64
1, 431636, Note_off_c, 0, 82, 60
1, 431637, Note_off_c, 0, 36, 64
1, 431637, Note_off_c, 0, 84, 67
1, 431665, Control_c, 0, 64, 119
1, 431680, Control_c, 0, 64, 96
1, 431690, Note_on_c, 0, 79, 75
1, 431692, Note_on_c, 0, 76, 76
1, 431692, Note_on_c, 0, 84, 80
1, 431693, Note_on_c, 0, 48, 77
1, 431694, Control_c, 0, 64, 79
1, 431698, Note_on_c, 0, 36, 83
1, 431698, Note_on_c, 0, 88, 61
1, 431701, Note_on_c, 0, 82, 61
1, 431709, Control_c, 0, 64, 65
1, 431715, Note_off_c, 0, 88, 65
1, 431719, Note_off_c, 0, 79, 63
1, 431719, Note_off_c, 0, 82, 63
1, 431723, Note_off_c, 0, 36, 63
1, 431723, Note_off_c, 0, 48, 67
1, 431724, Control_c, 0, 64, 0
1, 431725, Note_off_c, 0, 76, 57
1, 431737, Note_off_c, 0, 84, 61
1, 431774, Poly_aftertouch_c, 0, 84, 0
1, 431776, Note_on_c, 0, 36, 85
1, 431780, Note_on_c, 0, 48, 79
1, 431781, Note_on_c, 0, 84, 64
1, 431783, Note_on_c, 0, 88, 66
1, 431791, Note_on_c, 0, 76, 66
1, 431807, Note_off_c, 0, 88, 66
1, 431807, Note_off_c, 0, 48, 65
1, 431807, Note_off_c, 0, 76, 66
1, 431810, Note_off_c, 0, 84, 66
1, 431819, Note_off_c, 0, 36, 63
1, 431877, Note_on_c, 0, 77, 102
1, 431878, Note_on_c, 0, 89, 97
1, 431879, Note_on_c, 0, 41, 99
1, 431879, Note_on_c, 0, 84, 83
1, 431881, Note_on_c, 0, 29, 97
1, 431887, Note_on_c, 0, 80, 95
1, 431899, Note_off_c, 0, 29, 68
1, 431902, Control_c, 0, 64, 88
1, 431904, Note_off_c, 0, 41, 69
1, 431913, Note_on_c, 0, 87, 32
1, 431914, Note_off_c, 0, 87, 127
1, 431917, Control_c, 0, 64, 127
1, 431970, Note_on_c, 0, 29, 33
1, 431998, Note_on_c, 0, 41, 3
1, 432006, Note_off_c, 0, 29, 41
1, 432016, Note_off_c, 0, 41, 32
1, 432075, Note_on_c, 0, 60, 50
1, 432085, Note_on_c, 0, 65, 23
1, 432118, Note_off_c, 0, 60, 57
1, 432123, Note_off_c, 0, 65, 53
1, 432132, Poly_aftertouch_c, 0, 64, 127
1, 432168, Note_on_c, 0, 56, 59
1, 432171, Poly_aftertouch_c, 0, 64, 0
1, 432209, Note_off_c, 0, 77, 57
1, 432214, Note_off_c, 0, 56, 62
1, 432245, Note_on_c, 0, 65, 59
1, 432257, Note_on_c, 0, 60, 57
1, 432267, Note_off_c, 0, 89, 57
1, 432303, Note_off_c, 0, 65, 60
1, 432319, Note_off_c, 0, 60, 48
1, 432343, Note_on_c, 0, 56, 56
1, 432357, Note_off_c, 0, 84, 61
1, 432380, Note_off_c, 0, 80, 57
1, 432403, Note_off_c, 0, 56, 62
1, 432433, Note_on_c, 0, 65, 57
1, 432444, Note_on_c, 0, 60, 53
1, 432479, Note_off_c, 0, 65, 55
1, 432490, Note_off_c, 0, 60, 54
1, 432503, Control_c, 0, 64, 124
1, 432517, Note_on_c, 0, 56, 57
1, 432547, Control_c, 0, 64, 122
1, 432573, Note_off_c, 0, 56, 59
1, 432576, Control_c, 0, 64, 120
1, 432611, Note_on_c, 0, 65, 54
1, 432614, Note_on_c, 0, 60, 50
1, 432652, Note_off_c, 0, 65, 61
1, 432658, Note_off_c, 0, 60, 54
1, 432692, Note_on_c, 0, 56, 58
1, 432695, Control_c, 0, 64, 117
1, 432709, Control_c, 0, 64, 110
1, 432724, Control_c, 0, 64, 102
1, 432739, Control_c, 0, 64, 93
1, 432754, Control_c, 0, 64, 84
1, 432769, Note_off_c, 0, 56, 60
1, 432769, Control_c, 0, 64, 73
1, 432784, Control_c, 0, 64, 62
1, 432788, Note_on_c, 0, 68, 62
1, 432793, Note_on_c, 0, 65, 46
1, 432795, Note_on_c, 0, 60, 43
1, 432799, Control_c, 0, 64, 0
1, 432839, Note_off_c, 0, 60, 54
1, 432844, Control_c, 0, 64, 64
1, 432847, Note_off_c, 0, 65, 58
1, 432858, Control_c, 0, 64, 68
1, 432873, Control_c, 0, 64, 71
1, 432888, Control_c, 0, 64, 75
1, 432889, Note_on_c, 0, 56, 53
1, 432903, Control_c, 0, 64, 79
1, 432918, Control_c, 0, 64, 83
1, 432932, Control_c, 0, 64, 85
1, 432947, Control_c, 0, 64, 86
1, 432949, Note_off_c, 0, 56, 58
1, 432962, Control_c, 0, 64, 86
1, 432977, Control_c, 0, 64, 88
1, 432991, Note_on_c, 0, 60, 42
1, 433002, Note_on_c, 0, 65, 43
1, 433004, Note_on_c, 0, 72, 67
1, 433014, Control_c, 0, 64, 87
1, 433014, Note_off_c, 0, 68, 62
1, 433029, Control_c, 0, 64, 83
1, 433038, Note_off_c, 0, 65, 51
1, 433044, Note_off_c, 0, 60, 44
1, 433044, Control_c, 0, 64, 75
1, 433059, Control_c, 0, 64, 66
1, 433073, Control_c, 0, 64, 0
1, 433074, Note_on_c, 0, 77, 69
1, 433082, Note_on_c, 0, 56, 49
1, 433118, Note_off_c, 0, 72, 57
1, 433133, Control_c, 0, 64, 66
1, 433147, Control_c, 0, 64, 72
1, 433156, Note_off_c, 0, 56, 58
1, 433162, Control_c, 0, 64, 78
1, 433174, Note_on_c, 0, 60, 49
1, 433177, Note_on_c, 0, 65, 49
1, 433177, Control_c, 0, 64, 85
1, 433191, Control_c, 0, 64, 88
1, 433206, Control_c, 0, 64, 90
1, 433217, Note_off_c, 0, 60, 58
1, 433220, Note_off_c, 0, 65, 60
1, 433221, Control_c, 0, 64, 91
1, 433236, Control_c, 0, 64, 93
1, 433251, Control_c, 0, 64, 94
1, 433265, Control_c, 0, 64, 95
1, 433280, Control_c, 0, 64, 96
1, 433292, Note_on_c, 0, 56, 46
1, 433324, Note_off_c, 0, 56, 54
1, 433346, Note_on_c, 0, 80, 73
1, 433354, Note_on_c, 0, 60, 42
1, 433356, Note_on_c, 0, 65, 46
1, 433383, Note_off_c, 0, 65, 58
1, 433384, Note_off_c, 0, 60, 55
1, 433384, Control_c, 0, 64, 98
1, 433404, Note_off_c, 0, 77, 54
1, 433428, Note_on_c, 0, 56, 43
1, 433443, Control_c, 0, 64, 100
1, 433473, Control_c, 0, 64, 102
1, 433487, Note_off_c, 0, 56, 60
1, 433488, Control_c, 0, 64, 104
1, 433489, Note_on_c, 0, 60, 43
1, 433497, Note_off_c, 0, 80, 63
1, 433513, Note_on_c, 0, 65, 43
1, 433524, Note_off_c, 0, 60, 55
1, 433541, Note_on_c, 0, 77, 66
1, 433562, Note_off_c, 0, 65, 60
1, 433562, Control_c, 0, 64, 91
1, 433577, Control_c, 0, 64, 75
1, 433592, Control_c, 0, 64, 0
1, 433611, Note_on_c, 0, 58, 56
1, 433613, Note_off_c, 0, 77, 60
1, 433617, Note_on_c, 0, 76, 68
1, 433667, Control_c, 0, 64, 64
1, 433671, Note_off_c, 0, 58, 61
1, 433681, Control_c, 0, 64, 71
1, 433696, Control_c, 0, 64, 76
1, 433704, Note_on_c, 0, 67, 57
1, 433711, Control_c, 0, 64, 81
1, 433717, Note_on_c, 0, 60, 13
1, 433726, Control_c, 0, 64, 85
1, 433748, Control_c, 0, 64, 87
1, 433752, Note_off_c, 0, 67, 60
1, 433762, Control_c, 0, 64, 89
1, 433777, Note_off_c, 0, 60, 45
1, 433777, Control_c, 0, 64, 91
1, 433792, Control_c, 0, 64, 92
1, 433801, Note_on_c, 0, 58, 62
1, 433807, Control_c, 0, 64, 93
1, 433822, Control_c, 0, 64, 93
1, 433837, Control_c, 0, 64, 94
1, 433851, Note_off_c, 0, 58, 57
1, 433851, Control_c, 0, 64, 95
1, 433866, Control_c, 0, 64, 95
1, 433881, Control_c, 0, 64, 96
1, 433883, Note_on_c, 0, 60, 62
1, 433888, Note_on_c, 0, 67, 48
1, 433890, Note_on_c, 0, 79, 67
1, 433916, Note_off_c, 0, 67, 55
1, 433941, Control_c, 0, 64, 99
1, 433955, Note_off_c, 0, 60, 45
1, 433956, Note_off_c, 0, 76, 51
1, 433983, Note_on_c, 0, 58, 52
1, 433985, Control_c, 0, 64, 101
1, 434000, Control_c, 0, 64, 103
1, 434029, Control_c, 0, 64, 106
1, 434032, Note_off_c, 0, 58, 55
1, 434042, Note_on_c, 0, 60, 53
1, 434045, Note_on_c, 0, 67, 46
1, 434086, Note_off_c, 0, 67, 54
1, 434089, Note_on_c, 0, 76, 61
1, 434093, Note_off_c, 0, 79, 60
1, 434102, Note_off_c, 0, 60, 53
1, 434103, Control_c, 0, 64, 100
1, 434119, Control_c, 0, 64, 89
1, 434133, Control_c, 0, 64, 73
1, 434148, Control_c, 0, 64, 0
1, 434153, Note_on_c, 0, 56, 56
1, 434170, Note_off_c, 0, 76, 60
1, 434172, Note_on_c, 0, 77, 67
1, 434249, Note_on_c, 0, 60, 56
1, 434249, Note_off_c, 0, 56, 63
1, 434252, Control_c, 0, 64, 69
1, 434258, Note_on_c, 0, 65, 51
1, 434267, Control_c, 0, 64, 74
1, 434281, Control_c, 0, 64, 77
1, 434296, Control_c, 0, 64, 81
1, 434305, Note_off_c, 0, 65, 58
1, 434311, Control_c, 0, 64, 84
1, 434316, Note_off_c, 0, 60, 50
1, 434326, Control_c, 0, 64, 87
1, 434340, Control_c, 0, 64, 89
1, 434352, Note_on_c, 0, 56, 58
1, 434355, Control_c, 0, 64, 90
1, 434371, Control_c, 0, 64, 91
1, 434386, Control_c, 0, 64, 92
1, 434401, Control_c, 0, 64, 93
1, 434416, Control_c, 0, 64, 93
1, 434424, Note_off_c, 0, 56, 62
1, 434446, Note_on_c, 0, 60, 55
1, 434451, Note_on_c, 0, 65, 34
1, 434457, Note_on_c, 0, 72, 62
1, 434460, Control_c, 0, 64, 94
1, 434495, Note_off_c, 0, 65, 51
1, 434513, Note_off_c, 0, 60, 55
1, 434552, Note_on_c, 0, 56, 54
1, 434571, Control_c, 0, 64, 94
1, 434616, Control_c, 0, 64, 95
1, 434620, Note_off_c, 0, 56, 63
1, 434631, Control_c, 0, 64, 95
1, 434636, Note_on_c, 0, 65, 43
1, 434637, Note_on_c, 0, 60, 54
1, 434645, Control_c, 0, 64, 96
1, 434647, Note_off_c, 0, 72, 60
1, 434649, Note_off_c, 0, 77, 55
1, 434693, Note_off_c, 0, 65, 55
1, 434704, Note_off_c, 0, 60, 58
1, 434734, Note_on_c, 0, 56, 56
1, 434805, Note_off_c, 0, 56, 59
1, 434828, Note_on_c, 0, 60, 56
1, 434832, Note_on_c, 0, 65, 46
1, 434875, Note_off_c, 0, 65, 58
1, 434893, Note_off_c, 0, 60, 58
1, 434925, Note_on_c, 0, 56, 51
1, 434942, Control_c, 0, 64, 98
1, 434981, Note_off_c, 0, 56, 58
1, 434986, Control_c, 0, 64, 100
1, 434992, Note_on_c, 0, 65, 47
1, 434995, Note_on_c, 0, 80, 74
1, 434998, Note_on_c, 0, 68, 68
1, 435016, Control_c, 0, 64, 102
1, 435018, Note_on_c, 0, 60, 57
1, 435030, Control_c, 0, 64, 104
1, 435035, Note_off_c, 0, 68, 64
1, 435045, Control_c, 0, 64, 107
1, 435062, Note_off_c, 0, 65, 47
1, 435065, Note_off_c, 0, 60, 59
1, 435103, Note_on_c, 0, 56, 54
1, 435157, Note_off_c, 0, 56, 59
1, 435187, Note_on_c, 0, 60, 52
1, 435190, Note_on_c, 0, 84, 69
1, 435202, Note_on_c, 0, 65, 55
1, 435202, Note_off_c, 0, 80, 64
1, 435225, Note_off_c, 0, 84, 64
1, 435261, Note_off_c, 0, 60, 55
1, 435265, Note_off_c, 0, 65, 48
1, 435282, Note_on_c, 0, 56, 59
1, 435290, Note_on_c, 0, 89, 88
1, 435291, Control_c, 0, 64, 105
1, 435301, Note_on_c, 0, 77, 69
1, 435377, Note_off_c, 0, 56, 58
1, 435387, Note_on_c, 0, 60, 62
1, 435393, Note_on_c, 0, 65, 58
1, 435437, Note_off_c, 0, 77, 57
1, 435449, Note_off_c, 0, 65, 54
1, 435459, Note_off_c, 0, 60, 58
1, 435487, Note_off_c, 0, 89, 64
1, 435496, Note_on_c, 0, 56, 61
1, 435542, Note_off_c, 0, 56, 61
1, 435568, Note_on_c, 0, 65, 58
1, 435571, Note_on_c, 0, 92, 85
1, 435580, Note_on_c, 0, 60, 60
1, 435581, Note_on_c, 0, 80, 81
1, 435612, Note_off_c, 0, 65, 56
1, 435615, Note_off_c, 0, 60, 58
1, 435651, Note_off_c, 0, 80, 61
1, 435656, Note_on_c, 0, 56, 59
1, 435658, Note_off_c, 0, 92, 61
1, 435705, Control_c, 0, 64, 107
1, 435722, Note_off_c, 0, 56, 61
1, 435742, Note_on_c, 0, 60, 52
1, 435742, Note_on_c, 0, 65, 57
1, 435742, Note_on_c, 0, 89, 84
1, 435757, Note_on_c, 0, 77, 65
1, 435772, Note_off_c, 0, 89, 64
1, 435775, Note_off_c, 0, 77, 66
1, 435779, Note_off_c, 0, 60, 58
1, 435779, Control_c, 0, 64, 96
1, 435792, Note_off_c, 0, 65, 59
1, 435794, Control_c, 0, 64, 80
1, 435809, Control_c, 0, 64, 63
1, 435824, Control_c, 0, 64, 0
1, 435825, Note_on_c, 0, 88, 92
1, 435830, Note_on_c, 0, 76, 84
1, 435832, Note_on_c, 0, 58, 71
1, 435912, Control_c, 0, 64, 71
1, 435914, Note_off_c, 0, 58, 61
1, 435924, Note_on_c, 0, 60, 42
1, 435927, Control_c, 0, 64, 77
1, 435931, Note_on_c, 0, 64, 59
1, 435932, Note_on_c, 0, 67, 65
1, 435942, Control_c, 0, 64, 84
1, 435951, Note_off_c, 0, 76, 54
1, 435958, Control_c, 0, 64, 90
1, 435973, Control_c, 0, 64, 93
1, 435976, Note_off_c, 0, 60, 50
1, 435980, Note_off_c, 0, 67, 58
1, 435993, Note_off_c, 0, 64, 58
1, 435995, Control_c, 0, 64, 96
1, 436010, Control_c, 0, 64, 99
1, 436025, Note_on_c, 0, 58, 74
1, 436039, Control_c, 0, 64, 102
1, 436069, Control_c, 0, 64, 105
1, 436088, Note_off_c, 0, 58, 60
1, 436098, Note_on_c, 0, 91, 95
1, 436099, Control_c, 0, 64, 107
1, 436104, Note_on_c, 0, 60, 58
1, 436104, Note_on_c, 0, 67, 65
1, 436105, Note_on_c, 0, 64, 68
1, 436107, Note_on_c, 0, 79, 80
1, 436114, Control_c, 0, 64, 109
1, 436117, Note_off_c, 0, 88, 55
1, 436129, Control_c, 0, 64, 112
1, 436144, Control_c, 0, 64, 115
1, 436145, Note_off_c, 0, 67, 57
1, 436146, Note_off_c, 0, 60, 55
1, 436158, Control_c, 0, 64, 119
1, 436169, Note_off_c, 0, 64, 62
1, 436173, Control_c, 0, 64, 127
1, 436186, Note_off_c, 0, 79, 62
1, 436188, Note_on_c, 0, 58, 73
1, 436189, Note_off_c, 0, 91, 64
1, 436257, Note_off_c, 0, 58, 58
1, 436266, Note_on_c, 0, 60, 40
1, 436269, Note_on_c, 0, 67, 59
1, 436284, Note_on_c, 0, 64, 52
1, 436294, Note_on_c, 0, 88, 87
1, 436302, Note_on_c, 0, 76, 74
1, 436326, Note_off_c, 0, 60, 36
1, 436326, Note_off_c, 0, 76, 67
1, 436330, Note_off_c, 0, 64, 57
1, 436336, Note_off_c, 0, 88, 63
1, 436345, Note_off_c, 0, 67, 57
1, 436365, Control_c, 0, 64, 101
1, 436380, Control_c, 0, 64, 83
1, 436395, Control_c, 0, 64, 65
1, 436409, Control_c, 0, 64, 0
1, 436410, Note_on_c, 0, 57, 58
1, 436442, Note_on_c, 0, 90, 86
1, 436450, Note_on_c, 0, 78, 79
1, 436499, Control_c, 0, 64, 69
1, 436504, Note_off_c, 0, 57, 63
1, 436513, Control_c, 0, 64, 77
1, 436528, Note_on_c, 0, 63, 59
1, 436528, Control_c, 0, 64, 86
1, 436529, Note_on_c, 0, 60, 18
1, 436533, Note_on_c, 0, 66, 65
1, 436537, Note_off_c, 0, 90, 64
1, 436543, Control_c, 0, 64, 95
1, 436550, Note_off_c, 0, 78, 60
1, 436558, Control_c, 0, 64, 100
1, 436569, Note_off_c, 0, 66, 60
1, 436573, Control_c, 0, 64, 102
1, 436583, Note_off_c, 0, 60, 44
1, 436588, Control_c, 0, 64, 104
1, 436588, Note_off_c, 0, 63, 54
1, 436602, Control_c, 0, 64, 106
1, 436624, Note_on_c, 0, 57, 64
1, 436632, Control_c, 0, 64, 108
1, 436701, Note_off_c, 0, 57, 58
1, 436713, Note_on_c, 0, 63, 60
1, 436717, Note_on_c, 0, 84, 77
1, 436734, Note_on_c, 0, 72, 65
1, 436736, Note_on_c, 0, 60, 36
1, 436738, Note_on_c, 0, 66, 52
1, 436764, Note_off_c, 0, 66, 59
1, 436783, Note_off_c, 0, 60, 44
1, 436785, Note_off_c, 0, 63, 54
1, 436817, Note_on_c, 0, 57, 68
1, 436840, Note_off_c, 0, 72, 60
1, 436894, Note_off_c, 0, 57, 58
1, 436898, Note_on_c, 0, 60, 56
1, 436906, Note_on_c, 0, 63, 62
1, 436910, Note_on_c, 0, 66, 58
1, 436948, Note_off_c, 0, 66, 60
1, 436961, Note_off_c, 0, 63, 48
1, 436987, Note_off_c, 0, 60, 56
1, 436997, Note_on_c, 0, 57, 71
1, 437068, Note_off_c, 0, 57, 59
1, 437084, Note_on_c, 0, 60, 52
1, 437085, Note_on_c, 0, 63, 62
1, 437089, Note_on_c, 0, 66, 60
1, 437118, Note_off_c, 0, 66, 62
1, 437121, Note_off_c, 0, 63, 59
1, 437149, Note_off_c, 0, 60, 54
1, 437158, Control_c, 0, 64, 110
1, 437163, Note_on_c, 0, 57, 69
1, 437231, Note_off_c, 0, 57, 59
1, 437232, Control_c, 0, 64, 113
1, 437238, Note_on_c, 0, 66, 59
1, 437244, Note_on_c, 0, 63, 58
1, 437251, Note_on_c, 0, 60, 58
1, 437251, Note_on_c, 0, 87, 90
1, 437262, Note_on_c, 0, 75, 83
1, 437262, Control_c, 0, 64, 115
1, 437273, Note_off_c, 0, 66, 59
1, 437277, Control_c, 0, 64, 118
1, 437285, Note_off_c, 0, 63, 60
1, 437290, Note_off_c, 0, 84, 49
1, 437291, Control_c, 0, 64, 127
1, 437308, Note_off_c, 0, 60, 53
1, 437332, Note_on_c, 0, 57, 66
1, 437351, Note_off_c, 0, 75, 61
1, 437361, Note_off_c, 0, 87, 64
1, 437399, Note_off_c, 0, 57, 60
1, 437407, Note_on_c, 0, 63, 53
1, 437408, Note_on_c, 0, 66, 56
1, 437418, Note_on_c, 0, 60, 37
1, 437426, Note_on_c, 0, 84, 68
1, 437435, Note_on_c, 0, 72, 64
1, 437452, Note_off_c, 0, 72, 64
1, 437463, Note_off_c, 0, 60, 45
1, 437466, Note_off_c, 0, 66, 49
1, 437470, Control_c, 0, 64, 101
1, 437473, Note_off_c, 0, 63, 55
1, 437482, Note_off_c, 0, 84, 62
1, 437491, Control_c, 0, 64, 78
1, 437506, Control_c, 0, 64, 0
1, 437509, Note_on_c, 0, 57, 63
1, 437537, Note_on_c, 0, 89, 96
1, 437547, Note_on_c, 0, 77, 78
1, 437581, Control_c, 0, 64, 38
1, 437596, Control_c, 0, 64, 68
1, 437601, Note_off_c, 0, 89, 62
1, 437603, Note_off_c, 0, 57, 57
1, 437611, Control_c, 0, 64, 73
1, 437612, Note_on_c, 0, 63, 55
1, 437620, Note_on_c, 0, 65, 58
1, 437620, Note_off_c, 0, 77, 59
1, 437626, Control_c, 0, 64, 79
1, 437641, Control_c, 0, 64, 85
1, 437655, Control_c, 0, 64, 90
1, 437657, Note_off_c, 0, 65, 63
1, 437670, Control_c, 0, 64, 93
1, 437685, Control_c, 0, 64, 96
1, 437688, Note_off_c, 0, 63, 58
1, 437700, Control_c, 0, 64, 99
1, 437715, Note_on_c, 0, 57, 64
1, 437715, Control_c, 0, 64, 102
1, 437759, Control_c, 0, 64, 97
1, 437774, Control_c, 0, 64, 83
1, 437789, Control_c, 0, 64, 66
1, 437792, Note_off_c, 0, 57, 61
1, 437804, Control_c, 0, 64, 0
1, 437806, Note_on_c, 0, 65, 61
1, 437806, Note_on_c, 0, 82, 74
1, 437810, Note_on_c, 0, 61, 61
1, 437816, Note_on_c, 0, 70, 66
1, 437853, Note_off_c, 0, 65, 59
1, 437855, Note_off_c, 0, 61, 57
1, 437863, Control_c, 0, 64, 63
1, 437878, Control_c, 0, 64, 71
1, 437883, Note_on_c, 0, 58, 63
1, 437893, Control_c, 0, 64, 77
1, 437907, Control_c, 0, 64, 82
1, 437922, Control_c, 0, 64, 86
1, 437933, Note_off_c, 0, 70, 62
1, 437937, Control_c, 0, 64, 88
1, 437952, Control_c, 0, 64, 90
1, 437957, Note_off_c, 0, 58, 55
1, 437967, Control_c, 0, 64, 91
1, 437974, Note_on_c, 0, 65, 64
1, 437977, Note_on_c, 0, 61, 60
1, 437981, Control_c, 0, 64, 91
1, 438016, Note_off_c, 0, 61, 60
1, 438024, Note_off_c, 0, 65, 59
1, 438026, Control_c, 0, 64, 92
1, 438069, Note_on_c, 0, 58, 67
1, 438099, Control_c, 0, 64, 92
1, 438114, Control_c, 0, 64, 93
1, 438117, Note_off_c, 0, 58, 57
1, 438129, Control_c, 0, 64, 94
1, 438144, Note_on_c, 0, 61, 59
1, 438144, Note_on_c, 0, 65, 61
1, 438144, Control_c, 0, 64, 95
1, 438159, Control_c, 0, 64, 96
1, 438174, Control_c, 0, 64, 98
1, 438179, Note_off_c, 0, 61, 62
1, 438181, Note_off_c, 0, 65, 60
1, 438189, Control_c, 0, 64, 101
1, 438204, Control_c, 0, 64, 106
1, 438219, Control_c, 0, 64, 108
1, 438230, Note_on_c, 0, 58, 74
1, 438285, Control_c, 0, 64, 102
1, 438300, Note_off_c, 0, 58, 58
1, 438300, Control_c, 0, 64, 85
1, 438314, Control_c, 0, 64, 71
1, 438316, Note_on_c, 0, 85, 80
1, 438318, Note_off_c, 0, 82, 39
1, 438320, Note_on_c, 0, 64, 68
1, 438321, Note_on_c, 0, 67, 69
1, 438326, Note_on_c, 0, 73, 76
1, 438329, Control_c, 0, 64, 0
1, 438356, Note_off_c, 0, 67, 62
1, 438362, Note_off_c, 0, 64, 59
1, 438375, Control_c, 0, 64, 65
1, 438390, Control_c, 0, 64, 72
1, 438404, Control_c, 0, 64, 80
1, 438408, Note_on_c, 0, 58, 65
1, 438419, Control_c, 0, 64, 88
1, 438434, Control_c, 0, 64, 94
1, 438436, Note_off_c, 0, 73, 61
1, 438449, Note_off_c, 0, 85, 62
1, 438449, Control_c, 0, 64, 96
1, 438464, Control_c, 0, 64, 100
1, 438472, Note_on_c, 0, 64, 67
1, 438476, Note_on_c, 0, 67, 52
1, 438478, Control_c, 0, 64, 105
1, 438493, Control_c, 0, 64, 112
1, 438499, Note_off_c, 0, 64, 65
1, 438502, Note_off_c, 0, 67, 62
1, 438508, Control_c, 0, 64, 116
1, 438514, Note_on_c, 0, 82, 74
1, 438520, Note_off_c, 0, 58, 61
1, 438541, Note_off_c, 0, 82, 61
1, 438552, Control_c, 0, 64, 109
1, 438567, Control_c, 0, 64, 92
1, 438582, Control_c, 0, 64, 74
1, 438591, Note_on_c, 0, 80, 82
1, 438596, Note_on_c, 0, 48, 73
1, 438596, Note_on_c, 0, 68, 80
1, 438597, Control_c, 0, 64, 0
1, 438678, Note_off_c, 0, 48, 62
1, 438686, Control_c, 0, 64, 72
1, 438695, Note_on_c, 0, 60, 62
1, 438696, Note_on_c, 0, 53, 47
1, 438696, Note_on_c, 0, 56, 58
1, 438698, Note_off_c, 0, 68, 63
1, 438701, Control_c, 0, 64, 80
1, 438716, Control_c, 0, 64, 88
1, 438730, Control_c, 0, 64, 93
1, 438738, Note_off_c, 0, 53, 48
1, 438738, Note_off_c, 0, 60, 57
1, 438739, Note_off_c, 0, 56, 62
1, 438745, Control_c, 0, 64, 96
1, 438760, Control_c, 0, 64, 99
1, 438775, Control_c, 0, 64, 101
1, 438776, Note_on_c, 0, 48, 75
1, 438804, Control_c, 0, 64, 103
1, 438850, Note_off_c, 0, 48, 59
1, 438859, Note_on_c, 0, 84, 93
1, 438859, Note_on_c, 0, 53, 61
1, 438862, Note_on_c, 0, 60, 71
1, 438865, Note_on_c, 0, 72, 82
1, 438866, Note_on_c, 0, 56, 60
1, 438874, Note_off_c, 0, 80, 60
1, 438878, Control_c, 0, 64, 107
1, 438893, Control_c, 0, 64, 110
1, 438896, Note_off_c, 0, 60, 60
1, 438898, Note_off_c, 0, 56, 63
1, 438908, Control_c, 0, 64, 113
1, 438919, Note_off_c, 0, 72, 60
1, 438920, Note_off_c, 0, 53, 47
1, 438923, Control_c, 0, 64, 121
1, 438937, Control_c, 0, 64, 127
1, 438938, Note_off_c, 0, 84, 63
1, 438943, Note_on_c, 0, 48, 70
1, 439011, Note_on_c, 0, 60, 58
1, 439014, Note_off_c, 0, 48, 60
1, 439019, Note_on_c, 0, 56, 50
1, 439039, Note_on_c, 0, 53, 28
1, 439041, Note_off_c, 0, 60, 61
1, 439053, Note_off_c, 0, 56, 65
1, 439066, Note_on_c, 0, 80, 79
1, 439074, Note_off_c, 0, 53, 54
1, 439086, Note_on_c, 0, 68, 57
1, 439103, Note_off_c, 0, 80, 58
1, 439104, Note_off_c, 0, 68, 65
1, 439123, Control_c, 0, 64, 96
1, 439126, Note_on_c, 0, 46, 72
1, 439137, Control_c, 0, 64, 75
1, 439146, Note_on_c, 0, 79, 87
1, 439149, Note_on_c, 0, 67, 85
1, 439153, Control_c, 0, 64, 0
1, 439227, Control_c, 0, 64, 70
1, 439237, Note_on_c, 0, 48, 41
1, 439237, Note_on_c, 0, 55, 70
1, 439238, Note_off_c, 0, 67, 62
1, 439239, Note_on_c, 0, 52, 60
1, 439242, Control_c, 0, 64, 78
1, 439244, Note_off_c, 0, 46, 61
1, 439257, Control_c, 0, 64, 87
1, 439272, Control_c, 0, 64, 96
1, 439279, Note_off_c, 0, 48, 63
1, 439282, Note_off_c, 0, 52, 61
1, 439283, Note_off_c, 0, 55, 56
1, 439287, Control_c, 0, 64, 101
1, 439292, Note_off_c, 0, 79, 63
1, 439301, Control_c, 0, 64, 106
1, 439316, Control_c, 0, 64, 110
1, 439331, Control_c, 0, 64, 113
1, 439333, Note_on_c, 0, 46, 81
1, 439346, Control_c, 0, 64, 115
1, 439360, Control_c, 0, 64, 118
1, 439375, Control_c, 0, 64, 124
1, 439390, Control_c, 0, 64, 127
1, 439408, Note_on_c, 0, 91, 100
1, 439409, Note_on_c, 0, 55, 74
1, 439413, Note_on_c, 0, 48, 46
1, 439414, Note_on_c, 0, 52, 60
1, 439415, Note_on_c, 0, 79, 88
1, 439420, Note_off_c, 0, 46, 60
1, 439464, Note_off_c, 0, 55, 58
1, 439479, Note_off_c, 0, 52, 59
1, 439492, Note_on_c, 0, 46, 68
1, 439502, Note_off_c, 0, 91, 63
1, 439506, Note_off_c, 0, 79, 62
1, 439578, Note_on_c, 0, 55, 64
1, 439593, Note_on_c, 0, 52, 53
1, 439595, Note_off_c, 0, 46, 57
1, 439606, Note_on_c, 0, 88, 93
1, 439614, Note_on_c, 0, 76, 83
1, 439634, Note_off_c, 0, 76, 67
1, 439637, Note_off_c, 0, 48, 20
1, 439643, Note_off_c, 0, 52, 52
1, 439647, Note_off_c, 0, 88, 67
1, 439671, Control_c, 0, 64, 107
1, 439683, Note_off_c, 0, 55, 50
1, 439686, Control_c, 0, 64, 84
1, 439701, Control_c, 0, 64, 54
1, 439716, Control_c, 0, 64, 0
1, 439721, Note_on_c, 0, 45, 63
1, 439737, Poly_aftertouch_c, 0, 51, 0
1, 439762, Note_on_c, 0, 90, 96
1, 439764, Note_on_c, 0, 78, 92
1, 439798, Control_c, 0, 64, 64
1, 439813, Control_c, 0, 64, 75
1, 439826, Note_off_c, 0, 78, 58
1, 439827, Control_c, 0, 64, 84
1, 439831, Note_off_c, 0, 90, 63
1, 439842, Control_c, 0, 64, 96
1, 439846, Note_on_c, 0, 51, 50
1, 439847, Note_on_c, 0, 57, 60
1, 439849, Note_on_c, 0, 54, 62
1, 439855, Note_off_c, 0, 45, 59
1, 439857, Control_c, 0, 64, 104
1, 439872, Control_c, 0, 64, 108
1, 439886, Control_c, 0, 64, 112
1, 439892, Note_off_c, 0, 57, 55
1, 439894, Note_off_c, 0, 51, 57
1, 439897, Note_off_c, 0, 54, 56
1, 439901, Control_c, 0, 64, 116
1, 439916, Control_c, 0, 64, 120
1, 439938, Note_on_c, 0, 45, 72
1, 439946, Control_c, 0, 64, 122
1, 440016, Note_off_c, 0, 45, 57
1, 440018, Poly_aftertouch_c, 0, 78, 0
1, 440037, Note_on_c, 0, 84, 83
1, 440040, Note_on_c, 0, 57, 55
1, 440042, Note_on_c, 0, 72, 79
1, 440043, Note_on_c, 0, 54, 59
1, 440046, Note_on_c, 0, 51, 49
1, 440047, Poly_aftertouch_c, 0, 78, 0
1, 440084, Note_off_c, 0, 57, 58
1, 440085, Note_off_c, 0, 51, 58
1, 440085, Note_off_c, 0, 54, 59
1, 440126, Note_on_c, 0, 45, 72
1, 440142, Note_off_c, 0, 72, 60
1, 440198, Control_c, 0, 64, 120
1, 440202, Note_off_c, 0, 45, 58
1, 440216, Note_on_c, 0, 51, 55
1, 440218, Note_on_c, 0, 57, 62
1, 440222, Note_on_c, 0, 54, 62
1, 440228, Control_c, 0, 64, 117
1, 440262, Note_off_c, 0, 57, 61
1, 440263, Note_off_c, 0, 51, 58
1, 440266, Note_off_c, 0, 54, 60
1, 440287, Control_c, 0, 64, 115
1, 440305, Note_on_c, 0, 45, 78
1, 440317, Control_c, 0, 64, 112
1, 440373, Note_off_c, 0, 45, 59
1, 440391, Note_on_c, 0, 51, 64
1, 440392, Note_on_c, 0, 57, 65
1, 440397, Note_on_c, 0, 54, 61
1, 440433, Note_off_c, 0, 54, 61
1, 440433, Note_off_c, 0, 57, 63
1, 440433, Note_off_c, 0, 51, 58
1, 440465, Control_c, 0, 64, 115
1, 440480, Note_on_c, 0, 45, 78
1, 440487, Control_c, 0, 64, 117
1, 440532, Control_c, 0, 64, 120
1, 440543, Note_off_c, 0, 45, 60
1, 440547, Control_c, 0, 64, 127
1, 440556, Note_on_c, 0, 54, 65
1, 440556, Note_on_c, 0, 87, 89
1, 440557, Note_on_c, 0, 51, 66
1, 440558, Note_on_c, 0, 57, 65
1, 440564, Note_on_c, 0, 75, 90
1, 440585, Note_off_c, 0, 84, 51
1, 440596, Note_off_c, 0, 57, 64
1, 440599, Note_off_c, 0, 51, 55
1, 440609, Note_off_c, 0, 54, 55
1, 440639, Note_on_c, 0, 45, 78
1, 440648, Note_off_c, 0, 75, 62
1, 440655, Note_off_c, 0, 87, 65
1, 440708, Note_off_c, 0, 45, 58
1, 440722, Note_on_c, 0, 51, 63
1, 440725, Note_on_c, 0, 57, 62
1, 440728, Note_on_c, 0, 72, 77
1, 440729, Note_on_c, 0, 84, 75
1, 440752, Note_off_c, 0, 72, 67
1, 440758, Note_on_c, 0, 54, 24
1, 440764, Note_off_c, 0, 84, 61
1, 440769, Note_off_c, 0, 51, 53
1, 440778, Note_off_c, 0, 57, 59
1, 440785, Control_c, 0, 64, 97
1, 440797, Note_off_c, 0, 54, 51
1, 440800, Control_c, 0, 64, 71
1, 440814, Control_c, 0, 64, 0
1, 440818, Note_on_c, 0, 45, 74
1, 440827, Note_on_c, 0, 89, 99
1, 440836, Note_on_c, 0, 77, 87
1, 440887, Control_c, 0, 64, 64
1, 440892, Note_off_c, 0, 45, 57
1, 440902, Control_c, 0, 64, 72
1, 440907, Note_on_c, 0, 57, 59
1, 440907, Note_off_c, 0, 89, 64
1, 440913, Note_on_c, 0, 53, 60
1, 440913, Note_on_c, 0, 51, 57
1, 440917, Control_c, 0, 64, 79
1, 440929, Note_off_c, 0, 77, 62
1, 440931, Control_c, 0, 64, 86
1, 440946, Control_c, 0, 64, 93
1, 440953, Note_off_c, 0, 51, 58
1, 440961, Control_c, 0, 64, 98
1, 440965, Note_off_c, 0, 57, 50
1, 440976, Control_c, 0, 64, 103
1, 440991, Control_c, 0, 64, 109
1, 441000, Note_on_c, 0, 45, 72
1, 441006, Control_c, 0, 64, 115
1, 441012, Note_off_c, 0, 53, 57
1, 441021, Control_c, 0, 64, 127
1, 441050, Control_c, 0, 64, 119
1, 441062, Note_off_c, 0, 45, 61
1, 441065, Control_c, 0, 64, 99
1, 441080, Control_c, 0, 64, 80
1, 441095, Control_c, 0, 64, 0
1, 441101, Note_on_c, 0, 58, 64
1, 441101, Note_on_c, 0, 82, 82
1, 441108, Note_on_c, 0, 70, 68
1, 441112, Note_on_c, 0, 53, 49
1, 441118, Note_on_c, 0, 49, 52
1, 441147, Note_off_c, 0, 58, 55
1, 441155, Note_off_c, 0, 49, 65
1, 441166, Note_off_c, 0, 53, 60
1, 441169, Control_c, 0, 64, 68
1, 441184, Control_c, 0, 64, 75
1, 441198, Control_c, 0, 64, 81
1, 441203, Note_on_c, 0, 46, 68
1, 441213, Control_c, 0, 64, 86
1, 441235, Control_c, 0, 64, 89
1, 441250, Control_c, 0, 64, 92
1, 441265, Note_off_c, 0, 70, 62
1, 441265, Control_c, 0, 64, 95
1, 441278, Note_off_c, 0, 46, 62
1, 441280, Note_on_c, 0, 49, 53
1, 441280, Control_c, 0, 64, 96
1, 441286, Note_on_c, 0, 58, 62
1, 441287, Note_on_c, 0, 53, 62
1, 441322, Note_off_c, 0, 49, 61
1, 441325, Note_off_c, 0, 58, 58
1, 441331, Note_off_c, 0, 53, 59
1, 441379, Note_on_c, 0, 46, 77
1, 441398, Control_c, 0, 64, 98
1, 441428, Control_c, 0, 64, 101
1, 441444, Note_off_c, 0, 46, 61
1, 441446, Note_on_c, 0, 49, 51
1, 441457, Control_c, 0, 64, 103
1, 441468, Note_on_c, 0, 53, 53
1, 441472, Control_c, 0, 64, 106
1, 441479, Note_on_c, 0, 58, 64
1, 441485, Note_off_c, 0, 49, 63
1, 441487, Control_c, 0, 64, 110
1, 441492, Note_off_c, 0, 53, 62
1, 441497, Note_off_c, 0, 82, 0
1, 441502, Control_c, 0, 64, 116
1, 441517, Control_c, 0, 64, 122
1, 441530, Note_off_c, 0, 58, 57
1, 441531, Control_c, 0, 64, 127
1, 441534, Poly_aftertouch_c, 0, 82, 127
1, 441560, Note_on_c, 0, 46, 68
1, 441592, Control_c, 0, 64, 110
1, 441599, Poly_aftertouch_c, 0, 82, 0
1, 441607, Control_c, 0, 64, 90
1, 441621, Control_c, 0, 64, 70
1, 441632, Note_on_c, 0, 85, 87
1, 441636, Control_c, 0, 64, 0
1, 441638, Note_on_c, 0, 73, 86
1, 441640, Note_on_c, 0, 55, 64
1, 441644, Note_on_c, 0, 58, 68
1, 441644, Note_on_c, 0, 52, 57
1, 441662, Note_off_c, 0, 46, 60
1, 441688, Note_off_c, 0, 58, 61
1, 441691, Note_off_c, 0, 52, 60
1, 441694, Note_off_c, 0, 55, 60
1, 441695, Control_c, 0, 64, 65
1, 441710, Control_c, 0, 64, 73
1, 441725, Control_c, 0, 64, 81
1, 441734, Note_on_c, 0, 46, 71
1, 441740, Control_c, 0, 64, 88
1, 441754, Control_c, 0, 64, 95
1, 441758, Note_off_c, 0, 85, 62
1, 441761, Note_off_c, 0, 73, 60
1, 441769, Control_c, 0, 64, 101
1, 441784, Control_c, 0, 64, 109
1, 441790, Note_on_c, 0, 58, 73
1, 441793, Note_on_c, 0, 52, 53
1, 441799, Note_off_c, 0, 46, 61
1, 441799, Control_c, 0, 64, 115
1, 441805, Note_on_c, 0, 55, 64
1, 441811, Note_on_c, 0, 82, 67
1, 441814, Control_c, 0, 64, 124
1, 441828, Control_c, 0, 64, 127
1, 441840, Note_off_c, 0, 52, 57
1, 441847, Note_off_c, 0, 58, 61
1, 441854, Note_off_c, 0, 55, 59
1, 441858, Control_c, 0, 64, 113
1, 441864, Note_off_c, 0, 82, 62
1, 441873, Control_c, 0, 64, 94
1, 441888, Control_c, 0, 64, 71
1, 441894, Note_on_c, 0, 48, 78
1, 441899, Note_on_c, 0, 80, 87
1, 441903, Note_on_c, 0, 68, 82
1, 441903, Control_c, 0, 64, 0
1, 441984, Control_c, 0, 64, 71
1, 441992, Note_off_c, 0, 48, 63
1, 441999, Control_c, 0, 64, 80
1, 442004, Note_on_c, 0, 56, 69
1, 442004, Note_on_c, 0, 60, 74
1, 442009, Note_off_c, 0, 68, 63
1, 442010, Note_on_c, 0, 53, 59
1, 442014, Control_c, 0, 64, 89
1, 442028, Control_c, 0, 64, 96
1, 442037, Note_off_c, 0, 60, 60
1, 442043, Control_c, 0, 64, 99
1, 442049, Note_off_c, 0, 53, 61
1, 442051, Note_off_c, 0, 56, 57
1, 442058, Control_c, 0, 64, 102
1, 442073, Control_c, 0, 64, 105
1, 442091, Note_on_c, 0, 48, 77
1, 442103, Control_c, 0, 64, 107
1, 442165, Note_off_c, 0, 80, 61
1, 442166, Note_off_c, 0, 48, 58
1, 442174, Note_on_c, 0, 84, 91
1, 442174, Note_on_c, 0, 53, 68
1, 442175, Note_on_c, 0, 56, 73
1, 442177, Control_c, 0, 64, 112
1, 442177, Note_on_c, 0, 60, 72
1, 442180, Note_on_c, 0, 72, 84
1, 442192, Control_c, 0, 64, 117
1, 442207, Control_c, 0, 64, 127
1, 442207, Note_off_c, 0, 53, 63
1, 442208, Note_off_c, 0, 60, 59
1, 442213, Note_off_c, 0, 56, 62
1, 442226, Note_off_c, 0, 72, 59
1, 442229, Note_off_c, 0, 84, 63
1, 442263, Note_on_c, 0, 48, 82
1, 442344, Note_off_c, 0, 48, 61
1, 442349, Note_on_c, 0, 53, 60
1, 442358, Note_on_c, 0, 60, 69
1, 442359, Note_on_c, 0, 56, 69
1, 442365, Note_on_c, 0, 80, 87
1, 442380, Note_off_c, 0, 53, 63
1, 442382, Note_on_c, 0, 68, 71
1, 442392, Note_off_c, 0, 60, 59
1, 442392, Note_off_c, 0, 56, 62
1, 442401, Note_off_c, 0, 68, 66
1, 442416, Note_off_c, 0, 80, 62
1, 442430, Control_c, 0, 64, 97
1, 442439, Note_on_c, 0, 48, 85
1, 442444, Control_c, 0, 64, 73
1, 442451, Note_on_c, 0, 79, 91
1, 442454, Note_on_c, 0, 67, 88
1, 442459, Control_c, 0, 64, 0
1, 442533, Control_c, 0, 64, 71
1, 442535, Note_off_c, 0, 48, 61
1, 442542, Note_on_c, 0, 52, 68
1, 442542, Note_on_c, 0, 60, 81
1, 442544, Note_off_c, 0, 67, 60
1, 442547, Note_on_c, 0, 55, 69
1, 442548, Control_c, 0, 64, 80
1, 442563, Control_c, 0, 64, 91
1, 442573, Note_off_c, 0, 52, 62
1, 442577, Control_c, 0, 64, 98
1, 442580, Note_off_c, 0, 55, 62
1, 442584, Note_off_c, 0, 60, 56
1, 442592, Note_off_c, 0, 79, 63
1, 442592, Control_c, 0, 64, 100
1, 442607, Control_c, 0, 64, 103
1, 442631, Note_on_c, 0, 48, 88
1, 442637, Control_c, 0, 64, 105
1, 442711, Note_on_c, 0, 84, 98
1, 442721, Note_on_c, 0, 72, 94
1, 442723, Note_off_c, 0, 48, 60
1, 442728, Note_on_c, 0, 52, 54
1, 442730, Note_on_c, 0, 60, 81
1, 442733, Control_c, 0, 64, 109
1, 442740, Note_on_c, 0, 55, 64
1, 442748, Control_c, 0, 64, 113
1, 442763, Control_c, 0, 64, 119
1, 442772, Note_off_c, 0, 72, 60
1, 442773, Note_off_c, 0, 52, 52
1, 442776, Note_off_c, 0, 60, 59
1, 442777, Control_c, 0, 64, 127
1, 442779, Note_off_c, 0, 84, 60
1, 442784, Note_off_c, 0, 55, 56
1, 442834, Note_on_c, 0, 48, 69
1, 442887, Note_on_c, 0, 60, 74
1, 442898, Note_on_c, 0, 55, 63
1, 442899, Note_on_c, 0, 52, 52
1, 442914, Note_on_c, 0, 84, 92
1, 442919, Note_on_c, 0, 72, 89
1, 442921, Note_off_c, 0, 60, 61
1, 442926, Note_off_c, 0, 55, 64
1, 442931, Note_off_c, 0, 52, 62
1, 442940, Control_c, 0, 64, 97
1, 442944, Note_off_c, 0, 48, 62
1, 442955, Note_off_c, 0, 84, 66
1, 442955, Control_c, 0, 64, 69
1, 442958, Note_off_c, 0, 72, 61
1, 442970, Control_c, 0, 64, 0
1, 443021, Note_on_c, 0, 53, 99
1, 443026, Note_on_c, 0, 41, 90
1, 443027, Note_on_c, 0, 72, 100
1, 443027, Note_on_c, 0, 84, 100
1, 443028, Note_on_c, 0, 44, 86
1, 443029, Control_c, 0, 64, 59
1, 443039, Note_off_c, 0, 53, 69
1, 443044, Note_off_c, 0, 84, 69
1, 443044, Control_c, 0, 64, 80
1, 443051, Note_off_c, 0, 44, 69
1, 443057, Note_off_c, 0, 41, 63
1, 443059, Control_c, 0, 64, 95
1, 443062, Note_off_c, 0, 72, 65
1, 443074, Control_c, 0, 64, 110
1, 443089, Control_c, 0, 64, 114
1, 443178, Control_c, 0, 64, 110
1, 443190, Poly_aftertouch_c, 0, 44, 0
1, 443192, Control_c, 0, 64, 101
1, 443197, Note_on_c, 0, 72, 84
1, 443200, Note_on_c, 0, 60, 81
1, 443200, Note_on_c, 0, 65, 80
1, 443205, Note_on_c, 0, 68, 71
1, 443207, Control_c, 0, 64, 84
1, 443217, Note_off_c, 0, 72, 69
1, 443222, Note_off_c, 0, 65, 71
1, 443222, Note_off_c, 0, 68, 68
1, 443222, Control_c, 0, 64, 64
1, 443225, Note_off_c, 0, 60, 65
1, 443237, Control_c, 0, 64, 0
1, 443286, Note_on_c, 0, 60, 81
1, 443288, Note_on_c, 0, 65, 75
1, 443289, Note_on_c, 0, 72, 88
1, 443292, Note_on_c, 0, 68, 69
1, 443316, Note_off_c, 0, 68, 66
1, 443317, Note_off_c, 0, 72, 63
1, 443319, Note_off_c, 0, 65, 65
1, 443328, Note_off_c, 0, 60, 59
1, 443391, Note_on_c, 0, 72, 91
1, 443392, Note_on_c, 0, 68, 65
1, 443393, Note_on_c, 0, 60, 83
1, 443395, Note_on_c, 0, 65, 81
1, 443483, Note_on_c, 0, 56, 76
1, 443484, Note_on_c, 0, 53, 78
1, 443507, Note_off_c, 0, 65, 62
1, 443513, Note_off_c, 0, 56, 67
1, 443517, Note_off_c, 0, 53, 66
1, 443518, Note_off_c, 0, 68, 62
1, 443525, Note_off_c, 0, 72, 51
1, 443563, Note_off_c, 0, 60, 49
1, 443566, Note_on_c, 0, 56, 86
1, 443569, Note_on_c, 0, 53, 79
1, 443594, Note_off_c, 0, 56, 67
1, 443598, Note_off_c, 0, 53, 68
1, 443650, Note_on_c, 0, 52, 91
1, 443653, Note_on_c, 0, 55, 91
1, 443674, Control_c, 0, 64, 86
1, 443677, Note_off_c, 0, 52, 67
1, 443677, Note_off_c, 0, 55, 67
1, 443688, Control_c, 0, 64, 87
1, 443703, Control_c, 0, 64, 89
1, 443718, Control_c, 0, 64, 90
1, 443733, Control_c, 0, 64, 91
1, 443736, Note_on_c, 0, 67, 73
1, 443736, Note_on_c, 0, 60, 78
1, 443744, Note_on_c, 0, 64, 61
1, 443744, Note_on_c, 0, 72, 66
1, 443748, Control_c, 0, 64, 94
1, 443762, Note_off_c, 0, 72, 64
1, 443763, Control_c, 0, 64, 96
1, 443767, Note_off_c, 0, 60, 60
1, 443769, Note_off_c, 0, 64, 65
1, 443772, Note_off_c, 0, 67, 62
1, 443821, Note_on_c, 0, 60, 84
1, 443822, Control_c, 0, 64, 99
1, 443823, Note_on_c, 0, 67, 80
1, 443823, Note_on_c, 0, 72, 84
1, 443826, Note_on_c, 0, 64, 79
1, 443849, Note_off_c, 0, 64, 68
1, 443853, Note_off_c, 0, 67, 62
1, 443855, Note_off_c, 0, 72, 58
1, 443870, Note_off_c, 0, 60, 57
1, 443881, Control_c, 0, 64, 91
1, 443896, Control_c, 0, 64, 75
1, 443911, Control_c, 0, 64, 0
1, 443924, Note_on_c, 0, 72, 95
1, 443925, Note_on_c, 0, 60, 93
1, 443925, Note_on_c, 0, 70, 93
1, 443933, Note_on_c, 0, 67, 80
1, 444034, Note_on_c, 0, 58, 82
1, 444036, Note_on_c, 0, 55, 77
1, 444060, Note_off_c, 0, 58, 67
1, 444068, Note_off_c, 0, 55, 67
1, 444072, Note_off_c, 0, 67, 60
1, 444114, Note_off_c, 0, 70, 58
1, 444115, Note_on_c, 0, 58, 87
1, 444124, Note_on_c, 0, 55, 77
1, 444139, Note_off_c, 0, 60, 50
1, 444139, Note_off_c, 0, 72, 49
1, 444148, Note_off_c, 0, 55, 66
1, 444158, Note_off_c, 0, 58, 61
1, 444209, Note_on_c, 0, 56, 89
1, 444210, Note_on_c, 0, 53, 82
1, 444240, Note_off_c, 0, 53, 67
1, 444240, Note_off_c, 0, 56, 70
1, 444260, Control_c, 0, 64, 87
1, 444274, Control_c, 0, 64, 88
1, 444289, Control_c, 0, 64, 89
1, 444304, Control_c, 0, 64, 89
1, 444314, Note_on_c, 0, 72, 81
1, 444317, Note_on_c, 0, 60, 77
1, 444318, Note_on_c, 0, 68, 70
1, 444319, Note_on_c, 0, 65, 73
1, 444319, Control_c, 0, 64, 88
1, 444334, Control_c, 0, 64, 90
1, 444341, Note_off_c, 0, 72, 59
1, 444343, Note_off_c, 0, 65, 67
1, 444344, Note_off_c, 0, 68, 68
1, 444347, Note_off_c, 0, 60, 59
1, 444348, Control_c, 0, 64, 91
1, 444377, Poly_aftertouch_c, 0, 53, 0
1, 444378, Control_c, 0, 64, 91
1, 444393, Control_c, 0, 64, 92
1, 444407, Note_on_c, 0, 72, 82
1, 444407, Note_on_c, 0, 65, 73
1, 444409, Note_on_c, 0, 60, 83
1, 444411, Note_on_c, 0, 68, 74
1, 444431, Note_off_c, 0, 72, 60
1, 444435, Note_off_c, 0, 68, 68
1, 444437, Note_off_c, 0, 65, 66
1, 444437, Control_c, 0, 64, 90
1, 444442, Note_off_c, 0, 60, 55
1, 444452, Control_c, 0, 64, 82
1, 444466, Control_c, 0, 64, 68
1, 444481, Control_c, 0, 64, 0
1, 444496, Note_on_c, 0, 72, 91
1, 444502, Note_on_c, 0, 68, 71
1, 444505, Note_on_c, 0, 60, 95
1, 444508, Note_on_c, 0, 65, 83
1, 444599, Note_on_c, 0, 56, 79
1, 444601, Note_on_c, 0, 53, 77
1, 444613, Note_off_c, 0, 72, 51
1, 444624, Note_off_c, 0, 65, 62
1, 444627, Note_off_c, 0, 56, 68
1, 444634, Note_off_c, 0, 68, 61
1, 444636, Note_off_c, 0, 53, 66
1, 444684, Note_on_c, 0, 56, 82
1, 444692, Note_on_c, 0, 53, 71
1, 444712, Note_off_c, 0, 56, 70
1, 444720, Note_off_c, 0, 53, 65
1, 444739, Note_off_c, 0, 60, 46
1, 444771, Note_on_c, 0, 55, 93
1, 444772, Note_on_c, 0, 52, 88
1, 444795, Note_off_c, 0, 55, 69
1, 444797, Note_off_c, 0, 52, 69
1, 444809, Control_c, 0, 64, 82
1, 444824, Control_c, 0, 64, 86
1, 444839, Control_c, 0, 64, 88
1, 444848, Note_on_c, 0, 60, 80
1, 444850, Note_on_c, 0, 67, 76
1, 444854, Note_on_c, 0, 72, 71
1, 444854, Control_c, 0, 64, 88
1, 444856, Note_on_c, 0, 64, 70
1, 444869, Control_c, 0, 64, 88
1, 444883, Note_off_c, 0, 72, 63
1, 444884, Control_c, 0, 64, 89
1, 444884, Note_off_c, 0, 64, 67
1, 444887, Note_off_c, 0, 60, 54
1, 444893, Note_off_c, 0, 67, 61
1, 444898, Control_c, 0, 64, 90
1, 444913, Control_c, 0, 64, 91
1, 444928, Control_c, 0, 64, 91
1, 444943, Note_on_c, 0, 67, 69
1, 444946, Note_on_c, 0, 60, 77
1, 444953, Note_on_c, 0, 64, 63
1, 444960, Note_on_c, 0, 72, 66
1, 444978, Note_off_c, 0, 64, 67
1, 444979, Note_off_c, 0, 67, 65
1, 444979, Control_c, 0, 64, 87
1, 444982, Note_off_c, 0, 60, 57
1, 444983, Note_off_c, 0, 72, 66
1, 444994, Control_c, 0, 64, 78
1, 445009, Control_c, 0, 64, 66
1, 445024, Control_c, 0, 64, 0
1, 445042, Note_on_c, 0, 72, 91
1, 445045, Note_on_c, 0, 60, 90
1, 445048, Note_on_c, 0, 70, 88
1, 445051, Note_on_c, 0, 67, 80
1, 445134, Note_on_c, 0, 58, 79
1, 445138, Note_on_c, 0, 55, 72
1, 445162, Note_off_c, 0, 58, 66
1, 445173, Note_off_c, 0, 55, 64
1, 445189, Note_off_c, 0, 67, 61
1, 445220, Note_off_c, 0, 70, 61
1, 445223, Note_on_c, 0, 58, 83
1, 445226, Note_on_c, 0, 55, 73
1, 445248, Note_off_c, 0, 60, 55
1, 445251, Note_off_c, 0, 58, 65
1, 445254, Note_off_c, 0, 55, 63
1, 445279, Note_off_c, 0, 72, 57
1, 445306, Note_on_c, 0, 56, 89
1, 445308, Note_on_c, 0, 53, 82
1, 445343, Note_off_c, 0, 53, 63
1, 445358, Note_off_c, 0, 56, 63
1, 445403, Note_on_c, 0, 72, 83
1, 445405, Note_on_c, 0, 60, 86
1, 445407, Note_on_c, 0, 68, 77
1, 445417, Note_on_c, 0, 65, 60
1, 445438, Note_off_c, 0, 60, 60
1, 445439, Note_off_c, 0, 72, 59
1, 445441, Note_off_c, 0, 65, 66
1, 445441, Note_off_c, 0, 68, 64
1, 445484, Note_on_c, 0, 53, 82
1, 445485, Note_on_c, 0, 56, 85
1, 445513, Note_off_c, 0, 53, 65
1, 445515, Note_off_c, 0, 56, 67
1, 445563, Note_on_c, 0, 73, 87
1, 445565, Note_on_c, 0, 61, 89
1, 445568, Note_on_c, 0, 65, 65
1, 445570, Note_on_c, 0, 67, 75
1, 445615, Note_off_c, 0, 67, 56
1, 445619, Note_off_c, 0, 65, 49
1, 445621, Note_off_c, 0, 61, 58
1, 445627, Note_off_c, 0, 73, 58
1, 445652, Note_on_c, 0, 55, 93
1, 445656, Note_on_c, 0, 46, 86
1, 445681, Note_off_c, 0, 46, 66
1, 445698, Note_off_c, 0, 55, 61
1, 445736, Note_on_c, 0, 73, 82
1, 445739, Note_on_c, 0, 61, 90
1, 445741, Note_on_c, 0, 67, 73
1, 445752, Note_on_c, 0, 65, 74
1, 445785, Note_off_c, 0, 67, 61
1, 445791, Note_off_c, 0, 61, 60
1, 445792, Note_off_c, 0, 65, 54
1, 445800, Note_off_c, 0, 73, 59
1, 445820, Note_on_c, 0, 56, 95
1, 445830, Note_on_c, 0, 53, 68
1, 445839, Note_on_c, 0, 48, 61
1, 445859, Note_off_c, 0, 53, 63
1, 445867, Note_off_c, 0, 56, 63
1, 445876, Note_off_c, 0, 48, 59
1, 445911, Note_on_c, 0, 72, 91
1, 445915, Note_on_c, 0, 60, 85
1, 445917, Note_on_c, 0, 68, 78
1, 445924, Note_on_c, 0, 65, 65
1, 445950, Note_off_c, 0, 65, 67
1, 445960, Note_off_c, 0, 68, 54
1, 445966, Note_off_c, 0, 60, 52
1, 445969, Note_off_c, 0, 72, 59
1, 445999, Note_on_c, 0, 56, 93
1, 446013, Note_on_c, 0, 53, 68
1, 446026, Note_on_c, 0, 48, 37
1, 446040, Note_off_c, 0, 53, 65
1, 446052, Note_off_c, 0, 56, 63
1, 446055, Note_off_c, 0, 48, 58
1, 446079, Note_on_c, 0, 72, 87
1, 446084, Note_on_c, 0, 60, 88
1, 446087, Note_on_c, 0, 64, 77
1, 446090, Note_on_c, 0, 67, 73
1, 446119, Note_off_c, 0, 64, 63
1, 446130, Note_off_c, 0, 67, 56
1, 446131, Note_off_c, 0, 60, 45
1, 446144, Note_off_c, 0, 72, 57
1, 446175, Note_on_c, 0, 48, 65
1, 446175, Note_on_c, 0, 55, 83
1, 446180, Note_on_c, 0, 52, 78
1, 446204, Note_off_c, 0, 55, 67
1, 446208, Note_off_c, 0, 52, 67
1, 446215, Note_off_c, 0, 48, 64
1, 446252, Note_on_c, 0, 72, 79
1, 446255, Note_on_c, 0, 60, 77
1, 446256, Note_on_c, 0, 64, 71
1, 446258, Note_on_c, 0, 67, 70
1, 446285, Note_off_c, 0, 60, 61
1, 446290, Note_off_c, 0, 64, 62
1, 446297, Note_off_c, 0, 67, 60
1, 446303, Note_off_c, 0, 72, 57
1, 446366, Note_on_c, 0, 41, 89
1, 446366, Control_c, 0, 64, 88
1, 446368, Note_on_c, 0, 53, 97
1, 446371, Note_on_c, 0, 60, 97
1, 446374, Note_on_c, 0, 72, 98
1, 446375, Note_on_c, 0, 48, 80
1, 446375, Note_on_c, 0, 65, 88
1, 446376, Note_on_c, 0, 68, 90
1, 446377, Note_on_c, 0, 44, 83
1, 446381, Control_c, 0, 64, 105
1, 446389, Note_off_c, 0, 53, 70
1, 446394, Note_off_c, 0, 41, 65
1, 446396, Note_off_c, 0, 72, 63
1, 446396, Control_c, 0, 64, 127
1, 446397, Note_off_c, 0, 65, 69
1, 446399, Note_off_c, 0, 48, 66
1, 446404, Note_off_c, 0, 44, 66
1, 446404, Note_off_c, 0, 68, 63
1, 446406, Note_off_c, 0, 60, 62
1, 446537, Poly_aftertouch_c, 0, 41, 0
1, 446566, Control_c, 0, 64, 115
1, 446581, Control_c, 0, 64, 105
1, 446594, Note_on_c, 0, 60, 78
1, 446595, Control_c, 0, 64, 93
1, 446601, Note_on_c, 0, 56, 73
1, 446604, Note_on_c, 0, 48, 64
1, 446608, Note_on_c, 0, 53, 70
1, 446610, Control_c, 0, 64, 80
1, 446625, Control_c, 0, 64, 65
1, 446627, Note_off_c, 0, 60, 60
1, 446632, Note_off_c, 0, 56, 66
1, 446634, Note_off_c, 0, 48, 64
1, 446634, Note_off_c, 0, 53, 65
1, 446640, Control_c, 0, 64, 0
1, 446690, Note_on_c, 0, 53, 76
1, 446690, Note_on_c, 0, 48, 82
1, 446692, Note_on_c, 0, 56, 71
1, 446693, Note_on_c, 0, 60, 85
1, 446722, Note_off_c, 0, 48, 62
1, 446724, Note_off_c, 0, 60, 61
1, 446726, Note_off_c, 0, 53, 64
1, 446726, Note_off_c, 0, 56, 67
1, 446786, Note_on_c, 0, 56, 79
1, 446788, Note_on_c, 0, 60, 93
1, 446789, Note_on_c, 0, 53, 81
1, 446790, Note_on_c, 0, 48, 88
1, 446886, Note_on_c, 0, 44, 79
1, 446890, Note_on_c, 0, 41, 75
1, 446897, Note_off_c, 0, 60, 44
1, 446913, Note_off_c, 0, 44, 65
1, 446916, Note_off_c, 0, 53, 62
1, 446918, Note_off_c, 0, 41, 64
1, 446929, Note_off_c, 0, 56, 60
1, 446967, Note_on_c, 0, 44, 82
1, 446972, Note_on_c, 0, 41, 83
1, 446994, Note_off_c, 0, 44, 68
1, 446999, Note_off_c, 0, 48, 28
1, 447003, Note_off_c, 0, 41, 66
1, 447059, Note_on_c, 0, 40, 89
1, 447059, Note_on_c, 0, 43, 95
1, 447083, Note_off_c, 0, 43, 65
1, 447084, Control_c, 0, 64, 64
1, 447085, Note_off_c, 0, 40, 69
1, 447099, Control_c, 0, 64, 86
1, 447114, Control_c, 0, 64, 91
1, 447129, Control_c, 0, 64, 93
1, 447147, Note_on_c, 0, 55, 78
1, 447149, Note_on_c, 0, 48, 70
1, 447154, Note_on_c, 0, 52, 70
1, 447155, Note_on_c, 0, 60, 65
1, 447174, Control_c, 0, 64, 93
1, 447175, Note_off_c, 0, 60, 64
1, 447179, Note_off_c, 0, 52, 63
1, 447181, Note_off_c, 0, 48, 63
1, 447182, Note_off_c, 0, 55, 65
1, 447186, Note_on_c, 0, 43, 3
1, 447204, Control_c, 0, 64, 94
1, 447226, Control_c, 0, 64, 94
1, 447227, Note_off_c, 0, 43, 27
1, 447241, Control_c, 0, 64, 95
1, 447242, Note_on_c, 0, 48, 85
1, 447245, Note_on_c, 0, 52, 76
1, 447245, Note_on_c, 0, 60, 78
1, 447248, Note_on_c, 0, 55, 73
1, 447275, Note_off_c, 0, 52, 62
1, 447277, Note_off_c, 0, 55, 64
1, 447281, Note_off_c, 0, 60, 61
1, 447286, Control_c, 0, 64, 90
1, 447290, Note_off_c, 0, 48, 58
1, 447300, Control_c, 0, 64, 73
1, 447315, Control_c, 0, 64, 0
1, 447339, Note_on_c, 0, 60, 95
1, 447341, Note_on_c, 0, 48, 91
1, 447343, Note_on_c, 0, 58, 86
1, 447344, Note_on_c, 0, 55, 79
1, 447448, Note_on_c, 0, 43, 79
1, 447450, Note_on_c, 0, 46, 76
1, 447474, Note_off_c, 0, 46, 65
1, 447484, Note_off_c, 0, 43, 63
1, 447489, Note_off_c, 0, 55, 60
1, 447529, Note_on_c, 0, 46, 84
1, 447534, Note_on_c, 0, 43, 83
1, 447544, Note_off_c, 0, 58, 59
1, 447559, Note_off_c, 0, 46, 66
1, 447561, Note_off_c, 0, 43, 62
1, 447564, Note_off_c, 0, 48, 54
1, 447569, Note_off_c, 0, 60, 55
1, 447617, Note_on_c, 0, 44, 92
1, 447623, Note_on_c, 0, 41, 85
1, 447643, Note_off_c, 0, 44, 69
1, 447644, Note_off_c, 0, 41, 67
1, 447671, Control_c, 0, 64, 78
1, 447685, Control_c, 0, 64, 90
1, 447700, Control_c, 0, 64, 94
1, 447716, Note_on_c, 0, 48, 77
1, 447717, Note_on_c, 0, 60, 77
1, 447718, Note_on_c, 0, 56, 74
1, 447719, Note_on_c, 0, 53, 74
1, 447730, Control_c, 0, 64, 94
1, 447745, Control_c, 0, 64, 94
1, 447747, Note_off_c, 0, 48, 64
1, 447748, Note_off_c, 0, 56, 66
1, 447748, Note_off_c, 0, 60, 61
1, 447749, Note_off_c, 0, 53, 66
1, 447811, Note_on_c, 0, 60, 80
1, 447813, Note_on_c, 0, 53, 79
1, 447814, Note_on_c, 0, 48, 74
1, 447814, Note_on_c, 0, 56, 67
1, 447818, Control_c, 0, 64, 93
1, 447833, Control_c, 0, 64, 86
1, 447841, Note_off_c, 0, 60, 57
1, 447843, Note_off_c, 0, 56, 67
1, 447844, Note_off_c, 0, 53, 66
1, 447847, Note_off_c, 0, 48, 65
1, 447848, Control_c, 0, 64, 73
1, 447863, Control_c, 0, 64, 0
1, 447907, Note_on_c, 0, 60, 90
1, 447912, Note_on_c, 0, 56, 75
1, 447915, Note_on_c, 0, 48, 91
1, 447917, Note_on_c, 0, 53, 86
1, 448023, Note_on_c, 0, 41, 79
1, 448024, Note_on_c, 0, 44, 73
1, 448044, Note_off_c, 0, 53, 60
1, 448047, Note_off_c, 0, 44, 67
1, 448053, Note_off_c, 0, 41, 61
1, 448053, Note_off_c, 0, 56, 62
1, 448055, Note_off_c, 0, 60, 50
1, 448102, Note_off_c, 0, 48, 52
1, 448103, Note_on_c, 0, 44, 89
1, 448105, Note_on_c, 0, 41, 87
1, 448136, Note_off_c, 0, 41, 66
1, 448136, Note_off_c, 0, 44, 63
1, 448193, Note_on_c, 0, 43, 94
1, 448194, Note_on_c, 0, 40, 86
1, 448213, Note_on_c, 0, 41, 54
1, 448218, Note_off_c, 0, 43, 69
1, 448221, Note_off_c, 0, 40, 64
1, 448227, Control_c, 0, 64, 83
1, 448241, Control_c, 0, 64, 90
1, 448249, Note_off_c, 0, 41, 33
1, 448256, Control_c, 0, 64, 94
1, 448271, Control_c, 0, 64, 94
1, 448273, Note_on_c, 0, 55, 74
1, 448275, Note_on_c, 0, 48, 74
1, 448279, Note_on_c, 0, 60, 65
1, 448285, Note_on_c, 0, 52, 61
1, 448301, Control_c, 0, 64, 96
1, 448306, Note_off_c, 0, 48, 62
1, 448306, Note_off_c, 0, 60, 61
1, 448312, Note_off_c, 0, 55, 62
1, 448314, Note_off_c, 0, 52, 62
1, 448361, Note_on_c, 0, 48, 80
1, 448364, Note_on_c, 0, 55, 71
1, 448366, Note_on_c, 0, 60, 73
1, 448371, Note_on_c, 0, 52, 73
1, 448374, Control_c, 0, 64, 94
1, 448389, Control_c, 0, 64, 88
1, 448396, Note_off_c, 0, 60, 62
1, 448397, Note_off_c, 0, 55, 65
1, 448399, Note_off_c, 0, 52, 64
1, 448404, Control_c, 0, 64, 78
1, 448406, Note_off_c, 0, 48, 53
1, 448419, Control_c, 0, 64, 67
1, 448434, Control_c, 0, 64, 0
1, 448458, Note_on_c, 0, 60, 85
1, 448464, Note_on_c, 0, 48, 84
1, 448464, Note_on_c, 0, 58, 80
1, 448466, Note_on_c, 0, 55, 72
1, 448554, Note_on_c, 0, 46, 71
1, 448555, Note_on_c, 0, 43, 74
1, 448580, Note_off_c, 0, 46, 64
1, 448586, Note_off_c, 0, 43, 61
1, 448597, Note_off_c, 0, 55, 61
1, 448622, Note_off_c, 0, 58, 61
1, 448637, Note_on_c, 0, 46, 84
1, 448640, Note_on_c, 0, 43, 85
1, 448644, Note_off_c, 0, 60, 55
1, 448658, Note_off_c, 0, 48, 55
1, 448669, Note_off_c, 0, 46, 65
1, 448671, Note_off_c, 0, 43, 67
1, 448735, Note_on_c, 0, 44, 86
1, 448736, Note_on_c, 0, 41, 84
1, 448775, Note_off_c, 0, 41, 61
1, 448788, Note_off_c, 0, 44, 62
1, 448830, Note_on_c, 0, 48, 81
1, 448831, Note_on_c, 0, 60, 75
1, 448832, Note_on_c, 0, 56, 69
1, 448834, Note_on_c, 0, 53, 66
1, 448863, Note_off_c, 0, 48, 66
1, 448867, Note_off_c, 0, 60, 60
1, 448868, Note_off_c, 0, 53, 61
1, 448869, Note_off_c, 0, 56, 65
1, 448902, Note_on_c, 0, 41, 71
1, 448911, Note_on_c, 0, 44, 81
1, 448938, Note_off_c, 0, 41, 65
1, 448938, Note_off_c, 0, 44, 68
1, 448991, Note_on_c, 0, 61, 80
1, 448993, Note_on_c, 0, 49, 86
1, 448994, Note_on_c, 0, 53, 63
1, 448997, Note_on_c, 0, 55, 71
1, 449033, Note_off_c, 0, 49, 58
1, 449038, Note_off_c, 0, 53, 59
1, 449050, Note_off_c, 0, 55, 58
1, 449061, Note_off_c, 0, 61, 59
1, 449067, Note_on_c, 0, 43, 97
1, 449071, Note_on_c, 0, 34, 89
1, 449102, Note_off_c, 0, 34, 65
1, 449120, Note_off_c, 0, 43, 63
1, 449159, Note_on_c, 0, 61, 82
1, 449162, Note_on_c, 0, 49, 85
1, 449165, Note_on_c, 0, 55, 71
1, 449172, Note_on_c, 0, 53, 67
1, 449202, Note_off_c, 0, 49, 61
1, 449210, Note_off_c, 0, 55, 59
1, 449234, Note_off_c, 0, 53, 48
1, 449238, Note_off_c, 0, 61, 58
1, 449239, Note_on_c, 0, 44, 96
1, 449245, Note_on_c, 0, 36, 79
1, 449248, Note_on_c, 0, 41, 74
1, 449285, Note_off_c, 0, 36, 58
1, 449298, Note_off_c, 0, 41, 57
1, 449299, Note_off_c, 0, 44, 60
1, 449337, Note_on_c, 0, 60, 83
1, 449342, Note_on_c, 0, 48, 82
1, 449342, Note_on_c, 0, 56, 74
1, 449347, Note_on_c, 0, 53, 70
1, 449381, Note_off_c, 0, 48, 60
1, 449382, Note_off_c, 0, 56, 57
1, 449384, Note_off_c, 0, 53, 63
1, 449392, Note_off_c, 0, 60, 59
1, 449405, Note_on_c, 0, 44, 84
1, 449418, Note_on_c, 0, 37, 65
1, 449424, Note_on_c, 0, 41, 63
1, 449446, Note_off_c, 0, 37, 56
1, 449448, Note_off_c, 0, 44, 56
1, 449465, Note_off_c, 0, 41, 62
1, 449507, Note_on_c, 0, 60, 88
1, 449508, Note_on_c, 0, 48, 86
1, 449513, Note_on_c, 0, 52, 78
1, 449513, Note_on_c, 0, 55, 74
1, 449575, Note_off_c, 0, 55, 46
1, 449576, Note_off_c, 0, 48, 60
1, 449581, Note_off_c, 0, 60, 58
1, 449589, Note_on_c, 0, 43, 87
1, 449592, Note_off_c, 0, 52, 52
1, 449597, Note_on_c, 0, 34, 80
1, 449599, Note_on_c, 0, 40, 75
1, 449628, Note_off_c, 0, 40, 65
1, 449636, Note_off_c, 0, 34, 56
1, 449650, Control_c, 0, 64, 50
1, 449654, Note_off_c, 0, 43, 61
1, 449665, Control_c, 0, 64, 67
1, 449676, Note_on_c, 0, 48, 83
1, 449678, Note_on_c, 0, 60, 85
1, 449680, Note_on_c, 0, 52, 69
1, 449680, Control_c, 0, 64, 72
1, 449687, Note_on_c, 0, 55, 70
1, 449695, Control_c, 0, 64, 73
1, 449697, Note_off_c, 0, 48, 67
1, 449707, Note_off_c, 0, 52, 63
1, 449719, Note_off_c, 0, 55, 63
1, 449725, Control_c, 0, 64, 69
1, 449737, Note_off_c, 0, 60, 62
1, 449740, Control_c, 0, 64, 23
1, 449755, Control_c, 0, 64, 0
1, 449767, Note_on_c, 0, 44, 88
1, 449771, Note_on_c, 0, 36, 76
1, 449771, Note_on_c, 0, 41, 80
1, 449780, Note_on_c, 0, 32, 72
1, 449824, Note_off_c, 0, 41, 57
1, 449838, Note_off_c, 0, 44, 62
1, 449843, Control_c, 0, 64, 63
1, 449844, Note_off_c, 0, 32, 61
1, 449845, Note_off_c, 0, 36, 59
1, 449850, Note_on_c, 0, 60, 90
1, 449852, Note_on_c, 0, 72, 91
1, 449855, Note_on_c, 0, 68, 81
1, 449856, Note_on_c, 0, 65, 80
1, 449858, Control_c, 0, 64, 72
1, 449873, Control_c, 0, 64, 78
1, 449879, Note_off_c, 0, 65, 67
1, 449885, Note_off_c, 0, 60, 58
1, 449887, Control_c, 0, 64, 83
1, 449902, Control_c, 0, 64, 83
1, 449917, Note_off_c, 0, 72, 57
1, 449917, Control_c, 0, 64, 81
1, 449928, Note_off_c, 0, 68, 57
1, 449931, Control_c, 0, 64, 73
1, 449934, Note_on_c, 0, 44, 93
1, 449937, Note_on_c, 0, 41, 81
1, 449943, Note_on_c, 0, 32, 81
1, 449946, Control_c, 0, 64, 0
1, 449962, Note_off_c, 0, 41, 64
1, 449977, Note_off_c, 0, 32, 65
1, 449989, Note_off_c, 0, 44, 60
1, 450014, Note_on_c, 0, 73, 89
1, 450017, Note_on_c, 0, 61, 88
1, 450020, Control_c, 0, 64, 66
1, 450021, Note_on_c, 0, 65, 22
1, 450029, Note_on_c, 0, 67, 72
1, 450035, Control_c, 0, 64, 76
1, 450050, Control_c, 0, 64, 83
1, 450065, Control_c, 0, 64, 89
1, 450080, Control_c, 0, 64, 90
1, 450080, Note_on_c, 0, 70, 12
1, 450086, Note_off_c, 0, 61, 61
1, 450091, Note_off_c, 0, 73, 61
1, 450094, Control_c, 0, 64, 89
1, 450100, Note_on_c, 0, 43, 76
1, 450100, Note_on_c, 0, 46, 101
1, 450103, Note_on_c, 0, 41, 13
1, 450107, Note_off_c, 0, 67, 54
1, 450109, Control_c, 0, 64, 82
1, 450111, Note_on_c, 0, 34, 80
1, 450124, Control_c, 0, 64, 69
1, 450126, Note_off_c, 0, 70, 37
1, 450139, Note_off_c, 0, 65, 40
1, 450139, Control_c, 0, 64, 0
1, 450155, Note_off_c, 0, 34, 62
1, 450166, Note_off_c, 0, 46, 59
1, 450166, Note_off_c, 0, 43, 60
1, 450186, Note_on_c, 0, 61, 95
1, 450186, Note_on_c, 0, 73, 87
1, 450189, Note_off_c, 0, 41, 57
1, 450190, Note_on_c, 0, 67, 76
1, 450193, Note_on_c, 0, 65, 72
1, 450199, Control_c, 0, 64, 72
1, 450220, Control_c, 0, 64, 82
1, 450233, Note_on_c, 0, 70, 34
1, 450235, Control_c, 0, 64, 89
1, 450250, Control_c, 0, 64, 90
1, 450252, Note_off_c, 0, 61, 61
1, 450265, Control_c, 0, 64, 86
1, 450266, Note_off_c, 0, 70, 47
1, 450272, Note_off_c, 0, 67, 59
1, 450278, Note_on_c, 0, 48, 100
1, 450280, Control_c, 0, 64, 75
1, 450287, Note_on_c, 0, 36, 82
1, 450287, Note_off_c, 0, 73, 59
1, 450290, Note_on_c, 0, 44, 71
1, 450294, Control_c, 0, 64, 0
1, 450298, Note_on_c, 0, 41, 67
1, 450303, Note_off_c, 0, 65, 56
1, 450350, Note_off_c, 0, 41, 50
1, 450354, Note_off_c, 0, 48, 57
1, 450359, Note_off_c, 0, 36, 60
1, 450380, Note_on_c, 0, 72, 92
1, 450380, Note_off_c, 0, 44, 54
1, 450381, Note_on_c, 0, 60, 91
1, 450384, Note_on_c, 0, 68, 80
1, 450384, Control_c, 0, 64, 73
1, 450387, Note_on_c, 0, 65, 74
1, 450399, Control_c, 0, 64, 82
1, 450414, Control_c, 0, 64, 86
1, 450425, Note_off_c, 0, 65, 55
1, 450429, Control_c, 0, 64, 85
1, 450440, Note_off_c, 0, 72, 57
1, 450441, Note_off_c, 0, 60, 56
1, 450443, Note_on_c, 0, 48, 95
1, 450443, Control_c, 0, 64, 76
1, 450456, Note_on_c, 0, 36, 78
1, 450456, Note_on_c, 0, 41, 71
1, 450458, Note_on_c, 0, 44, 65
1, 450458, Control_c, 0, 64, 60
1, 450473, Note_off_c, 0, 68, 57
1, 450473, Control_c, 0, 64, 0
1, 450484, Note_off_c, 0, 41, 65
1, 450489, Note_off_c, 0, 48, 62
1, 450491, Note_off_c, 0, 36, 64
1, 450491, Note_off_c, 0, 44, 65
1, 450533, Control_c, 0, 64, 64
1, 450538, Note_on_c, 0, 60, 96
1, 450538, Note_on_c, 0, 72, 92
1, 450544, Note_on_c, 0, 67, 79
1, 450547, Note_on_c, 0, 64, 77
1, 450548, Control_c, 0, 64, 75
1, 450562, Control_c, 0, 64, 82
1, 450577, Control_c, 0, 64, 87
1, 450592, Control_c, 0, 64, 88
1, 450607, Control_c, 0, 64, 84
1, 450613, Note_off_c, 0, 60, 56
1, 450616, Note_on_c, 0, 40, 68
1, 450619, Note_on_c, 0, 46, 95
1, 450621, Note_off_c, 0, 72, 57
1, 450622, Control_c, 0, 64, 74
1, 450623, Note_on_c, 0, 43, 78
1, 450629, Note_off_c, 0, 67, 51
1, 450636, Note_on_c, 0, 34, 67
1, 450636, Control_c, 0, 64, 0
1, 450642, Note_off_c, 0, 64, 58
1, 450653, Note_off_c, 0, 43, 64
1, 450664, Note_off_c, 0, 46, 57
1, 450668, Note_off_c, 0, 40, 64
1, 450677, Note_off_c, 0, 34, 63
1, 450696, Control_c, 0, 64, 72
1, 450709, Note_on_c, 0, 60, 88
1, 450710, Control_c, 0, 64, 82
1, 450714, Note_on_c, 0, 72, 87
1, 450717, Note_on_c, 0, 64, 71
1, 450720, Note_on_c, 0, 67, 78
1, 450725, Control_c, 0, 64, 92
1, 450735, Note_off_c, 0, 60, 65
1, 450740, Control_c, 0, 64, 100
1, 450743, Note_off_c, 0, 64, 67
1, 450750, Note_off_c, 0, 67, 64
1, 450754, Control_c, 0, 64, 103
1, 450776, Note_off_c, 0, 72, 62
1, 450784, Control_c, 0, 64, 97
1, 450799, Control_c, 0, 64, 83
1, 450807, Note_on_c, 0, 44, 98
1, 450811, Note_on_c, 0, 36, 80
1, 450814, Note_on_c, 0, 32, 83
1, 450814, Control_c, 0, 64, 66
1, 450824, Poly_aftertouch_c, 0, 41, 127
1, 450829, Control_c, 0, 64, 0
1, 450884, Note_off_c, 0, 44, 62
1, 450888, Control_c, 0, 64, 23
1, 450890, Note_on_c, 0, 84, 96
1, 450890, Note_off_c, 0, 32, 62
1, 450890, Note_on_c, 0, 72, 93
1, 450894, Note_on_c, 0, 80, 88
1, 450898, Note_on_c, 0, 77, 77
1, 450903, Control_c, 0, 64, 72
1, 450908, Note_off_c, 0, 36, 62
1, 450918, Control_c, 0, 64, 83
1, 450925, Poly_aftertouch_c, 0, 41, 0
1, 450925, Note_off_c, 0, 77, 61
1, 450933, Control_c, 0, 64, 93
1, 450948, Control_c, 0, 64, 100
1, 450949, Note_off_c, 0, 72, 57
1, 450964, Note_off_c, 0, 84, 60
1, 450974, Note_on_c, 0, 44, 96
1, 450976, Note_on_c, 0, 41, 63
1, 450985, Note_on_c, 0, 32, 81
1, 450995, Note_off_c, 0, 80, 57
1, 451000, Control_c, 0, 64, 88
1, 451006, Note_off_c, 0, 41, 63
1, 451011, Note_off_c, 0, 32, 66
1, 451015, Control_c, 0, 64, 72
1, 451030, Control_c, 0, 64, 0
1, 451036, Note_off_c, 0, 44, 58
1, 451063, Note_on_c, 0, 85, 94
1, 451065, Note_on_c, 0, 77, 24
1, 451067, Note_on_c, 0, 73, 96
1, 451071, Note_on_c, 0, 79, 82
1, 451089, Control_c, 0, 64, 72
1, 451104, Control_c, 0, 64, 82
1, 451117, Note_on_c, 0, 82, 13
1, 451118, Control_c, 0, 64, 93
1, 451133, Control_c, 0, 64, 99
1, 451139, Note_off_c, 0, 73, 63
1, 451141, Note_on_c, 0, 41, 6
1, 451145, Note_off_c, 0, 82, 0
1, 451147, Note_on_c, 0, 46, 98
1, 451147, Note_off_c, 0, 85, 62
1, 451147, Note_on_c, 0, 43, 69
1, 451156, Note_on_c, 0, 34, 85
1, 451165, Poly_aftertouch_c, 0, 82, 0
1, 451173, Note_off_c, 0, 79, 56
1, 451179, Control_c, 0, 64, 86
1, 451187, Note_off_c, 0, 77, 57
1, 451193, Control_c, 0, 64, 71
1, 451202, Note_off_c, 0, 34, 61
1, 451208, Control_c, 0, 64, 0
1, 451219, Note_off_c, 0, 46, 61
1, 451221, Note_off_c, 0, 43, 58
1, 451239, Note_on_c, 0, 85, 93
1, 451239, Note_on_c, 0, 73, 102
1, 451243, Note_on_c, 0, 77, 79
1, 451247, Note_on_c, 0, 79, 77
1, 451253, Control_c, 0, 64, 63
1, 451257, Note_off_c, 0, 41, 46
1, 451267, Control_c, 0, 64, 77
1, 451282, Control_c, 0, 64, 89
1, 451297, Control_c, 0, 64, 106
1, 451312, Control_c, 0, 64, 122
1, 451319, Note_off_c, 0, 73, 61
1, 451322, Note_on_c, 0, 48, 99
1, 451322, Poly_aftertouch_c, 0, 82, 127
1, 451326, Note_on_c, 0, 36, 87
1, 451332, Note_on_c, 0, 41, 66
1, 451334, Note_off_c, 0, 79, 60
1, 451334, Note_on_c, 0, 44, 79
1, 451341, Control_c, 0, 64, 102
1, 451343, Note_off_c, 0, 85, 60
1, 451349, Poly_aftertouch_c, 0, 82, 0
1, 451356, Control_c, 0, 64, 81
1, 451361, Note_on_c, 0, 39, 36
1, 451371, Control_c, 0, 64, 66
1, 451373, Note_off_c, 0, 77, 51
1, 451385, Control_c, 0, 64, 0
1, 451386, Note_off_c, 0, 36, 59
1, 451386, Note_off_c, 0, 41, 57
1, 451395, Note_off_c, 0, 39, 35
1, 451401, Note_off_c, 0, 48, 57
1, 451412, Note_off_c, 0, 44, 49
1, 451423, Note_on_c, 0, 84, 92
1, 451424, Note_on_c, 0, 77, 80
1, 451427, Note_on_c, 0, 72, 91
1, 451428, Note_on_c, 0, 80, 84
1, 451430, Control_c, 0, 64, 66
1, 451445, Control_c, 0, 64, 80
1, 451460, Control_c, 0, 64, 98
1, 451475, Control_c, 0, 64, 127
1, 451504, Note_on_c, 0, 48, 90
1, 451504, Note_off_c, 0, 84, 59
1, 451514, Note_on_c, 0, 41, 77
1, 451514, Note_on_c, 0, 44, 80
1, 451516, Note_off_c, 0, 72, 57
1, 451516, Note_on_c, 0, 36, 74
1, 451519, Note_off_c, 0, 77, 56
1, 451528, Poly_aftertouch_c, 0, 82, 0
1, 451534, Control_c, 0, 64, 108
1, 451542, Note_off_c, 0, 44, 65
1, 451544, Note_off_c, 0, 80, 61
1, 451548, Note_off_c, 0, 36, 60
1, 451549, Control_c, 0, 64, 83
1, 451551, Note_off_c, 0, 41, 61
1, 451564, Control_c, 0, 64, 66
1, 451567, Note_off_c, 0, 48, 55
1, 451578, Control_c, 0, 64, 0
1, 451592, Note_on_c, 0, 76, 88
1, 451595, Note_on_c, 0, 84, 95
1, 451597, Note_on_c, 0, 72, 97
1, 451598, Note_on_c, 0, 79, 81
1, 451667, Control_c, 0, 64, 65
1, 451682, Control_c, 0, 64, 77
1, 451685, Note_off_c, 0, 79, 59
1, 451689, Note_off_c, 0, 72, 56
1, 451692, Note_off_c, 0, 84, 58
1, 451693, Note_on_c, 0, 48, 89
1, 451697, Control_c, 0, 64, 86
1, 451698, Note_on_c, 0, 36, 81
1, 451701, Note_on_c, 0, 40, 83
1, 451703, Note_on_c, 0, 43, 84
1, 451713, Note_off_c, 0, 76, 47
1, 451719, Control_c, 0, 64, 94
1, 451734, Control_c, 0, 64, 99
1, 451735, Note_off_c, 0, 48, 64
1, 451741, Note_off_c, 0, 43, 63
1, 451749, Control_c, 0, 64, 105
1, 451761, Note_off_c, 0, 40, 65
1, 451764, Control_c, 0, 64, 116
1, 451773, Note_off_c, 0, 36, 64
1, 451779, Control_c, 0, 64, 127
1, 451800, Note_on_c, 0, 84, 88
1, 451804, Note_on_c, 0, 79, 83
1, 451805, Note_on_c, 0, 72, 92
1, 451809, Note_on_c, 0, 76, 81
1, 451817, Note_off_c, 0, 84, 70
1, 451826, Note_off_c, 0, 79, 68
1, 451830, Note_off_c, 0, 76, 67
1, 451850, Note_off_c, 0, 72, 63
1, 451897, Control_c, 0, 64, 110
1, 451911, Control_c, 0, 64, 78
1, 451926, Control_c, 0, 64, 0
1, 451981, Note_on_c, 0, 41, 101
1, 451985, Note_on_c, 0, 29, 91
1, 451990, Note_on_c, 0, 60, 89
1, 452012, Note_off_c, 0, 29, 69
1, 452016, Control_c, 0, 64, 64
1, 452020, Note_off_c, 0, 41, 65
1, 452031, Control_c, 0, 64, 91
1, 452046, Control_c, 0, 64, 127
1, 452067, Note_off_c, 0, 60, 60
1, 452097, Note_on_c, 0, 56, 54
1, 452133, Note_off_c, 0, 56, 65
1, 452152, Note_on_c, 0, 60, 62
1, 452216, Note_off_c, 0, 60, 58
1, 452226, Note_on_c, 0, 56, 49
1, 452282, Note_off_c, 0, 56, 56
1, 452285, Note_on_c, 0, 60, 53
1, 452322, Note_on_c, 0, 68, 69
1, 452364, Note_off_c, 0, 60, 56
1, 452381, Note_on_c, 0, 56, 52
1, 452420, Note_off_c, 0, 56, 63
1, 452431, Note_on_c, 0, 60, 56
1, 452505, Note_off_c, 0, 60, 58
1, 452511, Note_on_c, 0, 56, 62
1, 452538, Note_on_c, 0, 72, 71
1, 452573, Note_off_c, 0, 56, 62
1, 452584, Note_on_c, 0, 60, 55
1, 452584, Note_off_c, 0, 68, 63
1, 452612, Note_off_c, 0, 72, 61
1, 452613, Note_on_c, 0, 77, 80
1, 452646, Note_off_c, 0, 60, 58
1, 452667, Note_on_c, 0, 56, 56
1, 452707, Note_off_c, 0, 56, 62
1, 452724, Note_on_c, 0, 60, 54
1, 452765, Note_off_c, 0, 60, 57
1, 452795, Note_on_c, 0, 56, 59
1, 452837, Note_off_c, 0, 56, 63
1, 452864, Note_on_c, 0, 60, 58
1, 452892, Note_on_c, 0, 80, 77
1, 452904, Note_off_c, 0, 77, 60
1, 452914, Note_off_c, 0, 60, 57
1, 452934, Note_on_c, 0, 56, 56
1, 452983, Note_off_c, 0, 56, 62
1, 453001, Note_on_c, 0, 60, 54
1, 453078, Note_off_c, 0, 60, 58
1, 453095, Note_on_c, 0, 56, 55
1, 453103, Note_on_c, 0, 84, 72
1, 453111, Note_off_c, 0, 80, 63
1, 453147, Note_off_c, 0, 56, 62
1, 453162, Note_on_c, 0, 60, 59
1, 453185, Note_on_c, 0, 89, 84
1, 453229, Note_off_c, 0, 60, 57
1, 453251, Note_on_c, 0, 56, 57
1, 453280, Note_off_c, 0, 89, 63
1, 453295, Note_off_c, 0, 56, 62
1, 453298, Note_off_c, 0, 84, 62
1, 453318, Note_on_c, 0, 60, 50
1, 453359, Note_off_c, 0, 60, 58
1, 453397, Note_on_c, 0, 56, 42
1, 453421, Note_off_c, 0, 56, 63
1, 453446, Note_on_c, 0, 60, 55
1, 453490, Note_on_c, 0, 84, 66
1, 453492, Note_off_c, 0, 60, 57
1, 453511, Note_on_c, 0, 56, 47
1, 453592, Note_off_c, 0, 56, 56
1, 453597, Note_on_c, 0, 60, 49
1, 453671, Note_off_c, 0, 60, 58
1, 453690, Note_on_c, 0, 56, 46
1, 453695, Note_on_c, 0, 80, 61
1, 453728, Note_off_c, 0, 56, 64
1, 453741, Note_on_c, 0, 60, 46
1, 453766, Note_off_c, 0, 84, 58
1, 453782, Note_on_c, 0, 77, 63
1, 453794, Note_off_c, 0, 60, 60
1, 453820, Note_on_c, 0, 56, 56
1, 453853, Note_off_c, 0, 80, 60
1, 453862, Note_off_c, 0, 56, 61
1, 453891, Note_on_c, 0, 60, 51
1, 453909, Note_off_c, 0, 77, 61
1, 453925, Note_off_c, 0, 60, 60
1, 453967, Note_on_c, 0, 56, 46
1, 454006, Note_off_c, 0, 56, 55
1, 454013, Note_on_c, 0, 60, 56
1, 454066, Note_off_c, 0, 60, 54
1, 454076, Note_on_c, 0, 72, 61
1, 454104, Poly_aftertouch_c, 0, 56, 127
1, 454132, Poly_aftertouch_c, 0, 56, 0
1, 454166, Note_on_c, 0, 60, 43
1, 454192, Note_off_c, 0, 60, 59
1, 454240, Note_on_c, 0, 56, 40
1, 454267, Note_off_c, 0, 56, 57
1, 454271, Note_on_c, 0, 68, 57
1, 454281, Note_on_c, 0, 60, 51
1, 454335, Note_off_c, 0, 60, 54
1, 454351, Note_off_c, 0, 72, 58
1, 454364, Note_on_c, 0, 56, 43
1, 454368, Note_on_c, 0, 65, 60
1, 454390, Note_off_c, 0, 56, 58
1, 454402, Note_off_c, 0, 68, 62
1, 454423, Note_on_c, 0, 60, 45
1, 454431, Note_off_c, 0, 65, 64
1, 454467, Note_off_c, 0, 60, 57
1, 454480, Note_on_c, 0, 56, 54
1, 454518, Note_off_c, 0, 56, 66
1, 454572, Note_on_c, 0, 60, 30
1, 454601, Note_off_c, 0, 60, 53
1, 454675, Note_on_c, 0, 60, 71
1, 454679, Note_on_c, 0, 68, 49
1, 454730, Note_off_c, 0, 68, 60
1, 454776, Note_on_c, 0, 65, 48
1, 454810, Note_off_c, 0, 65, 64
1, 454832, Note_on_c, 0, 68, 50
1, 454862, Note_off_c, 0, 68, 62
1, 454904, Note_on_c, 0, 65, 52
1, 454920, Note_on_c, 0, 56, 58
1, 454935, Note_off_c, 0, 65, 59
1, 454947, Note_on_c, 0, 68, 57
1, 454997, Note_off_c, 0, 68, 60
1, 455003, Note_off_c, 0, 60, 54
1, 455017, Note_on_c, 0, 72, 54
1, 455025, Note_on_c, 0, 53, 65
1, 455059, Note_off_c, 0, 72, 60
1, 455096, Note_on_c, 0, 68, 51
1, 455107, Note_off_c, 0, 56, 61
1, 455126, Note_off_c, 0, 68, 57
1, 455154, Note_on_c, 0, 72, 56
1, 455165, Note_off_c, 0, 53, 63
1, 455181, Note_off_c, 0, 72, 61
1, 455220, Note_on_c, 0, 68, 51
1, 455249, Note_off_c, 0, 68, 55
1, 455266, Note_on_c, 0, 72, 58
1, 455306, Note_off_c, 0, 72, 58
1, 455324, Note_on_c, 0, 48, 60
1, 455341, Note_on_c, 0, 68, 50
1, 455368, Note_off_c, 0, 68, 58
1, 455409, Note_on_c, 0, 72, 47
1, 455435, Note_off_c, 0, 72, 56
1, 455469, Note_on_c, 0, 68, 53
1, 455509, Note_off_c, 0, 68, 57
1, 455537, Note_on_c, 0, 72, 51
1, 455562, Note_off_c, 0, 72, 57
1, 455565, Note_on_c, 0, 44, 52
1, 455614, Note_on_c, 0, 68, 37
1, 455642, Note_off_c, 0, 68, 48
1, 455662, Note_on_c, 0, 72, 50
1, 455667, Note_off_c, 0, 48, 56
1, 455675, Note_on_c, 0, 41, 59
1, 455687, Note_off_c, 0, 72, 57
1, 455725, Note_on_c, 0, 68, 49
1, 455746, Note_off_c, 0, 44, 60
1, 455754, Note_off_c, 0, 68, 58
1, 455791, Note_on_c, 0, 72, 49
1, 455810, Note_off_c, 0, 41, 61
1, 455817, Note_off_c, 0, 72, 57
1, 455854, Note_on_c, 0, 68, 48
1, 455882, Note_off_c, 0, 68, 57
1, 455909, Note_on_c, 0, 72, 53
1, 455952, Note_off_c, 0, 72, 58
1, 455977, Note_on_c, 0, 68, 50
1, 456000, Note_on_c, 0, 36, 49
1, 456015, Note_off_c, 0, 68, 59
1, 456049, Note_on_c, 0, 72, 51
1, 456074, Note_off_c, 0, 72, 56
1, 456109, Note_on_c, 0, 68, 45
1, 456138, Note_off_c, 0, 68, 55
1, 456178, Note_on_c, 0, 72, 50
1, 456211, Note_off_c, 0, 72, 58
1, 456243, Note_on_c, 0, 68, 50
1, 456246, Note_on_c, 0, 32, 49
1, 456282, Note_off_c, 0, 68, 59
1, 456301, Note_on_c, 0, 72, 57
1, 456333, Note_off_c, 0, 36, 37
1, 456349, Note_off_c, 0, 72, 50
1, 456354, Note_off_c, 0, 32, 56
1, 456360, Note_on_c, 0, 29, 53
1, 456426, Poly_aftertouch_c, 0, 72, 127
1, 456446, Poly_aftertouch_c, 0, 68, 127
1, 456447, Poly_aftertouch_c, 0, 72, 0
1, 456477, Note_off_c, 0, 29, 59
1, 456536, Note_on_c, 0, 72, 20
1, 456541, Poly_aftertouch_c, 0, 68, 0
1, 456578, Poly_aftertouch_c, 0, 68, 127
1, 456605, Note_off_c, 0, 72, 0
1, 456620, Poly_aftertouch_c, 0, 68, 0
1, 456625, Note_on_c, 0, 72, 35
1, 456682, Note_off_c, 0, 72, 59
1, 456741, Note_on_c, 0, 68, 9
1, 456771, Note_on_c, 0, 29, 47
1, 456772, Note_on_c, 0, 72, 46
1, 456772, Note_off_c, 0, 68, 0
1, 456812, Poly_aftertouch_c, 0, 68, 0
1, 456816, Note_off_c, 0, 72, 60
1, 456830, Note_on_c, 0, 68, 27
1, 456878, Note_off_c, 0, 68, 58
1, 456893, Note_off_c, 0, 29, 54
1, 456912, Note_on_c, 0, 72, 52
1, 456936, Note_off_c, 0, 72, 57
1, 456978, Note_on_c, 0, 68, 40
1, 457007, Note_off_c, 0, 68, 54
1, 457053, Note_on_c, 0, 72, 44
1, 457078, Note_off_c, 0, 72, 56
1, 457117, Note_on_c, 0, 68, 38
1, 457144, Note_off_c, 0, 68, 51
1, 457168, Note_on_c, 0, 72, 56
1, 457175, Note_on_c, 0, 29, 44
1, 457211, Note_off_c, 0, 72, 56
1, 457250, Note_on_c, 0, 68, 47
1, 457280, Note_off_c, 0, 68, 56
1, 457332, Note_on_c, 0, 72, 44
1, 457368, Note_off_c, 0, 72, 49
1, 457410, Note_on_c, 0, 68, 37
1, 457424, Note_off_c, 0, 29, 26
1, 457439, Note_off_c, 0, 68, 54
1, 457478, Note_on_c, 0, 72, 44
1, 457520, Note_off_c, 0, 72, 46
1, 457557, Note_on_c, 0, 68, 38
1, 457586, Note_off_c, 0, 68, 55
1, 457642, Note_on_c, 0, 72, 40
1, 457675, Note_off_c, 0, 72, 50
1, 457704, Note_on_c, 0, 68, 37
1, 457737, Note_off_c, 0, 68, 55
1, 457821, Note_on_c, 0, 72, 22
1, 457865, Note_on_c, 0, 68, 29
1, 457901, Note_off_c, 0, 68, 44
1, 457916, Note_off_c, 0, 72, 0
1, 457952, Poly_aftertouch_c, 0, 72, 127
1, 457999, Poly_aftertouch_c, 0, 72, 0
1, 458005, Note_on_c, 0, 68, 33
1, 458039, Note_off_c, 0, 68, 53
1, 458070, Note_on_c, 0, 72, 37
1, 458081, Note_on_c, 0, 29, 37
1, 458122, Note_off_c, 0, 72, 45
1, 458160, Note_on_c, 0, 68, 33
1, 458190, Note_off_c, 0, 68, 49
1, 458223, Note_on_c, 0, 72, 40
1, 458271, Note_off_c, 0, 72, 46
1, 458304, Note_on_c, 0, 68, 40
1, 458311, Note_off_c, 0, 29, 30
1, 458337, Note_off_c, 0, 68, 54
1, 458394, Note_on_c, 0, 72, 34
1, 458437, Note_off_c, 0, 72, 46
1, 458471, Note_on_c, 0, 68, 40
1, 458519, Note_off_c, 0, 68, 59
1, 458570, Note_on_c, 0, 72, 38
1, 458656, Note_off_c, 0, 72, 32
1, 458682, Note_on_c, 0, 68, 21
1, 458764, Note_off_c, 0, 68, 53
1, 458827, Note_on_c, 0, 72, 29
1, 458990, Note_off_c, 0, 72, 29
1, 458991, Note_on_c, 0, 68, 27
1, 459203, Note_off_c, 0, 68, 27
1, 459225, Note_on_c, 0, 72, 26
1, 459557, Note_off_c, 0, 72, 34
1, 459572, Note_on_c, 0, 68, 21
1, 459637, Note_off_c, 0, 68, 56
1, 460348, Note_on_c, 0, 72, 31
1, 460353, Note_on_c, 0, 29, 27
1, 460385, Note_on_c, 0, 68, 21
1, 464411, Control_c, 0, 64, 119
1, 464426, Control_c, 0, 64, 113
1, 464447, Control_c, 0, 64, 111
1, 464477, Control_c, 0, 64, 109
1, 464537, Control_c, 0, 64, 107
1, 464626, Control_c, 0, 64, 105
1, 464745, Control_c, 0, 64, 103
1, 464894, Control_c, 0, 64, 101
1, 465086, Control_c, 0, 64, 99
1, 465160, Control_c, 0, 64, 97
1, 465257, Control_c, 0, 64, 96
1, 465286, Control_c, 0, 64, 95
1, 465301, Control_c, 0, 64, 94
1, 465316, Control_c, 0, 64, 94
1, 465345, Control_c, 0, 64, 93
1, 465404, Control_c, 0, 64, 93
1, 465434, Control_c, 0, 64, 92
1, 465449, Control_c, 0, 64, 92
1, 465479, Control_c, 0, 64, 91
1, 465509, Control_c, 0, 64, 91
1, 465524, Control_c, 0, 64, 90
1, 465539, Control_c, 0, 64, 90
1, 465560, Note_off_c, 0, 72, 26
1, 465562, Note_off_c, 0, 29, 23
1, 465568, Control_c, 0, 64, 89
1, 465598, Control_c, 0, 64, 89
1, 465613, Control_c, 0, 64, 88
1, 465628, Control_c, 0, 64, 88
1, 465643, Control_c, 0, 64, 87
1, 465658, Control_c, 0, 64, 87
1, 465673, Control_c, 0, 64, 86
1, 465688, Note_off_c, 0, 68, 28
1, 465717, Control_c, 0, 64, 86
1, 465747, Control_c, 0, 64, 85
1, 465776, Control_c, 0, 64, 85
1, 465805, Control_c, 0, 64, 84
1, 465820, Control_c, 0, 64, 84
1, 465835, Control_c, 0, 64, 83
1, 465850, Control_c, 0, 64, 83
1, 465865, Control_c, 0, 64, 82
1, 465894, Control_c, 0, 64, 82
1, 465909, Control_c, 0, 64, 81
1, 465924, Control_c, 0, 64, 81
1, 465961, Control_c, 0, 64, 80
1, 465976, Control_c, 0, 64, 80
1, 465991, Control_c, 0, 64, 79
1, 466035, Control_c, 0, 64, 79
1, 466050, Control_c, 0, 64, 78
1, 466080, Control_c, 0, 64, 78
1, 466138, Control_c, 0, 64, 77
1, 466168, Control_c, 0, 64, 77
1, 466183, Control_c, 0, 64, 76
1, 466227, Control_c, 0, 64, 76
1, 466257, Control_c, 0, 64, 75
1, 466272, Control_c, 0, 64, 75
1, 466287, Control_c, 0, 64, 74
1, 466302, Control_c, 0, 64, 74
1, 466317, Control_c, 0, 64, 73
1, 466361, Control_c, 0, 64, 72
1, 466376, Control_c, 0, 64, 72
1, 466391, Control_c, 0, 64, 71
1, 466480, Control_c, 0, 64, 71
1, 466509, Control_c, 0, 64, 70
1, 466583, Control_c, 0, 64, 70
1, 466613, Control_c, 0, 64, 69
1, 466709, Control_c, 0, 64, 69
1, 466768, Control_c, 0, 64, 68
1, 466813, Control_c, 0, 64, 68
1, 466887, Control_c, 0, 64, 67
1, 466931, Control_c, 0, 64, 67
1, 466975, Control_c, 0, 64, 66
1, 467020, Control_c, 0, 64, 66
1, 467094, Control_c, 0, 64, 65
1, 467154, Control_c, 0, 64, 65
1, 467169, Control_c, 0, 64, 64
1, 467199, Control_c, 0, 64, 64
1, 467273, Control_c, 0, 64, 63
1, 467303, Control_c, 0, 64, 62
1, 467318, Control_c, 0, 64, 61
1, 467332, Control_c, 0, 64, 59
1, 467347, Control_c, 0, 64, 56
1, 467362, Control_c, 0, 64, 53
1, 467376, Control_c, 0, 64, 48
1, 467391, Control_c, 0, 64, 41
1, 467406, Control_c, 0, 64, 23
1, 467421, Control_c, 0, 64, 0
1, 467421, End_track
0, 0, End_of_file
