0, 0, Header, 0, 1, 384
1, 0, Start_track
1, 0, Title_t, "Sonata Op. 57--Frank Duepree    "
1, 0, Text_t, "2008 e-Piano Junior Competition recital round"
1, 0, Text_t, "recorded July 2008"
1, 0, Text_t, "http://www.piano-e-competition.com/"
1, 0, Text_t, "File processed for distribution by software from Zenph Studios, Inc., http://www.zenph.com"
1, 0, Instrument_name_t, "Yamaha Disklavier Pro Mark IV concert grand piano, model DCFIIISM4PRO"
1, 0, Sequencer_specific, 39, 67, 113, 0, 1, 0, 1, 0, 83, 111, 110, 97, 116, 97, 32, 79, 112, 46, 32, 53, 55, 32, 32, 32, 70, 114, 97, 110, 107, 32, 68, 117, 101, 112, 114, 101, 101, 32, 32, 32
1, 0, Sequencer_specific, 6, 67, 113, 0, 0, 0, 69
1, 0, System_exclusive, 21, 67, 113, 126, 21, 0, 2, 2, 0, 3, 14, 1, 4, 1, 13, 13, 10, 11, 9, 2, 7, 247
1, 0, Sequencer_specific, 5, 67, 123, 12, 2, 1
1, 0, Tempo, 512820
1, 0, Time_signature, 4, 2, 24, 8
1, 0, System_exclusive, 5, 126, 127, 9, 1, 247
1, 1, System_exclusive, 8, 67, 16, 76, 0, 0, 126, 0, 247
1, 2, System_exclusive, 8, 67, 16, 76, 8, 9, 7, 1, 247
1, 3, Control_c, 0, 0, 0
1, 3, Control_c, 1, 0, 0
1, 3, Control_c, 2, 0, 0
1, 3, Control_c, 3, 0, 0
1, 3, Control_c, 4, 0, 0
1, 3, Control_c, 5, 0, 0
1, 3, Control_c, 6, 0, 0
1, 3, Control_c, 7, 0, 0
1, 3, Control_c, 8, 0, 0
1, 3, Control_c, 9, 0, 127
1, 3, Control_c, 10, 0, 0
1, 3, Control_c, 11, 0, 0
1, 3, Control_c, 12, 0, 0
1, 3, Control_c, 13, 0, 0
1, 3, Control_c, 14, 0, 0
1, 3, Control_c, 15, 0, 0
1, 4, Control_c, 0, 32, 0
1, 4, Control_c, 1, 32, 0
1, 4, Control_c, 2, 32, 0
1, 4, Control_c, 3, 32, 0
1, 4, Control_c, 4, 32, 0
1, 4, Control_c, 5, 32, 0
1, 4, Control_c, 6, 32, 0
1, 4, Control_c, 7, 32, 0
1, 4, Control_c, 8, 32, 0
1, 4, Control_c, 9, 32, 0
1, 4, Control_c, 10, 32, 0
1, 4, Control_c, 11, 32, 0
1, 4, Control_c, 12, 32, 0
1, 4, Control_c, 13, 32, 0
1, 4, Control_c, 14, 32, 0
1, 4, Control_c, 15, 32, 0
1, 5, Program_c, 0, 0
1, 5, Program_c, 1, 0
1, 5, Program_c, 2, 0
1, 5, Program_c, 3, 0
1, 5, Program_c, 4, 0
1, 5, Program_c, 5, 0
1, 5, Program_c, 6, 0
1, 5, Program_c, 7, 0
1, 5, Program_c, 8, 0
1, 5, Program_c, 9, 0
1, 5, Program_c, 10, 0
1, 5, Program_c, 11, 0
1, 5, Program_c, 12, 0
1, 5, Program_c, 13, 0
1, 5, Program_c, 14, 0
1, 5, Program_c, 15, 0
1, 6, Control_c, 0, 7, 100
1, 6, Control_c, 1, 7, 100
1, 6, Control_c, 2, 7, 100
1, 6, Control_c, 3, 7, 100
1, 6, Control_c, 4, 7, 100
1, 6, Control_c, 5, 7, 100
1, 6, Control_c, 6, 7, 100
1, 6, Control_c, 7, 7, 100
1, 6, Control_c, 8, 7, 100
1, 6, Control_c, 9, 7, 100
1, 6, Control_c, 10, 7, 100
1, 6, Control_c, 11, 7, 100
1, 6, Control_c, 12, 7, 100
1, 6, Control_c, 13, 7, 100
1, 6, Control_c, 14, 7, 100
1, 6, Control_c, 15, 7, 100
1, 117, Control_c, 0, 64, 2
1, 229, Control_c, 0, 64, 5
1, 341, Control_c, 0, 64, 7
1, 452, Control_c, 0, 64, 10
1, 564, Control_c, 0, 64, 12
1, 676, Control_c, 0, 64, 15
1, 787, Control_c, 0, 64, 17
1, 899, Control_c, 0, 64, 21
1, 1135, Note_on_c, 0, 60, 25
1, 1146, Note_on_c, 0, 36, 28
1, 1146, Control_c, 0, 64, 22
1, 1295, Control_c, 0, 64, 24
1, 1310, Control_c, 0, 64, 25
1, 1340, Control_c, 0, 64, 27
1, 1354, Control_c, 0, 64, 28
1, 1369, Control_c, 0, 64, 29
1, 1384, Control_c, 0, 64, 30
1, 1414, Control_c, 0, 64, 31
1, 1458, Control_c, 0, 64, 32
1, 1466, Note_on_c, 0, 56, 34
1, 1471, Note_on_c, 0, 32, 34
1, 1487, Control_c, 0, 64, 32
1, 1502, Control_c, 0, 64, 33
1, 1563, Note_off_c, 0, 60, 36
1, 1595, Note_on_c, 0, 29, 41
1, 1596, Note_on_c, 0, 53, 41
1, 1674, Note_off_c, 0, 36, 37
1, 1685, Note_off_c, 0, 32, 39
1, 1687, Control_c, 0, 64, 34
1, 1717, Control_c, 0, 64, 34
1, 1732, Note_off_c, 0, 56, 39
1, 1732, Control_c, 0, 64, 35
1, 1747, Control_c, 0, 64, 36
1, 1761, Control_c, 0, 64, 38
1, 1776, Control_c, 0, 64, 40
1, 1791, Control_c, 0, 64, 42
1, 1806, Control_c, 0, 64, 44
1, 1821, Control_c, 0, 64, 45
1, 1835, Control_c, 0, 64, 46
1, 1850, Control_c, 0, 64, 47
1, 1865, Control_c, 0, 64, 48
1, 1880, Control_c, 0, 64, 50
1, 1894, Control_c, 0, 64, 52
1, 1909, Control_c, 0, 64, 53
1, 1924, Control_c, 0, 64, 54
1, 1939, Control_c, 0, 64, 55
1, 1955, Control_c, 0, 64, 56
1, 1970, Control_c, 0, 64, 57
1, 1984, Control_c, 0, 64, 58
1, 1999, Control_c, 0, 64, 59
1, 2014, Control_c, 0, 64, 60
1, 2029, Control_c, 0, 64, 60
1, 2044, Control_c, 0, 64, 61
1, 2058, Control_c, 0, 64, 61
1, 2073, Control_c, 0, 64, 62
1, 2088, Control_c, 0, 64, 63
1, 2103, Control_c, 0, 64, 63
1, 2118, Control_c, 0, 64, 64
1, 2132, Control_c, 0, 64, 64
1, 2147, Control_c, 0, 64, 65
1, 2162, Control_c, 0, 64, 65
1, 2192, Control_c, 0, 64, 66
1, 2207, Control_c, 0, 64, 66
1, 2222, Control_c, 0, 64, 67
1, 2236, Control_c, 0, 64, 67
1, 2251, Control_c, 0, 64, 68
1, 2266, Control_c, 0, 64, 69
1, 2281, Control_c, 0, 64, 70
1, 2296, Control_c, 0, 64, 71
1, 2310, Control_c, 0, 64, 71
1, 2325, Control_c, 0, 64, 72
1, 2340, Control_c, 0, 64, 73
1, 2355, Control_c, 0, 64, 74
1, 2370, Control_c, 0, 64, 75
1, 2384, Control_c, 0, 64, 76
1, 2399, Control_c, 0, 64, 77
1, 2414, Control_c, 0, 64, 78
1, 2436, Control_c, 0, 64, 78
1, 2451, Control_c, 0, 64, 79
1, 2466, Control_c, 0, 64, 80
1, 2481, Control_c, 0, 64, 81
1, 2510, Control_c, 0, 64, 81
1, 2525, Control_c, 0, 64, 82
1, 2555, Control_c, 0, 64, 82
1, 2584, Control_c, 0, 64, 83
1, 2643, Control_c, 0, 64, 83
1, 2688, Control_c, 0, 64, 84
1, 2747, Control_c, 0, 64, 84
1, 2995, Note_on_c, 0, 32, 36
1, 2995, Note_on_c, 0, 56, 42
1, 3325, Note_on_c, 0, 36, 42
1, 3333, Note_on_c, 0, 60, 47
1, 3334, Control_c, 0, 64, 83
1, 3349, Control_c, 0, 64, 81
1, 3364, Control_c, 0, 64, 79
1, 3378, Control_c, 0, 64, 75
1, 3386, Note_off_c, 0, 53, 36
1, 3393, Control_c, 0, 64, 72
1, 3408, Control_c, 0, 64, 67
1, 3420, Note_off_c, 0, 29, 41
1, 3423, Control_c, 0, 64, 61
1, 3425, Note_on_c, 0, 41, 39
1, 3426, Note_on_c, 0, 65, 56
1, 3438, Control_c, 0, 64, 54
1, 3453, Control_c, 0, 64, 52
1, 3459, Note_off_c, 0, 56, 44
1, 3467, Control_c, 0, 64, 51
1, 3471, Note_off_c, 0, 60, 60
1, 3482, Control_c, 0, 64, 48
1, 3486, Note_off_c, 0, 32, 50
1, 3487, Note_off_c, 0, 36, 56
1, 3497, Control_c, 0, 64, 44
1, 3511, Control_c, 0, 64, 37
1, 3526, Control_c, 0, 64, 34
1, 3540, Control_c, 0, 64, 34
1, 3556, Control_c, 0, 64, 36
1, 3571, Control_c, 0, 64, 36
1, 3586, Control_c, 0, 64, 38
1, 3601, Control_c, 0, 64, 39
1, 3616, Control_c, 0, 64, 40
1, 3630, Control_c, 0, 64, 41
1, 3645, Control_c, 0, 64, 42
1, 3660, Control_c, 0, 64, 43
1, 3675, Control_c, 0, 64, 44
1, 3704, Control_c, 0, 64, 45
1, 3719, Control_c, 0, 64, 46
1, 3734, Control_c, 0, 64, 48
1, 3749, Control_c, 0, 64, 49
1, 3778, Control_c, 0, 64, 50
1, 3793, Control_c, 0, 64, 50
1, 3808, Control_c, 0, 64, 51
1, 3823, Control_c, 0, 64, 52
1, 3838, Control_c, 0, 64, 52
1, 3850, Note_on_c, 0, 68, 51
1, 3852, Control_c, 0, 64, 53
1, 3866, Note_on_c, 0, 44, 31
1, 3923, Note_off_c, 0, 41, 59
1, 3963, Control_c, 0, 64, 53
1, 3978, Note_off_c, 0, 65, 59
1, 3978, Control_c, 0, 64, 54
1, 4007, Control_c, 0, 64, 54
1, 4022, Control_c, 0, 64, 56
1, 4037, Control_c, 0, 64, 57
1, 4052, Control_c, 0, 64, 57
1, 4067, Control_c, 0, 64, 58
1, 4097, Control_c, 0, 64, 58
1, 4112, Control_c, 0, 64, 59
1, 4142, Control_c, 0, 64, 59
1, 4180, Note_on_c, 0, 72, 45
1, 4186, Control_c, 0, 64, 60
1, 4201, Note_on_c, 0, 48, 34
1, 4252, Note_off_c, 0, 44, 38
1, 4326, Note_on_c, 0, 77, 57
1, 4335, Note_on_c, 0, 53, 36
1, 4369, Note_off_c, 0, 48, 44
1, 4377, Note_off_c, 0, 72, 60
1, 4392, Note_off_c, 0, 68, 53
1, 4394, Control_c, 0, 64, 60
1, 4424, Control_c, 0, 64, 61
1, 4468, Control_c, 0, 64, 61
1, 4483, Control_c, 0, 64, 62
1, 4498, Control_c, 0, 64, 62
1, 4512, Control_c, 0, 64, 63
1, 4527, Control_c, 0, 64, 63
1, 4542, Control_c, 0, 64, 64
1, 4557, Control_c, 0, 64, 65
1, 4572, Control_c, 0, 64, 66
1, 4586, Control_c, 0, 64, 67
1, 4601, Control_c, 0, 64, 68
1, 4616, Control_c, 0, 64, 69
1, 4630, Control_c, 0, 64, 70
1, 4645, Control_c, 0, 64, 71
1, 4660, Control_c, 0, 64, 72
1, 4683, Control_c, 0, 64, 73
1, 4698, Control_c, 0, 64, 74
1, 4712, Control_c, 0, 64, 75
1, 4727, Control_c, 0, 64, 75
1, 4742, Control_c, 0, 64, 76
1, 4757, Control_c, 0, 64, 76
1, 4772, Control_c, 0, 64, 77
1, 4786, Control_c, 0, 64, 77
1, 4801, Control_c, 0, 64, 78
1, 4816, Control_c, 0, 64, 78
1, 4830, Control_c, 0, 64, 79
1, 4860, Control_c, 0, 64, 80
1, 4868, Note_on_c, 0, 65, 45
1, 4872, Note_on_c, 0, 56, 38
1, 4875, Control_c, 0, 64, 80
1, 4890, Control_c, 0, 64, 81
1, 4905, Control_c, 0, 64, 82
1, 4920, Control_c, 0, 64, 83
1, 4935, Control_c, 0, 64, 84
1, 4949, Control_c, 0, 64, 85
1, 4964, Control_c, 0, 64, 86
1, 4973, Note_off_c, 0, 77, 57
1, 4979, Control_c, 0, 64, 87
1, 4980, Note_off_c, 0, 65, 57
1, 4982, Note_off_c, 0, 53, 52
1, 4994, Control_c, 0, 64, 89
1, 5009, Control_c, 0, 64, 89
1, 5024, Control_c, 0, 64, 90
1, 5038, Control_c, 0, 64, 91
1, 5053, Control_c, 0, 64, 91
1, 5068, Control_c, 0, 64, 92
1, 5083, Control_c, 0, 64, 92
1, 5095, Note_off_c, 0, 56, 39
1, 5127, Control_c, 0, 64, 93
1, 5409, Control_c, 0, 64, 92
1, 5432, Control_c, 0, 64, 91
1, 5447, Control_c, 0, 64, 88
1, 5461, Control_c, 0, 64, 84
1, 5462, Note_on_c, 0, 72, 59
1, 5476, Control_c, 0, 64, 80
1, 5477, Note_on_c, 0, 60, 30
1, 5481, Note_on_c, 0, 55, 31
1, 5491, Control_c, 0, 64, 74
1, 5495, Note_on_c, 0, 52, 42
1, 5506, Control_c, 0, 64, 66
1, 5521, Control_c, 0, 64, 54
1, 5535, Control_c, 0, 64, 36
1, 5550, Control_c, 0, 64, 33
1, 5565, Control_c, 0, 64, 32
1, 5580, Control_c, 0, 64, 26
1, 5595, Control_c, 0, 64, 10
1, 5609, Control_c, 0, 64, 0
1, 5713, Control_c, 0, 64, 26
1, 5727, Control_c, 0, 64, 39
1, 5742, Control_c, 0, 64, 51
1, 5758, Control_c, 0, 64, 57
1, 5773, Control_c, 0, 64, 61
1, 5788, Control_c, 0, 64, 62
1, 5802, Control_c, 0, 64, 63
1, 5817, Control_c, 0, 64, 65
1, 5832, Control_c, 0, 64, 67
1, 5847, Control_c, 0, 64, 69
1, 5862, Control_c, 0, 64, 71
1, 5876, Control_c, 0, 64, 73
1, 5891, Control_c, 0, 64, 75
1, 5906, Control_c, 0, 64, 77
1, 5921, Control_c, 0, 64, 80
1, 5936, Control_c, 0, 64, 82
1, 5951, Control_c, 0, 64, 84
1, 5966, Control_c, 0, 64, 85
1, 5969, Note_off_c, 0, 52, 61
1, 5981, Control_c, 0, 64, 86
1, 5996, Control_c, 0, 64, 87
1, 6011, Control_c, 0, 64, 88
1, 6026, Control_c, 0, 64, 89
1, 6040, Control_c, 0, 64, 90
1, 6055, Control_c, 0, 64, 90
1, 6070, Control_c, 0, 64, 91
1, 6075, Note_off_c, 0, 60, 41
1, 6085, Control_c, 0, 64, 92
1, 6100, Control_c, 0, 64, 92
1, 6130, Control_c, 0, 64, 93
1, 6134, Note_off_c, 0, 55, 41
1, 6145, Control_c, 0, 64, 94
1, 6159, Control_c, 0, 64, 94
1, 6196, Control_c, 0, 64, 95
1, 6322, Note_on_c, 0, 74, 53
1, 6344, Control_c, 0, 64, 95
1, 6355, Note_off_c, 0, 72, 62
1, 6492, Control_c, 0, 64, 95
1, 6507, Control_c, 0, 64, 93
1, 6521, Note_off_c, 0, 74, 62
1, 6522, Control_c, 0, 64, 90
1, 6533, Note_on_c, 0, 72, 52
1, 6537, Control_c, 0, 64, 85
1, 6538, Note_on_c, 0, 59, 40
1, 6545, Note_on_c, 0, 53, 44
1, 6547, Note_on_c, 0, 56, 40
1, 6551, Control_c, 0, 64, 78
1, 6566, Control_c, 0, 64, 69
1, 6581, Control_c, 0, 64, 54
1, 6596, Control_c, 0, 64, 0
1, 6628, Note_off_c, 0, 72, 60
1, 6637, Note_on_c, 0, 74, 59
1, 6655, Control_c, 0, 64, 40
1, 6670, Control_c, 0, 64, 59
1, 6684, Control_c, 0, 64, 65
1, 6693, Note_off_c, 0, 74, 62
1, 6699, Control_c, 0, 64, 71
1, 6714, Control_c, 0, 64, 78
1, 6726, Note_on_c, 0, 76, 54
1, 6729, Control_c, 0, 64, 84
1, 6744, Control_c, 0, 64, 88
1, 6746, Note_off_c, 0, 76, 63
1, 6760, Control_c, 0, 64, 89
1, 6774, Control_c, 0, 64, 91
1, 6781, Note_on_c, 0, 74, 60
1, 6789, Control_c, 0, 64, 94
1, 6800, Note_off_c, 0, 74, 67
1, 6804, Control_c, 0, 64, 97
1, 6819, Control_c, 0, 64, 99
1, 6834, Control_c, 0, 64, 101
1, 6842, Note_on_c, 0, 76, 48
1, 6848, Control_c, 0, 64, 102
1, 6862, Note_off_c, 0, 76, 59
1, 6863, Control_c, 0, 64, 103
1, 6878, Control_c, 0, 64, 103
1, 6879, Note_on_c, 0, 74, 65
1, 6893, Control_c, 0, 64, 105
1, 6904, Note_off_c, 0, 74, 68
1, 6908, Control_c, 0, 64, 105
1, 6930, Control_c, 0, 64, 106
1, 6945, Control_c, 0, 64, 106
1, 6947, Note_on_c, 0, 76, 53
1, 6967, Note_off_c, 0, 76, 63
1, 6975, Control_c, 0, 64, 107
1, 6989, Control_c, 0, 64, 107
1, 7000, Note_on_c, 0, 74, 56
1, 7004, Control_c, 0, 64, 108
1, 7018, Note_off_c, 0, 74, 65
1, 7033, Control_c, 0, 64, 108
1, 7053, Note_on_c, 0, 76, 48
1, 7063, Control_c, 0, 64, 109
1, 7078, Note_off_c, 0, 76, 58
1, 7090, Note_on_c, 0, 74, 58
1, 7093, Control_c, 0, 64, 109
1, 7108, Note_off_c, 0, 74, 67
1, 7161, Note_on_c, 0, 76, 47
1, 7183, Note_off_c, 0, 76, 56
1, 7185, Note_on_c, 0, 74, 60
1, 7215, Note_off_c, 0, 74, 68
1, 7238, Note_off_c, 0, 59, 36
1, 7251, Note_on_c, 0, 76, 73
1, 7263, Note_off_c, 0, 53, 34
1, 7295, Note_off_c, 0, 76, 63
1, 7312, Note_off_c, 0, 56, 41
1, 7313, Note_on_c, 0, 74, 45
1, 7334, Note_off_c, 0, 74, 63
1, 7385, Note_on_c, 0, 72, 40
1, 7447, Note_off_c, 0, 72, 57
1, 7453, Note_on_c, 0, 76, 50
1, 7519, Note_off_c, 0, 76, 64
1, 7546, Note_on_c, 0, 74, 53
1, 7627, Control_c, 0, 64, 109
1, 7642, Control_c, 0, 64, 108
1, 7644, Note_off_c, 0, 74, 60
1, 7656, Control_c, 0, 64, 104
1, 7679, Control_c, 0, 64, 100
1, 7692, Note_on_c, 0, 72, 42
1, 7694, Control_c, 0, 64, 95
1, 7709, Control_c, 0, 64, 88
1, 7715, Note_on_c, 0, 55, 31
1, 7721, Note_on_c, 0, 60, 28
1, 7724, Control_c, 0, 64, 79
1, 7735, Note_on_c, 0, 52, 33
1, 7738, Control_c, 0, 64, 70
1, 7753, Control_c, 0, 64, 54
1, 7768, Control_c, 0, 64, 0
1, 7930, Control_c, 0, 64, 46
1, 7945, Control_c, 0, 64, 63
1, 7960, Control_c, 0, 64, 68
1, 7975, Control_c, 0, 64, 72
1, 7990, Control_c, 0, 64, 76
1, 8004, Control_c, 0, 64, 78
1, 8019, Control_c, 0, 64, 80
1, 8034, Control_c, 0, 64, 81
1, 8048, Control_c, 0, 64, 81
1, 8056, Note_off_c, 0, 60, 38
1, 8064, Note_off_c, 0, 72, 53
1, 8067, Note_off_c, 0, 52, 41
1, 8137, Control_c, 0, 64, 81
1, 8142, Note_off_c, 0, 55, 42
1, 8152, Control_c, 0, 64, 80
1, 8167, Control_c, 0, 64, 78
1, 8181, Control_c, 0, 64, 76
1, 8196, Control_c, 0, 64, 72
1, 8211, Control_c, 0, 64, 69
1, 8226, Control_c, 0, 64, 65
1, 8241, Control_c, 0, 64, 64
1, 8270, Control_c, 0, 64, 64
1, 8300, Control_c, 0, 64, 63
1, 8315, Control_c, 0, 64, 63
1, 8375, Control_c, 0, 64, 62
1, 8390, Control_c, 0, 64, 62
1, 8405, Control_c, 0, 64, 61
1, 8427, Control_c, 0, 64, 61
1, 8560, Control_c, 0, 64, 60
1, 8590, Control_c, 0, 64, 59
1, 8605, Control_c, 0, 64, 59
1, 8634, Control_c, 0, 64, 58
1, 8649, Control_c, 0, 64, 58
1, 8664, Control_c, 0, 64, 57
1, 8679, Control_c, 0, 64, 56
1, 8693, Control_c, 0, 64, 54
1, 8708, Control_c, 0, 64, 53
1, 8738, Control_c, 0, 64, 52
1, 8768, Control_c, 0, 64, 52
1, 8783, Control_c, 0, 64, 51
1, 8813, Control_c, 0, 64, 51
1, 8842, Control_c, 0, 64, 50
1, 8857, Control_c, 0, 64, 49
1, 8872, Control_c, 0, 64, 48
1, 8887, Control_c, 0, 64, 48
1, 8917, Control_c, 0, 64, 47
1, 9005, Control_c, 0, 64, 47
1, 9124, Control_c, 0, 64, 47
1, 9155, Control_c, 0, 64, 48
1, 9191, Control_c, 0, 64, 48
1, 9221, Control_c, 0, 64, 49
1, 9236, Control_c, 0, 64, 49
1, 9281, Control_c, 0, 64, 50
1, 9296, Control_c, 0, 64, 50
1, 9310, Control_c, 0, 64, 51
1, 9384, Control_c, 0, 64, 51
1, 9458, Control_c, 0, 64, 52
1, 9532, Control_c, 0, 64, 52
1, 9621, Control_c, 0, 64, 53
1, 9650, Control_c, 0, 64, 53
1, 9725, Control_c, 0, 64, 54
1, 9740, Control_c, 0, 64, 54
1, 9770, Control_c, 0, 64, 55
1, 9827, Note_on_c, 0, 37, 30
1, 9828, Control_c, 0, 64, 55
1, 9834, Note_on_c, 0, 61, 41
1, 9858, Control_c, 0, 64, 56
1, 9939, Control_c, 0, 64, 56
1, 9955, Control_c, 0, 64, 57
1, 9985, Control_c, 0, 64, 58
1, 9999, Control_c, 0, 64, 58
1, 10014, Control_c, 0, 64, 59
1, 10029, Control_c, 0, 64, 60
1, 10044, Control_c, 0, 64, 61
1, 10059, Control_c, 0, 64, 62
1, 10074, Control_c, 0, 64, 63
1, 10089, Control_c, 0, 64, 63
1, 10186, Note_on_c, 0, 58, 43
1, 10203, Note_on_c, 0, 34, 32
1, 10281, Control_c, 0, 64, 63
1, 10311, Control_c, 0, 64, 62
1, 10340, Note_on_c, 0, 30, 43
1, 10340, Control_c, 0, 64, 62
1, 10341, Note_on_c, 0, 54, 47
1, 10355, Control_c, 0, 64, 61
1, 10370, Control_c, 0, 64, 61
1, 10375, Note_off_c, 0, 61, 33
1, 10385, Control_c, 0, 64, 60
1, 10399, Control_c, 0, 64, 59
1, 10429, Control_c, 0, 64, 58
1, 10443, Control_c, 0, 64, 58
1, 10458, Control_c, 0, 64, 57
1, 10466, Note_off_c, 0, 58, 38
1, 10473, Control_c, 0, 64, 57
1, 10488, Control_c, 0, 64, 56
1, 10512, Note_off_c, 0, 34, 36
1, 10524, Note_off_c, 0, 37, 40
1, 10533, Control_c, 0, 64, 57
1, 10548, Control_c, 0, 64, 57
1, 10562, Control_c, 0, 64, 58
1, 10577, Control_c, 0, 64, 59
1, 10592, Control_c, 0, 64, 60
1, 10607, Control_c, 0, 64, 60
1, 10622, Control_c, 0, 64, 61
1, 10637, Control_c, 0, 64, 61
1, 10666, Control_c, 0, 64, 62
1, 10688, Control_c, 0, 64, 62
1, 10703, Control_c, 0, 64, 63
1, 10718, Control_c, 0, 64, 63
1, 10732, Control_c, 0, 64, 64
1, 10763, Control_c, 0, 64, 64
1, 10793, Control_c, 0, 64, 65
1, 10808, Control_c, 0, 64, 65
1, 10822, Control_c, 0, 64, 66
1, 10852, Control_c, 0, 64, 66
1, 10867, Control_c, 0, 64, 67
1, 10881, Control_c, 0, 64, 67
1, 10896, Control_c, 0, 64, 68
1, 10911, Control_c, 0, 64, 68
1, 10926, Control_c, 0, 64, 69
1, 10941, Control_c, 0, 64, 69
1, 10956, Control_c, 0, 64, 70
1, 10971, Control_c, 0, 64, 70
1, 10986, Control_c, 0, 64, 71
1, 10999, Control_c, 0, 64, 71
1, 11014, Control_c, 0, 64, 72
1, 11028, Control_c, 0, 64, 72
1, 11043, Control_c, 0, 64, 73
1, 11058, Control_c, 0, 64, 73
1, 11072, Control_c, 0, 64, 74
1, 11087, Control_c, 0, 64, 74
1, 11102, Control_c, 0, 64, 75
1, 11117, Control_c, 0, 64, 76
1, 11132, Control_c, 0, 64, 77
1, 11147, Control_c, 0, 64, 78
1, 11162, Control_c, 0, 64, 79
1, 11177, Control_c, 0, 64, 79
1, 11191, Control_c, 0, 64, 80
1, 11206, Control_c, 0, 64, 81
1, 11221, Control_c, 0, 64, 81
1, 11236, Control_c, 0, 64, 82
1, 11251, Control_c, 0, 64, 82
1, 11265, Control_c, 0, 64, 83
1, 11280, Control_c, 0, 64, 84
1, 11295, Control_c, 0, 64, 85
1, 11310, Control_c, 0, 64, 85
1, 11339, Control_c, 0, 64, 86
1, 11369, Control_c, 0, 64, 86
1, 11398, Control_c, 0, 64, 87
1, 11436, Control_c, 0, 64, 87
1, 11700, Note_on_c, 0, 58, 44
1, 11701, Note_on_c, 0, 34, 39
1, 12006, Note_on_c, 0, 61, 50
1, 12017, Note_on_c, 0, 37, 43
1, 12029, Control_c, 0, 64, 86
1, 12044, Control_c, 0, 64, 85
1, 12049, Note_off_c, 0, 54, 56
1, 12059, Control_c, 0, 64, 83
1, 12074, Control_c, 0, 64, 80
1, 12088, Control_c, 0, 64, 77
1, 12103, Control_c, 0, 64, 72
1, 12115, Note_on_c, 0, 42, 45
1, 12115, Note_on_c, 0, 66, 57
1, 12118, Control_c, 0, 64, 66
1, 12133, Control_c, 0, 64, 60
1, 12136, Note_off_c, 0, 58, 55
1, 12148, Control_c, 0, 64, 56
1, 12156, Note_off_c, 0, 34, 50
1, 12156, Note_off_c, 0, 61, 61
1, 12159, Note_off_c, 0, 30, 41
1, 12169, Control_c, 0, 64, 55
1, 12175, Note_off_c, 0, 37, 56
1, 12184, Control_c, 0, 64, 54
1, 12199, Control_c, 0, 64, 50
1, 12214, Control_c, 0, 64, 42
1, 12229, Control_c, 0, 64, 35
1, 12244, Control_c, 0, 64, 31
1, 12288, Control_c, 0, 64, 30
1, 12303, Control_c, 0, 64, 29
1, 12318, Control_c, 0, 64, 27
1, 12348, Control_c, 0, 64, 28
1, 12363, Control_c, 0, 64, 30
1, 12378, Control_c, 0, 64, 31
1, 12393, Control_c, 0, 64, 32
1, 12408, Control_c, 0, 64, 34
1, 12423, Control_c, 0, 64, 36
1, 12437, Control_c, 0, 64, 38
1, 12452, Control_c, 0, 64, 40
1, 12467, Control_c, 0, 64, 41
1, 12482, Control_c, 0, 64, 41
1, 12497, Control_c, 0, 64, 42
1, 12512, Control_c, 0, 64, 42
1, 12541, Note_on_c, 0, 70, 53
1, 12542, Control_c, 0, 64, 43
1, 12548, Note_on_c, 0, 46, 45
1, 12557, Control_c, 0, 64, 43
1, 12587, Control_c, 0, 64, 44
1, 12616, Note_off_c, 0, 42, 62
1, 12631, Control_c, 0, 64, 44
1, 12705, Control_c, 0, 64, 45
1, 12709, Note_off_c, 0, 66, 57
1, 12719, Control_c, 0, 64, 47
1, 12734, Control_c, 0, 64, 49
1, 12749, Control_c, 0, 64, 50
1, 12764, Control_c, 0, 64, 51
1, 12779, Control_c, 0, 64, 51
1, 12793, Control_c, 0, 64, 52
1, 12808, Control_c, 0, 64, 52
1, 12823, Control_c, 0, 64, 53
1, 12852, Control_c, 0, 64, 53
1, 12864, Note_on_c, 0, 49, 39
1, 12867, Note_on_c, 0, 73, 50
1, 12882, Control_c, 0, 64, 54
1, 12919, Control_c, 0, 64, 54
1, 12949, Control_c, 0, 64, 55
1, 12964, Control_c, 0, 64, 55
1, 12978, Control_c, 0, 64, 56
1, 13001, Note_on_c, 0, 78, 61
1, 13005, Note_on_c, 0, 54, 39
1, 13008, Control_c, 0, 64, 56
1, 13017, Note_off_c, 0, 46, 32
1, 13023, Control_c, 0, 64, 57
1, 13049, Note_off_c, 0, 49, 41
1, 13052, Control_c, 0, 64, 57
1, 13067, Control_c, 0, 64, 58
1, 13074, Note_off_c, 0, 70, 61
1, 13074, Note_off_c, 0, 73, 59
1, 13097, Control_c, 0, 64, 58
1, 13126, Control_c, 0, 64, 59
1, 13142, Control_c, 0, 64, 59
1, 13157, Control_c, 0, 64, 60
1, 13187, Control_c, 0, 64, 60
1, 13202, Control_c, 0, 64, 61
1, 13216, Control_c, 0, 64, 61
1, 13231, Control_c, 0, 64, 62
1, 13246, Control_c, 0, 64, 62
1, 13261, Control_c, 0, 64, 63
1, 13275, Control_c, 0, 64, 63
1, 13305, Control_c, 0, 64, 64
1, 13335, Control_c, 0, 64, 64
1, 13350, Control_c, 0, 64, 65
1, 13379, Control_c, 0, 64, 66
1, 13394, Control_c, 0, 64, 66
1, 13424, Control_c, 0, 64, 67
1, 13483, Control_c, 0, 64, 67
1, 13497, Note_on_c, 0, 66, 43
1, 13498, Control_c, 0, 64, 68
1, 13507, Note_on_c, 0, 58, 33
1, 13513, Control_c, 0, 64, 69
1, 13528, Control_c, 0, 64, 70
1, 13542, Control_c, 0, 64, 72
1, 13557, Control_c, 0, 64, 75
1, 13572, Control_c, 0, 64, 77
1, 13586, Control_c, 0, 64, 80
1, 13601, Control_c, 0, 64, 82
1, 13604, Note_off_c, 0, 78, 61
1, 13615, Note_off_c, 0, 54, 48
1, 13616, Control_c, 0, 64, 84
1, 13631, Control_c, 0, 64, 85
1, 13633, Note_off_c, 0, 66, 63
1, 13646, Control_c, 0, 64, 86
1, 13668, Control_c, 0, 64, 87
1, 13683, Control_c, 0, 64, 89
1, 13698, Control_c, 0, 64, 90
1, 13713, Control_c, 0, 64, 91
1, 13728, Control_c, 0, 64, 92
1, 13732, Note_off_c, 0, 58, 43
1, 13742, Control_c, 0, 64, 93
1, 13772, Control_c, 0, 64, 93
1, 14038, Control_c, 0, 64, 93
1, 14053, Control_c, 0, 64, 92
1, 14068, Control_c, 0, 64, 89
1, 14083, Control_c, 0, 64, 85
1, 14098, Control_c, 0, 64, 82
1, 14101, Note_on_c, 0, 73, 64
1, 14102, Note_on_c, 0, 56, 41
1, 14113, Control_c, 0, 64, 77
1, 14122, Note_on_c, 0, 61, 40
1, 14127, Note_on_c, 0, 53, 42
1, 14128, Control_c, 0, 64, 72
1, 14143, Control_c, 0, 64, 66
1, 14157, Control_c, 0, 64, 56
1, 14172, Control_c, 0, 64, 50
1, 14216, Control_c, 0, 64, 46
1, 14231, Control_c, 0, 64, 36
1, 14246, Control_c, 0, 64, 21
1, 14261, Control_c, 0, 64, 16
1, 14290, Control_c, 0, 64, 13
1, 14305, Control_c, 0, 64, 0
1, 14364, Control_c, 0, 64, 16
1, 14379, Control_c, 0, 64, 28
1, 14394, Control_c, 0, 64, 39
1, 14416, Control_c, 0, 64, 48
1, 14431, Control_c, 0, 64, 56
1, 14446, Control_c, 0, 64, 62
1, 14461, Control_c, 0, 64, 65
1, 14476, Control_c, 0, 64, 68
1, 14490, Control_c, 0, 64, 72
1, 14505, Control_c, 0, 64, 76
1, 14520, Control_c, 0, 64, 78
1, 14535, Control_c, 0, 64, 80
1, 14550, Control_c, 0, 64, 81
1, 14564, Control_c, 0, 64, 83
1, 14579, Control_c, 0, 64, 85
1, 14594, Control_c, 0, 64, 87
1, 14609, Control_c, 0, 64, 89
1, 14623, Control_c, 0, 64, 91
1, 14638, Control_c, 0, 64, 92
1, 14653, Control_c, 0, 64, 93
1, 14668, Control_c, 0, 64, 93
1, 14675, Note_off_c, 0, 61, 60
1, 14683, Control_c, 0, 64, 94
1, 14743, Control_c, 0, 64, 94
1, 14778, Note_off_c, 0, 53, 36
1, 14846, Note_off_c, 0, 56, 41
1, 14920, Note_on_c, 0, 75, 56
1, 14978, Note_off_c, 0, 73, 59
1, 15113, Control_c, 0, 64, 93
1, 15118, Note_on_c, 0, 73, 56
1, 15128, Control_c, 0, 64, 91
1, 15130, Note_off_c, 0, 75, 64
1, 15134, Note_on_c, 0, 57, 44
1, 15136, Note_on_c, 0, 60, 40
1, 15143, Control_c, 0, 64, 85
1, 15146, Note_on_c, 0, 54, 39
1, 15165, Control_c, 0, 64, 77
1, 15180, Control_c, 0, 64, 66
1, 15195, Control_c, 0, 64, 37
1, 15210, Control_c, 0, 64, 0
1, 15251, Note_off_c, 0, 73, 60
1, 15254, Control_c, 0, 64, 29
1, 15259, Note_on_c, 0, 75, 65
1, 15269, Control_c, 0, 64, 55
1, 15284, Control_c, 0, 64, 65
1, 15299, Control_c, 0, 64, 70
1, 15310, Note_off_c, 0, 75, 64
1, 15314, Control_c, 0, 64, 76
1, 15328, Control_c, 0, 64, 80
1, 15343, Note_on_c, 0, 77, 57
1, 15343, Control_c, 0, 64, 83
1, 15358, Control_c, 0, 64, 86
1, 15365, Note_off_c, 0, 77, 59
1, 15372, Control_c, 0, 64, 87
1, 15387, Control_c, 0, 64, 89
1, 15395, Note_on_c, 0, 75, 61
1, 15402, Control_c, 0, 64, 92
1, 15417, Control_c, 0, 64, 93
1, 15418, Note_off_c, 0, 75, 65
1, 15432, Control_c, 0, 64, 95
1, 15446, Control_c, 0, 64, 96
1, 15449, Note_on_c, 0, 77, 64
1, 15461, Control_c, 0, 64, 96
1, 15474, Note_off_c, 0, 77, 60
1, 15476, Control_c, 0, 64, 97
1, 15492, Control_c, 0, 64, 98
1, 15498, Note_on_c, 0, 75, 70
1, 15507, Control_c, 0, 64, 99
1, 15521, Control_c, 0, 64, 100
1, 15524, Note_off_c, 0, 75, 69
1, 15537, Control_c, 0, 64, 101
1, 15552, Control_c, 0, 64, 101
1, 15554, Note_on_c, 0, 77, 65
1, 15578, Note_off_c, 0, 77, 61
1, 15582, Control_c, 0, 64, 102
1, 15597, Control_c, 0, 64, 102
1, 15605, Note_on_c, 0, 75, 65
1, 15624, Note_off_c, 0, 75, 64
1, 15626, Control_c, 0, 64, 103
1, 15660, Note_on_c, 0, 77, 56
1, 15670, Control_c, 0, 64, 103
1, 15681, Note_off_c, 0, 77, 60
1, 15699, Note_on_c, 0, 75, 69
1, 15715, Control_c, 0, 64, 104
1, 15725, Note_off_c, 0, 75, 67
1, 15763, Note_on_c, 0, 77, 53
1, 15785, Note_off_c, 0, 77, 58
1, 15798, Note_on_c, 0, 75, 59
1, 15798, Note_off_c, 0, 60, 59
1, 15817, Note_off_c, 0, 75, 65
1, 15856, Note_on_c, 0, 77, 70
1, 15897, Note_on_c, 0, 75, 54
1, 15898, Note_off_c, 0, 77, 53
1, 15926, Note_off_c, 0, 75, 62
1, 15928, Note_off_c, 0, 54, 40
1, 15943, Note_off_c, 0, 57, 53
1, 15973, Note_on_c, 0, 73, 60
1, 16042, Note_off_c, 0, 73, 57
1, 16056, Note_on_c, 0, 77, 61
1, 16123, Control_c, 0, 64, 103
1, 16128, Note_off_c, 0, 77, 59
1, 16143, Note_on_c, 0, 75, 59
1, 16152, Control_c, 0, 64, 103
1, 16182, Control_c, 0, 64, 102
1, 16196, Control_c, 0, 64, 101
1, 16211, Control_c, 0, 64, 99
1, 16226, Control_c, 0, 64, 95
1, 16241, Control_c, 0, 64, 90
1, 16256, Control_c, 0, 64, 83
1, 16269, Note_off_c, 0, 75, 52
1, 16271, Control_c, 0, 64, 74
1, 16282, Note_on_c, 0, 56, 28
1, 16286, Control_c, 0, 64, 66
1, 16296, Note_on_c, 0, 73, 44
1, 16301, Control_c, 0, 64, 51
1, 16304, Note_on_c, 0, 61, 36
1, 16316, Control_c, 0, 64, 0
1, 16322, Note_on_c, 0, 53, 19
1, 16480, Control_c, 0, 64, 24
1, 16494, Control_c, 0, 64, 63
1, 16509, Control_c, 0, 64, 68
1, 16524, Control_c, 0, 64, 72
1, 16539, Control_c, 0, 64, 75
1, 16554, Control_c, 0, 64, 78
1, 16568, Control_c, 0, 64, 80
1, 16583, Control_c, 0, 64, 82
1, 16598, Control_c, 0, 64, 83
1, 16612, Control_c, 0, 64, 84
1, 16614, Note_off_c, 0, 61, 58
1, 16631, Note_off_c, 0, 73, 50
1, 16638, Note_off_c, 0, 53, 42
1, 16685, Note_off_c, 0, 56, 41
1, 16724, Control_c, 0, 64, 83
1, 16739, Control_c, 0, 64, 82
1, 16754, Control_c, 0, 64, 80
1, 16768, Control_c, 0, 64, 79
1, 16783, Control_c, 0, 64, 76
1, 16798, Control_c, 0, 64, 74
1, 16812, Control_c, 0, 64, 71
1, 16827, Control_c, 0, 64, 67
1, 16842, Control_c, 0, 64, 65
1, 16857, Control_c, 0, 64, 64
1, 16886, Control_c, 0, 64, 64
1, 16901, Control_c, 0, 64, 63
1, 16916, Control_c, 0, 64, 62
1, 16931, Control_c, 0, 64, 60
1, 16946, Control_c, 0, 64, 59
1, 16960, Control_c, 0, 64, 59
1, 16975, Control_c, 0, 64, 58
1, 16990, Control_c, 0, 64, 55
1, 17005, Control_c, 0, 64, 51
1, 17019, Control_c, 0, 64, 48
1, 17034, Control_c, 0, 64, 47
1, 17094, Control_c, 0, 64, 46
1, 17109, Control_c, 0, 64, 45
1, 17123, Control_c, 0, 64, 44
1, 17139, Control_c, 0, 64, 41
1, 17154, Control_c, 0, 64, 39
1, 17184, Control_c, 0, 64, 39
1, 17198, Control_c, 0, 64, 38
1, 17213, Control_c, 0, 64, 36
1, 17228, Control_c, 0, 64, 35
1, 17317, Control_c, 0, 64, 36
1, 17332, Control_c, 0, 64, 36
1, 17362, Control_c, 0, 64, 37
1, 17377, Control_c, 0, 64, 38
1, 17391, Control_c, 0, 64, 38
1, 17413, Control_c, 0, 64, 39
1, 17428, Control_c, 0, 64, 39
1, 17457, Control_c, 0, 64, 40
1, 17487, Control_c, 0, 64, 40
1, 17635, Control_c, 0, 64, 41
1, 17665, Control_c, 0, 64, 41
1, 17709, Control_c, 0, 64, 42
1, 17754, Control_c, 0, 64, 42
1, 17783, Control_c, 0, 64, 43
1, 17857, Control_c, 0, 64, 43
1, 17872, Control_c, 0, 64, 44
1, 17916, Control_c, 0, 64, 44
1, 17947, Control_c, 0, 64, 45
1, 17962, Control_c, 0, 64, 45
1, 17977, Control_c, 0, 64, 46
1, 17992, Control_c, 0, 64, 46
1, 18036, Control_c, 0, 64, 47
1, 18051, Control_c, 0, 64, 47
1, 18063, Note_on_c, 0, 72, 53
1, 18065, Control_c, 0, 64, 48
1, 18073, Note_on_c, 0, 67, 34
1, 18080, Control_c, 0, 64, 48
1, 18084, Note_on_c, 0, 64, 34
1, 18110, Control_c, 0, 64, 49
1, 18125, Control_c, 0, 64, 50
1, 18140, Control_c, 0, 64, 50
1, 18162, Control_c, 0, 64, 51
1, 18177, Control_c, 0, 64, 53
1, 18191, Control_c, 0, 64, 54
1, 18206, Control_c, 0, 64, 56
1, 18221, Control_c, 0, 64, 57
1, 18236, Control_c, 0, 64, 58
1, 18251, Control_c, 0, 64, 59
1, 18265, Control_c, 0, 64, 60
1, 18280, Control_c, 0, 64, 62
1, 18295, Control_c, 0, 64, 63
1, 18310, Control_c, 0, 64, 64
1, 18325, Control_c, 0, 64, 65
1, 18340, Control_c, 0, 64, 66
1, 18355, Control_c, 0, 64, 67
1, 18369, Control_c, 0, 64, 69
1, 18384, Control_c, 0, 64, 71
1, 18399, Control_c, 0, 64, 72
1, 18414, Control_c, 0, 64, 74
1, 18429, Control_c, 0, 64, 76
1, 18444, Control_c, 0, 64, 78
1, 18458, Control_c, 0, 64, 80
1, 18473, Control_c, 0, 64, 82
1, 18487, Control_c, 0, 64, 84
1, 18502, Control_c, 0, 64, 86
1, 18517, Control_c, 0, 64, 88
1, 18531, Control_c, 0, 64, 89
1, 18546, Control_c, 0, 64, 91
1, 18561, Control_c, 0, 64, 92
1, 18576, Control_c, 0, 64, 93
1, 18590, Control_c, 0, 64, 94
1, 18605, Control_c, 0, 64, 94
1, 18620, Control_c, 0, 64, 95
1, 18635, Control_c, 0, 64, 96
1, 18648, Note_off_c, 0, 64, 55
1, 18650, Control_c, 0, 64, 96
1, 18665, Control_c, 0, 64, 97
1, 18694, Control_c, 0, 64, 97
1, 18715, Note_off_c, 0, 67, 58
1, 18724, Control_c, 0, 64, 98
1, 18769, Control_c, 0, 64, 98
1, 18887, Note_on_c, 0, 74, 60
1, 18982, Note_off_c, 0, 72, 64
1, 19058, Control_c, 0, 64, 98
1, 19073, Control_c, 0, 64, 97
1, 19088, Control_c, 0, 64, 94
1, 19103, Control_c, 0, 64, 89
1, 19104, Note_on_c, 0, 72, 68
1, 19112, Note_on_c, 0, 65, 54
1, 19112, Note_on_c, 0, 68, 56
1, 19113, Note_on_c, 0, 71, 53
1, 19118, Control_c, 0, 64, 82
1, 19133, Control_c, 0, 64, 71
1, 19142, Note_off_c, 0, 74, 64
1, 19147, Control_c, 0, 64, 60
1, 19162, Control_c, 0, 64, 0
1, 19241, Note_off_c, 0, 72, 63
1, 19243, Note_on_c, 0, 74, 71
1, 19267, Control_c, 0, 64, 49
1, 19281, Control_c, 0, 64, 65
1, 19296, Control_c, 0, 64, 71
1, 19301, Note_off_c, 0, 74, 64
1, 19311, Control_c, 0, 64, 78
1, 19326, Note_on_c, 0, 76, 66
1, 19326, Control_c, 0, 64, 84
1, 19341, Control_c, 0, 64, 87
1, 19353, Note_off_c, 0, 76, 63
1, 19355, Control_c, 0, 64, 90
1, 19370, Control_c, 0, 64, 92
1, 19379, Note_on_c, 0, 74, 68
1, 19385, Control_c, 0, 64, 95
1, 19400, Control_c, 0, 64, 97
1, 19402, Note_off_c, 0, 74, 67
1, 19414, Control_c, 0, 64, 98
1, 19429, Control_c, 0, 64, 99
1, 19444, Control_c, 0, 64, 99
1, 19451, Note_on_c, 0, 76, 47
1, 19459, Control_c, 0, 64, 100
1, 19474, Control_c, 0, 64, 101
1, 19475, Note_off_c, 0, 76, 55
1, 19488, Control_c, 0, 64, 101
1, 19492, Note_on_c, 0, 74, 70
1, 19503, Control_c, 0, 64, 102
1, 19509, Note_off_c, 0, 74, 68
1, 19534, Control_c, 0, 64, 102
1, 19551, Note_on_c, 0, 76, 59
1, 19564, Control_c, 0, 64, 103
1, 19571, Note_off_c, 0, 76, 63
1, 19587, Note_on_c, 0, 74, 66
1, 19613, Note_off_c, 0, 74, 69
1, 19637, Control_c, 0, 64, 103
1, 19648, Note_on_c, 0, 76, 59
1, 19673, Note_off_c, 0, 76, 63
1, 19694, Note_on_c, 0, 74, 59
1, 19705, Control_c, 0, 64, 104
1, 19713, Note_off_c, 0, 74, 67
1, 19734, Control_c, 0, 64, 104
1, 19737, Note_on_c, 0, 76, 73
1, 19749, Control_c, 0, 64, 105
1, 19778, Control_c, 0, 64, 105
1, 19785, Note_on_c, 0, 74, 71
1, 19788, Note_off_c, 0, 71, 57
1, 19794, Note_off_c, 0, 76, 66
1, 19804, Note_off_c, 0, 65, 61
1, 19814, Note_off_c, 0, 74, 64
1, 19821, Note_off_c, 0, 68, 58
1, 19823, Control_c, 0, 64, 106
1, 19849, Note_on_c, 0, 72, 65
1, 19921, Note_on_c, 0, 76, 64
1, 19922, Note_off_c, 0, 72, 61
1, 19956, Control_c, 0, 64, 105
1, 19970, Control_c, 0, 64, 104
1, 19975, Note_off_c, 0, 76, 65
1, 19985, Control_c, 0, 64, 100
1, 19994, Note_on_c, 0, 74, 59
1, 20000, Control_c, 0, 64, 91
1, 20015, Control_c, 0, 64, 80
1, 20030, Control_c, 0, 64, 68
1, 20045, Control_c, 0, 64, 0
1, 20051, Note_off_c, 0, 74, 61
1, 20077, Note_on_c, 0, 67, 38
1, 20078, Note_on_c, 0, 72, 60
1, 20086, Note_on_c, 0, 64, 37
1, 20163, Control_c, 0, 64, 42
1, 20178, Control_c, 0, 64, 70
1, 20191, Note_off_c, 0, 67, 64
1, 20193, Control_c, 0, 64, 80
1, 20204, Note_off_c, 0, 72, 64
1, 20208, Control_c, 0, 64, 87
1, 20210, Note_off_c, 0, 64, 65
1, 20223, Control_c, 0, 64, 89
1, 20237, Control_c, 0, 64, 90
1, 20252, Control_c, 0, 64, 90
1, 20267, Control_c, 0, 64, 91
1, 20282, Control_c, 0, 64, 91
1, 20423, Control_c, 0, 64, 91
1, 20438, Control_c, 0, 64, 87
1, 20453, Control_c, 0, 64, 78
1, 20468, Control_c, 0, 64, 51
1, 20483, Control_c, 0, 64, 0
1, 20523, Note_on_c, 0, 37, 51
1, 20553, Note_off_c, 0, 37, 63
1, 20676, Note_on_c, 0, 37, 50
1, 20717, Note_off_c, 0, 37, 64
1, 20829, Note_on_c, 0, 37, 49
1, 20867, Note_off_c, 0, 37, 63
1, 20985, Note_on_c, 0, 36, 43
1, 21001, Control_c, 0, 64, 52
1, 21016, Control_c, 0, 64, 58
1, 21031, Control_c, 0, 64, 65
1, 21046, Control_c, 0, 64, 72
1, 21060, Control_c, 0, 64, 78
1, 21074, Note_off_c, 0, 36, 55
1, 21075, Control_c, 0, 64, 81
1, 21090, Control_c, 0, 64, 81
1, 21105, Control_c, 0, 64, 82
1, 21120, Control_c, 0, 64, 84
1, 21136, Control_c, 0, 64, 85
1, 21157, Control_c, 0, 64, 86
1, 21172, Control_c, 0, 64, 87
1, 21202, Control_c, 0, 64, 87
1, 21306, Control_c, 0, 64, 87
1, 21321, Control_c, 0, 64, 86
1, 21335, Control_c, 0, 64, 84
1, 21350, Control_c, 0, 64, 82
1, 21365, Control_c, 0, 64, 79
1, 21380, Control_c, 0, 64, 75
1, 21395, Control_c, 0, 64, 71
1, 21409, Control_c, 0, 64, 66
1, 21424, Control_c, 0, 64, 63
1, 21439, Control_c, 0, 64, 62
1, 21454, Control_c, 0, 64, 61
1, 21469, Control_c, 0, 64, 58
1, 21483, Control_c, 0, 64, 51
1, 21498, Control_c, 0, 64, 42
1, 21513, Control_c, 0, 64, 32
1, 21528, Control_c, 0, 64, 21
1, 21543, Control_c, 0, 64, 0
1, 21883, Control_c, 0, 64, 16
1, 21898, Control_c, 0, 64, 25
1, 21920, Control_c, 0, 64, 27
1, 21936, Control_c, 0, 64, 28
1, 21951, Control_c, 0, 64, 29
1, 21966, Control_c, 0, 64, 32
1, 21970, Note_on_c, 0, 76, 71
1, 21975, Note_on_c, 0, 70, 51
1, 21976, Note_on_c, 0, 73, 50
1, 21977, Note_on_c, 0, 67, 48
1, 21980, Control_c, 0, 64, 36
1, 21995, Control_c, 0, 64, 40
1, 22010, Control_c, 0, 64, 41
1, 22025, Control_c, 0, 64, 42
1, 22039, Control_c, 0, 64, 44
1, 22054, Control_c, 0, 64, 45
1, 22069, Control_c, 0, 64, 46
1, 22084, Control_c, 0, 64, 47
1, 22099, Control_c, 0, 64, 48
1, 22113, Control_c, 0, 64, 51
1, 22128, Control_c, 0, 64, 53
1, 22143, Control_c, 0, 64, 56
1, 22158, Control_c, 0, 64, 58
1, 22173, Control_c, 0, 64, 60
1, 22188, Control_c, 0, 64, 61
1, 22203, Control_c, 0, 64, 62
1, 22218, Control_c, 0, 64, 63
1, 22232, Control_c, 0, 64, 64
1, 22247, Control_c, 0, 64, 65
1, 22262, Control_c, 0, 64, 68
1, 22277, Control_c, 0, 64, 70
1, 22292, Control_c, 0, 64, 74
1, 22306, Control_c, 0, 64, 76
1, 22321, Control_c, 0, 64, 78
1, 22336, Control_c, 0, 64, 80
1, 22350, Control_c, 0, 64, 83
1, 22365, Control_c, 0, 64, 85
1, 22380, Control_c, 0, 64, 86
1, 22395, Control_c, 0, 64, 88
1, 22410, Control_c, 0, 64, 89
1, 22424, Control_c, 0, 64, 90
1, 22439, Control_c, 0, 64, 91
1, 22454, Control_c, 0, 64, 92
1, 22468, Note_off_c, 0, 67, 57
1, 22469, Control_c, 0, 64, 93
1, 22484, Control_c, 0, 64, 94
1, 22498, Control_c, 0, 64, 95
1, 22513, Control_c, 0, 64, 96
1, 22528, Control_c, 0, 64, 97
1, 22543, Control_c, 0, 64, 97
1, 22573, Control_c, 0, 64, 98
1, 22579, Note_off_c, 0, 73, 54
1, 22587, Control_c, 0, 64, 98
1, 22632, Control_c, 0, 64, 99
1, 22699, Control_c, 0, 64, 99
1, 22789, Note_off_c, 0, 70, 61
1, 22798, Note_on_c, 0, 77, 76
1, 22907, Note_off_c, 0, 76, 63
1, 23011, Control_c, 0, 64, 99
1, 23026, Control_c, 0, 64, 96
1, 23041, Control_c, 0, 64, 90
1, 23045, Note_on_c, 0, 79, 82
1, 23054, Note_on_c, 0, 73, 73
1, 23055, Control_c, 0, 64, 79
1, 23055, Note_on_c, 0, 70, 68
1, 23057, Note_on_c, 0, 68, 68
1, 23070, Control_c, 0, 64, 66
1, 23085, Control_c, 0, 64, 0
1, 23086, Note_off_c, 0, 77, 63
1, 23187, Note_off_c, 0, 79, 63
1, 23199, Note_on_c, 0, 77, 79
1, 23218, Control_c, 0, 64, 64
1, 23233, Control_c, 0, 64, 73
1, 23247, Control_c, 0, 64, 82
1, 23252, Note_off_c, 0, 77, 60
1, 23262, Control_c, 0, 64, 87
1, 23277, Note_on_c, 0, 79, 77
1, 23277, Control_c, 0, 64, 90
1, 23292, Control_c, 0, 64, 93
1, 23303, Note_off_c, 0, 79, 63
1, 23307, Control_c, 0, 64, 96
1, 23321, Control_c, 0, 64, 98
1, 23336, Control_c, 0, 64, 101
1, 23342, Note_on_c, 0, 77, 73
1, 23351, Control_c, 0, 64, 102
1, 23362, Note_off_c, 0, 77, 63
1, 23366, Control_c, 0, 64, 103
1, 23380, Control_c, 0, 64, 104
1, 23395, Control_c, 0, 64, 106
1, 23406, Note_on_c, 0, 79, 64
1, 23418, Control_c, 0, 64, 107
1, 23422, Note_off_c, 0, 79, 64
1, 23433, Control_c, 0, 64, 108
1, 23443, Note_on_c, 0, 77, 76
1, 23448, Control_c, 0, 64, 110
1, 23462, Control_c, 0, 64, 111
1, 23468, Note_off_c, 0, 77, 64
1, 23477, Control_c, 0, 64, 112
1, 23492, Control_c, 0, 64, 112
1, 23500, Note_on_c, 0, 79, 63
1, 23507, Control_c, 0, 64, 113
1, 23522, Control_c, 0, 64, 114
1, 23532, Note_off_c, 0, 79, 60
1, 23538, Control_c, 0, 64, 114
1, 23553, Control_c, 0, 64, 115
1, 23555, Note_on_c, 0, 77, 66
1, 23568, Control_c, 0, 64, 116
1, 23571, Note_off_c, 0, 77, 67
1, 23583, Control_c, 0, 64, 116
1, 23598, Control_c, 0, 64, 117
1, 23612, Control_c, 0, 64, 117
1, 23619, Note_on_c, 0, 79, 47
1, 23627, Control_c, 0, 64, 118
1, 23640, Note_on_c, 0, 77, 71
1, 23643, Note_off_c, 0, 79, 54
1, 23657, Control_c, 0, 64, 118
1, 23666, Note_off_c, 0, 77, 65
1, 23686, Control_c, 0, 64, 119
1, 23716, Control_c, 0, 64, 119
1, 23720, Note_on_c, 0, 79, 62
1, 23738, Note_off_c, 0, 79, 62
1, 23745, Control_c, 0, 64, 120
1, 23752, Note_on_c, 0, 77, 70
1, 23785, Note_off_c, 0, 77, 58
1, 23791, Note_off_c, 0, 73, 54
1, 23801, Note_off_c, 0, 70, 52
1, 23805, Note_on_c, 0, 79, 75
1, 23844, Note_off_c, 0, 68, 61
1, 23853, Note_on_c, 0, 77, 65
1, 23858, Note_off_c, 0, 79, 63
1, 23881, Note_off_c, 0, 77, 66
1, 23914, Note_on_c, 0, 76, 68
1, 23980, Note_on_c, 0, 79, 61
1, 23981, Note_off_c, 0, 76, 58
1, 23996, Control_c, 0, 64, 119
1, 24011, Control_c, 0, 64, 113
1, 24022, Note_off_c, 0, 79, 59
1, 24026, Control_c, 0, 64, 103
1, 24041, Control_c, 0, 64, 91
1, 24047, Note_on_c, 0, 77, 68
1, 24056, Control_c, 0, 64, 77
1, 24070, Control_c, 0, 64, 60
1, 24085, Control_c, 0, 64, 0
1, 24094, Note_off_c, 0, 77, 57
1, 24151, Note_on_c, 0, 70, 46
1, 24152, Note_on_c, 0, 76, 65
1, 24152, Note_on_c, 0, 67, 41
1, 24162, Note_on_c, 0, 73, 44
1, 24226, Control_c, 0, 64, 60
1, 24241, Control_c, 0, 64, 75
1, 24249, Note_off_c, 0, 76, 67
1, 24251, Note_off_c, 0, 73, 65
1, 24256, Control_c, 0, 64, 87
1, 24271, Control_c, 0, 64, 94
1, 24272, Note_off_c, 0, 70, 65
1, 24282, Note_off_c, 0, 67, 63
1, 24285, Control_c, 0, 64, 95
1, 24300, Control_c, 0, 64, 97
1, 24315, Control_c, 0, 64, 98
1, 24331, Control_c, 0, 64, 99
1, 24346, Control_c, 0, 64, 99
1, 24537, Control_c, 0, 64, 96
1, 24552, Control_c, 0, 64, 88
1, 24567, Control_c, 0, 64, 75
1, 24582, Control_c, 0, 64, 45
1, 24597, Control_c, 0, 64, 0
1, 24608, Note_on_c, 0, 37, 51
1, 24641, Note_off_c, 0, 37, 64
1, 24771, Note_on_c, 0, 37, 46
1, 24806, Note_off_c, 0, 37, 65
1, 24920, Note_on_c, 0, 37, 51
1, 24960, Note_off_c, 0, 37, 63
1, 25078, Control_c, 0, 64, 63
1, 25089, Note_on_c, 0, 36, 43
1, 25093, Control_c, 0, 64, 71
1, 25107, Control_c, 0, 64, 81
1, 25123, Control_c, 0, 64, 87
1, 25127, Note_off_c, 0, 36, 62
1, 25138, Control_c, 0, 64, 89
1, 25168, Control_c, 0, 64, 90
1, 25182, Control_c, 0, 64, 91
1, 25197, Control_c, 0, 64, 93
1, 25212, Control_c, 0, 64, 95
1, 25228, Control_c, 0, 64, 96
1, 25420, Control_c, 0, 64, 95
1, 25435, Control_c, 0, 64, 93
1, 25449, Control_c, 0, 64, 90
1, 25464, Control_c, 0, 64, 85
1, 25479, Control_c, 0, 64, 79
1, 25494, Control_c, 0, 64, 70
1, 25509, Control_c, 0, 64, 61
1, 25524, Control_c, 0, 64, 26
1, 25539, Control_c, 0, 64, 0
1, 25547, Note_on_c, 0, 79, 50
1, 25552, Note_on_c, 0, 76, 48
1, 25572, Note_off_c, 0, 79, 57
1, 25582, Note_off_c, 0, 76, 58
1, 25694, Note_on_c, 0, 76, 58
1, 25694, Note_on_c, 0, 79, 62
1, 25739, Note_off_c, 0, 79, 63
1, 25741, Note_off_c, 0, 76, 62
1, 25857, Note_on_c, 0, 79, 64
1, 25859, Note_on_c, 0, 76, 57
1, 25892, Note_off_c, 0, 76, 60
1, 25893, Note_off_c, 0, 79, 59
1, 26021, Control_c, 0, 64, 42
1, 26023, Note_on_c, 0, 82, 62
1, 26034, Note_on_c, 0, 79, 46
1, 26036, Control_c, 0, 64, 65
1, 26051, Control_c, 0, 64, 72
1, 26064, Note_off_c, 0, 79, 54
1, 26066, Control_c, 0, 64, 79
1, 26078, Note_off_c, 0, 82, 63
1, 26080, Control_c, 0, 64, 84
1, 26095, Control_c, 0, 64, 87
1, 26110, Control_c, 0, 64, 88
1, 26125, Control_c, 0, 64, 90
1, 26140, Control_c, 0, 64, 91
1, 26154, Control_c, 0, 64, 91
1, 26169, Control_c, 0, 64, 92
1, 26243, Control_c, 0, 64, 91
1, 26302, Control_c, 0, 64, 90
1, 26317, Control_c, 0, 64, 89
1, 26331, Control_c, 0, 64, 87
1, 26346, Control_c, 0, 64, 84
1, 26361, Control_c, 0, 64, 82
1, 26376, Control_c, 0, 64, 79
1, 26391, Control_c, 0, 64, 76
1, 26413, Control_c, 0, 64, 70
1, 26428, Control_c, 0, 64, 64
1, 26443, Control_c, 0, 64, 57
1, 26458, Control_c, 0, 64, 53
1, 26473, Control_c, 0, 64, 49
1, 26487, Control_c, 0, 64, 44
1, 26502, Control_c, 0, 64, 27
1, 26517, Control_c, 0, 64, 0
1, 26555, Note_on_c, 0, 37, 43
1, 26594, Note_off_c, 0, 37, 60
1, 26731, Note_on_c, 0, 37, 45
1, 26769, Note_off_c, 0, 37, 63
1, 26799, Control_c, 0, 64, 25
1, 26814, Control_c, 0, 64, 34
1, 26829, Control_c, 0, 64, 38
1, 26844, Control_c, 0, 64, 38
1, 26889, Control_c, 0, 64, 39
1, 26918, Control_c, 0, 64, 38
1, 26919, Note_on_c, 0, 37, 37
1, 26933, Control_c, 0, 64, 38
1, 26947, Control_c, 0, 64, 37
1, 26959, Note_off_c, 0, 37, 61
1, 26962, Control_c, 0, 64, 36
1, 26977, Control_c, 0, 64, 33
1, 26992, Control_c, 0, 64, 29
1, 27007, Control_c, 0, 64, 24
1, 27021, Control_c, 0, 64, 10
1, 27036, Control_c, 0, 64, 0
1, 27153, Note_on_c, 0, 36, 36
1, 27162, Control_c, 0, 64, 46
1, 27177, Control_c, 0, 64, 69
1, 27192, Control_c, 0, 64, 77
1, 27207, Control_c, 0, 64, 83
1, 27221, Control_c, 0, 64, 86
1, 27225, Note_off_c, 0, 36, 61
1, 27236, Control_c, 0, 64, 86
1, 27251, Control_c, 0, 64, 87
1, 27266, Control_c, 0, 64, 88
1, 27281, Control_c, 0, 64, 89
1, 27296, Control_c, 0, 64, 90
1, 27310, Control_c, 0, 64, 91
1, 27325, Control_c, 0, 64, 91
1, 27340, Control_c, 0, 64, 92
1, 27369, Control_c, 0, 64, 92
1, 27428, Control_c, 0, 64, 93
1, 27458, Control_c, 0, 64, 93
1, 27533, Control_c, 0, 64, 92
1, 27548, Control_c, 0, 64, 86
1, 27563, Control_c, 0, 64, 68
1, 27577, Control_c, 0, 64, 0
1, 27708, Note_on_c, 0, 82, 91
1, 27709, Note_on_c, 0, 79, 91
1, 27712, Control_c, 0, 64, 42
1, 27726, Control_c, 0, 64, 101
1, 27741, Control_c, 0, 64, 127
1, 27744, Note_off_c, 0, 82, 67
1, 27755, Note_off_c, 0, 79, 64
1, 27841, Note_on_c, 0, 82, 91
1, 27846, Note_on_c, 0, 79, 78
1, 27878, Note_off_c, 0, 82, 65
1, 27886, Note_off_c, 0, 79, 58
1, 27969, Note_on_c, 0, 82, 95
1, 27978, Note_on_c, 0, 79, 75
1, 28018, Note_off_c, 0, 82, 63
1, 28031, Note_off_c, 0, 79, 62
1, 28084, Note_on_c, 0, 88, 102
1, 28156, Note_on_c, 0, 82, 98
1, 28156, Note_off_c, 0, 88, 64
1, 28209, Note_on_c, 0, 91, 87
1, 28211, Note_off_c, 0, 82, 65
1, 28236, Note_off_c, 0, 91, 54
1, 28264, Note_on_c, 0, 88, 90
1, 28332, Note_on_c, 0, 94, 88
1, 28338, Note_off_c, 0, 88, 60
1, 28385, Note_on_c, 0, 91, 92
1, 28388, Note_off_c, 0, 94, 66
1, 28434, Note_off_c, 0, 91, 63
1, 28442, Note_on_c, 0, 88, 78
1, 28463, Note_off_c, 0, 88, 70
1, 28500, Note_on_c, 0, 91, 91
1, 28552, Note_off_c, 0, 91, 58
1, 28563, Note_on_c, 0, 82, 90
1, 28605, Note_off_c, 0, 82, 64
1, 28616, Note_on_c, 0, 88, 74
1, 28649, Note_off_c, 0, 88, 64
1, 28664, Note_on_c, 0, 79, 83
1, 28725, Note_off_c, 0, 79, 62
1, 28734, Note_on_c, 0, 82, 90
1, 28776, Note_off_c, 0, 82, 63
1, 28796, Note_on_c, 0, 76, 78
1, 28828, Note_off_c, 0, 76, 61
1, 28849, Note_on_c, 0, 79, 83
1, 28899, Note_off_c, 0, 79, 61
1, 28910, Note_on_c, 0, 70, 86
1, 28951, Note_off_c, 0, 70, 63
1, 28962, Note_on_c, 0, 76, 73
1, 28988, Note_off_c, 0, 76, 66
1, 29010, Note_on_c, 0, 67, 81
1, 29059, Note_off_c, 0, 67, 56
1, 29074, Note_on_c, 0, 70, 91
1, 29117, Note_off_c, 0, 70, 61
1, 29136, Note_on_c, 0, 64, 78
1, 29168, Note_off_c, 0, 64, 62
1, 29188, Note_on_c, 0, 67, 86
1, 29232, Note_off_c, 0, 67, 61
1, 29256, Note_on_c, 0, 58, 85
1, 29306, Note_off_c, 0, 58, 65
1, 29310, Note_on_c, 0, 64, 77
1, 29338, Note_off_c, 0, 64, 66
1, 29360, Note_on_c, 0, 55, 79
1, 29415, Note_off_c, 0, 55, 62
1, 29438, Note_on_c, 0, 58, 82
1, 29468, Note_off_c, 0, 58, 61
1, 29496, Note_on_c, 0, 52, 79
1, 29527, Note_off_c, 0, 52, 64
1, 29556, Note_on_c, 0, 55, 82
1, 29600, Note_off_c, 0, 55, 63
1, 29622, Note_on_c, 0, 46, 81
1, 29669, Note_off_c, 0, 46, 60
1, 29671, Note_on_c, 0, 52, 84
1, 29706, Note_off_c, 0, 52, 67
1, 29735, Note_on_c, 0, 31, 87
1, 29795, Note_on_c, 0, 34, 74
1, 29861, Note_on_c, 0, 40, 79
1, 29876, Note_off_c, 0, 31, 62
1, 29887, Note_off_c, 0, 34, 62
1, 29925, Note_off_c, 0, 40, 64
1, 29926, Note_on_c, 0, 43, 81
1, 29992, Note_on_c, 0, 46, 87
1, 29999, Note_off_c, 0, 43, 63
1, 30042, Note_off_c, 0, 46, 64
1, 30054, Note_on_c, 0, 49, 90
1, 30090, Note_off_c, 0, 49, 62
1, 30110, Note_on_c, 0, 52, 80
1, 30175, Note_on_c, 0, 55, 90
1, 30185, Note_off_c, 0, 52, 66
1, 30239, Note_on_c, 0, 58, 103
1, 30242, Note_off_c, 0, 55, 66
1, 30275, Note_off_c, 0, 58, 73
1, 30409, Control_c, 0, 64, 102
1, 30424, Control_c, 0, 64, 65
1, 30439, Control_c, 0, 64, 0
1, 30719, Note_on_c, 0, 61, 103
1, 30720, Note_on_c, 0, 56, 101
1, 30723, Note_on_c, 0, 49, 94
1, 30728, Note_on_c, 0, 41, 99
1, 30729, Note_on_c, 0, 29, 96
1, 30736, Control_c, 0, 64, 88
1, 30743, Note_off_c, 0, 49, 70
1, 30747, Note_off_c, 0, 41, 72
1, 30751, Control_c, 0, 64, 127
1, 30755, Note_off_c, 0, 56, 68
1, 30758, Note_off_c, 0, 61, 67
1, 30758, Note_off_c, 0, 29, 66
1, 30851, Poly_aftertouch_c, 0, 41, 127
1, 30893, Poly_aftertouch_c, 0, 41, 0
1, 30981, Control_c, 0, 64, 119
1, 30995, Control_c, 0, 64, 109
1, 31010, Control_c, 0, 64, 100
1, 31025, Control_c, 0, 64, 95
1, 31040, Control_c, 0, 64, 90
1, 31055, Control_c, 0, 64, 84
1, 31069, Control_c, 0, 64, 77
1, 31084, Control_c, 0, 64, 70
1, 31099, Control_c, 0, 64, 63
1, 31114, Control_c, 0, 64, 58
1, 31128, Control_c, 0, 64, 52
1, 31143, Control_c, 0, 64, 36
1, 31158, Control_c, 0, 64, 0
1, 31545, Note_on_c, 0, 60, 47
1, 31563, Note_on_c, 0, 55, 39
1, 31564, Note_on_c, 0, 40, 34
1, 31566, Note_on_c, 0, 52, 39
1, 31581, Note_on_c, 0, 48, 29
1, 32323, Control_c, 0, 64, 18
1, 32338, Control_c, 0, 64, 39
1, 32353, Control_c, 0, 64, 45
1, 32368, Control_c, 0, 64, 48
1, 32390, Control_c, 0, 64, 50
1, 32405, Control_c, 0, 64, 53
1, 32420, Control_c, 0, 64, 56
1, 32435, Control_c, 0, 64, 59
1, 32449, Control_c, 0, 64, 61
1, 32464, Control_c, 0, 64, 61
1, 32479, Control_c, 0, 64, 62
1, 32494, Control_c, 0, 64, 63
1, 32509, Control_c, 0, 64, 65
1, 32523, Control_c, 0, 64, 66
1, 32538, Control_c, 0, 64, 68
1, 32553, Control_c, 0, 64, 70
1, 32568, Control_c, 0, 64, 71
1, 32582, Control_c, 0, 64, 73
1, 32597, Control_c, 0, 64, 75
1, 32612, Control_c, 0, 64, 77
1, 32627, Control_c, 0, 64, 79
1, 32642, Control_c, 0, 64, 81
1, 32657, Control_c, 0, 64, 83
1, 32672, Control_c, 0, 64, 85
1, 32687, Control_c, 0, 64, 87
1, 32702, Control_c, 0, 64, 89
1, 32715, Control_c, 0, 64, 90
1, 32730, Control_c, 0, 64, 92
1, 32745, Control_c, 0, 64, 94
1, 32759, Control_c, 0, 64, 95
1, 32774, Control_c, 0, 64, 97
1, 32779, Note_off_c, 0, 48, 42
1, 32788, Note_off_c, 0, 52, 36
1, 32789, Control_c, 0, 64, 98
1, 32804, Control_c, 0, 64, 99
1, 32819, Control_c, 0, 64, 100
1, 32834, Control_c, 0, 64, 101
1, 32848, Control_c, 0, 64, 101
1, 32863, Control_c, 0, 64, 102
1, 32878, Control_c, 0, 64, 103
1, 32893, Control_c, 0, 64, 104
1, 32908, Control_c, 0, 64, 105
1, 32922, Control_c, 0, 64, 106
1, 32924, Note_off_c, 0, 40, 41
1, 32925, Note_off_c, 0, 55, 43
1, 32952, Control_c, 0, 64, 106
1, 32982, Control_c, 0, 64, 107
1, 33041, Control_c, 0, 64, 107
1, 33246, Note_off_c, 0, 60, 35
1, 33656, Control_c, 0, 64, 107
1, 33671, Control_c, 0, 64, 101
1, 33686, Control_c, 0, 64, 91
1, 33696, Note_on_c, 0, 36, 43
1, 33701, Control_c, 0, 64, 78
1, 33702, Note_on_c, 0, 60, 51
1, 33715, Control_c, 0, 64, 64
1, 33730, Control_c, 0, 64, 0
1, 33790, Control_c, 0, 64, 49
1, 33805, Control_c, 0, 64, 62
1, 33819, Control_c, 0, 64, 64
1, 33834, Control_c, 0, 64, 66
1, 33849, Control_c, 0, 64, 69
1, 33864, Control_c, 0, 64, 71
1, 33879, Control_c, 0, 64, 73
1, 33901, Control_c, 0, 64, 74
1, 33946, Control_c, 0, 64, 72
1, 33961, Control_c, 0, 64, 63
1, 33976, Control_c, 0, 64, 0
1, 33983, Note_off_c, 0, 60, 61
1, 33999, Note_on_c, 0, 32, 54
1, 34007, Note_on_c, 0, 56, 80
1, 34011, Note_off_c, 0, 36, 51
1, 34029, Note_off_c, 0, 32, 62
1, 34038, Note_off_c, 0, 56, 66
1, 34064, Note_on_c, 0, 29, 118
1, 34079, Note_on_c, 0, 53, 94
1, 34094, Control_c, 0, 64, 86
1, 34109, Control_c, 0, 64, 127
1, 34129, Note_off_c, 0, 29, 63
1, 34169, Note_off_c, 0, 53, 63
1, 34222, Poly_aftertouch_c, 0, 29, 127
1, 34226, Note_on_c, 0, 53, 90
1, 34228, Note_on_c, 0, 60, 82
1, 34230, Note_on_c, 0, 56, 83
1, 34230, Note_on_c, 0, 65, 93
1, 34261, Poly_aftertouch_c, 0, 29, 0
1, 34287, Note_off_c, 0, 53, 66
1, 34305, Note_off_c, 0, 56, 65
1, 34305, Note_off_c, 0, 60, 63
1, 34319, Note_off_c, 0, 65, 62
1, 34348, Note_on_c, 0, 41, 91
1, 34351, Note_on_c, 0, 32, 83
1, 34355, Note_on_c, 0, 29, 78
1, 34355, Note_on_c, 0, 36, 80
1, 34478, Note_on_c, 0, 65, 88
1, 34478, Note_on_c, 0, 68, 97
1, 34478, Note_on_c, 0, 56, 91
1, 34480, Note_on_c, 0, 60, 89
1, 34511, Note_off_c, 0, 29, 55
1, 34519, Note_off_c, 0, 32, 58
1, 34526, Note_off_c, 0, 41, 53
1, 34526, Note_off_c, 0, 56, 66
1, 34541, Note_off_c, 0, 60, 61
1, 34563, Note_off_c, 0, 65, 65
1, 34568, Note_off_c, 0, 36, 55
1, 34586, Note_off_c, 0, 68, 63
1, 34597, Note_on_c, 0, 36, 59
1, 34599, Note_on_c, 0, 41, 91
1, 34602, Note_on_c, 0, 32, 78
1, 34612, Note_on_c, 0, 29, 81
1, 34735, Note_on_c, 0, 68, 95
1, 34738, Note_on_c, 0, 65, 92
1, 34738, Note_on_c, 0, 72, 94
1, 34741, Note_on_c, 0, 60, 93
1, 34767, Note_off_c, 0, 29, 57
1, 34782, Note_off_c, 0, 36, 60
1, 34788, Note_off_c, 0, 60, 63
1, 34789, Note_off_c, 0, 41, 60
1, 34794, Note_off_c, 0, 65, 66
1, 34795, Note_off_c, 0, 32, 54
1, 34819, Note_off_c, 0, 68, 65
1, 34825, Note_off_c, 0, 72, 63
1, 34849, Note_on_c, 0, 41, 88
1, 34853, Note_on_c, 0, 32, 69
1, 34857, Note_on_c, 0, 36, 76
1, 34865, Note_on_c, 0, 29, 83
1, 34975, Note_on_c, 0, 77, 103
1, 34976, Note_on_c, 0, 72, 92
1, 34980, Note_on_c, 0, 65, 94
1, 34982, Note_on_c, 0, 68, 93
1, 34996, Note_off_c, 0, 29, 57
1, 35030, Note_off_c, 0, 41, 61
1, 35040, Note_off_c, 0, 65, 64
1, 35049, Note_off_c, 0, 72, 67
1, 35054, Note_off_c, 0, 77, 58
1, 35054, Note_off_c, 0, 68, 64
1, 35060, Note_off_c, 0, 36, 61
1, 35069, Note_off_c, 0, 32, 0
1, 35088, Note_on_c, 0, 32, 43
1, 35092, Note_on_c, 0, 41, 93
1, 35095, Note_on_c, 0, 36, 61
1, 35098, Note_on_c, 0, 29, 86
1, 35211, Note_on_c, 0, 77, 87
1, 35216, Note_on_c, 0, 68, 98
1, 35218, Note_on_c, 0, 80, 95
1, 35219, Note_on_c, 0, 72, 91
1, 35229, Note_off_c, 0, 29, 50
1, 35247, Note_off_c, 0, 41, 61
1, 35269, Note_off_c, 0, 72, 64
1, 35271, Note_off_c, 0, 68, 63
1, 35289, Note_off_c, 0, 32, 54
1, 35298, Note_off_c, 0, 36, 56
1, 35298, Note_off_c, 0, 77, 63
1, 35314, Note_off_c, 0, 80, 63
1, 35341, Note_on_c, 0, 32, 71
1, 35345, Note_on_c, 0, 41, 90
1, 35347, Note_on_c, 0, 36, 67
1, 35362, Note_on_c, 0, 29, 73
1, 35480, Note_on_c, 0, 84, 96
1, 35480, Note_on_c, 0, 72, 93
1, 35480, Note_on_c, 0, 77, 87
1, 35480, Note_off_c, 0, 36, 48
1, 35481, Note_on_c, 0, 80, 91
1, 35483, Note_off_c, 0, 29, 53
1, 35491, Note_off_c, 0, 32, 52
1, 35498, Note_off_c, 0, 41, 53
1, 35507, Note_off_c, 0, 77, 64
1, 35518, Note_off_c, 0, 72, 64
1, 35531, Note_off_c, 0, 80, 66
1, 35545, Note_off_c, 0, 84, 65
1, 35658, Note_on_c, 0, 84, 115
1, 35659, Note_on_c, 0, 89, 106
1, 35660, Note_on_c, 0, 32, 78
1, 35660, Note_on_c, 0, 77, 100
1, 35662, Note_on_c, 0, 80, 93
1, 35664, Note_on_c, 0, 41, 92
1, 35665, Note_on_c, 0, 36, 88
1, 35668, Note_on_c, 0, 29, 91
1, 36432, Note_off_c, 0, 89, 53
1, 36535, Note_off_c, 0, 77, 49
1, 36539, Note_off_c, 0, 84, 58
1, 36540, Note_off_c, 0, 29, 53
1, 36550, Note_off_c, 0, 41, 50
1, 36581, Note_off_c, 0, 80, 59
1, 36607, Note_off_c, 0, 32, 57
1, 36838, Note_off_c, 0, 36, 56
1, 36896, Control_c, 0, 64, 117
1, 36911, Control_c, 0, 64, 112
1, 36926, Control_c, 0, 64, 109
1, 36940, Control_c, 0, 64, 106
1, 36955, Control_c, 0, 64, 102
1, 36970, Control_c, 0, 64, 96
1, 36985, Control_c, 0, 64, 89
1, 37000, Control_c, 0, 64, 82
1, 37014, Control_c, 0, 64, 75
1, 37029, Control_c, 0, 64, 67
1, 37044, Control_c, 0, 64, 54
1, 37058, Control_c, 0, 64, 0
1, 37069, Note_on_c, 0, 56, 48
1, 37077, Note_on_c, 0, 32, 39
1, 37371, Note_on_c, 0, 36, 44
1, 37382, Note_on_c, 0, 60, 45
1, 37406, Note_off_c, 0, 32, 52
1, 37462, Note_off_c, 0, 56, 61
1, 37469, Note_on_c, 0, 41, 46
1, 37480, Note_on_c, 0, 65, 56
1, 37492, Note_off_c, 0, 36, 53
1, 37506, Note_off_c, 0, 60, 61
1, 37873, Note_on_c, 0, 68, 63
1, 37881, Note_on_c, 0, 44, 44
1, 37924, Note_off_c, 0, 41, 58
1, 38018, Note_off_c, 0, 65, 38
1, 38173, Note_on_c, 0, 48, 46
1, 38185, Note_on_c, 0, 72, 54
1, 38265, Note_off_c, 0, 44, 37
1, 38300, Note_on_c, 0, 53, 46
1, 38301, Note_on_c, 0, 77, 68
1, 38321, Note_off_c, 0, 68, 57
1, 38350, Note_off_c, 0, 72, 63
1, 38358, Note_off_c, 0, 48, 42
1, 38526, Control_c, 0, 64, 50
1, 38541, Control_c, 0, 64, 60
1, 38556, Control_c, 0, 64, 63
1, 38571, Control_c, 0, 64, 64
1, 38586, Control_c, 0, 64, 64
1, 38601, Control_c, 0, 64, 65
1, 38616, Control_c, 0, 64, 66
1, 38631, Control_c, 0, 64, 67
1, 38646, Control_c, 0, 64, 69
1, 38660, Control_c, 0, 64, 70
1, 38721, Control_c, 0, 64, 70
1, 38735, Control_c, 0, 64, 71
1, 38750, Note_on_c, 0, 65, 57
1, 38750, Control_c, 0, 64, 72
1, 38753, Note_on_c, 0, 41, 50
1, 38765, Control_c, 0, 64, 73
1, 38780, Control_c, 0, 64, 75
1, 38795, Control_c, 0, 64, 79
1, 38810, Control_c, 0, 64, 84
1, 38823, Note_off_c, 0, 41, 65
1, 38824, Control_c, 0, 64, 89
1, 38839, Control_c, 0, 64, 94
1, 38854, Control_c, 0, 64, 98
1, 38869, Control_c, 0, 64, 102
1, 38877, Note_off_c, 0, 53, 64
1, 38884, Note_off_c, 0, 77, 61
1, 38884, Control_c, 0, 64, 108
1, 38899, Control_c, 0, 64, 114
1, 38914, Control_c, 0, 64, 121
1, 38928, Control_c, 0, 64, 127
1, 38957, Note_off_c, 0, 65, 64
1, 39076, Control_c, 0, 64, 101
1, 39091, Control_c, 0, 64, 76
1, 39106, Control_c, 0, 64, 0
1, 39135, Note_on_c, 0, 60, 94
1, 39136, Note_on_c, 0, 52, 91
1, 39138, Note_on_c, 0, 55, 95
1, 39158, Control_c, 0, 64, 73
1, 39167, Note_off_c, 0, 60, 65
1, 39173, Control_c, 0, 64, 127
1, 39178, Note_off_c, 0, 55, 68
1, 39185, Note_off_c, 0, 52, 68
1, 39289, Note_on_c, 0, 64, 91
1, 39293, Note_on_c, 0, 60, 87
1, 39295, Note_on_c, 0, 55, 87
1, 39341, Note_off_c, 0, 55, 64
1, 39345, Note_off_c, 0, 60, 63
1, 39375, Note_off_c, 0, 64, 65
1, 39412, Note_on_c, 0, 48, 99
1, 39415, Note_on_c, 0, 40, 87
1, 39415, Note_on_c, 0, 43, 89
1, 39539, Note_off_c, 0, 43, 57
1, 39549, Note_on_c, 0, 67, 94
1, 39550, Note_on_c, 0, 64, 92
1, 39551, Note_off_c, 0, 40, 57
1, 39552, Note_off_c, 0, 48, 56
1, 39556, Note_on_c, 0, 60, 82
1, 39602, Note_off_c, 0, 60, 59
1, 39615, Note_off_c, 0, 64, 64
1, 39635, Note_off_c, 0, 67, 65
1, 39668, Note_on_c, 0, 48, 94
1, 39673, Note_on_c, 0, 40, 85
1, 39673, Note_on_c, 0, 43, 86
1, 39805, Note_on_c, 0, 72, 100
1, 39808, Note_on_c, 0, 67, 90
1, 39808, Note_on_c, 0, 64, 89
1, 39829, Note_off_c, 0, 40, 57
1, 39840, Note_off_c, 0, 43, 50
1, 39840, Note_off_c, 0, 48, 59
1, 39856, Note_off_c, 0, 64, 64
1, 39864, Note_off_c, 0, 67, 62
1, 39901, Note_off_c, 0, 72, 61
1, 39928, Note_on_c, 0, 48, 97
1, 39931, Note_on_c, 0, 43, 87
1, 39936, Note_on_c, 0, 40, 83
1, 40053, Note_on_c, 0, 76, 95
1, 40056, Note_on_c, 0, 72, 93
1, 40059, Note_on_c, 0, 67, 85
1, 40070, Note_off_c, 0, 40, 56
1, 40099, Note_off_c, 0, 43, 36
1, 40102, Note_off_c, 0, 67, 61
1, 40103, Note_off_c, 0, 48, 57
1, 40106, Note_off_c, 0, 72, 66
1, 40133, Note_off_c, 0, 76, 68
1, 40166, Note_on_c, 0, 48, 87
1, 40168, Note_on_c, 0, 43, 79
1, 40176, Note_on_c, 0, 40, 77
1, 40260, Note_off_c, 0, 43, 53
1, 40287, Note_on_c, 0, 79, 100
1, 40290, Note_on_c, 0, 76, 89
1, 40296, Note_on_c, 0, 72, 79
1, 40316, Note_off_c, 0, 48, 37
1, 40325, Note_off_c, 0, 40, 48
1, 40330, Note_off_c, 0, 72, 63
1, 40347, Note_off_c, 0, 76, 63
1, 40371, Note_off_c, 0, 79, 66
1, 40408, Note_on_c, 0, 40, 57
1, 40413, Note_on_c, 0, 48, 85
1, 40417, Note_on_c, 0, 43, 82
1, 40454, Note_off_c, 0, 40, 62
1, 40456, Note_off_c, 0, 48, 63
1, 40475, Note_off_c, 0, 43, 63
1, 40558, Note_on_c, 0, 84, 97
1, 40566, Note_on_c, 0, 79, 82
1, 40570, Note_on_c, 0, 76, 71
1, 40589, Note_off_c, 0, 79, 67
1, 40594, Note_off_c, 0, 76, 71
1, 40607, Note_off_c, 0, 84, 67
1, 40893, Control_c, 0, 64, 120
1, 40907, Control_c, 0, 64, 109
1, 40922, Control_c, 0, 64, 98
1, 40937, Control_c, 0, 64, 86
1, 40952, Control_c, 0, 64, 71
1, 40967, Control_c, 0, 64, 50
1, 40981, Control_c, 0, 64, 0
1, 41007, Note_on_c, 0, 72, 69
1, 41035, Note_on_c, 0, 64, 37
1, 41039, Note_on_c, 0, 67, 34
1, 41493, Control_c, 0, 64, 46
1, 41508, Control_c, 0, 64, 64
1, 41522, Control_c, 0, 64, 71
1, 41537, Control_c, 0, 64, 77
1, 41552, Control_c, 0, 64, 80
1, 41567, Control_c, 0, 64, 83
1, 41582, Control_c, 0, 64, 86
1, 41597, Control_c, 0, 64, 90
1, 41612, Control_c, 0, 64, 93
1, 41626, Control_c, 0, 64, 95
1, 41641, Control_c, 0, 64, 96
1, 41656, Control_c, 0, 64, 97
1, 41671, Control_c, 0, 64, 98
1, 41686, Control_c, 0, 64, 100
1, 41701, Control_c, 0, 64, 100
1, 41704, Note_off_c, 0, 67, 52
1, 41706, Note_off_c, 0, 64, 62
1, 41716, Control_c, 0, 64, 101
1, 41736, Note_on_c, 0, 74, 65
1, 41761, Control_c, 0, 64, 101
1, 41811, Note_off_c, 0, 72, 59
1, 41925, Control_c, 0, 64, 99
1, 41939, Control_c, 0, 64, 94
1, 41941, Note_on_c, 0, 76, 72
1, 41943, Note_on_c, 0, 71, 53
1, 41948, Note_on_c, 0, 68, 56
1, 41948, Note_off_c, 0, 74, 64
1, 41948, Note_on_c, 0, 65, 51
1, 41954, Control_c, 0, 64, 85
1, 41969, Control_c, 0, 64, 73
1, 41984, Control_c, 0, 64, 54
1, 41999, Control_c, 0, 64, 0
1, 42035, Note_off_c, 0, 76, 66
1, 42055, Note_on_c, 0, 74, 71
1, 42087, Control_c, 0, 64, 63
1, 42097, Note_off_c, 0, 74, 63
1, 42102, Control_c, 0, 64, 74
1, 42117, Control_c, 0, 64, 83
1, 42139, Control_c, 0, 64, 91
1, 42142, Note_on_c, 0, 76, 65
1, 42154, Control_c, 0, 64, 95
1, 42160, Note_off_c, 0, 76, 67
1, 42169, Control_c, 0, 64, 98
1, 42184, Control_c, 0, 64, 101
1, 42196, Note_on_c, 0, 74, 68
1, 42199, Control_c, 0, 64, 106
1, 42214, Control_c, 0, 64, 109
1, 42215, Note_off_c, 0, 74, 66
1, 42228, Control_c, 0, 64, 113
1, 42243, Control_c, 0, 64, 116
1, 42244, Note_on_c, 0, 76, 66
1, 42258, Control_c, 0, 64, 119
1, 42271, Note_off_c, 0, 76, 68
1, 42273, Control_c, 0, 64, 123
1, 42287, Control_c, 0, 64, 127
1, 42292, Note_on_c, 0, 74, 62
1, 42321, Note_off_c, 0, 74, 67
1, 42357, Note_on_c, 0, 76, 54
1, 42378, Note_off_c, 0, 76, 63
1, 42424, Note_on_c, 0, 74, 28
1, 42456, Note_on_c, 0, 76, 57
1, 42458, Note_off_c, 0, 74, 47
1, 42494, Note_on_c, 0, 74, 61
1, 42506, Note_off_c, 0, 71, 61
1, 42508, Note_off_c, 0, 76, 66
1, 42525, Note_off_c, 0, 74, 63
1, 42544, Note_off_c, 0, 68, 64
1, 42554, Note_on_c, 0, 72, 78
1, 42558, Note_off_c, 0, 65, 65
1, 42622, Note_on_c, 0, 76, 76
1, 42627, Note_off_c, 0, 72, 63
1, 42688, Note_on_c, 0, 74, 85
1, 42691, Note_off_c, 0, 76, 67
1, 42723, Note_off_c, 0, 74, 62
1, 42747, Control_c, 0, 64, 111
1, 42762, Control_c, 0, 64, 75
1, 42777, Control_c, 0, 64, 0
1, 42793, Note_on_c, 0, 60, 101
1, 42794, Note_on_c, 0, 52, 99
1, 42795, Note_on_c, 0, 55, 98
1, 42822, Control_c, 0, 64, 73
1, 42831, Note_off_c, 0, 60, 67
1, 42837, Control_c, 0, 64, 103
1, 42843, Note_off_c, 0, 55, 69
1, 42851, Control_c, 0, 64, 127
1, 42853, Note_off_c, 0, 52, 66
1, 42960, Note_on_c, 0, 64, 88
1, 42962, Note_on_c, 0, 55, 86
1, 42962, Note_on_c, 0, 60, 81
1, 43007, Note_off_c, 0, 55, 65
1, 43019, Note_off_c, 0, 60, 61
1, 43045, Note_off_c, 0, 64, 64
1, 43081, Note_on_c, 0, 48, 92
1, 43082, Note_on_c, 0, 40, 84
1, 43082, Note_on_c, 0, 43, 86
1, 43203, Note_on_c, 0, 67, 91
1, 43204, Note_on_c, 0, 64, 92
1, 43211, Note_on_c, 0, 60, 82
1, 43233, Note_off_c, 0, 40, 58
1, 43233, Note_off_c, 0, 48, 56
1, 43233, Note_off_c, 0, 43, 50
1, 43268, Note_off_c, 0, 60, 61
1, 43283, Note_off_c, 0, 64, 65
1, 43297, Note_off_c, 0, 67, 63
1, 43331, Note_on_c, 0, 48, 94
1, 43336, Note_on_c, 0, 43, 91
1, 43337, Note_on_c, 0, 40, 84
1, 43464, Note_on_c, 0, 72, 94
1, 43465, Note_on_c, 0, 67, 96
1, 43466, Note_on_c, 0, 64, 91
1, 43498, Note_off_c, 0, 48, 54
1, 43499, Note_off_c, 0, 40, 60
1, 43510, Note_off_c, 0, 43, 52
1, 43513, Note_off_c, 0, 64, 64
1, 43526, Note_off_c, 0, 67, 63
1, 43551, Note_off_c, 0, 72, 65
1, 43579, Note_on_c, 0, 48, 86
1, 43582, Note_on_c, 0, 43, 84
1, 43585, Note_on_c, 0, 40, 84
1, 43717, Note_on_c, 0, 76, 98
1, 43720, Note_on_c, 0, 72, 91
1, 43723, Note_on_c, 0, 67, 81
1, 43759, Note_off_c, 0, 48, 56
1, 43768, Note_off_c, 0, 40, 57
1, 43768, Note_off_c, 0, 43, 52
1, 43768, Note_off_c, 0, 67, 63
1, 43777, Note_off_c, 0, 72, 64
1, 43800, Note_off_c, 0, 76, 69
1, 43830, Note_on_c, 0, 43, 77
1, 43830, Note_on_c, 0, 48, 86
1, 43832, Note_on_c, 0, 40, 72
1, 43920, Note_off_c, 0, 40, 52
1, 43928, Note_off_c, 0, 43, 56
1, 43957, Note_off_c, 0, 48, 56
1, 43958, Note_on_c, 0, 79, 97
1, 43961, Note_on_c, 0, 76, 90
1, 43965, Note_on_c, 0, 72, 79
1, 43998, Note_off_c, 0, 72, 61
1, 44017, Note_off_c, 0, 76, 66
1, 44041, Note_off_c, 0, 79, 66
1, 44079, Note_on_c, 0, 40, 66
1, 44082, Note_on_c, 0, 48, 89
1, 44088, Note_on_c, 0, 43, 85
1, 44110, Note_off_c, 0, 48, 66
1, 44119, Note_off_c, 0, 40, 65
1, 44139, Note_off_c, 0, 43, 61
1, 44231, Note_on_c, 0, 84, 95
1, 44241, Note_on_c, 0, 79, 74
1, 44242, Note_on_c, 0, 76, 73
1, 44263, Note_off_c, 0, 79, 69
1, 44267, Note_off_c, 0, 76, 68
1, 44286, Note_off_c, 0, 84, 65
1, 44503, Control_c, 0, 64, 115
1, 44518, Control_c, 0, 64, 101
1, 44533, Control_c, 0, 64, 87
1, 44548, Control_c, 0, 64, 72
1, 44563, Control_c, 0, 64, 47
1, 44578, Control_c, 0, 64, 0
1, 44627, Note_on_c, 0, 72, 62
1, 44643, Note_on_c, 0, 67, 37
1, 44649, Note_on_c, 0, 64, 43
1, 45052, Control_c, 0, 64, 45
1, 45066, Control_c, 0, 64, 68
1, 45081, Control_c, 0, 64, 75
1, 45096, Control_c, 0, 64, 82
1, 45111, Control_c, 0, 64, 86
1, 45134, Control_c, 0, 64, 88
1, 45149, Control_c, 0, 64, 89
1, 45164, Control_c, 0, 64, 92
1, 45178, Control_c, 0, 64, 94
1, 45193, Control_c, 0, 64, 96
1, 45201, Note_off_c, 0, 64, 60
1, 45208, Control_c, 0, 64, 98
1, 45223, Control_c, 0, 64, 99
1, 45238, Control_c, 0, 64, 100
1, 45252, Control_c, 0, 64, 101
1, 45267, Control_c, 0, 64, 102
1, 45282, Control_c, 0, 64, 103
1, 45296, Control_c, 0, 64, 103
1, 45311, Control_c, 0, 64, 104
1, 45326, Note_off_c, 0, 67, 35
1, 45341, Control_c, 0, 64, 104
1, 45370, Control_c, 0, 64, 105
1, 45376, Note_on_c, 0, 73, 55
1, 45451, Note_off_c, 0, 72, 62
1, 45549, Control_c, 0, 64, 104
1, 45564, Control_c, 0, 64, 102
1, 45579, Control_c, 0, 64, 98
1, 45594, Control_c, 0, 64, 92
1, 45609, Control_c, 0, 64, 86
1, 45617, Note_on_c, 0, 67, 47
1, 45624, Control_c, 0, 64, 78
1, 45628, Note_on_c, 0, 63, 41
1, 45629, Note_on_c, 0, 72, 49
1, 45636, Note_off_c, 0, 73, 61
1, 45638, Control_c, 0, 64, 67
1, 45653, Control_c, 0, 64, 50
1, 45668, Control_c, 0, 64, 0
1, 45675, Note_off_c, 0, 72, 0
1, 45675, Note_on_c, 0, 72, 13
1, 45754, Note_off_c, 0, 72, 61
1, 45761, Note_on_c, 0, 73, 64
1, 45801, Control_c, 0, 64, 25
1, 45815, Control_c, 0, 64, 64
1, 45824, Note_off_c, 0, 73, 63
1, 45830, Control_c, 0, 64, 73
1, 45844, Note_on_c, 0, 75, 65
1, 45845, Control_c, 0, 64, 81
1, 45860, Control_c, 0, 64, 87
1, 45880, Note_off_c, 0, 75, 68
1, 45883, Control_c, 0, 64, 90
1, 45898, Control_c, 0, 64, 93
1, 45913, Control_c, 0, 64, 96
1, 45916, Note_on_c, 0, 73, 63
1, 45928, Control_c, 0, 64, 101
1, 45940, Note_off_c, 0, 73, 62
1, 45943, Control_c, 0, 64, 106
1, 45958, Control_c, 0, 64, 110
1, 45973, Control_c, 0, 64, 112
1, 45988, Control_c, 0, 64, 114
1, 46002, Control_c, 0, 64, 118
1, 46017, Control_c, 0, 64, 126
1, 46018, Note_on_c, 0, 73, 62
1, 46032, Control_c, 0, 64, 127
1, 46037, Note_off_c, 0, 73, 63
1, 46041, Poly_aftertouch_c, 0, 75, 0
1, 46077, Poly_aftertouch_c, 0, 75, 127
1, 46113, Note_on_c, 0, 73, 66
1, 46115, Poly_aftertouch_c, 0, 75, 0
1, 46146, Note_off_c, 0, 73, 60
1, 46178, Note_on_c, 0, 75, 45
1, 46204, Note_off_c, 0, 75, 63
1, 46229, Note_on_c, 0, 73, 42
1, 46252, Note_off_c, 0, 73, 59
1, 46293, Note_on_c, 0, 75, 63
1, 46336, Note_on_c, 0, 73, 61
1, 46342, Note_off_c, 0, 75, 60
1, 46374, Note_off_c, 0, 73, 61
1, 46390, Note_on_c, 0, 75, 33
1, 46442, Note_off_c, 0, 75, 65
1, 46454, Note_on_c, 0, 73, 53
1, 46477, Note_off_c, 0, 73, 61
1, 46495, Note_on_c, 0, 72, 54
1, 46558, Note_off_c, 0, 72, 45
1, 46571, Note_on_c, 0, 73, 60
1, 46594, Control_c, 0, 64, 123
1, 46617, Control_c, 0, 64, 119
1, 46628, Note_off_c, 0, 73, 65
1, 46631, Control_c, 0, 64, 115
1, 46646, Control_c, 0, 64, 113
1, 46661, Control_c, 0, 64, 110
1, 46676, Control_c, 0, 64, 107
1, 46691, Control_c, 0, 64, 103
1, 46706, Control_c, 0, 64, 98
1, 46721, Control_c, 0, 64, 92
1, 46736, Control_c, 0, 64, 82
1, 46751, Control_c, 0, 64, 72
1, 46758, Note_on_c, 0, 82, 63
1, 46766, Control_c, 0, 64, 59
1, 46780, Control_c, 0, 64, 0
1, 46789, Note_on_c, 0, 79, 26
1, 46804, Note_off_c, 0, 82, 0
1, 46804, Note_on_c, 0, 82, 23
1, 46855, Control_c, 0, 64, 22
1, 46869, Control_c, 0, 64, 61
1, 46875, Note_off_c, 0, 67, 53
1, 46884, Control_c, 0, 64, 70
1, 46899, Control_c, 0, 64, 76
1, 46914, Control_c, 0, 64, 79
1, 46916, Note_on_c, 0, 75, 49
1, 46929, Control_c, 0, 64, 81
1, 46933, Note_off_c, 0, 63, 46
1, 46941, Note_off_c, 0, 75, 57
1, 46943, Control_c, 0, 64, 84
1, 46958, Control_c, 0, 64, 87
1, 46973, Control_c, 0, 64, 89
1, 47034, Note_on_c, 0, 75, 55
1, 47047, Control_c, 0, 64, 88
1, 47054, Note_off_c, 0, 75, 63
1, 47062, Control_c, 0, 64, 88
1, 47076, Control_c, 0, 64, 85
1, 47091, Control_c, 0, 64, 81
1, 47106, Control_c, 0, 64, 76
1, 47121, Control_c, 0, 64, 71
1, 47135, Note_on_c, 0, 75, 62
1, 47135, Control_c, 0, 64, 66
1, 47150, Control_c, 0, 64, 63
1, 47165, Control_c, 0, 64, 63
1, 47168, Note_off_c, 0, 75, 64
1, 47180, Control_c, 0, 64, 62
1, 47195, Control_c, 0, 64, 60
1, 47210, Control_c, 0, 64, 58
1, 47225, Control_c, 0, 64, 56
1, 47231, Note_off_c, 0, 79, 36
1, 47240, Control_c, 0, 64, 54
1, 47255, Note_on_c, 0, 75, 53
1, 47282, Note_off_c, 0, 75, 62
1, 47284, Control_c, 0, 64, 53
1, 47299, Control_c, 0, 64, 51
1, 47314, Control_c, 0, 64, 50
1, 47315, Note_off_c, 0, 82, 52
1, 47329, Control_c, 0, 64, 51
1, 47365, Control_c, 0, 64, 50
1, 47380, Control_c, 0, 64, 49
1, 47381, Note_on_c, 0, 75, 62
1, 47395, Control_c, 0, 64, 47
1, 47409, Control_c, 0, 64, 47
1, 47413, Note_off_c, 0, 75, 63
1, 47454, Control_c, 0, 64, 45
1, 47469, Control_c, 0, 64, 44
1, 47499, Control_c, 0, 64, 44
1, 47501, Note_on_c, 0, 75, 55
1, 47524, Note_off_c, 0, 75, 61
1, 47529, Control_c, 0, 64, 44
1, 47544, Control_c, 0, 64, 43
1, 47603, Control_c, 0, 64, 43
1, 47611, Note_on_c, 0, 75, 61
1, 47645, Note_off_c, 0, 75, 65
1, 47734, Note_on_c, 0, 75, 48
1, 47757, Note_off_c, 0, 75, 60
1, 47825, Control_c, 0, 64, 43
1, 47839, Control_c, 0, 64, 44
1, 47846, Note_on_c, 0, 75, 55
1, 47854, Control_c, 0, 64, 45
1, 47869, Control_c, 0, 64, 46
1, 47886, Note_off_c, 0, 75, 63
1, 47928, Control_c, 0, 64, 46
1, 47943, Control_c, 0, 64, 47
1, 47958, Control_c, 0, 64, 47
1, 47973, Control_c, 0, 64, 48
1, 47974, Note_on_c, 0, 75, 56
1, 47988, Control_c, 0, 64, 49
1, 47994, Note_off_c, 0, 75, 62
1, 48003, Control_c, 0, 64, 50
1, 48018, Control_c, 0, 64, 52
1, 48032, Control_c, 0, 64, 53
1, 48047, Control_c, 0, 64, 54
1, 48062, Control_c, 0, 64, 55
1, 48077, Control_c, 0, 64, 56
1, 48079, Note_on_c, 0, 75, 63
1, 48102, Note_off_c, 0, 75, 66
1, 48106, Control_c, 0, 64, 54
1, 48128, Control_c, 0, 64, 50
1, 48143, Control_c, 0, 64, 41
1, 48158, Control_c, 0, 64, 26
1, 48173, Control_c, 0, 64, 0
1, 48204, Note_on_c, 0, 83, 59
1, 48214, Note_on_c, 0, 80, 57
1, 48232, Control_c, 0, 64, 19
1, 48247, Control_c, 0, 64, 60
1, 48262, Control_c, 0, 64, 67
1, 48277, Control_c, 0, 64, 71
1, 48292, Control_c, 0, 64, 74
1, 48307, Control_c, 0, 64, 76
1, 48322, Control_c, 0, 64, 77
1, 48322, Note_on_c, 0, 75, 60
1, 48336, Control_c, 0, 64, 78
1, 48351, Control_c, 0, 64, 79
1, 48356, Note_off_c, 0, 75, 64
1, 48411, Control_c, 0, 64, 78
1, 48418, Note_off_c, 0, 80, 45
1, 48426, Control_c, 0, 64, 74
1, 48430, Note_off_c, 0, 83, 54
1, 48436, Note_on_c, 0, 75, 46
1, 48441, Control_c, 0, 64, 66
1, 48456, Control_c, 0, 64, 36
1, 48463, Note_off_c, 0, 75, 57
1, 48470, Control_c, 0, 64, 0
1, 48521, Note_on_c, 0, 71, 62
1, 48542, Note_on_c, 0, 68, 43
1, 48559, Control_c, 0, 64, 63
1, 48574, Control_c, 0, 64, 72
1, 48587, Note_off_c, 0, 71, 56
1, 48588, Control_c, 0, 64, 78
1, 48600, Note_off_c, 0, 68, 39
1, 48603, Control_c, 0, 64, 81
1, 48633, Control_c, 0, 64, 82
1, 48647, Control_c, 0, 64, 83
1, 48649, Note_on_c, 0, 75, 55
1, 48675, Note_off_c, 0, 75, 57
1, 48751, Control_c, 0, 64, 81
1, 48762, Note_on_c, 0, 75, 54
1, 48766, Control_c, 0, 64, 77
1, 48781, Control_c, 0, 64, 70
1, 48784, Note_off_c, 0, 75, 60
1, 48796, Control_c, 0, 64, 58
1, 48810, Control_c, 0, 64, 38
1, 48825, Control_c, 0, 64, 36
1, 48840, Control_c, 0, 64, 32
1, 48855, Control_c, 0, 64, 0
1, 48878, Note_on_c, 0, 75, 61
1, 48908, Note_off_c, 0, 75, 61
1, 48998, Note_on_c, 0, 75, 62
1, 49031, Note_off_c, 0, 75, 63
1, 49116, Note_on_c, 0, 75, 59
1, 49154, Note_off_c, 0, 75, 60
1, 49235, Note_on_c, 0, 75, 51
1, 49274, Note_off_c, 0, 75, 62
1, 49353, Note_on_c, 0, 75, 52
1, 49377, Note_off_c, 0, 75, 60
1, 49456, Note_on_c, 0, 75, 65
1, 49491, Note_off_c, 0, 75, 62
1, 49569, Note_on_c, 0, 88, 88
1, 49581, Note_on_c, 0, 83, 66
1, 49582, Note_on_c, 0, 80, 67
1, 49604, Control_c, 0, 64, 33
1, 49626, Control_c, 0, 64, 52
1, 49641, Control_c, 0, 64, 63
1, 49656, Control_c, 0, 64, 68
1, 49670, Control_c, 0, 64, 73
1, 49685, Control_c, 0, 64, 79
1, 49699, Note_on_c, 0, 75, 59
1, 49700, Control_c, 0, 64, 85
1, 49715, Control_c, 0, 64, 88
1, 49730, Control_c, 0, 64, 90
1, 49734, Note_off_c, 0, 75, 64
1, 49744, Control_c, 0, 64, 92
1, 49759, Control_c, 0, 64, 94
1, 49774, Control_c, 0, 64, 95
1, 49789, Control_c, 0, 64, 97
1, 49804, Control_c, 0, 64, 97
1, 49818, Note_on_c, 0, 75, 41
1, 49818, Control_c, 0, 64, 98
1, 49833, Control_c, 0, 64, 98
1, 49859, Note_off_c, 0, 75, 49
1, 49863, Control_c, 0, 64, 99
1, 49930, Note_on_c, 0, 68, 44
1, 49934, Note_on_c, 0, 71, 43
1, 49982, Note_off_c, 0, 71, 45
1, 50003, Note_off_c, 0, 68, 55
1, 50048, Note_on_c, 0, 75, 53
1, 50082, Note_off_c, 0, 75, 61
1, 50164, Note_on_c, 0, 75, 53
1, 50182, Note_off_c, 0, 80, 32
1, 50201, Note_off_c, 0, 75, 53
1, 50204, Control_c, 0, 64, 99
1, 50268, Note_on_c, 0, 68, 49
1, 50273, Note_on_c, 0, 71, 46
1, 50328, Note_off_c, 0, 71, 53
1, 50341, Note_off_c, 0, 68, 51
1, 50411, Note_on_c, 0, 75, 48
1, 50440, Note_off_c, 0, 75, 57
1, 50507, Note_on_c, 0, 75, 55
1, 50567, Note_off_c, 0, 75, 52
1, 50636, Note_on_c, 0, 68, 49
1, 50644, Note_on_c, 0, 71, 51
1, 50745, Control_c, 0, 64, 100
1, 50761, Note_on_c, 0, 75, 49
1, 50762, Note_off_c, 0, 68, 38
1, 50765, Note_off_c, 0, 83, 36
1, 50787, Note_off_c, 0, 75, 62
1, 50795, Note_off_c, 0, 71, 23
1, 50864, Note_on_c, 0, 75, 53
1, 50893, Note_off_c, 0, 75, 60
1, 50894, Control_c, 0, 64, 99
1, 50908, Control_c, 0, 64, 93
1, 50923, Control_c, 0, 64, 84
1, 50938, Control_c, 0, 64, 70
1, 50953, Control_c, 0, 64, 0
1, 50980, Note_off_c, 0, 88, 44
1, 50992, Note_on_c, 0, 70, 49
1, 51001, Note_on_c, 0, 87, 58
1, 51005, Note_on_c, 0, 67, 54
1, 51006, Note_on_c, 0, 82, 52
1, 51011, Note_on_c, 0, 79, 40
1, 51026, Control_c, 0, 64, 59
1, 51034, Note_off_c, 0, 70, 63
1, 51040, Note_off_c, 0, 67, 65
1, 51041, Control_c, 0, 64, 71
1, 51056, Control_c, 0, 64, 79
1, 51071, Control_c, 0, 64, 86
1, 51086, Control_c, 0, 64, 88
1, 51108, Control_c, 0, 64, 89
1, 51123, Control_c, 0, 64, 89
1, 51138, Control_c, 0, 64, 90
1, 51182, Control_c, 0, 64, 90
1, 51186, Note_on_c, 0, 63, 44
1, 51216, Note_off_c, 0, 63, 55
1, 51286, Control_c, 0, 64, 90
1, 51291, Note_on_c, 0, 63, 53
1, 51301, Control_c, 0, 64, 89
1, 51315, Control_c, 0, 64, 88
1, 51321, Note_off_c, 0, 63, 58
1, 51330, Control_c, 0, 64, 86
1, 51345, Control_c, 0, 64, 82
1, 51360, Control_c, 0, 64, 78
1, 51375, Control_c, 0, 64, 73
1, 51389, Control_c, 0, 64, 69
1, 51404, Control_c, 0, 64, 65
1, 51410, Note_on_c, 0, 63, 58
1, 51419, Control_c, 0, 64, 62
1, 51434, Control_c, 0, 64, 61
1, 51443, Note_off_c, 0, 63, 60
1, 51449, Control_c, 0, 64, 60
1, 51459, Note_off_c, 0, 79, 35
1, 51463, Note_off_c, 0, 87, 56
1, 51464, Control_c, 0, 64, 59
1, 51479, Control_c, 0, 64, 54
1, 51484, Note_off_c, 0, 82, 51
1, 51495, Control_c, 0, 64, 48
1, 51510, Control_c, 0, 64, 46
1, 51526, Note_on_c, 0, 63, 54
1, 51539, Control_c, 0, 64, 45
1, 51554, Control_c, 0, 64, 43
1, 51555, Note_off_c, 0, 63, 58
1, 51569, Control_c, 0, 64, 37
1, 51584, Control_c, 0, 64, 32
1, 51599, Control_c, 0, 64, 30
1, 51613, Control_c, 0, 64, 29
1, 51628, Control_c, 0, 64, 28
1, 51642, Note_on_c, 0, 63, 57
1, 51643, Control_c, 0, 64, 26
1, 51657, Control_c, 0, 64, 21
1, 51671, Note_off_c, 0, 63, 58
1, 51672, Control_c, 0, 64, 18
1, 51687, Control_c, 0, 64, 13
1, 51702, Control_c, 0, 64, 0
1, 51766, Note_on_c, 0, 63, 54
1, 51795, Note_off_c, 0, 63, 57
1, 51887, Note_on_c, 0, 63, 54
1, 51915, Note_off_c, 0, 63, 56
1, 52005, Note_on_c, 0, 63, 55
1, 52036, Note_off_c, 0, 63, 58
1, 52125, Note_on_c, 0, 82, 67
1, 52128, Note_on_c, 0, 63, 58
1, 52134, Note_on_c, 0, 79, 56
1, 52165, Note_off_c, 0, 63, 64
1, 52254, Note_on_c, 0, 63, 58
1, 52282, Note_off_c, 0, 63, 58
1, 52307, Note_off_c, 0, 79, 59
1, 52313, Note_off_c, 0, 82, 64
1, 52369, Note_on_c, 0, 63, 58
1, 52396, Note_off_c, 0, 63, 58
1, 52402, Note_on_c, 0, 82, 77
1, 52421, Note_on_c, 0, 79, 56
1, 52429, Note_off_c, 0, 82, 63
1, 52440, Note_off_c, 0, 79, 61
1, 52479, Note_on_c, 0, 83, 72
1, 52481, Note_on_c, 0, 63, 65
1, 52483, Note_on_c, 0, 80, 63
1, 52512, Note_off_c, 0, 63, 65
1, 52545, Note_off_c, 0, 80, 0
1, 52545, Note_on_c, 0, 80, 7
1, 52614, Note_on_c, 0, 63, 57
1, 52651, Note_off_c, 0, 63, 63
1, 52725, Note_off_c, 0, 83, 55
1, 52736, Note_off_c, 0, 80, 37
1, 52739, Note_on_c, 0, 82, 64
1, 52739, Note_on_c, 0, 63, 59
1, 52742, Note_on_c, 0, 79, 59
1, 52766, Note_off_c, 0, 82, 67
1, 52773, Note_off_c, 0, 79, 65
1, 52777, Note_off_c, 0, 63, 63
1, 52857, Note_on_c, 0, 63, 65
1, 52891, Note_off_c, 0, 63, 63
1, 52903, Control_c, 0, 64, 10
1, 52918, Control_c, 0, 64, 19
1, 52933, Control_c, 0, 64, 21
1, 52948, Control_c, 0, 64, 22
1, 52980, Note_on_c, 0, 63, 61
1, 53006, Control_c, 0, 64, 21
1, 53011, Note_off_c, 0, 63, 63
1, 53021, Control_c, 0, 64, 19
1, 53051, Control_c, 0, 64, 18
1, 53079, Note_on_c, 0, 70, 65
1, 53086, Note_on_c, 0, 67, 62
1, 53095, Note_on_c, 0, 63, 63
1, 53111, Control_c, 0, 64, 16
1, 53113, Note_off_c, 0, 70, 61
1, 53115, Note_off_c, 0, 67, 65
1, 53125, Note_off_c, 0, 63, 66
1, 53156, Control_c, 0, 64, 18
1, 53171, Control_c, 0, 64, 22
1, 53185, Control_c, 0, 64, 25
1, 53200, Control_c, 0, 64, 32
1, 53201, Note_on_c, 0, 63, 67
1, 53215, Control_c, 0, 64, 40
1, 53229, Control_c, 0, 64, 47
1, 53231, Note_off_c, 0, 63, 65
1, 53244, Control_c, 0, 64, 52
1, 53259, Control_c, 0, 64, 56
1, 53274, Control_c, 0, 64, 59
1, 53289, Control_c, 0, 64, 61
1, 53303, Control_c, 0, 64, 61
1, 53310, Note_on_c, 0, 63, 60
1, 53333, Control_c, 0, 64, 62
1, 53336, Note_off_c, 0, 63, 61
1, 53371, Control_c, 0, 64, 62
1, 53415, Control_c, 0, 64, 62
1, 53416, Note_on_c, 0, 58, 66
1, 53425, Note_on_c, 0, 55, 61
1, 53430, Control_c, 0, 64, 57
1, 53444, Note_off_c, 0, 55, 64
1, 53444, Control_c, 0, 64, 13
1, 53452, Note_on_c, 0, 63, 7
1, 53453, Note_off_c, 0, 58, 65
1, 53459, Control_c, 0, 64, 0
1, 53495, Note_off_c, 0, 63, 28
1, 53520, Note_on_c, 0, 61, 64
1, 53523, Note_on_c, 0, 58, 52
1, 53548, Control_c, 0, 64, 60
1, 53555, Note_off_c, 0, 61, 62
1, 53562, Note_off_c, 0, 58, 66
1, 53563, Control_c, 0, 64, 72
1, 53578, Control_c, 0, 64, 83
1, 53592, Control_c, 0, 64, 89
1, 53607, Control_c, 0, 64, 91
1, 53622, Control_c, 0, 64, 92
1, 53630, Note_on_c, 0, 63, 63
1, 53637, Control_c, 0, 64, 93
1, 53664, Note_off_c, 0, 63, 64
1, 53666, Control_c, 0, 64, 94
1, 53741, Note_on_c, 0, 63, 67
1, 53771, Note_off_c, 0, 63, 62
1, 53792, Note_on_c, 0, 82, 74
1, 53799, Control_c, 0, 64, 91
1, 53809, Note_on_c, 0, 79, 45
1, 53814, Control_c, 0, 64, 84
1, 53815, Note_off_c, 0, 82, 69
1, 53828, Control_c, 0, 64, 73
1, 53833, Note_off_c, 0, 79, 58
1, 53843, Control_c, 0, 64, 56
1, 53858, Control_c, 0, 64, 0
1, 53860, Note_on_c, 0, 85, 61
1, 53869, Note_on_c, 0, 82, 83
1, 53872, Note_on_c, 0, 63, 69
1, 53911, Note_off_c, 0, 63, 63
1, 54011, Note_on_c, 0, 63, 70
1, 54042, Note_off_c, 0, 63, 64
1, 54077, Note_off_c, 0, 85, 64
1, 54084, Note_off_c, 0, 82, 61
1, 54142, Note_on_c, 0, 63, 66
1, 54143, Note_on_c, 0, 80, 71
1, 54143, Note_on_c, 0, 83, 66
1, 54170, Note_off_c, 0, 83, 64
1, 54172, Note_off_c, 0, 80, 66
1, 54173, Note_off_c, 0, 63, 65
1, 54257, Note_on_c, 0, 63, 66
1, 54290, Note_off_c, 0, 63, 64
1, 54376, Note_on_c, 0, 63, 66
1, 54410, Note_off_c, 0, 63, 62
1, 54489, Note_on_c, 0, 68, 65
1, 54491, Note_on_c, 0, 71, 69
1, 54504, Note_on_c, 0, 63, 61
1, 54516, Note_off_c, 0, 68, 66
1, 54516, Note_off_c, 0, 71, 67
1, 54528, Note_off_c, 0, 63, 64
1, 54606, Note_on_c, 0, 63, 70
1, 54622, Control_c, 0, 64, 18
1, 54636, Note_off_c, 0, 63, 65
1, 54637, Control_c, 0, 64, 39
1, 54651, Control_c, 0, 64, 47
1, 54666, Control_c, 0, 64, 53
1, 54682, Control_c, 0, 64, 56
1, 54697, Control_c, 0, 64, 58
1, 54712, Control_c, 0, 64, 59
1, 54719, Note_on_c, 0, 63, 64
1, 54727, Control_c, 0, 64, 59
1, 54750, Note_off_c, 0, 63, 65
1, 54801, Control_c, 0, 64, 57
1, 54813, Note_on_c, 0, 59, 67
1, 54816, Control_c, 0, 64, 38
1, 54822, Note_on_c, 0, 56, 56
1, 54827, Note_on_c, 0, 63, 60
1, 54830, Control_c, 0, 64, 0
1, 54852, Note_off_c, 0, 56, 58
1, 54855, Note_off_c, 0, 59, 65
1, 54863, Note_off_c, 0, 63, 65
1, 54922, Note_on_c, 0, 56, 63
1, 54930, Note_on_c, 0, 59, 62
1, 54956, Control_c, 0, 64, 66
1, 54971, Control_c, 0, 64, 74
1, 54981, Note_off_c, 0, 56, 56
1, 54986, Control_c, 0, 64, 81
1, 54996, Note_off_c, 0, 59, 60
1, 55001, Control_c, 0, 64, 84
1, 55016, Control_c, 0, 64, 85
1, 55030, Control_c, 0, 64, 86
1, 55032, Note_on_c, 0, 63, 70
1, 55045, Control_c, 0, 64, 86
1, 55060, Control_c, 0, 64, 87
1, 55067, Note_off_c, 0, 63, 61
1, 55089, Control_c, 0, 64, 87
1, 55145, Note_on_c, 0, 63, 58
1, 55175, Note_off_c, 0, 63, 57
1, 55210, Note_on_c, 0, 83, 76
1, 55212, Note_on_c, 0, 80, 73
1, 55234, Note_off_c, 0, 83, 64
1, 55238, Note_off_c, 0, 80, 68
1, 55238, Control_c, 0, 64, 87
1, 55253, Control_c, 0, 64, 83
1, 55268, Control_c, 0, 64, 74
1, 55282, Control_c, 0, 64, 57
1, 55297, Control_c, 0, 64, 0
1, 55310, Note_on_c, 0, 88, 96
1, 55321, Note_on_c, 0, 80, 79
1, 55327, Note_on_c, 0, 83, 69
1, 55452, Note_on_c, 0, 63, 61
1, 55461, Control_c, 0, 64, 52
1, 55476, Control_c, 0, 64, 66
1, 55488, Note_off_c, 0, 63, 63
1, 55491, Control_c, 0, 64, 70
1, 55506, Control_c, 0, 64, 74
1, 55520, Control_c, 0, 64, 78
1, 55535, Control_c, 0, 64, 82
1, 55550, Control_c, 0, 64, 86
1, 55562, Note_on_c, 0, 63, 57
1, 55565, Control_c, 0, 64, 88
1, 55580, Control_c, 0, 64, 90
1, 55602, Note_off_c, 0, 63, 54
1, 55602, Control_c, 0, 64, 92
1, 55617, Control_c, 0, 64, 94
1, 55631, Control_c, 0, 64, 97
1, 55646, Control_c, 0, 64, 99
1, 55661, Control_c, 0, 64, 101
1, 55676, Control_c, 0, 64, 102
1, 55682, Note_on_c, 0, 56, 47
1, 55684, Note_on_c, 0, 59, 46
1, 55691, Control_c, 0, 64, 103
1, 55705, Control_c, 0, 64, 104
1, 55720, Control_c, 0, 64, 105
1, 55735, Control_c, 0, 64, 106
1, 55750, Control_c, 0, 64, 107
1, 55760, Note_off_c, 0, 56, 49
1, 55765, Control_c, 0, 64, 108
1, 55770, Note_off_c, 0, 59, 43
1, 55780, Control_c, 0, 64, 109
1, 55795, Control_c, 0, 64, 109
1, 55798, Note_on_c, 0, 63, 57
1, 55810, Control_c, 0, 64, 110
1, 55824, Control_c, 0, 64, 110
1, 55834, Note_off_c, 0, 63, 63
1, 55869, Control_c, 0, 64, 111
1, 55898, Control_c, 0, 64, 111
1, 55917, Note_on_c, 0, 63, 48
1, 55941, Note_off_c, 0, 63, 58
1, 55972, Control_c, 0, 64, 112
1, 56019, Note_on_c, 0, 56, 51
1, 56022, Note_on_c, 0, 59, 45
1, 56039, Note_off_c, 0, 80, 58
1, 56061, Control_c, 0, 64, 112
1, 56092, Note_off_c, 0, 83, 56
1, 56098, Note_off_c, 0, 56, 45
1, 56139, Note_on_c, 0, 63, 53
1, 56161, Note_off_c, 0, 59, 26
1, 56165, Control_c, 0, 64, 113
1, 56173, Note_off_c, 0, 63, 52
1, 56235, Note_on_c, 0, 63, 46
1, 56294, Note_off_c, 0, 63, 54
1, 56365, Note_on_c, 0, 59, 33
1, 56375, Note_on_c, 0, 56, 35
1, 56488, Note_on_c, 0, 63, 43
1, 56529, Note_off_c, 0, 63, 47
1, 56566, Note_off_c, 0, 59, 34
1, 56575, Note_off_c, 0, 56, 33
1, 56582, Note_on_c, 0, 63, 47
1, 56618, Note_off_c, 0, 63, 64
1, 56677, Control_c, 0, 64, 112
1, 56692, Control_c, 0, 64, 110
1, 56707, Control_c, 0, 64, 104
1, 56721, Control_c, 0, 64, 97
1, 56724, Note_on_c, 0, 87, 64
1, 56735, Note_on_c, 0, 82, 48
1, 56736, Control_c, 0, 64, 86
1, 56738, Note_on_c, 0, 79, 45
1, 56751, Control_c, 0, 64, 74
1, 56766, Control_c, 0, 64, 61
1, 56767, Note_off_c, 0, 88, 56
1, 56781, Control_c, 0, 64, 0
1, 56841, Note_on_c, 0, 63, 47
1, 56869, Control_c, 0, 64, 40
1, 56871, Note_off_c, 0, 63, 56
1, 56884, Control_c, 0, 64, 62
1, 56899, Control_c, 0, 64, 67
1, 56914, Control_c, 0, 64, 72
1, 56928, Control_c, 0, 64, 77
1, 56943, Control_c, 0, 64, 81
1, 56951, Note_on_c, 0, 63, 43
1, 56958, Control_c, 0, 64, 83
1, 56972, Control_c, 0, 64, 84
1, 56987, Control_c, 0, 64, 84
1, 56996, Note_off_c, 0, 63, 44
1, 57032, Control_c, 0, 64, 84
1, 57047, Control_c, 0, 64, 79
1, 57052, Note_on_c, 0, 58, 47
1, 57053, Note_off_c, 0, 87, 61
1, 57060, Note_on_c, 0, 55, 51
1, 57062, Control_c, 0, 64, 71
1, 57070, Note_off_c, 0, 79, 45
1, 57077, Control_c, 0, 64, 58
1, 57083, Note_off_c, 0, 82, 57
1, 57092, Control_c, 0, 64, 0
1, 57130, Control_c, 0, 64, 33
1, 57145, Control_c, 0, 64, 60
1, 57159, Control_c, 0, 64, 68
1, 57174, Control_c, 0, 64, 73
1, 57189, Control_c, 0, 64, 79
1, 57203, Note_on_c, 0, 63, 48
1, 57204, Control_c, 0, 64, 81
1, 57219, Control_c, 0, 64, 83
1, 57229, Note_off_c, 0, 63, 57
1, 57233, Control_c, 0, 64, 84
1, 57248, Control_c, 0, 64, 86
1, 57263, Control_c, 0, 64, 87
1, 57277, Control_c, 0, 64, 88
1, 57279, Note_off_c, 0, 55, 56
1, 57292, Control_c, 0, 64, 88
1, 57296, Note_off_c, 0, 58, 30
1, 57307, Control_c, 0, 64, 89
1, 57315, Note_on_c, 0, 63, 48
1, 57322, Control_c, 0, 64, 90
1, 57337, Control_c, 0, 64, 90
1, 57343, Note_off_c, 0, 63, 54
1, 57351, Control_c, 0, 64, 91
1, 57425, Control_c, 0, 64, 90
1, 57440, Control_c, 0, 64, 89
1, 57455, Control_c, 0, 64, 85
1, 57470, Control_c, 0, 64, 80
1, 57485, Control_c, 0, 64, 72
1, 57487, Note_on_c, 0, 75, 69
1, 57494, Note_on_c, 0, 66, 55
1, 57497, Note_on_c, 0, 69, 48
1, 57500, Control_c, 0, 64, 58
1, 57515, Control_c, 0, 64, 0
1, 57603, Control_c, 0, 64, 25
1, 57618, Control_c, 0, 64, 51
1, 57622, Note_on_c, 0, 63, 51
1, 57633, Control_c, 0, 64, 63
1, 57648, Control_c, 0, 64, 68
1, 57655, Note_off_c, 0, 63, 56
1, 57663, Control_c, 0, 64, 72
1, 57677, Control_c, 0, 64, 75
1, 57692, Control_c, 0, 64, 79
1, 57707, Control_c, 0, 64, 81
1, 57722, Note_on_c, 0, 63, 47
1, 57722, Control_c, 0, 64, 82
1, 57737, Control_c, 0, 64, 83
1, 57751, Control_c, 0, 64, 83
1, 57781, Note_off_c, 0, 63, 48
1, 57781, Control_c, 0, 64, 83
1, 57795, Control_c, 0, 64, 82
1, 57810, Control_c, 0, 64, 79
1, 57822, Note_on_c, 0, 57, 53
1, 57825, Control_c, 0, 64, 74
1, 57848, Note_on_c, 0, 54, 47
1, 57848, Control_c, 0, 64, 67
1, 57863, Control_c, 0, 64, 63
1, 57878, Control_c, 0, 64, 63
1, 57893, Control_c, 0, 64, 67
1, 57908, Control_c, 0, 64, 73
1, 57923, Control_c, 0, 64, 79
1, 57938, Control_c, 0, 64, 82
1, 57953, Control_c, 0, 64, 83
1, 57964, Note_off_c, 0, 69, 65
1, 57968, Control_c, 0, 64, 83
1, 57968, Note_on_c, 0, 63, 50
1, 57982, Control_c, 0, 64, 84
1, 57994, Note_off_c, 0, 57, 53
1, 57997, Control_c, 0, 64, 85
1, 58006, Note_off_c, 0, 63, 48
1, 58012, Control_c, 0, 64, 86
1, 58016, Note_off_c, 0, 75, 59
1, 58027, Note_off_c, 0, 66, 47
1, 58041, Control_c, 0, 64, 87
1, 58083, Note_on_c, 0, 63, 45
1, 58085, Note_off_c, 0, 54, 32
1, 58130, Note_off_c, 0, 63, 45
1, 58130, Control_c, 0, 64, 86
1, 58145, Control_c, 0, 64, 82
1, 58160, Control_c, 0, 64, 77
1, 58174, Control_c, 0, 64, 68
1, 58186, Note_on_c, 0, 74, 53
1, 58189, Control_c, 0, 64, 59
1, 58198, Note_on_c, 0, 68, 45
1, 58203, Note_on_c, 0, 65, 42
1, 58204, Control_c, 0, 64, 40
1, 58219, Control_c, 0, 64, 25
1, 58233, Control_c, 0, 64, 22
1, 58248, Control_c, 0, 64, 29
1, 58263, Control_c, 0, 64, 43
1, 58278, Control_c, 0, 64, 56
1, 58293, Control_c, 0, 64, 64
1, 58308, Control_c, 0, 64, 68
1, 58323, Control_c, 0, 64, 71
1, 58331, Note_on_c, 0, 63, 53
1, 58337, Control_c, 0, 64, 73
1, 58352, Control_c, 0, 64, 75
1, 58367, Control_c, 0, 64, 77
1, 58370, Note_off_c, 0, 63, 53
1, 58382, Control_c, 0, 64, 78
1, 58397, Control_c, 0, 64, 79
1, 58412, Control_c, 0, 64, 80
1, 58426, Control_c, 0, 64, 80
1, 58436, Note_on_c, 0, 63, 34
1, 58471, Control_c, 0, 64, 80
1, 58486, Control_c, 0, 64, 77
1, 58500, Control_c, 0, 64, 73
1, 58504, Note_off_c, 0, 74, 60
1, 58515, Control_c, 0, 64, 66
1, 58529, Note_off_c, 0, 65, 57
1, 58530, Control_c, 0, 64, 60
1, 58535, Note_off_c, 0, 63, 39
1, 58537, Note_on_c, 0, 56, 48
1, 58545, Control_c, 0, 64, 56
1, 58555, Note_on_c, 0, 53, 36
1, 58560, Control_c, 0, 64, 59
1, 58574, Control_c, 0, 64, 62
1, 58597, Control_c, 0, 64, 64
1, 58598, Note_off_c, 0, 68, 56
1, 58612, Control_c, 0, 64, 66
1, 58626, Control_c, 0, 64, 70
1, 58641, Control_c, 0, 64, 73
1, 58656, Control_c, 0, 64, 77
1, 58669, Note_on_c, 0, 63, 46
1, 58671, Control_c, 0, 64, 79
1, 58686, Control_c, 0, 64, 80
1, 58716, Note_off_c, 0, 63, 53
1, 58716, Control_c, 0, 64, 80
1, 58731, Control_c, 0, 64, 81
1, 58761, Control_c, 0, 64, 81
1, 58774, Note_off_c, 0, 53, 42
1, 58774, Note_off_c, 0, 56, 27
1, 58788, Note_on_c, 0, 63, 49
1, 58826, Note_off_c, 0, 63, 46
1, 58849, Control_c, 0, 64, 79
1, 58864, Control_c, 0, 64, 75
1, 58879, Control_c, 0, 64, 69
1, 58894, Control_c, 0, 64, 62
1, 58903, Note_on_c, 0, 67, 41
1, 58907, Note_on_c, 0, 73, 43
1, 58909, Control_c, 0, 64, 54
1, 58918, Note_on_c, 0, 64, 41
1, 58923, Control_c, 0, 64, 53
1, 58938, Control_c, 0, 64, 55
1, 58953, Control_c, 0, 64, 57
1, 58968, Control_c, 0, 64, 60
1, 58983, Control_c, 0, 64, 63
1, 58997, Control_c, 0, 64, 65
1, 59012, Control_c, 0, 64, 67
1, 59027, Control_c, 0, 64, 70
1, 59032, Note_on_c, 0, 63, 47
1, 59042, Control_c, 0, 64, 73
1, 59056, Control_c, 0, 64, 75
1, 59065, Note_off_c, 0, 63, 50
1, 59071, Control_c, 0, 64, 76
1, 59086, Control_c, 0, 64, 77
1, 59101, Control_c, 0, 64, 77
1, 59116, Control_c, 0, 64, 78
1, 59130, Control_c, 0, 64, 79
1, 59145, Control_c, 0, 64, 80
1, 59148, Note_on_c, 0, 63, 30
1, 59205, Control_c, 0, 64, 78
1, 59220, Control_c, 0, 64, 74
1, 59235, Control_c, 0, 64, 68
1, 59245, Note_off_c, 0, 63, 35
1, 59249, Control_c, 0, 64, 61
1, 59253, Note_on_c, 0, 55, 35
1, 59254, Note_off_c, 0, 64, 57
1, 59259, Note_on_c, 0, 52, 39
1, 59264, Control_c, 0, 64, 52
1, 59279, Control_c, 0, 64, 53
1, 59294, Control_c, 0, 64, 56
1, 59299, Note_off_c, 0, 73, 50
1, 59309, Control_c, 0, 64, 61
1, 59323, Control_c, 0, 64, 66
1, 59338, Control_c, 0, 64, 70
1, 59360, Control_c, 0, 64, 74
1, 59375, Control_c, 0, 64, 76
1, 59384, Note_off_c, 0, 67, 37
1, 59390, Control_c, 0, 64, 77
1, 59393, Note_on_c, 0, 63, 48
1, 59405, Control_c, 0, 64, 78
1, 59419, Control_c, 0, 64, 79
1, 59434, Control_c, 0, 64, 80
1, 59438, Note_off_c, 0, 63, 56
1, 59529, Note_on_c, 0, 63, 35
1, 59533, Note_off_c, 0, 52, 38
1, 59577, Note_off_c, 0, 63, 47
1, 59620, Note_off_c, 0, 55, 41
1, 59746, Control_c, 0, 64, 79
1, 59753, Note_on_c, 0, 73, 49
1, 59758, Note_on_c, 0, 67, 46
1, 59761, Control_c, 0, 64, 78
1, 59765, Note_on_c, 0, 63, 40
1, 59776, Control_c, 0, 64, 77
1, 59791, Control_c, 0, 64, 76
1, 59805, Control_c, 0, 64, 74
1, 59820, Control_c, 0, 64, 73
1, 59835, Control_c, 0, 64, 70
1, 59850, Control_c, 0, 64, 68
1, 59865, Control_c, 0, 64, 65
1, 59879, Control_c, 0, 64, 64
1, 59899, Note_on_c, 0, 51, 50
1, 59909, Control_c, 0, 64, 64
1, 59924, Control_c, 0, 64, 63
1, 59939, Control_c, 0, 64, 61
1, 59941, Note_off_c, 0, 51, 60
1, 59953, Control_c, 0, 64, 59
1, 59968, Control_c, 0, 64, 56
1, 59983, Control_c, 0, 64, 55
1, 59998, Control_c, 0, 64, 54
1, 60013, Control_c, 0, 64, 52
1, 60025, Note_on_c, 0, 51, 51
1, 60028, Control_c, 0, 64, 50
1, 60042, Control_c, 0, 64, 48
1, 60057, Note_off_c, 0, 51, 60
1, 60072, Control_c, 0, 64, 47
1, 60087, Control_c, 0, 64, 46
1, 60109, Control_c, 0, 64, 45
1, 60124, Control_c, 0, 64, 44
1, 60139, Control_c, 0, 64, 44
1, 60153, Note_on_c, 0, 51, 55
1, 60153, Control_c, 0, 64, 43
1, 60168, Control_c, 0, 64, 43
1, 60183, Control_c, 0, 64, 41
1, 60188, Note_off_c, 0, 51, 62
1, 60197, Control_c, 0, 64, 40
1, 60227, Control_c, 0, 64, 40
1, 60272, Note_on_c, 0, 51, 56
1, 60273, Control_c, 0, 64, 39
1, 60288, Control_c, 0, 64, 39
1, 60302, Control_c, 0, 64, 38
1, 60310, Note_off_c, 0, 51, 61
1, 60326, Note_off_c, 0, 73, 56
1, 60332, Control_c, 0, 64, 38
1, 60347, Control_c, 0, 64, 35
1, 60362, Control_c, 0, 64, 32
1, 60366, Note_off_c, 0, 67, 42
1, 60376, Control_c, 0, 64, 30
1, 60379, Note_off_c, 0, 63, 44
1, 60391, Control_c, 0, 64, 28
1, 60397, Note_on_c, 0, 51, 53
1, 60406, Control_c, 0, 64, 27
1, 60419, Control_c, 0, 64, 24
1, 60431, Note_off_c, 0, 51, 61
1, 60434, Control_c, 0, 64, 16
1, 60449, Control_c, 0, 64, 0
1, 60525, Note_on_c, 0, 51, 48
1, 60554, Note_off_c, 0, 51, 55
1, 60652, Note_on_c, 0, 51, 44
1, 60681, Note_off_c, 0, 51, 54
1, 60770, Note_on_c, 0, 51, 48
1, 60800, Note_off_c, 0, 51, 56
1, 60901, Note_on_c, 0, 51, 51
1, 60934, Note_off_c, 0, 51, 61
1, 61024, Note_on_c, 0, 51, 52
1, 61055, Note_off_c, 0, 51, 59
1, 61146, Note_on_c, 0, 51, 50
1, 61173, Note_off_c, 0, 51, 58
1, 61259, Note_on_c, 0, 61, 53
1, 61263, Note_on_c, 0, 58, 45
1, 61265, Note_on_c, 0, 55, 42
1, 61288, Control_c, 0, 64, 59
1, 61303, Control_c, 0, 64, 65
1, 61317, Control_c, 0, 64, 68
1, 61332, Control_c, 0, 64, 69
1, 61347, Control_c, 0, 64, 69
1, 61362, Control_c, 0, 64, 70
1, 61390, Note_on_c, 0, 39, 55
1, 61421, Control_c, 0, 64, 69
1, 61429, Note_off_c, 0, 39, 61
1, 61435, Control_c, 0, 64, 68
1, 61450, Control_c, 0, 64, 66
1, 61465, Control_c, 0, 64, 63
1, 61480, Control_c, 0, 64, 61
1, 61495, Control_c, 0, 64, 59
1, 61509, Control_c, 0, 64, 57
1, 61524, Note_on_c, 0, 39, 51
1, 61524, Control_c, 0, 64, 55
1, 61539, Control_c, 0, 64, 52
1, 61554, Control_c, 0, 64, 49
1, 61562, Note_off_c, 0, 39, 60
1, 61569, Control_c, 0, 64, 47
1, 61591, Control_c, 0, 64, 45
1, 61606, Control_c, 0, 64, 41
1, 61621, Control_c, 0, 64, 31
1, 61636, Control_c, 0, 64, 10
1, 61647, Note_on_c, 0, 39, 46
1, 61650, Control_c, 0, 64, 0
1, 61689, Note_off_c, 0, 39, 59
1, 61698, Note_off_c, 0, 61, 56
1, 61712, Note_off_c, 0, 58, 57
1, 61722, Note_off_c, 0, 55, 35
1, 61773, Note_on_c, 0, 39, 47
1, 61814, Note_off_c, 0, 39, 61
1, 61909, Note_on_c, 0, 39, 49
1, 61947, Note_off_c, 0, 39, 60
1, 62037, Note_on_c, 0, 39, 51
1, 62079, Note_off_c, 0, 39, 61
1, 62171, Note_on_c, 0, 39, 45
1, 62216, Note_off_c, 0, 39, 57
1, 62311, Note_on_c, 0, 39, 38
1, 62370, Note_off_c, 0, 39, 57
1, 62475, Note_on_c, 0, 39, 33
1, 62517, Note_off_c, 0, 39, 53
1, 62628, Note_on_c, 0, 39, 46
1, 62636, Control_c, 0, 64, 10
1, 62651, Control_c, 0, 64, 16
1, 62667, Control_c, 0, 64, 18
1, 62677, Note_off_c, 0, 39, 56
1, 62682, Control_c, 0, 64, 19
1, 62696, Control_c, 0, 64, 25
1, 62711, Control_c, 0, 64, 29
1, 62726, Control_c, 0, 64, 30
1, 62756, Control_c, 0, 64, 32
1, 62770, Control_c, 0, 64, 34
1, 62785, Control_c, 0, 64, 39
1, 62800, Control_c, 0, 64, 42
1, 62804, Note_on_c, 0, 39, 41
1, 62815, Control_c, 0, 64, 44
1, 62830, Control_c, 0, 64, 45
1, 62845, Control_c, 0, 64, 45
1, 62859, Control_c, 0, 64, 46
1, 62874, Control_c, 0, 64, 47
1, 62875, Note_off_c, 0, 39, 50
1, 62889, Control_c, 0, 64, 49
1, 62904, Control_c, 0, 64, 50
1, 62919, Control_c, 0, 64, 51
1, 62934, Control_c, 0, 64, 52
1, 62949, Control_c, 0, 64, 53
1, 62963, Control_c, 0, 64, 55
1, 62978, Control_c, 0, 64, 56
1, 62993, Control_c, 0, 64, 56
1, 63008, Control_c, 0, 64, 57
1, 63022, Control_c, 0, 64, 58
1, 63037, Control_c, 0, 64, 59
1, 63067, Control_c, 0, 64, 60
1, 63076, Note_on_c, 0, 32, 44
1, 63082, Control_c, 0, 64, 60
1, 63104, Control_c, 0, 64, 61
1, 63119, Control_c, 0, 64, 61
1, 63134, Control_c, 0, 64, 62
1, 63149, Control_c, 0, 64, 62
1, 63163, Control_c, 0, 64, 63
1, 63178, Control_c, 0, 64, 65
1, 63193, Control_c, 0, 64, 67
1, 63208, Control_c, 0, 64, 69
1, 63222, Control_c, 0, 64, 71
1, 63237, Control_c, 0, 64, 74
1, 63252, Control_c, 0, 64, 77
1, 63267, Control_c, 0, 64, 80
1, 63282, Control_c, 0, 64, 82
1, 63296, Control_c, 0, 64, 83
1, 63311, Control_c, 0, 64, 84
1, 63326, Control_c, 0, 64, 86
1, 63340, Control_c, 0, 64, 88
1, 63355, Control_c, 0, 64, 89
1, 63370, Control_c, 0, 64, 90
1, 63387, Note_off_c, 0, 32, 41
1, 63395, Note_on_c, 0, 36, 44
1, 63399, Note_on_c, 0, 39, 37
1, 63400, Control_c, 0, 64, 90
1, 63406, Note_on_c, 0, 44, 38
1, 63414, Control_c, 0, 64, 92
1, 63429, Control_c, 0, 64, 93
1, 63444, Control_c, 0, 64, 95
1, 63459, Control_c, 0, 64, 97
1, 63475, Control_c, 0, 64, 98
1, 63490, Control_c, 0, 64, 99
1, 63505, Control_c, 0, 64, 100
1, 63519, Control_c, 0, 64, 101
1, 63534, Control_c, 0, 64, 102
1, 63536, Note_on_c, 0, 32, 37
1, 63549, Control_c, 0, 64, 103
1, 63561, Note_off_c, 0, 39, 33
1, 63564, Control_c, 0, 64, 104
1, 63573, Note_off_c, 0, 44, 38
1, 63583, Note_off_c, 0, 36, 37
1, 63593, Control_c, 0, 64, 104
1, 63637, Control_c, 0, 64, 105
1, 63655, Note_on_c, 0, 44, 35
1, 63666, Note_on_c, 0, 36, 25
1, 63669, Note_on_c, 0, 39, 32
1, 63676, Note_off_c, 0, 32, 35
1, 63682, Control_c, 0, 64, 105
1, 63697, Control_c, 0, 64, 106
1, 63712, Control_c, 0, 64, 106
1, 63727, Control_c, 0, 64, 107
1, 63742, Control_c, 0, 64, 107
1, 63772, Control_c, 0, 64, 108
1, 63786, Control_c, 0, 64, 108
1, 63800, Note_on_c, 0, 32, 50
1, 63805, Note_off_c, 0, 36, 36
1, 63810, Note_off_c, 0, 39, 35
1, 63816, Control_c, 0, 64, 109
1, 63819, Note_off_c, 0, 44, 36
1, 63831, Control_c, 0, 64, 110
1, 63852, Control_c, 0, 64, 111
1, 63867, Control_c, 0, 64, 112
1, 63882, Control_c, 0, 64, 112
1, 63897, Control_c, 0, 64, 113
1, 63901, Note_off_c, 0, 32, 51
1, 63912, Control_c, 0, 64, 114
1, 63925, Note_on_c, 0, 44, 39
1, 63927, Control_c, 0, 64, 115
1, 63933, Note_on_c, 0, 39, 36
1, 63935, Note_on_c, 0, 36, 37
1, 63942, Control_c, 0, 64, 116
1, 63956, Control_c, 0, 64, 117
1, 63971, Control_c, 0, 64, 117
1, 63986, Control_c, 0, 64, 118
1, 64045, Control_c, 0, 64, 118
1, 64049, Note_on_c, 0, 32, 51
1, 64054, Note_off_c, 0, 44, 37
1, 64063, Note_off_c, 0, 36, 33
1, 64063, Note_off_c, 0, 39, 35
1, 64090, Control_c, 0, 64, 119
1, 64128, Note_off_c, 0, 32, 59
1, 64149, Control_c, 0, 64, 119
1, 64161, Note_on_c, 0, 39, 28
1, 64161, Note_on_c, 0, 44, 37
1, 64163, Note_on_c, 0, 36, 26
1, 64192, Control_c, 0, 64, 120
1, 64284, Note_on_c, 0, 32, 41
1, 64318, Note_off_c, 0, 36, 33
1, 64319, Note_off_c, 0, 39, 38
1, 64329, Note_off_c, 0, 44, 30
1, 64412, Note_on_c, 0, 44, 24
1, 64415, Note_on_c, 0, 60, 60
1, 64422, Note_on_c, 0, 39, 32
1, 64427, Note_on_c, 0, 36, 23
1, 64430, Note_off_c, 0, 32, 36
1, 64432, Note_on_c, 0, 48, 48
1, 64539, Note_off_c, 0, 48, 52
1, 64540, Note_off_c, 0, 36, 36
1, 64556, Note_off_c, 0, 39, 35
1, 64556, Note_on_c, 0, 32, 46
1, 64564, Control_c, 0, 64, 120
1, 64571, Note_off_c, 0, 44, 35
1, 64579, Control_c, 0, 64, 121
1, 64612, Note_off_c, 0, 60, 62
1, 64615, Control_c, 0, 64, 121
1, 64630, Control_c, 0, 64, 122
1, 64645, Control_c, 0, 64, 123
1, 64660, Control_c, 0, 64, 124
1, 64672, Note_off_c, 0, 32, 36
1, 64675, Control_c, 0, 64, 126
1, 64676, Note_on_c, 0, 44, 31
1, 64686, Note_on_c, 0, 39, 34
1, 64690, Control_c, 0, 64, 127
1, 64693, Note_on_c, 0, 63, 65
1, 64696, Note_on_c, 0, 36, 27
1, 64722, Note_off_c, 0, 63, 67
1, 64779, Note_on_c, 0, 68, 74
1, 64791, Note_on_c, 0, 56, 53
1, 64794, Note_on_c, 0, 32, 51
1, 64824, Note_off_c, 0, 36, 32
1, 64839, Note_off_c, 0, 39, 32
1, 64856, Note_off_c, 0, 44, 30
1, 64905, Note_off_c, 0, 56, 60
1, 64911, Note_on_c, 0, 44, 28
1, 64915, Note_on_c, 0, 39, 30
1, 64922, Note_on_c, 0, 36, 29
1, 64932, Note_off_c, 0, 32, 35
1, 65041, Note_on_c, 0, 32, 56
1, 65072, Note_off_c, 0, 39, 35
1, 65092, Note_off_c, 0, 44, 40
1, 65097, Note_off_c, 0, 36, 37
1, 65157, Note_off_c, 0, 32, 57
1, 65186, Note_on_c, 0, 72, 70
1, 65188, Note_on_c, 0, 44, 38
1, 65193, Note_on_c, 0, 60, 56
1, 65202, Note_on_c, 0, 36, 13
1, 65206, Note_on_c, 0, 39, 40
1, 65212, Note_off_c, 0, 68, 61
1, 65259, Note_off_c, 0, 39, 55
1, 65299, Note_on_c, 0, 32, 44
1, 65306, Note_off_c, 0, 60, 61
1, 65307, Note_off_c, 0, 36, 0
1, 65337, Note_off_c, 0, 44, 35
1, 65345, Note_off_c, 0, 72, 63
1, 65351, Poly_aftertouch_c, 0, 36, 127
1, 65414, Note_on_c, 0, 44, 27
1, 65415, Note_on_c, 0, 39, 39
1, 65418, Poly_aftertouch_c, 0, 36, 0
1, 65435, Note_off_c, 0, 32, 37
1, 65457, Note_on_c, 0, 68, 69
1, 65474, Note_on_c, 0, 56, 53
1, 65499, Control_c, 0, 64, 126
1, 65514, Control_c, 0, 64, 113
1, 65521, Note_off_c, 0, 56, 62
1, 65529, Control_c, 0, 64, 102
1, 65544, Control_c, 0, 64, 88
1, 65551, Note_on_c, 0, 34, 49
1, 65555, Note_off_c, 0, 44, 40
1, 65559, Control_c, 0, 64, 75
1, 65563, Note_on_c, 0, 67, 72
1, 65573, Control_c, 0, 64, 58
1, 65574, Note_off_c, 0, 39, 35
1, 65575, Note_on_c, 0, 55, 48
1, 65575, Note_off_c, 0, 68, 52
1, 65588, Control_c, 0, 64, 0
1, 65694, Note_off_c, 0, 34, 54
1, 65694, Note_on_c, 0, 46, 45
1, 65704, Note_on_c, 0, 39, 45
1, 65716, Note_on_c, 0, 37, 37
1, 65721, Control_c, 0, 64, 64
1, 65736, Control_c, 0, 64, 73
1, 65751, Control_c, 0, 64, 82
1, 65766, Control_c, 0, 64, 89
1, 65781, Control_c, 0, 64, 92
1, 65796, Control_c, 0, 64, 93
1, 65808, Note_off_c, 0, 55, 64
1, 65810, Control_c, 0, 64, 93
1, 65828, Note_on_c, 0, 34, 53
1, 65830, Note_off_c, 0, 37, 37
1, 65840, Control_c, 0, 64, 94
1, 65854, Note_off_c, 0, 39, 34
1, 65871, Note_off_c, 0, 46, 33
1, 65930, Control_c, 0, 64, 94
1, 65952, Note_off_c, 0, 34, 57
1, 65985, Note_on_c, 0, 70, 72
1, 65986, Note_on_c, 0, 37, 35
1, 65986, Note_on_c, 0, 39, 44
1, 65989, Note_on_c, 0, 46, 42
1, 65996, Note_on_c, 0, 58, 53
1, 66002, Note_off_c, 0, 67, 53
1, 66045, Note_off_c, 0, 37, 51
1, 66061, Note_off_c, 0, 39, 53
1, 66100, Control_c, 0, 64, 95
1, 66109, Note_off_c, 0, 46, 32
1, 66115, Note_on_c, 0, 34, 46
1, 66146, Note_off_c, 0, 58, 52
1, 66216, Note_on_c, 0, 37, 44
1, 66222, Note_off_c, 0, 70, 61
1, 66224, Note_on_c, 0, 39, 39
1, 66250, Note_on_c, 0, 46, 38
1, 66258, Note_off_c, 0, 37, 62
1, 66258, Note_off_c, 0, 39, 57
1, 66262, Note_off_c, 0, 34, 35
1, 66283, Note_off_c, 0, 46, 54
1, 66308, Note_on_c, 0, 67, 62
1, 66320, Note_on_c, 0, 55, 45
1, 66351, Note_off_c, 0, 55, 54
1, 66381, Control_c, 0, 64, 94
1, 66396, Control_c, 0, 64, 91
1, 66411, Control_c, 0, 64, 85
1, 66426, Control_c, 0, 64, 75
1, 66440, Control_c, 0, 64, 63
1, 66455, Control_c, 0, 64, 0
1, 66457, Note_on_c, 0, 68, 69
1, 66459, Note_on_c, 0, 36, 42
1, 66460, Note_off_c, 0, 67, 61
1, 66467, Note_on_c, 0, 56, 55
1, 66603, Control_c, 0, 64, 32
1, 66618, Control_c, 0, 64, 65
1, 66622, Note_on_c, 0, 39, 36
1, 66623, Note_on_c, 0, 44, 39
1, 66625, Note_on_c, 0, 48, 32
1, 66633, Note_off_c, 0, 36, 44
1, 66633, Control_c, 0, 64, 73
1, 66648, Control_c, 0, 64, 81
1, 66663, Control_c, 0, 64, 87
1, 66669, Note_off_c, 0, 68, 64
1, 66678, Control_c, 0, 64, 90
1, 66693, Note_off_c, 0, 39, 48
1, 66693, Note_off_c, 0, 56, 64
1, 66693, Control_c, 0, 64, 92
1, 66708, Control_c, 0, 64, 93
1, 66723, Control_c, 0, 64, 95
1, 66738, Note_off_c, 0, 44, 49
1, 66738, Control_c, 0, 64, 95
1, 66753, Control_c, 0, 64, 96
1, 66756, Note_on_c, 0, 36, 32
1, 66767, Control_c, 0, 64, 96
1, 66779, Note_off_c, 0, 48, 40
1, 66797, Control_c, 0, 64, 97
1, 66863, Control_c, 0, 64, 97
1, 66892, Note_off_c, 0, 36, 36
1, 66912, Note_on_c, 0, 63, 58
1, 66925, Note_on_c, 0, 39, 33
1, 66928, Note_on_c, 0, 51, 49
1, 66932, Note_on_c, 0, 44, 16
1, 66940, Note_on_c, 0, 48, 18
1, 66986, Note_off_c, 0, 39, 50
1, 67027, Note_on_c, 0, 36, 44
1, 67032, Note_off_c, 0, 44, 35
1, 67033, Note_off_c, 0, 48, 35
1, 67086, Control_c, 0, 64, 98
1, 67116, Control_c, 0, 64, 98
1, 67125, Note_off_c, 0, 36, 57
1, 67130, Control_c, 0, 64, 99
1, 67145, Control_c, 0, 64, 99
1, 67158, Note_on_c, 0, 39, 31
1, 67160, Control_c, 0, 64, 100
1, 67166, Note_on_c, 0, 48, 46
1, 67170, Note_on_c, 0, 44, 41
1, 67172, Note_off_c, 0, 51, 60
1, 67175, Control_c, 0, 64, 101
1, 67189, Control_c, 0, 64, 102
1, 67204, Control_c, 0, 64, 103
1, 67219, Control_c, 0, 64, 105
1, 67222, Note_off_c, 0, 39, 56
1, 67226, Note_off_c, 0, 44, 56
1, 67234, Control_c, 0, 64, 107
1, 67249, Note_off_c, 0, 48, 46
1, 67249, Control_c, 0, 64, 108
1, 67263, Control_c, 0, 64, 111
1, 67271, Note_on_c, 0, 36, 53
1, 67278, Control_c, 0, 64, 114
1, 67293, Control_c, 0, 64, 116
1, 67308, Control_c, 0, 64, 118
1, 67323, Control_c, 0, 64, 119
1, 67337, Control_c, 0, 64, 120
1, 67352, Control_c, 0, 64, 124
1, 67367, Control_c, 0, 64, 127
1, 67370, Note_off_c, 0, 36, 52
1, 67376, Note_on_c, 0, 39, 39
1, 67384, Note_on_c, 0, 48, 49
1, 67394, Note_on_c, 0, 44, 33
1, 67449, Note_off_c, 0, 39, 48
1, 67477, Note_off_c, 0, 44, 47
1, 67477, Note_off_c, 0, 48, 36
1, 67492, Note_on_c, 0, 36, 52
1, 67546, Control_c, 0, 64, 119
1, 67560, Control_c, 0, 64, 102
1, 67575, Control_c, 0, 64, 86
1, 67590, Note_off_c, 0, 36, 60
1, 67598, Control_c, 0, 64, 69
1, 67612, Control_c, 0, 64, 0
1, 67636, Note_on_c, 0, 65, 63
1, 67637, Note_on_c, 0, 44, 54
1, 67642, Note_on_c, 0, 53, 44
1, 67644, Note_off_c, 0, 63, 60
1, 67731, Control_c, 0, 64, 64
1, 67746, Control_c, 0, 64, 74
1, 67756, Note_off_c, 0, 44, 53
1, 67760, Control_c, 0, 64, 81
1, 67763, Note_on_c, 0, 37, 51
1, 67775, Control_c, 0, 64, 87
1, 67790, Control_c, 0, 64, 92
1, 67793, Note_off_c, 0, 53, 65
1, 67805, Control_c, 0, 64, 96
1, 67807, Note_off_c, 0, 65, 62
1, 67820, Control_c, 0, 64, 100
1, 67835, Control_c, 0, 64, 102
1, 67849, Control_c, 0, 64, 103
1, 67864, Note_off_c, 0, 37, 60
1, 67864, Control_c, 0, 64, 104
1, 67879, Control_c, 0, 64, 105
1, 67889, Note_on_c, 0, 44, 51
1, 67894, Control_c, 0, 64, 105
1, 67909, Control_c, 0, 64, 106
1, 67943, Note_on_c, 0, 61, 57
1, 67954, Control_c, 0, 64, 103
1, 67969, Control_c, 0, 64, 96
1, 67972, Note_on_c, 0, 49, 29
1, 67984, Control_c, 0, 64, 87
1, 67999, Control_c, 0, 64, 75
1, 68009, Note_off_c, 0, 49, 41
1, 68013, Control_c, 0, 64, 63
1, 68022, Note_on_c, 0, 39, 43
1, 68022, Note_off_c, 0, 44, 54
1, 68028, Control_c, 0, 64, 0
1, 68037, Note_on_c, 0, 60, 68
1, 68046, Note_off_c, 0, 61, 57
1, 68063, Note_on_c, 0, 48, 49
1, 68161, Control_c, 0, 64, 56
1, 68166, Note_on_c, 0, 44, 50
1, 68168, Note_off_c, 0, 39, 50
1, 68176, Control_c, 0, 64, 67
1, 68191, Control_c, 0, 64, 75
1, 68205, Control_c, 0, 64, 86
1, 68220, Control_c, 0, 64, 97
1, 68235, Control_c, 0, 64, 102
1, 68250, Control_c, 0, 64, 102
1, 68266, Control_c, 0, 64, 103
1, 68274, Note_off_c, 0, 48, 62
1, 68281, Control_c, 0, 64, 103
1, 68294, Note_off_c, 0, 44, 58
1, 68296, Control_c, 0, 64, 104
1, 68298, Note_on_c, 0, 39, 52
1, 68310, Control_c, 0, 64, 104
1, 68392, Control_c, 0, 64, 105
1, 68414, Note_off_c, 0, 39, 60
1, 68432, Note_on_c, 0, 44, 52
1, 68433, Note_on_c, 0, 63, 69
1, 68443, Note_off_c, 0, 60, 56
1, 68460, Note_on_c, 0, 51, 44
1, 68520, Note_off_c, 0, 44, 57
1, 68556, Note_on_c, 0, 39, 47
1, 68592, Note_off_c, 0, 51, 62
1, 68625, Note_off_c, 0, 39, 56
1, 68636, Note_off_c, 0, 63, 64
1, 68644, Note_on_c, 0, 44, 55
1, 68705, Note_on_c, 0, 60, 70
1, 68717, Control_c, 0, 64, 104
1, 68732, Control_c, 0, 64, 97
1, 68747, Control_c, 0, 64, 86
1, 68761, Control_c, 0, 64, 72
1, 68768, Note_off_c, 0, 44, 56
1, 68771, Note_on_c, 0, 39, 45
1, 68776, Control_c, 0, 64, 53
1, 68788, Note_off_c, 0, 60, 51
1, 68791, Control_c, 0, 64, 0
1, 68803, Note_on_c, 0, 58, 74
1, 68833, Note_on_c, 0, 46, 54
1, 68909, Control_c, 0, 64, 52
1, 68917, Note_off_c, 0, 39, 59
1, 68920, Note_on_c, 0, 43, 56
1, 68924, Control_c, 0, 64, 65
1, 68939, Control_c, 0, 64, 70
1, 68953, Control_c, 0, 64, 76
1, 68968, Control_c, 0, 64, 82
1, 68983, Control_c, 0, 64, 87
1, 68998, Control_c, 0, 64, 89
1, 69006, Note_off_c, 0, 46, 62
1, 69013, Control_c, 0, 64, 91
1, 69027, Control_c, 0, 64, 93
1, 69042, Control_c, 0, 64, 94
1, 69049, Note_off_c, 0, 43, 52
1, 69058, Control_c, 0, 64, 95
1, 69069, Note_on_c, 0, 39, 50
1, 69073, Control_c, 0, 64, 96
1, 69095, Control_c, 0, 64, 97
1, 69110, Control_c, 0, 64, 97
1, 69125, Control_c, 0, 64, 98
1, 69140, Control_c, 0, 64, 98
1, 69155, Control_c, 0, 64, 99
1, 69189, Note_off_c, 0, 39, 56
1, 69213, Note_on_c, 0, 43, 45
1, 69225, Note_on_c, 0, 63, 68
1, 69229, Control_c, 0, 64, 99
1, 69253, Note_on_c, 0, 51, 49
1, 69311, Note_off_c, 0, 58, 57
1, 69321, Note_off_c, 0, 43, 44
1, 69334, Note_on_c, 0, 39, 47
1, 69370, Note_off_c, 0, 51, 53
1, 69462, Note_on_c, 0, 43, 55
1, 69501, Note_off_c, 0, 43, 59
1, 69515, Note_off_c, 0, 39, 40
1, 69563, Note_on_c, 0, 61, 69
1, 69575, Note_on_c, 0, 49, 44
1, 69606, Note_off_c, 0, 49, 56
1, 69718, Control_c, 0, 64, 99
1, 69732, Control_c, 0, 64, 96
1, 69747, Control_c, 0, 64, 88
1, 69762, Control_c, 0, 64, 77
1, 69776, Control_c, 0, 64, 64
1, 69787, Note_on_c, 0, 44, 45
1, 69790, Note_off_c, 0, 63, 44
1, 69791, Control_c, 0, 64, 0
1, 69798, Note_on_c, 0, 60, 63
1, 69856, Note_off_c, 0, 61, 49
1, 70007, Note_on_c, 0, 56, 34
1, 70009, Note_on_c, 0, 48, 41
1, 70014, Note_on_c, 0, 51, 38
1, 70022, Control_c, 0, 64, 63
1, 70035, Note_off_c, 0, 44, 58
1, 70037, Control_c, 0, 64, 70
1, 70052, Control_c, 0, 64, 76
1, 70067, Control_c, 0, 64, 82
1, 70081, Control_c, 0, 64, 85
1, 70096, Control_c, 0, 64, 88
1, 70111, Control_c, 0, 64, 90
1, 70126, Control_c, 0, 64, 93
1, 70130, Note_off_c, 0, 51, 48
1, 70141, Note_off_c, 0, 48, 0
1, 70141, Control_c, 0, 64, 94
1, 70154, Note_on_c, 0, 44, 41
1, 70155, Control_c, 0, 64, 95
1, 70170, Control_c, 0, 64, 97
1, 70172, Poly_aftertouch_c, 0, 48, 0
1, 70178, Note_off_c, 0, 56, 33
1, 70185, Control_c, 0, 64, 98
1, 70200, Control_c, 0, 64, 99
1, 70214, Control_c, 0, 64, 100
1, 70244, Control_c, 0, 64, 100
1, 70264, Note_off_c, 0, 44, 53
1, 70274, Control_c, 0, 64, 101
1, 70288, Note_on_c, 0, 63, 62
1, 70297, Note_on_c, 0, 51, 34
1, 70303, Control_c, 0, 64, 101
1, 70309, Note_on_c, 0, 56, 32
1, 70310, Note_on_c, 0, 48, 36
1, 70318, Control_c, 0, 64, 102
1, 70333, Control_c, 0, 64, 102
1, 70347, Control_c, 0, 64, 103
1, 70362, Control_c, 0, 64, 103
1, 70377, Control_c, 0, 64, 104
1, 70392, Control_c, 0, 64, 104
1, 70399, Note_off_c, 0, 48, 49
1, 70407, Control_c, 0, 64, 105
1, 70410, Note_on_c, 0, 44, 49
1, 70422, Control_c, 0, 64, 106
1, 70433, Note_off_c, 0, 51, 35
1, 70437, Control_c, 0, 64, 107
1, 70438, Note_off_c, 0, 56, 41
1, 70452, Control_c, 0, 64, 108
1, 70467, Control_c, 0, 64, 109
1, 70481, Control_c, 0, 64, 110
1, 70496, Control_c, 0, 64, 112
1, 70509, Note_off_c, 0, 44, 59
1, 70511, Control_c, 0, 64, 113
1, 70525, Control_c, 0, 64, 115
1, 70540, Control_c, 0, 64, 118
1, 70551, Note_on_c, 0, 56, 44
1, 70552, Note_on_c, 0, 48, 46
1, 70555, Control_c, 0, 64, 123
1, 70557, Note_on_c, 0, 51, 46
1, 70577, Control_c, 0, 64, 127
1, 70580, Note_off_c, 0, 63, 65
1, 70622, Note_off_c, 0, 60, 62
1, 70635, Note_off_c, 0, 51, 53
1, 70638, Note_off_c, 0, 48, 58
1, 70653, Note_on_c, 0, 44, 53
1, 70660, Note_off_c, 0, 56, 45
1, 70765, Note_off_c, 0, 44, 61
1, 70780, Note_on_c, 0, 48, 54
1, 70782, Note_on_c, 0, 51, 44
1, 70787, Note_on_c, 0, 56, 50
1, 70871, Note_off_c, 0, 48, 55
1, 70881, Note_off_c, 0, 51, 52
1, 70885, Note_off_c, 0, 56, 50
1, 70890, Note_on_c, 0, 44, 57
1, 70997, Note_off_c, 0, 44, 60
1, 71004, Note_on_c, 0, 56, 41
1, 71008, Note_on_c, 0, 72, 72
1, 71015, Note_on_c, 0, 60, 63
1, 71024, Note_on_c, 0, 51, 50
1, 71027, Note_on_c, 0, 48, 48
1, 71093, Note_off_c, 0, 48, 54
1, 71105, Note_off_c, 0, 51, 54
1, 71105, Note_off_c, 0, 56, 57
1, 71114, Note_on_c, 0, 44, 61
1, 71134, Note_off_c, 0, 60, 60
1, 71197, Note_off_c, 0, 72, 63
1, 71216, Note_off_c, 0, 44, 61
1, 71234, Note_on_c, 0, 56, 56
1, 71240, Note_on_c, 0, 51, 52
1, 71245, Note_on_c, 0, 48, 52
1, 71257, Note_on_c, 0, 75, 78
1, 71286, Note_off_c, 0, 75, 66
1, 71340, Note_off_c, 0, 48, 55
1, 71343, Note_on_c, 0, 44, 63
1, 71347, Note_off_c, 0, 51, 55
1, 71358, Note_on_c, 0, 80, 90
1, 71368, Note_on_c, 0, 68, 71
1, 71392, Note_off_c, 0, 56, 39
1, 71480, Note_off_c, 0, 44, 61
1, 71498, Note_on_c, 0, 51, 46
1, 71501, Note_on_c, 0, 48, 53
1, 71504, Note_off_c, 0, 68, 62
1, 71511, Note_on_c, 0, 56, 47
1, 71600, Note_off_c, 0, 48, 58
1, 71606, Note_on_c, 0, 44, 65
1, 71620, Note_off_c, 0, 51, 54
1, 71637, Note_off_c, 0, 56, 54
1, 71740, Note_on_c, 0, 84, 88
1, 71745, Note_off_c, 0, 44, 61
1, 71746, Note_off_c, 0, 80, 66
1, 71747, Note_on_c, 0, 72, 73
1, 71751, Note_on_c, 0, 51, 55
1, 71751, Note_on_c, 0, 48, 54
1, 71763, Note_on_c, 0, 56, 52
1, 71849, Note_off_c, 0, 51, 55
1, 71850, Note_on_c, 0, 44, 64
1, 71862, Note_off_c, 0, 56, 55
1, 71866, Note_off_c, 0, 72, 64
1, 71901, Note_off_c, 0, 84, 63
1, 71949, Note_off_c, 0, 44, 61
1, 71961, Note_off_c, 0, 48, 42
1, 71968, Note_on_c, 0, 56, 58
1, 71978, Note_on_c, 0, 51, 57
1, 71999, Note_on_c, 0, 80, 76
1, 72007, Note_on_c, 0, 68, 71
1, 72035, Note_off_c, 0, 68, 66
1, 72051, Note_off_c, 0, 56, 55
1, 72068, Control_c, 0, 64, 108
1, 72090, Note_off_c, 0, 51, 56
1, 72091, Control_c, 0, 64, 89
1, 72094, Note_off_c, 0, 80, 54
1, 72096, Note_on_c, 0, 46, 69
1, 72096, Note_on_c, 0, 79, 87
1, 72100, Note_on_c, 0, 67, 79
1, 72106, Control_c, 0, 64, 70
1, 72121, Control_c, 0, 64, 0
1, 72239, Control_c, 0, 64, 64
1, 72245, Note_off_c, 0, 46, 61
1, 72249, Note_on_c, 0, 51, 48
1, 72249, Note_on_c, 0, 58, 54
1, 72255, Note_on_c, 0, 49, 52
1, 72255, Control_c, 0, 64, 77
1, 72270, Control_c, 0, 64, 92
1, 72284, Control_c, 0, 64, 103
1, 72299, Control_c, 0, 64, 105
1, 72314, Control_c, 0, 64, 106
1, 72329, Control_c, 0, 64, 107
1, 72341, Note_off_c, 0, 49, 52
1, 72344, Control_c, 0, 64, 108
1, 72348, Note_off_c, 0, 67, 63
1, 72358, Control_c, 0, 64, 109
1, 72361, Note_off_c, 0, 51, 56
1, 72371, Note_on_c, 0, 46, 72
1, 72373, Control_c, 0, 64, 110
1, 72388, Control_c, 0, 64, 111
1, 72395, Note_off_c, 0, 58, 32
1, 72401, Control_c, 0, 64, 112
1, 72416, Control_c, 0, 64, 113
1, 72431, Control_c, 0, 64, 115
1, 72446, Control_c, 0, 64, 116
1, 72461, Control_c, 0, 64, 118
1, 72476, Control_c, 0, 64, 121
1, 72491, Control_c, 0, 64, 126
1, 72506, Control_c, 0, 64, 127
1, 72516, Note_on_c, 0, 82, 87
1, 72520, Note_off_c, 0, 46, 61
1, 72521, Note_on_c, 0, 58, 59
1, 72526, Note_on_c, 0, 70, 66
1, 72532, Note_on_c, 0, 51, 55
1, 72536, Note_on_c, 0, 49, 53
1, 72544, Note_off_c, 0, 79, 61
1, 72579, Note_off_c, 0, 49, 56
1, 72607, Note_off_c, 0, 51, 49
1, 72651, Note_off_c, 0, 70, 62
1, 72652, Note_on_c, 0, 46, 62
1, 72675, Note_off_c, 0, 58, 30
1, 72720, Note_off_c, 0, 82, 61
1, 72792, Note_on_c, 0, 58, 62
1, 72805, Note_on_c, 0, 49, 51
1, 72808, Note_on_c, 0, 51, 51
1, 72809, Note_off_c, 0, 46, 57
1, 72842, Note_off_c, 0, 51, 63
1, 72842, Note_off_c, 0, 58, 59
1, 72844, Note_off_c, 0, 49, 62
1, 72888, Note_on_c, 0, 79, 74
1, 72899, Note_on_c, 0, 67, 60
1, 72981, Note_off_c, 0, 67, 62
1, 73077, Note_off_c, 0, 79, 60
1, 73239, Control_c, 0, 64, 121
1, 73254, Control_c, 0, 64, 106
1, 73269, Control_c, 0, 64, 90
1, 73284, Control_c, 0, 64, 70
1, 73298, Control_c, 0, 64, 0
1, 73326, Note_on_c, 0, 80, 61
1, 73331, Note_on_c, 0, 68, 55
1, 73331, Note_on_c, 0, 56, 40
1, 73331, Note_on_c, 0, 60, 38
1, 73347, Note_on_c, 0, 48, 35
1, 73352, Note_on_c, 0, 51, 34
1, 73549, Control_c, 0, 64, 63
1, 73572, Control_c, 0, 64, 72
1, 73587, Control_c, 0, 64, 81
1, 73602, Control_c, 0, 64, 88
1, 73617, Control_c, 0, 64, 91
1, 73631, Control_c, 0, 64, 94
1, 73635, Note_off_c, 0, 80, 64
1, 73646, Control_c, 0, 64, 96
1, 73661, Control_c, 0, 64, 99
1, 73668, Note_off_c, 0, 68, 63
1, 73676, Control_c, 0, 64, 102
1, 73691, Control_c, 0, 64, 103
1, 73705, Control_c, 0, 64, 104
1, 73720, Control_c, 0, 64, 106
1, 73735, Control_c, 0, 64, 107
1, 73749, Control_c, 0, 64, 108
1, 73764, Control_c, 0, 64, 109
1, 73779, Control_c, 0, 64, 110
1, 73809, Control_c, 0, 64, 111
1, 73838, Control_c, 0, 64, 111
1, 73854, Control_c, 0, 64, 112
1, 74032, Note_on_c, 0, 75, 41
1, 74035, Note_on_c, 0, 63, 33
1, 74100, Note_off_c, 0, 63, 0
1, 74100, Note_on_c, 0, 63, 3
1, 74870, Note_off_c, 0, 60, 37
1, 74883, Note_off_c, 0, 48, 40
1, 74968, Note_off_c, 0, 63, 56
1, 75002, Note_off_c, 0, 51, 51
1, 75039, Note_off_c, 0, 75, 36
1, 75191, Note_off_c, 0, 56, 49
1, 75336, Control_c, 0, 64, 112
1, 75456, Control_c, 0, 64, 106
1, 75468, Note_on_c, 0, 56, 79
1, 75470, Note_on_c, 0, 76, 92
1, 75471, Control_c, 0, 64, 94
1, 75474, Note_on_c, 0, 64, 81
1, 75475, Note_on_c, 0, 52, 80
1, 75478, Note_on_c, 0, 49, 70
1, 75486, Control_c, 0, 64, 76
1, 75500, Control_c, 0, 64, 45
1, 75515, Control_c, 0, 64, 0
1, 75633, Control_c, 0, 64, 59
1, 75648, Control_c, 0, 64, 74
1, 75663, Control_c, 0, 64, 86
1, 75678, Control_c, 0, 64, 97
1, 75692, Control_c, 0, 64, 99
1, 75707, Control_c, 0, 64, 102
1, 75722, Control_c, 0, 64, 106
1, 75737, Control_c, 0, 64, 112
1, 75741, Note_off_c, 0, 56, 64
1, 75752, Control_c, 0, 64, 119
1, 75767, Control_c, 0, 64, 127
1, 75784, Note_off_c, 0, 64, 63
1, 76086, Control_c, 0, 64, 111
1, 76091, Note_on_c, 0, 73, 89
1, 76098, Note_on_c, 0, 57, 77
1, 76099, Poly_aftertouch_c, 0, 74, 127
1, 76100, Note_on_c, 0, 61, 77
1, 76100, Control_c, 0, 64, 95
1, 76113, Note_off_c, 0, 76, 63
1, 76115, Control_c, 0, 64, 80
1, 76125, Poly_aftertouch_c, 0, 74, 0
1, 76130, Control_c, 0, 64, 64
1, 76144, Control_c, 0, 64, 0
1, 76441, Control_c, 0, 64, 18
1, 76456, Control_c, 0, 64, 47
1, 76471, Control_c, 0, 64, 54
1, 76486, Control_c, 0, 64, 57
1, 76501, Control_c, 0, 64, 58
1, 76515, Control_c, 0, 64, 59
1, 76530, Control_c, 0, 64, 61
1, 76545, Control_c, 0, 64, 63
1, 76560, Control_c, 0, 64, 64
1, 76582, Control_c, 0, 64, 65
1, 76597, Control_c, 0, 64, 65
1, 76612, Control_c, 0, 64, 66
1, 76627, Control_c, 0, 64, 67
1, 76642, Control_c, 0, 64, 69
1, 76656, Control_c, 0, 64, 70
1, 76671, Control_c, 0, 64, 72
1, 76686, Control_c, 0, 64, 73
1, 76701, Control_c, 0, 64, 74
1, 76716, Control_c, 0, 64, 75
1, 76730, Control_c, 0, 64, 78
1, 76745, Control_c, 0, 64, 80
1, 76760, Control_c, 0, 64, 83
1, 76774, Control_c, 0, 64, 85
1, 76789, Control_c, 0, 64, 86
1, 76804, Control_c, 0, 64, 88
1, 76819, Control_c, 0, 64, 89
1, 76834, Control_c, 0, 64, 92
1, 76849, Control_c, 0, 64, 93
1, 76864, Control_c, 0, 64, 95
1, 76879, Control_c, 0, 64, 96
1, 76893, Control_c, 0, 64, 97
1, 76905, Note_off_c, 0, 61, 56
1, 76908, Control_c, 0, 64, 98
1, 76923, Control_c, 0, 64, 99
1, 76938, Control_c, 0, 64, 100
1, 76945, Note_off_c, 0, 49, 49
1, 76953, Control_c, 0, 64, 100
1, 76965, Note_off_c, 0, 73, 54
1, 76967, Control_c, 0, 64, 101
1, 76972, Note_off_c, 0, 52, 54
1, 76982, Control_c, 0, 64, 101
1, 76997, Control_c, 0, 64, 102
1, 77012, Control_c, 0, 64, 102
1, 77013, Note_off_c, 0, 57, 32
1, 77027, Control_c, 0, 64, 103
1, 77146, Control_c, 0, 64, 103
1, 77672, Control_c, 0, 64, 103
1, 77687, Control_c, 0, 64, 101
1, 77702, Control_c, 0, 64, 99
1, 77716, Control_c, 0, 64, 96
1, 77731, Control_c, 0, 64, 94
1, 77740, Note_on_c, 0, 71, 51
1, 77746, Control_c, 0, 64, 90
1, 77752, Note_on_c, 0, 59, 34
1, 77755, Note_on_c, 0, 56, 35
1, 77761, Control_c, 0, 64, 84
1, 77767, Note_on_c, 0, 51, 28
1, 77776, Control_c, 0, 64, 76
1, 77791, Control_c, 0, 64, 68
1, 77806, Control_c, 0, 64, 62
1, 77821, Control_c, 0, 64, 56
1, 77836, Control_c, 0, 64, 54
1, 77851, Control_c, 0, 64, 53
1, 77866, Control_c, 0, 64, 49
1, 77881, Control_c, 0, 64, 39
1, 77895, Control_c, 0, 64, 32
1, 77910, Control_c, 0, 64, 31
1, 77955, Control_c, 0, 64, 29
1, 77970, Control_c, 0, 64, 28
1, 77999, Control_c, 0, 64, 29
1, 78014, Control_c, 0, 64, 31
1, 78029, Control_c, 0, 64, 32
1, 78044, Control_c, 0, 64, 33
1, 78066, Control_c, 0, 64, 36
1, 78081, Control_c, 0, 64, 40
1, 78095, Control_c, 0, 64, 44
1, 78110, Control_c, 0, 64, 47
1, 78125, Control_c, 0, 64, 48
1, 78140, Control_c, 0, 64, 49
1, 78154, Control_c, 0, 64, 50
1, 78169, Control_c, 0, 64, 54
1, 78184, Control_c, 0, 64, 56
1, 78199, Control_c, 0, 64, 58
1, 78214, Control_c, 0, 64, 59
1, 78229, Control_c, 0, 64, 60
1, 78244, Control_c, 0, 64, 60
1, 78259, Control_c, 0, 64, 62
1, 78274, Control_c, 0, 64, 62
1, 78288, Control_c, 0, 64, 63
1, 78318, Control_c, 0, 64, 64
1, 78333, Control_c, 0, 64, 64
1, 78347, Control_c, 0, 64, 65
1, 78362, Control_c, 0, 64, 65
1, 78392, Control_c, 0, 64, 66
1, 78421, Control_c, 0, 64, 66
1, 78436, Control_c, 0, 64, 67
1, 78451, Control_c, 0, 64, 67
1, 78466, Control_c, 0, 64, 68
1, 78481, Control_c, 0, 64, 68
1, 78495, Control_c, 0, 64, 69
1, 78510, Control_c, 0, 64, 69
1, 78525, Control_c, 0, 64, 70
1, 78539, Control_c, 0, 64, 70
1, 78554, Control_c, 0, 64, 71
1, 78569, Control_c, 0, 64, 72
1, 78584, Control_c, 0, 64, 73
1, 78599, Control_c, 0, 64, 74
1, 78614, Control_c, 0, 64, 75
1, 78628, Control_c, 0, 64, 75
1, 78644, Control_c, 0, 64, 76
1, 78659, Control_c, 0, 64, 77
1, 78674, Control_c, 0, 64, 79
1, 78689, Control_c, 0, 64, 80
1, 78704, Control_c, 0, 64, 82
1, 78718, Control_c, 0, 64, 83
1, 78733, Control_c, 0, 64, 84
1, 78748, Control_c, 0, 64, 85
1, 78763, Control_c, 0, 64, 85
1, 78777, Control_c, 0, 64, 86
1, 78792, Control_c, 0, 64, 87
1, 78807, Control_c, 0, 64, 88
1, 78830, Control_c, 0, 64, 88
1, 78844, Control_c, 0, 64, 89
1, 78859, Control_c, 0, 64, 89
1, 78874, Control_c, 0, 64, 90
1, 78889, Control_c, 0, 64, 91
1, 78904, Control_c, 0, 64, 92
1, 78918, Control_c, 0, 64, 92
1, 78926, Note_off_c, 0, 59, 39
1, 78948, Control_c, 0, 64, 93
1, 78977, Control_c, 0, 64, 93
1, 79014, Note_off_c, 0, 51, 37
1, 79095, Note_on_c, 0, 70, 42
1, 79211, Note_off_c, 0, 71, 37
1, 79214, Control_c, 0, 64, 94
1, 79285, Note_off_c, 0, 56, 42
1, 79418, Note_on_c, 0, 68, 51
1, 79478, Note_off_c, 0, 70, 50
1, 79511, Control_c, 0, 64, 93
1, 79578, Control_c, 0, 64, 92
1, 79592, Control_c, 0, 64, 90
1, 79607, Control_c, 0, 64, 85
1, 79614, Note_off_c, 0, 68, 59
1, 79619, Note_on_c, 0, 69, 52
1, 79622, Control_c, 0, 64, 81
1, 79624, Note_on_c, 0, 55, 45
1, 79627, Note_on_c, 0, 61, 44
1, 79630, Note_on_c, 0, 51, 42
1, 79637, Control_c, 0, 64, 75
1, 79652, Control_c, 0, 64, 67
1, 79666, Control_c, 0, 64, 49
1, 79681, Control_c, 0, 64, 0
1, 79746, Note_off_c, 0, 69, 62
1, 79766, Note_on_c, 0, 70, 53
1, 79800, Control_c, 0, 64, 39
1, 79815, Control_c, 0, 64, 61
1, 79830, Control_c, 0, 64, 66
1, 79841, Note_off_c, 0, 70, 62
1, 79845, Control_c, 0, 64, 71
1, 79860, Control_c, 0, 64, 75
1, 79868, Note_on_c, 0, 71, 54
1, 79874, Control_c, 0, 64, 80
1, 79889, Control_c, 0, 64, 85
1, 79904, Control_c, 0, 64, 87
1, 79907, Note_off_c, 0, 71, 62
1, 79918, Control_c, 0, 64, 89
1, 79933, Control_c, 0, 64, 90
1, 79948, Control_c, 0, 64, 92
1, 79954, Note_on_c, 0, 70, 55
1, 79963, Control_c, 0, 64, 93
1, 79978, Control_c, 0, 64, 95
1, 79979, Note_off_c, 0, 70, 60
1, 79992, Control_c, 0, 64, 96
1, 80007, Control_c, 0, 64, 97
1, 80022, Control_c, 0, 64, 98
1, 80025, Note_on_c, 0, 71, 53
1, 80037, Control_c, 0, 64, 99
1, 80048, Note_off_c, 0, 71, 59
1, 80052, Control_c, 0, 64, 100
1, 80066, Control_c, 0, 64, 101
1, 80074, Note_on_c, 0, 70, 60
1, 80081, Control_c, 0, 64, 102
1, 80096, Control_c, 0, 64, 102
1, 80110, Control_c, 0, 64, 103
1, 80113, Note_off_c, 0, 70, 61
1, 80125, Control_c, 0, 64, 103
1, 80135, Note_on_c, 0, 71, 60
1, 80140, Control_c, 0, 64, 104
1, 80155, Control_c, 0, 64, 105
1, 80169, Note_off_c, 0, 71, 64
1, 80170, Control_c, 0, 64, 106
1, 80184, Control_c, 0, 64, 106
1, 80199, Control_c, 0, 64, 107
1, 80212, Note_on_c, 0, 70, 57
1, 80214, Control_c, 0, 64, 108
1, 80229, Control_c, 0, 64, 109
1, 80233, Note_off_c, 0, 70, 63
1, 80245, Control_c, 0, 64, 109
1, 80260, Control_c, 0, 64, 110
1, 80263, Note_on_c, 0, 71, 58
1, 80275, Control_c, 0, 64, 111
1, 80286, Note_off_c, 0, 71, 62
1, 80289, Control_c, 0, 64, 112
1, 80304, Control_c, 0, 64, 113
1, 80325, Note_on_c, 0, 70, 61
1, 80327, Control_c, 0, 64, 114
1, 80341, Control_c, 0, 64, 114
1, 80352, Note_off_c, 0, 70, 63
1, 80356, Control_c, 0, 64, 115
1, 80371, Control_c, 0, 64, 116
1, 80374, Note_on_c, 0, 71, 64
1, 80386, Control_c, 0, 64, 117
1, 80401, Control_c, 0, 64, 117
1, 80407, Note_off_c, 0, 71, 59
1, 80415, Control_c, 0, 64, 118
1, 80430, Control_c, 0, 64, 118
1, 80433, Note_on_c, 0, 70, 64
1, 80444, Note_off_c, 0, 55, 61
1, 80450, Note_off_c, 0, 61, 54
1, 80460, Control_c, 0, 64, 119
1, 80463, Note_off_c, 0, 51, 60
1, 80468, Note_off_c, 0, 70, 63
1, 80498, Note_on_c, 0, 71, 57
1, 80521, Note_off_c, 0, 71, 61
1, 80558, Note_on_c, 0, 70, 50
1, 80579, Note_off_c, 0, 70, 58
1, 80602, Note_on_c, 0, 71, 60
1, 80633, Note_off_c, 0, 71, 63
1, 80652, Note_on_c, 0, 70, 64
1, 80671, Note_off_c, 0, 70, 65
1, 80682, Control_c, 0, 64, 119
1, 80720, Note_on_c, 0, 71, 43
1, 80742, Note_off_c, 0, 71, 56
1, 80749, Note_on_c, 0, 70, 63
1, 80756, Control_c, 0, 64, 120
1, 80783, Note_off_c, 0, 70, 64
1, 80786, Control_c, 0, 64, 120
1, 80801, Control_c, 0, 64, 121
1, 80811, Note_on_c, 0, 71, 55
1, 80845, Control_c, 0, 64, 121
1, 80851, Note_off_c, 0, 71, 58
1, 80861, Note_on_c, 0, 70, 62
1, 80875, Control_c, 0, 64, 122
1, 80885, Note_off_c, 0, 70, 59
1, 80889, Control_c, 0, 64, 122
1, 80904, Control_c, 0, 64, 123
1, 80921, Note_on_c, 0, 71, 51
1, 80933, Control_c, 0, 64, 124
1, 80948, Control_c, 0, 64, 125
1, 80963, Control_c, 0, 64, 126
1, 80971, Note_off_c, 0, 71, 0
1, 80978, Control_c, 0, 64, 127
1, 81007, Poly_aftertouch_c, 0, 71, 127
1, 81034, Note_on_c, 0, 70, 46
1, 81037, Poly_aftertouch_c, 0, 71, 0
1, 81082, Note_off_c, 0, 70, 63
1, 81106, Control_c, 0, 64, 106
1, 81120, Control_c, 0, 64, 89
1, 81135, Control_c, 0, 64, 69
1, 81147, Note_on_c, 0, 76, 47
1, 81150, Control_c, 0, 64, 0
1, 81192, Note_on_c, 0, 75, 69
1, 81209, Control_c, 0, 64, 50
1, 81213, Note_off_c, 0, 76, 66
1, 81224, Control_c, 0, 64, 69
1, 81236, Note_off_c, 0, 75, 61
1, 81238, Control_c, 0, 64, 79
1, 81252, Poly_aftertouch_c, 0, 76, 0
1, 81253, Control_c, 0, 64, 86
1, 81258, Note_on_c, 0, 76, 49
1, 81268, Control_c, 0, 64, 90
1, 81283, Control_c, 0, 64, 93
1, 81298, Control_c, 0, 64, 94
1, 81303, Note_off_c, 0, 76, 62
1, 81312, Control_c, 0, 64, 97
1, 81327, Control_c, 0, 64, 100
1, 81332, Note_on_c, 0, 75, 60
1, 81342, Control_c, 0, 64, 102
1, 81356, Note_off_c, 0, 75, 64
1, 81357, Control_c, 0, 64, 104
1, 81371, Control_c, 0, 64, 104
1, 81386, Note_on_c, 0, 76, 60
1, 81387, Control_c, 0, 64, 105
1, 81416, Note_off_c, 0, 76, 60
1, 81435, Note_on_c, 0, 75, 70
1, 81466, Note_off_c, 0, 75, 64
1, 81493, Note_on_c, 0, 76, 70
1, 81524, Note_off_c, 0, 76, 63
1, 81553, Note_on_c, 0, 75, 52
1, 81575, Note_off_c, 0, 75, 59
1, 81592, Note_on_c, 0, 76, 62
1, 81624, Note_off_c, 0, 76, 65
1, 81657, Note_on_c, 0, 75, 56
1, 81678, Note_off_c, 0, 75, 62
1, 81698, Note_on_c, 0, 76, 61
1, 81738, Note_off_c, 0, 76, 55
1, 81756, Note_on_c, 0, 75, 59
1, 81757, Control_c, 0, 64, 105
1, 81776, Note_off_c, 0, 75, 64
1, 81803, Note_on_c, 0, 76, 49
1, 81840, Control_c, 0, 64, 106
1, 81842, Note_off_c, 0, 76, 61
1, 81868, Note_on_c, 0, 75, 58
1, 81887, Note_off_c, 0, 75, 65
1, 81911, Note_on_c, 0, 76, 63
1, 81944, Note_off_c, 0, 76, 55
1, 81958, Control_c, 0, 64, 106
1, 81963, Note_on_c, 0, 75, 68
1, 81990, Note_off_c, 0, 75, 67
1, 82012, Note_on_c, 0, 76, 62
1, 82048, Control_c, 0, 64, 107
1, 82061, Note_off_c, 0, 76, 63
1, 82073, Note_on_c, 0, 75, 59
1, 82093, Note_off_c, 0, 75, 63
1, 82107, Control_c, 0, 64, 107
1, 82108, Note_on_c, 0, 76, 50
1, 82164, Note_off_c, 0, 76, 65
1, 82171, Note_on_c, 0, 75, 64
1, 82197, Note_off_c, 0, 75, 63
1, 82206, Poly_aftertouch_c, 0, 76, 0
1, 82214, Note_on_c, 0, 76, 54
1, 82225, Control_c, 0, 64, 108
1, 82268, Note_off_c, 0, 76, 64
1, 82280, Note_on_c, 0, 75, 63
1, 82298, Note_off_c, 0, 75, 67
1, 82310, Note_on_c, 0, 76, 47
1, 82369, Note_off_c, 0, 76, 65
1, 82370, Note_on_c, 0, 75, 70
1, 82387, Control_c, 0, 64, 108
1, 82398, Note_off_c, 0, 75, 65
1, 82417, Note_on_c, 0, 76, 49
1, 82462, Note_off_c, 0, 76, 65
1, 82495, Note_on_c, 0, 74, 52
1, 82506, Control_c, 0, 64, 105
1, 82521, Control_c, 0, 64, 100
1, 82536, Control_c, 0, 64, 92
1, 82551, Control_c, 0, 64, 83
1, 82573, Note_on_c, 0, 75, 42
1, 82573, Control_c, 0, 64, 72
1, 82575, Note_off_c, 0, 74, 65
1, 82587, Control_c, 0, 64, 64
1, 82602, Control_c, 0, 64, 56
1, 82617, Control_c, 0, 64, 55
1, 82629, Note_off_c, 0, 75, 64
1, 82632, Control_c, 0, 64, 54
1, 82633, Note_on_c, 0, 88, 70
1, 82648, Control_c, 0, 64, 51
1, 82663, Control_c, 0, 64, 45
1, 82678, Control_c, 0, 64, 43
1, 82692, Control_c, 0, 64, 46
1, 82707, Control_c, 0, 64, 52
1, 82719, Note_off_c, 0, 88, 62
1, 82722, Control_c, 0, 64, 53
1, 82736, Control_c, 0, 64, 54
1, 82742, Note_on_c, 0, 87, 70
1, 82751, Control_c, 0, 64, 55
1, 82766, Control_c, 0, 64, 62
1, 82780, Note_off_c, 0, 87, 59
1, 82781, Control_c, 0, 64, 67
1, 82796, Control_c, 0, 64, 74
1, 82811, Control_c, 0, 64, 80
1, 82811, Note_on_c, 0, 88, 68
1, 82826, Control_c, 0, 64, 84
1, 82840, Note_off_c, 0, 88, 62
1, 82840, Control_c, 0, 64, 84
1, 82855, Control_c, 0, 64, 86
1, 82870, Control_c, 0, 64, 88
1, 82879, Note_on_c, 0, 87, 65
1, 82884, Control_c, 0, 64, 90
1, 82896, Note_off_c, 0, 87, 65
1, 82899, Control_c, 0, 64, 92
1, 82914, Control_c, 0, 64, 93
1, 82930, Note_on_c, 0, 88, 64
1, 82943, Control_c, 0, 64, 93
1, 82951, Note_off_c, 0, 88, 64
1, 82976, Note_on_c, 0, 87, 69
1, 83007, Note_off_c, 0, 87, 60
1, 83025, Note_on_c, 0, 88, 69
1, 83069, Note_off_c, 0, 88, 60
1, 83088, Note_on_c, 0, 87, 59
1, 83106, Note_off_c, 0, 87, 63
1, 83126, Note_on_c, 0, 88, 54
1, 83160, Note_off_c, 0, 88, 63
1, 83173, Note_on_c, 0, 87, 73
1, 83210, Note_off_c, 0, 87, 59
1, 83228, Note_on_c, 0, 88, 64
1, 83267, Note_off_c, 0, 88, 58
1, 83294, Note_on_c, 0, 87, 60
1, 83320, Note_off_c, 0, 87, 63
1, 83335, Note_on_c, 0, 88, 59
1, 83377, Note_off_c, 0, 88, 59
1, 83393, Note_on_c, 0, 87, 70
1, 83428, Note_off_c, 0, 87, 56
1, 83448, Note_on_c, 0, 88, 58
1, 83494, Note_off_c, 0, 88, 56
1, 83511, Note_on_c, 0, 87, 55
1, 83530, Note_off_c, 0, 87, 60
1, 83546, Note_on_c, 0, 88, 47
1, 83598, Note_on_c, 0, 87, 74
1, 83600, Note_off_c, 0, 88, 60
1, 83642, Note_off_c, 0, 87, 60
1, 83660, Note_on_c, 0, 88, 52
1, 83723, Note_on_c, 0, 87, 64
1, 83730, Note_off_c, 0, 88, 63
1, 83762, Note_off_c, 0, 87, 61
1, 83766, Control_c, 0, 64, 93
1, 83796, Control_c, 0, 64, 92
1, 83802, Note_on_c, 0, 86, 56
1, 83811, Control_c, 0, 64, 91
1, 83825, Control_c, 0, 64, 91
1, 83840, Control_c, 0, 64, 90
1, 83855, Control_c, 0, 64, 90
1, 83870, Control_c, 0, 64, 89
1, 83884, Control_c, 0, 64, 88
1, 83899, Control_c, 0, 64, 86
1, 83908, Note_on_c, 0, 87, 59
1, 83911, Note_off_c, 0, 86, 60
1, 83914, Control_c, 0, 64, 86
1, 83929, Control_c, 0, 64, 85
1, 83944, Control_c, 0, 64, 84
1, 83958, Control_c, 0, 64, 83
1, 83973, Control_c, 0, 64, 82
1, 83988, Control_c, 0, 64, 81
1, 84003, Control_c, 0, 64, 79
1, 84018, Control_c, 0, 64, 78
1, 84033, Control_c, 0, 64, 77
1, 84048, Control_c, 0, 64, 76
1, 84070, Control_c, 0, 64, 74
1, 84084, Control_c, 0, 64, 73
1, 84094, Note_off_c, 0, 87, 57
1, 84098, Note_on_c, 0, 88, 56
1, 84099, Control_c, 0, 64, 72
1, 84129, Control_c, 0, 64, 71
1, 84144, Control_c, 0, 64, 71
1, 84158, Control_c, 0, 64, 69
1, 84173, Control_c, 0, 64, 68
1, 84188, Control_c, 0, 64, 66
1, 84242, Note_on_c, 0, 87, 56
1, 84259, Note_off_c, 0, 88, 54
1, 84278, Control_c, 0, 64, 67
1, 84293, Control_c, 0, 64, 68
1, 84308, Control_c, 0, 64, 69
1, 84323, Control_c, 0, 64, 69
1, 84337, Control_c, 0, 64, 70
1, 84352, Control_c, 0, 64, 72
1, 84367, Control_c, 0, 64, 73
1, 84379, Note_off_c, 0, 87, 59
1, 84380, Note_on_c, 0, 85, 55
1, 84382, Control_c, 0, 64, 75
1, 84397, Control_c, 0, 64, 76
1, 84427, Control_c, 0, 64, 76
1, 84477, Note_off_c, 0, 85, 65
1, 84513, Note_on_c, 0, 83, 45
1, 84635, Note_off_c, 0, 83, 56
1, 84644, Note_on_c, 0, 82, 49
1, 84755, Note_on_c, 0, 80, 53
1, 84756, Note_off_c, 0, 82, 57
1, 84812, Note_off_c, 0, 80, 0
1, 84812, Note_on_c, 0, 80, 7
1, 84864, Note_off_c, 0, 80, 61
1, 84879, Control_c, 0, 64, 76
1, 84890, Note_on_c, 0, 79, 50
1, 85002, Note_off_c, 0, 79, 54
1, 85008, Note_on_c, 0, 78, 56
1, 85106, Note_off_c, 0, 78, 62
1, 85131, Note_on_c, 0, 76, 47
1, 85243, Note_off_c, 0, 76, 62
1, 85261, Note_on_c, 0, 75, 46
1, 85359, Note_off_c, 0, 75, 56
1, 85371, Note_on_c, 0, 73, 47
1, 85464, Note_off_c, 0, 73, 63
1, 85502, Note_on_c, 0, 71, 37
1, 85607, Note_off_c, 0, 71, 57
1, 85625, Note_on_c, 0, 70, 50
1, 85742, Note_on_c, 0, 68, 42
1, 85757, Note_off_c, 0, 70, 38
1, 85776, Control_c, 0, 64, 76
1, 85836, Note_off_c, 0, 68, 62
1, 85862, Note_on_c, 0, 67, 46
1, 85894, Control_c, 0, 64, 77
1, 85953, Note_off_c, 0, 67, 58
1, 85986, Note_on_c, 0, 66, 40
1, 86079, Note_off_c, 0, 66, 65
1, 86120, Note_on_c, 0, 64, 34
1, 86131, Control_c, 0, 64, 76
1, 86220, Control_c, 0, 64, 76
1, 86234, Note_on_c, 0, 63, 47
1, 86235, Note_off_c, 0, 64, 50
1, 86264, Control_c, 0, 64, 75
1, 86357, Note_on_c, 0, 61, 45
1, 86374, Note_off_c, 0, 63, 39
1, 86450, Note_off_c, 0, 61, 63
1, 86491, Note_on_c, 0, 59, 41
1, 86538, Control_c, 0, 64, 75
1, 86582, Control_c, 0, 64, 74
1, 86608, Note_off_c, 0, 59, 48
1, 86612, Control_c, 0, 64, 74
1, 86617, Note_on_c, 0, 58, 49
1, 86657, Control_c, 0, 64, 73
1, 86672, Control_c, 0, 64, 73
1, 86687, Control_c, 0, 64, 72
1, 86702, Control_c, 0, 64, 72
1, 86731, Control_c, 0, 64, 71
1, 86743, Note_on_c, 0, 56, 49
1, 86746, Note_off_c, 0, 58, 55
1, 86746, Control_c, 0, 64, 71
1, 86775, Control_c, 0, 64, 70
1, 86805, Control_c, 0, 64, 70
1, 86849, Note_off_c, 0, 56, 62
1, 86850, Control_c, 0, 64, 69
1, 86865, Control_c, 0, 64, 69
1, 86873, Note_on_c, 0, 55, 51
1, 86880, Control_c, 0, 64, 68
1, 86909, Control_c, 0, 64, 68
1, 86973, Note_off_c, 0, 55, 62
1, 87002, Note_on_c, 0, 54, 45
1, 87028, Control_c, 0, 64, 68
1, 87109, Note_off_c, 0, 54, 62
1, 87136, Note_on_c, 0, 52, 48
1, 87246, Note_off_c, 0, 52, 61
1, 87256, Note_on_c, 0, 51, 44
1, 87316, Control_c, 0, 64, 69
1, 87374, Note_on_c, 0, 49, 51
1, 87382, Note_off_c, 0, 51, 54
1, 87469, Note_off_c, 0, 49, 62
1, 87497, Note_on_c, 0, 47, 50
1, 87540, Control_c, 0, 64, 68
1, 87610, Note_off_c, 0, 47, 56
1, 87617, Note_on_c, 0, 46, 51
1, 87659, Control_c, 0, 64, 68
1, 87703, Control_c, 0, 64, 67
1, 87732, Control_c, 0, 64, 67
1, 87740, Note_on_c, 0, 44, 50
1, 87753, Note_off_c, 0, 46, 50
1, 87777, Control_c, 0, 64, 66
1, 87843, Note_off_c, 0, 44, 64
1, 87859, Control_c, 0, 64, 66
1, 87874, Note_on_c, 0, 43, 45
1, 87888, Control_c, 0, 64, 65
1, 87969, Note_off_c, 0, 43, 58
1, 87985, Note_on_c, 0, 42, 52
1, 88091, Note_off_c, 0, 42, 63
1, 88120, Note_on_c, 0, 40, 47
1, 88233, Note_off_c, 0, 40, 56
1, 88239, Note_on_c, 0, 39, 50
1, 88319, Control_c, 0, 64, 65
1, 88363, Control_c, 0, 64, 64
1, 88367, Note_on_c, 0, 37, 56
1, 88412, Note_off_c, 0, 39, 37
1, 88437, Control_c, 0, 64, 64
1, 88452, Control_c, 0, 64, 63
1, 88471, Note_off_c, 0, 37, 65
1, 88495, Note_on_c, 0, 35, 57
1, 88526, Control_c, 0, 64, 63
1, 88563, Control_c, 0, 64, 63
1, 88608, Control_c, 0, 64, 63
1, 88614, Note_off_c, 0, 35, 62
1, 88629, Note_on_c, 0, 34, 59
1, 88696, Control_c, 0, 64, 62
1, 88730, Note_off_c, 0, 34, 65
1, 88741, Control_c, 0, 64, 63
1, 88744, Note_on_c, 0, 35, 63
1, 88755, Control_c, 0, 64, 63
1, 88800, Control_c, 0, 64, 63
1, 88861, Note_on_c, 0, 37, 52
1, 88878, Note_off_c, 0, 35, 51
1, 88989, Note_on_c, 0, 39, 54
1, 88993, Note_off_c, 0, 37, 61
1, 89106, Note_off_c, 0, 39, 62
1, 89116, Note_on_c, 0, 40, 56
1, 89186, Control_c, 0, 64, 62
1, 89255, Note_on_c, 0, 39, 55
1, 89276, Note_off_c, 0, 40, 49
1, 89327, Control_c, 0, 64, 63
1, 89410, Note_on_c, 0, 37, 57
1, 89431, Control_c, 0, 64, 63
1, 89445, Note_off_c, 0, 39, 49
1, 89512, Note_off_c, 0, 37, 65
1, 89532, Note_on_c, 0, 35, 56
1, 89549, Control_c, 0, 64, 64
1, 89622, Control_c, 0, 64, 64
1, 89649, Note_off_c, 0, 35, 62
1, 89657, Note_on_c, 0, 34, 57
1, 89711, Control_c, 0, 64, 65
1, 89741, Control_c, 0, 64, 65
1, 89756, Control_c, 0, 64, 66
1, 89770, Note_off_c, 0, 34, 65
1, 89770, Control_c, 0, 64, 66
1, 89776, Note_on_c, 0, 39, 55
1, 89800, Control_c, 0, 64, 64
1, 89815, Control_c, 0, 64, 36
1, 89831, Control_c, 0, 64, 0
1, 89912, Note_off_c, 0, 39, 63
1, 89923, Note_on_c, 0, 37, 60
1, 90035, Note_off_c, 0, 37, 61
1, 90059, Note_on_c, 0, 39, 67
1, 90119, Note_off_c, 0, 39, 61
1, 90159, Note_on_c, 0, 32, 92
1, 90165, Note_on_c, 0, 56, 94
1, 90194, Control_c, 0, 64, 118
1, 90208, Control_c, 0, 64, 127
1, 90227, Note_on_c, 0, 51, 83
1, 90231, Note_off_c, 0, 56, 67
1, 90240, Note_on_c, 0, 39, 80
1, 90243, Note_off_c, 0, 32, 59
1, 90279, Note_off_c, 0, 51, 63
1, 90281, Note_off_c, 0, 39, 63
1, 90298, Note_on_c, 0, 47, 70
1, 90302, Note_on_c, 0, 44, 76
1, 90360, Note_off_c, 0, 47, 65
1, 90361, Note_on_c, 0, 51, 76
1, 90361, Note_off_c, 0, 44, 64
1, 90371, Note_on_c, 0, 39, 62
1, 90411, Note_off_c, 0, 39, 59
1, 90415, Note_on_c, 0, 56, 80
1, 90416, Note_off_c, 0, 51, 62
1, 90417, Note_on_c, 0, 32, 73
1, 90445, Control_c, 0, 64, 104
1, 90451, Note_off_c, 0, 56, 63
1, 90460, Control_c, 0, 64, 88
1, 90462, Note_off_c, 0, 32, 63
1, 90475, Control_c, 0, 64, 70
1, 90475, Note_on_c, 0, 51, 81
1, 90489, Control_c, 0, 64, 0
1, 90490, Note_on_c, 0, 39, 70
1, 90521, Note_off_c, 0, 51, 62
1, 90530, Note_off_c, 0, 39, 65
1, 90540, Note_on_c, 0, 59, 82
1, 90552, Note_on_c, 0, 32, 78
1, 90582, Note_off_c, 0, 59, 61
1, 90584, Note_off_c, 0, 32, 66
1, 90606, Note_on_c, 0, 51, 82
1, 90614, Note_on_c, 0, 39, 68
1, 90657, Note_off_c, 0, 51, 59
1, 90659, Note_off_c, 0, 39, 63
1, 90659, Note_on_c, 0, 58, 83
1, 90672, Note_on_c, 0, 32, 67
1, 90701, Note_off_c, 0, 58, 63
1, 90708, Note_off_c, 0, 32, 65
1, 90727, Note_on_c, 0, 51, 74
1, 90740, Note_on_c, 0, 39, 73
1, 90773, Note_off_c, 0, 51, 61
1, 90780, Note_on_c, 0, 56, 85
1, 90781, Note_off_c, 0, 39, 63
1, 90820, Note_off_c, 0, 56, 61
1, 90839, Note_on_c, 0, 32, 21
1, 90844, Note_on_c, 0, 51, 73
1, 90856, Note_on_c, 0, 39, 64
1, 90886, Note_off_c, 0, 32, 28
1, 90886, Note_off_c, 0, 51, 64
1, 90889, Note_off_c, 0, 39, 62
1, 90907, Note_on_c, 0, 32, 77
1, 90909, Note_on_c, 0, 56, 99
1, 90913, Control_c, 0, 64, 50
1, 90928, Control_c, 0, 64, 97
1, 90943, Control_c, 0, 64, 127
1, 90976, Note_on_c, 0, 51, 81
1, 90982, Note_off_c, 0, 56, 64
1, 90998, Note_on_c, 0, 39, 68
1, 90998, Note_off_c, 0, 32, 60
1, 91026, Note_off_c, 0, 51, 62
1, 91036, Note_on_c, 0, 47, 78
1, 91038, Note_off_c, 0, 39, 61
1, 91059, Note_on_c, 0, 44, 72
1, 91095, Note_off_c, 0, 47, 65
1, 91104, Note_off_c, 0, 44, 63
1, 91106, Note_on_c, 0, 51, 74
1, 91116, Note_on_c, 0, 39, 73
1, 91156, Note_off_c, 0, 51, 63
1, 91162, Note_off_c, 0, 39, 63
1, 91163, Note_on_c, 0, 56, 78
1, 91172, Note_on_c, 0, 32, 75
1, 91204, Note_off_c, 0, 56, 64
1, 91211, Note_off_c, 0, 32, 64
1, 91223, Note_on_c, 0, 51, 83
1, 91237, Note_on_c, 0, 39, 72
1, 91239, Control_c, 0, 64, 115
1, 91254, Control_c, 0, 64, 95
1, 91268, Control_c, 0, 64, 72
1, 91272, Note_off_c, 0, 51, 60
1, 91273, Note_off_c, 0, 39, 66
1, 91283, Control_c, 0, 64, 0
1, 91291, Note_on_c, 0, 59, 89
1, 91306, Note_on_c, 0, 32, 77
1, 91329, Note_off_c, 0, 32, 66
1, 91344, Note_off_c, 0, 59, 58
1, 91354, Note_on_c, 0, 51, 83
1, 91355, Note_on_c, 0, 39, 74
1, 91391, Note_off_c, 0, 39, 65
1, 91405, Note_on_c, 0, 32, 57
1, 91414, Note_on_c, 0, 58, 85
1, 91417, Note_off_c, 0, 51, 61
1, 91454, Note_off_c, 0, 32, 60
1, 91456, Note_off_c, 0, 58, 61
1, 91464, Note_on_c, 0, 39, 69
1, 91476, Note_on_c, 0, 51, 75
1, 91502, Note_off_c, 0, 39, 66
1, 91512, Note_on_c, 0, 32, 62
1, 91529, Note_off_c, 0, 51, 60
1, 91530, Note_on_c, 0, 56, 87
1, 91556, Note_off_c, 0, 32, 62
1, 91577, Note_on_c, 0, 39, 68
1, 91579, Note_off_c, 0, 56, 63
1, 91598, Note_on_c, 0, 51, 64
1, 91619, Note_off_c, 0, 39, 64
1, 91632, Note_off_c, 0, 51, 66
1, 91641, Note_on_c, 0, 32, 81
1, 91662, Control_c, 0, 64, 46
1, 91663, Note_on_c, 0, 64, 96
1, 91677, Control_c, 0, 64, 97
1, 91692, Control_c, 0, 64, 127
1, 91710, Note_on_c, 0, 40, 83
1, 91712, Note_on_c, 0, 59, 73
1, 91718, Note_off_c, 0, 32, 62
1, 91739, Note_off_c, 0, 64, 62
1, 91765, Note_off_c, 0, 40, 64
1, 91769, Note_off_c, 0, 59, 63
1, 91774, Note_on_c, 0, 44, 82
1, 91775, Note_on_c, 0, 56, 81
1, 91831, Note_off_c, 0, 56, 63
1, 91833, Note_off_c, 0, 44, 62
1, 91842, Note_on_c, 0, 40, 76
1, 91849, Note_on_c, 0, 59, 78
1, 91890, Note_off_c, 0, 40, 62
1, 91892, Note_on_c, 0, 32, 78
1, 91899, Note_on_c, 0, 64, 82
1, 91902, Note_off_c, 0, 59, 64
1, 91942, Note_off_c, 0, 64, 62
1, 91945, Note_off_c, 0, 32, 62
1, 91954, Note_on_c, 0, 59, 80
1, 91959, Control_c, 0, 64, 112
1, 91965, Note_on_c, 0, 40, 62
1, 91973, Control_c, 0, 64, 89
1, 91988, Control_c, 0, 64, 67
1, 92001, Note_off_c, 0, 59, 63
1, 92003, Control_c, 0, 64, 0
1, 92011, Note_off_c, 0, 40, 65
1, 92018, Note_on_c, 0, 68, 95
1, 92027, Note_on_c, 0, 32, 74
1, 92057, Poly_aftertouch_c, 0, 41, 127
1, 92062, Note_off_c, 0, 32, 63
1, 92063, Note_off_c, 0, 68, 61
1, 92074, Poly_aftertouch_c, 0, 41, 0
1, 92076, Note_on_c, 0, 59, 86
1, 92092, Note_on_c, 0, 40, 73
1, 92129, Note_off_c, 0, 59, 62
1, 92133, Note_off_c, 0, 40, 63
1, 92135, Note_on_c, 0, 66, 98
1, 92141, Note_on_c, 0, 32, 77
1, 92182, Note_off_c, 0, 32, 63
1, 92183, Note_off_c, 0, 66, 65
1, 92200, Note_on_c, 0, 59, 79
1, 92208, Note_on_c, 0, 40, 73
1, 92247, Note_off_c, 0, 40, 66
1, 92260, Note_on_c, 0, 32, 73
1, 92260, Note_off_c, 0, 59, 60
1, 92263, Note_on_c, 0, 64, 90
1, 92305, Note_off_c, 0, 32, 64
1, 92316, Note_off_c, 0, 64, 67
1, 92317, Note_on_c, 0, 59, 74
1, 92328, Note_on_c, 0, 40, 73
1, 92355, Note_off_c, 0, 59, 65
1, 92364, Note_off_c, 0, 40, 67
1, 92382, Note_on_c, 0, 32, 79
1, 92392, Note_on_c, 0, 64, 104
1, 92411, Control_c, 0, 64, 77
1, 92426, Control_c, 0, 64, 127
1, 92445, Note_on_c, 0, 40, 78
1, 92456, Note_on_c, 0, 59, 70
1, 92464, Note_off_c, 0, 32, 61
1, 92474, Note_off_c, 0, 64, 63
1, 92503, Note_on_c, 0, 44, 84
1, 92504, Note_off_c, 0, 40, 64
1, 92508, Note_off_c, 0, 59, 63
1, 92527, Note_on_c, 0, 56, 77
1, 92566, Note_on_c, 0, 40, 71
1, 92566, Note_off_c, 0, 44, 64
1, 92570, Note_off_c, 0, 56, 62
1, 92588, Note_on_c, 0, 59, 76
1, 92624, Note_on_c, 0, 32, 81
1, 92630, Note_off_c, 0, 40, 63
1, 92643, Note_on_c, 0, 64, 87
1, 92648, Control_c, 0, 64, 116
1, 92649, Note_off_c, 0, 59, 64
1, 92663, Control_c, 0, 64, 104
1, 92677, Control_c, 0, 64, 92
1, 92679, Note_off_c, 0, 32, 63
1, 92686, Note_off_c, 0, 64, 64
1, 92692, Control_c, 0, 64, 79
1, 92707, Note_on_c, 0, 40, 71
1, 92707, Control_c, 0, 64, 64
1, 92710, Note_on_c, 0, 59, 83
1, 92722, Control_c, 0, 64, 0
1, 92751, Note_off_c, 0, 59, 62
1, 92761, Note_on_c, 0, 68, 95
1, 92761, Note_off_c, 0, 40, 59
1, 92765, Note_on_c, 0, 32, 84
1, 92804, Note_off_c, 0, 32, 61
1, 92813, Note_off_c, 0, 68, 62
1, 92830, Note_on_c, 0, 40, 74
1, 92830, Note_on_c, 0, 59, 91
1, 92888, Note_on_c, 0, 32, 75
1, 92892, Note_off_c, 0, 40, 63
1, 92895, Note_off_c, 0, 59, 60
1, 92898, Note_on_c, 0, 66, 92
1, 92928, Note_off_c, 0, 32, 63
1, 92946, Note_off_c, 0, 66, 64
1, 92955, Note_on_c, 0, 59, 81
1, 92958, Note_on_c, 0, 40, 67
1, 93002, Note_off_c, 0, 40, 64
1, 93012, Note_on_c, 0, 32, 75
1, 93016, Note_off_c, 0, 59, 65
1, 93020, Note_on_c, 0, 64, 92
1, 93041, Control_c, 0, 64, 19
1, 93056, Control_c, 0, 64, 75
1, 93071, Control_c, 0, 64, 84
1, 93086, Control_c, 0, 64, 90
1, 93086, Note_off_c, 0, 32, 61
1, 93095, Note_on_c, 0, 40, 67
1, 93097, Note_off_c, 0, 64, 63
1, 93101, Control_c, 0, 64, 91
1, 93101, Note_on_c, 0, 59, 86
1, 93116, Control_c, 0, 64, 92
1, 93125, Note_off_c, 0, 40, 65
1, 93131, Control_c, 0, 64, 94
1, 93145, Control_c, 0, 64, 96
1, 93145, Note_off_c, 0, 59, 64
1, 93160, Control_c, 0, 64, 97
1, 93175, Control_c, 0, 64, 95
1, 93190, Control_c, 0, 64, 83
1, 93205, Control_c, 0, 64, 63
1, 93219, Control_c, 0, 64, 0
1, 93222, Note_on_c, 0, 73, 96
1, 93227, Note_on_c, 0, 45, 102
1, 93231, Note_on_c, 0, 33, 106
1, 93381, Note_on_c, 0, 76, 91
1, 93381, Note_off_c, 0, 73, 64
1, 93396, Control_c, 0, 64, 83
1, 93411, Control_c, 0, 64, 103
1, 93426, Control_c, 0, 64, 104
1, 93438, Note_off_c, 0, 76, 61
1, 93441, Control_c, 0, 64, 103
1, 93463, Note_on_c, 0, 73, 87
1, 93485, Control_c, 0, 64, 104
1, 93500, Control_c, 0, 64, 106
1, 93515, Control_c, 0, 64, 109
1, 93518, Note_off_c, 0, 73, 65
1, 93521, Note_on_c, 0, 76, 90
1, 93530, Control_c, 0, 64, 111
1, 93544, Control_c, 0, 64, 113
1, 93559, Control_c, 0, 64, 114
1, 93565, Note_off_c, 0, 76, 64
1, 93574, Control_c, 0, 64, 118
1, 93584, Note_on_c, 0, 73, 81
1, 93589, Control_c, 0, 64, 122
1, 93604, Control_c, 0, 64, 127
1, 93632, Note_off_c, 0, 73, 66
1, 93635, Note_on_c, 0, 76, 86
1, 93682, Note_off_c, 0, 76, 59
1, 93699, Note_on_c, 0, 73, 85
1, 93748, Note_off_c, 0, 73, 66
1, 93751, Note_on_c, 0, 76, 85
1, 93800, Note_off_c, 0, 76, 64
1, 93822, Note_on_c, 0, 73, 84
1, 93877, Note_on_c, 0, 76, 84
1, 93879, Note_off_c, 0, 73, 65
1, 93914, Note_off_c, 0, 76, 64
1, 93932, Note_on_c, 0, 73, 79
1, 93986, Note_off_c, 0, 73, 66
1, 93986, Note_on_c, 0, 76, 86
1, 94031, Note_off_c, 0, 76, 60
1, 94051, Note_on_c, 0, 73, 85
1, 94081, Note_off_c, 0, 45, 59
1, 94092, Note_off_c, 0, 33, 60
1, 94104, Note_off_c, 0, 73, 65
1, 94109, Note_on_c, 0, 76, 84
1, 94161, Note_off_c, 0, 76, 65
1, 94168, Note_on_c, 0, 73, 80
1, 94223, Note_off_c, 0, 73, 66
1, 94228, Note_on_c, 0, 76, 81
1, 94280, Note_off_c, 0, 76, 64
1, 94287, Note_on_c, 0, 73, 79
1, 94337, Note_off_c, 0, 73, 65
1, 94343, Note_on_c, 0, 76, 72
1, 94353, Control_c, 0, 64, 109
1, 94368, Control_c, 0, 64, 87
1, 94380, Note_off_c, 0, 76, 48
1, 94382, Control_c, 0, 64, 65
1, 94394, Note_on_c, 0, 46, 98
1, 94397, Control_c, 0, 64, 0
1, 94398, Note_on_c, 0, 34, 92
1, 94402, Note_on_c, 0, 73, 91
1, 94439, Note_off_c, 0, 46, 64
1, 94453, Note_off_c, 0, 34, 63
1, 94453, Note_off_c, 0, 73, 66
1, 94457, Control_c, 0, 64, 62
1, 94457, Note_on_c, 0, 76, 80
1, 94472, Control_c, 0, 64, 71
1, 94486, Control_c, 0, 64, 78
1, 94501, Control_c, 0, 64, 79
1, 94511, Note_on_c, 0, 37, 89
1, 94516, Control_c, 0, 64, 78
1, 94520, Note_on_c, 0, 70, 87
1, 94526, Note_off_c, 0, 76, 67
1, 94531, Control_c, 0, 64, 75
1, 94553, Control_c, 0, 64, 71
1, 94567, Control_c, 0, 64, 65
1, 94575, Note_off_c, 0, 70, 64
1, 94576, Note_off_c, 0, 37, 65
1, 94578, Note_on_c, 0, 73, 78
1, 94582, Control_c, 0, 64, 54
1, 94597, Control_c, 0, 64, 22
1, 94612, Control_c, 0, 64, 0
1, 94620, Note_off_c, 0, 73, 61
1, 94627, Note_on_c, 0, 40, 91
1, 94645, Note_on_c, 0, 67, 80
1, 94680, Note_off_c, 0, 40, 63
1, 94696, Note_off_c, 0, 67, 57
1, 94703, Note_on_c, 0, 70, 80
1, 94740, Note_on_c, 0, 43, 87
1, 94740, Note_off_c, 0, 70, 64
1, 94762, Note_on_c, 0, 64, 79
1, 94791, Note_off_c, 0, 43, 62
1, 94810, Note_on_c, 0, 67, 80
1, 94819, Note_off_c, 0, 64, 62
1, 94857, Note_on_c, 0, 46, 90
1, 94865, Note_off_c, 0, 67, 63
1, 94868, Note_on_c, 0, 61, 81
1, 94907, Note_off_c, 0, 61, 61
1, 94911, Note_off_c, 0, 46, 62
1, 94919, Note_on_c, 0, 64, 76
1, 94970, Note_on_c, 0, 49, 93
1, 94973, Note_off_c, 0, 64, 66
1, 94987, Note_on_c, 0, 58, 83
1, 94998, Control_c, 0, 64, 25
1, 95013, Control_c, 0, 64, 33
1, 95023, Note_off_c, 0, 49, 61
1, 95028, Control_c, 0, 64, 34
1, 95040, Note_off_c, 0, 58, 63
1, 95042, Control_c, 0, 64, 29
1, 95044, Note_on_c, 0, 61, 83
1, 95057, Control_c, 0, 64, 19
1, 95072, Control_c, 0, 64, 0
1, 95093, Note_on_c, 0, 52, 98
1, 95098, Note_off_c, 0, 61, 62
1, 95107, Note_on_c, 0, 56, 81
1, 95142, Note_off_c, 0, 52, 68
1, 95161, Note_on_c, 0, 58, 82
1, 95164, Note_off_c, 0, 56, 64
1, 95176, Control_c, 0, 64, 18
1, 95190, Control_c, 0, 64, 48
1, 95205, Control_c, 0, 64, 52
1, 95220, Note_off_c, 0, 58, 65
1, 95220, Control_c, 0, 64, 54
1, 95222, Note_on_c, 0, 52, 101
1, 95222, Note_on_c, 0, 61, 86
1, 95235, Control_c, 0, 64, 55
1, 95250, Control_c, 0, 64, 56
1, 95265, Control_c, 0, 64, 58
1, 95266, Note_off_c, 0, 52, 68
1, 95293, Note_off_c, 0, 61, 65
1, 95294, Note_on_c, 0, 58, 90
1, 95302, Control_c, 0, 64, 55
1, 95316, Control_c, 0, 64, 50
1, 95331, Control_c, 0, 64, 34
1, 95345, Note_off_c, 0, 58, 67
1, 95346, Control_c, 0, 64, 0
1, 95362, Note_on_c, 0, 52, 103
1, 95366, Note_on_c, 0, 56, 78
1, 95407, Note_off_c, 0, 52, 69
1, 95433, Note_on_c, 0, 58, 87
1, 95435, Note_off_c, 0, 56, 65
1, 95479, Note_off_c, 0, 58, 64
1, 95500, Note_on_c, 0, 52, 112
1, 95558, Note_on_c, 0, 56, 86
1, 95614, Control_c, 0, 64, 73
1, 95627, Note_off_c, 0, 56, 62
1, 95629, Control_c, 0, 64, 78
1, 95629, Note_on_c, 0, 61, 88
1, 95643, Control_c, 0, 64, 79
1, 95658, Control_c, 0, 64, 80
1, 95673, Control_c, 0, 64, 81
1, 95688, Control_c, 0, 64, 84
1, 95703, Control_c, 0, 64, 86
1, 95703, Note_on_c, 0, 58, 86
1, 95703, Note_off_c, 0, 61, 63
1, 95718, Control_c, 0, 64, 87
1, 95733, Control_c, 0, 64, 89
1, 95747, Control_c, 0, 64, 90
1, 95753, Note_off_c, 0, 58, 65
1, 95756, Note_on_c, 0, 56, 83
1, 95762, Control_c, 0, 64, 92
1, 95777, Control_c, 0, 64, 93
1, 95817, Note_off_c, 0, 56, 64
1, 95821, Control_c, 0, 64, 93
1, 95822, Note_on_c, 0, 61, 83
1, 95836, Control_c, 0, 64, 87
1, 95837, Note_off_c, 0, 52, 63
1, 95851, Control_c, 0, 64, 75
1, 95853, Note_off_c, 0, 61, 53
1, 95865, Control_c, 0, 64, 0
1, 95879, Note_on_c, 0, 51, 95
1, 95948, Note_on_c, 0, 55, 79
1, 95984, Control_c, 0, 64, 38
1, 95999, Control_c, 0, 64, 72
1, 96007, Note_on_c, 0, 61, 85
1, 96008, Note_off_c, 0, 55, 62
1, 96013, Control_c, 0, 64, 80
1, 96028, Control_c, 0, 64, 86
1, 96051, Control_c, 0, 64, 89
1, 96065, Control_c, 0, 64, 92
1, 96069, Note_off_c, 0, 51, 61
1, 96080, Control_c, 0, 64, 95
1, 96082, Note_on_c, 0, 58, 83
1, 96095, Control_c, 0, 64, 98
1, 96097, Note_off_c, 0, 61, 61
1, 96110, Control_c, 0, 64, 101
1, 96125, Control_c, 0, 64, 104
1, 96133, Note_off_c, 0, 58, 65
1, 96135, Note_on_c, 0, 55, 72
1, 96139, Control_c, 0, 64, 105
1, 96154, Control_c, 0, 64, 106
1, 96169, Control_c, 0, 64, 107
1, 96184, Control_c, 0, 64, 106
1, 96198, Note_on_c, 0, 61, 81
1, 96199, Control_c, 0, 64, 103
1, 96204, Note_off_c, 0, 55, 63
1, 96215, Control_c, 0, 64, 89
1, 96216, Note_off_c, 0, 61, 73
1, 96230, Control_c, 0, 64, 67
1, 96244, Control_c, 0, 64, 0
1, 96275, Note_on_c, 0, 44, 88
1, 96290, Note_on_c, 0, 68, 99
1, 96303, Control_c, 0, 64, 68
1, 96318, Control_c, 0, 64, 90
1, 96333, Control_c, 0, 64, 114
1, 96348, Control_c, 0, 64, 118
1, 96355, Note_off_c, 0, 44, 61
1, 96359, Note_on_c, 0, 51, 78
1, 96362, Note_on_c, 0, 63, 84
1, 96366, Note_off_c, 0, 68, 63
1, 96398, Note_off_c, 0, 51, 62
1, 96408, Note_off_c, 0, 63, 66
1, 96424, Note_on_c, 0, 56, 80
1, 96424, Note_on_c, 0, 59, 77
1, 96474, Note_off_c, 0, 56, 64
1, 96478, Note_off_c, 0, 59, 65
1, 96492, Note_on_c, 0, 63, 73
1, 96496, Control_c, 0, 64, 114
1, 96499, Note_on_c, 0, 51, 58
1, 96511, Control_c, 0, 64, 96
1, 96526, Control_c, 0, 64, 73
1, 96532, Note_off_c, 0, 51, 64
1, 96538, Note_on_c, 0, 68, 87
1, 96538, Note_on_c, 0, 44, 76
1, 96540, Note_off_c, 0, 63, 64
1, 96541, Control_c, 0, 64, 0
1, 96565, Note_off_c, 0, 68, 56
1, 96574, Note_off_c, 0, 44, 67
1, 96604, Note_on_c, 0, 51, 74
1, 96609, Note_on_c, 0, 63, 79
1, 96642, Note_off_c, 0, 51, 64
1, 96655, Note_off_c, 0, 63, 64
1, 96660, Note_on_c, 0, 71, 86
1, 96674, Note_on_c, 0, 44, 82
1, 96697, Note_off_c, 0, 44, 66
1, 96703, Note_off_c, 0, 71, 57
1, 96724, Note_on_c, 0, 63, 88
1, 96729, Note_on_c, 0, 51, 74
1, 96759, Note_off_c, 0, 51, 64
1, 96777, Note_on_c, 0, 44, 72
1, 96778, Note_on_c, 0, 70, 86
1, 96779, Note_off_c, 0, 63, 64
1, 96822, Note_off_c, 0, 44, 67
1, 96829, Note_off_c, 0, 70, 60
1, 96846, Note_on_c, 0, 51, 73
1, 96852, Note_on_c, 0, 63, 83
1, 96887, Note_off_c, 0, 51, 64
1, 96893, Note_on_c, 0, 44, 71
1, 96905, Note_on_c, 0, 68, 89
1, 96910, Note_off_c, 0, 63, 65
1, 96931, Note_off_c, 0, 44, 67
1, 96940, Note_off_c, 0, 68, 65
1, 96961, Note_on_c, 0, 51, 70
1, 96964, Note_on_c, 0, 63, 70
1, 96992, Note_off_c, 0, 51, 62
1, 96997, Note_off_c, 0, 63, 66
1, 97018, Note_on_c, 0, 44, 86
1, 97023, Note_on_c, 0, 68, 105
1, 97038, Control_c, 0, 64, 80
1, 97053, Control_c, 0, 64, 127
1, 97088, Note_on_c, 0, 51, 76
1, 97092, Note_on_c, 0, 63, 84
1, 97094, Note_off_c, 0, 44, 61
1, 97094, Note_off_c, 0, 68, 63
1, 97134, Note_off_c, 0, 51, 62
1, 97140, Note_off_c, 0, 63, 65
1, 97149, Note_on_c, 0, 59, 69
1, 97156, Note_on_c, 0, 56, 78
1, 97206, Note_off_c, 0, 56, 64
1, 97206, Note_off_c, 0, 59, 63
1, 97214, Note_on_c, 0, 51, 68
1, 97216, Note_on_c, 0, 63, 70
1, 97259, Note_off_c, 0, 51, 60
1, 97261, Note_on_c, 0, 68, 87
1, 97268, Note_off_c, 0, 63, 64
1, 97271, Note_on_c, 0, 44, 76
1, 97274, Control_c, 0, 64, 124
1, 97289, Control_c, 0, 64, 118
1, 97298, Note_off_c, 0, 68, 60
1, 97304, Control_c, 0, 64, 111
1, 97312, Note_off_c, 0, 44, 62
1, 97319, Control_c, 0, 64, 105
1, 97329, Note_on_c, 0, 63, 81
1, 97334, Control_c, 0, 64, 96
1, 97340, Note_on_c, 0, 51, 77
1, 97348, Control_c, 0, 64, 84
1, 97363, Control_c, 0, 64, 70
1, 97369, Note_off_c, 0, 51, 62
1, 97378, Note_off_c, 0, 63, 64
1, 97378, Control_c, 0, 64, 46
1, 97390, Note_on_c, 0, 71, 80
1, 97393, Control_c, 0, 64, 0
1, 97407, Note_on_c, 0, 44, 75
1, 97427, Note_off_c, 0, 71, 61
1, 97432, Note_off_c, 0, 44, 67
1, 97442, Note_on_c, 0, 63, 87
1, 97459, Note_on_c, 0, 51, 73
1, 97489, Note_off_c, 0, 51, 64
1, 97506, Note_off_c, 0, 63, 62
1, 97506, Note_on_c, 0, 70, 86
1, 97507, Note_on_c, 0, 44, 68
1, 97552, Note_off_c, 0, 44, 67
1, 97554, Note_off_c, 0, 70, 61
1, 97572, Note_on_c, 0, 51, 72
1, 97572, Note_on_c, 0, 63, 75
1, 97608, Control_c, 0, 64, 28
1, 97614, Note_off_c, 0, 51, 62
1, 97622, Note_off_c, 0, 63, 61
1, 97623, Control_c, 0, 64, 33
1, 97626, Note_on_c, 0, 68, 90
1, 97632, Note_on_c, 0, 44, 68
1, 97637, Control_c, 0, 64, 30
1, 97652, Control_c, 0, 64, 16
1, 97662, Note_off_c, 0, 44, 65
1, 97662, Note_off_c, 0, 68, 64
1, 97667, Control_c, 0, 64, 0
1, 97676, Note_on_c, 0, 51, 67
1, 97691, Note_on_c, 0, 63, 67
1, 97712, Note_off_c, 0, 51, 61
1, 97718, Note_off_c, 0, 63, 68
1, 97731, Note_on_c, 0, 44, 82
1, 97753, Note_on_c, 0, 76, 98
1, 97756, Control_c, 0, 64, 65
1, 97771, Control_c, 0, 64, 83
1, 97785, Control_c, 0, 64, 100
1, 97798, Note_on_c, 0, 71, 69
1, 97800, Control_c, 0, 64, 107
1, 97801, Note_on_c, 0, 52, 82
1, 97816, Control_c, 0, 64, 107
1, 97819, Note_off_c, 0, 44, 63
1, 97831, Note_off_c, 0, 76, 65
1, 97846, Control_c, 0, 64, 108
1, 97850, Note_off_c, 0, 52, 67
1, 97855, Note_off_c, 0, 71, 60
1, 97864, Note_on_c, 0, 56, 85
1, 97867, Note_on_c, 0, 68, 80
1, 97874, Control_c, 0, 64, 109
1, 97889, Control_c, 0, 64, 110
1, 97904, Control_c, 0, 64, 112
1, 97919, Control_c, 0, 64, 114
1, 97922, Note_off_c, 0, 56, 65
1, 97927, Note_off_c, 0, 68, 66
1, 97930, Note_on_c, 0, 71, 71
1, 97933, Note_on_c, 0, 52, 67
1, 97933, Control_c, 0, 64, 115
1, 97963, Control_c, 0, 64, 114
1, 97977, Note_on_c, 0, 44, 78
1, 97978, Control_c, 0, 64, 113
1, 97983, Note_off_c, 0, 52, 64
1, 97983, Note_on_c, 0, 76, 85
1, 97993, Note_off_c, 0, 71, 62
1, 97993, Control_c, 0, 64, 107
1, 98007, Control_c, 0, 64, 97
1, 98022, Control_c, 0, 64, 84
1, 98024, Note_off_c, 0, 76, 67
1, 98026, Note_off_c, 0, 44, 62
1, 98037, Control_c, 0, 64, 69
1, 98043, Note_on_c, 0, 52, 69
1, 98049, Note_on_c, 0, 71, 83
1, 98052, Control_c, 0, 64, 0
1, 98088, Note_off_c, 0, 71, 63
1, 98091, Note_off_c, 0, 52, 63
1, 98104, Note_on_c, 0, 80, 92
1, 98109, Note_on_c, 0, 44, 74
1, 98143, Note_off_c, 0, 44, 66
1, 98149, Note_off_c, 0, 80, 62
1, 98162, Note_on_c, 0, 71, 85
1, 98168, Note_on_c, 0, 52, 76
1, 98213, Note_off_c, 0, 71, 58
1, 98213, Note_off_c, 0, 52, 64
1, 98224, Note_on_c, 0, 78, 97
1, 98231, Note_on_c, 0, 44, 74
1, 98265, Note_off_c, 0, 44, 63
1, 98270, Note_off_c, 0, 78, 62
1, 98289, Note_on_c, 0, 71, 79
1, 98293, Note_on_c, 0, 52, 73
1, 98334, Note_off_c, 0, 52, 64
1, 98350, Note_on_c, 0, 76, 93
1, 98350, Note_off_c, 0, 71, 58
1, 98359, Note_on_c, 0, 44, 59
1, 98392, Note_off_c, 0, 44, 64
1, 98399, Note_off_c, 0, 76, 69
1, 98401, Note_on_c, 0, 52, 74
1, 98407, Note_on_c, 0, 71, 71
1, 98436, Note_off_c, 0, 71, 63
1, 98440, Note_off_c, 0, 52, 67
1, 98457, Note_on_c, 0, 44, 87
1, 98473, Note_on_c, 0, 76, 102
1, 98489, Control_c, 0, 64, 71
1, 98504, Control_c, 0, 64, 88
1, 98519, Control_c, 0, 64, 103
1, 98527, Note_on_c, 0, 52, 82
1, 98533, Control_c, 0, 64, 104
1, 98542, Note_on_c, 0, 71, 67
1, 98547, Note_off_c, 0, 44, 62
1, 98548, Control_c, 0, 64, 105
1, 98559, Note_off_c, 0, 76, 66
1, 98582, Note_off_c, 0, 71, 56
1, 98584, Note_off_c, 0, 52, 66
1, 98592, Note_on_c, 0, 56, 83
1, 98601, Note_on_c, 0, 68, 80
1, 98609, Control_c, 0, 64, 106
1, 98642, Note_off_c, 0, 68, 65
1, 98648, Note_off_c, 0, 56, 65
1, 98659, Note_on_c, 0, 52, 66
1, 98660, Note_on_c, 0, 71, 70
1, 98697, Control_c, 0, 64, 105
1, 98702, Note_on_c, 0, 44, 79
1, 98706, Note_off_c, 0, 52, 66
1, 98712, Control_c, 0, 64, 102
1, 98720, Note_on_c, 0, 76, 85
1, 98726, Note_off_c, 0, 71, 63
1, 98727, Control_c, 0, 64, 96
1, 98742, Control_c, 0, 64, 89
1, 98753, Note_off_c, 0, 44, 63
1, 98756, Note_off_c, 0, 76, 66
1, 98756, Control_c, 0, 64, 81
1, 98771, Control_c, 0, 64, 72
1, 98776, Note_on_c, 0, 52, 75
1, 98785, Note_on_c, 0, 71, 79
1, 98786, Control_c, 0, 64, 64
1, 98801, Control_c, 0, 64, 49
1, 98816, Control_c, 0, 64, 35
1, 98824, Note_off_c, 0, 52, 64
1, 98827, Note_off_c, 0, 71, 61
1, 98830, Control_c, 0, 64, 29
1, 98833, Note_on_c, 0, 44, 83
1, 98833, Note_on_c, 0, 80, 94
1, 98845, Control_c, 0, 64, 18
1, 98860, Control_c, 0, 64, 0
1, 98865, Note_off_c, 0, 44, 68
1, 98880, Note_off_c, 0, 80, 64
1, 98893, Note_on_c, 0, 52, 79
1, 98899, Note_on_c, 0, 71, 87
1, 98949, Note_off_c, 0, 52, 65
1, 98952, Note_on_c, 0, 44, 72
1, 98961, Note_off_c, 0, 71, 59
1, 98964, Note_on_c, 0, 78, 92
1, 98990, Note_off_c, 0, 44, 64
1, 99006, Note_off_c, 0, 78, 63
1, 99020, Note_on_c, 0, 71, 78
1, 99025, Note_on_c, 0, 52, 62
1, 99076, Note_off_c, 0, 52, 63
1, 99080, Note_off_c, 0, 71, 63
1, 99086, Note_on_c, 0, 76, 96
1, 99086, Note_on_c, 0, 44, 80
1, 99119, Control_c, 0, 64, 71
1, 99134, Control_c, 0, 64, 84
1, 99143, Note_off_c, 0, 44, 62
1, 99149, Control_c, 0, 64, 93
1, 99152, Note_off_c, 0, 76, 65
1, 99158, Note_on_c, 0, 52, 79
1, 99163, Note_on_c, 0, 71, 90
1, 99164, Control_c, 0, 64, 95
1, 99179, Control_c, 0, 64, 97
1, 99183, Note_off_c, 0, 52, 69
1, 99194, Control_c, 0, 64, 100
1, 99208, Control_c, 0, 64, 102
1, 99209, Note_off_c, 0, 71, 62
1, 99223, Control_c, 0, 64, 102
1, 99238, Control_c, 0, 64, 102
1, 99253, Control_c, 0, 64, 101
1, 99268, Control_c, 0, 64, 95
1, 99282, Control_c, 0, 64, 84
1, 99289, Note_on_c, 0, 85, 99
1, 99297, Control_c, 0, 64, 69
1, 99299, Note_on_c, 0, 57, 110
1, 99302, Note_on_c, 0, 45, 104
1, 99312, Control_c, 0, 64, 0
1, 99472, Note_on_c, 0, 88, 93
1, 99476, Note_off_c, 0, 85, 66
1, 99551, Note_off_c, 0, 88, 62
1, 99562, Note_on_c, 0, 85, 88
1, 99594, Control_c, 0, 64, 32
1, 99609, Control_c, 0, 64, 63
1, 99624, Control_c, 0, 64, 71
1, 99629, Note_off_c, 0, 85, 68
1, 99632, Note_on_c, 0, 88, 93
1, 99638, Control_c, 0, 64, 81
1, 99653, Control_c, 0, 64, 88
1, 99668, Control_c, 0, 64, 91
1, 99683, Control_c, 0, 64, 93
1, 99692, Note_off_c, 0, 88, 60
1, 99695, Note_on_c, 0, 85, 85
1, 99698, Control_c, 0, 64, 96
1, 99712, Control_c, 0, 64, 99
1, 99727, Control_c, 0, 64, 100
1, 99748, Note_on_c, 0, 88, 84
1, 99752, Note_off_c, 0, 85, 68
1, 99794, Control_c, 0, 64, 101
1, 99814, Note_on_c, 0, 85, 81
1, 99814, Note_off_c, 0, 88, 60
1, 99860, Note_on_c, 0, 88, 77
1, 99873, Note_off_c, 0, 85, 59
1, 99917, Note_off_c, 0, 88, 57
1, 99924, Note_on_c, 0, 85, 82
1, 99971, Note_on_c, 0, 88, 79
1, 99978, Note_off_c, 0, 85, 65
1, 100017, Note_off_c, 0, 88, 59
1, 100034, Note_on_c, 0, 85, 78
1, 100083, Note_on_c, 0, 88, 85
1, 100089, Note_off_c, 0, 85, 66
1, 100124, Note_off_c, 0, 88, 61
1, 100139, Note_on_c, 0, 85, 78
1, 100195, Note_on_c, 0, 88, 84
1, 100197, Note_off_c, 0, 85, 66
1, 100209, Control_c, 0, 64, 102
1, 100224, Control_c, 0, 64, 103
1, 100237, Note_off_c, 0, 88, 62
1, 100239, Control_c, 0, 64, 104
1, 100246, Note_on_c, 0, 85, 80
1, 100253, Control_c, 0, 64, 108
1, 100268, Control_c, 0, 64, 113
1, 100283, Control_c, 0, 64, 119
1, 100285, Note_off_c, 0, 57, 63
1, 100297, Note_on_c, 0, 88, 82
1, 100298, Control_c, 0, 64, 127
1, 100306, Note_off_c, 0, 85, 65
1, 100313, Control_c, 0, 64, 127
1, 100327, Note_off_c, 0, 45, 55
1, 100346, Note_off_c, 0, 88, 61
1, 100353, Note_on_c, 0, 85, 75
1, 100387, Control_c, 0, 64, 116
1, 100401, Control_c, 0, 64, 91
1, 100406, Note_on_c, 0, 88, 80
1, 100410, Note_off_c, 0, 85, 67
1, 100416, Control_c, 0, 64, 66
1, 100431, Control_c, 0, 64, 0
1, 100450, Note_off_c, 0, 88, 62
1, 100466, Note_on_c, 0, 85, 79
1, 100475, Control_c, 0, 64, 63
1, 100478, Note_on_c, 0, 58, 92
1, 100480, Note_on_c, 0, 46, 89
1, 100490, Control_c, 0, 64, 80
1, 100505, Control_c, 0, 64, 101
1, 100519, Note_off_c, 0, 58, 65
1, 100520, Note_off_c, 0, 46, 60
1, 100520, Control_c, 0, 64, 114
1, 100534, Note_on_c, 0, 88, 84
1, 100535, Note_off_c, 0, 85, 67
1, 100557, Control_c, 0, 64, 115
1, 100572, Control_c, 0, 64, 117
1, 100577, Note_off_c, 0, 88, 62
1, 100587, Control_c, 0, 64, 120
1, 100588, Note_on_c, 0, 85, 83
1, 100602, Control_c, 0, 64, 124
1, 100609, Note_on_c, 0, 49, 99
1, 100610, Note_on_c, 0, 61, 99
1, 100616, Control_c, 0, 64, 127
1, 100651, Note_off_c, 0, 49, 62
1, 100652, Note_off_c, 0, 61, 62
1, 100653, Note_on_c, 0, 88, 78
1, 100653, Note_off_c, 0, 85, 66
1, 100692, Note_off_c, 0, 88, 59
1, 100714, Note_on_c, 0, 85, 82
1, 100729, Note_on_c, 0, 64, 93
1, 100730, Note_on_c, 0, 52, 94
1, 100757, Note_off_c, 0, 52, 67
1, 100764, Note_off_c, 0, 64, 65
1, 100768, Note_off_c, 0, 85, 67
1, 100774, Note_on_c, 0, 88, 82
1, 100823, Note_off_c, 0, 88, 61
1, 100832, Note_on_c, 0, 85, 78
1, 100842, Note_on_c, 0, 67, 96
1, 100844, Note_on_c, 0, 55, 93
1, 100865, Note_off_c, 0, 55, 71
1, 100878, Note_off_c, 0, 67, 64
1, 100879, Note_on_c, 0, 88, 74
1, 100895, Note_off_c, 0, 85, 62
1, 100951, Note_off_c, 0, 88, 63
1, 100954, Note_on_c, 0, 70, 95
1, 100955, Note_on_c, 0, 82, 81
1, 100957, Note_on_c, 0, 58, 90
1, 100985, Note_off_c, 0, 58, 58
1, 100991, Note_off_c, 0, 70, 65
1, 101015, Note_off_c, 0, 82, 64
1, 101017, Note_on_c, 0, 85, 77
1, 101072, Note_on_c, 0, 80, 82
1, 101075, Note_off_c, 0, 85, 63
1, 101078, Note_on_c, 0, 73, 92
1, 101079, Note_on_c, 0, 61, 89
1, 101119, Note_off_c, 0, 61, 60
1, 101120, Note_off_c, 0, 73, 65
1, 101124, Note_on_c, 0, 82, 89
1, 101128, Note_off_c, 0, 80, 64
1, 101188, Note_off_c, 0, 82, 63
1, 101194, Note_on_c, 0, 64, 94
1, 101194, Note_on_c, 0, 76, 98
1, 101199, Note_on_c, 0, 80, 85
1, 101231, Note_off_c, 0, 64, 67
1, 101233, Note_off_c, 0, 76, 71
1, 101254, Note_on_c, 0, 82, 88
1, 101274, Note_off_c, 0, 80, 62
1, 101326, Note_on_c, 0, 64, 96
1, 101326, Note_on_c, 0, 85, 86
1, 101326, Note_off_c, 0, 82, 64
1, 101327, Note_on_c, 0, 76, 102
1, 101364, Note_off_c, 0, 76, 69
1, 101367, Note_off_c, 0, 64, 63
1, 101387, Note_on_c, 0, 82, 89
1, 101399, Note_off_c, 0, 85, 63
1, 101446, Note_off_c, 0, 82, 65
1, 101450, Note_on_c, 0, 76, 97
1, 101451, Note_on_c, 0, 64, 98
1, 101456, Note_on_c, 0, 80, 80
1, 101495, Note_off_c, 0, 76, 68
1, 101496, Note_off_c, 0, 64, 64
1, 101528, Note_on_c, 0, 82, 91
1, 101537, Note_off_c, 0, 80, 63
1, 101618, Control_c, 0, 64, 125
1, 101620, Note_on_c, 0, 76, 105
1, 101621, Note_on_c, 0, 64, 102
1, 101631, Note_off_c, 0, 82, 47
1, 101633, Control_c, 0, 64, 101
1, 101648, Control_c, 0, 64, 84
1, 101663, Control_c, 0, 64, 69
1, 101678, Control_c, 0, 64, 0
1, 101701, Note_on_c, 0, 80, 83
1, 101737, Control_c, 0, 64, 55
1, 101751, Control_c, 0, 64, 66
1, 101766, Control_c, 0, 64, 74
1, 101771, Note_on_c, 0, 85, 82
1, 101774, Note_off_c, 0, 80, 63
1, 101781, Control_c, 0, 64, 83
1, 101796, Control_c, 0, 64, 93
1, 101812, Control_c, 0, 64, 98
1, 101827, Control_c, 0, 64, 102
1, 101838, Note_on_c, 0, 82, 87
1, 101842, Control_c, 0, 64, 106
1, 101845, Note_off_c, 0, 85, 63
1, 101856, Control_c, 0, 64, 112
1, 101858, Note_off_c, 0, 64, 61
1, 101871, Control_c, 0, 64, 117
1, 101886, Control_c, 0, 64, 121
1, 101894, Note_off_c, 0, 76, 61
1, 101894, Note_off_c, 0, 82, 63
1, 101898, Note_on_c, 0, 80, 83
1, 101900, Control_c, 0, 64, 123
1, 101915, Control_c, 0, 64, 125
1, 101930, Control_c, 0, 64, 127
1, 101959, Note_on_c, 0, 85, 79
1, 101969, Note_off_c, 0, 80, 64
1, 102005, Control_c, 0, 64, 124
1, 102007, Note_off_c, 0, 85, 64
1, 102013, Note_on_c, 0, 75, 88
1, 102016, Note_on_c, 0, 63, 86
1, 102020, Control_c, 0, 64, 110
1, 102041, Control_c, 0, 64, 96
1, 102056, Control_c, 0, 64, 81
1, 102071, Control_c, 0, 64, 66
1, 102082, Note_on_c, 0, 79, 77
1, 102086, Control_c, 0, 64, 0
1, 102138, Note_off_c, 0, 79, 61
1, 102142, Note_on_c, 0, 85, 75
1, 102160, Control_c, 0, 64, 55
1, 102175, Control_c, 0, 64, 66
1, 102189, Control_c, 0, 64, 72
1, 102203, Note_on_c, 0, 82, 85
1, 102204, Control_c, 0, 64, 78
1, 102207, Note_off_c, 0, 85, 62
1, 102219, Control_c, 0, 64, 81
1, 102231, Note_off_c, 0, 75, 62
1, 102234, Control_c, 0, 64, 83
1, 102249, Control_c, 0, 64, 86
1, 102256, Note_off_c, 0, 82, 65
1, 102263, Note_on_c, 0, 79, 81
1, 102264, Control_c, 0, 64, 91
1, 102279, Control_c, 0, 64, 97
1, 102294, Control_c, 0, 64, 101
1, 102308, Control_c, 0, 64, 103
1, 102322, Note_on_c, 0, 85, 79
1, 102323, Control_c, 0, 64, 105
1, 102327, Note_off_c, 0, 79, 62
1, 102338, Control_c, 0, 64, 106
1, 102353, Control_c, 0, 64, 106
1, 102359, Note_off_c, 0, 63, 60
1, 102361, Note_off_c, 0, 85, 56
1, 102380, Note_on_c, 0, 68, 108
1, 102382, Control_c, 0, 64, 105
1, 102397, Control_c, 0, 64, 98
1, 102412, Control_c, 0, 64, 86
1, 102426, Control_c, 0, 64, 70
1, 102441, Control_c, 0, 64, 0
1, 102458, Note_on_c, 0, 76, 75
1, 102508, Note_on_c, 0, 85, 77
1, 102513, Note_off_c, 0, 76, 61
1, 102530, Control_c, 0, 64, 24
1, 102545, Control_c, 0, 64, 63
1, 102560, Control_c, 0, 64, 69
1, 102575, Control_c, 0, 64, 74
1, 102580, Note_on_c, 0, 82, 80
1, 102585, Note_off_c, 0, 85, 66
1, 102589, Control_c, 0, 64, 80
1, 102605, Control_c, 0, 64, 86
1, 102620, Control_c, 0, 64, 90
1, 102635, Control_c, 0, 64, 95
1, 102636, Note_off_c, 0, 82, 61
1, 102640, Note_on_c, 0, 76, 74
1, 102649, Control_c, 0, 64, 99
1, 102664, Control_c, 0, 64, 103
1, 102679, Control_c, 0, 64, 106
1, 102692, Note_off_c, 0, 76, 66
1, 102694, Control_c, 0, 64, 109
1, 102698, Note_on_c, 0, 85, 77
1, 102709, Control_c, 0, 64, 109
1, 102735, Note_off_c, 0, 85, 51
1, 102735, Note_off_c, 0, 68, 62
1, 102738, Control_c, 0, 64, 105
1, 102749, Note_on_c, 0, 67, 89
1, 102753, Control_c, 0, 64, 92
1, 102768, Control_c, 0, 64, 77
1, 102791, Control_c, 0, 64, 62
1, 102805, Control_c, 0, 64, 0
1, 102809, Note_on_c, 0, 75, 76
1, 102835, Control_c, 0, 64, 45
1, 102850, Control_c, 0, 64, 68
1, 102864, Note_on_c, 0, 85, 80
1, 102864, Control_c, 0, 64, 77
1, 102869, Note_off_c, 0, 67, 65
1, 102869, Note_off_c, 0, 75, 60
1, 102879, Control_c, 0, 64, 86
1, 102894, Control_c, 0, 64, 91
1, 102909, Control_c, 0, 64, 95
1, 102924, Control_c, 0, 64, 99
1, 102932, Note_on_c, 0, 82, 90
1, 102938, Note_off_c, 0, 85, 64
1, 102938, Control_c, 0, 64, 104
1, 102953, Control_c, 0, 64, 110
1, 102968, Control_c, 0, 64, 114
1, 102983, Control_c, 0, 64, 117
1, 102984, Note_on_c, 0, 75, 79
1, 102993, Note_off_c, 0, 82, 62
1, 102998, Control_c, 0, 64, 121
1, 103012, Control_c, 0, 64, 127
1, 103039, Note_off_c, 0, 75, 67
1, 103051, Note_on_c, 0, 85, 81
1, 103095, Note_off_c, 0, 85, 64
1, 103102, Control_c, 0, 64, 109
1, 103114, Note_on_c, 0, 76, 103
1, 103117, Control_c, 0, 64, 93
1, 103131, Control_c, 0, 64, 74
1, 103146, Control_c, 0, 64, 47
1, 103161, Control_c, 0, 64, 0
1, 103179, Note_on_c, 0, 80, 79
1, 103240, Note_off_c, 0, 80, 64
1, 103242, Note_on_c, 0, 85, 79
1, 103264, Control_c, 0, 64, 36
1, 103279, Control_c, 0, 64, 58
1, 103294, Control_c, 0, 64, 64
1, 103301, Note_on_c, 0, 82, 85
1, 103308, Note_off_c, 0, 85, 64
1, 103309, Control_c, 0, 64, 70
1, 103323, Control_c, 0, 64, 82
1, 103338, Control_c, 0, 64, 93
1, 103352, Note_off_c, 0, 82, 65
1, 103353, Control_c, 0, 64, 98
1, 103358, Note_on_c, 0, 80, 83
1, 103368, Control_c, 0, 64, 99
1, 103382, Control_c, 0, 64, 100
1, 103399, Control_c, 0, 64, 102
1, 103414, Control_c, 0, 64, 104
1, 103421, Note_on_c, 0, 85, 82
1, 103428, Control_c, 0, 64, 105
1, 103429, Note_off_c, 0, 80, 64
1, 103452, Note_off_c, 0, 76, 67
1, 103456, Note_on_c, 0, 75, 93
1, 103459, Note_off_c, 0, 85, 61
1, 103472, Control_c, 0, 64, 105
1, 103487, Control_c, 0, 64, 99
1, 103502, Control_c, 0, 64, 87
1, 103517, Control_c, 0, 64, 68
1, 103536, Note_on_c, 0, 79, 76
1, 103540, Control_c, 0, 64, 0
1, 103585, Note_on_c, 0, 85, 79
1, 103588, Note_off_c, 0, 79, 61
1, 103614, Control_c, 0, 64, 30
1, 103628, Control_c, 0, 64, 65
1, 103635, Note_off_c, 0, 75, 63
1, 103643, Control_c, 0, 64, 72
1, 103658, Control_c, 0, 64, 78
1, 103659, Note_on_c, 0, 82, 83
1, 103663, Note_off_c, 0, 85, 65
1, 103673, Control_c, 0, 64, 83
1, 103687, Control_c, 0, 64, 87
1, 103702, Control_c, 0, 64, 89
1, 103709, Note_on_c, 0, 79, 77
1, 103717, Control_c, 0, 64, 92
1, 103718, Note_off_c, 0, 82, 62
1, 103732, Control_c, 0, 64, 93
1, 103747, Control_c, 0, 64, 96
1, 103761, Control_c, 0, 64, 99
1, 103764, Note_on_c, 0, 85, 84
1, 103774, Note_off_c, 0, 79, 61
1, 103776, Control_c, 0, 64, 101
1, 103790, Note_off_c, 0, 85, 63
1, 103805, Control_c, 0, 64, 96
1, 103818, Note_on_c, 0, 74, 77
1, 103820, Control_c, 0, 64, 80
1, 103835, Control_c, 0, 64, 49
1, 103850, Control_c, 0, 64, 0
1, 103856, Note_on_c, 0, 77, 85
1, 103895, Control_c, 0, 64, 32
1, 103909, Control_c, 0, 64, 71
1, 103921, Note_on_c, 0, 80, 93
1, 103924, Control_c, 0, 64, 82
1, 103939, Control_c, 0, 64, 91
1, 103954, Control_c, 0, 64, 95
1, 103969, Control_c, 0, 64, 97
1, 103981, Note_on_c, 0, 83, 75
1, 103984, Control_c, 0, 64, 101
1, 103998, Control_c, 0, 64, 106
1, 104013, Control_c, 0, 64, 110
1, 104028, Control_c, 0, 64, 112
1, 104038, Note_on_c, 0, 86, 82
1, 104043, Note_off_c, 0, 83, 62
1, 104043, Control_c, 0, 64, 113
1, 104058, Control_c, 0, 64, 114
1, 104072, Control_c, 0, 64, 116
1, 104087, Control_c, 0, 64, 118
1, 104091, Note_on_c, 0, 89, 81
1, 104102, Control_c, 0, 64, 119
1, 104103, Note_off_c, 0, 86, 64
1, 104117, Control_c, 0, 64, 120
1, 104132, Control_c, 0, 64, 121
1, 104139, Note_on_c, 0, 92, 88
1, 104146, Control_c, 0, 64, 122
1, 104153, Note_off_c, 0, 89, 67
1, 104161, Control_c, 0, 64, 123
1, 104166, Note_off_c, 0, 77, 59
1, 104172, Note_off_c, 0, 74, 64
1, 104172, Note_off_c, 0, 80, 62
1, 104176, Control_c, 0, 64, 124
1, 104192, Control_c, 0, 64, 126
1, 104207, Note_off_c, 0, 92, 68
1, 104207, Control_c, 0, 64, 127
1, 104212, Note_on_c, 0, 89, 87
1, 104263, Note_off_c, 0, 89, 63
1, 104276, Note_on_c, 0, 86, 81
1, 104328, Note_on_c, 0, 95, 87
1, 104342, Note_off_c, 0, 86, 63
1, 104399, Note_on_c, 0, 94, 85
1, 104424, Note_off_c, 0, 95, 65
1, 104451, Control_c, 0, 64, 115
1, 104452, Note_on_c, 0, 92, 87
1, 104466, Control_c, 0, 64, 96
1, 104480, Note_off_c, 0, 94, 66
1, 104481, Control_c, 0, 64, 71
1, 104482, Note_on_c, 0, 75, 86
1, 104496, Control_c, 0, 64, 0
1, 104515, Note_on_c, 0, 91, 91
1, 104515, Note_off_c, 0, 92, 66
1, 104555, Note_on_c, 0, 79, 82
1, 104570, Note_off_c, 0, 91, 59
1, 104570, Control_c, 0, 64, 69
1, 104581, Note_on_c, 0, 94, 88
1, 104584, Control_c, 0, 64, 82
1, 104599, Control_c, 0, 64, 96
1, 104614, Control_c, 0, 64, 104
1, 104628, Control_c, 0, 64, 107
1, 104632, Note_on_c, 0, 92, 90
1, 104643, Control_c, 0, 64, 110
1, 104651, Note_off_c, 0, 94, 67
1, 104658, Control_c, 0, 64, 116
1, 104673, Control_c, 0, 64, 123
1, 104688, Control_c, 0, 64, 127
1, 104690, Note_on_c, 0, 91, 89
1, 104697, Note_off_c, 0, 92, 65
1, 104735, Note_off_c, 0, 91, 62
1, 104752, Note_on_c, 0, 88, 80
1, 104759, Note_off_c, 0, 79, 60
1, 104786, Note_off_c, 0, 75, 63
1, 104808, Note_on_c, 0, 87, 86
1, 104815, Note_off_c, 0, 88, 58
1, 104860, Note_off_c, 0, 87, 63
1, 104864, Note_on_c, 0, 85, 79
1, 104915, Note_off_c, 0, 85, 66
1, 104923, Note_on_c, 0, 88, 81
1, 104983, Note_on_c, 0, 87, 83
1, 105006, Note_off_c, 0, 88, 63
1, 105051, Note_on_c, 0, 85, 78
1, 105074, Note_off_c, 0, 87, 62
1, 105100, Note_off_c, 0, 85, 66
1, 105122, Note_on_c, 0, 83, 69
1, 105181, Note_on_c, 0, 82, 71
1, 105182, Note_off_c, 0, 83, 60
1, 105185, Control_c, 0, 64, 120
1, 105200, Control_c, 0, 64, 105
1, 105205, Note_off_c, 0, 82, 67
1, 105215, Control_c, 0, 64, 91
1, 105230, Control_c, 0, 64, 76
1, 105245, Control_c, 0, 64, 48
1, 105259, Control_c, 0, 64, 0
1, 105267, Note_on_c, 0, 71, 48
1, 105272, Note_on_c, 0, 68, 49
1, 105358, Note_on_c, 0, 80, 59
1, 105421, Note_on_c, 0, 83, 60
1, 105422, Control_c, 0, 64, 22
1, 105423, Note_off_c, 0, 80, 62
1, 105437, Control_c, 0, 64, 66
1, 105451, Control_c, 0, 64, 74
1, 105462, Note_off_c, 0, 71, 60
1, 105466, Control_c, 0, 64, 81
1, 105481, Control_c, 0, 64, 84
1, 105494, Note_off_c, 0, 83, 60
1, 105496, Control_c, 0, 64, 84
1, 105498, Note_on_c, 0, 87, 71
1, 105511, Control_c, 0, 64, 86
1, 105525, Control_c, 0, 64, 88
1, 105540, Control_c, 0, 64, 91
1, 105555, Control_c, 0, 64, 92
1, 105562, Note_on_c, 0, 92, 53
1, 105564, Note_off_c, 0, 87, 60
1, 105570, Control_c, 0, 64, 93
1, 105585, Control_c, 0, 64, 93
1, 105604, Note_on_c, 0, 80, 66
1, 105604, Note_off_c, 0, 92, 59
1, 105624, Note_off_c, 0, 68, 54
1, 105638, Note_off_c, 0, 80, 63
1, 105644, Control_c, 0, 64, 91
1, 105653, Note_on_c, 0, 76, 62
1, 105659, Control_c, 0, 64, 85
1, 105659, Note_on_c, 0, 73, 59
1, 105674, Control_c, 0, 64, 74
1, 105689, Control_c, 0, 64, 59
1, 105704, Control_c, 0, 64, 0
1, 105784, Control_c, 0, 64, 52
1, 105801, Control_c, 0, 64, 66
1, 105816, Control_c, 0, 64, 73
1, 105830, Control_c, 0, 64, 79
1, 105845, Control_c, 0, 64, 82
1, 105859, Note_on_c, 0, 92, 60
1, 105860, Control_c, 0, 64, 84
1, 105874, Control_c, 0, 64, 85
1, 105886, Note_off_c, 0, 92, 65
1, 105889, Control_c, 0, 64, 86
1, 105904, Control_c, 0, 64, 87
1, 105917, Note_on_c, 0, 80, 61
1, 105919, Note_off_c, 0, 73, 58
1, 105919, Control_c, 0, 64, 88
1, 105934, Control_c, 0, 64, 88
1, 105956, Note_off_c, 0, 80, 62
1, 105958, Note_on_c, 0, 92, 71
1, 105981, Note_off_c, 0, 92, 70
1, 105988, Note_off_c, 0, 76, 65
1, 105993, Control_c, 0, 64, 84
1, 106008, Control_c, 0, 64, 73
1, 106010, Note_on_c, 0, 75, 62
1, 106017, Note_on_c, 0, 71, 57
1, 106023, Control_c, 0, 64, 58
1, 106038, Control_c, 0, 64, 0
1, 106112, Control_c, 0, 64, 63
1, 106127, Control_c, 0, 64, 71
1, 106141, Control_c, 0, 64, 78
1, 106156, Control_c, 0, 64, 84
1, 106171, Control_c, 0, 64, 86
1, 106186, Note_off_c, 0, 71, 63
1, 106186, Control_c, 0, 64, 88
1, 106189, Note_off_c, 0, 75, 65
1, 106200, Control_c, 0, 64, 89
1, 106215, Control_c, 0, 64, 91
1, 106230, Control_c, 0, 64, 93
1, 106231, Note_on_c, 0, 92, 54
1, 106245, Control_c, 0, 64, 94
1, 106254, Note_off_c, 0, 92, 62
1, 106260, Control_c, 0, 64, 95
1, 106274, Control_c, 0, 64, 96
1, 106276, Note_on_c, 0, 80, 69
1, 106310, Note_off_c, 0, 80, 62
1, 106324, Note_on_c, 0, 92, 77
1, 106334, Control_c, 0, 64, 95
1, 106344, Note_off_c, 0, 92, 66
1, 106348, Control_c, 0, 64, 89
1, 106363, Control_c, 0, 64, 78
1, 106377, Note_on_c, 0, 70, 61
1, 106378, Control_c, 0, 64, 61
1, 106382, Note_on_c, 0, 75, 60
1, 106387, Note_on_c, 0, 73, 56
1, 106393, Control_c, 0, 64, 0
1, 106482, Control_c, 0, 64, 51
1, 106497, Control_c, 0, 64, 65
1, 106512, Control_c, 0, 64, 70
1, 106534, Control_c, 0, 64, 75
1, 106548, Control_c, 0, 64, 80
1, 106563, Control_c, 0, 64, 84
1, 106578, Control_c, 0, 64, 88
1, 106589, Note_on_c, 0, 91, 43
1, 106592, Note_off_c, 0, 73, 63
1, 106593, Control_c, 0, 64, 90
1, 106609, Control_c, 0, 64, 92
1, 106618, Note_off_c, 0, 91, 35
1, 106621, Note_on_c, 0, 79, 68
1, 106623, Control_c, 0, 64, 93
1, 106638, Control_c, 0, 64, 94
1, 106651, Note_off_c, 0, 70, 61
1, 106653, Note_off_c, 0, 79, 61
1, 106653, Control_c, 0, 64, 95
1, 106668, Control_c, 0, 64, 95
1, 106686, Note_off_c, 0, 75, 64
1, 106697, Note_on_c, 0, 91, 43
1, 106712, Control_c, 0, 64, 94
1, 106723, Note_off_c, 0, 91, 37
1, 106727, Control_c, 0, 64, 88
1, 106739, Note_on_c, 0, 68, 57
1, 106742, Control_c, 0, 64, 76
1, 106745, Note_on_c, 0, 71, 54
1, 106757, Control_c, 0, 64, 62
1, 106771, Control_c, 0, 64, 0
1, 106831, Control_c, 0, 64, 38
1, 106832, Note_on_c, 0, 80, 52
1, 106846, Control_c, 0, 64, 66
1, 106861, Control_c, 0, 64, 75
1, 106864, Note_off_c, 0, 71, 63
1, 106875, Control_c, 0, 64, 84
1, 106878, Note_off_c, 0, 80, 58
1, 106884, Note_on_c, 0, 83, 57
1, 106890, Control_c, 0, 64, 88
1, 106894, Note_off_c, 0, 68, 65
1, 106920, Control_c, 0, 64, 88
1, 106935, Control_c, 0, 64, 89
1, 106945, Note_on_c, 0, 87, 69
1, 106950, Control_c, 0, 64, 90
1, 106950, Note_off_c, 0, 83, 61
1, 106965, Control_c, 0, 64, 92
1, 106979, Control_c, 0, 64, 93
1, 106994, Control_c, 0, 64, 93
1, 106998, Note_on_c, 0, 92, 71
1, 107009, Control_c, 0, 64, 94
1, 107013, Note_off_c, 0, 87, 58
1, 107023, Control_c, 0, 64, 95
1, 107052, Note_off_c, 0, 92, 63
1, 107058, Note_on_c, 0, 80, 65
1, 107078, Note_off_c, 0, 80, 64
1, 107083, Control_c, 0, 64, 93
1, 107097, Control_c, 0, 64, 84
1, 107108, Note_on_c, 0, 64, 57
1, 107112, Control_c, 0, 64, 72
1, 107114, Note_on_c, 0, 61, 56
1, 107127, Control_c, 0, 64, 46
1, 107142, Control_c, 0, 64, 0
1, 107215, Control_c, 0, 64, 29
1, 107230, Control_c, 0, 64, 62
1, 107245, Control_c, 0, 64, 69
1, 107260, Control_c, 0, 64, 74
1, 107283, Control_c, 0, 64, 78
1, 107297, Control_c, 0, 64, 81
1, 107311, Note_on_c, 0, 80, 63
1, 107312, Control_c, 0, 64, 83
1, 107327, Control_c, 0, 64, 83
1, 107329, Note_off_c, 0, 80, 65
1, 107342, Control_c, 0, 64, 84
1, 107357, Note_off_c, 0, 61, 57
1, 107357, Control_c, 0, 64, 84
1, 107359, Note_on_c, 0, 68, 66
1, 107389, Note_off_c, 0, 68, 66
1, 107403, Note_on_c, 0, 80, 70
1, 107417, Control_c, 0, 64, 84
1, 107427, Note_off_c, 0, 80, 70
1, 107432, Control_c, 0, 64, 79
1, 107439, Note_off_c, 0, 64, 61
1, 107446, Control_c, 0, 64, 66
1, 107451, Note_on_c, 0, 63, 58
1, 107454, Note_on_c, 0, 59, 54
1, 107461, Control_c, 0, 64, 0
1, 107550, Control_c, 0, 64, 55
1, 107565, Control_c, 0, 64, 68
1, 107580, Control_c, 0, 64, 74
1, 107595, Control_c, 0, 64, 78
1, 107610, Control_c, 0, 64, 81
1, 107616, Note_off_c, 0, 63, 65
1, 107625, Control_c, 0, 64, 84
1, 107640, Control_c, 0, 64, 86
1, 107654, Control_c, 0, 64, 88
1, 107659, Note_on_c, 0, 80, 65
1, 107669, Control_c, 0, 64, 90
1, 107677, Note_off_c, 0, 80, 66
1, 107684, Control_c, 0, 64, 92
1, 107699, Control_c, 0, 64, 93
1, 107714, Control_c, 0, 64, 95
1, 107717, Note_on_c, 0, 68, 57
1, 107728, Control_c, 0, 64, 96
1, 107743, Control_c, 0, 64, 96
1, 107745, Note_off_c, 0, 68, 65
1, 107760, Note_on_c, 0, 80, 66
1, 107763, Note_off_c, 0, 59, 61
1, 107782, Note_off_c, 0, 80, 65
1, 107788, Control_c, 0, 64, 95
1, 107803, Control_c, 0, 64, 91
1, 107816, Note_on_c, 0, 63, 82
1, 107817, Control_c, 0, 64, 80
1, 107825, Note_on_c, 0, 58, 65
1, 107826, Note_on_c, 0, 61, 68
1, 107832, Control_c, 0, 64, 67
1, 107847, Control_c, 0, 64, 0
1, 107951, Control_c, 0, 64, 16
1, 107966, Control_c, 0, 64, 64
1, 107981, Control_c, 0, 64, 72
1, 107994, Note_on_c, 0, 79, 63
1, 107995, Control_c, 0, 64, 79
1, 108010, Control_c, 0, 64, 84
1, 108029, Note_off_c, 0, 79, 59
1, 108032, Control_c, 0, 64, 86
1, 108044, Note_off_c, 0, 61, 59
1, 108047, Control_c, 0, 64, 88
1, 108053, Note_on_c, 0, 67, 59
1, 108062, Control_c, 0, 64, 89
1, 108077, Control_c, 0, 64, 91
1, 108088, Note_off_c, 0, 67, 65
1, 108092, Control_c, 0, 64, 93
1, 108098, Note_off_c, 0, 58, 58
1, 108107, Control_c, 0, 64, 94
1, 108114, Note_on_c, 0, 79, 58
1, 108121, Control_c, 0, 64, 94
1, 108133, Note_off_c, 0, 79, 61
1, 108166, Control_c, 0, 64, 94
1, 108181, Control_c, 0, 64, 89
1, 108193, Note_on_c, 0, 59, 56
1, 108197, Control_c, 0, 64, 80
1, 108204, Note_on_c, 0, 56, 55
1, 108208, Note_off_c, 0, 63, 62
1, 108212, Control_c, 0, 64, 66
1, 108226, Control_c, 0, 64, 0
1, 108287, Note_on_c, 0, 80, 50
1, 108330, Control_c, 0, 64, 58
1, 108333, Note_off_c, 0, 80, 63
1, 108344, Note_on_c, 0, 83, 62
1, 108344, Control_c, 0, 64, 70
1, 108359, Control_c, 0, 64, 77
1, 108370, Note_off_c, 0, 59, 62
1, 108374, Control_c, 0, 64, 83
1, 108389, Control_c, 0, 64, 84
1, 108397, Note_off_c, 0, 56, 63
1, 108404, Control_c, 0, 64, 85
1, 108416, Note_on_c, 0, 87, 63
1, 108417, Note_off_c, 0, 83, 61
1, 108418, Control_c, 0, 64, 87
1, 108433, Control_c, 0, 64, 88
1, 108448, Control_c, 0, 64, 89
1, 108463, Control_c, 0, 64, 89
1, 108469, Note_on_c, 0, 92, 67
1, 108479, Note_off_c, 0, 87, 60
1, 108492, Control_c, 0, 64, 90
1, 108521, Note_on_c, 0, 80, 66
1, 108523, Note_off_c, 0, 92, 54
1, 108552, Note_off_c, 0, 80, 63
1, 108566, Control_c, 0, 64, 88
1, 108581, Control_c, 0, 64, 82
1, 108591, Note_on_c, 0, 52, 59
1, 108593, Note_on_c, 0, 49, 51
1, 108595, Control_c, 0, 64, 71
1, 108610, Control_c, 0, 64, 57
1, 108625, Control_c, 0, 64, 0
1, 108715, Control_c, 0, 64, 42
1, 108730, Control_c, 0, 64, 61
1, 108744, Control_c, 0, 64, 66
1, 108759, Control_c, 0, 64, 69
1, 108778, Note_on_c, 0, 92, 66
1, 108781, Control_c, 0, 64, 75
1, 108795, Control_c, 0, 64, 80
1, 108806, Note_off_c, 0, 92, 66
1, 108810, Control_c, 0, 64, 84
1, 108825, Control_c, 0, 64, 86
1, 108840, Note_on_c, 0, 80, 61
1, 108840, Control_c, 0, 64, 87
1, 108855, Control_c, 0, 64, 87
1, 108859, Note_off_c, 0, 49, 59
1, 108870, Control_c, 0, 64, 88
1, 108880, Note_off_c, 0, 80, 60
1, 108885, Control_c, 0, 64, 89
1, 108888, Note_on_c, 0, 92, 72
1, 108900, Control_c, 0, 64, 89
1, 108912, Note_off_c, 0, 92, 68
1, 108944, Control_c, 0, 64, 89
1, 108955, Note_on_c, 0, 47, 56
1, 108956, Note_on_c, 0, 51, 55
1, 108959, Control_c, 0, 64, 85
1, 108971, Note_off_c, 0, 52, 56
1, 108974, Control_c, 0, 64, 76
1, 108989, Control_c, 0, 64, 64
1, 109004, Control_c, 0, 64, 0
1, 109093, Control_c, 0, 64, 18
1, 109108, Control_c, 0, 64, 61
1, 109123, Control_c, 0, 64, 68
1, 109138, Control_c, 0, 64, 73
1, 109153, Control_c, 0, 64, 79
1, 109167, Control_c, 0, 64, 84
1, 109180, Note_off_c, 0, 51, 63
1, 109182, Control_c, 0, 64, 85
1, 109194, Note_on_c, 0, 92, 63
1, 109197, Control_c, 0, 64, 86
1, 109212, Control_c, 0, 64, 88
1, 109222, Note_off_c, 0, 92, 65
1, 109226, Control_c, 0, 64, 89
1, 109241, Control_c, 0, 64, 91
1, 109256, Control_c, 0, 64, 92
1, 109263, Note_on_c, 0, 80, 57
1, 109271, Control_c, 0, 64, 93
1, 109286, Control_c, 0, 64, 93
1, 109300, Note_off_c, 0, 80, 57
1, 109300, Control_c, 0, 64, 94
1, 109315, Control_c, 0, 64, 94
1, 109323, Note_on_c, 0, 92, 47
1, 109350, Note_off_c, 0, 92, 50
1, 109351, Note_off_c, 0, 47, 61
1, 109360, Control_c, 0, 64, 91
1, 109374, Control_c, 0, 64, 83
1, 109376, Note_on_c, 0, 51, 71
1, 109388, Note_on_c, 0, 49, 62
1, 109388, Note_on_c, 0, 46, 56
1, 109389, Control_c, 0, 64, 69
1, 109404, Control_c, 0, 64, 0
1, 109530, Control_c, 0, 64, 44
1, 109545, Control_c, 0, 64, 65
1, 109560, Control_c, 0, 64, 71
1, 109574, Control_c, 0, 64, 75
1, 109589, Control_c, 0, 64, 78
1, 109604, Control_c, 0, 64, 81
1, 109618, Control_c, 0, 64, 83
1, 109633, Note_off_c, 0, 51, 59
1, 109633, Control_c, 0, 64, 85
1, 109638, Note_on_c, 0, 91, 54
1, 109648, Control_c, 0, 64, 86
1, 109657, Note_off_c, 0, 49, 59
1, 109663, Control_c, 0, 64, 87
1, 109678, Control_c, 0, 64, 88
1, 109692, Control_c, 0, 64, 88
1, 109693, Note_off_c, 0, 91, 51
1, 109702, Note_off_c, 0, 46, 62
1, 109707, Control_c, 0, 64, 89
1, 109722, Control_c, 0, 64, 89
1, 109737, Control_c, 0, 64, 90
1, 109752, Control_c, 0, 64, 91
1, 109764, Note_on_c, 0, 79, 45
1, 109767, Control_c, 0, 64, 91
1, 109782, Control_c, 0, 64, 92
1, 109797, Control_c, 0, 64, 92
1, 109812, Control_c, 0, 64, 93
1, 109827, Control_c, 0, 64, 93
1, 109841, Control_c, 0, 64, 94
1, 109856, Control_c, 0, 64, 94
1, 109877, Note_on_c, 0, 91, 58
1, 109901, Control_c, 0, 64, 95
1, 109905, Note_off_c, 0, 79, 39
1, 110094, Control_c, 0, 64, 93
1, 110109, Control_c, 0, 64, 89
1, 110123, Control_c, 0, 64, 82
1, 110138, Control_c, 0, 64, 74
1, 110151, Note_on_c, 0, 44, 60
1, 110153, Note_on_c, 0, 92, 61
1, 110153, Control_c, 0, 64, 64
1, 110166, Note_off_c, 0, 91, 50
1, 110167, Control_c, 0, 64, 33
1, 110182, Control_c, 0, 64, 0
1, 110427, Control_c, 0, 64, 59
1, 110441, Control_c, 0, 64, 66
1, 110446, Note_on_c, 0, 87, 45
1, 110456, Control_c, 0, 64, 70
1, 110471, Control_c, 0, 64, 74
1, 110486, Note_off_c, 0, 92, 51
1, 110486, Control_c, 0, 64, 77
1, 110501, Control_c, 0, 64, 82
1, 110515, Control_c, 0, 64, 86
1, 110521, Note_off_c, 0, 87, 62
1, 110530, Control_c, 0, 64, 89
1, 110545, Control_c, 0, 64, 91
1, 110551, Note_on_c, 0, 83, 46
1, 110560, Control_c, 0, 64, 92
1, 110575, Control_c, 0, 64, 94
1, 110590, Control_c, 0, 64, 95
1, 110605, Control_c, 0, 64, 97
1, 110614, Note_on_c, 0, 87, 47
1, 110615, Note_off_c, 0, 83, 45
1, 110619, Control_c, 0, 64, 98
1, 110634, Control_c, 0, 64, 98
1, 110649, Control_c, 0, 64, 99
1, 110664, Control_c, 0, 64, 99
1, 110667, Note_off_c, 0, 87, 58
1, 110679, Control_c, 0, 64, 100
1, 110693, Note_on_c, 0, 92, 56
1, 110724, Control_c, 0, 64, 100
1, 110736, Note_off_c, 0, 92, 61
1, 110745, Note_on_c, 0, 87, 54
1, 110768, Control_c, 0, 64, 101
1, 110785, Note_off_c, 0, 87, 63
1, 110809, Note_on_c, 0, 83, 53
1, 110827, Control_c, 0, 64, 101
1, 110855, Note_on_c, 0, 87, 57
1, 110872, Note_off_c, 0, 83, 49
1, 110886, Control_c, 0, 64, 102
1, 110916, Note_off_c, 0, 87, 63
1, 110932, Note_on_c, 0, 92, 64
1, 110985, Note_on_c, 0, 87, 57
1, 110992, Note_off_c, 0, 92, 62
1, 111050, Note_off_c, 0, 87, 64
1, 111073, Note_on_c, 0, 83, 51
1, 111126, Note_on_c, 0, 87, 48
1, 111132, Note_off_c, 0, 83, 51
1, 111186, Note_on_c, 0, 39, 44
1, 111187, Note_off_c, 0, 87, 63
1, 111194, Note_on_c, 0, 92, 62
1, 111263, Note_on_c, 0, 87, 54
1, 111268, Note_off_c, 0, 92, 59
1, 111323, Note_off_c, 0, 87, 64
1, 111344, Note_on_c, 0, 83, 54
1, 111416, Note_on_c, 0, 87, 60
1, 111420, Note_off_c, 0, 83, 56
1, 111478, Note_off_c, 0, 87, 63
1, 111506, Note_on_c, 0, 92, 54
1, 111555, Note_off_c, 0, 92, 57
1, 111597, Note_on_c, 0, 87, 53
1, 111648, Note_off_c, 0, 87, 56
1, 111659, Note_on_c, 0, 35, 42
1, 111679, Note_on_c, 0, 92, 55
1, 111694, Control_c, 0, 64, 102
1, 111724, Control_c, 0, 64, 103
1, 111728, Note_off_c, 0, 44, 38
1, 111749, Note_off_c, 0, 92, 60
1, 111754, Control_c, 0, 64, 103
1, 111785, Note_on_c, 0, 87, 52
1, 111791, Control_c, 0, 64, 104
1, 111820, Control_c, 0, 64, 104
1, 111840, Note_off_c, 0, 39, 39
1, 111850, Control_c, 0, 64, 105
1, 111865, Note_off_c, 0, 87, 60
1, 111904, Note_on_c, 0, 92, 45
1, 111924, Control_c, 0, 64, 105
1, 111999, Note_off_c, 0, 92, 57
1, 112031, Note_on_c, 0, 87, 43
1, 112134, Note_off_c, 0, 87, 56
1, 112146, Control_c, 0, 64, 105
1, 112152, Note_on_c, 0, 92, 46
1, 112277, Note_off_c, 0, 92, 48
1, 112292, Note_on_c, 0, 87, 41
1, 112325, Control_c, 0, 64, 104
1, 112354, Control_c, 0, 64, 104
1, 112384, Control_c, 0, 64, 103
1, 112414, Control_c, 0, 64, 103
1, 112429, Control_c, 0, 64, 102
1, 112443, Control_c, 0, 64, 102
1, 112473, Control_c, 0, 64, 101
1, 112488, Control_c, 0, 64, 100
1, 112503, Control_c, 0, 64, 98
1, 112524, Control_c, 0, 64, 97
1, 112539, Control_c, 0, 64, 96
1, 112554, Control_c, 0, 64, 94
1, 112569, Control_c, 0, 64, 91
1, 112571, Note_on_c, 0, 92, 49
1, 112572, Note_on_c, 0, 32, 42
1, 112584, Control_c, 0, 64, 87
1, 112599, Control_c, 0, 64, 83
1, 112614, Control_c, 0, 64, 79
1, 112629, Control_c, 0, 64, 76
1, 112643, Control_c, 0, 64, 72
1, 112658, Control_c, 0, 64, 66
1, 112673, Control_c, 0, 64, 58
1, 112688, Note_off_c, 0, 87, 37
1, 112688, Control_c, 0, 64, 45
1, 112703, Control_c, 0, 64, 38
1, 112732, Control_c, 0, 64, 38
1, 112739, Note_off_c, 0, 35, 34
1, 112747, Control_c, 0, 64, 34
1, 112761, Control_c, 0, 64, 32
1, 112776, Control_c, 0, 64, 33
1, 112791, Control_c, 0, 64, 36
1, 112806, Control_c, 0, 64, 37
1, 112821, Control_c, 0, 64, 38
1, 112836, Control_c, 0, 64, 39
1, 112850, Control_c, 0, 64, 39
1, 112865, Control_c, 0, 64, 41
1, 112880, Control_c, 0, 64, 43
1, 112895, Control_c, 0, 64, 44
1, 112910, Control_c, 0, 64, 45
1, 112924, Control_c, 0, 64, 46
1, 112939, Control_c, 0, 64, 48
1, 112954, Control_c, 0, 64, 50
1, 112968, Control_c, 0, 64, 51
1, 112985, Control_c, 0, 64, 51
1, 113000, Control_c, 0, 64, 52
1, 113014, Control_c, 0, 64, 53
1, 113029, Control_c, 0, 64, 54
1, 113044, Control_c, 0, 64, 55
1, 113058, Control_c, 0, 64, 55
1, 113073, Control_c, 0, 64, 56
1, 113088, Control_c, 0, 64, 57
1, 113103, Control_c, 0, 64, 58
1, 113118, Control_c, 0, 64, 60
1, 113132, Control_c, 0, 64, 61
1, 113192, Control_c, 0, 64, 61
1, 113222, Control_c, 0, 64, 62
1, 113237, Control_c, 0, 64, 62
1, 113303, Control_c, 0, 64, 63
1, 113318, Control_c, 0, 64, 63
1, 113333, Control_c, 0, 64, 64
1, 113362, Control_c, 0, 64, 64
1, 113377, Control_c, 0, 64, 65
1, 113392, Control_c, 0, 64, 66
1, 113407, Control_c, 0, 64, 67
1, 113422, Control_c, 0, 64, 68
1, 113436, Control_c, 0, 64, 68
1, 113451, Control_c, 0, 64, 69
1, 113466, Control_c, 0, 64, 69
1, 113481, Control_c, 0, 64, 70
1, 113496, Control_c, 0, 64, 72
1, 113511, Control_c, 0, 64, 73
1, 113526, Control_c, 0, 64, 74
1, 113555, Control_c, 0, 64, 75
1, 113570, Control_c, 0, 64, 76
1, 113585, Control_c, 0, 64, 78
1, 113600, Control_c, 0, 64, 81
1, 113615, Control_c, 0, 64, 84
1, 113630, Control_c, 0, 64, 87
1, 113645, Control_c, 0, 64, 88
1, 113659, Control_c, 0, 64, 90
1, 113674, Control_c, 0, 64, 92
1, 113689, Control_c, 0, 64, 95
1, 113704, Control_c, 0, 64, 97
1, 113719, Control_c, 0, 64, 99
1, 113733, Control_c, 0, 64, 101
1, 113746, Note_off_c, 0, 92, 62
1, 113748, Control_c, 0, 64, 103
1, 113763, Control_c, 0, 64, 104
1, 113778, Control_c, 0, 64, 105
1, 113794, Control_c, 0, 64, 105
1, 113808, Control_c, 0, 64, 106
1, 113838, Control_c, 0, 64, 106
1, 113868, Control_c, 0, 67, 9
1, 113869, Note_off_c, 0, 32, 40
1, 113882, Control_c, 0, 67, 13
1, 113897, Control_c, 0, 67, 17
1, 113912, Control_c, 0, 64, 107
1, 113912, Control_c, 0, 67, 19
1, 113927, Control_c, 0, 67, 20
1, 113971, Control_c, 0, 64, 107
1, 113986, Control_c, 0, 67, 19
1, 114001, Control_c, 0, 64, 108
1, 114001, Control_c, 0, 67, 19
1, 114023, Control_c, 0, 67, 18
1, 114038, Control_c, 0, 64, 108
1, 114038, Control_c, 0, 67, 18
1, 114053, Control_c, 0, 64, 109
1, 114097, Control_c, 0, 64, 109
1, 114112, Control_c, 0, 67, 18
1, 114127, Control_c, 0, 67, 19
1, 114142, Control_c, 0, 67, 19
1, 114157, Control_c, 0, 67, 20
1, 114171, Control_c, 0, 67, 21
1, 114186, Control_c, 0, 67, 21
1, 114201, Control_c, 0, 67, 23
1, 114215, Control_c, 0, 67, 28
1, 114230, Control_c, 0, 67, 35
1, 114245, Control_c, 0, 67, 44
1, 114260, Control_c, 0, 67, 53
1, 114275, Control_c, 0, 67, 60
1, 114289, Control_c, 0, 67, 67
1, 114304, Control_c, 0, 67, 74
1, 114319, Control_c, 0, 67, 82
1, 114334, Control_c, 0, 67, 93
1, 114349, Control_c, 0, 67, 101
1, 114363, Control_c, 0, 67, 109
1, 114378, Control_c, 0, 67, 116
1, 114393, Control_c, 0, 67, 124
1, 114407, Control_c, 0, 67, 127
1, 114772, Note_on_c, 0, 59, 38
1, 114783, Note_on_c, 0, 47, 35
1, 115153, Note_on_c, 0, 56, 39
1, 115156, Control_c, 0, 64, 109
1, 115168, Note_on_c, 0, 44, 20
1, 115171, Control_c, 0, 64, 108
1, 115186, Control_c, 0, 64, 107
1, 115201, Control_c, 0, 64, 105
1, 115216, Control_c, 0, 64, 101
1, 115230, Control_c, 0, 64, 97
1, 115245, Control_c, 0, 64, 92
1, 115260, Control_c, 0, 64, 87
1, 115275, Control_c, 0, 64, 82
1, 115279, Note_on_c, 0, 51, 39
1, 115290, Control_c, 0, 64, 77
1, 115300, Note_on_c, 0, 39, 37
1, 115304, Control_c, 0, 64, 72
1, 115319, Control_c, 0, 64, 66
1, 115334, Note_off_c, 0, 56, 38
1, 115334, Control_c, 0, 64, 63
1, 115349, Control_c, 0, 64, 61
1, 115363, Control_c, 0, 64, 59
1, 115379, Control_c, 0, 64, 56
1, 115394, Control_c, 0, 64, 53
1, 115409, Control_c, 0, 64, 49
1, 115424, Control_c, 0, 64, 46
1, 115439, Control_c, 0, 64, 44
1, 115447, Note_off_c, 0, 47, 44
1, 115453, Control_c, 0, 64, 43
1, 115468, Control_c, 0, 64, 40
1, 115483, Control_c, 0, 64, 36
1, 115493, Note_off_c, 0, 44, 37
1, 115498, Control_c, 0, 64, 35
1, 115535, Control_c, 0, 64, 36
1, 115540, Note_off_c, 0, 59, 17
1, 115594, Control_c, 0, 64, 37
1, 115609, Control_c, 0, 64, 38
1, 115624, Control_c, 0, 64, 41
1, 115639, Control_c, 0, 64, 44
1, 115654, Control_c, 0, 64, 46
1, 115683, Control_c, 0, 64, 47
1, 115698, Control_c, 0, 64, 49
1, 115713, Control_c, 0, 64, 52
1, 115728, Control_c, 0, 64, 55
1, 115742, Control_c, 0, 64, 56
1, 115757, Control_c, 0, 64, 58
1, 115772, Control_c, 0, 64, 58
1, 115786, Control_c, 0, 64, 59
1, 115801, Control_c, 0, 64, 59
1, 115816, Control_c, 0, 64, 60
1, 115831, Control_c, 0, 64, 61
1, 115846, Control_c, 0, 64, 61
1, 115860, Control_c, 0, 64, 62
1, 115875, Control_c, 0, 64, 62
1, 115890, Control_c, 0, 64, 63
1, 115905, Control_c, 0, 64, 63
1, 115920, Control_c, 0, 64, 64
1, 115934, Control_c, 0, 64, 65
1, 115949, Control_c, 0, 64, 66
1, 115964, Control_c, 0, 64, 67
1, 115979, Control_c, 0, 64, 67
1, 115994, Control_c, 0, 64, 68
1, 116009, Control_c, 0, 64, 69
1, 116024, Control_c, 0, 64, 70
1, 116039, Control_c, 0, 64, 71
1, 116053, Control_c, 0, 64, 72
1, 116068, Control_c, 0, 64, 74
1, 116083, Control_c, 0, 64, 75
1, 116098, Control_c, 0, 64, 76
1, 116113, Control_c, 0, 64, 77
1, 116127, Control_c, 0, 64, 79
1, 116142, Control_c, 0, 64, 81
1, 116157, Control_c, 0, 64, 83
1, 116172, Control_c, 0, 64, 84
1, 116188, Control_c, 0, 64, 86
1, 116202, Control_c, 0, 64, 87
1, 116217, Control_c, 0, 64, 88
1, 116232, Control_c, 0, 64, 89
1, 116247, Control_c, 0, 64, 90
1, 116269, Control_c, 0, 64, 90
1, 116280, Note_off_c, 0, 51, 32
1, 116283, Control_c, 0, 64, 91
1, 116298, Control_c, 0, 64, 92
1, 116313, Control_c, 0, 64, 92
1, 116343, Control_c, 0, 64, 93
1, 116373, Control_c, 0, 64, 93
1, 116417, Control_c, 0, 64, 94
1, 116447, Control_c, 0, 64, 94
1, 116506, Control_c, 0, 64, 95
1, 116742, Control_c, 0, 64, 95
1, 116889, Note_on_c, 0, 59, 32
1, 116907, Note_on_c, 0, 47, 31
1, 116982, Note_off_c, 0, 39, 38
1, 117340, Note_on_c, 0, 56, 36
1, 117351, Note_on_c, 0, 44, 29
1, 117478, Control_c, 0, 64, 95
1, 117493, Control_c, 0, 64, 94
1, 117507, Control_c, 0, 64, 94
1, 117522, Control_c, 0, 64, 92
1, 117537, Control_c, 0, 64, 90
1, 117552, Control_c, 0, 64, 88
1, 117566, Control_c, 0, 64, 85
1, 117579, Note_on_c, 0, 40, 37
1, 117581, Note_on_c, 0, 52, 41
1, 117581, Control_c, 0, 64, 80
1, 117596, Control_c, 0, 64, 76
1, 117611, Control_c, 0, 64, 70
1, 117625, Control_c, 0, 64, 65
1, 117640, Control_c, 0, 64, 61
1, 117655, Control_c, 0, 64, 58
1, 117656, Note_off_c, 0, 59, 39
1, 117657, Note_off_c, 0, 56, 36
1, 117670, Control_c, 0, 64, 57
1, 117674, Note_off_c, 0, 44, 40
1, 117700, Control_c, 0, 64, 56
1, 117712, Note_off_c, 0, 47, 45
1, 117714, Control_c, 0, 64, 55
1, 117729, Control_c, 0, 64, 54
1, 117782, Control_c, 0, 64, 54
1, 117797, Control_c, 0, 64, 53
1, 117812, Control_c, 0, 64, 52
1, 117827, Control_c, 0, 64, 51
1, 117871, Control_c, 0, 64, 51
1, 117901, Control_c, 0, 64, 52
1, 117930, Control_c, 0, 64, 53
1, 117945, Control_c, 0, 64, 54
1, 117960, Control_c, 0, 64, 55
1, 117975, Control_c, 0, 64, 56
1, 117989, Control_c, 0, 64, 57
1, 118004, Control_c, 0, 64, 57
1, 118019, Control_c, 0, 64, 58
1, 118034, Control_c, 0, 64, 59
1, 118049, Control_c, 0, 64, 60
1, 118063, Control_c, 0, 64, 61
1, 118078, Control_c, 0, 64, 61
1, 118093, Control_c, 0, 64, 62
1, 118108, Control_c, 0, 64, 62
1, 118137, Control_c, 0, 64, 63
1, 118152, Control_c, 0, 64, 64
1, 118167, Control_c, 0, 64, 65
1, 118182, Control_c, 0, 64, 66
1, 118197, Control_c, 0, 64, 67
1, 118212, Control_c, 0, 64, 67
1, 118227, Control_c, 0, 64, 68
1, 118242, Control_c, 0, 64, 69
1, 118256, Control_c, 0, 64, 70
1, 118271, Control_c, 0, 64, 70
1, 118286, Control_c, 0, 64, 72
1, 118301, Control_c, 0, 64, 73
1, 118316, Control_c, 0, 64, 73
1, 118330, Control_c, 0, 64, 74
1, 118345, Control_c, 0, 64, 75
1, 118360, Control_c, 0, 64, 75
1, 118374, Control_c, 0, 64, 76
1, 118389, Control_c, 0, 64, 77
1, 118404, Control_c, 0, 64, 79
1, 118419, Control_c, 0, 64, 80
1, 118434, Control_c, 0, 64, 80
1, 118449, Control_c, 0, 64, 81
1, 118463, Control_c, 0, 64, 82
1, 118478, Control_c, 0, 64, 83
1, 118493, Control_c, 0, 64, 84
1, 118516, Control_c, 0, 64, 85
1, 118531, Control_c, 0, 64, 86
1, 118545, Control_c, 0, 64, 87
1, 118560, Control_c, 0, 64, 88
1, 118575, Control_c, 0, 64, 89
1, 118605, Control_c, 0, 64, 89
1, 118620, Control_c, 0, 64, 90
1, 118635, Control_c, 0, 64, 90
1, 118650, Control_c, 0, 64, 91
1, 118679, Control_c, 0, 64, 91
1, 118694, Control_c, 0, 64, 92
1, 118724, Control_c, 0, 64, 92
1, 118753, Control_c, 0, 64, 93
1, 118768, Control_c, 0, 64, 93
1, 118798, Control_c, 0, 64, 94
1, 118826, Control_c, 0, 64, 94
1, 118886, Control_c, 0, 64, 95
1, 118921, Note_on_c, 0, 56, 41
1, 118926, Note_on_c, 0, 44, 30
1, 118990, Control_c, 0, 64, 95
1, 119078, Control_c, 0, 64, 96
1, 119137, Control_c, 0, 64, 96
1, 119214, Note_off_c, 0, 52, 58
1, 119220, Note_on_c, 0, 59, 45
1, 119234, Note_on_c, 0, 47, 46
1, 119340, Note_on_c, 0, 64, 61
1, 119345, Note_off_c, 0, 40, 41
1, 119347, Note_off_c, 0, 59, 57
1, 119351, Note_on_c, 0, 52, 46
1, 119364, Note_off_c, 0, 56, 40
1, 119394, Note_off_c, 0, 44, 40
1, 119413, Note_off_c, 0, 47, 36
1, 119768, Note_on_c, 0, 68, 58
1, 119781, Note_on_c, 0, 56, 44
1, 119807, Note_off_c, 0, 52, 65
1, 120048, Note_off_c, 0, 64, 39
1, 120107, Note_on_c, 0, 71, 52
1, 120117, Note_on_c, 0, 59, 40
1, 120191, Control_c, 0, 64, 96
1, 120206, Control_c, 0, 64, 94
1, 120221, Control_c, 0, 64, 91
1, 120236, Control_c, 0, 64, 88
1, 120248, Note_on_c, 0, 76, 65
1, 120251, Control_c, 0, 64, 84
1, 120259, Note_on_c, 0, 64, 45
1, 120265, Control_c, 0, 64, 79
1, 120280, Control_c, 0, 64, 73
1, 120295, Control_c, 0, 64, 65
1, 120301, Note_off_c, 0, 68, 63
1, 120310, Control_c, 0, 64, 55
1, 120325, Control_c, 0, 64, 49
1, 120334, Note_off_c, 0, 71, 56
1, 120336, Note_off_c, 0, 59, 41
1, 120340, Control_c, 0, 64, 53
1, 120347, Note_off_c, 0, 56, 43
1, 120355, Control_c, 0, 64, 59
1, 120370, Control_c, 0, 64, 63
1, 120384, Control_c, 0, 64, 66
1, 120399, Control_c, 0, 64, 69
1, 120414, Control_c, 0, 64, 73
1, 120429, Control_c, 0, 64, 76
1, 120444, Control_c, 0, 64, 78
1, 120458, Control_c, 0, 64, 80
1, 120473, Control_c, 0, 64, 81
1, 120488, Control_c, 0, 64, 82
1, 120503, Control_c, 0, 64, 83
1, 120516, Note_off_c, 0, 64, 57
1, 120518, Control_c, 0, 64, 83
1, 120532, Control_c, 0, 64, 84
1, 120547, Control_c, 0, 64, 84
1, 120576, Control_c, 0, 64, 85
1, 120591, Control_c, 0, 64, 86
1, 120606, Control_c, 0, 64, 86
1, 120621, Control_c, 0, 64, 87
1, 120636, Control_c, 0, 64, 87
1, 120735, Note_off_c, 0, 76, 41
1, 120738, Note_on_c, 0, 64, 50
1, 120762, Note_on_c, 0, 52, 34
1, 120776, Control_c, 0, 64, 88
1, 120818, Note_off_c, 0, 64, 60
1, 120865, Control_c, 0, 64, 88
1, 120880, Note_off_c, 0, 52, 36
1, 120895, Control_c, 0, 64, 89
1, 120924, Control_c, 0, 64, 89
1, 120954, Control_c, 0, 64, 90
1, 121326, Control_c, 0, 64, 89
1, 121341, Control_c, 0, 64, 87
1, 121355, Control_c, 0, 64, 84
1, 121370, Note_on_c, 0, 71, 52
1, 121370, Control_c, 0, 64, 80
1, 121371, Note_on_c, 0, 59, 36
1, 121384, Note_on_c, 0, 54, 35
1, 121385, Control_c, 0, 64, 75
1, 121398, Note_on_c, 0, 51, 26
1, 121399, Control_c, 0, 64, 68
1, 121414, Control_c, 0, 64, 56
1, 121427, Note_off_c, 0, 59, 0
1, 121427, Note_on_c, 0, 59, 3
1, 121429, Control_c, 0, 64, 41
1, 121444, Control_c, 0, 64, 38
1, 121459, Control_c, 0, 64, 36
1, 121473, Control_c, 0, 64, 21
1, 121488, Control_c, 0, 64, 0
1, 121718, Control_c, 0, 64, 39
1, 121732, Control_c, 0, 64, 53
1, 121747, Control_c, 0, 64, 59
1, 121762, Control_c, 0, 64, 63
1, 121778, Control_c, 0, 64, 65
1, 121793, Control_c, 0, 64, 68
1, 121808, Control_c, 0, 64, 71
1, 121822, Control_c, 0, 64, 75
1, 121837, Control_c, 0, 64, 78
1, 121852, Control_c, 0, 64, 81
1, 121867, Control_c, 0, 64, 82
1, 121882, Control_c, 0, 64, 84
1, 121896, Control_c, 0, 64, 85
1, 121911, Control_c, 0, 64, 87
1, 121926, Control_c, 0, 64, 88
1, 121941, Control_c, 0, 64, 88
1, 121956, Control_c, 0, 64, 89
1, 121971, Control_c, 0, 64, 90
1, 121975, Note_off_c, 0, 59, 48
1, 121986, Control_c, 0, 64, 90
1, 122001, Control_c, 0, 64, 91
1, 122015, Control_c, 0, 64, 91
1, 122030, Control_c, 0, 64, 92
1, 122045, Note_off_c, 0, 51, 53
1, 122184, Note_off_c, 0, 54, 38
1, 122218, Note_on_c, 0, 73, 52
1, 122304, Note_off_c, 0, 71, 58
1, 122378, Control_c, 0, 64, 91
1, 122393, Control_c, 0, 64, 89
1, 122408, Control_c, 0, 64, 84
1, 122422, Control_c, 0, 64, 78
1, 122437, Control_c, 0, 64, 70
1, 122440, Note_on_c, 0, 55, 42
1, 122443, Note_on_c, 0, 52, 41
1, 122443, Note_on_c, 0, 58, 39
1, 122445, Note_off_c, 0, 73, 63
1, 122448, Note_on_c, 0, 71, 45
1, 122452, Control_c, 0, 64, 60
1, 122467, Control_c, 0, 64, 0
1, 122555, Control_c, 0, 64, 53
1, 122556, Note_off_c, 0, 71, 57
1, 122570, Control_c, 0, 64, 64
1, 122574, Note_on_c, 0, 73, 54
1, 122585, Control_c, 0, 64, 69
1, 122600, Control_c, 0, 64, 74
1, 122609, Note_off_c, 0, 73, 55
1, 122615, Control_c, 0, 64, 80
1, 122630, Control_c, 0, 64, 85
1, 122644, Control_c, 0, 64, 88
1, 122651, Note_on_c, 0, 75, 54
1, 122659, Control_c, 0, 64, 90
1, 122670, Note_off_c, 0, 75, 63
1, 122674, Control_c, 0, 64, 92
1, 122689, Control_c, 0, 64, 94
1, 122704, Control_c, 0, 64, 95
1, 122705, Note_on_c, 0, 73, 64
1, 122719, Control_c, 0, 64, 95
1, 122725, Note_off_c, 0, 73, 63
1, 122734, Control_c, 0, 64, 96
1, 122749, Control_c, 0, 64, 97
1, 122764, Control_c, 0, 64, 97
1, 122764, Note_on_c, 0, 75, 52
1, 122785, Note_off_c, 0, 75, 61
1, 122793, Control_c, 0, 64, 98
1, 122805, Note_on_c, 0, 73, 63
1, 122824, Note_off_c, 0, 73, 63
1, 122838, Control_c, 0, 64, 98
1, 122874, Note_on_c, 0, 75, 44
1, 122901, Note_on_c, 0, 73, 64
1, 122903, Note_off_c, 0, 75, 48
1, 122911, Control_c, 0, 64, 99
1, 122923, Note_off_c, 0, 73, 62
1, 122985, Control_c, 0, 64, 99
1, 123002, Note_on_c, 0, 75, 17
1, 123013, Note_on_c, 0, 73, 62
1, 123053, Note_off_c, 0, 75, 0
1, 123054, Note_off_c, 0, 73, 58
1, 123068, Note_on_c, 0, 75, 41
1, 123110, Note_off_c, 0, 75, 64
1, 123115, Note_off_c, 0, 52, 36
1, 123136, Note_on_c, 0, 73, 44
1, 123161, Note_off_c, 0, 55, 63
1, 123161, Note_off_c, 0, 73, 52
1, 123181, Note_on_c, 0, 75, 57
1, 123226, Note_off_c, 0, 75, 62
1, 123234, Note_on_c, 0, 73, 65
1, 123251, Note_off_c, 0, 58, 37
1, 123263, Note_off_c, 0, 73, 65
1, 123291, Note_on_c, 0, 71, 61
1, 123376, Note_off_c, 0, 71, 55
1, 123397, Note_on_c, 0, 75, 50
1, 123446, Note_off_c, 0, 75, 60
1, 123478, Note_on_c, 0, 73, 45
1, 123497, Control_c, 0, 64, 99
1, 123512, Control_c, 0, 64, 98
1, 123527, Control_c, 0, 64, 95
1, 123541, Control_c, 0, 64, 91
1, 123556, Control_c, 0, 64, 87
1, 123571, Control_c, 0, 64, 81
1, 123586, Control_c, 0, 64, 74
1, 123592, Note_off_c, 0, 73, 35
1, 123600, Control_c, 0, 64, 64
1, 123603, Note_on_c, 0, 71, 46
1, 123615, Note_on_c, 0, 59, 34
1, 123615, Control_c, 0, 64, 43
1, 123618, Note_on_c, 0, 51, 26
1, 123621, Note_on_c, 0, 54, 24
1, 123630, Control_c, 0, 64, 0
1, 123830, Control_c, 0, 64, 58
1, 123845, Control_c, 0, 64, 66
1, 123860, Control_c, 0, 64, 71
1, 123874, Control_c, 0, 64, 75
1, 123889, Control_c, 0, 64, 80
1, 123904, Control_c, 0, 64, 84
1, 123919, Control_c, 0, 64, 86
1, 123933, Control_c, 0, 64, 87
1, 123940, Note_off_c, 0, 59, 40
1, 123948, Control_c, 0, 64, 87
1, 123962, Note_off_c, 0, 71, 52
1, 123963, Control_c, 0, 64, 88
1, 123977, Note_off_c, 0, 51, 40
1, 124014, Note_off_c, 0, 54, 39
1, 124037, Control_c, 0, 64, 87
1, 124052, Control_c, 0, 64, 87
1, 124068, Control_c, 0, 64, 85
1, 124082, Control_c, 0, 64, 83
1, 124097, Control_c, 0, 64, 81
1, 124112, Control_c, 0, 64, 80
1, 124126, Control_c, 0, 64, 77
1, 124141, Control_c, 0, 64, 75
1, 124156, Control_c, 0, 64, 72
1, 124172, Control_c, 0, 64, 69
1, 124187, Control_c, 0, 64, 66
1, 124202, Control_c, 0, 64, 66
1, 124261, Control_c, 0, 64, 65
1, 124276, Control_c, 0, 64, 65
1, 124335, Control_c, 0, 64, 64
1, 124350, Control_c, 0, 64, 63
1, 124364, Control_c, 0, 64, 62
1, 124379, Control_c, 0, 64, 62
1, 124409, Control_c, 0, 64, 61
1, 124439, Control_c, 0, 64, 61
1, 124454, Control_c, 0, 64, 60
1, 124469, Control_c, 0, 64, 59
1, 124484, Control_c, 0, 64, 59
1, 124505, Control_c, 0, 64, 57
1, 124520, Control_c, 0, 64, 55
1, 124535, Control_c, 0, 64, 53
1, 124549, Control_c, 0, 64, 51
1, 124564, Control_c, 0, 64, 48
1, 124579, Control_c, 0, 64, 46
1, 124594, Control_c, 0, 64, 43
1, 124609, Control_c, 0, 64, 42
1, 124624, Control_c, 0, 64, 41
1, 124639, Control_c, 0, 64, 40
1, 124654, Control_c, 0, 64, 40
1, 125024, Control_c, 0, 64, 40
1, 125083, Control_c, 0, 64, 41
1, 125098, Control_c, 0, 64, 41
1, 125128, Control_c, 0, 64, 42
1, 125157, Control_c, 0, 64, 42
1, 125172, Control_c, 0, 64, 43
1, 125202, Control_c, 0, 64, 43
1, 125232, Control_c, 0, 64, 44
1, 125283, Control_c, 0, 64, 44
1, 125327, Control_c, 0, 64, 45
1, 125342, Control_c, 0, 64, 45
1, 125357, Control_c, 0, 64, 46
1, 125372, Control_c, 0, 64, 46
1, 125417, Control_c, 0, 64, 47
1, 125432, Control_c, 0, 64, 47
1, 125446, Control_c, 0, 64, 48
1, 125476, Control_c, 0, 64, 49
1, 125487, Note_on_c, 0, 78, 70
1, 125501, Note_on_c, 0, 73, 46
1, 125506, Control_c, 0, 64, 49
1, 125513, Note_on_c, 0, 69, 36
1, 125609, Control_c, 0, 64, 50
1, 125624, Control_c, 0, 64, 51
1, 125638, Control_c, 0, 64, 53
1, 125653, Control_c, 0, 64, 54
1, 125668, Control_c, 0, 64, 55
1, 125683, Control_c, 0, 64, 57
1, 125697, Control_c, 0, 64, 58
1, 125712, Control_c, 0, 64, 59
1, 125727, Control_c, 0, 64, 61
1, 125742, Control_c, 0, 64, 63
1, 125757, Control_c, 0, 64, 64
1, 125773, Control_c, 0, 64, 66
1, 125787, Control_c, 0, 64, 67
1, 125802, Control_c, 0, 64, 70
1, 125817, Control_c, 0, 64, 72
1, 125832, Control_c, 0, 64, 75
1, 125847, Control_c, 0, 64, 79
1, 125862, Control_c, 0, 64, 81
1, 125876, Control_c, 0, 64, 84
1, 125891, Control_c, 0, 64, 85
1, 125906, Control_c, 0, 64, 87
1, 125921, Control_c, 0, 64, 89
1, 125935, Control_c, 0, 64, 90
1, 125950, Control_c, 0, 64, 91
1, 125965, Control_c, 0, 64, 92
1, 125980, Control_c, 0, 64, 93
1, 126002, Control_c, 0, 64, 93
1, 126017, Control_c, 0, 64, 94
1, 126032, Control_c, 0, 64, 94
1, 126047, Control_c, 0, 64, 95
1, 126052, Note_off_c, 0, 69, 58
1, 126062, Control_c, 0, 64, 95
1, 126091, Control_c, 0, 64, 96
1, 126106, Control_c, 0, 64, 96
1, 126121, Control_c, 0, 64, 97
1, 126136, Control_c, 0, 64, 97
1, 126150, Control_c, 0, 64, 98
1, 126180, Control_c, 0, 64, 98
1, 126234, Note_off_c, 0, 73, 63
1, 126269, Control_c, 0, 64, 99
1, 126318, Note_on_c, 0, 80, 76
1, 126484, Note_off_c, 0, 78, 50
1, 126550, Control_c, 0, 64, 98
1, 126581, Control_c, 0, 64, 96
1, 126588, Note_on_c, 0, 81, 81
1, 126595, Note_on_c, 0, 74, 57
1, 126596, Control_c, 0, 64, 92
1, 126597, Note_on_c, 0, 77, 65
1, 126600, Note_on_c, 0, 71, 50
1, 126610, Control_c, 0, 64, 85
1, 126625, Control_c, 0, 64, 78
1, 126627, Note_off_c, 0, 80, 63
1, 126640, Control_c, 0, 64, 70
1, 126655, Control_c, 0, 64, 62
1, 126670, Control_c, 0, 64, 27
1, 126684, Control_c, 0, 64, 0
1, 126764, Note_on_c, 0, 80, 72
1, 126766, Control_c, 0, 64, 31
1, 126775, Note_off_c, 0, 81, 60
1, 126781, Control_c, 0, 64, 57
1, 126796, Control_c, 0, 64, 66
1, 126811, Control_c, 0, 64, 73
1, 126825, Control_c, 0, 64, 81
1, 126839, Note_off_c, 0, 80, 61
1, 126840, Control_c, 0, 64, 87
1, 126853, Note_on_c, 0, 81, 76
1, 126855, Control_c, 0, 64, 89
1, 126870, Control_c, 0, 64, 92
1, 126885, Control_c, 0, 64, 94
1, 126899, Control_c, 0, 64, 95
1, 126906, Note_off_c, 0, 81, 61
1, 126914, Control_c, 0, 64, 96
1, 126929, Control_c, 0, 64, 97
1, 126937, Note_on_c, 0, 80, 68
1, 126943, Control_c, 0, 64, 97
1, 126958, Note_off_c, 0, 80, 64
1, 126958, Control_c, 0, 64, 98
1, 127003, Control_c, 0, 64, 98
1, 127005, Note_on_c, 0, 81, 54
1, 127025, Note_off_c, 0, 81, 60
1, 127050, Note_on_c, 0, 80, 63
1, 127068, Note_off_c, 0, 80, 65
1, 127093, Note_on_c, 0, 81, 76
1, 127134, Note_off_c, 0, 81, 54
1, 127149, Note_on_c, 0, 80, 65
1, 127180, Note_off_c, 0, 80, 63
1, 127191, Note_on_c, 0, 81, 65
1, 127235, Note_off_c, 0, 81, 59
1, 127253, Note_on_c, 0, 80, 66
1, 127270, Note_off_c, 0, 80, 67
1, 127297, Note_on_c, 0, 81, 66
1, 127320, Note_off_c, 0, 77, 36
1, 127337, Note_off_c, 0, 71, 58
1, 127345, Note_on_c, 0, 80, 68
1, 127356, Note_off_c, 0, 74, 62
1, 127361, Note_off_c, 0, 81, 59
1, 127377, Note_off_c, 0, 80, 63
1, 127414, Note_on_c, 0, 78, 64
1, 127465, Note_off_c, 0, 78, 51
1, 127509, Note_on_c, 0, 81, 54
1, 127587, Note_off_c, 0, 81, 59
1, 127611, Note_on_c, 0, 80, 52
1, 127620, Control_c, 0, 64, 98
1, 127634, Control_c, 0, 64, 97
1, 127649, Control_c, 0, 64, 95
1, 127664, Control_c, 0, 64, 93
1, 127679, Control_c, 0, 64, 89
1, 127694, Control_c, 0, 64, 85
1, 127709, Control_c, 0, 64, 80
1, 127723, Control_c, 0, 64, 74
1, 127726, Note_off_c, 0, 80, 52
1, 127738, Control_c, 0, 64, 67
1, 127751, Note_on_c, 0, 78, 49
1, 127753, Control_c, 0, 64, 56
1, 127760, Note_on_c, 0, 69, 35
1, 127760, Note_on_c, 0, 73, 26
1, 127767, Control_c, 0, 64, 22
1, 127782, Control_c, 0, 64, 0
1, 127989, Control_c, 0, 64, 44
1, 128004, Control_c, 0, 64, 61
1, 128019, Control_c, 0, 64, 64
1, 128034, Control_c, 0, 64, 67
1, 128049, Control_c, 0, 64, 69
1, 128064, Control_c, 0, 64, 73
1, 128079, Control_c, 0, 64, 75
1, 128093, Control_c, 0, 64, 78
1, 128108, Control_c, 0, 64, 79
1, 128123, Control_c, 0, 64, 80
1, 128130, Note_off_c, 0, 69, 35
1, 128138, Control_c, 0, 64, 81
1, 128145, Note_off_c, 0, 78, 51
1, 128153, Control_c, 0, 64, 81
1, 128183, Control_c, 0, 64, 82
1, 128209, Note_off_c, 0, 73, 41
1, 128228, Control_c, 0, 64, 81
1, 128250, Control_c, 0, 64, 81
1, 128264, Control_c, 0, 64, 80
1, 128279, Control_c, 0, 64, 79
1, 128294, Control_c, 0, 64, 76
1, 128309, Control_c, 0, 64, 73
1, 128324, Control_c, 0, 64, 70
1, 128338, Control_c, 0, 64, 67
1, 128353, Control_c, 0, 64, 65
1, 128412, Control_c, 0, 64, 65
1, 128427, Control_c, 0, 64, 64
1, 128487, Control_c, 0, 64, 64
1, 128502, Control_c, 0, 64, 63
1, 128516, Control_c, 0, 64, 63
1, 128531, Control_c, 0, 64, 61
1, 128546, Control_c, 0, 64, 61
1, 128590, Control_c, 0, 64, 60
1, 128605, Control_c, 0, 64, 60
1, 128620, Control_c, 0, 64, 59
1, 128635, Control_c, 0, 64, 59
1, 128650, Control_c, 0, 64, 58
1, 128664, Control_c, 0, 64, 58
1, 128679, Control_c, 0, 64, 57
1, 128709, Control_c, 0, 64, 57
1, 128723, Control_c, 0, 64, 56
1, 128738, Control_c, 0, 64, 56
1, 128753, Control_c, 0, 64, 55
1, 128768, Control_c, 0, 64, 54
1, 128797, Control_c, 0, 64, 54
1, 128827, Control_c, 0, 64, 53
1, 128842, Control_c, 0, 64, 53
1, 128857, Control_c, 0, 64, 52
1, 128872, Control_c, 0, 64, 52
1, 128886, Control_c, 0, 64, 51
1, 128901, Control_c, 0, 64, 51
1, 128916, Control_c, 0, 64, 50
1, 128946, Control_c, 0, 64, 50
1, 128999, Control_c, 0, 64, 49
1, 129206, Control_c, 0, 64, 49
1, 129220, Control_c, 0, 64, 48
1, 129427, Control_c, 0, 64, 49
1, 129472, Control_c, 0, 64, 49
1, 129545, Control_c, 0, 64, 50
1, 129575, Control_c, 0, 64, 50
1, 129605, Control_c, 0, 64, 51
1, 129650, Control_c, 0, 64, 51
1, 129664, Control_c, 0, 64, 52
1, 129745, Control_c, 0, 64, 52
1, 129771, Note_on_c, 0, 64, 65
1, 129784, Note_on_c, 0, 56, 41
1, 129786, Note_on_c, 0, 59, 42
1, 129806, Control_c, 0, 64, 53
1, 129835, Control_c, 0, 64, 53
1, 129850, Control_c, 0, 64, 54
1, 129865, Control_c, 0, 64, 55
1, 129880, Control_c, 0, 64, 56
1, 129895, Control_c, 0, 64, 57
1, 129909, Control_c, 0, 64, 58
1, 129924, Control_c, 0, 64, 59
1, 129939, Control_c, 0, 64, 59
1, 129954, Control_c, 0, 64, 60
1, 129969, Control_c, 0, 64, 60
1, 129998, Control_c, 0, 64, 61
1, 130013, Control_c, 0, 64, 61
1, 130028, Control_c, 0, 64, 62
1, 130043, Control_c, 0, 64, 62
1, 130058, Control_c, 0, 64, 63
1, 130073, Control_c, 0, 64, 64
1, 130088, Control_c, 0, 64, 66
1, 130103, Control_c, 0, 64, 69
1, 130118, Control_c, 0, 64, 73
1, 130132, Control_c, 0, 64, 77
1, 130147, Control_c, 0, 64, 81
1, 130162, Control_c, 0, 64, 84
1, 130177, Control_c, 0, 64, 86
1, 130192, Control_c, 0, 64, 88
1, 130207, Control_c, 0, 64, 89
1, 130222, Control_c, 0, 64, 90
1, 130236, Control_c, 0, 64, 91
1, 130266, Control_c, 0, 64, 91
1, 130412, Note_off_c, 0, 59, 50
1, 130556, Note_on_c, 0, 66, 72
1, 130792, Control_c, 0, 64, 89
1, 130807, Control_c, 0, 64, 85
1, 130808, Note_on_c, 0, 68, 74
1, 130818, Note_on_c, 0, 63, 61
1, 130822, Control_c, 0, 64, 77
1, 130827, Note_on_c, 0, 60, 59
1, 130833, Note_on_c, 0, 57, 52
1, 130837, Control_c, 0, 64, 66
1, 130848, Note_off_c, 0, 66, 66
1, 130852, Control_c, 0, 64, 40
1, 130853, Note_off_c, 0, 64, 54
1, 130866, Control_c, 0, 64, 0
1, 130867, Note_off_c, 0, 56, 42
1, 130964, Note_off_c, 0, 68, 64
1, 130973, Note_on_c, 0, 66, 71
1, 130985, Control_c, 0, 64, 50
1, 131000, Control_c, 0, 64, 67
1, 131015, Control_c, 0, 64, 74
1, 131025, Note_off_c, 0, 66, 64
1, 131030, Control_c, 0, 64, 82
1, 131045, Control_c, 0, 64, 88
1, 131057, Note_on_c, 0, 68, 65
1, 131059, Control_c, 0, 64, 91
1, 131074, Control_c, 0, 64, 92
1, 131078, Note_off_c, 0, 68, 65
1, 131089, Control_c, 0, 64, 94
1, 131103, Control_c, 0, 64, 95
1, 131114, Note_on_c, 0, 66, 65
1, 131118, Control_c, 0, 64, 97
1, 131133, Control_c, 0, 64, 98
1, 131134, Note_off_c, 0, 66, 66
1, 131148, Control_c, 0, 64, 99
1, 131163, Control_c, 0, 64, 100
1, 131164, Note_on_c, 0, 68, 62
1, 131177, Control_c, 0, 64, 101
1, 131192, Control_c, 0, 64, 101
1, 131197, Note_off_c, 0, 68, 66
1, 131213, Note_on_c, 0, 66, 70
1, 131222, Control_c, 0, 64, 102
1, 131249, Note_off_c, 0, 66, 67
1, 131274, Control_c, 0, 64, 102
1, 131284, Note_on_c, 0, 68, 58
1, 131310, Note_off_c, 0, 68, 64
1, 131320, Note_on_c, 0, 66, 70
1, 131344, Note_off_c, 0, 66, 68
1, 131378, Control_c, 0, 64, 103
1, 131383, Note_on_c, 0, 68, 73
1, 131413, Note_off_c, 0, 68, 66
1, 131437, Note_on_c, 0, 66, 58
1, 131455, Note_off_c, 0, 66, 64
1, 131468, Control_c, 0, 64, 103
1, 131469, Note_on_c, 0, 68, 75
1, 131480, Note_off_c, 0, 60, 58
1, 131516, Note_on_c, 0, 66, 85
1, 131516, Note_off_c, 0, 57, 52
1, 131521, Note_off_c, 0, 63, 60
1, 131527, Note_off_c, 0, 68, 61
1, 131541, Control_c, 0, 64, 104
1, 131560, Note_off_c, 0, 66, 66
1, 131575, Note_on_c, 0, 64, 71
1, 131637, Note_on_c, 0, 68, 71
1, 131642, Note_off_c, 0, 64, 61
1, 131645, Control_c, 0, 64, 103
1, 131660, Control_c, 0, 64, 102
1, 131675, Control_c, 0, 64, 97
1, 131689, Control_c, 0, 64, 87
1, 131690, Note_off_c, 0, 68, 63
1, 131700, Note_on_c, 0, 66, 76
1, 131704, Control_c, 0, 64, 73
1, 131719, Control_c, 0, 64, 34
1, 131733, Control_c, 0, 64, 0
1, 131748, Note_off_c, 0, 66, 64
1, 131754, Note_on_c, 0, 59, 53
1, 131763, Note_on_c, 0, 56, 53
1, 131769, Note_on_c, 0, 64, 82
1, 131912, Control_c, 0, 64, 69
1, 131926, Control_c, 0, 64, 83
1, 131941, Control_c, 0, 64, 95
1, 131956, Control_c, 0, 64, 101
1, 131971, Control_c, 0, 64, 107
1, 131991, Note_off_c, 0, 59, 62
1, 131993, Control_c, 0, 64, 118
1, 131998, Note_off_c, 0, 64, 64
1, 132007, Control_c, 0, 64, 127
1, 132034, Note_off_c, 0, 56, 64
1, 132335, Control_c, 0, 64, 125
1, 132350, Control_c, 0, 64, 104
1, 132350, Note_on_c, 0, 69, 84
1, 132351, Note_on_c, 0, 42, 54
1, 132356, Note_on_c, 0, 61, 68
1, 132364, Note_on_c, 0, 57, 62
1, 132364, Control_c, 0, 64, 89
1, 132379, Control_c, 0, 64, 77
1, 132394, Control_c, 0, 64, 67
1, 132409, Control_c, 0, 64, 51
1, 132424, Control_c, 0, 64, 19
1, 132438, Control_c, 0, 64, 0
1, 132660, Control_c, 0, 64, 55
1, 132675, Control_c, 0, 64, 65
1, 132690, Control_c, 0, 64, 70
1, 132705, Control_c, 0, 64, 74
1, 132720, Control_c, 0, 64, 78
1, 132742, Control_c, 0, 64, 81
1, 132756, Control_c, 0, 64, 84
1, 132771, Control_c, 0, 64, 87
1, 132786, Control_c, 0, 64, 88
1, 132801, Control_c, 0, 64, 90
1, 132816, Control_c, 0, 64, 92
1, 132830, Control_c, 0, 64, 93
1, 132845, Control_c, 0, 64, 94
1, 132860, Control_c, 0, 64, 95
1, 132875, Control_c, 0, 64, 96
1, 132890, Control_c, 0, 64, 96
1, 132907, Note_off_c, 0, 57, 52
1, 132930, Note_off_c, 0, 61, 62
1, 132965, Control_c, 0, 64, 97
1, 133334, Control_c, 0, 64, 96
1, 133343, Note_on_c, 0, 66, 64
1, 133349, Control_c, 0, 64, 92
1, 133353, Note_on_c, 0, 61, 51
1, 133355, Note_on_c, 0, 45, 48
1, 133358, Note_on_c, 0, 57, 46
1, 133364, Control_c, 0, 64, 85
1, 133377, Note_off_c, 0, 69, 59
1, 133379, Control_c, 0, 64, 75
1, 133380, Note_off_c, 0, 42, 54
1, 133394, Control_c, 0, 64, 64
1, 133408, Control_c, 0, 64, 27
1, 133423, Control_c, 0, 64, 0
1, 133438, Control_c, 0, 64, 38
1, 133453, Control_c, 0, 64, 58
1, 133468, Control_c, 0, 64, 66
1, 133490, Control_c, 0, 64, 71
1, 133504, Control_c, 0, 64, 77
1, 133519, Control_c, 0, 64, 82
1, 133534, Control_c, 0, 64, 85
1, 133549, Control_c, 0, 64, 86
1, 133555, Note_off_c, 0, 61, 61
1, 133564, Control_c, 0, 64, 87
1, 133578, Control_c, 0, 64, 88
1, 133593, Control_c, 0, 64, 89
1, 133608, Control_c, 0, 64, 90
1, 133612, Note_off_c, 0, 57, 52
1, 133623, Control_c, 0, 64, 90
1, 133653, Control_c, 0, 64, 91
1, 133683, Control_c, 0, 64, 91
1, 133715, Note_off_c, 0, 66, 53
1, 133723, Note_on_c, 0, 68, 58
1, 133847, Control_c, 0, 64, 90
1, 133862, Control_c, 0, 64, 87
1, 133876, Control_c, 0, 64, 82
1, 133891, Control_c, 0, 64, 75
1, 133897, Note_on_c, 0, 64, 58
1, 133906, Note_on_c, 0, 56, 43
1, 133906, Control_c, 0, 64, 66
1, 133911, Note_on_c, 0, 47, 35
1, 133918, Note_on_c, 0, 59, 42
1, 133921, Control_c, 0, 64, 48
1, 133924, Note_off_c, 0, 45, 45
1, 133936, Control_c, 0, 64, 10
1, 133947, Note_off_c, 0, 68, 33
1, 133951, Control_c, 0, 64, 0
1, 134202, Control_c, 0, 64, 50
1, 134217, Control_c, 0, 64, 64
1, 134240, Control_c, 0, 64, 68
1, 134255, Control_c, 0, 64, 71
1, 134270, Control_c, 0, 64, 75
1, 134284, Control_c, 0, 64, 79
1, 134299, Control_c, 0, 64, 82
1, 134314, Control_c, 0, 64, 84
1, 134322, Note_off_c, 0, 59, 61
1, 134329, Control_c, 0, 64, 85
1, 134343, Control_c, 0, 64, 86
1, 134358, Control_c, 0, 64, 88
1, 134373, Control_c, 0, 64, 89
1, 134388, Control_c, 0, 64, 91
1, 134401, Note_off_c, 0, 56, 41
1, 134403, Control_c, 0, 64, 91
1, 134417, Control_c, 0, 64, 92
1, 134425, Note_off_c, 0, 64, 62
1, 134432, Control_c, 0, 64, 92
1, 134461, Control_c, 0, 64, 93
1, 134804, Control_c, 0, 64, 92
1, 134818, Control_c, 0, 64, 90
1, 134833, Control_c, 0, 64, 87
1, 134848, Control_c, 0, 64, 82
1, 134852, Note_on_c, 0, 63, 47
1, 134860, Note_on_c, 0, 57, 39
1, 134863, Control_c, 0, 64, 76
1, 134875, Note_on_c, 0, 54, 33
1, 134877, Control_c, 0, 64, 68
1, 134884, Note_on_c, 0, 35, 22
1, 134892, Control_c, 0, 64, 52
1, 134907, Control_c, 0, 64, 32
1, 134922, Control_c, 0, 64, 27
1, 134937, Control_c, 0, 64, 22
1, 134951, Control_c, 0, 64, 0
1, 135122, Control_c, 0, 64, 51
1, 135137, Control_c, 0, 64, 61
1, 135152, Control_c, 0, 64, 64
1, 135166, Control_c, 0, 64, 68
1, 135181, Control_c, 0, 64, 72
1, 135196, Control_c, 0, 64, 78
1, 135205, Note_off_c, 0, 35, 53
1, 135211, Control_c, 0, 64, 83
1, 135226, Control_c, 0, 64, 86
1, 135240, Control_c, 0, 64, 88
1, 135255, Control_c, 0, 64, 90
1, 135270, Control_c, 0, 64, 92
1, 135283, Note_off_c, 0, 47, 42
1, 135284, Control_c, 0, 64, 95
1, 135295, Note_off_c, 0, 54, 54
1, 135298, Control_c, 0, 64, 98
1, 135307, Note_off_c, 0, 57, 57
1, 135313, Control_c, 0, 64, 99
1, 135328, Control_c, 0, 64, 100
1, 135343, Control_c, 0, 64, 101
1, 135410, Note_off_c, 0, 63, 63
1, 135654, Control_c, 0, 64, 100
1, 135684, Control_c, 0, 64, 100
1, 135713, Control_c, 0, 64, 99
1, 135751, Control_c, 0, 64, 99
1, 135766, Control_c, 0, 64, 98
1, 135795, Control_c, 0, 64, 97
1, 135810, Control_c, 0, 64, 97
1, 135825, Control_c, 0, 64, 96
1, 135840, Control_c, 0, 64, 95
1, 135854, Control_c, 0, 64, 94
1, 135869, Control_c, 0, 64, 91
1, 135884, Control_c, 0, 64, 89
1, 135898, Control_c, 0, 64, 86
1, 135913, Control_c, 0, 64, 84
1, 135928, Control_c, 0, 64, 81
1, 135943, Control_c, 0, 64, 79
1, 135958, Control_c, 0, 64, 75
1, 135972, Control_c, 0, 64, 70
1, 135987, Control_c, 0, 64, 66
1, 136002, Control_c, 0, 64, 63
1, 136017, Control_c, 0, 64, 63
1, 136032, Control_c, 0, 64, 63
1, 136047, Control_c, 0, 64, 63
1, 136091, Control_c, 0, 64, 62
1, 136151, Control_c, 0, 64, 62
1, 136165, Note_on_c, 0, 68, 37
1, 136166, Control_c, 0, 64, 61
1, 136170, Note_on_c, 0, 71, 43
1, 136170, Note_on_c, 0, 76, 57
1, 136181, Control_c, 0, 64, 60
1, 136196, Control_c, 0, 64, 59
1, 136211, Control_c, 0, 64, 58
1, 136225, Control_c, 0, 64, 58
1, 136240, Control_c, 0, 64, 57
1, 136255, Control_c, 0, 64, 56
1, 136270, Control_c, 0, 64, 55
1, 136285, Control_c, 0, 64, 54
1, 136344, Control_c, 0, 64, 55
1, 136359, Control_c, 0, 64, 55
1, 136403, Control_c, 0, 64, 56
1, 136418, Control_c, 0, 64, 56
1, 136433, Control_c, 0, 64, 58
1, 136448, Control_c, 0, 64, 59
1, 136463, Control_c, 0, 64, 60
1, 136485, Control_c, 0, 64, 61
1, 136500, Control_c, 0, 64, 62
1, 136515, Control_c, 0, 64, 63
1, 136529, Control_c, 0, 64, 64
1, 136544, Control_c, 0, 64, 64
1, 136559, Control_c, 0, 64, 65
1, 136574, Control_c, 0, 64, 66
1, 136589, Control_c, 0, 64, 67
1, 136603, Control_c, 0, 64, 69
1, 136618, Control_c, 0, 64, 71
1, 136633, Control_c, 0, 64, 72
1, 136647, Control_c, 0, 64, 74
1, 136662, Control_c, 0, 64, 76
1, 136677, Control_c, 0, 64, 78
1, 136692, Control_c, 0, 64, 80
1, 136707, Control_c, 0, 64, 82
1, 136721, Control_c, 0, 64, 84
1, 136736, Control_c, 0, 64, 85
1, 136751, Control_c, 0, 64, 87
1, 136766, Control_c, 0, 64, 90
1, 136768, Note_off_c, 0, 71, 54
1, 136781, Control_c, 0, 64, 93
1, 136796, Control_c, 0, 64, 95
1, 136811, Control_c, 0, 64, 98
1, 136826, Control_c, 0, 64, 99
1, 136841, Control_c, 0, 64, 101
1, 136855, Control_c, 0, 64, 102
1, 136870, Control_c, 0, 64, 103
1, 136885, Control_c, 0, 64, 103
1, 136900, Control_c, 0, 64, 104
1, 136915, Control_c, 0, 64, 104
1, 136929, Control_c, 0, 64, 105
1, 136945, Control_c, 0, 64, 105
1, 136960, Control_c, 0, 64, 106
1, 136983, Note_on_c, 0, 78, 64
1, 137007, Note_off_c, 0, 68, 64
1, 137234, Control_c, 0, 64, 105
1, 137246, Note_off_c, 0, 76, 37
1, 137249, Control_c, 0, 64, 101
1, 137253, Note_on_c, 0, 80, 73
1, 137262, Note_on_c, 0, 72, 57
1, 137264, Control_c, 0, 64, 96
1, 137265, Note_on_c, 0, 75, 50
1, 137269, Note_on_c, 0, 69, 48
1, 137278, Control_c, 0, 64, 89
1, 137290, Note_off_c, 0, 78, 63
1, 137293, Control_c, 0, 64, 80
1, 137308, Control_c, 0, 64, 71
1, 137323, Control_c, 0, 64, 63
1, 137338, Control_c, 0, 64, 52
1, 137352, Control_c, 0, 64, 52
1, 137367, Control_c, 0, 64, 50
1, 137382, Control_c, 0, 64, 41
1, 137397, Control_c, 0, 64, 32
1, 137412, Note_off_c, 0, 80, 64
1, 137412, Control_c, 0, 64, 26
1, 137427, Control_c, 0, 64, 27
1, 137429, Note_on_c, 0, 78, 64
1, 137442, Control_c, 0, 64, 42
1, 137457, Control_c, 0, 64, 56
1, 137471, Control_c, 0, 64, 64
1, 137486, Control_c, 0, 64, 70
1, 137487, Note_off_c, 0, 78, 60
1, 137501, Control_c, 0, 64, 77
1, 137513, Note_on_c, 0, 80, 66
1, 137516, Control_c, 0, 64, 85
1, 137531, Control_c, 0, 64, 91
1, 137537, Note_off_c, 0, 80, 65
1, 137545, Control_c, 0, 64, 93
1, 137560, Control_c, 0, 64, 95
1, 137575, Control_c, 0, 64, 98
1, 137587, Note_on_c, 0, 78, 51
1, 137590, Control_c, 0, 64, 100
1, 137605, Control_c, 0, 64, 101
1, 137607, Note_off_c, 0, 78, 58
1, 137619, Control_c, 0, 64, 102
1, 137634, Control_c, 0, 64, 102
1, 137638, Note_on_c, 0, 80, 54
1, 137649, Control_c, 0, 64, 103
1, 137658, Note_off_c, 0, 80, 63
1, 137664, Control_c, 0, 64, 103
1, 137673, Note_on_c, 0, 78, 73
1, 137693, Control_c, 0, 64, 104
1, 137704, Note_off_c, 0, 78, 60
1, 137734, Note_on_c, 0, 80, 64
1, 137738, Control_c, 0, 64, 104
1, 137763, Note_off_c, 0, 80, 67
1, 137768, Control_c, 0, 64, 105
1, 137783, Control_c, 0, 64, 105
1, 137798, Control_c, 0, 64, 106
1, 137799, Note_on_c, 0, 78, 65
1, 137813, Control_c, 0, 64, 107
1, 137816, Note_off_c, 0, 78, 65
1, 137828, Control_c, 0, 64, 108
1, 137842, Control_c, 0, 64, 109
1, 137844, Note_on_c, 0, 80, 59
1, 137850, Note_off_c, 0, 72, 60
1, 137857, Control_c, 0, 64, 110
1, 137869, Note_off_c, 0, 80, 65
1, 137872, Control_c, 0, 64, 111
1, 137885, Note_on_c, 0, 78, 66
1, 137887, Control_c, 0, 64, 112
1, 137901, Control_c, 0, 64, 112
1, 137905, Note_off_c, 0, 78, 63
1, 137916, Control_c, 0, 64, 113
1, 137925, Note_off_c, 0, 69, 57
1, 137931, Control_c, 0, 64, 113
1, 137938, Note_off_c, 0, 75, 58
1, 137939, Note_on_c, 0, 80, 75
1, 137946, Control_c, 0, 64, 114
1, 137983, Control_c, 0, 64, 114
1, 137996, Note_on_c, 0, 78, 68
1, 138005, Note_off_c, 0, 80, 64
1, 138030, Note_off_c, 0, 78, 61
1, 138044, Note_on_c, 0, 76, 62
1, 138106, Note_on_c, 0, 80, 70
1, 138112, Note_off_c, 0, 76, 64
1, 138116, Control_c, 0, 64, 114
1, 138138, Note_off_c, 0, 80, 60
1, 138146, Control_c, 0, 64, 111
1, 138161, Control_c, 0, 64, 104
1, 138167, Note_on_c, 0, 78, 71
1, 138175, Control_c, 0, 64, 94
1, 138190, Control_c, 0, 64, 83
1, 138205, Control_c, 0, 64, 70
1, 138213, Note_off_c, 0, 78, 61
1, 138220, Control_c, 0, 64, 41
1, 138235, Control_c, 0, 64, 0
1, 138238, Note_on_c, 0, 76, 71
1, 138247, Note_on_c, 0, 68, 47
1, 138247, Note_on_c, 0, 71, 39
1, 138339, Control_c, 0, 64, 61
1, 138354, Control_c, 0, 64, 72
1, 138368, Control_c, 0, 64, 80
1, 138383, Control_c, 0, 64, 86
1, 138386, Note_off_c, 0, 76, 68
1, 138398, Control_c, 0, 64, 89
1, 138404, Note_off_c, 0, 71, 62
1, 138413, Control_c, 0, 64, 91
1, 138428, Control_c, 0, 64, 92
1, 138442, Control_c, 0, 64, 92
1, 138451, Note_off_c, 0, 68, 64
1, 138457, Control_c, 0, 64, 93
1, 138501, Control_c, 0, 64, 93
1, 138836, Control_c, 0, 64, 93
1, 138851, Control_c, 0, 64, 91
1, 138866, Control_c, 0, 64, 88
1, 138867, Note_on_c, 0, 81, 78
1, 138877, Note_on_c, 0, 73, 58
1, 138880, Control_c, 0, 64, 83
1, 138884, Note_on_c, 0, 69, 52
1, 138889, Note_on_c, 0, 54, 36
1, 138895, Control_c, 0, 64, 77
1, 138896, Note_on_c, 0, 66, 41
1, 138910, Control_c, 0, 64, 69
1, 138924, Control_c, 0, 64, 57
1, 138939, Control_c, 0, 64, 38
1, 138954, Control_c, 0, 64, 29
1, 138969, Control_c, 0, 64, 0
1, 139132, Control_c, 0, 64, 30
1, 139147, Control_c, 0, 64, 38
1, 139162, Control_c, 0, 64, 48
1, 139177, Control_c, 0, 64, 60
1, 139191, Control_c, 0, 64, 66
1, 139206, Control_c, 0, 64, 71
1, 139221, Control_c, 0, 64, 74
1, 139236, Control_c, 0, 64, 75
1, 139250, Control_c, 0, 64, 77
1, 139265, Control_c, 0, 64, 79
1, 139280, Control_c, 0, 64, 82
1, 139295, Control_c, 0, 64, 84
1, 139310, Control_c, 0, 64, 86
1, 139324, Control_c, 0, 64, 86
1, 139340, Control_c, 0, 64, 87
1, 139355, Control_c, 0, 64, 88
1, 139370, Control_c, 0, 64, 89
1, 139385, Control_c, 0, 64, 89
1, 139395, Note_off_c, 0, 69, 57
1, 139400, Control_c, 0, 64, 90
1, 139414, Control_c, 0, 64, 90
1, 139418, Note_off_c, 0, 73, 62
1, 139429, Control_c, 0, 64, 91
1, 139444, Control_c, 0, 64, 91
1, 139459, Control_c, 0, 64, 92
1, 139495, Control_c, 0, 64, 92
1, 139570, Control_c, 0, 64, 93
1, 139817, Note_on_c, 0, 69, 38
1, 139820, Note_on_c, 0, 78, 59
1, 139821, Note_on_c, 0, 73, 41
1, 139834, Note_on_c, 0, 57, 35
1, 139887, Note_off_c, 0, 66, 43
1, 139900, Note_off_c, 0, 81, 56
1, 139937, Note_off_c, 0, 54, 34
1, 140008, Note_off_c, 0, 73, 60
1, 140035, Note_off_c, 0, 69, 59
1, 140151, Note_off_c, 0, 78, 59
1, 140174, Note_on_c, 0, 80, 54
1, 140274, Control_c, 0, 64, 92
1, 140289, Control_c, 0, 64, 90
1, 140303, Control_c, 0, 64, 86
1, 140318, Control_c, 0, 64, 79
1, 140324, Note_on_c, 0, 76, 55
1, 140329, Note_off_c, 0, 80, 25
1, 140330, Note_on_c, 0, 68, 46
1, 140333, Control_c, 0, 64, 71
1, 140340, Note_on_c, 0, 71, 41
1, 140347, Note_on_c, 0, 59, 28
1, 140348, Control_c, 0, 64, 59
1, 140363, Control_c, 0, 64, 10
1, 140369, Note_off_c, 0, 57, 21
1, 140371, Note_off_c, 0, 68, 0
1, 140371, Note_on_c, 0, 68, 10
1, 140378, Control_c, 0, 64, 0
1, 140615, Control_c, 0, 64, 25
1, 140630, Control_c, 0, 64, 46
1, 140644, Control_c, 0, 64, 46
1, 140659, Control_c, 0, 64, 48
1, 140674, Control_c, 0, 64, 55
1, 140689, Control_c, 0, 64, 62
1, 140703, Control_c, 0, 64, 65
1, 140718, Control_c, 0, 64, 68
1, 140733, Control_c, 0, 64, 70
1, 140748, Control_c, 0, 64, 72
1, 140763, Control_c, 0, 64, 74
1, 140777, Control_c, 0, 64, 77
1, 140792, Control_c, 0, 64, 80
1, 140802, Note_off_c, 0, 71, 60
1, 140807, Control_c, 0, 64, 82
1, 140822, Control_c, 0, 64, 83
1, 140837, Control_c, 0, 64, 84
1, 140852, Control_c, 0, 64, 85
1, 140867, Control_c, 0, 64, 86
1, 140882, Control_c, 0, 64, 87
1, 140896, Note_off_c, 0, 68, 43
1, 140896, Control_c, 0, 64, 88
1, 140900, Note_off_c, 0, 76, 55
1, 140911, Control_c, 0, 64, 89
1, 140926, Control_c, 0, 64, 90
1, 140941, Control_c, 0, 64, 90
1, 140956, Control_c, 0, 64, 91
1, 140979, Control_c, 0, 64, 91
1, 140993, Control_c, 0, 64, 92
1, 141008, Control_c, 0, 64, 93
1, 141023, Control_c, 0, 64, 93
1, 141053, Control_c, 0, 64, 94
1, 141408, Control_c, 0, 64, 93
1, 141423, Control_c, 0, 64, 92
1, 141437, Control_c, 0, 64, 90
1, 141445, Note_on_c, 0, 75, 41
1, 141452, Control_c, 0, 64, 87
1, 141455, Note_on_c, 0, 69, 37
1, 141460, Note_on_c, 0, 66, 35
1, 141466, Note_on_c, 0, 47, 27
1, 141467, Control_c, 0, 64, 82
1, 141482, Control_c, 0, 64, 77
1, 141497, Control_c, 0, 64, 72
1, 141511, Note_off_c, 0, 66, 0
1, 141511, Note_on_c, 0, 66, 6
1, 141511, Control_c, 0, 64, 67
1, 141526, Control_c, 0, 64, 62
1, 141541, Control_c, 0, 64, 59
1, 141556, Control_c, 0, 64, 58
1, 141571, Control_c, 0, 64, 57
1, 141585, Control_c, 0, 64, 54
1, 141600, Control_c, 0, 64, 51
1, 141615, Control_c, 0, 64, 48
1, 141630, Control_c, 0, 64, 49
1, 141645, Control_c, 0, 64, 51
1, 141660, Control_c, 0, 64, 55
1, 141675, Control_c, 0, 64, 60
1, 141689, Control_c, 0, 64, 64
1, 141704, Control_c, 0, 64, 68
1, 141726, Control_c, 0, 64, 74
1, 141736, Note_off_c, 0, 59, 54
1, 141741, Control_c, 0, 64, 79
1, 141757, Control_c, 0, 64, 82
1, 141772, Control_c, 0, 64, 83
1, 141781, Note_off_c, 0, 47, 48
1, 141787, Control_c, 0, 64, 84
1, 141802, Control_c, 0, 64, 86
1, 141816, Control_c, 0, 64, 87
1, 141831, Control_c, 0, 64, 87
1, 141846, Control_c, 0, 64, 88
1, 141861, Control_c, 0, 64, 88
1, 141875, Control_c, 0, 64, 89
1, 141890, Control_c, 0, 64, 89
1, 141905, Control_c, 0, 64, 90
1, 141920, Control_c, 0, 64, 91
1, 141935, Control_c, 0, 64, 92
1, 141964, Control_c, 0, 64, 92
1, 141964, Control_c, 0, 67, 115
1, 141970, Note_off_c, 0, 66, 43
1, 141979, Note_off_c, 0, 69, 52
1, 141979, Control_c, 0, 64, 93
1, 141979, Control_c, 0, 67, 95
1, 141994, Control_c, 0, 67, 77
1, 141996, Note_off_c, 0, 75, 54
1, 142009, Control_c, 0, 67, 59
1, 142023, Control_c, 0, 67, 41
1, 142038, Control_c, 0, 67, 21
1, 142053, Control_c, 0, 67, 0
1, 142187, Control_c, 0, 64, 89
1, 142202, Control_c, 0, 64, 76
1, 142216, Control_c, 0, 64, 0
1, 142232, Note_on_c, 0, 47, 100
1, 142599, Note_on_c, 0, 43, 83
1, 142611, Note_off_c, 0, 47, 64
1, 142738, Note_off_c, 0, 43, 61
1, 142746, Note_on_c, 0, 40, 96
1, 142759, Note_on_c, 0, 71, 86
1, 142856, Note_off_c, 0, 71, 59
1, 142877, Note_on_c, 0, 67, 75
1, 142906, Control_c, 0, 64, 10
1, 142921, Control_c, 0, 64, 67
1, 142935, Note_off_c, 0, 67, 60
1, 142935, Control_c, 0, 64, 71
1, 142950, Control_c, 0, 64, 76
1, 142952, Note_on_c, 0, 71, 85
1, 142965, Control_c, 0, 64, 83
1, 142980, Control_c, 0, 64, 92
1, 142995, Control_c, 0, 64, 98
1, 142995, Note_off_c, 0, 71, 60
1, 143010, Control_c, 0, 64, 100
1, 143021, Note_on_c, 0, 67, 77
1, 143025, Control_c, 0, 64, 101
1, 143039, Control_c, 0, 64, 102
1, 143054, Control_c, 0, 64, 104
1, 143067, Note_off_c, 0, 67, 61
1, 143069, Control_c, 0, 64, 106
1, 143075, Note_on_c, 0, 71, 80
1, 143083, Control_c, 0, 64, 108
1, 143098, Control_c, 0, 64, 110
1, 143108, Note_off_c, 0, 71, 55
1, 143113, Control_c, 0, 64, 112
1, 143128, Control_c, 0, 64, 114
1, 143132, Note_on_c, 0, 67, 74
1, 143143, Control_c, 0, 64, 115
1, 143157, Control_c, 0, 64, 116
1, 143172, Control_c, 0, 64, 118
1, 143179, Note_off_c, 0, 67, 61
1, 143187, Control_c, 0, 64, 120
1, 143192, Note_on_c, 0, 71, 79
1, 143202, Control_c, 0, 64, 122
1, 143224, Control_c, 0, 64, 124
1, 143228, Note_off_c, 0, 71, 62
1, 143239, Control_c, 0, 64, 127
1, 143252, Note_on_c, 0, 67, 67
1, 143254, Control_c, 0, 64, 127
1, 143302, Note_off_c, 0, 67, 62
1, 143314, Note_on_c, 0, 71, 76
1, 143343, Note_off_c, 0, 71, 66
1, 143367, Note_on_c, 0, 67, 68
1, 143415, Note_off_c, 0, 67, 62
1, 143428, Note_on_c, 0, 71, 78
1, 143462, Note_off_c, 0, 71, 58
1, 143477, Note_on_c, 0, 67, 71
1, 143529, Note_off_c, 0, 67, 61
1, 143545, Note_on_c, 0, 71, 76
1, 143573, Note_off_c, 0, 71, 65
1, 143588, Note_on_c, 0, 67, 71
1, 143637, Note_off_c, 0, 67, 61
1, 143657, Note_on_c, 0, 71, 79
1, 143685, Note_off_c, 0, 71, 64
1, 143707, Note_on_c, 0, 67, 70
1, 143759, Note_off_c, 0, 67, 62
1, 143772, Note_on_c, 0, 71, 74
1, 143799, Note_off_c, 0, 71, 62
1, 143810, Note_on_c, 0, 67, 63
1, 143867, Note_off_c, 0, 67, 62
1, 143870, Note_on_c, 0, 43, 90
1, 143885, Note_on_c, 0, 71, 76
1, 143902, Note_off_c, 0, 40, 64
1, 143930, Note_on_c, 0, 67, 63
1, 143931, Note_off_c, 0, 71, 60
1, 143998, Note_off_c, 0, 67, 58
1, 144012, Note_on_c, 0, 71, 74
1, 144050, Note_off_c, 0, 71, 57
1, 144056, Note_on_c, 0, 67, 58
1, 144117, Note_off_c, 0, 67, 59
1, 144127, Note_on_c, 0, 71, 77
1, 144158, Note_on_c, 0, 47, 85
1, 144170, Note_off_c, 0, 43, 61
1, 144177, Note_off_c, 0, 71, 62
1, 144185, Note_on_c, 0, 67, 63
1, 144211, Control_c, 0, 64, 105
1, 144224, Note_on_c, 0, 52, 103
1, 144226, Control_c, 0, 64, 84
1, 144227, Note_off_c, 0, 47, 66
1, 144239, Note_off_c, 0, 67, 63
1, 144241, Note_on_c, 0, 71, 77
1, 144241, Control_c, 0, 64, 64
1, 144256, Control_c, 0, 64, 0
1, 144304, Note_off_c, 0, 71, 60
1, 144313, Note_on_c, 0, 67, 70
1, 144315, Control_c, 0, 64, 65
1, 144330, Control_c, 0, 64, 77
1, 144344, Control_c, 0, 64, 91
1, 144359, Control_c, 0, 64, 100
1, 144369, Note_off_c, 0, 67, 62
1, 144374, Control_c, 0, 64, 102
1, 144380, Note_on_c, 0, 71, 81
1, 144389, Control_c, 0, 64, 103
1, 144404, Control_c, 0, 64, 104
1, 144418, Control_c, 0, 64, 106
1, 144427, Note_off_c, 0, 71, 59
1, 144433, Control_c, 0, 64, 108
1, 144435, Note_on_c, 0, 67, 65
1, 144448, Control_c, 0, 64, 111
1, 144462, Control_c, 0, 64, 114
1, 144477, Control_c, 0, 64, 117
1, 144489, Note_off_c, 0, 67, 61
1, 144492, Control_c, 0, 64, 121
1, 144496, Note_on_c, 0, 71, 80
1, 144507, Control_c, 0, 64, 124
1, 144522, Control_c, 0, 64, 126
1, 144536, Control_c, 0, 64, 127
1, 144543, Note_off_c, 0, 71, 61
1, 144550, Note_on_c, 0, 67, 63
1, 144551, Control_c, 0, 64, 127
1, 144580, Note_on_c, 0, 55, 92
1, 144596, Note_off_c, 0, 52, 64
1, 144607, Note_off_c, 0, 67, 62
1, 144608, Note_on_c, 0, 71, 80
1, 144660, Note_off_c, 0, 71, 62
1, 144672, Note_on_c, 0, 67, 69
1, 144739, Note_off_c, 0, 67, 62
1, 144743, Note_on_c, 0, 71, 79
1, 144791, Note_off_c, 0, 71, 60
1, 144803, Note_on_c, 0, 67, 64
1, 144857, Note_off_c, 0, 67, 62
1, 144860, Note_on_c, 0, 71, 81
1, 144875, Note_off_c, 0, 55, 65
1, 144877, Note_on_c, 0, 59, 78
1, 144913, Note_off_c, 0, 71, 60
1, 144915, Control_c, 0, 64, 111
1, 144925, Note_on_c, 0, 67, 74
1, 144930, Control_c, 0, 64, 93
1, 144941, Note_off_c, 0, 59, 64
1, 144945, Control_c, 0, 64, 73
1, 144951, Note_on_c, 0, 64, 96
1, 144959, Control_c, 0, 64, 52
1, 144974, Control_c, 0, 64, 0
1, 144980, Note_off_c, 0, 67, 63
1, 144981, Note_on_c, 0, 71, 77
1, 145004, Control_c, 0, 64, 65
1, 145019, Control_c, 0, 64, 78
1, 145032, Note_off_c, 0, 71, 61
1, 145034, Control_c, 0, 64, 91
1, 145046, Note_on_c, 0, 67, 73
1, 145049, Control_c, 0, 64, 101
1, 145064, Control_c, 0, 64, 104
1, 145079, Control_c, 0, 64, 107
1, 145093, Control_c, 0, 64, 111
1, 145097, Note_off_c, 0, 67, 62
1, 145103, Note_on_c, 0, 71, 82
1, 145108, Control_c, 0, 64, 114
1, 145123, Control_c, 0, 64, 118
1, 145138, Control_c, 0, 64, 123
1, 145152, Note_off_c, 0, 71, 63
1, 145153, Control_c, 0, 64, 127
1, 145164, Note_on_c, 0, 67, 75
1, 145186, Note_off_c, 0, 64, 59
1, 145210, Note_off_c, 0, 67, 63
1, 145218, Note_on_c, 0, 71, 81
1, 145267, Note_off_c, 0, 71, 61
1, 145281, Note_on_c, 0, 67, 79
1, 145324, Note_on_c, 0, 64, 98
1, 145338, Note_off_c, 0, 67, 62
1, 145344, Note_on_c, 0, 71, 75
1, 145398, Note_off_c, 0, 71, 62
1, 145401, Note_on_c, 0, 67, 74
1, 145443, Note_off_c, 0, 64, 57
1, 145466, Note_off_c, 0, 67, 60
1, 145480, Note_on_c, 0, 71, 77
1, 145526, Note_off_c, 0, 71, 61
1, 145534, Note_on_c, 0, 67, 74
1, 145595, Note_off_c, 0, 67, 63
1, 145597, Note_on_c, 0, 71, 78
1, 145643, Note_off_c, 0, 71, 63
1, 145653, Note_on_c, 0, 67, 80
1, 145678, Control_c, 0, 64, 114
1, 145693, Control_c, 0, 64, 93
1, 145694, Note_off_c, 0, 67, 64
1, 145708, Control_c, 0, 64, 68
1, 145708, Note_on_c, 0, 65, 90
1, 145723, Control_c, 0, 64, 0
1, 145782, Control_c, 0, 64, 68
1, 145791, Note_off_c, 0, 65, 67
1, 145793, Note_on_c, 0, 67, 79
1, 145797, Control_c, 0, 64, 86
1, 145812, Control_c, 0, 64, 105
1, 145827, Control_c, 0, 64, 114
1, 145838, Note_off_c, 0, 67, 63
1, 145848, Note_on_c, 0, 71, 81
1, 145857, Control_c, 0, 64, 114
1, 145872, Control_c, 0, 64, 115
1, 145887, Control_c, 0, 64, 116
1, 145901, Control_c, 0, 64, 118
1, 145907, Note_off_c, 0, 71, 57
1, 145910, Note_on_c, 0, 67, 84
1, 145916, Control_c, 0, 64, 119
1, 145931, Control_c, 0, 64, 120
1, 145946, Control_c, 0, 64, 121
1, 145961, Control_c, 0, 64, 123
1, 145976, Note_on_c, 0, 65, 82
1, 145976, Control_c, 0, 64, 125
1, 145981, Note_off_c, 0, 67, 64
1, 145990, Control_c, 0, 64, 127
1, 146036, Note_on_c, 0, 62, 84
1, 146037, Note_off_c, 0, 65, 65
1, 146103, Note_on_c, 0, 65, 81
1, 146109, Note_off_c, 0, 62, 62
1, 146152, Note_off_c, 0, 65, 66
1, 146176, Note_on_c, 0, 67, 86
1, 146243, Note_off_c, 0, 67, 60
1, 146247, Note_on_c, 0, 65, 82
1, 146318, Note_on_c, 0, 62, 69
1, 146321, Note_off_c, 0, 65, 65
1, 146374, Note_on_c, 0, 59, 80
1, 146451, Note_off_c, 0, 62, 0
1, 146456, Note_on_c, 0, 64, 77
1, 146459, Note_off_c, 0, 59, 63
1, 146464, Note_on_c, 0, 62, 62
1, 146500, Note_off_c, 0, 64, 63
1, 146504, Note_off_c, 0, 62, 63
1, 146527, Note_on_c, 0, 65, 79
1, 146580, Note_off_c, 0, 65, 64
1, 146584, Note_on_c, 0, 62, 73
1, 146648, Note_off_c, 0, 62, 64
1, 146649, Note_on_c, 0, 59, 66
1, 146701, Note_off_c, 0, 59, 62
1, 146703, Note_on_c, 0, 55, 77
1, 146708, Note_on_c, 0, 71, 94
1, 146791, Note_off_c, 0, 55, 64
1, 146792, Note_on_c, 0, 59, 74
1, 146823, Note_off_c, 0, 59, 59
1, 146853, Note_on_c, 0, 62, 73
1, 146899, Note_off_c, 0, 62, 61
1, 146903, Note_on_c, 0, 59, 75
1, 146963, Note_off_c, 0, 71, 60
1, 146964, Note_on_c, 0, 74, 82
1, 146987, Note_off_c, 0, 59, 61
1, 146988, Note_on_c, 0, 55, 55
1, 147028, Note_on_c, 0, 53, 75
1, 147031, Note_on_c, 0, 79, 97
1, 147046, Note_off_c, 0, 74, 66
1, 147066, Note_off_c, 0, 55, 63
1, 147103, Control_c, 0, 64, 125
1, 147106, Note_off_c, 0, 53, 66
1, 147108, Note_on_c, 0, 55, 66
1, 147118, Control_c, 0, 64, 126
1, 147132, Control_c, 0, 64, 127
1, 147156, Note_off_c, 0, 55, 66
1, 147177, Note_on_c, 0, 59, 78
1, 147231, Note_on_c, 0, 55, 77
1, 147231, Note_off_c, 0, 59, 62
1, 147294, Note_on_c, 0, 53, 82
1, 147296, Note_off_c, 0, 55, 66
1, 147347, Note_off_c, 0, 53, 65
1, 147357, Note_on_c, 0, 50, 82
1, 147369, Note_on_c, 0, 83, 102
1, 147395, Note_off_c, 0, 79, 52
1, 147435, Note_on_c, 0, 53, 87
1, 147441, Note_off_c, 0, 50, 64
1, 147483, Note_off_c, 0, 53, 65
1, 147510, Note_on_c, 0, 55, 72
1, 147565, Note_off_c, 0, 55, 65
1, 147566, Note_on_c, 0, 53, 82
1, 147620, Note_on_c, 0, 50, 68
1, 147623, Note_on_c, 0, 86, 96
1, 147627, Note_off_c, 0, 53, 65
1, 147642, Note_off_c, 0, 83, 64
1, 147681, Note_on_c, 0, 47, 84
1, 147689, Note_off_c, 0, 50, 63
1, 147699, Note_on_c, 0, 91, 99
1, 147701, Note_on_c, 0, 79, 105
1, 147721, Note_off_c, 0, 86, 62
1, 147780, Note_on_c, 0, 50, 76
1, 147785, Note_off_c, 0, 47, 64
1, 147825, Note_off_c, 0, 50, 63
1, 147841, Note_on_c, 0, 53, 82
1, 147890, Note_on_c, 0, 50, 77
1, 147896, Note_off_c, 0, 53, 65
1, 147942, Note_on_c, 0, 47, 65
1, 147953, Note_off_c, 0, 50, 63
1, 147967, Note_on_c, 0, 43, 82
1, 147970, Note_off_c, 0, 47, 66
1, 147973, Note_off_c, 0, 91, 58
1, 147990, Note_off_c, 0, 79, 56
1, 148018, Note_off_c, 0, 43, 63
1, 148045, Note_on_c, 0, 41, 87
1, 148053, Note_on_c, 0, 91, 111
1, 148054, Note_on_c, 0, 79, 101
1, 148132, Note_on_c, 0, 43, 85
1, 148143, Note_off_c, 0, 41, 64
1, 148185, Note_off_c, 0, 43, 63
1, 148189, Note_on_c, 0, 47, 89
1, 148242, Note_on_c, 0, 43, 85
1, 148256, Note_off_c, 0, 47, 62
1, 148313, Note_on_c, 0, 41, 85
1, 148319, Note_off_c, 0, 43, 62
1, 148372, Note_on_c, 0, 38, 77
1, 148385, Note_off_c, 0, 91, 52
1, 148397, Note_off_c, 0, 41, 64
1, 148417, Note_off_c, 0, 79, 54
1, 148459, Note_off_c, 0, 38, 62
1, 148495, Control_c, 0, 64, 104
1, 148501, Note_on_c, 0, 91, 96
1, 148505, Note_on_c, 0, 36, 107
1, 148505, Note_on_c, 0, 79, 89
1, 148510, Control_c, 0, 64, 80
1, 148525, Control_c, 0, 64, 25
1, 148540, Control_c, 0, 64, 0
1, 148717, Control_c, 0, 64, 56
1, 148724, Note_off_c, 0, 91, 57
1, 148732, Control_c, 0, 64, 73
1, 148735, Note_on_c, 0, 87, 76
1, 148747, Control_c, 0, 64, 85
1, 148762, Control_c, 0, 64, 95
1, 148776, Control_c, 0, 64, 99
1, 148791, Control_c, 0, 64, 103
1, 148805, Note_off_c, 0, 79, 61
1, 148806, Control_c, 0, 64, 107
1, 148815, Note_off_c, 0, 87, 64
1, 148820, Note_on_c, 0, 91, 88
1, 148821, Control_c, 0, 64, 114
1, 148835, Control_c, 0, 64, 119
1, 148850, Control_c, 0, 64, 124
1, 148865, Control_c, 0, 64, 127
1, 148895, Note_on_c, 0, 87, 81
1, 148901, Note_off_c, 0, 91, 59
1, 148948, Note_on_c, 0, 84, 79
1, 148952, Note_off_c, 0, 87, 64
1, 148990, Note_off_c, 0, 84, 65
1, 149000, Note_on_c, 0, 79, 73
1, 149059, Note_on_c, 0, 84, 74
1, 149061, Note_off_c, 0, 79, 59
1, 149109, Note_off_c, 0, 84, 65
1, 149113, Note_on_c, 0, 87, 82
1, 149169, Note_off_c, 0, 87, 66
1, 149175, Note_on_c, 0, 84, 80
1, 149212, Note_off_c, 0, 84, 61
1, 149240, Note_on_c, 0, 79, 72
1, 149300, Note_on_c, 0, 75, 82
1, 149300, Note_off_c, 0, 79, 63
1, 149364, Note_on_c, 0, 79, 82
1, 149370, Note_off_c, 0, 75, 65
1, 149410, Note_off_c, 0, 79, 61
1, 149425, Note_on_c, 0, 84, 80
1, 149479, Note_off_c, 0, 84, 66
1, 149481, Note_on_c, 0, 79, 77
1, 149536, Note_off_c, 0, 79, 62
1, 149547, Note_on_c, 0, 75, 83
1, 149593, Note_on_c, 0, 39, 87
1, 149593, Note_off_c, 0, 75, 62
1, 149604, Note_on_c, 0, 72, 76
1, 149643, Note_off_c, 0, 36, 58
1, 149681, Note_on_c, 0, 75, 74
1, 149681, Note_off_c, 0, 72, 65
1, 149741, Note_off_c, 0, 75, 65
1, 149744, Note_on_c, 0, 79, 77
1, 149815, Note_on_c, 0, 75, 67
1, 149823, Note_off_c, 0, 79, 57
1, 149856, Note_on_c, 0, 43, 79
1, 149871, Note_off_c, 0, 39, 61
1, 149872, Note_on_c, 0, 72, 82
1, 149881, Control_c, 0, 64, 124
1, 149882, Note_off_c, 0, 75, 63
1, 149896, Control_c, 0, 64, 101
1, 149911, Control_c, 0, 64, 79
1, 149920, Note_on_c, 0, 48, 98
1, 149926, Control_c, 0, 64, 40
1, 149927, Note_off_c, 0, 43, 63
1, 149929, Note_off_c, 0, 72, 64
1, 149941, Control_c, 0, 64, 0
1, 149944, Note_on_c, 0, 67, 79
1, 150023, Control_c, 0, 64, 62
1, 150030, Note_off_c, 0, 67, 63
1, 150034, Note_on_c, 0, 72, 74
1, 150037, Control_c, 0, 64, 74
1, 150052, Control_c, 0, 64, 84
1, 150067, Control_c, 0, 64, 91
1, 150079, Note_off_c, 0, 72, 64
1, 150081, Note_on_c, 0, 75, 81
1, 150081, Control_c, 0, 64, 93
1, 150096, Control_c, 0, 64, 94
1, 150111, Control_c, 0, 64, 97
1, 150126, Control_c, 0, 64, 100
1, 150141, Note_off_c, 0, 75, 64
1, 150141, Control_c, 0, 64, 103
1, 150146, Note_on_c, 0, 72, 76
1, 150155, Control_c, 0, 64, 104
1, 150170, Control_c, 0, 64, 106
1, 150184, Note_off_c, 0, 72, 60
1, 150185, Control_c, 0, 64, 107
1, 150200, Note_on_c, 0, 67, 77
1, 150200, Control_c, 0, 64, 108
1, 150215, Control_c, 0, 64, 109
1, 150230, Control_c, 0, 64, 110
1, 150245, Control_c, 0, 64, 110
1, 150251, Note_on_c, 0, 51, 90
1, 150260, Control_c, 0, 64, 111
1, 150265, Note_off_c, 0, 48, 60
1, 150268, Note_on_c, 0, 63, 86
1, 150271, Note_off_c, 0, 67, 61
1, 150274, Control_c, 0, 64, 112
1, 150289, Control_c, 0, 64, 114
1, 150304, Control_c, 0, 64, 115
1, 150319, Control_c, 0, 64, 116
1, 150334, Control_c, 0, 64, 117
1, 150338, Note_on_c, 0, 67, 79
1, 150345, Note_off_c, 0, 63, 63
1, 150348, Control_c, 0, 64, 119
1, 150363, Control_c, 0, 64, 120
1, 150378, Control_c, 0, 64, 121
1, 150393, Control_c, 0, 64, 121
1, 150403, Note_off_c, 0, 67, 62
1, 150407, Note_on_c, 0, 72, 79
1, 150407, Control_c, 0, 64, 122
1, 150422, Control_c, 0, 64, 123
1, 150437, Control_c, 0, 64, 124
1, 150452, Control_c, 0, 64, 127
1, 150462, Note_on_c, 0, 67, 71
1, 150470, Note_off_c, 0, 72, 64
1, 150510, Note_on_c, 0, 55, 84
1, 150519, Note_off_c, 0, 67, 63
1, 150521, Note_on_c, 0, 63, 78
1, 150528, Note_off_c, 0, 51, 61
1, 150548, Note_off_c, 0, 63, 67
1, 150571, Control_c, 0, 64, 105
1, 150575, Note_off_c, 0, 55, 65
1, 150584, Note_on_c, 0, 60, 96
1, 150586, Control_c, 0, 64, 83
1, 150592, Note_on_c, 0, 63, 92
1, 150601, Control_c, 0, 64, 64
1, 150616, Control_c, 0, 64, 0
1, 150660, Control_c, 0, 64, 26
1, 150669, Note_on_c, 0, 67, 90
1, 150671, Note_off_c, 0, 63, 62
1, 150675, Control_c, 0, 64, 69
1, 150690, Control_c, 0, 64, 77
1, 150712, Control_c, 0, 64, 85
1, 150727, Control_c, 0, 64, 88
1, 150742, Control_c, 0, 64, 90
1, 150746, Note_off_c, 0, 67, 63
1, 150751, Note_on_c, 0, 72, 82
1, 150757, Control_c, 0, 64, 93
1, 150772, Control_c, 0, 64, 98
1, 150786, Control_c, 0, 64, 104
1, 150801, Control_c, 0, 64, 108
1, 150805, Note_on_c, 0, 67, 72
1, 150814, Note_off_c, 0, 72, 65
1, 150816, Control_c, 0, 64, 111
1, 150829, Note_off_c, 0, 60, 51
1, 150830, Control_c, 0, 64, 113
1, 150845, Control_c, 0, 64, 117
1, 150860, Control_c, 0, 64, 123
1, 150867, Note_on_c, 0, 63, 83
1, 150875, Control_c, 0, 64, 127
1, 150876, Note_off_c, 0, 67, 63
1, 150890, Note_off_c, 0, 63, 67
1, 150935, Note_on_c, 0, 60, 94
1, 150949, Note_on_c, 0, 63, 91
1, 151030, Note_on_c, 0, 67, 87
1, 151044, Note_off_c, 0, 63, 63
1, 151049, Note_off_c, 0, 60, 62
1, 151105, Note_on_c, 0, 72, 84
1, 151108, Note_off_c, 0, 67, 63
1, 151178, Note_on_c, 0, 67, 82
1, 151189, Note_off_c, 0, 72, 63
1, 151252, Note_on_c, 0, 63, 83
1, 151257, Note_off_c, 0, 67, 63
1, 151318, Note_off_c, 0, 63, 63
1, 151335, Control_c, 0, 64, 108
1, 151340, Note_on_c, 0, 61, 98
1, 151350, Control_c, 0, 64, 81
1, 151365, Control_c, 0, 64, 32
1, 151380, Control_c, 0, 64, 0
1, 151439, Control_c, 0, 64, 66
1, 151452, Note_on_c, 0, 63, 83
1, 151461, Control_c, 0, 64, 81
1, 151471, Note_off_c, 0, 61, 60
1, 151476, Control_c, 0, 64, 95
1, 151491, Control_c, 0, 64, 101
1, 151506, Control_c, 0, 64, 103
1, 151509, Note_off_c, 0, 63, 64
1, 151520, Control_c, 0, 64, 105
1, 151523, Note_on_c, 0, 67, 81
1, 151535, Control_c, 0, 64, 107
1, 151550, Control_c, 0, 64, 110
1, 151565, Control_c, 0, 64, 111
1, 151574, Note_off_c, 0, 67, 64
1, 151580, Control_c, 0, 64, 112
1, 151586, Note_on_c, 0, 63, 77
1, 151595, Control_c, 0, 64, 112
1, 151609, Control_c, 0, 64, 113
1, 151637, Note_on_c, 0, 61, 77
1, 151639, Control_c, 0, 64, 113
1, 151643, Note_off_c, 0, 63, 65
1, 151683, Control_c, 0, 64, 114
1, 151693, Note_on_c, 0, 58, 69
1, 151693, Note_off_c, 0, 61, 63
1, 151746, Note_on_c, 0, 61, 73
1, 151758, Note_off_c, 0, 58, 61
1, 151772, Control_c, 0, 64, 114
1, 151791, Note_off_c, 0, 61, 63
1, 151804, Note_on_c, 0, 63, 83
1, 151845, Control_c, 0, 64, 115
1, 151865, Note_off_c, 0, 63, 61
1, 151878, Note_on_c, 0, 61, 67
1, 151911, Note_on_c, 0, 58, 74
1, 151920, Control_c, 0, 64, 115
1, 151937, Note_off_c, 0, 61, 60
1, 151974, Note_on_c, 0, 55, 75
1, 151981, Note_off_c, 0, 58, 56
1, 152024, Control_c, 0, 64, 116
1, 152042, Note_off_c, 0, 55, 63
1, 152048, Note_on_c, 0, 58, 75
1, 152054, Control_c, 0, 64, 117
1, 152069, Control_c, 0, 64, 117
1, 152095, Note_off_c, 0, 58, 65
1, 152099, Control_c, 0, 64, 118
1, 152114, Control_c, 0, 64, 118
1, 152124, Note_on_c, 0, 61, 74
1, 152129, Control_c, 0, 64, 119
1, 152144, Control_c, 0, 64, 120
1, 152173, Control_c, 0, 64, 120
1, 152174, Note_on_c, 0, 58, 68
1, 152185, Note_off_c, 0, 61, 61
1, 152188, Control_c, 0, 64, 121
1, 152225, Control_c, 0, 64, 121
1, 152242, Note_on_c, 0, 55, 65
1, 152269, Note_off_c, 0, 58, 62
1, 152294, Note_off_c, 0, 55, 65
1, 152302, Note_on_c, 0, 51, 75
1, 152312, Note_on_c, 0, 67, 93
1, 152380, Note_off_c, 0, 51, 62
1, 152381, Note_on_c, 0, 55, 76
1, 152433, Control_c, 0, 64, 122
1, 152439, Note_off_c, 0, 55, 65
1, 152456, Note_on_c, 0, 58, 77
1, 152477, Control_c, 0, 64, 122
1, 152504, Note_on_c, 0, 55, 58
1, 152507, Control_c, 0, 64, 123
1, 152510, Note_off_c, 0, 58, 63
1, 152561, Note_on_c, 0, 70, 88
1, 152568, Note_off_c, 0, 55, 64
1, 152570, Note_on_c, 0, 51, 72
1, 152599, Note_off_c, 0, 67, 58
1, 152629, Note_on_c, 0, 49, 79
1, 152630, Note_off_c, 0, 51, 61
1, 152646, Note_on_c, 0, 75, 99
1, 152688, Note_off_c, 0, 70, 60
1, 152704, Note_off_c, 0, 49, 62
1, 152712, Note_on_c, 0, 51, 79
1, 152744, Control_c, 0, 64, 123
1, 152756, Note_off_c, 0, 51, 63
1, 152758, Control_c, 0, 64, 126
1, 152773, Control_c, 0, 64, 127
1, 152774, Note_on_c, 0, 55, 80
1, 152805, Note_off_c, 0, 75, 67
1, 152820, Note_off_c, 0, 55, 60
1, 152834, Note_on_c, 0, 51, 79
1, 152882, Note_on_c, 0, 49, 82
1, 152896, Note_off_c, 0, 51, 57
1, 152953, Note_off_c, 0, 49, 62
1, 152955, Note_on_c, 0, 46, 82
1, 152979, Note_on_c, 0, 79, 103
1, 153046, Note_on_c, 0, 49, 84
1, 153046, Note_off_c, 0, 46, 63
1, 153092, Note_off_c, 0, 49, 63
1, 153114, Note_on_c, 0, 51, 74
1, 153194, Note_on_c, 0, 49, 70
1, 153196, Note_off_c, 0, 51, 62
1, 153205, Note_on_c, 0, 46, 61
1, 153219, Note_off_c, 0, 49, 68
1, 153222, Note_on_c, 0, 82, 91
1, 153229, Note_off_c, 0, 79, 60
1, 153247, Note_off_c, 0, 46, 62
1, 153253, Note_on_c, 0, 43, 75
1, 153276, Note_off_c, 0, 82, 64
1, 153304, Note_on_c, 0, 87, 104
1, 153306, Note_on_c, 0, 75, 104
1, 153332, Note_on_c, 0, 80, 51
1, 153345, Note_off_c, 0, 43, 61
1, 153348, Note_on_c, 0, 46, 72
1, 153354, Note_off_c, 0, 80, 61
1, 153389, Note_off_c, 0, 46, 61
1, 153394, Note_on_c, 0, 49, 74
1, 153463, Note_on_c, 0, 46, 82
1, 153469, Note_off_c, 0, 49, 63
1, 153510, Note_off_c, 0, 46, 60
1, 153549, Note_on_c, 0, 43, 82
1, 153577, Note_off_c, 0, 75, 51
1, 153598, Note_off_c, 0, 43, 57
1, 153604, Note_off_c, 0, 87, 59
1, 153607, Note_on_c, 0, 39, 81
1, 153664, Note_on_c, 0, 37, 86
1, 153673, Note_off_c, 0, 39, 63
1, 153679, Note_on_c, 0, 87, 99
1, 153686, Note_on_c, 0, 75, 104
1, 153755, Note_on_c, 0, 39, 81
1, 153774, Note_off_c, 0, 37, 62
1, 153800, Poly_aftertouch_c, 0, 85, 0
1, 153813, Note_off_c, 0, 39, 64
1, 153817, Note_on_c, 0, 43, 89
1, 153841, Note_off_c, 0, 75, 61
1, 153874, Note_on_c, 0, 39, 78
1, 153876, Note_off_c, 0, 43, 57
1, 153908, Note_off_c, 0, 87, 59
1, 153934, Note_on_c, 0, 37, 78
1, 153958, Note_off_c, 0, 39, 62
1, 153993, Note_on_c, 0, 34, 80
1, 154012, Note_off_c, 0, 37, 63
1, 154056, Note_off_c, 0, 34, 63
1, 154093, Control_c, 0, 64, 107
1, 154095, Note_on_c, 0, 32, 106
1, 154102, Note_on_c, 0, 87, 104
1, 154108, Control_c, 0, 64, 70
1, 154110, Note_on_c, 0, 35, 80
1, 154121, Note_on_c, 0, 33, 60
1, 154122, Note_off_c, 0, 33, 127
1, 154123, Control_c, 0, 64, 0
1, 154131, Note_off_c, 0, 35, 63
1, 154314, Note_on_c, 0, 92, 90
1, 154330, Control_c, 0, 64, 79
1, 154345, Control_c, 0, 64, 101
1, 154346, Note_off_c, 0, 87, 58
1, 154360, Control_c, 0, 64, 111
1, 154374, Control_c, 0, 64, 111
1, 154377, Note_off_c, 0, 92, 65
1, 154382, Note_on_c, 0, 96, 82
1, 154389, Control_c, 0, 64, 115
1, 154404, Control_c, 0, 64, 123
1, 154419, Control_c, 0, 64, 127
1, 154439, Note_on_c, 0, 92, 81
1, 154469, Note_off_c, 0, 96, 60
1, 154508, Note_on_c, 0, 87, 87
1, 154510, Note_off_c, 0, 92, 66
1, 154552, Note_off_c, 0, 87, 65
1, 154561, Note_on_c, 0, 84, 77
1, 154613, Note_on_c, 0, 87, 79
1, 154622, Note_off_c, 0, 84, 65
1, 154662, Note_off_c, 0, 87, 63
1, 154666, Note_on_c, 0, 92, 86
1, 154722, Note_off_c, 0, 92, 65
1, 154723, Note_on_c, 0, 87, 77
1, 154759, Note_off_c, 0, 87, 64
1, 154770, Note_on_c, 0, 84, 73
1, 154808, Note_off_c, 0, 84, 58
1, 154831, Note_on_c, 0, 80, 89
1, 154892, Note_off_c, 0, 80, 65
1, 154904, Note_on_c, 0, 84, 73
1, 154947, Note_off_c, 0, 84, 65
1, 154948, Note_on_c, 0, 87, 75
1, 155008, Note_on_c, 0, 84, 68
1, 155009, Note_off_c, 0, 87, 63
1, 155069, Note_on_c, 0, 80, 79
1, 155081, Note_off_c, 0, 84, 61
1, 155115, Note_off_c, 0, 80, 65
1, 155124, Note_on_c, 0, 36, 92
1, 155127, Note_on_c, 0, 75, 77
1, 155145, Note_off_c, 0, 32, 61
1, 155179, Note_off_c, 0, 75, 66
1, 155219, Note_on_c, 0, 80, 83
1, 155279, Note_off_c, 0, 80, 64
1, 155284, Note_on_c, 0, 84, 68
1, 155343, Note_on_c, 0, 80, 77
1, 155354, Note_off_c, 0, 84, 55
1, 155381, Note_off_c, 0, 36, 63
1, 155384, Note_on_c, 0, 39, 83
1, 155393, Note_on_c, 0, 75, 80
1, 155399, Note_off_c, 0, 80, 65
1, 155428, Control_c, 0, 64, 112
1, 155440, Note_off_c, 0, 75, 67
1, 155443, Control_c, 0, 64, 87
1, 155447, Note_off_c, 0, 39, 61
1, 155449, Note_on_c, 0, 44, 97
1, 155449, Note_on_c, 0, 72, 79
1, 155458, Control_c, 0, 64, 61
1, 155473, Control_c, 0, 64, 0
1, 155517, Control_c, 0, 64, 54
1, 155521, Note_on_c, 0, 75, 79
1, 155523, Note_off_c, 0, 72, 65
1, 155532, Control_c, 0, 64, 76
1, 155547, Control_c, 0, 64, 91
1, 155562, Control_c, 0, 64, 108
1, 155564, Note_off_c, 0, 44, 63
1, 155576, Control_c, 0, 64, 109
1, 155577, Note_off_c, 0, 75, 65
1, 155582, Note_on_c, 0, 80, 83
1, 155606, Control_c, 0, 64, 111
1, 155620, Control_c, 0, 64, 112
1, 155635, Control_c, 0, 64, 114
1, 155649, Note_on_c, 0, 75, 77
1, 155650, Control_c, 0, 64, 116
1, 155654, Note_off_c, 0, 80, 61
1, 155665, Control_c, 0, 64, 117
1, 155680, Control_c, 0, 64, 119
1, 155694, Control_c, 0, 64, 122
1, 155696, Note_off_c, 0, 75, 66
1, 155706, Note_on_c, 0, 72, 75
1, 155709, Control_c, 0, 64, 125
1, 155724, Control_c, 0, 64, 127
1, 155764, Note_on_c, 0, 48, 88
1, 155771, Note_off_c, 0, 72, 59
1, 155774, Note_on_c, 0, 68, 91
1, 155838, Note_off_c, 0, 68, 65
1, 155852, Note_on_c, 0, 72, 69
1, 155910, Note_on_c, 0, 75, 80
1, 155911, Note_off_c, 0, 72, 64
1, 155993, Note_off_c, 0, 75, 63
1, 155995, Note_on_c, 0, 72, 70
1, 156000, Note_on_c, 0, 51, 75
1, 156025, Note_off_c, 0, 48, 61
1, 156051, Note_on_c, 0, 68, 76
1, 156069, Note_off_c, 0, 72, 63
1, 156087, Note_off_c, 0, 51, 60
1, 156096, Note_on_c, 0, 56, 95
1, 156101, Note_off_c, 0, 68, 65
1, 156102, Control_c, 0, 64, 111
1, 156111, Note_on_c, 0, 63, 85
1, 156117, Control_c, 0, 64, 95
1, 156132, Control_c, 0, 64, 80
1, 156147, Control_c, 0, 64, 68
1, 156162, Control_c, 0, 64, 65
1, 156169, Note_off_c, 0, 63, 67
1, 156177, Control_c, 0, 64, 69
1, 156192, Control_c, 0, 64, 77
1, 156198, Note_on_c, 0, 68, 80
1, 156206, Control_c, 0, 64, 86
1, 156221, Control_c, 0, 64, 91
1, 156236, Control_c, 0, 64, 94
1, 156251, Control_c, 0, 64, 97
1, 156266, Control_c, 0, 64, 101
1, 156267, Note_on_c, 0, 72, 72
1, 156267, Note_off_c, 0, 68, 65
1, 156281, Control_c, 0, 64, 105
1, 156296, Control_c, 0, 64, 108
1, 156311, Control_c, 0, 64, 110
1, 156325, Note_off_c, 0, 56, 59
1, 156326, Control_c, 0, 64, 112
1, 156341, Control_c, 0, 64, 113
1, 156344, Note_on_c, 0, 68, 72
1, 156355, Control_c, 0, 64, 116
1, 156370, Control_c, 0, 64, 118
1, 156373, Note_on_c, 0, 63, 82
1, 156385, Control_c, 0, 64, 120
1, 156388, Note_off_c, 0, 72, 57
1, 156400, Control_c, 0, 64, 122
1, 156406, Note_off_c, 0, 68, 64
1, 156415, Control_c, 0, 64, 126
1, 156424, Note_off_c, 0, 63, 66
1, 156430, Control_c, 0, 64, 127
1, 156444, Note_on_c, 0, 60, 76
1, 156448, Note_on_c, 0, 56, 94
1, 156513, Note_on_c, 0, 63, 85
1, 156516, Note_off_c, 0, 60, 58
1, 156558, Note_off_c, 0, 56, 63
1, 156571, Note_off_c, 0, 63, 65
1, 156574, Note_on_c, 0, 68, 84
1, 156651, Note_on_c, 0, 63, 84
1, 156655, Note_off_c, 0, 68, 61
1, 156704, Note_off_c, 0, 63, 65
1, 156727, Note_on_c, 0, 60, 78
1, 156822, Control_c, 0, 64, 101
1, 156837, Control_c, 0, 64, 80
1, 156851, Control_c, 0, 64, 53
1, 156860, Note_off_c, 0, 60, 61
1, 156865, Note_on_c, 0, 66, 102
1, 156866, Control_c, 0, 64, 0
1, 156868, Note_on_c, 0, 57, 74
1, 156993, Note_on_c, 0, 60, 66
1, 157001, Control_c, 0, 64, 73
1, 157015, Control_c, 0, 64, 86
1, 157017, Note_off_c, 0, 57, 57
1, 157030, Control_c, 0, 64, 97
1, 157045, Control_c, 0, 64, 101
1, 157060, Control_c, 0, 64, 103
1, 157065, Note_off_c, 0, 60, 62
1, 157074, Control_c, 0, 64, 106
1, 157077, Note_on_c, 0, 63, 84
1, 157089, Control_c, 0, 64, 111
1, 157104, Control_c, 0, 64, 115
1, 157119, Control_c, 0, 64, 116
1, 157128, Note_on_c, 0, 60, 67
1, 157134, Note_off_c, 0, 63, 64
1, 157134, Control_c, 0, 64, 117
1, 157148, Control_c, 0, 64, 119
1, 157163, Control_c, 0, 64, 120
1, 157178, Control_c, 0, 64, 121
1, 157190, Note_off_c, 0, 60, 61
1, 157191, Note_on_c, 0, 57, 67
1, 157193, Control_c, 0, 64, 122
1, 157208, Control_c, 0, 64, 123
1, 157222, Note_off_c, 0, 57, 64
1, 157223, Control_c, 0, 64, 123
1, 157238, Note_on_c, 0, 54, 64
1, 157238, Control_c, 0, 64, 125
1, 157253, Control_c, 0, 64, 125
1, 157267, Control_c, 0, 64, 126
1, 157282, Control_c, 0, 64, 126
1, 157314, Note_on_c, 0, 57, 83
1, 157314, Note_off_c, 0, 54, 61
1, 157361, Note_off_c, 0, 57, 63
1, 157376, Note_on_c, 0, 60, 78
1, 157446, Note_off_c, 0, 60, 59
1, 157449, Note_on_c, 0, 57, 79
1, 157500, Note_on_c, 0, 54, 72
1, 157507, Note_off_c, 0, 57, 61
1, 157542, Control_c, 0, 64, 127
1, 157554, Note_on_c, 0, 51, 74
1, 157565, Note_off_c, 0, 54, 60
1, 157570, Note_off_c, 0, 66, 67
1, 157571, Control_c, 0, 64, 127
1, 157613, Note_on_c, 0, 54, 68
1, 157621, Note_off_c, 0, 51, 62
1, 157660, Note_off_c, 0, 54, 63
1, 157673, Note_on_c, 0, 57, 74
1, 157722, Note_off_c, 0, 57, 58
1, 157730, Note_on_c, 0, 54, 72
1, 157761, Note_on_c, 0, 51, 72
1, 157812, Note_off_c, 0, 54, 61
1, 157823, Note_off_c, 0, 51, 61
1, 157835, Note_on_c, 0, 48, 77
1, 157843, Note_on_c, 0, 72, 97
1, 157926, Note_on_c, 0, 51, 83
1, 157927, Note_off_c, 0, 48, 65
1, 157973, Note_off_c, 0, 51, 63
1, 158005, Note_on_c, 0, 54, 77
1, 158061, Note_on_c, 0, 51, 73
1, 158069, Note_off_c, 0, 54, 55
1, 158100, Note_on_c, 0, 75, 94
1, 158134, Note_on_c, 0, 48, 69
1, 158138, Note_off_c, 0, 72, 63
1, 158149, Note_off_c, 0, 51, 61
1, 158171, Note_on_c, 0, 78, 101
1, 158174, Note_off_c, 0, 48, 65
1, 158181, Note_on_c, 0, 45, 77
1, 158208, Note_off_c, 0, 75, 67
1, 158269, Note_on_c, 0, 48, 75
1, 158270, Note_off_c, 0, 45, 65
1, 158316, Note_off_c, 0, 48, 62
1, 158331, Note_on_c, 0, 51, 81
1, 158341, Note_off_c, 0, 78, 63
1, 158380, Note_on_c, 0, 48, 72
1, 158394, Note_off_c, 0, 51, 60
1, 158456, Note_on_c, 0, 45, 63
1, 158456, Note_off_c, 0, 48, 64
1, 158486, Note_off_c, 0, 45, 66
1, 158495, Note_on_c, 0, 42, 76
1, 158507, Note_on_c, 0, 84, 101
1, 158570, Note_on_c, 0, 45, 82
1, 158576, Note_off_c, 0, 42, 62
1, 158621, Note_off_c, 0, 45, 65
1, 158643, Note_on_c, 0, 48, 86
1, 158703, Note_off_c, 0, 48, 64
1, 158707, Note_on_c, 0, 45, 81
1, 158757, Note_on_c, 0, 42, 84
1, 158764, Note_on_c, 0, 87, 92
1, 158778, Note_off_c, 0, 45, 64
1, 158789, Note_off_c, 0, 84, 65
1, 158822, Note_on_c, 0, 39, 82
1, 158830, Note_on_c, 0, 90, 105
1, 158830, Note_off_c, 0, 42, 62
1, 158861, Note_off_c, 0, 87, 65
1, 158895, Note_on_c, 0, 42, 82
1, 158907, Note_off_c, 0, 39, 61
1, 158948, Note_off_c, 0, 42, 64
1, 158961, Note_on_c, 0, 45, 81
1, 159011, Note_on_c, 0, 42, 79
1, 159012, Note_off_c, 0, 45, 60
1, 159039, Note_on_c, 0, 39, 82
1, 159084, Note_off_c, 0, 42, 62
1, 159098, Note_on_c, 0, 38, 64
1, 159107, Note_off_c, 0, 90, 60
1, 159112, Note_off_c, 0, 39, 63
1, 159131, Note_on_c, 0, 36, 52
1, 159131, Note_off_c, 0, 38, 62
1, 159137, Note_on_c, 0, 33, 93
1, 159156, Note_off_c, 0, 36, 59
1, 159168, Note_on_c, 0, 90, 98
1, 159223, Note_on_c, 0, 36, 86
1, 159238, Note_off_c, 0, 33, 65
1, 159290, Note_on_c, 0, 39, 92
1, 159316, Note_off_c, 0, 36, 63
1, 159318, Note_off_c, 0, 90, 62
1, 159348, Note_off_c, 0, 39, 62
1, 159372, Note_on_c, 0, 42, 73
1, 159426, Note_on_c, 0, 39, 76
1, 159432, Note_off_c, 0, 42, 62
1, 159485, Note_on_c, 0, 36, 53
1, 159502, Note_off_c, 0, 39, 64
1, 159515, Note_off_c, 0, 36, 62
1, 159536, Note_on_c, 0, 32, 102
1, 159551, Note_on_c, 0, 90, 111
1, 159557, Control_c, 0, 64, 89
1, 159572, Control_c, 0, 64, 0
1, 159582, Note_on_c, 0, 35, 30
1, 159583, Note_off_c, 0, 35, 127
1, 159613, Note_on_c, 0, 36, 77
1, 159626, Poly_aftertouch_c, 0, 35, 0
1, 159646, Control_c, 0, 64, 65
1, 159657, Note_off_c, 0, 32, 62
1, 159661, Control_c, 0, 64, 85
1, 159676, Control_c, 0, 64, 104
1, 159689, Note_on_c, 0, 39, 76
1, 159698, Control_c, 0, 64, 111
1, 159713, Note_off_c, 0, 36, 64
1, 159713, Control_c, 0, 64, 115
1, 159728, Control_c, 0, 64, 123
1, 159735, Note_on_c, 0, 42, 84
1, 159742, Control_c, 0, 64, 127
1, 159743, Note_off_c, 0, 39, 61
1, 159786, Note_on_c, 0, 39, 52
1, 159803, Note_off_c, 0, 42, 63
1, 159828, Note_on_c, 0, 36, 71
1, 159870, Note_off_c, 0, 39, 63
1, 159887, Note_on_c, 0, 33, 98
1, 159896, Note_off_c, 0, 36, 65
1, 159897, Note_off_c, 0, 90, 51
1, 159969, Note_on_c, 0, 36, 74
1, 159986, Note_off_c, 0, 33, 60
1, 160018, Note_on_c, 0, 90, 88
1, 160034, Note_on_c, 0, 39, 83
1, 160053, Note_off_c, 0, 36, 63
1, 160075, Note_on_c, 0, 87, 85
1, 160089, Note_on_c, 0, 42, 78
1, 160108, Note_off_c, 0, 90, 63
1, 160133, Note_on_c, 0, 84, 82
1, 160138, Note_off_c, 0, 87, 63
1, 160153, Note_off_c, 0, 39, 63
1, 160158, Note_on_c, 0, 36, 64
1, 160168, Note_off_c, 0, 42, 62
1, 160185, Note_on_c, 0, 78, 87
1, 160188, Note_off_c, 0, 84, 66
1, 160188, Control_c, 0, 64, 121
1, 160192, Note_off_c, 0, 36, 64
1, 160203, Control_c, 0, 64, 88
1, 160217, Control_c, 0, 64, 58
1, 160220, Note_on_c, 0, 32, 100
1, 160232, Control_c, 0, 64, 0
1, 160238, Note_on_c, 0, 90, 108
1, 160255, Note_off_c, 0, 78, 43
1, 160277, Control_c, 0, 64, 67
1, 160285, Note_on_c, 0, 36, 77
1, 160291, Control_c, 0, 64, 89
1, 160306, Control_c, 0, 64, 119
1, 160321, Control_c, 0, 64, 127
1, 160322, Note_off_c, 0, 32, 60
1, 160336, Note_on_c, 0, 39, 85
1, 160362, Note_off_c, 0, 36, 62
1, 160392, Note_off_c, 0, 39, 63
1, 160395, Note_on_c, 0, 42, 85
1, 160398, Note_off_c, 0, 90, 61
1, 160463, Note_on_c, 0, 39, 74
1, 160469, Note_off_c, 0, 42, 64
1, 160485, Note_on_c, 0, 36, 68
1, 160532, Note_off_c, 0, 39, 64
1, 160553, Note_on_c, 0, 33, 99
1, 160577, Note_off_c, 0, 36, 55
1, 160627, Note_on_c, 0, 36, 65
1, 160653, Note_off_c, 0, 33, 63
1, 160692, Note_on_c, 0, 39, 86
1, 160698, Note_on_c, 0, 78, 91
1, 160720, Note_off_c, 0, 36, 63
1, 160752, Note_on_c, 0, 42, 81
1, 160755, Note_on_c, 0, 75, 73
1, 160780, Note_off_c, 0, 78, 63
1, 160797, Note_on_c, 0, 36, 67
1, 160800, Note_off_c, 0, 39, 60
1, 160804, Note_off_c, 0, 75, 66
1, 160806, Note_on_c, 0, 72, 82
1, 160834, Note_off_c, 0, 42, 61
1, 160857, Note_on_c, 0, 66, 86
1, 160859, Note_off_c, 0, 72, 65
1, 160861, Note_off_c, 0, 36, 64
1, 160861, Control_c, 0, 64, 101
1, 160876, Control_c, 0, 64, 74
1, 160890, Control_c, 0, 64, 0
1, 160893, Note_on_c, 0, 32, 96
1, 160909, Note_on_c, 0, 78, 107
1, 160922, Note_off_c, 0, 66, 58
1, 160951, Control_c, 0, 64, 56
1, 160966, Control_c, 0, 64, 77
1, 160967, Note_on_c, 0, 36, 82
1, 160980, Control_c, 0, 64, 96
1, 160995, Control_c, 0, 64, 112
1, 161002, Note_off_c, 0, 32, 60
1, 161010, Control_c, 0, 64, 114
1, 161016, Note_on_c, 0, 39, 84
1, 161039, Control_c, 0, 64, 116
1, 161046, Note_off_c, 0, 78, 59
1, 161049, Note_off_c, 0, 36, 63
1, 161054, Control_c, 0, 64, 118
1, 161069, Control_c, 0, 64, 121
1, 161080, Note_on_c, 0, 42, 87
1, 161081, Note_off_c, 0, 39, 63
1, 161084, Control_c, 0, 64, 125
1, 161099, Control_c, 0, 64, 127
1, 161137, Note_on_c, 0, 39, 69
1, 161148, Note_off_c, 0, 42, 61
1, 161172, Note_on_c, 0, 36, 62
1, 161210, Note_off_c, 0, 39, 64
1, 161233, Note_on_c, 0, 33, 97
1, 161252, Note_off_c, 0, 36, 63
1, 161310, Note_on_c, 0, 36, 77
1, 161328, Note_off_c, 0, 33, 62
1, 161372, Note_on_c, 0, 66, 88
1, 161375, Note_on_c, 0, 39, 89
1, 161396, Note_off_c, 0, 36, 65
1, 161420, Note_on_c, 0, 63, 78
1, 161434, Note_on_c, 0, 42, 87
1, 161447, Control_c, 0, 64, 97
1, 161449, Note_off_c, 0, 66, 65
1, 161462, Control_c, 0, 64, 71
1, 161464, Note_on_c, 0, 60, 85
1, 161470, Note_off_c, 0, 63, 67
1, 161474, Note_off_c, 0, 39, 58
1, 161477, Control_c, 0, 64, 0
1, 161510, Note_on_c, 0, 36, 59
1, 161514, Note_on_c, 0, 54, 77
1, 161521, Note_off_c, 0, 60, 62
1, 161521, Note_off_c, 0, 42, 61
1, 161538, Note_off_c, 0, 36, 66
1, 161563, Note_on_c, 0, 32, 96
1, 161565, Note_on_c, 0, 66, 94
1, 161576, Note_off_c, 0, 54, 62
1, 161610, Control_c, 0, 64, 92
1, 161618, Note_off_c, 0, 66, 64
1, 161625, Control_c, 0, 64, 127
1, 161640, Note_on_c, 0, 36, 70
1, 161665, Note_off_c, 0, 32, 60
1, 161705, Note_on_c, 0, 39, 78
1, 161715, Control_c, 0, 64, 118
1, 161729, Control_c, 0, 64, 92
1, 161733, Note_on_c, 0, 66, 87
1, 161744, Control_c, 0, 64, 69
1, 161745, Note_off_c, 0, 36, 62
1, 161759, Control_c, 0, 64, 0
1, 161773, Note_off_c, 0, 39, 65
1, 161784, Note_on_c, 0, 42, 80
1, 161793, Note_on_c, 0, 63, 77
1, 161807, Note_off_c, 0, 66, 64
1, 161837, Note_on_c, 0, 60, 81
1, 161843, Note_off_c, 0, 63, 67
1, 161852, Note_off_c, 0, 42, 60
1, 161876, Note_on_c, 0, 39, 45
1, 161877, Note_on_c, 0, 36, 46
1, 161882, Note_on_c, 0, 54, 78
1, 161890, Note_off_c, 0, 60, 63
1, 161913, Note_off_c, 0, 39, 63
1, 161922, Note_on_c, 0, 33, 90
1, 161927, Note_off_c, 0, 36, 62
1, 161929, Note_on_c, 0, 66, 97
1, 161949, Note_off_c, 0, 54, 62
1, 161974, Control_c, 0, 64, 90
1, 161988, Control_c, 0, 64, 127
1, 161994, Note_off_c, 0, 66, 65
1, 162007, Note_off_c, 0, 33, 62
1, 162010, Note_on_c, 0, 36, 81
1, 162069, Note_on_c, 0, 60, 37
1, 162077, Control_c, 0, 64, 97
1, 162084, Note_on_c, 0, 39, 65
1, 162091, Note_off_c, 0, 36, 63
1, 162092, Control_c, 0, 64, 72
1, 162097, Note_off_c, 0, 60, 54
1, 162107, Control_c, 0, 64, 0
1, 162110, Note_on_c, 0, 66, 85
1, 162113, Note_on_c, 0, 42, 79
1, 162118, Note_off_c, 0, 39, 64
1, 162172, Note_on_c, 0, 63, 77
1, 162174, Note_on_c, 0, 36, 54
1, 162181, Note_off_c, 0, 42, 62
1, 162189, Note_off_c, 0, 66, 63
1, 162216, Note_on_c, 0, 60, 66
1, 162247, Note_on_c, 0, 39, 71
1, 162249, Note_off_c, 0, 63, 65
1, 162258, Note_off_c, 0, 36, 60
1, 162281, Note_on_c, 0, 54, 74
1, 162292, Note_off_c, 0, 60, 61
1, 162311, Note_off_c, 0, 39, 64
1, 162341, Note_on_c, 0, 66, 97
1, 162343, Note_on_c, 0, 44, 103
1, 162344, Note_off_c, 0, 54, 61
1, 162350, Note_on_c, 0, 32, 92
1, 162374, Control_c, 0, 64, 95
1, 162388, Control_c, 0, 64, 127
1, 162418, Note_off_c, 0, 32, 64
1, 162421, Note_off_c, 0, 44, 63
1, 162527, Note_on_c, 0, 56, 65
1, 162557, Note_off_c, 0, 56, 64
1, 162578, Note_off_c, 0, 66, 59
1, 162644, Note_on_c, 0, 56, 60
1, 162690, Note_off_c, 0, 56, 60
1, 162767, Control_c, 0, 64, 117
1, 162778, Note_on_c, 0, 56, 66
1, 162782, Control_c, 0, 64, 95
1, 162797, Control_c, 0, 64, 76
1, 162806, Note_off_c, 0, 56, 64
1, 162811, Control_c, 0, 64, 42
1, 162826, Control_c, 0, 64, 0
1, 162886, Note_on_c, 0, 56, 63
1, 162922, Note_off_c, 0, 56, 65
1, 163012, Note_on_c, 0, 56, 63
1, 163047, Note_off_c, 0, 56, 62
1, 163125, Note_on_c, 0, 56, 61
1, 163159, Note_off_c, 0, 56, 63
1, 163244, Note_on_c, 0, 56, 56
1, 163281, Note_off_c, 0, 56, 63
1, 163361, Note_on_c, 0, 56, 56
1, 163393, Note_off_c, 0, 56, 64
1, 163484, Note_on_c, 0, 56, 54
1, 163515, Note_off_c, 0, 56, 61
1, 163602, Note_on_c, 0, 56, 61
1, 163638, Note_off_c, 0, 56, 61
1, 163721, Note_on_c, 0, 56, 57
1, 163748, Note_off_c, 0, 56, 61
1, 163862, Note_on_c, 0, 63, 51
1, 163871, Note_on_c, 0, 60, 46
1, 163901, Control_c, 0, 64, 41
1, 163916, Control_c, 0, 64, 66
1, 163931, Control_c, 0, 64, 72
1, 163946, Control_c, 0, 64, 77
1, 163960, Control_c, 0, 64, 82
1, 163975, Control_c, 0, 64, 84
1, 163990, Control_c, 0, 64, 85
1, 163997, Note_on_c, 0, 56, 45
1, 164005, Control_c, 0, 64, 87
1, 164020, Control_c, 0, 64, 88
1, 164028, Note_off_c, 0, 56, 53
1, 164034, Control_c, 0, 64, 89
1, 164059, Note_off_c, 0, 60, 57
1, 164064, Control_c, 0, 64, 90
1, 164093, Note_off_c, 0, 63, 64
1, 164121, Note_on_c, 0, 56, 46
1, 164125, Control_c, 0, 64, 89
1, 164139, Control_c, 0, 64, 88
1, 164149, Note_off_c, 0, 56, 56
1, 164154, Control_c, 0, 64, 85
1, 164169, Control_c, 0, 64, 79
1, 164191, Control_c, 0, 64, 71
1, 164206, Control_c, 0, 64, 61
1, 164221, Control_c, 0, 64, 38
1, 164236, Control_c, 0, 64, 31
1, 164241, Note_on_c, 0, 56, 55
1, 164265, Note_off_c, 0, 56, 60
1, 164265, Control_c, 0, 64, 28
1, 164280, Control_c, 0, 64, 0
1, 164343, Note_on_c, 0, 56, 62
1, 164377, Note_off_c, 0, 56, 61
1, 164456, Note_on_c, 0, 56, 55
1, 164505, Note_off_c, 0, 56, 55
1, 164575, Note_on_c, 0, 75, 55
1, 164576, Control_c, 0, 64, 32
1, 164581, Note_on_c, 0, 72, 49
1, 164583, Note_on_c, 0, 54, 44
1, 164591, Control_c, 0, 64, 61
1, 164606, Control_c, 0, 64, 68
1, 164621, Control_c, 0, 64, 74
1, 164636, Control_c, 0, 64, 80
1, 164650, Control_c, 0, 64, 83
1, 164665, Control_c, 0, 64, 85
1, 164680, Control_c, 0, 64, 86
1, 164695, Control_c, 0, 64, 87
1, 164710, Control_c, 0, 64, 88
1, 164717, Note_on_c, 0, 56, 53
1, 164739, Control_c, 0, 64, 89
1, 164741, Note_off_c, 0, 54, 32
1, 164750, Note_off_c, 0, 56, 60
1, 164789, Note_off_c, 0, 72, 64
1, 164791, Note_off_c, 0, 75, 66
1, 164813, Control_c, 0, 64, 88
1, 164828, Control_c, 0, 64, 88
1, 164843, Control_c, 0, 64, 85
1, 164851, Note_on_c, 0, 56, 46
1, 164857, Control_c, 0, 64, 79
1, 164872, Control_c, 0, 64, 71
1, 164884, Note_off_c, 0, 56, 47
1, 164887, Control_c, 0, 64, 57
1, 164903, Control_c, 0, 64, 0
1, 164967, Note_on_c, 0, 56, 51
1, 164992, Note_off_c, 0, 56, 59
1, 165085, Note_on_c, 0, 56, 39
1, 165115, Note_off_c, 0, 56, 57
1, 165196, Note_on_c, 0, 56, 61
1, 165231, Note_off_c, 0, 56, 62
1, 165323, Note_on_c, 0, 65, 61
1, 165333, Note_on_c, 0, 61, 40
1, 165355, Control_c, 0, 64, 46
1, 165370, Control_c, 0, 64, 65
1, 165385, Control_c, 0, 64, 69
1, 165399, Control_c, 0, 64, 74
1, 165414, Control_c, 0, 64, 78
1, 165429, Control_c, 0, 64, 80
1, 165444, Control_c, 0, 64, 82
1, 165459, Control_c, 0, 64, 84
1, 165459, Note_on_c, 0, 56, 52
1, 165473, Control_c, 0, 64, 84
1, 165486, Note_off_c, 0, 56, 58
1, 165526, Note_off_c, 0, 61, 63
1, 165545, Note_off_c, 0, 65, 64
1, 165571, Note_on_c, 0, 56, 60
1, 165592, Control_c, 0, 64, 83
1, 165599, Note_off_c, 0, 56, 58
1, 165606, Control_c, 0, 64, 80
1, 165621, Control_c, 0, 64, 77
1, 165636, Control_c, 0, 64, 72
1, 165651, Control_c, 0, 64, 65
1, 165666, Control_c, 0, 64, 57
1, 165688, Control_c, 0, 64, 54
1, 165692, Note_on_c, 0, 56, 55
1, 165704, Control_c, 0, 64, 55
1, 165719, Control_c, 0, 64, 54
1, 165724, Note_off_c, 0, 56, 58
1, 165733, Control_c, 0, 64, 47
1, 165748, Control_c, 0, 64, 24
1, 165763, Control_c, 0, 64, 0
1, 165829, Note_on_c, 0, 56, 39
1, 165859, Note_off_c, 0, 56, 51
1, 165951, Note_on_c, 0, 56, 41
1, 165982, Note_off_c, 0, 56, 48
1, 166036, Note_on_c, 0, 73, 53
1, 166039, Note_on_c, 0, 77, 65
1, 166073, Note_on_c, 0, 53, 30
1, 166075, Control_c, 0, 64, 37
1, 166090, Control_c, 0, 64, 62
1, 166104, Control_c, 0, 64, 69
1, 166119, Control_c, 0, 64, 75
1, 166134, Control_c, 0, 64, 81
1, 166149, Control_c, 0, 64, 83
1, 166178, Control_c, 0, 64, 83
1, 166187, Note_on_c, 0, 56, 43
1, 166219, Note_off_c, 0, 56, 51
1, 166273, Note_off_c, 0, 77, 62
1, 166288, Note_off_c, 0, 53, 32
1, 166292, Note_on_c, 0, 56, 50
1, 166297, Control_c, 0, 64, 83
1, 166300, Note_off_c, 0, 73, 59
1, 166324, Note_off_c, 0, 56, 58
1, 166327, Control_c, 0, 64, 82
1, 166342, Control_c, 0, 64, 81
1, 166356, Control_c, 0, 64, 79
1, 166371, Control_c, 0, 64, 76
1, 166386, Control_c, 0, 64, 72
1, 166401, Control_c, 0, 64, 67
1, 166416, Control_c, 0, 64, 63
1, 166429, Note_on_c, 0, 56, 46
1, 166437, Control_c, 0, 64, 60
1, 166452, Control_c, 0, 64, 60
1, 166457, Note_off_c, 0, 56, 56
1, 166467, Control_c, 0, 64, 59
1, 166482, Control_c, 0, 64, 53
1, 166497, Control_c, 0, 64, 39
1, 166513, Control_c, 0, 64, 0
1, 166547, Note_on_c, 0, 56, 53
1, 166581, Note_off_c, 0, 56, 63
1, 166673, Note_on_c, 0, 56, 57
1, 166705, Note_off_c, 0, 56, 64
1, 166812, Note_on_c, 0, 70, 73
1, 166824, Note_on_c, 0, 61, 55
1, 166829, Note_on_c, 0, 65, 50
1, 166883, Control_c, 0, 64, 16
1, 166898, Control_c, 0, 64, 32
1, 166913, Control_c, 0, 64, 46
1, 166927, Control_c, 0, 64, 57
1, 166942, Control_c, 0, 64, 63
1, 166957, Control_c, 0, 64, 64
1, 166971, Note_on_c, 0, 56, 51
1, 166972, Control_c, 0, 64, 66
1, 166986, Control_c, 0, 64, 69
1, 167001, Control_c, 0, 64, 74
1, 167004, Note_off_c, 0, 56, 54
1, 167016, Control_c, 0, 64, 80
1, 167031, Control_c, 0, 64, 85
1, 167046, Control_c, 0, 64, 88
1, 167060, Control_c, 0, 64, 89
1, 167061, Note_on_c, 0, 56, 50
1, 167075, Control_c, 0, 64, 90
1, 167090, Control_c, 0, 64, 92
1, 167105, Control_c, 0, 64, 94
1, 167120, Note_off_c, 0, 56, 51
1, 167120, Control_c, 0, 64, 96
1, 167134, Control_c, 0, 64, 97
1, 167149, Control_c, 0, 64, 98
1, 167164, Control_c, 0, 64, 98
1, 167186, Control_c, 0, 64, 99
1, 167201, Control_c, 0, 64, 99
1, 167205, Note_on_c, 0, 53, 50
1, 167212, Note_on_c, 0, 49, 49
1, 167216, Control_c, 0, 64, 100
1, 167246, Control_c, 0, 64, 100
1, 167260, Control_c, 0, 64, 101
1, 167306, Control_c, 0, 64, 101
1, 167319, Note_on_c, 0, 56, 54
1, 167321, Control_c, 0, 64, 102
1, 167350, Control_c, 0, 64, 102
1, 167363, Note_off_c, 0, 56, 54
1, 167387, Note_off_c, 0, 49, 28
1, 167388, Note_off_c, 0, 53, 44
1, 167424, Control_c, 0, 64, 103
1, 167433, Poly_aftertouch_c, 0, 56, 127
1, 167462, Poly_aftertouch_c, 0, 56, 0
1, 167533, Note_on_c, 0, 53, 48
1, 167546, Note_on_c, 0, 49, 39
1, 167668, Note_off_c, 0, 61, 34
1, 167669, Note_on_c, 0, 56, 51
1, 167698, Note_off_c, 0, 56, 60
1, 167701, Note_off_c, 0, 53, 43
1, 167739, Note_off_c, 0, 49, 39
1, 167772, Note_on_c, 0, 56, 52
1, 167814, Note_off_c, 0, 56, 56
1, 167815, Note_off_c, 0, 65, 38
1, 167891, Note_on_c, 0, 49, 41
1, 167894, Note_on_c, 0, 53, 40
1, 168000, Note_off_c, 0, 53, 49
1, 168019, Note_on_c, 0, 56, 49
1, 168020, Note_off_c, 0, 49, 0
1, 168069, Note_off_c, 0, 56, 42
1, 168118, Note_on_c, 0, 56, 39
1, 168130, Poly_aftertouch_c, 0, 49, 0
1, 168169, Note_off_c, 0, 56, 54
1, 168203, Control_c, 0, 64, 102
1, 168218, Control_c, 0, 64, 96
1, 168232, Control_c, 0, 64, 86
1, 168247, Control_c, 0, 64, 72
1, 168262, Control_c, 0, 64, 48
1, 168270, Note_on_c, 0, 51, 38
1, 168273, Note_on_c, 0, 68, 51
1, 168277, Note_on_c, 0, 63, 41
1, 168277, Control_c, 0, 64, 0
1, 168281, Note_on_c, 0, 48, 41
1, 168281, Note_on_c, 0, 60, 39
1, 168297, Note_off_c, 0, 70, 50
1, 168366, Control_c, 0, 64, 63
1, 168380, Control_c, 0, 64, 70
1, 168394, Note_off_c, 0, 51, 53
1, 168395, Control_c, 0, 64, 75
1, 168404, Note_on_c, 0, 56, 51
1, 168410, Control_c, 0, 64, 78
1, 168425, Control_c, 0, 64, 80
1, 168436, Note_off_c, 0, 48, 34
1, 168448, Note_off_c, 0, 56, 49
1, 168470, Control_c, 0, 64, 80
1, 168503, Note_on_c, 0, 56, 42
1, 168558, Control_c, 0, 64, 79
1, 168559, Note_off_c, 0, 56, 57
1, 168573, Control_c, 0, 64, 77
1, 168588, Control_c, 0, 64, 73
1, 168603, Control_c, 0, 64, 68
1, 168618, Control_c, 0, 64, 62
1, 168632, Control_c, 0, 64, 55
1, 168633, Note_on_c, 0, 56, 50
1, 168647, Control_c, 0, 64, 54
1, 168662, Control_c, 0, 64, 53
1, 168678, Note_off_c, 0, 60, 28
1, 168681, Note_off_c, 0, 56, 61
1, 168685, Control_c, 0, 64, 51
1, 168699, Control_c, 0, 64, 44
1, 168711, Note_off_c, 0, 68, 58
1, 168714, Control_c, 0, 64, 30
1, 168729, Control_c, 0, 64, 10
1, 168747, Note_off_c, 0, 63, 41
1, 168773, Note_on_c, 0, 56, 49
1, 168773, Control_c, 0, 64, 0
1, 168798, Note_off_c, 0, 56, 57
1, 168884, Note_on_c, 0, 56, 56
1, 168914, Note_off_c, 0, 56, 60
1, 168998, Note_on_c, 0, 56, 59
1, 169035, Note_off_c, 0, 56, 61
1, 169118, Note_on_c, 0, 56, 61
1, 169158, Note_off_c, 0, 56, 60
1, 169246, Note_on_c, 0, 56, 55
1, 169274, Note_off_c, 0, 56, 59
1, 169358, Note_on_c, 0, 60, 61
1, 169359, Note_on_c, 0, 56, 59
1, 169359, Note_on_c, 0, 63, 66
1, 169400, Note_off_c, 0, 56, 63
1, 169495, Note_on_c, 0, 56, 63
1, 169533, Note_off_c, 0, 56, 62
1, 169555, Note_off_c, 0, 60, 58
1, 169572, Note_off_c, 0, 63, 64
1, 169614, Note_on_c, 0, 56, 64
1, 169656, Note_off_c, 0, 56, 59
1, 169660, Note_on_c, 0, 63, 57
1, 169662, Note_on_c, 0, 60, 63
1, 169680, Note_off_c, 0, 63, 64
1, 169698, Note_off_c, 0, 60, 61
1, 169721, Note_on_c, 0, 61, 68
1, 169722, Note_on_c, 0, 65, 70
1, 169742, Note_on_c, 0, 56, 61
1, 169777, Note_off_c, 0, 56, 61
1, 169860, Note_on_c, 0, 56, 58
1, 169898, Note_off_c, 0, 56, 61
1, 169945, Note_off_c, 0, 61, 49
1, 169947, Note_off_c, 0, 65, 62
1, 169981, Note_on_c, 0, 63, 66
1, 169982, Note_on_c, 0, 56, 63
1, 169987, Note_on_c, 0, 60, 56
1, 170013, Note_off_c, 0, 63, 64
1, 170017, Note_off_c, 0, 60, 64
1, 170019, Note_off_c, 0, 56, 64
1, 170109, Note_on_c, 0, 56, 65
1, 170142, Note_off_c, 0, 56, 62
1, 170231, Note_on_c, 0, 56, 61
1, 170270, Note_off_c, 0, 56, 62
1, 170336, Note_on_c, 0, 75, 70
1, 170339, Note_on_c, 0, 72, 58
1, 170351, Note_on_c, 0, 56, 66
1, 170357, Note_off_c, 0, 72, 64
1, 170371, Note_off_c, 0, 75, 68
1, 170383, Note_off_c, 0, 56, 63
1, 170464, Note_on_c, 0, 56, 58
1, 170498, Note_off_c, 0, 56, 62
1, 170586, Note_on_c, 0, 56, 54
1, 170614, Note_off_c, 0, 56, 54
1, 170682, Note_on_c, 0, 87, 65
1, 170683, Note_on_c, 0, 84, 63
1, 170687, Control_c, 0, 64, 18
1, 170707, Note_on_c, 0, 56, 47
1, 170711, Note_off_c, 0, 87, 66
1, 170712, Note_off_c, 0, 84, 66
1, 170716, Control_c, 0, 64, 0
1, 170744, Note_off_c, 0, 56, 49
1, 170807, Note_on_c, 0, 51, 55
1, 170818, Note_on_c, 0, 56, 30
1, 170820, Note_on_c, 0, 54, 49
1, 170849, Control_c, 0, 64, 63
1, 170853, Note_off_c, 0, 56, 51
1, 170864, Control_c, 0, 64, 70
1, 170877, Note_off_c, 0, 54, 0
1, 170879, Control_c, 0, 64, 79
1, 170893, Control_c, 0, 64, 84
1, 170908, Control_c, 0, 64, 87
1, 170914, Poly_aftertouch_c, 0, 54, 127
1, 170931, Control_c, 0, 64, 88
1, 170946, Control_c, 0, 64, 88
1, 170950, Note_on_c, 0, 56, 63
1, 170956, Poly_aftertouch_c, 0, 54, 0
1, 170960, Control_c, 0, 64, 89
1, 170962, Note_off_c, 0, 51, 0
1, 170983, Note_off_c, 0, 56, 62
1, 170991, Poly_aftertouch_c, 0, 51, 0
1, 171052, Note_on_c, 0, 56, 62
1, 171079, Control_c, 0, 64, 88
1, 171087, Note_off_c, 0, 56, 60
1, 171093, Note_on_c, 0, 63, 72
1, 171093, Control_c, 0, 64, 85
1, 171099, Note_on_c, 0, 60, 58
1, 171108, Control_c, 0, 64, 79
1, 171118, Note_off_c, 0, 63, 69
1, 171123, Control_c, 0, 64, 70
1, 171132, Note_off_c, 0, 60, 63
1, 171138, Control_c, 0, 64, 55
1, 171153, Control_c, 0, 64, 0
1, 171166, Note_on_c, 0, 66, 74
1, 171172, Note_on_c, 0, 63, 68
1, 171177, Note_on_c, 0, 56, 57
1, 171218, Note_off_c, 0, 56, 61
1, 171305, Note_on_c, 0, 56, 57
1, 171346, Note_off_c, 0, 56, 59
1, 171406, Note_off_c, 0, 66, 62
1, 171423, Note_on_c, 0, 65, 67
1, 171423, Note_off_c, 0, 63, 60
1, 171431, Note_on_c, 0, 61, 56
1, 171432, Note_on_c, 0, 56, 62
1, 171453, Note_off_c, 0, 65, 68
1, 171460, Note_off_c, 0, 61, 65
1, 171464, Note_off_c, 0, 56, 63
1, 171540, Note_on_c, 0, 56, 62
1, 171579, Note_off_c, 0, 56, 62
1, 171670, Note_on_c, 0, 56, 61
1, 171706, Note_off_c, 0, 56, 62
1, 171779, Note_on_c, 0, 77, 62
1, 171784, Note_on_c, 0, 56, 64
1, 171789, Note_on_c, 0, 73, 50
1, 171811, Note_off_c, 0, 73, 56
1, 171814, Note_off_c, 0, 77, 61
1, 171821, Note_off_c, 0, 56, 60
1, 171904, Note_on_c, 0, 56, 57
1, 171937, Note_off_c, 0, 56, 61
1, 172029, Note_on_c, 0, 56, 52
1, 172058, Note_off_c, 0, 56, 54
1, 172065, Control_c, 0, 64, 21
1, 172080, Control_c, 0, 64, 33
1, 172095, Control_c, 0, 64, 40
1, 172110, Control_c, 0, 64, 46
1, 172125, Control_c, 0, 64, 51
1, 172137, Note_on_c, 0, 89, 66
1, 172140, Control_c, 0, 64, 54
1, 172140, Note_on_c, 0, 85, 56
1, 172150, Note_on_c, 0, 56, 45
1, 172154, Control_c, 0, 64, 55
1, 172161, Note_off_c, 0, 85, 66
1, 172163, Note_off_c, 0, 89, 69
1, 172169, Control_c, 0, 64, 51
1, 172181, Note_off_c, 0, 56, 50
1, 172184, Control_c, 0, 64, 40
1, 172199, Control_c, 0, 64, 0
1, 172261, Note_on_c, 0, 53, 45
1, 172262, Note_on_c, 0, 49, 41
1, 172288, Control_c, 0, 64, 41
1, 172303, Control_c, 0, 64, 65
1, 172318, Control_c, 0, 64, 70
1, 172333, Control_c, 0, 64, 74
1, 172347, Control_c, 0, 64, 77
1, 172362, Control_c, 0, 64, 79
1, 172376, Note_on_c, 0, 56, 56
1, 172377, Control_c, 0, 64, 80
1, 172405, Note_off_c, 0, 56, 54
1, 172490, Note_on_c, 0, 56, 48
1, 172490, Note_off_c, 0, 53, 37
1, 172492, Note_off_c, 0, 49, 38
1, 172520, Note_off_c, 0, 56, 50
1, 172547, Control_c, 0, 64, 79
1, 172561, Note_on_c, 0, 65, 69
1, 172562, Control_c, 0, 64, 78
1, 172574, Note_on_c, 0, 61, 56
1, 172577, Control_c, 0, 64, 76
1, 172592, Control_c, 0, 64, 73
1, 172593, Note_off_c, 0, 65, 65
1, 172600, Note_off_c, 0, 61, 56
1, 172606, Control_c, 0, 64, 67
1, 172621, Control_c, 0, 64, 59
1, 172636, Control_c, 0, 64, 52
1, 172651, Control_c, 0, 64, 51
1, 172666, Control_c, 0, 64, 50
1, 172679, Note_on_c, 0, 70, 80
1, 172680, Control_c, 0, 64, 44
1, 172684, Note_on_c, 0, 61, 60
1, 172695, Control_c, 0, 64, 16
1, 172700, Note_on_c, 0, 65, 56
1, 172710, Control_c, 0, 64, 0
1, 172813, Control_c, 0, 64, 24
1, 172828, Control_c, 0, 64, 49
1, 172828, Note_on_c, 0, 56, 47
1, 172843, Control_c, 0, 64, 61
1, 172858, Control_c, 0, 64, 65
1, 172861, Note_off_c, 0, 56, 55
1, 172872, Control_c, 0, 64, 68
1, 172888, Control_c, 0, 64, 71
1, 172902, Control_c, 0, 64, 74
1, 172917, Control_c, 0, 64, 77
1, 172925, Note_on_c, 0, 56, 47
1, 172932, Control_c, 0, 64, 79
1, 172947, Control_c, 0, 64, 81
1, 172962, Control_c, 0, 64, 82
1, 172966, Note_off_c, 0, 56, 52
1, 172977, Control_c, 0, 64, 84
1, 172992, Control_c, 0, 64, 85
1, 173007, Control_c, 0, 64, 85
1, 173021, Control_c, 0, 64, 86
1, 173036, Control_c, 0, 64, 86
1, 173048, Note_on_c, 0, 53, 46
1, 173051, Control_c, 0, 64, 87
1, 173054, Note_on_c, 0, 49, 45
1, 173066, Control_c, 0, 64, 87
1, 173081, Control_c, 0, 64, 88
1, 173095, Control_c, 0, 64, 88
1, 173154, Control_c, 0, 64, 89
1, 173188, Note_on_c, 0, 56, 41
1, 173199, Note_off_c, 0, 53, 24
1, 173221, Control_c, 0, 64, 89
1, 173222, Note_off_c, 0, 56, 49
1, 173240, Note_off_c, 0, 49, 26
1, 173281, Note_on_c, 0, 56, 42
1, 173345, Note_off_c, 0, 56, 39
1, 173398, Note_off_c, 0, 61, 51
1, 173402, Note_on_c, 0, 49, 45
1, 173402, Note_on_c, 0, 53, 44
1, 173491, Note_off_c, 0, 65, 53
1, 173528, Note_on_c, 0, 56, 44
1, 173536, Note_off_c, 0, 49, 0
1, 173575, Note_off_c, 0, 53, 28
1, 173604, Note_off_c, 0, 56, 0
1, 173610, Poly_aftertouch_c, 0, 49, 0
1, 173616, Note_on_c, 0, 56, 38
1, 173743, Note_on_c, 0, 49, 45
1, 173746, Note_on_c, 0, 53, 46
1, 173746, Note_off_c, 0, 56, 27
1, 173874, Note_on_c, 0, 56, 47
1, 173922, Note_off_c, 0, 56, 61
1, 173943, Note_off_c, 0, 53, 40
1, 173999, Note_on_c, 0, 56, 46
1, 174024, Note_off_c, 0, 49, 35
1, 174030, Note_off_c, 0, 56, 54
1, 174104, Control_c, 0, 64, 87
1, 174118, Control_c, 0, 64, 83
1, 174133, Control_c, 0, 64, 76
1, 174144, Note_on_c, 0, 68, 59
1, 174147, Note_off_c, 0, 70, 50
1, 174148, Control_c, 0, 64, 67
1, 174150, Note_on_c, 0, 63, 47
1, 174156, Note_on_c, 0, 60, 40
1, 174163, Control_c, 0, 64, 45
1, 174177, Control_c, 0, 64, 0
1, 174266, Control_c, 0, 64, 44
1, 174268, Note_on_c, 0, 56, 48
1, 174281, Control_c, 0, 64, 60
1, 174295, Control_c, 0, 64, 65
1, 174310, Control_c, 0, 64, 70
1, 174325, Control_c, 0, 64, 73
1, 174340, Control_c, 0, 64, 77
1, 174355, Control_c, 0, 64, 78
1, 174364, Note_off_c, 0, 56, 0
1, 174369, Control_c, 0, 64, 80
1, 174384, Control_c, 0, 64, 81
1, 174397, Note_on_c, 0, 56, 13
1, 174399, Control_c, 0, 64, 81
1, 174444, Control_c, 0, 64, 80
1, 174459, Control_c, 0, 64, 77
1, 174468, Note_off_c, 0, 60, 58
1, 174470, Note_on_c, 0, 51, 40
1, 174473, Control_c, 0, 64, 71
1, 174477, Note_on_c, 0, 48, 44
1, 174489, Control_c, 0, 64, 62
1, 174498, Note_off_c, 0, 56, 34
1, 174504, Control_c, 0, 64, 41
1, 174519, Control_c, 0, 64, 41
1, 174534, Control_c, 0, 64, 48
1, 174535, Note_off_c, 0, 63, 49
1, 174548, Control_c, 0, 64, 57
1, 174563, Control_c, 0, 64, 63
1, 174578, Control_c, 0, 64, 67
1, 174593, Control_c, 0, 64, 72
1, 174608, Control_c, 0, 64, 78
1, 174615, Note_on_c, 0, 56, 53
1, 174622, Control_c, 0, 64, 82
1, 174630, Note_off_c, 0, 68, 61
1, 174637, Control_c, 0, 64, 83
1, 174646, Note_off_c, 0, 56, 54
1, 174652, Control_c, 0, 64, 83
1, 174674, Control_c, 0, 64, 84
1, 174689, Control_c, 0, 64, 84
1, 174704, Control_c, 0, 64, 85
1, 174743, Note_on_c, 0, 56, 52
1, 174748, Note_off_c, 0, 51, 32
1, 174760, Note_off_c, 0, 48, 42
1, 174791, Note_off_c, 0, 56, 54
1, 174867, Control_c, 0, 64, 84
1, 174882, Control_c, 0, 64, 82
1, 174897, Control_c, 0, 64, 78
1, 174898, Note_on_c, 0, 69, 66
1, 174912, Control_c, 0, 64, 71
1, 174917, Note_on_c, 0, 61, 53
1, 174918, Note_on_c, 0, 64, 52
1, 174927, Control_c, 0, 64, 62
1, 174941, Control_c, 0, 64, 40
1, 174956, Control_c, 0, 64, 32
1, 174986, Control_c, 0, 64, 35
1, 175001, Control_c, 0, 64, 36
1, 175016, Control_c, 0, 64, 38
1, 175031, Control_c, 0, 64, 44
1, 175046, Control_c, 0, 64, 52
1, 175060, Control_c, 0, 64, 61
1, 175062, Note_on_c, 0, 56, 35
1, 175075, Control_c, 0, 64, 66
1, 175090, Control_c, 0, 64, 70
1, 175105, Control_c, 0, 64, 73
1, 175105, Note_off_c, 0, 56, 40
1, 175119, Control_c, 0, 64, 75
1, 175134, Control_c, 0, 64, 76
1, 175144, Note_on_c, 0, 56, 40
1, 175149, Control_c, 0, 64, 78
1, 175164, Control_c, 0, 64, 79
1, 175179, Control_c, 0, 64, 81
1, 175193, Control_c, 0, 64, 82
1, 175199, Note_off_c, 0, 56, 40
1, 175238, Control_c, 0, 64, 82
1, 175267, Control_c, 0, 64, 83
1, 175279, Note_on_c, 0, 49, 38
1, 175279, Note_on_c, 0, 52, 37
1, 175305, Note_off_c, 0, 61, 39
1, 175313, Control_c, 0, 64, 83
1, 175320, Note_off_c, 0, 64, 59
1, 175393, Note_on_c, 0, 56, 45
1, 175424, Control_c, 0, 64, 84
1, 175436, Note_off_c, 0, 56, 54
1, 175472, Note_off_c, 0, 52, 41
1, 175498, Control_c, 0, 64, 84
1, 175511, Note_on_c, 0, 56, 46
1, 175513, Control_c, 0, 64, 85
1, 175528, Control_c, 0, 64, 85
1, 175539, Note_off_c, 0, 56, 57
1, 175557, Note_off_c, 0, 49, 36
1, 175557, Control_c, 0, 64, 86
1, 175602, Control_c, 0, 64, 85
1, 175614, Note_off_c, 0, 69, 54
1, 175616, Control_c, 0, 64, 84
1, 175631, Control_c, 0, 64, 79
1, 175633, Note_on_c, 0, 68, 55
1, 175645, Note_on_c, 0, 63, 43
1, 175646, Control_c, 0, 64, 71
1, 175648, Note_on_c, 0, 60, 40
1, 175661, Control_c, 0, 64, 56
1, 175676, Control_c, 0, 64, 0
1, 175693, Note_off_c, 0, 63, 0
1, 175693, Note_on_c, 0, 63, 15
1, 175694, Note_off_c, 0, 60, 0
1, 175694, Note_on_c, 0, 60, 11
1, 175735, Control_c, 0, 64, 13
1, 175750, Control_c, 0, 64, 56
1, 175755, Note_on_c, 0, 56, 46
1, 175765, Control_c, 0, 64, 64
1, 175780, Control_c, 0, 64, 68
1, 175795, Control_c, 0, 64, 72
1, 175796, Note_off_c, 0, 56, 53
1, 175809, Control_c, 0, 64, 75
1, 175824, Control_c, 0, 64, 77
1, 175839, Control_c, 0, 64, 78
1, 175854, Control_c, 0, 64, 80
1, 175857, Note_on_c, 0, 56, 39
1, 175869, Control_c, 0, 64, 81
1, 175883, Control_c, 0, 64, 81
1, 175913, Note_off_c, 0, 60, 55
1, 175913, Control_c, 0, 64, 81
1, 175928, Control_c, 0, 64, 78
1, 175943, Control_c, 0, 64, 72
1, 175958, Control_c, 0, 64, 64
1, 175961, Note_off_c, 0, 56, 30
1, 175968, Note_off_c, 0, 63, 57
1, 175973, Control_c, 0, 64, 54
1, 175983, Note_on_c, 0, 51, 45
1, 175988, Note_on_c, 0, 48, 48
1, 175988, Control_c, 0, 64, 51
1, 176003, Control_c, 0, 64, 56
1, 176012, Note_off_c, 0, 68, 61
1, 176017, Control_c, 0, 64, 62
1, 176032, Control_c, 0, 64, 65
1, 176047, Control_c, 0, 64, 68
1, 176061, Control_c, 0, 64, 71
1, 176076, Control_c, 0, 64, 74
1, 176092, Control_c, 0, 64, 77
1, 176104, Note_on_c, 0, 56, 52
1, 176107, Control_c, 0, 64, 78
1, 176122, Control_c, 0, 64, 79
1, 176133, Note_off_c, 0, 56, 59
1, 176137, Control_c, 0, 64, 80
1, 176152, Control_c, 0, 64, 80
1, 176188, Control_c, 0, 64, 81
1, 176240, Note_on_c, 0, 56, 48
1, 176268, Note_off_c, 0, 48, 43
1, 176284, Note_off_c, 0, 51, 21
1, 176307, Note_off_c, 0, 56, 42
1, 176411, Control_c, 0, 64, 80
1, 176426, Control_c, 0, 64, 77
1, 176429, Note_on_c, 0, 81, 70
1, 176440, Control_c, 0, 64, 72
1, 176441, Note_on_c, 0, 73, 52
1, 176449, Note_on_c, 0, 76, 47
1, 176455, Control_c, 0, 64, 65
1, 176470, Control_c, 0, 64, 52
1, 176485, Control_c, 0, 64, 39
1, 176514, Control_c, 0, 64, 41
1, 176529, Control_c, 0, 64, 43
1, 176544, Control_c, 0, 64, 44
1, 176559, Control_c, 0, 64, 48
1, 176573, Control_c, 0, 64, 54
1, 176585, Note_on_c, 0, 56, 47
1, 176588, Control_c, 0, 64, 62
1, 176603, Control_c, 0, 64, 65
1, 176618, Control_c, 0, 64, 67
1, 176632, Control_c, 0, 64, 69
1, 176647, Control_c, 0, 64, 70
1, 176662, Control_c, 0, 64, 72
1, 176665, Note_off_c, 0, 56, 0
1, 176677, Control_c, 0, 64, 74
1, 176691, Control_c, 0, 64, 76
1, 176702, Poly_aftertouch_c, 0, 56, 127
1, 176706, Control_c, 0, 64, 78
1, 176721, Control_c, 0, 64, 78
1, 176736, Control_c, 0, 64, 79
1, 176751, Control_c, 0, 64, 79
1, 176766, Control_c, 0, 64, 80
1, 176796, Control_c, 0, 64, 80
1, 176800, Note_on_c, 0, 52, 43
1, 176810, Control_c, 0, 64, 81
1, 176811, Poly_aftertouch_c, 0, 56, 0
1, 176813, Note_on_c, 0, 49, 34
1, 176870, Control_c, 0, 64, 81
1, 176883, Note_off_c, 0, 76, 61
1, 176933, Note_on_c, 0, 56, 54
1, 176945, Note_off_c, 0, 73, 24
1, 176964, Note_off_c, 0, 56, 57
1, 177019, Note_off_c, 0, 52, 39
1, 177080, Note_on_c, 0, 56, 12
1, 177120, Note_off_c, 0, 56, 41
1, 177152, Note_off_c, 0, 81, 56
1, 177159, Control_c, 0, 64, 81
1, 177174, Control_c, 0, 64, 79
1, 177182, Note_on_c, 0, 80, 54
1, 177189, Control_c, 0, 64, 73
1, 177189, Note_on_c, 0, 72, 40
1, 177189, Note_on_c, 0, 75, 43
1, 177204, Control_c, 0, 64, 66
1, 177219, Control_c, 0, 64, 51
1, 177227, Note_off_c, 0, 49, 31
1, 177233, Note_off_c, 0, 72, 0
1, 177233, Note_on_c, 0, 72, 12
1, 177234, Control_c, 0, 64, 0
1, 177278, Control_c, 0, 64, 33
1, 177293, Control_c, 0, 64, 49
1, 177308, Control_c, 0, 64, 60
1, 177317, Note_on_c, 0, 56, 36
1, 177322, Control_c, 0, 64, 64
1, 177337, Control_c, 0, 64, 67
1, 177352, Control_c, 0, 64, 70
1, 177367, Control_c, 0, 64, 72
1, 177382, Control_c, 0, 64, 75
1, 177385, Note_off_c, 0, 56, 0
1, 177396, Control_c, 0, 64, 77
1, 177398, Note_on_c, 0, 56, 38
1, 177411, Control_c, 0, 64, 78
1, 177426, Control_c, 0, 64, 79
1, 177463, Note_off_c, 0, 80, 61
1, 177470, Control_c, 0, 64, 78
1, 177485, Control_c, 0, 64, 77
1, 177490, Note_off_c, 0, 75, 63
1, 177500, Control_c, 0, 64, 74
1, 177514, Control_c, 0, 64, 70
1, 177521, Note_off_c, 0, 72, 58
1, 177524, Note_on_c, 0, 51, 40
1, 177525, Note_on_c, 0, 48, 42
1, 177529, Note_off_c, 0, 56, 36
1, 177529, Control_c, 0, 64, 67
1, 177544, Control_c, 0, 64, 66
1, 177559, Control_c, 0, 64, 67
1, 177574, Control_c, 0, 64, 69
1, 177588, Control_c, 0, 64, 71
1, 177603, Control_c, 0, 64, 73
1, 177618, Control_c, 0, 64, 74
1, 177633, Control_c, 0, 64, 75
1, 177648, Control_c, 0, 64, 76
1, 177652, Note_on_c, 0, 56, 48
1, 177670, Control_c, 0, 64, 77
1, 177686, Control_c, 0, 64, 78
1, 177693, Note_off_c, 0, 56, 53
1, 177701, Control_c, 0, 64, 78
1, 177731, Control_c, 0, 64, 79
1, 177745, Control_c, 0, 64, 80
1, 177760, Control_c, 0, 64, 81
1, 177761, Note_off_c, 0, 51, 37
1, 177769, Note_off_c, 0, 48, 44
1, 177775, Control_c, 0, 64, 81
1, 177786, Note_on_c, 0, 56, 43
1, 177820, Note_off_c, 0, 56, 51
1, 177864, Control_c, 0, 64, 80
1, 177879, Control_c, 0, 64, 78
1, 177893, Control_c, 0, 64, 73
1, 177895, Note_on_c, 0, 68, 57
1, 177904, Note_on_c, 0, 62, 45
1, 177905, Note_on_c, 0, 59, 38
1, 177908, Control_c, 0, 64, 67
1, 177923, Control_c, 0, 64, 61
1, 177937, Control_c, 0, 64, 59
1, 177952, Control_c, 0, 64, 61
1, 177967, Control_c, 0, 64, 63
1, 177982, Control_c, 0, 64, 64
1, 177997, Control_c, 0, 64, 66
1, 178007, Note_on_c, 0, 56, 47
1, 178012, Control_c, 0, 64, 68
1, 178027, Control_c, 0, 64, 71
1, 178042, Control_c, 0, 64, 74
1, 178056, Control_c, 0, 64, 75
1, 178071, Control_c, 0, 64, 77
1, 178083, Note_off_c, 0, 56, 0
1, 178086, Control_c, 0, 64, 77
1, 178096, Note_on_c, 0, 56, 40
1, 178101, Control_c, 0, 64, 78
1, 178116, Control_c, 0, 64, 79
1, 178175, Control_c, 0, 64, 77
1, 178186, Note_off_c, 0, 56, 44
1, 178190, Control_c, 0, 64, 75
1, 178205, Control_c, 0, 64, 71
1, 178219, Control_c, 0, 64, 67
1, 178220, Note_on_c, 0, 50, 40
1, 178234, Control_c, 0, 64, 65
1, 178235, Note_on_c, 0, 47, 42
1, 178249, Control_c, 0, 64, 65
1, 178264, Control_c, 0, 64, 66
1, 178274, Note_off_c, 0, 59, 47
1, 178279, Control_c, 0, 64, 68
1, 178293, Control_c, 0, 64, 70
1, 178298, Note_off_c, 0, 68, 34
1, 178308, Control_c, 0, 64, 72
1, 178317, Note_off_c, 0, 62, 60
1, 178323, Control_c, 0, 64, 74
1, 178337, Control_c, 0, 64, 76
1, 178348, Note_on_c, 0, 56, 47
1, 178352, Control_c, 0, 64, 77
1, 178367, Control_c, 0, 64, 78
1, 178382, Control_c, 0, 64, 79
1, 178390, Note_off_c, 0, 56, 60
1, 178419, Control_c, 0, 64, 80
1, 178434, Control_c, 0, 64, 80
1, 178449, Control_c, 0, 64, 81
1, 178472, Note_on_c, 0, 56, 54
1, 178503, Note_off_c, 0, 56, 57
1, 178508, Note_off_c, 0, 47, 44
1, 178510, Note_off_c, 0, 50, 29
1, 178539, Control_c, 0, 64, 80
1, 178554, Control_c, 0, 64, 77
1, 178568, Control_c, 0, 64, 73
1, 178583, Control_c, 0, 64, 66
1, 178590, Note_on_c, 0, 67, 53
1, 178598, Control_c, 0, 64, 60
1, 178600, Note_on_c, 0, 58, 42
1, 178604, Note_on_c, 0, 61, 40
1, 178613, Control_c, 0, 64, 54
1, 178628, Control_c, 0, 64, 55
1, 178642, Control_c, 0, 64, 57
1, 178657, Control_c, 0, 64, 59
1, 178672, Control_c, 0, 64, 61
1, 178687, Control_c, 0, 64, 63
1, 178702, Control_c, 0, 64, 65
1, 178711, Note_on_c, 0, 56, 49
1, 178716, Control_c, 0, 64, 68
1, 178731, Control_c, 0, 64, 72
1, 178745, Note_off_c, 0, 56, 55
1, 178746, Control_c, 0, 64, 75
1, 178760, Control_c, 0, 64, 76
1, 178775, Control_c, 0, 64, 77
1, 178790, Control_c, 0, 64, 77
1, 178805, Control_c, 0, 64, 78
1, 178812, Note_on_c, 0, 56, 46
1, 178820, Control_c, 0, 64, 79
1, 178834, Control_c, 0, 64, 79
1, 178846, Note_off_c, 0, 67, 53
1, 178879, Control_c, 0, 64, 79
1, 178891, Note_off_c, 0, 56, 45
1, 178894, Control_c, 0, 64, 77
1, 178909, Control_c, 0, 64, 73
1, 178924, Control_c, 0, 64, 68
1, 178934, Note_on_c, 0, 49, 42
1, 178936, Note_off_c, 0, 61, 55
1, 178939, Control_c, 0, 64, 64
1, 178942, Note_on_c, 0, 46, 44
1, 178954, Control_c, 0, 64, 63
1, 178968, Note_off_c, 0, 58, 37
1, 178968, Control_c, 0, 64, 64
1, 178983, Control_c, 0, 64, 65
1, 178998, Control_c, 0, 64, 66
1, 179013, Control_c, 0, 64, 68
1, 179028, Control_c, 0, 64, 71
1, 179042, Control_c, 0, 64, 73
1, 179057, Control_c, 0, 64, 74
1, 179061, Note_on_c, 0, 56, 54
1, 179072, Control_c, 0, 64, 76
1, 179086, Control_c, 0, 64, 77
1, 179101, Control_c, 0, 64, 78
1, 179103, Note_off_c, 0, 56, 60
1, 179116, Control_c, 0, 64, 78
1, 179146, Control_c, 0, 64, 79
1, 179168, Control_c, 0, 64, 79
1, 179183, Control_c, 0, 64, 80
1, 179204, Note_on_c, 0, 56, 48
1, 179218, Note_off_c, 0, 49, 35
1, 179237, Note_off_c, 0, 56, 50
1, 179239, Note_off_c, 0, 46, 38
1, 179257, Control_c, 0, 64, 79
1, 179272, Control_c, 0, 64, 78
1, 179288, Control_c, 0, 64, 74
1, 179302, Control_c, 0, 64, 68
1, 179317, Control_c, 0, 64, 63
1, 179332, Note_on_c, 0, 60, 37
1, 179332, Control_c, 0, 64, 59
1, 179335, Note_on_c, 0, 57, 38
1, 179335, Note_on_c, 0, 66, 44
1, 179362, Control_c, 0, 64, 59
1, 179377, Control_c, 0, 64, 60
1, 179391, Control_c, 0, 64, 61
1, 179406, Control_c, 0, 64, 62
1, 179421, Control_c, 0, 64, 64
1, 179436, Control_c, 0, 64, 66
1, 179451, Control_c, 0, 64, 68
1, 179465, Control_c, 0, 64, 71
1, 179470, Note_on_c, 0, 56, 38
1, 179480, Control_c, 0, 64, 73
1, 179495, Control_c, 0, 64, 74
1, 179508, Note_off_c, 0, 56, 45
1, 179509, Control_c, 0, 64, 75
1, 179524, Control_c, 0, 64, 76
1, 179539, Control_c, 0, 64, 77
1, 179554, Control_c, 0, 64, 78
1, 179565, Note_on_c, 0, 56, 35
1, 179569, Control_c, 0, 64, 79
1, 179643, Control_c, 0, 64, 78
1, 179657, Control_c, 0, 64, 76
1, 179672, Control_c, 0, 64, 72
1, 179687, Control_c, 0, 64, 69
1, 179699, Note_on_c, 0, 48, 39
1, 179702, Control_c, 0, 64, 66
1, 179702, Note_off_c, 0, 56, 35
1, 179708, Note_on_c, 0, 45, 34
1, 179715, Note_off_c, 0, 57, 34
1, 179717, Control_c, 0, 64, 65
1, 179732, Control_c, 0, 64, 66
1, 179747, Control_c, 0, 64, 67
1, 179762, Control_c, 0, 64, 68
1, 179765, Note_off_c, 0, 66, 38
1, 179776, Control_c, 0, 64, 70
1, 179791, Control_c, 0, 64, 72
1, 179792, Note_off_c, 0, 60, 30
1, 179806, Control_c, 0, 64, 74
1, 179821, Control_c, 0, 64, 75
1, 179836, Control_c, 0, 64, 76
1, 179851, Control_c, 0, 64, 76
1, 179855, Note_on_c, 0, 56, 39
1, 179901, Note_off_c, 0, 56, 44
1, 180030, Note_on_c, 0, 56, 47
1, 180090, Note_off_c, 0, 56, 41
1, 180157, Note_off_c, 0, 48, 38
1, 180193, Note_off_c, 0, 45, 41
1, 180347, Control_c, 0, 64, 76
1, 180362, Control_c, 0, 64, 75
1, 180377, Control_c, 0, 64, 73
1, 180384, Note_on_c, 0, 66, 46
1, 180392, Control_c, 0, 64, 71
1, 180399, Note_on_c, 0, 56, 33
1, 180399, Note_on_c, 0, 60, 29
1, 180406, Control_c, 0, 64, 69
1, 180421, Control_c, 0, 64, 66
1, 180436, Control_c, 0, 64, 64
1, 180451, Control_c, 0, 64, 63
1, 180495, Control_c, 0, 64, 62
1, 180510, Control_c, 0, 64, 61
1, 180525, Control_c, 0, 64, 59
1, 180540, Control_c, 0, 64, 58
1, 180554, Control_c, 0, 64, 58
1, 180569, Control_c, 0, 64, 57
1, 180584, Control_c, 0, 64, 56
1, 180585, Note_on_c, 0, 44, 36
1, 180599, Control_c, 0, 64, 54
1, 180614, Control_c, 0, 64, 53
1, 180666, Control_c, 0, 64, 53
1, 180681, Control_c, 0, 64, 54
1, 180695, Control_c, 0, 64, 56
1, 180710, Control_c, 0, 64, 58
1, 180725, Control_c, 0, 64, 62
1, 180727, Note_on_c, 0, 43, 38
1, 180738, Note_off_c, 0, 44, 43
1, 180739, Control_c, 0, 64, 65
1, 180754, Control_c, 0, 64, 67
1, 180769, Control_c, 0, 64, 70
1, 180784, Control_c, 0, 64, 72
1, 180787, Note_off_c, 0, 56, 53
1, 180799, Control_c, 0, 64, 74
1, 180814, Control_c, 0, 64, 76
1, 180829, Control_c, 0, 64, 78
1, 180844, Control_c, 0, 64, 79
1, 180848, Note_off_c, 0, 60, 59
1, 180858, Control_c, 0, 64, 80
1, 180867, Note_on_c, 0, 44, 47
1, 180909, Note_off_c, 0, 43, 43
1, 180921, Note_off_c, 0, 66, 65
1, 180976, Note_off_c, 0, 44, 60
1, 180991, Note_on_c, 0, 46, 54
1, 181117, Note_on_c, 0, 44, 49
1, 181149, Note_off_c, 0, 46, 50
1, 181155, Control_c, 0, 64, 79
1, 181185, Control_c, 0, 64, 79
1, 181200, Control_c, 0, 64, 78
1, 181215, Control_c, 0, 64, 78
1, 181229, Control_c, 0, 64, 77
1, 181241, Note_off_c, 0, 44, 59
1, 181258, Note_on_c, 0, 75, 48
1, 181259, Note_on_c, 0, 42, 49
1, 181259, Control_c, 0, 64, 77
1, 181303, Control_c, 0, 64, 76
1, 181333, Control_c, 0, 64, 76
1, 181362, Control_c, 0, 64, 75
1, 181370, Note_on_c, 0, 44, 56
1, 181387, Note_on_c, 0, 77, 56
1, 181391, Note_off_c, 0, 42, 50
1, 181392, Control_c, 0, 64, 75
1, 181395, Note_off_c, 0, 75, 61
1, 181429, Control_c, 0, 64, 74
1, 181505, Note_off_c, 0, 77, 57
1, 181513, Note_on_c, 0, 42, 49
1, 181517, Note_on_c, 0, 75, 63
1, 181518, Control_c, 0, 64, 74
1, 181592, Control_c, 0, 64, 73
1, 181618, Note_on_c, 0, 41, 56
1, 181624, Note_off_c, 0, 42, 59
1, 181631, Note_off_c, 0, 75, 63
1, 181634, Note_on_c, 0, 73, 68
1, 181682, Control_c, 0, 64, 73
1, 181732, Note_off_c, 0, 41, 59
1, 181750, Note_on_c, 0, 42, 60
1, 181750, Note_off_c, 0, 73, 62
1, 181756, Note_on_c, 0, 75, 68
1, 181756, Control_c, 0, 64, 72
1, 181845, Note_off_c, 0, 42, 61
1, 181860, Control_c, 0, 64, 72
1, 181863, Note_on_c, 0, 41, 56
1, 181869, Note_on_c, 0, 73, 67
1, 181887, Note_off_c, 0, 75, 55
1, 181934, Control_c, 0, 64, 71
1, 181949, Control_c, 0, 64, 71
1, 181964, Control_c, 0, 64, 70
1, 181977, Note_off_c, 0, 41, 57
1, 181978, Control_c, 0, 64, 68
1, 181993, Control_c, 0, 64, 67
1, 181995, Note_off_c, 0, 73, 61
1, 182008, Control_c, 0, 64, 65
1, 182012, Note_on_c, 0, 72, 62
1, 182021, Note_on_c, 0, 39, 43
1, 182023, Control_c, 0, 64, 64
1, 182038, Control_c, 0, 64, 63
1, 182052, Control_c, 0, 64, 62
1, 182059, Note_off_c, 0, 44, 58
1, 182067, Control_c, 0, 64, 61
1, 182082, Control_c, 0, 64, 61
1, 182097, Control_c, 0, 64, 60
1, 182111, Control_c, 0, 64, 58
1, 182126, Control_c, 0, 64, 57
1, 182141, Control_c, 0, 64, 57
1, 182176, Note_on_c, 0, 44, 48
1, 182178, Control_c, 0, 64, 56
1, 182185, Note_on_c, 0, 78, 61
1, 182223, Control_c, 0, 64, 57
1, 182238, Control_c, 0, 64, 59
1, 182252, Control_c, 0, 64, 62
1, 182267, Control_c, 0, 64, 66
1, 182268, Note_off_c, 0, 44, 59
1, 182282, Control_c, 0, 64, 70
1, 182295, Note_on_c, 0, 43, 46
1, 182297, Control_c, 0, 64, 74
1, 182299, Note_off_c, 0, 72, 63
1, 182311, Control_c, 0, 64, 76
1, 182326, Control_c, 0, 64, 77
1, 182341, Control_c, 0, 64, 78
1, 182356, Control_c, 0, 64, 78
1, 182371, Control_c, 0, 64, 79
1, 182385, Control_c, 0, 64, 79
1, 182392, Note_off_c, 0, 43, 56
1, 182397, Note_off_c, 0, 78, 63
1, 182400, Control_c, 0, 64, 80
1, 182413, Note_off_c, 0, 39, 40
1, 182414, Note_on_c, 0, 44, 47
1, 182537, Note_on_c, 0, 46, 61
1, 182557, Note_off_c, 0, 44, 36
1, 182617, Note_off_c, 0, 46, 61
1, 182634, Note_on_c, 0, 44, 55
1, 182713, Control_c, 0, 64, 79
1, 182728, Control_c, 0, 64, 77
1, 182736, Note_on_c, 0, 78, 65
1, 182742, Control_c, 0, 64, 72
1, 182756, Note_on_c, 0, 39, 52
1, 182757, Control_c, 0, 64, 65
1, 182772, Control_c, 0, 64, 57
1, 182787, Control_c, 0, 64, 48
1, 182802, Control_c, 0, 64, 46
1, 182817, Control_c, 0, 64, 48
1, 182832, Control_c, 0, 64, 51
1, 182847, Control_c, 0, 64, 55
1, 182862, Control_c, 0, 64, 61
1, 182865, Note_on_c, 0, 80, 69
1, 182865, Note_off_c, 0, 39, 62
1, 182872, Note_off_c, 0, 78, 61
1, 182875, Note_on_c, 0, 41, 59
1, 182876, Control_c, 0, 64, 66
1, 182891, Control_c, 0, 64, 70
1, 182913, Control_c, 0, 64, 74
1, 182928, Control_c, 0, 64, 77
1, 182942, Control_c, 0, 64, 79
1, 182957, Control_c, 0, 64, 80
1, 182972, Control_c, 0, 64, 81
1, 182979, Note_off_c, 0, 41, 61
1, 182985, Note_on_c, 0, 78, 78
1, 182987, Control_c, 0, 64, 82
1, 182993, Note_on_c, 0, 39, 65
1, 183002, Control_c, 0, 64, 83
1, 183005, Note_off_c, 0, 80, 56
1, 183017, Control_c, 0, 64, 83
1, 183032, Control_c, 0, 64, 84
1, 183091, Control_c, 0, 64, 84
1, 183094, Note_on_c, 0, 77, 76
1, 183106, Note_on_c, 0, 37, 61
1, 183110, Note_off_c, 0, 39, 59
1, 183111, Note_off_c, 0, 78, 63
1, 183208, Note_off_c, 0, 37, 61
1, 183216, Note_on_c, 0, 78, 82
1, 183229, Note_off_c, 0, 77, 54
1, 183231, Note_on_c, 0, 39, 68
1, 183330, Note_off_c, 0, 39, 57
1, 183342, Note_on_c, 0, 37, 61
1, 183345, Note_on_c, 0, 77, 79
1, 183371, Note_off_c, 0, 78, 63
1, 183443, Note_off_c, 0, 37, 59
1, 183491, Control_c, 0, 64, 84
1, 183506, Control_c, 0, 64, 82
1, 183507, Note_on_c, 0, 36, 60
1, 183520, Note_on_c, 0, 75, 74
1, 183520, Control_c, 0, 64, 79
1, 183525, Note_off_c, 0, 77, 62
1, 183535, Control_c, 0, 64, 75
1, 183543, Note_off_c, 0, 44, 52
1, 183550, Control_c, 0, 64, 68
1, 183565, Control_c, 0, 64, 61
1, 183580, Control_c, 0, 64, 47
1, 183595, Control_c, 0, 64, 42
1, 183610, Control_c, 0, 64, 43
1, 183624, Control_c, 0, 64, 44
1, 183661, Control_c, 0, 64, 44
1, 183676, Control_c, 0, 64, 47
1, 183679, Note_on_c, 0, 44, 52
1, 183686, Note_on_c, 0, 87, 75
1, 183690, Control_c, 0, 64, 54
1, 183705, Control_c, 0, 64, 60
1, 183720, Control_c, 0, 64, 64
1, 183735, Control_c, 0, 64, 67
1, 183750, Control_c, 0, 64, 71
1, 183765, Control_c, 0, 64, 75
1, 183780, Control_c, 0, 64, 78
1, 183781, Note_off_c, 0, 44, 49
1, 183789, Note_on_c, 0, 43, 55
1, 183795, Control_c, 0, 64, 81
1, 183799, Note_off_c, 0, 75, 61
1, 183810, Control_c, 0, 64, 83
1, 183825, Control_c, 0, 64, 84
1, 183839, Control_c, 0, 64, 85
1, 183848, Note_off_c, 0, 36, 56
1, 183854, Control_c, 0, 64, 85
1, 183881, Note_off_c, 0, 43, 61
1, 183898, Control_c, 0, 64, 86
1, 183905, Note_on_c, 0, 44, 63
1, 183961, Note_off_c, 0, 87, 48
1, 184025, Note_off_c, 0, 44, 57
1, 184027, Note_on_c, 0, 46, 68
1, 184115, Note_off_c, 0, 46, 62
1, 184145, Note_on_c, 0, 44, 60
1, 184225, Control_c, 0, 64, 85
1, 184240, Control_c, 0, 64, 82
1, 184248, Note_on_c, 0, 87, 68
1, 184254, Control_c, 0, 64, 75
1, 184260, Note_on_c, 0, 36, 57
1, 184269, Control_c, 0, 64, 65
1, 184284, Control_c, 0, 64, 34
1, 184298, Control_c, 0, 64, 0
1, 184343, Control_c, 0, 64, 46
1, 184358, Control_c, 0, 64, 61
1, 184373, Control_c, 0, 64, 66
1, 184376, Note_on_c, 0, 89, 72
1, 184381, Note_off_c, 0, 36, 63
1, 184384, Note_on_c, 0, 37, 65
1, 184388, Control_c, 0, 64, 70
1, 184410, Control_c, 0, 64, 74
1, 184412, Note_off_c, 0, 87, 62
1, 184425, Control_c, 0, 64, 77
1, 184440, Control_c, 0, 64, 79
1, 184454, Control_c, 0, 64, 81
1, 184469, Control_c, 0, 64, 82
1, 184483, Note_off_c, 0, 37, 61
1, 184495, Note_on_c, 0, 36, 69
1, 184499, Control_c, 0, 64, 82
1, 184501, Note_on_c, 0, 87, 80
1, 184513, Control_c, 0, 64, 83
1, 184543, Control_c, 0, 64, 83
1, 184576, Note_off_c, 0, 89, 55
1, 184610, Note_on_c, 0, 85, 80
1, 184614, Note_on_c, 0, 34, 72
1, 184619, Note_off_c, 0, 36, 63
1, 184635, Note_off_c, 0, 87, 63
1, 184722, Note_on_c, 0, 87, 87
1, 184731, Note_off_c, 0, 34, 64
1, 184732, Note_on_c, 0, 36, 70
1, 184753, Note_off_c, 0, 85, 65
1, 184828, Note_on_c, 0, 34, 68
1, 184828, Note_off_c, 0, 36, 63
1, 184840, Note_on_c, 0, 85, 84
1, 184861, Note_off_c, 0, 34, 68
1, 184874, Note_off_c, 0, 87, 63
1, 184904, Note_off_c, 0, 85, 65
1, 184915, Control_c, 0, 64, 83
1, 184929, Control_c, 0, 64, 82
1, 184944, Control_c, 0, 64, 82
1, 184957, Note_on_c, 0, 84, 83
1, 184959, Control_c, 0, 64, 81
1, 184963, Note_on_c, 0, 32, 73
1, 184974, Control_c, 0, 64, 81
1, 184989, Control_c, 0, 64, 80
1, 185003, Control_c, 0, 64, 80
1, 185018, Control_c, 0, 64, 79
1, 185030, Note_off_c, 0, 44, 55
1, 185033, Control_c, 0, 64, 78
1, 185048, Control_c, 0, 64, 77
1, 185063, Control_c, 0, 64, 75
1, 185074, Note_on_c, 0, 85, 80
1, 185076, Note_on_c, 0, 31, 73
1, 185077, Control_c, 0, 64, 74
1, 185092, Control_c, 0, 64, 73
1, 185099, Note_off_c, 0, 84, 61
1, 185107, Control_c, 0, 64, 73
1, 185108, Note_off_c, 0, 32, 61
1, 185121, Control_c, 0, 64, 72
1, 185136, Control_c, 0, 64, 70
1, 185159, Control_c, 0, 64, 69
1, 185174, Control_c, 0, 64, 68
1, 185189, Control_c, 0, 64, 67
1, 185202, Note_on_c, 0, 84, 90
1, 185203, Control_c, 0, 64, 67
1, 185218, Note_on_c, 0, 32, 79
1, 185247, Note_off_c, 0, 31, 62
1, 185249, Note_off_c, 0, 85, 63
1, 185263, Control_c, 0, 64, 66
1, 185319, Note_on_c, 0, 82, 82
1, 185326, Note_on_c, 0, 34, 75
1, 185336, Control_c, 0, 64, 66
1, 185344, Note_off_c, 0, 84, 64
1, 185356, Note_off_c, 0, 32, 61
1, 185432, Note_on_c, 0, 84, 77
1, 185438, Note_on_c, 0, 32, 67
1, 185439, Note_off_c, 0, 34, 64
1, 185473, Note_off_c, 0, 82, 64
1, 185527, Control_c, 0, 64, 65
1, 185553, Note_on_c, 0, 34, 66
1, 185558, Note_off_c, 0, 32, 58
1, 185562, Note_on_c, 0, 82, 75
1, 185567, Note_off_c, 0, 84, 65
1, 185587, Control_c, 0, 64, 65
1, 185675, Note_off_c, 0, 34, 63
1, 185681, Note_on_c, 0, 80, 73
1, 185682, Note_on_c, 0, 35, 60
1, 185700, Note_off_c, 0, 82, 60
1, 185736, Control_c, 0, 64, 64
1, 185780, Control_c, 0, 64, 64
1, 185795, Note_off_c, 0, 35, 64
1, 185809, Note_on_c, 0, 34, 55
1, 185812, Note_on_c, 0, 82, 71
1, 185825, Note_off_c, 0, 80, 63
1, 185840, Control_c, 0, 64, 63
1, 185917, Note_off_c, 0, 34, 58
1, 185940, Note_on_c, 0, 35, 53
1, 185947, Note_on_c, 0, 80, 71
1, 185951, Note_off_c, 0, 82, 60
1, 186039, Control_c, 0, 64, 63
1, 186080, Note_off_c, 0, 35, 53
1, 186087, Note_on_c, 0, 36, 49
1, 186091, Note_on_c, 0, 78, 64
1, 186101, Note_off_c, 0, 80, 59
1, 186114, Control_c, 0, 64, 62
1, 186129, Control_c, 0, 64, 62
1, 186143, Control_c, 0, 64, 61
1, 186158, Control_c, 0, 64, 60
1, 186173, Control_c, 0, 64, 58
1, 186188, Control_c, 0, 64, 55
1, 186203, Control_c, 0, 64, 49
1, 186218, Control_c, 0, 64, 42
1, 186233, Control_c, 0, 64, 34
1, 186248, Control_c, 0, 64, 30
1, 186250, Note_on_c, 0, 80, 59
1, 186253, Note_off_c, 0, 36, 56
1, 186255, Note_off_c, 0, 78, 59
1, 186263, Control_c, 0, 64, 18
1, 186263, Note_on_c, 0, 35, 43
1, 186277, Control_c, 0, 64, 0
1, 186424, Note_off_c, 0, 35, 57
1, 186433, Note_on_c, 0, 78, 56
1, 186450, Note_off_c, 0, 80, 54
1, 186454, Note_on_c, 0, 36, 42
1, 186515, Control_c, 0, 64, 32
1, 186530, Control_c, 0, 64, 63
1, 186545, Control_c, 0, 64, 68
1, 186560, Control_c, 0, 64, 75
1, 186574, Control_c, 0, 64, 81
1, 186589, Control_c, 0, 64, 85
1, 186598, Note_off_c, 0, 36, 54
1, 186604, Control_c, 0, 64, 87
1, 186619, Control_c, 0, 64, 88
1, 186634, Control_c, 0, 64, 89
1, 186656, Control_c, 0, 64, 90
1, 186671, Control_c, 0, 64, 91
1, 186686, Control_c, 0, 64, 92
1, 186700, Control_c, 0, 64, 93
1, 186715, Control_c, 0, 64, 93
1, 186730, Control_c, 0, 64, 94
1, 186789, Control_c, 0, 64, 93
1, 186804, Control_c, 0, 64, 92
1, 186819, Control_c, 0, 64, 88
1, 186834, Control_c, 0, 64, 83
1, 186835, Note_on_c, 0, 77, 51
1, 186840, Note_on_c, 0, 37, 42
1, 186848, Control_c, 0, 64, 73
1, 186854, Note_off_c, 0, 78, 56
1, 186863, Control_c, 0, 64, 64
1, 186878, Control_c, 0, 64, 32
1, 186892, Control_c, 0, 64, 0
1, 187011, Control_c, 0, 64, 55
1, 187026, Control_c, 0, 64, 63
1, 187041, Control_c, 0, 64, 67
1, 187056, Control_c, 0, 64, 70
1, 187071, Control_c, 0, 64, 74
1, 187086, Control_c, 0, 64, 78
1, 187100, Control_c, 0, 64, 82
1, 187115, Control_c, 0, 64, 84
1, 187130, Control_c, 0, 64, 86
1, 187145, Control_c, 0, 64, 87
1, 187153, Note_on_c, 0, 44, 40
1, 187160, Control_c, 0, 64, 88
1, 187172, Note_on_c, 0, 41, 32
1, 187174, Control_c, 0, 64, 88
1, 187181, Note_on_c, 0, 49, 33
1, 187181, Note_off_c, 0, 37, 43
1, 187189, Control_c, 0, 64, 89
1, 187204, Control_c, 0, 64, 89
1, 187218, Control_c, 0, 64, 90
1, 187233, Control_c, 0, 64, 91
1, 187263, Control_c, 0, 64, 91
1, 187268, Note_off_c, 0, 41, 0
1, 187270, Note_off_c, 0, 49, 34
1, 187282, Note_off_c, 0, 44, 37
1, 187300, Poly_aftertouch_c, 0, 41, 0
1, 187312, Note_on_c, 0, 37, 39
1, 187323, Control_c, 0, 64, 92
1, 187365, Note_off_c, 0, 37, 47
1, 187431, Note_on_c, 0, 44, 39
1, 187434, Note_on_c, 0, 49, 39
1, 187461, Note_on_c, 0, 41, 30
1, 187508, Note_off_c, 0, 44, 50
1, 187515, Note_off_c, 0, 77, 49
1, 187521, Note_off_c, 0, 41, 46
1, 187523, Control_c, 0, 64, 92
1, 187532, Note_off_c, 0, 49, 36
1, 187553, Control_c, 0, 64, 93
1, 187568, Control_c, 0, 64, 93
1, 187571, Note_on_c, 0, 37, 28
1, 187583, Control_c, 0, 64, 94
1, 187597, Control_c, 0, 64, 95
1, 187612, Control_c, 0, 64, 95
1, 187621, Note_off_c, 0, 37, 52
1, 187627, Control_c, 0, 64, 96
1, 187642, Control_c, 0, 64, 98
1, 187657, Note_on_c, 0, 41, 33
1, 187657, Control_c, 0, 64, 99
1, 187661, Note_on_c, 0, 44, 43
1, 187671, Control_c, 0, 64, 101
1, 187676, Note_on_c, 0, 49, 37
1, 187686, Control_c, 0, 64, 103
1, 187701, Control_c, 0, 64, 104
1, 187716, Control_c, 0, 64, 105
1, 187730, Control_c, 0, 64, 106
1, 187745, Control_c, 0, 64, 108
1, 187750, Note_off_c, 0, 44, 55
1, 187760, Control_c, 0, 64, 109
1, 187772, Note_on_c, 0, 37, 40
1, 187774, Note_off_c, 0, 49, 33
1, 187775, Control_c, 0, 64, 110
1, 187790, Control_c, 0, 64, 112
1, 187792, Note_off_c, 0, 41, 37
1, 187804, Control_c, 0, 64, 113
1, 187819, Control_c, 0, 64, 114
1, 187834, Control_c, 0, 64, 115
1, 187849, Control_c, 0, 64, 116
1, 187864, Control_c, 0, 64, 116
1, 187876, Note_off_c, 0, 37, 55
1, 187879, Control_c, 0, 64, 117
1, 187893, Control_c, 0, 64, 117
1, 187908, Control_c, 0, 64, 118
1, 187909, Note_on_c, 0, 44, 34
1, 187915, Note_on_c, 0, 49, 39
1, 187928, Note_on_c, 0, 41, 31
1, 187938, Control_c, 0, 64, 118
1, 187983, Control_c, 0, 64, 119
1, 188016, Note_off_c, 0, 41, 40
1, 188025, Note_on_c, 0, 37, 46
1, 188027, Control_c, 0, 64, 119
1, 188040, Note_off_c, 0, 44, 36
1, 188057, Note_off_c, 0, 49, 33
1, 188172, Note_on_c, 0, 65, 57
1, 188180, Note_off_c, 0, 37, 35
1, 188180, Note_on_c, 0, 53, 47
1, 188186, Note_on_c, 0, 44, 37
1, 188192, Note_on_c, 0, 49, 20
1, 188198, Note_on_c, 0, 41, 23
1, 188245, Note_off_c, 0, 41, 57
1, 188254, Note_off_c, 0, 44, 54
1, 188284, Note_off_c, 0, 49, 36
1, 188286, Note_on_c, 0, 37, 40
1, 188291, Note_off_c, 0, 53, 64
1, 188317, Control_c, 0, 64, 120
1, 188361, Control_c, 0, 64, 120
1, 188376, Control_c, 0, 64, 121
1, 188382, Note_off_c, 0, 65, 61
1, 188389, Note_off_c, 0, 37, 54
1, 188391, Control_c, 0, 64, 121
1, 188406, Control_c, 0, 64, 122
1, 188420, Control_c, 0, 64, 123
1, 188422, Note_on_c, 0, 68, 66
1, 188423, Note_on_c, 0, 44, 34
1, 188431, Note_on_c, 0, 41, 32
1, 188435, Control_c, 0, 64, 123
1, 188437, Note_on_c, 0, 49, 23
1, 188445, Note_on_c, 0, 56, 18
1, 188450, Control_c, 0, 64, 125
1, 188457, Note_off_c, 0, 68, 65
1, 188465, Control_c, 0, 64, 126
1, 188479, Control_c, 0, 64, 127
1, 188490, Note_off_c, 0, 56, 37
1, 188521, Note_on_c, 0, 73, 70
1, 188525, Note_on_c, 0, 37, 49
1, 188533, Note_off_c, 0, 41, 37
1, 188542, Note_on_c, 0, 61, 43
1, 188549, Note_off_c, 0, 44, 36
1, 188573, Note_off_c, 0, 49, 36
1, 188642, Note_off_c, 0, 37, 61
1, 188656, Note_off_c, 0, 61, 59
1, 188675, Note_on_c, 0, 44, 44
1, 188688, Note_on_c, 0, 41, 37
1, 188690, Note_on_c, 0, 49, 42
1, 188769, Note_off_c, 0, 41, 57
1, 188780, Note_off_c, 0, 44, 57
1, 188791, Note_on_c, 0, 37, 49
1, 188846, Note_off_c, 0, 49, 38
1, 188911, Note_off_c, 0, 37, 60
1, 188932, Note_on_c, 0, 77, 65
1, 188938, Note_on_c, 0, 65, 55
1, 188951, Note_off_c, 0, 73, 61
1, 188953, Note_on_c, 0, 44, 33
1, 188958, Note_on_c, 0, 49, 35
1, 188958, Note_on_c, 0, 41, 31
1, 189017, Note_off_c, 0, 44, 56
1, 189050, Note_on_c, 0, 37, 47
1, 189056, Note_off_c, 0, 65, 64
1, 189062, Note_off_c, 0, 49, 47
1, 189089, Note_off_c, 0, 77, 61
1, 189091, Note_off_c, 0, 41, 0
1, 189128, Poly_aftertouch_c, 0, 41, 127
1, 189151, Note_off_c, 0, 37, 62
1, 189164, Note_on_c, 0, 44, 46
1, 189172, Note_on_c, 0, 49, 37
1, 189182, Poly_aftertouch_c, 0, 41, 0
1, 189201, Note_on_c, 0, 73, 56
1, 189216, Note_on_c, 0, 61, 51
1, 189229, Control_c, 0, 64, 127
1, 189244, Control_c, 0, 64, 116
1, 189245, Note_off_c, 0, 61, 65
1, 189259, Control_c, 0, 64, 105
1, 189269, Note_off_c, 0, 49, 37
1, 189274, Control_c, 0, 64, 94
1, 189289, Control_c, 0, 64, 80
1, 189293, Note_on_c, 0, 72, 68
1, 189296, Note_on_c, 0, 39, 54
1, 189303, Control_c, 0, 64, 65
1, 189304, Note_off_c, 0, 44, 39
1, 189307, Note_off_c, 0, 73, 57
1, 189312, Note_on_c, 0, 60, 45
1, 189318, Control_c, 0, 64, 0
1, 189435, Note_off_c, 0, 39, 57
1, 189437, Control_c, 0, 64, 63
1, 189445, Note_on_c, 0, 44, 30
1, 189450, Note_on_c, 0, 51, 39
1, 189451, Control_c, 0, 64, 72
1, 189456, Note_on_c, 0, 42, 39
1, 189466, Control_c, 0, 64, 80
1, 189481, Control_c, 0, 64, 86
1, 189495, Control_c, 0, 64, 89
1, 189510, Control_c, 0, 64, 90
1, 189520, Note_off_c, 0, 60, 62
1, 189525, Control_c, 0, 64, 91
1, 189538, Note_off_c, 0, 42, 55
1, 189540, Control_c, 0, 64, 92
1, 189555, Control_c, 0, 64, 93
1, 189569, Control_c, 0, 64, 94
1, 189572, Note_on_c, 0, 39, 50
1, 189581, Note_off_c, 0, 44, 36
1, 189584, Control_c, 0, 64, 94
1, 189594, Note_off_c, 0, 51, 33
1, 189599, Control_c, 0, 64, 95
1, 189613, Control_c, 0, 64, 96
1, 189628, Control_c, 0, 64, 97
1, 189651, Control_c, 0, 64, 97
1, 189667, Control_c, 0, 64, 98
1, 189682, Control_c, 0, 64, 98
1, 189697, Note_on_c, 0, 75, 64
1, 189697, Control_c, 0, 64, 99
1, 189703, Note_on_c, 0, 63, 49
1, 189709, Note_on_c, 0, 44, 42
1, 189709, Note_off_c, 0, 72, 57
1, 189712, Control_c, 0, 64, 100
1, 189712, Note_off_c, 0, 39, 43
1, 189726, Note_on_c, 0, 51, 43
1, 189726, Control_c, 0, 64, 101
1, 189733, Note_on_c, 0, 42, 22
1, 189741, Control_c, 0, 64, 101
1, 189756, Control_c, 0, 64, 102
1, 189771, Control_c, 0, 64, 103
1, 189774, Note_off_c, 0, 42, 50
1, 189780, Note_off_c, 0, 44, 56
1, 189786, Control_c, 0, 64, 103
1, 189795, Note_off_c, 0, 63, 58
1, 189800, Note_off_c, 0, 51, 46
1, 189800, Control_c, 0, 64, 104
1, 189815, Control_c, 0, 64, 105
1, 189825, Note_on_c, 0, 39, 46
1, 189830, Control_c, 0, 64, 106
1, 189845, Control_c, 0, 64, 106
1, 189860, Control_c, 0, 64, 107
1, 189874, Control_c, 0, 64, 107
1, 189889, Control_c, 0, 64, 108
1, 189899, Note_off_c, 0, 75, 63
1, 189909, Note_on_c, 0, 42, 28
1, 189913, Note_on_c, 0, 44, 43
1, 189926, Note_off_c, 0, 39, 58
1, 189935, Note_on_c, 0, 51, 45
1, 189941, Note_off_c, 0, 44, 58
1, 189947, Note_off_c, 0, 42, 53
1, 189965, Note_off_c, 0, 51, 57
1, 189992, Note_on_c, 0, 72, 65
1, 189998, Note_on_c, 0, 60, 55
1, 190034, Note_off_c, 0, 60, 64
1, 190037, Control_c, 0, 64, 107
1, 190052, Control_c, 0, 64, 104
1, 190066, Control_c, 0, 64, 99
1, 190081, Control_c, 0, 64, 92
1, 190096, Control_c, 0, 64, 81
1, 190111, Control_c, 0, 64, 70
1, 190125, Control_c, 0, 64, 56
1, 190132, Note_on_c, 0, 73, 65
1, 190135, Note_off_c, 0, 72, 65
1, 190138, Note_on_c, 0, 41, 48
1, 190138, Note_on_c, 0, 61, 55
1, 190140, Control_c, 0, 64, 0
1, 190273, Control_c, 0, 64, 58
1, 190288, Control_c, 0, 64, 70
1, 190300, Note_on_c, 0, 49, 33
1, 190303, Control_c, 0, 64, 78
1, 190305, Note_on_c, 0, 44, 34
1, 190308, Note_off_c, 0, 41, 38
1, 190310, Note_on_c, 0, 53, 33
1, 190317, Control_c, 0, 64, 86
1, 190326, Note_off_c, 0, 73, 64
1, 190332, Control_c, 0, 64, 90
1, 190347, Control_c, 0, 64, 92
1, 190357, Note_off_c, 0, 61, 61
1, 190362, Control_c, 0, 64, 94
1, 190365, Note_off_c, 0, 44, 46
1, 190377, Control_c, 0, 64, 96
1, 190399, Control_c, 0, 64, 98
1, 190414, Control_c, 0, 64, 99
1, 190419, Note_off_c, 0, 49, 37
1, 190429, Note_on_c, 0, 41, 45
1, 190429, Control_c, 0, 64, 100
1, 190443, Control_c, 0, 64, 101
1, 190448, Note_off_c, 0, 53, 39
1, 190458, Control_c, 0, 64, 101
1, 190475, Control_c, 0, 64, 102
1, 190490, Control_c, 0, 64, 102
1, 190518, Note_off_c, 0, 41, 48
1, 190569, Note_on_c, 0, 68, 51
1, 190579, Note_on_c, 0, 56, 40
1, 190588, Note_on_c, 0, 53, 28
1, 190595, Note_on_c, 0, 49, 21
1, 190604, Note_on_c, 0, 44, 11
1, 190637, Control_c, 0, 64, 103
1, 190657, Note_off_c, 0, 44, 44
1, 190669, Note_off_c, 0, 49, 39
1, 190681, Control_c, 0, 64, 103
1, 190699, Note_off_c, 0, 53, 38
1, 190700, Note_on_c, 0, 41, 32
1, 190711, Control_c, 0, 64, 104
1, 190740, Control_c, 0, 64, 104
1, 190755, Control_c, 0, 64, 105
1, 190770, Control_c, 0, 64, 105
1, 190785, Control_c, 0, 64, 106
1, 190800, Control_c, 0, 64, 106
1, 190803, Note_off_c, 0, 41, 37
1, 190808, Note_on_c, 0, 53, 38
1, 190810, Note_off_c, 0, 56, 61
1, 190811, Note_on_c, 0, 49, 37
1, 190821, Note_on_c, 0, 44, 21
1, 190845, Control_c, 0, 64, 107
1, 190859, Control_c, 0, 64, 107
1, 190884, Note_off_c, 0, 44, 57
1, 190888, Note_off_c, 0, 49, 52
1, 190889, Control_c, 0, 64, 108
1, 190922, Note_on_c, 0, 41, 51
1, 190928, Note_off_c, 0, 53, 35
1, 190948, Control_c, 0, 64, 108
1, 191037, Control_c, 0, 64, 109
1, 191038, Note_on_c, 0, 49, 45
1, 191044, Note_on_c, 0, 44, 40
1, 191054, Note_on_c, 0, 53, 49
1, 191065, Note_off_c, 0, 41, 38
1, 191096, Control_c, 0, 64, 109
1, 191125, Note_off_c, 0, 44, 40
1, 191126, Control_c, 0, 64, 110
1, 191130, Note_off_c, 0, 53, 62
1, 191148, Control_c, 0, 64, 111
1, 191163, Control_c, 0, 64, 111
1, 191167, Note_on_c, 0, 41, 53
1, 191178, Control_c, 0, 64, 112
1, 191178, Note_off_c, 0, 49, 46
1, 191193, Control_c, 0, 64, 114
1, 191201, Note_off_c, 0, 41, 63
1, 191208, Control_c, 0, 64, 114
1, 191222, Control_c, 0, 64, 115
1, 191237, Control_c, 0, 64, 115
1, 191268, Control_c, 0, 64, 114
1, 191283, Control_c, 0, 64, 108
1, 191295, Note_on_c, 0, 70, 75
1, 191297, Control_c, 0, 64, 97
1, 191298, Note_on_c, 0, 51, 50
1, 191301, Note_on_c, 0, 54, 48
1, 191301, Note_on_c, 0, 58, 62
1, 191312, Note_on_c, 0, 49, 54
1, 191312, Control_c, 0, 64, 84
1, 191323, Note_off_c, 0, 68, 63
1, 191327, Control_c, 0, 64, 70
1, 191342, Control_c, 0, 64, 0
1, 191404, Note_off_c, 0, 49, 54
1, 191414, Note_on_c, 0, 42, 59
1, 191416, Note_off_c, 0, 51, 60
1, 191416, Control_c, 0, 64, 59
1, 191421, Note_off_c, 0, 54, 56
1, 191431, Control_c, 0, 64, 67
1, 191445, Control_c, 0, 64, 74
1, 191460, Control_c, 0, 64, 80
1, 191475, Control_c, 0, 64, 85
1, 191489, Control_c, 0, 64, 88
1, 191504, Control_c, 0, 64, 90
1, 191512, Note_off_c, 0, 58, 62
1, 191519, Control_c, 0, 64, 92
1, 191533, Note_off_c, 0, 42, 61
1, 191534, Control_c, 0, 64, 95
1, 191538, Note_on_c, 0, 49, 54
1, 191543, Note_on_c, 0, 51, 51
1, 191547, Note_on_c, 0, 54, 54
1, 191549, Control_c, 0, 64, 96
1, 191563, Control_c, 0, 64, 97
1, 191593, Control_c, 0, 64, 97
1, 191596, Note_off_c, 0, 49, 54
1, 191597, Note_off_c, 0, 51, 53
1, 191600, Note_on_c, 0, 66, 72
1, 191617, Note_off_c, 0, 54, 60
1, 191637, Note_off_c, 0, 70, 57
1, 191682, Control_c, 0, 64, 96
1, 191697, Control_c, 0, 64, 92
1, 191703, Note_on_c, 0, 44, 61
1, 191711, Note_on_c, 0, 65, 82
1, 191712, Control_c, 0, 64, 85
1, 191727, Control_c, 0, 64, 73
1, 191727, Note_off_c, 0, 66, 64
1, 191742, Control_c, 0, 64, 61
1, 191757, Control_c, 0, 64, 0
1, 191858, Note_on_c, 0, 56, 50
1, 191860, Control_c, 0, 64, 46
1, 191868, Note_on_c, 0, 53, 55
1, 191870, Note_off_c, 0, 44, 62
1, 191873, Note_on_c, 0, 49, 43
1, 191875, Control_c, 0, 64, 66
1, 191897, Control_c, 0, 64, 72
1, 191912, Control_c, 0, 64, 79
1, 191927, Control_c, 0, 64, 86
1, 191942, Control_c, 0, 64, 89
1, 191956, Control_c, 0, 64, 92
1, 191971, Control_c, 0, 64, 95
1, 191977, Note_off_c, 0, 49, 56
1, 191980, Note_off_c, 0, 53, 62
1, 191986, Control_c, 0, 64, 97
1, 192001, Control_c, 0, 64, 98
1, 192004, Note_on_c, 0, 44, 62
1, 192015, Control_c, 0, 64, 99
1, 192043, Note_off_c, 0, 56, 34
1, 192111, Note_on_c, 0, 68, 88
1, 192124, Note_on_c, 0, 56, 60
1, 192128, Note_off_c, 0, 44, 57
1, 192129, Note_on_c, 0, 49, 54
1, 192132, Note_on_c, 0, 53, 55
1, 192135, Note_off_c, 0, 65, 64
1, 192205, Note_off_c, 0, 49, 56
1, 192219, Note_off_c, 0, 53, 61
1, 192224, Note_on_c, 0, 44, 66
1, 192225, Note_off_c, 0, 56, 47
1, 192342, Note_on_c, 0, 56, 67
1, 192347, Note_on_c, 0, 53, 61
1, 192353, Note_on_c, 0, 49, 59
1, 192360, Note_off_c, 0, 44, 55
1, 192366, Note_on_c, 0, 65, 80
1, 192368, Note_off_c, 0, 68, 62
1, 192432, Control_c, 0, 64, 98
1, 192437, Note_off_c, 0, 53, 59
1, 192446, Control_c, 0, 64, 93
1, 192454, Note_on_c, 0, 63, 94
1, 192459, Note_on_c, 0, 44, 67
1, 192461, Control_c, 0, 64, 83
1, 192463, Note_off_c, 0, 65, 64
1, 192467, Note_off_c, 0, 49, 57
1, 192473, Note_off_c, 0, 56, 54
1, 192476, Control_c, 0, 64, 69
1, 192491, Control_c, 0, 64, 0
1, 192585, Note_on_c, 0, 56, 67
1, 192592, Note_on_c, 0, 48, 62
1, 192593, Note_on_c, 0, 51, 64
1, 192594, Control_c, 0, 64, 65
1, 192600, Note_off_c, 0, 44, 61
1, 192609, Control_c, 0, 64, 74
1, 192624, Control_c, 0, 64, 83
1, 192646, Control_c, 0, 64, 89
1, 192661, Control_c, 0, 64, 91
1, 192671, Note_off_c, 0, 48, 62
1, 192671, Note_off_c, 0, 56, 58
1, 192676, Control_c, 0, 64, 93
1, 192683, Note_off_c, 0, 51, 58
1, 192691, Control_c, 0, 64, 95
1, 192706, Control_c, 0, 64, 98
1, 192714, Note_on_c, 0, 44, 74
1, 192720, Control_c, 0, 64, 102
1, 192735, Control_c, 0, 64, 105
1, 192750, Control_c, 0, 64, 108
1, 192765, Control_c, 0, 64, 111
1, 192780, Control_c, 0, 64, 113
1, 192794, Control_c, 0, 64, 115
1, 192809, Control_c, 0, 64, 117
1, 192824, Control_c, 0, 64, 119
1, 192836, Note_on_c, 0, 66, 95
1, 192839, Control_c, 0, 64, 121
1, 192845, Note_on_c, 0, 48, 61
1, 192845, Note_on_c, 0, 56, 65
1, 192851, Note_off_c, 0, 44, 63
1, 192852, Note_on_c, 0, 51, 66
1, 192854, Control_c, 0, 64, 124
1, 192869, Control_c, 0, 64, 127
1, 192875, Note_off_c, 0, 63, 62
1, 192925, Note_off_c, 0, 48, 62
1, 192928, Note_off_c, 0, 51, 60
1, 192946, Note_on_c, 0, 44, 66
1, 192966, Note_off_c, 0, 56, 51
1, 193086, Note_on_c, 0, 56, 69
1, 193089, Note_on_c, 0, 51, 66
1, 193090, Note_on_c, 0, 48, 54
1, 193092, Note_off_c, 0, 44, 63
1, 193122, Note_off_c, 0, 56, 58
1, 193124, Note_off_c, 0, 51, 62
1, 193126, Note_off_c, 0, 48, 65
1, 193153, Note_on_c, 0, 63, 87
1, 193196, Note_off_c, 0, 66, 62
1, 193269, Control_c, 0, 64, 108
1, 193284, Control_c, 0, 64, 89
1, 193299, Control_c, 0, 64, 69
1, 193314, Control_c, 0, 64, 0
1, 193318, Note_on_c, 0, 45, 66
1, 193320, Note_on_c, 0, 60, 85
1, 193365, Note_off_c, 0, 63, 62
1, 193487, Note_on_c, 0, 57, 54
1, 193500, Note_on_c, 0, 53, 54
1, 193507, Note_on_c, 0, 48, 56
1, 193514, Control_c, 0, 64, 40
1, 193529, Control_c, 0, 64, 71
1, 193530, Note_off_c, 0, 45, 60
1, 193543, Control_c, 0, 64, 81
1, 193558, Control_c, 0, 64, 88
1, 193573, Control_c, 0, 64, 91
1, 193587, Control_c, 0, 64, 93
1, 193600, Note_off_c, 0, 48, 58
1, 193602, Control_c, 0, 64, 95
1, 193616, Note_off_c, 0, 53, 61
1, 193617, Control_c, 0, 64, 97
1, 193632, Control_c, 0, 64, 100
1, 193635, Note_on_c, 0, 45, 61
1, 193647, Control_c, 0, 64, 102
1, 193661, Note_off_c, 0, 57, 56
1, 193663, Control_c, 0, 64, 104
1, 193678, Control_c, 0, 64, 105
1, 193692, Control_c, 0, 64, 107
1, 193706, Control_c, 0, 64, 108
1, 193721, Control_c, 0, 64, 110
1, 193736, Control_c, 0, 64, 111
1, 193751, Control_c, 0, 64, 112
1, 193766, Control_c, 0, 64, 113
1, 193785, Note_off_c, 0, 45, 37
1, 193796, Control_c, 0, 64, 113
1, 193799, Note_on_c, 0, 57, 45
1, 193803, Note_on_c, 0, 65, 74
1, 193811, Control_c, 0, 64, 114
1, 193814, Note_on_c, 0, 48, 41
1, 193818, Note_on_c, 0, 53, 43
1, 193870, Control_c, 0, 64, 114
1, 193874, Note_off_c, 0, 48, 57
1, 193901, Note_off_c, 0, 53, 59
1, 193915, Note_on_c, 0, 45, 48
1, 193945, Note_off_c, 0, 57, 37
1, 194019, Note_off_c, 0, 45, 56
1, 194061, Note_on_c, 0, 48, 37
1, 194061, Note_on_c, 0, 53, 35
1, 194064, Note_on_c, 0, 57, 36
1, 194107, Note_off_c, 0, 48, 46
1, 194121, Note_off_c, 0, 60, 57
1, 194172, Note_on_c, 0, 45, 49
1, 194189, Note_off_c, 0, 57, 26
1, 194197, Note_off_c, 0, 53, 35
1, 194242, Note_off_c, 0, 65, 63
1, 194301, Note_off_c, 0, 45, 36
1, 194321, Note_on_c, 0, 57, 35
1, 194343, Note_on_c, 0, 48, 26
1, 194344, Note_on_c, 0, 53, 24
1, 194368, Note_off_c, 0, 57, 41
1, 194389, Note_off_c, 0, 48, 46
1, 194395, Control_c, 0, 64, 115
1, 194425, Note_on_c, 0, 45, 50
1, 194443, Note_off_c, 0, 53, 29
1, 194454, Control_c, 0, 64, 115
1, 194470, Control_c, 0, 64, 116
1, 194485, Control_c, 0, 64, 117
1, 194486, Note_off_c, 0, 45, 56
1, 194500, Control_c, 0, 64, 119
1, 194514, Control_c, 0, 64, 119
1, 194529, Control_c, 0, 64, 120
1, 194559, Control_c, 0, 64, 119
1, 194574, Control_c, 0, 64, 110
1, 194589, Control_c, 0, 64, 95
1, 194603, Control_c, 0, 64, 74
1, 194618, Control_c, 0, 64, 0
1, 194623, Note_on_c, 0, 58, 51
1, 194625, Note_on_c, 0, 61, 52
1, 194630, Note_on_c, 0, 73, 56
1, 194636, Note_on_c, 0, 53, 39
1, 194640, Note_on_c, 0, 49, 42
1, 194693, Control_c, 0, 64, 16
1, 194707, Control_c, 0, 64, 66
1, 194722, Control_c, 0, 64, 76
1, 194731, Note_off_c, 0, 58, 56
1, 194737, Control_c, 0, 64, 86
1, 194743, Note_off_c, 0, 53, 61
1, 194746, Note_off_c, 0, 49, 52
1, 194752, Control_c, 0, 64, 92
1, 194758, Note_on_c, 0, 46, 61
1, 194767, Control_c, 0, 64, 95
1, 194771, Note_off_c, 0, 61, 63
1, 194781, Control_c, 0, 64, 97
1, 194796, Control_c, 0, 64, 99
1, 194811, Control_c, 0, 64, 101
1, 194824, Note_off_c, 0, 73, 64
1, 194826, Control_c, 0, 64, 102
1, 194840, Control_c, 0, 64, 102
1, 194847, Note_off_c, 0, 46, 58
1, 194864, Note_on_c, 0, 58, 51
1, 194870, Control_c, 0, 64, 103
1, 194884, Note_on_c, 0, 53, 52
1, 194890, Note_on_c, 0, 77, 70
1, 194896, Note_on_c, 0, 65, 50
1, 194900, Note_on_c, 0, 49, 45
1, 194916, Note_off_c, 0, 77, 63
1, 194919, Note_off_c, 0, 65, 59
1, 194937, Control_c, 0, 64, 103
1, 194950, Note_off_c, 0, 49, 45
1, 194952, Control_c, 0, 64, 104
1, 194967, Control_c, 0, 64, 105
1, 194977, Note_off_c, 0, 53, 56
1, 194982, Control_c, 0, 64, 107
1, 194983, Note_on_c, 0, 46, 60
1, 194995, Note_on_c, 0, 82, 71
1, 194996, Control_c, 0, 64, 109
1, 195004, Note_on_c, 0, 70, 56
1, 195011, Control_c, 0, 64, 110
1, 195019, Note_off_c, 0, 58, 37
1, 195026, Control_c, 0, 64, 110
1, 195040, Control_c, 0, 64, 111
1, 195070, Control_c, 0, 64, 111
1, 195122, Note_on_c, 0, 58, 55
1, 195127, Note_on_c, 0, 53, 51
1, 195134, Note_off_c, 0, 46, 34
1, 195137, Note_on_c, 0, 49, 42
1, 195174, Note_off_c, 0, 70, 62
1, 195206, Note_off_c, 0, 49, 52
1, 195224, Note_off_c, 0, 53, 60
1, 195225, Note_on_c, 0, 46, 61
1, 195227, Note_off_c, 0, 58, 53
1, 195351, Note_on_c, 0, 85, 74
1, 195355, Note_off_c, 0, 46, 47
1, 195361, Note_on_c, 0, 58, 53
1, 195364, Note_on_c, 0, 73, 50
1, 195366, Note_on_c, 0, 53, 49
1, 195372, Note_on_c, 0, 49, 47
1, 195386, Note_off_c, 0, 82, 61
1, 195397, Control_c, 0, 64, 112
1, 195436, Note_off_c, 0, 53, 63
1, 195438, Note_off_c, 0, 49, 48
1, 195465, Note_off_c, 0, 58, 45
1, 195466, Note_on_c, 0, 46, 56
1, 195471, Note_off_c, 0, 73, 60
1, 195486, Control_c, 0, 64, 112
1, 195516, Control_c, 0, 64, 113
1, 195543, Note_off_c, 0, 85, 64
1, 195545, Control_c, 0, 64, 114
1, 195555, Note_off_c, 0, 46, 59
1, 195560, Control_c, 0, 64, 114
1, 195569, Note_on_c, 0, 58, 54
1, 195571, Note_on_c, 0, 53, 56
1, 195575, Control_c, 0, 64, 115
1, 195590, Control_c, 0, 64, 116
1, 195593, Note_on_c, 0, 82, 70
1, 195622, Note_on_c, 0, 70, 37
1, 195622, Note_off_c, 0, 58, 52
1, 195656, Control_c, 0, 64, 110
1, 195660, Note_off_c, 0, 70, 46
1, 195671, Control_c, 0, 64, 98
1, 195680, Note_off_c, 0, 82, 59
1, 195681, Note_off_c, 0, 53, 56
1, 195686, Control_c, 0, 64, 83
1, 195691, Note_on_c, 0, 48, 58
1, 195691, Note_on_c, 0, 69, 64
1, 195692, Note_on_c, 0, 81, 79
1, 195700, Control_c, 0, 64, 67
1, 195715, Control_c, 0, 64, 0
1, 195802, Note_off_c, 0, 48, 61
1, 195805, Control_c, 0, 64, 60
1, 195819, Control_c, 0, 64, 72
1, 195832, Note_on_c, 0, 53, 47
1, 195833, Note_on_c, 0, 60, 50
1, 195834, Control_c, 0, 64, 83
1, 195838, Note_on_c, 0, 51, 42
1, 195844, Note_off_c, 0, 69, 66
1, 195849, Control_c, 0, 64, 90
1, 195863, Control_c, 0, 64, 93
1, 195871, Note_off_c, 0, 81, 62
1, 195878, Control_c, 0, 64, 94
1, 195893, Control_c, 0, 64, 95
1, 195908, Control_c, 0, 64, 96
1, 195915, Note_off_c, 0, 51, 56
1, 195918, Note_off_c, 0, 53, 62
1, 195923, Control_c, 0, 64, 97
1, 195934, Note_on_c, 0, 48, 59
1, 195937, Note_off_c, 0, 60, 54
1, 195937, Control_c, 0, 64, 99
1, 195953, Control_c, 0, 64, 99
1, 195968, Control_c, 0, 64, 100
1, 195982, Control_c, 0, 64, 100
1, 195997, Control_c, 0, 64, 101
1, 196012, Control_c, 0, 64, 101
1, 196027, Control_c, 0, 64, 102
1, 196057, Note_on_c, 0, 53, 50
1, 196058, Control_c, 0, 64, 103
1, 196059, Note_on_c, 0, 84, 76
1, 196066, Note_on_c, 0, 60, 51
1, 196067, Note_on_c, 0, 72, 65
1, 196071, Note_on_c, 0, 51, 31
1, 196073, Control_c, 0, 64, 104
1, 196087, Control_c, 0, 64, 105
1, 196091, Note_off_c, 0, 48, 34
1, 196102, Control_c, 0, 64, 106
1, 196112, Note_off_c, 0, 51, 47
1, 196117, Control_c, 0, 64, 106
1, 196131, Note_off_c, 0, 53, 59
1, 196132, Control_c, 0, 64, 107
1, 196147, Control_c, 0, 64, 108
1, 196148, Note_on_c, 0, 48, 54
1, 196151, Note_off_c, 0, 60, 52
1, 196161, Control_c, 0, 64, 109
1, 196176, Control_c, 0, 64, 111
1, 196191, Note_off_c, 0, 72, 56
1, 196191, Control_c, 0, 64, 112
1, 196198, Note_off_c, 0, 84, 60
1, 196206, Control_c, 0, 64, 113
1, 196221, Control_c, 0, 64, 113
1, 196235, Note_off_c, 0, 48, 62
1, 196235, Control_c, 0, 64, 114
1, 196249, Note_on_c, 0, 51, 42
1, 196250, Control_c, 0, 64, 115
1, 196265, Control_c, 0, 64, 116
1, 196279, Control_c, 0, 64, 116
1, 196280, Note_on_c, 0, 60, 47
1, 196288, Note_off_c, 0, 51, 62
1, 196309, Control_c, 0, 64, 117
1, 196318, Note_off_c, 0, 60, 63
1, 196323, Note_on_c, 0, 81, 74
1, 196326, Note_on_c, 0, 69, 65
1, 196350, Note_off_c, 0, 69, 64
1, 196368, Control_c, 0, 64, 116
1, 196391, Control_c, 0, 64, 111
1, 196406, Control_c, 0, 64, 99
1, 196421, Control_c, 0, 64, 82
1, 196435, Control_c, 0, 64, 66
1, 196440, Note_off_c, 0, 81, 62
1, 196441, Note_on_c, 0, 82, 74
1, 196447, Note_on_c, 0, 49, 50
1, 196447, Note_on_c, 0, 70, 68
1, 196450, Control_c, 0, 64, 0
1, 196554, Control_c, 0, 64, 54
1, 196568, Control_c, 0, 64, 70
1, 196575, Note_on_c, 0, 61, 44
1, 196583, Note_on_c, 0, 58, 46
1, 196583, Control_c, 0, 64, 81
1, 196584, Note_on_c, 0, 53, 51
1, 196585, Note_off_c, 0, 49, 52
1, 196593, Note_off_c, 0, 82, 63
1, 196598, Control_c, 0, 64, 90
1, 196613, Control_c, 0, 64, 95
1, 196621, Note_off_c, 0, 70, 60
1, 196627, Control_c, 0, 64, 97
1, 196642, Note_off_c, 0, 53, 58
1, 196642, Control_c, 0, 64, 98
1, 196654, Note_off_c, 0, 58, 48
1, 196657, Control_c, 0, 64, 100
1, 196672, Control_c, 0, 64, 102
1, 196678, Note_off_c, 0, 61, 34
1, 196687, Control_c, 0, 64, 103
1, 196702, Control_c, 0, 64, 104
1, 196719, Note_on_c, 0, 49, 44
1, 196800, Note_off_c, 0, 49, 49
1, 196809, Note_on_c, 0, 77, 71
1, 196814, Note_on_c, 0, 61, 46
1, 196818, Note_on_c, 0, 58, 44
1, 196821, Note_on_c, 0, 65, 59
1, 196824, Note_on_c, 0, 53, 40
1, 196889, Note_off_c, 0, 53, 53
1, 196923, Note_off_c, 0, 61, 50
1, 196925, Note_off_c, 0, 58, 53
1, 196934, Note_on_c, 0, 49, 59
1, 196934, Note_off_c, 0, 65, 66
1, 197042, Note_off_c, 0, 49, 58
1, 197056, Note_on_c, 0, 61, 54
1, 197058, Note_on_c, 0, 53, 47
1, 197064, Note_on_c, 0, 58, 55
1, 197146, Note_off_c, 0, 53, 53
1, 197158, Note_off_c, 0, 58, 60
1, 197158, Note_off_c, 0, 61, 44
1, 197170, Note_on_c, 0, 49, 64
1, 197228, Control_c, 0, 64, 104
1, 197299, Note_on_c, 0, 61, 56
1, 197301, Note_on_c, 0, 53, 49
1, 197302, Note_on_c, 0, 58, 49
1, 197307, Note_off_c, 0, 49, 55
1, 197332, Control_c, 0, 64, 105
1, 197359, Note_off_c, 0, 53, 61
1, 197377, Control_c, 0, 64, 105
1, 197391, Control_c, 0, 64, 106
1, 197403, Note_off_c, 0, 58, 57
1, 197414, Note_off_c, 0, 61, 42
1, 197421, Note_on_c, 0, 49, 70
1, 197421, Control_c, 0, 64, 106
1, 197470, Note_off_c, 0, 49, 56
1, 197494, Control_c, 0, 64, 106
1, 197504, Note_off_c, 0, 77, 61
1, 197508, Control_c, 0, 64, 102
1, 197523, Control_c, 0, 64, 92
1, 197535, Note_on_c, 0, 78, 81
1, 197538, Control_c, 0, 64, 80
1, 197539, Note_on_c, 0, 66, 76
1, 197543, Note_on_c, 0, 58, 55
1, 197546, Note_on_c, 0, 63, 61
1, 197553, Control_c, 0, 64, 66
1, 197561, Note_on_c, 0, 54, 50
1, 197568, Control_c, 0, 64, 0
1, 197626, Control_c, 0, 64, 10
1, 197641, Control_c, 0, 64, 63
1, 197651, Note_on_c, 0, 51, 62
1, 197657, Control_c, 0, 64, 71
1, 197664, Note_off_c, 0, 58, 62
1, 197666, Note_off_c, 0, 63, 63
1, 197672, Control_c, 0, 64, 79
1, 197686, Note_off_c, 0, 54, 56
1, 197687, Control_c, 0, 64, 85
1, 197702, Control_c, 0, 64, 88
1, 197717, Control_c, 0, 64, 90
1, 197731, Control_c, 0, 64, 92
1, 197746, Control_c, 0, 64, 94
1, 197753, Note_off_c, 0, 66, 63
1, 197761, Control_c, 0, 64, 96
1, 197771, Note_on_c, 0, 54, 30
1, 197776, Control_c, 0, 64, 97
1, 197781, Note_off_c, 0, 51, 60
1, 197785, Note_on_c, 0, 63, 60
1, 197791, Note_on_c, 0, 58, 56
1, 197791, Control_c, 0, 64, 98
1, 197803, Note_on_c, 0, 75, 74
1, 197807, Note_off_c, 0, 54, 60
1, 197817, Note_off_c, 0, 63, 65
1, 197820, Control_c, 0, 64, 98
1, 197821, Note_off_c, 0, 58, 66
1, 197835, Control_c, 0, 64, 99
1, 197849, Note_off_c, 0, 78, 51
1, 197902, Control_c, 0, 64, 98
1, 197904, Note_on_c, 0, 73, 86
1, 197917, Control_c, 0, 64, 93
1, 197924, Note_on_c, 0, 53, 49
1, 197930, Note_on_c, 0, 52, 54
1, 197931, Control_c, 0, 64, 82
1, 197937, Note_off_c, 0, 75, 61
1, 197946, Control_c, 0, 64, 64
1, 197961, Control_c, 0, 64, 0
1, 197969, Note_off_c, 0, 52, 62
1, 198045, Note_on_c, 0, 65, 50
1, 198047, Note_on_c, 0, 61, 58
1, 198049, Note_on_c, 0, 58, 62
1, 198085, Note_off_c, 0, 53, 62
1, 198109, Control_c, 0, 64, 48
1, 198124, Control_c, 0, 64, 70
1, 198139, Control_c, 0, 64, 80
1, 198148, Note_off_c, 0, 58, 59
1, 198150, Note_off_c, 0, 61, 60
1, 198154, Control_c, 0, 64, 88
1, 198160, Note_on_c, 0, 53, 69
1, 198166, Note_off_c, 0, 65, 50
1, 198169, Control_c, 0, 64, 91
1, 198184, Control_c, 0, 64, 94
1, 198198, Control_c, 0, 64, 96
1, 198213, Control_c, 0, 64, 98
1, 198228, Control_c, 0, 64, 99
1, 198243, Control_c, 0, 64, 99
1, 198254, Note_on_c, 0, 77, 88
1, 198257, Control_c, 0, 64, 100
1, 198272, Control_c, 0, 64, 101
1, 198279, Note_on_c, 0, 65, 71
1, 198280, Note_on_c, 0, 61, 66
1, 198284, Note_on_c, 0, 58, 60
1, 198287, Control_c, 0, 64, 102
1, 198295, Note_off_c, 0, 53, 65
1, 198302, Control_c, 0, 64, 103
1, 198317, Control_c, 0, 64, 103
1, 198331, Control_c, 0, 64, 105
1, 198335, Note_off_c, 0, 73, 60
1, 198346, Control_c, 0, 64, 106
1, 198352, Note_off_c, 0, 65, 62
1, 198360, Note_off_c, 0, 61, 61
1, 198361, Control_c, 0, 64, 107
1, 198362, Note_off_c, 0, 58, 57
1, 198376, Control_c, 0, 64, 107
1, 198381, Note_on_c, 0, 53, 72
1, 198391, Control_c, 0, 64, 108
1, 198420, Control_c, 0, 64, 108
1, 198435, Control_c, 0, 64, 109
1, 198451, Control_c, 0, 64, 109
1, 198466, Control_c, 0, 64, 110
1, 198480, Control_c, 0, 64, 111
1, 198481, Note_on_c, 0, 65, 66
1, 198483, Note_on_c, 0, 58, 59
1, 198485, Note_off_c, 0, 53, 64
1, 198488, Note_on_c, 0, 61, 62
1, 198495, Control_c, 0, 64, 112
1, 198504, Note_on_c, 0, 73, 81
1, 198510, Control_c, 0, 64, 113
1, 198515, Note_off_c, 0, 77, 58
1, 198525, Control_c, 0, 64, 114
1, 198527, Note_off_c, 0, 65, 60
1, 198536, Note_off_c, 0, 58, 57
1, 198540, Control_c, 0, 64, 115
1, 198545, Note_off_c, 0, 61, 51
1, 198584, Control_c, 0, 64, 115
1, 198585, Note_on_c, 0, 72, 94
1, 198586, Note_on_c, 0, 53, 75
1, 198599, Control_c, 0, 64, 108
1, 198600, Note_off_c, 0, 73, 62
1, 198614, Control_c, 0, 64, 91
1, 198636, Control_c, 0, 64, 72
1, 198651, Control_c, 0, 64, 0
1, 198708, Note_on_c, 0, 63, 69
1, 198714, Note_on_c, 0, 60, 62
1, 198723, Note_on_c, 0, 57, 46
1, 198727, Note_off_c, 0, 53, 59
1, 198740, Control_c, 0, 64, 68
1, 198754, Control_c, 0, 64, 78
1, 198769, Control_c, 0, 64, 86
1, 198770, Note_off_c, 0, 57, 55
1, 198784, Control_c, 0, 64, 89
1, 198813, Control_c, 0, 64, 90
1, 198824, Note_on_c, 0, 53, 80
1, 198828, Control_c, 0, 64, 91
1, 198832, Note_off_c, 0, 63, 60
1, 198838, Note_off_c, 0, 60, 54
1, 198843, Control_c, 0, 64, 92
1, 198858, Control_c, 0, 64, 93
1, 198932, Note_on_c, 0, 75, 97
1, 198937, Note_on_c, 0, 63, 83
1, 198944, Note_off_c, 0, 53, 60
1, 198950, Note_on_c, 0, 60, 74
1, 198953, Note_on_c, 0, 57, 60
1, 198954, Note_off_c, 0, 72, 62
1, 199034, Note_on_c, 0, 53, 76
1, 199034, Note_off_c, 0, 63, 61
1, 199036, Note_off_c, 0, 60, 58
1, 199045, Note_off_c, 0, 57, 52
1, 199111, Control_c, 0, 64, 93
1, 199146, Note_on_c, 0, 57, 41
1, 199147, Note_on_c, 0, 63, 78
1, 199148, Note_on_c, 0, 60, 70
1, 199163, Note_off_c, 0, 53, 61
1, 199170, Control_c, 0, 64, 94
1, 199175, Note_off_c, 0, 57, 61
1, 199185, Control_c, 0, 64, 94
1, 199192, Note_on_c, 0, 72, 93
1, 199199, Control_c, 0, 64, 95
1, 199200, Note_off_c, 0, 75, 54
1, 199214, Note_off_c, 0, 60, 57
1, 199214, Control_c, 0, 64, 95
1, 199229, Control_c, 0, 64, 96
1, 199275, Control_c, 0, 64, 95
1, 199289, Control_c, 0, 64, 89
1, 199304, Control_c, 0, 64, 79
1, 199319, Control_c, 0, 64, 64
1, 199319, Note_on_c, 0, 70, 103
1, 199322, Note_on_c, 0, 54, 78
1, 199334, Control_c, 0, 64, 0
1, 199346, Note_off_c, 0, 72, 60
1, 199352, Note_off_c, 0, 63, 60
1, 199474, Control_c, 0, 64, 64
1, 199489, Control_c, 0, 64, 70
1, 199504, Note_on_c, 0, 66, 63
1, 199504, Control_c, 0, 64, 76
1, 199507, Note_on_c, 0, 61, 61
1, 199518, Note_on_c, 0, 58, 56
1, 199519, Control_c, 0, 64, 84
1, 199525, Note_off_c, 0, 54, 62
1, 199534, Control_c, 0, 64, 92
1, 199549, Control_c, 0, 64, 98
1, 199564, Control_c, 0, 64, 101
1, 199578, Control_c, 0, 64, 104
1, 199593, Control_c, 0, 64, 105
1, 199599, Note_off_c, 0, 58, 61
1, 199608, Control_c, 0, 64, 107
1, 199614, Note_off_c, 0, 61, 58
1, 199623, Control_c, 0, 64, 108
1, 199632, Note_on_c, 0, 54, 72
1, 199637, Control_c, 0, 64, 109
1, 199641, Note_off_c, 0, 66, 64
1, 199652, Control_c, 0, 64, 110
1, 199667, Control_c, 0, 64, 110
1, 199682, Control_c, 0, 64, 111
1, 199742, Note_on_c, 0, 73, 87
1, 199757, Note_on_c, 0, 66, 69
1, 199762, Note_on_c, 0, 61, 61
1, 199764, Note_off_c, 0, 54, 62
1, 199770, Note_on_c, 0, 58, 57
1, 199785, Control_c, 0, 64, 111
1, 199805, Note_off_c, 0, 70, 54
1, 199842, Note_off_c, 0, 58, 57
1, 199849, Note_off_c, 0, 61, 57
1, 199862, Note_on_c, 0, 54, 75
1, 199877, Note_off_c, 0, 66, 56
1, 199904, Control_c, 0, 64, 112
1, 199963, Control_c, 0, 64, 112
1, 199977, Note_on_c, 0, 66, 77
1, 199977, Note_off_c, 0, 73, 63
1, 199979, Note_on_c, 0, 61, 67
1, 199979, Note_off_c, 0, 54, 61
1, 199984, Note_on_c, 0, 58, 58
1, 199993, Control_c, 0, 64, 113
1, 200008, Control_c, 0, 64, 113
1, 200022, Control_c, 0, 64, 114
1, 200037, Control_c, 0, 64, 114
1, 200053, Control_c, 0, 64, 115
1, 200054, Note_off_c, 0, 58, 59
1, 200067, Note_off_c, 0, 61, 61
1, 200067, Control_c, 0, 64, 115
1, 200075, Note_on_c, 0, 54, 79
1, 200091, Note_off_c, 0, 66, 62
1, 200097, Control_c, 0, 64, 116
1, 200112, Control_c, 0, 64, 116
1, 200149, Control_c, 0, 64, 117
1, 200196, Note_on_c, 0, 58, 65
1, 200199, Note_on_c, 0, 66, 79
1, 200202, Note_on_c, 0, 61, 71
1, 200202, Note_off_c, 0, 54, 61
1, 200277, Note_off_c, 0, 58, 59
1, 200282, Control_c, 0, 64, 117
1, 200289, Note_off_c, 0, 61, 60
1, 200295, Note_on_c, 0, 54, 76
1, 200308, Note_off_c, 0, 66, 64
1, 200312, Control_c, 0, 64, 118
1, 200327, Control_c, 0, 64, 119
1, 200342, Control_c, 0, 64, 121
1, 200357, Control_c, 0, 64, 121
1, 200372, Control_c, 0, 64, 122
1, 200386, Control_c, 0, 64, 123
1, 200404, Note_on_c, 0, 82, 94
1, 200408, Note_on_c, 0, 66, 78
1, 200409, Note_on_c, 0, 70, 83
1, 200412, Note_on_c, 0, 61, 70
1, 200413, Note_on_c, 0, 58, 64
1, 200416, Control_c, 0, 64, 124
1, 200417, Note_off_c, 0, 54, 61
1, 200431, Control_c, 0, 64, 125
1, 200445, Control_c, 0, 64, 127
1, 200501, Note_off_c, 0, 61, 60
1, 200504, Note_off_c, 0, 58, 61
1, 200511, Note_on_c, 0, 54, 76
1, 200523, Note_off_c, 0, 66, 64
1, 200529, Note_off_c, 0, 70, 59
1, 200625, Note_on_c, 0, 61, 71
1, 200625, Note_off_c, 0, 54, 58
1, 200625, Note_on_c, 0, 58, 67
1, 200630, Note_on_c, 0, 66, 73
1, 200634, Note_on_c, 0, 85, 88
1, 200643, Note_on_c, 0, 73, 66
1, 200654, Note_off_c, 0, 82, 63
1, 200661, Note_off_c, 0, 73, 66
1, 200676, Note_off_c, 0, 85, 65
1, 200707, Note_off_c, 0, 58, 61
1, 200711, Note_off_c, 0, 61, 56
1, 200719, Note_on_c, 0, 54, 83
1, 200726, Note_on_c, 0, 78, 99
1, 200726, Note_on_c, 0, 90, 104
1, 200735, Note_off_c, 0, 66, 63
1, 200837, Note_on_c, 0, 66, 80
1, 200837, Note_on_c, 0, 58, 64
1, 200837, Note_on_c, 0, 61, 69
1, 200844, Note_off_c, 0, 54, 60
1, 200878, Note_off_c, 0, 78, 59
1, 200929, Note_off_c, 0, 58, 48
1, 200943, Note_off_c, 0, 61, 58
1, 200944, Note_on_c, 0, 54, 80
1, 200957, Note_off_c, 0, 66, 53
1, 201037, Note_off_c, 0, 54, 53
1, 201039, Note_off_c, 0, 90, 61
1, 201048, Note_on_c, 0, 94, 100
1, 201051, Note_on_c, 0, 82, 97
1, 201053, Note_on_c, 0, 66, 88
1, 201055, Note_on_c, 0, 61, 75
1, 201058, Note_on_c, 0, 58, 70
1, 201121, Note_off_c, 0, 66, 50
1, 201139, Note_off_c, 0, 61, 60
1, 201144, Note_off_c, 0, 58, 56
1, 201147, Note_on_c, 0, 54, 80
1, 201151, Note_off_c, 0, 82, 60
1, 201156, Note_off_c, 0, 94, 65
1, 201232, Note_on_c, 0, 58, 23
1, 201233, Note_off_c, 0, 54, 58
1, 201245, Note_on_c, 0, 66, 67
1, 201254, Note_on_c, 0, 61, 62
1, 201268, Note_on_c, 0, 90, 97
1, 201271, Note_off_c, 0, 58, 52
1, 201275, Note_on_c, 0, 78, 83
1, 201297, Note_off_c, 0, 78, 68
1, 201308, Note_off_c, 0, 90, 65
1, 201310, Note_off_c, 0, 66, 58
1, 201338, Note_on_c, 0, 56, 82
1, 201343, Note_off_c, 0, 61, 57
1, 201346, Note_on_c, 0, 89, 104
1, 201348, Note_on_c, 0, 77, 99
1, 201356, Control_c, 0, 64, 104
1, 201371, Control_c, 0, 64, 82
1, 201386, Control_c, 0, 64, 0
1, 201460, Note_on_c, 0, 68, 78
1, 201465, Note_on_c, 0, 61, 68
1, 201471, Note_off_c, 0, 56, 65
1, 201474, Control_c, 0, 64, 63
1, 201478, Note_on_c, 0, 59, 42
1, 201489, Control_c, 0, 64, 80
1, 201504, Control_c, 0, 64, 99
1, 201519, Control_c, 0, 64, 118
1, 201523, Note_off_c, 0, 59, 45
1, 201534, Control_c, 0, 64, 119
1, 201536, Note_off_c, 0, 77, 63
1, 201548, Note_off_c, 0, 61, 59
1, 201555, Note_on_c, 0, 56, 77
1, 201564, Note_off_c, 0, 68, 57
1, 201579, Control_c, 0, 64, 119
1, 201593, Control_c, 0, 64, 121
1, 201608, Control_c, 0, 64, 126
1, 201630, Control_c, 0, 64, 127
1, 201644, Note_off_c, 0, 89, 57
1, 201673, Note_on_c, 0, 68, 86
1, 201680, Note_on_c, 0, 92, 105
1, 201680, Note_on_c, 0, 61, 78
1, 201681, Note_on_c, 0, 80, 100
1, 201686, Note_off_c, 0, 56, 63
1, 201688, Note_on_c, 0, 59, 66
1, 201750, Note_off_c, 0, 59, 42
1, 201768, Note_off_c, 0, 61, 61
1, 201772, Note_off_c, 0, 68, 60
1, 201775, Note_on_c, 0, 56, 80
1, 201823, Note_off_c, 0, 80, 58
1, 201850, Note_off_c, 0, 92, 61
1, 201880, Note_on_c, 0, 59, 52
1, 201882, Note_on_c, 0, 68, 76
1, 201888, Note_on_c, 0, 61, 64
1, 201894, Note_off_c, 0, 56, 61
1, 201913, Note_off_c, 0, 59, 59
1, 201919, Note_off_c, 0, 61, 58
1, 201922, Note_on_c, 0, 89, 92
1, 201929, Note_on_c, 0, 77, 86
1, 201963, Note_off_c, 0, 68, 62
1, 201963, Note_off_c, 0, 77, 63
1, 201968, Note_off_c, 0, 89, 67
1, 201987, Control_c, 0, 64, 121
1, 202002, Control_c, 0, 64, 95
1, 202007, Note_on_c, 0, 58, 89
1, 202017, Control_c, 0, 64, 71
1, 202019, Note_on_c, 0, 90, 105
1, 202023, Note_on_c, 0, 78, 103
1, 202032, Control_c, 0, 64, 0
1, 202121, Control_c, 0, 64, 67
1, 202132, Note_on_c, 0, 66, 73
1, 202132, Note_on_c, 0, 70, 77
1, 202136, Control_c, 0, 64, 84
1, 202136, Note_off_c, 0, 58, 62
1, 202139, Note_on_c, 0, 61, 63
1, 202151, Control_c, 0, 64, 105
1, 202157, Note_off_c, 0, 90, 62
1, 202166, Control_c, 0, 64, 111
1, 202171, Note_off_c, 0, 61, 64
1, 202180, Control_c, 0, 64, 112
1, 202185, Note_off_c, 0, 78, 61
1, 202195, Control_c, 0, 64, 114
1, 202205, Note_off_c, 0, 66, 63
1, 202210, Control_c, 0, 64, 118
1, 202224, Control_c, 0, 64, 121
1, 202235, Note_on_c, 0, 58, 88
1, 202239, Control_c, 0, 64, 124
1, 202246, Note_off_c, 0, 70, 55
1, 202254, Control_c, 0, 64, 125
1, 202269, Control_c, 0, 64, 126
1, 202284, Control_c, 0, 64, 126
1, 202298, Control_c, 0, 64, 127
1, 202313, Control_c, 0, 64, 127
1, 202333, Note_off_c, 0, 58, 60
1, 202348, Note_on_c, 0, 61, 71
1, 202348, Note_on_c, 0, 70, 83
1, 202350, Note_on_c, 0, 66, 78
1, 202350, Note_on_c, 0, 85, 94
1, 202352, Note_on_c, 0, 73, 95
1, 202407, Note_off_c, 0, 61, 60
1, 202439, Note_off_c, 0, 66, 58
1, 202455, Note_on_c, 0, 58, 83
1, 202458, Note_off_c, 0, 70, 46
1, 202539, Note_off_c, 0, 73, 59
1, 202564, Note_on_c, 0, 61, 68
1, 202564, Note_on_c, 0, 70, 81
1, 202565, Note_on_c, 0, 66, 76
1, 202572, Note_off_c, 0, 58, 60
1, 202606, Note_off_c, 0, 61, 60
1, 202637, Note_off_c, 0, 66, 59
1, 202656, Note_on_c, 0, 58, 85
1, 202671, Note_off_c, 0, 70, 60
1, 202767, Note_on_c, 0, 61, 74
1, 202768, Note_on_c, 0, 66, 77
1, 202771, Note_on_c, 0, 70, 81
1, 202774, Note_off_c, 0, 58, 63
1, 202822, Note_off_c, 0, 61, 60
1, 202844, Note_off_c, 0, 66, 61
1, 202859, Note_on_c, 0, 58, 87
1, 202870, Note_off_c, 0, 70, 55
1, 202972, Note_on_c, 0, 70, 87
1, 202973, Note_on_c, 0, 66, 80
1, 202977, Note_on_c, 0, 61, 68
1, 202982, Note_off_c, 0, 58, 59
1, 203024, Note_off_c, 0, 70, 58
1, 203029, Note_off_c, 0, 61, 47
1, 203035, Note_off_c, 0, 66, 63
1, 203048, Note_on_c, 0, 58, 73
1, 203165, Note_on_c, 0, 66, 78
1, 203168, Note_on_c, 0, 70, 81
1, 203177, Note_on_c, 0, 61, 40
1, 203191, Note_off_c, 0, 58, 61
1, 203206, Note_off_c, 0, 61, 49
1, 203218, Note_off_c, 0, 66, 63
1, 203224, Note_off_c, 0, 70, 60
1, 203233, Note_off_c, 0, 85, 63
1, 203273, Note_on_c, 0, 59, 91
1, 203282, Note_on_c, 0, 78, 108
1, 203282, Note_on_c, 0, 90, 109
1, 203293, Control_c, 0, 64, 107
1, 203308, Control_c, 0, 64, 76
1, 203323, Control_c, 0, 64, 0
1, 203382, Control_c, 0, 64, 67
1, 203388, Note_on_c, 0, 71, 81
1, 203392, Note_on_c, 0, 62, 72
1, 203397, Control_c, 0, 64, 92
1, 203400, Note_on_c, 0, 66, 78
1, 203403, Note_off_c, 0, 59, 60
1, 203412, Control_c, 0, 64, 127
1, 203435, Note_off_c, 0, 62, 58
1, 203442, Note_off_c, 0, 90, 66
1, 203457, Note_off_c, 0, 66, 64
1, 203457, Note_off_c, 0, 78, 62
1, 203493, Note_on_c, 0, 59, 89
1, 203510, Note_off_c, 0, 71, 57
1, 203609, Note_on_c, 0, 71, 83
1, 203611, Note_on_c, 0, 62, 75
1, 203611, Note_on_c, 0, 66, 85
1, 203612, Note_on_c, 0, 74, 100
1, 203612, Note_on_c, 0, 86, 103
1, 203618, Note_off_c, 0, 59, 60
1, 203652, Note_off_c, 0, 62, 62
1, 203679, Note_off_c, 0, 66, 63
1, 203707, Note_on_c, 0, 59, 89
1, 203726, Note_off_c, 0, 71, 57
1, 203819, Note_on_c, 0, 66, 81
1, 203820, Note_on_c, 0, 71, 84
1, 203823, Note_on_c, 0, 62, 72
1, 203826, Note_off_c, 0, 59, 61
1, 203850, Note_off_c, 0, 62, 66
1, 203886, Note_off_c, 0, 66, 65
1, 203922, Note_on_c, 0, 59, 88
1, 203931, Note_off_c, 0, 71, 38
1, 204026, Note_on_c, 0, 66, 85
1, 204029, Note_on_c, 0, 71, 84
1, 204033, Note_on_c, 0, 62, 72
1, 204033, Note_off_c, 0, 59, 62
1, 204063, Note_off_c, 0, 62, 64
1, 204089, Note_off_c, 0, 66, 64
1, 204113, Note_off_c, 0, 74, 61
1, 204118, Note_on_c, 0, 59, 90
1, 204138, Note_off_c, 0, 71, 57
1, 204154, Note_off_c, 0, 86, 58
1, 204226, Note_on_c, 0, 66, 86
1, 204227, Note_on_c, 0, 71, 86
1, 204232, Note_on_c, 0, 62, 74
1, 204240, Note_off_c, 0, 59, 63
1, 204260, Note_off_c, 0, 62, 65
1, 204279, Note_off_c, 0, 66, 63
1, 204288, Note_off_c, 0, 71, 54
1, 204319, Note_on_c, 0, 59, 87
1, 204418, Note_on_c, 0, 66, 90
1, 204419, Note_on_c, 0, 71, 83
1, 204427, Note_off_c, 0, 59, 60
1, 204473, Note_off_c, 0, 71, 59
1, 204476, Note_off_c, 0, 66, 64
1, 204519, Poly_aftertouch_c, 0, 62, 0
1, 204521, Note_on_c, 0, 59, 92
1, 204530, Note_on_c, 0, 91, 104
1, 204530, Control_c, 0, 64, 106
1, 204531, Note_on_c, 0, 79, 105
1, 204545, Control_c, 0, 64, 76
1, 204560, Control_c, 0, 64, 0
1, 204626, Control_c, 0, 64, 50
1, 204636, Note_on_c, 0, 67, 84
1, 204636, Note_on_c, 0, 71, 79
1, 204641, Control_c, 0, 64, 81
1, 204644, Note_on_c, 0, 62, 61
1, 204650, Note_off_c, 0, 59, 57
1, 204656, Control_c, 0, 64, 106
1, 204671, Control_c, 0, 64, 127
1, 204675, Note_off_c, 0, 62, 64
1, 204692, Note_off_c, 0, 67, 60
1, 204698, Note_off_c, 0, 91, 57
1, 204722, Note_off_c, 0, 79, 59
1, 204731, Note_off_c, 0, 71, 49
1, 204736, Note_on_c, 0, 59, 88
1, 204848, Note_on_c, 0, 67, 87
1, 204849, Note_on_c, 0, 71, 83
1, 204857, Note_on_c, 0, 62, 67
1, 204858, Note_on_c, 0, 86, 107
1, 204858, Note_on_c, 0, 74, 102
1, 204858, Note_off_c, 0, 59, 58
1, 204892, Note_off_c, 0, 62, 62
1, 204920, Note_off_c, 0, 67, 55
1, 204951, Note_on_c, 0, 59, 86
1, 204962, Note_off_c, 0, 71, 56
1, 205059, Note_on_c, 0, 67, 80
1, 205060, Note_on_c, 0, 71, 85
1, 205065, Note_off_c, 0, 59, 62
1, 205072, Note_on_c, 0, 62, 62
1, 205099, Note_off_c, 0, 62, 67
1, 205114, Note_off_c, 0, 67, 59
1, 205155, Note_on_c, 0, 59, 91
1, 205167, Note_off_c, 0, 71, 56
1, 205257, Note_on_c, 0, 67, 82
1, 205259, Note_on_c, 0, 71, 84
1, 205262, Note_off_c, 0, 59, 64
1, 205275, Note_on_c, 0, 62, 54
1, 205297, Note_off_c, 0, 62, 59
1, 205314, Note_off_c, 0, 67, 62
1, 205342, Note_off_c, 0, 74, 60
1, 205352, Note_on_c, 0, 59, 89
1, 205368, Note_off_c, 0, 71, 42
1, 205424, Note_off_c, 0, 86, 55
1, 205457, Note_on_c, 0, 71, 87
1, 205457, Note_on_c, 0, 67, 82
1, 205461, Note_off_c, 0, 59, 64
1, 205479, Note_on_c, 0, 62, 45
1, 205513, Note_off_c, 0, 62, 47
1, 205515, Note_off_c, 0, 67, 63
1, 205527, Note_off_c, 0, 71, 52
1, 205548, Note_on_c, 0, 59, 92
1, 205650, Note_on_c, 0, 67, 83
1, 205654, Note_on_c, 0, 71, 79
1, 205665, Note_off_c, 0, 59, 62
1, 205693, Note_off_c, 0, 67, 62
1, 205707, Note_off_c, 0, 71, 60
1, 205752, Note_on_c, 0, 60, 101
1, 205757, Note_on_c, 0, 79, 106
1, 205757, Note_on_c, 0, 91, 108
1, 205762, Control_c, 0, 64, 113
1, 205777, Control_c, 0, 64, 83
1, 205792, Control_c, 0, 64, 0
1, 205851, Control_c, 0, 64, 63
1, 205859, Note_on_c, 0, 72, 88
1, 205859, Note_on_c, 0, 67, 89
1, 205865, Control_c, 0, 64, 81
1, 205869, Note_off_c, 0, 60, 62
1, 205880, Control_c, 0, 64, 103
1, 205893, Note_on_c, 0, 64, 30
1, 205895, Note_off_c, 0, 67, 59
1, 205895, Control_c, 0, 64, 127
1, 205927, Note_off_c, 0, 64, 47
1, 205928, Note_off_c, 0, 72, 59
1, 205931, Note_off_c, 0, 91, 55
1, 205941, Note_off_c, 0, 79, 58
1, 205951, Note_on_c, 0, 60, 96
1, 206064, Note_on_c, 0, 67, 87
1, 206064, Note_on_c, 0, 72, 86
1, 206071, Note_on_c, 0, 64, 72
1, 206079, Note_off_c, 0, 60, 62
1, 206080, Note_on_c, 0, 88, 102
1, 206081, Note_on_c, 0, 76, 105
1, 206096, Note_off_c, 0, 64, 69
1, 206128, Note_off_c, 0, 67, 58
1, 206172, Note_on_c, 0, 60, 91
1, 206186, Note_off_c, 0, 72, 57
1, 206279, Note_on_c, 0, 67, 81
1, 206279, Note_on_c, 0, 72, 88
1, 206282, Note_off_c, 0, 60, 61
1, 206283, Note_on_c, 0, 64, 72
1, 206309, Note_off_c, 0, 64, 70
1, 206324, Note_off_c, 0, 67, 60
1, 206352, Note_off_c, 0, 72, 60
1, 206369, Note_on_c, 0, 60, 94
1, 206479, Note_on_c, 0, 72, 88
1, 206483, Note_on_c, 0, 64, 76
1, 206485, Note_on_c, 0, 67, 84
1, 206485, Note_off_c, 0, 60, 62
1, 206506, Note_off_c, 0, 64, 67
1, 206528, Note_off_c, 0, 67, 61
1, 206557, Note_off_c, 0, 72, 60
1, 206572, Note_on_c, 0, 60, 94
1, 206683, Note_on_c, 0, 72, 92
1, 206686, Note_on_c, 0, 67, 91
1, 206695, Note_on_c, 0, 64, 72
1, 206708, Note_off_c, 0, 60, 53
1, 206721, Note_off_c, 0, 64, 69
1, 206738, Note_off_c, 0, 67, 62
1, 206763, Note_off_c, 0, 72, 60
1, 206786, Note_on_c, 0, 60, 92
1, 206896, Note_on_c, 0, 72, 85
1, 206897, Note_on_c, 0, 64, 75
1, 206900, Note_on_c, 0, 67, 79
1, 206902, Note_off_c, 0, 60, 54
1, 206919, Note_off_c, 0, 67, 72
1, 206921, Note_off_c, 0, 64, 70
1, 206941, Note_off_c, 0, 72, 62
1, 207005, Note_off_c, 0, 76, 57
1, 207090, Note_on_c, 0, 61, 91
1, 207098, Note_off_c, 0, 88, 55
1, 207126, Control_c, 0, 64, 101
1, 207131, Note_on_c, 0, 64, 78
1, 207140, Control_c, 0, 64, 71
1, 207155, Control_c, 0, 64, 0
1, 207179, Note_on_c, 0, 67, 74
1, 207222, Note_on_c, 0, 70, 82
1, 207280, Note_on_c, 0, 73, 89
1, 207290, Control_c, 0, 64, 64
1, 207305, Control_c, 0, 64, 82
1, 207319, Control_c, 0, 64, 109
1, 207334, Control_c, 0, 64, 127
1, 207433, Note_on_c, 0, 79, 81
1, 207436, Note_off_c, 0, 61, 62
1, 207439, Note_off_c, 0, 73, 64
1, 207460, Note_off_c, 0, 64, 63
1, 207470, Note_off_c, 0, 67, 61
1, 207481, Note_off_c, 0, 70, 59
1, 207492, Note_on_c, 0, 82, 82
1, 207502, Note_off_c, 0, 79, 62
1, 207532, Note_on_c, 0, 85, 82
1, 207560, Note_off_c, 0, 82, 65
1, 207585, Note_on_c, 0, 88, 83
1, 207629, Note_off_c, 0, 85, 65
1, 207636, Note_on_c, 0, 91, 78
1, 207668, Note_off_c, 0, 88, 63
1, 207687, Note_on_c, 0, 79, 92
1, 207699, Note_off_c, 0, 91, 58
1, 207733, Note_off_c, 0, 79, 66
1, 207748, Note_on_c, 0, 64, 89
1, 207770, Note_on_c, 0, 67, 77
1, 207830, Note_on_c, 0, 70, 91
1, 207877, Note_on_c, 0, 73, 90
1, 207891, Note_off_c, 0, 67, 63
1, 207901, Note_off_c, 0, 64, 61
1, 207931, Note_on_c, 0, 76, 87
1, 208065, Note_on_c, 0, 79, 87
1, 208071, Note_off_c, 0, 76, 66
1, 208119, Note_on_c, 0, 82, 82
1, 208125, Note_off_c, 0, 79, 61
1, 208128, Note_off_c, 0, 73, 59
1, 208140, Note_off_c, 0, 70, 56
1, 208162, Note_on_c, 0, 85, 81
1, 208184, Note_off_c, 0, 82, 63
1, 208212, Note_on_c, 0, 88, 78
1, 208242, Note_off_c, 0, 85, 66
1, 208255, Note_on_c, 0, 91, 84
1, 208278, Note_off_c, 0, 88, 63
1, 208310, Note_on_c, 0, 79, 89
1, 208324, Note_off_c, 0, 91, 57
1, 208363, Note_off_c, 0, 79, 65
1, 208378, Note_on_c, 0, 67, 89
1, 208414, Note_on_c, 0, 70, 85
1, 208465, Note_on_c, 0, 73, 93
1, 208480, Note_off_c, 0, 67, 63
1, 208521, Note_on_c, 0, 76, 88
1, 208692, Note_off_c, 0, 76, 65
1, 208693, Note_on_c, 0, 79, 84
1, 208739, Note_on_c, 0, 82, 87
1, 208746, Note_off_c, 0, 73, 59
1, 208750, Note_off_c, 0, 70, 58
1, 208750, Note_off_c, 0, 79, 58
1, 208788, Note_on_c, 0, 85, 79
1, 208813, Note_off_c, 0, 82, 64
1, 208833, Note_on_c, 0, 88, 83
1, 208872, Note_off_c, 0, 85, 67
1, 208879, Note_on_c, 0, 91, 91
1, 208910, Note_off_c, 0, 88, 63
1, 208927, Note_on_c, 0, 79, 94
1, 208938, Note_off_c, 0, 91, 62
1, 208965, Note_off_c, 0, 79, 66
1, 208993, Note_on_c, 0, 70, 90
1, 209034, Note_on_c, 0, 73, 87
1, 209097, Note_on_c, 0, 76, 89
1, 209267, Note_off_c, 0, 76, 64
1, 209300, Note_off_c, 0, 70, 60
1, 209305, Note_on_c, 0, 79, 84
1, 209305, Note_off_c, 0, 73, 61
1, 209341, Note_on_c, 0, 82, 86
1, 209365, Note_off_c, 0, 79, 59
1, 209390, Note_on_c, 0, 85, 77
1, 209433, Note_off_c, 0, 82, 64
1, 209434, Note_on_c, 0, 88, 80
1, 209473, Note_off_c, 0, 85, 66
1, 209478, Note_on_c, 0, 91, 88
1, 209501, Note_off_c, 0, 88, 62
1, 209514, Note_on_c, 0, 79, 86
1, 209535, Note_off_c, 0, 91, 60
1, 209561, Note_off_c, 0, 79, 62
1, 209598, Note_on_c, 0, 73, 78
1, 209642, Note_on_c, 0, 76, 81
1, 209686, Note_off_c, 0, 73, 64
1, 209711, Note_off_c, 0, 76, 67
1, 209722, Note_on_c, 0, 79, 81
1, 209742, Note_on_c, 0, 82, 96
1, 209754, Note_off_c, 0, 79, 58
1, 209782, Note_on_c, 0, 85, 80
1, 209806, Note_off_c, 0, 82, 63
1, 209830, Note_on_c, 0, 88, 89
1, 209872, Note_off_c, 0, 85, 65
1, 209881, Note_on_c, 0, 91, 88
1, 209897, Note_off_c, 0, 88, 65
1, 209917, Note_off_c, 0, 91, 63
1, 209941, Note_on_c, 0, 76, 77
1, 209965, Note_on_c, 0, 79, 81
1, 210024, Note_off_c, 0, 76, 66
1, 210035, Note_off_c, 0, 79, 64
1, 210047, Note_on_c, 0, 82, 82
1, 210071, Note_on_c, 0, 85, 80
1, 210083, Note_off_c, 0, 82, 58
1, 210098, Note_on_c, 0, 88, 73
1, 210129, Note_off_c, 0, 85, 63
1, 210159, Note_on_c, 0, 91, 75
1, 210164, Note_on_c, 0, 90, 65
1, 210179, Note_off_c, 0, 88, 64
1, 210184, Note_on_c, 0, 94, 93
1, 210188, Note_off_c, 0, 90, 60
1, 210200, Note_off_c, 0, 91, 61
1, 210234, Note_off_c, 0, 94, 66
1, 210241, Note_on_c, 0, 79, 89
1, 210286, Note_on_c, 0, 82, 85
1, 210303, Note_off_c, 0, 79, 62
1, 210332, Note_on_c, 0, 85, 88
1, 210334, Note_off_c, 0, 82, 65
1, 210359, Note_off_c, 0, 85, 62
1, 210389, Note_on_c, 0, 88, 86
1, 210433, Note_on_c, 0, 91, 81
1, 210455, Note_off_c, 0, 88, 62
1, 210485, Note_off_c, 0, 91, 61
1, 210486, Note_on_c, 0, 94, 101
1, 210513, Note_off_c, 0, 94, 71
1, 210546, Note_on_c, 0, 82, 88
1, 210586, Note_on_c, 0, 85, 88
1, 210591, Note_off_c, 0, 82, 67
1, 210629, Note_off_c, 0, 85, 67
1, 210642, Note_on_c, 0, 88, 87
1, 210662, Note_off_c, 0, 88, 68
1, 210703, Note_on_c, 0, 88, 76
1, 210744, Note_on_c, 0, 91, 85
1, 210751, Note_off_c, 0, 88, 65
1, 210793, Note_off_c, 0, 91, 61
1, 210794, Note_on_c, 0, 94, 102
1, 210823, Note_off_c, 0, 94, 70
1, 210889, Note_on_c, 0, 85, 79
1, 210947, Note_on_c, 0, 88, 87
1, 210949, Note_off_c, 0, 85, 64
1, 210964, Note_off_c, 0, 88, 71
1, 211027, Note_on_c, 0, 88, 82
1, 211067, Note_on_c, 0, 91, 84
1, 211082, Note_off_c, 0, 88, 63
1, 211113, Note_on_c, 0, 94, 103
1, 211119, Note_off_c, 0, 91, 62
1, 211156, Note_off_c, 0, 94, 69
1, 211228, Note_on_c, 0, 82, 81
1, 211282, Note_on_c, 0, 85, 89
1, 211291, Note_off_c, 0, 82, 65
1, 211299, Note_off_c, 0, 85, 73
1, 211369, Note_on_c, 0, 85, 67
1, 211396, Note_off_c, 0, 85, 69
1, 211415, Note_on_c, 0, 88, 77
1, 211456, Note_on_c, 0, 91, 103
1, 211476, Note_off_c, 0, 88, 63
1, 211511, Note_off_c, 0, 91, 61
1, 211577, Note_on_c, 0, 79, 79
1, 211629, Note_off_c, 0, 79, 63
1, 211632, Note_on_c, 0, 82, 87
1, 211648, Note_off_c, 0, 82, 74
1, 211705, Note_on_c, 0, 82, 80
1, 211747, Note_off_c, 0, 82, 65
1, 211750, Note_on_c, 0, 85, 81
1, 211800, Note_on_c, 0, 88, 97
1, 211812, Note_off_c, 0, 85, 65
1, 211852, Note_off_c, 0, 88, 66
1, 211931, Note_on_c, 0, 76, 73
1, 211973, Note_on_c, 0, 79, 87
1, 211982, Note_off_c, 0, 76, 68
1, 211992, Note_off_c, 0, 79, 72
1, 212037, Note_on_c, 0, 79, 77
1, 212096, Note_on_c, 0, 82, 90
1, 212111, Note_off_c, 0, 79, 64
1, 212152, Note_on_c, 0, 85, 90
1, 212157, Note_off_c, 0, 82, 65
1, 212194, Note_off_c, 0, 85, 68
1, 212280, Note_on_c, 0, 73, 75
1, 212328, Note_on_c, 0, 76, 84
1, 212334, Note_off_c, 0, 73, 65
1, 212346, Note_off_c, 0, 76, 74
1, 212399, Note_on_c, 0, 76, 72
1, 212448, Note_on_c, 0, 79, 80
1, 212459, Note_off_c, 0, 76, 63
1, 212495, Note_on_c, 0, 82, 98
1, 212501, Note_off_c, 0, 79, 63
1, 212531, Note_off_c, 0, 82, 71
1, 212632, Note_on_c, 0, 70, 76
1, 212688, Note_on_c, 0, 73, 84
1, 212695, Note_off_c, 0, 70, 64
1, 212706, Note_off_c, 0, 73, 70
1, 212746, Note_on_c, 0, 73, 80
1, 212788, Note_off_c, 0, 73, 67
1, 212806, Note_on_c, 0, 76, 77
1, 212861, Note_on_c, 0, 79, 96
1, 212874, Note_off_c, 0, 76, 67
1, 212907, Note_off_c, 0, 79, 64
1, 212988, Note_on_c, 0, 67, 79
1, 213038, Note_on_c, 0, 70, 88
1, 213040, Note_off_c, 0, 67, 63
1, 213055, Note_off_c, 0, 70, 74
1, 213106, Note_on_c, 0, 70, 86
1, 213153, Note_off_c, 0, 70, 65
1, 213165, Note_on_c, 0, 73, 81
1, 213221, Note_on_c, 0, 76, 94
1, 213234, Note_off_c, 0, 73, 64
1, 213273, Note_off_c, 0, 76, 68
1, 213333, Note_on_c, 0, 64, 82
1, 213389, Note_on_c, 0, 67, 87
1, 213393, Note_off_c, 0, 64, 65
1, 213408, Note_off_c, 0, 67, 72
1, 213460, Note_on_c, 0, 67, 82
1, 213520, Note_on_c, 0, 70, 88
1, 213525, Note_off_c, 0, 67, 64
1, 213578, Note_on_c, 0, 73, 93
1, 213582, Note_off_c, 0, 70, 64
1, 213634, Note_off_c, 0, 73, 65
1, 213704, Note_on_c, 0, 61, 74
1, 213762, Note_on_c, 0, 64, 80
1, 213774, Note_off_c, 0, 61, 64
1, 213783, Note_off_c, 0, 64, 69
1, 213829, Note_on_c, 0, 64, 76
1, 213896, Note_on_c, 0, 67, 80
1, 213914, Note_off_c, 0, 64, 60
1, 213947, Note_on_c, 0, 70, 93
1, 213954, Note_off_c, 0, 67, 63
1, 213991, Note_off_c, 0, 70, 67
1, 214063, Note_on_c, 0, 58, 78
1, 214116, Note_on_c, 0, 61, 88
1, 214127, Note_off_c, 0, 58, 66
1, 214137, Note_off_c, 0, 61, 68
1, 214183, Note_on_c, 0, 61, 82
1, 214232, Note_off_c, 0, 61, 65
1, 214242, Note_on_c, 0, 64, 78
1, 214301, Note_on_c, 0, 67, 94
1, 214318, Note_off_c, 0, 64, 65
1, 214359, Note_off_c, 0, 67, 63
1, 214415, Note_on_c, 0, 55, 80
1, 214466, Note_off_c, 0, 55, 65
1, 214468, Note_on_c, 0, 58, 85
1, 214485, Note_off_c, 0, 58, 75
1, 214546, Note_on_c, 0, 58, 82
1, 214599, Note_off_c, 0, 58, 66
1, 214601, Note_on_c, 0, 61, 80
1, 214657, Note_on_c, 0, 64, 94
1, 214668, Note_off_c, 0, 61, 62
1, 214713, Note_off_c, 0, 64, 64
1, 214762, Note_on_c, 0, 52, 89
1, 214817, Note_off_c, 0, 52, 65
1, 214820, Note_on_c, 0, 55, 86
1, 214837, Note_off_c, 0, 55, 73
1, 214885, Note_on_c, 0, 55, 84
1, 214951, Note_on_c, 0, 58, 87
1, 214955, Note_off_c, 0, 55, 64
1, 215012, Note_on_c, 0, 61, 91
1, 215021, Note_off_c, 0, 58, 63
1, 215062, Note_off_c, 0, 61, 64
1, 215116, Note_on_c, 0, 49, 83
1, 215175, Note_on_c, 0, 52, 91
1, 215186, Note_off_c, 0, 49, 63
1, 215196, Note_off_c, 0, 52, 74
1, 215249, Note_on_c, 0, 52, 81
1, 215309, Note_off_c, 0, 52, 68
1, 215309, Note_on_c, 0, 55, 85
1, 215368, Note_on_c, 0, 58, 96
1, 215377, Note_off_c, 0, 55, 64
1, 215407, Note_off_c, 0, 58, 68
1, 215479, Note_on_c, 0, 46, 89
1, 215532, Note_on_c, 0, 49, 90
1, 215550, Note_off_c, 0, 46, 63
1, 215559, Note_off_c, 0, 49, 67
1, 215598, Note_on_c, 0, 49, 69
1, 215648, Note_off_c, 0, 49, 66
1, 215663, Note_on_c, 0, 52, 77
1, 215720, Note_on_c, 0, 55, 92
1, 215741, Note_off_c, 0, 52, 65
1, 215774, Note_off_c, 0, 55, 64
1, 215833, Note_on_c, 0, 43, 94
1, 215894, Note_on_c, 0, 46, 96
1, 215905, Note_off_c, 0, 43, 64
1, 215929, Note_off_c, 0, 46, 65
1, 215971, Note_on_c, 0, 46, 79
1, 216032, Note_off_c, 0, 46, 63
1, 216042, Note_on_c, 0, 49, 79
1, 216099, Note_on_c, 0, 52, 96
1, 216108, Note_off_c, 0, 49, 63
1, 216152, Note_off_c, 0, 52, 66
1, 216218, Note_on_c, 0, 40, 96
1, 216284, Note_on_c, 0, 43, 95
1, 216301, Note_off_c, 0, 40, 55
1, 216322, Note_off_c, 0, 43, 62
1, 216386, Note_on_c, 0, 43, 82
1, 216435, Note_on_c, 0, 46, 82
1, 216472, Note_off_c, 0, 43, 58
1, 216502, Note_on_c, 0, 49, 98
1, 216516, Note_off_c, 0, 46, 64
1, 216546, Note_off_c, 0, 49, 66
1, 216761, Note_on_c, 0, 37, 108
1, 216762, Note_on_c, 0, 43, 96
1, 216762, Note_on_c, 0, 46, 96
1, 216936, Note_off_c, 0, 37, 66
1, 216965, Note_on_c, 0, 52, 65
1, 216972, Note_off_c, 0, 43, 52
1, 216978, Note_off_c, 0, 46, 59
1, 217071, Note_off_c, 0, 52, 64
1, 217094, Note_on_c, 0, 43, 59
1, 217100, Note_on_c, 0, 46, 66
1, 217157, Note_off_c, 0, 43, 58
1, 217157, Note_off_c, 0, 46, 60
1, 217170, Note_on_c, 0, 52, 61
1, 217234, Note_off_c, 0, 52, 56
1, 217245, Note_on_c, 0, 46, 66
1, 217263, Note_on_c, 0, 43, 56
1, 217287, Note_off_c, 0, 46, 58
1, 217304, Note_on_c, 0, 52, 54
1, 217307, Note_off_c, 0, 43, 53
1, 217369, Note_on_c, 0, 73, 94
1, 217369, Note_off_c, 0, 52, 65
1, 217369, Note_on_c, 0, 46, 76
1, 217375, Note_on_c, 0, 43, 64
1, 217428, Note_off_c, 0, 43, 57
1, 217430, Note_on_c, 0, 52, 64
1, 217430, Note_off_c, 0, 73, 64
1, 217433, Note_off_c, 0, 46, 62
1, 217491, Note_on_c, 0, 73, 94
1, 217492, Note_on_c, 0, 46, 74
1, 217500, Note_off_c, 0, 52, 64
1, 217502, Note_on_c, 0, 43, 63
1, 217559, Note_on_c, 0, 52, 66
1, 217561, Note_off_c, 0, 73, 65
1, 217564, Note_off_c, 0, 43, 59
1, 217564, Note_off_c, 0, 46, 62
1, 217617, Note_on_c, 0, 73, 98
1, 217621, Note_on_c, 0, 46, 77
1, 217626, Note_on_c, 0, 43, 65
1, 217629, Note_off_c, 0, 52, 63
1, 217682, Note_on_c, 0, 52, 60
1, 217686, Note_off_c, 0, 43, 58
1, 217686, Note_off_c, 0, 73, 65
1, 217688, Note_off_c, 0, 46, 61
1, 217753, Note_on_c, 0, 73, 103
1, 217753, Note_off_c, 0, 52, 65
1, 217756, Note_on_c, 0, 46, 79
1, 217763, Note_on_c, 0, 43, 72
1, 217806, Note_off_c, 0, 73, 70
1, 217820, Note_on_c, 0, 52, 63
1, 217829, Note_off_c, 0, 46, 62
1, 217831, Note_off_c, 0, 43, 60
1, 217884, Note_on_c, 0, 43, 58
1, 217884, Note_off_c, 0, 52, 65
1, 217889, Note_on_c, 0, 46, 66
1, 217941, Note_off_c, 0, 43, 57
1, 217946, Note_off_c, 0, 46, 62
1, 217950, Note_on_c, 0, 52, 61
1, 218007, Note_off_c, 0, 52, 61
1, 218012, Note_on_c, 0, 46, 60
1, 218014, Note_on_c, 0, 43, 55
1, 218067, Note_on_c, 0, 52, 59
1, 218069, Note_off_c, 0, 43, 54
1, 218076, Note_off_c, 0, 46, 61
1, 218146, Note_off_c, 0, 52, 65
1, 218147, Note_on_c, 0, 37, 92
1, 218147, Note_on_c, 0, 46, 66
1, 218156, Note_on_c, 0, 43, 65
1, 218201, Note_on_c, 0, 52, 57
1, 218203, Note_off_c, 0, 43, 55
1, 218208, Note_off_c, 0, 37, 64
1, 218216, Note_off_c, 0, 46, 62
1, 218264, Note_on_c, 0, 37, 92
1, 218270, Note_on_c, 0, 46, 67
1, 218270, Note_off_c, 0, 52, 65
1, 218281, Note_on_c, 0, 43, 67
1, 218332, Note_off_c, 0, 43, 59
1, 218334, Note_on_c, 0, 52, 64
1, 218337, Note_off_c, 0, 37, 64
1, 218343, Note_off_c, 0, 46, 62
1, 218391, Note_on_c, 0, 37, 91
1, 218408, Note_off_c, 0, 52, 64
1, 218410, Note_on_c, 0, 46, 75
1, 218423, Note_on_c, 0, 43, 72
1, 218474, Note_on_c, 0, 52, 61
1, 218485, Note_off_c, 0, 37, 63
1, 218487, Note_off_c, 0, 43, 58
1, 218499, Note_off_c, 0, 46, 61
1, 218544, Note_off_c, 0, 52, 64
1, 218549, Note_on_c, 0, 37, 94
1, 218559, Note_on_c, 0, 46, 66
1, 218571, Note_on_c, 0, 43, 68
1, 218644, Note_on_c, 0, 52, 69
1, 218654, Note_off_c, 0, 46, 61
1, 218656, Note_off_c, 0, 43, 58
1, 218673, Note_off_c, 0, 37, 64
1, 218709, Note_off_c, 0, 52, 65
1, 218713, Note_on_c, 0, 46, 67
1, 218726, Note_on_c, 0, 43, 55
1, 218771, Note_on_c, 0, 52, 64
1, 218773, Note_off_c, 0, 46, 62
1, 218776, Note_off_c, 0, 43, 54
1, 218826, Poly_aftertouch_c, 0, 50, 127
1, 218836, Note_off_c, 0, 52, 65
1, 218853, Note_on_c, 0, 46, 68
1, 218856, Note_on_c, 0, 43, 58
1, 218865, Poly_aftertouch_c, 0, 50, 0
1, 218904, Note_off_c, 0, 43, 52
1, 218909, Note_on_c, 0, 52, 62
1, 218913, Note_off_c, 0, 46, 61
1, 218958, Note_on_c, 0, 73, 91
1, 218966, Note_on_c, 0, 46, 69
1, 218969, Note_on_c, 0, 43, 61
1, 218969, Note_off_c, 0, 52, 66
1, 219024, Note_off_c, 0, 73, 64
1, 219026, Note_on_c, 0, 52, 62
1, 219033, Note_off_c, 0, 46, 62
1, 219038, Note_off_c, 0, 43, 59
1, 219085, Note_on_c, 0, 73, 97
1, 219090, Note_on_c, 0, 46, 74
1, 219097, Note_on_c, 0, 43, 57
1, 219097, Note_off_c, 0, 52, 66
1, 219150, Note_off_c, 0, 73, 64
1, 219152, Note_on_c, 0, 52, 66
1, 219157, Note_off_c, 0, 43, 58
1, 219163, Note_off_c, 0, 46, 62
1, 219214, Note_on_c, 0, 73, 100
1, 219216, Note_on_c, 0, 46, 69
1, 219226, Note_on_c, 0, 43, 61
1, 219227, Note_off_c, 0, 52, 66
1, 219284, Note_on_c, 0, 52, 66
1, 219285, Note_off_c, 0, 43, 60
1, 219288, Note_off_c, 0, 73, 63
1, 219294, Note_off_c, 0, 46, 61
1, 219348, Note_on_c, 0, 73, 101
1, 219350, Note_on_c, 0, 46, 70
1, 219357, Note_off_c, 0, 52, 64
1, 219358, Note_on_c, 0, 43, 62
1, 219405, Note_off_c, 0, 43, 59
1, 219407, Note_on_c, 0, 52, 60
1, 219411, Note_off_c, 0, 73, 66
1, 219419, Note_off_c, 0, 46, 62
1, 219468, Note_on_c, 0, 46, 68
1, 219472, Note_on_c, 0, 43, 68
1, 219474, Note_off_c, 0, 52, 64
1, 219527, Note_off_c, 0, 43, 61
1, 219533, Note_on_c, 0, 52, 63
1, 219533, Note_off_c, 0, 46, 62
1, 219587, Note_on_c, 0, 46, 67
1, 219600, Note_off_c, 0, 52, 64
1, 219604, Note_on_c, 0, 43, 62
1, 219645, Note_off_c, 0, 43, 56
1, 219659, Note_on_c, 0, 52, 60
1, 219664, Note_off_c, 0, 46, 61
1, 219719, Note_off_c, 0, 52, 64
1, 219720, Note_on_c, 0, 46, 70
1, 219725, Note_on_c, 0, 37, 90
1, 219729, Note_on_c, 0, 43, 71
1, 219775, Note_off_c, 0, 43, 59
1, 219780, Note_off_c, 0, 37, 65
1, 219781, Note_on_c, 0, 52, 66
1, 219789, Note_off_c, 0, 46, 61
1, 219840, Note_on_c, 0, 37, 88
1, 219845, Note_on_c, 0, 46, 70
1, 219846, Note_off_c, 0, 52, 64
1, 219854, Note_on_c, 0, 43, 70
1, 219895, Note_off_c, 0, 37, 64
1, 219905, Note_off_c, 0, 43, 59
1, 219910, Note_on_c, 0, 52, 69
1, 219915, Note_off_c, 0, 46, 62
1, 219964, Note_on_c, 0, 37, 90
1, 219977, Note_on_c, 0, 46, 76
1, 219977, Note_off_c, 0, 52, 64
1, 219991, Note_on_c, 0, 43, 73
1, 220037, Note_off_c, 0, 43, 53
1, 220041, Note_on_c, 0, 52, 71
1, 220042, Note_off_c, 0, 37, 64
1, 220049, Note_off_c, 0, 46, 61
1, 220108, Control_c, 0, 64, 112
1, 220115, Note_on_c, 0, 36, 101
1, 220120, Note_on_c, 0, 46, 82
1, 220120, Note_off_c, 0, 52, 65
1, 220122, Control_c, 0, 64, 73
1, 220132, Note_on_c, 0, 43, 77
1, 220137, Control_c, 0, 64, 0
1, 220195, Note_on_c, 0, 52, 74
1, 220204, Note_off_c, 0, 46, 61
1, 220206, Note_off_c, 0, 43, 61
1, 220226, Control_c, 0, 64, 62
1, 220240, Control_c, 0, 64, 86
1, 220254, Note_off_c, 0, 36, 64
1, 220255, Control_c, 0, 64, 112
1, 220261, Note_on_c, 0, 46, 69
1, 220269, Note_off_c, 0, 52, 65
1, 220270, Control_c, 0, 64, 127
1, 220274, Note_on_c, 0, 43, 59
1, 220326, Note_on_c, 0, 52, 63
1, 220332, Note_off_c, 0, 43, 53
1, 220332, Note_off_c, 0, 46, 62
1, 220397, Note_on_c, 0, 46, 72
1, 220401, Note_off_c, 0, 52, 65
1, 220406, Note_on_c, 0, 43, 59
1, 220455, Note_off_c, 0, 43, 60
1, 220466, Note_on_c, 0, 52, 68
1, 220467, Note_off_c, 0, 46, 62
1, 220522, Note_on_c, 0, 46, 70
1, 220525, Note_on_c, 0, 73, 94
1, 220529, Note_off_c, 0, 52, 66
1, 220539, Note_on_c, 0, 43, 58
1, 220576, Note_off_c, 0, 43, 60
1, 220577, Note_off_c, 0, 73, 63
1, 220585, Note_off_c, 0, 46, 62
1, 220609, Note_on_c, 0, 52, 49
1, 220623, Note_on_c, 0, 53, 32
1, 220642, Note_on_c, 0, 73, 98
1, 220645, Note_on_c, 0, 46, 67
1, 220645, Note_off_c, 0, 52, 67
1, 220655, Note_on_c, 0, 43, 68
1, 220659, Note_off_c, 0, 53, 44
1, 220694, Note_off_c, 0, 43, 53
1, 220695, Note_off_c, 0, 73, 62
1, 220709, Note_off_c, 0, 46, 61
1, 220718, Note_on_c, 0, 52, 75
1, 220758, Note_on_c, 0, 73, 87
1, 220768, Note_on_c, 0, 46, 72
1, 220773, Note_off_c, 0, 52, 67
1, 220782, Note_on_c, 0, 43, 61
1, 220822, Note_off_c, 0, 43, 58
1, 220826, Note_off_c, 0, 73, 64
1, 220829, Note_on_c, 0, 52, 69
1, 220835, Note_off_c, 0, 46, 63
1, 220856, Control_c, 0, 64, 98
1, 220871, Control_c, 0, 64, 72
1, 220881, Note_on_c, 0, 72, 96
1, 220886, Control_c, 0, 64, 0
1, 220891, Note_on_c, 0, 46, 69
1, 220895, Note_off_c, 0, 52, 68
1, 220901, Note_on_c, 0, 43, 73
1, 220931, Control_c, 0, 64, 64
1, 220945, Control_c, 0, 64, 85
1, 220955, Note_on_c, 0, 52, 67
1, 220955, Note_off_c, 0, 43, 53
1, 220959, Note_off_c, 0, 46, 61
1, 220960, Control_c, 0, 64, 127
1, 220961, Note_off_c, 0, 72, 68
1, 221012, Note_on_c, 0, 46, 67
1, 221020, Note_on_c, 0, 43, 56
1, 221020, Note_off_c, 0, 52, 65
1, 221075, Note_on_c, 0, 52, 69
1, 221076, Note_off_c, 0, 43, 56
1, 221081, Note_off_c, 0, 46, 62
1, 221139, Note_on_c, 0, 46, 67
1, 221144, Note_off_c, 0, 52, 63
1, 221151, Note_on_c, 0, 43, 56
1, 221198, Note_off_c, 0, 43, 58
1, 221201, Note_on_c, 0, 52, 66
1, 221202, Note_off_c, 0, 46, 63
1, 221254, Note_on_c, 0, 37, 84
1, 221259, Note_off_c, 0, 52, 66
1, 221262, Note_on_c, 0, 46, 71
1, 221275, Note_on_c, 0, 43, 67
1, 221309, Note_off_c, 0, 37, 62
1, 221318, Note_off_c, 0, 43, 58
1, 221323, Note_on_c, 0, 52, 72
1, 221330, Note_off_c, 0, 46, 61
1, 221371, Note_on_c, 0, 37, 81
1, 221384, Note_on_c, 0, 46, 70
1, 221390, Note_off_c, 0, 52, 64
1, 221395, Note_on_c, 0, 43, 71
1, 221429, Note_off_c, 0, 37, 65
1, 221444, Note_on_c, 0, 52, 67
1, 221447, Note_off_c, 0, 43, 55
1, 221456, Note_off_c, 0, 46, 62
1, 221494, Note_on_c, 0, 37, 89
1, 221513, Note_on_c, 0, 46, 74
1, 221521, Note_off_c, 0, 52, 64
1, 221524, Note_on_c, 0, 43, 68
1, 221575, Note_on_c, 0, 52, 63
1, 221578, Note_off_c, 0, 43, 62
1, 221580, Note_off_c, 0, 37, 64
1, 221589, Note_off_c, 0, 46, 63
1, 221634, Control_c, 0, 64, 112
1, 221644, Note_on_c, 0, 36, 98
1, 221649, Control_c, 0, 64, 85
1, 221654, Note_on_c, 0, 46, 74
1, 221658, Note_off_c, 0, 52, 65
1, 221664, Control_c, 0, 64, 0
1, 221670, Note_on_c, 0, 43, 69
1, 221729, Note_on_c, 0, 52, 66
1, 221736, Note_off_c, 0, 46, 63
1, 221738, Note_off_c, 0, 43, 57
1, 221753, Control_c, 0, 64, 68
1, 221768, Control_c, 0, 64, 89
1, 221783, Control_c, 0, 64, 113
1, 221792, Note_off_c, 0, 36, 64
1, 221796, Note_on_c, 0, 46, 68
1, 221798, Control_c, 0, 64, 127
1, 221806, Note_on_c, 0, 43, 55
1, 221807, Note_off_c, 0, 52, 63
1, 221858, Note_on_c, 0, 52, 55
1, 221867, Note_off_c, 0, 46, 63
1, 221872, Note_off_c, 0, 43, 59
1, 221931, Note_on_c, 0, 46, 72
1, 221934, Note_on_c, 0, 43, 53
1, 221937, Note_off_c, 0, 52, 65
1, 221979, Poly_aftertouch_c, 0, 52, 0
1, 221989, Note_on_c, 0, 52, 57
1, 221995, Note_off_c, 0, 43, 53
1, 221998, Note_off_c, 0, 46, 62
1, 222051, Note_on_c, 0, 46, 65
1, 222058, Note_on_c, 0, 73, 91
1, 222058, Note_on_c, 0, 43, 56
1, 222058, Note_off_c, 0, 52, 66
1, 222105, Note_off_c, 0, 73, 63
1, 222108, Note_off_c, 0, 43, 61
1, 222116, Note_on_c, 0, 52, 61
1, 222117, Note_off_c, 0, 46, 62
1, 222173, Note_on_c, 0, 46, 66
1, 222177, Note_on_c, 0, 73, 93
1, 222178, Note_off_c, 0, 52, 65
1, 222191, Note_on_c, 0, 43, 60
1, 222236, Note_off_c, 0, 73, 64
1, 222244, Note_off_c, 0, 43, 55
1, 222249, Note_off_c, 0, 46, 62
1, 222250, Note_on_c, 0, 52, 66
1, 222306, Note_on_c, 0, 73, 93
1, 222308, Note_on_c, 0, 46, 69
1, 222314, Note_off_c, 0, 52, 66
1, 222335, Note_on_c, 0, 43, 54
1, 222369, Note_off_c, 0, 43, 59
1, 222370, Note_off_c, 0, 73, 62
1, 222373, Note_on_c, 0, 52, 63
1, 222375, Note_off_c, 0, 46, 63
1, 222412, Control_c, 0, 64, 104
1, 222427, Control_c, 0, 64, 80
1, 222442, Control_c, 0, 64, 0
1, 222443, Note_on_c, 0, 72, 93
1, 222444, Note_off_c, 0, 52, 66
1, 222445, Note_on_c, 0, 46, 70
1, 222452, Note_on_c, 0, 43, 62
1, 222502, Control_c, 0, 64, 60
1, 222511, Note_off_c, 0, 46, 62
1, 222512, Note_on_c, 0, 52, 66
1, 222516, Control_c, 0, 64, 75
1, 222519, Note_off_c, 0, 43, 58
1, 222531, Control_c, 0, 64, 98
1, 222532, Note_off_c, 0, 72, 66
1, 222546, Control_c, 0, 64, 127
1, 222572, Note_on_c, 0, 46, 69
1, 222579, Note_off_c, 0, 52, 66
1, 222583, Note_on_c, 0, 43, 57
1, 222646, Note_on_c, 0, 52, 65
1, 222651, Note_off_c, 0, 46, 63
1, 222654, Note_off_c, 0, 43, 58
1, 222711, Note_on_c, 0, 46, 66
1, 222713, Note_off_c, 0, 52, 62
1, 222725, Note_on_c, 0, 43, 50
1, 222780, Note_on_c, 0, 52, 62
1, 222782, Note_off_c, 0, 46, 61
1, 222785, Note_off_c, 0, 43, 52
1, 222848, Note_off_c, 0, 52, 65
1, 222851, Note_on_c, 0, 46, 62
1, 222860, Note_on_c, 0, 37, 82
1, 222866, Note_on_c, 0, 43, 54
1, 222933, Note_on_c, 0, 52, 63
1, 222934, Note_off_c, 0, 37, 64
1, 222941, Note_off_c, 0, 46, 57
1, 222948, Note_off_c, 0, 43, 49
1, 223018, Note_off_c, 0, 52, 61
1, 223031, Note_on_c, 0, 46, 60
1, 223036, Note_on_c, 0, 37, 80
1, 223043, Note_on_c, 0, 43, 42
1, 223098, Note_off_c, 0, 37, 62
1, 223140, Note_on_c, 0, 52, 61
1, 223151, Note_off_c, 0, 46, 55
1, 223254, Note_on_c, 0, 37, 66
1, 223256, Note_off_c, 0, 52, 64
1, 223272, Note_on_c, 0, 46, 56
1, 223295, Control_c, 0, 67, 10
1, 223307, Note_off_c, 0, 37, 60
1, 223310, Control_c, 0, 67, 15
1, 223324, Control_c, 0, 67, 22
1, 223346, Control_c, 0, 67, 29
1, 223361, Control_c, 0, 67, 34
1, 223362, Note_off_c, 0, 46, 59
1, 223376, Control_c, 0, 67, 40
1, 223388, Note_on_c, 0, 52, 55
1, 223390, Control_c, 0, 67, 44
1, 223405, Control_c, 0, 67, 49
1, 223411, Note_off_c, 0, 43, 40
1, 223420, Note_off_c, 0, 52, 67
1, 223420, Control_c, 0, 67, 54
1, 223435, Control_c, 0, 67, 58
1, 223450, Control_c, 0, 67, 64
1, 223465, Control_c, 0, 67, 71
1, 223479, Control_c, 0, 67, 78
1, 223494, Control_c, 0, 67, 85
1, 223509, Control_c, 0, 67, 93
1, 223524, Control_c, 0, 67, 101
1, 223539, Control_c, 0, 67, 109
1, 223554, Control_c, 0, 67, 117
1, 223569, Control_c, 0, 67, 126
1, 223584, Control_c, 0, 67, 127
1, 223658, Control_c, 0, 64, 125
1, 223672, Control_c, 0, 64, 113
1, 223687, Control_c, 0, 64, 103
1, 223702, Control_c, 0, 64, 96
1, 223716, Control_c, 0, 64, 88
1, 223731, Control_c, 0, 64, 79
1, 223746, Control_c, 0, 64, 68
1, 223761, Control_c, 0, 64, 52
1, 223776, Control_c, 0, 64, 0
1, 223875, Note_on_c, 0, 52, 38
1, 223882, Note_on_c, 0, 46, 36
1, 223885, Note_on_c, 0, 36, 36
1, 223887, Note_on_c, 0, 43, 31
1, 223968, Control_c, 0, 64, 61
1, 223983, Control_c, 0, 64, 66
1, 223998, Control_c, 0, 64, 70
1, 224002, Note_off_c, 0, 36, 51
1, 224013, Control_c, 0, 64, 72
1, 224028, Control_c, 0, 64, 74
1, 224043, Control_c, 0, 64, 75
1, 224058, Control_c, 0, 64, 76
1, 224073, Control_c, 0, 64, 77
1, 224078, Note_on_c, 0, 36, 35
1, 224141, Note_off_c, 0, 36, 58
1, 224154, Control_c, 0, 64, 76
1, 224184, Control_c, 0, 64, 76
1, 224199, Control_c, 0, 64, 75
1, 224213, Control_c, 0, 64, 74
1, 224228, Note_on_c, 0, 36, 45
1, 224228, Control_c, 0, 64, 73
1, 224243, Control_c, 0, 64, 73
1, 224258, Control_c, 0, 64, 72
1, 224273, Control_c, 0, 64, 71
1, 224275, Note_off_c, 0, 36, 55
1, 224287, Control_c, 0, 64, 71
1, 224311, Note_off_c, 0, 43, 31
1, 224314, Note_off_c, 0, 52, 34
1, 224351, Note_on_c, 0, 36, 39
1, 224392, Note_off_c, 0, 46, 39
1, 224407, Control_c, 0, 64, 71
1, 224453, Note_off_c, 0, 36, 0
1, 224471, Note_on_c, 0, 36, 32
1, 224542, Note_off_c, 0, 36, 40
1, 224599, Control_c, 0, 64, 71
1, 224600, Note_on_c, 0, 36, 31
1, 224628, Control_c, 0, 64, 70
1, 224643, Control_c, 0, 64, 69
1, 224658, Control_c, 0, 64, 68
1, 224673, Control_c, 0, 64, 67
1, 224702, Control_c, 0, 64, 67
1, 224708, Note_off_c, 0, 36, 0
1, 224728, Note_on_c, 0, 36, 23
1, 224761, Control_c, 0, 64, 68
1, 224779, Note_off_c, 0, 36, 56
1, 224822, Control_c, 0, 64, 67
1, 224866, Note_on_c, 0, 36, 34
1, 224917, Note_off_c, 0, 36, 54
1, 224933, Control_c, 0, 64, 67
1, 224948, Control_c, 0, 64, 67
1, 224977, Control_c, 0, 64, 68
1, 224994, Note_on_c, 0, 36, 30
1, 225036, Control_c, 0, 64, 68
1, 225062, Note_off_c, 0, 36, 40
1, 225066, Control_c, 0, 64, 69
1, 225081, Control_c, 0, 64, 70
1, 225096, Control_c, 0, 64, 71
1, 225110, Control_c, 0, 64, 72
1, 225119, Note_on_c, 0, 36, 27
1, 225125, Control_c, 0, 64, 73
1, 225155, Control_c, 0, 64, 73
1, 225170, Control_c, 0, 64, 74
1, 225185, Control_c, 0, 64, 74
1, 225199, Control_c, 0, 64, 75
1, 225214, Control_c, 0, 64, 76
1, 225221, Note_off_c, 0, 36, 0
1, 225229, Control_c, 0, 64, 76
1, 225244, Control_c, 0, 64, 77
1, 225248, Note_on_c, 0, 36, 7
1, 225274, Control_c, 0, 64, 77
1, 225304, Control_c, 0, 64, 78
1, 225318, Control_c, 0, 64, 78
1, 225342, Note_off_c, 0, 36, 0
1, 225348, Control_c, 0, 64, 79
1, 225364, Note_on_c, 0, 36, 22
1, 225392, Control_c, 0, 64, 79
1, 225451, Control_c, 0, 64, 80
1, 225480, Note_off_c, 0, 36, 0
1, 225495, Control_c, 0, 64, 80
1, 225499, Note_on_c, 0, 36, 24
1, 225540, Control_c, 0, 64, 81
1, 225569, Control_c, 0, 64, 81
1, 225607, Control_c, 0, 64, 82
1, 225620, Note_off_c, 0, 36, 0
1, 225638, Note_on_c, 0, 36, 32
1, 225667, Control_c, 0, 64, 82
1, 225691, Note_off_c, 0, 36, 53
1, 225712, Control_c, 0, 64, 83
1, 225775, Note_on_c, 0, 36, 36
1, 225815, Control_c, 0, 64, 83
1, 225834, Note_off_c, 0, 36, 42
1, 225874, Control_c, 0, 64, 84
1, 225903, Note_on_c, 0, 36, 27
1, 225933, Control_c, 0, 64, 84
1, 225954, Note_off_c, 0, 36, 52
1, 226007, Control_c, 0, 64, 85
1, 226034, Note_on_c, 0, 36, 34
1, 226052, Control_c, 0, 64, 85
1, 226082, Control_c, 0, 64, 86
1, 226096, Note_off_c, 0, 36, 44
1, 226126, Control_c, 0, 64, 86
1, 226141, Control_c, 0, 64, 87
1, 226171, Control_c, 0, 64, 87
1, 226177, Note_on_c, 0, 36, 21
1, 226200, Control_c, 0, 64, 88
1, 226215, Control_c, 0, 64, 88
1, 226237, Note_off_c, 0, 36, 42
1, 226274, Control_c, 0, 64, 89
1, 226304, Note_on_c, 0, 36, 29
1, 226356, Control_c, 0, 64, 89
1, 226357, Note_off_c, 0, 36, 48
1, 226459, Note_on_c, 0, 36, 34
1, 226475, Control_c, 0, 64, 90
1, 226516, Note_off_c, 0, 36, 44
1, 226627, Note_on_c, 0, 36, 27
1, 226671, Note_off_c, 0, 36, 47
1, 226697, Control_c, 0, 64, 90
1, 226794, Note_on_c, 0, 60, 37
1, 226806, Note_on_c, 0, 48, 40
1, 226813, Note_on_c, 0, 36, 24
1, 226858, Note_off_c, 0, 36, 50
1, 226934, Control_c, 0, 64, 91
1, 226945, Note_off_c, 0, 60, 61
1, 226957, Note_off_c, 0, 48, 55
1, 226988, Note_on_c, 0, 36, 29
1, 227027, Note_off_c, 0, 36, 53
1, 227068, Control_c, 0, 64, 91
1, 227136, Note_on_c, 0, 36, 23
1, 227180, Note_off_c, 0, 36, 49
1, 227197, Note_on_c, 0, 56, 45
1, 227220, Note_on_c, 0, 44, 19
1, 227257, Note_off_c, 0, 56, 58
1, 227263, Note_off_c, 0, 44, 38
1, 227381, Note_on_c, 0, 53, 51
1, 227395, Note_on_c, 0, 41, 49
1, 227411, Note_on_c, 0, 36, 27
1, 227477, Note_off_c, 0, 36, 42
1, 227582, Note_on_c, 0, 36, 25
1, 227639, Note_off_c, 0, 36, 43
1, 227653, Control_c, 0, 64, 92
1, 227703, Note_on_c, 0, 36, 29
1, 227748, Note_off_c, 0, 36, 47
1, 227849, Note_on_c, 0, 36, 36
1, 227893, Note_off_c, 0, 36, 48
1, 227975, Note_on_c, 0, 36, 33
1, 228020, Note_off_c, 0, 36, 48
1, 228106, Note_on_c, 0, 36, 34
1, 228148, Note_off_c, 0, 36, 50
1, 228213, Note_off_c, 0, 41, 35
1, 228243, Note_on_c, 0, 36, 36
1, 228249, Note_off_c, 0, 53, 65
1, 228291, Note_off_c, 0, 36, 47
1, 228361, Note_on_c, 0, 36, 34
1, 228413, Note_off_c, 0, 36, 45
1, 228491, Note_on_c, 0, 36, 31
1, 228548, Note_off_c, 0, 36, 42
1, 228630, Note_on_c, 0, 36, 33
1, 228663, Note_on_c, 0, 56, 51
1, 228666, Note_on_c, 0, 44, 43
1, 228696, Note_off_c, 0, 36, 43
1, 228720, Control_c, 0, 64, 92
1, 228736, Note_off_c, 0, 44, 62
1, 228763, Note_on_c, 0, 36, 38
1, 228794, Control_c, 0, 64, 93
1, 228816, Note_off_c, 0, 36, 56
1, 228840, Control_c, 0, 64, 93
1, 228919, Note_on_c, 0, 36, 42
1, 228929, Control_c, 0, 64, 94
1, 228946, Note_off_c, 0, 56, 64
1, 228952, Note_on_c, 0, 60, 62
1, 228970, Note_off_c, 0, 36, 45
1, 228982, Note_off_c, 0, 60, 66
1, 229033, Control_c, 0, 64, 94
1, 229045, Note_on_c, 0, 36, 36
1, 229050, Note_on_c, 0, 65, 60
1, 229064, Note_on_c, 0, 53, 42
1, 229080, Note_off_c, 0, 36, 54
1, 229190, Note_on_c, 0, 36, 40
1, 229220, Note_off_c, 0, 36, 52
1, 229259, Note_off_c, 0, 53, 54
1, 229315, Note_on_c, 0, 36, 43
1, 229371, Note_off_c, 0, 65, 65
1, 229373, Note_off_c, 0, 36, 45
1, 229448, Note_on_c, 0, 36, 38
1, 229450, Note_on_c, 0, 56, 54
1, 229450, Note_on_c, 0, 68, 61
1, 229500, Control_c, 0, 64, 95
1, 229512, Note_off_c, 0, 36, 52
1, 229530, Note_off_c, 0, 56, 63
1, 229581, Note_on_c, 0, 36, 41
1, 229650, Note_off_c, 0, 36, 48
1, 229731, Note_on_c, 0, 72, 71
1, 229735, Note_off_c, 0, 68, 65
1, 229736, Note_on_c, 0, 36, 43
1, 229745, Note_on_c, 0, 60, 46
1, 229769, Note_off_c, 0, 60, 54
1, 229793, Note_off_c, 0, 36, 57
1, 229825, Note_off_c, 0, 72, 62
1, 229866, Note_on_c, 0, 77, 70
1, 229874, Note_on_c, 0, 65, 53
1, 229909, Note_on_c, 0, 36, 25
1, 229915, Control_c, 0, 64, 95
1, 229946, Note_off_c, 0, 36, 53
1, 230005, Note_off_c, 0, 77, 62
1, 230032, Note_off_c, 0, 65, 65
1, 230035, Note_on_c, 0, 36, 43
1, 230048, Control_c, 0, 64, 96
1, 230086, Note_off_c, 0, 36, 48
1, 230187, Note_on_c, 0, 36, 39
1, 230228, Note_off_c, 0, 36, 48
1, 230315, Note_on_c, 0, 65, 59
1, 230321, Note_on_c, 0, 53, 54
1, 230334, Note_on_c, 0, 36, 40
1, 230398, Note_off_c, 0, 53, 64
1, 230408, Note_off_c, 0, 36, 39
1, 230446, Note_off_c, 0, 65, 63
1, 230461, Note_on_c, 0, 36, 37
1, 230529, Note_off_c, 0, 36, 53
1, 230615, Note_on_c, 0, 36, 41
1, 230717, Note_off_c, 0, 36, 36
1, 230797, Control_c, 0, 64, 94
1, 230812, Control_c, 0, 64, 91
1, 230834, Control_c, 0, 64, 84
1, 230841, Note_on_c, 0, 72, 68
1, 230849, Control_c, 0, 64, 76
1, 230857, Note_on_c, 0, 67, 48
1, 230859, Note_on_c, 0, 36, 42
1, 230863, Control_c, 0, 64, 64
1, 230865, Note_on_c, 0, 64, 46
1, 230878, Control_c, 0, 64, 19
1, 230893, Control_c, 0, 64, 0
1, 230908, Note_off_c, 0, 36, 55
1, 230938, Control_c, 0, 64, 19
1, 230953, Control_c, 0, 64, 49
1, 230968, Control_c, 0, 64, 61
1, 230982, Control_c, 0, 64, 66
1, 230997, Control_c, 0, 64, 71
1, 231012, Control_c, 0, 64, 76
1, 231014, Note_on_c, 0, 36, 42
1, 231027, Control_c, 0, 64, 81
1, 231042, Control_c, 0, 64, 84
1, 231056, Control_c, 0, 64, 85
1, 231059, Note_off_c, 0, 36, 50
1, 231071, Control_c, 0, 64, 86
1, 231086, Control_c, 0, 64, 87
1, 231100, Control_c, 0, 64, 88
1, 231115, Control_c, 0, 64, 89
1, 231145, Note_on_c, 0, 36, 34
1, 231145, Control_c, 0, 64, 89
1, 231149, Note_off_c, 0, 64, 62
1, 231188, Note_off_c, 0, 36, 49
1, 231195, Note_off_c, 0, 67, 62
1, 231286, Note_on_c, 0, 36, 37
1, 231325, Note_off_c, 0, 36, 50
1, 231415, Note_on_c, 0, 36, 36
1, 231457, Note_off_c, 0, 36, 48
1, 231541, Note_off_c, 0, 72, 49
1, 231543, Note_on_c, 0, 74, 55
1, 231563, Note_on_c, 0, 36, 29
1, 231612, Control_c, 0, 64, 90
1, 231621, Note_off_c, 0, 36, 48
1, 231672, Control_c, 0, 64, 89
1, 231686, Note_off_c, 0, 74, 61
1, 231686, Control_c, 0, 64, 83
1, 231701, Control_c, 0, 64, 72
1, 231710, Note_on_c, 0, 76, 62
1, 231716, Control_c, 0, 64, 52
1, 231725, Note_on_c, 0, 36, 42
1, 231731, Control_c, 0, 64, 0
1, 231731, Note_on_c, 0, 65, 47
1, 231732, Note_on_c, 0, 71, 49
1, 231760, Control_c, 0, 64, 29
1, 231775, Control_c, 0, 64, 62
1, 231784, Note_off_c, 0, 76, 63
1, 231784, Note_off_c, 0, 65, 65
1, 231790, Control_c, 0, 64, 69
1, 231805, Control_c, 0, 64, 75
1, 231820, Note_off_c, 0, 71, 63
1, 231820, Control_c, 0, 64, 81
1, 231829, Note_on_c, 0, 74, 58
1, 231835, Control_c, 0, 64, 84
1, 231849, Control_c, 0, 64, 85
1, 231857, Note_off_c, 0, 36, 0
1, 231864, Control_c, 0, 64, 87
1, 231873, Note_on_c, 0, 36, 39
1, 231879, Control_c, 0, 64, 88
1, 231890, Note_off_c, 0, 74, 64
1, 231895, Control_c, 0, 64, 90
1, 231904, Note_on_c, 0, 76, 56
1, 231909, Control_c, 0, 64, 91
1, 231923, Note_off_c, 0, 76, 65
1, 231924, Control_c, 0, 64, 91
1, 231938, Note_off_c, 0, 36, 56
1, 231959, Note_on_c, 0, 74, 44
1, 231969, Control_c, 0, 64, 92
1, 231984, Note_off_c, 0, 74, 62
1, 232018, Note_on_c, 0, 36, 45
1, 232019, Note_on_c, 0, 76, 57
1, 232029, Control_c, 0, 64, 92
1, 232039, Note_off_c, 0, 76, 63
1, 232064, Note_off_c, 0, 36, 56
1, 232072, Note_on_c, 0, 74, 61
1, 232094, Note_off_c, 0, 74, 64
1, 232121, Note_on_c, 0, 76, 62
1, 232148, Note_on_c, 0, 36, 48
1, 232153, Note_off_c, 0, 76, 57
1, 232170, Note_on_c, 0, 74, 58
1, 232177, Control_c, 0, 64, 93
1, 232190, Note_off_c, 0, 36, 57
1, 232195, Note_off_c, 0, 74, 67
1, 232234, Note_on_c, 0, 76, 64
1, 232273, Note_on_c, 0, 36, 52
1, 232283, Note_on_c, 0, 74, 60
1, 232288, Note_off_c, 0, 76, 64
1, 232318, Note_off_c, 0, 74, 64
1, 232320, Note_off_c, 0, 36, 55
1, 232355, Note_on_c, 0, 72, 59
1, 232389, Note_off_c, 0, 72, 65
1, 232401, Note_on_c, 0, 36, 53
1, 232431, Note_on_c, 0, 76, 61
1, 232455, Note_off_c, 0, 36, 55
1, 232502, Note_off_c, 0, 76, 59
1, 232515, Note_on_c, 0, 74, 62
1, 232554, Control_c, 0, 64, 92
1, 232569, Control_c, 0, 64, 91
1, 232584, Control_c, 0, 64, 88
1, 232599, Control_c, 0, 64, 84
1, 232603, Note_off_c, 0, 74, 51
1, 232614, Control_c, 0, 64, 78
1, 232628, Control_c, 0, 64, 69
1, 232640, Note_on_c, 0, 72, 57
1, 232643, Control_c, 0, 64, 59
1, 232648, Note_on_c, 0, 67, 48
1, 232658, Control_c, 0, 64, 39
1, 232662, Note_on_c, 0, 36, 35
1, 232664, Note_on_c, 0, 64, 49
1, 232673, Control_c, 0, 64, 33
1, 232687, Control_c, 0, 64, 34
1, 232702, Control_c, 0, 64, 36
1, 232717, Control_c, 0, 64, 40
1, 232723, Note_off_c, 0, 36, 46
1, 232732, Control_c, 0, 64, 45
1, 232747, Control_c, 0, 64, 51
1, 232762, Control_c, 0, 64, 57
1, 232777, Control_c, 0, 64, 63
1, 232792, Control_c, 0, 64, 65
1, 232807, Control_c, 0, 64, 67
1, 232819, Note_on_c, 0, 36, 26
1, 232822, Control_c, 0, 64, 70
1, 232837, Control_c, 0, 64, 73
1, 232851, Control_c, 0, 64, 75
1, 232866, Control_c, 0, 64, 78
1, 232874, Note_off_c, 0, 36, 44
1, 232881, Control_c, 0, 64, 79
1, 232896, Control_c, 0, 64, 80
1, 232911, Control_c, 0, 64, 80
1, 232944, Note_on_c, 0, 36, 37
1, 232999, Note_off_c, 0, 36, 45
1, 233021, Note_off_c, 0, 64, 60
1, 233089, Note_on_c, 0, 36, 34
1, 233095, Note_off_c, 0, 72, 57
1, 233112, Note_off_c, 0, 67, 58
1, 233160, Note_off_c, 0, 36, 40
1, 233216, Note_on_c, 0, 36, 36
1, 233269, Note_off_c, 0, 36, 53
1, 233274, Control_c, 0, 64, 80
1, 233362, Note_on_c, 0, 36, 39
1, 233407, Note_off_c, 0, 36, 49
1, 233421, Control_c, 0, 64, 79
1, 233436, Control_c, 0, 64, 78
1, 233451, Control_c, 0, 64, 77
1, 233465, Control_c, 0, 64, 74
1, 233480, Control_c, 0, 64, 71
1, 233495, Control_c, 0, 64, 66
1, 233510, Control_c, 0, 64, 62
1, 233522, Note_on_c, 0, 36, 39
1, 233525, Control_c, 0, 64, 57
1, 233540, Control_c, 0, 64, 53
1, 233555, Control_c, 0, 64, 45
1, 233569, Control_c, 0, 64, 18
1, 233584, Control_c, 0, 64, 0
1, 233683, Note_off_c, 0, 36, 53
1, 233706, Note_on_c, 0, 37, 36
1, 233763, Control_c, 0, 64, 40
1, 233778, Control_c, 0, 64, 52
1, 233792, Control_c, 0, 64, 60
1, 233807, Control_c, 0, 64, 65
1, 233816, Note_off_c, 0, 37, 59
1, 233829, Control_c, 0, 64, 68
1, 233844, Control_c, 0, 64, 71
1, 233859, Control_c, 0, 64, 73
1, 233874, Control_c, 0, 64, 74
1, 233889, Control_c, 0, 64, 75
1, 233900, Note_on_c, 0, 37, 32
1, 233904, Control_c, 0, 64, 76
1, 233919, Control_c, 0, 64, 78
1, 233933, Control_c, 0, 64, 79
1, 233948, Control_c, 0, 64, 80
1, 233963, Control_c, 0, 64, 80
1, 233969, Note_off_c, 0, 37, 57
1, 233993, Control_c, 0, 64, 81
1, 234022, Control_c, 0, 64, 81
1, 234051, Control_c, 0, 64, 82
1, 234077, Note_on_c, 0, 61, 44
1, 234081, Control_c, 0, 64, 82
1, 234091, Note_on_c, 0, 49, 34
1, 234106, Note_on_c, 0, 37, 24
1, 234111, Control_c, 0, 64, 83
1, 234152, Note_off_c, 0, 37, 47
1, 234155, Control_c, 0, 64, 83
1, 234185, Control_c, 0, 64, 84
1, 234199, Control_c, 0, 64, 84
1, 234214, Control_c, 0, 64, 85
1, 234234, Note_off_c, 0, 61, 61
1, 234248, Note_off_c, 0, 49, 55
1, 234254, Note_on_c, 0, 37, 33
1, 234258, Control_c, 0, 64, 85
1, 234292, Note_off_c, 0, 37, 49
1, 234377, Note_on_c, 0, 37, 40
1, 234419, Note_off_c, 0, 37, 48
1, 234422, Control_c, 0, 64, 86
1, 234428, Note_on_c, 0, 58, 44
1, 234469, Poly_aftertouch_c, 0, 46, 127
1, 234474, Note_off_c, 0, 58, 49
1, 234506, Poly_aftertouch_c, 0, 46, 0
1, 234560, Note_on_c, 0, 54, 51
1, 234583, Note_on_c, 0, 42, 42
1, 234597, Note_on_c, 0, 37, 18
1, 234643, Note_off_c, 0, 37, 47
1, 234736, Note_on_c, 0, 37, 40
1, 234796, Note_off_c, 0, 37, 42
1, 234868, Note_on_c, 0, 37, 31
1, 234923, Note_off_c, 0, 37, 46
1, 234995, Note_on_c, 0, 37, 29
1, 235044, Note_off_c, 0, 37, 48
1, 235129, Note_on_c, 0, 37, 37
1, 235173, Note_off_c, 0, 37, 49
1, 235263, Note_on_c, 0, 37, 36
1, 235308, Note_off_c, 0, 37, 49
1, 235400, Note_on_c, 0, 37, 42
1, 235417, Note_off_c, 0, 42, 60
1, 235447, Note_off_c, 0, 37, 48
1, 235480, Note_off_c, 0, 54, 62
1, 235537, Note_on_c, 0, 37, 34
1, 235564, Control_c, 0, 64, 86
1, 235570, Note_off_c, 0, 37, 52
1, 235672, Note_on_c, 0, 37, 32
1, 235710, Note_off_c, 0, 37, 51
1, 235711, Control_c, 0, 64, 87
1, 235805, Note_on_c, 0, 58, 55
1, 235807, Note_on_c, 0, 37, 41
1, 235815, Note_on_c, 0, 46, 49
1, 235846, Note_off_c, 0, 37, 49
1, 235956, Note_on_c, 0, 37, 36
1, 235958, Note_off_c, 0, 46, 55
1, 235978, Control_c, 0, 64, 87
1, 236008, Note_off_c, 0, 37, 41
1, 236038, Control_c, 0, 64, 88
1, 236059, Note_on_c, 0, 37, 44
1, 236090, Control_c, 0, 64, 88
1, 236097, Note_on_c, 0, 61, 67
1, 236118, Note_off_c, 0, 37, 58
1, 236119, Note_off_c, 0, 58, 65
1, 236119, Control_c, 0, 64, 89
1, 236162, Note_off_c, 0, 61, 62
1, 236164, Control_c, 0, 64, 89
1, 236205, Note_on_c, 0, 37, 41
1, 236216, Note_on_c, 0, 66, 63
1, 236226, Note_on_c, 0, 54, 38
1, 236254, Note_off_c, 0, 37, 50
1, 236343, Note_on_c, 0, 37, 51
1, 236369, Note_off_c, 0, 37, 59
1, 236387, Control_c, 0, 64, 90
1, 236396, Note_off_c, 0, 54, 62
1, 236446, Note_off_c, 0, 66, 68
1, 236462, Note_on_c, 0, 37, 50
1, 236490, Control_c, 0, 64, 90
1, 236500, Note_off_c, 0, 37, 62
1, 236600, Note_on_c, 0, 70, 64
1, 236603, Note_on_c, 0, 58, 52
1, 236607, Note_on_c, 0, 37, 46
1, 236650, Note_off_c, 0, 37, 50
1, 236703, Note_off_c, 0, 58, 62
1, 236747, Note_on_c, 0, 37, 50
1, 236793, Note_off_c, 0, 37, 50
1, 236892, Note_on_c, 0, 37, 47
1, 236901, Note_on_c, 0, 73, 71
1, 236902, Note_on_c, 0, 61, 56
1, 236927, Note_off_c, 0, 61, 63
1, 236934, Note_off_c, 0, 70, 62
1, 236944, Note_off_c, 0, 37, 52
1, 237006, Note_off_c, 0, 73, 61
1, 237037, Note_on_c, 0, 37, 44
1, 237037, Note_on_c, 0, 78, 74
1, 237038, Note_on_c, 0, 66, 59
1, 237088, Note_off_c, 0, 37, 54
1, 237183, Note_off_c, 0, 78, 63
1, 237185, Note_on_c, 0, 37, 47
1, 237215, Note_off_c, 0, 66, 65
1, 237228, Note_off_c, 0, 37, 58
1, 237325, Note_on_c, 0, 37, 42
1, 237371, Note_off_c, 0, 37, 48
1, 237464, Note_on_c, 0, 66, 58
1, 237470, Note_on_c, 0, 54, 45
1, 237482, Note_on_c, 0, 37, 45
1, 237521, Note_off_c, 0, 37, 51
1, 237573, Note_off_c, 0, 54, 59
1, 237642, Note_on_c, 0, 37, 45
1, 237648, Note_off_c, 0, 66, 60
1, 237702, Note_off_c, 0, 37, 45
1, 237784, Note_on_c, 0, 37, 42
1, 237850, Note_off_c, 0, 37, 40
1, 237943, Control_c, 0, 64, 90
1, 237958, Control_c, 0, 64, 87
1, 237973, Control_c, 0, 64, 82
1, 237988, Control_c, 0, 64, 74
1, 238001, Note_on_c, 0, 73, 67
1, 238002, Control_c, 0, 64, 65
1, 238009, Note_on_c, 0, 68, 57
1, 238016, Note_on_c, 0, 65, 51
1, 238017, Control_c, 0, 64, 44
1, 238018, Note_on_c, 0, 37, 41
1, 238032, Control_c, 0, 64, 0
1, 238071, Note_off_c, 0, 37, 56
1, 238121, Control_c, 0, 64, 57
1, 238136, Control_c, 0, 64, 65
1, 238151, Control_c, 0, 64, 69
1, 238157, Note_on_c, 0, 37, 40
1, 238165, Control_c, 0, 64, 74
1, 238180, Control_c, 0, 64, 79
1, 238195, Control_c, 0, 64, 82
1, 238203, Note_off_c, 0, 37, 55
1, 238209, Control_c, 0, 64, 84
1, 238224, Control_c, 0, 64, 85
1, 238239, Control_c, 0, 64, 86
1, 238254, Control_c, 0, 64, 87
1, 238269, Control_c, 0, 64, 89
1, 238282, Note_on_c, 0, 37, 47
1, 238284, Control_c, 0, 64, 90
1, 238298, Control_c, 0, 64, 90
1, 238335, Note_off_c, 0, 37, 59
1, 238336, Control_c, 0, 64, 91
1, 238366, Control_c, 0, 64, 91
1, 238380, Control_c, 0, 64, 92
1, 238384, Note_off_c, 0, 65, 56
1, 238426, Control_c, 0, 64, 92
1, 238443, Note_on_c, 0, 37, 43
1, 238456, Control_c, 0, 64, 93
1, 238470, Control_c, 0, 64, 93
1, 238473, Note_off_c, 0, 68, 64
1, 238480, Note_off_c, 0, 37, 47
1, 238514, Control_c, 0, 64, 94
1, 238544, Control_c, 0, 64, 94
1, 238582, Note_on_c, 0, 37, 40
1, 238625, Note_off_c, 0, 37, 44
1, 238683, Note_on_c, 0, 75, 56
1, 238683, Note_off_c, 0, 73, 59
1, 238708, Control_c, 0, 64, 95
1, 238725, Note_on_c, 0, 37, 36
1, 238763, Note_off_c, 0, 37, 47
1, 238811, Control_c, 0, 64, 94
1, 238826, Control_c, 0, 64, 89
1, 238831, Note_off_c, 0, 75, 64
1, 238840, Control_c, 0, 64, 79
1, 238854, Note_on_c, 0, 77, 65
1, 238855, Control_c, 0, 64, 65
1, 238858, Note_on_c, 0, 72, 59
1, 238865, Note_on_c, 0, 37, 47
1, 238870, Note_on_c, 0, 66, 42
1, 238870, Control_c, 0, 64, 0
1, 238900, Control_c, 0, 64, 44
1, 238915, Control_c, 0, 64, 67
1, 238919, Note_off_c, 0, 77, 61
1, 238921, Note_off_c, 0, 66, 53
1, 238929, Control_c, 0, 64, 76
1, 238944, Note_off_c, 0, 72, 64
1, 238944, Control_c, 0, 64, 86
1, 238954, Note_on_c, 0, 75, 58
1, 238959, Control_c, 0, 64, 92
1, 238974, Control_c, 0, 64, 93
1, 238990, Note_off_c, 0, 37, 0
1, 238995, Note_off_c, 0, 75, 65
1, 239004, Control_c, 0, 64, 93
1, 239007, Note_on_c, 0, 37, 35
1, 239015, Note_on_c, 0, 77, 60
1, 239019, Control_c, 0, 64, 94
1, 239033, Control_c, 0, 64, 94
1, 239048, Note_off_c, 0, 77, 60
1, 239082, Note_on_c, 0, 75, 61
1, 239085, Control_c, 0, 64, 95
1, 239086, Note_off_c, 0, 37, 56
1, 239114, Note_off_c, 0, 75, 66
1, 239114, Control_c, 0, 64, 95
1, 239129, Control_c, 0, 64, 96
1, 239143, Note_on_c, 0, 77, 65
1, 239144, Control_c, 0, 64, 96
1, 239159, Note_on_c, 0, 37, 44
1, 239167, Note_off_c, 0, 77, 59
1, 239174, Control_c, 0, 64, 97
1, 239190, Control_c, 0, 64, 97
1, 239205, Control_c, 0, 64, 98
1, 239207, Note_off_c, 0, 37, 57
1, 239218, Note_on_c, 0, 75, 41
1, 239234, Control_c, 0, 64, 98
1, 239242, Note_off_c, 0, 75, 50
1, 239245, Note_on_c, 0, 77, 63
1, 239264, Control_c, 0, 64, 99
1, 239281, Note_off_c, 0, 77, 50
1, 239291, Note_on_c, 0, 37, 51
1, 239296, Note_on_c, 0, 75, 60
1, 239323, Note_off_c, 0, 75, 65
1, 239334, Note_off_c, 0, 37, 60
1, 239356, Note_on_c, 0, 77, 66
1, 239409, Note_on_c, 0, 75, 73
1, 239412, Control_c, 0, 64, 99
1, 239422, Note_off_c, 0, 77, 60
1, 239427, Note_on_c, 0, 37, 52
1, 239448, Note_off_c, 0, 75, 60
1, 239472, Note_off_c, 0, 37, 55
1, 239479, Note_on_c, 0, 73, 64
1, 239486, Control_c, 0, 64, 100
1, 239505, Note_off_c, 0, 73, 66
1, 239558, Note_on_c, 0, 77, 59
1, 239581, Note_on_c, 0, 37, 57
1, 239636, Note_off_c, 0, 37, 53
1, 239637, Note_off_c, 0, 77, 54
1, 239646, Note_on_c, 0, 75, 59
1, 239678, Control_c, 0, 64, 99
1, 239693, Control_c, 0, 64, 97
1, 239708, Control_c, 0, 64, 89
1, 239723, Control_c, 0, 64, 77
1, 239734, Note_off_c, 0, 75, 54
1, 239737, Control_c, 0, 64, 64
1, 239752, Control_c, 0, 64, 0
1, 239758, Note_on_c, 0, 73, 53
1, 239772, Note_on_c, 0, 68, 49
1, 239775, Note_on_c, 0, 65, 40
1, 239782, Note_on_c, 0, 37, 43
1, 239834, Control_c, 0, 64, 53
1, 239849, Control_c, 0, 64, 66
1, 239863, Control_c, 0, 64, 70
1, 239878, Control_c, 0, 64, 73
1, 239889, Note_off_c, 0, 37, 61
1, 239893, Control_c, 0, 64, 76
1, 239908, Control_c, 0, 64, 77
1, 239923, Control_c, 0, 64, 78
1, 239937, Control_c, 0, 64, 78
1, 239984, Note_on_c, 0, 35, 29
1, 239996, Note_on_c, 0, 41, 31
1, 240028, Control_c, 0, 64, 78
1, 240042, Control_c, 0, 64, 77
1, 240047, Note_off_c, 0, 41, 45
1, 240057, Control_c, 0, 64, 76
1, 240065, Note_off_c, 0, 35, 0
1, 240072, Control_c, 0, 64, 75
1, 240084, Note_on_c, 0, 35, 37
1, 240087, Control_c, 0, 64, 74
1, 240089, Note_on_c, 0, 41, 49
1, 240101, Control_c, 0, 64, 73
1, 240116, Control_c, 0, 64, 73
1, 240130, Note_off_c, 0, 35, 60
1, 240132, Note_off_c, 0, 41, 58
1, 240175, Control_c, 0, 64, 72
1, 240190, Control_c, 0, 64, 72
1, 240211, Note_on_c, 0, 35, 35
1, 240218, Note_on_c, 0, 41, 41
1, 240260, Note_off_c, 0, 41, 49
1, 240264, Control_c, 0, 64, 71
1, 240267, Note_off_c, 0, 35, 43
1, 240279, Control_c, 0, 64, 71
1, 240293, Control_c, 0, 64, 70
1, 240308, Control_c, 0, 64, 70
1, 240323, Control_c, 0, 64, 69
1, 240330, Note_on_c, 0, 35, 40
1, 240331, Note_on_c, 0, 41, 50
1, 240338, Control_c, 0, 64, 68
1, 240353, Control_c, 0, 64, 68
1, 240367, Control_c, 0, 64, 67
1, 240372, Note_off_c, 0, 41, 61
1, 240373, Note_off_c, 0, 65, 43
1, 240377, Note_off_c, 0, 35, 58
1, 240382, Control_c, 0, 64, 67
1, 240412, Control_c, 0, 64, 66
1, 240414, Note_off_c, 0, 68, 55
1, 240427, Control_c, 0, 64, 66
1, 240432, Note_off_c, 0, 73, 35
1, 240441, Control_c, 0, 64, 65
1, 240456, Note_on_c, 0, 35, 40
1, 240456, Control_c, 0, 64, 64
1, 240463, Note_on_c, 0, 41, 50
1, 240471, Control_c, 0, 64, 64
1, 240486, Control_c, 0, 64, 63
1, 240506, Note_off_c, 0, 41, 59
1, 240563, Note_off_c, 0, 35, 0
1, 240579, Note_on_c, 0, 35, 40
1, 240586, Note_on_c, 0, 41, 52
1, 240611, Control_c, 0, 64, 64
1, 240633, Note_off_c, 0, 41, 57
1, 240656, Control_c, 0, 64, 64
1, 240671, Control_c, 0, 64, 65
1, 240684, Note_off_c, 0, 35, 0
1, 240685, Control_c, 0, 64, 67
1, 240700, Control_c, 0, 64, 68
1, 240701, Note_on_c, 0, 35, 33
1, 240704, Note_on_c, 0, 41, 51
1, 240715, Control_c, 0, 64, 70
1, 240730, Control_c, 0, 64, 71
1, 240745, Control_c, 0, 64, 72
1, 240759, Note_off_c, 0, 41, 52
1, 240760, Control_c, 0, 64, 73
1, 240775, Control_c, 0, 64, 73
1, 240790, Control_c, 0, 64, 75
1, 240795, Note_off_c, 0, 35, 0
1, 240805, Control_c, 0, 64, 76
1, 240813, Note_on_c, 0, 35, 37
1, 240820, Control_c, 0, 64, 77
1, 240823, Note_on_c, 0, 41, 46
1, 240835, Control_c, 0, 64, 78
1, 240850, Control_c, 0, 64, 78
1, 240864, Control_c, 0, 64, 79
1, 240873, Note_off_c, 0, 41, 55
1, 240894, Control_c, 0, 64, 80
1, 240905, Note_off_c, 0, 35, 38
1, 240909, Control_c, 0, 64, 80
1, 240924, Control_c, 0, 64, 81
1, 240939, Control_c, 0, 64, 81
1, 240949, Note_on_c, 0, 35, 48
1, 240954, Control_c, 0, 64, 82
1, 240956, Note_on_c, 0, 41, 50
1, 241001, Note_off_c, 0, 35, 57
1, 241004, Note_off_c, 0, 41, 50
1, 241091, Note_on_c, 0, 35, 43
1, 241097, Note_on_c, 0, 41, 53
1, 241137, Note_off_c, 0, 41, 51
1, 241145, Note_off_c, 0, 35, 43
1, 241230, Note_on_c, 0, 35, 43
1, 241249, Note_on_c, 0, 41, 22
1, 241300, Note_off_c, 0, 41, 53
1, 241434, Note_off_c, 0, 35, 37
1, 241449, Control_c, 0, 64, 81
1, 241464, Control_c, 0, 64, 78
1, 241468, Note_on_c, 0, 40, 63
1, 241476, Note_on_c, 0, 72, 60
1, 241479, Control_c, 0, 64, 72
1, 241494, Control_c, 0, 64, 65
1, 241508, Control_c, 0, 64, 42
1, 241523, Control_c, 0, 64, 0
1, 241599, Control_c, 0, 64, 19
1, 241613, Control_c, 0, 64, 43
1, 241628, Control_c, 0, 64, 54
1, 241644, Control_c, 0, 64, 60
1, 241658, Control_c, 0, 64, 64
1, 241673, Control_c, 0, 64, 66
1, 241680, Note_on_c, 0, 36, 39
1, 241688, Control_c, 0, 64, 69
1, 241703, Control_c, 0, 64, 72
1, 241718, Control_c, 0, 64, 75
1, 241719, Note_off_c, 0, 36, 43
1, 241732, Control_c, 0, 64, 78
1, 241747, Control_c, 0, 64, 80
1, 241762, Control_c, 0, 64, 82
1, 241777, Control_c, 0, 64, 83
1, 241792, Control_c, 0, 64, 84
1, 241794, Note_on_c, 0, 36, 40
1, 241806, Control_c, 0, 64, 85
1, 241821, Control_c, 0, 64, 86
1, 241833, Note_off_c, 0, 36, 57
1, 241836, Control_c, 0, 64, 87
1, 241851, Control_c, 0, 64, 88
1, 241866, Control_c, 0, 64, 88
1, 241881, Control_c, 0, 64, 89
1, 241910, Control_c, 0, 64, 89
1, 241913, Note_on_c, 0, 36, 46
1, 241940, Control_c, 0, 64, 90
1, 241954, Note_off_c, 0, 36, 52
1, 242042, Note_on_c, 0, 36, 55
1, 242083, Note_off_c, 0, 36, 61
1, 242164, Note_on_c, 0, 74, 56
1, 242193, Note_off_c, 0, 72, 61
1, 242194, Note_on_c, 0, 36, 53
1, 242222, Note_off_c, 0, 40, 63
1, 242303, Control_c, 0, 64, 87
1, 242318, Control_c, 0, 64, 82
1, 242332, Control_c, 0, 64, 75
1, 242340, Note_off_c, 0, 74, 65
1, 242347, Control_c, 0, 64, 65
1, 242352, Note_on_c, 0, 72, 59
1, 242354, Note_on_c, 0, 41, 60
1, 242361, Note_off_c, 0, 36, 62
1, 242362, Control_c, 0, 64, 50
1, 242377, Control_c, 0, 64, 45
1, 242393, Control_c, 0, 64, 50
1, 242408, Control_c, 0, 64, 57
1, 242423, Control_c, 0, 64, 62
1, 242437, Note_off_c, 0, 72, 64
1, 242437, Control_c, 0, 64, 65
1, 242444, Note_on_c, 0, 74, 68
1, 242452, Control_c, 0, 64, 68
1, 242467, Control_c, 0, 64, 73
1, 242481, Control_c, 0, 64, 78
1, 242496, Control_c, 0, 64, 82
1, 242499, Note_off_c, 0, 74, 61
1, 242511, Control_c, 0, 64, 84
1, 242513, Note_on_c, 0, 36, 46
1, 242525, Note_on_c, 0, 76, 63
1, 242526, Control_c, 0, 64, 84
1, 242541, Control_c, 0, 64, 85
1, 242545, Note_off_c, 0, 76, 66
1, 242555, Control_c, 0, 64, 86
1, 242559, Note_off_c, 0, 36, 46
1, 242570, Control_c, 0, 64, 86
1, 242581, Note_on_c, 0, 74, 59
1, 242585, Control_c, 0, 64, 87
1, 242600, Control_c, 0, 64, 88
1, 242601, Note_off_c, 0, 74, 65
1, 242629, Control_c, 0, 64, 88
1, 242636, Note_on_c, 0, 36, 52
1, 242644, Note_on_c, 0, 76, 51
1, 242664, Note_off_c, 0, 76, 57
1, 242674, Control_c, 0, 64, 89
1, 242679, Note_off_c, 0, 36, 60
1, 242682, Note_on_c, 0, 74, 60
1, 242703, Note_off_c, 0, 74, 67
1, 242703, Control_c, 0, 64, 89
1, 242742, Note_on_c, 0, 76, 58
1, 242753, Note_on_c, 0, 36, 53
1, 242766, Note_off_c, 0, 76, 62
1, 242787, Note_on_c, 0, 74, 54
1, 242793, Note_off_c, 0, 36, 62
1, 242815, Note_off_c, 0, 74, 66
1, 242857, Note_on_c, 0, 76, 70
1, 242874, Control_c, 0, 64, 90
1, 242889, Note_on_c, 0, 36, 55
1, 242903, Note_on_c, 0, 74, 50
1, 242917, Note_off_c, 0, 76, 66
1, 242923, Note_off_c, 0, 36, 57
1, 242960, Note_off_c, 0, 74, 62
1, 242980, Note_on_c, 0, 72, 54
1, 242987, Note_off_c, 0, 41, 58
1, 243023, Note_on_c, 0, 36, 49
1, 243042, Note_off_c, 0, 72, 60
1, 243046, Note_on_c, 0, 76, 64
1, 243100, Note_off_c, 0, 76, 62
1, 243126, Note_on_c, 0, 74, 55
1, 243126, Control_c, 0, 64, 88
1, 243141, Control_c, 0, 64, 84
1, 243156, Control_c, 0, 64, 77
1, 243156, Note_off_c, 0, 36, 34
1, 243170, Control_c, 0, 64, 66
1, 243175, Note_off_c, 0, 74, 63
1, 243186, Control_c, 0, 64, 0
1, 243191, Note_on_c, 0, 40, 53
1, 243209, Note_on_c, 0, 72, 59
1, 243290, Control_c, 0, 64, 59
1, 243304, Control_c, 0, 64, 70
1, 243319, Control_c, 0, 64, 79
1, 243334, Control_c, 0, 64, 88
1, 243335, Note_off_c, 0, 72, 65
1, 243338, Note_on_c, 0, 36, 46
1, 243349, Control_c, 0, 64, 91
1, 243364, Control_c, 0, 64, 93
1, 243372, Note_off_c, 0, 36, 54
1, 243378, Control_c, 0, 64, 93
1, 243393, Control_c, 0, 64, 95
1, 243408, Control_c, 0, 64, 95
1, 243437, Control_c, 0, 64, 96
1, 243469, Note_on_c, 0, 36, 51
1, 243500, Note_off_c, 0, 36, 59
1, 243564, Control_c, 0, 64, 94
1, 243574, Note_off_c, 0, 40, 50
1, 243579, Control_c, 0, 64, 84
1, 243593, Control_c, 0, 64, 66
1, 243606, Note_on_c, 0, 49, 57
1, 243608, Note_on_c, 0, 36, 48
1, 243608, Control_c, 0, 64, 0
1, 243637, Note_off_c, 0, 49, 63
1, 243639, Note_off_c, 0, 36, 55
1, 243725, Note_on_c, 0, 49, 60
1, 243729, Note_on_c, 0, 36, 53
1, 243762, Note_off_c, 0, 36, 62
1, 243768, Note_off_c, 0, 49, 64
1, 243848, Note_on_c, 0, 49, 61
1, 243857, Note_on_c, 0, 36, 49
1, 243885, Note_off_c, 0, 49, 61
1, 243893, Note_off_c, 0, 36, 54
1, 243976, Note_on_c, 0, 48, 60
1, 243989, Note_on_c, 0, 36, 47
1, 244033, Note_off_c, 0, 36, 58
1, 244038, Control_c, 0, 64, 44
1, 244052, Control_c, 0, 64, 64
1, 244067, Control_c, 0, 64, 66
1, 244082, Control_c, 0, 64, 70
1, 244085, Note_off_c, 0, 48, 66
1, 244097, Control_c, 0, 64, 78
1, 244112, Control_c, 0, 64, 87
1, 244125, Note_on_c, 0, 36, 53
1, 244126, Control_c, 0, 64, 90
1, 244141, Control_c, 0, 64, 91
1, 244156, Control_c, 0, 64, 92
1, 244167, Note_off_c, 0, 36, 58
1, 244171, Control_c, 0, 64, 92
1, 244186, Control_c, 0, 64, 93
1, 244215, Control_c, 0, 64, 93
1, 244249, Note_on_c, 0, 36, 51
1, 244292, Note_off_c, 0, 36, 54
1, 244382, Note_on_c, 0, 36, 48
1, 244424, Note_off_c, 0, 36, 57
1, 244528, Note_on_c, 0, 36, 54
1, 244560, Note_off_c, 0, 36, 58
1, 244668, Note_on_c, 0, 36, 50
1, 244802, Control_c, 0, 64, 93
1, 244817, Control_c, 0, 64, 90
1, 244831, Note_on_c, 0, 43, 69
1, 244832, Control_c, 0, 64, 83
1, 244835, Note_on_c, 0, 76, 77
1, 244847, Control_c, 0, 64, 75
1, 244861, Control_c, 0, 64, 66
1, 244866, Note_off_c, 0, 36, 25
1, 244876, Control_c, 0, 64, 40
1, 244891, Control_c, 0, 64, 0
1, 244921, Control_c, 0, 64, 31
1, 244936, Control_c, 0, 64, 47
1, 244950, Control_c, 0, 64, 58
1, 244965, Control_c, 0, 64, 65
1, 244969, Note_on_c, 0, 36, 40
1, 244980, Control_c, 0, 64, 69
1, 244995, Control_c, 0, 64, 74
1, 245010, Control_c, 0, 64, 81
1, 245011, Note_off_c, 0, 36, 59
1, 245024, Control_c, 0, 64, 85
1, 245039, Control_c, 0, 64, 87
1, 245061, Control_c, 0, 64, 89
1, 245076, Control_c, 0, 64, 91
1, 245087, Note_on_c, 0, 36, 57
1, 245091, Control_c, 0, 64, 93
1, 245106, Control_c, 0, 64, 95
1, 245121, Control_c, 0, 64, 96
1, 245131, Note_off_c, 0, 36, 61
1, 245136, Control_c, 0, 64, 97
1, 245151, Control_c, 0, 64, 98
1, 245165, Control_c, 0, 64, 99
1, 245180, Control_c, 0, 64, 100
1, 245209, Control_c, 0, 64, 100
1, 245213, Note_on_c, 0, 36, 58
1, 245249, Note_off_c, 0, 36, 63
1, 245338, Note_on_c, 0, 36, 63
1, 245377, Note_off_c, 0, 36, 56
1, 245450, Note_off_c, 0, 43, 61
1, 245462, Note_on_c, 0, 77, 76
1, 245471, Note_on_c, 0, 36, 68
1, 245505, Note_off_c, 0, 76, 62
1, 245640, Control_c, 0, 64, 99
1, 245654, Control_c, 0, 64, 95
1, 245669, Control_c, 0, 64, 88
1, 245670, Note_on_c, 0, 44, 70
1, 245672, Note_off_c, 0, 36, 53
1, 245673, Note_off_c, 0, 77, 62
1, 245678, Note_on_c, 0, 76, 71
1, 245684, Control_c, 0, 64, 76
1, 245699, Control_c, 0, 64, 64
1, 245714, Control_c, 0, 64, 0
1, 245779, Note_on_c, 0, 77, 75
1, 245780, Note_off_c, 0, 76, 65
1, 245810, Control_c, 0, 64, 54
1, 245825, Control_c, 0, 64, 67
1, 245839, Control_c, 0, 64, 74
1, 245845, Note_off_c, 0, 77, 60
1, 245845, Note_on_c, 0, 36, 59
1, 245854, Control_c, 0, 64, 81
1, 245863, Note_on_c, 0, 79, 70
1, 245869, Control_c, 0, 64, 86
1, 245884, Control_c, 0, 64, 88
1, 245888, Note_off_c, 0, 79, 62
1, 245896, Note_off_c, 0, 36, 61
1, 245899, Control_c, 0, 64, 89
1, 245914, Control_c, 0, 64, 91
1, 245917, Note_on_c, 0, 77, 68
1, 245929, Control_c, 0, 64, 92
1, 245942, Note_off_c, 0, 77, 65
1, 245944, Control_c, 0, 64, 93
1, 245958, Control_c, 0, 64, 94
1, 245973, Note_on_c, 0, 36, 64
1, 245973, Control_c, 0, 64, 94
1, 245977, Note_on_c, 0, 79, 59
1, 245988, Control_c, 0, 64, 95
1, 245996, Note_off_c, 0, 79, 60
1, 246003, Control_c, 0, 64, 95
1, 246011, Note_off_c, 0, 36, 64
1, 246028, Note_on_c, 0, 77, 56
1, 246048, Note_off_c, 0, 77, 60
1, 246068, Note_on_c, 0, 79, 65
1, 246077, Control_c, 0, 64, 96
1, 246088, Note_on_c, 0, 36, 66
1, 246111, Note_off_c, 0, 79, 61
1, 246117, Note_on_c, 0, 77, 69
1, 246125, Note_off_c, 0, 36, 61
1, 246138, Note_off_c, 0, 77, 65
1, 246151, Control_c, 0, 64, 96
1, 246177, Note_on_c, 0, 79, 63
1, 246198, Note_on_c, 0, 36, 68
1, 246210, Control_c, 0, 64, 97
1, 246217, Note_on_c, 0, 77, 68
1, 246224, Control_c, 0, 64, 97
1, 246239, Note_off_c, 0, 79, 62
1, 246239, Control_c, 0, 64, 98
1, 246245, Note_off_c, 0, 36, 57
1, 246254, Control_c, 0, 64, 98
1, 246271, Note_off_c, 0, 77, 61
1, 246284, Control_c, 0, 64, 99
1, 246286, Note_on_c, 0, 76, 71
1, 246298, Control_c, 0, 64, 99
1, 246317, Note_on_c, 0, 36, 46
1, 246328, Control_c, 0, 64, 100
1, 246337, Note_off_c, 0, 44, 56
1, 246358, Note_on_c, 0, 79, 72
1, 246367, Note_off_c, 0, 76, 65
1, 246415, Note_off_c, 0, 79, 63
1, 246429, Note_on_c, 0, 77, 71
1, 246432, Note_off_c, 0, 36, 41
1, 246433, Control_c, 0, 64, 98
1, 246447, Control_c, 0, 64, 93
1, 246462, Control_c, 0, 64, 85
1, 246477, Control_c, 0, 64, 72
1, 246492, Note_off_c, 0, 77, 61
1, 246492, Control_c, 0, 64, 32
1, 246507, Control_c, 0, 64, 0
1, 246515, Note_on_c, 0, 43, 54
1, 246521, Note_on_c, 0, 76, 68
1, 246603, Control_c, 0, 64, 70
1, 246618, Control_c, 0, 64, 83
1, 246633, Control_c, 0, 64, 97
1, 246637, Note_off_c, 0, 76, 67
1, 246648, Control_c, 0, 64, 102
1, 246655, Note_on_c, 0, 36, 56
1, 246662, Control_c, 0, 64, 103
1, 246677, Control_c, 0, 64, 103
1, 246692, Control_c, 0, 64, 104
1, 246696, Note_off_c, 0, 36, 63
1, 246707, Control_c, 0, 64, 104
1, 246785, Note_on_c, 0, 36, 60
1, 246819, Note_off_c, 0, 36, 63
1, 246841, Control_c, 0, 64, 104
1, 246853, Note_off_c, 0, 43, 40
1, 246855, Control_c, 0, 64, 103
1, 246870, Control_c, 0, 64, 98
1, 246883, Control_c, 0, 64, 88
1, 246898, Control_c, 0, 64, 72
1, 246903, Note_on_c, 0, 49, 67
1, 246905, Note_on_c, 0, 36, 61
1, 246913, Control_c, 0, 64, 0
1, 246934, Note_off_c, 0, 49, 64
1, 246936, Note_off_c, 0, 36, 66
1, 247011, Note_on_c, 0, 36, 58
1, 247023, Note_on_c, 0, 49, 64
1, 247050, Note_off_c, 0, 36, 65
1, 247063, Note_off_c, 0, 49, 64
1, 247146, Note_on_c, 0, 36, 59
1, 247163, Note_on_c, 0, 49, 51
1, 247187, Note_off_c, 0, 36, 65
1, 247193, Note_off_c, 0, 49, 55
1, 247287, Note_on_c, 0, 48, 71
1, 247289, Note_on_c, 0, 36, 55
1, 247321, Control_c, 0, 64, 65
1, 247336, Note_off_c, 0, 36, 63
1, 247336, Control_c, 0, 64, 83
1, 247345, Note_off_c, 0, 48, 65
1, 247351, Control_c, 0, 64, 94
1, 247365, Control_c, 0, 64, 99
1, 247380, Control_c, 0, 64, 99
1, 247395, Control_c, 0, 64, 100
1, 247410, Control_c, 0, 64, 101
1, 247425, Control_c, 0, 64, 101
1, 247426, Note_on_c, 0, 36, 61
1, 247440, Control_c, 0, 64, 102
1, 247455, Control_c, 0, 64, 103
1, 247470, Control_c, 0, 64, 104
1, 247471, Note_off_c, 0, 36, 57
1, 247563, Note_on_c, 0, 36, 61
1, 247594, Note_off_c, 0, 36, 65
1, 247682, Note_on_c, 0, 36, 59
1, 247694, Note_on_c, 0, 79, 63
1, 247706, Control_c, 0, 64, 104
1, 247707, Note_on_c, 0, 76, 41
1, 247721, Note_off_c, 0, 79, 67
1, 247721, Control_c, 0, 64, 102
1, 247732, Note_off_c, 0, 76, 57
1, 247735, Note_off_c, 0, 36, 60
1, 247736, Control_c, 0, 64, 99
1, 247750, Control_c, 0, 64, 95
1, 247765, Control_c, 0, 64, 89
1, 247780, Control_c, 0, 64, 80
1, 247795, Control_c, 0, 64, 66
1, 247807, Note_on_c, 0, 76, 68
1, 247810, Control_c, 0, 64, 0
1, 247810, Note_on_c, 0, 79, 69
1, 247813, Note_on_c, 0, 36, 52
1, 247845, Note_off_c, 0, 79, 61
1, 247852, Note_off_c, 0, 36, 66
1, 247852, Note_off_c, 0, 76, 66
1, 247926, Note_on_c, 0, 79, 76
1, 247929, Note_on_c, 0, 76, 58
1, 247935, Note_on_c, 0, 36, 63
1, 247972, Note_off_c, 0, 76, 58
1, 247977, Note_off_c, 0, 36, 63
1, 247980, Note_off_c, 0, 79, 61
1, 248073, Note_on_c, 0, 82, 80
1, 248079, Note_on_c, 0, 36, 59
1, 248085, Control_c, 0, 64, 42
1, 248087, Note_on_c, 0, 79, 68
1, 248099, Control_c, 0, 64, 70
1, 248114, Control_c, 0, 64, 81
1, 248121, Note_off_c, 0, 36, 66
1, 248129, Control_c, 0, 64, 92
1, 248144, Control_c, 0, 64, 100
1, 248159, Control_c, 0, 64, 106
1, 248164, Note_off_c, 0, 79, 63
1, 248173, Control_c, 0, 64, 113
1, 248178, Note_off_c, 0, 82, 66
1, 248188, Control_c, 0, 64, 123
1, 248203, Control_c, 0, 64, 127
1, 248218, Note_on_c, 0, 36, 60
1, 248248, Note_off_c, 0, 36, 64
1, 248331, Note_on_c, 0, 36, 58
1, 248356, Note_off_c, 0, 36, 63
1, 248412, Control_c, 0, 64, 119
1, 248426, Control_c, 0, 64, 103
1, 248441, Control_c, 0, 64, 91
1, 248442, Note_on_c, 0, 36, 63
1, 248451, Note_on_c, 0, 49, 72
1, 248456, Control_c, 0, 64, 76
1, 248471, Control_c, 0, 64, 62
1, 248482, Note_off_c, 0, 36, 66
1, 248486, Control_c, 0, 64, 0
1, 248491, Note_off_c, 0, 49, 64
1, 248568, Note_on_c, 0, 36, 65
1, 248572, Note_on_c, 0, 49, 77
1, 248598, Note_off_c, 0, 36, 64
1, 248610, Note_off_c, 0, 49, 65
1, 248674, Note_on_c, 0, 36, 70
1, 248683, Note_on_c, 0, 49, 79
1, 248716, Note_off_c, 0, 36, 64
1, 248728, Note_off_c, 0, 49, 61
1, 248825, Note_on_c, 0, 48, 85
1, 248832, Note_on_c, 0, 36, 67
1, 248864, Control_c, 0, 64, 63
1, 248876, Note_off_c, 0, 48, 65
1, 248879, Control_c, 0, 64, 88
1, 248886, Note_off_c, 0, 36, 62
1, 248894, Control_c, 0, 64, 122
1, 248909, Control_c, 0, 64, 127
1, 248962, Note_on_c, 0, 36, 72
1, 249012, Note_off_c, 0, 36, 60
1, 249083, Note_on_c, 0, 36, 66
1, 249101, Control_c, 0, 67, 123
1, 249116, Control_c, 0, 67, 107
1, 249129, Note_off_c, 0, 36, 59
1, 249130, Control_c, 0, 67, 83
1, 249145, Control_c, 0, 67, 58
1, 249160, Control_c, 0, 67, 32
1, 249175, Control_c, 0, 67, 0
1, 249217, Note_on_c, 0, 36, 69
1, 249218, Note_on_c, 0, 82, 82
1, 249222, Note_on_c, 0, 79, 72
1, 249253, Note_off_c, 0, 36, 63
1, 249263, Note_off_c, 0, 82, 64
1, 249270, Note_off_c, 0, 79, 57
1, 249330, Note_on_c, 0, 36, 78
1, 249337, Note_on_c, 0, 82, 90
1, 249342, Note_on_c, 0, 79, 75
1, 249372, Note_off_c, 0, 36, 65
1, 249382, Note_off_c, 0, 82, 65
1, 249391, Note_off_c, 0, 79, 62
1, 249448, Note_on_c, 0, 36, 78
1, 249457, Note_on_c, 0, 82, 93
1, 249467, Note_on_c, 0, 79, 72
1, 249491, Note_off_c, 0, 36, 63
1, 249502, Note_off_c, 0, 82, 64
1, 249516, Note_off_c, 0, 79, 57
1, 249577, Note_on_c, 0, 36, 79
1, 249577, Note_on_c, 0, 88, 100
1, 249622, Note_off_c, 0, 36, 65
1, 249647, Note_off_c, 0, 88, 65
1, 249648, Note_on_c, 0, 82, 96
1, 249691, Note_on_c, 0, 36, 78
1, 249703, Note_off_c, 0, 82, 66
1, 249705, Note_on_c, 0, 91, 89
1, 249729, Note_off_c, 0, 36, 66
1, 249741, Note_off_c, 0, 91, 56
1, 249759, Note_on_c, 0, 88, 83
1, 249783, Note_on_c, 0, 86, 54
1, 249798, Note_on_c, 0, 36, 77
1, 249806, Note_off_c, 0, 86, 60
1, 249822, Note_off_c, 0, 88, 63
1, 249823, Note_on_c, 0, 94, 90
1, 249849, Note_off_c, 0, 36, 63
1, 249879, Note_on_c, 0, 91, 96
1, 249883, Note_off_c, 0, 94, 66
1, 249917, Note_on_c, 0, 36, 78
1, 249936, Note_off_c, 0, 91, 63
1, 249938, Note_on_c, 0, 88, 85
1, 249965, Note_off_c, 0, 36, 64
1, 249965, Note_off_c, 0, 88, 62
1, 250001, Note_on_c, 0, 91, 89
1, 250030, Note_on_c, 0, 36, 79
1, 250045, Note_off_c, 0, 91, 44
1, 250059, Note_on_c, 0, 82, 86
1, 250080, Note_off_c, 0, 36, 64
1, 250102, Note_off_c, 0, 82, 63
1, 250113, Note_on_c, 0, 88, 74
1, 250135, Note_off_c, 0, 88, 69
1, 250148, Note_on_c, 0, 79, 86
1, 250153, Note_on_c, 0, 36, 77
1, 250200, Note_off_c, 0, 36, 63
1, 250207, Note_off_c, 0, 79, 63
1, 250218, Note_on_c, 0, 82, 88
1, 250258, Note_off_c, 0, 82, 56
1, 250266, Note_on_c, 0, 36, 79
1, 250278, Note_on_c, 0, 76, 81
1, 250326, Note_off_c, 0, 36, 64
1, 250337, Note_on_c, 0, 79, 86
1, 250343, Note_off_c, 0, 76, 63
1, 250390, Note_off_c, 0, 79, 62
1, 250397, Note_on_c, 0, 36, 79
1, 250406, Note_on_c, 0, 70, 85
1, 250447, Note_off_c, 0, 36, 63
1, 250448, Note_off_c, 0, 70, 62
1, 250450, Note_on_c, 0, 76, 82
1, 250490, Note_off_c, 0, 76, 62
1, 250503, Note_on_c, 0, 67, 84
1, 250510, Note_on_c, 0, 36, 75
1, 250554, Note_off_c, 0, 67, 60
1, 250565, Note_off_c, 0, 36, 62
1, 250582, Note_on_c, 0, 69, 77
1, 250605, Note_off_c, 0, 69, 72
1, 250621, Note_on_c, 0, 36, 75
1, 250623, Note_on_c, 0, 64, 83
1, 250671, Note_off_c, 0, 64, 62
1, 250679, Note_on_c, 0, 67, 84
1, 250680, Note_off_c, 0, 36, 64
1, 250730, Note_off_c, 0, 67, 62
1, 250740, Note_on_c, 0, 36, 74
1, 250745, Note_on_c, 0, 58, 85
1, 250789, Note_off_c, 0, 58, 65
1, 250792, Note_on_c, 0, 64, 78
1, 250793, Note_off_c, 0, 36, 64
1, 250830, Note_off_c, 0, 64, 63
1, 250847, Note_on_c, 0, 55, 83
1, 250859, Note_on_c, 0, 36, 81
1, 250893, Note_off_c, 0, 55, 64
1, 250913, Note_on_c, 0, 58, 85
1, 250919, Note_off_c, 0, 36, 64
1, 250947, Note_off_c, 0, 58, 66
1, 250967, Note_on_c, 0, 52, 86
1, 250975, Note_on_c, 0, 36, 77
1, 251004, Note_off_c, 0, 52, 64
1, 251023, Note_on_c, 0, 55, 81
1, 251031, Note_off_c, 0, 36, 64
1, 251065, Control_c, 0, 64, 121
1, 251080, Note_off_c, 0, 55, 64
1, 251080, Control_c, 0, 64, 120
1, 251094, Control_c, 0, 64, 119
1, 251101, Note_on_c, 0, 46, 90
1, 251111, Note_on_c, 0, 36, 81
1, 251163, Note_off_c, 0, 46, 62
1, 251164, Note_on_c, 0, 52, 80
1, 251165, Note_off_c, 0, 36, 64
1, 251184, Control_c, 0, 64, 119
1, 251199, Control_c, 0, 64, 118
1, 251208, Note_off_c, 0, 52, 61
1, 251212, Note_on_c, 0, 43, 81
1, 251237, Note_on_c, 0, 36, 81
1, 251282, Note_on_c, 0, 46, 92
1, 251293, Note_off_c, 0, 36, 63
1, 251298, Note_off_c, 0, 43, 58
1, 251349, Note_on_c, 0, 49, 89
1, 251354, Note_off_c, 0, 46, 63
1, 251367, Note_on_c, 0, 36, 82
1, 251412, Note_off_c, 0, 49, 64
1, 251414, Note_on_c, 0, 46, 87
1, 251418, Note_off_c, 0, 36, 65
1, 251485, Note_on_c, 0, 36, 85
1, 251490, Note_off_c, 0, 46, 61
1, 251494, Note_on_c, 0, 52, 78
1, 251539, Note_off_c, 0, 36, 64
1, 251545, Note_on_c, 0, 49, 83
1, 251574, Note_off_c, 0, 52, 63
1, 251600, Note_on_c, 0, 36, 84
1, 251604, Note_on_c, 0, 55, 84
1, 251614, Control_c, 0, 64, 117
1, 251622, Note_off_c, 0, 49, 63
1, 251629, Control_c, 0, 64, 105
1, 251643, Control_c, 0, 64, 87
1, 251649, Note_off_c, 0, 55, 63
1, 251656, Note_off_c, 0, 36, 64
1, 251658, Control_c, 0, 64, 64
1, 251673, Control_c, 0, 64, 0
1, 251682, Note_on_c, 0, 52, 85
1, 251734, Note_on_c, 0, 43, 93
1, 251737, Note_on_c, 0, 31, 93
1, 251738, Note_on_c, 0, 58, 107
1, 251742, Note_off_c, 0, 52, 66
1, 251747, Control_c, 0, 64, 76
1, 251762, Control_c, 0, 64, 101
1, 251771, Note_off_c, 0, 58, 73
1, 251776, Note_off_c, 0, 31, 63
1, 251777, Control_c, 0, 64, 127
1, 251780, Note_off_c, 0, 43, 63
1, 251896, Note_on_c, 0, 36, 85
1, 251903, Control_c, 0, 64, 116
1, 251917, Control_c, 0, 64, 87
1, 251932, Control_c, 0, 64, 0
1, 251946, Note_off_c, 0, 36, 64
1, 252037, Note_on_c, 0, 36, 85
1, 252077, Note_off_c, 0, 36, 64
1, 252182, Note_on_c, 0, 61, 104
1, 252186, Note_on_c, 0, 56, 96
1, 252188, Note_on_c, 0, 49, 97
1, 252190, Note_on_c, 0, 41, 97
1, 252192, Note_on_c, 0, 29, 93
1, 252200, Control_c, 0, 64, 99
1, 252210, Note_off_c, 0, 49, 68
1, 252215, Control_c, 0, 64, 127
1, 252216, Note_on_c, 0, 62, 48
1, 252218, Note_on_c, 0, 51, 43
1, 252219, Note_off_c, 0, 51, 127
1, 252226, Note_on_c, 0, 57, 39
1, 252226, Note_off_c, 0, 29, 66
1, 252227, Note_off_c, 0, 61, 64
1, 252227, Note_off_c, 0, 56, 65
1, 252230, Note_off_c, 0, 41, 67
1, 252240, Note_off_c, 0, 62, 57
1, 252254, Note_off_c, 0, 57, 53
1, 252370, Note_on_c, 0, 36, 81
1, 252407, Note_off_c, 0, 36, 65
1, 252437, Control_c, 0, 64, 119
1, 252452, Control_c, 0, 64, 101
1, 252466, Control_c, 0, 64, 85
1, 252481, Control_c, 0, 64, 67
1, 252496, Control_c, 0, 64, 0
1, 252561, Note_on_c, 0, 36, 74
1, 252578, Control_c, 0, 64, 64
1, 252593, Control_c, 0, 64, 75
1, 252595, Note_off_c, 0, 36, 63
1, 252607, Control_c, 0, 64, 85
1, 252622, Control_c, 0, 64, 90
1, 252696, Control_c, 0, 64, 89
1, 252711, Control_c, 0, 64, 87
1, 252726, Control_c, 0, 64, 82
1, 252740, Control_c, 0, 64, 74
1, 252755, Control_c, 0, 64, 65
1, 252771, Control_c, 0, 64, 47
1, 252786, Control_c, 0, 64, 29
1, 252801, Control_c, 0, 64, 0
1, 252986, Note_on_c, 0, 60, 56
1, 252987, Note_on_c, 0, 55, 43
1, 252991, Note_on_c, 0, 36, 24
1, 252993, Note_on_c, 0, 52, 44
1, 252993, Note_on_c, 0, 40, 33
1, 253548, Control_c, 0, 64, 16
1, 253565, Control_c, 0, 64, 28
1, 253580, Control_c, 0, 64, 36
1, 253594, Control_c, 0, 64, 42
1, 253609, Control_c, 0, 64, 45
1, 253624, Control_c, 0, 64, 48
1, 253638, Control_c, 0, 64, 51
1, 253653, Control_c, 0, 64, 53
1, 253668, Control_c, 0, 64, 55
1, 253683, Control_c, 0, 64, 57
1, 253698, Control_c, 0, 64, 59
1, 253712, Control_c, 0, 64, 59
1, 253727, Control_c, 0, 64, 60
1, 253757, Control_c, 0, 64, 61
1, 253772, Control_c, 0, 64, 62
1, 253786, Control_c, 0, 64, 63
1, 253801, Control_c, 0, 64, 63
1, 253816, Control_c, 0, 64, 64
1, 253831, Control_c, 0, 64, 65
1, 253861, Control_c, 0, 64, 65
1, 253876, Control_c, 0, 64, 66
1, 253891, Control_c, 0, 64, 67
1, 253906, Control_c, 0, 64, 68
1, 253920, Control_c, 0, 64, 69
1, 253935, Control_c, 0, 64, 71
1, 253950, Control_c, 0, 64, 73
1, 253965, Control_c, 0, 64, 75
1, 253980, Control_c, 0, 64, 77
1, 253994, Control_c, 0, 64, 78
1, 254009, Control_c, 0, 64, 79
1, 254024, Control_c, 0, 64, 80
1, 254046, Control_c, 0, 64, 81
1, 254061, Control_c, 0, 64, 82
1, 254075, Control_c, 0, 64, 83
1, 254090, Control_c, 0, 64, 85
1, 254105, Control_c, 0, 64, 87
1, 254120, Control_c, 0, 64, 89
1, 254135, Control_c, 0, 64, 91
1, 254150, Control_c, 0, 64, 93
1, 254165, Control_c, 0, 64, 95
1, 254166, Note_off_c, 0, 52, 34
1, 254179, Control_c, 0, 64, 96
1, 254194, Control_c, 0, 64, 98
1, 254209, Control_c, 0, 64, 100
1, 254224, Control_c, 0, 64, 101
1, 254239, Control_c, 0, 64, 101
1, 254253, Control_c, 0, 64, 102
1, 254268, Control_c, 0, 64, 103
1, 254274, Note_off_c, 0, 40, 40
1, 254283, Control_c, 0, 64, 103
1, 254289, Note_off_c, 0, 36, 41
1, 254298, Control_c, 0, 64, 104
1, 254302, Note_off_c, 0, 55, 37
1, 254313, Control_c, 0, 64, 104
1, 254327, Control_c, 0, 64, 105
1, 254342, Control_c, 0, 64, 105
1, 254373, Control_c, 0, 64, 106
1, 254484, Note_off_c, 0, 60, 34
1, 255181, Control_c, 0, 64, 105
1, 255196, Control_c, 0, 64, 104
1, 255210, Control_c, 0, 64, 102
1, 255225, Control_c, 0, 64, 98
1, 255240, Control_c, 0, 64, 91
1, 255247, Note_on_c, 0, 60, 54
1, 255253, Note_on_c, 0, 36, 51
1, 255255, Control_c, 0, 64, 79
1, 255270, Control_c, 0, 64, 66
1, 255284, Control_c, 0, 64, 0
1, 255556, Note_off_c, 0, 36, 64
1, 255564, Note_off_c, 0, 60, 62
1, 255565, Note_on_c, 0, 33, 66
1, 255580, Note_on_c, 0, 57, 76
1, 255619, Note_off_c, 0, 57, 61
1, 255631, Note_off_c, 0, 33, 65
1, 255661, Note_on_c, 0, 53, 98
1, 255662, Note_on_c, 0, 29, 108
1, 255691, Control_c, 0, 64, 69
1, 255706, Control_c, 0, 64, 127
1, 255738, Note_off_c, 0, 53, 67
1, 255806, Note_off_c, 0, 29, 60
1, 255857, Note_on_c, 0, 65, 91
1, 255858, Note_on_c, 0, 53, 92
1, 255859, Note_on_c, 0, 57, 79
1, 255861, Note_on_c, 0, 60, 83
1, 255923, Note_off_c, 0, 53, 65
1, 255931, Note_off_c, 0, 57, 63
1, 255933, Note_off_c, 0, 60, 63
1, 255961, Note_off_c, 0, 65, 64
1, 255983, Note_on_c, 0, 29, 83
1, 255983, Note_on_c, 0, 41, 92
1, 255985, Note_on_c, 0, 33, 73
1, 255988, Note_on_c, 0, 36, 79
1, 256115, Note_on_c, 0, 65, 84
1, 256116, Note_on_c, 0, 57, 91
1, 256117, Note_on_c, 0, 60, 88
1, 256118, Note_on_c, 0, 69, 93
1, 256147, Note_off_c, 0, 36, 58
1, 256151, Note_off_c, 0, 29, 54
1, 256158, Note_off_c, 0, 57, 64
1, 256161, Note_off_c, 0, 33, 56
1, 256164, Note_off_c, 0, 41, 59
1, 256180, Note_off_c, 0, 60, 63
1, 256197, Note_off_c, 0, 65, 66
1, 256216, Note_off_c, 0, 69, 66
1, 256240, Note_on_c, 0, 41, 94
1, 256242, Note_on_c, 0, 33, 74
1, 256246, Note_on_c, 0, 36, 85
1, 256250, Note_on_c, 0, 29, 83
1, 256374, Note_on_c, 0, 69, 97
1, 256376, Note_on_c, 0, 60, 93
1, 256377, Note_on_c, 0, 72, 95
1, 256381, Note_on_c, 0, 65, 89
1, 256423, Note_off_c, 0, 65, 64
1, 256424, Note_off_c, 0, 60, 59
1, 256425, Note_off_c, 0, 29, 49
1, 256435, Note_off_c, 0, 41, 60
1, 256445, Note_off_c, 0, 69, 67
1, 256460, Note_off_c, 0, 72, 66
1, 256467, Note_off_c, 0, 36, 61
1, 256478, Note_off_c, 0, 33, 0
1, 256495, Note_on_c, 0, 33, 54
1, 256498, Note_on_c, 0, 41, 93
1, 256499, Note_on_c, 0, 36, 70
1, 256503, Note_on_c, 0, 29, 85
1, 256614, Note_on_c, 0, 72, 93
1, 256614, Note_on_c, 0, 77, 98
1, 256616, Note_on_c, 0, 65, 88
1, 256616, Note_on_c, 0, 69, 84
1, 256653, Note_off_c, 0, 29, 56
1, 256660, Note_off_c, 0, 69, 66
1, 256660, Note_off_c, 0, 65, 66
1, 256671, Note_off_c, 0, 41, 62
1, 256672, Note_off_c, 0, 72, 67
1, 256698, Note_off_c, 0, 33, 60
1, 256705, Note_off_c, 0, 77, 61
1, 256718, Note_off_c, 0, 36, 0
1, 256730, Note_on_c, 0, 36, 57
1, 256735, Note_on_c, 0, 41, 90
1, 256736, Note_on_c, 0, 33, 62
1, 256743, Note_on_c, 0, 29, 82
1, 256845, Note_on_c, 0, 69, 93
1, 256845, Note_on_c, 0, 77, 91
1, 256847, Note_on_c, 0, 81, 99
1, 256848, Note_on_c, 0, 72, 89
1, 256882, Note_off_c, 0, 69, 68
1, 256888, Note_off_c, 0, 72, 66
1, 256890, Note_off_c, 0, 29, 37
1, 256892, Note_off_c, 0, 41, 52
1, 256913, Note_off_c, 0, 77, 64
1, 256921, Note_off_c, 0, 36, 49
1, 256927, Note_off_c, 0, 81, 63
1, 256961, Note_off_c, 0, 33, 0
1, 256974, Note_on_c, 0, 33, 60
1, 256976, Note_on_c, 0, 41, 95
1, 256979, Note_on_c, 0, 36, 72
1, 256982, Note_on_c, 0, 29, 86
1, 257104, Note_on_c, 0, 81, 92
1, 257107, Note_on_c, 0, 84, 97
1, 257108, Note_on_c, 0, 72, 88
1, 257111, Note_on_c, 0, 77, 85
1, 257117, Note_off_c, 0, 36, 48
1, 257118, Note_off_c, 0, 33, 53
1, 257128, Note_off_c, 0, 77, 72
1, 257129, Note_off_c, 0, 29, 55
1, 257129, Note_off_c, 0, 41, 53
1, 257134, Note_off_c, 0, 72, 63
1, 257146, Note_off_c, 0, 81, 65
1, 257159, Note_off_c, 0, 84, 68
1, 257303, Note_on_c, 0, 89, 104
1, 257304, Note_on_c, 0, 81, 97
1, 257304, Note_on_c, 0, 84, 99
1, 257305, Note_on_c, 0, 77, 97
1, 257309, Note_on_c, 0, 33, 79
1, 257310, Note_on_c, 0, 41, 92
1, 257311, Note_on_c, 0, 29, 92
1, 257313, Note_on_c, 0, 36, 86
1, 257965, Note_off_c, 0, 77, 44
1, 257987, Note_off_c, 0, 89, 56
1, 258112, Note_off_c, 0, 84, 56
1, 258124, Note_off_c, 0, 81, 53
1, 258193, Note_off_c, 0, 41, 45
1, 258212, Note_off_c, 0, 29, 32
1, 258265, Note_off_c, 0, 33, 43
1, 258482, Note_off_c, 0, 36, 52
1, 258502, Control_c, 0, 64, 123
1, 258517, Control_c, 0, 64, 119
1, 258540, Control_c, 0, 64, 116
1, 258555, Control_c, 0, 64, 113
1, 258570, Control_c, 0, 64, 111
1, 258584, Control_c, 0, 64, 109
1, 258599, Control_c, 0, 64, 107
1, 258614, Control_c, 0, 64, 104
1, 258629, Control_c, 0, 64, 101
1, 258643, Control_c, 0, 64, 98
1, 258658, Control_c, 0, 64, 94
1, 258673, Control_c, 0, 64, 90
1, 258688, Control_c, 0, 64, 85
1, 258703, Control_c, 0, 64, 81
1, 258717, Control_c, 0, 64, 76
1, 258732, Control_c, 0, 64, 70
1, 258747, Control_c, 0, 64, 62
1, 258761, Control_c, 0, 64, 40
1, 258776, Control_c, 0, 64, 0
1, 258794, Note_on_c, 0, 33, 33
1, 258798, Note_on_c, 0, 57, 50
1, 259118, Note_on_c, 0, 60, 46
1, 259119, Note_on_c, 0, 36, 38
1, 259173, Note_off_c, 0, 57, 55
1, 259185, Note_off_c, 0, 33, 45
1, 259212, Note_on_c, 0, 65, 63
1, 259218, Note_on_c, 0, 41, 46
1, 259229, Note_off_c, 0, 60, 60
1, 259236, Note_off_c, 0, 36, 54
1, 259620, Note_on_c, 0, 69, 56
1, 259636, Note_on_c, 0, 45, 45
1, 259697, Note_off_c, 0, 41, 50
1, 259748, Note_off_c, 0, 65, 65
1, 259933, Note_on_c, 0, 48, 48
1, 259933, Note_on_c, 0, 72, 50
1, 259981, Note_off_c, 0, 45, 41
1, 260057, Note_on_c, 0, 77, 65
1, 260080, Note_on_c, 0, 53, 43
1, 260100, Note_off_c, 0, 48, 57
1, 260104, Note_off_c, 0, 69, 57
1, 260113, Note_off_c, 0, 72, 63
1, 260258, Control_c, 0, 64, 45
1, 260273, Control_c, 0, 64, 62
1, 260288, Control_c, 0, 64, 65
1, 260303, Control_c, 0, 64, 66
1, 260317, Control_c, 0, 64, 67
1, 260332, Control_c, 0, 64, 69
1, 260347, Control_c, 0, 64, 70
1, 260362, Control_c, 0, 64, 72
1, 260377, Control_c, 0, 64, 74
1, 260392, Control_c, 0, 64, 76
1, 260406, Control_c, 0, 64, 77
1, 260451, Control_c, 0, 64, 77
1, 260494, Note_on_c, 0, 41, 31
1, 260495, Note_on_c, 0, 65, 55
1, 260495, Control_c, 0, 64, 78
1, 260510, Control_c, 0, 64, 78
1, 260525, Control_c, 0, 64, 79
1, 260540, Control_c, 0, 64, 80
1, 260554, Control_c, 0, 64, 81
1, 260569, Control_c, 0, 64, 82
1, 260584, Control_c, 0, 64, 85
1, 260596, Note_off_c, 0, 41, 57
1, 260599, Control_c, 0, 64, 87
1, 260613, Control_c, 0, 64, 90
1, 260628, Control_c, 0, 64, 94
1, 260633, Note_off_c, 0, 77, 62
1, 260639, Note_off_c, 0, 53, 65
1, 260643, Control_c, 0, 64, 97
1, 260658, Control_c, 0, 64, 102
1, 260673, Control_c, 0, 64, 107
1, 260687, Control_c, 0, 64, 113
1, 260702, Note_off_c, 0, 65, 64
1, 260702, Control_c, 0, 64, 123
1, 260717, Control_c, 0, 64, 127
1, 260859, Control_c, 0, 64, 111
1, 260874, Control_c, 0, 64, 84
1, 260889, Control_c, 0, 64, 0
1, 260903, Note_on_c, 0, 60, 97
1, 260905, Note_on_c, 0, 52, 90
1, 260909, Note_on_c, 0, 55, 93
1, 260933, Control_c, 0, 64, 41
1, 260938, Note_off_c, 0, 60, 65
1, 260946, Note_off_c, 0, 55, 69
1, 260948, Control_c, 0, 64, 85
1, 260956, Note_off_c, 0, 52, 67
1, 260962, Control_c, 0, 64, 127
1, 261065, Note_on_c, 0, 64, 93
1, 261066, Note_on_c, 0, 55, 89
1, 261069, Note_on_c, 0, 60, 85
1, 261111, Note_off_c, 0, 55, 63
1, 261119, Note_off_c, 0, 60, 59
1, 261151, Note_off_c, 0, 64, 64
1, 261188, Note_on_c, 0, 48, 97
1, 261189, Note_on_c, 0, 40, 85
1, 261192, Note_on_c, 0, 43, 89
1, 261296, Note_off_c, 0, 43, 60
1, 261310, Note_off_c, 0, 40, 60
1, 261313, Note_off_c, 0, 48, 58
1, 261318, Note_on_c, 0, 67, 92
1, 261320, Note_on_c, 0, 64, 95
1, 261325, Note_on_c, 0, 60, 85
1, 261371, Note_off_c, 0, 60, 60
1, 261379, Note_off_c, 0, 64, 65
1, 261401, Note_off_c, 0, 67, 63
1, 261438, Note_on_c, 0, 48, 89
1, 261441, Note_on_c, 0, 43, 88
1, 261441, Note_on_c, 0, 40, 86
1, 261579, Note_on_c, 0, 72, 100
1, 261579, Note_on_c, 0, 67, 92
1, 261580, Note_on_c, 0, 64, 90
1, 261587, Note_off_c, 0, 40, 54
1, 261615, Note_off_c, 0, 48, 57
1, 261618, Note_off_c, 0, 43, 34
1, 261623, Note_off_c, 0, 64, 65
1, 261634, Note_off_c, 0, 67, 63
1, 261656, Note_off_c, 0, 72, 64
1, 261691, Note_on_c, 0, 43, 81
1, 261693, Note_on_c, 0, 48, 93
1, 261700, Note_on_c, 0, 40, 83
1, 261814, Note_on_c, 0, 76, 97
1, 261818, Note_on_c, 0, 72, 94
1, 261819, Note_on_c, 0, 67, 88
1, 261830, Note_off_c, 0, 40, 57
1, 261844, Note_off_c, 0, 43, 52
1, 261858, Note_off_c, 0, 67, 63
1, 261861, Note_off_c, 0, 48, 60
1, 261868, Note_off_c, 0, 72, 65
1, 261892, Note_off_c, 0, 76, 70
1, 261936, Note_on_c, 0, 48, 90
1, 261937, Note_on_c, 0, 43, 88
1, 261944, Note_on_c, 0, 40, 81
1, 262038, Note_off_c, 0, 40, 0
1, 262053, Note_on_c, 0, 79, 103
1, 262055, Note_on_c, 0, 76, 79
1, 262061, Note_on_c, 0, 72, 83
1, 262071, Note_off_c, 0, 48, 56
1, 262073, Note_off_c, 0, 43, 42
1, 262093, Note_off_c, 0, 72, 61
1, 262118, Note_off_c, 0, 76, 65
1, 262140, Poly_aftertouch_c, 0, 40, 0
1, 262143, Note_off_c, 0, 79, 66
1, 262178, Note_on_c, 0, 40, 63
1, 262182, Note_on_c, 0, 48, 88
1, 262185, Note_on_c, 0, 43, 84
1, 262234, Note_off_c, 0, 40, 63
1, 262240, Note_off_c, 0, 48, 64
1, 262258, Note_off_c, 0, 43, 61
1, 262333, Note_on_c, 0, 84, 102
1, 262339, Note_on_c, 0, 76, 84
1, 262347, Note_on_c, 0, 79, 76
1, 262369, Note_off_c, 0, 79, 67
1, 262380, Note_off_c, 0, 76, 68
1, 262402, Note_off_c, 0, 84, 63
1, 262682, Control_c, 0, 64, 123
1, 262697, Control_c, 0, 64, 108
1, 262712, Control_c, 0, 64, 95
1, 262727, Control_c, 0, 64, 83
1, 262742, Control_c, 0, 64, 71
1, 262756, Control_c, 0, 64, 51
1, 262771, Control_c, 0, 64, 0
1, 262792, Note_on_c, 0, 72, 67
1, 262806, Note_on_c, 0, 64, 37
1, 262807, Note_on_c, 0, 67, 37
1, 263283, Control_c, 0, 64, 62
1, 263298, Control_c, 0, 64, 69
1, 263313, Control_c, 0, 64, 75
1, 263328, Control_c, 0, 64, 80
1, 263343, Control_c, 0, 64, 83
1, 263358, Control_c, 0, 64, 85
1, 263372, Control_c, 0, 64, 86
1, 263387, Control_c, 0, 64, 88
1, 263402, Control_c, 0, 64, 89
1, 263417, Control_c, 0, 64, 90
1, 263431, Control_c, 0, 64, 91
1, 263446, Control_c, 0, 64, 92
1, 263461, Control_c, 0, 64, 92
1, 263476, Control_c, 0, 64, 93
1, 263491, Control_c, 0, 64, 93
1, 263504, Note_off_c, 0, 64, 55
1, 263505, Control_c, 0, 64, 94
1, 263508, Note_off_c, 0, 67, 37
1, 263529, Note_on_c, 0, 74, 52
1, 263549, Control_c, 0, 64, 94
1, 263564, Control_c, 0, 64, 95
1, 263579, Control_c, 0, 64, 96
1, 263594, Control_c, 0, 64, 96
1, 263619, Note_off_c, 0, 72, 62
1, 263698, Control_c, 0, 64, 96
1, 263713, Control_c, 0, 64, 93
1, 263725, Note_on_c, 0, 71, 47
1, 263727, Note_on_c, 0, 68, 53
1, 263728, Control_c, 0, 64, 87
1, 263731, Note_on_c, 0, 65, 51
1, 263734, Note_on_c, 0, 76, 67
1, 263742, Control_c, 0, 64, 77
1, 263746, Note_off_c, 0, 74, 63
1, 263757, Control_c, 0, 64, 61
1, 263779, Control_c, 0, 64, 0
1, 263826, Note_off_c, 0, 76, 65
1, 263853, Control_c, 0, 64, 62
1, 263856, Note_on_c, 0, 74, 67
1, 263868, Control_c, 0, 64, 72
1, 263883, Control_c, 0, 64, 80
1, 263894, Note_off_c, 0, 74, 61
1, 263898, Control_c, 0, 64, 88
1, 263912, Control_c, 0, 64, 92
1, 263927, Control_c, 0, 64, 95
1, 263933, Note_on_c, 0, 76, 55
1, 263942, Control_c, 0, 64, 97
1, 263953, Note_off_c, 0, 76, 64
1, 263958, Control_c, 0, 64, 100
1, 263972, Control_c, 0, 64, 103
1, 263984, Note_on_c, 0, 74, 67
1, 263987, Control_c, 0, 64, 106
1, 264002, Control_c, 0, 64, 109
1, 264006, Note_off_c, 0, 74, 67
1, 264017, Control_c, 0, 64, 111
1, 264032, Control_c, 0, 64, 112
1, 264041, Note_on_c, 0, 76, 52
1, 264047, Control_c, 0, 64, 114
1, 264061, Control_c, 0, 64, 116
1, 264062, Note_off_c, 0, 76, 58
1, 264076, Control_c, 0, 64, 119
1, 264077, Note_on_c, 0, 74, 67
1, 264091, Control_c, 0, 64, 121
1, 264103, Note_off_c, 0, 74, 64
1, 264106, Control_c, 0, 64, 123
1, 264121, Control_c, 0, 64, 127
1, 264139, Note_on_c, 0, 76, 59
1, 264163, Note_off_c, 0, 76, 62
1, 264205, Note_on_c, 0, 74, 38
1, 264228, Note_on_c, 0, 76, 54
1, 264234, Note_off_c, 0, 74, 54
1, 264252, Note_off_c, 0, 76, 57
1, 264288, Note_off_c, 0, 71, 61
1, 264303, Note_on_c, 0, 74, 31
1, 264328, Note_on_c, 0, 76, 60
1, 264333, Note_off_c, 0, 68, 64
1, 264335, Note_off_c, 0, 74, 52
1, 264345, Note_off_c, 0, 65, 66
1, 264366, Note_off_c, 0, 76, 64
1, 264367, Note_on_c, 0, 74, 67
1, 264401, Note_off_c, 0, 74, 63
1, 264426, Note_on_c, 0, 72, 64
1, 264484, Note_on_c, 0, 76, 75
1, 264493, Note_off_c, 0, 72, 63
1, 264545, Note_on_c, 0, 74, 86
1, 264552, Note_off_c, 0, 76, 69
1, 264573, Control_c, 0, 64, 102
1, 264584, Note_off_c, 0, 74, 63
1, 264587, Control_c, 0, 64, 73
1, 264602, Control_c, 0, 64, 0
1, 264617, Note_on_c, 0, 52, 100
1, 264617, Note_on_c, 0, 60, 105
1, 264619, Note_on_c, 0, 55, 97
1, 264647, Control_c, 0, 64, 76
1, 264655, Note_off_c, 0, 60, 66
1, 264661, Control_c, 0, 64, 105
1, 264671, Note_off_c, 0, 55, 69
1, 264676, Control_c, 0, 64, 127
1, 264689, Note_off_c, 0, 52, 67
1, 264801, Note_on_c, 0, 64, 94
1, 264804, Note_on_c, 0, 55, 88
1, 264806, Note_on_c, 0, 60, 87
1, 264857, Note_off_c, 0, 55, 62
1, 264868, Note_off_c, 0, 60, 61
1, 264893, Note_off_c, 0, 64, 65
1, 264917, Note_on_c, 0, 48, 93
1, 264920, Note_on_c, 0, 43, 92
1, 264922, Note_on_c, 0, 40, 86
1, 265041, Note_on_c, 0, 64, 95
1, 265042, Note_on_c, 0, 67, 97
1, 265046, Note_on_c, 0, 60, 87
1, 265046, Note_off_c, 0, 43, 53
1, 265058, Note_off_c, 0, 40, 58
1, 265066, Note_off_c, 0, 48, 55
1, 265096, Note_off_c, 0, 60, 59
1, 265111, Note_off_c, 0, 64, 66
1, 265131, Note_off_c, 0, 67, 62
1, 265160, Note_on_c, 0, 43, 86
1, 265160, Note_on_c, 0, 48, 95
1, 265167, Note_on_c, 0, 40, 86
1, 265296, Note_on_c, 0, 72, 100
1, 265299, Note_on_c, 0, 64, 92
1, 265299, Note_on_c, 0, 67, 93
1, 265322, Note_off_c, 0, 40, 57
1, 265322, Note_off_c, 0, 43, 59
1, 265326, Note_off_c, 0, 48, 59
1, 265352, Note_off_c, 0, 64, 64
1, 265355, Note_off_c, 0, 67, 64
1, 265382, Note_off_c, 0, 72, 66
1, 265409, Note_on_c, 0, 48, 95
1, 265410, Note_on_c, 0, 43, 88
1, 265416, Note_on_c, 0, 40, 91
1, 265536, Note_on_c, 0, 76, 96
1, 265538, Note_on_c, 0, 67, 84
1, 265540, Note_on_c, 0, 72, 93
1, 265576, Note_off_c, 0, 40, 57
1, 265579, Note_off_c, 0, 43, 49
1, 265582, Note_off_c, 0, 48, 55
1, 265594, Note_off_c, 0, 67, 62
1, 265603, Note_off_c, 0, 72, 64
1, 265623, Note_off_c, 0, 76, 69
1, 265655, Note_on_c, 0, 48, 90
1, 265656, Note_on_c, 0, 43, 85
1, 265661, Note_on_c, 0, 40, 81
1, 265734, Note_off_c, 0, 43, 57
1, 265773, Note_on_c, 0, 79, 95
1, 265775, Note_on_c, 0, 76, 92
1, 265776, Note_on_c, 0, 72, 85
1, 265776, Note_off_c, 0, 48, 61
1, 265820, Note_off_c, 0, 72, 64
1, 265838, Note_off_c, 0, 76, 63
1, 265858, Note_off_c, 0, 79, 67
1, 265874, Note_off_c, 0, 40, 0
1, 265886, Note_on_c, 0, 40, 58
1, 265888, Note_on_c, 0, 48, 86
1, 265895, Note_on_c, 0, 43, 81
1, 265931, Note_off_c, 0, 40, 65
1, 265935, Note_off_c, 0, 48, 65
1, 265954, Note_off_c, 0, 43, 63
1, 266040, Note_on_c, 0, 84, 100
1, 266047, Note_on_c, 0, 76, 82
1, 266047, Note_on_c, 0, 79, 89
1, 266071, Note_off_c, 0, 76, 67
1, 266077, Note_off_c, 0, 79, 63
1, 266107, Note_off_c, 0, 84, 62
1, 266353, Control_c, 0, 64, 116
1, 266368, Control_c, 0, 64, 102
1, 266382, Control_c, 0, 64, 87
1, 266397, Control_c, 0, 64, 72
1, 266412, Control_c, 0, 64, 38
1, 266427, Control_c, 0, 64, 0
1, 266458, Note_on_c, 0, 72, 70
1, 266464, Note_on_c, 0, 64, 43
1, 266470, Note_on_c, 0, 67, 43
1, 266953, Control_c, 0, 64, 63
1, 266967, Control_c, 0, 64, 68
1, 266982, Control_c, 0, 64, 72
1, 266997, Control_c, 0, 64, 76
1, 267012, Control_c, 0, 64, 80
1, 267027, Control_c, 0, 64, 84
1, 267042, Control_c, 0, 64, 87
1, 267057, Control_c, 0, 64, 88
1, 267072, Control_c, 0, 64, 89
1, 267087, Control_c, 0, 64, 91
1, 267102, Control_c, 0, 64, 93
1, 267117, Control_c, 0, 64, 95
1, 267131, Control_c, 0, 64, 96
1, 267132, Note_off_c, 0, 67, 57
1, 267147, Control_c, 0, 64, 97
1, 267162, Control_c, 0, 64, 98
1, 267177, Control_c, 0, 64, 100
1, 267191, Control_c, 0, 64, 101
1, 267206, Note_off_c, 0, 64, 61
1, 267206, Control_c, 0, 64, 103
1, 267221, Control_c, 0, 64, 103
1, 267235, Note_on_c, 0, 74, 60
1, 267236, Control_c, 0, 64, 104
1, 267251, Control_c, 0, 64, 105
1, 267266, Control_c, 0, 64, 106
1, 267280, Control_c, 0, 64, 107
1, 267310, Control_c, 0, 64, 108
1, 267313, Note_off_c, 0, 72, 62
1, 267384, Control_c, 0, 64, 107
1, 267398, Control_c, 0, 64, 104
1, 267413, Control_c, 0, 64, 97
1, 267421, Note_on_c, 0, 65, 52
1, 267424, Note_on_c, 0, 68, 55
1, 267424, Note_on_c, 0, 76, 72
1, 267428, Control_c, 0, 64, 86
1, 267443, Control_c, 0, 64, 73
1, 267444, Note_off_c, 0, 74, 66
1, 267458, Control_c, 0, 64, 47
1, 267472, Control_c, 0, 64, 0
1, 267526, Note_off_c, 0, 76, 66
1, 267549, Note_on_c, 0, 74, 66
1, 267569, Control_c, 0, 64, 64
1, 267583, Note_off_c, 0, 74, 60
1, 267584, Control_c, 0, 64, 73
1, 267598, Control_c, 0, 64, 84
1, 267613, Control_c, 0, 64, 91
1, 267624, Note_on_c, 0, 76, 65
1, 267628, Control_c, 0, 64, 94
1, 267643, Control_c, 0, 64, 95
1, 267646, Note_off_c, 0, 76, 67
1, 267658, Control_c, 0, 64, 97
1, 267672, Control_c, 0, 64, 100
1, 267675, Note_on_c, 0, 74, 74
1, 267687, Control_c, 0, 64, 103
1, 267701, Note_off_c, 0, 74, 64
1, 267702, Control_c, 0, 64, 106
1, 267716, Control_c, 0, 64, 108
1, 267731, Control_c, 0, 64, 109
1, 267733, Note_on_c, 0, 76, 65
1, 267746, Control_c, 0, 64, 112
1, 267755, Note_off_c, 0, 76, 66
1, 267761, Control_c, 0, 64, 114
1, 267776, Control_c, 0, 64, 117
1, 267791, Note_on_c, 0, 74, 64
1, 267791, Control_c, 0, 64, 121
1, 267806, Control_c, 0, 64, 123
1, 267808, Note_off_c, 0, 74, 67
1, 267821, Control_c, 0, 64, 127
1, 267832, Note_on_c, 0, 76, 66
1, 267836, Control_c, 0, 64, 127
1, 267862, Note_off_c, 0, 76, 66
1, 267880, Note_on_c, 0, 74, 68
1, 267909, Note_off_c, 0, 74, 64
1, 267930, Note_on_c, 0, 76, 62
1, 267964, Note_off_c, 0, 76, 64
1, 267972, Note_off_c, 0, 68, 64
1, 267981, Note_on_c, 0, 74, 62
1, 267987, Note_off_c, 0, 65, 64
1, 268007, Note_off_c, 0, 74, 66
1, 268023, Note_on_c, 0, 76, 67
1, 268070, Note_on_c, 0, 74, 58
1, 268092, Note_off_c, 0, 76, 67
1, 268114, Note_off_c, 0, 74, 64
1, 268119, Note_on_c, 0, 72, 79
1, 268176, Note_on_c, 0, 74, 87
1, 268194, Note_off_c, 0, 72, 62
1, 268211, Note_off_c, 0, 74, 70
1, 268223, Control_c, 0, 64, 115
1, 268238, Control_c, 0, 64, 85
1, 268253, Control_c, 0, 64, 46
1, 268275, Control_c, 0, 64, 0
1, 268282, Note_on_c, 0, 64, 97
1, 268282, Note_on_c, 0, 55, 97
1, 268285, Note_on_c, 0, 58, 99
1, 268304, Control_c, 0, 64, 66
1, 268319, Control_c, 0, 64, 92
1, 268330, Note_off_c, 0, 64, 67
1, 268334, Control_c, 0, 64, 127
1, 268346, Note_off_c, 0, 58, 70
1, 268348, Note_off_c, 0, 55, 65
1, 268458, Note_on_c, 0, 67, 93
1, 268467, Note_on_c, 0, 58, 91
1, 268469, Note_on_c, 0, 64, 88
1, 268513, Note_off_c, 0, 58, 64
1, 268535, Note_off_c, 0, 64, 61
1, 268540, Note_off_c, 0, 67, 61
1, 268584, Note_on_c, 0, 52, 91
1, 268587, Note_on_c, 0, 43, 91
1, 268587, Note_on_c, 0, 46, 96
1, 268704, Note_on_c, 0, 67, 86
1, 268705, Note_off_c, 0, 46, 60
1, 268706, Note_off_c, 0, 43, 56
1, 268709, Note_on_c, 0, 64, 88
1, 268709, Note_on_c, 0, 70, 94
1, 268716, Note_off_c, 0, 52, 58
1, 268754, Note_off_c, 0, 64, 66
1, 268780, Note_off_c, 0, 67, 60
1, 268794, Note_off_c, 0, 70, 59
1, 268825, Note_on_c, 0, 52, 93
1, 268828, Note_on_c, 0, 43, 78
1, 268830, Note_on_c, 0, 46, 90
1, 268941, Note_on_c, 0, 76, 102
1, 268945, Note_on_c, 0, 70, 97
1, 268946, Note_off_c, 0, 46, 54
1, 268947, Note_on_c, 0, 67, 95
1, 268959, Note_off_c, 0, 52, 59
1, 268968, Note_off_c, 0, 43, 52
1, 268983, Note_off_c, 0, 67, 64
1, 269010, Note_off_c, 0, 70, 61
1, 269027, Note_off_c, 0, 76, 60
1, 269067, Note_on_c, 0, 52, 96
1, 269069, Note_on_c, 0, 46, 86
1, 269075, Note_on_c, 0, 43, 85
1, 269183, Note_off_c, 0, 46, 59
1, 269192, Note_on_c, 0, 79, 100
1, 269193, Note_on_c, 0, 76, 97
1, 269194, Note_off_c, 0, 43, 50
1, 269196, Note_on_c, 0, 70, 96
1, 269233, Note_off_c, 0, 52, 53
1, 269235, Note_off_c, 0, 70, 63
1, 269254, Note_off_c, 0, 76, 68
1, 269262, Note_off_c, 0, 79, 63
1, 269308, Note_on_c, 0, 52, 92
1, 269309, Note_on_c, 0, 43, 82
1, 269311, Note_on_c, 0, 46, 88
1, 269414, Note_off_c, 0, 46, 57
1, 269426, Note_on_c, 0, 79, 100
1, 269427, Note_on_c, 0, 82, 98
1, 269430, Note_on_c, 0, 76, 81
1, 269441, Note_off_c, 0, 43, 0
1, 269467, Note_off_c, 0, 52, 53
1, 269468, Note_off_c, 0, 76, 67
1, 269496, Note_off_c, 0, 79, 59
1, 269508, Poly_aftertouch_c, 0, 43, 0
1, 269515, Note_off_c, 0, 82, 62
1, 269543, Note_on_c, 0, 43, 67
1, 269552, Note_on_c, 0, 52, 90
1, 269556, Note_on_c, 0, 46, 78
1, 269592, Note_off_c, 0, 43, 60
1, 269592, Note_off_c, 0, 52, 64
1, 269617, Note_off_c, 0, 46, 64
1, 269686, Note_on_c, 0, 88, 103
1, 269690, Note_on_c, 0, 82, 96
1, 269691, Note_on_c, 0, 79, 95
1, 269713, Note_off_c, 0, 79, 66
1, 269725, Note_off_c, 0, 88, 68
1, 269731, Note_off_c, 0, 82, 68
1, 270009, Control_c, 0, 64, 119
1, 270024, Control_c, 0, 64, 105
1, 270039, Control_c, 0, 64, 93
1, 270054, Control_c, 0, 64, 80
1, 270068, Control_c, 0, 64, 67
1, 270083, Control_c, 0, 64, 0
1, 270132, Note_on_c, 0, 70, 50
1, 270132, Note_on_c, 0, 76, 80
1, 270139, Note_on_c, 0, 67, 46
1, 270536, Control_c, 0, 64, 58
1, 270551, Control_c, 0, 64, 69
1, 270566, Control_c, 0, 64, 76
1, 270581, Control_c, 0, 64, 82
1, 270596, Control_c, 0, 64, 85
1, 270611, Control_c, 0, 64, 88
1, 270625, Control_c, 0, 64, 91
1, 270640, Control_c, 0, 64, 93
1, 270655, Control_c, 0, 64, 95
1, 270670, Control_c, 0, 64, 97
1, 270685, Control_c, 0, 64, 99
1, 270687, Note_off_c, 0, 67, 59
1, 270699, Control_c, 0, 64, 100
1, 270714, Control_c, 0, 64, 101
1, 270729, Control_c, 0, 64, 103
1, 270743, Control_c, 0, 64, 105
1, 270758, Control_c, 0, 64, 107
1, 270773, Control_c, 0, 64, 107
1, 270788, Control_c, 0, 64, 108
1, 270803, Control_c, 0, 64, 109
1, 270817, Control_c, 0, 64, 110
1, 270832, Control_c, 0, 64, 112
1, 270848, Control_c, 0, 64, 114
1, 270867, Note_on_c, 0, 77, 80
1, 270892, Control_c, 0, 64, 115
1, 270906, Note_off_c, 0, 70, 61
1, 270907, Control_c, 0, 64, 117
1, 270922, Control_c, 0, 64, 120
1, 270937, Control_c, 0, 64, 122
1, 270951, Control_c, 0, 64, 123
1, 270966, Control_c, 0, 64, 125
1, 270972, Note_off_c, 0, 76, 61
1, 270981, Control_c, 0, 64, 127
1, 271085, Control_c, 0, 64, 122
1, 271099, Control_c, 0, 64, 104
1, 271102, Note_on_c, 0, 68, 68
1, 271102, Note_on_c, 0, 79, 85
1, 271106, Note_on_c, 0, 72, 71
1, 271114, Control_c, 0, 64, 88
1, 271123, Note_off_c, 0, 77, 62
1, 271129, Control_c, 0, 64, 65
1, 271145, Control_c, 0, 64, 0
1, 271213, Note_off_c, 0, 79, 63
1, 271234, Control_c, 0, 64, 55
1, 271238, Note_on_c, 0, 77, 73
1, 271248, Control_c, 0, 64, 73
1, 271271, Control_c, 0, 64, 86
1, 271286, Control_c, 0, 64, 98
1, 271287, Note_off_c, 0, 77, 52
1, 271301, Control_c, 0, 64, 102
1, 271315, Control_c, 0, 64, 104
1, 271317, Note_on_c, 0, 79, 78
1, 271330, Control_c, 0, 64, 107
1, 271338, Note_off_c, 0, 79, 67
1, 271345, Control_c, 0, 64, 110
1, 271360, Control_c, 0, 64, 112
1, 271374, Control_c, 0, 64, 115
1, 271376, Note_on_c, 0, 77, 75
1, 271389, Control_c, 0, 64, 117
1, 271400, Note_off_c, 0, 77, 63
1, 271404, Control_c, 0, 64, 120
1, 271419, Control_c, 0, 64, 125
1, 271427, Note_on_c, 0, 79, 69
1, 271434, Control_c, 0, 64, 127
1, 271445, Note_off_c, 0, 79, 64
1, 271469, Note_on_c, 0, 77, 76
1, 271494, Note_off_c, 0, 77, 61
1, 271528, Note_on_c, 0, 79, 65
1, 271544, Note_off_c, 0, 79, 63
1, 271581, Note_off_c, 0, 72, 59
1, 271583, Note_on_c, 0, 77, 67
1, 271599, Note_off_c, 0, 77, 65
1, 271612, Note_on_c, 0, 79, 64
1, 271643, Note_off_c, 0, 68, 65
1, 271643, Note_off_c, 0, 79, 52
1, 271660, Note_on_c, 0, 77, 82
1, 271684, Note_off_c, 0, 77, 63
1, 271710, Note_on_c, 0, 79, 56
1, 271749, Note_on_c, 0, 77, 78
1, 271770, Note_off_c, 0, 79, 63
1, 271779, Note_off_c, 0, 77, 60
1, 271785, Note_on_c, 0, 76, 89
1, 271849, Note_on_c, 0, 77, 95
1, 271862, Note_off_c, 0, 76, 69
1, 271863, Control_c, 0, 64, 98
1, 271878, Control_c, 0, 64, 65
1, 271890, Note_off_c, 0, 77, 66
1, 271892, Control_c, 0, 64, 0
1, 271909, Note_on_c, 0, 64, 93
1, 271909, Note_on_c, 0, 67, 98
1, 271938, Control_c, 0, 64, 73
1, 271946, Note_off_c, 0, 67, 64
1, 271953, Control_c, 0, 64, 102
1, 271958, Note_off_c, 0, 64, 69
1, 271968, Control_c, 0, 64, 127
1, 272099, Note_on_c, 0, 76, 97
1, 272104, Note_on_c, 0, 73, 94
1, 272173, Note_off_c, 0, 73, 60
1, 272199, Note_off_c, 0, 76, 57
1, 272213, Note_on_c, 0, 55, 97
1, 272215, Note_on_c, 0, 46, 89
1, 272216, Note_on_c, 0, 52, 92
1, 272217, Note_on_c, 0, 49, 89
1, 272238, Note_off_c, 0, 46, 66
1, 272252, Note_off_c, 0, 52, 69
1, 272253, Note_off_c, 0, 49, 63
1, 272256, Note_off_c, 0, 55, 62
1, 272338, Note_on_c, 0, 76, 96
1, 272339, Note_on_c, 0, 79, 101
1, 272397, Note_off_c, 0, 76, 69
1, 272421, Note_off_c, 0, 79, 67
1, 272465, Note_on_c, 0, 58, 86
1, 272465, Note_on_c, 0, 67, 93
1, 272467, Note_on_c, 0, 61, 86
1, 272467, Note_on_c, 0, 64, 87
1, 272578, Note_on_c, 0, 82, 107
1, 272581, Note_on_c, 0, 79, 95
1, 272594, Note_off_c, 0, 58, 61
1, 272612, Note_off_c, 0, 61, 60
1, 272637, Note_off_c, 0, 67, 58
1, 272647, Note_off_c, 0, 79, 57
1, 272655, Note_off_c, 0, 64, 47
1, 272699, Note_on_c, 0, 67, 95
1, 272700, Note_on_c, 0, 64, 70
1, 272703, Note_on_c, 0, 58, 86
1, 272706, Note_on_c, 0, 61, 89
1, 272763, Note_off_c, 0, 82, 29
1, 272822, Note_on_c, 0, 85, 102
1, 272828, Note_on_c, 0, 82, 98
1, 272854, Note_off_c, 0, 61, 60
1, 272861, Note_off_c, 0, 64, 59
1, 272864, Note_off_c, 0, 58, 59
1, 272866, Note_off_c, 0, 67, 58
1, 272924, Note_off_c, 0, 85, 57
1, 272945, Note_on_c, 0, 67, 98
1, 272952, Note_on_c, 0, 64, 90
1, 272953, Note_on_c, 0, 61, 86
1, 272954, Note_on_c, 0, 58, 87
1, 272964, Note_off_c, 0, 82, 47
1, 273042, Note_off_c, 0, 61, 59
1, 273045, Note_off_c, 0, 58, 54
1, 273060, Note_off_c, 0, 64, 55
1, 273065, Note_off_c, 0, 67, 53
1, 273068, Note_on_c, 0, 88, 101
1, 273072, Note_on_c, 0, 85, 106
1, 273135, Note_off_c, 0, 85, 60
1, 273196, Note_on_c, 0, 67, 92
1, 273199, Note_on_c, 0, 58, 81
1, 273201, Note_on_c, 0, 64, 82
1, 273206, Note_on_c, 0, 61, 82
1, 273230, Note_off_c, 0, 58, 66
1, 273233, Note_off_c, 0, 67, 63
1, 273246, Note_off_c, 0, 64, 66
1, 273252, Note_off_c, 0, 61, 64
1, 273291, Note_off_c, 0, 88, 17
1, 273333, Note_on_c, 0, 88, 95
1, 273335, Note_on_c, 0, 91, 102
1, 273371, Note_off_c, 0, 88, 69
1, 273372, Note_off_c, 0, 91, 65
1, 273620, Control_c, 0, 64, 104
1, 273635, Note_on_c, 0, 76, 98
1, 273635, Control_c, 0, 64, 87
1, 273636, Note_on_c, 0, 79, 115
1, 273636, Note_on_c, 0, 73, 92
1, 273637, Note_on_c, 0, 70, 89
1, 273649, Control_c, 0, 64, 70
1, 273664, Control_c, 0, 64, 0
1, 273946, Control_c, 0, 64, 36
1, 273960, Control_c, 0, 64, 54
1, 273975, Control_c, 0, 64, 61
1, 273990, Control_c, 0, 64, 66
1, 274005, Control_c, 0, 64, 74
1, 274020, Control_c, 0, 64, 86
1, 274027, Note_off_c, 0, 76, 61
1, 274034, Control_c, 0, 64, 98
1, 274049, Control_c, 0, 64, 103
1, 274064, Control_c, 0, 64, 104
1, 274079, Control_c, 0, 64, 105
1, 274093, Control_c, 0, 64, 107
1, 274108, Control_c, 0, 64, 112
1, 274123, Control_c, 0, 64, 117
1, 274138, Control_c, 0, 64, 120
1, 274152, Control_c, 0, 64, 122
1, 274164, Note_off_c, 0, 70, 61
1, 274167, Control_c, 0, 64, 124
1, 274182, Control_c, 0, 64, 126
1, 274197, Control_c, 0, 64, 127
1, 274371, Note_on_c, 0, 80, 102
1, 274414, Note_off_c, 0, 79, 62
1, 274489, Note_off_c, 0, 73, 56
1, 274621, Control_c, 0, 64, 115
1, 274632, Note_on_c, 0, 82, 103
1, 274636, Control_c, 0, 64, 89
1, 274639, Note_on_c, 0, 77, 95
1, 274641, Note_on_c, 0, 74, 84
1, 274646, Note_on_c, 0, 71, 80
1, 274647, Note_off_c, 0, 80, 66
1, 274651, Control_c, 0, 64, 65
1, 274665, Control_c, 0, 64, 0
1, 274739, Control_c, 0, 64, 62
1, 274749, Note_off_c, 0, 82, 66
1, 274754, Control_c, 0, 64, 79
1, 274766, Note_on_c, 0, 80, 85
1, 274769, Control_c, 0, 64, 97
1, 274784, Control_c, 0, 64, 107
1, 274799, Control_c, 0, 64, 107
1, 274814, Control_c, 0, 64, 109
1, 274817, Note_off_c, 0, 80, 64
1, 274829, Control_c, 0, 64, 113
1, 274840, Note_on_c, 0, 82, 85
1, 274843, Control_c, 0, 64, 117
1, 274858, Control_c, 0, 64, 120
1, 274866, Note_off_c, 0, 82, 60
1, 274873, Control_c, 0, 64, 122
1, 274888, Control_c, 0, 64, 123
1, 274893, Note_on_c, 0, 80, 84
1, 274903, Control_c, 0, 64, 126
1, 274917, Control_c, 0, 64, 127
1, 274932, Note_off_c, 0, 80, 56
1, 274948, Note_on_c, 0, 82, 71
1, 274965, Note_off_c, 0, 82, 68
1, 274987, Note_on_c, 0, 80, 79
1, 275037, Note_off_c, 0, 80, 60
1, 275040, Note_on_c, 0, 82, 74
1, 275071, Note_off_c, 0, 82, 60
1, 275088, Note_on_c, 0, 80, 78
1, 275132, Note_off_c, 0, 80, 62
1, 275143, Note_on_c, 0, 82, 70
1, 275179, Note_off_c, 0, 82, 55
1, 275189, Note_on_c, 0, 80, 73
1, 275214, Note_off_c, 0, 80, 64
1, 275236, Note_on_c, 0, 82, 62
1, 275276, Note_off_c, 0, 82, 59
1, 275291, Note_on_c, 0, 80, 75
1, 275312, Note_off_c, 0, 80, 67
1, 275326, Note_on_c, 0, 82, 62
1, 275376, Note_on_c, 0, 80, 71
1, 275398, Note_off_c, 0, 82, 61
1, 275405, Note_off_c, 0, 77, 51
1, 275458, Note_off_c, 0, 74, 57
1, 275477, Note_off_c, 0, 80, 63
1, 275503, Note_off_c, 0, 71, 59
1, 275504, Note_on_c, 0, 79, 60
1, 275564, Note_off_c, 0, 79, 63
1, 275594, Note_on_c, 0, 82, 67
1, 275708, Note_off_c, 0, 82, 60
1, 275710, Note_on_c, 0, 80, 71
1, 275739, Control_c, 0, 64, 119
1, 275762, Control_c, 0, 64, 110
1, 275776, Control_c, 0, 64, 104
1, 275791, Control_c, 0, 64, 98
1, 275806, Control_c, 0, 64, 94
1, 275821, Control_c, 0, 64, 88
1, 275836, Control_c, 0, 64, 82
1, 275851, Control_c, 0, 64, 76
1, 275866, Control_c, 0, 64, 69
1, 275881, Control_c, 0, 64, 63
1, 275884, Note_off_c, 0, 80, 61
1, 275895, Note_on_c, 0, 79, 64
1, 275895, Control_c, 0, 64, 42
1, 275897, Note_on_c, 0, 60, 42
1, 275903, Note_on_c, 0, 76, 41
1, 275910, Control_c, 0, 64, 0
1, 276015, Control_c, 0, 64, 42
1, 276029, Control_c, 0, 64, 67
1, 276039, Note_off_c, 0, 60, 56
1, 276044, Control_c, 0, 64, 76
1, 276059, Control_c, 0, 64, 82
1, 276071, Note_on_c, 0, 72, 46
1, 276074, Control_c, 0, 64, 85
1, 276089, Control_c, 0, 64, 86
1, 276103, Control_c, 0, 64, 87
1, 276104, Note_off_c, 0, 72, 49
1, 276118, Control_c, 0, 64, 89
1, 276133, Control_c, 0, 64, 89
1, 276162, Control_c, 0, 64, 90
1, 276208, Note_on_c, 0, 72, 48
1, 276232, Note_off_c, 0, 72, 57
1, 276242, Note_off_c, 0, 76, 41
1, 276251, Control_c, 0, 64, 89
1, 276296, Control_c, 0, 64, 88
1, 276310, Note_off_c, 0, 79, 32
1, 276310, Control_c, 0, 64, 88
1, 276316, Note_on_c, 0, 72, 62
1, 276325, Control_c, 0, 64, 87
1, 276340, Control_c, 0, 64, 86
1, 276349, Note_off_c, 0, 72, 61
1, 276355, Control_c, 0, 64, 85
1, 276370, Control_c, 0, 64, 83
1, 276385, Control_c, 0, 64, 82
1, 276399, Control_c, 0, 64, 80
1, 276414, Control_c, 0, 64, 79
1, 276429, Control_c, 0, 64, 77
1, 276441, Note_on_c, 0, 72, 57
1, 276444, Control_c, 0, 64, 75
1, 276459, Control_c, 0, 64, 73
1, 276465, Note_off_c, 0, 72, 57
1, 276474, Control_c, 0, 64, 70
1, 276488, Control_c, 0, 64, 66
1, 276510, Control_c, 0, 64, 65
1, 276525, Control_c, 0, 64, 64
1, 276564, Note_on_c, 0, 72, 57
1, 276569, Control_c, 0, 64, 64
1, 276584, Control_c, 0, 64, 63
1, 276599, Control_c, 0, 64, 63
1, 276600, Note_off_c, 0, 72, 65
1, 276614, Control_c, 0, 64, 62
1, 276629, Control_c, 0, 64, 62
1, 276644, Control_c, 0, 64, 61
1, 276659, Control_c, 0, 64, 61
1, 276674, Control_c, 0, 64, 60
1, 276688, Control_c, 0, 64, 59
1, 276696, Note_on_c, 0, 72, 53
1, 276703, Control_c, 0, 64, 59
1, 276717, Note_off_c, 0, 72, 59
1, 276733, Control_c, 0, 64, 58
1, 276748, Control_c, 0, 64, 56
1, 276763, Control_c, 0, 64, 56
1, 276793, Control_c, 0, 64, 55
1, 276802, Note_on_c, 0, 72, 57
1, 276808, Control_c, 0, 64, 54
1, 276823, Control_c, 0, 64, 53
1, 276834, Note_off_c, 0, 72, 60
1, 276838, Control_c, 0, 64, 51
1, 276852, Control_c, 0, 64, 48
1, 276867, Control_c, 0, 64, 47
1, 276897, Control_c, 0, 64, 46
1, 276911, Control_c, 0, 64, 46
1, 276926, Note_on_c, 0, 72, 58
1, 276926, Control_c, 0, 64, 45
1, 276941, Control_c, 0, 64, 44
1, 276948, Note_off_c, 0, 72, 58
1, 277030, Control_c, 0, 64, 45
1, 277040, Note_on_c, 0, 72, 56
1, 277059, Control_c, 0, 64, 45
1, 277068, Note_off_c, 0, 72, 59
1, 277089, Control_c, 0, 64, 46
1, 277103, Control_c, 0, 64, 46
1, 277118, Control_c, 0, 64, 48
1, 277133, Control_c, 0, 64, 49
1, 277148, Control_c, 0, 64, 50
1, 277160, Note_on_c, 0, 72, 55
1, 277163, Control_c, 0, 64, 51
1, 277177, Control_c, 0, 64, 51
1, 277187, Note_off_c, 0, 72, 56
1, 277192, Control_c, 0, 64, 52
1, 277207, Control_c, 0, 64, 53
1, 277222, Control_c, 0, 64, 54
1, 277291, Note_on_c, 0, 72, 54
1, 277312, Note_off_c, 0, 72, 59
1, 277318, Control_c, 0, 64, 53
1, 277333, Control_c, 0, 64, 51
1, 277348, Control_c, 0, 64, 45
1, 277363, Control_c, 0, 64, 32
1, 277378, Control_c, 0, 64, 22
1, 277392, Control_c, 0, 64, 30
1, 277398, Note_on_c, 0, 80, 53
1, 277399, Note_on_c, 0, 77, 54
1, 277407, Control_c, 0, 64, 45
1, 277422, Control_c, 0, 64, 59
1, 277437, Control_c, 0, 64, 66
1, 277452, Control_c, 0, 64, 72
1, 277467, Control_c, 0, 64, 77
1, 277482, Control_c, 0, 64, 80
1, 277496, Control_c, 0, 64, 81
1, 277511, Control_c, 0, 64, 82
1, 277526, Control_c, 0, 64, 82
1, 277528, Note_on_c, 0, 72, 44
1, 277534, Note_off_c, 0, 77, 0
1, 277556, Note_off_c, 0, 72, 55
1, 277602, Control_c, 0, 64, 82
1, 277616, Control_c, 0, 64, 79
1, 277629, Note_off_c, 0, 80, 33
1, 277630, Poly_aftertouch_c, 0, 77, 0
1, 277631, Control_c, 0, 64, 74
1, 277646, Control_c, 0, 64, 65
1, 277647, Note_on_c, 0, 72, 44
1, 277661, Control_c, 0, 64, 45
1, 277673, Note_off_c, 0, 72, 55
1, 277675, Control_c, 0, 64, 0
1, 277735, Control_c, 0, 64, 22
1, 277750, Control_c, 0, 64, 63
1, 277754, Note_on_c, 0, 65, 40
1, 277755, Note_on_c, 0, 68, 43
1, 277765, Control_c, 0, 64, 72
1, 277780, Control_c, 0, 64, 81
1, 277795, Control_c, 0, 64, 86
1, 277803, Note_off_c, 0, 65, 45
1, 277807, Note_off_c, 0, 68, 42
1, 277809, Control_c, 0, 64, 87
1, 277839, Control_c, 0, 64, 87
1, 277854, Control_c, 0, 64, 88
1, 277869, Note_on_c, 0, 72, 44
1, 277883, Control_c, 0, 64, 88
1, 277895, Note_off_c, 0, 72, 56
1, 277957, Control_c, 0, 64, 88
1, 277972, Control_c, 0, 64, 87
1, 277982, Note_on_c, 0, 72, 51
1, 277987, Control_c, 0, 64, 85
1, 278009, Control_c, 0, 64, 83
1, 278012, Note_off_c, 0, 72, 57
1, 278024, Control_c, 0, 64, 79
1, 278039, Control_c, 0, 64, 74
1, 278054, Control_c, 0, 64, 69
1, 278069, Control_c, 0, 64, 65
1, 278083, Control_c, 0, 64, 63
1, 278101, Note_on_c, 0, 72, 53
1, 278113, Control_c, 0, 64, 62
1, 278125, Note_off_c, 0, 72, 55
1, 278128, Control_c, 0, 64, 59
1, 278142, Control_c, 0, 64, 54
1, 278157, Control_c, 0, 64, 48
1, 278187, Control_c, 0, 64, 49
1, 278201, Control_c, 0, 64, 48
1, 278215, Note_on_c, 0, 72, 56
1, 278216, Control_c, 0, 64, 47
1, 278231, Control_c, 0, 64, 45
1, 278240, Note_off_c, 0, 72, 57
1, 278246, Control_c, 0, 64, 44
1, 278275, Control_c, 0, 64, 44
1, 278290, Control_c, 0, 64, 43
1, 278305, Control_c, 0, 64, 40
1, 278320, Control_c, 0, 64, 37
1, 278329, Note_on_c, 0, 72, 56
1, 278336, Control_c, 0, 64, 36
1, 278357, Note_off_c, 0, 72, 56
1, 278365, Control_c, 0, 64, 36
1, 278380, Control_c, 0, 64, 33
1, 278395, Control_c, 0, 64, 31
1, 278455, Note_on_c, 0, 72, 50
1, 278490, Note_off_c, 0, 72, 51
1, 278558, Control_c, 0, 64, 32
1, 278573, Control_c, 0, 64, 32
1, 278581, Note_on_c, 0, 72, 64
1, 278602, Control_c, 0, 64, 33
1, 278608, Note_off_c, 0, 72, 59
1, 278617, Control_c, 0, 64, 35
1, 278632, Control_c, 0, 64, 37
1, 278677, Control_c, 0, 64, 38
1, 278692, Control_c, 0, 64, 40
1, 278693, Note_on_c, 0, 72, 56
1, 278706, Control_c, 0, 64, 43
1, 278721, Control_c, 0, 64, 43
1, 278736, Note_off_c, 0, 72, 61
1, 278814, Note_on_c, 0, 85, 80
1, 278823, Note_on_c, 0, 80, 61
1, 278825, Note_on_c, 0, 77, 56
1, 278832, Control_c, 0, 64, 45
1, 278847, Control_c, 0, 64, 51
1, 278862, Control_c, 0, 64, 59
1, 278876, Control_c, 0, 64, 64
1, 278891, Control_c, 0, 64, 70
1, 278906, Control_c, 0, 64, 76
1, 278921, Control_c, 0, 64, 83
1, 278936, Control_c, 0, 64, 88
1, 278950, Control_c, 0, 64, 91
1, 278965, Control_c, 0, 64, 94
1, 278971, Note_on_c, 0, 72, 33
1, 278980, Control_c, 0, 64, 97
1, 278995, Control_c, 0, 64, 100
1, 279010, Control_c, 0, 64, 102
1, 279024, Control_c, 0, 64, 103
1, 279039, Control_c, 0, 64, 104
1, 279054, Control_c, 0, 64, 105
1, 279067, Note_off_c, 0, 72, 0
1, 279069, Control_c, 0, 64, 106
1, 279083, Control_c, 0, 64, 106
1, 279104, Poly_aftertouch_c, 0, 72, 127
1, 279113, Control_c, 0, 64, 107
1, 279129, Control_c, 0, 64, 107
1, 279154, Poly_aftertouch_c, 0, 72, 0
1, 279173, Control_c, 0, 64, 108
1, 279188, Control_c, 0, 64, 108
1, 279190, Poly_aftertouch_c, 0, 72, 127
1, 279201, Note_on_c, 0, 65, 37
1, 279218, Control_c, 0, 64, 109
1, 279219, Poly_aftertouch_c, 0, 72, 0
1, 279233, Control_c, 0, 64, 110
1, 279243, Note_on_c, 0, 68, 38
1, 279248, Control_c, 0, 64, 110
1, 279258, Note_off_c, 0, 65, 0
1, 279258, Note_on_c, 0, 65, 18
1, 279262, Control_c, 0, 64, 111
1, 279292, Control_c, 0, 64, 111
1, 279303, Note_off_c, 0, 65, 62
1, 279303, Note_off_c, 0, 68, 60
1, 279334, Note_on_c, 0, 72, 59
1, 279336, Control_c, 0, 64, 112
1, 279375, Note_off_c, 0, 72, 58
1, 279395, Control_c, 0, 64, 112
1, 279433, Note_on_c, 0, 72, 49
1, 279482, Note_off_c, 0, 72, 57
1, 279485, Control_c, 0, 64, 113
1, 279560, Note_on_c, 0, 65, 46
1, 279563, Note_on_c, 0, 68, 46
1, 279604, Note_off_c, 0, 65, 63
1, 279621, Note_off_c, 0, 68, 47
1, 279669, Note_on_c, 0, 72, 42
1, 279699, Note_off_c, 0, 72, 54
1, 279776, Note_on_c, 0, 72, 56
1, 279804, Note_off_c, 0, 72, 56
1, 279895, Note_on_c, 0, 68, 51
1, 279901, Note_on_c, 0, 65, 48
1, 279950, Note_off_c, 0, 65, 49
1, 279955, Note_off_c, 0, 80, 36
1, 279959, Note_off_c, 0, 77, 41
1, 280012, Note_on_c, 0, 72, 40
1, 280019, Note_off_c, 0, 85, 37
1, 280041, Note_off_c, 0, 72, 53
1, 280075, Note_off_c, 0, 68, 18
1, 280104, Note_on_c, 0, 72, 47
1, 280141, Note_off_c, 0, 72, 50
1, 280143, Control_c, 0, 64, 111
1, 280158, Control_c, 0, 64, 102
1, 280173, Control_c, 0, 64, 90
1, 280188, Control_c, 0, 64, 75
1, 280203, Control_c, 0, 64, 58
1, 280218, Control_c, 0, 64, 0
1, 280223, Note_on_c, 0, 67, 50
1, 280232, Note_on_c, 0, 84, 59
1, 280242, Note_on_c, 0, 64, 52
1, 280250, Note_on_c, 0, 79, 49
1, 280255, Control_c, 0, 64, 50
1, 280256, Note_on_c, 0, 76, 41
1, 280270, Control_c, 0, 64, 67
1, 280271, Note_off_c, 0, 67, 64
1, 280284, Control_c, 0, 64, 78
1, 280287, Note_off_c, 0, 64, 63
1, 280299, Control_c, 0, 64, 89
1, 280314, Control_c, 0, 64, 94
1, 280328, Control_c, 0, 64, 94
1, 280343, Control_c, 0, 64, 95
1, 280358, Control_c, 0, 64, 95
1, 280485, Note_on_c, 0, 60, 6
1, 280491, Note_off_c, 0, 84, 33
1, 280492, Control_c, 0, 64, 95
1, 280507, Control_c, 0, 64, 94
1, 280522, Control_c, 0, 64, 93
1, 280531, Note_off_c, 0, 60, 60
1, 280536, Control_c, 0, 64, 92
1, 280551, Control_c, 0, 64, 90
1, 280564, Note_off_c, 0, 79, 26
1, 280566, Control_c, 0, 64, 88
1, 280582, Control_c, 0, 64, 86
1, 280585, Note_off_c, 0, 76, 36
1, 280596, Control_c, 0, 64, 85
1, 280611, Control_c, 0, 64, 83
1, 280620, Note_on_c, 0, 60, 54
1, 280626, Control_c, 0, 64, 81
1, 280641, Control_c, 0, 64, 79
1, 280646, Note_off_c, 0, 60, 55
1, 280655, Control_c, 0, 64, 76
1, 280670, Control_c, 0, 64, 73
1, 280685, Control_c, 0, 64, 70
1, 280700, Control_c, 0, 64, 67
1, 280715, Control_c, 0, 64, 66
1, 280731, Control_c, 0, 64, 65
1, 280735, Note_on_c, 0, 60, 55
1, 280769, Note_off_c, 0, 60, 58
1, 280775, Control_c, 0, 64, 65
1, 280790, Control_c, 0, 64, 63
1, 280805, Control_c, 0, 64, 62
1, 280819, Control_c, 0, 64, 61
1, 280843, Note_on_c, 0, 60, 56
1, 280849, Control_c, 0, 64, 60
1, 280864, Control_c, 0, 64, 57
1, 280879, Control_c, 0, 64, 49
1, 280880, Note_off_c, 0, 60, 62
1, 280893, Control_c, 0, 64, 30
1, 280908, Control_c, 0, 64, 0
1, 280966, Note_on_c, 0, 60, 56
1, 281004, Note_off_c, 0, 60, 59
1, 281093, Note_on_c, 0, 60, 57
1, 281118, Note_off_c, 0, 60, 56
1, 281208, Note_on_c, 0, 60, 54
1, 281243, Note_off_c, 0, 60, 61
1, 281335, Note_on_c, 0, 60, 53
1, 281337, Note_on_c, 0, 79, 59
1, 281339, Note_on_c, 0, 76, 55
1, 281365, Note_off_c, 0, 60, 61
1, 281455, Note_on_c, 0, 60, 62
1, 281488, Note_off_c, 0, 60, 62
1, 281511, Note_off_c, 0, 76, 60
1, 281520, Note_off_c, 0, 79, 64
1, 281574, Note_on_c, 0, 60, 63
1, 281607, Note_off_c, 0, 60, 62
1, 281608, Note_on_c, 0, 79, 73
1, 281622, Note_on_c, 0, 76, 57
1, 281634, Note_off_c, 0, 79, 64
1, 281640, Note_off_c, 0, 76, 64
1, 281680, Note_on_c, 0, 80, 75
1, 281685, Note_on_c, 0, 77, 72
1, 281699, Note_on_c, 0, 60, 60
1, 281720, Note_off_c, 0, 60, 61
1, 281813, Note_on_c, 0, 60, 62
1, 281849, Note_off_c, 0, 60, 62
1, 281928, Note_off_c, 0, 80, 61
1, 281946, Note_off_c, 0, 77, 59
1, 281950, Note_on_c, 0, 79, 66
1, 281952, Note_on_c, 0, 76, 62
1, 281959, Note_on_c, 0, 60, 56
1, 281976, Note_off_c, 0, 79, 66
1, 281981, Note_off_c, 0, 76, 68
1, 281983, Note_off_c, 0, 60, 60
1, 282066, Note_on_c, 0, 60, 63
1, 282100, Note_off_c, 0, 60, 60
1, 282193, Note_on_c, 0, 60, 47
1, 282220, Note_off_c, 0, 60, 56
1, 282296, Note_on_c, 0, 67, 62
1, 282303, Note_on_c, 0, 64, 50
1, 282306, Note_on_c, 0, 60, 58
1, 282327, Note_off_c, 0, 64, 60
1, 282329, Note_off_c, 0, 60, 61
1, 282329, Note_off_c, 0, 67, 64
1, 282412, Note_on_c, 0, 60, 57
1, 282435, Note_off_c, 0, 60, 61
1, 282502, Control_c, 0, 64, 24
1, 282517, Control_c, 0, 64, 36
1, 282528, Note_on_c, 0, 60, 55
1, 282531, Control_c, 0, 64, 42
1, 282546, Control_c, 0, 64, 46
1, 282551, Note_off_c, 0, 60, 60
1, 282561, Control_c, 0, 64, 47
1, 282576, Control_c, 0, 64, 49
1, 282591, Control_c, 0, 64, 52
1, 282606, Control_c, 0, 64, 54
1, 282621, Control_c, 0, 64, 57
1, 282634, Note_on_c, 0, 55, 55
1, 282636, Control_c, 0, 64, 59
1, 282636, Note_on_c, 0, 52, 64
1, 282644, Note_on_c, 0, 60, 48
1, 282650, Control_c, 0, 64, 60
1, 282659, Note_off_c, 0, 52, 66
1, 282665, Control_c, 0, 64, 59
1, 282669, Note_off_c, 0, 60, 55
1, 282675, Note_off_c, 0, 55, 67
1, 282680, Control_c, 0, 64, 54
1, 282695, Control_c, 0, 64, 16
1, 282710, Control_c, 0, 64, 0
1, 282743, Note_on_c, 0, 58, 65
1, 282752, Note_on_c, 0, 55, 46
1, 282783, Note_off_c, 0, 58, 61
1, 282784, Control_c, 0, 64, 56
1, 282788, Note_off_c, 0, 55, 64
1, 282798, Control_c, 0, 64, 70
1, 282813, Control_c, 0, 64, 80
1, 282828, Control_c, 0, 64, 87
1, 282843, Control_c, 0, 64, 89
1, 282847, Note_on_c, 0, 60, 68
1, 282857, Control_c, 0, 64, 90
1, 282872, Control_c, 0, 64, 91
1, 282886, Note_off_c, 0, 60, 57
1, 282887, Control_c, 0, 64, 92
1, 282951, Note_on_c, 0, 60, 59
1, 283011, Note_off_c, 0, 60, 58
1, 283020, Note_on_c, 0, 79, 70
1, 283020, Note_on_c, 0, 76, 66
1, 283020, Control_c, 0, 64, 91
1, 283035, Control_c, 0, 64, 88
1, 283041, Note_off_c, 0, 79, 65
1, 283050, Control_c, 0, 64, 83
1, 283052, Note_off_c, 0, 76, 65
1, 283065, Control_c, 0, 64, 75
1, 283080, Control_c, 0, 64, 66
1, 283092, Note_on_c, 0, 82, 74
1, 283095, Control_c, 0, 64, 38
1, 283097, Note_on_c, 0, 79, 82
1, 283102, Note_on_c, 0, 60, 60
1, 283109, Control_c, 0, 64, 0
1, 283133, Note_off_c, 0, 60, 64
1, 283249, Note_on_c, 0, 60, 55
1, 283251, Control_c, 0, 64, 10
1, 283266, Control_c, 0, 64, 19
1, 283275, Note_off_c, 0, 60, 60
1, 283280, Control_c, 0, 64, 24
1, 283295, Control_c, 0, 64, 25
1, 283310, Control_c, 0, 64, 27
1, 283325, Control_c, 0, 64, 28
1, 283340, Control_c, 0, 64, 29
1, 283354, Note_on_c, 0, 80, 75
1, 283355, Note_on_c, 0, 60, 64
1, 283360, Note_on_c, 0, 77, 60
1, 283360, Note_off_c, 0, 79, 62
1, 283361, Note_off_c, 0, 82, 63
1, 283369, Control_c, 0, 64, 30
1, 283383, Note_off_c, 0, 80, 65
1, 283384, Control_c, 0, 64, 29
1, 283387, Note_off_c, 0, 60, 62
1, 283387, Note_off_c, 0, 77, 66
1, 283399, Control_c, 0, 64, 28
1, 283428, Control_c, 0, 64, 27
1, 283443, Control_c, 0, 64, 28
1, 283458, Control_c, 0, 64, 29
1, 283473, Control_c, 0, 64, 32
1, 283488, Control_c, 0, 64, 34
1, 283490, Note_on_c, 0, 60, 60
1, 283503, Control_c, 0, 64, 38
1, 283518, Control_c, 0, 64, 39
1, 283520, Note_off_c, 0, 60, 61
1, 283533, Control_c, 0, 64, 40
1, 283547, Control_c, 0, 64, 41
1, 283562, Control_c, 0, 64, 42
1, 283576, Control_c, 0, 64, 43
1, 283591, Control_c, 0, 64, 43
1, 283599, Note_on_c, 0, 60, 63
1, 283606, Control_c, 0, 64, 44
1, 283633, Note_off_c, 0, 60, 61
1, 283650, Control_c, 0, 64, 45
1, 283694, Control_c, 0, 64, 44
1, 283709, Control_c, 0, 64, 43
1, 283715, Note_on_c, 0, 68, 67
1, 283721, Note_on_c, 0, 65, 61
1, 283724, Control_c, 0, 64, 42
1, 283733, Note_on_c, 0, 60, 58
1, 283744, Note_off_c, 0, 65, 67
1, 283750, Note_off_c, 0, 68, 64
1, 283753, Control_c, 0, 64, 43
1, 283756, Note_off_c, 0, 60, 62
1, 283768, Control_c, 0, 64, 43
1, 283783, Control_c, 0, 64, 44
1, 283798, Control_c, 0, 64, 45
1, 283813, Control_c, 0, 64, 49
1, 283828, Control_c, 0, 64, 54
1, 283836, Note_on_c, 0, 60, 63
1, 283843, Control_c, 0, 64, 59
1, 283858, Control_c, 0, 64, 62
1, 283868, Note_off_c, 0, 60, 61
1, 283872, Control_c, 0, 64, 63
1, 283887, Control_c, 0, 64, 64
1, 283917, Control_c, 0, 64, 64
1, 283932, Control_c, 0, 64, 65
1, 283947, Control_c, 0, 64, 65
1, 283977, Control_c, 0, 64, 66
1, 283979, Note_on_c, 0, 60, 21
1, 284044, Control_c, 0, 64, 65
1, 284052, Note_on_c, 0, 53, 65
1, 284057, Note_on_c, 0, 56, 56
1, 284073, Control_c, 0, 64, 63
1, 284081, Note_off_c, 0, 53, 67
1, 284088, Control_c, 0, 64, 49
1, 284092, Note_off_c, 0, 56, 65
1, 284102, Control_c, 0, 64, 0
1, 284146, Note_off_c, 0, 60, 33
1, 284168, Note_on_c, 0, 53, 55
1, 284174, Note_on_c, 0, 56, 65
1, 284192, Control_c, 0, 64, 55
1, 284206, Control_c, 0, 64, 69
1, 284221, Control_c, 0, 64, 76
1, 284230, Note_off_c, 0, 56, 57
1, 284233, Note_off_c, 0, 53, 63
1, 284236, Control_c, 0, 64, 81
1, 284251, Control_c, 0, 64, 84
1, 284265, Note_on_c, 0, 60, 61
1, 284266, Control_c, 0, 64, 86
1, 284281, Control_c, 0, 64, 87
1, 284295, Control_c, 0, 64, 88
1, 284307, Note_off_c, 0, 60, 59
1, 284310, Control_c, 0, 64, 88
1, 284372, Note_on_c, 0, 60, 60
1, 284412, Note_off_c, 0, 60, 62
1, 284443, Control_c, 0, 64, 88
1, 284455, Note_on_c, 0, 77, 69
1, 284458, Note_on_c, 0, 80, 74
1, 284458, Control_c, 0, 64, 87
1, 284473, Control_c, 0, 64, 83
1, 284482, Note_off_c, 0, 80, 69
1, 284487, Control_c, 0, 64, 76
1, 284488, Note_off_c, 0, 77, 62
1, 284502, Control_c, 0, 64, 66
1, 284517, Control_c, 0, 64, 28
1, 284532, Control_c, 0, 64, 0
1, 284580, Note_on_c, 0, 85, 94
1, 284591, Note_on_c, 0, 80, 77
1, 284595, Note_on_c, 0, 77, 73
1, 284710, Control_c, 0, 64, 55
1, 284722, Note_on_c, 0, 60, 61
1, 284725, Control_c, 0, 64, 68
1, 284748, Control_c, 0, 64, 73
1, 284763, Control_c, 0, 64, 78
1, 284770, Note_off_c, 0, 60, 58
1, 284778, Control_c, 0, 64, 82
1, 284793, Control_c, 0, 64, 86
1, 284807, Control_c, 0, 64, 89
1, 284818, Note_on_c, 0, 60, 52
1, 284822, Control_c, 0, 64, 92
1, 284837, Control_c, 0, 64, 94
1, 284852, Control_c, 0, 64, 96
1, 284867, Control_c, 0, 64, 97
1, 284876, Note_off_c, 0, 60, 54
1, 284881, Control_c, 0, 64, 98
1, 284896, Control_c, 0, 64, 100
1, 284911, Control_c, 0, 64, 101
1, 284925, Control_c, 0, 64, 102
1, 284940, Control_c, 0, 64, 103
1, 284949, Note_on_c, 0, 56, 51
1, 284955, Control_c, 0, 64, 103
1, 284956, Note_on_c, 0, 53, 46
1, 284985, Control_c, 0, 64, 104
1, 285004, Note_off_c, 0, 53, 57
1, 285009, Note_off_c, 0, 56, 50
1, 285014, Control_c, 0, 64, 104
1, 285074, Note_on_c, 0, 60, 41
1, 285101, Note_off_c, 0, 60, 53
1, 285177, Note_on_c, 0, 60, 44
1, 285204, Note_off_c, 0, 60, 53
1, 285274, Note_off_c, 0, 77, 51
1, 285295, Note_on_c, 0, 56, 39
1, 285297, Note_on_c, 0, 53, 36
1, 285361, Note_off_c, 0, 53, 39
1, 285415, Note_on_c, 0, 60, 44
1, 285427, Note_off_c, 0, 80, 47
1, 285429, Note_off_c, 0, 56, 22
1, 285445, Note_off_c, 0, 60, 52
1, 285517, Note_on_c, 0, 60, 46
1, 285553, Note_off_c, 0, 60, 52
1, 285646, Note_on_c, 0, 56, 32
1, 285649, Note_on_c, 0, 53, 34
1, 285734, Control_c, 0, 64, 105
1, 285752, Note_on_c, 0, 60, 49
1, 285777, Note_off_c, 0, 60, 57
1, 285816, Note_off_c, 0, 53, 37
1, 285866, Note_on_c, 0, 60, 49
1, 285891, Note_off_c, 0, 60, 55
1, 285901, Note_off_c, 0, 56, 39
1, 285940, Control_c, 0, 64, 104
1, 285970, Control_c, 0, 64, 101
1, 285985, Control_c, 0, 64, 95
1, 285988, Note_off_c, 0, 85, 33
1, 285998, Note_on_c, 0, 84, 61
1, 286000, Control_c, 0, 64, 86
1, 286011, Note_on_c, 0, 79, 52
1, 286014, Control_c, 0, 64, 76
1, 286026, Note_on_c, 0, 76, 38
1, 286029, Control_c, 0, 64, 66
1, 286044, Control_c, 0, 64, 49
1, 286059, Control_c, 0, 64, 0
1, 286073, Control_c, 0, 64, 10
1, 286088, Control_c, 0, 64, 25
1, 286103, Control_c, 0, 64, 39
1, 286118, Control_c, 0, 64, 53
1, 286123, Note_on_c, 0, 60, 43
1, 286133, Control_c, 0, 64, 62
1, 286147, Control_c, 0, 64, 67
1, 286152, Note_off_c, 0, 60, 55
1, 286162, Control_c, 0, 64, 71
1, 286177, Control_c, 0, 64, 76
1, 286192, Control_c, 0, 64, 79
1, 286207, Control_c, 0, 64, 82
1, 286222, Control_c, 0, 64, 84
1, 286225, Note_on_c, 0, 60, 47
1, 286244, Control_c, 0, 64, 85
1, 286259, Control_c, 0, 64, 87
1, 286281, Note_off_c, 0, 60, 44
1, 286303, Control_c, 0, 64, 86
1, 286319, Control_c, 0, 64, 81
1, 286334, Control_c, 0, 64, 75
1, 286340, Note_off_c, 0, 84, 63
1, 286349, Control_c, 0, 64, 66
1, 286351, Note_on_c, 0, 55, 44
1, 286363, Note_on_c, 0, 52, 45
1, 286363, Control_c, 0, 64, 62
1, 286378, Control_c, 0, 64, 63
1, 286387, Note_off_c, 0, 79, 59
1, 286393, Control_c, 0, 64, 67
1, 286408, Control_c, 0, 64, 72
1, 286412, Note_off_c, 0, 76, 58
1, 286423, Control_c, 0, 64, 78
1, 286437, Control_c, 0, 64, 82
1, 286452, Control_c, 0, 64, 83
1, 286467, Control_c, 0, 64, 83
1, 286482, Control_c, 0, 64, 85
1, 286491, Note_on_c, 0, 60, 32
1, 286496, Control_c, 0, 64, 86
1, 286511, Control_c, 0, 64, 86
1, 286531, Note_off_c, 0, 60, 48
1, 286580, Note_off_c, 0, 52, 39
1, 286586, Note_on_c, 0, 60, 51
1, 286600, Note_off_c, 0, 55, 41
1, 286627, Note_off_c, 0, 60, 59
1, 286763, Control_c, 0, 64, 85
1, 286778, Control_c, 0, 64, 81
1, 286779, Note_on_c, 0, 72, 68
1, 286785, Note_on_c, 0, 66, 57
1, 286793, Control_c, 0, 64, 76
1, 286796, Note_on_c, 0, 63, 51
1, 286808, Control_c, 0, 64, 68
1, 286823, Control_c, 0, 64, 57
1, 286837, Control_c, 0, 64, 46
1, 286852, Control_c, 0, 64, 45
1, 286867, Control_c, 0, 64, 48
1, 286882, Control_c, 0, 64, 51
1, 286896, Control_c, 0, 64, 52
1, 286911, Control_c, 0, 64, 54
1, 286926, Control_c, 0, 64, 57
1, 286941, Control_c, 0, 64, 61
1, 286956, Control_c, 0, 64, 64
1, 286970, Control_c, 0, 64, 67
1, 286993, Control_c, 0, 64, 70
1, 287008, Control_c, 0, 64, 73
1, 287022, Control_c, 0, 64, 75
1, 287025, Poly_aftertouch_c, 0, 60, 127
1, 287034, Note_on_c, 0, 60, 3
1, 287037, Control_c, 0, 64, 78
1, 287052, Control_c, 0, 64, 79
1, 287067, Control_c, 0, 64, 81
1, 287082, Control_c, 0, 64, 82
1, 287124, Note_off_c, 0, 60, 38
1, 287127, Control_c, 0, 64, 81
1, 287142, Control_c, 0, 64, 79
1, 287153, Note_on_c, 0, 54, 50
1, 287157, Control_c, 0, 64, 76
1, 287169, Note_on_c, 0, 51, 43
1, 287172, Control_c, 0, 64, 73
1, 287186, Control_c, 0, 64, 71
1, 287201, Control_c, 0, 64, 71
1, 287216, Control_c, 0, 64, 73
1, 287231, Control_c, 0, 64, 75
1, 287246, Control_c, 0, 64, 78
1, 287259, Note_on_c, 0, 60, 55
1, 287260, Control_c, 0, 64, 80
1, 287262, Note_off_c, 0, 72, 56
1, 287275, Control_c, 0, 64, 81
1, 287290, Control_c, 0, 64, 82
1, 287307, Note_off_c, 0, 60, 51
1, 287309, Note_off_c, 0, 66, 58
1, 287320, Note_off_c, 0, 63, 54
1, 287320, Control_c, 0, 64, 82
1, 287335, Control_c, 0, 64, 83
1, 287365, Control_c, 0, 64, 83
1, 287369, Note_off_c, 0, 54, 31
1, 287372, Note_on_c, 0, 60, 47
1, 287394, Control_c, 0, 64, 84
1, 287400, Note_off_c, 0, 51, 34
1, 287423, Note_off_c, 0, 60, 55
1, 287468, Control_c, 0, 64, 82
1, 287483, Control_c, 0, 64, 79
1, 287498, Control_c, 0, 64, 72
1, 287503, Note_on_c, 0, 71, 54
1, 287506, Note_on_c, 0, 65, 46
1, 287512, Control_c, 0, 64, 66
1, 287515, Note_on_c, 0, 62, 41
1, 287527, Control_c, 0, 64, 61
1, 287542, Control_c, 0, 64, 60
1, 287557, Control_c, 0, 64, 61
1, 287572, Control_c, 0, 64, 63
1, 287587, Control_c, 0, 64, 64
1, 287602, Control_c, 0, 64, 65
1, 287617, Control_c, 0, 64, 67
1, 287631, Control_c, 0, 64, 69
1, 287632, Note_on_c, 0, 60, 47
1, 287646, Control_c, 0, 64, 71
1, 287661, Control_c, 0, 64, 73
1, 287664, Note_off_c, 0, 60, 54
1, 287676, Control_c, 0, 64, 75
1, 287691, Control_c, 0, 64, 77
1, 287706, Control_c, 0, 64, 78
1, 287720, Control_c, 0, 64, 79
1, 287742, Control_c, 0, 64, 79
1, 287754, Note_on_c, 0, 60, 44
1, 287801, Control_c, 0, 64, 79
1, 287816, Control_c, 0, 64, 76
1, 287823, Note_off_c, 0, 71, 58
1, 287831, Control_c, 0, 64, 72
1, 287846, Control_c, 0, 64, 66
1, 287852, Note_off_c, 0, 62, 54
1, 287853, Note_off_c, 0, 60, 29
1, 287861, Control_c, 0, 64, 62
1, 287861, Note_on_c, 0, 53, 42
1, 287874, Note_on_c, 0, 50, 38
1, 287891, Control_c, 0, 64, 64
1, 287906, Control_c, 0, 64, 66
1, 287912, Note_off_c, 0, 65, 58
1, 287921, Control_c, 0, 64, 70
1, 287936, Control_c, 0, 64, 73
1, 287950, Control_c, 0, 64, 76
1, 287965, Control_c, 0, 64, 77
1, 287980, Control_c, 0, 64, 78
1, 287983, Note_on_c, 0, 60, 48
1, 287995, Control_c, 0, 64, 79
1, 288010, Control_c, 0, 64, 80
1, 288016, Note_off_c, 0, 60, 49
1, 288025, Control_c, 0, 64, 80
1, 288040, Control_c, 0, 64, 81
1, 288055, Control_c, 0, 64, 82
1, 288084, Control_c, 0, 64, 82
1, 288091, Note_on_c, 0, 60, 46
1, 288097, Note_off_c, 0, 50, 40
1, 288099, Control_c, 0, 64, 83
1, 288125, Note_off_c, 0, 53, 39
1, 288128, Note_off_c, 0, 60, 47
1, 288173, Control_c, 0, 64, 82
1, 288188, Control_c, 0, 64, 79
1, 288203, Control_c, 0, 64, 75
1, 288207, Note_on_c, 0, 70, 53
1, 288211, Note_on_c, 0, 65, 43
1, 288217, Note_on_c, 0, 61, 42
1, 288217, Control_c, 0, 64, 69
1, 288232, Control_c, 0, 64, 63
1, 288247, Control_c, 0, 64, 56
1, 288261, Control_c, 0, 64, 57
1, 288276, Control_c, 0, 64, 59
1, 288291, Control_c, 0, 64, 61
1, 288306, Control_c, 0, 64, 63
1, 288321, Control_c, 0, 64, 65
1, 288335, Control_c, 0, 64, 68
1, 288347, Note_on_c, 0, 60, 33
1, 288350, Control_c, 0, 64, 71
1, 288365, Control_c, 0, 64, 73
1, 288380, Control_c, 0, 64, 75
1, 288386, Note_off_c, 0, 60, 47
1, 288395, Control_c, 0, 64, 75
1, 288410, Control_c, 0, 64, 76
1, 288424, Control_c, 0, 64, 77
1, 288439, Control_c, 0, 64, 78
1, 288444, Note_on_c, 0, 60, 44
1, 288454, Control_c, 0, 64, 79
1, 288469, Control_c, 0, 64, 80
1, 288491, Control_c, 0, 64, 80
1, 288513, Note_off_c, 0, 60, 40
1, 288536, Control_c, 0, 64, 80
1, 288550, Control_c, 0, 64, 78
1, 288565, Control_c, 0, 64, 74
1, 288579, Note_on_c, 0, 53, 40
1, 288580, Control_c, 0, 64, 70
1, 288585, Note_on_c, 0, 49, 45
1, 288595, Control_c, 0, 64, 66
1, 288610, Control_c, 0, 64, 64
1, 288624, Control_c, 0, 64, 65
1, 288639, Control_c, 0, 64, 67
1, 288654, Control_c, 0, 64, 69
1, 288669, Control_c, 0, 64, 71
1, 288684, Control_c, 0, 64, 73
1, 288699, Control_c, 0, 64, 74
1, 288714, Control_c, 0, 64, 75
1, 288723, Note_on_c, 0, 60, 37
1, 288729, Control_c, 0, 64, 76
1, 288739, Note_off_c, 0, 65, 33
1, 288744, Control_c, 0, 64, 77
1, 288758, Note_off_c, 0, 60, 49
1, 288759, Control_c, 0, 64, 78
1, 288773, Control_c, 0, 64, 78
1, 288806, Note_off_c, 0, 61, 25
1, 288833, Control_c, 0, 64, 79
1, 288853, Note_off_c, 0, 70, 32
1, 288866, Note_on_c, 0, 60, 52
1, 288907, Note_off_c, 0, 60, 45
1, 288959, Note_off_c, 0, 53, 41
1, 288968, Note_off_c, 0, 49, 19
1, 289040, Control_c, 0, 64, 78
1, 289084, Control_c, 0, 64, 78
1, 289099, Control_c, 0, 64, 76
1, 289114, Control_c, 0, 64, 74
1, 289122, Note_on_c, 0, 68, 47
1, 289125, Note_on_c, 0, 65, 40
1, 289129, Control_c, 0, 64, 72
1, 289130, Note_on_c, 0, 60, 39
1, 289144, Control_c, 0, 64, 71
1, 289158, Control_c, 0, 64, 69
1, 289173, Control_c, 0, 64, 67
1, 289188, Control_c, 0, 64, 66
1, 289203, Control_c, 0, 64, 66
1, 289240, Control_c, 0, 64, 65
1, 289255, Control_c, 0, 64, 65
1, 289270, Control_c, 0, 64, 64
1, 289273, Note_on_c, 0, 48, 50
1, 289284, Control_c, 0, 64, 64
1, 289299, Control_c, 0, 64, 63
1, 289307, Note_off_c, 0, 48, 57
1, 289314, Control_c, 0, 64, 63
1, 289329, Control_c, 0, 64, 62
1, 289344, Control_c, 0, 64, 61
1, 289359, Control_c, 0, 64, 58
1, 289373, Control_c, 0, 64, 56
1, 289388, Control_c, 0, 64, 54
1, 289398, Note_on_c, 0, 48, 49
1, 289403, Control_c, 0, 64, 54
1, 289417, Control_c, 0, 64, 52
1, 289427, Note_off_c, 0, 48, 58
1, 289432, Control_c, 0, 64, 47
1, 289447, Control_c, 0, 64, 39
1, 289462, Control_c, 0, 64, 28
1, 289477, Control_c, 0, 64, 18
1, 289492, Control_c, 0, 64, 10
1, 289506, Control_c, 0, 64, 0
1, 289516, Note_on_c, 0, 48, 54
1, 289545, Note_off_c, 0, 48, 61
1, 289643, Note_on_c, 0, 48, 46
1, 289670, Note_off_c, 0, 48, 56
1, 289757, Note_on_c, 0, 48, 55
1, 289789, Note_off_c, 0, 48, 62
1, 289882, Note_on_c, 0, 48, 50
1, 289910, Note_off_c, 0, 48, 59
1, 289922, Note_off_c, 0, 68, 60
1, 289927, Note_off_c, 0, 60, 54
1, 289928, Note_off_c, 0, 65, 59
1, 290012, Note_on_c, 0, 48, 57
1, 290043, Note_off_c, 0, 48, 61
1, 290132, Note_on_c, 0, 48, 48
1, 290165, Note_off_c, 0, 48, 58
1, 290254, Note_on_c, 0, 48, 56
1, 290286, Note_off_c, 0, 48, 63
1, 290379, Note_on_c, 0, 48, 57
1, 290413, Note_off_c, 0, 48, 63
1, 290506, Note_on_c, 0, 48, 48
1, 290532, Note_off_c, 0, 48, 59
1, 290614, Note_on_c, 0, 55, 45
1, 290626, Control_c, 0, 64, 38
1, 290636, Note_on_c, 0, 48, 47
1, 290640, Note_on_c, 0, 52, 45
1, 290641, Note_on_c, 0, 46, 40
1, 290641, Control_c, 0, 64, 55
1, 290655, Control_c, 0, 64, 62
1, 290670, Control_c, 0, 64, 65
1, 290685, Control_c, 0, 64, 67
1, 290700, Control_c, 0, 64, 69
1, 290715, Control_c, 0, 64, 70
1, 290737, Control_c, 0, 64, 71
1, 290752, Control_c, 0, 64, 72
1, 290773, Note_on_c, 0, 36, 45
1, 290807, Note_off_c, 0, 36, 56
1, 290841, Control_c, 0, 64, 71
1, 290870, Control_c, 0, 64, 71
1, 290885, Control_c, 0, 64, 70
1, 290899, Note_on_c, 0, 36, 41
1, 290900, Control_c, 0, 64, 69
1, 290915, Control_c, 0, 64, 68
1, 290930, Control_c, 0, 64, 67
1, 290931, Note_off_c, 0, 36, 56
1, 290944, Control_c, 0, 64, 66
1, 290959, Control_c, 0, 64, 65
1, 290989, Control_c, 0, 64, 65
1, 291019, Note_on_c, 0, 36, 49
1, 291033, Control_c, 0, 64, 64
1, 291057, Note_off_c, 0, 36, 61
1, 291078, Control_c, 0, 64, 64
1, 291139, Control_c, 0, 64, 63
1, 291150, Note_on_c, 0, 36, 50
1, 291154, Control_c, 0, 64, 63
1, 291183, Control_c, 0, 64, 62
1, 291186, Note_off_c, 0, 36, 61
1, 291198, Control_c, 0, 64, 61
1, 291213, Control_c, 0, 64, 61
1, 291217, Note_off_c, 0, 46, 41
1, 291228, Control_c, 0, 64, 60
1, 291229, Note_off_c, 0, 55, 41
1, 291232, Note_off_c, 0, 52, 35
1, 291235, Note_off_c, 0, 48, 41
1, 291242, Control_c, 0, 64, 59
1, 291257, Control_c, 0, 64, 59
1, 291272, Control_c, 0, 64, 58
1, 291279, Note_on_c, 0, 36, 48
1, 291286, Control_c, 0, 64, 57
1, 291301, Control_c, 0, 64, 57
1, 291316, Control_c, 0, 64, 56
1, 291317, Note_off_c, 0, 36, 60
1, 291331, Control_c, 0, 64, 56
1, 291346, Control_c, 0, 64, 55
1, 291361, Control_c, 0, 64, 54
1, 291390, Control_c, 0, 64, 53
1, 291405, Control_c, 0, 64, 53
1, 291408, Note_on_c, 0, 36, 43
1, 291420, Control_c, 0, 64, 51
1, 291435, Control_c, 0, 64, 51
1, 291449, Note_off_c, 0, 36, 57
1, 291450, Control_c, 0, 64, 50
1, 291465, Control_c, 0, 64, 49
1, 291486, Control_c, 0, 64, 48
1, 291501, Control_c, 0, 64, 47
1, 291551, Note_on_c, 0, 36, 41
1, 291602, Note_off_c, 0, 36, 53
1, 291690, Note_on_c, 0, 36, 32
1, 291749, Note_off_c, 0, 36, 52
1, 291812, Control_c, 0, 64, 48
1, 291827, Control_c, 0, 64, 48
1, 291839, Note_on_c, 0, 36, 37
1, 291842, Control_c, 0, 64, 49
1, 291857, Control_c, 0, 64, 49
1, 291894, Note_off_c, 0, 36, 52
1, 291917, Control_c, 0, 64, 50
1, 291932, Control_c, 0, 64, 50
1, 291947, Control_c, 0, 64, 51
1, 291991, Control_c, 0, 64, 51
1, 291993, Note_on_c, 0, 36, 39
1, 292006, Control_c, 0, 64, 52
1, 292021, Control_c, 0, 64, 52
1, 292058, Note_off_c, 0, 36, 53
1, 292095, Control_c, 0, 64, 53
1, 292109, Control_c, 0, 64, 53
1, 292166, Note_on_c, 0, 36, 30
1, 292169, Control_c, 0, 64, 54
1, 292183, Control_c, 0, 64, 55
1, 292250, Control_c, 0, 64, 56
1, 292265, Control_c, 0, 64, 56
1, 292280, Control_c, 0, 64, 57
1, 292324, Control_c, 0, 64, 57
1, 292331, Note_off_c, 0, 36, 38
1, 292339, Control_c, 0, 64, 58
1, 292369, Control_c, 0, 64, 58
1, 292429, Note_on_c, 0, 29, 43
1, 292443, Control_c, 0, 64, 59
1, 292502, Control_c, 0, 64, 60
1, 292517, Control_c, 0, 64, 62
1, 292532, Control_c, 0, 64, 64
1, 292547, Control_c, 0, 64, 65
1, 292562, Control_c, 0, 64, 67
1, 292577, Control_c, 0, 64, 70
1, 292591, Control_c, 0, 64, 74
1, 292606, Control_c, 0, 64, 79
1, 292621, Control_c, 0, 64, 83
1, 292635, Control_c, 0, 64, 85
1, 292650, Control_c, 0, 64, 87
1, 292665, Control_c, 0, 64, 88
1, 292680, Control_c, 0, 64, 89
1, 292695, Control_c, 0, 64, 90
1, 292711, Control_c, 0, 64, 91
1, 292725, Control_c, 0, 64, 92
1, 292740, Control_c, 0, 64, 93
1, 292755, Control_c, 0, 64, 93
1, 292770, Control_c, 0, 64, 94
1, 292778, Note_off_c, 0, 29, 40
1, 292781, Note_on_c, 0, 33, 29
1, 292785, Control_c, 0, 64, 95
1, 292794, Note_on_c, 0, 41, 29
1, 292799, Control_c, 0, 64, 97
1, 292814, Control_c, 0, 64, 99
1, 292829, Control_c, 0, 64, 101
1, 292843, Poly_aftertouch_c, 0, 36, 127
1, 292844, Control_c, 0, 64, 102
1, 292858, Control_c, 0, 64, 104
1, 292860, Note_off_c, 0, 33, 50
1, 292873, Control_c, 0, 64, 106
1, 292884, Note_on_c, 0, 29, 46
1, 292888, Control_c, 0, 64, 108
1, 292893, Poly_aftertouch_c, 0, 36, 0
1, 292903, Control_c, 0, 64, 109
1, 292918, Control_c, 0, 64, 111
1, 292929, Note_off_c, 0, 41, 37
1, 292932, Control_c, 0, 64, 112
1, 292947, Control_c, 0, 64, 113
1, 292962, Control_c, 0, 64, 114
1, 292985, Control_c, 0, 64, 114
1, 293000, Control_c, 0, 64, 115
1, 293014, Control_c, 0, 64, 115
1, 293019, Note_off_c, 0, 29, 36
1, 293029, Control_c, 0, 64, 116
1, 293044, Control_c, 0, 64, 116
1, 293050, Note_on_c, 0, 41, 37
1, 293051, Note_on_c, 0, 36, 35
1, 293058, Control_c, 0, 64, 117
1, 293062, Note_on_c, 0, 33, 19
1, 293088, Control_c, 0, 64, 117
1, 293132, Control_c, 0, 64, 118
1, 293134, Note_off_c, 0, 33, 47
1, 293156, Note_on_c, 0, 29, 41
1, 293160, Note_off_c, 0, 36, 37
1, 293182, Note_off_c, 0, 41, 42
1, 293250, Note_off_c, 0, 29, 49
1, 293280, Control_c, 0, 64, 118
1, 293285, Note_on_c, 0, 41, 42
1, 293290, Note_on_c, 0, 33, 29
1, 293299, Note_on_c, 0, 36, 39
1, 293340, Control_c, 0, 64, 119
1, 293355, Control_c, 0, 64, 121
1, 293367, Note_off_c, 0, 36, 48
1, 293370, Control_c, 0, 64, 124
1, 293385, Control_c, 0, 64, 127
1, 293388, Note_off_c, 0, 33, 39
1, 293397, Note_on_c, 0, 29, 49
1, 293401, Note_off_c, 0, 41, 49
1, 293507, Note_off_c, 0, 29, 50
1, 293540, Note_on_c, 0, 33, 36
1, 293557, Note_on_c, 0, 41, 41
1, 293558, Note_on_c, 0, 36, 31
1, 293648, Note_off_c, 0, 33, 38
1, 293648, Note_off_c, 0, 41, 50
1, 293654, Note_on_c, 0, 29, 44
1, 293665, Note_off_c, 0, 36, 36
1, 293796, Note_off_c, 0, 29, 37
1, 293796, Note_on_c, 0, 57, 55
1, 293804, Note_on_c, 0, 41, 30
1, 293811, Note_on_c, 0, 33, 18
1, 293811, Note_on_c, 0, 45, 49
1, 293820, Note_on_c, 0, 36, 15
1, 293887, Note_off_c, 0, 45, 63
1, 293915, Note_on_c, 0, 29, 50
1, 293931, Note_off_c, 0, 36, 36
1, 293940, Note_off_c, 0, 57, 62
1, 293962, Note_off_c, 0, 41, 44
1, 294012, Note_off_c, 0, 33, 0
1, 294020, Note_off_c, 0, 29, 55
1, 294049, Poly_aftertouch_c, 0, 33, 127
1, 294058, Note_on_c, 0, 36, 23
1, 294066, Note_on_c, 0, 41, 37
1, 294077, Note_on_c, 0, 60, 65
1, 294110, Note_off_c, 0, 60, 64
1, 294137, Poly_aftertouch_c, 0, 48, 0
1, 294166, Note_on_c, 0, 29, 47
1, 294172, Note_on_c, 0, 65, 70
1, 294204, Note_on_c, 0, 53, 43
1, 294210, Poly_aftertouch_c, 0, 33, 0
1, 294213, Note_off_c, 0, 36, 41
1, 294224, Note_off_c, 0, 41, 44
1, 294286, Note_off_c, 0, 29, 57
1, 294324, Note_on_c, 0, 36, 44
1, 294328, Note_on_c, 0, 41, 41
1, 294342, Note_on_c, 0, 33, 15
1, 294375, Note_off_c, 0, 53, 57
1, 294406, Note_off_c, 0, 33, 44
1, 294413, Note_off_c, 0, 36, 53
1, 294427, Note_on_c, 0, 29, 50
1, 294480, Note_off_c, 0, 41, 33
1, 294552, Note_off_c, 0, 29, 56
1, 294594, Note_on_c, 0, 69, 58
1, 294596, Note_off_c, 0, 65, 63
1, 294600, Note_on_c, 0, 57, 50
1, 294601, Note_on_c, 0, 36, 37
1, 294616, Note_on_c, 0, 41, 44
1, 294670, Note_off_c, 0, 36, 56
1, 294699, Note_on_c, 0, 29, 46
1, 294717, Note_off_c, 0, 57, 59
1, 294723, Note_off_c, 0, 41, 38
1, 294799, Note_off_c, 0, 69, 63
1, 294821, Note_off_c, 0, 29, 36
1, 294823, Note_on_c, 0, 36, 40
1, 294853, Note_on_c, 0, 41, 39
1, 294853, Note_on_c, 0, 65, 64
1, 294897, Control_c, 0, 64, 125
1, 294899, Note_off_c, 0, 65, 49
1, 294911, Control_c, 0, 64, 110
1, 294917, Note_off_c, 0, 41, 43
1, 294926, Control_c, 0, 64, 99
1, 294941, Note_on_c, 0, 64, 65
1, 294941, Control_c, 0, 64, 87
1, 294953, Note_on_c, 0, 31, 57
1, 294956, Control_c, 0, 64, 72
1, 294970, Note_on_c, 0, 52, 49
1, 294970, Note_off_c, 0, 36, 44
1, 294971, Control_c, 0, 64, 53
1, 294985, Control_c, 0, 64, 0
1, 295060, Note_off_c, 0, 31, 56
1, 295084, Note_on_c, 0, 36, 44
1, 295094, Note_on_c, 0, 43, 46
1, 295105, Control_c, 0, 64, 63
1, 295115, Note_on_c, 0, 34, 35
1, 295120, Control_c, 0, 64, 70
1, 295134, Control_c, 0, 64, 78
1, 295149, Control_c, 0, 64, 88
1, 295161, Note_off_c, 0, 52, 65
1, 295164, Control_c, 0, 64, 93
1, 295179, Note_off_c, 0, 34, 43
1, 295179, Control_c, 0, 64, 94
1, 295196, Note_on_c, 0, 31, 55
1, 295230, Note_off_c, 0, 36, 35
1, 295278, Note_off_c, 0, 43, 40
1, 295364, Note_on_c, 0, 43, 35
1, 295364, Note_on_c, 0, 67, 67
1, 295365, Note_off_c, 0, 31, 35
1, 295367, Note_off_c, 0, 64, 62
1, 295375, Note_on_c, 0, 55, 46
1, 295376, Note_on_c, 0, 34, 30
1, 295397, Note_on_c, 0, 36, 17
1, 295428, Note_off_c, 0, 34, 46
1, 295455, Note_off_c, 0, 36, 51
1, 295481, Note_on_c, 0, 31, 54
1, 295527, Note_off_c, 0, 43, 43
1, 295535, Note_off_c, 0, 55, 63
1, 295557, Note_off_c, 0, 67, 57
1, 295612, Note_on_c, 0, 43, 44
1, 295612, Note_off_c, 0, 31, 52
1, 295632, Note_on_c, 0, 34, 35
1, 295660, Poly_aftertouch_c, 0, 36, 127
1, 295674, Note_off_c, 0, 34, 42
1, 295692, Poly_aftertouch_c, 0, 36, 0
1, 295716, Note_on_c, 0, 52, 47
1, 295716, Note_on_c, 0, 64, 48
1, 295743, Note_off_c, 0, 43, 35
1, 295763, Note_off_c, 0, 52, 52
1, 295838, Control_c, 0, 64, 93
1, 295853, Control_c, 0, 64, 91
1, 295868, Control_c, 0, 64, 88
1, 295883, Control_c, 0, 64, 83
1, 295898, Control_c, 0, 64, 76
1, 295913, Note_on_c, 0, 33, 47
1, 295913, Control_c, 0, 64, 63
1, 295916, Note_on_c, 0, 65, 62
1, 295921, Note_on_c, 0, 53, 47
1, 295926, Note_off_c, 0, 64, 60
1, 295928, Control_c, 0, 64, 0
1, 296083, Control_c, 0, 64, 63
1, 296090, Note_on_c, 0, 45, 39
1, 296098, Control_c, 0, 64, 70
1, 296099, Note_on_c, 0, 36, 36
1, 296101, Note_on_c, 0, 41, 40
1, 296103, Note_off_c, 0, 33, 44
1, 296113, Control_c, 0, 64, 79
1, 296128, Control_c, 0, 64, 85
1, 296132, Note_off_c, 0, 65, 65
1, 296143, Control_c, 0, 64, 88
1, 296157, Note_off_c, 0, 36, 52
1, 296157, Control_c, 0, 64, 88
1, 296172, Control_c, 0, 64, 89
1, 296174, Note_off_c, 0, 53, 66
1, 296187, Control_c, 0, 64, 90
1, 296202, Control_c, 0, 64, 90
1, 296217, Control_c, 0, 64, 91
1, 296223, Note_on_c, 0, 33, 44
1, 296231, Control_c, 0, 64, 91
1, 296243, Note_off_c, 0, 41, 43
1, 296261, Control_c, 0, 64, 92
1, 296272, Note_off_c, 0, 45, 42
1, 296291, Control_c, 0, 64, 92
1, 296357, Note_off_c, 0, 33, 37
1, 296383, Note_on_c, 0, 45, 31
1, 296394, Note_on_c, 0, 41, 26
1, 296398, Note_on_c, 0, 60, 53
1, 296410, Note_on_c, 0, 48, 50
1, 296452, Poly_aftertouch_c, 0, 36, 127
1, 296498, Poly_aftertouch_c, 0, 36, 0
1, 296501, Note_on_c, 0, 33, 43
1, 296525, Note_off_c, 0, 45, 34
1, 296535, Note_off_c, 0, 41, 43
1, 296586, Note_off_c, 0, 33, 48
1, 296629, Note_on_c, 0, 45, 37
1, 296634, Note_on_c, 0, 41, 31
1, 296648, Note_on_c, 0, 36, 23
1, 296703, Note_off_c, 0, 36, 46
1, 296712, Note_off_c, 0, 48, 44
1, 296726, Note_off_c, 0, 45, 36
1, 296748, Note_on_c, 0, 33, 47
1, 296759, Note_off_c, 0, 41, 36
1, 296837, Note_off_c, 0, 33, 57
1, 296878, Note_on_c, 0, 45, 40
1, 296889, Note_on_c, 0, 41, 43
1, 296914, Poly_aftertouch_c, 0, 36, 127
1, 296935, Note_off_c, 0, 45, 45
1, 296962, Poly_aftertouch_c, 0, 36, 0
1, 296965, Note_off_c, 0, 41, 50
1, 296986, Note_on_c, 0, 33, 49
1, 297054, Control_c, 0, 64, 91
1, 297068, Note_off_c, 0, 33, 58
1, 297069, Control_c, 0, 64, 86
1, 297084, Control_c, 0, 64, 78
1, 297098, Control_c, 0, 64, 67
1, 297113, Control_c, 0, 64, 0
1, 297114, Note_off_c, 0, 60, 60
1, 297122, Note_on_c, 0, 62, 57
1, 297126, Note_on_c, 0, 41, 38
1, 297131, Note_on_c, 0, 50, 45
1, 297217, Control_c, 0, 64, 57
1, 297231, Control_c, 0, 64, 66
1, 297246, Control_c, 0, 64, 72
1, 297253, Note_off_c, 0, 41, 55
1, 297260, Note_on_c, 0, 34, 45
1, 297261, Control_c, 0, 64, 77
1, 297276, Control_c, 0, 64, 81
1, 297281, Note_off_c, 0, 50, 63
1, 297291, Control_c, 0, 64, 82
1, 297305, Control_c, 0, 64, 83
1, 297311, Note_off_c, 0, 62, 59
1, 297320, Control_c, 0, 64, 83
1, 297335, Control_c, 0, 64, 84
1, 297350, Control_c, 0, 64, 85
1, 297364, Note_off_c, 0, 34, 55
1, 297365, Control_c, 0, 64, 87
1, 297379, Control_c, 0, 64, 88
1, 297382, Note_on_c, 0, 41, 41
1, 297442, Note_on_c, 0, 58, 59
1, 297507, Control_c, 0, 64, 86
1, 297521, Control_c, 0, 64, 82
1, 297536, Control_c, 0, 64, 75
1, 297551, Note_on_c, 0, 36, 46
1, 297551, Control_c, 0, 64, 64
1, 297563, Note_on_c, 0, 57, 59
1, 297566, Control_c, 0, 64, 0
1, 297569, Note_off_c, 0, 41, 42
1, 297570, Note_off_c, 0, 58, 55
1, 297585, Note_on_c, 0, 45, 42
1, 297699, Control_c, 0, 64, 57
1, 297701, Note_on_c, 0, 41, 47
1, 297714, Control_c, 0, 64, 68
1, 297726, Note_off_c, 0, 36, 40
1, 297728, Control_c, 0, 64, 78
1, 297743, Control_c, 0, 64, 86
1, 297758, Control_c, 0, 64, 89
1, 297761, Note_off_c, 0, 45, 55
1, 297773, Control_c, 0, 64, 90
1, 297787, Note_off_c, 0, 57, 62
1, 297788, Control_c, 0, 64, 90
1, 297843, Note_on_c, 0, 36, 50
1, 297866, Note_off_c, 0, 41, 37
1, 297962, Note_off_c, 0, 36, 54
1, 297963, Note_on_c, 0, 60, 60
1, 297971, Note_on_c, 0, 41, 50
1, 297978, Note_on_c, 0, 48, 44
1, 298085, Note_off_c, 0, 41, 60
1, 298085, Note_off_c, 0, 60, 61
1, 298116, Note_on_c, 0, 36, 50
1, 298141, Note_off_c, 0, 48, 35
1, 298224, Note_on_c, 0, 41, 52
1, 298231, Note_off_c, 0, 36, 36
1, 298236, Note_on_c, 0, 57, 64
1, 298269, Control_c, 0, 64, 89
1, 298284, Control_c, 0, 64, 85
1, 298300, Control_c, 0, 64, 78
1, 298312, Note_off_c, 0, 57, 57
1, 298315, Control_c, 0, 64, 66
1, 298330, Control_c, 0, 64, 0
1, 298332, Note_on_c, 0, 55, 61
1, 298345, Note_on_c, 0, 36, 41
1, 298360, Note_on_c, 0, 43, 51
1, 298374, Note_off_c, 0, 41, 42
1, 298448, Control_c, 0, 64, 59
1, 298463, Control_c, 0, 64, 68
1, 298477, Control_c, 0, 64, 76
1, 298490, Note_on_c, 0, 40, 53
1, 298492, Control_c, 0, 64, 84
1, 298507, Control_c, 0, 64, 87
1, 298509, Note_off_c, 0, 36, 37
1, 298522, Control_c, 0, 64, 89
1, 298524, Note_off_c, 0, 43, 61
1, 298559, Note_off_c, 0, 55, 65
1, 298599, Note_off_c, 0, 40, 59
1, 298611, Control_c, 0, 64, 89
1, 298633, Note_on_c, 0, 36, 43
1, 298729, Note_off_c, 0, 36, 55
1, 298744, Note_on_c, 0, 60, 56
1, 298750, Note_on_c, 0, 40, 49
1, 298761, Note_on_c, 0, 48, 47
1, 298842, Note_off_c, 0, 40, 57
1, 298858, Note_off_c, 0, 48, 62
1, 298886, Note_on_c, 0, 36, 48
1, 299008, Note_on_c, 0, 40, 46
1, 299046, Note_off_c, 0, 40, 54
1, 299054, Note_off_c, 0, 36, 33
1, 299101, Note_on_c, 0, 58, 60
1, 299105, Note_on_c, 0, 46, 54
1, 299197, Control_c, 0, 64, 89
1, 299212, Note_off_c, 0, 46, 56
1, 299271, Control_c, 0, 64, 88
1, 299286, Control_c, 0, 64, 86
1, 299300, Control_c, 0, 64, 82
1, 299315, Control_c, 0, 64, 75
1, 299324, Note_on_c, 0, 57, 60
1, 299330, Control_c, 0, 64, 66
1, 299345, Control_c, 0, 64, 32
1, 299346, Note_on_c, 0, 41, 48
1, 299360, Control_c, 0, 64, 0
1, 299369, Note_off_c, 0, 60, 54
1, 299378, Note_off_c, 0, 58, 60
1, 299567, Control_c, 0, 64, 54
1, 299576, Note_on_c, 0, 53, 43
1, 299579, Note_on_c, 0, 45, 32
1, 299581, Note_on_c, 0, 48, 32
1, 299582, Control_c, 0, 64, 67
1, 299597, Control_c, 0, 64, 75
1, 299612, Control_c, 0, 64, 83
1, 299618, Note_off_c, 0, 41, 42
1, 299626, Control_c, 0, 64, 88
1, 299641, Control_c, 0, 64, 91
1, 299656, Control_c, 0, 64, 92
1, 299661, Note_off_c, 0, 45, 41
1, 299669, Note_off_c, 0, 48, 36
1, 299671, Control_c, 0, 64, 93
1, 299686, Control_c, 0, 64, 94
1, 299694, Note_off_c, 0, 53, 34
1, 299700, Note_on_c, 0, 41, 38
1, 299700, Control_c, 0, 64, 95
1, 299722, Control_c, 0, 64, 96
1, 299737, Control_c, 0, 64, 96
1, 299752, Control_c, 0, 64, 97
1, 299767, Control_c, 0, 64, 98
1, 299782, Control_c, 0, 64, 98
1, 299813, Note_off_c, 0, 41, 58
1, 299841, Control_c, 0, 64, 99
1, 299847, Note_on_c, 0, 60, 56
1, 299856, Note_on_c, 0, 53, 43
1, 299871, Control_c, 0, 64, 99
1, 299880, Note_on_c, 0, 48, 24
1, 299886, Control_c, 0, 64, 100
1, 299895, Note_on_c, 0, 45, 7
1, 299901, Control_c, 0, 64, 100
1, 299916, Control_c, 0, 64, 101
1, 299931, Control_c, 0, 64, 102
1, 299942, Note_off_c, 0, 45, 49
1, 299946, Control_c, 0, 64, 102
1, 299961, Note_off_c, 0, 48, 37
1, 299961, Control_c, 0, 64, 103
1, 299962, Note_on_c, 0, 41, 48
1, 299975, Control_c, 0, 64, 104
1, 299990, Control_c, 0, 64, 105
1, 299999, Note_off_c, 0, 53, 36
1, 300005, Control_c, 0, 64, 105
1, 300020, Control_c, 0, 64, 106
1, 300035, Control_c, 0, 64, 107
1, 300049, Control_c, 0, 64, 108
1, 300064, Control_c, 0, 64, 109
1, 300065, Note_off_c, 0, 41, 59
1, 300079, Control_c, 0, 64, 110
1, 300094, Control_c, 0, 64, 110
1, 300104, Note_on_c, 0, 48, 43
1, 300107, Note_on_c, 0, 53, 51
1, 300109, Control_c, 0, 64, 111
1, 300123, Control_c, 0, 64, 112
1, 300127, Note_on_c, 0, 45, 25
1, 300136, Note_off_c, 0, 60, 57
1, 300138, Control_c, 0, 64, 114
1, 300153, Control_c, 0, 64, 115
1, 300155, Note_off_c, 0, 57, 57
1, 300168, Control_c, 0, 64, 117
1, 300183, Control_c, 0, 64, 120
1, 300186, Note_off_c, 0, 45, 44
1, 300188, Note_off_c, 0, 48, 50
1, 300197, Control_c, 0, 64, 122
1, 300212, Control_c, 0, 64, 124
1, 300215, Note_on_c, 0, 41, 54
1, 300227, Control_c, 0, 64, 127
1, 300249, Note_off_c, 0, 53, 36
1, 300321, Note_off_c, 0, 41, 59
1, 300342, Note_on_c, 0, 53, 44
1, 300345, Note_on_c, 0, 48, 46
1, 300360, Note_on_c, 0, 45, 32
1, 300427, Note_off_c, 0, 45, 53
1, 300452, Note_off_c, 0, 48, 50
1, 300460, Note_on_c, 0, 41, 51
1, 300484, Note_off_c, 0, 53, 56
1, 300573, Note_on_c, 0, 69, 74
1, 300578, Note_on_c, 0, 57, 63
1, 300591, Note_off_c, 0, 41, 58
1, 300601, Note_on_c, 0, 45, 38
1, 300605, Note_on_c, 0, 53, 51
1, 300610, Note_on_c, 0, 48, 47
1, 300665, Note_off_c, 0, 45, 53
1, 300669, Note_off_c, 0, 57, 61
1, 300707, Note_off_c, 0, 48, 50
1, 300716, Note_on_c, 0, 41, 62
1, 300725, Note_off_c, 0, 53, 51
1, 300738, Note_off_c, 0, 69, 65
1, 300844, Note_on_c, 0, 72, 74
1, 300846, Note_on_c, 0, 45, 41
1, 300847, Note_on_c, 0, 60, 43
1, 300855, Note_on_c, 0, 53, 53
1, 300856, Note_on_c, 0, 48, 49
1, 300864, Note_off_c, 0, 41, 35
1, 300876, Note_off_c, 0, 60, 49
1, 300900, Note_off_c, 0, 72, 64
1, 300916, Note_off_c, 0, 45, 50
1, 300945, Note_on_c, 0, 41, 68
1, 300946, Note_on_c, 0, 77, 90
1, 300959, Note_on_c, 0, 65, 68
1, 300964, Note_off_c, 0, 53, 59
1, 300987, Note_off_c, 0, 48, 35
1, 301072, Note_off_c, 0, 41, 55
1, 301086, Note_on_c, 0, 45, 49
1, 301090, Note_on_c, 0, 53, 60
1, 301091, Note_on_c, 0, 48, 62
1, 301133, Note_off_c, 0, 65, 61
1, 301180, Note_off_c, 0, 45, 59
1, 301199, Note_on_c, 0, 41, 66
1, 301221, Note_off_c, 0, 48, 62
1, 301231, Note_off_c, 0, 53, 62
1, 301329, Note_on_c, 0, 81, 87
1, 301335, Note_on_c, 0, 69, 74
1, 301344, Note_on_c, 0, 48, 63
1, 301345, Note_off_c, 0, 41, 61
1, 301348, Note_on_c, 0, 53, 65
1, 301353, Note_on_c, 0, 45, 50
1, 301370, Note_off_c, 0, 77, 57
1, 301394, Note_off_c, 0, 45, 57
1, 301428, Note_off_c, 0, 48, 58
1, 301452, Note_on_c, 0, 41, 76
1, 301459, Note_off_c, 0, 69, 58
1, 301482, Note_off_c, 0, 53, 30
1, 301541, Note_off_c, 0, 81, 60
1, 301558, Note_off_c, 0, 41, 60
1, 301584, Note_on_c, 0, 48, 55
1, 301591, Note_on_c, 0, 53, 60
1, 301594, Note_on_c, 0, 77, 82
1, 301651, Note_off_c, 0, 77, 53
1, 301660, Note_off_c, 0, 53, 62
1, 301671, Note_off_c, 0, 48, 60
1, 301680, Control_c, 0, 64, 119
1, 301686, Note_on_c, 0, 76, 87
1, 301689, Note_on_c, 0, 64, 83
1, 301695, Control_c, 0, 64, 99
1, 301695, Note_on_c, 0, 43, 75
1, 301710, Control_c, 0, 64, 80
1, 301725, Control_c, 0, 64, 57
1, 301740, Control_c, 0, 64, 0
1, 301827, Note_on_c, 0, 55, 64
1, 301828, Note_on_c, 0, 48, 58
1, 301832, Note_off_c, 0, 43, 59
1, 301839, Note_on_c, 0, 46, 59
1, 301843, Control_c, 0, 64, 61
1, 301858, Control_c, 0, 64, 73
1, 301873, Control_c, 0, 64, 85
1, 301887, Control_c, 0, 64, 96
1, 301902, Control_c, 0, 64, 100
1, 301915, Note_off_c, 0, 64, 62
1, 301917, Control_c, 0, 64, 101
1, 301932, Control_c, 0, 64, 102
1, 301940, Note_off_c, 0, 48, 60
1, 301942, Note_off_c, 0, 46, 47
1, 301947, Note_on_c, 0, 43, 73
1, 301947, Control_c, 0, 64, 103
1, 301969, Control_c, 0, 64, 104
1, 301984, Note_off_c, 0, 55, 59
1, 301984, Control_c, 0, 64, 104
1, 301999, Control_c, 0, 64, 105
1, 302014, Control_c, 0, 64, 106
1, 302028, Control_c, 0, 64, 108
1, 302043, Control_c, 0, 64, 109
1, 302058, Control_c, 0, 64, 110
1, 302073, Control_c, 0, 64, 111
1, 302088, Control_c, 0, 64, 111
1, 302117, Control_c, 0, 64, 112
1, 302124, Note_off_c, 0, 43, 55
1, 302125, Note_on_c, 0, 55, 56
1, 302125, Note_on_c, 0, 79, 83
1, 302131, Note_on_c, 0, 48, 57
1, 302131, Note_off_c, 0, 76, 63
1, 302132, Note_on_c, 0, 46, 48
1, 302139, Note_on_c, 0, 67, 68
1, 302202, Note_off_c, 0, 46, 48
1, 302217, Note_off_c, 0, 48, 59
1, 302220, Control_c, 0, 64, 112
1, 302268, Note_on_c, 0, 43, 62
1, 302311, Note_off_c, 0, 79, 59
1, 302327, Note_off_c, 0, 55, 36
1, 302335, Note_off_c, 0, 67, 58
1, 302370, Control_c, 0, 64, 113
1, 302446, Note_off_c, 0, 43, 57
1, 302447, Note_on_c, 0, 55, 52
1, 302449, Note_on_c, 0, 46, 54
1, 302459, Note_on_c, 0, 48, 35
1, 302480, Note_off_c, 0, 46, 63
1, 302489, Note_off_c, 0, 55, 62
1, 302491, Note_off_c, 0, 48, 55
1, 302512, Note_on_c, 0, 76, 70
1, 302521, Note_on_c, 0, 64, 60
1, 302602, Note_off_c, 0, 64, 52
1, 302681, Control_c, 0, 64, 112
1, 302691, Note_off_c, 0, 76, 54
1, 302777, Control_c, 0, 64, 112
1, 302807, Control_c, 0, 64, 111
1, 302822, Control_c, 0, 64, 109
1, 302837, Control_c, 0, 64, 105
1, 302851, Control_c, 0, 64, 99
1, 302866, Control_c, 0, 64, 91
1, 302881, Control_c, 0, 64, 80
1, 302896, Control_c, 0, 64, 65
1, 302911, Control_c, 0, 64, 0
1, 302959, Note_on_c, 0, 77, 58
1, 302974, Note_on_c, 0, 57, 36
1, 302975, Note_on_c, 0, 65, 43
1, 302980, Note_on_c, 0, 53, 36
1, 302980, Note_on_c, 0, 48, 27
1, 302998, Note_on_c, 0, 45, 34
1, 303163, Control_c, 0, 64, 54
1, 303178, Control_c, 0, 64, 71
1, 303193, Control_c, 0, 64, 80
1, 303207, Control_c, 0, 64, 86
1, 303222, Control_c, 0, 64, 89
1, 303231, Note_off_c, 0, 77, 62
1, 303237, Control_c, 0, 64, 92
1, 303252, Control_c, 0, 64, 95
1, 303263, Note_off_c, 0, 65, 65
1, 303266, Control_c, 0, 64, 97
1, 303281, Control_c, 0, 64, 99
1, 303296, Control_c, 0, 64, 101
1, 303311, Control_c, 0, 64, 102
1, 303326, Control_c, 0, 64, 103
1, 303341, Control_c, 0, 64, 103
1, 303356, Control_c, 0, 64, 104
1, 303371, Control_c, 0, 64, 105
1, 303385, Control_c, 0, 64, 106
1, 303400, Control_c, 0, 64, 107
1, 303415, Control_c, 0, 64, 107
1, 303430, Control_c, 0, 64, 108
1, 303466, Control_c, 0, 64, 108
1, 303526, Control_c, 0, 64, 109
1, 303555, Control_c, 0, 64, 109
1, 303642, Note_on_c, 0, 72, 43
1, 303648, Note_on_c, 0, 60, 39
1, 303823, Control_c, 0, 64, 110
1, 303962, Note_off_c, 0, 57, 0
1, 304010, Poly_aftertouch_c, 0, 57, 0
1, 304477, Note_off_c, 0, 45, 42
1, 304542, Note_off_c, 0, 48, 40
1, 304555, Note_off_c, 0, 60, 54
1, 304571, Control_c, 0, 64, 110
1, 304586, Control_c, 0, 64, 111
1, 304601, Control_c, 0, 64, 112
1, 304615, Control_c, 0, 64, 113
1, 304630, Control_c, 0, 64, 114
1, 304645, Control_c, 0, 64, 115
1, 304660, Control_c, 0, 64, 116
1, 304675, Control_c, 0, 64, 117
1, 304691, Control_c, 0, 64, 118
1, 304706, Control_c, 0, 64, 119
1, 304711, Note_off_c, 0, 72, 34
1, 304720, Control_c, 0, 64, 119
1, 304765, Control_c, 0, 64, 120
1, 304780, Control_c, 0, 64, 120
1, 304794, Control_c, 0, 64, 121
1, 304809, Note_off_c, 0, 53, 38
1, 304809, Control_c, 0, 64, 121
1, 304824, Control_c, 0, 64, 122
1, 304838, Control_c, 0, 64, 122
1, 304853, Control_c, 0, 64, 123
1, 304868, Control_c, 0, 64, 125
1, 304883, Control_c, 0, 64, 127
1, 305024, Control_c, 0, 64, 125
1, 305038, Control_c, 0, 64, 106
1, 305052, Note_on_c, 0, 73, 88
1, 305053, Control_c, 0, 64, 89
1, 305055, Note_on_c, 0, 53, 86
1, 305055, Note_on_c, 0, 61, 88
1, 305061, Note_on_c, 0, 49, 76
1, 305065, Note_on_c, 0, 46, 75
1, 305068, Control_c, 0, 64, 72
1, 305083, Control_c, 0, 64, 0
1, 305201, Control_c, 0, 64, 68
1, 305216, Control_c, 0, 64, 78
1, 305231, Control_c, 0, 64, 89
1, 305246, Control_c, 0, 64, 95
1, 305261, Control_c, 0, 64, 97
1, 305275, Control_c, 0, 64, 99
1, 305290, Control_c, 0, 64, 103
1, 305305, Control_c, 0, 64, 107
1, 305320, Control_c, 0, 64, 111
1, 305335, Control_c, 0, 64, 112
1, 305350, Control_c, 0, 64, 113
1, 305364, Control_c, 0, 64, 113
1, 305379, Control_c, 0, 64, 114
1, 305394, Control_c, 0, 64, 114
1, 305415, Note_off_c, 0, 61, 62
1, 305424, Control_c, 0, 64, 115
1, 305453, Control_c, 0, 64, 115
1, 305468, Control_c, 0, 64, 116
1, 305484, Control_c, 0, 64, 117
1, 305529, Control_c, 0, 64, 117
1, 305558, Control_c, 0, 64, 118
1, 305573, Control_c, 0, 64, 119
1, 305609, Note_off_c, 0, 73, 60
1, 305617, Control_c, 0, 64, 118
1, 305632, Control_c, 0, 64, 117
1, 305647, Control_c, 0, 64, 109
1, 305661, Note_on_c, 0, 54, 92
1, 305661, Note_on_c, 0, 70, 94
1, 305661, Control_c, 0, 64, 97
1, 305668, Note_on_c, 0, 58, 82
1, 305675, Note_off_c, 0, 53, 67
1, 305676, Control_c, 0, 64, 84
1, 305691, Control_c, 0, 64, 69
1, 305714, Control_c, 0, 64, 0
1, 305935, Control_c, 0, 64, 18
1, 305950, Control_c, 0, 64, 29
1, 305965, Control_c, 0, 64, 40
1, 305979, Control_c, 0, 64, 50
1, 305994, Control_c, 0, 64, 57
1, 306009, Control_c, 0, 64, 61
1, 306024, Control_c, 0, 64, 62
1, 306039, Control_c, 0, 64, 63
1, 306053, Control_c, 0, 64, 64
1, 306068, Control_c, 0, 64, 67
1, 306083, Control_c, 0, 64, 70
1, 306098, Control_c, 0, 64, 73
1, 306113, Control_c, 0, 64, 76
1, 306128, Control_c, 0, 64, 78
1, 306143, Control_c, 0, 64, 79
1, 306158, Control_c, 0, 64, 82
1, 306173, Control_c, 0, 64, 84
1, 306187, Control_c, 0, 64, 87
1, 306202, Control_c, 0, 64, 89
1, 306217, Control_c, 0, 64, 90
1, 306232, Control_c, 0, 64, 91
1, 306244, Note_off_c, 0, 58, 59
1, 306247, Control_c, 0, 64, 92
1, 306261, Control_c, 0, 64, 93
1, 306276, Control_c, 0, 64, 94
1, 306292, Control_c, 0, 64, 95
1, 306307, Control_c, 0, 64, 96
1, 306322, Control_c, 0, 64, 97
1, 306337, Control_c, 0, 64, 98
1, 306352, Control_c, 0, 64, 98
1, 306366, Control_c, 0, 64, 99
1, 306381, Control_c, 0, 64, 99
1, 306386, Note_off_c, 0, 46, 49
1, 306396, Control_c, 0, 64, 100
1, 306406, Poly_aftertouch_c, 0, 51, 127
1, 306425, Control_c, 0, 64, 100
1, 306440, Control_c, 0, 64, 101
1, 306459, Note_off_c, 0, 54, 50
1, 306462, Control_c, 0, 64, 101
1, 306477, Control_c, 0, 64, 102
1, 306492, Control_c, 0, 64, 102
1, 306521, Note_off_c, 0, 49, 48
1, 306521, Control_c, 0, 64, 103
1, 306566, Poly_aftertouch_c, 0, 51, 0
1, 306566, Control_c, 0, 64, 103
1, 306592, Note_off_c, 0, 70, 52
1, 306596, Control_c, 0, 64, 104
1, 306714, Control_c, 0, 64, 104
1, 307175, Control_c, 0, 64, 104
1, 307330, Control_c, 0, 64, 103
1, 307345, Control_c, 0, 64, 101
1, 307360, Control_c, 0, 64, 98
1, 307375, Control_c, 0, 64, 95
1, 307377, Note_on_c, 0, 68, 56
1, 307389, Control_c, 0, 64, 90
1, 307392, Note_on_c, 0, 48, 37
1, 307393, Note_on_c, 0, 53, 36
1, 307397, Note_on_c, 0, 56, 29
1, 307404, Control_c, 0, 64, 85
1, 307419, Control_c, 0, 64, 80
1, 307434, Control_c, 0, 64, 73
1, 307449, Control_c, 0, 64, 67
1, 307463, Control_c, 0, 64, 61
1, 307478, Control_c, 0, 64, 58
1, 307493, Control_c, 0, 64, 57
1, 307508, Control_c, 0, 64, 56
1, 307523, Control_c, 0, 64, 53
1, 307538, Control_c, 0, 64, 48
1, 307553, Control_c, 0, 64, 45
1, 307567, Control_c, 0, 64, 46
1, 307582, Control_c, 0, 64, 47
1, 307597, Control_c, 0, 64, 48
1, 307656, Control_c, 0, 64, 49
1, 307671, Control_c, 0, 64, 51
1, 307686, Control_c, 0, 64, 53
1, 307701, Control_c, 0, 64, 55
1, 307715, Control_c, 0, 64, 56
1, 307730, Control_c, 0, 64, 57
1, 307745, Control_c, 0, 64, 58
1, 307774, Control_c, 0, 64, 58
1, 307789, Control_c, 0, 64, 59
1, 307804, Control_c, 0, 64, 60
1, 307819, Control_c, 0, 64, 62
1, 307833, Control_c, 0, 64, 62
1, 307863, Control_c, 0, 64, 63
1, 307894, Control_c, 0, 64, 63
1, 307909, Control_c, 0, 64, 64
1, 307924, Control_c, 0, 64, 64
1, 307938, Control_c, 0, 64, 65
1, 307961, Control_c, 0, 64, 65
1, 307976, Control_c, 0, 64, 66
1, 308005, Control_c, 0, 64, 66
1, 308020, Control_c, 0, 64, 67
1, 308035, Control_c, 0, 64, 68
1, 308050, Control_c, 0, 64, 69
1, 308064, Control_c, 0, 64, 70
1, 308079, Control_c, 0, 64, 70
1, 308094, Control_c, 0, 64, 71
1, 308109, Control_c, 0, 64, 72
1, 308124, Control_c, 0, 64, 72
1, 308138, Control_c, 0, 64, 73
1, 308153, Control_c, 0, 64, 75
1, 308168, Control_c, 0, 64, 76
1, 308182, Control_c, 0, 64, 78
1, 308197, Control_c, 0, 64, 79
1, 308212, Control_c, 0, 64, 80
1, 308227, Control_c, 0, 64, 80
1, 308242, Control_c, 0, 64, 82
1, 308256, Control_c, 0, 64, 83
1, 308271, Control_c, 0, 64, 85
1, 308286, Control_c, 0, 64, 86
1, 308301, Control_c, 0, 64, 87
1, 308316, Control_c, 0, 64, 88
1, 308331, Control_c, 0, 64, 89
1, 308346, Control_c, 0, 64, 90
1, 308361, Control_c, 0, 64, 92
1, 308376, Control_c, 0, 64, 93
1, 308390, Control_c, 0, 64, 94
1, 308405, Control_c, 0, 64, 94
1, 308420, Control_c, 0, 64, 95
1, 308435, Control_c, 0, 64, 95
1, 308450, Control_c, 0, 64, 96
1, 308464, Control_c, 0, 64, 97
1, 308494, Control_c, 0, 64, 97
1, 308538, Control_c, 0, 64, 98
1, 308592, Note_off_c, 0, 56, 42
1, 308593, Note_off_c, 0, 48, 41
1, 308642, Control_c, 0, 64, 98
1, 308653, Note_on_c, 0, 67, 48
1, 308689, Note_off_c, 0, 53, 42
1, 308761, Note_off_c, 0, 68, 39
1, 309003, Note_on_c, 0, 65, 52
1, 309025, Note_off_c, 0, 67, 61
1, 309138, Control_c, 0, 64, 98
1, 309152, Control_c, 0, 64, 97
1, 309167, Control_c, 0, 64, 95
1, 309182, Control_c, 0, 64, 93
1, 309197, Control_c, 0, 64, 90
1, 309211, Control_c, 0, 64, 84
1, 309226, Control_c, 0, 64, 78
1, 309234, Note_on_c, 0, 66, 54
1, 309238, Note_on_c, 0, 48, 40
1, 309240, Note_off_c, 0, 65, 59
1, 309241, Note_on_c, 0, 52, 46
1, 309241, Control_c, 0, 64, 70
1, 309242, Note_on_c, 0, 58, 39
1, 309256, Control_c, 0, 64, 64
1, 309271, Control_c, 0, 64, 55
1, 309285, Control_c, 0, 64, 51
1, 309300, Control_c, 0, 64, 44
1, 309315, Control_c, 0, 64, 24
1, 309329, Control_c, 0, 64, 0
1, 309405, Note_off_c, 0, 66, 64
1, 309427, Note_on_c, 0, 67, 49
1, 309456, Control_c, 0, 64, 56
1, 309471, Control_c, 0, 64, 66
1, 309487, Control_c, 0, 64, 72
1, 309502, Control_c, 0, 64, 79
1, 309516, Control_c, 0, 64, 83
1, 309519, Note_off_c, 0, 67, 57
1, 309531, Control_c, 0, 64, 85
1, 309546, Control_c, 0, 64, 86
1, 309554, Note_on_c, 0, 68, 49
1, 309561, Control_c, 0, 64, 88
1, 309575, Control_c, 0, 64, 90
1, 309590, Control_c, 0, 64, 91
1, 309605, Control_c, 0, 64, 92
1, 309610, Note_off_c, 0, 68, 62
1, 309620, Control_c, 0, 64, 92
1, 309634, Control_c, 0, 64, 93
1, 309643, Note_on_c, 0, 67, 54
1, 309649, Control_c, 0, 64, 93
1, 309664, Control_c, 0, 64, 94
1, 309679, Control_c, 0, 64, 94
1, 309687, Note_off_c, 0, 67, 63
1, 309694, Control_c, 0, 64, 95
1, 309723, Control_c, 0, 64, 95
1, 309728, Note_on_c, 0, 68, 48
1, 309738, Control_c, 0, 64, 96
1, 309749, Note_off_c, 0, 68, 61
1, 309768, Control_c, 0, 64, 96
1, 309783, Control_c, 0, 64, 97
1, 309792, Note_on_c, 0, 67, 50
1, 309797, Control_c, 0, 64, 97
1, 309812, Note_off_c, 0, 67, 61
1, 309827, Control_c, 0, 64, 98
1, 309829, Note_on_c, 0, 68, 62
1, 309857, Control_c, 0, 64, 98
1, 309870, Note_off_c, 0, 68, 62
1, 309894, Note_on_c, 0, 67, 60
1, 309901, Control_c, 0, 64, 99
1, 309928, Note_off_c, 0, 67, 64
1, 309931, Control_c, 0, 64, 99
1, 309960, Control_c, 0, 64, 100
1, 309973, Note_on_c, 0, 68, 47
1, 309990, Control_c, 0, 64, 100
1, 309993, Note_off_c, 0, 68, 61
1, 310009, Note_on_c, 0, 67, 67
1, 310020, Control_c, 0, 64, 101
1, 310047, Note_off_c, 0, 67, 62
1, 310061, Note_on_c, 0, 68, 67
1, 310064, Control_c, 0, 64, 101
1, 310079, Control_c, 0, 64, 102
1, 310094, Note_off_c, 0, 68, 66
1, 310108, Control_c, 0, 64, 102
1, 310123, Control_c, 0, 64, 103
1, 310131, Note_on_c, 0, 67, 64
1, 310152, Control_c, 0, 64, 103
1, 310154, Note_off_c, 0, 67, 63
1, 310167, Control_c, 0, 64, 104
1, 310179, Note_on_c, 0, 68, 61
1, 310203, Note_off_c, 0, 68, 67
1, 310204, Note_off_c, 0, 48, 41
1, 310205, Control_c, 0, 64, 104
1, 310206, Note_off_c, 0, 58, 50
1, 310220, Control_c, 0, 64, 105
1, 310233, Note_on_c, 0, 67, 65
1, 310249, Control_c, 0, 64, 105
1, 310250, Note_off_c, 0, 52, 64
1, 310264, Control_c, 0, 64, 106
1, 310266, Note_off_c, 0, 67, 55
1, 310280, Note_on_c, 0, 68, 69
1, 310295, Control_c, 0, 64, 106
1, 310310, Control_c, 0, 64, 107
1, 310324, Note_off_c, 0, 68, 61
1, 310339, Control_c, 0, 64, 107
1, 310348, Note_on_c, 0, 67, 63
1, 310373, Note_off_c, 0, 67, 66
1, 310383, Control_c, 0, 64, 108
1, 310396, Note_on_c, 0, 68, 56
1, 310413, Control_c, 0, 64, 108
1, 310421, Note_off_c, 0, 68, 62
1, 310447, Note_on_c, 0, 67, 55
1, 310466, Note_off_c, 0, 67, 64
1, 310472, Control_c, 0, 64, 109
1, 310491, Note_on_c, 0, 68, 69
1, 310519, Note_off_c, 0, 68, 64
1, 310535, Note_on_c, 0, 67, 70
1, 310576, Control_c, 0, 64, 109
1, 310580, Note_off_c, 0, 67, 60
1, 310593, Note_on_c, 0, 68, 72
1, 310620, Note_off_c, 0, 68, 69
1, 310632, Note_on_c, 0, 67, 47
1, 310636, Control_c, 0, 64, 110
1, 310656, Note_off_c, 0, 67, 59
1, 310665, Control_c, 0, 64, 110
1, 310678, Note_on_c, 0, 68, 71
1, 310680, Control_c, 0, 64, 111
1, 310695, Control_c, 0, 64, 111
1, 310710, Control_c, 0, 64, 112
1, 310719, Note_off_c, 0, 68, 57
1, 310725, Control_c, 0, 64, 113
1, 310731, Note_on_c, 0, 67, 68
1, 310739, Control_c, 0, 64, 114
1, 310754, Control_c, 0, 64, 115
1, 310768, Note_off_c, 0, 67, 56
1, 310769, Control_c, 0, 64, 118
1, 310784, Control_c, 0, 64, 120
1, 310786, Note_on_c, 0, 68, 60
1, 310799, Control_c, 0, 64, 123
1, 310814, Control_c, 0, 64, 126
1, 310817, Note_off_c, 0, 68, 66
1, 310823, Note_on_c, 0, 67, 47
1, 310829, Control_c, 0, 64, 127
1, 310860, Note_off_c, 0, 67, 63
1, 310865, Note_on_c, 0, 68, 79
1, 310873, Control_c, 0, 64, 115
1, 310884, Note_off_c, 0, 68, 72
1, 310888, Control_c, 0, 64, 100
1, 310903, Control_c, 0, 64, 85
1, 310918, Control_c, 0, 64, 69
1, 310923, Note_on_c, 0, 73, 69
1, 310932, Control_c, 0, 64, 0
1, 310996, Note_off_c, 0, 73, 63
1, 310999, Control_c, 0, 64, 38
1, 311005, Note_on_c, 0, 72, 72
1, 311014, Control_c, 0, 64, 67
1, 311029, Control_c, 0, 64, 79
1, 311044, Control_c, 0, 64, 90
1, 311044, Note_off_c, 0, 72, 60
1, 311058, Control_c, 0, 64, 97
1, 311058, Note_on_c, 0, 73, 63
1, 311073, Control_c, 0, 64, 98
1, 311088, Control_c, 0, 64, 100
1, 311103, Note_off_c, 0, 73, 62
1, 311103, Control_c, 0, 64, 103
1, 311118, Control_c, 0, 64, 106
1, 311127, Note_on_c, 0, 72, 70
1, 311133, Control_c, 0, 64, 109
1, 311148, Control_c, 0, 64, 110
1, 311157, Note_off_c, 0, 72, 66
1, 311163, Control_c, 0, 64, 111
1, 311167, Note_on_c, 0, 73, 70
1, 311193, Control_c, 0, 64, 112
1, 311206, Note_off_c, 0, 73, 59
1, 311222, Control_c, 0, 64, 112
1, 311231, Note_on_c, 0, 72, 74
1, 311237, Control_c, 0, 64, 113
1, 311263, Note_off_c, 0, 72, 59
1, 311280, Control_c, 0, 64, 113
1, 311283, Note_on_c, 0, 73, 65
1, 311295, Control_c, 0, 64, 114
1, 311313, Note_off_c, 0, 73, 67
1, 311336, Note_on_c, 0, 72, 57
1, 311354, Note_off_c, 0, 72, 62
1, 311371, Note_on_c, 0, 73, 68
1, 311407, Note_off_c, 0, 73, 63
1, 311422, Note_on_c, 0, 72, 74
1, 311461, Note_off_c, 0, 72, 58
1, 311474, Note_on_c, 0, 73, 71
1, 311502, Note_off_c, 0, 73, 65
1, 311529, Note_on_c, 0, 72, 50
1, 311547, Note_off_c, 0, 72, 62
1, 311571, Note_on_c, 0, 73, 69
1, 311604, Note_off_c, 0, 73, 62
1, 311622, Note_on_c, 0, 72, 58
1, 311641, Note_off_c, 0, 72, 63
1, 311662, Note_on_c, 0, 73, 70
1, 311690, Note_off_c, 0, 73, 66
1, 311728, Note_on_c, 0, 72, 50
1, 311750, Note_off_c, 0, 72, 61
1, 311756, Note_on_c, 0, 73, 68
1, 311777, Control_c, 0, 64, 114
1, 311789, Note_off_c, 0, 73, 65
1, 311792, Note_on_c, 0, 72, 65
1, 311825, Note_off_c, 0, 72, 67
1, 311845, Note_on_c, 0, 73, 70
1, 311851, Control_c, 0, 64, 115
1, 311866, Control_c, 0, 64, 115
1, 311870, Note_off_c, 0, 73, 67
1, 311881, Control_c, 0, 64, 116
1, 311896, Note_on_c, 0, 72, 66
1, 311896, Control_c, 0, 64, 117
1, 311911, Control_c, 0, 64, 118
1, 311914, Note_off_c, 0, 72, 61
1, 311926, Control_c, 0, 64, 118
1, 311932, Note_on_c, 0, 73, 77
1, 311941, Control_c, 0, 64, 119
1, 311956, Control_c, 0, 64, 120
1, 311971, Control_c, 0, 64, 121
1, 311975, Note_off_c, 0, 73, 63
1, 311976, Note_on_c, 0, 72, 75
1, 311985, Control_c, 0, 64, 122
1, 312000, Control_c, 0, 64, 123
1, 312015, Control_c, 0, 64, 124
1, 312018, Note_off_c, 0, 72, 58
1, 312024, Note_on_c, 0, 73, 72
1, 312029, Control_c, 0, 64, 126
1, 312044, Control_c, 0, 64, 127
1, 312072, Note_off_c, 0, 73, 64
1, 312076, Note_on_c, 0, 72, 68
1, 312112, Note_off_c, 0, 72, 61
1, 312119, Note_on_c, 0, 73, 72
1, 312167, Note_off_c, 0, 73, 65
1, 312175, Note_on_c, 0, 72, 63
1, 312197, Note_off_c, 0, 72, 63
1, 312214, Note_on_c, 0, 73, 64
1, 312256, Note_off_c, 0, 73, 63
1, 312268, Note_on_c, 0, 72, 72
1, 312316, Note_on_c, 0, 73, 85
1, 312319, Note_off_c, 0, 72, 63
1, 312343, Note_off_c, 0, 73, 65
1, 312375, Note_on_c, 0, 71, 71
1, 312400, Control_c, 0, 64, 110
1, 312415, Control_c, 0, 64, 90
1, 312419, Note_off_c, 0, 71, 63
1, 312429, Control_c, 0, 64, 70
1, 312431, Note_on_c, 0, 72, 70
1, 312451, Control_c, 0, 64, 0
1, 312495, Note_on_c, 0, 85, 76
1, 312498, Note_off_c, 0, 72, 64
1, 312555, Control_c, 0, 64, 13
1, 312570, Control_c, 0, 64, 68
1, 312573, Note_off_c, 0, 85, 63
1, 312585, Control_c, 0, 64, 74
1, 312592, Note_on_c, 0, 84, 81
1, 312600, Control_c, 0, 64, 77
1, 312614, Control_c, 0, 64, 78
1, 312629, Control_c, 0, 64, 80
1, 312633, Note_off_c, 0, 84, 63
1, 312644, Control_c, 0, 64, 85
1, 312647, Note_on_c, 0, 85, 72
1, 312659, Control_c, 0, 64, 92
1, 312674, Control_c, 0, 64, 96
1, 312683, Note_off_c, 0, 85, 64
1, 312689, Control_c, 0, 64, 97
1, 312701, Note_on_c, 0, 84, 74
1, 312704, Control_c, 0, 64, 98
1, 312719, Control_c, 0, 64, 99
1, 312734, Control_c, 0, 64, 101
1, 312737, Note_off_c, 0, 84, 61
1, 312744, Note_on_c, 0, 85, 70
1, 312749, Control_c, 0, 64, 103
1, 312763, Control_c, 0, 64, 105
1, 312778, Control_c, 0, 64, 106
1, 312789, Note_on_c, 0, 84, 72
1, 312790, Note_off_c, 0, 85, 65
1, 312793, Control_c, 0, 64, 107
1, 312808, Control_c, 0, 64, 108
1, 312839, Note_off_c, 0, 84, 63
1, 312841, Note_on_c, 0, 85, 68
1, 312884, Note_off_c, 0, 85, 65
1, 312886, Note_on_c, 0, 84, 65
1, 312920, Note_off_c, 0, 84, 65
1, 312920, Poly_aftertouch_c, 0, 85, 0
1, 312927, Note_on_c, 0, 85, 69
1, 312976, Note_on_c, 0, 84, 65
1, 312977, Note_off_c, 0, 85, 65
1, 313025, Note_on_c, 0, 85, 68
1, 313032, Note_off_c, 0, 84, 64
1, 313067, Note_off_c, 0, 85, 63
1, 313076, Note_on_c, 0, 84, 56
1, 313107, Note_off_c, 0, 84, 66
1, 313110, Note_on_c, 0, 85, 72
1, 313159, Note_off_c, 0, 85, 66
1, 313166, Note_on_c, 0, 84, 74
1, 313223, Note_on_c, 0, 85, 73
1, 313224, Note_off_c, 0, 84, 62
1, 313255, Note_off_c, 0, 85, 65
1, 313270, Note_on_c, 0, 84, 56
1, 313300, Note_off_c, 0, 84, 66
1, 313315, Note_on_c, 0, 85, 70
1, 313350, Note_off_c, 0, 85, 59
1, 313362, Note_on_c, 0, 84, 77
1, 313395, Note_off_c, 0, 84, 61
1, 313423, Note_on_c, 0, 85, 53
1, 313446, Note_on_c, 0, 84, 62
1, 313447, Note_off_c, 0, 85, 36
1, 313482, Control_c, 0, 64, 108
1, 313486, Note_off_c, 0, 84, 65
1, 313508, Note_on_c, 0, 85, 53
1, 313536, Note_off_c, 0, 85, 58
1, 313539, Note_on_c, 0, 84, 73
1, 313580, Note_off_c, 0, 84, 64
1, 313607, Note_on_c, 0, 85, 72
1, 313655, Note_off_c, 0, 85, 62
1, 313658, Note_on_c, 0, 84, 57
1, 313679, Note_off_c, 0, 84, 62
1, 313711, Note_on_c, 0, 85, 39
1, 313737, Note_off_c, 0, 85, 60
1, 313755, Note_on_c, 0, 84, 50
1, 313784, Note_off_c, 0, 84, 51
1, 313813, Note_on_c, 0, 85, 54
1, 313824, Control_c, 0, 64, 108
1, 313833, Note_on_c, 0, 84, 57
1, 313839, Control_c, 0, 64, 107
1, 313843, Note_off_c, 0, 85, 60
1, 313854, Control_c, 0, 64, 107
1, 313868, Control_c, 0, 64, 106
1, 313877, Note_off_c, 0, 84, 61
1, 313883, Control_c, 0, 64, 106
1, 313895, Note_on_c, 0, 83, 57
1, 313898, Control_c, 0, 64, 105
1, 313913, Control_c, 0, 64, 104
1, 313927, Control_c, 0, 64, 103
1, 313950, Control_c, 0, 64, 102
1, 313965, Control_c, 0, 64, 101
1, 313980, Control_c, 0, 64, 100
1, 313995, Control_c, 0, 64, 100
1, 314009, Control_c, 0, 64, 99
1, 314021, Note_on_c, 0, 84, 59
1, 314024, Control_c, 0, 64, 98
1, 314024, Note_off_c, 0, 83, 55
1, 314039, Control_c, 0, 64, 97
1, 314054, Control_c, 0, 64, 96
1, 314069, Control_c, 0, 64, 96
1, 314083, Control_c, 0, 64, 95
1, 314098, Control_c, 0, 64, 94
1, 314113, Control_c, 0, 64, 94
1, 314127, Control_c, 0, 64, 93
1, 314142, Control_c, 0, 64, 92
1, 314157, Control_c, 0, 64, 91
1, 314172, Control_c, 0, 64, 91
1, 314179, Note_off_c, 0, 84, 61
1, 314187, Control_c, 0, 64, 90
1, 314191, Note_on_c, 0, 85, 58
1, 314201, Control_c, 0, 64, 88
1, 314216, Control_c, 0, 64, 88
1, 314231, Control_c, 0, 64, 87
1, 314246, Control_c, 0, 64, 86
1, 314261, Control_c, 0, 64, 85
1, 314277, Control_c, 0, 64, 84
1, 314291, Control_c, 0, 64, 84
1, 314321, Control_c, 0, 64, 83
1, 314328, Note_on_c, 0, 84, 49
1, 314393, Note_off_c, 0, 85, 36
1, 314454, Note_on_c, 0, 82, 60
1, 314469, Note_off_c, 0, 84, 59
1, 314574, Note_off_c, 0, 82, 59
1, 314578, Note_on_c, 0, 80, 59
1, 314686, Note_off_c, 0, 80, 63
1, 314715, Note_on_c, 0, 79, 55
1, 314820, Note_off_c, 0, 79, 54
1, 314831, Note_on_c, 0, 78, 54
1, 314946, Note_off_c, 0, 78, 55
1, 314953, Note_on_c, 0, 77, 52
1, 315044, Note_off_c, 0, 77, 61
1, 315079, Note_on_c, 0, 76, 47
1, 315183, Note_off_c, 0, 76, 59
1, 315199, Note_on_c, 0, 75, 48
1, 315232, Control_c, 0, 64, 83
1, 315300, Note_off_c, 0, 75, 57
1, 315316, Note_on_c, 0, 73, 46
1, 315409, Note_off_c, 0, 73, 63
1, 315447, Note_on_c, 0, 72, 42
1, 315562, Note_off_c, 0, 72, 50
1, 315566, Note_on_c, 0, 70, 46
1, 315686, Note_on_c, 0, 68, 42
1, 315707, Note_off_c, 0, 70, 37
1, 315728, Control_c, 0, 64, 82
1, 315787, Note_off_c, 0, 68, 60
1, 315802, Control_c, 0, 64, 82
1, 315813, Note_on_c, 0, 67, 44
1, 315846, Control_c, 0, 64, 81
1, 315892, Control_c, 0, 64, 81
1, 315931, Note_off_c, 0, 67, 50
1, 315937, Note_on_c, 0, 66, 47
1, 315937, Control_c, 0, 64, 80
1, 315981, Control_c, 0, 64, 80
1, 316048, Note_off_c, 0, 66, 56
1, 316063, Note_on_c, 0, 65, 44
1, 316084, Control_c, 0, 64, 79
1, 316135, Note_off_c, 0, 65, 63
1, 316159, Control_c, 0, 64, 79
1, 316197, Note_on_c, 0, 64, 41
1, 316255, Control_c, 0, 64, 78
1, 316299, Note_off_c, 0, 64, 58
1, 316299, Control_c, 0, 64, 78
1, 316314, Note_on_c, 0, 63, 47
1, 316329, Control_c, 0, 64, 77
1, 316358, Control_c, 0, 64, 77
1, 316388, Control_c, 0, 64, 76
1, 316429, Note_off_c, 0, 63, 54
1, 316430, Note_on_c, 0, 61, 45
1, 316448, Control_c, 0, 64, 76
1, 316492, Control_c, 0, 64, 75
1, 316515, Note_off_c, 0, 61, 62
1, 316536, Control_c, 0, 64, 75
1, 316548, Note_on_c, 0, 60, 49
1, 316595, Control_c, 0, 64, 74
1, 316640, Control_c, 0, 64, 74
1, 316653, Note_off_c, 0, 60, 60
1, 316671, Control_c, 0, 64, 73
1, 316677, Note_on_c, 0, 58, 48
1, 316730, Control_c, 0, 64, 73
1, 316789, Control_c, 0, 64, 72
1, 316806, Note_on_c, 0, 56, 49
1, 316809, Note_off_c, 0, 58, 53
1, 316818, Control_c, 0, 64, 72
1, 316848, Control_c, 0, 64, 71
1, 316892, Control_c, 0, 64, 71
1, 316900, Note_off_c, 0, 56, 63
1, 316922, Control_c, 0, 64, 70
1, 316926, Note_on_c, 0, 55, 45
1, 316944, Control_c, 0, 64, 70
1, 317004, Control_c, 0, 64, 69
1, 317037, Note_off_c, 0, 55, 59
1, 317053, Note_on_c, 0, 54, 39
1, 317078, Control_c, 0, 64, 69
1, 317166, Control_c, 0, 64, 68
1, 317177, Note_on_c, 0, 53, 44
1, 317211, Note_off_c, 0, 54, 34
1, 317226, Control_c, 0, 64, 68
1, 317263, Note_off_c, 0, 53, 64
1, 317306, Note_on_c, 0, 52, 42
1, 317404, Note_off_c, 0, 52, 60
1, 317417, Note_on_c, 0, 51, 42
1, 317434, Control_c, 0, 64, 67
1, 317536, Note_on_c, 0, 49, 46
1, 317575, Note_off_c, 0, 51, 36
1, 317628, Control_c, 0, 64, 68
1, 317629, Note_off_c, 0, 49, 62
1, 317658, Note_on_c, 0, 48, 46
1, 317775, Note_off_c, 0, 48, 61
1, 317786, Note_on_c, 0, 46, 50
1, 317914, Note_on_c, 0, 44, 50
1, 317950, Note_off_c, 0, 46, 34
1, 318011, Note_off_c, 0, 44, 64
1, 318036, Note_on_c, 0, 43, 50
1, 318148, Note_off_c, 0, 43, 52
1, 318156, Note_on_c, 0, 42, 49
1, 318168, Control_c, 0, 64, 67
1, 318198, Control_c, 0, 64, 67
1, 318274, Note_on_c, 0, 41, 57
1, 318279, Note_off_c, 0, 42, 55
1, 318302, Control_c, 0, 64, 66
1, 318362, Control_c, 0, 64, 66
1, 318375, Note_off_c, 0, 41, 64
1, 318391, Control_c, 0, 64, 65
1, 318404, Note_on_c, 0, 40, 51
1, 318502, Control_c, 0, 64, 65
1, 318540, Note_on_c, 0, 39, 51
1, 318575, Note_off_c, 0, 40, 34
1, 318591, Control_c, 0, 64, 64
1, 318606, Control_c, 0, 64, 64
1, 318621, Control_c, 0, 64, 63
1, 318636, Control_c, 0, 64, 63
1, 318651, Control_c, 0, 64, 62
1, 318665, Control_c, 0, 64, 62
1, 318669, Note_on_c, 0, 37, 51
1, 318695, Control_c, 0, 64, 62
1, 318716, Note_off_c, 0, 39, 48
1, 318724, Control_c, 0, 64, 63
1, 318786, Note_off_c, 0, 37, 65
1, 318811, Note_on_c, 0, 36, 48
1, 318935, Note_on_c, 0, 34, 50
1, 318936, Note_off_c, 0, 36, 53
1, 319062, Note_off_c, 0, 34, 55
1, 319065, Note_on_c, 0, 32, 52
1, 319192, Control_c, 0, 64, 63
1, 319195, Note_off_c, 0, 32, 62
1, 319206, Note_on_c, 0, 31, 54
1, 319236, Control_c, 0, 64, 64
1, 319310, Control_c, 0, 64, 64
1, 319327, Note_on_c, 0, 32, 58
1, 319339, Control_c, 0, 64, 65
1, 319381, Note_off_c, 0, 31, 34
1, 319429, Control_c, 0, 64, 65
1, 319439, Note_on_c, 0, 34, 60
1, 319444, Control_c, 0, 64, 66
1, 319477, Note_off_c, 0, 32, 51
1, 319555, Note_off_c, 0, 34, 63
1, 319563, Note_on_c, 0, 36, 58
1, 319673, Note_off_c, 0, 36, 62
1, 319676, Note_on_c, 0, 35, 59
1, 319724, Control_c, 0, 64, 65
1, 319784, Control_c, 0, 64, 65
1, 319789, Note_off_c, 0, 35, 61
1, 319794, Note_on_c, 0, 36, 61
1, 319798, Control_c, 0, 64, 62
1, 319813, Control_c, 0, 64, 0
1, 319913, Note_off_c, 0, 36, 63
1, 319930, Note_on_c, 0, 35, 59
1, 320034, Note_off_c, 0, 35, 62
1, 320064, Note_on_c, 0, 36, 65
1, 320132, Note_off_c, 0, 36, 63
1, 320177, Note_on_c, 0, 29, 96
1, 320183, Note_on_c, 0, 53, 105
1, 320207, Control_c, 0, 64, 99
1, 320222, Control_c, 0, 64, 127
1, 320254, Note_on_c, 0, 48, 77
1, 320260, Note_on_c, 0, 36, 80
1, 320275, Note_off_c, 0, 29, 62
1, 320281, Note_off_c, 0, 53, 64
1, 320314, Note_off_c, 0, 36, 65
1, 320319, Note_off_c, 0, 48, 64
1, 320324, Note_on_c, 0, 41, 82
1, 320339, Note_on_c, 0, 44, 72
1, 320388, Note_off_c, 0, 44, 64
1, 320392, Note_on_c, 0, 48, 75
1, 320392, Note_off_c, 0, 41, 64
1, 320394, Note_on_c, 0, 36, 63
1, 320446, Note_on_c, 0, 29, 76
1, 320448, Note_off_c, 0, 36, 63
1, 320461, Note_on_c, 0, 53, 82
1, 320463, Note_off_c, 0, 48, 65
1, 320474, Control_c, 0, 64, 122
1, 320488, Control_c, 0, 64, 105
1, 320498, Note_off_c, 0, 29, 61
1, 320499, Note_off_c, 0, 53, 63
1, 320503, Control_c, 0, 64, 88
1, 320518, Control_c, 0, 64, 72
1, 320528, Note_on_c, 0, 48, 80
1, 320530, Note_on_c, 0, 36, 71
1, 320533, Control_c, 0, 64, 22
1, 320548, Control_c, 0, 64, 0
1, 320573, Note_off_c, 0, 36, 62
1, 320575, Note_off_c, 0, 48, 65
1, 320588, Note_on_c, 0, 56, 90
1, 320597, Note_on_c, 0, 29, 74
1, 320628, Note_off_c, 0, 56, 63
1, 320634, Note_off_c, 0, 29, 65
1, 320649, Note_on_c, 0, 48, 86
1, 320659, Note_on_c, 0, 36, 75
1, 320705, Note_off_c, 0, 36, 67
1, 320713, Note_off_c, 0, 48, 60
1, 320722, Note_on_c, 0, 55, 88
1, 320728, Note_on_c, 0, 29, 73
1, 320769, Note_off_c, 0, 55, 65
1, 320770, Note_off_c, 0, 29, 64
1, 320791, Note_on_c, 0, 36, 71
1, 320794, Note_on_c, 0, 48, 81
1, 320835, Note_off_c, 0, 36, 64
1, 320844, Note_off_c, 0, 48, 64
1, 320845, Note_on_c, 0, 29, 74
1, 320855, Note_on_c, 0, 53, 89
1, 320883, Note_off_c, 0, 29, 66
1, 320899, Note_off_c, 0, 53, 67
1, 320901, Note_on_c, 0, 48, 73
1, 320910, Note_on_c, 0, 36, 67
1, 320946, Note_off_c, 0, 48, 65
1, 320946, Note_off_c, 0, 36, 63
1, 320967, Note_on_c, 0, 29, 88
1, 320973, Note_on_c, 0, 53, 103
1, 320985, Control_c, 0, 64, 65
1, 321000, Control_c, 0, 64, 97
1, 321015, Control_c, 0, 64, 127
1, 321036, Note_on_c, 0, 48, 77
1, 321044, Note_on_c, 0, 36, 71
1, 321047, Note_off_c, 0, 53, 64
1, 321049, Note_off_c, 0, 29, 62
1, 321059, Control_c, 0, 64, 127
1, 321074, Control_c, 0, 64, 121
1, 321081, Note_off_c, 0, 36, 66
1, 321089, Control_c, 0, 64, 121
1, 321094, Note_off_c, 0, 48, 64
1, 321108, Note_on_c, 0, 44, 76
1, 321110, Note_on_c, 0, 41, 63
1, 321126, Note_on_c, 0, 43, 54
1, 321154, Note_off_c, 0, 41, 66
1, 321158, Note_off_c, 0, 43, 52
1, 321163, Note_off_c, 0, 44, 65
1, 321164, Note_on_c, 0, 36, 75
1, 321167, Note_on_c, 0, 48, 77
1, 321220, Note_on_c, 0, 29, 73
1, 321220, Note_off_c, 0, 36, 63
1, 321231, Note_on_c, 0, 53, 86
1, 321236, Note_off_c, 0, 48, 66
1, 321274, Note_off_c, 0, 29, 62
1, 321275, Note_off_c, 0, 53, 64
1, 321282, Control_c, 0, 64, 120
1, 321295, Note_on_c, 0, 36, 70
1, 321297, Note_on_c, 0, 48, 80
1, 321297, Control_c, 0, 64, 118
1, 321311, Control_c, 0, 64, 113
1, 321326, Control_c, 0, 64, 104
1, 321337, Note_off_c, 0, 36, 61
1, 321341, Note_off_c, 0, 48, 65
1, 321341, Control_c, 0, 64, 93
1, 321354, Note_on_c, 0, 56, 94
1, 321356, Control_c, 0, 64, 74
1, 321365, Note_on_c, 0, 29, 76
1, 321371, Control_c, 0, 64, 0
1, 321395, Note_off_c, 0, 56, 62
1, 321396, Note_off_c, 0, 29, 60
1, 321412, Note_on_c, 0, 48, 88
1, 321421, Note_on_c, 0, 36, 73
1, 321470, Note_off_c, 0, 36, 66
1, 321481, Note_off_c, 0, 48, 60
1, 321483, Note_on_c, 0, 29, 71
1, 321488, Note_on_c, 0, 55, 90
1, 321530, Note_off_c, 0, 29, 56
1, 321540, Note_off_c, 0, 55, 64
1, 321551, Note_on_c, 0, 36, 66
1, 321557, Note_on_c, 0, 48, 69
1, 321590, Note_on_c, 0, 29, 51
1, 321593, Note_off_c, 0, 36, 66
1, 321593, Note_off_c, 0, 48, 67
1, 321605, Note_on_c, 0, 53, 85
1, 321645, Note_off_c, 0, 29, 61
1, 321653, Note_off_c, 0, 53, 65
1, 321655, Note_on_c, 0, 36, 78
1, 321657, Note_on_c, 0, 48, 81
1, 321697, Note_off_c, 0, 36, 62
1, 321705, Note_off_c, 0, 48, 65
1, 321725, Note_on_c, 0, 29, 85
1, 321730, Note_on_c, 0, 61, 95
1, 321750, Control_c, 0, 64, 71
1, 321763, Control_c, 0, 64, 103
1, 321778, Control_c, 0, 64, 124
1, 321793, Control_c, 0, 64, 124
1, 321795, Note_on_c, 0, 37, 74
1, 321797, Note_on_c, 0, 56, 86
1, 321808, Note_off_c, 0, 61, 62
1, 321808, Note_off_c, 0, 29, 61
1, 321808, Control_c, 0, 64, 123
1, 321822, Control_c, 0, 64, 119
1, 321835, Note_off_c, 0, 37, 65
1, 321837, Control_c, 0, 64, 117
1, 321847, Note_off_c, 0, 56, 65
1, 321851, Note_on_c, 0, 41, 82
1, 321852, Control_c, 0, 64, 116
1, 321855, Note_on_c, 0, 53, 80
1, 321902, Note_off_c, 0, 41, 63
1, 321916, Note_on_c, 0, 56, 78
1, 321917, Note_on_c, 0, 37, 74
1, 321917, Note_off_c, 0, 53, 66
1, 321959, Note_off_c, 0, 37, 65
1, 321964, Note_on_c, 0, 29, 77
1, 321966, Note_off_c, 0, 56, 65
1, 321968, Note_on_c, 0, 61, 83
1, 321986, Control_c, 0, 64, 116
1, 321992, Note_off_c, 0, 61, 62
1, 322001, Control_c, 0, 64, 113
1, 322012, Note_off_c, 0, 29, 63
1, 322015, Control_c, 0, 64, 104
1, 322019, Note_on_c, 0, 56, 87
1, 322030, Control_c, 0, 64, 88
1, 322034, Note_on_c, 0, 37, 71
1, 322045, Control_c, 0, 64, 69
1, 322060, Control_c, 0, 64, 0
1, 322071, Note_off_c, 0, 56, 64
1, 322076, Note_off_c, 0, 37, 65
1, 322084, Note_on_c, 0, 29, 77
1, 322088, Note_on_c, 0, 65, 93
1, 322128, Note_off_c, 0, 29, 62
1, 322128, Note_off_c, 0, 65, 62
1, 322145, Note_on_c, 0, 56, 89
1, 322156, Note_on_c, 0, 37, 74
1, 322200, Note_off_c, 0, 37, 67
1, 322210, Note_off_c, 0, 56, 62
1, 322212, Note_on_c, 0, 63, 90
1, 322226, Note_on_c, 0, 29, 69
1, 322261, Note_off_c, 0, 63, 64
1, 322268, Note_off_c, 0, 29, 65
1, 322275, Note_on_c, 0, 56, 76
1, 322277, Note_on_c, 0, 37, 71
1, 322315, Note_off_c, 0, 37, 67
1, 322329, Note_off_c, 0, 56, 63
1, 322336, Note_on_c, 0, 61, 87
1, 322340, Note_on_c, 0, 29, 69
1, 322376, Note_off_c, 0, 61, 61
1, 322383, Note_on_c, 0, 56, 74
1, 322384, Note_off_c, 0, 29, 63
1, 322396, Note_on_c, 0, 37, 67
1, 322422, Note_off_c, 0, 37, 66
1, 322431, Note_off_c, 0, 56, 64
1, 322449, Note_on_c, 0, 29, 82
1, 322451, Note_on_c, 0, 61, 98
1, 322468, Control_c, 0, 64, 67
1, 322483, Control_c, 0, 64, 97
1, 322498, Control_c, 0, 64, 106
1, 322505, Note_on_c, 0, 37, 80
1, 322512, Control_c, 0, 64, 105
1, 322520, Note_off_c, 0, 29, 63
1, 322522, Note_on_c, 0, 56, 84
1, 322532, Note_off_c, 0, 61, 61
1, 322555, Note_off_c, 0, 37, 64
1, 322569, Note_on_c, 0, 41, 83
1, 322575, Note_off_c, 0, 56, 65
1, 322580, Note_on_c, 0, 53, 80
1, 322625, Note_off_c, 0, 41, 65
1, 322631, Note_on_c, 0, 37, 73
1, 322634, Note_off_c, 0, 53, 65
1, 322635, Note_on_c, 0, 56, 77
1, 322675, Note_off_c, 0, 37, 63
1, 322681, Note_on_c, 0, 29, 81
1, 322688, Note_on_c, 0, 61, 90
1, 322692, Note_off_c, 0, 56, 65
1, 322705, Control_c, 0, 64, 104
1, 322720, Control_c, 0, 64, 102
1, 322727, Note_off_c, 0, 61, 59
1, 322732, Note_off_c, 0, 29, 62
1, 322735, Control_c, 0, 64, 94
1, 322750, Control_c, 0, 64, 81
1, 322752, Note_on_c, 0, 37, 75
1, 322752, Note_on_c, 0, 56, 86
1, 322764, Control_c, 0, 64, 64
1, 322779, Control_c, 0, 64, 0
1, 322796, Note_off_c, 0, 37, 63
1, 322798, Note_off_c, 0, 56, 64
1, 322803, Note_on_c, 0, 29, 80
1, 322815, Note_on_c, 0, 65, 89
1, 322854, Note_off_c, 0, 29, 58
1, 322854, Note_off_c, 0, 65, 66
1, 322875, Note_on_c, 0, 37, 77
1, 322877, Note_on_c, 0, 56, 92
1, 322909, Note_off_c, 0, 37, 68
1, 322936, Note_on_c, 0, 29, 75
1, 322946, Note_on_c, 0, 63, 90
1, 322953, Note_off_c, 0, 56, 63
1, 322992, Note_off_c, 0, 29, 63
1, 322998, Note_off_c, 0, 63, 65
1, 323003, Note_on_c, 0, 37, 81
1, 323016, Note_on_c, 0, 56, 84
1, 323056, Note_off_c, 0, 37, 63
1, 323076, Note_on_c, 0, 29, 74
1, 323080, Note_on_c, 0, 61, 90
1, 323080, Note_off_c, 0, 56, 64
1, 323083, Control_c, 0, 64, 48
1, 323098, Control_c, 0, 64, 77
1, 323113, Control_c, 0, 64, 84
1, 323126, Note_off_c, 0, 61, 65
1, 323128, Control_c, 0, 64, 85
1, 323138, Note_on_c, 0, 37, 82
1, 323145, Note_off_c, 0, 29, 63
1, 323146, Note_on_c, 0, 56, 89
1, 323158, Control_c, 0, 64, 87
1, 323173, Control_c, 0, 64, 90
1, 323187, Control_c, 0, 64, 97
1, 323192, Note_off_c, 0, 37, 63
1, 323201, Note_off_c, 0, 56, 64
1, 323202, Control_c, 0, 64, 103
1, 323217, Control_c, 0, 64, 106
1, 323232, Control_c, 0, 64, 105
1, 323247, Control_c, 0, 64, 94
1, 323262, Control_c, 0, 64, 75
1, 323271, Note_on_c, 0, 42, 106
1, 323271, Note_on_c, 0, 70, 100
1, 323277, Note_on_c, 0, 30, 95
1, 323277, Control_c, 0, 64, 0
1, 323304, Note_on_c, 0, 32, 50
1, 323305, Note_off_c, 0, 32, 127
1, 323341, Poly_aftertouch_c, 0, 32, 0
1, 323452, Note_off_c, 0, 70, 63
1, 323459, Note_on_c, 0, 73, 85
1, 323484, Control_c, 0, 64, 75
1, 323499, Control_c, 0, 64, 96
1, 323513, Control_c, 0, 64, 97
1, 323518, Note_off_c, 0, 73, 61
1, 323528, Control_c, 0, 64, 97
1, 323535, Note_on_c, 0, 70, 89
1, 323543, Control_c, 0, 64, 97
1, 323558, Control_c, 0, 64, 98
1, 323573, Control_c, 0, 64, 101
1, 323587, Control_c, 0, 64, 105
1, 323591, Note_off_c, 0, 70, 65
1, 323596, Note_on_c, 0, 73, 80
1, 323602, Control_c, 0, 64, 108
1, 323617, Control_c, 0, 64, 110
1, 323632, Control_c, 0, 64, 112
1, 323644, Note_off_c, 0, 73, 61
1, 323647, Control_c, 0, 64, 113
1, 323654, Note_on_c, 0, 70, 86
1, 323662, Control_c, 0, 64, 115
1, 323684, Control_c, 0, 64, 118
1, 323699, Control_c, 0, 64, 121
1, 323713, Control_c, 0, 64, 124
1, 323714, Note_off_c, 0, 70, 65
1, 323718, Note_on_c, 0, 73, 79
1, 323728, Control_c, 0, 64, 127
1, 323759, Note_off_c, 0, 73, 59
1, 323777, Note_on_c, 0, 70, 84
1, 323825, Note_off_c, 0, 70, 66
1, 323830, Note_on_c, 0, 73, 82
1, 323874, Note_off_c, 0, 73, 62
1, 323897, Note_on_c, 0, 70, 87
1, 323947, Note_off_c, 0, 70, 65
1, 323950, Note_on_c, 0, 73, 81
1, 323990, Note_off_c, 0, 73, 63
1, 324012, Note_on_c, 0, 70, 86
1, 324064, Note_off_c, 0, 70, 65
1, 324070, Note_on_c, 0, 73, 84
1, 324112, Note_off_c, 0, 73, 60
1, 324130, Note_on_c, 0, 70, 87
1, 324183, Note_off_c, 0, 70, 65
1, 324190, Note_on_c, 0, 73, 80
1, 324217, Note_off_c, 0, 73, 56
1, 324246, Note_on_c, 0, 70, 81
1, 324294, Note_off_c, 0, 70, 65
1, 324301, Note_on_c, 0, 73, 83
1, 324307, Note_off_c, 0, 42, 59
1, 324311, Note_off_c, 0, 30, 61
1, 324350, Note_off_c, 0, 73, 62
1, 324361, Note_on_c, 0, 70, 86
1, 324414, Note_off_c, 0, 70, 64
1, 324433, Control_c, 0, 64, 114
1, 324443, Note_on_c, 0, 73, 67
1, 324448, Control_c, 0, 64, 89
1, 324463, Control_c, 0, 64, 65
1, 324478, Control_c, 0, 64, 0
1, 324485, Note_on_c, 0, 43, 95
1, 324487, Note_on_c, 0, 70, 82
1, 324491, Note_on_c, 0, 31, 92
1, 324493, Note_off_c, 0, 73, 52
1, 324531, Note_on_c, 0, 73, 42
1, 324531, Note_off_c, 0, 31, 61
1, 324535, Note_off_c, 0, 43, 62
1, 324541, Note_off_c, 0, 70, 64
1, 324551, Control_c, 0, 64, 66
1, 324566, Control_c, 0, 64, 76
1, 324581, Control_c, 0, 64, 86
1, 324596, Control_c, 0, 64, 87
1, 324603, Note_on_c, 0, 67, 84
1, 324604, Note_on_c, 0, 34, 94
1, 324610, Note_off_c, 0, 73, 50
1, 324657, Note_off_c, 0, 67, 62
1, 324660, Note_on_c, 0, 70, 84
1, 324666, Note_off_c, 0, 34, 63
1, 324671, Control_c, 0, 64, 87
1, 324686, Control_c, 0, 64, 86
1, 324701, Control_c, 0, 64, 85
1, 324711, Note_on_c, 0, 37, 92
1, 324711, Note_off_c, 0, 70, 64
1, 324715, Control_c, 0, 64, 83
1, 324729, Note_on_c, 0, 64, 72
1, 324730, Control_c, 0, 64, 80
1, 324745, Control_c, 0, 64, 75
1, 324759, Control_c, 0, 64, 68
1, 324767, Note_off_c, 0, 37, 65
1, 324771, Note_off_c, 0, 64, 51
1, 324774, Control_c, 0, 64, 54
1, 324775, Note_on_c, 0, 67, 79
1, 324789, Control_c, 0, 64, 0
1, 324821, Note_on_c, 0, 40, 90
1, 324834, Note_off_c, 0, 67, 63
1, 324841, Note_on_c, 0, 61, 84
1, 324859, Note_off_c, 0, 40, 65
1, 324876, Note_off_c, 0, 61, 64
1, 324914, Note_on_c, 0, 64, 62
1, 324942, Note_on_c, 0, 43, 89
1, 324942, Note_off_c, 0, 64, 65
1, 324966, Note_on_c, 0, 59, 45
1, 324983, Note_off_c, 0, 43, 62
1, 324994, Note_off_c, 0, 59, 51
1, 325012, Control_c, 0, 64, 27
1, 325026, Control_c, 0, 64, 33
1, 325027, Note_on_c, 0, 62, 60
1, 325041, Control_c, 0, 64, 34
1, 325058, Note_on_c, 0, 46, 92
1, 325058, Note_off_c, 0, 62, 63
1, 325071, Control_c, 0, 64, 35
1, 325073, Note_on_c, 0, 55, 79
1, 325085, Control_c, 0, 64, 38
1, 325100, Control_c, 0, 64, 34
1, 325113, Note_off_c, 0, 46, 63
1, 325115, Control_c, 0, 64, 21
1, 325121, Note_off_c, 0, 55, 57
1, 325126, Note_on_c, 0, 58, 85
1, 325130, Control_c, 0, 64, 0
1, 325179, Note_off_c, 0, 58, 65
1, 325188, Note_on_c, 0, 49, 90
1, 325197, Note_on_c, 0, 53, 82
1, 325212, Control_c, 0, 64, 21
1, 325227, Control_c, 0, 64, 39
1, 325239, Note_off_c, 0, 49, 60
1, 325241, Control_c, 0, 64, 54
1, 325251, Note_on_c, 0, 55, 71
1, 325256, Control_c, 0, 64, 62
1, 325269, Note_off_c, 0, 53, 62
1, 325271, Control_c, 0, 64, 64
1, 325285, Control_c, 0, 64, 64
1, 325300, Control_c, 0, 64, 57
1, 325305, Note_on_c, 0, 58, 88
1, 325313, Note_on_c, 0, 49, 93
1, 325313, Note_off_c, 0, 55, 65
1, 325315, Control_c, 0, 64, 22
1, 325330, Control_c, 0, 64, 0
1, 325364, Note_off_c, 0, 49, 61
1, 325367, Note_off_c, 0, 58, 64
1, 325373, Note_on_c, 0, 55, 84
1, 325374, Control_c, 0, 64, 51
1, 325389, Control_c, 0, 64, 64
1, 325404, Control_c, 0, 64, 69
1, 325419, Control_c, 0, 64, 74
1, 325428, Note_off_c, 0, 55, 65
1, 325429, Note_on_c, 0, 53, 80
1, 325433, Control_c, 0, 64, 80
1, 325440, Note_on_c, 0, 49, 96
1, 325449, Control_c, 0, 64, 83
1, 325464, Control_c, 0, 64, 84
1, 325479, Control_c, 0, 64, 84
1, 325501, Note_off_c, 0, 49, 63
1, 325505, Note_off_c, 0, 53, 66
1, 325507, Note_on_c, 0, 55, 93
1, 325552, Control_c, 0, 64, 83
1, 325566, Note_off_c, 0, 55, 65
1, 325567, Control_c, 0, 64, 75
1, 325581, Control_c, 0, 64, 63
1, 325585, Note_on_c, 0, 49, 110
1, 325596, Control_c, 0, 64, 0
1, 325658, Note_on_c, 0, 53, 79
1, 325715, Note_off_c, 0, 53, 64
1, 325726, Note_on_c, 0, 58, 84
1, 325745, Control_c, 0, 64, 64
1, 325760, Control_c, 0, 64, 71
1, 325774, Control_c, 0, 64, 77
1, 325789, Control_c, 0, 64, 80
1, 325790, Note_off_c, 0, 58, 65
1, 325793, Note_on_c, 0, 55, 89
1, 325804, Control_c, 0, 64, 82
1, 325819, Control_c, 0, 64, 83
1, 325834, Control_c, 0, 64, 84
1, 325847, Note_off_c, 0, 55, 66
1, 325848, Control_c, 0, 64, 85
1, 325854, Note_on_c, 0, 53, 76
1, 325863, Control_c, 0, 64, 86
1, 325878, Control_c, 0, 64, 86
1, 325914, Note_on_c, 0, 58, 89
1, 325934, Note_off_c, 0, 53, 66
1, 325938, Note_off_c, 0, 49, 59
1, 325945, Control_c, 0, 64, 85
1, 325960, Control_c, 0, 64, 79
1, 325973, Note_off_c, 0, 58, 64
1, 325975, Control_c, 0, 64, 67
1, 325988, Note_on_c, 0, 48, 96
1, 325989, Control_c, 0, 64, 0
1, 326054, Note_on_c, 0, 52, 82
1, 326107, Control_c, 0, 64, 67
1, 326109, Note_off_c, 0, 52, 65
1, 326118, Note_on_c, 0, 58, 81
1, 326122, Control_c, 0, 64, 73
1, 326137, Control_c, 0, 64, 80
1, 326150, Note_off_c, 0, 48, 62
1, 326152, Control_c, 0, 64, 82
1, 326167, Control_c, 0, 64, 83
1, 326178, Note_on_c, 0, 55, 85
1, 326181, Control_c, 0, 64, 85
1, 326182, Note_off_c, 0, 58, 65
1, 326196, Control_c, 0, 64, 86
1, 326211, Control_c, 0, 64, 88
1, 326226, Control_c, 0, 64, 90
1, 326229, Note_off_c, 0, 55, 67
1, 326234, Note_on_c, 0, 52, 80
1, 326241, Control_c, 0, 64, 92
1, 326257, Control_c, 0, 64, 93
1, 326287, Note_on_c, 0, 58, 85
1, 326298, Note_off_c, 0, 52, 66
1, 326301, Control_c, 0, 64, 89
1, 326304, Note_off_c, 0, 58, 75
1, 326316, Control_c, 0, 64, 76
1, 326330, Control_c, 0, 64, 0
1, 326360, Note_on_c, 0, 41, 93
1, 326369, Note_on_c, 0, 65, 104
1, 326404, Control_c, 0, 64, 70
1, 326419, Control_c, 0, 64, 87
1, 326432, Note_on_c, 0, 60, 71
1, 326434, Control_c, 0, 64, 102
1, 326445, Note_on_c, 0, 48, 80
1, 326447, Note_off_c, 0, 41, 64
1, 326449, Note_off_c, 0, 65, 67
1, 326449, Control_c, 0, 64, 103
1, 326487, Note_off_c, 0, 60, 63
1, 326495, Note_off_c, 0, 48, 64
1, 326500, Note_on_c, 0, 56, 75
1, 326510, Note_on_c, 0, 53, 81
1, 326539, Note_off_c, 0, 56, 62
1, 326553, Control_c, 0, 64, 104
1, 326565, Note_off_c, 0, 53, 63
1, 326568, Note_on_c, 0, 60, 75
1, 326575, Note_on_c, 0, 48, 76
1, 326597, Control_c, 0, 64, 103
1, 326612, Control_c, 0, 64, 95
1, 326625, Note_off_c, 0, 60, 64
1, 326626, Note_on_c, 0, 41, 73
1, 326626, Note_off_c, 0, 48, 64
1, 326627, Note_on_c, 0, 65, 84
1, 326627, Control_c, 0, 64, 74
1, 326642, Control_c, 0, 64, 0
1, 326669, Note_off_c, 0, 41, 67
1, 326672, Note_off_c, 0, 65, 61
1, 326706, Note_on_c, 0, 48, 69
1, 326709, Note_on_c, 0, 60, 88
1, 326747, Note_off_c, 0, 48, 65
1, 326752, Note_off_c, 0, 60, 62
1, 326762, Note_on_c, 0, 68, 94
1, 326771, Note_on_c, 0, 41, 76
1, 326803, Note_off_c, 0, 41, 68
1, 326809, Note_off_c, 0, 68, 63
1, 326830, Note_on_c, 0, 60, 91
1, 326834, Note_on_c, 0, 48, 69
1, 326875, Note_off_c, 0, 60, 61
1, 326876, Note_off_c, 0, 48, 66
1, 326887, Note_on_c, 0, 41, 69
1, 326889, Note_on_c, 0, 67, 89
1, 326925, Note_off_c, 0, 41, 68
1, 326938, Note_off_c, 0, 67, 61
1, 326953, Note_on_c, 0, 48, 73
1, 326963, Note_on_c, 0, 60, 74
1, 326995, Note_off_c, 0, 48, 65
1, 326996, Note_off_c, 0, 60, 58
1, 327009, Note_on_c, 0, 41, 80
1, 327016, Note_on_c, 0, 65, 88
1, 327042, Note_off_c, 0, 41, 67
1, 327066, Note_off_c, 0, 65, 66
1, 327070, Note_on_c, 0, 48, 67
1, 327078, Note_on_c, 0, 60, 74
1, 327099, Note_off_c, 0, 48, 64
1, 327109, Note_off_c, 0, 60, 59
1, 327124, Note_on_c, 0, 41, 78
1, 327137, Note_on_c, 0, 65, 103
1, 327154, Control_c, 0, 64, 70
1, 327169, Control_c, 0, 64, 109
1, 327182, Note_on_c, 0, 48, 74
1, 327184, Control_c, 0, 64, 120
1, 327193, Note_off_c, 0, 41, 64
1, 327199, Control_c, 0, 64, 119
1, 327202, Note_on_c, 0, 60, 68
1, 327210, Note_off_c, 0, 65, 62
1, 327227, Note_off_c, 0, 48, 65
1, 327250, Note_on_c, 0, 53, 82
1, 327257, Note_off_c, 0, 60, 62
1, 327260, Note_on_c, 0, 56, 79
1, 327298, Note_off_c, 0, 53, 64
1, 327302, Control_c, 0, 64, 119
1, 327311, Note_off_c, 0, 56, 65
1, 327316, Note_on_c, 0, 48, 75
1, 327327, Note_on_c, 0, 60, 74
1, 327370, Note_on_c, 0, 41, 76
1, 327370, Note_off_c, 0, 48, 64
1, 327390, Note_off_c, 0, 60, 63
1, 327392, Note_on_c, 0, 65, 81
1, 327417, Note_off_c, 0, 41, 66
1, 327428, Control_c, 0, 64, 119
1, 327438, Note_off_c, 0, 65, 64
1, 327443, Control_c, 0, 64, 109
1, 327447, Note_on_c, 0, 48, 74
1, 327458, Control_c, 0, 64, 91
1, 327465, Note_on_c, 0, 60, 84
1, 327473, Control_c, 0, 64, 66
1, 327487, Control_c, 0, 64, 0
1, 327495, Note_off_c, 0, 48, 61
1, 327515, Note_on_c, 0, 41, 80
1, 327515, Note_off_c, 0, 60, 62
1, 327525, Note_on_c, 0, 68, 96
1, 327549, Note_off_c, 0, 41, 68
1, 327564, Note_off_c, 0, 68, 63
1, 327582, Note_on_c, 0, 60, 85
1, 327586, Note_on_c, 0, 48, 75
1, 327626, Note_off_c, 0, 48, 63
1, 327638, Note_off_c, 0, 60, 59
1, 327641, Note_on_c, 0, 41, 77
1, 327648, Note_on_c, 0, 67, 88
1, 327680, Note_off_c, 0, 41, 67
1, 327698, Note_off_c, 0, 67, 61
1, 327707, Note_on_c, 0, 48, 74
1, 327721, Note_on_c, 0, 60, 72
1, 327752, Note_off_c, 0, 48, 66
1, 327753, Note_on_c, 0, 41, 75
1, 327760, Note_off_c, 0, 60, 62
1, 327766, Note_on_c, 0, 65, 84
1, 327797, Note_off_c, 0, 41, 65
1, 327813, Note_on_c, 0, 48, 67
1, 327815, Note_off_c, 0, 65, 65
1, 327816, Note_on_c, 0, 60, 75
1, 327850, Note_off_c, 0, 48, 66
1, 327861, Note_off_c, 0, 60, 62
1, 327876, Note_on_c, 0, 41, 84
1, 327885, Note_on_c, 0, 73, 97
1, 327889, Control_c, 0, 64, 32
1, 327904, Control_c, 0, 64, 93
1, 327918, Control_c, 0, 64, 106
1, 327947, Note_on_c, 0, 49, 83
1, 327948, Note_off_c, 0, 41, 64
1, 327954, Note_on_c, 0, 68, 82
1, 327961, Note_off_c, 0, 73, 65
1, 327994, Note_off_c, 0, 49, 61
1, 328005, Note_off_c, 0, 68, 65
1, 328006, Note_on_c, 0, 53, 82
1, 328012, Note_on_c, 0, 65, 78
1, 328060, Note_off_c, 0, 53, 62
1, 328067, Note_on_c, 0, 49, 76
1, 328070, Note_on_c, 0, 68, 84
1, 328074, Note_off_c, 0, 65, 63
1, 328116, Note_on_c, 0, 41, 80
1, 328119, Note_off_c, 0, 49, 62
1, 328121, Note_on_c, 0, 73, 87
1, 328127, Note_off_c, 0, 68, 64
1, 328140, Control_c, 0, 64, 105
1, 328155, Control_c, 0, 64, 101
1, 328161, Note_off_c, 0, 73, 64
1, 328166, Note_off_c, 0, 41, 66
1, 328177, Control_c, 0, 64, 93
1, 328187, Note_on_c, 0, 68, 87
1, 328192, Note_on_c, 0, 49, 76
1, 328192, Control_c, 0, 64, 82
1, 328207, Control_c, 0, 64, 68
1, 328222, Control_c, 0, 64, 0
1, 328234, Note_off_c, 0, 49, 63
1, 328237, Note_off_c, 0, 68, 62
1, 328248, Note_on_c, 0, 41, 82
1, 328251, Note_on_c, 0, 77, 95
1, 328297, Note_off_c, 0, 41, 65
1, 328300, Note_off_c, 0, 77, 61
1, 328315, Note_on_c, 0, 68, 93
1, 328321, Note_on_c, 0, 49, 75
1, 328351, Note_off_c, 0, 49, 67
1, 328370, Note_on_c, 0, 41, 75
1, 328372, Note_on_c, 0, 75, 88
1, 328375, Note_off_c, 0, 68, 62
1, 328419, Note_off_c, 0, 41, 64
1, 328420, Note_off_c, 0, 75, 65
1, 328430, Note_on_c, 0, 49, 79
1, 328440, Note_on_c, 0, 68, 84
1, 328463, Note_off_c, 0, 49, 64
1, 328488, Note_on_c, 0, 73, 88
1, 328489, Note_on_c, 0, 41, 69
1, 328495, Note_off_c, 0, 68, 63
1, 328527, Note_off_c, 0, 73, 62
1, 328535, Note_off_c, 0, 41, 65
1, 328539, Note_on_c, 0, 49, 77
1, 328544, Note_on_c, 0, 68, 76
1, 328571, Note_off_c, 0, 49, 65
1, 328586, Note_off_c, 0, 68, 66
1, 328602, Note_on_c, 0, 41, 86
1, 328607, Note_on_c, 0, 73, 109
1, 328637, Control_c, 0, 64, 74
1, 328652, Control_c, 0, 64, 89
1, 328667, Note_on_c, 0, 49, 86
1, 328667, Control_c, 0, 64, 96
1, 328674, Note_off_c, 0, 41, 64
1, 328683, Note_on_c, 0, 68, 88
1, 328693, Note_off_c, 0, 73, 60
1, 328711, Control_c, 0, 64, 96
1, 328714, Note_off_c, 0, 49, 61
1, 328725, Note_off_c, 0, 68, 66
1, 328727, Note_on_c, 0, 53, 83
1, 328735, Note_on_c, 0, 65, 73
1, 328780, Note_off_c, 0, 53, 61
1, 328786, Control_c, 0, 64, 97
1, 328789, Note_on_c, 0, 49, 82
1, 328792, Note_on_c, 0, 68, 82
1, 328792, Note_off_c, 0, 65, 64
1, 328815, Control_c, 0, 64, 96
1, 328836, Note_off_c, 0, 49, 63
1, 328841, Note_on_c, 0, 41, 79
1, 328845, Control_c, 0, 64, 95
1, 328847, Note_on_c, 0, 73, 85
1, 328851, Note_off_c, 0, 68, 64
1, 328860, Control_c, 0, 64, 93
1, 328874, Control_c, 0, 64, 90
1, 328889, Control_c, 0, 64, 84
1, 328890, Note_off_c, 0, 41, 65
1, 328891, Note_off_c, 0, 73, 61
1, 328904, Control_c, 0, 64, 75
1, 328905, Note_on_c, 0, 49, 81
1, 328910, Note_on_c, 0, 68, 88
1, 328926, Control_c, 0, 64, 59
1, 328941, Control_c, 0, 64, 0
1, 328954, Note_off_c, 0, 49, 63
1, 328970, Note_on_c, 0, 41, 82
1, 328970, Note_off_c, 0, 68, 64
1, 328980, Note_on_c, 0, 77, 92
1, 329030, Note_off_c, 0, 41, 65
1, 329033, Note_off_c, 0, 77, 60
1, 329039, Note_on_c, 0, 49, 83
1, 329044, Note_on_c, 0, 68, 95
1, 329081, Note_off_c, 0, 49, 64
1, 329091, Note_on_c, 0, 41, 74
1, 329110, Note_on_c, 0, 75, 89
1, 329114, Note_off_c, 0, 68, 61
1, 329152, Note_off_c, 0, 41, 65
1, 329161, Note_on_c, 0, 49, 87
1, 329161, Note_off_c, 0, 75, 66
1, 329187, Note_on_c, 0, 68, 88
1, 329210, Note_off_c, 0, 49, 63
1, 329234, Note_on_c, 0, 73, 86
1, 329239, Note_on_c, 0, 41, 72
1, 329243, Note_off_c, 0, 68, 65
1, 329251, Control_c, 0, 64, 64
1, 329266, Control_c, 0, 64, 83
1, 329281, Control_c, 0, 64, 92
1, 329283, Note_off_c, 0, 73, 64
1, 329296, Control_c, 0, 64, 95
1, 329298, Note_on_c, 0, 49, 84
1, 329299, Note_on_c, 0, 68, 94
1, 329302, Note_off_c, 0, 41, 66
1, 329311, Control_c, 0, 64, 96
1, 329325, Control_c, 0, 64, 99
1, 329340, Control_c, 0, 64, 102
1, 329352, Note_off_c, 0, 49, 62
1, 329358, Note_off_c, 0, 68, 65
1, 329385, Control_c, 0, 64, 99
1, 329400, Control_c, 0, 64, 89
1, 329415, Control_c, 0, 64, 73
1, 329430, Control_c, 0, 64, 0
1, 329431, Note_on_c, 0, 82, 99
1, 329433, Note_on_c, 0, 54, 108
1, 329437, Note_on_c, 0, 42, 100
1, 329452, Note_on_c, 0, 80, 72
1, 329467, Note_off_c, 0, 80, 68
1, 329630, Note_on_c, 0, 85, 88
1, 329632, Note_off_c, 0, 82, 64
1, 329704, Control_c, 0, 64, 32
1, 329708, Note_off_c, 0, 85, 63
1, 329719, Control_c, 0, 64, 67
1, 329728, Note_on_c, 0, 82, 81
1, 329734, Control_c, 0, 64, 76
1, 329749, Control_c, 0, 64, 82
1, 329764, Control_c, 0, 64, 85
1, 329778, Control_c, 0, 64, 87
1, 329787, Note_off_c, 0, 82, 64
1, 329790, Note_on_c, 0, 85, 85
1, 329793, Control_c, 0, 64, 91
1, 329808, Control_c, 0, 64, 93
1, 329823, Control_c, 0, 64, 94
1, 329838, Control_c, 0, 64, 96
1, 329846, Note_off_c, 0, 85, 64
1, 329850, Note_on_c, 0, 82, 82
1, 329853, Control_c, 0, 64, 98
1, 329868, Control_c, 0, 64, 101
1, 329882, Control_c, 0, 64, 103
1, 329897, Control_c, 0, 64, 104
1, 329898, Note_on_c, 0, 85, 74
1, 329902, Note_off_c, 0, 82, 66
1, 329927, Control_c, 0, 64, 105
1, 329955, Note_off_c, 0, 85, 62
1, 329964, Note_on_c, 0, 82, 84
1, 330009, Note_on_c, 0, 85, 72
1, 330015, Note_off_c, 0, 82, 66
1, 330059, Note_off_c, 0, 85, 64
1, 330073, Note_on_c, 0, 82, 82
1, 330128, Note_on_c, 0, 85, 81
1, 330133, Note_off_c, 0, 82, 65
1, 330169, Note_off_c, 0, 85, 62
1, 330188, Note_on_c, 0, 82, 85
1, 330243, Note_on_c, 0, 85, 83
1, 330245, Note_off_c, 0, 82, 66
1, 330268, Control_c, 0, 64, 105
1, 330282, Note_off_c, 0, 85, 65
1, 330303, Note_on_c, 0, 82, 84
1, 330312, Control_c, 0, 64, 106
1, 330327, Control_c, 0, 64, 107
1, 330342, Control_c, 0, 64, 109
1, 330357, Note_on_c, 0, 85, 82
1, 330357, Control_c, 0, 64, 112
1, 330363, Note_off_c, 0, 82, 65
1, 330372, Control_c, 0, 64, 116
1, 330387, Control_c, 0, 64, 120
1, 330398, Note_off_c, 0, 85, 62
1, 330402, Control_c, 0, 64, 127
1, 330423, Note_on_c, 0, 82, 87
1, 330484, Note_on_c, 0, 85, 79
1, 330484, Note_off_c, 0, 82, 65
1, 330513, Note_off_c, 0, 85, 62
1, 330529, Note_on_c, 0, 82, 77
1, 330546, Note_off_c, 0, 54, 57
1, 330555, Note_off_c, 0, 42, 60
1, 330557, Control_c, 0, 64, 104
1, 330571, Control_c, 0, 64, 84
1, 330586, Control_c, 0, 64, 63
1, 330588, Note_on_c, 0, 85, 79
1, 330589, Note_off_c, 0, 82, 65
1, 330601, Control_c, 0, 64, 0
1, 330639, Note_off_c, 0, 85, 65
1, 330643, Note_on_c, 0, 55, 90
1, 330643, Note_on_c, 0, 82, 83
1, 330646, Control_c, 0, 64, 64
1, 330648, Note_on_c, 0, 43, 88
1, 330661, Control_c, 0, 64, 83
1, 330676, Control_c, 0, 64, 100
1, 330690, Note_off_c, 0, 43, 61
1, 330690, Note_off_c, 0, 55, 65
1, 330691, Control_c, 0, 64, 111
1, 330704, Note_on_c, 0, 85, 82
1, 330704, Note_off_c, 0, 82, 66
1, 330705, Control_c, 0, 64, 111
1, 330720, Control_c, 0, 64, 112
1, 330735, Control_c, 0, 64, 112
1, 330747, Note_off_c, 0, 85, 64
1, 330750, Control_c, 0, 64, 113
1, 330765, Control_c, 0, 64, 115
1, 330766, Note_on_c, 0, 82, 84
1, 330772, Note_on_c, 0, 46, 93
1, 330772, Note_on_c, 0, 58, 90
1, 330779, Control_c, 0, 64, 119
1, 330794, Control_c, 0, 64, 126
1, 330809, Control_c, 0, 64, 127
1, 330812, Note_off_c, 0, 58, 63
1, 330816, Note_off_c, 0, 46, 61
1, 330829, Note_off_c, 0, 82, 65
1, 330834, Note_on_c, 0, 85, 79
1, 330878, Note_off_c, 0, 85, 59
1, 330889, Note_on_c, 0, 82, 81
1, 330897, Note_on_c, 0, 61, 99
1, 330899, Note_on_c, 0, 49, 92
1, 330938, Note_off_c, 0, 49, 61
1, 330938, Note_off_c, 0, 61, 62
1, 330943, Note_off_c, 0, 82, 66
1, 330950, Note_on_c, 0, 85, 79
1, 331002, Note_off_c, 0, 85, 64
1, 331012, Note_on_c, 0, 82, 79
1, 331013, Note_on_c, 0, 64, 96
1, 331015, Note_on_c, 0, 52, 98
1, 331045, Note_off_c, 0, 52, 66
1, 331053, Note_off_c, 0, 64, 64
1, 331061, Note_on_c, 0, 85, 72
1, 331061, Note_off_c, 0, 82, 66
1, 331120, Note_off_c, 0, 85, 64
1, 331127, Note_on_c, 0, 79, 88
1, 331135, Note_on_c, 0, 55, 86
1, 331135, Note_on_c, 0, 67, 84
1, 331155, Note_off_c, 0, 55, 71
1, 331173, Note_off_c, 0, 67, 63
1, 331189, Note_off_c, 0, 79, 61
1, 331195, Note_on_c, 0, 82, 84
1, 331251, Note_on_c, 0, 58, 91
1, 331251, Note_on_c, 0, 70, 98
1, 331253, Note_off_c, 0, 82, 63
1, 331266, Note_on_c, 0, 77, 91
1, 331281, Note_off_c, 0, 58, 61
1, 331287, Note_off_c, 0, 70, 61
1, 331326, Note_on_c, 0, 79, 84
1, 331329, Note_off_c, 0, 77, 59
1, 331374, Note_on_c, 0, 73, 98
1, 331377, Note_on_c, 0, 61, 94
1, 331384, Note_off_c, 0, 79, 62
1, 331391, Note_on_c, 0, 77, 83
1, 331415, Note_off_c, 0, 73, 63
1, 331416, Note_off_c, 0, 61, 62
1, 331450, Note_off_c, 0, 77, 64
1, 331453, Note_on_c, 0, 79, 90
1, 331505, Note_on_c, 0, 73, 101
1, 331506, Note_on_c, 0, 82, 92
1, 331509, Note_on_c, 0, 61, 94
1, 331510, Note_off_c, 0, 79, 67
1, 331546, Note_off_c, 0, 73, 64
1, 331549, Note_off_c, 0, 61, 63
1, 331582, Note_on_c, 0, 79, 94
1, 331582, Note_off_c, 0, 82, 61
1, 331635, Note_off_c, 0, 79, 63
1, 331642, Note_on_c, 0, 73, 100
1, 331645, Note_on_c, 0, 77, 85
1, 331645, Note_on_c, 0, 61, 93
1, 331699, Note_off_c, 0, 73, 55
1, 331715, Note_on_c, 0, 79, 90
1, 331716, Note_off_c, 0, 61, 57
1, 331727, Note_off_c, 0, 77, 59
1, 331788, Note_off_c, 0, 79, 57
1, 331818, Note_on_c, 0, 73, 100
1, 331820, Note_on_c, 0, 61, 97
1, 331840, Control_c, 0, 64, 101
1, 331855, Control_c, 0, 64, 84
1, 331870, Control_c, 0, 64, 67
1, 331885, Control_c, 0, 64, 0
1, 331886, Note_on_c, 0, 77, 77
1, 331966, Note_on_c, 0, 82, 80
1, 331966, Control_c, 0, 64, 43
1, 331972, Note_off_c, 0, 77, 62
1, 331981, Control_c, 0, 64, 63
1, 331996, Control_c, 0, 64, 71
1, 332011, Control_c, 0, 64, 80
1, 332025, Control_c, 0, 64, 91
1, 332039, Note_on_c, 0, 79, 87
1, 332040, Control_c, 0, 64, 97
1, 332047, Note_off_c, 0, 82, 64
1, 332055, Control_c, 0, 64, 100
1, 332069, Control_c, 0, 64, 102
1, 332084, Control_c, 0, 64, 104
1, 332099, Note_on_c, 0, 77, 84
1, 332099, Control_c, 0, 64, 106
1, 332102, Note_off_c, 0, 79, 62
1, 332114, Control_c, 0, 64, 107
1, 332129, Control_c, 0, 64, 108
1, 332143, Control_c, 0, 64, 108
1, 332158, Control_c, 0, 64, 109
1, 332160, Note_on_c, 0, 82, 83
1, 332169, Note_off_c, 0, 73, 59
1, 332169, Note_off_c, 0, 77, 62
1, 332178, Note_off_c, 0, 61, 61
1, 332217, Note_off_c, 0, 82, 61
1, 332218, Control_c, 0, 64, 108
1, 332223, Note_on_c, 0, 72, 88
1, 332226, Note_on_c, 0, 60, 79
1, 332233, Control_c, 0, 64, 100
1, 332248, Control_c, 0, 64, 88
1, 332263, Control_c, 0, 64, 71
1, 332277, Control_c, 0, 64, 43
1, 332281, Note_on_c, 0, 76, 78
1, 332292, Control_c, 0, 64, 0
1, 332342, Note_off_c, 0, 76, 65
1, 332345, Note_on_c, 0, 82, 81
1, 332351, Control_c, 0, 64, 25
1, 332366, Control_c, 0, 64, 60
1, 332381, Control_c, 0, 64, 66
1, 332396, Control_c, 0, 64, 70
1, 332411, Control_c, 0, 64, 74
1, 332412, Note_off_c, 0, 82, 64
1, 332413, Note_on_c, 0, 79, 83
1, 332426, Control_c, 0, 64, 79
1, 332440, Control_c, 0, 64, 82
1, 332455, Control_c, 0, 64, 85
1, 332461, Note_on_c, 0, 76, 82
1, 332465, Note_off_c, 0, 79, 62
1, 332470, Control_c, 0, 64, 88
1, 332473, Note_off_c, 0, 72, 61
1, 332485, Control_c, 0, 64, 92
1, 332500, Control_c, 0, 64, 97
1, 332515, Control_c, 0, 64, 100
1, 332525, Note_on_c, 0, 82, 83
1, 332529, Note_off_c, 0, 76, 64
1, 332530, Control_c, 0, 64, 101
1, 332573, Note_off_c, 0, 60, 61
1, 332574, Control_c, 0, 64, 100
1, 332575, Note_off_c, 0, 82, 62
1, 332585, Note_on_c, 0, 65, 100
1, 332589, Control_c, 0, 64, 95
1, 332604, Control_c, 0, 64, 84
1, 332618, Control_c, 0, 64, 69
1, 332633, Control_c, 0, 64, 0
1, 332636, Note_on_c, 0, 73, 71
1, 332708, Note_on_c, 0, 82, 80
1, 332716, Note_off_c, 0, 73, 61
1, 332760, Control_c, 0, 64, 61
1, 332774, Control_c, 0, 64, 69
1, 332778, Note_on_c, 0, 79, 80
1, 332782, Note_off_c, 0, 82, 63
1, 332789, Control_c, 0, 64, 76
1, 332804, Control_c, 0, 64, 82
1, 332819, Control_c, 0, 64, 87
1, 332834, Control_c, 0, 64, 90
1, 332836, Note_on_c, 0, 73, 78
1, 332840, Note_off_c, 0, 79, 62
1, 332849, Control_c, 0, 64, 93
1, 332864, Control_c, 0, 64, 96
1, 332879, Control_c, 0, 64, 100
1, 332893, Control_c, 0, 64, 102
1, 332896, Note_on_c, 0, 82, 80
1, 332896, Note_off_c, 0, 73, 61
1, 332908, Control_c, 0, 64, 103
1, 332938, Control_c, 0, 64, 103
1, 332948, Note_off_c, 0, 82, 61
1, 332953, Control_c, 0, 64, 98
1, 332965, Note_on_c, 0, 64, 91
1, 332967, Control_c, 0, 64, 87
1, 332974, Note_off_c, 0, 65, 69
1, 332982, Control_c, 0, 64, 72
1, 332997, Control_c, 0, 64, 0
1, 333021, Note_on_c, 0, 72, 75
1, 333086, Control_c, 0, 64, 65
1, 333089, Note_on_c, 0, 82, 80
1, 333095, Note_off_c, 0, 72, 62
1, 333100, Control_c, 0, 64, 74
1, 333113, Note_off_c, 0, 64, 62
1, 333115, Control_c, 0, 64, 83
1, 333130, Control_c, 0, 64, 92
1, 333145, Control_c, 0, 64, 97
1, 333151, Note_on_c, 0, 79, 84
1, 333160, Control_c, 0, 64, 101
1, 333163, Note_off_c, 0, 82, 62
1, 333174, Control_c, 0, 64, 105
1, 333189, Control_c, 0, 64, 109
1, 333204, Control_c, 0, 64, 112
1, 333210, Note_on_c, 0, 72, 78
1, 333212, Note_off_c, 0, 79, 62
1, 333219, Control_c, 0, 64, 115
1, 333234, Control_c, 0, 64, 118
1, 333248, Control_c, 0, 64, 119
1, 333263, Control_c, 0, 64, 120
1, 333266, Note_off_c, 0, 72, 66
1, 333272, Note_on_c, 0, 82, 88
1, 333308, Control_c, 0, 64, 118
1, 333323, Control_c, 0, 64, 108
1, 333338, Control_c, 0, 64, 96
1, 333338, Note_off_c, 0, 82, 62
1, 333350, Note_on_c, 0, 73, 100
1, 333353, Control_c, 0, 64, 81
1, 333367, Control_c, 0, 64, 65
1, 333382, Control_c, 0, 64, 0
1, 333417, Note_on_c, 0, 77, 77
1, 333477, Note_on_c, 0, 82, 80
1, 333481, Note_off_c, 0, 77, 62
1, 333523, Control_c, 0, 64, 54
1, 333538, Control_c, 0, 64, 67
1, 333544, Note_off_c, 0, 82, 63
1, 333546, Note_on_c, 0, 79, 80
1, 333553, Control_c, 0, 64, 73
1, 333568, Control_c, 0, 64, 82
1, 333583, Control_c, 0, 64, 89
1, 333596, Note_off_c, 0, 79, 64
1, 333597, Control_c, 0, 64, 92
1, 333600, Note_on_c, 0, 77, 82
1, 333612, Control_c, 0, 64, 94
1, 333627, Control_c, 0, 64, 95
1, 333642, Control_c, 0, 64, 96
1, 333657, Control_c, 0, 64, 97
1, 333660, Note_on_c, 0, 82, 79
1, 333666, Note_off_c, 0, 77, 62
1, 333672, Control_c, 0, 64, 97
1, 333686, Control_c, 0, 64, 97
1, 333707, Note_off_c, 0, 82, 61
1, 333713, Note_off_c, 0, 73, 61
1, 333716, Control_c, 0, 64, 93
1, 333724, Note_on_c, 0, 72, 88
1, 333731, Control_c, 0, 64, 83
1, 333746, Control_c, 0, 64, 68
1, 333761, Control_c, 0, 64, 0
1, 333776, Note_on_c, 0, 76, 75
1, 333839, Note_off_c, 0, 76, 64
1, 333841, Note_on_c, 0, 82, 84
1, 333848, Note_off_c, 0, 72, 65
1, 333849, Control_c, 0, 64, 61
1, 333864, Control_c, 0, 64, 70
1, 333879, Control_c, 0, 64, 78
1, 333894, Control_c, 0, 64, 85
1, 333909, Control_c, 0, 64, 89
1, 333913, Note_on_c, 0, 79, 82
1, 333916, Note_off_c, 0, 82, 63
1, 333923, Control_c, 0, 64, 91
1, 333938, Control_c, 0, 64, 94
1, 333953, Control_c, 0, 64, 97
1, 333960, Note_on_c, 0, 76, 79
1, 333964, Note_off_c, 0, 79, 62
1, 333968, Control_c, 0, 64, 100
1, 333983, Control_c, 0, 64, 102
1, 333997, Control_c, 0, 64, 104
1, 334012, Control_c, 0, 64, 105
1, 334017, Note_off_c, 0, 76, 68
1, 334018, Note_on_c, 0, 82, 85
1, 334027, Control_c, 0, 64, 105
1, 334055, Note_off_c, 0, 82, 64
1, 334056, Control_c, 0, 64, 101
1, 334071, Control_c, 0, 64, 89
1, 334072, Note_on_c, 0, 71, 80
1, 334086, Control_c, 0, 64, 65
1, 334101, Control_c, 0, 64, 0
1, 334119, Note_on_c, 0, 74, 72
1, 334192, Note_on_c, 0, 77, 82
1, 334212, Control_c, 0, 64, 56
1, 334227, Control_c, 0, 64, 70
1, 334235, Note_on_c, 0, 80, 88
1, 334243, Control_c, 0, 64, 82
1, 334258, Control_c, 0, 64, 96
1, 334273, Control_c, 0, 64, 103
1, 334288, Control_c, 0, 64, 105
1, 334290, Note_on_c, 0, 83, 75
1, 334302, Control_c, 0, 64, 106
1, 334317, Control_c, 0, 64, 108
1, 334332, Control_c, 0, 64, 110
1, 334341, Note_on_c, 0, 86, 71
1, 334346, Control_c, 0, 64, 112
1, 334353, Note_off_c, 0, 83, 61
1, 334361, Control_c, 0, 64, 112
1, 334376, Control_c, 0, 64, 113
1, 334391, Control_c, 0, 64, 113
1, 334392, Note_off_c, 0, 71, 58
1, 334393, Note_on_c, 0, 89, 91
1, 334396, Note_off_c, 0, 86, 64
1, 334406, Control_c, 0, 64, 114
1, 334408, Note_off_c, 0, 80, 64
1, 334435, Control_c, 0, 64, 114
1, 334447, Note_off_c, 0, 74, 62
1, 334450, Control_c, 0, 64, 115
1, 334456, Note_on_c, 0, 86, 85
1, 334456, Note_off_c, 0, 77, 59
1, 334464, Note_off_c, 0, 89, 65
1, 334464, Control_c, 0, 64, 116
1, 334479, Control_c, 0, 64, 118
1, 334494, Control_c, 0, 64, 123
1, 334509, Control_c, 0, 64, 127
1, 334510, Note_off_c, 0, 86, 65
1, 334515, Note_on_c, 0, 83, 81
1, 334555, Note_off_c, 0, 83, 64
1, 334575, Note_on_c, 0, 92, 90
1, 334636, Note_on_c, 0, 91, 89
1, 334647, Note_on_c, 0, 93, 38
1, 334649, Note_off_c, 0, 92, 63
1, 334677, Note_off_c, 0, 93, 41
1, 334701, Control_c, 0, 64, 111
1, 334704, Note_on_c, 0, 89, 90
1, 334716, Control_c, 0, 64, 91
1, 334722, Note_off_c, 0, 91, 60
1, 334731, Control_c, 0, 64, 70
1, 334745, Control_c, 0, 64, 0
1, 334749, Note_on_c, 0, 72, 74
1, 334755, Note_off_c, 0, 89, 67
1, 334757, Note_on_c, 0, 88, 82
1, 334789, Note_on_c, 0, 76, 80
1, 334794, Note_off_c, 0, 88, 66
1, 334818, Note_on_c, 0, 91, 94
1, 334819, Control_c, 0, 64, 62
1, 334834, Control_c, 0, 64, 74
1, 334849, Control_c, 0, 64, 86
1, 334862, Note_on_c, 0, 79, 81
1, 334864, Control_c, 0, 64, 91
1, 334873, Note_on_c, 0, 89, 81
1, 334879, Control_c, 0, 64, 92
1, 334894, Control_c, 0, 64, 93
1, 334904, Note_off_c, 0, 91, 61
1, 334916, Control_c, 0, 64, 94
1, 334931, Control_c, 0, 64, 96
1, 334942, Note_on_c, 0, 88, 80
1, 334945, Control_c, 0, 64, 98
1, 334954, Note_off_c, 0, 89, 66
1, 334960, Control_c, 0, 64, 99
1, 334975, Control_c, 0, 64, 101
1, 334983, Note_off_c, 0, 79, 60
1, 334990, Control_c, 0, 64, 102
1, 334991, Note_off_c, 0, 88, 63
1, 334992, Note_on_c, 0, 85, 88
1, 335005, Control_c, 0, 64, 103
1, 335010, Note_off_c, 0, 72, 60
1, 335019, Control_c, 0, 64, 104
1, 335030, Note_off_c, 0, 85, 66
1, 335034, Control_c, 0, 64, 106
1, 335048, Note_on_c, 0, 84, 79
1, 335050, Control_c, 0, 64, 107
1, 335052, Note_off_c, 0, 76, 64
1, 335065, Control_c, 0, 64, 108
1, 335080, Control_c, 0, 64, 109
1, 335094, Control_c, 0, 64, 110
1, 335108, Note_off_c, 0, 84, 61
1, 335109, Control_c, 0, 64, 111
1, 335121, Note_on_c, 0, 83, 51
1, 335124, Control_c, 0, 64, 111
1, 335139, Control_c, 0, 64, 112
1, 335143, Note_off_c, 0, 83, 57
1, 335168, Control_c, 0, 64, 112
1, 335184, Note_on_c, 0, 86, 57
1, 335222, Note_off_c, 0, 86, 57
1, 335225, Note_on_c, 0, 84, 57
1, 335285, Note_on_c, 0, 82, 76
1, 335303, Note_off_c, 0, 84, 64
1, 335347, Note_off_c, 0, 82, 62
1, 335355, Note_on_c, 0, 80, 74
1, 335385, Note_off_c, 0, 80, 64
1, 335391, Control_c, 0, 64, 112
1, 335406, Control_c, 0, 64, 107
1, 335421, Control_c, 0, 64, 99
1, 335430, Note_on_c, 0, 79, 55
1, 335435, Control_c, 0, 64, 86
1, 335450, Control_c, 0, 64, 73
1, 335451, Note_off_c, 0, 79, 59
1, 335465, Control_c, 0, 64, 59
1, 335480, Control_c, 0, 64, 0
1, 335493, Note_on_c, 0, 68, 58
1, 335496, Note_on_c, 0, 65, 51
1, 335602, Note_on_c, 0, 77, 57
1, 335634, Note_off_c, 0, 77, 63
1, 335642, Control_c, 0, 64, 65
1, 335648, Note_on_c, 0, 80, 53
1, 335665, Control_c, 0, 64, 73
1, 335680, Control_c, 0, 64, 81
1, 335694, Control_c, 0, 64, 85
1, 335697, Note_off_c, 0, 80, 63
1, 335709, Control_c, 0, 64, 85
1, 335710, Note_on_c, 0, 84, 68
1, 335724, Control_c, 0, 64, 86
1, 335739, Control_c, 0, 64, 86
1, 335754, Control_c, 0, 64, 87
1, 335762, Note_off_c, 0, 84, 57
1, 335768, Control_c, 0, 64, 87
1, 335774, Note_on_c, 0, 89, 68
1, 335783, Control_c, 0, 64, 88
1, 335807, Note_off_c, 0, 89, 65
1, 335812, Control_c, 0, 64, 88
1, 335814, Note_off_c, 0, 68, 52
1, 335827, Note_off_c, 0, 65, 54
1, 335839, Note_on_c, 0, 77, 60
1, 335844, Control_c, 0, 64, 88
1, 335858, Note_off_c, 0, 77, 61
1, 335859, Control_c, 0, 64, 84
1, 335873, Control_c, 0, 64, 75
1, 335888, Control_c, 0, 64, 62
1, 335893, Note_on_c, 0, 70, 51
1, 335900, Note_on_c, 0, 73, 56
1, 335903, Control_c, 0, 64, 0
1, 335991, Control_c, 0, 64, 51
1, 336006, Control_c, 0, 64, 66
1, 336021, Control_c, 0, 64, 71
1, 336035, Control_c, 0, 64, 76
1, 336050, Control_c, 0, 64, 80
1, 336065, Control_c, 0, 64, 82
1, 336079, Note_on_c, 0, 89, 69
1, 336080, Control_c, 0, 64, 84
1, 336095, Control_c, 0, 64, 85
1, 336105, Note_off_c, 0, 89, 68
1, 336109, Control_c, 0, 64, 86
1, 336124, Control_c, 0, 64, 87
1, 336132, Note_on_c, 0, 77, 63
1, 336139, Control_c, 0, 64, 88
1, 336154, Control_c, 0, 64, 88
1, 336158, Note_off_c, 0, 73, 35
1, 336168, Note_off_c, 0, 77, 62
1, 336196, Note_on_c, 0, 89, 56
1, 336217, Note_off_c, 0, 89, 60
1, 336226, Note_off_c, 0, 70, 57
1, 336228, Control_c, 0, 64, 85
1, 336242, Note_on_c, 0, 72, 63
1, 336242, Control_c, 0, 64, 77
1, 336243, Note_on_c, 0, 68, 59
1, 336257, Control_c, 0, 64, 65
1, 336272, Control_c, 0, 64, 0
1, 336376, Control_c, 0, 64, 58
1, 336390, Control_c, 0, 64, 67
1, 336413, Control_c, 0, 64, 72
1, 336428, Control_c, 0, 64, 76
1, 336442, Control_c, 0, 64, 80
1, 336446, Note_on_c, 0, 89, 63
1, 336457, Control_c, 0, 64, 82
1, 336464, Note_off_c, 0, 89, 65
1, 336472, Control_c, 0, 64, 84
1, 336487, Control_c, 0, 64, 85
1, 336500, Note_on_c, 0, 77, 60
1, 336502, Control_c, 0, 64, 86
1, 336513, Note_off_c, 0, 72, 59
1, 336516, Control_c, 0, 64, 87
1, 336518, Note_off_c, 0, 68, 56
1, 336523, Note_off_c, 0, 77, 63
1, 336538, Note_on_c, 0, 89, 74
1, 336546, Control_c, 0, 64, 88
1, 336560, Note_off_c, 0, 89, 71
1, 336576, Control_c, 0, 64, 87
1, 336590, Control_c, 0, 64, 84
1, 336605, Control_c, 0, 64, 75
1, 336614, Note_on_c, 0, 70, 62
1, 336615, Note_on_c, 0, 67, 64
1, 336615, Note_on_c, 0, 72, 74
1, 336620, Control_c, 0, 64, 62
1, 336636, Control_c, 0, 64, 0
1, 336740, Control_c, 0, 64, 53
1, 336755, Control_c, 0, 64, 65
1, 336770, Control_c, 0, 64, 70
1, 336785, Control_c, 0, 64, 74
1, 336800, Note_on_c, 0, 88, 63
1, 336800, Control_c, 0, 64, 78
1, 336814, Control_c, 0, 64, 82
1, 336826, Note_off_c, 0, 88, 64
1, 336829, Control_c, 0, 64, 83
1, 336844, Control_c, 0, 64, 84
1, 336857, Note_on_c, 0, 76, 63
1, 336859, Control_c, 0, 64, 86
1, 336873, Control_c, 0, 64, 87
1, 336877, Note_off_c, 0, 67, 57
1, 336885, Note_off_c, 0, 76, 68
1, 336903, Control_c, 0, 64, 87
1, 336906, Note_on_c, 0, 88, 64
1, 336909, Note_off_c, 0, 70, 53
1, 336938, Note_off_c, 0, 88, 61
1, 336948, Control_c, 0, 64, 84
1, 336957, Note_off_c, 0, 72, 59
1, 336962, Control_c, 0, 64, 76
1, 336974, Note_on_c, 0, 68, 56
1, 336977, Control_c, 0, 64, 64
1, 336981, Note_on_c, 0, 65, 45
1, 336992, Control_c, 0, 64, 0
1, 337053, Note_on_c, 0, 77, 55
1, 337081, Control_c, 0, 64, 44
1, 337091, Note_on_c, 0, 80, 59
1, 337094, Note_off_c, 0, 77, 58
1, 337096, Control_c, 0, 64, 66
1, 337111, Control_c, 0, 64, 72
1, 337121, Note_off_c, 0, 68, 66
1, 337126, Control_c, 0, 64, 78
1, 337129, Note_off_c, 0, 80, 60
1, 337130, Note_off_c, 0, 65, 66
1, 337140, Control_c, 0, 64, 81
1, 337147, Note_on_c, 0, 84, 70
1, 337162, Control_c, 0, 64, 83
1, 337177, Control_c, 0, 64, 84
1, 337192, Control_c, 0, 64, 85
1, 337207, Control_c, 0, 64, 85
1, 337210, Note_off_c, 0, 84, 59
1, 337211, Note_on_c, 0, 89, 73
1, 337222, Control_c, 0, 64, 86
1, 337237, Control_c, 0, 64, 86
1, 337243, Note_off_c, 0, 89, 63
1, 337252, Control_c, 0, 64, 87
1, 337268, Note_on_c, 0, 77, 69
1, 337281, Control_c, 0, 64, 88
1, 337289, Note_off_c, 0, 77, 64
1, 337311, Control_c, 0, 64, 87
1, 337326, Control_c, 0, 64, 81
1, 337338, Note_on_c, 0, 61, 61
1, 337340, Note_on_c, 0, 58, 57
1, 337340, Control_c, 0, 64, 67
1, 337355, Control_c, 0, 64, 0
1, 337445, Control_c, 0, 64, 30
1, 337460, Control_c, 0, 64, 61
1, 337475, Control_c, 0, 64, 67
1, 337489, Control_c, 0, 64, 71
1, 337504, Control_c, 0, 64, 75
1, 337514, Note_on_c, 0, 77, 62
1, 337519, Control_c, 0, 64, 78
1, 337534, Control_c, 0, 64, 80
1, 337536, Note_off_c, 0, 77, 62
1, 337549, Control_c, 0, 64, 82
1, 337563, Note_on_c, 0, 65, 64
1, 337563, Control_c, 0, 64, 84
1, 337578, Control_c, 0, 64, 85
1, 337580, Note_off_c, 0, 61, 53
1, 337593, Control_c, 0, 64, 86
1, 337601, Note_off_c, 0, 65, 64
1, 337608, Control_c, 0, 64, 86
1, 337611, Note_on_c, 0, 77, 69
1, 337627, Note_off_c, 0, 77, 66
1, 337665, Note_off_c, 0, 58, 61
1, 337667, Control_c, 0, 64, 83
1, 337676, Note_on_c, 0, 60, 64
1, 337678, Note_on_c, 0, 56, 54
1, 337681, Control_c, 0, 64, 73
1, 337696, Control_c, 0, 64, 54
1, 337711, Control_c, 0, 64, 0
1, 337830, Control_c, 0, 64, 49
1, 337845, Control_c, 0, 64, 65
1, 337860, Control_c, 0, 64, 70
1, 337870, Note_on_c, 0, 77, 57
1, 337875, Control_c, 0, 64, 74
1, 337889, Control_c, 0, 64, 77
1, 337890, Note_off_c, 0, 77, 63
1, 337911, Control_c, 0, 64, 79
1, 337926, Control_c, 0, 64, 81
1, 337933, Note_on_c, 0, 65, 61
1, 337941, Control_c, 0, 64, 83
1, 337952, Note_off_c, 0, 60, 58
1, 337954, Note_off_c, 0, 56, 57
1, 337956, Control_c, 0, 64, 84
1, 337964, Note_off_c, 0, 65, 69
1, 337970, Control_c, 0, 64, 85
1, 337971, Note_on_c, 0, 77, 77
1, 337993, Note_off_c, 0, 77, 68
1, 338015, Control_c, 0, 64, 80
1, 338030, Control_c, 0, 64, 70
1, 338042, Note_on_c, 0, 60, 77
1, 338045, Control_c, 0, 64, 33
1, 338045, Note_on_c, 0, 55, 60
1, 338048, Note_on_c, 0, 58, 60
1, 338059, Control_c, 0, 64, 0
1, 338178, Control_c, 0, 64, 40
1, 338193, Control_c, 0, 64, 66
1, 338207, Control_c, 0, 64, 74
1, 338214, Note_on_c, 0, 76, 57
1, 338222, Control_c, 0, 64, 80
1, 338238, Control_c, 0, 64, 82
1, 338241, Note_off_c, 0, 76, 65
1, 338253, Control_c, 0, 64, 84
1, 338268, Control_c, 0, 64, 85
1, 338270, Note_on_c, 0, 64, 53
1, 338283, Control_c, 0, 64, 86
1, 338298, Control_c, 0, 64, 88
1, 338298, Note_off_c, 0, 64, 64
1, 338307, Note_off_c, 0, 55, 58
1, 338325, Note_on_c, 0, 76, 57
1, 338327, Control_c, 0, 64, 88
1, 338337, Note_off_c, 0, 58, 55
1, 338344, Note_off_c, 0, 76, 67
1, 338357, Control_c, 0, 64, 88
1, 338372, Control_c, 0, 64, 86
1, 338386, Control_c, 0, 64, 81
1, 338401, Control_c, 0, 64, 70
1, 338407, Note_on_c, 0, 53, 46
1, 338408, Note_on_c, 0, 56, 52
1, 338416, Control_c, 0, 64, 50
1, 338428, Note_off_c, 0, 60, 59
1, 338431, Control_c, 0, 64, 0
1, 338481, Note_on_c, 0, 77, 57
1, 338541, Note_on_c, 0, 80, 50
1, 338549, Control_c, 0, 64, 63
1, 338550, Note_off_c, 0, 77, 59
1, 338564, Control_c, 0, 64, 71
1, 338578, Control_c, 0, 64, 79
1, 338583, Note_off_c, 0, 80, 62
1, 338585, Note_off_c, 0, 56, 64
1, 338593, Note_off_c, 0, 53, 66
1, 338593, Control_c, 0, 64, 83
1, 338602, Note_on_c, 0, 84, 68
1, 338608, Control_c, 0, 64, 84
1, 338623, Control_c, 0, 64, 85
1, 338638, Control_c, 0, 64, 86
1, 338659, Note_off_c, 0, 84, 58
1, 338660, Control_c, 0, 64, 86
1, 338668, Note_on_c, 0, 89, 64
1, 338675, Control_c, 0, 64, 87
1, 338721, Note_off_c, 0, 89, 54
1, 338728, Note_on_c, 0, 77, 60
1, 338751, Note_off_c, 0, 77, 60
1, 338779, Control_c, 0, 64, 82
1, 338793, Control_c, 0, 64, 74
1, 338796, Note_on_c, 0, 49, 63
1, 338802, Note_on_c, 0, 46, 49
1, 338808, Control_c, 0, 64, 62
1, 338823, Control_c, 0, 64, 0
1, 338942, Control_c, 0, 64, 49
1, 338957, Control_c, 0, 64, 62
1, 338972, Control_c, 0, 64, 66
1, 338986, Control_c, 0, 64, 69
1, 338993, Note_on_c, 0, 89, 59
1, 339001, Control_c, 0, 64, 73
1, 339016, Control_c, 0, 64, 77
1, 339029, Note_off_c, 0, 89, 64
1, 339031, Control_c, 0, 64, 79
1, 339046, Control_c, 0, 64, 80
1, 339047, Note_off_c, 0, 49, 60
1, 339061, Control_c, 0, 64, 80
1, 339066, Note_on_c, 0, 77, 53
1, 339076, Control_c, 0, 64, 81
1, 339091, Control_c, 0, 64, 81
1, 339099, Note_off_c, 0, 77, 48
1, 339106, Control_c, 0, 64, 82
1, 339124, Note_on_c, 0, 89, 51
1, 339146, Note_off_c, 0, 89, 56
1, 339165, Control_c, 0, 64, 81
1, 339180, Control_c, 0, 64, 76
1, 339189, Note_on_c, 0, 48, 57
1, 339193, Note_on_c, 0, 44, 50
1, 339195, Control_c, 0, 64, 67
1, 339209, Control_c, 0, 64, 39
1, 339213, Note_off_c, 0, 46, 35
1, 339224, Control_c, 0, 64, 0
1, 339327, Control_c, 0, 64, 43
1, 339342, Control_c, 0, 64, 65
1, 339357, Control_c, 0, 64, 71
1, 339372, Control_c, 0, 64, 75
1, 339387, Control_c, 0, 64, 80
1, 339409, Control_c, 0, 64, 82
1, 339412, Note_on_c, 0, 89, 62
1, 339424, Control_c, 0, 64, 83
1, 339439, Control_c, 0, 64, 85
1, 339451, Note_off_c, 0, 89, 61
1, 339454, Control_c, 0, 64, 86
1, 339457, Note_off_c, 0, 44, 61
1, 339468, Control_c, 0, 64, 87
1, 339483, Control_c, 0, 64, 88
1, 339495, Note_on_c, 0, 77, 47
1, 339498, Control_c, 0, 64, 89
1, 339513, Control_c, 0, 64, 90
1, 339519, Note_off_c, 0, 48, 31
1, 339528, Control_c, 0, 64, 91
1, 339539, Note_off_c, 0, 77, 45
1, 339542, Control_c, 0, 64, 92
1, 339547, Note_on_c, 0, 89, 57
1, 339573, Note_off_c, 0, 89, 59
1, 339602, Control_c, 0, 64, 91
1, 339616, Control_c, 0, 64, 86
1, 339627, Note_on_c, 0, 48, 59
1, 339631, Control_c, 0, 64, 75
1, 339636, Note_on_c, 0, 43, 47
1, 339636, Note_on_c, 0, 46, 52
1, 339646, Control_c, 0, 64, 62
1, 339660, Control_c, 0, 64, 0
1, 339794, Control_c, 0, 64, 36
1, 339809, Control_c, 0, 64, 62
1, 339824, Control_c, 0, 64, 67
1, 339840, Control_c, 0, 64, 71
1, 339855, Control_c, 0, 64, 75
1, 339870, Control_c, 0, 64, 79
1, 339884, Control_c, 0, 64, 82
1, 339896, Note_on_c, 0, 88, 60
1, 339899, Control_c, 0, 64, 84
1, 339905, Note_off_c, 0, 48, 56
1, 339914, Control_c, 0, 64, 85
1, 339929, Control_c, 0, 64, 87
1, 339944, Control_c, 0, 64, 89
1, 339958, Control_c, 0, 64, 92
1, 339973, Control_c, 0, 64, 94
1, 339988, Note_off_c, 0, 46, 62
1, 339988, Control_c, 0, 64, 96
1, 340001, Note_off_c, 0, 88, 55
1, 340003, Control_c, 0, 64, 98
1, 340018, Control_c, 0, 64, 100
1, 340021, Note_off_c, 0, 43, 40
1, 340033, Control_c, 0, 64, 103
1, 340048, Control_c, 0, 64, 105
1, 340049, Note_on_c, 0, 76, 38
1, 340063, Control_c, 0, 64, 106
1, 340077, Control_c, 0, 64, 108
1, 340092, Control_c, 0, 64, 109
1, 340107, Control_c, 0, 64, 110
1, 340122, Control_c, 0, 64, 110
1, 340176, Note_off_c, 0, 76, 43
1, 340179, Note_on_c, 0, 88, 48
1, 340337, Control_c, 0, 64, 110
1, 340425, Control_c, 0, 64, 109
1, 340440, Control_c, 0, 64, 108
1, 340455, Control_c, 0, 64, 104
1, 340470, Control_c, 0, 64, 97
1, 340471, Note_off_c, 0, 88, 56
1, 340483, Control_c, 0, 64, 88
1, 340498, Control_c, 0, 64, 78
1, 340505, Note_on_c, 0, 89, 50
1, 340513, Note_on_c, 0, 41, 45
1, 340513, Control_c, 0, 64, 68
1, 340528, Control_c, 0, 64, 45
1, 340543, Control_c, 0, 64, 0
1, 340706, Control_c, 0, 64, 43
1, 340721, Control_c, 0, 64, 63
1, 340736, Control_c, 0, 64, 67
1, 340751, Control_c, 0, 64, 70
1, 340766, Control_c, 0, 64, 74
1, 340778, Note_off_c, 0, 89, 59
1, 340781, Control_c, 0, 64, 80
1, 340796, Control_c, 0, 64, 83
1, 340802, Note_on_c, 0, 84, 34
1, 340811, Control_c, 0, 64, 85
1, 340825, Control_c, 0, 64, 87
1, 340840, Control_c, 0, 64, 88
1, 340855, Control_c, 0, 64, 90
1, 340870, Control_c, 0, 64, 92
1, 340878, Note_off_c, 0, 84, 51
1, 340885, Control_c, 0, 64, 93
1, 340889, Note_on_c, 0, 80, 49
1, 340906, Control_c, 0, 64, 93
1, 340936, Control_c, 0, 64, 94
1, 340951, Control_c, 0, 64, 94
1, 340987, Note_off_c, 0, 80, 38
1, 340996, Control_c, 0, 64, 95
1, 341001, Note_on_c, 0, 84, 52
1, 341036, Note_off_c, 0, 84, 61
1, 341059, Note_on_c, 0, 89, 51
1, 341085, Control_c, 0, 64, 95
1, 341100, Control_c, 0, 64, 96
1, 341112, Note_off_c, 0, 89, 54
1, 341114, Control_c, 0, 64, 96
1, 341129, Control_c, 0, 64, 97
1, 341139, Note_on_c, 0, 84, 48
1, 341144, Control_c, 0, 64, 97
1, 341163, Note_off_c, 0, 84, 61
1, 341174, Control_c, 0, 64, 98
1, 341191, Note_on_c, 0, 80, 47
1, 341203, Control_c, 0, 64, 99
1, 341218, Control_c, 0, 64, 99
1, 341248, Note_on_c, 0, 84, 60
1, 341277, Control_c, 0, 64, 100
1, 341282, Note_off_c, 0, 80, 38
1, 341290, Note_off_c, 0, 84, 59
1, 341326, Note_on_c, 0, 89, 50
1, 341377, Note_off_c, 0, 89, 56
1, 341386, Note_on_c, 0, 84, 49
1, 341395, Control_c, 0, 64, 100
1, 341417, Note_off_c, 0, 84, 56
1, 341449, Note_on_c, 0, 80, 52
1, 341509, Note_off_c, 0, 80, 53
1, 341511, Note_on_c, 0, 84, 63
1, 341551, Note_on_c, 0, 36, 38
1, 341563, Note_off_c, 0, 84, 55
1, 341579, Note_on_c, 0, 89, 51
1, 341625, Note_on_c, 0, 84, 46
1, 341630, Note_off_c, 0, 89, 53
1, 341700, Note_off_c, 0, 84, 64
1, 341723, Note_on_c, 0, 80, 53
1, 341795, Note_on_c, 0, 84, 51
1, 341801, Note_off_c, 0, 80, 59
1, 341836, Note_off_c, 0, 84, 63
1, 341874, Note_on_c, 0, 89, 43
1, 341911, Note_off_c, 0, 89, 53
1, 341947, Note_on_c, 0, 84, 49
1, 341983, Note_off_c, 0, 84, 50
1, 342011, Note_on_c, 0, 89, 51
1, 342015, Note_on_c, 0, 32, 46
1, 342054, Note_off_c, 0, 89, 62
1, 342093, Note_on_c, 0, 84, 54
1, 342156, Note_off_c, 0, 84, 56
1, 342180, Note_on_c, 0, 89, 47
1, 342233, Note_off_c, 0, 89, 59
1, 342283, Note_on_c, 0, 84, 54
1, 342293, Control_c, 0, 67, 8
1, 342308, Control_c, 0, 67, 11
1, 342323, Control_c, 0, 67, 14
1, 342328, Note_off_c, 0, 84, 53
1, 342338, Control_c, 0, 67, 19
1, 342352, Control_c, 0, 67, 25
1, 342367, Control_c, 0, 67, 31
1, 342379, Note_on_c, 0, 89, 44
1, 342382, Control_c, 0, 67, 36
1, 342405, Control_c, 0, 67, 40
1, 342420, Control_c, 0, 67, 44
1, 342432, Note_off_c, 0, 89, 60
1, 342434, Control_c, 0, 67, 48
1, 342449, Control_c, 0, 67, 52
1, 342464, Control_c, 0, 67, 57
1, 342479, Control_c, 0, 67, 62
1, 342479, Note_on_c, 0, 84, 40
1, 342493, Control_c, 0, 67, 67
1, 342508, Control_c, 0, 64, 100
1, 342508, Control_c, 0, 67, 72
1, 342523, Control_c, 0, 67, 77
1, 342538, Control_c, 0, 67, 80
1, 342552, Control_c, 0, 67, 84
1, 342567, Control_c, 0, 67, 88
1, 342582, Control_c, 0, 67, 92
1, 342597, Control_c, 0, 67, 97
1, 342612, Control_c, 0, 67, 103
1, 342623, Note_on_c, 0, 29, 48
1, 342626, Control_c, 0, 67, 109
1, 342632, Note_off_c, 0, 84, 45
1, 342641, Control_c, 0, 67, 113
1, 342655, Note_on_c, 0, 89, 41
1, 342656, Control_c, 0, 67, 117
1, 342671, Control_c, 0, 67, 120
1, 342686, Control_c, 0, 67, 123
1, 342701, Control_c, 0, 67, 127
1, 342742, Note_off_c, 0, 32, 33
1, 342813, Note_on_c, 0, 84, 41
1, 342819, Note_off_c, 0, 89, 34
1, 342825, Note_off_c, 0, 41, 45
1, 342872, Note_off_c, 0, 84, 60
1, 342905, Note_on_c, 0, 80, 42
1, 342996, Note_on_c, 0, 84, 53
1, 343001, Note_off_c, 0, 80, 42
1, 343031, Note_off_c, 0, 84, 58
1, 343056, Note_on_c, 0, 89, 49
1, 343095, Note_off_c, 0, 89, 56
1, 343127, Note_off_c, 0, 36, 38
1, 343129, Note_on_c, 0, 84, 57
1, 343160, Note_off_c, 0, 84, 64
1, 343212, Note_on_c, 0, 80, 42
1, 343258, Note_on_c, 0, 84, 54
1, 343270, Note_off_c, 0, 80, 45
1, 343301, Note_off_c, 0, 84, 60
1, 343323, Note_on_c, 0, 89, 52
1, 343368, Note_off_c, 0, 89, 59
1, 343389, Note_on_c, 0, 84, 48
1, 343413, Note_off_c, 0, 84, 62
1, 343461, Note_on_c, 0, 80, 45
1, 343505, Note_on_c, 0, 84, 59
1, 343517, Note_off_c, 0, 80, 49
1, 343553, Note_off_c, 0, 84, 61
1, 343577, Note_on_c, 0, 89, 56
1, 343622, Note_off_c, 0, 89, 60
1, 343646, Note_on_c, 0, 84, 49
1, 343672, Note_off_c, 0, 84, 61
1, 343708, Note_on_c, 0, 80, 55
1, 343755, Note_on_c, 0, 84, 64
1, 343765, Note_off_c, 0, 80, 57
1, 343803, Note_off_c, 0, 84, 58
1, 343835, Note_on_c, 0, 89, 44
1, 343861, Note_off_c, 0, 89, 57
1, 343881, Note_on_c, 0, 84, 56
1, 343924, Note_off_c, 0, 84, 64
1, 343947, Note_on_c, 0, 32, 49
1, 343956, Note_on_c, 0, 89, 57
1, 343962, Control_c, 0, 64, 99
1, 343977, Control_c, 0, 64, 98
1, 343992, Control_c, 0, 64, 96
1, 344003, Note_off_c, 0, 89, 55
1, 344006, Control_c, 0, 64, 94
1, 344017, Note_on_c, 0, 84, 62
1, 344021, Control_c, 0, 64, 90
1, 344036, Control_c, 0, 64, 85
1, 344051, Note_off_c, 0, 84, 63
1, 344051, Control_c, 0, 64, 80
1, 344066, Control_c, 0, 64, 77
1, 344081, Control_c, 0, 64, 74
1, 344090, Note_on_c, 0, 80, 60
1, 344096, Control_c, 0, 64, 74
1, 344125, Control_c, 0, 64, 74
1, 344140, Control_c, 0, 64, 76
1, 344155, Control_c, 0, 64, 77
1, 344158, Note_on_c, 0, 84, 61
1, 344170, Control_c, 0, 64, 79
1, 344185, Control_c, 0, 64, 80
1, 344189, Note_off_c, 0, 80, 38
1, 344199, Control_c, 0, 64, 82
1, 344212, Note_off_c, 0, 84, 59
1, 344214, Control_c, 0, 64, 82
1, 344228, Note_on_c, 0, 89, 55
1, 344228, Control_c, 0, 64, 83
1, 344239, Note_on_c, 0, 36, 49
1, 344260, Note_off_c, 0, 89, 55
1, 344285, Note_on_c, 0, 84, 60
1, 344287, Control_c, 0, 64, 81
1, 344302, Control_c, 0, 64, 76
1, 344317, Control_c, 0, 64, 68
1, 344320, Note_off_c, 0, 84, 65
1, 344323, Note_on_c, 0, 41, 59
1, 344331, Control_c, 0, 64, 54
1, 344333, Note_off_c, 0, 36, 61
1, 344345, Note_on_c, 0, 89, 63
1, 344346, Control_c, 0, 64, 31
1, 344352, Note_off_c, 0, 32, 56
1, 344353, Note_off_c, 0, 29, 43
1, 344361, Control_c, 0, 64, 33
1, 344376, Control_c, 0, 64, 46
1, 344391, Control_c, 0, 64, 57
1, 344403, Note_off_c, 0, 89, 56
1, 344406, Control_c, 0, 64, 63
1, 344421, Control_c, 0, 64, 67
1, 344422, Note_on_c, 0, 84, 55
1, 344436, Control_c, 0, 64, 70
1, 344445, Note_off_c, 0, 84, 59
1, 344450, Control_c, 0, 64, 73
1, 344465, Control_c, 0, 64, 76
1, 344471, Note_on_c, 0, 80, 65
1, 344480, Control_c, 0, 64, 78
1, 344495, Control_c, 0, 64, 80
1, 344510, Control_c, 0, 64, 81
1, 344524, Control_c, 0, 64, 82
1, 344526, Note_on_c, 0, 84, 61
1, 344539, Control_c, 0, 64, 82
1, 344545, Note_off_c, 0, 80, 62
1, 344554, Control_c, 0, 64, 83
1, 344568, Control_c, 0, 64, 83
1, 344576, Note_off_c, 0, 84, 62
1, 344593, Note_on_c, 0, 89, 60
1, 344598, Control_c, 0, 64, 84
1, 344635, Note_off_c, 0, 89, 62
1, 344665, Note_on_c, 0, 84, 58
1, 344701, Note_off_c, 0, 84, 64
1, 344707, Note_on_c, 0, 44, 59
1, 344722, Note_on_c, 0, 89, 57
1, 344752, Note_off_c, 0, 41, 61
1, 344792, Note_on_c, 0, 84, 58
1, 344793, Note_off_c, 0, 89, 50
1, 344819, Note_off_c, 0, 84, 56
1, 344853, Note_on_c, 0, 80, 64
1, 344913, Note_on_c, 0, 84, 60
1, 344963, Note_off_c, 0, 80, 39
1, 344981, Note_off_c, 0, 84, 62
1, 344999, Note_on_c, 0, 48, 59
1, 344999, Note_on_c, 0, 89, 56
1, 345021, Control_c, 0, 64, 83
1, 345036, Control_c, 0, 64, 82
1, 345037, Note_off_c, 0, 89, 58
1, 345051, Control_c, 0, 64, 78
1, 345065, Control_c, 0, 64, 71
1, 345068, Note_on_c, 0, 84, 51
1, 345080, Control_c, 0, 64, 64
1, 345095, Control_c, 0, 64, 53
1, 345102, Note_off_c, 0, 84, 60
1, 345104, Note_on_c, 0, 53, 67
1, 345110, Control_c, 0, 64, 49
1, 345125, Control_c, 0, 64, 49
1, 345127, Note_on_c, 0, 89, 56
1, 345134, Note_off_c, 0, 48, 63
1, 345139, Note_off_c, 0, 44, 35
1, 345140, Control_c, 0, 64, 50
1, 345154, Control_c, 0, 64, 52
1, 345169, Control_c, 0, 64, 54
1, 345184, Control_c, 0, 64, 59
1, 345194, Note_on_c, 0, 84, 54
1, 345199, Control_c, 0, 64, 63
1, 345214, Control_c, 0, 64, 66
1, 345229, Control_c, 0, 64, 68
1, 345229, Note_off_c, 0, 84, 61
1, 345243, Control_c, 0, 64, 71
1, 345256, Note_on_c, 0, 80, 62
1, 345258, Control_c, 0, 64, 73
1, 345265, Note_off_c, 0, 89, 32
1, 345273, Control_c, 0, 64, 76
1, 345288, Control_c, 0, 64, 78
1, 345303, Control_c, 0, 64, 80
1, 345318, Control_c, 0, 64, 80
1, 345321, Note_on_c, 0, 84, 63
1, 345333, Control_c, 0, 64, 81
1, 345340, Note_off_c, 0, 80, 58
1, 345347, Control_c, 0, 64, 81
1, 345367, Note_off_c, 0, 84, 61
1, 345382, Note_on_c, 0, 89, 54
1, 345392, Control_c, 0, 64, 82
1, 345449, Note_off_c, 0, 89, 53
1, 345475, Note_on_c, 0, 84, 61
1, 345522, Note_on_c, 0, 41, 55
1, 345530, Note_off_c, 0, 84, 59
1, 345561, Note_on_c, 0, 89, 60
1, 345643, Note_on_c, 0, 84, 61
1, 345693, Note_off_c, 0, 84, 59
1, 345723, Note_on_c, 0, 80, 61
1, 345766, Note_off_c, 0, 89, 24
1, 345819, Note_on_c, 0, 84, 54
1, 345837, Note_off_c, 0, 80, 41
1, 345901, Note_on_c, 0, 89, 44
1, 345926, Note_off_c, 0, 84, 36
1, 346004, Note_off_c, 0, 89, 60
1, 346025, Note_on_c, 0, 84, 46
1, 346051, Control_c, 0, 64, 81
1, 346081, Control_c, 0, 64, 80
1, 346096, Control_c, 0, 64, 79
1, 346111, Control_c, 0, 64, 76
1, 346126, Control_c, 0, 64, 72
1, 346132, Note_on_c, 0, 42, 56
1, 346148, Control_c, 0, 64, 65
1, 346158, Note_off_c, 0, 84, 43
1, 346163, Control_c, 0, 64, 57
1, 346166, Note_on_c, 0, 87, 46
1, 346177, Control_c, 0, 64, 46
1, 346192, Control_c, 0, 64, 41
1, 346207, Control_c, 0, 64, 39
1, 346212, Note_off_c, 0, 41, 55
1, 346223, Control_c, 0, 64, 32
1, 346227, Note_off_c, 0, 53, 64
1, 346238, Control_c, 0, 64, 0
1, 346360, Note_on_c, 0, 84, 48
1, 346382, Note_off_c, 0, 87, 52
1, 346386, Control_c, 0, 64, 40
1, 346400, Control_c, 0, 64, 60
1, 346415, Control_c, 0, 64, 65
1, 346430, Control_c, 0, 64, 68
1, 346445, Control_c, 0, 64, 71
1, 346451, Note_off_c, 0, 84, 62
1, 346460, Control_c, 0, 64, 75
1, 346464, Note_on_c, 0, 80, 53
1, 346474, Control_c, 0, 64, 79
1, 346489, Control_c, 0, 64, 81
1, 346504, Control_c, 0, 64, 82
1, 346518, Control_c, 0, 64, 83
1, 346533, Control_c, 0, 64, 84
1, 346534, Note_off_c, 0, 80, 52
1, 346548, Control_c, 0, 64, 85
1, 346554, Note_on_c, 0, 84, 52
1, 346563, Control_c, 0, 64, 86
1, 346578, Control_c, 0, 64, 86
1, 346591, Note_off_c, 0, 84, 59
1, 346621, Note_on_c, 0, 87, 53
1, 346622, Control_c, 0, 64, 87
1, 346666, Control_c, 0, 64, 87
1, 346667, Note_off_c, 0, 87, 55
1, 346692, Note_on_c, 0, 84, 50
1, 346713, Note_off_c, 0, 84, 62
1, 346725, Control_c, 0, 64, 88
1, 346743, Note_on_c, 0, 80, 50
1, 346792, Note_on_c, 0, 84, 62
1, 346796, Note_off_c, 0, 80, 43
1, 346845, Note_off_c, 0, 84, 62
1, 346859, Note_on_c, 0, 87, 61
1, 346926, Note_off_c, 0, 87, 54
1, 346938, Note_on_c, 0, 84, 50
1, 346963, Note_off_c, 0, 84, 61
1, 346998, Note_on_c, 0, 80, 56
1, 347051, Note_on_c, 0, 84, 62
1, 347056, Note_off_c, 0, 80, 46
1, 347104, Note_off_c, 0, 84, 61
1, 347118, Note_on_c, 0, 87, 57
1, 347134, Control_c, 0, 64, 88
1, 347167, Note_off_c, 0, 87, 54
1, 347181, Note_on_c, 0, 84, 56
1, 347218, Note_off_c, 0, 84, 65
1, 347253, Note_on_c, 0, 80, 53
1, 347286, Note_off_c, 0, 80, 50
1, 347309, Note_on_c, 0, 84, 60
1, 347348, Note_off_c, 0, 84, 60
1, 347359, Note_on_c, 0, 87, 62
1, 347392, Note_off_c, 0, 87, 62
1, 347421, Note_on_c, 0, 84, 53
1, 347461, Note_off_c, 0, 84, 65
1, 347474, Control_c, 0, 64, 88
1, 347481, Note_on_c, 0, 87, 54
1, 347488, Note_on_c, 0, 48, 59
1, 347489, Control_c, 0, 64, 86
1, 347504, Control_c, 0, 64, 83
1, 347519, Control_c, 0, 64, 79
1, 347534, Control_c, 0, 64, 73
1, 347548, Control_c, 0, 64, 66
1, 347563, Note_on_c, 0, 84, 58
1, 347563, Control_c, 0, 64, 60
1, 347564, Note_off_c, 0, 87, 61
1, 347578, Control_c, 0, 64, 62
1, 347592, Control_c, 0, 64, 65
1, 347598, Note_off_c, 0, 84, 62
1, 347607, Control_c, 0, 64, 68
1, 347622, Control_c, 0, 64, 70
1, 347628, Note_on_c, 0, 80, 53
1, 347645, Control_c, 0, 64, 72
1, 347660, Control_c, 0, 64, 73
1, 347674, Control_c, 0, 64, 75
1, 347689, Control_c, 0, 64, 77
1, 347699, Note_on_c, 0, 84, 59
1, 347702, Note_off_c, 0, 80, 52
1, 347704, Control_c, 0, 64, 79
1, 347719, Control_c, 0, 64, 80
1, 347734, Control_c, 0, 64, 80
1, 347750, Note_on_c, 0, 87, 56
1, 347760, Note_on_c, 0, 51, 59
1, 347763, Control_c, 0, 64, 81
1, 347789, Note_off_c, 0, 87, 61
1, 347795, Note_off_c, 0, 84, 0
1, 347795, Note_on_c, 0, 84, 35
1, 347807, Control_c, 0, 64, 80
1, 347824, Control_c, 0, 64, 79
1, 347837, Note_off_c, 0, 48, 62
1, 347839, Control_c, 0, 64, 77
1, 347841, Note_off_c, 0, 42, 60
1, 347853, Note_on_c, 0, 54, 58
1, 347853, Control_c, 0, 64, 73
1, 347854, Note_off_c, 0, 84, 65
1, 347868, Control_c, 0, 64, 67
1, 347876, Note_on_c, 0, 87, 60
1, 347879, Note_off_c, 0, 51, 62
1, 347883, Control_c, 0, 64, 65
1, 347912, Control_c, 0, 64, 65
1, 347923, Note_off_c, 0, 87, 58
1, 347927, Control_c, 0, 64, 66
1, 347930, Note_on_c, 0, 84, 60
1, 347957, Control_c, 0, 64, 67
1, 347967, Note_off_c, 0, 84, 62
1, 347971, Control_c, 0, 64, 70
1, 347986, Control_c, 0, 64, 73
1, 348001, Control_c, 0, 64, 76
1, 348002, Note_on_c, 0, 80, 60
1, 348016, Control_c, 0, 64, 77
1, 348031, Control_c, 0, 64, 78
1, 348045, Control_c, 0, 64, 79
1, 348060, Control_c, 0, 64, 80
1, 348061, Note_on_c, 0, 84, 60
1, 348090, Control_c, 0, 64, 81
1, 348093, Note_off_c, 0, 80, 38
1, 348102, Note_off_c, 0, 84, 56
1, 348118, Note_on_c, 0, 87, 59
1, 348135, Control_c, 0, 64, 81
1, 348163, Note_off_c, 0, 87, 58
1, 348178, Note_on_c, 0, 84, 60
1, 348239, Note_off_c, 0, 84, 63
1, 348252, Note_on_c, 0, 60, 56
1, 348254, Note_on_c, 0, 87, 62
1, 348281, Note_off_c, 0, 54, 61
1, 348317, Note_off_c, 0, 87, 62
1, 348318, Note_on_c, 0, 84, 53
1, 348361, Note_off_c, 0, 84, 61
1, 348371, Control_c, 0, 64, 82
1, 348399, Note_on_c, 0, 80, 54
1, 348463, Note_on_c, 0, 84, 58
1, 348483, Control_c, 0, 64, 82
1, 348497, Note_off_c, 0, 80, 39
1, 348507, Note_off_c, 0, 84, 62
1, 348534, Note_on_c, 0, 87, 52
1, 348540, Note_on_c, 0, 63, 63
1, 348557, Control_c, 0, 64, 82
1, 348569, Note_off_c, 0, 87, 60
1, 348571, Control_c, 0, 64, 80
1, 348586, Control_c, 0, 64, 76
1, 348591, Note_on_c, 0, 84, 59
1, 348601, Control_c, 0, 64, 71
1, 348617, Control_c, 0, 64, 65
1, 348624, Note_off_c, 0, 84, 54
1, 348632, Control_c, 0, 64, 55
1, 348639, Note_on_c, 0, 66, 60
1, 348646, Control_c, 0, 64, 48
1, 348661, Control_c, 0, 64, 47
1, 348666, Note_on_c, 0, 87, 60
1, 348676, Control_c, 0, 64, 48
1, 348684, Note_off_c, 0, 60, 33
1, 348691, Control_c, 0, 64, 50
1, 348693, Note_off_c, 0, 63, 59
1, 348705, Note_off_c, 0, 87, 59
1, 348706, Control_c, 0, 64, 53
1, 348717, Note_on_c, 0, 84, 60
1, 348720, Control_c, 0, 64, 60
1, 348735, Control_c, 0, 64, 64
1, 348747, Note_off_c, 0, 84, 63
1, 348750, Control_c, 0, 64, 67
1, 348765, Control_c, 0, 64, 70
1, 348769, Note_on_c, 0, 80, 61
1, 348780, Control_c, 0, 64, 73
1, 348794, Control_c, 0, 64, 75
1, 348809, Control_c, 0, 64, 77
1, 348824, Control_c, 0, 64, 79
1, 348833, Note_on_c, 0, 84, 62
1, 348839, Control_c, 0, 64, 79
1, 348844, Note_off_c, 0, 80, 58
1, 348853, Control_c, 0, 64, 80
1, 348868, Control_c, 0, 64, 81
1, 348882, Note_off_c, 0, 84, 61
1, 348883, Control_c, 0, 64, 81
1, 348898, Control_c, 0, 64, 82
1, 348907, Note_on_c, 0, 87, 54
1, 348913, Control_c, 0, 64, 82
1, 348954, Note_off_c, 0, 87, 58
1, 348973, Control_c, 0, 64, 83
1, 348976, Note_on_c, 0, 84, 59
1, 349017, Note_off_c, 0, 84, 53
1, 349043, Note_on_c, 0, 54, 51
1, 349062, Note_on_c, 0, 87, 58
1, 349076, Control_c, 0, 64, 83
1, 349118, Note_on_c, 0, 84, 64
1, 349166, Note_off_c, 0, 87, 33
1, 349181, Note_off_c, 0, 84, 61
1, 349202, Control_c, 0, 64, 84
1, 349208, Note_on_c, 0, 80, 58
1, 349261, Control_c, 0, 64, 84
1, 349264, Note_off_c, 0, 80, 49
1, 349277, Note_on_c, 0, 84, 62
1, 349339, Note_off_c, 0, 84, 60
1, 349366, Note_on_c, 0, 87, 57
1, 349387, Note_off_c, 0, 54, 34
1, 349454, Note_off_c, 0, 87, 54
1, 349458, Note_on_c, 0, 84, 53
1, 349515, Control_c, 0, 64, 83
1, 349521, Note_off_c, 0, 66, 50
1, 349530, Control_c, 0, 64, 81
1, 349533, Note_off_c, 0, 84, 53
1, 349544, Control_c, 0, 64, 78
1, 349545, Note_on_c, 0, 53, 56
1, 349559, Note_on_c, 0, 89, 48
1, 349559, Control_c, 0, 64, 74
1, 349574, Control_c, 0, 64, 69
1, 349589, Control_c, 0, 64, 61
1, 349604, Control_c, 0, 64, 47
1, 349618, Control_c, 0, 64, 39
1, 349633, Control_c, 0, 64, 38
1, 349662, Control_c, 0, 64, 36
1, 349671, Note_on_c, 0, 85, 59
1, 349677, Control_c, 0, 64, 26
1, 349692, Control_c, 0, 64, 21
1, 349706, Note_off_c, 0, 89, 42
1, 349707, Control_c, 0, 64, 27
1, 349722, Control_c, 0, 64, 42
1, 349727, Note_off_c, 0, 85, 63
1, 349736, Control_c, 0, 64, 57
1, 349751, Control_c, 0, 64, 64
1, 349756, Note_on_c, 0, 80, 60
1, 349766, Control_c, 0, 64, 68
1, 349781, Control_c, 0, 64, 73
1, 349795, Control_c, 0, 64, 78
1, 349810, Control_c, 0, 64, 81
1, 349820, Note_on_c, 0, 85, 65
1, 349820, Note_off_c, 0, 80, 62
1, 349825, Control_c, 0, 64, 82
1, 349840, Control_c, 0, 64, 83
1, 349855, Control_c, 0, 64, 83
1, 349870, Control_c, 0, 64, 84
1, 349876, Note_off_c, 0, 85, 65
1, 349885, Control_c, 0, 64, 85
1, 349894, Note_on_c, 0, 89, 62
1, 349907, Control_c, 0, 64, 85
1, 349922, Control_c, 0, 64, 86
1, 349933, Note_off_c, 0, 89, 62
1, 349962, Note_on_c, 0, 85, 51
1, 349998, Note_on_c, 0, 89, 61
1, 350002, Note_off_c, 0, 85, 60
1, 350006, Note_on_c, 0, 56, 56
1, 350074, Note_on_c, 0, 85, 58
1, 350097, Note_off_c, 0, 89, 53
1, 350138, Note_off_c, 0, 85, 60
1, 350162, Note_on_c, 0, 80, 61
1, 350213, Note_on_c, 0, 85, 60
1, 350246, Note_off_c, 0, 80, 39
1, 350275, Note_on_c, 0, 61, 53
1, 350277, Note_off_c, 0, 85, 64
1, 350293, Note_on_c, 0, 89, 64
1, 350308, Control_c, 0, 64, 85
1, 350323, Control_c, 0, 64, 83
1, 350338, Control_c, 0, 64, 80
1, 350344, Note_off_c, 0, 89, 60
1, 350353, Control_c, 0, 64, 76
1, 350363, Note_on_c, 0, 85, 56
1, 350367, Control_c, 0, 64, 71
1, 350369, Note_on_c, 0, 65, 61
1, 350382, Control_c, 0, 64, 65
1, 350397, Control_c, 0, 64, 62
1, 350397, Note_off_c, 0, 85, 62
1, 350402, Note_on_c, 0, 89, 53
1, 350426, Control_c, 0, 64, 63
1, 350441, Control_c, 0, 64, 65
1, 350456, Control_c, 0, 64, 67
1, 350468, Note_off_c, 0, 89, 62
1, 350471, Control_c, 0, 64, 70
1, 350481, Note_on_c, 0, 85, 63
1, 350485, Control_c, 0, 64, 74
1, 350500, Control_c, 0, 64, 77
1, 350515, Control_c, 0, 64, 80
1, 350517, Note_off_c, 0, 85, 58
1, 350517, Note_off_c, 0, 61, 36
1, 350530, Control_c, 0, 64, 81
1, 350539, Note_off_c, 0, 53, 38
1, 350545, Control_c, 0, 64, 82
1, 350547, Note_on_c, 0, 80, 59
1, 350559, Control_c, 0, 64, 83
1, 350574, Control_c, 0, 64, 83
1, 350579, Note_off_c, 0, 56, 33
1, 350589, Control_c, 0, 64, 84
1, 350604, Control_c, 0, 64, 84
1, 350607, Note_on_c, 0, 85, 67
1, 350618, Control_c, 0, 64, 85
1, 350647, Note_off_c, 0, 80, 37
1, 350671, Note_off_c, 0, 85, 63
1, 350671, Control_c, 0, 64, 85
1, 350689, Note_on_c, 0, 89, 57
1, 350734, Note_off_c, 0, 89, 59
1, 350757, Note_on_c, 0, 85, 62
1, 350794, Note_on_c, 0, 53, 59
1, 350817, Note_off_c, 0, 85, 64
1, 350840, Note_on_c, 0, 89, 61
1, 350899, Note_on_c, 0, 85, 60
1, 350908, Note_off_c, 0, 89, 59
1, 350941, Note_off_c, 0, 85, 59
1, 350957, Note_off_c, 0, 65, 64
1, 350968, Note_on_c, 0, 80, 64
1, 350983, Note_off_c, 0, 53, 65
1, 351038, Note_on_c, 0, 85, 65
1, 351041, Control_c, 0, 64, 86
1, 351053, Note_off_c, 0, 80, 56
1, 351081, Note_off_c, 0, 85, 60
1, 351098, Note_on_c, 0, 89, 62
1, 351101, Control_c, 0, 64, 86
1, 351152, Note_off_c, 0, 89, 62
1, 351184, Note_on_c, 0, 85, 58
1, 351205, Control_c, 0, 64, 84
1, 351220, Control_c, 0, 64, 79
1, 351228, Note_off_c, 0, 85, 63
1, 351231, Note_on_c, 0, 51, 57
1, 351234, Control_c, 0, 64, 72
1, 351249, Control_c, 0, 64, 64
1, 351261, Note_on_c, 0, 90, 64
1, 351264, Control_c, 0, 64, 45
1, 351279, Control_c, 0, 64, 0
1, 351339, Note_on_c, 0, 84, 59
1, 351352, Note_off_c, 0, 90, 54
1, 351353, Control_c, 0, 64, 51
1, 351368, Control_c, 0, 64, 64
1, 351390, Control_c, 0, 64, 69
1, 351399, Note_off_c, 0, 84, 64
1, 351405, Control_c, 0, 64, 74
1, 351420, Control_c, 0, 64, 78
1, 351424, Note_on_c, 0, 80, 62
1, 351435, Control_c, 0, 64, 81
1, 351449, Control_c, 0, 64, 83
1, 351464, Control_c, 0, 64, 83
1, 351479, Control_c, 0, 64, 84
1, 351485, Note_on_c, 0, 84, 56
1, 351494, Note_off_c, 0, 80, 44
1, 351494, Control_c, 0, 64, 85
1, 351509, Control_c, 0, 64, 85
1, 351523, Control_c, 0, 64, 86
1, 351531, Note_off_c, 0, 84, 63
1, 351553, Control_c, 0, 64, 86
1, 351559, Note_on_c, 0, 90, 57
1, 351598, Note_off_c, 0, 90, 57
1, 351625, Note_on_c, 0, 54, 51
1, 351627, Note_on_c, 0, 84, 53
1, 351652, Note_off_c, 0, 84, 59
1, 351656, Note_off_c, 0, 51, 52
1, 351685, Note_on_c, 0, 90, 66
1, 351700, Note_on_c, 0, 56, 63
1, 351706, Note_off_c, 0, 54, 55
1, 351740, Note_off_c, 0, 90, 50
1, 351742, Note_on_c, 0, 84, 59
1, 351804, Note_off_c, 0, 84, 63
1, 351826, Note_on_c, 0, 80, 59
1, 351835, Control_c, 0, 64, 87
1, 351879, Control_c, 0, 64, 87
1, 351900, Note_on_c, 0, 84, 57
1, 351924, Control_c, 0, 64, 88
1, 351939, Note_off_c, 0, 80, 44
1, 351963, Note_off_c, 0, 84, 57
1, 351968, Control_c, 0, 64, 88
1, 351972, Note_on_c, 0, 90, 63
1, 351978, Note_off_c, 0, 56, 63
1, 352030, Note_on_c, 0, 60, 49
1, 352037, Note_off_c, 0, 90, 58
1, 352057, Control_c, 0, 64, 89
1, 352067, Note_on_c, 0, 84, 61
1, 352103, Note_off_c, 0, 60, 54
1, 352110, Note_off_c, 0, 84, 60
1, 352117, Note_on_c, 0, 63, 63
1, 352126, Note_on_c, 0, 90, 67
1, 352138, Control_c, 0, 64, 89
1, 352168, Control_c, 0, 64, 90
1, 352198, Control_c, 0, 64, 90
1, 352215, Note_on_c, 0, 84, 60
1, 352228, Control_c, 0, 64, 91
1, 352243, Control_c, 0, 64, 91
1, 352257, Control_c, 0, 64, 92
1, 352272, Control_c, 0, 64, 92
1, 352280, Note_off_c, 0, 84, 64
1, 352287, Control_c, 0, 64, 93
1, 352296, Note_on_c, 0, 80, 60
1, 352316, Note_off_c, 0, 90, 22
1, 352317, Control_c, 0, 64, 93
1, 352332, Control_c, 0, 64, 94
1, 352346, Control_c, 0, 64, 94
1, 352361, Control_c, 0, 64, 95
1, 352390, Control_c, 0, 64, 96
1, 352397, Note_off_c, 0, 80, 51
1, 352405, Note_on_c, 0, 84, 55
1, 352405, Control_c, 0, 64, 96
1, 352420, Control_c, 0, 64, 97
1, 352435, Control_c, 0, 64, 97
1, 352462, Note_off_c, 0, 84, 62
1, 352464, Control_c, 0, 64, 98
1, 352479, Control_c, 0, 64, 98
1, 352480, Note_on_c, 0, 90, 58
1, 352494, Control_c, 0, 64, 99
1, 352509, Control_c, 0, 64, 99
1, 352523, Note_off_c, 0, 63, 54
1, 352524, Control_c, 0, 64, 100
1, 352542, Note_on_c, 0, 66, 53
1, 352553, Control_c, 0, 64, 100
1, 352565, Note_off_c, 0, 90, 50
1, 352568, Control_c, 0, 64, 101
1, 352582, Control_c, 0, 64, 101
1, 352585, Note_on_c, 0, 84, 53
1, 352613, Control_c, 0, 64, 102
1, 352627, Note_off_c, 0, 66, 62
1, 352635, Note_on_c, 0, 68, 56
1, 352650, Note_off_c, 0, 84, 63
1, 352658, Control_c, 0, 64, 102
1, 352682, Note_on_c, 0, 90, 65
1, 352732, Control_c, 0, 64, 103
1, 352778, Note_on_c, 0, 87, 56
1, 352830, Note_off_c, 0, 90, 32
1, 352871, Note_off_c, 0, 87, 61
1, 352900, Note_on_c, 0, 80, 57
1, 352917, Control_c, 0, 64, 103
1, 352961, Control_c, 0, 64, 104
1, 352991, Control_c, 0, 64, 104
1, 353018, Note_on_c, 0, 87, 54
1, 353036, Control_c, 0, 64, 105
1, 353117, Note_off_c, 0, 80, 26
1, 353186, Note_off_c, 0, 87, 55
1, 353188, Note_on_c, 0, 90, 59
1, 353368, Note_on_c, 0, 87, 42
1, 353384, Note_off_c, 0, 90, 54
1, 353397, Note_on_c, 0, 72, 34
1, 353646, Note_off_c, 0, 72, 40
1, 353741, Control_c, 0, 64, 104
1, 353771, Control_c, 0, 64, 103
1, 353785, Control_c, 0, 64, 101
1, 353800, Control_c, 0, 64, 98
1, 353811, Note_on_c, 0, 89, 50
1, 353815, Control_c, 0, 64, 94
1, 353822, Note_on_c, 0, 61, 39
1, 353830, Control_c, 0, 64, 88
1, 353844, Note_off_c, 0, 68, 32
1, 353844, Control_c, 0, 64, 80
1, 353859, Control_c, 0, 64, 70
1, 353874, Control_c, 0, 64, 59
1, 353888, Note_off_c, 0, 87, 35
1, 353889, Control_c, 0, 64, 0
1, 354097, Control_c, 0, 64, 57
1, 354112, Control_c, 0, 64, 64
1, 354126, Control_c, 0, 64, 68
1, 354141, Control_c, 0, 64, 72
1, 354155, Control_c, 0, 64, 77
1, 354170, Control_c, 0, 64, 82
1, 354185, Control_c, 0, 64, 86
1, 354188, Note_on_c, 0, 65, 37
1, 354188, Note_on_c, 0, 73, 33
1, 354192, Note_on_c, 0, 68, 33
1, 354192, Note_off_c, 0, 61, 37
1, 354200, Control_c, 0, 64, 88
1, 354216, Control_c, 0, 64, 90
1, 354231, Control_c, 0, 64, 91
1, 354246, Control_c, 0, 64, 92
1, 354260, Control_c, 0, 64, 93
1, 354275, Control_c, 0, 64, 94
1, 354290, Control_c, 0, 64, 95
1, 354305, Control_c, 0, 64, 95
1, 354324, Note_off_c, 0, 68, 40
1, 354326, Note_off_c, 0, 65, 41
1, 354329, Note_on_c, 0, 61, 44
1, 354347, Note_off_c, 0, 73, 35
1, 354349, Control_c, 0, 64, 96
1, 354401, Control_c, 0, 64, 96
1, 354428, Note_off_c, 0, 61, 50
1, 354445, Control_c, 0, 64, 97
1, 354493, Note_on_c, 0, 73, 44
1, 354499, Note_on_c, 0, 68, 35
1, 354505, Control_c, 0, 64, 97
1, 354511, Note_on_c, 0, 65, 29
1, 354564, Control_c, 0, 64, 98
1, 354580, Note_off_c, 0, 65, 41
1, 354599, Note_off_c, 0, 68, 36
1, 354617, Note_off_c, 0, 73, 25
1, 354633, Note_on_c, 0, 61, 44
1, 354709, Note_off_c, 0, 61, 49
1, 354748, Note_on_c, 0, 68, 45
1, 354753, Note_on_c, 0, 73, 44
1, 354768, Note_on_c, 0, 65, 34
1, 354840, Note_off_c, 0, 68, 53
1, 354841, Note_off_c, 0, 73, 44
1, 354848, Note_off_c, 0, 65, 39
1, 354883, Note_on_c, 0, 61, 43
1, 354956, Note_off_c, 0, 61, 54
1, 354994, Note_on_c, 0, 68, 42
1, 355000, Note_on_c, 0, 73, 42
1, 355012, Note_on_c, 0, 65, 32
1, 355071, Note_off_c, 0, 65, 45
1, 355083, Note_off_c, 0, 68, 44
1, 355113, Note_on_c, 0, 61, 45
1, 355132, Note_off_c, 0, 73, 24
1, 355235, Note_off_c, 0, 61, 52
1, 355268, Note_on_c, 0, 77, 64
1, 355274, Note_on_c, 0, 73, 37
1, 355289, Note_on_c, 0, 68, 18
1, 355367, Note_off_c, 0, 68, 40
1, 355384, Note_on_c, 0, 61, 48
1, 355401, Note_off_c, 0, 73, 24
1, 355467, Note_off_c, 0, 89, 30
1, 355481, Note_off_c, 0, 61, 58
1, 355536, Note_on_c, 0, 68, 28
1, 355539, Note_on_c, 0, 73, 34
1, 355539, Note_on_c, 0, 80, 69
1, 355543, Note_on_c, 0, 65, 26
1, 355629, Note_off_c, 0, 77, 61
1, 355646, Note_on_c, 0, 61, 49
1, 355647, Note_off_c, 0, 65, 32
1, 355656, Note_off_c, 0, 68, 35
1, 355662, Note_on_c, 0, 85, 69
1, 355677, Note_off_c, 0, 73, 22
1, 355754, Note_off_c, 0, 61, 59
1, 355788, Note_on_c, 0, 65, 31
1, 355792, Note_on_c, 0, 68, 45
1, 355793, Note_off_c, 0, 80, 61
1, 355802, Note_on_c, 0, 73, 47
1, 355882, Note_off_c, 0, 65, 56
1, 355897, Note_off_c, 0, 68, 53
1, 355906, Note_on_c, 0, 61, 53
1, 355942, Note_off_c, 0, 73, 34
1, 355987, Control_c, 0, 64, 98
1, 356020, Note_off_c, 0, 61, 59
1, 356036, Note_on_c, 0, 89, 73
1, 356043, Note_on_c, 0, 65, 40
1, 356045, Note_on_c, 0, 68, 45
1, 356046, Control_c, 0, 64, 99
1, 356055, Note_on_c, 0, 73, 47
1, 356061, Control_c, 0, 64, 99
1, 356076, Control_c, 0, 64, 100
1, 356076, Note_off_c, 0, 85, 56
1, 356091, Control_c, 0, 64, 102
1, 356099, Note_off_c, 0, 68, 59
1, 356104, Note_off_c, 0, 65, 53
1, 356105, Control_c, 0, 64, 104
1, 356117, Note_off_c, 0, 73, 49
1, 356120, Control_c, 0, 64, 105
1, 356135, Control_c, 0, 64, 106
1, 356138, Note_on_c, 0, 61, 58
1, 356150, Control_c, 0, 64, 107
1, 356165, Control_c, 0, 64, 109
1, 356179, Control_c, 0, 64, 110
1, 356194, Control_c, 0, 64, 112
1, 356210, Control_c, 0, 64, 114
1, 356225, Control_c, 0, 64, 116
1, 356234, Note_off_c, 0, 61, 60
1, 356239, Control_c, 0, 64, 117
1, 356250, Note_on_c, 0, 73, 55
1, 356254, Control_c, 0, 64, 118
1, 356255, Note_on_c, 0, 68, 47
1, 356269, Control_c, 0, 64, 119
1, 356286, Note_on_c, 0, 85, 67
1, 356313, Control_c, 0, 64, 117
1, 356328, Control_c, 0, 64, 112
1, 356334, Note_off_c, 0, 68, 60
1, 356341, Note_off_c, 0, 89, 56
1, 356343, Control_c, 0, 64, 104
1, 356350, Note_off_c, 0, 73, 47
1, 356357, Control_c, 0, 64, 96
1, 356360, Note_on_c, 0, 63, 66
1, 356372, Control_c, 0, 64, 87
1, 356387, Control_c, 0, 64, 74
1, 356389, Note_on_c, 0, 84, 71
1, 356402, Control_c, 0, 64, 63
1, 356412, Note_off_c, 0, 85, 60
1, 356417, Control_c, 0, 64, 13
1, 356431, Control_c, 0, 64, 0
1, 356491, Control_c, 0, 64, 49
1, 356495, Note_on_c, 0, 75, 56
1, 356498, Note_on_c, 0, 68, 50
1, 356498, Note_off_c, 0, 63, 62
1, 356505, Control_c, 0, 64, 67
1, 356506, Note_on_c, 0, 66, 52
1, 356520, Control_c, 0, 64, 77
1, 356535, Control_c, 0, 64, 86
1, 356550, Control_c, 0, 64, 90
1, 356563, Note_off_c, 0, 66, 55
1, 356565, Control_c, 0, 64, 92
1, 356580, Control_c, 0, 64, 94
1, 356583, Note_off_c, 0, 68, 60
1, 356595, Control_c, 0, 64, 97
1, 356605, Note_off_c, 0, 75, 54
1, 356610, Control_c, 0, 64, 100
1, 356613, Note_on_c, 0, 63, 61
1, 356633, Control_c, 0, 64, 102
1, 356648, Control_c, 0, 64, 103
1, 356662, Control_c, 0, 64, 104
1, 356677, Control_c, 0, 64, 105
1, 356692, Control_c, 0, 64, 106
1, 356722, Control_c, 0, 64, 106
1, 356729, Note_off_c, 0, 63, 62
1, 356738, Note_on_c, 0, 87, 77
1, 356744, Note_on_c, 0, 68, 47
1, 356745, Note_on_c, 0, 75, 54
1, 356764, Note_on_c, 0, 66, 30
1, 356780, Control_c, 0, 64, 107
1, 356794, Note_off_c, 0, 84, 61
1, 356797, Note_off_c, 0, 68, 43
1, 356799, Note_off_c, 0, 66, 50
1, 356824, Note_off_c, 0, 75, 34
1, 356846, Note_on_c, 0, 63, 58
1, 356938, Note_on_c, 0, 66, 37
1, 356944, Note_on_c, 0, 68, 46
1, 356953, Note_off_c, 0, 63, 61
1, 356961, Note_on_c, 0, 75, 53
1, 356966, Note_off_c, 0, 66, 58
1, 356972, Note_off_c, 0, 68, 56
1, 356994, Note_off_c, 0, 75, 66
1, 357018, Note_on_c, 0, 84, 69
1, 357018, Control_c, 0, 64, 106
1, 357021, Note_off_c, 0, 87, 62
1, 357033, Control_c, 0, 64, 105
1, 357048, Control_c, 0, 64, 100
1, 357062, Control_c, 0, 64, 94
1, 357077, Control_c, 0, 64, 87
1, 357092, Control_c, 0, 64, 78
1, 357104, Note_on_c, 0, 65, 55
1, 357107, Control_c, 0, 64, 69
1, 357122, Control_c, 0, 64, 59
1, 357122, Note_off_c, 0, 84, 65
1, 357124, Note_on_c, 0, 85, 72
1, 357136, Control_c, 0, 64, 40
1, 357151, Control_c, 0, 64, 19
1, 357166, Control_c, 0, 64, 0
1, 357254, Control_c, 0, 64, 57
1, 357256, Note_on_c, 0, 77, 48
1, 357265, Note_off_c, 0, 65, 61
1, 357268, Note_on_c, 0, 73, 41
1, 357269, Control_c, 0, 64, 67
1, 357273, Note_on_c, 0, 68, 40
1, 357284, Control_c, 0, 64, 72
1, 357299, Control_c, 0, 64, 78
1, 357314, Control_c, 0, 64, 84
1, 357315, Note_off_c, 0, 68, 46
1, 357324, Note_off_c, 0, 73, 40
1, 357328, Control_c, 0, 64, 88
1, 357343, Control_c, 0, 64, 90
1, 357358, Control_c, 0, 64, 92
1, 357365, Note_on_c, 0, 65, 51
1, 357373, Control_c, 0, 64, 93
1, 357384, Note_off_c, 0, 77, 25
1, 357395, Control_c, 0, 64, 94
1, 357411, Control_c, 0, 64, 94
1, 357426, Control_c, 0, 64, 95
1, 357500, Note_on_c, 0, 80, 69
1, 357504, Note_on_c, 0, 77, 53
1, 357515, Control_c, 0, 64, 95
1, 357525, Note_off_c, 0, 65, 36
1, 357529, Note_on_c, 0, 68, 37
1, 357530, Note_on_c, 0, 73, 29
1, 357570, Note_off_c, 0, 68, 49
1, 357579, Note_off_c, 0, 73, 46
1, 357602, Note_on_c, 0, 65, 52
1, 357613, Note_off_c, 0, 77, 25
1, 357707, Note_off_c, 0, 65, 59
1, 357732, Note_on_c, 0, 77, 57
1, 357738, Note_on_c, 0, 73, 43
1, 357742, Note_on_c, 0, 68, 40
1, 357793, Note_off_c, 0, 68, 50
1, 357801, Note_off_c, 0, 73, 55
1, 357823, Note_off_c, 0, 80, 59
1, 357828, Note_off_c, 0, 77, 30
1, 357832, Note_on_c, 0, 65, 61
1, 357951, Note_on_c, 0, 68, 57
1, 357960, Note_on_c, 0, 73, 57
1, 357976, Note_off_c, 0, 65, 47
1, 358010, Note_off_c, 0, 68, 56
1, 358022, Note_off_c, 0, 73, 51
1, 358064, Note_on_c, 0, 65, 55
1, 358182, Note_on_c, 0, 77, 78
1, 358190, Note_on_c, 0, 73, 54
1, 358198, Note_on_c, 0, 68, 51
1, 358206, Note_off_c, 0, 85, 63
1, 358221, Note_off_c, 0, 65, 53
1, 358255, Note_off_c, 0, 68, 55
1, 358279, Note_off_c, 0, 73, 52
1, 358306, Note_on_c, 0, 65, 49
1, 358443, Note_off_c, 0, 65, 55
1, 358455, Note_on_c, 0, 68, 56
1, 358464, Note_on_c, 0, 80, 75
1, 358475, Note_on_c, 0, 73, 43
1, 358510, Note_off_c, 0, 68, 55
1, 358514, Note_off_c, 0, 77, 63
1, 358541, Note_off_c, 0, 73, 49
1, 358553, Note_on_c, 0, 85, 77
1, 358571, Note_on_c, 0, 65, 61
1, 358656, Note_off_c, 0, 80, 59
1, 358690, Note_on_c, 0, 77, 57
1, 358690, Note_off_c, 0, 65, 59
1, 358690, Note_on_c, 0, 73, 57
1, 358712, Note_on_c, 0, 68, 49
1, 358735, Note_off_c, 0, 77, 53
1, 358739, Note_off_c, 0, 68, 59
1, 358750, Note_off_c, 0, 73, 55
1, 358799, Note_on_c, 0, 65, 73
1, 358906, Note_on_c, 0, 89, 87
1, 358907, Note_on_c, 0, 77, 64
1, 358911, Note_off_c, 0, 65, 58
1, 358917, Note_on_c, 0, 73, 54
1, 358921, Note_on_c, 0, 68, 52
1, 358952, Note_off_c, 0, 85, 56
1, 358972, Note_off_c, 0, 77, 52
1, 358973, Note_off_c, 0, 73, 49
1, 359010, Note_on_c, 0, 65, 66
1, 359065, Note_off_c, 0, 68, 0
1, 359090, Note_on_c, 0, 68, 38
1, 359093, Note_off_c, 0, 65, 58
1, 359101, Note_on_c, 0, 77, 64
1, 359102, Note_on_c, 0, 73, 65
1, 359117, Control_c, 0, 64, 96
1, 359123, Note_off_c, 0, 68, 64
1, 359139, Note_on_c, 0, 85, 80
1, 359144, Note_off_c, 0, 77, 58
1, 359146, Control_c, 0, 64, 96
1, 359172, Note_off_c, 0, 73, 61
1, 359191, Control_c, 0, 64, 95
1, 359205, Control_c, 0, 64, 89
1, 359217, Note_on_c, 0, 66, 73
1, 359220, Control_c, 0, 64, 77
1, 359222, Note_on_c, 0, 84, 92
1, 359235, Note_off_c, 0, 89, 57
1, 359235, Control_c, 0, 64, 62
1, 359250, Note_off_c, 0, 85, 63
1, 359250, Control_c, 0, 64, 0
1, 359324, Control_c, 0, 64, 55
1, 359331, Note_on_c, 0, 75, 63
1, 359334, Note_on_c, 0, 69, 61
1, 359334, Note_on_c, 0, 72, 62
1, 359334, Note_off_c, 0, 66, 65
1, 359338, Control_c, 0, 64, 70
1, 359353, Control_c, 0, 64, 82
1, 359368, Control_c, 0, 64, 92
1, 359382, Control_c, 0, 64, 95
1, 359397, Control_c, 0, 64, 97
1, 359412, Control_c, 0, 64, 100
1, 359412, Control_c, 0, 67, 119
1, 359418, Note_off_c, 0, 69, 52
1, 359425, Note_off_c, 0, 72, 60
1, 359427, Control_c, 0, 64, 105
1, 359427, Control_c, 0, 67, 108
1, 359439, Note_on_c, 0, 66, 70
1, 359442, Control_c, 0, 64, 110
1, 359442, Control_c, 0, 67, 97
1, 359456, Control_c, 0, 64, 114
1, 359456, Control_c, 0, 67, 86
1, 359459, Note_off_c, 0, 75, 54
1, 359471, Control_c, 0, 64, 116
1, 359471, Control_c, 0, 67, 76
1, 359486, Control_c, 0, 64, 118
1, 359486, Control_c, 0, 67, 67
1, 359501, Control_c, 0, 64, 119
1, 359501, Control_c, 0, 67, 62
1, 359516, Control_c, 0, 64, 120
1, 359516, Control_c, 0, 67, 61
1, 359531, Control_c, 0, 67, 62
1, 359546, Control_c, 0, 64, 121
1, 359546, Control_c, 0, 67, 62
1, 359554, Note_off_c, 0, 66, 65
1, 359558, Note_on_c, 0, 87, 96
1, 359561, Control_c, 0, 67, 63
1, 359565, Note_on_c, 0, 72, 63
1, 359570, Note_on_c, 0, 69, 51
1, 359575, Control_c, 0, 67, 63
1, 359576, Note_on_c, 0, 75, 66
1, 359588, Note_off_c, 0, 84, 60
1, 359590, Control_c, 0, 67, 64
1, 359653, Note_off_c, 0, 75, 44
1, 359661, Note_off_c, 0, 72, 60
1, 359667, Note_on_c, 0, 66, 75
1, 359777, Note_on_c, 0, 72, 66
1, 359778, Note_on_c, 0, 75, 68
1, 359793, Note_off_c, 0, 66, 59
1, 359805, Control_c, 0, 67, 63
1, 359820, Control_c, 0, 67, 62
1, 359821, Note_off_c, 0, 69, 42
1, 359835, Note_on_c, 0, 84, 88
1, 359835, Control_c, 0, 67, 62
1, 359849, Note_off_c, 0, 75, 62
1, 359850, Control_c, 0, 64, 120
1, 359850, Control_c, 0, 67, 61
1, 359865, Control_c, 0, 64, 119
1, 359872, Note_off_c, 0, 87, 61
1, 359880, Control_c, 0, 64, 112
1, 359880, Control_c, 0, 67, 60
1, 359881, Note_off_c, 0, 72, 58
1, 359895, Control_c, 0, 64, 100
1, 359895, Control_c, 0, 67, 59
1, 359901, Note_on_c, 0, 65, 72
1, 359909, Control_c, 0, 64, 87
1, 359909, Control_c, 0, 67, 56
1, 359924, Control_c, 0, 64, 69
1, 359924, Control_c, 0, 67, 51
1, 359925, Note_on_c, 0, 83, 93
1, 359939, Control_c, 0, 64, 0
1, 359939, Control_c, 0, 67, 48
1, 359949, Note_off_c, 0, 84, 61
1, 359954, Control_c, 0, 67, 45
1, 359969, Control_c, 0, 67, 43
1, 359984, Control_c, 0, 67, 40
1, 359998, Control_c, 0, 67, 37
1, 360013, Control_c, 0, 67, 34
1, 360028, Control_c, 0, 67, 30
1, 360042, Note_on_c, 0, 74, 58
1, 360043, Control_c, 0, 64, 62
1, 360043, Control_c, 0, 67, 28
1, 360045, Note_on_c, 0, 71, 59
1, 360049, Note_on_c, 0, 68, 55
1, 360056, Note_off_c, 0, 65, 62
1, 360058, Control_c, 0, 64, 74
1, 360058, Control_c, 0, 67, 25
1, 360073, Control_c, 0, 64, 84
1, 360073, Control_c, 0, 67, 20
1, 360087, Control_c, 0, 64, 90
1, 360087, Control_c, 0, 67, 14
1, 360102, Control_c, 0, 64, 92
1, 360102, Control_c, 0, 67, 0
1, 360117, Control_c, 0, 64, 94
1, 360132, Control_c, 0, 64, 97
1, 360146, Control_c, 0, 64, 100
1, 360151, Note_off_c, 0, 68, 57
1, 360155, Note_off_c, 0, 71, 58
1, 360161, Control_c, 0, 64, 103
1, 360164, Note_on_c, 0, 65, 70
1, 360176, Control_c, 0, 64, 104
1, 360192, Note_off_c, 0, 74, 58
1, 360205, Control_c, 0, 64, 104
1, 360296, Note_off_c, 0, 65, 58
1, 360312, Note_on_c, 0, 86, 97
1, 360315, Note_on_c, 0, 71, 63
1, 360315, Note_on_c, 0, 74, 59
1, 360323, Note_on_c, 0, 68, 46
1, 360396, Note_off_c, 0, 83, 58
1, 360422, Note_off_c, 0, 68, 59
1, 360424, Note_off_c, 0, 71, 57
1, 360428, Note_off_c, 0, 74, 58
1, 360430, Note_on_c, 0, 65, 69
1, 360450, Control_c, 0, 64, 105
1, 360535, Note_off_c, 0, 65, 62
1, 360538, Control_c, 0, 64, 105
1, 360545, Note_on_c, 0, 71, 65
1, 360548, Note_on_c, 0, 74, 65
1, 360550, Note_on_c, 0, 68, 56
1, 360553, Control_c, 0, 64, 106
1, 360599, Control_c, 0, 64, 106
1, 360610, Note_off_c, 0, 68, 57
1, 360628, Control_c, 0, 64, 107
1, 360643, Control_c, 0, 64, 107
1, 360646, Note_on_c, 0, 65, 80
1, 360648, Note_off_c, 0, 71, 54
1, 360652, Note_off_c, 0, 74, 61
1, 360658, Control_c, 0, 64, 108
1, 360664, Note_off_c, 0, 86, 60
1, 360673, Control_c, 0, 64, 108
1, 360688, Control_c, 0, 64, 109
1, 360717, Control_c, 0, 64, 109
1, 360732, Control_c, 0, 64, 110
1, 360745, Note_off_c, 0, 65, 62
1, 360754, Note_on_c, 0, 68, 61
1, 360757, Note_on_c, 0, 74, 69
1, 360758, Note_on_c, 0, 71, 70
1, 360777, Control_c, 0, 64, 110
1, 360810, Note_off_c, 0, 68, 55
1, 360839, Note_off_c, 0, 74, 54
1, 360843, Note_on_c, 0, 65, 81
1, 360847, Note_off_c, 0, 71, 54
1, 360953, Note_on_c, 0, 74, 73
1, 360956, Note_on_c, 0, 68, 66
1, 360957, Note_on_c, 0, 86, 100
1, 360958, Note_on_c, 0, 71, 73
1, 360958, Note_off_c, 0, 65, 64
1, 361018, Note_off_c, 0, 68, 62
1, 361021, Note_off_c, 0, 74, 57
1, 361040, Note_off_c, 0, 71, 53
1, 361058, Note_on_c, 0, 65, 76
1, 361141, Control_c, 0, 64, 111
1, 361145, Note_on_c, 0, 68, 67
1, 361152, Note_off_c, 0, 65, 64
1, 361170, Control_c, 0, 64, 111
1, 361173, Note_on_c, 0, 74, 57
1, 361185, Control_c, 0, 64, 112
1, 361200, Control_c, 0, 64, 112
1, 361203, Note_on_c, 0, 83, 85
1, 361215, Note_off_c, 0, 68, 63
1, 361219, Note_off_c, 0, 86, 56
1, 361235, Note_off_c, 0, 74, 54
1, 361244, Control_c, 0, 64, 109
1, 361259, Control_c, 0, 64, 95
1, 361260, Note_on_c, 0, 64, 82
1, 361273, Note_on_c, 0, 84, 106
1, 361274, Control_c, 0, 64, 77
1, 361284, Note_off_c, 0, 83, 61
1, 361289, Control_c, 0, 64, 28
1, 361303, Control_c, 0, 64, 0
1, 361377, Control_c, 0, 64, 58
1, 361387, Note_on_c, 0, 72, 71
1, 361388, Note_on_c, 0, 76, 67
1, 361392, Control_c, 0, 64, 78
1, 361400, Note_on_c, 0, 67, 61
1, 361405, Note_off_c, 0, 64, 62
1, 361408, Control_c, 0, 64, 96
1, 361423, Control_c, 0, 64, 112
1, 361435, Note_off_c, 0, 67, 63
1, 361438, Control_c, 0, 64, 114
1, 361451, Control_c, 0, 64, 119
1, 361466, Control_c, 0, 64, 127
1, 361479, Note_off_c, 0, 72, 48
1, 361486, Note_on_c, 0, 64, 80
1, 361501, Note_off_c, 0, 76, 54
1, 361605, Note_on_c, 0, 72, 78
1, 361606, Note_on_c, 0, 76, 77
1, 361606, Note_on_c, 0, 88, 101
1, 361609, Note_on_c, 0, 67, 66
1, 361609, Note_off_c, 0, 64, 61
1, 361632, Note_off_c, 0, 84, 64
1, 361649, Note_off_c, 0, 67, 54
1, 361675, Note_off_c, 0, 76, 59
1, 361690, Note_off_c, 0, 72, 57
1, 361710, Note_on_c, 0, 64, 86
1, 361825, Note_on_c, 0, 67, 66
1, 361825, Note_on_c, 0, 72, 77
1, 361825, Note_on_c, 0, 76, 71
1, 361826, Note_off_c, 0, 64, 62
1, 361874, Note_off_c, 0, 67, 55
1, 361905, Note_off_c, 0, 76, 60
1, 361913, Note_off_c, 0, 72, 55
1, 361913, Note_off_c, 0, 88, 58
1, 361926, Note_on_c, 0, 64, 87
1, 362031, Note_on_c, 0, 76, 76
1, 362031, Note_off_c, 0, 64, 63
1, 362035, Note_on_c, 0, 72, 78
1, 362035, Note_on_c, 0, 67, 65
1, 362069, Note_off_c, 0, 67, 62
1, 362087, Note_off_c, 0, 76, 63
1, 362099, Note_off_c, 0, 72, 60
1, 362124, Note_on_c, 0, 64, 85
1, 362226, Note_on_c, 0, 72, 83
1, 362229, Note_on_c, 0, 91, 107
1, 362229, Note_off_c, 0, 64, 59
1, 362230, Note_on_c, 0, 79, 104
1, 362232, Note_on_c, 0, 76, 77
1, 362233, Note_on_c, 0, 67, 74
1, 362279, Note_off_c, 0, 76, 64
1, 362306, Note_off_c, 0, 72, 60
1, 362326, Note_on_c, 0, 64, 81
1, 362338, Note_off_c, 0, 79, 57
1, 362348, Note_off_c, 0, 91, 57
1, 362401, Note_on_c, 0, 76, 75
1, 362405, Note_on_c, 0, 72, 74
1, 362414, Note_off_c, 0, 64, 65
1, 362425, Note_off_c, 0, 76, 69
1, 362436, Note_off_c, 0, 72, 64
1, 362450, Note_on_c, 0, 89, 85
1, 362452, Note_off_c, 0, 67, 24
1, 362461, Note_on_c, 0, 77, 78
1, 362484, Note_off_c, 0, 77, 66
1, 362490, Note_off_c, 0, 89, 67
1, 362526, Control_c, 0, 64, 110
1, 362536, Note_on_c, 0, 58, 85
1, 362539, Note_on_c, 0, 88, 98
1, 362541, Control_c, 0, 64, 87
1, 362546, Note_on_c, 0, 76, 101
1, 362556, Control_c, 0, 64, 64
1, 362571, Control_c, 0, 64, 0
1, 362655, Note_on_c, 0, 67, 73
1, 362660, Note_on_c, 0, 64, 68
1, 362667, Control_c, 0, 64, 72
1, 362670, Note_on_c, 0, 61, 62
1, 362675, Note_off_c, 0, 58, 62
1, 362682, Control_c, 0, 64, 90
1, 362697, Control_c, 0, 64, 114
1, 362712, Control_c, 0, 64, 118
1, 362713, Note_off_c, 0, 61, 59
1, 362720, Note_off_c, 0, 67, 58
1, 362726, Control_c, 0, 64, 120
1, 362727, Note_off_c, 0, 64, 63
1, 362728, Note_off_c, 0, 76, 61
1, 362741, Control_c, 0, 64, 125
1, 362751, Note_on_c, 0, 58, 88
1, 362756, Control_c, 0, 64, 127
1, 362815, Note_off_c, 0, 88, 65
1, 362852, Note_on_c, 0, 67, 78
1, 362855, Note_on_c, 0, 79, 101
1, 362855, Note_on_c, 0, 64, 71
1, 362855, Note_on_c, 0, 91, 105
1, 362859, Note_off_c, 0, 58, 63
1, 362860, Note_on_c, 0, 61, 71
1, 362905, Note_on_c, 0, 90, 14
1, 362906, Note_off_c, 0, 90, 127
1, 362921, Note_off_c, 0, 61, 60
1, 362934, Note_off_c, 0, 67, 56
1, 362944, Note_off_c, 0, 64, 57
1, 362959, Note_on_c, 0, 58, 86
1, 363064, Note_on_c, 0, 67, 80
1, 363066, Note_on_c, 0, 64, 74
1, 363069, Note_off_c, 0, 58, 62
1, 363072, Note_on_c, 0, 61, 69
1, 363089, Note_off_c, 0, 79, 54
1, 363126, Note_off_c, 0, 61, 59
1, 363129, Note_off_c, 0, 67, 57
1, 363133, Note_off_c, 0, 91, 56
1, 363165, Note_on_c, 0, 58, 90
1, 363175, Note_off_c, 0, 64, 47
1, 363263, Note_on_c, 0, 67, 80
1, 363269, Note_on_c, 0, 64, 78
1, 363272, Note_on_c, 0, 61, 68
1, 363273, Note_off_c, 0, 58, 61
1, 363310, Note_off_c, 0, 61, 54
1, 363326, Note_off_c, 0, 67, 55
1, 363354, Note_on_c, 0, 58, 90
1, 363372, Note_off_c, 0, 64, 54
1, 363460, Note_on_c, 0, 67, 82
1, 363461, Note_off_c, 0, 58, 55
1, 363465, Note_on_c, 0, 91, 106
1, 363466, Note_on_c, 0, 79, 98
1, 363467, Note_on_c, 0, 64, 85
1, 363474, Note_on_c, 0, 61, 71
1, 363520, Note_off_c, 0, 67, 61
1, 363537, Note_off_c, 0, 61, 60
1, 363550, Note_off_c, 0, 64, 58
1, 363554, Note_on_c, 0, 58, 87
1, 363572, Note_off_c, 0, 79, 60
1, 363583, Note_off_c, 0, 91, 57
1, 363642, Note_on_c, 0, 67, 75
1, 363645, Note_off_c, 0, 58, 60
1, 363651, Note_on_c, 0, 61, 71
1, 363670, Note_on_c, 0, 64, 49
1, 363681, Note_on_c, 0, 88, 92
1, 363688, Note_on_c, 0, 76, 80
1, 363692, Note_off_c, 0, 64, 61
1, 363701, Note_off_c, 0, 67, 58
1, 363709, Note_off_c, 0, 76, 71
1, 363712, Note_off_c, 0, 61, 61
1, 363719, Note_off_c, 0, 88, 65
1, 363743, Control_c, 0, 64, 105
1, 363745, Note_on_c, 0, 56, 85
1, 363757, Control_c, 0, 64, 81
1, 363761, Note_on_c, 0, 89, 104
1, 363763, Note_on_c, 0, 77, 102
1, 363772, Control_c, 0, 64, 0
1, 363855, Note_on_c, 0, 60, 65
1, 363862, Note_on_c, 0, 68, 78
1, 363865, Note_on_c, 0, 65, 72
1, 363868, Note_off_c, 0, 56, 61
1, 363877, Control_c, 0, 64, 75
1, 363892, Control_c, 0, 64, 95
1, 363907, Control_c, 0, 64, 119
1, 363919, Note_off_c, 0, 60, 58
1, 363921, Control_c, 0, 64, 123
1, 363936, Control_c, 0, 64, 127
1, 363940, Note_off_c, 0, 65, 57
1, 363946, Note_off_c, 0, 77, 63
1, 363951, Control_c, 0, 64, 127
1, 363959, Note_on_c, 0, 56, 87
1, 363966, Note_off_c, 0, 68, 58
1, 364021, Note_off_c, 0, 89, 64
1, 364058, Note_on_c, 0, 60, 63
1, 364060, Note_on_c, 0, 68, 87
1, 364063, Note_off_c, 0, 56, 62
1, 364068, Note_on_c, 0, 65, 80
1, 364075, Note_on_c, 0, 92, 111
1, 364077, Note_on_c, 0, 80, 111
1, 364138, Note_off_c, 0, 60, 61
1, 364138, Note_off_c, 0, 68, 58
1, 364164, Note_off_c, 0, 65, 56
1, 364182, Note_on_c, 0, 56, 89
1, 364277, Note_off_c, 0, 56, 58
1, 364284, Note_on_c, 0, 68, 86
1, 364285, Note_on_c, 0, 60, 75
1, 364287, Note_on_c, 0, 65, 70
1, 364318, Note_off_c, 0, 80, 56
1, 364328, Note_off_c, 0, 92, 59
1, 364338, Note_off_c, 0, 68, 62
1, 364339, Note_off_c, 0, 60, 59
1, 364350, Note_off_c, 0, 65, 63
1, 364381, Note_on_c, 0, 56, 91
1, 364481, Note_on_c, 0, 60, 76
1, 364485, Note_on_c, 0, 68, 86
1, 364485, Note_off_c, 0, 56, 61
1, 364488, Note_on_c, 0, 65, 73
1, 364538, Note_off_c, 0, 68, 61
1, 364541, Note_off_c, 0, 60, 61
1, 364557, Note_off_c, 0, 65, 60
1, 364581, Note_on_c, 0, 56, 87
1, 364667, Note_on_c, 0, 92, 107
1, 364668, Note_on_c, 0, 60, 64
1, 364671, Note_on_c, 0, 68, 93
1, 364673, Note_off_c, 0, 56, 60
1, 364673, Note_on_c, 0, 65, 81
1, 364673, Note_on_c, 0, 80, 94
1, 364717, Note_off_c, 0, 92, 70
1, 364718, Note_off_c, 0, 80, 63
1, 364741, Note_off_c, 0, 68, 62
1, 364777, Note_on_c, 0, 56, 83
1, 364844, Note_off_c, 0, 65, 35
1, 364876, Note_off_c, 0, 60, 0
1, 364876, Note_on_c, 0, 68, 93
1, 364879, Note_on_c, 0, 65, 60
1, 364889, Note_on_c, 0, 60, 40
1, 364900, Note_off_c, 0, 68, 69
1, 364909, Note_off_c, 0, 65, 68
1, 364922, Note_off_c, 0, 60, 65
1, 364939, Note_off_c, 0, 56, 69
1, 364953, Note_on_c, 0, 89, 97
1, 364959, Note_on_c, 0, 77, 95
1, 364986, Note_off_c, 0, 89, 70
1, 365003, Note_off_c, 0, 77, 66
1, 365092, Control_c, 0, 64, 123
1, 365107, Control_c, 0, 64, 84
1, 365121, Control_c, 0, 64, 0
1, 365136, Note_on_c, 0, 46, 105
1, 365140, Note_on_c, 0, 34, 99
1, 365166, Control_c, 0, 64, 43
1, 365174, Note_off_c, 0, 34, 64
1, 365179, Note_off_c, 0, 46, 67
1, 365181, Control_c, 0, 64, 93
1, 365195, Control_c, 0, 64, 127
1, 365221, Note_on_c, 0, 60, 63
1, 365228, Note_on_c, 0, 61, 18
1, 365251, Note_off_c, 0, 60, 65
1, 365259, Note_on_c, 0, 58, 79
1, 365266, Note_off_c, 0, 61, 41
1, 365329, Note_on_c, 0, 66, 87
1, 365333, Note_off_c, 0, 58, 64
1, 365377, Note_off_c, 0, 66, 64
1, 365393, Note_on_c, 0, 49, 81
1, 365447, Note_on_c, 0, 54, 79
1, 365484, Note_off_c, 0, 49, 62
1, 365497, Note_on_c, 0, 58, 95
1, 365511, Note_off_c, 0, 54, 63
1, 365532, Note_off_c, 0, 58, 68
1, 365551, Note_on_c, 0, 66, 81
1, 365618, Note_on_c, 0, 61, 82
1, 365621, Note_off_c, 0, 66, 67
1, 365685, Note_off_c, 0, 61, 64
1, 365686, Note_on_c, 0, 70, 95
1, 365735, Note_off_c, 0, 70, 64
1, 365742, Note_on_c, 0, 54, 72
1, 365785, Note_on_c, 0, 58, 87
1, 365841, Note_off_c, 0, 54, 62
1, 365846, Note_on_c, 0, 61, 101
1, 365857, Note_off_c, 0, 58, 64
1, 365880, Note_off_c, 0, 61, 67
1, 365908, Note_on_c, 0, 70, 82
1, 365964, Note_on_c, 0, 66, 84
1, 365966, Note_off_c, 0, 70, 61
1, 366032, Note_on_c, 0, 73, 93
1, 366045, Note_off_c, 0, 66, 66
1, 366080, Note_off_c, 0, 73, 63
1, 366095, Note_on_c, 0, 58, 85
1, 366144, Note_on_c, 0, 61, 82
1, 366179, Note_off_c, 0, 58, 62
1, 366199, Note_on_c, 0, 66, 103
1, 366202, Note_off_c, 0, 61, 64
1, 366232, Note_off_c, 0, 66, 70
1, 366248, Note_on_c, 0, 73, 82
1, 366308, Note_on_c, 0, 70, 82
1, 366309, Note_off_c, 0, 73, 61
1, 366369, Note_on_c, 0, 78, 94
1, 366384, Note_off_c, 0, 70, 65
1, 366419, Note_off_c, 0, 78, 63
1, 366435, Note_on_c, 0, 61, 80
1, 366492, Note_on_c, 0, 66, 84
1, 366521, Note_off_c, 0, 61, 62
1, 366540, Note_on_c, 0, 70, 99
1, 366545, Note_off_c, 0, 66, 60
1, 366571, Note_off_c, 0, 70, 66
1, 366600, Note_on_c, 0, 78, 85
1, 366649, Note_on_c, 0, 73, 80
1, 366654, Note_off_c, 0, 78, 65
1, 366708, Note_on_c, 0, 82, 91
1, 366715, Note_off_c, 0, 73, 63
1, 366754, Note_off_c, 0, 82, 65
1, 366765, Note_on_c, 0, 66, 77
1, 366807, Note_on_c, 0, 70, 85
1, 366840, Note_off_c, 0, 66, 65
1, 366858, Note_off_c, 0, 70, 65
1, 366860, Note_on_c, 0, 73, 101
1, 366891, Note_off_c, 0, 73, 68
1, 366915, Note_on_c, 0, 82, 82
1, 366967, Note_on_c, 0, 78, 86
1, 366968, Note_off_c, 0, 82, 65
1, 366971, Poly_aftertouch_c, 0, 85, 0
1, 367027, Note_on_c, 0, 85, 95
1, 367040, Note_off_c, 0, 78, 65
1, 367063, Note_off_c, 0, 85, 66
1, 367083, Note_on_c, 0, 70, 86
1, 367135, Note_on_c, 0, 73, 84
1, 367175, Note_off_c, 0, 70, 62
1, 367188, Note_off_c, 0, 73, 61
1, 367193, Note_on_c, 0, 78, 102
1, 367204, Note_on_c, 0, 87, 26
1, 367240, Note_off_c, 0, 78, 63
1, 367251, Note_on_c, 0, 85, 79
1, 367254, Note_off_c, 0, 87, 44
1, 367293, Note_on_c, 0, 82, 85
1, 367302, Note_off_c, 0, 85, 63
1, 367345, Note_on_c, 0, 90, 105
1, 367357, Note_off_c, 0, 82, 65
1, 367397, Note_off_c, 0, 90, 65
1, 367403, Note_on_c, 0, 73, 80
1, 367460, Note_on_c, 0, 78, 84
1, 367488, Note_off_c, 0, 73, 62
1, 367508, Note_on_c, 0, 82, 102
1, 367536, Note_off_c, 0, 78, 64
1, 367544, Note_off_c, 0, 82, 69
1, 367618, Note_on_c, 0, 90, 88
1, 367675, Note_off_c, 0, 90, 65
1, 367680, Note_on_c, 0, 85, 84
1, 367728, Note_on_c, 0, 94, 109
1, 367734, Note_off_c, 0, 85, 65
1, 367764, Note_off_c, 0, 94, 71
1, 367865, Control_c, 0, 64, 107
1, 367880, Control_c, 0, 64, 78
1, 367895, Control_c, 0, 64, 0
1, 367933, Note_on_c, 0, 48, 107
1, 367937, Note_on_c, 0, 36, 90
1, 367954, Control_c, 0, 64, 59
1, 367964, Note_off_c, 0, 36, 69
1, 367969, Control_c, 0, 64, 99
1, 367977, Note_off_c, 0, 48, 69
1, 367984, Control_c, 0, 64, 127
1, 368012, Note_on_c, 0, 63, 82
1, 368065, Note_on_c, 0, 60, 81
1, 368068, Note_off_c, 0, 63, 65
1, 368128, Note_on_c, 0, 69, 91
1, 368137, Note_off_c, 0, 60, 62
1, 368172, Note_off_c, 0, 69, 64
1, 368186, Note_on_c, 0, 51, 75
1, 368238, Note_on_c, 0, 57, 81
1, 368279, Note_off_c, 0, 51, 63
1, 368295, Note_on_c, 0, 60, 95
1, 368301, Note_off_c, 0, 57, 64
1, 368334, Note_off_c, 0, 60, 65
1, 368363, Note_on_c, 0, 69, 77
1, 368404, Note_on_c, 0, 63, 78
1, 368432, Note_off_c, 0, 69, 63
1, 368468, Note_off_c, 0, 63, 64
1, 368473, Note_on_c, 0, 72, 87
1, 368515, Note_off_c, 0, 72, 66
1, 368519, Note_on_c, 0, 57, 79
1, 368564, Note_on_c, 0, 60, 77
1, 368617, Note_off_c, 0, 57, 57
1, 368629, Note_off_c, 0, 60, 59
1, 368631, Note_on_c, 0, 63, 96
1, 368668, Note_off_c, 0, 63, 68
1, 368704, Note_on_c, 0, 72, 83
1, 368758, Note_off_c, 0, 72, 66
1, 368760, Note_on_c, 0, 69, 87
1, 368810, Note_on_c, 0, 75, 93
1, 368827, Note_off_c, 0, 69, 67
1, 368855, Note_off_c, 0, 75, 65
1, 368871, Note_on_c, 0, 60, 81
1, 368926, Note_on_c, 0, 63, 84
1, 368950, Note_off_c, 0, 60, 60
1, 368963, Note_off_c, 0, 63, 64
1, 368967, Note_on_c, 0, 69, 95
1, 368974, Note_on_c, 0, 78, 44
1, 369003, Note_off_c, 0, 78, 55
1, 369006, Note_off_c, 0, 69, 69
1, 369025, Note_on_c, 0, 75, 82
1, 369079, Note_off_c, 0, 75, 66
1, 369079, Note_on_c, 0, 72, 85
1, 369134, Note_on_c, 0, 81, 98
1, 369145, Note_off_c, 0, 72, 66
1, 369174, Note_off_c, 0, 81, 62
1, 369188, Note_on_c, 0, 63, 85
1, 369236, Note_on_c, 0, 69, 84
1, 369267, Note_off_c, 0, 63, 65
1, 369286, Note_off_c, 0, 69, 67
1, 369287, Note_on_c, 0, 72, 95
1, 369326, Note_off_c, 0, 72, 68
1, 369371, Note_on_c, 0, 81, 72
1, 369392, Note_on_c, 0, 75, 84
1, 369427, Note_off_c, 0, 81, 59
1, 369451, Note_on_c, 0, 84, 95
1, 369456, Note_off_c, 0, 75, 66
1, 369494, Note_off_c, 0, 84, 65
1, 369508, Note_on_c, 0, 69, 79
1, 369551, Note_on_c, 0, 72, 83
1, 369585, Note_off_c, 0, 69, 65
1, 369601, Note_on_c, 0, 75, 95
1, 369603, Note_off_c, 0, 72, 64
1, 369642, Note_off_c, 0, 75, 62
1, 369667, Note_on_c, 0, 84, 77
1, 369699, Poly_aftertouch_c, 0, 87, 0
1, 369719, Note_off_c, 0, 84, 66
1, 369721, Note_on_c, 0, 81, 83
1, 369777, Note_on_c, 0, 87, 97
1, 369794, Note_off_c, 0, 81, 63
1, 369819, Note_off_c, 0, 87, 65
1, 369828, Note_on_c, 0, 72, 84
1, 369862, Note_on_c, 0, 75, 84
1, 369892, Note_off_c, 0, 72, 63
1, 369912, Note_off_c, 0, 75, 65
1, 369916, Note_on_c, 0, 81, 96
1, 369937, Note_on_c, 0, 90, 46
1, 369961, Note_off_c, 0, 81, 65
1, 369966, Note_off_c, 0, 90, 54
1, 369991, Note_on_c, 0, 87, 86
1, 370040, Note_on_c, 0, 84, 87
1, 370042, Note_off_c, 0, 87, 65
1, 370083, Note_on_c, 0, 93, 98
1, 370096, Note_off_c, 0, 84, 66
1, 370128, Note_off_c, 0, 93, 65
1, 370158, Note_on_c, 0, 75, 68
1, 370198, Note_on_c, 0, 81, 81
1, 370232, Note_off_c, 0, 75, 66
1, 370242, Note_on_c, 0, 84, 98
1, 370269, Note_off_c, 0, 81, 65
1, 370280, Note_off_c, 0, 84, 67
1, 370382, Note_on_c, 0, 93, 81
1, 370425, Note_on_c, 0, 87, 88
1, 370432, Note_off_c, 0, 93, 63
1, 370476, Note_on_c, 0, 96, 103
1, 370479, Note_off_c, 0, 87, 66
1, 370503, Note_off_c, 0, 96, 69
1, 370630, Control_c, 0, 64, 106
1, 370645, Control_c, 0, 64, 64
1, 370660, Control_c, 0, 64, 0
1, 370693, Note_on_c, 0, 49, 109
1, 370700, Note_on_c, 0, 37, 96
1, 370719, Control_c, 0, 64, 67
1, 370724, Note_off_c, 0, 37, 71
1, 370733, Control_c, 0, 64, 107
1, 370734, Note_off_c, 0, 49, 65
1, 370748, Control_c, 0, 64, 127
1, 370764, Note_on_c, 0, 65, 58
1, 370766, Note_on_c, 0, 64, 54
1, 370796, Note_off_c, 0, 64, 65
1, 370816, Note_on_c, 0, 61, 73
1, 370831, Note_off_c, 0, 65, 64
1, 370886, Note_off_c, 0, 61, 63
1, 370888, Note_on_c, 0, 70, 92
1, 370937, Note_off_c, 0, 70, 61
1, 370961, Note_on_c, 0, 53, 77
1, 371016, Note_on_c, 0, 58, 85
1, 371038, Control_c, 0, 64, 109
1, 371044, Note_off_c, 0, 53, 63
1, 371053, Control_c, 0, 64, 95
1, 371068, Control_c, 0, 64, 87
1, 371073, Note_on_c, 0, 61, 102
1, 371083, Control_c, 0, 64, 87
1, 371098, Control_c, 0, 64, 101
1, 371112, Control_c, 0, 64, 127
1, 371122, Note_off_c, 0, 61, 64
1, 371129, Note_on_c, 0, 62, 31
1, 371136, Note_off_c, 0, 58, 63
1, 371164, Note_off_c, 0, 62, 45
1, 371222, Note_on_c, 0, 70, 79
1, 371274, Note_on_c, 0, 65, 85
1, 371279, Note_off_c, 0, 70, 63
1, 371285, Poly_aftertouch_c, 0, 73, 0
1, 371332, Note_on_c, 0, 73, 96
1, 371351, Note_off_c, 0, 65, 65
1, 371378, Control_c, 0, 64, 91
1, 371381, Note_off_c, 0, 73, 67
1, 371393, Control_c, 0, 64, 57
1, 371408, Control_c, 0, 64, 0
1, 371462, Note_on_c, 0, 52, 104
1, 371467, Note_on_c, 0, 40, 98
1, 371481, Control_c, 0, 64, 73
1, 371495, Note_off_c, 0, 40, 68
1, 371496, Control_c, 0, 64, 127
1, 371508, Note_off_c, 0, 52, 70
1, 371511, Note_on_c, 0, 70, 26
1, 371547, Note_on_c, 0, 67, 80
1, 371547, Note_off_c, 0, 70, 52
1, 371602, Note_on_c, 0, 64, 81
1, 371602, Note_off_c, 0, 67, 64
1, 371663, Note_off_c, 0, 64, 68
1, 371674, Note_on_c, 0, 72, 89
1, 371716, Note_off_c, 0, 72, 65
1, 371729, Note_on_c, 0, 55, 78
1, 371776, Note_on_c, 0, 60, 90
1, 371810, Note_off_c, 0, 55, 63
1, 371830, Note_on_c, 0, 64, 99
1, 371854, Note_off_c, 0, 60, 62
1, 371872, Note_off_c, 0, 64, 71
1, 371965, Note_on_c, 0, 72, 84
1, 372010, Note_off_c, 0, 72, 65
1, 372013, Note_on_c, 0, 67, 85
1, 372069, Note_on_c, 0, 76, 92
1, 372084, Note_off_c, 0, 67, 63
1, 372111, Control_c, 0, 64, 126
1, 372119, Note_off_c, 0, 76, 59
1, 372126, Control_c, 0, 64, 89
1, 372141, Control_c, 0, 64, 52
1, 372156, Control_c, 0, 64, 0
1, 372203, Note_on_c, 0, 53, 102
1, 372209, Note_on_c, 0, 41, 93
1, 372230, Control_c, 0, 64, 82
1, 372239, Note_off_c, 0, 41, 69
1, 372245, Control_c, 0, 64, 117
1, 372254, Note_off_c, 0, 53, 68
1, 372259, Control_c, 0, 64, 127
1, 372279, Note_on_c, 0, 68, 79
1, 372334, Note_on_c, 0, 65, 84
1, 372340, Note_off_c, 0, 68, 65
1, 372411, Note_on_c, 0, 73, 92
1, 372414, Note_off_c, 0, 65, 64
1, 372453, Note_on_c, 0, 56, 75
1, 372456, Note_off_c, 0, 73, 62
1, 372507, Note_on_c, 0, 61, 82
1, 372541, Note_off_c, 0, 56, 61
1, 372561, Note_on_c, 0, 65, 97
1, 372604, Note_off_c, 0, 65, 70
1, 372608, Note_off_c, 0, 61, 63
1, 372699, Note_on_c, 0, 73, 80
1, 372740, Note_off_c, 0, 73, 65
1, 372745, Note_on_c, 0, 68, 80
1, 372797, Note_off_c, 0, 68, 65
1, 372802, Note_on_c, 0, 77, 88
1, 372850, Note_off_c, 0, 77, 58
1, 372861, Control_c, 0, 64, 95
1, 372876, Control_c, 0, 64, 68
1, 372891, Control_c, 0, 64, 0
1, 372933, Note_on_c, 0, 55, 101
1, 372939, Note_on_c, 0, 43, 86
1, 372950, Control_c, 0, 64, 13
1, 372965, Control_c, 0, 64, 78
1, 372967, Note_off_c, 0, 43, 67
1, 372980, Control_c, 0, 64, 102
1, 372982, Note_off_c, 0, 55, 66
1, 372995, Control_c, 0, 64, 127
1, 372999, Note_on_c, 0, 70, 80
1, 373059, Note_on_c, 0, 67, 87
1, 373060, Note_off_c, 0, 70, 62
1, 373123, Note_on_c, 0, 76, 87
1, 373130, Note_off_c, 0, 67, 61
1, 373169, Note_off_c, 0, 76, 60
1, 373177, Note_on_c, 0, 58, 80
1, 373234, Note_on_c, 0, 64, 81
1, 373264, Note_off_c, 0, 58, 62
1, 373288, Note_on_c, 0, 67, 100
1, 373319, Note_off_c, 0, 64, 65
1, 373333, Note_off_c, 0, 67, 66
1, 373417, Note_on_c, 0, 76, 65
1, 373467, Note_on_c, 0, 70, 83
1, 373473, Note_off_c, 0, 76, 68
1, 373527, Note_off_c, 0, 70, 64
1, 373534, Note_on_c, 0, 79, 87
1, 373565, Control_c, 0, 64, 117
1, 373578, Note_off_c, 0, 79, 61
1, 373580, Control_c, 0, 64, 91
1, 373595, Control_c, 0, 64, 59
1, 373610, Control_c, 0, 64, 0
1, 373657, Note_on_c, 0, 44, 95
1, 373684, Control_c, 0, 64, 30
1, 373699, Control_c, 0, 64, 83
1, 373706, Note_off_c, 0, 44, 65
1, 373714, Control_c, 0, 64, 106
1, 373726, Note_on_c, 0, 72, 69
1, 373729, Control_c, 0, 64, 127
1, 373789, Note_on_c, 0, 68, 84
1, 373792, Note_off_c, 0, 72, 66
1, 373856, Note_on_c, 0, 77, 81
1, 373867, Note_off_c, 0, 68, 63
1, 373893, Note_on_c, 0, 56, 76
1, 373899, Control_c, 0, 64, 108
1, 373914, Control_c, 0, 64, 88
1, 373917, Note_off_c, 0, 77, 57
1, 373929, Control_c, 0, 64, 65
1, 373941, Note_off_c, 0, 56, 64
1, 373944, Control_c, 0, 64, 0
1, 373946, Note_on_c, 0, 60, 82
1, 373965, Note_off_c, 0, 60, 69
1, 373997, Note_on_c, 0, 46, 95
1, 374018, Control_c, 0, 64, 64
1, 374032, Control_c, 0, 64, 85
1, 374034, Note_off_c, 0, 46, 63
1, 374047, Control_c, 0, 64, 114
1, 374054, Note_on_c, 0, 73, 74
1, 374062, Control_c, 0, 64, 127
1, 374100, Note_on_c, 0, 70, 85
1, 374102, Note_off_c, 0, 73, 64
1, 374152, Note_off_c, 0, 70, 66
1, 374167, Note_on_c, 0, 79, 93
1, 374217, Note_on_c, 0, 58, 71
1, 374224, Note_off_c, 0, 79, 61
1, 374226, Control_c, 0, 64, 111
1, 374241, Control_c, 0, 64, 94
1, 374255, Control_c, 0, 64, 76
1, 374264, Note_off_c, 0, 58, 65
1, 374266, Note_on_c, 0, 61, 80
1, 374270, Control_c, 0, 64, 0
1, 374301, Note_off_c, 0, 61, 62
1, 374320, Note_on_c, 0, 48, 96
1, 374370, Note_off_c, 0, 48, 66
1, 374373, Poly_aftertouch_c, 0, 78, 127
1, 374374, Control_c, 0, 64, 75
1, 374388, Control_c, 0, 64, 96
1, 374391, Note_on_c, 0, 75, 84
1, 374402, Poly_aftertouch_c, 0, 78, 0
1, 374403, Control_c, 0, 64, 127
1, 374443, Note_off_c, 0, 75, 67
1, 374444, Note_on_c, 0, 72, 84
1, 374490, Note_on_c, 0, 81, 95
1, 374503, Note_off_c, 0, 72, 65
1, 374531, Note_off_c, 0, 81, 60
1, 374550, Note_on_c, 0, 60, 70
1, 374567, Control_c, 0, 64, 108
1, 374581, Control_c, 0, 64, 87
1, 374593, Note_on_c, 0, 63, 83
1, 374602, Note_off_c, 0, 60, 63
1, 374603, Control_c, 0, 64, 64
1, 374618, Control_c, 0, 64, 0
1, 374642, Note_off_c, 0, 63, 63
1, 374655, Note_on_c, 0, 49, 89
1, 374677, Control_c, 0, 64, 38
1, 374690, Note_off_c, 0, 49, 67
1, 374692, Control_c, 0, 64, 75
1, 374707, Control_c, 0, 64, 95
1, 374709, Note_on_c, 0, 77, 71
1, 374722, Control_c, 0, 64, 123
1, 374736, Control_c, 0, 64, 127
1, 374749, Note_on_c, 0, 73, 80
1, 374766, Note_off_c, 0, 77, 63
1, 374799, Note_on_c, 0, 82, 95
1, 374814, Note_off_c, 0, 73, 63
1, 374858, Note_off_c, 0, 82, 60
1, 374870, Note_on_c, 0, 61, 80
1, 374885, Control_c, 0, 64, 123
1, 374899, Control_c, 0, 64, 99
1, 374913, Note_off_c, 0, 61, 65
1, 374914, Note_on_c, 0, 65, 82
1, 374914, Control_c, 0, 64, 79
1, 374929, Control_c, 0, 64, 24
1, 374944, Control_c, 0, 64, 0
1, 374949, Note_off_c, 0, 65, 66
1, 374968, Note_on_c, 0, 52, 102
1, 375004, Control_c, 0, 64, 70
1, 375014, Note_off_c, 0, 52, 69
1, 375019, Control_c, 0, 64, 88
1, 375034, Control_c, 0, 64, 111
1, 375038, Note_on_c, 0, 79, 80
1, 375049, Control_c, 0, 64, 117
1, 375064, Control_c, 0, 64, 118
1, 375078, Control_c, 0, 64, 118
1, 375085, Note_on_c, 0, 76, 84
1, 375091, Note_off_c, 0, 79, 61
1, 375093, Control_c, 0, 64, 119
1, 375108, Control_c, 0, 64, 120
1, 375123, Control_c, 0, 64, 123
1, 375129, Note_on_c, 0, 84, 87
1, 375131, Note_off_c, 0, 76, 69
1, 375137, Control_c, 0, 64, 126
1, 375152, Control_c, 0, 64, 127
1, 375175, Note_off_c, 0, 84, 61
1, 375197, Note_on_c, 0, 64, 76
1, 375197, Control_c, 0, 64, 125
1, 375211, Control_c, 0, 64, 108
1, 375226, Control_c, 0, 64, 84
1, 375230, Note_on_c, 0, 67, 83
1, 375235, Note_off_c, 0, 64, 67
1, 375241, Control_c, 0, 64, 52
1, 375256, Control_c, 0, 64, 0
1, 375273, Note_off_c, 0, 67, 61
1, 375283, Note_on_c, 0, 53, 99
1, 375315, Control_c, 0, 64, 65
1, 375321, Note_on_c, 0, 85, 22
1, 375327, Note_off_c, 0, 53, 68
1, 375330, Control_c, 0, 64, 82
1, 375341, Note_on_c, 0, 80, 89
1, 375345, Control_c, 0, 64, 99
1, 375365, Note_off_c, 0, 85, 54
1, 375367, Control_c, 0, 64, 108
1, 375382, Control_c, 0, 64, 109
1, 375397, Note_on_c, 0, 77, 88
1, 375397, Control_c, 0, 64, 109
1, 375398, Note_off_c, 0, 80, 66
1, 375411, Control_c, 0, 64, 111
1, 375426, Control_c, 0, 64, 114
1, 375441, Control_c, 0, 64, 119
1, 375446, Note_on_c, 0, 85, 96
1, 375456, Control_c, 0, 64, 124
1, 375461, Note_off_c, 0, 77, 61
1, 375471, Control_c, 0, 64, 127
1, 375494, Note_off_c, 0, 85, 62
1, 375517, Note_on_c, 0, 65, 72
1, 375529, Control_c, 0, 64, 118
1, 375544, Control_c, 0, 64, 98
1, 375547, Note_on_c, 0, 68, 83
1, 375558, Note_off_c, 0, 65, 63
1, 375559, Control_c, 0, 64, 76
1, 375574, Control_c, 0, 64, 0
1, 375592, Note_off_c, 0, 68, 64
1, 375603, Note_on_c, 0, 55, 92
1, 375634, Control_c, 0, 64, 57
1, 375637, Note_on_c, 0, 85, 8
1, 375649, Control_c, 0, 64, 75
1, 375653, Note_off_c, 0, 55, 64
1, 375662, Note_on_c, 0, 82, 84
1, 375664, Control_c, 0, 64, 90
1, 375678, Control_c, 0, 64, 102
1, 375680, Note_off_c, 0, 85, 51
1, 375693, Control_c, 0, 64, 105
1, 375705, Note_on_c, 0, 79, 89
1, 375709, Note_off_c, 0, 82, 66
1, 375722, Control_c, 0, 64, 106
1, 375737, Control_c, 0, 64, 106
1, 375752, Control_c, 0, 64, 108
1, 375753, Note_on_c, 0, 88, 98
1, 375766, Note_off_c, 0, 79, 65
1, 375767, Control_c, 0, 64, 110
1, 375783, Control_c, 0, 64, 112
1, 375798, Control_c, 0, 64, 114
1, 375813, Control_c, 0, 64, 114
1, 375815, Note_off_c, 0, 88, 58
1, 375816, Note_on_c, 0, 67, 73
1, 375842, Control_c, 0, 64, 114
1, 375855, Note_on_c, 0, 70, 79
1, 375857, Control_c, 0, 64, 101
1, 375860, Note_off_c, 0, 67, 65
1, 375872, Control_c, 0, 64, 81
1, 375887, Control_c, 0, 64, 44
1, 375893, Note_off_c, 0, 70, 65
1, 375901, Control_c, 0, 64, 0
1, 375908, Note_on_c, 0, 56, 95
1, 375946, Control_c, 0, 64, 70
1, 375948, Note_off_c, 0, 56, 67
1, 375960, Control_c, 0, 64, 86
1, 375965, Note_on_c, 0, 84, 78
1, 375975, Control_c, 0, 64, 102
1, 375990, Control_c, 0, 64, 108
1, 376005, Note_on_c, 0, 80, 84
1, 376005, Control_c, 0, 64, 108
1, 376020, Control_c, 0, 64, 109
1, 376022, Note_off_c, 0, 84, 65
1, 376034, Control_c, 0, 64, 111
1, 376049, Control_c, 0, 64, 113
1, 376063, Note_on_c, 0, 89, 93
1, 376064, Control_c, 0, 64, 114
1, 376072, Note_off_c, 0, 80, 64
1, 376078, Control_c, 0, 64, 115
1, 376093, Control_c, 0, 64, 116
1, 376127, Note_on_c, 0, 68, 76
1, 376146, Control_c, 0, 64, 113
1, 376160, Control_c, 0, 64, 101
1, 376167, Note_off_c, 0, 89, 52
1, 376167, Note_on_c, 0, 72, 81
1, 376172, Note_off_c, 0, 68, 65
1, 376175, Control_c, 0, 64, 85
1, 376188, Note_off_c, 0, 72, 72
1, 376190, Control_c, 0, 64, 64
1, 376205, Control_c, 0, 64, 0
1, 376224, Note_on_c, 0, 58, 94
1, 376249, Control_c, 0, 64, 61
1, 376264, Note_on_c, 0, 57, 36
1, 376264, Control_c, 0, 64, 74
1, 376271, Note_on_c, 0, 85, 78
1, 376273, Note_off_c, 0, 58, 63
1, 376278, Control_c, 0, 64, 89
1, 376293, Note_off_c, 0, 57, 56
1, 376293, Control_c, 0, 64, 100
1, 376307, Note_on_c, 0, 82, 89
1, 376308, Control_c, 0, 64, 104
1, 376311, Note_off_c, 0, 85, 68
1, 376323, Control_c, 0, 64, 108
1, 376338, Control_c, 0, 64, 112
1, 376352, Control_c, 0, 64, 116
1, 376358, Note_off_c, 0, 82, 66
1, 376367, Control_c, 0, 64, 119
1, 376372, Note_on_c, 0, 91, 99
1, 376382, Control_c, 0, 64, 121
1, 376397, Control_c, 0, 64, 123
1, 376412, Control_c, 0, 64, 126
1, 376427, Control_c, 0, 64, 127
1, 376432, Note_on_c, 0, 70, 77
1, 376433, Note_off_c, 0, 91, 57
1, 376442, Control_c, 0, 64, 126
1, 376456, Control_c, 0, 64, 115
1, 376471, Note_on_c, 0, 73, 81
1, 376471, Control_c, 0, 64, 96
1, 376477, Note_off_c, 0, 70, 66
1, 376486, Control_c, 0, 64, 77
1, 376501, Control_c, 0, 64, 18
1, 376507, Note_off_c, 0, 73, 64
1, 376516, Control_c, 0, 64, 0
1, 376525, Note_on_c, 0, 60, 96
1, 376560, Control_c, 0, 64, 60
1, 376576, Control_c, 0, 64, 74
1, 376578, Note_on_c, 0, 87, 89
1, 376578, Poly_aftertouch_c, 0, 90, 127
1, 376579, Note_off_c, 0, 60, 64
1, 376591, Control_c, 0, 64, 86
1, 376606, Control_c, 0, 64, 95
1, 376615, Poly_aftertouch_c, 0, 90, 0
1, 376620, Control_c, 0, 64, 97
1, 376632, Note_on_c, 0, 84, 82
1, 376633, Note_off_c, 0, 87, 65
1, 376635, Control_c, 0, 64, 97
1, 376650, Control_c, 0, 64, 99
1, 376665, Control_c, 0, 64, 103
1, 376680, Control_c, 0, 64, 106
1, 376680, Note_on_c, 0, 93, 99
1, 376694, Control_c, 0, 64, 108
1, 376695, Note_off_c, 0, 84, 65
1, 376709, Control_c, 0, 64, 110
1, 376724, Control_c, 0, 64, 110
1, 376740, Note_off_c, 0, 93, 53
1, 376743, Note_on_c, 0, 72, 71
1, 376754, Control_c, 0, 64, 106
1, 376768, Control_c, 0, 64, 91
1, 376775, Note_on_c, 0, 75, 85
1, 376779, Note_off_c, 0, 72, 65
1, 376783, Control_c, 0, 64, 69
1, 376798, Control_c, 0, 64, 0
1, 376817, Note_off_c, 0, 75, 68
1, 376835, Note_on_c, 0, 61, 90
1, 376865, Control_c, 0, 64, 72
1, 376880, Control_c, 0, 64, 88
1, 376880, Note_off_c, 0, 61, 64
1, 376895, Control_c, 0, 64, 103
1, 376901, Note_on_c, 0, 89, 80
1, 376909, Control_c, 0, 64, 107
1, 376924, Control_c, 0, 64, 107
1, 376939, Control_c, 0, 64, 108
1, 376949, Note_on_c, 0, 85, 79
1, 376954, Control_c, 0, 64, 110
1, 376957, Note_off_c, 0, 89, 65
1, 376969, Control_c, 0, 64, 111
1, 376983, Control_c, 0, 64, 112
1, 376998, Control_c, 0, 64, 114
1, 377003, Note_on_c, 0, 94, 100
1, 377013, Control_c, 0, 64, 115
1, 377014, Note_off_c, 0, 85, 63
1, 377028, Control_c, 0, 64, 115
1, 377043, Control_c, 0, 64, 116
1, 377057, Note_on_c, 0, 73, 74
1, 377091, Note_off_c, 0, 94, 51
1, 377094, Note_on_c, 0, 77, 79
1, 377101, Control_c, 0, 64, 116
1, 377103, Note_off_c, 0, 73, 62
1, 377114, Note_off_c, 0, 77, 69
1, 377146, Control_c, 0, 64, 117
1, 377154, Note_on_c, 0, 61, 89
1, 377161, Control_c, 0, 64, 119
1, 377175, Control_c, 0, 64, 120
1, 377179, Note_off_c, 0, 61, 62
1, 377190, Control_c, 0, 64, 122
1, 377205, Control_c, 0, 64, 124
1, 377220, Note_on_c, 0, 89, 80
1, 377220, Control_c, 0, 64, 126
1, 377235, Control_c, 0, 64, 127
1, 377276, Note_off_c, 0, 89, 65
1, 377280, Note_on_c, 0, 85, 84
1, 377326, Note_on_c, 0, 94, 100
1, 377342, Note_off_c, 0, 85, 66
1, 377375, Note_on_c, 0, 73, 68
1, 377392, Note_off_c, 0, 94, 65
1, 377427, Note_off_c, 0, 73, 64
1, 377432, Note_on_c, 0, 77, 81
1, 377450, Note_off_c, 0, 77, 71
1, 377512, Note_on_c, 0, 61, 84
1, 377542, Note_off_c, 0, 61, 61
1, 377567, Note_on_c, 0, 73, 76
1, 377613, Note_off_c, 0, 73, 53
1, 377643, Note_on_c, 0, 77, 89
1, 377676, Note_off_c, 0, 77, 63
1, 377694, Note_on_c, 0, 89, 78
1, 377744, Note_on_c, 0, 85, 86
1, 377747, Note_off_c, 0, 89, 66
1, 377798, Note_off_c, 0, 85, 64
1, 377799, Note_on_c, 0, 94, 91
1, 377859, Note_on_c, 0, 89, 83
1, 377891, Note_off_c, 0, 94, 64
1, 377909, Note_on_c, 0, 85, 90
1, 377923, Note_off_c, 0, 89, 67
1, 377947, Note_off_c, 0, 85, 67
1, 377965, Note_on_c, 0, 82, 75
1, 377980, Note_off_c, 0, 82, 69
1, 378034, Note_on_c, 0, 77, 88
1, 378095, Note_on_c, 0, 73, 86
1, 378097, Note_off_c, 0, 77, 65
1, 378146, Note_off_c, 0, 73, 64
1, 378148, Note_on_c, 0, 82, 91
1, 378210, Note_on_c, 0, 77, 81
1, 378238, Note_off_c, 0, 82, 62
1, 378265, Note_on_c, 0, 73, 85
1, 378272, Note_off_c, 0, 77, 64
1, 378302, Note_off_c, 0, 73, 63
1, 378311, Note_on_c, 0, 70, 81
1, 378331, Note_off_c, 0, 70, 71
1, 378397, Note_on_c, 0, 65, 86
1, 378448, Note_off_c, 0, 65, 67
1, 378449, Note_on_c, 0, 61, 82
1, 378502, Note_on_c, 0, 70, 82
1, 378505, Note_off_c, 0, 61, 61
1, 378562, Note_on_c, 0, 65, 79
1, 378583, Note_off_c, 0, 70, 62
1, 378621, Note_on_c, 0, 61, 85
1, 378630, Note_off_c, 0, 65, 65
1, 378663, Note_on_c, 0, 58, 77
1, 378680, Note_off_c, 0, 61, 63
1, 378704, Note_on_c, 0, 53, 76
1, 378710, Note_off_c, 0, 58, 62
1, 378773, Note_on_c, 0, 49, 79
1, 378784, Note_off_c, 0, 53, 64
1, 378819, Note_off_c, 0, 49, 61
1, 378829, Note_on_c, 0, 58, 80
1, 378886, Note_on_c, 0, 53, 71
1, 378889, Note_off_c, 0, 58, 61
1, 378934, Note_on_c, 0, 49, 77
1, 378962, Note_off_c, 0, 53, 64
1, 378985, Note_on_c, 0, 46, 93
1, 378993, Note_off_c, 0, 49, 63
1, 379052, Note_on_c, 0, 49, 64
1, 379101, Note_on_c, 0, 53, 83
1, 379106, Note_off_c, 0, 46, 61
1, 379133, Note_off_c, 0, 49, 63
1, 379154, Note_off_c, 0, 53, 67
1, 379163, Note_on_c, 0, 58, 85
1, 379214, Note_off_c, 0, 58, 61
1, 379232, Note_on_c, 0, 61, 87
1, 379272, Note_on_c, 0, 65, 79
1, 379273, Note_off_c, 0, 61, 63
1, 379330, Note_on_c, 0, 70, 79
1, 379344, Note_off_c, 0, 65, 58
1, 379384, Note_on_c, 0, 73, 82
1, 379423, Note_off_c, 0, 70, 62
1, 379428, Note_off_c, 0, 73, 65
1, 379437, Note_on_c, 0, 77, 80
1, 379503, Note_on_c, 0, 73, 83
1, 379505, Note_off_c, 0, 77, 63
1, 379546, Note_off_c, 0, 73, 66
1, 379553, Note_on_c, 0, 70, 90
1, 379572, Note_off_c, 0, 70, 67
1, 379688, Note_on_c, 0, 77, 60
1, 379708, Note_off_c, 0, 77, 58
1, 379720, Note_on_c, 0, 79, 37
1, 379721, Note_on_c, 0, 82, 75
1, 379749, Note_off_c, 0, 79, 34
1, 379754, Note_off_c, 0, 82, 64
1, 379781, Note_on_c, 0, 85, 49
1, 379804, Note_off_c, 0, 85, 58
1, 379831, Note_on_c, 0, 82, 85
1, 379893, Note_on_c, 0, 89, 68
1, 379908, Note_on_c, 0, 88, 56
1, 379920, Note_off_c, 0, 82, 62
1, 379928, Note_off_c, 0, 88, 57
1, 379959, Note_on_c, 0, 85, 83
1, 379985, Note_off_c, 0, 89, 66
1, 380028, Note_on_c, 0, 94, 93
1, 380045, Note_off_c, 0, 85, 63
1, 380088, Note_on_c, 0, 89, 78
1, 380121, Note_off_c, 0, 94, 63
1, 380149, Note_on_c, 0, 85, 93
1, 380171, Note_off_c, 0, 89, 66
1, 380200, Control_c, 0, 64, 108
1, 380207, Note_on_c, 0, 82, 97
1, 380212, Note_off_c, 0, 85, 69
1, 380215, Control_c, 0, 64, 81
1, 380230, Control_c, 0, 64, 0
1, 380260, Note_off_c, 0, 82, 66
1, 380286, Note_on_c, 0, 62, 88
1, 380334, Control_c, 0, 64, 82
1, 380337, Note_off_c, 0, 62, 63
1, 380347, Note_on_c, 0, 74, 80
1, 380349, Control_c, 0, 64, 119
1, 380364, Control_c, 0, 64, 127
1, 380413, Note_on_c, 0, 77, 92
1, 380423, Note_off_c, 0, 74, 62
1, 380448, Note_off_c, 0, 77, 62
1, 380472, Note_on_c, 0, 92, 87
1, 380526, Note_off_c, 0, 92, 66
1, 380533, Note_on_c, 0, 89, 92
1, 380596, Note_off_c, 0, 89, 67
1, 380609, Note_on_c, 0, 95, 96
1, 380676, Note_on_c, 0, 92, 87
1, 380708, Note_off_c, 0, 95, 65
1, 380731, Note_on_c, 0, 89, 87
1, 380739, Note_off_c, 0, 92, 66
1, 380771, Note_off_c, 0, 89, 67
1, 380782, Note_on_c, 0, 86, 72
1, 380799, Note_off_c, 0, 86, 68
1, 380847, Note_on_c, 0, 83, 86
1, 380904, Note_on_c, 0, 80, 72
1, 380907, Note_off_c, 0, 83, 63
1, 380954, Note_off_c, 0, 80, 63
1, 380960, Note_on_c, 0, 77, 82
1, 381014, Note_on_c, 0, 83, 91
1, 381014, Note_off_c, 0, 77, 60
1, 381071, Note_on_c, 0, 80, 86
1, 381102, Note_off_c, 0, 83, 58
1, 381134, Note_off_c, 0, 80, 66
1, 381137, Note_on_c, 0, 77, 81
1, 381181, Note_off_c, 0, 77, 60
1, 381185, Note_on_c, 0, 74, 78
1, 381217, Note_off_c, 0, 74, 63
1, 381261, Note_on_c, 0, 71, 74
1, 381310, Note_on_c, 0, 68, 75
1, 381310, Note_off_c, 0, 71, 61
1, 381369, Note_off_c, 0, 68, 63
1, 381383, Note_on_c, 0, 74, 85
1, 381430, Note_on_c, 0, 71, 77
1, 381467, Note_off_c, 0, 74, 63
1, 381487, Note_on_c, 0, 68, 88
1, 381493, Note_off_c, 0, 71, 61
1, 381533, Note_off_c, 0, 68, 65
1, 381544, Note_on_c, 0, 65, 79
1, 381584, Note_off_c, 0, 65, 60
1, 381624, Note_on_c, 0, 62, 72
1, 381682, Note_off_c, 0, 62, 60
1, 381683, Note_on_c, 0, 59, 81
1, 381738, Note_off_c, 0, 59, 64
1, 381746, Note_on_c, 0, 68, 90
1, 381807, Note_on_c, 0, 65, 83
1, 381831, Note_off_c, 0, 68, 63
1, 381870, Note_on_c, 0, 62, 78
1, 381871, Note_off_c, 0, 65, 66
1, 381923, Note_off_c, 0, 62, 60
1, 381923, Note_on_c, 0, 59, 79
1, 381963, Note_off_c, 0, 59, 62
1, 382001, Note_on_c, 0, 56, 74
1, 382055, Note_on_c, 0, 53, 80
1, 382076, Note_off_c, 0, 56, 64
1, 382114, Note_on_c, 0, 50, 77
1, 382118, Note_off_c, 0, 53, 65
1, 382176, Note_off_c, 0, 50, 63
1, 382177, Note_on_c, 0, 47, 81
1, 382235, Note_off_c, 0, 47, 66
1, 382237, Note_on_c, 0, 50, 84
1, 382304, Note_on_c, 0, 53, 87
1, 382334, Note_off_c, 0, 50, 63
1, 382351, Note_on_c, 0, 56, 79
1, 382360, Note_off_c, 0, 53, 66
1, 382377, Note_off_c, 0, 56, 68
1, 382414, Note_on_c, 0, 59, 82
1, 382463, Note_off_c, 0, 59, 67
1, 382474, Note_on_c, 0, 62, 87
1, 382535, Note_on_c, 0, 65, 88
1, 382568, Note_off_c, 0, 62, 61
1, 382591, Note_on_c, 0, 68, 85
1, 382606, Note_off_c, 0, 65, 66
1, 382629, Note_off_c, 0, 68, 66
1, 382658, Note_on_c, 0, 71, 84
1, 382713, Note_off_c, 0, 71, 64
1, 382717, Note_on_c, 0, 74, 91
1, 382785, Note_on_c, 0, 77, 91
1, 382844, Note_off_c, 0, 74, 62
1, 382871, Note_on_c, 0, 79, 79
1, 382881, Note_off_c, 0, 77, 64
1, 382916, Note_off_c, 0, 79, 60
1, 382943, Note_on_c, 0, 83, 94
1, 383014, Note_off_c, 0, 83, 64
1, 383026, Note_on_c, 0, 86, 90
1, 383109, Note_on_c, 0, 89, 91
1, 383131, Note_off_c, 0, 86, 66
1, 383194, Note_on_c, 0, 92, 94
1, 383237, Note_off_c, 0, 89, 62
1, 383242, Note_on_c, 0, 93, 31
1, 383276, Note_off_c, 0, 93, 48
1, 383287, Note_on_c, 0, 95, 109
1, 383296, Note_off_c, 0, 92, 66
1, 383319, Note_off_c, 0, 95, 69
1, 383481, Note_on_c, 0, 36, 108
1, 383493, Control_c, 0, 64, 109
1, 383508, Control_c, 0, 64, 68
1, 383523, Control_c, 0, 64, 0
1, 383852, Note_on_c, 0, 92, 99
1, 383944, Note_off_c, 0, 92, 63
1, 383944, Control_c, 0, 64, 64
1, 383948, Note_on_c, 0, 89, 92
1, 383959, Control_c, 0, 64, 71
1, 383974, Control_c, 0, 64, 84
1, 383989, Control_c, 0, 64, 101
1, 384004, Control_c, 0, 64, 127
1, 384023, Note_off_c, 0, 89, 65
1, 384037, Note_on_c, 0, 96, 99
1, 384112, Note_on_c, 0, 92, 94
1, 384127, Note_off_c, 0, 96, 64
1, 384188, Note_on_c, 0, 89, 88
1, 384190, Note_off_c, 0, 92, 66
1, 384235, Note_off_c, 0, 89, 66
1, 384249, Note_on_c, 0, 84, 77
1, 384290, Note_off_c, 0, 84, 60
1, 384318, Note_on_c, 0, 80, 86
1, 384373, Note_off_c, 0, 80, 64
1, 384384, Note_on_c, 0, 77, 84
1, 384426, Note_off_c, 0, 77, 63
1, 384448, Note_on_c, 0, 84, 84
1, 384509, Note_on_c, 0, 80, 83
1, 384528, Note_off_c, 0, 84, 60
1, 384570, Note_on_c, 0, 77, 90
1, 384582, Note_off_c, 0, 80, 63
1, 384615, Note_off_c, 0, 77, 64
1, 384639, Note_on_c, 0, 72, 77
1, 384675, Note_off_c, 0, 72, 61
1, 384707, Note_on_c, 0, 68, 82
1, 384757, Note_off_c, 0, 68, 65
1, 384766, Note_on_c, 0, 65, 85
1, 384813, Note_off_c, 0, 65, 66
1, 384828, Note_on_c, 0, 72, 87
1, 384891, Note_on_c, 0, 68, 84
1, 384916, Note_off_c, 0, 72, 59
1, 384954, Note_on_c, 0, 65, 87
1, 384964, Note_off_c, 0, 68, 64
1, 385001, Note_off_c, 0, 65, 67
1, 385020, Note_on_c, 0, 60, 79
1, 385038, Note_off_c, 0, 36, 52
1, 385069, Note_off_c, 0, 60, 59
1, 385101, Note_on_c, 0, 56, 83
1, 385156, Note_off_c, 0, 56, 63
1, 385162, Note_on_c, 0, 53, 80
1, 385217, Note_off_c, 0, 53, 65
1, 385227, Note_on_c, 0, 60, 85
1, 385295, Note_on_c, 0, 56, 82
1, 385299, Note_off_c, 0, 60, 59
1, 385360, Note_on_c, 0, 53, 85
1, 385360, Note_off_c, 0, 56, 66
1, 385419, Note_off_c, 0, 53, 64
1, 385425, Note_on_c, 0, 48, 83
1, 385477, Note_on_c, 0, 44, 79
1, 385479, Note_off_c, 0, 48, 61
1, 385548, Note_on_c, 0, 41, 78
1, 385551, Note_off_c, 0, 44, 64
1, 385590, Note_off_c, 0, 41, 66
1, 385594, Note_on_c, 0, 36, 82
1, 385662, Note_on_c, 0, 41, 82
1, 385674, Note_off_c, 0, 36, 62
1, 385728, Note_on_c, 0, 44, 84
1, 385730, Note_off_c, 0, 41, 66
1, 385776, Note_on_c, 0, 48, 81
1, 385784, Note_off_c, 0, 44, 62
1, 385817, Note_off_c, 0, 48, 67
1, 385824, Note_on_c, 0, 53, 81
1, 385882, Note_on_c, 0, 56, 83
1, 385890, Note_off_c, 0, 53, 66
1, 385903, Note_off_c, 0, 56, 71
1, 385963, Note_on_c, 0, 60, 75
1, 386011, Note_off_c, 0, 60, 65
1, 386018, Note_on_c, 0, 65, 85
1, 386079, Note_on_c, 0, 68, 83
1, 386092, Note_off_c, 0, 65, 66
1, 386110, Note_off_c, 0, 68, 61
1, 386161, Note_on_c, 0, 72, 77
1, 386181, Note_on_c, 0, 74, 55
1, 386204, Note_off_c, 0, 74, 59
1, 386216, Note_off_c, 0, 72, 66
1, 386217, Note_on_c, 0, 77, 86
1, 386282, Note_on_c, 0, 80, 87
1, 386284, Note_off_c, 0, 77, 64
1, 386318, Note_off_c, 0, 80, 59
1, 386358, Note_on_c, 0, 84, 87
1, 386416, Note_off_c, 0, 84, 66
1, 386420, Note_on_c, 0, 89, 91
1, 386487, Note_on_c, 0, 92, 100
1, 386507, Note_off_c, 0, 89, 65
1, 386551, Note_on_c, 0, 96, 95
1, 386556, Note_off_c, 0, 92, 67
1, 386640, Note_on_c, 0, 92, 98
1, 386661, Note_off_c, 0, 96, 64
1, 386719, Note_on_c, 0, 89, 94
1, 386742, Note_off_c, 0, 92, 64
1, 386794, Note_on_c, 0, 84, 86
1, 386794, Note_off_c, 0, 89, 66
1, 386850, Control_c, 0, 64, 97
1, 386852, Note_off_c, 0, 84, 63
1, 386865, Control_c, 0, 64, 66
1, 386874, Note_on_c, 0, 36, 93
1, 386879, Control_c, 0, 64, 0
1, 386939, Control_c, 0, 64, 68
1, 386948, Note_on_c, 0, 48, 86
1, 386955, Control_c, 0, 64, 102
1, 386960, Note_off_c, 0, 36, 63
1, 386970, Control_c, 0, 64, 127
1, 386979, Note_off_c, 0, 48, 66
1, 387048, Note_on_c, 0, 52, 90
1, 387122, Note_on_c, 0, 91, 77
1, 387123, Note_on_c, 0, 55, 79
1, 387127, Note_off_c, 0, 52, 65
1, 387191, Note_off_c, 0, 55, 65
1, 387192, Note_off_c, 0, 91, 60
1, 387198, Note_on_c, 0, 88, 82
1, 387207, Note_on_c, 0, 57, 75
1, 387251, Note_off_c, 0, 57, 57
1, 387263, Note_off_c, 0, 88, 63
1, 387265, Note_on_c, 0, 94, 89
1, 387345, Note_off_c, 0, 94, 67
1, 387346, Note_on_c, 0, 91, 87
1, 387416, Note_on_c, 0, 88, 79
1, 387426, Note_off_c, 0, 91, 59
1, 387469, Note_off_c, 0, 88, 63
1, 387484, Note_on_c, 0, 84, 76
1, 387531, Note_off_c, 0, 84, 60
1, 387561, Note_on_c, 0, 82, 78
1, 387629, Note_on_c, 0, 79, 76
1, 387645, Note_off_c, 0, 82, 63
1, 387690, Note_off_c, 0, 79, 61
1, 387693, Note_on_c, 0, 76, 74
1, 387737, Note_off_c, 0, 76, 66
1, 387767, Note_on_c, 0, 72, 72
1, 387780, Note_on_c, 0, 58, 76
1, 387822, Note_off_c, 0, 72, 61
1, 387840, Note_off_c, 0, 58, 60
1, 387853, Note_on_c, 0, 70, 70
1, 387921, Note_on_c, 0, 67, 68
1, 387934, Note_off_c, 0, 70, 62
1, 387987, Note_off_c, 0, 67, 62
1, 388000, Note_on_c, 0, 64, 59
1, 388040, Note_off_c, 0, 64, 63
1, 388070, Note_on_c, 0, 60, 66
1, 388139, Note_off_c, 0, 60, 59
1, 388168, Note_on_c, 0, 58, 70
1, 388235, Note_on_c, 0, 55, 69
1, 388250, Note_off_c, 0, 58, 63
1, 388320, Note_off_c, 0, 55, 64
1, 388329, Note_on_c, 0, 52, 61
1, 388387, Note_off_c, 0, 52, 66
1, 388422, Note_on_c, 0, 48, 57
1, 388458, Note_off_c, 0, 48, 45
1, 388505, Note_on_c, 0, 46, 64
1, 388553, Note_off_c, 0, 46, 62
1, 388565, Note_on_c, 0, 43, 67
1, 388632, Note_off_c, 0, 43, 55
1, 388642, Note_on_c, 0, 40, 62
1, 388714, Note_off_c, 0, 40, 63
1, 388717, Note_on_c, 0, 36, 70
1, 388806, Note_on_c, 0, 40, 63
1, 388809, Note_off_c, 0, 36, 60
1, 388870, Note_on_c, 0, 43, 67
1, 388908, Note_off_c, 0, 40, 60
1, 388949, Note_on_c, 0, 46, 75
1, 388949, Note_off_c, 0, 43, 61
1, 389022, Note_on_c, 0, 48, 69
1, 389039, Note_off_c, 0, 46, 53
1, 389100, Note_on_c, 0, 52, 73
1, 389103, Note_off_c, 0, 48, 63
1, 389177, Note_on_c, 0, 55, 69
1, 389203, Note_off_c, 0, 52, 58
1, 389250, Note_on_c, 0, 58, 71
1, 389261, Note_off_c, 0, 55, 65
1, 389277, Note_off_c, 0, 58, 68
1, 389324, Note_on_c, 0, 60, 76
1, 389390, Note_off_c, 0, 60, 61
1, 389400, Note_on_c, 0, 64, 72
1, 389466, Note_on_c, 0, 67, 79
1, 389481, Note_off_c, 0, 64, 58
1, 389544, Note_on_c, 0, 70, 77
1, 389549, Note_off_c, 0, 67, 63
1, 389591, Note_off_c, 0, 70, 62
1, 389632, Note_on_c, 0, 72, 76
1, 389708, Note_off_c, 0, 72, 62
1, 389710, Note_on_c, 0, 76, 72
1, 389774, Note_off_c, 0, 76, 66
1, 389782, Note_on_c, 0, 79, 72
1, 389865, Note_on_c, 0, 76, 79
1, 389865, Note_off_c, 0, 79, 60
1, 389931, Note_off_c, 0, 76, 68
1, 389945, Note_on_c, 0, 72, 64
1, 390031, Note_on_c, 0, 76, 80
1, 390040, Note_off_c, 0, 72, 60
1, 390130, Note_on_c, 0, 79, 74
1, 390132, Note_off_c, 0, 76, 67
1, 390223, Note_off_c, 0, 79, 62
1, 390245, Note_on_c, 0, 76, 72
1, 390356, Note_on_c, 0, 82, 65
1, 390384, Note_off_c, 0, 76, 60
1, 390475, Note_on_c, 0, 79, 65
1, 390567, Note_off_c, 0, 82, 53
1, 390593, Note_off_c, 0, 79, 61
1, 390601, Note_on_c, 0, 76, 64
1, 390771, Note_on_c, 0, 79, 70
1, 390862, Note_off_c, 0, 76, 63
1, 391154, Note_on_c, 0, 82, 66
1, 391305, Note_off_c, 0, 79, 61
1, 392015, Note_on_c, 0, 49, 48
1, 392111, Note_off_c, 0, 49, 53
1, 392271, Note_on_c, 0, 49, 42
1, 392336, Note_off_c, 0, 49, 50
1, 392511, Note_on_c, 0, 49, 39
1, 392660, Note_off_c, 0, 49, 34
1, 392662, Note_off_c, 0, 82, 51
1, 392781, Note_on_c, 0, 48, 43
1, 393483, Note_on_c, 0, 79, 40
1, 393484, Note_on_c, 0, 76, 34
1, 393526, Note_off_c, 0, 79, 45
1, 393534, Note_off_c, 0, 76, 46
1, 393683, Note_on_c, 0, 79, 54
1, 393686, Note_on_c, 0, 76, 48
1, 393770, Note_off_c, 0, 76, 52
1, 393773, Note_off_c, 0, 79, 38
1, 393903, Note_on_c, 0, 79, 63
1, 393913, Note_on_c, 0, 76, 48
1, 393998, Note_off_c, 0, 76, 60
1, 394023, Note_off_c, 0, 79, 51
1, 394193, Note_on_c, 0, 82, 63
1, 394215, Note_on_c, 0, 79, 28
1, 394360, Note_off_c, 0, 79, 38
1, 394370, Note_off_c, 0, 82, 59
1, 394393, Note_off_c, 0, 48, 38
1, 394457, Control_c, 0, 67, 8
1, 394472, Control_c, 0, 67, 8
1, 394487, Control_c, 0, 67, 9
1, 394501, Control_c, 0, 67, 9
1, 394516, Control_c, 0, 67, 10
1, 394531, Control_c, 0, 67, 11
1, 394561, Control_c, 0, 67, 12
1, 394575, Control_c, 0, 67, 13
1, 394590, Control_c, 0, 67, 13
1, 394605, Control_c, 0, 67, 14
1, 394619, Control_c, 0, 67, 15
1, 394634, Control_c, 0, 67, 15
1, 394664, Control_c, 0, 67, 16
1, 394694, Control_c, 0, 67, 17
1, 394709, Control_c, 0, 67, 17
1, 394738, Control_c, 0, 67, 18
1, 394753, Control_c, 0, 67, 18
1, 394894, Control_c, 0, 67, 19
1, 394930, Note_on_c, 0, 49, 39
1, 394969, Control_c, 0, 67, 19
1, 394984, Control_c, 0, 67, 20
1, 394998, Control_c, 0, 67, 22
1, 395013, Control_c, 0, 67, 23
1, 395028, Control_c, 0, 67, 23
1, 395078, Note_off_c, 0, 49, 34
1, 395201, Note_on_c, 0, 49, 41
1, 395251, Control_c, 0, 67, 23
1, 395320, Note_off_c, 0, 49, 36
1, 395340, Control_c, 0, 67, 22
1, 395434, Note_on_c, 0, 49, 40
1, 395443, Control_c, 0, 67, 23
1, 395473, Control_c, 0, 67, 23
1, 395547, Control_c, 0, 67, 24
1, 395585, Control_c, 0, 67, 24
1, 395609, Note_off_c, 0, 49, 31
1, 395673, Control_c, 0, 67, 25
1, 395688, Control_c, 0, 67, 25
1, 395703, Control_c, 0, 67, 26
1, 395718, Control_c, 0, 67, 29
1, 395732, Control_c, 0, 67, 31
1, 395745, Note_on_c, 0, 48, 44
1, 395748, Control_c, 0, 67, 34
1, 395763, Control_c, 0, 67, 35
1, 395778, Control_c, 0, 67, 37
1, 395793, Control_c, 0, 67, 39
1, 395808, Control_c, 0, 67, 40
1, 395822, Control_c, 0, 67, 41
1, 395837, Control_c, 0, 67, 43
1, 395852, Control_c, 0, 67, 46
1, 395867, Control_c, 0, 67, 50
1, 395881, Control_c, 0, 67, 54
1, 395896, Control_c, 0, 67, 58
1, 395911, Control_c, 0, 67, 62
1, 395926, Control_c, 0, 67, 65
1, 395940, Control_c, 0, 67, 68
1, 395955, Control_c, 0, 67, 73
1, 395970, Control_c, 0, 67, 78
1, 395985, Control_c, 0, 67, 82
1, 395999, Control_c, 0, 67, 87
1, 396014, Control_c, 0, 67, 92
1, 396029, Control_c, 0, 67, 97
1, 396044, Control_c, 0, 67, 102
1, 396059, Control_c, 0, 67, 106
1, 396074, Control_c, 0, 67, 111
1, 396089, Control_c, 0, 67, 115
1, 396104, Control_c, 0, 67, 120
1, 396119, Control_c, 0, 67, 125
1, 396133, Control_c, 0, 67, 127
1, 396631, Note_on_c, 0, 67, 24
1, 396682, Poly_aftertouch_c, 0, 64, 127
1, 396744, Poly_aftertouch_c, 0, 64, 0
1, 396774, Note_off_c, 0, 67, 33
1, 396886, Note_on_c, 0, 67, 47
1, 396907, Note_on_c, 0, 64, 35
1, 397066, Note_off_c, 0, 67, 37
1, 397078, Note_off_c, 0, 64, 38
1, 397193, Note_on_c, 0, 67, 55
1, 397211, Note_on_c, 0, 64, 41
1, 397376, Note_off_c, 0, 67, 56
1, 397398, Note_off_c, 0, 64, 41
1, 397630, Note_on_c, 0, 70, 54
1, 397657, Note_on_c, 0, 67, 33
1, 397683, Note_off_c, 0, 48, 42
1, 397953, Note_off_c, 0, 67, 38
1, 398016, Note_off_c, 0, 70, 52
1, 398824, Note_on_c, 0, 37, 34
1, 399034, Note_off_c, 0, 37, 41
1, 399228, Note_on_c, 0, 37, 38
1, 399439, Note_off_c, 0, 37, 40
1, 399651, Note_on_c, 0, 37, 40
1, 399843, Note_off_c, 0, 37, 58
1, 400213, Note_on_c, 0, 36, 35
1, 400269, Control_c, 0, 64, 122
1, 400284, Control_c, 0, 64, 118
1, 400299, Control_c, 0, 64, 116
1, 400313, Control_c, 0, 64, 114
1, 400328, Control_c, 0, 64, 112
1, 400343, Control_c, 0, 64, 109
1, 400358, Control_c, 0, 64, 107
1, 400372, Control_c, 0, 64, 105
1, 400387, Control_c, 0, 64, 103
1, 400402, Control_c, 0, 64, 102
1, 400417, Control_c, 0, 64, 101
1, 400432, Control_c, 0, 64, 99
1, 400447, Control_c, 0, 64, 97
1, 400462, Control_c, 0, 64, 96
1, 400477, Control_c, 0, 64, 94
1, 400491, Control_c, 0, 64, 93
1, 400506, Control_c, 0, 64, 91
1, 400521, Control_c, 0, 64, 90
1, 400536, Control_c, 0, 64, 89
1, 400551, Control_c, 0, 64, 88
1, 400566, Control_c, 0, 64, 87
1, 400581, Control_c, 0, 64, 86
1, 400596, Control_c, 0, 64, 84
1, 400611, Control_c, 0, 64, 82
1, 400626, Control_c, 0, 64, 80
1, 400641, Control_c, 0, 64, 78
1, 400655, Control_c, 0, 64, 76
1, 400670, Control_c, 0, 64, 74
1, 400685, Control_c, 0, 64, 72
1, 400700, Control_c, 0, 64, 70
1, 400715, Control_c, 0, 64, 69
1, 400729, Control_c, 0, 64, 68
1, 400744, Control_c, 0, 64, 67
1, 400759, Control_c, 0, 64, 66
1, 400788, Control_c, 0, 64, 66
1, 400810, Control_c, 0, 64, 65
1, 400825, Control_c, 0, 64, 65
1, 400840, Control_c, 0, 64, 64
1, 400855, Control_c, 0, 64, 63
1, 400870, Control_c, 0, 64, 63
1, 400885, Control_c, 0, 64, 62
1, 400900, Control_c, 0, 64, 62
1, 400915, Control_c, 0, 64, 61
1, 400930, Control_c, 0, 64, 60
1, 400944, Control_c, 0, 64, 59
1, 401135, Control_c, 0, 64, 60
1, 401150, Control_c, 0, 64, 61
1, 401165, Control_c, 0, 64, 63
1, 401180, Control_c, 0, 64, 65
1, 401195, Control_c, 0, 64, 67
1, 401210, Control_c, 0, 64, 70
1, 401225, Control_c, 0, 64, 74
1, 401240, Control_c, 0, 64, 77
1, 401255, Control_c, 0, 64, 80
1, 401269, Control_c, 0, 64, 82
1, 401284, Control_c, 0, 64, 83
1, 401299, Control_c, 0, 64, 84
1, 401314, Control_c, 0, 64, 84
1, 401329, Control_c, 0, 64, 85
1, 401344, Control_c, 0, 64, 87
1, 401359, Control_c, 0, 64, 88
1, 401374, Control_c, 0, 64, 89
1, 401389, Control_c, 0, 64, 90
1, 401404, Control_c, 0, 64, 91
1, 401425, Note_off_c, 0, 36, 39
1, 401433, Control_c, 0, 64, 92
1, 401448, Control_c, 0, 64, 92
1, 401478, Control_c, 0, 64, 93
1, 401588, Control_c, 0, 64, 92
1, 401603, Control_c, 0, 64, 91
1, 401618, Control_c, 0, 64, 88
1, 401633, Control_c, 0, 64, 84
1, 401636, Note_on_c, 0, 37, 40
1, 401648, Control_c, 0, 64, 78
1, 401663, Control_c, 0, 64, 71
1, 401678, Control_c, 0, 64, 63
1, 401692, Control_c, 0, 64, 53
1, 401707, Control_c, 0, 64, 48
1, 401722, Control_c, 0, 64, 49
1, 401736, Control_c, 0, 64, 50
1, 401751, Control_c, 0, 64, 53
1, 401766, Control_c, 0, 64, 56
1, 401781, Control_c, 0, 64, 61
1, 401796, Control_c, 0, 64, 64
1, 401810, Control_c, 0, 64, 67
1, 401825, Control_c, 0, 64, 73
1, 401840, Control_c, 0, 64, 78
1, 401855, Control_c, 0, 64, 82
1, 401870, Control_c, 0, 64, 84
1, 401885, Control_c, 0, 64, 85
1, 401900, Control_c, 0, 64, 87
1, 401915, Control_c, 0, 64, 89
1, 401922, Note_off_c, 0, 37, 46
1, 401930, Control_c, 0, 64, 91
1, 401945, Control_c, 0, 64, 92
1, 401959, Control_c, 0, 64, 92
1, 401974, Control_c, 0, 64, 93
1, 401989, Control_c, 0, 64, 94
1, 402004, Control_c, 0, 64, 95
1, 402018, Control_c, 0, 64, 97
1, 402033, Control_c, 0, 64, 98
1, 402048, Control_c, 0, 64, 99
1, 402063, Control_c, 0, 64, 100
1, 402078, Control_c, 0, 64, 101
1, 402087, Note_on_c, 0, 37, 38
1, 402092, Control_c, 0, 64, 102
1, 402107, Control_c, 0, 64, 103
1, 402122, Control_c, 0, 64, 104
1, 402138, Control_c, 0, 64, 105
1, 402153, Control_c, 0, 64, 105
1, 402168, Control_c, 0, 64, 106
1, 402182, Control_c, 0, 64, 106
1, 402197, Control_c, 0, 64, 108
1, 402212, Control_c, 0, 64, 109
1, 402227, Control_c, 0, 64, 109
1, 402241, Control_c, 0, 64, 110
1, 402256, Control_c, 0, 64, 110
1, 402271, Control_c, 0, 64, 111
1, 402286, Control_c, 0, 64, 111
1, 402289, Note_off_c, 0, 37, 41
1, 402301, Control_c, 0, 64, 112
1, 402412, Control_c, 0, 64, 112
1, 402551, Note_on_c, 0, 37, 37
1, 402744, Note_off_c, 0, 37, 41
1, 402976, Control_c, 0, 64, 112
1, 403005, Control_c, 0, 64, 111
1, 403020, Control_c, 0, 64, 110
1, 403035, Control_c, 0, 64, 109
1, 403050, Control_c, 0, 64, 107
1, 403072, Control_c, 0, 64, 105
1, 403084, Note_on_c, 0, 36, 25
1, 403087, Control_c, 0, 64, 104
1, 403102, Control_c, 0, 64, 103
1, 403117, Control_c, 0, 64, 102
1, 403132, Control_c, 0, 64, 101
1, 403146, Control_c, 0, 64, 99
1, 403161, Control_c, 0, 64, 97
1, 403176, Control_c, 0, 64, 96
1, 403190, Control_c, 0, 64, 94
1, 403205, Control_c, 0, 64, 92
1, 403220, Control_c, 0, 64, 91
1, 403235, Control_c, 0, 64, 89
1, 403250, Control_c, 0, 64, 88
1, 403264, Control_c, 0, 64, 85
1, 403279, Control_c, 0, 64, 82
1, 403294, Control_c, 0, 64, 80
1, 403309, Control_c, 0, 64, 77
1, 403324, Control_c, 0, 64, 74
1, 403338, Control_c, 0, 64, 70
1, 403353, Control_c, 0, 64, 67
1, 403368, Control_c, 0, 64, 66
1, 403383, Control_c, 0, 64, 67
1, 403502, Control_c, 0, 64, 66
1, 403620, Control_c, 0, 64, 67
1, 403635, Control_c, 0, 64, 67
1, 403649, Control_c, 0, 64, 68
1, 403664, Control_c, 0, 64, 69
1, 403679, Control_c, 0, 64, 71
1, 403694, Control_c, 0, 64, 72
1, 403709, Control_c, 0, 64, 72
1, 403740, Control_c, 0, 64, 72
1, 403754, Control_c, 0, 64, 71
1, 403769, Control_c, 0, 64, 71
1, 403784, Control_c, 0, 64, 70
1, 403799, Control_c, 0, 64, 70
1, 403836, Control_c, 0, 64, 69
1, 403910, Control_c, 0, 64, 69
1, 403925, Control_c, 0, 64, 68
1, 403940, Control_c, 0, 64, 67
1, 403999, Control_c, 0, 64, 67
1, 404013, Control_c, 0, 64, 66
1, 404043, Control_c, 0, 64, 66
1, 404087, Control_c, 0, 64, 65
1, 404102, Control_c, 0, 64, 64
1, 404236, Control_c, 0, 64, 65
1, 404250, Control_c, 0, 64, 66
1, 404265, Control_c, 0, 64, 68
1, 404280, Control_c, 0, 64, 70
1, 404295, Control_c, 0, 64, 72
1, 404310, Control_c, 0, 64, 75
1, 404325, Control_c, 0, 64, 77
1, 404340, Control_c, 0, 64, 79
1, 404354, Control_c, 0, 64, 81
1, 404369, Control_c, 0, 64, 82
1, 404384, Control_c, 0, 64, 83
1, 404399, Control_c, 0, 64, 83
1, 404413, Control_c, 0, 64, 84
1, 404428, Control_c, 0, 64, 84
1, 404443, Control_c, 0, 64, 85
1, 404458, Control_c, 0, 64, 86
1, 404473, Control_c, 0, 64, 87
1, 404502, Control_c, 0, 64, 88
1, 404517, Control_c, 0, 64, 89
1, 404522, Note_off_c, 0, 36, 40
1, 404533, Control_c, 0, 64, 89
1, 404555, Control_c, 0, 64, 90
1, 404584, Control_c, 0, 64, 91
1, 404644, Control_c, 0, 64, 91
1, 404807, Control_c, 0, 64, 91
1, 404822, Control_c, 0, 64, 90
1, 404836, Control_c, 0, 64, 89
1, 404851, Control_c, 0, 64, 87
1, 404856, Note_on_c, 0, 37, 33
1, 404859, Note_on_c, 0, 76, 45
1, 404866, Control_c, 0, 64, 85
1, 404867, Note_on_c, 0, 70, 35
1, 404870, Note_on_c, 0, 67, 30
1, 404880, Control_c, 0, 64, 83
1, 404895, Control_c, 0, 64, 81
1, 404909, Control_c, 0, 64, 78
1, 404918, Note_off_c, 0, 70, 0
1, 404918, Note_on_c, 0, 70, 7
1, 404924, Control_c, 0, 64, 75
1, 404939, Control_c, 0, 64, 71
1, 404954, Control_c, 0, 64, 66
1, 404969, Control_c, 0, 64, 64
1, 405028, Control_c, 0, 64, 64
1, 405043, Control_c, 0, 64, 65
1, 405058, Control_c, 0, 64, 67
1, 405073, Control_c, 0, 64, 72
1, 405088, Control_c, 0, 64, 77
1, 405102, Control_c, 0, 64, 82
1, 405117, Control_c, 0, 64, 84
1, 405132, Control_c, 0, 64, 85
1, 405147, Control_c, 0, 64, 87
1, 405161, Control_c, 0, 64, 88
1, 405176, Note_off_c, 0, 67, 41
1, 405176, Control_c, 0, 64, 91
1, 405191, Control_c, 0, 64, 92
1, 405206, Control_c, 0, 64, 93
1, 405211, Note_off_c, 0, 70, 42
1, 405219, Note_off_c, 0, 37, 42
1, 405221, Control_c, 0, 64, 94
1, 405235, Control_c, 0, 64, 95
1, 405250, Control_c, 0, 64, 96
1, 405255, Note_off_c, 0, 76, 27
1, 405265, Control_c, 0, 64, 97
1, 405280, Control_c, 0, 64, 97
1, 405295, Control_c, 0, 64, 98
1, 405317, Control_c, 0, 64, 98
1, 405332, Control_c, 0, 64, 99
1, 405347, Control_c, 0, 64, 99
1, 405362, Control_c, 0, 64, 100
1, 405451, Control_c, 0, 64, 100
1, 405492, Note_on_c, 0, 76, 52
1, 405493, Note_on_c, 0, 37, 36
1, 405497, Note_on_c, 0, 70, 38
1, 405499, Note_on_c, 0, 67, 39
1, 405547, Note_off_c, 0, 70, 0
1, 405547, Note_on_c, 0, 70, 12
1, 405689, Note_off_c, 0, 67, 60
1, 405723, Note_off_c, 0, 76, 57
1, 405774, Note_off_c, 0, 70, 53
1, 405845, Note_off_c, 0, 37, 42
1, 406178, Note_on_c, 0, 76, 56
1, 406181, Note_on_c, 0, 70, 45
1, 406182, Note_on_c, 0, 67, 49
1, 406187, Note_on_c, 0, 37, 46
1, 406475, Note_off_c, 0, 67, 60
1, 406477, Note_off_c, 0, 76, 60
1, 406497, Control_c, 0, 64, 101
1, 406515, Note_off_c, 0, 70, 57
1, 406526, Note_off_c, 0, 37, 59
1, 407098, Control_c, 0, 64, 100
1, 407112, Control_c, 0, 64, 99
1, 407127, Control_c, 0, 64, 98
1, 407135, Note_on_c, 0, 76, 56
1, 407138, Note_on_c, 0, 70, 45
1, 407141, Note_on_c, 0, 67, 43
1, 407142, Note_on_c, 0, 36, 44
1, 407142, Control_c, 0, 64, 95
1, 407157, Control_c, 0, 64, 93
1, 407172, Control_c, 0, 64, 90
1, 407187, Control_c, 0, 64, 87
1, 407202, Control_c, 0, 64, 84
1, 407216, Control_c, 0, 64, 81
1, 407231, Control_c, 0, 64, 77
1, 407246, Control_c, 0, 64, 73
1, 407261, Control_c, 0, 64, 68
1, 407276, Control_c, 0, 64, 64
1, 407291, Control_c, 0, 64, 61
1, 407364, Control_c, 0, 64, 60
1, 407379, Control_c, 0, 64, 60
1, 407438, Control_c, 0, 64, 59
1, 407527, Control_c, 0, 64, 60
1, 407564, Control_c, 0, 64, 60
1, 407579, Control_c, 0, 64, 61
1, 407594, Control_c, 0, 64, 62
1, 407624, Control_c, 0, 64, 62
1, 407638, Control_c, 0, 64, 63
1, 407653, Control_c, 0, 64, 64
1, 407668, Control_c, 0, 64, 65
1, 407683, Control_c, 0, 64, 66
1, 407698, Control_c, 0, 64, 67
1, 407712, Control_c, 0, 64, 68
1, 407728, Control_c, 0, 64, 69
1, 407743, Control_c, 0, 64, 70
1, 407758, Control_c, 0, 64, 71
1, 407773, Control_c, 0, 64, 71
1, 407787, Control_c, 0, 64, 72
1, 407802, Control_c, 0, 64, 73
1, 407817, Control_c, 0, 64, 74
1, 407832, Control_c, 0, 64, 75
1, 407847, Control_c, 0, 64, 76
1, 407861, Control_c, 0, 64, 76
1, 407876, Control_c, 0, 64, 77
1, 407891, Control_c, 0, 64, 77
1, 407906, Control_c, 0, 64, 79
1, 407921, Control_c, 0, 64, 80
1, 407935, Control_c, 0, 64, 81
1, 407950, Control_c, 0, 64, 82
1, 407965, Control_c, 0, 64, 83
1, 407977, Note_off_c, 0, 70, 58
1, 407980, Control_c, 0, 64, 84
1, 407983, Note_off_c, 0, 67, 53
1, 407994, Control_c, 0, 64, 84
1, 408009, Control_c, 0, 64, 85
1, 408024, Control_c, 0, 64, 86
1, 408039, Control_c, 0, 64, 87
1, 408054, Control_c, 0, 64, 88
1, 408069, Control_c, 0, 64, 89
1, 408084, Control_c, 0, 64, 90
1, 408099, Control_c, 0, 64, 90
1, 408114, Control_c, 0, 64, 91
1, 408128, Control_c, 0, 64, 91
1, 408143, Control_c, 0, 64, 92
1, 408158, Control_c, 0, 64, 93
1, 408172, Control_c, 0, 64, 94
1, 408187, Control_c, 0, 64, 94
1, 408202, Control_c, 0, 64, 95
1, 408217, Control_c, 0, 64, 95
1, 408232, Control_c, 0, 64, 96
1, 408246, Control_c, 0, 64, 96
1, 408261, Control_c, 0, 64, 97
1, 408276, Control_c, 0, 64, 97
1, 408298, Control_c, 0, 64, 98
1, 408313, Control_c, 0, 64, 98
1, 408328, Control_c, 0, 64, 99
1, 408343, Control_c, 0, 64, 99
1, 408358, Control_c, 0, 64, 100
1, 408372, Control_c, 0, 64, 100
1, 408387, Control_c, 0, 64, 101
1, 408417, Control_c, 0, 64, 101
1, 408432, Control_c, 0, 64, 102
1, 408447, Control_c, 0, 64, 103
1, 408476, Control_c, 0, 64, 103
1, 408491, Control_c, 0, 64, 104
1, 408506, Control_c, 0, 64, 104
1, 408521, Control_c, 0, 64, 105
1, 408537, Control_c, 0, 64, 106
1, 408551, Control_c, 0, 64, 106
1, 408551, Control_c, 0, 67, 127
1, 408566, Control_c, 0, 64, 107
1, 408566, Control_c, 0, 67, 124
1, 408581, Control_c, 0, 64, 107
1, 408581, Control_c, 0, 67, 121
1, 408596, Control_c, 0, 67, 117
1, 408610, Control_c, 0, 64, 108
1, 408610, Control_c, 0, 67, 115
1, 408624, Control_c, 0, 64, 108
1, 408624, Control_c, 0, 67, 112
1, 408639, Control_c, 0, 64, 109
1, 408639, Control_c, 0, 67, 110
1, 408654, Control_c, 0, 67, 107
1, 408669, Control_c, 0, 64, 109
1, 408669, Control_c, 0, 67, 104
1, 408683, Control_c, 0, 67, 101
1, 408698, Control_c, 0, 64, 110
1, 408698, Control_c, 0, 67, 99
1, 408713, Control_c, 0, 64, 110
1, 408713, Control_c, 0, 67, 96
1, 408714, Note_off_c, 0, 36, 40
1, 408728, Control_c, 0, 67, 93
1, 408743, Control_c, 0, 67, 90
1, 408758, Control_c, 0, 64, 111
1, 408758, Control_c, 0, 67, 86
1, 408772, Control_c, 0, 67, 81
1, 408787, Control_c, 0, 67, 77
1, 408802, Control_c, 0, 67, 72
1, 408817, Control_c, 0, 67, 67
1, 408832, Control_c, 0, 64, 111
1, 408832, Control_c, 0, 67, 63
1, 408847, Control_c, 0, 67, 57
1, 408862, Control_c, 0, 67, 50
1, 408876, Control_c, 0, 67, 43
1, 408891, Control_c, 0, 64, 112
1, 408891, Control_c, 0, 67, 35
1, 408906, Control_c, 0, 67, 29
1, 408921, Control_c, 0, 64, 112
1, 408921, Control_c, 0, 67, 23
1, 408936, Control_c, 0, 67, 18
1, 408950, Control_c, 0, 64, 113
1, 408950, Control_c, 0, 67, 14
1, 408965, Control_c, 0, 67, 9
1, 408980, Control_c, 0, 64, 113
1, 408980, Control_c, 0, 67, 0
1, 408994, Control_c, 0, 64, 114
1, 409024, Control_c, 0, 64, 114
1, 409076, Control_c, 0, 64, 115
1, 409106, Control_c, 0, 64, 115
1, 409120, Control_c, 0, 64, 116
1, 409165, Control_c, 0, 64, 116
1, 409194, Control_c, 0, 64, 117
1, 409209, Control_c, 0, 64, 118
1, 409224, Control_c, 0, 64, 118
1, 409254, Control_c, 0, 64, 119
1, 409268, Control_c, 0, 64, 119
1, 409283, Control_c, 0, 64, 120
1, 409298, Control_c, 0, 64, 121
1, 409329, Control_c, 0, 64, 121
1, 409359, Control_c, 0, 64, 122
1, 409373, Control_c, 0, 64, 123
1, 409403, Control_c, 0, 64, 123
1, 409432, Control_c, 0, 64, 124
1, 409450, Note_off_c, 0, 76, 57
1, 409477, Control_c, 0, 64, 124
1, 409506, Control_c, 0, 64, 125
1, 409550, Control_c, 0, 64, 125
1, 409580, Control_c, 0, 64, 126
1, 409640, Control_c, 0, 64, 126
1, 409719, Note_on_c, 0, 48, 93
1, 409720, Note_on_c, 0, 76, 85
1, 409720, Note_on_c, 0, 36, 88
1, 409721, Note_on_c, 0, 79, 83
1, 409721, Note_on_c, 0, 84, 80
1, 409724, Note_on_c, 0, 82, 76
1, 409727, Note_on_c, 0, 88, 71
1, 409741, Note_off_c, 0, 79, 68
1, 409743, Note_off_c, 0, 76, 65
1, 409745, Note_off_c, 0, 82, 69
1, 409745, Note_off_c, 0, 88, 66
1, 409750, Note_off_c, 0, 84, 65
1, 409752, Note_off_c, 0, 48, 66
1, 409753, Note_off_c, 0, 36, 67
1, 409758, Control_c, 0, 64, 126
1, 409773, Control_c, 0, 64, 123
1, 409788, Control_c, 0, 64, 107
1, 409810, Control_c, 0, 64, 89
1, 409825, Control_c, 0, 64, 67
1, 409827, Note_on_c, 0, 48, 90
1, 409828, Note_on_c, 0, 79, 79
1, 409830, Note_on_c, 0, 84, 77
1, 409831, Note_on_c, 0, 36, 81
1, 409834, Note_on_c, 0, 76, 75
1, 409840, Control_c, 0, 64, 0
1, 409842, Note_on_c, 0, 82, 40
1, 409842, Note_off_c, 0, 79, 71
1, 409849, Note_off_c, 0, 48, 66
1, 409849, Note_off_c, 0, 76, 71
1, 409852, Note_on_c, 0, 88, 13
1, 409852, Note_off_c, 0, 36, 68
1, 409853, Note_off_c, 0, 84, 71
1, 409854, Note_off_c, 0, 88, 43
1, 409870, Note_off_c, 0, 82, 35
1, 409903, Note_on_c, 0, 36, 84
1, 409908, Note_on_c, 0, 76, 93
1, 409911, Note_on_c, 0, 48, 89
1, 409912, Note_on_c, 0, 84, 93
1, 409923, Note_on_c, 0, 88, 64
1, 409935, Note_off_c, 0, 48, 71
1, 409941, Note_off_c, 0, 76, 67
1, 409941, Note_off_c, 0, 84, 61
1, 409945, Note_off_c, 0, 36, 65
1, 409950, Note_off_c, 0, 88, 65
1, 410006, Note_on_c, 0, 77, 107
1, 410007, Note_on_c, 0, 89, 109
1, 410011, Note_on_c, 0, 84, 99
1, 410012, Note_on_c, 0, 41, 102
1, 410014, Note_on_c, 0, 80, 96
1, 410015, Note_on_c, 0, 29, 95
1, 410032, Control_c, 0, 64, 116
1, 410033, Note_off_c, 0, 41, 74
1, 410038, Note_off_c, 0, 29, 64
1, 410039, Note_on_c, 0, 87, 47
1, 410040, Note_off_c, 0, 87, 127
1, 410047, Control_c, 0, 64, 127
1, 410176, Note_on_c, 0, 60, 72
1, 410178, Note_on_c, 0, 65, 67
1, 410238, Note_off_c, 0, 60, 59
1, 410248, Note_off_c, 0, 65, 62
1, 410274, Note_on_c, 0, 56, 69
1, 410302, Note_off_c, 0, 77, 51
1, 410320, Note_off_c, 0, 89, 59
1, 410337, Note_off_c, 0, 56, 61
1, 410362, Note_on_c, 0, 60, 63
1, 410367, Note_on_c, 0, 65, 66
1, 410405, Note_off_c, 0, 80, 52
1, 410412, Note_off_c, 0, 84, 60
1, 410426, Note_off_c, 0, 60, 55
1, 410430, Note_off_c, 0, 65, 54
1, 410462, Note_on_c, 0, 56, 60
1, 410511, Note_off_c, 0, 56, 56
1, 410555, Note_on_c, 0, 60, 59
1, 410557, Note_on_c, 0, 65, 60
1, 410585, Note_off_c, 0, 60, 62
1, 410586, Note_off_c, 0, 65, 60
1, 410637, Note_on_c, 0, 56, 63
1, 410698, Note_off_c, 0, 56, 62
1, 410725, Note_on_c, 0, 65, 61
1, 410726, Note_on_c, 0, 60, 54
1, 410776, Note_off_c, 0, 65, 56
1, 410777, Note_off_c, 0, 60, 50
1, 410817, Note_on_c, 0, 56, 64
1, 410856, Control_c, 0, 64, 113
1, 410871, Control_c, 0, 64, 100
1, 410886, Control_c, 0, 64, 88
1, 410894, Note_on_c, 0, 68, 69
1, 410897, Note_off_c, 0, 56, 56
1, 410900, Control_c, 0, 64, 75
1, 410907, Note_on_c, 0, 65, 66
1, 410916, Note_on_c, 0, 60, 48
1, 410916, Control_c, 0, 64, 55
1, 410931, Control_c, 0, 64, 0
1, 410993, Note_off_c, 0, 65, 54
1, 411005, Control_c, 0, 64, 54
1, 411011, Note_off_c, 0, 60, 58
1, 411020, Control_c, 0, 64, 64
1, 411027, Note_on_c, 0, 56, 53
1, 411035, Control_c, 0, 64, 68
1, 411050, Control_c, 0, 64, 72
1, 411064, Control_c, 0, 64, 75
1, 411079, Control_c, 0, 64, 77
1, 411094, Control_c, 0, 64, 80
1, 411109, Control_c, 0, 64, 83
1, 411110, Note_off_c, 0, 56, 62
1, 411124, Control_c, 0, 64, 86
1, 411136, Note_on_c, 0, 65, 50
1, 411139, Control_c, 0, 64, 88
1, 411142, Note_on_c, 0, 60, 48
1, 411147, Note_on_c, 0, 72, 65
1, 411153, Control_c, 0, 64, 89
1, 411168, Control_c, 0, 64, 90
1, 411173, Note_off_c, 0, 65, 50
1, 411183, Control_c, 0, 64, 90
1, 411190, Note_off_c, 0, 60, 53
1, 411197, Control_c, 0, 64, 91
1, 411212, Control_c, 0, 64, 91
1, 411223, Note_off_c, 0, 68, 56
1, 411227, Control_c, 0, 64, 92
1, 411229, Note_on_c, 0, 56, 56
1, 411231, Note_on_c, 0, 77, 75
1, 411242, Control_c, 0, 64, 93
1, 411257, Control_c, 0, 64, 95
1, 411271, Control_c, 0, 64, 96
1, 411286, Control_c, 0, 64, 97
1, 411309, Control_c, 0, 64, 99
1, 411318, Note_off_c, 0, 56, 58
1, 411323, Control_c, 0, 64, 100
1, 411326, Note_off_c, 0, 72, 58
1, 411327, Note_on_c, 0, 60, 51
1, 411338, Control_c, 0, 64, 102
1, 411342, Note_on_c, 0, 65, 46
1, 411353, Control_c, 0, 64, 104
1, 411368, Control_c, 0, 64, 105
1, 411383, Control_c, 0, 64, 106
1, 411392, Note_off_c, 0, 65, 59
1, 411393, Note_off_c, 0, 60, 55
1, 411397, Control_c, 0, 64, 107
1, 411412, Control_c, 0, 64, 107
1, 411427, Control_c, 0, 64, 108
1, 411433, Note_on_c, 0, 56, 60
1, 411442, Control_c, 0, 64, 108
1, 411479, Note_off_c, 0, 56, 57
1, 411486, Control_c, 0, 64, 109
1, 411513, Note_on_c, 0, 65, 57
1, 411523, Note_on_c, 0, 80, 76
1, 411525, Note_on_c, 0, 60, 53
1, 411560, Note_off_c, 0, 60, 60
1, 411563, Note_off_c, 0, 65, 56
1, 411588, Note_off_c, 0, 77, 49
1, 411609, Note_on_c, 0, 56, 55
1, 411619, Control_c, 0, 64, 109
1, 411679, Control_c, 0, 64, 110
1, 411686, Note_on_c, 0, 60, 55
1, 411689, Note_off_c, 0, 56, 62
1, 411699, Note_off_c, 0, 80, 63
1, 411702, Note_on_c, 0, 65, 55
1, 411718, Note_on_c, 0, 77, 69
1, 411719, Note_off_c, 0, 60, 65
1, 411754, Control_c, 0, 64, 109
1, 411757, Note_off_c, 0, 65, 61
1, 411768, Control_c, 0, 64, 104
1, 411783, Control_c, 0, 64, 90
1, 411797, Note_on_c, 0, 76, 74
1, 411798, Control_c, 0, 64, 75
1, 411800, Note_off_c, 0, 77, 61
1, 411810, Note_on_c, 0, 58, 60
1, 411813, Control_c, 0, 64, 50
1, 411828, Control_c, 0, 64, 0
1, 411879, Note_off_c, 0, 58, 63
1, 411887, Control_c, 0, 64, 64
1, 411895, Note_on_c, 0, 67, 63
1, 411902, Control_c, 0, 64, 73
1, 411915, Note_on_c, 0, 60, 43
1, 411917, Control_c, 0, 64, 82
1, 411932, Control_c, 0, 64, 88
1, 411945, Note_off_c, 0, 67, 50
1, 411946, Control_c, 0, 64, 90
1, 411951, Note_off_c, 0, 60, 50
1, 411961, Control_c, 0, 64, 92
1, 411976, Control_c, 0, 64, 93
1, 411991, Control_c, 0, 64, 95
1, 411998, Note_on_c, 0, 58, 72
1, 412006, Control_c, 0, 64, 96
1, 412020, Control_c, 0, 64, 97
1, 412042, Control_c, 0, 64, 98
1, 412057, Control_c, 0, 64, 98
1, 412073, Note_off_c, 0, 58, 62
1, 412086, Note_on_c, 0, 79, 76
1, 412087, Note_on_c, 0, 60, 59
1, 412092, Note_on_c, 0, 67, 57
1, 412102, Control_c, 0, 64, 99
1, 412146, Note_off_c, 0, 67, 60
1, 412146, Control_c, 0, 64, 99
1, 412155, Note_off_c, 0, 76, 50
1, 412162, Note_off_c, 0, 60, 59
1, 412204, Note_on_c, 0, 58, 50
1, 412206, Control_c, 0, 64, 100
1, 412250, Control_c, 0, 64, 100
1, 412266, Note_off_c, 0, 58, 61
1, 412272, Note_on_c, 0, 67, 58
1, 412282, Note_on_c, 0, 60, 57
1, 412294, Control_c, 0, 64, 101
1, 412296, Note_off_c, 0, 79, 61
1, 412297, Note_on_c, 0, 76, 65
1, 412320, Note_off_c, 0, 60, 55
1, 412324, Control_c, 0, 64, 100
1, 412325, Note_off_c, 0, 67, 58
1, 412339, Control_c, 0, 64, 100
1, 412353, Control_c, 0, 64, 91
1, 412368, Note_off_c, 0, 76, 66
1, 412368, Control_c, 0, 64, 78
1, 412375, Note_on_c, 0, 77, 74
1, 412379, Note_on_c, 0, 56, 60
1, 412383, Control_c, 0, 64, 59
1, 412398, Control_c, 0, 64, 0
1, 412479, Note_off_c, 0, 56, 57
1, 412481, Note_on_c, 0, 60, 48
1, 412487, Control_c, 0, 64, 64
1, 412488, Note_on_c, 0, 65, 51
1, 412502, Control_c, 0, 64, 74
1, 412517, Control_c, 0, 64, 83
1, 412532, Control_c, 0, 64, 88
1, 412533, Note_off_c, 0, 60, 57
1, 412535, Note_off_c, 0, 65, 55
1, 412547, Control_c, 0, 64, 91
1, 412562, Control_c, 0, 64, 92
1, 412573, Note_on_c, 0, 56, 56
1, 412576, Control_c, 0, 64, 94
1, 412591, Control_c, 0, 64, 96
1, 412606, Control_c, 0, 64, 97
1, 412621, Control_c, 0, 64, 98
1, 412636, Control_c, 0, 64, 99
1, 412652, Note_off_c, 0, 56, 61
1, 412665, Control_c, 0, 64, 99
1, 412667, Note_on_c, 0, 60, 57
1, 412677, Note_on_c, 0, 65, 48
1, 412677, Note_on_c, 0, 72, 62
1, 412710, Note_off_c, 0, 65, 58
1, 412740, Note_off_c, 0, 60, 53
1, 412773, Note_on_c, 0, 56, 54
1, 412821, Control_c, 0, 64, 100
1, 412852, Note_off_c, 0, 56, 60
1, 412865, Control_c, 0, 64, 100
1, 412870, Note_on_c, 0, 60, 58
1, 412877, Note_off_c, 0, 72, 63
1, 412878, Note_on_c, 0, 65, 44
1, 412880, Control_c, 0, 64, 101
1, 412904, Note_off_c, 0, 77, 61
1, 412925, Control_c, 0, 64, 102
1, 412926, Note_off_c, 0, 60, 54
1, 412927, Note_off_c, 0, 65, 44
1, 412940, Control_c, 0, 64, 103
1, 412955, Control_c, 0, 64, 104
1, 412962, Note_on_c, 0, 56, 64
1, 412969, Control_c, 0, 64, 104
1, 412984, Control_c, 0, 64, 105
1, 412999, Control_c, 0, 64, 106
1, 413014, Control_c, 0, 64, 107
1, 413029, Control_c, 0, 64, 108
1, 413029, Note_off_c, 0, 56, 62
1, 413043, Control_c, 0, 64, 109
1, 413047, Note_on_c, 0, 60, 61
1, 413051, Note_on_c, 0, 65, 58
1, 413058, Control_c, 0, 64, 110
1, 413073, Control_c, 0, 64, 111
1, 413088, Control_c, 0, 64, 112
1, 413103, Control_c, 0, 64, 113
1, 413104, Note_off_c, 0, 65, 56
1, 413117, Control_c, 0, 64, 113
1, 413119, Note_off_c, 0, 60, 55
1, 413132, Control_c, 0, 64, 114
1, 413146, Note_on_c, 0, 56, 57
1, 413147, Control_c, 0, 64, 114
1, 413162, Control_c, 0, 64, 115
1, 413191, Control_c, 0, 64, 115
1, 413218, Note_off_c, 0, 56, 61
1, 413221, Control_c, 0, 64, 116
1, 413224, Note_on_c, 0, 80, 81
1, 413233, Note_on_c, 0, 65, 57
1, 413233, Note_on_c, 0, 68, 69
1, 413235, Note_on_c, 0, 60, 60
1, 413236, Control_c, 0, 64, 117
1, 413250, Control_c, 0, 64, 118
1, 413265, Control_c, 0, 64, 119
1, 413280, Control_c, 0, 64, 121
1, 413282, Note_off_c, 0, 68, 63
1, 413294, Control_c, 0, 64, 122
1, 413297, Note_off_c, 0, 60, 50
1, 413309, Control_c, 0, 64, 123
1, 413322, Note_off_c, 0, 65, 57
1, 413326, Control_c, 0, 64, 124
1, 413333, Note_on_c, 0, 56, 60
1, 413340, Control_c, 0, 64, 125
1, 413355, Control_c, 0, 64, 126
1, 413370, Control_c, 0, 64, 126
1, 413385, Control_c, 0, 64, 127
1, 413404, Note_off_c, 0, 80, 66
1, 413408, Note_off_c, 0, 56, 60
1, 413410, Note_on_c, 0, 84, 80
1, 413418, Note_on_c, 0, 60, 66
1, 413429, Control_c, 0, 64, 127
1, 413434, Note_on_c, 0, 65, 62
1, 413449, Note_off_c, 0, 84, 67
1, 413488, Note_off_c, 0, 65, 45
1, 413499, Note_off_c, 0, 60, 57
1, 413510, Note_on_c, 0, 89, 92
1, 413512, Note_on_c, 0, 56, 65
1, 413518, Note_on_c, 0, 77, 76
1, 413610, Note_off_c, 0, 56, 59
1, 413620, Note_on_c, 0, 60, 69
1, 413624, Note_on_c, 0, 65, 65
1, 413661, Note_off_c, 0, 77, 59
1, 413670, Note_off_c, 0, 65, 58
1, 413684, Note_off_c, 0, 60, 57
1, 413721, Note_on_c, 0, 56, 68
1, 413733, Note_off_c, 0, 89, 65
1, 413789, Note_off_c, 0, 56, 61
1, 413800, Note_on_c, 0, 60, 64
1, 413804, Note_on_c, 0, 65, 64
1, 413811, Note_on_c, 0, 92, 97
1, 413818, Note_on_c, 0, 80, 85
1, 413866, Note_off_c, 0, 65, 58
1, 413868, Note_off_c, 0, 60, 57
1, 413888, Note_on_c, 0, 56, 70
1, 413912, Note_off_c, 0, 92, 64
1, 413915, Note_off_c, 0, 80, 62
1, 413962, Note_off_c, 0, 56, 61
1, 413983, Note_on_c, 0, 60, 62
1, 413983, Note_on_c, 0, 65, 66
1, 414000, Note_on_c, 0, 89, 85
1, 414010, Note_on_c, 0, 77, 72
1, 414030, Note_off_c, 0, 60, 53
1, 414030, Note_off_c, 0, 65, 56
1, 414031, Note_off_c, 0, 89, 62
1, 414033, Note_off_c, 0, 77, 65
1, 414044, Control_c, 0, 64, 114
1, 414059, Control_c, 0, 64, 96
1, 414071, Note_on_c, 0, 58, 79
1, 414073, Control_c, 0, 64, 74
1, 414079, Note_on_c, 0, 88, 94
1, 414084, Note_on_c, 0, 76, 92
1, 414088, Control_c, 0, 64, 0
1, 414172, Note_on_c, 0, 60, 64
1, 414176, Note_on_c, 0, 67, 72
1, 414176, Note_off_c, 0, 58, 60
1, 414178, Control_c, 0, 64, 68
1, 414183, Note_on_c, 0, 64, 65
1, 414193, Control_c, 0, 64, 82
1, 414208, Control_c, 0, 64, 94
1, 414222, Control_c, 0, 64, 98
1, 414227, Note_off_c, 0, 76, 62
1, 414237, Control_c, 0, 64, 99
1, 414252, Control_c, 0, 64, 101
1, 414258, Note_off_c, 0, 64, 62
1, 414260, Note_off_c, 0, 67, 52
1, 414267, Control_c, 0, 64, 104
1, 414272, Note_off_c, 0, 60, 37
1, 414273, Note_on_c, 0, 58, 81
1, 414282, Control_c, 0, 64, 106
1, 414304, Control_c, 0, 64, 107
1, 414319, Control_c, 0, 64, 108
1, 414327, Note_off_c, 0, 88, 64
1, 414334, Control_c, 0, 64, 108
1, 414348, Control_c, 0, 64, 110
1, 414352, Note_off_c, 0, 58, 61
1, 414360, Note_on_c, 0, 60, 61
1, 414361, Note_on_c, 0, 91, 100
1, 414363, Control_c, 0, 64, 111
1, 414364, Note_on_c, 0, 67, 75
1, 414366, Note_on_c, 0, 64, 68
1, 414366, Note_on_c, 0, 79, 93
1, 414378, Control_c, 0, 64, 113
1, 414393, Control_c, 0, 64, 114
1, 414408, Control_c, 0, 64, 115
1, 414415, Note_off_c, 0, 79, 64
1, 414422, Control_c, 0, 64, 118
1, 414427, Note_off_c, 0, 67, 61
1, 414435, Note_off_c, 0, 91, 60
1, 414437, Control_c, 0, 64, 122
1, 414444, Note_off_c, 0, 64, 63
1, 414451, Note_on_c, 0, 58, 80
1, 414452, Control_c, 0, 64, 127
1, 414460, Note_off_c, 0, 60, 53
1, 414536, Note_on_c, 0, 67, 74
1, 414538, Note_off_c, 0, 58, 59
1, 414541, Note_on_c, 0, 60, 23
1, 414548, Note_on_c, 0, 64, 56
1, 414565, Note_on_c, 0, 88, 86
1, 414570, Note_on_c, 0, 76, 77
1, 414588, Note_off_c, 0, 76, 75
1, 414597, Note_off_c, 0, 67, 59
1, 414598, Note_off_c, 0, 88, 61
1, 414610, Note_off_c, 0, 64, 59
1, 414615, Control_c, 0, 64, 104
1, 414630, Control_c, 0, 64, 85
1, 414643, Note_on_c, 0, 57, 72
1, 414645, Control_c, 0, 64, 58
1, 414655, Note_on_c, 0, 90, 102
1, 414656, Note_on_c, 0, 78, 101
1, 414660, Control_c, 0, 64, 0
1, 414671, Note_off_c, 0, 60, 25
1, 414733, Control_c, 0, 64, 65
1, 414741, Note_off_c, 0, 57, 52
1, 414743, Note_on_c, 0, 63, 67
1, 414744, Note_on_c, 0, 66, 71
1, 414746, Note_off_c, 0, 90, 63
1, 414748, Control_c, 0, 64, 81
1, 414758, Note_on_c, 0, 60, 7
1, 414763, Control_c, 0, 64, 97
1, 414764, Note_off_c, 0, 78, 64
1, 414778, Control_c, 0, 64, 106
1, 414793, Control_c, 0, 64, 106
1, 414807, Control_c, 0, 64, 108
1, 414818, Note_off_c, 0, 60, 43
1, 414819, Note_off_c, 0, 66, 56
1, 414822, Control_c, 0, 64, 110
1, 414823, Note_off_c, 0, 63, 62
1, 414837, Control_c, 0, 64, 112
1, 414842, Note_on_c, 0, 57, 72
1, 414852, Control_c, 0, 64, 113
1, 414916, Note_off_c, 0, 57, 59
1, 414943, Note_on_c, 0, 60, 45
1, 414943, Note_on_c, 0, 66, 65
1, 414945, Note_on_c, 0, 63, 64
1, 414948, Note_on_c, 0, 84, 84
1, 414952, Note_on_c, 0, 72, 74
1, 415006, Note_off_c, 0, 60, 50
1, 415010, Note_off_c, 0, 63, 56
1, 415021, Note_off_c, 0, 72, 66
1, 415023, Note_off_c, 0, 66, 50
1, 415027, Note_on_c, 0, 57, 71
1, 415136, Note_off_c, 0, 57, 56
1, 415142, Note_on_c, 0, 63, 64
1, 415149, Note_on_c, 0, 60, 54
1, 415152, Note_on_c, 0, 66, 63
1, 415199, Note_off_c, 0, 60, 51
1, 415203, Note_off_c, 0, 66, 51
1, 415206, Note_off_c, 0, 63, 61
1, 415235, Note_on_c, 0, 57, 75
1, 415318, Note_off_c, 0, 57, 59
1, 415327, Note_on_c, 0, 63, 66
1, 415332, Note_on_c, 0, 60, 58
1, 415335, Note_on_c, 0, 66, 65
1, 415364, Note_off_c, 0, 60, 59
1, 415388, Note_off_c, 0, 66, 54
1, 415392, Note_off_c, 0, 63, 62
1, 415414, Note_on_c, 0, 57, 70
1, 415478, Note_off_c, 0, 84, 63
1, 415485, Note_off_c, 0, 57, 58
1, 415497, Note_on_c, 0, 87, 86
1, 415497, Note_on_c, 0, 60, 55
1, 415500, Note_on_c, 0, 63, 75
1, 415501, Note_on_c, 0, 66, 72
1, 415506, Note_on_c, 0, 75, 89
1, 415542, Control_c, 0, 64, 113
1, 415543, Note_off_c, 0, 66, 54
1, 415557, Control_c, 0, 64, 114
1, 415563, Note_off_c, 0, 63, 61
1, 415571, Control_c, 0, 64, 114
1, 415575, Note_off_c, 0, 60, 56
1, 415586, Control_c, 0, 64, 116
1, 415588, Note_on_c, 0, 57, 71
1, 415590, Note_off_c, 0, 75, 63
1, 415601, Control_c, 0, 64, 120
1, 415605, Note_off_c, 0, 87, 62
1, 415616, Control_c, 0, 64, 124
1, 415631, Control_c, 0, 64, 127
1, 415665, Note_off_c, 0, 57, 56
1, 415673, Note_on_c, 0, 66, 68
1, 415676, Note_on_c, 0, 63, 66
1, 415681, Note_on_c, 0, 84, 75
1, 415687, Note_on_c, 0, 72, 50
1, 415705, Note_off_c, 0, 84, 70
1, 415706, Control_c, 0, 64, 114
1, 415711, Note_off_c, 0, 72, 58
1, 415721, Control_c, 0, 64, 96
1, 415724, Note_off_c, 0, 66, 45
1, 415735, Control_c, 0, 64, 78
1, 415742, Note_off_c, 0, 63, 46
1, 415750, Control_c, 0, 64, 56
1, 415754, Note_on_c, 0, 57, 70
1, 415764, Note_on_c, 0, 89, 98
1, 415765, Control_c, 0, 64, 0
1, 415770, Note_on_c, 0, 77, 89
1, 415816, Control_c, 0, 64, 63
1, 415828, Note_off_c, 0, 89, 63
1, 415831, Control_c, 0, 64, 74
1, 415843, Note_off_c, 0, 57, 47
1, 415846, Control_c, 0, 64, 84
1, 415861, Control_c, 0, 64, 91
1, 415862, Note_off_c, 0, 77, 63
1, 415868, Note_on_c, 0, 63, 64
1, 415876, Note_on_c, 0, 60, 33
1, 415876, Control_c, 0, 64, 94
1, 415877, Note_on_c, 0, 65, 58
1, 415891, Control_c, 0, 64, 96
1, 415906, Control_c, 0, 64, 99
1, 415915, Note_off_c, 0, 65, 64
1, 415921, Control_c, 0, 64, 102
1, 415925, Note_off_c, 0, 63, 59
1, 415936, Control_c, 0, 64, 105
1, 415936, Note_off_c, 0, 60, 54
1, 415950, Control_c, 0, 64, 106
1, 415953, Note_on_c, 0, 57, 67
1, 415965, Control_c, 0, 64, 107
1, 416009, Control_c, 0, 64, 106
1, 416024, Control_c, 0, 64, 100
1, 416039, Control_c, 0, 64, 88
1, 416051, Note_off_c, 0, 57, 56
1, 416054, Control_c, 0, 64, 71
1, 416058, Note_on_c, 0, 82, 83
1, 416059, Note_on_c, 0, 65, 64
1, 416062, Note_on_c, 0, 61, 66
1, 416068, Control_c, 0, 64, 0
1, 416069, Note_on_c, 0, 70, 65
1, 416104, Note_off_c, 0, 61, 60
1, 416111, Note_off_c, 0, 65, 53
1, 416141, Note_on_c, 0, 58, 65
1, 416142, Control_c, 0, 64, 66
1, 416157, Control_c, 0, 64, 75
1, 416172, Control_c, 0, 64, 85
1, 416186, Control_c, 0, 64, 89
1, 416201, Note_off_c, 0, 58, 62
1, 416201, Control_c, 0, 64, 91
1, 416216, Control_c, 0, 64, 93
1, 416225, Note_off_c, 0, 70, 60
1, 416226, Note_on_c, 0, 65, 70
1, 416228, Note_on_c, 0, 61, 64
1, 416231, Control_c, 0, 64, 96
1, 416246, Control_c, 0, 64, 99
1, 416260, Control_c, 0, 64, 100
1, 416264, Note_off_c, 0, 61, 58
1, 416264, Note_off_c, 0, 65, 57
1, 416275, Control_c, 0, 64, 102
1, 416290, Control_c, 0, 64, 104
1, 416305, Control_c, 0, 64, 106
1, 416320, Note_on_c, 0, 58, 69
1, 416320, Control_c, 0, 64, 108
1, 416335, Control_c, 0, 64, 109
1, 416350, Control_c, 0, 64, 110
1, 416365, Control_c, 0, 64, 112
1, 416380, Control_c, 0, 64, 113
1, 416385, Note_off_c, 0, 58, 63
1, 416392, Note_on_c, 0, 61, 45
1, 416394, Control_c, 0, 64, 115
1, 416405, Note_on_c, 0, 65, 63
1, 416409, Control_c, 0, 64, 116
1, 416421, Note_off_c, 0, 61, 59
1, 416424, Control_c, 0, 64, 118
1, 416439, Control_c, 0, 64, 119
1, 416448, Note_off_c, 0, 65, 53
1, 416454, Control_c, 0, 64, 121
1, 416468, Control_c, 0, 64, 122
1, 416493, Note_on_c, 0, 58, 69
1, 416511, Note_off_c, 0, 82, 55
1, 416514, Control_c, 0, 64, 119
1, 416535, Control_c, 0, 64, 108
1, 416550, Control_c, 0, 64, 94
1, 416559, Note_off_c, 0, 58, 62
1, 416565, Control_c, 0, 64, 78
1, 416575, Note_on_c, 0, 85, 87
1, 416576, Note_on_c, 0, 64, 69
1, 416577, Note_on_c, 0, 67, 72
1, 416580, Control_c, 0, 64, 64
1, 416583, Note_on_c, 0, 73, 84
1, 416595, Control_c, 0, 64, 42
1, 416609, Control_c, 0, 64, 55
1, 416613, Note_off_c, 0, 67, 59
1, 416624, Control_c, 0, 64, 67
1, 416639, Control_c, 0, 64, 79
1, 416640, Note_off_c, 0, 64, 44
1, 416654, Control_c, 0, 64, 92
1, 416666, Note_on_c, 0, 58, 72
1, 416669, Control_c, 0, 64, 97
1, 416684, Control_c, 0, 64, 98
1, 416693, Note_off_c, 0, 73, 62
1, 416699, Control_c, 0, 64, 100
1, 416700, Note_off_c, 0, 85, 64
1, 416714, Control_c, 0, 64, 104
1, 416728, Control_c, 0, 64, 109
1, 416733, Note_on_c, 0, 64, 55
1, 416737, Note_on_c, 0, 67, 67
1, 416743, Control_c, 0, 64, 112
1, 416751, Note_off_c, 0, 64, 63
1, 416758, Control_c, 0, 64, 113
1, 416761, Note_off_c, 0, 58, 62
1, 416764, Note_off_c, 0, 67, 65
1, 416769, Note_on_c, 0, 82, 80
1, 416797, Note_off_c, 0, 82, 63
1, 416803, Control_c, 0, 64, 113
1, 416817, Control_c, 0, 64, 107
1, 416832, Control_c, 0, 64, 94
1, 416844, Note_on_c, 0, 80, 92
1, 416845, Note_on_c, 0, 48, 78
1, 416847, Control_c, 0, 64, 74
1, 416850, Note_on_c, 0, 68, 92
1, 416862, Control_c, 0, 64, 0
1, 416929, Note_on_c, 0, 53, 61
1, 416932, Note_off_c, 0, 48, 63
1, 416935, Control_c, 0, 64, 45
1, 416943, Note_on_c, 0, 56, 66
1, 416945, Note_on_c, 0, 60, 65
1, 416950, Control_c, 0, 64, 72
1, 416954, Note_off_c, 0, 68, 64
1, 416965, Control_c, 0, 64, 83
1, 416975, Note_off_c, 0, 53, 65
1, 416980, Control_c, 0, 64, 93
1, 416988, Note_off_c, 0, 56, 56
1, 416995, Control_c, 0, 64, 95
1, 417001, Note_off_c, 0, 60, 57
1, 417009, Control_c, 0, 64, 97
1, 417022, Note_on_c, 0, 48, 82
1, 417024, Control_c, 0, 64, 98
1, 417039, Control_c, 0, 64, 100
1, 417054, Control_c, 0, 64, 101
1, 417107, Note_off_c, 0, 80, 63
1, 417107, Note_off_c, 0, 48, 60
1, 417113, Note_on_c, 0, 60, 72
1, 417113, Note_on_c, 0, 53, 70
1, 417116, Note_on_c, 0, 84, 99
1, 417119, Note_on_c, 0, 56, 68
1, 417128, Control_c, 0, 64, 101
1, 417131, Note_on_c, 0, 72, 72
1, 417133, Note_on_c, 0, 71, 76
1, 417140, Note_off_c, 0, 60, 63
1, 417143, Control_c, 0, 64, 102
1, 417155, Note_off_c, 0, 56, 58
1, 417158, Control_c, 0, 64, 103
1, 417158, Note_off_c, 0, 71, 61
1, 417160, Note_off_c, 0, 72, 65
1, 417173, Control_c, 0, 64, 105
1, 417175, Note_off_c, 0, 84, 60
1, 417188, Control_c, 0, 64, 109
1, 417190, Note_off_c, 0, 53, 62
1, 417201, Note_on_c, 0, 48, 77
1, 417202, Control_c, 0, 64, 114
1, 417217, Control_c, 0, 64, 119
1, 417232, Control_c, 0, 64, 127
1, 417250, Note_on_c, 0, 53, 45
1, 417265, Note_on_c, 0, 56, 65
1, 417266, Note_off_c, 0, 48, 61
1, 417268, Note_on_c, 0, 60, 65
1, 417299, Note_off_c, 0, 53, 65
1, 417305, Note_off_c, 0, 56, 64
1, 417307, Note_off_c, 0, 60, 64
1, 417322, Note_on_c, 0, 80, 84
1, 417345, Note_off_c, 0, 80, 68
1, 417347, Note_on_c, 0, 68, 52
1, 417358, Control_c, 0, 64, 121
1, 417373, Note_off_c, 0, 68, 56
1, 417373, Control_c, 0, 64, 99
1, 417379, Note_on_c, 0, 46, 81
1, 417388, Control_c, 0, 64, 80
1, 417398, Note_on_c, 0, 67, 100
1, 417398, Note_on_c, 0, 79, 100
1, 417403, Control_c, 0, 64, 38
1, 417418, Control_c, 0, 64, 0
1, 417477, Control_c, 0, 64, 64
1, 417490, Note_on_c, 0, 48, 51
1, 417492, Note_on_c, 0, 55, 64
1, 417492, Control_c, 0, 64, 80
1, 417499, Note_off_c, 0, 46, 61
1, 417503, Note_off_c, 0, 67, 59
1, 417505, Note_on_c, 0, 52, 45
1, 417506, Control_c, 0, 64, 95
1, 417521, Control_c, 0, 64, 103
1, 417535, Note_off_c, 0, 48, 64
1, 417536, Control_c, 0, 64, 104
1, 417542, Note_off_c, 0, 52, 66
1, 417545, Note_off_c, 0, 79, 65
1, 417551, Control_c, 0, 64, 105
1, 417555, Note_off_c, 0, 55, 62
1, 417566, Control_c, 0, 64, 107
1, 417577, Note_on_c, 0, 46, 80
1, 417581, Control_c, 0, 64, 108
1, 417596, Control_c, 0, 64, 108
1, 417611, Control_c, 0, 64, 109
1, 417626, Control_c, 0, 64, 109
1, 417640, Control_c, 0, 64, 110
1, 417655, Control_c, 0, 64, 110
1, 417670, Note_on_c, 0, 55, 76
1, 417670, Control_c, 0, 64, 111
1, 417676, Note_on_c, 0, 91, 108
1, 417677, Note_on_c, 0, 48, 75
1, 417678, Note_on_c, 0, 52, 74
1, 417680, Note_on_c, 0, 79, 97
1, 417685, Control_c, 0, 64, 112
1, 417700, Control_c, 0, 64, 114
1, 417710, Note_off_c, 0, 46, 51
1, 417714, Control_c, 0, 64, 118
1, 417729, Control_c, 0, 64, 121
1, 417744, Control_c, 0, 64, 125
1, 417750, Note_off_c, 0, 79, 42
1, 417753, Note_off_c, 0, 55, 64
1, 417758, Control_c, 0, 64, 127
1, 417759, Note_on_c, 0, 46, 54
1, 417760, Note_off_c, 0, 52, 63
1, 417763, Note_off_c, 0, 91, 59
1, 417832, Note_off_c, 0, 48, 32
1, 417869, Note_on_c, 0, 55, 62
1, 417872, Note_on_c, 0, 52, 61
1, 417876, Note_off_c, 0, 46, 60
1, 417897, Note_on_c, 0, 88, 79
1, 417897, Note_on_c, 0, 76, 84
1, 417900, Note_on_c, 0, 89, 91
1, 417905, Note_off_c, 0, 52, 63
1, 417916, Note_off_c, 0, 76, 71
1, 417917, Note_off_c, 0, 89, 72
1, 417918, Note_off_c, 0, 55, 49
1, 417932, Note_off_c, 0, 88, 63
1, 417951, Control_c, 0, 64, 102
1, 417966, Control_c, 0, 64, 79
1, 417974, Note_on_c, 0, 45, 83
1, 417980, Control_c, 0, 64, 0
1, 417991, Note_on_c, 0, 78, 106
1, 417991, Note_on_c, 0, 90, 109
1, 418062, Control_c, 0, 64, 38
1, 418071, Note_off_c, 0, 90, 66
1, 418077, Control_c, 0, 64, 76
1, 418091, Control_c, 0, 64, 97
1, 418094, Note_on_c, 0, 57, 72
1, 418100, Note_on_c, 0, 54, 65
1, 418100, Note_off_c, 0, 78, 64
1, 418105, Note_on_c, 0, 51, 65
1, 418106, Control_c, 0, 64, 113
1, 418116, Note_off_c, 0, 45, 61
1, 418122, Control_c, 0, 64, 115
1, 418137, Control_c, 0, 64, 117
1, 418147, Note_off_c, 0, 51, 56
1, 418152, Control_c, 0, 64, 120
1, 418165, Note_off_c, 0, 54, 53
1, 418167, Control_c, 0, 64, 121
1, 418193, Note_off_c, 0, 57, 41
1, 418198, Note_on_c, 0, 45, 71
1, 418300, Note_on_c, 0, 84, 89
1, 418302, Note_on_c, 0, 54, 62
1, 418302, Note_on_c, 0, 57, 68
1, 418305, Note_on_c, 0, 72, 82
1, 418310, Note_on_c, 0, 51, 58
1, 418312, Note_off_c, 0, 45, 63
1, 418355, Note_off_c, 0, 51, 54
1, 418370, Note_off_c, 0, 54, 52
1, 418380, Note_off_c, 0, 72, 67
1, 418398, Note_on_c, 0, 45, 72
1, 418399, Note_off_c, 0, 57, 30
1, 418449, Control_c, 0, 64, 121
1, 418502, Note_off_c, 0, 45, 57
1, 418503, Note_on_c, 0, 54, 66
1, 418510, Note_on_c, 0, 57, 71
1, 418511, Note_on_c, 0, 51, 61
1, 418541, Note_off_c, 0, 57, 57
1, 418556, Note_off_c, 0, 51, 53
1, 418568, Note_off_c, 0, 54, 59
1, 418588, Note_on_c, 0, 45, 82
1, 418673, Note_off_c, 0, 45, 59
1, 418690, Note_on_c, 0, 51, 62
1, 418690, Note_on_c, 0, 54, 70
1, 418690, Note_on_c, 0, 57, 69
1, 418720, Note_off_c, 0, 51, 61
1, 418723, Note_off_c, 0, 57, 57
1, 418732, Note_off_c, 0, 54, 47
1, 418771, Note_on_c, 0, 45, 81
1, 418847, Note_off_c, 0, 45, 60
1, 418854, Note_off_c, 0, 84, 41
1, 418867, Note_on_c, 0, 87, 89
1, 418868, Note_on_c, 0, 54, 74
1, 418868, Note_on_c, 0, 57, 74
1, 418869, Note_on_c, 0, 51, 70
1, 418875, Note_on_c, 0, 75, 95
1, 418901, Control_c, 0, 64, 121
1, 418903, Note_on_c, 0, 88, 51
1, 418913, Note_off_c, 0, 57, 60
1, 418916, Note_off_c, 0, 51, 55
1, 418916, Control_c, 0, 64, 123
1, 418926, Note_off_c, 0, 54, 57
1, 418928, Note_off_c, 0, 88, 56
1, 418931, Control_c, 0, 64, 125
1, 418946, Control_c, 0, 64, 127
1, 418951, Note_on_c, 0, 45, 73
1, 418955, Note_off_c, 0, 75, 64
1, 418958, Note_off_c, 0, 87, 64
1, 419033, Note_off_c, 0, 45, 60
1, 419051, Note_on_c, 0, 57, 68
1, 419053, Note_on_c, 0, 51, 67
1, 419054, Note_on_c, 0, 84, 87
1, 419054, Note_on_c, 0, 72, 67
1, 419070, Note_off_c, 0, 72, 67
1, 419079, Note_off_c, 0, 84, 64
1, 419094, Control_c, 0, 64, 115
1, 419096, Note_off_c, 0, 57, 56
1, 419109, Note_off_c, 0, 51, 54
1, 419109, Control_c, 0, 64, 92
1, 419124, Control_c, 0, 64, 70
1, 419133, Note_on_c, 0, 45, 80
1, 419138, Control_c, 0, 64, 0
1, 419140, Note_on_c, 0, 89, 107
1, 419142, Note_on_c, 0, 77, 98
1, 419198, Control_c, 0, 64, 66
1, 419212, Control_c, 0, 64, 80
1, 419214, Note_off_c, 0, 89, 63
1, 419225, Note_on_c, 0, 51, 75
1, 419226, Note_off_c, 0, 45, 61
1, 419227, Control_c, 0, 64, 97
1, 419230, Note_on_c, 0, 57, 58
1, 419242, Control_c, 0, 64, 104
1, 419246, Note_on_c, 0, 53, 57
1, 419252, Note_off_c, 0, 77, 61
1, 419257, Control_c, 0, 64, 107
1, 419272, Control_c, 0, 64, 110
1, 419286, Control_c, 0, 64, 116
1, 419291, Note_off_c, 0, 53, 60
1, 419295, Note_off_c, 0, 57, 60
1, 419296, Note_off_c, 0, 51, 58
1, 419301, Control_c, 0, 64, 123
1, 419316, Control_c, 0, 64, 127
1, 419325, Note_on_c, 0, 45, 74
1, 419376, Control_c, 0, 64, 118
1, 419378, Note_off_c, 0, 45, 61
1, 419390, Control_c, 0, 64, 102
1, 419405, Control_c, 0, 64, 85
1, 419420, Control_c, 0, 64, 65
1, 419435, Note_on_c, 0, 82, 90
1, 419435, Control_c, 0, 64, 0
1, 419438, Note_on_c, 0, 53, 65
1, 419440, Note_on_c, 0, 58, 64
1, 419440, Note_on_c, 0, 70, 78
1, 419446, Note_on_c, 0, 49, 61
1, 419485, Note_off_c, 0, 49, 62
1, 419494, Control_c, 0, 64, 32
1, 419504, Note_off_c, 0, 53, 64
1, 419509, Control_c, 0, 64, 69
1, 419513, Note_off_c, 0, 58, 59
1, 419531, Control_c, 0, 64, 81
1, 419537, Note_on_c, 0, 46, 83
1, 419545, Control_c, 0, 64, 90
1, 419560, Control_c, 0, 64, 94
1, 419575, Control_c, 0, 64, 95
1, 419590, Control_c, 0, 64, 97
1, 419605, Note_off_c, 0, 70, 55
1, 419605, Control_c, 0, 64, 98
1, 419614, Note_off_c, 0, 46, 63
1, 419620, Control_c, 0, 64, 99
1, 419626, Note_on_c, 0, 49, 61
1, 419627, Note_on_c, 0, 58, 63
1, 419630, Note_on_c, 0, 53, 66
1, 419664, Note_off_c, 0, 49, 60
1, 419666, Note_off_c, 0, 53, 56
1, 419669, Note_off_c, 0, 58, 50
1, 419706, Note_on_c, 0, 46, 86
1, 419754, Control_c, 0, 64, 99
1, 419781, Note_off_c, 0, 46, 61
1, 419796, Note_on_c, 0, 49, 59
1, 419797, Note_on_c, 0, 58, 73
1, 419799, Control_c, 0, 64, 100
1, 419808, Note_on_c, 0, 53, 48
1, 419814, Control_c, 0, 64, 100
1, 419827, Note_off_c, 0, 49, 64
1, 419828, Note_off_c, 0, 53, 63
1, 419829, Control_c, 0, 64, 101
1, 419843, Control_c, 0, 64, 101
1, 419857, Control_c, 0, 64, 102
1, 419860, Note_off_c, 0, 58, 62
1, 419872, Control_c, 0, 64, 102
1, 419887, Note_on_c, 0, 46, 85
1, 419891, Note_off_c, 0, 82, 47
1, 419902, Control_c, 0, 64, 102
1, 419916, Control_c, 0, 64, 99
1, 419931, Control_c, 0, 64, 91
1, 419946, Control_c, 0, 64, 77
1, 419960, Control_c, 0, 64, 59
1, 419963, Note_on_c, 0, 85, 92
1, 419969, Note_on_c, 0, 58, 81
1, 419970, Note_on_c, 0, 73, 91
1, 419972, Note_on_c, 0, 55, 77
1, 419975, Control_c, 0, 64, 0
1, 419976, Note_on_c, 0, 52, 70
1, 419995, Note_off_c, 0, 46, 55
1, 420002, Note_off_c, 0, 58, 60
1, 420020, Control_c, 0, 64, 61
1, 420034, Control_c, 0, 64, 73
1, 420044, Note_off_c, 0, 55, 64
1, 420049, Control_c, 0, 64, 83
1, 420055, Note_off_c, 0, 52, 51
1, 420064, Note_off_c, 0, 73, 59
1, 420064, Control_c, 0, 64, 91
1, 420069, Note_on_c, 0, 46, 86
1, 420079, Control_c, 0, 64, 93
1, 420086, Note_off_c, 0, 85, 64
1, 420094, Control_c, 0, 64, 95
1, 420109, Control_c, 0, 64, 97
1, 420115, Poly_aftertouch_c, 0, 82, 0
1, 420124, Control_c, 0, 64, 99
1, 420139, Control_c, 0, 64, 102
1, 420143, Note_on_c, 0, 58, 75
1, 420148, Note_off_c, 0, 46, 62
1, 420149, Note_on_c, 0, 52, 50
1, 420151, Note_on_c, 0, 55, 67
1, 420153, Control_c, 0, 64, 103
1, 420168, Note_on_c, 0, 82, 80
1, 420180, Note_off_c, 0, 52, 66
1, 420183, Note_off_c, 0, 55, 66
1, 420190, Note_off_c, 0, 82, 69
1, 420193, Note_off_c, 0, 58, 63
1, 420203, Note_on_c, 0, 70, 34
1, 420213, Control_c, 0, 64, 97
1, 420227, Control_c, 0, 64, 84
1, 420234, Note_on_c, 0, 48, 91
1, 420234, Note_off_c, 0, 70, 52
1, 420237, Note_on_c, 0, 80, 100
1, 420242, Control_c, 0, 64, 65
1, 420243, Note_on_c, 0, 68, 97
1, 420257, Control_c, 0, 64, 0
1, 420333, Note_off_c, 0, 48, 61
1, 420338, Control_c, 0, 64, 66
1, 420348, Note_on_c, 0, 60, 75
1, 420350, Note_on_c, 0, 56, 76
1, 420350, Note_on_c, 0, 53, 65
1, 420353, Control_c, 0, 64, 81
1, 420362, Note_off_c, 0, 68, 63
1, 420368, Control_c, 0, 64, 94
1, 420383, Control_c, 0, 64, 98
1, 420385, Note_off_c, 0, 53, 66
1, 420395, Note_off_c, 0, 60, 57
1, 420398, Control_c, 0, 64, 98
1, 420399, Note_off_c, 0, 56, 60
1, 420413, Control_c, 0, 64, 99
1, 420428, Control_c, 0, 64, 100
1, 420431, Note_on_c, 0, 48, 87
1, 420442, Control_c, 0, 64, 100
1, 420486, Control_c, 0, 64, 101
1, 420498, Note_off_c, 0, 80, 62
1, 420521, Note_off_c, 0, 48, 64
1, 420525, Note_on_c, 0, 60, 79
1, 420526, Note_on_c, 0, 53, 71
1, 420526, Note_on_c, 0, 56, 77
1, 420526, Note_on_c, 0, 84, 96
1, 420530, Note_on_c, 0, 72, 94
1, 420532, Control_c, 0, 64, 101
1, 420547, Control_c, 0, 64, 102
1, 420558, Note_off_c, 0, 53, 66
1, 420562, Control_c, 0, 64, 104
1, 420572, Note_off_c, 0, 72, 64
1, 420573, Note_off_c, 0, 60, 60
1, 420577, Note_off_c, 0, 56, 61
1, 420577, Control_c, 0, 64, 107
1, 420578, Note_off_c, 0, 84, 64
1, 420591, Control_c, 0, 64, 110
1, 420606, Control_c, 0, 64, 114
1, 420621, Note_on_c, 0, 48, 88
1, 420621, Control_c, 0, 64, 119
1, 420636, Control_c, 0, 64, 126
1, 420651, Control_c, 0, 64, 127
1, 420711, Note_off_c, 0, 48, 56
1, 420718, Note_on_c, 0, 60, 77
1, 420719, Note_on_c, 0, 53, 75
1, 420720, Note_on_c, 0, 56, 76
1, 420729, Note_on_c, 0, 80, 88
1, 420739, Note_on_c, 0, 68, 78
1, 420741, Note_off_c, 0, 53, 70
1, 420758, Note_off_c, 0, 56, 62
1, 420758, Note_off_c, 0, 68, 74
1, 420760, Note_off_c, 0, 60, 54
1, 420762, Note_off_c, 0, 80, 58
1, 420783, Control_c, 0, 64, 108
1, 420798, Control_c, 0, 64, 87
1, 420805, Note_on_c, 0, 48, 94
1, 420810, Note_on_c, 0, 79, 105
1, 420811, Note_on_c, 0, 67, 99
1, 420813, Control_c, 0, 64, 65
1, 420828, Control_c, 0, 64, 0
1, 420887, Control_c, 0, 64, 70
1, 420901, Note_off_c, 0, 48, 59
1, 420902, Control_c, 0, 64, 83
1, 420903, Note_on_c, 0, 60, 84
1, 420908, Note_off_c, 0, 67, 61
1, 420908, Note_on_c, 0, 55, 76
1, 420911, Note_on_c, 0, 52, 76
1, 420917, Control_c, 0, 64, 96
1, 420932, Control_c, 0, 64, 98
1, 420938, Note_off_c, 0, 52, 68
1, 420946, Control_c, 0, 64, 99
1, 420947, Note_off_c, 0, 55, 61
1, 420950, Note_off_c, 0, 60, 62
1, 420950, Note_off_c, 0, 79, 61
1, 420976, Control_c, 0, 64, 99
1, 420991, Control_c, 0, 64, 100
1, 420999, Note_on_c, 0, 48, 93
1, 421021, Control_c, 0, 64, 100
1, 421087, Note_off_c, 0, 48, 59
1, 421093, Note_on_c, 0, 72, 101
1, 421093, Note_on_c, 0, 84, 102
1, 421098, Note_on_c, 0, 60, 84
1, 421101, Note_on_c, 0, 52, 75
1, 421103, Note_on_c, 0, 55, 78
1, 421116, Control_c, 0, 64, 101
1, 421127, Note_off_c, 0, 52, 64
1, 421137, Note_off_c, 0, 55, 63
1, 421137, Note_off_c, 0, 72, 64
1, 421139, Note_off_c, 0, 84, 63
1, 421142, Note_off_c, 0, 60, 61
1, 421146, Control_c, 0, 64, 101
1, 421161, Control_c, 0, 64, 102
1, 421176, Control_c, 0, 64, 103
1, 421191, Control_c, 0, 64, 104
1, 421191, Note_on_c, 0, 48, 82
1, 421206, Control_c, 0, 64, 105
1, 421221, Control_c, 0, 64, 107
1, 421236, Control_c, 0, 64, 109
1, 421251, Control_c, 0, 64, 110
1, 421265, Control_c, 0, 64, 111
1, 421277, Note_on_c, 0, 55, 60
1, 421280, Control_c, 0, 64, 111
1, 421283, Note_on_c, 0, 60, 67
1, 421295, Note_on_c, 0, 84, 91
1, 421300, Note_on_c, 0, 72, 87
1, 421303, Note_off_c, 0, 55, 70
1, 421310, Note_off_c, 0, 60, 65
1, 421325, Note_off_c, 0, 48, 65
1, 421325, Control_c, 0, 64, 110
1, 421329, Note_off_c, 0, 72, 60
1, 421335, Note_off_c, 0, 84, 62
1, 421340, Control_c, 0, 64, 97
1, 421354, Control_c, 0, 64, 78
1, 421369, Control_c, 0, 64, 0
1, 421397, Note_on_c, 0, 53, 105
1, 421398, Note_on_c, 0, 72, 105
1, 421398, Note_on_c, 0, 84, 102
1, 421404, Note_on_c, 0, 41, 91
1, 421407, Note_on_c, 0, 44, 85
1, 421413, Note_off_c, 0, 53, 76
1, 421413, Control_c, 0, 64, 63
1, 421422, Note_off_c, 0, 84, 69
1, 421428, Control_c, 0, 64, 82
1, 421429, Note_off_c, 0, 44, 68
1, 421431, Note_off_c, 0, 41, 69
1, 421433, Note_off_c, 0, 72, 69
1, 421443, Control_c, 0, 64, 109
1, 421458, Control_c, 0, 64, 127
1, 421577, Note_on_c, 0, 68, 77
1, 421578, Note_on_c, 0, 60, 80
1, 421579, Note_on_c, 0, 72, 74
1, 421585, Note_on_c, 0, 65, 71
1, 421589, Note_on_c, 0, 66, 52
1, 421591, Control_c, 0, 64, 103
1, 421593, Note_off_c, 0, 72, 70
1, 421597, Note_on_c, 0, 62, 56
1, 421599, Note_off_c, 0, 68, 70
1, 421602, Note_off_c, 0, 65, 67
1, 421602, Note_off_c, 0, 60, 68
1, 421605, Control_c, 0, 64, 79
1, 421609, Note_off_c, 0, 66, 63
1, 421618, Note_off_c, 0, 62, 59
1, 421620, Control_c, 0, 64, 0
1, 421665, Note_on_c, 0, 72, 83
1, 421667, Note_on_c, 0, 65, 87
1, 421668, Note_on_c, 0, 68, 90
1, 421671, Note_on_c, 0, 60, 90
1, 421687, Note_off_c, 0, 68, 72
1, 421688, Note_off_c, 0, 72, 64
1, 421691, Note_off_c, 0, 60, 66
1, 421693, Note_off_c, 0, 65, 66
1, 421756, Note_on_c, 0, 72, 100
1, 421759, Note_on_c, 0, 65, 93
1, 421760, Note_on_c, 0, 68, 84
1, 421761, Note_on_c, 0, 60, 93
1, 421854, Note_on_c, 0, 53, 88
1, 421859, Note_on_c, 0, 56, 81
1, 421885, Note_off_c, 0, 56, 65
1, 421893, Note_off_c, 0, 65, 61
1, 421895, Note_off_c, 0, 53, 67
1, 421907, Note_off_c, 0, 68, 61
1, 421924, Note_off_c, 0, 72, 58
1, 421946, Note_on_c, 0, 56, 89
1, 421948, Note_on_c, 0, 53, 72
1, 421956, Note_off_c, 0, 60, 51
1, 421978, Note_off_c, 0, 53, 68
1, 421981, Note_off_c, 0, 56, 62
1, 422032, Note_on_c, 0, 52, 93
1, 422037, Note_on_c, 0, 55, 88
1, 422043, Control_c, 0, 64, 64
1, 422052, Note_off_c, 0, 52, 73
1, 422055, Note_off_c, 0, 55, 71
1, 422057, Control_c, 0, 64, 92
1, 422072, Control_c, 0, 64, 102
1, 422118, Control_c, 0, 64, 103
1, 422127, Note_on_c, 0, 67, 85
1, 422129, Note_on_c, 0, 60, 87
1, 422134, Note_on_c, 0, 64, 74
1, 422139, Note_on_c, 0, 72, 68
1, 422154, Note_off_c, 0, 60, 64
1, 422155, Note_off_c, 0, 72, 66
1, 422157, Note_off_c, 0, 64, 69
1, 422161, Note_off_c, 0, 67, 59
1, 422207, Control_c, 0, 64, 103
1, 422215, Note_on_c, 0, 67, 87
1, 422219, Note_on_c, 0, 72, 85
1, 422222, Note_on_c, 0, 64, 71
1, 422225, Note_on_c, 0, 60, 84
1, 422230, Note_on_c, 0, 65, 78
1, 422245, Note_off_c, 0, 72, 63
1, 422249, Note_off_c, 0, 64, 66
1, 422251, Control_c, 0, 64, 101
1, 422252, Note_off_c, 0, 60, 64
1, 422252, Note_off_c, 0, 67, 60
1, 422254, Note_off_c, 0, 65, 71
1, 422266, Control_c, 0, 64, 86
1, 422281, Control_c, 0, 64, 54
1, 422295, Control_c, 0, 64, 0
1, 422315, Note_on_c, 0, 70, 98
1, 422315, Note_on_c, 0, 72, 98
1, 422315, Note_on_c, 0, 60, 109
1, 422319, Note_on_c, 0, 67, 92
1, 422409, Note_on_c, 0, 55, 84
1, 422412, Note_on_c, 0, 58, 85
1, 422437, Note_off_c, 0, 58, 64
1, 422449, Note_off_c, 0, 55, 65
1, 422459, Note_off_c, 0, 67, 60
1, 422491, Note_off_c, 0, 70, 58
1, 422491, Note_off_c, 0, 72, 57
1, 422504, Note_on_c, 0, 58, 88
1, 422509, Note_off_c, 0, 60, 54
1, 422511, Note_on_c, 0, 55, 61
1, 422540, Note_off_c, 0, 58, 64
1, 422547, Note_off_c, 0, 55, 66
1, 422591, Note_on_c, 0, 56, 93
1, 422595, Note_on_c, 0, 53, 84
1, 422614, Control_c, 0, 64, 79
1, 422615, Note_off_c, 0, 56, 68
1, 422618, Note_off_c, 0, 53, 72
1, 422628, Control_c, 0, 64, 99
1, 422643, Control_c, 0, 64, 103
1, 422687, Note_on_c, 0, 68, 86
1, 422690, Note_on_c, 0, 65, 79
1, 422692, Note_on_c, 0, 60, 82
1, 422696, Note_on_c, 0, 72, 72
1, 422710, Note_off_c, 0, 68, 65
1, 422711, Note_off_c, 0, 72, 68
1, 422713, Note_off_c, 0, 65, 70
1, 422714, Note_off_c, 0, 60, 69
1, 422777, Control_c, 0, 64, 97
1, 422782, Note_on_c, 0, 72, 79
1, 422783, Note_on_c, 0, 65, 85
1, 422786, Note_on_c, 0, 60, 85
1, 422787, Note_on_c, 0, 68, 85
1, 422792, Control_c, 0, 64, 81
1, 422805, Note_off_c, 0, 72, 69
1, 422807, Control_c, 0, 64, 16
1, 422807, Note_off_c, 0, 68, 71
1, 422808, Note_off_c, 0, 60, 67
1, 422813, Note_off_c, 0, 65, 66
1, 422821, Control_c, 0, 64, 0
1, 422872, Note_on_c, 0, 72, 101
1, 422875, Note_on_c, 0, 68, 99
1, 422876, Note_on_c, 0, 65, 95
1, 422878, Note_on_c, 0, 60, 97
1, 422976, Note_on_c, 0, 53, 81
1, 422976, Note_on_c, 0, 56, 84
1, 423003, Note_off_c, 0, 56, 64
1, 423012, Note_off_c, 0, 53, 67
1, 423022, Note_off_c, 0, 65, 63
1, 423027, Note_off_c, 0, 68, 57
1, 423031, Note_off_c, 0, 72, 55
1, 423067, Note_on_c, 0, 53, 67
1, 423073, Note_on_c, 0, 56, 78
1, 423076, Note_off_c, 0, 60, 51
1, 423094, Note_off_c, 0, 53, 67
1, 423096, Note_off_c, 0, 56, 66
1, 423147, Note_on_c, 0, 55, 100
1, 423153, Note_on_c, 0, 52, 89
1, 423172, Note_off_c, 0, 52, 74
1, 423174, Note_off_c, 0, 55, 64
1, 423177, Control_c, 0, 64, 65
1, 423192, Control_c, 0, 64, 94
1, 423207, Control_c, 0, 64, 106
1, 423231, Note_on_c, 0, 67, 83
1, 423234, Note_on_c, 0, 60, 80
1, 423241, Note_on_c, 0, 64, 71
1, 423245, Note_on_c, 0, 72, 66
1, 423263, Note_off_c, 0, 72, 63
1, 423266, Note_off_c, 0, 64, 69
1, 423282, Note_off_c, 0, 60, 55
1, 423283, Note_off_c, 0, 67, 63
1, 423318, Control_c, 0, 64, 106
1, 423327, Note_on_c, 0, 67, 81
1, 423331, Note_on_c, 0, 60, 71
1, 423332, Note_on_c, 0, 64, 82
1, 423333, Control_c, 0, 64, 107
1, 423334, Note_on_c, 0, 72, 78
1, 423348, Control_c, 0, 64, 107
1, 423357, Note_off_c, 0, 64, 67
1, 423358, Note_off_c, 0, 72, 69
1, 423367, Note_off_c, 0, 60, 62
1, 423371, Note_off_c, 0, 67, 62
1, 423392, Control_c, 0, 64, 102
1, 423407, Control_c, 0, 64, 91
1, 423422, Control_c, 0, 64, 76
1, 423430, Note_on_c, 0, 70, 97
1, 423431, Note_on_c, 0, 72, 100
1, 423433, Note_on_c, 0, 60, 104
1, 423436, Note_on_c, 0, 67, 88
1, 423437, Control_c, 0, 64, 57
1, 423451, Control_c, 0, 64, 0
1, 423523, Note_on_c, 0, 58, 86
1, 423530, Note_on_c, 0, 55, 76
1, 423556, Note_off_c, 0, 58, 60
1, 423558, Note_off_c, 0, 55, 66
1, 423559, Note_off_c, 0, 67, 59
1, 423593, Note_off_c, 0, 70, 58
1, 423597, Note_off_c, 0, 72, 58
1, 423614, Note_off_c, 0, 60, 47
1, 423627, Note_on_c, 0, 58, 82
1, 423630, Note_on_c, 0, 55, 76
1, 423650, Note_off_c, 0, 58, 69
1, 423653, Note_off_c, 0, 55, 68
1, 423708, Note_on_c, 0, 56, 96
1, 423712, Note_on_c, 0, 53, 94
1, 423746, Note_off_c, 0, 53, 67
1, 423751, Note_off_c, 0, 56, 65
1, 423799, Note_on_c, 0, 68, 83
1, 423799, Note_on_c, 0, 60, 85
1, 423800, Note_on_c, 0, 72, 81
1, 423801, Note_on_c, 0, 65, 77
1, 423829, Note_off_c, 0, 65, 64
1, 423832, Note_off_c, 0, 72, 57
1, 423835, Note_off_c, 0, 60, 58
1, 423847, Note_off_c, 0, 68, 60
1, 423871, Note_on_c, 0, 53, 94
1, 423877, Note_on_c, 0, 56, 85
1, 423901, Note_off_c, 0, 53, 69
1, 423901, Note_off_c, 0, 56, 69
1, 423959, Note_on_c, 0, 73, 88
1, 423960, Note_on_c, 0, 61, 93
1, 423963, Note_on_c, 0, 67, 78
1, 423966, Note_on_c, 0, 65, 79
1, 424011, Note_off_c, 0, 61, 63
1, 424042, Note_off_c, 0, 73, 58
1, 424044, Note_off_c, 0, 67, 56
1, 424053, Note_on_c, 0, 55, 103
1, 424059, Note_on_c, 0, 46, 95
1, 424068, Note_off_c, 0, 65, 56
1, 424084, Note_off_c, 0, 46, 66
1, 424096, Note_off_c, 0, 55, 65
1, 424098, Note_on_c, 0, 52, 14
1, 424099, Note_off_c, 0, 52, 127
1, 424144, Note_on_c, 0, 61, 90
1, 424145, Note_on_c, 0, 65, 83
1, 424150, Note_on_c, 0, 67, 76
1, 424151, Note_on_c, 0, 73, 65
1, 424152, Note_off_c, 0, 73, 127
1, 424158, Note_on_c, 0, 72, 78
1, 424188, Note_off_c, 0, 67, 59
1, 424190, Note_off_c, 0, 72, 56
1, 424192, Note_off_c, 0, 61, 64
1, 424227, Note_on_c, 0, 56, 101
1, 424234, Note_on_c, 0, 53, 81
1, 424234, Note_off_c, 0, 65, 59
1, 424273, Note_on_c, 0, 48, 29
1, 424276, Note_off_c, 0, 53, 64
1, 424285, Note_off_c, 0, 56, 57
1, 424312, Note_off_c, 0, 48, 31
1, 424318, Note_on_c, 0, 72, 88
1, 424319, Note_on_c, 0, 60, 91
1, 424320, Note_on_c, 0, 68, 84
1, 424330, Note_on_c, 0, 65, 73
1, 424355, Note_off_c, 0, 68, 62
1, 424357, Note_off_c, 0, 65, 70
1, 424367, Note_off_c, 0, 60, 59
1, 424372, Note_off_c, 0, 72, 63
1, 424407, Note_on_c, 0, 56, 103
1, 424418, Note_on_c, 0, 53, 82
1, 424429, Note_on_c, 0, 48, 60
1, 424452, Note_off_c, 0, 53, 65
1, 424455, Note_off_c, 0, 56, 65
1, 424461, Note_off_c, 0, 48, 66
1, 424507, Note_on_c, 0, 72, 93
1, 424508, Note_on_c, 0, 60, 92
1, 424509, Note_on_c, 0, 64, 89
1, 424510, Note_on_c, 0, 67, 86
1, 424562, Note_off_c, 0, 60, 51
1, 424570, Note_off_c, 0, 72, 59
1, 424574, Note_off_c, 0, 64, 39
1, 424590, Note_off_c, 0, 67, 47
1, 424595, Note_on_c, 0, 51, 75
1, 424607, Note_on_c, 0, 55, 79
1, 424608, Note_on_c, 0, 48, 74
1, 424627, Note_off_c, 0, 51, 64
1, 424629, Note_off_c, 0, 55, 69
1, 424642, Note_off_c, 0, 48, 66
1, 424699, Note_on_c, 0, 60, 87
1, 424700, Note_on_c, 0, 67, 81
1, 424701, Note_on_c, 0, 72, 87
1, 424702, Note_on_c, 0, 64, 80
1, 424740, Note_off_c, 0, 60, 59
1, 424746, Note_off_c, 0, 64, 60
1, 424747, Note_off_c, 0, 67, 60
1, 424747, Note_off_c, 0, 72, 59
1, 424816, Note_on_c, 0, 53, 99
1, 424819, Note_on_c, 0, 60, 103
1, 424819, Note_on_c, 0, 41, 91
1, 424819, Note_on_c, 0, 68, 103
1, 424819, Note_on_c, 0, 72, 99
1, 424820, Note_on_c, 0, 65, 96
1, 424822, Note_on_c, 0, 48, 89
1, 424825, Note_on_c, 0, 44, 88
1, 424831, Control_c, 0, 64, 90
1, 424837, Note_off_c, 0, 53, 71
1, 424843, Note_off_c, 0, 41, 68
1, 424843, Note_off_c, 0, 48, 68
1, 424845, Control_c, 0, 64, 127
1, 424847, Note_off_c, 0, 72, 66
1, 424848, Note_off_c, 0, 65, 63
1, 424851, Note_off_c, 0, 44, 69
1, 424854, Note_off_c, 0, 60, 64
1, 424858, Note_off_c, 0, 68, 66
1, 425037, Note_on_c, 0, 60, 85
1, 425039, Note_on_c, 0, 48, 78
1, 425040, Note_on_c, 0, 56, 75
1, 425042, Note_on_c, 0, 53, 76
1, 425054, Note_off_c, 0, 60, 73
1, 425063, Note_off_c, 0, 53, 72
1, 425065, Note_off_c, 0, 48, 67
1, 425066, Note_off_c, 0, 56, 65
1, 425082, Control_c, 0, 64, 101
1, 425098, Control_c, 0, 64, 76
1, 425113, Control_c, 0, 64, 0
1, 425132, Note_on_c, 0, 56, 77
1, 425132, Note_on_c, 0, 60, 87
1, 425134, Note_on_c, 0, 53, 88
1, 425135, Note_on_c, 0, 48, 86
1, 425152, Note_off_c, 0, 60, 66
1, 425158, Note_off_c, 0, 56, 69
1, 425160, Note_off_c, 0, 48, 70
1, 425163, Note_off_c, 0, 53, 67
1, 425217, Note_on_c, 0, 60, 100
1, 425218, Note_on_c, 0, 53, 94
1, 425219, Note_on_c, 0, 56, 96
1, 425220, Note_on_c, 0, 48, 100
1, 425316, Note_on_c, 0, 41, 83
1, 425316, Note_on_c, 0, 44, 84
1, 425346, Note_off_c, 0, 53, 61
1, 425349, Note_off_c, 0, 44, 67
1, 425356, Note_off_c, 0, 41, 65
1, 425361, Note_off_c, 0, 56, 61
1, 425371, Note_off_c, 0, 60, 29
1, 425406, Note_off_c, 0, 48, 51
1, 425408, Note_on_c, 0, 44, 90
1, 425418, Note_on_c, 0, 41, 69
1, 425438, Note_off_c, 0, 44, 70
1, 425446, Note_off_c, 0, 41, 67
1, 425494, Note_on_c, 0, 43, 99
1, 425495, Note_on_c, 0, 40, 89
1, 425498, Control_c, 0, 64, 61
1, 425513, Control_c, 0, 64, 99
1, 425519, Note_off_c, 0, 43, 66
1, 425522, Note_off_c, 0, 40, 69
1, 425536, Control_c, 0, 64, 127
1, 425591, Note_on_c, 0, 55, 89
1, 425599, Note_on_c, 0, 48, 82
1, 425604, Note_on_c, 0, 52, 71
1, 425605, Note_on_c, 0, 60, 68
1, 425631, Note_off_c, 0, 52, 69
1, 425633, Note_off_c, 0, 48, 64
1, 425634, Note_off_c, 0, 60, 66
1, 425636, Note_off_c, 0, 55, 64
1, 425681, Note_on_c, 0, 55, 77
1, 425687, Note_on_c, 0, 48, 77
1, 425688, Note_on_c, 0, 52, 82
1, 425698, Note_on_c, 0, 60, 68
1, 425713, Note_off_c, 0, 52, 64
1, 425719, Note_off_c, 0, 48, 62
1, 425722, Note_off_c, 0, 55, 64
1, 425722, Note_off_c, 0, 60, 64
1, 425743, Control_c, 0, 64, 107
1, 425758, Control_c, 0, 64, 88
1, 425773, Control_c, 0, 64, 68
1, 425780, Note_on_c, 0, 58, 96
1, 425780, Note_on_c, 0, 60, 99
1, 425781, Note_on_c, 0, 48, 101
1, 425784, Note_on_c, 0, 55, 88
1, 425787, Control_c, 0, 64, 0
1, 425873, Note_on_c, 0, 46, 93
1, 425879, Note_on_c, 0, 43, 78
1, 425914, Note_off_c, 0, 46, 58
1, 425917, Note_off_c, 0, 43, 62
1, 425918, Note_off_c, 0, 55, 62
1, 425949, Note_off_c, 0, 58, 61
1, 425962, Note_off_c, 0, 60, 49
1, 425968, Note_off_c, 0, 48, 44
1, 425971, Note_on_c, 0, 46, 83
1, 425977, Note_on_c, 0, 43, 65
1, 426003, Note_off_c, 0, 46, 66
1, 426005, Note_off_c, 0, 43, 62
1, 426050, Note_on_c, 0, 41, 93
1, 426054, Note_on_c, 0, 44, 91
1, 426074, Note_off_c, 0, 41, 73
1, 426079, Note_off_c, 0, 44, 71
1, 426099, Control_c, 0, 64, 68
1, 426114, Control_c, 0, 64, 97
1, 426128, Control_c, 0, 64, 116
1, 426154, Note_on_c, 0, 56, 81
1, 426156, Note_on_c, 0, 48, 82
1, 426157, Note_on_c, 0, 60, 78
1, 426157, Note_on_c, 0, 53, 76
1, 426181, Note_off_c, 0, 56, 65
1, 426181, Note_off_c, 0, 60, 67
1, 426183, Note_off_c, 0, 48, 69
1, 426184, Note_off_c, 0, 53, 68
1, 426247, Note_on_c, 0, 53, 87
1, 426249, Note_on_c, 0, 60, 88
1, 426252, Note_on_c, 0, 48, 84
1, 426252, Note_on_c, 0, 56, 86
1, 426262, Control_c, 0, 64, 110
1, 426276, Note_off_c, 0, 60, 65
1, 426280, Note_off_c, 0, 56, 70
1, 426284, Control_c, 0, 64, 96
1, 426292, Note_off_c, 0, 48, 67
1, 426292, Note_off_c, 0, 53, 66
1, 426299, Control_c, 0, 64, 76
1, 426314, Control_c, 0, 64, 0
1, 426349, Note_on_c, 0, 60, 101
1, 426351, Note_on_c, 0, 53, 95
1, 426351, Note_on_c, 0, 56, 93
1, 426354, Note_on_c, 0, 48, 95
1, 426445, Note_on_c, 0, 41, 86
1, 426446, Note_on_c, 0, 44, 87
1, 426479, Note_off_c, 0, 44, 67
1, 426488, Note_off_c, 0, 41, 65
1, 426502, Note_off_c, 0, 53, 66
1, 426514, Note_off_c, 0, 56, 60
1, 426528, Note_off_c, 0, 60, 51
1, 426539, Note_on_c, 0, 44, 90
1, 426543, Note_on_c, 0, 41, 68
1, 426550, Note_off_c, 0, 48, 52
1, 426569, Note_off_c, 0, 41, 68
1, 426570, Note_off_c, 0, 44, 69
1, 426626, Note_on_c, 0, 43, 95
1, 426630, Note_on_c, 0, 40, 96
1, 426640, Control_c, 0, 64, 59
1, 426652, Note_off_c, 0, 43, 68
1, 426654, Control_c, 0, 64, 94
1, 426655, Note_off_c, 0, 40, 69
1, 426669, Control_c, 0, 64, 116
1, 426684, Control_c, 0, 64, 118
1, 426712, Note_on_c, 0, 55, 82
1, 426716, Note_on_c, 0, 48, 77
1, 426720, Note_on_c, 0, 52, 73
1, 426723, Note_on_c, 0, 60, 65
1, 426743, Note_off_c, 0, 60, 64
1, 426744, Note_off_c, 0, 48, 66
1, 426749, Note_off_c, 0, 52, 68
1, 426758, Note_off_c, 0, 55, 64
1, 426794, Poly_aftertouch_c, 0, 55, 0
1, 426800, Note_on_c, 0, 55, 68
1, 426808, Note_on_c, 0, 48, 72
1, 426809, Note_on_c, 0, 52, 77
1, 426810, Note_on_c, 0, 60, 76
1, 426832, Note_off_c, 0, 52, 73
1, 426832, Control_c, 0, 64, 117
1, 426837, Note_off_c, 0, 48, 66
1, 426841, Note_off_c, 0, 60, 64
1, 426842, Note_off_c, 0, 55, 64
1, 426846, Control_c, 0, 64, 108
1, 426861, Control_c, 0, 64, 95
1, 426876, Control_c, 0, 64, 78
1, 426892, Control_c, 0, 64, 45
1, 426899, Note_on_c, 0, 48, 101
1, 426899, Note_on_c, 0, 58, 93
1, 426899, Note_on_c, 0, 60, 100
1, 426903, Note_on_c, 0, 55, 88
1, 426907, Control_c, 0, 64, 0
1, 426986, Note_on_c, 0, 46, 94
1, 426991, Note_on_c, 0, 43, 80
1, 427036, Note_off_c, 0, 43, 64
1, 427038, Note_off_c, 0, 46, 59
1, 427044, Note_off_c, 0, 55, 63
1, 427075, Note_off_c, 0, 58, 62
1, 427083, Note_off_c, 0, 60, 54
1, 427093, Note_on_c, 0, 46, 92
1, 427103, Note_on_c, 0, 43, 68
1, 427128, Note_off_c, 0, 46, 62
1, 427128, Note_off_c, 0, 48, 48
1, 427129, Note_off_c, 0, 43, 62
1, 427184, Note_on_c, 0, 44, 91
1, 427186, Note_on_c, 0, 41, 92
1, 427221, Note_off_c, 0, 41, 66
1, 427230, Note_off_c, 0, 44, 65
1, 427275, Note_on_c, 0, 48, 90
1, 427275, Note_on_c, 0, 56, 83
1, 427278, Note_on_c, 0, 60, 85
1, 427278, Note_on_c, 0, 53, 77
1, 427305, Note_off_c, 0, 53, 69
1, 427308, Note_off_c, 0, 60, 55
1, 427311, Note_off_c, 0, 48, 64
1, 427315, Note_off_c, 0, 56, 60
1, 427353, Note_on_c, 0, 41, 92
1, 427355, Note_on_c, 0, 44, 94
1, 427380, Note_off_c, 0, 41, 71
1, 427385, Note_off_c, 0, 44, 68
1, 427442, Note_on_c, 0, 61, 90
1, 427445, Note_on_c, 0, 49, 93
1, 427448, Note_on_c, 0, 53, 79
1, 427448, Note_on_c, 0, 55, 81
1, 427504, Note_off_c, 0, 49, 60
1, 427513, Note_off_c, 0, 61, 58
1, 427522, Note_off_c, 0, 55, 61
1, 427526, Note_off_c, 0, 53, 52
1, 427534, Note_on_c, 0, 43, 100
1, 427540, Note_on_c, 0, 34, 91
1, 427558, Note_on_c, 0, 41, 61
1, 427567, Note_off_c, 0, 34, 70
1, 427580, Note_off_c, 0, 43, 64
1, 427588, Note_off_c, 0, 41, 59
1, 427617, Note_on_c, 0, 61, 83
1, 427621, Note_on_c, 0, 49, 88
1, 427627, Note_on_c, 0, 55, 74
1, 427628, Note_on_c, 0, 53, 76
1, 427663, Note_off_c, 0, 49, 62
1, 427663, Note_off_c, 0, 55, 62
1, 427680, Note_off_c, 0, 61, 63
1, 427706, Note_on_c, 0, 44, 108
1, 427706, Note_off_c, 0, 53, 60
1, 427718, Note_on_c, 0, 41, 78
1, 427720, Note_on_c, 0, 36, 77
1, 427755, Note_off_c, 0, 36, 62
1, 427767, Control_c, 0, 64, 30
1, 427779, Note_off_c, 0, 44, 61
1, 427782, Control_c, 0, 64, 0
1, 427783, Note_off_c, 0, 41, 56
1, 427800, Note_on_c, 0, 60, 86
1, 427801, Note_on_c, 0, 56, 81
1, 427803, Note_on_c, 0, 48, 85
1, 427810, Note_on_c, 0, 53, 75
1, 427843, Note_off_c, 0, 53, 62
1, 427850, Note_off_c, 0, 48, 62
1, 427854, Note_off_c, 0, 60, 60
1, 427856, Note_off_c, 0, 56, 59
1, 427887, Note_on_c, 0, 44, 93
1, 427899, Note_on_c, 0, 41, 71
1, 427903, Note_on_c, 0, 37, 68
1, 427929, Note_off_c, 0, 37, 67
1, 427929, Note_off_c, 0, 41, 67
1, 427931, Note_off_c, 0, 44, 61
1, 427967, Note_on_c, 0, 48, 91
1, 427967, Note_on_c, 0, 60, 85
1, 427969, Note_on_c, 0, 52, 83
1, 427969, Note_on_c, 0, 55, 77
1, 428022, Note_off_c, 0, 52, 47
1, 428026, Note_off_c, 0, 48, 56
1, 428027, Note_off_c, 0, 55, 49
1, 428035, Note_off_c, 0, 60, 58
1, 428060, Note_on_c, 0, 43, 103
1, 428072, Note_on_c, 0, 40, 81
1, 428077, Note_on_c, 0, 32, 73
1, 428077, Note_on_c, 0, 34, 72
1, 428093, Control_c, 0, 64, 59
1, 428100, Note_off_c, 0, 40, 62
1, 428101, Note_off_c, 0, 34, 61
1, 428101, Note_off_c, 0, 32, 65
1, 428108, Control_c, 0, 64, 70
1, 428118, Note_off_c, 0, 43, 61
1, 428123, Control_c, 0, 64, 69
1, 428138, Control_c, 0, 64, 63
1, 428145, Note_on_c, 0, 48, 88
1, 428147, Note_on_c, 0, 52, 84
1, 428148, Note_on_c, 0, 60, 84
1, 428153, Note_on_c, 0, 55, 82
1, 428153, Control_c, 0, 64, 45
1, 428167, Note_off_c, 0, 48, 73
1, 428167, Control_c, 0, 64, 0
1, 428175, Note_off_c, 0, 52, 68
1, 428187, Note_off_c, 0, 55, 64
1, 428209, Note_off_c, 0, 60, 63
1, 428234, Note_on_c, 0, 44, 99
1, 428238, Note_on_c, 0, 36, 84
1, 428242, Note_on_c, 0, 41, 85
1, 428249, Note_on_c, 0, 32, 77
1, 428303, Note_off_c, 0, 32, 62
1, 428303, Note_off_c, 0, 44, 62
1, 428316, Control_c, 0, 64, 62
1, 428326, Note_off_c, 0, 41, 56
1, 428328, Note_on_c, 0, 72, 95
1, 428329, Note_on_c, 0, 60, 92
1, 428329, Note_on_c, 0, 68, 91
1, 428331, Control_c, 0, 64, 76
1, 428332, Note_off_c, 0, 36, 58
1, 428333, Note_on_c, 0, 65, 86
1, 428346, Control_c, 0, 64, 80
1, 428361, Control_c, 0, 64, 78
1, 428375, Control_c, 0, 64, 70
1, 428381, Note_off_c, 0, 72, 61
1, 428382, Note_off_c, 0, 60, 57
1, 428390, Control_c, 0, 64, 18
1, 428404, Note_off_c, 0, 65, 57
1, 428405, Control_c, 0, 64, 0
1, 428408, Note_off_c, 0, 68, 56
1, 428413, Note_on_c, 0, 44, 102
1, 428418, Note_on_c, 0, 32, 85
1, 428425, Note_on_c, 0, 41, 79
1, 428450, Note_off_c, 0, 41, 68
1, 428468, Note_off_c, 0, 32, 63
1, 428479, Control_c, 0, 64, 51
1, 428486, Note_off_c, 0, 44, 61
1, 428495, Control_c, 0, 64, 70
1, 428503, Note_on_c, 0, 61, 103
1, 428505, Note_on_c, 0, 73, 94
1, 428517, Note_on_c, 0, 65, 83
1, 428517, Control_c, 0, 64, 79
1, 428518, Note_on_c, 0, 67, 81
1, 428532, Control_c, 0, 64, 79
1, 428546, Note_on_c, 0, 70, 43
1, 428547, Control_c, 0, 64, 71
1, 428562, Control_c, 0, 64, 32
1, 428571, Note_off_c, 0, 70, 57
1, 428577, Control_c, 0, 64, 0
1, 428583, Note_off_c, 0, 61, 62
1, 428588, Note_off_c, 0, 73, 62
1, 428593, Note_on_c, 0, 46, 101
1, 428595, Note_off_c, 0, 67, 56
1, 428598, Note_on_c, 0, 41, 57
1, 428599, Note_on_c, 0, 43, 81
1, 428607, Note_on_c, 0, 34, 80
1, 428622, Note_off_c, 0, 65, 59
1, 428640, Note_off_c, 0, 34, 67
1, 428640, Note_off_c, 0, 43, 61
1, 428651, Control_c, 0, 64, 57
1, 428665, Note_off_c, 0, 46, 61
1, 428665, Control_c, 0, 64, 71
1, 428680, Control_c, 0, 64, 76
1, 428681, Note_off_c, 0, 41, 57
1, 428682, Note_on_c, 0, 61, 104
1, 428685, Note_on_c, 0, 73, 96
1, 428688, Note_on_c, 0, 65, 84
1, 428689, Note_on_c, 0, 67, 91
1, 428695, Control_c, 0, 64, 72
1, 428710, Control_c, 0, 64, 0
1, 428737, Note_off_c, 0, 61, 64
1, 428747, Note_off_c, 0, 67, 57
1, 428753, Note_off_c, 0, 73, 62
1, 428768, Note_on_c, 0, 48, 109
1, 428774, Note_on_c, 0, 36, 93
1, 428777, Note_on_c, 0, 44, 85
1, 428785, Note_on_c, 0, 41, 71
1, 428791, Note_off_c, 0, 65, 57
1, 428813, Control_c, 0, 64, 66
1, 428828, Control_c, 0, 64, 75
1, 428840, Note_off_c, 0, 36, 61
1, 428843, Control_c, 0, 64, 78
1, 428853, Note_off_c, 0, 48, 60
1, 428858, Control_c, 0, 64, 76
1, 428864, Note_on_c, 0, 68, 96
1, 428866, Note_on_c, 0, 60, 97
1, 428866, Note_on_c, 0, 72, 94
1, 428870, Note_on_c, 0, 65, 86
1, 428871, Note_off_c, 0, 44, 61
1, 428873, Control_c, 0, 64, 69
1, 428876, Note_off_c, 0, 41, 34
1, 428888, Control_c, 0, 64, 21
1, 428898, Note_off_c, 0, 65, 64
1, 428902, Control_c, 0, 64, 0
1, 428921, Note_off_c, 0, 72, 61
1, 428925, Note_off_c, 0, 60, 55
1, 428926, Note_off_c, 0, 68, 55
1, 428940, Note_on_c, 0, 48, 100
1, 428941, Note_on_c, 0, 41, 79
1, 428946, Note_on_c, 0, 44, 73
1, 428957, Note_on_c, 0, 36, 62
1, 428972, Note_off_c, 0, 44, 65
1, 428973, Note_off_c, 0, 48, 67
1, 428985, Note_off_c, 0, 41, 65
1, 428988, Note_off_c, 0, 36, 65
1, 429021, Control_c, 0, 64, 52
1, 429031, Note_on_c, 0, 72, 92
1, 429032, Note_on_c, 0, 60, 93
1, 429034, Note_on_c, 0, 67, 88
1, 429036, Control_c, 0, 64, 74
1, 429037, Note_on_c, 0, 64, 83
1, 429050, Control_c, 0, 64, 78
1, 429065, Control_c, 0, 64, 74
1, 429080, Control_c, 0, 64, 40
1, 429089, Note_off_c, 0, 60, 58
1, 429094, Note_off_c, 0, 67, 53
1, 429095, Control_c, 0, 64, 0
1, 429107, Note_off_c, 0, 72, 59
1, 429112, Note_off_c, 0, 64, 45
1, 429115, Note_on_c, 0, 46, 100
1, 429120, Note_on_c, 0, 40, 85
1, 429123, Note_on_c, 0, 43, 78
1, 429131, Note_on_c, 0, 34, 71
1, 429150, Note_off_c, 0, 43, 63
1, 429170, Note_off_c, 0, 46, 61
1, 429171, Note_off_c, 0, 40, 64
1, 429183, Note_off_c, 0, 34, 63
1, 429184, Control_c, 0, 64, 75
1, 429198, Control_c, 0, 64, 89
1, 429209, Note_on_c, 0, 60, 85
1, 429210, Note_on_c, 0, 72, 90
1, 429210, Note_on_c, 0, 67, 82
1, 429213, Control_c, 0, 64, 100
1, 429216, Note_on_c, 0, 64, 79
1, 429228, Control_c, 0, 64, 100
1, 429229, Note_off_c, 0, 60, 71
1, 429239, Note_off_c, 0, 64, 70
1, 429242, Control_c, 0, 64, 100
1, 429248, Note_off_c, 0, 67, 62
1, 429257, Control_c, 0, 64, 96
1, 429275, Note_off_c, 0, 72, 64
1, 429280, Control_c, 0, 64, 87
1, 429296, Control_c, 0, 64, 67
1, 429311, Control_c, 0, 64, 0
1, 429312, Note_on_c, 0, 44, 102
1, 429317, Note_on_c, 0, 41, 87
1, 429319, Note_on_c, 0, 36, 87
1, 429323, Note_on_c, 0, 32, 84
1, 429382, Note_off_c, 0, 32, 64
1, 429385, Control_c, 0, 64, 67
1, 429397, Note_off_c, 0, 44, 63
1, 429400, Control_c, 0, 64, 80
1, 429400, Note_on_c, 0, 84, 100
1, 429402, Note_on_c, 0, 72, 104
1, 429409, Note_on_c, 0, 77, 80
1, 429414, Note_on_c, 0, 76, 78
1, 429415, Note_off_c, 0, 36, 62
1, 429415, Control_c, 0, 64, 93
1, 429418, Note_on_c, 0, 79, 74
1, 429421, Note_on_c, 0, 80, 48
1, 429422, Note_off_c, 0, 80, 127
1, 429429, Control_c, 0, 64, 99
1, 429432, Note_off_c, 0, 76, 71
1, 429434, Note_off_c, 0, 79, 65
1, 429441, Note_off_c, 0, 41, 39
1, 429442, Note_off_c, 0, 77, 58
1, 429444, Control_c, 0, 64, 100
1, 429457, Note_off_c, 0, 72, 59
1, 429459, Control_c, 0, 64, 101
1, 429472, Note_off_c, 0, 84, 63
1, 429473, Control_c, 0, 64, 100
1, 429488, Control_c, 0, 64, 93
1, 429493, Note_on_c, 0, 44, 100
1, 429502, Note_on_c, 0, 32, 87
1, 429503, Control_c, 0, 64, 77
1, 429518, Control_c, 0, 64, 24
1, 429520, Note_on_c, 0, 40, 51
1, 429523, Note_on_c, 0, 41, 52
1, 429533, Control_c, 0, 64, 0
1, 429549, Note_off_c, 0, 32, 63
1, 429549, Note_off_c, 0, 40, 56
1, 429554, Note_off_c, 0, 41, 58
1, 429567, Note_off_c, 0, 44, 59
1, 429582, Note_on_c, 0, 73, 106
1, 429582, Note_on_c, 0, 85, 103
1, 429583, Note_on_c, 0, 77, 90
1, 429587, Note_on_c, 0, 79, 88
1, 429592, Control_c, 0, 64, 67
1, 429606, Note_on_c, 0, 82, 57
1, 429607, Control_c, 0, 64, 83
1, 429621, Control_c, 0, 64, 100
1, 429624, Note_off_c, 0, 82, 62
1, 429625, Note_on_c, 0, 42, 51
1, 429636, Control_c, 0, 64, 104
1, 429651, Control_c, 0, 64, 101
1, 429654, Note_off_c, 0, 42, 59
1, 429655, Note_off_c, 0, 73, 61
1, 429663, Note_off_c, 0, 85, 62
1, 429666, Control_c, 0, 64, 85
1, 429672, Note_on_c, 0, 46, 107
1, 429680, Note_on_c, 0, 41, 78
1, 429680, Control_c, 0, 64, 65
1, 429683, Note_on_c, 0, 34, 87
1, 429683, Note_on_c, 0, 43, 83
1, 429689, Note_off_c, 0, 79, 55
1, 429692, Note_off_c, 0, 77, 51
1, 429695, Control_c, 0, 64, 0
1, 429728, Note_off_c, 0, 34, 63
1, 429748, Note_off_c, 0, 43, 58
1, 429752, Note_on_c, 0, 73, 105
1, 429754, Note_on_c, 0, 85, 102
1, 429755, Control_c, 0, 64, 67
1, 429757, Note_on_c, 0, 79, 87
1, 429758, Note_on_c, 0, 77, 85
1, 429760, Note_off_c, 0, 46, 61
1, 429764, Note_off_c, 0, 41, 58
1, 429770, Control_c, 0, 64, 85
1, 429785, Control_c, 0, 64, 108
1, 429800, Control_c, 0, 64, 116
1, 429814, Control_c, 0, 64, 110
1, 429817, Note_off_c, 0, 73, 61
1, 429824, Note_off_c, 0, 85, 66
1, 429829, Control_c, 0, 64, 97
1, 429832, Note_off_c, 0, 79, 56
1, 429844, Control_c, 0, 64, 77
1, 429852, Note_on_c, 0, 48, 107
1, 429859, Control_c, 0, 64, 0
1, 429859, Note_on_c, 0, 44, 90
1, 429862, Note_off_c, 0, 77, 55
1, 429869, Note_on_c, 0, 41, 67
1, 429871, Note_on_c, 0, 36, 74
1, 429876, Note_on_c, 0, 40, 68
1, 429885, Note_on_c, 0, 39, 44
1, 429914, Note_off_c, 0, 40, 55
1, 429918, Note_off_c, 0, 36, 56
1, 429919, Note_off_c, 0, 39, 34
1, 429923, Note_off_c, 0, 41, 58
1, 429931, Note_off_c, 0, 48, 58
1, 429933, Control_c, 0, 64, 64
1, 429947, Control_c, 0, 64, 77
1, 429948, Note_on_c, 0, 80, 96
1, 429948, Note_on_c, 0, 84, 99
1, 429949, Note_on_c, 0, 72, 101
1, 429951, Note_off_c, 0, 44, 60
1, 429953, Note_on_c, 0, 77, 96
1, 429962, Control_c, 0, 64, 89
1, 429977, Control_c, 0, 64, 96
1, 429992, Control_c, 0, 64, 97
1, 430021, Note_off_c, 0, 77, 57
1, 430025, Note_off_c, 0, 84, 59
1, 430029, Control_c, 0, 64, 90
1, 430031, Note_off_c, 0, 80, 55
1, 430035, Note_off_c, 0, 72, 64
1, 430042, Note_on_c, 0, 48, 101
1, 430044, Control_c, 0, 64, 73
1, 430049, Note_on_c, 0, 41, 81
1, 430049, Note_on_c, 0, 44, 88
1, 430059, Control_c, 0, 64, 0
1, 430075, Note_on_c, 0, 36, 45
1, 430080, Note_off_c, 0, 44, 66
1, 430095, Note_off_c, 0, 48, 61
1, 430100, Note_off_c, 0, 41, 59
1, 430114, Note_off_c, 0, 36, 47
1, 430139, Note_on_c, 0, 84, 100
1, 430140, Note_on_c, 0, 72, 101
1, 430142, Note_on_c, 0, 76, 92
1, 430142, Note_on_c, 0, 79, 93
1, 430148, Control_c, 0, 64, 78
1, 430163, Control_c, 0, 64, 100
1, 430165, Note_on_c, 0, 82, 57
1, 430178, Control_c, 0, 64, 112
1, 430185, Note_off_c, 0, 82, 62
1, 430193, Control_c, 0, 64, 111
1, 430208, Control_c, 0, 64, 110
1, 430227, Note_off_c, 0, 84, 59
1, 430230, Note_off_c, 0, 79, 57
1, 430232, Note_off_c, 0, 76, 59
1, 430234, Note_off_c, 0, 72, 58
1, 430235, Note_on_c, 0, 48, 100
1, 430239, Note_on_c, 0, 43, 94
1, 430241, Note_on_c, 0, 40, 91
1, 430243, Note_on_c, 0, 36, 84
1, 430252, Control_c, 0, 64, 111
1, 430267, Control_c, 0, 64, 115
1, 430268, Note_off_c, 0, 48, 67
1, 430275, Note_off_c, 0, 43, 62
1, 430282, Control_c, 0, 64, 127
1, 430291, Note_off_c, 0, 40, 65
1, 430304, Note_off_c, 0, 36, 64
1, 430332, Note_on_c, 0, 72, 95
1, 430332, Note_on_c, 0, 84, 93
1, 430334, Note_on_c, 0, 79, 84
1, 430338, Note_on_c, 0, 76, 80
1, 430347, Note_off_c, 0, 84, 75
1, 430354, Note_off_c, 0, 79, 69
1, 430357, Note_off_c, 0, 76, 74
1, 430370, Note_off_c, 0, 72, 67
1, 430518, Control_c, 0, 64, 104
1, 430533, Control_c, 0, 64, 71
1, 430547, Note_on_c, 0, 41, 107
1, 430548, Control_c, 0, 64, 0
1, 430549, Note_on_c, 0, 29, 96
1, 430564, Note_on_c, 0, 60, 84
1, 430660, Note_off_c, 0, 29, 63
1, 430666, Control_c, 0, 64, 66
1, 430680, Control_c, 0, 64, 93
1, 430691, Note_off_c, 0, 41, 65
1, 430695, Control_c, 0, 64, 127
1, 430706, Note_off_c, 0, 60, 59
1, 430731, Note_on_c, 0, 56, 57
1, 430789, Note_off_c, 0, 56, 59
1, 430813, Note_on_c, 0, 60, 49
1, 430894, Note_on_c, 0, 56, 52
1, 430938, Note_off_c, 0, 56, 59
1, 430950, Note_on_c, 0, 68, 80
1, 431043, Note_on_c, 0, 56, 57
1, 431060, Note_off_c, 0, 60, 0
1, 431076, Note_off_c, 0, 56, 62
1, 431077, Note_on_c, 0, 60, 27
1, 431155, Note_off_c, 0, 60, 62
1, 431159, Note_on_c, 0, 56, 63
1, 431169, Note_on_c, 0, 72, 68
1, 431208, Note_off_c, 0, 56, 59
1, 431216, Note_off_c, 0, 68, 63
1, 431218, Note_on_c, 0, 60, 57
1, 431239, Note_on_c, 0, 77, 74
1, 431249, Note_off_c, 0, 72, 63
1, 431287, Note_off_c, 0, 60, 61
1, 431305, Note_on_c, 0, 56, 64
1, 431343, Note_off_c, 0, 56, 62
1, 431356, Note_on_c, 0, 60, 59
1, 431417, Note_off_c, 0, 60, 61
1, 431429, Note_on_c, 0, 56, 64
1, 431480, Note_off_c, 0, 56, 57
1, 431488, Note_on_c, 0, 60, 59
1, 431535, Note_on_c, 0, 80, 79
1, 431557, Note_off_c, 0, 60, 62
1, 431574, Note_off_c, 0, 77, 61
1, 431579, Note_on_c, 0, 56, 60
1, 431619, Note_off_c, 0, 56, 60
1, 431633, Note_on_c, 0, 60, 59
1, 431704, Note_off_c, 0, 60, 60
1, 431731, Note_on_c, 0, 56, 53
1, 431752, Note_on_c, 0, 84, 78
1, 431765, Note_off_c, 0, 56, 62
1, 431784, Note_on_c, 0, 60, 58
1, 431833, Note_off_c, 0, 80, 62
1, 431844, Note_on_c, 0, 89, 83
1, 431858, Note_off_c, 0, 60, 57
1, 431863, Note_on_c, 0, 56, 62
1, 431907, Note_off_c, 0, 56, 60
1, 431910, Note_on_c, 0, 60, 48
1, 431942, Note_off_c, 0, 89, 66
1, 431964, Note_off_c, 0, 84, 64
1, 431979, Note_off_c, 0, 60, 62
1, 432003, Note_on_c, 0, 56, 54
1, 432035, Note_off_c, 0, 56, 59
1, 432048, Note_on_c, 0, 60, 52
1, 432109, Note_off_c, 0, 60, 61
1, 432135, Note_on_c, 0, 56, 54
1, 432152, Note_on_c, 0, 84, 75
1, 432161, Note_off_c, 0, 56, 60
1, 432178, Note_on_c, 0, 60, 52
1, 432234, Note_off_c, 0, 60, 60
1, 432251, Note_on_c, 0, 56, 58
1, 432296, Note_off_c, 0, 56, 60
1, 432320, Note_on_c, 0, 60, 42
1, 432354, Note_on_c, 0, 80, 64
1, 432372, Note_off_c, 0, 60, 51
1, 432393, Note_on_c, 0, 56, 52
1, 432421, Note_off_c, 0, 56, 59
1, 432435, Note_off_c, 0, 84, 59
1, 432445, Note_on_c, 0, 60, 46
1, 432453, Note_on_c, 0, 77, 68
1, 432494, Note_off_c, 0, 60, 61
1, 432523, Note_on_c, 0, 56, 47
1, 432530, Note_off_c, 0, 80, 62
1, 432552, Note_off_c, 0, 56, 56
1, 432593, Note_on_c, 0, 60, 51
1, 432593, Note_off_c, 0, 77, 62
1, 432626, Note_off_c, 0, 60, 60
1, 432652, Note_on_c, 0, 56, 50
1, 432694, Note_off_c, 0, 56, 59
1, 432719, Note_on_c, 0, 60, 56
1, 432760, Note_on_c, 0, 72, 62
1, 432768, Note_off_c, 0, 60, 57
1, 432799, Note_on_c, 0, 56, 48
1, 432837, Note_off_c, 0, 56, 54
1, 432876, Note_on_c, 0, 60, 48
1, 432906, Note_off_c, 0, 60, 60
1, 432936, Note_on_c, 0, 56, 48
1, 432970, Note_on_c, 0, 68, 59
1, 432971, Note_off_c, 0, 56, 60
1, 433000, Note_on_c, 0, 60, 45
1, 433019, Note_off_c, 0, 72, 56
1, 433047, Note_off_c, 0, 60, 49
1, 433068, Note_on_c, 0, 65, 69
1, 433085, Note_on_c, 0, 56, 46
1, 433089, Note_off_c, 0, 68, 63
1, 433111, Note_off_c, 0, 56, 55
1, 433112, Note_off_c, 0, 65, 63
1, 433137, Note_on_c, 0, 60, 55
1, 433188, Note_off_c, 0, 60, 50
1, 433207, Note_on_c, 0, 56, 56
1, 433243, Note_off_c, 0, 56, 64
1, 433278, Note_on_c, 0, 60, 29
1, 433313, Note_off_c, 0, 60, 31
1, 433396, Note_on_c, 0, 68, 56
1, 433399, Note_on_c, 0, 60, 66
1, 433424, Control_c, 0, 64, 124
1, 433439, Control_c, 0, 64, 116
1, 433450, Note_off_c, 0, 68, 62
1, 433454, Control_c, 0, 64, 114
1, 433468, Control_c, 0, 64, 113
1, 433481, Note_on_c, 0, 65, 47
1, 433483, Control_c, 0, 64, 112
1, 433498, Control_c, 0, 64, 105
1, 433512, Control_c, 0, 64, 98
1, 433515, Note_off_c, 0, 65, 59
1, 433527, Control_c, 0, 64, 96
1, 433549, Note_on_c, 0, 68, 44
1, 433577, Note_off_c, 0, 68, 55
1, 433588, Note_on_c, 0, 56, 57
1, 433603, Note_on_c, 0, 65, 50
1, 433641, Note_off_c, 0, 65, 63
1, 433646, Control_c, 0, 64, 95
1, 433654, Note_on_c, 0, 68, 65
1, 433657, Note_off_c, 0, 60, 52
1, 433660, Control_c, 0, 64, 94
1, 433675, Control_c, 0, 64, 92
1, 433690, Control_c, 0, 64, 92
1, 433700, Note_off_c, 0, 68, 62
1, 433707, Note_on_c, 0, 53, 64
1, 433720, Note_on_c, 0, 72, 56
1, 433770, Note_off_c, 0, 72, 61
1, 433773, Control_c, 0, 64, 92
1, 433787, Control_c, 0, 64, 94
1, 433792, Note_on_c, 0, 68, 56
1, 433802, Control_c, 0, 64, 95
1, 433806, Note_off_c, 0, 56, 36
1, 433817, Control_c, 0, 64, 96
1, 433821, Note_off_c, 0, 68, 60
1, 433832, Control_c, 0, 64, 97
1, 433846, Control_c, 0, 64, 98
1, 433849, Note_off_c, 0, 53, 66
1, 433856, Note_on_c, 0, 72, 47
1, 433876, Control_c, 0, 64, 98
1, 433888, Note_off_c, 0, 72, 55
1, 433907, Note_on_c, 0, 68, 58
1, 433935, Control_c, 0, 64, 99
1, 433952, Note_off_c, 0, 68, 57
1, 433997, Note_on_c, 0, 72, 47
1, 434023, Note_off_c, 0, 72, 56
1, 434040, Note_on_c, 0, 48, 54
1, 434042, Note_on_c, 0, 68, 50
1, 434075, Note_off_c, 0, 68, 53
1, 434116, Note_on_c, 0, 72, 49
1, 434141, Note_off_c, 0, 72, 58
1, 434175, Note_on_c, 0, 68, 46
1, 434200, Note_off_c, 0, 68, 58
1, 434239, Note_on_c, 0, 72, 53
1, 434264, Note_off_c, 0, 72, 60
1, 434289, Note_on_c, 0, 44, 52
1, 434292, Note_on_c, 0, 68, 53
1, 434328, Note_off_c, 0, 68, 56
1, 434344, Note_off_c, 0, 48, 55
1, 434365, Note_on_c, 0, 72, 51
1, 434390, Note_off_c, 0, 72, 59
1, 434391, Note_on_c, 0, 41, 61
1, 434426, Note_on_c, 0, 68, 46
1, 434452, Note_off_c, 0, 44, 49
1, 434456, Note_off_c, 0, 68, 53
1, 434490, Note_on_c, 0, 72, 54
1, 434523, Note_off_c, 0, 41, 65
1, 434524, Note_off_c, 0, 72, 59
1, 434561, Note_on_c, 0, 68, 47
1, 434590, Note_off_c, 0, 68, 54
1, 434625, Note_on_c, 0, 72, 53
1, 434652, Note_off_c, 0, 72, 58
1, 434687, Note_on_c, 0, 68, 48
1, 434724, Note_off_c, 0, 68, 50
1, 434764, Note_on_c, 0, 72, 49
1, 434769, Note_on_c, 0, 36, 51
1, 434802, Note_off_c, 0, 72, 49
1, 434840, Note_on_c, 0, 68, 39
1, 434866, Note_off_c, 0, 68, 55
1, 434895, Note_on_c, 0, 72, 41
1, 434936, Note_off_c, 0, 72, 47
1, 434963, Note_on_c, 0, 68, 51
1, 434992, Note_off_c, 0, 68, 53
1, 435026, Note_on_c, 0, 72, 45
1, 435031, Note_on_c, 0, 32, 49
1, 435066, Note_off_c, 0, 72, 49
1, 435067, Note_off_c, 0, 36, 34
1, 435085, Note_on_c, 0, 68, 51
1, 435118, Note_off_c, 0, 68, 57
1, 435138, Note_on_c, 0, 29, 53
1, 435159, Note_off_c, 0, 32, 36
1, 435160, Note_on_c, 0, 72, 44
1, 435213, Note_off_c, 0, 72, 59
1, 435227, Note_on_c, 0, 68, 51
1, 435271, Note_off_c, 0, 68, 56
1, 435296, Note_off_c, 0, 29, 60
1, 435309, Note_on_c, 0, 72, 46
1, 435356, Note_off_c, 0, 72, 51
1, 435381, Note_on_c, 0, 68, 48
1, 435415, Note_off_c, 0, 68, 51
1, 435439, Note_on_c, 0, 72, 36
1, 435489, Note_off_c, 0, 72, 44
1, 435506, Note_on_c, 0, 68, 43
1, 435544, Note_off_c, 0, 68, 51
1, 435567, Note_on_c, 0, 72, 45
1, 435574, Note_on_c, 0, 29, 53
1, 435620, Note_off_c, 0, 72, 59
1, 435656, Note_on_c, 0, 68, 40
1, 435682, Note_off_c, 0, 68, 57
1, 435718, Note_on_c, 0, 72, 43
1, 435757, Note_off_c, 0, 29, 41
1, 435759, Note_off_c, 0, 72, 46
1, 435781, Note_on_c, 0, 68, 48
1, 435818, Note_off_c, 0, 68, 50
1, 435856, Note_on_c, 0, 72, 40
1, 435899, Note_off_c, 0, 72, 45
1, 435938, Note_on_c, 0, 68, 43
1, 435969, Note_off_c, 0, 68, 53
1, 436022, Note_on_c, 0, 29, 51
1, 436033, Note_on_c, 0, 72, 43
1, 436090, Note_off_c, 0, 72, 40
1, 436109, Note_on_c, 0, 68, 25
1, 436158, Note_off_c, 0, 68, 47
1, 436176, Note_on_c, 0, 72, 31
1, 436290, Note_on_c, 0, 68, 20
1, 436300, Note_off_c, 0, 72, 0
1, 436318, Note_on_c, 0, 72, 14
1, 436332, Note_off_c, 0, 68, 49
1, 436414, Note_on_c, 0, 68, 36
1, 436438, Note_off_c, 0, 29, 33
1, 436453, Note_off_c, 0, 72, 0
1, 436465, Note_off_c, 0, 68, 50
1, 436474, Note_on_c, 0, 72, 11
1, 436588, Note_on_c, 0, 68, 39
1, 436618, Note_off_c, 0, 72, 0
1, 436626, Note_off_c, 0, 68, 49
1, 436638, Note_on_c, 0, 72, 13
1, 436729, Note_off_c, 0, 72, 37
1, 436744, Note_on_c, 0, 68, 32
1, 436781, Note_off_c, 0, 68, 52
1, 436796, Note_on_c, 0, 72, 24
1, 436869, Note_off_c, 0, 72, 40
1, 436889, Note_on_c, 0, 68, 42
1, 436926, Note_off_c, 0, 68, 50
1, 436946, Note_on_c, 0, 29, 41
1, 436957, Note_on_c, 0, 72, 37
1, 437017, Note_off_c, 0, 72, 45
1, 437042, Note_on_c, 0, 68, 48
1, 437084, Note_off_c, 0, 68, 53
1, 437126, Note_on_c, 0, 72, 38
1, 437191, Note_off_c, 0, 72, 39
1, 437225, Note_on_c, 0, 68, 32
1, 437262, Note_off_c, 0, 68, 49
1, 437279, Note_on_c, 0, 72, 32
1, 437365, Note_off_c, 0, 72, 54
1, 437407, Note_on_c, 0, 68, 32
1, 437452, Note_off_c, 0, 68, 47
1, 437478, Note_on_c, 0, 72, 27
1, 437520, Note_off_c, 0, 29, 7
1, 437606, Note_on_c, 0, 68, 32
1, 437612, Note_off_c, 0, 72, 32
1, 437704, Note_on_c, 0, 72, 29
1, 437737, Note_off_c, 0, 68, 37
1, 437865, Note_on_c, 0, 68, 33
1, 437890, Note_off_c, 0, 72, 30
1, 438075, Note_off_c, 0, 68, 37
1, 438081, Note_on_c, 0, 72, 27
1, 438450, Note_on_c, 0, 68, 20
1, 438549, Note_off_c, 0, 72, 33
1, 438576, Note_off_c, 0, 68, 43
1, 439169, Note_on_c, 0, 72, 31
1, 439172, Note_on_c, 0, 68, 23
1, 439176, Note_on_c, 0, 29, 27
1, 443189, Control_c, 0, 64, 98
1, 443292, Control_c, 0, 64, 98
1, 443366, Control_c, 0, 64, 97
1, 443440, Control_c, 0, 64, 97
1, 443507, Control_c, 0, 64, 96
1, 443567, Control_c, 0, 64, 96
1, 443625, Control_c, 0, 64, 95
1, 443671, Control_c, 0, 64, 95
1, 443730, Control_c, 0, 64, 94
1, 443775, Control_c, 0, 64, 94
1, 443804, Control_c, 0, 64, 93
1, 443819, Control_c, 0, 64, 93
1, 443843, Note_off_c, 0, 29, 29
1, 443849, Control_c, 0, 64, 92
1, 443874, Note_off_c, 0, 68, 34
1, 443879, Control_c, 0, 64, 92
1, 443908, Control_c, 0, 64, 91
1, 443923, Control_c, 0, 64, 91
1, 443953, Control_c, 0, 64, 90
1, 443983, Control_c, 0, 64, 90
1, 444012, Control_c, 0, 64, 89
1, 444056, Control_c, 0, 64, 89
1, 444101, Control_c, 0, 64, 88
1, 444145, Control_c, 0, 64, 88
1, 444189, Control_c, 0, 64, 87
1, 444256, Control_c, 0, 64, 87
1, 444316, Control_c, 0, 64, 86
1, 444345, Control_c, 0, 64, 86
1, 444389, Control_c, 0, 64, 85
1, 444404, Control_c, 0, 64, 85
1, 444434, Control_c, 0, 64, 84
1, 444463, Control_c, 0, 64, 84
1, 444494, Control_c, 0, 64, 83
1, 444538, Control_c, 0, 64, 83
1, 444568, Control_c, 0, 64, 82
1, 444598, Control_c, 0, 64, 82
1, 444613, Control_c, 0, 64, 81
1, 444642, Control_c, 0, 64, 81
1, 444663, Note_off_c, 0, 72, 14
1, 444671, Control_c, 0, 64, 80
1, 444701, Control_c, 0, 64, 80
1, 444731, Control_c, 0, 64, 79
1, 444761, Control_c, 0, 64, 79
1, 444790, Control_c, 0, 64, 78
1, 444820, Control_c, 0, 64, 78
1, 444835, Control_c, 0, 64, 77
1, 444865, Control_c, 0, 64, 77
1, 444879, Control_c, 0, 64, 76
1, 444894, Control_c, 0, 64, 76
1, 444909, Control_c, 0, 64, 75
1, 444924, Control_c, 0, 64, 75
1, 444938, Control_c, 0, 64, 74
1, 444953, Control_c, 0, 64, 74
1, 444968, Control_c, 0, 64, 73
1, 444983, Control_c, 0, 64, 73
1, 445005, Control_c, 0, 64, 72
1, 445020, Control_c, 0, 64, 72
1, 445035, Control_c, 0, 64, 71
1, 445050, Control_c, 0, 64, 71
1, 445065, Control_c, 0, 64, 70
1, 445079, Control_c, 0, 64, 70
1, 445109, Control_c, 0, 64, 69
1, 445124, Control_c, 0, 64, 69
1, 445139, Control_c, 0, 64, 68
1, 445168, Control_c, 0, 64, 68
1, 445197, Control_c, 0, 64, 67
1, 445242, Control_c, 0, 64, 67
1, 445288, Control_c, 0, 64, 66
1, 445317, Control_c, 0, 64, 66
1, 445391, Control_c, 0, 64, 65
1, 445450, Control_c, 0, 64, 65
1, 445524, Control_c, 0, 64, 64
1, 445554, Control_c, 0, 64, 64
1, 445613, Control_c, 0, 64, 63
1, 445688, Control_c, 0, 64, 63
1, 445732, Control_c, 0, 64, 62
1, 445798, Control_c, 0, 64, 62
1, 445828, Control_c, 0, 64, 61
1, 445858, Control_c, 0, 64, 61
1, 445873, Control_c, 0, 64, 60
1, 445888, Control_c, 0, 64, 60
1, 445902, Control_c, 0, 64, 59
1, 445917, Control_c, 0, 64, 59
1, 445932, Control_c, 0, 64, 58
1, 445947, Control_c, 0, 64, 57
1, 445976, Control_c, 0, 64, 57
1, 445991, Control_c, 0, 64, 56
1, 446006, Control_c, 0, 64, 55
1, 446020, Control_c, 0, 64, 54
1, 446035, Control_c, 0, 64, 53
1, 446050, Control_c, 0, 64, 52
1, 446065, Control_c, 0, 64, 51
1, 446080, Control_c, 0, 64, 49
1, 446095, Control_c, 0, 64, 48
1, 446110, Control_c, 0, 64, 48
1, 446124, Control_c, 0, 64, 47
1, 446139, Control_c, 0, 64, 47
1, 446154, Control_c, 0, 64, 46
1, 446169, Control_c, 0, 64, 45
1, 446184, Control_c, 0, 64, 43
1, 446198, Control_c, 0, 64, 42
1, 446213, Control_c, 0, 64, 41
1, 446228, Control_c, 0, 64, 40
1, 446242, Control_c, 0, 64, 40
1, 446257, Control_c, 0, 64, 39
1, 446272, Control_c, 0, 64, 38
1, 446287, Control_c, 0, 64, 36
1, 446302, Control_c, 0, 64, 34
1, 446317, Control_c, 0, 64, 33
1, 446347, Control_c, 0, 64, 32
1, 446362, Control_c, 0, 64, 31
1, 446377, Control_c, 0, 64, 28
1, 446391, Control_c, 0, 64, 26
1, 446406, Control_c, 0, 64, 25
1, 446421, Control_c, 0, 64, 22
1, 446435, Control_c, 0, 64, 19
1, 446450, Control_c, 0, 64, 13
1, 446465, Control_c, 0, 64, 0
1, 446465, End_track
0, 0, End_of_file
