0, 0, Header, 0, 1, 384
1, 0, Start_track
1, 0, Title_t, "Sonata in F--Bogdan-C. Dulu     "
1, 0, Text_t, "2006 International Piano-e-Competition Recital Round"
1, 0, Text_t, "St. Paul, Minnesota, July 2006"
1, 0, Text_t, "http://www.piano-e-competition.com/"
1, 0, Instrument_name_t, "Yamaha Disklavier Pro Mark IV concert grand piano"
1, 0, Sequencer_specific, 39, 67, 113, 0, 1, 0, 1, 0, 83, 111, 110, 97, 116, 97, 32, 105, 110, 32, 70, 32, 75, 51, 51, 50, 66, 46, 45, 67, 46, 32, 68, 117, 108, 117, 32, 32, 32, 32, 32, 32
1, 0, Sequencer_specific, 6, 67, 113, 0, 0, 0, 69
1, 0, System_exclusive, 21, 67, 113, 126, 21, 0, 2, 2, 0, 10, 10, 12, 4, 4, 10, 13, 5, 11, 8, 6, 3, 247
1, 0, Sequencer_specific, 5, 67, 123, 12, 2, 1
1, 0, Tempo, 512820
1, 0, Time_signature, 4, 2, 24, 8
1, 0, System_exclusive, 5, 126, 127, 9, 1, 247
1, 1, System_exclusive, 8, 67, 16, 76, 0, 0, 126, 0, 247
1, 2, System_exclusive, 8, 67, 16, 76, 8, 9, 7, 1, 247
1, 3, Control_c, 0, 0, 0
1, 4, Control_c, 0, 32, 0
1, 5, Program_c, 0, 0
1, 6, Control_c, 0, 7, 100
1, 907, Note_on_c, 0, 65, 59
1, 923, Note_on_c, 0, 53, 21
1, 1041, Control_c, 0, 64, 37
1, 1056, Control_c, 0, 64, 47
1, 1071, Control_c, 0, 64, 54
1, 1086, Control_c, 0, 64, 58
1, 1100, Control_c, 0, 64, 60
1, 1115, Control_c, 0, 64, 62
1, 1130, Control_c, 0, 64, 63
1, 1141, Note_on_c, 0, 57, 29
1, 1145, Control_c, 0, 64, 65
1, 1160, Control_c, 0, 64, 68
1, 1174, Control_c, 0, 64, 71
1, 1189, Control_c, 0, 64, 77
1, 1204, Control_c, 0, 64, 82
1, 1219, Control_c, 0, 64, 88
1, 1234, Control_c, 0, 64, 94
1, 1248, Control_c, 0, 64, 99
1, 1263, Control_c, 0, 64, 102
1, 1278, Control_c, 0, 64, 104
1, 1282, Note_on_c, 0, 60, 40
1, 1288, Note_off_c, 0, 57, 43
1, 1337, Control_c, 0, 64, 106
1, 1374, Note_off_c, 0, 60, 48
1, 1406, Note_on_c, 0, 57, 44
1, 1451, Note_off_c, 0, 53, 39
1, 1485, Control_c, 0, 64, 102
1, 1500, Control_c, 0, 64, 99
1, 1522, Control_c, 0, 64, 96
1, 1536, Note_on_c, 0, 69, 67
1, 1537, Control_c, 0, 64, 94
1, 1551, Note_on_c, 0, 60, 39
1, 1552, Control_c, 0, 64, 94
1, 1560, Note_off_c, 0, 57, 45
1, 1567, Control_c, 0, 64, 93
1, 1627, Control_c, 0, 64, 94
1, 1642, Control_c, 0, 64, 94
1, 1648, Note_off_c, 0, 65, 34
1, 1657, Control_c, 0, 64, 95
1, 1671, Control_c, 0, 64, 96
1, 1673, Note_on_c, 0, 57, 52
1, 1696, Note_off_c, 0, 60, 36
1, 1752, Note_off_c, 0, 69, 60
1, 1752, Note_off_c, 0, 57, 57
1, 1790, Control_c, 0, 64, 93
1, 1804, Control_c, 0, 64, 90
1, 1819, Control_c, 0, 64, 86
1, 1834, Control_c, 0, 64, 81
1, 1846, Note_on_c, 0, 72, 69
1, 1849, Note_on_c, 0, 53, 47
1, 1849, Control_c, 0, 64, 77
1, 1864, Control_c, 0, 64, 73
1, 1879, Control_c, 0, 64, 68
1, 1894, Control_c, 0, 64, 64
1, 1909, Control_c, 0, 64, 58
1, 1923, Control_c, 0, 64, 48
1, 1938, Control_c, 0, 64, 33
1, 1953, Control_c, 0, 64, 0
1, 2014, Note_on_c, 0, 60, 42
1, 2086, Control_c, 0, 64, 39
1, 2101, Control_c, 0, 64, 50
1, 2115, Control_c, 0, 64, 58
1, 2125, Note_off_c, 0, 60, 61
1, 2130, Control_c, 0, 64, 61
1, 2140, Note_on_c, 0, 63, 47
1, 2145, Control_c, 0, 64, 63
1, 2160, Control_c, 0, 64, 65
1, 2175, Control_c, 0, 64, 67
1, 2189, Control_c, 0, 64, 70
1, 2204, Control_c, 0, 64, 73
1, 2219, Control_c, 0, 64, 76
1, 2234, Control_c, 0, 64, 79
1, 2248, Control_c, 0, 64, 81
1, 2269, Note_off_c, 0, 53, 25
1, 2270, Note_on_c, 0, 60, 56
1, 2271, Control_c, 0, 64, 83
1, 2272, Note_off_c, 0, 63, 37
1, 2292, Note_off_c, 0, 72, 50
1, 2375, Control_c, 0, 64, 80
1, 2377, Note_off_c, 0, 60, 55
1, 2387, Note_on_c, 0, 69, 71
1, 2389, Note_on_c, 0, 63, 48
1, 2390, Control_c, 0, 64, 74
1, 2406, Control_c, 0, 64, 67
1, 2420, Control_c, 0, 64, 61
1, 2435, Control_c, 0, 64, 55
1, 2450, Control_c, 0, 64, 51
1, 2465, Control_c, 0, 64, 50
1, 2479, Control_c, 0, 64, 50
1, 2494, Control_c, 0, 64, 52
1, 2509, Note_off_c, 0, 63, 54
1, 2509, Control_c, 0, 64, 55
1, 2517, Note_on_c, 0, 60, 55
1, 2524, Control_c, 0, 64, 59
1, 2539, Control_c, 0, 64, 63
1, 2553, Control_c, 0, 64, 67
1, 2568, Control_c, 0, 64, 71
1, 2580, Note_off_c, 0, 69, 58
1, 2583, Control_c, 0, 64, 75
1, 2598, Control_c, 0, 64, 77
1, 2608, Note_off_c, 0, 60, 54
1, 2613, Control_c, 0, 64, 78
1, 2672, Control_c, 0, 64, 78
1, 2679, Note_on_c, 0, 70, 75
1, 2687, Control_c, 0, 64, 75
1, 2691, Note_on_c, 0, 53, 44
1, 2702, Control_c, 0, 64, 71
1, 2716, Control_c, 0, 64, 66
1, 2731, Control_c, 0, 64, 59
1, 2746, Control_c, 0, 64, 46
1, 2761, Control_c, 0, 64, 0
1, 2818, Note_on_c, 0, 58, 50
1, 2894, Control_c, 0, 64, 34
1, 2909, Control_c, 0, 64, 41
1, 2924, Control_c, 0, 64, 49
1, 2938, Control_c, 0, 64, 56
1, 2946, Note_off_c, 0, 58, 59
1, 2953, Note_on_c, 0, 62, 49
1, 2953, Control_c, 0, 64, 60
1, 2968, Control_c, 0, 64, 63
1, 2983, Control_c, 0, 64, 66
1, 2998, Control_c, 0, 64, 69
1, 3020, Control_c, 0, 64, 74
1, 3035, Control_c, 0, 64, 79
1, 3050, Control_c, 0, 64, 84
1, 3063, Note_off_c, 0, 62, 55
1, 3065, Control_c, 0, 64, 88
1, 3077, Note_on_c, 0, 58, 59
1, 3079, Control_c, 0, 64, 91
1, 3094, Control_c, 0, 64, 92
1, 3139, Control_c, 0, 64, 91
1, 3140, Note_off_c, 0, 70, 54
1, 3153, Control_c, 0, 64, 88
1, 3168, Control_c, 0, 64, 80
1, 3183, Control_c, 0, 64, 70
1, 3199, Control_c, 0, 64, 63
1, 3214, Control_c, 0, 64, 58
1, 3215, Note_off_c, 0, 58, 57
1, 3220, Note_on_c, 0, 79, 81
1, 3227, Note_on_c, 0, 62, 44
1, 3229, Control_c, 0, 64, 56
1, 3235, Note_off_c, 0, 53, 28
1, 3243, Control_c, 0, 64, 56
1, 3258, Control_c, 0, 64, 58
1, 3273, Control_c, 0, 64, 61
1, 3287, Control_c, 0, 64, 65
1, 3302, Control_c, 0, 64, 69
1, 3317, Control_c, 0, 64, 74
1, 3332, Control_c, 0, 64, 79
1, 3347, Control_c, 0, 64, 83
1, 3351, Note_on_c, 0, 58, 57
1, 3354, Note_off_c, 0, 79, 63
1, 3362, Control_c, 0, 64, 87
1, 3376, Control_c, 0, 64, 90
1, 3388, Note_off_c, 0, 62, 33
1, 3391, Control_c, 0, 64, 91
1, 3436, Control_c, 0, 64, 90
1, 3450, Control_c, 0, 64, 90
1, 3465, Control_c, 0, 64, 87
1, 3480, Control_c, 0, 64, 80
1, 3494, Control_c, 0, 64, 70
1, 3509, Control_c, 0, 64, 62
1, 3512, Note_on_c, 0, 53, 44
1, 3518, Note_on_c, 0, 77, 60
1, 3524, Control_c, 0, 64, 53
1, 3533, Note_off_c, 0, 58, 37
1, 3539, Control_c, 0, 64, 46
1, 3554, Control_c, 0, 64, 42
1, 3569, Control_c, 0, 64, 41
1, 3584, Control_c, 0, 64, 39
1, 3599, Control_c, 0, 64, 37
1, 3614, Control_c, 0, 64, 34
1, 3629, Control_c, 0, 64, 30
1, 3637, Note_on_c, 0, 76, 63
1, 3643, Control_c, 0, 64, 0
1, 3646, Note_off_c, 0, 77, 59
1, 3649, Note_on_c, 0, 55, 43
1, 3686, Note_off_c, 0, 76, 63
1, 3729, Note_off_c, 0, 53, 36
1, 3778, Note_on_c, 0, 76, 59
1, 3784, Note_off_c, 0, 55, 59
1, 3799, Note_on_c, 0, 58, 46
1, 3923, Note_on_c, 0, 55, 43
1, 3923, Note_off_c, 0, 58, 56
1, 4011, Note_off_c, 0, 76, 60
1, 4048, Note_off_c, 0, 55, 58
1, 4064, Note_on_c, 0, 58, 51
1, 4186, Note_on_c, 0, 55, 49
1, 4186, Note_off_c, 0, 58, 52
1, 4370, Note_on_c, 0, 77, 57
1, 4373, Note_off_c, 0, 55, 41
1, 4395, Note_on_c, 0, 57, 30
1, 4397, Note_on_c, 0, 53, 32
1, 4701, Note_on_c, 0, 69, 54
1, 4782, Note_off_c, 0, 77, 39
1, 4806, Note_off_c, 0, 53, 42
1, 4809, Note_off_c, 0, 57, 52
1, 4990, Note_on_c, 0, 74, 67
1, 5100, Note_off_c, 0, 69, 41
1, 5250, Note_on_c, 0, 67, 61
1, 5299, Note_off_c, 0, 74, 59
1, 5578, Note_on_c, 0, 72, 55
1, 5644, Note_off_c, 0, 67, 37
1, 6003, Note_on_c, 0, 69, 46
1, 6085, Note_off_c, 0, 72, 32
1, 6156, Note_on_c, 0, 65, 52
1, 6170, Note_on_c, 0, 53, 37
1, 6226, Note_off_c, 0, 69, 35
1, 6440, Note_on_c, 0, 45, 48
1, 6452, Note_off_c, 0, 53, 41
1, 6713, Note_on_c, 0, 50, 56
1, 6799, Note_off_c, 0, 45, 58
1, 7004, Note_on_c, 0, 67, 60
1, 7007, Note_on_c, 0, 43, 46
1, 7018, Note_off_c, 0, 65, 55
1, 7055, Note_off_c, 0, 50, 51
1, 7176, Note_on_c, 0, 64, 55
1, 7187, Note_off_c, 0, 67, 0
1, 7209, Note_off_c, 0, 64, 66
1, 7224, Note_on_c, 0, 65, 62
1, 7224, Poly_aftertouch_c, 0, 67, 127
1, 7283, Note_on_c, 0, 64, 58
1, 7296, Note_on_c, 0, 48, 48
1, 7307, Note_off_c, 0, 65, 61
1, 7325, Note_off_c, 0, 43, 31
1, 7430, Note_off_c, 0, 64, 59
1, 7435, Note_on_c, 0, 62, 56
1, 7584, Note_on_c, 0, 64, 56
1, 7609, Note_off_c, 0, 62, 54
1, 7646, Control_c, 0, 64, 46
1, 7653, Poly_aftertouch_c, 0, 67, 0
1, 7660, Control_c, 0, 64, 59
1, 7675, Control_c, 0, 64, 65
1, 7686, Note_off_c, 0, 64, 62
1, 7690, Control_c, 0, 64, 68
1, 7705, Control_c, 0, 64, 71
1, 7720, Control_c, 0, 64, 72
1, 7724, Note_on_c, 0, 45, 49
1, 7749, Note_off_c, 0, 48, 33
1, 7779, Control_c, 0, 64, 72
1, 7793, Control_c, 0, 64, 70
1, 7808, Control_c, 0, 64, 69
1, 7823, Control_c, 0, 64, 66
1, 7838, Control_c, 0, 64, 64
1, 7853, Control_c, 0, 64, 61
1, 7860, Note_on_c, 0, 69, 62
1, 7862, Note_off_c, 0, 45, 57
1, 7867, Control_c, 0, 64, 56
1, 7878, Note_on_c, 0, 41, 39
1, 7882, Control_c, 0, 64, 52
1, 7885, Note_on_c, 0, 65, 42
1, 7897, Control_c, 0, 64, 48
1, 7912, Control_c, 0, 64, 46
1, 7927, Control_c, 0, 64, 45
1, 7942, Control_c, 0, 64, 43
1, 7957, Control_c, 0, 64, 40
1, 7972, Control_c, 0, 64, 36
1, 7987, Control_c, 0, 64, 30
1, 8002, Control_c, 0, 64, 0
1, 8142, Note_on_c, 0, 50, 49
1, 8143, Note_on_c, 0, 70, 74
1, 8182, Note_off_c, 0, 69, 61
1, 8190, Note_off_c, 0, 41, 38
1, 8416, Note_on_c, 0, 46, 51
1, 8417, Note_on_c, 0, 74, 81
1, 8428, Note_off_c, 0, 50, 46
1, 8442, Note_off_c, 0, 70, 63
1, 8484, Control_c, 0, 64, 41
1, 8499, Control_c, 0, 64, 56
1, 8514, Control_c, 0, 64, 63
1, 8523, Note_off_c, 0, 65, 53
1, 8529, Control_c, 0, 64, 68
1, 8544, Control_c, 0, 64, 74
1, 8552, Note_off_c, 0, 74, 61
1, 8558, Control_c, 0, 64, 80
1, 8573, Control_c, 0, 64, 89
1, 8588, Control_c, 0, 64, 96
1, 8603, Control_c, 0, 64, 101
1, 8677, Control_c, 0, 64, 99
1, 8691, Control_c, 0, 64, 95
1, 8706, Control_c, 0, 64, 90
1, 8721, Control_c, 0, 64, 84
1, 8735, Control_c, 0, 64, 78
1, 8743, Note_on_c, 0, 74, 71
1, 8750, Note_on_c, 0, 45, 44
1, 8750, Control_c, 0, 64, 70
1, 8765, Control_c, 0, 64, 64
1, 8771, Note_off_c, 0, 46, 43
1, 8781, Control_c, 0, 64, 58
1, 8796, Control_c, 0, 64, 51
1, 8811, Control_c, 0, 64, 44
1, 8825, Control_c, 0, 64, 38
1, 8840, Control_c, 0, 64, 31
1, 8855, Control_c, 0, 64, 0
1, 8900, Note_on_c, 0, 72, 62
1, 8955, Note_off_c, 0, 74, 58
1, 9034, Note_on_c, 0, 70, 69
1, 9052, Note_off_c, 0, 45, 38
1, 9074, Note_off_c, 0, 72, 60
1, 9153, Note_on_c, 0, 69, 72
1, 9164, Note_off_c, 0, 70, 58
1, 9289, Note_on_c, 0, 67, 69
1, 9290, Note_on_c, 0, 50, 55
1, 9300, Note_off_c, 0, 69, 62
1, 9340, Note_off_c, 0, 50, 56
1, 9350, Note_off_c, 0, 67, 62
1, 9415, Note_on_c, 0, 65, 68
1, 9451, Note_off_c, 0, 65, 60
1, 9561, Note_on_c, 0, 46, 48
1, 9569, Note_on_c, 0, 67, 55
1, 9807, Note_off_c, 0, 46, 52
1, 9835, Note_off_c, 0, 67, 61
1, 9851, Note_on_c, 0, 70, 56
1, 9922, Note_off_c, 0, 70, 63
1, 10129, Note_on_c, 0, 48, 41
1, 10130, Note_on_c, 0, 64, 45
1, 10140, Note_on_c, 0, 58, 37
1, 10189, Note_off_c, 0, 48, 56
1, 10191, Note_off_c, 0, 64, 58
1, 10279, Note_off_c, 0, 58, 27
1, 10481, Note_on_c, 0, 65, 41
1, 10483, Note_on_c, 0, 41, 32
1, 10510, Note_on_c, 0, 57, 24
1, 10567, Control_c, 0, 64, 50
1, 10582, Control_c, 0, 64, 61
1, 10597, Control_c, 0, 64, 66
1, 10611, Control_c, 0, 64, 73
1, 10626, Control_c, 0, 64, 84
1, 10638, Note_off_c, 0, 57, 36
1, 10641, Note_off_c, 0, 41, 50
1, 10641, Control_c, 0, 64, 105
1, 10656, Control_c, 0, 64, 127
1, 10715, Note_off_c, 0, 65, 37
1, 10878, Control_c, 0, 64, 107
1, 10893, Control_c, 0, 64, 83
1, 10908, Control_c, 0, 64, 68
1, 10923, Control_c, 0, 64, 56
1, 10937, Control_c, 0, 64, 36
1, 10952, Control_c, 0, 64, 0
1, 11122, Note_on_c, 0, 84, 74
1, 11137, Note_on_c, 0, 72, 41
1, 11140, Note_on_c, 0, 69, 40
1, 11278, Note_off_c, 0, 69, 32
1, 11301, Note_off_c, 0, 72, 32
1, 11329, Note_on_c, 0, 70, 43
1, 11336, Note_on_c, 0, 82, 69
1, 11349, Note_off_c, 0, 84, 55
1, 11351, Note_on_c, 0, 67, 45
1, 11374, Note_off_c, 0, 70, 61
1, 11394, Note_on_c, 0, 69, 59
1, 11404, Note_on_c, 0, 81, 74
1, 11409, Note_off_c, 0, 67, 59
1, 11418, Note_off_c, 0, 82, 62
1, 11422, Note_on_c, 0, 65, 46
1, 11430, Note_off_c, 0, 69, 63
1, 11441, Note_off_c, 0, 81, 65
1, 11451, Note_off_c, 0, 65, 60
1, 11703, Note_on_c, 0, 65, 47
1, 11704, Note_on_c, 0, 69, 47
1, 11704, Note_on_c, 0, 81, 78
1, 11728, Note_off_c, 0, 69, 60
1, 11739, Note_off_c, 0, 65, 63
1, 11751, Note_off_c, 0, 81, 63
1, 12013, Note_on_c, 0, 81, 76
1, 12026, Note_on_c, 0, 65, 47
1, 12038, Note_on_c, 0, 69, 38
1, 12085, Note_off_c, 0, 69, 59
1, 12199, Note_off_c, 0, 65, 41
1, 12224, Note_on_c, 0, 79, 61
1, 12229, Note_on_c, 0, 60, 36
1, 12244, Note_off_c, 0, 81, 54
1, 12252, Note_on_c, 0, 67, 21
1, 12276, Note_off_c, 0, 60, 56
1, 12294, Note_on_c, 0, 77, 63
1, 12300, Note_on_c, 0, 57, 45
1, 12300, Note_off_c, 0, 67, 49
1, 12307, Note_on_c, 0, 65, 52
1, 12308, Note_off_c, 0, 79, 63
1, 12330, Note_off_c, 0, 77, 65
1, 12345, Note_off_c, 0, 57, 63
1, 12347, Note_off_c, 0, 65, 64
1, 12588, Note_on_c, 0, 77, 59
1, 12595, Note_on_c, 0, 65, 54
1, 12601, Note_on_c, 0, 57, 44
1, 12625, Note_off_c, 0, 77, 63
1, 12634, Note_off_c, 0, 65, 66
1, 12639, Note_off_c, 0, 57, 64
1, 12881, Note_on_c, 0, 77, 57
1, 12896, Note_on_c, 0, 65, 41
1, 12902, Note_on_c, 0, 57, 39
1, 13135, Note_off_c, 0, 57, 41
1, 13154, Note_off_c, 0, 65, 38
1, 13163, Note_off_c, 0, 77, 57
1, 13176, Note_on_c, 0, 79, 63
1, 13183, Note_on_c, 0, 60, 42
1, 13184, Note_on_c, 0, 76, 54
1, 13191, Note_on_c, 0, 67, 39
1, 13213, Note_off_c, 0, 79, 64
1, 13221, Note_off_c, 0, 76, 64
1, 13221, Note_off_c, 0, 60, 66
1, 13224, Note_off_c, 0, 67, 60
1, 13468, Note_on_c, 0, 79, 72
1, 13472, Note_on_c, 0, 60, 46
1, 13477, Note_on_c, 0, 76, 64
1, 13477, Note_on_c, 0, 67, 47
1, 13519, Note_off_c, 0, 79, 63
1, 13522, Note_off_c, 0, 76, 62
1, 13525, Note_off_c, 0, 60, 62
1, 13534, Note_off_c, 0, 67, 58
1, 13761, Note_on_c, 0, 79, 79
1, 13764, Note_on_c, 0, 60, 57
1, 13770, Note_on_c, 0, 76, 64
1, 13775, Note_on_c, 0, 67, 51
1, 13799, Note_off_c, 0, 60, 66
1, 13806, Note_off_c, 0, 76, 63
1, 13811, Note_off_c, 0, 79, 64
1, 13814, Note_off_c, 0, 67, 63
1, 14047, Note_on_c, 0, 79, 76
1, 14059, Note_on_c, 0, 76, 59
1, 14064, Note_on_c, 0, 60, 47
1, 14083, Note_on_c, 0, 67, 30
1, 14293, Note_off_c, 0, 60, 51
1, 14315, Note_off_c, 0, 76, 51
1, 14341, Note_off_c, 0, 67, 50
1, 14356, Note_off_c, 0, 79, 63
1, 14357, Note_on_c, 0, 81, 62
1, 14362, Note_on_c, 0, 77, 51
1, 14363, Note_on_c, 0, 65, 42
1, 14382, Note_on_c, 0, 69, 32
1, 14402, Note_off_c, 0, 65, 62
1, 14408, Note_off_c, 0, 77, 60
1, 14427, Note_off_c, 0, 69, 58
1, 14442, Note_off_c, 0, 81, 59
1, 14679, Note_on_c, 0, 84, 67
1, 14685, Note_on_c, 0, 69, 41
1, 14692, Note_on_c, 0, 72, 41
1, 14732, Note_off_c, 0, 84, 60
1, 14748, Note_on_c, 0, 86, 69
1, 14816, Note_on_c, 0, 84, 72
1, 14822, Note_off_c, 0, 69, 38
1, 14857, Note_off_c, 0, 86, 59
1, 14861, Note_off_c, 0, 72, 30
1, 14869, Note_on_c, 0, 70, 51
1, 14875, Note_on_c, 0, 82, 78
1, 14884, Note_on_c, 0, 67, 47
1, 14920, Note_off_c, 0, 84, 61
1, 14936, Note_off_c, 0, 70, 53
1, 14938, Note_on_c, 0, 69, 56
1, 14949, Note_on_c, 0, 81, 82
1, 14954, Note_off_c, 0, 82, 64
1, 14960, Note_off_c, 0, 67, 61
1, 14970, Note_on_c, 0, 65, 44
1, 14977, Note_off_c, 0, 69, 62
1, 15012, Note_off_c, 0, 65, 58
1, 15012, Note_off_c, 0, 81, 64
1, 15235, Note_on_c, 0, 81, 77
1, 15245, Note_on_c, 0, 69, 50
1, 15250, Note_on_c, 0, 65, 44
1, 15268, Note_off_c, 0, 69, 60
1, 15281, Note_off_c, 0, 65, 60
1, 15292, Note_off_c, 0, 81, 64
1, 15528, Note_on_c, 0, 81, 66
1, 15538, Note_on_c, 0, 69, 46
1, 15539, Note_on_c, 0, 65, 46
1, 15585, Note_off_c, 0, 81, 61
1, 15589, Note_off_c, 0, 69, 58
1, 15601, Note_on_c, 0, 82, 73
1, 15668, Note_on_c, 0, 81, 74
1, 15675, Note_off_c, 0, 65, 57
1, 15716, Note_on_c, 0, 60, 43
1, 15717, Note_off_c, 0, 82, 58
1, 15731, Note_on_c, 0, 79, 77
1, 15731, Note_on_c, 0, 67, 40
1, 15785, Note_off_c, 0, 60, 56
1, 15791, Note_off_c, 0, 81, 62
1, 15797, Note_off_c, 0, 67, 43
1, 15815, Note_on_c, 0, 57, 52
1, 15815, Note_on_c, 0, 65, 56
1, 15817, Note_on_c, 0, 77, 74
1, 15829, Note_off_c, 0, 79, 64
1, 15874, Note_off_c, 0, 77, 64
1, 15874, Note_off_c, 0, 65, 57
1, 15878, Note_off_c, 0, 57, 58
1, 16116, Note_on_c, 0, 77, 60
1, 16123, Note_on_c, 0, 57, 50
1, 16123, Note_on_c, 0, 65, 49
1, 16161, Note_off_c, 0, 77, 62
1, 16169, Note_off_c, 0, 57, 61
1, 16178, Note_off_c, 0, 65, 58
1, 16402, Note_on_c, 0, 77, 61
1, 16417, Note_on_c, 0, 65, 48
1, 16417, Note_on_c, 0, 57, 42
1, 16442, Note_off_c, 0, 77, 62
1, 16457, Note_off_c, 0, 57, 56
1, 16471, Note_off_c, 0, 65, 57
1, 16703, Note_on_c, 0, 79, 63
1, 16720, Note_on_c, 0, 60, 35
1, 16730, Note_on_c, 0, 67, 32
1, 16796, Control_c, 0, 64, 35
1, 16811, Control_c, 0, 64, 47
1, 16826, Control_c, 0, 64, 56
1, 16841, Control_c, 0, 64, 62
1, 16855, Control_c, 0, 64, 65
1, 16870, Control_c, 0, 64, 68
1, 16885, Control_c, 0, 64, 73
1, 16900, Control_c, 0, 64, 78
1, 16914, Control_c, 0, 64, 84
1, 16929, Control_c, 0, 64, 89
1, 16944, Control_c, 0, 64, 90
1, 16956, Note_off_c, 0, 60, 41
1, 16979, Note_off_c, 0, 67, 41
1, 16992, Note_off_c, 0, 79, 63
1, 16995, Note_on_c, 0, 82, 67
1, 17048, Control_c, 0, 64, 89
1, 17063, Control_c, 0, 64, 87
1, 17067, Note_off_c, 0, 82, 58
1, 17078, Control_c, 0, 64, 85
1, 17092, Control_c, 0, 64, 83
1, 17107, Control_c, 0, 64, 80
1, 17122, Control_c, 0, 64, 76
1, 17137, Control_c, 0, 64, 73
1, 17152, Control_c, 0, 64, 70
1, 17166, Control_c, 0, 64, 67
1, 17181, Control_c, 0, 64, 65
1, 17196, Control_c, 0, 64, 62
1, 17211, Control_c, 0, 64, 57
1, 17226, Control_c, 0, 64, 49
1, 17248, Control_c, 0, 64, 40
1, 17263, Control_c, 0, 64, 0
1, 17294, Note_on_c, 0, 76, 55
1, 17308, Note_on_c, 0, 60, 34
1, 17310, Note_on_c, 0, 70, 40
1, 17321, Note_on_c, 0, 67, 24
1, 17366, Control_c, 0, 64, 33
1, 17381, Control_c, 0, 64, 48
1, 17396, Control_c, 0, 64, 58
1, 17411, Control_c, 0, 64, 63
1, 17426, Control_c, 0, 64, 65
1, 17441, Control_c, 0, 64, 68
1, 17455, Control_c, 0, 64, 70
1, 17470, Control_c, 0, 64, 71
1, 17475, Note_off_c, 0, 76, 36
1, 17485, Control_c, 0, 64, 72
1, 17499, Note_off_c, 0, 70, 59
1, 17535, Note_off_c, 0, 67, 41
1, 17544, Control_c, 0, 64, 72
1, 17559, Control_c, 0, 64, 71
1, 17575, Control_c, 0, 64, 69
1, 17582, Note_off_c, 0, 60, 28
1, 17590, Control_c, 0, 64, 66
1, 17604, Control_c, 0, 64, 62
1, 17619, Control_c, 0, 64, 57
1, 17633, Note_on_c, 0, 65, 38
1, 17634, Control_c, 0, 64, 50
1, 17636, Note_on_c, 0, 77, 45
1, 17649, Control_c, 0, 64, 44
1, 17652, Note_on_c, 0, 69, 33
1, 17664, Control_c, 0, 64, 35
1, 17678, Control_c, 0, 64, 0
1, 17840, Note_off_c, 0, 69, 45
1, 17862, Note_off_c, 0, 65, 58
1, 17886, Note_off_c, 0, 77, 56
1, 18221, Note_on_c, 0, 84, 85
1, 18223, Note_on_c, 0, 60, 43
1, 18224, Note_on_c, 0, 64, 50
1, 18233, Note_on_c, 0, 70, 45
1, 18263, Control_c, 0, 64, 39
1, 18278, Control_c, 0, 64, 50
1, 18293, Control_c, 0, 64, 57
1, 18308, Control_c, 0, 64, 61
1, 18322, Control_c, 0, 64, 64
1, 18337, Control_c, 0, 64, 68
1, 18347, Note_off_c, 0, 64, 57
1, 18352, Control_c, 0, 64, 73
1, 18368, Control_c, 0, 64, 81
1, 18383, Control_c, 0, 64, 92
1, 18398, Control_c, 0, 64, 105
1, 18402, Note_off_c, 0, 70, 55
1, 18413, Control_c, 0, 64, 111
1, 18471, Control_c, 0, 64, 108
1, 18486, Control_c, 0, 64, 99
1, 18501, Control_c, 0, 64, 87
1, 18516, Control_c, 0, 64, 74
1, 18531, Control_c, 0, 64, 61
1, 18540, Note_on_c, 0, 77, 62
1, 18545, Control_c, 0, 64, 46
1, 18549, Note_on_c, 0, 65, 45
1, 18549, Note_off_c, 0, 60, 36
1, 18553, Note_on_c, 0, 69, 41
1, 18560, Control_c, 0, 64, 0
1, 18580, Note_off_c, 0, 84, 39
1, 18715, Note_off_c, 0, 69, 57
1, 18775, Note_off_c, 0, 65, 59
1, 18783, Note_off_c, 0, 77, 64
1, 18805, Control_c, 0, 67, 20
1, 18819, Control_c, 0, 67, 28
1, 18834, Control_c, 0, 67, 41
1, 18849, Control_c, 0, 67, 65
1, 18864, Control_c, 0, 67, 88
1, 18879, Control_c, 0, 67, 111
1, 18894, Control_c, 0, 67, 127
1, 19141, Note_on_c, 0, 72, 47
1, 19145, Note_on_c, 0, 52, 36
1, 19148, Note_on_c, 0, 58, 35
1, 19155, Note_on_c, 0, 48, 30
1, 19206, Control_c, 0, 64, 32
1, 19221, Control_c, 0, 64, 46
1, 19235, Control_c, 0, 64, 57
1, 19250, Control_c, 0, 64, 60
1, 19265, Control_c, 0, 64, 61
1, 19280, Control_c, 0, 64, 63
1, 19294, Control_c, 0, 64, 65
1, 19294, Control_c, 0, 67, 122
1, 19296, Note_off_c, 0, 52, 40
1, 19309, Control_c, 0, 64, 68
1, 19309, Control_c, 0, 67, 110
1, 19324, Control_c, 0, 64, 71
1, 19324, Control_c, 0, 67, 96
1, 19339, Control_c, 0, 64, 72
1, 19339, Control_c, 0, 67, 80
1, 19343, Note_off_c, 0, 58, 37
1, 19354, Control_c, 0, 67, 62
1, 19368, Control_c, 0, 67, 48
1, 19383, Control_c, 0, 67, 36
1, 19398, Control_c, 0, 67, 26
1, 19412, Control_c, 0, 67, 0
1, 19419, Note_off_c, 0, 48, 35
1, 19427, Control_c, 0, 64, 71
1, 19442, Control_c, 0, 64, 68
1, 19457, Control_c, 0, 64, 66
1, 19472, Control_c, 0, 64, 63
1, 19493, Note_on_c, 0, 65, 43
1, 19493, Control_c, 0, 64, 60
1, 19502, Note_on_c, 0, 57, 37
1, 19508, Note_on_c, 0, 53, 31
1, 19508, Control_c, 0, 64, 58
1, 19517, Note_off_c, 0, 72, 35
1, 19523, Control_c, 0, 64, 55
1, 19538, Control_c, 0, 64, 53
1, 19553, Control_c, 0, 64, 50
1, 19567, Control_c, 0, 64, 47
1, 19582, Control_c, 0, 64, 44
1, 19597, Control_c, 0, 64, 42
1, 19612, Control_c, 0, 64, 39
1, 19627, Control_c, 0, 64, 34
1, 19642, Control_c, 0, 64, 0
1, 19699, Note_off_c, 0, 57, 42
1, 19735, Note_off_c, 0, 53, 45
1, 19743, Note_off_c, 0, 65, 62
1, 20072, Note_on_c, 0, 61, 84
1, 20082, Note_on_c, 0, 49, 68
1, 20083, Note_on_c, 0, 37, 74
1, 20131, Control_c, 0, 64, 29
1, 20146, Control_c, 0, 64, 46
1, 20161, Control_c, 0, 64, 58
1, 20176, Control_c, 0, 64, 64
1, 20190, Control_c, 0, 64, 70
1, 20205, Control_c, 0, 64, 79
1, 20220, Control_c, 0, 64, 107
1, 20242, Control_c, 0, 64, 127
1, 20272, Note_off_c, 0, 49, 56
1, 20272, Note_off_c, 0, 37, 55
1, 20390, Control_c, 0, 64, 83
1, 20405, Control_c, 0, 64, 61
1, 20415, Note_on_c, 0, 38, 70
1, 20415, Note_on_c, 0, 62, 77
1, 20420, Control_c, 0, 64, 0
1, 20426, Note_off_c, 0, 61, 55
1, 20427, Note_on_c, 0, 50, 62
1, 20495, Control_c, 0, 64, 57
1, 20501, Note_off_c, 0, 38, 64
1, 20509, Control_c, 0, 64, 74
1, 20524, Control_c, 0, 64, 127
1, 20536, Note_off_c, 0, 50, 53
1, 20658, Note_on_c, 0, 53, 62
1, 20661, Note_off_c, 0, 62, 59
1, 20789, Note_on_c, 0, 57, 66
1, 20799, Note_off_c, 0, 53, 55
1, 20915, Note_off_c, 0, 57, 55
1, 20924, Note_on_c, 0, 53, 64
1, 20926, Note_on_c, 0, 65, 66
1, 20954, Control_c, 0, 64, 114
1, 20969, Control_c, 0, 64, 89
1, 20972, Note_on_c, 0, 69, 63
1, 20992, Control_c, 0, 64, 77
1, 20995, Note_off_c, 0, 65, 62
1, 21007, Control_c, 0, 64, 71
1, 21021, Control_c, 0, 64, 70
1, 21037, Note_on_c, 0, 74, 71
1, 21048, Note_on_c, 0, 57, 64
1, 21051, Control_c, 0, 64, 72
1, 21060, Note_off_c, 0, 69, 64
1, 21065, Control_c, 0, 64, 76
1, 21073, Note_off_c, 0, 53, 51
1, 21080, Control_c, 0, 64, 81
1, 21095, Control_c, 0, 64, 86
1, 21103, Note_off_c, 0, 74, 64
1, 21110, Control_c, 0, 64, 91
1, 21125, Control_c, 0, 64, 97
1, 21139, Control_c, 0, 64, 101
1, 21196, Note_on_c, 0, 69, 69
1, 21199, Control_c, 0, 64, 94
1, 21206, Note_on_c, 0, 53, 64
1, 21213, Control_c, 0, 64, 86
1, 21226, Note_off_c, 0, 57, 38
1, 21228, Control_c, 0, 64, 79
1, 21243, Control_c, 0, 64, 76
1, 21246, Note_on_c, 0, 74, 81
1, 21264, Note_off_c, 0, 69, 61
1, 21287, Control_c, 0, 64, 77
1, 21302, Control_c, 0, 64, 79
1, 21303, Note_on_c, 0, 77, 76
1, 21317, Note_off_c, 0, 74, 64
1, 21317, Control_c, 0, 64, 83
1, 21323, Note_off_c, 0, 53, 58
1, 21324, Note_on_c, 0, 50, 67
1, 21332, Control_c, 0, 64, 91
1, 21347, Control_c, 0, 64, 101
1, 21360, Note_off_c, 0, 77, 64
1, 21362, Control_c, 0, 64, 114
1, 21377, Control_c, 0, 64, 127
1, 21436, Control_c, 0, 64, 111
1, 21448, Note_on_c, 0, 74, 75
1, 21451, Control_c, 0, 64, 87
1, 21465, Control_c, 0, 64, 71
1, 21468, Note_on_c, 0, 53, 57
1, 21472, Note_off_c, 0, 50, 56
1, 21480, Control_c, 0, 64, 61
1, 21495, Control_c, 0, 64, 51
1, 21505, Note_on_c, 0, 77, 77
1, 21510, Control_c, 0, 64, 45
1, 21525, Control_c, 0, 64, 46
1, 21529, Note_off_c, 0, 74, 61
1, 21539, Control_c, 0, 64, 50
1, 21554, Control_c, 0, 64, 55
1, 21569, Note_on_c, 0, 81, 82
1, 21570, Control_c, 0, 64, 59
1, 21571, Note_on_c, 0, 57, 71
1, 21583, Note_off_c, 0, 53, 56
1, 21585, Control_c, 0, 64, 63
1, 21587, Note_off_c, 0, 77, 64
1, 21600, Control_c, 0, 64, 68
1, 21615, Control_c, 0, 64, 76
1, 21622, Note_off_c, 0, 81, 66
1, 21630, Control_c, 0, 64, 85
1, 21644, Control_c, 0, 64, 94
1, 21659, Control_c, 0, 64, 101
1, 21674, Control_c, 0, 64, 103
1, 21693, Note_off_c, 0, 57, 58
1, 21715, Note_on_c, 0, 53, 60
1, 21717, Note_on_c, 0, 81, 87
1, 21741, Control_c, 0, 64, 94
1, 21755, Control_c, 0, 64, 80
1, 21770, Control_c, 0, 64, 66
1, 21785, Control_c, 0, 64, 49
1, 21800, Control_c, 0, 64, 0
1, 21828, Note_off_c, 0, 53, 62
1, 21849, Note_on_c, 0, 57, 60
1, 21865, Note_on_c, 0, 77, 85
1, 21893, Note_off_c, 0, 81, 60
1, 21903, Control_c, 0, 64, 44
1, 21918, Control_c, 0, 64, 58
1, 21933, Control_c, 0, 64, 65
1, 21948, Control_c, 0, 64, 71
1, 21962, Note_off_c, 0, 77, 63
1, 21962, Control_c, 0, 64, 78
1, 21969, Note_on_c, 0, 53, 64
1, 21969, Note_off_c, 0, 57, 38
1, 21977, Control_c, 0, 64, 86
1, 21985, Note_on_c, 0, 74, 83
1, 21992, Control_c, 0, 64, 97
1, 22001, Note_off_c, 0, 53, 64
1, 22006, Control_c, 0, 64, 115
1, 22021, Control_c, 0, 64, 127
1, 22030, Note_off_c, 0, 74, 65
1, 22140, Control_c, 0, 64, 89
1, 22148, Note_on_c, 0, 73, 80
1, 22155, Control_c, 0, 64, 69
1, 22167, Note_on_c, 0, 40, 58
1, 22170, Control_c, 0, 64, 53
1, 22173, Note_on_c, 0, 76, 72
1, 22178, Note_on_c, 0, 52, 55
1, 22185, Control_c, 0, 64, 0
1, 22212, Note_on_c, 0, 79, 78
1, 22241, Note_off_c, 0, 73, 60
1, 22262, Note_on_c, 0, 82, 93
1, 22265, Note_off_c, 0, 40, 63
1, 22288, Control_c, 0, 64, 44
1, 22292, Note_off_c, 0, 52, 61
1, 22302, Note_off_c, 0, 76, 56
1, 22303, Control_c, 0, 64, 58
1, 22306, Note_off_c, 0, 79, 62
1, 22318, Control_c, 0, 64, 65
1, 22333, Control_c, 0, 64, 69
1, 22348, Control_c, 0, 64, 72
1, 22364, Control_c, 0, 64, 75
1, 22378, Control_c, 0, 64, 76
1, 22393, Control_c, 0, 64, 77
1, 22513, Note_on_c, 0, 58, 57
1, 22518, Note_on_c, 0, 61, 56
1, 22523, Note_on_c, 0, 52, 55
1, 22526, Note_on_c, 0, 55, 45
1, 22527, Note_off_c, 0, 82, 57
1, 22563, Control_c, 0, 64, 77
1, 22593, Control_c, 0, 64, 76
1, 22608, Control_c, 0, 64, 76
1, 22623, Control_c, 0, 64, 75
1, 22637, Control_c, 0, 64, 74
1, 22652, Control_c, 0, 64, 74
1, 22667, Control_c, 0, 64, 73
1, 22682, Control_c, 0, 64, 72
1, 22683, Note_off_c, 0, 61, 53
1, 22697, Control_c, 0, 64, 71
1, 22706, Note_off_c, 0, 58, 60
1, 22706, Note_off_c, 0, 52, 59
1, 22711, Control_c, 0, 64, 70
1, 22726, Control_c, 0, 64, 69
1, 22727, Note_on_c, 0, 81, 71
1, 22733, Note_off_c, 0, 55, 62
1, 22741, Control_c, 0, 64, 68
1, 22756, Control_c, 0, 64, 67
1, 22771, Control_c, 0, 64, 66
1, 22785, Control_c, 0, 64, 65
1, 22786, Note_on_c, 0, 79, 73
1, 22800, Control_c, 0, 64, 64
1, 22815, Control_c, 0, 64, 64
1, 22829, Control_c, 0, 64, 63
1, 22844, Control_c, 0, 64, 62
1, 22858, Note_on_c, 0, 77, 67
1, 22859, Control_c, 0, 64, 60
1, 22874, Control_c, 0, 64, 59
1, 22885, Note_off_c, 0, 81, 52
1, 22889, Control_c, 0, 64, 57
1, 22903, Control_c, 0, 64, 55
1, 22918, Control_c, 0, 64, 51
1, 22919, Note_on_c, 0, 76, 78
1, 22927, Note_off_c, 0, 79, 57
1, 22933, Control_c, 0, 64, 45
1, 22947, Note_off_c, 0, 77, 65
1, 22948, Control_c, 0, 64, 35
1, 22963, Control_c, 0, 64, 0
1, 22969, Note_off_c, 0, 76, 65
1, 22977, Note_on_c, 0, 74, 77
1, 23037, Note_on_c, 0, 73, 78
1, 23051, Note_off_c, 0, 74, 62
1, 23120, Note_on_c, 0, 40, 49
1, 23120, Note_off_c, 0, 73, 62
1, 23125, Note_on_c, 0, 82, 82
1, 23135, Note_on_c, 0, 52, 44
1, 23156, Control_c, 0, 64, 33
1, 23171, Control_c, 0, 64, 43
1, 23186, Control_c, 0, 64, 54
1, 23192, Note_off_c, 0, 40, 62
1, 23201, Control_c, 0, 64, 62
1, 23216, Control_c, 0, 64, 66
1, 23234, Note_off_c, 0, 52, 61
1, 23238, Control_c, 0, 64, 68
1, 23253, Control_c, 0, 64, 71
1, 23267, Control_c, 0, 64, 74
1, 23282, Control_c, 0, 64, 76
1, 23297, Control_c, 0, 64, 77
1, 23312, Control_c, 0, 64, 77
1, 23357, Note_off_c, 0, 82, 50
1, 23430, Note_on_c, 0, 58, 44
1, 23434, Note_on_c, 0, 55, 46
1, 23440, Note_on_c, 0, 52, 44
1, 23440, Note_on_c, 0, 61, 42
1, 23446, Control_c, 0, 64, 77
1, 23490, Control_c, 0, 64, 76
1, 23520, Control_c, 0, 64, 76
1, 23534, Control_c, 0, 64, 75
1, 23564, Control_c, 0, 64, 75
1, 23579, Control_c, 0, 64, 74
1, 23593, Control_c, 0, 64, 74
1, 23600, Note_on_c, 0, 81, 64
1, 23615, Note_off_c, 0, 52, 59
1, 23617, Note_off_c, 0, 61, 53
1, 23623, Control_c, 0, 64, 73
1, 23638, Control_c, 0, 64, 72
1, 23640, Note_off_c, 0, 58, 55
1, 23652, Control_c, 0, 64, 71
1, 23654, Note_off_c, 0, 55, 58
1, 23665, Note_on_c, 0, 79, 70
1, 23667, Control_c, 0, 64, 71
1, 23682, Control_c, 0, 64, 70
1, 23697, Control_c, 0, 64, 69
1, 23704, Note_off_c, 0, 81, 54
1, 23712, Control_c, 0, 64, 68
1, 23727, Control_c, 0, 64, 66
1, 23735, Note_on_c, 0, 77, 68
1, 23741, Control_c, 0, 64, 65
1, 23756, Control_c, 0, 64, 64
1, 23766, Note_off_c, 0, 79, 64
1, 23771, Control_c, 0, 64, 62
1, 23785, Control_c, 0, 64, 61
1, 23800, Note_on_c, 0, 76, 67
1, 23800, Control_c, 0, 64, 59
1, 23815, Control_c, 0, 64, 57
1, 23820, Note_off_c, 0, 77, 64
1, 23830, Control_c, 0, 64, 54
1, 23842, Note_off_c, 0, 76, 62
1, 23845, Control_c, 0, 64, 51
1, 23860, Control_c, 0, 64, 48
1, 23866, Note_on_c, 0, 74, 61
1, 23875, Control_c, 0, 64, 43
1, 23890, Control_c, 0, 64, 37
1, 23905, Note_off_c, 0, 74, 60
1, 23905, Control_c, 0, 64, 0
1, 23923, Note_on_c, 0, 73, 69
1, 24010, Note_on_c, 0, 74, 64
1, 24021, Note_off_c, 0, 73, 60
1, 24027, Note_on_c, 0, 53, 38
1, 24136, Control_c, 0, 64, 30
1, 24151, Control_c, 0, 64, 35
1, 24165, Control_c, 0, 64, 44
1, 24179, Note_on_c, 0, 57, 46
1, 24180, Control_c, 0, 64, 54
1, 24195, Control_c, 0, 64, 59
1, 24209, Control_c, 0, 64, 63
1, 24224, Control_c, 0, 64, 65
1, 24239, Control_c, 0, 64, 68
1, 24254, Control_c, 0, 64, 71
1, 24269, Control_c, 0, 64, 74
1, 24274, Note_off_c, 0, 74, 56
1, 24283, Control_c, 0, 64, 76
1, 24298, Control_c, 0, 64, 77
1, 24313, Control_c, 0, 64, 77
1, 24328, Note_on_c, 0, 62, 45
1, 24343, Note_off_c, 0, 57, 51
1, 24462, Control_c, 0, 64, 75
1, 24475, Note_on_c, 0, 65, 58
1, 24477, Control_c, 0, 64, 71
1, 24477, Note_off_c, 0, 62, 35
1, 24480, Note_on_c, 0, 57, 50
1, 24491, Control_c, 0, 64, 65
1, 24506, Control_c, 0, 64, 59
1, 24521, Control_c, 0, 64, 55
1, 24530, Note_on_c, 0, 69, 63
1, 24536, Control_c, 0, 64, 54
1, 24543, Note_off_c, 0, 65, 62
1, 24551, Control_c, 0, 64, 55
1, 24562, Note_off_c, 0, 53, 8
1, 24565, Control_c, 0, 64, 57
1, 24580, Control_c, 0, 64, 59
1, 24594, Note_on_c, 0, 62, 49
1, 24595, Control_c, 0, 64, 61
1, 24596, Note_on_c, 0, 74, 71
1, 24609, Control_c, 0, 64, 64
1, 24611, Note_off_c, 0, 69, 64
1, 24613, Note_off_c, 0, 57, 51
1, 24624, Control_c, 0, 64, 68
1, 24639, Control_c, 0, 64, 72
1, 24654, Control_c, 0, 64, 75
1, 24658, Note_off_c, 0, 74, 63
1, 24669, Control_c, 0, 64, 78
1, 24683, Control_c, 0, 64, 80
1, 24698, Control_c, 0, 64, 80
1, 24750, Control_c, 0, 64, 78
1, 24757, Note_on_c, 0, 69, 73
1, 24762, Note_on_c, 0, 57, 51
1, 24766, Control_c, 0, 64, 73
1, 24781, Control_c, 0, 64, 65
1, 24788, Note_off_c, 0, 62, 32
1, 24796, Control_c, 0, 64, 58
1, 24811, Control_c, 0, 64, 48
1, 24823, Note_on_c, 0, 74, 78
1, 24826, Control_c, 0, 64, 45
1, 24836, Note_off_c, 0, 69, 62
1, 24840, Control_c, 0, 64, 46
1, 24855, Control_c, 0, 64, 48
1, 24870, Control_c, 0, 64, 51
1, 24885, Note_off_c, 0, 57, 54
1, 24885, Control_c, 0, 64, 55
1, 24886, Note_on_c, 0, 53, 52
1, 24893, Note_on_c, 0, 77, 74
1, 24900, Control_c, 0, 64, 60
1, 24900, Note_off_c, 0, 74, 64
1, 24914, Control_c, 0, 64, 65
1, 24929, Control_c, 0, 64, 69
1, 24944, Control_c, 0, 64, 73
1, 24947, Note_off_c, 0, 77, 65
1, 24959, Control_c, 0, 64, 77
1, 24974, Control_c, 0, 64, 80
1, 24988, Control_c, 0, 64, 81
1, 25003, Control_c, 0, 64, 81
1, 25018, Control_c, 0, 64, 81
1, 25032, Control_c, 0, 64, 79
1, 25033, Note_on_c, 0, 74, 74
1, 25042, Note_on_c, 0, 57, 51
1, 25047, Control_c, 0, 64, 73
1, 25062, Control_c, 0, 64, 65
1, 25077, Control_c, 0, 64, 57
1, 25092, Note_on_c, 0, 77, 80
1, 25092, Control_c, 0, 64, 48
1, 25106, Control_c, 0, 64, 42
1, 25112, Note_off_c, 0, 74, 62
1, 25136, Control_c, 0, 64, 44
1, 25151, Control_c, 0, 64, 47
1, 25154, Note_on_c, 0, 62, 56
1, 25163, Note_on_c, 0, 81, 86
1, 25166, Control_c, 0, 64, 52
1, 25169, Note_off_c, 0, 57, 58
1, 25174, Note_off_c, 0, 77, 64
1, 25181, Control_c, 0, 64, 57
1, 25195, Control_c, 0, 64, 61
1, 25210, Control_c, 0, 64, 66
1, 25216, Note_off_c, 0, 81, 65
1, 25225, Control_c, 0, 64, 70
1, 25240, Control_c, 0, 64, 74
1, 25255, Control_c, 0, 64, 76
1, 25270, Control_c, 0, 64, 77
1, 25274, Note_off_c, 0, 62, 55
1, 25285, Control_c, 0, 64, 78
1, 25303, Note_on_c, 0, 57, 53
1, 25304, Note_on_c, 0, 81, 91
1, 25314, Control_c, 0, 64, 77
1, 25329, Control_c, 0, 64, 76
1, 25344, Control_c, 0, 64, 72
1, 25358, Control_c, 0, 64, 65
1, 25373, Control_c, 0, 64, 55
1, 25388, Control_c, 0, 64, 41
1, 25402, Control_c, 0, 64, 0
1, 25435, Note_off_c, 0, 57, 52
1, 25438, Note_on_c, 0, 62, 51
1, 25443, Note_on_c, 0, 77, 85
1, 25464, Note_off_c, 0, 81, 61
1, 25499, Control_c, 0, 64, 44
1, 25513, Control_c, 0, 64, 57
1, 25517, Note_off_c, 0, 53, 41
1, 25528, Control_c, 0, 64, 63
1, 25541, Note_off_c, 0, 62, 59
1, 25543, Control_c, 0, 64, 68
1, 25545, Note_off_c, 0, 77, 61
1, 25559, Control_c, 0, 64, 72
1, 25574, Control_c, 0, 64, 78
1, 25575, Note_on_c, 0, 57, 54
1, 25578, Note_on_c, 0, 74, 83
1, 25588, Control_c, 0, 64, 84
1, 25603, Control_c, 0, 64, 90
1, 25605, Note_off_c, 0, 57, 65
1, 25618, Control_c, 0, 64, 95
1, 25652, Note_off_c, 0, 74, 63
1, 25707, Control_c, 0, 64, 94
1, 25722, Control_c, 0, 64, 87
1, 25736, Control_c, 0, 64, 76
1, 25744, Poly_aftertouch_c, 0, 73, 0
1, 25751, Control_c, 0, 64, 64
1, 25766, Control_c, 0, 64, 44
1, 25774, Note_on_c, 0, 71, 76
1, 25776, Note_on_c, 0, 80, 86
1, 25780, Note_on_c, 0, 74, 62
1, 25780, Control_c, 0, 64, 0
1, 25785, Note_on_c, 0, 77, 54
1, 25791, Note_on_c, 0, 38, 61
1, 25801, Note_on_c, 0, 50, 48
1, 25884, Control_c, 0, 64, 41
1, 25895, Note_off_c, 0, 38, 64
1, 25899, Control_c, 0, 64, 61
1, 25914, Control_c, 0, 64, 66
1, 25916, Note_off_c, 0, 50, 60
1, 25929, Control_c, 0, 64, 69
1, 25932, Note_off_c, 0, 77, 44
1, 25935, Note_off_c, 0, 74, 61
1, 25944, Control_c, 0, 64, 71
1, 25959, Control_c, 0, 64, 73
1, 25973, Control_c, 0, 64, 75
1, 25988, Control_c, 0, 64, 76
1, 26092, Control_c, 0, 64, 75
1, 26093, Note_off_c, 0, 71, 25
1, 26107, Control_c, 0, 64, 75
1, 26114, Note_on_c, 0, 50, 54
1, 26114, Note_on_c, 0, 53, 48
1, 26115, Note_on_c, 0, 56, 48
1, 26115, Note_on_c, 0, 59, 47
1, 26122, Control_c, 0, 64, 74
1, 26128, Note_off_c, 0, 80, 54
1, 26136, Control_c, 0, 64, 74
1, 26152, Control_c, 0, 64, 73
1, 26167, Control_c, 0, 64, 72
1, 26181, Control_c, 0, 64, 71
1, 26196, Control_c, 0, 64, 70
1, 26211, Control_c, 0, 64, 69
1, 26233, Control_c, 0, 64, 69
1, 26248, Control_c, 0, 64, 68
1, 26263, Control_c, 0, 64, 68
1, 26277, Control_c, 0, 64, 67
1, 26292, Note_on_c, 0, 79, 71
1, 26292, Note_off_c, 0, 59, 56
1, 26292, Control_c, 0, 64, 67
1, 26307, Control_c, 0, 64, 66
1, 26312, Note_off_c, 0, 50, 61
1, 26314, Note_off_c, 0, 56, 59
1, 26322, Control_c, 0, 64, 66
1, 26336, Note_off_c, 0, 53, 62
1, 26337, Control_c, 0, 64, 65
1, 26352, Control_c, 0, 64, 65
1, 26361, Note_on_c, 0, 77, 69
1, 26382, Control_c, 0, 64, 64
1, 26390, Note_off_c, 0, 79, 64
1, 26412, Control_c, 0, 64, 64
1, 26426, Note_on_c, 0, 75, 74
1, 26427, Control_c, 0, 64, 63
1, 26441, Control_c, 0, 64, 63
1, 26456, Control_c, 0, 64, 62
1, 26457, Note_off_c, 0, 77, 63
1, 26471, Control_c, 0, 64, 61
1, 26480, Note_off_c, 0, 75, 65
1, 26486, Control_c, 0, 64, 60
1, 26493, Note_on_c, 0, 74, 76
1, 26501, Control_c, 0, 64, 59
1, 26516, Control_c, 0, 64, 58
1, 26531, Control_c, 0, 64, 57
1, 26537, Note_off_c, 0, 74, 57
1, 26546, Control_c, 0, 64, 56
1, 26556, Note_on_c, 0, 72, 79
1, 26560, Control_c, 0, 64, 53
1, 26575, Control_c, 0, 64, 49
1, 26590, Control_c, 0, 64, 39
1, 26604, Control_c, 0, 64, 0
1, 26605, Note_off_c, 0, 72, 62
1, 26634, Note_on_c, 0, 71, 71
1, 26687, Note_on_c, 0, 38, 53
1, 26700, Note_on_c, 0, 50, 44
1, 26704, Note_on_c, 0, 80, 81
1, 26724, Note_off_c, 0, 71, 61
1, 26781, Note_off_c, 0, 38, 64
1, 26782, Control_c, 0, 64, 39
1, 26796, Control_c, 0, 64, 50
1, 26811, Control_c, 0, 64, 57
1, 26824, Note_off_c, 0, 50, 61
1, 26826, Control_c, 0, 64, 61
1, 26841, Control_c, 0, 64, 64
1, 26856, Control_c, 0, 64, 66
1, 26871, Control_c, 0, 64, 68
1, 26886, Control_c, 0, 64, 70
1, 26901, Control_c, 0, 64, 71
1, 26999, Note_off_c, 0, 80, 53
1, 27018, Note_on_c, 0, 50, 44
1, 27021, Note_on_c, 0, 59, 38
1, 27032, Note_on_c, 0, 53, 37
1, 27038, Note_on_c, 0, 56, 35
1, 27100, Control_c, 0, 64, 71
1, 27130, Control_c, 0, 64, 70
1, 27160, Control_c, 0, 64, 70
1, 27175, Control_c, 0, 64, 69
1, 27180, Note_on_c, 0, 79, 64
1, 27190, Control_c, 0, 64, 68
1, 27205, Control_c, 0, 64, 68
1, 27207, Note_off_c, 0, 59, 56
1, 27220, Control_c, 0, 64, 67
1, 27222, Note_off_c, 0, 50, 61
1, 27234, Control_c, 0, 64, 67
1, 27241, Note_off_c, 0, 56, 46
1, 27251, Note_off_c, 0, 53, 50
1, 27252, Note_on_c, 0, 77, 63
1, 27264, Control_c, 0, 64, 66
1, 27279, Note_off_c, 0, 79, 61
1, 27294, Control_c, 0, 64, 66
1, 27320, Note_on_c, 0, 75, 61
1, 27324, Control_c, 0, 64, 65
1, 27336, Note_off_c, 0, 77, 64
1, 27353, Control_c, 0, 64, 65
1, 27368, Control_c, 0, 64, 64
1, 27373, Note_off_c, 0, 75, 63
1, 27383, Control_c, 0, 64, 63
1, 27385, Note_on_c, 0, 74, 61
1, 27398, Control_c, 0, 64, 62
1, 27413, Control_c, 0, 64, 61
1, 27416, Note_off_c, 0, 74, 66
1, 27427, Control_c, 0, 64, 60
1, 27442, Control_c, 0, 64, 58
1, 27452, Note_on_c, 0, 72, 64
1, 27457, Control_c, 0, 64, 56
1, 27472, Control_c, 0, 64, 55
1, 27487, Control_c, 0, 64, 53
1, 27494, Note_off_c, 0, 72, 63
1, 27501, Control_c, 0, 64, 51
1, 27516, Control_c, 0, 64, 48
1, 27520, Note_on_c, 0, 71, 69
1, 27531, Control_c, 0, 64, 42
1, 27545, Control_c, 0, 64, 33
1, 27560, Control_c, 0, 64, 0
1, 27627, Note_off_c, 0, 71, 59
1, 27631, Note_on_c, 0, 72, 70
1, 27648, Note_on_c, 0, 51, 40
1, 27790, Control_c, 0, 64, 32
1, 27805, Control_c, 0, 64, 40
1, 27820, Control_c, 0, 64, 47
1, 27834, Control_c, 0, 64, 55
1, 27841, Note_on_c, 0, 55, 40
1, 27849, Control_c, 0, 64, 61
1, 27864, Control_c, 0, 64, 63
1, 27879, Control_c, 0, 64, 64
1, 27882, Note_off_c, 0, 72, 61
1, 27894, Control_c, 0, 64, 65
1, 27908, Control_c, 0, 64, 66
1, 27923, Control_c, 0, 64, 67
1, 28000, Note_off_c, 0, 55, 59
1, 28000, Note_on_c, 0, 60, 38
1, 28066, Note_on_c, 0, 67, 52
1, 28072, Control_c, 0, 64, 66
1, 28102, Control_c, 0, 64, 66
1, 28111, Note_off_c, 0, 67, 61
1, 28132, Control_c, 0, 64, 65
1, 28133, Note_on_c, 0, 72, 64
1, 28141, Note_off_c, 0, 60, 37
1, 28144, Note_on_c, 0, 55, 47
1, 28161, Control_c, 0, 64, 65
1, 28178, Note_off_c, 0, 72, 61
1, 28191, Control_c, 0, 64, 64
1, 28212, Note_on_c, 0, 67, 66
1, 28221, Control_c, 0, 64, 64
1, 28245, Note_off_c, 0, 67, 63
1, 28265, Control_c, 0, 64, 63
1, 28274, Note_on_c, 0, 75, 69
1, 28288, Note_on_c, 0, 60, 42
1, 28295, Control_c, 0, 64, 63
1, 28298, Note_off_c, 0, 55, 36
1, 28324, Control_c, 0, 64, 62
1, 28328, Note_off_c, 0, 75, 63
1, 28335, Note_off_c, 0, 51, 23
1, 28343, Note_on_c, 0, 72, 78
1, 28383, Control_c, 0, 64, 62
1, 28388, Note_off_c, 0, 60, 36
1, 28400, Note_off_c, 0, 72, 62
1, 28406, Note_on_c, 0, 75, 72
1, 28408, Note_on_c, 0, 55, 53
1, 28463, Note_off_c, 0, 75, 64
1, 28480, Note_on_c, 0, 72, 68
1, 28509, Control_c, 0, 64, 61
1, 28519, Note_off_c, 0, 72, 61
1, 28540, Note_off_c, 0, 55, 34
1, 28542, Note_on_c, 0, 79, 75
1, 28549, Note_on_c, 0, 51, 51
1, 28554, Control_c, 0, 64, 61
1, 28583, Control_c, 0, 64, 60
1, 28598, Note_off_c, 0, 79, 63
1, 28598, Control_c, 0, 64, 60
1, 28613, Control_c, 0, 64, 59
1, 28616, Note_on_c, 0, 75, 75
1, 28628, Control_c, 0, 64, 58
1, 28643, Control_c, 0, 64, 57
1, 28657, Control_c, 0, 64, 56
1, 28672, Control_c, 0, 64, 54
1, 28674, Note_on_c, 0, 79, 69
1, 28676, Note_off_c, 0, 75, 63
1, 28686, Note_on_c, 0, 55, 46
1, 28687, Control_c, 0, 64, 53
1, 28701, Control_c, 0, 64, 51
1, 28716, Control_c, 0, 64, 48
1, 28729, Note_off_c, 0, 79, 66
1, 28731, Control_c, 0, 64, 44
1, 28737, Note_on_c, 0, 75, 70
1, 28746, Control_c, 0, 64, 36
1, 28762, Control_c, 0, 64, 0
1, 28812, Note_off_c, 0, 75, 62
1, 28837, Note_on_c, 0, 84, 81
1, 28859, Note_on_c, 0, 60, 40
1, 28883, Note_off_c, 0, 55, 45
1, 28969, Control_c, 0, 64, 40
1, 28984, Control_c, 0, 64, 50
1, 28994, Note_off_c, 0, 60, 53
1, 28999, Note_on_c, 0, 55, 45
1, 28999, Control_c, 0, 64, 58
1, 29014, Control_c, 0, 64, 61
1, 29029, Control_c, 0, 64, 62
1, 29044, Control_c, 0, 64, 64
1, 29049, Note_off_c, 0, 84, 64
1, 29059, Control_c, 0, 64, 65
1, 29073, Control_c, 0, 64, 67
1, 29088, Control_c, 0, 64, 69
1, 29103, Control_c, 0, 64, 70
1, 29118, Control_c, 0, 64, 70
1, 29148, Note_on_c, 0, 60, 46
1, 29160, Note_off_c, 0, 55, 36
1, 29243, Control_c, 0, 64, 70
1, 29258, Control_c, 0, 64, 69
1, 29273, Control_c, 0, 64, 68
1, 29276, Note_off_c, 0, 51, 29
1, 29288, Control_c, 0, 64, 67
1, 29295, Note_on_c, 0, 55, 54
1, 29303, Control_c, 0, 64, 65
1, 29318, Control_c, 0, 64, 62
1, 29330, Note_off_c, 0, 60, 44
1, 29332, Control_c, 0, 64, 58
1, 29347, Control_c, 0, 64, 52
1, 29362, Control_c, 0, 64, 41
1, 29377, Control_c, 0, 64, 0
1, 29455, Note_on_c, 0, 72, 74
1, 29472, Note_off_c, 0, 55, 35
1, 29479, Note_on_c, 0, 48, 40
1, 29632, Note_on_c, 0, 51, 56
1, 29674, Control_c, 0, 64, 31
1, 29684, Note_off_c, 0, 48, 38
1, 29689, Control_c, 0, 64, 47
1, 29703, Control_c, 0, 64, 56
1, 29718, Control_c, 0, 64, 60
1, 29733, Control_c, 0, 64, 61
1, 29750, Note_off_c, 0, 72, 57
1, 29762, Control_c, 0, 64, 61
1, 29792, Control_c, 0, 64, 62
1, 29798, Note_on_c, 0, 56, 57
1, 29809, Note_off_c, 0, 51, 58
1, 29868, Note_on_c, 0, 68, 60
1, 29891, Note_off_c, 0, 56, 53
1, 29896, Control_c, 0, 64, 61
1, 29917, Note_off_c, 0, 68, 60
1, 29930, Note_on_c, 0, 72, 68
1, 29933, Note_on_c, 0, 51, 58
1, 29955, Control_c, 0, 64, 61
1, 29979, Note_off_c, 0, 72, 60
1, 30012, Note_on_c, 0, 68, 71
1, 30022, Control_c, 0, 64, 60
1, 30042, Note_off_c, 0, 68, 61
1, 30066, Note_off_c, 0, 51, 61
1, 30066, Control_c, 0, 64, 60
1, 30068, Note_on_c, 0, 56, 54
1, 30071, Note_on_c, 0, 75, 73
1, 30096, Control_c, 0, 64, 59
1, 30126, Control_c, 0, 64, 58
1, 30127, Note_off_c, 0, 75, 64
1, 30141, Control_c, 0, 64, 58
1, 30144, Note_on_c, 0, 72, 78
1, 30155, Control_c, 0, 64, 57
1, 30170, Control_c, 0, 64, 56
1, 30185, Control_c, 0, 64, 56
1, 30200, Note_on_c, 0, 51, 44
1, 30200, Note_off_c, 0, 72, 60
1, 30200, Control_c, 0, 64, 55
1, 30203, Note_on_c, 0, 75, 74
1, 30208, Note_off_c, 0, 56, 37
1, 30215, Control_c, 0, 64, 54
1, 30229, Control_c, 0, 64, 54
1, 30244, Control_c, 0, 64, 53
1, 30252, Note_off_c, 0, 75, 65
1, 30266, Note_on_c, 0, 72, 73
1, 30273, Control_c, 0, 64, 52
1, 30288, Control_c, 0, 64, 51
1, 30303, Control_c, 0, 64, 50
1, 30317, Note_off_c, 0, 72, 62
1, 30318, Control_c, 0, 64, 49
1, 30333, Control_c, 0, 64, 47
1, 30336, Note_on_c, 0, 80, 82
1, 30349, Control_c, 0, 64, 46
1, 30350, Note_on_c, 0, 48, 49
1, 30357, Note_off_c, 0, 51, 32
1, 30364, Control_c, 0, 64, 45
1, 30378, Control_c, 0, 64, 43
1, 30393, Control_c, 0, 64, 39
1, 30398, Note_off_c, 0, 80, 64
1, 30408, Control_c, 0, 64, 35
1, 30409, Note_on_c, 0, 75, 83
1, 30423, Control_c, 0, 64, 0
1, 30481, Note_on_c, 0, 80, 84
1, 30484, Note_off_c, 0, 75, 61
1, 30492, Note_on_c, 0, 51, 49
1, 30544, Note_off_c, 0, 80, 64
1, 30549, Note_on_c, 0, 75, 72
1, 30604, Note_off_c, 0, 75, 62
1, 30641, Note_on_c, 0, 84, 93
1, 30659, Note_on_c, 0, 56, 50
1, 30695, Note_off_c, 0, 51, 49
1, 30756, Control_c, 0, 64, 33
1, 30771, Control_c, 0, 64, 45
1, 30785, Control_c, 0, 64, 54
1, 30791, Note_off_c, 0, 56, 51
1, 30800, Control_c, 0, 64, 58
1, 30815, Control_c, 0, 64, 60
1, 30824, Note_on_c, 0, 51, 56
1, 30830, Control_c, 0, 64, 60
1, 30844, Note_off_c, 0, 84, 64
1, 30845, Control_c, 0, 64, 61
1, 30859, Control_c, 0, 64, 63
1, 30874, Control_c, 0, 64, 64
1, 30880, Note_off_c, 0, 48, 40
1, 30889, Control_c, 0, 64, 65
1, 30904, Control_c, 0, 64, 66
1, 30919, Control_c, 0, 64, 68
1, 30934, Control_c, 0, 64, 69
1, 30949, Control_c, 0, 64, 69
1, 30954, Note_on_c, 0, 56, 55
1, 30959, Note_off_c, 0, 51, 59
1, 30963, Control_c, 0, 64, 70
1, 31089, Note_on_c, 0, 51, 66
1, 31103, Note_off_c, 0, 56, 55
1, 31142, Control_c, 0, 64, 69
1, 31157, Control_c, 0, 64, 69
1, 31172, Control_c, 0, 64, 68
1, 31187, Control_c, 0, 64, 67
1, 31201, Control_c, 0, 64, 67
1, 31216, Control_c, 0, 64, 66
1, 31231, Note_off_c, 0, 51, 60
1, 31231, Control_c, 0, 64, 65
1, 31246, Control_c, 0, 64, 64
1, 31261, Control_c, 0, 64, 62
1, 31264, Note_on_c, 0, 44, 59
1, 31264, Note_on_c, 0, 72, 79
1, 31275, Control_c, 0, 64, 60
1, 31290, Control_c, 0, 64, 55
1, 31305, Control_c, 0, 64, 48
1, 31319, Control_c, 0, 64, 33
1, 31334, Control_c, 0, 64, 0
1, 31429, Note_on_c, 0, 48, 60
1, 31506, Control_c, 0, 64, 42
1, 31521, Control_c, 0, 64, 48
1, 31535, Control_c, 0, 64, 51
1, 31550, Control_c, 0, 64, 54
1, 31565, Control_c, 0, 64, 57
1, 31580, Control_c, 0, 64, 58
1, 31586, Note_on_c, 0, 51, 66
1, 31590, Note_off_c, 0, 48, 59
1, 31595, Control_c, 0, 64, 59
1, 31604, Note_off_c, 0, 72, 50
1, 31609, Control_c, 0, 64, 60
1, 31670, Note_on_c, 0, 66, 53
1, 31698, Control_c, 0, 64, 59
1, 31703, Note_off_c, 0, 51, 53
1, 31714, Note_off_c, 0, 66, 60
1, 31728, Note_on_c, 0, 72, 71
1, 31733, Note_on_c, 0, 48, 54
1, 31739, Note_off_c, 0, 44, 33
1, 31742, Control_c, 0, 64, 59
1, 31787, Control_c, 0, 64, 58
1, 31791, Note_off_c, 0, 72, 62
1, 31804, Note_on_c, 0, 66, 67
1, 31816, Control_c, 0, 64, 58
1, 31831, Control_c, 0, 64, 57
1, 31833, Note_off_c, 0, 66, 66
1, 31846, Note_off_c, 0, 48, 55
1, 31861, Control_c, 0, 64, 57
1, 31864, Note_on_c, 0, 75, 74
1, 31864, Note_on_c, 0, 51, 51
1, 31876, Control_c, 0, 64, 56
1, 31891, Control_c, 0, 64, 56
1, 31905, Control_c, 0, 64, 55
1, 31920, Control_c, 0, 64, 55
1, 31924, Note_off_c, 0, 75, 65
1, 31935, Control_c, 0, 64, 54
1, 31938, Note_on_c, 0, 72, 78
1, 31950, Control_c, 0, 64, 53
1, 31980, Note_on_c, 0, 48, 55
1, 31980, Control_c, 0, 64, 52
1, 31995, Control_c, 0, 64, 51
1, 32002, Note_off_c, 0, 72, 63
1, 32004, Note_on_c, 0, 75, 75
1, 32010, Control_c, 0, 64, 51
1, 32014, Note_off_c, 0, 51, 37
1, 32025, Control_c, 0, 64, 50
1, 32040, Control_c, 0, 64, 48
1, 32053, Note_off_c, 0, 75, 65
1, 32054, Control_c, 0, 64, 47
1, 32065, Note_on_c, 0, 72, 74
1, 32069, Control_c, 0, 64, 45
1, 32084, Control_c, 0, 64, 44
1, 32099, Control_c, 0, 64, 44
1, 32109, Note_off_c, 0, 48, 49
1, 32114, Control_c, 0, 64, 42
1, 32124, Note_off_c, 0, 72, 63
1, 32129, Control_c, 0, 64, 40
1, 32132, Note_on_c, 0, 44, 49
1, 32141, Note_on_c, 0, 78, 83
1, 32143, Control_c, 0, 64, 39
1, 32158, Control_c, 0, 64, 38
1, 32173, Control_c, 0, 64, 38
1, 32188, Control_c, 0, 64, 37
1, 32201, Note_off_c, 0, 78, 63
1, 32203, Control_c, 0, 64, 35
1, 32224, Note_on_c, 0, 75, 79
1, 32224, Control_c, 0, 64, 34
1, 32239, Control_c, 0, 64, 32
1, 32254, Control_c, 0, 64, 30
1, 32281, Note_on_c, 0, 48, 55
1, 32284, Control_c, 0, 64, 0
1, 32287, Note_on_c, 0, 78, 77
1, 32290, Note_off_c, 0, 75, 62
1, 32347, Note_off_c, 0, 78, 63
1, 32347, Note_on_c, 0, 75, 74
1, 32410, Note_off_c, 0, 75, 55
1, 32427, Note_off_c, 0, 48, 57
1, 32434, Note_on_c, 0, 84, 90
1, 32451, Note_on_c, 0, 51, 58
1, 32550, Control_c, 0, 64, 32
1, 32565, Control_c, 0, 64, 47
1, 32580, Control_c, 0, 64, 57
1, 32581, Note_off_c, 0, 51, 47
1, 32585, Note_on_c, 0, 48, 54
1, 32595, Control_c, 0, 64, 60
1, 32610, Control_c, 0, 64, 61
1, 32669, Control_c, 0, 64, 60
1, 32683, Control_c, 0, 64, 53
1, 32698, Control_c, 0, 64, 40
1, 32713, Control_c, 0, 64, 0
1, 32731, Note_off_c, 0, 48, 55
1, 32747, Note_on_c, 0, 51, 51
1, 32752, Note_on_c, 0, 78, 75
1, 32774, Note_off_c, 0, 84, 59
1, 32783, Note_off_c, 0, 44, 21
1, 32803, Control_c, 0, 64, 36
1, 32818, Control_c, 0, 64, 52
1, 32833, Control_c, 0, 64, 61
1, 32835, Note_off_c, 0, 78, 62
1, 32847, Control_c, 0, 64, 65
1, 32862, Control_c, 0, 64, 66
1, 32877, Control_c, 0, 64, 67
1, 32892, Control_c, 0, 64, 68
1, 32898, Note_on_c, 0, 48, 52
1, 32907, Control_c, 0, 64, 69
1, 32908, Note_off_c, 0, 51, 36
1, 32988, Control_c, 0, 64, 68
1, 33003, Control_c, 0, 64, 68
1, 33018, Control_c, 0, 64, 66
1, 33033, Control_c, 0, 64, 64
1, 33038, Note_off_c, 0, 48, 37
1, 33047, Control_c, 0, 64, 62
1, 33062, Control_c, 0, 64, 60
1, 33072, Note_on_c, 0, 67, 69
1, 33077, Control_c, 0, 64, 59
1, 33082, Note_on_c, 0, 43, 40
1, 33092, Control_c, 0, 64, 57
1, 33107, Control_c, 0, 64, 55
1, 33116, Note_on_c, 0, 71, 69
1, 33122, Control_c, 0, 64, 54
1, 33137, Control_c, 0, 64, 52
1, 33151, Control_c, 0, 64, 49
1, 33160, Note_off_c, 0, 67, 59
1, 33166, Control_c, 0, 64, 46
1, 33166, Note_on_c, 0, 74, 75
1, 33181, Control_c, 0, 64, 43
1, 33196, Control_c, 0, 64, 37
1, 33211, Control_c, 0, 64, 30
1, 33226, Control_c, 0, 64, 0
1, 33237, Note_on_c, 0, 79, 87
1, 33240, Note_off_c, 0, 71, 61
1, 33242, Note_on_c, 0, 47, 49
1, 33299, Note_off_c, 0, 74, 57
1, 33349, Note_off_c, 0, 43, 39
1, 33411, Note_on_c, 0, 50, 50
1, 33462, Control_c, 0, 64, 29
1, 33477, Control_c, 0, 64, 31
1, 33478, Note_off_c, 0, 47, 36
1, 33506, Control_c, 0, 64, 0
1, 33558, Note_on_c, 0, 55, 48
1, 33560, Note_off_c, 0, 50, 54
1, 33658, Note_off_c, 0, 79, 53
1, 33723, Note_on_c, 0, 48, 44
1, 33724, Note_on_c, 0, 77, 61
1, 33737, Note_off_c, 0, 55, 46
1, 33785, Note_on_c, 0, 75, 65
1, 33828, Note_off_c, 0, 77, 58
1, 33832, Note_off_c, 0, 48, 57
1, 33844, Note_on_c, 0, 74, 75
1, 33847, Note_on_c, 0, 51, 48
1, 33855, Control_c, 0, 64, 39
1, 33870, Control_c, 0, 64, 49
1, 33885, Control_c, 0, 64, 55
1, 33900, Control_c, 0, 64, 57
1, 33911, Note_off_c, 0, 75, 61
1, 33914, Note_on_c, 0, 72, 73
1, 33915, Control_c, 0, 64, 58
1, 33932, Note_off_c, 0, 74, 61
1, 33944, Control_c, 0, 64, 57
1, 33959, Control_c, 0, 64, 57
1, 33974, Control_c, 0, 64, 56
1, 33989, Control_c, 0, 64, 55
1, 34003, Control_c, 0, 64, 53
1, 34013, Note_off_c, 0, 51, 34
1, 34018, Control_c, 0, 64, 50
1, 34033, Control_c, 0, 64, 46
1, 34036, Note_on_c, 0, 79, 85
1, 34041, Note_on_c, 0, 43, 34
1, 34045, Note_off_c, 0, 72, 57
1, 34047, Control_c, 0, 64, 40
1, 34062, Control_c, 0, 64, 31
1, 34077, Control_c, 0, 64, 0
1, 34195, Note_on_c, 0, 47, 48
1, 34295, Note_off_c, 0, 43, 38
1, 34342, Note_on_c, 0, 50, 45
1, 34344, Control_c, 0, 64, 39
1, 34359, Control_c, 0, 64, 50
1, 34374, Control_c, 0, 64, 57
1, 34389, Control_c, 0, 64, 59
1, 34404, Control_c, 0, 64, 60
1, 34418, Control_c, 0, 64, 61
1, 34423, Note_off_c, 0, 47, 32
1, 34433, Control_c, 0, 64, 62
1, 34448, Control_c, 0, 64, 63
1, 34470, Control_c, 0, 64, 64
1, 34494, Note_off_c, 0, 50, 54
1, 34503, Note_on_c, 0, 55, 48
1, 34559, Control_c, 0, 64, 63
1, 34574, Control_c, 0, 64, 58
1, 34586, Note_off_c, 0, 79, 51
1, 34589, Control_c, 0, 64, 51
1, 34604, Control_c, 0, 64, 41
1, 34618, Control_c, 0, 64, 32
1, 34633, Control_c, 0, 64, 0
1, 34645, Note_off_c, 0, 55, 36
1, 34647, Note_on_c, 0, 77, 64
1, 34654, Note_on_c, 0, 48, 44
1, 34663, Control_c, 0, 64, 30
1, 34678, Control_c, 0, 64, 36
1, 34693, Control_c, 0, 64, 43
1, 34707, Control_c, 0, 64, 50
1, 34715, Note_on_c, 0, 75, 70
1, 34722, Control_c, 0, 64, 55
1, 34737, Control_c, 0, 64, 58
1, 34740, Note_off_c, 0, 48, 60
1, 34750, Note_off_c, 0, 77, 59
1, 34752, Control_c, 0, 64, 60
1, 34767, Control_c, 0, 64, 61
1, 34779, Note_on_c, 0, 74, 75
1, 34782, Control_c, 0, 64, 62
1, 34788, Note_on_c, 0, 51, 38
1, 34797, Control_c, 0, 64, 62
1, 34812, Control_c, 0, 64, 63
1, 34849, Note_on_c, 0, 72, 71
1, 34852, Note_off_c, 0, 75, 59
1, 34856, Control_c, 0, 64, 62
1, 34860, Note_off_c, 0, 51, 53
1, 34869, Note_off_c, 0, 74, 62
1, 34870, Control_c, 0, 64, 62
1, 34885, Control_c, 0, 64, 59
1, 34900, Control_c, 0, 64, 54
1, 34915, Control_c, 0, 64, 47
1, 34930, Control_c, 0, 64, 37
1, 34944, Control_c, 0, 64, 0
1, 34950, Note_off_c, 0, 72, 58
1, 34971, Note_on_c, 0, 79, 92
1, 34986, Note_on_c, 0, 55, 45
1, 34988, Note_on_c, 0, 43, 45
1, 35122, Control_c, 0, 64, 32
1, 35138, Control_c, 0, 64, 45
1, 35150, Note_off_c, 0, 43, 61
1, 35153, Control_c, 0, 64, 56
1, 35167, Control_c, 0, 64, 63
1, 35182, Control_c, 0, 64, 67
1, 35197, Control_c, 0, 64, 71
1, 35220, Control_c, 0, 64, 74
1, 35235, Control_c, 0, 64, 78
1, 35249, Control_c, 0, 64, 81
1, 35263, Note_off_c, 0, 79, 63
1, 35264, Control_c, 0, 64, 83
1, 35273, Note_on_c, 0, 80, 20
1, 35279, Control_c, 0, 64, 84
1, 35313, Note_off_c, 0, 55, 49
1, 35316, Note_off_c, 0, 80, 40
1, 35397, Control_c, 0, 64, 83
1, 35412, Control_c, 0, 64, 82
1, 35427, Control_c, 0, 64, 80
1, 35437, Note_on_c, 0, 56, 62
1, 35441, Control_c, 0, 64, 79
1, 35456, Note_on_c, 0, 80, 72
1, 35456, Control_c, 0, 64, 77
1, 35471, Control_c, 0, 64, 75
1, 35477, Note_off_c, 0, 56, 59
1, 35486, Control_c, 0, 64, 71
1, 35500, Control_c, 0, 64, 68
1, 35515, Control_c, 0, 64, 64
1, 35517, Note_on_c, 0, 55, 62
1, 35530, Note_on_c, 0, 79, 80
1, 35530, Control_c, 0, 64, 60
1, 35545, Control_c, 0, 64, 54
1, 35560, Note_off_c, 0, 80, 63
1, 35560, Control_c, 0, 64, 48
1, 35563, Note_off_c, 0, 55, 58
1, 35575, Control_c, 0, 64, 42
1, 35578, Note_on_c, 0, 53, 62
1, 35590, Control_c, 0, 64, 35
1, 35599, Note_off_c, 0, 79, 65
1, 35602, Note_on_c, 0, 77, 75
1, 35605, Control_c, 0, 64, 0
1, 35632, Note_off_c, 0, 53, 61
1, 35652, Note_on_c, 0, 51, 55
1, 35653, Note_off_c, 0, 77, 63
1, 35666, Note_on_c, 0, 75, 77
1, 35727, Note_off_c, 0, 51, 62
1, 35731, Note_on_c, 0, 74, 81
1, 35732, Note_on_c, 0, 50, 54
1, 35771, Note_off_c, 0, 75, 61
1, 35772, Note_off_c, 0, 50, 63
1, 35781, Note_on_c, 0, 48, 49
1, 35793, Note_on_c, 0, 72, 78
1, 35807, Note_off_c, 0, 74, 63
1, 35838, Note_off_c, 0, 48, 61
1, 35862, Note_off_c, 0, 72, 63
1, 35885, Note_on_c, 0, 79, 93
1, 35893, Note_on_c, 0, 55, 54
1, 35933, Note_off_c, 0, 55, 61
1, 35933, Note_off_c, 0, 79, 69
1, 36278, Note_on_c, 0, 67, 54
1, 36284, Note_on_c, 0, 43, 36
1, 36364, Note_off_c, 0, 43, 52
1, 36380, Note_off_c, 0, 67, 51
1, 36604, Control_c, 0, 67, 21
1, 36619, Control_c, 0, 67, 27
1, 36634, Control_c, 0, 67, 35
1, 36649, Control_c, 0, 67, 51
1, 36664, Control_c, 0, 67, 72
1, 36679, Control_c, 0, 67, 97
1, 36694, Control_c, 0, 67, 114
1, 36716, Control_c, 0, 67, 127
1, 36910, Control_c, 0, 67, 124
1, 36925, Control_c, 0, 67, 121
1, 36936, Note_on_c, 0, 48, 35
1, 36939, Control_c, 0, 67, 117
1, 36954, Control_c, 0, 67, 111
1, 36969, Control_c, 0, 67, 105
1, 36973, Note_on_c, 0, 55, 30
1, 36978, Note_on_c, 0, 67, 47
1, 36984, Control_c, 0, 67, 95
1, 36999, Control_c, 0, 67, 85
1, 37013, Control_c, 0, 67, 77
1, 37028, Control_c, 0, 67, 69
1, 37030, Note_off_c, 0, 67, 58
1, 37043, Control_c, 0, 67, 62
1, 37045, Note_on_c, 0, 60, 37
1, 37050, Note_on_c, 0, 76, 50
1, 37057, Control_c, 0, 67, 55
1, 37072, Control_c, 0, 67, 47
1, 37073, Note_off_c, 0, 55, 39
1, 37080, Note_off_c, 0, 48, 37
1, 37087, Control_c, 0, 67, 36
1, 37092, Note_off_c, 0, 76, 63
1, 37102, Control_c, 0, 67, 28
1, 37117, Control_c, 0, 67, 19
1, 37132, Control_c, 0, 67, 0
1, 37174, Note_off_c, 0, 60, 57
1, 37381, Note_on_c, 0, 76, 58
1, 37420, Note_off_c, 0, 76, 63
1, 37683, Note_on_c, 0, 76, 73
1, 37737, Note_off_c, 0, 76, 62
1, 37846, Note_on_c, 0, 55, 42
1, 37897, Note_on_c, 0, 62, 37
1, 37950, Note_on_c, 0, 71, 55
1, 37976, Note_on_c, 0, 65, 40
1, 38030, Note_on_c, 0, 79, 78
1, 38091, Note_off_c, 0, 55, 31
1, 38148, Note_off_c, 0, 62, 36
1, 38177, Note_off_c, 0, 71, 29
1, 38190, Note_off_c, 0, 65, 44
1, 38516, Note_on_c, 0, 77, 48
1, 38533, Note_off_c, 0, 79, 48
1, 38645, Note_off_c, 0, 77, 53
1, 38673, Note_on_c, 0, 74, 51
1, 38718, Control_c, 0, 64, 44
1, 38733, Control_c, 0, 64, 58
1, 38748, Note_off_c, 0, 74, 62
1, 38748, Control_c, 0, 64, 65
1, 38763, Control_c, 0, 64, 73
1, 38777, Control_c, 0, 64, 84
1, 38792, Control_c, 0, 64, 99
1, 38807, Control_c, 0, 64, 127
1, 38941, Control_c, 0, 64, 113
1, 38963, Control_c, 0, 64, 97
1, 38978, Control_c, 0, 64, 86
1, 38993, Control_c, 0, 64, 77
1, 39008, Control_c, 0, 64, 68
1, 39021, Note_on_c, 0, 74, 57
1, 39023, Control_c, 0, 64, 62
1, 39024, Note_on_c, 0, 48, 32
1, 39036, Note_on_c, 0, 64, 30
1, 39037, Control_c, 0, 64, 55
1, 39052, Control_c, 0, 64, 53
1, 39067, Control_c, 0, 64, 53
1, 39082, Control_c, 0, 64, 55
1, 39097, Control_c, 0, 64, 58
1, 39111, Control_c, 0, 64, 61
1, 39126, Control_c, 0, 64, 64
1, 39142, Control_c, 0, 64, 68
1, 39157, Control_c, 0, 64, 74
1, 39162, Note_on_c, 0, 72, 64
1, 39172, Control_c, 0, 64, 83
1, 39178, Note_off_c, 0, 64, 40
1, 39185, Note_off_c, 0, 48, 39
1, 39187, Control_c, 0, 64, 90
1, 39200, Note_off_c, 0, 74, 39
1, 39202, Control_c, 0, 64, 97
1, 39216, Control_c, 0, 64, 99
1, 39230, Note_off_c, 0, 72, 61
1, 39290, Control_c, 0, 64, 95
1, 39305, Control_c, 0, 64, 90
1, 39320, Control_c, 0, 64, 84
1, 39331, Note_on_c, 0, 52, 53
1, 39334, Note_on_c, 0, 72, 71
1, 39334, Control_c, 0, 64, 78
1, 39346, Note_on_c, 0, 67, 51
1, 39349, Control_c, 0, 64, 72
1, 39364, Control_c, 0, 64, 67
1, 39379, Control_c, 0, 64, 64
1, 39393, Control_c, 0, 64, 61
1, 39408, Control_c, 0, 64, 58
1, 39423, Control_c, 0, 64, 56
1, 39438, Control_c, 0, 64, 54
1, 39453, Control_c, 0, 64, 53
1, 39468, Control_c, 0, 64, 52
1, 39483, Control_c, 0, 64, 50
1, 39487, Note_off_c, 0, 52, 56
1, 39498, Control_c, 0, 64, 48
1, 39513, Control_c, 0, 64, 46
1, 39528, Control_c, 0, 64, 42
1, 39542, Control_c, 0, 64, 36
1, 39557, Control_c, 0, 64, 0
1, 39624, Note_on_c, 0, 55, 60
1, 39683, Note_off_c, 0, 55, 59
1, 39695, Note_off_c, 0, 67, 51
1, 39741, Control_c, 0, 64, 36
1, 39751, Note_on_c, 0, 74, 65
1, 39756, Note_on_c, 0, 71, 58
1, 39756, Control_c, 0, 64, 54
1, 39769, Note_off_c, 0, 72, 40
1, 39771, Control_c, 0, 64, 63
1, 39785, Control_c, 0, 64, 68
1, 39790, Note_off_c, 0, 71, 64
1, 39800, Control_c, 0, 64, 71
1, 39814, Note_off_c, 0, 74, 62
1, 39815, Control_c, 0, 64, 72
1, 39830, Control_c, 0, 64, 73
1, 39889, Control_c, 0, 64, 73
1, 39904, Control_c, 0, 64, 72
1, 39919, Control_c, 0, 64, 70
1, 39932, Note_on_c, 0, 60, 46
1, 39935, Control_c, 0, 64, 67
1, 39942, Note_on_c, 0, 74, 66
1, 39948, Note_on_c, 0, 71, 50
1, 39950, Control_c, 0, 64, 64
1, 39964, Control_c, 0, 64, 60
1, 39979, Control_c, 0, 64, 55
1, 39994, Control_c, 0, 64, 51
1, 40008, Control_c, 0, 64, 47
1, 40023, Control_c, 0, 64, 44
1, 40038, Control_c, 0, 64, 40
1, 40047, Note_off_c, 0, 60, 38
1, 40053, Control_c, 0, 64, 36
1, 40068, Control_c, 0, 64, 30
1, 40082, Control_c, 0, 64, 0
1, 40256, Note_on_c, 0, 48, 36
1, 40350, Note_off_c, 0, 48, 59
1, 40583, Note_off_c, 0, 71, 36
1, 40606, Note_off_c, 0, 74, 24
1, 40622, Note_on_c, 0, 72, 41
1, 40624, Note_on_c, 0, 76, 44
1, 40668, Control_c, 0, 64, 35
1, 40682, Control_c, 0, 64, 52
1, 40697, Control_c, 0, 64, 62
1, 40712, Control_c, 0, 64, 67
1, 40719, Note_off_c, 0, 72, 55
1, 40728, Control_c, 0, 64, 72
1, 40743, Control_c, 0, 64, 79
1, 40753, Note_off_c, 0, 76, 57
1, 40758, Control_c, 0, 64, 86
1, 40773, Control_c, 0, 64, 93
1, 40787, Control_c, 0, 64, 98
1, 40905, Control_c, 0, 64, 95
1, 40920, Control_c, 0, 64, 90
1, 40935, Control_c, 0, 64, 84
1, 40944, Note_on_c, 0, 77, 60
1, 40950, Control_c, 0, 64, 78
1, 40961, Note_on_c, 0, 57, 39
1, 40964, Control_c, 0, 64, 69
1, 40979, Control_c, 0, 64, 62
1, 40994, Control_c, 0, 64, 54
1, 41009, Control_c, 0, 64, 46
1, 41024, Control_c, 0, 64, 43
1, 41039, Control_c, 0, 64, 43
1, 41054, Control_c, 0, 64, 45
1, 41069, Control_c, 0, 64, 49
1, 41084, Control_c, 0, 64, 53
1, 41099, Control_c, 0, 64, 58
1, 41113, Control_c, 0, 64, 63
1, 41128, Control_c, 0, 64, 67
1, 41143, Control_c, 0, 64, 72
1, 41157, Control_c, 0, 64, 78
1, 41172, Control_c, 0, 64, 82
1, 41178, Note_off_c, 0, 77, 58
1, 41187, Control_c, 0, 64, 86
1, 41209, Control_c, 0, 64, 89
1, 41224, Control_c, 0, 64, 91
1, 41239, Control_c, 0, 64, 91
1, 41276, Note_on_c, 0, 60, 41
1, 41283, Control_c, 0, 64, 91
1, 41292, Note_on_c, 0, 65, 42
1, 41313, Control_c, 0, 64, 90
1, 41328, Control_c, 0, 64, 88
1, 41343, Control_c, 0, 64, 86
1, 41357, Control_c, 0, 64, 83
1, 41362, Note_on_c, 0, 79, 64
1, 41372, Control_c, 0, 64, 81
1, 41387, Control_c, 0, 64, 79
1, 41402, Control_c, 0, 64, 77
1, 41406, Note_off_c, 0, 57, 41
1, 41416, Note_on_c, 0, 77, 70
1, 41417, Note_off_c, 0, 65, 50
1, 41417, Control_c, 0, 64, 75
1, 41427, Note_off_c, 0, 79, 64
1, 41431, Control_c, 0, 64, 72
1, 41437, Note_off_c, 0, 60, 56
1, 41446, Control_c, 0, 64, 70
1, 41455, Note_off_c, 0, 77, 61
1, 41461, Control_c, 0, 64, 67
1, 41471, Note_on_c, 0, 76, 71
1, 41476, Control_c, 0, 64, 65
1, 41491, Control_c, 0, 64, 63
1, 41505, Control_c, 0, 64, 60
1, 41520, Control_c, 0, 64, 56
1, 41524, Note_on_c, 0, 77, 70
1, 41536, Control_c, 0, 64, 52
1, 41551, Control_c, 0, 64, 48
1, 41566, Control_c, 0, 64, 44
1, 41580, Control_c, 0, 64, 41
1, 41583, Note_off_c, 0, 76, 50
1, 41595, Control_c, 0, 64, 40
1, 41617, Note_on_c, 0, 79, 76
1, 41625, Control_c, 0, 64, 40
1, 41639, Note_off_c, 0, 77, 62
1, 41640, Control_c, 0, 64, 42
1, 41654, Control_c, 0, 64, 46
1, 41669, Control_c, 0, 64, 51
1, 41684, Control_c, 0, 64, 55
1, 41699, Control_c, 0, 64, 59
1, 41714, Control_c, 0, 64, 61
1, 41728, Control_c, 0, 64, 63
1, 41743, Control_c, 0, 64, 65
1, 41758, Control_c, 0, 64, 67
1, 41765, Note_on_c, 0, 81, 85
1, 41772, Control_c, 0, 64, 68
1, 41778, Note_off_c, 0, 79, 64
1, 41832, Control_c, 0, 64, 67
1, 41837, Note_off_c, 0, 81, 62
1, 41847, Control_c, 0, 64, 67
1, 41862, Control_c, 0, 64, 66
1, 41877, Control_c, 0, 64, 66
1, 41892, Control_c, 0, 64, 64
1, 41907, Control_c, 0, 64, 63
1, 41922, Control_c, 0, 64, 62
1, 41936, Control_c, 0, 64, 60
1, 41959, Note_on_c, 0, 59, 42
1, 41959, Control_c, 0, 64, 60
1, 41966, Note_on_c, 0, 81, 74
1, 41974, Control_c, 0, 64, 59
1, 41988, Control_c, 0, 64, 59
1, 42003, Control_c, 0, 64, 58
1, 42018, Control_c, 0, 64, 57
1, 42033, Control_c, 0, 64, 56
1, 42048, Control_c, 0, 64, 55
1, 42062, Control_c, 0, 64, 53
1, 42077, Control_c, 0, 64, 50
1, 42092, Control_c, 0, 64, 48
1, 42107, Control_c, 0, 64, 44
1, 42122, Control_c, 0, 64, 41
1, 42130, Note_on_c, 0, 79, 79
1, 42136, Control_c, 0, 64, 38
1, 42151, Control_c, 0, 64, 36
1, 42166, Control_c, 0, 64, 33
1, 42181, Control_c, 0, 64, 30
1, 42196, Control_c, 0, 64, 0
1, 42199, Note_off_c, 0, 81, 54
1, 42279, Note_on_c, 0, 78, 71
1, 42289, Note_on_c, 0, 67, 40
1, 42295, Note_on_c, 0, 62, 38
1, 42303, Note_off_c, 0, 79, 62
1, 42355, Note_off_c, 0, 59, 19
1, 42392, Note_off_c, 0, 67, 57
1, 42416, Note_off_c, 0, 62, 57
1, 42425, Note_on_c, 0, 79, 73
1, 42458, Note_off_c, 0, 78, 63
1, 42589, Note_on_c, 0, 77, 59
1, 42614, Note_off_c, 0, 79, 60
1, 42726, Note_on_c, 0, 74, 59
1, 42728, Note_off_c, 0, 77, 64
1, 42800, Note_off_c, 0, 74, 58
1, 42882, Note_on_c, 0, 60, 41
1, 42887, Note_on_c, 0, 75, 57
1, 43018, Note_off_c, 0, 60, 35
1, 43032, Note_on_c, 0, 76, 68
1, 43074, Note_off_c, 0, 75, 60
1, 43179, Note_on_c, 0, 77, 67
1, 43191, Note_on_c, 0, 57, 38
1, 43192, Note_on_c, 0, 60, 35
1, 43217, Note_off_c, 0, 76, 62
1, 43322, Note_on_c, 0, 76, 80
1, 43353, Note_off_c, 0, 77, 60
1, 43404, Note_off_c, 0, 60, 37
1, 43416, Note_off_c, 0, 57, 41
1, 43484, Note_on_c, 0, 79, 77
1, 43489, Note_on_c, 0, 53, 36
1, 43498, Note_on_c, 0, 62, 34
1, 43500, Note_off_c, 0, 76, 58
1, 43626, Note_on_c, 0, 77, 66
1, 43675, Note_off_c, 0, 79, 56
1, 43769, Note_off_c, 0, 53, 35
1, 43782, Note_off_c, 0, 62, 29
1, 43785, Note_on_c, 0, 55, 42
1, 43794, Note_on_c, 0, 76, 59
1, 43809, Note_on_c, 0, 59, 23
1, 43823, Note_off_c, 0, 77, 57
1, 43943, Note_on_c, 0, 74, 60
1, 43971, Note_off_c, 0, 76, 61
1, 44060, Note_off_c, 0, 55, 37
1, 44076, Note_off_c, 0, 74, 63
1, 44091, Note_off_c, 0, 59, 43
1, 44095, Note_on_c, 0, 72, 54
1, 44244, Note_off_c, 0, 72, 61
1, 44247, Note_on_c, 0, 71, 48
1, 44410, Note_on_c, 0, 69, 43
1, 44421, Note_off_c, 0, 71, 58
1, 44539, Note_off_c, 0, 69, 61
1, 44585, Note_on_c, 0, 67, 39
1, 44615, Note_off_c, 0, 67, 59
1, 44744, Note_on_c, 0, 60, 39
1, 44747, Note_on_c, 0, 75, 47
1, 44867, Note_on_c, 0, 64, 39
1, 44887, Note_off_c, 0, 60, 37
1, 44917, Note_on_c, 0, 76, 61
1, 44933, Note_off_c, 0, 75, 57
1, 44953, Note_off_c, 0, 64, 54
1, 44959, Note_off_c, 0, 76, 63
1, 44971, Note_on_c, 0, 67, 45
1, 45034, Note_off_c, 0, 67, 56
1, 45060, Note_on_c, 0, 75, 68
1, 45085, Note_on_c, 0, 60, 38
1, 45179, Note_on_c, 0, 64, 49
1, 45200, Note_off_c, 0, 60, 38
1, 45204, Note_on_c, 0, 76, 74
1, 45225, Note_off_c, 0, 75, 61
1, 45258, Note_off_c, 0, 64, 58
1, 45258, Note_off_c, 0, 76, 62
1, 45266, Note_on_c, 0, 67, 50
1, 45325, Note_off_c, 0, 67, 55
1, 45347, Note_on_c, 0, 75, 76
1, 45367, Note_on_c, 0, 60, 47
1, 45471, Note_off_c, 0, 60, 59
1, 45472, Note_on_c, 0, 64, 47
1, 45480, Note_on_c, 0, 76, 81
1, 45504, Note_off_c, 0, 75, 62
1, 45534, Note_off_c, 0, 64, 56
1, 45536, Note_off_c, 0, 76, 64
1, 45549, Note_on_c, 0, 67, 52
1, 45613, Note_off_c, 0, 67, 57
1, 45637, Note_on_c, 0, 78, 77
1, 45649, Note_on_c, 0, 59, 50
1, 45766, Note_off_c, 0, 59, 58
1, 45767, Note_on_c, 0, 62, 49
1, 45791, Note_on_c, 0, 79, 79
1, 45820, Note_off_c, 0, 78, 62
1, 45844, Note_off_c, 0, 79, 65
1, 45859, Note_off_c, 0, 62, 60
1, 45862, Note_on_c, 0, 67, 49
1, 45935, Note_on_c, 0, 78, 76
1, 45943, Note_off_c, 0, 67, 55
1, 45959, Note_on_c, 0, 59, 50
1, 46055, Note_off_c, 0, 59, 57
1, 46059, Note_on_c, 0, 62, 51
1, 46074, Note_on_c, 0, 79, 76
1, 46106, Note_off_c, 0, 78, 61
1, 46120, Note_off_c, 0, 79, 64
1, 46146, Note_off_c, 0, 62, 58
1, 46164, Note_on_c, 0, 67, 47
1, 46223, Note_off_c, 0, 67, 57
1, 46225, Note_on_c, 0, 77, 63
1, 46238, Note_on_c, 0, 59, 49
1, 46342, Note_on_c, 0, 65, 53
1, 46362, Note_on_c, 0, 74, 65
1, 46372, Note_off_c, 0, 77, 51
1, 46394, Note_off_c, 0, 65, 59
1, 46414, Note_off_c, 0, 74, 61
1, 46434, Note_on_c, 0, 67, 50
1, 46460, Note_off_c, 0, 59, 36
1, 46498, Note_off_c, 0, 67, 56
1, 46538, Note_on_c, 0, 74, 66
1, 46551, Note_on_c, 0, 60, 48
1, 46553, Note_on_c, 0, 64, 40
1, 46583, Note_off_c, 0, 64, 59
1, 46603, Note_off_c, 0, 60, 61
1, 46682, Note_on_c, 0, 72, 67
1, 46696, Note_off_c, 0, 74, 61
1, 46722, Note_off_c, 0, 72, 63
1, 46827, Note_on_c, 0, 52, 64
1, 46830, Note_on_c, 0, 74, 71
1, 46837, Note_on_c, 0, 67, 59
1, 46906, Note_off_c, 0, 52, 62
1, 46977, Note_on_c, 0, 72, 78
1, 46994, Note_off_c, 0, 74, 60
1, 47017, Note_off_c, 0, 67, 58
1, 47034, Note_off_c, 0, 72, 62
1, 47124, Note_on_c, 0, 55, 59
1, 47132, Note_on_c, 0, 76, 80
1, 47139, Note_on_c, 0, 71, 64
1, 47186, Note_off_c, 0, 55, 55
1, 47277, Note_on_c, 0, 74, 78
1, 47284, Note_off_c, 0, 71, 55
1, 47308, Note_off_c, 0, 76, 60
1, 47344, Note_off_c, 0, 74, 62
1, 47451, Note_on_c, 0, 74, 75
1, 47453, Note_on_c, 0, 71, 56
1, 47456, Note_on_c, 0, 60, 45
1, 47603, Note_off_c, 0, 60, 42
1, 47769, Note_on_c, 0, 55, 44
1, 47816, Note_off_c, 0, 55, 55
1, 47912, Note_on_c, 0, 75, 54
1, 47916, Note_off_c, 0, 74, 59
1, 48050, Note_off_c, 0, 71, 37
1, 48093, Note_off_c, 0, 75, 35
1, 48100, Note_on_c, 0, 76, 56
1, 48124, Note_on_c, 0, 48, 32
1, 48128, Note_on_c, 0, 72, 35
1, 48171, Control_c, 0, 64, 32
1, 48186, Control_c, 0, 64, 50
1, 48201, Control_c, 0, 64, 58
1, 48211, Note_off_c, 0, 72, 52
1, 48215, Control_c, 0, 64, 65
1, 48229, Note_off_c, 0, 48, 59
1, 48230, Control_c, 0, 64, 75
1, 48245, Control_c, 0, 64, 94
1, 48251, Note_off_c, 0, 76, 61
1, 48260, Control_c, 0, 64, 127
1, 48481, Note_on_c, 0, 57, 46
1, 48482, Control_c, 0, 64, 113
1, 48486, Note_on_c, 0, 77, 60
1, 48497, Control_c, 0, 64, 98
1, 48512, Control_c, 0, 64, 86
1, 48527, Control_c, 0, 64, 73
1, 48541, Control_c, 0, 64, 63
1, 48556, Control_c, 0, 64, 51
1, 48571, Control_c, 0, 64, 36
1, 48586, Control_c, 0, 64, 0
1, 48630, Control_c, 0, 64, 35
1, 48645, Control_c, 0, 64, 44
1, 48652, Note_on_c, 0, 60, 43
1, 48660, Control_c, 0, 64, 53
1, 48674, Control_c, 0, 64, 60
1, 48697, Control_c, 0, 64, 64
1, 48712, Control_c, 0, 64, 67
1, 48727, Control_c, 0, 64, 70
1, 48742, Control_c, 0, 64, 74
1, 48748, Note_off_c, 0, 57, 32
1, 48757, Control_c, 0, 64, 76
1, 48771, Control_c, 0, 64, 78
1, 48786, Control_c, 0, 64, 79
1, 48789, Note_off_c, 0, 77, 62
1, 48817, Note_off_c, 0, 60, 56
1, 48820, Note_on_c, 0, 65, 49
1, 48880, Note_on_c, 0, 79, 67
1, 48905, Control_c, 0, 64, 78
1, 48920, Control_c, 0, 64, 77
1, 48926, Note_on_c, 0, 77, 64
1, 48935, Control_c, 0, 64, 75
1, 48936, Note_off_c, 0, 79, 64
1, 48950, Control_c, 0, 64, 72
1, 48964, Control_c, 0, 64, 67
1, 48965, Note_off_c, 0, 77, 63
1, 48979, Control_c, 0, 64, 62
1, 48982, Note_on_c, 0, 76, 65
1, 48994, Control_c, 0, 64, 56
1, 48999, Note_on_c, 0, 60, 20
1, 49003, Note_off_c, 0, 65, 40
1, 49009, Control_c, 0, 64, 52
1, 49024, Control_c, 0, 64, 50
1, 49029, Note_on_c, 0, 77, 71
1, 49038, Control_c, 0, 64, 49
1, 49053, Control_c, 0, 64, 50
1, 49068, Control_c, 0, 64, 51
1, 49083, Control_c, 0, 64, 54
1, 49097, Control_c, 0, 64, 57
1, 49102, Note_on_c, 0, 79, 85
1, 49103, Note_off_c, 0, 76, 38
1, 49105, Note_on_c, 0, 57, 55
1, 49112, Control_c, 0, 64, 60
1, 49123, Note_off_c, 0, 60, 52
1, 49127, Control_c, 0, 64, 63
1, 49129, Note_off_c, 0, 77, 64
1, 49142, Control_c, 0, 64, 65
1, 49157, Control_c, 0, 64, 66
1, 49171, Control_c, 0, 64, 67
1, 49186, Control_c, 0, 64, 68
1, 49201, Control_c, 0, 64, 68
1, 49245, Note_on_c, 0, 81, 83
1, 49245, Control_c, 0, 64, 68
1, 49256, Note_on_c, 0, 60, 53
1, 49272, Note_off_c, 0, 79, 63
1, 49275, Control_c, 0, 64, 67
1, 49290, Control_c, 0, 64, 66
1, 49302, Note_off_c, 0, 81, 62
1, 49305, Control_c, 0, 64, 65
1, 49306, Note_off_c, 0, 57, 34
1, 49320, Control_c, 0, 64, 65
1, 49335, Control_c, 0, 64, 64
1, 49350, Control_c, 0, 64, 63
1, 49365, Control_c, 0, 64, 62
1, 49380, Control_c, 0, 64, 60
1, 49394, Control_c, 0, 64, 58
1, 49409, Control_c, 0, 64, 56
1, 49421, Note_on_c, 0, 81, 74
1, 49424, Control_c, 0, 64, 55
1, 49424, Note_on_c, 0, 59, 49
1, 49426, Note_off_c, 0, 60, 43
1, 49446, Control_c, 0, 64, 53
1, 49461, Control_c, 0, 64, 50
1, 49476, Control_c, 0, 64, 45
1, 49491, Control_c, 0, 64, 39
1, 49505, Control_c, 0, 64, 30
1, 49521, Control_c, 0, 64, 0
1, 49582, Note_on_c, 0, 62, 52
1, 49585, Note_on_c, 0, 79, 80
1, 49638, Note_off_c, 0, 59, 48
1, 49651, Note_off_c, 0, 81, 56
1, 49736, Note_on_c, 0, 78, 78
1, 49743, Note_on_c, 0, 67, 49
1, 49758, Note_off_c, 0, 62, 59
1, 49766, Note_off_c, 0, 79, 64
1, 49879, Note_on_c, 0, 79, 81
1, 49886, Note_on_c, 0, 62, 58
1, 49916, Note_off_c, 0, 78, 63
1, 49949, Note_off_c, 0, 67, 36
1, 50027, Note_off_c, 0, 62, 55
1, 50030, Note_on_c, 0, 77, 72
1, 50035, Note_on_c, 0, 59, 46
1, 50063, Note_off_c, 0, 79, 63
1, 50165, Note_on_c, 0, 62, 46
1, 50169, Note_off_c, 0, 77, 63
1, 50170, Note_on_c, 0, 74, 75
1, 50187, Note_off_c, 0, 59, 45
1, 50225, Note_off_c, 0, 74, 62
1, 50260, Note_off_c, 0, 62, 52
1, 50326, Note_on_c, 0, 75, 74
1, 50332, Note_on_c, 0, 60, 46
1, 50437, Note_off_c, 0, 60, 39
1, 50470, Note_on_c, 0, 76, 80
1, 50508, Note_off_c, 0, 75, 62
1, 50626, Note_on_c, 0, 79, 81
1, 50629, Note_on_c, 0, 53, 47
1, 50633, Note_on_c, 0, 62, 42
1, 50638, Note_off_c, 0, 76, 58
1, 50685, Note_off_c, 0, 53, 60
1, 50713, Note_off_c, 0, 62, 45
1, 50763, Note_on_c, 0, 77, 74
1, 50853, Note_off_c, 0, 79, 38
1, 50909, Note_on_c, 0, 74, 78
1, 50914, Note_on_c, 0, 55, 49
1, 50933, Note_on_c, 0, 65, 43
1, 50947, Note_off_c, 0, 77, 59
1, 50967, Note_off_c, 0, 55, 56
1, 50971, Note_off_c, 0, 65, 59
1, 51053, Note_off_c, 0, 74, 62
1, 51060, Note_on_c, 0, 71, 73
1, 51186, Note_off_c, 0, 71, 51
1, 51202, Note_on_c, 0, 60, 51
1, 51205, Note_on_c, 0, 72, 74
1, 51237, Note_off_c, 0, 60, 67
1, 51255, Control_c, 0, 67, 20
1, 51270, Control_c, 0, 67, 25
1, 51285, Control_c, 0, 67, 30
1, 51299, Control_c, 0, 67, 39
1, 51314, Control_c, 0, 67, 48
1, 51319, Note_off_c, 0, 72, 61
1, 51329, Control_c, 0, 67, 57
1, 51344, Control_c, 0, 67, 63
1, 51347, Note_on_c, 0, 67, 68
1, 51359, Control_c, 0, 67, 65
1, 51374, Note_off_c, 0, 67, 68
1, 51374, Control_c, 0, 67, 67
1, 51389, Control_c, 0, 67, 69
1, 51404, Control_c, 0, 67, 76
1, 51418, Control_c, 0, 67, 86
1, 51433, Control_c, 0, 67, 96
1, 51448, Control_c, 0, 67, 104
1, 51463, Control_c, 0, 67, 107
1, 51488, Note_on_c, 0, 64, 54
1, 51535, Note_off_c, 0, 64, 59
1, 51645, Note_on_c, 0, 67, 51
1, 51669, Note_off_c, 0, 67, 62
1, 51793, Note_on_c, 0, 60, 53
1, 51858, Note_off_c, 0, 60, 56
1, 51939, Note_on_c, 0, 67, 54
1, 51967, Note_off_c, 0, 67, 64
1, 51976, Control_c, 0, 67, 105
1, 52069, Note_on_c, 0, 67, 58
1, 52079, Note_on_c, 0, 62, 48
1, 52083, Note_on_c, 0, 65, 59
1, 52109, Note_off_c, 0, 67, 65
1, 52113, Note_off_c, 0, 62, 64
1, 52116, Note_off_c, 0, 65, 66
1, 52222, Note_on_c, 0, 65, 51
1, 52231, Note_on_c, 0, 67, 56
1, 52256, Note_off_c, 0, 65, 66
1, 52257, Note_off_c, 0, 67, 63
1, 52379, Note_on_c, 0, 59, 44
1, 52406, Note_off_c, 0, 59, 57
1, 52518, Note_on_c, 0, 67, 52
1, 52527, Note_on_c, 0, 65, 47
1, 52554, Note_off_c, 0, 67, 65
1, 52559, Note_off_c, 0, 65, 65
1, 52664, Note_on_c, 0, 55, 57
1, 52697, Note_off_c, 0, 55, 64
1, 52811, Note_on_c, 0, 67, 55
1, 52823, Note_on_c, 0, 65, 46
1, 52840, Note_off_c, 0, 67, 64
1, 52849, Note_off_c, 0, 65, 56
1, 52948, Note_on_c, 0, 48, 66
1, 52956, Note_on_c, 0, 67, 53
1, 52962, Note_on_c, 0, 63, 57
1, 52989, Note_off_c, 0, 48, 65
1, 52995, Note_off_c, 0, 67, 60
1, 52997, Note_off_c, 0, 63, 64
1, 53103, Note_on_c, 0, 63, 51
1, 53108, Note_on_c, 0, 67, 57
1, 53138, Note_off_c, 0, 63, 64
1, 53141, Note_off_c, 0, 67, 64
1, 53261, Note_on_c, 0, 51, 50
1, 53291, Note_off_c, 0, 51, 63
1, 53404, Note_on_c, 0, 63, 53
1, 53407, Note_on_c, 0, 67, 47
1, 53434, Note_off_c, 0, 67, 62
1, 53439, Note_off_c, 0, 63, 65
1, 53558, Note_on_c, 0, 48, 52
1, 53590, Note_off_c, 0, 48, 65
1, 53694, Note_on_c, 0, 67, 48
1, 53705, Note_on_c, 0, 63, 43
1, 53732, Note_off_c, 0, 63, 59
1, 53732, Note_off_c, 0, 67, 63
1, 53842, Note_on_c, 0, 50, 58
1, 53842, Note_on_c, 0, 67, 51
1, 53848, Note_on_c, 0, 65, 55
1, 53873, Note_off_c, 0, 50, 64
1, 53879, Note_off_c, 0, 67, 66
1, 53881, Note_off_c, 0, 65, 67
1, 53983, Note_on_c, 0, 65, 57
1, 53984, Note_on_c, 0, 67, 55
1, 54019, Note_off_c, 0, 65, 65
1, 54021, Note_off_c, 0, 67, 64
1, 54102, Control_c, 0, 67, 103
1, 54137, Note_on_c, 0, 47, 56
1, 54168, Note_off_c, 0, 47, 66
1, 54282, Note_on_c, 0, 67, 46
1, 54286, Note_on_c, 0, 65, 41
1, 54313, Note_off_c, 0, 65, 60
1, 54316, Note_off_c, 0, 67, 64
1, 54423, Note_on_c, 0, 43, 58
1, 54453, Note_off_c, 0, 43, 64
1, 54572, Note_on_c, 0, 65, 42
1, 54572, Note_on_c, 0, 67, 41
1, 54597, Note_off_c, 0, 65, 55
1, 54597, Note_off_c, 0, 67, 59
1, 54711, Note_on_c, 0, 67, 63
1, 54712, Note_on_c, 0, 36, 75
1, 54715, Note_on_c, 0, 48, 74
1, 54718, Note_on_c, 0, 63, 69
1, 54718, Control_c, 0, 64, 31
1, 54733, Control_c, 0, 64, 54
1, 54747, Note_off_c, 0, 36, 65
1, 54748, Control_c, 0, 64, 65
1, 54750, Note_off_c, 0, 48, 65
1, 54754, Note_off_c, 0, 63, 62
1, 54757, Note_off_c, 0, 67, 60
1, 54762, Control_c, 0, 64, 73
1, 54777, Control_c, 0, 64, 79
1, 54792, Control_c, 0, 64, 80
1, 54807, Control_c, 0, 64, 78
1, 54822, Control_c, 0, 64, 68
1, 54836, Control_c, 0, 64, 57
1, 54851, Control_c, 0, 64, 34
1, 54866, Note_on_c, 0, 67, 60
1, 54866, Control_c, 0, 64, 0
1, 54874, Note_on_c, 0, 63, 48
1, 54896, Note_off_c, 0, 67, 65
1, 54901, Note_off_c, 0, 63, 59
1, 55016, Note_on_c, 0, 51, 55
1, 55049, Note_off_c, 0, 51, 64
1, 55155, Note_on_c, 0, 67, 56
1, 55165, Note_on_c, 0, 63, 41
1, 55192, Note_off_c, 0, 67, 63
1, 55196, Note_off_c, 0, 63, 59
1, 55309, Note_on_c, 0, 55, 55
1, 55343, Note_off_c, 0, 55, 63
1, 55451, Note_on_c, 0, 67, 53
1, 55461, Note_on_c, 0, 63, 49
1, 55482, Note_off_c, 0, 67, 66
1, 55487, Note_off_c, 0, 63, 60
1, 55589, Note_on_c, 0, 41, 72
1, 55590, Note_on_c, 0, 53, 75
1, 55596, Note_on_c, 0, 63, 61
1, 55598, Note_on_c, 0, 68, 69
1, 55615, Control_c, 0, 64, 33
1, 55626, Note_off_c, 0, 41, 65
1, 55630, Control_c, 0, 64, 57
1, 55630, Note_off_c, 0, 53, 62
1, 55633, Note_off_c, 0, 63, 64
1, 55640, Note_off_c, 0, 68, 60
1, 55645, Control_c, 0, 64, 69
1, 55659, Control_c, 0, 64, 82
1, 55674, Control_c, 0, 64, 101
1, 55689, Control_c, 0, 64, 104
1, 55704, Control_c, 0, 64, 97
1, 55719, Control_c, 0, 64, 75
1, 55733, Control_c, 0, 64, 60
1, 55748, Control_c, 0, 64, 31
1, 55752, Note_on_c, 0, 63, 43
1, 55755, Note_on_c, 0, 68, 48
1, 55763, Control_c, 0, 64, 0
1, 55776, Note_off_c, 0, 68, 61
1, 55777, Note_off_c, 0, 63, 59
1, 55902, Note_on_c, 0, 56, 52
1, 55935, Note_off_c, 0, 56, 63
1, 56024, Note_on_c, 0, 68, 57
1, 56029, Note_on_c, 0, 63, 50
1, 56060, Note_off_c, 0, 68, 65
1, 56066, Note_off_c, 0, 63, 64
1, 56188, Note_on_c, 0, 60, 64
1, 56216, Note_off_c, 0, 60, 68
1, 56322, Note_on_c, 0, 63, 51
1, 56322, Note_on_c, 0, 68, 54
1, 56352, Note_off_c, 0, 63, 62
1, 56357, Note_off_c, 0, 68, 65
1, 56423, Control_c, 0, 67, 101
1, 56459, Note_on_c, 0, 34, 73
1, 56459, Note_on_c, 0, 46, 75
1, 56462, Note_on_c, 0, 68, 71
1, 56465, Note_on_c, 0, 62, 74
1, 56482, Control_c, 0, 64, 44
1, 56492, Note_off_c, 0, 46, 66
1, 56497, Control_c, 0, 64, 61
1, 56501, Note_off_c, 0, 62, 62
1, 56506, Note_off_c, 0, 68, 60
1, 56512, Note_off_c, 0, 34, 60
1, 56512, Control_c, 0, 64, 71
1, 56527, Control_c, 0, 64, 79
1, 56542, Control_c, 0, 64, 80
1, 56556, Control_c, 0, 64, 78
1, 56571, Control_c, 0, 64, 71
1, 56586, Control_c, 0, 64, 60
1, 56600, Control_c, 0, 64, 37
1, 56608, Note_on_c, 0, 62, 60
1, 56610, Note_on_c, 0, 68, 64
1, 56615, Control_c, 0, 64, 0
1, 56642, Note_off_c, 0, 68, 65
1, 56644, Note_off_c, 0, 62, 63
1, 56800, Note_on_c, 0, 50, 19
1, 56845, Note_off_c, 0, 50, 29
1, 56912, Note_on_c, 0, 62, 52
1, 56915, Note_on_c, 0, 68, 58
1, 56957, Note_off_c, 0, 68, 64
1, 56960, Note_off_c, 0, 62, 61
1, 57056, Note_on_c, 0, 53, 60
1, 57084, Note_off_c, 0, 53, 64
1, 57195, Note_on_c, 0, 68, 60
1, 57206, Note_on_c, 0, 62, 47
1, 57231, Note_off_c, 0, 68, 60
1, 57233, Note_off_c, 0, 62, 60
1, 57331, Note_on_c, 0, 51, 79
1, 57332, Note_on_c, 0, 39, 74
1, 57341, Note_on_c, 0, 62, 58
1, 57343, Note_on_c, 0, 67, 66
1, 57350, Control_c, 0, 64, 41
1, 57365, Control_c, 0, 64, 59
1, 57372, Note_off_c, 0, 39, 62
1, 57380, Note_off_c, 0, 67, 62
1, 57380, Control_c, 0, 64, 69
1, 57383, Note_off_c, 0, 51, 62
1, 57389, Note_off_c, 0, 62, 60
1, 57395, Control_c, 0, 64, 78
1, 57410, Control_c, 0, 64, 83
1, 57439, Control_c, 0, 64, 78
1, 57454, Control_c, 0, 64, 68
1, 57454, Control_c, 0, 67, 99
1, 57469, Control_c, 0, 64, 58
1, 57482, Note_on_c, 0, 67, 59
1, 57484, Control_c, 0, 64, 43
1, 57494, Note_on_c, 0, 62, 49
1, 57499, Control_c, 0, 64, 0
1, 57513, Note_off_c, 0, 67, 67
1, 57517, Note_off_c, 0, 62, 63
1, 57637, Note_on_c, 0, 55, 60
1, 57668, Note_off_c, 0, 55, 64
1, 57684, Control_c, 0, 67, 97
1, 57699, Control_c, 0, 67, 96
1, 57714, Control_c, 0, 67, 95
1, 57729, Control_c, 0, 67, 94
1, 57744, Control_c, 0, 67, 92
1, 57759, Control_c, 0, 67, 91
1, 57774, Control_c, 0, 67, 91
1, 57777, Note_on_c, 0, 62, 54
1, 57778, Note_on_c, 0, 67, 57
1, 57810, Note_off_c, 0, 67, 65
1, 57815, Note_off_c, 0, 62, 64
1, 57862, Control_c, 0, 67, 90
1, 57877, Control_c, 0, 67, 89
1, 57892, Control_c, 0, 67, 88
1, 57907, Control_c, 0, 67, 80
1, 57921, Note_on_c, 0, 58, 68
1, 57922, Control_c, 0, 67, 64
1, 57936, Control_c, 0, 67, 43
1, 57950, Note_off_c, 0, 58, 68
1, 57951, Control_c, 0, 67, 21
1, 57966, Control_c, 0, 67, 0
1, 58057, Note_on_c, 0, 67, 59
1, 58070, Note_on_c, 0, 62, 49
1, 58093, Note_off_c, 0, 67, 61
1, 58098, Note_off_c, 0, 62, 59
1, 58197, Note_on_c, 0, 44, 81
1, 58201, Note_on_c, 0, 32, 74
1, 58205, Note_on_c, 0, 67, 71
1, 58209, Note_on_c, 0, 60, 64
1, 58218, Control_c, 0, 64, 39
1, 58233, Control_c, 0, 64, 57
1, 58242, Note_off_c, 0, 32, 62
1, 58245, Note_off_c, 0, 67, 61
1, 58247, Note_off_c, 0, 44, 62
1, 58248, Control_c, 0, 64, 67
1, 58248, Note_off_c, 0, 60, 65
1, 58262, Control_c, 0, 64, 76
1, 58277, Control_c, 0, 64, 86
1, 58292, Control_c, 0, 64, 89
1, 58307, Control_c, 0, 64, 88
1, 58322, Control_c, 0, 64, 79
1, 58337, Control_c, 0, 64, 67
1, 58346, Note_on_c, 0, 67, 64
1, 58351, Control_c, 0, 64, 55
1, 58357, Note_on_c, 0, 60, 53
1, 58366, Control_c, 0, 64, 37
1, 58372, Note_off_c, 0, 67, 65
1, 58381, Control_c, 0, 64, 0
1, 58388, Note_off_c, 0, 60, 67
1, 58521, Note_on_c, 0, 56, 62
1, 58557, Note_off_c, 0, 56, 65
1, 58641, Note_on_c, 0, 67, 59
1, 58648, Note_on_c, 0, 60, 51
1, 58677, Note_off_c, 0, 67, 61
1, 58686, Note_off_c, 0, 60, 63
1, 58786, Note_on_c, 0, 38, 77
1, 58787, Note_on_c, 0, 50, 78
1, 58790, Note_on_c, 0, 65, 72
1, 58794, Note_on_c, 0, 60, 59
1, 58817, Control_c, 0, 64, 40
1, 58828, Note_off_c, 0, 38, 63
1, 58830, Note_off_c, 0, 65, 62
1, 58832, Control_c, 0, 64, 59
1, 58834, Note_off_c, 0, 50, 60
1, 58843, Note_off_c, 0, 60, 60
1, 58847, Control_c, 0, 64, 70
1, 58862, Control_c, 0, 64, 86
1, 58877, Control_c, 0, 64, 127
1, 58926, Note_on_c, 0, 65, 69
1, 58936, Control_c, 0, 64, 115
1, 58951, Control_c, 0, 64, 85
1, 58956, Note_on_c, 0, 60, 43
1, 58958, Note_off_c, 0, 65, 65
1, 58966, Control_c, 0, 64, 70
1, 58979, Note_off_c, 0, 60, 61
1, 58981, Control_c, 0, 64, 62
1, 58996, Control_c, 0, 64, 51
1, 59010, Control_c, 0, 64, 42
1, 59025, Control_c, 0, 64, 32
1, 59040, Control_c, 0, 64, 0
1, 59081, Note_on_c, 0, 62, 74
1, 59106, Note_off_c, 0, 62, 68
1, 59224, Note_on_c, 0, 65, 67
1, 59225, Note_on_c, 0, 60, 62
1, 59271, Note_off_c, 0, 65, 59
1, 59274, Note_off_c, 0, 60, 63
1, 59358, Note_on_c, 0, 31, 78
1, 59359, Note_on_c, 0, 43, 83
1, 59372, Note_on_c, 0, 65, 75
1, 59377, Note_on_c, 0, 59, 61
1, 59391, Note_off_c, 0, 43, 67
1, 59391, Note_off_c, 0, 31, 66
1, 59404, Control_c, 0, 64, 39
1, 59410, Note_off_c, 0, 65, 61
1, 59416, Note_off_c, 0, 59, 64
1, 59419, Control_c, 0, 64, 58
1, 59434, Control_c, 0, 64, 68
1, 59449, Control_c, 0, 64, 78
1, 59464, Control_c, 0, 64, 89
1, 59479, Control_c, 0, 64, 90
1, 59494, Control_c, 0, 64, 89
1, 59504, Note_on_c, 0, 65, 82
1, 59508, Control_c, 0, 64, 81
1, 59517, Note_on_c, 0, 59, 59
1, 59523, Control_c, 0, 64, 71
1, 59535, Note_off_c, 0, 65, 64
1, 59538, Control_c, 0, 64, 63
1, 59543, Note_off_c, 0, 59, 68
1, 59552, Control_c, 0, 64, 56
1, 59567, Control_c, 0, 64, 50
1, 59582, Control_c, 0, 64, 46
1, 59597, Control_c, 0, 64, 42
1, 59612, Control_c, 0, 64, 37
1, 59626, Control_c, 0, 64, 29
1, 59641, Control_c, 0, 64, 0
1, 59671, Note_on_c, 0, 55, 79
1, 59818, Note_on_c, 0, 65, 70
1, 59821, Note_on_c, 0, 59, 59
1, 60013, Note_on_c, 0, 56, 79
1, 60027, Note_off_c, 0, 59, 55
1, 60047, Note_off_c, 0, 55, 25
1, 60060, Note_off_c, 0, 65, 59
1, 60191, Note_on_c, 0, 63, 61
1, 60194, Note_on_c, 0, 60, 63
1, 60349, Note_off_c, 0, 60, 58
1, 60351, Note_on_c, 0, 55, 65
1, 60364, Note_off_c, 0, 63, 60
1, 60431, Note_off_c, 0, 56, 50
1, 60488, Note_on_c, 0, 63, 61
1, 60491, Note_on_c, 0, 60, 57
1, 60641, Note_on_c, 0, 54, 65
1, 60664, Note_off_c, 0, 60, 58
1, 60677, Note_off_c, 0, 63, 59
1, 60716, Note_off_c, 0, 55, 54
1, 60800, Note_on_c, 0, 60, 56
1, 60804, Note_on_c, 0, 63, 55
1, 60855, Note_off_c, 0, 60, 62
1, 60871, Note_off_c, 0, 63, 56
1, 60965, Note_on_c, 0, 62, 54
1, 60967, Note_off_c, 0, 54, 56
1, 60969, Note_on_c, 0, 55, 47
1, 60970, Note_on_c, 0, 59, 48
1, 61004, Note_off_c, 0, 62, 63
1, 61128, Note_off_c, 0, 59, 48
1, 61130, Note_on_c, 0, 67, 69
1, 61145, Note_on_c, 0, 63, 53
1, 61256, Note_off_c, 0, 55, 36
1, 61289, Note_on_c, 0, 65, 76
1, 61296, Note_on_c, 0, 62, 66
1, 61300, Note_off_c, 0, 63, 59
1, 61316, Note_off_c, 0, 67, 60
1, 61355, Note_off_c, 0, 65, 63
1, 61443, Note_on_c, 0, 63, 71
1, 61446, Note_on_c, 0, 60, 66
1, 61467, Note_off_c, 0, 62, 61
1, 61589, Note_on_c, 0, 59, 63
1, 61593, Note_on_c, 0, 62, 71
1, 61598, Note_off_c, 0, 60, 62
1, 61625, Note_off_c, 0, 63, 61
1, 61734, Note_on_c, 0, 54, 52
1, 61738, Note_on_c, 0, 60, 55
1, 61738, Note_on_c, 0, 63, 69
1, 61741, Note_off_c, 0, 62, 60
1, 61744, Note_off_c, 0, 59, 61
1, 61845, Note_off_c, 0, 60, 53
1, 61860, Note_off_c, 0, 54, 49
1, 61881, Note_on_c, 0, 62, 62
1, 61882, Note_on_c, 0, 59, 56
1, 61884, Note_off_c, 0, 63, 41
1, 61885, Note_on_c, 0, 55, 45
1, 61923, Note_off_c, 0, 62, 63
1, 61932, Control_c, 0, 67, 20
1, 61947, Control_c, 0, 67, 23
1, 61962, Control_c, 0, 67, 25
1, 61977, Control_c, 0, 67, 27
1, 62004, Note_off_c, 0, 59, 30
1, 62007, Control_c, 0, 67, 30
1, 62021, Control_c, 0, 67, 33
1, 62034, Note_on_c, 0, 67, 58
1, 62036, Control_c, 0, 67, 37
1, 62044, Note_on_c, 0, 63, 52
1, 62051, Control_c, 0, 67, 44
1, 62066, Control_c, 0, 67, 52
1, 62080, Control_c, 0, 67, 61
1, 62094, Control_c, 0, 67, 69
1, 62109, Control_c, 0, 67, 74
1, 62124, Control_c, 0, 67, 75
1, 62156, Note_off_c, 0, 55, 36
1, 62191, Note_off_c, 0, 63, 48
1, 62197, Note_on_c, 0, 65, 58
1, 62200, Note_off_c, 0, 67, 59
1, 62207, Note_on_c, 0, 62, 57
1, 62235, Control_c, 0, 67, 74
1, 62236, Note_off_c, 0, 65, 64
1, 62250, Control_c, 0, 67, 74
1, 62311, Control_c, 0, 67, 73
1, 62340, Control_c, 0, 67, 72
1, 62349, Note_on_c, 0, 60, 54
1, 62349, Note_on_c, 0, 63, 53
1, 62355, Control_c, 0, 67, 72
1, 62356, Note_off_c, 0, 62, 59
1, 62369, Control_c, 0, 67, 71
1, 62414, Control_c, 0, 67, 70
1, 62443, Control_c, 0, 67, 69
1, 62500, Note_off_c, 0, 60, 56
1, 62501, Note_on_c, 0, 59, 48
1, 62502, Control_c, 0, 67, 69
1, 62507, Note_on_c, 0, 62, 48
1, 62516, Note_off_c, 0, 63, 57
1, 62532, Control_c, 0, 67, 68
1, 62591, Control_c, 0, 67, 68
1, 62645, Note_on_c, 0, 60, 44
1, 62651, Note_on_c, 0, 63, 53
1, 62651, Note_off_c, 0, 59, 55
1, 62653, Note_on_c, 0, 54, 44
1, 62657, Note_off_c, 0, 62, 52
1, 62803, Note_off_c, 0, 54, 59
1, 62806, Note_on_c, 0, 59, 46
1, 62808, Note_off_c, 0, 60, 53
1, 62815, Note_on_c, 0, 62, 48
1, 62818, Note_on_c, 0, 55, 39
1, 62828, Note_off_c, 0, 63, 55
1, 62940, Note_off_c, 0, 55, 53
1, 62963, Note_on_c, 0, 63, 61
1, 62964, Note_on_c, 0, 60, 49
1, 62965, Note_on_c, 0, 54, 43
1, 62977, Note_off_c, 0, 59, 57
1, 62979, Note_off_c, 0, 62, 57
1, 63029, Control_c, 0, 67, 67
1, 63073, Control_c, 0, 67, 67
1, 63088, Control_c, 0, 67, 66
1, 63104, Control_c, 0, 67, 66
1, 63110, Note_off_c, 0, 54, 58
1, 63114, Note_on_c, 0, 59, 50
1, 63115, Note_on_c, 0, 55, 42
1, 63119, Note_on_c, 0, 62, 53
1, 63126, Note_off_c, 0, 60, 37
1, 63133, Control_c, 0, 67, 65
1, 63148, Control_c, 0, 67, 65
1, 63150, Note_off_c, 0, 63, 58
1, 63192, Control_c, 0, 67, 64
1, 63222, Control_c, 0, 67, 64
1, 63238, Note_off_c, 0, 55, 55
1, 63252, Control_c, 0, 67, 63
1, 63259, Note_on_c, 0, 54, 44
1, 63266, Control_c, 0, 67, 63
1, 63271, Note_on_c, 0, 60, 43
1, 63271, Note_off_c, 0, 62, 57
1, 63275, Note_on_c, 0, 63, 54
1, 63276, Note_off_c, 0, 59, 56
1, 63311, Control_c, 0, 67, 62
1, 63340, Control_c, 0, 67, 62
1, 63399, Control_c, 0, 67, 61
1, 63405, Note_off_c, 0, 54, 57
1, 63424, Note_on_c, 0, 59, 39
1, 63428, Note_on_c, 0, 55, 39
1, 63428, Note_off_c, 0, 60, 38
1, 63429, Control_c, 0, 67, 61
1, 63434, Note_on_c, 0, 62, 44
1, 63446, Note_off_c, 0, 63, 58
1, 63546, Note_off_c, 0, 55, 54
1, 63575, Note_on_c, 0, 54, 41
1, 63577, Note_off_c, 0, 62, 51
1, 63578, Note_on_c, 0, 63, 53
1, 63591, Note_on_c, 0, 60, 37
1, 63596, Note_off_c, 0, 59, 50
1, 63685, Note_off_c, 0, 60, 52
1, 63727, Note_off_c, 0, 54, 37
1, 63783, Note_on_c, 0, 62, 46
1, 63785, Note_off_c, 0, 63, 51
1, 63793, Note_on_c, 0, 55, 34
1, 63804, Note_on_c, 0, 59, 13
1, 63822, Control_c, 0, 64, 40
1, 63834, Note_off_c, 0, 59, 48
1, 63837, Control_c, 0, 64, 55
1, 63851, Control_c, 0, 64, 63
1, 63860, Note_off_c, 0, 62, 58
1, 63866, Control_c, 0, 64, 66
1, 63881, Control_c, 0, 64, 68
1, 63897, Control_c, 0, 64, 70
1, 63911, Control_c, 0, 64, 71
1, 63926, Control_c, 0, 64, 72
1, 63970, Note_on_c, 0, 61, 55
1, 63971, Control_c, 0, 64, 71
1, 63974, Note_on_c, 0, 58, 49
1, 64001, Control_c, 0, 64, 70
1, 64015, Control_c, 0, 64, 69
1, 64030, Control_c, 0, 64, 67
1, 64031, Note_off_c, 0, 58, 58
1, 64045, Control_c, 0, 64, 64
1, 64045, Control_c, 0, 67, 60
1, 64060, Control_c, 0, 64, 61
1, 64060, Control_c, 0, 67, 60
1, 64069, Note_off_c, 0, 55, 38
1, 64074, Control_c, 0, 64, 59
1, 64074, Control_c, 0, 67, 59
1, 64089, Control_c, 0, 64, 56
1, 64089, Control_c, 0, 67, 58
1, 64104, Control_c, 0, 64, 55
1, 64104, Control_c, 0, 67, 52
1, 64119, Control_c, 0, 64, 55
1, 64119, Control_c, 0, 67, 47
1, 64134, Control_c, 0, 64, 53
1, 64134, Control_c, 0, 67, 42
1, 64142, Note_off_c, 0, 61, 56
1, 64144, Note_on_c, 0, 59, 51
1, 64146, Note_on_c, 0, 62, 57
1, 64148, Control_c, 0, 64, 51
1, 64148, Control_c, 0, 67, 37
1, 64163, Control_c, 0, 64, 49
1, 64163, Control_c, 0, 67, 32
1, 64178, Control_c, 0, 64, 46
1, 64178, Control_c, 0, 67, 27
1, 64193, Control_c, 0, 64, 44
1, 64193, Control_c, 0, 67, 21
1, 64208, Control_c, 0, 64, 42
1, 64208, Control_c, 0, 67, 0
1, 64222, Control_c, 0, 64, 40
1, 64237, Control_c, 0, 64, 37
1, 64252, Control_c, 0, 64, 32
1, 64266, Control_c, 0, 64, 0
1, 64291, Note_on_c, 0, 61, 56
1, 64291, Note_on_c, 0, 64, 66
1, 64300, Note_off_c, 0, 62, 61
1, 64320, Note_off_c, 0, 59, 51
1, 64376, Note_off_c, 0, 61, 59
1, 64453, Note_on_c, 0, 65, 70
1, 64456, Note_on_c, 0, 62, 60
1, 64460, Note_off_c, 0, 64, 59
1, 64544, Note_off_c, 0, 62, 61
1, 64556, Note_off_c, 0, 65, 65
1, 64592, Note_on_c, 0, 67, 72
1, 64598, Note_on_c, 0, 64, 58
1, 64648, Note_off_c, 0, 64, 58
1, 64772, Note_on_c, 0, 69, 65
1, 64777, Note_on_c, 0, 53, 43
1, 64777, Note_off_c, 0, 67, 61
1, 64780, Note_on_c, 0, 65, 51
1, 64853, Control_c, 0, 64, 46
1, 64868, Control_c, 0, 64, 59
1, 64883, Control_c, 0, 64, 68
1, 64898, Control_c, 0, 64, 77
1, 64899, Note_off_c, 0, 65, 37
1, 64913, Control_c, 0, 64, 89
1, 64913, Note_off_c, 0, 69, 58
1, 64928, Control_c, 0, 64, 105
1, 64933, Note_off_c, 0, 53, 34
1, 64943, Control_c, 0, 64, 127
1, 65089, Control_c, 0, 64, 116
1, 65104, Control_c, 0, 64, 89
1, 65116, Note_on_c, 0, 69, 73
1, 65119, Note_on_c, 0, 53, 49
1, 65119, Control_c, 0, 64, 73
1, 65130, Note_on_c, 0, 65, 56
1, 65134, Control_c, 0, 64, 61
1, 65135, Note_on_c, 0, 60, 49
1, 65149, Control_c, 0, 64, 48
1, 65171, Control_c, 0, 64, 37
1, 65186, Control_c, 0, 64, 34
1, 65201, Control_c, 0, 64, 40
1, 65216, Control_c, 0, 64, 50
1, 65231, Control_c, 0, 64, 59
1, 65245, Control_c, 0, 64, 66
1, 65260, Control_c, 0, 64, 75
1, 65275, Control_c, 0, 64, 94
1, 65281, Note_off_c, 0, 65, 56
1, 65289, Control_c, 0, 64, 127
1, 65292, Note_off_c, 0, 69, 61
1, 65305, Note_off_c, 0, 60, 36
1, 65312, Note_off_c, 0, 53, 38
1, 65408, Control_c, 0, 64, 87
1, 65423, Control_c, 0, 64, 71
1, 65429, Note_on_c, 0, 69, 76
1, 65435, Note_on_c, 0, 53, 55
1, 65438, Control_c, 0, 64, 61
1, 65440, Note_on_c, 0, 60, 52
1, 65441, Note_on_c, 0, 65, 57
1, 65453, Control_c, 0, 64, 55
1, 65482, Control_c, 0, 64, 58
1, 65498, Control_c, 0, 64, 62
1, 65513, Control_c, 0, 64, 68
1, 65527, Control_c, 0, 64, 78
1, 65536, Note_off_c, 0, 60, 51
1, 65539, Note_off_c, 0, 65, 62
1, 65542, Control_c, 0, 64, 95
1, 65556, Note_off_c, 0, 69, 62
1, 65557, Control_c, 0, 64, 127
1, 65606, Note_off_c, 0, 53, 37
1, 65706, Control_c, 0, 64, 122
1, 65720, Control_c, 0, 64, 101
1, 65735, Control_c, 0, 64, 92
1, 65750, Control_c, 0, 64, 86
1, 65765, Control_c, 0, 64, 81
1, 65780, Control_c, 0, 64, 74
1, 65783, Note_on_c, 0, 69, 70
1, 65794, Control_c, 0, 64, 68
1, 65798, Note_on_c, 0, 65, 52
1, 65808, Note_on_c, 0, 53, 35
1, 65809, Control_c, 0, 64, 63
1, 65811, Note_on_c, 0, 60, 48
1, 65824, Control_c, 0, 64, 58
1, 65838, Control_c, 0, 64, 51
1, 65853, Control_c, 0, 64, 45
1, 65868, Control_c, 0, 64, 37
1, 65883, Control_c, 0, 64, 0
1, 66304, Note_off_c, 0, 53, 40
1, 66352, Note_off_c, 0, 65, 34
1, 66394, Note_off_c, 0, 69, 54
1, 66395, Note_off_c, 0, 60, 54
1, 66398, Note_on_c, 0, 67, 50
1, 66407, Note_on_c, 0, 64, 43
1, 66409, Note_on_c, 0, 48, 42
1, 66469, Control_c, 0, 64, 42
1, 66484, Control_c, 0, 64, 59
1, 66494, Note_off_c, 0, 48, 62
1, 66499, Control_c, 0, 64, 66
1, 66514, Control_c, 0, 64, 72
1, 66518, Note_off_c, 0, 64, 53
1, 66529, Control_c, 0, 64, 78
1, 66532, Note_off_c, 0, 67, 60
1, 66543, Control_c, 0, 64, 83
1, 66558, Control_c, 0, 64, 87
1, 66573, Control_c, 0, 64, 89
1, 66632, Control_c, 0, 64, 88
1, 66647, Control_c, 0, 64, 87
1, 66669, Control_c, 0, 64, 83
1, 66684, Control_c, 0, 64, 72
1, 66699, Control_c, 0, 64, 62
1, 66713, Control_c, 0, 64, 50
1, 66728, Control_c, 0, 64, 34
1, 66730, Note_on_c, 0, 67, 50
1, 66740, Note_on_c, 0, 43, 38
1, 66743, Control_c, 0, 64, 0
1, 66776, Note_on_c, 0, 62, 36
1, 66788, Control_c, 0, 64, 29
1, 66790, Note_off_c, 0, 67, 50
1, 66800, Note_on_c, 0, 65, 48
1, 66803, Control_c, 0, 64, 37
1, 66807, Poly_aftertouch_c, 0, 59, 127
1, 66817, Control_c, 0, 64, 46
1, 66832, Control_c, 0, 64, 54
1, 66847, Control_c, 0, 64, 59
1, 66861, Control_c, 0, 64, 63
1, 66876, Control_c, 0, 64, 67
1, 66891, Control_c, 0, 64, 71
1, 66906, Control_c, 0, 64, 76
1, 66921, Control_c, 0, 64, 82
1, 66931, Poly_aftertouch_c, 0, 59, 0
1, 66933, Note_off_c, 0, 62, 57
1, 66934, Note_off_c, 0, 65, 61
1, 66935, Control_c, 0, 64, 86
1, 66941, Note_off_c, 0, 43, 39
1, 66950, Control_c, 0, 64, 88
1, 66965, Control_c, 0, 64, 88
1, 66994, Control_c, 0, 64, 87
1, 67009, Control_c, 0, 64, 82
1, 67024, Control_c, 0, 64, 72
1, 67039, Control_c, 0, 64, 62
1, 67054, Control_c, 0, 64, 50
1, 67056, Note_on_c, 0, 62, 53
1, 67059, Note_on_c, 0, 65, 67
1, 67062, Note_on_c, 0, 43, 42
1, 67062, Note_on_c, 0, 59, 43
1, 67068, Control_c, 0, 64, 37
1, 67084, Control_c, 0, 64, 33
1, 67099, Control_c, 0, 64, 35
1, 67114, Control_c, 0, 64, 39
1, 67129, Control_c, 0, 64, 46
1, 67144, Control_c, 0, 64, 53
1, 67158, Control_c, 0, 64, 58
1, 67173, Control_c, 0, 64, 63
1, 67188, Control_c, 0, 64, 67
1, 67203, Control_c, 0, 64, 71
1, 67218, Control_c, 0, 64, 75
1, 67233, Control_c, 0, 64, 79
1, 67235, Note_off_c, 0, 59, 35
1, 67235, Note_off_c, 0, 62, 45
1, 67247, Note_off_c, 0, 65, 60
1, 67247, Control_c, 0, 64, 81
1, 67262, Control_c, 0, 64, 83
1, 67278, Note_off_c, 0, 43, 40
1, 67322, Control_c, 0, 64, 82
1, 67337, Control_c, 0, 64, 76
1, 67352, Control_c, 0, 64, 69
1, 67366, Control_c, 0, 64, 61
1, 67378, Note_on_c, 0, 65, 64
1, 67381, Control_c, 0, 64, 53
1, 67382, Note_on_c, 0, 62, 51
1, 67396, Control_c, 0, 64, 48
1, 67402, Note_on_c, 0, 59, 29
1, 67417, Note_on_c, 0, 43, 38
1, 67418, Control_c, 0, 64, 47
1, 67433, Control_c, 0, 64, 48
1, 67448, Control_c, 0, 64, 50
1, 67463, Control_c, 0, 64, 53
1, 67478, Control_c, 0, 64, 57
1, 67492, Control_c, 0, 64, 60
1, 67507, Control_c, 0, 64, 64
1, 67522, Control_c, 0, 64, 67
1, 67537, Control_c, 0, 64, 71
1, 67552, Control_c, 0, 64, 74
1, 67566, Control_c, 0, 64, 77
1, 67581, Control_c, 0, 64, 78
1, 67585, Note_off_c, 0, 62, 31
1, 67596, Control_c, 0, 64, 79
1, 67598, Note_off_c, 0, 43, 21
1, 67618, Note_off_c, 0, 65, 27
1, 67626, Note_off_c, 0, 59, 36
1, 67670, Control_c, 0, 64, 78
1, 67685, Control_c, 0, 64, 77
1, 67700, Control_c, 0, 64, 74
1, 67715, Control_c, 0, 64, 71
1, 67730, Control_c, 0, 64, 67
1, 67745, Control_c, 0, 64, 65
1, 67745, Note_on_c, 0, 65, 60
1, 67755, Note_on_c, 0, 59, 39
1, 67759, Note_on_c, 0, 62, 43
1, 67759, Control_c, 0, 64, 63
1, 67770, Note_on_c, 0, 43, 38
1, 67774, Control_c, 0, 64, 61
1, 67789, Control_c, 0, 64, 56
1, 67804, Control_c, 0, 64, 47
1, 67818, Control_c, 0, 64, 31
1, 67833, Control_c, 0, 64, 0
1, 68041, Control_c, 0, 64, 42
1, 68056, Control_c, 0, 64, 52
1, 68071, Control_c, 0, 64, 58
1, 68086, Control_c, 0, 64, 61
1, 68101, Control_c, 0, 64, 62
1, 68103, Note_off_c, 0, 62, 54
1, 68115, Control_c, 0, 64, 63
1, 68130, Control_c, 0, 64, 65
1, 68145, Control_c, 0, 64, 66
1, 68168, Control_c, 0, 64, 68
1, 68183, Control_c, 0, 64, 68
1, 68197, Control_c, 0, 64, 69
1, 68255, Note_off_c, 0, 59, 42
1, 68281, Note_off_c, 0, 43, 40
1, 68286, Control_c, 0, 64, 68
1, 68301, Control_c, 0, 64, 67
1, 68315, Control_c, 0, 64, 64
1, 68330, Control_c, 0, 64, 59
1, 68342, Note_off_c, 0, 65, 34
1, 68345, Control_c, 0, 64, 49
1, 68360, Control_c, 0, 64, 38
1, 68375, Control_c, 0, 64, 0
1, 68386, Note_on_c, 0, 64, 45
1, 68398, Note_on_c, 0, 45, 34
1, 68399, Note_on_c, 0, 60, 38
1, 68419, Control_c, 0, 64, 36
1, 68434, Control_c, 0, 64, 48
1, 68448, Control_c, 0, 64, 58
1, 68449, Note_off_c, 0, 60, 59
1, 68463, Control_c, 0, 64, 64
1, 68478, Control_c, 0, 64, 68
1, 68481, Note_off_c, 0, 64, 59
1, 68493, Control_c, 0, 64, 70
1, 68508, Control_c, 0, 64, 71
1, 68523, Control_c, 0, 64, 72
1, 68545, Note_off_c, 0, 45, 42
1, 68582, Control_c, 0, 64, 71
1, 68612, Control_c, 0, 64, 70
1, 68627, Control_c, 0, 64, 67
1, 68641, Control_c, 0, 64, 62
1, 68656, Control_c, 0, 64, 55
1, 68671, Control_c, 0, 64, 45
1, 68681, Note_on_c, 0, 67, 57
1, 68686, Note_on_c, 0, 41, 43
1, 68687, Control_c, 0, 64, 33
1, 68696, Note_on_c, 0, 64, 37
1, 68702, Control_c, 0, 64, 0
1, 68754, Note_off_c, 0, 41, 46
1, 68758, Note_off_c, 0, 67, 59
1, 68762, Note_off_c, 0, 64, 44
1, 68826, Note_on_c, 0, 65, 56
1, 68830, Note_on_c, 0, 62, 47
1, 68871, Note_off_c, 0, 62, 62
1, 68925, Note_off_c, 0, 65, 37
1, 68988, Note_on_c, 0, 64, 54
1, 68994, Note_on_c, 0, 43, 44
1, 68999, Note_on_c, 0, 60, 51
1, 69022, Note_off_c, 0, 64, 65
1, 69033, Note_off_c, 0, 60, 66
1, 69043, Note_off_c, 0, 43, 61
1, 69286, Note_on_c, 0, 62, 59
1, 69287, Note_on_c, 0, 43, 50
1, 69294, Note_on_c, 0, 59, 46
1, 69320, Note_off_c, 0, 43, 63
1, 69320, Note_off_c, 0, 62, 64
1, 69326, Note_off_c, 0, 59, 65
1, 69598, Note_on_c, 0, 64, 54
1, 69621, Note_off_c, 0, 64, 64
1, 69623, Note_on_c, 0, 48, 38
1, 69631, Note_on_c, 0, 60, 33
1, 69767, Note_on_c, 0, 72, 54
1, 69799, Note_off_c, 0, 72, 65
1, 69831, Note_off_c, 0, 48, 51
1, 69882, Note_off_c, 0, 60, 55
1, 69905, Note_on_c, 0, 74, 61
1, 69935, Note_off_c, 0, 74, 65
1, 70045, Note_on_c, 0, 76, 70
1, 70071, Note_off_c, 0, 76, 68
1, 70182, Note_on_c, 0, 77, 71
1, 70208, Note_off_c, 0, 77, 66
1, 70321, Note_on_c, 0, 79, 80
1, 70355, Note_off_c, 0, 79, 63
1, 70483, Note_on_c, 0, 81, 75
1, 70484, Note_on_c, 0, 65, 48
1, 70491, Note_on_c, 0, 60, 38
1, 70516, Note_off_c, 0, 81, 64
1, 70545, Note_off_c, 0, 60, 59
1, 70552, Note_off_c, 0, 65, 57
1, 70796, Note_on_c, 0, 81, 81
1, 70812, Note_on_c, 0, 60, 41
1, 70814, Note_on_c, 0, 65, 48
1, 70851, Note_off_c, 0, 81, 64
1, 70876, Note_off_c, 0, 60, 54
1, 70884, Note_off_c, 0, 65, 53
1, 71106, Note_on_c, 0, 81, 85
1, 71118, Note_on_c, 0, 60, 41
1, 71118, Note_on_c, 0, 65, 49
1, 71171, Note_off_c, 0, 60, 62
1, 71176, Note_off_c, 0, 81, 63
1, 71181, Note_off_c, 0, 65, 56
1, 71485, Note_on_c, 0, 81, 73
1, 71502, Note_on_c, 0, 60, 34
1, 71527, Note_on_c, 0, 65, 30
1, 71696, Control_c, 0, 64, 31
1, 71711, Control_c, 0, 64, 45
1, 71725, Control_c, 0, 64, 55
1, 71740, Control_c, 0, 64, 60
1, 71755, Control_c, 0, 64, 64
1, 71770, Control_c, 0, 64, 66
1, 71784, Control_c, 0, 64, 70
1, 71799, Control_c, 0, 64, 78
1, 71814, Control_c, 0, 64, 90
1, 71829, Control_c, 0, 64, 114
1, 71841, Note_off_c, 0, 81, 48
1, 71844, Control_c, 0, 64, 127
1, 71963, Note_off_c, 0, 65, 41
1, 72011, Note_on_c, 0, 83, 53
1, 72045, Control_c, 0, 64, 114
1, 72060, Control_c, 0, 64, 89
1, 72073, Note_on_c, 0, 81, 59
1, 72075, Control_c, 0, 64, 72
1, 72084, Note_off_c, 0, 83, 55
1, 72089, Control_c, 0, 64, 60
1, 72104, Control_c, 0, 64, 43
1, 72119, Control_c, 0, 64, 0
1, 72139, Note_on_c, 0, 79, 66
1, 72151, Note_on_c, 0, 64, 32
1, 72154, Note_off_c, 0, 81, 59
1, 72178, Control_c, 0, 64, 38
1, 72193, Control_c, 0, 64, 53
1, 72206, Note_off_c, 0, 60, 47
1, 72207, Control_c, 0, 64, 63
1, 72215, Note_off_c, 0, 79, 63
1, 72222, Control_c, 0, 64, 70
1, 72237, Control_c, 0, 64, 77
1, 72252, Control_c, 0, 64, 84
1, 72261, Note_off_c, 0, 64, 47
1, 72267, Control_c, 0, 64, 92
1, 72282, Control_c, 0, 64, 98
1, 72297, Control_c, 0, 64, 100
1, 72386, Control_c, 0, 64, 97
1, 72400, Control_c, 0, 64, 90
1, 72415, Control_c, 0, 64, 80
1, 72430, Control_c, 0, 64, 70
1, 72437, Note_on_c, 0, 79, 62
1, 72445, Control_c, 0, 64, 62
1, 72460, Control_c, 0, 64, 50
1, 72461, Note_on_c, 0, 55, 33
1, 72461, Note_on_c, 0, 62, 32
1, 72466, Note_on_c, 0, 71, 36
1, 72474, Control_c, 0, 64, 38
1, 72489, Control_c, 0, 64, 0
1, 72497, Note_on_c, 0, 77, 59
1, 72513, Note_off_c, 0, 79, 55
1, 72579, Control_c, 0, 64, 35
1, 72594, Control_c, 0, 64, 51
1, 72608, Control_c, 0, 64, 60
1, 72623, Control_c, 0, 64, 65
1, 72638, Control_c, 0, 64, 68
1, 72644, Note_off_c, 0, 62, 52
1, 72660, Control_c, 0, 64, 74
1, 72666, Note_off_c, 0, 71, 41
1, 72675, Control_c, 0, 64, 80
1, 72683, Note_off_c, 0, 77, 62
1, 72685, Note_off_c, 0, 55, 40
1, 72691, Control_c, 0, 64, 86
1, 72705, Control_c, 0, 64, 92
1, 72720, Control_c, 0, 64, 95
1, 72765, Control_c, 0, 64, 93
1, 72780, Control_c, 0, 64, 87
1, 72792, Note_on_c, 0, 77, 76
1, 72794, Control_c, 0, 64, 78
1, 72796, Note_on_c, 0, 62, 42
1, 72797, Note_on_c, 0, 71, 56
1, 72799, Note_on_c, 0, 55, 42
1, 72809, Control_c, 0, 64, 67
1, 72824, Control_c, 0, 64, 58
1, 72839, Control_c, 0, 64, 46
1, 72854, Control_c, 0, 64, 39
1, 72869, Control_c, 0, 64, 39
1, 72884, Control_c, 0, 64, 41
1, 72899, Control_c, 0, 64, 46
1, 72913, Control_c, 0, 64, 54
1, 72928, Control_c, 0, 64, 61
1, 72943, Control_c, 0, 64, 67
1, 72957, Control_c, 0, 64, 75
1, 72972, Control_c, 0, 64, 82
1, 72987, Control_c, 0, 64, 88
1, 72992, Note_off_c, 0, 71, 35
1, 72994, Note_off_c, 0, 62, 34
1, 73002, Control_c, 0, 64, 94
1, 73010, Note_off_c, 0, 77, 61
1, 73017, Control_c, 0, 64, 98
1, 73018, Note_off_c, 0, 55, 41
1, 73076, Control_c, 0, 64, 93
1, 73091, Control_c, 0, 64, 82
1, 73105, Control_c, 0, 64, 69
1, 73120, Control_c, 0, 64, 58
1, 73121, Note_on_c, 0, 77, 70
1, 73123, Note_on_c, 0, 62, 43
1, 73127, Note_on_c, 0, 71, 56
1, 73135, Control_c, 0, 64, 43
1, 73140, Note_on_c, 0, 55, 41
1, 73150, Control_c, 0, 64, 31
1, 73179, Control_c, 0, 64, 33
1, 73194, Control_c, 0, 64, 39
1, 73209, Control_c, 0, 64, 48
1, 73224, Control_c, 0, 64, 57
1, 73228, Note_off_c, 0, 77, 59
1, 73239, Control_c, 0, 64, 63
1, 73254, Control_c, 0, 64, 68
1, 73268, Control_c, 0, 64, 73
1, 73283, Control_c, 0, 64, 78
1, 73298, Control_c, 0, 64, 80
1, 73301, Note_off_c, 0, 62, 31
1, 73313, Control_c, 0, 64, 82
1, 73319, Note_off_c, 0, 55, 26
1, 73370, Note_off_c, 0, 71, 39
1, 73371, Control_c, 0, 64, 82
1, 73386, Control_c, 0, 64, 81
1, 73409, Control_c, 0, 64, 79
1, 73423, Control_c, 0, 64, 75
1, 73438, Control_c, 0, 64, 69
1, 73453, Control_c, 0, 64, 64
1, 73468, Control_c, 0, 64, 60
1, 73473, Note_on_c, 0, 77, 61
1, 73477, Note_on_c, 0, 55, 44
1, 73483, Control_c, 0, 64, 57
1, 73486, Note_on_c, 0, 71, 52
1, 73489, Note_on_c, 0, 62, 35
1, 73498, Control_c, 0, 64, 51
1, 73513, Control_c, 0, 64, 42
1, 73528, Control_c, 0, 64, 0
1, 73794, Control_c, 0, 64, 37
1, 73809, Control_c, 0, 64, 49
1, 73824, Control_c, 0, 64, 56
1, 73839, Control_c, 0, 64, 60
1, 73853, Control_c, 0, 64, 62
1, 73868, Control_c, 0, 64, 64
1, 73883, Control_c, 0, 64, 65
1, 73898, Control_c, 0, 64, 66
1, 73912, Control_c, 0, 64, 67
1, 73927, Control_c, 0, 64, 68
1, 73942, Control_c, 0, 64, 68
1, 73987, Control_c, 0, 64, 68
1, 73993, Note_off_c, 0, 55, 35
1, 74000, Note_off_c, 0, 71, 42
1, 74002, Control_c, 0, 64, 66
1, 74003, Note_off_c, 0, 77, 52
1, 74017, Control_c, 0, 64, 60
1, 74032, Control_c, 0, 64, 49
1, 74046, Control_c, 0, 64, 29
1, 74061, Control_c, 0, 64, 0
1, 74076, Note_off_c, 0, 62, 26
1, 74085, Note_on_c, 0, 76, 58
1, 74093, Note_on_c, 0, 57, 31
1, 74097, Note_on_c, 0, 60, 36
1, 74098, Note_on_c, 0, 72, 44
1, 74105, Control_c, 0, 64, 29
1, 74120, Control_c, 0, 64, 44
1, 74134, Note_off_c, 0, 57, 57
1, 74135, Control_c, 0, 64, 57
1, 74142, Note_off_c, 0, 60, 62
1, 74144, Note_off_c, 0, 72, 61
1, 74157, Control_c, 0, 64, 65
1, 74172, Control_c, 0, 64, 70
1, 74175, Note_off_c, 0, 76, 62
1, 74187, Control_c, 0, 64, 74
1, 74201, Control_c, 0, 64, 75
1, 74216, Control_c, 0, 64, 77
1, 74306, Control_c, 0, 64, 76
1, 74321, Control_c, 0, 64, 75
1, 74336, Control_c, 0, 64, 71
1, 74351, Control_c, 0, 64, 66
1, 74365, Control_c, 0, 64, 59
1, 74374, Note_on_c, 0, 76, 63
1, 74378, Note_on_c, 0, 79, 67
1, 74379, Note_on_c, 0, 53, 49
1, 74380, Control_c, 0, 64, 48
1, 74395, Control_c, 0, 64, 31
1, 74410, Control_c, 0, 64, 0
1, 74427, Note_off_c, 0, 53, 57
1, 74434, Note_off_c, 0, 76, 47
1, 74463, Note_off_c, 0, 79, 55
1, 74506, Note_on_c, 0, 77, 60
1, 74514, Note_on_c, 0, 74, 55
1, 74548, Note_off_c, 0, 74, 64
1, 74574, Note_off_c, 0, 77, 54
1, 74654, Note_on_c, 0, 76, 65
1, 74660, Note_on_c, 0, 55, 57
1, 74668, Note_on_c, 0, 72, 54
1, 74687, Note_off_c, 0, 76, 64
1, 74689, Note_off_c, 0, 55, 65
1, 74698, Note_off_c, 0, 72, 65
1, 74956, Note_on_c, 0, 74, 65
1, 74965, Note_on_c, 0, 53, 47
1, 74968, Note_on_c, 0, 71, 50
1, 74985, Note_off_c, 0, 74, 67
1, 74992, Note_off_c, 0, 71, 60
1, 74994, Note_off_c, 0, 53, 59
1, 75239, Note_on_c, 0, 40, 79
1, 75239, Note_on_c, 0, 52, 89
1, 75244, Note_on_c, 0, 79, 79
1, 75245, Note_on_c, 0, 76, 78
1, 75248, Control_c, 0, 64, 41
1, 75263, Control_c, 0, 64, 63
1, 75276, Note_off_c, 0, 40, 65
1, 75278, Control_c, 0, 64, 82
1, 75281, Note_off_c, 0, 52, 62
1, 75284, Note_off_c, 0, 76, 60
1, 75292, Note_off_c, 0, 79, 63
1, 75293, Control_c, 0, 64, 114
1, 75322, Control_c, 0, 64, 83
1, 75337, Control_c, 0, 64, 64
1, 75352, Control_c, 0, 64, 0
1, 75394, Note_on_c, 0, 76, 70
1, 75396, Note_on_c, 0, 79, 74
1, 75423, Note_off_c, 0, 76, 65
1, 75424, Note_off_c, 0, 79, 66
1, 75544, Note_on_c, 0, 56, 65
1, 75573, Note_off_c, 0, 56, 64
1, 75691, Note_on_c, 0, 77, 58
1, 75695, Note_on_c, 0, 74, 64
1, 75720, Note_off_c, 0, 74, 66
1, 75720, Note_off_c, 0, 77, 66
1, 75827, Note_on_c, 0, 57, 65
1, 75859, Note_off_c, 0, 57, 66
1, 75972, Note_on_c, 0, 76, 62
1, 75981, Note_on_c, 0, 72, 54
1, 76002, Note_off_c, 0, 76, 66
1, 76003, Note_off_c, 0, 72, 60
1, 76120, Note_on_c, 0, 53, 60
1, 76149, Note_off_c, 0, 53, 65
1, 76262, Note_on_c, 0, 74, 64
1, 76263, Note_on_c, 0, 65, 63
1, 76291, Note_off_c, 0, 74, 66
1, 76294, Note_off_c, 0, 65, 66
1, 76409, Note_on_c, 0, 55, 67
1, 76437, Note_off_c, 0, 55, 65
1, 76548, Note_on_c, 0, 72, 61
1, 76551, Note_on_c, 0, 64, 53
1, 76577, Note_off_c, 0, 72, 68
1, 76585, Note_off_c, 0, 64, 65
1, 76682, Note_on_c, 0, 53, 71
1, 76711, Note_off_c, 0, 53, 66
1, 76815, Note_on_c, 0, 71, 65
1, 76816, Note_on_c, 0, 62, 59
1, 76847, Note_off_c, 0, 71, 62
1, 76847, Note_off_c, 0, 62, 65
1, 76950, Note_on_c, 0, 52, 81
1, 76953, Note_on_c, 0, 40, 78
1, 77014, Note_on_c, 0, 76, 82
1, 77014, Note_off_c, 0, 40, 63
1, 77018, Note_off_c, 0, 52, 61
1, 77071, Note_off_c, 0, 76, 64
1, 77078, Note_on_c, 0, 79, 80
1, 77153, Note_on_c, 0, 76, 82
1, 77170, Note_off_c, 0, 79, 65
1, 77198, Note_off_c, 0, 76, 66
1, 77233, Note_on_c, 0, 56, 85
1, 77238, Note_on_c, 0, 44, 79
1, 77295, Note_on_c, 0, 74, 83
1, 77319, Note_off_c, 0, 44, 64
1, 77320, Note_off_c, 0, 56, 60
1, 77349, Note_off_c, 0, 74, 64
1, 77355, Note_on_c, 0, 77, 77
1, 77417, Note_on_c, 0, 74, 78
1, 77441, Note_off_c, 0, 77, 64
1, 77464, Note_off_c, 0, 74, 66
1, 77494, Note_on_c, 0, 57, 84
1, 77495, Note_on_c, 0, 45, 82
1, 77556, Note_off_c, 0, 57, 62
1, 77564, Note_on_c, 0, 72, 78
1, 77573, Note_off_c, 0, 45, 62
1, 77609, Note_off_c, 0, 72, 65
1, 77628, Note_on_c, 0, 76, 81
1, 77686, Note_on_c, 0, 72, 79
1, 77698, Note_off_c, 0, 76, 66
1, 77732, Note_off_c, 0, 72, 64
1, 77757, Note_on_c, 0, 41, 80
1, 77758, Note_on_c, 0, 53, 81
1, 77820, Note_off_c, 0, 53, 59
1, 77823, Note_on_c, 0, 65, 76
1, 77824, Note_off_c, 0, 41, 60
1, 77882, Note_on_c, 0, 74, 78
1, 77886, Note_off_c, 0, 65, 63
1, 77950, Note_on_c, 0, 65, 66
1, 77978, Note_off_c, 0, 74, 63
1, 77998, Note_off_c, 0, 65, 64
1, 78020, Note_on_c, 0, 55, 81
1, 78023, Note_on_c, 0, 43, 80
1, 78082, Note_off_c, 0, 55, 61
1, 78083, Note_off_c, 0, 43, 61
1, 78101, Note_on_c, 0, 64, 70
1, 78151, Note_off_c, 0, 64, 59
1, 78160, Note_on_c, 0, 72, 72
1, 78212, Note_on_c, 0, 64, 66
1, 78250, Note_off_c, 0, 72, 58
1, 78271, Note_off_c, 0, 64, 63
1, 78288, Note_on_c, 0, 55, 83
1, 78292, Note_on_c, 0, 43, 77
1, 78325, Note_off_c, 0, 43, 66
1, 78339, Note_off_c, 0, 55, 63
1, 78365, Note_on_c, 0, 62, 73
1, 78419, Note_off_c, 0, 62, 61
1, 78422, Note_on_c, 0, 71, 74
1, 78481, Note_on_c, 0, 62, 69
1, 78485, Note_off_c, 0, 71, 62
1, 78535, Note_off_c, 0, 62, 62
1, 78569, Note_on_c, 0, 48, 58
1, 78583, Note_on_c, 0, 64, 72
1, 78583, Note_on_c, 0, 72, 82
1, 78586, Note_on_c, 0, 67, 67
1, 78661, Note_off_c, 0, 48, 60
1, 78662, Note_on_c, 0, 52, 59
1, 78734, Note_on_c, 0, 55, 62
1, 78736, Note_off_c, 0, 52, 61
1, 78789, Note_off_c, 0, 55, 61
1, 78805, Note_on_c, 0, 60, 63
1, 78863, Note_off_c, 0, 60, 61
1, 78879, Note_on_c, 0, 48, 61
1, 78917, Control_c, 0, 64, 37
1, 78924, Note_off_c, 0, 64, 61
1, 78932, Control_c, 0, 64, 57
1, 78947, Control_c, 0, 64, 65
1, 78948, Note_on_c, 0, 52, 56
1, 78948, Note_off_c, 0, 72, 62
1, 78953, Note_off_c, 0, 48, 61
1, 78962, Control_c, 0, 64, 70
1, 78967, Note_off_c, 0, 67, 61
1, 78976, Control_c, 0, 64, 76
1, 78991, Control_c, 0, 64, 80
1, 79006, Control_c, 0, 64, 81
1, 79017, Note_on_c, 0, 55, 64
1, 79020, Note_off_c, 0, 52, 61
1, 79021, Control_c, 0, 64, 82
1, 79066, Control_c, 0, 64, 81
1, 79068, Note_off_c, 0, 55, 58
1, 79071, Note_on_c, 0, 60, 60
1, 79096, Control_c, 0, 64, 80
1, 79111, Control_c, 0, 64, 79
1, 79125, Control_c, 0, 64, 76
1, 79135, Note_off_c, 0, 60, 56
1, 79140, Control_c, 0, 64, 72
1, 79153, Note_on_c, 0, 48, 62
1, 79155, Control_c, 0, 64, 67
1, 79170, Control_c, 0, 64, 63
1, 79178, Note_on_c, 0, 76, 77
1, 79185, Control_c, 0, 64, 59
1, 79199, Control_c, 0, 64, 55
1, 79214, Control_c, 0, 64, 53
1, 79226, Note_on_c, 0, 77, 81
1, 79229, Control_c, 0, 64, 50
1, 79231, Note_off_c, 0, 48, 58
1, 79232, Note_off_c, 0, 76, 60
1, 79236, Note_on_c, 0, 52, 57
1, 79244, Control_c, 0, 64, 48
1, 79259, Control_c, 0, 64, 46
1, 79270, Note_on_c, 0, 76, 60
1, 79273, Control_c, 0, 64, 43
1, 79288, Control_c, 0, 64, 40
1, 79303, Control_c, 0, 64, 38
1, 79311, Note_off_c, 0, 52, 61
1, 79311, Note_on_c, 0, 55, 59
1, 79313, Note_off_c, 0, 77, 62
1, 79317, Control_c, 0, 64, 36
1, 79324, Note_on_c, 0, 74, 83
1, 79332, Control_c, 0, 64, 34
1, 79347, Control_c, 0, 64, 31
1, 79361, Control_c, 0, 64, 29
1, 79364, Note_off_c, 0, 55, 58
1, 79373, Note_off_c, 0, 76, 64
1, 79376, Control_c, 0, 64, 0
1, 79377, Note_on_c, 0, 60, 48
1, 79379, Note_on_c, 0, 72, 76
1, 79412, Note_off_c, 0, 74, 63
1, 79435, Note_off_c, 0, 60, 58
1, 79464, Note_on_c, 0, 48, 58
1, 79472, Note_on_c, 0, 79, 91
1, 79492, Note_off_c, 0, 72, 63
1, 79560, Note_off_c, 0, 48, 57
1, 79564, Note_on_c, 0, 52, 53
1, 79634, Note_off_c, 0, 52, 59
1, 79636, Note_on_c, 0, 55, 51
1, 79689, Note_off_c, 0, 55, 59
1, 79707, Note_on_c, 0, 60, 43
1, 79761, Note_off_c, 0, 60, 54
1, 79781, Note_on_c, 0, 48, 52
1, 79784, Control_c, 0, 64, 31
1, 79798, Control_c, 0, 64, 44
1, 79813, Control_c, 0, 64, 58
1, 79828, Control_c, 0, 64, 65
1, 79837, Note_off_c, 0, 79, 62
1, 79842, Control_c, 0, 64, 69
1, 79847, Note_off_c, 0, 48, 53
1, 79857, Control_c, 0, 64, 73
1, 79858, Note_on_c, 0, 52, 45
1, 79874, Control_c, 0, 64, 76
1, 79888, Control_c, 0, 64, 78
1, 79903, Control_c, 0, 64, 79
1, 79914, Note_on_c, 0, 55, 53
1, 79936, Note_off_c, 0, 52, 55
1, 79967, Note_off_c, 0, 55, 56
1, 79972, Note_on_c, 0, 60, 56
1, 79977, Control_c, 0, 64, 78
1, 80007, Control_c, 0, 64, 77
1, 80021, Control_c, 0, 64, 75
1, 80033, Note_off_c, 0, 60, 55
1, 80036, Control_c, 0, 64, 73
1, 80051, Control_c, 0, 64, 70
1, 80065, Note_on_c, 0, 48, 61
1, 80066, Control_c, 0, 64, 68
1, 80071, Note_on_c, 0, 83, 74
1, 80081, Control_c, 0, 64, 66
1, 80096, Control_c, 0, 64, 64
1, 80111, Control_c, 0, 64, 63
1, 80121, Note_on_c, 0, 84, 85
1, 80121, Note_off_c, 0, 83, 63
1, 80126, Control_c, 0, 64, 61
1, 80148, Control_c, 0, 64, 59
1, 80163, Control_c, 0, 64, 57
1, 80169, Note_on_c, 0, 53, 54
1, 80169, Note_off_c, 0, 48, 54
1, 80172, Note_on_c, 0, 83, 74
1, 80178, Control_c, 0, 64, 56
1, 80193, Control_c, 0, 64, 54
1, 80208, Control_c, 0, 64, 52
1, 80219, Note_off_c, 0, 84, 62
1, 80222, Control_c, 0, 64, 47
1, 80225, Note_on_c, 0, 81, 81
1, 80237, Control_c, 0, 64, 41
1, 80241, Note_on_c, 0, 55, 55
1, 80252, Control_c, 0, 64, 35
1, 80266, Control_c, 0, 64, 0
1, 80275, Note_on_c, 0, 79, 88
1, 80277, Note_off_c, 0, 83, 64
1, 80277, Note_off_c, 0, 53, 60
1, 80312, Note_off_c, 0, 55, 54
1, 80315, Note_on_c, 0, 62, 50
1, 80318, Note_off_c, 0, 81, 63
1, 80369, Note_off_c, 0, 62, 54
1, 80381, Note_on_c, 0, 84, 93
1, 80396, Note_on_c, 0, 48, 53
1, 80421, Note_off_c, 0, 79, 61
1, 80500, Note_on_c, 0, 52, 52
1, 80520, Note_off_c, 0, 48, 54
1, 80572, Note_on_c, 0, 55, 41
1, 80584, Note_off_c, 0, 52, 56
1, 80618, Note_off_c, 0, 55, 59
1, 80624, Note_on_c, 0, 60, 52
1, 80683, Note_off_c, 0, 60, 57
1, 80706, Note_on_c, 0, 48, 49
1, 80727, Control_c, 0, 64, 38
1, 80742, Control_c, 0, 64, 50
1, 80756, Control_c, 0, 64, 58
1, 80762, Note_off_c, 0, 84, 60
1, 80771, Control_c, 0, 64, 63
1, 80786, Control_c, 0, 64, 66
1, 80786, Note_on_c, 0, 52, 44
1, 80796, Note_off_c, 0, 48, 53
1, 80801, Control_c, 0, 64, 69
1, 80816, Control_c, 0, 64, 73
1, 80831, Control_c, 0, 64, 76
1, 80845, Control_c, 0, 64, 77
1, 80846, Note_on_c, 0, 55, 50
1, 80849, Note_off_c, 0, 52, 58
1, 80906, Note_off_c, 0, 55, 56
1, 80923, Note_on_c, 0, 60, 48
1, 80926, Control_c, 0, 64, 76
1, 80941, Control_c, 0, 64, 76
1, 80956, Control_c, 0, 64, 75
1, 80968, Note_off_c, 0, 60, 60
1, 80971, Control_c, 0, 64, 73
1, 80986, Control_c, 0, 64, 70
1, 80999, Note_on_c, 0, 48, 55
1, 81001, Control_c, 0, 64, 67
1, 81016, Control_c, 0, 64, 64
1, 81016, Note_on_c, 0, 76, 68
1, 81031, Control_c, 0, 64, 61
1, 81044, Note_off_c, 0, 76, 66
1, 81045, Control_c, 0, 64, 58
1, 81058, Note_on_c, 0, 77, 72
1, 81060, Control_c, 0, 64, 55
1, 81073, Note_off_c, 0, 48, 59
1, 81075, Control_c, 0, 64, 52
1, 81078, Note_on_c, 0, 52, 52
1, 81089, Control_c, 0, 64, 48
1, 81104, Control_c, 0, 64, 45
1, 81114, Note_on_c, 0, 76, 80
1, 81119, Control_c, 0, 64, 38
1, 81134, Control_c, 0, 64, 0
1, 81150, Note_off_c, 0, 52, 58
1, 81151, Note_off_c, 0, 77, 62
1, 81154, Note_on_c, 0, 74, 75
1, 81157, Note_on_c, 0, 55, 57
1, 81196, Note_off_c, 0, 76, 64
1, 81207, Note_on_c, 0, 72, 74
1, 81207, Note_off_c, 0, 55, 57
1, 81222, Note_on_c, 0, 60, 46
1, 81226, Note_off_c, 0, 74, 62
1, 81272, Note_off_c, 0, 60, 60
1, 81289, Note_on_c, 0, 79, 90
1, 81299, Note_on_c, 0, 48, 55
1, 81299, Note_off_c, 0, 72, 62
1, 81326, Note_off_c, 0, 79, 67
1, 81326, Control_c, 0, 64, 39
1, 81341, Control_c, 0, 64, 56
1, 81356, Control_c, 0, 64, 64
1, 81371, Control_c, 0, 64, 68
1, 81382, Note_on_c, 0, 52, 57
1, 81382, Note_off_c, 0, 48, 60
1, 81385, Control_c, 0, 64, 71
1, 81400, Control_c, 0, 64, 72
1, 81415, Control_c, 0, 64, 73
1, 81445, Control_c, 0, 64, 72
1, 81446, Note_on_c, 0, 55, 64
1, 81460, Control_c, 0, 64, 72
1, 81460, Note_off_c, 0, 52, 59
1, 81475, Control_c, 0, 64, 69
1, 81490, Control_c, 0, 64, 64
1, 81505, Control_c, 0, 64, 51
1, 81517, Note_on_c, 0, 60, 54
1, 81519, Note_off_c, 0, 55, 59
1, 81520, Control_c, 0, 64, 0
1, 81573, Note_off_c, 0, 60, 56
1, 81589, Note_on_c, 0, 48, 64
1, 81594, Note_on_c, 0, 79, 93
1, 81624, Control_c, 0, 64, 33
1, 81644, Note_off_c, 0, 79, 69
1, 81645, Control_c, 0, 64, 49
1, 81660, Control_c, 0, 64, 60
1, 81675, Control_c, 0, 64, 65
1, 81690, Control_c, 0, 64, 69
1, 81705, Control_c, 0, 64, 72
1, 81706, Note_on_c, 0, 53, 58
1, 81711, Note_off_c, 0, 48, 60
1, 81719, Control_c, 0, 64, 75
1, 81734, Control_c, 0, 64, 77
1, 81767, Note_on_c, 0, 55, 63
1, 81796, Note_off_c, 0, 53, 58
1, 81809, Control_c, 0, 64, 76
1, 81818, Note_on_c, 0, 60, 65
1, 81824, Control_c, 0, 64, 75
1, 81836, Note_off_c, 0, 55, 60
1, 81838, Control_c, 0, 64, 71
1, 81853, Control_c, 0, 64, 67
1, 81868, Control_c, 0, 64, 62
1, 81882, Note_off_c, 0, 60, 63
1, 81883, Control_c, 0, 64, 57
1, 81888, Note_on_c, 0, 83, 80
1, 81896, Note_on_c, 0, 48, 71
1, 81898, Control_c, 0, 64, 52
1, 81912, Control_c, 0, 64, 48
1, 81927, Control_c, 0, 64, 44
1, 81931, Note_on_c, 0, 84, 83
1, 81931, Note_off_c, 0, 83, 63
1, 81942, Control_c, 0, 64, 41
1, 81957, Control_c, 0, 64, 38
1, 81972, Control_c, 0, 64, 35
1, 81985, Note_on_c, 0, 83, 79
1, 81986, Control_c, 0, 64, 34
1, 81991, Note_on_c, 0, 53, 49
1, 82016, Control_c, 0, 64, 34
1, 82031, Control_c, 0, 64, 35
1, 82035, Note_on_c, 0, 55, 56
1, 82035, Note_on_c, 0, 81, 83
1, 82041, Note_off_c, 0, 84, 64
1, 82045, Control_c, 0, 64, 36
1, 82079, Note_off_c, 0, 53, 62
1, 82091, Note_on_c, 0, 79, 85
1, 82093, Note_off_c, 0, 83, 64
1, 82100, Note_off_c, 0, 48, 30
1, 82105, Control_c, 0, 64, 34
1, 82109, Note_off_c, 0, 55, 62
1, 82119, Note_off_c, 0, 81, 64
1, 82119, Control_c, 0, 64, 30
1, 82134, Control_c, 0, 64, 0
1, 82170, Note_on_c, 0, 52, 67
1, 82176, Note_on_c, 0, 84, 92
1, 82185, Note_on_c, 0, 55, 55
1, 82192, Note_off_c, 0, 79, 66
1, 82198, Note_on_c, 0, 48, 26
1, 82216, Note_off_c, 0, 55, 64
1, 82217, Note_off_c, 0, 52, 61
1, 82236, Note_off_c, 0, 48, 44
1, 82259, Note_off_c, 0, 84, 63
1, 82533, Note_on_c, 0, 88, 96
1, 82534, Note_on_c, 0, 52, 66
1, 82539, Note_on_c, 0, 64, 64
1, 82706, Control_c, 0, 64, 29
1, 82721, Control_c, 0, 64, 59
1, 82736, Control_c, 0, 64, 64
1, 82750, Note_off_c, 0, 64, 61
1, 82751, Control_c, 0, 64, 71
1, 82766, Control_c, 0, 64, 80
1, 82781, Control_c, 0, 64, 96
1, 82795, Control_c, 0, 64, 127
1, 82796, Note_off_c, 0, 52, 62
1, 82853, Note_off_c, 0, 88, 54
1, 82987, Control_c, 0, 64, 107
1, 83002, Control_c, 0, 64, 98
1, 83017, Control_c, 0, 64, 90
1, 83025, Note_on_c, 0, 56, 70
1, 83025, Note_on_c, 0, 80, 88
1, 83031, Note_on_c, 0, 44, 65
1, 83032, Control_c, 0, 64, 84
1, 83047, Control_c, 0, 64, 79
1, 83063, Control_c, 0, 64, 74
1, 83078, Control_c, 0, 64, 70
1, 83084, Note_off_c, 0, 44, 62
1, 83088, Note_off_c, 0, 56, 57
1, 83092, Control_c, 0, 64, 67
1, 83107, Control_c, 0, 64, 64
1, 83117, Note_off_c, 0, 80, 57
1, 83122, Control_c, 0, 64, 61
1, 83144, Control_c, 0, 64, 58
1, 83159, Control_c, 0, 64, 51
1, 83174, Control_c, 0, 64, 38
1, 83178, Note_on_c, 0, 81, 87
1, 83180, Note_on_c, 0, 45, 72
1, 83187, Note_on_c, 0, 57, 65
1, 83189, Control_c, 0, 64, 0
1, 83237, Note_off_c, 0, 57, 59
1, 83245, Note_off_c, 0, 45, 61
1, 83277, Note_off_c, 0, 81, 59
1, 83520, Note_on_c, 0, 84, 89
1, 83522, Note_on_c, 0, 48, 54
1, 83528, Note_on_c, 0, 60, 50
1, 83707, Control_c, 0, 64, 34
1, 83722, Control_c, 0, 64, 37
1, 83737, Control_c, 0, 64, 47
1, 83752, Control_c, 0, 64, 59
1, 83766, Control_c, 0, 64, 66
1, 83781, Control_c, 0, 64, 74
1, 83785, Note_off_c, 0, 60, 48
1, 83796, Control_c, 0, 64, 85
1, 83806, Note_off_c, 0, 84, 62
1, 83809, Control_c, 0, 64, 99
1, 83824, Control_c, 0, 64, 127
1, 83886, Note_off_c, 0, 48, 47
1, 83996, Control_c, 0, 64, 114
1, 84000, Note_on_c, 0, 52, 64
1, 84011, Control_c, 0, 64, 102
1, 84016, Note_on_c, 0, 76, 70
1, 84026, Control_c, 0, 64, 94
1, 84040, Control_c, 0, 64, 88
1, 84055, Control_c, 0, 64, 84
1, 84065, Note_off_c, 0, 76, 60
1, 84070, Control_c, 0, 64, 80
1, 84076, Note_off_c, 0, 52, 60
1, 84085, Control_c, 0, 64, 76
1, 84100, Control_c, 0, 64, 73
1, 84114, Control_c, 0, 64, 70
1, 84129, Control_c, 0, 64, 68
1, 84144, Note_on_c, 0, 53, 61
1, 84144, Control_c, 0, 64, 66
1, 84154, Note_on_c, 0, 77, 62
1, 84159, Control_c, 0, 64, 64
1, 84174, Control_c, 0, 64, 61
1, 84182, Note_off_c, 0, 53, 64
1, 84182, Note_off_c, 0, 77, 66
1, 84188, Control_c, 0, 64, 56
1, 84191, Note_on_c, 0, 79, 74
1, 84196, Note_on_c, 0, 55, 60
1, 84203, Control_c, 0, 64, 51
1, 84218, Control_c, 0, 64, 45
1, 84233, Control_c, 0, 64, 40
1, 84244, Note_off_c, 0, 55, 61
1, 84247, Control_c, 0, 64, 31
1, 84250, Note_on_c, 0, 77, 75
1, 84256, Note_on_c, 0, 53, 50
1, 84262, Control_c, 0, 64, 0
1, 84294, Note_off_c, 0, 79, 64
1, 84298, Note_off_c, 0, 53, 63
1, 84298, Note_on_c, 0, 52, 59
1, 84300, Note_on_c, 0, 76, 79
1, 84339, Note_off_c, 0, 77, 62
1, 84351, Note_on_c, 0, 74, 69
1, 84354, Note_on_c, 0, 50, 61
1, 84359, Note_off_c, 0, 52, 61
1, 84369, Note_off_c, 0, 76, 63
1, 84407, Note_off_c, 0, 50, 61
1, 84410, Note_on_c, 0, 55, 64
1, 84417, Note_on_c, 0, 79, 85
1, 84441, Note_off_c, 0, 74, 63
1, 84462, Note_off_c, 0, 55, 62
1, 84473, Note_off_c, 0, 79, 67
1, 84730, Note_on_c, 0, 43, 77
1, 84730, Note_on_c, 0, 77, 71
1, 84732, Note_on_c, 0, 74, 79
1, 84733, Note_on_c, 0, 55, 75
1, 84733, Note_on_c, 0, 79, 74
1, 84733, Note_on_c, 0, 83, 78
1, 84748, Note_on_c, 0, 81, 66
1, 84773, Note_off_c, 0, 81, 53
1, 84781, Note_off_c, 0, 43, 62
1, 84787, Note_off_c, 0, 55, 61
1, 84796, Note_off_c, 0, 74, 62
1, 84802, Note_off_c, 0, 79, 62
1, 84814, Note_off_c, 0, 83, 63
1, 84828, Note_off_c, 0, 77, 60
1, 85056, Note_on_c, 0, 48, 72
1, 85062, Note_on_c, 0, 76, 81
1, 85063, Note_on_c, 0, 84, 93
1, 85064, Note_on_c, 0, 79, 76
1, 85070, Note_on_c, 0, 60, 59
1, 85102, Note_off_c, 0, 60, 67
1, 85124, Note_off_c, 0, 79, 65
1, 85125, Note_off_c, 0, 76, 62
1, 85129, Note_off_c, 0, 48, 64
1, 85135, Note_off_c, 0, 84, 65
1, 85469, Note_on_c, 0, 36, 42
1, 85478, Note_on_c, 0, 60, 43
1, 85548, Note_off_c, 0, 36, 51
1, 85558, Poly_aftertouch_c, 0, 48, 127
1, 85594, Poly_aftertouch_c, 0, 48, 0
1, 85606, Note_off_c, 0, 60, 48
1, 85805, Control_c, 0, 67, 22
1, 85820, Control_c, 0, 67, 27
1, 85835, Control_c, 0, 67, 33
1, 85850, Control_c, 0, 67, 40
1, 85865, Control_c, 0, 67, 43
1, 85894, Control_c, 0, 67, 41
1, 85909, Control_c, 0, 67, 39
1, 85924, Control_c, 0, 67, 37
1, 85939, Control_c, 0, 67, 36
1, 85953, Control_c, 0, 67, 35
1, 85968, Control_c, 0, 67, 34
1, 85983, Control_c, 0, 67, 33
1, 85998, Control_c, 0, 67, 32
1, 86271, Note_on_c, 0, 67, 43
1, 86495, Control_c, 0, 67, 30
1, 86584, Control_c, 0, 67, 25
1, 86599, Control_c, 0, 67, 19
1, 86614, Control_c, 0, 67, 0
1, 86623, Note_on_c, 0, 72, 57
1, 86630, Note_on_c, 0, 52, 36
1, 86776, Control_c, 0, 64, 40
1, 86791, Control_c, 0, 64, 51
1, 86806, Control_c, 0, 64, 58
1, 86821, Control_c, 0, 64, 61
1, 86835, Control_c, 0, 64, 62
1, 86850, Control_c, 0, 64, 63
1, 86865, Control_c, 0, 64, 64
1, 86888, Control_c, 0, 64, 65
1, 86932, Control_c, 0, 64, 64
1, 86947, Control_c, 0, 64, 62
1, 86953, Note_on_c, 0, 76, 74
1, 86961, Control_c, 0, 64, 58
1, 86965, Note_on_c, 0, 48, 42
1, 86976, Control_c, 0, 64, 53
1, 86991, Control_c, 0, 64, 49
1, 86997, Note_off_c, 0, 52, 41
1, 87006, Control_c, 0, 64, 49
1, 87021, Control_c, 0, 64, 50
1, 87035, Control_c, 0, 64, 52
1, 87040, Note_off_c, 0, 72, 51
1, 87050, Control_c, 0, 64, 55
1, 87066, Control_c, 0, 64, 59
1, 87081, Control_c, 0, 64, 63
1, 87083, Note_off_c, 0, 67, 53
1, 87096, Control_c, 0, 64, 66
1, 87111, Control_c, 0, 64, 72
1, 87126, Control_c, 0, 64, 80
1, 87140, Control_c, 0, 64, 89
1, 87155, Control_c, 0, 64, 98
1, 87170, Control_c, 0, 64, 102
1, 87180, Note_off_c, 0, 76, 44
1, 87229, Control_c, 0, 64, 100
1, 87244, Control_c, 0, 64, 98
1, 87258, Control_c, 0, 64, 95
1, 87273, Control_c, 0, 64, 91
1, 87288, Control_c, 0, 64, 84
1, 87303, Control_c, 0, 64, 78
1, 87317, Note_on_c, 0, 76, 75
1, 87318, Control_c, 0, 64, 71
1, 87332, Control_c, 0, 64, 66
1, 87335, Note_on_c, 0, 67, 45
1, 87336, Note_on_c, 0, 72, 48
1, 87344, Note_on_c, 0, 55, 35
1, 87347, Control_c, 0, 64, 63
1, 87362, Control_c, 0, 64, 60
1, 87377, Control_c, 0, 64, 56
1, 87392, Control_c, 0, 64, 53
1, 87395, Note_off_c, 0, 48, 29
1, 87407, Control_c, 0, 64, 51
1, 87422, Control_c, 0, 64, 48
1, 87437, Control_c, 0, 64, 46
1, 87451, Control_c, 0, 64, 44
1, 87466, Control_c, 0, 64, 41
1, 87481, Control_c, 0, 64, 37
1, 87496, Control_c, 0, 64, 30
1, 87511, Control_c, 0, 64, 0
1, 87711, Control_c, 0, 64, 30
1, 87726, Control_c, 0, 64, 40
1, 87740, Control_c, 0, 64, 49
1, 87755, Control_c, 0, 64, 55
1, 87770, Control_c, 0, 64, 59
1, 87779, Note_off_c, 0, 72, 60
1, 87784, Control_c, 0, 64, 60
1, 87799, Control_c, 0, 64, 61
1, 87814, Control_c, 0, 64, 62
1, 87829, Control_c, 0, 64, 63
1, 87844, Control_c, 0, 64, 64
1, 87860, Control_c, 0, 64, 65
1, 87934, Control_c, 0, 64, 64
1, 87949, Control_c, 0, 64, 62
1, 87963, Control_c, 0, 64, 57
1, 87978, Control_c, 0, 64, 51
1, 87993, Control_c, 0, 64, 46
1, 87996, Note_off_c, 0, 76, 57
1, 88007, Control_c, 0, 64, 44
1, 88013, Note_on_c, 0, 74, 56
1, 88033, Note_on_c, 0, 71, 41
1, 88037, Control_c, 0, 64, 45
1, 88052, Control_c, 0, 64, 47
1, 88067, Control_c, 0, 64, 51
1, 88081, Control_c, 0, 64, 56
1, 88096, Control_c, 0, 64, 60
1, 88100, Note_off_c, 0, 71, 48
1, 88111, Control_c, 0, 64, 64
1, 88126, Control_c, 0, 64, 68
1, 88127, Note_off_c, 0, 67, 43
1, 88141, Control_c, 0, 64, 73
1, 88155, Control_c, 0, 64, 80
1, 88170, Control_c, 0, 64, 88
1, 88178, Note_off_c, 0, 74, 59
1, 88185, Control_c, 0, 64, 93
1, 88200, Control_c, 0, 64, 94
1, 88229, Note_off_c, 0, 55, 36
1, 88245, Control_c, 0, 64, 94
1, 88259, Control_c, 0, 64, 93
1, 88274, Control_c, 0, 64, 92
1, 88289, Control_c, 0, 64, 89
1, 88304, Control_c, 0, 64, 83
1, 88319, Control_c, 0, 64, 76
1, 88333, Control_c, 0, 64, 70
1, 88348, Control_c, 0, 64, 65
1, 88363, Control_c, 0, 64, 61
1, 88384, Note_on_c, 0, 79, 67
1, 88385, Control_c, 0, 64, 58
1, 88400, Control_c, 0, 64, 54
1, 88414, Control_c, 0, 64, 51
1, 88429, Control_c, 0, 64, 49
1, 88444, Control_c, 0, 64, 47
1, 88459, Control_c, 0, 64, 44
1, 88474, Control_c, 0, 64, 39
1, 88489, Control_c, 0, 64, 32
1, 88504, Control_c, 0, 64, 0
1, 88718, Note_on_c, 0, 72, 59
1, 88722, Note_on_c, 0, 67, 45
1, 88728, Note_on_c, 0, 52, 35
1, 88868, Note_off_c, 0, 79, 29
1, 89043, Note_on_c, 0, 76, 71
1, 89048, Note_on_c, 0, 48, 41
1, 89083, Note_off_c, 0, 52, 40
1, 89149, Control_c, 0, 64, 34
1, 89158, Note_off_c, 0, 72, 47
1, 89163, Control_c, 0, 64, 51
1, 89178, Control_c, 0, 64, 61
1, 89189, Note_off_c, 0, 67, 40
1, 89193, Control_c, 0, 64, 66
1, 89208, Control_c, 0, 64, 71
1, 89223, Control_c, 0, 64, 77
1, 89237, Control_c, 0, 64, 83
1, 89252, Control_c, 0, 64, 86
1, 89254, Note_off_c, 0, 76, 59
1, 89267, Control_c, 0, 64, 87
1, 89297, Control_c, 0, 64, 87
1, 89312, Control_c, 0, 64, 85
1, 89327, Control_c, 0, 64, 83
1, 89341, Control_c, 0, 64, 79
1, 89356, Control_c, 0, 64, 74
1, 89371, Control_c, 0, 64, 68
1, 89372, Note_on_c, 0, 76, 70
1, 89379, Note_on_c, 0, 55, 39
1, 89386, Note_on_c, 0, 72, 54
1, 89386, Control_c, 0, 64, 63
1, 89392, Note_on_c, 0, 67, 39
1, 89401, Control_c, 0, 64, 55
1, 89416, Control_c, 0, 64, 48
1, 89417, Note_off_c, 0, 48, 19
1, 89430, Control_c, 0, 64, 43
1, 89445, Control_c, 0, 64, 37
1, 89461, Control_c, 0, 64, 0
1, 89772, Control_c, 0, 64, 34
1, 89786, Control_c, 0, 64, 47
1, 89802, Control_c, 0, 64, 57
1, 89816, Note_off_c, 0, 72, 62
1, 89817, Control_c, 0, 64, 61
1, 89832, Control_c, 0, 64, 63
1, 89847, Control_c, 0, 64, 65
1, 89861, Control_c, 0, 64, 67
1, 89884, Control_c, 0, 64, 69
1, 89899, Control_c, 0, 64, 72
1, 89913, Control_c, 0, 64, 73
1, 89987, Control_c, 0, 64, 73
1, 90002, Control_c, 0, 64, 68
1, 90017, Control_c, 0, 64, 60
1, 90021, Note_off_c, 0, 55, 51
1, 90032, Control_c, 0, 64, 47
1, 90040, Note_off_c, 0, 76, 55
1, 90047, Control_c, 0, 64, 0
1, 90057, Note_on_c, 0, 74, 54
1, 90067, Note_on_c, 0, 71, 46
1, 90105, Control_c, 0, 64, 30
1, 90120, Control_c, 0, 64, 46
1, 90122, Note_off_c, 0, 67, 38
1, 90135, Control_c, 0, 64, 59
1, 90150, Control_c, 0, 64, 67
1, 90165, Control_c, 0, 64, 74
1, 90179, Control_c, 0, 64, 84
1, 90194, Control_c, 0, 64, 94
1, 90201, Note_off_c, 0, 71, 37
1, 90209, Control_c, 0, 64, 109
1, 90217, Note_off_c, 0, 74, 60
1, 90224, Control_c, 0, 64, 127
1, 90270, Control_c, 0, 64, 120
1, 90284, Control_c, 0, 64, 111
1, 90299, Control_c, 0, 64, 105
1, 90314, Control_c, 0, 64, 98
1, 90329, Control_c, 0, 64, 89
1, 90344, Control_c, 0, 64, 78
1, 90358, Control_c, 0, 64, 70
1, 90373, Control_c, 0, 64, 63
1, 90388, Control_c, 0, 64, 57
1, 90402, Note_on_c, 0, 69, 55
1, 90403, Control_c, 0, 64, 51
1, 90418, Control_c, 0, 64, 46
1, 90421, Note_on_c, 0, 62, 23
1, 90424, Note_on_c, 0, 53, 18
1, 90433, Control_c, 0, 64, 41
1, 90442, Note_on_c, 0, 57, 16
1, 90447, Control_c, 0, 64, 33
1, 90462, Control_c, 0, 64, 0
1, 90726, Note_on_c, 0, 74, 70
1, 90835, Note_off_c, 0, 62, 40
1, 90877, Note_off_c, 0, 69, 50
1, 90895, Note_off_c, 0, 53, 34
1, 90906, Note_off_c, 0, 57, 34
1, 91028, Note_on_c, 0, 77, 72
1, 91081, Note_off_c, 0, 74, 59
1, 91364, Note_on_c, 0, 76, 74
1, 91376, Note_on_c, 0, 53, 29
1, 91384, Note_on_c, 0, 62, 23
1, 91386, Note_on_c, 0, 57, 30
1, 91476, Note_off_c, 0, 77, 53
1, 91674, Note_off_c, 0, 53, 42
1, 91680, Note_off_c, 0, 57, 57
1, 91696, Note_on_c, 0, 74, 68
1, 91711, Note_off_c, 0, 62, 45
1, 91750, Note_off_c, 0, 76, 60
1, 91780, Control_c, 0, 64, 31
1, 91795, Control_c, 0, 64, 42
1, 91810, Control_c, 0, 64, 51
1, 91824, Control_c, 0, 64, 58
1, 91839, Control_c, 0, 64, 62
1, 91854, Control_c, 0, 64, 65
1, 91869, Control_c, 0, 64, 68
1, 91880, Note_off_c, 0, 74, 60
1, 91884, Control_c, 0, 64, 73
1, 91899, Control_c, 0, 64, 77
1, 91914, Control_c, 0, 64, 79
1, 91929, Control_c, 0, 64, 80
1, 91959, Control_c, 0, 64, 79
1, 91973, Control_c, 0, 64, 77
1, 91988, Control_c, 0, 64, 74
1, 92003, Control_c, 0, 64, 71
1, 92018, Control_c, 0, 64, 67
1, 92033, Control_c, 0, 64, 64
1, 92047, Control_c, 0, 64, 60
1, 92055, Note_on_c, 0, 81, 76
1, 92062, Control_c, 0, 64, 56
1, 92077, Control_c, 0, 64, 53
1, 92091, Control_c, 0, 64, 51
1, 92106, Control_c, 0, 64, 51
1, 92129, Control_c, 0, 64, 50
1, 92144, Control_c, 0, 64, 50
1, 92158, Control_c, 0, 64, 49
1, 92173, Control_c, 0, 64, 47
1, 92188, Control_c, 0, 64, 46
1, 92203, Control_c, 0, 64, 45
1, 92218, Control_c, 0, 64, 45
1, 92233, Control_c, 0, 64, 44
1, 92247, Control_c, 0, 64, 44
1, 92262, Control_c, 0, 64, 43
1, 92277, Control_c, 0, 64, 43
1, 92292, Control_c, 0, 64, 42
1, 92306, Control_c, 0, 64, 41
1, 92321, Control_c, 0, 64, 41
1, 92336, Control_c, 0, 64, 40
1, 92351, Control_c, 0, 64, 39
1, 92366, Control_c, 0, 64, 38
1, 92380, Control_c, 0, 64, 36
1, 92395, Control_c, 0, 64, 35
1, 92415, Note_on_c, 0, 62, 32
1, 92421, Note_on_c, 0, 55, 29
1, 92430, Note_on_c, 0, 65, 29
1, 92454, Control_c, 0, 64, 34
1, 92469, Control_c, 0, 64, 33
1, 92484, Control_c, 0, 64, 33
1, 92588, Control_c, 0, 64, 32
1, 92618, Control_c, 0, 64, 0
1, 92749, Note_on_c, 0, 79, 61
1, 92781, Control_c, 0, 64, 31
1, 92784, Note_off_c, 0, 81, 45
1, 92796, Control_c, 0, 64, 40
1, 92811, Control_c, 0, 64, 46
1, 92826, Control_c, 0, 64, 50
1, 92841, Control_c, 0, 64, 52
1, 92856, Control_c, 0, 64, 55
1, 92878, Control_c, 0, 64, 57
1, 92893, Control_c, 0, 64, 58
1, 92908, Control_c, 0, 64, 58
1, 92937, Control_c, 0, 64, 57
1, 92952, Control_c, 0, 64, 54
1, 92967, Control_c, 0, 64, 48
1, 92982, Control_c, 0, 64, 41
1, 92996, Control_c, 0, 64, 37
1, 93015, Note_off_c, 0, 79, 34
1, 93026, Control_c, 0, 64, 38
1, 93041, Control_c, 0, 64, 41
1, 93056, Control_c, 0, 64, 46
1, 93071, Control_c, 0, 64, 50
1, 93071, Note_on_c, 0, 71, 45
1, 93086, Control_c, 0, 64, 55
1, 93100, Control_c, 0, 64, 59
1, 93115, Control_c, 0, 64, 63
1, 93130, Control_c, 0, 64, 66
1, 93133, Note_off_c, 0, 65, 43
1, 93145, Control_c, 0, 64, 68
1, 93153, Note_off_c, 0, 71, 62
1, 93160, Control_c, 0, 64, 70
1, 93175, Control_c, 0, 64, 72
1, 93190, Control_c, 0, 64, 74
1, 93204, Control_c, 0, 64, 76
1, 93219, Control_c, 0, 64, 76
1, 93234, Control_c, 0, 67, 20
1, 93249, Control_c, 0, 67, 25
1, 93264, Control_c, 0, 64, 76
1, 93264, Control_c, 0, 67, 30
1, 93278, Control_c, 0, 64, 75
1, 93278, Control_c, 0, 67, 40
1, 93293, Control_c, 0, 64, 73
1, 93293, Control_c, 0, 67, 54
1, 93308, Control_c, 0, 64, 71
1, 93308, Control_c, 0, 67, 69
1, 93322, Control_c, 0, 64, 68
1, 93322, Control_c, 0, 67, 83
1, 93336, Note_off_c, 0, 62, 25
1, 93337, Control_c, 0, 64, 65
1, 93337, Control_c, 0, 67, 91
1, 93352, Control_c, 0, 64, 62
1, 93352, Control_c, 0, 67, 97
1, 93367, Control_c, 0, 64, 58
1, 93367, Control_c, 0, 67, 99
1, 93382, Control_c, 0, 64, 55
1, 93396, Control_c, 0, 64, 53
1, 93411, Control_c, 0, 64, 52
1, 93412, Note_on_c, 0, 72, 50
1, 93426, Control_c, 0, 64, 49
1, 93431, Note_on_c, 0, 64, 17
1, 93441, Control_c, 0, 64, 45
1, 93443, Note_on_c, 0, 60, 16
1, 93457, Control_c, 0, 64, 38
1, 93472, Control_c, 0, 64, 0
1, 93472, Control_c, 0, 67, 97
1, 93501, Control_c, 0, 67, 96
1, 93516, Control_c, 0, 67, 95
1, 93545, Control_c, 0, 67, 94
1, 93580, Note_on_c, 0, 67, 54
1, 93628, Note_off_c, 0, 64, 53
1, 93629, Note_off_c, 0, 72, 51
1, 93642, Control_c, 0, 67, 94
1, 93657, Control_c, 0, 67, 93
1, 93694, Note_off_c, 0, 60, 59
1, 93706, Note_off_c, 0, 55, 15
1, 93730, Note_off_c, 0, 67, 62
1, 93731, Note_on_c, 0, 64, 63
1, 93775, Control_c, 0, 67, 94
1, 93790, Control_c, 0, 67, 94
1, 93805, Control_c, 0, 67, 95
1, 93819, Control_c, 0, 67, 95
1, 93849, Control_c, 0, 67, 97
1, 93878, Control_c, 0, 67, 99
1, 93883, Note_on_c, 0, 67, 56
1, 93893, Note_off_c, 0, 64, 57
1, 93908, Control_c, 0, 67, 102
1, 93923, Control_c, 0, 67, 108
1, 93938, Control_c, 0, 67, 118
1, 93953, Control_c, 0, 67, 127
1, 94043, Note_on_c, 0, 65, 58
1, 94060, Note_off_c, 0, 67, 59
1, 94160, Note_off_c, 0, 65, 64
1, 94197, Note_on_c, 0, 62, 52
1, 94250, Note_off_c, 0, 62, 55
1, 94348, Note_on_c, 0, 60, 48
1, 94565, Note_off_c, 0, 60, 65
1, 94605, Note_on_c, 0, 55, 45
1, 94674, Note_on_c, 0, 52, 35
1, 94682, Note_on_c, 0, 60, 57
1, 94692, Note_off_c, 0, 55, 57
1, 94993, Note_on_c, 0, 64, 62
1, 95003, Note_on_c, 0, 48, 31
1, 95042, Note_off_c, 0, 52, 39
1, 95059, Control_c, 0, 64, 32
1, 95073, Control_c, 0, 64, 49
1, 95088, Control_c, 0, 64, 61
1, 95103, Control_c, 0, 64, 65
1, 95117, Note_off_c, 0, 60, 37
1, 95124, Control_c, 0, 64, 68
1, 95135, Note_off_c, 0, 48, 32
1, 95139, Control_c, 0, 64, 71
1, 95154, Control_c, 0, 64, 75
1, 95166, Note_off_c, 0, 64, 53
1, 95169, Control_c, 0, 64, 80
1, 95184, Control_c, 0, 64, 84
1, 95199, Control_c, 0, 64, 85
1, 95273, Control_c, 0, 64, 84
1, 95288, Control_c, 0, 64, 83
1, 95303, Control_c, 0, 64, 81
1, 95317, Control_c, 0, 64, 78
1, 95332, Control_c, 0, 64, 75
1, 95347, Control_c, 0, 64, 72
1, 95348, Note_on_c, 0, 64, 51
1, 95362, Control_c, 0, 64, 69
1, 95366, Note_on_c, 0, 60, 41
1, 95374, Note_on_c, 0, 43, 30
1, 95377, Control_c, 0, 64, 67
1, 95378, Note_on_c, 0, 55, 30
1, 95392, Control_c, 0, 64, 64
1, 95406, Control_c, 0, 64, 61
1, 95421, Control_c, 0, 64, 57
1, 95436, Control_c, 0, 64, 53
1, 95450, Control_c, 0, 64, 50
1, 95465, Control_c, 0, 64, 47
1, 95480, Control_c, 0, 64, 45
1, 95495, Control_c, 0, 64, 43
1, 95510, Control_c, 0, 64, 40
1, 95524, Control_c, 0, 64, 37
1, 95539, Control_c, 0, 64, 35
1, 95554, Control_c, 0, 64, 33
1, 95569, Control_c, 0, 64, 32
1, 95584, Control_c, 0, 64, 30
1, 95598, Control_c, 0, 64, 0
1, 95962, Note_off_c, 0, 60, 48
1, 95970, Note_off_c, 0, 64, 51
1, 95989, Note_on_c, 0, 62, 45
1, 96012, Note_on_c, 0, 59, 29
1, 96081, Control_c, 0, 64, 43
1, 96096, Control_c, 0, 64, 57
1, 96096, Note_off_c, 0, 59, 53
1, 96111, Control_c, 0, 64, 64
1, 96126, Control_c, 0, 64, 68
1, 96140, Control_c, 0, 64, 71
1, 96148, Note_off_c, 0, 62, 57
1, 96155, Control_c, 0, 64, 74
1, 96170, Control_c, 0, 64, 77
1, 96185, Control_c, 0, 64, 78
1, 96244, Control_c, 0, 64, 77
1, 96259, Control_c, 0, 64, 77
1, 96260, Note_off_c, 0, 43, 37
1, 96273, Control_c, 0, 64, 75
1, 96285, Note_off_c, 0, 55, 34
1, 96288, Control_c, 0, 64, 73
1, 96303, Control_c, 0, 64, 69
1, 96318, Control_c, 0, 64, 65
1, 96333, Control_c, 0, 64, 62
1, 96341, Note_on_c, 0, 67, 50
1, 96347, Control_c, 0, 64, 58
1, 96362, Control_c, 0, 64, 55
1, 96377, Control_c, 0, 64, 51
1, 96392, Control_c, 0, 64, 48
1, 96407, Control_c, 0, 64, 45
1, 96421, Control_c, 0, 64, 41
1, 96436, Control_c, 0, 64, 36
1, 96451, Control_c, 0, 64, 32
1, 96466, Control_c, 0, 64, 30
1, 96555, Control_c, 0, 64, 0
1, 96677, Note_on_c, 0, 55, 38
1, 96677, Note_on_c, 0, 60, 43
1, 96686, Note_on_c, 0, 52, 34
1, 96752, Note_off_c, 0, 67, 38
1, 96866, Note_off_c, 0, 55, 48
1, 96996, Note_on_c, 0, 64, 51
1, 97001, Note_on_c, 0, 48, 39
1, 97022, Note_off_c, 0, 52, 40
1, 97038, Note_off_c, 0, 60, 59
1, 97067, Control_c, 0, 64, 40
1, 97082, Control_c, 0, 64, 54
1, 97096, Control_c, 0, 64, 60
1, 97111, Control_c, 0, 64, 63
1, 97126, Control_c, 0, 64, 65
1, 97141, Control_c, 0, 64, 66
1, 97150, Note_off_c, 0, 48, 33
1, 97150, Note_off_c, 0, 64, 36
1, 97156, Control_c, 0, 64, 68
1, 97170, Control_c, 0, 64, 70
1, 97185, Control_c, 0, 64, 71
1, 97274, Control_c, 0, 64, 71
1, 97289, Control_c, 0, 64, 70
1, 97303, Control_c, 0, 64, 69
1, 97318, Control_c, 0, 64, 67
1, 97333, Control_c, 0, 64, 66
1, 97348, Control_c, 0, 64, 65
1, 97366, Note_on_c, 0, 64, 47
1, 97370, Control_c, 0, 64, 63
1, 97373, Note_on_c, 0, 60, 39
1, 97385, Control_c, 0, 64, 62
1, 97386, Note_on_c, 0, 43, 34
1, 97386, Note_on_c, 0, 55, 32
1, 97400, Control_c, 0, 64, 61
1, 97415, Control_c, 0, 64, 60
1, 97429, Control_c, 0, 64, 59
1, 97446, Control_c, 0, 64, 58
1, 97461, Control_c, 0, 64, 57
1, 97475, Control_c, 0, 64, 56
1, 97490, Control_c, 0, 64, 55
1, 97490, Control_c, 0, 67, 122
1, 97505, Control_c, 0, 64, 55
1, 97505, Control_c, 0, 67, 114
1, 97519, Control_c, 0, 64, 54
1, 97519, Control_c, 0, 67, 106
1, 97534, Control_c, 0, 64, 53
1, 97534, Control_c, 0, 67, 99
1, 97549, Control_c, 0, 64, 53
1, 97549, Control_c, 0, 67, 91
1, 97564, Control_c, 0, 64, 52
1, 97564, Control_c, 0, 67, 83
1, 97579, Control_c, 0, 64, 51
1, 97579, Control_c, 0, 67, 75
1, 97593, Control_c, 0, 67, 67
1, 97608, Control_c, 0, 64, 51
1, 97608, Control_c, 0, 67, 60
1, 97623, Control_c, 0, 67, 55
1, 97637, Control_c, 0, 64, 50
1, 97637, Control_c, 0, 67, 50
1, 97652, Control_c, 0, 67, 46
1, 97667, Control_c, 0, 67, 42
1, 97682, Control_c, 0, 64, 50
1, 97682, Control_c, 0, 67, 39
1, 97697, Control_c, 0, 67, 35
1, 97712, Control_c, 0, 64, 49
1, 97712, Control_c, 0, 67, 30
1, 97727, Control_c, 0, 64, 49
1, 97727, Control_c, 0, 67, 25
1, 97742, Control_c, 0, 67, 19
1, 97757, Control_c, 0, 64, 48
1, 97757, Control_c, 0, 67, 0
1, 97771, Control_c, 0, 64, 48
1, 97786, Control_c, 0, 64, 47
1, 97801, Control_c, 0, 64, 46
1, 97816, Control_c, 0, 64, 44
1, 97831, Control_c, 0, 64, 40
1, 97845, Control_c, 0, 64, 31
1, 97860, Control_c, 0, 64, 0
1, 97964, Note_off_c, 0, 60, 54
1, 97992, Note_on_c, 0, 62, 40
1, 97998, Note_off_c, 0, 64, 36
1, 98008, Note_on_c, 0, 59, 26
1, 98052, Control_c, 0, 64, 32
1, 98066, Note_off_c, 0, 55, 50
1, 98067, Control_c, 0, 64, 50
1, 98082, Control_c, 0, 64, 59
1, 98097, Control_c, 0, 64, 63
1, 98114, Note_off_c, 0, 59, 52
1, 98119, Control_c, 0, 64, 66
1, 98134, Control_c, 0, 64, 70
1, 98140, Note_off_c, 0, 62, 58
1, 98141, Note_off_c, 0, 43, 50
1, 98149, Control_c, 0, 64, 74
1, 98164, Control_c, 0, 64, 76
1, 98179, Control_c, 0, 64, 78
1, 98223, Control_c, 0, 64, 77
1, 98254, Control_c, 0, 64, 77
1, 98268, Control_c, 0, 64, 76
1, 98283, Control_c, 0, 64, 75
1, 98298, Control_c, 0, 64, 72
1, 98313, Control_c, 0, 64, 69
1, 98328, Control_c, 0, 64, 67
1, 98342, Control_c, 0, 64, 65
1, 98344, Note_on_c, 0, 57, 49
1, 98352, Note_on_c, 0, 41, 36
1, 98357, Control_c, 0, 64, 63
1, 98370, Note_on_c, 0, 50, 31
1, 98372, Control_c, 0, 64, 61
1, 98387, Control_c, 0, 64, 58
1, 98391, Note_on_c, 0, 45, 19
1, 98402, Control_c, 0, 64, 56
1, 98416, Control_c, 0, 64, 55
1, 98431, Control_c, 0, 64, 53
1, 98446, Control_c, 0, 64, 51
1, 98460, Control_c, 0, 64, 50
1, 98475, Control_c, 0, 64, 48
1, 98490, Control_c, 0, 64, 45
1, 98505, Control_c, 0, 64, 43
1, 98520, Control_c, 0, 64, 40
1, 98535, Control_c, 0, 64, 37
1, 98550, Control_c, 0, 64, 35
1, 98564, Control_c, 0, 64, 31
1, 98579, Control_c, 0, 64, 0
1, 98703, Note_on_c, 0, 62, 60
1, 98737, Note_off_c, 0, 50, 40
1, 98758, Note_off_c, 0, 41, 37
1, 98823, Note_off_c, 0, 57, 54
1, 98854, Note_off_c, 0, 45, 38
1, 99008, Note_on_c, 0, 65, 66
1, 99064, Note_off_c, 0, 62, 57
1, 99340, Note_on_c, 0, 64, 57
1, 99348, Note_on_c, 0, 50, 29
1, 99353, Note_on_c, 0, 41, 21
1, 99362, Note_on_c, 0, 45, 13
1, 99435, Note_off_c, 0, 65, 53
1, 99586, Note_off_c, 0, 41, 42
1, 99625, Note_off_c, 0, 45, 42
1, 99658, Note_off_c, 0, 50, 41
1, 99670, Note_on_c, 0, 62, 59
1, 99772, Note_off_c, 0, 64, 36
1, 99843, Note_off_c, 0, 62, 61
1, 99988, Note_on_c, 0, 69, 62
1, 100326, Note_on_c, 0, 53, 35
1, 100332, Note_on_c, 0, 50, 26
1, 100352, Note_on_c, 0, 43, 20
1, 100669, Note_on_c, 0, 67, 46
1, 100732, Note_off_c, 0, 69, 36
1, 100812, Control_c, 0, 67, 19
1, 100856, Control_c, 0, 67, 22
1, 100886, Control_c, 0, 67, 24
1, 100930, Control_c, 0, 67, 29
1, 100945, Control_c, 0, 67, 31
1, 100960, Control_c, 0, 67, 35
1, 100975, Control_c, 0, 67, 39
1, 100989, Control_c, 0, 67, 45
1, 101002, Note_on_c, 0, 59, 42
1, 101004, Control_c, 0, 67, 51
1, 101019, Control_c, 0, 67, 60
1, 101034, Control_c, 0, 67, 68
1, 101039, Note_off_c, 0, 67, 40
1, 101049, Control_c, 0, 67, 76
1, 101050, Note_off_c, 0, 53, 42
1, 101063, Control_c, 0, 67, 82
1, 101078, Control_c, 0, 67, 87
1, 101093, Control_c, 0, 67, 89
1, 101196, Note_off_c, 0, 59, 54
1, 101219, Control_c, 0, 67, 88
1, 101241, Note_off_c, 0, 50, 43
1, 101247, Note_off_c, 0, 43, 38
1, 101249, Control_c, 0, 67, 88
1, 101278, Control_c, 0, 67, 87
1, 101302, Note_on_c, 0, 48, 33
1, 101302, Note_on_c, 0, 60, 59
1, 101319, Note_on_c, 0, 52, 25
1, 101323, Control_c, 0, 67, 87
1, 101337, Note_off_c, 0, 48, 59
1, 101352, Note_off_c, 0, 52, 50
1, 101396, Control_c, 0, 67, 86
1, 101420, Note_off_c, 0, 60, 37
1, 101590, Control_c, 0, 67, 86
1, 101619, Note_on_c, 0, 64, 44
1, 101635, Control_c, 0, 67, 85
1, 101662, Note_off_c, 0, 64, 55
1, 101762, Note_on_c, 0, 67, 49
1, 101783, Control_c, 0, 67, 85
1, 101793, Note_off_c, 0, 67, 60
1, 101864, Control_c, 0, 67, 84
1, 101894, Control_c, 0, 67, 84
1, 101921, Note_on_c, 0, 60, 47
1, 101960, Note_off_c, 0, 60, 63
1, 102057, Note_on_c, 0, 67, 57
1, 102086, Control_c, 0, 67, 83
1, 102088, Note_off_c, 0, 67, 66
1, 102101, Control_c, 0, 67, 83
1, 102145, Control_c, 0, 67, 82
1, 102196, Note_on_c, 0, 62, 61
1, 102196, Note_on_c, 0, 67, 60
1, 102207, Note_on_c, 0, 65, 56
1, 102219, Control_c, 0, 67, 82
1, 102226, Note_off_c, 0, 62, 65
1, 102228, Note_off_c, 0, 67, 65
1, 102240, Note_off_c, 0, 65, 66
1, 102295, Control_c, 0, 67, 81
1, 102324, Control_c, 0, 67, 81
1, 102327, Note_on_c, 0, 67, 62
1, 102330, Note_on_c, 0, 65, 59
1, 102357, Note_off_c, 0, 67, 66
1, 102363, Note_off_c, 0, 65, 65
1, 102487, Note_on_c, 0, 59, 54
1, 102520, Note_off_c, 0, 59, 64
1, 102631, Note_on_c, 0, 67, 54
1, 102641, Note_on_c, 0, 65, 49
1, 102664, Note_off_c, 0, 67, 65
1, 102666, Note_off_c, 0, 65, 62
1, 102761, Control_c, 0, 67, 81
1, 102776, Control_c, 0, 67, 82
1, 102778, Note_on_c, 0, 55, 57
1, 102791, Control_c, 0, 67, 82
1, 102809, Note_off_c, 0, 55, 65
1, 102821, Control_c, 0, 67, 83
1, 102880, Control_c, 0, 67, 83
1, 102895, Control_c, 0, 67, 84
1, 102909, Control_c, 0, 67, 84
1, 102917, Note_on_c, 0, 67, 55
1, 102924, Control_c, 0, 67, 85
1, 102939, Control_c, 0, 67, 85
1, 102946, Note_on_c, 0, 65, 24
1, 102946, Note_off_c, 0, 67, 64
1, 102954, Control_c, 0, 67, 86
1, 102968, Control_c, 0, 67, 86
1, 102983, Note_off_c, 0, 65, 43
1, 102983, Control_c, 0, 67, 87
1, 102998, Control_c, 0, 67, 87
1, 103028, Control_c, 0, 67, 88
1, 103056, Note_on_c, 0, 48, 53
1, 103063, Note_on_c, 0, 67, 48
1, 103079, Note_on_c, 0, 63, 42
1, 103095, Note_off_c, 0, 48, 65
1, 103101, Note_off_c, 0, 67, 64
1, 103106, Note_off_c, 0, 63, 59
1, 103118, Control_c, 0, 67, 87
1, 103196, Note_on_c, 0, 67, 61
1, 103200, Note_on_c, 0, 63, 49
1, 103221, Control_c, 0, 67, 87
1, 103236, Note_off_c, 0, 67, 62
1, 103238, Note_off_c, 0, 63, 65
1, 103280, Control_c, 0, 67, 86
1, 103325, Control_c, 0, 67, 86
1, 103346, Note_on_c, 0, 51, 58
1, 103394, Note_off_c, 0, 51, 64
1, 103499, Note_on_c, 0, 67, 57
1, 103510, Note_on_c, 0, 63, 44
1, 103537, Note_off_c, 0, 63, 60
1, 103539, Note_off_c, 0, 67, 59
1, 103540, Control_c, 0, 67, 85
1, 103645, Note_on_c, 0, 48, 56
1, 103658, Control_c, 0, 67, 85
1, 103680, Note_off_c, 0, 48, 65
1, 103797, Note_on_c, 0, 67, 46
1, 103799, Note_on_c, 0, 63, 44
1, 103830, Note_off_c, 0, 63, 60
1, 103832, Note_off_c, 0, 67, 64
1, 103896, Control_c, 0, 67, 85
1, 103911, Control_c, 0, 67, 86
1, 103927, Note_on_c, 0, 50, 59
1, 103933, Note_on_c, 0, 67, 50
1, 103945, Note_on_c, 0, 65, 43
1, 103960, Note_off_c, 0, 50, 63
1, 103965, Note_off_c, 0, 67, 66
1, 103970, Note_off_c, 0, 65, 60
1, 104014, Control_c, 0, 67, 85
1, 104044, Control_c, 0, 67, 85
1, 104061, Note_on_c, 0, 65, 57
1, 104065, Note_on_c, 0, 67, 53
1, 104108, Note_off_c, 0, 65, 65
1, 104111, Control_c, 0, 67, 84
1, 104112, Note_off_c, 0, 67, 63
1, 104141, Control_c, 0, 67, 84
1, 104185, Control_c, 0, 67, 83
1, 104200, Control_c, 0, 67, 82
1, 104214, Control_c, 0, 67, 81
1, 104219, Note_on_c, 0, 47, 57
1, 104229, Control_c, 0, 67, 80
1, 104244, Control_c, 0, 67, 80
1, 104253, Note_off_c, 0, 47, 64
1, 104274, Control_c, 0, 67, 79
1, 104318, Control_c, 0, 67, 78
1, 104332, Control_c, 0, 67, 77
1, 104347, Control_c, 0, 67, 77
1, 104362, Control_c, 0, 67, 76
1, 104364, Note_on_c, 0, 65, 42
1, 104364, Note_on_c, 0, 67, 44
1, 104377, Control_c, 0, 67, 76
1, 104392, Note_off_c, 0, 65, 62
1, 104392, Control_c, 0, 67, 75
1, 104396, Note_off_c, 0, 67, 64
1, 104422, Control_c, 0, 67, 74
1, 104437, Control_c, 0, 67, 72
1, 104452, Control_c, 0, 67, 66
1, 104467, Control_c, 0, 67, 59
1, 104481, Control_c, 0, 67, 51
1, 104493, Note_on_c, 0, 43, 56
1, 104496, Control_c, 0, 67, 41
1, 104511, Control_c, 0, 67, 29
1, 104525, Note_off_c, 0, 43, 64
1, 104525, Control_c, 0, 67, 0
1, 104637, Note_on_c, 0, 65, 50
1, 104645, Note_on_c, 0, 67, 46
1, 104664, Note_off_c, 0, 65, 61
1, 104672, Note_off_c, 0, 67, 62
1, 104769, Note_on_c, 0, 67, 66
1, 104774, Note_on_c, 0, 36, 74
1, 104777, Note_on_c, 0, 48, 71
1, 104777, Note_on_c, 0, 63, 68
1, 104792, Control_c, 0, 64, 33
1, 104806, Control_c, 0, 64, 56
1, 104812, Note_off_c, 0, 36, 65
1, 104813, Note_off_c, 0, 63, 64
1, 104819, Note_off_c, 0, 48, 62
1, 104821, Control_c, 0, 64, 67
1, 104825, Note_off_c, 0, 67, 62
1, 104836, Control_c, 0, 64, 74
1, 104858, Control_c, 0, 64, 78
1, 104888, Control_c, 0, 64, 73
1, 104903, Control_c, 0, 64, 63
1, 104917, Control_c, 0, 64, 44
1, 104924, Note_on_c, 0, 67, 65
1, 104932, Control_c, 0, 64, 0
1, 104941, Note_on_c, 0, 63, 44
1, 104950, Note_off_c, 0, 67, 65
1, 104975, Note_off_c, 0, 63, 47
1, 105079, Note_on_c, 0, 60, 56
1, 105122, Note_off_c, 0, 60, 55
1, 105222, Note_on_c, 0, 67, 48
1, 105229, Note_on_c, 0, 63, 45
1, 105257, Note_off_c, 0, 67, 65
1, 105258, Note_off_c, 0, 63, 59
1, 105367, Note_on_c, 0, 48, 33
1, 105406, Note_off_c, 0, 48, 42
1, 105506, Note_on_c, 0, 67, 47
1, 105525, Note_on_c, 0, 63, 25
1, 105534, Note_off_c, 0, 67, 61
1, 105563, Note_off_c, 0, 63, 43
1, 105638, Note_on_c, 0, 33, 76
1, 105644, Note_on_c, 0, 45, 75
1, 105645, Note_on_c, 0, 66, 67
1, 105647, Note_on_c, 0, 63, 71
1, 105651, Note_on_c, 0, 60, 65
1, 105667, Control_c, 0, 64, 46
1, 105672, Note_off_c, 0, 33, 65
1, 105678, Note_off_c, 0, 45, 66
1, 105682, Control_c, 0, 64, 63
1, 105690, Note_off_c, 0, 63, 60
1, 105691, Note_off_c, 0, 60, 61
1, 105695, Note_off_c, 0, 66, 58
1, 105697, Control_c, 0, 64, 74
1, 105712, Control_c, 0, 64, 87
1, 105727, Control_c, 0, 64, 92
1, 105741, Control_c, 0, 64, 91
1, 105756, Control_c, 0, 64, 80
1, 105771, Control_c, 0, 64, 67
1, 105785, Control_c, 0, 64, 54
1, 105795, Note_on_c, 0, 66, 54
1, 105800, Control_c, 0, 64, 32
1, 105807, Note_on_c, 0, 63, 48
1, 105811, Note_on_c, 0, 60, 39
1, 105815, Control_c, 0, 64, 0
1, 105823, Note_off_c, 0, 66, 65
1, 105836, Note_off_c, 0, 60, 60
1, 105837, Note_off_c, 0, 63, 60
1, 105948, Note_on_c, 0, 57, 64
1, 105980, Note_off_c, 0, 57, 65
1, 106076, Note_on_c, 0, 60, 50
1, 106077, Note_on_c, 0, 66, 51
1, 106090, Note_on_c, 0, 63, 37
1, 106107, Note_off_c, 0, 66, 62
1, 106117, Note_off_c, 0, 60, 64
1, 106118, Note_off_c, 0, 63, 55
1, 106213, Note_on_c, 0, 45, 55
1, 106244, Note_off_c, 0, 45, 64
1, 106356, Note_on_c, 0, 66, 58
1, 106362, Note_on_c, 0, 60, 47
1, 106370, Note_on_c, 0, 63, 44
1, 106391, Note_off_c, 0, 60, 60
1, 106392, Note_off_c, 0, 66, 63
1, 106398, Note_off_c, 0, 63, 55
1, 106495, Note_on_c, 0, 34, 72
1, 106499, Note_on_c, 0, 46, 76
1, 106499, Note_on_c, 0, 67, 79
1, 106507, Note_on_c, 0, 62, 67
1, 106529, Note_off_c, 0, 34, 65
1, 106530, Note_off_c, 0, 46, 68
1, 106534, Control_c, 0, 64, 46
1, 106541, Note_off_c, 0, 62, 63
1, 106544, Note_off_c, 0, 67, 62
1, 106549, Control_c, 0, 64, 66
1, 106564, Control_c, 0, 64, 86
1, 106579, Control_c, 0, 64, 127
1, 106638, Control_c, 0, 64, 81
1, 106646, Note_on_c, 0, 67, 68
1, 106646, Note_on_c, 0, 62, 61
1, 106653, Control_c, 0, 64, 57
1, 106668, Control_c, 0, 64, 0
1, 106669, Note_off_c, 0, 67, 66
1, 106671, Note_off_c, 0, 62, 61
1, 106791, Note_on_c, 0, 58, 65
1, 106836, Note_off_c, 0, 58, 56
1, 106926, Note_on_c, 0, 67, 58
1, 106926, Note_on_c, 0, 62, 53
1, 106956, Note_off_c, 0, 67, 67
1, 106964, Note_off_c, 0, 62, 64
1, 107066, Note_on_c, 0, 46, 63
1, 107113, Note_off_c, 0, 46, 66
1, 107206, Note_on_c, 0, 67, 61
1, 107220, Note_on_c, 0, 62, 43
1, 107247, Note_off_c, 0, 67, 63
1, 107254, Note_off_c, 0, 62, 62
1, 107350, Note_on_c, 0, 30, 76
1, 107350, Note_on_c, 0, 42, 75
1, 107361, Note_on_c, 0, 72, 79
1, 107364, Note_on_c, 0, 62, 61
1, 107366, Note_on_c, 0, 69, 69
1, 107372, Control_c, 0, 64, 36
1, 107387, Control_c, 0, 64, 57
1, 107394, Note_off_c, 0, 69, 64
1, 107401, Note_off_c, 0, 30, 61
1, 107402, Control_c, 0, 64, 71
1, 107403, Note_off_c, 0, 62, 65
1, 107404, Note_off_c, 0, 42, 62
1, 107413, Note_off_c, 0, 72, 63
1, 107417, Control_c, 0, 64, 102
1, 107431, Control_c, 0, 64, 127
1, 107476, Control_c, 0, 64, 94
1, 107491, Control_c, 0, 64, 65
1, 107495, Note_on_c, 0, 72, 66
1, 107495, Note_on_c, 0, 69, 66
1, 107505, Control_c, 0, 64, 0
1, 107510, Note_on_c, 0, 62, 54
1, 107522, Note_off_c, 0, 69, 64
1, 107523, Note_off_c, 0, 72, 65
1, 107537, Note_off_c, 0, 62, 58
1, 107658, Note_on_c, 0, 54, 67
1, 107712, Note_off_c, 0, 54, 58
1, 107796, Note_on_c, 0, 72, 58
1, 107799, Note_on_c, 0, 62, 48
1, 107808, Note_on_c, 0, 69, 27
1, 107829, Note_off_c, 0, 72, 64
1, 107835, Note_off_c, 0, 62, 64
1, 107853, Note_off_c, 0, 69, 43
1, 107930, Note_on_c, 0, 42, 62
1, 107965, Note_off_c, 0, 42, 64
1, 108086, Note_on_c, 0, 72, 64
1, 108087, Note_on_c, 0, 62, 56
1, 108095, Note_on_c, 0, 69, 44
1, 108121, Note_off_c, 0, 69, 52
1, 108123, Note_off_c, 0, 62, 63
1, 108123, Note_off_c, 0, 72, 57
1, 108209, Note_on_c, 0, 31, 80
1, 108216, Note_on_c, 0, 43, 76
1, 108222, Note_on_c, 0, 70, 81
1, 108229, Note_on_c, 0, 67, 75
1, 108229, Note_on_c, 0, 62, 64
1, 108240, Control_c, 0, 64, 48
1, 108253, Note_off_c, 0, 31, 61
1, 108255, Control_c, 0, 64, 67
1, 108261, Note_off_c, 0, 43, 62
1, 108270, Control_c, 0, 64, 94
1, 108271, Note_off_c, 0, 62, 61
1, 108276, Note_off_c, 0, 67, 60
1, 108279, Note_off_c, 0, 70, 64
1, 108285, Control_c, 0, 64, 127
1, 108352, Note_on_c, 0, 70, 78
1, 108359, Control_c, 0, 64, 82
1, 108361, Note_on_c, 0, 67, 67
1, 108366, Note_on_c, 0, 62, 63
1, 108373, Control_c, 0, 64, 59
1, 108384, Note_off_c, 0, 67, 69
1, 108387, Note_off_c, 0, 70, 59
1, 108388, Control_c, 0, 64, 0
1, 108395, Note_off_c, 0, 62, 66
1, 108509, Note_on_c, 0, 55, 61
1, 108544, Note_off_c, 0, 55, 64
1, 108655, Note_on_c, 0, 70, 58
1, 108657, Note_on_c, 0, 67, 53
1, 108666, Note_on_c, 0, 62, 42
1, 108688, Note_off_c, 0, 67, 65
1, 108688, Note_off_c, 0, 70, 66
1, 108697, Note_off_c, 0, 62, 58
1, 108798, Note_on_c, 0, 43, 50
1, 108827, Note_off_c, 0, 43, 60
1, 108929, Note_on_c, 0, 70, 62
1, 108936, Note_on_c, 0, 67, 52
1, 108946, Note_on_c, 0, 62, 28
1, 108959, Note_off_c, 0, 67, 61
1, 108960, Note_off_c, 0, 70, 66
1, 108982, Note_off_c, 0, 62, 43
1, 109072, Note_on_c, 0, 40, 78
1, 109073, Note_on_c, 0, 52, 81
1, 109076, Note_on_c, 0, 70, 78
1, 109077, Note_on_c, 0, 73, 79
1, 109081, Note_on_c, 0, 67, 64
1, 109105, Note_off_c, 0, 40, 66
1, 109107, Control_c, 0, 64, 31
1, 109113, Note_off_c, 0, 52, 63
1, 109121, Control_c, 0, 64, 58
1, 109128, Note_off_c, 0, 70, 64
1, 109130, Note_off_c, 0, 73, 62
1, 109134, Note_off_c, 0, 67, 63
1, 109136, Control_c, 0, 64, 80
1, 109151, Control_c, 0, 64, 127
1, 109210, Control_c, 0, 64, 106
1, 109215, Note_on_c, 0, 70, 77
1, 109218, Note_on_c, 0, 73, 74
1, 109221, Note_on_c, 0, 67, 63
1, 109225, Control_c, 0, 64, 72
1, 109239, Control_c, 0, 64, 43
1, 109245, Note_off_c, 0, 70, 66
1, 109247, Note_off_c, 0, 73, 62
1, 109249, Note_off_c, 0, 67, 60
1, 109254, Control_c, 0, 64, 0
1, 109380, Note_on_c, 0, 64, 62
1, 109415, Note_off_c, 0, 64, 62
1, 109515, Note_on_c, 0, 67, 60
1, 109517, Note_on_c, 0, 73, 60
1, 109527, Note_on_c, 0, 70, 50
1, 109549, Note_off_c, 0, 73, 64
1, 109552, Note_off_c, 0, 70, 61
1, 109554, Note_off_c, 0, 67, 62
1, 109641, Note_on_c, 0, 52, 65
1, 109671, Note_off_c, 0, 52, 65
1, 109782, Note_on_c, 0, 67, 57
1, 109782, Note_on_c, 0, 73, 62
1, 109787, Note_on_c, 0, 70, 61
1, 109817, Note_off_c, 0, 67, 63
1, 109817, Note_off_c, 0, 73, 62
1, 109818, Note_off_c, 0, 70, 67
1, 109908, Note_on_c, 0, 53, 83
1, 109912, Note_on_c, 0, 41, 76
1, 109914, Note_on_c, 0, 74, 89
1, 109919, Note_on_c, 0, 69, 77
1, 109944, Note_off_c, 0, 41, 66
1, 109944, Control_c, 0, 64, 45
1, 109957, Note_off_c, 0, 53, 63
1, 109959, Control_c, 0, 64, 65
1, 109962, Note_off_c, 0, 74, 66
1, 109969, Note_off_c, 0, 69, 59
1, 109974, Control_c, 0, 64, 83
1, 109989, Control_c, 0, 64, 127
1, 110062, Note_on_c, 0, 74, 84
1, 110062, Control_c, 0, 64, 87
1, 110065, Note_on_c, 0, 69, 70
1, 110077, Control_c, 0, 64, 68
1, 110098, Note_off_c, 0, 74, 61
1, 110100, Control_c, 0, 64, 54
1, 110105, Note_off_c, 0, 69, 61
1, 110115, Control_c, 0, 64, 34
1, 110130, Control_c, 0, 64, 0
1, 110208, Note_on_c, 0, 65, 77
1, 110240, Note_off_c, 0, 65, 65
1, 110353, Note_on_c, 0, 69, 64
1, 110353, Note_on_c, 0, 74, 67
1, 110390, Note_off_c, 0, 74, 62
1, 110400, Note_off_c, 0, 69, 54
1, 110482, Note_on_c, 0, 53, 71
1, 110510, Note_off_c, 0, 53, 67
1, 110617, Note_on_c, 0, 74, 76
1, 110622, Note_on_c, 0, 69, 64
1, 110661, Note_off_c, 0, 69, 63
1, 110667, Note_off_c, 0, 74, 63
1, 110747, Note_on_c, 0, 37, 86
1, 110747, Note_on_c, 0, 49, 86
1, 110757, Note_on_c, 0, 79, 87
1, 110759, Note_on_c, 0, 76, 82
1, 110762, Note_on_c, 0, 69, 78
1, 110783, Control_c, 0, 64, 31
1, 110795, Note_off_c, 0, 49, 62
1, 110798, Control_c, 0, 64, 57
1, 110798, Note_off_c, 0, 37, 59
1, 110802, Note_off_c, 0, 76, 57
1, 110809, Note_off_c, 0, 69, 59
1, 110813, Control_c, 0, 64, 71
1, 110813, Note_off_c, 0, 79, 65
1, 110828, Control_c, 0, 64, 100
1, 110849, Control_c, 0, 64, 127
1, 110904, Note_on_c, 0, 79, 84
1, 110906, Note_on_c, 0, 76, 77
1, 110908, Control_c, 0, 64, 110
1, 110917, Note_on_c, 0, 69, 61
1, 110923, Control_c, 0, 64, 82
1, 110935, Note_off_c, 0, 76, 65
1, 110938, Control_c, 0, 64, 64
1, 110943, Note_off_c, 0, 69, 65
1, 110948, Note_off_c, 0, 79, 62
1, 110953, Control_c, 0, 64, 50
1, 110968, Control_c, 0, 64, 0
1, 111053, Note_on_c, 0, 61, 72
1, 111109, Note_off_c, 0, 61, 55
1, 111189, Note_on_c, 0, 79, 71
1, 111192, Note_on_c, 0, 76, 57
1, 111197, Note_on_c, 0, 69, 50
1, 111213, Note_off_c, 0, 76, 62
1, 111215, Note_off_c, 0, 79, 66
1, 111224, Note_off_c, 0, 69, 62
1, 111315, Note_on_c, 0, 49, 68
1, 111342, Note_off_c, 0, 49, 66
1, 111451, Note_on_c, 0, 79, 78
1, 111457, Note_on_c, 0, 76, 65
1, 111467, Note_on_c, 0, 69, 58
1, 111491, Note_off_c, 0, 76, 63
1, 111499, Note_off_c, 0, 69, 65
1, 111511, Note_off_c, 0, 79, 63
1, 111594, Note_on_c, 0, 38, 86
1, 111594, Note_on_c, 0, 50, 89
1, 111603, Note_on_c, 0, 77, 82
1, 111606, Note_on_c, 0, 74, 83
1, 111610, Note_on_c, 0, 69, 73
1, 111628, Control_c, 0, 64, 45
1, 111636, Note_off_c, 0, 38, 63
1, 111642, Note_off_c, 0, 50, 64
1, 111642, Control_c, 0, 64, 64
1, 111651, Note_off_c, 0, 74, 63
1, 111657, Note_off_c, 0, 69, 60
1, 111657, Note_off_c, 0, 77, 64
1, 111657, Control_c, 0, 64, 97
1, 111672, Control_c, 0, 64, 127
1, 111734, Note_on_c, 0, 77, 81
1, 111744, Note_on_c, 0, 69, 69
1, 111746, Control_c, 0, 64, 78
1, 111747, Note_on_c, 0, 74, 75
1, 111761, Control_c, 0, 64, 55
1, 111774, Note_off_c, 0, 74, 67
1, 111776, Control_c, 0, 64, 0
1, 111779, Note_off_c, 0, 69, 63
1, 111780, Note_off_c, 0, 77, 65
1, 111887, Note_on_c, 0, 62, 68
1, 111928, Note_off_c, 0, 62, 60
1, 112012, Note_on_c, 0, 77, 70
1, 112014, Note_on_c, 0, 74, 72
1, 112020, Note_on_c, 0, 69, 58
1, 112051, Note_off_c, 0, 74, 62
1, 112054, Note_off_c, 0, 69, 62
1, 112066, Note_off_c, 0, 77, 62
1, 112150, Note_on_c, 0, 50, 72
1, 112184, Note_off_c, 0, 50, 65
1, 112285, Note_on_c, 0, 77, 76
1, 112293, Note_on_c, 0, 74, 71
1, 112301, Note_on_c, 0, 69, 45
1, 112331, Note_off_c, 0, 69, 61
1, 112342, Note_off_c, 0, 77, 63
1, 112350, Note_off_c, 0, 74, 61
1, 112434, Note_on_c, 0, 34, 84
1, 112435, Note_on_c, 0, 46, 94
1, 112441, Note_on_c, 0, 80, 92
1, 112445, Note_on_c, 0, 74, 86
1, 112466, Control_c, 0, 64, 49
1, 112480, Note_off_c, 0, 46, 66
1, 112480, Control_c, 0, 64, 65
1, 112482, Note_off_c, 0, 34, 63
1, 112488, Note_off_c, 0, 74, 63
1, 112495, Control_c, 0, 64, 76
1, 112503, Note_off_c, 0, 80, 63
1, 112510, Control_c, 0, 64, 92
1, 112525, Control_c, 0, 64, 102
1, 112554, Control_c, 0, 64, 94
1, 112565, Note_on_c, 0, 80, 86
1, 112569, Control_c, 0, 64, 80
1, 112575, Note_on_c, 0, 74, 81
1, 112584, Control_c, 0, 64, 66
1, 112599, Control_c, 0, 64, 54
1, 112615, Control_c, 0, 64, 39
1, 112619, Note_off_c, 0, 74, 60
1, 112622, Note_off_c, 0, 80, 64
1, 112630, Control_c, 0, 64, 0
1, 112722, Note_on_c, 0, 58, 79
1, 112792, Note_off_c, 0, 58, 60
1, 112852, Note_on_c, 0, 74, 84
1, 112854, Note_on_c, 0, 80, 81
1, 112902, Note_off_c, 0, 74, 63
1, 112926, Note_off_c, 0, 80, 61
1, 113001, Note_on_c, 0, 46, 78
1, 113126, Note_off_c, 0, 46, 56
1, 113150, Note_on_c, 0, 80, 82
1, 113154, Note_on_c, 0, 74, 78
1, 113204, Note_off_c, 0, 74, 62
1, 113224, Note_off_c, 0, 80, 61
1, 113320, Note_on_c, 0, 45, 84
1, 113327, Note_on_c, 0, 73, 72
1, 113330, Note_on_c, 0, 81, 74
1, 113374, Note_off_c, 0, 73, 58
1, 113380, Note_off_c, 0, 81, 59
1, 113522, Note_on_c, 0, 81, 83
1, 113526, Note_on_c, 0, 77, 69
1, 113679, Note_on_c, 0, 79, 83
1, 113680, Note_on_c, 0, 76, 82
1, 113693, Note_off_c, 0, 77, 64
1, 113721, Note_off_c, 0, 81, 61
1, 113749, Control_c, 0, 64, 43
1, 113764, Control_c, 0, 64, 55
1, 113779, Control_c, 0, 64, 60
1, 113793, Control_c, 0, 64, 62
1, 113804, Note_off_c, 0, 45, 63
1, 113808, Control_c, 0, 64, 63
1, 113810, Note_on_c, 0, 77, 82
1, 113815, Note_on_c, 0, 74, 82
1, 113823, Control_c, 0, 64, 64
1, 113839, Note_off_c, 0, 76, 58
1, 113843, Note_off_c, 0, 79, 64
1, 113845, Control_c, 0, 64, 65
1, 113859, Control_c, 0, 64, 66
1, 113888, Note_off_c, 0, 77, 63
1, 113964, Note_on_c, 0, 76, 81
1, 113971, Note_on_c, 0, 73, 78
1, 113973, Note_off_c, 0, 74, 53
1, 113979, Control_c, 0, 64, 65
1, 113993, Control_c, 0, 64, 64
1, 114008, Control_c, 0, 64, 63
1, 114023, Control_c, 0, 64, 62
1, 114037, Control_c, 0, 64, 61
1, 114052, Control_c, 0, 64, 59
1, 114067, Control_c, 0, 64, 57
1, 114082, Control_c, 0, 64, 52
1, 114092, Note_on_c, 0, 74, 72
1, 114095, Note_on_c, 0, 68, 80
1, 114096, Note_on_c, 0, 77, 75
1, 114097, Control_c, 0, 64, 45
1, 114107, Note_off_c, 0, 76, 57
1, 114112, Control_c, 0, 64, 32
1, 114113, Note_off_c, 0, 73, 60
1, 114126, Control_c, 0, 64, 0
1, 114228, Note_off_c, 0, 68, 63
1, 114241, Note_on_c, 0, 69, 81
1, 114246, Note_on_c, 0, 76, 74
1, 114246, Control_c, 0, 64, 30
1, 114247, Note_off_c, 0, 74, 59
1, 114250, Note_on_c, 0, 73, 72
1, 114250, Note_off_c, 0, 77, 62
1, 114260, Control_c, 0, 64, 49
1, 114275, Control_c, 0, 64, 59
1, 114280, Note_off_c, 0, 76, 65
1, 114281, Note_off_c, 0, 73, 63
1, 114285, Note_off_c, 0, 69, 63
1, 114290, Control_c, 0, 64, 63
1, 114305, Control_c, 0, 64, 64
1, 114394, Control_c, 0, 64, 63
1, 114399, Note_on_c, 0, 69, 68
1, 114403, Note_on_c, 0, 65, 58
1, 114408, Control_c, 0, 64, 62
1, 114423, Control_c, 0, 64, 60
1, 114438, Note_on_c, 0, 64, 33
1, 114438, Control_c, 0, 64, 58
1, 114444, Note_off_c, 0, 65, 0
1, 114444, Note_on_c, 0, 65, 23
1, 114453, Control_c, 0, 64, 56
1, 114468, Control_c, 0, 64, 54
1, 114471, Note_off_c, 0, 64, 56
1, 114482, Control_c, 0, 64, 52
1, 114497, Control_c, 0, 64, 51
1, 114512, Control_c, 0, 64, 48
1, 114527, Control_c, 0, 64, 45
1, 114534, Note_off_c, 0, 65, 61
1, 114542, Note_on_c, 0, 67, 68
1, 114542, Control_c, 0, 64, 42
1, 114548, Note_on_c, 0, 64, 67
1, 114557, Control_c, 0, 64, 38
1, 114570, Note_off_c, 0, 69, 50
1, 114572, Control_c, 0, 64, 33
1, 114593, Control_c, 0, 64, 0
1, 114685, Note_on_c, 0, 65, 74
1, 114688, Note_on_c, 0, 62, 68
1, 114694, Note_off_c, 0, 64, 57
1, 114710, Note_off_c, 0, 67, 61
1, 114748, Note_off_c, 0, 65, 64
1, 114837, Note_on_c, 0, 64, 66
1, 114845, Note_on_c, 0, 61, 61
1, 114855, Note_off_c, 0, 62, 61
1, 114981, Note_on_c, 0, 65, 63
1, 114986, Note_on_c, 0, 62, 59
1, 114991, Note_off_c, 0, 64, 56
1, 114993, Note_on_c, 0, 56, 47
1, 115004, Note_off_c, 0, 61, 54
1, 115135, Note_on_c, 0, 57, 55
1, 115135, Note_on_c, 0, 61, 64
1, 115135, Note_on_c, 0, 64, 63
1, 115140, Note_off_c, 0, 56, 60
1, 115141, Note_off_c, 0, 65, 57
1, 115144, Note_off_c, 0, 62, 60
1, 115257, Note_off_c, 0, 57, 56
1, 115276, Note_on_c, 0, 65, 65
1, 115281, Note_on_c, 0, 62, 65
1, 115285, Note_on_c, 0, 56, 53
1, 115299, Note_off_c, 0, 64, 58
1, 115311, Note_off_c, 0, 61, 55
1, 115433, Note_off_c, 0, 56, 60
1, 115440, Note_on_c, 0, 64, 62
1, 115442, Note_on_c, 0, 61, 63
1, 115444, Note_on_c, 0, 57, 48
1, 115447, Note_off_c, 0, 65, 59
1, 115451, Note_off_c, 0, 62, 60
1, 115562, Note_off_c, 0, 57, 58
1, 115587, Note_on_c, 0, 62, 56
1, 115590, Note_on_c, 0, 65, 60
1, 115591, Note_on_c, 0, 56, 49
1, 115595, Note_off_c, 0, 64, 59
1, 115605, Note_off_c, 0, 61, 48
1, 115732, Note_off_c, 0, 56, 56
1, 115747, Note_on_c, 0, 57, 41
1, 115758, Note_off_c, 0, 65, 58
1, 115761, Note_on_c, 0, 64, 46
1, 115764, Note_off_c, 0, 62, 60
1, 115771, Note_on_c, 0, 61, 46
1, 115866, Note_off_c, 0, 57, 51
1, 115887, Note_off_c, 0, 61, 32
1, 115889, Note_off_c, 0, 64, 61
1, 115891, Note_on_c, 0, 65, 58
1, 115897, Note_on_c, 0, 56, 43
1, 115905, Note_on_c, 0, 62, 47
1, 116054, Note_off_c, 0, 65, 55
1, 116059, Note_off_c, 0, 56, 55
1, 116089, Note_on_c, 0, 57, 40
1, 116089, Note_off_c, 0, 62, 56
1, 116091, Note_on_c, 0, 64, 39
1, 116104, Note_on_c, 0, 61, 41
1, 116427, Note_off_c, 0, 57, 44
1, 116441, Note_off_c, 0, 64, 38
1, 116450, Note_off_c, 0, 61, 41
1, 116477, Control_c, 0, 67, 20
1, 116492, Control_c, 0, 67, 24
1, 116506, Control_c, 0, 67, 26
1, 116536, Control_c, 0, 67, 29
1, 116551, Control_c, 0, 67, 33
1, 116566, Control_c, 0, 67, 50
1, 116581, Control_c, 0, 67, 77
1, 116596, Control_c, 0, 67, 111
1, 116611, Control_c, 0, 67, 127
1, 117186, Note_on_c, 0, 60, 32
1, 117191, Note_on_c, 0, 57, 29
1, 117200, Note_on_c, 0, 64, 25
1, 117389, Note_on_c, 0, 65, 49
1, 117390, Note_on_c, 0, 56, 42
1, 117392, Note_off_c, 0, 57, 44
1, 117395, Note_on_c, 0, 62, 39
1, 117398, Note_off_c, 0, 60, 43
1, 117399, Note_off_c, 0, 64, 53
1, 117529, Note_off_c, 0, 56, 56
1, 117540, Note_on_c, 0, 64, 49
1, 117544, Note_off_c, 0, 65, 56
1, 117547, Note_on_c, 0, 57, 37
1, 117554, Note_on_c, 0, 60, 39
1, 117562, Note_off_c, 0, 62, 46
1, 117681, Note_off_c, 0, 57, 52
1, 117707, Note_on_c, 0, 62, 49
1, 117708, Note_on_c, 0, 65, 56
1, 117711, Note_on_c, 0, 56, 43
1, 117714, Note_off_c, 0, 60, 57
1, 117717, Note_off_c, 0, 64, 60
1, 117848, Note_off_c, 0, 56, 56
1, 117860, Note_off_c, 0, 65, 58
1, 117863, Note_on_c, 0, 64, 49
1, 117863, Note_off_c, 0, 62, 43
1, 117866, Note_on_c, 0, 57, 35
1, 117866, Note_on_c, 0, 60, 43
1, 118012, Note_off_c, 0, 64, 59
1, 118012, Note_on_c, 0, 65, 50
1, 118014, Note_on_c, 0, 56, 41
1, 118014, Note_off_c, 0, 57, 42
1, 118019, Note_on_c, 0, 62, 38
1, 118030, Note_off_c, 0, 60, 44
1, 118182, Control_c, 0, 67, 121
1, 118183, Note_off_c, 0, 56, 36
1, 118191, Note_off_c, 0, 62, 29
1, 118197, Control_c, 0, 67, 115
1, 118212, Control_c, 0, 67, 109
1, 118226, Note_on_c, 0, 57, 29
1, 118226, Control_c, 0, 67, 103
1, 118234, Note_on_c, 0, 64, 38
1, 118235, Note_on_c, 0, 60, 31
1, 118241, Control_c, 0, 67, 97
1, 118257, Control_c, 0, 67, 90
1, 118272, Control_c, 0, 67, 83
1, 118273, Note_off_c, 0, 65, 36
1, 118287, Control_c, 0, 67, 76
1, 118301, Control_c, 0, 67, 70
1, 118316, Control_c, 0, 67, 66
1, 118339, Control_c, 0, 67, 63
1, 118354, Control_c, 0, 67, 59
1, 118369, Control_c, 0, 67, 55
1, 118383, Control_c, 0, 67, 50
1, 118398, Control_c, 0, 67, 42
1, 118413, Control_c, 0, 67, 34
1, 118428, Control_c, 0, 67, 25
1, 118442, Control_c, 0, 67, 0
1, 118554, Note_off_c, 0, 57, 44
1, 118616, Note_off_c, 0, 60, 43
1, 118648, Note_off_c, 0, 64, 37
1, 119374, Note_on_c, 0, 64, 71
1, 119383, Note_on_c, 0, 60, 56
1, 119386, Note_on_c, 0, 55, 55
1, 119389, Note_on_c, 0, 58, 57
1, 119585, Note_on_c, 0, 65, 71
1, 119589, Note_on_c, 0, 57, 55
1, 119601, Note_off_c, 0, 55, 58
1, 119612, Note_off_c, 0, 64, 56
1, 119753, Note_on_c, 0, 64, 73
1, 119762, Note_on_c, 0, 55, 46
1, 119768, Note_off_c, 0, 57, 38
1, 119788, Note_off_c, 0, 65, 62
1, 119908, Note_off_c, 0, 55, 58
1, 119914, Note_on_c, 0, 65, 77
1, 119920, Note_on_c, 0, 57, 42
1, 119935, Note_off_c, 0, 64, 53
1, 120042, Note_off_c, 0, 57, 54
1, 120063, Note_on_c, 0, 64, 67
1, 120067, Note_on_c, 0, 55, 43
1, 120092, Note_off_c, 0, 65, 61
1, 120197, Note_off_c, 0, 55, 57
1, 120215, Note_on_c, 0, 65, 70
1, 120225, Note_on_c, 0, 57, 49
1, 120233, Note_off_c, 0, 64, 56
1, 120403, Note_off_c, 0, 65, 55
1, 120411, Note_off_c, 0, 57, 36
1, 120417, Note_on_c, 0, 64, 61
1, 120432, Note_on_c, 0, 55, 42
1, 120748, Note_off_c, 0, 58, 38
1, 120818, Note_off_c, 0, 55, 58
1, 120837, Note_off_c, 0, 60, 43
1, 120881, Note_off_c, 0, 64, 56
1, 120896, Control_c, 0, 67, 19
1, 120925, Control_c, 0, 67, 24
1, 120940, Control_c, 0, 67, 29
1, 120954, Control_c, 0, 67, 35
1, 120969, Control_c, 0, 67, 44
1, 120984, Control_c, 0, 67, 54
1, 120999, Control_c, 0, 67, 65
1, 121014, Control_c, 0, 67, 72
1, 121029, Control_c, 0, 67, 77
1, 121043, Control_c, 0, 67, 83
1, 121058, Control_c, 0, 67, 88
1, 121073, Control_c, 0, 67, 94
1, 121088, Control_c, 0, 67, 99
1, 121103, Control_c, 0, 67, 105
1, 121118, Control_c, 0, 67, 110
1, 121133, Control_c, 0, 67, 116
1, 121147, Control_c, 0, 67, 119
1, 121612, Note_on_c, 0, 82, 58
1, 121631, Note_on_c, 0, 67, 16
1, 121631, Note_on_c, 0, 76, 28
1, 121634, Note_on_c, 0, 60, 22
1, 121829, Note_on_c, 0, 66, 39
1, 121836, Note_on_c, 0, 81, 61
1, 121837, Note_off_c, 0, 67, 43
1, 121893, Note_off_c, 0, 82, 61
1, 121994, Note_off_c, 0, 66, 53
1, 122004, Note_on_c, 0, 82, 71
1, 122009, Note_on_c, 0, 67, 32
1, 122039, Note_off_c, 0, 81, 62
1, 122156, Note_on_c, 0, 66, 40
1, 122161, Note_off_c, 0, 67, 40
1, 122164, Note_on_c, 0, 81, 71
1, 122208, Note_off_c, 0, 82, 60
1, 122316, Note_off_c, 0, 66, 55
1, 122328, Note_on_c, 0, 82, 71
1, 122333, Note_on_c, 0, 67, 38
1, 122334, Control_c, 0, 67, 117
1, 122367, Note_off_c, 0, 81, 61
1, 122379, Control_c, 0, 67, 115
1, 122423, Control_c, 0, 67, 113
1, 122482, Control_c, 0, 67, 111
1, 122493, Note_off_c, 0, 67, 35
1, 122494, Note_on_c, 0, 81, 63
1, 122509, Note_on_c, 0, 66, 30
1, 122531, Note_off_c, 0, 82, 58
1, 122541, Control_c, 0, 67, 108
1, 122600, Control_c, 0, 67, 106
1, 122660, Control_c, 0, 67, 104
1, 122674, Control_c, 0, 67, 98
1, 122689, Control_c, 0, 67, 91
1, 122704, Control_c, 0, 67, 84
1, 122719, Control_c, 0, 67, 79
1, 122734, Control_c, 0, 67, 75
1, 122748, Control_c, 0, 67, 72
1, 122763, Control_c, 0, 67, 70
1, 122764, Note_on_c, 0, 82, 52
1, 122774, Note_off_c, 0, 66, 29
1, 122778, Control_c, 0, 67, 66
1, 122782, Note_on_c, 0, 67, 24
1, 122793, Control_c, 0, 67, 63
1, 122808, Control_c, 0, 67, 59
1, 122830, Control_c, 0, 67, 54
1, 122845, Control_c, 0, 67, 48
1, 122851, Note_off_c, 0, 81, 38
1, 122860, Control_c, 0, 67, 43
1, 122874, Control_c, 0, 67, 35
1, 122889, Control_c, 0, 67, 29
1, 122904, Control_c, 0, 67, 23
1, 122919, Control_c, 0, 67, 0
1, 123157, Control_c, 0, 64, 36
1, 123172, Control_c, 0, 64, 46
1, 123187, Control_c, 0, 64, 54
1, 123202, Control_c, 0, 64, 57
1, 123216, Control_c, 0, 64, 58
1, 123231, Control_c, 0, 64, 60
1, 123246, Control_c, 0, 64, 61
1, 123261, Control_c, 0, 64, 63
1, 123274, Note_off_c, 0, 67, 41
1, 123276, Control_c, 0, 64, 64
1, 123277, Note_off_c, 0, 76, 37
1, 123291, Control_c, 0, 64, 66
1, 123305, Control_c, 0, 64, 67
1, 123320, Control_c, 0, 64, 68
1, 123321, Note_off_c, 0, 82, 51
1, 123335, Control_c, 0, 64, 69
1, 123349, Control_c, 0, 64, 69
1, 123357, Note_off_c, 0, 60, 52
1, 123468, Control_c, 0, 64, 69
1, 123497, Control_c, 0, 64, 68
1, 123527, Control_c, 0, 64, 68
1, 123542, Control_c, 0, 64, 67
1, 123556, Control_c, 0, 64, 66
1, 123579, Control_c, 0, 64, 65
1, 123594, Control_c, 0, 64, 64
1, 123609, Control_c, 0, 64, 62
1, 123624, Control_c, 0, 64, 60
1, 123638, Control_c, 0, 64, 57
1, 123653, Control_c, 0, 64, 54
1, 123668, Control_c, 0, 64, 50
1, 123682, Control_c, 0, 64, 47
1, 123697, Control_c, 0, 64, 44
1, 123712, Control_c, 0, 64, 40
1, 123712, Control_c, 0, 67, 19
1, 123727, Control_c, 0, 64, 36
1, 123742, Control_c, 0, 64, 32
1, 123756, Control_c, 0, 64, 0
1, 123817, Control_c, 0, 67, 0
1, 124130, Note_on_c, 0, 65, 58
1, 124141, Note_on_c, 0, 53, 21
1, 124343, Control_c, 0, 64, 41
1, 124352, Note_on_c, 0, 57, 34
1, 124358, Control_c, 0, 64, 51
1, 124372, Control_c, 0, 64, 57
1, 124387, Control_c, 0, 64, 59
1, 124402, Control_c, 0, 64, 61
1, 124417, Control_c, 0, 64, 63
1, 124432, Control_c, 0, 64, 64
1, 124447, Control_c, 0, 64, 66
1, 124461, Control_c, 0, 64, 69
1, 124476, Control_c, 0, 64, 71
1, 124491, Control_c, 0, 64, 74
1, 124504, Note_on_c, 0, 60, 39
1, 124504, Note_off_c, 0, 57, 47
1, 124505, Control_c, 0, 64, 76
1, 124520, Control_c, 0, 64, 79
1, 124535, Control_c, 0, 64, 81
1, 124550, Control_c, 0, 64, 82
1, 124565, Control_c, 0, 64, 82
1, 124614, Note_off_c, 0, 60, 37
1, 124635, Note_on_c, 0, 57, 41
1, 124728, Control_c, 0, 64, 81
1, 124729, Note_off_c, 0, 53, 34
1, 124743, Control_c, 0, 64, 78
1, 124758, Control_c, 0, 64, 74
1, 124767, Note_on_c, 0, 69, 67
1, 124773, Control_c, 0, 64, 69
1, 124788, Note_on_c, 0, 60, 33
1, 124788, Control_c, 0, 64, 65
1, 124796, Note_off_c, 0, 57, 43
1, 124802, Control_c, 0, 64, 64
1, 124832, Control_c, 0, 64, 65
1, 124847, Control_c, 0, 64, 66
1, 124861, Note_off_c, 0, 65, 32
1, 124862, Control_c, 0, 64, 69
1, 124877, Control_c, 0, 64, 72
1, 124892, Control_c, 0, 64, 76
1, 124895, Note_off_c, 0, 60, 38
1, 124907, Control_c, 0, 64, 80
1, 124908, Note_on_c, 0, 57, 48
1, 124921, Control_c, 0, 64, 84
1, 124936, Control_c, 0, 64, 86
1, 124951, Control_c, 0, 64, 87
1, 124960, Note_off_c, 0, 69, 53
1, 124964, Note_off_c, 0, 57, 59
1, 125039, Control_c, 0, 64, 86
1, 125054, Control_c, 0, 64, 83
1, 125077, Control_c, 0, 64, 80
1, 125091, Control_c, 0, 64, 77
1, 125101, Note_on_c, 0, 72, 70
1, 125106, Control_c, 0, 64, 74
1, 125112, Note_on_c, 0, 53, 41
1, 125121, Control_c, 0, 64, 72
1, 125136, Control_c, 0, 64, 69
1, 125151, Control_c, 0, 64, 66
1, 125166, Control_c, 0, 64, 63
1, 125181, Control_c, 0, 64, 58
1, 125195, Control_c, 0, 64, 51
1, 125210, Control_c, 0, 64, 43
1, 125225, Control_c, 0, 64, 0
1, 125294, Note_on_c, 0, 60, 31
1, 125343, Control_c, 0, 64, 29
1, 125358, Control_c, 0, 64, 42
1, 125373, Control_c, 0, 64, 51
1, 125388, Control_c, 0, 64, 57
1, 125404, Control_c, 0, 64, 60
1, 125410, Note_on_c, 0, 63, 47
1, 125419, Control_c, 0, 64, 62
1, 125426, Note_off_c, 0, 60, 53
1, 125433, Control_c, 0, 64, 64
1, 125448, Control_c, 0, 64, 67
1, 125463, Control_c, 0, 64, 69
1, 125478, Control_c, 0, 64, 72
1, 125492, Control_c, 0, 64, 75
1, 125507, Control_c, 0, 64, 77
1, 125522, Control_c, 0, 64, 78
1, 125537, Control_c, 0, 64, 79
1, 125542, Note_off_c, 0, 63, 38
1, 125547, Note_on_c, 0, 60, 62
1, 125551, Control_c, 0, 64, 79
1, 125604, Note_off_c, 0, 72, 34
1, 125611, Control_c, 0, 64, 77
1, 125625, Control_c, 0, 64, 73
1, 125640, Control_c, 0, 64, 67
1, 125641, Note_off_c, 0, 53, 23
1, 125652, Note_off_c, 0, 60, 57
1, 125655, Control_c, 0, 64, 63
1, 125670, Control_c, 0, 64, 60
1, 125673, Note_on_c, 0, 63, 46
1, 125678, Note_on_c, 0, 69, 71
1, 125685, Control_c, 0, 64, 59
1, 125700, Control_c, 0, 64, 60
1, 125714, Control_c, 0, 64, 60
1, 125729, Control_c, 0, 64, 61
1, 125744, Control_c, 0, 64, 63
1, 125759, Control_c, 0, 64, 64
1, 125774, Control_c, 0, 64, 67
1, 125789, Control_c, 0, 64, 70
1, 125804, Note_off_c, 0, 63, 37
1, 125804, Note_on_c, 0, 60, 54
1, 125804, Control_c, 0, 64, 72
1, 125826, Control_c, 0, 64, 74
1, 125841, Control_c, 0, 64, 75
1, 125849, Note_off_c, 0, 69, 55
1, 125856, Control_c, 0, 64, 76
1, 125878, Note_off_c, 0, 60, 56
1, 125915, Control_c, 0, 64, 75
1, 125930, Control_c, 0, 64, 74
1, 125944, Control_c, 0, 64, 73
1, 125959, Control_c, 0, 64, 70
1, 125974, Control_c, 0, 64, 67
1, 125979, Note_on_c, 0, 70, 77
1, 125983, Note_on_c, 0, 53, 37
1, 125989, Control_c, 0, 64, 63
1, 126004, Control_c, 0, 64, 57
1, 126019, Control_c, 0, 64, 46
1, 126033, Control_c, 0, 64, 0
1, 126117, Note_on_c, 0, 58, 48
1, 126197, Control_c, 0, 64, 36
1, 126212, Control_c, 0, 64, 48
1, 126227, Control_c, 0, 64, 56
1, 126242, Control_c, 0, 64, 60
1, 126256, Note_off_c, 0, 58, 59
1, 126257, Control_c, 0, 64, 62
1, 126263, Note_on_c, 0, 62, 54
1, 126272, Control_c, 0, 64, 64
1, 126287, Control_c, 0, 64, 67
1, 126301, Control_c, 0, 64, 69
1, 126316, Control_c, 0, 64, 72
1, 126331, Control_c, 0, 64, 74
1, 126346, Control_c, 0, 64, 75
1, 126375, Control_c, 0, 64, 75
1, 126388, Note_on_c, 0, 58, 54
1, 126390, Control_c, 0, 64, 76
1, 126403, Note_off_c, 0, 62, 35
1, 126405, Control_c, 0, 64, 76
1, 126449, Note_off_c, 0, 70, 60
1, 126464, Control_c, 0, 64, 76
1, 126469, Note_off_c, 0, 53, 37
1, 126479, Control_c, 0, 64, 74
1, 126493, Control_c, 0, 64, 70
1, 126508, Control_c, 0, 64, 65
1, 126523, Control_c, 0, 64, 60
1, 126538, Control_c, 0, 64, 55
1, 126539, Note_off_c, 0, 58, 54
1, 126543, Note_on_c, 0, 79, 80
1, 126553, Control_c, 0, 64, 54
1, 126558, Note_on_c, 0, 62, 43
1, 126575, Control_c, 0, 64, 54
1, 126590, Control_c, 0, 64, 55
1, 126605, Control_c, 0, 64, 57
1, 126620, Control_c, 0, 64, 60
1, 126635, Control_c, 0, 64, 63
1, 126649, Control_c, 0, 64, 66
1, 126664, Control_c, 0, 64, 70
1, 126679, Control_c, 0, 64, 74
1, 126689, Note_on_c, 0, 58, 52
1, 126693, Control_c, 0, 64, 77
1, 126705, Note_off_c, 0, 79, 64
1, 126708, Control_c, 0, 64, 79
1, 126723, Control_c, 0, 64, 80
1, 126731, Note_off_c, 0, 62, 32
1, 126782, Control_c, 0, 64, 79
1, 126797, Control_c, 0, 64, 78
1, 126812, Control_c, 0, 64, 75
1, 126826, Control_c, 0, 64, 72
1, 126841, Control_c, 0, 64, 68
1, 126856, Control_c, 0, 64, 64
1, 126865, Note_on_c, 0, 53, 46
1, 126869, Note_on_c, 0, 77, 59
1, 126871, Control_c, 0, 64, 61
1, 126873, Note_off_c, 0, 58, 25
1, 126886, Control_c, 0, 64, 57
1, 126901, Control_c, 0, 64, 51
1, 126916, Control_c, 0, 64, 43
1, 126931, Control_c, 0, 64, 0
1, 127012, Note_on_c, 0, 76, 61
1, 127012, Note_off_c, 0, 77, 59
1, 127018, Note_on_c, 0, 55, 40
1, 127065, Note_off_c, 0, 76, 63
1, 127115, Note_off_c, 0, 53, 30
1, 127157, Note_on_c, 0, 76, 53
1, 127169, Note_on_c, 0, 58, 45
1, 127170, Note_off_c, 0, 55, 47
1, 127297, Note_on_c, 0, 55, 47
1, 127298, Note_off_c, 0, 58, 48
1, 127396, Note_off_c, 0, 76, 58
1, 127429, Note_off_c, 0, 55, 54
1, 127437, Note_on_c, 0, 58, 48
1, 127561, Note_off_c, 0, 58, 48
1, 127572, Note_on_c, 0, 55, 48
1, 127762, Note_off_c, 0, 55, 34
1, 127765, Note_on_c, 0, 77, 57
1, 127783, Note_on_c, 0, 57, 30
1, 127786, Note_on_c, 0, 53, 27
1, 128123, Note_on_c, 0, 69, 55
1, 128192, Note_off_c, 0, 57, 50
1, 128239, Note_off_c, 0, 53, 42
1, 128258, Note_off_c, 0, 77, 31
1, 128414, Note_on_c, 0, 74, 64
1, 128545, Note_off_c, 0, 69, 36
1, 128715, Note_on_c, 0, 67, 60
1, 128770, Note_off_c, 0, 74, 59
1, 129044, Note_on_c, 0, 72, 54
1, 129086, Note_off_c, 0, 67, 36
1, 129462, Note_on_c, 0, 69, 44
1, 129643, Note_on_c, 0, 65, 51
1, 129643, Note_on_c, 0, 53, 40
1, 129714, Note_off_c, 0, 69, 36
1, 129737, Note_off_c, 0, 72, 14
1, 129950, Note_on_c, 0, 45, 51
1, 129989, Note_off_c, 0, 53, 31
1, 130254, Note_on_c, 0, 50, 59
1, 130375, Note_off_c, 0, 45, 58
1, 130542, Note_on_c, 0, 67, 58
1, 130555, Note_off_c, 0, 65, 49
1, 130558, Note_on_c, 0, 43, 41
1, 130606, Note_off_c, 0, 50, 50
1, 130630, Control_c, 0, 64, 39
1, 130645, Control_c, 0, 64, 54
1, 130660, Control_c, 0, 64, 60
1, 130675, Control_c, 0, 64, 62
1, 130690, Note_off_c, 0, 67, 52
1, 130690, Control_c, 0, 64, 63
1, 130705, Control_c, 0, 64, 64
1, 130730, Note_on_c, 0, 64, 50
1, 130749, Control_c, 0, 64, 63
1, 130755, Note_off_c, 0, 64, 64
1, 130764, Control_c, 0, 64, 61
1, 130773, Note_on_c, 0, 65, 57
1, 130779, Control_c, 0, 64, 58
1, 130793, Control_c, 0, 64, 56
1, 130808, Control_c, 0, 64, 52
1, 130823, Control_c, 0, 64, 47
1, 130833, Note_on_c, 0, 64, 65
1, 130838, Control_c, 0, 64, 41
1, 130847, Note_on_c, 0, 48, 47
1, 130849, Note_off_c, 0, 65, 61
1, 130853, Control_c, 0, 64, 31
1, 130867, Control_c, 0, 64, 0
1, 130884, Note_off_c, 0, 43, 34
1, 130949, Poly_aftertouch_c, 0, 67, 127
1, 130979, Note_off_c, 0, 64, 59
1, 130985, Note_on_c, 0, 62, 60
1, 131131, Note_on_c, 0, 64, 58
1, 131154, Note_off_c, 0, 62, 53
1, 131158, Control_c, 0, 64, 39
1, 131173, Control_c, 0, 64, 51
1, 131187, Control_c, 0, 64, 58
1, 131202, Control_c, 0, 64, 62
1, 131209, Poly_aftertouch_c, 0, 67, 0
1, 131217, Control_c, 0, 64, 65
1, 131232, Control_c, 0, 64, 67
1, 131234, Note_off_c, 0, 64, 63
1, 131247, Control_c, 0, 64, 69
1, 131262, Control_c, 0, 64, 70
1, 131271, Note_on_c, 0, 45, 50
1, 131287, Note_off_c, 0, 48, 36
1, 131306, Control_c, 0, 64, 69
1, 131321, Control_c, 0, 64, 68
1, 131336, Control_c, 0, 64, 67
1, 131351, Control_c, 0, 64, 65
1, 131365, Control_c, 0, 64, 61
1, 131380, Control_c, 0, 64, 57
1, 131395, Control_c, 0, 64, 52
1, 131409, Control_c, 0, 64, 48
1, 131410, Note_on_c, 0, 69, 64
1, 131411, Note_off_c, 0, 45, 56
1, 131424, Control_c, 0, 64, 46
1, 131426, Note_on_c, 0, 41, 38
1, 131429, Note_on_c, 0, 65, 45
1, 131439, Control_c, 0, 64, 44
1, 131454, Control_c, 0, 64, 42
1, 131469, Control_c, 0, 64, 41
1, 131483, Control_c, 0, 64, 39
1, 131498, Control_c, 0, 64, 37
1, 131513, Control_c, 0, 64, 33
1, 131528, Control_c, 0, 64, 30
1, 131543, Control_c, 0, 64, 0
1, 131706, Note_on_c, 0, 70, 77
1, 131710, Note_on_c, 0, 50, 49
1, 131753, Note_off_c, 0, 41, 35
1, 131754, Note_off_c, 0, 69, 60
1, 131992, Note_on_c, 0, 74, 80
1, 131996, Note_on_c, 0, 46, 50
1, 132004, Note_off_c, 0, 50, 48
1, 132019, Note_off_c, 0, 70, 63
1, 132072, Note_off_c, 0, 65, 47
1, 132084, Control_c, 0, 64, 47
1, 132099, Control_c, 0, 64, 60
1, 132112, Note_off_c, 0, 74, 61
1, 132113, Control_c, 0, 64, 66
1, 132128, Control_c, 0, 64, 71
1, 132143, Control_c, 0, 64, 78
1, 132158, Control_c, 0, 64, 86
1, 132173, Control_c, 0, 64, 94
1, 132187, Control_c, 0, 64, 98
1, 132225, Note_off_c, 0, 46, 37
1, 132246, Control_c, 0, 64, 94
1, 132261, Control_c, 0, 64, 90
1, 132276, Control_c, 0, 64, 85
1, 132291, Control_c, 0, 64, 80
1, 132305, Control_c, 0, 64, 73
1, 132312, Note_on_c, 0, 74, 69
1, 132320, Control_c, 0, 64, 67
1, 132323, Note_on_c, 0, 45, 42
1, 132335, Control_c, 0, 64, 62
1, 132350, Control_c, 0, 64, 57
1, 132365, Control_c, 0, 64, 52
1, 132380, Control_c, 0, 64, 49
1, 132395, Control_c, 0, 64, 44
1, 132410, Control_c, 0, 64, 36
1, 132424, Control_c, 0, 64, 0
1, 132471, Note_on_c, 0, 72, 69
1, 132532, Note_off_c, 0, 74, 54
1, 132612, Note_on_c, 0, 70, 68
1, 132637, Note_off_c, 0, 72, 61
1, 132666, Note_off_c, 0, 45, 42
1, 132743, Note_on_c, 0, 69, 65
1, 132749, Note_off_c, 0, 70, 58
1, 132856, Note_off_c, 0, 69, 59
1, 132875, Note_on_c, 0, 67, 70
1, 132886, Note_on_c, 0, 50, 52
1, 132915, Note_off_c, 0, 67, 64
1, 132922, Note_off_c, 0, 50, 64
1, 133008, Note_on_c, 0, 65, 63
1, 133048, Note_off_c, 0, 65, 62
1, 133163, Note_on_c, 0, 46, 45
1, 133173, Note_on_c, 0, 67, 46
1, 133314, Control_c, 0, 64, 40
1, 133329, Control_c, 0, 64, 53
1, 133343, Control_c, 0, 64, 59
1, 133358, Control_c, 0, 64, 62
1, 133373, Control_c, 0, 64, 63
1, 133389, Control_c, 0, 64, 64
1, 133404, Control_c, 0, 64, 65
1, 133445, Note_off_c, 0, 67, 55
1, 133463, Control_c, 0, 64, 64
1, 133471, Note_on_c, 0, 70, 54
1, 133478, Control_c, 0, 64, 63
1, 133492, Control_c, 0, 64, 62
1, 133507, Control_c, 0, 64, 60
1, 133514, Note_off_c, 0, 46, 55
1, 133522, Control_c, 0, 64, 58
1, 133534, Note_off_c, 0, 70, 61
1, 133537, Control_c, 0, 64, 54
1, 133552, Control_c, 0, 64, 50
1, 133566, Control_c, 0, 64, 45
1, 133581, Control_c, 0, 64, 39
1, 133596, Control_c, 0, 64, 30
1, 133611, Control_c, 0, 64, 0
1, 133760, Note_on_c, 0, 58, 45
1, 133760, Note_on_c, 0, 64, 50
1, 133768, Note_on_c, 0, 48, 35
1, 133789, Control_c, 0, 64, 34
1, 133803, Control_c, 0, 64, 45
1, 133818, Control_c, 0, 64, 54
1, 133833, Control_c, 0, 64, 60
1, 133835, Note_off_c, 0, 48, 51
1, 133848, Control_c, 0, 64, 64
1, 133863, Control_c, 0, 64, 68
1, 133873, Note_off_c, 0, 64, 56
1, 133878, Control_c, 0, 64, 71
1, 133892, Control_c, 0, 64, 73
1, 133936, Control_c, 0, 64, 73
1, 133942, Note_off_c, 0, 58, 44
1, 133951, Control_c, 0, 64, 71
1, 133966, Control_c, 0, 64, 67
1, 133981, Control_c, 0, 64, 64
1, 133995, Control_c, 0, 64, 60
1, 134010, Control_c, 0, 64, 55
1, 134025, Control_c, 0, 64, 52
1, 134040, Control_c, 0, 64, 48
1, 134062, Control_c, 0, 64, 45
1, 134077, Control_c, 0, 64, 40
1, 134091, Control_c, 0, 64, 35
1, 134106, Control_c, 0, 64, 30
1, 134121, Control_c, 0, 64, 0
1, 134137, Note_on_c, 0, 65, 43
1, 134147, Note_on_c, 0, 57, 34
1, 134154, Note_on_c, 0, 41, 30
1, 134165, Control_c, 0, 64, 29
1, 134196, Control_c, 0, 64, 34
1, 134211, Control_c, 0, 64, 38
1, 134226, Control_c, 0, 64, 44
1, 134240, Control_c, 0, 64, 51
1, 134255, Control_c, 0, 64, 57
1, 134270, Control_c, 0, 64, 62
1, 134285, Control_c, 0, 64, 66
1, 134300, Control_c, 0, 64, 70
1, 134314, Control_c, 0, 64, 75
1, 134315, Note_off_c, 0, 41, 56
1, 134320, Note_off_c, 0, 65, 52
1, 134329, Control_c, 0, 64, 80
1, 134344, Control_c, 0, 64, 85
1, 134356, Note_off_c, 0, 57, 38
1, 134359, Control_c, 0, 64, 90
1, 134374, Control_c, 0, 64, 92
1, 134419, Control_c, 0, 67, 19
1, 134478, Control_c, 0, 64, 91
1, 134493, Control_c, 0, 64, 89
1, 134507, Control_c, 0, 64, 85
1, 134507, Control_c, 0, 67, 0
1, 134522, Control_c, 0, 64, 80
1, 134537, Control_c, 0, 64, 72
1, 134551, Control_c, 0, 64, 62
1, 134566, Control_c, 0, 64, 51
1, 134581, Control_c, 0, 64, 40
1, 134596, Control_c, 0, 64, 35
1, 134611, Control_c, 0, 64, 34
1, 134625, Control_c, 0, 64, 32
1, 134640, Control_c, 0, 64, 0
1, 134794, Note_on_c, 0, 84, 71
1, 134827, Note_on_c, 0, 72, 40
1, 134828, Note_on_c, 0, 69, 42
1, 134930, Note_off_c, 0, 69, 35
1, 134951, Note_off_c, 0, 72, 31
1, 135020, Note_on_c, 0, 70, 45
1, 135023, Note_on_c, 0, 82, 64
1, 135044, Note_off_c, 0, 84, 53
1, 135048, Note_on_c, 0, 67, 38
1, 135088, Note_off_c, 0, 70, 53
1, 135091, Note_on_c, 0, 69, 50
1, 135095, Note_on_c, 0, 81, 70
1, 135102, Note_off_c, 0, 67, 61
1, 135107, Note_off_c, 0, 82, 62
1, 135120, Note_on_c, 0, 65, 40
1, 135122, Note_off_c, 0, 69, 64
1, 135126, Note_off_c, 0, 81, 64
1, 135149, Note_off_c, 0, 65, 57
1, 135390, Note_on_c, 0, 81, 74
1, 135394, Note_on_c, 0, 65, 53
1, 135397, Note_on_c, 0, 69, 45
1, 135423, Note_off_c, 0, 69, 54
1, 135427, Note_off_c, 0, 81, 63
1, 135429, Note_off_c, 0, 65, 65
1, 135708, Note_on_c, 0, 81, 71
1, 135712, Note_on_c, 0, 65, 45
1, 135724, Note_on_c, 0, 69, 35
1, 135769, Note_off_c, 0, 69, 59
1, 135883, Note_off_c, 0, 65, 47
1, 135945, Note_on_c, 0, 79, 63
1, 135963, Note_on_c, 0, 67, 26
1, 135964, Note_on_c, 0, 60, 13
1, 135964, Note_off_c, 0, 81, 54
1, 136009, Note_off_c, 0, 67, 50
1, 136013, Note_on_c, 0, 77, 56
1, 136014, Note_off_c, 0, 60, 51
1, 136018, Note_on_c, 0, 57, 39
1, 136022, Note_off_c, 0, 79, 62
1, 136024, Note_on_c, 0, 65, 44
1, 136050, Note_off_c, 0, 77, 63
1, 136067, Note_off_c, 0, 65, 59
1, 136069, Note_off_c, 0, 57, 54
1, 136305, Note_on_c, 0, 77, 57
1, 136306, Note_on_c, 0, 65, 52
1, 136309, Note_on_c, 0, 57, 44
1, 136335, Note_off_c, 0, 77, 66
1, 136342, Note_off_c, 0, 65, 66
1, 136343, Note_off_c, 0, 57, 64
1, 136596, Note_on_c, 0, 57, 41
1, 136596, Note_on_c, 0, 77, 58
1, 136599, Note_on_c, 0, 65, 45
1, 136854, Note_off_c, 0, 57, 31
1, 136857, Note_off_c, 0, 65, 36
1, 136879, Note_off_c, 0, 77, 57
1, 136892, Note_on_c, 0, 79, 58
1, 136895, Note_on_c, 0, 60, 45
1, 136900, Note_on_c, 0, 67, 40
1, 136900, Note_on_c, 0, 76, 52
1, 136926, Note_off_c, 0, 79, 65
1, 136934, Note_off_c, 0, 60, 65
1, 136934, Note_off_c, 0, 67, 60
1, 136938, Note_off_c, 0, 76, 64
1, 137187, Note_on_c, 0, 79, 71
1, 137196, Note_on_c, 0, 76, 62
1, 137197, Note_on_c, 0, 60, 46
1, 137197, Note_on_c, 0, 67, 50
1, 137236, Note_off_c, 0, 79, 63
1, 137237, Note_off_c, 0, 76, 61
1, 137238, Note_off_c, 0, 60, 61
1, 137244, Note_off_c, 0, 67, 59
1, 137480, Note_on_c, 0, 79, 77
1, 137485, Note_on_c, 0, 60, 49
1, 137492, Note_on_c, 0, 67, 47
1, 137492, Note_on_c, 0, 76, 64
1, 137521, Note_off_c, 0, 60, 66
1, 137532, Note_off_c, 0, 76, 61
1, 137535, Note_off_c, 0, 67, 62
1, 137537, Note_off_c, 0, 79, 64
1, 137803, Note_on_c, 0, 79, 51
1, 137806, Note_on_c, 0, 67, 37
1, 137809, Note_on_c, 0, 60, 40
1, 137813, Note_on_c, 0, 81, 56
1, 137814, Note_on_c, 0, 76, 41
1, 137842, Note_off_c, 0, 81, 52
1, 138058, Note_off_c, 0, 76, 50
1, 138081, Note_off_c, 0, 60, 32
1, 138090, Note_off_c, 0, 67, 50
1, 138109, Note_off_c, 0, 79, 64
1, 138110, Note_on_c, 0, 65, 43
1, 138115, Note_on_c, 0, 81, 63
1, 138125, Note_on_c, 0, 77, 47
1, 138131, Note_on_c, 0, 69, 34
1, 138143, Note_off_c, 0, 65, 63
1, 138164, Note_off_c, 0, 77, 62
1, 138178, Control_c, 0, 64, 46
1, 138186, Note_off_c, 0, 69, 58
1, 138186, Note_off_c, 0, 81, 63
1, 138193, Control_c, 0, 64, 58
1, 138207, Control_c, 0, 64, 62
1, 138267, Control_c, 0, 64, 60
1, 138281, Control_c, 0, 64, 59
1, 138296, Control_c, 0, 64, 59
1, 138311, Control_c, 0, 64, 58
1, 138340, Control_c, 0, 64, 57
1, 138355, Control_c, 0, 64, 56
1, 138370, Control_c, 0, 64, 53
1, 138385, Control_c, 0, 64, 51
1, 138399, Control_c, 0, 64, 49
1, 138414, Control_c, 0, 64, 48
1, 138429, Control_c, 0, 64, 48
1, 138442, Note_on_c, 0, 69, 37
1, 138444, Note_on_c, 0, 84, 66
1, 138444, Control_c, 0, 64, 46
1, 138449, Note_on_c, 0, 72, 34
1, 138459, Control_c, 0, 64, 45
1, 138474, Control_c, 0, 64, 43
1, 138489, Control_c, 0, 64, 41
1, 138504, Control_c, 0, 64, 40
1, 138511, Note_off_c, 0, 84, 63
1, 138514, Note_on_c, 0, 86, 74
1, 138519, Control_c, 0, 64, 40
1, 138533, Control_c, 0, 64, 39
1, 138556, Control_c, 0, 64, 39
1, 138571, Control_c, 0, 64, 38
1, 138586, Control_c, 0, 64, 37
1, 138589, Note_on_c, 0, 84, 70
1, 138601, Note_off_c, 0, 69, 37
1, 138601, Control_c, 0, 64, 36
1, 138612, Note_off_c, 0, 72, 32
1, 138615, Control_c, 0, 64, 35
1, 138630, Control_c, 0, 64, 34
1, 138640, Note_on_c, 0, 70, 45
1, 138645, Control_c, 0, 64, 32
1, 138652, Note_off_c, 0, 86, 59
1, 138655, Note_on_c, 0, 82, 78
1, 138660, Note_on_c, 0, 67, 44
1, 138675, Control_c, 0, 64, 30
1, 138689, Control_c, 0, 64, 0
1, 138699, Note_off_c, 0, 84, 58
1, 138727, Note_on_c, 0, 81, 79
1, 138733, Note_off_c, 0, 70, 45
1, 138740, Note_on_c, 0, 69, 40
1, 138744, Note_off_c, 0, 82, 60
1, 138749, Note_off_c, 0, 67, 56
1, 138763, Note_on_c, 0, 65, 45
1, 138777, Note_off_c, 0, 69, 65
1, 138780, Note_off_c, 0, 81, 65
1, 138813, Note_off_c, 0, 65, 59
1, 139012, Note_on_c, 0, 69, 50
1, 139018, Note_on_c, 0, 81, 76
1, 139024, Note_on_c, 0, 65, 41
1, 139036, Note_off_c, 0, 69, 62
1, 139053, Note_off_c, 0, 65, 59
1, 139073, Note_off_c, 0, 81, 63
1, 139302, Note_on_c, 0, 81, 68
1, 139306, Note_on_c, 0, 65, 44
1, 139307, Note_on_c, 0, 69, 44
1, 139339, Note_off_c, 0, 81, 60
1, 139349, Note_off_c, 0, 69, 62
1, 139362, Note_on_c, 0, 82, 70
1, 139433, Note_on_c, 0, 81, 75
1, 139468, Note_off_c, 0, 65, 57
1, 139479, Note_off_c, 0, 82, 56
1, 139487, Note_on_c, 0, 60, 45
1, 139494, Note_on_c, 0, 79, 78
1, 139546, Poly_aftertouch_c, 0, 67, 127
1, 139565, Note_off_c, 0, 60, 54
1, 139576, Note_off_c, 0, 81, 58
1, 139579, Note_on_c, 0, 57, 53
1, 139580, Note_on_c, 0, 77, 69
1, 139592, Poly_aftertouch_c, 0, 67, 0
1, 139594, Note_on_c, 0, 65, 56
1, 139594, Note_off_c, 0, 79, 62
1, 139622, Note_off_c, 0, 77, 62
1, 139629, Note_off_c, 0, 65, 65
1, 139632, Note_off_c, 0, 57, 62
1, 139871, Note_on_c, 0, 57, 44
1, 139873, Note_on_c, 0, 65, 48
1, 139874, Note_on_c, 0, 77, 60
1, 139905, Note_off_c, 0, 77, 65
1, 139925, Note_off_c, 0, 57, 58
1, 139933, Note_off_c, 0, 65, 57
1, 140165, Note_on_c, 0, 57, 37
1, 140165, Note_on_c, 0, 65, 45
1, 140166, Note_on_c, 0, 77, 59
1, 140203, Note_off_c, 0, 77, 63
1, 140207, Note_off_c, 0, 57, 54
1, 140214, Note_off_c, 0, 65, 59
1, 140447, Note_on_c, 0, 79, 62
1, 140451, Note_on_c, 0, 60, 43
1, 140460, Note_on_c, 0, 67, 34
1, 140527, Control_c, 0, 64, 40
1, 140542, Control_c, 0, 64, 53
1, 140557, Control_c, 0, 64, 58
1, 140573, Control_c, 0, 64, 61
1, 140588, Control_c, 0, 64, 63
1, 140602, Control_c, 0, 64, 65
1, 140617, Control_c, 0, 64, 68
1, 140632, Control_c, 0, 64, 72
1, 140647, Control_c, 0, 64, 75
1, 140662, Control_c, 0, 64, 77
1, 140676, Control_c, 0, 64, 78
1, 140688, Note_off_c, 0, 67, 42
1, 140692, Note_off_c, 0, 60, 43
1, 140706, Control_c, 0, 64, 79
1, 140741, Note_off_c, 0, 79, 62
1, 140747, Note_on_c, 0, 82, 66
1, 140780, Control_c, 0, 64, 78
1, 140816, Note_off_c, 0, 82, 62
1, 140832, Control_c, 0, 64, 77
1, 140847, Control_c, 0, 64, 76
1, 140862, Control_c, 0, 64, 75
1, 140876, Control_c, 0, 64, 73
1, 140891, Control_c, 0, 64, 71
1, 140906, Control_c, 0, 64, 68
1, 140920, Control_c, 0, 64, 65
1, 140935, Control_c, 0, 64, 63
1, 140950, Control_c, 0, 64, 60
1, 140965, Control_c, 0, 64, 57
1, 140980, Control_c, 0, 64, 53
1, 140995, Control_c, 0, 64, 48
1, 141009, Control_c, 0, 64, 41
1, 141024, Control_c, 0, 64, 32
1, 141039, Control_c, 0, 64, 0
1, 141051, Note_on_c, 0, 76, 60
1, 141066, Note_on_c, 0, 70, 46
1, 141071, Note_on_c, 0, 67, 38
1, 141075, Note_on_c, 0, 60, 31
1, 141099, Control_c, 0, 64, 32
1, 141114, Control_c, 0, 64, 43
1, 141128, Control_c, 0, 64, 54
1, 141143, Control_c, 0, 64, 61
1, 141158, Control_c, 0, 64, 65
1, 141173, Control_c, 0, 64, 68
1, 141188, Control_c, 0, 64, 72
1, 141202, Control_c, 0, 64, 74
1, 141217, Control_c, 0, 64, 77
1, 141232, Control_c, 0, 64, 78
1, 141246, Control_c, 0, 64, 78
1, 141253, Note_off_c, 0, 67, 55
1, 141269, Note_off_c, 0, 70, 51
1, 141276, Control_c, 0, 64, 78
1, 141278, Note_off_c, 0, 76, 36
1, 141306, Control_c, 0, 64, 77
1, 141320, Control_c, 0, 64, 76
1, 141335, Control_c, 0, 64, 74
1, 141350, Control_c, 0, 64, 72
1, 141366, Control_c, 0, 64, 69
1, 141381, Control_c, 0, 64, 66
1, 141396, Note_on_c, 0, 77, 45
1, 141396, Control_c, 0, 64, 63
1, 141410, Note_on_c, 0, 69, 33
1, 141411, Control_c, 0, 64, 60
1, 141414, Note_on_c, 0, 65, 38
1, 141425, Control_c, 0, 64, 56
1, 141427, Note_off_c, 0, 60, 25
1, 141440, Control_c, 0, 64, 51
1, 141455, Control_c, 0, 64, 46
1, 141470, Control_c, 0, 64, 42
1, 141485, Control_c, 0, 64, 37
1, 141500, Control_c, 0, 64, 31
1, 141515, Control_c, 0, 64, 0
1, 141619, Note_off_c, 0, 65, 57
1, 141619, Note_off_c, 0, 69, 42
1, 141664, Note_off_c, 0, 77, 60
1, 141998, Note_on_c, 0, 84, 87
1, 142009, Note_on_c, 0, 60, 41
1, 142015, Note_on_c, 0, 64, 38
1, 142018, Note_on_c, 0, 70, 40
1, 142026, Control_c, 0, 64, 34
1, 142041, Control_c, 0, 64, 45
1, 142056, Control_c, 0, 64, 54
1, 142070, Control_c, 0, 64, 59
1, 142085, Control_c, 0, 64, 61
1, 142100, Control_c, 0, 64, 63
1, 142115, Control_c, 0, 64, 65
1, 142130, Control_c, 0, 64, 70
1, 142141, Note_off_c, 0, 64, 51
1, 142144, Control_c, 0, 64, 76
1, 142159, Control_c, 0, 64, 83
1, 142175, Control_c, 0, 64, 87
1, 142184, Note_off_c, 0, 70, 56
1, 142190, Control_c, 0, 64, 87
1, 142263, Control_c, 0, 64, 87
1, 142264, Note_off_c, 0, 60, 41
1, 142278, Control_c, 0, 64, 86
1, 142300, Control_c, 0, 64, 82
1, 142315, Control_c, 0, 64, 76
1, 142330, Control_c, 0, 64, 69
1, 142345, Control_c, 0, 64, 62
1, 142346, Note_on_c, 0, 77, 58
1, 142350, Note_on_c, 0, 65, 41
1, 142358, Note_on_c, 0, 69, 33
1, 142360, Control_c, 0, 64, 50
1, 142362, Note_off_c, 0, 84, 54
1, 142374, Control_c, 0, 64, 31
1, 142389, Control_c, 0, 64, 0
1, 142463, Control_c, 0, 64, 29
1, 142478, Control_c, 0, 64, 44
1, 142492, Control_c, 0, 64, 56
1, 142507, Control_c, 0, 64, 62
1, 142512, Note_off_c, 0, 69, 53
1, 142522, Control_c, 0, 64, 64
1, 142537, Control_c, 0, 64, 67
1, 142552, Control_c, 0, 64, 72
1, 142558, Note_off_c, 0, 65, 65
1, 142562, Note_off_c, 0, 77, 63
1, 142566, Control_c, 0, 64, 79
1, 142581, Control_c, 0, 64, 91
1, 142596, Control_c, 0, 64, 108
1, 142611, Control_c, 0, 64, 119
1, 142626, Control_c, 0, 64, 107
1, 142640, Control_c, 0, 64, 86
1, 142655, Control_c, 0, 64, 70
1, 142670, Control_c, 0, 64, 58
1, 142685, Control_c, 0, 64, 44
1, 142700, Control_c, 0, 64, 32
1, 142700, Control_c, 0, 67, 23
1, 142715, Control_c, 0, 64, 0
1, 142715, Control_c, 0, 67, 34
1, 142729, Control_c, 0, 67, 49
1, 142744, Control_c, 0, 67, 72
1, 142759, Control_c, 0, 67, 93
1, 142774, Control_c, 0, 67, 113
1, 142789, Control_c, 0, 67, 127
1, 142937, Control_c, 0, 67, 125
1, 142966, Note_on_c, 0, 72, 48
1, 142971, Note_on_c, 0, 48, 36
1, 142978, Note_on_c, 0, 58, 37
1, 142981, Note_on_c, 0, 52, 35
1, 142983, Control_c, 0, 64, 37
1, 142997, Control_c, 0, 64, 46
1, 142997, Control_c, 0, 67, 123
1, 143012, Control_c, 0, 64, 54
1, 143027, Control_c, 0, 64, 59
1, 143049, Control_c, 0, 64, 62
1, 143049, Control_c, 0, 67, 120
1, 143064, Control_c, 0, 64, 64
1, 143064, Control_c, 0, 67, 115
1, 143078, Control_c, 0, 64, 67
1, 143078, Control_c, 0, 67, 110
1, 143093, Control_c, 0, 64, 71
1, 143093, Control_c, 0, 67, 104
1, 143108, Control_c, 0, 64, 75
1, 143108, Control_c, 0, 67, 98
1, 143116, Note_off_c, 0, 52, 42
1, 143123, Control_c, 0, 64, 80
1, 143123, Control_c, 0, 67, 91
1, 143138, Control_c, 0, 64, 85
1, 143138, Control_c, 0, 67, 84
1, 143153, Control_c, 0, 64, 86
1, 143153, Control_c, 0, 67, 75
1, 143162, Note_off_c, 0, 58, 51
1, 143168, Control_c, 0, 67, 67
1, 143183, Control_c, 0, 67, 59
1, 143197, Control_c, 0, 67, 52
1, 143212, Control_c, 0, 64, 85
1, 143212, Control_c, 0, 67, 45
1, 143217, Note_off_c, 0, 48, 41
1, 143227, Control_c, 0, 64, 85
1, 143227, Control_c, 0, 67, 37
1, 143242, Control_c, 0, 64, 83
1, 143242, Control_c, 0, 67, 30
1, 143256, Control_c, 0, 64, 80
1, 143256, Control_c, 0, 67, 23
1, 143271, Control_c, 0, 64, 76
1, 143271, Control_c, 0, 67, 0
1, 143286, Control_c, 0, 64, 72
1, 143301, Control_c, 0, 64, 68
1, 143315, Control_c, 0, 64, 64
1, 143323, Note_on_c, 0, 65, 48
1, 143328, Note_on_c, 0, 57, 37
1, 143329, Note_off_c, 0, 72, 36
1, 143330, Control_c, 0, 64, 59
1, 143331, Note_on_c, 0, 53, 34
1, 143345, Control_c, 0, 64, 52
1, 143360, Control_c, 0, 64, 43
1, 143375, Control_c, 0, 64, 35
1, 143389, Control_c, 0, 64, 32
1, 143419, Control_c, 0, 64, 33
1, 143434, Control_c, 0, 64, 35
1, 143448, Control_c, 0, 64, 39
1, 143463, Control_c, 0, 64, 45
1, 143478, Control_c, 0, 64, 50
1, 143493, Control_c, 0, 64, 53
1, 143508, Control_c, 0, 64, 55
1, 143522, Control_c, 0, 64, 58
1, 143537, Control_c, 0, 64, 60
1, 143546, Note_off_c, 0, 57, 45
1, 143552, Control_c, 0, 64, 63
1, 143567, Control_c, 0, 64, 65
1, 143582, Control_c, 0, 64, 68
1, 143587, Note_off_c, 0, 53, 53
1, 143594, Note_off_c, 0, 65, 62
1, 143597, Control_c, 0, 64, 71
1, 143612, Control_c, 0, 64, 74
1, 143627, Control_c, 0, 64, 77
1, 143641, Control_c, 0, 64, 79
1, 143656, Control_c, 0, 64, 79
1, 143671, Control_c, 0, 64, 77
1, 143686, Control_c, 0, 64, 67
1, 143701, Control_c, 0, 64, 47
1, 143716, Control_c, 0, 64, 0
1, 143998, Note_on_c, 0, 61, 82
1, 144003, Note_on_c, 0, 49, 63
1, 144005, Note_on_c, 0, 37, 68
1, 144020, Control_c, 0, 64, 33
1, 144035, Control_c, 0, 64, 47
1, 144050, Control_c, 0, 64, 57
1, 144065, Control_c, 0, 64, 63
1, 144080, Control_c, 0, 64, 67
1, 144095, Control_c, 0, 64, 73
1, 144110, Control_c, 0, 64, 81
1, 144125, Control_c, 0, 64, 105
1, 144139, Control_c, 0, 64, 127
1, 144163, Note_off_c, 0, 37, 58
1, 144170, Note_off_c, 0, 49, 60
1, 144302, Control_c, 0, 64, 97
1, 144317, Control_c, 0, 64, 66
1, 144332, Control_c, 0, 64, 0
1, 144334, Note_on_c, 0, 38, 74
1, 144339, Note_on_c, 0, 62, 84
1, 144349, Note_on_c, 0, 50, 65
1, 144369, Note_off_c, 0, 61, 57
1, 144405, Control_c, 0, 64, 40
1, 144420, Control_c, 0, 64, 61
1, 144434, Note_off_c, 0, 38, 64
1, 144435, Control_c, 0, 64, 72
1, 144450, Control_c, 0, 64, 92
1, 144451, Note_off_c, 0, 50, 61
1, 144464, Control_c, 0, 64, 127
1, 144587, Note_on_c, 0, 53, 62
1, 144601, Note_off_c, 0, 62, 58
1, 144718, Note_on_c, 0, 57, 68
1, 144752, Note_off_c, 0, 53, 55
1, 144874, Note_on_c, 0, 65, 72
1, 144875, Note_on_c, 0, 53, 65
1, 144892, Note_off_c, 0, 57, 51
1, 144917, Control_c, 0, 64, 103
1, 144932, Note_on_c, 0, 69, 68
1, 144932, Control_c, 0, 64, 80
1, 144947, Note_off_c, 0, 65, 63
1, 144947, Control_c, 0, 64, 67
1, 144962, Control_c, 0, 64, 58
1, 144977, Control_c, 0, 64, 52
1, 144990, Note_on_c, 0, 74, 79
1, 144992, Control_c, 0, 64, 53
1, 145007, Control_c, 0, 64, 58
1, 145008, Note_on_c, 0, 57, 67
1, 145013, Note_off_c, 0, 69, 64
1, 145021, Control_c, 0, 64, 64
1, 145028, Note_off_c, 0, 53, 50
1, 145036, Control_c, 0, 64, 68
1, 145051, Control_c, 0, 64, 72
1, 145053, Note_off_c, 0, 74, 64
1, 145066, Control_c, 0, 64, 75
1, 145081, Control_c, 0, 64, 77
1, 145095, Control_c, 0, 64, 79
1, 145110, Control_c, 0, 64, 80
1, 145125, Control_c, 0, 64, 81
1, 145140, Control_c, 0, 64, 80
1, 145147, Note_on_c, 0, 69, 73
1, 145155, Control_c, 0, 64, 78
1, 145158, Note_off_c, 0, 57, 48
1, 145159, Note_on_c, 0, 53, 60
1, 145169, Control_c, 0, 64, 71
1, 145184, Control_c, 0, 64, 64
1, 145199, Control_c, 0, 64, 56
1, 145204, Note_on_c, 0, 74, 79
1, 145213, Control_c, 0, 64, 52
1, 145217, Note_off_c, 0, 69, 62
1, 145228, Control_c, 0, 64, 54
1, 145243, Control_c, 0, 64, 56
1, 145258, Control_c, 0, 64, 59
1, 145266, Note_on_c, 0, 77, 79
1, 145273, Control_c, 0, 64, 62
1, 145275, Note_on_c, 0, 50, 64
1, 145280, Note_off_c, 0, 74, 64
1, 145281, Note_off_c, 0, 53, 58
1, 145295, Control_c, 0, 64, 67
1, 145310, Control_c, 0, 64, 73
1, 145325, Control_c, 0, 64, 81
1, 145335, Note_off_c, 0, 77, 65
1, 145340, Control_c, 0, 64, 88
1, 145355, Control_c, 0, 64, 92
1, 145371, Control_c, 0, 64, 94
1, 145400, Control_c, 0, 64, 90
1, 145415, Control_c, 0, 64, 81
1, 145422, Note_on_c, 0, 74, 78
1, 145430, Control_c, 0, 64, 66
1, 145434, Note_on_c, 0, 53, 55
1, 145444, Control_c, 0, 64, 53
1, 145459, Control_c, 0, 64, 0
1, 145463, Note_off_c, 0, 50, 50
1, 145477, Note_on_c, 0, 77, 78
1, 145506, Note_off_c, 0, 74, 62
1, 145540, Note_on_c, 0, 81, 86
1, 145548, Control_c, 0, 64, 42
1, 145553, Note_on_c, 0, 57, 60
1, 145560, Note_off_c, 0, 77, 64
1, 145562, Note_off_c, 0, 53, 57
1, 145563, Control_c, 0, 64, 56
1, 145578, Control_c, 0, 64, 64
1, 145592, Control_c, 0, 64, 68
1, 145598, Note_off_c, 0, 81, 64
1, 145607, Control_c, 0, 64, 71
1, 145622, Control_c, 0, 64, 75
1, 145636, Control_c, 0, 64, 78
1, 145651, Control_c, 0, 64, 79
1, 145666, Control_c, 0, 64, 80
1, 145685, Note_off_c, 0, 57, 56
1, 145690, Note_on_c, 0, 81, 91
1, 145693, Note_on_c, 0, 53, 61
1, 145710, Control_c, 0, 64, 79
1, 145725, Control_c, 0, 64, 72
1, 145740, Control_c, 0, 64, 61
1, 145755, Control_c, 0, 64, 35
1, 145770, Control_c, 0, 64, 0
1, 145807, Note_off_c, 0, 53, 58
1, 145812, Note_on_c, 0, 57, 59
1, 145828, Note_on_c, 0, 77, 86
1, 145848, Note_off_c, 0, 81, 62
1, 145874, Control_c, 0, 64, 37
1, 145889, Control_c, 0, 64, 51
1, 145904, Control_c, 0, 64, 61
1, 145918, Control_c, 0, 64, 66
1, 145926, Note_off_c, 0, 57, 54
1, 145933, Note_off_c, 0, 77, 62
1, 145933, Control_c, 0, 64, 71
1, 145948, Control_c, 0, 64, 77
1, 145955, Note_on_c, 0, 74, 81
1, 145956, Note_on_c, 0, 53, 59
1, 145963, Control_c, 0, 64, 84
1, 145978, Control_c, 0, 64, 91
1, 145991, Note_off_c, 0, 53, 64
1, 145992, Control_c, 0, 64, 97
1, 146007, Control_c, 0, 64, 99
1, 146014, Note_off_c, 0, 74, 63
1, 146104, Control_c, 0, 64, 95
1, 146118, Control_c, 0, 64, 83
1, 146133, Control_c, 0, 64, 69
1, 146148, Control_c, 0, 64, 54
1, 146158, Note_on_c, 0, 73, 73
1, 146163, Control_c, 0, 64, 0
1, 146169, Note_on_c, 0, 40, 51
1, 146174, Note_on_c, 0, 52, 48
1, 146199, Note_on_c, 0, 76, 77
1, 146242, Note_on_c, 0, 79, 80
1, 146245, Note_off_c, 0, 73, 60
1, 146282, Control_c, 0, 64, 31
1, 146288, Note_off_c, 0, 40, 62
1, 146297, Control_c, 0, 64, 50
1, 146311, Note_on_c, 0, 82, 86
1, 146312, Control_c, 0, 64, 58
1, 146313, Note_off_c, 0, 76, 51
1, 146321, Note_off_c, 0, 52, 62
1, 146327, Control_c, 0, 64, 63
1, 146341, Control_c, 0, 64, 66
1, 146348, Note_off_c, 0, 79, 62
1, 146356, Control_c, 0, 64, 69
1, 146371, Control_c, 0, 64, 71
1, 146386, Control_c, 0, 64, 73
1, 146401, Control_c, 0, 64, 74
1, 146518, Note_off_c, 0, 82, 59
1, 146523, Note_on_c, 0, 58, 52
1, 146527, Note_on_c, 0, 55, 50
1, 146528, Note_on_c, 0, 52, 54
1, 146533, Control_c, 0, 64, 73
1, 146539, Note_on_c, 0, 61, 51
1, 146548, Control_c, 0, 64, 73
1, 146563, Control_c, 0, 64, 72
1, 146578, Control_c, 0, 64, 72
1, 146593, Control_c, 0, 64, 71
1, 146608, Control_c, 0, 64, 70
1, 146623, Control_c, 0, 64, 69
1, 146637, Control_c, 0, 64, 69
1, 146652, Control_c, 0, 64, 68
1, 146667, Control_c, 0, 64, 67
1, 146682, Control_c, 0, 64, 67
1, 146697, Note_off_c, 0, 61, 56
1, 146697, Control_c, 0, 64, 66
1, 146704, Note_off_c, 0, 52, 58
1, 146712, Control_c, 0, 64, 66
1, 146721, Note_on_c, 0, 81, 76
1, 146727, Control_c, 0, 64, 65
1, 146729, Note_off_c, 0, 58, 61
1, 146741, Control_c, 0, 64, 65
1, 146751, Note_off_c, 0, 55, 62
1, 146756, Control_c, 0, 64, 64
1, 146789, Note_on_c, 0, 79, 76
1, 146792, Control_c, 0, 64, 64
1, 146807, Control_c, 0, 64, 63
1, 146822, Control_c, 0, 64, 62
1, 146837, Note_off_c, 0, 81, 59
1, 146837, Control_c, 0, 64, 60
1, 146852, Control_c, 0, 64, 58
1, 146860, Note_on_c, 0, 77, 71
1, 146867, Control_c, 0, 64, 55
1, 146882, Control_c, 0, 64, 52
1, 146897, Note_off_c, 0, 79, 64
1, 146897, Control_c, 0, 64, 51
1, 146912, Control_c, 0, 64, 49
1, 146921, Note_on_c, 0, 76, 76
1, 146927, Control_c, 0, 64, 47
1, 146941, Control_c, 0, 64, 43
1, 146944, Note_off_c, 0, 77, 65
1, 146956, Control_c, 0, 64, 38
1, 146971, Control_c, 0, 64, 30
1, 146980, Note_off_c, 0, 76, 64
1, 146983, Note_on_c, 0, 74, 74
1, 146986, Control_c, 0, 64, 0
1, 147041, Note_on_c, 0, 73, 79
1, 147050, Note_off_c, 0, 74, 63
1, 147116, Note_off_c, 0, 73, 63
1, 147131, Note_on_c, 0, 82, 80
1, 147138, Note_on_c, 0, 40, 50
1, 147144, Note_on_c, 0, 52, 52
1, 147194, Control_c, 0, 64, 30
1, 147204, Note_off_c, 0, 40, 61
1, 147208, Control_c, 0, 64, 46
1, 147223, Control_c, 0, 64, 57
1, 147238, Control_c, 0, 64, 63
1, 147245, Note_off_c, 0, 52, 62
1, 147253, Control_c, 0, 64, 66
1, 147268, Control_c, 0, 64, 69
1, 147282, Control_c, 0, 64, 72
1, 147297, Control_c, 0, 64, 74
1, 147312, Control_c, 0, 64, 75
1, 147327, Control_c, 0, 64, 76
1, 147392, Note_off_c, 0, 82, 49
1, 147401, Control_c, 0, 64, 75
1, 147430, Control_c, 0, 64, 75
1, 147445, Control_c, 0, 64, 74
1, 147453, Note_on_c, 0, 52, 44
1, 147457, Note_on_c, 0, 58, 39
1, 147457, Note_on_c, 0, 55, 36
1, 147460, Control_c, 0, 64, 74
1, 147464, Note_on_c, 0, 61, 38
1, 147475, Control_c, 0, 64, 73
1, 147489, Control_c, 0, 64, 73
1, 147504, Control_c, 0, 64, 72
1, 147519, Control_c, 0, 64, 72
1, 147541, Control_c, 0, 64, 71
1, 147556, Control_c, 0, 64, 70
1, 147570, Control_c, 0, 64, 70
1, 147585, Control_c, 0, 64, 69
1, 147600, Control_c, 0, 64, 69
1, 147615, Control_c, 0, 64, 68
1, 147628, Note_on_c, 0, 81, 66
1, 147629, Note_off_c, 0, 52, 59
1, 147630, Control_c, 0, 64, 67
1, 147645, Control_c, 0, 64, 67
1, 147648, Note_off_c, 0, 61, 37
1, 147660, Control_c, 0, 64, 66
1, 147661, Note_off_c, 0, 58, 49
1, 147675, Control_c, 0, 64, 66
1, 147688, Note_off_c, 0, 55, 44
1, 147689, Control_c, 0, 64, 65
1, 147697, Note_on_c, 0, 79, 64
1, 147704, Control_c, 0, 64, 64
1, 147719, Control_c, 0, 64, 63
1, 147733, Control_c, 0, 64, 62
1, 147743, Note_off_c, 0, 81, 37
1, 147748, Control_c, 0, 64, 61
1, 147764, Control_c, 0, 64, 59
1, 147766, Note_on_c, 0, 77, 60
1, 147779, Control_c, 0, 64, 56
1, 147788, Note_off_c, 0, 79, 63
1, 147794, Control_c, 0, 64, 53
1, 147809, Control_c, 0, 64, 49
1, 147824, Control_c, 0, 64, 46
1, 147827, Note_on_c, 0, 76, 64
1, 147838, Control_c, 0, 64, 43
1, 147844, Note_off_c, 0, 77, 65
1, 147853, Control_c, 0, 64, 39
1, 147868, Control_c, 0, 64, 33
1, 147872, Note_off_c, 0, 76, 64
1, 147883, Control_c, 0, 64, 0
1, 147898, Note_on_c, 0, 74, 58
1, 147935, Note_off_c, 0, 74, 59
1, 147957, Note_on_c, 0, 73, 64
1, 148033, Note_on_c, 0, 53, 41
1, 148036, Note_on_c, 0, 74, 59
1, 148050, Note_off_c, 0, 73, 58
1, 148199, Note_on_c, 0, 57, 44
1, 148208, Control_c, 0, 64, 41
1, 148223, Control_c, 0, 64, 54
1, 148237, Control_c, 0, 64, 60
1, 148252, Control_c, 0, 64, 63
1, 148267, Control_c, 0, 64, 66
1, 148289, Control_c, 0, 64, 68
1, 148304, Control_c, 0, 64, 70
1, 148319, Control_c, 0, 64, 73
1, 148323, Note_off_c, 0, 74, 50
1, 148334, Control_c, 0, 64, 74
1, 148348, Control_c, 0, 64, 75
1, 148357, Note_on_c, 0, 62, 45
1, 148372, Note_off_c, 0, 57, 50
1, 148467, Control_c, 0, 64, 74
1, 148482, Control_c, 0, 64, 73
1, 148497, Control_c, 0, 64, 69
1, 148501, Note_off_c, 0, 62, 37
1, 148511, Control_c, 0, 64, 64
1, 148516, Note_on_c, 0, 57, 45
1, 148526, Control_c, 0, 64, 57
1, 148529, Note_on_c, 0, 65, 53
1, 148541, Control_c, 0, 64, 52
1, 148557, Control_c, 0, 64, 51
1, 148572, Control_c, 0, 64, 52
1, 148580, Note_on_c, 0, 69, 63
1, 148587, Control_c, 0, 64, 55
1, 148599, Note_off_c, 0, 65, 60
1, 148602, Control_c, 0, 64, 57
1, 148603, Note_off_c, 0, 53, 9
1, 148616, Control_c, 0, 64, 59
1, 148631, Control_c, 0, 64, 62
1, 148632, Note_on_c, 0, 62, 47
1, 148646, Control_c, 0, 64, 65
1, 148648, Note_on_c, 0, 74, 71
1, 148660, Control_c, 0, 64, 68
1, 148661, Note_off_c, 0, 57, 47
1, 148665, Note_off_c, 0, 69, 63
1, 148675, Control_c, 0, 64, 71
1, 148690, Control_c, 0, 64, 75
1, 148705, Control_c, 0, 64, 78
1, 148710, Note_off_c, 0, 74, 62
1, 148720, Control_c, 0, 64, 79
1, 148734, Control_c, 0, 64, 80
1, 148764, Control_c, 0, 64, 79
1, 148778, Control_c, 0, 64, 78
1, 148793, Control_c, 0, 64, 74
1, 148799, Note_on_c, 0, 69, 71
1, 148800, Note_on_c, 0, 57, 52
1, 148808, Control_c, 0, 64, 68
1, 148823, Control_c, 0, 64, 62
1, 148825, Note_off_c, 0, 62, 33
1, 148838, Control_c, 0, 64, 57
1, 148853, Control_c, 0, 64, 54
1, 148858, Note_on_c, 0, 74, 79
1, 148876, Note_off_c, 0, 69, 62
1, 148882, Control_c, 0, 64, 55
1, 148897, Control_c, 0, 64, 56
1, 148912, Control_c, 0, 64, 59
1, 148927, Control_c, 0, 64, 62
1, 148929, Note_on_c, 0, 77, 76
1, 148930, Note_off_c, 0, 57, 53
1, 148932, Note_on_c, 0, 53, 54
1, 148939, Note_off_c, 0, 74, 63
1, 148942, Control_c, 0, 64, 66
1, 148957, Control_c, 0, 64, 70
1, 148972, Control_c, 0, 64, 74
1, 148984, Note_off_c, 0, 77, 65
1, 148986, Control_c, 0, 64, 77
1, 149001, Control_c, 0, 64, 79
1, 149016, Control_c, 0, 64, 80
1, 149054, Control_c, 0, 64, 80
1, 149068, Control_c, 0, 64, 77
1, 149083, Control_c, 0, 64, 71
1, 149087, Note_on_c, 0, 74, 76
1, 149095, Note_on_c, 0, 57, 50
1, 149098, Control_c, 0, 64, 64
1, 149113, Control_c, 0, 64, 53
1, 149128, Control_c, 0, 64, 46
1, 149142, Control_c, 0, 64, 43
1, 149143, Note_on_c, 0, 77, 77
1, 149157, Control_c, 0, 64, 44
1, 149172, Control_c, 0, 64, 45
1, 149175, Note_off_c, 0, 74, 61
1, 149186, Control_c, 0, 64, 48
1, 149201, Control_c, 0, 64, 52
1, 149211, Note_on_c, 0, 62, 54
1, 149215, Note_on_c, 0, 81, 86
1, 149216, Control_c, 0, 64, 58
1, 149223, Note_off_c, 0, 57, 58
1, 149231, Note_off_c, 0, 77, 64
1, 149231, Control_c, 0, 64, 62
1, 149246, Control_c, 0, 64, 66
1, 149261, Control_c, 0, 64, 69
1, 149268, Note_off_c, 0, 81, 65
1, 149276, Control_c, 0, 64, 73
1, 149290, Control_c, 0, 64, 75
1, 149305, Control_c, 0, 64, 77
1, 149329, Note_off_c, 0, 62, 55
1, 149350, Control_c, 0, 64, 76
1, 149359, Note_on_c, 0, 81, 88
1, 149360, Note_on_c, 0, 57, 55
1, 149365, Control_c, 0, 64, 73
1, 149380, Control_c, 0, 64, 67
1, 149395, Control_c, 0, 64, 60
1, 149410, Control_c, 0, 64, 44
1, 149425, Control_c, 0, 64, 0
1, 149492, Note_off_c, 0, 57, 54
1, 149495, Note_on_c, 0, 62, 53
1, 149496, Note_on_c, 0, 77, 85
1, 149514, Control_c, 0, 64, 38
1, 149520, Note_off_c, 0, 81, 63
1, 149529, Control_c, 0, 64, 52
1, 149544, Control_c, 0, 64, 61
1, 149546, Note_off_c, 0, 53, 12
1, 149558, Control_c, 0, 64, 65
1, 149573, Control_c, 0, 64, 68
1, 149576, Note_off_c, 0, 62, 59
1, 149588, Control_c, 0, 64, 71
1, 149591, Note_off_c, 0, 77, 62
1, 149602, Control_c, 0, 64, 75
1, 149617, Control_c, 0, 64, 79
1, 149624, Note_on_c, 0, 74, 80
1, 149624, Note_on_c, 0, 57, 61
1, 149632, Control_c, 0, 64, 81
1, 149647, Control_c, 0, 64, 82
1, 149653, Note_off_c, 0, 57, 66
1, 149662, Control_c, 0, 64, 83
1, 149721, Control_c, 0, 64, 82
1, 149736, Control_c, 0, 64, 81
1, 149751, Control_c, 0, 64, 77
1, 149754, Note_off_c, 0, 74, 31
1, 149765, Control_c, 0, 64, 71
1, 149788, Control_c, 0, 64, 64
1, 149803, Control_c, 0, 64, 50
1, 149817, Control_c, 0, 64, 0
1, 149834, Note_on_c, 0, 74, 51
1, 149836, Note_on_c, 0, 71, 73
1, 149839, Note_on_c, 0, 38, 68
1, 149839, Note_on_c, 0, 80, 86
1, 149846, Note_on_c, 0, 50, 55
1, 149857, Note_on_c, 0, 77, 49
1, 149935, Control_c, 0, 64, 44
1, 149949, Note_off_c, 0, 38, 63
1, 149950, Control_c, 0, 64, 58
1, 149965, Control_c, 0, 64, 64
1, 149970, Note_off_c, 0, 50, 61
1, 149980, Control_c, 0, 64, 69
1, 149995, Control_c, 0, 64, 74
1, 150002, Note_off_c, 0, 74, 56
1, 150006, Note_off_c, 0, 77, 43
1, 150009, Control_c, 0, 64, 79
1, 150024, Control_c, 0, 64, 83
1, 150039, Control_c, 0, 64, 86
1, 150098, Note_off_c, 0, 71, 34
1, 150143, Control_c, 0, 64, 85
1, 150159, Control_c, 0, 64, 85
1, 150167, Note_on_c, 0, 50, 59
1, 150170, Note_on_c, 0, 53, 50
1, 150170, Note_on_c, 0, 59, 53
1, 150174, Note_on_c, 0, 56, 43
1, 150174, Control_c, 0, 64, 84
1, 150188, Control_c, 0, 64, 83
1, 150195, Note_off_c, 0, 80, 54
1, 150203, Control_c, 0, 64, 82
1, 150218, Control_c, 0, 64, 80
1, 150232, Control_c, 0, 64, 79
1, 150247, Control_c, 0, 64, 78
1, 150262, Control_c, 0, 64, 76
1, 150277, Control_c, 0, 64, 75
1, 150292, Control_c, 0, 64, 73
1, 150307, Control_c, 0, 64, 71
1, 150322, Control_c, 0, 64, 70
1, 150337, Control_c, 0, 64, 68
1, 150340, Note_on_c, 0, 79, 71
1, 150340, Note_off_c, 0, 59, 57
1, 150351, Control_c, 0, 64, 67
1, 150366, Control_c, 0, 64, 66
1, 150370, Note_off_c, 0, 50, 60
1, 150370, Note_off_c, 0, 56, 58
1, 150381, Control_c, 0, 64, 66
1, 150388, Note_off_c, 0, 53, 62
1, 150396, Control_c, 0, 64, 65
1, 150411, Note_on_c, 0, 77, 70
1, 150411, Control_c, 0, 64, 64
1, 150425, Control_c, 0, 64, 63
1, 150435, Note_off_c, 0, 79, 63
1, 150440, Control_c, 0, 64, 62
1, 150455, Control_c, 0, 64, 61
1, 150470, Control_c, 0, 64, 60
1, 150475, Note_on_c, 0, 75, 70
1, 150485, Control_c, 0, 64, 58
1, 150499, Control_c, 0, 64, 56
1, 150502, Note_off_c, 0, 77, 63
1, 150514, Control_c, 0, 64, 54
1, 150535, Note_off_c, 0, 75, 64
1, 150536, Control_c, 0, 64, 52
1, 150543, Note_on_c, 0, 74, 69
1, 150551, Control_c, 0, 64, 49
1, 150566, Control_c, 0, 64, 45
1, 150577, Note_off_c, 0, 74, 62
1, 150581, Control_c, 0, 64, 40
1, 150596, Control_c, 0, 64, 30
1, 150609, Note_on_c, 0, 72, 79
1, 150611, Control_c, 0, 64, 0
1, 150654, Note_off_c, 0, 72, 62
1, 150681, Note_on_c, 0, 71, 72
1, 150755, Note_on_c, 0, 38, 55
1, 150760, Note_on_c, 0, 80, 84
1, 150766, Note_on_c, 0, 50, 55
1, 150770, Note_off_c, 0, 71, 58
1, 150847, Control_c, 0, 64, 35
1, 150856, Note_off_c, 0, 38, 64
1, 150862, Control_c, 0, 64, 53
1, 150877, Control_c, 0, 64, 62
1, 150892, Control_c, 0, 64, 66
1, 150902, Note_off_c, 0, 50, 61
1, 150906, Control_c, 0, 64, 70
1, 150921, Control_c, 0, 64, 74
1, 150936, Control_c, 0, 64, 77
1, 150952, Control_c, 0, 64, 78
1, 151054, Note_off_c, 0, 80, 56
1, 151070, Control_c, 0, 64, 78
1, 151079, Note_on_c, 0, 50, 50
1, 151082, Note_on_c, 0, 59, 41
1, 151085, Control_c, 0, 64, 77
1, 151091, Note_on_c, 0, 53, 41
1, 151092, Note_on_c, 0, 56, 41
1, 151100, Control_c, 0, 64, 76
1, 151115, Control_c, 0, 64, 75
1, 151130, Control_c, 0, 64, 74
1, 151145, Control_c, 0, 64, 73
1, 151159, Control_c, 0, 64, 72
1, 151174, Control_c, 0, 64, 72
1, 151189, Control_c, 0, 64, 71
1, 151204, Control_c, 0, 64, 70
1, 151219, Control_c, 0, 64, 69
1, 151226, Note_on_c, 0, 79, 66
1, 151234, Control_c, 0, 64, 68
1, 151242, Note_off_c, 0, 59, 53
1, 151249, Control_c, 0, 64, 67
1, 151264, Control_c, 0, 64, 66
1, 151267, Note_off_c, 0, 50, 55
1, 151286, Control_c, 0, 64, 65
1, 151301, Control_c, 0, 64, 65
1, 151303, Note_off_c, 0, 56, 46
1, 151303, Note_on_c, 0, 77, 64
1, 151311, Note_off_c, 0, 53, 51
1, 151316, Control_c, 0, 64, 64
1, 151330, Control_c, 0, 64, 63
1, 151336, Note_off_c, 0, 79, 61
1, 151345, Control_c, 0, 64, 62
1, 151360, Control_c, 0, 64, 62
1, 151374, Note_on_c, 0, 75, 65
1, 151375, Control_c, 0, 64, 61
1, 151389, Control_c, 0, 64, 60
1, 151404, Control_c, 0, 64, 59
1, 151412, Note_off_c, 0, 77, 62
1, 151419, Control_c, 0, 64, 58
1, 151434, Note_off_c, 0, 75, 63
1, 151434, Control_c, 0, 64, 57
1, 151449, Note_on_c, 0, 74, 64
1, 151449, Control_c, 0, 64, 55
1, 151464, Control_c, 0, 64, 53
1, 151478, Note_off_c, 0, 74, 65
1, 151478, Control_c, 0, 64, 50
1, 151493, Control_c, 0, 64, 46
1, 151508, Control_c, 0, 64, 41
1, 151512, Note_on_c, 0, 72, 71
1, 151523, Control_c, 0, 64, 36
1, 151538, Control_c, 0, 64, 29
1, 151553, Control_c, 0, 64, 0
1, 151562, Note_off_c, 0, 72, 60
1, 151598, Note_on_c, 0, 71, 59
1, 151679, Note_off_c, 0, 71, 61
1, 151681, Note_on_c, 0, 72, 68
1, 151695, Note_on_c, 0, 51, 42
1, 151850, Control_c, 0, 64, 40
1, 151857, Note_on_c, 0, 55, 42
1, 151865, Control_c, 0, 64, 53
1, 151879, Control_c, 0, 64, 61
1, 151894, Control_c, 0, 64, 64
1, 151909, Control_c, 0, 64, 67
1, 151923, Control_c, 0, 64, 69
1, 151938, Control_c, 0, 64, 73
1, 151941, Note_off_c, 0, 72, 63
1, 151953, Control_c, 0, 64, 77
1, 151968, Control_c, 0, 64, 80
1, 151983, Control_c, 0, 64, 81
1, 152003, Note_on_c, 0, 60, 45
1, 152023, Note_off_c, 0, 55, 57
1, 152050, Control_c, 0, 64, 82
1, 152158, Note_on_c, 0, 63, 57
1, 152167, Note_off_c, 0, 60, 38
1, 152168, Control_c, 0, 64, 80
1, 152172, Note_on_c, 0, 55, 48
1, 152183, Control_c, 0, 64, 74
1, 152198, Control_c, 0, 64, 66
1, 152212, Note_on_c, 0, 67, 64
1, 152212, Control_c, 0, 64, 60
1, 152227, Control_c, 0, 64, 55
1, 152230, Note_off_c, 0, 63, 60
1, 152242, Control_c, 0, 64, 56
1, 152257, Control_c, 0, 64, 57
1, 152272, Control_c, 0, 64, 60
1, 152285, Note_on_c, 0, 72, 67
1, 152286, Control_c, 0, 64, 63
1, 152298, Note_off_c, 0, 67, 64
1, 152301, Control_c, 0, 64, 67
1, 152307, Note_on_c, 0, 60, 40
1, 152316, Note_off_c, 0, 55, 55
1, 152316, Control_c, 0, 64, 71
1, 152331, Control_c, 0, 64, 76
1, 152343, Note_off_c, 0, 72, 61
1, 152346, Control_c, 0, 64, 80
1, 152361, Control_c, 0, 64, 84
1, 152367, Note_off_c, 0, 51, 20
1, 152376, Control_c, 0, 64, 86
1, 152391, Control_c, 0, 64, 87
1, 152420, Control_c, 0, 64, 87
1, 152435, Control_c, 0, 64, 85
1, 152438, Note_on_c, 0, 67, 64
1, 152450, Control_c, 0, 64, 80
1, 152452, Note_on_c, 0, 55, 51
1, 152465, Control_c, 0, 64, 71
1, 152479, Control_c, 0, 64, 61
1, 152486, Note_off_c, 0, 60, 30
1, 152494, Control_c, 0, 64, 44
1, 152495, Note_on_c, 0, 72, 73
1, 152509, Control_c, 0, 64, 29
1, 152523, Control_c, 0, 64, 0
1, 152526, Note_off_c, 0, 67, 57
1, 152538, Control_c, 0, 64, 30
1, 152554, Control_c, 0, 64, 37
1, 152559, Note_on_c, 0, 75, 76
1, 152569, Control_c, 0, 64, 46
1, 152572, Note_off_c, 0, 55, 47
1, 152575, Note_off_c, 0, 72, 63
1, 152578, Note_on_c, 0, 51, 48
1, 152584, Control_c, 0, 64, 56
1, 152599, Control_c, 0, 64, 63
1, 152614, Control_c, 0, 64, 68
1, 152628, Control_c, 0, 64, 72
1, 152632, Note_off_c, 0, 75, 63
1, 152643, Control_c, 0, 64, 76
1, 152658, Control_c, 0, 64, 78
1, 152673, Control_c, 0, 64, 79
1, 152701, Control_c, 0, 64, 78
1, 152705, Note_on_c, 0, 72, 72
1, 152710, Note_on_c, 0, 55, 50
1, 152716, Control_c, 0, 64, 73
1, 152731, Control_c, 0, 64, 66
1, 152745, Control_c, 0, 64, 59
1, 152760, Control_c, 0, 64, 51
1, 152765, Note_on_c, 0, 75, 77
1, 152783, Control_c, 0, 64, 48
1, 152798, Control_c, 0, 64, 50
1, 152807, Note_off_c, 0, 72, 60
1, 152813, Control_c, 0, 64, 52
1, 152827, Control_c, 0, 64, 56
1, 152841, Note_on_c, 0, 79, 80
1, 152842, Control_c, 0, 64, 60
1, 152843, Note_on_c, 0, 60, 51
1, 152850, Note_off_c, 0, 55, 57
1, 152857, Control_c, 0, 64, 65
1, 152860, Note_off_c, 0, 75, 63
1, 152872, Control_c, 0, 64, 69
1, 152887, Control_c, 0, 64, 75
1, 152896, Note_off_c, 0, 79, 67
1, 152901, Control_c, 0, 64, 80
1, 152916, Control_c, 0, 64, 83
1, 152931, Control_c, 0, 64, 85
1, 152963, Note_off_c, 0, 60, 51
1, 152990, Note_on_c, 0, 79, 90
1, 152990, Note_on_c, 0, 55, 52
1, 152990, Control_c, 0, 64, 82
1, 153005, Control_c, 0, 64, 75
1, 153020, Control_c, 0, 64, 66
1, 153034, Control_c, 0, 64, 53
1, 153049, Control_c, 0, 64, 0
1, 153130, Note_on_c, 0, 60, 45
1, 153130, Note_on_c, 0, 75, 81
1, 153132, Note_off_c, 0, 55, 56
1, 153150, Note_off_c, 0, 79, 64
1, 153183, Control_c, 0, 64, 41
1, 153198, Control_c, 0, 64, 58
1, 153211, Note_off_c, 0, 60, 57
1, 153213, Control_c, 0, 64, 64
1, 153219, Note_off_c, 0, 51, 41
1, 153227, Control_c, 0, 64, 69
1, 153242, Control_c, 0, 64, 74
1, 153249, Note_off_c, 0, 75, 63
1, 153257, Control_c, 0, 64, 79
1, 153261, Note_on_c, 0, 55, 59
1, 153270, Note_on_c, 0, 72, 80
1, 153271, Control_c, 0, 64, 86
1, 153286, Control_c, 0, 64, 94
1, 153292, Note_off_c, 0, 55, 64
1, 153301, Control_c, 0, 64, 98
1, 153337, Note_off_c, 0, 72, 62
1, 153376, Control_c, 0, 64, 95
1, 153391, Control_c, 0, 64, 82
1, 153406, Control_c, 0, 64, 67
1, 153421, Control_c, 0, 64, 45
1, 153436, Control_c, 0, 64, 0
1, 153460, Note_on_c, 0, 39, 67
1, 153461, Note_on_c, 0, 78, 83
1, 153465, Note_on_c, 0, 69, 66
1, 153467, Note_on_c, 0, 51, 50
1, 153472, Note_on_c, 0, 72, 56
1, 153577, Control_c, 0, 64, 34
1, 153592, Control_c, 0, 64, 52
1, 153595, Note_off_c, 0, 39, 61
1, 153607, Control_c, 0, 64, 58
1, 153613, Note_off_c, 0, 72, 59
1, 153619, Note_off_c, 0, 51, 61
1, 153622, Control_c, 0, 64, 64
1, 153637, Control_c, 0, 64, 69
1, 153651, Control_c, 0, 64, 75
1, 153666, Control_c, 0, 64, 81
1, 153681, Control_c, 0, 64, 85
1, 153696, Control_c, 0, 64, 87
1, 153795, Note_on_c, 0, 60, 55
1, 153797, Note_on_c, 0, 51, 53
1, 153799, Note_on_c, 0, 57, 49
1, 153799, Control_c, 0, 64, 87
1, 153812, Note_on_c, 0, 54, 39
1, 153814, Control_c, 0, 64, 86
1, 153819, Note_off_c, 0, 78, 60
1, 153829, Control_c, 0, 64, 85
1, 153844, Control_c, 0, 64, 83
1, 153847, Note_off_c, 0, 69, 40
1, 153858, Control_c, 0, 64, 82
1, 153873, Control_c, 0, 64, 81
1, 153888, Control_c, 0, 64, 80
1, 153902, Control_c, 0, 64, 79
1, 153917, Control_c, 0, 64, 78
1, 153932, Control_c, 0, 64, 77
1, 153941, Note_off_c, 0, 60, 55
1, 153947, Control_c, 0, 64, 76
1, 153955, Note_on_c, 0, 77, 65
1, 153962, Control_c, 0, 64, 75
1, 153976, Control_c, 0, 64, 74
1, 153979, Note_off_c, 0, 51, 60
1, 153982, Note_off_c, 0, 57, 48
1, 153991, Control_c, 0, 64, 72
1, 154006, Control_c, 0, 64, 70
1, 154011, Note_off_c, 0, 54, 57
1, 154021, Control_c, 0, 64, 67
1, 154024, Note_on_c, 0, 75, 66
1, 154036, Control_c, 0, 64, 66
1, 154051, Control_c, 0, 64, 65
1, 154052, Note_off_c, 0, 77, 61
1, 154066, Control_c, 0, 64, 64
1, 154081, Control_c, 0, 64, 63
1, 154090, Note_on_c, 0, 73, 76
1, 154095, Control_c, 0, 64, 61
1, 154110, Control_c, 0, 64, 60
1, 154121, Note_off_c, 0, 75, 63
1, 154125, Control_c, 0, 64, 59
1, 154140, Control_c, 0, 64, 57
1, 154143, Note_off_c, 0, 73, 65
1, 154155, Control_c, 0, 64, 55
1, 154157, Note_on_c, 0, 72, 70
1, 154170, Control_c, 0, 64, 52
1, 154185, Control_c, 0, 64, 48
1, 154195, Note_off_c, 0, 72, 61
1, 154200, Control_c, 0, 64, 40
1, 154215, Control_c, 0, 64, 0
1, 154219, Note_on_c, 0, 70, 78
1, 154276, Note_off_c, 0, 70, 64
1, 154298, Note_on_c, 0, 69, 71
1, 154360, Note_on_c, 0, 39, 57
1, 154379, Note_on_c, 0, 78, 81
1, 154382, Note_on_c, 0, 51, 42
1, 154399, Note_off_c, 0, 69, 39
1, 154444, Control_c, 0, 64, 37
1, 154459, Control_c, 0, 64, 50
1, 154474, Control_c, 0, 64, 59
1, 154480, Note_off_c, 0, 39, 61
1, 154489, Control_c, 0, 64, 64
1, 154504, Control_c, 0, 64, 67
1, 154510, Note_off_c, 0, 51, 60
1, 154519, Control_c, 0, 64, 70
1, 154533, Control_c, 0, 64, 73
1, 154548, Control_c, 0, 64, 76
1, 154563, Control_c, 0, 64, 77
1, 154668, Note_off_c, 0, 78, 52
1, 154690, Note_on_c, 0, 60, 41
1, 154700, Note_on_c, 0, 51, 43
1, 154705, Note_on_c, 0, 57, 39
1, 154711, Control_c, 0, 64, 77
1, 154716, Note_on_c, 0, 54, 35
1, 154785, Control_c, 0, 64, 76
1, 154835, Note_on_c, 0, 77, 53
1, 154841, Note_off_c, 0, 60, 47
1, 154844, Control_c, 0, 64, 76
1, 154874, Control_c, 0, 64, 75
1, 154879, Note_off_c, 0, 57, 48
1, 154885, Note_off_c, 0, 51, 55
1, 154903, Control_c, 0, 64, 75
1, 154908, Note_on_c, 0, 75, 59
1, 154909, Note_off_c, 0, 54, 57
1, 154927, Note_off_c, 0, 77, 51
1, 154948, Control_c, 0, 64, 74
1, 154975, Note_on_c, 0, 73, 68
1, 154978, Control_c, 0, 64, 74
1, 154993, Control_c, 0, 64, 73
1, 155002, Note_off_c, 0, 75, 61
1, 155008, Control_c, 0, 64, 72
1, 155030, Control_c, 0, 64, 72
1, 155039, Note_off_c, 0, 73, 63
1, 155045, Control_c, 0, 64, 71
1, 155058, Note_on_c, 0, 72, 63
1, 155060, Control_c, 0, 64, 69
1, 155075, Control_c, 0, 64, 67
1, 155090, Control_c, 0, 64, 64
1, 155097, Note_off_c, 0, 72, 62
1, 155104, Control_c, 0, 64, 61
1, 155119, Control_c, 0, 64, 57
1, 155121, Note_on_c, 0, 70, 66
1, 155134, Control_c, 0, 64, 52
1, 155148, Control_c, 0, 64, 45
1, 155163, Control_c, 0, 64, 32
1, 155174, Note_off_c, 0, 70, 63
1, 155178, Control_c, 0, 64, 0
1, 155191, Note_on_c, 0, 69, 66
1, 155308, Note_off_c, 0, 69, 53
1, 155319, Note_on_c, 0, 70, 66
1, 155324, Note_on_c, 0, 49, 40
1, 155508, Note_on_c, 0, 53, 40
1, 155519, Control_c, 0, 64, 43
1, 155534, Control_c, 0, 64, 58
1, 155548, Control_c, 0, 64, 64
1, 155563, Control_c, 0, 64, 66
1, 155578, Control_c, 0, 64, 68
1, 155593, Control_c, 0, 64, 70
1, 155608, Control_c, 0, 64, 72
1, 155618, Note_off_c, 0, 70, 50
1, 155622, Control_c, 0, 64, 73
1, 155672, Note_on_c, 0, 58, 46
1, 155703, Note_off_c, 0, 53, 36
1, 155743, Note_off_c, 0, 58, 48
1, 155757, Control_c, 0, 64, 73
1, 155761, Note_on_c, 0, 65, 54
1, 155779, Control_c, 0, 64, 72
1, 155794, Control_c, 0, 64, 72
1, 155806, Note_off_c, 0, 65, 63
1, 155809, Control_c, 0, 64, 71
1, 155822, Note_on_c, 0, 53, 43
1, 155823, Note_on_c, 0, 70, 64
1, 155824, Control_c, 0, 64, 71
1, 155839, Control_c, 0, 64, 70
1, 155853, Control_c, 0, 64, 69
1, 155863, Note_off_c, 0, 70, 62
1, 155868, Control_c, 0, 64, 68
1, 155883, Control_c, 0, 64, 68
1, 155895, Note_on_c, 0, 65, 66
1, 155896, Note_off_c, 0, 49, 22
1, 155897, Control_c, 0, 64, 67
1, 155912, Control_c, 0, 64, 67
1, 155936, Note_off_c, 0, 65, 64
1, 155942, Control_c, 0, 64, 66
1, 155953, Note_off_c, 0, 53, 37
1, 155957, Control_c, 0, 64, 66
1, 155964, Note_on_c, 0, 73, 70
1, 155971, Control_c, 0, 64, 65
1, 155986, Control_c, 0, 64, 65
1, 155988, Note_on_c, 0, 58, 35
1, 156016, Control_c, 0, 64, 64
1, 156021, Note_off_c, 0, 73, 63
1, 156039, Note_on_c, 0, 70, 76
1, 156040, Note_off_c, 0, 58, 45
1, 156060, Control_c, 0, 64, 64
1, 156087, Note_on_c, 0, 53, 49
1, 156090, Control_c, 0, 64, 63
1, 156096, Note_off_c, 0, 70, 63
1, 156099, Note_on_c, 0, 73, 72
1, 156105, Control_c, 0, 64, 63
1, 156120, Control_c, 0, 64, 62
1, 156135, Control_c, 0, 64, 62
1, 156150, Control_c, 0, 64, 60
1, 156154, Note_off_c, 0, 73, 65
1, 156164, Control_c, 0, 64, 58
1, 156170, Note_on_c, 0, 70, 69
1, 156179, Control_c, 0, 64, 54
1, 156190, Note_off_c, 0, 53, 51
1, 156194, Control_c, 0, 64, 48
1, 156209, Control_c, 0, 64, 38
1, 156224, Control_c, 0, 64, 0
1, 156230, Note_off_c, 0, 70, 64
1, 156235, Note_on_c, 0, 77, 74
1, 156240, Note_on_c, 0, 49, 40
1, 156291, Note_off_c, 0, 77, 64
1, 156318, Note_on_c, 0, 73, 73
1, 156363, Note_off_c, 0, 73, 61
1, 156372, Note_on_c, 0, 77, 64
1, 156378, Note_on_c, 0, 53, 45
1, 156424, Note_off_c, 0, 77, 63
1, 156447, Note_on_c, 0, 73, 74
1, 156535, Note_off_c, 0, 73, 53
1, 156540, Note_off_c, 0, 53, 37
1, 156549, Note_on_c, 0, 82, 75
1, 156561, Note_on_c, 0, 58, 45
1, 156680, Note_off_c, 0, 58, 38
1, 156706, Control_c, 0, 64, 46
1, 156707, Note_on_c, 0, 53, 43
1, 156720, Control_c, 0, 64, 59
1, 156735, Control_c, 0, 64, 64
1, 156750, Control_c, 0, 64, 68
1, 156765, Control_c, 0, 64, 73
1, 156769, Note_off_c, 0, 82, 62
1, 156780, Control_c, 0, 64, 79
1, 156794, Control_c, 0, 64, 90
1, 156809, Control_c, 0, 64, 103
1, 156824, Control_c, 0, 64, 127
1, 156871, Note_on_c, 0, 58, 43
1, 156889, Note_off_c, 0, 53, 37
1, 156966, Note_off_c, 0, 49, 6
1, 157002, Control_c, 0, 64, 125
1, 157011, Note_on_c, 0, 53, 48
1, 157017, Control_c, 0, 64, 114
1, 157032, Control_c, 0, 64, 107
1, 157046, Control_c, 0, 64, 100
1, 157051, Note_off_c, 0, 58, 40
1, 157061, Control_c, 0, 64, 94
1, 157076, Control_c, 0, 64, 90
1, 157091, Control_c, 0, 64, 86
1, 157106, Control_c, 0, 64, 83
1, 157120, Control_c, 0, 64, 80
1, 157135, Control_c, 0, 64, 76
1, 157150, Control_c, 0, 64, 71
1, 157162, Note_on_c, 0, 69, 71
1, 157164, Note_off_c, 0, 53, 31
1, 157165, Control_c, 0, 64, 66
1, 157169, Note_on_c, 0, 48, 40
1, 157180, Control_c, 0, 64, 58
1, 157194, Control_c, 0, 64, 46
1, 157209, Control_c, 0, 64, 0
1, 157327, Note_on_c, 0, 53, 46
1, 157335, Control_c, 0, 64, 32
1, 157351, Control_c, 0, 64, 49
1, 157366, Control_c, 0, 64, 59
1, 157381, Control_c, 0, 64, 64
1, 157396, Control_c, 0, 64, 67
1, 157410, Control_c, 0, 64, 69
1, 157425, Control_c, 0, 64, 72
1, 157428, Note_off_c, 0, 69, 64
1, 157440, Control_c, 0, 64, 75
1, 157455, Control_c, 0, 64, 76
1, 157494, Note_on_c, 0, 57, 49
1, 157511, Note_off_c, 0, 53, 34
1, 157576, Note_on_c, 0, 65, 60
1, 157592, Note_off_c, 0, 57, 37
1, 157617, Control_c, 0, 64, 76
1, 157619, Note_off_c, 0, 65, 58
1, 157626, Note_on_c, 0, 53, 54
1, 157635, Note_on_c, 0, 69, 66
1, 157647, Control_c, 0, 64, 75
1, 157662, Control_c, 0, 64, 75
1, 157676, Control_c, 0, 64, 74
1, 157678, Note_off_c, 0, 69, 59
1, 157691, Control_c, 0, 64, 73
1, 157692, Note_off_c, 0, 48, 34
1, 157706, Control_c, 0, 64, 72
1, 157708, Note_on_c, 0, 65, 71
1, 157721, Control_c, 0, 64, 72
1, 157736, Control_c, 0, 64, 71
1, 157741, Note_off_c, 0, 53, 38
1, 157741, Note_off_c, 0, 65, 62
1, 157750, Control_c, 0, 64, 70
1, 157765, Control_c, 0, 64, 69
1, 157771, Note_on_c, 0, 72, 75
1, 157773, Note_on_c, 0, 57, 52
1, 157780, Control_c, 0, 64, 68
1, 157795, Control_c, 0, 64, 67
1, 157810, Control_c, 0, 64, 66
1, 157821, Note_off_c, 0, 72, 61
1, 157825, Control_c, 0, 64, 65
1, 157838, Note_off_c, 0, 57, 55
1, 157840, Control_c, 0, 64, 64
1, 157846, Note_on_c, 0, 69, 70
1, 157855, Control_c, 0, 64, 63
1, 157869, Control_c, 0, 64, 62
1, 157883, Note_on_c, 0, 53, 45
1, 157884, Control_c, 0, 64, 61
1, 157899, Control_c, 0, 64, 60
1, 157902, Note_off_c, 0, 69, 62
1, 157910, Note_on_c, 0, 72, 76
1, 157914, Control_c, 0, 64, 59
1, 157929, Control_c, 0, 64, 59
1, 157955, Note_off_c, 0, 72, 62
1, 157958, Control_c, 0, 64, 58
1, 157971, Note_on_c, 0, 69, 71
1, 157973, Control_c, 0, 64, 58
1, 157988, Control_c, 0, 64, 57
1, 158003, Control_c, 0, 64, 56
1, 158024, Control_c, 0, 64, 55
1, 158035, Note_off_c, 0, 69, 62
1, 158039, Control_c, 0, 64, 55
1, 158042, Note_off_c, 0, 53, 36
1, 158044, Note_on_c, 0, 77, 77
1, 158045, Note_on_c, 0, 48, 49
1, 158069, Control_c, 0, 64, 54
1, 158084, Control_c, 0, 64, 54
1, 158096, Note_off_c, 0, 77, 65
1, 158099, Control_c, 0, 64, 53
1, 158114, Control_c, 0, 64, 52
1, 158118, Note_on_c, 0, 72, 77
1, 158129, Control_c, 0, 64, 52
1, 158144, Control_c, 0, 64, 51
1, 158159, Control_c, 0, 64, 50
1, 158174, Control_c, 0, 64, 49
1, 158175, Note_on_c, 0, 53, 48
1, 158180, Note_on_c, 0, 77, 77
1, 158185, Note_off_c, 0, 72, 61
1, 158188, Control_c, 0, 64, 47
1, 158203, Control_c, 0, 64, 45
1, 158218, Control_c, 0, 64, 42
1, 158233, Note_off_c, 0, 77, 65
1, 158233, Control_c, 0, 64, 39
1, 158236, Note_on_c, 0, 72, 70
1, 158248, Control_c, 0, 64, 32
1, 158263, Control_c, 0, 64, 0
1, 158322, Note_on_c, 0, 81, 87
1, 158323, Note_off_c, 0, 72, 60
1, 158340, Note_on_c, 0, 57, 59
1, 158376, Note_off_c, 0, 53, 35
1, 158455, Control_c, 0, 64, 35
1, 158470, Control_c, 0, 64, 46
1, 158472, Note_on_c, 0, 53, 48
1, 158479, Note_off_c, 0, 57, 44
1, 158485, Control_c, 0, 64, 56
1, 158486, Note_off_c, 0, 48, 33
1, 158499, Control_c, 0, 64, 60
1, 158514, Control_c, 0, 64, 62
1, 158529, Control_c, 0, 64, 63
1, 158544, Control_c, 0, 64, 65
1, 158548, Note_off_c, 0, 81, 63
1, 158559, Control_c, 0, 64, 67
1, 158573, Control_c, 0, 64, 70
1, 158588, Control_c, 0, 64, 71
1, 158603, Control_c, 0, 64, 72
1, 158615, Note_on_c, 0, 57, 59
1, 158630, Note_off_c, 0, 53, 53
1, 158765, Note_on_c, 0, 53, 62
1, 158774, Control_c, 0, 64, 71
1, 158803, Note_off_c, 0, 57, 37
1, 158804, Control_c, 0, 64, 71
1, 158818, Control_c, 0, 64, 70
1, 158833, Control_c, 0, 64, 69
1, 158848, Control_c, 0, 64, 68
1, 158863, Control_c, 0, 64, 68
1, 158878, Control_c, 0, 64, 67
1, 158892, Control_c, 0, 64, 66
1, 158907, Control_c, 0, 64, 65
1, 158922, Control_c, 0, 64, 65
1, 158937, Control_c, 0, 64, 64
1, 158940, Note_off_c, 0, 53, 42
1, 158941, Note_on_c, 0, 68, 83
1, 158953, Control_c, 0, 64, 62
1, 158954, Note_on_c, 0, 47, 39
1, 158968, Control_c, 0, 64, 57
1, 158983, Control_c, 0, 64, 45
1, 158997, Control_c, 0, 64, 0
1, 159111, Note_on_c, 0, 53, 58
1, 159130, Control_c, 0, 64, 33
1, 159145, Control_c, 0, 64, 47
1, 159160, Control_c, 0, 64, 55
1, 159175, Control_c, 0, 64, 60
1, 159190, Control_c, 0, 64, 61
1, 159205, Control_c, 0, 64, 62
1, 159211, Note_off_c, 0, 47, 40
1, 159220, Control_c, 0, 64, 62
1, 159235, Control_c, 0, 64, 63
1, 159239, Note_off_c, 0, 68, 52
1, 159249, Control_c, 0, 64, 63
1, 159260, Note_off_c, 0, 53, 60
1, 159264, Control_c, 0, 64, 64
1, 159265, Note_on_c, 0, 56, 67
1, 159353, Note_on_c, 0, 65, 55
1, 159367, Note_off_c, 0, 56, 49
1, 159397, Control_c, 0, 64, 63
1, 159403, Note_off_c, 0, 65, 61
1, 159405, Note_on_c, 0, 68, 73
1, 159412, Control_c, 0, 64, 61
1, 159419, Note_on_c, 0, 53, 58
1, 159427, Control_c, 0, 64, 57
1, 159441, Control_c, 0, 64, 50
1, 159456, Control_c, 0, 64, 43
1, 159463, Note_off_c, 0, 68, 63
1, 159471, Control_c, 0, 64, 36
1, 159485, Note_on_c, 0, 65, 68
1, 159486, Control_c, 0, 64, 35
1, 159501, Control_c, 0, 64, 38
1, 159520, Note_off_c, 0, 65, 67
1, 159523, Control_c, 0, 64, 42
1, 159538, Control_c, 0, 64, 49
1, 159545, Note_on_c, 0, 74, 69
1, 159545, Note_off_c, 0, 53, 58
1, 159553, Control_c, 0, 64, 55
1, 159560, Note_on_c, 0, 56, 63
1, 159568, Control_c, 0, 64, 58
1, 159583, Control_c, 0, 64, 60
1, 159595, Note_off_c, 0, 74, 63
1, 159597, Control_c, 0, 64, 61
1, 159612, Control_c, 0, 64, 62
1, 159615, Note_on_c, 0, 68, 71
1, 159661, Note_on_c, 0, 73, 57
1, 159670, Note_off_c, 0, 56, 38
1, 159679, Note_on_c, 0, 53, 63
1, 159679, Note_off_c, 0, 68, 62
1, 159688, Note_on_c, 0, 74, 62
1, 159694, Note_off_c, 0, 73, 54
1, 159718, Note_off_c, 0, 74, 60
1, 159739, Note_on_c, 0, 68, 62
1, 159768, Note_off_c, 0, 68, 64
1, 159776, Control_c, 0, 64, 61
1, 159791, Control_c, 0, 64, 60
1, 159806, Control_c, 0, 64, 58
1, 159809, Note_on_c, 0, 77, 77
1, 159813, Note_off_c, 0, 53, 35
1, 159820, Control_c, 0, 64, 55
1, 159828, Note_on_c, 0, 47, 61
1, 159835, Control_c, 0, 64, 53
1, 159850, Control_c, 0, 64, 52
1, 159863, Note_off_c, 0, 77, 65
1, 159879, Control_c, 0, 64, 53
1, 159885, Note_on_c, 0, 74, 79
1, 159909, Control_c, 0, 64, 52
1, 159935, Note_off_c, 0, 74, 63
1, 159938, Control_c, 0, 64, 52
1, 159947, Note_on_c, 0, 77, 79
1, 159953, Control_c, 0, 64, 51
1, 159976, Note_on_c, 0, 53, 55
1, 159998, Note_off_c, 0, 77, 63
1, 160010, Note_on_c, 0, 74, 82
1, 160013, Control_c, 0, 64, 51
1, 160028, Control_c, 0, 64, 50
1, 160043, Control_c, 0, 64, 49
1, 160057, Control_c, 0, 64, 48
1, 160072, Control_c, 0, 64, 47
1, 160085, Note_on_c, 0, 80, 85
1, 160087, Control_c, 0, 64, 46
1, 160102, Control_c, 0, 64, 44
1, 160104, Note_off_c, 0, 74, 61
1, 160112, Note_off_c, 0, 53, 58
1, 160117, Note_on_c, 0, 56, 54
1, 160117, Control_c, 0, 64, 43
1, 160132, Control_c, 0, 64, 42
1, 160146, Control_c, 0, 64, 41
1, 160161, Control_c, 0, 64, 40
1, 160176, Control_c, 0, 64, 39
1, 160190, Control_c, 0, 64, 37
1, 160205, Control_c, 0, 64, 36
1, 160220, Control_c, 0, 64, 34
1, 160235, Note_off_c, 0, 56, 54
1, 160235, Control_c, 0, 64, 31
1, 160247, Note_on_c, 0, 53, 58
1, 160250, Control_c, 0, 64, 0
1, 160306, Note_off_c, 0, 47, 27
1, 160405, Note_on_c, 0, 56, 49
1, 160405, Note_off_c, 0, 53, 53
1, 160411, Note_on_c, 0, 77, 77
1, 160435, Note_off_c, 0, 80, 58
1, 160464, Control_c, 0, 64, 39
1, 160479, Control_c, 0, 64, 56
1, 160494, Note_off_c, 0, 77, 62
1, 160494, Control_c, 0, 64, 64
1, 160509, Control_c, 0, 64, 67
1, 160524, Control_c, 0, 64, 70
1, 160538, Note_off_c, 0, 56, 49
1, 160540, Control_c, 0, 64, 72
1, 160549, Note_on_c, 0, 53, 56
1, 160555, Control_c, 0, 64, 73
1, 160569, Control_c, 0, 64, 73
1, 160658, Control_c, 0, 64, 73
1, 160673, Control_c, 0, 64, 71
1, 160687, Control_c, 0, 64, 69
1, 160692, Note_off_c, 0, 53, 35
1, 160702, Control_c, 0, 64, 66
1, 160710, Note_on_c, 0, 72, 67
1, 160717, Control_c, 0, 64, 64
1, 160725, Note_on_c, 0, 48, 51
1, 160732, Control_c, 0, 64, 61
1, 160747, Control_c, 0, 64, 58
1, 160752, Note_on_c, 0, 76, 76
1, 160761, Control_c, 0, 64, 55
1, 160776, Control_c, 0, 64, 52
1, 160791, Control_c, 0, 64, 48
1, 160803, Note_off_c, 0, 72, 55
1, 160806, Control_c, 0, 64, 43
1, 160814, Note_on_c, 0, 79, 73
1, 160821, Control_c, 0, 64, 34
1, 160829, Note_on_c, 0, 80, 44
1, 160835, Control_c, 0, 64, 0
1, 160861, Note_off_c, 0, 80, 33
1, 160868, Note_on_c, 0, 84, 89
1, 160890, Note_on_c, 0, 52, 51
1, 160926, Note_off_c, 0, 76, 50
1, 160939, Note_off_c, 0, 79, 59
1, 160976, Note_off_c, 0, 48, 35
1, 161061, Note_on_c, 0, 55, 49
1, 161163, Note_off_c, 0, 52, 33
1, 161218, Note_on_c, 0, 60, 50
1, 161229, Note_off_c, 0, 55, 54
1, 161322, Note_off_c, 0, 84, 60
1, 161380, Note_on_c, 0, 82, 70
1, 161385, Note_on_c, 0, 53, 47
1, 161396, Note_off_c, 0, 60, 37
1, 161449, Note_on_c, 0, 80, 73
1, 161480, Control_c, 0, 64, 34
1, 161495, Control_c, 0, 64, 46
1, 161502, Note_off_c, 0, 82, 54
1, 161509, Control_c, 0, 64, 54
1, 161517, Note_on_c, 0, 56, 54
1, 161519, Note_on_c, 0, 79, 76
1, 161521, Note_off_c, 0, 53, 56
1, 161524, Control_c, 0, 64, 57
1, 161539, Control_c, 0, 64, 58
1, 161577, Note_off_c, 0, 80, 64
1, 161590, Note_on_c, 0, 77, 69
1, 161599, Control_c, 0, 64, 57
1, 161605, Note_off_c, 0, 79, 66
1, 161614, Control_c, 0, 64, 57
1, 161628, Control_c, 0, 64, 56
1, 161643, Control_c, 0, 64, 54
1, 161658, Control_c, 0, 64, 51
1, 161673, Control_c, 0, 64, 49
1, 161688, Control_c, 0, 64, 48
1, 161703, Control_c, 0, 64, 46
1, 161717, Control_c, 0, 64, 43
1, 161721, Note_on_c, 0, 84, 84
1, 161725, Note_on_c, 0, 48, 41
1, 161732, Control_c, 0, 64, 38
1, 161734, Note_off_c, 0, 56, 26
1, 161747, Control_c, 0, 64, 30
1, 161769, Note_off_c, 0, 77, 53
1, 161769, Control_c, 0, 64, 0
1, 161906, Note_on_c, 0, 52, 49
1, 161932, Control_c, 0, 64, 36
1, 161947, Control_c, 0, 64, 43
1, 161962, Control_c, 0, 64, 49
1, 161976, Control_c, 0, 64, 54
1, 161991, Control_c, 0, 64, 56
1, 162006, Control_c, 0, 64, 58
1, 162021, Control_c, 0, 64, 59
1, 162030, Note_off_c, 0, 48, 31
1, 162036, Control_c, 0, 64, 60
1, 162046, Note_on_c, 0, 55, 51
1, 162050, Control_c, 0, 64, 61
1, 162065, Control_c, 0, 64, 62
1, 162124, Control_c, 0, 64, 62
1, 162149, Note_off_c, 0, 52, 31
1, 162207, Note_on_c, 0, 60, 48
1, 162208, Note_off_c, 0, 55, 57
1, 162214, Control_c, 0, 64, 62
1, 162273, Control_c, 0, 64, 61
1, 162288, Control_c, 0, 64, 57
1, 162303, Control_c, 0, 64, 50
1, 162318, Control_c, 0, 64, 43
1, 162332, Control_c, 0, 64, 37
1, 162341, Note_on_c, 0, 82, 70
1, 162347, Note_on_c, 0, 53, 44
1, 162347, Note_off_c, 0, 60, 39
1, 162347, Control_c, 0, 64, 35
1, 162362, Control_c, 0, 64, 36
1, 162377, Control_c, 0, 64, 39
1, 162392, Control_c, 0, 64, 44
1, 162406, Control_c, 0, 64, 50
1, 162413, Note_on_c, 0, 80, 77
1, 162414, Note_off_c, 0, 84, 29
1, 162421, Control_c, 0, 64, 55
1, 162436, Control_c, 0, 64, 59
1, 162451, Note_off_c, 0, 82, 57
1, 162451, Control_c, 0, 64, 62
1, 162460, Note_off_c, 0, 53, 61
1, 162466, Control_c, 0, 64, 64
1, 162481, Control_c, 0, 64, 65
1, 162496, Note_on_c, 0, 56, 50
1, 162496, Control_c, 0, 64, 66
1, 162498, Note_on_c, 0, 79, 81
1, 162518, Note_off_c, 0, 80, 61
1, 162518, Control_c, 0, 64, 67
1, 162552, Note_off_c, 0, 56, 55
1, 162567, Note_off_c, 0, 79, 67
1, 162575, Note_on_c, 0, 77, 58
1, 162616, Note_off_c, 0, 77, 61
1, 162651, Control_c, 0, 64, 66
1, 162666, Control_c, 0, 64, 66
1, 162681, Control_c, 0, 64, 64
1, 162694, Note_on_c, 0, 72, 76
1, 162696, Control_c, 0, 64, 61
1, 162707, Note_on_c, 0, 60, 52
1, 162710, Control_c, 0, 64, 54
1, 162725, Control_c, 0, 64, 45
1, 162740, Control_c, 0, 64, 33
1, 162755, Control_c, 0, 64, 0
1, 163084, Note_off_c, 0, 60, 33
1, 163090, Note_off_c, 0, 72, 40
1, 163131, Note_on_c, 0, 61, 54
1, 163136, Note_on_c, 0, 73, 68
1, 163172, Note_off_c, 0, 61, 63
1, 163187, Note_off_c, 0, 73, 62
1, 163197, Note_on_c, 0, 60, 62
1, 163206, Note_on_c, 0, 72, 68
1, 163249, Note_off_c, 0, 60, 56
1, 163265, Note_off_c, 0, 72, 49
1, 163281, Note_on_c, 0, 58, 60
1, 163284, Note_on_c, 0, 70, 71
1, 163345, Note_on_c, 0, 56, 62
1, 163347, Note_off_c, 0, 58, 59
1, 163349, Note_on_c, 0, 68, 75
1, 163413, Note_off_c, 0, 56, 61
1, 163417, Note_on_c, 0, 67, 71
1, 163426, Note_on_c, 0, 55, 55
1, 163433, Note_off_c, 0, 70, 51
1, 163465, Note_off_c, 0, 55, 63
1, 163485, Note_off_c, 0, 68, 60
1, 163488, Note_on_c, 0, 53, 49
1, 163489, Note_on_c, 0, 65, 77
1, 163506, Note_off_c, 0, 67, 63
1, 163545, Note_off_c, 0, 53, 58
1, 163572, Note_off_c, 0, 65, 61
1, 163584, Note_on_c, 0, 72, 79
1, 163590, Note_on_c, 0, 60, 55
1, 163619, Note_off_c, 0, 60, 66
1, 163634, Note_off_c, 0, 72, 65
1, 163966, Note_on_c, 0, 36, 32
1, 163966, Note_on_c, 0, 60, 47
1, 164020, Poly_aftertouch_c, 0, 48, 127
1, 164045, Note_off_c, 0, 36, 52
1, 164074, Poly_aftertouch_c, 0, 48, 0
1, 164088, Note_off_c, 0, 60, 56
1, 164252, Control_c, 0, 67, 20
1, 164267, Control_c, 0, 67, 24
1, 164282, Control_c, 0, 67, 30
1, 164297, Control_c, 0, 67, 42
1, 164311, Control_c, 0, 67, 61
1, 164326, Control_c, 0, 67, 81
1, 164341, Control_c, 0, 67, 94
1, 164356, Control_c, 0, 67, 100
1, 164386, Control_c, 0, 67, 98
1, 164401, Control_c, 0, 67, 96
1, 164416, Control_c, 0, 67, 94
1, 164430, Control_c, 0, 67, 92
1, 164445, Control_c, 0, 67, 91
1, 164460, Control_c, 0, 67, 90
1, 164475, Control_c, 0, 67, 89
1, 164490, Control_c, 0, 67, 88
1, 164504, Control_c, 0, 67, 87
1, 164519, Control_c, 0, 67, 86
1, 164535, Control_c, 0, 67, 85
1, 164550, Control_c, 0, 67, 83
1, 164565, Control_c, 0, 67, 81
1, 164567, Note_on_c, 0, 41, 34
1, 164579, Control_c, 0, 67, 79
1, 164594, Control_c, 0, 67, 77
1, 164604, Note_on_c, 0, 60, 42
1, 164609, Control_c, 0, 67, 75
1, 164611, Note_on_c, 0, 48, 23
1, 164624, Control_c, 0, 67, 73
1, 164639, Control_c, 0, 67, 71
1, 164654, Control_c, 0, 67, 68
1, 164661, Note_off_c, 0, 60, 57
1, 164664, Note_on_c, 0, 69, 58
1, 164666, Note_on_c, 0, 53, 33
1, 164668, Control_c, 0, 67, 65
1, 164683, Control_c, 0, 67, 60
1, 164698, Control_c, 0, 67, 54
1, 164713, Control_c, 0, 67, 47
1, 164717, Note_off_c, 0, 48, 38
1, 164717, Note_off_c, 0, 69, 60
1, 164728, Control_c, 0, 67, 38
1, 164738, Note_off_c, 0, 41, 41
1, 164742, Control_c, 0, 67, 29
1, 164764, Control_c, 0, 67, 20
1, 164779, Control_c, 0, 67, 0
1, 164876, Note_off_c, 0, 53, 41
1, 164993, Note_on_c, 0, 69, 59
1, 165032, Note_off_c, 0, 69, 60
1, 165304, Note_on_c, 0, 69, 60
1, 165352, Note_off_c, 0, 69, 62
1, 165474, Note_on_c, 0, 48, 38
1, 165519, Note_on_c, 0, 55, 42
1, 165573, Note_on_c, 0, 64, 44
1, 165618, Note_on_c, 0, 58, 34
1, 165666, Note_on_c, 0, 72, 66
1, 165679, Note_off_c, 0, 48, 42
1, 165685, Note_off_c, 0, 64, 53
1, 165815, Note_off_c, 0, 55, 40
1, 165914, Note_off_c, 0, 58, 44
1, 166142, Note_off_c, 0, 72, 52
1, 166147, Note_on_c, 0, 70, 56
1, 166304, Note_off_c, 0, 70, 53
1, 166319, Note_on_c, 0, 67, 50
1, 166351, Control_c, 0, 64, 36
1, 166365, Control_c, 0, 64, 55
1, 166380, Control_c, 0, 64, 63
1, 166395, Control_c, 0, 64, 68
1, 166396, Note_off_c, 0, 67, 62
1, 166410, Control_c, 0, 64, 74
1, 166425, Control_c, 0, 64, 81
1, 166440, Control_c, 0, 64, 90
1, 166454, Control_c, 0, 64, 100
1, 166469, Control_c, 0, 64, 107
1, 166588, Control_c, 0, 64, 103
1, 166603, Control_c, 0, 64, 97
1, 166618, Control_c, 0, 64, 89
1, 166632, Control_c, 0, 64, 81
1, 166647, Control_c, 0, 64, 72
1, 166662, Control_c, 0, 64, 65
1, 166665, Note_on_c, 0, 67, 56
1, 166673, Note_on_c, 0, 41, 33
1, 166677, Control_c, 0, 64, 60
1, 166680, Note_on_c, 0, 57, 37
1, 166692, Control_c, 0, 64, 56
1, 166706, Control_c, 0, 64, 55
1, 166721, Control_c, 0, 64, 57
1, 166736, Control_c, 0, 64, 59
1, 166750, Control_c, 0, 64, 62
1, 166765, Control_c, 0, 64, 64
1, 166780, Control_c, 0, 64, 68
1, 166795, Control_c, 0, 64, 72
1, 166810, Control_c, 0, 64, 75
1, 166812, Note_on_c, 0, 65, 66
1, 166817, Note_off_c, 0, 41, 34
1, 166824, Control_c, 0, 64, 77
1, 166839, Control_c, 0, 64, 77
1, 166842, Note_off_c, 0, 57, 38
1, 166854, Control_c, 0, 64, 78
1, 166869, Note_off_c, 0, 67, 32
1, 166882, Note_off_c, 0, 65, 63
1, 166884, Control_c, 0, 64, 77
1, 166914, Control_c, 0, 64, 77
1, 166929, Control_c, 0, 64, 75
1, 166944, Control_c, 0, 64, 73
1, 166959, Control_c, 0, 64, 70
1, 166973, Control_c, 0, 64, 66
1, 166976, Note_on_c, 0, 45, 48
1, 166982, Note_on_c, 0, 65, 64
1, 166988, Control_c, 0, 64, 63
1, 166993, Note_on_c, 0, 60, 52
1, 167011, Control_c, 0, 64, 61
1, 167026, Control_c, 0, 64, 60
1, 167041, Control_c, 0, 64, 59
1, 167055, Control_c, 0, 64, 58
1, 167070, Control_c, 0, 64, 57
1, 167085, Control_c, 0, 64, 56
1, 167100, Control_c, 0, 64, 56
1, 167113, Note_off_c, 0, 45, 53
1, 167115, Control_c, 0, 64, 55
1, 167144, Control_c, 0, 64, 55
1, 167159, Control_c, 0, 64, 54
1, 167174, Control_c, 0, 64, 53
1, 167188, Control_c, 0, 64, 50
1, 167203, Control_c, 0, 64, 44
1, 167218, Control_c, 0, 64, 33
1, 167233, Control_c, 0, 64, 0
1, 167274, Note_on_c, 0, 48, 52
1, 167325, Note_off_c, 0, 48, 58
1, 167355, Note_off_c, 0, 60, 42
1, 167381, Control_c, 0, 64, 42
1, 167396, Control_c, 0, 64, 54
1, 167411, Note_on_c, 0, 67, 62
1, 167411, Control_c, 0, 64, 61
1, 167412, Note_on_c, 0, 64, 50
1, 167417, Note_off_c, 0, 65, 29
1, 167426, Control_c, 0, 64, 64
1, 167441, Control_c, 0, 64, 65
1, 167448, Note_off_c, 0, 64, 64
1, 167455, Control_c, 0, 64, 66
1, 167470, Control_c, 0, 64, 66
1, 167476, Note_off_c, 0, 67, 60
1, 167529, Control_c, 0, 64, 66
1, 167544, Control_c, 0, 64, 65
1, 167559, Control_c, 0, 64, 64
1, 167574, Control_c, 0, 64, 63
1, 167588, Control_c, 0, 64, 61
1, 167596, Note_on_c, 0, 67, 57
1, 167602, Note_on_c, 0, 64, 39
1, 167603, Note_on_c, 0, 53, 42
1, 167603, Control_c, 0, 64, 59
1, 167618, Control_c, 0, 64, 57
1, 167633, Control_c, 0, 64, 56
1, 167648, Control_c, 0, 64, 55
1, 167662, Control_c, 0, 64, 54
1, 167677, Control_c, 0, 64, 52
1, 167692, Control_c, 0, 64, 50
1, 167706, Control_c, 0, 64, 49
1, 167723, Control_c, 0, 64, 47
1, 167738, Control_c, 0, 64, 46
1, 167745, Note_off_c, 0, 53, 37
1, 167760, Control_c, 0, 64, 45
1, 167775, Control_c, 0, 64, 43
1, 167790, Control_c, 0, 64, 41
1, 167804, Control_c, 0, 64, 38
1, 167819, Control_c, 0, 64, 36
1, 167834, Control_c, 0, 64, 34
1, 167849, Control_c, 0, 64, 33
1, 167864, Control_c, 0, 64, 32
1, 167893, Control_c, 0, 64, 30
1, 167937, Control_c, 0, 64, 0
1, 167942, Note_on_c, 0, 41, 35
1, 168060, Note_off_c, 0, 41, 51
1, 168245, Note_off_c, 0, 64, 45
1, 168272, Note_off_c, 0, 67, 29
1, 168290, Note_on_c, 0, 69, 48
1, 168294, Note_on_c, 0, 65, 39
1, 168367, Control_c, 0, 64, 39
1, 168382, Control_c, 0, 64, 55
1, 168396, Control_c, 0, 64, 63
1, 168411, Note_off_c, 0, 65, 48
1, 168411, Control_c, 0, 64, 69
1, 168426, Control_c, 0, 64, 75
1, 168431, Note_off_c, 0, 69, 60
1, 168441, Control_c, 0, 64, 81
1, 168456, Control_c, 0, 64, 87
1, 168470, Control_c, 0, 64, 90
1, 168568, Control_c, 0, 64, 89
1, 168583, Control_c, 0, 64, 88
1, 168598, Control_c, 0, 64, 85
1, 168613, Control_c, 0, 64, 80
1, 168627, Control_c, 0, 64, 75
1, 168634, Note_on_c, 0, 70, 65
1, 168639, Note_on_c, 0, 50, 44
1, 168642, Control_c, 0, 64, 70
1, 168657, Control_c, 0, 64, 64
1, 168672, Control_c, 0, 64, 57
1, 168687, Control_c, 0, 64, 48
1, 168701, Control_c, 0, 64, 40
1, 168716, Control_c, 0, 64, 37
1, 168731, Control_c, 0, 64, 39
1, 168746, Control_c, 0, 64, 43
1, 168760, Control_c, 0, 64, 48
1, 168775, Control_c, 0, 64, 55
1, 168790, Control_c, 0, 64, 61
1, 168805, Control_c, 0, 64, 65
1, 168820, Control_c, 0, 64, 68
1, 168834, Control_c, 0, 64, 72
1, 168849, Control_c, 0, 64, 76
1, 168864, Control_c, 0, 64, 78
1, 168879, Control_c, 0, 64, 80
1, 168896, Note_off_c, 0, 70, 35
1, 168959, Note_on_c, 0, 53, 45
1, 168981, Note_on_c, 0, 58, 43
1, 168982, Control_c, 0, 64, 80
1, 168997, Control_c, 0, 64, 79
1, 169012, Control_c, 0, 64, 77
1, 169027, Control_c, 0, 64, 76
1, 169042, Control_c, 0, 64, 74
1, 169057, Control_c, 0, 64, 73
1, 169071, Control_c, 0, 64, 71
1, 169075, Note_on_c, 0, 72, 59
1, 169086, Control_c, 0, 64, 70
1, 169101, Control_c, 0, 64, 68
1, 169110, Note_off_c, 0, 50, 41
1, 169116, Control_c, 0, 64, 67
1, 169120, Note_off_c, 0, 58, 51
1, 169122, Note_on_c, 0, 70, 64
1, 169125, Note_off_c, 0, 72, 60
1, 169131, Control_c, 0, 64, 66
1, 169145, Control_c, 0, 64, 65
1, 169153, Note_off_c, 0, 70, 65
1, 169160, Control_c, 0, 64, 64
1, 169161, Note_off_c, 0, 53, 58
1, 169176, Control_c, 0, 64, 63
1, 169178, Note_on_c, 0, 69, 62
1, 169191, Control_c, 0, 64, 62
1, 169206, Control_c, 0, 64, 60
1, 169219, Note_on_c, 0, 70, 69
1, 169220, Control_c, 0, 64, 58
1, 169235, Control_c, 0, 64, 56
1, 169257, Control_c, 0, 64, 53
1, 169272, Control_c, 0, 64, 50
1, 169286, Control_c, 0, 64, 48
1, 169301, Control_c, 0, 64, 46
1, 169305, Note_on_c, 0, 72, 75
1, 169316, Control_c, 0, 64, 44
1, 169332, Control_c, 0, 64, 42
1, 169337, Note_off_c, 0, 69, 45
1, 169340, Note_off_c, 0, 70, 62
1, 169347, Control_c, 0, 64, 39
1, 169362, Control_c, 0, 64, 36
1, 169376, Control_c, 0, 64, 34
1, 169391, Control_c, 0, 64, 33
1, 169406, Control_c, 0, 64, 33
1, 169421, Control_c, 0, 64, 32
1, 169456, Note_on_c, 0, 74, 80
1, 169482, Note_off_c, 0, 72, 59
1, 169525, Control_c, 0, 64, 30
1, 169532, Note_off_c, 0, 74, 62
1, 169644, Control_c, 0, 64, 0
1, 169652, Note_on_c, 0, 74, 71
1, 169655, Note_on_c, 0, 52, 39
1, 169814, Note_on_c, 0, 72, 71
1, 169894, Note_off_c, 0, 74, 52
1, 169963, Note_on_c, 0, 71, 70
1, 169974, Note_on_c, 0, 55, 39
1, 169984, Note_on_c, 0, 60, 33
1, 169988, Note_off_c, 0, 72, 60
1, 170048, Note_off_c, 0, 52, 38
1, 170074, Note_off_c, 0, 60, 60
1, 170108, Note_off_c, 0, 55, 56
1, 170124, Note_on_c, 0, 72, 69
1, 170153, Note_off_c, 0, 71, 63
1, 170291, Note_on_c, 0, 70, 62
1, 170315, Note_off_c, 0, 72, 57
1, 170438, Note_on_c, 0, 67, 52
1, 170443, Note_off_c, 0, 70, 63
1, 170491, Note_off_c, 0, 67, 60
1, 170589, Note_on_c, 0, 68, 61
1, 170592, Note_on_c, 0, 53, 41
1, 170735, Note_on_c, 0, 69, 66
1, 170759, Note_off_c, 0, 53, 33
1, 170773, Note_off_c, 0, 68, 61
1, 170895, Note_on_c, 0, 53, 42
1, 170897, Note_on_c, 0, 70, 67
1, 170912, Note_on_c, 0, 50, 36
1, 170922, Note_off_c, 0, 69, 57
1, 171046, Note_on_c, 0, 69, 72
1, 171095, Note_off_c, 0, 70, 61
1, 171133, Note_off_c, 0, 50, 37
1, 171206, Note_on_c, 0, 72, 64
1, 171212, Note_off_c, 0, 69, 60
1, 171214, Note_on_c, 0, 55, 44
1, 171218, Note_on_c, 0, 46, 39
1, 171255, Note_off_c, 0, 53, 39
1, 171343, Note_on_c, 0, 70, 69
1, 171390, Note_off_c, 0, 46, 53
1, 171401, Note_off_c, 0, 72, 49
1, 171512, Note_on_c, 0, 48, 41
1, 171513, Note_off_c, 0, 55, 54
1, 171518, Note_on_c, 0, 69, 55
1, 171522, Note_on_c, 0, 52, 37
1, 171566, Note_off_c, 0, 70, 45
1, 171671, Note_on_c, 0, 67, 57
1, 171713, Note_off_c, 0, 69, 60
1, 171717, Note_off_c, 0, 48, 42
1, 171752, Note_off_c, 0, 52, 54
1, 171814, Note_off_c, 0, 67, 64
1, 171829, Note_on_c, 0, 65, 50
1, 171960, Note_off_c, 0, 65, 56
1, 171974, Note_on_c, 0, 64, 45
1, 172119, Note_off_c, 0, 64, 61
1, 172138, Note_on_c, 0, 62, 41
1, 172303, Note_on_c, 0, 60, 44
1, 172312, Note_off_c, 0, 62, 53
1, 172365, Note_off_c, 0, 60, 55
1, 172494, Note_on_c, 0, 80, 59
1, 172508, Note_on_c, 0, 68, 41
1, 172510, Note_on_c, 0, 53, 36
1, 172580, Control_c, 0, 64, 34
1, 172592, Note_off_c, 0, 68, 37
1, 172595, Control_c, 0, 64, 50
1, 172610, Control_c, 0, 64, 58
1, 172625, Control_c, 0, 64, 61
1, 172640, Control_c, 0, 64, 63
1, 172655, Control_c, 0, 64, 64
1, 172669, Control_c, 0, 64, 66
1, 172670, Note_on_c, 0, 57, 30
1, 172684, Control_c, 0, 64, 68
1, 172699, Control_c, 0, 64, 69
1, 172699, Note_off_c, 0, 80, 38
1, 172701, Note_on_c, 0, 81, 60
1, 172713, Note_off_c, 0, 53, 36
1, 172714, Control_c, 0, 64, 70
1, 172783, Note_off_c, 0, 81, 61
1, 172786, Note_on_c, 0, 60, 45
1, 172801, Note_off_c, 0, 57, 46
1, 172802, Control_c, 0, 64, 68
1, 172805, Poly_aftertouch_c, 0, 69, 0
1, 172817, Control_c, 0, 64, 64
1, 172832, Control_c, 0, 64, 59
1, 172846, Control_c, 0, 64, 56
1, 172861, Control_c, 0, 64, 57
1, 172864, Note_on_c, 0, 80, 72
1, 172866, Note_off_c, 0, 60, 54
1, 172876, Note_on_c, 0, 68, 61
1, 172876, Control_c, 0, 64, 59
1, 172890, Note_on_c, 0, 53, 36
1, 172891, Control_c, 0, 64, 61
1, 172906, Control_c, 0, 64, 63
1, 172920, Control_c, 0, 64, 65
1, 172935, Control_c, 0, 64, 66
1, 172950, Note_off_c, 0, 68, 60
1, 172950, Control_c, 0, 64, 68
1, 172965, Control_c, 0, 64, 69
1, 172980, Control_c, 0, 64, 70
1, 173002, Control_c, 0, 64, 70
1, 173012, Note_on_c, 0, 57, 45
1, 173017, Control_c, 0, 64, 71
1, 173020, Note_on_c, 0, 81, 76
1, 173025, Note_off_c, 0, 53, 36
1, 173032, Control_c, 0, 64, 71
1, 173035, Note_on_c, 0, 69, 52
1, 173044, Note_off_c, 0, 80, 39
1, 173061, Control_c, 0, 64, 72
1, 173069, Note_off_c, 0, 69, 64
1, 173087, Note_off_c, 0, 81, 62
1, 173102, Note_off_c, 0, 57, 59
1, 173114, Note_on_c, 0, 60, 43
1, 173120, Control_c, 0, 64, 70
1, 173135, Control_c, 0, 64, 66
1, 173150, Control_c, 0, 64, 64
1, 173165, Control_c, 0, 64, 63
1, 173167, Note_off_c, 0, 60, 60
1, 173170, Note_on_c, 0, 80, 77
1, 173180, Control_c, 0, 64, 63
1, 173186, Note_on_c, 0, 53, 43
1, 173188, Note_on_c, 0, 68, 65
1, 173195, Control_c, 0, 64, 64
1, 173209, Control_c, 0, 64, 66
1, 173224, Control_c, 0, 64, 68
1, 173238, Note_off_c, 0, 68, 57
1, 173239, Control_c, 0, 64, 73
1, 173254, Control_c, 0, 64, 77
1, 173269, Control_c, 0, 64, 82
1, 173278, Note_off_c, 0, 80, 58
1, 173284, Control_c, 0, 64, 87
1, 173285, Note_off_c, 0, 53, 56
1, 173290, Note_on_c, 0, 57, 52
1, 173299, Control_c, 0, 64, 89
1, 173314, Control_c, 0, 64, 90
1, 173316, Note_on_c, 0, 81, 81
1, 173334, Note_on_c, 0, 69, 52
1, 173359, Note_off_c, 0, 69, 60
1, 173361, Note_off_c, 0, 57, 57
1, 173388, Control_c, 0, 64, 90
1, 173394, Note_on_c, 0, 60, 45
1, 173396, Note_off_c, 0, 81, 60
1, 173403, Control_c, 0, 64, 86
1, 173418, Control_c, 0, 64, 78
1, 173433, Control_c, 0, 64, 67
1, 173448, Control_c, 0, 64, 59
1, 173452, Note_off_c, 0, 60, 57
1, 173463, Control_c, 0, 64, 48
1, 173477, Control_c, 0, 64, 37
1, 173480, Note_on_c, 0, 52, 55
1, 173483, Note_on_c, 0, 83, 82
1, 173492, Control_c, 0, 64, 29
1, 173504, Note_on_c, 0, 71, 55
1, 173507, Control_c, 0, 64, 0
1, 173522, Control_c, 0, 64, 30
1, 173537, Control_c, 0, 64, 34
1, 173538, Note_off_c, 0, 71, 55
1, 173551, Control_c, 0, 64, 41
1, 173566, Control_c, 0, 64, 50
1, 173581, Control_c, 0, 64, 55
1, 173596, Control_c, 0, 64, 58
1, 173599, Note_on_c, 0, 55, 53
1, 173611, Control_c, 0, 64, 60
1, 173619, Note_off_c, 0, 52, 53
1, 173625, Control_c, 0, 64, 63
1, 173640, Control_c, 0, 64, 65
1, 173645, Note_on_c, 0, 84, 79
1, 173655, Control_c, 0, 64, 67
1, 173666, Note_on_c, 0, 72, 51
1, 173667, Note_off_c, 0, 83, 59
1, 173669, Control_c, 0, 64, 68
1, 173684, Control_c, 0, 64, 69
1, 173695, Note_off_c, 0, 72, 63
1, 173710, Note_off_c, 0, 84, 62
1, 173714, Control_c, 0, 64, 68
1, 173715, Note_on_c, 0, 60, 43
1, 173716, Note_off_c, 0, 55, 58
1, 173729, Control_c, 0, 64, 66
1, 173751, Control_c, 0, 64, 64
1, 173766, Control_c, 0, 64, 61
1, 173779, Note_off_c, 0, 60, 58
1, 173781, Control_c, 0, 64, 58
1, 173794, Note_on_c, 0, 83, 79
1, 173796, Control_c, 0, 64, 58
1, 173799, Note_on_c, 0, 52, 47
1, 173806, Note_on_c, 0, 71, 63
1, 173811, Control_c, 0, 64, 58
1, 173825, Control_c, 0, 64, 59
1, 173840, Control_c, 0, 64, 60
1, 173851, Note_off_c, 0, 71, 54
1, 173855, Control_c, 0, 64, 62
1, 173869, Control_c, 0, 64, 64
1, 173884, Control_c, 0, 64, 65
1, 173896, Note_on_c, 0, 55, 48
1, 173899, Control_c, 0, 64, 66
1, 173901, Note_off_c, 0, 52, 55
1, 173914, Control_c, 0, 64, 67
1, 173929, Control_c, 0, 64, 67
1, 173940, Note_off_c, 0, 83, 57
1, 173942, Note_on_c, 0, 84, 73
1, 173943, Control_c, 0, 64, 68
1, 173958, Control_c, 0, 64, 68
1, 173984, Note_off_c, 0, 55, 61
1, 173988, Control_c, 0, 64, 67
1, 173998, Note_on_c, 0, 60, 48
1, 174003, Control_c, 0, 64, 63
1, 174017, Control_c, 0, 64, 56
1, 174023, Note_off_c, 0, 84, 62
1, 174032, Control_c, 0, 64, 35
1, 174047, Control_c, 0, 64, 0
1, 174068, Note_off_c, 0, 60, 56
1, 174082, Note_on_c, 0, 52, 49
1, 174101, Note_on_c, 0, 82, 63
1, 174152, Control_c, 0, 64, 38
1, 174166, Control_c, 0, 64, 52
1, 174181, Note_on_c, 0, 58, 49
1, 174181, Control_c, 0, 64, 60
1, 174193, Note_off_c, 0, 82, 58
1, 174196, Control_c, 0, 64, 63
1, 174211, Control_c, 0, 64, 64
1, 174226, Control_c, 0, 64, 66
1, 174241, Control_c, 0, 64, 67
1, 174245, Note_on_c, 0, 79, 69
1, 174256, Control_c, 0, 64, 68
1, 174261, Note_off_c, 0, 58, 53
1, 174270, Control_c, 0, 64, 69
1, 174279, Note_on_c, 0, 60, 45
1, 174285, Note_off_c, 0, 79, 64
1, 174300, Note_off_c, 0, 52, 37
1, 174300, Control_c, 0, 64, 68
1, 174315, Control_c, 0, 64, 67
1, 174330, Control_c, 0, 64, 66
1, 174339, Note_off_c, 0, 60, 54
1, 174345, Control_c, 0, 64, 62
1, 174360, Control_c, 0, 64, 52
1, 174374, Control_c, 0, 64, 0
1, 174405, Note_on_c, 0, 79, 70
1, 174411, Note_on_c, 0, 53, 41
1, 174415, Note_on_c, 0, 57, 44
1, 174499, Note_off_c, 0, 53, 59
1, 174503, Note_off_c, 0, 57, 60
1, 174565, Note_on_c, 0, 77, 67
1, 174598, Note_off_c, 0, 79, 65
1, 174624, Note_off_c, 0, 77, 64
1, 174715, Note_on_c, 0, 79, 78
1, 174721, Note_on_c, 0, 57, 58
1, 174729, Note_on_c, 0, 72, 58
1, 174793, Note_off_c, 0, 57, 63
1, 174862, Note_on_c, 0, 77, 79
1, 174873, Note_off_c, 0, 79, 64
1, 174896, Note_off_c, 0, 72, 32
1, 174932, Note_off_c, 0, 77, 62
1, 175020, Note_on_c, 0, 81, 78
1, 175021, Note_on_c, 0, 60, 55
1, 175024, Note_on_c, 0, 76, 68
1, 175059, Note_off_c, 0, 60, 66
1, 175153, Note_on_c, 0, 79, 83
1, 175159, Note_off_c, 0, 76, 29
1, 175183, Note_off_c, 0, 81, 58
1, 175219, Note_off_c, 0, 79, 66
1, 175335, Note_on_c, 0, 79, 79
1, 175344, Note_on_c, 0, 65, 50
1, 175361, Note_on_c, 0, 76, 50
1, 175499, Note_off_c, 0, 65, 41
1, 175674, Note_on_c, 0, 60, 45
1, 175706, Note_off_c, 0, 60, 63
1, 175817, Note_on_c, 0, 80, 55
1, 175826, Note_off_c, 0, 79, 60
1, 175937, Note_off_c, 0, 76, 38
1, 176002, Note_off_c, 0, 80, 54
1, 176015, Note_on_c, 0, 81, 55
1, 176026, Note_on_c, 0, 53, 36
1, 176031, Note_on_c, 0, 77, 41
1, 176101, Control_c, 0, 64, 41
1, 176104, Note_off_c, 0, 77, 49
1, 176116, Control_c, 0, 64, 57
1, 176131, Control_c, 0, 64, 65
1, 176145, Control_c, 0, 64, 71
1, 176152, Note_off_c, 0, 53, 58
1, 176160, Control_c, 0, 64, 78
1, 176164, Note_off_c, 0, 81, 57
1, 176175, Control_c, 0, 64, 88
1, 176189, Control_c, 0, 64, 103
1, 176204, Control_c, 0, 64, 127
1, 176352, Control_c, 0, 64, 122
1, 176367, Control_c, 0, 64, 104
1, 176382, Control_c, 0, 64, 97
1, 176396, Control_c, 0, 64, 92
1, 176411, Control_c, 0, 64, 87
1, 176415, Note_on_c, 0, 82, 69
1, 176421, Note_on_c, 0, 62, 45
1, 176426, Control_c, 0, 64, 78
1, 176441, Control_c, 0, 64, 69
1, 176456, Control_c, 0, 64, 59
1, 176470, Control_c, 0, 64, 45
1, 176485, Control_c, 0, 64, 31
1, 176500, Control_c, 0, 64, 0
1, 176546, Control_c, 0, 64, 32
1, 176560, Control_c, 0, 64, 38
1, 176575, Control_c, 0, 64, 47
1, 176590, Control_c, 0, 64, 55
1, 176605, Control_c, 0, 64, 59
1, 176614, Note_on_c, 0, 65, 44
1, 176619, Control_c, 0, 64, 63
1, 176634, Control_c, 0, 64, 65
1, 176646, Note_off_c, 0, 62, 39
1, 176649, Control_c, 0, 64, 67
1, 176665, Control_c, 0, 64, 71
1, 176680, Control_c, 0, 64, 75
1, 176694, Control_c, 0, 64, 78
1, 176709, Control_c, 0, 64, 82
1, 176724, Note_off_c, 0, 82, 58
1, 176724, Control_c, 0, 64, 84
1, 176747, Control_c, 0, 64, 85
1, 176775, Note_off_c, 0, 65, 62
1, 176789, Note_on_c, 0, 70, 54
1, 176865, Control_c, 0, 64, 84
1, 176875, Note_on_c, 0, 84, 69
1, 176894, Control_c, 0, 64, 83
1, 176909, Control_c, 0, 64, 83
1, 176924, Note_on_c, 0, 82, 75
1, 176924, Control_c, 0, 64, 81
1, 176931, Note_on_c, 0, 65, 52
1, 176932, Note_off_c, 0, 84, 63
1, 176939, Control_c, 0, 64, 80
1, 176950, Note_off_c, 0, 70, 40
1, 176954, Control_c, 0, 64, 79
1, 176961, Note_off_c, 0, 82, 61
1, 176968, Control_c, 0, 64, 77
1, 176976, Note_on_c, 0, 81, 73
1, 176983, Control_c, 0, 64, 75
1, 176998, Control_c, 0, 64, 73
1, 177013, Control_c, 0, 64, 70
1, 177018, Note_on_c, 0, 82, 73
1, 177028, Control_c, 0, 64, 66
1, 177043, Control_c, 0, 64, 60
1, 177058, Control_c, 0, 64, 47
1, 177072, Control_c, 0, 64, 0
1, 177081, Note_off_c, 0, 65, 44
1, 177089, Note_on_c, 0, 84, 83
1, 177091, Note_on_c, 0, 62, 47
1, 177124, Note_off_c, 0, 81, 54
1, 177132, Note_off_c, 0, 82, 62
1, 177191, Control_c, 0, 64, 31
1, 177206, Control_c, 0, 64, 48
1, 177220, Control_c, 0, 64, 60
1, 177224, Note_on_c, 0, 86, 86
1, 177235, Control_c, 0, 64, 64
1, 177248, Note_on_c, 0, 65, 47
1, 177250, Control_c, 0, 64, 66
1, 177251, Note_off_c, 0, 62, 56
1, 177260, Note_off_c, 0, 84, 62
1, 177265, Control_c, 0, 64, 68
1, 177280, Control_c, 0, 64, 70
1, 177292, Note_off_c, 0, 86, 63
1, 177294, Control_c, 0, 64, 71
1, 177370, Control_c, 0, 64, 71
1, 177384, Control_c, 0, 64, 70
1, 177399, Control_c, 0, 64, 69
1, 177401, Note_on_c, 0, 86, 80
1, 177404, Note_on_c, 0, 64, 47
1, 177413, Control_c, 0, 64, 66
1, 177427, Note_off_c, 0, 65, 51
1, 177428, Control_c, 0, 64, 62
1, 177442, Control_c, 0, 64, 58
1, 177457, Control_c, 0, 64, 56
1, 177472, Control_c, 0, 64, 55
1, 177495, Control_c, 0, 64, 54
1, 177510, Control_c, 0, 64, 54
1, 177524, Control_c, 0, 64, 52
1, 177539, Control_c, 0, 64, 51
1, 177554, Control_c, 0, 64, 49
1, 177560, Note_on_c, 0, 67, 50
1, 177562, Note_on_c, 0, 84, 85
1, 177569, Control_c, 0, 64, 49
1, 177584, Control_c, 0, 64, 48
1, 177594, Note_off_c, 0, 64, 46
1, 177613, Control_c, 0, 64, 48
1, 177624, Note_off_c, 0, 86, 57
1, 177628, Control_c, 0, 64, 47
1, 177642, Control_c, 0, 64, 47
1, 177657, Control_c, 0, 64, 46
1, 177672, Control_c, 0, 64, 46
1, 177687, Control_c, 0, 64, 45
1, 177713, Note_on_c, 0, 83, 77
1, 177716, Control_c, 0, 64, 45
1, 177720, Note_on_c, 0, 72, 49
1, 177726, Note_off_c, 0, 67, 60
1, 177731, Control_c, 0, 64, 44
1, 177743, Note_off_c, 0, 84, 62
1, 177761, Control_c, 0, 64, 44
1, 177821, Control_c, 0, 64, 43
1, 177842, Note_off_c, 0, 72, 49
1, 177860, Note_on_c, 0, 84, 76
1, 177863, Note_on_c, 0, 67, 51
1, 177872, Note_off_c, 0, 83, 61
1, 177895, Control_c, 0, 64, 43
1, 177924, Control_c, 0, 64, 42
1, 177954, Control_c, 0, 64, 42
1, 177983, Control_c, 0, 64, 41
1, 178011, Note_on_c, 0, 82, 67
1, 178018, Note_on_c, 0, 64, 36
1, 178023, Note_off_c, 0, 67, 38
1, 178050, Note_off_c, 0, 84, 59
1, 178118, Control_c, 0, 64, 41
1, 178153, Note_on_c, 0, 67, 44
1, 178158, Note_on_c, 0, 79, 67
1, 178172, Note_off_c, 0, 82, 57
1, 178173, Note_off_c, 0, 64, 37
1, 178177, Control_c, 0, 64, 40
1, 178199, Note_off_c, 0, 79, 64
1, 178240, Note_off_c, 0, 67, 53
1, 178259, Control_c, 0, 64, 40
1, 178317, Note_on_c, 0, 65, 57
1, 178318, Note_on_c, 0, 80, 69
1, 178372, Note_off_c, 0, 65, 52
1, 178457, Note_on_c, 0, 81, 79
1, 178480, Control_c, 0, 64, 39
1, 178492, Note_off_c, 0, 80, 62
1, 178569, Control_c, 0, 64, 39
1, 178599, Control_c, 0, 64, 38
1, 178608, Note_on_c, 0, 84, 79
1, 178614, Control_c, 0, 64, 38
1, 178616, Note_on_c, 0, 67, 45
1, 178624, Note_on_c, 0, 58, 45
1, 178626, Note_off_c, 0, 81, 59
1, 178673, Control_c, 0, 64, 37
1, 178703, Note_off_c, 0, 58, 57
1, 178747, Note_on_c, 0, 82, 80
1, 178804, Note_off_c, 0, 67, 38
1, 178806, Control_c, 0, 64, 37
1, 178825, Note_off_c, 0, 84, 39
1, 178865, Control_c, 0, 64, 36
1, 178880, Control_c, 0, 64, 36
1, 178895, Control_c, 0, 64, 35
1, 178898, Note_on_c, 0, 60, 48
1, 178905, Note_on_c, 0, 79, 77
1, 178911, Control_c, 0, 64, 33
1, 178921, Note_on_c, 0, 70, 29
1, 178926, Control_c, 0, 64, 30
1, 178933, Note_off_c, 0, 82, 56
1, 178941, Control_c, 0, 64, 0
1, 178950, Note_off_c, 0, 60, 52
1, 178959, Note_off_c, 0, 70, 52
1, 179049, Note_on_c, 0, 76, 70
1, 179049, Note_off_c, 0, 79, 63
1, 179186, Note_off_c, 0, 76, 41
1, 179192, Note_on_c, 0, 77, 68
1, 179193, Note_on_c, 0, 65, 52
1, 179195, Note_on_c, 0, 69, 42
1, 179225, Note_off_c, 0, 69, 60
1, 179228, Note_off_c, 0, 65, 65
1, 179288, Control_c, 0, 67, 19
1, 179303, Control_c, 0, 67, 23
1, 179317, Note_off_c, 0, 77, 65
1, 179318, Control_c, 0, 67, 28
1, 179333, Control_c, 0, 67, 34
1, 179347, Note_on_c, 0, 72, 62
1, 179348, Control_c, 0, 67, 40
1, 179362, Control_c, 0, 67, 45
1, 179373, Note_off_c, 0, 72, 68
1, 179377, Control_c, 0, 67, 49
1, 179392, Control_c, 0, 67, 51
1, 179407, Control_c, 0, 67, 52
1, 179421, Control_c, 0, 67, 53
1, 179451, Control_c, 0, 67, 54
1, 179493, Note_on_c, 0, 69, 49
1, 179526, Control_c, 0, 67, 53
1, 179541, Note_off_c, 0, 69, 55
1, 179600, Control_c, 0, 67, 53
1, 179614, Control_c, 0, 67, 52
1, 179629, Control_c, 0, 67, 52
1, 179644, Control_c, 0, 67, 51
1, 179646, Note_on_c, 0, 72, 45
1, 179673, Note_off_c, 0, 72, 52
1, 179689, Control_c, 0, 67, 51
1, 179705, Control_c, 0, 67, 50
1, 179757, Control_c, 0, 67, 50
1, 179797, Note_on_c, 0, 65, 50
1, 179845, Control_c, 0, 67, 49
1, 179853, Note_off_c, 0, 65, 62
1, 179947, Note_on_c, 0, 72, 54
1, 179975, Note_off_c, 0, 72, 63
1, 179979, Control_c, 0, 67, 49
1, 180083, Note_on_c, 0, 67, 53
1, 180083, Note_on_c, 0, 72, 62
1, 180097, Note_on_c, 0, 70, 61
1, 180107, Note_off_c, 0, 67, 64
1, 180115, Note_off_c, 0, 72, 63
1, 180127, Note_off_c, 0, 70, 67
1, 180227, Note_on_c, 0, 72, 64
1, 180229, Note_on_c, 0, 70, 61
1, 180256, Note_off_c, 0, 72, 67
1, 180263, Note_off_c, 0, 70, 63
1, 180374, Note_on_c, 0, 64, 59
1, 180408, Note_off_c, 0, 64, 64
1, 180530, Note_on_c, 0, 72, 53
1, 180533, Note_on_c, 0, 70, 55
1, 180565, Note_off_c, 0, 72, 66
1, 180569, Note_off_c, 0, 70, 66
1, 180609, Control_c, 0, 67, 49
1, 180624, Control_c, 0, 67, 51
1, 180639, Control_c, 0, 67, 53
1, 180654, Control_c, 0, 67, 54
1, 180668, Control_c, 0, 67, 56
1, 180676, Note_on_c, 0, 60, 54
1, 180683, Control_c, 0, 67, 58
1, 180698, Control_c, 0, 67, 70
1, 180706, Note_off_c, 0, 60, 66
1, 180713, Control_c, 0, 67, 86
1, 180728, Control_c, 0, 67, 102
1, 180742, Control_c, 0, 67, 115
1, 180757, Control_c, 0, 67, 126
1, 180817, Note_on_c, 0, 72, 51
1, 180818, Note_on_c, 0, 70, 51
1, 180849, Note_off_c, 0, 72, 64
1, 180852, Note_off_c, 0, 70, 65
1, 180962, Note_on_c, 0, 53, 45
1, 180966, Note_on_c, 0, 72, 52
1, 180971, Note_on_c, 0, 68, 55
1, 181001, Note_off_c, 0, 72, 64
1, 181002, Note_off_c, 0, 68, 66
1, 181003, Note_off_c, 0, 53, 63
1, 181109, Note_on_c, 0, 68, 52
1, 181112, Note_on_c, 0, 72, 57
1, 181146, Note_off_c, 0, 68, 64
1, 181146, Note_off_c, 0, 72, 62
1, 181257, Note_on_c, 0, 56, 63
1, 181292, Note_off_c, 0, 56, 65
1, 181419, Note_on_c, 0, 68, 47
1, 181419, Note_on_c, 0, 72, 45
1, 181447, Note_off_c, 0, 68, 60
1, 181448, Note_off_c, 0, 72, 62
1, 181562, Note_on_c, 0, 53, 55
1, 181591, Note_off_c, 0, 53, 64
1, 181697, Note_on_c, 0, 68, 52
1, 181699, Note_on_c, 0, 72, 46
1, 181729, Note_off_c, 0, 68, 66
1, 181730, Note_off_c, 0, 72, 64
1, 181839, Note_on_c, 0, 70, 59
1, 181840, Note_on_c, 0, 72, 54
1, 181873, Note_off_c, 0, 70, 65
1, 181875, Note_off_c, 0, 72, 66
1, 181986, Note_on_c, 0, 70, 61
1, 181997, Note_on_c, 0, 72, 51
1, 182020, Note_off_c, 0, 70, 64
1, 182030, Note_off_c, 0, 72, 65
1, 182116, Note_on_c, 0, 52, 68
1, 182147, Note_off_c, 0, 52, 66
1, 182265, Note_on_c, 0, 70, 61
1, 182269, Note_on_c, 0, 72, 53
1, 182303, Note_off_c, 0, 70, 62
1, 182306, Note_off_c, 0, 72, 62
1, 182388, Control_c, 0, 67, 124
1, 182402, Note_on_c, 0, 48, 64
1, 182403, Control_c, 0, 67, 121
1, 182418, Control_c, 0, 67, 118
1, 182432, Control_c, 0, 67, 108
1, 182433, Note_off_c, 0, 48, 66
1, 182447, Control_c, 0, 67, 94
1, 182462, Control_c, 0, 67, 78
1, 182477, Control_c, 0, 67, 60
1, 182492, Control_c, 0, 67, 48
1, 182507, Control_c, 0, 67, 42
1, 182522, Control_c, 0, 67, 40
1, 182536, Control_c, 0, 67, 39
1, 182555, Note_on_c, 0, 72, 55
1, 182558, Note_on_c, 0, 70, 47
1, 182581, Note_off_c, 0, 70, 61
1, 182591, Note_off_c, 0, 72, 63
1, 182685, Control_c, 0, 67, 38
1, 182689, Note_on_c, 0, 41, 74
1, 182691, Note_on_c, 0, 53, 76
1, 182696, Note_on_c, 0, 72, 69
1, 182699, Control_c, 0, 64, 39
1, 182699, Control_c, 0, 67, 37
1, 182700, Note_on_c, 0, 68, 71
1, 182714, Control_c, 0, 64, 60
1, 182714, Control_c, 0, 67, 35
1, 182721, Note_off_c, 0, 53, 66
1, 182724, Note_off_c, 0, 41, 66
1, 182736, Control_c, 0, 64, 71
1, 182736, Control_c, 0, 67, 30
1, 182739, Note_off_c, 0, 68, 64
1, 182741, Note_off_c, 0, 72, 63
1, 182751, Control_c, 0, 64, 84
1, 182751, Control_c, 0, 67, 26
1, 182766, Control_c, 0, 64, 96
1, 182766, Control_c, 0, 67, 23
1, 182796, Control_c, 0, 64, 88
1, 182811, Control_c, 0, 64, 69
1, 182826, Control_c, 0, 64, 51
1, 182840, Control_c, 0, 64, 0
1, 182848, Note_on_c, 0, 72, 65
1, 182857, Note_on_c, 0, 68, 53
1, 182874, Note_off_c, 0, 72, 68
1, 182880, Note_off_c, 0, 68, 62
1, 183001, Note_on_c, 0, 56, 59
1, 183031, Note_off_c, 0, 56, 63
1, 183131, Note_on_c, 0, 72, 55
1, 183135, Note_on_c, 0, 68, 55
1, 183168, Note_off_c, 0, 72, 64
1, 183170, Note_off_c, 0, 68, 64
1, 183282, Note_on_c, 0, 60, 57
1, 183309, Note_off_c, 0, 60, 66
1, 183409, Note_on_c, 0, 72, 59
1, 183425, Note_on_c, 0, 68, 54
1, 183441, Note_off_c, 0, 72, 66
1, 183449, Note_off_c, 0, 68, 62
1, 183550, Note_on_c, 0, 58, 81
1, 183554, Note_on_c, 0, 46, 73
1, 183561, Note_on_c, 0, 68, 71
1, 183565, Note_on_c, 0, 73, 72
1, 183574, Control_c, 0, 64, 44
1, 183584, Note_off_c, 0, 46, 69
1, 183589, Control_c, 0, 64, 61
1, 183598, Note_off_c, 0, 58, 61
1, 183598, Note_off_c, 0, 68, 64
1, 183600, Note_off_c, 0, 73, 63
1, 183604, Control_c, 0, 64, 71
1, 183619, Control_c, 0, 64, 80
1, 183633, Control_c, 0, 64, 86
1, 183648, Control_c, 0, 64, 87
1, 183663, Control_c, 0, 64, 84
1, 183678, Control_c, 0, 64, 74
1, 183693, Control_c, 0, 64, 63
1, 183701, Note_on_c, 0, 73, 60
1, 183708, Control_c, 0, 64, 47
1, 183710, Note_on_c, 0, 68, 51
1, 183723, Control_c, 0, 64, 37
1, 183734, Note_off_c, 0, 73, 64
1, 183738, Note_off_c, 0, 68, 61
1, 183738, Control_c, 0, 64, 30
1, 183753, Control_c, 0, 64, 0
1, 183859, Note_on_c, 0, 61, 52
1, 183887, Note_off_c, 0, 61, 58
1, 183986, Note_on_c, 0, 73, 57
1, 183988, Note_on_c, 0, 68, 53
1, 184019, Note_off_c, 0, 68, 65
1, 184020, Note_off_c, 0, 73, 65
1, 184108, Control_c, 0, 67, 21
1, 184149, Note_on_c, 0, 65, 47
1, 184176, Note_off_c, 0, 65, 54
1, 184277, Note_on_c, 0, 73, 57
1, 184289, Note_on_c, 0, 68, 49
1, 184313, Note_off_c, 0, 73, 61
1, 184315, Note_off_c, 0, 68, 61
1, 184412, Note_on_c, 0, 51, 80
1, 184412, Control_c, 0, 64, 47
1, 184418, Note_on_c, 0, 39, 75
1, 184418, Note_on_c, 0, 73, 79
1, 184419, Note_on_c, 0, 67, 76
1, 184427, Control_c, 0, 64, 63
1, 184442, Control_c, 0, 64, 72
1, 184452, Note_off_c, 0, 39, 65
1, 184457, Note_off_c, 0, 51, 59
1, 184457, Control_c, 0, 64, 84
1, 184468, Note_off_c, 0, 67, 61
1, 184472, Note_off_c, 0, 73, 62
1, 184472, Control_c, 0, 64, 90
1, 184486, Control_c, 0, 64, 91
1, 184502, Control_c, 0, 64, 88
1, 184517, Control_c, 0, 64, 79
1, 184532, Control_c, 0, 64, 69
1, 184547, Control_c, 0, 64, 58
1, 184561, Control_c, 0, 64, 34
1, 184565, Note_on_c, 0, 67, 61
1, 184565, Note_on_c, 0, 73, 62
1, 184576, Control_c, 0, 64, 0
1, 184596, Note_off_c, 0, 73, 61
1, 184601, Note_off_c, 0, 67, 64
1, 184716, Note_on_c, 0, 55, 62
1, 184748, Note_off_c, 0, 55, 65
1, 184828, Control_c, 0, 67, 19
1, 184852, Note_on_c, 0, 67, 54
1, 184856, Note_on_c, 0, 73, 57
1, 184888, Note_off_c, 0, 67, 64
1, 184888, Note_off_c, 0, 73, 64
1, 185014, Note_on_c, 0, 58, 60
1, 185045, Note_off_c, 0, 58, 66
1, 185144, Note_on_c, 0, 73, 62
1, 185148, Note_on_c, 0, 67, 54
1, 185183, Note_off_c, 0, 67, 64
1, 185185, Note_off_c, 0, 73, 60
1, 185206, Control_c, 0, 67, 0
1, 185282, Note_on_c, 0, 56, 76
1, 185284, Note_on_c, 0, 72, 71
1, 185286, Note_on_c, 0, 67, 60
1, 185287, Note_on_c, 0, 44, 75
1, 185311, Control_c, 0, 64, 46
1, 185321, Note_off_c, 0, 56, 60
1, 185322, Note_off_c, 0, 44, 67
1, 185325, Control_c, 0, 64, 61
1, 185329, Note_off_c, 0, 67, 62
1, 185330, Note_off_c, 0, 72, 63
1, 185340, Control_c, 0, 64, 69
1, 185355, Control_c, 0, 64, 81
1, 185370, Control_c, 0, 64, 101
1, 185384, Control_c, 0, 64, 127
1, 185414, Control_c, 0, 64, 103
1, 185425, Note_on_c, 0, 72, 69
1, 185429, Control_c, 0, 64, 80
1, 185440, Note_on_c, 0, 67, 61
1, 185444, Control_c, 0, 64, 64
1, 185451, Note_off_c, 0, 72, 66
1, 185458, Control_c, 0, 64, 47
1, 185459, Note_off_c, 0, 67, 65
1, 185473, Control_c, 0, 64, 0
1, 185589, Note_on_c, 0, 60, 49
1, 185618, Note_off_c, 0, 60, 64
1, 185706, Note_on_c, 0, 67, 56
1, 185712, Note_on_c, 0, 72, 53
1, 185747, Note_off_c, 0, 72, 60
1, 185749, Note_off_c, 0, 67, 64
1, 185866, Note_on_c, 0, 63, 66
1, 185896, Note_off_c, 0, 63, 65
1, 185994, Note_on_c, 0, 72, 60
1, 185996, Note_on_c, 0, 67, 54
1, 186029, Note_off_c, 0, 72, 62
1, 186031, Note_off_c, 0, 67, 65
1, 186134, Note_on_c, 0, 49, 81
1, 186139, Note_on_c, 0, 37, 77
1, 186141, Note_on_c, 0, 65, 72
1, 186142, Note_on_c, 0, 72, 71
1, 186147, Control_c, 0, 64, 40
1, 186162, Control_c, 0, 64, 58
1, 186177, Control_c, 0, 64, 68
1, 186184, Note_off_c, 0, 72, 61
1, 186186, Note_off_c, 0, 37, 60
1, 186189, Note_off_c, 0, 49, 63
1, 186191, Note_off_c, 0, 65, 62
1, 186192, Control_c, 0, 64, 84
1, 186206, Control_c, 0, 64, 112
1, 186221, Control_c, 0, 64, 127
1, 186251, Control_c, 0, 64, 109
1, 186266, Control_c, 0, 64, 83
1, 186280, Note_on_c, 0, 72, 63
1, 186280, Control_c, 0, 64, 67
1, 186290, Note_on_c, 0, 65, 60
1, 186295, Control_c, 0, 64, 53
1, 186309, Note_off_c, 0, 72, 63
1, 186310, Control_c, 0, 64, 42
1, 186319, Note_off_c, 0, 65, 65
1, 186325, Control_c, 0, 64, 35
1, 186340, Control_c, 0, 64, 0
1, 186449, Note_on_c, 0, 61, 64
1, 186487, Note_off_c, 0, 61, 65
1, 186580, Note_on_c, 0, 72, 61
1, 186589, Note_on_c, 0, 65, 55
1, 186628, Note_off_c, 0, 72, 59
1, 186631, Note_off_c, 0, 65, 62
1, 186703, Control_c, 0, 64, 31
1, 186715, Note_on_c, 0, 55, 81
1, 186717, Note_on_c, 0, 43, 80
1, 186718, Control_c, 0, 64, 50
1, 186724, Note_on_c, 0, 70, 74
1, 186732, Control_c, 0, 64, 64
1, 186733, Note_on_c, 0, 65, 72
1, 186747, Control_c, 0, 64, 76
1, 186762, Note_off_c, 0, 43, 61
1, 186762, Control_c, 0, 64, 101
1, 186766, Note_off_c, 0, 55, 63
1, 186772, Note_off_c, 0, 65, 60
1, 186775, Note_off_c, 0, 70, 62
1, 186777, Control_c, 0, 64, 127
1, 186836, Control_c, 0, 64, 102
1, 186849, Note_on_c, 0, 70, 68
1, 186850, Control_c, 0, 64, 80
1, 186865, Note_on_c, 0, 65, 63
1, 186865, Control_c, 0, 64, 68
1, 186880, Control_c, 0, 64, 61
1, 186887, Note_off_c, 0, 70, 65
1, 186896, Control_c, 0, 64, 53
1, 186898, Note_off_c, 0, 65, 60
1, 186911, Control_c, 0, 64, 47
1, 186926, Control_c, 0, 64, 42
1, 186941, Control_c, 0, 64, 37
1, 186955, Control_c, 0, 64, 31
1, 186970, Control_c, 0, 64, 0
1, 187016, Note_on_c, 0, 67, 76
1, 187046, Note_off_c, 0, 67, 63
1, 187145, Note_on_c, 0, 65, 61
1, 187145, Note_on_c, 0, 70, 59
1, 187194, Note_off_c, 0, 65, 62
1, 187194, Note_off_c, 0, 70, 60
1, 187295, Note_on_c, 0, 36, 83
1, 187296, Note_on_c, 0, 48, 81
1, 187308, Note_on_c, 0, 64, 68
1, 187318, Note_on_c, 0, 70, 69
1, 187319, Control_c, 0, 64, 46
1, 187329, Note_off_c, 0, 36, 65
1, 187333, Note_off_c, 0, 48, 62
1, 187334, Control_c, 0, 64, 61
1, 187348, Control_c, 0, 64, 70
1, 187351, Note_off_c, 0, 70, 64
1, 187354, Note_off_c, 0, 64, 60
1, 187363, Control_c, 0, 64, 84
1, 187378, Control_c, 0, 64, 108
1, 187393, Control_c, 0, 64, 127
1, 187422, Control_c, 0, 64, 114
1, 187437, Control_c, 0, 64, 92
1, 187444, Note_on_c, 0, 70, 78
1, 187451, Note_on_c, 0, 64, 64
1, 187452, Control_c, 0, 64, 78
1, 187467, Control_c, 0, 64, 69
1, 187482, Control_c, 0, 64, 63
1, 187483, Note_off_c, 0, 64, 64
1, 187485, Note_off_c, 0, 70, 59
1, 187497, Control_c, 0, 64, 57
1, 187512, Control_c, 0, 64, 51
1, 187526, Control_c, 0, 64, 44
1, 187541, Control_c, 0, 64, 36
1, 187556, Control_c, 0, 64, 0
1, 187618, Note_on_c, 0, 60, 73
1, 187778, Note_on_c, 0, 70, 75
1, 187779, Note_on_c, 0, 64, 64
1, 187950, Note_on_c, 0, 61, 75
1, 187986, Note_off_c, 0, 60, 48
1, 187992, Note_off_c, 0, 64, 58
1, 188004, Note_off_c, 0, 70, 54
1, 188135, Note_on_c, 0, 68, 65
1, 188135, Note_on_c, 0, 65, 62
1, 188295, Note_on_c, 0, 60, 61
1, 188316, Note_off_c, 0, 65, 58
1, 188324, Note_off_c, 0, 68, 58
1, 188382, Note_off_c, 0, 61, 47
1, 188448, Note_on_c, 0, 68, 60
1, 188451, Note_on_c, 0, 65, 55
1, 188593, Note_on_c, 0, 59, 59
1, 188618, Note_off_c, 0, 65, 56
1, 188621, Note_off_c, 0, 68, 54
1, 188648, Note_off_c, 0, 60, 58
1, 188750, Note_on_c, 0, 68, 58
1, 188755, Note_on_c, 0, 65, 59
1, 188800, Note_off_c, 0, 65, 63
1, 188811, Note_off_c, 0, 68, 61
1, 188889, Note_on_c, 0, 60, 50
1, 188907, Note_off_c, 0, 59, 54
1, 188908, Note_on_c, 0, 64, 49
1, 188916, Note_on_c, 0, 67, 52
1, 188951, Note_off_c, 0, 67, 65
1, 189054, Note_off_c, 0, 64, 51
1, 189060, Note_on_c, 0, 72, 69
1, 189065, Note_on_c, 0, 68, 58
1, 189190, Note_off_c, 0, 60, 38
1, 189210, Note_on_c, 0, 70, 70
1, 189213, Note_on_c, 0, 67, 68
1, 189232, Note_off_c, 0, 72, 60
1, 189235, Note_off_c, 0, 68, 60
1, 189274, Note_off_c, 0, 70, 64
1, 189352, Note_on_c, 0, 68, 70
1, 189354, Note_on_c, 0, 65, 62
1, 189373, Note_off_c, 0, 67, 60
1, 189509, Note_on_c, 0, 64, 57
1, 189511, Note_on_c, 0, 67, 62
1, 189522, Note_off_c, 0, 65, 60
1, 189540, Note_off_c, 0, 68, 57
1, 189655, Note_on_c, 0, 59, 49
1, 189656, Note_off_c, 0, 67, 60
1, 189661, Note_on_c, 0, 65, 57
1, 189661, Note_on_c, 0, 68, 61
1, 189664, Note_off_c, 0, 64, 58
1, 189765, Note_off_c, 0, 65, 48
1, 189768, Note_off_c, 0, 68, 46
1, 189811, Note_off_c, 0, 59, 37
1, 189813, Note_on_c, 0, 64, 53
1, 189816, Note_on_c, 0, 67, 52
1, 189819, Note_on_c, 0, 60, 43
1, 189851, Note_off_c, 0, 67, 65
1, 189953, Note_off_c, 0, 64, 47
1, 189963, Note_on_c, 0, 72, 51
1, 189967, Note_on_c, 0, 68, 46
1, 190111, Note_on_c, 0, 70, 56
1, 190112, Note_off_c, 0, 72, 39
1, 190117, Note_on_c, 0, 67, 56
1, 190124, Note_off_c, 0, 68, 49
1, 190159, Note_off_c, 0, 70, 63
1, 190173, Note_off_c, 0, 60, 36
1, 190259, Note_on_c, 0, 68, 57
1, 190263, Note_off_c, 0, 67, 58
1, 190271, Note_on_c, 0, 65, 55
1, 190299, Control_c, 0, 67, 19
1, 190388, Control_c, 0, 67, 22
1, 190414, Note_off_c, 0, 65, 46
1, 190418, Control_c, 0, 67, 26
1, 190424, Note_on_c, 0, 67, 53
1, 190426, Note_off_c, 0, 68, 56
1, 190435, Note_on_c, 0, 64, 37
1, 190565, Control_c, 0, 67, 24
1, 190582, Note_on_c, 0, 65, 45
1, 190583, Note_on_c, 0, 59, 36
1, 190588, Note_off_c, 0, 64, 45
1, 190588, Note_on_c, 0, 68, 53
1, 190609, Note_off_c, 0, 67, 39
1, 190624, Control_c, 0, 67, 22
1, 190745, Note_on_c, 0, 64, 39
1, 190755, Note_off_c, 0, 65, 32
1, 190758, Note_on_c, 0, 67, 46
1, 190761, Note_on_c, 0, 60, 40
1, 190763, Note_off_c, 0, 59, 37
1, 190769, Note_off_c, 0, 68, 57
1, 190907, Note_on_c, 0, 68, 57
1, 190907, Note_on_c, 0, 59, 34
1, 190907, Note_on_c, 0, 65, 47
1, 190907, Control_c, 0, 67, 20
1, 190915, Note_off_c, 0, 64, 60
1, 190918, Note_off_c, 0, 60, 39
1, 190919, Note_off_c, 0, 67, 56
1, 191064, Note_on_c, 0, 64, 54
1, 191065, Note_on_c, 0, 67, 56
1, 191068, Note_off_c, 0, 59, 51
1, 191073, Note_on_c, 0, 60, 39
1, 191078, Note_off_c, 0, 65, 36
1, 191100, Note_off_c, 0, 68, 60
1, 191200, Note_off_c, 0, 60, 53
1, 191214, Note_on_c, 0, 59, 39
1, 191218, Note_on_c, 0, 65, 51
1, 191218, Note_on_c, 0, 68, 66
1, 191219, Note_off_c, 0, 67, 58
1, 191224, Note_off_c, 0, 64, 58
1, 191354, Note_off_c, 0, 59, 53
1, 191364, Note_on_c, 0, 64, 52
1, 191368, Note_on_c, 0, 67, 51
1, 191372, Note_off_c, 0, 65, 44
1, 191375, Note_on_c, 0, 60, 32
1, 191382, Note_off_c, 0, 68, 58
1, 191511, Note_off_c, 0, 67, 53
1, 191512, Note_off_c, 0, 60, 37
1, 191517, Note_on_c, 0, 68, 57
1, 191522, Note_on_c, 0, 59, 32
1, 191524, Note_on_c, 0, 65, 44
1, 191535, Note_off_c, 0, 64, 51
1, 191615, Note_off_c, 0, 65, 52
1, 191625, Control_c, 0, 67, 0
1, 191659, Note_off_c, 0, 59, 32
1, 191719, Note_on_c, 0, 67, 52
1, 191730, Note_on_c, 0, 64, 38
1, 191739, Note_off_c, 0, 68, 36
1, 191741, Note_on_c, 0, 60, 32
1, 191765, Note_off_c, 0, 64, 63
1, 191767, Control_c, 0, 64, 34
1, 191782, Control_c, 0, 64, 51
1, 191797, Control_c, 0, 64, 59
1, 191812, Control_c, 0, 64, 62
1, 191825, Note_off_c, 0, 67, 48
1, 191826, Control_c, 0, 64, 63
1, 191841, Control_c, 0, 64, 64
1, 191897, Note_on_c, 0, 66, 56
1, 191908, Note_on_c, 0, 63, 43
1, 191944, Control_c, 0, 64, 64
1, 191957, Note_off_c, 0, 63, 59
1, 191974, Control_c, 0, 64, 63
1, 191989, Control_c, 0, 64, 63
1, 192034, Control_c, 0, 64, 62
1, 192036, Note_off_c, 0, 60, 45
1, 192046, Note_off_c, 0, 66, 58
1, 192049, Control_c, 0, 64, 62
1, 192063, Note_on_c, 0, 67, 66
1, 192063, Control_c, 0, 64, 61
1, 192066, Note_on_c, 0, 64, 54
1, 192078, Control_c, 0, 64, 60
1, 192093, Control_c, 0, 64, 59
1, 192108, Control_c, 0, 64, 59
1, 192123, Control_c, 0, 64, 58
1, 192137, Control_c, 0, 64, 57
1, 192152, Control_c, 0, 64, 56
1, 192167, Control_c, 0, 64, 56
1, 192182, Control_c, 0, 64, 55
1, 192196, Control_c, 0, 64, 55
1, 192205, Note_off_c, 0, 64, 57
1, 192208, Note_on_c, 0, 66, 65
1, 192211, Control_c, 0, 64, 54
1, 192212, Note_on_c, 0, 69, 69
1, 192214, Note_off_c, 0, 67, 64
1, 192226, Control_c, 0, 64, 53
1, 192241, Control_c, 0, 64, 52
1, 192256, Control_c, 0, 64, 51
1, 192270, Control_c, 0, 64, 50
1, 192285, Control_c, 0, 64, 49
1, 192300, Control_c, 0, 64, 48
1, 192315, Control_c, 0, 64, 47
1, 192330, Control_c, 0, 64, 44
1, 192344, Control_c, 0, 64, 41
1, 192351, Note_off_c, 0, 69, 63
1, 192356, Note_on_c, 0, 70, 74
1, 192356, Note_off_c, 0, 66, 62
1, 192359, Control_c, 0, 64, 36
1, 192362, Note_on_c, 0, 67, 66
1, 192374, Control_c, 0, 64, 30
1, 192388, Control_c, 0, 64, 0
1, 192505, Note_on_c, 0, 72, 75
1, 192508, Note_on_c, 0, 69, 64
1, 192514, Note_off_c, 0, 70, 64
1, 192540, Note_off_c, 0, 67, 39
1, 192596, Note_off_c, 0, 69, 59
1, 192686, Note_on_c, 0, 74, 71
1, 192686, Note_off_c, 0, 72, 63
1, 192694, Note_on_c, 0, 70, 56
1, 192701, Note_on_c, 0, 58, 49
1, 192782, Control_c, 0, 64, 39
1, 192797, Control_c, 0, 64, 55
1, 192812, Control_c, 0, 64, 64
1, 192827, Control_c, 0, 64, 71
1, 192839, Note_off_c, 0, 70, 30
1, 192841, Control_c, 0, 64, 79
1, 192854, Note_off_c, 0, 74, 56
1, 192856, Control_c, 0, 64, 91
1, 192859, Note_off_c, 0, 58, 55
1, 192871, Control_c, 0, 64, 120
1, 192886, Control_c, 0, 64, 127
1, 193005, Control_c, 0, 64, 89
1, 193019, Control_c, 0, 64, 69
1, 193032, Note_on_c, 0, 74, 74
1, 193034, Control_c, 0, 64, 54
1, 193039, Note_on_c, 0, 70, 58
1, 193044, Note_on_c, 0, 65, 57
1, 193044, Note_on_c, 0, 58, 45
1, 193049, Control_c, 0, 64, 37
1, 193064, Control_c, 0, 64, 34
1, 193079, Control_c, 0, 64, 41
1, 193093, Control_c, 0, 64, 51
1, 193108, Control_c, 0, 64, 60
1, 193123, Control_c, 0, 64, 66
1, 193138, Control_c, 0, 64, 73
1, 193153, Control_c, 0, 64, 85
1, 193167, Control_c, 0, 64, 117
1, 193170, Note_off_c, 0, 65, 58
1, 193181, Note_off_c, 0, 70, 55
1, 193182, Control_c, 0, 64, 127
1, 193188, Note_off_c, 0, 74, 62
1, 193194, Note_off_c, 0, 58, 50
1, 193264, Control_c, 0, 64, 92
1, 193279, Control_c, 0, 64, 73
1, 193295, Control_c, 0, 64, 62
1, 193309, Control_c, 0, 64, 51
1, 193324, Control_c, 0, 64, 43
1, 193339, Note_on_c, 0, 74, 77
1, 193339, Control_c, 0, 64, 41
1, 193339, Note_on_c, 0, 58, 56
1, 193345, Note_on_c, 0, 70, 62
1, 193351, Note_on_c, 0, 65, 57
1, 193354, Control_c, 0, 64, 43
1, 193369, Control_c, 0, 64, 49
1, 193384, Control_c, 0, 64, 55
1, 193398, Control_c, 0, 64, 62
1, 193413, Control_c, 0, 64, 68
1, 193428, Control_c, 0, 64, 78
1, 193442, Control_c, 0, 64, 94
1, 193451, Note_off_c, 0, 65, 59
1, 193457, Control_c, 0, 64, 127
1, 193462, Note_off_c, 0, 70, 57
1, 193469, Note_off_c, 0, 74, 62
1, 193479, Note_off_c, 0, 58, 54
1, 193590, Control_c, 0, 64, 112
1, 193605, Control_c, 0, 64, 91
1, 193620, Control_c, 0, 64, 78
1, 193634, Control_c, 0, 64, 68
1, 193649, Control_c, 0, 64, 62
1, 193664, Control_c, 0, 64, 54
1, 193677, Note_on_c, 0, 74, 77
1, 193679, Control_c, 0, 64, 47
1, 193684, Note_on_c, 0, 70, 60
1, 193693, Note_on_c, 0, 58, 47
1, 193694, Control_c, 0, 64, 38
1, 193699, Note_on_c, 0, 65, 51
1, 193709, Control_c, 0, 64, 0
1, 194013, Control_c, 0, 64, 29
1, 194028, Control_c, 0, 64, 45
1, 194042, Control_c, 0, 64, 56
1, 194057, Control_c, 0, 64, 62
1, 194072, Control_c, 0, 64, 66
1, 194087, Control_c, 0, 64, 68
1, 194102, Control_c, 0, 64, 70
1, 194117, Control_c, 0, 64, 72
1, 194132, Note_off_c, 0, 58, 59
1, 194132, Control_c, 0, 64, 75
1, 194147, Control_c, 0, 64, 76
1, 194162, Control_c, 0, 64, 77
1, 194213, Note_off_c, 0, 70, 59
1, 194221, Control_c, 0, 64, 76
1, 194236, Control_c, 0, 64, 75
1, 194251, Control_c, 0, 64, 69
1, 194265, Control_c, 0, 64, 59
1, 194280, Control_c, 0, 64, 44
1, 194294, Note_off_c, 0, 65, 32
1, 194295, Control_c, 0, 64, 0
1, 194300, Note_off_c, 0, 74, 50
1, 194304, Note_on_c, 0, 72, 52
1, 194306, Note_on_c, 0, 53, 42
1, 194317, Note_on_c, 0, 69, 42
1, 194354, Control_c, 0, 64, 39
1, 194369, Control_c, 0, 64, 57
1, 194375, Note_off_c, 0, 53, 61
1, 194383, Control_c, 0, 64, 66
1, 194398, Control_c, 0, 64, 74
1, 194411, Note_off_c, 0, 69, 57
1, 194413, Control_c, 0, 64, 85
1, 194424, Note_off_c, 0, 72, 59
1, 194428, Control_c, 0, 64, 94
1, 194443, Control_c, 0, 64, 100
1, 194457, Control_c, 0, 64, 102
1, 194532, Control_c, 0, 64, 99
1, 194547, Control_c, 0, 64, 94
1, 194561, Control_c, 0, 64, 81
1, 194576, Control_c, 0, 64, 68
1, 194591, Control_c, 0, 64, 57
1, 194602, Note_on_c, 0, 72, 60
1, 194606, Control_c, 0, 64, 41
1, 194621, Control_c, 0, 64, 0
1, 194625, Note_on_c, 0, 48, 39
1, 194632, Note_on_c, 0, 64, 32
1, 194633, Note_on_c, 0, 67, 38
1, 194666, Control_c, 0, 64, 32
1, 194676, Note_on_c, 0, 70, 54
1, 194681, Control_c, 0, 64, 41
1, 194691, Note_off_c, 0, 72, 52
1, 194696, Control_c, 0, 64, 51
1, 194718, Control_c, 0, 64, 59
1, 194733, Control_c, 0, 64, 63
1, 194747, Control_c, 0, 64, 66
1, 194762, Control_c, 0, 64, 70
1, 194776, Note_off_c, 0, 64, 37
1, 194777, Control_c, 0, 64, 73
1, 194779, Note_off_c, 0, 67, 58
1, 194791, Control_c, 0, 64, 75
1, 194797, Note_off_c, 0, 70, 62
1, 194805, Note_off_c, 0, 48, 41
1, 194806, Control_c, 0, 64, 77
1, 194821, Control_c, 0, 64, 79
1, 194865, Control_c, 0, 64, 78
1, 194880, Control_c, 0, 64, 76
1, 194896, Control_c, 0, 64, 72
1, 194911, Control_c, 0, 64, 65
1, 194926, Control_c, 0, 64, 55
1, 194937, Note_on_c, 0, 70, 62
1, 194939, Note_on_c, 0, 48, 44
1, 194941, Control_c, 0, 64, 37
1, 194946, Note_on_c, 0, 67, 53
1, 194956, Control_c, 0, 64, 0
1, 194957, Note_on_c, 0, 64, 41
1, 195029, Control_c, 0, 64, 38
1, 195044, Control_c, 0, 64, 51
1, 195059, Control_c, 0, 64, 60
1, 195074, Control_c, 0, 64, 64
1, 195089, Control_c, 0, 64, 66
1, 195104, Control_c, 0, 64, 69
1, 195109, Note_off_c, 0, 64, 37
1, 195113, Note_off_c, 0, 67, 50
1, 195119, Control_c, 0, 64, 73
1, 195128, Note_off_c, 0, 48, 40
1, 195134, Note_off_c, 0, 70, 61
1, 195134, Control_c, 0, 64, 77
1, 195149, Control_c, 0, 64, 81
1, 195163, Control_c, 0, 64, 84
1, 195178, Control_c, 0, 64, 84
1, 195193, Control_c, 0, 64, 84
1, 195207, Control_c, 0, 64, 83
1, 195222, Control_c, 0, 64, 81
1, 195237, Control_c, 0, 64, 76
1, 195252, Control_c, 0, 64, 68
1, 195256, Note_on_c, 0, 70, 72
1, 195262, Note_on_c, 0, 48, 43
1, 195265, Note_on_c, 0, 67, 55
1, 195267, Control_c, 0, 64, 57
1, 195274, Note_on_c, 0, 64, 41
1, 195281, Control_c, 0, 64, 45
1, 195296, Control_c, 0, 64, 37
1, 195326, Control_c, 0, 64, 42
1, 195341, Control_c, 0, 64, 48
1, 195355, Control_c, 0, 64, 55
1, 195370, Control_c, 0, 64, 60
1, 195385, Control_c, 0, 64, 64
1, 195400, Control_c, 0, 64, 67
1, 195414, Control_c, 0, 64, 70
1, 195426, Note_off_c, 0, 48, 34
1, 195429, Control_c, 0, 64, 73
1, 195444, Control_c, 0, 64, 74
1, 195459, Note_off_c, 0, 67, 27
1, 195467, Control_c, 0, 64, 75
1, 195477, Note_off_c, 0, 64, 26
1, 195499, Note_off_c, 0, 70, 25
1, 195555, Control_c, 0, 64, 75
1, 195570, Control_c, 0, 64, 72
1, 195585, Control_c, 0, 64, 67
1, 195600, Control_c, 0, 64, 63
1, 195608, Note_on_c, 0, 70, 65
1, 195614, Control_c, 0, 64, 57
1, 195620, Note_on_c, 0, 67, 47
1, 195627, Note_on_c, 0, 64, 31
1, 195629, Control_c, 0, 64, 48
1, 195636, Note_on_c, 0, 48, 33
1, 195644, Control_c, 0, 64, 30
1, 195659, Control_c, 0, 64, 0
1, 195837, Control_c, 0, 64, 37
1, 195852, Control_c, 0, 64, 52
1, 195867, Control_c, 0, 64, 59
1, 195882, Control_c, 0, 64, 62
1, 195897, Control_c, 0, 64, 63
1, 195906, Note_off_c, 0, 67, 55
1, 195912, Control_c, 0, 64, 65
1, 195927, Control_c, 0, 64, 67
1, 195942, Control_c, 0, 64, 70
1, 195956, Control_c, 0, 64, 73
1, 195971, Control_c, 0, 64, 75
1, 195986, Control_c, 0, 64, 76
1, 196075, Note_off_c, 0, 64, 46
1, 196085, Note_off_c, 0, 70, 46
1, 196100, Note_off_c, 0, 48, 38
1, 196133, Control_c, 0, 64, 75
1, 196148, Control_c, 0, 64, 70
1, 196162, Control_c, 0, 64, 63
1, 196177, Control_c, 0, 64, 53
1, 196192, Control_c, 0, 64, 42
1, 196215, Control_c, 0, 64, 35
1, 196222, Note_on_c, 0, 69, 46
1, 196223, Note_on_c, 0, 50, 36
1, 196230, Control_c, 0, 64, 36
1, 196239, Note_on_c, 0, 65, 26
1, 196244, Control_c, 0, 64, 40
1, 196259, Control_c, 0, 64, 48
1, 196274, Control_c, 0, 64, 56
1, 196289, Control_c, 0, 64, 62
1, 196299, Note_off_c, 0, 65, 47
1, 196304, Control_c, 0, 64, 67
1, 196311, Note_off_c, 0, 69, 63
1, 196318, Control_c, 0, 64, 73
1, 196325, Note_off_c, 0, 50, 45
1, 196333, Control_c, 0, 64, 78
1, 196348, Control_c, 0, 64, 81
1, 196362, Control_c, 0, 64, 82
1, 196422, Control_c, 0, 64, 82
1, 196436, Control_c, 0, 64, 81
1, 196451, Control_c, 0, 64, 79
1, 196466, Control_c, 0, 64, 73
1, 196482, Control_c, 0, 64, 67
1, 196497, Control_c, 0, 64, 61
1, 196511, Note_on_c, 0, 69, 54
1, 196512, Control_c, 0, 64, 54
1, 196516, Note_on_c, 0, 72, 54
1, 196525, Note_on_c, 0, 46, 43
1, 196527, Control_c, 0, 64, 47
1, 196541, Control_c, 0, 64, 38
1, 196556, Control_c, 0, 64, 0
1, 196563, Note_off_c, 0, 69, 53
1, 196579, Note_off_c, 0, 46, 52
1, 196579, Note_off_c, 0, 72, 45
1, 196652, Note_on_c, 0, 70, 59
1, 196660, Note_on_c, 0, 67, 49
1, 196696, Note_off_c, 0, 67, 65
1, 196700, Note_off_c, 0, 70, 58
1, 196800, Note_on_c, 0, 69, 64
1, 196809, Note_on_c, 0, 48, 46
1, 196815, Note_on_c, 0, 65, 54
1, 196831, Note_off_c, 0, 69, 63
1, 196838, Note_off_c, 0, 48, 59
1, 196845, Note_off_c, 0, 65, 66
1, 197113, Note_on_c, 0, 67, 57
1, 197118, Note_on_c, 0, 48, 42
1, 197122, Note_on_c, 0, 64, 41
1, 197147, Note_off_c, 0, 64, 59
1, 197148, Note_off_c, 0, 48, 59
1, 197150, Note_off_c, 0, 67, 61
1, 197423, Note_on_c, 0, 69, 57
1, 197435, Note_on_c, 0, 53, 44
1, 197446, Note_on_c, 0, 65, 37
1, 197450, Note_off_c, 0, 69, 63
1, 197591, Note_on_c, 0, 77, 62
1, 197621, Note_off_c, 0, 77, 66
1, 197632, Note_off_c, 0, 53, 60
1, 197674, Note_off_c, 0, 65, 54
1, 197736, Note_on_c, 0, 79, 71
1, 197769, Note_off_c, 0, 79, 64
1, 197869, Note_on_c, 0, 81, 74
1, 197895, Note_off_c, 0, 81, 65
1, 198000, Note_on_c, 0, 82, 74
1, 198034, Note_off_c, 0, 82, 60
1, 198133, Note_on_c, 0, 84, 70
1, 198162, Note_off_c, 0, 84, 64
1, 198291, Note_on_c, 0, 70, 39
1, 198291, Note_on_c, 0, 86, 65
1, 198297, Note_on_c, 0, 65, 44
1, 198319, Note_off_c, 0, 86, 66
1, 198352, Note_off_c, 0, 65, 60
1, 198363, Note_off_c, 0, 70, 58
1, 198597, Note_on_c, 0, 86, 77
1, 198605, Note_on_c, 0, 70, 45
1, 198608, Note_on_c, 0, 65, 44
1, 198655, Note_off_c, 0, 86, 64
1, 198663, Note_off_c, 0, 65, 58
1, 198673, Note_off_c, 0, 70, 54
1, 198900, Note_on_c, 0, 86, 84
1, 198908, Note_on_c, 0, 70, 46
1, 198917, Note_on_c, 0, 65, 45
1, 198965, Note_off_c, 0, 70, 58
1, 198968, Note_off_c, 0, 86, 63
1, 198970, Note_off_c, 0, 65, 59
1, 199266, Note_on_c, 0, 86, 69
1, 199286, Note_on_c, 0, 70, 40
1, 199294, Note_on_c, 0, 65, 41
1, 199477, Control_c, 0, 64, 40
1, 199492, Control_c, 0, 64, 51
1, 199507, Control_c, 0, 64, 58
1, 199522, Control_c, 0, 64, 61
1, 199537, Control_c, 0, 64, 64
1, 199551, Control_c, 0, 64, 68
1, 199566, Control_c, 0, 64, 73
1, 199581, Control_c, 0, 64, 83
1, 199581, Note_off_c, 0, 86, 51
1, 199596, Control_c, 0, 64, 98
1, 199611, Control_c, 0, 64, 127
1, 199674, Note_off_c, 0, 70, 38
1, 199755, Note_on_c, 0, 88, 60
1, 199760, Control_c, 0, 64, 112
1, 199775, Control_c, 0, 64, 91
1, 199790, Control_c, 0, 64, 76
1, 199804, Control_c, 0, 64, 64
1, 199810, Note_on_c, 0, 86, 59
1, 199817, Note_off_c, 0, 88, 52
1, 199819, Control_c, 0, 64, 52
1, 199834, Control_c, 0, 64, 37
1, 199849, Control_c, 0, 64, 30
1, 199873, Note_on_c, 0, 69, 40
1, 199876, Note_on_c, 0, 84, 68
1, 199879, Control_c, 0, 64, 36
1, 199882, Note_off_c, 0, 65, 56
1, 199888, Note_off_c, 0, 86, 61
1, 199894, Control_c, 0, 64, 45
1, 199909, Control_c, 0, 64, 55
1, 199921, Note_off_c, 0, 69, 61
1, 199923, Control_c, 0, 64, 63
1, 199936, Note_off_c, 0, 84, 64
1, 199938, Control_c, 0, 64, 70
1, 199960, Control_c, 0, 64, 81
1, 199975, Control_c, 0, 64, 90
1, 199990, Control_c, 0, 64, 96
1, 200005, Control_c, 0, 64, 99
1, 200109, Control_c, 0, 64, 92
1, 200124, Control_c, 0, 64, 82
1, 200138, Control_c, 0, 64, 72
1, 200150, Note_on_c, 0, 84, 65
1, 200153, Control_c, 0, 64, 62
1, 200168, Control_c, 0, 64, 51
1, 200174, Note_on_c, 0, 76, 35
1, 200183, Control_c, 0, 64, 40
1, 200189, Note_on_c, 0, 60, 40
1, 200195, Note_on_c, 0, 67, 27
1, 200198, Control_c, 0, 64, 34
1, 200212, Control_c, 0, 64, 32
1, 200216, Note_on_c, 0, 82, 67
1, 200227, Control_c, 0, 64, 32
1, 200242, Control_c, 0, 64, 35
1, 200243, Note_off_c, 0, 84, 60
1, 200257, Control_c, 0, 64, 42
1, 200272, Control_c, 0, 64, 51
1, 200286, Control_c, 0, 64, 59
1, 200301, Control_c, 0, 64, 64
1, 200316, Control_c, 0, 64, 69
1, 200330, Control_c, 0, 64, 75
1, 200344, Note_off_c, 0, 76, 44
1, 200345, Control_c, 0, 64, 80
1, 200360, Note_off_c, 0, 60, 57
1, 200360, Control_c, 0, 64, 84
1, 200362, Note_off_c, 0, 82, 62
1, 200371, Note_off_c, 0, 67, 42
1, 200375, Control_c, 0, 64, 89
1, 200390, Control_c, 0, 64, 92
1, 200404, Control_c, 0, 64, 93
1, 200434, Control_c, 0, 64, 91
1, 200449, Control_c, 0, 64, 84
1, 200464, Control_c, 0, 64, 75
1, 200480, Control_c, 0, 64, 65
1, 200486, Note_on_c, 0, 82, 78
1, 200489, Note_on_c, 0, 67, 46
1, 200495, Control_c, 0, 64, 57
1, 200499, Note_on_c, 0, 60, 47
1, 200499, Note_on_c, 0, 76, 57
1, 200509, Control_c, 0, 64, 50
1, 200524, Control_c, 0, 64, 48
1, 200539, Control_c, 0, 64, 50
1, 200553, Control_c, 0, 64, 53
1, 200568, Control_c, 0, 64, 57
1, 200583, Control_c, 0, 64, 63
1, 200598, Control_c, 0, 64, 68
1, 200612, Note_off_c, 0, 82, 62
1, 200613, Control_c, 0, 64, 74
1, 200627, Control_c, 0, 64, 82
1, 200630, Note_off_c, 0, 76, 0
1, 200642, Control_c, 0, 64, 90
1, 200657, Control_c, 0, 64, 95
1, 200665, Note_off_c, 0, 67, 36
1, 200667, Poly_aftertouch_c, 0, 76, 127
1, 200672, Control_c, 0, 64, 99
1, 200687, Control_c, 0, 64, 101
1, 200688, Note_off_c, 0, 60, 41
1, 200738, Poly_aftertouch_c, 0, 76, 0
1, 200768, Control_c, 0, 64, 99
1, 200783, Control_c, 0, 64, 89
1, 200797, Control_c, 0, 64, 76
1, 200812, Control_c, 0, 64, 64
1, 200814, Note_on_c, 0, 82, 78
1, 200820, Note_on_c, 0, 60, 49
1, 200827, Note_on_c, 0, 67, 44
1, 200827, Control_c, 0, 64, 54
1, 200830, Note_on_c, 0, 76, 67
1, 200842, Control_c, 0, 64, 45
1, 200857, Control_c, 0, 64, 43
1, 200872, Control_c, 0, 64, 44
1, 200887, Control_c, 0, 64, 47
1, 200901, Control_c, 0, 64, 52
1, 200916, Control_c, 0, 64, 58
1, 200931, Control_c, 0, 64, 63
1, 200946, Control_c, 0, 64, 67
1, 200960, Control_c, 0, 64, 72
1, 200975, Control_c, 0, 64, 77
1, 200990, Control_c, 0, 64, 80
1, 200991, Note_off_c, 0, 67, 32
1, 201005, Control_c, 0, 64, 83
1, 201020, Control_c, 0, 64, 84
1, 201024, Note_off_c, 0, 60, 27
1, 201048, Note_off_c, 0, 76, 42
1, 201051, Note_off_c, 0, 82, 37
1, 201123, Control_c, 0, 64, 83
1, 201138, Control_c, 0, 64, 79
1, 201152, Note_on_c, 0, 82, 71
1, 201152, Control_c, 0, 64, 72
1, 201155, Note_on_c, 0, 76, 60
1, 201164, Note_on_c, 0, 60, 42
1, 201167, Control_c, 0, 64, 66
1, 201182, Control_c, 0, 64, 58
1, 201189, Note_on_c, 0, 67, 31
1, 201197, Control_c, 0, 64, 50
1, 201212, Control_c, 0, 64, 40
1, 201227, Control_c, 0, 64, 30
1, 201242, Control_c, 0, 64, 0
1, 201331, Control_c, 0, 64, 33
1, 201346, Control_c, 0, 64, 42
1, 201361, Control_c, 0, 64, 49
1, 201376, Control_c, 0, 64, 55
1, 201391, Control_c, 0, 64, 59
1, 201406, Control_c, 0, 64, 61
1, 201420, Control_c, 0, 64, 62
1, 201435, Control_c, 0, 64, 64
1, 201457, Control_c, 0, 64, 65
1, 201472, Control_c, 0, 64, 66
1, 201487, Control_c, 0, 64, 66
1, 201501, Control_c, 0, 64, 67
1, 201531, Control_c, 0, 64, 68
1, 201590, Note_off_c, 0, 82, 52
1, 201612, Note_off_c, 0, 76, 51
1, 201620, Control_c, 0, 64, 66
1, 201635, Control_c, 0, 64, 64
1, 201650, Control_c, 0, 64, 59
1, 201665, Control_c, 0, 64, 54
1, 201680, Control_c, 0, 64, 49
1, 201695, Control_c, 0, 64, 46
1, 201701, Note_off_c, 0, 60, 26
1, 201709, Control_c, 0, 64, 44
1, 201724, Control_c, 0, 64, 44
1, 201725, Note_on_c, 0, 81, 57
1, 201728, Note_on_c, 0, 65, 45
1, 201732, Note_on_c, 0, 62, 37
1, 201735, Note_off_c, 0, 67, 41
1, 201739, Control_c, 0, 64, 47
1, 201739, Note_on_c, 0, 77, 48
1, 201754, Control_c, 0, 64, 54
1, 201758, Note_off_c, 0, 65, 63
1, 201768, Note_off_c, 0, 62, 62
1, 201769, Control_c, 0, 64, 61
1, 201780, Note_off_c, 0, 77, 63
1, 201783, Control_c, 0, 64, 66
1, 201793, Note_off_c, 0, 81, 62
1, 201798, Control_c, 0, 64, 71
1, 201813, Control_c, 0, 64, 76
1, 201828, Control_c, 0, 64, 78
1, 201843, Control_c, 0, 64, 79
1, 201887, Control_c, 0, 64, 78
1, 201901, Control_c, 0, 64, 77
1, 201916, Control_c, 0, 64, 74
1, 201931, Control_c, 0, 64, 70
1, 201946, Control_c, 0, 64, 63
1, 201961, Control_c, 0, 64, 55
1, 201975, Control_c, 0, 64, 44
1, 201990, Control_c, 0, 64, 0
1, 201992, Note_on_c, 0, 81, 66
1, 201996, Note_on_c, 0, 84, 65
1, 202000, Note_on_c, 0, 58, 47
1, 202043, Note_off_c, 0, 58, 60
1, 202046, Note_off_c, 0, 84, 53
1, 202052, Note_off_c, 0, 81, 49
1, 202122, Note_on_c, 0, 82, 68
1, 202135, Note_on_c, 0, 79, 57
1, 202163, Note_off_c, 0, 79, 66
1, 202172, Note_off_c, 0, 82, 54
1, 202276, Note_on_c, 0, 81, 73
1, 202285, Note_on_c, 0, 77, 59
1, 202287, Note_on_c, 0, 60, 49
1, 202306, Note_off_c, 0, 81, 62
1, 202312, Note_off_c, 0, 60, 63
1, 202315, Note_off_c, 0, 77, 67
1, 202561, Note_on_c, 0, 58, 59
1, 202562, Note_on_c, 0, 79, 73
1, 202569, Note_on_c, 0, 76, 61
1, 202589, Note_off_c, 0, 79, 67
1, 202595, Note_off_c, 0, 58, 66
1, 202600, Note_off_c, 0, 76, 65
1, 202842, Note_on_c, 0, 45, 81
1, 202842, Note_on_c, 0, 57, 85
1, 202843, Control_c, 0, 64, 30
1, 202848, Note_on_c, 0, 84, 76
1, 202849, Note_on_c, 0, 81, 77
1, 202858, Control_c, 0, 64, 60
1, 202875, Control_c, 0, 64, 75
1, 202881, Note_off_c, 0, 45, 61
1, 202884, Note_off_c, 0, 57, 60
1, 202885, Note_off_c, 0, 81, 63
1, 202890, Control_c, 0, 64, 127
1, 202899, Note_off_c, 0, 84, 62
1, 202985, Control_c, 0, 64, 97
1, 203000, Control_c, 0, 64, 71
1, 203004, Note_on_c, 0, 81, 72
1, 203004, Note_on_c, 0, 84, 76
1, 203015, Control_c, 0, 64, 50
1, 203027, Note_off_c, 0, 81, 68
1, 203030, Control_c, 0, 64, 0
1, 203030, Note_off_c, 0, 84, 66
1, 203143, Note_on_c, 0, 61, 71
1, 203177, Note_off_c, 0, 61, 63
1, 203290, Note_on_c, 0, 79, 70
1, 203293, Note_on_c, 0, 82, 66
1, 203316, Note_off_c, 0, 79, 69
1, 203321, Note_off_c, 0, 82, 66
1, 203428, Note_on_c, 0, 62, 62
1, 203459, Note_off_c, 0, 62, 66
1, 203573, Note_on_c, 0, 81, 67
1, 203574, Note_on_c, 0, 77, 62
1, 203600, Note_off_c, 0, 77, 67
1, 203602, Note_off_c, 0, 81, 65
1, 203721, Note_on_c, 0, 58, 60
1, 203751, Note_off_c, 0, 58, 65
1, 203859, Note_on_c, 0, 79, 68
1, 203869, Note_on_c, 0, 70, 54
1, 203890, Note_off_c, 0, 70, 63
1, 203891, Note_off_c, 0, 79, 67
1, 204028, Note_on_c, 0, 60, 23
1, 204068, Note_off_c, 0, 60, 44
1, 204138, Note_on_c, 0, 69, 57
1, 204139, Note_on_c, 0, 77, 58
1, 204166, Note_off_c, 0, 77, 66
1, 204169, Note_off_c, 0, 69, 65
1, 204288, Note_on_c, 0, 58, 64
1, 204315, Note_off_c, 0, 58, 66
1, 204425, Note_on_c, 0, 76, 45
1, 204432, Note_on_c, 0, 67, 32
1, 204458, Note_off_c, 0, 76, 58
1, 204475, Note_off_c, 0, 67, 42
1, 204563, Note_on_c, 0, 45, 76
1, 204565, Note_on_c, 0, 57, 78
1, 204629, Note_off_c, 0, 45, 62
1, 204631, Note_on_c, 0, 81, 71
1, 204635, Note_off_c, 0, 57, 62
1, 204690, Note_off_c, 0, 81, 56
1, 204694, Note_on_c, 0, 84, 79
1, 204759, Note_on_c, 0, 81, 78
1, 204780, Note_off_c, 0, 84, 64
1, 204808, Note_off_c, 0, 81, 66
1, 204841, Note_on_c, 0, 61, 82
1, 204844, Note_on_c, 0, 49, 79
1, 204914, Note_on_c, 0, 79, 85
1, 204928, Note_off_c, 0, 61, 59
1, 204929, Note_off_c, 0, 49, 62
1, 204967, Note_off_c, 0, 79, 65
1, 204971, Note_on_c, 0, 82, 82
1, 205033, Note_on_c, 0, 79, 79
1, 205067, Note_off_c, 0, 82, 62
1, 205086, Note_off_c, 0, 79, 67
1, 205114, Note_on_c, 0, 50, 83
1, 205114, Note_on_c, 0, 62, 81
1, 205179, Note_off_c, 0, 62, 62
1, 205184, Note_on_c, 0, 77, 78
1, 205202, Note_off_c, 0, 50, 58
1, 205241, Note_off_c, 0, 77, 65
1, 205255, Note_on_c, 0, 81, 83
1, 205314, Note_on_c, 0, 77, 80
1, 205325, Note_off_c, 0, 81, 64
1, 205353, Note_off_c, 0, 77, 65
1, 205390, Note_on_c, 0, 58, 81
1, 205394, Note_on_c, 0, 46, 80
1, 205455, Note_on_c, 0, 70, 75
1, 205466, Note_off_c, 0, 46, 62
1, 205476, Note_off_c, 0, 58, 58
1, 205498, Note_off_c, 0, 70, 63
1, 205517, Note_on_c, 0, 79, 84
1, 205582, Note_on_c, 0, 70, 78
1, 205623, Note_off_c, 0, 79, 64
1, 205627, Note_off_c, 0, 70, 62
1, 205657, Note_on_c, 0, 60, 83
1, 205658, Note_on_c, 0, 48, 81
1, 205710, Note_off_c, 0, 60, 65
1, 205725, Note_on_c, 0, 69, 76
1, 205745, Note_off_c, 0, 48, 62
1, 205787, Note_off_c, 0, 69, 59
1, 205799, Note_on_c, 0, 77, 74
1, 205858, Note_on_c, 0, 69, 71
1, 205909, Note_off_c, 0, 77, 57
1, 205925, Note_off_c, 0, 69, 64
1, 205945, Note_on_c, 0, 36, 81
1, 205946, Note_on_c, 0, 48, 80
1, 205999, Note_off_c, 0, 36, 64
1, 205999, Note_off_c, 0, 48, 66
1, 206020, Note_on_c, 0, 67, 76
1, 206078, Note_off_c, 0, 67, 64
1, 206087, Note_on_c, 0, 76, 77
1, 206141, Note_on_c, 0, 67, 73
1, 206151, Note_off_c, 0, 76, 62
1, 206220, Note_off_c, 0, 67, 60
1, 206255, Note_on_c, 0, 69, 76
1, 206256, Note_on_c, 0, 72, 75
1, 206256, Note_on_c, 0, 77, 82
1, 206267, Note_on_c, 0, 40, 27
1, 206272, Note_on_c, 0, 41, 43
1, 206311, Note_off_c, 0, 40, 58
1, 206318, Note_off_c, 0, 41, 52
1, 206335, Note_on_c, 0, 45, 64
1, 206409, Note_on_c, 0, 48, 54
1, 206414, Note_off_c, 0, 45, 63
1, 206466, Note_off_c, 0, 48, 61
1, 206475, Note_on_c, 0, 53, 60
1, 206521, Note_off_c, 0, 53, 61
1, 206540, Note_on_c, 0, 41, 64
1, 206573, Control_c, 0, 64, 43
1, 206586, Note_off_c, 0, 77, 63
1, 206588, Control_c, 0, 64, 57
1, 206603, Control_c, 0, 64, 64
1, 206608, Note_off_c, 0, 69, 60
1, 206616, Control_c, 0, 64, 70
1, 206621, Note_on_c, 0, 45, 62
1, 206625, Note_off_c, 0, 72, 63
1, 206631, Control_c, 0, 64, 75
1, 206646, Note_off_c, 0, 41, 36
1, 206646, Control_c, 0, 64, 78
1, 206661, Control_c, 0, 64, 80
1, 206682, Note_on_c, 0, 48, 62
1, 206696, Note_off_c, 0, 45, 63
1, 206698, Control_c, 0, 64, 81
1, 206740, Note_on_c, 0, 53, 56
1, 206744, Note_off_c, 0, 48, 60
1, 206772, Control_c, 0, 64, 80
1, 206800, Note_off_c, 0, 53, 59
1, 206802, Control_c, 0, 64, 79
1, 206817, Control_c, 0, 64, 77
1, 206819, Note_on_c, 0, 41, 62
1, 206830, Note_on_c, 0, 69, 62
1, 206831, Control_c, 0, 64, 74
1, 206846, Control_c, 0, 64, 71
1, 206859, Note_off_c, 0, 69, 65
1, 206861, Control_c, 0, 64, 68
1, 206870, Note_on_c, 0, 70, 76
1, 206877, Control_c, 0, 64, 65
1, 206892, Control_c, 0, 64, 62
1, 206899, Note_off_c, 0, 41, 60
1, 206907, Control_c, 0, 64, 59
1, 206915, Note_on_c, 0, 45, 54
1, 206921, Control_c, 0, 64, 56
1, 206926, Note_on_c, 0, 69, 70
1, 206936, Control_c, 0, 64, 54
1, 206951, Control_c, 0, 64, 53
1, 206963, Note_off_c, 0, 70, 60
1, 206966, Control_c, 0, 64, 52
1, 206973, Note_on_c, 0, 67, 78
1, 206973, Note_off_c, 0, 45, 62
1, 206981, Control_c, 0, 64, 50
1, 206983, Note_on_c, 0, 48, 56
1, 206995, Control_c, 0, 64, 48
1, 207010, Control_c, 0, 64, 46
1, 207025, Control_c, 0, 64, 42
1, 207030, Note_on_c, 0, 65, 80
1, 207030, Note_off_c, 0, 69, 61
1, 207031, Note_off_c, 0, 48, 61
1, 207039, Control_c, 0, 64, 37
1, 207048, Note_on_c, 0, 53, 54
1, 207054, Control_c, 0, 64, 31
1, 207062, Note_off_c, 0, 67, 62
1, 207069, Control_c, 0, 64, 0
1, 207096, Note_off_c, 0, 53, 61
1, 207112, Note_on_c, 0, 72, 83
1, 207114, Note_on_c, 0, 41, 60
1, 207127, Note_off_c, 0, 65, 62
1, 207198, Note_off_c, 0, 41, 59
1, 207206, Note_on_c, 0, 45, 53
1, 207265, Note_off_c, 0, 45, 62
1, 207269, Note_on_c, 0, 48, 57
1, 207320, Note_off_c, 0, 48, 60
1, 207336, Note_on_c, 0, 53, 52
1, 207381, Note_off_c, 0, 53, 62
1, 207402, Note_on_c, 0, 41, 60
1, 207411, Control_c, 0, 64, 32
1, 207426, Control_c, 0, 64, 46
1, 207448, Control_c, 0, 64, 58
1, 207463, Control_c, 0, 64, 64
1, 207470, Note_off_c, 0, 72, 59
1, 207478, Control_c, 0, 64, 68
1, 207484, Note_off_c, 0, 41, 60
1, 207484, Note_on_c, 0, 45, 57
1, 207493, Control_c, 0, 64, 72
1, 207507, Control_c, 0, 64, 76
1, 207522, Control_c, 0, 64, 79
1, 207537, Control_c, 0, 64, 80
1, 207546, Note_on_c, 0, 48, 64
1, 207547, Note_off_c, 0, 45, 62
1, 207605, Note_off_c, 0, 48, 62
1, 207611, Control_c, 0, 64, 79
1, 207612, Note_on_c, 0, 53, 51
1, 207626, Control_c, 0, 64, 78
1, 207640, Control_c, 0, 64, 76
1, 207655, Control_c, 0, 64, 72
1, 207671, Control_c, 0, 64, 68
1, 207686, Control_c, 0, 64, 65
1, 207687, Note_off_c, 0, 53, 44
1, 207691, Note_on_c, 0, 41, 58
1, 207701, Control_c, 0, 64, 62
1, 207701, Note_on_c, 0, 76, 77
1, 207716, Control_c, 0, 64, 59
1, 207731, Control_c, 0, 64, 57
1, 207745, Note_off_c, 0, 76, 62
1, 207745, Control_c, 0, 64, 56
1, 207750, Note_on_c, 0, 77, 74
1, 207760, Control_c, 0, 64, 55
1, 207775, Control_c, 0, 64, 55
1, 207778, Note_on_c, 0, 46, 49
1, 207778, Note_off_c, 0, 41, 52
1, 207790, Control_c, 0, 64, 54
1, 207791, Note_on_c, 0, 76, 76
1, 207805, Control_c, 0, 64, 54
1, 207819, Control_c, 0, 64, 53
1, 207834, Control_c, 0, 64, 53
1, 207838, Note_on_c, 0, 48, 52
1, 207847, Note_on_c, 0, 74, 78
1, 207848, Note_off_c, 0, 77, 62
1, 207849, Control_c, 0, 64, 52
1, 207863, Control_c, 0, 64, 51
1, 207865, Note_off_c, 0, 46, 61
1, 207878, Control_c, 0, 64, 50
1, 207893, Control_c, 0, 64, 48
1, 207894, Note_off_c, 0, 48, 59
1, 207898, Note_off_c, 0, 76, 60
1, 207900, Note_on_c, 0, 55, 51
1, 207901, Note_on_c, 0, 72, 77
1, 207908, Control_c, 0, 64, 47
1, 207923, Control_c, 0, 64, 45
1, 207937, Control_c, 0, 64, 44
1, 207939, Note_off_c, 0, 74, 62
1, 207952, Control_c, 0, 64, 42
1, 207961, Note_off_c, 0, 55, 50
1, 207967, Control_c, 0, 64, 41
1, 207982, Control_c, 0, 64, 40
1, 207991, Note_on_c, 0, 41, 51
1, 207996, Note_on_c, 0, 77, 85
1, 207996, Control_c, 0, 64, 39
1, 208011, Control_c, 0, 64, 37
1, 208026, Control_c, 0, 64, 35
1, 208033, Note_off_c, 0, 72, 58
1, 208041, Control_c, 0, 64, 33
1, 208056, Control_c, 0, 64, 31
1, 208071, Control_c, 0, 64, 0
1, 208089, Note_on_c, 0, 45, 50
1, 208094, Note_off_c, 0, 41, 53
1, 208157, Note_on_c, 0, 48, 53
1, 208166, Note_off_c, 0, 45, 61
1, 208216, Note_off_c, 0, 48, 61
1, 208231, Note_on_c, 0, 53, 50
1, 208280, Note_off_c, 0, 53, 59
1, 208300, Note_on_c, 0, 41, 54
1, 208345, Control_c, 0, 64, 49
1, 208360, Control_c, 0, 64, 56
1, 208371, Note_off_c, 0, 41, 56
1, 208373, Note_on_c, 0, 45, 54
1, 208375, Control_c, 0, 64, 59
1, 208389, Control_c, 0, 64, 63
1, 208390, Note_off_c, 0, 77, 63
1, 208404, Control_c, 0, 64, 65
1, 208419, Control_c, 0, 64, 68
1, 208430, Note_on_c, 0, 48, 59
1, 208433, Note_off_c, 0, 45, 63
1, 208434, Control_c, 0, 64, 70
1, 208449, Control_c, 0, 64, 71
1, 208484, Note_off_c, 0, 48, 61
1, 208488, Note_on_c, 0, 53, 59
1, 208539, Control_c, 0, 64, 70
1, 208545, Note_off_c, 0, 53, 59
1, 208554, Control_c, 0, 64, 68
1, 208568, Control_c, 0, 64, 66
1, 208575, Note_on_c, 0, 41, 60
1, 208583, Control_c, 0, 64, 64
1, 208593, Note_on_c, 0, 81, 77
1, 208598, Control_c, 0, 64, 61
1, 208612, Control_c, 0, 64, 59
1, 208627, Control_c, 0, 64, 56
1, 208628, Note_off_c, 0, 81, 57
1, 208642, Note_on_c, 0, 82, 87
1, 208642, Control_c, 0, 64, 54
1, 208656, Note_off_c, 0, 41, 59
1, 208657, Control_c, 0, 64, 52
1, 208661, Note_on_c, 0, 45, 54
1, 208672, Control_c, 0, 64, 50
1, 208686, Control_c, 0, 64, 46
1, 208691, Note_on_c, 0, 81, 78
1, 208701, Control_c, 0, 64, 40
1, 208715, Note_off_c, 0, 45, 61
1, 208716, Control_c, 0, 64, 0
1, 208722, Note_on_c, 0, 48, 53
1, 208730, Note_off_c, 0, 82, 61
1, 208736, Note_on_c, 0, 79, 83
1, 208776, Note_off_c, 0, 48, 60
1, 208777, Note_on_c, 0, 53, 52
1, 208783, Note_off_c, 0, 81, 63
1, 208800, Note_on_c, 0, 77, 75
1, 208814, Note_off_c, 0, 79, 64
1, 208830, Note_off_c, 0, 53, 60
1, 208858, Note_on_c, 0, 41, 62
1, 208868, Note_on_c, 0, 84, 95
1, 208873, Note_off_c, 0, 77, 64
1, 208909, Control_c, 0, 64, 39
1, 208911, Note_off_c, 0, 84, 67
1, 208923, Control_c, 0, 64, 56
1, 208946, Control_c, 0, 64, 65
1, 208950, Note_on_c, 0, 45, 57
1, 208952, Note_off_c, 0, 41, 59
1, 208961, Control_c, 0, 64, 70
1, 208975, Control_c, 0, 64, 74
1, 208990, Control_c, 0, 64, 77
1, 209005, Control_c, 0, 64, 78
1, 209014, Note_on_c, 0, 48, 66
1, 209022, Note_off_c, 0, 45, 63
1, 209071, Note_off_c, 0, 48, 62
1, 209073, Note_on_c, 0, 53, 61
1, 209079, Control_c, 0, 64, 76
1, 209093, Control_c, 0, 64, 71
1, 209108, Control_c, 0, 64, 63
1, 209123, Control_c, 0, 64, 46
1, 209128, Note_off_c, 0, 53, 59
1, 209138, Control_c, 0, 64, 0
1, 209163, Note_on_c, 0, 41, 62
1, 209177, Note_on_c, 0, 84, 95
1, 209212, Control_c, 0, 64, 42
1, 209222, Note_off_c, 0, 84, 66
1, 209227, Control_c, 0, 64, 58
1, 209238, Note_on_c, 0, 45, 60
1, 209242, Control_c, 0, 64, 66
1, 209245, Note_off_c, 0, 41, 59
1, 209257, Control_c, 0, 64, 72
1, 209272, Control_c, 0, 64, 77
1, 209287, Control_c, 0, 64, 80
1, 209302, Control_c, 0, 64, 81
1, 209305, Note_on_c, 0, 48, 65
1, 209317, Note_off_c, 0, 45, 61
1, 209372, Note_off_c, 0, 48, 63
1, 209374, Note_on_c, 0, 53, 63
1, 209391, Control_c, 0, 64, 80
1, 209406, Control_c, 0, 64, 79
1, 209421, Control_c, 0, 64, 77
1, 209432, Note_off_c, 0, 53, 61
1, 209435, Control_c, 0, 64, 73
1, 209450, Control_c, 0, 64, 70
1, 209452, Note_on_c, 0, 41, 67
1, 209465, Control_c, 0, 64, 66
1, 209469, Note_on_c, 0, 88, 78
1, 209480, Control_c, 0, 64, 63
1, 209495, Control_c, 0, 64, 57
1, 209509, Control_c, 0, 64, 48
1, 209511, Note_on_c, 0, 89, 85
1, 209512, Note_off_c, 0, 88, 63
1, 209524, Control_c, 0, 64, 40
1, 209537, Note_on_c, 0, 46, 56
1, 209539, Control_c, 0, 64, 32
1, 209554, Control_c, 0, 64, 0
1, 209555, Note_on_c, 0, 88, 76
1, 209591, Note_on_c, 0, 48, 57
1, 209594, Note_off_c, 0, 41, 53
1, 209601, Note_on_c, 0, 86, 88
1, 209611, Note_off_c, 0, 89, 63
1, 209628, Note_on_c, 0, 55, 62
1, 209650, Note_off_c, 0, 46, 62
1, 209655, Note_off_c, 0, 88, 66
1, 209659, Note_on_c, 0, 84, 89
1, 209660, Note_off_c, 0, 55, 64
1, 209670, Note_off_c, 0, 48, 62
1, 209694, Note_off_c, 0, 86, 63
1, 209734, Note_off_c, 0, 84, 66
1, 209752, Note_on_c, 0, 41, 49
1, 209769, Note_on_c, 0, 89, 102
1, 209776, Note_on_c, 0, 48, 37
1, 209777, Note_on_c, 0, 45, 52
1, 209781, Note_on_c, 0, 53, 44
1, 209784, Control_c, 0, 64, 33
1, 209794, Note_off_c, 0, 41, 63
1, 209799, Control_c, 0, 64, 44
1, 209805, Note_off_c, 0, 45, 61
1, 209805, Note_off_c, 0, 48, 53
1, 209808, Note_off_c, 0, 53, 58
1, 209811, Note_off_c, 0, 89, 68
1, 209814, Control_c, 0, 64, 56
1, 209829, Control_c, 0, 64, 63
1, 209843, Control_c, 0, 64, 68
1, 209858, Control_c, 0, 64, 73
1, 209873, Control_c, 0, 64, 78
1, 209888, Control_c, 0, 64, 80
1, 209903, Control_c, 0, 64, 81
1, 209947, Control_c, 0, 64, 80
1, 209976, Control_c, 0, 64, 80
1, 209991, Control_c, 0, 64, 78
1, 210006, Control_c, 0, 64, 74
1, 210021, Control_c, 0, 64, 70
1, 210035, Control_c, 0, 64, 68
1, 210050, Control_c, 0, 64, 66
1, 210066, Control_c, 0, 64, 64
1, 210081, Control_c, 0, 64, 62
1, 210096, Control_c, 0, 64, 60
1, 210111, Control_c, 0, 64, 53
1, 210120, Note_on_c, 0, 81, 95
1, 210126, Control_c, 0, 64, 38
1, 210128, Note_on_c, 0, 45, 64
1, 210130, Note_on_c, 0, 57, 65
1, 210140, Control_c, 0, 64, 0
1, 210289, Control_c, 0, 64, 42
1, 210304, Control_c, 0, 64, 62
1, 210318, Control_c, 0, 64, 65
1, 210333, Control_c, 0, 64, 66
1, 210348, Control_c, 0, 64, 68
1, 210363, Note_off_c, 0, 45, 63
1, 210363, Control_c, 0, 64, 71
1, 210378, Control_c, 0, 64, 75
1, 210382, Note_off_c, 0, 57, 58
1, 210392, Control_c, 0, 64, 79
1, 210407, Control_c, 0, 64, 80
1, 210424, Note_off_c, 0, 81, 59
1, 210444, Control_c, 0, 64, 80
1, 210503, Control_c, 0, 64, 79
1, 210518, Control_c, 0, 64, 78
1, 210533, Control_c, 0, 64, 77
1, 210548, Control_c, 0, 64, 75
1, 210563, Control_c, 0, 64, 73
1, 210578, Control_c, 0, 64, 72
1, 210590, Note_on_c, 0, 61, 68
1, 210592, Control_c, 0, 64, 70
1, 210593, Note_on_c, 0, 73, 83
1, 210595, Note_on_c, 0, 49, 62
1, 210607, Control_c, 0, 64, 68
1, 210622, Control_c, 0, 64, 66
1, 210637, Control_c, 0, 64, 65
1, 210652, Note_off_c, 0, 61, 56
1, 210652, Control_c, 0, 64, 65
1, 210658, Note_off_c, 0, 49, 59
1, 210663, Note_off_c, 0, 73, 60
1, 210711, Control_c, 0, 64, 63
1, 210726, Control_c, 0, 64, 53
1, 210739, Note_on_c, 0, 50, 73
1, 210740, Control_c, 0, 64, 0
1, 210741, Note_on_c, 0, 74, 82
1, 210744, Note_on_c, 0, 62, 71
1, 210798, Note_off_c, 0, 50, 61
1, 210798, Note_off_c, 0, 62, 60
1, 210817, Note_off_c, 0, 74, 62
1, 211091, Note_on_c, 0, 77, 87
1, 211092, Note_on_c, 0, 53, 64
1, 211098, Note_on_c, 0, 65, 65
1, 211207, Control_c, 0, 64, 34
1, 211222, Control_c, 0, 64, 35
1, 211237, Control_c, 0, 64, 45
1, 211252, Control_c, 0, 64, 58
1, 211266, Control_c, 0, 64, 65
1, 211281, Control_c, 0, 64, 71
1, 211296, Control_c, 0, 64, 79
1, 211306, Note_off_c, 0, 65, 56
1, 211311, Control_c, 0, 64, 94
1, 211326, Control_c, 0, 64, 127
1, 211373, Note_off_c, 0, 77, 62
1, 211430, Note_off_c, 0, 53, 53
1, 211562, Control_c, 0, 64, 108
1, 211573, Note_on_c, 0, 57, 61
1, 211576, Note_on_c, 0, 69, 67
1, 211577, Control_c, 0, 64, 99
1, 211592, Control_c, 0, 64, 92
1, 211606, Control_c, 0, 64, 86
1, 211621, Control_c, 0, 64, 82
1, 211623, Note_off_c, 0, 57, 62
1, 211636, Control_c, 0, 64, 78
1, 211637, Note_off_c, 0, 69, 61
1, 211651, Control_c, 0, 64, 74
1, 211667, Control_c, 0, 64, 71
1, 211682, Control_c, 0, 64, 68
1, 211697, Control_c, 0, 64, 65
1, 211705, Note_on_c, 0, 70, 77
1, 211706, Note_on_c, 0, 58, 58
1, 211711, Control_c, 0, 64, 60
1, 211726, Control_c, 0, 64, 55
1, 211737, Note_off_c, 0, 70, 66
1, 211739, Note_off_c, 0, 58, 65
1, 211741, Control_c, 0, 64, 50
1, 211743, Note_on_c, 0, 60, 62
1, 211746, Note_on_c, 0, 72, 72
1, 211756, Control_c, 0, 64, 47
1, 211771, Control_c, 0, 64, 44
1, 211781, Note_off_c, 0, 60, 67
1, 211785, Control_c, 0, 64, 42
1, 211800, Control_c, 0, 64, 40
1, 211804, Note_on_c, 0, 58, 72
1, 211807, Note_on_c, 0, 70, 71
1, 211815, Control_c, 0, 64, 37
1, 211830, Control_c, 0, 64, 34
1, 211845, Control_c, 0, 64, 30
1, 211851, Note_off_c, 0, 72, 62
1, 211852, Note_on_c, 0, 57, 64
1, 211853, Note_on_c, 0, 69, 71
1, 211857, Note_off_c, 0, 58, 57
1, 211860, Control_c, 0, 64, 0
1, 211896, Note_off_c, 0, 70, 64
1, 211904, Note_on_c, 0, 55, 63
1, 211909, Note_on_c, 0, 67, 75
1, 211912, Note_off_c, 0, 57, 62
1, 211940, Note_off_c, 0, 69, 61
1, 211972, Note_on_c, 0, 60, 69
1, 211973, Note_off_c, 0, 55, 62
1, 211985, Note_on_c, 0, 72, 83
1, 211999, Note_off_c, 0, 67, 63
1, 212027, Note_off_c, 0, 60, 65
1, 212039, Note_off_c, 0, 72, 63
1, 212286, Note_on_c, 0, 48, 79
1, 212287, Note_on_c, 0, 60, 78
1, 212287, Note_on_c, 0, 76, 88
1, 212291, Note_on_c, 0, 72, 75
1, 212296, Note_on_c, 0, 67, 74
1, 212339, Note_off_c, 0, 48, 63
1, 212341, Note_off_c, 0, 60, 64
1, 212354, Note_off_c, 0, 67, 64
1, 212364, Note_off_c, 0, 72, 61
1, 212369, Note_off_c, 0, 76, 64
1, 212627, Note_on_c, 0, 77, 83
1, 212628, Note_on_c, 0, 53, 79
1, 212632, Note_on_c, 0, 72, 77
1, 212634, Note_on_c, 0, 69, 75
1, 212635, Note_on_c, 0, 65, 70
1, 212663, Note_off_c, 0, 65, 67
1, 212703, Note_off_c, 0, 53, 61
1, 212710, Note_off_c, 0, 72, 63
1, 212716, Note_off_c, 0, 77, 61
1, 212717, Note_off_c, 0, 69, 58
1, 213055, Note_on_c, 0, 41, 43
1, 213057, Note_on_c, 0, 65, 51
1, 213087, Note_on_c, 0, 53, 12
1, 213132, Note_off_c, 0, 41, 53
1, 213145, Note_off_c, 0, 53, 43
1, 213200, Note_off_c, 0, 65, 46
1, 218977, Control_c, 0, 64, 30
1, 218992, Control_c, 0, 64, 37
1, 219007, Control_c, 0, 64, 42
1, 219021, Control_c, 0, 64, 46
1, 219036, Control_c, 0, 64, 48
1, 219051, Control_c, 0, 64, 48
1, 219080, Control_c, 0, 64, 48
1, 219095, Control_c, 0, 64, 47
1, 219110, Control_c, 0, 64, 46
1, 219154, Control_c, 0, 64, 47
1, 219199, Control_c, 0, 64, 46
1, 219243, Control_c, 0, 64, 47
1, 219273, Control_c, 0, 64, 46
1, 219288, Control_c, 0, 64, 46
1, 219303, Control_c, 0, 64, 45
1, 219318, Control_c, 0, 64, 44
1, 219392, Control_c, 0, 64, 45
1, 219407, Control_c, 0, 64, 45
1, 219428, Control_c, 0, 64, 46
1, 219443, Control_c, 0, 64, 47
1, 219518, Control_c, 0, 64, 47
1, 219577, Control_c, 0, 64, 49
1, 219592, Control_c, 0, 64, 50
1, 219652, Control_c, 0, 64, 49
1, 219667, Control_c, 0, 64, 49
1, 219696, Control_c, 0, 64, 48
1, 219800, Control_c, 0, 64, 49
1, 219874, Control_c, 0, 64, 49
1, 219903, Control_c, 0, 64, 50
1, 220096, Control_c, 0, 64, 50
1, 220111, Control_c, 0, 64, 51
1, 220126, Control_c, 0, 64, 53
1, 220141, Control_c, 0, 64, 54
1, 220156, Control_c, 0, 64, 55
1, 220178, Control_c, 0, 64, 56
1, 220193, Control_c, 0, 64, 58
1, 220208, Control_c, 0, 64, 60
1, 220222, Control_c, 0, 64, 62
1, 220237, Control_c, 0, 64, 63
1, 220341, Control_c, 0, 64, 62
1, 220356, Control_c, 0, 64, 60
1, 220370, Control_c, 0, 64, 59
1, 220385, Control_c, 0, 64, 58
1, 220475, Control_c, 0, 64, 58
1, 220505, Control_c, 0, 64, 57
1, 220519, Control_c, 0, 64, 56
1, 221208, Control_c, 0, 64, 56
1, 221357, Control_c, 0, 64, 55
1, 221491, Control_c, 0, 64, 55
1, 221705, Control_c, 0, 64, 54
1, 222061, Control_c, 0, 64, 55
1, 222298, Control_c, 0, 64, 54
1, 222373, Control_c, 0, 64, 55
1, 222469, Control_c, 0, 64, 54
1, 222647, Control_c, 0, 67, 20
1, 222677, Control_c, 0, 67, 22
1, 222765, Control_c, 0, 64, 55
1, 222795, Control_c, 0, 64, 55
1, 222959, Control_c, 0, 64, 55
1, 223174, Control_c, 0, 67, 24
1, 223189, Control_c, 0, 67, 26
1, 223203, Control_c, 0, 67, 32
1, 223218, Control_c, 0, 67, 37
1, 223233, Control_c, 0, 67, 43
1, 223247, Control_c, 0, 64, 54
1, 223247, Control_c, 0, 67, 49
1, 223262, Control_c, 0, 67, 55
1, 223277, Control_c, 0, 67, 62
1, 223292, Control_c, 0, 67, 70
1, 223307, Control_c, 0, 67, 77
1, 223321, Control_c, 0, 67, 82
1, 223336, Control_c, 0, 67, 83
1, 223366, Control_c, 0, 67, 82
1, 223381, Control_c, 0, 67, 81
1, 223396, Control_c, 0, 67, 79
1, 223411, Control_c, 0, 67, 78
1, 223426, Control_c, 0, 67, 77
1, 223440, Control_c, 0, 67, 77
1, 223455, Control_c, 0, 67, 76
1, 223470, Control_c, 0, 67, 76
1, 223485, Control_c, 0, 67, 75
1, 223500, Control_c, 0, 67, 74
1, 223514, Control_c, 0, 67, 74
1, 223529, Control_c, 0, 67, 73
1, 223544, Control_c, 0, 67, 73
1, 223559, Control_c, 0, 67, 72
1, 223588, Control_c, 0, 67, 72
1, 223603, Control_c, 0, 67, 71
1, 223618, Control_c, 0, 67, 71
1, 223634, Control_c, 0, 67, 70
1, 223649, Control_c, 0, 67, 70
1, 223663, Control_c, 0, 67, 69
1, 223678, Control_c, 0, 67, 66
1, 223693, Control_c, 0, 67, 57
1, 223708, Control_c, 0, 67, 47
1, 223723, Control_c, 0, 67, 39
1, 223737, Control_c, 0, 67, 32
1, 223752, Control_c, 0, 67, 29
1, 224877, Note_on_c, 0, 58, 26
1, 224879, Note_on_c, 0, 70, 56
1, 224953, Control_c, 0, 64, 55
1, 224967, Control_c, 0, 64, 57
1, 224982, Control_c, 0, 64, 59
1, 224997, Control_c, 0, 64, 61
1, 225011, Control_c, 0, 64, 63
1, 225026, Control_c, 0, 64, 65
1, 225026, Control_c, 0, 67, 27
1, 225041, Control_c, 0, 64, 67
1, 225056, Control_c, 0, 64, 70
1, 225071, Control_c, 0, 64, 75
1, 225086, Control_c, 0, 64, 81
1, 225101, Control_c, 0, 64, 89
1, 225116, Control_c, 0, 64, 99
1, 225131, Control_c, 0, 64, 118
1, 225145, Control_c, 0, 64, 127
1, 225306, Note_on_c, 0, 65, 31
1, 225573, Note_on_c, 0, 62, 43
1, 225642, Note_off_c, 0, 65, 42
1, 225831, Note_on_c, 0, 65, 42
1, 225842, Note_off_c, 0, 70, 49
1, 225937, Note_off_c, 0, 62, 39
1, 225972, Note_off_c, 0, 58, 35
1, 226033, Note_off_c, 0, 65, 36
1, 226132, Control_c, 0, 64, 107
1, 226147, Control_c, 0, 64, 97
1, 226150, Note_on_c, 0, 74, 67
1, 226166, Note_on_c, 0, 58, 36
1, 226169, Control_c, 0, 64, 85
1, 226184, Control_c, 0, 64, 74
1, 226198, Control_c, 0, 64, 64
1, 226213, Control_c, 0, 64, 55
1, 226228, Control_c, 0, 64, 46
1, 226243, Control_c, 0, 64, 43
1, 226258, Control_c, 0, 64, 44
1, 226272, Control_c, 0, 64, 47
1, 226287, Control_c, 0, 64, 52
1, 226302, Control_c, 0, 64, 57
1, 226317, Control_c, 0, 64, 62
1, 226332, Control_c, 0, 64, 66
1, 226347, Control_c, 0, 64, 70
1, 226362, Control_c, 0, 64, 75
1, 226377, Control_c, 0, 64, 79
1, 226383, Note_off_c, 0, 74, 54
1, 226391, Control_c, 0, 64, 81
1, 226406, Control_c, 0, 64, 83
1, 226421, Control_c, 0, 64, 84
1, 226436, Control_c, 0, 64, 84
1, 226531, Note_on_c, 0, 65, 36
1, 226612, Note_on_c, 0, 75, 56
1, 226657, Control_c, 0, 64, 84
1, 226672, Control_c, 0, 64, 83
1, 226680, Note_on_c, 0, 74, 59
1, 226687, Control_c, 0, 64, 83
1, 226702, Control_c, 0, 64, 82
1, 226712, Note_off_c, 0, 75, 61
1, 226717, Control_c, 0, 64, 82
1, 226718, Note_off_c, 0, 74, 61
1, 226731, Control_c, 0, 64, 81
1, 226737, Note_on_c, 0, 72, 62
1, 226746, Control_c, 0, 64, 79
1, 226761, Control_c, 0, 64, 77
1, 226776, Control_c, 0, 64, 75
1, 226791, Control_c, 0, 64, 72
1, 226803, Note_on_c, 0, 62, 36
1, 226806, Control_c, 0, 64, 69
1, 226809, Note_on_c, 0, 74, 69
1, 226821, Control_c, 0, 64, 66
1, 226824, Note_off_c, 0, 72, 53
1, 226836, Note_off_c, 0, 65, 19
1, 226836, Control_c, 0, 64, 63
1, 226851, Control_c, 0, 64, 58
1, 226866, Control_c, 0, 64, 53
1, 226880, Control_c, 0, 64, 49
1, 226895, Control_c, 0, 64, 47
1, 226918, Control_c, 0, 64, 44
1, 226933, Control_c, 0, 64, 40
1, 226948, Control_c, 0, 64, 33
1, 226962, Control_c, 0, 64, 0
1, 227088, Note_on_c, 0, 75, 69
1, 227107, Note_on_c, 0, 65, 34
1, 227153, Note_off_c, 0, 62, 35
1, 227190, Note_off_c, 0, 74, 61
1, 227229, Control_c, 0, 64, 40
1, 227244, Control_c, 0, 64, 54
1, 227259, Control_c, 0, 64, 62
1, 227274, Control_c, 0, 64, 64
1, 227288, Control_c, 0, 64, 66
1, 227292, Note_off_c, 0, 58, 40
1, 227303, Control_c, 0, 64, 67
1, 227318, Control_c, 0, 64, 67
1, 227377, Control_c, 0, 64, 67
1, 227392, Control_c, 0, 64, 66
1, 227406, Control_c, 0, 64, 66
1, 227421, Control_c, 0, 64, 65
1, 227423, Note_on_c, 0, 76, 70
1, 227436, Control_c, 0, 64, 63
1, 227450, Note_off_c, 0, 65, 27
1, 227451, Control_c, 0, 64, 62
1, 227453, Note_on_c, 0, 57, 37
1, 227466, Control_c, 0, 64, 60
1, 227480, Control_c, 0, 64, 58
1, 227495, Control_c, 0, 64, 56
1, 227506, Note_off_c, 0, 75, 58
1, 227510, Control_c, 0, 64, 55
1, 227525, Control_c, 0, 64, 53
1, 227539, Control_c, 0, 64, 52
1, 227554, Control_c, 0, 64, 49
1, 227569, Control_c, 0, 64, 46
1, 227585, Control_c, 0, 64, 40
1, 227600, Control_c, 0, 64, 31
1, 227614, Control_c, 0, 64, 0
1, 227756, Note_on_c, 0, 65, 30
1, 227890, Control_c, 0, 64, 42
1, 227905, Control_c, 0, 64, 54
1, 227919, Control_c, 0, 64, 59
1, 227934, Control_c, 0, 64, 61
1, 227949, Control_c, 0, 64, 62
1, 227963, Control_c, 0, 64, 63
1, 227978, Control_c, 0, 64, 63
1, 227993, Control_c, 0, 64, 64
1, 228008, Control_c, 0, 64, 65
1, 228023, Control_c, 0, 64, 65
1, 228030, Note_on_c, 0, 60, 29
1, 228037, Control_c, 0, 64, 66
1, 228056, Note_off_c, 0, 65, 42
1, 228067, Control_c, 0, 64, 66
1, 228136, Note_off_c, 0, 57, 33
1, 228260, Control_c, 0, 64, 66
1, 228304, Control_c, 0, 64, 65
1, 228306, Note_on_c, 0, 77, 49
1, 228317, Note_on_c, 0, 65, 33
1, 228338, Note_off_c, 0, 76, 55
1, 228349, Control_c, 0, 64, 65
1, 228395, Note_off_c, 0, 60, 44
1, 228416, Control_c, 0, 64, 64
1, 228430, Control_c, 0, 64, 64
1, 228460, Control_c, 0, 64, 63
1, 228475, Control_c, 0, 64, 63
1, 228490, Control_c, 0, 64, 62
1, 228520, Control_c, 0, 64, 62
1, 228535, Control_c, 0, 64, 61
1, 228550, Control_c, 0, 64, 60
1, 228565, Control_c, 0, 64, 59
1, 228580, Control_c, 0, 64, 58
1, 228594, Control_c, 0, 64, 57
1, 228609, Control_c, 0, 64, 56
1, 228624, Note_on_c, 0, 57, 34
1, 228624, Control_c, 0, 64, 55
1, 228629, Note_on_c, 0, 72, 44
1, 228639, Control_c, 0, 64, 55
1, 228654, Control_c, 0, 64, 54
1, 228668, Control_c, 0, 64, 54
1, 228669, Note_off_c, 0, 77, 33
1, 228675, Note_off_c, 0, 65, 39
1, 228698, Control_c, 0, 64, 53
1, 228713, Control_c, 0, 64, 53
1, 228728, Control_c, 0, 64, 52
1, 228742, Control_c, 0, 64, 52
1, 228757, Control_c, 0, 64, 51
1, 228772, Control_c, 0, 64, 51
1, 228786, Control_c, 0, 64, 50
1, 228801, Control_c, 0, 64, 50
1, 228816, Control_c, 0, 64, 49
1, 228831, Control_c, 0, 64, 49
1, 228846, Control_c, 0, 64, 48
1, 228860, Control_c, 0, 64, 47
1, 228875, Control_c, 0, 64, 47
1, 228890, Control_c, 0, 64, 45
1, 228904, Control_c, 0, 64, 44
1, 228919, Control_c, 0, 64, 43
1, 228932, Note_on_c, 0, 65, 29
1, 228934, Control_c, 0, 64, 41
1, 228949, Control_c, 0, 64, 39
1, 228964, Control_c, 0, 64, 36
1, 228979, Control_c, 0, 64, 32
1, 228994, Control_c, 0, 64, 29
1, 229009, Control_c, 0, 64, 0
1, 229216, Note_on_c, 0, 60, 34
1, 229259, Note_off_c, 0, 65, 38
1, 229283, Control_c, 0, 67, 24
1, 229298, Control_c, 0, 67, 22
1, 229313, Control_c, 0, 64, 43
1, 229313, Control_c, 0, 67, 0
1, 229328, Control_c, 0, 64, 55
1, 229343, Control_c, 0, 64, 60
1, 229358, Control_c, 0, 64, 63
1, 229360, Note_off_c, 0, 57, 34
1, 229372, Control_c, 0, 64, 64
1, 229387, Control_c, 0, 64, 65
1, 229402, Control_c, 0, 64, 65
1, 229417, Control_c, 0, 64, 66
1, 229432, Control_c, 0, 64, 66
1, 229447, Control_c, 0, 64, 67
1, 229458, Note_off_c, 0, 72, 42
1, 229477, Control_c, 0, 64, 67
1, 229506, Control_c, 0, 64, 68
1, 229520, Note_on_c, 0, 65, 32
1, 229521, Note_off_c, 0, 60, 36
1, 229565, Control_c, 0, 64, 68
1, 229684, Note_off_c, 0, 65, 37
1, 229742, Control_c, 0, 64, 68
1, 229772, Control_c, 0, 64, 67
1, 229787, Note_on_c, 0, 75, 63
1, 229787, Control_c, 0, 64, 67
1, 229802, Control_c, 0, 64, 65
1, 229802, Note_on_c, 0, 55, 44
1, 229817, Control_c, 0, 64, 63
1, 229831, Control_c, 0, 64, 58
1, 229846, Control_c, 0, 64, 51
1, 229861, Control_c, 0, 64, 47
1, 229875, Control_c, 0, 64, 46
1, 229890, Control_c, 0, 64, 47
1, 229912, Control_c, 0, 64, 49
1, 229927, Control_c, 0, 64, 53
1, 229942, Control_c, 0, 64, 57
1, 229957, Control_c, 0, 64, 61
1, 229972, Control_c, 0, 64, 64
1, 229986, Control_c, 0, 64, 66
1, 230001, Control_c, 0, 64, 68
1, 230016, Control_c, 0, 64, 70
1, 230031, Control_c, 0, 64, 72
1, 230046, Control_c, 0, 64, 75
1, 230061, Control_c, 0, 64, 76
1, 230065, Note_off_c, 0, 75, 59
1, 230076, Control_c, 0, 64, 78
1, 230091, Control_c, 0, 64, 78
1, 230136, Note_on_c, 0, 63, 41
1, 230218, Note_on_c, 0, 77, 55
1, 230276, Note_on_c, 0, 75, 61
1, 230284, Note_off_c, 0, 77, 62
1, 230284, Control_c, 0, 64, 78
1, 230306, Note_off_c, 0, 75, 66
1, 230313, Control_c, 0, 64, 75
1, 230323, Note_on_c, 0, 74, 66
1, 230328, Control_c, 0, 64, 71
1, 230343, Control_c, 0, 64, 64
1, 230357, Control_c, 0, 64, 57
1, 230372, Control_c, 0, 64, 52
1, 230383, Note_on_c, 0, 75, 73
1, 230387, Control_c, 0, 64, 50
1, 230396, Note_on_c, 0, 58, 40
1, 230402, Control_c, 0, 64, 51
1, 230404, Note_off_c, 0, 63, 23
1, 230412, Note_off_c, 0, 74, 57
1, 230417, Control_c, 0, 64, 52
1, 230431, Control_c, 0, 64, 55
1, 230446, Control_c, 0, 64, 60
1, 230461, Control_c, 0, 64, 63
1, 230475, Control_c, 0, 64, 65
1, 230490, Control_c, 0, 64, 69
1, 230505, Control_c, 0, 64, 72
1, 230520, Control_c, 0, 64, 75
1, 230535, Control_c, 0, 64, 77
1, 230550, Control_c, 0, 64, 79
1, 230565, Note_off_c, 0, 55, 39
1, 230565, Control_c, 0, 64, 80
1, 230603, Note_off_c, 0, 75, 47
1, 230610, Note_off_c, 0, 58, 62
1, 230624, Control_c, 0, 64, 78
1, 230639, Note_on_c, 0, 77, 75
1, 230639, Control_c, 0, 64, 73
1, 230660, Note_on_c, 0, 63, 47
1, 230662, Control_c, 0, 64, 68
1, 230677, Control_c, 0, 64, 65
1, 230691, Control_c, 0, 64, 65
1, 230721, Control_c, 0, 64, 65
1, 230736, Control_c, 0, 64, 67
1, 230751, Control_c, 0, 64, 70
1, 230765, Control_c, 0, 64, 75
1, 230780, Control_c, 0, 64, 81
1, 230795, Control_c, 0, 64, 87
1, 230810, Control_c, 0, 64, 93
1, 230819, Note_off_c, 0, 63, 38
1, 230825, Control_c, 0, 64, 96
1, 230900, Control_c, 0, 64, 94
1, 230915, Control_c, 0, 64, 91
1, 230929, Control_c, 0, 64, 85
1, 230943, Note_on_c, 0, 79, 80
1, 230944, Control_c, 0, 64, 75
1, 230953, Note_on_c, 0, 51, 45
1, 230959, Control_c, 0, 64, 66
1, 230972, Note_off_c, 0, 77, 54
1, 230973, Control_c, 0, 64, 55
1, 230988, Control_c, 0, 64, 33
1, 231003, Control_c, 0, 64, 0
1, 231122, Control_c, 0, 64, 37
1, 231137, Control_c, 0, 64, 50
1, 231152, Control_c, 0, 64, 60
1, 231167, Control_c, 0, 64, 65
1, 231181, Control_c, 0, 64, 67
1, 231196, Control_c, 0, 64, 70
1, 231200, Note_off_c, 0, 79, 63
1, 231211, Control_c, 0, 64, 72
1, 231226, Control_c, 0, 64, 74
1, 231241, Control_c, 0, 64, 75
1, 231259, Note_on_c, 0, 58, 40
1, 231352, Note_on_c, 0, 81, 69
1, 231411, Control_c, 0, 64, 74
1, 231417, Note_on_c, 0, 79, 75
1, 231426, Control_c, 0, 64, 74
1, 231439, Note_off_c, 0, 81, 62
1, 231441, Control_c, 0, 64, 73
1, 231455, Control_c, 0, 64, 72
1, 231468, Note_off_c, 0, 79, 65
1, 231470, Control_c, 0, 64, 71
1, 231471, Note_on_c, 0, 77, 68
1, 231485, Control_c, 0, 64, 70
1, 231500, Control_c, 0, 64, 69
1, 231514, Control_c, 0, 64, 68
1, 231529, Control_c, 0, 64, 67
1, 231544, Note_on_c, 0, 79, 83
1, 231544, Control_c, 0, 64, 65
1, 231547, Note_on_c, 0, 55, 40
1, 231559, Control_c, 0, 64, 63
1, 231574, Control_c, 0, 64, 62
1, 231580, Note_off_c, 0, 77, 61
1, 231588, Control_c, 0, 64, 62
1, 231594, Note_off_c, 0, 58, 43
1, 231603, Control_c, 0, 64, 61
1, 231618, Control_c, 0, 64, 59
1, 231634, Control_c, 0, 64, 58
1, 231649, Control_c, 0, 64, 57
1, 231664, Control_c, 0, 64, 56
1, 231678, Control_c, 0, 64, 55
1, 231693, Control_c, 0, 64, 54
1, 231708, Control_c, 0, 64, 52
1, 231723, Control_c, 0, 64, 49
1, 231737, Control_c, 0, 64, 40
1, 231752, Control_c, 0, 64, 0
1, 231837, Note_on_c, 0, 81, 79
1, 231853, Note_on_c, 0, 58, 40
1, 231882, Note_off_c, 0, 79, 63
1, 231898, Note_off_c, 0, 55, 42
1, 231930, Control_c, 0, 64, 32
1, 231945, Control_c, 0, 64, 50
1, 231960, Control_c, 0, 64, 60
1, 231975, Control_c, 0, 64, 66
1, 231990, Control_c, 0, 64, 70
1, 232004, Control_c, 0, 64, 75
1, 232019, Control_c, 0, 64, 82
1, 232026, Note_off_c, 0, 51, 29
1, 232031, Note_off_c, 0, 81, 53
1, 232034, Control_c, 0, 64, 89
1, 232048, Control_c, 0, 64, 95
1, 232063, Control_c, 0, 64, 97
1, 232158, Control_c, 0, 64, 95
1, 232173, Control_c, 0, 64, 94
1, 232188, Control_c, 0, 64, 91
1, 232202, Control_c, 0, 64, 88
1, 232217, Control_c, 0, 64, 86
1, 232232, Control_c, 0, 64, 83
1, 232236, Note_on_c, 0, 81, 78
1, 232247, Control_c, 0, 64, 81
1, 232252, Note_on_c, 0, 50, 39
1, 232262, Control_c, 0, 64, 78
1, 232276, Control_c, 0, 64, 75
1, 232291, Control_c, 0, 64, 71
1, 232306, Control_c, 0, 64, 67
1, 232321, Control_c, 0, 64, 63
1, 232326, Note_off_c, 0, 58, 37
1, 232335, Control_c, 0, 64, 58
1, 232350, Control_c, 0, 64, 51
1, 232365, Control_c, 0, 64, 46
1, 232380, Control_c, 0, 64, 42
1, 232395, Control_c, 0, 64, 36
1, 232410, Control_c, 0, 64, 0
1, 232565, Note_on_c, 0, 58, 36
1, 232648, Control_c, 0, 64, 37
1, 232663, Control_c, 0, 64, 44
1, 232677, Control_c, 0, 64, 51
1, 232692, Control_c, 0, 64, 56
1, 232707, Control_c, 0, 64, 59
1, 232722, Control_c, 0, 64, 60
1, 232737, Control_c, 0, 64, 62
1, 232751, Control_c, 0, 64, 63
1, 232766, Control_c, 0, 64, 64
1, 232781, Control_c, 0, 64, 65
1, 232796, Control_c, 0, 64, 66
1, 232811, Control_c, 0, 64, 67
1, 232826, Control_c, 0, 64, 67
1, 232839, Note_on_c, 0, 53, 37
1, 232856, Control_c, 0, 64, 68
1, 232911, Note_off_c, 0, 58, 34
1, 232935, Note_off_c, 0, 50, 31
1, 232967, Control_c, 0, 64, 68
1, 233123, Note_on_c, 0, 82, 65
1, 233143, Note_on_c, 0, 58, 37
1, 233146, Note_off_c, 0, 81, 59
1, 233189, Control_c, 0, 64, 68
1, 233194, Note_off_c, 0, 53, 39
1, 233249, Control_c, 0, 64, 67
1, 233264, Control_c, 0, 64, 67
1, 233294, Control_c, 0, 64, 66
1, 233308, Control_c, 0, 64, 66
1, 233323, Control_c, 0, 64, 65
1, 233338, Control_c, 0, 64, 64
1, 233353, Control_c, 0, 64, 63
1, 233368, Control_c, 0, 64, 62
1, 233382, Control_c, 0, 64, 62
1, 233397, Control_c, 0, 64, 61
1, 233412, Control_c, 0, 64, 60
1, 233427, Control_c, 0, 64, 59
1, 233442, Control_c, 0, 64, 58
1, 233456, Control_c, 0, 64, 58
1, 233474, Note_on_c, 0, 77, 46
1, 233479, Note_on_c, 0, 50, 33
1, 233486, Control_c, 0, 64, 57
1, 233501, Control_c, 0, 64, 56
1, 233509, Note_off_c, 0, 58, 32
1, 233516, Control_c, 0, 64, 56
1, 233531, Control_c, 0, 64, 55
1, 233534, Note_off_c, 0, 82, 32
1, 233546, Control_c, 0, 64, 54
1, 233561, Control_c, 0, 64, 54
1, 233575, Control_c, 0, 64, 53
1, 233590, Control_c, 0, 64, 52
1, 233605, Control_c, 0, 64, 51
1, 233620, Control_c, 0, 64, 50
1, 233635, Control_c, 0, 64, 50
1, 233656, Control_c, 0, 64, 49
1, 233671, Control_c, 0, 64, 48
1, 233686, Control_c, 0, 64, 48
1, 233731, Control_c, 0, 64, 47
1, 233760, Control_c, 0, 64, 47
1, 233776, Note_on_c, 0, 58, 34
1, 233893, Control_c, 0, 64, 46
1, 233908, Control_c, 0, 64, 46
1, 233923, Control_c, 0, 64, 45
1, 233938, Control_c, 0, 64, 44
1, 233953, Control_c, 0, 64, 43
1, 233968, Control_c, 0, 64, 41
1, 233982, Control_c, 0, 64, 38
1, 233997, Control_c, 0, 64, 32
1, 234012, Control_c, 0, 64, 0
1, 234064, Note_on_c, 0, 53, 36
1, 234112, Note_off_c, 0, 50, 30
1, 234132, Note_off_c, 0, 58, 40
1, 234240, Note_off_c, 0, 77, 41
1, 234353, Note_on_c, 0, 58, 42
1, 234588, Note_off_c, 0, 53, 34
1, 234723, Note_on_c, 0, 79, 70
1, 234740, Note_on_c, 0, 51, 32
1, 234801, Note_off_c, 0, 58, 36
1, 235082, Note_on_c, 0, 55, 33
1, 235087, Control_c, 0, 64, 34
1, 235102, Control_c, 0, 64, 44
1, 235117, Control_c, 0, 64, 52
1, 235132, Control_c, 0, 64, 58
1, 235154, Control_c, 0, 64, 60
1, 235169, Control_c, 0, 64, 61
1, 235184, Control_c, 0, 64, 62
1, 235196, Note_off_c, 0, 51, 43
1, 235199, Control_c, 0, 64, 64
1, 235214, Control_c, 0, 64, 65
1, 235228, Control_c, 0, 64, 67
1, 235243, Control_c, 0, 64, 69
1, 235258, Control_c, 0, 64, 72
1, 235272, Control_c, 0, 64, 74
1, 235287, Control_c, 0, 64, 77
1, 235302, Control_c, 0, 64, 80
1, 235317, Control_c, 0, 64, 81
1, 235332, Control_c, 0, 64, 83
1, 235346, Control_c, 0, 64, 83
1, 235393, Note_on_c, 0, 51, 32
1, 235409, Note_off_c, 0, 79, 54
1, 235505, Note_off_c, 0, 55, 41
1, 235683, Note_on_c, 0, 80, 56
1, 235695, Note_on_c, 0, 59, 34
1, 235703, Control_c, 0, 64, 83
1, 235725, Note_off_c, 0, 51, 41
1, 235733, Control_c, 0, 64, 82
1, 235762, Control_c, 0, 64, 82
1, 235777, Control_c, 0, 64, 81
1, 235792, Control_c, 0, 64, 80
1, 235806, Note_on_c, 0, 79, 67
1, 235807, Control_c, 0, 64, 79
1, 235822, Control_c, 0, 64, 78
1, 235836, Control_c, 0, 64, 77
1, 235851, Control_c, 0, 64, 75
1, 235866, Control_c, 0, 64, 74
1, 235881, Control_c, 0, 64, 72
1, 235903, Control_c, 0, 64, 71
1, 235912, Note_off_c, 0, 80, 51
1, 235918, Control_c, 0, 64, 70
1, 235933, Control_c, 0, 64, 68
1, 235948, Control_c, 0, 64, 67
1, 235963, Control_c, 0, 64, 66
1, 235975, Note_on_c, 0, 51, 40
1, 235977, Control_c, 0, 64, 65
1, 235992, Control_c, 0, 64, 64
1, 235993, Note_on_c, 0, 77, 62
1, 236007, Control_c, 0, 64, 63
1, 236022, Control_c, 0, 64, 63
1, 236031, Note_off_c, 0, 59, 41
1, 236037, Control_c, 0, 64, 61
1, 236051, Control_c, 0, 64, 60
1, 236054, Note_off_c, 0, 79, 64
1, 236066, Control_c, 0, 64, 60
1, 236081, Control_c, 0, 64, 59
1, 236095, Control_c, 0, 64, 59
1, 236110, Control_c, 0, 64, 58
1, 236125, Control_c, 0, 64, 58
1, 236140, Control_c, 0, 64, 57
1, 236169, Control_c, 0, 64, 57
1, 236184, Control_c, 0, 64, 56
1, 236214, Control_c, 0, 64, 56
1, 236243, Control_c, 0, 64, 55
1, 236267, Note_on_c, 0, 75, 62
1, 236281, Note_on_c, 0, 60, 38
1, 236316, Note_off_c, 0, 77, 59
1, 236318, Control_c, 0, 64, 55
1, 236369, Note_off_c, 0, 51, 40
1, 236422, Control_c, 0, 64, 54
1, 236452, Control_c, 0, 64, 54
1, 236482, Control_c, 0, 64, 53
1, 236526, Control_c, 0, 64, 53
1, 236556, Note_on_c, 0, 74, 66
1, 236566, Note_on_c, 0, 51, 33
1, 236585, Control_c, 0, 64, 52
1, 236610, Note_off_c, 0, 75, 54
1, 236615, Control_c, 0, 64, 52
1, 236630, Control_c, 0, 64, 51
1, 236652, Control_c, 0, 64, 50
1, 236667, Control_c, 0, 64, 50
1, 236682, Control_c, 0, 64, 49
1, 236687, Note_off_c, 0, 60, 41
1, 236697, Control_c, 0, 64, 48
1, 236711, Control_c, 0, 64, 46
1, 236726, Control_c, 0, 64, 43
1, 236741, Control_c, 0, 64, 39
1, 236756, Control_c, 0, 64, 32
1, 236771, Control_c, 0, 64, 0
1, 236851, Note_on_c, 0, 72, 59
1, 236854, Note_on_c, 0, 63, 38
1, 236881, Note_off_c, 0, 74, 58
1, 236914, Note_off_c, 0, 51, 45
1, 236948, Control_c, 0, 64, 33
1, 236963, Control_c, 0, 64, 51
1, 236978, Control_c, 0, 64, 62
1, 236992, Control_c, 0, 64, 67
1, 237007, Control_c, 0, 64, 72
1, 237022, Control_c, 0, 64, 77
1, 237037, Control_c, 0, 64, 79
1, 237051, Control_c, 0, 64, 80
1, 237053, Note_off_c, 0, 63, 49
1, 237066, Control_c, 0, 64, 81
1, 237119, Note_off_c, 0, 72, 20
1, 237156, Control_c, 0, 64, 80
1, 237185, Control_c, 0, 64, 79
1, 237200, Control_c, 0, 64, 78
1, 237215, Note_on_c, 0, 76, 62
1, 237215, Control_c, 0, 64, 76
1, 237226, Note_on_c, 0, 50, 36
1, 237230, Control_c, 0, 64, 74
1, 237245, Control_c, 0, 64, 72
1, 237260, Control_c, 0, 64, 70
1, 237275, Control_c, 0, 64, 68
1, 237290, Control_c, 0, 64, 65
1, 237305, Control_c, 0, 64, 63
1, 237320, Control_c, 0, 64, 60
1, 237334, Control_c, 0, 64, 58
1, 237349, Control_c, 0, 64, 56
1, 237364, Control_c, 0, 64, 54
1, 237379, Control_c, 0, 64, 53
1, 237401, Control_c, 0, 64, 52
1, 237416, Control_c, 0, 64, 51
1, 237430, Control_c, 0, 64, 51
1, 237445, Control_c, 0, 64, 50
1, 237489, Control_c, 0, 64, 49
1, 237504, Control_c, 0, 64, 49
1, 237519, Control_c, 0, 64, 48
1, 237534, Control_c, 0, 64, 47
1, 237549, Control_c, 0, 64, 47
1, 237570, Note_on_c, 0, 53, 28
1, 237575, Note_on_c, 0, 77, 51
1, 237579, Control_c, 0, 64, 46
1, 237609, Control_c, 0, 64, 46
1, 237623, Note_off_c, 0, 50, 40
1, 237623, Control_c, 0, 64, 45
1, 237638, Control_c, 0, 64, 44
1, 237653, Control_c, 0, 64, 43
1, 237667, Control_c, 0, 64, 42
1, 237679, Note_off_c, 0, 76, 55
1, 237682, Control_c, 0, 64, 40
1, 237697, Control_c, 0, 64, 38
1, 237712, Control_c, 0, 64, 34
1, 237727, Control_c, 0, 64, 0
1, 237874, Note_on_c, 0, 50, 33
1, 237904, Control_c, 0, 64, 29
1, 237919, Control_c, 0, 64, 45
1, 237934, Control_c, 0, 64, 56
1, 237948, Control_c, 0, 64, 61
1, 237963, Control_c, 0, 64, 64
1, 237978, Note_off_c, 0, 53, 40
1, 237978, Control_c, 0, 64, 67
1, 237984, Note_off_c, 0, 77, 54
1, 237993, Control_c, 0, 64, 69
1, 238008, Control_c, 0, 64, 72
1, 238024, Control_c, 0, 64, 75
1, 238038, Control_c, 0, 64, 76
1, 238151, Control_c, 0, 64, 76
1, 238166, Control_c, 0, 64, 75
1, 238172, Note_on_c, 0, 79, 55
1, 238180, Control_c, 0, 64, 74
1, 238193, Note_on_c, 0, 57, 28
1, 238195, Control_c, 0, 64, 73
1, 238210, Control_c, 0, 64, 72
1, 238224, Control_c, 0, 64, 70
1, 238237, Note_off_c, 0, 50, 24
1, 238239, Control_c, 0, 64, 69
1, 238254, Control_c, 0, 64, 68
1, 238269, Control_c, 0, 64, 67
1, 238284, Control_c, 0, 64, 66
1, 238296, Note_on_c, 0, 77, 60
1, 238298, Control_c, 0, 64, 65
1, 238313, Control_c, 0, 64, 64
1, 238328, Control_c, 0, 64, 63
1, 238343, Control_c, 0, 64, 62
1, 238358, Control_c, 0, 64, 62
1, 238372, Control_c, 0, 64, 61
1, 238387, Control_c, 0, 64, 61
1, 238402, Control_c, 0, 64, 60
1, 238415, Note_off_c, 0, 79, 37
1, 238416, Control_c, 0, 64, 60
1, 238431, Control_c, 0, 64, 59
1, 238446, Control_c, 0, 64, 58
1, 238474, Note_on_c, 0, 75, 64
1, 238476, Control_c, 0, 64, 58
1, 238478, Note_on_c, 0, 50, 33
1, 238491, Control_c, 0, 64, 57
1, 238506, Control_c, 0, 64, 57
1, 238521, Control_c, 0, 64, 56
1, 238551, Control_c, 0, 64, 56
1, 238554, Note_off_c, 0, 77, 54
1, 238580, Control_c, 0, 64, 55
1, 238595, Control_c, 0, 64, 55
1, 238596, Note_off_c, 0, 57, 36
1, 238624, Control_c, 0, 64, 54
1, 238654, Control_c, 0, 64, 54
1, 238669, Control_c, 0, 64, 53
1, 238698, Control_c, 0, 64, 53
1, 238728, Control_c, 0, 64, 52
1, 238743, Control_c, 0, 64, 52
1, 238759, Note_on_c, 0, 74, 67
1, 238764, Note_on_c, 0, 58, 41
1, 238802, Control_c, 0, 64, 51
1, 238847, Note_off_c, 0, 50, 41
1, 238849, Note_off_c, 0, 75, 49
1, 238899, Control_c, 0, 64, 51
1, 239003, Control_c, 0, 64, 50
1, 239033, Control_c, 0, 64, 50
1, 239060, Note_on_c, 0, 72, 56
1, 239061, Note_on_c, 0, 50, 38
1, 239077, Note_off_c, 0, 74, 59
1, 239115, Note_off_c, 0, 58, 41
1, 239121, Control_c, 0, 64, 49
1, 239181, Control_c, 0, 64, 49
1, 239210, Control_c, 0, 64, 48
1, 239225, Control_c, 0, 64, 45
1, 239239, Control_c, 0, 64, 39
1, 239254, Control_c, 0, 64, 0
1, 239341, Note_on_c, 0, 70, 57
1, 239360, Note_on_c, 0, 62, 33
1, 239366, Note_off_c, 0, 72, 58
1, 239386, Note_off_c, 0, 50, 42
1, 239418, Control_c, 0, 64, 33
1, 239433, Control_c, 0, 64, 50
1, 239447, Control_c, 0, 64, 61
1, 239462, Control_c, 0, 64, 66
1, 239468, Note_off_c, 0, 62, 48
1, 239477, Control_c, 0, 64, 71
1, 239485, Note_off_c, 0, 70, 63
1, 239492, Control_c, 0, 64, 76
1, 239506, Control_c, 0, 64, 79
1, 239521, Control_c, 0, 64, 82
1, 239536, Control_c, 0, 64, 83
1, 239611, Control_c, 0, 64, 82
1, 239626, Control_c, 0, 64, 81
1, 239648, Control_c, 0, 64, 78
1, 239663, Control_c, 0, 64, 75
1, 239677, Control_c, 0, 64, 72
1, 239692, Control_c, 0, 64, 68
1, 239704, Note_on_c, 0, 77, 65
1, 239707, Control_c, 0, 64, 65
1, 239711, Note_on_c, 0, 57, 33
1, 239722, Control_c, 0, 64, 63
1, 239737, Control_c, 0, 64, 62
1, 239752, Control_c, 0, 64, 61
1, 239767, Control_c, 0, 64, 60
1, 239782, Control_c, 0, 64, 59
1, 239797, Control_c, 0, 64, 57
1, 239812, Control_c, 0, 64, 56
1, 239826, Control_c, 0, 64, 55
1, 239841, Control_c, 0, 64, 54
1, 239870, Control_c, 0, 64, 53
1, 239885, Control_c, 0, 64, 53
1, 239900, Control_c, 0, 64, 52
1, 239915, Control_c, 0, 64, 52
1, 239930, Control_c, 0, 64, 51
1, 239944, Control_c, 0, 64, 51
1, 239959, Control_c, 0, 64, 50
1, 239974, Control_c, 0, 64, 50
1, 239988, Control_c, 0, 64, 49
1, 240003, Control_c, 0, 64, 49
1, 240018, Control_c, 0, 64, 48
1, 240033, Control_c, 0, 64, 48
1, 240048, Control_c, 0, 64, 47
1, 240054, Note_on_c, 0, 75, 55
1, 240062, Control_c, 0, 64, 47
1, 240074, Note_on_c, 0, 65, 34
1, 240092, Control_c, 0, 64, 46
1, 240122, Control_c, 0, 64, 45
1, 240151, Control_c, 0, 64, 45
1, 240160, Note_off_c, 0, 77, 55
1, 240166, Control_c, 0, 64, 44
1, 240181, Control_c, 0, 64, 44
1, 240196, Control_c, 0, 64, 43
1, 240211, Control_c, 0, 64, 42
1, 240226, Control_c, 0, 64, 41
1, 240241, Control_c, 0, 64, 39
1, 240256, Control_c, 0, 64, 34
1, 240270, Control_c, 0, 64, 0
1, 240331, Note_on_c, 0, 60, 37
1, 240441, Control_c, 0, 64, 32
1, 240455, Note_off_c, 0, 65, 43
1, 240456, Control_c, 0, 64, 47
1, 240471, Control_c, 0, 64, 58
1, 240485, Control_c, 0, 64, 63
1, 240500, Control_c, 0, 64, 65
1, 240515, Control_c, 0, 64, 67
1, 240530, Control_c, 0, 64, 68
1, 240545, Control_c, 0, 64, 70
1, 240560, Control_c, 0, 64, 71
1, 240575, Control_c, 0, 64, 71
1, 240604, Control_c, 0, 64, 72
1, 240611, Note_on_c, 0, 72, 63
1, 240612, Note_on_c, 0, 65, 37
1, 240668, Note_off_c, 0, 75, 37
1, 240669, Note_off_c, 0, 57, 39
1, 240721, Note_off_c, 0, 60, 43
1, 240738, Control_c, 0, 64, 71
1, 240767, Control_c, 0, 64, 71
1, 240782, Control_c, 0, 64, 70
1, 240797, Control_c, 0, 64, 70
1, 240811, Control_c, 0, 64, 68
1, 240826, Control_c, 0, 64, 67
1, 240841, Control_c, 0, 64, 66
1, 240846, Note_off_c, 0, 65, 38
1, 240856, Control_c, 0, 64, 64
1, 240871, Control_c, 0, 64, 63
1, 240885, Control_c, 0, 64, 62
1, 240900, Control_c, 0, 64, 61
1, 240915, Control_c, 0, 64, 59
1, 240930, Control_c, 0, 64, 58
1, 240944, Note_on_c, 0, 75, 68
1, 240945, Control_c, 0, 64, 56
1, 240959, Control_c, 0, 64, 55
1, 240965, Note_on_c, 0, 58, 35
1, 240974, Control_c, 0, 64, 54
1, 240989, Control_c, 0, 64, 53
1, 241004, Control_c, 0, 64, 51
1, 241019, Control_c, 0, 64, 50
1, 241034, Control_c, 0, 64, 49
1, 241049, Control_c, 0, 64, 48
1, 241052, Note_off_c, 0, 72, 56
1, 241064, Control_c, 0, 64, 46
1, 241078, Control_c, 0, 64, 45
1, 241093, Control_c, 0, 64, 44
1, 241108, Control_c, 0, 64, 43
1, 241123, Control_c, 0, 64, 42
1, 241144, Control_c, 0, 64, 41
1, 241159, Control_c, 0, 64, 40
1, 241174, Control_c, 0, 64, 38
1, 241189, Control_c, 0, 64, 37
1, 241204, Control_c, 0, 64, 35
1, 241220, Control_c, 0, 64, 33
1, 241234, Control_c, 0, 64, 31
1, 241249, Control_c, 0, 64, 0
1, 241310, Note_on_c, 0, 74, 56
1, 241322, Note_on_c, 0, 65, 27
1, 241378, Note_off_c, 0, 75, 57
1, 241582, Note_on_c, 0, 62, 36
1, 241629, Note_off_c, 0, 65, 39
1, 241679, Control_c, 0, 64, 39
1, 241694, Control_c, 0, 64, 52
1, 241708, Control_c, 0, 64, 60
1, 241723, Control_c, 0, 64, 63
1, 241738, Control_c, 0, 64, 64
1, 241753, Control_c, 0, 64, 65
1, 241767, Control_c, 0, 64, 66
1, 241782, Control_c, 0, 64, 68
1, 241797, Control_c, 0, 64, 69
1, 241812, Control_c, 0, 64, 71
1, 241827, Control_c, 0, 64, 72
1, 241842, Control_c, 0, 64, 73
1, 241856, Control_c, 0, 64, 75
1, 241862, Note_on_c, 0, 70, 52
1, 241870, Note_off_c, 0, 62, 38
1, 241871, Control_c, 0, 64, 76
1, 241886, Note_on_c, 0, 65, 35
1, 241892, Note_off_c, 0, 58, 41
1, 241894, Control_c, 0, 64, 78
1, 241898, Note_off_c, 0, 74, 40
1, 241909, Control_c, 0, 64, 80
1, 241923, Control_c, 0, 64, 82
1, 241938, Control_c, 0, 64, 83
1, 241953, Control_c, 0, 64, 83
1, 241967, Control_c, 0, 64, 84
1, 241991, Note_off_c, 0, 65, 39
1, 242117, Control_c, 0, 64, 83
1, 242132, Control_c, 0, 64, 82
1, 242141, Note_off_c, 0, 70, 40
1, 242146, Control_c, 0, 64, 80
1, 242161, Control_c, 0, 64, 79
1, 242176, Control_c, 0, 64, 77
1, 242182, Note_on_c, 0, 74, 58
1, 242190, Note_on_c, 0, 53, 35
1, 242191, Control_c, 0, 64, 75
1, 242206, Control_c, 0, 64, 70
1, 242221, Control_c, 0, 64, 64
1, 242236, Control_c, 0, 64, 58
1, 242251, Control_c, 0, 64, 51
1, 242265, Control_c, 0, 64, 47
1, 242280, Control_c, 0, 64, 46
1, 242295, Control_c, 0, 64, 47
1, 242310, Control_c, 0, 64, 48
1, 242325, Control_c, 0, 64, 50
1, 242339, Control_c, 0, 64, 50
1, 242369, Control_c, 0, 64, 51
1, 242429, Control_c, 0, 64, 50
1, 242473, Control_c, 0, 64, 50
1, 242518, Control_c, 0, 64, 49
1, 242537, Poly_aftertouch_c, 0, 62, 127
1, 242547, Control_c, 0, 64, 49
1, 242562, Control_c, 0, 64, 48
1, 242577, Control_c, 0, 64, 47
1, 242591, Control_c, 0, 64, 45
1, 242606, Control_c, 0, 64, 41
1, 242621, Control_c, 0, 64, 36
1, 242643, Control_c, 0, 64, 0
1, 242776, Note_on_c, 0, 58, 30
1, 242791, Control_c, 0, 64, 33
1, 242806, Control_c, 0, 64, 44
1, 242822, Control_c, 0, 64, 54
1, 242837, Control_c, 0, 64, 60
1, 242847, Poly_aftertouch_c, 0, 62, 0
1, 242852, Control_c, 0, 64, 63
1, 242867, Control_c, 0, 64, 64
1, 242882, Control_c, 0, 64, 66
1, 242896, Control_c, 0, 64, 69
1, 242911, Control_c, 0, 64, 73
1, 242926, Control_c, 0, 64, 76
1, 242937, Note_off_c, 0, 74, 54
1, 242941, Control_c, 0, 64, 79
1, 242956, Control_c, 0, 64, 80
1, 242970, Control_c, 0, 64, 81
1, 243084, Note_on_c, 0, 62, 34
1, 243088, Control_c, 0, 64, 80
1, 243101, Note_on_c, 0, 75, 46
1, 243132, Control_c, 0, 64, 80
1, 243144, Note_off_c, 0, 58, 30
1, 243147, Control_c, 0, 64, 79
1, 243162, Control_c, 0, 64, 79
1, 243171, Note_off_c, 0, 53, 11
1, 243177, Control_c, 0, 64, 78
1, 243192, Control_c, 0, 64, 78
1, 243207, Control_c, 0, 64, 77
1, 243222, Control_c, 0, 64, 76
1, 243233, Note_on_c, 0, 74, 63
1, 243237, Control_c, 0, 64, 75
1, 243252, Control_c, 0, 64, 74
1, 243266, Control_c, 0, 64, 73
1, 243281, Control_c, 0, 64, 72
1, 243294, Note_off_c, 0, 75, 55
1, 243296, Control_c, 0, 64, 70
1, 243308, Note_off_c, 0, 62, 35
1, 243311, Control_c, 0, 64, 68
1, 243326, Control_c, 0, 64, 66
1, 243341, Control_c, 0, 64, 63
1, 243356, Control_c, 0, 64, 60
1, 243371, Control_c, 0, 64, 56
1, 243393, Control_c, 0, 64, 53
1, 243408, Control_c, 0, 64, 49
1, 243418, Note_on_c, 0, 72, 60
1, 243422, Control_c, 0, 64, 47
1, 243437, Control_c, 0, 64, 47
1, 243446, Note_on_c, 0, 60, 25
1, 243448, Note_on_c, 0, 57, 23
1, 243452, Control_c, 0, 64, 46
1, 243454, Note_off_c, 0, 74, 57
1, 243456, Note_on_c, 0, 53, 29
1, 243482, Control_c, 0, 64, 47
1, 243496, Control_c, 0, 64, 47
1, 243511, Control_c, 0, 64, 49
1, 243526, Control_c, 0, 64, 51
1, 243541, Control_c, 0, 64, 53
1, 243556, Control_c, 0, 64, 56
1, 243570, Control_c, 0, 64, 59
1, 243585, Control_c, 0, 64, 61
1, 243600, Control_c, 0, 64, 64
1, 243604, Note_off_c, 0, 72, 60
1, 243616, Control_c, 0, 64, 66
1, 243631, Control_c, 0, 64, 67
1, 243705, Control_c, 0, 64, 66
1, 243720, Control_c, 0, 64, 66
1, 243734, Control_c, 0, 64, 65
1, 243749, Control_c, 0, 64, 64
1, 243764, Control_c, 0, 64, 62
1, 243779, Control_c, 0, 64, 60
1, 243784, Note_on_c, 0, 77, 54
1, 243794, Control_c, 0, 64, 58
1, 243809, Control_c, 0, 64, 57
1, 243824, Control_c, 0, 64, 56
1, 243838, Control_c, 0, 64, 55
1, 243853, Control_c, 0, 64, 54
1, 243868, Control_c, 0, 64, 52
1, 243883, Control_c, 0, 64, 51
1, 243898, Control_c, 0, 64, 50
1, 243912, Control_c, 0, 64, 48
1, 243927, Control_c, 0, 64, 46
1, 243942, Control_c, 0, 64, 44
1, 243948, Note_off_c, 0, 53, 44
1, 243956, Control_c, 0, 64, 42
1, 243971, Control_c, 0, 64, 40
1, 243973, Note_off_c, 0, 57, 36
1, 243986, Control_c, 0, 64, 39
1, 243986, Control_c, 0, 67, 20
1, 244001, Control_c, 0, 64, 37
1, 244001, Control_c, 0, 67, 23
1, 244012, Note_off_c, 0, 60, 47
1, 244016, Control_c, 0, 67, 26
1, 244030, Control_c, 0, 64, 37
1, 244030, Control_c, 0, 67, 31
1, 244045, Control_c, 0, 64, 36
1, 244045, Control_c, 0, 67, 38
1, 244059, Control_c, 0, 64, 35
1, 244059, Control_c, 0, 67, 47
1, 244074, Control_c, 0, 67, 56
1, 244089, Control_c, 0, 64, 34
1, 244089, Control_c, 0, 67, 66
1, 244104, Control_c, 0, 64, 34
1, 244104, Control_c, 0, 67, 76
1, 244119, Control_c, 0, 67, 86
1, 244122, Note_on_c, 0, 75, 45
1, 244141, Control_c, 0, 64, 33
1, 244141, Control_c, 0, 67, 94
1, 244155, Control_c, 0, 64, 32
1, 244155, Control_c, 0, 67, 101
1, 244170, Control_c, 0, 67, 105
1, 244185, Control_c, 0, 64, 32
1, 244240, Note_off_c, 0, 77, 39
1, 244259, Control_c, 0, 64, 30
1, 244304, Control_c, 0, 64, 0
1, 244449, Note_on_c, 0, 72, 42
1, 244502, Note_off_c, 0, 75, 49
1, 244586, Control_c, 0, 64, 36
1, 244601, Control_c, 0, 64, 49
1, 244601, Control_c, 0, 67, 107
1, 244616, Control_c, 0, 64, 57
1, 244631, Control_c, 0, 64, 61
1, 244631, Control_c, 0, 67, 110
1, 244646, Control_c, 0, 64, 63
1, 244646, Control_c, 0, 67, 120
1, 244660, Control_c, 0, 64, 65
1, 244660, Control_c, 0, 67, 127
1, 244675, Control_c, 0, 64, 66
1, 244690, Control_c, 0, 64, 68
1, 244691, Note_off_c, 0, 72, 56
1, 244705, Control_c, 0, 64, 70
1, 244720, Control_c, 0, 64, 71
1, 244749, Control_c, 0, 64, 71
1, 244808, Control_c, 0, 64, 71
1, 244823, Control_c, 0, 64, 70
1, 244828, Note_on_c, 0, 70, 48
1, 244838, Control_c, 0, 64, 67
1, 244840, Note_on_c, 0, 58, 37
1, 244852, Control_c, 0, 64, 63
1, 244867, Control_c, 0, 64, 57
1, 244890, Control_c, 0, 64, 49
1, 244905, Control_c, 0, 64, 41
1, 244919, Control_c, 0, 64, 36
1, 244934, Control_c, 0, 64, 35
1, 244949, Control_c, 0, 64, 37
1, 244964, Control_c, 0, 64, 43
1, 244979, Control_c, 0, 64, 50
1, 244993, Control_c, 0, 64, 57
1, 245008, Control_c, 0, 64, 63
1, 245023, Control_c, 0, 64, 65
1, 245038, Control_c, 0, 64, 67
1, 245046, Note_off_c, 0, 70, 51
1, 245052, Control_c, 0, 64, 69
1, 245067, Control_c, 0, 64, 70
1, 245082, Control_c, 0, 64, 71
1, 245097, Control_c, 0, 64, 71
1, 245219, Note_on_c, 0, 65, 32
1, 245290, Control_c, 0, 64, 71
1, 245322, Note_on_c, 0, 72, 36
1, 245335, Control_c, 0, 64, 70
1, 245365, Control_c, 0, 64, 70
1, 245384, Note_on_c, 0, 70, 52
1, 245389, Note_off_c, 0, 72, 60
1, 245395, Control_c, 0, 64, 69
1, 245421, Note_off_c, 0, 70, 64
1, 245424, Control_c, 0, 64, 69
1, 245430, Note_off_c, 0, 65, 37
1, 245439, Control_c, 0, 64, 68
1, 245440, Note_on_c, 0, 69, 50
1, 245454, Control_c, 0, 64, 68
1, 245469, Control_c, 0, 64, 66
1, 245483, Control_c, 0, 64, 65
1, 245498, Control_c, 0, 64, 62
1, 245508, Note_on_c, 0, 61, 43
1, 245513, Control_c, 0, 64, 59
1, 245517, Note_on_c, 0, 70, 53
1, 245527, Control_c, 0, 64, 55
1, 245529, Note_off_c, 0, 69, 50
1, 245542, Control_c, 0, 64, 53
1, 245558, Control_c, 0, 64, 51
1, 245602, Control_c, 0, 64, 52
1, 245617, Control_c, 0, 64, 54
1, 245639, Control_c, 0, 64, 56
1, 245654, Control_c, 0, 64, 60
1, 245669, Control_c, 0, 64, 62
1, 245684, Control_c, 0, 64, 64
1, 245699, Control_c, 0, 64, 66
1, 245714, Control_c, 0, 64, 67
1, 245758, Control_c, 0, 64, 66
1, 245773, Control_c, 0, 64, 62
1, 245788, Control_c, 0, 64, 55
1, 245803, Control_c, 0, 64, 43
1, 245812, Note_on_c, 0, 72, 59
1, 245817, Control_c, 0, 64, 31
1, 245825, Note_on_c, 0, 65, 36
1, 245832, Control_c, 0, 64, 0
1, 245859, Note_off_c, 0, 61, 35
1, 245872, Note_off_c, 0, 70, 60
1, 245906, Control_c, 0, 64, 29
1, 245921, Control_c, 0, 64, 41
1, 245935, Control_c, 0, 64, 52
1, 245944, Note_off_c, 0, 58, 38
1, 245950, Control_c, 0, 64, 59
1, 245965, Control_c, 0, 64, 63
1, 245980, Control_c, 0, 64, 64
1, 245995, Control_c, 0, 64, 65
1, 246011, Control_c, 0, 64, 66
1, 246055, Control_c, 0, 64, 66
1, 246070, Control_c, 0, 64, 65
1, 246085, Control_c, 0, 64, 64
1, 246097, Note_off_c, 0, 65, 31
1, 246100, Control_c, 0, 64, 61
1, 246114, Control_c, 0, 64, 55
1, 246126, Note_on_c, 0, 73, 59
1, 246129, Control_c, 0, 64, 44
1, 246135, Note_on_c, 0, 58, 40
1, 246144, Control_c, 0, 64, 0
1, 246148, Note_off_c, 0, 72, 53
1, 246277, Control_c, 0, 64, 41
1, 246292, Control_c, 0, 64, 55
1, 246305, Control_c, 0, 64, 62
1, 246320, Control_c, 0, 64, 65
1, 246335, Control_c, 0, 64, 67
1, 246349, Control_c, 0, 64, 69
1, 246351, Note_off_c, 0, 73, 56
1, 246364, Control_c, 0, 64, 70
1, 246387, Control_c, 0, 64, 72
1, 246402, Control_c, 0, 64, 73
1, 246490, Note_on_c, 0, 65, 40
1, 246520, Control_c, 0, 64, 72
1, 246552, Note_on_c, 0, 75, 51
1, 246564, Control_c, 0, 64, 72
1, 246594, Control_c, 0, 64, 71
1, 246609, Control_c, 0, 64, 71
1, 246621, Note_on_c, 0, 73, 62
1, 246624, Control_c, 0, 64, 70
1, 246638, Control_c, 0, 64, 70
1, 246641, Note_off_c, 0, 75, 59
1, 246653, Note_off_c, 0, 73, 65
1, 246653, Control_c, 0, 64, 69
1, 246668, Control_c, 0, 64, 68
1, 246680, Note_on_c, 0, 72, 57
1, 246683, Control_c, 0, 64, 66
1, 246697, Control_c, 0, 64, 64
1, 246712, Control_c, 0, 64, 62
1, 246727, Control_c, 0, 64, 59
1, 246742, Control_c, 0, 64, 57
1, 246745, Note_on_c, 0, 73, 69
1, 246757, Note_on_c, 0, 61, 40
1, 246757, Control_c, 0, 64, 56
1, 246767, Note_off_c, 0, 72, 58
1, 246772, Control_c, 0, 64, 55
1, 246787, Control_c, 0, 64, 54
1, 246802, Control_c, 0, 64, 53
1, 246817, Control_c, 0, 64, 52
1, 246829, Note_off_c, 0, 65, 37
1, 246832, Control_c, 0, 64, 51
1, 246846, Control_c, 0, 64, 50
1, 246861, Control_c, 0, 64, 50
1, 246891, Control_c, 0, 64, 49
1, 246906, Control_c, 0, 64, 49
1, 246921, Control_c, 0, 64, 48
1, 246936, Control_c, 0, 64, 48
1, 246966, Control_c, 0, 64, 47
1, 246980, Control_c, 0, 64, 47
1, 246995, Control_c, 0, 64, 46
1, 247025, Control_c, 0, 64, 46
1, 247030, Note_on_c, 0, 75, 68
1, 247052, Note_on_c, 0, 65, 32
1, 247054, Control_c, 0, 64, 45
1, 247069, Control_c, 0, 64, 45
1, 247084, Control_c, 0, 64, 44
1, 247098, Control_c, 0, 64, 44
1, 247110, Note_off_c, 0, 61, 33
1, 247113, Control_c, 0, 64, 43
1, 247133, Note_off_c, 0, 73, 58
1, 247136, Control_c, 0, 64, 42
1, 247151, Control_c, 0, 64, 42
1, 247165, Control_c, 0, 64, 41
1, 247180, Control_c, 0, 64, 40
1, 247195, Control_c, 0, 64, 39
1, 247210, Control_c, 0, 64, 38
1, 247225, Control_c, 0, 64, 37
1, 247240, Control_c, 0, 64, 36
1, 247254, Control_c, 0, 64, 35
1, 247269, Control_c, 0, 64, 34
1, 247284, Control_c, 0, 64, 34
1, 247299, Control_c, 0, 64, 33
1, 247313, Control_c, 0, 64, 32
1, 247328, Control_c, 0, 64, 32
1, 247353, Note_off_c, 0, 65, 33
1, 247373, Control_c, 0, 64, 30
1, 247417, Note_on_c, 0, 76, 66
1, 247428, Note_on_c, 0, 56, 38
1, 247461, Control_c, 0, 64, 0
1, 247512, Note_off_c, 0, 75, 55
1, 247530, Note_off_c, 0, 58, 43
1, 247761, Note_on_c, 0, 65, 34
1, 247900, Control_c, 0, 64, 34
1, 247915, Control_c, 0, 64, 43
1, 247929, Control_c, 0, 64, 51
1, 247944, Control_c, 0, 64, 56
1, 247959, Control_c, 0, 64, 58
1, 247974, Control_c, 0, 64, 58
1, 247989, Control_c, 0, 64, 59
1, 248003, Control_c, 0, 64, 59
1, 248018, Control_c, 0, 64, 60
1, 248033, Control_c, 0, 64, 60
1, 248036, Note_on_c, 0, 60, 30
1, 248048, Control_c, 0, 64, 61
1, 248063, Control_c, 0, 64, 61
1, 248078, Control_c, 0, 64, 62
1, 248092, Note_off_c, 0, 65, 39
1, 248107, Control_c, 0, 64, 62
1, 248125, Note_off_c, 0, 56, 40
1, 248152, Control_c, 0, 64, 63
1, 248339, Note_on_c, 0, 77, 48
1, 248349, Note_on_c, 0, 65, 31
1, 248364, Note_off_c, 0, 76, 55
1, 248389, Control_c, 0, 64, 62
1, 248432, Note_off_c, 0, 60, 45
1, 248434, Control_c, 0, 64, 62
1, 248479, Control_c, 0, 64, 61
1, 248494, Control_c, 0, 64, 61
1, 248508, Control_c, 0, 64, 60
1, 248523, Control_c, 0, 64, 60
1, 248538, Control_c, 0, 64, 59
1, 248552, Control_c, 0, 64, 58
1, 248567, Control_c, 0, 64, 58
1, 248582, Control_c, 0, 64, 57
1, 248597, Control_c, 0, 64, 55
1, 248612, Control_c, 0, 64, 54
1, 248634, Control_c, 0, 64, 53
1, 248649, Control_c, 0, 64, 52
1, 248659, Note_on_c, 0, 56, 36
1, 248664, Control_c, 0, 64, 51
1, 248667, Note_on_c, 0, 72, 42
1, 248678, Control_c, 0, 64, 50
1, 248693, Control_c, 0, 64, 48
1, 248708, Control_c, 0, 64, 47
1, 248723, Control_c, 0, 64, 44
1, 248738, Control_c, 0, 64, 42
1, 248742, Note_off_c, 0, 65, 38
1, 248749, Note_off_c, 0, 77, 40
1, 248752, Control_c, 0, 64, 39
1, 248767, Control_c, 0, 64, 36
1, 248782, Control_c, 0, 64, 33
1, 248797, Control_c, 0, 64, 31
1, 248826, Control_c, 0, 64, 29
1, 248841, Control_c, 0, 64, 0
1, 248988, Note_on_c, 0, 65, 29
1, 249269, Note_on_c, 0, 60, 40
1, 249306, Note_off_c, 0, 72, 36
1, 249344, Note_off_c, 0, 65, 40
1, 249428, Control_c, 0, 67, 117
1, 249443, Control_c, 0, 67, 107
1, 249457, Control_c, 0, 67, 98
1, 249472, Control_c, 0, 67, 89
1, 249480, Note_off_c, 0, 56, 36
1, 249487, Control_c, 0, 67, 81
1, 249501, Control_c, 0, 67, 75
1, 249516, Control_c, 0, 67, 70
1, 249531, Control_c, 0, 67, 68
1, 249546, Control_c, 0, 67, 67
1, 249561, Control_c, 0, 67, 66
1, 249565, Note_on_c, 0, 65, 48
1, 249575, Control_c, 0, 67, 65
1, 249691, Note_off_c, 0, 60, 38
1, 249878, Note_off_c, 0, 65, 30
1, 249887, Note_on_c, 0, 75, 67
1, 249893, Note_on_c, 0, 54, 41
1, 250006, Control_c, 0, 64, 35
1, 250021, Control_c, 0, 64, 48
1, 250036, Control_c, 0, 64, 56
1, 250051, Control_c, 0, 64, 60
1, 250066, Control_c, 0, 64, 62
1, 250080, Control_c, 0, 64, 65
1, 250095, Control_c, 0, 64, 68
1, 250110, Control_c, 0, 64, 72
1, 250131, Control_c, 0, 64, 77
1, 250146, Control_c, 0, 64, 81
1, 250149, Note_off_c, 0, 75, 59
1, 250161, Control_c, 0, 64, 84
1, 250176, Control_c, 0, 64, 86
1, 250236, Control_c, 0, 67, 64
1, 250242, Note_on_c, 0, 63, 43
1, 250280, Control_c, 0, 67, 64
1, 250312, Note_on_c, 0, 77, 52
1, 250324, Control_c, 0, 64, 86
1, 250354, Control_c, 0, 64, 85
1, 250367, Note_on_c, 0, 75, 58
1, 250368, Note_off_c, 0, 77, 59
1, 250369, Control_c, 0, 64, 84
1, 250384, Control_c, 0, 64, 83
1, 250398, Control_c, 0, 64, 82
1, 250403, Note_off_c, 0, 75, 64
1, 250413, Control_c, 0, 64, 80
1, 250413, Control_c, 0, 67, 63
1, 250420, Note_on_c, 0, 74, 64
1, 250428, Control_c, 0, 64, 75
1, 250428, Control_c, 0, 67, 63
1, 250443, Control_c, 0, 64, 69
1, 250457, Control_c, 0, 64, 63
1, 250472, Control_c, 0, 64, 58
1, 250472, Control_c, 0, 67, 61
1, 250483, Note_off_c, 0, 63, 27
1, 250483, Note_on_c, 0, 58, 47
1, 250486, Note_on_c, 0, 75, 69
1, 250487, Control_c, 0, 64, 54
1, 250487, Control_c, 0, 67, 52
1, 250502, Control_c, 0, 64, 54
1, 250502, Control_c, 0, 67, 38
1, 250506, Note_off_c, 0, 74, 58
1, 250517, Control_c, 0, 64, 55
1, 250517, Control_c, 0, 67, 19
1, 250531, Control_c, 0, 64, 57
1, 250531, Control_c, 0, 67, 0
1, 250546, Control_c, 0, 64, 60
1, 250561, Control_c, 0, 64, 63
1, 250576, Control_c, 0, 64, 65
1, 250591, Control_c, 0, 64, 68
1, 250605, Control_c, 0, 64, 70
1, 250620, Control_c, 0, 64, 71
1, 250635, Control_c, 0, 64, 72
1, 250650, Control_c, 0, 64, 73
1, 250695, Control_c, 0, 64, 73
1, 250743, Note_off_c, 0, 58, 54
1, 250760, Note_on_c, 0, 77, 67
1, 250770, Note_on_c, 0, 63, 47
1, 250779, Note_off_c, 0, 54, 32
1, 250784, Control_c, 0, 64, 74
1, 250802, Note_off_c, 0, 75, 63
1, 250829, Control_c, 0, 64, 74
1, 250844, Control_c, 0, 64, 75
1, 250859, Control_c, 0, 64, 75
1, 250880, Control_c, 0, 64, 76
1, 250890, Note_off_c, 0, 63, 52
1, 250895, Control_c, 0, 64, 76
1, 250910, Control_c, 0, 64, 77
1, 250984, Control_c, 0, 64, 76
1, 250999, Control_c, 0, 64, 76
1, 251014, Control_c, 0, 64, 75
1, 251029, Control_c, 0, 64, 74
1, 251044, Control_c, 0, 64, 73
1, 251058, Control_c, 0, 64, 71
1, 251069, Note_on_c, 0, 78, 74
1, 251073, Control_c, 0, 64, 67
1, 251088, Control_c, 0, 64, 62
1, 251092, Note_on_c, 0, 51, 45
1, 251103, Control_c, 0, 64, 53
1, 251113, Note_off_c, 0, 77, 56
1, 251118, Control_c, 0, 64, 38
1, 251133, Control_c, 0, 64, 0
1, 251221, Control_c, 0, 64, 39
1, 251236, Control_c, 0, 64, 52
1, 251251, Control_c, 0, 64, 59
1, 251266, Control_c, 0, 64, 62
1, 251280, Control_c, 0, 64, 64
1, 251295, Control_c, 0, 64, 65
1, 251310, Control_c, 0, 64, 67
1, 251325, Control_c, 0, 64, 68
1, 251336, Note_off_c, 0, 78, 62
1, 251340, Control_c, 0, 64, 69
1, 251354, Control_c, 0, 64, 69
1, 251369, Control_c, 0, 64, 70
1, 251401, Note_on_c, 0, 58, 44
1, 251464, Note_on_c, 0, 80, 60
1, 251503, Control_c, 0, 64, 69
1, 251518, Control_c, 0, 64, 68
1, 251524, Note_on_c, 0, 78, 70
1, 251532, Control_c, 0, 64, 67
1, 251542, Note_off_c, 0, 80, 62
1, 251547, Control_c, 0, 64, 66
1, 251562, Control_c, 0, 64, 65
1, 251571, Note_off_c, 0, 78, 61
1, 251572, Note_on_c, 0, 77, 67
1, 251577, Control_c, 0, 64, 63
1, 251592, Control_c, 0, 64, 62
1, 251607, Control_c, 0, 64, 61
1, 251630, Control_c, 0, 64, 59
1, 251644, Control_c, 0, 64, 58
1, 251659, Control_c, 0, 64, 56
1, 251660, Note_on_c, 0, 54, 48
1, 251662, Note_on_c, 0, 78, 81
1, 251674, Control_c, 0, 64, 55
1, 251686, Note_off_c, 0, 77, 60
1, 251689, Control_c, 0, 64, 53
1, 251703, Control_c, 0, 64, 52
1, 251718, Control_c, 0, 64, 51
1, 251721, Note_off_c, 0, 58, 41
1, 251733, Control_c, 0, 64, 49
1, 251748, Control_c, 0, 64, 47
1, 251763, Control_c, 0, 64, 44
1, 251777, Control_c, 0, 64, 40
1, 251792, Control_c, 0, 64, 36
1, 251807, Control_c, 0, 64, 32
1, 251822, Control_c, 0, 64, 0
1, 251958, Note_on_c, 0, 80, 84
1, 251988, Note_on_c, 0, 58, 31
1, 252037, Note_off_c, 0, 78, 59
1, 252074, Control_c, 0, 64, 37
1, 252089, Control_c, 0, 64, 51
1, 252103, Control_c, 0, 64, 58
1, 252118, Control_c, 0, 64, 61
1, 252133, Note_off_c, 0, 54, 21
1, 252133, Control_c, 0, 64, 63
1, 252148, Control_c, 0, 64, 64
1, 252163, Control_c, 0, 64, 66
1, 252177, Control_c, 0, 64, 67
1, 252218, Note_off_c, 0, 51, 31
1, 252251, Control_c, 0, 64, 66
1, 252266, Control_c, 0, 64, 66
1, 252281, Control_c, 0, 64, 65
1, 252296, Control_c, 0, 64, 63
1, 252310, Control_c, 0, 64, 62
1, 252313, Note_on_c, 0, 81, 80
1, 252325, Control_c, 0, 64, 60
1, 252334, Note_on_c, 0, 50, 35
1, 252340, Control_c, 0, 64, 58
1, 252355, Control_c, 0, 64, 56
1, 252377, Control_c, 0, 64, 53
1, 252382, Note_off_c, 0, 58, 35
1, 252393, Control_c, 0, 64, 51
1, 252408, Control_c, 0, 64, 48
1, 252423, Control_c, 0, 64, 43
1, 252438, Control_c, 0, 64, 35
1, 252452, Control_c, 0, 64, 0
1, 252453, Note_off_c, 0, 80, 45
1, 252665, Note_on_c, 0, 58, 40
1, 252719, Control_c, 0, 64, 30
1, 252734, Control_c, 0, 64, 41
1, 252749, Control_c, 0, 64, 50
1, 252764, Control_c, 0, 64, 55
1, 252778, Control_c, 0, 64, 58
1, 252793, Control_c, 0, 64, 59
1, 252808, Control_c, 0, 64, 60
1, 252823, Control_c, 0, 64, 61
1, 252838, Control_c, 0, 64, 61
1, 252852, Control_c, 0, 64, 62
1, 252867, Control_c, 0, 64, 62
1, 252882, Control_c, 0, 64, 63
1, 252926, Control_c, 0, 64, 63
1, 252954, Note_on_c, 0, 53, 30
1, 252956, Control_c, 0, 64, 64
1, 252986, Control_c, 0, 64, 64
1, 253011, Note_off_c, 0, 58, 34
1, 253030, Control_c, 0, 64, 65
1, 253060, Control_c, 0, 64, 65
1, 253075, Control_c, 0, 64, 66
1, 253127, Control_c, 0, 64, 66
1, 253136, Note_off_c, 0, 50, 39
1, 253251, Note_on_c, 0, 82, 64
1, 253265, Note_on_c, 0, 58, 35
1, 253298, Note_off_c, 0, 81, 55
1, 253365, Note_off_c, 0, 53, 42
1, 253380, Control_c, 0, 64, 66
1, 253439, Control_c, 0, 64, 65
1, 253468, Control_c, 0, 64, 65
1, 253498, Control_c, 0, 64, 64
1, 253513, Control_c, 0, 64, 64
1, 253528, Control_c, 0, 64, 63
1, 253542, Control_c, 0, 64, 63
1, 253557, Control_c, 0, 64, 62
1, 253572, Control_c, 0, 64, 62
1, 253587, Control_c, 0, 64, 61
1, 253602, Control_c, 0, 64, 60
1, 253613, Note_on_c, 0, 77, 46
1, 253615, Note_on_c, 0, 49, 28
1, 253616, Control_c, 0, 64, 59
1, 253631, Control_c, 0, 64, 58
1, 253646, Control_c, 0, 64, 57
1, 253652, Note_off_c, 0, 58, 36
1, 253661, Control_c, 0, 64, 55
1, 253676, Control_c, 0, 64, 54
1, 253691, Control_c, 0, 64, 52
1, 253701, Note_off_c, 0, 82, 49
1, 253706, Control_c, 0, 64, 51
1, 253720, Control_c, 0, 64, 50
1, 253735, Control_c, 0, 64, 49
1, 253750, Control_c, 0, 64, 48
1, 253765, Control_c, 0, 64, 47
1, 253794, Control_c, 0, 64, 47
1, 253809, Control_c, 0, 64, 46
1, 253824, Control_c, 0, 64, 46
1, 253839, Control_c, 0, 64, 45
1, 253854, Control_c, 0, 64, 45
1, 253875, Control_c, 0, 64, 44
1, 253905, Control_c, 0, 64, 43
1, 253920, Control_c, 0, 64, 43
1, 253931, Note_on_c, 0, 58, 30
1, 253950, Control_c, 0, 64, 42
1, 253980, Control_c, 0, 64, 42
1, 253995, Control_c, 0, 64, 41
1, 254010, Control_c, 0, 64, 41
1, 254054, Control_c, 0, 64, 40
1, 254084, Control_c, 0, 64, 40
1, 254114, Control_c, 0, 64, 39
1, 254129, Control_c, 0, 64, 39
1, 254144, Control_c, 0, 64, 38
1, 254159, Control_c, 0, 64, 37
1, 254173, Control_c, 0, 64, 37
1, 254188, Control_c, 0, 64, 36
1, 254217, Control_c, 0, 64, 35
1, 254245, Note_on_c, 0, 53, 30
1, 254247, Control_c, 0, 64, 35
1, 254262, Control_c, 0, 64, 34
1, 254317, Note_off_c, 0, 49, 33
1, 254321, Control_c, 0, 64, 34
1, 254337, Note_off_c, 0, 58, 40
1, 254364, Note_off_c, 0, 77, 35
1, 254395, Control_c, 0, 64, 33
1, 254439, Control_c, 0, 64, 33
1, 254546, Note_on_c, 0, 58, 46
1, 254728, Control_c, 0, 64, 32
1, 254859, Note_on_c, 0, 76, 69
1, 254877, Note_on_c, 0, 48, 33
1, 254892, Note_off_c, 0, 53, 17
1, 254910, Note_off_c, 0, 58, 40
1, 255025, Control_c, 0, 64, 32
1, 255113, Note_on_c, 0, 85, 82
1, 255178, Note_off_c, 0, 76, 37
1, 255318, Note_on_c, 0, 58, 37
1, 255599, Note_on_c, 0, 55, 36
1, 255692, Note_off_c, 0, 58, 37
1, 255697, Note_off_c, 0, 48, 30
1, 255788, Control_c, 0, 67, 19
1, 255818, Control_c, 0, 67, 22
1, 255833, Control_c, 0, 67, 24
1, 255848, Control_c, 0, 64, 30
1, 255848, Control_c, 0, 67, 26
1, 255862, Control_c, 0, 67, 28
1, 255877, Control_c, 0, 67, 31
1, 255892, Control_c, 0, 67, 35
1, 255901, Note_on_c, 0, 58, 41
1, 255907, Control_c, 0, 64, 0
1, 255907, Control_c, 0, 67, 38
1, 255922, Control_c, 0, 67, 42
1, 255936, Control_c, 0, 67, 45
1, 255951, Control_c, 0, 67, 48
1, 255966, Control_c, 0, 67, 50
1, 255981, Control_c, 0, 67, 52
1, 255995, Control_c, 0, 67, 54
1, 256008, Note_off_c, 0, 55, 39
1, 256010, Control_c, 0, 67, 55
1, 256025, Control_c, 0, 67, 56
1, 256041, Control_c, 0, 67, 58
1, 256056, Control_c, 0, 67, 62
1, 256070, Control_c, 0, 67, 65
1, 256085, Control_c, 0, 67, 68
1, 256100, Control_c, 0, 67, 70
1, 256123, Control_c, 0, 67, 71
1, 256138, Control_c, 0, 67, 72
1, 256211, Control_c, 0, 67, 72
1, 256212, Note_on_c, 0, 48, 25
1, 256241, Note_off_c, 0, 58, 42
1, 256344, Control_c, 0, 67, 73
1, 256366, Note_off_c, 0, 85, 61
1, 256390, Control_c, 0, 67, 73
1, 256523, Control_c, 0, 67, 73
1, 256538, Control_c, 0, 67, 72
1, 256540, Note_on_c, 0, 84, 54
1, 256549, Note_on_c, 0, 58, 35
1, 256612, Control_c, 0, 67, 72
1, 256627, Control_c, 0, 67, 71
1, 256683, Note_on_c, 0, 82, 61
1, 256693, Note_off_c, 0, 84, 62
1, 256725, Note_off_c, 0, 82, 58
1, 256731, Control_c, 0, 67, 71
1, 256746, Control_c, 0, 67, 70
1, 256822, Note_on_c, 0, 80, 66
1, 256825, Note_on_c, 0, 55, 34
1, 256834, Control_c, 0, 67, 70
1, 256875, Note_off_c, 0, 58, 39
1, 256944, Note_off_c, 0, 80, 55
1, 256955, Note_on_c, 0, 79, 67
1, 256996, Note_off_c, 0, 79, 62
1, 257096, Note_on_c, 0, 77, 62
1, 257113, Note_on_c, 0, 58, 35
1, 257123, Control_c, 0, 67, 69
1, 257168, Note_off_c, 0, 55, 42
1, 257222, Note_off_c, 0, 48, 21
1, 257223, Note_on_c, 0, 76, 70
1, 257231, Note_off_c, 0, 77, 53
1, 257272, Control_c, 0, 67, 69
1, 257321, Note_off_c, 0, 76, 55
1, 257375, Control_c, 0, 67, 68
1, 257400, Note_off_c, 0, 58, 37
1, 257446, Note_on_c, 0, 79, 69
1, 257447, Note_on_c, 0, 49, 37
1, 257509, Control_c, 0, 67, 68
1, 257783, Control_c, 0, 67, 67
1, 257803, Note_on_c, 0, 56, 36
1, 258094, Note_on_c, 0, 77, 61
1, 258096, Note_on_c, 0, 53, 37
1, 258126, Note_off_c, 0, 56, 36
1, 258233, Note_off_c, 0, 79, 39
1, 258273, Control_c, 0, 67, 67
1, 258381, Note_off_c, 0, 49, 27
1, 258406, Note_on_c, 0, 56, 38
1, 258464, Note_off_c, 0, 53, 42
1, 258690, Note_on_c, 0, 46, 41
1, 258725, Control_c, 0, 64, 37
1, 258740, Control_c, 0, 64, 50
1, 258755, Control_c, 0, 64, 59
1, 258770, Control_c, 0, 64, 63
1, 258785, Control_c, 0, 64, 66
1, 258790, Note_off_c, 0, 56, 39
1, 258800, Control_c, 0, 64, 70
1, 258815, Control_c, 0, 64, 76
1, 258824, Note_off_c, 0, 77, 60
1, 258830, Control_c, 0, 64, 83
1, 258845, Control_c, 0, 64, 90
1, 258860, Control_c, 0, 64, 97
1, 258874, Control_c, 0, 64, 99
1, 259007, Control_c, 0, 64, 96
1, 259018, Note_on_c, 0, 55, 38
1, 259020, Note_on_c, 0, 75, 60
1, 259022, Control_c, 0, 64, 94
1, 259036, Control_c, 0, 64, 92
1, 259051, Control_c, 0, 64, 90
1, 259066, Control_c, 0, 64, 87
1, 259080, Control_c, 0, 64, 85
1, 259095, Control_c, 0, 64, 82
1, 259118, Control_c, 0, 64, 80
1, 259132, Control_c, 0, 64, 78
1, 259147, Control_c, 0, 64, 76
1, 259162, Control_c, 0, 64, 74
1, 259177, Control_c, 0, 64, 72
1, 259192, Control_c, 0, 64, 69
1, 259206, Control_c, 0, 64, 66
1, 259221, Control_c, 0, 64, 64
1, 259236, Control_c, 0, 64, 60
1, 259251, Control_c, 0, 64, 57
1, 259252, Note_off_c, 0, 46, 33
1, 259266, Control_c, 0, 64, 52
1, 259280, Control_c, 0, 64, 48
1, 259295, Control_c, 0, 64, 44
1, 259310, Control_c, 0, 64, 41
1, 259325, Control_c, 0, 64, 39
1, 259326, Note_on_c, 0, 49, 35
1, 259369, Control_c, 0, 64, 39
1, 259378, Note_off_c, 0, 55, 36
1, 259384, Control_c, 0, 64, 41
1, 259399, Control_c, 0, 64, 44
1, 259414, Control_c, 0, 64, 49
1, 259429, Control_c, 0, 64, 53
1, 259444, Control_c, 0, 64, 57
1, 259459, Control_c, 0, 64, 60
1, 259474, Control_c, 0, 64, 62
1, 259488, Control_c, 0, 64, 65
1, 259503, Control_c, 0, 64, 67
1, 259518, Control_c, 0, 64, 69
1, 259532, Control_c, 0, 64, 70
1, 259547, Control_c, 0, 64, 71
1, 259615, Note_on_c, 0, 55, 38
1, 259617, Note_off_c, 0, 49, 47
1, 259623, Note_on_c, 0, 73, 59
1, 259637, Control_c, 0, 67, 66
1, 259667, Control_c, 0, 64, 71
1, 259682, Control_c, 0, 64, 70
1, 259697, Control_c, 0, 64, 70
1, 259711, Control_c, 0, 64, 69
1, 259722, Note_off_c, 0, 75, 36
1, 259726, Control_c, 0, 64, 68
1, 259741, Control_c, 0, 64, 67
1, 259755, Control_c, 0, 64, 65
1, 259770, Control_c, 0, 64, 64
1, 259785, Control_c, 0, 64, 62
1, 259800, Control_c, 0, 64, 60
1, 259815, Control_c, 0, 64, 59
1, 259829, Control_c, 0, 64, 57
1, 259844, Control_c, 0, 64, 56
1, 259867, Control_c, 0, 64, 54
1, 259882, Control_c, 0, 64, 52
1, 259897, Control_c, 0, 64, 48
1, 259911, Control_c, 0, 64, 42
1, 259922, Note_off_c, 0, 55, 31
1, 259926, Control_c, 0, 64, 34
1, 259941, Control_c, 0, 64, 0
1, 259941, Control_c, 0, 67, 66
1, 259943, Note_on_c, 0, 72, 54
1, 259956, Note_on_c, 0, 48, 32
1, 259974, Note_off_c, 0, 73, 59
1, 260103, Control_c, 0, 64, 38
1, 260118, Control_c, 0, 64, 50
1, 260133, Control_c, 0, 64, 58
1, 260148, Control_c, 0, 64, 62
1, 260153, Note_off_c, 0, 72, 63
1, 260162, Control_c, 0, 64, 63
1, 260177, Control_c, 0, 64, 64
1, 260192, Control_c, 0, 64, 65
1, 260207, Control_c, 0, 64, 66
1, 260222, Control_c, 0, 64, 66
1, 260256, Note_on_c, 0, 56, 43
1, 260341, Control_c, 0, 64, 66
1, 260354, Note_on_c, 0, 73, 52
1, 260355, Control_c, 0, 64, 65
1, 260370, Control_c, 0, 64, 65
1, 260386, Control_c, 0, 64, 64
1, 260401, Control_c, 0, 64, 63
1, 260416, Control_c, 0, 64, 63
1, 260430, Note_on_c, 0, 72, 54
1, 260430, Control_c, 0, 64, 62
1, 260445, Control_c, 0, 64, 60
1, 260455, Note_off_c, 0, 73, 59
1, 260460, Control_c, 0, 64, 58
1, 260471, Note_off_c, 0, 72, 63
1, 260475, Control_c, 0, 64, 56
1, 260487, Note_on_c, 0, 70, 59
1, 260490, Control_c, 0, 64, 54
1, 260505, Control_c, 0, 64, 53
1, 260520, Control_c, 0, 64, 51
1, 260533, Control_c, 0, 64, 48
1, 260548, Control_c, 0, 64, 43
1, 260553, Note_on_c, 0, 72, 57
1, 260563, Control_c, 0, 64, 36
1, 260572, Note_on_c, 0, 53, 43
1, 260577, Control_c, 0, 64, 0
1, 260586, Note_off_c, 0, 48, 26
1, 260613, Note_off_c, 0, 70, 54
1, 260623, Note_off_c, 0, 56, 37
1, 260853, Note_on_c, 0, 73, 65
1, 260881, Note_on_c, 0, 56, 31
1, 260905, Note_off_c, 0, 53, 35
1, 260922, Note_off_c, 0, 72, 57
1, 261217, Note_on_c, 0, 48, 30
1, 261217, Note_on_c, 0, 65, 51
1, 261251, Note_off_c, 0, 56, 33
1, 261282, Note_off_c, 0, 73, 50
1, 261453, Control_c, 0, 64, 33
1, 261468, Control_c, 0, 64, 41
1, 261482, Control_c, 0, 64, 48
1, 261497, Control_c, 0, 64, 53
1, 261512, Control_c, 0, 64, 55
1, 261527, Control_c, 0, 64, 57
1, 261527, Control_c, 0, 67, 66
1, 261533, Note_on_c, 0, 58, 41
1, 261541, Control_c, 0, 64, 58
1, 261541, Control_c, 0, 67, 67
1, 261556, Control_c, 0, 64, 59
1, 261571, Control_c, 0, 64, 60
1, 261586, Control_c, 0, 64, 60
1, 261675, Control_c, 0, 64, 60
1, 261689, Control_c, 0, 64, 59
1, 261704, Control_c, 0, 64, 59
1, 261719, Control_c, 0, 64, 58
1, 261733, Control_c, 0, 64, 58
1, 261748, Control_c, 0, 64, 57
1, 261763, Control_c, 0, 64, 56
1, 261778, Control_c, 0, 64, 54
1, 261793, Note_off_c, 0, 58, 33
1, 261793, Control_c, 0, 64, 52
1, 261808, Control_c, 0, 64, 50
1, 261823, Control_c, 0, 64, 47
1, 261823, Control_c, 0, 67, 66
1, 261835, Note_on_c, 0, 55, 32
1, 261837, Note_on_c, 0, 68, 46
1, 261837, Control_c, 0, 64, 43
1, 261852, Note_on_c, 0, 64, 32
1, 261852, Control_c, 0, 64, 36
1, 261867, Control_c, 0, 64, 0
1, 261867, Control_c, 0, 67, 66
1, 261879, Note_off_c, 0, 65, 36
1, 261972, Control_c, 0, 64, 35
1, 261986, Control_c, 0, 64, 44
1, 262001, Control_c, 0, 64, 51
1, 262016, Control_c, 0, 64, 56
1, 262031, Control_c, 0, 64, 58
1, 262043, Note_off_c, 0, 48, 28
1, 262046, Control_c, 0, 64, 60
1, 262061, Control_c, 0, 64, 60
1, 262091, Control_c, 0, 64, 61
1, 262141, Note_on_c, 0, 67, 47
1, 262157, Note_on_c, 0, 58, 36
1, 262159, Note_off_c, 0, 55, 43
1, 262201, Control_c, 0, 64, 60
1, 262211, Note_off_c, 0, 68, 34
1, 262231, Control_c, 0, 64, 60
1, 262246, Control_c, 0, 64, 59
1, 262258, Note_off_c, 0, 58, 57
1, 262261, Control_c, 0, 64, 59
1, 262276, Control_c, 0, 64, 58
1, 262291, Control_c, 0, 64, 57
1, 262300, Note_off_c, 0, 64, 25
1, 262305, Control_c, 0, 64, 56
1, 262320, Control_c, 0, 64, 56
1, 262335, Control_c, 0, 64, 55
1, 262350, Control_c, 0, 64, 53
1, 262350, Control_c, 0, 67, 66
1, 262364, Control_c, 0, 64, 52
1, 262379, Control_c, 0, 64, 51
1, 262379, Control_c, 0, 67, 67
1, 262394, Control_c, 0, 64, 50
1, 262409, Control_c, 0, 64, 49
1, 262424, Control_c, 0, 64, 48
1, 262438, Control_c, 0, 64, 47
1, 262438, Control_c, 0, 67, 67
1, 262453, Control_c, 0, 64, 44
1, 262468, Control_c, 0, 64, 41
1, 262468, Control_c, 0, 67, 68
1, 262482, Control_c, 0, 64, 37
1, 262482, Control_c, 0, 67, 68
1, 262497, Control_c, 0, 64, 31
1, 262505, Note_on_c, 0, 57, 31
1, 262505, Note_on_c, 0, 65, 47
1, 262512, Control_c, 0, 64, 0
1, 262516, Note_on_c, 0, 53, 25
1, 262527, Control_c, 0, 67, 69
1, 262586, Control_c, 0, 67, 69
1, 262601, Control_c, 0, 67, 70
1, 262629, Note_off_c, 0, 67, 50
1, 262630, Control_c, 0, 67, 71
1, 262645, Control_c, 0, 67, 71
1, 262690, Control_c, 0, 67, 72
1, 262705, Control_c, 0, 67, 72
1, 262759, Note_off_c, 0, 53, 38
1, 262830, Note_on_c, 0, 60, 38
1, 262831, Note_off_c, 0, 57, 44
1, 262880, Note_off_c, 0, 60, 64
1, 262994, Control_c, 0, 67, 72
1, 263039, Control_c, 0, 67, 71
1, 263107, Note_on_c, 0, 60, 47
1, 263113, Control_c, 0, 67, 71
1, 263143, Control_c, 0, 67, 70
1, 263144, Note_off_c, 0, 60, 66
1, 263338, Note_off_c, 0, 65, 41
1, 263365, Control_c, 0, 67, 70
1, 263402, Note_on_c, 0, 60, 43
1, 263433, Note_off_c, 0, 60, 57
1, 263453, Control_c, 0, 67, 69
1, 263513, Control_c, 0, 67, 69
1, 263543, Control_c, 0, 67, 68
1, 263703, Note_on_c, 0, 57, 39
1, 263715, Note_on_c, 0, 53, 30
1, 263774, Control_c, 0, 67, 68
1, 263892, Control_c, 0, 67, 67
1, 263996, Control_c, 0, 67, 67
1, 264001, Note_on_c, 0, 60, 44
1, 264070, Control_c, 0, 67, 66
1, 264156, Note_off_c, 0, 57, 40
1, 264303, Note_off_c, 0, 53, 36
1, 264312, Note_on_c, 0, 58, 48
1, 264320, Note_on_c, 0, 55, 45
1, 264354, Note_off_c, 0, 60, 37
1, 264493, Control_c, 0, 67, 66
1, 264621, Note_on_c, 0, 60, 46
1, 264641, Control_c, 0, 67, 65
1, 264746, Note_off_c, 0, 55, 49
1, 264810, Note_off_c, 0, 58, 40
1, 264863, Control_c, 0, 67, 65
1, 264923, Control_c, 0, 67, 64
1, 264938, Control_c, 0, 67, 64
1, 264944, Note_on_c, 0, 70, 66
1, 264944, Note_on_c, 0, 55, 24
1, 264955, Note_on_c, 0, 52, 38
1, 265005, Note_off_c, 0, 60, 43
1, 265069, Control_c, 0, 67, 64
1, 265084, Control_c, 0, 67, 65
1, 265227, Control_c, 0, 67, 65
1, 265274, Note_off_c, 0, 55, 27
1, 265286, Note_on_c, 0, 60, 35
1, 265315, Control_c, 0, 67, 66
1, 265335, Note_off_c, 0, 60, 59
1, 265555, Note_off_c, 0, 52, 24
1, 265558, Note_on_c, 0, 60, 41
1, 265589, Note_off_c, 0, 60, 62
1, 265641, Control_c, 0, 67, 66
1, 265796, Note_off_c, 0, 70, 62
1, 265859, Note_on_c, 0, 60, 29
1, 265897, Note_off_c, 0, 60, 55
1, 266136, Note_on_c, 0, 67, 51
1, 266140, Note_on_c, 0, 52, 31
1, 266148, Note_on_c, 0, 48, 26
1, 266205, Note_off_c, 0, 67, 60
1, 266449, Note_on_c, 0, 60, 37
1, 266609, Note_off_c, 0, 48, 32
1, 266716, Note_on_c, 0, 64, 56
1, 266721, Note_on_c, 0, 55, 36
1, 266732, Note_on_c, 0, 58, 30
1, 266738, Note_off_c, 0, 60, 45
1, 266829, Note_off_c, 0, 52, 41
1, 266840, Note_off_c, 0, 64, 56
1, 266843, Control_c, 0, 67, 66
1, 266872, Control_c, 0, 67, 65
1, 266887, Control_c, 0, 67, 65
1, 267011, Note_on_c, 0, 60, 41
1, 267099, Note_off_c, 0, 58, 38
1, 267278, Note_off_c, 0, 55, 32
1, 267353, Note_off_c, 0, 60, 37
1, 267358, Note_on_c, 0, 72, 58
1, 267366, Note_on_c, 0, 57, 32
1, 267377, Note_on_c, 0, 53, 27
1, 267458, Control_c, 0, 67, 64
1, 267472, Control_c, 0, 67, 63
1, 267487, Control_c, 0, 67, 62
1, 267502, Control_c, 0, 67, 62
1, 267517, Control_c, 0, 67, 61
1, 267546, Control_c, 0, 64, 43
1, 267546, Control_c, 0, 67, 61
1, 267561, Control_c, 0, 64, 54
1, 267577, Control_c, 0, 64, 60
1, 267577, Control_c, 0, 67, 60
1, 267592, Control_c, 0, 64, 63
1, 267607, Control_c, 0, 64, 66
1, 267607, Control_c, 0, 67, 59
1, 267622, Control_c, 0, 64, 69
1, 267622, Control_c, 0, 67, 59
1, 267637, Control_c, 0, 64, 74
1, 267637, Control_c, 0, 67, 58
1, 267638, Note_off_c, 0, 72, 57
1, 267651, Control_c, 0, 64, 78
1, 267651, Control_c, 0, 67, 58
1, 267666, Control_c, 0, 64, 82
1, 267681, Control_c, 0, 64, 85
1, 267681, Control_c, 0, 67, 57
1, 267695, Control_c, 0, 64, 86
1, 267695, Control_c, 0, 67, 57
1, 267701, Note_on_c, 0, 60, 37
1, 267710, Control_c, 0, 67, 55
1, 267725, Control_c, 0, 67, 50
1, 267740, Control_c, 0, 67, 44
1, 267755, Control_c, 0, 67, 39
1, 267759, Note_off_c, 0, 60, 54
1, 267769, Control_c, 0, 67, 33
1, 267784, Control_c, 0, 64, 86
1, 267784, Control_c, 0, 67, 29
1, 267799, Control_c, 0, 64, 85
1, 267799, Control_c, 0, 67, 25
1, 267814, Control_c, 0, 64, 83
1, 267814, Control_c, 0, 67, 22
1, 267826, Note_on_c, 0, 69, 45
1, 267829, Control_c, 0, 64, 81
1, 267829, Control_c, 0, 67, 0
1, 267844, Control_c, 0, 64, 79
1, 267859, Control_c, 0, 64, 76
1, 267874, Control_c, 0, 64, 72
1, 267889, Control_c, 0, 64, 69
1, 267903, Control_c, 0, 64, 65
1, 267918, Control_c, 0, 64, 62
1, 267933, Control_c, 0, 64, 58
1, 267948, Control_c, 0, 64, 54
1, 267963, Control_c, 0, 64, 50
1, 267967, Note_on_c, 0, 72, 46
1, 267971, Note_off_c, 0, 69, 51
1, 267976, Note_on_c, 0, 60, 39
1, 267977, Control_c, 0, 64, 44
1, 267984, Note_off_c, 0, 57, 28
1, 267992, Control_c, 0, 64, 36
1, 268007, Control_c, 0, 64, 0
1, 268016, Note_off_c, 0, 60, 57
1, 268069, Note_off_c, 0, 53, 36
1, 268133, Control_c, 0, 67, 19
1, 268236, Control_c, 0, 67, 22
1, 268266, Control_c, 0, 67, 24
1, 268269, Note_on_c, 0, 60, 34
1, 268295, Control_c, 0, 67, 28
1, 268310, Control_c, 0, 67, 34
1, 268315, Note_off_c, 0, 60, 55
1, 268325, Control_c, 0, 67, 43
1, 268340, Control_c, 0, 67, 54
1, 268355, Control_c, 0, 67, 67
1, 268371, Control_c, 0, 67, 79
1, 268386, Control_c, 0, 67, 92
1, 268400, Control_c, 0, 67, 101
1, 268415, Control_c, 0, 67, 107
1, 268430, Control_c, 0, 67, 109
1, 268533, Control_c, 0, 67, 107
1, 268565, Note_on_c, 0, 57, 39
1, 268567, Note_on_c, 0, 53, 30
1, 268577, Note_off_c, 0, 72, 57
1, 268578, Control_c, 0, 67, 105
1, 268667, Control_c, 0, 67, 103
1, 268872, Note_on_c, 0, 60, 33
1, 268897, Control_c, 0, 67, 101
1, 268982, Note_off_c, 0, 57, 37
1, 269030, Control_c, 0, 67, 99
1, 269090, Control_c, 0, 67, 97
1, 269134, Control_c, 0, 67, 96
1, 269149, Control_c, 0, 67, 95
1, 269165, Control_c, 0, 67, 94
1, 269167, Note_on_c, 0, 55, 40
1, 269168, Note_off_c, 0, 53, 40
1, 269174, Note_off_c, 0, 60, 37
1, 269175, Note_on_c, 0, 58, 37
1, 269179, Control_c, 0, 67, 90
1, 269194, Control_c, 0, 67, 82
1, 269209, Control_c, 0, 67, 70
1, 269224, Control_c, 0, 67, 57
1, 269239, Control_c, 0, 67, 45
1, 269254, Control_c, 0, 67, 33
1, 269268, Control_c, 0, 67, 24
1, 269283, Control_c, 0, 67, 0
1, 269446, Control_c, 0, 64, 36
1, 269460, Control_c, 0, 64, 47
1, 269463, Note_on_c, 0, 60, 37
1, 269475, Control_c, 0, 64, 54
1, 269490, Control_c, 0, 64, 58
1, 269505, Control_c, 0, 64, 60
1, 269519, Control_c, 0, 64, 63
1, 269534, Control_c, 0, 64, 64
1, 269547, Note_off_c, 0, 55, 54
1, 269549, Control_c, 0, 64, 66
1, 269564, Control_c, 0, 64, 67
1, 269579, Control_c, 0, 64, 68
1, 269600, Control_c, 0, 64, 69
1, 269603, Note_off_c, 0, 58, 35
1, 269689, Control_c, 0, 64, 68
1, 269704, Control_c, 0, 64, 68
1, 269719, Control_c, 0, 64, 67
1, 269734, Control_c, 0, 64, 66
1, 269749, Control_c, 0, 64, 65
1, 269764, Control_c, 0, 64, 64
1, 269770, Note_off_c, 0, 60, 25
1, 269778, Note_on_c, 0, 70, 61
1, 269779, Control_c, 0, 64, 63
1, 269793, Control_c, 0, 64, 61
1, 269796, Note_on_c, 0, 52, 34
1, 269801, Note_on_c, 0, 55, 32
1, 269808, Control_c, 0, 64, 60
1, 269823, Control_c, 0, 64, 57
1, 269838, Control_c, 0, 64, 54
1, 269853, Control_c, 0, 64, 51
1, 269867, Control_c, 0, 64, 47
1, 269882, Control_c, 0, 64, 44
1, 269897, Control_c, 0, 64, 41
1, 269912, Control_c, 0, 64, 40
1, 269941, Control_c, 0, 64, 41
1, 269956, Control_c, 0, 64, 44
1, 269972, Control_c, 0, 64, 47
1, 269987, Control_c, 0, 64, 51
1, 270002, Control_c, 0, 64, 53
1, 270017, Control_c, 0, 64, 55
1, 270032, Control_c, 0, 64, 56
1, 270046, Control_c, 0, 64, 57
1, 270061, Control_c, 0, 64, 58
1, 270076, Control_c, 0, 64, 58
1, 270102, Note_on_c, 0, 60, 37
1, 270131, Note_off_c, 0, 55, 53
1, 270160, Note_off_c, 0, 60, 58
1, 270179, Control_c, 0, 64, 58
1, 270209, Control_c, 0, 64, 57
1, 270223, Control_c, 0, 64, 57
1, 270238, Control_c, 0, 64, 56
1, 270253, Control_c, 0, 64, 56
1, 270268, Control_c, 0, 64, 55
1, 270282, Control_c, 0, 64, 55
1, 270297, Control_c, 0, 64, 53
1, 270312, Control_c, 0, 64, 52
1, 270327, Control_c, 0, 64, 50
1, 270350, Control_c, 0, 64, 47
1, 270364, Control_c, 0, 64, 45
1, 270379, Control_c, 0, 64, 41
1, 270394, Control_c, 0, 64, 36
1, 270403, Note_on_c, 0, 60, 42
1, 270409, Control_c, 0, 64, 0
1, 270409, Control_c, 0, 67, 19
1, 270438, Control_c, 0, 67, 22
1, 270446, Note_off_c, 0, 60, 55
1, 270453, Control_c, 0, 67, 24
1, 270458, Note_off_c, 0, 70, 52
1, 270468, Control_c, 0, 67, 27
1, 270483, Control_c, 0, 67, 31
1, 270497, Control_c, 0, 67, 35
1, 270512, Control_c, 0, 67, 40
1, 270519, Note_off_c, 0, 52, 42
1, 270527, Control_c, 0, 67, 45
1, 270542, Control_c, 0, 67, 48
1, 270661, Control_c, 0, 67, 47
1, 270676, Control_c, 0, 67, 47
1, 270701, Note_on_c, 0, 60, 30
1, 270705, Control_c, 0, 67, 46
1, 270735, Control_c, 0, 67, 46
1, 270741, Note_off_c, 0, 60, 51
1, 270749, Control_c, 0, 67, 45
1, 270780, Control_c, 0, 67, 45
1, 270973, Control_c, 0, 67, 44
1, 270986, Note_on_c, 0, 67, 47
1, 271003, Note_on_c, 0, 52, 28
1, 271007, Note_on_c, 0, 48, 33
1, 271045, Note_off_c, 0, 67, 58
1, 271047, Control_c, 0, 67, 44
1, 271174, Control_c, 0, 67, 43
1, 271247, Control_c, 0, 67, 43
1, 271299, Note_on_c, 0, 60, 33
1, 271351, Control_c, 0, 67, 42
1, 271436, Note_off_c, 0, 48, 33
1, 271439, Control_c, 0, 67, 42
1, 271585, Note_on_c, 0, 64, 51
1, 271589, Note_on_c, 0, 55, 31
1, 271595, Note_on_c, 0, 58, 33
1, 271603, Note_off_c, 0, 60, 42
1, 271672, Note_off_c, 0, 64, 56
1, 271691, Note_off_c, 0, 52, 40
1, 271707, Control_c, 0, 67, 41
1, 271782, Control_c, 0, 67, 41
1, 271863, Control_c, 0, 67, 40
1, 271891, Note_on_c, 0, 60, 37
1, 271907, Control_c, 0, 67, 40
1, 271958, Note_off_c, 0, 58, 41
1, 272188, Control_c, 0, 67, 39
1, 272196, Note_off_c, 0, 55, 30
1, 272264, Note_on_c, 0, 72, 51
1, 272271, Note_off_c, 0, 60, 42
1, 272280, Note_on_c, 0, 53, 22
1, 272291, Note_on_c, 0, 57, 32
1, 272336, Control_c, 0, 67, 39
1, 272367, Control_c, 0, 67, 38
1, 272382, Control_c, 0, 67, 37
1, 272411, Control_c, 0, 67, 37
1, 272426, Control_c, 0, 67, 36
1, 272575, Control_c, 0, 67, 37
1, 272804, Control_c, 0, 67, 37
1, 272823, Note_off_c, 0, 53, 42
1, 272852, Note_off_c, 0, 57, 42
1, 272873, Note_on_c, 0, 69, 35
1, 272884, Note_off_c, 0, 72, 53
1, 273051, Note_on_c, 0, 72, 37
1, 273093, Note_off_c, 0, 69, 41
1, 273161, Control_c, 0, 67, 36
1, 273176, Control_c, 0, 67, 36
1, 273190, Control_c, 0, 67, 35
1, 273205, Control_c, 0, 67, 35
1, 273220, Control_c, 0, 67, 34
1, 273234, Control_c, 0, 67, 33
1, 273248, Control_c, 0, 67, 32
1, 273263, Control_c, 0, 67, 26
1, 273278, Control_c, 0, 67, 0
1, 273382, Note_off_c, 0, 72, 37
1, 273982, Note_on_c, 0, 81, 83
1, 273986, Note_on_c, 0, 77, 68
1, 274352, Note_off_c, 0, 77, 61
1, 274371, Note_on_c, 0, 79, 53
1, 274372, Note_on_c, 0, 76, 48
1, 274400, Note_off_c, 0, 81, 39
1, 274509, Control_c, 0, 64, 39
1, 274524, Control_c, 0, 64, 51
1, 274539, Control_c, 0, 64, 59
1, 274554, Control_c, 0, 64, 62
1, 274569, Control_c, 0, 64, 64
1, 274583, Control_c, 0, 64, 64
1, 274613, Control_c, 0, 64, 63
1, 274628, Control_c, 0, 64, 60
1, 274643, Control_c, 0, 64, 53
1, 274657, Control_c, 0, 64, 45
1, 274672, Control_c, 0, 64, 37
1, 274675, Note_on_c, 0, 74, 42
1, 274675, Note_off_c, 0, 76, 37
1, 274676, Note_on_c, 0, 77, 47
1, 274679, Note_off_c, 0, 79, 34
1, 274687, Control_c, 0, 64, 31
1, 274716, Control_c, 0, 64, 36
1, 274731, Control_c, 0, 64, 45
1, 274746, Control_c, 0, 64, 53
1, 274761, Control_c, 0, 64, 59
1, 274776, Control_c, 0, 64, 63
1, 274791, Control_c, 0, 64, 67
1, 274805, Control_c, 0, 64, 73
1, 274820, Control_c, 0, 64, 80
1, 274836, Note_off_c, 0, 77, 62
1, 274843, Control_c, 0, 64, 88
1, 274858, Control_c, 0, 64, 98
1, 274873, Control_c, 0, 64, 105
1, 274917, Control_c, 0, 64, 96
1, 274932, Control_c, 0, 64, 84
1, 274947, Control_c, 0, 64, 74
1, 274961, Control_c, 0, 64, 67
1, 274963, Note_off_c, 0, 74, 46
1, 274968, Note_on_c, 0, 76, 54
1, 274972, Note_on_c, 0, 73, 49
1, 274976, Control_c, 0, 64, 64
1, 274991, Control_c, 0, 64, 64
1, 275005, Control_c, 0, 64, 64
1, 275020, Control_c, 0, 64, 66
1, 275035, Control_c, 0, 64, 69
1, 275050, Control_c, 0, 64, 75
1, 275065, Control_c, 0, 64, 83
1, 275079, Control_c, 0, 64, 95
1, 275094, Control_c, 0, 64, 117
1, 275109, Control_c, 0, 64, 127
1, 275159, Note_off_c, 0, 73, 24
1, 275182, Note_off_c, 0, 76, 60
1, 275243, Control_c, 0, 64, 103
1, 275257, Control_c, 0, 64, 84
1, 275272, Note_on_c, 0, 74, 71
1, 275272, Control_c, 0, 64, 72
1, 275273, Note_on_c, 0, 77, 75
1, 275287, Control_c, 0, 64, 64
1, 275302, Control_c, 0, 64, 54
1, 275317, Control_c, 0, 64, 45
1, 275331, Control_c, 0, 64, 36
1, 275346, Control_c, 0, 64, 0
1, 275376, Control_c, 0, 67, 22
1, 275391, Control_c, 0, 67, 27
1, 275405, Control_c, 0, 67, 35
1, 275420, Control_c, 0, 67, 51
1, 275435, Control_c, 0, 67, 68
1, 275450, Control_c, 0, 67, 86
1, 275465, Control_c, 0, 67, 102
1, 275479, Control_c, 0, 67, 117
1, 275494, Control_c, 0, 67, 127
1, 275591, Note_off_c, 0, 74, 60
1, 275606, Note_on_c, 0, 76, 51
1, 275609, Note_off_c, 0, 77, 55
1, 275620, Note_on_c, 0, 72, 34
1, 275680, Control_c, 0, 64, 35
1, 275695, Control_c, 0, 64, 48
1, 275709, Control_c, 0, 64, 58
1, 275724, Control_c, 0, 64, 62
1, 275739, Control_c, 0, 64, 65
1, 275754, Control_c, 0, 64, 68
1, 275768, Control_c, 0, 64, 71
1, 275783, Control_c, 0, 64, 75
1, 275786, Note_off_c, 0, 76, 62
1, 275798, Control_c, 0, 64, 80
1, 275813, Control_c, 0, 64, 82
1, 275828, Control_c, 0, 64, 83
1, 275872, Control_c, 0, 64, 82
1, 275887, Control_c, 0, 64, 81
1, 275901, Control_c, 0, 64, 77
1, 275916, Control_c, 0, 64, 71
1, 275917, Note_on_c, 0, 74, 54
1, 275922, Note_on_c, 0, 70, 47
1, 275927, Note_off_c, 0, 72, 38
1, 275931, Control_c, 0, 64, 66
1, 275946, Control_c, 0, 64, 61
1, 275946, Control_c, 0, 67, 125
1, 275961, Control_c, 0, 64, 58
1, 275976, Control_c, 0, 64, 58
1, 275976, Control_c, 0, 67, 119
1, 275991, Control_c, 0, 64, 58
1, 275991, Control_c, 0, 67, 110
1, 276006, Control_c, 0, 64, 60
1, 276006, Control_c, 0, 67, 99
1, 276021, Control_c, 0, 64, 62
1, 276021, Control_c, 0, 67, 88
1, 276035, Control_c, 0, 64, 63
1, 276035, Control_c, 0, 67, 77
1, 276050, Control_c, 0, 64, 64
1, 276050, Control_c, 0, 67, 69
1, 276065, Control_c, 0, 64, 66
1, 276065, Control_c, 0, 67, 63
1, 276079, Control_c, 0, 64, 67
1, 276079, Control_c, 0, 67, 59
1, 276094, Control_c, 0, 64, 67
1, 276094, Control_c, 0, 67, 55
1, 276109, Control_c, 0, 67, 52
1, 276124, Control_c, 0, 67, 49
1, 276139, Control_c, 0, 64, 67
1, 276139, Control_c, 0, 67, 46
1, 276153, Control_c, 0, 64, 66
1, 276153, Control_c, 0, 67, 42
1, 276168, Control_c, 0, 64, 64
1, 276168, Control_c, 0, 67, 38
1, 276183, Control_c, 0, 64, 61
1, 276183, Control_c, 0, 67, 34
1, 276198, Control_c, 0, 64, 57
1, 276198, Control_c, 0, 67, 30
1, 276213, Control_c, 0, 64, 55
1, 276213, Control_c, 0, 67, 26
1, 276225, Note_off_c, 0, 74, 50
1, 276227, Control_c, 0, 64, 55
1, 276227, Control_c, 0, 67, 21
1, 276228, Note_on_c, 0, 73, 51
1, 276237, Note_on_c, 0, 69, 43
1, 276242, Note_off_c, 0, 70, 35
1, 276242, Control_c, 0, 64, 56
1, 276242, Control_c, 0, 67, 0
1, 276258, Control_c, 0, 64, 57
1, 276273, Control_c, 0, 64, 59
1, 276287, Control_c, 0, 64, 61
1, 276302, Control_c, 0, 64, 64
1, 276317, Control_c, 0, 64, 66
1, 276340, Control_c, 0, 64, 69
1, 276354, Control_c, 0, 64, 72
1, 276370, Control_c, 0, 64, 76
1, 276384, Control_c, 0, 64, 81
1, 276399, Control_c, 0, 64, 87
1, 276408, Note_off_c, 0, 69, 54
1, 276414, Control_c, 0, 64, 91
1, 276429, Control_c, 0, 64, 94
1, 276444, Control_c, 0, 64, 94
1, 276453, Note_off_c, 0, 73, 34
1, 276533, Control_c, 0, 64, 93
1, 276548, Control_c, 0, 64, 90
1, 276556, Note_on_c, 0, 70, 70
1, 276557, Note_on_c, 0, 74, 75
1, 276563, Control_c, 0, 64, 85
1, 276578, Control_c, 0, 64, 79
1, 276592, Control_c, 0, 64, 74
1, 276607, Control_c, 0, 64, 68
1, 276622, Control_c, 0, 64, 64
1, 276637, Control_c, 0, 64, 60
1, 276652, Control_c, 0, 64, 55
1, 276666, Control_c, 0, 64, 49
1, 276681, Control_c, 0, 64, 45
1, 276696, Control_c, 0, 64, 41
1, 276710, Control_c, 0, 64, 38
1, 276725, Control_c, 0, 64, 35
1, 276740, Control_c, 0, 64, 31
1, 276755, Control_c, 0, 64, 0
1, 276878, Note_on_c, 0, 72, 53
1, 276881, Note_off_c, 0, 70, 57
1, 276886, Note_on_c, 0, 69, 51
1, 276925, Note_off_c, 0, 74, 35
1, 277195, Note_on_c, 0, 70, 62
1, 277201, Note_on_c, 0, 67, 56
1, 277210, Note_off_c, 0, 69, 51
1, 277217, Note_off_c, 0, 72, 37
1, 277267, Control_c, 0, 64, 38
1, 277282, Control_c, 0, 64, 51
1, 277296, Control_c, 0, 64, 59
1, 277311, Control_c, 0, 64, 62
1, 277326, Control_c, 0, 64, 64
1, 277341, Control_c, 0, 64, 66
1, 277356, Control_c, 0, 64, 67
1, 277386, Control_c, 0, 64, 66
1, 277401, Control_c, 0, 64, 63
1, 277415, Control_c, 0, 64, 60
1, 277430, Control_c, 0, 64, 59
1, 277460, Control_c, 0, 64, 60
1, 277475, Control_c, 0, 64, 62
1, 277483, Note_off_c, 0, 67, 62
1, 277489, Control_c, 0, 64, 64
1, 277493, Note_on_c, 0, 69, 65
1, 277502, Note_on_c, 0, 66, 56
1, 277504, Control_c, 0, 64, 65
1, 277519, Control_c, 0, 64, 67
1, 277524, Note_off_c, 0, 70, 57
1, 277533, Control_c, 0, 64, 69
1, 277548, Control_c, 0, 64, 72
1, 277563, Control_c, 0, 64, 75
1, 277578, Control_c, 0, 64, 80
1, 277593, Control_c, 0, 64, 85
1, 277607, Control_c, 0, 64, 89
1, 277622, Control_c, 0, 64, 93
1, 277637, Control_c, 0, 64, 95
1, 277652, Control_c, 0, 64, 95
1, 277666, Note_off_c, 0, 66, 36
1, 277667, Control_c, 0, 64, 96
1, 277725, Note_off_c, 0, 69, 37
1, 277852, Control_c, 0, 64, 95
1, 277881, Control_c, 0, 64, 95
1, 277896, Control_c, 0, 64, 93
1, 277911, Control_c, 0, 64, 89
1, 277916, Note_on_c, 0, 69, 75
1, 277919, Note_on_c, 0, 57, 57
1, 277921, Note_on_c, 0, 54, 56
1, 277921, Note_on_c, 0, 60, 55
1, 277921, Note_on_c, 0, 66, 66
1, 277922, Note_on_c, 0, 50, 57
1, 277925, Note_on_c, 0, 62, 63
1, 277925, Control_c, 0, 64, 82
1, 277940, Control_c, 0, 64, 74
1, 277956, Control_c, 0, 64, 66
1, 277971, Control_c, 0, 64, 58
1, 277986, Control_c, 0, 64, 45
1, 278001, Control_c, 0, 64, 0
1, 278631, Control_c, 0, 64, 29
1, 278646, Control_c, 0, 64, 41
1, 278661, Control_c, 0, 64, 51
1, 278676, Control_c, 0, 64, 57
1, 278690, Control_c, 0, 64, 60
1, 278705, Control_c, 0, 64, 62
1, 278720, Control_c, 0, 64, 64
1, 278735, Control_c, 0, 64, 66
1, 278751, Control_c, 0, 64, 69
1, 278766, Control_c, 0, 64, 72
1, 278772, Note_off_c, 0, 57, 52
1, 278780, Control_c, 0, 64, 77
1, 278795, Control_c, 0, 64, 83
1, 278810, Control_c, 0, 64, 89
1, 278825, Control_c, 0, 64, 96
1, 278839, Note_off_c, 0, 54, 61
1, 278840, Control_c, 0, 64, 105
1, 278854, Control_c, 0, 64, 118
1, 278869, Control_c, 0, 64, 127
1, 278879, Note_off_c, 0, 69, 57
1, 278945, Note_off_c, 0, 66, 38
1, 278975, Note_off_c, 0, 50, 34
1, 279195, Control_c, 0, 64, 116
1, 279210, Control_c, 0, 64, 104
1, 279225, Control_c, 0, 64, 93
1, 279240, Control_c, 0, 64, 81
1, 279254, Control_c, 0, 64, 70
1, 279257, Note_off_c, 0, 62, 36
1, 279265, Note_on_c, 0, 70, 49
1, 279269, Control_c, 0, 64, 62
1, 279270, Note_on_c, 0, 58, 37
1, 279271, Note_on_c, 0, 55, 37
1, 279284, Control_c, 0, 64, 52
1, 279294, Note_off_c, 0, 60, 47
1, 279298, Control_c, 0, 64, 47
1, 279312, Poly_aftertouch_c, 0, 67, 127
1, 279313, Control_c, 0, 64, 47
1, 279335, Control_c, 0, 64, 49
1, 279350, Control_c, 0, 64, 54
1, 279362, Poly_aftertouch_c, 0, 67, 0
1, 279365, Control_c, 0, 64, 60
1, 279380, Control_c, 0, 64, 65
1, 279395, Control_c, 0, 64, 72
1, 279410, Control_c, 0, 64, 80
1, 279421, Note_off_c, 0, 70, 64
1, 279425, Control_c, 0, 64, 87
1, 279440, Control_c, 0, 64, 91
1, 279454, Control_c, 0, 64, 92
1, 279513, Control_c, 0, 64, 92
1, 279528, Control_c, 0, 64, 91
1, 279543, Control_c, 0, 64, 90
1, 279559, Control_c, 0, 64, 87
1, 279574, Control_c, 0, 64, 83
1, 279585, Note_on_c, 0, 72, 48
1, 279589, Control_c, 0, 64, 79
1, 279603, Control_c, 0, 64, 75
1, 279618, Control_c, 0, 64, 72
1, 279633, Control_c, 0, 64, 69
1, 279648, Control_c, 0, 64, 65
1, 279651, Note_on_c, 0, 70, 59
1, 279663, Control_c, 0, 64, 61
1, 279677, Control_c, 0, 64, 57
1, 279685, Note_off_c, 0, 72, 59
1, 279692, Control_c, 0, 64, 53
1, 279706, Note_off_c, 0, 70, 64
1, 279707, Control_c, 0, 64, 48
1, 279717, Note_on_c, 0, 69, 63
1, 279721, Control_c, 0, 64, 43
1, 279736, Control_c, 0, 64, 35
1, 279751, Control_c, 0, 64, 0
1, 279787, Note_on_c, 0, 70, 60
1, 279888, Note_on_c, 0, 72, 65
1, 279890, Note_on_c, 0, 64, 36
1, 279898, Note_off_c, 0, 58, 46
1, 279908, Note_off_c, 0, 69, 32
1, 279973, Note_off_c, 0, 70, 52
1, 280143, Control_c, 0, 64, 32
1, 280158, Control_c, 0, 64, 43
1, 280173, Control_c, 0, 64, 54
1, 280188, Control_c, 0, 64, 61
1, 280202, Control_c, 0, 64, 64
1, 280215, Note_on_c, 0, 74, 65
1, 280217, Control_c, 0, 64, 66
1, 280228, Note_off_c, 0, 72, 58
1, 280232, Control_c, 0, 64, 69
1, 280246, Note_off_c, 0, 55, 55
1, 280247, Control_c, 0, 64, 73
1, 280261, Control_c, 0, 64, 77
1, 280276, Control_c, 0, 64, 82
1, 280291, Control_c, 0, 64, 87
1, 280306, Control_c, 0, 64, 89
1, 280319, Note_off_c, 0, 64, 56
1, 280411, Control_c, 0, 64, 88
1, 280425, Control_c, 0, 64, 86
1, 280440, Control_c, 0, 64, 85
1, 280455, Control_c, 0, 64, 84
1, 280470, Control_c, 0, 64, 83
1, 280485, Control_c, 0, 64, 82
1, 280499, Control_c, 0, 64, 79
1, 280514, Control_c, 0, 64, 75
1, 280529, Control_c, 0, 64, 70
1, 280543, Control_c, 0, 64, 65
1, 280544, Note_on_c, 0, 72, 59
1, 280558, Note_on_c, 0, 65, 40
1, 280558, Control_c, 0, 64, 60
1, 280562, Note_on_c, 0, 57, 34
1, 280573, Control_c, 0, 64, 55
1, 280588, Control_c, 0, 64, 49
1, 280603, Control_c, 0, 64, 44
1, 280608, Note_off_c, 0, 74, 48
1, 280617, Control_c, 0, 64, 42
1, 280647, Control_c, 0, 64, 43
1, 280662, Control_c, 0, 64, 43
1, 280677, Control_c, 0, 64, 45
1, 280692, Control_c, 0, 64, 48
1, 280707, Control_c, 0, 64, 51
1, 280721, Control_c, 0, 64, 54
1, 280736, Control_c, 0, 64, 56
1, 280751, Control_c, 0, 64, 57
1, 280766, Control_c, 0, 64, 59
1, 280781, Control_c, 0, 64, 60
1, 280787, Note_on_c, 0, 70, 66
1, 280796, Control_c, 0, 64, 61
1, 280811, Control_c, 0, 64, 62
1, 280829, Note_off_c, 0, 72, 60
1, 280906, Control_c, 0, 64, 61
1, 280936, Control_c, 0, 64, 61
1, 280951, Control_c, 0, 64, 60
1, 280966, Control_c, 0, 64, 59
1, 280969, Note_on_c, 0, 69, 67
1, 280981, Control_c, 0, 64, 58
1, 280996, Control_c, 0, 64, 58
1, 281009, Note_off_c, 0, 70, 56
1, 281011, Control_c, 0, 64, 57
1, 281025, Control_c, 0, 64, 56
1, 281040, Control_c, 0, 64, 56
1, 281055, Control_c, 0, 64, 54
1, 281070, Control_c, 0, 64, 53
1, 281084, Control_c, 0, 64, 52
1, 281099, Control_c, 0, 64, 50
1, 281112, Note_off_c, 0, 57, 38
1, 281114, Control_c, 0, 64, 49
1, 281129, Control_c, 0, 64, 46
1, 281144, Control_c, 0, 64, 39
1, 281160, Note_on_c, 0, 67, 66
1, 281160, Control_c, 0, 64, 0
1, 281165, Note_on_c, 0, 62, 45
1, 281176, Note_on_c, 0, 58, 38
1, 281178, Note_off_c, 0, 65, 43
1, 281189, Note_off_c, 0, 69, 59
1, 281349, Note_on_c, 0, 70, 63
1, 281381, Control_c, 0, 64, 44
1, 281387, Note_off_c, 0, 62, 59
1, 281388, Note_off_c, 0, 67, 63
1, 281396, Control_c, 0, 64, 54
1, 281411, Control_c, 0, 64, 59
1, 281426, Control_c, 0, 64, 61
1, 281441, Control_c, 0, 64, 63
1, 281455, Control_c, 0, 64, 64
1, 281470, Note_off_c, 0, 58, 63
1, 281470, Control_c, 0, 64, 65
1, 281486, Control_c, 0, 64, 65
1, 281526, Note_on_c, 0, 74, 64
1, 281530, Control_c, 0, 64, 66
1, 281559, Note_off_c, 0, 70, 57
1, 281597, Control_c, 0, 64, 65
1, 281627, Control_c, 0, 64, 65
1, 281642, Control_c, 0, 64, 64
1, 281656, Control_c, 0, 64, 64
1, 281671, Control_c, 0, 64, 63
1, 281686, Control_c, 0, 64, 62
1, 281700, Control_c, 0, 64, 61
1, 281715, Control_c, 0, 64, 60
1, 281730, Control_c, 0, 64, 59
1, 281745, Control_c, 0, 64, 58
1, 281760, Control_c, 0, 64, 57
1, 281774, Control_c, 0, 64, 55
1, 281789, Control_c, 0, 64, 54
1, 281798, Note_on_c, 0, 65, 55
1, 281804, Control_c, 0, 64, 52
1, 281814, Note_on_c, 0, 48, 31
1, 281814, Note_on_c, 0, 57, 35
1, 281818, Control_c, 0, 64, 52
1, 281827, Note_off_c, 0, 74, 28
1, 281833, Control_c, 0, 64, 51
1, 281848, Control_c, 0, 64, 49
1, 281863, Control_c, 0, 64, 45
1, 281878, Control_c, 0, 64, 36
1, 281893, Control_c, 0, 64, 0
1, 282117, Control_c, 0, 67, 19
1, 282146, Control_c, 0, 67, 22
1, 282427, Note_off_c, 0, 65, 57
1, 282435, Control_c, 0, 67, 20
1, 282441, Note_on_c, 0, 67, 43
1, 282453, Note_on_c, 0, 58, 36
1, 282462, Note_on_c, 0, 64, 22
1, 282508, Note_off_c, 0, 57, 43
1, 282627, Control_c, 0, 64, 42
1, 282641, Control_c, 0, 64, 53
1, 282641, Control_c, 0, 67, 23
1, 282656, Control_c, 0, 64, 59
1, 282671, Control_c, 0, 64, 62
1, 282671, Control_c, 0, 67, 25
1, 282674, Note_off_c, 0, 64, 40
1, 282686, Control_c, 0, 64, 64
1, 282695, Note_off_c, 0, 67, 61
1, 282701, Control_c, 0, 64, 66
1, 282701, Control_c, 0, 67, 32
1, 282716, Control_c, 0, 64, 69
1, 282716, Control_c, 0, 67, 41
1, 282731, Control_c, 0, 64, 73
1, 282731, Control_c, 0, 67, 50
1, 282746, Note_off_c, 0, 48, 37
1, 282746, Control_c, 0, 64, 76
1, 282746, Control_c, 0, 67, 60
1, 282761, Control_c, 0, 64, 79
1, 282761, Control_c, 0, 67, 71
1, 282776, Control_c, 0, 64, 82
1, 282776, Control_c, 0, 67, 81
1, 282791, Control_c, 0, 64, 83
1, 282791, Control_c, 0, 67, 90
1, 282806, Control_c, 0, 64, 83
1, 282806, Control_c, 0, 67, 98
1, 282820, Control_c, 0, 67, 105
1, 282835, Control_c, 0, 67, 111
1, 282850, Control_c, 0, 67, 115
1, 282862, Note_off_c, 0, 58, 33
1, 282909, Control_c, 0, 64, 83
1, 282969, Control_c, 0, 64, 82
1, 282984, Control_c, 0, 64, 81
1, 282999, Control_c, 0, 64, 80
1, 283014, Control_c, 0, 64, 80
1, 283028, Control_c, 0, 64, 79
1, 283043, Control_c, 0, 64, 78
1, 283058, Control_c, 0, 64, 78
1, 283079, Control_c, 0, 64, 76
1, 283094, Control_c, 0, 64, 74
1, 283102, Note_on_c, 0, 67, 45
1, 283109, Control_c, 0, 64, 72
1, 283110, Note_on_c, 0, 53, 32
1, 283117, Note_on_c, 0, 58, 32
1, 283124, Control_c, 0, 64, 70
1, 283130, Note_on_c, 0, 64, 16
1, 283139, Control_c, 0, 64, 67
1, 283154, Control_c, 0, 64, 64
1, 283169, Control_c, 0, 64, 57
1, 283184, Control_c, 0, 64, 44
1, 283199, Control_c, 0, 64, 29
1, 283214, Control_c, 0, 64, 0
1, 283287, Control_c, 0, 64, 34
1, 283302, Control_c, 0, 64, 43
1, 283317, Control_c, 0, 64, 50
1, 283332, Control_c, 0, 64, 54
1, 283346, Control_c, 0, 64, 56
1, 283361, Control_c, 0, 64, 57
1, 283376, Control_c, 0, 64, 58
1, 283420, Control_c, 0, 64, 57
1, 283449, Note_on_c, 0, 60, 36
1, 283450, Control_c, 0, 64, 57
1, 283450, Control_c, 0, 67, 113
1, 283479, Control_c, 0, 64, 56
1, 283482, Note_off_c, 0, 58, 45
1, 283494, Control_c, 0, 64, 56
1, 283507, Note_off_c, 0, 60, 57
1, 283509, Control_c, 0, 64, 55
1, 283524, Control_c, 0, 64, 53
1, 283540, Control_c, 0, 64, 51
1, 283555, Control_c, 0, 64, 49
1, 283567, Note_on_c, 0, 68, 44
1, 283569, Control_c, 0, 64, 48
1, 283583, Note_off_c, 0, 67, 41
1, 283584, Control_c, 0, 64, 46
1, 283599, Control_c, 0, 64, 43
1, 283614, Control_c, 0, 64, 39
1, 283629, Control_c, 0, 64, 30
1, 283643, Control_c, 0, 64, 0
1, 283704, Note_off_c, 0, 64, 46
1, 283717, Note_on_c, 0, 69, 43
1, 283717, Note_off_c, 0, 68, 49
1, 283724, Note_on_c, 0, 65, 36
1, 283725, Note_on_c, 0, 60, 32
1, 283771, Note_off_c, 0, 60, 53
1, 283834, Note_off_c, 0, 53, 41
1, 284032, Note_on_c, 0, 60, 38
1, 284085, Note_off_c, 0, 60, 58
1, 284331, Note_off_c, 0, 65, 43
1, 284334, Note_on_c, 0, 53, 33
1, 284336, Note_on_c, 0, 57, 35
1, 284337, Note_off_c, 0, 69, 51
1, 284638, Note_on_c, 0, 60, 34
1, 284714, Note_off_c, 0, 57, 43
1, 284725, Control_c, 0, 67, 111
1, 284799, Control_c, 0, 67, 109
1, 284927, Note_off_c, 0, 53, 33
1, 284933, Control_c, 0, 67, 107
1, 284949, Note_on_c, 0, 58, 42
1, 284951, Note_on_c, 0, 55, 38
1, 284961, Note_off_c, 0, 60, 36
1, 284977, Control_c, 0, 67, 104
1, 285007, Control_c, 0, 67, 102
1, 285037, Control_c, 0, 67, 95
1, 285051, Control_c, 0, 67, 87
1, 285066, Control_c, 0, 67, 78
1, 285081, Control_c, 0, 67, 68
1, 285096, Control_c, 0, 67, 58
1, 285111, Control_c, 0, 67, 50
1, 285125, Control_c, 0, 67, 43
1, 285141, Control_c, 0, 67, 37
1, 285156, Control_c, 0, 67, 33
1, 285171, Control_c, 0, 67, 29
1, 285186, Control_c, 0, 67, 25
1, 285201, Control_c, 0, 67, 20
1, 285215, Control_c, 0, 67, 0
1, 285262, Note_on_c, 0, 60, 41
1, 285454, Note_off_c, 0, 55, 39
1, 285454, Note_off_c, 0, 58, 40
1, 285586, Note_on_c, 0, 55, 31
1, 285586, Note_on_c, 0, 70, 59
1, 285609, Note_on_c, 0, 52, 32
1, 285623, Note_off_c, 0, 60, 37
1, 285923, Note_on_c, 0, 60, 31
1, 285932, Note_off_c, 0, 55, 44
1, 285966, Note_off_c, 0, 60, 49
1, 286188, Note_off_c, 0, 52, 0
1, 286218, Note_on_c, 0, 60, 37
1, 286224, Poly_aftertouch_c, 0, 52, 127
1, 286238, Control_c, 0, 67, 19
1, 286254, Note_off_c, 0, 70, 56
1, 286256, Note_off_c, 0, 60, 55
1, 286268, Control_c, 0, 67, 23
1, 286297, Control_c, 0, 67, 26
1, 286307, Poly_aftertouch_c, 0, 52, 0
1, 286312, Control_c, 0, 67, 28
1, 286327, Control_c, 0, 67, 32
1, 286342, Control_c, 0, 67, 36
1, 286357, Control_c, 0, 67, 40
1, 286371, Control_c, 0, 67, 44
1, 286386, Control_c, 0, 67, 48
1, 286401, Control_c, 0, 67, 51
1, 286415, Control_c, 0, 67, 55
1, 286430, Control_c, 0, 67, 59
1, 286445, Control_c, 0, 67, 60
1, 286512, Note_on_c, 0, 60, 42
1, 286534, Control_c, 0, 67, 59
1, 286549, Control_c, 0, 67, 59
1, 286556, Note_off_c, 0, 60, 55
1, 286579, Control_c, 0, 67, 58
1, 286594, Control_c, 0, 67, 58
1, 286668, Control_c, 0, 67, 57
1, 286712, Control_c, 0, 67, 57
1, 286773, Control_c, 0, 67, 56
1, 286805, Note_on_c, 0, 67, 50
1, 286824, Note_on_c, 0, 52, 29
1, 286829, Note_on_c, 0, 48, 26
1, 286862, Note_off_c, 0, 67, 55
1, 287122, Note_on_c, 0, 60, 32
1, 287249, Note_off_c, 0, 48, 33
1, 287284, Control_c, 0, 67, 56
1, 287396, Note_on_c, 0, 55, 35
1, 287403, Note_on_c, 0, 64, 47
1, 287406, Note_off_c, 0, 60, 41
1, 287408, Note_on_c, 0, 58, 37
1, 287476, Note_off_c, 0, 64, 53
1, 287509, Note_off_c, 0, 52, 40
1, 287710, Note_on_c, 0, 60, 36
1, 287768, Note_off_c, 0, 58, 39
1, 287885, Control_c, 0, 67, 55
1, 287980, Note_off_c, 0, 55, 30
1, 288021, Note_off_c, 0, 60, 40
1, 288028, Note_on_c, 0, 72, 57
1, 288046, Note_on_c, 0, 53, 29
1, 288049, Note_on_c, 0, 57, 32
1, 288254, Control_c, 0, 64, 33
1, 288269, Control_c, 0, 64, 47
1, 288284, Control_c, 0, 64, 55
1, 288299, Control_c, 0, 64, 58
1, 288321, Control_c, 0, 64, 59
1, 288337, Control_c, 0, 64, 60
1, 288352, Control_c, 0, 64, 60
1, 288391, Note_on_c, 0, 60, 34
1, 288396, Control_c, 0, 67, 55
1, 288437, Note_off_c, 0, 60, 56
1, 288440, Control_c, 0, 64, 60
1, 288455, Control_c, 0, 64, 59
1, 288470, Control_c, 0, 64, 57
1, 288485, Control_c, 0, 64, 56
1, 288493, Note_on_c, 0, 69, 49
1, 288496, Note_off_c, 0, 72, 47
1, 288499, Control_c, 0, 64, 54
1, 288514, Control_c, 0, 64, 51
1, 288529, Control_c, 0, 64, 49
1, 288529, Control_c, 0, 67, 54
1, 288544, Control_c, 0, 64, 47
1, 288559, Control_c, 0, 64, 45
1, 288573, Control_c, 0, 64, 42
1, 288588, Control_c, 0, 64, 36
1, 288603, Control_c, 0, 64, 0
1, 288634, Note_on_c, 0, 72, 54
1, 288656, Note_off_c, 0, 69, 54
1, 288670, Note_on_c, 0, 60, 32
1, 288711, Note_off_c, 0, 57, 40
1, 288720, Note_off_c, 0, 60, 48
1, 288770, Note_off_c, 0, 53, 38
1, 288936, Note_on_c, 0, 60, 39
1, 288976, Note_off_c, 0, 60, 51
1, 289047, Control_c, 0, 67, 54
1, 289070, Control_c, 0, 67, 53
1, 289114, Control_c, 0, 67, 53
1, 289145, Control_c, 0, 67, 52
1, 289189, Control_c, 0, 67, 52
1, 289204, Control_c, 0, 67, 51
1, 289232, Note_on_c, 0, 57, 40
1, 289238, Note_on_c, 0, 53, 28
1, 289248, Control_c, 0, 67, 51
1, 289263, Control_c, 0, 67, 50
1, 289274, Note_off_c, 0, 72, 60
1, 289278, Control_c, 0, 67, 50
1, 289293, Control_c, 0, 67, 49
1, 289307, Control_c, 0, 67, 49
1, 289322, Control_c, 0, 67, 48
1, 289352, Control_c, 0, 67, 48
1, 289366, Control_c, 0, 67, 47
1, 289411, Control_c, 0, 67, 47
1, 289456, Control_c, 0, 67, 46
1, 289485, Control_c, 0, 67, 46
1, 289528, Note_on_c, 0, 60, 40
1, 289545, Control_c, 0, 67, 45
1, 289559, Control_c, 0, 67, 45
1, 289619, Control_c, 0, 67, 44
1, 289633, Control_c, 0, 67, 44
1, 289648, Control_c, 0, 67, 41
1, 289652, Note_off_c, 0, 57, 44
1, 289663, Control_c, 0, 67, 36
1, 289678, Control_c, 0, 67, 31
1, 289693, Control_c, 0, 67, 27
1, 289707, Control_c, 0, 67, 24
1, 289722, Control_c, 0, 67, 21
1, 289737, Control_c, 0, 67, 19
1, 289752, Control_c, 0, 67, 0
1, 289827, Note_off_c, 0, 53, 40
1, 289828, Note_on_c, 0, 58, 40
1, 289828, Note_off_c, 0, 60, 36
1, 289836, Note_on_c, 0, 55, 39
1, 290129, Note_on_c, 0, 60, 38
1, 290175, Control_c, 0, 67, 19
1, 290232, Note_off_c, 0, 55, 45
1, 290248, Note_off_c, 0, 58, 32
1, 290401, Note_on_c, 0, 70, 63
1, 290412, Note_on_c, 0, 55, 25
1, 290418, Note_off_c, 0, 60, 32
1, 290427, Note_on_c, 0, 52, 36
1, 290582, Control_c, 0, 67, 21
1, 290611, Control_c, 0, 67, 23
1, 290641, Control_c, 0, 67, 25
1, 290670, Control_c, 0, 67, 27
1, 290700, Control_c, 0, 67, 29
1, 290731, Control_c, 0, 67, 32
1, 290735, Note_on_c, 0, 60, 31
1, 290746, Control_c, 0, 67, 34
1, 290757, Note_off_c, 0, 55, 42
1, 290760, Control_c, 0, 67, 38
1, 290775, Control_c, 0, 67, 43
1, 290790, Control_c, 0, 67, 49
1, 290793, Note_off_c, 0, 60, 58
1, 290804, Control_c, 0, 67, 57
1, 290819, Control_c, 0, 67, 64
1, 290834, Control_c, 0, 67, 70
1, 290849, Control_c, 0, 67, 75
1, 290864, Control_c, 0, 67, 78
1, 290878, Control_c, 0, 67, 81
1, 290893, Control_c, 0, 67, 83
1, 290908, Control_c, 0, 67, 86
1, 290923, Control_c, 0, 67, 86
1, 290997, Control_c, 0, 67, 87
1, 291033, Note_on_c, 0, 60, 38
1, 291041, Control_c, 0, 67, 86
1, 291070, Note_off_c, 0, 70, 57
1, 291072, Note_off_c, 0, 60, 54
1, 291104, Note_off_c, 0, 52, 20
1, 291116, Control_c, 0, 67, 86
1, 291130, Control_c, 0, 67, 85
1, 291145, Control_c, 0, 67, 85
1, 291160, Control_c, 0, 67, 84
1, 291265, Control_c, 0, 67, 84
1, 291342, Note_on_c, 0, 60, 37
1, 291375, Control_c, 0, 67, 83
1, 291378, Note_off_c, 0, 60, 55
1, 291480, Control_c, 0, 67, 83
1, 291636, Note_on_c, 0, 67, 41
1, 291642, Note_on_c, 0, 48, 27
1, 291651, Note_on_c, 0, 52, 15
1, 291703, Control_c, 0, 67, 82
1, 291706, Note_off_c, 0, 67, 59
1, 291732, Control_c, 0, 67, 82
1, 291791, Control_c, 0, 67, 81
1, 291880, Control_c, 0, 67, 81
1, 291947, Note_on_c, 0, 60, 32
1, 292043, Control_c, 0, 67, 80
1, 292080, Control_c, 0, 67, 80
1, 292103, Note_off_c, 0, 48, 30
1, 292139, Control_c, 0, 67, 79
1, 292168, Control_c, 0, 67, 79
1, 292221, Note_on_c, 0, 55, 36
1, 292225, Note_on_c, 0, 64, 44
1, 292237, Note_off_c, 0, 60, 39
1, 292241, Note_on_c, 0, 58, 32
1, 292258, Control_c, 0, 67, 78
1, 292272, Control_c, 0, 67, 78
1, 292296, Note_off_c, 0, 64, 53
1, 292302, Control_c, 0, 67, 77
1, 292317, Control_c, 0, 67, 76
1, 292332, Control_c, 0, 67, 76
1, 292347, Control_c, 0, 67, 75
1, 292359, Note_off_c, 0, 52, 40
1, 292362, Control_c, 0, 67, 75
1, 292377, Control_c, 0, 67, 74
1, 292392, Control_c, 0, 67, 73
1, 292422, Control_c, 0, 67, 72
1, 292436, Control_c, 0, 67, 72
1, 292451, Control_c, 0, 67, 71
1, 292466, Control_c, 0, 67, 67
1, 292481, Control_c, 0, 67, 63
1, 292496, Control_c, 0, 67, 59
1, 292511, Control_c, 0, 67, 55
1, 292526, Control_c, 0, 67, 51
1, 292540, Control_c, 0, 67, 47
1, 292548, Note_on_c, 0, 60, 36
1, 292555, Control_c, 0, 67, 44
1, 292570, Control_c, 0, 67, 41
1, 292584, Control_c, 0, 67, 38
1, 292599, Control_c, 0, 67, 35
1, 292614, Control_c, 0, 67, 33
1, 292617, Note_off_c, 0, 58, 39
1, 292629, Control_c, 0, 67, 31
1, 292644, Control_c, 0, 67, 29
1, 292673, Control_c, 0, 67, 26
1, 292688, Control_c, 0, 67, 24
1, 292702, Control_c, 0, 67, 21
1, 292732, Control_c, 0, 67, 0
1, 292880, Note_off_c, 0, 55, 28
1, 292915, Note_off_c, 0, 60, 41
1, 292932, Note_on_c, 0, 72, 53
1, 292949, Note_on_c, 0, 53, 28
1, 292952, Note_on_c, 0, 57, 32
1, 293095, Control_c, 0, 64, 41
1, 293110, Control_c, 0, 64, 53
1, 293125, Control_c, 0, 64, 59
1, 293140, Control_c, 0, 64, 63
1, 293155, Control_c, 0, 64, 65
1, 293166, Note_off_c, 0, 72, 51
1, 293170, Control_c, 0, 64, 68
1, 293185, Control_c, 0, 64, 72
1, 293200, Control_c, 0, 64, 77
1, 293214, Control_c, 0, 64, 83
1, 293229, Control_c, 0, 64, 87
1, 293244, Control_c, 0, 64, 91
1, 293259, Control_c, 0, 64, 92
1, 293274, Control_c, 0, 64, 93
1, 293422, Control_c, 0, 64, 92
1, 293467, Control_c, 0, 64, 91
1, 293481, Control_c, 0, 64, 91
1, 293496, Control_c, 0, 64, 89
1, 293510, Note_on_c, 0, 77, 47
1, 293511, Control_c, 0, 64, 87
1, 293525, Control_c, 0, 64, 84
1, 293540, Control_c, 0, 64, 82
1, 293563, Control_c, 0, 64, 79
1, 293578, Control_c, 0, 64, 77
1, 293593, Control_c, 0, 64, 73
1, 293607, Control_c, 0, 64, 70
1, 293622, Control_c, 0, 64, 66
1, 293637, Control_c, 0, 64, 63
1, 293652, Control_c, 0, 64, 58
1, 293667, Control_c, 0, 64, 54
1, 293673, Note_off_c, 0, 53, 41
1, 293681, Control_c, 0, 64, 51
1, 293695, Note_off_c, 0, 57, 42
1, 293696, Control_c, 0, 64, 50
1, 293711, Control_c, 0, 64, 48
1, 293719, Note_on_c, 0, 72, 29
1, 293725, Note_off_c, 0, 77, 35
1, 293725, Control_c, 0, 64, 46
1, 293740, Control_c, 0, 64, 43
1, 293755, Control_c, 0, 64, 38
1, 293770, Control_c, 0, 64, 32
1, 293785, Control_c, 0, 64, 0
1, 294097, Note_off_c, 0, 72, 33
1, 294580, Note_on_c, 0, 81, 80
1, 294584, Note_on_c, 0, 77, 68
1, 294937, Note_off_c, 0, 77, 58
1, 294952, Note_on_c, 0, 79, 49
1, 294954, Note_on_c, 0, 76, 48
1, 294958, Note_off_c, 0, 81, 36
1, 295253, Note_off_c, 0, 76, 54
1, 295270, Note_off_c, 0, 79, 38
1, 295274, Note_on_c, 0, 74, 43
1, 295274, Note_on_c, 0, 77, 46
1, 295357, Control_c, 0, 64, 35
1, 295372, Control_c, 0, 64, 49
1, 295386, Control_c, 0, 64, 58
1, 295401, Control_c, 0, 64, 63
1, 295416, Control_c, 0, 64, 65
1, 295429, Note_off_c, 0, 77, 61
1, 295431, Control_c, 0, 64, 69
1, 295446, Control_c, 0, 64, 71
1, 295460, Control_c, 0, 64, 74
1, 295475, Control_c, 0, 64, 76
1, 295490, Control_c, 0, 64, 76
1, 295535, Control_c, 0, 64, 73
1, 295550, Control_c, 0, 64, 68
1, 295552, Note_off_c, 0, 74, 58
1, 295560, Note_on_c, 0, 76, 58
1, 295565, Control_c, 0, 64, 63
1, 295570, Note_on_c, 0, 73, 50
1, 295580, Control_c, 0, 64, 60
1, 295594, Control_c, 0, 64, 59
1, 295609, Control_c, 0, 64, 60
1, 295624, Control_c, 0, 64, 62
1, 295639, Control_c, 0, 64, 65
1, 295654, Control_c, 0, 64, 69
1, 295665, Note_off_c, 0, 73, 54
1, 295668, Control_c, 0, 64, 74
1, 295683, Control_c, 0, 64, 82
1, 295698, Control_c, 0, 64, 93
1, 295712, Note_off_c, 0, 76, 58
1, 295713, Control_c, 0, 64, 116
1, 295727, Control_c, 0, 64, 127
1, 295854, Control_c, 0, 64, 125
1, 295869, Control_c, 0, 64, 99
1, 295876, Note_on_c, 0, 77, 76
1, 295878, Note_on_c, 0, 74, 71
1, 295883, Control_c, 0, 64, 86
1, 295898, Control_c, 0, 64, 77
1, 295913, Control_c, 0, 64, 70
1, 295927, Control_c, 0, 64, 64
1, 295942, Control_c, 0, 64, 58
1, 295957, Control_c, 0, 64, 54
1, 295972, Control_c, 0, 64, 50
1, 295987, Control_c, 0, 64, 47
1, 296002, Control_c, 0, 64, 44
1, 296016, Control_c, 0, 64, 40
1, 296031, Control_c, 0, 64, 36
1, 296046, Control_c, 0, 64, 0
1, 296208, Note_off_c, 0, 74, 59
1, 296215, Note_on_c, 0, 76, 52
1, 296222, Note_on_c, 0, 72, 38
1, 296231, Note_off_c, 0, 77, 49
1, 296298, Control_c, 0, 64, 32
1, 296313, Control_c, 0, 64, 45
1, 296329, Control_c, 0, 64, 55
1, 296344, Control_c, 0, 64, 61
1, 296358, Control_c, 0, 64, 64
1, 296373, Control_c, 0, 64, 67
1, 296388, Control_c, 0, 64, 72
1, 296403, Control_c, 0, 64, 76
1, 296406, Note_off_c, 0, 76, 63
1, 296417, Control_c, 0, 64, 80
1, 296432, Control_c, 0, 64, 84
1, 296447, Control_c, 0, 64, 84
1, 296492, Control_c, 0, 64, 83
1, 296507, Control_c, 0, 64, 79
1, 296519, Note_on_c, 0, 74, 59
1, 296522, Control_c, 0, 64, 71
1, 296529, Note_on_c, 0, 70, 49
1, 296537, Control_c, 0, 64, 62
1, 296540, Note_off_c, 0, 72, 36
1, 296559, Control_c, 0, 64, 50
1, 296574, Control_c, 0, 64, 34
1, 296589, Control_c, 0, 64, 0
1, 296677, Control_c, 0, 64, 34
1, 296692, Control_c, 0, 64, 48
1, 296707, Control_c, 0, 64, 56
1, 296722, Control_c, 0, 64, 59
1, 296737, Control_c, 0, 64, 60
1, 296751, Control_c, 0, 64, 61
1, 296766, Control_c, 0, 64, 60
1, 296781, Control_c, 0, 64, 59
1, 296796, Control_c, 0, 64, 56
1, 296811, Control_c, 0, 64, 49
1, 296820, Note_off_c, 0, 74, 58
1, 296824, Note_on_c, 0, 73, 55
1, 296825, Control_c, 0, 64, 40
1, 296829, Note_on_c, 0, 69, 49
1, 296840, Control_c, 0, 64, 0
1, 296847, Note_off_c, 0, 70, 43
1, 296914, Control_c, 0, 64, 42
1, 296929, Control_c, 0, 64, 54
1, 296944, Control_c, 0, 64, 63
1, 296958, Control_c, 0, 64, 67
1, 296973, Control_c, 0, 64, 72
1, 296988, Control_c, 0, 64, 78
1, 297003, Control_c, 0, 64, 84
1, 297016, Note_off_c, 0, 73, 45
1, 297018, Control_c, 0, 64, 90
1, 297020, Note_off_c, 0, 69, 54
1, 297033, Control_c, 0, 64, 95
1, 297077, Control_c, 0, 64, 94
1, 297092, Control_c, 0, 64, 90
1, 297107, Control_c, 0, 64, 86
1, 297122, Control_c, 0, 64, 82
1, 297125, Note_on_c, 0, 70, 74
1, 297127, Note_on_c, 0, 74, 80
1, 297137, Control_c, 0, 64, 78
1, 297152, Control_c, 0, 64, 72
1, 297167, Control_c, 0, 64, 67
1, 297182, Control_c, 0, 64, 63
1, 297197, Control_c, 0, 64, 60
1, 297212, Control_c, 0, 64, 56
1, 297227, Control_c, 0, 64, 54
1, 297241, Control_c, 0, 64, 52
1, 297256, Control_c, 0, 64, 50
1, 297271, Control_c, 0, 64, 48
1, 297286, Control_c, 0, 64, 45
1, 297307, Control_c, 0, 64, 41
1, 297322, Control_c, 0, 64, 37
1, 297337, Control_c, 0, 64, 31
1, 297352, Control_c, 0, 64, 0
1, 297450, Note_on_c, 0, 72, 61
1, 297454, Note_on_c, 0, 69, 60
1, 297480, Note_off_c, 0, 70, 56
1, 297509, Note_off_c, 0, 74, 48
1, 297753, Note_on_c, 0, 70, 67
1, 297754, Note_off_c, 0, 69, 58
1, 297761, Note_on_c, 0, 67, 58
1, 297800, Note_off_c, 0, 72, 54
1, 297871, Control_c, 0, 64, 30
1, 297886, Control_c, 0, 64, 44
1, 297900, Control_c, 0, 64, 56
1, 297915, Control_c, 0, 64, 62
1, 297930, Control_c, 0, 64, 65
1, 297945, Control_c, 0, 64, 66
1, 297960, Control_c, 0, 64, 67
1, 297975, Control_c, 0, 64, 69
1, 298020, Control_c, 0, 64, 67
1, 298035, Control_c, 0, 64, 62
1, 298056, Control_c, 0, 64, 56
1, 298064, Note_off_c, 0, 67, 62
1, 298070, Note_on_c, 0, 69, 68
1, 298071, Control_c, 0, 64, 50
1, 298086, Control_c, 0, 64, 50
1, 298088, Note_on_c, 0, 66, 52
1, 298094, Note_off_c, 0, 70, 63
1, 298101, Control_c, 0, 64, 52
1, 298116, Control_c, 0, 64, 55
1, 298130, Control_c, 0, 64, 58
1, 298145, Control_c, 0, 64, 61
1, 298160, Control_c, 0, 64, 64
1, 298175, Control_c, 0, 64, 66
1, 298190, Control_c, 0, 64, 68
1, 298204, Control_c, 0, 64, 70
1, 298219, Control_c, 0, 64, 73
1, 298234, Control_c, 0, 64, 77
1, 298249, Control_c, 0, 64, 81
1, 298252, Note_off_c, 0, 66, 49
1, 298264, Control_c, 0, 64, 85
1, 298279, Control_c, 0, 64, 89
1, 298294, Control_c, 0, 64, 92
1, 298309, Control_c, 0, 64, 94
1, 298323, Control_c, 0, 64, 94
1, 298386, Note_off_c, 0, 69, 30
1, 298427, Control_c, 0, 64, 94
1, 298456, Control_c, 0, 64, 93
1, 298471, Control_c, 0, 64, 93
1, 298486, Control_c, 0, 64, 92
1, 298501, Control_c, 0, 64, 89
1, 298505, Note_on_c, 0, 69, 71
1, 298512, Note_on_c, 0, 66, 65
1, 298514, Note_on_c, 0, 50, 55
1, 298514, Note_on_c, 0, 62, 64
1, 298515, Note_on_c, 0, 60, 56
1, 298515, Control_c, 0, 64, 84
1, 298518, Note_on_c, 0, 54, 54
1, 298519, Note_on_c, 0, 57, 56
1, 298530, Control_c, 0, 64, 79
1, 298545, Control_c, 0, 64, 74
1, 298560, Control_c, 0, 64, 69
1, 298575, Control_c, 0, 64, 64
1, 298589, Control_c, 0, 64, 60
1, 298604, Control_c, 0, 64, 53
1, 298619, Control_c, 0, 64, 49
1, 298634, Control_c, 0, 64, 47
1, 298738, Control_c, 0, 64, 46
1, 298768, Control_c, 0, 64, 46
1, 298783, Control_c, 0, 64, 45
1, 298805, Control_c, 0, 64, 44
1, 298820, Control_c, 0, 64, 41
1, 298834, Control_c, 0, 64, 35
1, 298849, Control_c, 0, 64, 0
1, 299204, Control_c, 0, 64, 33
1, 299219, Control_c, 0, 64, 46
1, 299234, Control_c, 0, 64, 56
1, 299249, Control_c, 0, 64, 60
1, 299264, Control_c, 0, 64, 62
1, 299278, Control_c, 0, 64, 63
1, 299293, Control_c, 0, 64, 65
1, 299308, Control_c, 0, 64, 67
1, 299323, Control_c, 0, 64, 70
1, 299337, Control_c, 0, 64, 73
1, 299352, Control_c, 0, 64, 76
1, 299362, Note_off_c, 0, 57, 37
1, 299367, Control_c, 0, 64, 80
1, 299382, Control_c, 0, 64, 86
1, 299397, Control_c, 0, 64, 90
1, 299397, Note_off_c, 0, 54, 57
1, 299412, Control_c, 0, 64, 93
1, 299427, Control_c, 0, 64, 94
1, 299442, Control_c, 0, 64, 95
1, 299457, Control_c, 0, 64, 95
1, 299465, Note_off_c, 0, 50, 52
1, 299471, Control_c, 0, 64, 96
1, 299479, Note_off_c, 0, 66, 37
1, 299483, Note_off_c, 0, 69, 57
1, 299688, Control_c, 0, 64, 95
1, 299702, Control_c, 0, 64, 94
1, 299717, Control_c, 0, 64, 93
1, 299732, Control_c, 0, 64, 92
1, 299747, Control_c, 0, 64, 91
1, 299762, Control_c, 0, 64, 90
1, 299776, Control_c, 0, 64, 89
1, 299791, Control_c, 0, 64, 88
1, 299806, Control_c, 0, 64, 85
1, 299820, Control_c, 0, 64, 81
1, 299835, Control_c, 0, 64, 72
1, 299850, Control_c, 0, 64, 64
1, 299853, Note_off_c, 0, 62, 36
1, 299865, Control_c, 0, 64, 55
1, 299871, Note_on_c, 0, 70, 50
1, 299877, Note_on_c, 0, 55, 39
1, 299880, Control_c, 0, 64, 43
1, 299883, Note_on_c, 0, 58, 33
1, 299895, Control_c, 0, 64, 32
1, 299898, Note_off_c, 0, 60, 44
1, 299910, Control_c, 0, 64, 0
1, 299924, Control_c, 0, 64, 29
1, 299939, Control_c, 0, 64, 34
1, 299954, Control_c, 0, 64, 42
1, 299969, Control_c, 0, 64, 54
1, 299984, Control_c, 0, 64, 62
1, 299999, Control_c, 0, 64, 69
1, 300014, Control_c, 0, 64, 76
1, 300022, Note_off_c, 0, 70, 62
1, 300028, Control_c, 0, 64, 83
1, 300043, Control_c, 0, 64, 86
1, 300058, Control_c, 0, 64, 88
1, 300073, Control_c, 0, 64, 88
1, 300162, Control_c, 0, 64, 88
1, 300191, Control_c, 0, 64, 87
1, 300199, Note_on_c, 0, 72, 50
1, 300206, Control_c, 0, 64, 86
1, 300220, Control_c, 0, 64, 85
1, 300235, Control_c, 0, 64, 84
1, 300250, Control_c, 0, 64, 83
1, 300265, Control_c, 0, 64, 82
1, 300268, Note_on_c, 0, 70, 58
1, 300279, Note_off_c, 0, 72, 60
1, 300280, Control_c, 0, 64, 80
1, 300302, Control_c, 0, 64, 78
1, 300312, Note_off_c, 0, 70, 64
1, 300318, Control_c, 0, 64, 76
1, 300331, Note_on_c, 0, 69, 64
1, 300333, Control_c, 0, 64, 73
1, 300348, Control_c, 0, 64, 71
1, 300363, Control_c, 0, 64, 68
1, 300378, Control_c, 0, 64, 66
1, 300392, Control_c, 0, 64, 63
1, 300400, Note_on_c, 0, 70, 61
1, 300407, Control_c, 0, 64, 59
1, 300422, Control_c, 0, 64, 54
1, 300437, Control_c, 0, 64, 49
1, 300451, Control_c, 0, 64, 44
1, 300466, Control_c, 0, 64, 36
1, 300480, Note_off_c, 0, 58, 41
1, 300481, Control_c, 0, 64, 0
1, 300482, Note_on_c, 0, 72, 68
1, 300496, Note_on_c, 0, 64, 40
1, 300552, Note_off_c, 0, 69, 35
1, 300567, Note_off_c, 0, 70, 54
1, 300717, Control_c, 0, 64, 31
1, 300732, Control_c, 0, 64, 38
1, 300747, Control_c, 0, 64, 50
1, 300762, Control_c, 0, 64, 58
1, 300773, Note_on_c, 0, 74, 70
1, 300777, Control_c, 0, 64, 63
1, 300792, Note_off_c, 0, 55, 63
1, 300792, Control_c, 0, 64, 66
1, 300807, Control_c, 0, 64, 68
1, 300808, Note_off_c, 0, 72, 59
1, 300822, Control_c, 0, 64, 72
1, 300837, Control_c, 0, 64, 76
1, 300851, Control_c, 0, 64, 80
1, 300861, Note_off_c, 0, 74, 60
1, 300863, Note_off_c, 0, 64, 58
1, 300866, Control_c, 0, 64, 84
1, 300881, Control_c, 0, 64, 88
1, 300896, Control_c, 0, 64, 90
1, 301029, Control_c, 0, 64, 89
1, 301051, Control_c, 0, 64, 89
1, 301066, Control_c, 0, 64, 88
1, 301081, Control_c, 0, 64, 86
1, 301096, Control_c, 0, 64, 82
1, 301111, Control_c, 0, 64, 75
1, 301114, Note_on_c, 0, 72, 62
1, 301126, Note_on_c, 0, 57, 37
1, 301126, Control_c, 0, 64, 66
1, 301132, Note_on_c, 0, 65, 36
1, 301141, Control_c, 0, 64, 57
1, 301156, Control_c, 0, 64, 47
1, 301170, Control_c, 0, 64, 37
1, 301185, Control_c, 0, 64, 31
1, 301215, Control_c, 0, 64, 32
1, 301230, Control_c, 0, 64, 35
1, 301245, Control_c, 0, 64, 42
1, 301260, Control_c, 0, 64, 50
1, 301274, Control_c, 0, 64, 56
1, 301289, Control_c, 0, 64, 60
1, 301304, Control_c, 0, 64, 62
1, 301319, Control_c, 0, 64, 64
1, 301334, Control_c, 0, 64, 66
1, 301348, Control_c, 0, 64, 68
1, 301363, Control_c, 0, 64, 70
1, 301371, Note_on_c, 0, 77, 66
1, 301378, Control_c, 0, 64, 72
1, 301385, Note_off_c, 0, 72, 59
1, 301392, Control_c, 0, 64, 73
1, 301407, Control_c, 0, 64, 74
1, 301422, Control_c, 0, 64, 75
1, 301452, Control_c, 0, 64, 75
1, 301531, Note_on_c, 0, 69, 68
1, 301535, Note_off_c, 0, 77, 57
1, 301589, Note_off_c, 0, 65, 40
1, 301615, Control_c, 0, 64, 75
1, 301630, Control_c, 0, 64, 74
1, 301644, Control_c, 0, 64, 69
1, 301659, Control_c, 0, 64, 63
1, 301674, Control_c, 0, 64, 53
1, 301689, Control_c, 0, 64, 42
1, 301695, Note_on_c, 0, 67, 68
1, 301695, Note_off_c, 0, 57, 37
1, 301703, Note_on_c, 0, 62, 47
1, 301704, Control_c, 0, 64, 34
1, 301708, Note_on_c, 0, 58, 42
1, 301732, Note_off_c, 0, 69, 55
1, 301734, Control_c, 0, 64, 36
1, 301749, Control_c, 0, 64, 40
1, 301764, Control_c, 0, 64, 46
1, 301779, Control_c, 0, 64, 52
1, 301800, Control_c, 0, 64, 57
1, 301815, Control_c, 0, 64, 60
1, 301830, Control_c, 0, 64, 63
1, 301835, Note_off_c, 0, 62, 61
1, 301845, Control_c, 0, 64, 65
1, 301860, Control_c, 0, 64, 67
1, 301874, Control_c, 0, 64, 69
1, 301877, Note_on_c, 0, 70, 69
1, 301889, Control_c, 0, 64, 71
1, 301890, Note_off_c, 0, 58, 64
1, 301904, Control_c, 0, 64, 72
1, 301915, Note_off_c, 0, 67, 62
1, 301920, Control_c, 0, 64, 73
1, 301935, Control_c, 0, 64, 74
1, 302048, Note_on_c, 0, 74, 66
1, 302053, Control_c, 0, 64, 73
1, 302068, Control_c, 0, 64, 73
1, 302083, Control_c, 0, 64, 72
1, 302087, Note_off_c, 0, 70, 56
1, 302098, Control_c, 0, 64, 72
1, 302112, Control_c, 0, 64, 70
1, 302127, Control_c, 0, 64, 68
1, 302142, Control_c, 0, 64, 66
1, 302157, Control_c, 0, 64, 64
1, 302172, Control_c, 0, 64, 63
1, 302187, Control_c, 0, 64, 62
1, 302202, Control_c, 0, 64, 60
1, 302216, Control_c, 0, 64, 58
1, 302231, Control_c, 0, 64, 57
1, 302246, Control_c, 0, 64, 56
1, 302261, Control_c, 0, 64, 54
1, 302276, Control_c, 0, 64, 53
1, 302290, Control_c, 0, 64, 51
1, 302305, Control_c, 0, 64, 49
1, 302306, Note_on_c, 0, 57, 32
1, 302306, Note_on_c, 0, 65, 51
1, 302310, Note_on_c, 0, 48, 31
1, 302320, Control_c, 0, 64, 46
1, 302335, Control_c, 0, 64, 42
1, 302336, Note_off_c, 0, 74, 30
1, 302350, Control_c, 0, 64, 35
1, 302364, Control_c, 0, 64, 0
1, 302985, Note_off_c, 0, 65, 51
1, 302990, Note_on_c, 0, 55, 25
1, 302995, Note_on_c, 0, 64, 30
1, 303007, Note_off_c, 0, 57, 41
1, 303156, Control_c, 0, 64, 34
1, 303171, Control_c, 0, 64, 46
1, 303186, Control_c, 0, 64, 55
1, 303200, Control_c, 0, 64, 59
1, 303215, Control_c, 0, 64, 63
1, 303230, Control_c, 0, 64, 65
1, 303245, Control_c, 0, 64, 68
1, 303260, Control_c, 0, 64, 71
1, 303266, Note_off_c, 0, 64, 60
1, 303275, Control_c, 0, 64, 75
1, 303297, Control_c, 0, 64, 79
1, 303311, Control_c, 0, 64, 81
1, 303320, Note_off_c, 0, 48, 37
1, 303339, Note_off_c, 0, 55, 41
1, 303415, Control_c, 0, 64, 80
1, 303430, Control_c, 0, 64, 80
1, 303445, Control_c, 0, 64, 79
1, 303460, Control_c, 0, 64, 77
1, 303475, Control_c, 0, 64, 76
1, 303490, Control_c, 0, 64, 75
1, 303505, Control_c, 0, 64, 73
1, 303520, Control_c, 0, 64, 71
1, 303535, Control_c, 0, 64, 70
1, 303549, Control_c, 0, 64, 68
1, 303562, Note_on_c, 0, 69, 63
1, 303564, Control_c, 0, 64, 67
1, 303579, Control_c, 0, 64, 66
1, 303594, Control_c, 0, 64, 65
1, 303609, Control_c, 0, 64, 64
1, 303624, Control_c, 0, 64, 62
1, 303639, Control_c, 0, 64, 60
1, 303654, Control_c, 0, 64, 58
1, 303668, Control_c, 0, 64, 56
1, 303683, Control_c, 0, 64, 54
1, 303683, Note_on_c, 0, 81, 88
1, 303698, Control_c, 0, 64, 53
1, 303713, Control_c, 0, 64, 52
1, 303728, Control_c, 0, 64, 51
1, 303742, Control_c, 0, 64, 51
1, 303757, Control_c, 0, 64, 50
1, 303772, Control_c, 0, 64, 49
1, 303786, Control_c, 0, 64, 49
1, 303801, Control_c, 0, 64, 48
1, 303816, Control_c, 0, 64, 47
1, 303831, Control_c, 0, 64, 46
1, 303846, Control_c, 0, 64, 44
1, 303860, Control_c, 0, 64, 42
1, 303875, Control_c, 0, 64, 40
1, 303890, Control_c, 0, 64, 38
1, 303905, Control_c, 0, 64, 35
1, 303920, Control_c, 0, 64, 33
1, 303934, Control_c, 0, 64, 31
1, 303950, Control_c, 0, 64, 29
1, 303965, Control_c, 0, 64, 0
1, 303969, Note_on_c, 0, 53, 48
1, 304254, Control_c, 0, 64, 41
1, 304257, Note_on_c, 0, 57, 56
1, 304268, Control_c, 0, 64, 51
1, 304283, Control_c, 0, 64, 58
1, 304298, Control_c, 0, 64, 60
1, 304314, Control_c, 0, 64, 62
1, 304319, Note_off_c, 0, 69, 46
1, 304329, Control_c, 0, 64, 64
1, 304344, Control_c, 0, 64, 66
1, 304358, Control_c, 0, 64, 69
1, 304373, Control_c, 0, 64, 72
1, 304381, Note_on_c, 0, 77, 71
1, 304388, Control_c, 0, 64, 75
1, 304403, Control_c, 0, 64, 78
1, 304406, Note_off_c, 0, 81, 51
1, 304417, Control_c, 0, 64, 79
1, 304418, Note_off_c, 0, 53, 56
1, 304432, Control_c, 0, 64, 80
1, 304450, Note_off_c, 0, 77, 62
1, 304533, Note_on_c, 0, 62, 49
1, 304542, Note_off_c, 0, 57, 53
1, 304551, Note_on_c, 0, 77, 70
1, 304551, Control_c, 0, 64, 79
1, 304581, Control_c, 0, 64, 79
1, 304582, Note_off_c, 0, 62, 59
1, 304602, Note_off_c, 0, 77, 64
1, 304610, Control_c, 0, 64, 78
1, 304611, Note_on_c, 0, 79, 76
1, 304625, Control_c, 0, 64, 78
1, 304655, Control_c, 0, 64, 77
1, 304660, Note_on_c, 0, 77, 66
1, 304684, Control_c, 0, 64, 77
1, 304690, Note_off_c, 0, 79, 65
1, 304698, Control_c, 0, 64, 76
1, 304710, Note_on_c, 0, 76, 80
1, 304713, Note_off_c, 0, 77, 64
1, 304713, Control_c, 0, 64, 76
1, 304728, Control_c, 0, 64, 75
1, 304742, Control_c, 0, 64, 74
1, 304757, Control_c, 0, 64, 73
1, 304770, Note_on_c, 0, 77, 76
1, 304772, Control_c, 0, 64, 72
1, 304775, Note_off_c, 0, 76, 65
1, 304795, Control_c, 0, 64, 70
1, 304810, Control_c, 0, 64, 69
1, 304824, Control_c, 0, 64, 67
1, 304839, Control_c, 0, 64, 66
1, 304840, Note_off_c, 0, 77, 65
1, 304854, Control_c, 0, 64, 65
1, 304869, Control_c, 0, 64, 64
1, 304873, Note_on_c, 0, 70, 74
1, 304883, Control_c, 0, 64, 63
1, 304898, Control_c, 0, 64, 61
1, 304913, Control_c, 0, 64, 59
1, 304928, Control_c, 0, 64, 57
1, 304942, Control_c, 0, 64, 56
1, 304944, Note_on_c, 0, 82, 90
1, 304957, Control_c, 0, 64, 54
1, 304972, Control_c, 0, 64, 51
1, 304987, Control_c, 0, 64, 46
1, 305002, Control_c, 0, 64, 39
1, 305016, Control_c, 0, 64, 0
1, 305156, Note_on_c, 0, 55, 55
1, 305406, Note_on_c, 0, 58, 65
1, 305432, Control_c, 0, 64, 40
1, 305436, Note_off_c, 0, 82, 57
1, 305447, Control_c, 0, 64, 53
1, 305462, Control_c, 0, 64, 60
1, 305477, Control_c, 0, 64, 64
1, 305492, Control_c, 0, 64, 67
1, 305496, Note_off_c, 0, 70, 62
1, 305506, Control_c, 0, 64, 70
1, 305521, Control_c, 0, 64, 74
1, 305539, Note_on_c, 0, 79, 79
1, 305543, Control_c, 0, 64, 77
1, 305545, Note_off_c, 0, 55, 31
1, 305558, Control_c, 0, 64, 79
1, 305573, Control_c, 0, 64, 80
1, 305606, Note_off_c, 0, 79, 65
1, 305679, Note_on_c, 0, 64, 47
1, 305695, Note_on_c, 0, 79, 78
1, 305710, Note_off_c, 0, 58, 38
1, 305721, Control_c, 0, 64, 79
1, 305725, Note_off_c, 0, 64, 59
1, 305744, Note_off_c, 0, 79, 65
1, 305751, Note_on_c, 0, 81, 76
1, 305765, Control_c, 0, 64, 79
1, 305795, Control_c, 0, 64, 78
1, 305800, Note_on_c, 0, 79, 71
1, 305825, Control_c, 0, 64, 78
1, 305829, Note_off_c, 0, 81, 65
1, 305839, Control_c, 0, 64, 77
1, 305854, Note_on_c, 0, 78, 80
1, 305854, Control_c, 0, 64, 77
1, 305856, Note_off_c, 0, 79, 67
1, 305869, Control_c, 0, 64, 76
1, 305883, Control_c, 0, 64, 74
1, 305898, Control_c, 0, 64, 72
1, 305915, Note_on_c, 0, 79, 78
1, 305915, Control_c, 0, 64, 71
1, 305929, Control_c, 0, 64, 70
1, 305944, Control_c, 0, 64, 68
1, 305959, Control_c, 0, 64, 67
1, 305964, Note_off_c, 0, 78, 59
1, 305974, Control_c, 0, 64, 65
1, 305988, Control_c, 0, 64, 64
1, 306003, Control_c, 0, 64, 63
1, 306018, Control_c, 0, 64, 62
1, 306033, Control_c, 0, 64, 61
1, 306048, Control_c, 0, 64, 60
1, 306051, Note_on_c, 0, 84, 90
1, 306062, Control_c, 0, 64, 58
1, 306077, Note_off_c, 0, 79, 66
1, 306077, Control_c, 0, 64, 57
1, 306092, Control_c, 0, 64, 55
1, 306107, Control_c, 0, 64, 50
1, 306122, Control_c, 0, 64, 40
1, 306137, Control_c, 0, 64, 0
1, 306351, Control_c, 0, 64, 37
1, 306366, Control_c, 0, 64, 48
1, 306381, Control_c, 0, 64, 55
1, 306388, Note_on_c, 0, 57, 40
1, 306396, Control_c, 0, 64, 59
1, 306411, Control_c, 0, 64, 60
1, 306426, Control_c, 0, 64, 60
1, 306441, Control_c, 0, 64, 61
1, 306513, Note_on_c, 0, 81, 74
1, 306588, Control_c, 0, 64, 60
1, 306608, Note_off_c, 0, 84, 54
1, 306618, Control_c, 0, 64, 60
1, 306633, Control_c, 0, 64, 59
1, 306648, Control_c, 0, 64, 58
1, 306661, Note_on_c, 0, 77, 70
1, 306662, Control_c, 0, 64, 55
1, 306677, Control_c, 0, 64, 51
1, 306684, Note_on_c, 0, 60, 41
1, 306692, Control_c, 0, 64, 44
1, 306708, Control_c, 0, 64, 33
1, 306723, Control_c, 0, 64, 0
1, 306775, Note_off_c, 0, 81, 51
1, 306797, Control_c, 0, 64, 32
1, 306811, Control_c, 0, 64, 40
1, 306826, Control_c, 0, 64, 47
1, 306841, Control_c, 0, 64, 52
1, 306856, Control_c, 0, 64, 55
1, 306871, Control_c, 0, 64, 57
1, 306885, Control_c, 0, 64, 58
1, 306900, Control_c, 0, 64, 59
1, 306915, Control_c, 0, 64, 59
1, 306930, Control_c, 0, 64, 60
1, 306951, Note_on_c, 0, 65, 49
1, 306951, Note_off_c, 0, 57, 44
1, 306960, Control_c, 0, 64, 60
1, 306987, Note_off_c, 0, 60, 49
1, 307190, Control_c, 0, 64, 60
1, 307205, Control_c, 0, 64, 59
1, 307219, Control_c, 0, 64, 56
1, 307234, Control_c, 0, 64, 52
1, 307249, Control_c, 0, 64, 49
1, 307256, Note_on_c, 0, 57, 38
1, 307264, Control_c, 0, 64, 46
1, 307279, Control_c, 0, 64, 45
1, 307308, Control_c, 0, 64, 46
1, 307323, Control_c, 0, 64, 48
1, 307338, Control_c, 0, 64, 51
1, 307353, Control_c, 0, 64, 55
1, 307368, Control_c, 0, 64, 58
1, 307383, Control_c, 0, 64, 61
1, 307398, Control_c, 0, 64, 63
1, 307412, Control_c, 0, 64, 64
1, 307422, Note_off_c, 0, 77, 58
1, 307427, Control_c, 0, 64, 64
1, 307442, Control_c, 0, 64, 65
1, 307457, Control_c, 0, 64, 66
1, 307472, Control_c, 0, 64, 66
1, 307486, Control_c, 0, 64, 67
1, 307517, Control_c, 0, 64, 67
1, 307539, Note_on_c, 0, 75, 49
1, 307665, Control_c, 0, 64, 67
1, 307709, Control_c, 0, 64, 66
1, 307739, Control_c, 0, 64, 66
1, 307753, Control_c, 0, 64, 65
1, 307768, Control_c, 0, 64, 64
1, 307791, Control_c, 0, 64, 62
1, 307806, Control_c, 0, 64, 58
1, 307821, Control_c, 0, 64, 53
1, 307835, Control_c, 0, 64, 47
1, 307839, Note_on_c, 0, 63, 43
1, 307845, Note_on_c, 0, 74, 58
1, 307850, Control_c, 0, 64, 37
1, 307865, Control_c, 0, 64, 0
1, 307878, Note_off_c, 0, 75, 54
1, 308027, Control_c, 0, 64, 39
1, 308042, Control_c, 0, 64, 50
1, 308057, Control_c, 0, 64, 56
1, 308072, Control_c, 0, 64, 59
1, 308086, Control_c, 0, 64, 60
1, 308101, Control_c, 0, 64, 60
1, 308144, Note_off_c, 0, 74, 58
1, 308151, Note_on_c, 0, 73, 54
1, 308190, Control_c, 0, 64, 60
1, 308220, Control_c, 0, 64, 59
1, 308235, Control_c, 0, 64, 59
1, 308250, Control_c, 0, 64, 58
1, 308265, Control_c, 0, 64, 57
1, 308276, Note_off_c, 0, 57, 40
1, 308276, Note_off_c, 0, 63, 55
1, 308279, Control_c, 0, 64, 57
1, 308294, Control_c, 0, 64, 55
1, 308310, Control_c, 0, 64, 54
1, 308325, Control_c, 0, 64, 53
1, 308340, Control_c, 0, 64, 52
1, 308354, Control_c, 0, 64, 51
1, 308369, Control_c, 0, 64, 50
1, 308384, Control_c, 0, 64, 49
1, 308399, Control_c, 0, 64, 48
1, 308414, Control_c, 0, 64, 46
1, 308429, Control_c, 0, 64, 43
1, 308444, Control_c, 0, 64, 39
1, 308445, Note_on_c, 0, 58, 35
1, 308448, Note_on_c, 0, 74, 54
1, 308454, Note_on_c, 0, 62, 30
1, 308458, Control_c, 0, 64, 31
1, 308464, Note_off_c, 0, 73, 56
1, 308473, Control_c, 0, 64, 0
1, 308629, Note_off_c, 0, 74, 56
1, 308738, Note_on_c, 0, 76, 61
1, 308769, Note_off_c, 0, 76, 66
1, 308872, Note_on_c, 0, 78, 59
1, 308902, Note_off_c, 0, 78, 65
1, 308922, Note_off_c, 0, 65, 38
1, 308963, Note_off_c, 0, 58, 51
1, 308989, Note_off_c, 0, 62, 40
1, 309005, Note_on_c, 0, 79, 69
1, 309037, Note_off_c, 0, 79, 65
1, 309127, Note_on_c, 0, 81, 72
1, 309169, Note_off_c, 0, 81, 60
1, 309261, Note_on_c, 0, 82, 80
1, 309317, Note_off_c, 0, 82, 62
1, 309398, Note_on_c, 0, 85, 82
1, 309566, Note_on_c, 0, 62, 48
1, 309566, Note_on_c, 0, 86, 76
1, 309580, Note_on_c, 0, 58, 40
1, 309581, Note_on_c, 0, 67, 36
1, 309604, Note_off_c, 0, 85, 61
1, 309640, Note_off_c, 0, 86, 61
1, 309718, Note_on_c, 0, 84, 69
1, 309752, Note_off_c, 0, 84, 61
1, 309838, Note_on_c, 0, 82, 69
1, 309851, Control_c, 0, 67, 21
1, 309866, Control_c, 0, 67, 24
1, 309873, Note_off_c, 0, 82, 60
1, 309881, Control_c, 0, 67, 26
1, 309919, Note_off_c, 0, 67, 42
1, 309962, Note_on_c, 0, 81, 67
1, 309972, Note_off_c, 0, 62, 58
1, 309985, Control_c, 0, 67, 28
1, 309999, Note_off_c, 0, 81, 64
1, 310015, Control_c, 0, 67, 30
1, 310017, Note_off_c, 0, 58, 60
1, 310037, Control_c, 0, 67, 32
1, 310052, Control_c, 0, 67, 34
1, 310067, Control_c, 0, 67, 39
1, 310081, Control_c, 0, 67, 47
1, 310096, Control_c, 0, 67, 59
1, 310104, Note_on_c, 0, 79, 62
1, 310111, Control_c, 0, 67, 73
1, 310126, Control_c, 0, 67, 86
1, 310141, Control_c, 0, 67, 95
1, 310143, Note_off_c, 0, 79, 63
1, 310155, Control_c, 0, 67, 100
1, 310221, Note_on_c, 0, 77, 61
1, 310244, Control_c, 0, 67, 98
1, 310267, Note_off_c, 0, 77, 57
1, 310274, Control_c, 0, 67, 96
1, 310289, Control_c, 0, 67, 95
1, 310319, Control_c, 0, 67, 95
1, 310349, Control_c, 0, 67, 94
1, 310358, Note_on_c, 0, 76, 56
1, 310396, Note_off_c, 0, 76, 63
1, 310478, Note_on_c, 0, 74, 56
1, 310528, Note_off_c, 0, 74, 51
1, 310661, Note_on_c, 0, 72, 45
1, 310668, Note_on_c, 0, 48, 26
1, 310688, Control_c, 0, 67, 94
1, 310734, Control_c, 0, 67, 93
1, 310801, Control_c, 0, 64, 32
1, 310816, Control_c, 0, 64, 45
1, 310831, Control_c, 0, 64, 53
1, 310846, Control_c, 0, 64, 57
1, 310860, Control_c, 0, 64, 59
1, 310875, Control_c, 0, 64, 61
1, 310890, Control_c, 0, 64, 62
1, 310904, Control_c, 0, 64, 63
1, 310904, Control_c, 0, 67, 93
1, 310919, Control_c, 0, 64, 64
1, 310919, Control_c, 0, 67, 92
1, 310934, Control_c, 0, 64, 66
1, 310949, Control_c, 0, 64, 67
1, 310949, Control_c, 0, 67, 92
1, 310951, Note_on_c, 0, 57, 41
1, 310964, Control_c, 0, 64, 69
1, 310964, Control_c, 0, 67, 91
1, 310978, Control_c, 0, 64, 71
1, 310978, Control_c, 0, 67, 91
1, 310993, Control_c, 0, 64, 74
1, 310993, Control_c, 0, 67, 90
1, 311008, Control_c, 0, 64, 76
1, 311023, Control_c, 0, 64, 78
1, 311023, Control_c, 0, 67, 90
1, 311038, Control_c, 0, 64, 80
1, 311038, Control_c, 0, 67, 89
1, 311052, Control_c, 0, 64, 81
1, 311052, Control_c, 0, 67, 89
1, 311067, Control_c, 0, 64, 82
1, 311067, Control_c, 0, 67, 88
1, 311171, Control_c, 0, 64, 82
1, 311186, Control_c, 0, 64, 80
1, 311201, Control_c, 0, 64, 79
1, 311216, Control_c, 0, 64, 77
1, 311231, Control_c, 0, 64, 75
1, 311246, Control_c, 0, 64, 73
1, 311260, Control_c, 0, 64, 71
1, 311275, Note_on_c, 0, 53, 37
1, 311275, Control_c, 0, 64, 68
1, 311279, Note_on_c, 0, 84, 78
1, 311290, Control_c, 0, 64, 65
1, 311304, Control_c, 0, 64, 62
1, 311319, Control_c, 0, 64, 57
1, 311323, Note_off_c, 0, 57, 38
1, 311334, Control_c, 0, 64, 51
1, 311349, Control_c, 0, 64, 47
1, 311364, Control_c, 0, 64, 45
1, 311393, Control_c, 0, 64, 46
1, 311408, Control_c, 0, 64, 47
1, 311419, Note_off_c, 0, 48, 25
1, 311422, Control_c, 0, 64, 50
1, 311437, Control_c, 0, 64, 53
1, 311446, Note_off_c, 0, 72, 32
1, 311452, Control_c, 0, 64, 56
1, 311467, Control_c, 0, 64, 58
1, 311467, Control_c, 0, 67, 89
1, 311482, Control_c, 0, 64, 60
1, 311498, Control_c, 0, 64, 62
1, 311513, Control_c, 0, 64, 63
1, 311535, Control_c, 0, 64, 64
1, 311550, Control_c, 0, 64, 65
1, 311565, Control_c, 0, 64, 66
1, 311580, Control_c, 0, 64, 67
1, 311595, Control_c, 0, 64, 68
1, 311601, Note_on_c, 0, 57, 40
1, 311609, Control_c, 0, 64, 69
1, 311624, Control_c, 0, 64, 69
1, 311639, Control_c, 0, 64, 70
1, 311654, Control_c, 0, 64, 71
1, 311669, Control_c, 0, 64, 71
1, 311698, Control_c, 0, 64, 72
1, 311713, Control_c, 0, 64, 72
1, 311719, Note_off_c, 0, 53, 40
1, 311902, Note_on_c, 0, 48, 38
1, 311920, Control_c, 0, 64, 71
1, 311935, Control_c, 0, 64, 70
1, 311949, Control_c, 0, 64, 68
1, 311950, Note_off_c, 0, 57, 34
1, 311964, Control_c, 0, 64, 67
1, 312053, Control_c, 0, 64, 68
1, 312068, Control_c, 0, 64, 68
1, 312090, Note_on_c, 0, 81, 61
1, 312098, Control_c, 0, 64, 69
1, 312157, Control_c, 0, 64, 69
1, 312204, Note_on_c, 0, 57, 33
1, 312246, Control_c, 0, 64, 70
1, 312295, Note_off_c, 0, 84, 23
1, 312305, Note_on_c, 0, 77, 59
1, 312357, Note_off_c, 0, 81, 60
1, 312388, Note_off_c, 0, 48, 30
1, 312388, Control_c, 0, 64, 69
1, 312403, Control_c, 0, 64, 68
1, 312418, Control_c, 0, 64, 68
1, 312432, Control_c, 0, 64, 67
1, 312462, Note_off_c, 0, 77, 63
1, 312468, Note_on_c, 0, 53, 42
1, 312475, Note_off_c, 0, 57, 31
1, 312485, Note_on_c, 0, 72, 55
1, 312522, Control_c, 0, 64, 68
1, 312581, Control_c, 0, 64, 67
1, 312596, Control_c, 0, 64, 66
1, 312601, Note_on_c, 0, 69, 56
1, 312602, Note_off_c, 0, 72, 62
1, 312611, Control_c, 0, 64, 64
1, 312625, Control_c, 0, 64, 62
1, 312640, Control_c, 0, 64, 60
1, 312669, Control_c, 0, 64, 61
1, 312684, Control_c, 0, 64, 62
1, 312699, Control_c, 0, 64, 63
1, 312699, Control_c, 0, 67, 89
1, 312714, Control_c, 0, 64, 65
1, 312714, Control_c, 0, 67, 90
1, 312723, Note_on_c, 0, 77, 60
1, 312729, Control_c, 0, 64, 66
1, 312729, Control_c, 0, 67, 91
1, 312733, Note_off_c, 0, 69, 58
1, 312742, Note_off_c, 0, 53, 26
1, 312744, Control_c, 0, 64, 68
1, 312744, Control_c, 0, 67, 92
1, 312758, Control_c, 0, 64, 69
1, 312758, Control_c, 0, 67, 92
1, 312760, Note_on_c, 0, 57, 36
1, 312760, Note_off_c, 0, 77, 62
1, 312773, Control_c, 0, 64, 70
1, 312788, Control_c, 0, 64, 70
1, 312803, Control_c, 0, 67, 93
1, 312847, Control_c, 0, 64, 70
1, 312847, Control_c, 0, 67, 93
1, 312862, Control_c, 0, 64, 69
1, 312876, Control_c, 0, 64, 67
1, 312891, Control_c, 0, 64, 66
1, 312906, Control_c, 0, 64, 66
1, 312921, Control_c, 0, 64, 65
1, 312936, Control_c, 0, 64, 64
1, 312951, Note_on_c, 0, 65, 50
1, 312965, Control_c, 0, 64, 64
1, 312980, Control_c, 0, 64, 63
1, 312995, Control_c, 0, 64, 63
1, 313010, Control_c, 0, 64, 62
1, 313031, Control_c, 0, 64, 61
1, 313046, Control_c, 0, 64, 60
1, 313061, Control_c, 0, 64, 59
1, 313076, Control_c, 0, 64, 58
1, 313076, Control_c, 0, 67, 93
1, 313091, Control_c, 0, 64, 56
1, 313106, Control_c, 0, 64, 54
1, 313115, Note_on_c, 0, 48, 31
1, 313115, Note_on_c, 0, 67, 47
1, 313116, Note_off_c, 0, 65, 63
1, 313121, Note_off_c, 0, 57, 35
1, 313121, Control_c, 0, 64, 49
1, 313136, Control_c, 0, 64, 44
1, 313151, Control_c, 0, 64, 38
1, 313166, Control_c, 0, 64, 37
1, 313181, Control_c, 0, 64, 37
1, 313195, Control_c, 0, 64, 39
1, 313210, Control_c, 0, 64, 43
1, 313225, Control_c, 0, 64, 48
1, 313225, Control_c, 0, 67, 93
1, 313233, Note_off_c, 0, 67, 60
1, 313240, Control_c, 0, 64, 52
1, 313242, Note_on_c, 0, 69, 53
1, 313255, Control_c, 0, 64, 54
1, 313255, Control_c, 0, 67, 94
1, 313270, Control_c, 0, 64, 55
1, 313270, Control_c, 0, 67, 94
1, 313285, Control_c, 0, 64, 57
1, 313285, Control_c, 0, 67, 95
1, 313299, Control_c, 0, 64, 57
1, 313299, Control_c, 0, 67, 95
1, 313310, Note_off_c, 0, 69, 55
1, 313314, Control_c, 0, 64, 58
1, 313329, Control_c, 0, 64, 58
1, 313329, Control_c, 0, 67, 96
1, 313344, Note_on_c, 0, 67, 48
1, 313383, Note_off_c, 0, 67, 61
1, 313386, Note_on_c, 0, 69, 44
1, 313389, Note_on_c, 0, 58, 45
1, 313430, Note_off_c, 0, 69, 62
1, 313458, Note_on_c, 0, 67, 50
1, 313492, Note_off_c, 0, 67, 65
1, 313508, Note_on_c, 0, 69, 54
1, 313521, Control_c, 0, 64, 58
1, 313521, Control_c, 0, 67, 95
1, 313547, Note_off_c, 0, 69, 63
1, 313568, Note_on_c, 0, 67, 60
1, 313595, Control_c, 0, 64, 57
1, 313602, Note_off_c, 0, 67, 62
1, 313609, Note_on_c, 0, 69, 54
1, 313625, Control_c, 0, 64, 57
1, 313625, Control_c, 0, 67, 95
1, 313640, Control_c, 0, 64, 56
1, 313643, Note_on_c, 0, 52, 49
1, 313654, Control_c, 0, 64, 54
1, 313657, Note_off_c, 0, 69, 55
1, 313669, Control_c, 0, 64, 51
1, 313670, Note_on_c, 0, 67, 53
1, 313681, Note_off_c, 0, 58, 49
1, 313684, Control_c, 0, 64, 50
1, 313688, Note_off_c, 0, 48, 35
1, 313708, Note_on_c, 0, 69, 42
1, 313708, Note_off_c, 0, 67, 65
1, 313714, Control_c, 0, 67, 94
1, 313729, Control_c, 0, 64, 51
1, 313744, Control_c, 0, 64, 51
1, 313759, Control_c, 0, 64, 52
1, 313762, Note_off_c, 0, 69, 59
1, 313780, Control_c, 0, 64, 54
1, 313784, Note_on_c, 0, 67, 53
1, 313795, Control_c, 0, 64, 55
1, 313810, Control_c, 0, 64, 56
1, 313822, Note_off_c, 0, 67, 65
1, 313824, Control_c, 0, 64, 56
1, 313829, Note_on_c, 0, 69, 41
1, 313854, Control_c, 0, 64, 57
1, 313889, Note_off_c, 0, 69, 53
1, 313900, Control_c, 0, 64, 57
1, 313903, Note_on_c, 0, 67, 53
1, 313918, Note_on_c, 0, 58, 42
1, 313933, Note_on_c, 0, 69, 40
1, 313935, Note_off_c, 0, 67, 64
1, 313959, Control_c, 0, 64, 58
1, 313985, Note_off_c, 0, 69, 61
1, 314004, Note_off_c, 0, 52, 37
1, 314012, Note_on_c, 0, 67, 58
1, 314042, Note_off_c, 0, 67, 66
1, 314048, Control_c, 0, 64, 57
1, 314052, Note_on_c, 0, 69, 43
1, 314098, Note_off_c, 0, 69, 61
1, 314120, Note_on_c, 0, 67, 57
1, 314137, Control_c, 0, 64, 57
1, 314150, Note_off_c, 0, 67, 66
1, 314152, Control_c, 0, 64, 55
1, 314166, Note_on_c, 0, 69, 42
1, 314167, Control_c, 0, 64, 52
1, 314167, Control_c, 0, 67, 94
1, 314167, Note_on_c, 0, 48, 38
1, 314182, Control_c, 0, 64, 50
1, 314196, Control_c, 0, 64, 49
1, 314199, Note_off_c, 0, 58, 37
1, 314210, Note_off_c, 0, 69, 63
1, 314226, Control_c, 0, 64, 49
1, 314235, Note_on_c, 0, 67, 49
1, 314240, Control_c, 0, 64, 50
1, 314255, Control_c, 0, 64, 51
1, 314266, Note_off_c, 0, 67, 65
1, 314270, Control_c, 0, 64, 52
1, 314278, Note_on_c, 0, 69, 46
1, 314285, Control_c, 0, 64, 54
1, 314300, Control_c, 0, 64, 55
1, 314314, Control_c, 0, 64, 56
1, 314319, Note_off_c, 0, 69, 62
1, 314344, Control_c, 0, 64, 57
1, 314344, Control_c, 0, 67, 93
1, 314345, Note_on_c, 0, 67, 50
1, 314377, Note_off_c, 0, 67, 65
1, 314388, Control_c, 0, 64, 57
1, 314390, Note_on_c, 0, 69, 47
1, 314425, Note_on_c, 0, 58, 40
1, 314431, Note_off_c, 0, 69, 62
1, 314448, Control_c, 0, 64, 58
1, 314459, Note_on_c, 0, 67, 51
1, 314489, Note_off_c, 0, 67, 64
1, 314501, Note_on_c, 0, 69, 52
1, 314546, Note_off_c, 0, 69, 64
1, 314574, Note_on_c, 0, 67, 52
1, 314608, Note_off_c, 0, 67, 65
1, 314623, Note_on_c, 0, 69, 44
1, 314648, Control_c, 0, 64, 57
1, 314663, Control_c, 0, 64, 56
1, 314666, Note_off_c, 0, 69, 63
1, 314678, Control_c, 0, 64, 54
1, 314694, Control_c, 0, 64, 53
1, 314695, Note_on_c, 0, 52, 41
1, 314698, Note_on_c, 0, 67, 49
1, 314731, Note_off_c, 0, 67, 66
1, 314740, Note_off_c, 0, 58, 33
1, 314743, Note_on_c, 0, 69, 54
1, 314768, Control_c, 0, 64, 53
1, 314768, Control_c, 0, 67, 93
1, 314778, Note_off_c, 0, 69, 64
1, 314783, Control_c, 0, 64, 54
1, 314798, Control_c, 0, 64, 55
1, 314811, Note_on_c, 0, 67, 49
1, 314813, Control_c, 0, 64, 56
1, 314827, Control_c, 0, 64, 57
1, 314842, Control_c, 0, 64, 57
1, 314844, Note_off_c, 0, 67, 64
1, 314844, Note_off_c, 0, 48, 36
1, 314857, Control_c, 0, 64, 58
1, 314862, Note_on_c, 0, 69, 58
1, 314871, Control_c, 0, 64, 59
1, 314886, Control_c, 0, 64, 59
1, 314901, Control_c, 0, 64, 60
1, 314914, Note_off_c, 0, 69, 55
1, 314931, Control_c, 0, 64, 60
1, 314940, Note_on_c, 0, 67, 53
1, 314960, Control_c, 0, 64, 61
1, 314960, Control_c, 0, 67, 92
1, 314999, Note_on_c, 0, 58, 37
1, 315005, Control_c, 0, 67, 92
1, 315010, Note_off_c, 0, 52, 38
1, 315064, Control_c, 0, 67, 91
1, 315124, Note_off_c, 0, 58, 55
1, 315148, Note_off_c, 0, 67, 49
1, 315168, Control_c, 0, 64, 60
1, 315170, Note_on_c, 0, 65, 45
1, 315197, Control_c, 0, 64, 60
1, 315197, Control_c, 0, 67, 92
1, 315212, Control_c, 0, 67, 93
1, 315227, Control_c, 0, 64, 59
1, 315227, Control_c, 0, 67, 93
1, 315257, Control_c, 0, 64, 59
1, 315257, Control_c, 0, 67, 94
1, 315279, Control_c, 0, 64, 58
1, 315283, Note_on_c, 0, 67, 38
1, 315283, Note_off_c, 0, 65, 56
1, 315294, Control_c, 0, 64, 57
1, 315309, Control_c, 0, 64, 57
1, 315339, Control_c, 0, 64, 56
1, 315353, Control_c, 0, 64, 56
1, 315368, Control_c, 0, 64, 55
1, 315383, Control_c, 0, 64, 54
1, 315397, Control_c, 0, 64, 54
1, 315412, Control_c, 0, 64, 53
1, 315427, Control_c, 0, 64, 53
1, 315435, Note_on_c, 0, 65, 47
1, 315437, Note_on_c, 0, 53, 34
1, 315442, Control_c, 0, 64, 52
1, 315457, Control_c, 0, 64, 51
1, 315471, Control_c, 0, 64, 49
1, 315486, Control_c, 0, 64, 45
1, 315486, Control_c, 0, 67, 93
1, 315494, Note_off_c, 0, 67, 42
1, 315502, Control_c, 0, 64, 34
1, 315517, Control_c, 0, 64, 0
1, 315562, Control_c, 0, 67, 93
1, 315591, Control_c, 0, 67, 92
1, 315650, Control_c, 0, 64, 40
1, 315665, Control_c, 0, 64, 51
1, 315665, Control_c, 0, 67, 92
1, 315680, Control_c, 0, 64, 57
1, 315694, Control_c, 0, 64, 59
1, 315709, Control_c, 0, 64, 60
1, 315709, Control_c, 0, 67, 91
1, 315724, Control_c, 0, 64, 60
1, 315739, Control_c, 0, 64, 61
1, 315754, Control_c, 0, 64, 62
1, 315768, Control_c, 0, 64, 63
1, 315783, Control_c, 0, 64, 63
1, 315798, Control_c, 0, 64, 64
1, 315813, Control_c, 0, 64, 64
1, 315828, Note_on_c, 0, 60, 29
1, 315828, Control_c, 0, 64, 65
1, 315842, Control_c, 0, 64, 65
1, 315848, Note_off_c, 0, 65, 49
1, 315857, Control_c, 0, 64, 66
1, 315872, Control_c, 0, 64, 66
1, 315887, Control_c, 0, 64, 67
1, 315917, Control_c, 0, 64, 67
1, 315947, Control_c, 0, 64, 68
1, 315947, Control_c, 0, 67, 91
1, 315962, Control_c, 0, 64, 68
1, 315991, Control_c, 0, 64, 69
1, 315991, Control_c, 0, 67, 90
1, 316102, Control_c, 0, 64, 69
1, 316158, Note_on_c, 0, 65, 37
1, 316233, Note_off_c, 0, 60, 43
1, 316265, Control_c, 0, 67, 90
1, 316280, Control_c, 0, 67, 89
1, 316293, Note_on_c, 0, 77, 49
1, 316311, Note_off_c, 0, 65, 47
1, 316351, Note_off_c, 0, 77, 60
1, 316385, Control_c, 0, 64, 69
1, 316429, Control_c, 0, 64, 68
1, 316429, Control_c, 0, 67, 89
1, 316443, Control_c, 0, 67, 88
1, 316458, Control_c, 0, 64, 68
1, 316458, Control_c, 0, 67, 87
1, 316481, Note_on_c, 0, 77, 54
1, 316488, Control_c, 0, 64, 67
1, 316488, Control_c, 0, 67, 86
1, 316489, Note_on_c, 0, 63, 46
1, 316503, Control_c, 0, 64, 67
1, 316517, Control_c, 0, 67, 85
1, 316532, Control_c, 0, 64, 66
1, 316532, Control_c, 0, 67, 84
1, 316544, Note_off_c, 0, 77, 63
1, 316547, Control_c, 0, 67, 77
1, 316562, Control_c, 0, 64, 66
1, 316562, Control_c, 0, 67, 68
1, 316564, Note_on_c, 0, 79, 63
1, 316577, Control_c, 0, 67, 57
1, 316591, Control_c, 0, 67, 45
1, 316606, Control_c, 0, 64, 65
1, 316606, Control_c, 0, 67, 34
1, 316621, Control_c, 0, 67, 26
1, 316634, Note_off_c, 0, 79, 64
1, 316635, Note_on_c, 0, 77, 60
1, 316636, Control_c, 0, 67, 20
1, 316650, Control_c, 0, 64, 65
1, 316650, Control_c, 0, 67, 0
1, 316665, Control_c, 0, 64, 64
1, 316679, Note_off_c, 0, 77, 61
1, 316690, Note_on_c, 0, 76, 67
1, 316695, Control_c, 0, 64, 63
1, 316710, Control_c, 0, 64, 62
1, 316725, Control_c, 0, 64, 61
1, 316740, Control_c, 0, 64, 61
1, 316751, Note_on_c, 0, 77, 64
1, 316755, Control_c, 0, 64, 60
1, 316777, Control_c, 0, 64, 59
1, 316792, Control_c, 0, 64, 57
1, 316805, Note_off_c, 0, 76, 59
1, 316806, Control_c, 0, 64, 55
1, 316821, Control_c, 0, 64, 53
1, 316836, Control_c, 0, 64, 51
1, 316850, Control_c, 0, 64, 50
1, 316865, Control_c, 0, 64, 48
1, 316880, Control_c, 0, 64, 45
1, 316895, Note_on_c, 0, 84, 70
1, 316895, Control_c, 0, 64, 40
1, 316904, Note_on_c, 0, 62, 43
1, 316910, Control_c, 0, 64, 33
1, 316925, Control_c, 0, 64, 0
1, 316970, Note_off_c, 0, 77, 48
1, 316976, Note_off_c, 0, 63, 55
1, 317088, Control_c, 0, 64, 38
1, 317103, Control_c, 0, 64, 46
1, 317118, Control_c, 0, 64, 52
1, 317133, Control_c, 0, 64, 56
1, 317148, Control_c, 0, 64, 57
1, 317163, Control_c, 0, 64, 59
1, 317178, Control_c, 0, 64, 59
1, 317193, Control_c, 0, 64, 60
1, 317208, Control_c, 0, 64, 61
1, 317222, Control_c, 0, 64, 62
1, 317237, Control_c, 0, 64, 62
1, 317252, Control_c, 0, 64, 63
1, 317263, Note_on_c, 0, 82, 68
1, 317266, Control_c, 0, 64, 64
1, 317281, Control_c, 0, 64, 64
1, 317296, Control_c, 0, 64, 65
1, 317326, Control_c, 0, 64, 65
1, 317340, Control_c, 0, 64, 66
1, 317473, Control_c, 0, 64, 65
1, 317503, Control_c, 0, 64, 65
1, 317525, Control_c, 0, 64, 64
1, 317540, Control_c, 0, 64, 64
1, 317554, Control_c, 0, 64, 62
1, 317565, Note_off_c, 0, 84, 12
1, 317569, Control_c, 0, 64, 57
1, 317571, Note_on_c, 0, 58, 37
1, 317572, Note_on_c, 0, 81, 62
1, 317584, Control_c, 0, 64, 50
1, 317598, Control_c, 0, 64, 40
1, 317610, Note_off_c, 0, 62, 38
1, 317613, Control_c, 0, 64, 30
1, 317628, Control_c, 0, 64, 0
1, 317643, Note_off_c, 0, 82, 46
1, 317673, Control_c, 0, 64, 32
1, 317688, Control_c, 0, 64, 40
1, 317703, Control_c, 0, 64, 47
1, 317717, Control_c, 0, 64, 53
1, 317732, Control_c, 0, 64, 56
1, 317747, Control_c, 0, 64, 59
1, 317762, Control_c, 0, 64, 60
1, 317777, Control_c, 0, 64, 62
1, 317791, Control_c, 0, 64, 63
1, 317806, Control_c, 0, 64, 64
1, 317821, Control_c, 0, 64, 64
1, 317836, Control_c, 0, 64, 65
1, 317851, Control_c, 0, 64, 66
1, 317865, Control_c, 0, 64, 67
1, 317872, Note_on_c, 0, 79, 63
1, 317880, Control_c, 0, 64, 67
1, 317881, Note_off_c, 0, 58, 63
1, 317896, Control_c, 0, 64, 68
1, 317907, Note_off_c, 0, 81, 60
1, 317911, Control_c, 0, 64, 69
1, 317926, Control_c, 0, 64, 70
1, 317941, Control_c, 0, 64, 72
1, 317945, Note_off_c, 0, 79, 63
1, 317956, Control_c, 0, 64, 73
1, 317970, Control_c, 0, 64, 74
1, 317985, Control_c, 0, 64, 74
1, 318103, Control_c, 0, 64, 74
1, 318118, Control_c, 0, 64, 73
1, 318133, Control_c, 0, 64, 73
1, 318148, Control_c, 0, 64, 72
1, 318162, Control_c, 0, 64, 70
1, 318177, Control_c, 0, 64, 68
1, 318192, Control_c, 0, 64, 66
1, 318202, Note_on_c, 0, 79, 52
1, 318206, Control_c, 0, 64, 65
1, 318221, Control_c, 0, 64, 63
1, 318222, Note_on_c, 0, 57, 27
1, 318236, Control_c, 0, 64, 62
1, 318251, Control_c, 0, 64, 60
1, 318274, Control_c, 0, 64, 59
1, 318288, Control_c, 0, 64, 57
1, 318303, Control_c, 0, 64, 55
1, 318318, Control_c, 0, 64, 54
1, 318333, Control_c, 0, 64, 53
1, 318348, Control_c, 0, 64, 51
1, 318362, Control_c, 0, 64, 50
1, 318377, Control_c, 0, 64, 49
1, 318392, Control_c, 0, 64, 48
1, 318407, Control_c, 0, 64, 47
1, 318421, Control_c, 0, 64, 46
1, 318436, Control_c, 0, 64, 44
1, 318451, Control_c, 0, 64, 41
1, 318466, Control_c, 0, 64, 38
1, 318481, Control_c, 0, 64, 33
1, 318495, Control_c, 0, 64, 29
1, 318510, Control_c, 0, 64, 0
1, 318512, Note_on_c, 0, 60, 36
1, 318527, Note_on_c, 0, 77, 39
1, 318552, Note_off_c, 0, 79, 57
1, 318600, Control_c, 0, 67, 19
1, 318629, Control_c, 0, 67, 21
1, 318734, Control_c, 0, 64, 38
1, 318749, Control_c, 0, 64, 50
1, 318764, Control_c, 0, 64, 59
1, 318778, Note_off_c, 0, 77, 34
1, 318779, Control_c, 0, 64, 61
1, 318779, Note_off_c, 0, 57, 35
1, 318793, Control_c, 0, 64, 62
1, 318793, Control_c, 0, 67, 19
1, 318808, Control_c, 0, 64, 63
1, 318823, Control_c, 0, 64, 63
1, 318823, Control_c, 0, 67, 0
1, 318833, Note_on_c, 0, 65, 35
1, 318837, Control_c, 0, 64, 64
1, 318852, Control_c, 0, 64, 65
1, 318867, Control_c, 0, 64, 66
1, 318882, Control_c, 0, 64, 66
1, 318903, Note_off_c, 0, 60, 49
1, 318911, Control_c, 0, 64, 67
1, 318964, Note_on_c, 0, 77, 50
1, 319014, Note_off_c, 0, 77, 62
1, 319053, Note_off_c, 0, 65, 41
1, 319141, Control_c, 0, 64, 66
1, 319147, Note_on_c, 0, 77, 49
1, 319148, Note_on_c, 0, 63, 44
1, 319156, Control_c, 0, 64, 65
1, 319170, Control_c, 0, 64, 62
1, 319185, Control_c, 0, 64, 59
1, 319187, Note_off_c, 0, 77, 63
1, 319200, Control_c, 0, 64, 57
1, 319215, Control_c, 0, 64, 56
1, 319216, Note_on_c, 0, 79, 60
1, 319244, Control_c, 0, 64, 56
1, 319259, Control_c, 0, 64, 57
1, 319260, Note_off_c, 0, 79, 62
1, 319273, Note_on_c, 0, 77, 64
1, 319274, Control_c, 0, 64, 59
1, 319289, Control_c, 0, 64, 61
1, 319304, Control_c, 0, 64, 62
1, 319307, Note_off_c, 0, 77, 65
1, 319318, Control_c, 0, 64, 63
1, 319328, Note_on_c, 0, 76, 64
1, 319378, Control_c, 0, 64, 62
1, 319384, Note_on_c, 0, 77, 56
1, 319393, Control_c, 0, 64, 62
1, 319408, Control_c, 0, 64, 61
1, 319415, Note_off_c, 0, 76, 53
1, 319423, Control_c, 0, 64, 61
1, 319437, Control_c, 0, 64, 59
1, 319452, Control_c, 0, 64, 58
1, 319467, Control_c, 0, 64, 56
1, 319482, Control_c, 0, 64, 55
1, 319497, Control_c, 0, 64, 53
1, 319500, Note_on_c, 0, 84, 70
1, 319509, Note_on_c, 0, 62, 45
1, 319512, Control_c, 0, 64, 50
1, 319527, Control_c, 0, 64, 44
1, 319542, Control_c, 0, 64, 30
1, 319555, Note_off_c, 0, 63, 60
1, 319557, Control_c, 0, 64, 0
1, 319581, Note_off_c, 0, 77, 38
1, 319705, Control_c, 0, 64, 37
1, 319720, Control_c, 0, 64, 46
1, 319734, Control_c, 0, 64, 52
1, 319749, Control_c, 0, 64, 56
1, 319771, Control_c, 0, 64, 58
1, 319786, Control_c, 0, 64, 59
1, 319801, Control_c, 0, 64, 60
1, 319816, Control_c, 0, 64, 61
1, 319831, Control_c, 0, 64, 62
1, 319837, Note_on_c, 0, 82, 62
1, 319846, Control_c, 0, 64, 62
1, 319860, Control_c, 0, 64, 63
1, 319875, Control_c, 0, 64, 64
1, 319905, Control_c, 0, 64, 65
1, 320023, Control_c, 0, 64, 64
1, 320038, Control_c, 0, 64, 64
1, 320053, Control_c, 0, 64, 63
1, 320067, Control_c, 0, 64, 63
1, 320082, Control_c, 0, 64, 62
1, 320097, Control_c, 0, 64, 61
1, 320111, Control_c, 0, 64, 59
1, 320117, Note_off_c, 0, 84, 10
1, 320126, Control_c, 0, 64, 56
1, 320141, Control_c, 0, 64, 50
1, 320144, Note_on_c, 0, 58, 31
1, 320144, Note_on_c, 0, 81, 55
1, 320156, Control_c, 0, 64, 42
1, 320171, Control_c, 0, 64, 30
1, 320180, Note_off_c, 0, 62, 38
1, 320186, Control_c, 0, 64, 0
1, 320212, Note_off_c, 0, 82, 35
1, 320305, Control_c, 0, 64, 40
1, 320320, Control_c, 0, 64, 50
1, 320335, Control_c, 0, 64, 55
1, 320350, Control_c, 0, 64, 58
1, 320365, Control_c, 0, 64, 60
1, 320379, Control_c, 0, 64, 61
1, 320394, Control_c, 0, 64, 61
1, 320409, Control_c, 0, 64, 62
1, 320424, Control_c, 0, 64, 63
1, 320439, Control_c, 0, 64, 63
1, 320454, Control_c, 0, 64, 64
1, 320464, Note_on_c, 0, 79, 57
1, 320469, Control_c, 0, 64, 65
1, 320483, Control_c, 0, 64, 66
1, 320498, Control_c, 0, 64, 67
1, 320500, Note_off_c, 0, 53, 39
1, 320514, Note_off_c, 0, 81, 36
1, 320520, Control_c, 0, 64, 68
1, 320535, Control_c, 0, 64, 69
1, 320549, Control_c, 0, 64, 70
1, 320564, Control_c, 0, 64, 71
1, 320569, Note_off_c, 0, 58, 41
1, 320573, Note_off_c, 0, 79, 53
1, 320579, Control_c, 0, 64, 72
1, 320594, Control_c, 0, 64, 72
1, 320609, Control_c, 0, 64, 73
1, 320713, Control_c, 0, 64, 72
1, 320743, Control_c, 0, 64, 72
1, 320758, Control_c, 0, 64, 71
1, 320772, Control_c, 0, 64, 71
1, 320787, Control_c, 0, 64, 70
1, 320801, Note_on_c, 0, 57, 44
1, 320802, Note_on_c, 0, 53, 38
1, 320802, Control_c, 0, 64, 68
1, 320809, Note_on_c, 0, 79, 55
1, 320816, Control_c, 0, 64, 66
1, 320831, Control_c, 0, 64, 64
1, 320846, Control_c, 0, 64, 61
1, 320861, Control_c, 0, 64, 59
1, 320876, Control_c, 0, 64, 58
1, 320890, Control_c, 0, 64, 56
1, 320905, Note_on_c, 0, 77, 59
1, 320905, Control_c, 0, 64, 55
1, 320920, Control_c, 0, 64, 51
1, 320934, Control_c, 0, 64, 45
1, 320949, Control_c, 0, 64, 35
1, 320955, Note_off_c, 0, 79, 59
1, 320964, Control_c, 0, 64, 0
1, 321122, Note_off_c, 0, 57, 48
1, 321134, Note_on_c, 0, 58, 49
1, 321143, Note_on_c, 0, 55, 51
1, 321187, Control_c, 0, 64, 31
1, 321202, Control_c, 0, 64, 40
1, 321217, Control_c, 0, 64, 51
1, 321232, Control_c, 0, 64, 58
1, 321247, Control_c, 0, 64, 61
1, 321269, Control_c, 0, 64, 64
1, 321272, Note_off_c, 0, 55, 55
1, 321284, Control_c, 0, 64, 67
1, 321299, Control_c, 0, 64, 69
1, 321313, Control_c, 0, 64, 72
1, 321328, Control_c, 0, 64, 74
1, 321343, Note_off_c, 0, 77, 35
1, 321343, Control_c, 0, 64, 75
1, 321417, Control_c, 0, 64, 74
1, 321432, Control_c, 0, 64, 72
1, 321447, Control_c, 0, 64, 68
1, 321454, Note_off_c, 0, 58, 31
1, 321458, Note_on_c, 0, 77, 71
1, 321461, Control_c, 0, 64, 61
1, 321462, Note_on_c, 0, 60, 51
1, 321470, Note_on_c, 0, 57, 48
1, 321476, Control_c, 0, 64, 52
1, 321491, Control_c, 0, 64, 40
1, 321506, Control_c, 0, 64, 0
1, 321595, Control_c, 0, 64, 34
1, 321610, Control_c, 0, 64, 46
1, 321625, Control_c, 0, 64, 55
1, 321639, Control_c, 0, 64, 60
1, 321654, Control_c, 0, 64, 63
1, 321669, Control_c, 0, 64, 65
1, 321676, Note_off_c, 0, 60, 61
1, 321684, Control_c, 0, 64, 67
1, 321699, Control_c, 0, 64, 69
1, 321713, Control_c, 0, 64, 70
1, 321772, Control_c, 0, 64, 67
1, 321777, Note_on_c, 0, 62, 68
1, 321787, Note_on_c, 0, 58, 58
1, 321787, Control_c, 0, 64, 61
1, 321802, Control_c, 0, 64, 53
1, 321813, Note_off_c, 0, 57, 48
1, 321817, Control_c, 0, 64, 45
1, 321831, Control_c, 0, 64, 43
1, 321846, Control_c, 0, 64, 45
1, 321861, Control_c, 0, 64, 48
1, 321877, Control_c, 0, 64, 52
1, 321892, Control_c, 0, 64, 56
1, 321907, Control_c, 0, 64, 60
1, 321923, Control_c, 0, 64, 63
1, 321937, Control_c, 0, 64, 66
1, 321952, Control_c, 0, 64, 70
1, 321967, Control_c, 0, 64, 73
1, 321979, Note_off_c, 0, 62, 62
1, 321981, Control_c, 0, 64, 76
1, 321996, Control_c, 0, 64, 78
1, 321999, Note_off_c, 0, 58, 53
1, 322012, Note_off_c, 0, 77, 52
1, 322019, Control_c, 0, 64, 78
1, 322093, Control_c, 0, 64, 77
1, 322108, Control_c, 0, 64, 73
1, 322117, Note_on_c, 0, 77, 82
1, 322122, Note_on_c, 0, 63, 66
1, 322123, Control_c, 0, 64, 67
1, 322129, Note_on_c, 0, 60, 54
1, 322137, Control_c, 0, 64, 58
1, 322152, Control_c, 0, 64, 43
1, 322167, Control_c, 0, 64, 0
1, 322270, Control_c, 0, 64, 42
1, 322285, Control_c, 0, 64, 52
1, 322300, Control_c, 0, 64, 59
1, 322315, Control_c, 0, 64, 62
1, 322330, Control_c, 0, 64, 65
1, 322344, Control_c, 0, 64, 67
1, 322348, Note_off_c, 0, 63, 59
1, 322359, Control_c, 0, 64, 69
1, 322374, Control_c, 0, 64, 70
1, 322382, Note_off_c, 0, 60, 45
1, 322389, Control_c, 0, 64, 71
1, 322403, Control_c, 0, 64, 72
1, 322440, Note_on_c, 0, 62, 70
1, 322448, Control_c, 0, 64, 71
1, 322453, Note_on_c, 0, 59, 54
1, 322463, Control_c, 0, 64, 67
1, 322478, Control_c, 0, 64, 61
1, 322493, Control_c, 0, 64, 50
1, 322507, Control_c, 0, 64, 38
1, 322522, Control_c, 0, 64, 0
1, 322567, Control_c, 0, 64, 31
1, 322581, Control_c, 0, 64, 41
1, 322596, Control_c, 0, 64, 51
1, 322611, Control_c, 0, 64, 58
1, 322626, Control_c, 0, 64, 62
1, 322639, Note_off_c, 0, 59, 47
1, 322641, Control_c, 0, 64, 65
1, 322655, Control_c, 0, 64, 67
1, 322670, Note_off_c, 0, 62, 58
1, 322670, Control_c, 0, 64, 69
1, 322686, Control_c, 0, 64, 71
1, 322701, Control_c, 0, 64, 72
1, 322713, Note_off_c, 0, 77, 60
1, 322716, Control_c, 0, 64, 73
1, 322767, Control_c, 0, 64, 72
1, 322782, Control_c, 0, 64, 71
1, 322797, Control_c, 0, 64, 68
1, 322804, Note_on_c, 0, 60, 60
1, 322804, Note_on_c, 0, 77, 82
1, 322806, Note_on_c, 0, 63, 59
1, 322812, Control_c, 0, 64, 61
1, 322827, Control_c, 0, 64, 50
1, 322842, Control_c, 0, 64, 31
1, 322857, Control_c, 0, 64, 0
1, 322930, Control_c, 0, 64, 32
1, 322945, Control_c, 0, 64, 45
1, 322960, Control_c, 0, 64, 56
1, 322975, Control_c, 0, 64, 61
1, 322990, Control_c, 0, 64, 64
1, 323004, Control_c, 0, 64, 66
1, 323019, Control_c, 0, 64, 68
1, 323034, Control_c, 0, 64, 71
1, 323049, Control_c, 0, 64, 73
1, 323055, Note_off_c, 0, 63, 58
1, 323064, Control_c, 0, 64, 75
1, 323079, Control_c, 0, 64, 76
1, 323093, Control_c, 0, 64, 77
1, 323115, Note_off_c, 0, 60, 38
1, 323137, Control_c, 0, 64, 76
1, 323152, Control_c, 0, 64, 72
1, 323167, Control_c, 0, 64, 65
1, 323169, Note_on_c, 0, 62, 69
1, 323177, Note_on_c, 0, 59, 56
1, 323182, Control_c, 0, 64, 57
1, 323197, Control_c, 0, 64, 46
1, 323211, Control_c, 0, 64, 39
1, 323226, Control_c, 0, 64, 38
1, 323241, Control_c, 0, 64, 40
1, 323256, Control_c, 0, 64, 46
1, 323271, Control_c, 0, 64, 53
1, 323286, Control_c, 0, 64, 58
1, 323301, Control_c, 0, 64, 62
1, 323309, Note_off_c, 0, 59, 60
1, 323316, Control_c, 0, 64, 66
1, 323330, Control_c, 0, 64, 69
1, 323345, Control_c, 0, 64, 74
1, 323355, Note_off_c, 0, 77, 49
1, 323360, Control_c, 0, 64, 78
1, 323375, Control_c, 0, 64, 82
1, 323390, Control_c, 0, 64, 86
1, 323399, Note_off_c, 0, 62, 50
1, 323404, Control_c, 0, 64, 91
1, 323418, Control_c, 0, 64, 96
1, 323433, Control_c, 0, 64, 102
1, 323448, Control_c, 0, 64, 105
1, 323708, Control_c, 0, 64, 102
1, 323718, Note_on_c, 0, 77, 74
1, 323719, Note_on_c, 0, 63, 51
1, 323723, Note_on_c, 0, 60, 49
1, 323723, Control_c, 0, 64, 97
1, 323738, Control_c, 0, 64, 87
1, 323752, Control_c, 0, 64, 74
1, 323767, Control_c, 0, 64, 65
1, 323782, Control_c, 0, 64, 56
1, 323797, Control_c, 0, 64, 45
1, 323812, Control_c, 0, 64, 33
1, 323826, Control_c, 0, 64, 0
1, 324887, Control_c, 0, 64, 31
1, 324901, Control_c, 0, 64, 39
1, 324916, Control_c, 0, 64, 47
1, 324931, Control_c, 0, 64, 55
1, 324946, Control_c, 0, 64, 59
1, 324961, Control_c, 0, 64, 61
1, 324976, Control_c, 0, 64, 62
1, 324991, Control_c, 0, 64, 64
1, 325013, Control_c, 0, 64, 66
1, 325028, Control_c, 0, 64, 68
1, 325043, Control_c, 0, 64, 70
1, 325057, Control_c, 0, 64, 73
1, 325072, Control_c, 0, 64, 75
1, 325088, Control_c, 0, 64, 77
1, 325103, Control_c, 0, 64, 79
1, 325118, Control_c, 0, 64, 80
1, 325118, Control_c, 0, 67, 20
1, 325132, Control_c, 0, 64, 81
1, 325147, Control_c, 0, 64, 81
1, 325147, Control_c, 0, 67, 24
1, 325162, Control_c, 0, 67, 26
1, 325177, Control_c, 0, 64, 82
1, 325177, Control_c, 0, 67, 29
1, 325192, Control_c, 0, 67, 34
1, 325206, Control_c, 0, 67, 39
1, 325218, Note_off_c, 0, 77, 45
1, 325221, Control_c, 0, 67, 45
1, 325236, Control_c, 0, 67, 52
1, 325251, Control_c, 0, 67, 60
1, 325266, Control_c, 0, 67, 67
1, 325280, Control_c, 0, 67, 74
1, 325295, Control_c, 0, 67, 80
1, 325310, Control_c, 0, 67, 84
1, 325325, Control_c, 0, 67, 87
1, 325340, Control_c, 0, 67, 89
1, 325355, Control_c, 0, 67, 90
1, 325369, Control_c, 0, 67, 91
1, 325399, Control_c, 0, 64, 81
1, 325414, Control_c, 0, 67, 91
1, 325429, Control_c, 0, 64, 81
1, 325444, Control_c, 0, 64, 80
1, 325459, Control_c, 0, 64, 80
1, 325473, Control_c, 0, 64, 79
1, 325488, Control_c, 0, 64, 79
1, 325503, Control_c, 0, 64, 77
1, 325518, Control_c, 0, 64, 76
1, 325518, Control_c, 0, 67, 91
1, 325532, Control_c, 0, 64, 74
1, 325532, Control_c, 0, 67, 90
1, 325547, Control_c, 0, 64, 72
1, 325547, Control_c, 0, 67, 90
1, 325562, Control_c, 0, 64, 70
1, 325562, Control_c, 0, 67, 89
1, 325577, Control_c, 0, 64, 68
1, 325592, Control_c, 0, 64, 67
1, 325606, Control_c, 0, 64, 65
1, 325621, Control_c, 0, 64, 63
1, 325636, Control_c, 0, 64, 61
1, 325650, Note_off_c, 0, 63, 38
1, 325650, Control_c, 0, 64, 59
1, 325650, Control_c, 0, 67, 89
1, 325656, Note_off_c, 0, 60, 45
1, 325665, Control_c, 0, 64, 57
1, 325680, Control_c, 0, 64, 56
1, 325683, Note_off_c, 0, 53, 41
1, 325695, Control_c, 0, 64, 54
1, 325710, Control_c, 0, 64, 51
1, 325724, Control_c, 0, 64, 48
1, 325739, Control_c, 0, 64, 42
1, 325739, Control_c, 0, 67, 88
1, 325762, Control_c, 0, 64, 35
1, 325777, Control_c, 0, 64, 0
1, 325783, Note_on_c, 0, 76, 10
1, 325836, Control_c, 0, 67, 88
1, 325918, Note_off_c, 0, 76, 58
1, 326011, Note_on_c, 0, 76, 56
1, 326162, Control_c, 0, 67, 87
1, 326251, Note_on_c, 0, 77, 56
1, 326308, Note_off_c, 0, 76, 58
1, 326326, Control_c, 0, 67, 87
1, 326425, Note_on_c, 0, 79, 65
1, 326437, Note_off_c, 0, 77, 58
1, 326559, Note_on_c, 0, 77, 63
1, 326588, Note_off_c, 0, 79, 63
1, 326618, Note_off_c, 0, 77, 62
1, 326690, Control_c, 0, 67, 86
1, 326699, Note_on_c, 0, 77, 51
1, 326830, Note_on_c, 0, 75, 51
1, 326940, Note_off_c, 0, 77, 33
1, 326959, Note_on_c, 0, 74, 54
1, 327005, Note_off_c, 0, 75, 52
1, 327030, Control_c, 0, 67, 86
1, 327092, Note_on_c, 0, 72, 48
1, 327104, Control_c, 0, 67, 85
1, 327106, Note_off_c, 0, 74, 53
1, 327119, Control_c, 0, 67, 85
1, 327164, Control_c, 0, 67, 84
1, 327179, Control_c, 0, 67, 84
1, 327194, Control_c, 0, 67, 83
1, 327209, Control_c, 0, 67, 83
1, 327260, Control_c, 0, 67, 82
1, 327290, Control_c, 0, 67, 82
1, 327334, Control_c, 0, 67, 81
1, 327337, Note_on_c, 0, 70, 54
1, 327345, Note_on_c, 0, 58, 32
1, 327349, Control_c, 0, 67, 81
1, 327358, Note_off_c, 0, 72, 45
1, 327379, Control_c, 0, 67, 80
1, 327393, Control_c, 0, 67, 80
1, 327408, Control_c, 0, 67, 79
1, 327423, Control_c, 0, 67, 79
1, 327453, Control_c, 0, 67, 78
1, 327468, Control_c, 0, 67, 78
1, 327543, Control_c, 0, 64, 33
1, 327557, Control_c, 0, 64, 43
1, 327572, Control_c, 0, 64, 52
1, 327587, Control_c, 0, 64, 56
1, 327602, Control_c, 0, 64, 59
1, 327602, Control_c, 0, 67, 78
1, 327617, Control_c, 0, 64, 60
1, 327632, Control_c, 0, 64, 61
1, 327647, Control_c, 0, 64, 62
1, 327662, Control_c, 0, 64, 63
1, 327676, Control_c, 0, 64, 63
1, 327691, Control_c, 0, 64, 64
1, 327701, Note_on_c, 0, 65, 30
1, 327706, Control_c, 0, 64, 65
1, 327720, Control_c, 0, 64, 66
1, 327735, Control_c, 0, 64, 67
1, 327750, Control_c, 0, 64, 68
1, 327765, Control_c, 0, 64, 69
1, 327780, Control_c, 0, 64, 71
1, 327794, Control_c, 0, 64, 72
1, 327809, Control_c, 0, 64, 73
1, 327824, Control_c, 0, 64, 74
1, 327839, Control_c, 0, 64, 75
1, 327853, Control_c, 0, 64, 77
1, 327868, Control_c, 0, 64, 78
1, 327883, Control_c, 0, 64, 79
1, 327883, Control_c, 0, 67, 79
1, 327898, Control_c, 0, 64, 80
1, 327912, Control_c, 0, 64, 81
1, 327942, Control_c, 0, 64, 81
1, 327978, Note_on_c, 0, 62, 31
1, 327987, Control_c, 0, 64, 82
1, 328034, Note_off_c, 0, 65, 34
1, 328067, Control_c, 0, 64, 82
1, 328157, Control_c, 0, 64, 83
1, 328242, Note_off_c, 0, 70, 53
1, 328246, Control_c, 0, 67, 79
1, 328265, Note_on_c, 0, 65, 32
1, 328328, Note_off_c, 0, 62, 39
1, 328347, Note_off_c, 0, 58, 39
1, 328468, Control_c, 0, 64, 82
1, 328487, Note_off_c, 0, 65, 31
1, 328498, Control_c, 0, 64, 82
1, 328513, Control_c, 0, 64, 81
1, 328528, Control_c, 0, 64, 81
1, 328542, Control_c, 0, 64, 80
1, 328557, Control_c, 0, 64, 78
1, 328561, Note_on_c, 0, 74, 57
1, 328568, Note_on_c, 0, 58, 35
1, 328572, Control_c, 0, 64, 75
1, 328587, Control_c, 0, 64, 71
1, 328602, Control_c, 0, 64, 66
1, 328616, Control_c, 0, 64, 61
1, 328631, Control_c, 0, 64, 55
1, 328646, Control_c, 0, 64, 53
1, 328675, Control_c, 0, 64, 54
1, 328690, Control_c, 0, 64, 56
1, 328705, Control_c, 0, 64, 60
1, 328720, Control_c, 0, 64, 63
1, 328735, Control_c, 0, 64, 65
1, 328757, Control_c, 0, 64, 67
1, 328772, Control_c, 0, 64, 69
1, 328787, Control_c, 0, 64, 71
1, 328802, Control_c, 0, 64, 72
1, 328803, Note_off_c, 0, 74, 56
1, 328817, Control_c, 0, 64, 73
1, 328831, Control_c, 0, 64, 73
1, 328890, Control_c, 0, 67, 80
1, 328941, Note_on_c, 0, 65, 37
1, 328994, Control_c, 0, 64, 73
1, 329023, Note_on_c, 0, 75, 52
1, 329024, Control_c, 0, 64, 72
1, 329039, Control_c, 0, 64, 71
1, 329039, Control_c, 0, 67, 79
1, 329054, Control_c, 0, 64, 70
1, 329069, Control_c, 0, 64, 69
1, 329084, Control_c, 0, 64, 68
1, 329093, Note_on_c, 0, 74, 58
1, 329099, Control_c, 0, 64, 67
1, 329113, Control_c, 0, 64, 66
1, 329122, Note_off_c, 0, 65, 30
1, 329124, Note_off_c, 0, 75, 61
1, 329128, Control_c, 0, 64, 64
1, 329128, Control_c, 0, 67, 79
1, 329130, Note_off_c, 0, 74, 64
1, 329143, Control_c, 0, 64, 62
1, 329158, Note_on_c, 0, 72, 51
1, 329158, Control_c, 0, 64, 60
1, 329173, Control_c, 0, 64, 58
1, 329188, Control_c, 0, 64, 56
1, 329203, Control_c, 0, 64, 54
1, 329218, Control_c, 0, 64, 52
1, 329224, Note_on_c, 0, 74, 65
1, 329233, Control_c, 0, 64, 50
1, 329239, Note_on_c, 0, 62, 32
1, 329247, Control_c, 0, 64, 47
1, 329251, Note_off_c, 0, 72, 52
1, 329262, Control_c, 0, 64, 44
1, 329262, Control_c, 0, 67, 78
1, 329277, Control_c, 0, 64, 43
1, 329291, Control_c, 0, 67, 78
1, 329306, Control_c, 0, 64, 45
1, 329321, Control_c, 0, 64, 48
1, 329321, Control_c, 0, 67, 77
1, 329336, Control_c, 0, 64, 51
1, 329336, Control_c, 0, 67, 77
1, 329351, Control_c, 0, 64, 53
1, 329395, Control_c, 0, 64, 52
1, 329410, Control_c, 0, 64, 50
1, 329424, Control_c, 0, 64, 47
1, 329439, Control_c, 0, 64, 45
1, 329454, Control_c, 0, 64, 43
1, 329469, Control_c, 0, 64, 41
1, 329484, Control_c, 0, 64, 37
1, 329504, Note_on_c, 0, 75, 67
1, 329506, Control_c, 0, 64, 34
1, 329521, Control_c, 0, 64, 33
1, 329531, Note_on_c, 0, 65, 30
1, 329536, Control_c, 0, 64, 34
1, 329551, Control_c, 0, 64, 35
1, 329566, Control_c, 0, 64, 38
1, 329580, Control_c, 0, 64, 43
1, 329588, Note_off_c, 0, 62, 36
1, 329595, Control_c, 0, 64, 49
1, 329599, Note_off_c, 0, 74, 60
1, 329610, Control_c, 0, 64, 53
1, 329624, Control_c, 0, 64, 56
1, 329624, Control_c, 0, 67, 76
1, 329639, Control_c, 0, 64, 59
1, 329654, Control_c, 0, 64, 60
1, 329669, Control_c, 0, 64, 61
1, 329684, Control_c, 0, 64, 61
1, 329713, Control_c, 0, 64, 61
1, 329728, Control_c, 0, 64, 60
1, 329743, Control_c, 0, 64, 60
1, 329745, Note_off_c, 0, 58, 40
1, 329758, Control_c, 0, 64, 59
1, 329772, Control_c, 0, 64, 58
1, 329787, Control_c, 0, 64, 57
1, 329787, Control_c, 0, 67, 77
1, 329802, Control_c, 0, 64, 56
1, 329817, Control_c, 0, 64, 54
1, 329832, Control_c, 0, 64, 53
1, 329847, Note_on_c, 0, 76, 68
1, 329847, Control_c, 0, 64, 52
1, 329862, Control_c, 0, 64, 51
1, 329864, Note_on_c, 0, 57, 35
1, 329877, Control_c, 0, 64, 50
1, 329892, Control_c, 0, 64, 49
1, 329897, Note_off_c, 0, 65, 34
1, 329907, Control_c, 0, 64, 48
1, 329921, Control_c, 0, 64, 46
1, 329936, Control_c, 0, 64, 44
1, 329943, Note_off_c, 0, 75, 56
1, 329951, Control_c, 0, 64, 42
1, 329966, Control_c, 0, 64, 39
1, 329981, Control_c, 0, 64, 37
1, 329996, Control_c, 0, 64, 35
1, 330011, Control_c, 0, 64, 34
1, 330026, Control_c, 0, 64, 33
1, 330040, Control_c, 0, 64, 32
1, 330070, Control_c, 0, 64, 29
1, 330085, Control_c, 0, 64, 0
1, 330175, Control_c, 0, 64, 29
1, 330184, Note_on_c, 0, 65, 32
1, 330189, Control_c, 0, 64, 31
1, 330204, Control_c, 0, 64, 34
1, 330219, Control_c, 0, 64, 39
1, 330234, Control_c, 0, 64, 45
1, 330255, Control_c, 0, 64, 49
1, 330270, Control_c, 0, 64, 52
1, 330285, Control_c, 0, 64, 54
1, 330300, Control_c, 0, 64, 55
1, 330315, Control_c, 0, 64, 57
1, 330330, Control_c, 0, 64, 60
1, 330345, Control_c, 0, 64, 61
1, 330359, Control_c, 0, 64, 62
1, 330374, Control_c, 0, 64, 63
1, 330389, Control_c, 0, 64, 64
1, 330404, Control_c, 0, 64, 64
1, 330419, Control_c, 0, 64, 65
1, 330434, Control_c, 0, 64, 66
1, 330448, Control_c, 0, 64, 66
1, 330463, Control_c, 0, 64, 67
1, 330470, Note_on_c, 0, 60, 34
1, 330478, Control_c, 0, 64, 67
1, 330487, Note_off_c, 0, 65, 37
1, 330552, Control_c, 0, 64, 68
1, 330629, Note_off_c, 0, 57, 32
1, 330701, Control_c, 0, 64, 67
1, 330745, Control_c, 0, 64, 67
1, 330753, Note_on_c, 0, 77, 44
1, 330760, Control_c, 0, 64, 65
1, 330770, Note_on_c, 0, 65, 35
1, 330775, Control_c, 0, 64, 64
1, 330779, Note_off_c, 0, 76, 52
1, 330790, Control_c, 0, 64, 63
1, 330805, Control_c, 0, 64, 62
1, 330849, Control_c, 0, 64, 62
1, 330854, Note_off_c, 0, 60, 40
1, 330864, Control_c, 0, 64, 61
1, 330878, Control_c, 0, 64, 60
1, 330893, Control_c, 0, 64, 59
1, 330908, Control_c, 0, 64, 58
1, 330923, Control_c, 0, 64, 58
1, 330938, Control_c, 0, 64, 57
1, 330953, Control_c, 0, 64, 56
1, 330968, Control_c, 0, 64, 55
1, 330982, Control_c, 0, 64, 54
1, 331005, Control_c, 0, 64, 54
1, 331019, Control_c, 0, 64, 53
1, 331034, Control_c, 0, 64, 53
1, 331049, Control_c, 0, 64, 52
1, 331077, Note_on_c, 0, 72, 36
1, 331078, Control_c, 0, 64, 51
1, 331094, Note_on_c, 0, 57, 18
1, 331108, Control_c, 0, 64, 51
1, 331118, Note_off_c, 0, 65, 37
1, 331131, Note_off_c, 0, 77, 30
1, 331152, Control_c, 0, 64, 50
1, 331182, Control_c, 0, 64, 50
1, 331386, Note_on_c, 0, 65, 27
1, 331389, Control_c, 0, 67, 76
1, 331465, Control_c, 0, 67, 76
1, 331480, Control_c, 0, 67, 75
1, 331509, Control_c, 0, 64, 49
1, 331524, Control_c, 0, 67, 75
1, 331554, Control_c, 0, 67, 74
1, 331568, Control_c, 0, 64, 49
1, 331568, Control_c, 0, 67, 73
1, 331583, Control_c, 0, 67, 68
1, 331598, Control_c, 0, 64, 48
1, 331598, Control_c, 0, 67, 63
1, 331613, Control_c, 0, 64, 48
1, 331613, Control_c, 0, 67, 59
1, 331627, Control_c, 0, 64, 47
1, 331627, Control_c, 0, 67, 56
1, 331642, Control_c, 0, 67, 55
1, 331656, Control_c, 0, 64, 47
1, 331656, Control_c, 0, 67, 54
1, 331671, Control_c, 0, 64, 46
1, 331671, Control_c, 0, 67, 53
1, 331677, Note_on_c, 0, 60, 28
1, 331686, Control_c, 0, 64, 46
1, 331700, Control_c, 0, 64, 45
1, 331700, Control_c, 0, 67, 53
1, 331704, Note_off_c, 0, 65, 39
1, 331715, Control_c, 0, 64, 44
1, 331715, Control_c, 0, 67, 52
1, 331730, Control_c, 0, 64, 44
1, 331752, Control_c, 0, 64, 43
1, 331752, Control_c, 0, 67, 52
1, 331767, Control_c, 0, 64, 43
1, 331767, Control_c, 0, 67, 50
1, 331769, Note_off_c, 0, 72, 37
1, 331779, Note_off_c, 0, 57, 35
1, 331781, Control_c, 0, 67, 46
1, 331796, Control_c, 0, 67, 41
1, 331811, Control_c, 0, 67, 36
1, 331826, Control_c, 0, 67, 30
1, 331841, Control_c, 0, 67, 25
1, 331856, Control_c, 0, 67, 21
1, 331871, Control_c, 0, 67, 0
1, 331974, Note_on_c, 0, 65, 30
1, 331996, Note_off_c, 0, 60, 45
1, 332211, Control_c, 0, 64, 42
1, 332226, Control_c, 0, 64, 41
1, 332240, Control_c, 0, 64, 40
1, 332255, Control_c, 0, 64, 39
1, 332264, Note_on_c, 0, 75, 62
1, 332271, Control_c, 0, 64, 38
1, 332272, Note_off_c, 0, 65, 44
1, 332274, Note_on_c, 0, 55, 33
1, 332286, Control_c, 0, 64, 38
1, 332315, Control_c, 0, 64, 38
1, 332330, Control_c, 0, 64, 40
1, 332345, Control_c, 0, 64, 42
1, 332360, Control_c, 0, 64, 47
1, 332375, Control_c, 0, 64, 52
1, 332389, Control_c, 0, 64, 56
1, 332405, Control_c, 0, 64, 59
1, 332420, Control_c, 0, 64, 63
1, 332434, Control_c, 0, 64, 66
1, 332449, Control_c, 0, 64, 69
1, 332464, Control_c, 0, 64, 73
1, 332479, Control_c, 0, 64, 78
1, 332502, Control_c, 0, 64, 83
1, 332517, Control_c, 0, 64, 88
1, 332525, Note_off_c, 0, 75, 58
1, 332531, Control_c, 0, 64, 94
1, 332546, Control_c, 0, 64, 98
1, 332561, Control_c, 0, 64, 100
1, 332616, Note_on_c, 0, 63, 40
1, 332685, Note_on_c, 0, 77, 52
1, 332723, Control_c, 0, 64, 98
1, 332746, Note_on_c, 0, 75, 57
1, 332753, Control_c, 0, 64, 95
1, 332755, Note_off_c, 0, 77, 61
1, 332768, Control_c, 0, 64, 92
1, 332779, Note_off_c, 0, 75, 65
1, 332783, Control_c, 0, 64, 88
1, 332792, Note_on_c, 0, 74, 68
1, 332798, Control_c, 0, 64, 82
1, 332813, Control_c, 0, 64, 74
1, 332828, Control_c, 0, 64, 65
1, 332842, Control_c, 0, 64, 58
1, 332854, Note_on_c, 0, 75, 70
1, 332857, Control_c, 0, 64, 52
1, 332861, Note_on_c, 0, 58, 43
1, 332866, Note_off_c, 0, 63, 22
1, 332872, Control_c, 0, 64, 49
1, 332887, Control_c, 0, 64, 49
1, 332890, Note_off_c, 0, 74, 57
1, 332902, Control_c, 0, 64, 51
1, 332916, Control_c, 0, 64, 55
1, 332931, Control_c, 0, 64, 59
1, 332946, Control_c, 0, 64, 63
1, 332961, Control_c, 0, 64, 66
1, 332975, Control_c, 0, 64, 71
1, 332990, Control_c, 0, 64, 77
1, 333005, Control_c, 0, 64, 82
1, 333020, Control_c, 0, 64, 87
1, 333021, Note_off_c, 0, 75, 60
1, 333034, Control_c, 0, 64, 90
1, 333049, Control_c, 0, 64, 90
1, 333080, Control_c, 0, 64, 90
1, 333095, Control_c, 0, 64, 87
1, 333110, Control_c, 0, 64, 81
1, 333125, Control_c, 0, 64, 74
1, 333129, Note_on_c, 0, 77, 75
1, 333135, Note_off_c, 0, 58, 55
1, 333139, Control_c, 0, 64, 70
1, 333140, Note_on_c, 0, 63, 45
1, 333154, Control_c, 0, 64, 68
1, 333199, Control_c, 0, 64, 69
1, 333213, Control_c, 0, 64, 72
1, 333221, Note_off_c, 0, 55, 40
1, 333228, Control_c, 0, 64, 77
1, 333251, Control_c, 0, 64, 83
1, 333265, Control_c, 0, 64, 89
1, 333280, Control_c, 0, 64, 96
1, 333295, Control_c, 0, 64, 100
1, 333330, Note_off_c, 0, 63, 52
1, 333384, Control_c, 0, 64, 95
1, 333398, Control_c, 0, 64, 88
1, 333413, Control_c, 0, 64, 80
1, 333428, Control_c, 0, 64, 71
1, 333439, Note_on_c, 0, 79, 78
1, 333443, Control_c, 0, 64, 64
1, 333451, Note_on_c, 0, 51, 48
1, 333458, Control_c, 0, 64, 54
1, 333460, Note_off_c, 0, 77, 25
1, 333472, Control_c, 0, 64, 31
1, 333487, Control_c, 0, 64, 0
1, 333606, Control_c, 0, 64, 36
1, 333621, Control_c, 0, 64, 50
1, 333635, Control_c, 0, 64, 58
1, 333650, Control_c, 0, 64, 62
1, 333665, Control_c, 0, 64, 64
1, 333680, Control_c, 0, 64, 67
1, 333694, Note_off_c, 0, 79, 62
1, 333695, Control_c, 0, 64, 69
1, 333710, Control_c, 0, 64, 71
1, 333725, Control_c, 0, 64, 73
1, 333739, Control_c, 0, 64, 74
1, 333746, Note_on_c, 0, 58, 39
1, 333844, Note_on_c, 0, 81, 60
1, 333859, Control_c, 0, 64, 73
1, 333888, Control_c, 0, 64, 73
1, 333894, Note_on_c, 0, 79, 74
1, 333902, Control_c, 0, 64, 72
1, 333912, Note_off_c, 0, 81, 62
1, 333917, Control_c, 0, 64, 71
1, 333928, Note_off_c, 0, 79, 64
1, 333932, Control_c, 0, 64, 70
1, 333943, Note_on_c, 0, 77, 66
1, 333947, Control_c, 0, 64, 68
1, 333961, Control_c, 0, 64, 65
1, 333976, Control_c, 0, 64, 60
1, 333999, Control_c, 0, 64, 55
1, 334011, Note_off_c, 0, 58, 33
1, 334011, Note_on_c, 0, 55, 41
1, 334013, Control_c, 0, 64, 48
1, 334020, Note_on_c, 0, 79, 86
1, 334028, Control_c, 0, 64, 42
1, 334043, Control_c, 0, 64, 37
1, 334053, Note_off_c, 0, 77, 61
1, 334058, Control_c, 0, 64, 34
1, 334087, Control_c, 0, 64, 36
1, 334102, Control_c, 0, 64, 42
1, 334117, Control_c, 0, 64, 50
1, 334132, Control_c, 0, 64, 55
1, 334147, Control_c, 0, 64, 58
1, 334161, Control_c, 0, 64, 59
1, 334176, Control_c, 0, 64, 60
1, 334220, Control_c, 0, 64, 60
1, 334235, Control_c, 0, 64, 58
1, 334250, Control_c, 0, 64, 55
1, 334265, Control_c, 0, 64, 49
1, 334280, Control_c, 0, 64, 43
1, 334294, Control_c, 0, 64, 36
1, 334308, Note_on_c, 0, 81, 82
1, 334309, Control_c, 0, 64, 0
1, 334327, Note_on_c, 0, 58, 41
1, 334346, Note_off_c, 0, 55, 42
1, 334354, Control_c, 0, 64, 30
1, 334359, Note_off_c, 0, 79, 62
1, 334369, Control_c, 0, 64, 38
1, 334384, Control_c, 0, 64, 47
1, 334399, Control_c, 0, 64, 55
1, 334413, Control_c, 0, 64, 61
1, 334428, Control_c, 0, 64, 65
1, 334443, Control_c, 0, 64, 69
1, 334458, Control_c, 0, 64, 74
1, 334473, Control_c, 0, 64, 80
1, 334474, Note_off_c, 0, 51, 35
1, 334487, Control_c, 0, 64, 87
1, 334502, Control_c, 0, 64, 94
1, 334508, Note_off_c, 0, 81, 60
1, 334517, Control_c, 0, 64, 98
1, 334620, Control_c, 0, 64, 94
1, 334635, Control_c, 0, 64, 90
1, 334651, Control_c, 0, 64, 87
1, 334667, Control_c, 0, 64, 84
1, 334682, Control_c, 0, 64, 81
1, 334688, Note_on_c, 0, 81, 83
1, 334694, Note_on_c, 0, 50, 43
1, 334697, Control_c, 0, 64, 78
1, 334711, Control_c, 0, 64, 74
1, 334726, Control_c, 0, 64, 70
1, 334748, Control_c, 0, 64, 66
1, 334763, Control_c, 0, 64, 63
1, 334765, Note_off_c, 0, 58, 35
1, 334778, Control_c, 0, 64, 61
1, 334792, Control_c, 0, 64, 58
1, 334807, Control_c, 0, 64, 54
1, 334822, Control_c, 0, 64, 49
1, 334837, Control_c, 0, 64, 43
1, 334852, Control_c, 0, 64, 34
1, 334867, Control_c, 0, 64, 0
1, 335027, Note_on_c, 0, 58, 38
1, 335133, Control_c, 0, 64, 35
1, 335148, Control_c, 0, 64, 48
1, 335162, Control_c, 0, 64, 56
1, 335177, Control_c, 0, 64, 60
1, 335192, Control_c, 0, 64, 60
1, 335207, Control_c, 0, 64, 61
1, 335222, Control_c, 0, 64, 62
1, 335236, Control_c, 0, 64, 63
1, 335251, Control_c, 0, 64, 63
1, 335266, Control_c, 0, 64, 64
1, 335287, Note_on_c, 0, 53, 35
1, 335296, Control_c, 0, 64, 65
1, 335329, Note_off_c, 0, 50, 32
1, 335341, Note_off_c, 0, 58, 35
1, 335527, Control_c, 0, 64, 64
1, 335594, Note_on_c, 0, 82, 63
1, 335605, Note_on_c, 0, 58, 30
1, 335615, Control_c, 0, 64, 64
1, 335621, Note_off_c, 0, 81, 61
1, 335645, Control_c, 0, 64, 63
1, 335651, Note_off_c, 0, 53, 39
1, 335689, Control_c, 0, 64, 63
1, 335704, Control_c, 0, 64, 62
1, 335719, Control_c, 0, 64, 61
1, 335734, Control_c, 0, 64, 61
1, 335749, Control_c, 0, 64, 60
1, 335764, Control_c, 0, 64, 59
1, 335779, Control_c, 0, 64, 59
1, 335793, Control_c, 0, 64, 58
1, 335808, Control_c, 0, 64, 57
1, 335823, Control_c, 0, 64, 56
1, 335838, Control_c, 0, 64, 55
1, 335853, Control_c, 0, 64, 54
1, 335867, Control_c, 0, 64, 53
1, 335882, Control_c, 0, 64, 53
1, 335897, Control_c, 0, 64, 52
1, 335908, Note_off_c, 0, 58, 33
1, 335912, Control_c, 0, 64, 50
1, 335925, Note_on_c, 0, 77, 46
1, 335927, Control_c, 0, 64, 49
1, 335935, Note_on_c, 0, 50, 22
1, 335941, Control_c, 0, 64, 48
1, 335956, Control_c, 0, 64, 47
1, 335971, Control_c, 0, 64, 47
1, 335985, Control_c, 0, 64, 46
1, 336000, Control_c, 0, 64, 45
1, 336015, Control_c, 0, 64, 43
1, 336020, Note_off_c, 0, 82, 27
1, 336030, Control_c, 0, 64, 42
1, 336045, Control_c, 0, 64, 40
1, 336059, Control_c, 0, 64, 37
1, 336074, Control_c, 0, 64, 35
1, 336089, Control_c, 0, 64, 34
1, 336104, Control_c, 0, 64, 33
1, 336119, Control_c, 0, 64, 32
1, 336163, Control_c, 0, 64, 30
1, 336193, Control_c, 0, 64, 0
1, 336247, Note_on_c, 0, 58, 34
1, 336482, Note_off_c, 0, 77, 31
1, 336547, Note_on_c, 0, 53, 33
1, 336557, Note_off_c, 0, 50, 35
1, 336610, Note_off_c, 0, 58, 37
1, 336843, Note_on_c, 0, 58, 37
1, 337061, Note_off_c, 0, 53, 33
1, 337207, Note_on_c, 0, 79, 71
1, 337222, Note_on_c, 0, 51, 30
1, 337293, Note_off_c, 0, 58, 35
1, 337484, Control_c, 0, 64, 36
1, 337499, Control_c, 0, 64, 50
1, 337513, Control_c, 0, 64, 57
1, 337528, Control_c, 0, 64, 60
1, 337543, Control_c, 0, 64, 62
1, 337557, Control_c, 0, 64, 63
1, 337572, Control_c, 0, 64, 64
1, 337573, Note_on_c, 0, 55, 34
1, 337587, Control_c, 0, 64, 65
1, 337602, Control_c, 0, 64, 67
1, 337617, Control_c, 0, 64, 68
1, 337631, Control_c, 0, 64, 70
1, 337647, Control_c, 0, 64, 72
1, 337662, Control_c, 0, 64, 74
1, 337669, Note_off_c, 0, 51, 42
1, 337677, Control_c, 0, 64, 77
1, 337692, Control_c, 0, 64, 79
1, 337706, Control_c, 0, 64, 82
1, 337721, Control_c, 0, 64, 84
1, 337743, Control_c, 0, 64, 85
1, 337758, Control_c, 0, 64, 86
1, 337773, Control_c, 0, 64, 87
1, 337788, Control_c, 0, 64, 87
1, 337855, Note_on_c, 0, 51, 33
1, 337869, Note_off_c, 0, 79, 51
1, 337968, Note_off_c, 0, 55, 41
1, 338173, Note_on_c, 0, 80, 58
1, 338174, Control_c, 0, 64, 87
1, 338175, Note_on_c, 0, 59, 40
1, 338203, Control_c, 0, 64, 86
1, 338212, Note_off_c, 0, 51, 41
1, 338233, Control_c, 0, 64, 86
1, 338248, Control_c, 0, 64, 85
1, 338262, Control_c, 0, 64, 85
1, 338277, Control_c, 0, 64, 84
1, 338288, Note_on_c, 0, 79, 69
1, 338292, Control_c, 0, 64, 83
1, 338307, Control_c, 0, 64, 82
1, 338321, Control_c, 0, 64, 81
1, 338336, Control_c, 0, 64, 79
1, 338351, Control_c, 0, 64, 78
1, 338366, Control_c, 0, 64, 76
1, 338372, Note_off_c, 0, 80, 51
1, 338381, Control_c, 0, 64, 74
1, 338395, Control_c, 0, 64, 72
1, 338410, Control_c, 0, 64, 70
1, 338425, Control_c, 0, 64, 69
1, 338440, Control_c, 0, 64, 68
1, 338454, Control_c, 0, 64, 67
1, 338458, Note_on_c, 0, 51, 43
1, 338458, Note_on_c, 0, 77, 65
1, 338469, Control_c, 0, 64, 65
1, 338491, Control_c, 0, 64, 64
1, 338506, Control_c, 0, 64, 62
1, 338509, Note_off_c, 0, 59, 40
1, 338521, Control_c, 0, 64, 61
1, 338536, Control_c, 0, 64, 60
1, 338536, Note_off_c, 0, 79, 64
1, 338551, Control_c, 0, 64, 59
1, 338566, Control_c, 0, 64, 58
1, 338581, Control_c, 0, 64, 58
1, 338595, Control_c, 0, 64, 57
1, 338610, Control_c, 0, 64, 57
1, 338625, Control_c, 0, 64, 56
1, 338655, Control_c, 0, 64, 56
1, 338685, Control_c, 0, 64, 55
1, 338715, Control_c, 0, 64, 55
1, 338757, Note_on_c, 0, 75, 63
1, 338759, Control_c, 0, 64, 54
1, 338782, Note_on_c, 0, 60, 39
1, 338789, Control_c, 0, 64, 54
1, 338809, Note_off_c, 0, 77, 60
1, 338818, Control_c, 0, 64, 53
1, 338848, Control_c, 0, 64, 53
1, 338877, Control_c, 0, 64, 52
1, 338904, Note_off_c, 0, 51, 40
1, 338922, Control_c, 0, 64, 52
1, 338966, Control_c, 0, 64, 51
1, 338981, Control_c, 0, 64, 51
1, 338996, Control_c, 0, 64, 50
1, 339010, Control_c, 0, 64, 50
1, 339025, Control_c, 0, 64, 49
1, 339040, Control_c, 0, 64, 48
1, 339041, Note_on_c, 0, 51, 37
1, 339042, Note_on_c, 0, 74, 64
1, 339055, Control_c, 0, 64, 47
1, 339070, Control_c, 0, 64, 46
1, 339085, Control_c, 0, 64, 44
1, 339099, Control_c, 0, 64, 42
1, 339105, Note_off_c, 0, 75, 52
1, 339114, Control_c, 0, 64, 40
1, 339129, Control_c, 0, 64, 39
1, 339136, Note_off_c, 0, 60, 35
1, 339144, Control_c, 0, 64, 36
1, 339159, Control_c, 0, 64, 30
1, 339174, Control_c, 0, 64, 0
1, 339343, Note_on_c, 0, 63, 37
1, 339345, Note_on_c, 0, 72, 56
1, 339353, Note_off_c, 0, 74, 56
1, 339366, Note_off_c, 0, 51, 40
1, 339433, Control_c, 0, 64, 29
1, 339448, Control_c, 0, 64, 46
1, 339463, Control_c, 0, 64, 58
1, 339478, Control_c, 0, 64, 64
1, 339493, Control_c, 0, 64, 68
1, 339508, Control_c, 0, 64, 71
1, 339523, Control_c, 0, 64, 74
1, 339537, Note_off_c, 0, 63, 37
1, 339538, Control_c, 0, 64, 76
1, 339552, Control_c, 0, 64, 78
1, 339567, Control_c, 0, 64, 79
1, 339615, Note_off_c, 0, 72, 25
1, 339641, Control_c, 0, 64, 78
1, 339656, Control_c, 0, 64, 78
1, 339671, Control_c, 0, 64, 76
1, 339686, Control_c, 0, 64, 74
1, 339700, Control_c, 0, 64, 71
1, 339715, Control_c, 0, 64, 69
1, 339716, Note_on_c, 0, 76, 56
1, 339722, Note_on_c, 0, 50, 35
1, 339730, Control_c, 0, 64, 68
1, 339745, Control_c, 0, 64, 66
1, 339759, Control_c, 0, 64, 64
1, 339774, Control_c, 0, 64, 63
1, 339789, Control_c, 0, 64, 61
1, 339804, Control_c, 0, 64, 59
1, 339819, Control_c, 0, 64, 57
1, 339833, Control_c, 0, 64, 56
1, 339848, Control_c, 0, 64, 55
1, 339863, Control_c, 0, 64, 54
1, 339877, Control_c, 0, 64, 53
1, 339893, Control_c, 0, 64, 53
1, 339908, Control_c, 0, 64, 52
1, 339923, Control_c, 0, 64, 52
1, 339938, Control_c, 0, 64, 51
1, 339952, Control_c, 0, 64, 51
1, 339967, Control_c, 0, 64, 50
1, 339990, Control_c, 0, 64, 50
1, 340005, Control_c, 0, 64, 49
1, 340020, Control_c, 0, 64, 49
1, 340034, Control_c, 0, 64, 48
1, 340042, Note_on_c, 0, 53, 29
1, 340049, Note_on_c, 0, 77, 51
1, 340049, Control_c, 0, 64, 47
1, 340064, Control_c, 0, 64, 46
1, 340076, Note_off_c, 0, 50, 40
1, 340079, Control_c, 0, 64, 45
1, 340093, Control_c, 0, 64, 41
1, 340108, Control_c, 0, 64, 34
1, 340123, Control_c, 0, 64, 0
1, 340147, Note_off_c, 0, 76, 51
1, 340302, Control_c, 0, 64, 37
1, 340317, Control_c, 0, 64, 46
1, 340331, Control_c, 0, 64, 53
1, 340337, Note_on_c, 0, 50, 33
1, 340346, Control_c, 0, 64, 57
1, 340361, Control_c, 0, 64, 59
1, 340375, Control_c, 0, 64, 61
1, 340390, Control_c, 0, 64, 62
1, 340405, Control_c, 0, 64, 63
1, 340420, Control_c, 0, 64, 65
1, 340435, Control_c, 0, 64, 67
1, 340450, Control_c, 0, 64, 70
1, 340457, Note_off_c, 0, 53, 37
1, 340465, Control_c, 0, 64, 71
1, 340468, Note_off_c, 0, 77, 35
1, 340480, Control_c, 0, 64, 72
1, 340613, Control_c, 0, 64, 71
1, 340628, Note_on_c, 0, 57, 43
1, 340629, Note_on_c, 0, 79, 57
1, 340643, Control_c, 0, 64, 71
1, 340672, Control_c, 0, 64, 70
1, 340701, Control_c, 0, 64, 70
1, 340702, Note_off_c, 0, 50, 22
1, 340716, Control_c, 0, 64, 69
1, 340739, Control_c, 0, 64, 69
1, 340754, Control_c, 0, 64, 68
1, 340760, Note_on_c, 0, 77, 61
1, 340769, Control_c, 0, 64, 67
1, 340783, Control_c, 0, 64, 66
1, 340798, Control_c, 0, 64, 65
1, 340813, Control_c, 0, 64, 64
1, 340828, Control_c, 0, 64, 62
1, 340843, Control_c, 0, 64, 61
1, 340857, Control_c, 0, 64, 60
1, 340869, Note_off_c, 0, 79, 47
1, 340872, Control_c, 0, 64, 59
1, 340887, Control_c, 0, 64, 58
1, 340901, Control_c, 0, 64, 56
1, 340916, Control_c, 0, 64, 55
1, 340929, Note_on_c, 0, 75, 63
1, 340931, Control_c, 0, 64, 54
1, 340938, Note_on_c, 0, 50, 38
1, 340946, Control_c, 0, 64, 54
1, 340961, Control_c, 0, 64, 53
1, 340976, Control_c, 0, 64, 52
1, 340990, Control_c, 0, 64, 51
1, 340994, Note_off_c, 0, 57, 43
1, 341005, Control_c, 0, 64, 51
1, 341016, Note_off_c, 0, 77, 50
1, 341020, Control_c, 0, 64, 50
1, 341035, Control_c, 0, 64, 50
1, 341080, Control_c, 0, 64, 49
1, 341095, Control_c, 0, 64, 49
1, 341125, Control_c, 0, 64, 48
1, 341154, Control_c, 0, 64, 48
1, 341169, Control_c, 0, 64, 47
1, 341213, Control_c, 0, 64, 47
1, 341233, Note_on_c, 0, 74, 65
1, 341237, Note_on_c, 0, 58, 42
1, 341273, Control_c, 0, 64, 46
1, 341302, Note_off_c, 0, 75, 50
1, 341326, Note_off_c, 0, 50, 38
1, 341451, Control_c, 0, 64, 46
1, 341487, Control_c, 0, 64, 45
1, 341517, Control_c, 0, 64, 45
1, 341530, Note_on_c, 0, 72, 52
1, 341538, Note_on_c, 0, 50, 35
1, 341547, Control_c, 0, 64, 44
1, 341548, Note_off_c, 0, 74, 58
1, 341577, Control_c, 0, 64, 44
1, 341580, Note_off_c, 0, 58, 36
1, 341621, Control_c, 0, 64, 43
1, 341636, Control_c, 0, 64, 42
1, 341650, Control_c, 0, 64, 40
1, 341665, Control_c, 0, 64, 36
1, 341680, Control_c, 0, 64, 29
1, 341695, Control_c, 0, 64, 0
1, 341797, Note_on_c, 0, 70, 53
1, 341805, Note_off_c, 0, 72, 57
1, 341828, Note_on_c, 0, 62, 29
1, 341842, Note_off_c, 0, 50, 42
1, 341874, Control_c, 0, 64, 33
1, 341889, Control_c, 0, 64, 52
1, 341903, Control_c, 0, 64, 61
1, 341907, Note_off_c, 0, 62, 51
1, 341918, Control_c, 0, 64, 65
1, 341933, Control_c, 0, 64, 69
1, 341934, Note_off_c, 0, 70, 62
1, 341948, Control_c, 0, 64, 72
1, 341962, Control_c, 0, 64, 75
1, 341977, Control_c, 0, 64, 78
1, 341992, Control_c, 0, 64, 78
1, 342066, Control_c, 0, 64, 78
1, 342080, Control_c, 0, 64, 77
1, 342095, Control_c, 0, 64, 75
1, 342110, Control_c, 0, 64, 72
1, 342125, Control_c, 0, 64, 70
1, 342140, Note_on_c, 0, 77, 61
1, 342140, Control_c, 0, 64, 67
1, 342150, Note_on_c, 0, 57, 31
1, 342155, Control_c, 0, 64, 65
1, 342170, Control_c, 0, 64, 63
1, 342185, Control_c, 0, 64, 62
1, 342200, Control_c, 0, 64, 60
1, 342215, Control_c, 0, 64, 58
1, 342236, Control_c, 0, 64, 56
1, 342251, Control_c, 0, 64, 55
1, 342266, Control_c, 0, 64, 53
1, 342280, Control_c, 0, 64, 52
1, 342295, Control_c, 0, 64, 51
1, 342310, Control_c, 0, 64, 49
1, 342325, Control_c, 0, 64, 47
1, 342340, Control_c, 0, 64, 46
1, 342355, Control_c, 0, 64, 44
1, 342370, Control_c, 0, 64, 43
1, 342384, Control_c, 0, 64, 42
1, 342399, Control_c, 0, 64, 42
1, 342414, Control_c, 0, 64, 41
1, 342429, Control_c, 0, 64, 40
1, 342444, Control_c, 0, 64, 38
1, 342459, Control_c, 0, 64, 35
1, 342473, Control_c, 0, 64, 33
1, 342488, Control_c, 0, 64, 32
1, 342489, Note_on_c, 0, 75, 49
1, 342498, Note_on_c, 0, 65, 33
1, 342518, Control_c, 0, 64, 0
1, 342584, Note_off_c, 0, 77, 53
1, 342766, Note_on_c, 0, 60, 36
1, 342800, Control_c, 0, 64, 34
1, 342815, Control_c, 0, 64, 47
1, 342830, Control_c, 0, 64, 56
1, 342845, Control_c, 0, 64, 61
1, 342859, Control_c, 0, 64, 63
1, 342863, Note_off_c, 0, 65, 42
1, 342874, Control_c, 0, 64, 65
1, 342889, Control_c, 0, 64, 68
1, 342903, Control_c, 0, 64, 71
1, 342918, Control_c, 0, 64, 74
1, 342933, Control_c, 0, 64, 77
1, 342948, Control_c, 0, 64, 79
1, 342963, Control_c, 0, 64, 80
1, 343052, Note_on_c, 0, 72, 61
1, 343073, Note_off_c, 0, 57, 23
1, 343075, Note_on_c, 0, 65, 30
1, 343089, Control_c, 0, 64, 79
1, 343094, Note_off_c, 0, 75, 16
1, 343118, Control_c, 0, 64, 78
1, 343124, Note_off_c, 0, 60, 43
1, 343133, Control_c, 0, 64, 78
1, 343148, Control_c, 0, 64, 77
1, 343163, Control_c, 0, 64, 75
1, 343177, Control_c, 0, 64, 74
1, 343192, Control_c, 0, 64, 72
1, 343207, Control_c, 0, 64, 69
1, 343222, Control_c, 0, 64, 67
1, 343237, Control_c, 0, 64, 65
1, 343252, Control_c, 0, 64, 64
1, 343267, Control_c, 0, 64, 62
1, 343282, Control_c, 0, 64, 59
1, 343296, Control_c, 0, 64, 57
1, 343303, Note_off_c, 0, 65, 34
1, 343311, Control_c, 0, 64, 56
1, 343326, Control_c, 0, 64, 55
1, 343341, Control_c, 0, 64, 54
1, 343356, Note_on_c, 0, 75, 60
1, 343356, Control_c, 0, 64, 53
1, 343370, Note_on_c, 0, 58, 31
1, 343370, Control_c, 0, 64, 52
1, 343385, Control_c, 0, 64, 50
1, 343400, Control_c, 0, 64, 47
1, 343415, Control_c, 0, 64, 44
1, 343429, Control_c, 0, 64, 41
1, 343438, Note_off_c, 0, 72, 52
1, 343446, Control_c, 0, 64, 37
1, 343461, Control_c, 0, 64, 32
1, 343475, Control_c, 0, 64, 0
1, 343698, Note_on_c, 0, 74, 48
1, 343714, Note_on_c, 0, 65, 26
1, 343760, Note_off_c, 0, 75, 55
1, 343882, Control_c, 0, 64, 34
1, 343897, Control_c, 0, 64, 42
1, 343912, Control_c, 0, 64, 48
1, 343926, Control_c, 0, 64, 53
1, 343941, Control_c, 0, 64, 56
1, 343956, Control_c, 0, 64, 57
1, 343971, Control_c, 0, 64, 56
1, 343977, Note_on_c, 0, 62, 28
1, 343986, Control_c, 0, 64, 53
1, 344000, Control_c, 0, 64, 48
1, 344015, Control_c, 0, 64, 41
1, 344030, Control_c, 0, 64, 37
1, 344046, Note_off_c, 0, 65, 39
1, 344060, Control_c, 0, 64, 41
1, 344075, Control_c, 0, 64, 47
1, 344090, Control_c, 0, 64, 53
1, 344104, Control_c, 0, 64, 57
1, 344119, Control_c, 0, 64, 59
1, 344134, Control_c, 0, 64, 61
1, 344149, Control_c, 0, 64, 63
1, 344164, Control_c, 0, 64, 64
1, 344179, Control_c, 0, 64, 66
1, 344194, Control_c, 0, 64, 67
1, 344208, Control_c, 0, 64, 68
1, 344223, Control_c, 0, 64, 70
1, 344238, Control_c, 0, 64, 71
1, 344239, Note_off_c, 0, 58, 33
1, 344253, Control_c, 0, 64, 73
1, 344255, Note_on_c, 0, 70, 50
1, 344262, Note_off_c, 0, 62, 41
1, 344262, Note_off_c, 0, 74, 36
1, 344268, Control_c, 0, 64, 74
1, 344276, Note_on_c, 0, 65, 36
1, 344283, Control_c, 0, 64, 75
1, 344298, Control_c, 0, 64, 77
1, 344313, Control_c, 0, 64, 78
1, 344328, Control_c, 0, 64, 79
1, 344342, Control_c, 0, 64, 80
1, 344372, Control_c, 0, 64, 80
1, 344373, Note_off_c, 0, 65, 39
1, 344483, Control_c, 0, 64, 80
1, 344513, Control_c, 0, 64, 79
1, 344515, Note_off_c, 0, 70, 38
1, 344528, Control_c, 0, 64, 78
1, 344543, Control_c, 0, 64, 77
1, 344557, Control_c, 0, 64, 75
1, 344572, Control_c, 0, 64, 75
1, 344587, Control_c, 0, 64, 73
1, 344602, Control_c, 0, 64, 72
1, 344604, Note_on_c, 0, 53, 37
1, 344610, Note_on_c, 0, 74, 57
1, 344617, Control_c, 0, 64, 70
1, 344631, Control_c, 0, 64, 68
1, 344646, Control_c, 0, 64, 65
1, 344661, Control_c, 0, 64, 62
1, 344675, Control_c, 0, 64, 58
1, 344690, Control_c, 0, 64, 54
1, 344705, Control_c, 0, 64, 51
1, 344720, Control_c, 0, 64, 49
1, 344735, Control_c, 0, 64, 47
1, 344749, Control_c, 0, 64, 45
1, 344764, Control_c, 0, 64, 44
1, 344779, Control_c, 0, 64, 40
1, 344794, Control_c, 0, 64, 36
1, 344808, Control_c, 0, 64, 29
1, 344823, Control_c, 0, 64, 0
1, 344934, Note_on_c, 0, 62, 34
1, 344972, Control_c, 0, 64, 35
1, 344987, Control_c, 0, 64, 43
1, 345001, Control_c, 0, 64, 49
1, 345016, Control_c, 0, 64, 53
1, 345031, Control_c, 0, 64, 57
1, 345046, Control_c, 0, 64, 59
1, 345061, Control_c, 0, 64, 60
1, 345076, Control_c, 0, 64, 61
1, 345091, Control_c, 0, 64, 62
1, 345106, Control_c, 0, 64, 63
1, 345121, Control_c, 0, 64, 64
1, 345136, Control_c, 0, 64, 65
1, 345151, Control_c, 0, 64, 66
1, 345166, Control_c, 0, 64, 67
1, 345181, Control_c, 0, 64, 68
1, 345195, Control_c, 0, 64, 68
1, 345210, Control_c, 0, 64, 69
1, 345225, Note_on_c, 0, 58, 35
1, 345233, Control_c, 0, 64, 69
1, 345247, Control_c, 0, 64, 70
1, 345249, Note_off_c, 0, 62, 35
1, 345277, Note_off_c, 0, 74, 36
1, 345277, Control_c, 0, 64, 70
1, 345357, Note_off_c, 0, 53, 34
1, 345470, Control_c, 0, 64, 70
1, 345517, Note_on_c, 0, 75, 49
1, 345531, Note_on_c, 0, 62, 26
1, 345542, Note_off_c, 0, 58, 35
1, 345544, Control_c, 0, 64, 69
1, 345573, Control_c, 0, 64, 69
1, 345603, Control_c, 0, 64, 68
1, 345617, Control_c, 0, 64, 68
1, 345632, Control_c, 0, 64, 67
1, 345643, Note_on_c, 0, 74, 60
1, 345647, Control_c, 0, 64, 67
1, 345662, Control_c, 0, 64, 66
1, 345677, Control_c, 0, 64, 66
1, 345691, Control_c, 0, 64, 65
1, 345699, Note_off_c, 0, 62, 39
1, 345706, Control_c, 0, 64, 64
1, 345712, Note_off_c, 0, 75, 55
1, 345721, Control_c, 0, 64, 62
1, 345736, Control_c, 0, 64, 61
1, 345751, Control_c, 0, 64, 59
1, 345766, Control_c, 0, 64, 57
1, 345780, Control_c, 0, 64, 53
1, 345795, Control_c, 0, 64, 50
1, 345810, Control_c, 0, 64, 45
1, 345824, Control_c, 0, 64, 39
1, 345832, Note_on_c, 0, 72, 61
1, 345840, Control_c, 0, 64, 33
1, 345850, Note_on_c, 0, 60, 25
1, 345855, Control_c, 0, 64, 0
1, 345862, Note_on_c, 0, 57, 15
1, 345865, Note_on_c, 0, 53, 22
1, 345880, Note_off_c, 0, 74, 58
1, 345928, Control_c, 0, 64, 32
1, 345943, Control_c, 0, 64, 38
1, 345958, Control_c, 0, 64, 45
1, 345980, Control_c, 0, 64, 53
1, 345994, Control_c, 0, 64, 59
1, 346009, Control_c, 0, 64, 62
1, 346017, Note_off_c, 0, 72, 58
1, 346024, Control_c, 0, 64, 64
1, 346039, Control_c, 0, 64, 66
1, 346054, Control_c, 0, 64, 67
1, 346128, Control_c, 0, 64, 66
1, 346143, Control_c, 0, 64, 65
1, 346158, Control_c, 0, 64, 64
1, 346173, Control_c, 0, 64, 61
1, 346187, Note_on_c, 0, 77, 57
1, 346188, Control_c, 0, 64, 58
1, 346202, Control_c, 0, 64, 54
1, 346217, Control_c, 0, 64, 52
1, 346232, Control_c, 0, 64, 51
1, 346246, Control_c, 0, 64, 49
1, 346261, Control_c, 0, 64, 48
1, 346276, Control_c, 0, 64, 46
1, 346291, Control_c, 0, 64, 43
1, 346306, Control_c, 0, 64, 40
1, 346320, Control_c, 0, 64, 38
1, 346335, Control_c, 0, 64, 36
1, 346350, Control_c, 0, 64, 34
1, 346365, Control_c, 0, 64, 33
1, 346394, Control_c, 0, 64, 31
1, 346438, Note_off_c, 0, 53, 42
1, 346453, Control_c, 0, 64, 29
1, 346453, Control_c, 0, 67, 19
1, 346483, Note_off_c, 0, 57, 41
1, 346483, Control_c, 0, 64, 0
1, 346491, Note_off_c, 0, 60, 43
1, 346498, Control_c, 0, 67, 21
1, 346525, Note_on_c, 0, 75, 43
1, 346543, Control_c, 0, 67, 24
1, 346558, Control_c, 0, 67, 27
1, 346572, Control_c, 0, 67, 31
1, 346587, Control_c, 0, 67, 35
1, 346602, Control_c, 0, 67, 42
1, 346617, Control_c, 0, 67, 48
1, 346632, Control_c, 0, 67, 55
1, 346636, Note_off_c, 0, 77, 38
1, 346647, Control_c, 0, 67, 65
1, 346662, Control_c, 0, 67, 74
1, 346677, Control_c, 0, 67, 82
1, 346692, Control_c, 0, 67, 90
1, 346707, Control_c, 0, 67, 97
1, 346729, Control_c, 0, 67, 103
1, 346744, Control_c, 0, 67, 107
1, 346758, Control_c, 0, 67, 110
1, 346880, Note_on_c, 0, 72, 40
1, 346937, Note_off_c, 0, 75, 37
1, 346981, Control_c, 0, 64, 34
1, 346995, Control_c, 0, 64, 47
1, 347010, Control_c, 0, 64, 56
1, 347025, Control_c, 0, 64, 61
1, 347040, Control_c, 0, 64, 63
1, 347055, Control_c, 0, 64, 65
1, 347069, Control_c, 0, 64, 68
1, 347082, Note_off_c, 0, 72, 53
1, 347084, Control_c, 0, 64, 71
1, 347099, Control_c, 0, 64, 73
1, 347114, Control_c, 0, 64, 75
1, 347129, Control_c, 0, 64, 76
1, 347217, Control_c, 0, 64, 75
1, 347232, Control_c, 0, 64, 74
1, 347247, Control_c, 0, 64, 72
1, 347258, Note_on_c, 0, 70, 52
1, 347261, Control_c, 0, 64, 68
1, 347276, Note_on_c, 0, 58, 36
1, 347276, Control_c, 0, 64, 65
1, 347291, Control_c, 0, 64, 60
1, 347306, Control_c, 0, 64, 54
1, 347321, Control_c, 0, 64, 48
1, 347336, Control_c, 0, 64, 45
1, 347351, Control_c, 0, 64, 44
1, 347366, Control_c, 0, 64, 46
1, 347381, Control_c, 0, 64, 49
1, 347395, Control_c, 0, 64, 54
1, 347410, Control_c, 0, 64, 59
1, 347425, Control_c, 0, 64, 62
1, 347441, Control_c, 0, 64, 64
1, 347456, Control_c, 0, 64, 67
1, 347479, Control_c, 0, 64, 69
1, 347494, Control_c, 0, 64, 70
1, 347508, Control_c, 0, 64, 72
1, 347512, Note_off_c, 0, 70, 34
1, 347523, Control_c, 0, 64, 73
1, 347538, Control_c, 0, 64, 75
1, 347568, Control_c, 0, 64, 75
1, 347696, Note_on_c, 0, 65, 33
1, 347810, Note_on_c, 0, 72, 44
1, 347834, Control_c, 0, 64, 75
1, 347863, Control_c, 0, 64, 74
1, 347881, Note_on_c, 0, 70, 49
1, 347891, Note_off_c, 0, 72, 57
1, 347893, Control_c, 0, 64, 74
1, 347908, Control_c, 0, 64, 73
1, 347917, Note_off_c, 0, 70, 65
1, 347923, Control_c, 0, 64, 72
1, 347937, Note_on_c, 0, 69, 46
1, 347938, Control_c, 0, 64, 71
1, 347953, Control_c, 0, 64, 68
1, 347967, Control_c, 0, 64, 64
1, 347982, Control_c, 0, 64, 59
1, 347997, Control_c, 0, 64, 54
1, 347997, Note_on_c, 0, 61, 39
1, 348006, Note_on_c, 0, 70, 57
1, 348011, Control_c, 0, 64, 49
1, 348026, Control_c, 0, 64, 47
1, 348027, Note_off_c, 0, 65, 21
1, 348041, Note_off_c, 0, 69, 36
1, 348041, Control_c, 0, 64, 46
1, 348056, Control_c, 0, 64, 47
1, 348071, Control_c, 0, 64, 48
1, 348085, Control_c, 0, 64, 50
1, 348100, Control_c, 0, 64, 53
1, 348115, Control_c, 0, 64, 56
1, 348130, Control_c, 0, 64, 58
1, 348145, Control_c, 0, 64, 59
1, 348159, Control_c, 0, 64, 60
1, 348174, Control_c, 0, 64, 61
1, 348242, Control_c, 0, 64, 60
1, 348257, Control_c, 0, 64, 58
1, 348272, Control_c, 0, 64, 53
1, 348287, Control_c, 0, 64, 49
1, 348302, Control_c, 0, 64, 46
1, 348302, Note_on_c, 0, 72, 62
1, 348316, Note_on_c, 0, 65, 38
1, 348316, Control_c, 0, 64, 44
1, 348331, Control_c, 0, 64, 42
1, 348346, Control_c, 0, 64, 42
1, 348376, Control_c, 0, 64, 43
1, 348386, Note_off_c, 0, 61, 25
1, 348391, Control_c, 0, 64, 45
1, 348393, Note_off_c, 0, 70, 63
1, 348405, Control_c, 0, 64, 49
1, 348420, Control_c, 0, 64, 53
1, 348435, Control_c, 0, 64, 56
1, 348442, Note_off_c, 0, 58, 39
1, 348449, Control_c, 0, 64, 59
1, 348464, Control_c, 0, 64, 61
1, 348479, Control_c, 0, 64, 63
1, 348494, Control_c, 0, 64, 64
1, 348509, Control_c, 0, 64, 65
1, 348544, Note_off_c, 0, 65, 39
1, 348567, Control_c, 0, 64, 65
1, 348582, Control_c, 0, 64, 64
1, 348597, Control_c, 0, 64, 63
1, 348612, Control_c, 0, 64, 59
1, 348615, Note_on_c, 0, 73, 58
1, 348627, Control_c, 0, 64, 53
1, 348640, Note_on_c, 0, 58, 40
1, 348641, Control_c, 0, 64, 47
1, 348647, Note_off_c, 0, 72, 55
1, 348656, Control_c, 0, 64, 42
1, 348671, Control_c, 0, 64, 37
1, 348686, Control_c, 0, 64, 35
1, 348716, Control_c, 0, 64, 37
1, 348731, Control_c, 0, 64, 42
1, 348746, Control_c, 0, 64, 49
1, 348760, Control_c, 0, 64, 55
1, 348775, Control_c, 0, 64, 60
1, 348790, Control_c, 0, 64, 62
1, 348805, Control_c, 0, 64, 65
1, 348820, Control_c, 0, 64, 68
1, 348832, Note_off_c, 0, 73, 52
1, 348835, Control_c, 0, 64, 71
1, 348849, Control_c, 0, 64, 73
1, 348864, Control_c, 0, 64, 75
1, 348878, Control_c, 0, 64, 75
1, 348963, Note_on_c, 0, 65, 39
1, 349004, Control_c, 0, 64, 75
1, 349019, Control_c, 0, 64, 74
1, 349044, Note_on_c, 0, 75, 49
1, 349050, Control_c, 0, 64, 74
1, 349079, Control_c, 0, 64, 73
1, 349094, Control_c, 0, 64, 72
1, 349109, Control_c, 0, 64, 72
1, 349112, Note_on_c, 0, 73, 54
1, 349124, Control_c, 0, 64, 71
1, 349127, Note_off_c, 0, 75, 59
1, 349138, Control_c, 0, 64, 71
1, 349143, Note_off_c, 0, 73, 65
1, 349151, Note_on_c, 0, 72, 63
1, 349153, Control_c, 0, 64, 70
1, 349168, Control_c, 0, 64, 69
1, 349183, Control_c, 0, 64, 68
1, 349197, Control_c, 0, 64, 66
1, 349212, Control_c, 0, 64, 64
1, 349223, Note_on_c, 0, 73, 69
1, 349227, Control_c, 0, 64, 62
1, 349236, Note_off_c, 0, 65, 27
1, 349241, Note_on_c, 0, 61, 43
1, 349242, Control_c, 0, 64, 59
1, 349257, Control_c, 0, 64, 56
1, 349266, Note_off_c, 0, 72, 47
1, 349271, Control_c, 0, 64, 53
1, 349286, Control_c, 0, 64, 50
1, 349301, Control_c, 0, 64, 46
1, 349316, Control_c, 0, 64, 42
1, 349331, Control_c, 0, 64, 37
1, 349345, Control_c, 0, 64, 33
1, 349360, Control_c, 0, 64, 30
1, 349375, Control_c, 0, 64, 0
1, 349506, Note_on_c, 0, 75, 69
1, 349530, Note_on_c, 0, 65, 36
1, 349625, Note_off_c, 0, 73, 58
1, 349627, Control_c, 0, 64, 31
1, 349642, Control_c, 0, 64, 39
1, 349646, Note_off_c, 0, 61, 42
1, 349657, Control_c, 0, 64, 44
1, 349671, Control_c, 0, 64, 44
1, 349701, Control_c, 0, 64, 44
1, 349738, Control_c, 0, 64, 43
1, 349753, Control_c, 0, 64, 43
1, 349768, Control_c, 0, 64, 42
1, 349783, Control_c, 0, 64, 41
1, 349797, Control_c, 0, 64, 40
1, 349812, Control_c, 0, 64, 40
1, 349825, Note_off_c, 0, 65, 35
1, 349827, Control_c, 0, 64, 39
1, 349843, Control_c, 0, 64, 39
1, 349858, Control_c, 0, 64, 38
1, 349872, Control_c, 0, 64, 37
1, 349887, Control_c, 0, 64, 37
1, 349897, Note_on_c, 0, 76, 68
1, 349902, Control_c, 0, 64, 36
1, 349904, Note_on_c, 0, 56, 38
1, 349917, Control_c, 0, 64, 36
1, 349932, Control_c, 0, 64, 35
1, 349947, Control_c, 0, 64, 34
1, 349961, Control_c, 0, 64, 33
1, 349976, Control_c, 0, 64, 32
1, 349989, Note_off_c, 0, 58, 37
1, 350035, Control_c, 0, 64, 30
1, 350132, Note_off_c, 0, 75, 25
1, 350269, Note_on_c, 0, 65, 23
1, 350302, Control_c, 0, 64, 32
1, 350317, Control_c, 0, 64, 34
1, 350331, Control_c, 0, 64, 37
1, 350346, Control_c, 0, 64, 42
1, 350361, Control_c, 0, 64, 48
1, 350376, Control_c, 0, 64, 52
1, 350391, Control_c, 0, 64, 55
1, 350406, Control_c, 0, 64, 58
1, 350421, Control_c, 0, 64, 60
1, 350436, Control_c, 0, 64, 61
1, 350451, Control_c, 0, 64, 62
1, 350473, Control_c, 0, 64, 63
1, 350488, Control_c, 0, 64, 64
1, 350502, Control_c, 0, 64, 65
1, 350517, Control_c, 0, 64, 66
1, 350532, Control_c, 0, 64, 66
1, 350546, Control_c, 0, 64, 67
1, 350555, Note_on_c, 0, 60, 31
1, 350576, Control_c, 0, 64, 68
1, 350621, Control_c, 0, 64, 68
1, 350622, Note_off_c, 0, 65, 39
1, 350665, Note_off_c, 0, 56, 35
1, 350800, Control_c, 0, 64, 68
1, 350836, Note_on_c, 0, 77, 49
1, 350844, Control_c, 0, 64, 67
1, 350850, Note_on_c, 0, 65, 29
1, 350859, Control_c, 0, 64, 67
1, 350878, Note_off_c, 0, 76, 57
1, 350889, Control_c, 0, 64, 66
1, 350904, Control_c, 0, 64, 66
1, 350914, Note_off_c, 0, 60, 45
1, 350918, Control_c, 0, 64, 65
1, 350933, Control_c, 0, 64, 64
1, 350948, Control_c, 0, 64, 64
1, 350948, Control_c, 0, 67, 108
1, 350962, Control_c, 0, 64, 63
1, 350977, Control_c, 0, 64, 62
1, 350992, Control_c, 0, 64, 61
1, 351007, Control_c, 0, 64, 61
1, 351022, Control_c, 0, 64, 60
1, 351036, Control_c, 0, 64, 59
1, 351051, Control_c, 0, 64, 58
1, 351066, Control_c, 0, 64, 57
1, 351081, Control_c, 0, 64, 56
1, 351096, Control_c, 0, 64, 56
1, 351110, Control_c, 0, 64, 55
1, 351110, Control_c, 0, 67, 106
1, 351125, Control_c, 0, 64, 54
1, 351140, Control_c, 0, 64, 54
1, 351148, Note_on_c, 0, 72, 45
1, 351154, Control_c, 0, 64, 52
1, 351157, Note_on_c, 0, 56, 35
1, 351169, Control_c, 0, 64, 52
1, 351184, Control_c, 0, 64, 51
1, 351199, Control_c, 0, 64, 50
1, 351217, Note_off_c, 0, 65, 41
1, 351222, Control_c, 0, 64, 49
1, 351222, Control_c, 0, 67, 104
1, 351236, Control_c, 0, 64, 49
1, 351251, Control_c, 0, 64, 48
1, 351253, Note_off_c, 0, 77, 32
1, 351266, Control_c, 0, 64, 47
1, 351281, Control_c, 0, 64, 47
1, 351296, Control_c, 0, 64, 46
1, 351296, Control_c, 0, 67, 102
1, 351399, Control_c, 0, 64, 46
1, 351414, Control_c, 0, 67, 100
1, 351452, Note_on_c, 0, 65, 34
1, 351519, Control_c, 0, 64, 46
1, 351533, Control_c, 0, 64, 47
1, 351548, Control_c, 0, 64, 49
1, 351563, Control_c, 0, 64, 52
1, 351578, Control_c, 0, 64, 54
1, 351578, Control_c, 0, 67, 98
1, 351592, Control_c, 0, 64, 55
1, 351637, Control_c, 0, 64, 55
1, 351652, Control_c, 0, 67, 96
1, 351667, Control_c, 0, 67, 94
1, 351682, Control_c, 0, 67, 89
1, 351697, Control_c, 0, 67, 85
1, 351712, Control_c, 0, 67, 82
1, 351727, Control_c, 0, 67, 79
1, 351734, Note_on_c, 0, 60, 43
1, 351741, Control_c, 0, 67, 75
1, 351756, Control_c, 0, 64, 55
1, 351756, Control_c, 0, 67, 72
1, 351771, Control_c, 0, 67, 69
1, 351785, Control_c, 0, 67, 67
1, 351795, Note_off_c, 0, 65, 41
1, 351800, Control_c, 0, 64, 54
1, 351800, Control_c, 0, 67, 64
1, 351815, Control_c, 0, 67, 60
1, 351830, Control_c, 0, 64, 54
1, 351830, Control_c, 0, 67, 56
1, 351837, Note_off_c, 0, 72, 30
1, 351845, Control_c, 0, 64, 53
1, 351845, Control_c, 0, 67, 52
1, 351859, Control_c, 0, 64, 53
1, 351859, Control_c, 0, 67, 47
1, 351874, Control_c, 0, 67, 43
1, 351889, Control_c, 0, 64, 52
1, 351889, Control_c, 0, 67, 38
1, 351904, Control_c, 0, 67, 33
1, 351919, Control_c, 0, 64, 52
1, 351919, Control_c, 0, 67, 28
1, 351933, Control_c, 0, 67, 22
1, 351948, Control_c, 0, 67, 0
1, 351985, Control_c, 0, 64, 51
1, 352027, Note_on_c, 0, 65, 49
1, 352099, Note_off_c, 0, 56, 41
1, 352174, Note_off_c, 0, 60, 55
1, 352207, Control_c, 0, 64, 51
1, 352253, Control_c, 0, 64, 50
1, 352268, Control_c, 0, 64, 50
1, 352283, Control_c, 0, 64, 49
1, 352297, Control_c, 0, 64, 48
1, 352312, Control_c, 0, 64, 47
1, 352324, Note_off_c, 0, 65, 36
1, 352327, Control_c, 0, 64, 46
1, 352332, Note_on_c, 0, 75, 66
1, 352342, Control_c, 0, 64, 45
1, 352345, Note_on_c, 0, 54, 44
1, 352357, Control_c, 0, 64, 44
1, 352401, Control_c, 0, 64, 45
1, 352415, Control_c, 0, 64, 46
1, 352430, Control_c, 0, 64, 49
1, 352445, Control_c, 0, 64, 53
1, 352460, Control_c, 0, 64, 57
1, 352475, Control_c, 0, 64, 60
1, 352490, Control_c, 0, 64, 63
1, 352505, Control_c, 0, 64, 66
1, 352520, Control_c, 0, 64, 69
1, 352534, Control_c, 0, 64, 72
1, 352549, Control_c, 0, 64, 75
1, 352564, Control_c, 0, 64, 78
1, 352579, Control_c, 0, 64, 81
1, 352594, Control_c, 0, 64, 84
1, 352598, Note_off_c, 0, 75, 58
1, 352608, Control_c, 0, 64, 86
1, 352623, Control_c, 0, 64, 87
1, 352673, Note_on_c, 0, 63, 46
1, 352764, Note_on_c, 0, 77, 58
1, 352808, Control_c, 0, 64, 86
1, 352818, Note_on_c, 0, 75, 63
1, 352823, Control_c, 0, 64, 86
1, 352829, Note_off_c, 0, 77, 62
1, 352838, Control_c, 0, 64, 84
1, 352851, Note_off_c, 0, 75, 65
1, 352853, Control_c, 0, 64, 82
1, 352858, Note_on_c, 0, 74, 70
1, 352868, Control_c, 0, 64, 79
1, 352882, Control_c, 0, 64, 74
1, 352897, Control_c, 0, 64, 67
1, 352912, Control_c, 0, 64, 61
1, 352927, Control_c, 0, 64, 53
1, 352930, Note_on_c, 0, 75, 75
1, 352937, Note_on_c, 0, 58, 48
1, 352941, Control_c, 0, 64, 47
1, 352949, Note_off_c, 0, 63, 35
1, 352955, Note_off_c, 0, 74, 59
1, 352956, Control_c, 0, 64, 45
1, 352971, Control_c, 0, 64, 45
1, 352986, Control_c, 0, 64, 48
1, 353001, Control_c, 0, 64, 52
1, 353015, Control_c, 0, 64, 56
1, 353031, Control_c, 0, 64, 60
1, 353046, Control_c, 0, 64, 63
1, 353061, Control_c, 0, 64, 67
1, 353076, Control_c, 0, 64, 70
1, 353091, Control_c, 0, 64, 72
1, 353106, Control_c, 0, 64, 73
1, 353120, Control_c, 0, 64, 74
1, 353150, Control_c, 0, 64, 71
1, 353164, Control_c, 0, 64, 67
1, 353179, Control_c, 0, 64, 65
1, 353192, Note_on_c, 0, 77, 76
1, 353194, Control_c, 0, 64, 64
1, 353199, Note_on_c, 0, 63, 53
1, 353205, Note_off_c, 0, 58, 61
1, 353238, Control_c, 0, 64, 65
1, 353253, Note_off_c, 0, 75, 62
1, 353253, Control_c, 0, 64, 67
1, 353268, Control_c, 0, 64, 70
1, 353277, Note_off_c, 0, 54, 58
1, 353283, Control_c, 0, 64, 72
1, 353298, Control_c, 0, 64, 74
1, 353312, Control_c, 0, 64, 75
1, 353327, Control_c, 0, 64, 76
1, 353357, Control_c, 0, 64, 76
1, 353387, Control_c, 0, 64, 76
1, 353417, Control_c, 0, 64, 75
1, 353426, Note_off_c, 0, 63, 44
1, 353431, Control_c, 0, 64, 73
1, 353446, Control_c, 0, 64, 70
1, 353468, Control_c, 0, 64, 68
1, 353483, Control_c, 0, 64, 67
1, 353498, Control_c, 0, 64, 65
1, 353503, Note_on_c, 0, 78, 79
1, 353512, Note_on_c, 0, 51, 56
1, 353512, Control_c, 0, 64, 63
1, 353527, Control_c, 0, 64, 58
1, 353542, Control_c, 0, 64, 50
1, 353557, Control_c, 0, 64, 31
1, 353572, Control_c, 0, 64, 0
1, 353590, Note_off_c, 0, 77, 38
1, 353690, Control_c, 0, 64, 40
1, 353705, Control_c, 0, 64, 54
1, 353720, Control_c, 0, 64, 61
1, 353735, Control_c, 0, 64, 64
1, 353750, Control_c, 0, 64, 66
1, 353764, Control_c, 0, 64, 68
1, 353779, Control_c, 0, 64, 70
1, 353792, Note_off_c, 0, 78, 61
1, 353794, Control_c, 0, 64, 73
1, 353809, Control_c, 0, 64, 75
1, 353824, Control_c, 0, 64, 77
1, 353840, Control_c, 0, 64, 77
1, 353846, Note_on_c, 0, 58, 47
1, 353935, Note_on_c, 0, 80, 66
1, 353984, Note_on_c, 0, 78, 75
1, 354005, Note_off_c, 0, 80, 63
1, 354028, Note_off_c, 0, 78, 62
1, 354031, Note_on_c, 0, 77, 73
1, 354061, Control_c, 0, 64, 77
1, 354076, Control_c, 0, 64, 75
1, 354090, Note_on_c, 0, 78, 80
1, 354091, Control_c, 0, 64, 70
1, 354105, Control_c, 0, 64, 64
1, 354110, Note_on_c, 0, 54, 47
1, 354120, Control_c, 0, 64, 58
1, 354123, Note_off_c, 0, 77, 62
1, 354135, Control_c, 0, 64, 50
1, 354150, Control_c, 0, 64, 45
1, 354165, Control_c, 0, 64, 44
1, 354180, Note_off_c, 0, 58, 41
1, 354180, Control_c, 0, 64, 46
1, 354195, Control_c, 0, 64, 49
1, 354217, Control_c, 0, 64, 53
1, 354232, Control_c, 0, 64, 57
1, 354247, Control_c, 0, 64, 60
1, 354261, Control_c, 0, 64, 63
1, 354276, Control_c, 0, 64, 65
1, 354291, Control_c, 0, 64, 65
1, 354335, Control_c, 0, 64, 64
1, 354350, Control_c, 0, 64, 63
1, 354365, Control_c, 0, 64, 60
1, 354380, Control_c, 0, 64, 56
1, 354382, Note_on_c, 0, 80, 89
1, 354394, Control_c, 0, 64, 49
1, 354408, Note_on_c, 0, 58, 40
1, 354409, Control_c, 0, 64, 42
1, 354424, Control_c, 0, 64, 33
1, 354439, Control_c, 0, 64, 0
1, 354477, Note_off_c, 0, 78, 55
1, 354484, Control_c, 0, 64, 35
1, 354499, Control_c, 0, 64, 43
1, 354513, Control_c, 0, 64, 52
1, 354528, Control_c, 0, 64, 57
1, 354543, Control_c, 0, 64, 62
1, 354558, Control_c, 0, 64, 65
1, 354573, Control_c, 0, 64, 67
1, 354587, Control_c, 0, 64, 70
1, 354602, Control_c, 0, 64, 72
1, 354612, Note_off_c, 0, 51, 27
1, 354617, Control_c, 0, 64, 74
1, 354633, Control_c, 0, 64, 75
1, 354648, Note_off_c, 0, 54, 13
1, 354648, Control_c, 0, 64, 75
1, 354736, Control_c, 0, 64, 75
1, 354751, Control_c, 0, 64, 73
1, 354766, Control_c, 0, 64, 72
1, 354767, Note_on_c, 0, 81, 85
1, 354772, Note_off_c, 0, 58, 24
1, 354781, Control_c, 0, 64, 70
1, 354783, Note_on_c, 0, 50, 42
1, 354796, Control_c, 0, 64, 68
1, 354810, Control_c, 0, 64, 64
1, 354825, Control_c, 0, 64, 60
1, 354840, Control_c, 0, 64, 53
1, 354855, Control_c, 0, 64, 46
1, 354870, Control_c, 0, 64, 38
1, 354884, Control_c, 0, 64, 0
1, 355084, Control_c, 0, 64, 38
1, 355099, Control_c, 0, 64, 50
1, 355102, Note_off_c, 0, 80, 13
1, 355114, Control_c, 0, 64, 57
1, 355128, Note_on_c, 0, 58, 43
1, 355129, Control_c, 0, 64, 60
1, 355143, Control_c, 0, 64, 61
1, 355158, Control_c, 0, 64, 62
1, 355173, Control_c, 0, 64, 63
1, 355188, Control_c, 0, 64, 64
1, 355203, Control_c, 0, 64, 65
1, 355217, Control_c, 0, 64, 67
1, 355232, Control_c, 0, 64, 68
1, 355247, Control_c, 0, 64, 70
1, 355262, Control_c, 0, 64, 71
1, 355277, Control_c, 0, 64, 73
1, 355292, Control_c, 0, 64, 74
1, 355307, Control_c, 0, 64, 75
1, 355322, Control_c, 0, 64, 76
1, 355336, Control_c, 0, 64, 76
1, 355351, Control_c, 0, 64, 77
1, 355366, Control_c, 0, 64, 77
1, 355381, Control_c, 0, 64, 78
1, 355396, Control_c, 0, 64, 78
1, 355410, Control_c, 0, 64, 79
1, 355411, Note_on_c, 0, 53, 47
1, 355441, Control_c, 0, 64, 79
1, 355500, Control_c, 0, 64, 80
1, 355516, Note_off_c, 0, 58, 37
1, 355559, Control_c, 0, 64, 80
1, 355575, Note_off_c, 0, 50, 38
1, 355739, Note_on_c, 0, 82, 76
1, 355742, Note_on_c, 0, 58, 44
1, 355797, Note_off_c, 0, 81, 58
1, 355836, Note_off_c, 0, 53, 32
1, 355908, Control_c, 0, 64, 80
1, 355952, Control_c, 0, 64, 79
1, 355967, Control_c, 0, 64, 79
1, 355971, Note_off_c, 0, 58, 36
1, 355982, Control_c, 0, 64, 78
1, 355997, Control_c, 0, 64, 77
1, 356012, Control_c, 0, 64, 76
1, 356027, Control_c, 0, 64, 75
1, 356041, Control_c, 0, 64, 74
1, 356056, Control_c, 0, 64, 73
1, 356071, Control_c, 0, 64, 72
1, 356085, Control_c, 0, 64, 71
1, 356100, Control_c, 0, 64, 70
1, 356115, Control_c, 0, 64, 69
1, 356120, Note_on_c, 0, 77, 57
1, 356125, Note_on_c, 0, 49, 36
1, 356130, Control_c, 0, 64, 68
1, 356145, Control_c, 0, 64, 67
1, 356159, Control_c, 0, 64, 65
1, 356162, Note_off_c, 0, 82, 56
1, 356174, Control_c, 0, 64, 63
1, 356189, Control_c, 0, 64, 60
1, 356204, Control_c, 0, 64, 55
1, 356219, Control_c, 0, 64, 50
1, 356235, Control_c, 0, 64, 44
1, 356249, Control_c, 0, 64, 38
1, 356264, Control_c, 0, 64, 35
1, 356308, Control_c, 0, 64, 36
1, 356323, Control_c, 0, 64, 39
1, 356338, Control_c, 0, 64, 42
1, 356353, Control_c, 0, 64, 45
1, 356368, Control_c, 0, 64, 47
1, 356383, Control_c, 0, 64, 48
1, 356398, Control_c, 0, 64, 48
1, 356413, Control_c, 0, 64, 49
1, 356427, Control_c, 0, 64, 51
1, 356435, Note_on_c, 0, 58, 41
1, 356442, Control_c, 0, 64, 54
1, 356464, Control_c, 0, 64, 56
1, 356479, Control_c, 0, 64, 58
1, 356494, Control_c, 0, 64, 59
1, 356508, Control_c, 0, 64, 60
1, 356523, Control_c, 0, 64, 61
1, 356538, Control_c, 0, 64, 62
1, 356553, Control_c, 0, 64, 63
1, 356568, Control_c, 0, 64, 64
1, 356582, Control_c, 0, 64, 64
1, 356741, Note_on_c, 0, 53, 42
1, 356805, Control_c, 0, 64, 64
1, 356824, Note_off_c, 0, 77, 31
1, 356849, Note_off_c, 0, 58, 37
1, 356864, Control_c, 0, 64, 63
1, 356908, Control_c, 0, 64, 63
1, 356938, Control_c, 0, 64, 62
1, 356953, Control_c, 0, 64, 62
1, 356965, Note_off_c, 0, 49, 38
1, 356968, Control_c, 0, 64, 61
1, 356997, Control_c, 0, 64, 61
1, 357012, Control_c, 0, 64, 60
1, 357028, Control_c, 0, 64, 60
1, 357043, Control_c, 0, 64, 59
1, 357046, Note_on_c, 0, 58, 49
1, 357058, Control_c, 0, 64, 59
1, 357072, Control_c, 0, 64, 58
1, 357102, Control_c, 0, 64, 58
1, 357116, Control_c, 0, 64, 57
1, 357131, Control_c, 0, 64, 57
1, 357161, Control_c, 0, 64, 56
1, 357283, Note_off_c, 0, 53, 37
1, 357301, Control_c, 0, 64, 56
1, 357331, Control_c, 0, 64, 55
1, 357360, Control_c, 0, 64, 55
1, 357369, Note_on_c, 0, 76, 76
1, 357374, Note_on_c, 0, 48, 43
1, 357390, Control_c, 0, 64, 54
1, 357405, Control_c, 0, 64, 53
1, 357415, Note_off_c, 0, 58, 41
1, 357420, Control_c, 0, 64, 53
1, 357435, Control_c, 0, 64, 52
1, 357449, Control_c, 0, 64, 51
1, 357464, Control_c, 0, 64, 51
1, 357523, Control_c, 0, 64, 50
1, 357538, Control_c, 0, 64, 50
1, 357553, Control_c, 0, 64, 49
1, 357568, Control_c, 0, 64, 48
1, 357583, Control_c, 0, 64, 47
1, 357597, Control_c, 0, 64, 46
1, 357601, Note_on_c, 0, 85, 85
1, 357612, Control_c, 0, 64, 45
1, 357642, Control_c, 0, 64, 45
1, 357701, Control_c, 0, 64, 45
1, 357730, Control_c, 0, 64, 46
1, 357745, Control_c, 0, 64, 47
1, 357760, Control_c, 0, 64, 47
1, 357775, Control_c, 0, 64, 48
1, 357790, Control_c, 0, 64, 48
1, 357800, Note_on_c, 0, 58, 49
1, 357805, Control_c, 0, 64, 49
1, 357820, Control_c, 0, 64, 49
1, 357826, Note_off_c, 0, 76, 33
1, 357835, Control_c, 0, 64, 50
1, 357866, Control_c, 0, 64, 50
1, 357896, Control_c, 0, 64, 51
1, 358022, Control_c, 0, 64, 51
1, 358101, Note_on_c, 0, 55, 39
1, 358169, Control_c, 0, 64, 52
1, 358183, Note_off_c, 0, 58, 35
1, 358199, Control_c, 0, 64, 52
1, 358214, Control_c, 0, 64, 53
1, 358243, Control_c, 0, 64, 53
1, 358260, Note_off_c, 0, 48, 31
1, 358410, Note_on_c, 0, 58, 39
1, 358421, Control_c, 0, 64, 54
1, 358510, Control_c, 0, 64, 53
1, 358560, Note_off_c, 0, 55, 38
1, 358569, Control_c, 0, 64, 53
1, 358599, Control_c, 0, 64, 52
1, 358614, Control_c, 0, 64, 52
1, 358630, Control_c, 0, 64, 50
1, 358644, Control_c, 0, 64, 49
1, 358659, Control_c, 0, 64, 47
1, 358659, Control_c, 0, 67, 19
1, 358674, Control_c, 0, 64, 44
1, 358689, Control_c, 0, 64, 39
1, 358689, Control_c, 0, 67, 24
1, 358711, Control_c, 0, 64, 0
1, 358711, Control_c, 0, 67, 27
1, 358726, Control_c, 0, 67, 31
1, 358729, Note_on_c, 0, 48, 31
1, 358741, Control_c, 0, 67, 35
1, 358756, Control_c, 0, 67, 40
1, 358759, Note_off_c, 0, 58, 38
1, 358770, Control_c, 0, 67, 43
1, 358785, Control_c, 0, 67, 44
1, 358815, Control_c, 0, 67, 45
1, 358830, Control_c, 0, 67, 45
1, 358845, Control_c, 0, 67, 47
1, 358859, Control_c, 0, 67, 48
1, 358874, Control_c, 0, 67, 49
1, 358898, Note_off_c, 0, 85, 54
1, 358903, Control_c, 0, 67, 49
1, 359066, Control_c, 0, 67, 49
1, 359075, Note_on_c, 0, 84, 58
1, 359081, Control_c, 0, 67, 48
1, 359095, Note_on_c, 0, 58, 28
1, 359096, Control_c, 0, 67, 48
1, 359110, Control_c, 0, 67, 47
1, 359140, Control_c, 0, 67, 47
1, 359200, Control_c, 0, 67, 46
1, 359225, Note_on_c, 0, 82, 60
1, 359240, Note_off_c, 0, 84, 62
1, 359265, Note_off_c, 0, 82, 60
1, 359362, Note_on_c, 0, 55, 36
1, 359363, Control_c, 0, 67, 46
1, 359364, Note_on_c, 0, 80, 64
1, 359395, Note_off_c, 0, 58, 41
1, 359493, Note_off_c, 0, 80, 48
1, 359503, Note_on_c, 0, 79, 63
1, 359548, Note_off_c, 0, 79, 61
1, 359645, Note_on_c, 0, 77, 62
1, 359649, Note_on_c, 0, 58, 40
1, 359667, Control_c, 0, 67, 45
1, 359720, Note_off_c, 0, 55, 42
1, 359765, Note_off_c, 0, 77, 55
1, 359771, Control_c, 0, 67, 45
1, 359773, Note_off_c, 0, 48, 12
1, 359777, Note_on_c, 0, 76, 57
1, 359873, Note_off_c, 0, 76, 55
1, 359954, Note_on_c, 0, 79, 68
1, 359973, Note_on_c, 0, 49, 37
1, 359977, Note_off_c, 0, 58, 37
1, 360296, Note_on_c, 0, 56, 39
1, 360519, Control_c, 0, 67, 44
1, 360587, Note_on_c, 0, 53, 40
1, 360597, Note_on_c, 0, 77, 62
1, 360639, Note_off_c, 0, 56, 38
1, 360681, Control_c, 0, 67, 44
1, 360813, Note_off_c, 0, 79, 38
1, 360833, Note_off_c, 0, 49, 30
1, 360898, Note_on_c, 0, 56, 37
1, 360949, Note_off_c, 0, 53, 36
1, 361031, Control_c, 0, 64, 29
1, 361045, Control_c, 0, 64, 39
1, 361060, Control_c, 0, 64, 46
1, 361075, Control_c, 0, 64, 51
1, 361090, Control_c, 0, 64, 54
1, 361105, Control_c, 0, 64, 56
1, 361119, Control_c, 0, 64, 57
1, 361134, Control_c, 0, 64, 58
1, 361149, Control_c, 0, 64, 59
1, 361194, Control_c, 0, 64, 59
1, 361194, Control_c, 0, 67, 43
1, 361203, Note_on_c, 0, 46, 43
1, 361209, Control_c, 0, 64, 58
1, 361223, Control_c, 0, 64, 57
1, 361253, Control_c, 0, 64, 57
1, 361268, Control_c, 0, 64, 58
1, 361283, Control_c, 0, 64, 60
1, 361283, Control_c, 0, 67, 43
1, 361297, Control_c, 0, 64, 61
1, 361311, Note_off_c, 0, 56, 38
1, 361312, Control_c, 0, 64, 62
1, 361327, Control_c, 0, 64, 64
1, 361342, Control_c, 0, 64, 66
1, 361357, Control_c, 0, 64, 68
1, 361371, Control_c, 0, 64, 71
1, 361386, Control_c, 0, 64, 73
1, 361401, Control_c, 0, 64, 76
1, 361415, Control_c, 0, 64, 78
1, 361422, Note_off_c, 0, 77, 57
1, 361430, Control_c, 0, 64, 79
1, 361445, Control_c, 0, 64, 80
1, 361569, Note_on_c, 0, 75, 54
1, 361584, Note_on_c, 0, 55, 38
1, 361704, Control_c, 0, 64, 79
1, 361734, Control_c, 0, 64, 79
1, 361764, Control_c, 0, 64, 78
1, 361778, Control_c, 0, 64, 76
1, 361793, Control_c, 0, 64, 73
1, 361793, Control_c, 0, 67, 42
1, 361808, Control_c, 0, 64, 70
1, 361824, Control_c, 0, 64, 66
1, 361839, Control_c, 0, 64, 64
1, 361853, Control_c, 0, 64, 63
1, 361866, Note_on_c, 0, 49, 41
1, 361868, Control_c, 0, 67, 42
1, 361898, Control_c, 0, 64, 64
1, 361898, Control_c, 0, 67, 41
1, 361913, Control_c, 0, 64, 65
1, 361913, Control_c, 0, 67, 40
1, 361927, Control_c, 0, 64, 66
1, 361927, Control_c, 0, 67, 40
1, 361929, Note_off_c, 0, 55, 40
1, 361942, Control_c, 0, 64, 68
1, 361942, Control_c, 0, 67, 39
1, 361957, Control_c, 0, 64, 69
1, 361957, Control_c, 0, 67, 38
1, 361972, Control_c, 0, 64, 71
1, 361972, Control_c, 0, 67, 37
1, 361987, Control_c, 0, 64, 73
1, 361987, Control_c, 0, 67, 36
1, 362002, Control_c, 0, 64, 75
1, 362002, Control_c, 0, 67, 32
1, 362017, Control_c, 0, 64, 77
1, 362017, Control_c, 0, 67, 25
1, 362025, Note_off_c, 0, 46, 20
1, 362032, Control_c, 0, 64, 78
1, 362032, Control_c, 0, 67, 0
1, 362046, Control_c, 0, 64, 79
1, 362061, Control_c, 0, 64, 79
1, 362155, Note_on_c, 0, 73, 59
1, 362166, Note_on_c, 0, 55, 39
1, 362175, Note_off_c, 0, 49, 41
1, 362194, Control_c, 0, 64, 79
1, 362209, Control_c, 0, 64, 78
1, 362224, Control_c, 0, 64, 78
1, 362238, Control_c, 0, 64, 77
1, 362253, Control_c, 0, 64, 76
1, 362268, Note_off_c, 0, 75, 49
1, 362268, Control_c, 0, 64, 75
1, 362283, Control_c, 0, 64, 73
1, 362298, Control_c, 0, 64, 71
1, 362312, Control_c, 0, 64, 69
1, 362327, Control_c, 0, 64, 68
1, 362342, Control_c, 0, 64, 67
1, 362357, Control_c, 0, 64, 66
1, 362372, Control_c, 0, 64, 64
1, 362386, Control_c, 0, 64, 63
1, 362401, Control_c, 0, 64, 61
1, 362416, Control_c, 0, 64, 59
1, 362431, Control_c, 0, 64, 57
1, 362453, Control_c, 0, 64, 55
1, 362454, Note_off_c, 0, 55, 36
1, 362468, Control_c, 0, 64, 51
1, 362476, Note_on_c, 0, 48, 34
1, 362476, Note_on_c, 0, 72, 54
1, 362483, Control_c, 0, 64, 46
1, 362498, Control_c, 0, 64, 40
1, 362513, Control_c, 0, 64, 34
1, 362517, Note_off_c, 0, 73, 57
1, 362527, Control_c, 0, 64, 30
1, 362571, Control_c, 0, 64, 33
1, 362586, Control_c, 0, 64, 39
1, 362601, Control_c, 0, 64, 47
1, 362616, Control_c, 0, 64, 54
1, 362632, Control_c, 0, 64, 60
1, 362647, Control_c, 0, 64, 63
1, 362662, Control_c, 0, 64, 65
1, 362676, Control_c, 0, 64, 67
1, 362691, Control_c, 0, 64, 68
1, 362706, Control_c, 0, 64, 69
1, 362708, Note_off_c, 0, 72, 61
1, 362721, Control_c, 0, 64, 70
1, 362736, Control_c, 0, 64, 71
1, 362765, Control_c, 0, 64, 71
1, 362765, Control_c, 0, 67, 19
1, 362810, Control_c, 0, 67, 22
1, 362817, Note_on_c, 0, 56, 37
1, 362884, Control_c, 0, 64, 71
1, 362884, Control_c, 0, 67, 24
1, 362914, Control_c, 0, 64, 70
1, 362917, Note_on_c, 0, 73, 45
1, 362929, Control_c, 0, 64, 70
1, 362943, Control_c, 0, 64, 69
1, 362973, Control_c, 0, 64, 69
1, 362975, Note_on_c, 0, 72, 53
1, 362987, Control_c, 0, 64, 68
1, 363002, Note_off_c, 0, 73, 58
1, 363002, Control_c, 0, 64, 67
1, 363012, Note_off_c, 0, 72, 65
1, 363017, Control_c, 0, 64, 65
1, 363032, Control_c, 0, 64, 64
1, 363045, Note_on_c, 0, 70, 51
1, 363047, Control_c, 0, 64, 63
1, 363061, Note_off_c, 0, 48, 24
1, 363061, Control_c, 0, 64, 61
1, 363076, Control_c, 0, 64, 60
1, 363091, Control_c, 0, 64, 58
1, 363095, Note_on_c, 0, 53, 45
1, 363099, Note_on_c, 0, 72, 55
1, 363106, Control_c, 0, 64, 55
1, 363121, Control_c, 0, 64, 50
1, 363135, Control_c, 0, 64, 46
1, 363150, Control_c, 0, 64, 42
1, 363152, Note_off_c, 0, 56, 40
1, 363158, Note_off_c, 0, 70, 39
1, 363165, Control_c, 0, 64, 38
1, 363165, Control_c, 0, 67, 22
1, 363180, Control_c, 0, 64, 36
1, 363217, Control_c, 0, 64, 37
1, 363232, Control_c, 0, 64, 39
1, 363247, Control_c, 0, 64, 42
1, 363262, Control_c, 0, 64, 47
1, 363276, Control_c, 0, 64, 51
1, 363291, Control_c, 0, 64, 54
1, 363306, Control_c, 0, 64, 56
1, 363321, Control_c, 0, 64, 57
1, 363336, Control_c, 0, 64, 58
1, 363350, Control_c, 0, 64, 59
1, 363365, Control_c, 0, 64, 60
1, 363380, Control_c, 0, 64, 61
1, 363386, Note_on_c, 0, 73, 57
1, 363388, Note_on_c, 0, 56, 35
1, 363394, Control_c, 0, 64, 62
1, 363409, Control_c, 0, 64, 62
1, 363415, Note_off_c, 0, 53, 36
1, 363416, Note_off_c, 0, 72, 59
1, 363425, Control_c, 0, 64, 63
1, 363455, Control_c, 0, 64, 63
1, 363499, Control_c, 0, 67, 20
1, 363514, Control_c, 0, 64, 63
1, 363544, Control_c, 0, 64, 62
1, 363573, Control_c, 0, 64, 62
1, 363588, Control_c, 0, 64, 61
1, 363603, Control_c, 0, 64, 61
1, 363617, Control_c, 0, 64, 60
1, 363632, Control_c, 0, 64, 59
1, 363662, Control_c, 0, 64, 58
1, 363677, Control_c, 0, 64, 58
1, 363678, Note_off_c, 0, 56, 33
1, 363692, Control_c, 0, 64, 56
1, 363706, Note_on_c, 0, 48, 30
1, 363707, Control_c, 0, 64, 55
1, 363711, Note_on_c, 0, 65, 40
1, 363722, Control_c, 0, 64, 52
1, 363737, Control_c, 0, 64, 50
1, 363752, Control_c, 0, 64, 48
1, 363766, Control_c, 0, 64, 45
1, 363781, Control_c, 0, 64, 44
1, 363786, Note_off_c, 0, 73, 38
1, 363796, Control_c, 0, 64, 43
1, 363840, Control_c, 0, 64, 44
1, 363855, Control_c, 0, 64, 45
1, 363870, Control_c, 0, 64, 47
1, 363884, Control_c, 0, 64, 49
1, 363899, Control_c, 0, 64, 51
1, 363914, Control_c, 0, 64, 53
1, 363929, Control_c, 0, 64, 55
1, 363951, Control_c, 0, 64, 55
1, 363966, Control_c, 0, 64, 56
1, 363981, Control_c, 0, 64, 57
1, 364011, Control_c, 0, 64, 57
1, 364019, Note_on_c, 0, 58, 34
1, 364129, Control_c, 0, 64, 57
1, 364173, Control_c, 0, 64, 56
1, 364188, Control_c, 0, 64, 56
1, 364203, Control_c, 0, 64, 55
1, 364234, Control_c, 0, 64, 55
1, 364248, Control_c, 0, 64, 54
1, 364263, Control_c, 0, 64, 53
1, 364278, Control_c, 0, 64, 51
1, 364293, Note_off_c, 0, 58, 40
1, 364293, Control_c, 0, 64, 48
1, 364308, Control_c, 0, 64, 45
1, 364315, Note_on_c, 0, 68, 46
1, 364321, Note_on_c, 0, 55, 33
1, 364322, Control_c, 0, 64, 40
1, 364337, Control_c, 0, 64, 33
1, 364349, Note_on_c, 0, 64, 25
1, 364352, Control_c, 0, 64, 0
1, 364354, Note_off_c, 0, 65, 44
1, 364396, Control_c, 0, 67, 0
1, 364455, Control_c, 0, 64, 36
1, 364470, Control_c, 0, 64, 45
1, 364485, Control_c, 0, 64, 52
1, 364500, Control_c, 0, 64, 56
1, 364515, Control_c, 0, 64, 59
1, 364530, Control_c, 0, 64, 60
1, 364544, Control_c, 0, 64, 61
1, 364559, Control_c, 0, 64, 62
1, 364574, Control_c, 0, 64, 62
1, 364589, Control_c, 0, 64, 63
1, 364619, Control_c, 0, 64, 63
1, 364622, Note_off_c, 0, 48, 29
1, 364633, Control_c, 0, 64, 64
1, 364634, Note_on_c, 0, 67, 41
1, 364647, Note_off_c, 0, 55, 48
1, 364648, Control_c, 0, 64, 65
1, 364650, Note_on_c, 0, 58, 29
1, 364663, Control_c, 0, 64, 66
1, 364678, Control_c, 0, 64, 67
1, 364697, Note_off_c, 0, 68, 43
1, 364700, Control_c, 0, 64, 68
1, 364715, Control_c, 0, 64, 70
1, 364719, Note_off_c, 0, 64, 38
1, 364729, Note_off_c, 0, 58, 57
1, 364729, Control_c, 0, 64, 72
1, 364744, Control_c, 0, 64, 73
1, 364759, Control_c, 0, 64, 74
1, 364893, Control_c, 0, 64, 74
1, 364908, Control_c, 0, 64, 73
1, 364922, Control_c, 0, 64, 72
1, 364937, Control_c, 0, 64, 68
1, 364952, Control_c, 0, 64, 64
1, 364966, Control_c, 0, 64, 58
1, 364969, Note_on_c, 0, 53, 39
1, 364978, Note_on_c, 0, 65, 43
1, 364981, Note_off_c, 0, 67, 39
1, 364981, Control_c, 0, 64, 51
1, 364996, Control_c, 0, 64, 48
1, 365012, Control_c, 0, 64, 47
1, 365037, Poly_aftertouch_c, 0, 57, 127
1, 365042, Control_c, 0, 64, 49
1, 365057, Control_c, 0, 64, 52
1, 365071, Control_c, 0, 64, 56
1, 365086, Control_c, 0, 64, 60
1, 365101, Control_c, 0, 64, 64
1, 365116, Control_c, 0, 64, 67
1, 365131, Control_c, 0, 64, 69
1, 365145, Control_c, 0, 64, 71
1, 365159, Note_off_c, 0, 65, 42
1, 365160, Control_c, 0, 64, 72
1, 365175, Control_c, 0, 64, 72
1, 365177, Poly_aftertouch_c, 0, 57, 0
1, 365259, Note_off_c, 0, 53, 38
1, 365293, Control_c, 0, 64, 72
1, 365297, Note_on_c, 0, 65, 48
1, 365308, Control_c, 0, 64, 71
1, 365323, Control_c, 0, 64, 71
1, 365325, Note_off_c, 0, 65, 62
1, 365337, Control_c, 0, 64, 70
1, 365353, Control_c, 0, 64, 69
1, 365368, Control_c, 0, 64, 67
1, 365382, Control_c, 0, 64, 66
1, 365397, Control_c, 0, 64, 65
1, 365412, Control_c, 0, 64, 63
1, 365427, Control_c, 0, 64, 62
1, 365450, Control_c, 0, 64, 61
1, 365465, Control_c, 0, 64, 59
1, 365479, Control_c, 0, 64, 57
1, 365494, Control_c, 0, 64, 54
1, 365509, Control_c, 0, 64, 51
1, 365524, Control_c, 0, 64, 48
1, 365539, Control_c, 0, 64, 46
1, 365553, Control_c, 0, 64, 43
1, 365568, Control_c, 0, 64, 39
1, 365583, Control_c, 0, 64, 32
1, 365594, Note_on_c, 0, 65, 51
1, 365597, Control_c, 0, 64, 0
1, 365622, Note_off_c, 0, 65, 62
1, 365884, Note_on_c, 0, 65, 46
1, 365912, Note_off_c, 0, 65, 62
1, 366176, Note_on_c, 0, 62, 43
1, 366200, Note_on_c, 0, 58, 35
1, 366498, Note_on_c, 0, 65, 38
1, 366629, Note_off_c, 0, 62, 42
1, 366778, Note_off_c, 0, 58, 41
1, 366807, Note_on_c, 0, 63, 45
1, 366809, Note_on_c, 0, 60, 41
1, 366835, Note_off_c, 0, 65, 41
1, 367126, Note_on_c, 0, 65, 47
1, 367272, Note_off_c, 0, 60, 43
1, 367272, Note_off_c, 0, 63, 34
1, 367454, Note_on_c, 0, 75, 65
1, 367469, Note_on_c, 0, 60, 24
1, 367469, Note_on_c, 0, 57, 37
1, 367510, Note_off_c, 0, 65, 39
1, 367809, Note_on_c, 0, 65, 26
1, 367815, Note_off_c, 0, 60, 44
1, 367847, Note_off_c, 0, 65, 52
1, 368065, Control_c, 0, 67, 19
1, 368091, Note_on_c, 0, 65, 43
1, 368095, Control_c, 0, 67, 24
1, 368110, Control_c, 0, 67, 26
1, 368125, Note_off_c, 0, 65, 59
1, 368125, Control_c, 0, 67, 29
1, 368137, Note_off_c, 0, 75, 61
1, 368139, Control_c, 0, 67, 34
1, 368150, Note_off_c, 0, 57, 41
1, 368154, Control_c, 0, 67, 39
1, 368169, Control_c, 0, 67, 46
1, 368184, Control_c, 0, 67, 51
1, 368199, Control_c, 0, 67, 56
1, 368214, Control_c, 0, 67, 58
1, 368229, Control_c, 0, 67, 59
1, 368363, Control_c, 0, 67, 59
1, 368403, Note_on_c, 0, 65, 37
1, 368445, Control_c, 0, 67, 58
1, 368446, Note_off_c, 0, 65, 54
1, 368460, Control_c, 0, 67, 58
1, 368504, Control_c, 0, 67, 57
1, 368578, Control_c, 0, 67, 57
1, 368607, Control_c, 0, 67, 56
1, 368691, Note_on_c, 0, 72, 51
1, 368713, Note_on_c, 0, 53, 31
1, 368714, Note_on_c, 0, 57, 30
1, 368763, Note_off_c, 0, 72, 55
1, 369023, Note_on_c, 0, 65, 34
1, 369161, Note_off_c, 0, 53, 34
1, 369292, Note_on_c, 0, 69, 48
1, 369293, Note_on_c, 0, 60, 32
1, 369294, Note_off_c, 0, 65, 40
1, 369299, Note_on_c, 0, 63, 34
1, 369362, Note_off_c, 0, 69, 61
1, 369363, Note_off_c, 0, 57, 43
1, 369577, Note_on_c, 0, 65, 39
1, 369634, Note_off_c, 0, 63, 39
1, 369814, Note_off_c, 0, 60, 36
1, 369874, Note_off_c, 0, 65, 38
1, 369919, Note_on_c, 0, 77, 60
1, 369937, Note_on_c, 0, 62, 28
1, 369945, Note_on_c, 0, 58, 27
1, 370106, Control_c, 0, 64, 34
1, 370120, Control_c, 0, 64, 51
1, 370135, Control_c, 0, 64, 60
1, 370150, Control_c, 0, 64, 63
1, 370165, Control_c, 0, 64, 65
1, 370180, Control_c, 0, 64, 68
1, 370194, Control_c, 0, 64, 72
1, 370197, Note_off_c, 0, 77, 59
1, 370209, Control_c, 0, 64, 76
1, 370224, Control_c, 0, 64, 79
1, 370239, Control_c, 0, 64, 81
1, 370253, Control_c, 0, 64, 81
1, 370268, Note_on_c, 0, 65, 33
1, 370309, Note_off_c, 0, 65, 49
1, 370313, Control_c, 0, 64, 81
1, 370342, Control_c, 0, 64, 80
1, 370357, Control_c, 0, 64, 78
1, 370372, Control_c, 0, 64, 76
1, 370379, Note_on_c, 0, 74, 47
1, 370387, Control_c, 0, 64, 73
1, 370402, Control_c, 0, 64, 70
1, 370417, Control_c, 0, 64, 67
1, 370427, Note_off_c, 0, 62, 36
1, 370432, Control_c, 0, 64, 64
1, 370447, Control_c, 0, 64, 60
1, 370461, Control_c, 0, 64, 56
1, 370476, Control_c, 0, 64, 52
1, 370491, Control_c, 0, 64, 48
1, 370505, Control_c, 0, 64, 42
1, 370514, Note_on_c, 0, 77, 53
1, 370520, Control_c, 0, 64, 31
1, 370535, Control_c, 0, 64, 0
1, 370536, Note_on_c, 0, 65, 35
1, 370537, Note_off_c, 0, 74, 52
1, 370578, Note_off_c, 0, 65, 52
1, 370607, Note_off_c, 0, 58, 38
1, 370736, Control_c, 0, 67, 56
1, 370828, Note_on_c, 0, 65, 37
1, 370864, Note_off_c, 0, 65, 55
1, 370915, Control_c, 0, 67, 55
1, 370944, Control_c, 0, 67, 54
1, 370959, Control_c, 0, 67, 54
1, 370974, Control_c, 0, 67, 53
1, 371004, Control_c, 0, 67, 53
1, 371018, Control_c, 0, 67, 52
1, 371107, Note_on_c, 0, 62, 40
1, 371107, Control_c, 0, 67, 51
1, 371120, Note_on_c, 0, 58, 35
1, 371122, Control_c, 0, 67, 51
1, 371136, Note_off_c, 0, 77, 60
1, 371136, Control_c, 0, 67, 50
1, 371151, Control_c, 0, 67, 50
1, 371166, Control_c, 0, 67, 49
1, 371181, Control_c, 0, 67, 49
1, 371196, Control_c, 0, 67, 48
1, 371225, Control_c, 0, 67, 48
1, 371254, Control_c, 0, 67, 47
1, 371284, Control_c, 0, 67, 46
1, 371314, Control_c, 0, 67, 45
1, 371329, Control_c, 0, 67, 44
1, 371343, Control_c, 0, 67, 41
1, 371358, Control_c, 0, 67, 40
1, 371373, Control_c, 0, 67, 38
1, 371388, Control_c, 0, 67, 36
1, 371404, Control_c, 0, 67, 33
1, 371418, Control_c, 0, 67, 30
1, 371422, Note_on_c, 0, 65, 40
1, 371440, Control_c, 0, 67, 27
1, 371455, Control_c, 0, 67, 24
1, 371470, Control_c, 0, 67, 22
1, 371485, Control_c, 0, 67, 19
1, 371500, Control_c, 0, 67, 0
1, 371558, Note_off_c, 0, 62, 32
1, 371707, Note_off_c, 0, 58, 42
1, 371712, Note_on_c, 0, 63, 48
1, 371722, Note_on_c, 0, 60, 39
1, 371730, Note_off_c, 0, 65, 41
1, 372009, Note_on_c, 0, 65, 45
1, 372144, Note_off_c, 0, 60, 35
1, 372155, Note_off_c, 0, 63, 32
1, 372319, Note_on_c, 0, 75, 65
1, 372330, Note_on_c, 0, 60, 27
1, 372336, Note_on_c, 0, 57, 34
1, 372360, Note_off_c, 0, 65, 38
1, 372642, Note_on_c, 0, 65, 37
1, 372672, Note_off_c, 0, 60, 43
1, 372693, Note_off_c, 0, 65, 59
1, 372951, Note_on_c, 0, 65, 43
1, 372968, Control_c, 0, 67, 19
1, 372997, Control_c, 0, 67, 22
1, 373002, Note_off_c, 0, 57, 20
1, 373004, Note_off_c, 0, 65, 59
1, 373009, Note_off_c, 0, 75, 59
1, 373028, Control_c, 0, 67, 26
1, 373043, Control_c, 0, 67, 28
1, 373058, Control_c, 0, 67, 31
1, 373073, Control_c, 0, 67, 37
1, 373087, Control_c, 0, 67, 46
1, 373102, Control_c, 0, 67, 57
1, 373117, Control_c, 0, 67, 68
1, 373131, Control_c, 0, 67, 78
1, 373146, Control_c, 0, 67, 86
1, 373161, Control_c, 0, 67, 90
1, 373176, Control_c, 0, 67, 90
1, 373235, Control_c, 0, 67, 90
1, 373265, Control_c, 0, 67, 89
1, 373275, Note_on_c, 0, 65, 36
1, 373279, Control_c, 0, 67, 89
1, 373294, Control_c, 0, 67, 88
1, 373309, Control_c, 0, 67, 87
1, 373313, Note_off_c, 0, 65, 51
1, 373323, Control_c, 0, 67, 86
1, 373338, Control_c, 0, 67, 86
1, 373353, Control_c, 0, 67, 85
1, 373368, Control_c, 0, 67, 85
1, 373383, Control_c, 0, 67, 84
1, 373398, Control_c, 0, 67, 84
1, 373442, Control_c, 0, 67, 83
1, 373472, Control_c, 0, 67, 83
1, 373546, Control_c, 0, 67, 82
1, 373571, Note_on_c, 0, 72, 50
1, 373576, Control_c, 0, 67, 82
1, 373585, Note_on_c, 0, 53, 33
1, 373586, Note_on_c, 0, 57, 34
1, 373620, Control_c, 0, 67, 81
1, 373635, Control_c, 0, 67, 81
1, 373650, Note_off_c, 0, 72, 48
1, 373664, Control_c, 0, 67, 80
1, 373687, Control_c, 0, 67, 80
1, 373731, Control_c, 0, 67, 79
1, 373761, Control_c, 0, 67, 79
1, 373806, Control_c, 0, 67, 78
1, 373836, Control_c, 0, 67, 77
1, 373866, Control_c, 0, 67, 77
1, 373885, Note_on_c, 0, 65, 37
1, 373910, Control_c, 0, 67, 76
1, 373940, Control_c, 0, 67, 76
1, 373954, Control_c, 0, 67, 75
1, 373984, Control_c, 0, 67, 75
1, 373999, Control_c, 0, 67, 71
1, 374014, Control_c, 0, 67, 67
1, 374028, Control_c, 0, 67, 64
1, 374036, Note_off_c, 0, 53, 35
1, 374043, Control_c, 0, 67, 61
1, 374058, Control_c, 0, 67, 59
1, 374072, Control_c, 0, 67, 57
1, 374087, Control_c, 0, 67, 56
1, 374102, Control_c, 0, 67, 56
1, 374117, Control_c, 0, 67, 55
1, 374167, Note_on_c, 0, 69, 52
1, 374176, Control_c, 0, 67, 55
1, 374178, Note_on_c, 0, 63, 33
1, 374184, Note_off_c, 0, 65, 40
1, 374191, Control_c, 0, 67, 54
1, 374194, Note_on_c, 0, 60, 25
1, 374206, Control_c, 0, 67, 54
1, 374220, Control_c, 0, 67, 52
1, 374235, Control_c, 0, 67, 47
1, 374236, Note_off_c, 0, 69, 50
1, 374250, Control_c, 0, 67, 41
1, 374265, Control_c, 0, 67, 35
1, 374266, Note_off_c, 0, 57, 43
1, 374280, Control_c, 0, 67, 30
1, 374295, Control_c, 0, 67, 27
1, 374310, Control_c, 0, 67, 24
1, 374325, Control_c, 0, 67, 21
1, 374338, Control_c, 0, 67, 0
1, 374489, Note_on_c, 0, 65, 34
1, 374582, Note_off_c, 0, 63, 40
1, 374706, Note_off_c, 0, 60, 35
1, 374823, Note_on_c, 0, 77, 54
1, 374829, Note_off_c, 0, 65, 37
1, 374852, Note_on_c, 0, 62, 33
1, 374861, Note_on_c, 0, 58, 25
1, 375042, Control_c, 0, 64, 34
1, 375057, Control_c, 0, 64, 49
1, 375072, Control_c, 0, 64, 59
1, 375087, Control_c, 0, 64, 62
1, 375101, Control_c, 0, 64, 64
1, 375116, Control_c, 0, 64, 66
1, 375131, Control_c, 0, 64, 68
1, 375146, Control_c, 0, 64, 71
1, 375161, Control_c, 0, 64, 75
1, 375183, Control_c, 0, 64, 78
1, 375198, Control_c, 0, 64, 80
1, 375221, Note_off_c, 0, 77, 26
1, 375316, Control_c, 0, 64, 80
1, 375331, Control_c, 0, 64, 79
1, 375346, Control_c, 0, 64, 78
1, 375361, Control_c, 0, 64, 77
1, 375375, Control_c, 0, 64, 76
1, 375389, Note_on_c, 0, 74, 41
1, 375390, Control_c, 0, 64, 75
1, 375406, Control_c, 0, 64, 73
1, 375421, Control_c, 0, 64, 72
1, 375436, Control_c, 0, 64, 70
1, 375451, Control_c, 0, 64, 69
1, 375466, Control_c, 0, 64, 67
1, 375480, Control_c, 0, 64, 64
1, 375495, Control_c, 0, 64, 62
1, 375510, Control_c, 0, 64, 60
1, 375524, Control_c, 0, 64, 57
1, 375539, Control_c, 0, 64, 55
1, 375554, Control_c, 0, 64, 53
1, 375563, Note_off_c, 0, 62, 54
1, 375569, Control_c, 0, 64, 50
1, 375572, Note_on_c, 0, 77, 37
1, 375572, Note_off_c, 0, 58, 49
1, 375578, Note_off_c, 0, 74, 35
1, 375584, Control_c, 0, 64, 48
1, 375598, Control_c, 0, 64, 45
1, 375613, Control_c, 0, 64, 42
1, 375628, Control_c, 0, 64, 37
1, 375642, Control_c, 0, 64, 32
1, 375657, Control_c, 0, 64, 0
1, 375885, Note_off_c, 0, 77, 38
1, 376393, Note_on_c, 0, 86, 79
1, 376399, Note_on_c, 0, 82, 74
1, 376766, Note_off_c, 0, 82, 57
1, 376781, Note_on_c, 0, 84, 56
1, 376781, Note_on_c, 0, 81, 49
1, 376790, Note_off_c, 0, 86, 49
1, 377088, Note_off_c, 0, 81, 44
1, 377091, Note_on_c, 0, 82, 49
1, 377093, Note_on_c, 0, 79, 44
1, 377103, Note_off_c, 0, 84, 46
1, 377186, Control_c, 0, 64, 42
1, 377201, Control_c, 0, 64, 54
1, 377215, Control_c, 0, 64, 61
1, 377230, Control_c, 0, 64, 64
1, 377245, Control_c, 0, 64, 66
1, 377260, Control_c, 0, 64, 70
1, 377275, Control_c, 0, 64, 75
1, 377279, Note_off_c, 0, 82, 55
1, 377289, Control_c, 0, 64, 81
1, 377304, Control_c, 0, 64, 86
1, 377319, Control_c, 0, 64, 87
1, 377349, Control_c, 0, 64, 84
1, 377363, Control_c, 0, 64, 76
1, 377378, Control_c, 0, 64, 70
1, 377390, Note_on_c, 0, 81, 51
1, 377393, Control_c, 0, 64, 67
1, 377396, Note_off_c, 0, 79, 58
1, 377401, Note_on_c, 0, 78, 47
1, 377408, Control_c, 0, 64, 66
1, 377445, Control_c, 0, 64, 67
1, 377460, Control_c, 0, 64, 68
1, 377475, Control_c, 0, 64, 71
1, 377490, Control_c, 0, 64, 76
1, 377504, Control_c, 0, 64, 84
1, 377519, Control_c, 0, 64, 96
1, 377534, Control_c, 0, 64, 127
1, 377590, Note_off_c, 0, 81, 43
1, 377616, Note_off_c, 0, 78, 41
1, 377696, Control_c, 0, 64, 96
1, 377703, Note_on_c, 0, 82, 79
1, 377705, Note_on_c, 0, 79, 80
1, 377711, Control_c, 0, 64, 80
1, 377726, Control_c, 0, 64, 69
1, 377741, Control_c, 0, 64, 61
1, 377756, Control_c, 0, 64, 52
1, 377771, Control_c, 0, 64, 41
1, 377786, Control_c, 0, 64, 32
1, 377801, Control_c, 0, 64, 0
1, 378012, Note_off_c, 0, 82, 61
1, 378030, Note_off_c, 0, 79, 61
1, 378033, Note_on_c, 0, 77, 47
1, 378036, Note_on_c, 0, 81, 54
1, 378112, Control_c, 0, 64, 29
1, 378127, Control_c, 0, 64, 44
1, 378142, Control_c, 0, 64, 56
1, 378157, Control_c, 0, 64, 62
1, 378179, Control_c, 0, 64, 66
1, 378185, Note_off_c, 0, 81, 60
1, 378194, Control_c, 0, 64, 70
1, 378209, Control_c, 0, 64, 74
1, 378224, Control_c, 0, 64, 80
1, 378239, Control_c, 0, 64, 84
1, 378253, Control_c, 0, 64, 88
1, 378268, Control_c, 0, 64, 89
1, 378327, Control_c, 0, 64, 87
1, 378339, Note_on_c, 0, 79, 55
1, 378342, Note_off_c, 0, 77, 54
1, 378342, Control_c, 0, 64, 83
1, 378349, Note_on_c, 0, 75, 45
1, 378357, Control_c, 0, 64, 76
1, 378372, Control_c, 0, 64, 67
1, 378387, Control_c, 0, 64, 61
1, 378401, Control_c, 0, 64, 57
1, 378416, Control_c, 0, 64, 54
1, 378431, Control_c, 0, 64, 55
1, 378445, Control_c, 0, 64, 56
1, 378460, Control_c, 0, 64, 58
1, 378475, Control_c, 0, 64, 61
1, 378490, Control_c, 0, 64, 64
1, 378505, Control_c, 0, 64, 66
1, 378519, Control_c, 0, 64, 70
1, 378534, Control_c, 0, 64, 73
1, 378549, Control_c, 0, 64, 76
1, 378564, Control_c, 0, 64, 78
1, 378579, Control_c, 0, 64, 80
1, 378624, Control_c, 0, 64, 78
1, 378638, Note_off_c, 0, 75, 61
1, 378639, Control_c, 0, 64, 74
1, 378649, Note_on_c, 0, 78, 56
1, 378653, Note_on_c, 0, 74, 55
1, 378654, Control_c, 0, 64, 69
1, 378662, Note_off_c, 0, 79, 60
1, 378668, Control_c, 0, 64, 65
1, 378683, Control_c, 0, 64, 63
1, 378698, Control_c, 0, 64, 62
1, 378728, Control_c, 0, 64, 62
1, 378743, Control_c, 0, 64, 63
1, 378757, Control_c, 0, 64, 65
1, 378772, Control_c, 0, 64, 69
1, 378787, Control_c, 0, 64, 75
1, 378802, Control_c, 0, 64, 84
1, 378817, Control_c, 0, 64, 97
1, 378832, Control_c, 0, 64, 127
1, 378849, Note_off_c, 0, 74, 53
1, 378852, Note_off_c, 0, 78, 51
1, 378972, Control_c, 0, 64, 122
1, 378986, Note_on_c, 0, 75, 71
1, 378987, Note_on_c, 0, 79, 80
1, 378987, Control_c, 0, 64, 97
1, 379002, Control_c, 0, 64, 84
1, 379017, Control_c, 0, 64, 76
1, 379032, Control_c, 0, 64, 71
1, 379047, Control_c, 0, 64, 67
1, 379061, Control_c, 0, 64, 65
1, 379076, Control_c, 0, 64, 62
1, 379091, Control_c, 0, 64, 59
1, 379106, Control_c, 0, 64, 56
1, 379121, Control_c, 0, 64, 53
1, 379136, Control_c, 0, 64, 52
1, 379180, Control_c, 0, 64, 51
1, 379194, Control_c, 0, 64, 50
1, 379209, Control_c, 0, 64, 47
1, 379224, Control_c, 0, 64, 44
1, 379239, Control_c, 0, 64, 41
1, 379254, Control_c, 0, 64, 39
1, 379268, Control_c, 0, 64, 38
1, 379283, Control_c, 0, 64, 37
1, 379298, Control_c, 0, 64, 37
1, 379313, Control_c, 0, 64, 36
1, 379327, Note_on_c, 0, 77, 61
1, 379328, Control_c, 0, 64, 35
1, 379330, Note_on_c, 0, 74, 61
1, 379337, Note_off_c, 0, 75, 55
1, 379357, Control_c, 0, 64, 34
1, 379372, Control_c, 0, 64, 32
1, 379388, Control_c, 0, 64, 30
1, 379403, Control_c, 0, 64, 0
1, 379404, Note_off_c, 0, 79, 38
1, 379612, Note_on_c, 0, 75, 67
1, 379615, Note_off_c, 0, 74, 59
1, 379621, Note_on_c, 0, 72, 62
1, 379640, Note_off_c, 0, 77, 57
1, 379929, Note_on_c, 0, 74, 72
1, 379934, Note_off_c, 0, 72, 61
1, 379935, Note_on_c, 0, 71, 65
1, 379957, Note_off_c, 0, 75, 54
1, 380017, Control_c, 0, 64, 36
1, 380032, Control_c, 0, 64, 44
1, 380047, Control_c, 0, 64, 51
1, 380062, Control_c, 0, 64, 56
1, 380077, Control_c, 0, 64, 61
1, 380091, Control_c, 0, 64, 64
1, 380106, Control_c, 0, 64, 70
1, 380121, Control_c, 0, 64, 78
1, 380135, Control_c, 0, 64, 92
1, 380150, Control_c, 0, 64, 118
1, 380165, Control_c, 0, 64, 127
1, 380179, Note_off_c, 0, 71, 51
1, 380230, Note_off_c, 0, 74, 48
1, 380340, Note_on_c, 0, 74, 82
1, 380341, Note_on_c, 0, 71, 72
1, 380342, Note_on_c, 0, 59, 59
1, 380343, Note_on_c, 0, 65, 65
1, 380344, Control_c, 0, 64, 120
1, 380346, Note_on_c, 0, 62, 59
1, 380346, Note_on_c, 0, 55, 67
1, 380355, Note_on_c, 0, 67, 61
1, 380359, Control_c, 0, 64, 97
1, 380373, Control_c, 0, 64, 87
1, 380388, Control_c, 0, 64, 80
1, 380403, Control_c, 0, 64, 74
1, 380426, Control_c, 0, 64, 68
1, 380441, Control_c, 0, 64, 63
1, 380455, Control_c, 0, 64, 57
1, 380470, Control_c, 0, 64, 49
1, 380485, Control_c, 0, 64, 46
1, 380500, Control_c, 0, 64, 45
1, 380514, Control_c, 0, 64, 46
1, 380544, Control_c, 0, 64, 44
1, 380559, Control_c, 0, 64, 41
1, 380574, Control_c, 0, 64, 36
1, 380588, Control_c, 0, 64, 34
1, 380603, Control_c, 0, 64, 32
1, 380633, Control_c, 0, 64, 29
1, 380647, Control_c, 0, 64, 0
1, 381279, Control_c, 0, 64, 36
1, 381294, Control_c, 0, 64, 49
1, 381309, Control_c, 0, 64, 56
1, 381324, Control_c, 0, 64, 59
1, 381339, Control_c, 0, 64, 61
1, 381353, Control_c, 0, 64, 63
1, 381368, Control_c, 0, 64, 65
1, 381383, Control_c, 0, 64, 67
1, 381397, Control_c, 0, 64, 69
1, 381412, Control_c, 0, 64, 72
1, 381427, Control_c, 0, 64, 75
1, 381442, Control_c, 0, 64, 79
1, 381457, Note_off_c, 0, 62, 59
1, 381457, Control_c, 0, 64, 84
1, 381458, Note_off_c, 0, 59, 37
1, 381471, Control_c, 0, 64, 89
1, 381486, Control_c, 0, 64, 94
1, 381501, Control_c, 0, 64, 100
1, 381515, Note_off_c, 0, 55, 57
1, 381516, Control_c, 0, 64, 105
1, 381518, Note_off_c, 0, 71, 54
1, 381524, Note_off_c, 0, 74, 54
1, 381531, Control_c, 0, 64, 108
1, 381545, Control_c, 0, 64, 110
1, 381723, Control_c, 0, 64, 108
1, 381753, Control_c, 0, 64, 105
1, 381768, Control_c, 0, 64, 103
1, 381783, Control_c, 0, 64, 98
1, 381798, Control_c, 0, 64, 90
1, 381813, Control_c, 0, 64, 80
1, 381827, Control_c, 0, 64, 71
1, 381835, Note_off_c, 0, 67, 60
1, 381842, Note_on_c, 0, 75, 49
1, 381842, Control_c, 0, 64, 62
1, 381853, Note_off_c, 0, 65, 50
1, 381857, Control_c, 0, 64, 51
1, 381861, Note_on_c, 0, 63, 36
1, 381864, Note_on_c, 0, 60, 36
1, 381872, Control_c, 0, 64, 42
1, 381882, Note_on_c, 0, 72, 5
1, 381886, Control_c, 0, 64, 36
1, 381923, Control_c, 0, 64, 37
1, 381938, Control_c, 0, 64, 40
1, 381949, Note_off_c, 0, 72, 47
1, 381953, Control_c, 0, 64, 47
1, 381968, Control_c, 0, 64, 58
1, 381983, Control_c, 0, 64, 66
1, 381998, Control_c, 0, 64, 74
1, 382011, Note_off_c, 0, 75, 63
1, 382012, Control_c, 0, 64, 85
1, 382027, Control_c, 0, 64, 93
1, 382042, Control_c, 0, 64, 98
1, 382057, Control_c, 0, 64, 101
1, 382146, Control_c, 0, 64, 99
1, 382160, Control_c, 0, 64, 96
1, 382175, Control_c, 0, 64, 93
1, 382185, Note_on_c, 0, 77, 48
1, 382190, Control_c, 0, 64, 90
1, 382205, Control_c, 0, 64, 87
1, 382219, Control_c, 0, 64, 85
1, 382234, Control_c, 0, 64, 83
1, 382249, Note_on_c, 0, 75, 61
1, 382249, Control_c, 0, 64, 81
1, 382264, Control_c, 0, 64, 78
1, 382272, Note_off_c, 0, 77, 61
1, 382279, Control_c, 0, 64, 76
1, 382293, Control_c, 0, 64, 73
1, 382306, Note_off_c, 0, 75, 63
1, 382308, Control_c, 0, 64, 72
1, 382312, Note_on_c, 0, 74, 67
1, 382323, Control_c, 0, 64, 70
1, 382337, Control_c, 0, 64, 68
1, 382352, Control_c, 0, 64, 66
1, 382367, Control_c, 0, 64, 64
1, 382376, Note_on_c, 0, 75, 59
1, 382382, Control_c, 0, 64, 61
1, 382397, Control_c, 0, 64, 59
1, 382412, Control_c, 0, 64, 57
1, 382427, Control_c, 0, 64, 55
1, 382442, Control_c, 0, 64, 53
1, 382448, Note_off_c, 0, 63, 42
1, 382457, Control_c, 0, 64, 49
1, 382469, Note_on_c, 0, 69, 41
1, 382472, Control_c, 0, 64, 44
1, 382476, Note_on_c, 0, 77, 62
1, 382484, Note_off_c, 0, 74, 34
1, 382486, Control_c, 0, 64, 34
1, 382501, Control_c, 0, 64, 0
1, 382543, Note_off_c, 0, 75, 55
1, 382687, Control_c, 0, 64, 34
1, 382702, Control_c, 0, 64, 48
1, 382716, Control_c, 0, 64, 57
1, 382731, Control_c, 0, 64, 61
1, 382746, Control_c, 0, 64, 62
1, 382761, Control_c, 0, 64, 64
1, 382776, Control_c, 0, 64, 65
1, 382778, Note_off_c, 0, 60, 56
1, 382791, Control_c, 0, 64, 68
1, 382805, Control_c, 0, 64, 70
1, 382820, Note_on_c, 0, 79, 69
1, 382820, Control_c, 0, 64, 73
1, 382832, Note_off_c, 0, 69, 55
1, 382835, Note_off_c, 0, 77, 56
1, 382835, Control_c, 0, 64, 75
1, 382850, Control_c, 0, 64, 76
1, 382865, Control_c, 0, 64, 77
1, 382880, Control_c, 0, 64, 78
1, 382895, Control_c, 0, 64, 78
1, 382909, Control_c, 0, 64, 79
1, 383028, Control_c, 0, 64, 78
1, 383057, Control_c, 0, 64, 78
1, 383072, Control_c, 0, 64, 77
1, 383087, Control_c, 0, 64, 77
1, 383102, Control_c, 0, 64, 76
1, 383116, Control_c, 0, 64, 75
1, 383131, Control_c, 0, 64, 74
1, 383146, Control_c, 0, 64, 71
1, 383160, Control_c, 0, 64, 68
1, 383169, Note_on_c, 0, 77, 54
1, 383171, Note_on_c, 0, 62, 37
1, 383175, Note_on_c, 0, 70, 40
1, 383175, Control_c, 0, 64, 64
1, 383190, Control_c, 0, 64, 59
1, 383205, Control_c, 0, 64, 52
1, 383220, Control_c, 0, 64, 45
1, 383235, Control_c, 0, 64, 39
1, 383249, Note_off_c, 0, 79, 48
1, 383250, Control_c, 0, 64, 36
1, 383279, Control_c, 0, 64, 37
1, 383294, Control_c, 0, 64, 39
1, 383309, Control_c, 0, 64, 43
1, 383324, Control_c, 0, 64, 48
1, 383339, Control_c, 0, 64, 54
1, 383354, Control_c, 0, 64, 58
1, 383369, Control_c, 0, 64, 60
1, 383384, Control_c, 0, 64, 62
1, 383399, Control_c, 0, 64, 64
1, 383422, Control_c, 0, 64, 66
1, 383428, Note_on_c, 0, 75, 64
1, 383437, Control_c, 0, 64, 68
1, 383452, Control_c, 0, 64, 70
1, 383466, Control_c, 0, 64, 71
1, 383470, Note_off_c, 0, 77, 60
1, 383481, Control_c, 0, 64, 72
1, 383511, Control_c, 0, 64, 72
1, 383602, Note_on_c, 0, 74, 73
1, 383648, Note_off_c, 0, 75, 62
1, 383673, Control_c, 0, 64, 72
1, 383688, Control_c, 0, 64, 71
1, 383703, Control_c, 0, 64, 69
1, 383718, Control_c, 0, 64, 66
1, 383733, Control_c, 0, 64, 61
1, 383735, Note_off_c, 0, 62, 39
1, 383747, Control_c, 0, 64, 56
1, 383762, Control_c, 0, 64, 52
1, 383781, Note_on_c, 0, 67, 50
1, 383784, Note_on_c, 0, 72, 68
1, 383792, Control_c, 0, 64, 52
1, 383795, Note_on_c, 0, 63, 40
1, 383807, Control_c, 0, 64, 53
1, 383815, Note_off_c, 0, 74, 57
1, 383822, Control_c, 0, 64, 54
1, 383834, Note_off_c, 0, 70, 36
1, 383837, Control_c, 0, 64, 56
1, 383852, Control_c, 0, 64, 58
1, 383866, Control_c, 0, 64, 60
1, 383881, Control_c, 0, 64, 62
1, 383896, Control_c, 0, 64, 63
1, 383910, Control_c, 0, 64, 65
1, 383911, Note_off_c, 0, 67, 62
1, 383925, Control_c, 0, 64, 66
1, 383940, Control_c, 0, 64, 68
1, 383955, Control_c, 0, 64, 69
1, 383962, Note_on_c, 0, 75, 71
1, 383970, Control_c, 0, 64, 70
1, 383984, Control_c, 0, 64, 71
1, 383990, Note_off_c, 0, 72, 63
1, 383995, Note_off_c, 0, 63, 62
1, 383999, Control_c, 0, 64, 72
1, 384014, Control_c, 0, 64, 73
1, 384029, Control_c, 0, 64, 73
1, 384044, Control_c, 0, 64, 74
1, 384129, Note_on_c, 0, 79, 70
1, 384162, Note_off_c, 0, 75, 58
1, 384170, Control_c, 0, 64, 73
1, 384201, Control_c, 0, 64, 73
1, 384215, Control_c, 0, 64, 72
1, 384230, Control_c, 0, 64, 72
1, 384245, Control_c, 0, 64, 71
1, 384260, Control_c, 0, 64, 70
1, 384275, Control_c, 0, 64, 69
1, 384289, Control_c, 0, 64, 68
1, 384304, Control_c, 0, 64, 67
1, 384319, Control_c, 0, 64, 65
1, 384334, Control_c, 0, 64, 64
1, 384349, Control_c, 0, 64, 63
1, 384363, Control_c, 0, 64, 62
1, 384378, Control_c, 0, 64, 60
1, 384393, Control_c, 0, 64, 56
1, 384400, Note_on_c, 0, 70, 53
1, 384407, Control_c, 0, 64, 49
1, 384422, Control_c, 0, 64, 35
1, 384429, Note_on_c, 0, 53, 23
1, 384437, Control_c, 0, 64, 0
1, 384438, Note_on_c, 0, 62, 27
1, 384457, Note_off_c, 0, 79, 38
1, 384867, Control_c, 0, 64, 29
1, 384881, Control_c, 0, 64, 34
1, 384896, Control_c, 0, 64, 35
1, 384963, Control_c, 0, 64, 35
1, 384978, Control_c, 0, 64, 32
1, 384993, Control_c, 0, 64, 0
1, 385041, Note_off_c, 0, 70, 57
1, 385054, Note_on_c, 0, 63, 38
1, 385056, Note_on_c, 0, 72, 39
1, 385062, Note_on_c, 0, 69, 26
1, 385122, Note_off_c, 0, 62, 45
1, 385171, Control_c, 0, 64, 35
1, 385186, Control_c, 0, 64, 47
1, 385201, Control_c, 0, 64, 55
1, 385216, Control_c, 0, 64, 60
1, 385230, Control_c, 0, 64, 63
1, 385245, Control_c, 0, 64, 66
1, 385260, Control_c, 0, 64, 69
1, 385275, Note_off_c, 0, 72, 60
1, 385275, Control_c, 0, 64, 74
1, 385290, Control_c, 0, 64, 82
1, 385299, Note_off_c, 0, 69, 39
1, 385304, Control_c, 0, 64, 94
1, 385318, Note_off_c, 0, 53, 38
1, 385319, Control_c, 0, 64, 118
1, 385334, Control_c, 0, 64, 127
1, 385429, Note_off_c, 0, 63, 40
1, 385704, Note_on_c, 0, 72, 50
1, 385717, Note_on_c, 0, 69, 28
1, 385726, Note_on_c, 0, 63, 36
1, 385731, Note_on_c, 0, 58, 30
1, 385742, Control_c, 0, 64, 99
1, 385757, Control_c, 0, 64, 82
1, 385771, Control_c, 0, 64, 72
1, 385787, Control_c, 0, 64, 65
1, 385802, Control_c, 0, 64, 59
1, 385817, Control_c, 0, 64, 55
1, 385847, Control_c, 0, 64, 56
1, 385861, Control_c, 0, 64, 58
1, 385876, Control_c, 0, 64, 61
1, 385891, Control_c, 0, 64, 63
1, 385906, Control_c, 0, 64, 66
1, 385921, Control_c, 0, 64, 69
1, 385935, Control_c, 0, 64, 71
1, 385950, Control_c, 0, 64, 73
1, 385965, Control_c, 0, 64, 74
1, 385980, Control_c, 0, 64, 74
1, 386069, Control_c, 0, 64, 74
1, 386072, Note_on_c, 0, 65, 39
1, 386084, Control_c, 0, 64, 73
1, 386099, Control_c, 0, 64, 72
1, 386105, Note_off_c, 0, 63, 47
1, 386113, Control_c, 0, 64, 71
1, 386128, Control_c, 0, 64, 69
1, 386129, Note_off_c, 0, 65, 57
1, 386143, Control_c, 0, 64, 67
1, 386158, Control_c, 0, 64, 66
1, 386173, Control_c, 0, 64, 64
1, 386186, Note_on_c, 0, 73, 48
1, 386187, Control_c, 0, 64, 62
1, 386202, Control_c, 0, 64, 61
1, 386204, Note_off_c, 0, 72, 51
1, 386217, Control_c, 0, 64, 59
1, 386232, Control_c, 0, 64, 57
1, 386247, Control_c, 0, 64, 55
1, 386261, Control_c, 0, 64, 53
1, 386276, Control_c, 0, 64, 50
1, 386291, Control_c, 0, 64, 46
1, 386305, Control_c, 0, 64, 41
1, 386320, Control_c, 0, 64, 35
1, 386325, Note_off_c, 0, 69, 39
1, 386334, Note_off_c, 0, 73, 57
1, 386335, Control_c, 0, 64, 0
1, 386339, Note_on_c, 0, 74, 50
1, 386349, Note_on_c, 0, 70, 37
1, 386352, Note_on_c, 0, 65, 31
1, 386407, Note_off_c, 0, 65, 60
1, 386479, Note_off_c, 0, 58, 43
1, 386656, Note_on_c, 0, 65, 40
1, 386703, Note_off_c, 0, 65, 60
1, 386967, Note_on_c, 0, 62, 33
1, 386968, Note_off_c, 0, 70, 39
1, 386969, Note_on_c, 0, 58, 28
1, 387030, Note_off_c, 0, 74, 48
1, 387280, Note_on_c, 0, 65, 36
1, 387389, Note_off_c, 0, 62, 36
1, 387569, Note_off_c, 0, 58, 43
1, 387582, Note_on_c, 0, 63, 39
1, 387590, Note_on_c, 0, 60, 40
1, 387596, Note_off_c, 0, 65, 42
1, 387882, Note_on_c, 0, 65, 39
1, 388035, Note_off_c, 0, 63, 41
1, 388039, Note_off_c, 0, 60, 44
1, 388204, Note_on_c, 0, 75, 64
1, 388213, Note_off_c, 0, 65, 35
1, 388228, Note_on_c, 0, 57, 30
1, 388233, Note_on_c, 0, 60, 14
1, 388526, Note_on_c, 0, 65, 32
1, 388537, Control_c, 0, 67, 19
1, 388565, Note_off_c, 0, 60, 45
1, 388580, Control_c, 0, 67, 23
1, 388584, Note_off_c, 0, 65, 56
1, 388610, Control_c, 0, 67, 26
1, 388625, Control_c, 0, 67, 28
1, 388640, Control_c, 0, 67, 30
1, 388662, Control_c, 0, 67, 33
1, 388677, Control_c, 0, 67, 34
1, 388721, Control_c, 0, 67, 34
1, 388736, Control_c, 0, 67, 35
1, 388751, Control_c, 0, 67, 35
1, 388851, Note_on_c, 0, 65, 38
1, 388884, Control_c, 0, 67, 35
1, 388890, Note_off_c, 0, 65, 51
1, 388899, Control_c, 0, 67, 34
1, 388901, Note_off_c, 0, 75, 59
1, 389003, Control_c, 0, 67, 34
1, 389018, Control_c, 0, 67, 33
1, 389034, Note_off_c, 0, 57, 34
1, 389137, Control_c, 0, 67, 33
1, 389158, Note_on_c, 0, 65, 40
1, 389189, Note_off_c, 0, 65, 56
1, 389211, Control_c, 0, 67, 32
1, 389441, Control_c, 0, 67, 32
1, 389447, Note_on_c, 0, 72, 53
1, 389470, Note_on_c, 0, 57, 23
1, 389471, Note_on_c, 0, 53, 20
1, 389516, Note_off_c, 0, 72, 55
1, 389766, Note_on_c, 0, 65, 29
1, 389905, Note_off_c, 0, 53, 33
1, 390035, Note_on_c, 0, 69, 51
1, 390046, Note_on_c, 0, 60, 29
1, 390053, Note_on_c, 0, 63, 28
1, 390056, Note_off_c, 0, 65, 40
1, 390093, Note_off_c, 0, 57, 33
1, 390115, Note_off_c, 0, 69, 59
1, 390351, Note_on_c, 0, 65, 39
1, 390410, Note_off_c, 0, 63, 38
1, 390681, Note_off_c, 0, 65, 38
1, 390690, Note_on_c, 0, 77, 57
1, 390714, Note_on_c, 0, 62, 26
1, 390715, Note_on_c, 0, 58, 17
1, 390779, Note_off_c, 0, 60, 16
1, 390857, Control_c, 0, 64, 45
1, 390872, Control_c, 0, 64, 56
1, 390887, Control_c, 0, 64, 61
1, 390909, Control_c, 0, 64, 64
1, 390924, Control_c, 0, 64, 66
1, 390939, Control_c, 0, 64, 69
1, 390954, Control_c, 0, 64, 72
1, 390964, Note_off_c, 0, 77, 56
1, 390969, Control_c, 0, 64, 75
1, 390983, Control_c, 0, 64, 78
1, 390998, Control_c, 0, 64, 79
1, 391053, Note_on_c, 0, 65, 34
1, 391105, Note_off_c, 0, 65, 44
1, 391158, Note_on_c, 0, 74, 47
1, 391161, Control_c, 0, 64, 78
1, 391176, Control_c, 0, 64, 77
1, 391191, Control_c, 0, 64, 76
1, 391206, Control_c, 0, 64, 75
1, 391220, Control_c, 0, 64, 72
1, 391235, Control_c, 0, 64, 69
1, 391250, Control_c, 0, 64, 66
1, 391265, Control_c, 0, 64, 63
1, 391280, Control_c, 0, 64, 59
1, 391294, Control_c, 0, 64, 55
1, 391298, Note_on_c, 0, 77, 51
1, 391309, Control_c, 0, 64, 52
1, 391321, Note_on_c, 0, 65, 30
1, 391324, Control_c, 0, 64, 48
1, 391328, Note_off_c, 0, 74, 50
1, 391339, Control_c, 0, 64, 43
1, 391348, Note_off_c, 0, 62, 41
1, 391354, Control_c, 0, 64, 36
1, 391370, Control_c, 0, 64, 0
1, 391371, Note_off_c, 0, 65, 50
1, 391415, Note_off_c, 0, 58, 45
1, 391602, Note_on_c, 0, 65, 44
1, 391656, Note_off_c, 0, 65, 58
1, 391898, Note_on_c, 0, 62, 35
1, 391901, Note_on_c, 0, 58, 37
1, 391945, Note_off_c, 0, 77, 60
1, 392213, Note_on_c, 0, 65, 37
1, 392334, Note_off_c, 0, 62, 41
1, 392473, Note_off_c, 0, 58, 44
1, 392482, Note_on_c, 0, 60, 50
1, 392484, Note_on_c, 0, 63, 45
1, 392496, Note_off_c, 0, 65, 43
1, 392782, Note_on_c, 0, 65, 47
1, 392960, Note_off_c, 0, 63, 35
1, 392965, Note_off_c, 0, 60, 32
1, 393122, Note_on_c, 0, 75, 65
1, 393131, Note_on_c, 0, 60, 24
1, 393148, Note_on_c, 0, 57, 37
1, 393168, Note_off_c, 0, 65, 39
1, 393468, Note_on_c, 0, 65, 35
1, 393490, Note_off_c, 0, 60, 51
1, 393528, Note_off_c, 0, 65, 55
1, 393772, Note_on_c, 0, 65, 40
1, 393814, Note_off_c, 0, 65, 52
1, 393835, Note_off_c, 0, 75, 59
1, 393944, Note_off_c, 0, 57, 38
1, 394113, Poly_aftertouch_c, 0, 65, 127
1, 394158, Poly_aftertouch_c, 0, 65, 0
1, 394345, Note_on_c, 0, 72, 52
1, 394367, Note_on_c, 0, 53, 30
1, 394371, Note_on_c, 0, 57, 25
1, 394389, Note_off_c, 0, 72, 62
1, 394663, Note_on_c, 0, 65, 40
1, 394947, Note_on_c, 0, 60, 37
1, 394947, Note_on_c, 0, 69, 55
1, 394953, Note_on_c, 0, 63, 35
1, 394959, Note_off_c, 0, 53, 19
1, 394959, Note_off_c, 0, 65, 40
1, 395039, Note_off_c, 0, 57, 42
1, 395052, Note_off_c, 0, 69, 55
1, 395260, Note_on_c, 0, 65, 43
1, 395328, Note_off_c, 0, 63, 42
1, 395521, Control_c, 0, 67, 30
1, 395597, Note_off_c, 0, 60, 27
1, 395624, Note_off_c, 0, 65, 43
1, 395629, Note_on_c, 0, 77, 60
1, 395635, Note_on_c, 0, 58, 39
1, 395652, Note_on_c, 0, 62, 29
1, 395684, Control_c, 0, 67, 27
1, 395728, Control_c, 0, 67, 25
1, 395758, Control_c, 0, 64, 33
1, 395772, Control_c, 0, 64, 49
1, 395772, Control_c, 0, 67, 22
1, 395787, Control_c, 0, 64, 59
1, 395802, Control_c, 0, 64, 63
1, 395802, Control_c, 0, 67, 20
1, 395817, Control_c, 0, 64, 66
1, 395817, Control_c, 0, 67, 0
1, 395832, Control_c, 0, 64, 70
1, 395847, Control_c, 0, 64, 76
1, 395862, Control_c, 0, 64, 85
1, 395876, Note_off_c, 0, 77, 58
1, 395877, Control_c, 0, 64, 95
1, 395891, Control_c, 0, 64, 109
1, 395906, Control_c, 0, 64, 127
1, 396196, Control_c, 0, 64, 122
1, 396202, Note_on_c, 0, 82, 62
1, 396211, Control_c, 0, 64, 112
1, 396226, Control_c, 0, 64, 103
1, 396240, Control_c, 0, 64, 96
1, 396255, Control_c, 0, 64, 89
1, 396270, Control_c, 0, 64, 83
1, 396285, Control_c, 0, 64, 78
1, 396300, Control_c, 0, 64, 73
1, 396315, Control_c, 0, 64, 68
1, 396330, Control_c, 0, 64, 65
1, 396345, Control_c, 0, 64, 62
1, 396360, Control_c, 0, 64, 59
1, 396375, Control_c, 0, 64, 57
1, 396389, Control_c, 0, 64, 56
1, 396404, Control_c, 0, 64, 55
1, 396410, Note_on_c, 0, 77, 46
1, 396410, Note_off_c, 0, 58, 42
1, 396419, Control_c, 0, 64, 54
1, 396426, Note_off_c, 0, 62, 53
1, 396434, Control_c, 0, 64, 54
1, 396448, Control_c, 0, 64, 53
1, 396451, Note_off_c, 0, 82, 36
1, 396463, Control_c, 0, 64, 52
1, 396478, Control_c, 0, 64, 51
1, 396493, Control_c, 0, 64, 50
1, 396508, Control_c, 0, 64, 49
1, 396522, Control_c, 0, 64, 48
1, 396537, Control_c, 0, 64, 47
1, 396552, Control_c, 0, 64, 46
1, 396566, Control_c, 0, 64, 45
1, 396581, Control_c, 0, 64, 44
1, 396596, Control_c, 0, 64, 43
1, 396611, Control_c, 0, 64, 42
1, 396626, Control_c, 0, 64, 40
1, 396640, Control_c, 0, 64, 37
1, 396655, Control_c, 0, 64, 34
1, 396670, Control_c, 0, 64, 31
1, 396685, Control_c, 0, 64, 0
1, 396822, Note_off_c, 0, 77, 26
1, 397272, Note_on_c, 0, 86, 81
1, 397274, Note_on_c, 0, 82, 73
1, 397282, Note_on_c, 0, 70, 50
1, 397283, Note_on_c, 0, 74, 50
1, 397374, Control_c, 0, 64, 34
1, 397388, Control_c, 0, 64, 44
1, 397403, Control_c, 0, 64, 54
1, 397418, Control_c, 0, 64, 61
1, 397433, Control_c, 0, 64, 65
1, 397448, Control_c, 0, 64, 69
1, 397463, Control_c, 0, 64, 75
1, 397477, Control_c, 0, 64, 84
1, 397483, Note_off_c, 0, 74, 54
1, 397492, Control_c, 0, 64, 96
1, 397507, Control_c, 0, 64, 114
1, 397522, Control_c, 0, 64, 127
1, 397581, Control_c, 0, 64, 125
1, 397596, Control_c, 0, 64, 114
1, 397611, Control_c, 0, 64, 103
1, 397626, Control_c, 0, 64, 93
1, 397648, Control_c, 0, 64, 81
1, 397655, Note_off_c, 0, 70, 34
1, 397659, Note_on_c, 0, 69, 38
1, 397662, Note_on_c, 0, 84, 54
1, 397662, Control_c, 0, 64, 71
1, 397663, Note_off_c, 0, 82, 57
1, 397665, Note_on_c, 0, 81, 56
1, 397677, Control_c, 0, 64, 63
1, 397684, Note_on_c, 0, 72, 30
1, 397692, Control_c, 0, 64, 54
1, 397695, Note_off_c, 0, 86, 33
1, 397707, Control_c, 0, 64, 44
1, 397722, Control_c, 0, 64, 40
1, 397737, Control_c, 0, 64, 39
1, 397767, Control_c, 0, 64, 40
1, 397782, Control_c, 0, 64, 42
1, 397797, Control_c, 0, 64, 46
1, 397811, Control_c, 0, 64, 52
1, 397826, Control_c, 0, 64, 57
1, 397841, Control_c, 0, 64, 60
1, 397856, Control_c, 0, 64, 62
1, 397871, Control_c, 0, 64, 64
1, 397886, Control_c, 0, 64, 66
1, 397901, Control_c, 0, 64, 67
1, 397916, Control_c, 0, 64, 67
1, 397931, Control_c, 0, 64, 66
1, 397946, Control_c, 0, 64, 63
1, 397960, Control_c, 0, 64, 57
1, 397975, Control_c, 0, 64, 49
1, 397984, Note_on_c, 0, 82, 54
1, 397989, Note_on_c, 0, 67, 39
1, 397989, Note_on_c, 0, 79, 49
1, 397990, Note_off_c, 0, 84, 32
1, 397990, Control_c, 0, 64, 44
1, 397990, Note_off_c, 0, 81, 42
1, 397991, Note_on_c, 0, 70, 37
1, 397991, Note_off_c, 0, 72, 38
1, 398005, Control_c, 0, 64, 42
1, 398006, Note_off_c, 0, 69, 31
1, 398049, Control_c, 0, 64, 44
1, 398064, Control_c, 0, 64, 46
1, 398079, Control_c, 0, 64, 50
1, 398093, Control_c, 0, 64, 55
1, 398108, Control_c, 0, 64, 60
1, 398123, Control_c, 0, 64, 63
1, 398137, Control_c, 0, 64, 66
1, 398152, Control_c, 0, 64, 69
1, 398167, Control_c, 0, 64, 73
1, 398176, Note_off_c, 0, 70, 53
1, 398182, Control_c, 0, 64, 76
1, 398187, Note_off_c, 0, 82, 59
1, 398197, Control_c, 0, 64, 78
1, 398211, Control_c, 0, 64, 78
1, 398226, Note_off_c, 0, 67, 33
1, 398241, Control_c, 0, 64, 75
1, 398256, Control_c, 0, 64, 68
1, 398271, Control_c, 0, 64, 62
1, 398285, Control_c, 0, 64, 57
1, 398286, Note_on_c, 0, 81, 59
1, 398297, Note_on_c, 0, 69, 40
1, 398297, Note_on_c, 0, 78, 55
1, 398301, Note_on_c, 0, 66, 42
1, 398301, Note_off_c, 0, 79, 49
1, 398301, Control_c, 0, 64, 57
1, 398316, Control_c, 0, 64, 58
1, 398330, Control_c, 0, 64, 59
1, 398345, Control_c, 0, 64, 61
1, 398360, Control_c, 0, 64, 63
1, 398375, Control_c, 0, 64, 66
1, 398398, Control_c, 0, 64, 71
1, 398411, Note_off_c, 0, 69, 37
1, 398412, Control_c, 0, 64, 77
1, 398427, Control_c, 0, 64, 82
1, 398442, Control_c, 0, 64, 87
1, 398457, Control_c, 0, 64, 94
1, 398470, Note_off_c, 0, 66, 61
1, 398472, Control_c, 0, 64, 101
1, 398486, Control_c, 0, 64, 107
1, 398493, Note_off_c, 0, 78, 37
1, 398501, Control_c, 0, 64, 112
1, 398516, Note_off_c, 0, 81, 54
1, 398591, Control_c, 0, 64, 110
1, 398606, Control_c, 0, 64, 101
1, 398621, Control_c, 0, 64, 90
1, 398629, Note_on_c, 0, 67, 68
1, 398634, Note_on_c, 0, 82, 81
1, 398635, Control_c, 0, 64, 79
1, 398636, Note_on_c, 0, 79, 78
1, 398637, Note_on_c, 0, 70, 66
1, 398650, Control_c, 0, 64, 69
1, 398665, Control_c, 0, 64, 62
1, 398680, Control_c, 0, 64, 54
1, 398695, Control_c, 0, 64, 48
1, 398709, Control_c, 0, 64, 43
1, 398724, Control_c, 0, 64, 40
1, 398739, Control_c, 0, 64, 37
1, 398754, Control_c, 0, 64, 36
1, 398768, Control_c, 0, 64, 36
1, 398783, Control_c, 0, 64, 37
1, 398798, Control_c, 0, 64, 40
1, 398813, Control_c, 0, 64, 47
1, 398828, Control_c, 0, 64, 51
1, 398843, Control_c, 0, 64, 54
1, 398858, Control_c, 0, 64, 53
1, 398867, Note_off_c, 0, 70, 59
1, 398873, Control_c, 0, 64, 52
1, 398887, Control_c, 0, 64, 49
1, 398902, Control_c, 0, 64, 45
1, 398917, Control_c, 0, 64, 42
1, 398932, Control_c, 0, 64, 38
1, 398941, Note_off_c, 0, 82, 54
1, 398947, Control_c, 0, 64, 33
1, 398956, Note_off_c, 0, 79, 60
1, 398961, Control_c, 0, 64, 0
1, 398966, Note_on_c, 0, 69, 47
1, 398967, Note_on_c, 0, 65, 50
1, 398973, Note_off_c, 0, 67, 32
1, 398974, Note_on_c, 0, 81, 55
1, 398989, Note_on_c, 0, 77, 37
1, 399050, Control_c, 0, 64, 33
1, 399065, Control_c, 0, 64, 46
1, 399080, Control_c, 0, 64, 56
1, 399091, Note_off_c, 0, 81, 60
1, 399095, Control_c, 0, 64, 61
1, 399109, Control_c, 0, 64, 64
1, 399124, Control_c, 0, 64, 66
1, 399147, Control_c, 0, 64, 67
1, 399162, Control_c, 0, 64, 68
1, 399168, Note_off_c, 0, 65, 39
1, 399176, Control_c, 0, 64, 68
1, 399221, Control_c, 0, 64, 66
1, 399236, Control_c, 0, 64, 62
1, 399250, Control_c, 0, 64, 55
1, 399254, Note_off_c, 0, 69, 32
1, 399265, Control_c, 0, 64, 46
1, 399276, Note_on_c, 0, 79, 57
1, 399278, Note_off_c, 0, 77, 44
1, 399280, Control_c, 0, 64, 37
1, 399284, Note_on_c, 0, 67, 41
1, 399295, Control_c, 0, 64, 0
1, 399298, Note_on_c, 0, 75, 39
1, 399301, Note_on_c, 0, 63, 36
1, 399502, Note_off_c, 0, 67, 47
1, 399571, Note_off_c, 0, 75, 54
1, 399581, Note_off_c, 0, 63, 52
1, 399585, Note_off_c, 0, 79, 59
1, 399588, Note_on_c, 0, 78, 51
1, 399604, Note_on_c, 0, 66, 33
1, 399606, Note_on_c, 0, 62, 35
1, 399612, Note_on_c, 0, 74, 32
1, 399665, Control_c, 0, 64, 34
1, 399680, Control_c, 0, 64, 48
1, 399695, Control_c, 0, 64, 58
1, 399710, Control_c, 0, 64, 64
1, 399714, Note_off_c, 0, 66, 55
1, 399725, Control_c, 0, 64, 69
1, 399740, Control_c, 0, 64, 76
1, 399755, Control_c, 0, 64, 89
1, 399760, Note_off_c, 0, 62, 59
1, 399766, Note_off_c, 0, 74, 40
1, 399766, Note_off_c, 0, 78, 52
1, 399770, Control_c, 0, 64, 114
1, 399784, Control_c, 0, 64, 127
1, 399895, Control_c, 0, 64, 100
1, 399907, Note_on_c, 0, 63, 63
1, 399910, Control_c, 0, 64, 75
1, 399915, Note_on_c, 0, 79, 80
1, 399920, Note_on_c, 0, 75, 67
1, 399925, Control_c, 0, 64, 63
1, 399940, Control_c, 0, 64, 54
1, 399948, Note_on_c, 0, 69, 38
1, 399950, Note_on_c, 0, 67, 44
1, 399955, Control_c, 0, 64, 51
1, 399970, Control_c, 0, 64, 53
1, 399984, Control_c, 0, 64, 57
1, 399999, Control_c, 0, 64, 61
1, 400003, Note_off_c, 0, 69, 61
1, 400014, Control_c, 0, 64, 66
1, 400029, Control_c, 0, 64, 72
1, 400044, Control_c, 0, 64, 84
1, 400056, Note_off_c, 0, 67, 55
1, 400059, Control_c, 0, 64, 107
1, 400073, Control_c, 0, 64, 127
1, 400207, Control_c, 0, 64, 95
1, 400222, Control_c, 0, 64, 82
1, 400237, Control_c, 0, 64, 74
1, 400248, Note_on_c, 0, 62, 49
1, 400252, Control_c, 0, 64, 68
1, 400254, Note_on_c, 0, 74, 58
1, 400255, Note_on_c, 0, 77, 55
1, 400267, Control_c, 0, 64, 63
1, 400271, Note_off_c, 0, 75, 54
1, 400274, Note_on_c, 0, 65, 40
1, 400281, Control_c, 0, 64, 58
1, 400288, Note_off_c, 0, 63, 45
1, 400296, Control_c, 0, 64, 52
1, 400311, Control_c, 0, 64, 49
1, 400326, Control_c, 0, 64, 48
1, 400332, Note_off_c, 0, 79, 35
1, 400340, Control_c, 0, 64, 47
1, 400355, Control_c, 0, 64, 45
1, 400370, Control_c, 0, 64, 43
1, 400385, Control_c, 0, 64, 40
1, 400400, Control_c, 0, 64, 35
1, 400414, Control_c, 0, 64, 0
1, 400560, Note_on_c, 0, 75, 54
1, 400563, Note_off_c, 0, 74, 56
1, 400564, Note_on_c, 0, 63, 45
1, 400566, Note_on_c, 0, 72, 50
1, 400568, Note_off_c, 0, 62, 52
1, 400569, Note_on_c, 0, 60, 46
1, 400585, Note_off_c, 0, 77, 55
1, 400618, Note_off_c, 0, 65, 41
1, 400643, Control_c, 0, 64, 38
1, 400658, Control_c, 0, 64, 49
1, 400673, Control_c, 0, 64, 57
1, 400688, Control_c, 0, 64, 61
1, 400703, Control_c, 0, 64, 64
1, 400718, Control_c, 0, 64, 66
1, 400732, Control_c, 0, 64, 68
1, 400747, Control_c, 0, 64, 70
1, 400762, Control_c, 0, 64, 72
1, 400777, Control_c, 0, 64, 72
1, 400806, Control_c, 0, 64, 71
1, 400821, Control_c, 0, 64, 67
1, 400836, Control_c, 0, 64, 61
1, 400851, Control_c, 0, 64, 53
1, 400861, Note_off_c, 0, 63, 38
1, 400866, Control_c, 0, 64, 44
1, 400873, Note_off_c, 0, 72, 62
1, 400880, Control_c, 0, 64, 37
1, 400882, Note_off_c, 0, 75, 53
1, 400885, Note_on_c, 0, 62, 50
1, 400886, Note_on_c, 0, 71, 53
1, 400888, Note_on_c, 0, 74, 62
1, 400892, Note_off_c, 0, 60, 56
1, 400895, Control_c, 0, 64, 34
1, 400896, Note_on_c, 0, 59, 47
1, 400910, Control_c, 0, 64, 36
1, 400925, Control_c, 0, 64, 40
1, 400939, Control_c, 0, 64, 47
1, 400955, Control_c, 0, 64, 54
1, 400970, Control_c, 0, 64, 59
1, 400985, Control_c, 0, 64, 63
1, 400995, Note_off_c, 0, 62, 60
1, 401000, Control_c, 0, 64, 66
1, 401015, Control_c, 0, 64, 69
1, 401029, Control_c, 0, 64, 75
1, 401032, Note_off_c, 0, 59, 61
1, 401044, Control_c, 0, 64, 81
1, 401059, Control_c, 0, 64, 89
1, 401074, Control_c, 0, 64, 100
1, 401089, Control_c, 0, 64, 116
1, 401103, Control_c, 0, 64, 127
1, 401126, Note_off_c, 0, 71, 30
1, 401144, Note_off_c, 0, 74, 27
1, 401311, Control_c, 0, 64, 125
1, 401321, Note_on_c, 0, 62, 59
1, 401321, Note_on_c, 0, 74, 71
1, 401324, Note_on_c, 0, 55, 61
1, 401326, Note_on_c, 0, 71, 65
1, 401326, Note_on_c, 0, 67, 58
1, 401326, Control_c, 0, 64, 104
1, 401329, Note_on_c, 0, 59, 52
1, 401329, Note_on_c, 0, 65, 61
1, 401341, Control_c, 0, 64, 94
1, 401356, Control_c, 0, 64, 87
1, 401371, Control_c, 0, 64, 81
1, 401393, Control_c, 0, 64, 77
1, 401408, Control_c, 0, 64, 72
1, 401423, Control_c, 0, 64, 68
1, 401437, Control_c, 0, 64, 64
1, 401452, Control_c, 0, 64, 61
1, 401467, Control_c, 0, 64, 57
1, 401482, Control_c, 0, 64, 54
1, 401497, Control_c, 0, 64, 52
1, 401511, Control_c, 0, 64, 51
1, 401526, Control_c, 0, 64, 49
1, 401541, Control_c, 0, 64, 47
1, 401555, Control_c, 0, 64, 44
1, 401570, Control_c, 0, 64, 40
1, 401585, Control_c, 0, 64, 37
1, 401600, Control_c, 0, 64, 33
1, 401615, Control_c, 0, 64, 0
1, 402104, Control_c, 0, 64, 29
1, 402119, Control_c, 0, 64, 39
1, 402142, Control_c, 0, 64, 47
1, 402157, Control_c, 0, 64, 53
1, 402172, Control_c, 0, 64, 57
1, 402183, Note_off_c, 0, 59, 32
1, 402186, Control_c, 0, 64, 59
1, 402201, Control_c, 0, 64, 61
1, 402216, Control_c, 0, 64, 62
1, 402231, Control_c, 0, 64, 64
1, 402240, Note_off_c, 0, 62, 55
1, 402246, Control_c, 0, 64, 66
1, 402260, Control_c, 0, 64, 69
1, 402275, Control_c, 0, 64, 72
1, 402290, Control_c, 0, 64, 75
1, 402304, Control_c, 0, 64, 79
1, 402319, Control_c, 0, 64, 82
1, 402334, Control_c, 0, 64, 84
1, 402349, Control_c, 0, 64, 85
1, 402357, Note_off_c, 0, 71, 32
1, 402364, Control_c, 0, 64, 86
1, 402378, Control_c, 0, 64, 87
1, 402389, Note_off_c, 0, 55, 27
1, 402393, Control_c, 0, 64, 89
1, 402408, Control_c, 0, 64, 91
1, 402423, Control_c, 0, 64, 91
1, 402428, Note_off_c, 0, 74, 55
1, 402438, Control_c, 0, 64, 92
1, 402468, Control_c, 0, 64, 92
1, 402646, Control_c, 0, 64, 92
1, 402661, Control_c, 0, 64, 91
1, 402676, Control_c, 0, 64, 91
1, 402691, Control_c, 0, 64, 90
1, 402706, Control_c, 0, 64, 88
1, 402721, Control_c, 0, 64, 85
1, 402735, Control_c, 0, 64, 81
1, 402750, Control_c, 0, 64, 75
1, 402765, Control_c, 0, 64, 69
1, 402773, Note_off_c, 0, 67, 56
1, 402780, Control_c, 0, 64, 61
1, 402781, Note_on_c, 0, 75, 48
1, 402789, Note_on_c, 0, 63, 40
1, 402791, Note_on_c, 0, 60, 39
1, 402793, Control_c, 0, 64, 47
1, 402807, Note_off_c, 0, 65, 48
1, 402807, Control_c, 0, 64, 31
1, 402822, Control_c, 0, 64, 0
1, 402841, Poly_aftertouch_c, 0, 72, 127
1, 402867, Poly_aftertouch_c, 0, 72, 0
1, 402867, Control_c, 0, 64, 32
1, 402889, Control_c, 0, 64, 42
1, 402904, Control_c, 0, 64, 56
1, 402919, Control_c, 0, 64, 64
1, 402933, Control_c, 0, 64, 69
1, 402939, Note_off_c, 0, 75, 64
1, 402948, Control_c, 0, 64, 74
1, 402963, Control_c, 0, 64, 76
1, 402978, Control_c, 0, 64, 78
1, 402993, Control_c, 0, 64, 79
1, 403108, Note_on_c, 0, 77, 52
1, 403111, Control_c, 0, 64, 79
1, 403126, Control_c, 0, 64, 78
1, 403141, Control_c, 0, 64, 78
1, 403156, Control_c, 0, 64, 77
1, 403171, Control_c, 0, 64, 76
1, 403182, Note_on_c, 0, 75, 58
1, 403186, Control_c, 0, 64, 75
1, 403196, Note_off_c, 0, 77, 62
1, 403200, Control_c, 0, 64, 74
1, 403215, Control_c, 0, 64, 72
1, 403223, Note_off_c, 0, 75, 61
1, 403230, Control_c, 0, 64, 70
1, 403244, Note_on_c, 0, 74, 63
1, 403245, Control_c, 0, 64, 68
1, 403259, Control_c, 0, 64, 66
1, 403274, Control_c, 0, 64, 65
1, 403289, Control_c, 0, 64, 63
1, 403304, Control_c, 0, 64, 62
1, 403307, Note_on_c, 0, 75, 65
1, 403319, Control_c, 0, 64, 60
1, 403333, Control_c, 0, 64, 57
1, 403349, Control_c, 0, 64, 54
1, 403364, Control_c, 0, 64, 50
1, 403376, Note_off_c, 0, 63, 41
1, 403379, Control_c, 0, 64, 45
1, 403391, Note_on_c, 0, 69, 43
1, 403394, Control_c, 0, 64, 33
1, 403398, Note_on_c, 0, 77, 61
1, 403409, Control_c, 0, 64, 0
1, 403484, Note_off_c, 0, 75, 56
1, 403521, Note_off_c, 0, 74, 27
1, 403587, Control_c, 0, 64, 35
1, 403602, Control_c, 0, 64, 42
1, 403617, Control_c, 0, 64, 51
1, 403639, Control_c, 0, 64, 58
1, 403654, Control_c, 0, 64, 62
1, 403669, Control_c, 0, 64, 63
1, 403683, Control_c, 0, 64, 65
1, 403698, Control_c, 0, 64, 67
1, 403713, Control_c, 0, 64, 70
1, 403723, Note_off_c, 0, 60, 63
1, 403728, Control_c, 0, 64, 72
1, 403737, Note_on_c, 0, 79, 71
1, 403743, Control_c, 0, 64, 74
1, 403757, Control_c, 0, 64, 76
1, 403772, Control_c, 0, 64, 77
1, 403773, Note_off_c, 0, 77, 60
1, 403787, Control_c, 0, 64, 79
1, 403794, Note_off_c, 0, 69, 52
1, 403802, Control_c, 0, 64, 82
1, 403817, Control_c, 0, 64, 85
1, 403831, Control_c, 0, 64, 89
1, 403846, Control_c, 0, 64, 90
1, 403861, Control_c, 0, 64, 90
1, 403901, Note_off_c, 0, 79, 56
1, 403950, Control_c, 0, 64, 90
1, 403979, Control_c, 0, 64, 89
1, 403994, Control_c, 0, 64, 88
1, 404009, Control_c, 0, 64, 87
1, 404024, Control_c, 0, 64, 86
1, 404038, Control_c, 0, 64, 83
1, 404053, Control_c, 0, 64, 80
1, 404068, Note_on_c, 0, 77, 61
1, 404068, Control_c, 0, 64, 75
1, 404083, Control_c, 0, 64, 68
1, 404091, Note_on_c, 0, 62, 37
1, 404092, Note_on_c, 0, 70, 40
1, 404098, Control_c, 0, 64, 59
1, 404113, Control_c, 0, 64, 42
1, 404128, Control_c, 0, 64, 0
1, 404247, Control_c, 0, 64, 30
1, 404262, Control_c, 0, 64, 41
1, 404277, Control_c, 0, 64, 49
1, 404292, Control_c, 0, 64, 55
1, 404306, Control_c, 0, 64, 58
1, 404321, Control_c, 0, 64, 60
1, 404322, Note_on_c, 0, 82, 72
1, 404336, Control_c, 0, 64, 61
1, 404346, Note_off_c, 0, 77, 61
1, 404351, Control_c, 0, 64, 63
1, 404366, Control_c, 0, 64, 64
1, 404387, Control_c, 0, 64, 66
1, 404402, Control_c, 0, 64, 67
1, 404417, Control_c, 0, 64, 67
1, 404447, Control_c, 0, 64, 68
1, 404462, Control_c, 0, 64, 68
1, 404512, Note_on_c, 0, 74, 67
1, 404550, Note_off_c, 0, 62, 41
1, 404556, Note_off_c, 0, 82, 53
1, 404566, Control_c, 0, 64, 68
1, 404595, Control_c, 0, 64, 67
1, 404610, Control_c, 0, 64, 67
1, 404654, Control_c, 0, 64, 66
1, 404669, Control_c, 0, 64, 63
1, 404670, Note_off_c, 0, 70, 29
1, 404684, Control_c, 0, 64, 53
1, 404694, Note_on_c, 0, 67, 51
1, 404699, Control_c, 0, 64, 34
1, 404702, Note_on_c, 0, 63, 45
1, 404713, Control_c, 0, 64, 0
1, 404717, Note_on_c, 0, 79, 68
1, 404775, Note_off_c, 0, 74, 45
1, 404831, Control_c, 0, 64, 30
1, 404846, Control_c, 0, 64, 45
1, 404861, Note_off_c, 0, 67, 62
1, 404861, Control_c, 0, 64, 56
1, 404876, Control_c, 0, 64, 61
1, 404891, Control_c, 0, 64, 63
1, 404906, Control_c, 0, 64, 64
1, 404921, Control_c, 0, 64, 66
1, 404935, Note_on_c, 0, 75, 56
1, 404936, Control_c, 0, 64, 67
1, 404951, Control_c, 0, 64, 68
1, 404954, Note_off_c, 0, 63, 62
1, 404966, Control_c, 0, 64, 69
1, 404969, Note_off_c, 0, 79, 51
1, 404995, Control_c, 0, 64, 70
1, 405107, Note_on_c, 0, 72, 62
1, 405112, Note_off_c, 0, 75, 58
1, 405136, Control_c, 0, 64, 69
1, 405151, Control_c, 0, 64, 69
1, 405166, Control_c, 0, 64, 68
1, 405181, Control_c, 0, 64, 67
1, 405196, Control_c, 0, 64, 65
1, 405210, Control_c, 0, 64, 64
1, 405225, Control_c, 0, 64, 62
1, 405240, Control_c, 0, 64, 60
1, 405255, Control_c, 0, 64, 56
1, 405270, Control_c, 0, 64, 52
1, 405284, Control_c, 0, 64, 47
1, 405299, Control_c, 0, 64, 42
1, 405314, Note_on_c, 0, 70, 53
1, 405314, Control_c, 0, 64, 31
1, 405329, Control_c, 0, 64, 0
1, 405329, Note_on_c, 0, 62, 39
1, 405332, Note_on_c, 0, 53, 35
1, 405345, Note_off_c, 0, 72, 53
1, 406009, Note_on_c, 0, 69, 34
1, 406028, Note_on_c, 0, 60, 16
1, 406037, Note_off_c, 0, 70, 41
1, 406052, Note_off_c, 0, 62, 40
1, 406152, Control_c, 0, 64, 35
1, 406167, Control_c, 0, 64, 47
1, 406182, Control_c, 0, 64, 56
1, 406197, Control_c, 0, 64, 59
1, 406212, Control_c, 0, 64, 61
1, 406226, Control_c, 0, 64, 63
1, 406241, Control_c, 0, 64, 65
1, 406247, Note_off_c, 0, 69, 44
1, 406256, Control_c, 0, 64, 67
1, 406270, Control_c, 0, 64, 70
1, 406285, Control_c, 0, 64, 75
1, 406300, Control_c, 0, 64, 78
1, 406315, Control_c, 0, 64, 81
1, 406330, Control_c, 0, 64, 82
1, 406350, Note_off_c, 0, 53, 37
1, 406352, Note_off_c, 0, 60, 40
1, 406433, Control_c, 0, 64, 82
1, 406448, Control_c, 0, 64, 81
1, 406463, Control_c, 0, 64, 79
1, 406477, Control_c, 0, 64, 77
1, 406492, Control_c, 0, 64, 75
1, 406507, Control_c, 0, 64, 74
1, 406522, Control_c, 0, 64, 72
1, 406538, Control_c, 0, 64, 70
1, 406545, Note_on_c, 0, 62, 56
1, 406554, Control_c, 0, 64, 69
1, 406568, Control_c, 0, 64, 68
1, 406583, Control_c, 0, 64, 67
1, 406598, Control_c, 0, 64, 67
1, 406613, Control_c, 0, 64, 66
1, 406635, Control_c, 0, 64, 65
1, 406650, Control_c, 0, 64, 64
1, 406665, Control_c, 0, 64, 63
1, 406680, Control_c, 0, 64, 62
1, 406694, Note_on_c, 0, 74, 74
1, 406694, Control_c, 0, 64, 61
1, 406709, Control_c, 0, 64, 61
1, 406724, Control_c, 0, 64, 60
1, 406739, Control_c, 0, 64, 59
1, 406754, Control_c, 0, 64, 58
1, 406769, Control_c, 0, 64, 57
1, 406783, Control_c, 0, 64, 56
1, 406798, Control_c, 0, 64, 56
1, 406827, Control_c, 0, 64, 55
1, 406842, Control_c, 0, 64, 54
1, 406857, Control_c, 0, 64, 53
1, 406872, Control_c, 0, 64, 52
1, 406887, Control_c, 0, 64, 51
1, 406901, Control_c, 0, 64, 50
1, 406916, Control_c, 0, 64, 49
1, 406931, Control_c, 0, 64, 48
1, 406946, Control_c, 0, 64, 47
1, 406961, Control_c, 0, 64, 46
1, 406975, Control_c, 0, 64, 44
1, 406990, Control_c, 0, 64, 43
1, 407005, Control_c, 0, 64, 41
1, 407019, Note_on_c, 0, 46, 44
1, 407019, Control_c, 0, 64, 37
1, 407034, Control_c, 0, 64, 31
1, 407049, Control_c, 0, 64, 0
1, 407242, Control_c, 0, 64, 30
1, 407257, Control_c, 0, 64, 43
1, 407272, Control_c, 0, 64, 52
1, 407286, Control_c, 0, 64, 58
1, 407300, Control_c, 0, 64, 60
1, 407315, Control_c, 0, 64, 61
1, 407320, Note_on_c, 0, 50, 50
1, 407330, Control_c, 0, 64, 62
1, 407344, Note_off_c, 0, 62, 45
1, 407346, Control_c, 0, 64, 64
1, 407368, Control_c, 0, 64, 65
1, 407383, Control_c, 0, 64, 66
1, 407398, Control_c, 0, 64, 67
1, 407413, Control_c, 0, 64, 68
1, 407428, Control_c, 0, 64, 69
1, 407443, Control_c, 0, 64, 69
1, 407451, Note_on_c, 0, 70, 64
1, 407457, Note_off_c, 0, 74, 37
1, 407457, Control_c, 0, 64, 70
1, 407472, Control_c, 0, 64, 71
1, 407524, Note_off_c, 0, 70, 62
1, 407629, Note_on_c, 0, 55, 44
1, 407632, Note_off_c, 0, 50, 33
1, 407633, Note_on_c, 0, 70, 67
1, 407660, Note_off_c, 0, 46, 38
1, 407669, Note_off_c, 0, 70, 62
1, 407669, Note_off_c, 0, 55, 58
1, 407679, Control_c, 0, 64, 70
1, 407690, Note_on_c, 0, 72, 64
1, 407694, Control_c, 0, 64, 70
1, 407709, Control_c, 0, 64, 69
1, 407723, Control_c, 0, 64, 69
1, 407738, Control_c, 0, 64, 68
1, 407750, Note_on_c, 0, 70, 73
1, 407753, Control_c, 0, 64, 68
1, 407768, Control_c, 0, 64, 67
1, 407779, Note_off_c, 0, 72, 62
1, 407783, Control_c, 0, 64, 66
1, 407797, Control_c, 0, 64, 65
1, 407807, Note_on_c, 0, 69, 66
1, 407812, Control_c, 0, 64, 64
1, 407814, Note_off_c, 0, 70, 64
1, 407827, Control_c, 0, 64, 63
1, 407842, Control_c, 0, 64, 61
1, 407857, Control_c, 0, 64, 60
1, 407872, Control_c, 0, 64, 58
1, 407877, Note_on_c, 0, 70, 62
1, 407877, Note_off_c, 0, 69, 64
1, 407887, Control_c, 0, 64, 55
1, 407902, Control_c, 0, 64, 53
1, 407916, Control_c, 0, 64, 51
1, 407928, Note_on_c, 0, 63, 67
1, 407931, Control_c, 0, 64, 49
1, 407946, Control_c, 0, 64, 48
1, 407961, Control_c, 0, 64, 47
1, 407961, Note_off_c, 0, 70, 61
1, 407976, Control_c, 0, 64, 45
1, 407990, Control_c, 0, 64, 42
1, 408005, Control_c, 0, 64, 37
1, 408009, Note_on_c, 0, 75, 72
1, 408020, Control_c, 0, 64, 30
1, 408035, Control_c, 0, 64, 0
1, 408260, Note_on_c, 0, 48, 22
1, 408487, Control_c, 0, 64, 40
1, 408502, Control_c, 0, 64, 52
1, 408513, Note_on_c, 0, 51, 56
1, 408517, Control_c, 0, 64, 58
1, 408532, Control_c, 0, 64, 60
1, 408540, Note_off_c, 0, 63, 61
1, 408542, Note_off_c, 0, 75, 54
1, 408546, Control_c, 0, 64, 61
1, 408561, Control_c, 0, 64, 63
1, 408576, Control_c, 0, 64, 65
1, 408590, Control_c, 0, 64, 68
1, 408605, Control_c, 0, 64, 71
1, 408620, Control_c, 0, 64, 74
1, 408627, Note_on_c, 0, 72, 66
1, 408635, Control_c, 0, 64, 76
1, 408650, Control_c, 0, 64, 78
1, 408665, Control_c, 0, 64, 79
1, 408680, Control_c, 0, 64, 79
1, 408692, Note_off_c, 0, 72, 63
1, 408784, Control_c, 0, 64, 79
1, 408788, Note_on_c, 0, 72, 71
1, 408795, Note_on_c, 0, 57, 52
1, 408829, Control_c, 0, 64, 78
1, 408835, Note_off_c, 0, 72, 59
1, 408837, Note_off_c, 0, 51, 53
1, 408838, Note_off_c, 0, 48, 40
1, 408843, Note_on_c, 0, 74, 68
1, 408844, Control_c, 0, 64, 78
1, 408858, Note_off_c, 0, 57, 55
1, 408880, Control_c, 0, 64, 77
1, 408895, Control_c, 0, 64, 76
1, 408905, Note_on_c, 0, 72, 62
1, 408910, Control_c, 0, 64, 76
1, 408925, Control_c, 0, 64, 75
1, 408928, Note_off_c, 0, 74, 64
1, 408940, Control_c, 0, 64, 73
1, 408947, Note_on_c, 0, 71, 75
1, 408956, Control_c, 0, 64, 72
1, 408957, Note_off_c, 0, 72, 63
1, 408970, Control_c, 0, 64, 70
1, 408985, Control_c, 0, 64, 68
1, 409000, Control_c, 0, 64, 66
1, 409014, Note_on_c, 0, 72, 68
1, 409015, Control_c, 0, 64, 64
1, 409030, Control_c, 0, 64, 62
1, 409042, Note_off_c, 0, 71, 60
1, 409044, Control_c, 0, 64, 59
1, 409059, Control_c, 0, 64, 58
1, 409074, Control_c, 0, 64, 55
1, 409089, Control_c, 0, 64, 53
1, 409103, Control_c, 0, 64, 48
1, 409118, Control_c, 0, 64, 42
1, 409131, Note_on_c, 0, 77, 78
1, 409133, Control_c, 0, 64, 32
1, 409148, Control_c, 0, 64, 0
1, 409167, Note_off_c, 0, 72, 58
1, 409296, Control_c, 0, 64, 37
1, 409311, Control_c, 0, 64, 47
1, 409326, Control_c, 0, 64, 56
1, 409341, Control_c, 0, 64, 61
1, 409356, Control_c, 0, 64, 63
1, 409370, Control_c, 0, 64, 65
1, 409385, Control_c, 0, 64, 67
1, 409390, Note_off_c, 0, 77, 62
1, 409400, Control_c, 0, 64, 68
1, 409415, Control_c, 0, 64, 69
1, 409420, Note_on_c, 0, 50, 48
1, 409429, Control_c, 0, 64, 70
1, 409444, Control_c, 0, 64, 70
1, 409550, Note_on_c, 0, 70, 75
1, 409607, Control_c, 0, 64, 70
1, 409644, Control_c, 0, 64, 69
1, 409659, Control_c, 0, 64, 69
1, 409674, Control_c, 0, 64, 68
1, 409689, Control_c, 0, 64, 68
1, 409703, Control_c, 0, 64, 67
1, 409718, Control_c, 0, 64, 66
1, 409733, Control_c, 0, 64, 65
1, 409749, Control_c, 0, 64, 64
1, 409764, Control_c, 0, 64, 63
1, 409779, Control_c, 0, 64, 62
1, 409793, Control_c, 0, 64, 61
1, 409808, Control_c, 0, 64, 60
1, 409811, Note_on_c, 0, 53, 44
1, 409822, Note_on_c, 0, 82, 84
1, 409823, Control_c, 0, 64, 59
1, 409838, Control_c, 0, 64, 57
1, 409852, Control_c, 0, 64, 55
1, 409867, Control_c, 0, 64, 49
1, 409882, Control_c, 0, 64, 41
1, 409897, Control_c, 0, 64, 29
1, 409912, Control_c, 0, 64, 0
1, 410000, Control_c, 0, 64, 36
1, 410015, Control_c, 0, 64, 44
1, 410022, Note_off_c, 0, 70, 43
1, 410030, Control_c, 0, 64, 50
1, 410045, Control_c, 0, 64, 54
1, 410060, Control_c, 0, 64, 55
1, 410072, Note_off_c, 0, 50, 31
1, 410075, Control_c, 0, 64, 56
1, 410090, Control_c, 0, 64, 57
1, 410105, Control_c, 0, 64, 57
1, 410144, Note_on_c, 0, 58, 45
1, 410282, Control_c, 0, 64, 57
1, 410311, Control_c, 0, 64, 56
1, 410326, Control_c, 0, 64, 56
1, 410334, Note_off_c, 0, 53, 29
1, 410341, Control_c, 0, 64, 55
1, 410356, Control_c, 0, 64, 55
1, 410378, Control_c, 0, 64, 53
1, 410393, Control_c, 0, 64, 50
1, 410408, Control_c, 0, 64, 45
1, 410423, Control_c, 0, 64, 39
1, 410438, Control_c, 0, 64, 33
1, 410452, Control_c, 0, 64, 29
1, 410466, Note_on_c, 0, 50, 39
1, 410497, Control_c, 0, 64, 34
1, 410512, Control_c, 0, 64, 40
1, 410526, Control_c, 0, 64, 46
1, 410542, Control_c, 0, 64, 52
1, 410557, Control_c, 0, 64, 55
1, 410572, Control_c, 0, 64, 58
1, 410587, Control_c, 0, 64, 60
1, 410602, Control_c, 0, 64, 61
1, 410616, Control_c, 0, 64, 63
1, 410631, Control_c, 0, 64, 64
1, 410646, Control_c, 0, 64, 64
1, 410661, Control_c, 0, 64, 65
1, 410675, Control_c, 0, 64, 65
1, 410690, Control_c, 0, 64, 66
1, 410764, Note_on_c, 0, 80, 62
1, 410868, Control_c, 0, 64, 65
1, 410912, Control_c, 0, 64, 65
1, 410942, Control_c, 0, 64, 64
1, 410948, Note_off_c, 0, 82, 17
1, 410957, Control_c, 0, 64, 64
1, 410972, Control_c, 0, 64, 63
1, 410986, Control_c, 0, 64, 62
1, 411001, Control_c, 0, 64, 60
1, 411016, Control_c, 0, 64, 58
1, 411031, Control_c, 0, 64, 55
1, 411046, Control_c, 0, 64, 50
1, 411060, Control_c, 0, 64, 43
1, 411061, Note_on_c, 0, 56, 47
1, 411067, Note_on_c, 0, 79, 69
1, 411075, Control_c, 0, 64, 36
1, 411090, Control_c, 0, 64, 29
1, 411105, Control_c, 0, 64, 0
1, 411148, Note_off_c, 0, 80, 50
1, 411157, Control_c, 0, 64, 31
1, 411172, Control_c, 0, 64, 37
1, 411187, Control_c, 0, 64, 44
1, 411201, Control_c, 0, 64, 50
1, 411216, Control_c, 0, 64, 55
1, 411231, Control_c, 0, 64, 58
1, 411246, Control_c, 0, 64, 61
1, 411261, Control_c, 0, 64, 62
1, 411275, Control_c, 0, 64, 64
1, 411290, Control_c, 0, 64, 65
1, 411305, Control_c, 0, 64, 65
1, 411306, Note_off_c, 0, 79, 60
1, 411320, Control_c, 0, 64, 66
1, 411392, Note_on_c, 0, 78, 60
1, 411498, Control_c, 0, 64, 65
1, 411528, Control_c, 0, 64, 65
1, 411543, Control_c, 0, 64, 64
1, 411558, Control_c, 0, 64, 64
1, 411568, Note_off_c, 0, 56, 53
1, 411571, Note_off_c, 0, 50, 42
1, 411572, Control_c, 0, 64, 63
1, 411587, Control_c, 0, 64, 62
1, 411602, Control_c, 0, 64, 59
1, 411616, Control_c, 0, 64, 54
1, 411631, Control_c, 0, 64, 47
1, 411646, Control_c, 0, 64, 40
1, 411661, Control_c, 0, 64, 32
1, 411676, Control_c, 0, 64, 30
1, 411705, Control_c, 0, 64, 32
1, 411720, Control_c, 0, 64, 37
1, 411735, Control_c, 0, 64, 44
1, 411750, Control_c, 0, 64, 51
1, 411765, Control_c, 0, 64, 57
1, 411780, Control_c, 0, 64, 59
1, 411780, Note_on_c, 0, 55, 31
1, 411795, Control_c, 0, 64, 61
1, 411809, Control_c, 0, 64, 63
1, 411815, Note_on_c, 0, 51, 12
1, 411824, Note_off_c, 0, 78, 55
1, 411824, Control_c, 0, 64, 64
1, 411839, Control_c, 0, 64, 64
1, 411980, Control_c, 0, 64, 64
1, 411994, Control_c, 0, 64, 63
1, 412000, Note_on_c, 0, 79, 42
1, 412009, Control_c, 0, 64, 63
1, 412039, Control_c, 0, 64, 62
1, 412054, Control_c, 0, 64, 62
1, 412069, Control_c, 0, 64, 61
1, 412084, Control_c, 0, 64, 60
1, 412098, Control_c, 0, 64, 59
1, 412113, Control_c, 0, 64, 59
1, 412137, Note_off_c, 0, 79, 37
1, 412144, Control_c, 0, 64, 58
1, 412158, Control_c, 0, 64, 57
1, 412173, Control_c, 0, 64, 57
1, 412194, Note_on_c, 0, 82, 55
1, 412203, Control_c, 0, 64, 56
1, 412233, Control_c, 0, 64, 56
1, 412247, Control_c, 0, 64, 55
1, 412262, Control_c, 0, 64, 54
1, 412292, Control_c, 0, 64, 54
1, 412307, Control_c, 0, 64, 53
1, 412334, Note_off_c, 0, 82, 60
1, 412336, Control_c, 0, 64, 52
1, 412340, Note_on_c, 0, 79, 60
1, 412365, Control_c, 0, 64, 52
1, 412380, Control_c, 0, 64, 51
1, 412395, Control_c, 0, 64, 51
1, 412410, Control_c, 0, 64, 50
1, 412425, Control_c, 0, 64, 50
1, 412451, Note_off_c, 0, 79, 58
1, 412454, Control_c, 0, 64, 49
1, 412469, Control_c, 0, 64, 49
1, 412489, Note_on_c, 0, 74, 52
1, 412499, Control_c, 0, 64, 48
1, 412530, Note_off_c, 0, 58, 39
1, 412543, Control_c, 0, 64, 48
1, 412599, Note_off_c, 0, 51, 49
1, 412616, Note_on_c, 0, 75, 61
1, 412618, Note_off_c, 0, 55, 42
1, 412618, Note_off_c, 0, 74, 61
1, 412743, Control_c, 0, 64, 47
1, 412761, Note_on_c, 0, 79, 73
1, 412764, Note_off_c, 0, 75, 62
1, 412787, Control_c, 0, 64, 47
1, 412817, Control_c, 0, 64, 46
1, 412887, Note_on_c, 0, 75, 68
1, 412928, Note_off_c, 0, 79, 58
1, 412951, Control_c, 0, 64, 46
1, 412981, Control_c, 0, 64, 45
1, 413026, Control_c, 0, 64, 45
1, 413044, Note_on_c, 0, 71, 63
1, 413048, Note_on_c, 0, 51, 37
1, 413054, Note_on_c, 0, 55, 36
1, 413056, Control_c, 0, 64, 44
1, 413070, Control_c, 0, 64, 44
1, 413071, Note_off_c, 0, 75, 61
1, 413083, Note_on_c, 0, 60, 22
1, 413085, Control_c, 0, 64, 43
1, 413100, Control_c, 0, 64, 42
1, 413115, Control_c, 0, 64, 41
1, 413130, Control_c, 0, 64, 39
1, 413144, Control_c, 0, 64, 38
1, 413159, Control_c, 0, 64, 36
1, 413174, Control_c, 0, 64, 36
1, 413196, Note_on_c, 0, 72, 64
1, 413203, Control_c, 0, 64, 35
1, 413224, Note_off_c, 0, 71, 57
1, 413277, Control_c, 0, 64, 35
1, 413318, Note_on_c, 0, 75, 70
1, 413322, Control_c, 0, 64, 34
1, 413348, Note_off_c, 0, 72, 60
1, 413388, Control_c, 0, 64, 34
1, 413448, Control_c, 0, 64, 33
1, 413455, Note_on_c, 0, 74, 69
1, 413461, Note_off_c, 0, 60, 44
1, 413494, Note_off_c, 0, 75, 59
1, 413507, Control_c, 0, 64, 33
1, 413548, Note_off_c, 0, 55, 44
1, 413566, Note_off_c, 0, 51, 52
1, 413628, Note_on_c, 0, 77, 64
1, 413651, Note_off_c, 0, 74, 58
1, 413776, Note_on_c, 0, 75, 62
1, 413789, Control_c, 0, 64, 32
1, 413869, Note_off_c, 0, 77, 35
1, 413914, Note_on_c, 0, 74, 67
1, 413923, Control_c, 0, 64, 32
1, 413955, Note_off_c, 0, 75, 59
1, 414027, Control_c, 0, 64, 30
1, 414034, Note_on_c, 0, 72, 66
1, 414057, Control_c, 0, 64, 0
1, 414083, Note_off_c, 0, 74, 58
1, 414212, Note_on_c, 0, 65, 60
1, 414214, Note_on_c, 0, 53, 33
1, 414215, Note_off_c, 0, 72, 61
1, 414349, Note_on_c, 0, 77, 71
1, 414438, Note_off_c, 0, 65, 43
1, 414542, Note_on_c, 0, 62, 38
1, 414613, Control_c, 0, 64, 29
1, 414776, Control_c, 0, 64, 31
1, 414805, Control_c, 0, 64, 32
1, 414820, Control_c, 0, 64, 33
1, 414835, Control_c, 0, 64, 34
1, 414844, Note_on_c, 0, 58, 32
1, 414857, Control_c, 0, 64, 36
1, 414872, Control_c, 0, 64, 38
1, 414887, Control_c, 0, 64, 41
1, 414902, Control_c, 0, 64, 44
1, 414916, Note_off_c, 0, 62, 34
1, 414916, Control_c, 0, 64, 48
1, 414931, Control_c, 0, 64, 52
1, 414946, Control_c, 0, 64, 55
1, 414960, Control_c, 0, 64, 58
1, 414975, Control_c, 0, 64, 60
1, 414982, Note_off_c, 0, 53, 11
1, 414990, Control_c, 0, 64, 62
1, 415005, Control_c, 0, 64, 63
1, 415020, Control_c, 0, 64, 64
1, 415035, Control_c, 0, 64, 64
1, 415050, Control_c, 0, 64, 65
1, 415080, Control_c, 0, 64, 65
1, 415142, Note_on_c, 0, 62, 38
1, 415233, Note_off_c, 0, 58, 43
1, 415362, Control_c, 0, 64, 65
1, 415377, Control_c, 0, 64, 64
1, 415391, Control_c, 0, 64, 62
1, 415406, Control_c, 0, 64, 62
1, 415445, Note_on_c, 0, 53, 36
1, 415465, Control_c, 0, 64, 62
1, 415480, Control_c, 0, 64, 64
1, 415495, Control_c, 0, 64, 65
1, 415502, Note_off_c, 0, 62, 34
1, 415509, Control_c, 0, 64, 67
1, 415522, Note_off_c, 0, 77, 53
1, 415524, Control_c, 0, 64, 70
1, 415539, Control_c, 0, 64, 73
1, 415554, Control_c, 0, 64, 77
1, 415569, Control_c, 0, 64, 79
1, 415583, Control_c, 0, 64, 81
1, 415598, Control_c, 0, 64, 82
1, 415709, Control_c, 0, 64, 81
1, 415724, Control_c, 0, 64, 80
1, 415739, Control_c, 0, 64, 77
1, 415753, Note_on_c, 0, 79, 69
1, 415753, Control_c, 0, 64, 73
1, 415768, Note_on_c, 0, 62, 35
1, 415768, Control_c, 0, 64, 70
1, 415783, Control_c, 0, 64, 66
1, 415798, Control_c, 0, 64, 64
1, 415813, Control_c, 0, 64, 63
1, 415843, Control_c, 0, 64, 64
1, 415857, Control_c, 0, 64, 65
1, 415872, Control_c, 0, 64, 66
1, 415887, Control_c, 0, 64, 69
1, 415902, Control_c, 0, 64, 72
1, 415916, Control_c, 0, 64, 76
1, 415931, Control_c, 0, 64, 80
1, 415945, Note_off_c, 0, 79, 56
1, 415946, Control_c, 0, 64, 84
1, 415961, Control_c, 0, 64, 87
1, 415976, Control_c, 0, 64, 89
1, 415990, Control_c, 0, 64, 90
1, 416035, Control_c, 0, 64, 89
1, 416050, Control_c, 0, 64, 86
1, 416064, Control_c, 0, 64, 78
1, 416074, Note_on_c, 0, 81, 77
1, 416079, Control_c, 0, 64, 71
1, 416084, Note_on_c, 0, 58, 40
1, 416094, Control_c, 0, 64, 65
1, 416102, Note_off_c, 0, 62, 17
1, 416108, Control_c, 0, 64, 62
1, 416123, Control_c, 0, 64, 60
1, 416129, Note_off_c, 0, 53, 15
1, 416154, Control_c, 0, 64, 61
1, 416169, Control_c, 0, 64, 62
1, 416184, Control_c, 0, 64, 64
1, 416199, Control_c, 0, 64, 67
1, 416213, Control_c, 0, 64, 71
1, 416228, Control_c, 0, 64, 75
1, 416243, Control_c, 0, 64, 80
1, 416258, Control_c, 0, 64, 87
1, 416274, Control_c, 0, 64, 94
1, 416278, Note_off_c, 0, 81, 59
1, 416288, Control_c, 0, 64, 102
1, 416296, Note_off_c, 0, 58, 37
1, 416303, Control_c, 0, 64, 110
1, 416318, Control_c, 0, 64, 112
1, 416347, Control_c, 0, 64, 100
1, 416370, Control_c, 0, 64, 86
1, 416385, Control_c, 0, 64, 75
1, 416400, Control_c, 0, 64, 69
1, 416404, Note_on_c, 0, 82, 79
1, 416414, Control_c, 0, 64, 67
1, 416418, Note_on_c, 0, 62, 39
1, 416444, Control_c, 0, 64, 68
1, 416459, Control_c, 0, 64, 70
1, 416474, Control_c, 0, 64, 74
1, 416487, Note_off_c, 0, 82, 61
1, 416488, Control_c, 0, 64, 79
1, 416503, Control_c, 0, 64, 83
1, 416518, Control_c, 0, 64, 88
1, 416532, Control_c, 0, 64, 90
1, 416547, Control_c, 0, 64, 92
1, 416601, Note_off_c, 0, 62, 37
1, 416666, Control_c, 0, 64, 91
1, 416680, Control_c, 0, 64, 91
1, 416695, Control_c, 0, 64, 90
1, 416725, Control_c, 0, 64, 90
1, 416740, Control_c, 0, 64, 89
1, 416755, Control_c, 0, 64, 88
1, 416770, Control_c, 0, 64, 87
1, 416785, Control_c, 0, 64, 86
1, 416800, Control_c, 0, 64, 84
1, 416814, Control_c, 0, 64, 83
1, 416829, Control_c, 0, 64, 81
1, 416830, Note_on_c, 0, 53, 38
1, 416838, Note_on_c, 0, 74, 49
1, 416844, Control_c, 0, 64, 76
1, 416859, Control_c, 0, 64, 70
1, 416874, Control_c, 0, 64, 64
1, 416888, Control_c, 0, 64, 59
1, 416903, Control_c, 0, 64, 53
1, 416918, Control_c, 0, 64, 51
1, 416949, Control_c, 0, 64, 52
1, 416963, Control_c, 0, 64, 52
1, 416974, Note_off_c, 0, 74, 60
1, 416978, Control_c, 0, 64, 53
1, 416993, Control_c, 0, 64, 55
1, 417005, Note_on_c, 0, 72, 32
1, 417008, Control_c, 0, 64, 58
1, 417022, Control_c, 0, 64, 60
1, 417036, Control_c, 0, 64, 61
1, 417051, Control_c, 0, 64, 62
1, 417071, Note_off_c, 0, 72, 57
1, 417108, Note_on_c, 0, 74, 51
1, 417142, Note_on_c, 0, 63, 29
1, 417144, Note_off_c, 0, 74, 64
1, 417184, Note_on_c, 0, 72, 41
1, 417223, Note_off_c, 0, 72, 61
1, 417232, Note_on_c, 0, 74, 60
1, 417236, Control_c, 0, 64, 61
1, 417268, Note_off_c, 0, 74, 63
1, 417281, Control_c, 0, 64, 61
1, 417301, Note_on_c, 0, 72, 44
1, 417325, Control_c, 0, 64, 60
1, 417341, Note_off_c, 0, 72, 63
1, 417349, Note_on_c, 0, 74, 52
1, 417354, Control_c, 0, 64, 60
1, 417369, Control_c, 0, 64, 59
1, 417384, Control_c, 0, 64, 57
1, 417390, Note_on_c, 0, 57, 48
1, 417391, Note_off_c, 0, 74, 60
1, 417399, Control_c, 0, 64, 55
1, 417410, Note_on_c, 0, 72, 50
1, 417449, Note_on_c, 0, 74, 52
1, 417449, Note_off_c, 0, 72, 65
1, 417455, Note_off_c, 0, 63, 41
1, 417473, Control_c, 0, 64, 56
1, 417488, Control_c, 0, 64, 56
1, 417489, Note_off_c, 0, 53, 36
1, 417494, Note_off_c, 0, 74, 62
1, 417503, Control_c, 0, 64, 57
1, 417518, Control_c, 0, 64, 57
1, 417527, Note_on_c, 0, 72, 52
1, 417548, Control_c, 0, 64, 58
1, 417559, Note_on_c, 0, 74, 57
1, 417559, Note_off_c, 0, 72, 65
1, 417605, Note_off_c, 0, 74, 62
1, 417636, Control_c, 0, 64, 58
1, 417639, Note_on_c, 0, 72, 53
1, 417664, Note_off_c, 0, 72, 62
1, 417667, Note_on_c, 0, 74, 56
1, 417667, Note_on_c, 0, 63, 44
1, 417712, Note_off_c, 0, 74, 63
1, 417739, Note_off_c, 0, 57, 44
1, 417747, Note_on_c, 0, 72, 58
1, 417773, Note_off_c, 0, 72, 63
1, 417780, Note_on_c, 0, 74, 55
1, 417822, Note_off_c, 0, 74, 64
1, 417854, Note_on_c, 0, 72, 60
1, 417881, Control_c, 0, 64, 58
1, 417887, Note_off_c, 0, 72, 65
1, 417891, Note_on_c, 0, 74, 60
1, 417925, Control_c, 0, 64, 57
1, 417935, Note_off_c, 0, 74, 63
1, 417940, Control_c, 0, 64, 55
1, 417942, Note_on_c, 0, 53, 39
1, 417955, Control_c, 0, 64, 54
1, 417969, Note_on_c, 0, 72, 57
1, 417970, Control_c, 0, 64, 53
1, 417974, Note_off_c, 0, 63, 36
1, 417984, Control_c, 0, 64, 54
1, 418000, Note_off_c, 0, 72, 66
1, 418006, Note_on_c, 0, 74, 56
1, 418014, Control_c, 0, 64, 54
1, 418029, Control_c, 0, 64, 55
1, 418044, Control_c, 0, 64, 56
1, 418053, Note_off_c, 0, 74, 62
1, 418058, Control_c, 0, 64, 57
1, 418073, Control_c, 0, 64, 58
1, 418078, Note_on_c, 0, 72, 54
1, 418102, Control_c, 0, 64, 58
1, 418113, Note_off_c, 0, 72, 65
1, 418122, Note_on_c, 0, 74, 48
1, 418164, Note_off_c, 0, 74, 63
1, 418190, Note_on_c, 0, 72, 57
1, 418213, Note_on_c, 0, 63, 41
1, 418222, Note_off_c, 0, 72, 66
1, 418239, Note_on_c, 0, 74, 53
1, 418275, Note_off_c, 0, 74, 62
1, 418309, Note_on_c, 0, 72, 52
1, 418340, Note_off_c, 0, 72, 62
1, 418351, Note_on_c, 0, 74, 55
1, 418384, Control_c, 0, 64, 58
1, 418392, Note_off_c, 0, 74, 61
1, 418414, Control_c, 0, 64, 57
1, 418418, Note_on_c, 0, 72, 46
1, 418429, Control_c, 0, 64, 57
1, 418437, Note_on_c, 0, 57, 46
1, 418449, Note_off_c, 0, 72, 60
1, 418457, Note_on_c, 0, 74, 46
1, 418488, Control_c, 0, 64, 57
1, 418493, Note_off_c, 0, 63, 39
1, 418495, Note_off_c, 0, 74, 65
1, 418517, Control_c, 0, 64, 58
1, 418525, Note_on_c, 0, 72, 49
1, 418551, Note_off_c, 0, 53, 29
1, 418563, Control_c, 0, 64, 58
1, 418567, Note_off_c, 0, 72, 62
1, 418584, Note_on_c, 0, 74, 49
1, 418630, Control_c, 0, 64, 56
1, 418645, Control_c, 0, 64, 53
1, 418660, Control_c, 0, 64, 52
1, 418675, Control_c, 0, 64, 51
1, 418694, Note_off_c, 0, 74, 53
1, 418704, Control_c, 0, 64, 51
1, 418708, Note_on_c, 0, 72, 29
1, 418719, Control_c, 0, 64, 53
1, 418733, Control_c, 0, 64, 54
1, 418748, Control_c, 0, 64, 56
1, 418757, Note_on_c, 0, 63, 41
1, 418763, Control_c, 0, 64, 58
1, 418778, Control_c, 0, 64, 60
1, 418793, Control_c, 0, 64, 61
1, 418806, Note_off_c, 0, 57, 45
1, 418807, Control_c, 0, 64, 62
1, 418822, Control_c, 0, 64, 63
1, 418822, Control_c, 0, 67, 21
1, 418837, Control_c, 0, 64, 63
1, 418837, Control_c, 0, 67, 24
1, 418852, Control_c, 0, 64, 64
1, 418852, Control_c, 0, 67, 28
1, 418867, Control_c, 0, 67, 35
1, 418881, Control_c, 0, 67, 44
1, 418896, Control_c, 0, 67, 56
1, 418911, Control_c, 0, 67, 66
1, 418913, Note_off_c, 0, 72, 52
1, 418920, Note_off_c, 0, 63, 51
1, 418923, Note_on_c, 0, 70, 47
1, 418925, Control_c, 0, 67, 71
1, 418940, Control_c, 0, 64, 63
1, 418940, Control_c, 0, 67, 72
1, 418970, Control_c, 0, 64, 63
1, 418970, Control_c, 0, 67, 71
1, 418985, Control_c, 0, 64, 62
1, 418985, Control_c, 0, 67, 70
1, 419000, Control_c, 0, 64, 62
1, 419000, Control_c, 0, 67, 70
1, 419003, Note_off_c, 0, 70, 56
1, 419015, Control_c, 0, 64, 61
1, 419015, Control_c, 0, 67, 69
1, 419029, Control_c, 0, 64, 61
1, 419039, Note_on_c, 0, 72, 40
1, 419044, Control_c, 0, 64, 60
1, 419044, Control_c, 0, 67, 68
1, 419059, Control_c, 0, 64, 60
1, 419059, Control_c, 0, 67, 68
1, 419074, Control_c, 0, 64, 59
1, 419074, Control_c, 0, 67, 67
1, 419089, Control_c, 0, 64, 59
1, 419089, Control_c, 0, 67, 67
1, 419104, Control_c, 0, 64, 58
1, 419104, Control_c, 0, 67, 66
1, 419119, Control_c, 0, 64, 57
1, 419133, Control_c, 0, 64, 56
1, 419133, Control_c, 0, 67, 65
1, 419148, Control_c, 0, 64, 55
1, 419148, Control_c, 0, 67, 65
1, 419163, Control_c, 0, 64, 54
1, 419165, Note_on_c, 0, 70, 45
1, 419178, Control_c, 0, 64, 53
1, 419191, Note_on_c, 0, 58, 37
1, 419193, Control_c, 0, 64, 52
1, 419207, Control_c, 0, 64, 50
1, 419222, Control_c, 0, 64, 49
1, 419222, Control_c, 0, 67, 64
1, 419237, Control_c, 0, 64, 47
1, 419244, Note_off_c, 0, 72, 38
1, 419251, Control_c, 0, 64, 45
1, 419251, Control_c, 0, 67, 64
1, 419267, Control_c, 0, 64, 43
1, 419282, Control_c, 0, 64, 41
1, 419297, Control_c, 0, 64, 38
1, 419297, Control_c, 0, 67, 63
1, 419312, Control_c, 0, 64, 34
1, 419328, Control_c, 0, 64, 0
1, 419527, Control_c, 0, 67, 63
1, 419557, Control_c, 0, 67, 62
1, 419566, Note_on_c, 0, 62, 34
1, 419572, Control_c, 0, 64, 36
1, 419572, Control_c, 0, 67, 62
1, 419587, Control_c, 0, 64, 44
1, 419587, Control_c, 0, 67, 61
1, 419602, Control_c, 0, 64, 51
1, 419602, Control_c, 0, 67, 61
1, 419617, Control_c, 0, 64, 56
1, 419617, Control_c, 0, 67, 60
1, 419631, Control_c, 0, 64, 58
1, 419631, Control_c, 0, 67, 60
1, 419646, Control_c, 0, 64, 59
1, 419661, Control_c, 0, 64, 60
1, 419661, Control_c, 0, 67, 59
1, 419675, Control_c, 0, 64, 61
1, 419690, Control_c, 0, 64, 62
1, 419705, Control_c, 0, 64, 64
1, 419720, Control_c, 0, 64, 65
1, 419720, Control_c, 0, 67, 58
1, 419735, Control_c, 0, 64, 66
1, 419750, Control_c, 0, 64, 68
1, 419764, Control_c, 0, 64, 69
1, 419779, Control_c, 0, 64, 69
1, 419794, Control_c, 0, 64, 70
1, 419809, Control_c, 0, 64, 71
1, 419823, Control_c, 0, 64, 71
1, 419823, Control_c, 0, 67, 59
1, 419847, Note_off_c, 0, 70, 35
1, 419853, Control_c, 0, 64, 72
1, 419867, Note_on_c, 0, 65, 36
1, 419912, Control_c, 0, 67, 59
1, 419956, Control_c, 0, 64, 72
1, 419993, Note_on_c, 0, 70, 55
1, 420060, Note_off_c, 0, 70, 59
1, 420064, Note_off_c, 0, 65, 43
1, 420143, Control_c, 0, 64, 72
1, 420143, Control_c, 0, 67, 59
1, 420187, Control_c, 0, 64, 71
1, 420196, Note_on_c, 0, 70, 55
1, 420199, Note_on_c, 0, 68, 45
1, 420202, Control_c, 0, 64, 70
1, 420217, Control_c, 0, 64, 68
1, 420232, Control_c, 0, 64, 66
1, 420247, Control_c, 0, 64, 64
1, 420247, Control_c, 0, 67, 58
1, 420249, Note_off_c, 0, 70, 60
1, 420253, Note_off_c, 0, 62, 24
1, 420261, Control_c, 0, 64, 63
1, 420269, Note_on_c, 0, 72, 61
1, 420276, Control_c, 0, 67, 58
1, 420320, Control_c, 0, 64, 64
1, 420329, Note_off_c, 0, 72, 60
1, 420335, Control_c, 0, 64, 65
1, 420341, Note_on_c, 0, 70, 60
1, 420350, Control_c, 0, 64, 66
1, 420365, Control_c, 0, 64, 66
1, 420374, Note_off_c, 0, 70, 66
1, 420380, Control_c, 0, 64, 67
1, 420386, Note_on_c, 0, 69, 61
1, 420424, Control_c, 0, 64, 66
1, 420427, Note_off_c, 0, 68, 36
1, 420454, Note_on_c, 0, 70, 68
1, 420469, Control_c, 0, 64, 66
1, 420484, Control_c, 0, 64, 65
1, 420491, Note_off_c, 0, 69, 49
1, 420498, Control_c, 0, 64, 64
1, 420513, Control_c, 0, 64, 63
1, 420528, Control_c, 0, 64, 62
1, 420543, Control_c, 0, 64, 60
1, 420558, Control_c, 0, 64, 58
1, 420573, Control_c, 0, 64, 55
1, 420577, Note_on_c, 0, 77, 63
1, 420587, Control_c, 0, 64, 51
1, 420593, Note_on_c, 0, 67, 34
1, 420602, Control_c, 0, 64, 45
1, 420617, Control_c, 0, 64, 35
1, 420632, Control_c, 0, 64, 0
1, 420671, Note_off_c, 0, 70, 36
1, 420676, Control_c, 0, 67, 57
1, 420705, Control_c, 0, 67, 57
1, 420720, Control_c, 0, 67, 56
1, 420735, Control_c, 0, 67, 50
1, 420750, Control_c, 0, 67, 42
1, 420765, Control_c, 0, 67, 33
1, 420779, Control_c, 0, 67, 26
1, 420794, Control_c, 0, 67, 21
1, 420809, Control_c, 0, 67, 0
1, 420824, Control_c, 0, 64, 36
1, 420839, Control_c, 0, 64, 47
1, 420861, Control_c, 0, 64, 53
1, 420876, Control_c, 0, 64, 56
1, 420891, Control_c, 0, 64, 57
1, 420905, Control_c, 0, 64, 58
1, 420920, Control_c, 0, 64, 58
1, 420936, Control_c, 0, 64, 59
1, 420951, Control_c, 0, 64, 60
1, 420966, Control_c, 0, 64, 60
1, 420973, Note_on_c, 0, 75, 58
1, 420981, Control_c, 0, 64, 61
1, 420996, Control_c, 0, 64, 61
1, 421025, Control_c, 0, 64, 62
1, 421040, Control_c, 0, 64, 62
1, 421055, Control_c, 0, 64, 63
1, 421223, Note_off_c, 0, 77, 23
1, 421232, Control_c, 0, 64, 62
1, 421247, Control_c, 0, 64, 61
1, 421262, Control_c, 0, 64, 60
1, 421277, Control_c, 0, 64, 59
1, 421277, Note_on_c, 0, 74, 58
1, 421289, Note_on_c, 0, 63, 35
1, 421292, Control_c, 0, 64, 58
1, 421307, Control_c, 0, 64, 56
1, 421321, Control_c, 0, 64, 52
1, 421329, Note_off_c, 0, 67, 47
1, 421336, Control_c, 0, 64, 45
1, 421351, Control_c, 0, 64, 34
1, 421366, Control_c, 0, 64, 0
1, 421390, Note_off_c, 0, 75, 36
1, 421514, Control_c, 0, 64, 30
1, 421528, Control_c, 0, 64, 37
1, 421543, Control_c, 0, 64, 43
1, 421558, Control_c, 0, 64, 49
1, 421572, Note_on_c, 0, 72, 54
1, 421573, Control_c, 0, 64, 52
1, 421588, Control_c, 0, 64, 55
1, 421599, Note_off_c, 0, 74, 60
1, 421610, Control_c, 0, 64, 57
1, 421625, Control_c, 0, 64, 59
1, 421640, Control_c, 0, 64, 61
1, 421654, Control_c, 0, 64, 62
1, 421669, Control_c, 0, 64, 64
1, 421681, Note_off_c, 0, 63, 56
1, 421684, Control_c, 0, 64, 65
1, 421688, Note_off_c, 0, 72, 52
1, 421699, Control_c, 0, 64, 66
1, 421730, Control_c, 0, 64, 66
1, 421848, Control_c, 0, 64, 66
1, 421863, Control_c, 0, 64, 65
1, 421877, Control_c, 0, 64, 65
1, 421892, Control_c, 0, 64, 64
1, 421907, Control_c, 0, 64, 63
1, 421920, Note_on_c, 0, 72, 43
1, 421922, Control_c, 0, 64, 63
1, 421928, Note_on_c, 0, 62, 30
1, 421937, Control_c, 0, 64, 62
1, 421951, Control_c, 0, 64, 61
1, 421966, Control_c, 0, 64, 60
1, 421981, Control_c, 0, 64, 59
1, 421996, Control_c, 0, 64, 58
1, 422011, Control_c, 0, 64, 57
1, 422025, Control_c, 0, 64, 55
1, 422040, Control_c, 0, 64, 54
1, 422055, Control_c, 0, 64, 53
1, 422055, Control_c, 0, 67, 19
1, 422070, Control_c, 0, 64, 52
1, 422085, Control_c, 0, 64, 50
1, 422100, Control_c, 0, 64, 49
1, 422100, Control_c, 0, 67, 21
1, 422115, Control_c, 0, 64, 47
1, 422130, Control_c, 0, 64, 44
1, 422144, Control_c, 0, 64, 40
1, 422144, Control_c, 0, 67, 24
1, 422159, Control_c, 0, 64, 35
1, 422174, Control_c, 0, 64, 30
1, 422189, Control_c, 0, 64, 0
1, 422204, Control_c, 0, 67, 26
1, 422233, Control_c, 0, 67, 28
1, 422257, Note_on_c, 0, 65, 34
1, 422258, Note_on_c, 0, 70, 44
1, 422277, Control_c, 0, 67, 31
1, 422292, Control_c, 0, 67, 32
1, 422307, Note_off_c, 0, 72, 51
1, 422307, Control_c, 0, 67, 35
1, 422322, Control_c, 0, 67, 38
1, 422337, Control_c, 0, 67, 42
1, 422359, Control_c, 0, 67, 48
1, 422374, Control_c, 0, 67, 53
1, 422389, Control_c, 0, 67, 59
1, 422403, Control_c, 0, 67, 65
1, 422418, Control_c, 0, 67, 70
1, 422433, Control_c, 0, 67, 74
1, 422448, Control_c, 0, 67, 77
1, 422463, Control_c, 0, 67, 79
1, 422477, Control_c, 0, 67, 79
1, 422492, Control_c, 0, 64, 34
1, 422492, Control_c, 0, 67, 80
1, 422507, Control_c, 0, 64, 46
1, 422507, Control_c, 0, 67, 81
1, 422523, Control_c, 0, 64, 54
1, 422523, Control_c, 0, 67, 83
1, 422538, Control_c, 0, 64, 58
1, 422538, Control_c, 0, 67, 86
1, 422553, Control_c, 0, 64, 59
1, 422553, Control_c, 0, 67, 87
1, 422565, Note_off_c, 0, 70, 50
1, 422568, Control_c, 0, 64, 60
1, 422568, Control_c, 0, 67, 87
1, 422582, Control_c, 0, 64, 61
1, 422590, Note_on_c, 0, 68, 45
1, 422597, Control_c, 0, 64, 62
1, 422612, Control_c, 0, 64, 63
1, 422627, Control_c, 0, 64, 63
1, 422633, Note_off_c, 0, 65, 48
1, 422642, Control_c, 0, 64, 64
1, 422671, Control_c, 0, 64, 65
1, 422671, Control_c, 0, 67, 86
1, 422708, Note_off_c, 0, 62, 13
1, 422726, Note_on_c, 0, 70, 44
1, 422730, Control_c, 0, 67, 86
1, 422745, Control_c, 0, 67, 85
1, 422760, Control_c, 0, 67, 85
1, 422804, Note_off_c, 0, 70, 62
1, 422809, Note_off_c, 0, 68, 37
1, 422863, Control_c, 0, 67, 84
1, 422893, Control_c, 0, 64, 63
1, 422908, Control_c, 0, 64, 61
1, 422908, Control_c, 0, 67, 84
1, 422914, Note_on_c, 0, 66, 46
1, 422922, Control_c, 0, 64, 57
1, 422932, Note_on_c, 0, 70, 41
1, 422937, Control_c, 0, 64, 54
1, 422952, Control_c, 0, 64, 53
1, 422967, Control_c, 0, 64, 54
1, 422971, Note_off_c, 0, 70, 65
1, 422994, Note_on_c, 0, 72, 51
1, 422997, Control_c, 0, 64, 54
1, 423012, Control_c, 0, 64, 56
1, 423026, Control_c, 0, 64, 58
1, 423036, Note_off_c, 0, 72, 62
1, 423041, Control_c, 0, 64, 59
1, 423056, Control_c, 0, 64, 60
1, 423070, Note_on_c, 0, 70, 56
1, 423086, Control_c, 0, 64, 61
1, 423107, Note_off_c, 0, 70, 65
1, 423119, Note_on_c, 0, 69, 54
1, 423122, Control_c, 0, 64, 60
1, 423152, Control_c, 0, 64, 60
1, 423167, Control_c, 0, 64, 59
1, 423167, Control_c, 0, 67, 83
1, 423182, Control_c, 0, 64, 59
1, 423192, Note_on_c, 0, 70, 57
1, 423197, Control_c, 0, 64, 58
1, 423212, Control_c, 0, 64, 57
1, 423218, Note_off_c, 0, 69, 45
1, 423226, Control_c, 0, 64, 55
1, 423241, Control_c, 0, 64, 53
1, 423256, Control_c, 0, 64, 51
1, 423256, Control_c, 0, 67, 83
1, 423271, Control_c, 0, 64, 46
1, 423276, Note_on_c, 0, 77, 58
1, 423286, Note_on_c, 0, 67, 44
1, 423286, Control_c, 0, 64, 39
1, 423300, Control_c, 0, 64, 0
1, 423311, Note_off_c, 0, 70, 47
1, 423328, Note_off_c, 0, 66, 38
1, 423331, Control_c, 0, 67, 82
1, 423390, Control_c, 0, 67, 82
1, 423449, Control_c, 0, 64, 34
1, 423464, Control_c, 0, 64, 42
1, 423479, Control_c, 0, 64, 48
1, 423494, Control_c, 0, 64, 52
1, 423509, Control_c, 0, 64, 54
1, 423523, Control_c, 0, 64, 55
1, 423553, Control_c, 0, 64, 56
1, 423553, Control_c, 0, 67, 81
1, 423599, Note_on_c, 0, 75, 44
1, 423647, Note_off_c, 0, 77, 33
1, 423671, Control_c, 0, 64, 55
1, 423760, Control_c, 0, 64, 55
1, 423805, Control_c, 0, 64, 54
1, 423820, Control_c, 0, 64, 53
1, 423835, Control_c, 0, 64, 50
1, 423856, Control_c, 0, 64, 47
1, 423871, Control_c, 0, 64, 43
1, 423886, Control_c, 0, 64, 39
1, 423901, Control_c, 0, 64, 34
1, 423904, Note_on_c, 0, 74, 49
1, 423913, Note_on_c, 0, 63, 34
1, 423916, Control_c, 0, 64, 0
1, 423985, Note_off_c, 0, 75, 35
1, 423987, Note_off_c, 0, 67, 37
1, 423990, Control_c, 0, 64, 31
1, 424005, Control_c, 0, 64, 37
1, 424019, Control_c, 0, 64, 44
1, 424034, Control_c, 0, 64, 51
1, 424049, Control_c, 0, 64, 55
1, 424064, Control_c, 0, 64, 58
1, 424079, Control_c, 0, 64, 59
1, 424094, Control_c, 0, 64, 60
1, 424109, Control_c, 0, 64, 61
1, 424116, Note_off_c, 0, 58, 34
1, 424124, Control_c, 0, 64, 62
1, 424139, Control_c, 0, 64, 62
1, 424154, Control_c, 0, 64, 63
1, 424183, Control_c, 0, 64, 63
1, 424216, Note_off_c, 0, 63, 55
1, 424221, Note_on_c, 0, 72, 45
1, 424245, Note_off_c, 0, 74, 56
1, 424332, Control_c, 0, 64, 63
1, 424376, Control_c, 0, 64, 62
1, 424405, Control_c, 0, 64, 62
1, 424435, Control_c, 0, 64, 61
1, 424479, Control_c, 0, 64, 61
1, 424494, Control_c, 0, 64, 60
1, 424510, Control_c, 0, 64, 60
1, 424525, Control_c, 0, 64, 59
1, 424538, Note_on_c, 0, 58, 42
1, 424538, Note_on_c, 0, 70, 45
1, 424539, Control_c, 0, 64, 58
1, 424554, Control_c, 0, 64, 55
1, 424569, Control_c, 0, 64, 50
1, 424584, Control_c, 0, 64, 44
1, 424595, Note_off_c, 0, 72, 33
1, 424606, Control_c, 0, 64, 36
1, 424621, Control_c, 0, 64, 0
1, 424916, Note_on_c, 0, 62, 35
1, 424916, Note_on_c, 0, 65, 35
1, 424935, Note_off_c, 0, 70, 50
1, 424963, Control_c, 0, 64, 34
1, 424977, Control_c, 0, 64, 46
1, 424992, Control_c, 0, 64, 55
1, 425007, Control_c, 0, 64, 59
1, 425021, Control_c, 0, 64, 62
1, 425036, Control_c, 0, 64, 63
1, 425051, Control_c, 0, 64, 66
1, 425066, Control_c, 0, 64, 68
1, 425081, Control_c, 0, 64, 70
1, 425096, Control_c, 0, 64, 73
1, 425110, Control_c, 0, 64, 74
1, 425125, Control_c, 0, 64, 74
1, 425133, Note_off_c, 0, 62, 51
1, 425147, Note_off_c, 0, 65, 53
1, 425244, Control_c, 0, 64, 74
1, 425274, Control_c, 0, 64, 73
1, 425288, Control_c, 0, 64, 73
1, 425303, Control_c, 0, 64, 72
1, 425318, Control_c, 0, 64, 70
1, 425330, Note_on_c, 0, 75, 60
1, 425333, Control_c, 0, 64, 67
1, 425347, Note_on_c, 0, 67, 40
1, 425349, Note_on_c, 0, 63, 40
1, 425355, Control_c, 0, 64, 63
1, 425370, Control_c, 0, 64, 58
1, 425385, Control_c, 0, 64, 51
1, 425400, Control_c, 0, 64, 44
1, 425415, Control_c, 0, 64, 38
1, 425429, Control_c, 0, 64, 32
1, 425459, Control_c, 0, 64, 32
1, 425474, Control_c, 0, 64, 35
1, 425489, Control_c, 0, 64, 42
1, 425503, Control_c, 0, 64, 51
1, 425518, Control_c, 0, 64, 57
1, 425533, Control_c, 0, 64, 60
1, 425535, Note_off_c, 0, 63, 54
1, 425547, Control_c, 0, 64, 62
1, 425562, Control_c, 0, 64, 63
1, 425577, Control_c, 0, 64, 64
1, 425592, Control_c, 0, 64, 65
1, 425607, Control_c, 0, 64, 66
1, 425621, Control_c, 0, 64, 66
1, 425625, Note_off_c, 0, 58, 41
1, 425636, Control_c, 0, 64, 67
1, 425695, Note_on_c, 0, 63, 39
1, 425696, Note_off_c, 0, 67, 42
1, 425697, Note_on_c, 0, 60, 39
1, 425763, Note_off_c, 0, 60, 50
1, 425772, Note_off_c, 0, 63, 49
1, 425786, Control_c, 0, 64, 66
1, 425815, Control_c, 0, 64, 66
1, 425844, Control_c, 0, 64, 65
1, 425847, Note_on_c, 0, 69, 42
1, 425859, Control_c, 0, 64, 65
1, 425883, Note_off_c, 0, 75, 37
1, 425889, Control_c, 0, 64, 64
1, 425904, Control_c, 0, 64, 64
1, 425918, Control_c, 0, 64, 63
1, 425948, Control_c, 0, 64, 63
1, 425978, Control_c, 0, 64, 62
1, 425993, Control_c, 0, 64, 62
1, 426007, Control_c, 0, 64, 59
1, 426019, Note_on_c, 0, 70, 51
1, 426022, Control_c, 0, 64, 53
1, 426030, Note_on_c, 0, 62, 35
1, 426031, Note_on_c, 0, 58, 39
1, 426036, Control_c, 0, 64, 46
1, 426041, Note_off_c, 0, 69, 37
1, 426051, Control_c, 0, 64, 36
1, 426066, Control_c, 0, 64, 0
1, 426207, Control_c, 0, 64, 35
1, 426214, Note_off_c, 0, 62, 58
1, 426222, Control_c, 0, 64, 45
1, 426237, Control_c, 0, 64, 51
1, 426251, Control_c, 0, 64, 55
1, 426266, Control_c, 0, 64, 57
1, 426281, Control_c, 0, 64, 58
1, 426296, Control_c, 0, 64, 59
1, 426311, Control_c, 0, 64, 59
1, 426325, Control_c, 0, 64, 60
1, 426340, Control_c, 0, 64, 60
1, 426369, Control_c, 0, 64, 61
1, 426384, Control_c, 0, 64, 61
1, 426389, Note_off_c, 0, 70, 48
1, 426395, Note_on_c, 0, 65, 50
1, 426410, Note_on_c, 0, 62, 31
1, 426414, Control_c, 0, 64, 62
1, 426429, Control_c, 0, 64, 62
1, 426443, Control_c, 0, 64, 63
1, 426458, Control_c, 0, 64, 63
1, 426473, Control_c, 0, 64, 64
1, 426488, Control_c, 0, 64, 64
1, 426503, Control_c, 0, 64, 65
1, 426519, Control_c, 0, 64, 66
1, 426534, Control_c, 0, 64, 66
1, 426548, Control_c, 0, 64, 67
1, 426550, Note_off_c, 0, 62, 51
1, 426550, Note_off_c, 0, 65, 52
1, 426563, Control_c, 0, 64, 67
1, 426578, Control_c, 0, 64, 68
1, 426607, Control_c, 0, 64, 68
1, 426607, Control_c, 0, 67, 81
1, 426756, Control_c, 0, 64, 68
1, 426786, Control_c, 0, 64, 67
1, 426816, Control_c, 0, 64, 67
1, 426830, Control_c, 0, 64, 66
1, 426853, Control_c, 0, 64, 66
1, 426867, Control_c, 0, 64, 65
1, 426873, Note_on_c, 0, 79, 67
1, 426879, Note_on_c, 0, 63, 36
1, 426881, Note_on_c, 0, 67, 37
1, 426882, Control_c, 0, 64, 64
1, 426897, Control_c, 0, 64, 62
1, 426912, Control_c, 0, 64, 57
1, 426927, Control_c, 0, 64, 48
1, 426941, Control_c, 0, 64, 39
1, 426956, Control_c, 0, 64, 0
1, 427060, Control_c, 0, 64, 39
1, 427075, Control_c, 0, 64, 50
1, 427090, Control_c, 0, 64, 57
1, 427105, Control_c, 0, 64, 61
1, 427120, Control_c, 0, 64, 62
1, 427135, Control_c, 0, 64, 63
1, 427148, Note_off_c, 0, 63, 42
1, 427149, Control_c, 0, 64, 64
1, 427164, Control_c, 0, 64, 65
1, 427179, Control_c, 0, 64, 66
1, 427193, Control_c, 0, 64, 67
1, 427208, Control_c, 0, 64, 68
1, 427219, Note_off_c, 0, 67, 36
1, 427223, Control_c, 0, 64, 69
1, 427238, Control_c, 0, 64, 69
1, 427253, Control_c, 0, 64, 70
1, 427267, Control_c, 0, 64, 70
1, 427282, Control_c, 0, 64, 71
1, 427313, Control_c, 0, 64, 72
1, 427313, Control_c, 0, 67, 82
1, 427328, Control_c, 0, 64, 72
1, 427343, Control_c, 0, 67, 83
1, 427355, Note_on_c, 0, 63, 28
1, 427358, Control_c, 0, 67, 84
1, 427364, Note_on_c, 0, 60, 27
1, 427372, Control_c, 0, 64, 73
1, 427372, Control_c, 0, 67, 85
1, 427387, Control_c, 0, 67, 86
1, 427388, Note_off_c, 0, 58, 36
1, 427402, Control_c, 0, 64, 73
1, 427402, Control_c, 0, 67, 87
1, 427415, Note_off_c, 0, 63, 60
1, 427416, Note_off_c, 0, 60, 56
1, 427416, Control_c, 0, 64, 74
1, 427416, Control_c, 0, 67, 88
1, 427431, Control_c, 0, 64, 74
1, 427431, Control_c, 0, 67, 89
1, 427446, Control_c, 0, 64, 75
1, 427446, Control_c, 0, 67, 93
1, 427461, Control_c, 0, 64, 76
1, 427461, Control_c, 0, 67, 101
1, 427476, Control_c, 0, 64, 76
1, 427476, Control_c, 0, 67, 108
1, 427490, Control_c, 0, 64, 77
1, 427490, Control_c, 0, 67, 116
1, 427505, Control_c, 0, 64, 77
1, 427505, Control_c, 0, 67, 125
1, 427520, Control_c, 0, 64, 78
1, 427520, Control_c, 0, 67, 127
1, 427550, Control_c, 0, 64, 78
1, 427564, Control_c, 0, 64, 79
1, 427602, Control_c, 0, 64, 79
1, 427626, Note_on_c, 0, 69, 43
1, 427646, Control_c, 0, 64, 80
1, 427650, Note_off_c, 0, 79, 41
1, 427662, Note_off_c, 0, 69, 59
1, 428016, Control_c, 0, 64, 79
1, 428061, Control_c, 0, 64, 79
1, 428090, Control_c, 0, 64, 78
1, 428120, Note_on_c, 0, 69, 49
1, 428121, Control_c, 0, 64, 78
1, 428127, Note_on_c, 0, 65, 46
1, 428136, Control_c, 0, 64, 76
1, 428139, Note_on_c, 0, 46, 36
1, 428149, Note_on_c, 0, 63, 26
1, 428150, Note_on_c, 0, 60, 28
1, 428151, Control_c, 0, 64, 74
1, 428165, Control_c, 0, 64, 72
1, 428166, Note_on_c, 0, 58, 9
1, 428180, Control_c, 0, 64, 68
1, 428195, Control_c, 0, 64, 65
1, 428210, Control_c, 0, 64, 61
1, 428225, Control_c, 0, 64, 57
1, 428239, Control_c, 0, 64, 54
1, 428254, Control_c, 0, 64, 51
1, 428269, Control_c, 0, 64, 50
1, 428284, Control_c, 0, 64, 49
1, 428328, Control_c, 0, 64, 49
1, 428351, Control_c, 0, 64, 48
1, 428380, Control_c, 0, 64, 48
1, 428395, Control_c, 0, 64, 47
1, 428410, Control_c, 0, 64, 47
1, 428425, Control_c, 0, 64, 46
1, 428439, Control_c, 0, 64, 44
1, 428454, Control_c, 0, 64, 43
1, 428469, Control_c, 0, 64, 42
1, 428528, Control_c, 0, 64, 43
1, 428558, Control_c, 0, 64, 43
1, 428676, Control_c, 0, 64, 44
1, 428691, Control_c, 0, 64, 44
1, 428706, Control_c, 0, 64, 45
1, 428720, Control_c, 0, 64, 46
1, 428735, Control_c, 0, 64, 46
1, 428750, Control_c, 0, 64, 47
1, 428765, Control_c, 0, 64, 48
1, 428780, Control_c, 0, 64, 48
1, 428795, Control_c, 0, 64, 49
1, 428810, Control_c, 0, 64, 51
1, 428825, Control_c, 0, 64, 52
1, 428839, Control_c, 0, 64, 53
1, 428854, Control_c, 0, 64, 54
1, 428869, Control_c, 0, 64, 55
1, 428884, Control_c, 0, 64, 56
1, 428899, Control_c, 0, 64, 58
1, 428914, Control_c, 0, 64, 60
1, 428929, Control_c, 0, 64, 62
1, 428944, Control_c, 0, 64, 63
1, 428959, Control_c, 0, 64, 65
1, 428974, Control_c, 0, 64, 66
1, 428988, Control_c, 0, 64, 68
1, 429004, Control_c, 0, 64, 70
1, 429018, Control_c, 0, 64, 71
1, 429033, Control_c, 0, 64, 72
1, 429048, Control_c, 0, 64, 74
1, 429063, Control_c, 0, 64, 76
1, 429078, Control_c, 0, 64, 78
1, 429100, Control_c, 0, 64, 80
1, 429115, Control_c, 0, 64, 84
1, 429130, Control_c, 0, 64, 87
1, 429144, Control_c, 0, 64, 91
1, 429159, Control_c, 0, 64, 95
1, 429173, Note_off_c, 0, 60, 36
1, 429174, Control_c, 0, 64, 99
1, 429188, Control_c, 0, 64, 104
1, 429203, Control_c, 0, 64, 111
1, 429218, Control_c, 0, 64, 127
1, 429242, Note_off_c, 0, 63, 35
1, 429272, Note_off_c, 0, 65, 40
1, 429455, Note_off_c, 0, 69, 49
1, 430364, Note_on_c, 0, 70, 38
1, 430366, Control_c, 0, 64, 113
1, 430379, Note_on_c, 0, 53, 23
1, 430381, Control_c, 0, 64, 101
1, 430385, Note_on_c, 0, 62, 27
1, 430390, Note_on_c, 0, 65, 23
1, 430393, Note_on_c, 0, 50, 8
1, 430396, Control_c, 0, 64, 92
1, 430411, Control_c, 0, 64, 82
1, 430425, Control_c, 0, 64, 75
1, 430440, Control_c, 0, 64, 68
1, 430455, Control_c, 0, 64, 63
1, 430470, Control_c, 0, 64, 59
1, 430485, Control_c, 0, 64, 55
1, 430500, Control_c, 0, 64, 54
1, 430515, Control_c, 0, 64, 53
1, 430530, Control_c, 0, 64, 52
1, 430545, Control_c, 0, 64, 51
1, 430560, Control_c, 0, 64, 50
1, 430574, Control_c, 0, 64, 49
1, 430597, Control_c, 0, 64, 49
1, 430612, Control_c, 0, 64, 48
1, 430641, Control_c, 0, 64, 48
1, 430671, Control_c, 0, 64, 47
1, 430715, Control_c, 0, 64, 47
1, 430789, Control_c, 0, 64, 47
1, 430819, Control_c, 0, 64, 47
1, 430849, Control_c, 0, 67, 125
1, 430864, Control_c, 0, 67, 117
1, 430879, Control_c, 0, 67, 108
1, 430893, Control_c, 0, 67, 99
1, 430908, Control_c, 0, 67, 87
1, 430923, Control_c, 0, 67, 79
1, 430938, Control_c, 0, 67, 71
1, 430953, Control_c, 0, 67, 65
1, 430967, Control_c, 0, 67, 59
1, 430982, Control_c, 0, 67, 54
1, 430997, Control_c, 0, 67, 49
1, 431012, Control_c, 0, 67, 44
1, 431027, Control_c, 0, 67, 40
1, 431041, Control_c, 0, 64, 46
1, 431041, Control_c, 0, 67, 35
1, 431056, Control_c, 0, 67, 30
1, 431071, Control_c, 0, 67, 25
1, 431085, Control_c, 0, 67, 20
1, 431100, Control_c, 0, 67, 0
1, 431145, Control_c, 0, 64, 46
1, 431233, Control_c, 0, 64, 45
1, 431308, Control_c, 0, 64, 45
1, 431449, Control_c, 0, 64, 44
1, 431627, Control_c, 0, 64, 44
1, 431760, Control_c, 0, 64, 43
1, 431952, Control_c, 0, 64, 43
1, 432041, Control_c, 0, 64, 42
1, 432112, Note_off_c, 0, 65, 38
1, 432119, Note_off_c, 0, 46, 40
1, 432122, Note_off_c, 0, 62, 38
1, 432162, Note_off_c, 0, 70, 40
1, 432178, Note_off_c, 0, 58, 40
1, 432198, Note_off_c, 0, 53, 37
1, 432229, Note_off_c, 0, 50, 31
1, 432301, Control_c, 0, 64, 42
1, 432856, Control_c, 0, 64, 41
1, 434578, Control_c, 0, 64, 42
1, 434830, Control_c, 0, 64, 42
1, 434904, Control_c, 0, 64, 43
1, 434948, Control_c, 0, 64, 43
1, 434978, Control_c, 0, 64, 44
1, 434993, Control_c, 0, 64, 44
1, 435007, Control_c, 0, 64, 45
1, 435022, Control_c, 0, 64, 45
1, 435052, Control_c, 0, 64, 46
1, 435067, Control_c, 0, 64, 46
1, 435089, Control_c, 0, 64, 47
1, 435222, Control_c, 0, 64, 47
1, 435237, Control_c, 0, 64, 48
1, 435252, Control_c, 0, 64, 48
1, 435266, Control_c, 0, 64, 49
1, 435281, Control_c, 0, 64, 49
1, 435312, Control_c, 0, 64, 50
1, 435401, Control_c, 0, 64, 49
1, 435416, Control_c, 0, 64, 48
1, 435430, Control_c, 0, 64, 47
1, 435445, Control_c, 0, 64, 46
1, 435460, Control_c, 0, 64, 45
1, 435564, Control_c, 0, 64, 45
1, 435594, Control_c, 0, 64, 44
1, 435609, Control_c, 0, 64, 43
1, 435623, Control_c, 0, 64, 41
1, 435638, Control_c, 0, 64, 38
1, 435653, Control_c, 0, 64, 36
1, 435668, Control_c, 0, 64, 29
1, 435682, Control_c, 0, 64, 0
1, 438848, Control_c, 0, 64, 36
1, 438863, Control_c, 0, 64, 42
1, 438878, Control_c, 0, 64, 47
1, 438893, Control_c, 0, 64, 49
1, 438907, Control_c, 0, 64, 50
1, 438922, Control_c, 0, 64, 52
1, 438937, Control_c, 0, 64, 53
1, 438952, Control_c, 0, 64, 54
1, 438967, Control_c, 0, 64, 55
1, 438981, Control_c, 0, 64, 56
1, 438996, Control_c, 0, 64, 57
1, 439011, Control_c, 0, 64, 58
1, 439025, Control_c, 0, 64, 57
1, 439085, Control_c, 0, 64, 58
1, 439115, Control_c, 0, 64, 58
1, 439174, Control_c, 0, 64, 58
1, 439189, Control_c, 0, 64, 56
1, 439204, Control_c, 0, 64, 54
1, 439218, Control_c, 0, 64, 50
1, 439233, Control_c, 0, 64, 44
1, 439248, Control_c, 0, 64, 31
1, 439263, Control_c, 0, 64, 0
1, 440423, Note_on_c, 0, 53, 88
1, 440426, Note_on_c, 0, 41, 75
1, 440426, Note_on_c, 0, 48, 79
1, 440429, Note_on_c, 0, 45, 75
1, 440505, Note_on_c, 0, 84, 89
1, 440593, Note_off_c, 0, 84, 64
1, 440596, Note_on_c, 0, 83, 92
1, 440664, Note_on_c, 0, 84, 87
1, 440672, Note_off_c, 0, 83, 63
1, 440729, Note_off_c, 0, 84, 65
1, 440733, Note_on_c, 0, 89, 83
1, 440796, Note_on_c, 0, 84, 85
1, 440835, Note_off_c, 0, 89, 62
1, 440865, Note_on_c, 0, 82, 86
1, 440892, Note_off_c, 0, 84, 64
1, 440920, Note_off_c, 0, 82, 65
1, 440930, Note_on_c, 0, 81, 82
1, 440937, Note_off_c, 0, 48, 63
1, 440939, Note_off_c, 0, 45, 64
1, 440948, Note_off_c, 0, 41, 62
1, 440954, Note_off_c, 0, 53, 58
1, 440954, Control_c, 0, 67, 20
1, 440969, Control_c, 0, 67, 22
1, 440998, Note_on_c, 0, 80, 86
1, 441011, Note_off_c, 0, 81, 58
1, 441013, Control_c, 0, 67, 24
1, 441067, Note_on_c, 0, 81, 70
1, 441080, Note_off_c, 0, 80, 64
1, 441080, Control_c, 0, 67, 26
1, 441130, Note_off_c, 0, 81, 64
1, 441133, Note_on_c, 0, 84, 82
1, 441191, Note_on_c, 0, 81, 81
1, 441214, Note_off_c, 0, 84, 63
1, 441243, Control_c, 0, 67, 24
1, 441261, Note_on_c, 0, 79, 82
1, 441283, Note_off_c, 0, 81, 64
1, 441308, Note_off_c, 0, 79, 67
1, 441317, Control_c, 0, 67, 22
1, 441320, Note_on_c, 0, 77, 73
1, 441384, Note_off_c, 0, 77, 38
1, 441386, Note_on_c, 0, 76, 82
1, 441452, Note_on_c, 0, 77, 74
1, 441459, Note_off_c, 0, 76, 64
1, 441480, Control_c, 0, 67, 20
1, 441508, Note_off_c, 0, 77, 65
1, 441509, Control_c, 0, 67, 0
1, 441517, Note_on_c, 0, 81, 76
1, 441564, Note_on_c, 0, 77, 72
1, 441591, Note_off_c, 0, 81, 63
1, 441632, Note_on_c, 0, 74, 81
1, 441653, Note_off_c, 0, 77, 66
1, 441685, Note_off_c, 0, 74, 64
1, 441695, Note_on_c, 0, 72, 75
1, 441765, Note_on_c, 0, 71, 77
1, 441774, Note_off_c, 0, 72, 57
1, 441831, Note_on_c, 0, 72, 58
1, 441844, Note_off_c, 0, 71, 64
1, 441896, Note_off_c, 0, 72, 64
1, 441900, Note_on_c, 0, 77, 68
1, 441948, Note_on_c, 0, 72, 63
1, 441973, Note_off_c, 0, 77, 60
1, 442023, Note_on_c, 0, 70, 76
1, 442043, Note_off_c, 0, 72, 62
1, 442069, Note_off_c, 0, 70, 65
1, 442089, Note_on_c, 0, 69, 66
1, 442125, Note_off_c, 0, 69, 53
1, 442152, Note_on_c, 0, 68, 69
1, 442219, Note_off_c, 0, 68, 63
1, 442226, Note_on_c, 0, 69, 65
1, 442259, Note_off_c, 0, 69, 63
1, 442346, Note_on_c, 0, 69, 55
1, 442383, Note_off_c, 0, 69, 63
1, 442409, Note_on_c, 0, 57, 56
1, 442424, Note_on_c, 0, 65, 62
1, 442433, Note_off_c, 0, 57, 60
1, 442454, Note_off_c, 0, 65, 64
1, 442493, Note_on_c, 0, 77, 57
1, 442525, Note_off_c, 0, 77, 66
1, 442538, Note_on_c, 0, 55, 50
1, 442577, Note_on_c, 0, 64, 53
1, 442579, Note_off_c, 0, 55, 64
1, 442602, Note_off_c, 0, 64, 63
1, 442631, Note_on_c, 0, 77, 56
1, 442667, Note_off_c, 0, 77, 61
1, 442700, Note_on_c, 0, 57, 49
1, 442701, Note_on_c, 0, 65, 66
1, 442728, Note_off_c, 0, 57, 56
1, 442734, Note_off_c, 0, 65, 65
1, 442766, Note_on_c, 0, 77, 59
1, 442802, Note_off_c, 0, 77, 63
1, 442831, Note_on_c, 0, 58, 63
1, 442832, Note_on_c, 0, 67, 71
1, 442860, Note_off_c, 0, 67, 65
1, 442862, Note_off_c, 0, 58, 66
1, 442895, Note_on_c, 0, 77, 60
1, 442930, Note_off_c, 0, 77, 64
1, 442961, Note_on_c, 0, 65, 74
1, 442964, Note_on_c, 0, 57, 69
1, 442991, Note_off_c, 0, 65, 65
1, 442993, Note_off_c, 0, 57, 67
1, 443020, Note_on_c, 0, 77, 71
1, 443079, Note_off_c, 0, 77, 62
1, 443091, Note_on_c, 0, 58, 71
1, 443094, Note_on_c, 0, 67, 78
1, 443127, Note_off_c, 0, 58, 66
1, 443130, Note_off_c, 0, 67, 63
1, 443157, Note_on_c, 0, 77, 67
1, 443219, Note_off_c, 0, 77, 63
1, 443225, Note_on_c, 0, 60, 75
1, 443235, Note_on_c, 0, 69, 74
1, 443261, Note_off_c, 0, 60, 67
1, 443276, Note_off_c, 0, 69, 59
1, 443288, Note_on_c, 0, 77, 69
1, 443364, Note_off_c, 0, 77, 63
1, 443369, Note_on_c, 0, 58, 81
1, 443373, Note_on_c, 0, 67, 73
1, 443404, Note_off_c, 0, 58, 65
1, 443422, Note_off_c, 0, 67, 61
1, 443425, Note_on_c, 0, 77, 72
1, 443498, Note_on_c, 0, 60, 82
1, 443502, Note_off_c, 0, 77, 64
1, 443505, Note_on_c, 0, 69, 82
1, 443548, Note_off_c, 0, 60, 68
1, 443557, Note_on_c, 0, 77, 67
1, 443574, Note_off_c, 0, 69, 63
1, 443637, Note_on_c, 0, 61, 85
1, 443655, Note_on_c, 0, 70, 73
1, 443662, Note_off_c, 0, 77, 64
1, 443697, Control_c, 0, 64, 40
1, 443712, Control_c, 0, 64, 54
1, 443716, Note_off_c, 0, 70, 64
1, 443727, Note_on_c, 0, 77, 58
1, 443727, Control_c, 0, 64, 62
1, 443741, Control_c, 0, 64, 67
1, 443756, Control_c, 0, 64, 74
1, 443771, Control_c, 0, 64, 85
1, 443786, Control_c, 0, 64, 103
1, 443790, Note_off_c, 0, 77, 62
1, 443792, Note_on_c, 0, 70, 69
1, 443801, Control_c, 0, 64, 127
1, 443851, Note_off_c, 0, 70, 61
1, 443852, Note_on_c, 0, 77, 64
1, 443858, Note_off_c, 0, 61, 43
1, 443860, Control_c, 0, 64, 83
1, 443875, Control_c, 0, 64, 59
1, 443890, Control_c, 0, 64, 0
1, 443911, Note_on_c, 0, 60, 68
1, 443917, Note_off_c, 0, 77, 63
1, 443925, Note_on_c, 0, 69, 76
1, 443938, Note_off_c, 0, 60, 69
1, 443994, Note_on_c, 0, 77, 63
1, 444002, Note_off_c, 0, 69, 60
1, 444070, Note_on_c, 0, 61, 84
1, 444075, Note_off_c, 0, 77, 61
1, 444077, Note_on_c, 0, 70, 71
1, 444106, Control_c, 0, 64, 34
1, 444120, Control_c, 0, 64, 47
1, 444126, Note_off_c, 0, 70, 62
1, 444135, Control_c, 0, 64, 58
1, 444138, Note_on_c, 0, 77, 60
1, 444150, Control_c, 0, 64, 64
1, 444164, Control_c, 0, 64, 72
1, 444179, Control_c, 0, 64, 84
1, 444194, Control_c, 0, 64, 108
1, 444202, Note_on_c, 0, 70, 69
1, 444204, Note_off_c, 0, 77, 63
1, 444209, Control_c, 0, 64, 127
1, 444266, Note_off_c, 0, 70, 62
1, 444266, Note_on_c, 0, 77, 64
1, 444316, Note_off_c, 0, 61, 39
1, 444328, Control_c, 0, 64, 109
1, 444328, Note_on_c, 0, 60, 72
1, 444332, Note_on_c, 0, 69, 77
1, 444332, Note_off_c, 0, 77, 64
1, 444343, Control_c, 0, 64, 83
1, 444358, Control_c, 0, 64, 66
1, 444361, Note_off_c, 0, 60, 65
1, 444372, Control_c, 0, 64, 54
1, 444387, Control_c, 0, 64, 37
1, 444388, Note_off_c, 0, 69, 59
1, 444388, Note_on_c, 0, 77, 63
1, 444402, Control_c, 0, 64, 0
1, 444446, Note_off_c, 0, 77, 64
1, 444467, Note_on_c, 0, 68, 76
1, 444474, Note_on_c, 0, 59, 67
1, 444501, Note_off_c, 0, 68, 66
1, 444502, Note_off_c, 0, 59, 66
1, 444519, Note_on_c, 0, 77, 63
1, 444576, Note_off_c, 0, 77, 62
1, 444601, Note_on_c, 0, 68, 71
1, 444610, Note_on_c, 0, 59, 61
1, 444628, Note_off_c, 0, 68, 66
1, 444639, Note_off_c, 0, 59, 66
1, 444660, Note_on_c, 0, 77, 67
1, 444709, Note_off_c, 0, 77, 58
1, 444730, Note_on_c, 0, 68, 74
1, 444743, Note_on_c, 0, 59, 53
1, 444764, Note_off_c, 0, 68, 65
1, 444775, Note_off_c, 0, 59, 65
1, 444810, Note_on_c, 0, 77, 48
1, 444862, Note_off_c, 0, 77, 61
1, 444901, Note_on_c, 0, 76, 67
1, 444913, Note_on_c, 0, 60, 50
1, 444922, Note_on_c, 0, 67, 41
1, 445006, Note_off_c, 0, 60, 63
1, 445035, Note_off_c, 0, 67, 51
1, 445094, Note_off_c, 0, 76, 58
1, 445326, Note_on_c, 0, 53, 90
1, 445333, Note_on_c, 0, 41, 78
1, 445333, Note_on_c, 0, 48, 76
1, 445334, Note_on_c, 0, 45, 79
1, 445411, Note_on_c, 0, 84, 85
1, 445486, Note_on_c, 0, 83, 86
1, 445486, Note_off_c, 0, 84, 65
1, 445551, Note_on_c, 0, 84, 93
1, 445614, Note_off_c, 0, 83, 34
1, 445624, Note_on_c, 0, 89, 89
1, 445629, Note_off_c, 0, 84, 65
1, 445693, Note_on_c, 0, 84, 85
1, 445736, Note_off_c, 0, 89, 60
1, 445766, Note_on_c, 0, 82, 83
1, 445791, Note_off_c, 0, 84, 66
1, 445814, Note_off_c, 0, 82, 65
1, 445829, Note_on_c, 0, 81, 93
1, 445864, Note_off_c, 0, 48, 64
1, 445868, Note_off_c, 0, 45, 64
1, 445878, Note_off_c, 0, 53, 59
1, 445881, Note_off_c, 0, 41, 62
1, 445885, Note_off_c, 0, 81, 53
1, 445896, Note_on_c, 0, 80, 82
1, 445960, Note_on_c, 0, 81, 81
1, 445972, Note_off_c, 0, 80, 63
1, 446022, Note_off_c, 0, 81, 65
1, 446025, Note_on_c, 0, 84, 85
1, 446090, Note_on_c, 0, 81, 80
1, 446114, Note_off_c, 0, 84, 63
1, 446149, Note_on_c, 0, 79, 84
1, 446177, Note_off_c, 0, 81, 64
1, 446201, Note_off_c, 0, 79, 67
1, 446215, Note_on_c, 0, 77, 77
1, 446279, Note_off_c, 0, 77, 55
1, 446284, Note_on_c, 0, 76, 82
1, 446349, Note_on_c, 0, 77, 73
1, 446361, Note_off_c, 0, 76, 64
1, 446407, Note_off_c, 0, 77, 65
1, 446418, Note_on_c, 0, 81, 80
1, 446472, Note_on_c, 0, 77, 78
1, 446495, Note_off_c, 0, 81, 62
1, 446540, Note_on_c, 0, 74, 81
1, 446563, Note_off_c, 0, 77, 64
1, 446589, Note_off_c, 0, 74, 65
1, 446604, Note_on_c, 0, 72, 71
1, 446669, Note_on_c, 0, 71, 77
1, 446675, Note_off_c, 0, 72, 54
1, 446727, Note_on_c, 0, 72, 62
1, 446743, Note_off_c, 0, 71, 64
1, 446788, Note_off_c, 0, 72, 64
1, 446795, Note_on_c, 0, 77, 67
1, 446842, Note_on_c, 0, 72, 66
1, 446865, Note_off_c, 0, 77, 60
1, 446900, Control_c, 0, 67, 22
1, 446914, Control_c, 0, 67, 29
1, 446920, Note_on_c, 0, 70, 71
1, 446929, Control_c, 0, 67, 37
1, 446934, Note_off_c, 0, 72, 62
1, 446944, Control_c, 0, 67, 48
1, 446958, Control_c, 0, 67, 58
1, 446961, Note_off_c, 0, 70, 64
1, 446973, Control_c, 0, 67, 65
1, 446979, Note_on_c, 0, 69, 65
1, 446988, Control_c, 0, 67, 67
1, 447018, Control_c, 0, 67, 67
1, 447025, Note_off_c, 0, 69, 53
1, 447032, Control_c, 0, 67, 66
1, 447047, Control_c, 0, 67, 65
1, 447050, Note_on_c, 0, 68, 68
1, 447070, Control_c, 0, 67, 64
1, 447084, Control_c, 0, 67, 63
1, 447099, Control_c, 0, 67, 62
1, 447114, Control_c, 0, 67, 62
1, 447128, Note_off_c, 0, 68, 62
1, 447129, Control_c, 0, 67, 61
1, 447133, Note_on_c, 0, 69, 64
1, 447144, Control_c, 0, 67, 60
1, 447158, Control_c, 0, 67, 59
1, 447166, Note_off_c, 0, 69, 62
1, 447173, Control_c, 0, 67, 59
1, 447188, Control_c, 0, 67, 58
1, 447198, Note_on_c, 0, 72, 52
1, 447218, Control_c, 0, 67, 57
1, 447250, Note_off_c, 0, 72, 59
1, 447268, Note_on_c, 0, 69, 46
1, 447304, Note_off_c, 0, 69, 65
1, 447340, Note_on_c, 0, 57, 58
1, 447344, Note_on_c, 0, 65, 57
1, 447366, Note_off_c, 0, 57, 62
1, 447381, Note_off_c, 0, 65, 65
1, 447410, Note_on_c, 0, 77, 56
1, 447451, Note_off_c, 0, 77, 65
1, 447485, Note_on_c, 0, 55, 53
1, 447491, Note_on_c, 0, 64, 54
1, 447515, Note_off_c, 0, 55, 64
1, 447518, Note_off_c, 0, 64, 64
1, 447545, Control_c, 0, 67, 57
1, 447554, Note_on_c, 0, 77, 56
1, 447560, Control_c, 0, 67, 56
1, 447574, Control_c, 0, 67, 55
1, 447594, Note_off_c, 0, 77, 60
1, 447604, Control_c, 0, 67, 55
1, 447619, Control_c, 0, 67, 54
1, 447628, Note_on_c, 0, 57, 64
1, 447628, Note_on_c, 0, 65, 65
1, 447655, Note_off_c, 0, 57, 66
1, 447661, Note_off_c, 0, 65, 65
1, 447663, Control_c, 0, 67, 54
1, 447678, Control_c, 0, 67, 53
1, 447693, Note_on_c, 0, 77, 63
1, 447693, Control_c, 0, 67, 52
1, 447707, Control_c, 0, 67, 47
1, 447722, Control_c, 0, 67, 38
1, 447735, Note_off_c, 0, 77, 60
1, 447737, Control_c, 0, 67, 29
1, 447752, Control_c, 0, 67, 19
1, 447759, Note_on_c, 0, 58, 69
1, 447767, Control_c, 0, 67, 0
1, 447768, Note_on_c, 0, 67, 70
1, 447788, Note_off_c, 0, 58, 67
1, 447795, Note_off_c, 0, 67, 65
1, 447834, Note_on_c, 0, 77, 65
1, 447880, Note_off_c, 0, 77, 61
1, 447908, Note_on_c, 0, 65, 71
1, 447916, Note_on_c, 0, 57, 61
1, 447938, Note_off_c, 0, 65, 65
1, 447947, Note_off_c, 0, 57, 65
1, 447970, Note_on_c, 0, 77, 64
1, 448028, Note_off_c, 0, 77, 63
1, 448038, Note_on_c, 0, 58, 66
1, 448045, Note_on_c, 0, 67, 69
1, 448067, Note_off_c, 0, 58, 68
1, 448069, Note_off_c, 0, 67, 67
1, 448097, Note_on_c, 0, 77, 63
1, 448159, Note_off_c, 0, 77, 63
1, 448168, Note_on_c, 0, 60, 73
1, 448175, Note_on_c, 0, 69, 79
1, 448204, Note_off_c, 0, 60, 68
1, 448215, Note_off_c, 0, 69, 62
1, 448232, Note_on_c, 0, 77, 69
1, 448294, Note_off_c, 0, 77, 64
1, 448307, Note_on_c, 0, 58, 73
1, 448311, Note_on_c, 0, 67, 73
1, 448341, Note_off_c, 0, 58, 66
1, 448358, Note_off_c, 0, 67, 57
1, 448366, Note_on_c, 0, 77, 72
1, 448433, Note_off_c, 0, 77, 64
1, 448436, Note_on_c, 0, 60, 78
1, 448444, Note_on_c, 0, 69, 76
1, 448487, Note_off_c, 0, 60, 65
1, 448497, Note_on_c, 0, 77, 66
1, 448505, Note_off_c, 0, 69, 62
1, 448577, Note_on_c, 0, 61, 85
1, 448590, Note_off_c, 0, 77, 60
1, 448601, Note_on_c, 0, 70, 71
1, 448655, Note_off_c, 0, 70, 64
1, 448663, Note_on_c, 0, 77, 62
1, 448713, Note_off_c, 0, 77, 59
1, 448729, Note_on_c, 0, 70, 64
1, 448788, Note_off_c, 0, 70, 62
1, 448791, Note_on_c, 0, 77, 64
1, 448854, Note_off_c, 0, 61, 59
1, 448856, Note_off_c, 0, 77, 63
1, 448861, Note_on_c, 0, 69, 76
1, 448865, Note_on_c, 0, 60, 67
1, 448900, Note_off_c, 0, 60, 65
1, 448925, Note_on_c, 0, 77, 61
1, 448936, Note_off_c, 0, 69, 61
1, 448993, Note_off_c, 0, 77, 61
1, 449005, Note_on_c, 0, 61, 77
1, 449011, Note_on_c, 0, 70, 72
1, 449051, Note_off_c, 0, 70, 62
1, 449074, Note_on_c, 0, 77, 62
1, 449137, Note_off_c, 0, 77, 62
1, 449145, Note_on_c, 0, 70, 70
1, 449199, Note_on_c, 0, 77, 65
1, 449202, Note_off_c, 0, 70, 61
1, 449241, Note_off_c, 0, 61, 45
1, 449269, Note_on_c, 0, 60, 57
1, 449269, Note_off_c, 0, 77, 64
1, 449273, Note_on_c, 0, 69, 74
1, 449309, Note_off_c, 0, 60, 66
1, 449336, Note_on_c, 0, 77, 63
1, 449345, Note_off_c, 0, 69, 56
1, 449401, Note_off_c, 0, 77, 64
1, 449407, Note_on_c, 0, 68, 75
1, 449428, Note_on_c, 0, 59, 55
1, 449452, Note_off_c, 0, 59, 64
1, 449464, Note_on_c, 0, 77, 68
1, 449468, Note_off_c, 0, 68, 63
1, 449522, Note_off_c, 0, 77, 60
1, 449657, Control_c, 0, 67, 19
1, 449762, Control_c, 0, 67, 0
1, 449849, Note_on_c, 0, 67, 55
1, 449852, Note_on_c, 0, 58, 53
1, 449886, Note_off_c, 0, 58, 65
1, 449915, Note_off_c, 0, 67, 48
1, 449924, Note_on_c, 0, 76, 65
1, 449984, Control_c, 0, 67, 19
1, 449986, Note_off_c, 0, 76, 55
1, 450014, Control_c, 0, 67, 24
1, 450029, Control_c, 0, 67, 30
1, 450044, Control_c, 0, 67, 42
1, 450066, Control_c, 0, 67, 60
1, 450081, Control_c, 0, 67, 84
1, 450096, Control_c, 0, 67, 103
1, 450110, Control_c, 0, 67, 117
1, 450125, Control_c, 0, 67, 127
1, 450214, Control_c, 0, 67, 124
1, 450229, Control_c, 0, 67, 122
1, 450258, Control_c, 0, 67, 119
1, 450288, Control_c, 0, 67, 117
1, 450317, Control_c, 0, 67, 112
1, 450332, Control_c, 0, 67, 106
1, 450347, Control_c, 0, 67, 98
1, 450356, Note_on_c, 0, 66, 42
1, 450362, Control_c, 0, 67, 88
1, 450364, Note_on_c, 0, 57, 38
1, 450377, Control_c, 0, 67, 76
1, 450392, Control_c, 0, 67, 62
1, 450397, Note_off_c, 0, 57, 57
1, 450406, Control_c, 0, 67, 46
1, 450421, Control_c, 0, 67, 29
1, 450436, Control_c, 0, 67, 0
1, 450445, Note_on_c, 0, 75, 46
1, 450464, Note_off_c, 0, 66, 36
1, 450544, Note_off_c, 0, 75, 58
1, 450880, Note_on_c, 0, 46, 79
1, 450903, Control_c, 0, 64, 58
1, 450918, Control_c, 0, 64, 66
1, 450932, Control_c, 0, 64, 72
1, 450947, Control_c, 0, 64, 83
1, 450959, Note_on_c, 0, 58, 67
1, 450962, Control_c, 0, 64, 99
1, 450977, Control_c, 0, 64, 127
1, 450986, Note_off_c, 0, 46, 61
1, 451028, Note_off_c, 0, 58, 63
1, 451050, Note_on_c, 0, 62, 74
1, 451117, Note_on_c, 0, 67, 71
1, 451155, Control_c, 0, 64, 96
1, 451157, Note_off_c, 0, 62, 55
1, 451170, Control_c, 0, 64, 83
1, 451181, Note_on_c, 0, 70, 82
1, 451184, Control_c, 0, 64, 73
1, 451199, Control_c, 0, 64, 65
1, 451203, Note_off_c, 0, 67, 62
1, 451214, Control_c, 0, 64, 57
1, 451229, Control_c, 0, 64, 45
1, 451244, Control_c, 0, 64, 0
1, 451244, Note_on_c, 0, 74, 78
1, 451247, Note_off_c, 0, 70, 66
1, 451322, Note_on_c, 0, 55, 55
1, 451322, Note_on_c, 0, 58, 58
1, 451325, Note_on_c, 0, 72, 75
1, 451333, Note_on_c, 0, 48, 44
1, 451364, Note_off_c, 0, 74, 60
1, 451390, Note_on_c, 0, 70, 73
1, 451432, Note_off_c, 0, 72, 58
1, 451464, Note_on_c, 0, 69, 66
1, 451493, Note_off_c, 0, 70, 63
1, 451519, Note_off_c, 0, 69, 58
1, 451522, Note_on_c, 0, 67, 68
1, 451590, Note_off_c, 0, 58, 52
1, 451592, Note_off_c, 0, 55, 51
1, 451597, Note_on_c, 0, 65, 72
1, 451607, Note_off_c, 0, 67, 63
1, 451655, Note_off_c, 0, 48, 51
1, 451666, Note_off_c, 0, 65, 64
1, 451667, Note_on_c, 0, 64, 56
1, 451751, Note_off_c, 0, 64, 63
1, 451755, Note_on_c, 0, 53, 36
1, 451756, Note_on_c, 0, 57, 40
1, 451757, Note_on_c, 0, 65, 63
1, 451790, Note_off_c, 0, 57, 55
1, 451790, Note_off_c, 0, 53, 54
1, 451878, Note_off_c, 0, 65, 61
1, 451914, Note_on_c, 0, 60, 61
1, 451946, Note_off_c, 0, 60, 66
1, 452055, Note_on_c, 0, 60, 56
1, 452091, Note_off_c, 0, 60, 67
1, 452220, Note_on_c, 0, 64, 53
1, 452233, Note_on_c, 0, 48, 37
1, 452281, Note_off_c, 0, 64, 56
1, 452283, Note_on_c, 0, 70, 68
1, 452446, Note_on_c, 0, 58, 45
1, 452447, Note_on_c, 0, 60, 44
1, 452490, Note_off_c, 0, 60, 63
1, 452490, Note_off_c, 0, 58, 63
1, 452493, Note_off_c, 0, 48, 42
1, 452606, Note_on_c, 0, 58, 46
1, 452613, Note_on_c, 0, 60, 42
1, 452646, Note_off_c, 0, 58, 65
1, 452649, Note_off_c, 0, 60, 61
1, 452756, Note_on_c, 0, 58, 47
1, 452758, Note_on_c, 0, 60, 48
1, 452776, Note_off_c, 0, 70, 50
1, 452791, Note_off_c, 0, 58, 65
1, 452800, Note_off_c, 0, 60, 64
1, 452896, Note_on_c, 0, 69, 56
1, 452904, Note_on_c, 0, 58, 40
1, 452907, Note_on_c, 0, 60, 42
1, 452934, Note_off_c, 0, 58, 61
1, 452936, Note_off_c, 0, 60, 58
1, 452937, Note_off_c, 0, 69, 63
1, 453033, Note_on_c, 0, 67, 58
1, 453034, Note_on_c, 0, 58, 44
1, 453035, Note_on_c, 0, 60, 35
1, 453076, Note_off_c, 0, 58, 60
1, 453078, Note_off_c, 0, 67, 62
1, 453080, Note_off_c, 0, 60, 52
1, 453190, Note_on_c, 0, 67, 63
1, 453203, Note_on_c, 0, 53, 40
1, 453251, Note_off_c, 0, 53, 55
1, 453256, Note_on_c, 0, 65, 57
1, 453331, Note_off_c, 0, 67, 48
1, 453343, Control_c, 0, 67, 20
1, 453358, Control_c, 0, 67, 23
1, 453371, Note_on_c, 0, 60, 45
1, 453372, Control_c, 0, 67, 27
1, 453381, Note_on_c, 0, 57, 31
1, 453387, Control_c, 0, 67, 29
1, 453411, Note_off_c, 0, 60, 64
1, 453417, Note_off_c, 0, 57, 54
1, 453417, Control_c, 0, 67, 31
1, 453476, Control_c, 0, 67, 29
1, 453521, Control_c, 0, 67, 27
1, 453531, Note_on_c, 0, 57, 44
1, 453536, Note_on_c, 0, 60, 42
1, 453575, Note_off_c, 0, 65, 61
1, 453575, Note_off_c, 0, 57, 63
1, 453578, Note_off_c, 0, 60, 64
1, 453580, Control_c, 0, 67, 25
1, 453691, Note_on_c, 0, 60, 45
1, 453696, Note_on_c, 0, 57, 44
1, 453704, Note_on_c, 0, 65, 54
1, 453732, Note_off_c, 0, 57, 64
1, 453732, Note_off_c, 0, 60, 64
1, 453743, Control_c, 0, 67, 23
1, 453788, Control_c, 0, 64, 32
1, 453811, Control_c, 0, 64, 44
1, 453825, Control_c, 0, 64, 53
1, 453840, Control_c, 0, 64, 59
1, 453852, Note_on_c, 0, 57, 44
1, 453855, Control_c, 0, 64, 61
1, 453856, Note_on_c, 0, 60, 40
1, 453870, Control_c, 0, 64, 63
1, 453883, Note_off_c, 0, 57, 61
1, 453884, Control_c, 0, 64, 65
1, 453887, Note_off_c, 0, 60, 58
1, 453897, Note_off_c, 0, 65, 61
1, 453899, Control_c, 0, 64, 67
1, 453914, Control_c, 0, 64, 70
1, 453929, Control_c, 0, 64, 73
1, 453944, Control_c, 0, 64, 75
1, 453958, Control_c, 0, 64, 76
1, 453973, Control_c, 0, 64, 77
1, 453997, Note_on_c, 0, 57, 43
1, 453998, Note_on_c, 0, 60, 38
1, 454029, Note_off_c, 0, 57, 54
1, 454035, Note_off_c, 0, 60, 51
1, 454062, Control_c, 0, 64, 76
1, 454076, Control_c, 0, 64, 75
1, 454091, Control_c, 0, 64, 73
1, 454106, Control_c, 0, 64, 71
1, 454121, Control_c, 0, 64, 69
1, 454136, Control_c, 0, 64, 65
1, 454139, Note_on_c, 0, 64, 55
1, 454150, Control_c, 0, 64, 62
1, 454153, Note_on_c, 0, 48, 42
1, 454165, Control_c, 0, 64, 56
1, 454180, Control_c, 0, 64, 48
1, 454195, Control_c, 0, 64, 38
1, 454200, Note_off_c, 0, 48, 57
1, 454208, Note_on_c, 0, 70, 70
1, 454210, Control_c, 0, 64, 0
1, 454237, Note_off_c, 0, 64, 40
1, 454321, Note_on_c, 0, 55, 51
1, 454323, Note_on_c, 0, 60, 50
1, 454358, Note_off_c, 0, 55, 64
1, 454358, Note_off_c, 0, 60, 66
1, 454481, Note_on_c, 0, 55, 44
1, 454486, Note_on_c, 0, 60, 39
1, 454518, Note_off_c, 0, 55, 64
1, 454523, Note_off_c, 0, 60, 61
1, 454560, Control_c, 0, 67, 21
1, 454646, Note_on_c, 0, 60, 43
1, 454649, Note_on_c, 0, 55, 47
1, 454687, Note_off_c, 0, 60, 64
1, 454688, Note_off_c, 0, 55, 63
1, 454693, Note_off_c, 0, 70, 56
1, 454788, Note_on_c, 0, 69, 63
1, 454792, Note_on_c, 0, 55, 44
1, 454799, Note_on_c, 0, 60, 42
1, 454825, Note_off_c, 0, 55, 62
1, 454828, Note_off_c, 0, 69, 63
1, 454830, Note_off_c, 0, 60, 57
1, 454925, Note_on_c, 0, 67, 67
1, 454930, Note_on_c, 0, 60, 43
1, 454937, Note_on_c, 0, 55, 40
1, 454962, Note_off_c, 0, 60, 58
1, 454967, Note_off_c, 0, 55, 58
1, 454988, Note_off_c, 0, 67, 62
1, 455092, Note_on_c, 0, 53, 44
1, 455093, Note_on_c, 0, 71, 70
1, 455265, Note_on_c, 0, 57, 42
1, 455270, Note_on_c, 0, 60, 38
1, 455298, Note_off_c, 0, 53, 23
1, 455313, Note_off_c, 0, 57, 63
1, 455314, Note_off_c, 0, 60, 56
1, 455432, Note_on_c, 0, 60, 40
1, 455433, Note_on_c, 0, 57, 42
1, 455472, Note_off_c, 0, 57, 64
1, 455477, Note_off_c, 0, 60, 63
1, 455589, Note_off_c, 0, 71, 54
1, 455594, Note_on_c, 0, 72, 46
1, 455595, Note_on_c, 0, 57, 37
1, 455596, Note_on_c, 0, 60, 40
1, 455630, Note_off_c, 0, 57, 57
1, 455631, Note_off_c, 0, 60, 60
1, 455748, Note_on_c, 0, 57, 37
1, 455750, Note_on_c, 0, 60, 32
1, 455784, Note_off_c, 0, 57, 60
1, 455785, Note_off_c, 0, 60, 60
1, 455874, Note_off_c, 0, 72, 36
1, 455898, Note_on_c, 0, 60, 37
1, 455903, Note_on_c, 0, 57, 36
1, 455927, Note_off_c, 0, 60, 57
1, 455936, Note_off_c, 0, 57, 52
1, 456031, Note_on_c, 0, 64, 47
1, 456064, Note_on_c, 0, 48, 30
1, 456103, Note_on_c, 0, 70, 70
1, 456107, Note_off_c, 0, 64, 51
1, 456131, Note_off_c, 0, 48, 43
1, 456229, Note_on_c, 0, 58, 47
1, 456234, Note_on_c, 0, 60, 40
1, 456276, Note_off_c, 0, 60, 63
1, 456278, Note_off_c, 0, 58, 62
1, 456389, Note_on_c, 0, 60, 48
1, 456398, Note_on_c, 0, 58, 43
1, 456434, Note_off_c, 0, 58, 66
1, 456434, Note_off_c, 0, 60, 63
1, 456548, Note_on_c, 0, 60, 43
1, 456550, Note_on_c, 0, 58, 43
1, 456587, Note_off_c, 0, 58, 66
1, 456589, Note_off_c, 0, 60, 64
1, 456607, Note_off_c, 0, 70, 60
1, 456699, Note_on_c, 0, 69, 53
1, 456707, Note_on_c, 0, 60, 38
1, 456708, Note_on_c, 0, 58, 34
1, 456735, Note_off_c, 0, 69, 64
1, 456738, Note_off_c, 0, 58, 58
1, 456739, Note_off_c, 0, 60, 58
1, 456819, Control_c, 0, 67, 19
1, 456834, Control_c, 0, 67, 0
1, 456845, Note_on_c, 0, 58, 45
1, 456845, Note_on_c, 0, 67, 51
1, 456849, Note_on_c, 0, 60, 40
1, 456879, Note_off_c, 0, 67, 66
1, 456881, Note_off_c, 0, 60, 59
1, 456885, Note_off_c, 0, 58, 65
1, 456998, Note_on_c, 0, 65, 55
1, 457009, Note_on_c, 0, 53, 36
1, 457040, Note_off_c, 0, 53, 57
1, 457164, Note_on_c, 0, 60, 43
1, 457167, Note_on_c, 0, 57, 41
1, 457186, Note_off_c, 0, 65, 52
1, 457194, Note_off_c, 0, 60, 60
1, 457197, Note_off_c, 0, 57, 58
1, 457307, Note_on_c, 0, 69, 68
1, 457314, Note_on_c, 0, 60, 35
1, 457320, Note_on_c, 0, 57, 35
1, 457358, Note_off_c, 0, 57, 63
1, 457358, Note_off_c, 0, 60, 63
1, 457471, Note_on_c, 0, 60, 51
1, 457471, Note_on_c, 0, 57, 52
1, 457507, Note_off_c, 0, 57, 65
1, 457508, Note_off_c, 0, 60, 65
1, 457614, Note_on_c, 0, 60, 54
1, 457615, Note_on_c, 0, 57, 53
1, 457655, Note_off_c, 0, 57, 64
1, 457665, Note_off_c, 0, 69, 60
1, 457666, Note_off_c, 0, 60, 57
1, 457772, Note_on_c, 0, 72, 77
1, 457776, Note_on_c, 0, 57, 37
1, 457794, Note_on_c, 0, 60, 38
1, 457808, Note_off_c, 0, 57, 58
1, 457825, Note_off_c, 0, 60, 56
1, 457935, Note_on_c, 0, 48, 48
1, 457981, Note_off_c, 0, 48, 59
1, 458079, Note_on_c, 0, 55, 58
1, 458082, Note_on_c, 0, 60, 52
1, 458106, Note_off_c, 0, 72, 59
1, 458113, Note_off_c, 0, 55, 63
1, 458113, Note_off_c, 0, 60, 66
1, 458219, Note_on_c, 0, 55, 50
1, 458231, Note_on_c, 0, 70, 73
1, 458243, Note_on_c, 0, 60, 34
1, 458264, Note_off_c, 0, 55, 63
1, 458279, Note_off_c, 0, 60, 55
1, 458386, Note_on_c, 0, 60, 57
1, 458391, Note_on_c, 0, 58, 58
1, 458428, Note_off_c, 0, 58, 66
1, 458434, Note_off_c, 0, 60, 62
1, 458546, Note_on_c, 0, 58, 51
1, 458564, Note_off_c, 0, 70, 60
1, 458571, Note_on_c, 0, 60, 28
1, 458581, Note_off_c, 0, 58, 66
1, 458607, Note_off_c, 0, 60, 45
1, 458678, Note_on_c, 0, 67, 57
1, 458684, Note_on_c, 0, 58, 42
1, 458714, Note_on_c, 0, 60, 28
1, 458717, Note_off_c, 0, 67, 62
1, 458724, Note_off_c, 0, 58, 63
1, 458748, Note_off_c, 0, 60, 47
1, 458847, Note_on_c, 0, 60, 42
1, 458859, Note_on_c, 0, 65, 51
1, 458866, Note_on_c, 0, 57, 34
1, 458868, Note_on_c, 0, 53, 34
1, 458885, Note_off_c, 0, 60, 66
1, 458899, Note_off_c, 0, 57, 57
1, 458902, Note_off_c, 0, 53, 58
1, 458938, Note_off_c, 0, 65, 64
1, 459162, Note_on_c, 0, 57, 72
1, 459170, Note_on_c, 0, 45, 46
1, 459189, Note_off_c, 0, 57, 68
1, 459204, Note_off_c, 0, 45, 61
1, 459315, Note_on_c, 0, 46, 61
1, 459317, Note_on_c, 0, 58, 79
1, 459342, Note_off_c, 0, 58, 67
1, 459361, Note_off_c, 0, 46, 64
1, 459471, Note_on_c, 0, 55, 60
1, 459483, Note_on_c, 0, 67, 58
1, 459502, Note_off_c, 0, 55, 64
1, 459502, Note_off_c, 0, 67, 62
1, 459606, Note_on_c, 0, 47, 73
1, 459610, Note_on_c, 0, 59, 79
1, 459647, Note_off_c, 0, 59, 63
1, 459662, Note_off_c, 0, 47, 63
1, 459752, Note_on_c, 0, 48, 82
1, 459755, Note_on_c, 0, 60, 90
1, 459797, Note_off_c, 0, 60, 67
1, 459813, Note_off_c, 0, 48, 64
1, 459906, Note_on_c, 0, 57, 73
1, 459910, Note_on_c, 0, 69, 78
1, 459934, Note_off_c, 0, 69, 65
1, 459942, Note_off_c, 0, 57, 65
1, 460039, Note_on_c, 0, 61, 85
1, 460041, Note_on_c, 0, 49, 77
1, 460084, Note_off_c, 0, 49, 61
1, 460106, Note_off_c, 0, 61, 55
1, 460175, Note_on_c, 0, 50, 82
1, 460182, Note_on_c, 0, 62, 87
1, 460225, Note_off_c, 0, 62, 64
1, 460229, Note_off_c, 0, 50, 64
1, 460320, Note_on_c, 0, 70, 86
1, 460324, Note_on_c, 0, 58, 67
1, 460362, Note_off_c, 0, 58, 63
1, 460369, Note_off_c, 0, 70, 66
1, 460458, Note_on_c, 0, 64, 83
1, 460461, Note_on_c, 0, 52, 64
1, 460492, Note_off_c, 0, 64, 63
1, 460496, Note_off_c, 0, 52, 63
1, 460757, Note_on_c, 0, 82, 73
1, 460935, Control_c, 0, 64, 29
1, 460950, Control_c, 0, 64, 46
1, 460965, Control_c, 0, 64, 56
1, 460980, Control_c, 0, 64, 61
1, 460994, Control_c, 0, 64, 64
1, 461009, Control_c, 0, 64, 67
1, 461024, Control_c, 0, 64, 71
1, 461039, Control_c, 0, 64, 76
1, 461054, Control_c, 0, 64, 82
1, 461068, Control_c, 0, 64, 89
1, 461083, Control_c, 0, 64, 94
1, 461098, Control_c, 0, 64, 98
1, 461245, Control_c, 0, 64, 93
1, 461260, Control_c, 0, 64, 83
1, 461275, Control_c, 0, 64, 75
1, 461297, Control_c, 0, 64, 69
1, 461308, Note_on_c, 0, 67, 37
1, 461311, Note_on_c, 0, 64, 34
1, 461311, Control_c, 0, 64, 67
1, 461317, Note_on_c, 0, 60, 35
1, 461317, Note_on_c, 0, 58, 36
1, 461341, Control_c, 0, 64, 69
1, 461356, Control_c, 0, 64, 73
1, 461365, Note_off_c, 0, 82, 56
1, 461371, Control_c, 0, 64, 78
1, 461385, Control_c, 0, 64, 85
1, 461400, Control_c, 0, 64, 93
1, 461415, Control_c, 0, 64, 99
1, 461430, Control_c, 0, 64, 101
1, 461502, Note_on_c, 0, 81, 60
1, 461517, Note_off_c, 0, 67, 35
1, 461543, Note_off_c, 0, 64, 36
1, 461545, Note_off_c, 0, 60, 43
1, 461549, Control_c, 0, 64, 99
1, 461558, Note_on_c, 0, 79, 66
1, 461564, Control_c, 0, 64, 97
1, 461574, Note_off_c, 0, 58, 38
1, 461579, Control_c, 0, 64, 95
1, 461586, Note_off_c, 0, 81, 58
1, 461593, Control_c, 0, 64, 92
1, 461608, Control_c, 0, 64, 90
1, 461621, Note_on_c, 0, 77, 62
1, 461623, Control_c, 0, 64, 88
1, 461637, Note_off_c, 0, 79, 66
1, 461638, Control_c, 0, 64, 85
1, 461653, Control_c, 0, 64, 82
1, 461666, Note_off_c, 0, 77, 62
1, 461668, Control_c, 0, 64, 79
1, 461672, Note_on_c, 0, 76, 66
1, 461683, Control_c, 0, 64, 76
1, 461698, Control_c, 0, 64, 72
1, 461713, Control_c, 0, 64, 65
1, 461727, Control_c, 0, 64, 57
1, 461735, Note_off_c, 0, 76, 53
1, 461739, Note_on_c, 0, 57, 47
1, 461742, Note_on_c, 0, 77, 73
1, 461742, Control_c, 0, 64, 45
1, 461755, Note_on_c, 0, 60, 37
1, 461757, Control_c, 0, 64, 0
1, 461761, Note_on_c, 0, 65, 39
1, 461763, Note_off_c, 0, 77, 72
1, 461858, Note_off_c, 0, 57, 53
1, 461872, Note_off_c, 0, 60, 47
1, 461880, Note_off_c, 0, 65, 46
1, 461904, Note_on_c, 0, 79, 79
1, 461928, Note_off_c, 0, 79, 69
1, 462052, Note_on_c, 0, 81, 80
1, 462076, Note_off_c, 0, 81, 68
1, 462236, Note_on_c, 0, 72, 61
1, 462240, Note_on_c, 0, 69, 51
1, 462254, Note_on_c, 0, 60, 38
1, 462342, Control_c, 0, 64, 42
1, 462357, Control_c, 0, 64, 54
1, 462372, Control_c, 0, 64, 61
1, 462387, Control_c, 0, 64, 66
1, 462402, Control_c, 0, 64, 72
1, 462416, Control_c, 0, 64, 80
1, 462431, Control_c, 0, 64, 91
1, 462446, Control_c, 0, 64, 101
1, 462476, Control_c, 0, 64, 93
1, 462491, Control_c, 0, 64, 78
1, 462506, Control_c, 0, 64, 64
1, 462520, Note_on_c, 0, 70, 67
1, 462521, Control_c, 0, 64, 57
1, 462529, Note_on_c, 0, 61, 59
1, 462531, Note_off_c, 0, 60, 43
1, 462534, Note_on_c, 0, 67, 53
1, 462536, Control_c, 0, 64, 55
1, 462539, Note_off_c, 0, 69, 55
1, 462550, Control_c, 0, 64, 56
1, 462552, Note_off_c, 0, 72, 59
1, 462565, Control_c, 0, 64, 59
1, 462580, Control_c, 0, 64, 63
1, 462591, Note_off_c, 0, 67, 54
1, 462595, Control_c, 0, 64, 70
1, 462610, Control_c, 0, 64, 78
1, 462616, Note_off_c, 0, 70, 63
1, 462624, Control_c, 0, 64, 89
1, 462639, Control_c, 0, 64, 98
1, 462640, Note_off_c, 0, 61, 62
1, 462654, Control_c, 0, 64, 102
1, 462700, Control_c, 0, 64, 97
1, 462714, Control_c, 0, 64, 89
1, 462719, Note_on_c, 0, 67, 55
1, 462729, Control_c, 0, 64, 80
1, 462734, Note_on_c, 0, 70, 61
1, 462735, Note_on_c, 0, 62, 51
1, 462744, Control_c, 0, 64, 71
1, 462758, Control_c, 0, 64, 63
1, 462773, Control_c, 0, 64, 52
1, 462795, Control_c, 0, 64, 38
1, 462810, Control_c, 0, 64, 0
1, 463263, Note_off_c, 0, 67, 54
1, 463266, Note_on_c, 0, 69, 37
1, 463267, Note_on_c, 0, 65, 34
1, 463308, Note_off_c, 0, 70, 32
1, 463553, Note_off_c, 0, 62, 58
1, 463557, Note_off_c, 0, 65, 54
1, 463561, Note_off_c, 0, 69, 61
1, 464000, Note_on_c, 0, 57, 79
1, 464008, Note_on_c, 0, 45, 71
1, 464033, Note_off_c, 0, 57, 66
1, 464047, Note_off_c, 0, 45, 65
1, 464162, Note_on_c, 0, 46, 74
1, 464163, Note_on_c, 0, 58, 89
1, 464201, Note_off_c, 0, 58, 61
1, 464217, Note_off_c, 0, 46, 62
1, 464322, Note_on_c, 0, 55, 64
1, 464327, Note_on_c, 0, 67, 74
1, 464350, Note_off_c, 0, 67, 69
1, 464363, Note_off_c, 0, 55, 62
1, 464461, Note_on_c, 0, 59, 79
1, 464464, Note_on_c, 0, 47, 75
1, 464499, Note_off_c, 0, 59, 62
1, 464516, Note_off_c, 0, 47, 64
1, 464607, Note_on_c, 0, 60, 86
1, 464609, Note_on_c, 0, 48, 80
1, 464640, Note_off_c, 0, 60, 67
1, 464658, Note_off_c, 0, 48, 63
1, 464748, Note_on_c, 0, 69, 82
1, 464752, Note_on_c, 0, 57, 76
1, 464782, Note_off_c, 0, 69, 64
1, 464797, Note_off_c, 0, 57, 63
1, 464886, Note_on_c, 0, 61, 82
1, 464888, Note_on_c, 0, 49, 63
1, 464930, Note_off_c, 0, 49, 63
1, 464953, Note_off_c, 0, 61, 54
1, 465034, Note_on_c, 0, 50, 68
1, 465036, Note_on_c, 0, 62, 87
1, 465070, Note_off_c, 0, 50, 65
1, 465074, Note_off_c, 0, 62, 64
1, 465177, Note_on_c, 0, 70, 81
1, 465180, Note_on_c, 0, 58, 56
1, 465218, Note_off_c, 0, 58, 65
1, 465225, Note_off_c, 0, 70, 63
1, 465327, Note_on_c, 0, 64, 77
1, 465335, Note_on_c, 0, 52, 60
1, 465359, Note_off_c, 0, 64, 65
1, 465370, Note_off_c, 0, 52, 63
1, 465624, Note_on_c, 0, 82, 71
1, 465791, Control_c, 0, 64, 43
1, 465806, Control_c, 0, 64, 53
1, 465821, Control_c, 0, 64, 59
1, 465836, Control_c, 0, 64, 62
1, 465850, Control_c, 0, 64, 64
1, 465865, Control_c, 0, 64, 67
1, 465880, Control_c, 0, 64, 71
1, 465895, Control_c, 0, 64, 77
1, 465909, Control_c, 0, 64, 83
1, 465924, Control_c, 0, 64, 89
1, 465939, Control_c, 0, 64, 94
1, 465954, Control_c, 0, 64, 97
1, 465983, Control_c, 0, 64, 99
1, 466087, Control_c, 0, 64, 89
1, 466101, Control_c, 0, 64, 80
1, 466116, Control_c, 0, 64, 72
1, 466131, Control_c, 0, 64, 67
1, 466146, Control_c, 0, 64, 65
1, 466148, Note_on_c, 0, 67, 39
1, 466152, Note_on_c, 0, 58, 39
1, 466155, Note_on_c, 0, 64, 32
1, 466166, Note_on_c, 0, 60, 28
1, 466175, Control_c, 0, 64, 66
1, 466190, Control_c, 0, 64, 70
1, 466205, Control_c, 0, 64, 74
1, 466217, Note_off_c, 0, 82, 37
1, 466220, Control_c, 0, 64, 79
1, 466235, Control_c, 0, 64, 83
1, 466250, Control_c, 0, 64, 87
1, 466265, Control_c, 0, 64, 90
1, 466280, Control_c, 0, 64, 91
1, 466295, Control_c, 0, 64, 91
1, 466324, Control_c, 0, 64, 91
1, 466351, Note_on_c, 0, 81, 59
1, 466355, Note_off_c, 0, 67, 31
1, 466357, Note_off_c, 0, 60, 43
1, 466368, Control_c, 0, 64, 90
1, 466371, Note_off_c, 0, 64, 34
1, 466383, Control_c, 0, 64, 89
1, 466390, Note_off_c, 0, 58, 36
1, 466398, Control_c, 0, 64, 87
1, 466400, Note_on_c, 0, 79, 60
1, 466413, Control_c, 0, 64, 83
1, 466427, Control_c, 0, 64, 80
1, 466439, Note_off_c, 0, 81, 39
1, 466442, Control_c, 0, 64, 77
1, 466459, Note_on_c, 0, 77, 58
1, 466459, Control_c, 0, 64, 74
1, 466473, Control_c, 0, 64, 72
1, 466476, Note_off_c, 0, 79, 65
1, 466488, Control_c, 0, 64, 69
1, 466490, Note_off_c, 0, 77, 65
1, 466503, Control_c, 0, 64, 65
1, 466514, Note_on_c, 0, 76, 64
1, 466518, Control_c, 0, 64, 61
1, 466539, Control_c, 0, 64, 55
1, 466554, Control_c, 0, 64, 46
1, 466569, Control_c, 0, 64, 34
1, 466584, Note_on_c, 0, 57, 44
1, 466584, Control_c, 0, 64, 0
1, 466587, Note_on_c, 0, 77, 64
1, 466593, Note_off_c, 0, 76, 56
1, 466601, Note_on_c, 0, 60, 15
1, 466604, Note_on_c, 0, 65, 23
1, 466618, Note_off_c, 0, 57, 55
1, 466634, Note_off_c, 0, 65, 49
1, 466638, Note_off_c, 0, 60, 42
1, 466640, Note_on_c, 0, 79, 62
1, 466646, Note_off_c, 0, 77, 59
1, 466712, Note_on_c, 0, 81, 65
1, 466715, Note_off_c, 0, 79, 61
1, 466823, Note_off_c, 0, 81, 56
1, 467085, Note_on_c, 0, 74, 57
1, 467094, Note_on_c, 0, 62, 29
1, 467097, Note_on_c, 0, 58, 35
1, 467102, Note_on_c, 0, 65, 28
1, 467136, Note_off_c, 0, 65, 47
1, 467138, Note_off_c, 0, 62, 52
1, 467138, Note_off_c, 0, 74, 55
1, 467149, Note_on_c, 0, 76, 62
1, 467158, Note_off_c, 0, 58, 60
1, 467220, Note_on_c, 0, 77, 54
1, 467221, Note_off_c, 0, 76, 53
1, 467252, Control_c, 0, 67, 20
1, 467274, Control_c, 0, 67, 23
1, 467289, Control_c, 0, 67, 26
1, 467304, Control_c, 0, 67, 32
1, 467319, Control_c, 0, 67, 38
1, 467334, Control_c, 0, 67, 44
1, 467341, Note_off_c, 0, 77, 57
1, 467348, Control_c, 0, 67, 48
1, 467363, Control_c, 0, 67, 50
1, 467393, Control_c, 0, 67, 49
1, 467408, Control_c, 0, 67, 49
1, 467423, Control_c, 0, 67, 48
1, 467452, Control_c, 0, 67, 48
1, 467481, Control_c, 0, 67, 47
1, 467496, Control_c, 0, 67, 47
1, 467511, Control_c, 0, 67, 46
1, 467556, Control_c, 0, 67, 45
1, 467585, Control_c, 0, 67, 45
1, 467674, Control_c, 0, 67, 44
1, 467719, Control_c, 0, 67, 44
1, 467737, Note_on_c, 0, 65, 47
1, 467752, Note_on_c, 0, 48, 28
1, 467760, Note_on_c, 0, 57, 26
1, 467762, Note_on_c, 0, 60, 20
1, 467896, Control_c, 0, 64, 36
1, 467911, Control_c, 0, 64, 46
1, 467926, Control_c, 0, 64, 53
1, 467941, Control_c, 0, 64, 58
1, 467955, Control_c, 0, 64, 60
1, 467970, Control_c, 0, 64, 62
1, 467985, Control_c, 0, 64, 66
1, 468000, Control_c, 0, 64, 70
1, 468015, Control_c, 0, 64, 76
1, 468037, Control_c, 0, 64, 83
1, 468053, Control_c, 0, 64, 90
1, 468068, Control_c, 0, 64, 95
1, 468083, Control_c, 0, 64, 99
1, 468090, Note_off_c, 0, 57, 44
1, 468096, Note_off_c, 0, 65, 53
1, 468216, Control_c, 0, 64, 97
1, 468231, Control_c, 0, 64, 93
1, 468231, Control_c, 0, 67, 43
1, 468245, Control_c, 0, 64, 90
1, 468260, Control_c, 0, 64, 86
1, 468261, Note_on_c, 0, 69, 46
1, 468266, Note_on_c, 0, 58, 41
1, 468275, Control_c, 0, 64, 82
1, 468283, Note_on_c, 0, 64, 36
1, 468290, Control_c, 0, 64, 75
1, 468304, Control_c, 0, 64, 68
1, 468313, Note_off_c, 0, 60, 41
1, 468319, Control_c, 0, 64, 59
1, 468334, Control_c, 0, 64, 39
1, 468349, Control_c, 0, 64, 0
1, 468359, Note_off_c, 0, 69, 53
1, 468374, Note_on_c, 0, 67, 40
1, 468483, Control_c, 0, 64, 39
1, 468497, Control_c, 0, 64, 52
1, 468512, Control_c, 0, 64, 59
1, 468527, Control_c, 0, 64, 62
1, 468542, Control_c, 0, 64, 63
1, 468557, Control_c, 0, 64, 65
1, 468571, Control_c, 0, 64, 66
1, 468581, Note_off_c, 0, 64, 31
1, 468586, Control_c, 0, 64, 69
1, 468601, Control_c, 0, 64, 72
1, 468616, Control_c, 0, 64, 75
1, 468616, Control_c, 0, 67, 43
1, 468629, Note_off_c, 0, 48, 38
1, 468630, Control_c, 0, 64, 79
1, 468645, Control_c, 0, 64, 82
1, 468651, Note_off_c, 0, 67, 40
1, 468655, Note_on_c, 0, 65, 48
1, 468660, Control_c, 0, 64, 86
1, 468675, Control_c, 0, 64, 91
1, 468690, Control_c, 0, 64, 94
1, 468694, Note_off_c, 0, 58, 53
1, 468704, Note_off_c, 0, 65, 62
1, 468704, Control_c, 0, 64, 95
1, 468816, Control_c, 0, 64, 94
1, 468830, Control_c, 0, 64, 94
1, 468845, Control_c, 0, 64, 93
1, 468861, Control_c, 0, 64, 92
1, 468876, Control_c, 0, 64, 91
1, 468888, Note_on_c, 0, 65, 54
1, 468891, Control_c, 0, 64, 88
1, 468906, Note_on_c, 0, 53, 32
1, 468906, Control_c, 0, 64, 83
1, 468921, Control_c, 0, 64, 78
1, 468935, Control_c, 0, 64, 71
1, 468950, Control_c, 0, 64, 66
1, 468965, Control_c, 0, 64, 60
1, 468980, Control_c, 0, 64, 50
1, 468995, Control_c, 0, 64, 44
1, 469009, Control_c, 0, 64, 42
1, 469024, Control_c, 0, 64, 43
1, 469039, Control_c, 0, 64, 44
1, 469053, Control_c, 0, 64, 47
1, 469065, Note_on_c, 0, 57, 36
1, 469068, Control_c, 0, 64, 50
1, 469083, Control_c, 0, 64, 55
1, 469098, Control_c, 0, 64, 58
1, 469113, Control_c, 0, 64, 61
1, 469127, Control_c, 0, 64, 63
1, 469142, Control_c, 0, 64, 65
1, 469157, Control_c, 0, 64, 67
1, 469172, Control_c, 0, 64, 69
1, 469187, Control_c, 0, 64, 71
1, 469201, Control_c, 0, 64, 72
1, 469201, Control_c, 0, 67, 42
1, 469216, Note_on_c, 0, 69, 59
1, 469216, Control_c, 0, 64, 73
1, 469231, Control_c, 0, 64, 73
1, 469231, Control_c, 0, 67, 42
1, 469236, Note_on_c, 0, 60, 37
1, 469255, Note_off_c, 0, 53, 40
1, 469274, Note_off_c, 0, 57, 40
1, 469289, Note_off_c, 0, 65, 37
1, 469335, Control_c, 0, 64, 73
1, 469350, Control_c, 0, 64, 72
1, 469365, Control_c, 0, 64, 72
1, 469380, Control_c, 0, 64, 71
1, 469394, Control_c, 0, 64, 69
1, 469409, Control_c, 0, 64, 66
1, 469419, Note_on_c, 0, 72, 62
1, 469424, Control_c, 0, 64, 60
1, 469427, Note_on_c, 0, 53, 28
1, 469438, Control_c, 0, 64, 51
1, 469441, Note_off_c, 0, 69, 54
1, 469447, Note_off_c, 0, 60, 33
1, 469449, Note_on_c, 0, 64, 33
1, 469452, Control_c, 0, 64, 42
1, 469452, Control_c, 0, 67, 41
1, 469467, Control_c, 0, 64, 36
1, 469482, Control_c, 0, 64, 34
1, 469497, Control_c, 0, 64, 34
1, 469534, Control_c, 0, 64, 35
1, 469549, Control_c, 0, 64, 36
1, 469564, Control_c, 0, 64, 39
1, 469579, Control_c, 0, 64, 45
1, 469594, Control_c, 0, 64, 50
1, 469606, Note_on_c, 0, 70, 63
1, 469608, Control_c, 0, 64, 54
1, 469615, Note_on_c, 0, 55, 34
1, 469623, Control_c, 0, 64, 58
1, 469638, Control_c, 0, 64, 61
1, 469654, Control_c, 0, 64, 64
1, 469667, Note_off_c, 0, 64, 49
1, 469669, Control_c, 0, 64, 66
1, 469680, Note_off_c, 0, 53, 39
1, 469683, Control_c, 0, 64, 69
1, 469698, Control_c, 0, 64, 70
1, 469713, Control_c, 0, 64, 70
1, 469755, Note_on_c, 0, 67, 62
1, 469757, Note_on_c, 0, 58, 47
1, 469781, Note_off_c, 0, 55, 38
1, 469812, Note_off_c, 0, 72, 37
1, 469817, Control_c, 0, 64, 70
1, 469825, Note_off_c, 0, 70, 62
1, 469830, Note_off_c, 0, 58, 51
1, 469831, Control_c, 0, 64, 68
1, 469846, Control_c, 0, 64, 66
1, 469861, Control_c, 0, 64, 62
1, 469875, Control_c, 0, 64, 53
1, 469890, Control_c, 0, 64, 38
1, 469905, Control_c, 0, 64, 0
1, 469916, Note_on_c, 0, 65, 64
1, 469927, Note_on_c, 0, 53, 41
1, 469973, Note_off_c, 0, 67, 58
1, 470024, Control_c, 0, 64, 37
1, 470039, Control_c, 0, 64, 48
1, 470054, Control_c, 0, 64, 56
1, 470060, Note_off_c, 0, 65, 60
1, 470065, Note_on_c, 0, 60, 59
1, 470068, Note_on_c, 0, 57, 44
1, 470068, Control_c, 0, 64, 60
1, 470083, Control_c, 0, 64, 62
1, 470098, Control_c, 0, 64, 64
1, 470113, Control_c, 0, 64, 65
1, 470120, Note_off_c, 0, 53, 47
1, 470125, Note_off_c, 0, 60, 63
1, 470128, Control_c, 0, 64, 67
1, 470142, Control_c, 0, 64, 69
1, 470157, Control_c, 0, 64, 70
1, 470172, Control_c, 0, 64, 71
1, 470214, Note_off_c, 0, 57, 32
1, 470216, Note_on_c, 0, 69, 62
1, 470229, Note_on_c, 0, 60, 35
1, 470298, Control_c, 0, 64, 70
1, 470313, Control_c, 0, 64, 70
1, 470343, Control_c, 0, 64, 69
1, 470358, Control_c, 0, 64, 68
1, 470373, Control_c, 0, 64, 63
1, 470387, Control_c, 0, 64, 54
1, 470392, Note_off_c, 0, 60, 26
1, 470402, Control_c, 0, 64, 42
1, 470406, Note_on_c, 0, 53, 42
1, 470406, Note_off_c, 0, 69, 59
1, 470410, Note_on_c, 0, 72, 55
1, 470417, Control_c, 0, 64, 0
1, 470429, Note_on_c, 0, 64, 31
1, 470477, Control_c, 0, 64, 31
1, 470492, Control_c, 0, 64, 39
1, 470507, Control_c, 0, 64, 47
1, 470522, Control_c, 0, 64, 53
1, 470536, Control_c, 0, 64, 56
1, 470551, Control_c, 0, 64, 58
1, 470563, Note_on_c, 0, 70, 57
1, 470566, Control_c, 0, 64, 60
1, 470581, Control_c, 0, 64, 62
1, 470585, Note_on_c, 0, 55, 36
1, 470596, Control_c, 0, 64, 64
1, 470597, Note_off_c, 0, 64, 48
1, 470611, Control_c, 0, 64, 65
1, 470625, Control_c, 0, 64, 66
1, 470640, Control_c, 0, 64, 68
1, 470647, Note_off_c, 0, 53, 32
1, 470655, Control_c, 0, 64, 69
1, 470670, Control_c, 0, 64, 69
1, 470685, Control_c, 0, 64, 70
1, 470699, Note_off_c, 0, 72, 24
1, 470718, Note_on_c, 0, 67, 57
1, 470720, Note_on_c, 0, 58, 44
1, 470739, Note_off_c, 0, 55, 36
1, 470757, Note_off_c, 0, 70, 57
1, 470780, Note_off_c, 0, 58, 55
1, 470803, Control_c, 0, 64, 68
1, 470817, Control_c, 0, 64, 66
1, 470832, Control_c, 0, 64, 62
1, 470847, Control_c, 0, 64, 55
1, 470862, Control_c, 0, 64, 46
1, 470877, Control_c, 0, 64, 32
1, 470891, Control_c, 0, 64, 0
1, 470899, Note_on_c, 0, 53, 39
1, 470899, Note_on_c, 0, 65, 53
1, 470918, Note_off_c, 0, 67, 56
1, 470966, Control_c, 0, 64, 29
1, 470981, Control_c, 0, 64, 41
1, 470996, Control_c, 0, 64, 50
1, 471017, Control_c, 0, 64, 56
1, 471032, Control_c, 0, 64, 59
1, 471047, Control_c, 0, 64, 61
1, 471053, Note_off_c, 0, 65, 59
1, 471062, Control_c, 0, 64, 62
1, 471068, Note_on_c, 0, 57, 38
1, 471071, Note_on_c, 0, 60, 43
1, 471077, Control_c, 0, 64, 64
1, 471091, Control_c, 0, 64, 65
1, 471106, Control_c, 0, 64, 66
1, 471107, Note_off_c, 0, 60, 63
1, 471121, Control_c, 0, 64, 67
1, 471136, Control_c, 0, 64, 67
1, 471136, Control_c, 0, 67, 42
1, 471165, Note_off_c, 0, 53, 40
1, 471166, Control_c, 0, 64, 68
1, 471189, Note_off_c, 0, 57, 31
1, 471213, Note_on_c, 0, 60, 45
1, 471229, Note_on_c, 0, 69, 44
1, 471341, Note_off_c, 0, 60, 36
1, 471344, Control_c, 0, 64, 67
1, 471359, Control_c, 0, 64, 66
1, 471374, Control_c, 0, 64, 63
1, 471389, Control_c, 0, 64, 55
1, 471404, Control_c, 0, 64, 42
1, 471407, Note_on_c, 0, 65, 33
1, 471410, Note_on_c, 0, 53, 38
1, 471419, Control_c, 0, 64, 0
1, 471440, Note_off_c, 0, 69, 36
1, 471463, Control_c, 0, 67, 42
1, 471478, Control_c, 0, 64, 29
1, 471478, Control_c, 0, 67, 43
1, 471493, Control_c, 0, 64, 41
1, 471508, Control_c, 0, 64, 51
1, 471522, Control_c, 0, 64, 58
1, 471537, Control_c, 0, 64, 61
1, 471537, Control_c, 0, 67, 43
1, 471552, Control_c, 0, 64, 63
1, 471552, Control_c, 0, 67, 44
1, 471567, Control_c, 0, 64, 64
1, 471571, Note_off_c, 0, 65, 48
1, 471575, Note_on_c, 0, 60, 38
1, 471579, Note_on_c, 0, 57, 37
1, 471582, Control_c, 0, 64, 65
1, 471582, Control_c, 0, 67, 45
1, 471596, Control_c, 0, 64, 67
1, 471596, Control_c, 0, 67, 45
1, 471611, Control_c, 0, 64, 69
1, 471611, Control_c, 0, 67, 46
1, 471626, Note_off_c, 0, 60, 60
1, 471626, Control_c, 0, 64, 72
1, 471626, Control_c, 0, 67, 47
1, 471639, Note_off_c, 0, 53, 49
1, 471640, Control_c, 0, 64, 74
1, 471655, Control_c, 0, 64, 76
1, 471655, Control_c, 0, 67, 47
1, 471670, Control_c, 0, 64, 78
1, 471685, Control_c, 0, 64, 79
1, 471700, Control_c, 0, 64, 80
1, 471714, Control_c, 0, 64, 80
1, 471717, Note_off_c, 0, 57, 32
1, 471744, Control_c, 0, 64, 81
1, 471750, Note_on_c, 0, 60, 45
1, 471756, Note_on_c, 0, 69, 51
1, 471781, Control_c, 0, 67, 47
1, 471793, Note_off_c, 0, 60, 60
1, 471800, Note_off_c, 0, 69, 64
1, 471959, Control_c, 0, 64, 80
1, 471973, Control_c, 0, 64, 80
1, 471988, Control_c, 0, 64, 79
1, 471988, Control_c, 0, 67, 46
1, 472003, Control_c, 0, 64, 78
1, 472018, Control_c, 0, 64, 75
1, 472027, Note_on_c, 0, 67, 51
1, 472033, Control_c, 0, 64, 72
1, 472034, Note_on_c, 0, 58, 40
1, 472039, Note_on_c, 0, 41, 37
1, 472049, Control_c, 0, 64, 67
1, 472063, Control_c, 0, 64, 62
1, 472072, Note_on_c, 0, 53, 16
1, 472078, Control_c, 0, 64, 52
1, 472078, Control_c, 0, 67, 46
1, 472093, Control_c, 0, 64, 41
1, 472108, Control_c, 0, 64, 0
1, 472212, Control_c, 0, 64, 32
1, 472227, Control_c, 0, 64, 43
1, 472242, Control_c, 0, 64, 52
1, 472256, Control_c, 0, 64, 58
1, 472271, Control_c, 0, 64, 61
1, 472286, Control_c, 0, 64, 62
1, 472301, Control_c, 0, 64, 63
1, 472316, Control_c, 0, 64, 64
1, 472316, Control_c, 0, 67, 45
1, 472331, Control_c, 0, 64, 65
1, 472331, Control_c, 0, 67, 45
1, 472345, Control_c, 0, 64, 67
1, 472360, Control_c, 0, 64, 69
1, 472375, Control_c, 0, 64, 71
1, 472389, Control_c, 0, 64, 72
1, 472404, Control_c, 0, 64, 74
1, 472405, Note_off_c, 0, 58, 62
1, 472419, Control_c, 0, 64, 74
1, 472435, Control_c, 0, 64, 75
1, 472464, Control_c, 0, 64, 75
1, 472635, Control_c, 0, 67, 44
1, 472694, Control_c, 0, 64, 75
1, 472724, Control_c, 0, 64, 74
1, 472739, Control_c, 0, 64, 74
1, 472753, Control_c, 0, 64, 73
1, 472753, Control_c, 0, 67, 44
1, 472768, Control_c, 0, 64, 72
1, 472783, Control_c, 0, 64, 71
1, 472797, Control_c, 0, 64, 71
1, 472812, Control_c, 0, 64, 70
1, 472827, Control_c, 0, 64, 69
1, 472843, Control_c, 0, 64, 69
1, 472858, Control_c, 0, 64, 68
1, 472873, Control_c, 0, 64, 67
1, 472887, Control_c, 0, 64, 66
1, 472902, Control_c, 0, 64, 64
1, 472917, Control_c, 0, 64, 62
1, 472924, Note_on_c, 0, 65, 37
1, 472932, Control_c, 0, 64, 60
1, 472947, Control_c, 0, 64, 57
1, 472951, Note_on_c, 0, 57, 23
1, 472961, Control_c, 0, 64, 54
1, 472976, Control_c, 0, 64, 52
1, 472991, Control_c, 0, 64, 50
1, 472991, Control_c, 0, 67, 43
1, 473005, Note_off_c, 0, 67, 38
1, 473006, Control_c, 0, 64, 49
1, 473020, Control_c, 0, 64, 49
1, 473035, Control_c, 0, 64, 48
1, 473050, Control_c, 0, 64, 47
1, 473065, Control_c, 0, 64, 46
1, 473080, Control_c, 0, 64, 45
1, 473080, Control_c, 0, 67, 43
1, 473094, Control_c, 0, 64, 44
1, 473094, Control_c, 0, 67, 42
1, 473109, Control_c, 0, 64, 44
1, 473109, Control_c, 0, 67, 42
1, 473124, Control_c, 0, 64, 43
1, 473124, Control_c, 0, 67, 41
1, 473139, Control_c, 0, 64, 42
1, 473139, Control_c, 0, 67, 41
1, 473154, Control_c, 0, 64, 41
1, 473169, Control_c, 0, 64, 41
1, 473169, Control_c, 0, 67, 40
1, 473182, Control_c, 0, 64, 40
1, 473182, Control_c, 0, 67, 40
1, 473211, Control_c, 0, 64, 40
1, 473211, Control_c, 0, 67, 39
1, 473226, Control_c, 0, 64, 39
1, 473226, Control_c, 0, 67, 39
1, 473241, Control_c, 0, 64, 39
1, 473241, Control_c, 0, 67, 38
1, 473256, Control_c, 0, 67, 37
1, 473279, Control_c, 0, 64, 38
1, 473293, Control_c, 0, 64, 38
1, 473293, Control_c, 0, 67, 36
1, 473308, Control_c, 0, 64, 37
1, 473308, Control_c, 0, 67, 35
1, 473323, Control_c, 0, 67, 29
1, 473338, Control_c, 0, 64, 37
1, 473338, Control_c, 0, 67, 19
1, 473339, Note_off_c, 0, 57, 44
1, 473353, Control_c, 0, 64, 36
1, 473353, Control_c, 0, 67, 0
1, 473356, Note_off_c, 0, 53, 50
1, 473367, Control_c, 0, 64, 34
1, 473372, Note_off_c, 0, 41, 38
1, 473382, Control_c, 0, 64, 34
1, 473394, Note_off_c, 0, 65, 50
1, 473397, Control_c, 0, 64, 33
1, 473412, Control_c, 0, 64, 33
1, 473441, Control_c, 0, 64, 32
1, 473456, Control_c, 0, 64, 32
1, 473574, Control_c, 0, 64, 30
1, 473634, Control_c, 0, 64, 0
1, 473902, Control_c, 0, 64, 29
1, 473913, Note_on_c, 0, 81, 96
1, 473915, Note_on_c, 0, 69, 84
1, 473916, Control_c, 0, 64, 31
1, 473931, Control_c, 0, 64, 34
1, 473946, Control_c, 0, 64, 39
1, 473960, Control_c, 0, 64, 46
1, 473975, Control_c, 0, 64, 51
1, 473990, Control_c, 0, 64, 55
1, 474005, Control_c, 0, 64, 57
1, 474027, Control_c, 0, 64, 60
1, 474042, Control_c, 0, 64, 62
1, 474057, Control_c, 0, 64, 65
1, 474072, Control_c, 0, 64, 68
1, 474087, Control_c, 0, 64, 71
1, 474102, Control_c, 0, 64, 74
1, 474116, Control_c, 0, 64, 79
1, 474131, Control_c, 0, 64, 87
1, 474146, Control_c, 0, 64, 98
1, 474161, Control_c, 0, 64, 127
1, 474311, Note_off_c, 0, 81, 52
1, 474318, Note_off_c, 0, 69, 56
1, 474421, Note_on_c, 0, 79, 93
1, 474423, Note_on_c, 0, 69, 81
1, 474427, Control_c, 0, 64, 92
1, 474443, Control_c, 0, 64, 76
1, 474458, Control_c, 0, 64, 66
1, 474472, Control_c, 0, 64, 60
1, 474487, Control_c, 0, 64, 57
1, 474502, Control_c, 0, 64, 56
1, 474517, Control_c, 0, 64, 57
1, 474532, Control_c, 0, 64, 59
1, 474546, Control_c, 0, 64, 62
1, 474561, Control_c, 0, 64, 64
1, 474576, Control_c, 0, 64, 67
1, 474590, Control_c, 0, 64, 71
1, 474605, Control_c, 0, 64, 75
1, 474620, Control_c, 0, 64, 80
1, 474635, Control_c, 0, 64, 87
1, 474650, Control_c, 0, 64, 97
1, 474665, Control_c, 0, 64, 122
1, 474680, Control_c, 0, 64, 127
1, 474836, Note_off_c, 0, 69, 54
1, 474909, Note_on_c, 0, 57, 80
1, 474909, Note_on_c, 0, 77, 84
1, 474909, Control_c, 0, 64, 106
1, 474910, Note_on_c, 0, 45, 77
1, 474918, Note_on_c, 0, 69, 73
1, 474924, Control_c, 0, 64, 83
1, 474939, Control_c, 0, 64, 68
1, 474945, Note_off_c, 0, 79, 61
1, 474954, Control_c, 0, 64, 55
1, 474969, Control_c, 0, 64, 41
1, 474984, Control_c, 0, 64, 35
1, 475013, Control_c, 0, 64, 37
1, 475028, Control_c, 0, 64, 40
1, 475043, Control_c, 0, 64, 46
1, 475058, Control_c, 0, 64, 53
1, 475072, Control_c, 0, 64, 58
1, 475087, Control_c, 0, 64, 61
1, 475102, Control_c, 0, 64, 64
1, 475116, Control_c, 0, 64, 67
1, 475131, Control_c, 0, 64, 72
1, 475140, Note_off_c, 0, 77, 58
1, 475146, Control_c, 0, 64, 78
1, 475161, Control_c, 0, 64, 85
1, 475176, Control_c, 0, 64, 94
1, 475190, Control_c, 0, 64, 106
1, 475205, Control_c, 0, 64, 127
1, 475232, Note_off_c, 0, 57, 52
1, 475266, Note_off_c, 0, 45, 61
1, 475310, Note_off_c, 0, 69, 52
1, 475384, Control_c, 0, 64, 102
1, 475396, Note_on_c, 0, 76, 87
1, 475398, Note_on_c, 0, 55, 82
1, 475399, Note_on_c, 0, 43, 78
1, 475399, Control_c, 0, 64, 80
1, 475405, Note_on_c, 0, 69, 73
1, 475413, Control_c, 0, 64, 65
1, 475429, Control_c, 0, 64, 52
1, 475444, Control_c, 0, 64, 38
1, 475459, Control_c, 0, 64, 34
1, 475474, Control_c, 0, 64, 36
1, 475488, Control_c, 0, 64, 39
1, 475503, Control_c, 0, 64, 44
1, 475526, Control_c, 0, 64, 51
1, 475540, Control_c, 0, 64, 56
1, 475555, Control_c, 0, 64, 61
1, 475570, Control_c, 0, 64, 65
1, 475585, Control_c, 0, 64, 69
1, 475600, Control_c, 0, 64, 74
1, 475614, Control_c, 0, 64, 79
1, 475628, Note_off_c, 0, 76, 61
1, 475629, Control_c, 0, 64, 84
1, 475644, Control_c, 0, 64, 90
1, 475659, Control_c, 0, 64, 98
1, 475674, Control_c, 0, 64, 105
1, 475675, Note_off_c, 0, 69, 35
1, 475688, Control_c, 0, 64, 112
1, 475703, Control_c, 0, 64, 120
1, 475711, Note_off_c, 0, 55, 43
1, 475718, Control_c, 0, 64, 127
1, 475747, Note_off_c, 0, 43, 60
1, 475807, Control_c, 0, 64, 125
1, 475822, Control_c, 0, 64, 119
1, 475837, Control_c, 0, 64, 111
1, 475851, Control_c, 0, 64, 103
1, 475866, Control_c, 0, 64, 92
1, 475881, Control_c, 0, 64, 77
1, 475890, Note_on_c, 0, 74, 88
1, 475890, Note_on_c, 0, 41, 71
1, 475894, Note_on_c, 0, 53, 71
1, 475896, Control_c, 0, 64, 61
1, 475899, Note_on_c, 0, 69, 70
1, 475911, Control_c, 0, 64, 0
1, 476014, Control_c, 0, 64, 29
1, 476029, Control_c, 0, 64, 44
1, 476045, Control_c, 0, 64, 56
1, 476050, Note_off_c, 0, 53, 47
1, 476060, Control_c, 0, 64, 64
1, 476075, Control_c, 0, 64, 69
1, 476090, Control_c, 0, 64, 74
1, 476096, Note_off_c, 0, 69, 57
1, 476097, Note_off_c, 0, 74, 62
1, 476105, Control_c, 0, 64, 80
1, 476108, Note_off_c, 0, 41, 59
1, 476119, Control_c, 0, 64, 88
1, 476134, Control_c, 0, 64, 100
1, 476149, Control_c, 0, 64, 116
1, 476163, Control_c, 0, 64, 127
1, 476362, Control_c, 0, 64, 115
1, 476377, Control_c, 0, 64, 88
1, 476392, Control_c, 0, 64, 67
1, 476393, Note_on_c, 0, 73, 80
1, 476400, Note_on_c, 0, 69, 62
1, 476401, Note_on_c, 0, 40, 59
1, 476407, Control_c, 0, 64, 45
1, 476408, Note_on_c, 0, 67, 59
1, 476411, Note_on_c, 0, 52, 54
1, 476422, Control_c, 0, 64, 0
1, 476496, Control_c, 0, 64, 38
1, 476510, Control_c, 0, 64, 53
1, 476525, Control_c, 0, 64, 63
1, 476540, Control_c, 0, 64, 68
1, 476541, Note_off_c, 0, 40, 60
1, 476555, Control_c, 0, 64, 75
1, 476570, Control_c, 0, 64, 80
1, 476580, Note_off_c, 0, 69, 49
1, 476582, Note_off_c, 0, 52, 60
1, 476585, Control_c, 0, 64, 86
1, 476600, Control_c, 0, 64, 92
1, 476615, Control_c, 0, 64, 95
1, 476629, Control_c, 0, 64, 96
1, 476631, Note_off_c, 0, 73, 56
1, 476644, Note_off_c, 0, 67, 38
1, 476733, Control_c, 0, 64, 95
1, 476748, Control_c, 0, 64, 93
1, 476762, Control_c, 0, 64, 91
1, 476777, Control_c, 0, 64, 89
1, 476792, Control_c, 0, 64, 88
1, 476807, Control_c, 0, 64, 87
1, 476822, Control_c, 0, 64, 86
1, 476838, Control_c, 0, 64, 84
1, 476853, Control_c, 0, 64, 78
1, 476867, Control_c, 0, 64, 62
1, 476874, Note_on_c, 0, 50, 52
1, 476878, Note_on_c, 0, 74, 59
1, 476882, Control_c, 0, 64, 0
1, 476907, Note_off_c, 0, 50, 63
1, 476945, Note_on_c, 0, 69, 59
1, 476951, Note_off_c, 0, 74, 58
1, 476991, Note_off_c, 0, 69, 62
1, 477040, Note_on_c, 0, 53, 56
1, 477042, Note_on_c, 0, 65, 58
1, 477074, Note_off_c, 0, 53, 64
1, 477109, Note_off_c, 0, 65, 51
1, 477114, Note_on_c, 0, 69, 50
1, 477152, Note_off_c, 0, 69, 64
1, 477168, Note_on_c, 0, 74, 64
1, 477175, Note_on_c, 0, 57, 53
1, 477208, Note_off_c, 0, 57, 64
1, 477220, Note_off_c, 0, 74, 59
1, 477241, Note_on_c, 0, 69, 66
1, 477299, Note_off_c, 0, 69, 61
1, 477315, Note_on_c, 0, 49, 73
1, 477324, Note_on_c, 0, 76, 63
1, 477353, Note_off_c, 0, 49, 65
1, 477381, Note_on_c, 0, 69, 56
1, 477396, Note_off_c, 0, 76, 57
1, 477433, Note_off_c, 0, 69, 61
1, 477458, Note_on_c, 0, 52, 59
1, 477465, Note_on_c, 0, 67, 65
1, 477488, Note_off_c, 0, 52, 64
1, 477521, Note_off_c, 0, 67, 56
1, 477536, Note_on_c, 0, 69, 56
1, 477590, Note_on_c, 0, 76, 71
1, 477592, Note_off_c, 0, 69, 61
1, 477607, Note_on_c, 0, 57, 44
1, 477634, Note_off_c, 0, 57, 59
1, 477655, Note_off_c, 0, 76, 63
1, 477672, Note_on_c, 0, 69, 61
1, 477732, Note_on_c, 0, 50, 64
1, 477738, Note_off_c, 0, 69, 60
1, 477744, Note_on_c, 0, 77, 79
1, 477778, Note_off_c, 0, 50, 64
1, 477814, Note_on_c, 0, 74, 79
1, 477842, Note_off_c, 0, 77, 62
1, 477871, Note_off_c, 0, 74, 64
1, 477887, Note_on_c, 0, 69, 71
1, 477891, Note_on_c, 0, 53, 70
1, 477926, Note_off_c, 0, 53, 63
1, 477958, Note_on_c, 0, 74, 72
1, 477981, Note_off_c, 0, 69, 57
1, 478024, Note_off_c, 0, 74, 62
1, 478026, Note_on_c, 0, 77, 75
1, 478035, Note_on_c, 0, 57, 54
1, 478075, Note_off_c, 0, 57, 60
1, 478085, Note_off_c, 0, 77, 63
1, 478090, Note_on_c, 0, 74, 76
1, 478152, Note_off_c, 0, 74, 64
1, 478170, Note_on_c, 0, 48, 72
1, 478173, Note_on_c, 0, 78, 81
1, 478220, Note_off_c, 0, 48, 61
1, 478241, Note_on_c, 0, 74, 75
1, 478263, Note_off_c, 0, 78, 62
1, 478295, Note_off_c, 0, 74, 65
1, 478314, Note_on_c, 0, 69, 71
1, 478315, Note_on_c, 0, 54, 65
1, 478364, Note_off_c, 0, 54, 58
1, 478367, Note_off_c, 0, 69, 55
1, 478379, Note_on_c, 0, 74, 77
1, 478438, Note_off_c, 0, 74, 63
1, 478439, Note_on_c, 0, 78, 75
1, 478460, Note_on_c, 0, 57, 49
1, 478510, Note_off_c, 0, 57, 61
1, 478510, Note_off_c, 0, 78, 63
1, 478530, Note_on_c, 0, 74, 75
1, 478621, Note_on_c, 0, 79, 81
1, 478628, Note_on_c, 0, 47, 43
1, 478631, Note_off_c, 0, 74, 59
1, 478743, Control_c, 0, 64, 36
1, 478758, Control_c, 0, 64, 52
1, 478773, Control_c, 0, 64, 61
1, 478788, Control_c, 0, 64, 66
1, 478803, Control_c, 0, 64, 70
1, 478811, Note_off_c, 0, 47, 62
1, 478817, Control_c, 0, 64, 77
1, 478832, Control_c, 0, 64, 87
1, 478842, Note_off_c, 0, 79, 63
1, 478847, Control_c, 0, 64, 105
1, 478862, Control_c, 0, 64, 127
1, 478971, Note_on_c, 0, 81, 64
1, 479025, Control_c, 0, 64, 118
1, 479026, Note_on_c, 0, 79, 75
1, 479039, Control_c, 0, 64, 106
1, 479054, Control_c, 0, 64, 98
1, 479069, Control_c, 0, 64, 89
1, 479083, Control_c, 0, 64, 77
1, 479098, Control_c, 0, 64, 65
1, 479103, Note_off_c, 0, 81, 43
1, 479104, Note_on_c, 0, 77, 74
1, 479113, Control_c, 0, 64, 51
1, 479128, Control_c, 0, 64, 29
1, 479143, Control_c, 0, 64, 0
1, 479184, Note_off_c, 0, 79, 57
1, 479248, Control_c, 0, 64, 40
1, 479270, Control_c, 0, 64, 52
1, 479285, Control_c, 0, 64, 60
1, 479300, Control_c, 0, 64, 64
1, 479315, Control_c, 0, 64, 67
1, 479325, Note_off_c, 0, 77, 62
1, 479329, Control_c, 0, 64, 71
1, 479344, Control_c, 0, 64, 76
1, 479359, Control_c, 0, 64, 83
1, 479374, Control_c, 0, 64, 87
1, 479388, Control_c, 0, 64, 90
1, 479403, Control_c, 0, 64, 90
1, 479443, Note_on_c, 0, 79, 66
1, 479492, Control_c, 0, 64, 90
1, 479503, Note_on_c, 0, 77, 65
1, 479506, Control_c, 0, 64, 89
1, 479521, Control_c, 0, 64, 87
1, 479536, Control_c, 0, 64, 85
1, 479551, Control_c, 0, 64, 84
1, 479559, Note_off_c, 0, 79, 53
1, 479566, Control_c, 0, 64, 82
1, 479572, Note_on_c, 0, 67, 75
1, 479581, Control_c, 0, 64, 79
1, 479586, Note_on_c, 0, 76, 76
1, 479595, Control_c, 0, 64, 73
1, 479604, Note_off_c, 0, 77, 59
1, 479610, Control_c, 0, 64, 66
1, 479625, Control_c, 0, 64, 58
1, 479640, Control_c, 0, 64, 44
1, 479655, Control_c, 0, 64, 0
1, 479744, Control_c, 0, 64, 40
1, 479759, Control_c, 0, 64, 52
1, 479761, Note_off_c, 0, 76, 56
1, 479774, Control_c, 0, 64, 59
1, 479788, Control_c, 0, 64, 63
1, 479803, Control_c, 0, 64, 66
1, 479818, Control_c, 0, 64, 68
1, 479833, Control_c, 0, 64, 71
1, 479848, Control_c, 0, 64, 75
1, 479862, Control_c, 0, 64, 78
1, 479877, Control_c, 0, 64, 80
1, 479892, Control_c, 0, 64, 80
1, 479908, Note_on_c, 0, 77, 56
1, 479916, Note_off_c, 0, 67, 58
1, 479971, Note_on_c, 0, 76, 65
1, 479995, Control_c, 0, 64, 80
1, 480018, Control_c, 0, 64, 78
1, 480033, Note_off_c, 0, 77, 52
1, 480034, Control_c, 0, 64, 75
1, 480048, Note_on_c, 0, 65, 65
1, 480049, Control_c, 0, 64, 68
1, 480052, Note_on_c, 0, 67, 59
1, 480057, Note_on_c, 0, 74, 68
1, 480061, Note_off_c, 0, 76, 61
1, 480063, Control_c, 0, 64, 61
1, 480078, Control_c, 0, 64, 48
1, 480093, Control_c, 0, 64, 30
1, 480108, Control_c, 0, 64, 0
1, 480167, Control_c, 0, 64, 33
1, 480182, Control_c, 0, 64, 42
1, 480197, Control_c, 0, 64, 50
1, 480211, Control_c, 0, 64, 56
1, 480225, Note_off_c, 0, 74, 56
1, 480226, Control_c, 0, 64, 60
1, 480241, Control_c, 0, 64, 63
1, 480256, Control_c, 0, 64, 66
1, 480271, Control_c, 0, 64, 68
1, 480285, Control_c, 0, 64, 70
1, 480300, Control_c, 0, 64, 71
1, 480315, Control_c, 0, 64, 73
1, 480329, Control_c, 0, 64, 73
1, 480388, Note_on_c, 0, 76, 52
1, 480394, Note_off_c, 0, 67, 41
1, 480397, Note_off_c, 0, 65, 57
1, 480446, Note_on_c, 0, 74, 62
1, 480484, Note_off_c, 0, 76, 57
1, 480493, Control_c, 0, 64, 73
1, 480508, Control_c, 0, 64, 70
1, 480521, Note_off_c, 0, 74, 61
1, 480522, Control_c, 0, 64, 64
1, 480528, Note_on_c, 0, 67, 44
1, 480528, Note_on_c, 0, 72, 61
1, 480532, Note_on_c, 0, 64, 47
1, 480537, Control_c, 0, 64, 53
1, 480552, Control_c, 0, 64, 39
1, 480567, Control_c, 0, 64, 0
1, 480641, Control_c, 0, 64, 31
1, 480655, Control_c, 0, 64, 43
1, 480670, Control_c, 0, 64, 54
1, 480685, Control_c, 0, 64, 61
1, 480696, Note_off_c, 0, 72, 56
1, 480700, Control_c, 0, 64, 64
1, 480715, Control_c, 0, 64, 66
1, 480729, Control_c, 0, 64, 68
1, 480744, Control_c, 0, 64, 69
1, 480767, Control_c, 0, 64, 71
1, 480782, Control_c, 0, 64, 71
1, 480797, Control_c, 0, 64, 72
1, 480844, Note_off_c, 0, 64, 59
1, 480851, Note_on_c, 0, 74, 47
1, 480868, Note_off_c, 0, 67, 36
1, 480886, Control_c, 0, 64, 71
1, 480901, Control_c, 0, 64, 71
1, 480912, Note_on_c, 0, 72, 54
1, 480916, Control_c, 0, 64, 70
1, 480931, Control_c, 0, 64, 68
1, 480933, Note_off_c, 0, 74, 51
1, 480946, Control_c, 0, 64, 62
1, 480960, Control_c, 0, 64, 53
1, 480964, Note_off_c, 0, 72, 58
1, 480975, Control_c, 0, 64, 36
1, 480990, Control_c, 0, 64, 0
1, 480997, Note_on_c, 0, 67, 38
1, 481001, Note_on_c, 0, 71, 49
1, 481002, Note_on_c, 0, 62, 42
1, 481015, Note_on_c, 0, 65, 31
1, 481064, Control_c, 0, 64, 43
1, 481078, Control_c, 0, 64, 56
1, 481093, Control_c, 0, 64, 62
1, 481108, Control_c, 0, 64, 65
1, 481123, Control_c, 0, 64, 67
1, 481130, Note_off_c, 0, 71, 56
1, 481138, Control_c, 0, 64, 68
1, 481152, Control_c, 0, 64, 69
1, 481167, Control_c, 0, 64, 69
1, 481180, Note_off_c, 0, 62, 36
1, 481195, Note_off_c, 0, 67, 36
1, 481214, Note_off_c, 0, 65, 39
1, 481274, Note_on_c, 0, 72, 46
1, 481286, Control_c, 0, 64, 69
1, 481315, Note_off_c, 0, 72, 64
1, 481315, Control_c, 0, 64, 68
1, 481354, Note_on_c, 0, 71, 46
1, 481360, Control_c, 0, 64, 68
1, 481375, Control_c, 0, 64, 67
1, 481390, Control_c, 0, 64, 65
1, 481405, Control_c, 0, 64, 55
1, 481405, Note_off_c, 0, 71, 60
1, 481420, Control_c, 0, 64, 0
1, 481423, Note_on_c, 0, 60, 55
1, 481435, Note_on_c, 0, 74, 60
1, 481463, Note_off_c, 0, 60, 64
1, 481518, Note_on_c, 0, 72, 55
1, 481536, Note_off_c, 0, 74, 54
1, 481564, Note_off_c, 0, 72, 62
1, 481584, Note_on_c, 0, 64, 59
1, 481612, Note_on_c, 0, 71, 47
1, 481616, Note_off_c, 0, 64, 66
1, 481646, Note_off_c, 0, 71, 61
1, 481679, Note_on_c, 0, 72, 55
1, 481713, Note_off_c, 0, 72, 65
1, 481738, Note_on_c, 0, 67, 48
1, 481746, Note_on_c, 0, 71, 63
1, 481775, Note_off_c, 0, 67, 64
1, 481795, Note_off_c, 0, 71, 56
1, 481811, Note_on_c, 0, 72, 59
1, 481855, Note_off_c, 0, 72, 60
1, 481879, Note_on_c, 0, 59, 50
1, 481885, Note_on_c, 0, 76, 58
1, 481916, Note_off_c, 0, 59, 63
1, 481949, Note_on_c, 0, 74, 64
1, 481962, Note_off_c, 0, 76, 57
1, 482008, Note_off_c, 0, 74, 62
1, 482018, Note_on_c, 0, 73, 69
1, 482022, Note_on_c, 0, 65, 60
1, 482059, Note_off_c, 0, 65, 65
1, 482073, Note_off_c, 0, 73, 62
1, 482099, Note_on_c, 0, 74, 64
1, 482156, Note_on_c, 0, 67, 55
1, 482163, Note_on_c, 0, 73, 67
1, 482173, Note_off_c, 0, 74, 59
1, 482194, Note_off_c, 0, 67, 63
1, 482213, Note_off_c, 0, 73, 63
1, 482235, Note_on_c, 0, 74, 61
1, 482315, Note_on_c, 0, 67, 52
1, 482315, Note_off_c, 0, 74, 60
1, 482317, Note_on_c, 0, 60, 45
1, 482321, Note_on_c, 0, 76, 68
1, 482327, Note_on_c, 0, 64, 33
1, 482406, Note_on_c, 0, 74, 71
1, 482416, Note_off_c, 0, 76, 58
1, 482475, Note_on_c, 0, 72, 72
1, 482493, Note_off_c, 0, 74, 63
1, 482522, Note_off_c, 0, 72, 65
1, 482548, Note_on_c, 0, 74, 64
1, 482578, Note_off_c, 0, 67, 58
1, 482615, Note_on_c, 0, 76, 76
1, 482630, Note_off_c, 0, 64, 54
1, 482642, Note_off_c, 0, 74, 57
1, 482642, Note_off_c, 0, 60, 53
1, 482688, Note_on_c, 0, 77, 75
1, 482701, Note_off_c, 0, 76, 63
1, 482752, Note_off_c, 0, 77, 63
1, 482762, Note_on_c, 0, 79, 76
1, 482831, Note_on_c, 0, 77, 71
1, 482847, Note_off_c, 0, 79, 60
1, 482900, Note_on_c, 0, 76, 79
1, 482914, Note_off_c, 0, 77, 62
1, 482949, Note_off_c, 0, 76, 66
1, 482980, Note_on_c, 0, 77, 65
1, 483057, Note_on_c, 0, 79, 74
1, 483063, Note_off_c, 0, 77, 63
1, 483137, Note_on_c, 0, 80, 73
1, 483137, Note_off_c, 0, 79, 65
1, 483196, Note_off_c, 0, 80, 64
1, 483196, Note_on_c, 0, 53, 51
1, 483220, Note_on_c, 0, 81, 76
1, 483232, Note_off_c, 0, 53, 63
1, 483286, Note_off_c, 0, 81, 60
1, 483310, Note_on_c, 0, 82, 73
1, 483384, Note_on_c, 0, 65, 56
1, 483394, Note_on_c, 0, 81, 62
1, 483407, Note_off_c, 0, 65, 61
1, 483410, Note_on_c, 0, 83, 55
1, 483412, Note_off_c, 0, 82, 63
1, 483432, Note_off_c, 0, 83, 53
1, 483447, Note_off_c, 0, 81, 63
1, 483460, Note_on_c, 0, 79, 77
1, 483516, Note_off_c, 0, 79, 60
1, 483534, Note_on_c, 0, 77, 76
1, 483606, Note_on_c, 0, 76, 78
1, 483623, Note_off_c, 0, 77, 62
1, 483655, Note_off_c, 0, 76, 65
1, 483661, Note_on_c, 0, 47, 52
1, 483674, Note_on_c, 0, 74, 77
1, 483697, Note_off_c, 0, 47, 65
1, 483736, Note_off_c, 0, 74, 61
1, 483757, Note_on_c, 0, 85, 81
1, 483814, Note_on_c, 0, 59, 57
1, 483826, Note_on_c, 0, 86, 84
1, 483837, Note_off_c, 0, 85, 65
1, 483845, Note_off_c, 0, 59, 63
1, 483894, Note_on_c, 0, 84, 82
1, 483945, Note_off_c, 0, 86, 63
1, 483972, Note_on_c, 0, 83, 81
1, 484001, Note_off_c, 0, 84, 65
1, 484031, Note_on_c, 0, 81, 83
1, 484070, Note_off_c, 0, 83, 64
1, 484094, Note_off_c, 0, 81, 64
1, 484104, Note_on_c, 0, 52, 55
1, 484109, Note_on_c, 0, 79, 65
1, 484141, Note_off_c, 0, 52, 64
1, 484157, Note_off_c, 0, 79, 64
1, 484188, Note_on_c, 0, 81, 62
1, 484257, Note_on_c, 0, 79, 74
1, 484273, Note_on_c, 0, 64, 46
1, 484295, Note_off_c, 0, 81, 62
1, 484296, Note_off_c, 0, 64, 60
1, 484305, Note_off_c, 0, 79, 66
1, 484333, Note_on_c, 0, 77, 60
1, 484377, Note_off_c, 0, 77, 56
1, 484405, Note_on_c, 0, 76, 69
1, 484476, Note_on_c, 0, 74, 64
1, 484505, Note_off_c, 0, 76, 62
1, 484533, Note_off_c, 0, 74, 63
1, 484547, Note_on_c, 0, 45, 58
1, 484558, Note_on_c, 0, 72, 67
1, 484584, Note_off_c, 0, 45, 63
1, 484603, Note_off_c, 0, 72, 60
1, 484628, Note_on_c, 0, 83, 75
1, 484699, Note_on_c, 0, 84, 84
1, 484705, Note_off_c, 0, 83, 64
1, 484707, Note_on_c, 0, 57, 65
1, 484756, Note_off_c, 0, 57, 58
1, 484764, Note_on_c, 0, 83, 77
1, 484812, Note_off_c, 0, 84, 62
1, 484847, Note_on_c, 0, 81, 80
1, 484882, Note_off_c, 0, 83, 63
1, 484909, Note_on_c, 0, 79, 82
1, 484948, Note_off_c, 0, 81, 64
1, 484973, Note_off_c, 0, 79, 68
1, 484982, Note_on_c, 0, 50, 51
1, 484989, Note_on_c, 0, 77, 81
1, 485056, Note_on_c, 0, 85, 78
1, 485065, Note_off_c, 0, 77, 58
1, 485068, Note_off_c, 0, 50, 53
1, 485128, Note_on_c, 0, 86, 81
1, 485139, Note_off_c, 0, 85, 64
1, 485198, Note_on_c, 0, 83, 81
1, 485235, Note_off_c, 0, 86, 61
1, 485278, Note_off_c, 0, 83, 62
1, 485283, Note_on_c, 0, 79, 84
1, 485284, Note_on_c, 0, 59, 75
1, 485310, Note_off_c, 0, 59, 66
1, 485337, Note_off_c, 0, 79, 64
1, 485360, Note_on_c, 0, 77, 76
1, 485425, Note_off_c, 0, 77, 64
1, 485441, Note_on_c, 0, 76, 84
1, 485461, Note_on_c, 0, 60, 47
1, 485510, Note_on_c, 0, 83, 81
1, 485512, Note_off_c, 0, 76, 59
1, 485548, Note_off_c, 0, 60, 43
1, 485579, Note_on_c, 0, 84, 79
1, 485591, Note_off_c, 0, 83, 61
1, 485638, Note_on_c, 0, 79, 76
1, 485676, Note_off_c, 0, 84, 63
1, 485697, Note_off_c, 0, 79, 67
1, 485718, Note_on_c, 0, 77, 72
1, 485721, Note_on_c, 0, 48, 55
1, 485758, Note_off_c, 0, 48, 64
1, 485780, Note_off_c, 0, 77, 39
1, 485784, Note_on_c, 0, 76, 79
1, 485860, Note_off_c, 0, 76, 63
1, 485864, Note_on_c, 0, 74, 79
1, 485865, Note_on_c, 0, 55, 62
1, 485915, Note_off_c, 0, 74, 64
1, 485937, Note_on_c, 0, 76, 73
1, 486012, Note_on_c, 0, 74, 77
1, 486040, Note_off_c, 0, 76, 62
1, 486069, Note_off_c, 0, 74, 63
1, 486091, Note_on_c, 0, 72, 73
1, 486098, Note_off_c, 0, 55, 60
1, 486127, Note_off_c, 0, 72, 60
1, 486158, Note_on_c, 0, 71, 62
1, 486220, Note_on_c, 0, 69, 54
1, 486243, Note_off_c, 0, 71, 61
1, 486285, Note_off_c, 0, 69, 64
1, 486297, Note_on_c, 0, 67, 66
1, 486350, Control_c, 0, 67, 24
1, 486362, Note_on_c, 0, 69, 57
1, 486365, Control_c, 0, 67, 29
1, 486366, Note_off_c, 0, 67, 63
1, 486380, Control_c, 0, 67, 37
1, 486394, Control_c, 0, 67, 45
1, 486409, Control_c, 0, 67, 52
1, 486411, Note_off_c, 0, 69, 61
1, 486425, Control_c, 0, 67, 60
1, 486440, Control_c, 0, 67, 67
1, 486454, Control_c, 0, 67, 73
1, 486467, Note_on_c, 0, 67, 38
1, 486469, Control_c, 0, 67, 75
1, 486502, Note_off_c, 0, 67, 54
1, 486519, Note_on_c, 0, 65, 59
1, 486559, Control_c, 0, 67, 75
1, 486573, Control_c, 0, 67, 74
1, 486574, Note_off_c, 0, 65, 60
1, 486599, Note_on_c, 0, 64, 48
1, 486632, Control_c, 0, 67, 74
1, 486648, Note_off_c, 0, 64, 59
1, 486662, Control_c, 0, 67, 73
1, 486682, Note_on_c, 0, 62, 45
1, 486783, Note_off_c, 0, 62, 49
1, 486788, Control_c, 0, 67, 73
1, 486818, Control_c, 0, 67, 72
1, 486821, Note_on_c, 0, 75, 61
1, 486838, Note_on_c, 0, 60, 33
1, 487060, Note_on_c, 0, 63, 37
1, 487128, Control_c, 0, 67, 73
1, 487134, Note_off_c, 0, 60, 42
1, 487143, Control_c, 0, 67, 73
1, 487208, Note_on_c, 0, 67, 40
1, 487218, Control_c, 0, 67, 73
1, 487233, Note_off_c, 0, 63, 53
1, 487233, Control_c, 0, 67, 72
1, 487322, Control_c, 0, 67, 72
1, 487352, Control_c, 0, 67, 71
1, 487370, Note_on_c, 0, 60, 44
1, 487380, Note_off_c, 0, 67, 46
1, 487408, Note_off_c, 0, 75, 60
1, 487506, Control_c, 0, 67, 71
1, 487522, Note_on_c, 0, 63, 47
1, 487528, Note_on_c, 0, 74, 62
1, 487556, Note_off_c, 0, 74, 66
1, 487594, Control_c, 0, 67, 70
1, 487598, Note_off_c, 0, 60, 50
1, 487674, Note_on_c, 0, 72, 64
1, 487689, Note_on_c, 0, 67, 38
1, 487709, Note_off_c, 0, 63, 53
1, 487715, Note_off_c, 0, 72, 61
1, 487845, Note_on_c, 0, 78, 65
1, 487861, Note_on_c, 0, 59, 25
1, 487876, Note_off_c, 0, 67, 41
1, 487906, Control_c, 0, 67, 70
1, 488015, Note_on_c, 0, 62, 37
1, 488055, Control_c, 0, 67, 69
1, 488114, Control_c, 0, 67, 69
1, 488174, Note_off_c, 0, 59, 41
1, 488174, Control_c, 0, 67, 68
1, 488183, Note_on_c, 0, 67, 35
1, 488186, Note_on_c, 0, 79, 54
1, 488192, Note_off_c, 0, 78, 53
1, 488210, Note_off_c, 0, 62, 43
1, 488285, Control_c, 0, 67, 68
1, 488315, Control_c, 0, 67, 67
1, 488357, Note_off_c, 0, 79, 54
1, 488359, Note_on_c, 0, 59, 28
1, 488359, Control_c, 0, 67, 67
1, 488371, Note_on_c, 0, 74, 46
1, 488391, Note_off_c, 0, 67, 39
1, 488418, Control_c, 0, 67, 66
1, 488433, Control_c, 0, 67, 66
1, 488463, Control_c, 0, 67, 65
1, 488477, Control_c, 0, 67, 65
1, 488492, Control_c, 0, 67, 64
1, 488507, Control_c, 0, 67, 64
1, 488541, Note_on_c, 0, 62, 32
1, 488551, Control_c, 0, 67, 63
1, 488595, Control_c, 0, 67, 63
1, 488602, Note_off_c, 0, 74, 60
1, 488675, Note_off_c, 0, 59, 32
1, 488696, Note_on_c, 0, 67, 33
1, 488743, Note_off_c, 0, 62, 51
1, 488928, Note_on_c, 0, 80, 74
1, 488931, Note_on_c, 0, 59, 31
1, 489001, Note_off_c, 0, 67, 38
1, 489150, Note_on_c, 0, 62, 37
1, 489262, Note_off_c, 0, 59, 37
1, 489317, Note_off_c, 0, 62, 55
1, 489325, Note_on_c, 0, 65, 34
1, 489471, Note_on_c, 0, 59, 43
1, 489504, Note_off_c, 0, 65, 43
1, 489545, Note_off_c, 0, 80, 56
1, 489625, Note_on_c, 0, 62, 42
1, 489625, Note_on_c, 0, 79, 57
1, 489654, Note_off_c, 0, 79, 65
1, 489725, Note_off_c, 0, 59, 32
1, 489771, Note_on_c, 0, 77, 55
1, 489782, Note_off_c, 0, 62, 57
1, 489783, Note_on_c, 0, 67, 38
1, 489824, Note_off_c, 0, 77, 57
1, 489939, Note_on_c, 0, 75, 52
1, 489949, Note_on_c, 0, 60, 41
1, 489959, Note_off_c, 0, 67, 42
1, 489960, Control_c, 0, 67, 62
1, 489978, Note_off_c, 0, 75, 61
1, 489990, Control_c, 0, 67, 62
1, 490000, Note_on_c, 0, 77, 60
1, 490035, Control_c, 0, 67, 61
1, 490046, Note_off_c, 0, 77, 58
1, 490064, Control_c, 0, 67, 61
1, 490065, Note_on_c, 0, 75, 58
1, 490088, Note_on_c, 0, 63, 43
1, 490094, Control_c, 0, 67, 60
1, 490099, Note_off_c, 0, 75, 64
1, 490109, Control_c, 0, 67, 58
1, 490118, Note_on_c, 0, 74, 61
1, 490123, Control_c, 0, 67, 50
1, 490138, Control_c, 0, 67, 45
1, 490153, Control_c, 0, 67, 40
1, 490163, Note_off_c, 0, 60, 37
1, 490167, Control_c, 0, 67, 36
1, 490172, Note_on_c, 0, 75, 66
1, 490182, Control_c, 0, 67, 32
1, 490197, Control_c, 0, 67, 28
1, 490212, Control_c, 0, 67, 23
1, 490217, Note_off_c, 0, 63, 54
1, 490223, Note_on_c, 0, 67, 38
1, 490227, Control_c, 0, 67, 0
1, 490261, Note_on_c, 0, 77, 60
1, 490273, Note_off_c, 0, 75, 59
1, 490303, Note_off_c, 0, 74, 36
1, 490375, Note_on_c, 0, 79, 62
1, 490394, Note_off_c, 0, 77, 61
1, 490395, Note_on_c, 0, 60, 37
1, 490422, Note_off_c, 0, 67, 37
1, 490532, Control_c, 0, 64, 29
1, 490546, Control_c, 0, 64, 46
1, 490554, Note_on_c, 0, 63, 43
1, 490561, Control_c, 0, 64, 56
1, 490576, Control_c, 0, 64, 61
1, 490580, Note_off_c, 0, 79, 65
1, 490590, Control_c, 0, 64, 64
1, 490605, Control_c, 0, 64, 66
1, 490620, Control_c, 0, 64, 70
1, 490622, Note_off_c, 0, 60, 52
1, 490635, Control_c, 0, 64, 75
1, 490650, Control_c, 0, 64, 79
1, 490664, Control_c, 0, 64, 82
1, 490673, Note_off_c, 0, 63, 61
1, 490679, Control_c, 0, 64, 84
1, 490694, Control_c, 0, 64, 85
1, 490711, Note_on_c, 0, 67, 45
1, 490743, Note_off_c, 0, 67, 58
1, 490753, Control_c, 0, 64, 86
1, 490827, Control_c, 0, 64, 85
1, 490887, Control_c, 0, 64, 85
1, 490902, Control_c, 0, 64, 84
1, 490916, Control_c, 0, 64, 83
1, 490931, Control_c, 0, 64, 81
1, 490932, Note_on_c, 0, 84, 84
1, 490934, Note_on_c, 0, 63, 49
1, 490946, Control_c, 0, 64, 79
1, 490961, Control_c, 0, 64, 76
1, 490976, Control_c, 0, 64, 72
1, 490990, Control_c, 0, 64, 66
1, 491005, Control_c, 0, 64, 56
1, 491020, Control_c, 0, 64, 39
1, 491035, Control_c, 0, 64, 0
1, 491146, Note_on_c, 0, 67, 39
1, 491168, Control_c, 0, 64, 37
1, 491182, Control_c, 0, 64, 45
1, 491197, Control_c, 0, 64, 52
1, 491213, Control_c, 0, 64, 57
1, 491228, Control_c, 0, 64, 60
1, 491251, Control_c, 0, 64, 62
1, 491259, Note_off_c, 0, 63, 51
1, 491266, Control_c, 0, 64, 64
1, 491281, Control_c, 0, 64, 66
1, 491295, Control_c, 0, 64, 68
1, 491310, Control_c, 0, 64, 70
1, 491321, Note_on_c, 0, 72, 40
1, 491325, Control_c, 0, 64, 72
1, 491340, Control_c, 0, 64, 72
1, 491355, Control_c, 0, 64, 73
1, 491387, Note_off_c, 0, 72, 41
1, 491398, Note_off_c, 0, 67, 42
1, 491443, Control_c, 0, 64, 72
1, 491473, Control_c, 0, 64, 71
1, 491474, Note_on_c, 0, 82, 81
1, 491487, Control_c, 0, 64, 69
1, 491501, Note_on_c, 0, 62, 29
1, 491502, Control_c, 0, 64, 66
1, 491517, Control_c, 0, 64, 61
1, 491531, Control_c, 0, 64, 54
1, 491546, Control_c, 0, 64, 45
1, 491561, Control_c, 0, 64, 35
1, 491576, Control_c, 0, 64, 30
1, 491584, Note_off_c, 0, 84, 51
1, 491605, Control_c, 0, 64, 34
1, 491620, Control_c, 0, 64, 38
1, 491635, Note_on_c, 0, 65, 49
1, 491635, Control_c, 0, 64, 43
1, 491650, Control_c, 0, 64, 49
1, 491665, Control_c, 0, 64, 55
1, 491680, Control_c, 0, 64, 60
1, 491695, Control_c, 0, 64, 63
1, 491710, Control_c, 0, 64, 66
1, 491725, Control_c, 0, 64, 67
1, 491739, Control_c, 0, 64, 68
1, 491743, Note_off_c, 0, 62, 41
1, 491786, Note_on_c, 0, 84, 85
1, 491792, Note_on_c, 0, 70, 44
1, 491799, Note_off_c, 0, 65, 53
1, 491820, Note_off_c, 0, 82, 61
1, 491858, Control_c, 0, 64, 68
1, 491873, Control_c, 0, 64, 66
1, 491887, Control_c, 0, 64, 65
1, 491902, Control_c, 0, 64, 63
1, 491917, Control_c, 0, 64, 61
1, 491931, Control_c, 0, 64, 60
1, 491946, Control_c, 0, 64, 59
1, 491961, Note_off_c, 0, 70, 43
1, 491961, Control_c, 0, 64, 57
1, 491963, Note_on_c, 0, 82, 80
1, 491969, Note_on_c, 0, 60, 43
1, 491976, Control_c, 0, 64, 54
1, 491999, Control_c, 0, 64, 49
1, 492014, Control_c, 0, 64, 39
1, 492029, Control_c, 0, 64, 0
1, 492080, Note_off_c, 0, 84, 54
1, 492135, Note_on_c, 0, 63, 47
1, 492162, Control_c, 0, 64, 33
1, 492169, Note_off_c, 0, 60, 34
1, 492177, Control_c, 0, 64, 45
1, 492192, Control_c, 0, 64, 52
1, 492207, Control_c, 0, 64, 55
1, 492222, Control_c, 0, 64, 56
1, 492279, Note_on_c, 0, 68, 44
1, 492282, Note_on_c, 0, 80, 75
1, 492303, Note_off_c, 0, 63, 54
1, 492310, Control_c, 0, 64, 56
1, 492325, Control_c, 0, 64, 55
1, 492340, Control_c, 0, 64, 54
1, 492355, Control_c, 0, 64, 54
1, 492369, Control_c, 0, 64, 53
1, 492384, Control_c, 0, 64, 52
1, 492398, Note_off_c, 0, 82, 55
1, 492399, Control_c, 0, 64, 50
1, 492414, Control_c, 0, 64, 48
1, 492429, Control_c, 0, 64, 42
1, 492443, Control_c, 0, 64, 0
1, 492451, Note_on_c, 0, 79, 74
1, 492456, Note_on_c, 0, 58, 44
1, 492459, Note_off_c, 0, 68, 36
1, 492522, Note_off_c, 0, 80, 58
1, 492599, Note_on_c, 0, 62, 54
1, 492607, Control_c, 0, 64, 43
1, 492620, Note_off_c, 0, 58, 50
1, 492622, Control_c, 0, 64, 55
1, 492636, Control_c, 0, 64, 61
1, 492651, Control_c, 0, 64, 65
1, 492659, Note_off_c, 0, 79, 58
1, 492666, Control_c, 0, 64, 67
1, 492680, Control_c, 0, 64, 68
1, 492695, Control_c, 0, 64, 69
1, 492710, Control_c, 0, 64, 70
1, 492735, Note_off_c, 0, 62, 60
1, 492777, Note_on_c, 0, 67, 40
1, 492822, Control_c, 0, 64, 69
1, 492837, Control_c, 0, 64, 68
1, 492852, Control_c, 0, 64, 67
1, 492866, Control_c, 0, 64, 66
1, 492881, Control_c, 0, 64, 65
1, 492896, Control_c, 0, 64, 63
1, 492911, Control_c, 0, 64, 61
1, 492926, Control_c, 0, 64, 60
1, 492928, Note_on_c, 0, 56, 45
1, 492929, Note_on_c, 0, 77, 56
1, 492932, Note_off_c, 0, 67, 33
1, 492941, Control_c, 0, 64, 58
1, 492956, Control_c, 0, 64, 56
1, 492971, Control_c, 0, 64, 54
1, 492985, Control_c, 0, 64, 53
1, 493000, Control_c, 0, 64, 52
1, 493015, Control_c, 0, 64, 52
1, 493030, Control_c, 0, 64, 51
1, 493059, Control_c, 0, 64, 51
1, 493089, Control_c, 0, 64, 50
1, 493096, Note_on_c, 0, 60, 39
1, 493104, Control_c, 0, 64, 50
1, 493120, Note_off_c, 0, 56, 48
1, 493133, Control_c, 0, 64, 49
1, 493163, Control_c, 0, 64, 49
1, 493207, Control_c, 0, 64, 48
1, 493235, Note_off_c, 0, 60, 54
1, 493237, Control_c, 0, 64, 48
1, 493239, Note_on_c, 0, 75, 68
1, 493266, Note_on_c, 0, 65, 34
1, 493281, Control_c, 0, 64, 47
1, 493311, Control_c, 0, 64, 47
1, 493340, Control_c, 0, 64, 46
1, 493355, Control_c, 0, 64, 46
1, 493370, Control_c, 0, 64, 45
1, 493385, Control_c, 0, 64, 42
1, 493400, Control_c, 0, 64, 38
1, 493402, Note_on_c, 0, 74, 73
1, 493402, Note_off_c, 0, 65, 46
1, 493406, Note_on_c, 0, 56, 47
1, 493415, Control_c, 0, 64, 33
1, 493430, Control_c, 0, 64, 0
1, 493503, Note_off_c, 0, 77, 43
1, 493511, Control_c, 0, 64, 29
1, 493513, Note_off_c, 0, 75, 53
1, 493526, Control_c, 0, 64, 32
1, 493541, Control_c, 0, 64, 36
1, 493556, Control_c, 0, 64, 42
1, 493563, Note_off_c, 0, 56, 54
1, 493571, Control_c, 0, 64, 49
1, 493572, Note_on_c, 0, 60, 51
1, 493585, Control_c, 0, 64, 55
1, 493600, Control_c, 0, 64, 58
1, 493616, Control_c, 0, 64, 60
1, 493631, Control_c, 0, 64, 61
1, 493646, Control_c, 0, 64, 62
1, 493703, Note_off_c, 0, 60, 61
1, 493720, Control_c, 0, 64, 62
1, 493725, Note_on_c, 0, 72, 63
1, 493732, Note_on_c, 0, 66, 42
1, 493734, Control_c, 0, 64, 61
1, 493755, Note_off_c, 0, 74, 56
1, 493764, Control_c, 0, 64, 60
1, 493779, Control_c, 0, 64, 60
1, 493794, Control_c, 0, 64, 58
1, 493808, Control_c, 0, 64, 57
1, 493823, Control_c, 0, 64, 56
1, 493838, Control_c, 0, 64, 55
1, 493853, Control_c, 0, 64, 54
1, 493868, Control_c, 0, 64, 53
1, 493898, Control_c, 0, 64, 52
1, 493903, Note_off_c, 0, 66, 29
1, 493908, Note_on_c, 0, 75, 57
1, 493913, Control_c, 0, 64, 51
1, 493913, Note_on_c, 0, 55, 42
1, 493928, Control_c, 0, 64, 50
1, 493942, Control_c, 0, 64, 49
1, 493949, Note_off_c, 0, 72, 46
1, 493957, Control_c, 0, 64, 49
1, 493972, Control_c, 0, 64, 48
1, 493987, Control_c, 0, 64, 48
1, 494002, Control_c, 0, 64, 47
1, 494092, Note_on_c, 0, 60, 29
1, 494149, Control_c, 0, 64, 47
1, 494159, Note_off_c, 0, 55, 36
1, 494208, Control_c, 0, 64, 46
1, 494253, Note_off_c, 0, 60, 40
1, 494258, Note_on_c, 0, 67, 35
1, 494275, Control_c, 0, 64, 46
1, 494305, Control_c, 0, 64, 45
1, 494320, Control_c, 0, 64, 44
1, 494334, Control_c, 0, 64, 44
1, 494349, Control_c, 0, 64, 43
1, 494364, Control_c, 0, 64, 43
1, 494379, Control_c, 0, 64, 42
1, 494394, Control_c, 0, 64, 42
1, 494399, Note_off_c, 0, 67, 33
1, 494410, Note_on_c, 0, 74, 47
1, 494410, Control_c, 0, 64, 40
1, 494413, Note_on_c, 0, 55, 34
1, 494417, Note_off_c, 0, 75, 53
1, 494425, Control_c, 0, 64, 39
1, 494439, Control_c, 0, 64, 38
1, 494454, Control_c, 0, 64, 37
1, 494454, Control_c, 0, 67, 21
1, 494469, Control_c, 0, 64, 37
1, 494469, Control_c, 0, 67, 24
1, 494484, Control_c, 0, 64, 36
1, 494484, Control_c, 0, 67, 28
1, 494499, Control_c, 0, 64, 35
1, 494499, Control_c, 0, 67, 32
1, 494513, Control_c, 0, 64, 34
1, 494513, Control_c, 0, 67, 40
1, 494528, Control_c, 0, 64, 33
1, 494528, Control_c, 0, 67, 48
1, 494543, Control_c, 0, 67, 56
1, 494557, Control_c, 0, 67, 63
1, 494572, Control_c, 0, 67, 66
1, 494583, Note_off_c, 0, 74, 59
1, 494587, Control_c, 0, 67, 67
1, 494602, Note_on_c, 0, 59, 12
1, 494653, Note_off_c, 0, 55, 38
1, 494661, Control_c, 0, 67, 66
1, 494691, Control_c, 0, 67, 65
1, 494719, Note_off_c, 0, 59, 42
1, 494749, Note_on_c, 0, 67, 25
1, 494765, Control_c, 0, 67, 64
1, 494780, Control_c, 0, 67, 64
1, 494795, Control_c, 0, 64, 32
1, 494795, Control_c, 0, 67, 63
1, 494810, Control_c, 0, 67, 63
1, 494839, Control_c, 0, 67, 62
1, 494854, Control_c, 0, 67, 62
1, 494897, Control_c, 0, 67, 61
1, 494927, Control_c, 0, 67, 60
1, 494941, Note_on_c, 0, 75, 52
1, 494942, Control_c, 0, 64, 32
1, 494942, Control_c, 0, 67, 60
1, 494962, Note_on_c, 0, 60, 24
1, 494971, Control_c, 0, 67, 59
1, 494992, Note_off_c, 0, 67, 44
1, 495009, Control_c, 0, 67, 59
1, 495068, Control_c, 0, 67, 58
1, 495127, Control_c, 0, 64, 30
1, 495144, Note_on_c, 0, 63, 35
1, 495230, Note_off_c, 0, 60, 43
1, 495261, Control_c, 0, 64, 0
1, 495261, Control_c, 0, 67, 58
1, 495302, Note_on_c, 0, 67, 37
1, 495309, Note_off_c, 0, 63, 51
1, 495460, Note_on_c, 0, 60, 38
1, 495460, Note_off_c, 0, 75, 60
1, 495466, Note_off_c, 0, 67, 41
1, 495598, Note_on_c, 0, 74, 50
1, 495612, Note_on_c, 0, 63, 35
1, 495621, Note_off_c, 0, 74, 59
1, 495767, Note_on_c, 0, 72, 50
1, 495777, Note_on_c, 0, 67, 37
1, 495794, Note_off_c, 0, 72, 62
1, 495813, Note_off_c, 0, 60, 38
1, 495819, Note_off_c, 0, 63, 40
1, 495949, Note_on_c, 0, 78, 57
1, 495973, Note_off_c, 0, 67, 40
1, 495975, Note_on_c, 0, 59, 28
1, 496131, Note_on_c, 0, 62, 28
1, 496220, Note_off_c, 0, 59, 34
1, 496269, Note_on_c, 0, 79, 56
1, 496281, Note_on_c, 0, 67, 31
1, 496308, Note_off_c, 0, 78, 38
1, 496323, Note_off_c, 0, 62, 40
1, 496447, Note_off_c, 0, 79, 56
1, 496448, Note_on_c, 0, 74, 46
1, 496454, Note_on_c, 0, 59, 33
1, 496464, Note_off_c, 0, 67, 43
1, 496522, Control_c, 0, 67, 57
1, 496581, Control_c, 0, 67, 57
1, 496619, Note_on_c, 0, 62, 40
1, 496625, Control_c, 0, 67, 56
1, 496658, Note_off_c, 0, 74, 55
1, 496678, Note_off_c, 0, 59, 39
1, 496759, Control_c, 0, 67, 56
1, 496773, Note_on_c, 0, 67, 44
1, 496804, Control_c, 0, 67, 55
1, 496822, Note_off_c, 0, 62, 55
1, 496967, Control_c, 0, 67, 55
1, 496977, Note_on_c, 0, 80, 78
1, 497003, Note_on_c, 0, 59, 30
1, 497012, Control_c, 0, 67, 54
1, 497015, Note_off_c, 0, 67, 36
1, 497056, Control_c, 0, 67, 54
1, 497071, Control_c, 0, 67, 53
1, 497085, Control_c, 0, 67, 52
1, 497100, Control_c, 0, 67, 50
1, 497115, Control_c, 0, 67, 47
1, 497130, Control_c, 0, 67, 43
1, 497144, Control_c, 0, 67, 38
1, 497159, Control_c, 0, 67, 35
1, 497174, Control_c, 0, 67, 32
1, 497184, Note_on_c, 0, 62, 43
1, 497189, Control_c, 0, 67, 29
1, 497204, Control_c, 0, 67, 26
1, 497226, Control_c, 0, 67, 22
1, 497241, Control_c, 0, 67, 0
1, 497269, Note_off_c, 0, 59, 37
1, 497355, Note_off_c, 0, 62, 54
1, 497356, Note_on_c, 0, 65, 40
1, 497509, Note_on_c, 0, 59, 49
1, 497545, Note_off_c, 0, 65, 37
1, 497567, Note_off_c, 0, 80, 61
1, 497656, Note_on_c, 0, 62, 49
1, 497665, Note_on_c, 0, 79, 65
1, 497696, Note_off_c, 0, 79, 65
1, 497759, Note_off_c, 0, 62, 55
1, 497799, Note_on_c, 0, 67, 49
1, 497802, Note_on_c, 0, 77, 68
1, 497858, Note_off_c, 0, 77, 53
1, 497864, Note_off_c, 0, 59, 19
1, 497976, Note_on_c, 0, 58, 51
1, 497980, Note_on_c, 0, 76, 69
1, 498009, Note_off_c, 0, 67, 42
1, 498141, Note_on_c, 0, 61, 51
1, 498291, Note_on_c, 0, 67, 49
1, 498293, Note_off_c, 0, 61, 55
1, 498296, Note_on_c, 0, 77, 61
1, 498301, Note_off_c, 0, 76, 60
1, 498326, Note_off_c, 0, 58, 44
1, 498353, Note_off_c, 0, 77, 56
1, 498370, Note_on_c, 0, 79, 64
1, 498448, Note_off_c, 0, 67, 41
1, 498450, Note_on_c, 0, 57, 55
1, 498462, Note_on_c, 0, 77, 63
1, 498486, Note_off_c, 0, 79, 56
1, 498617, Note_on_c, 0, 60, 56
1, 498651, Note_off_c, 0, 77, 58
1, 498663, Note_off_c, 0, 57, 52
1, 498785, Note_on_c, 0, 65, 62
1, 498846, Note_off_c, 0, 60, 60
1, 498999, Note_off_c, 0, 65, 41
1, 499010, Note_on_c, 0, 87, 94
1, 499015, Note_on_c, 0, 56, 53
1, 499168, Control_c, 0, 64, 37
1, 499183, Control_c, 0, 64, 48
1, 499199, Control_c, 0, 64, 54
1, 499214, Control_c, 0, 64, 57
1, 499228, Control_c, 0, 64, 59
1, 499243, Control_c, 0, 64, 60
1, 499254, Note_on_c, 0, 60, 47
1, 499258, Control_c, 0, 64, 61
1, 499272, Control_c, 0, 64, 63
1, 499287, Control_c, 0, 64, 66
1, 499302, Control_c, 0, 64, 69
1, 499308, Note_off_c, 0, 56, 52
1, 499317, Control_c, 0, 64, 72
1, 499332, Control_c, 0, 64, 75
1, 499347, Control_c, 0, 64, 79
1, 499362, Control_c, 0, 64, 83
1, 499377, Control_c, 0, 64, 85
1, 499392, Control_c, 0, 64, 86
1, 499413, Note_off_c, 0, 60, 60
1, 499416, Note_on_c, 0, 66, 53
1, 499562, Control_c, 0, 64, 84
1, 499576, Control_c, 0, 64, 78
1, 499589, Note_on_c, 0, 55, 71
1, 499591, Control_c, 0, 64, 65
1, 499606, Control_c, 0, 64, 52
1, 499610, Note_off_c, 0, 66, 35
1, 499621, Control_c, 0, 64, 0
1, 499666, Control_c, 0, 64, 30
1, 499680, Control_c, 0, 64, 45
1, 499695, Control_c, 0, 64, 55
1, 499710, Control_c, 0, 64, 59
1, 499720, Note_off_c, 0, 87, 60
1, 499725, Control_c, 0, 64, 61
1, 499740, Control_c, 0, 64, 62
1, 499754, Control_c, 0, 64, 63
1, 499759, Note_on_c, 0, 60, 58
1, 499761, Note_on_c, 0, 86, 78
1, 499769, Control_c, 0, 64, 63
1, 499784, Control_c, 0, 64, 64
1, 499798, Control_c, 0, 64, 65
1, 499826, Note_off_c, 0, 55, 57
1, 499843, Control_c, 0, 64, 65
1, 499903, Note_on_c, 0, 84, 86
1, 499903, Note_off_c, 0, 60, 38
1, 499906, Note_on_c, 0, 67, 52
1, 499917, Note_off_c, 0, 86, 37
1, 499917, Control_c, 0, 64, 65
1, 499961, Note_off_c, 0, 67, 51
1, 500007, Control_c, 0, 64, 64
1, 500037, Control_c, 0, 64, 64
1, 500051, Control_c, 0, 64, 63
1, 500065, Note_off_c, 0, 84, 65
1, 500066, Control_c, 0, 64, 61
1, 500068, Note_on_c, 0, 53, 51
1, 500071, Note_on_c, 0, 83, 84
1, 500081, Control_c, 0, 64, 54
1, 500095, Control_c, 0, 64, 39
1, 500110, Control_c, 0, 64, 0
1, 500222, Control_c, 0, 64, 34
1, 500235, Note_on_c, 0, 56, 60
1, 500237, Control_c, 0, 64, 45
1, 500246, Note_off_c, 0, 53, 55
1, 500251, Control_c, 0, 64, 53
1, 500266, Control_c, 0, 64, 58
1, 500281, Control_c, 0, 64, 60
1, 500296, Control_c, 0, 64, 61
1, 500310, Control_c, 0, 64, 62
1, 500325, Control_c, 0, 64, 63
1, 500370, Control_c, 0, 64, 63
1, 500387, Note_on_c, 0, 62, 60
1, 500402, Note_off_c, 0, 56, 57
1, 500474, Control_c, 0, 64, 61
1, 500489, Control_c, 0, 64, 56
1, 500500, Note_off_c, 0, 62, 57
1, 500503, Control_c, 0, 64, 49
1, 500518, Control_c, 0, 64, 44
1, 500533, Control_c, 0, 64, 43
1, 500534, Note_on_c, 0, 84, 82
1, 500538, Note_on_c, 0, 51, 58
1, 500548, Control_c, 0, 64, 44
1, 500562, Note_off_c, 0, 83, 59
1, 500563, Control_c, 0, 64, 46
1, 500577, Control_c, 0, 64, 50
1, 500592, Control_c, 0, 64, 55
1, 500607, Control_c, 0, 64, 58
1, 500621, Control_c, 0, 64, 61
1, 500636, Control_c, 0, 64, 64
1, 500651, Control_c, 0, 64, 65
1, 500666, Control_c, 0, 64, 67
1, 500670, Note_off_c, 0, 51, 58
1, 500681, Control_c, 0, 64, 68
1, 500695, Control_c, 0, 64, 69
1, 500699, Note_on_c, 0, 60, 52
1, 500710, Control_c, 0, 64, 70
1, 500711, Note_off_c, 0, 84, 52
1, 500725, Control_c, 0, 64, 71
1, 500766, Note_off_c, 0, 60, 52
1, 500815, Control_c, 0, 64, 70
1, 500829, Note_on_c, 0, 53, 51
1, 500830, Control_c, 0, 64, 70
1, 500838, Note_on_c, 0, 80, 65
1, 500844, Control_c, 0, 64, 69
1, 500859, Control_c, 0, 64, 68
1, 500874, Control_c, 0, 64, 65
1, 500884, Note_off_c, 0, 80, 53
1, 500890, Control_c, 0, 64, 63
1, 500905, Control_c, 0, 64, 60
1, 500919, Control_c, 0, 64, 56
1, 500934, Control_c, 0, 64, 53
1, 500949, Control_c, 0, 64, 49
1, 500971, Control_c, 0, 64, 44
1, 500986, Control_c, 0, 64, 34
1, 501001, Control_c, 0, 64, 0
1, 501017, Note_on_c, 0, 55, 47
1, 501024, Note_on_c, 0, 72, 52
1, 501045, Control_c, 0, 67, 24
1, 501060, Control_c, 0, 67, 30
1, 501075, Control_c, 0, 67, 39
1, 501090, Control_c, 0, 67, 49
1, 501105, Control_c, 0, 67, 60
1, 501114, Note_off_c, 0, 53, 28
1, 501119, Control_c, 0, 67, 68
1, 501134, Control_c, 0, 67, 75
1, 501149, Control_c, 0, 67, 76
1, 501167, Note_off_c, 0, 55, 51
1, 501170, Note_on_c, 0, 60, 52
1, 501179, Control_c, 0, 67, 75
1, 501193, Control_c, 0, 67, 74
1, 501208, Control_c, 0, 67, 74
1, 501223, Control_c, 0, 67, 73
1, 501252, Control_c, 0, 67, 73
1, 501264, Note_off_c, 0, 60, 61
1, 501267, Control_c, 0, 67, 72
1, 501282, Control_c, 0, 67, 71
1, 501297, Control_c, 0, 67, 71
1, 501312, Control_c, 0, 67, 70
1, 501320, Note_on_c, 0, 63, 54
1, 501326, Control_c, 0, 67, 70
1, 501455, Note_off_c, 0, 72, 44
1, 501460, Note_off_c, 0, 63, 47
1, 501474, Note_on_c, 0, 55, 42
1, 501475, Control_c, 0, 67, 69
1, 501476, Note_on_c, 0, 75, 50
1, 501515, Note_on_c, 0, 71, 19
1, 501553, Note_on_c, 0, 74, 53
1, 501574, Note_off_c, 0, 75, 50
1, 501639, Note_on_c, 0, 62, 47
1, 501666, Control_c, 0, 67, 69
1, 501681, Control_c, 0, 67, 68
1, 501696, Control_c, 0, 67, 68
1, 501704, Note_off_c, 0, 71, 42
1, 501711, Control_c, 0, 67, 67
1, 501712, Note_off_c, 0, 55, 36
1, 501734, Control_c, 0, 67, 67
1, 501748, Control_c, 0, 67, 66
1, 501763, Control_c, 0, 67, 66
1, 501764, Note_off_c, 0, 62, 58
1, 501779, Note_off_c, 0, 74, 59
1, 501799, Note_on_c, 0, 65, 52
1, 501808, Control_c, 0, 67, 65
1, 501822, Control_c, 0, 67, 65
1, 501852, Control_c, 0, 67, 64
1, 501866, Control_c, 0, 67, 63
1, 501881, Control_c, 0, 67, 61
1, 501896, Control_c, 0, 67, 56
1, 501911, Control_c, 0, 67, 45
1, 501926, Control_c, 0, 67, 30
1, 501940, Note_off_c, 0, 65, 57
1, 501941, Control_c, 0, 67, 0
1, 501955, Note_on_c, 0, 72, 80
1, 501957, Note_on_c, 0, 60, 54
1, 501959, Note_on_c, 0, 64, 56
1, 502031, Note_on_c, 0, 79, 61
1, 502039, Note_on_c, 0, 81, 59
1, 502043, Note_off_c, 0, 72, 54
1, 502065, Note_off_c, 0, 81, 51
1, 502096, Note_off_c, 0, 79, 66
1, 502102, Note_on_c, 0, 78, 79
1, 502140, Note_off_c, 0, 64, 62
1, 502155, Note_on_c, 0, 79, 75
1, 502160, Note_off_c, 0, 60, 65
1, 502168, Note_off_c, 0, 78, 63
1, 502218, Note_off_c, 0, 79, 66
1, 502224, Note_on_c, 0, 81, 76
1, 502294, Note_on_c, 0, 79, 73
1, 502311, Note_off_c, 0, 81, 62
1, 502342, Note_on_c, 0, 62, 85
1, 502361, Note_off_c, 0, 79, 66
1, 502370, Note_on_c, 0, 77, 70
1, 502381, Note_off_c, 0, 62, 61
1, 502421, Note_off_c, 0, 77, 63
1, 502446, Note_on_c, 0, 79, 71
1, 502506, Note_off_c, 0, 79, 62
1, 502519, Note_on_c, 0, 59, 64
1, 502522, Note_on_c, 0, 77, 70
1, 502545, Note_off_c, 0, 59, 68
1, 502548, Note_on_c, 0, 60, 35
1, 502569, Note_off_c, 0, 77, 62
1, 502581, Note_off_c, 0, 60, 35
1, 502590, Note_on_c, 0, 79, 77
1, 502646, Note_off_c, 0, 79, 65
1, 502659, Note_on_c, 0, 77, 73
1, 502662, Note_on_c, 0, 55, 69
1, 502689, Note_off_c, 0, 55, 67
1, 502724, Note_off_c, 0, 77, 61
1, 502727, Note_on_c, 0, 79, 82
1, 502786, Note_off_c, 0, 79, 65
1, 502806, Note_on_c, 0, 60, 83
1, 502813, Note_on_c, 0, 76, 77
1, 502886, Note_on_c, 0, 79, 72
1, 502895, Note_off_c, 0, 76, 60
1, 502939, Note_off_c, 0, 79, 65
1, 502956, Note_on_c, 0, 78, 76
1, 503018, Note_on_c, 0, 79, 78
1, 503022, Note_off_c, 0, 78, 63
1, 503050, Note_off_c, 0, 60, 65
1, 503060, Control_c, 0, 67, 22
1, 503075, Control_c, 0, 67, 26
1, 503078, Note_off_c, 0, 79, 63
1, 503088, Note_on_c, 0, 84, 78
1, 503089, Control_c, 0, 67, 31
1, 503104, Control_c, 0, 67, 37
1, 503119, Control_c, 0, 67, 44
1, 503135, Control_c, 0, 67, 49
1, 503150, Control_c, 0, 67, 52
1, 503157, Note_on_c, 0, 79, 64
1, 503164, Control_c, 0, 67, 53
1, 503171, Note_off_c, 0, 84, 53
1, 503195, Control_c, 0, 67, 53
1, 503210, Control_c, 0, 67, 52
1, 503232, Control_c, 0, 67, 52
1, 503237, Note_off_c, 0, 79, 66
1, 503246, Note_on_c, 0, 62, 63
1, 503246, Control_c, 0, 67, 51
1, 503249, Note_on_c, 0, 77, 64
1, 503276, Note_off_c, 0, 62, 65
1, 503276, Control_c, 0, 67, 51
1, 503291, Control_c, 0, 67, 50
1, 503293, Note_off_c, 0, 77, 62
1, 503306, Control_c, 0, 67, 50
1, 503320, Note_on_c, 0, 79, 68
1, 503320, Control_c, 0, 67, 49
1, 503335, Control_c, 0, 67, 49
1, 503365, Control_c, 0, 67, 48
1, 503380, Note_off_c, 0, 79, 63
1, 503397, Note_on_c, 0, 59, 60
1, 503398, Note_on_c, 0, 77, 63
1, 503427, Note_off_c, 0, 59, 67
1, 503445, Note_off_c, 0, 77, 62
1, 503475, Note_on_c, 0, 79, 65
1, 503484, Control_c, 0, 67, 48
1, 503517, Note_off_c, 0, 79, 58
1, 503528, Control_c, 0, 67, 47
1, 503537, Note_on_c, 0, 55, 58
1, 503543, Control_c, 0, 67, 47
1, 503550, Note_on_c, 0, 77, 61
1, 503558, Control_c, 0, 67, 46
1, 503568, Note_off_c, 0, 55, 65
1, 503572, Control_c, 0, 67, 46
1, 503601, Note_off_c, 0, 77, 60
1, 503602, Control_c, 0, 67, 45
1, 503617, Control_c, 0, 67, 45
1, 503618, Note_on_c, 0, 79, 72
1, 503632, Control_c, 0, 67, 44
1, 503646, Control_c, 0, 67, 44
1, 503651, Note_off_c, 0, 79, 63
1, 503661, Control_c, 0, 67, 43
1, 503676, Control_c, 0, 67, 42
1, 503690, Note_on_c, 0, 60, 53
1, 503691, Control_c, 0, 67, 40
1, 503693, Note_on_c, 0, 76, 67
1, 503706, Control_c, 0, 67, 36
1, 503720, Control_c, 0, 67, 27
1, 503735, Control_c, 0, 67, 0
1, 503756, Note_on_c, 0, 79, 75
1, 503771, Note_off_c, 0, 76, 58
1, 503811, Note_off_c, 0, 79, 64
1, 503833, Note_on_c, 0, 78, 71
1, 503890, Note_on_c, 0, 79, 73
1, 503893, Note_off_c, 0, 78, 62
1, 503913, Note_off_c, 0, 60, 64
1, 503948, Note_off_c, 0, 79, 64
1, 503967, Note_on_c, 0, 84, 77
1, 504033, Note_on_c, 0, 79, 72
1, 504052, Note_off_c, 0, 84, 56
1, 504101, Note_off_c, 0, 79, 66
1, 504104, Note_on_c, 0, 62, 87
1, 504108, Note_on_c, 0, 77, 68
1, 504147, Note_off_c, 0, 62, 61
1, 504160, Note_off_c, 0, 77, 65
1, 504181, Note_on_c, 0, 79, 78
1, 504240, Note_off_c, 0, 79, 64
1, 504259, Note_on_c, 0, 77, 71
1, 504268, Note_on_c, 0, 59, 73
1, 504292, Note_off_c, 0, 59, 68
1, 504307, Note_off_c, 0, 77, 62
1, 504329, Note_on_c, 0, 79, 78
1, 504391, Note_off_c, 0, 79, 63
1, 504403, Note_on_c, 0, 77, 73
1, 504405, Note_on_c, 0, 55, 68
1, 504432, Note_off_c, 0, 55, 67
1, 504473, Note_off_c, 0, 77, 62
1, 504474, Note_on_c, 0, 79, 77
1, 504533, Note_off_c, 0, 79, 65
1, 504546, Note_on_c, 0, 60, 89
1, 504560, Note_on_c, 0, 76, 78
1, 504626, Note_off_c, 0, 76, 55
1, 504632, Note_on_c, 0, 79, 74
1, 504690, Note_off_c, 0, 79, 63
1, 504701, Note_on_c, 0, 84, 74
1, 504763, Note_on_c, 0, 76, 76
1, 504795, Note_off_c, 0, 84, 59
1, 504826, Note_off_c, 0, 76, 64
1, 504840, Note_on_c, 0, 74, 75
1, 504903, Note_off_c, 0, 74, 61
1, 504905, Note_on_c, 0, 83, 74
1, 504969, Note_off_c, 0, 83, 64
1, 504979, Note_on_c, 0, 72, 78
1, 504999, Note_off_c, 0, 60, 59
1, 505039, Note_off_c, 0, 72, 61
1, 505046, Note_on_c, 0, 81, 76
1, 505109, Note_off_c, 0, 81, 64
1, 505126, Note_on_c, 0, 71, 76
1, 505186, Note_off_c, 0, 71, 63
1, 505190, Note_on_c, 0, 79, 81
1, 505252, Note_off_c, 0, 79, 67
1, 505272, Note_on_c, 0, 69, 71
1, 505330, Note_on_c, 0, 77, 73
1, 505332, Note_off_c, 0, 69, 63
1, 505398, Note_off_c, 0, 77, 65
1, 505411, Note_on_c, 0, 67, 76
1, 505485, Note_on_c, 0, 76, 77
1, 505485, Note_off_c, 0, 67, 63
1, 505547, Note_off_c, 0, 76, 64
1, 505566, Note_on_c, 0, 65, 75
1, 505623, Note_off_c, 0, 65, 63
1, 505628, Note_on_c, 0, 74, 78
1, 505696, Note_off_c, 0, 74, 64
1, 505709, Note_on_c, 0, 64, 70
1, 505770, Note_off_c, 0, 64, 62
1, 505773, Note_on_c, 0, 72, 75
1, 505836, Note_off_c, 0, 72, 63
1, 505855, Note_on_c, 0, 62, 72
1, 505914, Note_off_c, 0, 62, 62
1, 505917, Note_on_c, 0, 71, 75
1, 505975, Note_off_c, 0, 71, 65
1, 505994, Note_on_c, 0, 60, 73
1, 506049, Note_off_c, 0, 60, 63
1, 506062, Note_on_c, 0, 69, 63
1, 506112, Note_off_c, 0, 69, 62
1, 506139, Note_on_c, 0, 59, 65
1, 506180, Note_off_c, 0, 59, 61
1, 506203, Note_on_c, 0, 67, 60
1, 506311, Note_on_c, 0, 66, 69
1, 506336, Note_on_c, 0, 57, 48
1, 506347, Note_off_c, 0, 67, 55
1, 506494, Note_on_c, 0, 45, 49
1, 506627, Note_off_c, 0, 57, 60
1, 506652, Note_on_c, 0, 48, 65
1, 506762, Note_off_c, 0, 45, 56
1, 506809, Note_on_c, 0, 51, 59
1, 506812, Note_on_c, 0, 65, 56
1, 506826, Note_on_c, 0, 56, 46
1, 506862, Note_off_c, 0, 48, 59
1, 506868, Note_off_c, 0, 66, 60
1, 506906, Note_off_c, 0, 56, 55
1, 506984, Note_on_c, 0, 50, 60
1, 507030, Note_off_c, 0, 51, 61
1, 507032, Note_off_c, 0, 65, 54
1, 507153, Note_on_c, 0, 48, 64
1, 507208, Note_off_c, 0, 50, 36
1, 507294, Note_on_c, 0, 77, 73
1, 507297, Note_on_c, 0, 68, 62
1, 507327, Note_off_c, 0, 48, 61
1, 507453, Note_on_c, 0, 47, 62
1, 507600, Note_on_c, 0, 50, 72
1, 507647, Note_off_c, 0, 47, 62
1, 507682, Note_off_c, 0, 77, 39
1, 507756, Note_on_c, 0, 56, 71
1, 507778, Note_on_c, 0, 62, 49
1, 507778, Note_on_c, 0, 71, 58
1, 507798, Note_off_c, 0, 68, 57
1, 507800, Note_off_c, 0, 50, 57
1, 507893, Note_off_c, 0, 62, 56
1, 507913, Note_on_c, 0, 55, 60
1, 507913, Note_off_c, 0, 56, 59
1, 507962, Note_off_c, 0, 71, 60
1, 508069, Note_on_c, 0, 53, 66
1, 508091, Note_off_c, 0, 55, 60
1, 508224, Note_off_c, 0, 53, 62
1, 508230, Note_on_c, 0, 52, 69
1, 508324, Note_off_c, 0, 52, 63
1, 508391, Note_on_c, 0, 79, 72
1, 508418, Note_off_c, 0, 79, 69
1, 508547, Note_on_c, 0, 79, 71
1, 508579, Note_off_c, 0, 79, 64
1, 508704, Note_on_c, 0, 53, 59
1, 508811, Note_off_c, 0, 53, 62
1, 508856, Note_on_c, 0, 81, 76
1, 508887, Note_off_c, 0, 81, 62
1, 508998, Note_on_c, 0, 81, 77
1, 509029, Note_off_c, 0, 81, 64
1, 509181, Note_on_c, 0, 72, 66
1, 509184, Note_on_c, 0, 64, 39
1, 509191, Note_on_c, 0, 55, 42
1, 509208, Note_on_c, 0, 67, 41
1, 509414, Control_c, 0, 64, 31
1, 509429, Control_c, 0, 64, 46
1, 509444, Control_c, 0, 64, 56
1, 509458, Control_c, 0, 64, 61
1, 509473, Control_c, 0, 64, 63
1, 509478, Note_off_c, 0, 64, 51
1, 509488, Control_c, 0, 64, 65
1, 509503, Control_c, 0, 64, 67
1, 509518, Control_c, 0, 64, 69
1, 509533, Control_c, 0, 64, 70
1, 509548, Control_c, 0, 64, 70
1, 509553, Note_off_c, 0, 67, 30
1, 509652, Control_c, 0, 64, 70
1, 509657, Note_off_c, 0, 55, 0
1, 509667, Control_c, 0, 64, 68
1, 509679, Note_off_c, 0, 72, 25
1, 509682, Note_on_c, 0, 76, 54
1, 509682, Control_c, 0, 64, 65
1, 509694, Poly_aftertouch_c, 0, 55, 127
1, 509697, Control_c, 0, 64, 61
1, 509697, Note_on_c, 0, 65, 36
1, 509701, Note_on_c, 0, 71, 39
1, 509712, Control_c, 0, 64, 55
1, 509726, Control_c, 0, 64, 46
1, 509741, Control_c, 0, 64, 36
1, 509756, Control_c, 0, 64, 0
1, 509763, Note_on_c, 0, 74, 54
1, 509783, Note_off_c, 0, 76, 40
1, 509845, Control_c, 0, 64, 35
1, 509860, Control_c, 0, 64, 46
1, 509875, Control_c, 0, 64, 56
1, 509889, Control_c, 0, 64, 62
1, 509904, Control_c, 0, 64, 66
1, 509919, Control_c, 0, 64, 69
1, 509920, Note_off_c, 0, 71, 44
1, 509933, Control_c, 0, 64, 72
1, 509939, Poly_aftertouch_c, 0, 55, 0
1, 509948, Control_c, 0, 64, 75
1, 509959, Note_off_c, 0, 74, 61
1, 509971, Control_c, 0, 64, 77
1, 509986, Control_c, 0, 64, 78
1, 510001, Control_c, 0, 64, 79
1, 510027, Note_off_c, 0, 65, 56
1, 510104, Control_c, 0, 64, 78
1, 510119, Control_c, 0, 64, 77
1, 510133, Control_c, 0, 64, 70
1, 510148, Control_c, 0, 64, 57
1, 510159, Note_on_c, 0, 72, 82
1, 510161, Note_on_c, 0, 60, 52
1, 510162, Note_on_c, 0, 64, 48
1, 510163, Control_c, 0, 64, 0
1, 510231, Note_on_c, 0, 79, 80
1, 510251, Note_off_c, 0, 72, 57
1, 510302, Note_off_c, 0, 79, 64
1, 510308, Note_on_c, 0, 78, 80
1, 510339, Note_off_c, 0, 64, 57
1, 510367, Note_on_c, 0, 79, 82
1, 510380, Note_off_c, 0, 78, 63
1, 510394, Note_off_c, 0, 60, 65
1, 510439, Note_off_c, 0, 79, 66
1, 510440, Note_on_c, 0, 81, 80
1, 510513, Note_on_c, 0, 79, 77
1, 510541, Note_off_c, 0, 81, 62
1, 510588, Note_off_c, 0, 79, 66
1, 510589, Note_on_c, 0, 62, 84
1, 510593, Note_on_c, 0, 77, 73
1, 510633, Note_off_c, 0, 62, 62
1, 510648, Note_off_c, 0, 77, 65
1, 510665, Note_on_c, 0, 79, 77
1, 510743, Note_off_c, 0, 79, 64
1, 510749, Note_on_c, 0, 59, 88
1, 510754, Note_on_c, 0, 77, 72
1, 510782, Note_off_c, 0, 59, 66
1, 510805, Note_off_c, 0, 77, 63
1, 510823, Note_on_c, 0, 79, 81
1, 510882, Note_on_c, 0, 55, 76
1, 510886, Note_off_c, 0, 79, 63
1, 510906, Note_on_c, 0, 77, 77
1, 510923, Note_off_c, 0, 55, 63
1, 510976, Note_off_c, 0, 77, 63
1, 510980, Note_on_c, 0, 79, 81
1, 511032, Note_off_c, 0, 79, 65
1, 511041, Note_on_c, 0, 60, 82
1, 511057, Note_on_c, 0, 76, 82
1, 511130, Note_on_c, 0, 79, 74
1, 511139, Note_off_c, 0, 76, 60
1, 511164, Control_c, 0, 67, 23
1, 511180, Control_c, 0, 67, 29
1, 511181, Note_off_c, 0, 79, 66
1, 511195, Control_c, 0, 67, 40
1, 511202, Note_on_c, 0, 78, 75
1, 511210, Control_c, 0, 67, 65
1, 511225, Control_c, 0, 67, 93
1, 511240, Control_c, 0, 67, 122
1, 511254, Control_c, 0, 67, 127
1, 511259, Note_off_c, 0, 60, 63
1, 511266, Note_off_c, 0, 78, 63
1, 511269, Note_on_c, 0, 79, 71
1, 511321, Note_off_c, 0, 79, 63
1, 511341, Note_on_c, 0, 84, 67
1, 511406, Note_on_c, 0, 79, 56
1, 511412, Note_off_c, 0, 84, 55
1, 511484, Note_off_c, 0, 79, 65
1, 511491, Note_on_c, 0, 62, 61
1, 511500, Note_on_c, 0, 77, 59
1, 511524, Note_off_c, 0, 62, 64
1, 511543, Note_off_c, 0, 77, 61
1, 511572, Note_on_c, 0, 79, 57
1, 511618, Note_off_c, 0, 79, 62
1, 511641, Note_on_c, 0, 59, 58
1, 511651, Note_on_c, 0, 77, 57
1, 511672, Note_off_c, 0, 59, 65
1, 511683, Note_off_c, 0, 77, 65
1, 511714, Note_on_c, 0, 79, 64
1, 511753, Note_off_c, 0, 79, 63
1, 511783, Note_on_c, 0, 55, 46
1, 511786, Note_on_c, 0, 77, 59
1, 511809, Note_off_c, 0, 55, 60
1, 511840, Note_off_c, 0, 77, 60
1, 511859, Note_on_c, 0, 79, 67
1, 511893, Note_off_c, 0, 79, 65
1, 511928, Control_c, 0, 67, 124
1, 511930, Note_on_c, 0, 60, 53
1, 511935, Note_on_c, 0, 76, 64
1, 511943, Control_c, 0, 67, 113
1, 511958, Control_c, 0, 67, 100
1, 511973, Control_c, 0, 67, 86
1, 511989, Control_c, 0, 67, 72
1, 511999, Note_on_c, 0, 79, 71
1, 512003, Control_c, 0, 67, 61
1, 512005, Note_off_c, 0, 76, 58
1, 512018, Control_c, 0, 67, 51
1, 512033, Control_c, 0, 67, 43
1, 512048, Control_c, 0, 67, 39
1, 512050, Note_off_c, 0, 79, 63
1, 512063, Control_c, 0, 67, 36
1, 512071, Note_on_c, 0, 78, 72
1, 512077, Control_c, 0, 67, 35
1, 512092, Control_c, 0, 67, 33
1, 512107, Control_c, 0, 67, 31
1, 512121, Control_c, 0, 67, 28
1, 512129, Note_on_c, 0, 79, 75
1, 512132, Note_off_c, 0, 78, 63
1, 512151, Control_c, 0, 67, 26
1, 512165, Note_off_c, 0, 60, 64
1, 512192, Note_off_c, 0, 79, 64
1, 512210, Note_on_c, 0, 84, 78
1, 512262, Control_c, 0, 67, 24
1, 512266, Note_on_c, 0, 79, 78
1, 512292, Control_c, 0, 67, 20
1, 512293, Note_off_c, 0, 84, 61
1, 512307, Control_c, 0, 67, 0
1, 512338, Note_off_c, 0, 79, 66
1, 512341, Note_on_c, 0, 62, 86
1, 512345, Note_on_c, 0, 77, 76
1, 512385, Note_off_c, 0, 62, 63
1, 512397, Note_off_c, 0, 77, 65
1, 512415, Note_on_c, 0, 79, 80
1, 512470, Note_off_c, 0, 79, 65
1, 512489, Note_on_c, 0, 77, 75
1, 512492, Note_on_c, 0, 59, 75
1, 512518, Note_off_c, 0, 59, 67
1, 512541, Note_off_c, 0, 77, 65
1, 512559, Note_on_c, 0, 79, 82
1, 512625, Note_off_c, 0, 79, 65
1, 512630, Note_on_c, 0, 55, 58
1, 512636, Note_on_c, 0, 77, 79
1, 512660, Note_off_c, 0, 55, 66
1, 512698, Note_off_c, 0, 77, 61
1, 512708, Note_on_c, 0, 79, 86
1, 512761, Note_off_c, 0, 79, 67
1, 512779, Note_on_c, 0, 60, 82
1, 512787, Note_on_c, 0, 76, 82
1, 512843, Note_off_c, 0, 76, 58
1, 512858, Note_on_c, 0, 79, 74
1, 512920, Note_off_c, 0, 79, 64
1, 512926, Note_on_c, 0, 84, 76
1, 512993, Note_on_c, 0, 76, 77
1, 513013, Note_off_c, 0, 84, 61
1, 513049, Note_off_c, 0, 76, 65
1, 513063, Note_on_c, 0, 74, 76
1, 513128, Note_off_c, 0, 74, 63
1, 513130, Note_on_c, 0, 83, 76
1, 513196, Note_off_c, 0, 83, 64
1, 513198, Note_off_c, 0, 60, 60
1, 513208, Note_on_c, 0, 72, 80
1, 513272, Note_off_c, 0, 72, 59
1, 513280, Note_on_c, 0, 81, 75
1, 513338, Note_off_c, 0, 81, 65
1, 513351, Note_on_c, 0, 71, 80
1, 513415, Note_on_c, 0, 79, 82
1, 513415, Note_off_c, 0, 71, 64
1, 513483, Note_off_c, 0, 79, 65
1, 513495, Note_on_c, 0, 69, 75
1, 513558, Note_on_c, 0, 77, 74
1, 513561, Note_off_c, 0, 69, 63
1, 513626, Note_off_c, 0, 77, 64
1, 513646, Note_on_c, 0, 67, 69
1, 513707, Note_off_c, 0, 67, 61
1, 513709, Note_on_c, 0, 76, 76
1, 513771, Note_off_c, 0, 76, 64
1, 513788, Note_on_c, 0, 65, 76
1, 513852, Note_on_c, 0, 74, 73
1, 513852, Note_off_c, 0, 65, 61
1, 513912, Note_off_c, 0, 74, 64
1, 513930, Note_on_c, 0, 64, 69
1, 513988, Note_off_c, 0, 64, 61
1, 513990, Note_on_c, 0, 72, 71
1, 514053, Note_off_c, 0, 72, 63
1, 514073, Note_on_c, 0, 62, 69
1, 514129, Note_off_c, 0, 62, 61
1, 514137, Note_on_c, 0, 71, 73
1, 514195, Note_off_c, 0, 71, 65
1, 514219, Note_on_c, 0, 60, 68
1, 514270, Note_off_c, 0, 60, 61
1, 514284, Note_on_c, 0, 69, 64
1, 514322, Note_off_c, 0, 69, 64
1, 514363, Note_on_c, 0, 59, 60
1, 514421, Note_on_c, 0, 67, 60
1, 514424, Note_off_c, 0, 59, 62
1, 514544, Note_on_c, 0, 66, 65
1, 514561, Note_on_c, 0, 57, 47
1, 514615, Note_off_c, 0, 67, 37
1, 514727, Note_on_c, 0, 45, 50
1, 514866, Note_off_c, 0, 57, 57
1, 514883, Note_on_c, 0, 48, 60
1, 515041, Note_on_c, 0, 51, 59
1, 515051, Note_off_c, 0, 45, 36
1, 515052, Note_on_c, 0, 65, 60
1, 515073, Note_on_c, 0, 56, 38
1, 515085, Note_off_c, 0, 48, 60
1, 515102, Note_off_c, 0, 66, 57
1, 515162, Note_off_c, 0, 56, 36
1, 515206, Note_on_c, 0, 50, 64
1, 515241, Note_off_c, 0, 51, 59
1, 515278, Note_off_c, 0, 65, 55
1, 515353, Note_on_c, 0, 48, 67
1, 515383, Note_off_c, 0, 50, 60
1, 515526, Note_on_c, 0, 77, 69
1, 515533, Note_on_c, 0, 68, 56
1, 515560, Note_off_c, 0, 48, 59
1, 515684, Note_on_c, 0, 47, 59
1, 515834, Note_on_c, 0, 50, 68
1, 515910, Note_off_c, 0, 47, 58
1, 515997, Note_off_c, 0, 77, 34
1, 516000, Note_on_c, 0, 56, 64
1, 516013, Note_on_c, 0, 71, 63
1, 516020, Note_on_c, 0, 62, 48
1, 516022, Note_off_c, 0, 68, 60
1, 516052, Note_off_c, 0, 50, 59
1, 516136, Note_off_c, 0, 62, 57
1, 516157, Note_off_c, 0, 56, 60
1, 516161, Note_on_c, 0, 55, 60
1, 516218, Note_off_c, 0, 71, 62
1, 516314, Note_on_c, 0, 53, 56
1, 516326, Note_off_c, 0, 55, 60
1, 516460, Note_off_c, 0, 53, 60
1, 516471, Note_on_c, 0, 52, 62
1, 516567, Note_off_c, 0, 52, 62
1, 516633, Note_on_c, 0, 79, 65
1, 516660, Note_off_c, 0, 79, 68
1, 516792, Note_on_c, 0, 79, 60
1, 516821, Note_off_c, 0, 79, 66
1, 516937, Note_on_c, 0, 53, 55
1, 517029, Note_off_c, 0, 53, 62
1, 517094, Note_on_c, 0, 81, 68
1, 517115, Note_off_c, 0, 81, 67
1, 517254, Note_on_c, 0, 81, 69
1, 517280, Note_off_c, 0, 81, 67
1, 517498, Note_on_c, 0, 72, 57
1, 517503, Note_on_c, 0, 64, 36
1, 517506, Note_on_c, 0, 55, 38
1, 517533, Note_on_c, 0, 67, 28
1, 517681, Control_c, 0, 64, 36
1, 517696, Control_c, 0, 64, 49
1, 517711, Control_c, 0, 64, 57
1, 517726, Control_c, 0, 64, 61
1, 517740, Control_c, 0, 64, 63
1, 517755, Control_c, 0, 64, 66
1, 517770, Control_c, 0, 64, 70
1, 517775, Note_off_c, 0, 64, 50
1, 517785, Control_c, 0, 64, 75
1, 517799, Control_c, 0, 64, 79
1, 517814, Control_c, 0, 64, 82
1, 517829, Control_c, 0, 64, 82
1, 517882, Note_off_c, 0, 55, 40
1, 517933, Control_c, 0, 64, 81
1, 517948, Control_c, 0, 64, 80
1, 517963, Control_c, 0, 64, 78
1, 517978, Control_c, 0, 64, 76
1, 517992, Control_c, 0, 64, 74
1, 518007, Control_c, 0, 64, 71
1, 518009, Note_on_c, 0, 71, 50
1, 518019, Note_on_c, 0, 62, 35
1, 518022, Control_c, 0, 64, 66
1, 518025, Note_on_c, 0, 53, 27
1, 518034, Note_off_c, 0, 72, 47
1, 518037, Control_c, 0, 64, 59
1, 518052, Control_c, 0, 64, 46
1, 518057, Note_off_c, 0, 67, 44
1, 518066, Control_c, 0, 64, 32
1, 518081, Control_c, 0, 64, 0
1, 518126, Control_c, 0, 64, 31
1, 518140, Control_c, 0, 64, 39
1, 518155, Control_c, 0, 64, 48
1, 518170, Control_c, 0, 64, 56
1, 518185, Control_c, 0, 64, 61
1, 518207, Control_c, 0, 64, 64
1, 518222, Control_c, 0, 64, 67
1, 518237, Control_c, 0, 64, 70
1, 518252, Control_c, 0, 64, 72
1, 518254, Note_off_c, 0, 62, 54
1, 518263, Note_off_c, 0, 53, 40
1, 518266, Note_off_c, 0, 71, 62
1, 518267, Control_c, 0, 64, 74
1, 518281, Control_c, 0, 64, 75
1, 518386, Control_c, 0, 64, 74
1, 518401, Control_c, 0, 64, 74
1, 518416, Control_c, 0, 64, 73
1, 518430, Control_c, 0, 64, 73
1, 518445, Control_c, 0, 64, 72
1, 518460, Control_c, 0, 64, 69
1, 518475, Control_c, 0, 64, 61
1, 518490, Control_c, 0, 64, 0
1, 518558, Note_on_c, 0, 52, 59
1, 518563, Note_on_c, 0, 78, 83
1, 518646, Note_off_c, 0, 78, 62
1, 518648, Note_on_c, 0, 79, 86
1, 518711, Note_off_c, 0, 79, 64
1, 518717, Note_on_c, 0, 55, 54
1, 518721, Note_on_c, 0, 78, 82
1, 518773, Note_off_c, 0, 78, 65
1, 518785, Note_on_c, 0, 79, 83
1, 518790, Note_off_c, 0, 52, 47
1, 518840, Note_off_c, 0, 55, 60
1, 518853, Note_on_c, 0, 60, 50
1, 518860, Note_on_c, 0, 78, 80
1, 518872, Note_off_c, 0, 79, 63
1, 518899, Note_off_c, 0, 78, 67
1, 518911, Note_on_c, 0, 79, 79
1, 519003, Note_on_c, 0, 80, 88
1, 519005, Note_on_c, 0, 53, 66
1, 519008, Note_off_c, 0, 60, 31
1, 519027, Note_off_c, 0, 79, 62
1, 519074, Note_off_c, 0, 80, 62
1, 519077, Note_on_c, 0, 81, 88
1, 519135, Note_off_c, 0, 81, 63
1, 519144, Note_on_c, 0, 80, 84
1, 519145, Note_on_c, 0, 57, 65
1, 519152, Note_off_c, 0, 53, 59
1, 519207, Note_on_c, 0, 81, 86
1, 519218, Note_off_c, 0, 57, 62
1, 519228, Note_off_c, 0, 80, 60
1, 519250, Note_on_c, 0, 62, 60
1, 519274, Note_on_c, 0, 83, 78
1, 519322, Note_off_c, 0, 81, 61
1, 519344, Note_on_c, 0, 84, 81
1, 519374, Note_off_c, 0, 83, 64
1, 519379, Note_off_c, 0, 62, 49
1, 519419, Note_on_c, 0, 72, 85
1, 519426, Note_on_c, 0, 55, 55
1, 519434, Note_off_c, 0, 84, 65
1, 519520, Control_c, 0, 64, 40
1, 519535, Control_c, 0, 64, 54
1, 519550, Control_c, 0, 64, 61
1, 519564, Control_c, 0, 64, 64
1, 519577, Note_on_c, 0, 60, 64
1, 519579, Control_c, 0, 64, 66
1, 519594, Control_c, 0, 64, 67
1, 519595, Note_off_c, 0, 55, 54
1, 519608, Control_c, 0, 64, 68
1, 519623, Control_c, 0, 64, 69
1, 519666, Note_off_c, 0, 72, 60
1, 519695, Note_off_c, 0, 60, 63
1, 519717, Note_on_c, 0, 64, 63
1, 519749, Control_c, 0, 64, 69
1, 519763, Control_c, 0, 64, 68
1, 519778, Control_c, 0, 64, 68
1, 519793, Control_c, 0, 64, 67
1, 519808, Control_c, 0, 64, 67
1, 519823, Control_c, 0, 64, 66
1, 519838, Control_c, 0, 64, 65
1, 519853, Control_c, 0, 64, 63
1, 519867, Control_c, 0, 64, 59
1, 519874, Note_on_c, 0, 55, 58
1, 519875, Note_off_c, 0, 64, 54
1, 519882, Control_c, 0, 64, 47
1, 519884, Note_on_c, 0, 76, 87
1, 519887, Note_on_c, 0, 71, 73
1, 519897, Control_c, 0, 64, 0
1, 519951, Note_on_c, 0, 74, 84
1, 519981, Note_off_c, 0, 76, 63
1, 520016, Control_c, 0, 64, 33
1, 520031, Control_c, 0, 64, 47
1, 520038, Note_off_c, 0, 71, 52
1, 520046, Control_c, 0, 64, 57
1, 520056, Note_on_c, 0, 62, 66
1, 520061, Control_c, 0, 64, 61
1, 520076, Control_c, 0, 64, 62
1, 520091, Control_c, 0, 64, 63
1, 520094, Note_off_c, 0, 74, 61
1, 520127, Note_off_c, 0, 55, 39
1, 520175, Note_off_c, 0, 62, 61
1, 520192, Note_on_c, 0, 65, 71
1, 520224, Control_c, 0, 64, 62
1, 520254, Control_c, 0, 64, 62
1, 520264, Note_off_c, 0, 65, 60
1, 520268, Control_c, 0, 64, 61
1, 520270, Note_on_c, 0, 72, 82
1, 520298, Control_c, 0, 64, 61
1, 520300, Note_off_c, 0, 72, 65
1, 520313, Control_c, 0, 64, 57
1, 520328, Control_c, 0, 64, 44
1, 520342, Control_c, 0, 64, 0
1, 520344, Note_on_c, 0, 72, 75
1, 520351, Note_on_c, 0, 64, 62
1, 520353, Note_on_c, 0, 60, 59
1, 520431, Note_on_c, 0, 76, 84
1, 520463, Note_off_c, 0, 72, 56
1, 520488, Note_off_c, 0, 60, 40
1, 520508, Note_off_c, 0, 64, 57
1, 520513, Note_on_c, 0, 79, 86
1, 520530, Note_off_c, 0, 76, 63
1, 520579, Note_off_c, 0, 79, 66
1, 520580, Note_on_c, 0, 84, 81
1, 520645, Note_on_c, 0, 83, 85
1, 520689, Note_off_c, 0, 84, 63
1, 520709, Note_on_c, 0, 81, 83
1, 520741, Note_off_c, 0, 83, 66
1, 520780, Note_on_c, 0, 79, 86
1, 520783, Note_on_c, 0, 65, 74
1, 520788, Note_on_c, 0, 59, 65
1, 520788, Note_off_c, 0, 81, 65
1, 520790, Note_on_c, 0, 55, 68
1, 520831, Note_off_c, 0, 79, 68
1, 520854, Note_on_c, 0, 81, 85
1, 520914, Note_off_c, 0, 65, 55
1, 520921, Note_off_c, 0, 55, 55
1, 520923, Note_on_c, 0, 79, 86
1, 520943, Note_off_c, 0, 81, 61
1, 520954, Note_off_c, 0, 59, 55
1, 520976, Note_off_c, 0, 79, 67
1, 520997, Note_on_c, 0, 77, 77
1, 521039, Note_off_c, 0, 77, 58
1, 521063, Note_on_c, 0, 76, 83
1, 521130, Note_on_c, 0, 74, 79
1, 521179, Note_off_c, 0, 76, 54
1, 521201, Note_off_c, 0, 74, 63
1, 521203, Note_on_c, 0, 60, 75
1, 521203, Note_on_c, 0, 64, 73
1, 521209, Note_on_c, 0, 72, 82
1, 521271, Note_off_c, 0, 72, 62
1, 521291, Note_on_c, 0, 76, 82
1, 521313, Note_off_c, 0, 64, 60
1, 521318, Note_off_c, 0, 60, 62
1, 521359, Note_on_c, 0, 74, 81
1, 521382, Note_off_c, 0, 76, 60
1, 521418, Note_off_c, 0, 74, 64
1, 521426, Note_on_c, 0, 72, 74
1, 521478, Note_off_c, 0, 72, 50
1, 521492, Note_on_c, 0, 71, 79
1, 521558, Note_on_c, 0, 69, 75
1, 521588, Note_off_c, 0, 71, 63
1, 521620, Note_off_c, 0, 69, 64
1, 521623, Note_on_c, 0, 55, 77
1, 521625, Note_on_c, 0, 65, 72
1, 521630, Note_on_c, 0, 59, 65
1, 521633, Note_on_c, 0, 67, 76
1, 521686, Note_off_c, 0, 67, 62
1, 521699, Note_off_c, 0, 65, 63
1, 521716, Note_on_c, 0, 69, 74
1, 521736, Note_off_c, 0, 59, 63
1, 521760, Note_off_c, 0, 55, 63
1, 521789, Note_on_c, 0, 67, 78
1, 521814, Note_off_c, 0, 69, 62
1, 521837, Note_off_c, 0, 67, 66
1, 521856, Note_on_c, 0, 65, 73
1, 521901, Note_off_c, 0, 65, 54
1, 521921, Note_on_c, 0, 64, 73
1, 521997, Note_on_c, 0, 62, 72
1, 522019, Note_off_c, 0, 64, 61
1, 522058, Note_on_c, 0, 48, 73
1, 522059, Note_off_c, 0, 62, 63
1, 522062, Note_on_c, 0, 52, 74
1, 522072, Note_on_c, 0, 60, 71
1, 522130, Note_off_c, 0, 60, 62
1, 522143, Note_on_c, 0, 64, 72
1, 522212, Note_off_c, 0, 48, 60
1, 522219, Note_on_c, 0, 62, 74
1, 522222, Note_off_c, 0, 52, 57
1, 522228, Note_off_c, 0, 64, 61
1, 522267, Note_off_c, 0, 62, 64
1, 522279, Note_on_c, 0, 60, 68
1, 522334, Note_off_c, 0, 60, 60
1, 522345, Note_on_c, 0, 59, 70
1, 522413, Note_on_c, 0, 57, 75
1, 522445, Note_off_c, 0, 59, 62
1, 522472, Note_on_c, 0, 53, 71
1, 522473, Note_off_c, 0, 57, 64
1, 522475, Note_on_c, 0, 43, 70
1, 522477, Note_on_c, 0, 47, 64
1, 522484, Note_on_c, 0, 55, 75
1, 522539, Note_off_c, 0, 55, 60
1, 522543, Note_off_c, 0, 53, 61
1, 522560, Note_on_c, 0, 57, 77
1, 522589, Note_off_c, 0, 47, 65
1, 522611, Note_off_c, 0, 43, 63
1, 522627, Note_on_c, 0, 55, 74
1, 522653, Note_off_c, 0, 57, 62
1, 522687, Note_off_c, 0, 55, 65
1, 522700, Note_on_c, 0, 53, 67
1, 522747, Note_off_c, 0, 53, 58
1, 522771, Note_on_c, 0, 52, 58
1, 522794, Note_on_c, 0, 50, 52
1, 522848, Note_off_c, 0, 52, 63
1, 522899, Note_off_c, 0, 50, 63
1, 522900, Note_on_c, 0, 36, 82
1, 522904, Note_on_c, 0, 48, 80
1, 522930, Note_off_c, 0, 48, 70
1, 522953, Note_off_c, 0, 36, 63
1, 523071, Note_on_c, 0, 40, 74
1, 523074, Note_on_c, 0, 52, 67
1, 523103, Note_off_c, 0, 52, 65
1, 523125, Note_off_c, 0, 40, 61
1, 523210, Note_on_c, 0, 43, 82
1, 523219, Note_on_c, 0, 55, 56
1, 523254, Note_off_c, 0, 55, 63
1, 523263, Note_off_c, 0, 43, 62
1, 523352, Note_on_c, 0, 48, 81
1, 523361, Note_on_c, 0, 60, 58
1, 523395, Note_off_c, 0, 60, 67
1, 523404, Note_off_c, 0, 48, 66
1, 523501, Note_on_c, 0, 52, 78
1, 523509, Note_on_c, 0, 64, 68
1, 523540, Note_off_c, 0, 64, 63
1, 523555, Note_off_c, 0, 52, 64
1, 523631, Note_on_c, 0, 55, 82
1, 523638, Note_on_c, 0, 67, 71
1, 523682, Note_off_c, 0, 67, 63
1, 523695, Note_off_c, 0, 55, 61
1, 523782, Note_on_c, 0, 60, 86
1, 523784, Note_on_c, 0, 72, 83
1, 523895, Note_off_c, 0, 60, 63
1, 523903, Note_off_c, 0, 72, 64
1, 524244, Note_on_c, 0, 60, 77
1, 524244, Note_on_c, 0, 79, 94
1, 524249, Note_on_c, 0, 52, 69
1, 524249, Note_on_c, 0, 72, 80
1, 524249, Note_on_c, 0, 67, 84
1, 524252, Note_on_c, 0, 48, 70
1, 524253, Note_on_c, 0, 76, 84
1, 524255, Note_on_c, 0, 55, 65
1, 524303, Control_c, 0, 64, 54
1, 524317, Control_c, 0, 64, 66
1, 524332, Control_c, 0, 64, 78
1, 524347, Control_c, 0, 64, 105
1, 524348, Note_off_c, 0, 67, 64
1, 524361, Note_off_c, 0, 72, 63
1, 524361, Control_c, 0, 64, 127
1, 524369, Note_off_c, 0, 60, 62
1, 524375, Note_off_c, 0, 48, 61
1, 524381, Note_off_c, 0, 76, 64
1, 524386, Note_off_c, 0, 52, 60
1, 524392, Note_off_c, 0, 79, 65
1, 524398, Note_off_c, 0, 55, 62
1, 524421, Control_c, 0, 64, 89
1, 524435, Control_c, 0, 64, 65
1, 524450, Control_c, 0, 64, 33
1, 524465, Control_c, 0, 64, 0
1, 524750, Note_on_c, 0, 60, 80
1, 524753, Note_on_c, 0, 55, 75
1, 524758, Note_on_c, 0, 48, 78
1, 524759, Note_on_c, 0, 52, 75
1, 524759, Note_on_c, 0, 72, 90
1, 524759, Note_on_c, 0, 76, 87
1, 524759, Note_on_c, 0, 84, 97
1, 524761, Note_on_c, 0, 79, 76
1, 524807, Control_c, 0, 64, 39
1, 524822, Control_c, 0, 64, 50
1, 524837, Control_c, 0, 64, 56
1, 524852, Control_c, 0, 64, 59
1, 524866, Control_c, 0, 64, 61
1, 524881, Control_c, 0, 64, 62
1, 524896, Control_c, 0, 64, 64
1, 524910, Control_c, 0, 64, 66
1, 524925, Control_c, 0, 64, 69
1, 524947, Control_c, 0, 64, 72
1, 524962, Control_c, 0, 64, 75
1, 524965, Note_off_c, 0, 84, 65
1, 524977, Control_c, 0, 64, 76
1, 524990, Note_off_c, 0, 79, 64
1, 524996, Note_off_c, 0, 76, 64
1, 525015, Note_off_c, 0, 72, 63
1, 525021, Control_c, 0, 64, 76
1, 525027, Note_off_c, 0, 55, 62
1, 525031, Note_off_c, 0, 52, 62
1, 525036, Control_c, 0, 64, 75
1, 525039, Note_off_c, 0, 60, 63
1, 525046, Note_off_c, 0, 48, 62
1, 525051, Control_c, 0, 64, 73
1, 525066, Control_c, 0, 64, 70
1, 525081, Control_c, 0, 64, 67
1, 525096, Control_c, 0, 64, 63
1, 525110, Control_c, 0, 64, 56
1, 525125, Control_c, 0, 64, 50
1, 525140, Control_c, 0, 64, 47
1, 525184, Control_c, 0, 64, 46
1, 525199, Control_c, 0, 64, 43
1, 525214, Control_c, 0, 64, 33
1, 525229, Control_c, 0, 64, 0
1, 525722, Note_on_c, 0, 43, 76
1, 525722, Note_on_c, 0, 48, 94
1, 525728, Note_on_c, 0, 39, 80
1, 525728, Note_on_c, 0, 36, 82
1, 525856, Note_on_c, 0, 79, 93
1, 525953, Note_on_c, 0, 78, 85
1, 525957, Note_off_c, 0, 79, 67
1, 526032, Note_on_c, 0, 79, 90
1, 526038, Note_off_c, 0, 78, 64
1, 526100, Note_off_c, 0, 79, 67
1, 526103, Note_on_c, 0, 84, 82
1, 526179, Note_on_c, 0, 79, 74
1, 526187, Note_on_c, 0, 81, 68
1, 526199, Note_off_c, 0, 84, 62
1, 526204, Note_off_c, 0, 81, 65
1, 526229, Note_off_c, 0, 79, 65
1, 526248, Note_on_c, 0, 77, 77
1, 526285, Note_off_c, 0, 77, 62
1, 526310, Note_off_c, 0, 36, 61
1, 526312, Note_off_c, 0, 48, 60
1, 526312, Note_on_c, 0, 75, 77
1, 526322, Note_off_c, 0, 43, 64
1, 526330, Note_off_c, 0, 39, 62
1, 526383, Note_on_c, 0, 74, 87
1, 526387, Note_off_c, 0, 75, 64
1, 526466, Note_on_c, 0, 75, 79
1, 526474, Note_off_c, 0, 74, 59
1, 526518, Note_off_c, 0, 75, 64
1, 526519, Note_on_c, 0, 79, 84
1, 526587, Note_on_c, 0, 75, 76
1, 526619, Note_off_c, 0, 79, 62
1, 526651, Note_on_c, 0, 74, 78
1, 526679, Note_off_c, 0, 75, 63
1, 526709, Note_off_c, 0, 74, 64
1, 526721, Note_on_c, 0, 72, 75
1, 526783, Note_off_c, 0, 72, 39
1, 526789, Note_on_c, 0, 71, 74
1, 526845, Note_on_c, 0, 72, 67
1, 526847, Note_off_c, 0, 71, 63
1, 526899, Note_off_c, 0, 72, 64
1, 526914, Note_on_c, 0, 75, 72
1, 526973, Note_on_c, 0, 72, 71
1, 526992, Note_off_c, 0, 75, 62
1, 527024, Control_c, 0, 64, 29
1, 527038, Control_c, 0, 64, 31
1, 527050, Note_on_c, 0, 68, 72
1, 527053, Control_c, 0, 64, 35
1, 527068, Control_c, 0, 64, 37
1, 527076, Note_off_c, 0, 72, 63
1, 527082, Control_c, 0, 64, 39
1, 527097, Control_c, 0, 64, 40
1, 527101, Note_off_c, 0, 68, 66
1, 527112, Control_c, 0, 64, 41
1, 527114, Note_on_c, 0, 67, 71
1, 527127, Control_c, 0, 64, 42
1, 527142, Control_c, 0, 64, 43
1, 527158, Control_c, 0, 64, 44
1, 527165, Note_off_c, 0, 67, 48
1, 527191, Note_on_c, 0, 66, 74
1, 527194, Control_c, 0, 64, 45
1, 527209, Control_c, 0, 64, 45
1, 527224, Control_c, 0, 64, 46
1, 527239, Control_c, 0, 64, 47
1, 527261, Note_off_c, 0, 66, 61
1, 527264, Note_on_c, 0, 67, 71
1, 527269, Control_c, 0, 64, 46
1, 527284, Control_c, 0, 64, 45
1, 527299, Control_c, 0, 64, 43
1, 527313, Control_c, 0, 64, 42
1, 527315, Note_off_c, 0, 67, 61
1, 527328, Control_c, 0, 64, 40
1, 527331, Note_on_c, 0, 72, 58
1, 527343, Control_c, 0, 64, 38
1, 527358, Control_c, 0, 64, 37
1, 527386, Note_on_c, 0, 67, 61
1, 527388, Note_off_c, 0, 72, 59
1, 527417, Control_c, 0, 64, 37
1, 527442, Note_off_c, 0, 67, 65
1, 527461, Control_c, 0, 64, 36
1, 527461, Control_c, 0, 67, 24
1, 527468, Note_on_c, 0, 65, 69
1, 527476, Control_c, 0, 64, 30
1, 527476, Control_c, 0, 67, 30
1, 527491, Control_c, 0, 64, 0
1, 527491, Control_c, 0, 67, 35
1, 527505, Control_c, 0, 67, 37
1, 527513, Note_off_c, 0, 65, 57
1, 527535, Control_c, 0, 67, 38
1, 527540, Note_on_c, 0, 63, 55
1, 527550, Control_c, 0, 67, 45
1, 527565, Control_c, 0, 67, 62
1, 527579, Control_c, 0, 67, 82
1, 527594, Control_c, 0, 67, 97
1, 527606, Note_off_c, 0, 63, 63
1, 527608, Note_on_c, 0, 62, 62
1, 527609, Control_c, 0, 67, 106
1, 527624, Control_c, 0, 67, 108
1, 527679, Note_off_c, 0, 62, 61
1, 527689, Note_on_c, 0, 63, 55
1, 527729, Note_off_c, 0, 63, 64
1, 527762, Note_on_c, 0, 67, 54
1, 527823, Note_off_c, 0, 67, 57
1, 527828, Note_on_c, 0, 63, 61
1, 527877, Note_off_c, 0, 63, 61
1, 527902, Note_on_c, 0, 51, 59
1, 527910, Note_on_c, 0, 60, 62
1, 527939, Note_off_c, 0, 51, 65
1, 527960, Note_off_c, 0, 60, 65
1, 527973, Control_c, 0, 67, 106
1, 527993, Note_on_c, 0, 72, 59
1, 528034, Note_off_c, 0, 72, 64
1, 528048, Note_on_c, 0, 50, 57
1, 528072, Note_on_c, 0, 59, 51
1, 528083, Note_off_c, 0, 50, 64
1, 528100, Note_off_c, 0, 59, 61
1, 528142, Note_on_c, 0, 72, 55
1, 528178, Note_off_c, 0, 72, 65
1, 528203, Note_on_c, 0, 51, 52
1, 528210, Note_on_c, 0, 60, 61
1, 528236, Note_off_c, 0, 51, 64
1, 528246, Note_off_c, 0, 60, 61
1, 528277, Note_on_c, 0, 72, 61
1, 528317, Note_off_c, 0, 72, 60
1, 528344, Note_on_c, 0, 53, 56
1, 528354, Note_on_c, 0, 62, 65
1, 528379, Note_off_c, 0, 53, 64
1, 528391, Note_off_c, 0, 62, 60
1, 528417, Note_on_c, 0, 72, 58
1, 528469, Note_off_c, 0, 72, 62
1, 528494, Note_on_c, 0, 60, 66
1, 528501, Note_on_c, 0, 51, 51
1, 528528, Note_off_c, 0, 60, 62
1, 528536, Note_off_c, 0, 51, 64
1, 528548, Note_on_c, 0, 72, 58
1, 528612, Note_off_c, 0, 72, 63
1, 528627, Note_on_c, 0, 53, 62
1, 528634, Note_on_c, 0, 62, 71
1, 528667, Note_off_c, 0, 53, 64
1, 528670, Note_off_c, 0, 62, 63
1, 528704, Note_on_c, 0, 72, 62
1, 528768, Note_off_c, 0, 72, 63
1, 528780, Note_on_c, 0, 55, 61
1, 528784, Note_on_c, 0, 64, 71
1, 528812, Note_off_c, 0, 55, 65
1, 528825, Note_off_c, 0, 64, 63
1, 528845, Note_on_c, 0, 72, 63
1, 528909, Note_off_c, 0, 72, 65
1, 528920, Note_on_c, 0, 53, 64
1, 528925, Note_on_c, 0, 62, 71
1, 528959, Note_off_c, 0, 53, 64
1, 528962, Note_off_c, 0, 62, 64
1, 528982, Note_on_c, 0, 72, 68
1, 529046, Note_off_c, 0, 72, 63
1, 529061, Note_on_c, 0, 64, 71
1, 529064, Note_on_c, 0, 55, 61
1, 529098, Note_off_c, 0, 55, 65
1, 529122, Note_off_c, 0, 64, 59
1, 529124, Note_on_c, 0, 72, 60
1, 529214, Note_off_c, 0, 72, 54
1, 529220, Note_on_c, 0, 56, 74
1, 529230, Note_on_c, 0, 65, 57
1, 529255, Control_c, 0, 67, 104
1, 529283, Note_off_c, 0, 65, 57
1, 529284, Control_c, 0, 64, 30
1, 529299, Control_c, 0, 64, 39
1, 529314, Note_on_c, 0, 72, 66
1, 529314, Control_c, 0, 64, 49
1, 529329, Control_c, 0, 64, 55
1, 529344, Control_c, 0, 64, 60
1, 529359, Control_c, 0, 64, 63
1, 529368, Note_off_c, 0, 72, 59
1, 529374, Control_c, 0, 64, 65
1, 529387, Note_on_c, 0, 65, 61
1, 529388, Control_c, 0, 64, 68
1, 529403, Control_c, 0, 64, 71
1, 529418, Control_c, 0, 64, 72
1, 529440, Control_c, 0, 64, 73
1, 529455, Note_on_c, 0, 72, 53
1, 529460, Note_off_c, 0, 65, 47
1, 529505, Note_off_c, 0, 72, 62
1, 529529, Control_c, 0, 64, 73
1, 529531, Note_on_c, 0, 63, 69
1, 529540, Note_on_c, 0, 55, 63
1, 529544, Control_c, 0, 64, 72
1, 529555, Note_off_c, 0, 56, 57
1, 529560, Control_c, 0, 64, 71
1, 529575, Control_c, 0, 64, 69
1, 529579, Note_off_c, 0, 55, 62
1, 529589, Control_c, 0, 64, 66
1, 529604, Control_c, 0, 64, 62
1, 529610, Note_on_c, 0, 72, 57
1, 529619, Control_c, 0, 64, 58
1, 529621, Note_off_c, 0, 63, 53
1, 529634, Control_c, 0, 64, 52
1, 529649, Control_c, 0, 64, 46
1, 529649, Control_c, 0, 67, 102
1, 529663, Control_c, 0, 64, 42
1, 529665, Note_off_c, 0, 72, 56
1, 529678, Control_c, 0, 64, 38
1, 529690, Note_on_c, 0, 65, 62
1, 529693, Control_c, 0, 64, 36
1, 529694, Note_on_c, 0, 56, 62
1, 529722, Control_c, 0, 64, 37
1, 529737, Control_c, 0, 64, 39
1, 529752, Control_c, 0, 64, 42
1, 529753, Note_off_c, 0, 65, 58
1, 529763, Note_on_c, 0, 72, 62
1, 529767, Control_c, 0, 64, 46
1, 529782, Control_c, 0, 64, 51
1, 529797, Control_c, 0, 64, 55
1, 529812, Control_c, 0, 64, 58
1, 529816, Note_off_c, 0, 72, 60
1, 529827, Control_c, 0, 64, 61
1, 529841, Note_on_c, 0, 65, 44
1, 529842, Control_c, 0, 64, 62
1, 529856, Control_c, 0, 64, 64
1, 529871, Control_c, 0, 64, 64
1, 529899, Note_on_c, 0, 72, 60
1, 529900, Control_c, 0, 64, 64
1, 529930, Control_c, 0, 64, 63
1, 529940, Note_off_c, 0, 65, 40
1, 529945, Control_c, 0, 64, 63
1, 529965, Note_off_c, 0, 72, 62
1, 529973, Note_on_c, 0, 55, 52
1, 529974, Control_c, 0, 64, 62
1, 529979, Note_on_c, 0, 63, 63
1, 529985, Note_off_c, 0, 56, 46
1, 529989, Control_c, 0, 64, 61
1, 530004, Control_c, 0, 64, 59
1, 530018, Control_c, 0, 64, 58
1, 530020, Note_off_c, 0, 55, 59
1, 530033, Control_c, 0, 64, 56
1, 530048, Control_c, 0, 64, 55
1, 530052, Note_off_c, 0, 63, 60
1, 530061, Note_on_c, 0, 72, 54
1, 530063, Control_c, 0, 64, 54
1, 530078, Control_c, 0, 64, 53
1, 530078, Control_c, 0, 67, 100
1, 530091, Control_c, 0, 64, 52
1, 530106, Control_c, 0, 64, 50
1, 530116, Note_off_c, 0, 72, 55
1, 530121, Control_c, 0, 64, 49
1, 530134, Note_on_c, 0, 54, 45
1, 530136, Note_on_c, 0, 62, 54
1, 530136, Control_c, 0, 64, 48
1, 530217, Note_on_c, 0, 72, 50
1, 530247, Control_c, 0, 64, 49
1, 530262, Note_off_c, 0, 62, 33
1, 530262, Control_c, 0, 64, 49
1, 530265, Note_off_c, 0, 72, 57
1, 530277, Control_c, 0, 64, 50
1, 530279, Note_on_c, 0, 63, 63
1, 530281, Note_on_c, 0, 55, 50
1, 530287, Note_off_c, 0, 54, 58
1, 530292, Control_c, 0, 64, 50
1, 530306, Control_c, 0, 64, 51
1, 530321, Control_c, 0, 64, 51
1, 530356, Note_on_c, 0, 72, 65
1, 530362, Note_off_c, 0, 63, 61
1, 530381, Control_c, 0, 64, 52
1, 530405, Note_off_c, 0, 55, 44
1, 530417, Note_on_c, 0, 54, 52
1, 530420, Note_off_c, 0, 72, 62
1, 530424, Note_on_c, 0, 62, 71
1, 530477, Note_off_c, 0, 62, 64
1, 530489, Note_on_c, 0, 72, 59
1, 530500, Control_c, 0, 64, 51
1, 530564, Note_on_c, 0, 55, 46
1, 530578, Note_on_c, 0, 63, 69
1, 530578, Note_off_c, 0, 72, 59
1, 530589, Control_c, 0, 64, 51
1, 530603, Note_off_c, 0, 54, 56
1, 530647, Control_c, 0, 64, 50
1, 530672, Note_on_c, 0, 72, 47
1, 530681, Note_off_c, 0, 63, 50
1, 530692, Control_c, 0, 64, 50
1, 530706, Note_off_c, 0, 55, 56
1, 530718, Note_off_c, 0, 72, 60
1, 530732, Note_on_c, 0, 56, 56
1, 530736, Note_on_c, 0, 65, 53
1, 530751, Control_c, 0, 64, 49
1, 530781, Control_c, 0, 64, 48
1, 530795, Control_c, 0, 64, 48
1, 530810, Note_on_c, 0, 72, 54
1, 530810, Control_c, 0, 64, 47
1, 530825, Control_c, 0, 64, 46
1, 530840, Control_c, 0, 64, 45
1, 530851, Note_off_c, 0, 65, 49
1, 530855, Control_c, 0, 64, 43
1, 530861, Note_off_c, 0, 72, 55
1, 530870, Control_c, 0, 64, 42
1, 530872, Note_on_c, 0, 55, 46
1, 530885, Control_c, 0, 64, 41
1, 530887, Note_on_c, 0, 63, 55
1, 530900, Control_c, 0, 64, 40
1, 530906, Note_off_c, 0, 56, 37
1, 530966, Note_on_c, 0, 72, 55
1, 530967, Note_off_c, 0, 63, 57
1, 531020, Note_off_c, 0, 72, 58
1, 531021, Note_off_c, 0, 55, 57
1, 531025, Control_c, 0, 64, 41
1, 531029, Note_on_c, 0, 54, 56
1, 531033, Note_on_c, 0, 62, 69
1, 531040, Control_c, 0, 64, 41
1, 531055, Control_c, 0, 64, 42
1, 531070, Control_c, 0, 64, 42
1, 531085, Control_c, 0, 64, 43
1, 531099, Control_c, 0, 64, 44
1, 531102, Note_on_c, 0, 72, 62
1, 531114, Control_c, 0, 64, 45
1, 531116, Note_off_c, 0, 62, 58
1, 531129, Control_c, 0, 64, 45
1, 531144, Control_c, 0, 64, 46
1, 531163, Note_on_c, 0, 55, 52
1, 531174, Control_c, 0, 64, 46
1, 531177, Note_on_c, 0, 63, 72
1, 531180, Note_off_c, 0, 72, 62
1, 531191, Note_off_c, 0, 54, 54
1, 531240, Note_on_c, 0, 72, 65
1, 531249, Control_c, 0, 64, 47
1, 531252, Note_off_c, 0, 63, 59
1, 531318, Note_on_c, 0, 54, 55
1, 531323, Note_off_c, 0, 55, 38
1, 531324, Note_off_c, 0, 72, 62
1, 531326, Note_on_c, 0, 62, 71
1, 531367, Control_c, 0, 64, 46
1, 531381, Note_off_c, 0, 62, 63
1, 531390, Note_on_c, 0, 72, 59
1, 531475, Note_off_c, 0, 72, 62
1, 531486, Note_on_c, 0, 55, 55
1, 531487, Note_on_c, 0, 63, 65
1, 531510, Note_off_c, 0, 54, 44
1, 531530, Control_c, 0, 64, 46
1, 531544, Control_c, 0, 64, 45
1, 531544, Control_c, 0, 67, 98
1, 531558, Note_off_c, 0, 63, 58
1, 531567, Note_on_c, 0, 72, 61
1, 531574, Control_c, 0, 64, 45
1, 531590, Control_c, 0, 64, 44
1, 531592, Note_off_c, 0, 55, 58
1, 531604, Control_c, 0, 67, 96
1, 531619, Control_c, 0, 64, 44
1, 531619, Control_c, 0, 67, 95
1, 531634, Control_c, 0, 67, 95
1, 531644, Note_on_c, 0, 65, 62
1, 531644, Note_off_c, 0, 72, 59
1, 531649, Control_c, 0, 67, 94
1, 531653, Note_on_c, 0, 56, 49
1, 531671, Control_c, 0, 64, 43
1, 531671, Control_c, 0, 67, 91
1, 531686, Control_c, 0, 67, 86
1, 531701, Control_c, 0, 64, 43
1, 531701, Control_c, 0, 67, 82
1, 531716, Control_c, 0, 64, 42
1, 531716, Control_c, 0, 67, 79
1, 531725, Note_on_c, 0, 72, 61
1, 531727, Note_off_c, 0, 65, 61
1, 531731, Control_c, 0, 67, 77
1, 531745, Note_off_c, 0, 56, 58
1, 531746, Control_c, 0, 64, 42
1, 531746, Control_c, 0, 67, 76
1, 531760, Control_c, 0, 64, 41
1, 531760, Control_c, 0, 67, 75
1, 531769, Note_on_c, 0, 55, 55
1, 531775, Control_c, 0, 67, 74
1, 531790, Control_c, 0, 67, 72
1, 531793, Note_off_c, 0, 72, 62
1, 531804, Note_on_c, 0, 63, 60
1, 531804, Control_c, 0, 67, 70
1, 531810, Note_off_c, 0, 55, 60
1, 531819, Control_c, 0, 67, 68
1, 531834, Control_c, 0, 67, 67
1, 531849, Control_c, 0, 64, 41
1, 531849, Control_c, 0, 67, 65
1, 531864, Control_c, 0, 64, 39
1, 531864, Control_c, 0, 67, 63
1, 531868, Note_on_c, 0, 72, 58
1, 531875, Note_off_c, 0, 63, 61
1, 531878, Control_c, 0, 64, 31
1, 531878, Control_c, 0, 67, 61
1, 531893, Control_c, 0, 64, 0
1, 531893, Control_c, 0, 67, 58
1, 531908, Control_c, 0, 67, 54
1, 531923, Control_c, 0, 67, 49
1, 531938, Control_c, 0, 67, 40
1, 531940, Note_off_c, 0, 72, 58
1, 531954, Control_c, 0, 67, 25
1, 531955, Note_on_c, 0, 62, 60
1, 531968, Control_c, 0, 67, 0
1, 532009, Note_on_c, 0, 54, 55
1, 532072, Control_c, 0, 64, 45
1, 532087, Control_c, 0, 64, 57
1, 532095, Note_on_c, 0, 57, 66
1, 532101, Control_c, 0, 64, 61
1, 532110, Note_off_c, 0, 62, 55
1, 532116, Control_c, 0, 64, 63
1, 532131, Control_c, 0, 64, 64
1, 532138, Note_off_c, 0, 54, 58
1, 532146, Control_c, 0, 64, 64
1, 532161, Control_c, 0, 64, 65
1, 532170, Note_on_c, 0, 60, 64
1, 532176, Control_c, 0, 64, 66
1, 532188, Note_off_c, 0, 57, 62
1, 532205, Control_c, 0, 64, 67
1, 532235, Control_c, 0, 64, 67
1, 532236, Note_on_c, 0, 62, 70
1, 532241, Note_off_c, 0, 60, 65
1, 532300, Note_off_c, 0, 62, 63
1, 532304, Note_on_c, 0, 66, 76
1, 532309, Control_c, 0, 64, 66
1, 532324, Control_c, 0, 64, 61
1, 532339, Control_c, 0, 64, 53
1, 532354, Control_c, 0, 64, 43
1, 532368, Control_c, 0, 64, 36
1, 532378, Note_on_c, 0, 72, 85
1, 532383, Control_c, 0, 64, 38
1, 532396, Note_off_c, 0, 66, 62
1, 532398, Control_c, 0, 64, 42
1, 532413, Control_c, 0, 64, 48
1, 532435, Control_c, 0, 64, 55
1, 532450, Control_c, 0, 64, 59
1, 532465, Control_c, 0, 64, 62
1, 532480, Control_c, 0, 64, 65
1, 532481, Note_on_c, 0, 62, 63
1, 532487, Note_on_c, 0, 64, 69
1, 532489, Note_off_c, 0, 72, 60
1, 532495, Control_c, 0, 64, 66
1, 532509, Control_c, 0, 64, 66
1, 532545, Note_on_c, 0, 66, 70
1, 532584, Note_off_c, 0, 64, 58
1, 532587, Note_off_c, 0, 62, 57
1, 532609, Note_on_c, 0, 69, 76
1, 532641, Note_off_c, 0, 66, 62
1, 532670, Note_on_c, 0, 72, 79
1, 532685, Note_off_c, 0, 69, 61
1, 532701, Control_c, 0, 64, 66
1, 532731, Control_c, 0, 64, 65
1, 532732, Note_on_c, 0, 78, 82
1, 532742, Note_off_c, 0, 72, 62
1, 532747, Control_c, 0, 64, 65
1, 532762, Control_c, 0, 64, 64
1, 532777, Control_c, 0, 64, 63
1, 532806, Control_c, 0, 64, 63
1, 532815, Note_on_c, 0, 84, 84
1, 532821, Control_c, 0, 64, 62
1, 532827, Note_off_c, 0, 78, 65
1, 532836, Control_c, 0, 64, 61
1, 532850, Control_c, 0, 64, 57
1, 532865, Control_c, 0, 64, 49
1, 532880, Control_c, 0, 64, 34
1, 532895, Control_c, 0, 64, 0
1, 532900, Note_on_c, 0, 82, 80
1, 532944, Note_off_c, 0, 84, 59
1, 532979, Note_on_c, 0, 81, 81
1, 533007, Note_off_c, 0, 82, 63
1, 533038, Note_off_c, 0, 81, 64
1, 533048, Note_on_c, 0, 79, 83
1, 533114, Note_off_c, 0, 79, 54
1, 533116, Note_on_c, 0, 78, 79
1, 533190, Note_off_c, 0, 78, 62
1, 533201, Note_on_c, 0, 79, 62
1, 533259, Note_on_c, 0, 78, 75
1, 533265, Note_off_c, 0, 79, 67
1, 533317, Note_off_c, 0, 78, 60
1, 533348, Note_on_c, 0, 79, 58
1, 533403, Note_on_c, 0, 78, 63
1, 533422, Note_off_c, 0, 79, 64
1, 533436, Control_c, 0, 67, 20
1, 533450, Control_c, 0, 67, 27
1, 533465, Control_c, 0, 67, 38
1, 533480, Control_c, 0, 67, 53
1, 533484, Note_on_c, 0, 75, 56
1, 533495, Control_c, 0, 67, 68
1, 533502, Note_off_c, 0, 78, 62
1, 533510, Control_c, 0, 67, 80
1, 533524, Control_c, 0, 67, 86
1, 533525, Note_off_c, 0, 75, 62
1, 533553, Note_on_c, 0, 74, 58
1, 533570, Control_c, 0, 67, 85
1, 533585, Control_c, 0, 67, 84
1, 533587, Note_off_c, 0, 74, 64
1, 533600, Control_c, 0, 67, 84
1, 533614, Control_c, 0, 67, 83
1, 533627, Note_on_c, 0, 72, 52
1, 533629, Control_c, 0, 67, 82
1, 533644, Control_c, 0, 67, 82
1, 533659, Control_c, 0, 67, 81
1, 533673, Control_c, 0, 67, 80
1, 533703, Control_c, 0, 67, 79
1, 533717, Note_off_c, 0, 72, 61
1, 533718, Control_c, 0, 67, 79
1, 533731, Note_on_c, 0, 55, 42
1, 533733, Note_on_c, 0, 71, 56
1, 533777, Control_c, 0, 67, 78
1, 533801, Note_off_c, 0, 71, 56
1, 533806, Control_c, 0, 67, 78
1, 533815, Note_on_c, 0, 77, 52
1, 533821, Control_c, 0, 67, 77
1, 533837, Control_c, 0, 67, 77
1, 533876, Note_off_c, 0, 77, 59
1, 533884, Note_off_c, 0, 55, 57
1, 533890, Note_on_c, 0, 56, 49
1, 533897, Note_on_c, 0, 72, 55
1, 533919, Control_c, 0, 67, 76
1, 533948, Control_c, 0, 67, 77
1, 533963, Control_c, 0, 67, 78
1, 533969, Note_on_c, 0, 77, 66
1, 533978, Control_c, 0, 67, 79
1, 533981, Note_off_c, 0, 72, 60
1, 533993, Control_c, 0, 67, 80
1, 534007, Control_c, 0, 67, 80
1, 534022, Control_c, 0, 67, 81
1, 534042, Note_on_c, 0, 55, 45
1, 534046, Note_off_c, 0, 77, 64
1, 534050, Note_off_c, 0, 56, 54
1, 534053, Note_on_c, 0, 71, 66
1, 534111, Control_c, 0, 67, 80
1, 534121, Note_on_c, 0, 77, 59
1, 534140, Note_off_c, 0, 71, 56
1, 534155, Control_c, 0, 67, 80
1, 534198, Note_on_c, 0, 56, 47
1, 534206, Note_off_c, 0, 77, 62
1, 534214, Note_on_c, 0, 72, 60
1, 534226, Note_off_c, 0, 55, 53
1, 534289, Note_on_c, 0, 77, 54
1, 534292, Note_off_c, 0, 72, 55
1, 534349, Control_c, 0, 67, 79
1, 534360, Note_off_c, 0, 77, 61
1, 534361, Note_on_c, 0, 58, 48
1, 534362, Note_off_c, 0, 56, 54
1, 534364, Control_c, 0, 67, 79
1, 534365, Note_on_c, 0, 73, 66
1, 534408, Control_c, 0, 67, 78
1, 534438, Control_c, 0, 67, 78
1, 534452, Note_on_c, 0, 77, 51
1, 534495, Note_off_c, 0, 73, 38
1, 534495, Note_on_c, 0, 56, 50
1, 534504, Note_off_c, 0, 77, 60
1, 534508, Note_on_c, 0, 72, 53
1, 534512, Control_c, 0, 67, 77
1, 534514, Note_off_c, 0, 58, 52
1, 534569, Note_off_c, 0, 72, 57
1, 534571, Note_on_c, 0, 77, 59
1, 534646, Note_off_c, 0, 77, 62
1, 534656, Note_on_c, 0, 55, 46
1, 534658, Note_on_c, 0, 71, 69
1, 534685, Note_off_c, 0, 56, 46
1, 534734, Note_on_c, 0, 77, 60
1, 534772, Note_off_c, 0, 71, 54
1, 534785, Control_c, 0, 67, 78
1, 534800, Note_on_c, 0, 56, 58
1, 534805, Note_off_c, 0, 77, 64
1, 534807, Note_on_c, 0, 72, 71
1, 534814, Note_off_c, 0, 55, 57
1, 534859, Control_c, 0, 67, 78
1, 534867, Note_on_c, 0, 77, 67
1, 534891, Note_off_c, 0, 72, 57
1, 534918, Control_c, 0, 67, 79
1, 534954, Note_off_c, 0, 77, 63
1, 534961, Note_on_c, 0, 71, 73
1, 534963, Note_on_c, 0, 55, 46
1, 534981, Note_off_c, 0, 56, 53
1, 535025, Note_on_c, 0, 77, 56
1, 535051, Note_off_c, 0, 71, 53
1, 535114, Note_off_c, 0, 77, 58
1, 535121, Note_on_c, 0, 56, 51
1, 535126, Control_c, 0, 67, 78
1, 535130, Note_on_c, 0, 72, 59
1, 535149, Note_off_c, 0, 55, 52
1, 535156, Control_c, 0, 67, 78
1, 535171, Control_c, 0, 67, 77
1, 535201, Control_c, 0, 67, 77
1, 535202, Note_off_c, 0, 72, 61
1, 535209, Note_on_c, 0, 77, 57
1, 535216, Control_c, 0, 67, 76
1, 535231, Control_c, 0, 67, 76
1, 535245, Control_c, 0, 67, 75
1, 535260, Control_c, 0, 67, 73
1, 535275, Control_c, 0, 67, 69
1, 535282, Note_off_c, 0, 77, 62
1, 535290, Note_on_c, 0, 73, 63
1, 535290, Control_c, 0, 67, 58
1, 535296, Note_off_c, 0, 56, 52
1, 535305, Control_c, 0, 67, 44
1, 535309, Note_on_c, 0, 58, 48
1, 535319, Control_c, 0, 67, 25
1, 535334, Control_c, 0, 67, 0
1, 535368, Note_off_c, 0, 73, 62
1, 535378, Note_on_c, 0, 77, 59
1, 535431, Note_on_c, 0, 56, 50
1, 535434, Note_off_c, 0, 77, 56
1, 535460, Note_off_c, 0, 58, 47
1, 535461, Note_on_c, 0, 72, 61
1, 535467, Note_off_c, 0, 56, 63
1, 535520, Note_off_c, 0, 72, 59
1, 535537, Note_on_c, 0, 77, 63
1, 535601, Note_on_c, 0, 58, 18
1, 535630, Note_off_c, 0, 77, 54
1, 535632, Note_on_c, 0, 71, 65
1, 535634, Note_off_c, 0, 58, 47
1, 535717, Note_on_c, 0, 55, 51
1, 535771, Control_c, 0, 64, 40
1, 535785, Control_c, 0, 64, 53
1, 535786, Note_on_c, 0, 59, 61
1, 535800, Control_c, 0, 64, 58
1, 535815, Control_c, 0, 64, 61
1, 535830, Note_off_c, 0, 55, 61
1, 535830, Control_c, 0, 64, 62
1, 535839, Note_off_c, 0, 71, 61
1, 535845, Control_c, 0, 64, 63
1, 535848, Note_on_c, 0, 62, 65
1, 535860, Control_c, 0, 64, 64
1, 535875, Control_c, 0, 64, 66
1, 535878, Note_off_c, 0, 59, 59
1, 535890, Control_c, 0, 64, 66
1, 535905, Control_c, 0, 64, 67
1, 535919, Control_c, 0, 64, 67
1, 535925, Note_on_c, 0, 65, 76
1, 535928, Note_off_c, 0, 62, 63
1, 535964, Control_c, 0, 64, 67
1, 535979, Note_off_c, 0, 65, 66
1, 535979, Control_c, 0, 64, 64
1, 535987, Note_on_c, 0, 71, 77
1, 535994, Control_c, 0, 64, 58
1, 536009, Control_c, 0, 64, 49
1, 536024, Control_c, 0, 64, 42
1, 536039, Control_c, 0, 64, 41
1, 536054, Control_c, 0, 64, 45
1, 536068, Note_on_c, 0, 77, 83
1, 536068, Control_c, 0, 64, 52
1, 536078, Note_off_c, 0, 71, 63
1, 536084, Control_c, 0, 64, 56
1, 536098, Control_c, 0, 64, 60
1, 536113, Control_c, 0, 64, 62
1, 536128, Control_c, 0, 64, 63
1, 536149, Note_on_c, 0, 67, 71
1, 536182, Note_off_c, 0, 77, 61
1, 536224, Note_on_c, 0, 71, 77
1, 536239, Control_c, 0, 64, 62
1, 536280, Note_off_c, 0, 67, 54
1, 536293, Note_on_c, 0, 74, 81
1, 536298, Control_c, 0, 64, 62
1, 536328, Control_c, 0, 64, 61
1, 536331, Note_off_c, 0, 71, 63
1, 536356, Note_on_c, 0, 77, 81
1, 536358, Control_c, 0, 64, 61
1, 536373, Control_c, 0, 64, 60
1, 536380, Note_off_c, 0, 74, 60
1, 536388, Control_c, 0, 64, 60
1, 536402, Control_c, 0, 64, 59
1, 536417, Control_c, 0, 64, 58
1, 536422, Note_on_c, 0, 83, 82
1, 536432, Control_c, 0, 64, 58
1, 536447, Control_c, 0, 64, 57
1, 536453, Note_off_c, 0, 77, 62
1, 536476, Control_c, 0, 64, 57
1, 536510, Note_on_c, 0, 89, 87
1, 536516, Note_off_c, 0, 83, 64
1, 536550, Control_c, 0, 64, 56
1, 536594, Note_on_c, 0, 87, 77
1, 536624, Control_c, 0, 64, 57
1, 536647, Note_off_c, 0, 89, 56
1, 536654, Control_c, 0, 64, 57
1, 536655, Note_on_c, 0, 86, 82
1, 536668, Control_c, 0, 64, 58
1, 536683, Control_c, 0, 64, 59
1, 536690, Note_off_c, 0, 87, 64
1, 536698, Control_c, 0, 64, 59
1, 536718, Note_off_c, 0, 86, 64
1, 536725, Note_on_c, 0, 84, 87
1, 536785, Note_off_c, 0, 84, 63
1, 536788, Control_c, 0, 64, 59
1, 536794, Note_on_c, 0, 83, 80
1, 536803, Control_c, 0, 64, 58
1, 536817, Control_c, 0, 64, 57
1, 536832, Control_c, 0, 64, 54
1, 536847, Control_c, 0, 64, 51
1, 536856, Note_on_c, 0, 80, 80
1, 536862, Control_c, 0, 64, 47
1, 536877, Control_c, 0, 64, 47
1, 536884, Note_off_c, 0, 83, 64
1, 536921, Note_off_c, 0, 80, 64
1, 536929, Control_c, 0, 64, 48
1, 536935, Note_on_c, 0, 79, 80
1, 536944, Control_c, 0, 64, 50
1, 536959, Control_c, 0, 64, 53
1, 536973, Control_c, 0, 64, 56
1, 536988, Control_c, 0, 64, 58
1, 536991, Note_off_c, 0, 79, 63
1, 537003, Control_c, 0, 64, 60
1, 537010, Note_on_c, 0, 78, 73
1, 537017, Control_c, 0, 64, 61
1, 537032, Control_c, 0, 64, 62
1, 537047, Control_c, 0, 64, 63
1, 537062, Control_c, 0, 64, 64
1, 537068, Note_off_c, 0, 78, 62
1, 537077, Control_c, 0, 64, 64
1, 537091, Control_c, 0, 64, 65
1, 537097, Note_on_c, 0, 79, 69
1, 537152, Note_off_c, 0, 79, 60
1, 537163, Note_on_c, 0, 80, 66
1, 537240, Note_on_c, 0, 79, 73
1, 537247, Note_off_c, 0, 80, 62
1, 537255, Control_c, 0, 64, 64
1, 537279, Note_off_c, 0, 79, 62
1, 537285, Control_c, 0, 64, 64
1, 537314, Control_c, 0, 64, 63
1, 537319, Note_on_c, 0, 77, 55
1, 537344, Note_off_c, 0, 77, 66
1, 537358, Control_c, 0, 64, 63
1, 537373, Control_c, 0, 64, 62
1, 537388, Control_c, 0, 64, 62
1, 537403, Control_c, 0, 64, 61
1, 537415, Note_on_c, 0, 76, 60
1, 537417, Control_c, 0, 64, 59
1, 537427, Note_on_c, 0, 60, 48
1, 537432, Control_c, 0, 64, 57
1, 537447, Control_c, 0, 64, 55
1, 537462, Control_c, 0, 64, 54
1, 537487, Note_off_c, 0, 76, 64
1, 537511, Note_on_c, 0, 67, 52
1, 537521, Control_c, 0, 64, 55
1, 537537, Control_c, 0, 64, 56
1, 537552, Control_c, 0, 64, 57
1, 537566, Control_c, 0, 64, 58
1, 537571, Note_off_c, 0, 67, 56
1, 537586, Note_on_c, 0, 77, 60
1, 537588, Note_on_c, 0, 59, 45
1, 537596, Control_c, 0, 64, 57
1, 537607, Note_off_c, 0, 60, 59
1, 537611, Control_c, 0, 64, 56
1, 537626, Control_c, 0, 64, 55
1, 537640, Control_c, 0, 64, 54
1, 537652, Note_off_c, 0, 77, 61
1, 537655, Control_c, 0, 64, 54
1, 537678, Note_on_c, 0, 67, 62
1, 537693, Control_c, 0, 64, 54
1, 537747, Note_off_c, 0, 67, 60
1, 537747, Note_on_c, 0, 60, 58
1, 537753, Note_on_c, 0, 76, 69
1, 537766, Control_c, 0, 64, 54
1, 537781, Control_c, 0, 64, 53
1, 537792, Note_off_c, 0, 59, 60
1, 537796, Control_c, 0, 64, 52
1, 537811, Control_c, 0, 64, 51
1, 537816, Note_off_c, 0, 76, 63
1, 537826, Control_c, 0, 64, 49
1, 537834, Note_on_c, 0, 67, 56
1, 537840, Control_c, 0, 64, 47
1, 537855, Control_c, 0, 64, 45
1, 537870, Control_c, 0, 64, 45
1, 537904, Note_on_c, 0, 61, 57
1, 537905, Note_off_c, 0, 67, 61
1, 537920, Note_on_c, 0, 77, 62
1, 537926, Note_off_c, 0, 60, 58
1, 537973, Control_c, 0, 64, 45
1, 537988, Note_off_c, 0, 77, 61
1, 537998, Note_on_c, 0, 67, 54
1, 538018, Control_c, 0, 64, 45
1, 538048, Control_c, 0, 64, 44
1, 538056, Note_off_c, 0, 67, 59
1, 538063, Note_on_c, 0, 60, 51
1, 538078, Control_c, 0, 64, 45
1, 538084, Note_on_c, 0, 76, 60
1, 538093, Control_c, 0, 64, 45
1, 538108, Control_c, 0, 64, 46
1, 538111, Note_off_c, 0, 61, 54
1, 538120, Note_off_c, 0, 76, 64
1, 538122, Control_c, 0, 64, 47
1, 538137, Control_c, 0, 64, 49
1, 538152, Control_c, 0, 64, 50
1, 538162, Note_on_c, 0, 67, 52
1, 538166, Control_c, 0, 64, 51
1, 538196, Control_c, 0, 64, 50
1, 538201, Note_off_c, 0, 67, 63
1, 538211, Control_c, 0, 64, 49
1, 538226, Control_c, 0, 64, 49
1, 538229, Note_on_c, 0, 59, 56
1, 538229, Note_on_c, 0, 77, 64
1, 538260, Note_off_c, 0, 60, 61
1, 538270, Control_c, 0, 64, 49
1, 538285, Control_c, 0, 64, 50
1, 538292, Note_off_c, 0, 77, 62
1, 538300, Control_c, 0, 64, 51
1, 538307, Note_on_c, 0, 67, 58
1, 538314, Control_c, 0, 64, 51
1, 538329, Control_c, 0, 64, 51
1, 538344, Control_c, 0, 64, 49
1, 538358, Note_off_c, 0, 67, 57
1, 538359, Control_c, 0, 64, 48
1, 538374, Control_c, 0, 64, 47
1, 538385, Note_on_c, 0, 76, 70
1, 538387, Note_on_c, 0, 60, 60
1, 538397, Note_off_c, 0, 59, 58
1, 538411, Control_c, 0, 64, 48
1, 538426, Control_c, 0, 64, 49
1, 538441, Control_c, 0, 64, 51
1, 538450, Note_off_c, 0, 76, 63
1, 538456, Control_c, 0, 64, 53
1, 538470, Control_c, 0, 64, 54
1, 538474, Note_on_c, 0, 67, 68
1, 538485, Control_c, 0, 64, 54
1, 538500, Control_c, 0, 64, 53
1, 538515, Control_c, 0, 64, 51
1, 538530, Control_c, 0, 64, 50
1, 538538, Note_on_c, 0, 59, 58
1, 538540, Note_off_c, 0, 67, 60
1, 538546, Note_on_c, 0, 77, 76
1, 538559, Control_c, 0, 64, 50
1, 538568, Note_off_c, 0, 60, 60
1, 538574, Control_c, 0, 64, 52
1, 538588, Control_c, 0, 64, 53
1, 538603, Control_c, 0, 64, 55
1, 538618, Control_c, 0, 64, 57
1, 538627, Note_on_c, 0, 67, 66
1, 538628, Note_off_c, 0, 77, 63
1, 538662, Control_c, 0, 64, 54
1, 538677, Control_c, 0, 64, 51
1, 538692, Control_c, 0, 64, 48
1, 538703, Note_on_c, 0, 60, 64
1, 538707, Control_c, 0, 64, 47
1, 538708, Note_off_c, 0, 67, 62
1, 538710, Note_on_c, 0, 76, 74
1, 538722, Control_c, 0, 64, 47
1, 538735, Note_off_c, 0, 59, 55
1, 538737, Control_c, 0, 64, 48
1, 538751, Control_c, 0, 64, 50
1, 538766, Control_c, 0, 64, 53
1, 538769, Note_off_c, 0, 76, 64
1, 538781, Control_c, 0, 64, 54
1, 538786, Note_on_c, 0, 67, 62
1, 538811, Control_c, 0, 64, 53
1, 538826, Control_c, 0, 64, 50
1, 538841, Control_c, 0, 64, 40
1, 538856, Control_c, 0, 64, 0
1, 538866, Note_off_c, 0, 67, 61
1, 538871, Note_on_c, 0, 61, 56
1, 538872, Note_on_c, 0, 77, 67
1, 538880, Note_off_c, 0, 60, 63
1, 538939, Note_off_c, 0, 77, 61
1, 538940, Note_on_c, 0, 67, 60
1, 538944, Control_c, 0, 64, 37
1, 538959, Control_c, 0, 64, 43
1, 538974, Control_c, 0, 64, 41
1, 538988, Control_c, 0, 64, 30
1, 539003, Control_c, 0, 64, 0
1, 539021, Note_off_c, 0, 67, 59
1, 539029, Note_on_c, 0, 76, 68
1, 539042, Note_off_c, 0, 61, 58
1, 539045, Note_on_c, 0, 60, 51
1, 539062, Control_c, 0, 64, 34
1, 539078, Control_c, 0, 64, 45
1, 539085, Note_off_c, 0, 76, 64
1, 539093, Control_c, 0, 64, 53
1, 539101, Note_on_c, 0, 67, 62
1, 539107, Control_c, 0, 64, 57
1, 539122, Control_c, 0, 64, 58
1, 539160, Note_off_c, 0, 60, 64
1, 539166, Note_on_c, 0, 59, 51
1, 539170, Note_off_c, 0, 67, 62
1, 539175, Control_c, 0, 64, 58
1, 539189, Note_on_c, 0, 77, 61
1, 539190, Note_off_c, 0, 59, 60
1, 539205, Control_c, 0, 64, 57
1, 539219, Control_c, 0, 64, 56
1, 539234, Control_c, 0, 64, 56
1, 539243, Note_off_c, 0, 77, 64
1, 539249, Control_c, 0, 64, 54
1, 539258, Note_on_c, 0, 67, 59
1, 539264, Control_c, 0, 64, 51
1, 539279, Control_c, 0, 64, 45
1, 539294, Control_c, 0, 64, 34
1, 539309, Control_c, 0, 64, 0
1, 539351, Note_on_c, 0, 76, 68
1, 539361, Note_off_c, 0, 67, 60
1, 539427, Note_on_c, 0, 48, 60
1, 539457, Control_c, 0, 64, 39
1, 539472, Control_c, 0, 64, 49
1, 539486, Control_c, 0, 64, 55
1, 539501, Note_on_c, 0, 52, 68
1, 539501, Control_c, 0, 64, 58
1, 539510, Note_off_c, 0, 76, 63
1, 539516, Control_c, 0, 64, 59
1, 539530, Control_c, 0, 64, 60
1, 539535, Note_off_c, 0, 48, 61
1, 539545, Control_c, 0, 64, 61
1, 539560, Control_c, 0, 64, 61
1, 539574, Note_on_c, 0, 55, 70
1, 539590, Control_c, 0, 64, 62
1, 539603, Note_off_c, 0, 52, 61
1, 539619, Control_c, 0, 64, 62
1, 539646, Note_on_c, 0, 58, 74
1, 539657, Note_off_c, 0, 55, 64
1, 539679, Control_c, 0, 64, 61
1, 539693, Control_c, 0, 64, 55
1, 539702, Note_on_c, 0, 64, 70
1, 539708, Control_c, 0, 64, 46
1, 539719, Note_off_c, 0, 58, 64
1, 539723, Control_c, 0, 64, 35
1, 539738, Control_c, 0, 64, 0
1, 539753, Control_c, 0, 64, 29
1, 539768, Control_c, 0, 64, 34
1, 539781, Note_on_c, 0, 70, 85
1, 539783, Control_c, 0, 64, 41
1, 539798, Control_c, 0, 64, 48
1, 539801, Note_off_c, 0, 64, 60
1, 539812, Control_c, 0, 64, 55
1, 539827, Control_c, 0, 64, 58
1, 539842, Control_c, 0, 64, 61
1, 539857, Control_c, 0, 64, 62
1, 539872, Control_c, 0, 64, 62
1, 539875, Note_on_c, 0, 60, 58
1, 539893, Note_off_c, 0, 70, 63
1, 539944, Note_on_c, 0, 64, 70
1, 539982, Note_off_c, 0, 60, 65
1, 540013, Control_c, 0, 64, 62
1, 540014, Note_on_c, 0, 67, 76
1, 540028, Control_c, 0, 64, 61
1, 540045, Note_off_c, 0, 64, 63
1, 540057, Control_c, 0, 64, 61
1, 540093, Note_on_c, 0, 70, 82
1, 540100, Note_off_c, 0, 67, 64
1, 540117, Control_c, 0, 64, 60
1, 540147, Control_c, 0, 64, 60
1, 540147, Note_on_c, 0, 76, 74
1, 540161, Control_c, 0, 64, 59
1, 540173, Note_off_c, 0, 70, 62
1, 540191, Control_c, 0, 64, 59
1, 540230, Note_off_c, 0, 76, 61
1, 540231, Note_on_c, 0, 82, 77
1, 540235, Control_c, 0, 64, 58
1, 540250, Control_c, 0, 64, 58
1, 540265, Control_c, 0, 64, 56
1, 540279, Control_c, 0, 64, 53
1, 540294, Control_c, 0, 64, 50
1, 540306, Note_on_c, 0, 81, 82
1, 540309, Control_c, 0, 64, 47
1, 540324, Control_c, 0, 64, 43
1, 540336, Note_off_c, 0, 82, 61
1, 540339, Control_c, 0, 64, 40
1, 540353, Control_c, 0, 64, 35
1, 540368, Control_c, 0, 64, 31
1, 540373, Note_on_c, 0, 79, 87
1, 540383, Control_c, 0, 64, 29
1, 540394, Note_off_c, 0, 81, 65
1, 540438, Note_off_c, 0, 79, 67
1, 540445, Note_on_c, 0, 77, 72
1, 540507, Note_off_c, 0, 77, 62
1, 540514, Note_on_c, 0, 76, 80
1, 540581, Note_on_c, 0, 74, 79
1, 540607, Note_off_c, 0, 76, 64
1, 540636, Note_off_c, 0, 74, 64
1, 540663, Note_on_c, 0, 72, 76
1, 540737, Note_off_c, 0, 72, 60
1, 540741, Note_on_c, 0, 74, 71
1, 540806, Control_c, 0, 64, 0
1, 540810, Note_on_c, 0, 72, 61
1, 540843, Note_off_c, 0, 74, 59
1, 540879, Note_on_c, 0, 70, 66
1, 540906, Note_off_c, 0, 72, 61
1, 540939, Note_off_c, 0, 70, 64
1, 540966, Note_on_c, 0, 69, 60
1, 541002, Note_off_c, 0, 69, 62
1, 541028, Note_on_c, 0, 67, 55
1, 541077, Note_off_c, 0, 67, 62
1, 541129, Note_on_c, 0, 65, 58
1, 541137, Note_on_c, 0, 57, 39
1, 541216, Note_on_c, 0, 75, 56
1, 541244, Note_off_c, 0, 65, 44
1, 541279, Note_off_c, 0, 75, 60
1, 541296, Note_on_c, 0, 66, 63
1, 541307, Note_on_c, 0, 58, 57
1, 541317, Note_off_c, 0, 57, 57
1, 541373, Note_off_c, 0, 66, 61
1, 541383, Note_on_c, 0, 75, 67
1, 541465, Note_on_c, 0, 57, 56
1, 541466, Note_off_c, 0, 75, 62
1, 541474, Note_on_c, 0, 65, 70
1, 541488, Note_off_c, 0, 58, 55
1, 541527, Note_off_c, 0, 65, 64
1, 541548, Note_on_c, 0, 75, 61
1, 541628, Note_on_c, 0, 58, 51
1, 541635, Note_off_c, 0, 75, 60
1, 541639, Note_on_c, 0, 66, 63
1, 541676, Note_off_c, 0, 57, 55
1, 541715, Note_off_c, 0, 66, 57
1, 541718, Note_on_c, 0, 75, 52
1, 541788, Note_off_c, 0, 75, 61
1, 541799, Note_on_c, 0, 68, 59
1, 541807, Note_on_c, 0, 59, 43
1, 541822, Note_off_c, 0, 58, 56
1, 541856, Note_off_c, 0, 68, 54
1, 541872, Note_on_c, 0, 75, 46
1, 541941, Note_off_c, 0, 75, 57
1, 541953, Note_on_c, 0, 58, 51
1, 541964, Note_on_c, 0, 66, 53
1, 541990, Note_off_c, 0, 59, 37
1, 542022, Note_off_c, 0, 66, 54
1, 542039, Note_on_c, 0, 75, 46
1, 542096, Note_off_c, 0, 75, 59
1, 542120, Note_on_c, 0, 57, 50
1, 542122, Note_on_c, 0, 65, 58
1, 542127, Note_off_c, 0, 58, 51
1, 542197, Note_on_c, 0, 75, 58
1, 542200, Note_off_c, 0, 65, 55
1, 542259, Note_on_c, 0, 58, 60
1, 542268, Note_off_c, 0, 75, 62
1, 542275, Note_on_c, 0, 66, 68
1, 542285, Note_off_c, 0, 57, 59
1, 542346, Note_off_c, 0, 66, 62
1, 542347, Note_on_c, 0, 75, 63
1, 542415, Note_on_c, 0, 57, 60
1, 542433, Note_off_c, 0, 75, 60
1, 542434, Note_on_c, 0, 65, 70
1, 542444, Note_off_c, 0, 58, 59
1, 542490, Note_off_c, 0, 65, 64
1, 542498, Note_on_c, 0, 75, 56
1, 542578, Note_on_c, 0, 58, 58
1, 542592, Note_on_c, 0, 66, 67
1, 542599, Note_off_c, 0, 75, 59
1, 542654, Note_off_c, 0, 57, 46
1, 542659, Note_off_c, 0, 66, 59
1, 542674, Note_on_c, 0, 75, 52
1, 542742, Note_on_c, 0, 59, 55
1, 542751, Note_on_c, 0, 68, 69
1, 542765, Note_off_c, 0, 58, 56
1, 542774, Note_off_c, 0, 75, 55
1, 542826, Note_on_c, 0, 75, 42
1, 542853, Note_off_c, 0, 68, 55
1, 542878, Note_off_c, 0, 75, 59
1, 542898, Note_on_c, 0, 66, 59
1, 542898, Note_on_c, 0, 58, 55
1, 542922, Note_off_c, 0, 59, 39
1, 542952, Note_off_c, 0, 58, 62
1, 542978, Note_off_c, 0, 66, 60
1, 542987, Note_on_c, 0, 75, 61
1, 543060, Note_off_c, 0, 75, 62
1, 543072, Note_on_c, 0, 65, 66
1, 543160, Note_on_c, 0, 57, 67
1, 543231, Control_c, 0, 64, 39
1, 543232, Note_on_c, 0, 60, 63
1, 543242, Note_off_c, 0, 65, 39
1, 543246, Control_c, 0, 64, 52
1, 543251, Note_off_c, 0, 57, 60
1, 543260, Control_c, 0, 64, 58
1, 543275, Control_c, 0, 64, 60
1, 543290, Control_c, 0, 64, 61
1, 543293, Note_on_c, 0, 63, 71
1, 543312, Note_off_c, 0, 60, 64
1, 543319, Control_c, 0, 64, 60
1, 543334, Control_c, 0, 64, 56
1, 543349, Control_c, 0, 64, 47
1, 543364, Control_c, 0, 64, 37
1, 543372, Note_off_c, 0, 63, 64
1, 543373, Note_on_c, 0, 65, 77
1, 543378, Control_c, 0, 64, 30
1, 543408, Control_c, 0, 64, 37
1, 543423, Control_c, 0, 64, 44
1, 543434, Note_on_c, 0, 69, 65
1, 543434, Note_off_c, 0, 65, 64
1, 543438, Control_c, 0, 64, 50
1, 543452, Control_c, 0, 64, 55
1, 543467, Control_c, 0, 64, 58
1, 543482, Control_c, 0, 64, 60
1, 543497, Control_c, 0, 64, 60
1, 543511, Note_on_c, 0, 75, 83
1, 543512, Control_c, 0, 64, 61
1, 543542, Control_c, 0, 64, 60
1, 543545, Note_off_c, 0, 69, 62
1, 543557, Control_c, 0, 64, 60
1, 543584, Note_on_c, 0, 65, 77
1, 543618, Note_off_c, 0, 75, 63
1, 543631, Control_c, 0, 64, 59
1, 543646, Control_c, 0, 64, 59
1, 543667, Control_c, 0, 64, 58
1, 543670, Note_on_c, 0, 69, 72
1, 543682, Control_c, 0, 64, 57
1, 543694, Note_off_c, 0, 65, 63
1, 543697, Control_c, 0, 64, 57
1, 543712, Control_c, 0, 64, 56
1, 543727, Control_c, 0, 64, 56
1, 543727, Note_on_c, 0, 72, 82
1, 543741, Control_c, 0, 64, 55
1, 543753, Note_off_c, 0, 69, 61
1, 543756, Control_c, 0, 64, 54
1, 543771, Control_c, 0, 64, 54
1, 543786, Control_c, 0, 64, 53
1, 543801, Note_on_c, 0, 75, 81
1, 543801, Control_c, 0, 64, 52
1, 543809, Note_off_c, 0, 72, 64
1, 543816, Control_c, 0, 64, 51
1, 543830, Control_c, 0, 64, 49
1, 543845, Control_c, 0, 64, 48
1, 543860, Control_c, 0, 64, 47
1, 543863, Note_on_c, 0, 81, 82
1, 543879, Note_off_c, 0, 75, 62
1, 543890, Control_c, 0, 64, 46
1, 543904, Control_c, 0, 64, 46
1, 543919, Control_c, 0, 64, 45
1, 543935, Control_c, 0, 64, 43
1, 543944, Note_off_c, 0, 81, 62
1, 543950, Note_on_c, 0, 87, 85
1, 543950, Control_c, 0, 64, 42
1, 543965, Control_c, 0, 64, 41
1, 543980, Control_c, 0, 64, 39
1, 543995, Control_c, 0, 64, 38
1, 544009, Control_c, 0, 64, 36
1, 544024, Control_c, 0, 64, 35
1, 544028, Note_on_c, 0, 86, 80
1, 544039, Control_c, 0, 64, 33
1, 544054, Control_c, 0, 64, 32
1, 544064, Note_off_c, 0, 87, 63
1, 544069, Control_c, 0, 64, 30
1, 544083, Control_c, 0, 64, 0
1, 544096, Note_off_c, 0, 86, 64
1, 544100, Note_on_c, 0, 84, 86
1, 544163, Note_off_c, 0, 84, 55
1, 544171, Note_on_c, 0, 82, 84
1, 544241, Note_on_c, 0, 81, 82
1, 544278, Note_off_c, 0, 82, 61
1, 544297, Note_off_c, 0, 81, 66
1, 544310, Note_on_c, 0, 79, 76
1, 544385, Note_on_c, 0, 77, 72
1, 544393, Note_off_c, 0, 79, 65
1, 544459, Note_on_c, 0, 79, 74
1, 544463, Note_off_c, 0, 77, 63
1, 544538, Note_on_c, 0, 77, 69
1, 544578, Note_off_c, 0, 79, 60
1, 544607, Note_on_c, 0, 75, 69
1, 544628, Note_off_c, 0, 77, 62
1, 544666, Note_off_c, 0, 75, 62
1, 544675, Note_on_c, 0, 74, 66
1, 544750, Note_on_c, 0, 72, 66
1, 544752, Note_off_c, 0, 74, 59
1, 544844, Note_off_c, 0, 72, 61
1, 544845, Note_on_c, 0, 74, 67
1, 544861, Note_on_c, 0, 58, 42
1, 544884, Note_off_c, 0, 74, 63
1, 545034, Note_on_c, 0, 62, 44
1, 545193, Note_on_c, 0, 65, 42
1, 545193, Note_on_c, 0, 74, 68
1, 545221, Note_off_c, 0, 62, 41
1, 545271, Note_off_c, 0, 58, 46
1, 545354, Note_on_c, 0, 72, 70
1, 545355, Note_on_c, 0, 57, 46
1, 545363, Note_off_c, 0, 74, 56
1, 545385, Note_off_c, 0, 65, 44
1, 545408, Note_off_c, 0, 72, 60
1, 545518, Note_on_c, 0, 60, 52
1, 545557, Note_off_c, 0, 57, 38
1, 545659, Note_off_c, 0, 60, 55
1, 545670, Note_on_c, 0, 72, 66
1, 545682, Note_on_c, 0, 65, 44
1, 545833, Note_off_c, 0, 65, 39
1, 545850, Note_on_c, 0, 55, 37
1, 545861, Note_on_c, 0, 75, 71
1, 545941, Note_off_c, 0, 72, 56
1, 546052, Note_on_c, 0, 58, 43
1, 546098, Note_off_c, 0, 55, 37
1, 546203, Note_on_c, 0, 63, 42
1, 546208, Note_off_c, 0, 58, 58
1, 546373, Note_on_c, 0, 54, 44
1, 546392, Note_off_c, 0, 63, 37
1, 546535, Note_on_c, 0, 57, 46
1, 546594, Note_off_c, 0, 54, 37
1, 546691, Note_on_c, 0, 74, 59
1, 546707, Note_on_c, 0, 62, 37
1, 546717, Note_off_c, 0, 75, 53
1, 546746, Note_off_c, 0, 57, 44
1, 546853, Note_off_c, 0, 62, 44
1, 546868, Note_on_c, 0, 55, 47
1, 546870, Note_on_c, 0, 75, 63
1, 546884, Note_off_c, 0, 74, 60
1, 546938, Note_off_c, 0, 75, 62
1, 547024, Note_on_c, 0, 58, 57
1, 547035, Note_off_c, 0, 55, 55
1, 547168, Note_on_c, 0, 63, 50
1, 547170, Note_off_c, 0, 58, 62
1, 547173, Note_on_c, 0, 75, 71
1, 547335, Note_on_c, 0, 53, 54
1, 547338, Note_on_c, 0, 74, 77
1, 547356, Note_off_c, 0, 75, 60
1, 547357, Note_off_c, 0, 63, 38
1, 547417, Note_off_c, 0, 74, 63
1, 547499, Note_off_c, 0, 53, 57
1, 547500, Note_on_c, 0, 57, 63
1, 547634, Note_off_c, 0, 57, 56
1, 547651, Note_on_c, 0, 74, 78
1, 547661, Note_on_c, 0, 62, 52
1, 547828, Note_off_c, 0, 62, 39
1, 547857, Note_on_c, 0, 51, 45
1, 547872, Note_on_c, 0, 79, 82
1, 547995, Note_off_c, 0, 74, 47
1, 548077, Note_on_c, 0, 55, 39
1, 548122, Note_off_c, 0, 51, 48
1, 548240, Note_on_c, 0, 60, 36
1, 548261, Note_off_c, 0, 55, 37
1, 548401, Note_on_c, 0, 50, 42
1, 548413, Note_off_c, 0, 60, 37
1, 548575, Control_c, 0, 64, 30
1, 548581, Note_on_c, 0, 53, 39
1, 548590, Control_c, 0, 64, 43
1, 548603, Note_off_c, 0, 50, 40
1, 548605, Control_c, 0, 64, 53
1, 548619, Control_c, 0, 64, 59
1, 548634, Control_c, 0, 64, 61
1, 548649, Control_c, 0, 64, 62
1, 548664, Control_c, 0, 64, 63
1, 548679, Control_c, 0, 64, 64
1, 548693, Control_c, 0, 64, 65
1, 548708, Control_c, 0, 64, 65
1, 548715, Note_off_c, 0, 53, 59
1, 548724, Control_c, 0, 64, 66
1, 548735, Note_on_c, 0, 77, 63
1, 548756, Note_on_c, 0, 58, 39
1, 548787, Note_off_c, 0, 79, 56
1, 548839, Note_off_c, 0, 77, 57
1, 548841, Note_off_c, 0, 58, 50
1, 548842, Control_c, 0, 64, 65
1, 548872, Control_c, 0, 64, 65
1, 548910, Control_c, 0, 64, 64
1, 548924, Control_c, 0, 64, 64
1, 548939, Control_c, 0, 64, 63
1, 548954, Control_c, 0, 64, 63
1, 548969, Control_c, 0, 64, 62
1, 548975, Note_on_c, 0, 48, 40
1, 548984, Control_c, 0, 64, 61
1, 548991, Note_on_c, 0, 77, 61
1, 548998, Control_c, 0, 64, 61
1, 549013, Control_c, 0, 64, 59
1, 549028, Control_c, 0, 64, 57
1, 549043, Control_c, 0, 64, 55
1, 549057, Control_c, 0, 64, 54
1, 549072, Control_c, 0, 64, 52
1, 549087, Control_c, 0, 64, 51
1, 549102, Control_c, 0, 64, 51
1, 549117, Control_c, 0, 64, 50
1, 549131, Control_c, 0, 64, 49
1, 549146, Control_c, 0, 64, 48
1, 549161, Control_c, 0, 64, 47
1, 549173, Note_on_c, 0, 55, 44
1, 549176, Control_c, 0, 64, 46
1, 549186, Note_on_c, 0, 76, 72
1, 549191, Control_c, 0, 64, 45
1, 549205, Control_c, 0, 64, 44
1, 549220, Control_c, 0, 64, 43
1, 549235, Control_c, 0, 64, 42
1, 549250, Control_c, 0, 64, 42
1, 549256, Note_off_c, 0, 77, 55
1, 549265, Control_c, 0, 64, 40
1, 549280, Control_c, 0, 64, 39
1, 549295, Control_c, 0, 64, 37
1, 549310, Control_c, 0, 64, 35
1, 549313, Note_off_c, 0, 55, 56
1, 549324, Control_c, 0, 64, 34
1, 549334, Note_on_c, 0, 58, 47
1, 549334, Note_on_c, 0, 72, 74
1, 549339, Control_c, 0, 64, 34
1, 549354, Control_c, 0, 64, 33
1, 549383, Control_c, 0, 64, 33
1, 549395, Note_off_c, 0, 48, 41
1, 549398, Control_c, 0, 64, 32
1, 549399, Note_off_c, 0, 76, 61
1, 549413, Control_c, 0, 64, 29
1, 549428, Control_c, 0, 64, 0
1, 549486, Note_on_c, 0, 53, 55
1, 549486, Note_off_c, 0, 58, 30
1, 549655, Note_on_c, 0, 57, 53
1, 549655, Note_on_c, 0, 74, 74
1, 549682, Note_off_c, 0, 72, 56
1, 549694, Note_off_c, 0, 53, 36
1, 549747, Control_c, 0, 64, 40
1, 549762, Control_c, 0, 64, 50
1, 549768, Note_off_c, 0, 57, 63
1, 549777, Control_c, 0, 64, 57
1, 549791, Control_c, 0, 64, 59
1, 549806, Control_c, 0, 64, 60
1, 549808, Note_on_c, 0, 75, 72
1, 549817, Note_on_c, 0, 60, 43
1, 549821, Control_c, 0, 64, 62
1, 549826, Note_off_c, 0, 74, 61
1, 549836, Control_c, 0, 64, 62
1, 549873, Note_off_c, 0, 60, 51
1, 549873, Note_off_c, 0, 75, 61
1, 549940, Control_c, 0, 64, 62
1, 549954, Control_c, 0, 64, 61
1, 549969, Control_c, 0, 64, 60
1, 549984, Note_on_c, 0, 46, 47
1, 549984, Control_c, 0, 64, 57
1, 549993, Note_on_c, 0, 75, 60
1, 549998, Control_c, 0, 64, 55
1, 550013, Control_c, 0, 64, 53
1, 550028, Control_c, 0, 64, 51
1, 550043, Control_c, 0, 64, 49
1, 550058, Control_c, 0, 64, 48
1, 550073, Control_c, 0, 64, 48
1, 550088, Control_c, 0, 64, 47
1, 550103, Control_c, 0, 64, 47
1, 550118, Control_c, 0, 64, 46
1, 550133, Control_c, 0, 64, 46
1, 550144, Note_on_c, 0, 74, 66
1, 550147, Control_c, 0, 64, 45
1, 550151, Note_on_c, 0, 53, 43
1, 550177, Control_c, 0, 64, 45
1, 550181, Note_off_c, 0, 75, 54
1, 550206, Control_c, 0, 64, 44
1, 550221, Note_off_c, 0, 46, 45
1, 550259, Note_off_c, 0, 53, 52
1, 550265, Control_c, 0, 64, 44
1, 550280, Control_c, 0, 64, 43
1, 550295, Control_c, 0, 64, 43
1, 550297, Note_on_c, 0, 58, 48
1, 550311, Control_c, 0, 64, 42
1, 550314, Note_on_c, 0, 70, 59
1, 550326, Control_c, 0, 64, 41
1, 550335, Note_off_c, 0, 74, 59
1, 550341, Control_c, 0, 64, 40
1, 550356, Control_c, 0, 64, 40
1, 550422, Control_c, 0, 64, 40
1, 550437, Control_c, 0, 64, 41
1, 550452, Control_c, 0, 64, 42
1, 550455, Note_off_c, 0, 58, 57
1, 550466, Note_on_c, 0, 54, 56
1, 550466, Control_c, 0, 64, 43
1, 550481, Control_c, 0, 64, 45
1, 550496, Control_c, 0, 64, 47
1, 550511, Control_c, 0, 64, 50
1, 550526, Control_c, 0, 64, 52
1, 550541, Control_c, 0, 64, 53
1, 550556, Control_c, 0, 64, 55
1, 550570, Control_c, 0, 64, 55
1, 550585, Control_c, 0, 64, 56
1, 550612, Note_on_c, 0, 58, 54
1, 550615, Note_off_c, 0, 70, 53
1, 550619, Note_on_c, 0, 72, 62
1, 550634, Note_off_c, 0, 54, 59
1, 550733, Control_c, 0, 64, 55
1, 550739, Note_off_c, 0, 58, 60
1, 550772, Note_on_c, 0, 61, 44
1, 550773, Note_on_c, 0, 73, 72
1, 550777, Control_c, 0, 64, 55
1, 550806, Note_off_c, 0, 72, 59
1, 550807, Control_c, 0, 64, 54
1, 550821, Control_c, 0, 64, 53
1, 550836, Control_c, 0, 64, 52
1, 550851, Control_c, 0, 64, 50
1, 550866, Control_c, 0, 64, 47
1, 550881, Control_c, 0, 64, 45
1, 550896, Control_c, 0, 64, 44
1, 550918, Note_off_c, 0, 61, 42
1, 550921, Note_on_c, 0, 51, 61
1, 550940, Control_c, 0, 64, 44
1, 550955, Control_c, 0, 64, 46
1, 550970, Control_c, 0, 64, 48
1, 550985, Control_c, 0, 64, 52
1, 551000, Control_c, 0, 64, 55
1, 551014, Control_c, 0, 64, 57
1, 551029, Control_c, 0, 64, 58
1, 551044, Control_c, 0, 64, 59
1, 551059, Control_c, 0, 64, 60
1, 551070, Note_on_c, 0, 54, 59
1, 551074, Control_c, 0, 64, 60
1, 551088, Control_c, 0, 64, 61
1, 551101, Note_on_c, 0, 72, 66
1, 551101, Note_off_c, 0, 51, 59
1, 551103, Control_c, 0, 64, 61
1, 551124, Note_off_c, 0, 73, 49
1, 551215, Control_c, 0, 64, 61
1, 551222, Note_off_c, 0, 54, 60
1, 551230, Control_c, 0, 64, 60
1, 551241, Note_on_c, 0, 58, 57
1, 551244, Note_on_c, 0, 73, 74
1, 551259, Control_c, 0, 64, 60
1, 551274, Control_c, 0, 64, 59
1, 551278, Note_off_c, 0, 72, 61
1, 551289, Control_c, 0, 64, 58
1, 551304, Control_c, 0, 64, 56
1, 551319, Control_c, 0, 64, 52
1, 551334, Control_c, 0, 64, 47
1, 551349, Control_c, 0, 64, 42
1, 551363, Control_c, 0, 64, 37
1, 551378, Control_c, 0, 64, 34
1, 551393, Control_c, 0, 64, 33
1, 551396, Note_on_c, 0, 52, 68
1, 551404, Note_off_c, 0, 58, 58
1, 551408, Control_c, 0, 64, 34
1, 551423, Control_c, 0, 64, 36
1, 551437, Control_c, 0, 64, 40
1, 551452, Control_c, 0, 64, 46
1, 551467, Control_c, 0, 64, 51
1, 551482, Control_c, 0, 64, 55
1, 551497, Control_c, 0, 64, 58
1, 551511, Control_c, 0, 64, 60
1, 551526, Control_c, 0, 64, 61
1, 551541, Control_c, 0, 64, 61
1, 551545, Note_on_c, 0, 72, 70
1, 551549, Note_on_c, 0, 55, 59
1, 551553, Note_off_c, 0, 52, 61
1, 551556, Control_c, 0, 64, 62
1, 551566, Note_off_c, 0, 73, 49
1, 551612, Note_off_c, 0, 55, 59
1, 551636, Note_on_c, 0, 58, 47
1, 551698, Note_on_c, 0, 70, 71
1, 551733, Control_c, 0, 64, 61
1, 551764, Note_off_c, 0, 72, 48
1, 551793, Control_c, 0, 64, 61
1, 551808, Control_c, 0, 64, 60
1, 551823, Control_c, 0, 64, 58
1, 551838, Control_c, 0, 64, 55
1, 551842, Note_off_c, 0, 58, 56
1, 551851, Note_on_c, 0, 53, 55
1, 551853, Control_c, 0, 64, 52
1, 551858, Note_on_c, 0, 69, 64
1, 551867, Control_c, 0, 64, 48
1, 551882, Control_c, 0, 64, 47
1, 551903, Note_off_c, 0, 70, 59
1, 551905, Control_c, 0, 64, 46
1, 551921, Control_c, 0, 64, 47
1, 551936, Control_c, 0, 64, 48
1, 551950, Control_c, 0, 64, 50
1, 551965, Control_c, 0, 64, 53
1, 551980, Control_c, 0, 64, 55
1, 551994, Control_c, 0, 64, 57
1, 552009, Control_c, 0, 64, 58
1, 552024, Control_c, 0, 64, 59
1, 552031, Note_on_c, 0, 57, 50
1, 552039, Control_c, 0, 64, 60
1, 552054, Control_c, 0, 64, 61
1, 552068, Control_c, 0, 64, 61
1, 552106, Note_off_c, 0, 53, 34
1, 552151, Note_off_c, 0, 57, 57
1, 552157, Control_c, 0, 64, 61
1, 552187, Control_c, 0, 64, 60
1, 552201, Control_c, 0, 64, 60
1, 552204, Note_on_c, 0, 60, 37
1, 552216, Control_c, 0, 64, 59
1, 552231, Control_c, 0, 64, 58
1, 552246, Control_c, 0, 64, 58
1, 552261, Control_c, 0, 64, 56
1, 552276, Control_c, 0, 64, 52
1, 552291, Control_c, 0, 64, 46
1, 552306, Control_c, 0, 64, 37
1, 552321, Control_c, 0, 64, 0
1, 552341, Note_on_c, 0, 72, 51
1, 552349, Note_off_c, 0, 60, 38
1, 552351, Note_on_c, 0, 53, 45
1, 552377, Note_off_c, 0, 69, 39
1, 552394, Control_c, 0, 64, 30
1, 552409, Control_c, 0, 64, 41
1, 552424, Control_c, 0, 64, 48
1, 552439, Control_c, 0, 64, 52
1, 552454, Control_c, 0, 64, 53
1, 552468, Control_c, 0, 64, 52
1, 552475, Note_off_c, 0, 53, 57
1, 552483, Control_c, 0, 64, 51
1, 552498, Control_c, 0, 64, 48
1, 552502, Note_on_c, 0, 51, 55
1, 552512, Control_c, 0, 64, 45
1, 552525, Note_off_c, 0, 72, 57
1, 552527, Control_c, 0, 64, 41
1, 552542, Control_c, 0, 64, 36
1, 552557, Control_c, 0, 64, 0
1, 552608, Note_off_c, 0, 51, 58
1, 552648, Note_on_c, 0, 48, 63
1, 552690, Note_off_c, 0, 48, 62
1, 552809, Note_on_c, 0, 58, 71
1, 552809, Note_on_c, 0, 74, 88
1, 552811, Note_on_c, 0, 46, 72
1, 552886, Note_on_c, 0, 70, 76
1, 552925, Note_off_c, 0, 74, 60
1, 552947, Note_off_c, 0, 70, 65
1, 552964, Note_on_c, 0, 65, 80
1, 552990, Note_off_c, 0, 58, 59
1, 553003, Note_off_c, 0, 46, 61
1, 553037, Note_on_c, 0, 70, 78
1, 553057, Note_off_c, 0, 65, 62
1, 553096, Note_off_c, 0, 70, 64
1, 553105, Note_on_c, 0, 74, 80
1, 553173, Note_on_c, 0, 70, 79
1, 553194, Note_off_c, 0, 74, 63
1, 553254, Note_on_c, 0, 57, 87
1, 553256, Note_on_c, 0, 45, 81
1, 553257, Note_on_c, 0, 72, 76
1, 553263, Note_off_c, 0, 70, 63
1, 553331, Note_on_c, 0, 69, 73
1, 553349, Note_off_c, 0, 72, 58
1, 553399, Note_off_c, 0, 69, 63
1, 553413, Note_off_c, 0, 57, 60
1, 553435, Note_on_c, 0, 65, 47
1, 553440, Note_off_c, 0, 45, 62
1, 553486, Note_on_c, 0, 69, 75
1, 553501, Note_off_c, 0, 65, 63
1, 553551, Note_off_c, 0, 69, 61
1, 553558, Note_on_c, 0, 72, 72
1, 553621, Note_off_c, 0, 72, 62
1, 553622, Note_on_c, 0, 69, 70
1, 553698, Note_off_c, 0, 69, 62
1, 553716, Note_on_c, 0, 75, 74
1, 553719, Note_on_c, 0, 55, 86
1, 553722, Note_on_c, 0, 43, 84
1, 553791, Note_on_c, 0, 70, 70
1, 553825, Note_off_c, 0, 75, 54
1, 553857, Note_off_c, 0, 70, 64
1, 553878, Note_on_c, 0, 67, 60
1, 553948, Note_off_c, 0, 67, 61
1, 553954, Note_on_c, 0, 70, 70
1, 554013, Note_off_c, 0, 70, 64
1, 554025, Note_on_c, 0, 75, 73
1, 554083, Note_off_c, 0, 75, 63
1, 554100, Note_on_c, 0, 70, 73
1, 554170, Note_off_c, 0, 70, 61
1, 554176, Note_on_c, 0, 75, 75
1, 554181, Control_c, 0, 64, 30
1, 554196, Control_c, 0, 64, 0
1, 554241, Note_off_c, 0, 75, 64
1, 554255, Note_on_c, 0, 70, 74
1, 554287, Note_off_c, 0, 55, 57
1, 554326, Note_on_c, 0, 75, 74
1, 554326, Note_off_c, 0, 43, 59
1, 554326, Note_off_c, 0, 70, 57
1, 554392, Note_off_c, 0, 75, 60
1, 554401, Note_on_c, 0, 70, 69
1, 554467, Note_on_c, 0, 74, 78
1, 554479, Note_off_c, 0, 70, 62
1, 554480, Note_on_c, 0, 42, 68
1, 554481, Note_on_c, 0, 54, 69
1, 554535, Note_off_c, 0, 74, 62
1, 554538, Note_off_c, 0, 42, 61
1, 554547, Note_off_c, 0, 54, 61
1, 554551, Note_on_c, 0, 69, 74
1, 554629, Note_on_c, 0, 75, 79
1, 554631, Note_off_c, 0, 69, 61
1, 554631, Note_on_c, 0, 55, 79
1, 554635, Note_on_c, 0, 43, 76
1, 554641, Control_c, 0, 64, 44
1, 554655, Control_c, 0, 64, 46
1, 554670, Control_c, 0, 64, 43
1, 554685, Control_c, 0, 64, 39
1, 554700, Control_c, 0, 64, 35
1, 554702, Note_on_c, 0, 70, 78
1, 554729, Control_c, 0, 64, 36
1, 554744, Control_c, 0, 64, 37
1, 554750, Note_off_c, 0, 75, 57
1, 554756, Note_off_c, 0, 70, 65
1, 554771, Note_on_c, 0, 67, 78
1, 554771, Note_off_c, 0, 55, 58
1, 554774, Control_c, 0, 64, 37
1, 554811, Note_off_c, 0, 43, 62
1, 554849, Note_on_c, 0, 70, 80
1, 554861, Note_off_c, 0, 67, 59
1, 554900, Control_c, 0, 64, 37
1, 554921, Note_off_c, 0, 70, 63
1, 554929, Note_on_c, 0, 75, 81
1, 554944, Control_c, 0, 64, 36
1, 554959, Control_c, 0, 64, 36
1, 554974, Control_c, 0, 64, 34
1, 554988, Control_c, 0, 64, 31
1, 554996, Note_on_c, 0, 70, 72
1, 555003, Control_c, 0, 64, 0
1, 555014, Note_off_c, 0, 75, 61
1, 555069, Note_off_c, 0, 70, 64
1, 555071, Note_on_c, 0, 53, 82
1, 555075, Note_on_c, 0, 41, 79
1, 555079, Note_on_c, 0, 74, 79
1, 555157, Note_on_c, 0, 69, 72
1, 555167, Control_c, 0, 64, 37
1, 555172, Note_off_c, 0, 74, 58
1, 555182, Control_c, 0, 64, 49
1, 555197, Control_c, 0, 64, 55
1, 555212, Control_c, 0, 64, 58
1, 555214, Note_off_c, 0, 69, 64
1, 555227, Control_c, 0, 64, 58
1, 555229, Note_on_c, 0, 65, 76
1, 555242, Control_c, 0, 64, 59
1, 555257, Control_c, 0, 64, 59
1, 555274, Note_off_c, 0, 53, 60
1, 555286, Control_c, 0, 64, 60
1, 555297, Note_on_c, 0, 69, 73
1, 555303, Note_off_c, 0, 65, 61
1, 555343, Note_off_c, 0, 41, 57
1, 555345, Control_c, 0, 64, 59
1, 555358, Note_on_c, 0, 74, 78
1, 555364, Note_off_c, 0, 69, 62
1, 555404, Control_c, 0, 64, 59
1, 555420, Note_off_c, 0, 74, 63
1, 555437, Note_on_c, 0, 69, 69
1, 555493, Control_c, 0, 64, 58
1, 555508, Control_c, 0, 64, 54
1, 555510, Note_off_c, 0, 69, 60
1, 555514, Note_on_c, 0, 51, 83
1, 555516, Note_on_c, 0, 79, 79
1, 555517, Note_on_c, 0, 39, 85
1, 555523, Control_c, 0, 64, 38
1, 555537, Control_c, 0, 64, 0
1, 555580, Note_on_c, 0, 70, 75
1, 555649, Note_off_c, 0, 70, 64
1, 555654, Note_off_c, 0, 79, 57
1, 555668, Note_on_c, 0, 67, 74
1, 555731, Note_off_c, 0, 67, 60
1, 555746, Note_on_c, 0, 70, 76
1, 555796, Note_off_c, 0, 70, 63
1, 555819, Note_on_c, 0, 79, 79
1, 555880, Note_off_c, 0, 79, 64
1, 555893, Note_on_c, 0, 70, 73
1, 555946, Control_c, 0, 64, 37
1, 555953, Note_off_c, 0, 70, 63
1, 555960, Control_c, 0, 64, 42
1, 555971, Note_on_c, 0, 79, 86
1, 555975, Control_c, 0, 64, 0
1, 556035, Note_off_c, 0, 79, 63
1, 556041, Note_on_c, 0, 70, 73
1, 556079, Note_off_c, 0, 51, 58
1, 556108, Note_off_c, 0, 70, 58
1, 556113, Note_off_c, 0, 39, 56
1, 556117, Note_on_c, 0, 79, 82
1, 556190, Note_on_c, 0, 70, 68
1, 556198, Note_off_c, 0, 79, 64
1, 556255, Note_on_c, 0, 38, 52
1, 556259, Note_off_c, 0, 70, 64
1, 556264, Note_on_c, 0, 50, 42
1, 556264, Note_on_c, 0, 77, 66
1, 556286, Note_off_c, 0, 38, 63
1, 556294, Note_off_c, 0, 50, 58
1, 556343, Note_on_c, 0, 70, 69
1, 556365, Note_off_c, 0, 77, 61
1, 556446, Note_on_c, 0, 48, 73
1, 556464, Note_off_c, 0, 70, 60
1, 556544, Note_on_c, 0, 55, 63
1, 556576, Note_off_c, 0, 48, 62
1, 556605, Control_c, 0, 64, 34
1, 556620, Control_c, 0, 64, 45
1, 556625, Note_on_c, 0, 58, 75
1, 556634, Control_c, 0, 64, 52
1, 556649, Control_c, 0, 64, 57
1, 556657, Note_off_c, 0, 55, 62
1, 556664, Control_c, 0, 64, 59
1, 556679, Control_c, 0, 64, 60
1, 556694, Control_c, 0, 64, 61
1, 556709, Control_c, 0, 64, 61
1, 556714, Note_off_c, 0, 58, 62
1, 556717, Note_on_c, 0, 67, 63
1, 556718, Note_on_c, 0, 65, 63
1, 556724, Control_c, 0, 64, 62
1, 556774, Note_on_c, 0, 70, 75
1, 556774, Note_off_c, 0, 65, 51
1, 556783, Control_c, 0, 64, 61
1, 556798, Control_c, 0, 64, 57
1, 556811, Note_off_c, 0, 67, 62
1, 556813, Control_c, 0, 64, 47
1, 556828, Control_c, 0, 64, 0
1, 556836, Note_on_c, 0, 76, 79
1, 556856, Note_off_c, 0, 70, 61
1, 556894, Note_on_c, 0, 54, 79
1, 556925, Note_off_c, 0, 76, 62
1, 556981, Note_on_c, 0, 57, 77
1, 557017, Note_off_c, 0, 54, 62
1, 557051, Note_on_c, 0, 60, 70
1, 557056, Note_off_c, 0, 57, 64
1, 557140, Note_on_c, 0, 69, 74
1, 557170, Note_off_c, 0, 60, 60
1, 557209, Note_on_c, 0, 72, 77
1, 557247, Note_off_c, 0, 69, 60
1, 557278, Note_on_c, 0, 75, 76
1, 557301, Note_off_c, 0, 72, 63
1, 557355, Note_on_c, 0, 55, 72
1, 557376, Note_off_c, 0, 75, 62
1, 557436, Note_on_c, 0, 58, 72
1, 557450, Note_off_c, 0, 55, 63
1, 557510, Note_off_c, 0, 58, 64
1, 557513, Note_on_c, 0, 62, 70
1, 557573, Note_on_c, 0, 67, 68
1, 557610, Note_off_c, 0, 62, 56
1, 557656, Note_on_c, 0, 70, 70
1, 557695, Note_off_c, 0, 67, 54
1, 557713, Note_on_c, 0, 74, 74
1, 557737, Note_off_c, 0, 70, 62
1, 557777, Note_off_c, 0, 74, 65
1, 557787, Note_on_c, 0, 51, 72
1, 557870, Note_on_c, 0, 55, 72
1, 557895, Note_off_c, 0, 51, 61
1, 557942, Note_off_c, 0, 55, 63
1, 557960, Note_on_c, 0, 60, 59
1, 557999, Note_on_c, 0, 59, 27
1, 558019, Note_off_c, 0, 60, 64
1, 558030, Note_on_c, 0, 63, 68
1, 558040, Note_off_c, 0, 59, 54
1, 558099, Note_on_c, 0, 67, 67
1, 558127, Note_off_c, 0, 63, 58
1, 558165, Note_on_c, 0, 72, 72
1, 558197, Note_off_c, 0, 67, 60
1, 558246, Note_on_c, 0, 41, 64
1, 558261, Note_off_c, 0, 72, 60
1, 558324, Note_on_c, 0, 50, 61
1, 558372, Note_off_c, 0, 41, 57
1, 558401, Note_off_c, 0, 50, 63
1, 558414, Note_on_c, 0, 53, 65
1, 558487, Note_off_c, 0, 53, 61
1, 558494, Note_on_c, 0, 62, 59
1, 558551, Note_on_c, 0, 65, 59
1, 558630, Note_on_c, 0, 70, 69
1, 558652, Note_off_c, 0, 62, 46
1, 558663, Note_off_c, 0, 65, 55
1, 558732, Note_on_c, 0, 41, 62
1, 558758, Note_off_c, 0, 70, 60
1, 558828, Note_on_c, 0, 48, 67
1, 558918, Note_on_c, 0, 53, 69
1, 558926, Note_off_c, 0, 48, 63
1, 558939, Note_off_c, 0, 41, 35
1, 558981, Note_off_c, 0, 53, 62
1, 558995, Note_on_c, 0, 63, 58
1, 559066, Note_on_c, 0, 65, 65
1, 559075, Note_off_c, 0, 63, 61
1, 559147, Note_on_c, 0, 69, 67
1, 559162, Note_off_c, 0, 65, 60
1, 559269, Note_off_c, 0, 69, 58
1, 559290, Note_on_c, 0, 34, 81
1, 560160, Note_on_c, 0, 38, 49
1, 560326, Note_on_c, 0, 41, 59
1, 560520, Note_on_c, 0, 46, 75
1, 560524, Note_off_c, 0, 38, 34
1, 560593, Note_off_c, 0, 41, 56
1, 560596, Note_off_c, 0, 34, 39
1, 560713, Note_on_c, 0, 50, 54
1, 560853, Control_c, 0, 64, 29
1, 560865, Note_on_c, 0, 53, 62
1, 560875, Control_c, 0, 64, 39
1, 560888, Note_off_c, 0, 50, 61
1, 560890, Control_c, 0, 64, 49
1, 560905, Control_c, 0, 64, 53
1, 560920, Control_c, 0, 64, 55
1, 560935, Control_c, 0, 64, 56
1, 560949, Control_c, 0, 64, 58
1, 560964, Control_c, 0, 64, 59
1, 560979, Control_c, 0, 64, 61
1, 560994, Control_c, 0, 64, 62
1, 561009, Control_c, 0, 64, 63
1, 561023, Control_c, 0, 64, 64
1, 561037, Note_on_c, 0, 58, 66
1, 561038, Control_c, 0, 64, 66
1, 561044, Note_off_c, 0, 53, 63
1, 561053, Control_c, 0, 64, 67
1, 561068, Control_c, 0, 64, 69
1, 561082, Control_c, 0, 64, 71
1, 561097, Control_c, 0, 64, 72
1, 561112, Control_c, 0, 64, 74
1, 561127, Control_c, 0, 64, 75
1, 561142, Control_c, 0, 64, 77
1, 561156, Control_c, 0, 64, 78
1, 561164, Note_off_c, 0, 58, 63
1, 561171, Control_c, 0, 64, 79
1, 561186, Note_on_c, 0, 62, 65
1, 561186, Control_c, 0, 64, 79
1, 561201, Control_c, 0, 64, 80
1, 561216, Control_c, 0, 64, 80
1, 561245, Control_c, 0, 64, 81
1, 561356, Note_on_c, 0, 65, 65
1, 561428, Note_off_c, 0, 46, 37
1, 561469, Note_off_c, 0, 62, 29
1, 561482, Control_c, 0, 64, 80
1, 561513, Control_c, 0, 64, 80
1, 561528, Control_c, 0, 64, 79
1, 561543, Control_c, 0, 64, 78
1, 561558, Control_c, 0, 64, 77
1, 561561, Note_on_c, 0, 66, 59
1, 561569, Note_on_c, 0, 51, 47
1, 561573, Control_c, 0, 64, 75
1, 561579, Note_on_c, 0, 48, 42
1, 561581, Note_on_c, 0, 45, 42
1, 561588, Control_c, 0, 64, 72
1, 561598, Note_off_c, 0, 65, 61
1, 561603, Control_c, 0, 64, 69
1, 561625, Control_c, 0, 64, 65
1, 561640, Control_c, 0, 64, 60
1, 561654, Control_c, 0, 64, 52
1, 561669, Control_c, 0, 64, 42
1, 561684, Control_c, 0, 64, 35
1, 561698, Control_c, 0, 64, 35
1, 561713, Control_c, 0, 64, 36
1, 561728, Control_c, 0, 64, 38
1, 561743, Control_c, 0, 64, 43
1, 561758, Control_c, 0, 64, 49
1, 561773, Control_c, 0, 64, 54
1, 561783, Note_on_c, 0, 69, 62
1, 561788, Control_c, 0, 64, 58
1, 561803, Control_c, 0, 64, 59
1, 561811, Note_off_c, 0, 66, 61
1, 561818, Control_c, 0, 64, 60
1, 561832, Control_c, 0, 64, 61
1, 561847, Control_c, 0, 64, 62
1, 561862, Control_c, 0, 64, 63
1, 561877, Control_c, 0, 64, 63
1, 561892, Control_c, 0, 64, 64
1, 561898, Note_off_c, 0, 69, 61
1, 561937, Note_on_c, 0, 72, 72
1, 562010, Control_c, 0, 64, 63
1, 562084, Control_c, 0, 64, 63
1, 562091, Note_on_c, 0, 75, 73
1, 562158, Control_c, 0, 64, 62
1, 562169, Note_off_c, 0, 72, 33
1, 562202, Control_c, 0, 64, 62
1, 562247, Note_on_c, 0, 78, 81
1, 562277, Control_c, 0, 64, 61
1, 562292, Control_c, 0, 64, 61
1, 562307, Control_c, 0, 64, 60
1, 562316, Note_off_c, 0, 75, 61
1, 562336, Control_c, 0, 64, 60
1, 562366, Control_c, 0, 64, 59
1, 562389, Control_c, 0, 64, 58
1, 562402, Note_on_c, 0, 81, 81
1, 562403, Control_c, 0, 64, 58
1, 562418, Control_c, 0, 64, 57
1, 562433, Control_c, 0, 64, 57
1, 562447, Control_c, 0, 64, 56
1, 562477, Control_c, 0, 64, 56
1, 562487, Note_off_c, 0, 78, 56
1, 562492, Control_c, 0, 64, 55
1, 562507, Control_c, 0, 64, 55
1, 562521, Control_c, 0, 64, 54
1, 562536, Control_c, 0, 64, 54
1, 562551, Control_c, 0, 64, 53
1, 562566, Control_c, 0, 64, 52
1, 562581, Control_c, 0, 64, 51
1, 562596, Control_c, 0, 64, 50
1, 562608, Note_on_c, 0, 84, 77
1, 562611, Control_c, 0, 64, 48
1, 562620, Note_on_c, 0, 54, 50
1, 562626, Control_c, 0, 64, 44
1, 562640, Control_c, 0, 64, 38
1, 562655, Control_c, 0, 64, 0
1, 562665, Note_off_c, 0, 81, 54
1, 562768, Note_off_c, 0, 51, 34
1, 562801, Note_on_c, 0, 81, 61
1, 562961, Note_on_c, 0, 78, 62
1, 562972, Note_off_c, 0, 84, 36
1, 563057, Note_off_c, 0, 81, 35
1, 563129, Note_on_c, 0, 75, 52
1, 563145, Note_off_c, 0, 78, 52
1, 563182, Control_c, 0, 64, 33
1, 563197, Control_c, 0, 64, 43
1, 563212, Control_c, 0, 64, 51
1, 563226, Control_c, 0, 64, 56
1, 563241, Control_c, 0, 64, 58
1, 563256, Control_c, 0, 64, 60
1, 563266, Note_off_c, 0, 75, 62
1, 563271, Control_c, 0, 64, 60
1, 563285, Control_c, 0, 64, 62
1, 563298, Note_on_c, 0, 74, 52
1, 563300, Control_c, 0, 64, 62
1, 563315, Control_c, 0, 64, 63
1, 563330, Control_c, 0, 64, 63
1, 563336, Note_off_c, 0, 74, 65
1, 563372, Note_off_c, 0, 48, 51
1, 563399, Note_off_c, 0, 45, 31
1, 563445, Note_on_c, 0, 66, 51
1, 563459, Note_off_c, 0, 54, 39
1, 563478, Control_c, 0, 64, 63
1, 563567, Control_c, 0, 64, 62
1, 563582, Control_c, 0, 64, 60
1, 563596, Control_c, 0, 64, 57
1, 563611, Control_c, 0, 64, 54
1, 563622, Note_on_c, 0, 46, 44
1, 563625, Note_on_c, 0, 50, 42
1, 563625, Note_on_c, 0, 69, 52
1, 563626, Control_c, 0, 64, 52
1, 563628, Note_on_c, 0, 55, 37
1, 563632, Note_off_c, 0, 66, 61
1, 563670, Control_c, 0, 64, 53
1, 563685, Control_c, 0, 64, 54
1, 563700, Control_c, 0, 64, 56
1, 563715, Control_c, 0, 64, 58
1, 563730, Control_c, 0, 64, 60
1, 563744, Control_c, 0, 64, 61
1, 563746, Note_off_c, 0, 69, 60
1, 563759, Control_c, 0, 64, 61
1, 563774, Control_c, 0, 64, 62
1, 563782, Note_on_c, 0, 67, 58
1, 563803, Control_c, 0, 64, 62
1, 563930, Control_c, 0, 64, 62
1, 563936, Note_on_c, 0, 73, 65
1, 563945, Control_c, 0, 64, 61
1, 563960, Control_c, 0, 64, 60
1, 563973, Note_off_c, 0, 67, 44
1, 563974, Control_c, 0, 64, 57
1, 563989, Control_c, 0, 64, 54
1, 564004, Control_c, 0, 64, 52
1, 564048, Control_c, 0, 64, 53
1, 564063, Control_c, 0, 64, 53
1, 564078, Control_c, 0, 64, 55
1, 564093, Control_c, 0, 64, 56
1, 564104, Note_on_c, 0, 74, 76
1, 564107, Control_c, 0, 64, 57
1, 564122, Control_c, 0, 64, 58
1, 564136, Note_off_c, 0, 73, 61
1, 564137, Control_c, 0, 64, 58
1, 564167, Control_c, 0, 64, 59
1, 564241, Control_c, 0, 64, 58
1, 564254, Note_off_c, 0, 74, 64
1, 564256, Note_on_c, 0, 78, 74
1, 564300, Control_c, 0, 64, 58
1, 564330, Control_c, 0, 64, 57
1, 564360, Control_c, 0, 64, 57
1, 564374, Control_c, 0, 64, 56
1, 564375, Note_off_c, 0, 78, 63
1, 564389, Control_c, 0, 64, 56
1, 564402, Note_on_c, 0, 79, 80
1, 564404, Control_c, 0, 64, 55
1, 564418, Control_c, 0, 64, 55
1, 564433, Control_c, 0, 64, 54
1, 564448, Control_c, 0, 64, 54
1, 564463, Control_c, 0, 64, 52
1, 564478, Control_c, 0, 64, 51
1, 564492, Control_c, 0, 64, 49
1, 564507, Control_c, 0, 64, 48
1, 564522, Control_c, 0, 64, 46
1, 564537, Control_c, 0, 64, 44
1, 564552, Control_c, 0, 64, 42
1, 564567, Control_c, 0, 64, 37
1, 564569, Note_on_c, 0, 85, 75
1, 564582, Control_c, 0, 64, 34
1, 564597, Control_c, 0, 64, 32
1, 564632, Note_off_c, 0, 79, 56
1, 564726, Note_on_c, 0, 86, 79
1, 564781, Note_off_c, 0, 85, 59
1, 564866, Note_on_c, 0, 81, 70
1, 564904, Note_off_c, 0, 86, 60
1, 565005, Control_c, 0, 64, 30
1, 565036, Note_on_c, 0, 82, 70
1, 565049, Note_off_c, 0, 81, 62
1, 565064, Control_c, 0, 64, 0
1, 565082, Note_off_c, 0, 50, 58
1, 565082, Note_off_c, 0, 46, 54
1, 565098, Note_off_c, 0, 55, 51
1, 565189, Note_on_c, 0, 78, 57
1, 565197, Note_off_c, 0, 82, 53
1, 565198, Control_c, 0, 67, 20
1, 565213, Control_c, 0, 67, 24
1, 565228, Control_c, 0, 67, 28
1, 565242, Control_c, 0, 67, 31
1, 565331, Control_c, 0, 67, 29
1, 565341, Note_on_c, 0, 79, 56
1, 565344, Note_off_c, 0, 78, 57
1, 565380, Note_off_c, 0, 79, 66
1, 565524, Note_on_c, 0, 61, 45
1, 565535, Note_on_c, 0, 58, 37
1, 565687, Note_on_c, 0, 77, 58
1, 565725, Note_off_c, 0, 58, 55
1, 565732, Note_off_c, 0, 61, 52
1, 565813, Control_c, 0, 67, 27
1, 565840, Note_on_c, 0, 76, 67
1, 565860, Note_off_c, 0, 77, 61
1, 565871, Note_off_c, 0, 76, 63
1, 565994, Note_on_c, 0, 61, 58
1, 566000, Note_on_c, 0, 58, 53
1, 566150, Note_on_c, 0, 76, 78
1, 566161, Note_off_c, 0, 58, 51
1, 566296, Note_off_c, 0, 61, 45
1, 566314, Note_on_c, 0, 85, 85
1, 566357, Note_off_c, 0, 76, 60
1, 566381, Note_off_c, 0, 85, 64
1, 566384, Control_c, 0, 67, 29
1, 566414, Control_c, 0, 67, 32
1, 566429, Control_c, 0, 67, 35
1, 566444, Control_c, 0, 67, 44
1, 566459, Control_c, 0, 67, 57
1, 566474, Control_c, 0, 67, 71
1, 566488, Control_c, 0, 67, 84
1, 566497, Note_on_c, 0, 60, 43
1, 566503, Control_c, 0, 67, 94
1, 566504, Note_on_c, 0, 58, 40
1, 566518, Control_c, 0, 67, 101
1, 566533, Control_c, 0, 67, 106
1, 566548, Control_c, 0, 67, 108
1, 566665, Note_on_c, 0, 85, 65
1, 566695, Control_c, 0, 67, 106
1, 566799, Note_off_c, 0, 60, 38
1, 566814, Note_off_c, 0, 58, 39
1, 566814, Control_c, 0, 67, 104
1, 566825, Note_on_c, 0, 84, 54
1, 566829, Note_off_c, 0, 85, 58
1, 566869, Note_off_c, 0, 84, 55
1, 566896, Control_c, 0, 67, 102
1, 566926, Control_c, 0, 67, 100
1, 566970, Control_c, 0, 67, 98
1, 567001, Note_on_c, 0, 58, 29
1, 567014, Note_on_c, 0, 60, 32
1, 567015, Control_c, 0, 67, 95
1, 567044, Control_c, 0, 67, 94
1, 567059, Control_c, 0, 67, 94
1, 567074, Control_c, 0, 67, 93
1, 567090, Control_c, 0, 67, 88
1, 567105, Control_c, 0, 67, 81
1, 567119, Control_c, 0, 67, 73
1, 567131, Note_off_c, 0, 60, 62
1, 567134, Control_c, 0, 67, 65
1, 567149, Control_c, 0, 67, 57
1, 567156, Note_on_c, 0, 84, 49
1, 567164, Control_c, 0, 67, 46
1, 567165, Note_off_c, 0, 58, 58
1, 567178, Control_c, 0, 67, 36
1, 567193, Control_c, 0, 67, 25
1, 567208, Control_c, 0, 67, 0
1, 567303, Note_on_c, 0, 76, 56
1, 567322, Note_off_c, 0, 84, 37
1, 567362, Note_off_c, 0, 76, 55
1, 567481, Note_on_c, 0, 56, 78
1, 567481, Note_on_c, 0, 44, 78
1, 567682, Note_on_c, 0, 76, 80
1, 567846, Note_on_c, 0, 77, 83
1, 567867, Note_off_c, 0, 76, 64
1, 568025, Note_on_c, 0, 84, 80
1, 568092, Note_off_c, 0, 77, 59
1, 568212, Note_on_c, 0, 79, 78
1, 568271, Note_off_c, 0, 84, 60
1, 568351, Note_on_c, 0, 82, 83
1, 568403, Note_off_c, 0, 79, 62
1, 568505, Note_on_c, 0, 80, 79
1, 568560, Note_off_c, 0, 82, 61
1, 568658, Note_on_c, 0, 76, 76
1, 568666, Note_off_c, 0, 80, 63
1, 568810, Note_on_c, 0, 79, 80
1, 568837, Note_off_c, 0, 76, 61
1, 568960, Note_on_c, 0, 77, 66
1, 569046, Control_c, 0, 64, 39
1, 569046, Note_off_c, 0, 79, 38
1, 569061, Control_c, 0, 64, 49
1, 569076, Control_c, 0, 64, 56
1, 569090, Control_c, 0, 64, 61
1, 569091, Note_off_c, 0, 44, 62
1, 569112, Control_c, 0, 64, 63
1, 569115, Note_on_c, 0, 75, 64
1, 569127, Control_c, 0, 64, 65
1, 569142, Control_c, 0, 64, 67
1, 569151, Note_off_c, 0, 56, 61
1, 569151, Note_off_c, 0, 77, 60
1, 569157, Control_c, 0, 64, 68
1, 569172, Control_c, 0, 64, 69
1, 569258, Note_on_c, 0, 73, 70
1, 569290, Control_c, 0, 64, 68
1, 569305, Control_c, 0, 64, 68
1, 569320, Control_c, 0, 64, 67
1, 569334, Control_c, 0, 64, 66
1, 569341, Note_off_c, 0, 75, 55
1, 569349, Control_c, 0, 64, 65
1, 569364, Control_c, 0, 64, 64
1, 569379, Control_c, 0, 64, 62
1, 569394, Control_c, 0, 64, 60
1, 569408, Control_c, 0, 64, 58
1, 569423, Control_c, 0, 64, 55
1, 569433, Note_on_c, 0, 72, 63
1, 569436, Note_on_c, 0, 62, 40
1, 569438, Control_c, 0, 64, 52
1, 569453, Control_c, 0, 64, 48
1, 569468, Control_c, 0, 64, 42
1, 569484, Control_c, 0, 64, 33
1, 569496, Note_off_c, 0, 73, 59
1, 569499, Control_c, 0, 64, 0
1, 569610, Note_on_c, 0, 64, 41
1, 569661, Control_c, 0, 64, 34
1, 569676, Control_c, 0, 64, 41
1, 569691, Control_c, 0, 64, 46
1, 569706, Control_c, 0, 64, 50
1, 569720, Control_c, 0, 64, 51
1, 569735, Control_c, 0, 64, 52
1, 569751, Note_on_c, 0, 65, 47
1, 569768, Note_off_c, 0, 64, 58
1, 569839, Control_c, 0, 64, 51
1, 569854, Control_c, 0, 64, 48
1, 569877, Control_c, 0, 64, 43
1, 569892, Control_c, 0, 64, 38
1, 569905, Note_off_c, 0, 65, 53
1, 569907, Control_c, 0, 64, 32
1, 569920, Note_on_c, 0, 68, 45
1, 569921, Control_c, 0, 64, 29
1, 569925, Note_on_c, 0, 71, 52
1, 569936, Control_c, 0, 64, 0
1, 569956, Note_off_c, 0, 72, 52
1, 569980, Control_c, 0, 64, 29
1, 569995, Control_c, 0, 64, 32
1, 570010, Control_c, 0, 64, 35
1, 570025, Control_c, 0, 64, 40
1, 570039, Control_c, 0, 64, 46
1, 570054, Control_c, 0, 64, 52
1, 570069, Control_c, 0, 64, 56
1, 570084, Control_c, 0, 64, 59
1, 570086, Note_on_c, 0, 64, 44
1, 570096, Note_off_c, 0, 68, 48
1, 570099, Control_c, 0, 64, 63
1, 570114, Control_c, 0, 64, 65
1, 570128, Control_c, 0, 64, 67
1, 570137, Note_off_c, 0, 71, 60
1, 570143, Control_c, 0, 64, 70
1, 570158, Control_c, 0, 64, 72
1, 570172, Note_off_c, 0, 62, 37
1, 570173, Control_c, 0, 64, 73
1, 570227, Note_off_c, 0, 64, 61
1, 570227, Note_on_c, 0, 65, 54
1, 570322, Control_c, 0, 64, 72
1, 570337, Control_c, 0, 64, 72
1, 570367, Control_c, 0, 64, 71
1, 570381, Control_c, 0, 64, 70
1, 570396, Control_c, 0, 64, 69
1, 570400, Note_on_c, 0, 77, 61
1, 570411, Control_c, 0, 64, 66
1, 570420, Note_on_c, 0, 68, 38
1, 570426, Control_c, 0, 64, 64
1, 570433, Note_on_c, 0, 61, 36
1, 570438, Note_off_c, 0, 65, 37
1, 570441, Control_c, 0, 64, 62
1, 570455, Control_c, 0, 64, 59
1, 570470, Control_c, 0, 64, 56
1, 570485, Control_c, 0, 64, 55
1, 570500, Control_c, 0, 64, 54
1, 570514, Control_c, 0, 64, 53
1, 570559, Control_c, 0, 64, 54
1, 570574, Control_c, 0, 64, 54
1, 570581, Note_off_c, 0, 68, 42
1, 570588, Control_c, 0, 64, 55
1, 570593, Note_on_c, 0, 64, 42
1, 570611, Control_c, 0, 64, 57
1, 570626, Control_c, 0, 64, 58
1, 570641, Control_c, 0, 64, 59
1, 570656, Control_c, 0, 64, 59
1, 570670, Control_c, 0, 64, 60
1, 570746, Note_off_c, 0, 64, 52
1, 570748, Note_on_c, 0, 65, 44
1, 570774, Control_c, 0, 64, 59
1, 570788, Control_c, 0, 64, 58
1, 570803, Control_c, 0, 64, 56
1, 570818, Control_c, 0, 64, 54
1, 570833, Control_c, 0, 64, 51
1, 570848, Control_c, 0, 64, 48
1, 570862, Control_c, 0, 64, 46
1, 570898, Note_on_c, 0, 71, 41
1, 570901, Note_on_c, 0, 68, 47
1, 570907, Control_c, 0, 64, 47
1, 570913, Note_off_c, 0, 65, 42
1, 570921, Control_c, 0, 64, 49
1, 570930, Note_off_c, 0, 77, 33
1, 570936, Control_c, 0, 64, 52
1, 570951, Control_c, 0, 64, 55
1, 570966, Control_c, 0, 64, 58
1, 570981, Control_c, 0, 64, 60
1, 570996, Control_c, 0, 64, 61
1, 571011, Note_off_c, 0, 68, 61
1, 571011, Control_c, 0, 64, 63
1, 571026, Control_c, 0, 64, 64
1, 571041, Control_c, 0, 64, 65
1, 571055, Control_c, 0, 64, 67
1, 571056, Note_on_c, 0, 67, 40
1, 571065, Note_off_c, 0, 71, 61
1, 571070, Control_c, 0, 64, 68
1, 571085, Control_c, 0, 64, 68
1, 571100, Control_c, 0, 64, 69
1, 571115, Control_c, 0, 64, 70
1, 571122, Note_off_c, 0, 61, 53
1, 571130, Control_c, 0, 64, 71
1, 571170, Note_off_c, 0, 67, 51
1, 571205, Note_on_c, 0, 65, 52
1, 571229, Note_off_c, 0, 65, 58
1, 571264, Control_c, 0, 64, 69
1, 571278, Control_c, 0, 64, 67
1, 571293, Control_c, 0, 64, 63
1, 571308, Control_c, 0, 64, 56
1, 571323, Control_c, 0, 64, 43
1, 571337, Control_c, 0, 64, 0
1, 571390, Note_on_c, 0, 48, 52
1, 571400, Note_on_c, 0, 60, 46
1, 571536, Note_on_c, 0, 72, 56
1, 571538, Note_on_c, 0, 64, 47
1, 571538, Note_on_c, 0, 67, 53
1, 571571, Note_off_c, 0, 67, 65
1, 571572, Note_off_c, 0, 64, 61
1, 571592, Note_off_c, 0, 72, 49
1, 571625, Note_off_c, 0, 60, 65
1, 571630, Note_off_c, 0, 48, 60
1, 571684, Note_on_c, 0, 71, 56
1, 571686, Note_on_c, 0, 74, 64
1, 571694, Note_on_c, 0, 65, 50
1, 571705, Note_off_c, 0, 71, 65
1, 571714, Note_off_c, 0, 74, 67
1, 571719, Note_off_c, 0, 65, 57
1, 571851, Note_on_c, 0, 48, 52
1, 571852, Note_on_c, 0, 60, 54
1, 572000, Note_on_c, 0, 74, 66
1, 572004, Note_on_c, 0, 71, 59
1, 572008, Note_on_c, 0, 65, 58
1, 572043, Note_off_c, 0, 71, 61
1, 572048, Note_off_c, 0, 60, 62
1, 572048, Note_off_c, 0, 65, 61
1, 572054, Note_off_c, 0, 48, 57
1, 572154, Note_on_c, 0, 76, 70
1, 572159, Note_on_c, 0, 70, 59
1, 572159, Note_off_c, 0, 74, 54
1, 572159, Note_on_c, 0, 67, 53
1, 572178, Note_off_c, 0, 70, 64
1, 572178, Note_off_c, 0, 76, 69
1, 572181, Note_off_c, 0, 67, 62
1, 572318, Note_on_c, 0, 48, 65
1, 572318, Note_on_c, 0, 60, 67
1, 572467, Note_on_c, 0, 76, 74
1, 572469, Note_on_c, 0, 67, 68
1, 572482, Note_on_c, 0, 70, 63
1, 572520, Note_off_c, 0, 70, 63
1, 572534, Note_off_c, 0, 67, 62
1, 572557, Note_off_c, 0, 60, 58
1, 572584, Note_off_c, 0, 48, 49
1, 572620, Note_on_c, 0, 77, 77
1, 572623, Note_on_c, 0, 72, 73
1, 572624, Note_on_c, 0, 69, 62
1, 572635, Note_off_c, 0, 76, 60
1, 572646, Note_off_c, 0, 72, 68
1, 572655, Note_off_c, 0, 69, 65
1, 572668, Note_off_c, 0, 77, 62
1, 572767, Note_on_c, 0, 60, 77
1, 572770, Note_on_c, 0, 48, 74
1, 572923, Note_on_c, 0, 78, 79
1, 572924, Note_on_c, 0, 69, 75
1, 572931, Note_on_c, 0, 72, 65
1, 572967, Note_off_c, 0, 72, 60
1, 572983, Note_off_c, 0, 60, 61
1, 572987, Note_off_c, 0, 69, 60
1, 572998, Note_off_c, 0, 48, 62
1, 573065, Note_on_c, 0, 79, 85
1, 573067, Note_on_c, 0, 76, 83
1, 573074, Note_on_c, 0, 70, 84
1, 573088, Note_off_c, 0, 78, 40
1, 573116, Note_off_c, 0, 76, 60
1, 573122, Note_off_c, 0, 70, 60
1, 573135, Note_off_c, 0, 79, 65
1, 573208, Note_on_c, 0, 60, 87
1, 573210, Note_on_c, 0, 48, 81
1, 573366, Note_on_c, 0, 79, 84
1, 573369, Note_on_c, 0, 76, 82
1, 573370, Note_on_c, 0, 70, 80
1, 573446, Note_off_c, 0, 70, 64
1, 573449, Note_off_c, 0, 76, 60
1, 573481, Note_off_c, 0, 60, 41
1, 573485, Note_off_c, 0, 79, 56
1, 573491, Note_off_c, 0, 48, 60
1, 573509, Note_on_c, 0, 77, 83
1, 573512, Note_on_c, 0, 72, 78
1, 573515, Note_on_c, 0, 81, 84
1, 573551, Note_off_c, 0, 72, 59
1, 573556, Note_off_c, 0, 77, 65
1, 573570, Note_off_c, 0, 81, 64
1, 573653, Note_on_c, 0, 48, 80
1, 573654, Note_on_c, 0, 60, 87
1, 573798, Note_on_c, 0, 81, 88
1, 573803, Note_on_c, 0, 78, 81
1, 573804, Note_on_c, 0, 72, 83
1, 573804, Note_off_c, 0, 60, 64
1, 573853, Note_off_c, 0, 48, 62
1, 573858, Note_off_c, 0, 78, 64
1, 573859, Note_off_c, 0, 81, 64
1, 573863, Note_off_c, 0, 72, 61
1, 573948, Note_on_c, 0, 82, 93
1, 573953, Note_on_c, 0, 76, 74
1, 573953, Note_on_c, 0, 79, 72
1, 573990, Note_off_c, 0, 76, 59
1, 574023, Note_off_c, 0, 79, 52
1, 574024, Note_off_c, 0, 82, 61
1, 574117, Note_on_c, 0, 79, 81
1, 574119, Note_on_c, 0, 76, 90
1, 574121, Note_on_c, 0, 82, 99
1, 574123, Note_on_c, 0, 36, 82
1, 574192, Note_off_c, 0, 36, 60
1, 574285, Note_on_c, 0, 40, 82
1, 574346, Note_off_c, 0, 40, 64
1, 574444, Note_on_c, 0, 43, 83
1, 574495, Note_off_c, 0, 43, 63
1, 574547, Control_c, 0, 64, 34
1, 574561, Control_c, 0, 64, 40
1, 574576, Control_c, 0, 64, 45
1, 574582, Note_on_c, 0, 48, 80
1, 574591, Control_c, 0, 64, 49
1, 574606, Control_c, 0, 64, 52
1, 574621, Control_c, 0, 64, 53
1, 574636, Control_c, 0, 64, 54
1, 574640, Note_off_c, 0, 48, 65
1, 574647, Note_off_c, 0, 79, 61
1, 574650, Control_c, 0, 64, 55
1, 574665, Control_c, 0, 64, 56
1, 574680, Control_c, 0, 64, 56
1, 574684, Note_off_c, 0, 76, 59
1, 574731, Note_on_c, 0, 52, 73
1, 574785, Note_off_c, 0, 52, 63
1, 574858, Control_c, 0, 64, 56
1, 574868, Note_on_c, 0, 55, 87
1, 574902, Control_c, 0, 64, 55
1, 574913, Note_off_c, 0, 55, 65
1, 574961, Control_c, 0, 64, 55
1, 574976, Control_c, 0, 64, 54
1, 574991, Control_c, 0, 64, 54
1, 575006, Control_c, 0, 64, 52
1, 575020, Control_c, 0, 64, 48
1, 575035, Note_on_c, 0, 60, 90
1, 575035, Control_c, 0, 64, 43
1, 575050, Control_c, 0, 64, 36
1, 575065, Control_c, 0, 64, 0
1, 575086, Note_off_c, 0, 82, 48
1, 575152, Note_on_c, 0, 84, 88
1, 575225, Note_off_c, 0, 84, 63
1, 575238, Note_on_c, 0, 86, 81
1, 575309, Note_on_c, 0, 84, 88
1, 575336, Note_off_c, 0, 86, 64
1, 575386, Note_on_c, 0, 82, 85
1, 575419, Note_off_c, 0, 84, 62
1, 575443, Note_off_c, 0, 82, 65
1, 575451, Note_on_c, 0, 81, 87
1, 575465, Note_off_c, 0, 60, 61
1, 575526, Note_on_c, 0, 79, 87
1, 575536, Note_off_c, 0, 81, 58
1, 575594, Note_on_c, 0, 81, 76
1, 575611, Note_off_c, 0, 79, 67
1, 575663, Note_off_c, 0, 81, 65
1, 575670, Note_on_c, 0, 82, 79
1, 575726, Note_on_c, 0, 81, 80
1, 575759, Note_off_c, 0, 82, 62
1, 575804, Note_on_c, 0, 79, 84
1, 575825, Note_off_c, 0, 81, 64
1, 575867, Note_off_c, 0, 79, 67
1, 575877, Note_on_c, 0, 77, 73
1, 575951, Note_on_c, 0, 76, 85
1, 575965, Note_off_c, 0, 77, 63
1, 576018, Note_on_c, 0, 77, 67
1, 576031, Note_off_c, 0, 76, 63
1, 576084, Note_off_c, 0, 77, 64
1, 576093, Note_on_c, 0, 79, 78
1, 576148, Note_on_c, 0, 77, 73
1, 576176, Note_off_c, 0, 79, 64
1, 576222, Note_on_c, 0, 76, 77
1, 576245, Note_off_c, 0, 77, 62
1, 576275, Note_off_c, 0, 76, 66
1, 576292, Note_on_c, 0, 74, 73
1, 576356, Note_on_c, 0, 72, 75
1, 576359, Note_off_c, 0, 74, 61
1, 576419, Note_on_c, 0, 73, 76
1, 576448, Note_off_c, 0, 72, 61
1, 576488, Note_off_c, 0, 73, 63
1, 576492, Note_on_c, 0, 74, 71
1, 576557, Note_on_c, 0, 72, 77
1, 576589, Note_off_c, 0, 74, 63
1, 576630, Note_on_c, 0, 70, 71
1, 576665, Note_off_c, 0, 72, 62
1, 576684, Note_off_c, 0, 70, 66
1, 576697, Note_on_c, 0, 69, 67
1, 576768, Note_on_c, 0, 67, 74
1, 576782, Note_off_c, 0, 69, 61
1, 576839, Note_on_c, 0, 69, 63
1, 576850, Note_off_c, 0, 67, 62
1, 576901, Note_off_c, 0, 69, 63
1, 576910, Note_on_c, 0, 70, 70
1, 576967, Note_on_c, 0, 69, 65
1, 576993, Note_off_c, 0, 70, 60
1, 577037, Note_on_c, 0, 67, 68
1, 577068, Note_off_c, 0, 69, 63
1, 577092, Note_off_c, 0, 67, 64
1, 577107, Note_on_c, 0, 65, 68
1, 577179, Note_on_c, 0, 64, 66
1, 577179, Note_off_c, 0, 65, 54
1, 577223, Control_c, 0, 67, 19
1, 577238, Control_c, 0, 67, 22
1, 577245, Note_on_c, 0, 65, 62
1, 577249, Note_off_c, 0, 64, 62
1, 577268, Control_c, 0, 67, 24
1, 577283, Control_c, 0, 67, 26
1, 577298, Control_c, 0, 67, 31
1, 577309, Note_off_c, 0, 65, 64
1, 577312, Control_c, 0, 67, 40
1, 577320, Note_on_c, 0, 67, 59
1, 577327, Control_c, 0, 67, 48
1, 577342, Control_c, 0, 67, 53
1, 577364, Control_c, 0, 67, 55
1, 577381, Note_on_c, 0, 65, 62
1, 577394, Control_c, 0, 67, 56
1, 577403, Note_off_c, 0, 67, 61
1, 577408, Control_c, 0, 67, 56
1, 577423, Control_c, 0, 67, 57
1, 577438, Control_c, 0, 67, 57
1, 577453, Note_on_c, 0, 64, 66
1, 577478, Note_off_c, 0, 65, 62
1, 577506, Note_off_c, 0, 64, 64
1, 577527, Note_on_c, 0, 62, 60
1, 577528, Control_c, 0, 67, 57
1, 577543, Control_c, 0, 67, 56
1, 577572, Note_off_c, 0, 62, 56
1, 577572, Control_c, 0, 67, 56
1, 577587, Control_c, 0, 67, 55
1, 577601, Note_on_c, 0, 60, 59
1, 577631, Control_c, 0, 67, 54
1, 577646, Control_c, 0, 67, 54
1, 577661, Control_c, 0, 67, 53
1, 577666, Note_on_c, 0, 61, 64
1, 577676, Control_c, 0, 67, 52
1, 577679, Note_off_c, 0, 60, 56
1, 577706, Control_c, 0, 67, 52
1, 577721, Control_c, 0, 67, 51
1, 577725, Note_off_c, 0, 61, 60
1, 577732, Note_on_c, 0, 62, 56
1, 577736, Control_c, 0, 67, 50
1, 577751, Control_c, 0, 67, 49
1, 577766, Control_c, 0, 67, 49
1, 577780, Control_c, 0, 67, 48
1, 577795, Note_on_c, 0, 60, 66
1, 577795, Control_c, 0, 67, 48
1, 577810, Control_c, 0, 67, 47
1, 577822, Note_off_c, 0, 62, 60
1, 577824, Control_c, 0, 67, 46
1, 577839, Control_c, 0, 67, 45
1, 577854, Control_c, 0, 67, 43
1, 577864, Note_on_c, 0, 58, 66
1, 577869, Control_c, 0, 67, 40
1, 577884, Control_c, 0, 67, 35
1, 577886, Note_off_c, 0, 60, 63
1, 577898, Control_c, 0, 67, 27
1, 577913, Control_c, 0, 67, 0
1, 577918, Note_off_c, 0, 58, 64
1, 577927, Note_on_c, 0, 57, 70
1, 578001, Note_on_c, 0, 55, 72
1, 578013, Note_off_c, 0, 57, 61
1, 578066, Note_on_c, 0, 57, 63
1, 578125, Note_off_c, 0, 55, 36
1, 578140, Note_off_c, 0, 57, 63
1, 578144, Note_on_c, 0, 58, 75
1, 578204, Note_on_c, 0, 57, 77
1, 578232, Note_off_c, 0, 58, 63
1, 578271, Note_on_c, 0, 55, 73
1, 578304, Note_off_c, 0, 57, 62
1, 578332, Note_off_c, 0, 55, 64
1, 578338, Note_on_c, 0, 53, 70
1, 578409, Note_on_c, 0, 52, 83
1, 578421, Note_off_c, 0, 53, 64
1, 578477, Note_on_c, 0, 53, 66
1, 578496, Note_off_c, 0, 52, 62
1, 578544, Note_on_c, 0, 55, 74
1, 578547, Note_off_c, 0, 53, 63
1, 578598, Note_on_c, 0, 53, 67
1, 578635, Note_off_c, 0, 55, 62
1, 578672, Note_on_c, 0, 52, 79
1, 578701, Note_off_c, 0, 53, 62
1, 578732, Note_off_c, 0, 52, 64
1, 578738, Note_on_c, 0, 50, 78
1, 578812, Note_on_c, 0, 48, 83
1, 578826, Note_off_c, 0, 50, 63
1, 578880, Note_on_c, 0, 50, 75
1, 578935, Note_off_c, 0, 50, 61
1, 578940, Note_off_c, 0, 48, 0
1, 578954, Note_on_c, 0, 48, 58
1, 579024, Note_on_c, 0, 46, 80
1, 579032, Note_off_c, 0, 48, 60
1, 579105, Note_off_c, 0, 46, 64
1, 579107, Note_on_c, 0, 45, 81
1, 579164, Note_on_c, 0, 43, 73
1, 579191, Note_off_c, 0, 45, 63
1, 579271, Note_on_c, 0, 48, 90
1, 579273, Note_on_c, 0, 53, 96
1, 579277, Note_on_c, 0, 45, 88
1, 579281, Note_on_c, 0, 41, 80
1, 579329, Note_off_c, 0, 43, 56
1, 579402, Note_on_c, 0, 84, 78
1, 579403, Note_on_c, 0, 86, 76
1, 579457, Note_off_c, 0, 86, 54
1, 579469, Note_off_c, 0, 84, 65
1, 579477, Note_on_c, 0, 83, 84
1, 579545, Note_on_c, 0, 84, 94
1, 579557, Note_off_c, 0, 83, 65
1, 579619, Note_on_c, 0, 89, 87
1, 579621, Note_off_c, 0, 84, 65
1, 579682, Note_on_c, 0, 84, 88
1, 579724, Note_off_c, 0, 89, 63
1, 579757, Note_on_c, 0, 82, 90
1, 579778, Note_off_c, 0, 84, 64
1, 579804, Note_off_c, 0, 82, 66
1, 579820, Note_on_c, 0, 81, 88
1, 579873, Note_off_c, 0, 81, 58
1, 579893, Note_on_c, 0, 80, 84
1, 579904, Note_off_c, 0, 41, 61
1, 579904, Note_off_c, 0, 45, 63
1, 579906, Note_off_c, 0, 48, 61
1, 579910, Note_off_c, 0, 53, 59
1, 579962, Note_on_c, 0, 81, 90
1, 579969, Note_off_c, 0, 80, 63
1, 580022, Note_off_c, 0, 81, 64
1, 580026, Note_on_c, 0, 84, 81
1, 580088, Note_on_c, 0, 81, 85
1, 580104, Note_off_c, 0, 84, 62
1, 580157, Note_on_c, 0, 79, 85
1, 580180, Note_off_c, 0, 81, 63
1, 580209, Note_off_c, 0, 79, 66
1, 580218, Note_on_c, 0, 77, 77
1, 580290, Note_on_c, 0, 76, 83
1, 580300, Note_off_c, 0, 77, 61
1, 580360, Note_on_c, 0, 77, 67
1, 580382, Note_off_c, 0, 76, 62
1, 580427, Note_off_c, 0, 77, 64
1, 580432, Note_on_c, 0, 81, 76
1, 580490, Note_on_c, 0, 77, 73
1, 580505, Note_off_c, 0, 81, 62
1, 580563, Note_on_c, 0, 74, 77
1, 580585, Note_off_c, 0, 77, 64
1, 580615, Note_off_c, 0, 74, 64
1, 580631, Note_on_c, 0, 72, 71
1, 580700, Note_on_c, 0, 71, 76
1, 580708, Note_off_c, 0, 72, 60
1, 580766, Note_on_c, 0, 72, 57
1, 580779, Note_off_c, 0, 71, 63
1, 580831, Note_off_c, 0, 72, 63
1, 580833, Note_on_c, 0, 77, 67
1, 580888, Note_on_c, 0, 72, 58
1, 580904, Note_off_c, 0, 77, 60
1, 580968, Note_on_c, 0, 70, 73
1, 580985, Note_off_c, 0, 72, 61
1, 581020, Note_off_c, 0, 70, 64
1, 581041, Note_on_c, 0, 69, 62
1, 581074, Note_off_c, 0, 69, 60
1, 581113, Note_on_c, 0, 68, 68
1, 581138, Control_c, 0, 67, 19
1, 581168, Control_c, 0, 67, 22
1, 581182, Note_on_c, 0, 69, 63
1, 581185, Note_off_c, 0, 68, 62
1, 581214, Note_off_c, 0, 69, 62
1, 581251, Note_on_c, 0, 72, 50
1, 581298, Note_off_c, 0, 72, 60
1, 581308, Note_on_c, 0, 69, 59
1, 581343, Note_off_c, 0, 69, 61
1, 581390, Note_on_c, 0, 65, 63
1, 581399, Note_on_c, 0, 57, 58
1, 581427, Note_off_c, 0, 57, 64
1, 581433, Note_off_c, 0, 65, 62
1, 581469, Note_on_c, 0, 77, 56
1, 581510, Note_off_c, 0, 77, 64
1, 581548, Note_on_c, 0, 64, 58
1, 581549, Note_on_c, 0, 55, 52
1, 581579, Note_off_c, 0, 55, 63
1, 581587, Note_off_c, 0, 64, 60
1, 581617, Note_on_c, 0, 77, 63
1, 581655, Note_off_c, 0, 77, 61
1, 581690, Note_on_c, 0, 65, 72
1, 581693, Note_on_c, 0, 57, 65
1, 581721, Note_off_c, 0, 57, 66
1, 581731, Note_off_c, 0, 65, 61
1, 581763, Note_on_c, 0, 77, 67
1, 581811, Note_off_c, 0, 77, 61
1, 581826, Note_on_c, 0, 58, 70
1, 581834, Note_on_c, 0, 67, 75
1, 581835, Control_c, 0, 67, 20
1, 581865, Note_off_c, 0, 58, 67
1, 581884, Note_off_c, 0, 67, 61
1, 581907, Note_on_c, 0, 77, 70
1, 581917, Control_c, 0, 67, 0
1, 581964, Note_off_c, 0, 77, 64
1, 581984, Note_on_c, 0, 57, 68
1, 581984, Note_on_c, 0, 65, 74
1, 582013, Note_off_c, 0, 57, 66
1, 582024, Note_off_c, 0, 65, 64
1, 582050, Note_on_c, 0, 77, 71
1, 582109, Note_off_c, 0, 77, 63
1, 582121, Note_on_c, 0, 58, 68
1, 582124, Note_on_c, 0, 67, 77
1, 582150, Note_off_c, 0, 58, 68
1, 582176, Note_off_c, 0, 67, 62
1, 582189, Note_on_c, 0, 77, 73
1, 582253, Note_off_c, 0, 77, 64
1, 582266, Note_on_c, 0, 60, 70
1, 582270, Note_on_c, 0, 69, 69
1, 582295, Note_off_c, 0, 60, 67
1, 582314, Note_off_c, 0, 69, 61
1, 582327, Note_on_c, 0, 77, 69
1, 582392, Note_off_c, 0, 77, 65
1, 582402, Note_on_c, 0, 58, 73
1, 582407, Note_on_c, 0, 67, 79
1, 582435, Note_off_c, 0, 58, 67
1, 582454, Note_off_c, 0, 67, 61
1, 582468, Note_on_c, 0, 77, 75
1, 582537, Note_off_c, 0, 77, 62
1, 582540, Note_on_c, 0, 60, 76
1, 582544, Note_on_c, 0, 69, 78
1, 582598, Note_on_c, 0, 77, 67
1, 582605, Note_off_c, 0, 60, 66
1, 582615, Note_off_c, 0, 69, 62
1, 582696, Note_on_c, 0, 61, 85
1, 582698, Note_on_c, 0, 70, 71
1, 582698, Note_off_c, 0, 77, 61
1, 582765, Note_off_c, 0, 70, 64
1, 582782, Note_on_c, 0, 77, 58
1, 582848, Note_on_c, 0, 70, 67
1, 582851, Note_off_c, 0, 77, 62
1, 582906, Note_on_c, 0, 77, 58
1, 582916, Note_off_c, 0, 70, 63
1, 582979, Note_off_c, 0, 61, 60
1, 582980, Note_off_c, 0, 77, 63
1, 582986, Note_on_c, 0, 69, 75
1, 582988, Note_on_c, 0, 60, 66
1, 583021, Note_off_c, 0, 60, 66
1, 583052, Note_on_c, 0, 77, 60
1, 583060, Note_off_c, 0, 69, 59
1, 583131, Note_off_c, 0, 77, 61
1, 583136, Note_on_c, 0, 61, 82
1, 583142, Note_on_c, 0, 70, 74
1, 583197, Note_off_c, 0, 70, 63
1, 583208, Note_on_c, 0, 77, 67
1, 583275, Note_off_c, 0, 77, 62
1, 583284, Note_on_c, 0, 70, 66
1, 583349, Note_on_c, 0, 77, 65
1, 583350, Note_off_c, 0, 70, 62
1, 583412, Note_off_c, 0, 61, 36
1, 583417, Note_off_c, 0, 77, 63
1, 583423, Note_on_c, 0, 69, 76
1, 583435, Note_on_c, 0, 60, 58
1, 583464, Note_off_c, 0, 60, 66
1, 583487, Note_on_c, 0, 77, 66
1, 583492, Note_off_c, 0, 69, 57
1, 583552, Note_off_c, 0, 77, 61
1, 583567, Note_on_c, 0, 68, 72
1, 583579, Note_on_c, 0, 59, 53
1, 583605, Note_off_c, 0, 68, 64
1, 583611, Note_off_c, 0, 59, 65
1, 583629, Note_on_c, 0, 77, 64
1, 583691, Note_off_c, 0, 77, 62
1, 583706, Note_on_c, 0, 59, 48
1, 583709, Note_on_c, 0, 68, 68
1, 583739, Note_off_c, 0, 68, 65
1, 583745, Note_off_c, 0, 59, 64
1, 583772, Note_on_c, 0, 77, 60
1, 583828, Note_off_c, 0, 77, 62
1, 583850, Note_on_c, 0, 59, 47
1, 583852, Note_on_c, 0, 68, 66
1, 583884, Note_off_c, 0, 59, 64
1, 583885, Note_off_c, 0, 68, 64
1, 583913, Note_on_c, 0, 77, 47
1, 584011, Note_off_c, 0, 77, 64
1, 584033, Note_on_c, 0, 76, 57
1, 584041, Note_on_c, 0, 67, 38
1, 584054, Note_on_c, 0, 60, 33
1, 584145, Note_off_c, 0, 60, 58
1, 584176, Note_off_c, 0, 67, 43
1, 584183, Note_off_c, 0, 76, 57
1, 584504, Note_on_c, 0, 53, 86
1, 584511, Note_on_c, 0, 45, 81
1, 584511, Note_on_c, 0, 48, 76
1, 584511, Note_on_c, 0, 41, 79
1, 584591, Note_on_c, 0, 84, 88
1, 584672, Note_off_c, 0, 84, 65
1, 584677, Note_on_c, 0, 83, 89
1, 584741, Note_on_c, 0, 84, 93
1, 584756, Note_off_c, 0, 83, 65
1, 584811, Note_off_c, 0, 84, 65
1, 584816, Note_on_c, 0, 89, 90
1, 584887, Note_on_c, 0, 84, 92
1, 584922, Note_off_c, 0, 89, 64
1, 584958, Note_on_c, 0, 82, 88
1, 584980, Note_off_c, 0, 84, 64
1, 584989, Note_off_c, 0, 48, 64
1, 584993, Note_off_c, 0, 45, 64
1, 585001, Note_off_c, 0, 41, 63
1, 585006, Note_off_c, 0, 53, 57
1, 585007, Note_off_c, 0, 82, 66
1, 585026, Note_on_c, 0, 81, 86
1, 585081, Note_off_c, 0, 81, 56
1, 585096, Note_on_c, 0, 80, 83
1, 585164, Note_off_c, 0, 80, 60
1, 585165, Note_on_c, 0, 81, 89
1, 585226, Note_off_c, 0, 81, 65
1, 585230, Note_on_c, 0, 84, 82
1, 585297, Note_on_c, 0, 81, 80
1, 585317, Note_off_c, 0, 84, 64
1, 585360, Note_on_c, 0, 79, 88
1, 585388, Note_off_c, 0, 81, 64
1, 585409, Note_off_c, 0, 79, 68
1, 585426, Note_on_c, 0, 77, 77
1, 585497, Note_on_c, 0, 76, 82
1, 585501, Note_off_c, 0, 77, 60
1, 585565, Note_on_c, 0, 77, 70
1, 585577, Note_off_c, 0, 76, 63
1, 585626, Note_off_c, 0, 77, 65
1, 585653, Note_on_c, 0, 81, 61
1, 585695, Note_on_c, 0, 77, 73
1, 585708, Note_off_c, 0, 81, 63
1, 585772, Note_on_c, 0, 74, 81
1, 585787, Note_off_c, 0, 77, 65
1, 585820, Note_off_c, 0, 74, 66
1, 585838, Note_on_c, 0, 72, 66
1, 585903, Note_off_c, 0, 72, 37
1, 585909, Note_on_c, 0, 71, 75
1, 585977, Note_on_c, 0, 72, 73
1, 585985, Note_off_c, 0, 71, 60
1, 586035, Note_off_c, 0, 72, 64
1, 586044, Note_on_c, 0, 77, 68
1, 586097, Note_on_c, 0, 72, 70
1, 586122, Note_off_c, 0, 77, 60
1, 586181, Note_on_c, 0, 70, 72
1, 586195, Note_off_c, 0, 72, 63
1, 586224, Note_off_c, 0, 70, 63
1, 586245, Note_on_c, 0, 69, 64
1, 586278, Note_off_c, 0, 69, 60
1, 586317, Note_on_c, 0, 68, 68
1, 586392, Note_on_c, 0, 69, 64
1, 586394, Note_off_c, 0, 68, 62
1, 586433, Note_off_c, 0, 69, 61
1, 586459, Note_on_c, 0, 72, 56
1, 586511, Note_off_c, 0, 72, 56
1, 586535, Note_on_c, 0, 69, 44
1, 586565, Note_off_c, 0, 69, 61
1, 586606, Note_on_c, 0, 65, 61
1, 586637, Note_on_c, 0, 57, 58
1, 586653, Note_off_c, 0, 65, 59
1, 586661, Note_off_c, 0, 57, 63
1, 586677, Note_on_c, 0, 77, 57
1, 586720, Note_off_c, 0, 77, 62
1, 586768, Note_on_c, 0, 64, 52
1, 586771, Note_on_c, 0, 55, 55
1, 586799, Note_off_c, 0, 64, 62
1, 586803, Note_off_c, 0, 55, 64
1, 586830, Note_on_c, 0, 77, 60
1, 586870, Note_off_c, 0, 77, 63
1, 586908, Note_on_c, 0, 65, 65
1, 586908, Note_on_c, 0, 57, 64
1, 586935, Note_off_c, 0, 57, 66
1, 586947, Note_off_c, 0, 65, 61
1, 586980, Note_on_c, 0, 77, 65
1, 587037, Note_off_c, 0, 77, 62
1, 587046, Note_on_c, 0, 58, 64
1, 587055, Note_on_c, 0, 67, 72
1, 587084, Note_off_c, 0, 58, 68
1, 587114, Note_off_c, 0, 67, 60
1, 587138, Note_on_c, 0, 77, 56
1, 587194, Note_off_c, 0, 77, 64
1, 587214, Note_on_c, 0, 65, 75
1, 587223, Note_on_c, 0, 57, 49
1, 587248, Note_off_c, 0, 65, 65
1, 587250, Note_off_c, 0, 57, 56
1, 587266, Note_on_c, 0, 77, 62
1, 587328, Note_off_c, 0, 77, 63
1, 587343, Note_on_c, 0, 58, 65
1, 587346, Note_on_c, 0, 67, 76
1, 587375, Note_off_c, 0, 58, 68
1, 587396, Note_off_c, 0, 67, 59
1, 587414, Note_on_c, 0, 77, 73
1, 587477, Note_off_c, 0, 77, 62
1, 587481, Note_on_c, 0, 60, 67
1, 587486, Note_on_c, 0, 69, 79
1, 587512, Note_off_c, 0, 60, 67
1, 587540, Note_off_c, 0, 69, 63
1, 587545, Note_on_c, 0, 77, 72
1, 587614, Note_off_c, 0, 77, 65
1, 587624, Note_on_c, 0, 58, 74
1, 587627, Note_on_c, 0, 67, 78
1, 587656, Note_off_c, 0, 58, 67
1, 587677, Note_off_c, 0, 67, 64
1, 587686, Note_on_c, 0, 77, 76
1, 587764, Note_on_c, 0, 60, 71
1, 587766, Note_on_c, 0, 69, 79
1, 587766, Note_off_c, 0, 77, 64
1, 587804, Note_off_c, 0, 60, 65
1, 587813, Note_on_c, 0, 77, 69
1, 587838, Note_off_c, 0, 69, 63
1, 587918, Note_on_c, 0, 61, 82
1, 587922, Note_off_c, 0, 77, 64
1, 587927, Note_on_c, 0, 70, 71
1, 587981, Note_off_c, 0, 70, 64
1, 587989, Note_on_c, 0, 77, 60
1, 588054, Note_off_c, 0, 77, 62
1, 588065, Note_on_c, 0, 70, 61
1, 588117, Note_on_c, 0, 77, 58
1, 588125, Note_off_c, 0, 70, 62
1, 588189, Note_off_c, 0, 77, 61
1, 588204, Note_off_c, 0, 61, 60
1, 588206, Note_on_c, 0, 69, 70
1, 588216, Note_on_c, 0, 60, 64
1, 588245, Note_off_c, 0, 60, 68
1, 588272, Note_on_c, 0, 77, 63
1, 588284, Note_off_c, 0, 69, 61
1, 588343, Note_off_c, 0, 77, 61
1, 588354, Note_on_c, 0, 61, 80
1, 588357, Note_on_c, 0, 70, 73
1, 588410, Note_off_c, 0, 70, 63
1, 588422, Note_on_c, 0, 77, 64
1, 588489, Note_on_c, 0, 70, 60
1, 588494, Note_off_c, 0, 77, 60
1, 588547, Note_on_c, 0, 77, 60
1, 588557, Note_off_c, 0, 70, 62
1, 588584, Note_off_c, 0, 61, 33
1, 588622, Note_off_c, 0, 77, 63
1, 588637, Note_on_c, 0, 69, 68
1, 588640, Note_on_c, 0, 60, 48
1, 588667, Note_off_c, 0, 60, 62
1, 588696, Note_on_c, 0, 77, 59
1, 588708, Note_off_c, 0, 69, 51
1, 588761, Note_off_c, 0, 77, 63
1, 588778, Note_on_c, 0, 68, 67
1, 588792, Note_on_c, 0, 59, 51
1, 588816, Note_off_c, 0, 59, 63
1, 588843, Note_off_c, 0, 68, 59
1, 588852, Note_on_c, 0, 77, 50
1, 588888, Note_off_c, 0, 77, 66
1, 589249, Note_on_c, 0, 58, 45
1, 589256, Note_on_c, 0, 67, 35
1, 589283, Note_off_c, 0, 58, 64
1, 589331, Note_on_c, 0, 76, 52
1, 589339, Note_off_c, 0, 67, 43
1, 589423, Note_off_c, 0, 76, 58
1, 589749, Note_on_c, 0, 66, 38
1, 589764, Note_on_c, 0, 57, 37
1, 589812, Note_off_c, 0, 57, 56
1, 589839, Note_on_c, 0, 75, 41
1, 589849, Note_off_c, 0, 66, 52
1, 589963, Note_off_c, 0, 75, 42
1, 590314, Note_on_c, 0, 46, 75
1, 590347, Control_c, 0, 64, 49
1, 590361, Control_c, 0, 64, 60
1, 590376, Control_c, 0, 64, 62
1, 590391, Control_c, 0, 64, 64
1, 590395, Note_on_c, 0, 58, 65
1, 590406, Control_c, 0, 64, 66
1, 590414, Note_off_c, 0, 46, 63
1, 590421, Control_c, 0, 64, 68
1, 590435, Control_c, 0, 64, 71
1, 590450, Control_c, 0, 64, 72
1, 590464, Note_off_c, 0, 58, 64
1, 590479, Note_on_c, 0, 62, 74
1, 590548, Note_on_c, 0, 67, 70
1, 590554, Control_c, 0, 64, 71
1, 590569, Control_c, 0, 64, 70
1, 590576, Note_off_c, 0, 62, 58
1, 590583, Control_c, 0, 64, 67
1, 590598, Control_c, 0, 64, 65
1, 590613, Note_on_c, 0, 70, 74
1, 590613, Control_c, 0, 64, 63
1, 590626, Note_off_c, 0, 67, 63
1, 590628, Control_c, 0, 64, 61
1, 590643, Control_c, 0, 64, 60
1, 590658, Control_c, 0, 64, 59
1, 590672, Control_c, 0, 64, 58
1, 590679, Note_on_c, 0, 74, 75
1, 590681, Note_off_c, 0, 70, 65
1, 590687, Control_c, 0, 64, 56
1, 590702, Control_c, 0, 64, 55
1, 590717, Control_c, 0, 64, 54
1, 590732, Control_c, 0, 64, 52
1, 590746, Control_c, 0, 64, 51
1, 590754, Note_on_c, 0, 55, 52
1, 590754, Note_on_c, 0, 72, 72
1, 590756, Note_on_c, 0, 58, 51
1, 590759, Note_on_c, 0, 48, 45
1, 590761, Control_c, 0, 64, 49
1, 590776, Control_c, 0, 64, 48
1, 590791, Control_c, 0, 64, 45
1, 590798, Note_off_c, 0, 74, 58
1, 590806, Control_c, 0, 64, 43
1, 590826, Note_on_c, 0, 70, 73
1, 590828, Control_c, 0, 64, 40
1, 590843, Control_c, 0, 64, 38
1, 590843, Control_c, 0, 67, 20
1, 590858, Control_c, 0, 64, 35
1, 590858, Control_c, 0, 67, 27
1, 590868, Note_off_c, 0, 72, 59
1, 590873, Control_c, 0, 64, 33
1, 590873, Control_c, 0, 67, 35
1, 590887, Control_c, 0, 64, 29
1, 590887, Control_c, 0, 67, 47
1, 590902, Control_c, 0, 64, 0
1, 590902, Control_c, 0, 67, 63
1, 590905, Note_on_c, 0, 69, 65
1, 590917, Control_c, 0, 67, 75
1, 590932, Control_c, 0, 67, 85
1, 590935, Note_off_c, 0, 70, 63
1, 590947, Control_c, 0, 67, 90
1, 590958, Note_off_c, 0, 69, 63
1, 590961, Control_c, 0, 67, 91
1, 590968, Note_on_c, 0, 67, 60
1, 590991, Control_c, 0, 67, 90
1, 591005, Control_c, 0, 67, 88
1, 591020, Control_c, 0, 67, 87
1, 591022, Note_off_c, 0, 58, 56
1, 591035, Control_c, 0, 67, 86
1, 591037, Note_on_c, 0, 65, 67
1, 591044, Note_off_c, 0, 67, 61
1, 591051, Control_c, 0, 67, 85
1, 591064, Note_off_c, 0, 55, 38
1, 591066, Control_c, 0, 67, 83
1, 591081, Control_c, 0, 67, 83
1, 591082, Note_off_c, 0, 48, 49
1, 591096, Control_c, 0, 67, 82
1, 591102, Note_off_c, 0, 65, 62
1, 591104, Note_on_c, 0, 64, 56
1, 591183, Note_off_c, 0, 64, 62
1, 591190, Note_on_c, 0, 65, 57
1, 591194, Note_on_c, 0, 53, 46
1, 591200, Note_on_c, 0, 57, 44
1, 591226, Note_off_c, 0, 53, 57
1, 591233, Note_off_c, 0, 57, 59
1, 591313, Note_off_c, 0, 65, 58
1, 591347, Control_c, 0, 67, 83
1, 591356, Note_on_c, 0, 60, 55
1, 591388, Note_off_c, 0, 60, 66
1, 591508, Note_on_c, 0, 60, 48
1, 591534, Note_off_c, 0, 60, 61
1, 591678, Note_on_c, 0, 48, 39
1, 591686, Note_on_c, 0, 64, 40
1, 591740, Note_on_c, 0, 70, 63
1, 591745, Note_off_c, 0, 64, 56
1, 591815, Note_off_c, 0, 48, 33
1, 591883, Note_on_c, 0, 58, 48
1, 591883, Note_on_c, 0, 60, 41
1, 591927, Note_off_c, 0, 58, 63
1, 591929, Note_off_c, 0, 60, 63
1, 592054, Note_on_c, 0, 60, 46
1, 592056, Note_on_c, 0, 58, 48
1, 592092, Note_off_c, 0, 58, 65
1, 592095, Note_off_c, 0, 60, 64
1, 592204, Note_on_c, 0, 58, 46
1, 592209, Note_on_c, 0, 60, 41
1, 592242, Note_off_c, 0, 58, 65
1, 592244, Note_off_c, 0, 60, 58
1, 592262, Note_off_c, 0, 70, 59
1, 592356, Note_on_c, 0, 60, 46
1, 592360, Note_on_c, 0, 58, 49
1, 592363, Note_on_c, 0, 69, 62
1, 592393, Note_off_c, 0, 69, 65
1, 592397, Note_off_c, 0, 58, 65
1, 592400, Note_off_c, 0, 60, 64
1, 592505, Note_on_c, 0, 58, 44
1, 592506, Note_on_c, 0, 67, 61
1, 592517, Note_on_c, 0, 60, 32
1, 592541, Note_off_c, 0, 67, 61
1, 592544, Note_off_c, 0, 58, 63
1, 592547, Note_off_c, 0, 60, 57
1, 592666, Note_on_c, 0, 67, 62
1, 592679, Note_on_c, 0, 53, 39
1, 592722, Note_off_c, 0, 53, 58
1, 592747, Note_on_c, 0, 65, 60
1, 592842, Note_off_c, 0, 67, 53
1, 592862, Note_on_c, 0, 57, 44
1, 592869, Note_on_c, 0, 60, 41
1, 592896, Note_off_c, 0, 57, 62
1, 592902, Note_off_c, 0, 60, 61
1, 593021, Note_on_c, 0, 60, 36
1, 593025, Note_on_c, 0, 57, 37
1, 593037, Control_c, 0, 67, 82
1, 593063, Note_off_c, 0, 57, 62
1, 593065, Note_off_c, 0, 60, 63
1, 593094, Note_off_c, 0, 65, 62
1, 593178, Control_c, 0, 67, 82
1, 593190, Note_on_c, 0, 57, 42
1, 593193, Control_c, 0, 67, 81
1, 593196, Note_on_c, 0, 60, 39
1, 593198, Note_on_c, 0, 65, 52
1, 593207, Control_c, 0, 67, 81
1, 593230, Note_off_c, 0, 57, 63
1, 593234, Note_off_c, 0, 60, 63
1, 593237, Control_c, 0, 67, 80
1, 593252, Control_c, 0, 67, 79
1, 593267, Control_c, 0, 67, 78
1, 593281, Control_c, 0, 64, 41
1, 593296, Control_c, 0, 64, 49
1, 593296, Control_c, 0, 67, 77
1, 593311, Control_c, 0, 64, 55
1, 593311, Control_c, 0, 67, 76
1, 593326, Control_c, 0, 64, 58
1, 593326, Control_c, 0, 67, 75
1, 593341, Control_c, 0, 64, 61
1, 593341, Control_c, 0, 67, 71
1, 593353, Note_on_c, 0, 60, 38
1, 593354, Note_on_c, 0, 57, 37
1, 593356, Control_c, 0, 64, 63
1, 593356, Control_c, 0, 67, 67
1, 593371, Control_c, 0, 64, 65
1, 593371, Control_c, 0, 67, 63
1, 593385, Note_off_c, 0, 57, 58
1, 593385, Control_c, 0, 64, 69
1, 593385, Control_c, 0, 67, 60
1, 593387, Note_off_c, 0, 60, 58
1, 593394, Note_off_c, 0, 65, 60
1, 593400, Control_c, 0, 64, 72
1, 593400, Control_c, 0, 67, 57
1, 593415, Control_c, 0, 64, 75
1, 593415, Control_c, 0, 67, 55
1, 593430, Control_c, 0, 64, 78
1, 593430, Control_c, 0, 67, 53
1, 593445, Control_c, 0, 64, 79
1, 593445, Control_c, 0, 67, 50
1, 593460, Control_c, 0, 64, 80
1, 593460, Control_c, 0, 67, 48
1, 593475, Control_c, 0, 67, 48
1, 593490, Control_c, 0, 67, 47
1, 593493, Note_on_c, 0, 57, 43
1, 593500, Note_on_c, 0, 60, 43
1, 593538, Note_off_c, 0, 57, 59
1, 593540, Note_off_c, 0, 60, 54
1, 593564, Control_c, 0, 64, 79
1, 593579, Control_c, 0, 64, 78
1, 593594, Control_c, 0, 64, 76
1, 593609, Control_c, 0, 64, 75
1, 593623, Control_c, 0, 64, 73
1, 593623, Control_c, 0, 67, 48
1, 593638, Control_c, 0, 64, 70
1, 593653, Control_c, 0, 64, 67
1, 593657, Note_on_c, 0, 64, 55
1, 593668, Control_c, 0, 64, 63
1, 593681, Note_on_c, 0, 48, 37
1, 593683, Control_c, 0, 64, 59
1, 593697, Control_c, 0, 64, 55
1, 593712, Control_c, 0, 64, 51
1, 593726, Note_on_c, 0, 70, 68
1, 593727, Control_c, 0, 64, 46
1, 593728, Note_off_c, 0, 48, 57
1, 593742, Control_c, 0, 64, 40
1, 593746, Note_off_c, 0, 64, 56
1, 593757, Control_c, 0, 64, 32
1, 593771, Control_c, 0, 64, 0
1, 593852, Note_on_c, 0, 55, 47
1, 593867, Note_on_c, 0, 60, 41
1, 593883, Control_c, 0, 67, 48
1, 593893, Note_off_c, 0, 55, 63
1, 593903, Note_off_c, 0, 60, 63
1, 594021, Note_on_c, 0, 60, 41
1, 594026, Note_on_c, 0, 55, 41
1, 594059, Note_off_c, 0, 55, 63
1, 594060, Note_off_c, 0, 60, 65
1, 594181, Note_on_c, 0, 60, 45
1, 594183, Note_on_c, 0, 55, 46
1, 594220, Note_off_c, 0, 55, 64
1, 594221, Note_off_c, 0, 60, 65
1, 594224, Note_off_c, 0, 70, 62
1, 594325, Note_on_c, 0, 69, 59
1, 594334, Note_on_c, 0, 60, 44
1, 594337, Note_on_c, 0, 55, 35
1, 594363, Note_off_c, 0, 69, 62
1, 594365, Note_off_c, 0, 55, 58
1, 594367, Note_off_c, 0, 60, 61
1, 594468, Note_on_c, 0, 67, 65
1, 594471, Note_on_c, 0, 55, 33
1, 594473, Note_on_c, 0, 60, 42
1, 594505, Note_off_c, 0, 55, 59
1, 594512, Note_off_c, 0, 60, 63
1, 594530, Note_off_c, 0, 67, 61
1, 594651, Note_on_c, 0, 71, 68
1, 594656, Note_on_c, 0, 53, 44
1, 594828, Note_on_c, 0, 60, 38
1, 594833, Note_on_c, 0, 57, 37
1, 594869, Note_off_c, 0, 60, 56
1, 594870, Note_off_c, 0, 57, 56
1, 594872, Note_off_c, 0, 53, 42
1, 594990, Note_on_c, 0, 57, 39
1, 594993, Note_on_c, 0, 60, 41
1, 595031, Note_off_c, 0, 60, 63
1, 595031, Note_off_c, 0, 57, 62
1, 595154, Note_on_c, 0, 60, 38
1, 595155, Note_off_c, 0, 71, 56
1, 595156, Note_on_c, 0, 72, 53
1, 595158, Note_on_c, 0, 57, 37
1, 595192, Note_off_c, 0, 57, 57
1, 595195, Note_off_c, 0, 60, 65
1, 595305, Note_on_c, 0, 57, 42
1, 595311, Note_on_c, 0, 60, 43
1, 595359, Note_off_c, 0, 57, 61
1, 595360, Note_off_c, 0, 60, 64
1, 595360, Note_off_c, 0, 72, 57
1, 595478, Note_on_c, 0, 57, 46
1, 595481, Note_on_c, 0, 60, 38
1, 595515, Note_off_c, 0, 57, 64
1, 595516, Note_off_c, 0, 60, 58
1, 595629, Note_on_c, 0, 64, 56
1, 595646, Note_on_c, 0, 48, 28
1, 595693, Note_on_c, 0, 70, 65
1, 595728, Note_off_c, 0, 64, 49
1, 595757, Note_off_c, 0, 48, 34
1, 595822, Note_on_c, 0, 60, 46
1, 595827, Note_on_c, 0, 58, 45
1, 595871, Control_c, 0, 67, 48
1, 595872, Note_off_c, 0, 60, 62
1, 595874, Note_off_c, 0, 58, 63
1, 595930, Control_c, 0, 67, 47
1, 595991, Note_on_c, 0, 58, 46
1, 595997, Note_on_c, 0, 60, 41
1, 596028, Note_off_c, 0, 58, 66
1, 596030, Note_off_c, 0, 60, 57
1, 596145, Note_on_c, 0, 60, 48
1, 596145, Control_c, 0, 67, 47
1, 596156, Note_on_c, 0, 58, 43
1, 596160, Control_c, 0, 67, 46
1, 596174, Control_c, 0, 67, 46
1, 596188, Note_off_c, 0, 60, 64
1, 596189, Control_c, 0, 67, 45
1, 596192, Note_off_c, 0, 58, 65
1, 596204, Control_c, 0, 67, 41
1, 596210, Note_off_c, 0, 70, 60
1, 596218, Control_c, 0, 67, 38
1, 596233, Control_c, 0, 67, 36
1, 596248, Control_c, 0, 67, 35
1, 596263, Control_c, 0, 67, 33
1, 596278, Control_c, 0, 67, 32
1, 596301, Note_on_c, 0, 60, 45
1, 596304, Note_on_c, 0, 69, 53
1, 596306, Note_on_c, 0, 58, 41
1, 596307, Control_c, 0, 67, 30
1, 596339, Note_off_c, 0, 69, 66
1, 596340, Note_off_c, 0, 58, 61
1, 596343, Note_off_c, 0, 60, 64
1, 596444, Note_on_c, 0, 67, 58
1, 596452, Note_on_c, 0, 58, 46
1, 596459, Note_on_c, 0, 60, 34
1, 596480, Note_off_c, 0, 67, 62
1, 596492, Note_off_c, 0, 58, 64
1, 596492, Note_off_c, 0, 60, 56
1, 596574, Control_c, 0, 67, 28
1, 596589, Control_c, 0, 67, 23
1, 596604, Control_c, 0, 67, 0
1, 596610, Note_on_c, 0, 65, 57
1, 596615, Note_on_c, 0, 53, 37
1, 596649, Note_off_c, 0, 53, 56
1, 596769, Note_on_c, 0, 60, 43
1, 596775, Note_on_c, 0, 57, 43
1, 596804, Note_off_c, 0, 60, 63
1, 596805, Note_off_c, 0, 57, 60
1, 596845, Note_off_c, 0, 65, 44
1, 596934, Note_on_c, 0, 69, 72
1, 596936, Note_on_c, 0, 60, 42
1, 596941, Note_on_c, 0, 57, 40
1, 596979, Note_off_c, 0, 60, 63
1, 596980, Note_off_c, 0, 57, 63
1, 597099, Note_on_c, 0, 60, 43
1, 597102, Note_on_c, 0, 57, 47
1, 597135, Note_off_c, 0, 60, 61
1, 597138, Note_off_c, 0, 57, 64
1, 597243, Note_on_c, 0, 57, 50
1, 597243, Note_on_c, 0, 60, 50
1, 597280, Note_off_c, 0, 57, 64
1, 597285, Note_off_c, 0, 60, 63
1, 597312, Note_off_c, 0, 69, 59
1, 597399, Note_on_c, 0, 60, 43
1, 597410, Note_on_c, 0, 57, 31
1, 597412, Note_on_c, 0, 72, 74
1, 597445, Note_off_c, 0, 60, 62
1, 597445, Note_off_c, 0, 57, 53
1, 597579, Note_on_c, 0, 48, 50
1, 597633, Note_off_c, 0, 48, 60
1, 597740, Note_on_c, 0, 55, 44
1, 597742, Note_on_c, 0, 60, 39
1, 597770, Note_off_c, 0, 55, 57
1, 597772, Note_off_c, 0, 60, 59
1, 597788, Note_off_c, 0, 72, 58
1, 597882, Note_on_c, 0, 55, 43
1, 597892, Note_on_c, 0, 70, 67
1, 597905, Note_on_c, 0, 60, 32
1, 597935, Note_off_c, 0, 55, 62
1, 597946, Note_off_c, 0, 60, 58
1, 598051, Note_on_c, 0, 60, 54
1, 598054, Note_on_c, 0, 58, 58
1, 598090, Note_off_c, 0, 60, 65
1, 598091, Note_off_c, 0, 58, 64
1, 598210, Note_on_c, 0, 58, 51
1, 598220, Note_on_c, 0, 60, 46
1, 598241, Note_off_c, 0, 70, 56
1, 598252, Note_off_c, 0, 58, 65
1, 598253, Note_off_c, 0, 60, 60
1, 598375, Note_on_c, 0, 67, 53
1, 598378, Note_on_c, 0, 58, 49
1, 598378, Note_on_c, 0, 60, 39
1, 598418, Note_off_c, 0, 60, 58
1, 598420, Note_off_c, 0, 58, 65
1, 598437, Note_off_c, 0, 67, 52
1, 598565, Note_on_c, 0, 60, 28
1, 598573, Note_on_c, 0, 65, 43
1, 598589, Note_on_c, 0, 57, 29
1, 598592, Note_on_c, 0, 53, 18
1, 598741, Note_off_c, 0, 65, 60
1, 598757, Note_off_c, 0, 60, 54
1, 598770, Note_off_c, 0, 53, 41
1, 598794, Note_off_c, 0, 57, 44
1, 599161, Note_on_c, 0, 85, 100
1, 599165, Note_on_c, 0, 51, 60
1, 599165, Note_on_c, 0, 73, 90
1, 599166, Note_on_c, 0, 55, 59
1, 599167, Note_on_c, 0, 61, 62
1, 599273, Control_c, 0, 64, 46
1, 599288, Control_c, 0, 64, 60
1, 599303, Control_c, 0, 64, 66
1, 599317, Control_c, 0, 64, 73
1, 599332, Control_c, 0, 64, 83
1, 599347, Control_c, 0, 64, 95
1, 599359, Note_off_c, 0, 55, 53
1, 599362, Control_c, 0, 64, 127
1, 599431, Note_off_c, 0, 51, 47
1, 599470, Note_off_c, 0, 61, 56
1, 599578, Note_off_c, 0, 73, 49
1, 599633, Note_off_c, 0, 85, 38
1, 599688, Control_c, 0, 64, 110
1, 599702, Note_on_c, 0, 62, 68
1, 599703, Note_on_c, 0, 86, 96
1, 599703, Control_c, 0, 64, 84
1, 599704, Note_on_c, 0, 74, 87
1, 599710, Note_on_c, 0, 54, 65
1, 599711, Note_on_c, 0, 50, 61
1, 599717, Control_c, 0, 64, 66
1, 599732, Control_c, 0, 64, 47
1, 599747, Control_c, 0, 64, 0
1, 599845, Control_c, 0, 64, 41
1, 599860, Control_c, 0, 64, 56
1, 599874, Control_c, 0, 64, 62
1, 599889, Control_c, 0, 64, 64
1, 599904, Control_c, 0, 64, 65
1, 599919, Control_c, 0, 64, 68
1, 599934, Control_c, 0, 64, 74
1, 599947, Note_off_c, 0, 50, 55
1, 599947, Note_off_c, 0, 62, 52
1, 599948, Control_c, 0, 64, 81
1, 599963, Control_c, 0, 64, 90
1, 599978, Control_c, 0, 64, 97
1, 599992, Control_c, 0, 64, 107
1, 600007, Control_c, 0, 64, 127
1, 600031, Note_off_c, 0, 54, 51
1, 600123, Note_off_c, 0, 86, 36
1, 600139, Note_off_c, 0, 74, 45
1, 600252, Note_on_c, 0, 84, 95
1, 600254, Note_on_c, 0, 74, 86
1, 600259, Control_c, 0, 64, 109
1, 600274, Control_c, 0, 64, 88
1, 600289, Control_c, 0, 64, 74
1, 600304, Control_c, 0, 64, 64
1, 600318, Control_c, 0, 64, 52
1, 600333, Control_c, 0, 64, 39
1, 600348, Control_c, 0, 64, 37
1, 600363, Control_c, 0, 64, 43
1, 600378, Control_c, 0, 64, 49
1, 600392, Control_c, 0, 64, 53
1, 600407, Control_c, 0, 64, 56
1, 600422, Control_c, 0, 64, 60
1, 600437, Control_c, 0, 64, 63
1, 600452, Control_c, 0, 64, 68
1, 600466, Control_c, 0, 64, 72
1, 600482, Control_c, 0, 64, 77
1, 600497, Control_c, 0, 64, 83
1, 600511, Control_c, 0, 64, 91
1, 600526, Control_c, 0, 64, 103
1, 600541, Control_c, 0, 64, 127
1, 600617, Note_off_c, 0, 84, 53
1, 600661, Note_off_c, 0, 74, 54
1, 600764, Note_on_c, 0, 74, 83
1, 600764, Note_on_c, 0, 82, 93
1, 600772, Note_on_c, 0, 50, 81
1, 600773, Note_on_c, 0, 62, 81
1, 600787, Control_c, 0, 64, 93
1, 600802, Control_c, 0, 64, 73
1, 600816, Control_c, 0, 64, 60
1, 600831, Control_c, 0, 64, 46
1, 600846, Control_c, 0, 64, 40
1, 600861, Control_c, 0, 64, 44
1, 600876, Control_c, 0, 64, 47
1, 600890, Control_c, 0, 64, 49
1, 600905, Control_c, 0, 64, 52
1, 600920, Control_c, 0, 64, 55
1, 600934, Control_c, 0, 64, 59
1, 600949, Control_c, 0, 64, 62
1, 600964, Control_c, 0, 64, 66
1, 600979, Control_c, 0, 64, 71
1, 600994, Control_c, 0, 64, 78
1, 600999, Note_off_c, 0, 62, 57
1, 601008, Control_c, 0, 64, 86
1, 601023, Control_c, 0, 64, 95
1, 601038, Control_c, 0, 64, 110
1, 601053, Control_c, 0, 64, 127
1, 601055, Note_off_c, 0, 50, 56
1, 601136, Note_off_c, 0, 74, 42
1, 601151, Note_off_c, 0, 82, 56
1, 601250, Note_on_c, 0, 81, 96
1, 601252, Note_on_c, 0, 74, 80
1, 601254, Note_on_c, 0, 60, 84
1, 601257, Note_on_c, 0, 48, 78
1, 601259, Control_c, 0, 64, 105
1, 601274, Control_c, 0, 64, 79
1, 601288, Control_c, 0, 64, 63
1, 601311, Control_c, 0, 64, 42
1, 601326, Control_c, 0, 64, 0
1, 601385, Control_c, 0, 64, 36
1, 601400, Control_c, 0, 64, 45
1, 601414, Control_c, 0, 64, 53
1, 601429, Control_c, 0, 64, 59
1, 601445, Control_c, 0, 64, 63
1, 601460, Control_c, 0, 64, 67
1, 601475, Control_c, 0, 64, 72
1, 601490, Control_c, 0, 64, 78
1, 601505, Control_c, 0, 64, 89
1, 601519, Control_c, 0, 64, 105
1, 601520, Note_off_c, 0, 60, 50
1, 601534, Control_c, 0, 64, 127
1, 601546, Note_off_c, 0, 81, 61
1, 601648, Note_off_c, 0, 74, 26
1, 601657, Note_off_c, 0, 48, 38
1, 601726, Control_c, 0, 64, 122
1, 601741, Control_c, 0, 64, 91
1, 601747, Note_on_c, 0, 46, 78
1, 601749, Note_on_c, 0, 79, 93
1, 601750, Note_on_c, 0, 58, 75
1, 601753, Note_on_c, 0, 74, 78
1, 601756, Control_c, 0, 64, 69
1, 601771, Control_c, 0, 64, 53
1, 601786, Control_c, 0, 64, 0
1, 601860, Control_c, 0, 64, 40
1, 601875, Control_c, 0, 64, 53
1, 601890, Control_c, 0, 64, 61
1, 601904, Control_c, 0, 64, 66
1, 601919, Control_c, 0, 64, 70
1, 601933, Note_off_c, 0, 79, 64
1, 601934, Control_c, 0, 64, 75
1, 601936, Note_off_c, 0, 74, 58
1, 601949, Control_c, 0, 64, 81
1, 601963, Control_c, 0, 64, 89
1, 601978, Control_c, 0, 64, 100
1, 601988, Note_off_c, 0, 58, 55
1, 601993, Control_c, 0, 64, 127
1, 602125, Note_off_c, 0, 46, 34
1, 602239, Control_c, 0, 64, 120
1, 602254, Control_c, 0, 64, 92
1, 602257, Note_on_c, 0, 78, 78
1, 602263, Note_on_c, 0, 72, 65
1, 602268, Control_c, 0, 64, 72
1, 602269, Note_on_c, 0, 45, 58
1, 602270, Note_on_c, 0, 57, 58
1, 602274, Note_on_c, 0, 74, 58
1, 602283, Control_c, 0, 64, 54
1, 602298, Control_c, 0, 64, 0
1, 602386, Note_off_c, 0, 72, 55
1, 602386, Control_c, 0, 64, 49
1, 602401, Control_c, 0, 64, 62
1, 602416, Control_c, 0, 64, 70
1, 602431, Control_c, 0, 64, 79
1, 602437, Note_off_c, 0, 74, 60
1, 602438, Note_off_c, 0, 45, 61
1, 602438, Note_off_c, 0, 78, 61
1, 602446, Control_c, 0, 64, 90
1, 602460, Control_c, 0, 64, 108
1, 602470, Note_off_c, 0, 57, 59
1, 602475, Control_c, 0, 64, 127
1, 602668, Control_c, 0, 64, 108
1, 602683, Control_c, 0, 64, 80
1, 602698, Control_c, 0, 64, 59
1, 602712, Control_c, 0, 64, 0
1, 602726, Note_on_c, 0, 79, 68
1, 602733, Note_on_c, 0, 55, 58
1, 602743, Control_c, 0, 67, 21
1, 602757, Control_c, 0, 67, 26
1, 602767, Note_off_c, 0, 55, 64
1, 602772, Control_c, 0, 67, 29
1, 602799, Note_off_c, 0, 79, 60
1, 602803, Note_on_c, 0, 74, 64
1, 602869, Note_off_c, 0, 74, 60
1, 602888, Note_on_c, 0, 58, 55
1, 602898, Note_on_c, 0, 70, 58
1, 602898, Control_c, 0, 67, 27
1, 602915, Note_off_c, 0, 58, 63
1, 602948, Note_on_c, 0, 74, 58
1, 602955, Note_off_c, 0, 70, 59
1, 603011, Note_off_c, 0, 74, 61
1, 603016, Note_on_c, 0, 62, 55
1, 603016, Note_on_c, 0, 79, 73
1, 603053, Note_off_c, 0, 62, 64
1, 603062, Control_c, 0, 67, 25
1, 603079, Note_off_c, 0, 79, 61
1, 603086, Note_on_c, 0, 74, 59
1, 603136, Control_c, 0, 67, 23
1, 603161, Note_on_c, 0, 54, 69
1, 603166, Note_off_c, 0, 74, 62
1, 603166, Control_c, 0, 67, 0
1, 603174, Note_on_c, 0, 81, 75
1, 603199, Note_off_c, 0, 54, 63
1, 603240, Note_on_c, 0, 74, 68
1, 603260, Note_off_c, 0, 81, 57
1, 603303, Note_off_c, 0, 74, 63
1, 603309, Note_on_c, 0, 57, 64
1, 603323, Note_on_c, 0, 72, 68
1, 603340, Note_off_c, 0, 57, 66
1, 603366, Note_off_c, 0, 72, 57
1, 603387, Note_on_c, 0, 74, 65
1, 603440, Note_on_c, 0, 81, 76
1, 603441, Note_off_c, 0, 74, 61
1, 603453, Note_on_c, 0, 62, 54
1, 603490, Note_off_c, 0, 62, 63
1, 603501, Note_off_c, 0, 81, 64
1, 603522, Note_on_c, 0, 74, 61
1, 603595, Note_on_c, 0, 55, 72
1, 603604, Note_off_c, 0, 74, 60
1, 603607, Note_on_c, 0, 82, 82
1, 603648, Note_off_c, 0, 55, 63
1, 603664, Note_on_c, 0, 79, 78
1, 603701, Note_off_c, 0, 82, 63
1, 603733, Note_off_c, 0, 79, 65
1, 603744, Note_on_c, 0, 74, 74
1, 603752, Note_on_c, 0, 58, 68
1, 603786, Note_off_c, 0, 58, 64
1, 603814, Note_on_c, 0, 79, 81
1, 603827, Note_off_c, 0, 74, 60
1, 603888, Note_on_c, 0, 82, 86
1, 603895, Note_off_c, 0, 79, 64
1, 603899, Note_on_c, 0, 62, 60
1, 603941, Note_off_c, 0, 62, 60
1, 603961, Note_on_c, 0, 79, 82
1, 603965, Note_off_c, 0, 82, 63
1, 604033, Note_off_c, 0, 79, 64
1, 604037, Note_on_c, 0, 53, 76
1, 604044, Note_on_c, 0, 83, 85
1, 604095, Note_off_c, 0, 53, 63
1, 604119, Note_on_c, 0, 79, 85
1, 604136, Note_off_c, 0, 83, 63
1, 604172, Note_off_c, 0, 79, 68
1, 604181, Note_on_c, 0, 74, 77
1, 604191, Note_on_c, 0, 59, 61
1, 604219, Note_off_c, 0, 59, 67
1, 604244, Note_off_c, 0, 74, 60
1, 604258, Note_on_c, 0, 79, 86
1, 604317, Note_on_c, 0, 62, 57
1, 604325, Note_on_c, 0, 83, 80
1, 604332, Note_off_c, 0, 79, 66
1, 604386, Note_off_c, 0, 62, 58
1, 604391, Note_off_c, 0, 83, 64
1, 604407, Note_on_c, 0, 79, 84
1, 604494, Note_on_c, 0, 52, 52
1, 604498, Note_on_c, 0, 84, 91
1, 604522, Note_off_c, 0, 79, 63
1, 604648, Control_c, 0, 64, 29
1, 604662, Control_c, 0, 64, 48
1, 604677, Control_c, 0, 64, 60
1, 604692, Control_c, 0, 64, 66
1, 604703, Note_off_c, 0, 52, 61
1, 604707, Control_c, 0, 64, 70
1, 604722, Control_c, 0, 64, 76
1, 604726, Note_off_c, 0, 84, 63
1, 604737, Control_c, 0, 64, 82
1, 604752, Control_c, 0, 64, 89
1, 604767, Control_c, 0, 64, 94
1, 604781, Control_c, 0, 64, 96
1, 604851, Note_on_c, 0, 86, 69
1, 604905, Note_on_c, 0, 84, 74
1, 604914, Control_c, 0, 64, 95
1, 604929, Control_c, 0, 64, 90
1, 604944, Control_c, 0, 64, 83
1, 604959, Control_c, 0, 64, 74
1, 604974, Note_off_c, 0, 86, 56
1, 604974, Control_c, 0, 64, 64
1, 604982, Note_on_c, 0, 82, 83
1, 604989, Control_c, 0, 64, 49
1, 605004, Control_c, 0, 64, 0
1, 605062, Note_off_c, 0, 84, 52
1, 605115, Control_c, 0, 64, 38
1, 605130, Control_c, 0, 64, 51
1, 605145, Control_c, 0, 64, 60
1, 605160, Control_c, 0, 64, 63
1, 605175, Control_c, 0, 64, 65
1, 605189, Control_c, 0, 64, 67
1, 605197, Note_off_c, 0, 82, 62
1, 605204, Control_c, 0, 64, 69
1, 605219, Control_c, 0, 64, 71
1, 605233, Control_c, 0, 64, 73
1, 605248, Control_c, 0, 64, 74
1, 605263, Control_c, 0, 64, 74
1, 605288, Note_on_c, 0, 84, 61
1, 605348, Note_on_c, 0, 82, 67
1, 605391, Note_off_c, 0, 84, 53
1, 605411, Control_c, 0, 64, 74
1, 605426, Note_on_c, 0, 72, 76
1, 605427, Note_off_c, 0, 82, 62
1, 605427, Control_c, 0, 64, 72
1, 605442, Control_c, 0, 64, 67
1, 605449, Note_on_c, 0, 81, 48
1, 605457, Control_c, 0, 64, 62
1, 605472, Control_c, 0, 64, 54
1, 605476, Note_on_c, 0, 83, 41
1, 605486, Control_c, 0, 64, 45
1, 605492, Note_off_c, 0, 81, 0
1, 605492, Note_on_c, 0, 81, 9
1, 605501, Control_c, 0, 64, 39
1, 605504, Note_off_c, 0, 83, 56
1, 605516, Control_c, 0, 64, 36
1, 605530, Control_c, 0, 64, 37
1, 605545, Control_c, 0, 64, 38
1, 605560, Control_c, 0, 64, 41
1, 605575, Control_c, 0, 64, 44
1, 605590, Control_c, 0, 64, 49
1, 605604, Control_c, 0, 64, 53
1, 605619, Control_c, 0, 64, 57
1, 605622, Note_off_c, 0, 81, 43
1, 605634, Control_c, 0, 64, 60
1, 605649, Control_c, 0, 64, 63
1, 605664, Control_c, 0, 64, 66
1, 605679, Control_c, 0, 64, 69
1, 605694, Control_c, 0, 64, 72
1, 605709, Control_c, 0, 64, 74
1, 605723, Control_c, 0, 64, 76
1, 605738, Control_c, 0, 64, 77
1, 605752, Note_on_c, 0, 82, 62
1, 605781, Note_off_c, 0, 72, 55
1, 605819, Note_on_c, 0, 81, 64
1, 605848, Note_off_c, 0, 82, 50
1, 605878, Control_c, 0, 64, 76
1, 605893, Control_c, 0, 64, 74
1, 605896, Note_off_c, 0, 81, 61
1, 605902, Note_on_c, 0, 70, 66
1, 605905, Note_on_c, 0, 79, 66
1, 605908, Note_on_c, 0, 72, 63
1, 605908, Control_c, 0, 64, 70
1, 605923, Control_c, 0, 64, 63
1, 605938, Control_c, 0, 64, 51
1, 605953, Control_c, 0, 64, 36
1, 605968, Control_c, 0, 64, 0
1, 606027, Control_c, 0, 64, 32
1, 606032, Note_off_c, 0, 79, 55
1, 606042, Control_c, 0, 64, 42
1, 606056, Control_c, 0, 64, 50
1, 606071, Control_c, 0, 64, 57
1, 606086, Control_c, 0, 64, 60
1, 606101, Control_c, 0, 64, 63
1, 606116, Control_c, 0, 64, 64
1, 606130, Control_c, 0, 64, 66
1, 606145, Control_c, 0, 64, 67
1, 606160, Control_c, 0, 64, 68
1, 606175, Control_c, 0, 64, 68
1, 606190, Control_c, 0, 64, 69
1, 606216, Note_on_c, 0, 81, 52
1, 606237, Note_off_c, 0, 72, 57
1, 606266, Note_off_c, 0, 70, 61
1, 606277, Note_on_c, 0, 79, 63
1, 606307, Note_off_c, 0, 81, 54
1, 606309, Control_c, 0, 64, 68
1, 606324, Control_c, 0, 64, 68
1, 606339, Control_c, 0, 64, 66
1, 606353, Control_c, 0, 64, 63
1, 606361, Note_off_c, 0, 79, 63
1, 606364, Note_on_c, 0, 77, 60
1, 606368, Control_c, 0, 64, 56
1, 606370, Note_on_c, 0, 69, 52
1, 606373, Note_on_c, 0, 72, 51
1, 606383, Control_c, 0, 64, 45
1, 606398, Control_c, 0, 64, 31
1, 606413, Control_c, 0, 64, 0
1, 606457, Control_c, 0, 64, 32
1, 606472, Control_c, 0, 64, 40
1, 606487, Control_c, 0, 64, 49
1, 606501, Control_c, 0, 64, 56
1, 606516, Note_off_c, 0, 77, 53
1, 606516, Control_c, 0, 64, 60
1, 606531, Control_c, 0, 64, 63
1, 606553, Control_c, 0, 64, 65
1, 606568, Control_c, 0, 64, 66
1, 606583, Control_c, 0, 64, 68
1, 606598, Control_c, 0, 64, 70
1, 606609, Note_off_c, 0, 69, 60
1, 606613, Control_c, 0, 64, 71
1, 606627, Control_c, 0, 64, 71
1, 606686, Note_off_c, 0, 72, 24
1, 606692, Note_on_c, 0, 79, 48
1, 606749, Note_on_c, 0, 77, 52
1, 606767, Note_off_c, 0, 79, 55
1, 606805, Control_c, 0, 64, 71
1, 606816, Note_off_c, 0, 77, 61
1, 606820, Control_c, 0, 64, 67
1, 606835, Control_c, 0, 64, 61
1, 606843, Note_on_c, 0, 76, 57
1, 606847, Note_on_c, 0, 72, 49
1, 606850, Control_c, 0, 64, 51
1, 606865, Control_c, 0, 64, 40
1, 606865, Note_on_c, 0, 65, 34
1, 606868, Note_on_c, 0, 69, 28
1, 606879, Control_c, 0, 64, 29
1, 606894, Control_c, 0, 64, 0
1, 606909, Control_c, 0, 64, 29
1, 606924, Control_c, 0, 64, 33
1, 606939, Control_c, 0, 64, 42
1, 606953, Control_c, 0, 64, 52
1, 606968, Control_c, 0, 64, 59
1, 606983, Control_c, 0, 64, 63
1, 606997, Control_c, 0, 64, 66
1, 607010, Note_off_c, 0, 76, 59
1, 607012, Control_c, 0, 64, 68
1, 607029, Control_c, 0, 64, 69
1, 607033, Note_off_c, 0, 65, 42
1, 607044, Control_c, 0, 64, 69
1, 607051, Note_off_c, 0, 72, 42
1, 607056, Note_off_c, 0, 69, 50
1, 607126, Note_on_c, 0, 77, 49
1, 607169, Note_off_c, 0, 77, 60
1, 607209, Note_on_c, 0, 76, 55
1, 607220, Control_c, 0, 64, 69
1, 607235, Control_c, 0, 64, 66
1, 607250, Control_c, 0, 64, 63
1, 607265, Control_c, 0, 64, 57
1, 607270, Note_off_c, 0, 76, 50
1, 607279, Control_c, 0, 64, 49
1, 607290, Note_on_c, 0, 65, 52
1, 607293, Note_on_c, 0, 79, 63
1, 607294, Control_c, 0, 64, 38
1, 607316, Control_c, 0, 64, 0
1, 607320, Note_off_c, 0, 65, 62
1, 607375, Note_on_c, 0, 77, 53
1, 607375, Note_off_c, 0, 79, 62
1, 607431, Note_off_c, 0, 77, 62
1, 607446, Note_on_c, 0, 69, 58
1, 607469, Note_on_c, 0, 76, 54
1, 607478, Note_off_c, 0, 69, 64
1, 607503, Note_off_c, 0, 76, 63
1, 607528, Note_on_c, 0, 77, 56
1, 607575, Note_off_c, 0, 77, 63
1, 607598, Note_on_c, 0, 76, 67
1, 607600, Note_on_c, 0, 72, 47
1, 607642, Note_off_c, 0, 72, 63
1, 607665, Note_off_c, 0, 76, 57
1, 607667, Note_on_c, 0, 77, 55
1, 607719, Note_off_c, 0, 77, 58
1, 607739, Note_on_c, 0, 64, 54
1, 607741, Note_on_c, 0, 81, 61
1, 607780, Note_off_c, 0, 64, 59
1, 607808, Note_on_c, 0, 79, 67
1, 607819, Note_off_c, 0, 81, 58
1, 607864, Note_off_c, 0, 79, 66
1, 607877, Note_on_c, 0, 78, 73
1, 607889, Note_on_c, 0, 67, 56
1, 607925, Note_off_c, 0, 67, 63
1, 607933, Note_off_c, 0, 78, 63
1, 607963, Note_on_c, 0, 79, 70
1, 608032, Note_on_c, 0, 72, 50
1, 608034, Note_on_c, 0, 78, 75
1, 608036, Note_off_c, 0, 79, 64
1, 608074, Note_off_c, 0, 72, 64
1, 608093, Note_off_c, 0, 78, 64
1, 608114, Note_on_c, 0, 79, 70
1, 608173, Note_on_c, 0, 72, 53
1, 608176, Note_off_c, 0, 79, 62
1, 608192, Note_on_c, 0, 81, 67
1, 608197, Note_on_c, 0, 69, 29
1, 608200, Note_on_c, 0, 65, 33
1, 608269, Note_on_c, 0, 79, 78
1, 608290, Note_off_c, 0, 81, 59
1, 608337, Note_on_c, 0, 77, 71
1, 608341, Note_off_c, 0, 79, 64
1, 608388, Note_off_c, 0, 77, 63
1, 608415, Note_on_c, 0, 79, 81
1, 608434, Note_off_c, 0, 72, 53
1, 608469, Note_off_c, 0, 69, 46
1, 608483, Note_on_c, 0, 81, 76
1, 608484, Note_off_c, 0, 65, 43
1, 608534, Note_off_c, 0, 79, 38
1, 608555, Note_on_c, 0, 82, 79
1, 608566, Note_off_c, 0, 81, 58
1, 608619, Note_off_c, 0, 82, 65
1, 608628, Note_on_c, 0, 84, 75
1, 608704, Note_on_c, 0, 82, 86
1, 608714, Note_off_c, 0, 84, 62
1, 608754, Note_off_c, 0, 82, 65
1, 608768, Note_on_c, 0, 81, 78
1, 608853, Note_on_c, 0, 82, 79
1, 608856, Note_off_c, 0, 81, 62
1, 608927, Note_on_c, 0, 84, 75
1, 608953, Note_off_c, 0, 82, 58
1, 608988, Note_on_c, 0, 85, 73
1, 609003, Note_off_c, 0, 84, 60
1, 609074, Note_on_c, 0, 46, 45
1, 609081, Note_on_c, 0, 86, 69
1, 609096, Note_off_c, 0, 85, 61
1, 609106, Note_off_c, 0, 46, 60
1, 609133, Note_off_c, 0, 86, 61
1, 609145, Note_on_c, 0, 74, 60
1, 609208, Note_off_c, 0, 74, 61
1, 609232, Note_on_c, 0, 86, 70
1, 609241, Note_on_c, 0, 58, 68
1, 609267, Note_off_c, 0, 58, 67
1, 609308, Note_on_c, 0, 84, 73
1, 609346, Note_off_c, 0, 86, 55
1, 609379, Note_on_c, 0, 82, 77
1, 609407, Note_off_c, 0, 84, 60
1, 609452, Note_on_c, 0, 81, 77
1, 609481, Note_off_c, 0, 82, 63
1, 609507, Note_on_c, 0, 52, 60
1, 609509, Note_off_c, 0, 81, 65
1, 609525, Note_on_c, 0, 79, 86
1, 609551, Note_off_c, 0, 52, 63
1, 609595, Note_off_c, 0, 79, 62
1, 609607, Note_on_c, 0, 78, 76
1, 609666, Note_off_c, 0, 78, 65
1, 609681, Note_on_c, 0, 79, 84
1, 609684, Note_on_c, 0, 64, 59
1, 609714, Note_off_c, 0, 64, 67
1, 609752, Note_on_c, 0, 81, 82
1, 609774, Note_off_c, 0, 79, 58
1, 609824, Note_on_c, 0, 82, 80
1, 609860, Note_off_c, 0, 81, 61
1, 609894, Note_on_c, 0, 83, 72
1, 609931, Note_off_c, 0, 82, 59
1, 609957, Note_on_c, 0, 45, 63
1, 609974, Note_on_c, 0, 84, 77
1, 609992, Note_off_c, 0, 83, 60
1, 609992, Note_off_c, 0, 45, 65
1, 610037, Note_off_c, 0, 84, 61
1, 610046, Note_on_c, 0, 72, 61
1, 610119, Note_off_c, 0, 72, 56
1, 610125, Note_on_c, 0, 84, 73
1, 610126, Note_on_c, 0, 57, 63
1, 610159, Note_off_c, 0, 57, 65
1, 610200, Note_on_c, 0, 82, 72
1, 610249, Note_off_c, 0, 84, 56
1, 610275, Note_on_c, 0, 81, 77
1, 610309, Note_off_c, 0, 82, 62
1, 610349, Note_on_c, 0, 79, 78
1, 610374, Note_off_c, 0, 81, 63
1, 610405, Note_off_c, 0, 79, 67
1, 610425, Note_on_c, 0, 50, 63
1, 610426, Note_on_c, 0, 77, 76
1, 610460, Note_off_c, 0, 50, 65
1, 610479, Note_off_c, 0, 77, 62
1, 610496, Note_on_c, 0, 76, 70
1, 610554, Note_off_c, 0, 76, 64
1, 610573, Note_on_c, 0, 62, 55
1, 610574, Note_on_c, 0, 77, 53
1, 610600, Note_off_c, 0, 62, 63
1, 610644, Note_on_c, 0, 79, 78
1, 610648, Note_off_c, 0, 77, 60
1, 610715, Note_on_c, 0, 80, 78
1, 610726, Note_off_c, 0, 79, 64
1, 610766, Note_off_c, 0, 80, 65
1, 610786, Note_on_c, 0, 81, 78
1, 610854, Note_on_c, 0, 43, 73
1, 610863, Note_off_c, 0, 81, 57
1, 610866, Note_on_c, 0, 82, 80
1, 610907, Note_off_c, 0, 43, 61
1, 610931, Note_off_c, 0, 82, 63
1, 610942, Note_on_c, 0, 84, 78
1, 611005, Note_on_c, 0, 45, 76
1, 611020, Note_on_c, 0, 82, 78
1, 611057, Note_off_c, 0, 84, 59
1, 611071, Note_off_c, 0, 45, 63
1, 611098, Note_on_c, 0, 81, 82
1, 611125, Note_off_c, 0, 82, 63
1, 611156, Note_off_c, 0, 81, 64
1, 611168, Note_on_c, 0, 46, 78
1, 611170, Note_on_c, 0, 79, 83
1, 611220, Note_off_c, 0, 46, 62
1, 611239, Note_on_c, 0, 77, 78
1, 611243, Note_off_c, 0, 79, 65
1, 611317, Note_off_c, 0, 77, 64
1, 611319, Note_on_c, 0, 48, 76
1, 611319, Note_on_c, 0, 76, 80
1, 611369, Note_off_c, 0, 48, 63
1, 611376, Note_off_c, 0, 76, 63
1, 611396, Note_on_c, 0, 77, 78
1, 611467, Note_on_c, 0, 76, 81
1, 611468, Note_on_c, 0, 50, 79
1, 611480, Note_off_c, 0, 77, 57
1, 611507, Note_off_c, 0, 50, 62
1, 611518, Note_off_c, 0, 76, 66
1, 611541, Note_on_c, 0, 74, 77
1, 611607, Note_on_c, 0, 52, 83
1, 611607, Note_off_c, 0, 74, 60
1, 611614, Note_on_c, 0, 72, 77
1, 611643, Note_off_c, 0, 52, 64
1, 611684, Note_on_c, 0, 70, 77
1, 611714, Note_off_c, 0, 72, 60
1, 611748, Note_off_c, 0, 70, 65
1, 611763, Note_on_c, 0, 69, 82
1, 611764, Note_on_c, 0, 53, 83
1, 611854, Note_on_c, 0, 72, 79
1, 611873, Note_off_c, 0, 69, 58
1, 611885, Note_off_c, 0, 53, 52
1, 611937, Note_on_c, 0, 77, 75
1, 611942, Note_off_c, 0, 72, 64
1, 612003, Note_off_c, 0, 77, 64
1, 612004, Note_on_c, 0, 79, 80
1, 612058, Note_on_c, 0, 45, 79
1, 612077, Note_on_c, 0, 77, 70
1, 612104, Note_off_c, 0, 45, 61
1, 612113, Note_off_c, 0, 79, 63
1, 612144, Note_on_c, 0, 76, 76
1, 612168, Note_off_c, 0, 77, 63
1, 612218, Note_on_c, 0, 74, 77
1, 612225, Note_on_c, 0, 46, 81
1, 612243, Note_off_c, 0, 76, 62
1, 612267, Note_off_c, 0, 74, 65
1, 612290, Note_on_c, 0, 72, 71
1, 612335, Note_off_c, 0, 72, 58
1, 612354, Note_off_c, 0, 46, 41
1, 612363, Note_on_c, 0, 70, 71
1, 612426, Note_on_c, 0, 69, 80
1, 612456, Note_off_c, 0, 70, 61
1, 612480, Note_on_c, 0, 47, 71
1, 612494, Note_on_c, 0, 67, 78
1, 612514, Note_off_c, 0, 47, 66
1, 612526, Note_off_c, 0, 69, 62
1, 612556, Note_off_c, 0, 67, 66
1, 612575, Note_on_c, 0, 65, 73
1, 612627, Note_off_c, 0, 65, 57
1, 612648, Note_on_c, 0, 48, 47
1, 612651, Note_on_c, 0, 64, 75
1, 612726, Note_on_c, 0, 65, 83
1, 612732, Note_off_c, 0, 64, 62
1, 612786, Note_off_c, 0, 65, 65
1, 612797, Note_on_c, 0, 67, 65
1, 612854, Note_on_c, 0, 65, 70
1, 612883, Note_off_c, 0, 67, 61
1, 612901, Note_off_c, 0, 48, 65
1, 612929, Note_on_c, 0, 64, 71
1, 612948, Note_off_c, 0, 65, 63
1, 612987, Note_off_c, 0, 64, 63
1, 613000, Note_on_c, 0, 62, 67
1, 613048, Control_c, 0, 67, 20
1, 613062, Control_c, 0, 67, 22
1, 613074, Note_off_c, 0, 62, 61
1, 613077, Control_c, 0, 67, 24
1, 613079, Note_on_c, 0, 60, 67
1, 613092, Control_c, 0, 67, 26
1, 613122, Control_c, 0, 67, 29
1, 613137, Control_c, 0, 67, 31
1, 613145, Note_off_c, 0, 60, 66
1, 613151, Note_on_c, 0, 62, 58
1, 613152, Control_c, 0, 67, 35
1, 613166, Control_c, 0, 67, 40
1, 613181, Control_c, 0, 67, 45
1, 613190, Note_off_c, 0, 62, 64
1, 613196, Control_c, 0, 67, 49
1, 613211, Control_c, 0, 67, 51
1, 613226, Control_c, 0, 67, 52
1, 613234, Note_on_c, 0, 60, 59
1, 613274, Note_off_c, 0, 60, 57
1, 613315, Note_on_c, 0, 58, 60
1, 613364, Note_off_c, 0, 58, 59
1, 613381, Control_c, 0, 67, 51
1, 613391, Note_on_c, 0, 56, 20
1, 613435, Note_off_c, 0, 56, 29
1, 613463, Note_on_c, 0, 55, 53
1, 613471, Control_c, 0, 67, 51
1, 613560, Control_c, 0, 67, 50
1, 613579, Note_off_c, 0, 55, 56
1, 613602, Note_on_c, 0, 53, 39
1, 613612, Note_on_c, 0, 68, 61
1, 613635, Control_c, 0, 67, 50
1, 613738, Control_c, 0, 67, 49
1, 613812, Control_c, 0, 67, 49
1, 613842, Control_c, 0, 67, 48
1, 613845, Note_on_c, 0, 56, 41
1, 613882, Note_off_c, 0, 53, 52
1, 613931, Control_c, 0, 67, 48
1, 613995, Note_on_c, 0, 60, 44
1, 614027, Note_off_c, 0, 56, 50
1, 614057, Control_c, 0, 67, 47
1, 614115, Control_c, 0, 67, 47
1, 614159, Note_on_c, 0, 53, 48
1, 614191, Note_off_c, 0, 60, 44
1, 614219, Note_off_c, 0, 68, 58
1, 614314, Note_on_c, 0, 56, 49
1, 614317, Note_on_c, 0, 67, 51
1, 614350, Note_off_c, 0, 67, 66
1, 614368, Note_off_c, 0, 53, 53
1, 614466, Note_on_c, 0, 60, 40
1, 614466, Note_on_c, 0, 65, 56
1, 614486, Note_off_c, 0, 56, 47
1, 614505, Note_off_c, 0, 65, 64
1, 614606, Control_c, 0, 67, 46
1, 614628, Note_on_c, 0, 71, 55
1, 614630, Note_on_c, 0, 52, 35
1, 614645, Note_off_c, 0, 60, 38
1, 614808, Note_on_c, 0, 55, 35
1, 614865, Control_c, 0, 67, 46
1, 614899, Note_off_c, 0, 52, 38
1, 614958, Note_on_c, 0, 72, 44
1, 614960, Note_on_c, 0, 60, 38
1, 614988, Note_off_c, 0, 55, 44
1, 614999, Note_off_c, 0, 71, 37
1, 615123, Note_off_c, 0, 72, 36
1, 615128, Note_on_c, 0, 67, 45
1, 615141, Note_on_c, 0, 52, 36
1, 615157, Note_off_c, 0, 60, 44
1, 615308, Note_on_c, 0, 55, 39
1, 615340, Control_c, 0, 67, 45
1, 615346, Note_off_c, 0, 67, 53
1, 615398, Note_off_c, 0, 52, 39
1, 615451, Note_on_c, 0, 60, 40
1, 615468, Note_off_c, 0, 55, 53
1, 615668, Note_on_c, 0, 73, 71
1, 615672, Note_on_c, 0, 52, 26
1, 615726, Note_off_c, 0, 60, 33
1, 615873, Note_on_c, 0, 55, 39
1, 616028, Note_on_c, 0, 58, 44
1, 616030, Note_off_c, 0, 52, 40
1, 616046, Note_off_c, 0, 55, 55
1, 616180, Note_on_c, 0, 52, 44
1, 616222, Note_off_c, 0, 73, 58
1, 616245, Note_off_c, 0, 58, 36
1, 616338, Note_on_c, 0, 72, 54
1, 616357, Note_on_c, 0, 55, 39
1, 616383, Note_off_c, 0, 72, 60
1, 616473, Note_on_c, 0, 70, 64
1, 616486, Note_off_c, 0, 52, 32
1, 616495, Note_on_c, 0, 60, 38
1, 616506, Note_off_c, 0, 55, 45
1, 616510, Note_off_c, 0, 70, 63
1, 616629, Control_c, 0, 67, 45
1, 616639, Note_on_c, 0, 68, 51
1, 616648, Note_on_c, 0, 53, 40
1, 616667, Note_off_c, 0, 60, 45
1, 616679, Note_off_c, 0, 68, 64
1, 616701, Note_on_c, 0, 70, 55
1, 616767, Note_on_c, 0, 68, 59
1, 616775, Note_off_c, 0, 70, 59
1, 616777, Control_c, 0, 67, 44
1, 616788, Note_on_c, 0, 56, 40
1, 616808, Note_off_c, 0, 68, 63
1, 616821, Control_c, 0, 67, 44
1, 616827, Note_on_c, 0, 67, 60
1, 616830, Note_off_c, 0, 53, 47
1, 616851, Control_c, 0, 67, 43
1, 616866, Control_c, 0, 67, 43
1, 616890, Note_off_c, 0, 56, 54
1, 616896, Control_c, 0, 67, 42
1, 616897, Note_on_c, 0, 68, 55
1, 616911, Note_on_c, 0, 60, 39
1, 616933, Note_off_c, 0, 67, 38
1, 616955, Control_c, 0, 67, 42
1, 616962, Note_on_c, 0, 70, 59
1, 616967, Note_off_c, 0, 68, 59
1, 617000, Control_c, 0, 67, 41
1, 617036, Control_c, 0, 67, 41
1, 617075, Note_on_c, 0, 72, 54
1, 617084, Note_off_c, 0, 70, 61
1, 617087, Note_on_c, 0, 53, 36
1, 617096, Control_c, 0, 67, 40
1, 617106, Note_off_c, 0, 60, 37
1, 617110, Control_c, 0, 67, 40
1, 617125, Control_c, 0, 67, 38
1, 617140, Control_c, 0, 67, 33
1, 617155, Control_c, 0, 67, 23
1, 617170, Control_c, 0, 67, 0
1, 617200, Control_c, 0, 64, 33
1, 617214, Control_c, 0, 64, 50
1, 617229, Control_c, 0, 64, 58
1, 617242, Note_off_c, 0, 72, 57
1, 617244, Control_c, 0, 64, 62
1, 617250, Note_on_c, 0, 56, 39
1, 617259, Control_c, 0, 64, 64
1, 617274, Control_c, 0, 64, 66
1, 617288, Control_c, 0, 64, 68
1, 617295, Note_off_c, 0, 53, 40
1, 617303, Control_c, 0, 64, 72
1, 617318, Control_c, 0, 64, 75
1, 617332, Control_c, 0, 64, 78
1, 617347, Control_c, 0, 64, 80
1, 617362, Control_c, 0, 64, 80
1, 617369, Note_off_c, 0, 56, 59
1, 617377, Control_c, 0, 64, 81
1, 617392, Control_c, 0, 64, 81
1, 617408, Control_c, 0, 64, 82
1, 617426, Note_on_c, 0, 60, 36
1, 617470, Note_off_c, 0, 60, 48
1, 617570, Control_c, 0, 64, 82
1, 617585, Control_c, 0, 64, 81
1, 617600, Control_c, 0, 64, 81
1, 617615, Control_c, 0, 64, 80
1, 617624, Note_on_c, 0, 77, 73
1, 617626, Note_on_c, 0, 56, 45
1, 617629, Control_c, 0, 64, 78
1, 617644, Control_c, 0, 64, 76
1, 617659, Control_c, 0, 64, 74
1, 617674, Control_c, 0, 64, 71
1, 617689, Control_c, 0, 64, 66
1, 617704, Control_c, 0, 64, 60
1, 617719, Control_c, 0, 64, 52
1, 617733, Control_c, 0, 64, 43
1, 617748, Control_c, 0, 64, 39
1, 617763, Control_c, 0, 64, 40
1, 617785, Control_c, 0, 64, 41
1, 617800, Control_c, 0, 64, 44
1, 617815, Control_c, 0, 64, 47
1, 617830, Control_c, 0, 64, 49
1, 617838, Note_on_c, 0, 60, 40
1, 617844, Control_c, 0, 64, 52
1, 617859, Control_c, 0, 64, 55
1, 617874, Control_c, 0, 64, 58
1, 617888, Control_c, 0, 64, 61
1, 617903, Control_c, 0, 64, 63
1, 617918, Control_c, 0, 64, 65
1, 617923, Note_off_c, 0, 56, 49
1, 617933, Control_c, 0, 64, 68
1, 617948, Control_c, 0, 64, 72
1, 617963, Control_c, 0, 64, 75
1, 617978, Control_c, 0, 64, 76
1, 617993, Control_c, 0, 64, 77
1, 617993, Note_on_c, 0, 65, 48
1, 618027, Note_off_c, 0, 60, 54
1, 618053, Note_off_c, 0, 65, 54
1, 618111, Control_c, 0, 64, 77
1, 618126, Control_c, 0, 64, 76
1, 618141, Control_c, 0, 64, 75
1, 618155, Control_c, 0, 64, 74
1, 618156, Note_on_c, 0, 75, 71
1, 618168, Note_on_c, 0, 55, 37
1, 618170, Control_c, 0, 64, 70
1, 618185, Control_c, 0, 64, 65
1, 618200, Control_c, 0, 64, 59
1, 618216, Control_c, 0, 64, 53
1, 618231, Control_c, 0, 64, 51
1, 618246, Control_c, 0, 64, 51
1, 618260, Control_c, 0, 64, 52
1, 618273, Note_off_c, 0, 77, 58
1, 618275, Control_c, 0, 64, 53
1, 618290, Control_c, 0, 64, 55
1, 618304, Control_c, 0, 64, 58
1, 618308, Note_on_c, 0, 58, 45
1, 618319, Control_c, 0, 64, 60
1, 618334, Control_c, 0, 64, 63
1, 618349, Control_c, 0, 64, 65
1, 618364, Control_c, 0, 64, 67
1, 618378, Control_c, 0, 64, 69
1, 618393, Control_c, 0, 64, 70
1, 618394, Note_off_c, 0, 55, 37
1, 618408, Control_c, 0, 64, 70
1, 618462, Note_on_c, 0, 77, 72
1, 618470, Note_on_c, 0, 63, 39
1, 618471, Note_off_c, 0, 58, 56
1, 618500, Note_off_c, 0, 75, 58
1, 618526, Control_c, 0, 64, 70
1, 618549, Control_c, 0, 64, 69
1, 618564, Control_c, 0, 64, 69
1, 618579, Control_c, 0, 64, 68
1, 618593, Control_c, 0, 64, 66
1, 618608, Control_c, 0, 64, 63
1, 618623, Control_c, 0, 64, 59
1, 618634, Note_off_c, 0, 63, 44
1, 618638, Control_c, 0, 64, 54
1, 618652, Note_on_c, 0, 75, 66
1, 618653, Control_c, 0, 64, 50
1, 618656, Note_on_c, 0, 53, 39
1, 618667, Control_c, 0, 64, 48
1, 618682, Control_c, 0, 64, 48
1, 618726, Control_c, 0, 64, 49
1, 618741, Control_c, 0, 64, 51
1, 618756, Control_c, 0, 64, 54
1, 618765, Note_off_c, 0, 77, 58
1, 618771, Control_c, 0, 64, 57
1, 618786, Control_c, 0, 64, 59
1, 618801, Control_c, 0, 64, 62
1, 618810, Note_on_c, 0, 56, 52
1, 618816, Control_c, 0, 64, 63
1, 618824, Note_off_c, 0, 53, 51
1, 618830, Control_c, 0, 64, 65
1, 618845, Control_c, 0, 64, 66
1, 618860, Control_c, 0, 64, 68
1, 618875, Control_c, 0, 64, 69
1, 618890, Control_c, 0, 64, 69
1, 618941, Note_off_c, 0, 56, 57
1, 618957, Note_on_c, 0, 61, 45
1, 618962, Note_on_c, 0, 73, 65
1, 619009, Control_c, 0, 64, 69
1, 619024, Control_c, 0, 64, 68
1, 619036, Note_off_c, 0, 75, 58
1, 619039, Control_c, 0, 64, 68
1, 619054, Control_c, 0, 64, 67
1, 619069, Control_c, 0, 64, 66
1, 619083, Control_c, 0, 64, 64
1, 619098, Control_c, 0, 64, 59
1, 619113, Control_c, 0, 64, 53
1, 619127, Note_on_c, 0, 72, 60
1, 619127, Control_c, 0, 64, 47
1, 619135, Note_on_c, 0, 51, 44
1, 619137, Note_off_c, 0, 61, 35
1, 619142, Control_c, 0, 64, 42
1, 619147, Note_off_c, 0, 73, 57
1, 619157, Control_c, 0, 64, 39
1, 619172, Control_c, 0, 64, 38
1, 619201, Control_c, 0, 64, 39
1, 619216, Control_c, 0, 64, 40
1, 619231, Control_c, 0, 64, 44
1, 619246, Control_c, 0, 64, 49
1, 619261, Control_c, 0, 64, 53
1, 619283, Control_c, 0, 64, 56
1, 619287, Note_off_c, 0, 51, 55
1, 619293, Note_on_c, 0, 55, 46
1, 619298, Control_c, 0, 64, 59
1, 619313, Control_c, 0, 64, 61
1, 619328, Control_c, 0, 64, 63
1, 619342, Control_c, 0, 64, 65
1, 619357, Control_c, 0, 64, 66
1, 619364, Note_off_c, 0, 72, 52
1, 619372, Control_c, 0, 64, 67
1, 619387, Control_c, 0, 64, 68
1, 619413, Note_off_c, 0, 55, 59
1, 619455, Note_on_c, 0, 60, 39
1, 619475, Control_c, 0, 64, 67
1, 619490, Control_c, 0, 64, 66
1, 619505, Control_c, 0, 64, 62
1, 619520, Control_c, 0, 64, 56
1, 619534, Control_c, 0, 64, 51
1, 619549, Control_c, 0, 64, 44
1, 619564, Control_c, 0, 64, 34
1, 619579, Note_off_c, 0, 60, 38
1, 619579, Control_c, 0, 64, 0
1, 619610, Note_on_c, 0, 70, 60
1, 619611, Note_on_c, 0, 49, 42
1, 619775, Note_on_c, 0, 53, 39
1, 619818, Note_off_c, 0, 49, 47
1, 619918, Note_on_c, 0, 68, 64
1, 619928, Note_off_c, 0, 53, 59
1, 619948, Note_on_c, 0, 58, 38
1, 620085, Note_on_c, 0, 67, 61
1, 620091, Note_off_c, 0, 58, 45
1, 620096, Note_on_c, 0, 49, 43
1, 620100, Note_off_c, 0, 70, 34
1, 620169, Note_off_c, 0, 68, 52
1, 620264, Note_on_c, 0, 53, 41
1, 620269, Control_c, 0, 67, 20
1, 620283, Control_c, 0, 67, 23
1, 620284, Note_off_c, 0, 49, 41
1, 620298, Control_c, 0, 67, 27
1, 620313, Control_c, 0, 67, 30
1, 620328, Control_c, 0, 67, 34
1, 620343, Control_c, 0, 67, 37
1, 620357, Control_c, 0, 67, 37
1, 620372, Control_c, 0, 67, 38
1, 620387, Control_c, 0, 67, 38
1, 620407, Note_off_c, 0, 53, 48
1, 620408, Note_on_c, 0, 65, 53
1, 620423, Note_off_c, 0, 67, 51
1, 620426, Note_on_c, 0, 59, 21
1, 620431, Control_c, 0, 67, 39
1, 620590, Note_on_c, 0, 68, 53
1, 620597, Note_off_c, 0, 59, 23
1, 620604, Note_on_c, 0, 48, 31
1, 620625, Control_c, 0, 67, 38
1, 620639, Note_off_c, 0, 65, 40
1, 620670, Control_c, 0, 67, 38
1, 620685, Control_c, 0, 67, 37
1, 620714, Control_c, 0, 67, 37
1, 620744, Control_c, 0, 67, 36
1, 620761, Note_on_c, 0, 53, 29
1, 620796, Control_c, 0, 67, 36
1, 620826, Control_c, 0, 67, 35
1, 620854, Note_off_c, 0, 48, 41
1, 620900, Control_c, 0, 67, 35
1, 620929, Control_c, 0, 67, 34
1, 620932, Note_off_c, 0, 53, 45
1, 620935, Note_on_c, 0, 60, 34
1, 620959, Control_c, 0, 67, 34
1, 620974, Control_c, 0, 67, 33
1, 621018, Control_c, 0, 67, 33
1, 621063, Control_c, 0, 67, 32
1, 621079, Note_off_c, 0, 60, 38
1, 621098, Note_on_c, 0, 67, 39
1, 621099, Note_on_c, 0, 48, 23
1, 621128, Note_off_c, 0, 68, 37
1, 621137, Control_c, 0, 67, 32
1, 621211, Control_c, 0, 67, 32
1, 621225, Control_c, 0, 67, 33
1, 621240, Control_c, 0, 67, 34
1, 621245, Note_off_c, 0, 67, 60
1, 621255, Control_c, 0, 67, 35
1, 621260, Note_on_c, 0, 52, 40
1, 621270, Control_c, 0, 67, 37
1, 621285, Control_c, 0, 67, 38
1, 621299, Control_c, 0, 67, 39
1, 621314, Control_c, 0, 67, 39
1, 621329, Control_c, 0, 67, 40
1, 621357, Note_off_c, 0, 48, 41
1, 621374, Control_c, 0, 67, 39
1, 621388, Control_c, 0, 67, 38
1, 621404, Control_c, 0, 67, 37
1, 621433, Note_on_c, 0, 60, 37
1, 621434, Note_off_c, 0, 52, 36
1, 621449, Control_c, 0, 67, 37
1, 621464, Control_c, 0, 67, 36
1, 621478, Control_c, 0, 67, 35
1, 621493, Control_c, 0, 67, 35
1, 621508, Control_c, 0, 67, 34
1, 621530, Control_c, 0, 67, 34
1, 621560, Control_c, 0, 67, 33
1, 621663, Note_on_c, 0, 80, 67
1, 621663, Control_c, 0, 67, 33
1, 621681, Note_on_c, 0, 53, 19
1, 621681, Note_on_c, 0, 68, 45
1, 621701, Note_off_c, 0, 60, 42
1, 621811, Control_c, 0, 67, 32
1, 621856, Control_c, 0, 64, 31
1, 621871, Control_c, 0, 64, 41
1, 621881, Note_on_c, 0, 56, 36
1, 621886, Control_c, 0, 64, 50
1, 621901, Control_c, 0, 64, 54
1, 621916, Control_c, 0, 64, 57
1, 621930, Control_c, 0, 64, 58
1, 621945, Control_c, 0, 64, 59
1, 621960, Control_c, 0, 64, 60
1, 621970, Note_off_c, 0, 53, 39
1, 621975, Control_c, 0, 64, 60
1, 621990, Control_c, 0, 64, 61
1, 622060, Note_on_c, 0, 60, 25
1, 622060, Note_off_c, 0, 56, 44
1, 622108, Control_c, 0, 64, 60
1, 622167, Control_c, 0, 64, 60
1, 622180, Note_off_c, 0, 60, 29
1, 622180, Note_off_c, 0, 80, 46
1, 622182, Control_c, 0, 64, 59
1, 622196, Note_off_c, 0, 68, 62
1, 622199, Note_on_c, 0, 53, 42
1, 622212, Control_c, 0, 64, 59
1, 622226, Control_c, 0, 64, 58
1, 622271, Control_c, 0, 64, 58
1, 622293, Control_c, 0, 64, 57
1, 622323, Control_c, 0, 64, 57
1, 622352, Note_on_c, 0, 79, 67
1, 622357, Note_on_c, 0, 56, 41
1, 622367, Control_c, 0, 64, 56
1, 622373, Note_on_c, 0, 67, 31
1, 622380, Note_off_c, 0, 79, 68
1, 622405, Note_off_c, 0, 67, 45
1, 622485, Control_c, 0, 64, 56
1, 622492, Note_on_c, 0, 77, 62
1, 622520, Note_on_c, 0, 60, 34
1, 622520, Note_on_c, 0, 65, 23
1, 622526, Note_off_c, 0, 77, 64
1, 622529, Note_off_c, 0, 53, 24
1, 622529, Note_off_c, 0, 56, 35
1, 622557, Note_off_c, 0, 65, 48
1, 622574, Control_c, 0, 64, 55
1, 622589, Control_c, 0, 64, 55
1, 622604, Control_c, 0, 64, 54
1, 622619, Control_c, 0, 64, 53
1, 622634, Control_c, 0, 64, 51
1, 622649, Control_c, 0, 64, 50
1, 622664, Control_c, 0, 64, 48
1, 622678, Control_c, 0, 64, 47
1, 622683, Note_on_c, 0, 83, 68
1, 622693, Control_c, 0, 64, 46
1, 622696, Note_on_c, 0, 52, 40
1, 622708, Note_on_c, 0, 71, 30
1, 622708, Control_c, 0, 64, 46
1, 622723, Control_c, 0, 64, 46
1, 622728, Note_off_c, 0, 60, 46
1, 622738, Control_c, 0, 64, 47
1, 622752, Control_c, 0, 64, 48
1, 622767, Control_c, 0, 64, 50
1, 622767, Control_c, 0, 67, 29
1, 622782, Control_c, 0, 64, 54
1, 622782, Control_c, 0, 67, 26
1, 622797, Control_c, 0, 64, 56
1, 622797, Control_c, 0, 67, 0
1, 622812, Control_c, 0, 64, 59
1, 622822, Note_off_c, 0, 71, 42
1, 622826, Control_c, 0, 64, 61
1, 622841, Control_c, 0, 64, 63
1, 622849, Note_on_c, 0, 55, 35
1, 622856, Control_c, 0, 64, 65
1, 622870, Control_c, 0, 64, 67
1, 622885, Control_c, 0, 64, 69
1, 622900, Control_c, 0, 64, 71
1, 622902, Note_off_c, 0, 52, 41
1, 622915, Control_c, 0, 64, 72
1, 622930, Control_c, 0, 64, 72
1, 622973, Note_off_c, 0, 83, 39
1, 622975, Note_on_c, 0, 84, 66
1, 622992, Note_on_c, 0, 60, 39
1, 622998, Note_on_c, 0, 72, 41
1, 622998, Note_off_c, 0, 55, 49
1, 623006, Note_off_c, 0, 84, 64
1, 623036, Note_off_c, 0, 72, 46
1, 623102, Control_c, 0, 64, 72
1, 623132, Control_c, 0, 64, 71
1, 623147, Control_c, 0, 64, 70
1, 623162, Note_on_c, 0, 79, 69
1, 623162, Control_c, 0, 64, 68
1, 623177, Control_c, 0, 64, 65
1, 623177, Note_on_c, 0, 67, 41
1, 623179, Note_on_c, 0, 52, 44
1, 623191, Control_c, 0, 64, 61
1, 623196, Note_off_c, 0, 60, 43
1, 623206, Control_c, 0, 64, 57
1, 623221, Control_c, 0, 64, 56
1, 623235, Control_c, 0, 64, 56
1, 623250, Control_c, 0, 64, 57
1, 623265, Control_c, 0, 64, 58
1, 623280, Control_c, 0, 64, 60
1, 623295, Control_c, 0, 64, 62
1, 623309, Control_c, 0, 64, 64
1, 623312, Note_off_c, 0, 67, 49
1, 623324, Control_c, 0, 64, 66
1, 623333, Note_on_c, 0, 55, 42
1, 623339, Control_c, 0, 64, 68
1, 623354, Control_c, 0, 64, 70
1, 623369, Note_off_c, 0, 79, 65
1, 623369, Control_c, 0, 64, 72
1, 623383, Control_c, 0, 64, 74
1, 623398, Control_c, 0, 64, 75
1, 623407, Note_off_c, 0, 52, 35
1, 623413, Control_c, 0, 64, 76
1, 623427, Control_c, 0, 64, 77
1, 623457, Control_c, 0, 64, 77
1, 623497, Note_on_c, 0, 60, 40
1, 623518, Note_off_c, 0, 55, 49
1, 623591, Control_c, 0, 64, 77
1, 623635, Control_c, 0, 64, 76
1, 623650, Control_c, 0, 64, 76
1, 623665, Control_c, 0, 64, 75
1, 623680, Control_c, 0, 64, 74
1, 623692, Note_on_c, 0, 85, 73
1, 623694, Control_c, 0, 64, 72
1, 623709, Note_on_c, 0, 73, 49
1, 623709, Control_c, 0, 64, 69
1, 623711, Note_on_c, 0, 52, 37
1, 623724, Control_c, 0, 64, 66
1, 623739, Control_c, 0, 64, 62
1, 623749, Note_off_c, 0, 60, 42
1, 623754, Control_c, 0, 64, 57
1, 623776, Control_c, 0, 64, 54
1, 623791, Control_c, 0, 64, 53
1, 623806, Control_c, 0, 64, 53
1, 623836, Control_c, 0, 64, 54
1, 623850, Control_c, 0, 64, 56
1, 623865, Control_c, 0, 64, 58
1, 623880, Control_c, 0, 64, 60
1, 623886, Note_on_c, 0, 55, 43
1, 623895, Control_c, 0, 64, 62
1, 623910, Control_c, 0, 64, 64
1, 623925, Control_c, 0, 64, 65
1, 623940, Control_c, 0, 64, 67
1, 623955, Control_c, 0, 64, 68
1, 623970, Control_c, 0, 64, 70
1, 623984, Control_c, 0, 64, 72
1, 623999, Note_off_c, 0, 52, 35
1, 623999, Control_c, 0, 64, 73
1, 624014, Control_c, 0, 64, 73
1, 624029, Control_c, 0, 64, 74
1, 624033, Note_on_c, 0, 58, 51
1, 624045, Note_off_c, 0, 55, 52
1, 624058, Control_c, 0, 64, 74
1, 624132, Control_c, 0, 64, 74
1, 624147, Control_c, 0, 64, 71
1, 624162, Control_c, 0, 64, 66
1, 624177, Control_c, 0, 64, 61
1, 624192, Control_c, 0, 64, 58
1, 624205, Note_on_c, 0, 52, 56
1, 624214, Note_off_c, 0, 73, 61
1, 624221, Note_off_c, 0, 85, 58
1, 624221, Control_c, 0, 64, 59
1, 624231, Note_off_c, 0, 58, 54
1, 624236, Control_c, 0, 64, 61
1, 624250, Control_c, 0, 64, 64
1, 624265, Control_c, 0, 64, 67
1, 624280, Control_c, 0, 64, 70
1, 624295, Control_c, 0, 64, 72
1, 624310, Control_c, 0, 64, 73
1, 624324, Control_c, 0, 64, 75
1, 624339, Control_c, 0, 64, 76
1, 624351, Note_on_c, 0, 84, 67
1, 624354, Control_c, 0, 64, 77
1, 624359, Note_on_c, 0, 55, 53
1, 624369, Control_c, 0, 64, 78
1, 624374, Note_on_c, 0, 72, 41
1, 624384, Control_c, 0, 64, 78
1, 624386, Note_off_c, 0, 84, 61
1, 624399, Control_c, 0, 64, 79
1, 624404, Note_off_c, 0, 72, 45
1, 624438, Note_off_c, 0, 55, 48
1, 624500, Note_on_c, 0, 82, 77
1, 624506, Note_on_c, 0, 60, 45
1, 624509, Note_on_c, 0, 70, 62
1, 624524, Control_c, 0, 64, 78
1, 624539, Control_c, 0, 64, 78
1, 624547, Note_off_c, 0, 70, 67
1, 624559, Note_off_c, 0, 82, 62
1, 624569, Control_c, 0, 64, 77
1, 624584, Control_c, 0, 64, 77
1, 624600, Control_c, 0, 64, 76
1, 624603, Note_off_c, 0, 60, 37
1, 624615, Control_c, 0, 64, 75
1, 624616, Note_off_c, 0, 52, 30
1, 624629, Control_c, 0, 64, 73
1, 624644, Control_c, 0, 64, 69
1, 624659, Control_c, 0, 64, 61
1, 624660, Note_on_c, 0, 51, 53
1, 624666, Note_on_c, 0, 81, 81
1, 624673, Note_on_c, 0, 69, 64
1, 624673, Control_c, 0, 64, 39
1, 624688, Control_c, 0, 64, 0
1, 624812, Note_off_c, 0, 69, 35
1, 624819, Note_on_c, 0, 54, 49
1, 624858, Note_off_c, 0, 51, 58
1, 624945, Note_off_c, 0, 54, 62
1, 624974, Note_on_c, 0, 84, 77
1, 624979, Note_on_c, 0, 57, 31
1, 624986, Note_on_c, 0, 72, 50
1, 624997, Note_off_c, 0, 81, 61
1, 625030, Note_off_c, 0, 72, 64
1, 625041, Note_on_c, 0, 55, 4
1, 625067, Note_off_c, 0, 55, 28
1, 625137, Note_on_c, 0, 50, 55
1, 625142, Note_on_c, 0, 82, 75
1, 625143, Note_off_c, 0, 57, 54
1, 625153, Note_on_c, 0, 70, 62
1, 625193, Note_off_c, 0, 84, 51
1, 625287, Note_off_c, 0, 70, 59
1, 625298, Note_on_c, 0, 53, 60
1, 625315, Note_off_c, 0, 82, 62
1, 625362, Note_off_c, 0, 50, 49
1, 625463, Note_on_c, 0, 58, 63
1, 625492, Note_off_c, 0, 53, 56
1, 625639, Note_on_c, 0, 83, 83
1, 625650, Note_on_c, 0, 71, 69
1, 625658, Note_on_c, 0, 49, 47
1, 625665, Note_off_c, 0, 58, 55
1, 625808, Control_c, 0, 64, 37
1, 625822, Control_c, 0, 64, 48
1, 625823, Note_on_c, 0, 53, 61
1, 625837, Control_c, 0, 64, 55
1, 625852, Control_c, 0, 64, 60
1, 625856, Note_off_c, 0, 49, 59
1, 625867, Control_c, 0, 64, 63
1, 625882, Control_c, 0, 64, 66
1, 625896, Control_c, 0, 64, 69
1, 625911, Control_c, 0, 64, 74
1, 625926, Control_c, 0, 64, 80
1, 625941, Control_c, 0, 64, 86
1, 625956, Control_c, 0, 64, 91
1, 625970, Control_c, 0, 64, 92
1, 625973, Note_on_c, 0, 56, 73
1, 626004, Note_off_c, 0, 53, 53
1, 626035, Note_off_c, 0, 71, 37
1, 626082, Control_c, 0, 64, 92
1, 626097, Control_c, 0, 64, 91
1, 626111, Control_c, 0, 64, 88
1, 626126, Control_c, 0, 64, 85
1, 626141, Note_on_c, 0, 84, 92
1, 626141, Control_c, 0, 64, 79
1, 626155, Control_c, 0, 64, 71
1, 626156, Note_on_c, 0, 72, 64
1, 626160, Note_on_c, 0, 48, 49
1, 626170, Control_c, 0, 64, 61
1, 626173, Note_off_c, 0, 56, 49
1, 626185, Control_c, 0, 64, 48
1, 626201, Control_c, 0, 64, 32
1, 626206, Note_off_c, 0, 83, 48
1, 626216, Control_c, 0, 64, 0
1, 626275, Control_c, 0, 64, 33
1, 626290, Control_c, 0, 64, 39
1, 626305, Control_c, 0, 64, 46
1, 626306, Note_on_c, 0, 53, 57
1, 626319, Control_c, 0, 64, 52
1, 626334, Control_c, 0, 64, 56
1, 626349, Control_c, 0, 64, 59
1, 626364, Control_c, 0, 64, 62
1, 626379, Control_c, 0, 64, 64
1, 626393, Control_c, 0, 64, 66
1, 626402, Note_off_c, 0, 48, 41
1, 626408, Control_c, 0, 64, 67
1, 626423, Control_c, 0, 64, 67
1, 626438, Control_c, 0, 64, 68
1, 626442, Note_off_c, 0, 53, 61
1, 626444, Note_on_c, 0, 56, 61
1, 626503, Note_off_c, 0, 72, 62
1, 626601, Control_c, 0, 64, 67
1, 626616, Control_c, 0, 64, 66
1, 626631, Control_c, 0, 64, 63
1, 626645, Control_c, 0, 64, 59
1, 626648, Note_on_c, 0, 85, 85
1, 626659, Note_on_c, 0, 73, 68
1, 626660, Control_c, 0, 64, 53
1, 626664, Note_on_c, 0, 46, 49
1, 626675, Control_c, 0, 64, 45
1, 626685, Note_off_c, 0, 84, 60
1, 626690, Control_c, 0, 64, 38
1, 626694, Note_off_c, 0, 56, 48
1, 626705, Control_c, 0, 64, 32
1, 626719, Control_c, 0, 64, 30
1, 626771, Control_c, 0, 64, 35
1, 626786, Control_c, 0, 64, 41
1, 626801, Control_c, 0, 64, 48
1, 626816, Control_c, 0, 64, 53
1, 626831, Note_on_c, 0, 52, 54
1, 626831, Control_c, 0, 64, 57
1, 626845, Control_c, 0, 64, 60
1, 626860, Control_c, 0, 64, 62
1, 626875, Control_c, 0, 64, 64
1, 626890, Control_c, 0, 64, 65
1, 626905, Control_c, 0, 64, 66
1, 626908, Note_off_c, 0, 46, 36
1, 626920, Control_c, 0, 64, 67
1, 626965, Note_off_c, 0, 52, 57
1, 626969, Note_on_c, 0, 55, 53
1, 627020, Note_off_c, 0, 73, 58
1, 627039, Control_c, 0, 64, 67
1, 627054, Control_c, 0, 64, 66
1, 627064, Note_off_c, 0, 85, 58
1, 627068, Control_c, 0, 64, 65
1, 627083, Control_c, 0, 64, 62
1, 627090, Note_off_c, 0, 55, 56
1, 627098, Control_c, 0, 64, 57
1, 627113, Control_c, 0, 64, 48
1, 627120, Note_on_c, 0, 44, 48
1, 627128, Control_c, 0, 64, 37
1, 627129, Note_on_c, 0, 84, 74
1, 627142, Control_c, 0, 64, 0
1, 627187, Control_c, 0, 64, 34
1, 627201, Control_c, 0, 64, 44
1, 627216, Control_c, 0, 64, 53
1, 627231, Control_c, 0, 64, 59
1, 627246, Control_c, 0, 64, 62
1, 627261, Control_c, 0, 64, 63
1, 627275, Note_off_c, 0, 44, 53
1, 627278, Note_on_c, 0, 48, 46
1, 627284, Note_off_c, 0, 84, 63
1, 627365, Control_c, 0, 64, 62
1, 627376, Note_off_c, 0, 48, 62
1, 627380, Control_c, 0, 64, 62
1, 627394, Control_c, 0, 64, 60
1, 627409, Control_c, 0, 64, 59
1, 627418, Note_on_c, 0, 53, 48
1, 627424, Control_c, 0, 64, 56
1, 627439, Control_c, 0, 64, 50
1, 627454, Control_c, 0, 64, 36
1, 627468, Control_c, 0, 64, 0
1, 627468, Control_c, 0, 67, 20
1, 627483, Control_c, 0, 67, 29
1, 627498, Control_c, 0, 67, 36
1, 627520, Note_on_c, 0, 89, 70
1, 627520, Control_c, 0, 67, 44
1, 627535, Control_c, 0, 67, 53
1, 627543, Note_off_c, 0, 89, 68
1, 627550, Note_off_c, 0, 53, 48
1, 627550, Control_c, 0, 67, 60
1, 627565, Control_c, 0, 67, 64
1, 627594, Control_c, 0, 67, 63
1, 627609, Control_c, 0, 67, 62
1, 627624, Control_c, 0, 67, 61
1, 627660, Note_on_c, 0, 48, 42
1, 627678, Note_on_c, 0, 77, 57
1, 627687, Note_on_c, 0, 72, 51
1, 627727, Control_c, 0, 67, 60
1, 627742, Control_c, 0, 67, 60
1, 627757, Control_c, 0, 67, 59
1, 627772, Control_c, 0, 67, 59
1, 627828, Note_on_c, 0, 53, 47
1, 627862, Control_c, 0, 64, 29
1, 627868, Note_off_c, 0, 48, 37
1, 627877, Control_c, 0, 64, 38
1, 627891, Control_c, 0, 64, 46
1, 627906, Control_c, 0, 64, 52
1, 627921, Control_c, 0, 64, 56
1, 627933, Note_off_c, 0, 53, 59
1, 627936, Control_c, 0, 64, 57
1, 627951, Control_c, 0, 64, 58
1, 627965, Control_c, 0, 64, 59
1, 627966, Note_off_c, 0, 72, 40
1, 627968, Note_on_c, 0, 56, 50
1, 627980, Control_c, 0, 64, 59
1, 627995, Control_c, 0, 64, 60
1, 628010, Control_c, 0, 64, 60
1, 628013, Note_off_c, 0, 77, 61
1, 628069, Control_c, 0, 64, 60
1, 628084, Control_c, 0, 64, 59
1, 628085, Note_off_c, 0, 56, 50
1, 628098, Control_c, 0, 64, 56
1, 628098, Control_c, 0, 67, 59
1, 628113, Control_c, 0, 64, 48
1, 628128, Control_c, 0, 64, 0
1, 628129, Note_on_c, 0, 48, 42
1, 628129, Note_on_c, 0, 80, 56
1, 628186, Poly_aftertouch_c, 0, 76, 127
1, 628188, Control_c, 0, 67, 59
1, 628200, Note_on_c, 0, 79, 53
1, 628226, Poly_aftertouch_c, 0, 76, 0
1, 628228, Note_off_c, 0, 80, 49
1, 628285, Control_c, 0, 67, 58
1, 628298, Note_on_c, 0, 55, 48
1, 628299, Control_c, 0, 67, 57
1, 628314, Control_c, 0, 64, 45
1, 628314, Control_c, 0, 67, 56
1, 628329, Control_c, 0, 64, 56
1, 628329, Control_c, 0, 67, 55
1, 628343, Control_c, 0, 64, 59
1, 628343, Control_c, 0, 67, 53
1, 628358, Control_c, 0, 67, 52
1, 628369, Note_off_c, 0, 79, 62
1, 628403, Control_c, 0, 67, 51
1, 628417, Control_c, 0, 64, 59
1, 628417, Control_c, 0, 67, 50
1, 628423, Note_on_c, 0, 58, 50
1, 628432, Control_c, 0, 67, 48
1, 628447, Control_c, 0, 67, 46
1, 628462, Note_off_c, 0, 55, 54
1, 628462, Control_c, 0, 67, 45
1, 628477, Control_c, 0, 67, 44
1, 628483, Note_off_c, 0, 48, 41
1, 628492, Control_c, 0, 67, 44
1, 628496, Note_off_c, 0, 58, 58
1, 628551, Control_c, 0, 64, 58
1, 628566, Control_c, 0, 64, 49
1, 628566, Control_c, 0, 67, 43
1, 628580, Note_on_c, 0, 77, 80
1, 628581, Note_on_c, 0, 57, 61
1, 628581, Control_c, 0, 64, 0
1, 628581, Control_c, 0, 67, 42
1, 628589, Note_on_c, 0, 53, 57
1, 628596, Control_c, 0, 67, 40
1, 628611, Control_c, 0, 67, 37
1, 628626, Control_c, 0, 67, 36
1, 628628, Note_off_c, 0, 77, 65
1, 628661, Note_on_c, 0, 72, 73
1, 628733, Note_off_c, 0, 57, 61
1, 628738, Note_on_c, 0, 71, 77
1, 628739, Note_off_c, 0, 72, 57
1, 628768, Note_off_c, 0, 53, 62
1, 628800, Note_on_c, 0, 72, 66
1, 628807, Note_off_c, 0, 71, 64
1, 628863, Control_c, 0, 67, 36
1, 628867, Note_off_c, 0, 72, 63
1, 628871, Note_on_c, 0, 74, 69
1, 628931, Note_on_c, 0, 72, 68
1, 628961, Note_off_c, 0, 74, 63
1, 628981, Control_c, 0, 67, 35
1, 628993, Note_on_c, 0, 55, 82
1, 628996, Control_c, 0, 67, 35
1, 629001, Note_off_c, 0, 72, 64
1, 629019, Control_c, 0, 67, 33
1, 629019, Note_on_c, 0, 70, 66
1, 629034, Control_c, 0, 67, 29
1, 629037, Note_off_c, 0, 55, 65
1, 629048, Control_c, 0, 67, 21
1, 629058, Note_off_c, 0, 70, 64
1, 629063, Control_c, 0, 67, 0
1, 629087, Note_on_c, 0, 72, 65
1, 629151, Note_off_c, 0, 72, 62
1, 629155, Note_on_c, 0, 52, 76
1, 629163, Note_on_c, 0, 70, 69
1, 629180, Note_off_c, 0, 52, 68
1, 629201, Note_off_c, 0, 70, 65
1, 629228, Note_on_c, 0, 72, 64
1, 629287, Note_off_c, 0, 72, 63
1, 629299, Note_on_c, 0, 48, 66
1, 629305, Note_on_c, 0, 70, 70
1, 629350, Note_off_c, 0, 48, 63
1, 629365, Note_on_c, 0, 72, 70
1, 629365, Note_off_c, 0, 70, 64
1, 629431, Note_off_c, 0, 72, 63
1, 629450, Note_on_c, 0, 53, 82
1, 629453, Note_on_c, 0, 69, 74
1, 629525, Note_off_c, 0, 69, 56
1, 629528, Note_on_c, 0, 72, 67
1, 629589, Note_off_c, 0, 72, 62
1, 629597, Note_on_c, 0, 71, 73
1, 629612, Control_c, 0, 67, 25
1, 629627, Control_c, 0, 67, 34
1, 629642, Control_c, 0, 67, 46
1, 629657, Control_c, 0, 67, 60
1, 629663, Note_off_c, 0, 71, 63
1, 629666, Note_on_c, 0, 72, 65
1, 629671, Control_c, 0, 67, 75
1, 629684, Control_c, 0, 67, 87
1, 629687, Note_off_c, 0, 53, 62
1, 629699, Control_c, 0, 67, 91
1, 629710, Note_off_c, 0, 72, 61
1, 629731, Note_on_c, 0, 77, 65
1, 629744, Control_c, 0, 67, 90
1, 629758, Control_c, 0, 67, 90
1, 629781, Control_c, 0, 67, 89
1, 629795, Control_c, 0, 67, 88
1, 629807, Note_on_c, 0, 72, 56
1, 629810, Control_c, 0, 67, 88
1, 629818, Note_off_c, 0, 77, 61
1, 629825, Control_c, 0, 67, 87
1, 629840, Control_c, 0, 67, 86
1, 629855, Control_c, 0, 67, 85
1, 629869, Note_off_c, 0, 72, 64
1, 629869, Control_c, 0, 67, 85
1, 629881, Note_on_c, 0, 55, 53
1, 629884, Note_on_c, 0, 70, 66
1, 629918, Note_off_c, 0, 55, 64
1, 629921, Note_off_c, 0, 70, 64
1, 629928, Control_c, 0, 67, 84
1, 629955, Note_on_c, 0, 72, 57
1, 629958, Control_c, 0, 67, 84
1, 629988, Control_c, 0, 67, 83
1, 630001, Note_off_c, 0, 72, 63
1, 630003, Control_c, 0, 67, 83
1, 630018, Control_c, 0, 67, 82
1, 630030, Note_on_c, 0, 52, 58
1, 630031, Note_on_c, 0, 70, 64
1, 630033, Control_c, 0, 67, 81
1, 630048, Control_c, 0, 67, 80
1, 630062, Control_c, 0, 67, 80
1, 630063, Note_off_c, 0, 52, 63
1, 630068, Note_off_c, 0, 70, 65
1, 630077, Control_c, 0, 67, 79
1, 630092, Control_c, 0, 67, 79
1, 630106, Note_on_c, 0, 72, 59
1, 630107, Control_c, 0, 67, 78
1, 630121, Control_c, 0, 67, 78
1, 630140, Note_off_c, 0, 72, 63
1, 630173, Note_on_c, 0, 48, 53
1, 630176, Note_on_c, 0, 70, 65
1, 630181, Control_c, 0, 67, 77
1, 630197, Control_c, 0, 67, 74
1, 630206, Note_off_c, 0, 48, 64
1, 630211, Control_c, 0, 67, 64
1, 630225, Note_off_c, 0, 70, 58
1, 630226, Control_c, 0, 67, 49
1, 630241, Control_c, 0, 67, 31
1, 630246, Note_on_c, 0, 72, 61
1, 630256, Control_c, 0, 67, 0
1, 630281, Note_off_c, 0, 72, 64
1, 630307, Note_on_c, 0, 53, 68
1, 630323, Note_on_c, 0, 69, 58
1, 630341, Note_off_c, 0, 69, 64
1, 630400, Note_on_c, 0, 84, 71
1, 630402, Note_on_c, 0, 86, 76
1, 630423, Note_off_c, 0, 86, 67
1, 630453, Note_on_c, 0, 83, 89
1, 630457, Note_off_c, 0, 84, 66
1, 630530, Note_on_c, 0, 84, 94
1, 630531, Note_off_c, 0, 53, 63
1, 630542, Note_off_c, 0, 83, 66
1, 630592, Note_on_c, 0, 86, 83
1, 630593, Note_off_c, 0, 84, 66
1, 630658, Note_on_c, 0, 84, 87
1, 630689, Note_off_c, 0, 86, 64
1, 630721, Note_on_c, 0, 67, 87
1, 630721, Note_on_c, 0, 82, 82
1, 630727, Note_off_c, 0, 84, 66
1, 630766, Note_off_c, 0, 67, 66
1, 630776, Note_off_c, 0, 82, 66
1, 630790, Note_on_c, 0, 84, 83
1, 630856, Note_off_c, 0, 84, 64
1, 630863, Note_on_c, 0, 82, 81
1, 630878, Note_on_c, 0, 64, 81
1, 630908, Note_off_c, 0, 64, 66
1, 630910, Note_off_c, 0, 82, 65
1, 630930, Note_on_c, 0, 84, 79
1, 630996, Note_off_c, 0, 84, 61
1, 631006, Note_on_c, 0, 82, 85
1, 631016, Note_on_c, 0, 60, 74
1, 631048, Note_off_c, 0, 60, 69
1, 631072, Note_off_c, 0, 82, 60
1, 631079, Note_on_c, 0, 84, 85
1, 631140, Note_off_c, 0, 84, 64
1, 631156, Note_on_c, 0, 65, 84
1, 631159, Note_on_c, 0, 81, 86
1, 631232, Note_on_c, 0, 84, 84
1, 631232, Note_off_c, 0, 81, 59
1, 631303, Note_off_c, 0, 84, 64
1, 631309, Note_on_c, 0, 83, 88
1, 631375, Note_on_c, 0, 84, 80
1, 631385, Note_off_c, 0, 83, 63
1, 631428, Note_off_c, 0, 84, 65
1, 631437, Note_off_c, 0, 65, 62
1, 631437, Note_on_c, 0, 89, 79
1, 631502, Note_on_c, 0, 84, 75
1, 631533, Note_off_c, 0, 89, 64
1, 631569, Note_on_c, 0, 67, 83
1, 631572, Note_on_c, 0, 82, 83
1, 631573, Note_off_c, 0, 84, 62
1, 631619, Note_off_c, 0, 67, 65
1, 631625, Note_off_c, 0, 82, 65
1, 631646, Note_on_c, 0, 84, 77
1, 631708, Note_off_c, 0, 84, 64
1, 631724, Note_on_c, 0, 64, 74
1, 631724, Note_on_c, 0, 82, 79
1, 631761, Note_off_c, 0, 64, 65
1, 631772, Note_off_c, 0, 82, 64
1, 631797, Note_on_c, 0, 84, 78
1, 631855, Note_off_c, 0, 84, 62
1, 631870, Note_on_c, 0, 82, 78
1, 631877, Note_on_c, 0, 60, 66
1, 631911, Note_off_c, 0, 60, 66
1, 631929, Note_off_c, 0, 82, 61
1, 631938, Note_on_c, 0, 84, 77
1, 632002, Note_off_c, 0, 84, 64
1, 632024, Note_on_c, 0, 65, 87
1, 632033, Note_on_c, 0, 81, 81
1, 632095, Note_off_c, 0, 81, 56
1, 632107, Note_on_c, 0, 84, 68
1, 632134, Note_on_c, 0, 83, 49
1, 632135, Note_off_c, 0, 83, 54
1, 632163, Note_off_c, 0, 84, 64
1, 632172, Note_on_c, 0, 89, 76
1, 632230, Note_on_c, 0, 81, 80
1, 632253, Note_off_c, 0, 89, 42
1, 632289, Note_off_c, 0, 81, 66
1, 632302, Note_on_c, 0, 79, 81
1, 632366, Note_off_c, 0, 79, 64
1, 632371, Note_on_c, 0, 88, 80
1, 632436, Note_off_c, 0, 88, 66
1, 632442, Note_on_c, 0, 77, 81
1, 632501, Note_off_c, 0, 77, 61
1, 632513, Note_on_c, 0, 86, 78
1, 632541, Note_off_c, 0, 65, 57
1, 632572, Note_off_c, 0, 86, 64
1, 632593, Note_on_c, 0, 76, 78
1, 632638, Note_off_c, 0, 76, 62
1, 632650, Note_on_c, 0, 84, 78
1, 632719, Note_off_c, 0, 84, 64
1, 632733, Note_on_c, 0, 74, 77
1, 632796, Note_off_c, 0, 74, 63
1, 632805, Note_on_c, 0, 82, 72
1, 632863, Note_off_c, 0, 82, 63
1, 632883, Note_on_c, 0, 72, 71
1, 632938, Note_off_c, 0, 72, 62
1, 632951, Note_on_c, 0, 81, 75
1, 633000, Note_off_c, 0, 81, 61
1, 633018, Note_on_c, 0, 70, 75
1, 633077, Note_off_c, 0, 70, 64
1, 633085, Note_on_c, 0, 79, 77
1, 633139, Note_off_c, 0, 79, 65
1, 633148, Note_on_c, 0, 69, 72
1, 633210, Note_off_c, 0, 69, 61
1, 633224, Note_on_c, 0, 77, 76
1, 633282, Note_off_c, 0, 77, 64
1, 633295, Note_on_c, 0, 67, 74
1, 633358, Note_off_c, 0, 67, 62
1, 633364, Note_on_c, 0, 76, 75
1, 633426, Note_off_c, 0, 76, 64
1, 633443, Note_on_c, 0, 65, 73
1, 633498, Note_off_c, 0, 65, 60
1, 633512, Note_on_c, 0, 74, 74
1, 633571, Note_off_c, 0, 74, 64
1, 633592, Note_on_c, 0, 64, 63
1, 633636, Note_off_c, 0, 64, 62
1, 633662, Note_on_c, 0, 72, 58
1, 633765, Note_on_c, 0, 71, 65
1, 633785, Note_off_c, 0, 72, 50
1, 633798, Note_on_c, 0, 62, 26
1, 633923, Note_on_c, 0, 50, 51
1, 634078, Note_on_c, 0, 53, 63
1, 634088, Note_off_c, 0, 62, 51
1, 634215, Note_off_c, 0, 50, 38
1, 634236, Note_on_c, 0, 56, 59
1, 634237, Note_on_c, 0, 70, 69
1, 634265, Note_on_c, 0, 61, 48
1, 634296, Note_off_c, 0, 53, 59
1, 634296, Note_off_c, 0, 71, 57
1, 634352, Note_off_c, 0, 61, 48
1, 634408, Note_on_c, 0, 55, 67
1, 634445, Note_off_c, 0, 56, 60
1, 634474, Note_off_c, 0, 70, 63
1, 634570, Note_on_c, 0, 53, 65
1, 634590, Note_off_c, 0, 55, 61
1, 634720, Note_on_c, 0, 82, 74
1, 634731, Note_on_c, 0, 73, 54
1, 634766, Note_off_c, 0, 53, 52
1, 634875, Note_on_c, 0, 52, 57
1, 635025, Note_on_c, 0, 55, 70
1, 635093, Note_off_c, 0, 52, 58
1, 635184, Note_on_c, 0, 61, 65
1, 635187, Note_on_c, 0, 76, 70
1, 635197, Note_off_c, 0, 73, 58
1, 635206, Note_on_c, 0, 67, 46
1, 635250, Note_off_c, 0, 82, 47
1, 635255, Note_off_c, 0, 55, 61
1, 635312, Note_off_c, 0, 67, 60
1, 635329, Note_on_c, 0, 60, 68
1, 635345, Note_off_c, 0, 61, 61
1, 635398, Note_off_c, 0, 76, 63
1, 635468, Note_on_c, 0, 58, 69
1, 635507, Note_off_c, 0, 60, 63
1, 635622, Note_off_c, 0, 58, 63
1, 635627, Note_on_c, 0, 57, 70
1, 635727, Note_off_c, 0, 57, 63
1, 635800, Note_on_c, 0, 84, 70
1, 635824, Note_off_c, 0, 84, 69
1, 635943, Note_on_c, 0, 84, 74
1, 635967, Note_off_c, 0, 84, 68
1, 636086, Note_on_c, 0, 58, 60
1, 636190, Note_off_c, 0, 58, 63
1, 636245, Note_on_c, 0, 86, 70
1, 636274, Note_off_c, 0, 86, 64
1, 636395, Note_on_c, 0, 86, 76
1, 636420, Note_off_c, 0, 86, 67
1, 636603, Note_on_c, 0, 77, 60
1, 636610, Note_on_c, 0, 69, 37
1, 636615, Note_on_c, 0, 60, 40
1, 636620, Note_on_c, 0, 72, 39
1, 636832, Control_c, 0, 64, 42
1, 636847, Control_c, 0, 64, 55
1, 636862, Control_c, 0, 64, 61
1, 636877, Control_c, 0, 64, 64
1, 636892, Control_c, 0, 64, 66
1, 636906, Control_c, 0, 64, 69
1, 636921, Control_c, 0, 64, 74
1, 636936, Control_c, 0, 64, 79
1, 636951, Control_c, 0, 64, 81
1, 636966, Control_c, 0, 64, 82
1, 636967, Note_off_c, 0, 69, 31
1, 636983, Note_off_c, 0, 77, 37
1, 637084, Control_c, 0, 64, 81
1, 637098, Control_c, 0, 64, 79
1, 637113, Control_c, 0, 64, 77
1, 637125, Note_on_c, 0, 81, 44
1, 637128, Control_c, 0, 64, 75
1, 637136, Note_on_c, 0, 76, 40
1, 637137, Note_off_c, 0, 72, 37
1, 637143, Control_c, 0, 64, 72
1, 637144, Note_on_c, 0, 70, 38
1, 637158, Control_c, 0, 64, 69
1, 637172, Control_c, 0, 64, 65
1, 637187, Control_c, 0, 64, 60
1, 637202, Control_c, 0, 64, 50
1, 637212, Note_on_c, 0, 79, 47
1, 637217, Control_c, 0, 64, 37
1, 637232, Control_c, 0, 64, 0
1, 637243, Note_off_c, 0, 81, 36
1, 637328, Control_c, 0, 64, 39
1, 637343, Control_c, 0, 64, 53
1, 637358, Control_c, 0, 64, 61
1, 637360, Note_off_c, 0, 76, 29
1, 637373, Control_c, 0, 64, 65
1, 637389, Control_c, 0, 64, 68
1, 637403, Control_c, 0, 64, 70
1, 637418, Control_c, 0, 64, 73
1, 637433, Control_c, 0, 64, 75
1, 637448, Control_c, 0, 64, 76
1, 637453, Note_off_c, 0, 79, 38
1, 637462, Control_c, 0, 64, 76
1, 637468, Note_off_c, 0, 70, 63
1, 637548, Note_off_c, 0, 60, 32
1, 637581, Control_c, 0, 64, 76
1, 637596, Control_c, 0, 64, 75
1, 637610, Control_c, 0, 64, 70
1, 637625, Note_on_c, 0, 69, 56
1, 637625, Control_c, 0, 64, 62
1, 637628, Note_on_c, 0, 77, 85
1, 637640, Control_c, 0, 64, 44
1, 637645, Note_on_c, 0, 65, 47
1, 637655, Control_c, 0, 64, 0
1, 637688, Note_off_c, 0, 77, 62
1, 637712, Note_on_c, 0, 72, 75
1, 637759, Note_off_c, 0, 69, 57
1, 637785, Note_on_c, 0, 71, 81
1, 637790, Note_off_c, 0, 72, 61
1, 637798, Note_off_c, 0, 65, 65
1, 637849, Note_on_c, 0, 72, 67
1, 637855, Note_off_c, 0, 71, 64
1, 637910, Note_off_c, 0, 72, 64
1, 637915, Note_on_c, 0, 74, 75
1, 637975, Note_on_c, 0, 72, 70
1, 638015, Note_off_c, 0, 74, 61
1, 638054, Note_on_c, 0, 55, 87
1, 638059, Note_off_c, 0, 72, 64
1, 638062, Note_on_c, 0, 70, 74
1, 638092, Note_off_c, 0, 55, 62
1, 638117, Note_off_c, 0, 70, 63
1, 638136, Note_on_c, 0, 72, 71
1, 638209, Note_off_c, 0, 72, 62
1, 638215, Note_on_c, 0, 52, 79
1, 638224, Note_on_c, 0, 70, 72
1, 638239, Note_off_c, 0, 52, 69
1, 638270, Note_off_c, 0, 70, 64
1, 638291, Note_on_c, 0, 72, 68
1, 638352, Note_off_c, 0, 72, 63
1, 638360, Note_on_c, 0, 48, 67
1, 638368, Note_on_c, 0, 70, 74
1, 638398, Note_off_c, 0, 48, 64
1, 638426, Note_off_c, 0, 70, 64
1, 638427, Note_on_c, 0, 72, 69
1, 638492, Note_off_c, 0, 72, 63
1, 638505, Note_on_c, 0, 53, 78
1, 638506, Note_on_c, 0, 69, 79
1, 638580, Note_on_c, 0, 72, 71
1, 638592, Note_off_c, 0, 69, 57
1, 638643, Note_off_c, 0, 72, 64
1, 638650, Note_on_c, 0, 71, 79
1, 638671, Control_c, 0, 67, 19
1, 638686, Control_c, 0, 67, 22
1, 638701, Control_c, 0, 67, 25
1, 638716, Control_c, 0, 67, 27
1, 638716, Note_on_c, 0, 72, 76
1, 638727, Note_off_c, 0, 71, 63
1, 638752, Control_c, 0, 67, 30
1, 638760, Note_off_c, 0, 53, 62
1, 638767, Control_c, 0, 67, 32
1, 638782, Control_c, 0, 67, 34
1, 638785, Note_off_c, 0, 72, 64
1, 638794, Note_on_c, 0, 77, 75
1, 638797, Control_c, 0, 67, 39
1, 638811, Control_c, 0, 67, 45
1, 638826, Control_c, 0, 67, 52
1, 638841, Control_c, 0, 67, 57
1, 638856, Control_c, 0, 67, 59
1, 638862, Note_on_c, 0, 72, 60
1, 638887, Note_off_c, 0, 77, 60
1, 638928, Note_off_c, 0, 72, 63
1, 638937, Note_on_c, 0, 55, 58
1, 638943, Note_on_c, 0, 70, 61
1, 638946, Control_c, 0, 67, 58
1, 638973, Note_off_c, 0, 55, 64
1, 638975, Control_c, 0, 67, 57
1, 638982, Note_off_c, 0, 70, 64
1, 638990, Control_c, 0, 67, 56
1, 639005, Control_c, 0, 67, 56
1, 639010, Note_on_c, 0, 72, 58
1, 639020, Control_c, 0, 67, 55
1, 639035, Control_c, 0, 67, 55
1, 639050, Control_c, 0, 67, 54
1, 639065, Note_off_c, 0, 72, 60
1, 639065, Control_c, 0, 67, 54
1, 639080, Control_c, 0, 67, 53
1, 639092, Note_on_c, 0, 52, 47
1, 639093, Note_on_c, 0, 70, 63
1, 639121, Note_off_c, 0, 52, 61
1, 639124, Control_c, 0, 67, 53
1, 639127, Note_off_c, 0, 70, 63
1, 639166, Note_on_c, 0, 72, 57
1, 639183, Control_c, 0, 67, 52
1, 639202, Note_off_c, 0, 72, 63
1, 639227, Control_c, 0, 67, 52
1, 639231, Note_on_c, 0, 48, 51
1, 639238, Note_on_c, 0, 70, 59
1, 639242, Control_c, 0, 67, 51
1, 639266, Note_off_c, 0, 48, 66
1, 639287, Note_off_c, 0, 70, 59
1, 639287, Control_c, 0, 67, 51
1, 639301, Control_c, 0, 67, 50
1, 639303, Note_on_c, 0, 72, 59
1, 639316, Control_c, 0, 67, 49
1, 639331, Control_c, 0, 67, 47
1, 639339, Note_off_c, 0, 72, 63
1, 639346, Control_c, 0, 67, 45
1, 639361, Control_c, 0, 67, 41
1, 639370, Note_on_c, 0, 53, 64
1, 639375, Control_c, 0, 67, 34
1, 639376, Note_on_c, 0, 69, 62
1, 639390, Control_c, 0, 67, 28
1, 639405, Control_c, 0, 67, 21
1, 639406, Note_off_c, 0, 69, 66
1, 639420, Control_c, 0, 67, 0
1, 639454, Note_on_c, 0, 84, 83
1, 639527, Note_on_c, 0, 83, 81
1, 639529, Note_off_c, 0, 84, 66
1, 639560, Note_off_c, 0, 53, 63
1, 639592, Note_on_c, 0, 84, 91
1, 639612, Note_off_c, 0, 83, 65
1, 639657, Note_on_c, 0, 86, 85
1, 639661, Note_off_c, 0, 84, 66
1, 639724, Note_on_c, 0, 84, 85
1, 639761, Note_off_c, 0, 86, 63
1, 639783, Note_on_c, 0, 67, 88
1, 639789, Note_on_c, 0, 82, 78
1, 639793, Note_off_c, 0, 84, 65
1, 639825, Note_off_c, 0, 67, 65
1, 639848, Note_off_c, 0, 82, 65
1, 639859, Note_on_c, 0, 84, 82
1, 639928, Note_off_c, 0, 84, 63
1, 639932, Note_on_c, 0, 64, 84
1, 639940, Note_on_c, 0, 82, 83
1, 639974, Note_off_c, 0, 64, 63
1, 639989, Note_off_c, 0, 82, 63
1, 640007, Note_on_c, 0, 84, 83
1, 640066, Note_off_c, 0, 84, 64
1, 640075, Note_on_c, 0, 60, 75
1, 640080, Note_on_c, 0, 82, 81
1, 640112, Note_off_c, 0, 60, 68
1, 640139, Note_off_c, 0, 82, 63
1, 640145, Note_on_c, 0, 84, 83
1, 640215, Note_off_c, 0, 84, 63
1, 640223, Note_on_c, 0, 65, 89
1, 640230, Note_on_c, 0, 81, 85
1, 640311, Note_on_c, 0, 84, 78
1, 640319, Note_off_c, 0, 81, 59
1, 640377, Note_off_c, 0, 84, 63
1, 640384, Note_on_c, 0, 83, 83
1, 640452, Note_on_c, 0, 84, 78
1, 640453, Note_off_c, 0, 83, 63
1, 640472, Control_c, 0, 67, 22
1, 640487, Control_c, 0, 67, 27
1, 640490, Note_off_c, 0, 65, 62
1, 640502, Control_c, 0, 67, 32
1, 640506, Note_off_c, 0, 84, 65
1, 640517, Control_c, 0, 67, 39
1, 640521, Note_on_c, 0, 89, 72
1, 640531, Control_c, 0, 67, 46
1, 640546, Control_c, 0, 67, 48
1, 640577, Control_c, 0, 67, 47
1, 640586, Note_on_c, 0, 84, 63
1, 640592, Control_c, 0, 67, 45
1, 640607, Control_c, 0, 67, 44
1, 640613, Note_off_c, 0, 89, 55
1, 640621, Control_c, 0, 67, 43
1, 640636, Control_c, 0, 67, 42
1, 640651, Note_off_c, 0, 84, 65
1, 640651, Control_c, 0, 67, 41
1, 640666, Note_on_c, 0, 82, 64
1, 640666, Control_c, 0, 67, 41
1, 640666, Note_on_c, 0, 67, 51
1, 640680, Control_c, 0, 67, 40
1, 640697, Note_off_c, 0, 67, 66
1, 640701, Note_off_c, 0, 82, 62
1, 640710, Control_c, 0, 67, 39
1, 640735, Note_on_c, 0, 84, 63
1, 640740, Control_c, 0, 67, 38
1, 640784, Note_off_c, 0, 84, 60
1, 640800, Control_c, 0, 67, 38
1, 640813, Note_on_c, 0, 82, 64
1, 640815, Note_on_c, 0, 64, 54
1, 640841, Note_off_c, 0, 82, 67
1, 640847, Note_off_c, 0, 64, 64
1, 640877, Note_on_c, 0, 84, 65
1, 640922, Note_off_c, 0, 84, 62
1, 640947, Control_c, 0, 67, 37
1, 640952, Note_on_c, 0, 82, 63
1, 640957, Note_on_c, 0, 60, 52
1, 640977, Control_c, 0, 67, 37
1, 640986, Note_off_c, 0, 60, 65
1, 641014, Control_c, 0, 67, 36
1, 641024, Note_off_c, 0, 82, 61
1, 641039, Note_on_c, 0, 84, 69
1, 641044, Control_c, 0, 67, 36
1, 641059, Control_c, 0, 67, 35
1, 641088, Control_c, 0, 67, 35
1, 641090, Note_off_c, 0, 84, 61
1, 641103, Control_c, 0, 67, 34
1, 641111, Note_on_c, 0, 65, 65
1, 641117, Note_on_c, 0, 81, 75
1, 641118, Control_c, 0, 67, 33
1, 641133, Control_c, 0, 67, 31
1, 641147, Control_c, 0, 67, 28
1, 641162, Control_c, 0, 67, 25
1, 641177, Control_c, 0, 67, 22
1, 641188, Note_off_c, 0, 81, 58
1, 641190, Note_on_c, 0, 84, 70
1, 641192, Control_c, 0, 67, 0
1, 641250, Note_off_c, 0, 84, 60
1, 641260, Note_on_c, 0, 89, 75
1, 641321, Note_on_c, 0, 81, 78
1, 641333, Note_off_c, 0, 89, 54
1, 641381, Note_off_c, 0, 81, 63
1, 641396, Note_on_c, 0, 79, 81
1, 641458, Note_off_c, 0, 79, 64
1, 641460, Note_on_c, 0, 88, 79
1, 641527, Note_off_c, 0, 88, 66
1, 641533, Note_on_c, 0, 77, 77
1, 641591, Note_off_c, 0, 65, 46
1, 641597, Note_off_c, 0, 77, 63
1, 641602, Note_on_c, 0, 86, 80
1, 641667, Note_off_c, 0, 86, 64
1, 641679, Note_on_c, 0, 76, 81
1, 641751, Note_off_c, 0, 76, 63
1, 641752, Note_on_c, 0, 84, 82
1, 641821, Note_off_c, 0, 84, 63
1, 641831, Note_on_c, 0, 74, 77
1, 641891, Note_on_c, 0, 82, 75
1, 641896, Note_off_c, 0, 74, 63
1, 641954, Note_off_c, 0, 82, 62
1, 641970, Note_on_c, 0, 72, 75
1, 642030, Note_off_c, 0, 72, 61
1, 642039, Note_on_c, 0, 81, 77
1, 642087, Note_off_c, 0, 81, 64
1, 642110, Note_on_c, 0, 70, 73
1, 642168, Note_off_c, 0, 70, 63
1, 642180, Note_on_c, 0, 79, 77
1, 642240, Note_on_c, 0, 69, 68
1, 642241, Note_off_c, 0, 79, 65
1, 642302, Note_off_c, 0, 69, 62
1, 642317, Note_on_c, 0, 77, 68
1, 642375, Note_off_c, 0, 77, 64
1, 642394, Note_on_c, 0, 67, 66
1, 642445, Note_off_c, 0, 67, 62
1, 642457, Note_on_c, 0, 76, 70
1, 642520, Note_off_c, 0, 76, 64
1, 642542, Note_on_c, 0, 65, 72
1, 642597, Note_off_c, 0, 65, 61
1, 642609, Note_on_c, 0, 74, 66
1, 642658, Note_off_c, 0, 74, 62
1, 642689, Note_on_c, 0, 64, 58
1, 642727, Note_off_c, 0, 64, 57
1, 642749, Note_on_c, 0, 72, 55
1, 642850, Note_on_c, 0, 71, 61
1, 642882, Note_on_c, 0, 62, 32
1, 642896, Note_off_c, 0, 72, 36
1, 643021, Note_on_c, 0, 50, 47
1, 643173, Note_on_c, 0, 53, 58
1, 643180, Note_off_c, 0, 62, 60
1, 643311, Note_off_c, 0, 50, 36
1, 643339, Note_on_c, 0, 56, 54
1, 643343, Note_on_c, 0, 70, 62
1, 643366, Note_on_c, 0, 61, 36
1, 643379, Note_off_c, 0, 53, 58
1, 643401, Note_off_c, 0, 71, 57
1, 643455, Note_off_c, 0, 61, 37
1, 643500, Note_on_c, 0, 55, 59
1, 643529, Note_off_c, 0, 56, 59
1, 643573, Note_off_c, 0, 70, 63
1, 643654, Note_on_c, 0, 53, 62
1, 643669, Note_off_c, 0, 55, 60
1, 643816, Note_on_c, 0, 82, 82
1, 643829, Note_on_c, 0, 73, 64
1, 643838, Note_off_c, 0, 53, 57
1, 643968, Note_on_c, 0, 52, 64
1, 644117, Note_on_c, 0, 55, 68
1, 644189, Note_off_c, 0, 52, 55
1, 644282, Note_off_c, 0, 73, 59
1, 644286, Note_on_c, 0, 61, 57
1, 644287, Note_on_c, 0, 76, 70
1, 644306, Note_off_c, 0, 55, 62
1, 644308, Note_on_c, 0, 67, 40
1, 644325, Note_off_c, 0, 82, 56
1, 644403, Note_off_c, 0, 67, 58
1, 644439, Note_off_c, 0, 61, 59
1, 644442, Note_on_c, 0, 60, 56
1, 644490, Note_off_c, 0, 76, 60
1, 644589, Note_on_c, 0, 58, 58
1, 644608, Note_off_c, 0, 60, 53
1, 644751, Note_off_c, 0, 58, 60
1, 644763, Note_on_c, 0, 57, 57
1, 644869, Note_off_c, 0, 57, 63
1, 644932, Note_on_c, 0, 84, 65
1, 644958, Note_off_c, 0, 84, 68
1, 645083, Note_on_c, 0, 84, 69
1, 645110, Note_off_c, 0, 84, 66
1, 645235, Note_on_c, 0, 58, 57
1, 645322, Note_off_c, 0, 58, 63
1, 645397, Note_on_c, 0, 86, 64
1, 645424, Note_off_c, 0, 86, 67
1, 645551, Note_on_c, 0, 86, 74
1, 645575, Note_off_c, 0, 86, 68
1, 645793, Note_on_c, 0, 77, 37
1, 645799, Note_on_c, 0, 60, 32
1, 645808, Note_on_c, 0, 69, 32
1, 645820, Note_on_c, 0, 72, 18
1, 645966, Control_c, 0, 64, 37
1, 645981, Control_c, 0, 64, 50
1, 645995, Control_c, 0, 64, 57
1, 646010, Control_c, 0, 64, 62
1, 646025, Control_c, 0, 64, 65
1, 646040, Control_c, 0, 64, 68
1, 646055, Control_c, 0, 64, 74
1, 646069, Control_c, 0, 64, 81
1, 646084, Control_c, 0, 64, 90
1, 646089, Note_off_c, 0, 69, 38
1, 646099, Control_c, 0, 64, 99
1, 646113, Control_c, 0, 64, 110
1, 646128, Control_c, 0, 64, 117
1, 646143, Control_c, 0, 64, 119
1, 646198, Note_off_c, 0, 60, 45
1, 646256, Control_c, 0, 64, 117
1, 646271, Control_c, 0, 64, 112
1, 646286, Control_c, 0, 64, 108
1, 646300, Control_c, 0, 64, 105
1, 646315, Control_c, 0, 64, 103
1, 646330, Control_c, 0, 64, 100
1, 646338, Note_on_c, 0, 76, 48
1, 646345, Note_on_c, 0, 58, 39
1, 646345, Control_c, 0, 64, 96
1, 646356, Note_on_c, 0, 67, 34
1, 646360, Control_c, 0, 64, 88
1, 646374, Control_c, 0, 64, 79
1, 646389, Control_c, 0, 64, 70
1, 646404, Control_c, 0, 64, 63
1, 646406, Note_off_c, 0, 72, 42
1, 646410, Note_off_c, 0, 77, 43
1, 646419, Control_c, 0, 64, 55
1, 646434, Control_c, 0, 64, 51
1, 646463, Control_c, 0, 64, 52
1, 646478, Control_c, 0, 64, 53
1, 646493, Control_c, 0, 64, 54
1, 646508, Control_c, 0, 64, 57
1, 646523, Control_c, 0, 64, 61
1, 646537, Control_c, 0, 64, 64
1, 646552, Control_c, 0, 64, 68
1, 646560, Note_off_c, 0, 76, 60
1, 646567, Control_c, 0, 64, 73
1, 646582, Control_c, 0, 64, 77
1, 646597, Control_c, 0, 64, 79
1, 646607, Note_off_c, 0, 58, 40
1, 646607, Note_off_c, 0, 67, 33
1, 646612, Control_c, 0, 64, 81
1, 646626, Control_c, 0, 64, 82
1, 646641, Control_c, 0, 64, 83
1, 646759, Control_c, 0, 64, 82
1, 646774, Control_c, 0, 64, 81
1, 646789, Control_c, 0, 64, 80
1, 646804, Control_c, 0, 64, 80
1, 646818, Control_c, 0, 64, 79
1, 646833, Control_c, 0, 64, 78
1, 646848, Control_c, 0, 64, 77
1, 646863, Control_c, 0, 64, 77
1, 646878, Control_c, 0, 64, 76
1, 646893, Control_c, 0, 64, 74
1, 646907, Control_c, 0, 64, 71
1, 646922, Control_c, 0, 64, 68
1, 646929, Note_on_c, 0, 57, 47
1, 646936, Control_c, 0, 64, 62
1, 646942, Note_on_c, 0, 83, 77
1, 646951, Control_c, 0, 64, 53
1, 646967, Control_c, 0, 64, 40
1, 646989, Control_c, 0, 64, 0
1, 647022, Note_off_c, 0, 83, 64
1, 647037, Note_on_c, 0, 84, 83
1, 647110, Note_off_c, 0, 84, 64
1, 647111, Note_on_c, 0, 83, 84
1, 647113, Note_on_c, 0, 60, 53
1, 647172, Note_off_c, 0, 57, 40
1, 647173, Note_off_c, 0, 83, 62
1, 647180, Note_on_c, 0, 84, 87
1, 647236, Note_off_c, 0, 60, 60
1, 647238, Note_on_c, 0, 65, 59
1, 647251, Note_on_c, 0, 83, 81
1, 647257, Note_off_c, 0, 84, 57
1, 647298, Note_off_c, 0, 83, 66
1, 647319, Note_on_c, 0, 84, 75
1, 647322, Note_off_c, 0, 65, 52
1, 647376, Note_on_c, 0, 58, 61
1, 647393, Note_on_c, 0, 85, 88
1, 647402, Note_off_c, 0, 84, 62
1, 647464, Note_on_c, 0, 86, 86
1, 647468, Note_off_c, 0, 85, 65
1, 647518, Note_on_c, 0, 62, 61
1, 647524, Note_off_c, 0, 86, 63
1, 647530, Note_on_c, 0, 85, 82
1, 647572, Note_off_c, 0, 58, 61
1, 647595, Note_on_c, 0, 86, 84
1, 647596, Note_off_c, 0, 62, 59
1, 647619, Note_off_c, 0, 85, 64
1, 647639, Note_on_c, 0, 67, 53
1, 647657, Note_on_c, 0, 88, 82
1, 647695, Note_off_c, 0, 86, 62
1, 647730, Note_on_c, 0, 89, 88
1, 647802, Note_off_c, 0, 67, 41
1, 647808, Note_on_c, 0, 77, 82
1, 647821, Note_off_c, 0, 88, 28
1, 647822, Note_on_c, 0, 60, 49
1, 647826, Note_off_c, 0, 89, 64
1, 647960, Control_c, 0, 64, 39
1, 647966, Note_on_c, 0, 65, 61
1, 647975, Control_c, 0, 64, 53
1, 647990, Control_c, 0, 64, 61
1, 648005, Control_c, 0, 64, 65
1, 648018, Note_off_c, 0, 60, 45
1, 648019, Control_c, 0, 64, 67
1, 648034, Control_c, 0, 64, 70
1, 648049, Control_c, 0, 64, 73
1, 648055, Note_off_c, 0, 77, 63
1, 648064, Control_c, 0, 64, 74
1, 648079, Control_c, 0, 64, 75
1, 648081, Note_off_c, 0, 65, 61
1, 648103, Note_on_c, 0, 69, 65
1, 648204, Note_off_c, 0, 69, 54
1, 648212, Control_c, 0, 64, 74
1, 648227, Control_c, 0, 64, 72
1, 648242, Control_c, 0, 64, 68
1, 648244, Note_on_c, 0, 60, 59
1, 648244, Note_on_c, 0, 81, 89
1, 648249, Note_on_c, 0, 76, 78
1, 648256, Control_c, 0, 64, 62
1, 648271, Control_c, 0, 64, 49
1, 648286, Control_c, 0, 64, 0
1, 648304, Note_on_c, 0, 79, 92
1, 648335, Note_off_c, 0, 76, 53
1, 648338, Note_off_c, 0, 81, 64
1, 648360, Control_c, 0, 64, 34
1, 648375, Control_c, 0, 64, 48
1, 648389, Control_c, 0, 64, 58
1, 648405, Control_c, 0, 64, 64
1, 648420, Control_c, 0, 64, 65
1, 648421, Note_on_c, 0, 67, 71
1, 648429, Note_off_c, 0, 60, 60
1, 648435, Control_c, 0, 64, 67
1, 648449, Note_off_c, 0, 79, 64
1, 648450, Control_c, 0, 64, 67
1, 648464, Control_c, 0, 64, 68
1, 648562, Control_c, 0, 64, 68
1, 648568, Note_on_c, 0, 70, 63
1, 648577, Note_off_c, 0, 67, 54
1, 648607, Control_c, 0, 64, 68
1, 648638, Note_off_c, 0, 70, 63
1, 648661, Note_on_c, 0, 77, 74
1, 648695, Control_c, 0, 64, 66
1, 648704, Note_off_c, 0, 77, 59
1, 648710, Control_c, 0, 64, 60
1, 648725, Control_c, 0, 64, 44
1, 648727, Note_on_c, 0, 77, 76
1, 648729, Note_on_c, 0, 69, 66
1, 648734, Note_on_c, 0, 65, 61
1, 648739, Control_c, 0, 64, 0
1, 648813, Control_c, 0, 64, 42
1, 648815, Note_on_c, 0, 83, 72
1, 648817, Note_on_c, 0, 81, 78
1, 648817, Note_off_c, 0, 77, 63
1, 648828, Control_c, 0, 64, 53
1, 648843, Control_c, 0, 64, 58
1, 648858, Control_c, 0, 64, 59
1, 648863, Note_off_c, 0, 69, 45
1, 648873, Control_c, 0, 64, 60
1, 648884, Note_on_c, 0, 86, 68
1, 648890, Note_off_c, 0, 81, 63
1, 648896, Note_on_c, 0, 84, 72
1, 648899, Note_off_c, 0, 83, 64
1, 648918, Note_off_c, 0, 84, 55
1, 648925, Note_off_c, 0, 65, 62
1, 648944, Note_on_c, 0, 91, 75
1, 648944, Note_off_c, 0, 86, 63
1, 649009, Note_on_c, 0, 88, 77
1, 649017, Note_on_c, 0, 89, 44
1, 649042, Note_off_c, 0, 91, 63
1, 649051, Control_c, 0, 64, 59
1, 649059, Note_on_c, 0, 86, 82
1, 649080, Control_c, 0, 64, 59
1, 649084, Note_off_c, 0, 89, 62
1, 649095, Control_c, 0, 64, 55
1, 649097, Note_off_c, 0, 88, 63
1, 649110, Control_c, 0, 64, 45
1, 649125, Control_c, 0, 64, 0
1, 649134, Note_on_c, 0, 84, 88
1, 649139, Note_off_c, 0, 86, 63
1, 649145, Note_on_c, 0, 64, 75
1, 649146, Note_on_c, 0, 70, 81
1, 649152, Note_on_c, 0, 60, 66
1, 649184, Note_off_c, 0, 84, 65
1, 649204, Note_on_c, 0, 86, 68
1, 649213, Control_c, 0, 64, 36
1, 649236, Control_c, 0, 64, 48
1, 649251, Control_c, 0, 64, 55
1, 649265, Control_c, 0, 64, 57
1, 649280, Control_c, 0, 64, 58
1, 649287, Note_on_c, 0, 84, 62
1, 649317, Note_off_c, 0, 86, 63
1, 649319, Note_off_c, 0, 60, 51
1, 649322, Note_off_c, 0, 64, 61
1, 649323, Note_off_c, 0, 70, 59
1, 649325, Control_c, 0, 64, 57
1, 649354, Control_c, 0, 64, 57
1, 649357, Note_on_c, 0, 82, 79
1, 649370, Control_c, 0, 64, 56
1, 649385, Control_c, 0, 64, 55
1, 649388, Note_off_c, 0, 84, 64
1, 649400, Control_c, 0, 64, 54
1, 649415, Control_c, 0, 64, 52
1, 649420, Note_off_c, 0, 82, 64
1, 649429, Control_c, 0, 64, 50
1, 649432, Note_on_c, 0, 81, 83
1, 649444, Control_c, 0, 64, 46
1, 649459, Control_c, 0, 64, 42
1, 649474, Control_c, 0, 64, 33
1, 649480, Note_off_c, 0, 81, 61
1, 649489, Control_c, 0, 64, 0
1, 649498, Note_on_c, 0, 79, 83
1, 649557, Note_off_c, 0, 79, 64
1, 649564, Note_on_c, 0, 69, 69
1, 649567, Note_on_c, 0, 65, 70
1, 649574, Note_on_c, 0, 77, 79
1, 649607, Control_c, 0, 64, 33
1, 649622, Control_c, 0, 64, 46
1, 649625, Note_off_c, 0, 77, 65
1, 649636, Control_c, 0, 64, 54
1, 649647, Note_on_c, 0, 81, 83
1, 649651, Control_c, 0, 64, 58
1, 649666, Control_c, 0, 64, 59
1, 649672, Note_off_c, 0, 69, 54
1, 649710, Control_c, 0, 64, 58
1, 649715, Note_on_c, 0, 79, 83
1, 649725, Note_off_c, 0, 65, 62
1, 649725, Control_c, 0, 64, 57
1, 649732, Note_off_c, 0, 81, 62
1, 649740, Control_c, 0, 64, 55
1, 649754, Control_c, 0, 64, 52
1, 649769, Note_off_c, 0, 79, 67
1, 649769, Control_c, 0, 64, 46
1, 649784, Control_c, 0, 64, 38
1, 649791, Note_on_c, 0, 77, 76
1, 649799, Control_c, 0, 64, 0
1, 649832, Note_off_c, 0, 77, 61
1, 649856, Note_on_c, 0, 76, 81
1, 649921, Note_on_c, 0, 74, 77
1, 649943, Note_off_c, 0, 76, 63
1, 649974, Note_off_c, 0, 74, 64
1, 649994, Note_on_c, 0, 72, 77
1, 649999, Note_on_c, 0, 70, 72
1, 650002, Note_on_c, 0, 64, 61
1, 650004, Note_on_c, 0, 60, 67
1, 650029, Control_c, 0, 64, 33
1, 650043, Control_c, 0, 64, 44
1, 650047, Note_off_c, 0, 72, 60
1, 650058, Control_c, 0, 64, 52
1, 650073, Note_on_c, 0, 74, 80
1, 650073, Control_c, 0, 64, 56
1, 650075, Note_off_c, 0, 70, 64
1, 650088, Control_c, 0, 64, 58
1, 650103, Control_c, 0, 64, 58
1, 650108, Note_off_c, 0, 64, 63
1, 650133, Control_c, 0, 64, 58
1, 650134, Note_off_c, 0, 60, 64
1, 650139, Note_on_c, 0, 72, 78
1, 650148, Control_c, 0, 64, 57
1, 650163, Note_off_c, 0, 74, 60
1, 650163, Control_c, 0, 64, 56
1, 650178, Control_c, 0, 64, 54
1, 650193, Control_c, 0, 64, 52
1, 650197, Note_on_c, 0, 70, 76
1, 650207, Control_c, 0, 64, 48
1, 650222, Control_c, 0, 64, 42
1, 650229, Note_off_c, 0, 72, 62
1, 650237, Control_c, 0, 64, 35
1, 650252, Control_c, 0, 64, 0
1, 650264, Note_off_c, 0, 70, 64
1, 650270, Note_on_c, 0, 69, 73
1, 650320, Note_off_c, 0, 69, 61
1, 650336, Note_on_c, 0, 67, 74
1, 650401, Note_off_c, 0, 67, 63
1, 650420, Note_on_c, 0, 57, 67
1, 650421, Note_on_c, 0, 65, 84
1, 650423, Note_on_c, 0, 53, 62
1, 650445, Control_c, 0, 64, 36
1, 650459, Control_c, 0, 64, 50
1, 650474, Control_c, 0, 64, 58
1, 650486, Note_off_c, 0, 65, 62
1, 650489, Control_c, 0, 64, 60
1, 650494, Note_on_c, 0, 69, 74
1, 650503, Control_c, 0, 64, 61
1, 650533, Control_c, 0, 64, 60
1, 650536, Note_off_c, 0, 57, 60
1, 650548, Control_c, 0, 64, 59
1, 650563, Control_c, 0, 64, 58
1, 650565, Note_on_c, 0, 67, 79
1, 650577, Control_c, 0, 64, 56
1, 650580, Note_off_c, 0, 69, 61
1, 650592, Control_c, 0, 64, 54
1, 650594, Note_off_c, 0, 53, 61
1, 650607, Control_c, 0, 64, 52
1, 650620, Note_off_c, 0, 67, 65
1, 650622, Control_c, 0, 64, 50
1, 650637, Note_on_c, 0, 65, 72
1, 650637, Control_c, 0, 64, 48
1, 650652, Control_c, 0, 64, 45
1, 650667, Control_c, 0, 64, 42
1, 650679, Note_off_c, 0, 65, 59
1, 650681, Control_c, 0, 64, 38
1, 650696, Control_c, 0, 64, 0
1, 650706, Note_on_c, 0, 64, 77
1, 650778, Note_on_c, 0, 62, 74
1, 650805, Note_off_c, 0, 64, 62
1, 650822, Control_c, 0, 64, 30
1, 650833, Note_off_c, 0, 62, 65
1, 650836, Control_c, 0, 64, 32
1, 650839, Note_on_c, 0, 58, 74
1, 650845, Note_on_c, 0, 48, 66
1, 650845, Note_on_c, 0, 60, 75
1, 650847, Note_on_c, 0, 52, 65
1, 650851, Control_c, 0, 64, 0
1, 650909, Note_off_c, 0, 60, 62
1, 650923, Note_on_c, 0, 62, 74
1, 650924, Note_off_c, 0, 58, 62
1, 650971, Note_off_c, 0, 52, 61
1, 650991, Note_off_c, 0, 48, 63
1, 650993, Note_on_c, 0, 60, 65
1, 651018, Note_off_c, 0, 62, 58
1, 651047, Note_on_c, 0, 58, 75
1, 651079, Note_off_c, 0, 60, 64
1, 651108, Note_off_c, 0, 58, 63
1, 651114, Note_on_c, 0, 57, 71
1, 651167, Note_off_c, 0, 57, 61
1, 651180, Note_on_c, 0, 55, 74
1, 651253, Note_off_c, 0, 55, 62
1, 651261, Note_on_c, 0, 41, 77
1, 651261, Note_on_c, 0, 53, 85
1, 651292, Note_off_c, 0, 53, 66
1, 651314, Note_off_c, 0, 41, 62
1, 651430, Note_on_c, 0, 45, 79
1, 651439, Note_on_c, 0, 57, 79
1, 651466, Note_off_c, 0, 57, 66
1, 651495, Note_off_c, 0, 45, 62
1, 651589, Note_on_c, 0, 48, 84
1, 651593, Note_on_c, 0, 60, 73
1, 651621, Note_off_c, 0, 60, 65
1, 651640, Note_off_c, 0, 48, 64
1, 651731, Note_on_c, 0, 53, 81
1, 651737, Note_on_c, 0, 65, 78
1, 651777, Note_off_c, 0, 65, 61
1, 651784, Note_off_c, 0, 53, 64
1, 651875, Note_on_c, 0, 57, 80
1, 651880, Note_on_c, 0, 69, 76
1, 651915, Note_off_c, 0, 69, 62
1, 651927, Note_off_c, 0, 57, 65
1, 652008, Note_on_c, 0, 60, 85
1, 652015, Note_on_c, 0, 72, 76
1, 652063, Note_off_c, 0, 72, 63
1, 652066, Note_off_c, 0, 60, 64
1, 652156, Note_on_c, 0, 65, 89
1, 652158, Note_on_c, 0, 77, 88
1, 652283, Note_off_c, 0, 77, 66
1, 652284, Note_off_c, 0, 65, 62
1, 652643, Note_on_c, 0, 84, 97
1, 652645, Note_on_c, 0, 53, 85
1, 652645, Note_on_c, 0, 65, 90
1, 652649, Note_on_c, 0, 72, 85
1, 652649, Note_on_c, 0, 81, 83
1, 652691, Control_c, 0, 64, 44
1, 652705, Control_c, 0, 64, 60
1, 652720, Control_c, 0, 64, 68
1, 652734, Note_off_c, 0, 72, 60
1, 652735, Control_c, 0, 64, 80
1, 652740, Note_off_c, 0, 65, 63
1, 652747, Note_off_c, 0, 81, 61
1, 652750, Control_c, 0, 64, 103
1, 652765, Control_c, 0, 64, 127
1, 652777, Note_off_c, 0, 53, 61
1, 652781, Note_off_c, 0, 84, 64
1, 652884, Control_c, 0, 64, 102
1, 652898, Control_c, 0, 64, 82
1, 652913, Control_c, 0, 64, 68
1, 652928, Control_c, 0, 64, 57
1, 652943, Control_c, 0, 64, 44
1, 652958, Control_c, 0, 64, 39
1, 652980, Control_c, 0, 64, 38
1, 652995, Control_c, 0, 64, 36
1, 653009, Control_c, 0, 64, 33
1, 653024, Control_c, 0, 64, 29
1, 653039, Control_c, 0, 64, 0
1, 653190, Note_on_c, 0, 77, 88
1, 653191, Note_on_c, 0, 87, 96
1, 653193, Note_on_c, 0, 57, 86
1, 653196, Note_on_c, 0, 45, 84
1, 653196, Note_on_c, 0, 84, 88
1, 653305, Control_c, 0, 64, 35
1, 653320, Control_c, 0, 64, 41
1, 653335, Control_c, 0, 64, 48
1, 653351, Control_c, 0, 64, 53
1, 653366, Control_c, 0, 64, 55
1, 653381, Control_c, 0, 64, 57
1, 653396, Control_c, 0, 64, 59
1, 653410, Control_c, 0, 64, 60
1, 653425, Control_c, 0, 64, 60
1, 653514, Control_c, 0, 64, 61
1, 653546, Note_off_c, 0, 77, 56
1, 653549, Note_off_c, 0, 84, 56
1, 653567, Note_off_c, 0, 87, 61
1, 653596, Note_off_c, 0, 57, 59
1, 653606, Note_off_c, 0, 45, 48
1, 653633, Control_c, 0, 64, 60
1, 653647, Control_c, 0, 64, 60
1, 653662, Control_c, 0, 64, 59
1, 653677, Control_c, 0, 64, 56
1, 653692, Control_c, 0, 64, 0
1, 654167, Note_on_c, 0, 58, 84
1, 654167, Note_on_c, 0, 77, 90
1, 654169, Note_on_c, 0, 86, 92
1, 654171, Note_on_c, 0, 82, 91
1, 654172, Note_on_c, 0, 46, 80
1, 654494, Note_off_c, 0, 46, 46
1, 654543, Note_off_c, 0, 77, 59
1, 654548, Note_off_c, 0, 58, 51
1, 654553, Note_off_c, 0, 86, 62
1, 654598, Note_off_c, 0, 82, 58
1, 655298, Note_on_c, 0, 89, 93
1, 655302, Note_on_c, 0, 80, 71
1, 655302, Note_on_c, 0, 77, 82
1, 655308, Note_on_c, 0, 86, 79
1, 655322, Note_on_c, 0, 59, 38
1, 655323, Note_on_c, 0, 47, 40
1, 655522, Control_c, 0, 64, 31
1, 655537, Control_c, 0, 64, 37
1, 655552, Control_c, 0, 64, 45
1, 655567, Control_c, 0, 64, 53
1, 655582, Control_c, 0, 64, 58
1, 655597, Control_c, 0, 64, 60
1, 655612, Control_c, 0, 64, 61
1, 655626, Control_c, 0, 64, 63
1, 655641, Control_c, 0, 64, 65
1, 655656, Control_c, 0, 64, 68
1, 655671, Control_c, 0, 64, 71
1, 655686, Control_c, 0, 64, 75
1, 655700, Control_c, 0, 64, 77
1, 655715, Control_c, 0, 64, 79
1, 655730, Control_c, 0, 64, 82
1, 655746, Control_c, 0, 64, 85
1, 655761, Control_c, 0, 64, 88
1, 655776, Control_c, 0, 64, 94
1, 655787, Note_off_c, 0, 89, 57
1, 655791, Control_c, 0, 64, 98
1, 655805, Control_c, 0, 64, 100
1, 655832, Note_off_c, 0, 77, 55
1, 655837, Note_off_c, 0, 86, 58
1, 655838, Note_off_c, 0, 59, 37
1, 655849, Control_c, 0, 64, 102
1, 655874, Note_off_c, 0, 47, 41
1, 655883, Note_off_c, 0, 80, 60
1, 655976, Control_c, 0, 64, 100
1, 655991, Control_c, 0, 64, 96
1, 656005, Control_c, 0, 64, 91
1, 656020, Control_c, 0, 64, 85
1, 656035, Control_c, 0, 64, 80
1, 656035, Control_c, 0, 67, 20
1, 656050, Control_c, 0, 64, 75
1, 656050, Control_c, 0, 67, 26
1, 656065, Control_c, 0, 64, 72
1, 656065, Control_c, 0, 67, 32
1, 656080, Control_c, 0, 64, 67
1, 656080, Control_c, 0, 67, 41
1, 656095, Control_c, 0, 64, 64
1, 656095, Control_c, 0, 67, 53
1, 656110, Control_c, 0, 64, 61
1, 656110, Control_c, 0, 67, 71
1, 656124, Control_c, 0, 64, 58
1, 656124, Control_c, 0, 67, 96
1, 656139, Control_c, 0, 64, 56
1, 656139, Control_c, 0, 67, 114
1, 656154, Control_c, 0, 64, 55
1, 656154, Control_c, 0, 67, 126
1, 656169, Control_c, 0, 64, 54
1, 656184, Control_c, 0, 64, 53
1, 656198, Control_c, 0, 64, 52
1, 656213, Control_c, 0, 64, 51
1, 656228, Control_c, 0, 64, 51
1, 656243, Control_c, 0, 64, 50
1, 656509, Control_c, 0, 64, 50
1, 656569, Control_c, 0, 64, 49
1, 656628, Control_c, 0, 64, 49
1, 656633, Note_on_c, 0, 65, 52
1, 656658, Note_on_c, 0, 57, 28
1, 656661, Note_on_c, 0, 60, 32
1, 656662, Note_on_c, 0, 48, 25
1, 656673, Control_c, 0, 64, 48
1, 656688, Control_c, 0, 64, 48
1, 656769, Control_c, 0, 64, 47
1, 656798, Control_c, 0, 64, 47
1, 656858, Control_c, 0, 64, 47
1, 656888, Control_c, 0, 64, 48
1, 656903, Control_c, 0, 64, 49
1, 656917, Control_c, 0, 64, 50
1, 656932, Control_c, 0, 64, 51
1, 656947, Control_c, 0, 64, 53
1, 656962, Control_c, 0, 64, 54
1, 656977, Control_c, 0, 64, 55
1, 656992, Control_c, 0, 64, 56
1, 657006, Control_c, 0, 64, 57
1, 657021, Control_c, 0, 64, 58
1, 657036, Control_c, 0, 64, 60
1, 657051, Control_c, 0, 64, 60
1, 657066, Control_c, 0, 64, 61
1, 657080, Control_c, 0, 64, 62
1, 657095, Control_c, 0, 64, 63
1, 657110, Control_c, 0, 64, 64
1, 657125, Control_c, 0, 64, 65
1, 657140, Control_c, 0, 64, 67
1, 657154, Control_c, 0, 64, 68
1, 657169, Control_c, 0, 64, 70
1, 657184, Control_c, 0, 64, 72
1, 657198, Control_c, 0, 64, 74
1, 657213, Control_c, 0, 64, 76
1, 657228, Control_c, 0, 64, 78
1, 657243, Control_c, 0, 64, 79
1, 657258, Control_c, 0, 64, 80
1, 657272, Control_c, 0, 64, 81
1, 657287, Note_off_c, 0, 65, 60
1, 657287, Control_c, 0, 64, 82
1, 657302, Control_c, 0, 64, 82
1, 657317, Control_c, 0, 64, 83
1, 657332, Control_c, 0, 64, 83
1, 657348, Control_c, 0, 64, 84
1, 657389, Note_off_c, 0, 57, 40
1, 657577, Control_c, 0, 64, 83
1, 657621, Control_c, 0, 64, 83
1, 657636, Control_c, 0, 64, 82
1, 657650, Note_on_c, 0, 58, 39
1, 657651, Control_c, 0, 64, 81
1, 657652, Note_on_c, 0, 69, 44
1, 657666, Control_c, 0, 64, 81
1, 657681, Control_c, 0, 64, 80
1, 657691, Note_on_c, 0, 64, 13
1, 657696, Control_c, 0, 64, 79
1, 657710, Control_c, 0, 64, 78
1, 657725, Control_c, 0, 64, 75
1, 657740, Control_c, 0, 64, 72
1, 657755, Control_c, 0, 64, 70
1, 657761, Note_on_c, 0, 67, 49
1, 657770, Control_c, 0, 64, 67
1, 657785, Control_c, 0, 64, 65
1, 657800, Control_c, 0, 64, 62
1, 657804, Note_off_c, 0, 69, 37
1, 657815, Control_c, 0, 64, 58
1, 657829, Control_c, 0, 64, 54
1, 657844, Control_c, 0, 64, 50
1, 657859, Control_c, 0, 64, 46
1, 657874, Control_c, 0, 64, 42
1, 657889, Control_c, 0, 64, 37
1, 657903, Control_c, 0, 64, 30
1, 657918, Control_c, 0, 64, 0
1, 658110, Control_c, 0, 64, 29
1, 658125, Control_c, 0, 64, 42
1, 658140, Control_c, 0, 64, 52
1, 658140, Note_off_c, 0, 60, 32
1, 658155, Control_c, 0, 64, 58
1, 658169, Control_c, 0, 64, 61
1, 658184, Control_c, 0, 64, 62
1, 658190, Note_off_c, 0, 64, 39
1, 658199, Control_c, 0, 64, 63
1, 658221, Control_c, 0, 64, 64
1, 658236, Control_c, 0, 64, 66
1, 658250, Control_c, 0, 64, 67
1, 658265, Control_c, 0, 64, 68
1, 658280, Control_c, 0, 64, 68
1, 658310, Control_c, 0, 64, 69
1, 658359, Note_off_c, 0, 58, 58
1, 658439, Note_off_c, 0, 67, 0
1, 658476, Poly_aftertouch_c, 0, 67, 127
1, 658491, Note_on_c, 0, 65, 43
1, 658503, Control_c, 0, 64, 68
1, 658557, Note_off_c, 0, 65, 56
1, 658584, Poly_aftertouch_c, 0, 67, 0
1, 658590, Note_off_c, 0, 48, 19
1, 658591, Control_c, 0, 64, 68
1, 658621, Control_c, 0, 64, 67
1, 658650, Control_c, 0, 64, 67
1, 658665, Control_c, 0, 64, 66
1, 658680, Control_c, 0, 64, 66
1, 658710, Control_c, 0, 64, 65
1, 658710, Control_c, 0, 67, 124
1, 658724, Note_on_c, 0, 65, 46
1, 658724, Control_c, 0, 64, 64
1, 658724, Control_c, 0, 67, 122
1, 658734, Note_on_c, 0, 53, 34
1, 658739, Note_on_c, 0, 57, 33
1, 658739, Control_c, 0, 64, 63
1, 658739, Control_c, 0, 67, 118
1, 658754, Control_c, 0, 64, 59
1, 658754, Control_c, 0, 67, 111
1, 658764, Note_off_c, 0, 65, 64
1, 658769, Control_c, 0, 64, 50
1, 658769, Control_c, 0, 67, 93
1, 658769, Note_off_c, 0, 53, 57
1, 658775, Note_off_c, 0, 57, 58
1, 658784, Control_c, 0, 64, 37
1, 658784, Control_c, 0, 67, 72
1, 658798, Control_c, 0, 64, 0
1, 658798, Control_c, 0, 67, 50
1, 658813, Control_c, 0, 67, 30
1, 658828, Control_c, 0, 67, 0
1, 659048, Note_on_c, 0, 57, 74
1, 659057, Note_on_c, 0, 45, 50
1, 659079, Note_off_c, 0, 57, 65
1, 659094, Note_off_c, 0, 45, 64
1, 659205, Note_on_c, 0, 58, 82
1, 659213, Note_on_c, 0, 46, 58
1, 659234, Note_off_c, 0, 58, 67
1, 659254, Note_off_c, 0, 46, 63
1, 659371, Note_on_c, 0, 55, 58
1, 659374, Note_on_c, 0, 67, 69
1, 659398, Note_off_c, 0, 67, 68
1, 659406, Note_off_c, 0, 55, 63
1, 659514, Note_on_c, 0, 59, 77
1, 659518, Note_on_c, 0, 47, 60
1, 659542, Note_off_c, 0, 59, 65
1, 659567, Note_off_c, 0, 47, 59
1, 659661, Note_on_c, 0, 60, 84
1, 659665, Note_on_c, 0, 48, 64
1, 659687, Note_off_c, 0, 60, 67
1, 659700, Note_off_c, 0, 48, 66
1, 659812, Note_on_c, 0, 69, 82
1, 659824, Note_on_c, 0, 57, 57
1, 659834, Note_off_c, 0, 69, 66
1, 659857, Note_off_c, 0, 57, 65
1, 659946, Note_on_c, 0, 61, 80
1, 659951, Note_on_c, 0, 49, 61
1, 659983, Note_off_c, 0, 49, 65
1, 660008, Note_off_c, 0, 61, 53
1, 660086, Note_on_c, 0, 62, 87
1, 660089, Note_on_c, 0, 50, 59
1, 660118, Note_off_c, 0, 62, 65
1, 660120, Note_off_c, 0, 50, 64
1, 660226, Note_on_c, 0, 70, 80
1, 660232, Note_on_c, 0, 58, 52
1, 660267, Note_off_c, 0, 70, 63
1, 660268, Note_off_c, 0, 58, 64
1, 660377, Note_on_c, 0, 64, 75
1, 660378, Note_on_c, 0, 52, 49
1, 660399, Note_off_c, 0, 64, 71
1, 660415, Note_off_c, 0, 52, 60
1, 660677, Note_on_c, 0, 82, 70
1, 660868, Control_c, 0, 64, 39
1, 660883, Control_c, 0, 64, 52
1, 660898, Control_c, 0, 64, 58
1, 660912, Control_c, 0, 64, 60
1, 660927, Control_c, 0, 64, 62
1, 660942, Control_c, 0, 64, 64
1, 660957, Control_c, 0, 64, 66
1, 660971, Control_c, 0, 64, 69
1, 660986, Control_c, 0, 64, 71
1, 661001, Control_c, 0, 64, 72
1, 661016, Control_c, 0, 64, 73
1, 661046, Control_c, 0, 64, 73
1, 661091, Control_c, 0, 64, 74
1, 661120, Control_c, 0, 64, 73
1, 661135, Control_c, 0, 64, 72
1, 661150, Control_c, 0, 64, 69
1, 661165, Control_c, 0, 64, 65
1, 661180, Note_on_c, 0, 58, 36
1, 661180, Control_c, 0, 64, 63
1, 661195, Control_c, 0, 64, 62
1, 661202, Note_on_c, 0, 64, 25
1, 661207, Note_on_c, 0, 67, 27
1, 661223, Note_on_c, 0, 60, 19
1, 661232, Control_c, 0, 64, 63
1, 661246, Control_c, 0, 64, 65
1, 661261, Control_c, 0, 64, 69
1, 661270, Note_off_c, 0, 82, 29
1, 661276, Control_c, 0, 64, 72
1, 661290, Control_c, 0, 64, 74
1, 661305, Control_c, 0, 64, 76
1, 661320, Control_c, 0, 64, 78
1, 661336, Control_c, 0, 64, 79
1, 661389, Note_on_c, 0, 81, 64
1, 661393, Note_off_c, 0, 67, 40
1, 661401, Note_off_c, 0, 60, 43
1, 661402, Note_off_c, 0, 58, 34
1, 661416, Note_off_c, 0, 64, 39
1, 661450, Note_on_c, 0, 79, 64
1, 661469, Note_off_c, 0, 81, 59
1, 661469, Control_c, 0, 64, 79
1, 661484, Control_c, 0, 64, 78
1, 661499, Control_c, 0, 64, 78
1, 661511, Note_on_c, 0, 77, 60
1, 661514, Control_c, 0, 64, 77
1, 661529, Control_c, 0, 64, 76
1, 661533, Note_off_c, 0, 79, 64
1, 661544, Control_c, 0, 64, 75
1, 661551, Note_off_c, 0, 77, 62
1, 661559, Control_c, 0, 64, 73
1, 661571, Note_on_c, 0, 76, 65
1, 661574, Control_c, 0, 64, 70
1, 661588, Control_c, 0, 64, 67
1, 661603, Control_c, 0, 64, 63
1, 661618, Control_c, 0, 64, 58
1, 661618, Note_off_c, 0, 76, 53
1, 661633, Control_c, 0, 64, 53
1, 661633, Note_on_c, 0, 57, 53
1, 661636, Note_on_c, 0, 77, 64
1, 661640, Note_on_c, 0, 60, 40
1, 661644, Note_on_c, 0, 65, 40
1, 661648, Control_c, 0, 64, 48
1, 661657, Note_off_c, 0, 77, 67
1, 661662, Control_c, 0, 64, 45
1, 661677, Control_c, 0, 64, 44
1, 661692, Note_off_c, 0, 57, 59
1, 661697, Note_off_c, 0, 60, 54
1, 661706, Note_off_c, 0, 65, 61
1, 661707, Control_c, 0, 64, 44
1, 661736, Control_c, 0, 64, 43
1, 661751, Control_c, 0, 64, 42
1, 661766, Control_c, 0, 64, 42
1, 661803, Note_on_c, 0, 79, 71
1, 661828, Note_off_c, 0, 79, 68
1, 661855, Control_c, 0, 64, 42
1, 661943, Control_c, 0, 64, 42
1, 661947, Note_on_c, 0, 81, 71
1, 661978, Note_off_c, 0, 81, 69
1, 662068, Control_c, 0, 64, 41
1, 662083, Control_c, 0, 64, 41
1, 662098, Control_c, 0, 64, 39
1, 662113, Control_c, 0, 64, 36
1, 662128, Control_c, 0, 64, 33
1, 662143, Control_c, 0, 64, 31
1, 662158, Control_c, 0, 64, 29
1, 662172, Note_on_c, 0, 72, 50
1, 662173, Control_c, 0, 64, 0
1, 662180, Note_on_c, 0, 69, 39
1, 662186, Note_on_c, 0, 60, 32
1, 662203, Control_c, 0, 64, 29
1, 662232, Control_c, 0, 64, 34
1, 662247, Control_c, 0, 64, 41
1, 662262, Control_c, 0, 64, 50
1, 662277, Control_c, 0, 64, 57
1, 662292, Control_c, 0, 64, 61
1, 662307, Control_c, 0, 64, 64
1, 662322, Control_c, 0, 64, 67
1, 662336, Control_c, 0, 64, 70
1, 662351, Control_c, 0, 64, 74
1, 662366, Control_c, 0, 64, 76
1, 662381, Control_c, 0, 64, 77
1, 662406, Note_off_c, 0, 60, 37
1, 662411, Control_c, 0, 64, 74
1, 662425, Control_c, 0, 64, 69
1, 662440, Control_c, 0, 64, 64
1, 662455, Control_c, 0, 64, 60
1, 662471, Note_on_c, 0, 70, 59
1, 662477, Note_off_c, 0, 69, 54
1, 662479, Note_on_c, 0, 61, 47
1, 662482, Note_on_c, 0, 67, 48
1, 662485, Control_c, 0, 64, 62
1, 662489, Note_off_c, 0, 72, 55
1, 662499, Control_c, 0, 64, 65
1, 662514, Control_c, 0, 64, 68
1, 662529, Control_c, 0, 64, 73
1, 662541, Note_off_c, 0, 67, 57
1, 662543, Control_c, 0, 64, 77
1, 662558, Control_c, 0, 64, 81
1, 662569, Note_off_c, 0, 70, 62
1, 662573, Control_c, 0, 64, 82
1, 662579, Note_off_c, 0, 61, 62
1, 662603, Control_c, 0, 64, 82
1, 662617, Control_c, 0, 64, 81
1, 662632, Control_c, 0, 64, 81
1, 662647, Control_c, 0, 64, 80
1, 662662, Control_c, 0, 64, 78
1, 662677, Control_c, 0, 64, 75
1, 662691, Note_on_c, 0, 67, 45
1, 662691, Control_c, 0, 64, 70
1, 662714, Control_c, 0, 64, 65
1, 662717, Note_on_c, 0, 62, 41
1, 662717, Note_on_c, 0, 70, 49
1, 662729, Control_c, 0, 64, 61
1, 662743, Control_c, 0, 64, 57
1, 662758, Control_c, 0, 64, 55
1, 662773, Control_c, 0, 64, 53
1, 662788, Control_c, 0, 64, 52
1, 662803, Control_c, 0, 64, 50
1, 662817, Control_c, 0, 64, 49
1, 662832, Control_c, 0, 64, 48
1, 662847, Control_c, 0, 64, 47
1, 662862, Control_c, 0, 64, 46
1, 663055, Control_c, 0, 64, 46
1, 663115, Control_c, 0, 64, 45
1, 663159, Control_c, 0, 64, 45
1, 663174, Control_c, 0, 64, 44
1, 663189, Control_c, 0, 64, 44
1, 663204, Control_c, 0, 64, 43
1, 663219, Control_c, 0, 64, 43
1, 663233, Control_c, 0, 64, 42
1, 663248, Control_c, 0, 64, 42
1, 663263, Control_c, 0, 64, 41
1, 663293, Control_c, 0, 64, 40
1, 663307, Control_c, 0, 64, 40
1, 663322, Control_c, 0, 64, 39
1, 663332, Note_on_c, 0, 69, 35
1, 663333, Note_on_c, 0, 65, 18
1, 663337, Control_c, 0, 64, 38
1, 663341, Note_off_c, 0, 67, 35
1, 663396, Control_c, 0, 64, 38
1, 663426, Control_c, 0, 64, 37
1, 663443, Note_off_c, 0, 70, 36
1, 663552, Control_c, 0, 64, 37
1, 663596, Control_c, 0, 64, 36
1, 663611, Control_c, 0, 64, 36
1, 663626, Control_c, 0, 64, 35
1, 663636, Note_off_c, 0, 62, 61
1, 663640, Control_c, 0, 64, 35
1, 663672, Note_off_c, 0, 65, 51
1, 663678, Note_off_c, 0, 69, 53
1, 663729, Control_c, 0, 64, 34
1, 663819, Control_c, 0, 64, 35
1, 663849, Control_c, 0, 64, 35
1, 663863, Control_c, 0, 64, 36
1, 663893, Control_c, 0, 64, 0
1, 664197, Note_on_c, 0, 57, 77
1, 664200, Note_on_c, 0, 45, 61
1, 664236, Note_off_c, 0, 57, 68
1, 664248, Note_off_c, 0, 45, 64
1, 664367, Note_on_c, 0, 58, 81
1, 664370, Note_on_c, 0, 46, 64
1, 664396, Note_off_c, 0, 58, 65
1, 664421, Note_off_c, 0, 46, 62
1, 664518, Note_on_c, 0, 67, 71
1, 664527, Note_on_c, 0, 55, 60
1, 664543, Note_off_c, 0, 67, 69
1, 664562, Note_off_c, 0, 55, 64
1, 664664, Note_on_c, 0, 59, 81
1, 664666, Note_on_c, 0, 47, 62
1, 664700, Note_off_c, 0, 59, 64
1, 664709, Note_off_c, 0, 47, 63
1, 664816, Note_on_c, 0, 48, 69
1, 664818, Note_on_c, 0, 60, 85
1, 664847, Note_off_c, 0, 60, 68
1, 664856, Note_off_c, 0, 48, 63
1, 664970, Note_on_c, 0, 57, 68
1, 664970, Note_on_c, 0, 69, 81
1, 665002, Note_off_c, 0, 69, 61
1, 665007, Note_off_c, 0, 57, 65
1, 665107, Note_on_c, 0, 61, 85
1, 665109, Note_on_c, 0, 49, 56
1, 665146, Note_off_c, 0, 49, 62
1, 665189, Note_off_c, 0, 61, 50
1, 665250, Note_on_c, 0, 50, 63
1, 665252, Note_on_c, 0, 62, 88
1, 665282, Note_off_c, 0, 50, 63
1, 665291, Note_off_c, 0, 62, 64
1, 665401, Note_on_c, 0, 70, 83
1, 665409, Note_on_c, 0, 58, 48
1, 665438, Note_off_c, 0, 58, 61
1, 665449, Note_off_c, 0, 70, 64
1, 665558, Note_on_c, 0, 64, 74
1, 665563, Note_on_c, 0, 52, 61
1, 665590, Note_off_c, 0, 64, 65
1, 665603, Note_off_c, 0, 52, 62
1, 665873, Note_on_c, 0, 82, 67
1, 666035, Control_c, 0, 64, 39
1, 666050, Control_c, 0, 64, 52
1, 666065, Control_c, 0, 64, 57
1, 666079, Control_c, 0, 64, 59
1, 666094, Control_c, 0, 64, 61
1, 666109, Control_c, 0, 64, 63
1, 666124, Control_c, 0, 64, 65
1, 666140, Control_c, 0, 64, 68
1, 666155, Control_c, 0, 64, 71
1, 666170, Control_c, 0, 64, 74
1, 666184, Control_c, 0, 64, 77
1, 666199, Control_c, 0, 64, 78
1, 666214, Control_c, 0, 64, 79
1, 666244, Control_c, 0, 64, 79
1, 666347, Control_c, 0, 64, 79
1, 666362, Control_c, 0, 64, 77
1, 666377, Control_c, 0, 64, 74
1, 666392, Control_c, 0, 64, 69
1, 666407, Control_c, 0, 64, 64
1, 666422, Control_c, 0, 64, 61
1, 666437, Control_c, 0, 64, 61
1, 666443, Note_on_c, 0, 64, 33
1, 666447, Note_on_c, 0, 67, 29
1, 666459, Control_c, 0, 64, 62
1, 666461, Note_on_c, 0, 58, 29
1, 666474, Control_c, 0, 64, 64
1, 666489, Control_c, 0, 64, 67
1, 666494, Poly_aftertouch_c, 0, 60, 127
1, 666504, Control_c, 0, 64, 70
1, 666518, Control_c, 0, 64, 74
1, 666523, Note_off_c, 0, 82, 25
1, 666533, Control_c, 0, 64, 76
1, 666548, Control_c, 0, 64, 78
1, 666563, Control_c, 0, 64, 79
1, 666638, Note_off_c, 0, 67, 40
1, 666650, Poly_aftertouch_c, 0, 60, 0
1, 666659, Note_off_c, 0, 58, 40
1, 666666, Control_c, 0, 64, 78
1, 666667, Note_on_c, 0, 81, 58
1, 666671, Note_off_c, 0, 64, 34
1, 666681, Control_c, 0, 64, 78
1, 666696, Control_c, 0, 64, 77
1, 666710, Control_c, 0, 64, 76
1, 666717, Note_on_c, 0, 79, 56
1, 666725, Control_c, 0, 64, 75
1, 666740, Control_c, 0, 64, 73
1, 666755, Control_c, 0, 64, 71
1, 666760, Note_off_c, 0, 81, 36
1, 666770, Control_c, 0, 64, 69
1, 666779, Note_on_c, 0, 77, 56
1, 666784, Control_c, 0, 64, 67
1, 666795, Note_off_c, 0, 79, 65
1, 666799, Control_c, 0, 64, 66
1, 666814, Control_c, 0, 64, 64
1, 666815, Note_off_c, 0, 77, 65
1, 666829, Control_c, 0, 64, 63
1, 666834, Note_on_c, 0, 76, 62
1, 666844, Control_c, 0, 64, 60
1, 666859, Control_c, 0, 64, 55
1, 666874, Control_c, 0, 64, 50
1, 666889, Control_c, 0, 64, 45
1, 666898, Note_off_c, 0, 76, 54
1, 666901, Note_on_c, 0, 57, 47
1, 666902, Note_on_c, 0, 77, 61
1, 666903, Control_c, 0, 64, 42
1, 666910, Note_on_c, 0, 65, 46
1, 666918, Control_c, 0, 64, 40
1, 666919, Note_on_c, 0, 60, 28
1, 666933, Control_c, 0, 64, 39
1, 666939, Note_off_c, 0, 57, 64
1, 666948, Control_c, 0, 64, 38
1, 666951, Note_off_c, 0, 60, 53
1, 666953, Note_off_c, 0, 65, 65
1, 666963, Note_on_c, 0, 79, 64
1, 666963, Control_c, 0, 64, 35
1, 666968, Note_off_c, 0, 77, 60
1, 666978, Control_c, 0, 64, 31
1, 666993, Control_c, 0, 64, 0
1, 667040, Note_on_c, 0, 81, 56
1, 667040, Note_off_c, 0, 79, 62
1, 667179, Note_off_c, 0, 81, 57
1, 667508, Note_on_c, 0, 74, 52
1, 667522, Note_on_c, 0, 58, 33
1, 667524, Note_on_c, 0, 62, 34
1, 667528, Note_on_c, 0, 65, 24
1, 667565, Note_off_c, 0, 65, 53
1, 667568, Note_off_c, 0, 62, 53
1, 667569, Note_off_c, 0, 58, 55
1, 667577, Note_on_c, 0, 76, 51
1, 667585, Note_off_c, 0, 74, 49
1, 667633, Note_off_c, 0, 76, 56
1, 667646, Note_on_c, 0, 77, 51
1, 667786, Control_c, 0, 67, 22
1, 667801, Control_c, 0, 67, 28
1, 667803, Note_off_c, 0, 77, 59
1, 667816, Control_c, 0, 67, 35
1, 667831, Control_c, 0, 67, 46
1, 667845, Control_c, 0, 67, 60
1, 667860, Control_c, 0, 67, 71
1, 667875, Control_c, 0, 67, 79
1, 667890, Control_c, 0, 67, 81
1, 668001, Control_c, 0, 67, 80
1, 668016, Control_c, 0, 67, 79
1, 668030, Control_c, 0, 67, 79
1, 668060, Control_c, 0, 67, 78
1, 668090, Control_c, 0, 67, 78
1, 668120, Control_c, 0, 67, 77
1, 668179, Control_c, 0, 67, 76
1, 668238, Control_c, 0, 67, 76
1, 668312, Control_c, 0, 67, 75
1, 668360, Note_on_c, 0, 65, 45
1, 668365, Note_on_c, 0, 60, 32
1, 668378, Note_on_c, 0, 48, 28
1, 668386, Control_c, 0, 67, 75
1, 668395, Note_on_c, 0, 57, 18
1, 668416, Control_c, 0, 67, 74
1, 668489, Control_c, 0, 67, 74
1, 668519, Control_c, 0, 67, 73
1, 668550, Control_c, 0, 64, 32
1, 668550, Control_c, 0, 67, 73
1, 668565, Control_c, 0, 64, 38
1, 668565, Control_c, 0, 67, 72
1, 668579, Control_c, 0, 64, 44
1, 668594, Control_c, 0, 64, 49
1, 668609, Control_c, 0, 64, 52
1, 668624, Control_c, 0, 64, 55
1, 668639, Control_c, 0, 64, 59
1, 668653, Control_c, 0, 64, 62
1, 668668, Control_c, 0, 64, 65
1, 668668, Control_c, 0, 67, 72
1, 668683, Control_c, 0, 64, 68
1, 668705, Control_c, 0, 64, 72
1, 668720, Control_c, 0, 64, 78
1, 668731, Note_off_c, 0, 65, 63
1, 668735, Control_c, 0, 64, 85
1, 668750, Control_c, 0, 64, 93
1, 668765, Control_c, 0, 64, 98
1, 668779, Control_c, 0, 64, 102
1, 668823, Note_off_c, 0, 57, 42
1, 668853, Control_c, 0, 64, 104
1, 668972, Control_c, 0, 64, 101
1, 668987, Control_c, 0, 64, 97
1, 669002, Control_c, 0, 64, 92
1, 669017, Control_c, 0, 64, 87
1, 669024, Note_on_c, 0, 69, 46
1, 669029, Note_on_c, 0, 58, 38
1, 669031, Control_c, 0, 64, 84
1, 669037, Note_on_c, 0, 64, 39
1, 669046, Control_c, 0, 64, 80
1, 669061, Control_c, 0, 64, 74
1, 669076, Control_c, 0, 64, 67
1, 669085, Note_off_c, 0, 60, 39
1, 669091, Control_c, 0, 64, 59
1, 669105, Control_c, 0, 64, 47
1, 669120, Control_c, 0, 64, 37
1, 669135, Control_c, 0, 64, 33
1, 669142, Note_on_c, 0, 67, 48
1, 669150, Control_c, 0, 64, 29
1, 669165, Control_c, 0, 64, 0
1, 669179, Control_c, 0, 67, 72
1, 669190, Note_off_c, 0, 69, 39
1, 669238, Control_c, 0, 67, 73
1, 669268, Control_c, 0, 67, 73
1, 669374, Control_c, 0, 64, 33
1, 669389, Control_c, 0, 64, 40
1, 669403, Control_c, 0, 64, 50
1, 669418, Control_c, 0, 64, 58
1, 669433, Control_c, 0, 64, 63
1, 669439, Note_off_c, 0, 48, 38
1, 669455, Control_c, 0, 64, 65
1, 669470, Control_c, 0, 64, 68
1, 669485, Control_c, 0, 64, 71
1, 669500, Control_c, 0, 64, 76
1, 669515, Control_c, 0, 64, 81
1, 669526, Note_off_c, 0, 67, 28
1, 669529, Control_c, 0, 64, 85
1, 669541, Note_off_c, 0, 64, 37
1, 669544, Control_c, 0, 64, 89
1, 669546, Note_on_c, 0, 65, 50
1, 669559, Control_c, 0, 64, 92
1, 669561, Note_off_c, 0, 58, 53
1, 669574, Control_c, 0, 64, 92
1, 669601, Note_off_c, 0, 65, 58
1, 669736, Control_c, 0, 64, 91
1, 669751, Control_c, 0, 64, 90
1, 669766, Control_c, 0, 64, 88
1, 669781, Control_c, 0, 64, 86
1, 669794, Note_on_c, 0, 53, 33
1, 669796, Control_c, 0, 64, 84
1, 669798, Note_on_c, 0, 65, 54
1, 669810, Control_c, 0, 64, 81
1, 669825, Control_c, 0, 64, 78
1, 669840, Control_c, 0, 64, 74
1, 669855, Control_c, 0, 64, 69
1, 669869, Control_c, 0, 64, 65
1, 669884, Control_c, 0, 64, 60
1, 669899, Control_c, 0, 64, 54
1, 669914, Control_c, 0, 64, 49
1, 669929, Control_c, 0, 64, 47
1, 669944, Control_c, 0, 64, 47
1, 669974, Control_c, 0, 64, 47
1, 669974, Control_c, 0, 67, 74
1, 669989, Control_c, 0, 64, 45
1, 669993, Note_on_c, 0, 57, 37
1, 670003, Control_c, 0, 64, 43
1, 670003, Control_c, 0, 67, 75
1, 670018, Control_c, 0, 64, 40
1, 670048, Control_c, 0, 67, 75
1, 670077, Control_c, 0, 64, 41
1, 670092, Control_c, 0, 64, 43
1, 670092, Control_c, 0, 67, 76
1, 670107, Control_c, 0, 64, 46
1, 670107, Control_c, 0, 67, 76
1, 670122, Control_c, 0, 64, 50
1, 670122, Control_c, 0, 67, 77
1, 670137, Control_c, 0, 64, 53
1, 670151, Control_c, 0, 67, 77
1, 670174, Note_on_c, 0, 69, 58
1, 670181, Control_c, 0, 64, 53
1, 670200, Note_on_c, 0, 60, 30
1, 670203, Control_c, 0, 64, 54
1, 670218, Control_c, 0, 64, 56
1, 670218, Control_c, 0, 67, 78
1, 670233, Control_c, 0, 64, 58
1, 670244, Note_off_c, 0, 57, 44
1, 670255, Note_off_c, 0, 53, 42
1, 670266, Note_off_c, 0, 65, 60
1, 670277, Control_c, 0, 64, 57
1, 670322, Control_c, 0, 64, 57
1, 670337, Control_c, 0, 64, 56
1, 670351, Control_c, 0, 64, 56
1, 670412, Note_on_c, 0, 72, 60
1, 670434, Note_on_c, 0, 53, 12
1, 670440, Control_c, 0, 64, 55
1, 670443, Note_on_c, 0, 64, 32
1, 670444, Note_off_c, 0, 69, 56
1, 670455, Control_c, 0, 64, 53
1, 670470, Control_c, 0, 64, 46
1, 670473, Note_off_c, 0, 60, 41
1, 670484, Control_c, 0, 64, 0
1, 670596, Note_on_c, 0, 70, 64
1, 670618, Control_c, 0, 64, 39
1, 670618, Control_c, 0, 67, 77
1, 670618, Note_on_c, 0, 55, 40
1, 670633, Control_c, 0, 64, 52
1, 670633, Control_c, 0, 67, 77
1, 670648, Control_c, 0, 64, 57
1, 670662, Control_c, 0, 64, 58
1, 670662, Control_c, 0, 67, 76
1, 670677, Control_c, 0, 64, 59
1, 670692, Control_c, 0, 64, 59
1, 670692, Control_c, 0, 67, 76
1, 670702, Note_off_c, 0, 64, 36
1, 670707, Control_c, 0, 64, 61
1, 670722, Control_c, 0, 64, 62
1, 670737, Control_c, 0, 64, 63
1, 670737, Control_c, 0, 67, 75
1, 670751, Control_c, 0, 64, 63
1, 670754, Note_on_c, 0, 67, 64
1, 670767, Note_off_c, 0, 53, 40
1, 670771, Note_on_c, 0, 58, 45
1, 670795, Note_off_c, 0, 72, 36
1, 670798, Note_off_c, 0, 55, 39
1, 670820, Note_off_c, 0, 70, 61
1, 670854, Note_off_c, 0, 58, 53
1, 670869, Control_c, 0, 64, 63
1, 670884, Control_c, 0, 64, 61
1, 670899, Control_c, 0, 64, 59
1, 670914, Control_c, 0, 64, 55
1, 670924, Note_on_c, 0, 65, 65
1, 670930, Control_c, 0, 64, 52
1, 670952, Note_on_c, 0, 53, 37
1, 670952, Control_c, 0, 64, 51
1, 670996, Control_c, 0, 64, 52
1, 670999, Note_off_c, 0, 67, 53
1, 671011, Control_c, 0, 64, 53
1, 671026, Control_c, 0, 64, 55
1, 671041, Control_c, 0, 64, 58
1, 671056, Control_c, 0, 64, 60
1, 671071, Control_c, 0, 64, 62
1, 671086, Control_c, 0, 64, 63
1, 671094, Note_on_c, 0, 60, 61
1, 671096, Note_on_c, 0, 57, 48
1, 671100, Control_c, 0, 64, 65
1, 671115, Control_c, 0, 64, 67
1, 671120, Note_off_c, 0, 65, 61
1, 671130, Control_c, 0, 64, 69
1, 671145, Control_c, 0, 64, 70
1, 671159, Note_off_c, 0, 60, 64
1, 671160, Control_c, 0, 64, 72
1, 671174, Control_c, 0, 64, 72
1, 671227, Note_off_c, 0, 53, 37
1, 671250, Note_on_c, 0, 69, 58
1, 671252, Note_on_c, 0, 60, 38
1, 671258, Note_off_c, 0, 57, 34
1, 671352, Control_c, 0, 64, 72
1, 671367, Control_c, 0, 64, 71
1, 671381, Control_c, 0, 64, 70
1, 671396, Control_c, 0, 64, 68
1, 671411, Control_c, 0, 64, 67
1, 671411, Control_c, 0, 67, 76
1, 671426, Control_c, 0, 64, 66
1, 671428, Note_off_c, 0, 69, 58
1, 671429, Note_off_c, 0, 60, 34
1, 671438, Note_on_c, 0, 72, 51
1, 671440, Control_c, 0, 64, 62
1, 671450, Note_on_c, 0, 64, 42
1, 671454, Note_on_c, 0, 53, 36
1, 671455, Control_c, 0, 64, 56
1, 671470, Control_c, 0, 64, 45
1, 671485, Control_c, 0, 64, 33
1, 671500, Control_c, 0, 64, 0
1, 671560, Control_c, 0, 64, 33
1, 671574, Control_c, 0, 64, 39
1, 671589, Control_c, 0, 64, 45
1, 671604, Control_c, 0, 64, 51
1, 671604, Control_c, 0, 67, 76
1, 671614, Note_on_c, 0, 70, 54
1, 671619, Control_c, 0, 64, 55
1, 671632, Note_on_c, 0, 55, 39
1, 671634, Control_c, 0, 64, 58
1, 671649, Control_c, 0, 64, 60
1, 671664, Control_c, 0, 64, 61
1, 671679, Control_c, 0, 64, 63
1, 671700, Control_c, 0, 64, 64
1, 671715, Control_c, 0, 64, 65
1, 671731, Control_c, 0, 64, 66
1, 671752, Note_off_c, 0, 72, 24
1, 671759, Note_off_c, 0, 53, 32
1, 671777, Note_on_c, 0, 67, 59
1, 671786, Note_on_c, 0, 58, 49
1, 671795, Note_off_c, 0, 64, 40
1, 671804, Note_off_c, 0, 55, 35
1, 671822, Note_off_c, 0, 70, 56
1, 671849, Note_off_c, 0, 58, 60
1, 671909, Control_c, 0, 64, 65
1, 671923, Control_c, 0, 64, 64
1, 671938, Control_c, 0, 64, 61
1, 671953, Control_c, 0, 64, 56
1, 671965, Note_on_c, 0, 65, 56
1, 671968, Control_c, 0, 64, 50
1, 671970, Note_on_c, 0, 53, 40
1, 671983, Control_c, 0, 64, 44
1, 671992, Note_off_c, 0, 67, 56
1, 671998, Control_c, 0, 64, 39
1, 672013, Control_c, 0, 64, 36
1, 672028, Control_c, 0, 64, 36
1, 672043, Control_c, 0, 64, 38
1, 672057, Control_c, 0, 64, 41
1, 672072, Control_c, 0, 64, 46
1, 672072, Control_c, 0, 67, 77
1, 672087, Control_c, 0, 64, 51
1, 672087, Control_c, 0, 67, 78
1, 672102, Control_c, 0, 64, 54
1, 672117, Control_c, 0, 64, 57
1, 672117, Control_c, 0, 67, 78
1, 672131, Control_c, 0, 64, 60
1, 672131, Control_c, 0, 67, 79
1, 672132, Note_off_c, 0, 65, 60
1, 672146, Control_c, 0, 64, 62
1, 672150, Note_on_c, 0, 57, 41
1, 672152, Note_on_c, 0, 60, 49
1, 672161, Control_c, 0, 64, 64
1, 672161, Control_c, 0, 67, 79
1, 672176, Control_c, 0, 64, 65
1, 672176, Control_c, 0, 67, 80
1, 672191, Control_c, 0, 64, 66
1, 672195, Note_off_c, 0, 60, 63
1, 672205, Control_c, 0, 64, 67
1, 672205, Control_c, 0, 67, 80
1, 672220, Control_c, 0, 64, 68
1, 672220, Control_c, 0, 67, 81
1, 672235, Control_c, 0, 64, 69
1, 672244, Note_off_c, 0, 53, 34
1, 672309, Note_on_c, 0, 60, 41
1, 672311, Note_off_c, 0, 57, 35
1, 672320, Note_on_c, 0, 69, 50
1, 672366, Control_c, 0, 67, 80
1, 672408, Note_off_c, 0, 60, 38
1, 672426, Control_c, 0, 64, 68
1, 672426, Control_c, 0, 67, 80
1, 672463, Control_c, 0, 64, 68
1, 672493, Control_c, 0, 64, 67
1, 672508, Control_c, 0, 64, 65
1, 672523, Control_c, 0, 64, 60
1, 672529, Note_on_c, 0, 65, 44
1, 672534, Note_on_c, 0, 53, 37
1, 672538, Control_c, 0, 64, 54
1, 672552, Control_c, 0, 64, 48
1, 672566, Note_off_c, 0, 69, 44
1, 672567, Control_c, 0, 64, 45
1, 672582, Control_c, 0, 64, 44
1, 672597, Control_c, 0, 64, 45
1, 672612, Control_c, 0, 64, 47
1, 672612, Control_c, 0, 67, 80
1, 672627, Control_c, 0, 64, 50
1, 672627, Control_c, 0, 67, 81
1, 672642, Control_c, 0, 64, 52
1, 672657, Control_c, 0, 64, 54
1, 672657, Control_c, 0, 67, 81
1, 672671, Control_c, 0, 64, 55
1, 672686, Control_c, 0, 64, 56
1, 672686, Control_c, 0, 67, 82
1, 672701, Control_c, 0, 64, 56
1, 672716, Control_c, 0, 64, 54
1, 672731, Control_c, 0, 64, 50
1, 672737, Note_on_c, 0, 60, 41
1, 672743, Note_on_c, 0, 57, 28
1, 672743, Note_off_c, 0, 65, 58
1, 672746, Control_c, 0, 64, 47
1, 672746, Control_c, 0, 67, 82
1, 672775, Control_c, 0, 64, 50
1, 672775, Control_c, 0, 67, 83
1, 672790, Control_c, 0, 64, 53
1, 672804, Control_c, 0, 64, 57
1, 672819, Control_c, 0, 64, 61
1, 672827, Note_off_c, 0, 60, 60
1, 672834, Control_c, 0, 64, 64
1, 672849, Control_c, 0, 64, 66
1, 672864, Control_c, 0, 64, 68
1, 672878, Control_c, 0, 64, 69
1, 672878, Control_c, 0, 67, 82
1, 672893, Control_c, 0, 64, 70
1, 672893, Control_c, 0, 67, 82
1, 672907, Note_off_c, 0, 53, 37
1, 672908, Control_c, 0, 67, 81
1, 672923, Control_c, 0, 67, 81
1, 672927, Note_off_c, 0, 57, 41
1, 672938, Control_c, 0, 67, 80
1, 672966, Note_on_c, 0, 69, 43
1, 672967, Control_c, 0, 64, 70
1, 672972, Note_on_c, 0, 60, 37
1, 672982, Control_c, 0, 67, 79
1, 673002, Note_off_c, 0, 60, 60
1, 673011, Control_c, 0, 67, 79
1, 673019, Note_off_c, 0, 69, 61
1, 673041, Control_c, 0, 64, 71
1, 673056, Control_c, 0, 67, 78
1, 673071, Control_c, 0, 67, 78
1, 673196, Control_c, 0, 64, 70
1, 673256, Control_c, 0, 64, 70
1, 673286, Control_c, 0, 64, 69
1, 673301, Control_c, 0, 64, 69
1, 673315, Control_c, 0, 64, 68
1, 673331, Control_c, 0, 64, 68
1, 673343, Note_on_c, 0, 41, 31
1, 673345, Note_on_c, 0, 67, 48
1, 673346, Control_c, 0, 64, 67
1, 673348, Note_on_c, 0, 58, 45
1, 673361, Control_c, 0, 64, 66
1, 673364, Note_on_c, 0, 53, 20
1, 673375, Control_c, 0, 64, 65
1, 673390, Control_c, 0, 64, 63
1, 673405, Control_c, 0, 64, 60
1, 673420, Control_c, 0, 64, 55
1, 673420, Control_c, 0, 67, 77
1, 673435, Control_c, 0, 64, 53
1, 673450, Control_c, 0, 64, 52
1, 673479, Control_c, 0, 64, 53
1, 673494, Control_c, 0, 64, 54
1, 673509, Control_c, 0, 64, 56
1, 673524, Control_c, 0, 64, 58
1, 673539, Control_c, 0, 64, 60
1, 673554, Control_c, 0, 64, 62
1, 673568, Control_c, 0, 64, 63
1, 673568, Control_c, 0, 67, 78
1, 673583, Control_c, 0, 64, 65
1, 673598, Control_c, 0, 64, 66
1, 673598, Control_c, 0, 67, 78
1, 673613, Control_c, 0, 64, 68
1, 673613, Control_c, 0, 67, 79
1, 673627, Control_c, 0, 64, 70
1, 673627, Control_c, 0, 67, 80
1, 673642, Control_c, 0, 64, 72
1, 673642, Control_c, 0, 67, 81
1, 673657, Control_c, 0, 64, 74
1, 673657, Control_c, 0, 67, 82
1, 673672, Control_c, 0, 64, 76
1, 673672, Control_c, 0, 67, 82
1, 673687, Control_c, 0, 64, 78
1, 673687, Control_c, 0, 67, 83
1, 673701, Control_c, 0, 64, 81
1, 673701, Control_c, 0, 67, 84
1, 673716, Control_c, 0, 64, 84
1, 673716, Control_c, 0, 67, 84
1, 673731, Control_c, 0, 64, 86
1, 673731, Control_c, 0, 67, 86
1, 673746, Control_c, 0, 64, 88
1, 673746, Control_c, 0, 67, 92
1, 673761, Control_c, 0, 64, 89
1, 673761, Control_c, 0, 67, 96
1, 673775, Control_c, 0, 64, 90
1, 673775, Control_c, 0, 67, 100
1, 673790, Control_c, 0, 64, 91
1, 673790, Control_c, 0, 67, 104
1, 673805, Control_c, 0, 64, 92
1, 673805, Control_c, 0, 67, 109
1, 673819, Control_c, 0, 64, 94
1, 673819, Control_c, 0, 67, 114
1, 673834, Control_c, 0, 64, 94
1, 673834, Control_c, 0, 67, 121
1, 673838, Note_off_c, 0, 58, 59
1, 673849, Control_c, 0, 64, 95
1, 673849, Control_c, 0, 67, 127
1, 673976, Control_c, 0, 64, 95
1, 674227, Note_off_c, 0, 67, 50
1, 674303, Control_c, 0, 64, 95
1, 674555, Control_c, 0, 64, 94
1, 674629, Control_c, 0, 64, 94
1, 674710, Control_c, 0, 64, 93
1, 674740, Control_c, 0, 64, 93
1, 674814, Control_c, 0, 64, 92
1, 674858, Control_c, 0, 64, 92
1, 674865, Note_on_c, 0, 57, 30
1, 674871, Note_on_c, 0, 65, 39
1, 674873, Control_c, 0, 64, 91
1, 674888, Control_c, 0, 64, 90
1, 674903, Control_c, 0, 64, 89
1, 674919, Control_c, 0, 64, 88
1, 674934, Control_c, 0, 64, 86
1, 674948, Control_c, 0, 64, 85
1, 674963, Control_c, 0, 64, 84
1, 674978, Control_c, 0, 64, 82
1, 674992, Control_c, 0, 64, 80
1, 675007, Control_c, 0, 64, 78
1, 675022, Control_c, 0, 64, 75
1, 675037, Control_c, 0, 64, 72
1, 675052, Control_c, 0, 64, 71
1, 675066, Control_c, 0, 64, 69
1, 675081, Control_c, 0, 64, 67
1, 675096, Control_c, 0, 64, 66
1, 675111, Control_c, 0, 64, 64
1, 675126, Control_c, 0, 64, 63
1, 675140, Control_c, 0, 64, 62
1, 675155, Control_c, 0, 64, 60
1, 675170, Control_c, 0, 64, 60
1, 675229, Control_c, 0, 64, 60
1, 675244, Control_c, 0, 64, 61
1, 675259, Control_c, 0, 64, 61
1, 675274, Control_c, 0, 64, 62
1, 675289, Control_c, 0, 64, 63
1, 675304, Control_c, 0, 64, 64
1, 675319, Control_c, 0, 64, 64
1, 675333, Control_c, 0, 64, 65
1, 675348, Control_c, 0, 64, 66
1, 675378, Control_c, 0, 64, 67
1, 675392, Control_c, 0, 64, 67
1, 675407, Control_c, 0, 64, 68
1, 675422, Control_c, 0, 64, 68
1, 675444, Control_c, 0, 64, 69
1, 675474, Control_c, 0, 64, 69
1, 675488, Control_c, 0, 64, 70
1, 675488, Control_c, 0, 67, 117
1, 675503, Control_c, 0, 64, 70
1, 675503, Control_c, 0, 67, 104
1, 675512, Note_off_c, 0, 57, 34
1, 675518, Control_c, 0, 67, 91
1, 675533, Control_c, 0, 67, 80
1, 675534, Note_off_c, 0, 41, 38
1, 675543, Note_off_c, 0, 65, 37
1, 675546, Note_off_c, 0, 53, 37
1, 675548, Control_c, 0, 67, 70
1, 675563, Control_c, 0, 64, 71
1, 675563, Control_c, 0, 67, 64
1, 675578, Control_c, 0, 67, 58
1, 675592, Control_c, 0, 67, 53
1, 675607, Control_c, 0, 67, 49
1, 675622, Control_c, 0, 67, 45
1, 675637, Control_c, 0, 67, 40
1, 675652, Control_c, 0, 67, 35
1, 675667, Control_c, 0, 67, 30
1, 675681, Control_c, 0, 67, 26
1, 675696, Control_c, 0, 67, 23
1, 675711, Control_c, 0, 64, 70
1, 675711, Control_c, 0, 67, 20
1, 675727, Control_c, 0, 64, 69
1, 675727, Control_c, 0, 67, 0
1, 675742, Control_c, 0, 64, 68
1, 675757, Control_c, 0, 64, 67
1, 675771, Control_c, 0, 64, 66
1, 675786, Control_c, 0, 64, 65
1, 675801, Control_c, 0, 64, 64
1, 675815, Control_c, 0, 64, 62
1, 675830, Control_c, 0, 64, 60
1, 675845, Control_c, 0, 64, 59
1, 675860, Control_c, 0, 64, 58
1, 675875, Control_c, 0, 64, 56
1, 675889, Control_c, 0, 64, 55
1, 675904, Control_c, 0, 64, 54
1, 675919, Control_c, 0, 64, 52
1, 675934, Control_c, 0, 64, 51
1, 675949, Control_c, 0, 64, 50
1, 675963, Control_c, 0, 64, 49
1, 675978, Control_c, 0, 64, 48
1, 675993, Control_c, 0, 64, 47
1, 676008, Control_c, 0, 64, 46
1, 676022, Control_c, 0, 64, 46
1, 676037, Control_c, 0, 64, 45
1, 676052, Control_c, 0, 64, 44
1, 676067, Control_c, 0, 64, 43
1, 676082, Control_c, 0, 64, 43
1, 676097, Control_c, 0, 64, 42
1, 676919, Control_c, 0, 64, 43
1, 677060, Control_c, 0, 64, 43
1, 677134, Control_c, 0, 64, 44
1, 677179, Control_c, 0, 64, 44
1, 677208, Control_c, 0, 64, 45
1, 677238, Control_c, 0, 64, 45
1, 677297, Control_c, 0, 64, 46
1, 677343, Control_c, 0, 64, 46
1, 677358, Control_c, 0, 64, 47
1, 677387, Control_c, 0, 64, 47
1, 677417, Control_c, 0, 64, 48
1, 677491, Control_c, 0, 64, 48
1, 677550, Control_c, 0, 64, 49
1, 677594, Control_c, 0, 64, 49
1, 677609, Control_c, 0, 64, 50
1, 677624, Control_c, 0, 64, 50
1, 677639, Control_c, 0, 64, 51
1, 677691, Control_c, 0, 64, 51
1, 677706, Control_c, 0, 64, 52
1, 677735, Control_c, 0, 64, 53
1, 677765, Control_c, 0, 64, 53
1, 677780, Control_c, 0, 64, 52
1, 677824, Control_c, 0, 64, 52
1, 677854, Control_c, 0, 64, 51
1, 677868, Control_c, 0, 64, 48
1, 677883, Control_c, 0, 64, 42
1, 677898, Control_c, 0, 64, 0
1, 677898, End_track
0, 0, End_of_file
