0, 0, Header, 0, 1, 384
1, 0, Start_track
1, 0, Title_t, "Suite Op. 10--Bogdan-C. Dulu    "
1, 0, Text_t, "2006 International Piano-e-Competition Recital Round"
1, 0, Text_t, "St. Paul, Minnesota, July 2006"
1, 0, Text_t, "http://www.piano-e-competition.com/"
1, 0, Instrument_name_t, "Yamaha Disklavier Pro Mark IV concert grand piano"
1, 0, Sequencer_specific, 39, 67, 113, 0, 1, 0, 1, 0, 83, 117, 105, 116, 101, 32, 79, 112, 46, 32, 49, 48, 32, 32, 32, 32, 66, 46, 45, 67, 46, 32, 68, 117, 108, 117, 32, 32, 32, 32, 32, 32
1, 0, Sequencer_specific, 6, 67, 113, 0, 0, 0, 69
1, 0, System_exclusive, 21, 67, 113, 126, 21, 0, 2, 2, 0, 10, 10, 12, 4, 4, 10, 13, 5, 11, 8, 6, 3, 247
1, 0, Sequencer_specific, 5, 67, 123, 12, 2, 1
1, 0, Tempo, 512820
1, 0, Time_signature, 4, 2, 24, 8
1, 0, System_exclusive, 5, 126, 127, 9, 1, 247
1, 1, System_exclusive, 8, 67, 16, 76, 0, 0, 126, 0, 247
1, 2, System_exclusive, 8, 67, 16, 76, 8, 9, 7, 1, 247
1, 3, Control_c, 0, 0, 0
1, 4, Control_c, 0, 32, 0
1, 5, Program_c, 0, 0
1, 6, Control_c, 0, 7, 100
1, 903, Control_c, 0, 64, 39
1, 904, Note_on_c, 0, 26, 91
1, 905, Note_on_c, 0, 38, 102
1, 917, Control_c, 0, 64, 127
1, 956, Note_off_c, 0, 26, 63
1, 973, Note_off_c, 0, 38, 65
1, 1310, Note_on_c, 0, 74, 92
1, 1310, Note_on_c, 0, 76, 89
1, 1310, Note_on_c, 0, 81, 94
1, 1311, Note_on_c, 0, 78, 86
1, 1501, Note_on_c, 0, 73, 91
1, 1593, Note_off_c, 0, 81, 58
1, 1602, Note_off_c, 0, 74, 57
1, 1617, Note_off_c, 0, 76, 58
1, 1643, Note_off_c, 0, 73, 63
1, 1651, Note_off_c, 0, 78, 61
1, 1653, Note_on_c, 0, 71, 84
1, 1773, Note_on_c, 0, 69, 89
1, 1785, Note_off_c, 0, 71, 58
1, 1885, Note_on_c, 0, 71, 90
1, 1886, Note_on_c, 0, 74, 88
1, 1898, Note_on_c, 0, 67, 76
1, 2007, Note_off_c, 0, 67, 63
1, 2019, Note_on_c, 0, 66, 79
1, 2088, Note_off_c, 0, 69, 55
1, 2105, Note_off_c, 0, 66, 60
1, 2113, Note_off_c, 0, 71, 56
1, 2118, Note_off_c, 0, 74, 58
1, 2130, Note_on_c, 0, 64, 82
1, 2245, Note_on_c, 0, 62, 81
1, 2255, Note_off_c, 0, 64, 58
1, 2355, Note_on_c, 0, 64, 85
1, 2358, Note_on_c, 0, 67, 81
1, 2365, Note_on_c, 0, 61, 79
1, 2468, Note_off_c, 0, 61, 58
1, 2481, Note_on_c, 0, 59, 80
1, 2500, Note_off_c, 0, 62, 54
1, 2517, Note_off_c, 0, 64, 56
1, 2527, Note_off_c, 0, 67, 58
1, 2605, Note_on_c, 0, 57, 85
1, 2617, Note_off_c, 0, 59, 58
1, 2723, Note_off_c, 0, 57, 61
1, 2729, Note_on_c, 0, 55, 81
1, 2859, Note_off_c, 0, 55, 0
1, 2871, Note_on_c, 0, 57, 87
1, 2873, Note_on_c, 0, 55, 54
1, 2873, Note_on_c, 0, 61, 83
1, 2876, Note_on_c, 0, 54, 78
1, 2910, Note_off_c, 0, 55, 62
1, 2914, Note_off_c, 0, 57, 63
1, 2916, Note_off_c, 0, 61, 65
1, 2938, Note_off_c, 0, 54, 62
1, 3025, Note_on_c, 0, 52, 84
1, 3110, Note_off_c, 0, 52, 58
1, 3238, Control_c, 0, 64, 93
1, 3253, Control_c, 0, 64, 60
1, 3261, Note_on_c, 0, 45, 90
1, 3262, Note_on_c, 0, 38, 88
1, 3268, Control_c, 0, 64, 0
1, 3342, Control_c, 0, 64, 63
1, 3357, Control_c, 0, 64, 119
1, 3369, Note_off_c, 0, 38, 64
1, 3372, Control_c, 0, 64, 127
1, 3375, Note_off_c, 0, 45, 64
1, 3710, Note_on_c, 0, 90, 90
1, 3724, Note_on_c, 0, 78, 66
1, 3852, Note_off_c, 0, 78, 59
1, 3885, Note_on_c, 0, 81, 64
1, 3896, Note_on_c, 0, 91, 92
1, 3927, Note_off_c, 0, 90, 61
1, 3986, Note_off_c, 0, 81, 52
1, 4000, Note_on_c, 0, 78, 58
1, 4008, Note_on_c, 0, 90, 91
1, 4060, Note_off_c, 0, 91, 59
1, 4085, Note_off_c, 0, 78, 56
1, 4106, Note_on_c, 0, 76, 62
1, 4111, Note_on_c, 0, 88, 89
1, 4124, Note_off_c, 0, 90, 64
1, 4165, Note_off_c, 0, 76, 63
1, 4202, Note_on_c, 0, 79, 65
1, 4207, Note_on_c, 0, 90, 85
1, 4217, Note_off_c, 0, 88, 63
1, 4255, Note_off_c, 0, 79, 60
1, 4291, Note_on_c, 0, 88, 84
1, 4294, Note_on_c, 0, 76, 67
1, 4337, Note_off_c, 0, 90, 59
1, 4349, Note_off_c, 0, 76, 60
1, 4371, Note_on_c, 0, 86, 84
1, 4372, Note_off_c, 0, 88, 65
1, 4375, Note_on_c, 0, 74, 62
1, 4416, Note_off_c, 0, 74, 61
1, 4456, Note_on_c, 0, 78, 58
1, 4458, Note_off_c, 0, 86, 61
1, 4459, Note_on_c, 0, 88, 88
1, 4508, Note_off_c, 0, 78, 55
1, 4517, Note_off_c, 0, 88, 65
1, 4530, Note_on_c, 0, 86, 79
1, 4533, Note_on_c, 0, 74, 64
1, 4580, Note_off_c, 0, 74, 56
1, 4602, Note_on_c, 0, 85, 83
1, 4605, Note_on_c, 0, 73, 62
1, 4611, Note_off_c, 0, 86, 59
1, 4660, Note_off_c, 0, 73, 59
1, 4673, Note_off_c, 0, 85, 65
1, 4678, Note_on_c, 0, 86, 71
1, 4696, Note_on_c, 0, 76, 56
1, 4743, Note_off_c, 0, 76, 57
1, 4747, Note_on_c, 0, 85, 81
1, 4766, Note_on_c, 0, 73, 53
1, 4782, Note_off_c, 0, 86, 61
1, 4799, Note_off_c, 0, 73, 64
1, 4821, Note_off_c, 0, 85, 66
1, 4821, Note_on_c, 0, 83, 72
1, 4830, Note_on_c, 0, 71, 53
1, 4867, Note_off_c, 0, 71, 65
1, 4887, Note_off_c, 0, 83, 64
1, 4900, Note_on_c, 0, 85, 83
1, 4911, Note_on_c, 0, 74, 54
1, 4946, Note_off_c, 0, 74, 63
1, 4970, Note_on_c, 0, 83, 77
1, 4979, Note_on_c, 0, 71, 61
1, 5019, Note_off_c, 0, 85, 60
1, 5027, Note_off_c, 0, 71, 63
1, 5043, Note_off_c, 0, 83, 65
1, 5053, Note_on_c, 0, 81, 75
1, 5055, Note_on_c, 0, 69, 58
1, 5092, Note_off_c, 0, 69, 62
1, 5128, Note_off_c, 0, 81, 62
1, 5134, Note_on_c, 0, 83, 76
1, 5137, Note_on_c, 0, 73, 60
1, 5169, Note_off_c, 0, 73, 62
1, 5206, Note_on_c, 0, 81, 72
1, 5214, Note_on_c, 0, 69, 58
1, 5250, Note_off_c, 0, 83, 61
1, 5265, Note_off_c, 0, 69, 58
1, 5275, Note_off_c, 0, 81, 64
1, 5277, Note_on_c, 0, 67, 54
1, 5283, Note_on_c, 0, 79, 76
1, 5323, Note_off_c, 0, 67, 50
1, 5361, Note_off_c, 0, 79, 64
1, 5364, Note_on_c, 0, 71, 63
1, 5372, Note_on_c, 0, 81, 79
1, 5436, Note_off_c, 0, 71, 56
1, 5441, Note_on_c, 0, 67, 61
1, 5446, Note_off_c, 0, 81, 61
1, 5460, Note_on_c, 0, 79, 76
1, 5499, Control_c, 0, 64, 118
1, 5514, Control_c, 0, 64, 112
1, 5529, Control_c, 0, 64, 104
1, 5544, Control_c, 0, 64, 86
1, 5559, Control_c, 0, 64, 65
1, 5572, Note_on_c, 0, 66, 55
1, 5573, Control_c, 0, 64, 0
1, 5576, Note_on_c, 0, 78, 73
1, 5577, Note_off_c, 0, 67, 57
1, 5596, Note_off_c, 0, 79, 57
1, 5678, Control_c, 0, 64, 50
1, 5693, Control_c, 0, 64, 61
1, 5707, Control_c, 0, 64, 65
1, 5722, Control_c, 0, 64, 66
1, 5737, Control_c, 0, 64, 66
1, 5759, Control_c, 0, 64, 67
1, 5774, Control_c, 0, 64, 67
1, 5783, Note_off_c, 0, 66, 55
1, 5789, Control_c, 0, 64, 68
1, 5790, Note_on_c, 0, 69, 53
1, 5793, Note_on_c, 0, 76, 79
1, 5804, Control_c, 0, 64, 69
1, 5819, Control_c, 0, 64, 70
1, 5833, Control_c, 0, 64, 71
1, 5848, Control_c, 0, 64, 72
1, 5849, Note_off_c, 0, 78, 55
1, 5863, Control_c, 0, 64, 73
1, 5878, Control_c, 0, 64, 74
1, 5907, Control_c, 0, 64, 74
1, 5937, Control_c, 0, 64, 75
1, 5939, Note_on_c, 0, 64, 66
1, 5954, Note_on_c, 0, 74, 62
1, 5963, Note_off_c, 0, 69, 34
1, 5964, Note_off_c, 0, 76, 53
1, 5966, Control_c, 0, 64, 75
1, 5996, Control_c, 0, 64, 76
1, 6011, Control_c, 0, 64, 76
1, 6070, Control_c, 0, 64, 75
1, 6079, Note_on_c, 0, 76, 83
1, 6082, Note_on_c, 0, 67, 73
1, 6085, Control_c, 0, 64, 71
1, 6100, Control_c, 0, 64, 64
1, 6104, Note_off_c, 0, 74, 60
1, 6113, Note_off_c, 0, 64, 55
1, 6115, Control_c, 0, 64, 58
1, 6130, Control_c, 0, 64, 50
1, 6144, Control_c, 0, 64, 44
1, 6159, Control_c, 0, 64, 43
1, 6174, Control_c, 0, 64, 45
1, 6189, Control_c, 0, 64, 48
1, 6204, Control_c, 0, 64, 55
1, 6214, Note_on_c, 0, 78, 84
1, 6218, Note_on_c, 0, 66, 78
1, 6219, Control_c, 0, 64, 60
1, 6232, Note_off_c, 0, 67, 61
1, 6233, Control_c, 0, 64, 65
1, 6238, Note_off_c, 0, 76, 62
1, 6248, Control_c, 0, 64, 69
1, 6263, Control_c, 0, 64, 73
1, 6279, Control_c, 0, 64, 77
1, 6294, Control_c, 0, 64, 80
1, 6309, Control_c, 0, 64, 84
1, 6323, Control_c, 0, 64, 86
1, 6338, Control_c, 0, 64, 88
1, 6344, Note_off_c, 0, 78, 63
1, 6345, Note_on_c, 0, 69, 70
1, 6350, Note_on_c, 0, 79, 88
1, 6353, Control_c, 0, 64, 90
1, 6356, Note_off_c, 0, 66, 53
1, 6368, Control_c, 0, 64, 93
1, 6382, Control_c, 0, 64, 95
1, 6397, Control_c, 0, 64, 99
1, 6412, Control_c, 0, 64, 102
1, 6427, Control_c, 0, 64, 105
1, 6434, Note_off_c, 0, 69, 58
1, 6442, Control_c, 0, 64, 107
1, 6471, Control_c, 0, 64, 110
1, 6478, Note_on_c, 0, 67, 73
1, 6482, Note_off_c, 0, 79, 55
1, 6484, Note_on_c, 0, 81, 93
1, 6523, Control_c, 0, 64, 112
1, 6566, Note_off_c, 0, 67, 64
1, 6601, Note_on_c, 0, 71, 65
1, 6619, Note_off_c, 0, 71, 67
1, 6621, Note_on_c, 0, 83, 87
1, 6633, Note_off_c, 0, 81, 48
1, 6720, Note_off_c, 0, 83, 59
1, 6745, Control_c, 0, 64, 105
1, 6760, Control_c, 0, 64, 86
1, 6774, Control_c, 0, 64, 68
1, 6789, Control_c, 0, 64, 51
1, 6794, Note_on_c, 0, 38, 93
1, 6801, Note_on_c, 0, 45, 81
1, 6801, Note_on_c, 0, 72, 88
1, 6803, Note_on_c, 0, 84, 90
1, 6804, Note_on_c, 0, 78, 80
1, 6804, Control_c, 0, 64, 0
1, 6824, Note_off_c, 0, 45, 68
1, 6839, Note_off_c, 0, 38, 65
1, 6848, Control_c, 0, 64, 54
1, 6863, Control_c, 0, 64, 68
1, 6878, Control_c, 0, 64, 81
1, 6893, Control_c, 0, 64, 112
1, 6908, Control_c, 0, 64, 127
1, 6920, Note_off_c, 0, 84, 58
1, 6985, Note_off_c, 0, 78, 37
1, 7012, Note_on_c, 0, 76, 87
1, 7048, Note_off_c, 0, 72, 52
1, 7079, Note_off_c, 0, 76, 63
1, 7137, Note_on_c, 0, 60, 82
1, 7140, Note_on_c, 0, 54, 79
1, 7143, Note_on_c, 0, 72, 79
1, 7150, Note_on_c, 0, 81, 83
1, 7152, Note_on_c, 0, 84, 82
1, 7216, Note_off_c, 0, 72, 58
1, 7227, Note_off_c, 0, 84, 53
1, 7240, Note_off_c, 0, 81, 59
1, 7274, Note_on_c, 0, 76, 89
1, 7349, Note_off_c, 0, 76, 63
1, 7410, Note_on_c, 0, 78, 86
1, 7412, Note_off_c, 0, 54, 57
1, 7413, Note_on_c, 0, 72, 80
1, 7414, Note_on_c, 0, 84, 86
1, 7415, Note_on_c, 0, 64, 83
1, 7429, Note_off_c, 0, 60, 63
1, 7457, Note_off_c, 0, 84, 60
1, 7461, Note_off_c, 0, 78, 62
1, 7465, Note_off_c, 0, 72, 62
1, 7677, Note_on_c, 0, 61, 74
1, 7679, Note_on_c, 0, 55, 76
1, 7684, Note_off_c, 0, 64, 60
1, 7689, Note_on_c, 0, 71, 79
1, 7689, Note_on_c, 0, 76, 87
1, 7705, Note_off_c, 0, 61, 66
1, 7720, Note_off_c, 0, 55, 62
1, 7760, Control_c, 0, 64, 120
1, 7775, Control_c, 0, 64, 92
1, 7790, Control_c, 0, 64, 70
1, 7804, Control_c, 0, 64, 48
1, 7819, Note_on_c, 0, 83, 81
1, 7819, Control_c, 0, 64, 0
1, 7821, Note_on_c, 0, 79, 81
1, 7840, Note_off_c, 0, 76, 61
1, 7856, Note_off_c, 0, 71, 61
1, 7875, Note_off_c, 0, 79, 64
1, 7878, Note_off_c, 0, 83, 64
1, 7969, Note_on_c, 0, 45, 84
1, 7969, Note_on_c, 0, 38, 79
1, 7977, Note_on_c, 0, 84, 92
1, 7979, Note_on_c, 0, 78, 80
1, 7981, Note_on_c, 0, 72, 85
1, 8006, Control_c, 0, 64, 87
1, 8011, Note_off_c, 0, 38, 67
1, 8016, Note_off_c, 0, 45, 63
1, 8021, Control_c, 0, 64, 127
1, 8145, Note_off_c, 0, 84, 56
1, 8152, Note_on_c, 0, 76, 82
1, 8184, Note_off_c, 0, 72, 55
1, 8190, Note_off_c, 0, 78, 57
1, 8207, Note_off_c, 0, 76, 63
1, 8273, Note_on_c, 0, 60, 84
1, 8281, Note_on_c, 0, 54, 73
1, 8287, Note_on_c, 0, 72, 78
1, 8289, Note_on_c, 0, 84, 78
1, 8294, Note_on_c, 0, 81, 76
1, 8364, Note_off_c, 0, 81, 57
1, 8391, Note_off_c, 0, 84, 50
1, 8398, Note_on_c, 0, 76, 88
1, 8463, Note_off_c, 0, 72, 21
1, 8476, Note_off_c, 0, 76, 61
1, 8535, Note_on_c, 0, 64, 76
1, 8535, Note_on_c, 0, 78, 80
1, 8538, Note_on_c, 0, 84, 81
1, 8544, Note_on_c, 0, 72, 73
1, 8565, Note_off_c, 0, 60, 58
1, 8580, Note_off_c, 0, 72, 59
1, 8586, Note_off_c, 0, 84, 61
1, 8589, Note_off_c, 0, 78, 62
1, 8596, Note_off_c, 0, 54, 48
1, 8658, Control_c, 0, 64, 117
1, 8673, Control_c, 0, 64, 104
1, 8688, Control_c, 0, 64, 90
1, 8703, Control_c, 0, 64, 75
1, 8717, Control_c, 0, 64, 60
1, 8732, Control_c, 0, 64, 0
1, 8817, Note_on_c, 0, 55, 66
1, 8819, Note_on_c, 0, 61, 58
1, 8827, Note_on_c, 0, 76, 75
1, 8830, Note_on_c, 0, 71, 66
1, 8858, Control_c, 0, 64, 38
1, 8873, Control_c, 0, 64, 53
1, 8878, Note_off_c, 0, 61, 57
1, 8888, Control_c, 0, 64, 60
1, 8890, Note_off_c, 0, 55, 60
1, 8903, Control_c, 0, 64, 67
1, 8917, Control_c, 0, 64, 72
1, 8932, Control_c, 0, 64, 77
1, 8942, Note_off_c, 0, 76, 55
1, 8947, Note_on_c, 0, 83, 74
1, 8947, Control_c, 0, 64, 82
1, 8951, Note_on_c, 0, 79, 74
1, 8962, Control_c, 0, 64, 87
1, 8971, Note_off_c, 0, 71, 31
1, 8976, Control_c, 0, 64, 89
1, 8979, Note_off_c, 0, 79, 66
1, 8997, Note_off_c, 0, 83, 63
1, 9006, Control_c, 0, 64, 87
1, 9009, Note_off_c, 0, 64, 37
1, 9021, Control_c, 0, 64, 79
1, 9036, Control_c, 0, 64, 67
1, 9051, Control_c, 0, 64, 56
1, 9066, Control_c, 0, 64, 37
1, 9078, Note_on_c, 0, 60, 61
1, 9081, Control_c, 0, 64, 0
1, 9081, Note_on_c, 0, 54, 65
1, 9086, Note_on_c, 0, 84, 76
1, 9093, Note_on_c, 0, 81, 73
1, 9110, Control_c, 0, 64, 30
1, 9125, Control_c, 0, 64, 46
1, 9140, Note_off_c, 0, 54, 58
1, 9140, Control_c, 0, 64, 59
1, 9143, Note_off_c, 0, 60, 62
1, 9155, Control_c, 0, 64, 67
1, 9169, Control_c, 0, 64, 74
1, 9184, Control_c, 0, 64, 82
1, 9199, Note_off_c, 0, 81, 58
1, 9199, Note_off_c, 0, 84, 56
1, 9199, Control_c, 0, 64, 90
1, 9203, Note_on_c, 0, 78, 74
1, 9204, Note_on_c, 0, 72, 69
1, 9214, Control_c, 0, 64, 95
1, 9229, Control_c, 0, 64, 100
1, 9248, Note_off_c, 0, 78, 61
1, 9251, Note_off_c, 0, 72, 60
1, 9288, Control_c, 0, 64, 87
1, 9302, Control_c, 0, 64, 73
1, 9317, Control_c, 0, 64, 61
1, 9329, Note_on_c, 0, 64, 76
1, 9331, Note_on_c, 0, 61, 67
1, 9332, Control_c, 0, 64, 46
1, 9335, Note_on_c, 0, 76, 77
1, 9337, Note_on_c, 0, 55, 71
1, 9341, Note_on_c, 0, 71, 67
1, 9347, Control_c, 0, 64, 29
1, 9362, Control_c, 0, 64, 0
1, 9376, Control_c, 0, 64, 30
1, 9391, Control_c, 0, 64, 45
1, 9403, Note_off_c, 0, 61, 60
1, 9406, Control_c, 0, 64, 58
1, 9417, Note_off_c, 0, 71, 50
1, 9421, Control_c, 0, 64, 66
1, 9436, Note_off_c, 0, 55, 60
1, 9436, Control_c, 0, 64, 74
1, 9445, Note_off_c, 0, 76, 51
1, 9449, Note_on_c, 0, 83, 77
1, 9450, Note_on_c, 0, 79, 82
1, 9450, Control_c, 0, 64, 83
1, 9466, Control_c, 0, 64, 92
1, 9478, Note_off_c, 0, 79, 65
1, 9481, Control_c, 0, 64, 99
1, 9504, Control_c, 0, 64, 101
1, 9506, Note_off_c, 0, 83, 63
1, 9533, Control_c, 0, 64, 90
1, 9548, Control_c, 0, 64, 74
1, 9563, Control_c, 0, 64, 61
1, 9578, Control_c, 0, 64, 42
1, 9580, Note_on_c, 0, 60, 67
1, 9582, Note_on_c, 0, 84, 81
1, 9582, Note_on_c, 0, 54, 75
1, 9585, Note_on_c, 0, 81, 86
1, 9592, Control_c, 0, 64, 0
1, 9635, Note_off_c, 0, 60, 65
1, 9637, Control_c, 0, 64, 46
1, 9652, Control_c, 0, 64, 59
1, 9664, Note_off_c, 0, 64, 61
1, 9666, Control_c, 0, 64, 67
1, 9677, Note_off_c, 0, 54, 62
1, 9681, Control_c, 0, 64, 75
1, 9693, Note_on_c, 0, 72, 78
1, 9693, Note_on_c, 0, 78, 81
1, 9696, Control_c, 0, 64, 87
1, 9710, Note_off_c, 0, 81, 62
1, 9710, Note_off_c, 0, 84, 57
1, 9711, Control_c, 0, 64, 95
1, 9725, Control_c, 0, 64, 98
1, 9742, Note_off_c, 0, 72, 66
1, 9743, Note_off_c, 0, 78, 64
1, 9755, Control_c, 0, 64, 94
1, 9770, Control_c, 0, 64, 80
1, 9785, Control_c, 0, 64, 63
1, 9799, Control_c, 0, 64, 0
1, 9817, Note_on_c, 0, 64, 74
1, 9818, Note_on_c, 0, 55, 77
1, 9825, Note_on_c, 0, 61, 59
1, 9826, Note_on_c, 0, 76, 81
1, 9828, Note_on_c, 0, 71, 75
1, 9883, Note_off_c, 0, 55, 62
1, 9889, Control_c, 0, 64, 39
1, 9901, Note_off_c, 0, 64, 62
1, 9904, Control_c, 0, 64, 57
1, 9912, Note_off_c, 0, 61, 58
1, 9918, Control_c, 0, 64, 68
1, 9933, Control_c, 0, 64, 79
1, 9936, Note_on_c, 0, 83, 81
1, 9939, Note_on_c, 0, 79, 83
1, 9948, Control_c, 0, 64, 97
1, 9954, Note_off_c, 0, 76, 62
1, 9963, Control_c, 0, 64, 127
1, 9972, Note_off_c, 0, 79, 62
1, 9981, Note_off_c, 0, 71, 31
1, 9993, Note_off_c, 0, 83, 65
1, 10022, Control_c, 0, 64, 119
1, 10037, Control_c, 0, 64, 80
1, 10052, Control_c, 0, 64, 62
1, 10066, Control_c, 0, 64, 37
1, 10067, Note_on_c, 0, 56, 73
1, 10069, Note_on_c, 0, 62, 60
1, 10069, Note_on_c, 0, 81, 79
1, 10070, Note_on_c, 0, 66, 68
1, 10070, Note_on_c, 0, 78, 76
1, 10081, Control_c, 0, 64, 0
1, 10119, Note_off_c, 0, 62, 57
1, 10126, Control_c, 0, 64, 40
1, 10133, Note_off_c, 0, 66, 59
1, 10141, Control_c, 0, 64, 56
1, 10144, Note_off_c, 0, 81, 51
1, 10156, Control_c, 0, 64, 67
1, 10171, Control_c, 0, 64, 79
1, 10177, Note_on_c, 0, 57, 79
1, 10178, Note_on_c, 0, 74, 81
1, 10180, Note_on_c, 0, 69, 74
1, 10186, Control_c, 0, 64, 112
1, 10194, Note_off_c, 0, 78, 48
1, 10200, Control_c, 0, 64, 127
1, 10228, Note_off_c, 0, 74, 61
1, 10234, Note_off_c, 0, 69, 62
1, 10256, Note_off_c, 0, 57, 59
1, 10264, Note_off_c, 0, 56, 35
1, 10283, Control_c, 0, 64, 80
1, 10297, Control_c, 0, 64, 56
1, 10312, Control_c, 0, 64, 0
1, 10317, Note_on_c, 0, 58, 66
1, 10318, Note_on_c, 0, 64, 71
1, 10318, Note_on_c, 0, 73, 81
1, 10321, Note_on_c, 0, 67, 72
1, 10327, Note_on_c, 0, 61, 63
1, 10400, Note_off_c, 0, 64, 62
1, 10401, Control_c, 0, 64, 45
1, 10406, Note_off_c, 0, 58, 62
1, 10412, Note_off_c, 0, 67, 54
1, 10416, Control_c, 0, 64, 61
1, 10428, Note_on_c, 0, 79, 77
1, 10431, Control_c, 0, 64, 71
1, 10434, Note_on_c, 0, 76, 76
1, 10446, Control_c, 0, 64, 84
1, 10451, Note_off_c, 0, 61, 60
1, 10452, Note_off_c, 0, 73, 57
1, 10461, Control_c, 0, 64, 104
1, 10461, Note_off_c, 0, 76, 65
1, 10476, Control_c, 0, 64, 127
1, 10482, Note_off_c, 0, 79, 65
1, 10505, Control_c, 0, 64, 117
1, 10520, Control_c, 0, 64, 84
1, 10535, Control_c, 0, 64, 64
1, 10549, Control_c, 0, 64, 41
1, 10556, Note_on_c, 0, 59, 62
1, 10556, Note_on_c, 0, 63, 75
1, 10562, Note_on_c, 0, 75, 70
1, 10562, Note_on_c, 0, 78, 70
1, 10564, Control_c, 0, 64, 0
1, 10609, Control_c, 0, 64, 48
1, 10613, Note_off_c, 0, 59, 63
1, 10623, Control_c, 0, 64, 61
1, 10638, Control_c, 0, 64, 70
1, 10653, Control_c, 0, 64, 83
1, 10667, Control_c, 0, 64, 103
1, 10668, Note_on_c, 0, 71, 76
1, 10673, Note_on_c, 0, 66, 68
1, 10682, Note_off_c, 0, 75, 58
1, 10682, Control_c, 0, 64, 127
1, 10683, Note_off_c, 0, 78, 39
1, 10688, Note_off_c, 0, 63, 57
1, 10711, Note_off_c, 0, 66, 59
1, 10715, Note_off_c, 0, 71, 61
1, 10727, Control_c, 0, 64, 116
1, 10741, Control_c, 0, 64, 82
1, 10756, Control_c, 0, 64, 61
1, 10771, Control_c, 0, 64, 0
1, 10795, Note_on_c, 0, 62, 66
1, 10796, Note_on_c, 0, 56, 61
1, 10799, Note_on_c, 0, 71, 74
1, 10802, Note_on_c, 0, 59, 55
1, 10804, Note_on_c, 0, 65, 68
1, 10846, Control_c, 0, 64, 42
1, 10860, Note_off_c, 0, 62, 61
1, 10860, Control_c, 0, 64, 56
1, 10866, Note_off_c, 0, 65, 46
1, 10874, Control_c, 0, 64, 64
1, 10881, Note_off_c, 0, 71, 61
1, 10889, Control_c, 0, 64, 72
1, 10891, Note_off_c, 0, 59, 62
1, 10904, Control_c, 0, 64, 77
1, 10906, Note_off_c, 0, 56, 58
1, 10909, Note_on_c, 0, 77, 76
1, 10919, Control_c, 0, 64, 79
1, 10926, Note_on_c, 0, 74, 62
1, 10934, Control_c, 0, 64, 80
1, 10948, Control_c, 0, 64, 79
1, 10951, Note_off_c, 0, 74, 63
1, 10963, Control_c, 0, 64, 74
1, 10966, Note_off_c, 0, 77, 62
1, 10978, Control_c, 0, 64, 63
1, 11001, Control_c, 0, 64, 0
1, 11036, Note_on_c, 0, 57, 68
1, 11043, Note_on_c, 0, 61, 68
1, 11051, Note_on_c, 0, 76, 73
1, 11054, Note_on_c, 0, 73, 69
1, 11072, Note_off_c, 0, 57, 67
1, 11075, Control_c, 0, 64, 40
1, 11084, Note_off_c, 0, 61, 59
1, 11090, Control_c, 0, 64, 57
1, 11105, Control_c, 0, 64, 67
1, 11120, Control_c, 0, 64, 76
1, 11133, Note_off_c, 0, 76, 56
1, 11135, Control_c, 0, 64, 87
1, 11150, Note_off_c, 0, 73, 51
1, 11150, Control_c, 0, 64, 96
1, 11164, Control_c, 0, 64, 100
1, 11169, Note_on_c, 0, 69, 62
1, 11170, Note_on_c, 0, 64, 62
1, 11206, Note_off_c, 0, 69, 61
1, 11210, Note_off_c, 0, 64, 62
1, 11224, Control_c, 0, 64, 89
1, 11225, Note_on_c, 0, 45, 66
1, 11239, Control_c, 0, 64, 73
1, 11253, Note_on_c, 0, 55, 51
1, 11253, Control_c, 0, 64, 57
1, 11268, Control_c, 0, 64, 0
1, 11291, Note_on_c, 0, 59, 64
1, 11299, Note_on_c, 0, 62, 68
1, 11301, Note_on_c, 0, 67, 68
1, 11342, Control_c, 0, 64, 36
1, 11346, Note_off_c, 0, 45, 62
1, 11357, Control_c, 0, 64, 53
1, 11371, Control_c, 0, 64, 64
1, 11386, Note_off_c, 0, 55, 62
1, 11386, Control_c, 0, 64, 73
1, 11388, Note_off_c, 0, 59, 63
1, 11401, Control_c, 0, 64, 82
1, 11410, Note_on_c, 0, 74, 73
1, 11416, Control_c, 0, 64, 90
1, 11418, Note_off_c, 0, 67, 60
1, 11420, Note_on_c, 0, 71, 67
1, 11431, Control_c, 0, 64, 96
1, 11438, Note_off_c, 0, 62, 59
1, 11445, Control_c, 0, 64, 98
1, 11446, Note_off_c, 0, 71, 67
1, 11459, Note_off_c, 0, 74, 63
1, 11475, Control_c, 0, 64, 95
1, 11489, Control_c, 0, 64, 76
1, 11504, Control_c, 0, 64, 59
1, 11519, Control_c, 0, 64, 0
1, 11543, Note_on_c, 0, 73, 72
1, 11546, Note_on_c, 0, 54, 57
1, 11550, Note_on_c, 0, 70, 68
1, 11551, Note_on_c, 0, 58, 59
1, 11555, Note_on_c, 0, 46, 59
1, 11579, Control_c, 0, 64, 34
1, 11594, Control_c, 0, 64, 53
1, 11609, Control_c, 0, 64, 65
1, 11624, Control_c, 0, 64, 76
1, 11638, Control_c, 0, 64, 94
1, 11650, Note_off_c, 0, 73, 47
1, 11653, Control_c, 0, 64, 127
1, 11659, Note_on_c, 0, 66, 66
1, 11659, Note_off_c, 0, 46, 57
1, 11659, Note_off_c, 0, 58, 61
1, 11665, Note_on_c, 0, 61, 62
1, 11665, Note_off_c, 0, 70, 55
1, 11694, Note_off_c, 0, 66, 60
1, 11696, Note_off_c, 0, 61, 64
1, 11697, Control_c, 0, 64, 118
1, 11701, Note_off_c, 0, 54, 32
1, 11712, Control_c, 0, 64, 82
1, 11727, Control_c, 0, 64, 62
1, 11749, Control_c, 0, 64, 0
1, 11789, Note_on_c, 0, 47, 53
1, 11800, Note_on_c, 0, 57, 52
1, 11800, Note_on_c, 0, 65, 69
1, 11804, Note_on_c, 0, 60, 60
1, 11807, Note_on_c, 0, 53, 45
1, 11823, Control_c, 0, 64, 37
1, 11838, Control_c, 0, 64, 53
1, 11853, Control_c, 0, 64, 64
1, 11859, Note_off_c, 0, 57, 61
1, 11868, Control_c, 0, 64, 74
1, 11877, Note_off_c, 0, 47, 61
1, 11883, Control_c, 0, 64, 91
1, 11898, Control_c, 0, 64, 117
1, 11904, Note_off_c, 0, 53, 57
1, 11913, Control_c, 0, 64, 127
1, 11919, Note_on_c, 0, 72, 61
1, 11930, Note_on_c, 0, 69, 56
1, 11931, Note_off_c, 0, 65, 53
1, 11955, Note_off_c, 0, 69, 62
1, 11957, Control_c, 0, 64, 94
1, 11967, Note_off_c, 0, 72, 62
1, 11972, Control_c, 0, 64, 69
1, 11987, Note_off_c, 0, 60, 34
1, 11987, Control_c, 0, 64, 41
1, 12002, Control_c, 0, 64, 0
1, 12038, Note_on_c, 0, 48, 54
1, 12043, Note_on_c, 0, 56, 61
1, 12047, Note_on_c, 0, 52, 54
1, 12048, Note_on_c, 0, 68, 64
1, 12048, Note_on_c, 0, 71, 56
1, 12062, Control_c, 0, 64, 36
1, 12076, Control_c, 0, 64, 51
1, 12091, Control_c, 0, 64, 64
1, 12106, Control_c, 0, 64, 74
1, 12120, Control_c, 0, 64, 90
1, 12134, Note_off_c, 0, 71, 37
1, 12135, Control_c, 0, 64, 120
1, 12136, Note_off_c, 0, 52, 59
1, 12136, Note_off_c, 0, 48, 60
1, 12150, Control_c, 0, 64, 127
1, 12164, Note_off_c, 0, 56, 36
1, 12169, Note_on_c, 0, 59, 51
1, 12171, Note_on_c, 0, 64, 59
1, 12194, Control_c, 0, 64, 120
1, 12197, Note_off_c, 0, 64, 64
1, 12199, Note_off_c, 0, 59, 64
1, 12202, Note_off_c, 0, 68, 36
1, 12209, Control_c, 0, 64, 81
1, 12224, Control_c, 0, 64, 62
1, 12239, Control_c, 0, 64, 29
1, 12254, Control_c, 0, 64, 0
1, 12288, Note_on_c, 0, 49, 55
1, 12289, Note_on_c, 0, 55, 58
1, 12291, Note_on_c, 0, 63, 63
1, 12304, Note_on_c, 0, 51, 51
1, 12311, Note_on_c, 0, 58, 43
1, 12312, Control_c, 0, 64, 39
1, 12327, Control_c, 0, 64, 55
1, 12339, Note_off_c, 0, 49, 64
1, 12342, Control_c, 0, 64, 65
1, 12346, Note_off_c, 0, 51, 62
1, 12354, Note_off_c, 0, 55, 60
1, 12357, Control_c, 0, 64, 75
1, 12372, Control_c, 0, 64, 88
1, 12378, Note_off_c, 0, 58, 44
1, 12387, Control_c, 0, 64, 114
1, 12402, Control_c, 0, 64, 127
1, 12410, Note_on_c, 0, 70, 65
1, 12421, Note_on_c, 0, 67, 50
1, 12437, Note_off_c, 0, 63, 54
1, 12447, Note_off_c, 0, 67, 61
1, 12474, Note_off_c, 0, 70, 59
1, 12513, Control_c, 0, 64, 102
1, 12527, Control_c, 0, 64, 79
1, 12542, Control_c, 0, 64, 63
1, 12557, Control_c, 0, 64, 41
1, 12560, Note_on_c, 0, 50, 54
1, 12572, Control_c, 0, 64, 0
1, 12576, Note_on_c, 0, 54, 52
1, 12580, Note_on_c, 0, 69, 57
1, 12583, Note_on_c, 0, 66, 53
1, 12646, Control_c, 0, 64, 41
1, 12662, Control_c, 0, 64, 57
1, 12677, Control_c, 0, 64, 67
1, 12690, Note_on_c, 0, 57, 64
1, 12691, Control_c, 0, 64, 75
1, 12694, Note_off_c, 0, 69, 34
1, 12695, Note_on_c, 0, 62, 61
1, 12706, Control_c, 0, 64, 83
1, 12707, Note_off_c, 0, 66, 34
1, 12716, Note_off_c, 0, 54, 62
1, 12721, Control_c, 0, 64, 87
1, 12723, Note_off_c, 0, 57, 65
1, 12727, Note_off_c, 0, 62, 64
1, 12735, Control_c, 0, 64, 88
1, 12750, Control_c, 0, 64, 88
1, 12765, Control_c, 0, 64, 80
1, 12780, Control_c, 0, 64, 65
1, 12795, Control_c, 0, 64, 51
1, 12810, Control_c, 0, 64, 36
1, 12813, Note_on_c, 0, 65, 73
1, 12814, Note_on_c, 0, 53, 55
1, 12817, Note_on_c, 0, 56, 58
1, 12825, Control_c, 0, 64, 34
1, 12840, Control_c, 0, 64, 43
1, 12847, Note_on_c, 0, 59, 38
1, 12855, Control_c, 0, 64, 54
1, 12867, Note_on_c, 0, 60, 16
1, 12869, Control_c, 0, 64, 61
1, 12884, Control_c, 0, 64, 67
1, 12890, Note_off_c, 0, 65, 62
1, 12899, Control_c, 0, 64, 71
1, 12911, Note_off_c, 0, 60, 42
1, 12914, Control_c, 0, 64, 72
1, 12925, Note_on_c, 0, 71, 68
1, 12929, Note_on_c, 0, 68, 65
1, 12929, Control_c, 0, 64, 73
1, 12943, Control_c, 0, 64, 73
1, 12956, Note_off_c, 0, 59, 42
1, 12959, Note_off_c, 0, 68, 65
1, 12970, Note_off_c, 0, 53, 55
1, 12974, Note_off_c, 0, 71, 61
1, 12988, Control_c, 0, 64, 71
1, 13003, Control_c, 0, 64, 63
1, 13017, Control_c, 0, 64, 39
1, 13032, Note_off_c, 0, 56, 50
1, 13032, Control_c, 0, 64, 0
1, 13058, Note_on_c, 0, 69, 58
1, 13066, Note_on_c, 0, 54, 54
1, 13066, Note_on_c, 0, 66, 52
1, 13090, Note_off_c, 0, 50, 47
1, 13106, Control_c, 0, 64, 46
1, 13122, Control_c, 0, 64, 55
1, 13136, Control_c, 0, 64, 61
1, 13151, Control_c, 0, 64, 64
1, 13162, Note_off_c, 0, 69, 43
1, 13166, Control_c, 0, 64, 66
1, 13168, Note_off_c, 0, 54, 61
1, 13177, Note_on_c, 0, 62, 57
1, 13181, Control_c, 0, 64, 67
1, 13188, Note_on_c, 0, 57, 38
1, 13188, Note_off_c, 0, 66, 50
1, 13212, Note_off_c, 0, 62, 65
1, 13219, Note_off_c, 0, 57, 49
1, 13225, Control_c, 0, 64, 67
1, 13248, Control_c, 0, 64, 65
1, 13263, Control_c, 0, 64, 59
1, 13277, Control_c, 0, 64, 44
1, 13292, Control_c, 0, 64, 0
1, 13308, Note_on_c, 0, 55, 47
1, 13309, Note_on_c, 0, 45, 49
1, 13312, Note_on_c, 0, 63, 61
1, 13314, Note_on_c, 0, 58, 51
1, 13326, Note_on_c, 0, 51, 37
1, 13351, Control_c, 0, 64, 30
1, 13366, Control_c, 0, 64, 50
1, 13368, Note_off_c, 0, 58, 56
1, 13379, Note_off_c, 0, 51, 60
1, 13381, Control_c, 0, 64, 65
1, 13385, Note_off_c, 0, 45, 61
1, 13396, Control_c, 0, 64, 74
1, 13407, Note_off_c, 0, 55, 61
1, 13411, Control_c, 0, 64, 85
1, 13422, Note_on_c, 0, 70, 66
1, 13424, Note_on_c, 0, 67, 60
1, 13425, Control_c, 0, 64, 96
1, 13440, Control_c, 0, 64, 104
1, 13454, Note_off_c, 0, 63, 54
1, 13457, Note_off_c, 0, 67, 66
1, 13468, Note_off_c, 0, 70, 58
1, 13485, Control_c, 0, 64, 99
1, 13500, Control_c, 0, 64, 84
1, 13515, Control_c, 0, 64, 69
1, 13530, Control_c, 0, 64, 54
1, 13545, Control_c, 0, 64, 30
1, 13547, Note_on_c, 0, 50, 59
1, 13555, Note_on_c, 0, 66, 70
1, 13556, Note_on_c, 0, 54, 56
1, 13557, Note_on_c, 0, 69, 68
1, 13559, Control_c, 0, 64, 0
1, 13589, Control_c, 0, 64, 30
1, 13604, Control_c, 0, 64, 48
1, 13619, Control_c, 0, 64, 61
1, 13633, Control_c, 0, 64, 69
1, 13648, Control_c, 0, 64, 80
1, 13663, Note_on_c, 0, 57, 73
1, 13663, Control_c, 0, 64, 98
1, 13665, Note_on_c, 0, 62, 71
1, 13668, Note_off_c, 0, 54, 59
1, 13673, Note_off_c, 0, 66, 51
1, 13678, Control_c, 0, 64, 127
1, 13693, Note_off_c, 0, 62, 66
1, 13696, Note_off_c, 0, 57, 63
1, 13705, Note_off_c, 0, 69, 36
1, 13737, Control_c, 0, 64, 91
1, 13752, Control_c, 0, 64, 69
1, 13767, Control_c, 0, 64, 50
1, 13782, Control_c, 0, 64, 0
1, 13793, Note_on_c, 0, 65, 77
1, 13794, Note_on_c, 0, 53, 58
1, 13798, Note_on_c, 0, 59, 55
1, 13805, Note_on_c, 0, 56, 56
1, 13826, Control_c, 0, 64, 35
1, 13841, Control_c, 0, 64, 54
1, 13856, Control_c, 0, 64, 66
1, 13871, Control_c, 0, 64, 78
1, 13885, Control_c, 0, 64, 101
1, 13889, Note_off_c, 0, 65, 53
1, 13898, Note_on_c, 0, 71, 71
1, 13900, Control_c, 0, 64, 127
1, 13901, Note_on_c, 0, 68, 69
1, 13920, Note_off_c, 0, 59, 62
1, 13925, Note_off_c, 0, 68, 69
1, 13937, Note_off_c, 0, 71, 62
1, 13952, Note_off_c, 0, 53, 54
1, 13959, Control_c, 0, 64, 95
1, 13974, Control_c, 0, 64, 66
1, 13996, Control_c, 0, 64, 40
1, 14011, Control_c, 0, 64, 0
1, 14032, Note_off_c, 0, 56, 52
1, 14038, Note_on_c, 0, 54, 64
1, 14040, Note_on_c, 0, 69, 54
1, 14041, Note_on_c, 0, 66, 61
1, 14055, Note_off_c, 0, 50, 54
1, 14071, Control_c, 0, 64, 42
1, 14075, Note_off_c, 0, 54, 66
1, 14086, Control_c, 0, 64, 57
1, 14100, Control_c, 0, 64, 64
1, 14115, Control_c, 0, 64, 68
1, 14130, Control_c, 0, 64, 70
1, 14138, Note_off_c, 0, 66, 51
1, 14145, Control_c, 0, 64, 71
1, 14149, Note_off_c, 0, 69, 38
1, 14160, Note_on_c, 0, 62, 64
1, 14166, Note_on_c, 0, 57, 64
1, 14189, Note_off_c, 0, 62, 65
1, 14189, Control_c, 0, 64, 68
1, 14199, Note_off_c, 0, 57, 65
1, 14204, Control_c, 0, 64, 61
1, 14218, Control_c, 0, 64, 39
1, 14233, Control_c, 0, 64, 0
1, 14292, Note_on_c, 0, 61, 70
1, 14303, Note_on_c, 0, 55, 57
1, 14306, Note_on_c, 0, 38, 50
1, 14310, Note_on_c, 0, 46, 54
1, 14323, Control_c, 0, 64, 35
1, 14338, Control_c, 0, 64, 46
1, 14353, Control_c, 0, 64, 56
1, 14368, Control_c, 0, 64, 62
1, 14382, Control_c, 0, 64, 66
1, 14397, Control_c, 0, 64, 68
1, 14409, Note_on_c, 0, 64, 69
1, 14412, Control_c, 0, 64, 70
1, 14427, Control_c, 0, 64, 70
1, 14430, Note_off_c, 0, 55, 53
1, 14434, Note_off_c, 0, 61, 60
1, 14442, Control_c, 0, 64, 70
1, 14449, Note_off_c, 0, 64, 58
1, 14456, Control_c, 0, 64, 65
1, 14471, Control_c, 0, 64, 52
1, 14486, Control_c, 0, 64, 0
1, 14540, Note_off_c, 0, 46, 48
1, 14546, Note_on_c, 0, 47, 47
1, 14552, Note_on_c, 0, 62, 59
1, 14557, Note_on_c, 0, 59, 50
1, 14575, Control_c, 0, 64, 29
1, 14590, Control_c, 0, 64, 40
1, 14604, Control_c, 0, 64, 53
1, 14618, Control_c, 0, 64, 62
1, 14632, Control_c, 0, 64, 67
1, 14639, Note_off_c, 0, 38, 61
1, 14640, Note_off_c, 0, 47, 63
1, 14647, Control_c, 0, 64, 71
1, 14655, Note_off_c, 0, 62, 59
1, 14659, Note_off_c, 0, 59, 59
1, 14662, Control_c, 0, 64, 73
1, 14675, Note_on_c, 0, 55, 65
1, 14677, Control_c, 0, 64, 75
1, 14703, Note_off_c, 0, 55, 65
1, 14706, Control_c, 0, 64, 73
1, 14721, Control_c, 0, 64, 65
1, 14744, Control_c, 0, 64, 50
1, 14759, Control_c, 0, 64, 0
1, 14798, Note_on_c, 0, 38, 49
1, 14801, Note_on_c, 0, 61, 66
1, 14810, Note_on_c, 0, 58, 56
1, 14813, Note_on_c, 0, 46, 39
1, 14833, Control_c, 0, 64, 30
1, 14847, Control_c, 0, 64, 45
1, 14862, Control_c, 0, 64, 57
1, 14877, Control_c, 0, 64, 65
1, 14892, Control_c, 0, 64, 69
1, 14907, Control_c, 0, 64, 73
1, 14917, Note_off_c, 0, 58, 39
1, 14920, Note_on_c, 0, 64, 59
1, 14921, Control_c, 0, 64, 75
1, 14932, Note_off_c, 0, 61, 61
1, 14936, Control_c, 0, 64, 75
1, 14952, Note_off_c, 0, 64, 66
1, 14966, Control_c, 0, 64, 74
1, 14981, Control_c, 0, 64, 68
1, 14995, Control_c, 0, 64, 56
1, 15010, Control_c, 0, 64, 0
1, 15017, Note_off_c, 0, 46, 41
1, 15042, Note_off_c, 0, 38, 0
1, 15060, Note_on_c, 0, 62, 57
1, 15071, Note_on_c, 0, 47, 40
1, 15073, Note_on_c, 0, 59, 30
1, 15080, Poly_aftertouch_c, 0, 38, 127
1, 15100, Control_c, 0, 64, 38
1, 15115, Control_c, 0, 64, 54
1, 15128, Poly_aftertouch_c, 0, 38, 0
1, 15129, Control_c, 0, 64, 64
1, 15134, Note_off_c, 0, 47, 63
1, 15144, Control_c, 0, 64, 70
1, 15151, Note_off_c, 0, 59, 58
1, 15159, Control_c, 0, 64, 75
1, 15159, Control_c, 0, 67, 19
1, 15167, Note_off_c, 0, 62, 58
1, 15174, Control_c, 0, 64, 77
1, 15180, Note_on_c, 0, 55, 58
1, 15217, Note_off_c, 0, 55, 62
1, 15219, Control_c, 0, 64, 76
1, 15233, Control_c, 0, 64, 70
1, 15248, Control_c, 0, 64, 61
1, 15263, Control_c, 0, 64, 40
1, 15278, Control_c, 0, 64, 0
1, 15308, Note_on_c, 0, 61, 57
1, 15320, Note_on_c, 0, 53, 45
1, 15322, Note_on_c, 0, 44, 43
1, 15368, Control_c, 0, 64, 49
1, 15382, Control_c, 0, 64, 60
1, 15397, Control_c, 0, 64, 66
1, 15412, Control_c, 0, 64, 71
1, 15419, Note_off_c, 0, 53, 62
1, 15427, Control_c, 0, 64, 74
1, 15432, Note_on_c, 0, 59, 59
1, 15442, Control_c, 0, 64, 77
1, 15448, Note_off_c, 0, 61, 61
1, 15453, Note_off_c, 0, 44, 54
1, 15456, Control_c, 0, 64, 79
1, 15462, Note_off_c, 0, 59, 66
1, 15508, Control_c, 0, 64, 76
1, 15523, Control_c, 0, 64, 69
1, 15537, Control_c, 0, 64, 60
1, 15552, Control_c, 0, 64, 43
1, 15552, Control_c, 0, 67, 0
1, 15567, Control_c, 0, 64, 0
1, 15600, Note_on_c, 0, 62, 59
1, 15610, Note_on_c, 0, 45, 41
1, 15619, Note_on_c, 0, 54, 40
1, 15656, Control_c, 0, 64, 43
1, 15671, Control_c, 0, 64, 57
1, 15686, Control_c, 0, 64, 64
1, 15701, Control_c, 0, 64, 68
1, 15713, Note_off_c, 0, 45, 57
1, 15716, Control_c, 0, 64, 71
1, 15725, Note_off_c, 0, 54, 51
1, 15725, Note_off_c, 0, 62, 54
1, 15731, Control_c, 0, 64, 72
1, 15734, Note_on_c, 0, 57, 61
1, 15745, Control_c, 0, 64, 73
1, 15760, Control_c, 0, 64, 74
1, 15769, Note_off_c, 0, 57, 65
1, 15804, Control_c, 0, 64, 73
1, 15819, Control_c, 0, 64, 70
1, 15834, Control_c, 0, 64, 64
1, 15849, Control_c, 0, 64, 53
1, 15865, Control_c, 0, 64, 32
1, 15880, Control_c, 0, 64, 0
1, 15887, Note_on_c, 0, 61, 57
1, 15892, Note_on_c, 0, 44, 38
1, 15898, Note_on_c, 0, 53, 36
1, 15954, Control_c, 0, 64, 32
1, 15968, Control_c, 0, 64, 52
1, 15983, Control_c, 0, 64, 62
1, 15998, Control_c, 0, 64, 67
1, 16007, Note_off_c, 0, 53, 57
1, 16013, Control_c, 0, 64, 70
1, 16026, Note_on_c, 0, 59, 52
1, 16028, Control_c, 0, 64, 72
1, 16031, Note_off_c, 0, 61, 55
1, 16033, Note_off_c, 0, 44, 52
1, 16042, Control_c, 0, 64, 73
1, 16055, Note_off_c, 0, 59, 64
1, 16057, Control_c, 0, 64, 74
1, 16072, Control_c, 0, 64, 74
1, 16116, Control_c, 0, 64, 73
1, 16131, Control_c, 0, 64, 70
1, 16146, Control_c, 0, 64, 65
1, 16160, Control_c, 0, 64, 55
1, 16175, Control_c, 0, 64, 30
1, 16190, Control_c, 0, 64, 0
1, 16222, Note_on_c, 0, 62, 51
1, 16236, Note_on_c, 0, 45, 40
1, 16265, Note_on_c, 0, 54, 18
1, 16272, Control_c, 0, 64, 31
1, 16286, Control_c, 0, 64, 47
1, 16292, Note_off_c, 0, 45, 59
1, 16301, Control_c, 0, 64, 58
1, 16316, Control_c, 0, 64, 64
1, 16331, Control_c, 0, 64, 66
1, 16339, Note_off_c, 0, 54, 41
1, 16346, Control_c, 0, 64, 68
1, 16360, Control_c, 0, 64, 69
1, 16365, Note_off_c, 0, 62, 54
1, 16375, Control_c, 0, 64, 69
1, 16387, Note_on_c, 0, 57, 54
1, 16419, Note_off_c, 0, 57, 65
1, 16450, Control_c, 0, 64, 69
1, 16465, Control_c, 0, 64, 66
1, 16479, Control_c, 0, 64, 61
1, 16494, Control_c, 0, 64, 48
1, 16509, Control_c, 0, 64, 0
1, 16526, Note_on_c, 0, 55, 54
1, 16527, Note_on_c, 0, 64, 56
1, 16530, Note_on_c, 0, 59, 48
1, 16549, Note_off_c, 0, 64, 65
1, 16554, Note_off_c, 0, 59, 62
1, 16560, Note_off_c, 0, 55, 64
1, 16647, Note_on_c, 0, 66, 62
1, 16655, Note_on_c, 0, 61, 51
1, 16664, Note_on_c, 0, 57, 43
1, 16678, Note_off_c, 0, 66, 66
1, 16679, Note_off_c, 0, 61, 58
1, 16694, Note_off_c, 0, 57, 51
1, 16804, Note_on_c, 0, 59, 40
1, 16806, Note_on_c, 0, 67, 60
1, 16807, Note_on_c, 0, 62, 54
1, 16865, Control_c, 0, 64, 45
1, 16880, Note_off_c, 0, 59, 48
1, 16880, Control_c, 0, 64, 59
1, 16885, Note_off_c, 0, 62, 58
1, 16895, Control_c, 0, 64, 65
1, 16906, Note_off_c, 0, 67, 63
1, 16909, Control_c, 0, 64, 70
1, 16922, Note_on_c, 0, 50, 44
1, 16924, Control_c, 0, 64, 75
1, 16939, Control_c, 0, 64, 80
1, 16954, Control_c, 0, 64, 86
1, 16955, Note_off_c, 0, 50, 61
1, 16969, Control_c, 0, 64, 88
1, 17006, Control_c, 0, 64, 87
1, 17021, Control_c, 0, 64, 81
1, 17035, Control_c, 0, 64, 69
1, 17050, Control_c, 0, 64, 53
1, 17061, Note_on_c, 0, 61, 51
1, 17065, Control_c, 0, 64, 0
1, 17070, Note_on_c, 0, 69, 61
1, 17074, Note_on_c, 0, 64, 48
1, 17092, Note_off_c, 0, 69, 65
1, 17096, Note_off_c, 0, 61, 64
1, 17096, Note_off_c, 0, 64, 58
1, 17186, Note_on_c, 0, 62, 53
1, 17186, Note_on_c, 0, 71, 68
1, 17192, Note_on_c, 0, 66, 59
1, 17211, Note_off_c, 0, 66, 61
1, 17212, Note_off_c, 0, 71, 69
1, 17217, Note_off_c, 0, 62, 63
1, 17317, Note_on_c, 0, 69, 70
1, 17318, Note_on_c, 0, 61, 53
1, 17323, Note_on_c, 0, 64, 59
1, 17347, Control_c, 0, 64, 43
1, 17352, Note_off_c, 0, 69, 59
1, 17356, Note_off_c, 0, 64, 65
1, 17361, Control_c, 0, 64, 58
1, 17367, Note_off_c, 0, 61, 56
1, 17376, Control_c, 0, 64, 67
1, 17391, Control_c, 0, 64, 75
1, 17406, Control_c, 0, 64, 85
1, 17421, Control_c, 0, 64, 97
1, 17435, Control_c, 0, 64, 107
1, 17438, Note_on_c, 0, 57, 58
1, 17475, Note_off_c, 0, 57, 62
1, 17481, Control_c, 0, 64, 101
1, 17496, Control_c, 0, 64, 88
1, 17511, Control_c, 0, 64, 71
1, 17526, Control_c, 0, 64, 52
1, 17540, Control_c, 0, 64, 0
1, 17555, Note_on_c, 0, 71, 71
1, 17557, Note_on_c, 0, 62, 55
1, 17563, Note_on_c, 0, 66, 55
1, 17582, Note_off_c, 0, 71, 64
1, 17588, Note_off_c, 0, 66, 63
1, 17588, Note_off_c, 0, 62, 63
1, 17663, Note_on_c, 0, 73, 73
1, 17675, Note_on_c, 0, 64, 49
1, 17679, Note_on_c, 0, 67, 50
1, 17696, Note_off_c, 0, 73, 61
1, 17702, Note_off_c, 0, 67, 62
1, 17704, Note_off_c, 0, 64, 61
1, 17801, Note_on_c, 0, 74, 74
1, 17803, Note_on_c, 0, 66, 59
1, 17809, Note_on_c, 0, 69, 64
1, 17828, Control_c, 0, 64, 40
1, 17831, Note_off_c, 0, 69, 64
1, 17843, Control_c, 0, 64, 58
1, 17851, Note_off_c, 0, 66, 54
1, 17857, Note_off_c, 0, 74, 63
1, 17857, Control_c, 0, 64, 66
1, 17872, Control_c, 0, 64, 73
1, 17887, Control_c, 0, 64, 79
1, 17902, Control_c, 0, 64, 84
1, 17912, Note_on_c, 0, 57, 57
1, 17917, Control_c, 0, 64, 87
1, 17931, Control_c, 0, 64, 88
1, 17943, Note_off_c, 0, 57, 60
1, 18031, Note_on_c, 0, 67, 55
1, 18035, Control_c, 0, 64, 87
1, 18036, Note_on_c, 0, 76, 77
1, 18046, Note_on_c, 0, 71, 61
1, 18050, Control_c, 0, 64, 85
1, 18062, Note_off_c, 0, 76, 65
1, 18063, Note_off_c, 0, 67, 65
1, 18065, Control_c, 0, 64, 82
1, 18069, Note_off_c, 0, 71, 62
1, 18080, Control_c, 0, 64, 79
1, 18095, Control_c, 0, 64, 75
1, 18110, Control_c, 0, 64, 70
1, 18125, Control_c, 0, 64, 63
1, 18139, Note_on_c, 0, 69, 58
1, 18139, Control_c, 0, 64, 52
1, 18143, Note_on_c, 0, 78, 76
1, 18153, Note_on_c, 0, 73, 66
1, 18154, Control_c, 0, 64, 0
1, 18170, Note_off_c, 0, 69, 65
1, 18178, Note_off_c, 0, 73, 68
1, 18193, Note_off_c, 0, 78, 61
1, 18276, Note_on_c, 0, 74, 79
1, 18279, Note_on_c, 0, 66, 58
1, 18286, Note_on_c, 0, 69, 65
1, 18303, Control_c, 0, 64, 54
1, 18318, Control_c, 0, 64, 65
1, 18329, Note_off_c, 0, 69, 58
1, 18333, Control_c, 0, 64, 69
1, 18337, Note_off_c, 0, 66, 55
1, 18347, Note_off_c, 0, 74, 62
1, 18347, Control_c, 0, 64, 70
1, 18363, Control_c, 0, 64, 71
1, 18393, Control_c, 0, 64, 72
1, 18396, Note_on_c, 0, 62, 59
1, 18431, Note_off_c, 0, 62, 63
1, 18503, Control_c, 0, 64, 71
1, 18518, Control_c, 0, 64, 69
1, 18529, Note_on_c, 0, 76, 75
1, 18531, Note_on_c, 0, 67, 57
1, 18533, Control_c, 0, 64, 65
1, 18539, Note_on_c, 0, 71, 64
1, 18548, Control_c, 0, 64, 61
1, 18555, Note_off_c, 0, 76, 66
1, 18559, Note_off_c, 0, 67, 64
1, 18563, Note_off_c, 0, 71, 66
1, 18563, Control_c, 0, 64, 49
1, 18578, Control_c, 0, 64, 0
1, 18634, Note_on_c, 0, 78, 79
1, 18645, Note_on_c, 0, 72, 69
1, 18647, Note_on_c, 0, 69, 56
1, 18670, Note_off_c, 0, 72, 68
1, 18679, Note_off_c, 0, 69, 62
1, 18683, Note_off_c, 0, 78, 62
1, 18761, Note_on_c, 0, 79, 89
1, 18766, Note_on_c, 0, 71, 62
1, 18773, Note_on_c, 0, 74, 73
1, 18845, Note_off_c, 0, 71, 40
1, 18875, Note_off_c, 0, 74, 59
1, 18879, Note_on_c, 0, 62, 69
1, 18901, Note_off_c, 0, 79, 65
1, 18919, Note_off_c, 0, 62, 62
1, 19004, Note_on_c, 0, 73, 68
1, 19012, Note_on_c, 0, 81, 86
1, 19013, Note_on_c, 0, 76, 77
1, 19038, Note_off_c, 0, 76, 67
1, 19041, Note_off_c, 0, 73, 63
1, 19047, Note_off_c, 0, 81, 61
1, 19118, Note_on_c, 0, 74, 66
1, 19119, Note_on_c, 0, 83, 87
1, 19122, Note_on_c, 0, 78, 83
1, 19144, Note_off_c, 0, 78, 65
1, 19153, Note_off_c, 0, 74, 64
1, 19172, Note_off_c, 0, 83, 63
1, 19249, Note_on_c, 0, 73, 74
1, 19251, Note_on_c, 0, 81, 95
1, 19252, Control_c, 0, 64, 41
1, 19257, Note_on_c, 0, 76, 81
1, 19267, Control_c, 0, 64, 127
1, 19296, Note_off_c, 0, 76, 63
1, 19302, Note_off_c, 0, 81, 64
1, 19310, Note_off_c, 0, 73, 62
1, 19368, Note_on_c, 0, 69, 77
1, 19433, Note_off_c, 0, 69, 59
1, 19478, Note_on_c, 0, 83, 88
1, 19484, Note_on_c, 0, 74, 84
1, 19484, Note_on_c, 0, 78, 80
1, 19534, Note_off_c, 0, 74, 62
1, 19535, Note_off_c, 0, 83, 62
1, 19535, Note_off_c, 0, 78, 57
1, 19590, Note_on_c, 0, 85, 86
1, 19594, Note_on_c, 0, 76, 81
1, 19595, Note_on_c, 0, 79, 85
1, 19657, Note_off_c, 0, 79, 62
1, 19660, Note_off_c, 0, 76, 61
1, 19667, Note_off_c, 0, 85, 63
1, 19682, Control_c, 0, 64, 118
1, 19697, Control_c, 0, 64, 79
1, 19711, Control_c, 0, 64, 63
1, 19718, Note_on_c, 0, 86, 90
1, 19720, Note_on_c, 0, 81, 92
1, 19722, Note_on_c, 0, 78, 87
1, 19726, Control_c, 0, 64, 55
1, 19741, Control_c, 0, 64, 60
1, 19755, Control_c, 0, 64, 73
1, 19757, Note_off_c, 0, 81, 66
1, 19770, Control_c, 0, 64, 112
1, 19776, Note_off_c, 0, 86, 64
1, 19785, Control_c, 0, 64, 127
1, 19794, Note_off_c, 0, 78, 61
1, 19854, Note_on_c, 0, 69, 83
1, 19933, Note_off_c, 0, 69, 58
1, 19995, Note_on_c, 0, 79, 90
1, 20000, Note_on_c, 0, 88, 97
1, 20004, Note_on_c, 0, 83, 86
1, 20053, Note_off_c, 0, 83, 61
1, 20053, Note_off_c, 0, 88, 65
1, 20061, Note_off_c, 0, 79, 60
1, 20131, Note_on_c, 0, 81, 88
1, 20134, Note_on_c, 0, 90, 94
1, 20139, Note_on_c, 0, 85, 90
1, 20189, Note_off_c, 0, 85, 64
1, 20209, Note_off_c, 0, 81, 58
1, 20212, Note_off_c, 0, 90, 64
1, 20285, Note_on_c, 0, 88, 94
1, 20287, Note_on_c, 0, 79, 97
1, 20291, Note_on_c, 0, 83, 87
1, 20325, Note_off_c, 0, 79, 69
1, 20336, Note_off_c, 0, 88, 67
1, 20352, Note_off_c, 0, 83, 63
1, 20619, Note_on_c, 0, 90, 97
1, 20622, Note_on_c, 0, 81, 90
1, 20623, Note_on_c, 0, 88, 86
1, 20626, Note_on_c, 0, 62, 87
1, 20626, Note_on_c, 0, 74, 91
1, 20680, Note_off_c, 0, 74, 64
1, 20696, Note_off_c, 0, 62, 60
1, 20813, Note_on_c, 0, 91, 95
1, 20814, Note_on_c, 0, 73, 84
1, 20815, Note_on_c, 0, 61, 82
1, 20866, Note_off_c, 0, 88, 63
1, 20869, Note_off_c, 0, 73, 62
1, 20875, Note_off_c, 0, 90, 58
1, 20882, Note_off_c, 0, 61, 60
1, 20929, Control_c, 0, 64, 82
1, 20944, Control_c, 0, 64, 58
1, 20951, Note_on_c, 0, 59, 81
1, 20953, Note_on_c, 0, 71, 83
1, 20958, Control_c, 0, 64, 0
1, 20963, Note_on_c, 0, 93, 93
1, 20973, Control_c, 0, 64, 35
1, 20987, Note_off_c, 0, 91, 66
1, 20988, Control_c, 0, 64, 57
1, 20998, Note_off_c, 0, 81, 64
1, 21001, Note_off_c, 0, 71, 63
1, 21002, Control_c, 0, 64, 73
1, 21007, Note_off_c, 0, 59, 64
1, 21010, Note_off_c, 0, 93, 66
1, 21017, Control_c, 0, 64, 99
1, 21032, Control_c, 0, 64, 127
1, 21075, Note_on_c, 0, 57, 86
1, 21075, Note_on_c, 0, 69, 80
1, 21109, Note_off_c, 0, 69, 58
1, 21120, Note_off_c, 0, 57, 65
1, 21182, Note_on_c, 0, 55, 84
1, 21188, Note_on_c, 0, 67, 80
1, 21193, Note_on_c, 0, 83, 86
1, 21201, Note_on_c, 0, 74, 75
1, 21205, Note_on_c, 0, 81, 75
1, 21222, Note_off_c, 0, 67, 64
1, 21239, Note_off_c, 0, 55, 61
1, 21297, Note_on_c, 0, 66, 83
1, 21298, Note_on_c, 0, 54, 89
1, 21304, Note_on_c, 0, 85, 89
1, 21349, Note_off_c, 0, 66, 61
1, 21352, Note_off_c, 0, 54, 62
1, 21363, Note_off_c, 0, 81, 62
1, 21372, Control_c, 0, 64, 93
1, 21387, Control_c, 0, 64, 68
1, 21401, Control_c, 0, 64, 53
1, 21406, Note_off_c, 0, 83, 58
1, 21411, Note_on_c, 0, 52, 86
1, 21413, Note_on_c, 0, 64, 80
1, 21416, Control_c, 0, 64, 50
1, 21419, Note_on_c, 0, 86, 87
1, 21431, Control_c, 0, 64, 58
1, 21445, Note_off_c, 0, 74, 64
1, 21445, Note_off_c, 0, 85, 65
1, 21447, Control_c, 0, 64, 69
1, 21461, Note_off_c, 0, 64, 61
1, 21462, Control_c, 0, 64, 82
1, 21463, Note_off_c, 0, 52, 65
1, 21475, Note_off_c, 0, 86, 64
1, 21484, Control_c, 0, 64, 110
1, 21499, Control_c, 0, 64, 127
1, 21528, Note_on_c, 0, 50, 88
1, 21533, Note_on_c, 0, 62, 75
1, 21577, Note_off_c, 0, 62, 61
1, 21585, Note_off_c, 0, 50, 62
1, 21645, Note_on_c, 0, 61, 80
1, 21647, Note_on_c, 0, 49, 83
1, 21651, Note_on_c, 0, 76, 82
1, 21653, Note_on_c, 0, 67, 70
1, 21660, Note_on_c, 0, 74, 71
1, 21701, Note_off_c, 0, 61, 61
1, 21704, Note_off_c, 0, 49, 63
1, 21752, Note_on_c, 0, 47, 83
1, 21756, Note_on_c, 0, 59, 79
1, 21760, Note_on_c, 0, 78, 85
1, 21806, Note_off_c, 0, 59, 62
1, 21809, Note_off_c, 0, 47, 64
1, 21830, Note_off_c, 0, 74, 60
1, 21869, Control_c, 0, 64, 73
1, 21878, Note_on_c, 0, 57, 87
1, 21878, Note_off_c, 0, 76, 50
1, 21880, Note_on_c, 0, 45, 87
1, 21884, Control_c, 0, 64, 39
1, 21887, Note_on_c, 0, 79, 87
1, 21899, Control_c, 0, 64, 0
1, 21917, Note_off_c, 0, 78, 63
1, 21931, Note_off_c, 0, 67, 66
1, 21933, Note_off_c, 0, 57, 64
1, 21936, Note_off_c, 0, 79, 66
1, 21942, Note_off_c, 0, 45, 63
1, 21943, Control_c, 0, 64, 53
1, 21958, Control_c, 0, 64, 75
1, 21973, Control_c, 0, 64, 97
1, 21988, Control_c, 0, 64, 127
1, 21999, Note_on_c, 0, 43, 86
1, 22000, Note_on_c, 0, 55, 84
1, 22053, Note_off_c, 0, 55, 63
1, 22083, Note_off_c, 0, 43, 57
1, 22131, Note_on_c, 0, 54, 87
1, 22134, Note_on_c, 0, 42, 85
1, 22141, Note_on_c, 0, 73, 84
1, 22143, Note_on_c, 0, 61, 78
1, 22144, Note_on_c, 0, 67, 74
1, 22146, Note_on_c, 0, 69, 59
1, 22197, Note_off_c, 0, 54, 61
1, 22201, Note_off_c, 0, 67, 60
1, 22209, Note_off_c, 0, 42, 61
1, 22209, Note_off_c, 0, 61, 56
1, 22239, Note_off_c, 0, 69, 32
1, 22257, Note_off_c, 0, 73, 59
1, 22273, Note_on_c, 0, 52, 87
1, 22274, Note_on_c, 0, 40, 84
1, 22342, Note_off_c, 0, 52, 58
1, 22366, Note_off_c, 0, 40, 60
1, 22485, Control_c, 0, 64, 98
1, 22500, Control_c, 0, 64, 67
1, 22511, Note_on_c, 0, 45, 93
1, 22513, Note_on_c, 0, 38, 92
1, 22515, Control_c, 0, 64, 0
1, 22618, Control_c, 0, 64, 46
1, 22633, Control_c, 0, 64, 82
1, 22647, Control_c, 0, 64, 127
1, 22674, Note_off_c, 0, 38, 64
1, 22689, Note_off_c, 0, 45, 61
1, 22951, Note_on_c, 0, 90, 91
1, 22987, Note_on_c, 0, 78, 48
1, 23094, Note_off_c, 0, 78, 58
1, 23129, Note_off_c, 0, 90, 61
1, 23131, Note_on_c, 0, 103, 81
1, 23145, Note_on_c, 0, 81, 46
1, 23225, Note_on_c, 0, 78, 56
1, 23228, Note_on_c, 0, 102, 78
1, 23234, Note_off_c, 0, 81, 42
1, 23273, Note_off_c, 0, 103, 60
1, 23279, Note_off_c, 0, 78, 59
1, 23303, Note_off_c, 0, 102, 63
1, 23321, Note_on_c, 0, 76, 55
1, 23324, Note_on_c, 0, 88, 80
1, 23357, Note_off_c, 0, 76, 64
1, 23380, Note_off_c, 0, 88, 65
1, 23405, Note_on_c, 0, 79, 59
1, 23405, Note_on_c, 0, 102, 77
1, 23446, Note_off_c, 0, 79, 63
1, 23470, Note_on_c, 0, 100, 71
1, 23473, Note_on_c, 0, 76, 61
1, 23511, Note_off_c, 0, 102, 59
1, 23517, Note_off_c, 0, 100, 68
1, 23522, Note_off_c, 0, 76, 61
1, 23556, Note_on_c, 0, 86, 73
1, 23557, Note_on_c, 0, 74, 60
1, 23591, Note_off_c, 0, 74, 65
1, 23613, Note_off_c, 0, 86, 61
1, 23630, Note_on_c, 0, 100, 73
1, 23636, Note_on_c, 0, 78, 57
1, 23671, Note_off_c, 0, 78, 61
1, 23702, Note_on_c, 0, 74, 56
1, 23723, Note_on_c, 0, 98, 57
1, 23736, Note_off_c, 0, 100, 58
1, 23746, Note_off_c, 0, 98, 65
1, 23773, Note_off_c, 0, 74, 60
1, 23774, Note_on_c, 0, 85, 77
1, 23777, Note_on_c, 0, 73, 63
1, 23780, Poly_aftertouch_c, 0, 97, 0
1, 23804, Control_c, 0, 64, 110
1, 23819, Control_c, 0, 64, 82
1, 23832, Note_off_c, 0, 73, 59
1, 23834, Control_c, 0, 64, 70
1, 23839, Note_off_c, 0, 85, 59
1, 23844, Note_on_c, 0, 98, 71
1, 23850, Control_c, 0, 64, 65
1, 23869, Note_on_c, 0, 76, 59
1, 23880, Control_c, 0, 64, 67
1, 23894, Control_c, 0, 64, 71
1, 23908, Note_off_c, 0, 76, 61
1, 23909, Control_c, 0, 64, 76
1, 23923, Note_on_c, 0, 97, 64
1, 23924, Control_c, 0, 64, 82
1, 23928, Note_on_c, 0, 73, 53
1, 23939, Control_c, 0, 64, 88
1, 23953, Control_c, 0, 64, 92
1, 23956, Note_off_c, 0, 98, 65
1, 23960, Note_off_c, 0, 97, 63
1, 23963, Note_off_c, 0, 73, 62
1, 23985, Note_on_c, 0, 71, 57
1, 23997, Note_on_c, 0, 83, 70
1, 24023, Note_off_c, 0, 71, 64
1, 24048, Note_off_c, 0, 83, 64
1, 24068, Note_on_c, 0, 74, 56
1, 24072, Note_on_c, 0, 97, 70
1, 24111, Note_off_c, 0, 74, 49
1, 24117, Control_c, 0, 64, 93
1, 24137, Note_on_c, 0, 71, 66
1, 24141, Note_on_c, 0, 95, 59
1, 24157, Note_off_c, 0, 97, 54
1, 24162, Note_off_c, 0, 95, 66
1, 24182, Note_off_c, 0, 71, 58
1, 24190, Note_on_c, 0, 94, 25
1, 24204, Note_on_c, 0, 69, 64
1, 24206, Control_c, 0, 64, 90
1, 24215, Note_on_c, 0, 81, 73
1, 24220, Control_c, 0, 64, 84
1, 24231, Note_off_c, 0, 94, 45
1, 24235, Control_c, 0, 64, 76
1, 24250, Control_c, 0, 64, 72
1, 24260, Note_off_c, 0, 69, 62
1, 24265, Note_off_c, 0, 81, 63
1, 24265, Control_c, 0, 64, 71
1, 24280, Control_c, 0, 64, 71
1, 24288, Note_on_c, 0, 73, 65
1, 24294, Control_c, 0, 64, 73
1, 24295, Note_on_c, 0, 95, 66
1, 24309, Control_c, 0, 64, 76
1, 24324, Control_c, 0, 64, 81
1, 24328, Note_off_c, 0, 73, 60
1, 24339, Control_c, 0, 64, 87
1, 24353, Control_c, 0, 64, 90
1, 24362, Note_on_c, 0, 93, 69
1, 24368, Control_c, 0, 64, 91
1, 24370, Note_on_c, 0, 69, 60
1, 24385, Note_off_c, 0, 95, 62
1, 24417, Note_off_c, 0, 93, 66
1, 24424, Note_off_c, 0, 69, 57
1, 24438, Note_on_c, 0, 67, 62
1, 24453, Note_on_c, 0, 79, 53
1, 24479, Control_c, 0, 64, 91
1, 24495, Note_off_c, 0, 79, 52
1, 24515, Note_off_c, 0, 67, 59
1, 24519, Note_on_c, 0, 93, 69
1, 24539, Control_c, 0, 64, 90
1, 24546, Note_on_c, 0, 71, 54
1, 24568, Control_c, 0, 64, 90
1, 24583, Control_c, 0, 64, 89
1, 24588, Note_off_c, 0, 71, 60
1, 24593, Note_off_c, 0, 93, 64
1, 24598, Control_c, 0, 64, 89
1, 24615, Note_on_c, 0, 91, 35
1, 24627, Control_c, 0, 64, 88
1, 24643, Control_c, 0, 64, 86
1, 24651, Note_off_c, 0, 91, 53
1, 24658, Note_on_c, 0, 67, 28
1, 24658, Control_c, 0, 64, 78
1, 24665, Note_on_c, 0, 78, 64
1, 24666, Note_on_c, 0, 69, 43
1, 24673, Control_c, 0, 64, 62
1, 24688, Control_c, 0, 64, 0
1, 24724, Note_off_c, 0, 69, 42
1, 24742, Note_on_c, 0, 66, 62
1, 24742, Note_on_c, 0, 90, 73
1, 24748, Note_off_c, 0, 67, 45
1, 24776, Control_c, 0, 64, 52
1, 24791, Control_c, 0, 64, 69
1, 24803, Note_off_c, 0, 78, 58
1, 24806, Control_c, 0, 64, 78
1, 24821, Control_c, 0, 64, 91
1, 24823, Note_off_c, 0, 90, 59
1, 24836, Control_c, 0, 64, 99
1, 24850, Control_c, 0, 64, 105
1, 24880, Control_c, 0, 64, 108
1, 24909, Control_c, 0, 64, 114
1, 24917, Note_on_c, 0, 69, 59
1, 24919, Note_on_c, 0, 88, 74
1, 24924, Control_c, 0, 64, 127
1, 24928, Note_on_c, 0, 76, 64
1, 24960, Note_off_c, 0, 66, 56
1, 24974, Note_off_c, 0, 76, 60
1, 24980, Note_off_c, 0, 88, 62
1, 25061, Note_on_c, 0, 64, 70
1, 25066, Note_on_c, 0, 86, 73
1, 25075, Note_on_c, 0, 74, 72
1, 25088, Note_off_c, 0, 69, 49
1, 25102, Control_c, 0, 64, 100
1, 25108, Note_off_c, 0, 74, 59
1, 25117, Control_c, 0, 64, 86
1, 25132, Control_c, 0, 64, 77
1, 25142, Note_off_c, 0, 86, 50
1, 25147, Control_c, 0, 64, 72
1, 25176, Control_c, 0, 64, 74
1, 25191, Control_c, 0, 64, 78
1, 25195, Note_on_c, 0, 67, 75
1, 25204, Note_on_c, 0, 88, 89
1, 25206, Control_c, 0, 64, 85
1, 25219, Note_on_c, 0, 76, 72
1, 25228, Control_c, 0, 64, 96
1, 25243, Control_c, 0, 64, 114
1, 25256, Note_off_c, 0, 76, 59
1, 25258, Control_c, 0, 64, 127
1, 25259, Note_off_c, 0, 64, 54
1, 25324, Note_off_c, 0, 88, 64
1, 25332, Note_on_c, 0, 66, 77
1, 25338, Note_on_c, 0, 90, 87
1, 25344, Note_on_c, 0, 78, 79
1, 25357, Note_off_c, 0, 67, 57
1, 25401, Note_off_c, 0, 78, 61
1, 25464, Note_on_c, 0, 69, 70
1, 25466, Note_on_c, 0, 91, 90
1, 25473, Note_on_c, 0, 79, 86
1, 25476, Note_off_c, 0, 90, 32
1, 25498, Note_off_c, 0, 66, 55
1, 25518, Note_off_c, 0, 79, 63
1, 25554, Note_off_c, 0, 69, 57
1, 25556, Note_off_c, 0, 91, 59
1, 25595, Note_on_c, 0, 67, 71
1, 25604, Note_on_c, 0, 93, 96
1, 25607, Note_on_c, 0, 81, 90
1, 25658, Note_off_c, 0, 81, 62
1, 25683, Note_off_c, 0, 93, 59
1, 25699, Note_off_c, 0, 67, 64
1, 25740, Note_on_c, 0, 95, 88
1, 25744, Note_on_c, 0, 83, 88
1, 25804, Note_off_c, 0, 83, 59
1, 25811, Note_off_c, 0, 95, 62
1, 25896, Control_c, 0, 64, 115
1, 25910, Control_c, 0, 64, 67
1, 25920, Note_on_c, 0, 35, 93
1, 25925, Control_c, 0, 64, 0
1, 25926, Note_on_c, 0, 42, 77
1, 25926, Note_on_c, 0, 85, 96
1, 25928, Note_on_c, 0, 97, 99
1, 25929, Note_on_c, 0, 90, 85
1, 25946, Note_off_c, 0, 35, 68
1, 25949, Note_off_c, 0, 42, 67
1, 25977, Control_c, 0, 64, 33
1, 25992, Control_c, 0, 64, 64
1, 26006, Control_c, 0, 64, 99
1, 26021, Control_c, 0, 64, 127
1, 26069, Note_off_c, 0, 97, 58
1, 26126, Note_on_c, 0, 87, 91
1, 26131, Note_off_c, 0, 85, 0
1, 26131, Note_on_c, 0, 85, 31
1, 26160, Note_off_c, 0, 90, 62
1, 26161, Note_off_c, 0, 85, 62
1, 26270, Note_on_c, 0, 59, 83
1, 26271, Note_on_c, 0, 51, 83
1, 26277, Note_on_c, 0, 92, 85
1, 26279, Note_on_c, 0, 85, 82
1, 26281, Note_on_c, 0, 97, 81
1, 26300, Note_off_c, 0, 87, 63
1, 26349, Note_off_c, 0, 85, 57
1, 26373, Note_off_c, 0, 97, 55
1, 26398, Note_on_c, 0, 87, 94
1, 26411, Note_on_c, 0, 85, 45
1, 26439, Note_off_c, 0, 85, 61
1, 26443, Note_off_c, 0, 92, 62
1, 26557, Note_on_c, 0, 90, 86
1, 26558, Note_on_c, 0, 85, 76
1, 26560, Note_off_c, 0, 51, 61
1, 26561, Note_on_c, 0, 66, 90
1, 26562, Note_on_c, 0, 97, 81
1, 26571, Note_off_c, 0, 87, 63
1, 26598, Note_off_c, 0, 59, 60
1, 26599, Note_off_c, 0, 97, 57
1, 26608, Note_off_c, 0, 90, 63
1, 26614, Note_off_c, 0, 85, 63
1, 26775, Note_off_c, 0, 66, 58
1, 26832, Note_on_c, 0, 52, 76
1, 26832, Note_on_c, 0, 61, 77
1, 26836, Note_on_c, 0, 88, 87
1, 26840, Note_on_c, 0, 83, 80
1, 26859, Note_off_c, 0, 61, 67
1, 26880, Note_off_c, 0, 52, 63
1, 26948, Control_c, 0, 64, 104
1, 26963, Control_c, 0, 64, 68
1, 26968, Note_on_c, 0, 95, 80
1, 26969, Note_on_c, 0, 92, 84
1, 26978, Control_c, 0, 64, 0
1, 26984, Note_off_c, 0, 88, 60
1, 27004, Note_off_c, 0, 83, 62
1, 27028, Note_off_c, 0, 95, 65
1, 27035, Note_off_c, 0, 92, 64
1, 27135, Note_on_c, 0, 42, 84
1, 27136, Note_on_c, 0, 35, 85
1, 27136, Note_on_c, 0, 85, 98
1, 27139, Note_on_c, 0, 90, 85
1, 27139, Note_on_c, 0, 97, 91
1, 27157, Control_c, 0, 64, 52
1, 27169, Note_off_c, 0, 35, 64
1, 27171, Control_c, 0, 64, 127
1, 27176, Note_off_c, 0, 42, 62
1, 27271, Note_off_c, 0, 97, 52
1, 27311, Note_on_c, 0, 87, 87
1, 27349, Note_off_c, 0, 90, 61
1, 27356, Note_off_c, 0, 85, 55
1, 27437, Note_on_c, 0, 59, 77
1, 27440, Note_on_c, 0, 51, 79
1, 27452, Note_on_c, 0, 85, 78
1, 27455, Note_on_c, 0, 92, 75
1, 27471, Note_on_c, 0, 97, 64
1, 27472, Note_off_c, 0, 87, 30
1, 27535, Note_off_c, 0, 85, 57
1, 27535, Note_off_c, 0, 97, 57
1, 27552, Note_off_c, 0, 92, 54
1, 27582, Note_on_c, 0, 87, 86
1, 27610, Note_on_c, 0, 85, 23
1, 27652, Note_off_c, 0, 85, 40
1, 27706, Note_off_c, 0, 87, 55
1, 27720, Note_off_c, 0, 51, 60
1, 27722, Note_on_c, 0, 66, 87
1, 27727, Note_on_c, 0, 85, 74
1, 27729, Note_on_c, 0, 90, 80
1, 27734, Note_on_c, 0, 97, 75
1, 27756, Note_off_c, 0, 97, 69
1, 27758, Note_off_c, 0, 85, 62
1, 27762, Note_off_c, 0, 90, 58
1, 27765, Note_off_c, 0, 59, 61
1, 27965, Control_c, 0, 64, 113
1, 27980, Control_c, 0, 64, 80
1, 27994, Control_c, 0, 64, 62
1, 28007, Note_on_c, 0, 56, 69
1, 28008, Note_on_c, 0, 52, 74
1, 28009, Control_c, 0, 64, 36
1, 28013, Note_on_c, 0, 61, 80
1, 28018, Note_on_c, 0, 92, 82
1, 28019, Note_on_c, 0, 87, 76
1, 28024, Control_c, 0, 64, 0
1, 28068, Control_c, 0, 64, 39
1, 28083, Control_c, 0, 64, 54
1, 28099, Control_c, 0, 64, 63
1, 28104, Note_off_c, 0, 52, 61
1, 28107, Note_off_c, 0, 61, 61
1, 28113, Control_c, 0, 64, 68
1, 28126, Note_off_c, 0, 56, 61
1, 28128, Control_c, 0, 64, 77
1, 28143, Control_c, 0, 64, 87
1, 28157, Note_off_c, 0, 92, 38
1, 28158, Control_c, 0, 64, 101
1, 28167, Note_on_c, 0, 99, 72
1, 28168, Note_on_c, 0, 94, 74
1, 28173, Control_c, 0, 64, 127
1, 28185, Note_off_c, 0, 87, 20
1, 28196, Note_off_c, 0, 94, 63
1, 28203, Note_off_c, 0, 99, 59
1, 28269, Control_c, 0, 64, 99
1, 28284, Control_c, 0, 64, 78
1, 28299, Control_c, 0, 64, 65
1, 28300, Note_on_c, 0, 59, 70
1, 28302, Note_on_c, 0, 51, 73
1, 28313, Note_on_c, 0, 92, 81
1, 28313, Control_c, 0, 64, 56
1, 28314, Note_on_c, 0, 97, 79
1, 28328, Control_c, 0, 64, 55
1, 28343, Control_c, 0, 64, 61
1, 28351, Note_off_c, 0, 66, 63
1, 28358, Control_c, 0, 64, 68
1, 28370, Note_off_c, 0, 59, 62
1, 28373, Control_c, 0, 64, 77
1, 28379, Note_off_c, 0, 51, 61
1, 28388, Control_c, 0, 64, 90
1, 28402, Control_c, 0, 64, 109
1, 28412, Note_off_c, 0, 97, 62
1, 28417, Control_c, 0, 64, 127
1, 28454, Note_off_c, 0, 92, 53
1, 28457, Note_on_c, 0, 90, 68
1, 28463, Note_on_c, 0, 85, 60
1, 28474, Note_on_c, 0, 56, 52
1, 28481, Note_on_c, 0, 52, 69
1, 28488, Note_off_c, 0, 85, 57
1, 28503, Note_off_c, 0, 90, 54
1, 28526, Note_on_c, 0, 61, 71
1, 28535, Control_c, 0, 64, 89
1, 28550, Control_c, 0, 64, 68
1, 28565, Control_c, 0, 64, 48
1, 28580, Note_on_c, 0, 66, 88
1, 28580, Control_c, 0, 64, 0
1, 28596, Note_on_c, 0, 92, 71
1, 28602, Note_on_c, 0, 87, 65
1, 28627, Note_off_c, 0, 52, 61
1, 28640, Control_c, 0, 64, 45
1, 28646, Note_off_c, 0, 87, 57
1, 28655, Control_c, 0, 64, 60
1, 28662, Note_off_c, 0, 92, 61
1, 28669, Control_c, 0, 64, 69
1, 28681, Note_off_c, 0, 61, 52
1, 28684, Control_c, 0, 64, 78
1, 28689, Note_off_c, 0, 56, 61
1, 28699, Control_c, 0, 64, 91
1, 28714, Control_c, 0, 64, 107
1, 28728, Note_on_c, 0, 94, 74
1, 28729, Control_c, 0, 64, 127
1, 28734, Note_on_c, 0, 99, 72
1, 28761, Note_off_c, 0, 99, 63
1, 28766, Note_off_c, 0, 94, 61
1, 28803, Control_c, 0, 64, 98
1, 28817, Control_c, 0, 64, 74
1, 28832, Control_c, 0, 64, 58
1, 28838, Note_on_c, 0, 59, 69
1, 28842, Note_on_c, 0, 51, 71
1, 28846, Control_c, 0, 64, 47
1, 28851, Note_on_c, 0, 97, 76
1, 28852, Note_on_c, 0, 92, 75
1, 28860, Control_c, 0, 64, 52
1, 28875, Control_c, 0, 64, 61
1, 28890, Control_c, 0, 64, 69
1, 28904, Note_off_c, 0, 59, 61
1, 28904, Note_off_c, 0, 66, 61
1, 28905, Control_c, 0, 64, 79
1, 28908, Note_off_c, 0, 51, 60
1, 28920, Control_c, 0, 64, 94
1, 28931, Note_off_c, 0, 97, 58
1, 28934, Control_c, 0, 64, 127
1, 28979, Note_on_c, 0, 90, 76
1, 28981, Note_on_c, 0, 56, 52
1, 28982, Note_on_c, 0, 85, 71
1, 28996, Note_off_c, 0, 92, 61
1, 29014, Note_off_c, 0, 85, 63
1, 29017, Note_on_c, 0, 52, 71
1, 29029, Note_off_c, 0, 90, 63
1, 29046, Control_c, 0, 64, 120
1, 29059, Note_on_c, 0, 61, 70
1, 29061, Control_c, 0, 64, 80
1, 29075, Control_c, 0, 64, 60
1, 29090, Control_c, 0, 64, 0
1, 29105, Note_on_c, 0, 66, 83
1, 29112, Note_on_c, 0, 92, 80
1, 29118, Note_on_c, 0, 87, 67
1, 29137, Note_off_c, 0, 52, 61
1, 29149, Control_c, 0, 64, 49
1, 29164, Control_c, 0, 64, 63
1, 29166, Note_off_c, 0, 87, 52
1, 29175, Note_off_c, 0, 61, 60
1, 29178, Note_off_c, 0, 56, 58
1, 29179, Control_c, 0, 64, 71
1, 29184, Note_off_c, 0, 92, 59
1, 29194, Control_c, 0, 64, 80
1, 29209, Control_c, 0, 64, 91
1, 29223, Control_c, 0, 64, 104
1, 29233, Note_on_c, 0, 99, 77
1, 29237, Note_on_c, 0, 94, 72
1, 29238, Control_c, 0, 64, 127
1, 29265, Note_off_c, 0, 94, 64
1, 29271, Note_off_c, 0, 99, 59
1, 29282, Control_c, 0, 64, 120
1, 29297, Control_c, 0, 64, 92
1, 29312, Control_c, 0, 64, 69
1, 29327, Control_c, 0, 64, 37
1, 29342, Control_c, 0, 64, 0
1, 29354, Note_on_c, 0, 59, 69
1, 29357, Note_on_c, 0, 51, 70
1, 29366, Note_on_c, 0, 92, 77
1, 29369, Note_on_c, 0, 97, 74
1, 29386, Control_c, 0, 64, 43
1, 29401, Control_c, 0, 64, 61
1, 29415, Note_off_c, 0, 66, 62
1, 29416, Control_c, 0, 64, 71
1, 29420, Note_off_c, 0, 51, 62
1, 29424, Note_off_c, 0, 97, 57
1, 29431, Control_c, 0, 64, 89
1, 29446, Control_c, 0, 64, 120
1, 29461, Control_c, 0, 64, 127
1, 29464, Note_off_c, 0, 59, 38
1, 29486, Note_on_c, 0, 85, 72
1, 29509, Note_off_c, 0, 92, 58
1, 29519, Note_on_c, 0, 52, 73
1, 29536, Note_off_c, 0, 85, 56
1, 29551, Control_c, 0, 64, 107
1, 29565, Control_c, 0, 64, 76
1, 29568, Note_on_c, 0, 59, 60
1, 29580, Control_c, 0, 64, 56
1, 29595, Control_c, 0, 64, 0
1, 29621, Note_on_c, 0, 88, 63
1, 29622, Note_on_c, 0, 83, 73
1, 29624, Note_on_c, 0, 68, 80
1, 29639, Control_c, 0, 64, 29
1, 29642, Note_off_c, 0, 52, 63
1, 29654, Control_c, 0, 64, 50
1, 29669, Control_c, 0, 64, 63
1, 29683, Control_c, 0, 64, 71
1, 29685, Note_off_c, 0, 68, 64
1, 29698, Control_c, 0, 64, 81
1, 29721, Control_c, 0, 64, 92
1, 29723, Note_off_c, 0, 83, 38
1, 29736, Control_c, 0, 64, 107
1, 29746, Note_off_c, 0, 59, 39
1, 29747, Note_on_c, 0, 90, 74
1, 29750, Control_c, 0, 64, 127
1, 29756, Note_on_c, 0, 95, 46
1, 29767, Note_off_c, 0, 88, 51
1, 29781, Note_off_c, 0, 95, 59
1, 29783, Note_off_c, 0, 90, 57
1, 29784, Note_on_c, 0, 96, 32
1, 29795, Control_c, 0, 64, 107
1, 29810, Control_c, 0, 64, 80
1, 29821, Note_off_c, 0, 96, 32
1, 29825, Control_c, 0, 64, 62
1, 29839, Control_c, 0, 64, 0
1, 29866, Note_on_c, 0, 59, 62
1, 29872, Note_on_c, 0, 53, 67
1, 29876, Note_on_c, 0, 63, 70
1, 29883, Note_on_c, 0, 89, 68
1, 29885, Note_on_c, 0, 94, 66
1, 29913, Control_c, 0, 64, 43
1, 29928, Control_c, 0, 64, 60
1, 29943, Control_c, 0, 64, 68
1, 29947, Note_off_c, 0, 59, 61
1, 29958, Control_c, 0, 64, 75
1, 29972, Control_c, 0, 64, 83
1, 29974, Note_off_c, 0, 94, 46
1, 29987, Control_c, 0, 64, 93
1, 29993, Note_off_c, 0, 53, 61
1, 30000, Note_on_c, 0, 87, 74
1, 30002, Control_c, 0, 64, 125
1, 30003, Note_on_c, 0, 82, 73
1, 30013, Note_off_c, 0, 63, 60
1, 30016, Control_c, 0, 64, 127
1, 30022, Note_off_c, 0, 89, 32
1, 30033, Note_off_c, 0, 82, 60
1, 30051, Note_off_c, 0, 87, 62
1, 30061, Control_c, 0, 64, 96
1, 30076, Control_c, 0, 64, 64
1, 30090, Control_c, 0, 64, 0
1, 30127, Note_on_c, 0, 64, 61
1, 30128, Note_on_c, 0, 54, 67
1, 30130, Note_on_c, 0, 85, 73
1, 30131, Note_on_c, 0, 58, 60
1, 30138, Note_on_c, 0, 80, 63
1, 30150, Control_c, 0, 64, 36
1, 30165, Control_c, 0, 64, 58
1, 30180, Control_c, 0, 64, 68
1, 30195, Control_c, 0, 64, 78
1, 30204, Note_off_c, 0, 54, 63
1, 30209, Control_c, 0, 64, 101
1, 30224, Control_c, 0, 64, 127
1, 30243, Note_on_c, 0, 87, 66
1, 30246, Note_on_c, 0, 92, 69
1, 30253, Note_off_c, 0, 64, 54
1, 30268, Note_off_c, 0, 85, 54
1, 30272, Note_off_c, 0, 58, 59
1, 30283, Note_off_c, 0, 87, 57
1, 30289, Note_off_c, 0, 80, 22
1, 30290, Note_off_c, 0, 92, 54
1, 30329, Control_c, 0, 64, 76
1, 30344, Control_c, 0, 64, 55
1, 30359, Control_c, 0, 64, 0
1, 30370, Note_on_c, 0, 64, 68
1, 30372, Note_on_c, 0, 55, 66
1, 30379, Note_on_c, 0, 91, 71
1, 30379, Note_on_c, 0, 58, 68
1, 30380, Note_on_c, 0, 86, 67
1, 30403, Control_c, 0, 64, 37
1, 30418, Control_c, 0, 64, 57
1, 30430, Note_off_c, 0, 55, 61
1, 30432, Note_off_c, 0, 64, 63
1, 30432, Control_c, 0, 64, 69
1, 30436, Note_off_c, 0, 58, 60
1, 30447, Control_c, 0, 64, 81
1, 30449, Note_off_c, 0, 91, 56
1, 30469, Control_c, 0, 64, 103
1, 30484, Control_c, 0, 64, 127
1, 30505, Note_on_c, 0, 84, 75
1, 30507, Note_on_c, 0, 79, 70
1, 30510, Note_off_c, 0, 86, 30
1, 30537, Note_off_c, 0, 79, 66
1, 30560, Note_off_c, 0, 84, 62
1, 30573, Control_c, 0, 64, 89
1, 30588, Control_c, 0, 64, 69
1, 30603, Control_c, 0, 64, 57
1, 30618, Control_c, 0, 64, 47
1, 30624, Note_on_c, 0, 59, 66
1, 30626, Note_on_c, 0, 56, 70
1, 30632, Control_c, 0, 64, 49
1, 30639, Note_on_c, 0, 83, 71
1, 30642, Note_on_c, 0, 63, 62
1, 30645, Note_on_c, 0, 78, 64
1, 30647, Control_c, 0, 64, 57
1, 30662, Control_c, 0, 64, 63
1, 30677, Control_c, 0, 64, 70
1, 30692, Control_c, 0, 64, 80
1, 30698, Note_off_c, 0, 63, 48
1, 30707, Control_c, 0, 64, 96
1, 30721, Control_c, 0, 64, 127
1, 30747, Note_on_c, 0, 57, 77
1, 30752, Note_on_c, 0, 85, 74
1, 30756, Note_on_c, 0, 90, 70
1, 30763, Note_off_c, 0, 78, 0
1, 30777, Note_off_c, 0, 83, 50
1, 30785, Note_off_c, 0, 59, 37
1, 30791, Note_off_c, 0, 85, 57
1, 30800, Poly_aftertouch_c, 0, 78, 127
1, 30805, Note_off_c, 0, 57, 62
1, 30806, Note_off_c, 0, 90, 50
1, 30809, Note_off_c, 0, 56, 23
1, 30810, Control_c, 0, 64, 78
1, 30824, Poly_aftertouch_c, 0, 78, 0
1, 30825, Control_c, 0, 64, 50
1, 30839, Control_c, 0, 64, 0
1, 30874, Note_on_c, 0, 58, 74
1, 30877, Note_on_c, 0, 62, 69
1, 30886, Note_on_c, 0, 84, 70
1, 30886, Note_on_c, 0, 89, 72
1, 30899, Control_c, 0, 64, 29
1, 30913, Control_c, 0, 64, 53
1, 30928, Control_c, 0, 64, 65
1, 30939, Note_off_c, 0, 58, 63
1, 30943, Note_off_c, 0, 62, 62
1, 30943, Control_c, 0, 64, 73
1, 30958, Note_off_c, 0, 89, 53
1, 30958, Control_c, 0, 64, 84
1, 30973, Control_c, 0, 64, 99
1, 30987, Control_c, 0, 64, 127
1, 31005, Note_on_c, 0, 82, 76
1, 31006, Note_on_c, 0, 77, 66
1, 31021, Note_off_c, 0, 84, 30
1, 31044, Note_off_c, 0, 77, 61
1, 31050, Note_off_c, 0, 82, 58
1, 31093, Control_c, 0, 64, 86
1, 31108, Control_c, 0, 64, 68
1, 31123, Control_c, 0, 64, 51
1, 31137, Note_on_c, 0, 64, 69
1, 31137, Control_c, 0, 64, 32
1, 31140, Note_on_c, 0, 61, 71
1, 31140, Note_on_c, 0, 69, 73
1, 31140, Note_on_c, 0, 81, 79
1, 31141, Note_on_c, 0, 76, 75
1, 31152, Control_c, 0, 64, 0
1, 31182, Control_c, 0, 64, 40
1, 31197, Control_c, 0, 64, 53
1, 31213, Note_off_c, 0, 81, 58
1, 31217, Note_off_c, 0, 64, 62
1, 31219, Control_c, 0, 64, 62
1, 31234, Control_c, 0, 64, 71
1, 31249, Control_c, 0, 64, 83
1, 31250, Note_off_c, 0, 69, 60
1, 31263, Note_on_c, 0, 88, 82
1, 31263, Control_c, 0, 64, 113
1, 31265, Note_on_c, 0, 83, 75
1, 31278, Control_c, 0, 64, 127
1, 31292, Note_off_c, 0, 61, 54
1, 31292, Note_off_c, 0, 76, 63
1, 31296, Note_off_c, 0, 83, 60
1, 31314, Note_off_c, 0, 88, 65
1, 31367, Control_c, 0, 64, 94
1, 31382, Control_c, 0, 64, 69
1, 31397, Note_on_c, 0, 67, 68
1, 31397, Control_c, 0, 64, 53
1, 31399, Note_on_c, 0, 63, 68
1, 31399, Note_on_c, 0, 70, 78
1, 31402, Note_on_c, 0, 87, 76
1, 31405, Note_on_c, 0, 82, 68
1, 31411, Control_c, 0, 64, 0
1, 31455, Control_c, 0, 64, 43
1, 31470, Control_c, 0, 64, 57
1, 31485, Control_c, 0, 64, 67
1, 31497, Note_off_c, 0, 67, 59
1, 31498, Note_off_c, 0, 87, 62
1, 31500, Control_c, 0, 64, 80
1, 31503, Note_off_c, 0, 70, 64
1, 31515, Note_on_c, 0, 80, 73
1, 31515, Control_c, 0, 64, 109
1, 31518, Note_off_c, 0, 63, 61
1, 31518, Note_on_c, 0, 75, 65
1, 31530, Note_off_c, 0, 82, 34
1, 31530, Control_c, 0, 64, 127
1, 31553, Note_off_c, 0, 75, 63
1, 31557, Note_off_c, 0, 80, 60
1, 31589, Control_c, 0, 64, 122
1, 31604, Control_c, 0, 64, 81
1, 31619, Control_c, 0, 64, 62
1, 31634, Control_c, 0, 64, 45
1, 31646, Note_on_c, 0, 68, 79
1, 31647, Note_on_c, 0, 64, 68
1, 31649, Control_c, 0, 64, 31
1, 31651, Note_on_c, 0, 78, 72
1, 31652, Note_on_c, 0, 58, 66
1, 31652, Note_on_c, 0, 73, 71
1, 31663, Control_c, 0, 64, 34
1, 31678, Control_c, 0, 64, 48
1, 31693, Control_c, 0, 64, 61
1, 31708, Control_c, 0, 64, 69
1, 31715, Note_off_c, 0, 78, 58
1, 31723, Control_c, 0, 64, 82
1, 31733, Note_off_c, 0, 64, 58
1, 31737, Control_c, 0, 64, 98
1, 31750, Note_off_c, 0, 73, 34
1, 31752, Control_c, 0, 64, 127
1, 31761, Note_on_c, 0, 80, 73
1, 31765, Note_on_c, 0, 85, 74
1, 31782, Note_off_c, 0, 68, 58
1, 31788, Note_off_c, 0, 80, 63
1, 31798, Note_off_c, 0, 85, 60
1, 31826, Control_c, 0, 64, 95
1, 31841, Control_c, 0, 64, 71
1, 31856, Control_c, 0, 64, 55
1, 31871, Control_c, 0, 64, 29
1, 31875, Note_off_c, 0, 58, 36
1, 31885, Control_c, 0, 64, 0
1, 31886, Note_on_c, 0, 67, 74
1, 31890, Note_on_c, 0, 63, 73
1, 31900, Note_on_c, 0, 87, 75
1, 31904, Note_on_c, 0, 82, 70
1, 31915, Control_c, 0, 64, 42
1, 31930, Control_c, 0, 64, 57
1, 31932, Note_off_c, 0, 63, 61
1, 31938, Note_off_c, 0, 67, 63
1, 31945, Note_off_c, 0, 82, 50
1, 31945, Control_c, 0, 64, 66
1, 31967, Control_c, 0, 64, 75
1, 31982, Control_c, 0, 64, 84
1, 31997, Note_off_c, 0, 87, 38
1, 31997, Control_c, 0, 64, 91
1, 32011, Control_c, 0, 64, 94
1, 32025, Note_on_c, 0, 80, 66
1, 32026, Control_c, 0, 64, 94
1, 32028, Note_on_c, 0, 75, 63
1, 32056, Control_c, 0, 64, 94
1, 32059, Note_off_c, 0, 75, 62
1, 32062, Note_off_c, 0, 80, 57
1, 32071, Control_c, 0, 64, 87
1, 32078, Note_on_c, 0, 54, 60
1, 32083, Note_on_c, 0, 58, 60
1, 32085, Control_c, 0, 64, 74
1, 32100, Control_c, 0, 64, 61
1, 32115, Control_c, 0, 64, 36
1, 32123, Note_on_c, 0, 64, 47
1, 32130, Control_c, 0, 64, 0
1, 32152, Note_on_c, 0, 68, 82
1, 32164, Note_on_c, 0, 73, 68
1, 32168, Note_on_c, 0, 78, 60
1, 32171, Note_off_c, 0, 54, 63
1, 32189, Control_c, 0, 64, 45
1, 32195, Note_off_c, 0, 58, 64
1, 32198, Note_off_c, 0, 64, 62
1, 32204, Control_c, 0, 64, 60
1, 32205, Note_off_c, 0, 78, 59
1, 32219, Control_c, 0, 64, 71
1, 32234, Control_c, 0, 64, 82
1, 32234, Note_off_c, 0, 68, 64
1, 32248, Control_c, 0, 64, 95
1, 32263, Control_c, 0, 64, 105
1, 32275, Note_on_c, 0, 80, 66
1, 32278, Control_c, 0, 64, 113
1, 32280, Note_on_c, 0, 85, 68
1, 32290, Note_off_c, 0, 73, 28
1, 32293, Control_c, 0, 64, 116
1, 32303, Note_off_c, 0, 80, 66
1, 32310, Note_off_c, 0, 85, 65
1, 32352, Control_c, 0, 64, 101
1, 32367, Control_c, 0, 64, 80
1, 32382, Control_c, 0, 64, 61
1, 32397, Control_c, 0, 64, 0
1, 32406, Note_on_c, 0, 63, 69
1, 32406, Note_on_c, 0, 70, 81
1, 32413, Note_on_c, 0, 59, 63
1, 32421, Note_on_c, 0, 87, 68
1, 32429, Note_on_c, 0, 82, 59
1, 32460, Note_off_c, 0, 82, 57
1, 32461, Note_off_c, 0, 87, 58
1, 32471, Control_c, 0, 64, 48
1, 32485, Control_c, 0, 64, 61
1, 32500, Control_c, 0, 64, 69
1, 32515, Control_c, 0, 64, 81
1, 32530, Control_c, 0, 64, 93
1, 32532, Note_on_c, 0, 80, 66
1, 32536, Note_on_c, 0, 75, 58
1, 32545, Control_c, 0, 64, 101
1, 32564, Note_off_c, 0, 80, 61
1, 32570, Note_off_c, 0, 75, 62
1, 32574, Control_c, 0, 64, 94
1, 32589, Control_c, 0, 64, 80
1, 32603, Control_c, 0, 64, 68
1, 32607, Note_off_c, 0, 59, 38
1, 32618, Control_c, 0, 64, 59
1, 32634, Control_c, 0, 64, 58
1, 32648, Note_on_c, 0, 68, 82
1, 32649, Control_c, 0, 64, 61
1, 32659, Note_off_c, 0, 70, 63
1, 32664, Control_c, 0, 64, 66
1, 32669, Note_on_c, 0, 78, 68
1, 32675, Note_off_c, 0, 68, 67
1, 32679, Control_c, 0, 64, 73
1, 32681, Note_on_c, 0, 73, 55
1, 32685, Note_off_c, 0, 63, 63
1, 32694, Control_c, 0, 64, 81
1, 32716, Control_c, 0, 64, 90
1, 32729, Note_off_c, 0, 78, 52
1, 32731, Control_c, 0, 64, 100
1, 32735, Note_off_c, 0, 73, 52
1, 32746, Control_c, 0, 64, 106
1, 32788, Note_on_c, 0, 80, 66
1, 32793, Note_on_c, 0, 85, 66
1, 32812, Note_off_c, 0, 80, 64
1, 32821, Note_off_c, 0, 85, 68
1, 32829, Note_on_c, 0, 49, 64
1, 32834, Control_c, 0, 64, 95
1, 32849, Control_c, 0, 64, 78
1, 32864, Control_c, 0, 64, 62
1, 32872, Note_on_c, 0, 56, 63
1, 32879, Control_c, 0, 64, 34
1, 32894, Control_c, 0, 64, 0
1, 32921, Note_on_c, 0, 66, 76
1, 32927, Note_on_c, 0, 87, 71
1, 32943, Note_on_c, 0, 82, 50
1, 32953, Control_c, 0, 64, 39
1, 32968, Control_c, 0, 64, 53
1, 32981, Note_off_c, 0, 82, 47
1, 32982, Control_c, 0, 64, 62
1, 32997, Control_c, 0, 64, 68
1, 33006, Note_off_c, 0, 87, 37
1, 33012, Control_c, 0, 64, 74
1, 33026, Note_off_c, 0, 66, 56
1, 33027, Control_c, 0, 64, 80
1, 33037, Note_on_c, 0, 80, 68
1, 33041, Control_c, 0, 64, 84
1, 33042, Note_on_c, 0, 75, 59
1, 33056, Control_c, 0, 64, 86
1, 33065, Note_off_c, 0, 80, 65
1, 33075, Note_off_c, 0, 75, 63
1, 33086, Control_c, 0, 64, 82
1, 33101, Control_c, 0, 64, 71
1, 33116, Control_c, 0, 64, 55
1, 33131, Control_c, 0, 64, 0
1, 33165, Note_on_c, 0, 65, 78
1, 33172, Note_on_c, 0, 78, 62
1, 33175, Note_on_c, 0, 82, 61
1, 33176, Note_off_c, 0, 49, 39
1, 33190, Control_c, 0, 64, 34
1, 33205, Control_c, 0, 64, 52
1, 33209, Note_off_c, 0, 56, 62
1, 33214, Note_off_c, 0, 78, 54
1, 33220, Control_c, 0, 64, 64
1, 33234, Control_c, 0, 64, 71
1, 33247, Note_off_c, 0, 65, 62
1, 33249, Control_c, 0, 64, 77
1, 33264, Control_c, 0, 64, 80
1, 33277, Note_off_c, 0, 82, 37
1, 33279, Control_c, 0, 64, 82
1, 33280, Note_on_c, 0, 77, 63
1, 33294, Control_c, 0, 64, 83
1, 33301, Note_on_c, 0, 70, 39
1, 33308, Control_c, 0, 64, 85
1, 33317, Note_off_c, 0, 77, 60
1, 33323, Control_c, 0, 64, 85
1, 33331, Note_off_c, 0, 70, 49
1, 33339, Control_c, 0, 64, 85
1, 33353, Control_c, 0, 64, 79
1, 33368, Control_c, 0, 64, 67
1, 33383, Control_c, 0, 64, 52
1, 33398, Control_c, 0, 64, 0
1, 33409, Note_on_c, 0, 66, 76
1, 33410, Note_on_c, 0, 54, 69
1, 33410, Note_on_c, 0, 58, 62
1, 33414, Note_on_c, 0, 78, 63
1, 33416, Note_on_c, 0, 82, 68
1, 33444, Control_c, 0, 64, 32
1, 33465, Control_c, 0, 64, 49
1, 33480, Control_c, 0, 64, 59
1, 33495, Control_c, 0, 64, 65
1, 33510, Control_c, 0, 64, 70
1, 33525, Control_c, 0, 64, 74
1, 33526, Note_off_c, 0, 82, 59
1, 33530, Note_on_c, 0, 77, 64
1, 33539, Control_c, 0, 64, 77
1, 33546, Note_on_c, 0, 70, 52
1, 33551, Note_off_c, 0, 78, 50
1, 33554, Control_c, 0, 64, 79
1, 33565, Note_off_c, 0, 77, 60
1, 33581, Note_off_c, 0, 70, 62
1, 33584, Control_c, 0, 64, 79
1, 33599, Control_c, 0, 64, 74
1, 33614, Control_c, 0, 64, 64
1, 33629, Control_c, 0, 64, 49
1, 33643, Control_c, 0, 64, 0
1, 33664, Note_on_c, 0, 61, 75
1, 33667, Note_on_c, 0, 78, 68
1, 33674, Note_off_c, 0, 54, 60
1, 33676, Note_on_c, 0, 75, 57
1, 33676, Note_off_c, 0, 66, 60
1, 33688, Control_c, 0, 64, 33
1, 33703, Control_c, 0, 64, 51
1, 33705, Note_off_c, 0, 58, 62
1, 33718, Control_c, 0, 64, 64
1, 33732, Control_c, 0, 64, 70
1, 33734, Note_off_c, 0, 61, 61
1, 33747, Control_c, 0, 64, 76
1, 33762, Control_c, 0, 64, 81
1, 33777, Note_off_c, 0, 78, 54
1, 33777, Control_c, 0, 64, 83
1, 33787, Note_on_c, 0, 73, 61
1, 33791, Control_c, 0, 64, 84
1, 33795, Note_off_c, 0, 75, 61
1, 33800, Note_on_c, 0, 66, 55
1, 33821, Control_c, 0, 64, 82
1, 33824, Note_off_c, 0, 73, 62
1, 33826, Note_off_c, 0, 66, 55
1, 33836, Control_c, 0, 64, 75
1, 33851, Control_c, 0, 64, 63
1, 33865, Control_c, 0, 64, 42
1, 33880, Control_c, 0, 64, 0
1, 33909, Note_on_c, 0, 54, 55
1, 33915, Note_on_c, 0, 75, 65
1, 33915, Note_on_c, 0, 78, 66
1, 33920, Note_on_c, 0, 63, 58
1, 33921, Note_on_c, 0, 51, 51
1, 33954, Control_c, 0, 64, 36
1, 33969, Control_c, 0, 64, 52
1, 33983, Control_c, 0, 64, 62
1, 33998, Control_c, 0, 64, 68
1, 34009, Note_off_c, 0, 78, 57
1, 34013, Control_c, 0, 64, 74
1, 34028, Control_c, 0, 64, 78
1, 34034, Note_on_c, 0, 73, 65
1, 34035, Note_off_c, 0, 75, 52
1, 34040, Note_on_c, 0, 66, 56
1, 34043, Control_c, 0, 64, 80
1, 34058, Control_c, 0, 64, 80
1, 34062, Note_off_c, 0, 73, 66
1, 34073, Control_c, 0, 64, 80
1, 34077, Note_off_c, 0, 66, 62
1, 34088, Control_c, 0, 64, 75
1, 34103, Control_c, 0, 64, 65
1, 34117, Control_c, 0, 64, 45
1, 34132, Control_c, 0, 64, 0
1, 34146, Note_off_c, 0, 63, 55
1, 34155, Note_on_c, 0, 58, 65
1, 34159, Note_on_c, 0, 75, 62
1, 34163, Note_on_c, 0, 71, 62
1, 34186, Note_off_c, 0, 54, 61
1, 34189, Note_off_c, 0, 51, 33
1, 34191, Control_c, 0, 64, 44
1, 34207, Note_off_c, 0, 58, 62
1, 34213, Control_c, 0, 64, 60
1, 34229, Control_c, 0, 64, 68
1, 34244, Control_c, 0, 64, 77
1, 34259, Control_c, 0, 64, 85
1, 34274, Control_c, 0, 64, 90
1, 34275, Note_off_c, 0, 75, 47
1, 34285, Note_off_c, 0, 71, 55
1, 34287, Note_on_c, 0, 63, 57
1, 34287, Note_on_c, 0, 70, 62
1, 34288, Control_c, 0, 64, 93
1, 34303, Control_c, 0, 64, 93
1, 34318, Control_c, 0, 64, 92
1, 34322, Note_off_c, 0, 70, 65
1, 34323, Note_off_c, 0, 63, 63
1, 34333, Control_c, 0, 64, 82
1, 34348, Control_c, 0, 64, 67
1, 34362, Control_c, 0, 64, 47
1, 34377, Control_c, 0, 64, 0
1, 34401, Note_on_c, 0, 47, 46
1, 34407, Note_on_c, 0, 59, 44
1, 34410, Note_on_c, 0, 75, 60
1, 34417, Note_on_c, 0, 71, 57
1, 34418, Note_on_c, 0, 51, 46
1, 34466, Control_c, 0, 64, 43
1, 34481, Control_c, 0, 64, 57
1, 34496, Control_c, 0, 64, 65
1, 34511, Control_c, 0, 64, 71
1, 34522, Note_off_c, 0, 75, 57
1, 34526, Control_c, 0, 64, 75
1, 34536, Note_on_c, 0, 70, 60
1, 34541, Note_on_c, 0, 63, 56
1, 34541, Control_c, 0, 64, 77
1, 34545, Note_off_c, 0, 71, 53
1, 34555, Control_c, 0, 64, 77
1, 34566, Note_off_c, 0, 70, 67
1, 34578, Note_off_c, 0, 63, 64
1, 34585, Control_c, 0, 64, 75
1, 34600, Control_c, 0, 64, 68
1, 34614, Control_c, 0, 64, 55
1, 34625, Note_off_c, 0, 59, 34
1, 34629, Control_c, 0, 64, 37
1, 34644, Note_off_c, 0, 47, 54
1, 34644, Control_c, 0, 64, 0
1, 34649, Note_on_c, 0, 54, 57
1, 34657, Note_on_c, 0, 68, 65
1, 34659, Control_c, 0, 64, 36
1, 34666, Note_on_c, 0, 71, 65
1, 34674, Control_c, 0, 64, 50
1, 34687, Note_off_c, 0, 51, 43
1, 34688, Control_c, 0, 64, 60
1, 34693, Note_off_c, 0, 54, 62
1, 34703, Control_c, 0, 64, 68
1, 34714, Note_off_c, 0, 68, 50
1, 34718, Control_c, 0, 64, 76
1, 34733, Control_c, 0, 64, 84
1, 34748, Control_c, 0, 64, 90
1, 34758, Note_off_c, 0, 71, 57
1, 34762, Control_c, 0, 64, 94
1, 34777, Control_c, 0, 64, 96
1, 34779, Note_on_c, 0, 66, 57
1, 34788, Note_on_c, 0, 59, 40
1, 34806, Control_c, 0, 64, 95
1, 34813, Note_off_c, 0, 66, 65
1, 34817, Note_off_c, 0, 59, 52
1, 34821, Control_c, 0, 64, 88
1, 34836, Control_c, 0, 64, 73
1, 34851, Control_c, 0, 64, 58
1, 34866, Control_c, 0, 64, 29
1, 34881, Control_c, 0, 64, 0
1, 34903, Note_on_c, 0, 56, 53
1, 34904, Note_on_c, 0, 71, 65
1, 34910, Note_on_c, 0, 68, 55
1, 34913, Note_on_c, 0, 47, 44
1, 34916, Note_on_c, 0, 44, 45
1, 34925, Control_c, 0, 64, 43
1, 34940, Control_c, 0, 64, 57
1, 34957, Note_off_c, 0, 68, 60
1, 34962, Control_c, 0, 64, 65
1, 34977, Control_c, 0, 64, 70
1, 34992, Control_c, 0, 64, 74
1, 34999, Note_off_c, 0, 71, 50
1, 35006, Control_c, 0, 64, 77
1, 35021, Control_c, 0, 64, 78
1, 35037, Control_c, 0, 64, 78
1, 35040, Note_on_c, 0, 59, 49
1, 35041, Note_on_c, 0, 66, 57
1, 35077, Note_off_c, 0, 66, 63
1, 35078, Note_off_c, 0, 59, 63
1, 35082, Control_c, 0, 64, 77
1, 35097, Control_c, 0, 64, 71
1, 35111, Control_c, 0, 64, 59
1, 35126, Control_c, 0, 64, 38
1, 35141, Control_c, 0, 64, 0
1, 35166, Note_off_c, 0, 56, 51
1, 35176, Note_on_c, 0, 51, 59
1, 35179, Note_on_c, 0, 71, 56
1, 35186, Note_on_c, 0, 68, 52
1, 35200, Control_c, 0, 64, 46
1, 35202, Note_off_c, 0, 47, 55
1, 35205, Note_off_c, 0, 51, 64
1, 35206, Note_off_c, 0, 44, 52
1, 35215, Control_c, 0, 64, 61
1, 35229, Note_off_c, 0, 68, 53
1, 35229, Control_c, 0, 64, 68
1, 35229, Control_c, 0, 67, 19
1, 35244, Control_c, 0, 64, 74
1, 35244, Control_c, 0, 67, 21
1, 35259, Control_c, 0, 64, 76
1, 35274, Control_c, 0, 64, 76
1, 35277, Note_off_c, 0, 71, 33
1, 35318, Note_on_c, 0, 66, 54
1, 35319, Control_c, 0, 64, 76
1, 35328, Note_on_c, 0, 59, 41
1, 35353, Note_off_c, 0, 66, 64
1, 35356, Note_off_c, 0, 59, 59
1, 35363, Control_c, 0, 64, 74
1, 35378, Control_c, 0, 64, 70
1, 35393, Control_c, 0, 64, 61
1, 35408, Control_c, 0, 64, 29
1, 35423, Control_c, 0, 64, 0
1, 35480, Note_on_c, 0, 37, 52
1, 35483, Note_on_c, 0, 59, 38
1, 35484, Note_on_c, 0, 65, 59
1, 35492, Note_on_c, 0, 49, 53
1, 35497, Control_c, 0, 64, 52
1, 35511, Control_c, 0, 64, 66
1, 35515, Note_off_c, 0, 37, 63
1, 35515, Note_off_c, 0, 59, 64
1, 35517, Note_off_c, 0, 65, 65
1, 35526, Control_c, 0, 64, 75
1, 35528, Note_off_c, 0, 49, 65
1, 35541, Control_c, 0, 64, 85
1, 35555, Control_c, 0, 64, 89
1, 35570, Control_c, 0, 64, 89
1, 35601, Control_c, 0, 64, 89
1, 35616, Control_c, 0, 64, 88
1, 35636, Note_on_c, 0, 56, 56
1, 35670, Note_off_c, 0, 56, 63
1, 35712, Control_c, 0, 64, 87
1, 35727, Control_c, 0, 64, 82
1, 35742, Control_c, 0, 64, 69
1, 35751, Note_on_c, 0, 66, 65
1, 35756, Control_c, 0, 64, 47
1, 35757, Note_on_c, 0, 58, 58
1, 35760, Note_on_c, 0, 61, 50
1, 35771, Control_c, 0, 64, 0
1, 35779, Note_off_c, 0, 66, 65
1, 35790, Note_off_c, 0, 58, 65
1, 35792, Note_off_c, 0, 61, 64
1, 35880, Note_on_c, 0, 68, 70
1, 35886, Note_on_c, 0, 59, 52
1, 35893, Note_on_c, 0, 63, 44
1, 35914, Note_off_c, 0, 68, 60
1, 35919, Note_off_c, 0, 59, 65
1, 35921, Note_off_c, 0, 63, 55
1, 36009, Control_c, 0, 64, 45
1, 36016, Note_on_c, 0, 61, 56
1, 36021, Note_on_c, 0, 65, 58
1, 36021, Note_on_c, 0, 70, 61
1, 36024, Control_c, 0, 64, 61
1, 36039, Control_c, 0, 64, 65
1, 36052, Note_off_c, 0, 65, 62
1, 36053, Control_c, 0, 64, 68
1, 36058, Note_off_c, 0, 70, 63
1, 36067, Note_off_c, 0, 61, 55
1, 36068, Control_c, 0, 64, 70
1, 36083, Control_c, 0, 64, 71
1, 36098, Control_c, 0, 64, 72
1, 36136, Note_on_c, 0, 58, 54
1, 36171, Control_c, 0, 64, 71
1, 36173, Note_off_c, 0, 58, 64
1, 36201, Control_c, 0, 64, 70
1, 36216, Control_c, 0, 64, 66
1, 36231, Control_c, 0, 64, 59
1, 36246, Control_c, 0, 64, 35
1, 36256, Note_on_c, 0, 63, 53
1, 36256, Note_on_c, 0, 71, 68
1, 36261, Control_c, 0, 64, 0
1, 36265, Note_on_c, 0, 66, 51
1, 36282, Note_off_c, 0, 63, 63
1, 36283, Note_off_c, 0, 71, 66
1, 36287, Note_off_c, 0, 66, 60
1, 36372, Note_on_c, 0, 65, 54
1, 36374, Note_on_c, 0, 73, 68
1, 36382, Note_on_c, 0, 68, 49
1, 36402, Note_off_c, 0, 73, 65
1, 36406, Note_off_c, 0, 68, 55
1, 36407, Note_off_c, 0, 65, 64
1, 36499, Note_on_c, 0, 66, 61
1, 36502, Note_on_c, 0, 75, 72
1, 36505, Control_c, 0, 64, 51
1, 36520, Control_c, 0, 64, 59
1, 36530, Note_off_c, 0, 75, 64
1, 36534, Control_c, 0, 64, 64
1, 36537, Note_off_c, 0, 66, 62
1, 36539, Note_on_c, 0, 70, 18
1, 36549, Control_c, 0, 64, 68
1, 36564, Control_c, 0, 64, 71
1, 36578, Control_c, 0, 64, 74
1, 36581, Note_off_c, 0, 70, 29
1, 36593, Control_c, 0, 64, 75
1, 36608, Control_c, 0, 64, 75
1, 36616, Note_on_c, 0, 56, 62
1, 36650, Note_off_c, 0, 56, 64
1, 36698, Control_c, 0, 64, 72
1, 36713, Control_c, 0, 64, 63
1, 36728, Control_c, 0, 64, 49
1, 36743, Control_c, 0, 64, 0
1, 36750, Note_on_c, 0, 77, 72
1, 36750, Note_on_c, 0, 68, 61
1, 36761, Note_on_c, 0, 71, 53
1, 36784, Note_off_c, 0, 68, 64
1, 36785, Note_off_c, 0, 71, 61
1, 36787, Control_c, 0, 64, 43
1, 36791, Note_off_c, 0, 77, 62
1, 36801, Control_c, 0, 64, 55
1, 36816, Control_c, 0, 64, 64
1, 36831, Control_c, 0, 64, 68
1, 36846, Control_c, 0, 64, 70
1, 36861, Control_c, 0, 64, 72
1, 36866, Note_on_c, 0, 70, 60
1, 36867, Note_on_c, 0, 78, 76
1, 36875, Note_on_c, 0, 73, 60
1, 36875, Control_c, 0, 64, 73
1, 36890, Control_c, 0, 64, 73
1, 36895, Note_off_c, 0, 73, 63
1, 36902, Note_off_c, 0, 70, 62
1, 36919, Note_off_c, 0, 78, 63
1, 36920, Control_c, 0, 67, 19
1, 36949, Control_c, 0, 64, 69
1, 36964, Control_c, 0, 64, 61
1, 36979, Control_c, 0, 64, 45
1, 36979, Control_c, 0, 67, 0
1, 36994, Control_c, 0, 64, 0
1, 37008, Note_on_c, 0, 80, 75
1, 37009, Note_on_c, 0, 75, 63
1, 37010, Note_on_c, 0, 71, 42
1, 37039, Control_c, 0, 64, 30
1, 37052, Note_off_c, 0, 75, 59
1, 37054, Control_c, 0, 64, 49
1, 37068, Control_c, 0, 64, 62
1, 37083, Control_c, 0, 64, 70
1, 37098, Control_c, 0, 64, 80
1, 37106, Note_off_c, 0, 80, 62
1, 37113, Control_c, 0, 64, 93
1, 37127, Note_off_c, 0, 71, 56
1, 37127, Control_c, 0, 64, 102
1, 37142, Control_c, 0, 64, 111
1, 37149, Note_on_c, 0, 66, 57
1, 37157, Control_c, 0, 64, 118
1, 37172, Control_c, 0, 64, 122
1, 37187, Control_c, 0, 64, 120
1, 37209, Control_c, 0, 64, 104
1, 37214, Note_off_c, 0, 66, 59
1, 37224, Control_c, 0, 64, 87
1, 37238, Control_c, 0, 64, 74
1, 37253, Control_c, 0, 64, 68
1, 37268, Control_c, 0, 64, 67
1, 37281, Note_on_c, 0, 82, 76
1, 37283, Control_c, 0, 64, 68
1, 37285, Note_on_c, 0, 73, 53
1, 37290, Note_on_c, 0, 77, 56
1, 37298, Control_c, 0, 64, 71
1, 37313, Control_c, 0, 64, 79
1, 37322, Note_off_c, 0, 77, 62
1, 37327, Control_c, 0, 64, 90
1, 37329, Note_off_c, 0, 73, 57
1, 37341, Note_off_c, 0, 82, 62
1, 37342, Control_c, 0, 64, 115
1, 37357, Control_c, 0, 64, 127
1, 37416, Note_on_c, 0, 75, 59
1, 37423, Note_on_c, 0, 83, 80
1, 37429, Note_on_c, 0, 78, 69
1, 37438, Note_off_c, 0, 75, 65
1, 37459, Note_off_c, 0, 78, 62
1, 37483, Note_off_c, 0, 83, 60
1, 37536, Control_c, 0, 64, 92
1, 37550, Control_c, 0, 64, 70
1, 37565, Control_c, 0, 64, 55
1, 37580, Control_c, 0, 64, 33
1, 37595, Control_c, 0, 64, 0
1, 37597, Note_on_c, 0, 65, 62
1, 37602, Note_on_c, 0, 85, 77
1, 37610, Control_c, 0, 64, 39
1, 37622, Note_on_c, 0, 80, 47
1, 37624, Control_c, 0, 64, 56
1, 37638, Note_off_c, 0, 65, 64
1, 37639, Control_c, 0, 64, 66
1, 37654, Control_c, 0, 64, 76
1, 37669, Control_c, 0, 64, 88
1, 37684, Control_c, 0, 64, 100
1, 37698, Control_c, 0, 64, 105
1, 37739, Note_off_c, 0, 85, 51
1, 37754, Note_off_c, 0, 80, 0
1, 37763, Note_on_c, 0, 77, 64
1, 37796, Poly_aftertouch_c, 0, 80, 0
1, 37802, Control_c, 0, 64, 102
1, 37812, Note_on_c, 0, 37, 67
1, 37817, Control_c, 0, 64, 90
1, 37832, Control_c, 0, 64, 78
1, 37839, Note_off_c, 0, 77, 59
1, 37847, Control_c, 0, 64, 70
1, 37861, Control_c, 0, 64, 65
1, 37876, Note_off_c, 0, 37, 61
1, 37879, Note_on_c, 0, 53, 75
1, 37891, Control_c, 0, 64, 66
1, 37897, Note_on_c, 0, 83, 61
1, 37906, Control_c, 0, 64, 69
1, 37915, Note_on_c, 0, 84, 60
1, 37921, Note_off_c, 0, 53, 61
1, 37921, Control_c, 0, 64, 73
1, 37936, Control_c, 0, 64, 78
1, 37939, Note_off_c, 0, 84, 56
1, 37957, Control_c, 0, 64, 84
1, 37972, Control_c, 0, 64, 91
1, 37987, Control_c, 0, 64, 97
1, 38002, Control_c, 0, 64, 102
1, 38022, Note_on_c, 0, 85, 77
1, 38036, Note_off_c, 0, 83, 45
1, 38073, Note_on_c, 0, 42, 68
1, 38075, Note_off_c, 0, 85, 63
1, 38091, Control_c, 0, 64, 92
1, 38106, Control_c, 0, 64, 75
1, 38121, Control_c, 0, 64, 62
1, 38136, Control_c, 0, 64, 44
1, 38147, Note_on_c, 0, 58, 76
1, 38150, Control_c, 0, 64, 0
1, 38154, Note_on_c, 0, 82, 77
1, 38177, Note_off_c, 0, 42, 62
1, 38180, Control_c, 0, 64, 40
1, 38182, Note_on_c, 0, 77, 43
1, 38195, Control_c, 0, 64, 56
1, 38210, Control_c, 0, 64, 64
1, 38225, Note_off_c, 0, 58, 64
1, 38225, Control_c, 0, 64, 72
1, 38233, Note_off_c, 0, 77, 50
1, 38240, Control_c, 0, 64, 84
1, 38255, Control_c, 0, 64, 100
1, 38270, Control_c, 0, 64, 127
1, 38282, Note_on_c, 0, 73, 74
1, 38315, Control_c, 0, 64, 120
1, 38321, Note_off_c, 0, 82, 59
1, 38329, Note_on_c, 0, 46, 70
1, 38329, Control_c, 0, 64, 91
1, 38344, Control_c, 0, 64, 73
1, 38359, Control_c, 0, 64, 60
1, 38371, Note_off_c, 0, 73, 48
1, 38373, Control_c, 0, 64, 48
1, 38388, Control_c, 0, 64, 47
1, 38397, Note_on_c, 0, 61, 77
1, 38398, Note_on_c, 0, 80, 74
1, 38403, Control_c, 0, 64, 55
1, 38413, Note_on_c, 0, 75, 55
1, 38413, Note_off_c, 0, 46, 63
1, 38418, Control_c, 0, 64, 61
1, 38433, Control_c, 0, 64, 67
1, 38447, Control_c, 0, 64, 73
1, 38456, Note_off_c, 0, 61, 61
1, 38458, Note_off_c, 0, 75, 56
1, 38462, Control_c, 0, 64, 83
1, 38477, Control_c, 0, 64, 93
1, 38492, Control_c, 0, 64, 104
1, 38507, Control_c, 0, 64, 112
1, 38521, Control_c, 0, 64, 114
1, 38529, Note_on_c, 0, 77, 62
1, 38541, Note_on_c, 0, 82, 53
1, 38551, Control_c, 0, 64, 112
1, 38553, Note_off_c, 0, 80, 61
1, 38562, Note_off_c, 0, 77, 53
1, 38562, Note_off_c, 0, 82, 60
1, 38565, Control_c, 0, 64, 98
1, 38569, Note_on_c, 0, 51, 66
1, 38581, Control_c, 0, 64, 80
1, 38596, Control_c, 0, 64, 64
1, 38611, Control_c, 0, 64, 49
1, 38626, Control_c, 0, 64, 36
1, 38641, Note_on_c, 0, 66, 72
1, 38641, Control_c, 0, 64, 36
1, 38655, Control_c, 0, 64, 44
1, 38663, Note_on_c, 0, 78, 76
1, 38663, Note_off_c, 0, 51, 62
1, 38670, Control_c, 0, 64, 56
1, 38681, Note_on_c, 0, 73, 49
1, 38685, Control_c, 0, 64, 63
1, 38707, Control_c, 0, 64, 71
1, 38710, Note_off_c, 0, 66, 61
1, 38722, Control_c, 0, 64, 80
1, 38737, Control_c, 0, 64, 90
1, 38752, Control_c, 0, 64, 98
1, 38758, Note_off_c, 0, 73, 46
1, 38767, Control_c, 0, 64, 103
1, 38779, Note_off_c, 0, 78, 54
1, 38790, Note_on_c, 0, 70, 68
1, 38811, Control_c, 0, 64, 93
1, 38821, Note_on_c, 0, 54, 59
1, 38826, Control_c, 0, 64, 77
1, 38833, Note_off_c, 0, 70, 57
1, 38841, Control_c, 0, 64, 63
1, 38855, Control_c, 0, 64, 46
1, 38870, Control_c, 0, 64, 0
1, 38898, Note_off_c, 0, 54, 54
1, 38905, Note_on_c, 0, 77, 65
1, 38911, Note_on_c, 0, 70, 57
1, 38914, Control_c, 0, 64, 44
1, 38929, Control_c, 0, 64, 57
1, 38937, Note_on_c, 0, 72, 36
1, 38944, Control_c, 0, 64, 65
1, 38957, Note_off_c, 0, 77, 62
1, 38959, Control_c, 0, 64, 73
1, 38960, Note_off_c, 0, 70, 59
1, 38970, Note_off_c, 0, 72, 43
1, 38973, Control_c, 0, 64, 81
1, 38988, Control_c, 0, 64, 87
1, 39003, Control_c, 0, 64, 90
1, 39019, Control_c, 0, 64, 90
1, 39034, Control_c, 0, 64, 91
1, 39036, Note_on_c, 0, 78, 71
1, 39040, Note_on_c, 0, 73, 60
1, 39071, Note_off_c, 0, 73, 65
1, 39078, Control_c, 0, 64, 90
1, 39086, Note_off_c, 0, 78, 52
1, 39093, Control_c, 0, 64, 84
1, 39108, Control_c, 0, 64, 69
1, 39122, Control_c, 0, 64, 46
1, 39137, Control_c, 0, 64, 0
1, 39172, Note_on_c, 0, 60, 43
1, 39185, Note_on_c, 0, 66, 42
1, 39185, Note_on_c, 0, 80, 63
1, 39211, Note_on_c, 0, 75, 34
1, 39242, Control_c, 0, 64, 30
1, 39257, Control_c, 0, 64, 60
1, 39271, Control_c, 0, 64, 73
1, 39274, Note_off_c, 0, 66, 60
1, 39275, Note_off_c, 0, 75, 40
1, 39286, Control_c, 0, 64, 85
1, 39301, Control_c, 0, 64, 101
1, 39306, Note_off_c, 0, 60, 62
1, 39316, Control_c, 0, 64, 106
1, 39319, Note_on_c, 0, 68, 61
1, 39342, Note_off_c, 0, 80, 48
1, 39363, Note_off_c, 0, 68, 59
1, 39390, Control_c, 0, 64, 90
1, 39404, Control_c, 0, 64, 69
1, 39419, Control_c, 0, 64, 53
1, 39434, Control_c, 0, 64, 29
1, 39456, Control_c, 0, 64, 0
1, 39459, Note_on_c, 0, 56, 55
1, 39459, Note_on_c, 0, 78, 63
1, 39465, Note_on_c, 0, 70, 54
1, 39474, Note_on_c, 0, 63, 35
1, 39486, Control_c, 0, 64, 45
1, 39498, Note_off_c, 0, 70, 60
1, 39501, Control_c, 0, 64, 61
1, 39505, Note_off_c, 0, 63, 53
1, 39510, Note_off_c, 0, 56, 57
1, 39516, Control_c, 0, 64, 70
1, 39519, Note_off_c, 0, 78, 49
1, 39530, Control_c, 0, 64, 82
1, 39545, Control_c, 0, 64, 99
1, 39560, Control_c, 0, 64, 125
1, 39575, Control_c, 0, 64, 127
1, 39589, Note_on_c, 0, 80, 58
1, 39593, Note_on_c, 0, 72, 54
1, 39625, Note_off_c, 0, 72, 63
1, 39626, Note_off_c, 0, 80, 55
1, 39678, Control_c, 0, 64, 115
1, 39693, Control_c, 0, 64, 91
1, 39708, Control_c, 0, 64, 67
1, 39722, Control_c, 0, 64, 45
1, 39737, Control_c, 0, 64, 0
1, 39762, Note_on_c, 0, 77, 61
1, 39772, Note_on_c, 0, 61, 48
1, 39773, Note_on_c, 0, 73, 46
1, 39811, Control_c, 0, 64, 44
1, 39827, Control_c, 0, 64, 56
1, 39842, Control_c, 0, 64, 64
1, 39857, Control_c, 0, 64, 68
1, 39872, Control_c, 0, 64, 71
1, 39876, Note_off_c, 0, 77, 62
1, 39887, Control_c, 0, 64, 73
1, 39901, Control_c, 0, 64, 75
1, 39906, Note_off_c, 0, 73, 62
1, 39916, Control_c, 0, 64, 76
1, 39928, Note_on_c, 0, 56, 51
1, 39931, Control_c, 0, 64, 78
1, 39945, Control_c, 0, 64, 78
1, 39975, Control_c, 0, 64, 79
1, 40058, Note_off_c, 0, 61, 36
1, 40087, Note_on_c, 0, 65, 67
1, 40093, Note_off_c, 0, 56, 33
1, 40105, Note_on_c, 0, 49, 31
1, 40123, Control_c, 0, 64, 79
1, 40154, Note_off_c, 0, 49, 47
1, 40240, Note_on_c, 0, 73, 59
1, 40240, Note_on_c, 0, 77, 58
1, 40255, Note_on_c, 0, 58, 50
1, 40271, Note_off_c, 0, 65, 53
1, 40274, Note_off_c, 0, 77, 64
1, 40275, Note_off_c, 0, 73, 62
1, 40323, Control_c, 0, 64, 78
1, 40338, Control_c, 0, 64, 74
1, 40352, Control_c, 0, 64, 69
1, 40367, Control_c, 0, 64, 63
1, 40373, Note_on_c, 0, 66, 80
1, 40382, Control_c, 0, 64, 57
1, 40397, Control_c, 0, 64, 54
1, 40401, Note_on_c, 0, 51, 48
1, 40412, Control_c, 0, 64, 56
1, 40426, Control_c, 0, 64, 60
1, 40441, Control_c, 0, 64, 63
1, 40449, Note_off_c, 0, 58, 56
1, 40456, Control_c, 0, 64, 65
1, 40470, Control_c, 0, 64, 67
1, 40485, Control_c, 0, 64, 70
1, 40500, Control_c, 0, 64, 72
1, 40510, Note_on_c, 0, 78, 69
1, 40511, Note_off_c, 0, 51, 53
1, 40511, Note_on_c, 0, 73, 70
1, 40515, Control_c, 0, 64, 75
1, 40517, Note_on_c, 0, 46, 58
1, 40525, Note_off_c, 0, 66, 59
1, 40530, Control_c, 0, 64, 77
1, 40544, Control_c, 0, 64, 78
1, 40545, Note_off_c, 0, 73, 61
1, 40559, Note_off_c, 0, 78, 60
1, 40569, Note_off_c, 0, 46, 58
1, 40589, Control_c, 0, 64, 75
1, 40604, Control_c, 0, 64, 68
1, 40620, Control_c, 0, 64, 60
1, 40635, Control_c, 0, 64, 48
1, 40640, Note_on_c, 0, 56, 71
1, 40642, Note_on_c, 0, 68, 88
1, 40649, Control_c, 0, 64, 39
1, 40679, Control_c, 0, 64, 46
1, 40694, Control_c, 0, 64, 56
1, 40709, Control_c, 0, 64, 62
1, 40723, Control_c, 0, 64, 66
1, 40738, Control_c, 0, 64, 71
1, 40753, Control_c, 0, 64, 75
1, 40756, Note_off_c, 0, 68, 61
1, 40762, Note_on_c, 0, 51, 73
1, 40762, Note_on_c, 0, 75, 71
1, 40768, Control_c, 0, 64, 77
1, 40768, Note_on_c, 0, 80, 79
1, 40783, Control_c, 0, 64, 80
1, 40792, Note_off_c, 0, 75, 64
1, 40798, Control_c, 0, 64, 82
1, 40812, Note_off_c, 0, 56, 57
1, 40813, Control_c, 0, 64, 83
1, 40816, Note_off_c, 0, 80, 62
1, 40842, Control_c, 0, 64, 80
1, 40857, Control_c, 0, 64, 73
1, 40872, Control_c, 0, 64, 64
1, 40887, Control_c, 0, 64, 55
1, 40893, Note_on_c, 0, 44, 72
1, 40896, Note_off_c, 0, 51, 61
1, 40897, Note_on_c, 0, 73, 93
1, 40902, Control_c, 0, 64, 54
1, 40917, Control_c, 0, 64, 58
1, 40932, Control_c, 0, 64, 63
1, 40954, Control_c, 0, 64, 67
1, 40962, Note_off_c, 0, 44, 61
1, 40969, Control_c, 0, 64, 73
1, 40983, Control_c, 0, 64, 80
1, 40998, Control_c, 0, 64, 89
1, 41013, Control_c, 0, 64, 98
1, 41024, Note_off_c, 0, 73, 57
1, 41028, Control_c, 0, 64, 107
1, 41034, Note_on_c, 0, 80, 77
1, 41036, Note_on_c, 0, 85, 85
1, 41037, Note_on_c, 0, 49, 76
1, 41042, Control_c, 0, 64, 119
1, 41057, Control_c, 0, 64, 127
1, 41059, Note_off_c, 0, 80, 67
1, 41086, Note_off_c, 0, 85, 59
1, 41131, Control_c, 0, 64, 107
1, 41146, Control_c, 0, 64, 84
1, 41161, Control_c, 0, 64, 67
1, 41168, Note_on_c, 0, 44, 87
1, 41168, Note_on_c, 0, 77, 98
1, 41176, Control_c, 0, 64, 54
1, 41191, Control_c, 0, 64, 41
1, 41206, Control_c, 0, 64, 43
1, 41221, Control_c, 0, 64, 52
1, 41233, Note_off_c, 0, 49, 62
1, 41236, Control_c, 0, 64, 60
1, 41250, Control_c, 0, 64, 66
1, 41265, Control_c, 0, 64, 72
1, 41280, Control_c, 0, 64, 82
1, 41292, Note_on_c, 0, 37, 84
1, 41294, Note_on_c, 0, 89, 88
1, 41294, Control_c, 0, 64, 95
1, 41295, Note_on_c, 0, 85, 88
1, 41304, Note_off_c, 0, 44, 64
1, 41309, Control_c, 0, 64, 112
1, 41320, Note_off_c, 0, 77, 59
1, 41324, Control_c, 0, 64, 127
1, 41337, Note_off_c, 0, 85, 63
1, 41352, Note_off_c, 0, 89, 59
1, 41373, Note_off_c, 0, 37, 59
1, 41398, Control_c, 0, 64, 84
1, 41414, Control_c, 0, 64, 66
1, 41429, Control_c, 0, 64, 51
1, 41430, Note_on_c, 0, 46, 93
1, 41442, Note_on_c, 0, 78, 99
1, 41444, Control_c, 0, 64, 40
1, 41459, Control_c, 0, 64, 44
1, 41473, Control_c, 0, 64, 54
1, 41487, Note_on_c, 0, 77, 32
1, 41488, Control_c, 0, 64, 63
1, 41503, Control_c, 0, 64, 72
1, 41517, Control_c, 0, 64, 88
1, 41519, Note_off_c, 0, 77, 52
1, 41532, Control_c, 0, 64, 127
1, 41577, Note_off_c, 0, 46, 61
1, 41585, Note_off_c, 0, 78, 61
1, 41586, Note_on_c, 0, 34, 92
1, 41591, Note_on_c, 0, 85, 90
1, 41591, Control_c, 0, 64, 96
1, 41593, Note_on_c, 0, 90, 91
1, 41606, Control_c, 0, 64, 71
1, 41621, Control_c, 0, 64, 58
1, 41636, Control_c, 0, 64, 53
1, 41644, Note_off_c, 0, 85, 64
1, 41651, Control_c, 0, 64, 59
1, 41658, Note_off_c, 0, 90, 64
1, 41665, Control_c, 0, 64, 67
1, 41674, Note_off_c, 0, 34, 61
1, 41680, Control_c, 0, 64, 80
1, 41703, Control_c, 0, 64, 127
1, 41747, Note_on_c, 0, 44, 91
1, 41758, Note_on_c, 0, 80, 95
1, 41791, Control_c, 0, 64, 80
1, 41806, Control_c, 0, 64, 60
1, 41821, Control_c, 0, 64, 37
1, 41836, Control_c, 0, 64, 29
1, 41851, Control_c, 0, 64, 39
1, 41865, Control_c, 0, 64, 56
1, 41880, Control_c, 0, 64, 67
1, 41895, Control_c, 0, 64, 94
1, 41904, Note_off_c, 0, 44, 58
1, 41910, Control_c, 0, 64, 127
1, 41918, Note_on_c, 0, 87, 100
1, 41921, Note_on_c, 0, 32, 97
1, 41927, Note_on_c, 0, 92, 87
1, 41927, Note_off_c, 0, 80, 58
1, 41959, Note_off_c, 0, 87, 66
1, 41978, Note_off_c, 0, 92, 63
1, 41980, Note_off_c, 0, 32, 63
1, 42162, Control_c, 0, 64, 101
1, 42177, Control_c, 0, 64, 67
1, 42181, Note_on_c, 0, 37, 96
1, 42187, Note_on_c, 0, 25, 101
1, 42189, Note_on_c, 0, 85, 94
1, 42190, Note_on_c, 0, 92, 91
1, 42191, Note_on_c, 0, 97, 100
1, 42191, Control_c, 0, 64, 0
1, 42282, Control_c, 0, 64, 45
1, 42296, Control_c, 0, 64, 70
1, 42297, Note_off_c, 0, 97, 64
1, 42311, Control_c, 0, 64, 115
1, 42314, Note_off_c, 0, 25, 63
1, 42326, Control_c, 0, 64, 127
1, 42339, Note_off_c, 0, 37, 62
1, 42339, Note_off_c, 0, 92, 62
1, 42353, Note_off_c, 0, 85, 63
1, 42612, Note_on_c, 0, 37, 96
1, 42749, Note_off_c, 0, 37, 61
1, 42762, Note_on_c, 0, 49, 95
1, 42799, Note_off_c, 0, 49, 61
1, 42852, Poly_aftertouch_c, 0, 73, 127
1, 42884, Poly_aftertouch_c, 0, 73, 0
1, 42944, Note_on_c, 0, 59, 81
1, 42944, Note_on_c, 0, 61, 91
1, 42946, Note_on_c, 0, 65, 91
1, 42947, Note_on_c, 0, 70, 88
1, 42951, Note_on_c, 0, 73, 98
1, 42968, Note_off_c, 0, 59, 69
1, 42975, Note_off_c, 0, 61, 61
1, 43246, Note_off_c, 0, 65, 59
1, 43314, Note_off_c, 0, 73, 56
1, 43334, Note_on_c, 0, 68, 95
1, 43366, Note_off_c, 0, 70, 62
1, 43513, Note_off_c, 0, 68, 59
1, 43643, Control_c, 0, 64, 67
1, 43657, Note_on_c, 0, 42, 82
1, 43658, Control_c, 0, 64, 0
1, 43665, Note_on_c, 0, 49, 84
1, 43667, Note_on_c, 0, 70, 85
1, 43668, Note_on_c, 0, 66, 85
1, 43670, Note_on_c, 0, 78, 91
1, 43807, Control_c, 0, 64, 53
1, 43823, Control_c, 0, 64, 78
1, 43838, Control_c, 0, 64, 120
1, 43841, Note_off_c, 0, 42, 62
1, 43851, Note_off_c, 0, 49, 63
1, 43853, Control_c, 0, 64, 127
1, 43859, Note_on_c, 0, 54, 85
1, 43874, Note_off_c, 0, 78, 60
1, 43914, Note_off_c, 0, 66, 59
1, 43927, Note_off_c, 0, 54, 58
1, 43971, Note_off_c, 0, 70, 59
1, 44004, Note_on_c, 0, 58, 86
1, 44130, Note_on_c, 0, 61, 90
1, 44142, Note_off_c, 0, 58, 61
1, 44227, Note_off_c, 0, 61, 59
1, 44274, Control_c, 0, 64, 94
1, 44289, Control_c, 0, 64, 55
1, 44290, Note_on_c, 0, 66, 89
1, 44291, Note_on_c, 0, 70, 84
1, 44292, Note_on_c, 0, 78, 89
1, 44301, Note_on_c, 0, 63, 84
1, 44303, Note_on_c, 0, 51, 79
1, 44304, Control_c, 0, 64, 0
1, 44306, Note_on_c, 0, 58, 80
1, 44313, Note_on_c, 0, 54, 63
1, 44393, Control_c, 0, 64, 57
1, 44408, Control_c, 0, 64, 79
1, 44422, Control_c, 0, 64, 127
1, 44437, Note_off_c, 0, 63, 61
1, 44462, Note_off_c, 0, 58, 60
1, 44480, Note_off_c, 0, 51, 61
1, 44494, Note_off_c, 0, 54, 62
1, 44522, Note_off_c, 0, 66, 60
1, 44527, Note_off_c, 0, 78, 59
1, 44599, Note_on_c, 0, 68, 94
1, 44617, Note_off_c, 0, 70, 61
1, 44640, Note_off_c, 0, 68, 67
1, 44890, Control_c, 0, 64, 69
1, 44893, Note_on_c, 0, 34, 82
1, 44893, Note_on_c, 0, 42, 82
1, 44897, Note_on_c, 0, 73, 91
1, 44899, Note_on_c, 0, 70, 90
1, 44900, Note_on_c, 0, 82, 91
1, 44901, Note_on_c, 0, 78, 83
1, 44905, Control_c, 0, 64, 0
1, 44979, Control_c, 0, 64, 43
1, 44994, Control_c, 0, 64, 61
1, 45002, Note_off_c, 0, 34, 62
1, 45009, Control_c, 0, 64, 68
1, 45023, Control_c, 0, 64, 78
1, 45038, Control_c, 0, 64, 92
1, 45046, Note_off_c, 0, 42, 64
1, 45053, Control_c, 0, 64, 112
1, 45060, Note_on_c, 0, 49, 84
1, 45067, Control_c, 0, 64, 127
1, 45089, Note_off_c, 0, 49, 66
1, 45142, Note_off_c, 0, 70, 58
1, 45143, Note_off_c, 0, 82, 55
1, 45171, Note_off_c, 0, 73, 60
1, 45183, Note_off_c, 0, 78, 59
1, 45200, Note_on_c, 0, 54, 81
1, 45324, Note_on_c, 0, 61, 85
1, 45461, Control_c, 0, 64, 105
1, 45476, Control_c, 0, 64, 71
1, 45479, Note_on_c, 0, 78, 84
1, 45480, Note_on_c, 0, 70, 86
1, 45481, Note_on_c, 0, 73, 81
1, 45481, Note_on_c, 0, 82, 92
1, 45487, Note_on_c, 0, 66, 78
1, 45490, Control_c, 0, 64, 37
1, 45505, Control_c, 0, 64, 0
1, 45550, Control_c, 0, 64, 35
1, 45564, Control_c, 0, 64, 55
1, 45579, Control_c, 0, 64, 68
1, 45594, Control_c, 0, 64, 82
1, 45601, Note_off_c, 0, 54, 62
1, 45609, Control_c, 0, 64, 127
1, 45624, Note_off_c, 0, 66, 59
1, 45634, Note_off_c, 0, 61, 54
1, 45668, Note_off_c, 0, 82, 60
1, 45685, Note_off_c, 0, 70, 61
1, 45744, Note_off_c, 0, 73, 59
1, 45758, Note_off_c, 0, 78, 57
1, 45777, Note_on_c, 0, 80, 87
1, 45779, Note_on_c, 0, 68, 85
1, 45825, Note_off_c, 0, 68, 62
1, 45825, Note_off_c, 0, 80, 64
1, 45985, Note_on_c, 0, 70, 74
1, 46013, Note_on_c, 0, 82, 77
1, 46053, Note_on_c, 0, 85, 96
1, 46053, Control_c, 0, 64, 76
1, 46056, Note_on_c, 0, 56, 83
1, 46056, Note_on_c, 0, 66, 83
1, 46057, Note_on_c, 0, 63, 76
1, 46065, Note_on_c, 0, 59, 68
1, 46069, Control_c, 0, 64, 46
1, 46083, Control_c, 0, 64, 0
1, 46157, Control_c, 0, 64, 55
1, 46172, Control_c, 0, 64, 67
1, 46195, Control_c, 0, 64, 75
1, 46211, Control_c, 0, 64, 83
1, 46225, Note_off_c, 0, 66, 59
1, 46226, Control_c, 0, 64, 87
1, 46237, Note_off_c, 0, 63, 59
1, 46240, Note_off_c, 0, 85, 55
1, 46240, Control_c, 0, 64, 90
1, 46254, Note_off_c, 0, 56, 59
1, 46255, Control_c, 0, 64, 91
1, 46262, Note_off_c, 0, 59, 61
1, 46262, Note_off_c, 0, 70, 59
1, 46270, Control_c, 0, 64, 92
1, 46283, Note_off_c, 0, 82, 61
1, 46285, Control_c, 0, 64, 94
1, 46300, Control_c, 0, 64, 95
1, 46314, Control_c, 0, 64, 96
1, 46359, Control_c, 0, 64, 98
1, 46369, Note_on_c, 0, 80, 88
1, 46372, Note_on_c, 0, 68, 79
1, 46399, Note_off_c, 0, 68, 65
1, 46403, Control_c, 0, 64, 100
1, 46414, Note_off_c, 0, 80, 63
1, 46432, Control_c, 0, 64, 103
1, 46447, Control_c, 0, 64, 106
1, 46462, Control_c, 0, 64, 109
1, 46477, Control_c, 0, 64, 112
1, 46492, Control_c, 0, 64, 114
1, 46506, Control_c, 0, 64, 117
1, 46521, Control_c, 0, 64, 122
1, 46536, Control_c, 0, 64, 127
1, 46563, Note_on_c, 0, 49, 69
1, 46587, Note_on_c, 0, 59, 59
1, 46603, Note_on_c, 0, 70, 73
1, 46610, Control_c, 0, 64, 113
1, 46625, Control_c, 0, 64, 91
1, 46640, Control_c, 0, 64, 71
1, 46642, Note_on_c, 0, 82, 75
1, 46655, Control_c, 0, 64, 52
1, 46664, Note_on_c, 0, 85, 96
1, 46670, Control_c, 0, 64, 0
1, 46672, Note_on_c, 0, 65, 94
1, 46714, Control_c, 0, 64, 39
1, 46729, Control_c, 0, 64, 58
1, 46744, Control_c, 0, 64, 68
1, 46759, Control_c, 0, 64, 79
1, 46760, Note_off_c, 0, 65, 63
1, 46774, Control_c, 0, 64, 100
1, 46788, Control_c, 0, 64, 127
1, 46792, Note_off_c, 0, 59, 63
1, 46826, Note_off_c, 0, 85, 55
1, 46828, Note_off_c, 0, 49, 63
1, 46861, Note_off_c, 0, 70, 59
1, 46880, Note_off_c, 0, 82, 61
1, 46968, Note_on_c, 0, 80, 86
1, 46971, Note_on_c, 0, 68, 79
1, 47011, Note_off_c, 0, 80, 64
1, 47016, Note_off_c, 0, 68, 61
1, 47240, Control_c, 0, 64, 89
1, 47254, Control_c, 0, 64, 66
1, 47255, Note_on_c, 0, 42, 85
1, 47260, Note_on_c, 0, 70, 88
1, 47260, Note_on_c, 0, 73, 85
1, 47263, Note_on_c, 0, 49, 79
1, 47263, Note_on_c, 0, 78, 80
1, 47263, Note_on_c, 0, 82, 87
1, 47269, Control_c, 0, 64, 0
1, 47344, Control_c, 0, 64, 46
1, 47359, Control_c, 0, 64, 58
1, 47374, Control_c, 0, 64, 67
1, 47388, Control_c, 0, 64, 72
1, 47400, Note_off_c, 0, 82, 62
1, 47403, Control_c, 0, 64, 78
1, 47418, Control_c, 0, 64, 82
1, 47424, Note_off_c, 0, 42, 61
1, 47433, Control_c, 0, 64, 85
1, 47436, Note_off_c, 0, 49, 64
1, 47440, Note_off_c, 0, 78, 62
1, 47443, Note_off_c, 0, 70, 59
1, 47448, Control_c, 0, 64, 88
1, 47449, Note_on_c, 0, 54, 78
1, 47455, Note_off_c, 0, 73, 62
1, 47462, Control_c, 0, 64, 91
1, 47477, Control_c, 0, 64, 96
1, 47492, Control_c, 0, 64, 99
1, 47507, Control_c, 0, 64, 102
1, 47514, Note_off_c, 0, 54, 61
1, 47522, Control_c, 0, 64, 104
1, 47570, Note_on_c, 0, 58, 84
1, 47640, Control_c, 0, 64, 106
1, 47701, Note_on_c, 0, 61, 88
1, 47703, Note_off_c, 0, 58, 63
1, 47778, Note_off_c, 0, 61, 57
1, 47842, Note_on_c, 0, 73, 86
1, 47842, Note_on_c, 0, 70, 82
1, 47844, Note_on_c, 0, 66, 82
1, 48041, Note_off_c, 0, 66, 53
1, 48078, Note_off_c, 0, 73, 57
1, 48137, Note_on_c, 0, 68, 88
1, 48165, Note_off_c, 0, 70, 60
1, 48251, Note_off_c, 0, 68, 53
1, 48308, Poly_aftertouch_c, 0, 51, 127
1, 48354, Poly_aftertouch_c, 0, 51, 0
1, 48404, Control_c, 0, 64, 91
1, 48419, Control_c, 0, 64, 71
1, 48434, Note_on_c, 0, 39, 82
1, 48441, Note_on_c, 0, 46, 79
1, 48441, Note_on_c, 0, 66, 82
1, 48441, Note_on_c, 0, 70, 85
1, 48441, Note_on_c, 0, 78, 88
1, 48441, Control_c, 0, 64, 50
1, 48456, Control_c, 0, 64, 0
1, 48515, Control_c, 0, 64, 32
1, 48530, Control_c, 0, 64, 48
1, 48545, Control_c, 0, 64, 60
1, 48560, Control_c, 0, 64, 66
1, 48575, Control_c, 0, 64, 73
1, 48590, Note_off_c, 0, 39, 60
1, 48590, Control_c, 0, 64, 76
1, 48605, Control_c, 0, 64, 78
1, 48620, Control_c, 0, 64, 79
1, 48622, Note_off_c, 0, 46, 64
1, 48634, Control_c, 0, 64, 80
1, 48639, Note_on_c, 0, 51, 77
1, 48649, Control_c, 0, 64, 80
1, 48655, Note_off_c, 0, 78, 58
1, 48691, Note_off_c, 0, 66, 54
1, 48703, Note_off_c, 0, 51, 62
1, 48709, Control_c, 0, 64, 81
1, 48731, Note_off_c, 0, 70, 58
1, 48784, Note_on_c, 0, 56, 54
1, 48789, Note_on_c, 0, 54, 48
1, 48807, Note_on_c, 0, 55, 58
1, 48829, Note_off_c, 0, 54, 48
1, 48846, Note_off_c, 0, 55, 62
1, 48877, Note_off_c, 0, 56, 38
1, 48885, Note_on_c, 0, 58, 80
1, 48961, Control_c, 0, 64, 80
1, 48975, Control_c, 0, 64, 77
1, 48990, Control_c, 0, 64, 69
1, 48995, Note_off_c, 0, 58, 64
1, 49005, Control_c, 0, 64, 59
1, 49007, Note_on_c, 0, 63, 88
1, 49010, Note_on_c, 0, 70, 89
1, 49010, Note_on_c, 0, 78, 87
1, 49015, Note_on_c, 0, 66, 81
1, 49020, Control_c, 0, 64, 44
1, 49034, Control_c, 0, 64, 36
1, 49049, Control_c, 0, 64, 43
1, 49064, Control_c, 0, 64, 56
1, 49079, Control_c, 0, 64, 63
1, 49080, Note_off_c, 0, 63, 61
1, 49094, Control_c, 0, 64, 69
1, 49108, Control_c, 0, 64, 75
1, 49123, Control_c, 0, 64, 80
1, 49138, Control_c, 0, 64, 83
1, 49153, Control_c, 0, 64, 86
1, 49168, Control_c, 0, 64, 87
1, 49190, Control_c, 0, 64, 88
1, 49204, Note_off_c, 0, 66, 56
1, 49205, Control_c, 0, 64, 90
1, 49220, Control_c, 0, 64, 92
1, 49224, Note_off_c, 0, 78, 54
1, 49234, Control_c, 0, 64, 95
1, 49249, Control_c, 0, 64, 99
1, 49264, Control_c, 0, 64, 103
1, 49296, Note_on_c, 0, 68, 92
1, 49308, Control_c, 0, 64, 106
1, 49317, Note_off_c, 0, 70, 61
1, 49323, Control_c, 0, 64, 108
1, 49338, Note_off_c, 0, 68, 66
1, 49338, Control_c, 0, 64, 113
1, 49353, Control_c, 0, 64, 118
1, 49368, Control_c, 0, 64, 127
1, 49559, Note_on_c, 0, 49, 86
1, 49561, Note_on_c, 0, 70, 81
1, 49561, Control_c, 0, 64, 83
1, 49566, Note_on_c, 0, 82, 91
1, 49576, Control_c, 0, 64, 64
1, 49591, Control_c, 0, 64, 43
1, 49606, Control_c, 0, 64, 0
1, 49636, Control_c, 0, 64, 37
1, 49651, Control_c, 0, 64, 52
1, 49665, Control_c, 0, 64, 62
1, 49680, Control_c, 0, 64, 68
1, 49695, Control_c, 0, 64, 73
1, 49710, Control_c, 0, 64, 78
1, 49714, Note_on_c, 0, 53, 77
1, 49725, Control_c, 0, 64, 81
1, 49739, Control_c, 0, 64, 83
1, 49754, Control_c, 0, 64, 85
1, 49769, Control_c, 0, 64, 86
1, 49773, Note_off_c, 0, 49, 60
1, 49783, Control_c, 0, 64, 88
1, 49798, Control_c, 0, 64, 89
1, 49808, Note_off_c, 0, 70, 60
1, 49812, Note_off_c, 0, 82, 57
1, 49813, Control_c, 0, 64, 90
1, 49828, Control_c, 0, 64, 92
1, 49843, Control_c, 0, 64, 92
1, 49848, Note_on_c, 0, 58, 83
1, 49854, Note_off_c, 0, 53, 64
1, 49857, Control_c, 0, 64, 93
1, 49962, Note_off_c, 0, 58, 63
1, 49976, Note_on_c, 0, 61, 88
1, 49983, Control_c, 0, 64, 93
1, 49998, Control_c, 0, 64, 94
1, 50013, Control_c, 0, 64, 95
1, 50028, Control_c, 0, 64, 95
1, 50097, Note_off_c, 0, 61, 59
1, 50117, Control_c, 0, 64, 94
1, 50131, Control_c, 0, 64, 81
1, 50141, Note_on_c, 0, 82, 94
1, 50144, Note_on_c, 0, 66, 88
1, 50144, Note_on_c, 0, 70, 84
1, 50145, Note_on_c, 0, 63, 84
1, 50146, Control_c, 0, 64, 65
1, 50161, Control_c, 0, 64, 38
1, 50176, Control_c, 0, 64, 0
1, 50221, Control_c, 0, 64, 42
1, 50236, Control_c, 0, 64, 56
1, 50251, Control_c, 0, 64, 64
1, 50266, Control_c, 0, 64, 71
1, 50280, Control_c, 0, 64, 77
1, 50293, Note_off_c, 0, 70, 56
1, 50295, Control_c, 0, 64, 80
1, 50310, Control_c, 0, 64, 83
1, 50325, Control_c, 0, 64, 84
1, 50339, Note_off_c, 0, 66, 60
1, 50340, Control_c, 0, 64, 85
1, 50349, Note_off_c, 0, 82, 57
1, 50354, Control_c, 0, 64, 87
1, 50369, Control_c, 0, 64, 90
1, 50384, Control_c, 0, 64, 95
1, 50387, Note_off_c, 0, 63, 53
1, 50399, Control_c, 0, 64, 101
1, 50414, Control_c, 0, 64, 104
1, 50434, Note_on_c, 0, 80, 91
1, 50436, Note_on_c, 0, 68, 85
1, 50459, Control_c, 0, 64, 107
1, 50471, Note_off_c, 0, 68, 63
1, 50474, Control_c, 0, 64, 110
1, 50486, Note_off_c, 0, 80, 64
1, 50488, Control_c, 0, 64, 113
1, 50518, Control_c, 0, 64, 115
1, 50548, Control_c, 0, 64, 120
1, 50561, Control_c, 0, 64, 127
1, 50731, Control_c, 0, 64, 104
1, 50745, Note_on_c, 0, 59, 76
1, 50745, Note_on_c, 0, 70, 86
1, 50745, Note_on_c, 0, 75, 92
1, 50746, Note_on_c, 0, 87, 101
1, 50746, Control_c, 0, 64, 73
1, 50747, Note_on_c, 0, 82, 90
1, 50754, Note_on_c, 0, 63, 71
1, 50754, Note_on_c, 0, 66, 72
1, 50761, Control_c, 0, 64, 0
1, 50909, Control_c, 0, 64, 39
1, 50924, Control_c, 0, 64, 68
1, 50939, Control_c, 0, 64, 80
1, 50954, Control_c, 0, 64, 88
1, 50962, Note_off_c, 0, 70, 60
1, 50968, Control_c, 0, 64, 89
1, 50983, Control_c, 0, 64, 90
1, 50999, Control_c, 0, 64, 90
1, 51014, Control_c, 0, 64, 92
1, 51028, Control_c, 0, 64, 95
1, 51043, Control_c, 0, 64, 99
1, 51045, Note_off_c, 0, 59, 59
1, 51058, Control_c, 0, 64, 105
1, 51063, Note_on_c, 0, 80, 95
1, 51071, Note_on_c, 0, 68, 82
1, 51073, Control_c, 0, 64, 114
1, 51083, Note_off_c, 0, 66, 59
1, 51085, Note_off_c, 0, 87, 60
1, 51088, Control_c, 0, 64, 127
1, 51089, Note_off_c, 0, 82, 63
1, 51095, Note_off_c, 0, 63, 60
1, 51101, Note_off_c, 0, 75, 61
1, 51210, Note_off_c, 0, 68, 34
1, 51222, Note_off_c, 0, 80, 28
1, 51341, Control_c, 0, 64, 95
1, 51346, Note_on_c, 0, 70, 88
1, 51348, Note_on_c, 0, 75, 89
1, 51348, Note_on_c, 0, 87, 98
1, 51353, Note_on_c, 0, 63, 68
1, 51353, Note_on_c, 0, 82, 90
1, 51355, Note_on_c, 0, 56, 70
1, 51355, Control_c, 0, 64, 67
1, 51356, Note_on_c, 0, 59, 63
1, 51370, Control_c, 0, 64, 44
1, 51385, Control_c, 0, 64, 0
1, 51436, Control_c, 0, 64, 45
1, 51451, Control_c, 0, 64, 60
1, 51466, Control_c, 0, 64, 71
1, 51481, Control_c, 0, 64, 83
1, 51496, Control_c, 0, 64, 102
1, 51511, Control_c, 0, 64, 127
1, 51523, Note_off_c, 0, 70, 58
1, 51654, Note_off_c, 0, 59, 59
1, 51669, Note_on_c, 0, 68, 83
1, 51669, Note_off_c, 0, 63, 55
1, 51675, Note_on_c, 0, 80, 91
1, 51685, Note_off_c, 0, 87, 62
1, 51690, Note_off_c, 0, 68, 70
1, 51695, Note_off_c, 0, 56, 49
1, 51707, Note_off_c, 0, 82, 61
1, 51717, Note_off_c, 0, 75, 61
1, 51759, Note_off_c, 0, 80, 54
1, 52000, Control_c, 0, 64, 112
1, 52015, Note_on_c, 0, 39, 81
1, 52015, Control_c, 0, 64, 76
1, 52017, Note_on_c, 0, 46, 77
1, 52020, Note_on_c, 0, 87, 99
1, 52021, Note_on_c, 0, 75, 83
1, 52025, Note_on_c, 0, 82, 84
1, 52030, Control_c, 0, 64, 55
1, 52045, Control_c, 0, 64, 0
1, 52119, Control_c, 0, 64, 42
1, 52134, Control_c, 0, 64, 55
1, 52149, Control_c, 0, 64, 63
1, 52164, Control_c, 0, 64, 69
1, 52185, Control_c, 0, 64, 73
1, 52193, Note_off_c, 0, 39, 57
1, 52200, Control_c, 0, 64, 77
1, 52202, Note_off_c, 0, 87, 62
1, 52215, Control_c, 0, 64, 83
1, 52230, Control_c, 0, 64, 92
1, 52235, Note_off_c, 0, 46, 64
1, 52245, Control_c, 0, 64, 105
1, 52255, Note_on_c, 0, 51, 71
1, 52258, Note_off_c, 0, 82, 60
1, 52259, Control_c, 0, 64, 127
1, 52289, Note_off_c, 0, 75, 61
1, 52316, Note_off_c, 0, 51, 61
1, 52392, Note_on_c, 0, 54, 73
1, 52509, Note_on_c, 0, 58, 76
1, 52545, Note_off_c, 0, 54, 55
1, 52661, Control_c, 0, 64, 104
1, 52671, Note_on_c, 0, 59, 79
1, 52672, Note_off_c, 0, 58, 63
1, 52675, Control_c, 0, 64, 84
1, 52677, Note_on_c, 0, 75, 64
1, 52680, Note_on_c, 0, 82, 73
1, 52688, Note_on_c, 0, 70, 57
1, 52690, Control_c, 0, 64, 69
1, 52705, Control_c, 0, 64, 47
1, 52720, Control_c, 0, 64, 0
1, 52823, Control_c, 0, 64, 39
1, 52838, Control_c, 0, 64, 60
1, 52853, Control_c, 0, 64, 68
1, 52867, Control_c, 0, 64, 70
1, 52882, Note_off_c, 0, 70, 58
1, 52882, Control_c, 0, 64, 72
1, 52897, Control_c, 0, 64, 75
1, 52912, Control_c, 0, 64, 79
1, 52935, Control_c, 0, 64, 84
1, 52949, Control_c, 0, 64, 91
1, 52964, Control_c, 0, 64, 101
1, 52979, Control_c, 0, 64, 115
1, 52984, Note_off_c, 0, 59, 61
1, 52989, Note_on_c, 0, 80, 76
1, 52994, Control_c, 0, 64, 127
1, 52996, Note_on_c, 0, 68, 75
1, 53000, Note_off_c, 0, 75, 62
1, 53025, Note_off_c, 0, 82, 55
1, 53052, Note_off_c, 0, 80, 64
1, 53065, Note_off_c, 0, 68, 62
1, 53334, Control_c, 0, 64, 104
1, 53346, Note_on_c, 0, 78, 68
1, 53347, Note_on_c, 0, 60, 60
1, 53349, Control_c, 0, 64, 84
1, 53353, Note_on_c, 0, 70, 55
1, 53364, Note_on_c, 0, 66, 45
1, 53364, Control_c, 0, 64, 71
1, 53379, Control_c, 0, 64, 59
1, 53394, Control_c, 0, 64, 42
1, 53410, Control_c, 0, 64, 0
1, 53469, Control_c, 0, 64, 36
1, 53484, Control_c, 0, 64, 46
1, 53498, Control_c, 0, 64, 55
1, 53513, Control_c, 0, 64, 61
1, 53528, Control_c, 0, 64, 64
1, 53542, Control_c, 0, 64, 66
1, 53558, Control_c, 0, 64, 68
1, 53561, Note_on_c, 0, 44, 44
1, 53573, Control_c, 0, 64, 71
1, 53588, Control_c, 0, 64, 75
1, 53603, Control_c, 0, 64, 81
1, 53617, Control_c, 0, 64, 91
1, 53632, Control_c, 0, 64, 107
1, 53647, Control_c, 0, 64, 127
1, 53674, Note_off_c, 0, 70, 60
1, 53711, Note_on_c, 0, 51, 61
1, 53797, Note_off_c, 0, 44, 40
1, 53840, Note_on_c, 0, 54, 63
1, 53840, Note_off_c, 0, 78, 39
1, 53845, Note_off_c, 0, 60, 44
1, 53845, Note_off_c, 0, 66, 35
1, 53943, Note_off_c, 0, 51, 37
1, 53950, Control_c, 0, 64, 119
1, 53965, Note_on_c, 0, 59, 65
1, 53965, Control_c, 0, 64, 91
1, 53969, Note_on_c, 0, 77, 60
1, 53980, Control_c, 0, 64, 76
1, 53982, Note_on_c, 0, 65, 53
1, 53982, Note_on_c, 0, 68, 49
1, 53990, Note_off_c, 0, 54, 57
1, 53995, Control_c, 0, 64, 65
1, 54010, Control_c, 0, 64, 56
1, 54024, Control_c, 0, 64, 47
1, 54039, Control_c, 0, 64, 44
1, 54054, Control_c, 0, 64, 49
1, 54069, Control_c, 0, 64, 55
1, 54084, Control_c, 0, 64, 59
1, 54098, Control_c, 0, 64, 62
1, 54113, Control_c, 0, 64, 65
1, 54128, Control_c, 0, 64, 68
1, 54135, Note_off_c, 0, 65, 59
1, 54143, Control_c, 0, 64, 74
1, 54158, Control_c, 0, 64, 80
1, 54167, Note_off_c, 0, 59, 62
1, 54173, Control_c, 0, 64, 86
1, 54188, Control_c, 0, 64, 93
1, 54203, Control_c, 0, 64, 103
1, 54218, Control_c, 0, 64, 127
1, 54253, Note_off_c, 0, 77, 54
1, 54265, Note_on_c, 0, 75, 67
1, 54274, Note_on_c, 0, 63, 62
1, 54281, Note_off_c, 0, 68, 62
1, 54312, Note_off_c, 0, 63, 61
1, 54347, Note_off_c, 0, 75, 61
1, 54581, Control_c, 0, 64, 112
1, 54596, Control_c, 0, 64, 94
1, 54600, Note_on_c, 0, 80, 70
1, 54602, Note_on_c, 0, 39, 58
1, 54605, Note_on_c, 0, 75, 56
1, 54609, Note_on_c, 0, 68, 55
1, 54611, Control_c, 0, 64, 81
1, 54626, Control_c, 0, 64, 70
1, 54641, Control_c, 0, 64, 61
1, 54655, Control_c, 0, 64, 48
1, 54670, Control_c, 0, 64, 40
1, 54685, Control_c, 0, 64, 38
1, 54699, Control_c, 0, 64, 41
1, 54714, Control_c, 0, 64, 46
1, 54729, Control_c, 0, 64, 52
1, 54744, Control_c, 0, 64, 55
1, 54749, Note_on_c, 0, 46, 56
1, 54759, Control_c, 0, 64, 59
1, 54773, Control_c, 0, 64, 61
1, 54788, Control_c, 0, 64, 63
1, 54803, Control_c, 0, 64, 65
1, 54808, Note_off_c, 0, 39, 57
1, 54818, Control_c, 0, 64, 68
1, 54833, Control_c, 0, 64, 72
1, 54847, Control_c, 0, 64, 76
1, 54862, Control_c, 0, 64, 79
1, 54873, Note_off_c, 0, 46, 63
1, 54877, Control_c, 0, 64, 83
1, 54891, Control_c, 0, 64, 88
1, 54896, Note_on_c, 0, 51, 67
1, 54906, Control_c, 0, 64, 94
1, 54921, Control_c, 0, 64, 101
1, 54936, Control_c, 0, 64, 108
1, 54951, Control_c, 0, 64, 118
1, 54966, Control_c, 0, 64, 125
1, 54974, Note_off_c, 0, 51, 62
1, 54981, Control_c, 0, 64, 127
1, 55032, Note_on_c, 0, 54, 74
1, 55067, Note_off_c, 0, 68, 57
1, 55115, Control_c, 0, 64, 117
1, 55129, Control_c, 0, 64, 98
1, 55144, Control_c, 0, 64, 80
1, 55159, Control_c, 0, 64, 69
1, 55181, Control_c, 0, 64, 62
1, 55186, Note_on_c, 0, 78, 77
1, 55189, Note_on_c, 0, 58, 67
1, 55190, Note_off_c, 0, 80, 32
1, 55192, Note_on_c, 0, 66, 67
1, 55195, Note_on_c, 0, 73, 67
1, 55196, Control_c, 0, 64, 58
1, 55204, Note_off_c, 0, 75, 56
1, 55210, Control_c, 0, 64, 59
1, 55225, Control_c, 0, 64, 62
1, 55240, Control_c, 0, 64, 66
1, 55255, Control_c, 0, 64, 72
1, 55270, Control_c, 0, 64, 79
1, 55285, Control_c, 0, 64, 86
1, 55297, Note_off_c, 0, 58, 61
1, 55300, Control_c, 0, 64, 93
1, 55312, Note_off_c, 0, 66, 60
1, 55315, Control_c, 0, 64, 101
1, 55318, Note_off_c, 0, 54, 62
1, 55329, Control_c, 0, 64, 114
1, 55344, Control_c, 0, 64, 127
1, 55477, Note_on_c, 0, 82, 78
1, 55488, Note_on_c, 0, 70, 72
1, 55508, Note_off_c, 0, 78, 62
1, 55511, Note_off_c, 0, 73, 54
1, 55529, Note_off_c, 0, 70, 60
1, 55535, Note_off_c, 0, 82, 62
1, 55744, Control_c, 0, 64, 90
1, 55757, Note_on_c, 0, 37, 76
1, 55759, Control_c, 0, 64, 73
1, 55766, Note_on_c, 0, 80, 83
1, 55774, Control_c, 0, 64, 62
1, 55775, Note_on_c, 0, 70, 74
1, 55776, Note_on_c, 0, 68, 72
1, 55789, Control_c, 0, 64, 53
1, 55804, Control_c, 0, 64, 47
1, 55818, Control_c, 0, 64, 48
1, 55833, Control_c, 0, 64, 54
1, 55848, Control_c, 0, 64, 61
1, 55863, Control_c, 0, 64, 64
1, 55878, Control_c, 0, 64, 68
1, 55893, Control_c, 0, 64, 72
1, 55908, Control_c, 0, 64, 76
1, 55913, Note_off_c, 0, 68, 48
1, 55928, Note_off_c, 0, 80, 55
1, 55930, Control_c, 0, 64, 80
1, 55935, Note_on_c, 0, 42, 74
1, 55944, Control_c, 0, 64, 83
1, 55959, Control_c, 0, 64, 86
1, 55964, Note_off_c, 0, 37, 57
1, 55974, Control_c, 0, 64, 88
1, 55989, Control_c, 0, 64, 89
1, 56004, Control_c, 0, 64, 90
1, 56019, Control_c, 0, 64, 91
1, 56033, Control_c, 0, 64, 92
1, 56048, Control_c, 0, 64, 93
1, 56063, Control_c, 0, 64, 93
1, 56078, Control_c, 0, 64, 94
1, 56080, Note_on_c, 0, 75, 80
1, 56082, Note_on_c, 0, 46, 68
1, 56087, Note_on_c, 0, 63, 75
1, 56093, Note_off_c, 0, 42, 58
1, 56093, Control_c, 0, 64, 94
1, 56107, Note_off_c, 0, 70, 63
1, 56122, Control_c, 0, 64, 95
1, 56130, Note_off_c, 0, 63, 59
1, 56146, Note_off_c, 0, 75, 62
1, 56152, Control_c, 0, 64, 95
1, 56182, Control_c, 0, 64, 96
1, 56195, Note_off_c, 0, 46, 62
1, 56211, Note_on_c, 0, 51, 72
1, 56298, Note_off_c, 0, 51, 61
1, 56300, Control_c, 0, 64, 94
1, 56315, Control_c, 0, 64, 83
1, 56330, Control_c, 0, 64, 69
1, 56344, Control_c, 0, 64, 52
1, 56359, Control_c, 0, 64, 0
1, 56367, Note_on_c, 0, 35, 80
1, 56367, Note_on_c, 0, 78, 89
1, 56371, Note_on_c, 0, 66, 77
1, 56371, Note_on_c, 0, 73, 80
1, 56418, Control_c, 0, 64, 36
1, 56433, Control_c, 0, 64, 53
1, 56448, Control_c, 0, 64, 62
1, 56458, Note_off_c, 0, 66, 61
1, 56463, Control_c, 0, 64, 68
1, 56477, Control_c, 0, 64, 73
1, 56488, Note_off_c, 0, 78, 62
1, 56488, Note_off_c, 0, 73, 61
1, 56492, Control_c, 0, 64, 76
1, 56507, Control_c, 0, 64, 79
1, 56509, Note_on_c, 0, 41, 75
1, 56522, Control_c, 0, 64, 83
1, 56537, Control_c, 0, 64, 89
1, 56552, Control_c, 0, 64, 95
1, 56567, Control_c, 0, 64, 102
1, 56582, Control_c, 0, 64, 108
1, 56598, Control_c, 0, 64, 114
1, 56613, Control_c, 0, 64, 122
1, 56628, Control_c, 0, 64, 127
1, 56660, Note_off_c, 0, 35, 35
1, 56672, Note_on_c, 0, 80, 88
1, 56674, Note_on_c, 0, 44, 72
1, 56676, Note_on_c, 0, 68, 82
1, 56680, Note_on_c, 0, 75, 72
1, 56701, Note_off_c, 0, 41, 55
1, 56702, Note_off_c, 0, 75, 64
1, 56714, Note_off_c, 0, 68, 59
1, 56742, Note_off_c, 0, 80, 62
1, 56797, Note_off_c, 0, 44, 64
1, 56819, Note_on_c, 0, 51, 76
1, 56877, Note_off_c, 0, 51, 60
1, 56961, Control_c, 0, 64, 100
1, 56975, Control_c, 0, 64, 68
1, 56985, Note_on_c, 0, 77, 86
1, 56986, Note_on_c, 0, 34, 81
1, 56986, Note_on_c, 0, 70, 92
1, 56987, Note_on_c, 0, 82, 93
1, 56990, Control_c, 0, 64, 0
1, 57079, Control_c, 0, 64, 44
1, 57094, Control_c, 0, 64, 59
1, 57109, Control_c, 0, 64, 64
1, 57124, Control_c, 0, 64, 67
1, 57130, Note_on_c, 0, 41, 76
1, 57139, Control_c, 0, 64, 70
1, 57154, Control_c, 0, 64, 73
1, 57158, Note_off_c, 0, 34, 60
1, 57168, Control_c, 0, 64, 77
1, 57183, Control_c, 0, 64, 83
1, 57198, Control_c, 0, 64, 91
1, 57213, Control_c, 0, 64, 99
1, 57228, Control_c, 0, 64, 109
1, 57242, Control_c, 0, 64, 127
1, 57267, Note_off_c, 0, 41, 60
1, 57276, Note_on_c, 0, 46, 89
1, 57297, Note_off_c, 0, 46, 70
1, 57297, Note_off_c, 0, 82, 46
1, 57345, Note_off_c, 0, 70, 36
1, 57367, Note_off_c, 0, 77, 55
1, 57437, Note_on_c, 0, 53, 88
1, 57545, Control_c, 0, 64, 112
1, 57560, Control_c, 0, 64, 89
1, 57575, Control_c, 0, 64, 69
1, 57589, Control_c, 0, 64, 48
1, 57604, Control_c, 0, 64, 0
1, 57605, Note_on_c, 0, 67, 84
1, 57605, Note_on_c, 0, 70, 91
1, 57606, Note_on_c, 0, 75, 80
1, 57606, Note_on_c, 0, 82, 90
1, 57607, Note_on_c, 0, 79, 88
1, 57608, Note_on_c, 0, 63, 82
1, 57612, Note_on_c, 0, 58, 77
1, 57664, Control_c, 0, 64, 30
1, 57678, Control_c, 0, 64, 47
1, 57693, Control_c, 0, 64, 59
1, 57708, Control_c, 0, 64, 67
1, 57723, Control_c, 0, 64, 74
1, 57738, Control_c, 0, 64, 84
1, 57753, Control_c, 0, 64, 91
1, 57759, Note_off_c, 0, 75, 58
1, 57768, Control_c, 0, 64, 97
1, 57777, Note_off_c, 0, 63, 55
1, 57783, Control_c, 0, 64, 102
1, 57793, Note_off_c, 0, 67, 39
1, 57797, Control_c, 0, 64, 107
1, 57842, Control_c, 0, 64, 102
1, 57857, Control_c, 0, 64, 88
1, 57871, Control_c, 0, 64, 73
1, 57886, Note_off_c, 0, 79, 55
1, 57886, Control_c, 0, 64, 61
1, 57901, Control_c, 0, 64, 42
1, 57911, Note_on_c, 0, 62, 81
1, 57915, Control_c, 0, 64, 0
1, 57916, Note_on_c, 0, 65, 86
1, 57917, Note_on_c, 0, 77, 87
1, 57917, Note_on_c, 0, 74, 90
1, 57939, Note_off_c, 0, 82, 59
1, 57945, Control_c, 0, 64, 42
1, 57946, Note_off_c, 0, 70, 64
1, 57960, Control_c, 0, 64, 59
1, 57962, Note_off_c, 0, 53, 61
1, 57974, Note_off_c, 0, 74, 64
1, 57975, Control_c, 0, 64, 70
1, 57989, Control_c, 0, 64, 89
1, 57991, Note_off_c, 0, 77, 63
1, 57992, Note_off_c, 0, 62, 63
1, 57999, Note_off_c, 0, 65, 62
1, 58004, Control_c, 0, 64, 127
1, 58011, Note_off_c, 0, 58, 60
1, 58220, Control_c, 0, 64, 114
1, 58235, Control_c, 0, 64, 68
1, 58250, Control_c, 0, 64, 0
1, 58263, Note_on_c, 0, 69, 82
1, 58264, Note_on_c, 0, 65, 84
1, 58264, Note_on_c, 0, 74, 93
1, 58266, Note_on_c, 0, 86, 90
1, 58270, Note_on_c, 0, 77, 78
1, 58270, Note_on_c, 0, 81, 81
1, 58317, Note_off_c, 0, 69, 64
1, 58324, Control_c, 0, 64, 41
1, 58334, Note_off_c, 0, 65, 65
1, 58338, Control_c, 0, 64, 71
1, 58353, Control_c, 0, 64, 93
1, 58368, Control_c, 0, 64, 127
1, 58616, Note_on_c, 0, 41, 94
1, 58617, Note_on_c, 0, 29, 90
1, 58657, Note_off_c, 0, 29, 63
1, 58667, Note_off_c, 0, 41, 62
1, 58686, Note_off_c, 0, 81, 61
1, 58725, Note_off_c, 0, 86, 60
1, 58770, Note_off_c, 0, 77, 59
1, 58873, Note_off_c, 0, 74, 50
1, 59011, Note_on_c, 0, 74, 82
1, 59011, Note_on_c, 0, 86, 87
1, 59013, Note_on_c, 0, 67, 85
1, 59013, Note_on_c, 0, 75, 76
1, 59017, Note_on_c, 0, 63, 83
1, 59018, Note_on_c, 0, 79, 68
1, 59231, Note_off_c, 0, 86, 41
1, 59270, Note_off_c, 0, 75, 60
1, 59335, Note_off_c, 0, 67, 63
1, 59427, Note_on_c, 0, 81, 94
1, 59428, Note_on_c, 0, 65, 85
1, 59430, Note_on_c, 0, 69, 89
1, 59431, Note_on_c, 0, 77, 81
1, 59431, Note_off_c, 0, 63, 51
1, 59445, Note_off_c, 0, 74, 63
1, 59462, Note_off_c, 0, 79, 66
1, 59488, Note_off_c, 0, 69, 63
1, 59509, Note_off_c, 0, 77, 63
1, 59515, Note_off_c, 0, 65, 64
1, 59520, Note_off_c, 0, 81, 62
1, 59990, Note_on_c, 0, 34, 85
1, 59992, Note_on_c, 0, 22, 87
1, 59995, Note_on_c, 0, 74, 84
1, 59996, Note_on_c, 0, 70, 91
1, 59996, Note_on_c, 0, 82, 91
1, 60000, Note_on_c, 0, 77, 77
1, 60000, Control_c, 0, 64, 116
1, 60015, Control_c, 0, 64, 72
1, 60030, Control_c, 0, 64, 40
1, 60044, Control_c, 0, 64, 0
1, 60059, Control_c, 0, 67, 19
1, 60104, Control_c, 0, 67, 0
1, 60148, Control_c, 0, 64, 40
1, 60163, Control_c, 0, 64, 62
1, 60178, Control_c, 0, 64, 75
1, 60188, Note_off_c, 0, 22, 61
1, 60192, Control_c, 0, 64, 127
1, 60231, Note_off_c, 0, 34, 59
1, 60579, Note_on_c, 0, 53, 64
1, 60686, Note_off_c, 0, 77, 42
1, 60719, Note_on_c, 0, 58, 63
1, 60770, Note_off_c, 0, 70, 49
1, 60783, Note_off_c, 0, 53, 54
1, 60790, Note_on_c, 0, 62, 65
1, 60802, Note_off_c, 0, 82, 33
1, 60818, Note_off_c, 0, 58, 62
1, 60832, Note_off_c, 0, 74, 23
1, 60847, Note_on_c, 0, 65, 70
1, 60851, Note_off_c, 0, 62, 62
1, 60871, Note_on_c, 0, 70, 74
1, 60889, Note_off_c, 0, 65, 63
1, 60911, Note_on_c, 0, 74, 52
1, 60946, Note_on_c, 0, 77, 68
1, 60967, Note_off_c, 0, 70, 60
1, 60998, Note_on_c, 0, 82, 84
1, 61001, Note_off_c, 0, 74, 63
1, 61026, Note_off_c, 0, 77, 63
1, 61050, Note_off_c, 0, 82, 63
1, 61316, Note_on_c, 0, 90, 85
1, 61319, Control_c, 0, 64, 101
1, 61322, Note_on_c, 0, 66, 52
1, 61333, Note_on_c, 0, 78, 59
1, 61333, Control_c, 0, 64, 75
1, 61348, Control_c, 0, 64, 60
1, 61363, Control_c, 0, 64, 36
1, 61378, Control_c, 0, 64, 0
1, 61424, Control_c, 0, 64, 39
1, 61438, Control_c, 0, 64, 55
1, 61453, Control_c, 0, 64, 63
1, 61468, Control_c, 0, 64, 70
1, 61482, Control_c, 0, 64, 79
1, 61497, Control_c, 0, 64, 97
1, 61512, Control_c, 0, 64, 127
1, 61574, Note_off_c, 0, 66, 40
1, 61603, Note_off_c, 0, 78, 60
1, 61651, Note_off_c, 0, 90, 54
1, 61700, Note_on_c, 0, 89, 84
1, 61705, Control_c, 0, 64, 91
1, 61720, Control_c, 0, 64, 70
1, 61724, Note_on_c, 0, 77, 52
1, 61735, Control_c, 0, 64, 53
1, 61750, Control_c, 0, 64, 38
1, 61764, Control_c, 0, 64, 33
1, 61765, Poly_aftertouch_c, 0, 65, 127
1, 61779, Control_c, 0, 64, 40
1, 61794, Control_c, 0, 64, 50
1, 61808, Control_c, 0, 64, 60
1, 61823, Control_c, 0, 64, 69
1, 61838, Control_c, 0, 64, 84
1, 61853, Control_c, 0, 64, 127
1, 61868, Note_off_c, 0, 77, 52
1, 61888, Note_off_c, 0, 89, 61
1, 61961, Poly_aftertouch_c, 0, 65, 0
1, 62038, Control_c, 0, 64, 88
1, 62053, Control_c, 0, 64, 64
1, 62068, Control_c, 0, 64, 40
1, 62083, Control_c, 0, 64, 0
1, 62086, Note_on_c, 0, 87, 73
1, 62108, Note_on_c, 0, 63, 40
1, 62111, Note_on_c, 0, 75, 39
1, 62112, Control_c, 0, 64, 39
1, 62127, Control_c, 0, 64, 64
1, 62137, Note_off_c, 0, 63, 61
1, 62142, Control_c, 0, 64, 90
1, 62142, Control_c, 0, 67, 22
1, 62156, Control_c, 0, 64, 127
1, 62156, Control_c, 0, 67, 28
1, 62171, Control_c, 0, 67, 37
1, 62187, Control_c, 0, 67, 48
1, 62202, Control_c, 0, 67, 62
1, 62217, Control_c, 0, 67, 85
1, 62231, Control_c, 0, 67, 113
1, 62246, Control_c, 0, 67, 127
1, 62260, Note_off_c, 0, 87, 64
1, 62303, Note_off_c, 0, 75, 44
1, 62428, Note_on_c, 0, 35, 43
1, 62591, Note_on_c, 0, 39, 46
1, 62621, Note_off_c, 0, 35, 38
1, 62704, Note_off_c, 0, 39, 54
1, 62762, Note_on_c, 0, 59, 41
1, 62770, Note_on_c, 0, 47, 41
1, 62798, Note_off_c, 0, 47, 58
1, 62906, Note_on_c, 0, 51, 43
1, 62907, Note_on_c, 0, 63, 50
1, 62909, Note_off_c, 0, 59, 49
1, 63025, Note_off_c, 0, 63, 61
1, 63033, Note_on_c, 0, 70, 58
1, 63036, Note_off_c, 0, 51, 53
1, 63049, Note_on_c, 0, 58, 42
1, 63109, Note_off_c, 0, 70, 63
1, 63146, Note_off_c, 0, 58, 62
1, 63166, Note_on_c, 0, 71, 59
1, 63202, Control_c, 0, 67, 123
1, 63217, Control_c, 0, 67, 118
1, 63232, Control_c, 0, 67, 113
1, 63247, Control_c, 0, 67, 109
1, 63262, Control_c, 0, 67, 106
1, 63277, Control_c, 0, 67, 102
1, 63292, Control_c, 0, 67, 97
1, 63292, Note_off_c, 0, 71, 35
1, 63295, Note_on_c, 0, 75, 52
1, 63306, Note_on_c, 0, 63, 44
1, 63306, Control_c, 0, 67, 91
1, 63321, Control_c, 0, 67, 85
1, 63336, Control_c, 0, 67, 79
1, 63351, Control_c, 0, 67, 74
1, 63366, Control_c, 0, 67, 68
1, 63380, Control_c, 0, 67, 63
1, 63395, Control_c, 0, 67, 58
1, 63417, Control_c, 0, 67, 54
1, 63432, Control_c, 0, 67, 50
1, 63447, Control_c, 0, 67, 46
1, 63448, Note_off_c, 0, 63, 54
1, 63451, Note_off_c, 0, 75, 63
1, 63454, Note_on_c, 0, 82, 62
1, 63459, Note_on_c, 0, 70, 39
1, 63461, Control_c, 0, 67, 41
1, 63476, Control_c, 0, 67, 38
1, 63491, Note_off_c, 0, 82, 56
1, 63491, Control_c, 0, 67, 36
1, 63506, Control_c, 0, 67, 36
1, 63507, Note_off_c, 0, 70, 58
1, 63807, Note_on_c, 0, 90, 69
1, 63820, Note_on_c, 0, 78, 56
1, 63860, Note_off_c, 0, 78, 62
1, 63877, Note_off_c, 0, 90, 61
1, 63937, Control_c, 0, 67, 36
1, 63972, Note_on_c, 0, 89, 71
1, 63995, Note_on_c, 0, 59, 48
1, 63996, Note_on_c, 0, 77, 38
1, 64040, Note_off_c, 0, 77, 55
1, 64049, Note_on_c, 0, 63, 49
1, 64056, Control_c, 0, 67, 37
1, 64080, Note_on_c, 0, 66, 54
1, 64100, Control_c, 0, 64, 95
1, 64100, Control_c, 0, 67, 37
1, 64115, Control_c, 0, 64, 71
1, 64130, Control_c, 0, 64, 59
1, 64145, Control_c, 0, 64, 50
1, 64164, Note_on_c, 0, 70, 57
1, 64169, Note_off_c, 0, 89, 33
1, 64172, Note_on_c, 0, 87, 74
1, 64182, Control_c, 0, 64, 56
1, 64188, Note_on_c, 0, 75, 57
1, 64197, Control_c, 0, 64, 63
1, 64211, Control_c, 0, 64, 69
1, 64211, Control_c, 0, 67, 38
1, 64226, Control_c, 0, 64, 80
1, 64226, Control_c, 0, 67, 38
1, 64231, Note_off_c, 0, 75, 61
1, 64234, Note_off_c, 0, 87, 63
1, 64241, Control_c, 0, 64, 93
1, 64256, Control_c, 0, 64, 116
1, 64257, Note_off_c, 0, 70, 63
1, 64271, Control_c, 0, 64, 127
1, 64277, Note_off_c, 0, 59, 61
1, 64278, Note_off_c, 0, 66, 60
1, 64326, Note_on_c, 0, 85, 73
1, 64329, Note_off_c, 0, 63, 60
1, 64337, Note_on_c, 0, 73, 63
1, 64364, Note_off_c, 0, 73, 67
1, 64374, Note_off_c, 0, 85, 62
1, 64374, Control_c, 0, 67, 39
1, 64454, Note_on_c, 0, 83, 77
1, 64471, Note_on_c, 0, 71, 49
1, 64493, Note_off_c, 0, 71, 61
1, 64567, Note_on_c, 0, 82, 77
1, 64580, Note_on_c, 0, 70, 64
1, 64584, Note_off_c, 0, 83, 41
1, 64597, Note_on_c, 0, 53, 62
1, 64618, Note_off_c, 0, 70, 64
1, 64623, Note_off_c, 0, 82, 62
1, 64628, Note_on_c, 0, 56, 57
1, 64657, Control_c, 0, 64, 104
1, 64668, Note_on_c, 0, 59, 51
1, 64672, Control_c, 0, 64, 76
1, 64687, Control_c, 0, 64, 60
1, 64701, Control_c, 0, 64, 42
1, 64716, Control_c, 0, 64, 31
1, 64717, Note_on_c, 0, 80, 77
1, 64725, Note_on_c, 0, 63, 59
1, 64729, Note_on_c, 0, 68, 69
1, 64731, Control_c, 0, 64, 35
1, 64746, Control_c, 0, 64, 43
1, 64761, Control_c, 0, 64, 53
1, 64764, Note_off_c, 0, 68, 64
1, 64771, Note_off_c, 0, 80, 65
1, 64775, Control_c, 0, 64, 60
1, 64790, Control_c, 0, 64, 64
1, 64805, Control_c, 0, 64, 68
1, 64820, Control_c, 0, 64, 73
1, 64820, Control_c, 0, 67, 39
1, 64822, Note_off_c, 0, 63, 62
1, 64834, Control_c, 0, 64, 76
1, 64835, Note_off_c, 0, 59, 60
1, 64849, Control_c, 0, 64, 78
1, 64852, Note_off_c, 0, 53, 59
1, 64857, Note_on_c, 0, 78, 76
1, 64864, Control_c, 0, 64, 79
1, 64865, Note_on_c, 0, 66, 59
1, 64879, Control_c, 0, 64, 80
1, 64879, Control_c, 0, 67, 40
1, 64889, Note_off_c, 0, 56, 62
1, 64906, Note_off_c, 0, 66, 64
1, 64916, Control_c, 0, 64, 81
1, 64916, Note_off_c, 0, 78, 61
1, 64991, Note_on_c, 0, 77, 72
1, 65001, Note_on_c, 0, 65, 64
1, 65033, Note_off_c, 0, 65, 66
1, 65050, Note_off_c, 0, 77, 60
1, 65094, Control_c, 0, 64, 80
1, 65110, Note_on_c, 0, 75, 70
1, 65122, Note_on_c, 0, 63, 68
1, 65153, Note_off_c, 0, 75, 61
1, 65154, Note_off_c, 0, 63, 64
1, 65212, Control_c, 0, 64, 79
1, 65226, Control_c, 0, 64, 73
1, 65241, Control_c, 0, 64, 64
1, 65241, Control_c, 0, 67, 39
1, 65256, Control_c, 0, 64, 46
1, 65256, Control_c, 0, 67, 39
1, 65262, Note_on_c, 0, 46, 48
1, 65263, Note_on_c, 0, 73, 62
1, 65268, Note_on_c, 0, 61, 54
1, 65271, Control_c, 0, 64, 0
1, 65277, Note_on_c, 0, 49, 40
1, 65355, Note_off_c, 0, 73, 46
1, 65360, Control_c, 0, 64, 29
1, 65375, Control_c, 0, 64, 42
1, 65390, Control_c, 0, 64, 52
1, 65400, Note_on_c, 0, 71, 56
1, 65405, Note_on_c, 0, 59, 45
1, 65405, Control_c, 0, 64, 57
1, 65405, Control_c, 0, 67, 38
1, 65420, Control_c, 0, 64, 59
1, 65431, Note_off_c, 0, 59, 60
1, 65439, Note_off_c, 0, 61, 41
1, 65450, Control_c, 0, 64, 60
1, 65465, Control_c, 0, 64, 61
1, 65480, Control_c, 0, 64, 62
1, 65494, Control_c, 0, 64, 63
1, 65521, Note_off_c, 0, 71, 50
1, 65524, Control_c, 0, 64, 64
1, 65533, Note_on_c, 0, 70, 57
1, 65548, Note_on_c, 0, 58, 44
1, 65577, Note_off_c, 0, 58, 61
1, 65582, Control_c, 0, 64, 64
1, 65664, Control_c, 0, 67, 38
1, 65664, Note_off_c, 0, 70, 56
1, 65676, Note_on_c, 0, 68, 52
1, 65699, Note_on_c, 0, 56, 51
1, 65724, Control_c, 0, 67, 37
1, 65747, Note_off_c, 0, 56, 57
1, 65753, Control_c, 0, 64, 64
1, 65768, Control_c, 0, 64, 62
1, 65782, Control_c, 0, 64, 57
1, 65797, Control_c, 0, 64, 46
1, 65812, Control_c, 0, 64, 0
1, 65824, Note_off_c, 0, 68, 50
1, 65851, Note_on_c, 0, 66, 51
1, 65863, Note_on_c, 0, 54, 42
1, 65901, Control_c, 0, 64, 35
1, 65916, Control_c, 0, 64, 53
1, 65930, Control_c, 0, 64, 62
1, 65933, Note_off_c, 0, 66, 62
1, 65945, Control_c, 0, 64, 66
1, 65960, Control_c, 0, 64, 68
1, 65974, Control_c, 0, 64, 69
1, 65989, Control_c, 0, 64, 70
1, 66004, Control_c, 0, 64, 72
1, 66019, Control_c, 0, 64, 75
1, 66034, Control_c, 0, 64, 76
1, 66036, Note_on_c, 0, 61, 48
1, 66036, Note_off_c, 0, 54, 57
1, 66049, Control_c, 0, 64, 77
1, 66064, Control_c, 0, 64, 78
1, 66079, Control_c, 0, 64, 78
1, 66199, Note_off_c, 0, 61, 31
1, 66200, Note_on_c, 0, 54, 40
1, 66220, Note_off_c, 0, 49, 19
1, 66225, Note_on_c, 0, 82, 66
1, 66261, Note_off_c, 0, 46, 42
1, 66335, Note_off_c, 0, 82, 48
1, 66362, Note_on_c, 0, 95, 60
1, 66403, Note_on_c, 0, 62, 51
1, 66415, Note_off_c, 0, 54, 40
1, 66466, Note_on_c, 0, 94, 74
1, 66499, Note_off_c, 0, 95, 53
1, 66502, Control_c, 0, 64, 78
1, 66517, Control_c, 0, 64, 74
1, 66532, Control_c, 0, 64, 67
1, 66547, Control_c, 0, 64, 59
1, 66549, Note_off_c, 0, 94, 63
1, 66554, Note_off_c, 0, 62, 28
1, 66556, Note_on_c, 0, 47, 40
1, 66562, Control_c, 0, 64, 48
1, 66572, Note_on_c, 0, 80, 63
1, 66576, Control_c, 0, 64, 38
1, 66591, Control_c, 0, 64, 36
1, 66606, Control_c, 0, 64, 41
1, 66621, Control_c, 0, 64, 49
1, 66636, Control_c, 0, 64, 55
1, 66651, Control_c, 0, 64, 59
1, 66666, Note_off_c, 0, 80, 61
1, 66666, Control_c, 0, 64, 61
1, 66675, Note_on_c, 0, 94, 72
1, 66680, Control_c, 0, 64, 63
1, 66695, Control_c, 0, 64, 64
1, 66695, Control_c, 0, 67, 37
1, 66710, Control_c, 0, 64, 65
1, 66718, Note_on_c, 0, 62, 46
1, 66725, Control_c, 0, 64, 66
1, 66725, Control_c, 0, 67, 36
1, 66732, Note_off_c, 0, 47, 36
1, 66739, Control_c, 0, 64, 66
1, 66754, Control_c, 0, 64, 67
1, 66764, Note_on_c, 0, 92, 75
1, 66769, Control_c, 0, 64, 68
1, 66784, Control_c, 0, 64, 69
1, 66798, Control_c, 0, 64, 70
1, 66801, Note_off_c, 0, 62, 55
1, 66802, Note_off_c, 0, 94, 59
1, 66813, Control_c, 0, 64, 71
1, 66813, Control_c, 0, 67, 35
1, 66828, Control_c, 0, 67, 34
1, 66834, Note_off_c, 0, 92, 65
1, 66843, Control_c, 0, 64, 71
1, 66855, Note_on_c, 0, 54, 51
1, 66858, Control_c, 0, 67, 34
1, 66863, Note_on_c, 0, 78, 64
1, 66872, Control_c, 0, 64, 72
1, 66872, Control_c, 0, 67, 33
1, 66887, Control_c, 0, 64, 72
1, 66917, Control_c, 0, 64, 73
1, 66937, Note_off_c, 0, 78, 60
1, 66949, Note_on_c, 0, 92, 73
1, 66962, Note_off_c, 0, 54, 62
1, 66976, Note_on_c, 0, 63, 48
1, 67036, Control_c, 0, 64, 72
1, 67038, Note_on_c, 0, 90, 68
1, 67038, Note_off_c, 0, 63, 53
1, 67051, Control_c, 0, 64, 68
1, 67066, Control_c, 0, 64, 63
1, 67068, Note_off_c, 0, 92, 56
1, 67081, Control_c, 0, 64, 57
1, 67095, Control_c, 0, 64, 53
1, 67095, Control_c, 0, 67, 30
1, 67101, Note_on_c, 0, 49, 56
1, 67103, Note_off_c, 0, 90, 62
1, 67110, Control_c, 0, 64, 54
1, 67110, Control_c, 0, 67, 0
1, 67125, Control_c, 0, 64, 56
1, 67134, Note_on_c, 0, 77, 64
1, 67140, Control_c, 0, 64, 59
1, 67162, Control_c, 0, 64, 62
1, 67177, Control_c, 0, 64, 64
1, 67189, Note_off_c, 0, 49, 58
1, 67192, Control_c, 0, 64, 66
1, 67204, Note_off_c, 0, 77, 63
1, 67207, Control_c, 0, 64, 68
1, 67222, Control_c, 0, 64, 70
1, 67226, Note_on_c, 0, 90, 67
1, 67236, Control_c, 0, 64, 71
1, 67251, Control_c, 0, 64, 72
1, 67259, Note_on_c, 0, 65, 57
1, 67266, Control_c, 0, 64, 72
1, 67281, Control_c, 0, 64, 73
1, 67304, Note_on_c, 0, 89, 68
1, 67319, Note_off_c, 0, 65, 56
1, 67325, Control_c, 0, 64, 72
1, 67340, Control_c, 0, 64, 69
1, 67344, Note_off_c, 0, 90, 56
1, 67355, Control_c, 0, 64, 64
1, 67369, Control_c, 0, 64, 58
1, 67377, Note_off_c, 0, 89, 64
1, 67384, Control_c, 0, 64, 54
1, 67393, Note_on_c, 0, 51, 52
1, 67399, Control_c, 0, 64, 55
1, 67405, Note_on_c, 0, 59, 34
1, 67409, Note_on_c, 0, 75, 57
1, 67414, Control_c, 0, 64, 58
1, 67429, Control_c, 0, 64, 61
1, 67444, Control_c, 0, 64, 63
1, 67459, Control_c, 0, 64, 65
1, 67465, Note_off_c, 0, 75, 60
1, 67474, Control_c, 0, 64, 68
1, 67489, Control_c, 0, 64, 71
1, 67489, Note_on_c, 0, 89, 69
1, 67503, Control_c, 0, 64, 73
1, 67513, Note_off_c, 0, 51, 49
1, 67514, Note_on_c, 0, 66, 43
1, 67518, Control_c, 0, 64, 75
1, 67533, Control_c, 0, 64, 76
1, 67548, Control_c, 0, 64, 77
1, 67559, Note_off_c, 0, 89, 53
1, 67560, Note_on_c, 0, 87, 75
1, 67565, Note_off_c, 0, 66, 59
1, 67575, Note_off_c, 0, 59, 36
1, 67592, Control_c, 0, 64, 76
1, 67607, Control_c, 0, 64, 73
1, 67621, Control_c, 0, 64, 67
1, 67622, Note_off_c, 0, 87, 63
1, 67632, Note_on_c, 0, 52, 58
1, 67636, Control_c, 0, 64, 61
1, 67651, Control_c, 0, 64, 56
1, 67656, Note_on_c, 0, 73, 63
1, 67666, Control_c, 0, 64, 55
1, 67681, Control_c, 0, 64, 57
1, 67696, Control_c, 0, 64, 60
1, 67710, Control_c, 0, 64, 62
1, 67718, Note_off_c, 0, 73, 60
1, 67725, Control_c, 0, 64, 65
1, 67733, Note_on_c, 0, 87, 72
1, 67740, Control_c, 0, 64, 67
1, 67748, Note_off_c, 0, 52, 32
1, 67754, Control_c, 0, 64, 70
1, 67770, Control_c, 0, 64, 72
1, 67774, Note_on_c, 0, 67, 43
1, 67785, Control_c, 0, 64, 74
1, 67800, Control_c, 0, 64, 75
1, 67811, Note_on_c, 0, 85, 69
1, 67815, Control_c, 0, 64, 76
1, 67830, Control_c, 0, 64, 77
1, 67843, Note_off_c, 0, 67, 60
1, 67844, Control_c, 0, 64, 78
1, 67849, Note_off_c, 0, 87, 40
1, 67859, Control_c, 0, 64, 78
1, 67873, Note_on_c, 0, 61, 13
1, 67874, Control_c, 0, 64, 79
1, 67876, Note_off_c, 0, 85, 62
1, 67889, Control_c, 0, 64, 80
1, 67909, Note_on_c, 0, 53, 56
1, 67935, Note_on_c, 0, 71, 59
1, 67979, Note_off_c, 0, 71, 62
1, 68000, Control_c, 0, 64, 78
1, 68004, Note_on_c, 0, 85, 68
1, 68015, Control_c, 0, 64, 69
1, 68030, Control_c, 0, 64, 56
1, 68039, Note_off_c, 0, 53, 42
1, 68040, Note_on_c, 0, 68, 58
1, 68045, Control_c, 0, 64, 0
1, 68088, Note_on_c, 0, 83, 68
1, 68113, Note_off_c, 0, 85, 63
1, 68126, Note_off_c, 0, 83, 64
1, 68126, Note_off_c, 0, 61, 38
1, 68132, Note_off_c, 0, 68, 55
1, 68133, Control_c, 0, 64, 31
1, 68148, Control_c, 0, 64, 40
1, 68163, Control_c, 0, 64, 50
1, 68176, Note_on_c, 0, 70, 55
1, 68177, Control_c, 0, 64, 57
1, 68192, Control_c, 0, 64, 59
1, 68197, Note_on_c, 0, 54, 52
1, 68222, Control_c, 0, 64, 60
1, 68237, Control_c, 0, 64, 61
1, 68246, Note_on_c, 0, 82, 68
1, 68252, Control_c, 0, 64, 62
1, 68267, Control_c, 0, 64, 64
1, 68273, Note_off_c, 0, 70, 64
1, 68282, Control_c, 0, 64, 64
1, 68296, Control_c, 0, 64, 65
1, 68311, Control_c, 0, 64, 66
1, 68326, Control_c, 0, 64, 66
1, 68341, Control_c, 0, 64, 67
1, 68343, Note_off_c, 0, 82, 54
1, 68371, Control_c, 0, 64, 67
1, 68387, Note_on_c, 0, 58, 53
1, 68388, Note_on_c, 0, 80, 69
1, 68399, Note_on_c, 0, 68, 55
1, 68400, Control_c, 0, 64, 68
1, 68415, Control_c, 0, 64, 68
1, 68430, Control_c, 0, 64, 69
1, 68439, Note_off_c, 0, 68, 64
1, 68445, Control_c, 0, 64, 70
1, 68503, Control_c, 0, 64, 69
1, 68504, Note_off_c, 0, 80, 50
1, 68518, Control_c, 0, 64, 67
1, 68530, Note_on_c, 0, 56, 59
1, 68533, Control_c, 0, 64, 64
1, 68537, Note_on_c, 0, 78, 72
1, 68539, Note_on_c, 0, 66, 67
1, 68539, Note_off_c, 0, 58, 60
1, 68548, Control_c, 0, 64, 63
1, 68563, Control_c, 0, 64, 62
1, 68586, Note_off_c, 0, 66, 56
1, 68593, Control_c, 0, 64, 63
1, 68608, Control_c, 0, 64, 63
1, 68623, Control_c, 0, 64, 64
1, 68638, Control_c, 0, 64, 65
1, 68660, Control_c, 0, 64, 66
1, 68672, Note_on_c, 0, 59, 65
1, 68673, Note_on_c, 0, 80, 77
1, 68675, Control_c, 0, 64, 67
1, 68688, Note_on_c, 0, 68, 67
1, 68690, Control_c, 0, 64, 68
1, 68695, Note_off_c, 0, 78, 60
1, 68705, Control_c, 0, 64, 69
1, 68720, Control_c, 0, 64, 70
1, 68721, Note_off_c, 0, 68, 61
1, 68735, Control_c, 0, 64, 70
1, 68753, Note_off_c, 0, 80, 59
1, 68794, Control_c, 0, 64, 70
1, 68805, Note_on_c, 0, 58, 73
1, 68813, Note_on_c, 0, 82, 76
1, 68818, Note_on_c, 0, 70, 66
1, 68821, Note_off_c, 0, 59, 59
1, 68823, Control_c, 0, 64, 70
1, 68864, Note_off_c, 0, 56, 53
1, 68866, Note_off_c, 0, 70, 57
1, 68877, Note_off_c, 0, 82, 58
1, 68882, Control_c, 0, 64, 71
1, 68912, Control_c, 0, 64, 70
1, 68926, Control_c, 0, 64, 67
1, 68934, Note_on_c, 0, 61, 74
1, 68940, Note_on_c, 0, 83, 82
1, 68941, Note_on_c, 0, 71, 73
1, 68941, Control_c, 0, 64, 63
1, 68956, Control_c, 0, 64, 57
1, 68971, Control_c, 0, 64, 53
1, 68986, Control_c, 0, 64, 54
1, 68991, Note_off_c, 0, 58, 57
1, 68996, Note_off_c, 0, 71, 63
1, 69000, Control_c, 0, 64, 58
1, 69015, Control_c, 0, 64, 61
1, 69030, Control_c, 0, 64, 63
1, 69045, Control_c, 0, 64, 66
1, 69048, Note_off_c, 0, 83, 60
1, 69054, Note_off_c, 0, 61, 58
1, 69060, Control_c, 0, 64, 67
1, 69069, Note_on_c, 0, 59, 77
1, 69072, Note_on_c, 0, 85, 85
1, 69074, Note_off_c, 0, 54, 62
1, 69074, Control_c, 0, 64, 70
1, 69080, Note_on_c, 0, 73, 78
1, 69089, Control_c, 0, 64, 72
1, 69104, Control_c, 0, 64, 75
1, 69118, Note_off_c, 0, 73, 60
1, 69119, Control_c, 0, 64, 78
1, 69134, Control_c, 0, 64, 80
1, 69134, Note_off_c, 0, 85, 65
1, 69149, Control_c, 0, 64, 81
1, 69164, Control_c, 0, 64, 83
1, 69179, Control_c, 0, 64, 83
1, 69181, Note_off_c, 0, 59, 62
1, 69198, Note_on_c, 0, 63, 75
1, 69204, Note_on_c, 0, 75, 81
1, 69205, Note_on_c, 0, 87, 94
1, 69223, Note_off_c, 0, 63, 69
1, 69275, Note_off_c, 0, 75, 61
1, 69282, Note_off_c, 0, 87, 63
1, 69297, Control_c, 0, 64, 81
1, 69312, Control_c, 0, 64, 74
1, 69326, Control_c, 0, 64, 65
1, 69341, Control_c, 0, 64, 54
1, 69356, Control_c, 0, 64, 39
1, 69365, Note_on_c, 0, 42, 82
1, 69370, Note_on_c, 0, 88, 96
1, 69372, Note_on_c, 0, 49, 73
1, 69372, Note_on_c, 0, 82, 91
1, 69372, Control_c, 0, 64, 30
1, 69373, Note_on_c, 0, 76, 90
1, 69387, Control_c, 0, 64, 33
1, 69408, Note_off_c, 0, 49, 68
1, 69409, Control_c, 0, 64, 45
1, 69420, Note_off_c, 0, 42, 61
1, 69424, Control_c, 0, 64, 57
1, 69438, Control_c, 0, 64, 66
1, 69453, Control_c, 0, 64, 74
1, 69468, Control_c, 0, 64, 83
1, 69483, Control_c, 0, 64, 92
1, 69498, Control_c, 0, 64, 97
1, 69528, Note_off_c, 0, 88, 63
1, 69550, Note_on_c, 0, 80, 89
1, 69581, Note_off_c, 0, 82, 63
1, 69589, Note_off_c, 0, 76, 61
1, 69648, Note_off_c, 0, 80, 55
1, 69681, Note_on_c, 0, 58, 78
1, 69683, Note_on_c, 0, 64, 77
1, 69688, Note_on_c, 0, 88, 80
1, 69690, Note_on_c, 0, 76, 86
1, 69690, Note_on_c, 0, 85, 82
1, 69805, Note_on_c, 0, 80, 90
1, 69850, Note_off_c, 0, 85, 55
1, 69858, Note_off_c, 0, 88, 36
1, 69858, Note_off_c, 0, 76, 54
1, 69897, Control_c, 0, 64, 96
1, 69912, Control_c, 0, 64, 95
1, 69918, Note_off_c, 0, 80, 59
1, 69922, Note_off_c, 0, 58, 48
1, 69954, Note_on_c, 0, 82, 86
1, 69954, Note_on_c, 0, 88, 80
1, 69957, Control_c, 0, 64, 95
1, 69959, Note_on_c, 0, 76, 80
1, 69960, Note_on_c, 0, 68, 92
1, 69967, Note_off_c, 0, 64, 57
1, 69987, Control_c, 0, 64, 94
1, 69987, Note_off_c, 0, 76, 66
1, 69993, Note_off_c, 0, 88, 61
1, 69994, Note_off_c, 0, 82, 57
1, 70157, Control_c, 0, 64, 94
1, 70171, Control_c, 0, 64, 89
1, 70187, Control_c, 0, 64, 79
1, 70202, Control_c, 0, 64, 68
1, 70217, Control_c, 0, 64, 62
1, 70232, Control_c, 0, 64, 59
1, 70233, Note_on_c, 0, 65, 78
1, 70240, Note_on_c, 0, 59, 68
1, 70246, Note_on_c, 0, 80, 84
1, 70247, Control_c, 0, 64, 61
1, 70248, Note_off_c, 0, 68, 64
1, 70252, Note_on_c, 0, 75, 76
1, 70261, Control_c, 0, 64, 64
1, 70265, Note_off_c, 0, 65, 66
1, 70276, Note_off_c, 0, 59, 66
1, 70276, Control_c, 0, 64, 68
1, 70291, Control_c, 0, 64, 74
1, 70306, Control_c, 0, 64, 83
1, 70321, Control_c, 0, 64, 90
1, 70331, Note_off_c, 0, 80, 57
1, 70335, Control_c, 0, 64, 91
1, 70340, Note_off_c, 0, 75, 0
1, 70350, Control_c, 0, 64, 84
1, 70365, Control_c, 0, 64, 65
1, 70368, Note_on_c, 0, 83, 86
1, 70377, Note_on_c, 0, 87, 83
1, 70377, Poly_aftertouch_c, 0, 75, 127
1, 70380, Control_c, 0, 64, 0
1, 70383, Note_on_c, 0, 75, 10
1, 70416, Note_off_c, 0, 75, 59
1, 70419, Note_off_c, 0, 83, 64
1, 70434, Note_off_c, 0, 87, 64
1, 70528, Control_c, 0, 64, 47
1, 70529, Note_on_c, 0, 42, 78
1, 70530, Note_on_c, 0, 49, 79
1, 70534, Note_on_c, 0, 88, 85
1, 70535, Note_on_c, 0, 82, 84
1, 70536, Note_on_c, 0, 76, 91
1, 70543, Control_c, 0, 64, 75
1, 70558, Note_off_c, 0, 49, 69
1, 70558, Control_c, 0, 64, 98
1, 70559, Note_off_c, 0, 42, 68
1, 70572, Control_c, 0, 64, 127
1, 70666, Note_off_c, 0, 88, 64
1, 70685, Note_on_c, 0, 80, 86
1, 70715, Note_off_c, 0, 82, 62
1, 70720, Note_off_c, 0, 76, 61
1, 70748, Note_off_c, 0, 80, 62
1, 70800, Note_on_c, 0, 64, 78
1, 70809, Note_on_c, 0, 58, 75
1, 70818, Note_on_c, 0, 85, 80
1, 70818, Note_on_c, 0, 76, 76
1, 70821, Note_on_c, 0, 88, 74
1, 70944, Note_on_c, 0, 80, 85
1, 70976, Note_off_c, 0, 85, 57
1, 70976, Note_off_c, 0, 88, 55
1, 70997, Note_off_c, 0, 76, 55
1, 71037, Note_off_c, 0, 80, 60
1, 71074, Note_off_c, 0, 58, 60
1, 71080, Note_on_c, 0, 68, 88
1, 71080, Note_on_c, 0, 88, 80
1, 71081, Note_on_c, 0, 82, 79
1, 71083, Note_on_c, 0, 76, 79
1, 71106, Note_off_c, 0, 82, 63
1, 71111, Note_off_c, 0, 76, 64
1, 71115, Note_off_c, 0, 64, 59
1, 71116, Note_off_c, 0, 88, 61
1, 71277, Control_c, 0, 64, 101
1, 71292, Control_c, 0, 64, 77
1, 71307, Control_c, 0, 64, 53
1, 71321, Control_c, 0, 64, 0
1, 71340, Note_on_c, 0, 65, 74
1, 71340, Note_on_c, 0, 80, 82
1, 71341, Note_on_c, 0, 59, 64
1, 71347, Note_on_c, 0, 75, 68
1, 71381, Control_c, 0, 64, 29
1, 71395, Control_c, 0, 64, 50
1, 71400, Note_off_c, 0, 59, 61
1, 71410, Control_c, 0, 64, 60
1, 71418, Note_off_c, 0, 65, 63
1, 71425, Control_c, 0, 64, 66
1, 71433, Note_off_c, 0, 80, 49
1, 71440, Control_c, 0, 64, 70
1, 71447, Note_off_c, 0, 75, 0
1, 71455, Control_c, 0, 64, 72
1, 71465, Note_on_c, 0, 83, 77
1, 71469, Control_c, 0, 64, 73
1, 71471, Note_on_c, 0, 87, 79
1, 71484, Poly_aftertouch_c, 0, 75, 127
1, 71484, Control_c, 0, 64, 73
1, 71508, Poly_aftertouch_c, 0, 75, 0
1, 71517, Note_off_c, 0, 83, 62
1, 71522, Note_off_c, 0, 87, 62
1, 71528, Control_c, 0, 64, 72
1, 71543, Control_c, 0, 64, 67
1, 71558, Control_c, 0, 64, 61
1, 71572, Control_c, 0, 64, 53
1, 71587, Control_c, 0, 64, 47
1, 71596, Note_on_c, 0, 58, 67
1, 71602, Control_c, 0, 64, 48
1, 71605, Note_on_c, 0, 64, 62
1, 71610, Note_on_c, 0, 88, 79
1, 71611, Note_on_c, 0, 85, 79
1, 71617, Control_c, 0, 64, 54
1, 71632, Control_c, 0, 64, 60
1, 71645, Note_off_c, 0, 64, 64
1, 71648, Note_off_c, 0, 58, 60
1, 71654, Control_c, 0, 64, 65
1, 71655, Note_off_c, 0, 68, 63
1, 71668, Control_c, 0, 64, 69
1, 71683, Control_c, 0, 64, 72
1, 71698, Control_c, 0, 64, 75
1, 71713, Control_c, 0, 64, 76
1, 71734, Note_on_c, 0, 82, 80
1, 71737, Note_off_c, 0, 88, 63
1, 71738, Note_on_c, 0, 76, 71
1, 71763, Note_off_c, 0, 85, 33
1, 71770, Note_off_c, 0, 76, 64
1, 71773, Control_c, 0, 64, 75
1, 71787, Note_off_c, 0, 82, 63
1, 71788, Control_c, 0, 64, 69
1, 71803, Control_c, 0, 64, 57
1, 71817, Control_c, 0, 64, 0
1, 71864, Note_on_c, 0, 68, 81
1, 71866, Note_on_c, 0, 65, 76
1, 71869, Note_on_c, 0, 59, 65
1, 71879, Note_on_c, 0, 75, 68
1, 71879, Note_on_c, 0, 80, 75
1, 71906, Control_c, 0, 64, 41
1, 71921, Note_off_c, 0, 59, 61
1, 71921, Control_c, 0, 64, 54
1, 71936, Control_c, 0, 64, 62
1, 71940, Note_off_c, 0, 65, 64
1, 71951, Control_c, 0, 64, 67
1, 71956, Note_off_c, 0, 80, 48
1, 71961, Note_off_c, 0, 75, 0
1, 71966, Control_c, 0, 64, 69
1, 71981, Control_c, 0, 64, 70
1, 71992, Note_on_c, 0, 87, 69
1, 71993, Note_on_c, 0, 83, 68
1, 72011, Control_c, 0, 64, 71
1, 72020, Poly_aftertouch_c, 0, 75, 0
1, 72022, Note_off_c, 0, 83, 65
1, 72025, Control_c, 0, 64, 70
1, 72040, Note_off_c, 0, 87, 59
1, 72040, Control_c, 0, 64, 70
1, 72055, Control_c, 0, 64, 66
1, 72070, Control_c, 0, 64, 58
1, 72085, Control_c, 0, 64, 41
1, 72099, Control_c, 0, 64, 0
1, 72124, Note_on_c, 0, 58, 68
1, 72124, Note_on_c, 0, 64, 64
1, 72130, Note_on_c, 0, 85, 76
1, 72130, Note_on_c, 0, 88, 75
1, 72158, Control_c, 0, 64, 44
1, 72173, Control_c, 0, 64, 58
1, 72183, Note_off_c, 0, 58, 61
1, 72186, Note_off_c, 0, 64, 62
1, 72188, Control_c, 0, 64, 67
1, 72201, Note_off_c, 0, 68, 62
1, 72203, Control_c, 0, 64, 71
1, 72217, Control_c, 0, 64, 74
1, 72232, Control_c, 0, 64, 76
1, 72235, Note_off_c, 0, 88, 58
1, 72240, Note_off_c, 0, 85, 51
1, 72247, Control_c, 0, 64, 78
1, 72255, Note_on_c, 0, 82, 80
1, 72256, Note_on_c, 0, 76, 68
1, 72261, Control_c, 0, 64, 80
1, 72276, Control_c, 0, 64, 80
1, 72284, Note_off_c, 0, 76, 66
1, 72301, Note_off_c, 0, 82, 63
1, 72306, Control_c, 0, 64, 78
1, 72321, Control_c, 0, 64, 71
1, 72336, Control_c, 0, 64, 62
1, 72351, Control_c, 0, 64, 49
1, 72365, Control_c, 0, 64, 34
1, 72380, Control_c, 0, 64, 0
1, 72381, Note_on_c, 0, 59, 64
1, 72395, Note_on_c, 0, 65, 66
1, 72395, Note_on_c, 0, 68, 68
1, 72403, Control_c, 0, 64, 33
1, 72406, Note_on_c, 0, 75, 60
1, 72407, Note_on_c, 0, 80, 70
1, 72417, Control_c, 0, 64, 46
1, 72432, Control_c, 0, 64, 58
1, 72442, Note_off_c, 0, 59, 61
1, 72447, Note_off_c, 0, 65, 63
1, 72447, Control_c, 0, 64, 66
1, 72452, Note_off_c, 0, 75, 56
1, 72462, Control_c, 0, 64, 74
1, 72473, Note_off_c, 0, 68, 61
1, 72476, Control_c, 0, 64, 83
1, 72491, Control_c, 0, 64, 90
1, 72506, Control_c, 0, 64, 93
1, 72509, Note_on_c, 0, 87, 71
1, 72513, Note_off_c, 0, 80, 38
1, 72515, Note_on_c, 0, 83, 74
1, 72521, Control_c, 0, 64, 93
1, 72542, Note_off_c, 0, 83, 63
1, 72550, Control_c, 0, 64, 93
1, 72558, Note_off_c, 0, 87, 60
1, 72566, Control_c, 0, 64, 88
1, 72581, Control_c, 0, 64, 78
1, 72596, Control_c, 0, 64, 64
1, 72611, Control_c, 0, 64, 50
1, 72626, Control_c, 0, 64, 0
1, 72642, Note_on_c, 0, 60, 59
1, 72646, Note_on_c, 0, 70, 64
1, 72646, Note_on_c, 0, 85, 73
1, 72652, Note_on_c, 0, 66, 57
1, 72652, Note_on_c, 0, 82, 73
1, 72670, Control_c, 0, 64, 29
1, 72685, Control_c, 0, 64, 44
1, 72699, Control_c, 0, 64, 59
1, 72714, Control_c, 0, 64, 66
1, 72716, Note_off_c, 0, 70, 57
1, 72729, Control_c, 0, 64, 71
1, 72736, Note_off_c, 0, 66, 54
1, 72744, Control_c, 0, 64, 75
1, 72749, Note_off_c, 0, 60, 37
1, 72750, Note_off_c, 0, 85, 51
1, 72759, Control_c, 0, 64, 77
1, 72763, Note_on_c, 0, 61, 57
1, 72765, Note_off_c, 0, 82, 57
1, 72767, Note_on_c, 0, 78, 73
1, 72774, Note_on_c, 0, 73, 68
1, 72795, Note_off_c, 0, 78, 64
1, 72798, Note_off_c, 0, 61, 65
1, 72800, Note_off_c, 0, 73, 69
1, 72804, Control_c, 0, 64, 74
1, 72819, Control_c, 0, 64, 67
1, 72833, Control_c, 0, 64, 59
1, 72848, Control_c, 0, 64, 46
1, 72863, Control_c, 0, 64, 0
1, 72901, Note_on_c, 0, 62, 56
1, 72901, Note_on_c, 0, 77, 74
1, 72907, Note_on_c, 0, 71, 64
1, 72911, Note_on_c, 0, 65, 51
1, 72915, Note_on_c, 0, 68, 51
1, 72922, Control_c, 0, 64, 36
1, 72937, Control_c, 0, 64, 49
1, 72952, Control_c, 0, 64, 59
1, 72966, Control_c, 0, 64, 66
1, 72981, Control_c, 0, 64, 72
1, 72985, Note_off_c, 0, 65, 60
1, 72994, Note_off_c, 0, 62, 61
1, 72996, Control_c, 0, 64, 78
1, 72997, Note_off_c, 0, 68, 53
1, 73011, Control_c, 0, 64, 81
1, 73022, Note_on_c, 0, 80, 69
1, 73024, Note_on_c, 0, 83, 68
1, 73025, Note_off_c, 0, 77, 61
1, 73026, Control_c, 0, 64, 81
1, 73040, Control_c, 0, 64, 79
1, 73049, Note_off_c, 0, 83, 67
1, 73050, Note_off_c, 0, 80, 66
1, 73055, Control_c, 0, 64, 71
1, 73064, Note_off_c, 0, 71, 37
1, 73070, Control_c, 0, 64, 61
1, 73085, Control_c, 0, 64, 34
1, 73099, Control_c, 0, 64, 0
1, 73165, Note_on_c, 0, 82, 69
1, 73167, Note_on_c, 0, 67, 54
1, 73168, Note_on_c, 0, 63, 56
1, 73176, Note_on_c, 0, 79, 73
1, 73181, Control_c, 0, 64, 39
1, 73196, Control_c, 0, 64, 55
1, 73211, Control_c, 0, 64, 63
1, 73226, Control_c, 0, 64, 68
1, 73236, Note_off_c, 0, 67, 62
1, 73240, Control_c, 0, 64, 73
1, 73254, Note_off_c, 0, 63, 59
1, 73255, Control_c, 0, 64, 77
1, 73270, Control_c, 0, 64, 81
1, 73275, Note_off_c, 0, 79, 63
1, 73282, Note_on_c, 0, 75, 65
1, 73282, Note_off_c, 0, 82, 59
1, 73285, Control_c, 0, 64, 82
1, 73287, Note_on_c, 0, 70, 55
1, 73310, Note_off_c, 0, 75, 66
1, 73314, Control_c, 0, 64, 79
1, 73315, Note_off_c, 0, 70, 64
1, 73329, Control_c, 0, 64, 70
1, 73344, Control_c, 0, 64, 60
1, 73359, Control_c, 0, 64, 41
1, 73375, Control_c, 0, 64, 0
1, 73415, Note_on_c, 0, 60, 53
1, 73416, Note_on_c, 0, 75, 66
1, 73419, Note_on_c, 0, 63, 49
1, 73420, Note_on_c, 0, 69, 63
1, 73425, Note_on_c, 0, 66, 51
1, 73449, Control_c, 0, 64, 40
1, 73463, Control_c, 0, 64, 55
1, 73478, Control_c, 0, 64, 64
1, 73482, Note_off_c, 0, 69, 51
1, 73493, Control_c, 0, 64, 70
1, 73507, Note_off_c, 0, 60, 62
1, 73508, Note_off_c, 0, 75, 54
1, 73508, Control_c, 0, 64, 75
1, 73515, Note_off_c, 0, 63, 58
1, 73519, Note_off_c, 0, 66, 58
1, 73522, Control_c, 0, 64, 78
1, 73537, Note_on_c, 0, 78, 73
1, 73537, Control_c, 0, 64, 79
1, 73543, Note_on_c, 0, 81, 65
1, 73552, Control_c, 0, 64, 80
1, 73574, Note_off_c, 0, 81, 66
1, 73578, Note_off_c, 0, 78, 59
1, 73582, Control_c, 0, 64, 79
1, 73597, Control_c, 0, 64, 74
1, 73611, Control_c, 0, 64, 66
1, 73626, Control_c, 0, 64, 57
1, 73641, Control_c, 0, 64, 43
1, 73656, Control_c, 0, 64, 29
1, 73663, Note_on_c, 0, 61, 62
1, 73663, Note_on_c, 0, 65, 59
1, 73665, Note_on_c, 0, 80, 67
1, 73671, Control_c, 0, 64, 0
1, 73678, Note_on_c, 0, 77, 54
1, 73686, Control_c, 0, 64, 38
1, 73692, Note_off_c, 0, 61, 64
1, 73696, Note_off_c, 0, 65, 66
1, 73701, Control_c, 0, 64, 50
1, 73715, Control_c, 0, 64, 60
1, 73730, Control_c, 0, 64, 65
1, 73745, Control_c, 0, 64, 69
1, 73760, Control_c, 0, 64, 72
1, 73775, Control_c, 0, 64, 74
1, 73781, Note_off_c, 0, 77, 62
1, 73782, Note_on_c, 0, 73, 67
1, 73783, Note_off_c, 0, 80, 59
1, 73784, Note_on_c, 0, 68, 66
1, 73789, Control_c, 0, 64, 75
1, 73819, Control_c, 0, 64, 74
1, 73823, Note_off_c, 0, 68, 60
1, 73830, Note_off_c, 0, 73, 61
1, 73834, Control_c, 0, 64, 72
1, 73836, Note_on_c, 0, 49, 59
1, 73849, Control_c, 0, 64, 65
1, 73863, Control_c, 0, 64, 57
1, 73869, Note_on_c, 0, 59, 41
1, 73878, Control_c, 0, 64, 44
1, 73901, Control_c, 0, 64, 31
1, 73915, Control_c, 0, 64, 32
1, 73918, Note_on_c, 0, 63, 63
1, 73920, Note_on_c, 0, 66, 63
1, 73920, Note_on_c, 0, 71, 64
1, 73930, Control_c, 0, 64, 39
1, 73945, Control_c, 0, 64, 51
1, 73960, Control_c, 0, 64, 60
1, 73975, Control_c, 0, 64, 66
1, 73982, Note_off_c, 0, 49, 61
1, 73983, Note_off_c, 0, 59, 62
1, 73990, Control_c, 0, 64, 73
1, 74004, Control_c, 0, 64, 80
1, 74019, Control_c, 0, 64, 84
1, 74034, Control_c, 0, 64, 86
1, 74038, Note_on_c, 0, 78, 64
1, 74041, Note_off_c, 0, 63, 60
1, 74044, Note_on_c, 0, 75, 58
1, 74044, Note_off_c, 0, 71, 57
1, 74063, Control_c, 0, 64, 86
1, 74067, Note_off_c, 0, 66, 56
1, 74078, Note_off_c, 0, 75, 63
1, 74078, Control_c, 0, 64, 82
1, 74082, Note_off_c, 0, 78, 51
1, 74093, Control_c, 0, 64, 71
1, 74108, Control_c, 0, 64, 61
1, 74122, Control_c, 0, 64, 46
1, 74137, Control_c, 0, 64, 0
1, 74167, Note_on_c, 0, 50, 55
1, 74168, Note_on_c, 0, 62, 54
1, 74169, Note_on_c, 0, 58, 54
1, 74180, Note_on_c, 0, 77, 62
1, 74183, Control_c, 0, 64, 29
1, 74187, Note_on_c, 0, 74, 63
1, 74198, Control_c, 0, 64, 44
1, 74212, Control_c, 0, 64, 56
1, 74227, Control_c, 0, 64, 64
1, 74242, Control_c, 0, 64, 69
1, 74249, Note_off_c, 0, 62, 62
1, 74250, Note_off_c, 0, 50, 61
1, 74257, Control_c, 0, 64, 75
1, 74271, Control_c, 0, 64, 79
1, 74273, Note_off_c, 0, 58, 58
1, 74282, Note_off_c, 0, 74, 59
1, 74286, Control_c, 0, 64, 81
1, 74298, Note_on_c, 0, 70, 66
1, 74301, Control_c, 0, 64, 81
1, 74310, Note_off_c, 0, 77, 32
1, 74320, Note_on_c, 0, 65, 33
1, 74331, Control_c, 0, 64, 81
1, 74333, Note_off_c, 0, 70, 62
1, 74345, Control_c, 0, 64, 77
1, 74351, Note_off_c, 0, 65, 56
1, 74360, Control_c, 0, 64, 69
1, 74375, Control_c, 0, 64, 60
1, 74390, Control_c, 0, 64, 45
1, 74405, Control_c, 0, 64, 31
1, 74416, Note_on_c, 0, 51, 56
1, 74419, Note_on_c, 0, 57, 50
1, 74419, Control_c, 0, 64, 0
1, 74423, Note_on_c, 0, 61, 57
1, 74434, Control_c, 0, 64, 32
1, 74435, Note_on_c, 0, 69, 62
1, 74436, Note_on_c, 0, 64, 60
1, 74449, Control_c, 0, 64, 42
1, 74464, Control_c, 0, 64, 53
1, 74479, Control_c, 0, 64, 61
1, 74493, Note_off_c, 0, 57, 58
1, 74494, Control_c, 0, 64, 67
1, 74497, Note_off_c, 0, 69, 53
1, 74509, Control_c, 0, 64, 71
1, 74509, Note_off_c, 0, 61, 61
1, 74524, Control_c, 0, 64, 74
1, 74538, Note_off_c, 0, 51, 57
1, 74538, Control_c, 0, 64, 76
1, 74551, Note_on_c, 0, 73, 65
1, 74562, Note_on_c, 0, 76, 56
1, 74577, Note_off_c, 0, 64, 62
1, 74583, Control_c, 0, 64, 72
1, 74592, Note_off_c, 0, 76, 65
1, 74598, Control_c, 0, 64, 66
1, 74607, Note_off_c, 0, 73, 61
1, 74613, Control_c, 0, 64, 57
1, 74628, Control_c, 0, 64, 45
1, 74650, Control_c, 0, 64, 32
1, 74664, Control_c, 0, 64, 0
1, 74679, Control_c, 0, 64, 31
1, 74682, Note_on_c, 0, 60, 55
1, 74684, Note_on_c, 0, 52, 54
1, 74693, Note_on_c, 0, 75, 57
1, 74694, Note_on_c, 0, 56, 50
1, 74694, Control_c, 0, 64, 39
1, 74709, Control_c, 0, 64, 49
1, 74724, Control_c, 0, 64, 56
1, 74738, Control_c, 0, 64, 62
1, 74741, Note_on_c, 0, 72, 27
1, 74742, Note_on_c, 0, 71, 38
1, 74753, Control_c, 0, 64, 65
1, 74768, Control_c, 0, 64, 69
1, 74783, Control_c, 0, 64, 72
1, 74787, Note_off_c, 0, 60, 56
1, 74795, Note_off_c, 0, 52, 57
1, 74798, Note_off_c, 0, 72, 44
1, 74798, Control_c, 0, 64, 76
1, 74800, Note_off_c, 0, 56, 58
1, 74804, Note_off_c, 0, 71, 41
1, 74813, Control_c, 0, 64, 78
1, 74815, Note_on_c, 0, 68, 64
1, 74817, Note_off_c, 0, 75, 35
1, 74821, Note_on_c, 0, 63, 54
1, 74828, Control_c, 0, 64, 78
1, 74843, Control_c, 0, 64, 79
1, 74851, Note_off_c, 0, 68, 64
1, 74857, Control_c, 0, 64, 78
1, 74863, Note_off_c, 0, 63, 60
1, 74872, Control_c, 0, 64, 74
1, 74887, Control_c, 0, 64, 66
1, 74902, Control_c, 0, 64, 56
1, 74917, Control_c, 0, 64, 39
1, 74932, Control_c, 0, 64, 0
1, 74941, Note_on_c, 0, 53, 55
1, 74946, Note_on_c, 0, 56, 51
1, 74947, Note_on_c, 0, 62, 58
1, 74947, Note_on_c, 0, 67, 58
1, 74950, Note_on_c, 0, 59, 50
1, 74977, Control_c, 0, 64, 30
1, 74992, Control_c, 0, 64, 45
1, 75006, Control_c, 0, 64, 56
1, 75009, Note_off_c, 0, 59, 55
1, 75021, Control_c, 0, 64, 63
1, 75028, Note_off_c, 0, 53, 62
1, 75031, Note_off_c, 0, 56, 59
1, 75036, Control_c, 0, 64, 68
1, 75051, Control_c, 0, 64, 73
1, 75066, Control_c, 0, 64, 77
1, 75068, Note_on_c, 0, 74, 57
1, 75069, Note_on_c, 0, 71, 52
1, 75081, Control_c, 0, 64, 80
1, 75092, Note_off_c, 0, 67, 46
1, 75095, Control_c, 0, 64, 81
1, 75108, Note_off_c, 0, 62, 37
1, 75110, Note_off_c, 0, 71, 62
1, 75110, Control_c, 0, 64, 81
1, 75125, Note_off_c, 0, 74, 59
1, 75155, Control_c, 0, 64, 81
1, 75169, Control_c, 0, 64, 80
1, 75184, Control_c, 0, 64, 76
1, 75199, Control_c, 0, 64, 70
1, 75214, Control_c, 0, 64, 63
1, 75229, Control_c, 0, 64, 53
1, 75231, Note_on_c, 0, 54, 58
1, 75236, Note_on_c, 0, 58, 57
1, 75239, Note_on_c, 0, 70, 58
1, 75243, Control_c, 0, 64, 39
1, 75244, Note_on_c, 0, 73, 45
1, 75258, Control_c, 0, 64, 0
1, 75302, Control_c, 0, 64, 30
1, 75317, Control_c, 0, 64, 40
1, 75332, Control_c, 0, 64, 51
1, 75347, Note_off_c, 0, 70, 56
1, 75347, Control_c, 0, 64, 59
1, 75361, Note_on_c, 0, 66, 66
1, 75361, Note_off_c, 0, 73, 33
1, 75361, Control_c, 0, 64, 64
1, 75364, Note_on_c, 0, 61, 59
1, 75376, Control_c, 0, 64, 68
1, 75399, Control_c, 0, 64, 70
1, 75407, Note_off_c, 0, 61, 63
1, 75413, Note_off_c, 0, 66, 60
1, 75414, Control_c, 0, 64, 71
1, 75443, Control_c, 0, 64, 68
1, 75458, Control_c, 0, 64, 63
1, 75473, Control_c, 0, 64, 56
1, 75487, Control_c, 0, 64, 44
1, 75498, Note_on_c, 0, 57, 63
1, 75502, Control_c, 0, 64, 34
1, 75508, Note_on_c, 0, 69, 62
1, 75511, Note_on_c, 0, 63, 57
1, 75513, Note_off_c, 0, 58, 56
1, 75516, Note_on_c, 0, 60, 48
1, 75517, Control_c, 0, 64, 31
1, 75532, Control_c, 0, 64, 34
1, 75547, Control_c, 0, 64, 42
1, 75561, Control_c, 0, 64, 52
1, 75576, Control_c, 0, 64, 59
1, 75591, Control_c, 0, 64, 66
1, 75606, Control_c, 0, 64, 70
1, 75616, Note_on_c, 0, 75, 63
1, 75621, Control_c, 0, 64, 73
1, 75632, Note_on_c, 0, 72, 58
1, 75635, Control_c, 0, 64, 74
1, 75641, Note_off_c, 0, 69, 54
1, 75665, Control_c, 0, 64, 75
1, 75668, Note_off_c, 0, 57, 60
1, 75670, Note_off_c, 0, 63, 46
1, 75671, Note_off_c, 0, 72, 65
1, 75680, Control_c, 0, 64, 74
1, 75683, Note_off_c, 0, 75, 61
1, 75695, Control_c, 0, 64, 70
1, 75710, Control_c, 0, 64, 62
1, 75725, Control_c, 0, 64, 50
1, 75740, Control_c, 0, 64, 0
1, 75758, Note_off_c, 0, 60, 38
1, 75764, Note_on_c, 0, 58, 47
1, 75766, Note_on_c, 0, 73, 62
1, 75775, Note_on_c, 0, 70, 56
1, 75799, Control_c, 0, 64, 29
1, 75814, Control_c, 0, 64, 43
1, 75829, Control_c, 0, 64, 55
1, 75844, Control_c, 0, 64, 63
1, 75859, Control_c, 0, 64, 67
1, 75866, Note_off_c, 0, 58, 63
1, 75869, Note_off_c, 0, 54, 49
1, 75874, Control_c, 0, 64, 70
1, 75889, Note_off_c, 0, 70, 53
1, 75889, Control_c, 0, 64, 72
1, 75891, Note_on_c, 0, 61, 52
1, 75896, Note_on_c, 0, 66, 49
1, 75904, Control_c, 0, 64, 73
1, 75914, Note_off_c, 0, 73, 33
1, 75942, Note_off_c, 0, 61, 58
1, 75948, Control_c, 0, 64, 72
1, 75963, Control_c, 0, 64, 67
1, 75970, Note_off_c, 0, 66, 60
1, 75978, Control_c, 0, 64, 58
1, 75992, Control_c, 0, 64, 44
1, 76007, Control_c, 0, 64, 0
1, 76024, Note_on_c, 0, 59, 46
1, 76032, Note_on_c, 0, 62, 49
1, 76034, Note_on_c, 0, 49, 38
1, 76037, Note_on_c, 0, 67, 57
1, 76038, Note_on_c, 0, 55, 38
1, 76050, Control_c, 0, 64, 38
1, 76065, Control_c, 0, 64, 48
1, 76080, Control_c, 0, 64, 58
1, 76095, Control_c, 0, 64, 63
1, 76109, Control_c, 0, 64, 67
1, 76115, Note_off_c, 0, 55, 57
1, 76124, Control_c, 0, 64, 71
1, 76147, Control_c, 0, 64, 74
1, 76157, Note_off_c, 0, 49, 52
1, 76160, Note_on_c, 0, 74, 58
1, 76161, Note_on_c, 0, 71, 54
1, 76162, Control_c, 0, 64, 76
1, 76177, Control_c, 0, 64, 77
1, 76178, Note_off_c, 0, 67, 60
1, 76182, Note_off_c, 0, 59, 58
1, 76186, Note_off_c, 0, 62, 25
1, 76199, Note_off_c, 0, 71, 65
1, 76206, Control_c, 0, 64, 76
1, 76220, Note_off_c, 0, 74, 56
1, 76221, Control_c, 0, 64, 71
1, 76235, Control_c, 0, 64, 64
1, 76250, Control_c, 0, 64, 56
1, 76265, Control_c, 0, 64, 48
1, 76280, Control_c, 0, 64, 44
1, 76288, Note_on_c, 0, 54, 52
1, 76290, Note_on_c, 0, 58, 54
1, 76295, Note_on_c, 0, 70, 65
1, 76295, Control_c, 0, 64, 47
1, 76309, Note_on_c, 0, 73, 49
1, 76309, Control_c, 0, 64, 53
1, 76324, Control_c, 0, 64, 57
1, 76339, Control_c, 0, 64, 61
1, 76354, Control_c, 0, 64, 64
1, 76360, Note_off_c, 0, 73, 54
1, 76369, Control_c, 0, 64, 67
1, 76384, Control_c, 0, 64, 72
1, 76399, Control_c, 0, 64, 76
1, 76413, Control_c, 0, 64, 80
1, 76414, Note_on_c, 0, 66, 65
1, 76416, Note_off_c, 0, 70, 52
1, 76428, Control_c, 0, 64, 82
1, 76458, Control_c, 0, 64, 81
1, 76463, Note_off_c, 0, 66, 60
1, 76473, Control_c, 0, 64, 77
1, 76488, Control_c, 0, 64, 69
1, 76503, Control_c, 0, 64, 62
1, 76512, Poly_aftertouch_c, 0, 62, 0
1, 76517, Control_c, 0, 64, 56
1, 76521, Note_off_c, 0, 58, 35
1, 76532, Control_c, 0, 64, 53
1, 76547, Control_c, 0, 64, 54
1, 76549, Note_on_c, 0, 60, 47
1, 76549, Note_on_c, 0, 69, 69
1, 76551, Note_on_c, 0, 57, 46
1, 76563, Control_c, 0, 64, 58
1, 76563, Note_on_c, 0, 63, 52
1, 76577, Control_c, 0, 64, 63
1, 76592, Control_c, 0, 64, 67
1, 76607, Control_c, 0, 64, 70
1, 76622, Control_c, 0, 64, 73
1, 76637, Control_c, 0, 64, 75
1, 76652, Control_c, 0, 64, 75
1, 76661, Note_on_c, 0, 75, 67
1, 76663, Note_off_c, 0, 69, 58
1, 76672, Note_on_c, 0, 72, 61
1, 76681, Control_c, 0, 64, 74
1, 76696, Control_c, 0, 64, 67
1, 76699, Note_off_c, 0, 63, 27
1, 76710, Note_off_c, 0, 72, 61
1, 76711, Control_c, 0, 64, 53
1, 76723, Note_off_c, 0, 75, 63
1, 76726, Control_c, 0, 64, 0
1, 76756, Note_off_c, 0, 57, 36
1, 76782, Note_off_c, 0, 60, 37
1, 76804, Note_on_c, 0, 58, 47
1, 76808, Note_on_c, 0, 73, 64
1, 76813, Note_on_c, 0, 70, 61
1, 76815, Control_c, 0, 64, 49
1, 76830, Control_c, 0, 64, 58
1, 76837, Note_off_c, 0, 58, 64
1, 76845, Control_c, 0, 64, 63
1, 76851, Note_off_c, 0, 54, 55
1, 76859, Control_c, 0, 64, 65
1, 76874, Control_c, 0, 64, 67
1, 76896, Control_c, 0, 64, 68
1, 76911, Control_c, 0, 64, 70
1, 76926, Control_c, 0, 64, 71
1, 76941, Control_c, 0, 64, 72
1, 76946, Note_off_c, 0, 73, 35
1, 76954, Note_on_c, 0, 61, 59
1, 76957, Note_on_c, 0, 66, 56
1, 76974, Note_off_c, 0, 70, 36
1, 76988, Note_off_c, 0, 61, 64
1, 76989, Note_off_c, 0, 66, 65
1, 77015, Control_c, 0, 64, 71
1, 77030, Control_c, 0, 64, 66
1, 77045, Control_c, 0, 64, 59
1, 77059, Control_c, 0, 64, 44
1, 77074, Control_c, 0, 64, 0
1, 77105, Note_on_c, 0, 42, 46
1, 77108, Note_on_c, 0, 65, 60
1, 77111, Note_on_c, 0, 50, 45
1, 77112, Note_on_c, 0, 59, 51
1, 77163, Control_c, 0, 64, 37
1, 77178, Control_c, 0, 64, 53
1, 77192, Control_c, 0, 64, 62
1, 77207, Control_c, 0, 64, 65
1, 77219, Note_on_c, 0, 68, 70
1, 77222, Control_c, 0, 64, 68
1, 77229, Note_off_c, 0, 65, 62
1, 77237, Control_c, 0, 64, 69
1, 77258, Note_off_c, 0, 59, 59
1, 77269, Note_off_c, 0, 68, 56
1, 77296, Control_c, 0, 64, 66
1, 77311, Control_c, 0, 64, 60
1, 77326, Control_c, 0, 64, 46
1, 77341, Control_c, 0, 64, 0
1, 77365, Note_on_c, 0, 51, 52
1, 77376, Note_on_c, 0, 63, 57
1, 77378, Note_on_c, 0, 66, 55
1, 77400, Note_off_c, 0, 50, 36
1, 77430, Control_c, 0, 64, 42
1, 77445, Control_c, 0, 64, 55
1, 77460, Control_c, 0, 64, 63
1, 77462, Note_off_c, 0, 63, 51
1, 77467, Note_off_c, 0, 66, 45
1, 77475, Control_c, 0, 64, 68
1, 77490, Control_c, 0, 64, 71
1, 77493, Note_off_c, 0, 51, 55
1, 77502, Note_off_c, 0, 42, 42
1, 77504, Control_c, 0, 64, 72
1, 77510, Note_on_c, 0, 59, 55
1, 77519, Control_c, 0, 64, 73
1, 77549, Control_c, 0, 64, 72
1, 77564, Note_off_c, 0, 59, 54
1, 77564, Control_c, 0, 64, 68
1, 77579, Control_c, 0, 64, 59
1, 77594, Control_c, 0, 64, 45
1, 77609, Control_c, 0, 64, 0
1, 77643, Note_on_c, 0, 42, 35
1, 77649, Note_on_c, 0, 50, 46
1, 77656, Note_on_c, 0, 65, 57
1, 77657, Note_on_c, 0, 62, 51
1, 77689, Control_c, 0, 64, 42
1, 77704, Control_c, 0, 64, 54
1, 77716, Note_off_c, 0, 62, 53
1, 77719, Control_c, 0, 64, 61
1, 77734, Control_c, 0, 64, 65
1, 77749, Control_c, 0, 64, 67
1, 77764, Control_c, 0, 64, 69
1, 77773, Note_on_c, 0, 68, 63
1, 77779, Control_c, 0, 64, 70
1, 77794, Control_c, 0, 64, 71
1, 77798, Note_off_c, 0, 65, 50
1, 77823, Control_c, 0, 64, 70
1, 77825, Note_off_c, 0, 68, 54
1, 77838, Control_c, 0, 64, 66
1, 77853, Control_c, 0, 64, 60
1, 77868, Control_c, 0, 64, 49
1, 77882, Control_c, 0, 64, 0
1, 77946, Note_on_c, 0, 66, 43
1, 77948, Note_on_c, 0, 51, 43
1, 77949, Note_on_c, 0, 63, 47
1, 77971, Control_c, 0, 64, 34
1, 77982, Note_off_c, 0, 50, 20
1, 77986, Control_c, 0, 64, 49
1, 78001, Control_c, 0, 64, 59
1, 78010, Note_off_c, 0, 42, 54
1, 78015, Control_c, 0, 64, 64
1, 78015, Control_c, 0, 67, 21
1, 78026, Note_off_c, 0, 66, 52
1, 78030, Control_c, 0, 64, 67
1, 78030, Control_c, 0, 67, 27
1, 78041, Note_off_c, 0, 51, 57
1, 78045, Control_c, 0, 64, 69
1, 78045, Control_c, 0, 67, 33
1, 78060, Control_c, 0, 64, 70
1, 78060, Control_c, 0, 67, 41
1, 78075, Control_c, 0, 64, 71
1, 78075, Control_c, 0, 67, 49
1, 78077, Note_on_c, 0, 59, 44
1, 78089, Control_c, 0, 64, 72
1, 78089, Control_c, 0, 67, 61
1, 78104, Control_c, 0, 67, 70
1, 78105, Note_off_c, 0, 63, 38
1, 78119, Control_c, 0, 67, 77
1, 78126, Note_off_c, 0, 59, 58
1, 78133, Control_c, 0, 67, 81
1, 78148, Control_c, 0, 64, 71
1, 78148, Control_c, 0, 67, 82
1, 78165, Control_c, 0, 64, 69
1, 78179, Control_c, 0, 64, 63
1, 78194, Control_c, 0, 64, 54
1, 78209, Control_c, 0, 64, 40
1, 78224, Control_c, 0, 64, 0
1, 78229, Note_on_c, 0, 48, 38
1, 78231, Note_on_c, 0, 65, 52
1, 78249, Note_on_c, 0, 57, 31
1, 78298, Control_c, 0, 64, 40
1, 78312, Control_c, 0, 64, 54
1, 78327, Control_c, 0, 64, 62
1, 78327, Control_c, 0, 67, 81
1, 78342, Control_c, 0, 64, 67
1, 78342, Control_c, 0, 67, 81
1, 78357, Control_c, 0, 64, 71
1, 78357, Control_c, 0, 67, 80
1, 78361, Note_off_c, 0, 48, 55
1, 78372, Note_on_c, 0, 63, 49
1, 78372, Control_c, 0, 64, 74
1, 78372, Control_c, 0, 67, 80
1, 78394, Control_c, 0, 64, 75
1, 78406, Note_off_c, 0, 57, 39
1, 78407, Note_off_c, 0, 65, 37
1, 78419, Note_off_c, 0, 63, 63
1, 78453, Control_c, 0, 64, 74
1, 78468, Control_c, 0, 64, 72
1, 78468, Control_c, 0, 67, 79
1, 78483, Control_c, 0, 64, 65
1, 78498, Control_c, 0, 64, 56
1, 78512, Control_c, 0, 64, 42
1, 78512, Control_c, 0, 67, 79
1, 78527, Control_c, 0, 64, 0
1, 78552, Note_on_c, 0, 66, 46
1, 78563, Note_on_c, 0, 49, 33
1, 78568, Note_on_c, 0, 58, 35
1, 78616, Control_c, 0, 64, 30
1, 78631, Control_c, 0, 64, 42
1, 78646, Control_c, 0, 64, 52
1, 78661, Control_c, 0, 64, 59
1, 78676, Control_c, 0, 64, 62
1, 78691, Control_c, 0, 64, 64
1, 78703, Note_off_c, 0, 49, 37
1, 78706, Control_c, 0, 64, 64
1, 78708, Note_off_c, 0, 66, 49
1, 78717, Note_on_c, 0, 61, 42
1, 78720, Control_c, 0, 64, 65
1, 78735, Control_c, 0, 64, 66
1, 78738, Note_off_c, 0, 58, 44
1, 78750, Control_c, 0, 64, 66
1, 78763, Note_off_c, 0, 61, 50
1, 78764, Control_c, 0, 64, 67
1, 78809, Control_c, 0, 64, 66
1, 78824, Control_c, 0, 64, 65
1, 78838, Control_c, 0, 64, 62
1, 78853, Control_c, 0, 64, 58
1, 78868, Control_c, 0, 64, 48
1, 78868, Control_c, 0, 67, 78
1, 78883, Control_c, 0, 64, 30
1, 78896, Note_on_c, 0, 65, 49
1, 78898, Control_c, 0, 64, 0
1, 78903, Note_on_c, 0, 48, 35
1, 78907, Note_on_c, 0, 57, 32
1, 78988, Control_c, 0, 64, 36
1, 78988, Control_c, 0, 67, 79
1, 79002, Control_c, 0, 64, 46
1, 79018, Control_c, 0, 64, 55
1, 79033, Control_c, 0, 64, 60
1, 79048, Control_c, 0, 64, 62
1, 79062, Note_off_c, 0, 48, 50
1, 79062, Control_c, 0, 64, 64
1, 79068, Note_off_c, 0, 57, 55
1, 79077, Control_c, 0, 64, 65
1, 79088, Note_off_c, 0, 65, 40
1, 79092, Control_c, 0, 64, 67
1, 79094, Note_on_c, 0, 63, 47
1, 79107, Control_c, 0, 64, 68
1, 79122, Control_c, 0, 64, 70
1, 79143, Note_off_c, 0, 63, 63
1, 79144, Control_c, 0, 64, 72
1, 79159, Control_c, 0, 64, 73
1, 79174, Control_c, 0, 64, 73
1, 79233, Control_c, 0, 64, 73
1, 79262, Control_c, 0, 64, 72
1, 79277, Control_c, 0, 64, 72
1, 79292, Control_c, 0, 64, 71
1, 79307, Control_c, 0, 64, 69
1, 79322, Control_c, 0, 64, 68
1, 79336, Control_c, 0, 64, 67
1, 79351, Control_c, 0, 64, 65
1, 79366, Control_c, 0, 64, 62
1, 79381, Control_c, 0, 64, 55
1, 79381, Control_c, 0, 67, 78
1, 79388, Note_on_c, 0, 66, 47
1, 79395, Control_c, 0, 64, 46
1, 79409, Note_on_c, 0, 58, 36
1, 79410, Control_c, 0, 64, 32
1, 79425, Note_on_c, 0, 49, 27
1, 79425, Control_c, 0, 64, 0
1, 79469, Control_c, 0, 64, 30
1, 79484, Control_c, 0, 64, 42
1, 79499, Control_c, 0, 64, 54
1, 79514, Control_c, 0, 64, 61
1, 79529, Control_c, 0, 64, 65
1, 79543, Control_c, 0, 64, 67
1, 79558, Control_c, 0, 64, 67
1, 79569, Note_on_c, 0, 61, 57
1, 79572, Note_off_c, 0, 66, 53
1, 79591, Note_off_c, 0, 49, 53
1, 79591, Note_off_c, 0, 58, 53
1, 79606, Note_off_c, 0, 61, 63
1, 79618, Control_c, 0, 64, 67
1, 79633, Control_c, 0, 64, 66
1, 79648, Control_c, 0, 64, 65
1, 79662, Control_c, 0, 64, 62
1, 79677, Control_c, 0, 64, 56
1, 79692, Control_c, 0, 64, 47
1, 79707, Control_c, 0, 64, 0
1, 79730, Note_on_c, 0, 63, 67
1, 79733, Note_on_c, 0, 68, 64
1, 79746, Note_on_c, 0, 59, 40
1, 79763, Note_off_c, 0, 63, 64
1, 79763, Note_off_c, 0, 68, 66
1, 79778, Note_off_c, 0, 59, 58
1, 79890, Note_on_c, 0, 70, 66
1, 79901, Note_on_c, 0, 65, 58
1, 79905, Note_on_c, 0, 61, 44
1, 79920, Note_off_c, 0, 70, 66
1, 79925, Note_off_c, 0, 65, 65
1, 79936, Note_off_c, 0, 61, 59
1, 80068, Note_on_c, 0, 71, 62
1, 80070, Note_on_c, 0, 66, 47
1, 80074, Note_on_c, 0, 63, 42
1, 80114, Control_c, 0, 64, 33
1, 80129, Control_c, 0, 64, 45
1, 80144, Control_c, 0, 64, 55
1, 80158, Control_c, 0, 64, 60
1, 80173, Control_c, 0, 64, 63
1, 80185, Note_off_c, 0, 66, 50
1, 80188, Control_c, 0, 64, 64
1, 80192, Note_off_c, 0, 71, 63
1, 80196, Note_off_c, 0, 63, 46
1, 80202, Control_c, 0, 64, 65
1, 80202, Control_c, 0, 67, 78
1, 80204, Note_on_c, 0, 56, 48
1, 80292, Control_c, 0, 64, 65
1, 80297, Note_off_c, 0, 56, 49
1, 80307, Control_c, 0, 64, 63
1, 80321, Control_c, 0, 64, 58
1, 80336, Control_c, 0, 64, 51
1, 80351, Control_c, 0, 64, 41
1, 80365, Note_on_c, 0, 73, 65
1, 80366, Control_c, 0, 64, 30
1, 80370, Note_on_c, 0, 65, 42
1, 80395, Note_on_c, 0, 68, 14
1, 80396, Control_c, 0, 64, 33
1, 80399, Note_off_c, 0, 73, 60
1, 80410, Control_c, 0, 64, 42
1, 80418, Note_off_c, 0, 68, 47
1, 80423, Note_off_c, 0, 65, 57
1, 80425, Control_c, 0, 64, 51
1, 80440, Control_c, 0, 64, 59
1, 80455, Control_c, 0, 64, 63
1, 80470, Control_c, 0, 64, 66
1, 80484, Control_c, 0, 64, 68
1, 80499, Control_c, 0, 64, 70
1, 80514, Control_c, 0, 64, 71
1, 80520, Note_on_c, 0, 66, 47
1, 80528, Note_on_c, 0, 75, 59
1, 80528, Control_c, 0, 64, 73
1, 80543, Control_c, 0, 64, 75
1, 80554, Note_off_c, 0, 66, 63
1, 80560, Control_c, 0, 64, 76
1, 80569, Note_off_c, 0, 75, 58
1, 80574, Control_c, 0, 64, 77
1, 80700, Control_c, 0, 64, 76
1, 80700, Control_c, 0, 67, 77
1, 80710, Note_on_c, 0, 65, 48
1, 80715, Control_c, 0, 64, 75
1, 80730, Control_c, 0, 64, 75
1, 80745, Control_c, 0, 64, 74
1, 80760, Control_c, 0, 64, 73
1, 80763, Note_on_c, 0, 68, 39
1, 80775, Control_c, 0, 64, 72
1, 80789, Control_c, 0, 64, 71
1, 80804, Note_on_c, 0, 71, 49
1, 80804, Control_c, 0, 64, 69
1, 80804, Control_c, 0, 67, 77
1, 80819, Control_c, 0, 64, 65
1, 80833, Control_c, 0, 64, 60
1, 80848, Control_c, 0, 64, 52
1, 80848, Control_c, 0, 67, 76
1, 80863, Control_c, 0, 64, 42
1, 80878, Control_c, 0, 64, 30
1, 80890, Note_on_c, 0, 73, 59
1, 80893, Control_c, 0, 64, 0
1, 80951, Control_c, 0, 64, 33
1, 80966, Control_c, 0, 64, 42
1, 80981, Control_c, 0, 64, 51
1, 80996, Control_c, 0, 64, 58
1, 81011, Control_c, 0, 64, 63
1, 81025, Control_c, 0, 64, 67
1, 81031, Note_off_c, 0, 71, 31
1, 81040, Control_c, 0, 64, 69
1, 81055, Control_c, 0, 64, 72
1, 81070, Control_c, 0, 64, 75
1, 81070, Control_c, 0, 67, 76
1, 81085, Control_c, 0, 64, 78
1, 81085, Control_c, 0, 67, 75
1, 81099, Control_c, 0, 64, 83
1, 81114, Control_c, 0, 64, 89
1, 81129, Control_c, 0, 64, 95
1, 81140, Note_on_c, 0, 37, 37
1, 81144, Control_c, 0, 64, 102
1, 81159, Control_c, 0, 64, 110
1, 81174, Control_c, 0, 64, 120
1, 81189, Control_c, 0, 64, 127
1, 81248, Control_c, 0, 67, 75
1, 81321, Note_off_c, 0, 37, 39
1, 81368, Note_on_c, 0, 44, 39
1, 81493, Note_off_c, 0, 44, 48
1, 81508, Control_c, 0, 67, 74
1, 81537, Note_on_c, 0, 53, 43
1, 81606, Note_off_c, 0, 53, 57
1, 81695, Note_on_c, 0, 56, 53
1, 81830, Note_off_c, 0, 56, 57
1, 81843, Note_on_c, 0, 61, 44
1, 81848, Control_c, 0, 67, 75
1, 81925, Note_off_c, 0, 61, 48
1, 81979, Note_on_c, 0, 56, 47
1, 81982, Control_c, 0, 67, 75
1, 82070, Note_off_c, 0, 56, 58
1, 82112, Note_on_c, 0, 61, 51
1, 82184, Control_c, 0, 64, 104
1, 82199, Control_c, 0, 64, 83
1, 82213, Control_c, 0, 64, 68
1, 82215, Note_off_c, 0, 61, 44
1, 82217, Note_off_c, 0, 68, 58
1, 82222, Note_off_c, 0, 65, 45
1, 82228, Control_c, 0, 64, 56
1, 82243, Control_c, 0, 64, 45
1, 82264, Note_off_c, 0, 73, 61
1, 82267, Note_on_c, 0, 49, 59
1, 82273, Control_c, 0, 64, 54
1, 82287, Control_c, 0, 64, 61
1, 82302, Control_c, 0, 64, 66
1, 82317, Control_c, 0, 64, 70
1, 82317, Control_c, 0, 67, 76
1, 82319, Note_off_c, 0, 49, 61
1, 82332, Control_c, 0, 64, 73
1, 82347, Control_c, 0, 64, 74
1, 82376, Control_c, 0, 64, 73
1, 82391, Control_c, 0, 64, 72
1, 82405, Note_on_c, 0, 65, 58
1, 82405, Control_c, 0, 64, 72
1, 82420, Control_c, 0, 64, 71
1, 82435, Control_c, 0, 64, 70
1, 82450, Control_c, 0, 64, 69
1, 82458, Note_off_c, 0, 65, 55
1, 82465, Control_c, 0, 64, 67
1, 82480, Control_c, 0, 64, 65
1, 82495, Control_c, 0, 64, 62
1, 82509, Control_c, 0, 64, 58
1, 82523, Note_on_c, 0, 75, 65
1, 82524, Control_c, 0, 64, 52
1, 82536, Note_on_c, 0, 70, 52
1, 82539, Control_c, 0, 64, 43
1, 82540, Note_on_c, 0, 66, 51
1, 82554, Control_c, 0, 64, 0
1, 82570, Note_off_c, 0, 70, 64
1, 82573, Note_off_c, 0, 75, 54
1, 82577, Note_off_c, 0, 66, 63
1, 82628, Control_c, 0, 67, 76
1, 82661, Note_on_c, 0, 77, 62
1, 82665, Note_on_c, 0, 71, 56
1, 82679, Note_on_c, 0, 68, 45
1, 82694, Note_off_c, 0, 71, 65
1, 82706, Note_off_c, 0, 77, 59
1, 82706, Note_off_c, 0, 68, 61
1, 82708, Note_on_c, 0, 76, 20
1, 82708, Note_off_c, 0, 76, 127
1, 82805, Note_on_c, 0, 78, 68
1, 82805, Control_c, 0, 67, 76
1, 82810, Note_on_c, 0, 70, 51
1, 82833, Note_on_c, 0, 73, 33
1, 82835, Control_c, 0, 67, 75
1, 82850, Control_c, 0, 64, 43
1, 82865, Control_c, 0, 64, 56
1, 82867, Note_off_c, 0, 73, 54
1, 82887, Control_c, 0, 64, 62
1, 82890, Note_off_c, 0, 70, 46
1, 82896, Note_off_c, 0, 78, 57
1, 82902, Control_c, 0, 64, 65
1, 82917, Control_c, 0, 64, 66
1, 82917, Control_c, 0, 67, 75
1, 82931, Control_c, 0, 64, 67
1, 82946, Control_c, 0, 64, 68
1, 82946, Control_c, 0, 67, 74
1, 82951, Note_on_c, 0, 61, 45
1, 82963, Control_c, 0, 64, 69
1, 82977, Control_c, 0, 64, 70
1, 82992, Control_c, 0, 64, 70
1, 83036, Control_c, 0, 64, 70
1, 83051, Control_c, 0, 64, 66
1, 83059, Note_off_c, 0, 61, 36
1, 83066, Control_c, 0, 64, 59
1, 83081, Control_c, 0, 64, 50
1, 83081, Control_c, 0, 67, 73
1, 83084, Note_on_c, 0, 80, 66
1, 83096, Control_c, 0, 64, 43
1, 83103, Note_on_c, 0, 71, 46
1, 83110, Control_c, 0, 64, 42
1, 83110, Control_c, 0, 67, 72
1, 83112, Note_on_c, 0, 75, 22
1, 83125, Control_c, 0, 64, 48
1, 83140, Control_c, 0, 64, 57
1, 83150, Note_off_c, 0, 75, 44
1, 83153, Note_off_c, 0, 71, 57
1, 83154, Control_c, 0, 64, 63
1, 83169, Control_c, 0, 64, 68
1, 83184, Control_c, 0, 64, 71
1, 83184, Control_c, 0, 67, 72
1, 83199, Control_c, 0, 64, 75
1, 83199, Control_c, 0, 67, 71
1, 83214, Control_c, 0, 64, 78
1, 83214, Control_c, 0, 67, 71
1, 83228, Control_c, 0, 64, 82
1, 83228, Control_c, 0, 67, 70
1, 83235, Note_on_c, 0, 82, 69
1, 83237, Note_off_c, 0, 80, 35
1, 83243, Note_on_c, 0, 73, 50
1, 83243, Control_c, 0, 64, 86
1, 83243, Control_c, 0, 67, 70
1, 83249, Note_on_c, 0, 77, 45
1, 83258, Control_c, 0, 64, 91
1, 83258, Control_c, 0, 67, 69
1, 83266, Note_off_c, 0, 73, 60
1, 83273, Note_off_c, 0, 77, 57
1, 83273, Control_c, 0, 64, 94
1, 83278, Note_off_c, 0, 82, 52
1, 83288, Control_c, 0, 64, 95
1, 83347, Control_c, 0, 67, 69
1, 83362, Control_c, 0, 64, 95
1, 83362, Control_c, 0, 67, 68
1, 83377, Control_c, 0, 64, 94
1, 83392, Control_c, 0, 64, 92
1, 83394, Note_on_c, 0, 71, 40
1, 83407, Control_c, 0, 64, 90
1, 83422, Control_c, 0, 64, 88
1, 83422, Control_c, 0, 67, 68
1, 83426, Note_on_c, 0, 75, 48
1, 83436, Control_c, 0, 64, 86
1, 83451, Control_c, 0, 64, 83
1, 83466, Control_c, 0, 64, 76
1, 83466, Control_c, 0, 67, 67
1, 83481, Control_c, 0, 64, 68
1, 83495, Control_c, 0, 64, 59
1, 83495, Control_c, 0, 67, 67
1, 83508, Note_on_c, 0, 80, 60
1, 83510, Control_c, 0, 64, 44
1, 83510, Control_c, 0, 67, 66
1, 83525, Control_c, 0, 64, 0
1, 83525, Control_c, 0, 67, 63
1, 83540, Control_c, 0, 67, 57
1, 83554, Control_c, 0, 67, 52
1, 83569, Control_c, 0, 67, 49
1, 83584, Control_c, 0, 64, 29
1, 83584, Control_c, 0, 67, 47
1, 83599, Control_c, 0, 64, 42
1, 83599, Control_c, 0, 67, 44
1, 83614, Control_c, 0, 64, 54
1, 83614, Control_c, 0, 67, 40
1, 83636, Control_c, 0, 64, 62
1, 83636, Control_c, 0, 67, 36
1, 83651, Control_c, 0, 64, 66
1, 83651, Control_c, 0, 67, 30
1, 83666, Control_c, 0, 64, 68
1, 83666, Control_c, 0, 67, 25
1, 83667, Note_off_c, 0, 75, 57
1, 83670, Note_off_c, 0, 71, 45
1, 83681, Control_c, 0, 64, 70
1, 83681, Control_c, 0, 67, 0
1, 83696, Control_c, 0, 64, 71
1, 83710, Control_c, 0, 64, 72
1, 83725, Control_c, 0, 64, 73
1, 83740, Control_c, 0, 64, 75
1, 83755, Control_c, 0, 64, 76
1, 83770, Control_c, 0, 64, 78
1, 83779, Note_on_c, 0, 42, 30
1, 83785, Control_c, 0, 64, 79
1, 83830, Control_c, 0, 64, 79
1, 83882, Note_off_c, 0, 80, 32
1, 83889, Control_c, 0, 64, 79
1, 83913, Note_on_c, 0, 70, 38
1, 83919, Control_c, 0, 64, 78
1, 83933, Control_c, 0, 64, 75
1, 83948, Control_c, 0, 64, 68
1, 83961, Note_on_c, 0, 73, 40
1, 83963, Control_c, 0, 64, 60
1, 83969, Note_on_c, 0, 49, 37
1, 83977, Control_c, 0, 64, 51
1, 83992, Control_c, 0, 64, 42
1, 84007, Control_c, 0, 64, 39
1, 84022, Note_on_c, 0, 78, 61
1, 84022, Control_c, 0, 64, 43
1, 84037, Control_c, 0, 64, 49
1, 84051, Control_c, 0, 64, 56
1, 84066, Control_c, 0, 64, 61
1, 84081, Control_c, 0, 64, 65
1, 84091, Note_off_c, 0, 42, 44
1, 84096, Control_c, 0, 64, 68
1, 84111, Control_c, 0, 64, 71
1, 84115, Note_off_c, 0, 49, 54
1, 84125, Control_c, 0, 64, 74
1, 84140, Control_c, 0, 64, 75
1, 84155, Control_c, 0, 64, 77
1, 84170, Control_c, 0, 64, 79
1, 84185, Control_c, 0, 64, 81
1, 84185, Note_on_c, 0, 58, 35
1, 84200, Control_c, 0, 64, 82
1, 84214, Control_c, 0, 64, 83
1, 84229, Control_c, 0, 64, 84
1, 84245, Note_off_c, 0, 58, 40
1, 84259, Control_c, 0, 64, 84
1, 84333, Note_on_c, 0, 61, 43
1, 84471, Note_off_c, 0, 61, 60
1, 84480, Note_on_c, 0, 66, 40
1, 84480, Note_off_c, 0, 70, 41
1, 84545, Note_off_c, 0, 73, 36
1, 84551, Note_off_c, 0, 66, 50
1, 84563, Control_c, 0, 64, 84
1, 84618, Note_on_c, 0, 61, 48
1, 84624, Note_off_c, 0, 78, 56
1, 84682, Control_c, 0, 64, 83
1, 84706, Note_off_c, 0, 61, 53
1, 84712, Control_c, 0, 64, 83
1, 84751, Note_on_c, 0, 66, 51
1, 84786, Control_c, 0, 64, 82
1, 84815, Control_c, 0, 64, 80
1, 84818, Note_off_c, 0, 66, 54
1, 84830, Control_c, 0, 64, 74
1, 84845, Control_c, 0, 64, 65
1, 84860, Control_c, 0, 64, 51
1, 84874, Control_c, 0, 64, 39
1, 84889, Control_c, 0, 64, 37
1, 84894, Note_on_c, 0, 54, 67
1, 84904, Control_c, 0, 64, 45
1, 84918, Control_c, 0, 64, 56
1, 84933, Control_c, 0, 64, 62
1, 84948, Control_c, 0, 64, 67
1, 84963, Control_c, 0, 64, 70
1, 84978, Control_c, 0, 64, 71
1, 85019, Note_off_c, 0, 54, 59
1, 85034, Note_on_c, 0, 69, 56
1, 85037, Control_c, 0, 64, 71
1, 85045, Note_on_c, 0, 62, 27
1, 85052, Control_c, 0, 64, 70
1, 85074, Note_off_c, 0, 69, 61
1, 85082, Note_off_c, 0, 62, 31
1, 85097, Control_c, 0, 64, 70
1, 85112, Control_c, 0, 64, 69
1, 85133, Control_c, 0, 64, 67
1, 85148, Control_c, 0, 64, 64
1, 85163, Control_c, 0, 64, 59
1, 85177, Note_on_c, 0, 79, 72
1, 85178, Control_c, 0, 64, 52
1, 85182, Note_on_c, 0, 71, 53
1, 85183, Note_on_c, 0, 74, 61
1, 85193, Control_c, 0, 64, 40
1, 85201, Note_off_c, 0, 79, 70
1, 85207, Note_off_c, 0, 74, 58
1, 85207, Note_off_c, 0, 71, 61
1, 85207, Control_c, 0, 64, 0
1, 85292, Note_on_c, 0, 81, 78
1, 85303, Note_on_c, 0, 76, 62
1, 85308, Note_on_c, 0, 73, 41
1, 85323, Note_off_c, 0, 76, 65
1, 85325, Note_off_c, 0, 81, 63
1, 85338, Note_off_c, 0, 73, 57
1, 85419, Note_on_c, 0, 83, 81
1, 85420, Note_on_c, 0, 74, 53
1, 85433, Note_on_c, 0, 78, 59
1, 85446, Control_c, 0, 64, 43
1, 85452, Note_off_c, 0, 78, 63
1, 85461, Control_c, 0, 64, 49
1, 85467, Note_off_c, 0, 74, 56
1, 85475, Control_c, 0, 64, 55
1, 85487, Note_off_c, 0, 83, 64
1, 85490, Control_c, 0, 64, 60
1, 85505, Control_c, 0, 64, 63
1, 85520, Control_c, 0, 64, 66
1, 85535, Control_c, 0, 64, 68
1, 85545, Note_on_c, 0, 66, 57
1, 85549, Control_c, 0, 64, 71
1, 85564, Control_c, 0, 64, 73
1, 85579, Control_c, 0, 64, 76
1, 85594, Control_c, 0, 64, 77
1, 85609, Control_c, 0, 64, 77
1, 85623, Control_c, 0, 64, 77
1, 85638, Control_c, 0, 64, 73
1, 85649, Note_off_c, 0, 66, 61
1, 85653, Control_c, 0, 64, 63
1, 85668, Control_c, 0, 64, 51
1, 85677, Note_on_c, 0, 76, 62
1, 85678, Note_on_c, 0, 85, 81
1, 85683, Control_c, 0, 64, 35
1, 85690, Note_on_c, 0, 79, 65
1, 85697, Control_c, 0, 64, 0
1, 85712, Control_c, 0, 64, 37
1, 85717, Note_off_c, 0, 79, 58
1, 85727, Control_c, 0, 64, 52
1, 85734, Note_off_c, 0, 85, 63
1, 85735, Note_off_c, 0, 76, 60
1, 85741, Control_c, 0, 64, 63
1, 85756, Control_c, 0, 64, 72
1, 85771, Control_c, 0, 64, 83
1, 85785, Control_c, 0, 64, 97
1, 85800, Control_c, 0, 64, 119
1, 85808, Note_on_c, 0, 78, 64
1, 85808, Note_on_c, 0, 86, 82
1, 85815, Control_c, 0, 64, 127
1, 85821, Note_on_c, 0, 81, 64
1, 85834, Note_off_c, 0, 78, 68
1, 85853, Note_off_c, 0, 81, 65
1, 85861, Note_off_c, 0, 86, 61
1, 85985, Control_c, 0, 64, 116
1, 86000, Control_c, 0, 64, 83
1, 86006, Note_on_c, 0, 87, 73
1, 86015, Control_c, 0, 64, 66
1, 86022, Note_on_c, 0, 79, 57
1, 86030, Control_c, 0, 64, 49
1, 86045, Control_c, 0, 64, 0
1, 86089, Control_c, 0, 64, 40
1, 86104, Control_c, 0, 64, 54
1, 86119, Control_c, 0, 64, 62
1, 86134, Control_c, 0, 64, 67
1, 86149, Control_c, 0, 64, 72
1, 86164, Control_c, 0, 64, 75
1, 86178, Note_off_c, 0, 79, 63
1, 86179, Control_c, 0, 64, 77
1, 86194, Control_c, 0, 64, 80
1, 86196, Note_on_c, 0, 45, 38
1, 86203, Note_on_c, 0, 40, 38
1, 86209, Control_c, 0, 64, 84
1, 86224, Control_c, 0, 64, 89
1, 86239, Control_c, 0, 64, 95
1, 86253, Control_c, 0, 64, 102
1, 86268, Control_c, 0, 64, 110
1, 86271, Note_on_c, 0, 90, 82
1, 86281, Note_off_c, 0, 87, 59
1, 86283, Control_c, 0, 64, 122
1, 86298, Control_c, 0, 64, 127
1, 86303, Note_on_c, 0, 83, 40
1, 86349, Note_off_c, 0, 45, 33
1, 86364, Note_on_c, 0, 49, 51
1, 86393, Note_off_c, 0, 40, 36
1, 86400, Note_off_c, 0, 83, 44
1, 86439, Note_on_c, 0, 88, 83
1, 86441, Note_off_c, 0, 49, 56
1, 86456, Note_on_c, 0, 81, 52
1, 86474, Note_on_c, 0, 55, 51
1, 86501, Note_off_c, 0, 81, 51
1, 86512, Note_off_c, 0, 90, 36
1, 86518, Note_off_c, 0, 55, 59
1, 86608, Control_c, 0, 64, 119
1, 86630, Control_c, 0, 64, 93
1, 86644, Control_c, 0, 64, 77
1, 86650, Note_on_c, 0, 53, 53
1, 86650, Note_on_c, 0, 86, 76
1, 86659, Control_c, 0, 64, 64
1, 86671, Note_on_c, 0, 80, 55
1, 86674, Control_c, 0, 64, 56
1, 86689, Control_c, 0, 64, 53
1, 86690, Note_off_c, 0, 88, 64
1, 86704, Control_c, 0, 64, 54
1, 86718, Control_c, 0, 64, 59
1, 86733, Control_c, 0, 64, 63
1, 86748, Control_c, 0, 64, 68
1, 86763, Control_c, 0, 64, 73
1, 86778, Control_c, 0, 64, 78
1, 86793, Control_c, 0, 64, 81
1, 86808, Control_c, 0, 64, 84
1, 86823, Control_c, 0, 64, 88
1, 86824, Note_on_c, 0, 58, 64
1, 86838, Control_c, 0, 64, 93
1, 86850, Note_off_c, 0, 53, 52
1, 86852, Control_c, 0, 64, 105
1, 86867, Control_c, 0, 64, 127
1, 86945, Note_on_c, 0, 62, 69
1, 86979, Note_off_c, 0, 58, 60
1, 87058, Note_off_c, 0, 62, 60
1, 87063, Note_on_c, 0, 68, 79
1, 87073, Note_on_c, 0, 85, 25
1, 87079, Note_off_c, 0, 86, 38
1, 87113, Note_off_c, 0, 68, 62
1, 87200, Note_on_c, 0, 74, 77
1, 87247, Note_off_c, 0, 85, 38
1, 87338, Note_off_c, 0, 74, 58
1, 87386, Note_on_c, 0, 34, 62
1, 87401, Note_off_c, 0, 80, 45
1, 87506, Note_off_c, 0, 34, 50
1, 87512, Note_on_c, 0, 41, 62
1, 87512, Note_on_c, 0, 85, 80
1, 87518, Note_on_c, 0, 80, 69
1, 87520, Note_on_c, 0, 73, 78
1, 87569, Note_off_c, 0, 80, 61
1, 87584, Note_off_c, 0, 41, 53
1, 87587, Note_off_c, 0, 73, 55
1, 87604, Note_off_c, 0, 85, 63
1, 87647, Note_on_c, 0, 50, 59
1, 87661, Note_on_c, 0, 86, 89
1, 87662, Note_on_c, 0, 74, 81
1, 87672, Note_on_c, 0, 80, 68
1, 87679, Note_off_c, 0, 50, 64
1, 87699, Note_off_c, 0, 80, 65
1, 87717, Note_off_c, 0, 74, 60
1, 87729, Note_off_c, 0, 86, 60
1, 87792, Note_on_c, 0, 53, 67
1, 87795, Note_on_c, 0, 86, 91
1, 87795, Control_c, 0, 64, 112
1, 87801, Note_on_c, 0, 80, 76
1, 87802, Note_on_c, 0, 74, 81
1, 87810, Control_c, 0, 64, 79
1, 87824, Control_c, 0, 64, 64
1, 87839, Control_c, 0, 64, 56
1, 87854, Control_c, 0, 64, 58
1, 87869, Control_c, 0, 64, 63
1, 87884, Control_c, 0, 64, 68
1, 87892, Note_off_c, 0, 74, 61
1, 87899, Control_c, 0, 64, 76
1, 87909, Note_on_c, 0, 58, 78
1, 87914, Control_c, 0, 64, 87
1, 87929, Control_c, 0, 64, 100
1, 87943, Control_c, 0, 64, 127
1, 87947, Note_off_c, 0, 80, 61
1, 87995, Note_off_c, 0, 86, 63
1, 88024, Note_on_c, 0, 85, 81
1, 88028, Note_on_c, 0, 62, 68
1, 88034, Note_on_c, 0, 73, 86
1, 88048, Note_on_c, 0, 80, 68
1, 88056, Note_off_c, 0, 53, 36
1, 88096, Note_off_c, 0, 58, 56
1, 88099, Note_off_c, 0, 80, 51
1, 88116, Note_off_c, 0, 73, 59
1, 88134, Note_off_c, 0, 62, 61
1, 88158, Note_on_c, 0, 65, 68
1, 88169, Note_on_c, 0, 86, 89
1, 88176, Note_on_c, 0, 74, 76
1, 88188, Note_off_c, 0, 65, 68
1, 88202, Note_off_c, 0, 74, 64
1, 88211, Note_off_c, 0, 85, 56
1, 88251, Note_off_c, 0, 86, 63
1, 88306, Note_on_c, 0, 75, 74
1, 88329, Note_on_c, 0, 81, 71
1, 88336, Control_c, 0, 64, 97
1, 88350, Control_c, 0, 64, 61
1, 88365, Control_c, 0, 64, 0
1, 88376, Note_on_c, 0, 87, 87
1, 88439, Control_c, 0, 64, 32
1, 88454, Control_c, 0, 64, 60
1, 88468, Control_c, 0, 64, 68
1, 88483, Control_c, 0, 64, 76
1, 88498, Control_c, 0, 64, 84
1, 88513, Control_c, 0, 64, 90
1, 88528, Control_c, 0, 64, 96
1, 88529, Note_off_c, 0, 75, 52
1, 88544, Control_c, 0, 64, 105
1, 88545, Note_on_c, 0, 45, 44
1, 88559, Control_c, 0, 64, 112
1, 88573, Control_c, 0, 64, 119
1, 88588, Control_c, 0, 64, 125
1, 88603, Control_c, 0, 64, 127
1, 88615, Note_off_c, 0, 87, 48
1, 88627, Note_on_c, 0, 88, 89
1, 88629, Note_off_c, 0, 45, 50
1, 88644, Note_on_c, 0, 76, 62
1, 88675, Note_off_c, 0, 76, 66
1, 88704, Note_on_c, 0, 55, 51
1, 88713, Note_off_c, 0, 81, 43
1, 88812, Note_off_c, 0, 88, 63
1, 88814, Note_on_c, 0, 85, 75
1, 88815, Note_off_c, 0, 55, 58
1, 88826, Note_on_c, 0, 73, 63
1, 88838, Note_on_c, 0, 61, 54
1, 88839, Poly_aftertouch_c, 0, 86, 0
1, 88847, Note_off_c, 0, 73, 61
1, 88853, Note_off_c, 0, 85, 62
1, 88886, Note_off_c, 0, 61, 59
1, 89029, Note_on_c, 0, 69, 53
1, 89063, Note_on_c, 0, 64, 40
1, 89067, Note_off_c, 0, 69, 55
1, 89078, Note_on_c, 0, 81, 75
1, 89216, Note_off_c, 0, 81, 59
1, 89264, Note_off_c, 0, 64, 37
1, 89282, Note_on_c, 0, 69, 36
1, 89291, Control_c, 0, 64, 125
1, 89321, Control_c, 0, 64, 122
1, 89352, Control_c, 0, 64, 120
1, 89382, Control_c, 0, 64, 117
1, 89399, Note_off_c, 0, 69, 36
1, 89411, Control_c, 0, 64, 114
1, 89428, Note_on_c, 0, 64, 37
1, 89485, Control_c, 0, 64, 112
1, 89545, Control_c, 0, 64, 109
1, 89559, Note_off_c, 0, 64, 59
1, 89588, Note_on_c, 0, 69, 44
1, 89589, Control_c, 0, 64, 107
1, 89623, Note_off_c, 0, 69, 60
1, 89642, Control_c, 0, 64, 105
1, 89642, Control_c, 0, 67, 20
1, 89657, Control_c, 0, 67, 22
1, 89671, Control_c, 0, 64, 103
1, 89671, Control_c, 0, 67, 25
1, 89686, Control_c, 0, 67, 29
1, 89701, Control_c, 0, 64, 100
1, 89701, Control_c, 0, 67, 37
1, 89715, Control_c, 0, 67, 45
1, 89730, Control_c, 0, 67, 56
1, 89745, Control_c, 0, 64, 98
1, 89745, Control_c, 0, 67, 68
1, 89760, Control_c, 0, 67, 83
1, 89775, Control_c, 0, 67, 100
1, 89790, Control_c, 0, 67, 118
1, 89804, Control_c, 0, 64, 93
1, 89804, Control_c, 0, 67, 127
1, 89819, Control_c, 0, 64, 77
1, 89834, Control_c, 0, 64, 54
1, 89848, Control_c, 0, 64, 0
1, 90054, Note_on_c, 0, 57, 28
1, 90055, Note_on_c, 0, 50, 30
1, 90155, Note_off_c, 0, 50, 36
1, 90197, Note_off_c, 0, 57, 44
1, 90202, Note_on_c, 0, 71, 39
1, 90213, Note_on_c, 0, 65, 30
1, 90215, Note_on_c, 0, 62, 39
1, 90230, Note_off_c, 0, 71, 49
1, 90242, Note_off_c, 0, 65, 47
1, 90258, Note_off_c, 0, 62, 62
1, 90327, Note_on_c, 0, 73, 66
1, 90341, Note_on_c, 0, 67, 49
1, 90353, Note_on_c, 0, 64, 41
1, 90358, Note_off_c, 0, 73, 62
1, 90372, Note_off_c, 0, 67, 62
1, 90386, Note_off_c, 0, 64, 57
1, 90478, Note_on_c, 0, 74, 68
1, 90488, Note_on_c, 0, 65, 48
1, 90496, Note_on_c, 0, 69, 42
1, 90528, Note_off_c, 0, 69, 52
1, 90545, Note_off_c, 0, 65, 51
1, 90552, Control_c, 0, 64, 31
1, 90567, Control_c, 0, 64, 49
1, 90582, Control_c, 0, 64, 61
1, 90591, Note_off_c, 0, 74, 60
1, 90597, Control_c, 0, 64, 65
1, 90612, Control_c, 0, 64, 68
1, 90620, Note_on_c, 0, 57, 52
1, 90626, Control_c, 0, 64, 68
1, 90641, Control_c, 0, 64, 69
1, 90689, Note_off_c, 0, 57, 49
1, 90701, Control_c, 0, 64, 68
1, 90716, Control_c, 0, 64, 68
1, 90731, Control_c, 0, 64, 66
1, 90740, Note_on_c, 0, 67, 54
1, 90743, Note_on_c, 0, 76, 74
1, 90745, Control_c, 0, 64, 64
1, 90760, Control_c, 0, 64, 60
1, 90761, Note_on_c, 0, 71, 44
1, 90768, Note_off_c, 0, 76, 67
1, 90775, Control_c, 0, 64, 56
1, 90782, Note_off_c, 0, 67, 59
1, 90787, Note_off_c, 0, 71, 54
1, 90790, Control_c, 0, 64, 49
1, 90805, Control_c, 0, 64, 42
1, 90819, Control_c, 0, 64, 31
1, 90834, Control_c, 0, 64, 0
1, 90868, Note_on_c, 0, 77, 65
1, 90871, Note_on_c, 0, 69, 55
1, 90872, Note_on_c, 0, 72, 63
1, 90894, Note_off_c, 0, 72, 66
1, 90895, Note_off_c, 0, 77, 65
1, 90904, Note_off_c, 0, 69, 65
1, 91026, Note_on_c, 0, 76, 67
1, 91038, Note_on_c, 0, 71, 46
1, 91072, Control_c, 0, 64, 32
1, 91086, Control_c, 0, 64, 42
1, 91101, Control_c, 0, 64, 52
1, 91124, Control_c, 0, 64, 57
1, 91139, Control_c, 0, 64, 61
1, 91154, Control_c, 0, 64, 62
1, 91168, Control_c, 0, 64, 63
1, 91183, Control_c, 0, 64, 63
1, 91187, Note_on_c, 0, 50, 43
1, 91198, Control_c, 0, 64, 65
1, 91213, Control_c, 0, 64, 66
1, 91228, Control_c, 0, 64, 67
1, 91242, Control_c, 0, 64, 68
1, 91257, Control_c, 0, 64, 69
1, 91272, Control_c, 0, 64, 70
1, 91286, Control_c, 0, 64, 71
1, 91336, Note_on_c, 0, 57, 31
1, 91405, Control_c, 0, 67, 123
1, 91419, Control_c, 0, 67, 120
1, 91434, Control_c, 0, 67, 116
1, 91449, Control_c, 0, 64, 70
1, 91449, Control_c, 0, 67, 113
1, 91464, Control_c, 0, 64, 69
1, 91464, Control_c, 0, 67, 109
1, 91475, Note_on_c, 0, 59, 33
1, 91479, Control_c, 0, 64, 67
1, 91479, Control_c, 0, 67, 104
1, 91494, Control_c, 0, 64, 64
1, 91494, Control_c, 0, 67, 98
1, 91509, Control_c, 0, 64, 61
1, 91509, Control_c, 0, 67, 92
1, 91524, Control_c, 0, 64, 60
1, 91524, Control_c, 0, 67, 87
1, 91539, Control_c, 0, 64, 61
1, 91539, Control_c, 0, 67, 81
1, 91553, Control_c, 0, 64, 61
1, 91553, Control_c, 0, 67, 77
1, 91568, Control_c, 0, 64, 62
1, 91568, Control_c, 0, 67, 73
1, 91583, Control_c, 0, 64, 63
1, 91583, Control_c, 0, 67, 69
1, 91598, Control_c, 0, 64, 64
1, 91598, Control_c, 0, 67, 67
1, 91612, Control_c, 0, 64, 65
1, 91612, Control_c, 0, 67, 64
1, 91626, Note_on_c, 0, 64, 43
1, 91627, Control_c, 0, 64, 66
1, 91627, Control_c, 0, 67, 60
1, 91642, Control_c, 0, 64, 68
1, 91642, Control_c, 0, 67, 55
1, 91649, Note_off_c, 0, 59, 51
1, 91657, Control_c, 0, 64, 69
1, 91657, Control_c, 0, 67, 51
1, 91658, Note_off_c, 0, 50, 41
1, 91672, Control_c, 0, 64, 70
1, 91672, Control_c, 0, 67, 48
1, 91686, Control_c, 0, 64, 71
1, 91686, Control_c, 0, 67, 46
1, 91701, Control_c, 0, 64, 72
1, 91701, Control_c, 0, 67, 45
1, 91716, Control_c, 0, 64, 74
1, 91716, Control_c, 0, 67, 44
1, 91726, Note_off_c, 0, 57, 43
1, 91728, Note_off_c, 0, 64, 43
1, 91731, Control_c, 0, 64, 76
1, 91747, Control_c, 0, 64, 79
1, 91762, Control_c, 0, 64, 81
1, 91762, Control_c, 0, 67, 44
1, 91770, Note_on_c, 0, 69, 49
1, 91777, Control_c, 0, 64, 83
1, 91792, Control_c, 0, 64, 85
1, 91807, Control_c, 0, 64, 86
1, 91822, Control_c, 0, 64, 87
1, 91836, Control_c, 0, 64, 87
1, 91872, Note_off_c, 0, 69, 60
1, 91873, Control_c, 0, 64, 88
1, 91888, Control_c, 0, 67, 43
1, 91891, Note_on_c, 0, 64, 43
1, 91917, Control_c, 0, 67, 43
1, 91938, Note_off_c, 0, 71, 28
1, 92007, Note_on_c, 0, 69, 56
1, 92014, Note_off_c, 0, 64, 59
1, 92051, Control_c, 0, 67, 42
1, 92066, Control_c, 0, 64, 87
1, 92066, Control_c, 0, 67, 42
1, 92070, Note_off_c, 0, 69, 54
1, 92081, Control_c, 0, 64, 82
1, 92081, Control_c, 0, 67, 40
1, 92096, Control_c, 0, 64, 71
1, 92096, Control_c, 0, 67, 29
1, 92099, Note_off_c, 0, 76, 42
1, 92110, Control_c, 0, 64, 62
1, 92110, Control_c, 0, 67, 0
1, 92125, Control_c, 0, 64, 52
1, 92140, Note_on_c, 0, 48, 62
1, 92140, Control_c, 0, 64, 50
1, 92155, Control_c, 0, 64, 56
1, 92170, Control_c, 0, 64, 62
1, 92184, Control_c, 0, 64, 66
1, 92199, Control_c, 0, 64, 69
1, 92214, Control_c, 0, 64, 72
1, 92229, Control_c, 0, 64, 74
1, 92247, Note_off_c, 0, 48, 38
1, 92284, Note_on_c, 0, 64, 54
1, 92286, Note_on_c, 0, 57, 32
1, 92288, Control_c, 0, 64, 73
1, 92316, Note_off_c, 0, 64, 66
1, 92317, Control_c, 0, 64, 73
1, 92322, Note_off_c, 0, 57, 52
1, 92332, Control_c, 0, 64, 72
1, 92347, Control_c, 0, 64, 71
1, 92362, Control_c, 0, 64, 70
1, 92377, Control_c, 0, 64, 69
1, 92391, Control_c, 0, 64, 67
1, 92406, Note_on_c, 0, 78, 65
1, 92406, Control_c, 0, 64, 65
1, 92412, Note_on_c, 0, 72, 52
1, 92414, Note_on_c, 0, 69, 58
1, 92421, Control_c, 0, 64, 63
1, 92435, Note_off_c, 0, 78, 66
1, 92436, Control_c, 0, 64, 61
1, 92438, Note_off_c, 0, 72, 63
1, 92445, Note_off_c, 0, 69, 65
1, 92451, Control_c, 0, 64, 58
1, 92466, Control_c, 0, 64, 56
1, 92481, Control_c, 0, 64, 55
1, 92495, Control_c, 0, 64, 53
1, 92510, Control_c, 0, 64, 49
1, 92519, Note_on_c, 0, 80, 72
1, 92523, Note_on_c, 0, 74, 62
1, 92525, Control_c, 0, 64, 38
1, 92536, Note_on_c, 0, 71, 52
1, 92540, Control_c, 0, 64, 0
1, 92558, Note_off_c, 0, 74, 62
1, 92561, Note_off_c, 0, 71, 62
1, 92579, Note_off_c, 0, 80, 60
1, 92652, Note_on_c, 0, 81, 73
1, 92653, Note_on_c, 0, 72, 60
1, 92656, Note_on_c, 0, 76, 63
1, 92681, Control_c, 0, 64, 43
1, 92696, Control_c, 0, 64, 56
1, 92711, Control_c, 0, 64, 63
1, 92717, Note_off_c, 0, 76, 61
1, 92726, Control_c, 0, 64, 67
1, 92735, Note_off_c, 0, 72, 52
1, 92737, Note_off_c, 0, 81, 60
1, 92740, Control_c, 0, 64, 70
1, 92755, Control_c, 0, 64, 73
1, 92770, Control_c, 0, 64, 76
1, 92785, Note_on_c, 0, 66, 59
1, 92785, Control_c, 0, 64, 78
1, 92800, Control_c, 0, 64, 81
1, 92814, Control_c, 0, 64, 82
1, 92829, Control_c, 0, 64, 82
1, 92844, Control_c, 0, 64, 80
1, 92859, Control_c, 0, 64, 75
1, 92874, Control_c, 0, 64, 70
1, 92880, Note_off_c, 0, 66, 60
1, 92889, Control_c, 0, 64, 67
1, 92897, Note_on_c, 0, 83, 69
1, 92898, Note_on_c, 0, 74, 62
1, 92898, Note_on_c, 0, 78, 69
1, 92919, Control_c, 0, 64, 68
1, 92925, Note_off_c, 0, 78, 64
1, 92933, Control_c, 0, 64, 71
1, 92948, Control_c, 0, 64, 75
1, 92954, Note_off_c, 0, 83, 60
1, 92963, Control_c, 0, 64, 81
1, 92977, Note_off_c, 0, 74, 60
1, 92978, Control_c, 0, 64, 87
1, 92993, Control_c, 0, 64, 91
1, 93007, Control_c, 0, 64, 94
1, 93015, Note_on_c, 0, 84, 74
1, 93028, Note_on_c, 0, 76, 60
1, 93050, Note_off_c, 0, 76, 64
1, 93076, Note_off_c, 0, 84, 61
1, 93096, Control_c, 0, 64, 93
1, 93111, Control_c, 0, 64, 92
1, 93116, Poly_aftertouch_c, 0, 79, 0
1, 93126, Control_c, 0, 64, 87
1, 93140, Note_on_c, 0, 74, 63
1, 93140, Control_c, 0, 64, 77
1, 93155, Control_c, 0, 64, 65
1, 93170, Control_c, 0, 64, 48
1, 93184, Control_c, 0, 64, 0
1, 93193, Note_on_c, 0, 78, 62
1, 93227, Note_on_c, 0, 83, 73
1, 93273, Control_c, 0, 64, 34
1, 93288, Control_c, 0, 64, 52
1, 93292, Note_off_c, 0, 74, 34
1, 93303, Control_c, 0, 64, 63
1, 93318, Control_c, 0, 64, 69
1, 93320, Note_off_c, 0, 83, 63
1, 93334, Control_c, 0, 64, 72
1, 93349, Control_c, 0, 64, 74
1, 93370, Note_off_c, 0, 78, 39
1, 93371, Control_c, 0, 64, 76
1, 93386, Control_c, 0, 64, 77
1, 93401, Control_c, 0, 64, 78
1, 93416, Control_c, 0, 64, 79
1, 93431, Control_c, 0, 64, 80
1, 93433, Note_on_c, 0, 47, 42
1, 93536, Note_on_c, 0, 69, 56
1, 93563, Control_c, 0, 64, 79
1, 93572, Note_on_c, 0, 72, 53
1, 93578, Control_c, 0, 64, 75
1, 93593, Control_c, 0, 64, 70
1, 93603, Note_on_c, 0, 75, 53
1, 93608, Control_c, 0, 64, 65
1, 93614, Note_on_c, 0, 54, 48
1, 93622, Control_c, 0, 64, 61
1, 93630, Note_on_c, 0, 81, 79
1, 93637, Control_c, 0, 64, 59
1, 93652, Control_c, 0, 64, 60
1, 93667, Control_c, 0, 64, 62
1, 93682, Control_c, 0, 64, 64
1, 93697, Control_c, 0, 64, 66
1, 93706, Note_off_c, 0, 47, 42
1, 93712, Control_c, 0, 64, 69
1, 93727, Control_c, 0, 64, 72
1, 93741, Control_c, 0, 64, 74
1, 93755, Note_on_c, 0, 63, 64
1, 93756, Control_c, 0, 64, 77
1, 93771, Control_c, 0, 64, 80
1, 93786, Control_c, 0, 64, 83
1, 93801, Control_c, 0, 64, 84
1, 93802, Note_off_c, 0, 69, 59
1, 93815, Control_c, 0, 64, 85
1, 93825, Note_off_c, 0, 54, 37
1, 93828, Note_off_c, 0, 63, 60
1, 93830, Note_off_c, 0, 81, 59
1, 93831, Note_off_c, 0, 72, 56
1, 93868, Note_off_c, 0, 75, 61
1, 93879, Note_on_c, 0, 48, 76
1, 93934, Control_c, 0, 64, 84
1, 93963, Control_c, 0, 64, 84
1, 93978, Control_c, 0, 64, 83
1, 93993, Control_c, 0, 64, 82
1, 94004, Note_on_c, 0, 57, 69
1, 94007, Control_c, 0, 64, 80
1, 94022, Control_c, 0, 64, 79
1, 94037, Control_c, 0, 64, 78
1, 94047, Note_on_c, 0, 72, 65
1, 94067, Control_c, 0, 64, 77
1, 94081, Control_c, 0, 64, 75
1, 94084, Note_on_c, 0, 76, 68
1, 94096, Control_c, 0, 64, 71
1, 94119, Control_c, 0, 64, 64
1, 94129, Note_on_c, 0, 84, 85
1, 94135, Control_c, 0, 64, 47
1, 94138, Note_on_c, 0, 64, 58
1, 94150, Control_c, 0, 64, 0
1, 94224, Control_c, 0, 64, 43
1, 94235, Note_off_c, 0, 72, 56
1, 94238, Control_c, 0, 64, 59
1, 94253, Control_c, 0, 64, 66
1, 94268, Control_c, 0, 64, 68
1, 94283, Control_c, 0, 64, 69
1, 94324, Note_off_c, 0, 48, 59
1, 94357, Control_c, 0, 64, 70
1, 94366, Note_off_c, 0, 64, 47
1, 94386, Control_c, 0, 64, 70
1, 94400, Note_on_c, 0, 82, 76
1, 94401, Control_c, 0, 64, 71
1, 94403, Note_on_c, 0, 70, 71
1, 94416, Control_c, 0, 64, 71
1, 94419, Note_off_c, 0, 76, 60
1, 94427, Note_off_c, 0, 84, 39
1, 94431, Control_c, 0, 64, 72
1, 94445, Control_c, 0, 64, 73
1, 94475, Control_c, 0, 64, 73
1, 94490, Control_c, 0, 64, 74
1, 94493, Note_off_c, 0, 57, 37
1, 94505, Control_c, 0, 64, 75
1, 94519, Control_c, 0, 64, 76
1, 94534, Control_c, 0, 64, 76
1, 94546, Note_on_c, 0, 49, 70
1, 94555, Note_off_c, 0, 70, 60
1, 94558, Note_off_c, 0, 82, 60
1, 94564, Control_c, 0, 64, 76
1, 94579, Control_c, 0, 64, 74
1, 94594, Control_c, 0, 64, 70
1, 94609, Control_c, 0, 64, 66
1, 94614, Note_on_c, 0, 69, 68
1, 94624, Control_c, 0, 64, 63
1, 94635, Note_on_c, 0, 77, 70
1, 94638, Control_c, 0, 64, 63
1, 94653, Control_c, 0, 64, 64
1, 94661, Note_on_c, 0, 57, 66
1, 94668, Control_c, 0, 64, 65
1, 94680, Note_on_c, 0, 81, 92
1, 94683, Control_c, 0, 64, 68
1, 94698, Control_c, 0, 64, 71
1, 94712, Control_c, 0, 64, 74
1, 94725, Note_off_c, 0, 49, 51
1, 94727, Control_c, 0, 64, 76
1, 94742, Control_c, 0, 64, 78
1, 94756, Control_c, 0, 64, 80
1, 94771, Control_c, 0, 64, 82
1, 94782, Note_on_c, 0, 65, 71
1, 94786, Control_c, 0, 64, 84
1, 94801, Control_c, 0, 64, 85
1, 94816, Control_c, 0, 64, 87
1, 94830, Control_c, 0, 64, 88
1, 94839, Note_off_c, 0, 65, 58
1, 94859, Note_off_c, 0, 69, 37
1, 94860, Note_off_c, 0, 57, 34
1, 94898, Control_c, 0, 64, 84
1, 94901, Note_off_c, 0, 81, 61
1, 94901, Note_off_c, 0, 77, 59
1, 94908, Note_on_c, 0, 50, 84
1, 94912, Control_c, 0, 64, 76
1, 94927, Control_c, 0, 64, 68
1, 94943, Control_c, 0, 64, 63
1, 94958, Control_c, 0, 64, 62
1, 94973, Control_c, 0, 64, 62
1, 94987, Control_c, 0, 64, 64
1, 95002, Control_c, 0, 64, 67
1, 95017, Control_c, 0, 64, 70
1, 95032, Control_c, 0, 64, 74
1, 95032, Note_on_c, 0, 57, 66
1, 95047, Control_c, 0, 64, 76
1, 95061, Control_c, 0, 64, 77
1, 95071, Note_on_c, 0, 72, 71
1, 95076, Control_c, 0, 64, 78
1, 95091, Control_c, 0, 64, 79
1, 95105, Note_off_c, 0, 50, 37
1, 95106, Control_c, 0, 64, 79
1, 95121, Note_on_c, 0, 78, 72
1, 95121, Control_c, 0, 64, 80
1, 95135, Control_c, 0, 64, 81
1, 95140, Note_off_c, 0, 57, 62
1, 95143, Note_on_c, 0, 66, 66
1, 95150, Control_c, 0, 64, 81
1, 95151, Note_on_c, 0, 84, 87
1, 95165, Control_c, 0, 64, 83
1, 95179, Control_c, 0, 64, 83
1, 95194, Control_c, 0, 64, 84
1, 95209, Control_c, 0, 64, 85
1, 95223, Note_off_c, 0, 72, 60
1, 95224, Control_c, 0, 64, 85
1, 95239, Control_c, 0, 64, 86
1, 95253, Control_c, 0, 64, 86
1, 95262, Note_off_c, 0, 66, 60
1, 95342, Control_c, 0, 64, 85
1, 95357, Control_c, 0, 64, 78
1, 95372, Control_c, 0, 64, 68
1, 95387, Control_c, 0, 64, 58
1, 95394, Note_off_c, 0, 78, 60
1, 95396, Note_on_c, 0, 51, 77
1, 95402, Control_c, 0, 64, 43
1, 95405, Note_on_c, 0, 70, 75
1, 95407, Note_on_c, 0, 82, 76
1, 95408, Note_off_c, 0, 84, 62
1, 95417, Control_c, 0, 64, 29
1, 95432, Control_c, 0, 64, 32
1, 95447, Control_c, 0, 64, 43
1, 95461, Control_c, 0, 64, 55
1, 95476, Control_c, 0, 64, 63
1, 95491, Control_c, 0, 64, 68
1, 95506, Control_c, 0, 64, 72
1, 95515, Note_off_c, 0, 82, 60
1, 95521, Control_c, 0, 64, 75
1, 95535, Control_c, 0, 64, 76
1, 95541, Note_off_c, 0, 70, 56
1, 95550, Control_c, 0, 64, 76
1, 95555, Note_on_c, 0, 57, 63
1, 95565, Control_c, 0, 64, 77
1, 95569, Note_off_c, 0, 51, 56
1, 95587, Note_on_c, 0, 69, 69
1, 95594, Control_c, 0, 64, 78
1, 95620, Note_on_c, 0, 79, 65
1, 95631, Control_c, 0, 64, 78
1, 95640, Note_on_c, 0, 81, 83
1, 95684, Note_off_c, 0, 69, 62
1, 95711, Note_on_c, 0, 67, 59
1, 95715, Note_off_c, 0, 81, 64
1, 95752, Note_off_c, 0, 79, 64
1, 95773, Note_off_c, 0, 57, 33
1, 95777, Note_off_c, 0, 67, 57
1, 95781, Note_on_c, 0, 70, 74
1, 95788, Note_on_c, 0, 82, 84
1, 95855, Control_c, 0, 64, 79
1, 95870, Control_c, 0, 64, 79
1, 95876, Note_off_c, 0, 82, 58
1, 95884, Note_on_c, 0, 52, 76
1, 95886, Note_off_c, 0, 70, 63
1, 95914, Control_c, 0, 64, 77
1, 95919, Note_on_c, 0, 69, 67
1, 95929, Control_c, 0, 64, 66
1, 95944, Control_c, 0, 64, 46
1, 95951, Note_on_c, 0, 73, 73
1, 95958, Control_c, 0, 64, 0
1, 95983, Note_on_c, 0, 81, 87
1, 96017, Control_c, 0, 64, 48
1, 96032, Control_c, 0, 64, 60
1, 96045, Note_off_c, 0, 69, 60
1, 96047, Control_c, 0, 64, 66
1, 96062, Control_c, 0, 64, 70
1, 96076, Control_c, 0, 64, 75
1, 96078, Note_on_c, 0, 61, 71
1, 96081, Note_off_c, 0, 81, 63
1, 96091, Control_c, 0, 64, 79
1, 96106, Control_c, 0, 64, 83
1, 96121, Note_off_c, 0, 52, 62
1, 96121, Control_c, 0, 64, 87
1, 96136, Control_c, 0, 64, 91
1, 96150, Control_c, 0, 64, 95
1, 96165, Control_c, 0, 64, 100
1, 96176, Note_on_c, 0, 82, 89
1, 96180, Control_c, 0, 64, 107
1, 96182, Note_on_c, 0, 70, 75
1, 96195, Control_c, 0, 64, 122
1, 96210, Control_c, 0, 64, 127
1, 96263, Note_on_c, 0, 67, 61
1, 96268, Note_off_c, 0, 70, 58
1, 96274, Note_off_c, 0, 82, 59
1, 96285, Note_off_c, 0, 61, 48
1, 96291, Note_off_c, 0, 67, 67
1, 96381, Note_on_c, 0, 81, 91
1, 96383, Note_off_c, 0, 73, 62
1, 96388, Note_on_c, 0, 69, 74
1, 96411, Note_off_c, 0, 69, 68
1, 96445, Note_off_c, 0, 81, 63
1, 96570, Note_on_c, 0, 76, 87
1, 96663, Control_c, 0, 64, 111
1, 96678, Control_c, 0, 64, 69
1, 96692, Note_on_c, 0, 88, 94
1, 96693, Control_c, 0, 64, 0
1, 96781, Control_c, 0, 64, 63
1, 96796, Control_c, 0, 64, 127
1, 96858, Note_off_c, 0, 88, 63
1, 96860, Note_off_c, 0, 76, 56
1, 96943, Note_on_c, 0, 42, 68
1, 97181, Note_on_c, 0, 86, 91
1, 97194, Note_on_c, 0, 50, 59
1, 97195, Note_on_c, 0, 74, 72
1, 97323, Note_off_c, 0, 42, 37
1, 97371, Note_off_c, 0, 74, 30
1, 97408, Note_on_c, 0, 57, 61
1, 97410, Note_off_c, 0, 50, 35
1, 97417, Note_on_c, 0, 85, 89
1, 97467, Note_off_c, 0, 57, 60
1, 97587, Note_on_c, 0, 57, 61
1, 97595, Note_on_c, 0, 83, 92
1, 97644, Note_off_c, 0, 86, 36
1, 97646, Note_off_c, 0, 85, 60
1, 97733, Note_on_c, 0, 81, 93
1, 97742, Note_on_c, 0, 62, 55
1, 97754, Note_off_c, 0, 57, 57
1, 97769, Note_off_c, 0, 83, 61
1, 97816, Note_off_c, 0, 62, 53
1, 97885, Note_on_c, 0, 86, 87
1, 97889, Note_on_c, 0, 57, 61
1, 97889, Note_on_c, 0, 79, 95
1, 97889, Note_off_c, 0, 81, 61
1, 97964, Note_off_c, 0, 57, 62
1, 97971, Note_off_c, 0, 79, 58
1, 98001, Note_on_c, 0, 62, 57
1, 98016, Note_on_c, 0, 78, 86
1, 98037, Note_off_c, 0, 62, 63
1, 98111, Note_off_c, 0, 86, 39
1, 98144, Note_on_c, 0, 76, 81
1, 98176, Control_c, 0, 64, 73
1, 98182, Note_off_c, 0, 78, 61
1, 98191, Control_c, 0, 64, 47
1, 98205, Control_c, 0, 64, 0
1, 98250, Control_c, 0, 64, 37
1, 98265, Control_c, 0, 64, 54
1, 98266, Note_on_c, 0, 43, 75
1, 98266, Note_off_c, 0, 76, 55
1, 98274, Note_on_c, 0, 74, 78
1, 98279, Control_c, 0, 64, 63
1, 98294, Control_c, 0, 64, 69
1, 98309, Control_c, 0, 64, 77
1, 98318, Note_off_c, 0, 74, 66
1, 98324, Control_c, 0, 64, 82
1, 98338, Control_c, 0, 64, 85
1, 98353, Control_c, 0, 64, 87
1, 98368, Control_c, 0, 64, 88
1, 98383, Control_c, 0, 64, 88
1, 98398, Control_c, 0, 64, 89
1, 98405, Note_on_c, 0, 50, 64
1, 98406, Note_on_c, 0, 73, 72
1, 98408, Note_on_c, 0, 74, 69
1, 98413, Control_c, 0, 64, 92
1, 98427, Control_c, 0, 64, 96
1, 98442, Control_c, 0, 64, 101
1, 98457, Control_c, 0, 64, 105
1, 98472, Control_c, 0, 64, 108
1, 98486, Control_c, 0, 64, 114
1, 98498, Note_off_c, 0, 43, 38
1, 98501, Control_c, 0, 64, 122
1, 98516, Control_c, 0, 64, 127
1, 98521, Note_off_c, 0, 50, 60
1, 98529, Note_on_c, 0, 71, 75
1, 98530, Note_on_c, 0, 59, 63
1, 98564, Note_off_c, 0, 74, 52
1, 98588, Note_off_c, 0, 73, 48
1, 98609, Note_off_c, 0, 59, 58
1, 98659, Note_on_c, 0, 59, 52
1, 98669, Note_on_c, 0, 69, 75
1, 98693, Note_off_c, 0, 71, 61
1, 98778, Note_off_c, 0, 59, 59
1, 98788, Note_off_c, 0, 69, 59
1, 98792, Note_on_c, 0, 67, 75
1, 98797, Note_on_c, 0, 62, 59
1, 98881, Note_off_c, 0, 62, 58
1, 98904, Note_off_c, 0, 67, 56
1, 98922, Note_on_c, 0, 66, 73
1, 98927, Note_on_c, 0, 59, 56
1, 98928, Note_on_c, 0, 74, 69
1, 99003, Note_off_c, 0, 74, 58
1, 99014, Note_off_c, 0, 59, 62
1, 99056, Note_on_c, 0, 64, 72
1, 99057, Note_on_c, 0, 62, 47
1, 99074, Note_off_c, 0, 66, 51
1, 99083, Note_off_c, 0, 62, 57
1, 99128, Note_off_c, 0, 64, 56
1, 99176, Control_c, 0, 64, 106
1, 99191, Control_c, 0, 64, 69
1, 99202, Note_on_c, 0, 62, 61
1, 99205, Control_c, 0, 64, 0
1, 99280, Control_c, 0, 64, 32
1, 99281, Note_off_c, 0, 62, 62
1, 99295, Control_c, 0, 64, 58
1, 99309, Control_c, 0, 64, 67
1, 99324, Control_c, 0, 64, 75
1, 99339, Control_c, 0, 64, 82
1, 99360, Control_c, 0, 64, 89
1, 99366, Note_on_c, 0, 44, 59
1, 99375, Control_c, 0, 64, 96
1, 99390, Control_c, 0, 64, 108
1, 99405, Control_c, 0, 64, 127
1, 99535, Note_on_c, 0, 54, 54
1, 99548, Note_on_c, 0, 78, 74
1, 99605, Note_off_c, 0, 44, 37
1, 99642, Note_off_c, 0, 78, 55
1, 99652, Note_off_c, 0, 54, 58
1, 99671, Note_on_c, 0, 91, 65
1, 99698, Note_on_c, 0, 59, 50
1, 99736, Note_off_c, 0, 59, 64
1, 99755, Note_on_c, 0, 90, 67
1, 99777, Note_off_c, 0, 91, 49
1, 99807, Note_off_c, 0, 90, 51
1, 99832, Note_on_c, 0, 62, 55
1, 99843, Note_on_c, 0, 76, 71
1, 99895, Note_off_c, 0, 76, 64
1, 99912, Note_off_c, 0, 62, 59
1, 99923, Note_on_c, 0, 90, 69
1, 99999, Note_on_c, 0, 88, 73
1, 100005, Note_on_c, 0, 66, 19
1, 100039, Note_off_c, 0, 90, 55
1, 100047, Note_off_c, 0, 66, 43
1, 100048, Note_off_c, 0, 88, 66
1, 100071, Note_on_c, 0, 71, 47
1, 100098, Note_on_c, 0, 74, 74
1, 100103, Note_off_c, 0, 71, 57
1, 100166, Note_off_c, 0, 74, 60
1, 100171, Note_on_c, 0, 88, 75
1, 100248, Note_on_c, 0, 86, 69
1, 100276, Note_off_c, 0, 88, 64
1, 100302, Control_c, 0, 64, 117
1, 100317, Control_c, 0, 64, 68
1, 100319, Note_off_c, 0, 86, 64
1, 100322, Note_on_c, 0, 45, 63
1, 100332, Control_c, 0, 64, 39
1, 100347, Control_c, 0, 64, 0
1, 100352, Note_on_c, 0, 73, 71
1, 100391, Control_c, 0, 64, 49
1, 100406, Control_c, 0, 64, 71
1, 100421, Control_c, 0, 64, 100
1, 100424, Note_off_c, 0, 45, 56
1, 100436, Control_c, 0, 64, 127
1, 100438, Note_on_c, 0, 86, 70
1, 100444, Note_off_c, 0, 73, 57
1, 100461, Note_on_c, 0, 61, 64
1, 100511, Note_on_c, 0, 85, 75
1, 100546, Note_off_c, 0, 86, 60
1, 100549, Note_off_c, 0, 61, 52
1, 100554, Note_off_c, 0, 85, 59
1, 100589, Note_on_c, 0, 47, 64
1, 100600, Note_on_c, 0, 71, 75
1, 100612, Note_on_c, 0, 55, 55
1, 100653, Note_off_c, 0, 71, 65
1, 100659, Control_c, 0, 64, 94
1, 100670, Note_on_c, 0, 85, 77
1, 100673, Control_c, 0, 64, 72
1, 100688, Control_c, 0, 64, 62
1, 100703, Control_c, 0, 64, 56
1, 100704, Note_on_c, 0, 62, 66
1, 100717, Control_c, 0, 64, 60
1, 100726, Note_off_c, 0, 47, 41
1, 100732, Control_c, 0, 64, 66
1, 100743, Note_on_c, 0, 83, 74
1, 100747, Control_c, 0, 64, 77
1, 100761, Control_c, 0, 64, 97
1, 100776, Control_c, 0, 64, 127
1, 100788, Note_off_c, 0, 83, 66
1, 100793, Note_off_c, 0, 85, 58
1, 100795, Note_off_c, 0, 62, 61
1, 100820, Note_on_c, 0, 48, 68
1, 100834, Note_on_c, 0, 69, 73
1, 100865, Note_off_c, 0, 55, 61
1, 100872, Control_c, 0, 64, 89
1, 100887, Control_c, 0, 64, 69
1, 100901, Note_off_c, 0, 69, 62
1, 100902, Control_c, 0, 64, 56
1, 100908, Note_off_c, 0, 48, 62
1, 100917, Control_c, 0, 64, 55
1, 100922, Note_on_c, 0, 83, 74
1, 100931, Control_c, 0, 64, 59
1, 100940, Note_on_c, 0, 63, 66
1, 100946, Control_c, 0, 64, 64
1, 100961, Control_c, 0, 64, 71
1, 100976, Control_c, 0, 64, 81
1, 100991, Control_c, 0, 64, 94
1, 100997, Note_on_c, 0, 81, 78
1, 101006, Control_c, 0, 64, 101
1, 101012, Note_off_c, 0, 63, 47
1, 101021, Control_c, 0, 64, 92
1, 101026, Note_off_c, 0, 83, 58
1, 101036, Control_c, 0, 64, 75
1, 101051, Control_c, 0, 64, 63
1, 101055, Note_on_c, 0, 49, 67
1, 101057, Note_off_c, 0, 81, 64
1, 101066, Control_c, 0, 64, 53
1, 101080, Control_c, 0, 64, 54
1, 101083, Note_on_c, 0, 67, 71
1, 101095, Control_c, 0, 64, 61
1, 101102, Note_on_c, 0, 57, 32
1, 101110, Control_c, 0, 64, 67
1, 101124, Control_c, 0, 64, 73
1, 101136, Note_off_c, 0, 67, 59
1, 101138, Note_off_c, 0, 49, 63
1, 101139, Control_c, 0, 64, 77
1, 101146, Note_off_c, 0, 57, 48
1, 101154, Control_c, 0, 64, 80
1, 101156, Note_on_c, 0, 81, 75
1, 101164, Note_on_c, 0, 64, 60
1, 101169, Control_c, 0, 64, 82
1, 101184, Control_c, 0, 64, 83
1, 101198, Control_c, 0, 64, 84
1, 101213, Control_c, 0, 64, 84
1, 101215, Note_off_c, 0, 64, 56
1, 101220, Note_on_c, 0, 79, 67
1, 101231, Note_off_c, 0, 81, 62
1, 101253, Note_off_c, 0, 79, 66
1, 101272, Control_c, 0, 64, 82
1, 101287, Control_c, 0, 64, 73
1, 101302, Control_c, 0, 64, 60
1, 101304, Note_on_c, 0, 66, 60
1, 101318, Control_c, 0, 64, 42
1, 101324, Note_on_c, 0, 50, 65
1, 101333, Control_c, 0, 64, 0
1, 101362, Control_c, 0, 64, 36
1, 101364, Note_on_c, 0, 78, 69
1, 101377, Control_c, 0, 64, 48
1, 101392, Control_c, 0, 64, 58
1, 101407, Control_c, 0, 64, 64
1, 101420, Note_off_c, 0, 66, 59
1, 101421, Control_c, 0, 64, 67
1, 101432, Note_off_c, 0, 78, 62
1, 101436, Control_c, 0, 64, 69
1, 101451, Control_c, 0, 64, 70
1, 101466, Control_c, 0, 64, 71
1, 101481, Control_c, 0, 64, 71
1, 101496, Note_on_c, 0, 54, 66
1, 101510, Control_c, 0, 64, 72
1, 101516, Note_on_c, 0, 76, 70
1, 101525, Control_c, 0, 64, 72
1, 101531, Note_on_c, 0, 64, 53
1, 101540, Control_c, 0, 64, 73
1, 101554, Control_c, 0, 64, 74
1, 101566, Note_off_c, 0, 64, 64
1, 101569, Control_c, 0, 64, 76
1, 101572, Note_off_c, 0, 76, 63
1, 101584, Control_c, 0, 64, 77
1, 101659, Note_on_c, 0, 52, 69
1, 101666, Control_c, 0, 64, 75
1, 101667, Note_off_c, 0, 54, 61
1, 101670, Note_on_c, 0, 74, 64
1, 101671, Note_on_c, 0, 62, 66
1, 101681, Control_c, 0, 64, 70
1, 101695, Control_c, 0, 64, 64
1, 101710, Control_c, 0, 64, 55
1, 101721, Note_off_c, 0, 62, 58
1, 101725, Control_c, 0, 64, 51
1, 101740, Control_c, 0, 64, 52
1, 101754, Control_c, 0, 64, 55
1, 101769, Control_c, 0, 64, 59
1, 101776, Note_off_c, 0, 74, 37
1, 101784, Control_c, 0, 64, 61
1, 101795, Note_on_c, 0, 76, 76
1, 101799, Control_c, 0, 64, 64
1, 101800, Note_on_c, 0, 55, 77
1, 101805, Note_on_c, 0, 64, 67
1, 101814, Control_c, 0, 64, 67
1, 101829, Control_c, 0, 64, 70
1, 101844, Control_c, 0, 64, 72
1, 101846, Note_off_c, 0, 64, 60
1, 101858, Control_c, 0, 64, 73
1, 101888, Control_c, 0, 64, 72
1, 101903, Control_c, 0, 64, 72
1, 101925, Note_off_c, 0, 76, 61
1, 101933, Note_on_c, 0, 54, 77
1, 101935, Note_on_c, 0, 78, 81
1, 101940, Note_on_c, 0, 66, 73
1, 101947, Control_c, 0, 64, 72
1, 101960, Note_off_c, 0, 55, 59
1, 101962, Control_c, 0, 64, 73
1, 101972, Note_off_c, 0, 52, 55
1, 102005, Note_off_c, 0, 66, 61
1, 102007, Control_c, 0, 64, 72
1, 102021, Control_c, 0, 64, 67
1, 102036, Control_c, 0, 64, 58
1, 102051, Control_c, 0, 64, 37
1, 102058, Note_on_c, 0, 57, 68
1, 102066, Control_c, 0, 64, 0
1, 102067, Note_on_c, 0, 79, 88
1, 102070, Note_on_c, 0, 67, 75
1, 102082, Note_off_c, 0, 54, 60
1, 102085, Note_off_c, 0, 78, 55
1, 102122, Note_off_c, 0, 67, 59
1, 102156, Control_c, 0, 64, 35
1, 102170, Control_c, 0, 64, 48
1, 102183, Note_off_c, 0, 79, 65
1, 102185, Control_c, 0, 64, 58
1, 102188, Note_off_c, 0, 57, 62
1, 102198, Note_on_c, 0, 55, 69
1, 102200, Control_c, 0, 64, 63
1, 102205, Note_on_c, 0, 81, 84
1, 102209, Note_on_c, 0, 69, 77
1, 102215, Control_c, 0, 64, 65
1, 102231, Control_c, 0, 64, 67
1, 102234, Note_off_c, 0, 50, 62
1, 102245, Control_c, 0, 64, 69
1, 102260, Control_c, 0, 64, 73
1, 102264, Note_off_c, 0, 69, 62
1, 102275, Control_c, 0, 64, 78
1, 102289, Control_c, 0, 64, 85
1, 102304, Control_c, 0, 64, 93
1, 102312, Note_off_c, 0, 55, 62
1, 102319, Control_c, 0, 64, 96
1, 102336, Note_on_c, 0, 59, 71
1, 102347, Note_on_c, 0, 83, 92
1, 102348, Note_off_c, 0, 81, 33
1, 102351, Note_on_c, 0, 71, 84
1, 102368, Note_off_c, 0, 59, 69
1, 102412, Note_off_c, 0, 71, 61
1, 102446, Note_off_c, 0, 83, 62
1, 102460, Control_c, 0, 64, 94
1, 102475, Control_c, 0, 64, 84
1, 102490, Control_c, 0, 64, 70
1, 102504, Control_c, 0, 64, 57
1, 102519, Control_c, 0, 64, 43
1, 102523, Note_on_c, 0, 38, 88
1, 102528, Note_on_c, 0, 45, 77
1, 102529, Note_on_c, 0, 72, 94
1, 102529, Note_on_c, 0, 84, 96
1, 102532, Note_on_c, 0, 78, 81
1, 102534, Control_c, 0, 64, 37
1, 102534, Control_c, 0, 67, 20
1, 102549, Control_c, 0, 64, 43
1, 102549, Control_c, 0, 67, 22
1, 102556, Note_off_c, 0, 45, 70
1, 102564, Control_c, 0, 64, 54
1, 102574, Note_off_c, 0, 38, 65
1, 102578, Control_c, 0, 64, 63
1, 102593, Control_c, 0, 64, 71
1, 102608, Control_c, 0, 64, 87
1, 102623, Control_c, 0, 64, 127
1, 102696, Control_c, 0, 67, 20
1, 102729, Note_off_c, 0, 84, 63
1, 102735, Note_on_c, 0, 76, 83
1, 102741, Control_c, 0, 67, 0
1, 102767, Note_off_c, 0, 78, 60
1, 102783, Note_off_c, 0, 72, 60
1, 102844, Note_off_c, 0, 76, 57
1, 102869, Note_on_c, 0, 60, 83
1, 102873, Note_on_c, 0, 54, 81
1, 102884, Note_on_c, 0, 72, 81
1, 102885, Note_on_c, 0, 84, 81
1, 102887, Note_on_c, 0, 81, 79
1, 102995, Note_on_c, 0, 76, 90
1, 103013, Note_off_c, 0, 81, 60
1, 103041, Note_off_c, 0, 72, 52
1, 103042, Note_off_c, 0, 84, 51
1, 103101, Note_off_c, 0, 54, 50
1, 103134, Note_off_c, 0, 60, 64
1, 103152, Note_on_c, 0, 78, 81
1, 103152, Note_on_c, 0, 72, 79
1, 103152, Note_on_c, 0, 84, 86
1, 103153, Note_on_c, 0, 64, 70
1, 103154, Note_off_c, 0, 76, 36
1, 103179, Note_off_c, 0, 84, 59
1, 103184, Note_off_c, 0, 64, 62
1, 103188, Note_off_c, 0, 72, 59
1, 103210, Note_off_c, 0, 78, 60
1, 103372, Control_c, 0, 64, 120
1, 103387, Control_c, 0, 64, 98
1, 103401, Control_c, 0, 64, 82
1, 103416, Control_c, 0, 64, 69
1, 103431, Control_c, 0, 64, 56
1, 103446, Control_c, 0, 64, 0
1, 103501, Note_on_c, 0, 48, 53
1, 103513, Note_on_c, 0, 55, 51
1, 103518, Note_on_c, 0, 76, 60
1, 103519, Note_on_c, 0, 71, 51
1, 103579, Control_c, 0, 64, 40
1, 103593, Control_c, 0, 64, 55
1, 103608, Control_c, 0, 64, 64
1, 103614, Note_off_c, 0, 48, 61
1, 103618, Note_off_c, 0, 55, 63
1, 103623, Control_c, 0, 64, 70
1, 103638, Control_c, 0, 64, 78
1, 103653, Control_c, 0, 64, 88
1, 103660, Note_on_c, 0, 83, 68
1, 103668, Control_c, 0, 64, 100
1, 103680, Note_on_c, 0, 79, 59
1, 103680, Note_off_c, 0, 76, 58
1, 103683, Control_c, 0, 64, 116
1, 103698, Control_c, 0, 64, 127
1, 103707, Note_off_c, 0, 79, 65
1, 103722, Note_off_c, 0, 83, 61
1, 103727, Note_off_c, 0, 71, 39
1, 103772, Control_c, 0, 64, 120
1, 103787, Control_c, 0, 64, 101
1, 103802, Control_c, 0, 64, 82
1, 103817, Control_c, 0, 64, 66
1, 103832, Control_c, 0, 64, 47
1, 103844, Note_on_c, 0, 81, 61
1, 103847, Note_on_c, 0, 47, 58
1, 103853, Note_on_c, 0, 78, 56
1, 103854, Control_c, 0, 64, 0
1, 103856, Note_on_c, 0, 54, 53
1, 103898, Control_c, 0, 64, 40
1, 103913, Control_c, 0, 64, 58
1, 103928, Control_c, 0, 64, 68
1, 103939, Note_off_c, 0, 47, 64
1, 103939, Note_off_c, 0, 54, 63
1, 103943, Control_c, 0, 64, 80
1, 103957, Control_c, 0, 64, 97
1, 103972, Control_c, 0, 64, 122
1, 103987, Control_c, 0, 64, 127
1, 104002, Note_off_c, 0, 81, 35
1, 104015, Note_on_c, 0, 69, 49
1, 104017, Note_off_c, 0, 78, 33
1, 104017, Note_on_c, 0, 75, 48
1, 104051, Note_off_c, 0, 75, 59
1, 104062, Note_off_c, 0, 69, 56
1, 104137, Note_on_c, 0, 57, 59
1, 104144, Note_on_c, 0, 78, 59
1, 104151, Note_on_c, 0, 81, 57
1, 104153, Note_on_c, 0, 63, 52
1, 104270, Note_on_c, 0, 69, 54
1, 104274, Note_on_c, 0, 75, 56
1, 104279, Note_off_c, 0, 81, 39
1, 104302, Note_off_c, 0, 78, 46
1, 104345, Note_off_c, 0, 75, 58
1, 104407, Note_on_c, 0, 78, 62
1, 104407, Note_on_c, 0, 81, 63
1, 104410, Note_on_c, 0, 66, 61
1, 104436, Note_off_c, 0, 63, 60
1, 104456, Note_off_c, 0, 81, 57
1, 104472, Note_off_c, 0, 69, 18
1, 104477, Note_off_c, 0, 78, 59
1, 104481, Note_off_c, 0, 57, 39
1, 104503, Note_off_c, 0, 66, 50
1, 104580, Control_c, 0, 64, 122
1, 104603, Control_c, 0, 64, 113
1, 104618, Control_c, 0, 64, 102
1, 104633, Control_c, 0, 64, 86
1, 104647, Control_c, 0, 64, 70
1, 104662, Control_c, 0, 64, 56
1, 104677, Control_c, 0, 64, 31
1, 104692, Control_c, 0, 64, 0
1, 104694, Note_on_c, 0, 65, 54
1, 104695, Note_on_c, 0, 62, 54
1, 104706, Note_on_c, 0, 58, 51
1, 104706, Note_on_c, 0, 67, 52
1, 104708, Note_on_c, 0, 74, 61
1, 104735, Note_off_c, 0, 62, 64
1, 104735, Note_off_c, 0, 65, 58
1, 104736, Control_c, 0, 64, 44
1, 104751, Control_c, 0, 64, 58
1, 104765, Control_c, 0, 64, 66
1, 104771, Note_off_c, 0, 58, 62
1, 104780, Control_c, 0, 64, 72
1, 104795, Control_c, 0, 64, 77
1, 104810, Control_c, 0, 64, 80
1, 104825, Control_c, 0, 64, 81
1, 104833, Note_off_c, 0, 74, 51
1, 104867, Note_on_c, 0, 79, 31
1, 104869, Control_c, 0, 64, 78
1, 104873, Note_off_c, 0, 67, 58
1, 104876, Note_on_c, 0, 81, 20
1, 104884, Control_c, 0, 64, 70
1, 104890, Note_off_c, 0, 79, 50
1, 104899, Control_c, 0, 64, 57
1, 104908, Note_off_c, 0, 81, 44
1, 104914, Control_c, 0, 64, 0
1, 104979, Note_on_c, 0, 59, 48
1, 104979, Note_on_c, 0, 78, 64
1, 104981, Note_on_c, 0, 62, 53
1, 104999, Note_on_c, 0, 56, 52
1, 105002, Note_on_c, 0, 74, 46
1, 105003, Control_c, 0, 64, 29
1, 105018, Control_c, 0, 64, 47
1, 105029, Note_off_c, 0, 59, 63
1, 105033, Control_c, 0, 64, 61
1, 105034, Note_off_c, 0, 62, 60
1, 105047, Control_c, 0, 64, 68
1, 105062, Control_c, 0, 64, 74
1, 105077, Control_c, 0, 64, 81
1, 105081, Note_off_c, 0, 56, 59
1, 105091, Control_c, 0, 64, 86
1, 105106, Control_c, 0, 64, 91
1, 105114, Note_off_c, 0, 78, 38
1, 105120, Note_on_c, 0, 71, 58
1, 105121, Control_c, 0, 64, 94
1, 105123, Note_on_c, 0, 66, 52
1, 105136, Control_c, 0, 64, 94
1, 105146, Note_off_c, 0, 71, 65
1, 105149, Note_off_c, 0, 74, 42
1, 105157, Note_off_c, 0, 66, 65
1, 105165, Control_c, 0, 64, 94
1, 105180, Control_c, 0, 64, 87
1, 105195, Control_c, 0, 64, 73
1, 105209, Control_c, 0, 64, 62
1, 105224, Control_c, 0, 64, 49
1, 105239, Control_c, 0, 64, 34
1, 105254, Control_c, 0, 64, 29
1, 105260, Note_on_c, 0, 69, 59
1, 105262, Note_on_c, 0, 57, 51
1, 105263, Note_on_c, 0, 64, 53
1, 105264, Note_on_c, 0, 61, 54
1, 105265, Note_on_c, 0, 55, 49
1, 105269, Control_c, 0, 64, 37
1, 105284, Control_c, 0, 64, 52
1, 105298, Control_c, 0, 64, 61
1, 105314, Note_off_c, 0, 55, 60
1, 105314, Control_c, 0, 64, 68
1, 105329, Control_c, 0, 64, 75
1, 105352, Control_c, 0, 64, 82
1, 105366, Note_off_c, 0, 64, 35
1, 105367, Control_c, 0, 64, 87
1, 105378, Note_off_c, 0, 69, 47
1, 105382, Control_c, 0, 64, 91
1, 105385, Note_off_c, 0, 57, 37
1, 105385, Note_off_c, 0, 61, 32
1, 105387, Note_on_c, 0, 76, 66
1, 105388, Note_on_c, 0, 73, 60
1, 105396, Control_c, 0, 64, 92
1, 105420, Note_off_c, 0, 73, 67
1, 105421, Note_off_c, 0, 76, 61
1, 105441, Control_c, 0, 64, 91
1, 105456, Control_c, 0, 64, 85
1, 105470, Control_c, 0, 64, 74
1, 105485, Control_c, 0, 64, 64
1, 105500, Control_c, 0, 64, 50
1, 105511, Note_on_c, 0, 62, 54
1, 105514, Control_c, 0, 64, 41
1, 105522, Note_on_c, 0, 81, 64
1, 105526, Note_on_c, 0, 54, 54
1, 105527, Note_on_c, 0, 78, 61
1, 105533, Note_on_c, 0, 57, 40
1, 105544, Control_c, 0, 64, 48
1, 105549, Note_off_c, 0, 62, 63
1, 105559, Control_c, 0, 64, 57
1, 105565, Note_off_c, 0, 57, 54
1, 105574, Note_off_c, 0, 54, 62
1, 105574, Control_c, 0, 64, 64
1, 105588, Control_c, 0, 64, 72
1, 105603, Control_c, 0, 64, 81
1, 105618, Control_c, 0, 64, 92
1, 105633, Control_c, 0, 64, 100
1, 105641, Note_off_c, 0, 81, 31
1, 105642, Note_on_c, 0, 74, 59
1, 105644, Note_on_c, 0, 69, 55
1, 105647, Control_c, 0, 64, 103
1, 105655, Note_off_c, 0, 78, 47
1, 105666, Note_off_c, 0, 74, 64
1, 105684, Note_off_c, 0, 69, 60
1, 105707, Control_c, 0, 64, 95
1, 105722, Control_c, 0, 64, 81
1, 105730, Note_on_c, 0, 43, 59
1, 105737, Control_c, 0, 64, 68
1, 105752, Control_c, 0, 64, 56
1, 105766, Control_c, 0, 64, 42
1, 105767, Note_on_c, 0, 58, 67
1, 105776, Note_on_c, 0, 73, 63
1, 105781, Control_c, 0, 64, 35
1, 105784, Note_on_c, 0, 67, 51
1, 105796, Control_c, 0, 64, 40
1, 105811, Control_c, 0, 64, 52
1, 105817, Note_off_c, 0, 43, 61
1, 105826, Control_c, 0, 64, 61
1, 105833, Note_off_c, 0, 67, 56
1, 105838, Note_off_c, 0, 58, 63
1, 105840, Control_c, 0, 64, 68
1, 105855, Control_c, 0, 64, 76
1, 105870, Control_c, 0, 64, 86
1, 105885, Control_c, 0, 64, 94
1, 105887, Note_on_c, 0, 79, 66
1, 105898, Note_on_c, 0, 76, 60
1, 105900, Control_c, 0, 64, 98
1, 105917, Note_off_c, 0, 73, 53
1, 105920, Note_off_c, 0, 76, 63
1, 105936, Note_off_c, 0, 79, 64
1, 105959, Control_c, 0, 64, 93
1, 105974, Control_c, 0, 64, 81
1, 105988, Control_c, 0, 64, 67
1, 105999, Note_on_c, 0, 44, 56
1, 106003, Control_c, 0, 64, 57
1, 106018, Control_c, 0, 64, 48
1, 106021, Note_on_c, 0, 59, 64
1, 106029, Note_on_c, 0, 78, 63
1, 106032, Control_c, 0, 64, 46
1, 106041, Note_on_c, 0, 74, 62
1, 106047, Control_c, 0, 64, 49
1, 106062, Control_c, 0, 64, 55
1, 106077, Control_c, 0, 64, 62
1, 106100, Control_c, 0, 64, 69
1, 106107, Note_off_c, 0, 44, 59
1, 106115, Control_c, 0, 64, 78
1, 106118, Note_off_c, 0, 78, 53
1, 106124, Note_off_c, 0, 59, 62
1, 106130, Control_c, 0, 64, 92
1, 106145, Control_c, 0, 64, 112
1, 106152, Note_on_c, 0, 71, 65
1, 106160, Control_c, 0, 64, 127
1, 106165, Note_on_c, 0, 66, 52
1, 106166, Note_off_c, 0, 74, 56
1, 106185, Note_off_c, 0, 71, 63
1, 106189, Note_off_c, 0, 66, 62
1, 106205, Control_c, 0, 64, 101
1, 106219, Control_c, 0, 64, 80
1, 106234, Control_c, 0, 64, 65
1, 106240, Note_on_c, 0, 45, 58
1, 106249, Control_c, 0, 64, 51
1, 106263, Control_c, 0, 64, 37
1, 106278, Control_c, 0, 64, 30
1, 106288, Note_on_c, 0, 61, 69
1, 106292, Note_on_c, 0, 64, 59
1, 106293, Control_c, 0, 64, 33
1, 106299, Note_on_c, 0, 69, 60
1, 106308, Control_c, 0, 64, 39
1, 106323, Control_c, 0, 64, 47
1, 106326, Note_off_c, 0, 45, 57
1, 106337, Control_c, 0, 64, 56
1, 106352, Control_c, 0, 64, 63
1, 106367, Control_c, 0, 64, 69
1, 106377, Note_off_c, 0, 61, 60
1, 106380, Note_off_c, 0, 64, 49
1, 106382, Control_c, 0, 64, 77
1, 106397, Control_c, 0, 64, 83
1, 106402, Note_off_c, 0, 69, 60
1, 106409, Note_on_c, 0, 76, 62
1, 106410, Note_on_c, 0, 73, 59
1, 106411, Control_c, 0, 64, 86
1, 106426, Control_c, 0, 64, 87
1, 106440, Note_off_c, 0, 76, 63
1, 106441, Note_off_c, 0, 73, 66
1, 106441, Control_c, 0, 64, 86
1, 106456, Control_c, 0, 64, 80
1, 106460, Note_on_c, 0, 47, 61
1, 106470, Control_c, 0, 64, 69
1, 106485, Control_c, 0, 64, 55
1, 106500, Control_c, 0, 64, 36
1, 106515, Control_c, 0, 64, 0
1, 106537, Note_on_c, 0, 63, 69
1, 106549, Note_on_c, 0, 78, 65
1, 106550, Note_on_c, 0, 81, 68
1, 106559, Note_off_c, 0, 47, 57
1, 106559, Control_c, 0, 64, 36
1, 106574, Control_c, 0, 64, 50
1, 106589, Control_c, 0, 64, 61
1, 106604, Control_c, 0, 64, 68
1, 106613, Note_off_c, 0, 63, 62
1, 106619, Control_c, 0, 64, 75
1, 106634, Control_c, 0, 64, 82
1, 106649, Control_c, 0, 64, 87
1, 106656, Note_off_c, 0, 81, 55
1, 106663, Control_c, 0, 64, 91
1, 106670, Note_on_c, 0, 75, 66
1, 106677, Note_on_c, 0, 69, 53
1, 106678, Control_c, 0, 64, 91
1, 106682, Note_off_c, 0, 78, 58
1, 106704, Note_off_c, 0, 75, 62
1, 106708, Control_c, 0, 64, 88
1, 106709, Note_off_c, 0, 69, 63
1, 106723, Control_c, 0, 64, 80
1, 106737, Control_c, 0, 64, 68
1, 106752, Control_c, 0, 64, 56
1, 106767, Control_c, 0, 64, 39
1, 106782, Control_c, 0, 64, 0
1, 106789, Note_on_c, 0, 49, 64
1, 106792, Note_on_c, 0, 52, 55
1, 106792, Note_on_c, 0, 58, 63
1, 106799, Note_on_c, 0, 73, 69
1, 106801, Note_on_c, 0, 67, 63
1, 106811, Control_c, 0, 64, 32
1, 106826, Control_c, 0, 64, 45
1, 106848, Control_c, 0, 64, 57
1, 106860, Note_off_c, 0, 52, 55
1, 106863, Control_c, 0, 64, 64
1, 106878, Control_c, 0, 64, 69
1, 106892, Note_off_c, 0, 73, 48
1, 106893, Control_c, 0, 64, 74
1, 106908, Control_c, 0, 64, 77
1, 106914, Note_off_c, 0, 49, 57
1, 106923, Note_on_c, 0, 79, 66
1, 106923, Control_c, 0, 64, 79
1, 106934, Note_on_c, 0, 76, 58
1, 106938, Control_c, 0, 64, 79
1, 106939, Note_off_c, 0, 58, 61
1, 106957, Note_off_c, 0, 76, 65
1, 106961, Note_off_c, 0, 67, 26
1, 106965, Note_off_c, 0, 79, 64
1, 106968, Control_c, 0, 64, 77
1, 106983, Control_c, 0, 64, 70
1, 106998, Control_c, 0, 64, 59
1, 107012, Control_c, 0, 64, 46
1, 107027, Control_c, 0, 64, 31
1, 107042, Control_c, 0, 64, 0
1, 107046, Note_on_c, 0, 59, 60
1, 107049, Note_on_c, 0, 50, 62
1, 107055, Note_on_c, 0, 54, 60
1, 107057, Control_c, 0, 64, 30
1, 107059, Note_on_c, 0, 78, 62
1, 107072, Control_c, 0, 64, 40
1, 107075, Note_on_c, 0, 74, 58
1, 107086, Control_c, 0, 64, 53
1, 107101, Control_c, 0, 64, 61
1, 107113, Note_off_c, 0, 54, 61
1, 107114, Note_off_c, 0, 50, 62
1, 107116, Control_c, 0, 64, 67
1, 107126, Note_off_c, 0, 59, 61
1, 107131, Control_c, 0, 64, 72
1, 107146, Control_c, 0, 64, 77
1, 107160, Control_c, 0, 64, 80
1, 107171, Note_off_c, 0, 74, 49
1, 107173, Note_on_c, 0, 71, 64
1, 107175, Control_c, 0, 64, 81
1, 107177, Note_on_c, 0, 66, 55
1, 107187, Note_off_c, 0, 78, 32
1, 107206, Note_off_c, 0, 71, 62
1, 107213, Note_off_c, 0, 66, 64
1, 107219, Control_c, 0, 64, 79
1, 107234, Control_c, 0, 64, 72
1, 107249, Control_c, 0, 64, 62
1, 107264, Control_c, 0, 64, 39
1, 107279, Control_c, 0, 64, 0
1, 107303, Note_on_c, 0, 61, 59
1, 107304, Note_on_c, 0, 55, 55
1, 107305, Note_on_c, 0, 52, 59
1, 107308, Note_on_c, 0, 64, 63
1, 107315, Note_on_c, 0, 70, 62
1, 107353, Control_c, 0, 64, 35
1, 107355, Note_off_c, 0, 55, 61
1, 107367, Control_c, 0, 64, 52
1, 107376, Note_off_c, 0, 52, 62
1, 107382, Control_c, 0, 64, 64
1, 107397, Control_c, 0, 64, 70
1, 107412, Control_c, 0, 64, 74
1, 107415, Note_off_c, 0, 64, 54
1, 107425, Note_on_c, 0, 73, 67
1, 107427, Control_c, 0, 64, 78
1, 107430, Note_on_c, 0, 76, 63
1, 107433, Note_off_c, 0, 70, 62
1, 107442, Control_c, 0, 64, 79
1, 107454, Note_off_c, 0, 61, 58
1, 107457, Control_c, 0, 64, 80
1, 107465, Note_off_c, 0, 76, 63
1, 107466, Note_off_c, 0, 73, 59
1, 107486, Control_c, 0, 64, 79
1, 107501, Control_c, 0, 64, 75
1, 107516, Control_c, 0, 64, 68
1, 107531, Control_c, 0, 64, 59
1, 107546, Control_c, 0, 64, 50
1, 107554, Note_on_c, 0, 54, 62
1, 107556, Note_on_c, 0, 62, 62
1, 107561, Control_c, 0, 64, 45
1, 107561, Note_on_c, 0, 57, 55
1, 107561, Note_on_c, 0, 81, 70
1, 107563, Note_on_c, 0, 78, 71
1, 107576, Control_c, 0, 64, 48
1, 107598, Control_c, 0, 64, 55
1, 107613, Control_c, 0, 64, 61
1, 107627, Control_c, 0, 64, 66
1, 107642, Note_off_c, 0, 57, 52
1, 107642, Control_c, 0, 64, 71
1, 107649, Note_off_c, 0, 81, 52
1, 107657, Control_c, 0, 64, 76
1, 107658, Note_off_c, 0, 54, 58
1, 107665, Note_off_c, 0, 62, 49
1, 107672, Control_c, 0, 64, 81
1, 107683, Note_on_c, 0, 74, 72
1, 107687, Control_c, 0, 64, 85
1, 107690, Note_on_c, 0, 69, 60
1, 107701, Control_c, 0, 64, 85
1, 107702, Note_off_c, 0, 78, 37
1, 107720, Note_off_c, 0, 74, 60
1, 107732, Control_c, 0, 64, 84
1, 107733, Note_off_c, 0, 69, 62
1, 107747, Control_c, 0, 64, 77
1, 107762, Control_c, 0, 64, 67
1, 107777, Control_c, 0, 64, 56
1, 107791, Control_c, 0, 64, 39
1, 107806, Control_c, 0, 64, 0
1, 107810, Note_on_c, 0, 64, 54
1, 107814, Note_on_c, 0, 55, 53
1, 107817, Note_on_c, 0, 58, 58
1, 107821, Control_c, 0, 64, 29
1, 107823, Note_on_c, 0, 73, 73
1, 107824, Note_on_c, 0, 67, 63
1, 107835, Control_c, 0, 64, 36
1, 107845, Note_on_c, 0, 62, 33
1, 107850, Control_c, 0, 64, 48
1, 107865, Control_c, 0, 64, 58
1, 107868, Note_off_c, 0, 58, 60
1, 107880, Control_c, 0, 64, 67
1, 107881, Note_off_c, 0, 62, 32
1, 107892, Note_off_c, 0, 64, 58
1, 107895, Control_c, 0, 64, 74
1, 107910, Control_c, 0, 64, 83
1, 107925, Control_c, 0, 64, 90
1, 107928, Note_on_c, 0, 79, 69
1, 107934, Note_off_c, 0, 55, 62
1, 107937, Note_on_c, 0, 76, 66
1, 107940, Control_c, 0, 64, 94
1, 107952, Note_off_c, 0, 73, 55
1, 107954, Control_c, 0, 64, 94
1, 107965, Note_off_c, 0, 76, 67
1, 107969, Note_off_c, 0, 67, 29
1, 107970, Note_off_c, 0, 79, 66
1, 107984, Control_c, 0, 64, 94
1, 107999, Control_c, 0, 64, 90
1, 108014, Control_c, 0, 64, 79
1, 108029, Control_c, 0, 64, 66
1, 108043, Control_c, 0, 64, 54
1, 108058, Control_c, 0, 64, 40
1, 108060, Note_on_c, 0, 75, 56
1, 108062, Note_on_c, 0, 59, 54
1, 108062, Note_on_c, 0, 62, 70
1, 108070, Note_on_c, 0, 56, 60
1, 108073, Note_on_c, 0, 78, 63
1, 108073, Control_c, 0, 64, 33
1, 108084, Note_off_c, 0, 75, 58
1, 108087, Note_on_c, 0, 74, 63
1, 108088, Control_c, 0, 64, 40
1, 108103, Control_c, 0, 64, 51
1, 108117, Control_c, 0, 64, 61
1, 108132, Control_c, 0, 64, 68
1, 108135, Note_off_c, 0, 62, 61
1, 108139, Note_off_c, 0, 78, 49
1, 108145, Note_off_c, 0, 59, 61
1, 108147, Control_c, 0, 64, 76
1, 108157, Note_off_c, 0, 56, 63
1, 108162, Control_c, 0, 64, 85
1, 108177, Control_c, 0, 64, 92
1, 108191, Note_on_c, 0, 71, 59
1, 108191, Control_c, 0, 64, 95
1, 108194, Note_on_c, 0, 66, 54
1, 108206, Control_c, 0, 64, 96
1, 108216, Note_off_c, 0, 66, 62
1, 108216, Note_off_c, 0, 71, 62
1, 108222, Note_off_c, 0, 74, 36
1, 108265, Control_c, 0, 64, 95
1, 108280, Control_c, 0, 64, 86
1, 108295, Control_c, 0, 64, 72
1, 108309, Control_c, 0, 64, 58
1, 108324, Control_c, 0, 64, 29
1, 108347, Control_c, 0, 64, 0
1, 108354, Note_on_c, 0, 57, 76
1, 108357, Note_on_c, 0, 69, 71
1, 108360, Note_on_c, 0, 64, 64
1, 108406, Control_c, 0, 64, 34
1, 108421, Control_c, 0, 64, 51
1, 108422, Note_off_c, 0, 57, 63
1, 108433, Note_on_c, 0, 59, 62
1, 108436, Control_c, 0, 64, 62
1, 108450, Control_c, 0, 64, 68
1, 108465, Control_c, 0, 64, 72
1, 108480, Control_c, 0, 64, 75
1, 108484, Note_off_c, 0, 59, 59
1, 108495, Control_c, 0, 64, 76
1, 108496, Note_on_c, 0, 57, 62
1, 108498, Note_off_c, 0, 64, 52
1, 108504, Note_on_c, 0, 73, 60
1, 108509, Note_off_c, 0, 69, 60
1, 108510, Note_on_c, 0, 76, 57
1, 108510, Control_c, 0, 64, 76
1, 108546, Note_off_c, 0, 76, 65
1, 108548, Note_off_c, 0, 73, 58
1, 108551, Note_off_c, 0, 57, 63
1, 108570, Note_on_c, 0, 59, 61
1, 108607, Note_off_c, 0, 59, 61
1, 108625, Note_on_c, 0, 57, 57
1, 108652, Note_on_c, 0, 78, 71
1, 108652, Note_on_c, 0, 81, 71
1, 108674, Note_off_c, 0, 57, 65
1, 108685, Note_on_c, 0, 59, 58
1, 108719, Note_off_c, 0, 59, 63
1, 108747, Note_on_c, 0, 57, 62
1, 108748, Note_off_c, 0, 81, 52
1, 108770, Note_on_c, 0, 74, 71
1, 108774, Note_off_c, 0, 78, 40
1, 108777, Note_on_c, 0, 69, 61
1, 108777, Control_c, 0, 64, 77
1, 108795, Note_off_c, 0, 57, 62
1, 108816, Note_on_c, 0, 59, 68
1, 108817, Note_off_c, 0, 74, 61
1, 108819, Note_off_c, 0, 69, 62
1, 108845, Note_off_c, 0, 59, 63
1, 108852, Control_c, 0, 64, 76
1, 108866, Control_c, 0, 64, 73
1, 108872, Note_on_c, 0, 58, 66
1, 108881, Control_c, 0, 64, 66
1, 108896, Control_c, 0, 64, 59
1, 108904, Note_on_c, 0, 73, 74
1, 108908, Note_on_c, 0, 67, 66
1, 108911, Control_c, 0, 64, 52
1, 108920, Note_off_c, 0, 58, 63
1, 108926, Control_c, 0, 64, 51
1, 108926, Note_on_c, 0, 59, 69
1, 108940, Control_c, 0, 64, 53
1, 108955, Control_c, 0, 64, 58
1, 108964, Note_off_c, 0, 59, 59
1, 108969, Control_c, 0, 64, 63
1, 108974, Note_on_c, 0, 58, 57
1, 108983, Control_c, 0, 64, 66
1, 108998, Control_c, 0, 64, 69
1, 109013, Control_c, 0, 64, 72
1, 109020, Note_on_c, 0, 79, 69
1, 109027, Note_off_c, 0, 58, 65
1, 109028, Control_c, 0, 64, 74
1, 109029, Note_on_c, 0, 76, 66
1, 109032, Note_on_c, 0, 57, 62
1, 109043, Control_c, 0, 64, 75
1, 109057, Note_off_c, 0, 76, 66
1, 109057, Control_c, 0, 64, 76
1, 109061, Note_off_c, 0, 79, 64
1, 109063, Note_off_c, 0, 73, 25
1, 109065, Note_off_c, 0, 67, 23
1, 109102, Note_on_c, 0, 58, 60
1, 109110, Control_c, 0, 64, 75
1, 109125, Control_c, 0, 64, 72
1, 109128, Note_off_c, 0, 57, 58
1, 109139, Control_c, 0, 64, 66
1, 109149, Note_on_c, 0, 59, 72
1, 109154, Control_c, 0, 64, 56
1, 109162, Note_off_c, 0, 58, 63
1, 109169, Control_c, 0, 64, 40
1, 109170, Note_on_c, 0, 78, 61
1, 109175, Note_on_c, 0, 75, 55
1, 109183, Control_c, 0, 64, 0
1, 109213, Control_c, 0, 64, 29
1, 109228, Control_c, 0, 64, 43
1, 109243, Control_c, 0, 64, 56
1, 109256, Note_off_c, 0, 75, 51
1, 109257, Control_c, 0, 64, 65
1, 109272, Note_off_c, 0, 59, 62
1, 109272, Control_c, 0, 64, 73
1, 109287, Control_c, 0, 64, 81
1, 109295, Note_off_c, 0, 78, 36
1, 109296, Note_on_c, 0, 71, 63
1, 109298, Note_on_c, 0, 66, 54
1, 109302, Control_c, 0, 64, 84
1, 109318, Control_c, 0, 64, 86
1, 109333, Note_off_c, 0, 66, 50
1, 109335, Note_off_c, 0, 71, 64
1, 109362, Control_c, 0, 64, 83
1, 109377, Control_c, 0, 64, 73
1, 109392, Control_c, 0, 64, 63
1, 109406, Control_c, 0, 64, 50
1, 109418, Note_on_c, 0, 64, 66
1, 109421, Control_c, 0, 64, 31
1, 109427, Note_on_c, 0, 61, 62
1, 109428, Note_on_c, 0, 58, 60
1, 109433, Note_on_c, 0, 67, 62
1, 109436, Control_c, 0, 64, 0
1, 109442, Note_on_c, 0, 73, 65
1, 109481, Control_c, 0, 64, 43
1, 109496, Control_c, 0, 64, 55
1, 109507, Note_off_c, 0, 64, 62
1, 109510, Control_c, 0, 64, 63
1, 109522, Note_off_c, 0, 67, 36
1, 109525, Control_c, 0, 64, 69
1, 109534, Note_off_c, 0, 61, 61
1, 109540, Control_c, 0, 64, 75
1, 109555, Note_off_c, 0, 58, 61
1, 109555, Note_on_c, 0, 79, 71
1, 109555, Control_c, 0, 64, 80
1, 109562, Note_on_c, 0, 76, 67
1, 109570, Control_c, 0, 64, 83
1, 109571, Note_off_c, 0, 73, 45
1, 109585, Control_c, 0, 64, 85
1, 109588, Note_off_c, 0, 76, 66
1, 109612, Note_off_c, 0, 79, 64
1, 109629, Control_c, 0, 64, 82
1, 109644, Control_c, 0, 64, 74
1, 109659, Control_c, 0, 64, 64
1, 109674, Control_c, 0, 64, 50
1, 109684, Note_on_c, 0, 63, 73
1, 109685, Note_on_c, 0, 57, 65
1, 109688, Control_c, 0, 64, 37
1, 109689, Note_on_c, 0, 59, 59
1, 109689, Note_on_c, 0, 78, 74
1, 109697, Note_on_c, 0, 81, 65
1, 109703, Control_c, 0, 64, 32
1, 109719, Control_c, 0, 64, 36
1, 109734, Control_c, 0, 64, 46
1, 109749, Control_c, 0, 64, 56
1, 109763, Control_c, 0, 64, 63
1, 109768, Note_off_c, 0, 81, 49
1, 109778, Control_c, 0, 64, 70
1, 109793, Control_c, 0, 64, 76
1, 109807, Control_c, 0, 64, 81
1, 109814, Note_on_c, 0, 75, 73
1, 109820, Note_on_c, 0, 69, 67
1, 109822, Control_c, 0, 64, 84
1, 109834, Note_off_c, 0, 57, 56
1, 109844, Note_off_c, 0, 78, 48
1, 109844, Control_c, 0, 64, 85
1, 109860, Note_off_c, 0, 59, 37
1, 109861, Note_off_c, 0, 63, 58
1, 109868, Note_off_c, 0, 69, 56
1, 109874, Control_c, 0, 64, 84
1, 109876, Note_off_c, 0, 75, 63
1, 109889, Control_c, 0, 64, 78
1, 109904, Control_c, 0, 64, 67
1, 109919, Control_c, 0, 64, 56
1, 109934, Control_c, 0, 64, 38
1, 109947, Note_on_c, 0, 64, 74
1, 109949, Control_c, 0, 64, 0
1, 109955, Note_on_c, 0, 55, 67
1, 109956, Note_on_c, 0, 76, 80
1, 109958, Note_on_c, 0, 71, 69
1, 109960, Note_on_c, 0, 59, 68
1, 109978, Control_c, 0, 64, 31
1, 109993, Control_c, 0, 64, 43
1, 110007, Control_c, 0, 64, 54
1, 110013, Note_off_c, 0, 71, 54
1, 110020, Note_off_c, 0, 76, 60
1, 110022, Control_c, 0, 64, 62
1, 110028, Note_off_c, 0, 55, 61
1, 110031, Note_off_c, 0, 59, 62
1, 110037, Control_c, 0, 64, 67
1, 110041, Note_off_c, 0, 64, 61
1, 110052, Control_c, 0, 64, 72
1, 110067, Control_c, 0, 64, 76
1, 110075, Note_on_c, 0, 79, 80
1, 110075, Note_on_c, 0, 83, 76
1, 110081, Control_c, 0, 64, 80
1, 110096, Control_c, 0, 64, 81
1, 110121, Note_off_c, 0, 79, 65
1, 110124, Note_off_c, 0, 83, 63
1, 110142, Control_c, 0, 64, 80
1, 110157, Control_c, 0, 64, 75
1, 110172, Control_c, 0, 64, 67
1, 110186, Control_c, 0, 64, 58
1, 110195, Note_on_c, 0, 58, 49
1, 110201, Control_c, 0, 64, 50
1, 110203, Note_on_c, 0, 66, 81
1, 110204, Note_on_c, 0, 54, 77
1, 110205, Note_on_c, 0, 85, 77
1, 110213, Note_on_c, 0, 82, 74
1, 110216, Control_c, 0, 64, 48
1, 110230, Control_c, 0, 64, 50
1, 110245, Control_c, 0, 64, 55
1, 110260, Control_c, 0, 64, 60
1, 110275, Control_c, 0, 64, 64
1, 110290, Control_c, 0, 64, 68
1, 110300, Note_off_c, 0, 58, 63
1, 110304, Control_c, 0, 64, 73
1, 110319, Control_c, 0, 64, 78
1, 110332, Note_on_c, 0, 78, 77
1, 110334, Control_c, 0, 64, 83
1, 110335, Note_off_c, 0, 82, 46
1, 110337, Note_on_c, 0, 73, 72
1, 110341, Note_off_c, 0, 85, 53
1, 110342, Note_off_c, 0, 66, 55
1, 110345, Note_off_c, 0, 54, 62
1, 110349, Control_c, 0, 64, 85
1, 110372, Note_off_c, 0, 73, 61
1, 110381, Note_off_c, 0, 78, 61
1, 110393, Control_c, 0, 64, 83
1, 110408, Control_c, 0, 64, 76
1, 110423, Control_c, 0, 64, 66
1, 110438, Control_c, 0, 64, 55
1, 110451, Note_on_c, 0, 65, 82
1, 110452, Note_on_c, 0, 53, 75
1, 110452, Control_c, 0, 64, 43
1, 110455, Note_on_c, 0, 57, 75
1, 110464, Note_on_c, 0, 75, 66
1, 110467, Control_c, 0, 64, 38
1, 110469, Note_on_c, 0, 81, 80
1, 110482, Control_c, 0, 64, 43
1, 110497, Control_c, 0, 64, 51
1, 110512, Control_c, 0, 64, 58
1, 110523, Note_off_c, 0, 53, 63
1, 110523, Note_off_c, 0, 57, 64
1, 110527, Control_c, 0, 64, 63
1, 110533, Note_off_c, 0, 75, 49
1, 110540, Note_off_c, 0, 65, 54
1, 110542, Control_c, 0, 64, 68
1, 110546, Note_off_c, 0, 81, 52
1, 110557, Control_c, 0, 64, 74
1, 110572, Control_c, 0, 64, 80
1, 110584, Note_on_c, 0, 83, 75
1, 110588, Note_on_c, 0, 87, 77
1, 110593, Control_c, 0, 64, 82
1, 110608, Control_c, 0, 64, 83
1, 110638, Note_off_c, 0, 83, 62
1, 110643, Note_off_c, 0, 87, 62
1, 110652, Control_c, 0, 64, 81
1, 110667, Control_c, 0, 64, 74
1, 110682, Control_c, 0, 64, 64
1, 110697, Control_c, 0, 64, 54
1, 110705, Note_on_c, 0, 64, 84
1, 110706, Note_on_c, 0, 83, 81
1, 110706, Note_on_c, 0, 52, 81
1, 110712, Control_c, 0, 64, 45
1, 110715, Note_on_c, 0, 88, 81
1, 110725, Note_on_c, 0, 57, 65
1, 110727, Control_c, 0, 64, 44
1, 110742, Control_c, 0, 64, 50
1, 110756, Control_c, 0, 64, 57
1, 110771, Control_c, 0, 64, 63
1, 110783, Note_off_c, 0, 88, 57
1, 110786, Control_c, 0, 64, 68
1, 110786, Note_off_c, 0, 57, 63
1, 110791, Note_off_c, 0, 64, 55
1, 110801, Control_c, 0, 64, 73
1, 110816, Control_c, 0, 64, 79
1, 110825, Note_off_c, 0, 52, 61
1, 110830, Control_c, 0, 64, 83
1, 110831, Note_on_c, 0, 80, 81
1, 110834, Note_on_c, 0, 76, 78
1, 110845, Control_c, 0, 64, 86
1, 110855, Note_off_c, 0, 83, 52
1, 110860, Control_c, 0, 64, 87
1, 110890, Control_c, 0, 64, 86
1, 110894, Note_on_c, 0, 56, 18
1, 110894, Note_off_c, 0, 80, 61
1, 110898, Note_off_c, 0, 76, 57
1, 110906, Control_c, 0, 64, 82
1, 110920, Control_c, 0, 64, 74
1, 110933, Note_off_c, 0, 56, 49
1, 110935, Control_c, 0, 64, 65
1, 110950, Control_c, 0, 64, 59
1, 110954, Note_on_c, 0, 50, 83
1, 110960, Note_on_c, 0, 62, 79
1, 110965, Note_on_c, 0, 79, 82
1, 110965, Control_c, 0, 64, 56
1, 110968, Note_on_c, 0, 76, 74
1, 110980, Control_c, 0, 64, 58
1, 110995, Control_c, 0, 64, 62
1, 111009, Control_c, 0, 64, 66
1, 111022, Note_off_c, 0, 62, 64
1, 111024, Control_c, 0, 64, 70
1, 111028, Note_on_c, 0, 51, 40
1, 111036, Note_off_c, 0, 50, 61
1, 111039, Control_c, 0, 64, 75
1, 111053, Control_c, 0, 64, 80
1, 111064, Note_off_c, 0, 51, 56
1, 111068, Control_c, 0, 64, 84
1, 111078, Note_on_c, 0, 83, 85
1, 111083, Control_c, 0, 64, 87
1, 111086, Note_on_c, 0, 88, 86
1, 111098, Control_c, 0, 64, 88
1, 111102, Note_off_c, 0, 79, 60
1, 111134, Note_off_c, 0, 76, 59
1, 111135, Note_off_c, 0, 83, 64
1, 111141, Note_off_c, 0, 88, 63
1, 111142, Control_c, 0, 64, 86
1, 111157, Control_c, 0, 64, 77
1, 111172, Control_c, 0, 64, 65
1, 111186, Control_c, 0, 64, 58
1, 111198, Note_on_c, 0, 61, 81
1, 111201, Control_c, 0, 64, 55
1, 111205, Note_on_c, 0, 49, 76
1, 111205, Note_on_c, 0, 88, 73
1, 111210, Note_on_c, 0, 85, 79
1, 111216, Control_c, 0, 64, 57
1, 111231, Control_c, 0, 64, 61
1, 111238, Note_on_c, 0, 86, 36
1, 111245, Control_c, 0, 64, 64
1, 111260, Control_c, 0, 64, 69
1, 111272, Note_off_c, 0, 86, 34
1, 111275, Control_c, 0, 64, 74
1, 111290, Control_c, 0, 64, 79
1, 111296, Note_off_c, 0, 49, 58
1, 111305, Control_c, 0, 64, 83
1, 111314, Note_off_c, 0, 61, 61
1, 111317, Note_off_c, 0, 88, 59
1, 111320, Control_c, 0, 64, 87
1, 111334, Note_on_c, 0, 76, 83
1, 111335, Note_on_c, 0, 81, 86
1, 111342, Control_c, 0, 64, 90
1, 111357, Control_c, 0, 64, 90
1, 111365, Note_off_c, 0, 85, 45
1, 111379, Note_off_c, 0, 76, 64
1, 111397, Note_off_c, 0, 81, 63
1, 111401, Control_c, 0, 64, 85
1, 111416, Control_c, 0, 64, 74
1, 111431, Control_c, 0, 64, 64
1, 111446, Control_c, 0, 64, 56
1, 111453, Note_on_c, 0, 59, 65
1, 111455, Note_on_c, 0, 50, 68
1, 111460, Note_on_c, 0, 47, 72
1, 111462, Note_on_c, 0, 48, 51
1, 111463, Note_on_c, 0, 81, 85
1, 111464, Note_on_c, 0, 78, 84
1, 111475, Control_c, 0, 64, 62
1, 111478, Note_off_c, 0, 59, 67
1, 111488, Note_off_c, 0, 50, 65
1, 111490, Note_off_c, 0, 47, 67
1, 111490, Control_c, 0, 64, 68
1, 111493, Note_off_c, 0, 48, 64
1, 111505, Control_c, 0, 64, 75
1, 111520, Control_c, 0, 64, 88
1, 111534, Control_c, 0, 64, 111
1, 111537, Note_off_c, 0, 78, 56
1, 111549, Control_c, 0, 64, 127
1, 111582, Note_on_c, 0, 86, 85
1, 111584, Note_on_c, 0, 90, 80
1, 111606, Note_off_c, 0, 81, 61
1, 111645, Note_off_c, 0, 86, 62
1, 111651, Note_off_c, 0, 90, 61
1, 111698, Control_c, 0, 64, 113
1, 111713, Control_c, 0, 64, 78
1, 111728, Control_c, 0, 64, 57
1, 111734, Note_on_c, 0, 33, 96
1, 111743, Control_c, 0, 64, 0
1, 111747, Note_on_c, 0, 91, 91
1, 111751, Note_on_c, 0, 88, 87
1, 111847, Control_c, 0, 64, 43
1, 111862, Control_c, 0, 64, 60
1, 111876, Control_c, 0, 64, 66
1, 111891, Control_c, 0, 64, 71
1, 111905, Note_on_c, 0, 40, 70
1, 111906, Control_c, 0, 64, 77
1, 111916, Note_on_c, 0, 85, 87
1, 111920, Note_on_c, 0, 79, 85
1, 111921, Control_c, 0, 64, 83
1, 111934, Note_off_c, 0, 88, 65
1, 111935, Note_off_c, 0, 91, 42
1, 111936, Control_c, 0, 64, 91
1, 111950, Control_c, 0, 64, 103
1, 111958, Note_off_c, 0, 79, 60
1, 111960, Note_off_c, 0, 33, 59
1, 111965, Control_c, 0, 64, 127
1, 111978, Note_off_c, 0, 85, 65
1, 112024, Note_off_c, 0, 40, 61
1, 112036, Note_on_c, 0, 45, 70
1, 112054, Note_on_c, 0, 80, 94
1, 112059, Note_on_c, 0, 85, 85
1, 112062, Note_off_c, 0, 45, 66
1, 112139, Note_off_c, 0, 85, 62
1, 112145, Note_off_c, 0, 80, 57
1, 112174, Note_on_c, 0, 52, 76
1, 112179, Note_on_c, 0, 88, 84
1, 112185, Note_on_c, 0, 92, 85
1, 112242, Note_off_c, 0, 88, 62
1, 112255, Note_off_c, 0, 92, 64
1, 112312, Note_on_c, 0, 61, 73
1, 112312, Note_on_c, 0, 64, 71
1, 112314, Note_on_c, 0, 88, 85
1, 112315, Note_on_c, 0, 93, 85
1, 112315, Note_off_c, 0, 52, 59
1, 112318, Note_on_c, 0, 57, 71
1, 112345, Note_off_c, 0, 57, 66
1, 112354, Note_off_c, 0, 61, 58
1, 112354, Note_off_c, 0, 64, 61
1, 112408, Note_off_c, 0, 93, 51
1, 112448, Note_on_c, 0, 85, 81
1, 112451, Note_off_c, 0, 88, 58
1, 112453, Note_on_c, 0, 81, 76
1, 112502, Note_off_c, 0, 81, 58
1, 112508, Note_off_c, 0, 85, 63
1, 112625, Control_c, 0, 64, 89
1, 112629, Note_on_c, 0, 77, 77
1, 112632, Note_on_c, 0, 68, 81
1, 112633, Note_on_c, 0, 86, 80
1, 112636, Note_on_c, 0, 83, 72
1, 112639, Note_on_c, 0, 74, 66
1, 112640, Control_c, 0, 64, 72
1, 112655, Control_c, 0, 64, 62
1, 112670, Control_c, 0, 64, 53
1, 112685, Control_c, 0, 64, 54
1, 112699, Control_c, 0, 64, 58
1, 112715, Control_c, 0, 64, 63
1, 112730, Control_c, 0, 64, 68
1, 112745, Control_c, 0, 64, 74
1, 112759, Control_c, 0, 64, 85
1, 112760, Note_off_c, 0, 86, 49
1, 112774, Control_c, 0, 64, 99
1, 112784, Note_off_c, 0, 74, 61
1, 112789, Control_c, 0, 64, 127
1, 112798, Note_on_c, 0, 95, 76
1, 112802, Note_on_c, 0, 89, 70
1, 112839, Note_off_c, 0, 77, 61
1, 112858, Note_off_c, 0, 89, 60
1, 112859, Note_off_c, 0, 83, 54
1, 112861, Note_off_c, 0, 68, 60
1, 112866, Note_off_c, 0, 95, 65
1, 112944, Control_c, 0, 64, 96
1, 112945, Note_on_c, 0, 93, 85
1, 112948, Note_on_c, 0, 73, 78
1, 112948, Note_on_c, 0, 88, 83
1, 112949, Note_on_c, 0, 67, 83
1, 112951, Note_on_c, 0, 76, 71
1, 112959, Control_c, 0, 64, 80
1, 112974, Control_c, 0, 64, 71
1, 112989, Control_c, 0, 64, 70
1, 113004, Control_c, 0, 64, 71
1, 113019, Control_c, 0, 64, 73
1, 113033, Control_c, 0, 64, 79
1, 113048, Control_c, 0, 64, 91
1, 113060, Note_off_c, 0, 93, 61
1, 113063, Control_c, 0, 64, 127
1, 113072, Note_on_c, 0, 85, 87
1, 113075, Note_on_c, 0, 81, 81
1, 113085, Note_off_c, 0, 76, 62
1, 113088, Note_off_c, 0, 67, 61
1, 113090, Note_off_c, 0, 73, 61
1, 113091, Note_off_c, 0, 88, 58
1, 113128, Note_off_c, 0, 81, 62
1, 113135, Note_off_c, 0, 85, 64
1, 113181, Control_c, 0, 64, 118
1, 113196, Control_c, 0, 64, 84
1, 113199, Note_on_c, 0, 74, 86
1, 113200, Note_on_c, 0, 69, 70
1, 113201, Note_on_c, 0, 66, 80
1, 113201, Note_on_c, 0, 86, 88
1, 113203, Note_on_c, 0, 83, 84
1, 113211, Control_c, 0, 64, 71
1, 113225, Control_c, 0, 64, 64
1, 113240, Control_c, 0, 64, 62
1, 113255, Control_c, 0, 64, 65
1, 113270, Control_c, 0, 64, 72
1, 113281, Note_off_c, 0, 69, 62
1, 113282, Note_off_c, 0, 74, 56
1, 113285, Control_c, 0, 64, 81
1, 113299, Note_off_c, 0, 66, 62
1, 113301, Control_c, 0, 64, 96
1, 113316, Control_c, 0, 64, 127
1, 113320, Note_on_c, 0, 95, 87
1, 113323, Note_on_c, 0, 90, 89
1, 113336, Note_off_c, 0, 83, 52
1, 113339, Note_off_c, 0, 86, 58
1, 113394, Note_off_c, 0, 95, 63
1, 113403, Note_off_c, 0, 90, 63
1, 113434, Control_c, 0, 64, 115
1, 113448, Control_c, 0, 64, 82
1, 113453, Note_on_c, 0, 91, 81
1, 113454, Note_on_c, 0, 64, 73
1, 113454, Note_on_c, 0, 73, 93
1, 113458, Note_on_c, 0, 97, 83
1, 113460, Note_on_c, 0, 67, 76
1, 113463, Control_c, 0, 64, 66
1, 113478, Control_c, 0, 64, 62
1, 113493, Control_c, 0, 64, 64
1, 113508, Control_c, 0, 64, 69
1, 113522, Control_c, 0, 64, 80
1, 113537, Note_off_c, 0, 64, 63
1, 113537, Control_c, 0, 64, 103
1, 113549, Note_off_c, 0, 67, 61
1, 113550, Note_off_c, 0, 97, 61
1, 113552, Control_c, 0, 64, 127
1, 113564, Note_off_c, 0, 73, 55
1, 113587, Note_on_c, 0, 88, 87
1, 113589, Note_on_c, 0, 85, 82
1, 113611, Note_off_c, 0, 91, 46
1, 113643, Note_off_c, 0, 88, 65
1, 113648, Note_off_c, 0, 85, 63
1, 113708, Control_c, 0, 64, 81
1, 113720, Note_on_c, 0, 62, 81
1, 113720, Note_on_c, 0, 71, 89
1, 113722, Note_on_c, 0, 66, 72
1, 113722, Control_c, 0, 64, 64
1, 113730, Note_on_c, 0, 90, 95
1, 113732, Note_on_c, 0, 86, 85
1, 113737, Control_c, 0, 64, 54
1, 113752, Control_c, 0, 64, 53
1, 113767, Control_c, 0, 64, 60
1, 113781, Control_c, 0, 64, 66
1, 113796, Control_c, 0, 64, 74
1, 113803, Note_off_c, 0, 62, 61
1, 113811, Control_c, 0, 64, 87
1, 113820, Note_off_c, 0, 66, 61
1, 113826, Control_c, 0, 64, 127
1, 113852, Note_on_c, 0, 93, 92
1, 113852, Note_on_c, 0, 98, 95
1, 113862, Note_off_c, 0, 71, 55
1, 113871, Note_off_c, 0, 90, 58
1, 113882, Note_off_c, 0, 86, 30
1, 113899, Note_off_c, 0, 93, 66
1, 113914, Note_off_c, 0, 98, 65
1, 113959, Control_c, 0, 64, 114
1, 113973, Control_c, 0, 64, 74
1, 113985, Note_on_c, 0, 61, 83
1, 113986, Note_on_c, 0, 64, 75
1, 113988, Note_on_c, 0, 69, 91
1, 113988, Control_c, 0, 64, 53
1, 113991, Note_on_c, 0, 100, 100
1, 113991, Note_on_c, 0, 95, 92
1, 114003, Control_c, 0, 64, 0
1, 114047, Control_c, 0, 64, 35
1, 114062, Control_c, 0, 64, 58
1, 114077, Control_c, 0, 64, 70
1, 114092, Control_c, 0, 64, 87
1, 114108, Control_c, 0, 64, 127
1, 114119, Note_off_c, 0, 95, 57
1, 114122, Note_off_c, 0, 100, 62
1, 114127, Note_on_c, 0, 88, 95
1, 114128, Note_on_c, 0, 91, 91
1, 114148, Note_off_c, 0, 69, 57
1, 114153, Note_off_c, 0, 61, 59
1, 114161, Note_off_c, 0, 64, 59
1, 114184, Note_off_c, 0, 88, 63
1, 114196, Note_off_c, 0, 91, 64
1, 114241, Control_c, 0, 64, 115
1, 114256, Control_c, 0, 64, 76
1, 114257, Note_on_c, 0, 62, 84
1, 114259, Note_on_c, 0, 67, 93
1, 114267, Note_on_c, 0, 59, 77
1, 114270, Control_c, 0, 64, 63
1, 114271, Note_on_c, 0, 90, 88
1, 114277, Note_on_c, 0, 93, 89
1, 114285, Control_c, 0, 64, 55
1, 114300, Control_c, 0, 64, 58
1, 114315, Control_c, 0, 64, 65
1, 114337, Control_c, 0, 64, 76
1, 114351, Note_off_c, 0, 90, 58
1, 114351, Control_c, 0, 64, 97
1, 114366, Control_c, 0, 64, 127
1, 114399, Note_on_c, 0, 66, 88
1, 114408, Note_on_c, 0, 98, 90
1, 114411, Note_on_c, 0, 102, 84
1, 114424, Note_off_c, 0, 93, 58
1, 114426, Note_off_c, 0, 67, 43
1, 114435, Note_off_c, 0, 62, 59
1, 114454, Note_off_c, 0, 59, 61
1, 114474, Note_off_c, 0, 98, 64
1, 114480, Note_off_c, 0, 66, 65
1, 114485, Note_off_c, 0, 102, 62
1, 114544, Control_c, 0, 64, 79
1, 114558, Note_on_c, 0, 64, 81
1, 114559, Control_c, 0, 64, 51
1, 114562, Note_on_c, 0, 57, 84
1, 114565, Note_on_c, 0, 103, 102
1, 114566, Note_on_c, 0, 61, 76
1, 114566, Note_on_c, 0, 100, 97
1, 114574, Control_c, 0, 64, 0
1, 114618, Control_c, 0, 64, 34
1, 114633, Control_c, 0, 64, 55
1, 114648, Control_c, 0, 64, 66
1, 114661, Note_off_c, 0, 57, 64
1, 114663, Control_c, 0, 64, 81
1, 114677, Control_c, 0, 64, 101
1, 114692, Control_c, 0, 64, 127
1, 114705, Note_off_c, 0, 64, 58
1, 114709, Note_off_c, 0, 61, 56
1, 114723, Note_on_c, 0, 91, 89
1, 114727, Note_on_c, 0, 97, 88
1, 114754, Note_off_c, 0, 103, 63
1, 114756, Note_off_c, 0, 100, 67
1, 114763, Note_on_c, 0, 56, 75
1, 114778, Note_on_c, 0, 62, 60
1, 114794, Note_off_c, 0, 91, 62
1, 114822, Note_off_c, 0, 97, 65
1, 114824, Note_on_c, 0, 65, 70
1, 114885, Control_c, 0, 64, 81
1, 114889, Note_on_c, 0, 71, 95
1, 114900, Note_on_c, 0, 98, 86
1, 114900, Control_c, 0, 64, 40
1, 114906, Note_on_c, 0, 92, 99
1, 114915, Control_c, 0, 64, 0
1, 114945, Control_c, 0, 64, 45
1, 114960, Control_c, 0, 64, 83
1, 114975, Control_c, 0, 64, 127
1, 115007, Note_off_c, 0, 71, 57
1, 115013, Note_off_c, 0, 62, 60
1, 115025, Note_off_c, 0, 56, 57
1, 115041, Note_off_c, 0, 92, 56
1, 115054, Note_off_c, 0, 65, 60
1, 115091, Note_on_c, 0, 104, 87
1, 115094, Note_on_c, 0, 101, 81
1, 115111, Note_off_c, 0, 98, 63
1, 115122, Note_on_c, 0, 55, 78
1, 115164, Note_off_c, 0, 101, 61
1, 115175, Note_on_c, 0, 61, 75
1, 115180, Note_off_c, 0, 104, 64
1, 115210, Note_on_c, 0, 66, 81
1, 115219, Note_on_c, 0, 93, 76
1, 115238, Note_on_c, 0, 97, 80
1, 115264, Control_c, 0, 64, 77
1, 115279, Control_c, 0, 64, 49
1, 115294, Control_c, 0, 64, 0
1, 115296, Note_on_c, 0, 69, 104
1, 115300, Note_on_c, 0, 102, 103
1, 115300, Note_on_c, 0, 105, 106
1, 115329, Note_off_c, 0, 93, 68
1, 115333, Note_off_c, 0, 61, 63
1, 115337, Note_off_c, 0, 66, 63
1, 115338, Control_c, 0, 64, 81
1, 115339, Note_off_c, 0, 97, 66
1, 115344, Note_off_c, 0, 69, 67
1, 115353, Control_c, 0, 64, 127
1, 115357, Note_off_c, 0, 102, 66
1, 115359, Note_off_c, 0, 55, 64
1, 115359, Note_off_c, 0, 105, 67
1, 115772, Note_on_c, 0, 64, 91
1, 115773, Note_on_c, 0, 45, 67
1, 115834, Note_off_c, 0, 64, 63
1, 115840, Note_off_c, 0, 45, 62
1, 116261, Note_on_c, 0, 38, 91
1, 116264, Note_on_c, 0, 62, 92
1, 116264, Note_on_c, 0, 66, 87
1, 116267, Note_on_c, 0, 74, 90
1, 116271, Note_on_c, 0, 45, 81
1, 116279, Control_c, 0, 64, 99
1, 116293, Control_c, 0, 64, 70
1, 116308, Control_c, 0, 64, 49
1, 116323, Control_c, 0, 64, 0
1, 116397, Control_c, 0, 64, 35
1, 116412, Control_c, 0, 64, 55
1, 116427, Control_c, 0, 64, 67
1, 116441, Control_c, 0, 64, 80
1, 116456, Control_c, 0, 64, 127
1, 116486, Note_off_c, 0, 45, 60
1, 116501, Note_off_c, 0, 38, 59
1, 116504, Note_on_c, 0, 50, 80
1, 116587, Note_off_c, 0, 50, 61
1, 116668, Note_on_c, 0, 54, 81
1, 116681, Note_off_c, 0, 74, 44
1, 116701, Note_off_c, 0, 62, 52
1, 116763, Note_off_c, 0, 66, 54
1, 116802, Note_on_c, 0, 57, 88
1, 116809, Note_off_c, 0, 54, 60
1, 116872, Note_off_c, 0, 57, 61
1, 116954, Control_c, 0, 64, 104
1, 116969, Control_c, 0, 64, 68
1, 116969, Note_on_c, 0, 62, 91
1, 116972, Note_on_c, 0, 59, 80
1, 116972, Note_on_c, 0, 66, 85
1, 116972, Note_on_c, 0, 74, 91
1, 116972, Note_on_c, 0, 47, 79
1, 116981, Note_on_c, 0, 50, 71
1, 116981, Note_on_c, 0, 54, 74
1, 116984, Control_c, 0, 64, 0
1, 117037, Note_off_c, 0, 59, 61
1, 117043, Control_c, 0, 64, 31
1, 117058, Control_c, 0, 64, 55
1, 117072, Control_c, 0, 64, 66
1, 117076, Note_off_c, 0, 47, 64
1, 117076, Note_off_c, 0, 54, 61
1, 117080, Note_off_c, 0, 50, 62
1, 117087, Control_c, 0, 64, 77
1, 117102, Control_c, 0, 64, 98
1, 117116, Control_c, 0, 64, 127
1, 117163, Note_off_c, 0, 74, 56
1, 117212, Note_off_c, 0, 62, 60
1, 117285, Note_on_c, 0, 64, 87
1, 117310, Note_off_c, 0, 66, 58
1, 117333, Note_off_c, 0, 64, 65
1, 117569, Control_c, 0, 64, 92
1, 117583, Note_on_c, 0, 78, 94
1, 117584, Control_c, 0, 64, 67
1, 117586, Note_on_c, 0, 30, 78
1, 117586, Note_on_c, 0, 66, 88
1, 117589, Note_on_c, 0, 69, 79
1, 117592, Note_on_c, 0, 74, 81
1, 117592, Note_on_c, 0, 38, 72
1, 117599, Control_c, 0, 64, 45
1, 117614, Control_c, 0, 64, 0
1, 117658, Control_c, 0, 64, 40
1, 117672, Control_c, 0, 64, 56
1, 117681, Note_off_c, 0, 30, 62
1, 117687, Control_c, 0, 64, 65
1, 117702, Control_c, 0, 64, 72
1, 117711, Note_off_c, 0, 38, 60
1, 117717, Control_c, 0, 64, 79
1, 117732, Control_c, 0, 64, 84
1, 117739, Note_on_c, 0, 45, 78
1, 117747, Control_c, 0, 64, 91
1, 117762, Control_c, 0, 64, 98
1, 117776, Control_c, 0, 64, 108
1, 117786, Note_off_c, 0, 45, 62
1, 117791, Control_c, 0, 64, 127
1, 117886, Note_off_c, 0, 74, 61
1, 117886, Note_off_c, 0, 78, 55
1, 117887, Note_off_c, 0, 66, 57
1, 117889, Note_on_c, 0, 48, 57
1, 117893, Note_on_c, 0, 50, 76
1, 117915, Note_off_c, 0, 69, 59
1, 117964, Note_off_c, 0, 48, 62
1, 118006, Note_on_c, 0, 57, 78
1, 118156, Control_c, 0, 64, 80
1, 118161, Note_on_c, 0, 78, 89
1, 118162, Note_on_c, 0, 62, 77
1, 118162, Note_on_c, 0, 69, 73
1, 118163, Note_on_c, 0, 66, 83
1, 118164, Note_on_c, 0, 74, 77
1, 118170, Control_c, 0, 64, 60
1, 118185, Control_c, 0, 64, 0
1, 118244, Control_c, 0, 64, 51
1, 118259, Control_c, 0, 64, 72
1, 118274, Control_c, 0, 64, 93
1, 118289, Control_c, 0, 64, 127
1, 118304, Note_off_c, 0, 50, 58
1, 118311, Note_off_c, 0, 62, 58
1, 118337, Note_off_c, 0, 78, 54
1, 118340, Note_off_c, 0, 57, 60
1, 118343, Note_off_c, 0, 66, 61
1, 118379, Note_off_c, 0, 74, 49
1, 118390, Note_off_c, 0, 69, 55
1, 118465, Note_on_c, 0, 76, 82
1, 118465, Note_on_c, 0, 64, 73
1, 118516, Note_off_c, 0, 64, 62
1, 118525, Note_off_c, 0, 76, 63
1, 118671, Note_on_c, 0, 66, 72
1, 118698, Note_on_c, 0, 78, 76
1, 118733, Control_c, 0, 64, 89
1, 118736, Note_on_c, 0, 52, 78
1, 118740, Note_on_c, 0, 62, 79
1, 118742, Note_on_c, 0, 55, 72
1, 118742, Note_on_c, 0, 59, 70
1, 118744, Note_on_c, 0, 81, 94
1, 118748, Control_c, 0, 64, 66
1, 118763, Control_c, 0, 64, 48
1, 118778, Note_off_c, 0, 78, 64
1, 118778, Control_c, 0, 64, 0
1, 118808, Control_c, 0, 64, 47
1, 118830, Control_c, 0, 64, 61
1, 118844, Control_c, 0, 64, 69
1, 118859, Control_c, 0, 64, 83
1, 118874, Control_c, 0, 64, 110
1, 118886, Note_off_c, 0, 62, 60
1, 118889, Control_c, 0, 64, 127
1, 118893, Note_off_c, 0, 59, 62
1, 118919, Note_off_c, 0, 81, 60
1, 118927, Note_off_c, 0, 52, 62
1, 118928, Note_off_c, 0, 55, 62
1, 118950, Note_off_c, 0, 66, 59
1, 119050, Note_on_c, 0, 76, 76
1, 119056, Note_on_c, 0, 64, 70
1, 119095, Note_off_c, 0, 64, 58
1, 119112, Note_off_c, 0, 76, 63
1, 119210, Note_on_c, 0, 45, 69
1, 119250, Note_on_c, 0, 55, 66
1, 119262, Note_on_c, 0, 66, 65
1, 119279, Note_on_c, 0, 78, 75
1, 119290, Control_c, 0, 64, 105
1, 119305, Control_c, 0, 64, 78
1, 119316, Note_on_c, 0, 61, 88
1, 119319, Control_c, 0, 64, 64
1, 119325, Note_on_c, 0, 81, 95
1, 119334, Control_c, 0, 64, 52
1, 119349, Control_c, 0, 64, 48
1, 119364, Control_c, 0, 64, 55
1, 119372, Note_off_c, 0, 78, 61
1, 119379, Control_c, 0, 64, 64
1, 119393, Control_c, 0, 64, 73
1, 119408, Control_c, 0, 64, 88
1, 119422, Note_off_c, 0, 61, 64
1, 119423, Control_c, 0, 64, 127
1, 119425, Note_off_c, 0, 45, 54
1, 119437, Note_off_c, 0, 55, 60
1, 119458, Note_off_c, 0, 81, 57
1, 119497, Note_off_c, 0, 66, 61
1, 119610, Note_on_c, 0, 76, 87
1, 119616, Note_on_c, 0, 64, 75
1, 119660, Note_off_c, 0, 76, 64
1, 119669, Note_off_c, 0, 64, 61
1, 119890, Control_c, 0, 64, 90
1, 119899, Note_on_c, 0, 38, 88
1, 119905, Control_c, 0, 64, 69
1, 119907, Note_on_c, 0, 78, 89
1, 119909, Note_on_c, 0, 66, 83
1, 119911, Note_on_c, 0, 45, 78
1, 119911, Note_on_c, 0, 69, 73
1, 119914, Note_on_c, 0, 74, 80
1, 119920, Control_c, 0, 64, 52
1, 119935, Control_c, 0, 64, 29
1, 119949, Control_c, 0, 64, 0
1, 119979, Control_c, 0, 64, 41
1, 119994, Control_c, 0, 64, 55
1, 120009, Control_c, 0, 64, 64
1, 120023, Control_c, 0, 64, 72
1, 120038, Control_c, 0, 64, 84
1, 120045, Note_off_c, 0, 45, 62
1, 120053, Control_c, 0, 64, 99
1, 120059, Note_off_c, 0, 78, 64
1, 120060, Note_off_c, 0, 38, 63
1, 120067, Control_c, 0, 64, 127
1, 120078, Note_on_c, 0, 50, 77
1, 120093, Note_off_c, 0, 74, 56
1, 120105, Note_off_c, 0, 66, 56
1, 120108, Note_off_c, 0, 69, 59
1, 120169, Note_off_c, 0, 50, 53
1, 120204, Note_on_c, 0, 54, 77
1, 120340, Note_on_c, 0, 57, 81
1, 120346, Note_off_c, 0, 54, 62
1, 120410, Note_off_c, 0, 57, 59
1, 120489, Note_on_c, 0, 66, 79
1, 120491, Note_on_c, 0, 69, 83
1, 120493, Note_on_c, 0, 62, 75
1, 120785, Note_off_c, 0, 69, 51
1, 120790, Note_on_c, 0, 64, 83
1, 120809, Note_off_c, 0, 62, 34
1, 120822, Note_off_c, 0, 66, 60
1, 120862, Note_off_c, 0, 64, 61
1, 121054, Control_c, 0, 64, 110
1, 121072, Note_on_c, 0, 35, 92
1, 121076, Control_c, 0, 64, 74
1, 121080, Note_on_c, 0, 62, 88
1, 121081, Note_on_c, 0, 74, 93
1, 121084, Note_on_c, 0, 66, 81
1, 121088, Note_on_c, 0, 42, 83
1, 121091, Control_c, 0, 64, 52
1, 121106, Control_c, 0, 64, 0
1, 121195, Control_c, 0, 64, 45
1, 121210, Control_c, 0, 64, 59
1, 121224, Control_c, 0, 64, 67
1, 121231, Note_off_c, 0, 42, 64
1, 121231, Note_off_c, 0, 35, 61
1, 121239, Control_c, 0, 64, 73
1, 121249, Note_on_c, 0, 47, 73
1, 121254, Control_c, 0, 64, 77
1, 121269, Control_c, 0, 64, 79
1, 121284, Control_c, 0, 64, 82
1, 121300, Control_c, 0, 64, 85
1, 121308, Note_off_c, 0, 47, 64
1, 121312, Note_off_c, 0, 74, 60
1, 121314, Control_c, 0, 64, 88
1, 121329, Control_c, 0, 64, 90
1, 121344, Note_off_c, 0, 62, 56
1, 121344, Control_c, 0, 64, 92
1, 121359, Control_c, 0, 64, 93
1, 121374, Control_c, 0, 64, 93
1, 121377, Note_on_c, 0, 50, 81
1, 121411, Note_off_c, 0, 66, 55
1, 121433, Control_c, 0, 64, 94
1, 121492, Note_on_c, 0, 54, 82
1, 121551, Control_c, 0, 64, 93
1, 121581, Control_c, 0, 64, 92
1, 121595, Control_c, 0, 64, 90
1, 121610, Control_c, 0, 64, 83
1, 121625, Control_c, 0, 64, 69
1, 121631, Note_on_c, 0, 59, 72
1, 121634, Note_on_c, 0, 62, 81
1, 121634, Note_on_c, 0, 74, 89
1, 121637, Note_on_c, 0, 66, 81
1, 121640, Control_c, 0, 64, 48
1, 121655, Control_c, 0, 64, 0
1, 121693, Note_off_c, 0, 54, 53
1, 121699, Control_c, 0, 64, 41
1, 121711, Note_off_c, 0, 59, 60
1, 121713, Note_off_c, 0, 50, 59
1, 121714, Control_c, 0, 64, 56
1, 121729, Control_c, 0, 64, 66
1, 121744, Control_c, 0, 64, 72
1, 121759, Control_c, 0, 64, 79
1, 121774, Control_c, 0, 64, 86
1, 121788, Control_c, 0, 64, 91
1, 121803, Control_c, 0, 64, 98
1, 121825, Control_c, 0, 64, 106
1, 121835, Note_off_c, 0, 74, 51
1, 121839, Control_c, 0, 64, 119
1, 121854, Control_c, 0, 64, 127
1, 121875, Note_off_c, 0, 62, 60
1, 121941, Note_on_c, 0, 64, 84
1, 121963, Note_off_c, 0, 66, 58
1, 121986, Note_off_c, 0, 64, 64
1, 122225, Note_on_c, 0, 45, 80
1, 122235, Note_on_c, 0, 78, 96
1, 122236, Note_on_c, 0, 73, 87
1, 122237, Note_on_c, 0, 66, 90
1, 122241, Control_c, 0, 64, 81
1, 122256, Control_c, 0, 64, 57
1, 122270, Control_c, 0, 64, 0
1, 122344, Control_c, 0, 64, 42
1, 122359, Control_c, 0, 64, 55
1, 122374, Control_c, 0, 64, 63
1, 122389, Control_c, 0, 64, 67
1, 122399, Note_on_c, 0, 49, 76
1, 122404, Control_c, 0, 64, 70
1, 122418, Control_c, 0, 64, 73
1, 122433, Control_c, 0, 64, 76
1, 122445, Note_off_c, 0, 45, 59
1, 122449, Control_c, 0, 64, 80
1, 122463, Control_c, 0, 64, 84
1, 122478, Control_c, 0, 64, 89
1, 122493, Control_c, 0, 64, 93
1, 122508, Control_c, 0, 64, 97
1, 122523, Control_c, 0, 64, 102
1, 122529, Note_on_c, 0, 54, 79
1, 122536, Note_off_c, 0, 49, 63
1, 122537, Control_c, 0, 64, 108
1, 122546, Note_off_c, 0, 66, 55
1, 122552, Control_c, 0, 64, 114
1, 122567, Note_off_c, 0, 78, 48
1, 122575, Control_c, 0, 64, 127
1, 122588, Note_off_c, 0, 73, 56
1, 122647, Note_off_c, 0, 54, 64
1, 122658, Note_on_c, 0, 57, 85
1, 122740, Note_off_c, 0, 57, 62
1, 122796, Control_c, 0, 64, 119
1, 122802, Note_on_c, 0, 62, 85
1, 122804, Note_on_c, 0, 78, 90
1, 122805, Note_on_c, 0, 59, 76
1, 122805, Note_on_c, 0, 71, 75
1, 122805, Note_on_c, 0, 74, 79
1, 122808, Note_on_c, 0, 66, 83
1, 122811, Control_c, 0, 64, 82
1, 122826, Control_c, 0, 64, 57
1, 122841, Control_c, 0, 64, 0
1, 122901, Control_c, 0, 64, 56
1, 122916, Control_c, 0, 64, 73
1, 122931, Control_c, 0, 64, 88
1, 122946, Control_c, 0, 64, 127
1, 122972, Note_off_c, 0, 78, 56
1, 123004, Note_off_c, 0, 66, 61
1, 123020, Note_off_c, 0, 59, 57
1, 123045, Note_off_c, 0, 74, 51
1, 123053, Note_off_c, 0, 62, 58
1, 123089, Note_off_c, 0, 71, 39
1, 123098, Note_on_c, 0, 76, 90
1, 123099, Note_on_c, 0, 64, 81
1, 123144, Note_off_c, 0, 64, 61
1, 123173, Note_off_c, 0, 76, 62
1, 123398, Control_c, 0, 64, 84
1, 123401, Note_on_c, 0, 55, 71
1, 123403, Note_on_c, 0, 66, 82
1, 123403, Note_on_c, 0, 83, 98
1, 123404, Note_on_c, 0, 78, 89
1, 123407, Note_on_c, 0, 71, 88
1, 123407, Note_on_c, 0, 62, 70
1, 123409, Note_on_c, 0, 59, 62
1, 123412, Control_c, 0, 64, 63
1, 123427, Control_c, 0, 64, 38
1, 123442, Control_c, 0, 64, 0
1, 123472, Control_c, 0, 64, 36
1, 123486, Control_c, 0, 64, 53
1, 123501, Control_c, 0, 64, 63
1, 123516, Control_c, 0, 64, 68
1, 123531, Control_c, 0, 64, 75
1, 123546, Control_c, 0, 64, 82
1, 123560, Control_c, 0, 64, 90
1, 123575, Control_c, 0, 64, 101
1, 123580, Note_off_c, 0, 66, 59
1, 123590, Control_c, 0, 64, 127
1, 123636, Note_off_c, 0, 59, 40
1, 123643, Note_off_c, 0, 55, 50
1, 123688, Note_off_c, 0, 62, 34
1, 123706, Note_on_c, 0, 64, 78
1, 123715, Note_on_c, 0, 76, 98
1, 123752, Note_off_c, 0, 83, 49
1, 123765, Note_off_c, 0, 78, 56
1, 123819, Note_off_c, 0, 71, 55
1, 123821, Note_off_c, 0, 64, 58
1, 123892, Note_off_c, 0, 76, 56
1, 124004, Note_on_c, 0, 83, 95
1, 124005, Control_c, 0, 64, 92
1, 124006, Note_on_c, 0, 71, 88
1, 124007, Note_on_c, 0, 66, 80
1, 124007, Note_on_c, 0, 78, 86
1, 124012, Note_on_c, 0, 52, 70
1, 124013, Note_on_c, 0, 55, 70
1, 124013, Note_on_c, 0, 59, 65
1, 124020, Control_c, 0, 64, 64
1, 124034, Control_c, 0, 64, 36
1, 124049, Control_c, 0, 64, 0
1, 124116, Control_c, 0, 64, 39
1, 124131, Control_c, 0, 64, 55
1, 124146, Control_c, 0, 64, 64
1, 124161, Control_c, 0, 64, 70
1, 124176, Control_c, 0, 64, 77
1, 124190, Note_off_c, 0, 66, 62
1, 124190, Control_c, 0, 64, 85
1, 124205, Control_c, 0, 64, 94
1, 124220, Control_c, 0, 64, 107
1, 124234, Control_c, 0, 64, 127
1, 124294, Note_off_c, 0, 55, 57
1, 124296, Note_off_c, 0, 59, 59
1, 124317, Note_on_c, 0, 64, 73
1, 124320, Note_on_c, 0, 76, 88
1, 124334, Note_off_c, 0, 52, 30
1, 124342, Note_off_c, 0, 83, 59
1, 124343, Note_off_c, 0, 64, 67
1, 124393, Note_off_c, 0, 78, 56
1, 124412, Note_off_c, 0, 71, 57
1, 124488, Note_off_c, 0, 76, 51
1, 124650, Control_c, 0, 64, 88
1, 124660, Note_on_c, 0, 83, 95
1, 124663, Note_on_c, 0, 42, 57
1, 124665, Control_c, 0, 64, 66
1, 124668, Note_on_c, 0, 71, 80
1, 124671, Note_on_c, 0, 35, 55
1, 124671, Note_on_c, 0, 78, 80
1, 124680, Control_c, 0, 64, 45
1, 124695, Control_c, 0, 64, 0
1, 124739, Control_c, 0, 64, 43
1, 124754, Control_c, 0, 64, 56
1, 124769, Control_c, 0, 64, 62
1, 124783, Control_c, 0, 64, 65
1, 124798, Control_c, 0, 64, 68
1, 124820, Control_c, 0, 64, 70
1, 124835, Control_c, 0, 64, 72
1, 124850, Control_c, 0, 64, 75
1, 124862, Note_off_c, 0, 35, 27
1, 124862, Note_off_c, 0, 83, 63
1, 124865, Control_c, 0, 64, 78
1, 124880, Control_c, 0, 64, 81
1, 124889, Note_off_c, 0, 42, 22
1, 124895, Control_c, 0, 64, 86
1, 124901, Note_off_c, 0, 78, 59
1, 124910, Control_c, 0, 64, 91
1, 124911, Note_on_c, 0, 47, 62
1, 124925, Control_c, 0, 64, 95
1, 124927, Note_off_c, 0, 71, 51
1, 124939, Control_c, 0, 64, 98
1, 124969, Control_c, 0, 64, 100
1, 124980, Note_off_c, 0, 47, 63
1, 124998, Control_c, 0, 64, 103
1, 125050, Note_on_c, 0, 50, 72
1, 125174, Note_on_c, 0, 54, 74
1, 125220, Control_c, 0, 64, 100
1, 125226, Note_off_c, 0, 50, 59
1, 125235, Control_c, 0, 64, 98
1, 125250, Control_c, 0, 64, 96
1, 125265, Control_c, 0, 64, 94
1, 125280, Control_c, 0, 64, 91
1, 125295, Control_c, 0, 64, 86
1, 125310, Control_c, 0, 64, 80
1, 125325, Control_c, 0, 64, 69
1, 125340, Control_c, 0, 64, 58
1, 125342, Note_on_c, 0, 78, 70
1, 125342, Note_on_c, 0, 55, 79
1, 125347, Note_on_c, 0, 71, 60
1, 125354, Control_c, 0, 64, 0
1, 125356, Note_off_c, 0, 54, 62
1, 125357, Note_on_c, 0, 66, 57
1, 125533, Control_c, 0, 64, 55
1, 125548, Control_c, 0, 64, 65
1, 125560, Note_off_c, 0, 66, 62
1, 125563, Note_off_c, 0, 78, 57
1, 125570, Control_c, 0, 64, 69
1, 125585, Control_c, 0, 64, 71
1, 125600, Control_c, 0, 64, 71
1, 125614, Control_c, 0, 64, 73
1, 125629, Control_c, 0, 64, 76
1, 125644, Control_c, 0, 64, 81
1, 125649, Note_on_c, 0, 76, 77
1, 125651, Note_off_c, 0, 55, 59
1, 125653, Note_off_c, 0, 71, 57
1, 125658, Note_on_c, 0, 64, 65
1, 125659, Control_c, 0, 64, 89
1, 125674, Control_c, 0, 64, 101
1, 125688, Control_c, 0, 64, 127
1, 125729, Note_off_c, 0, 76, 60
1, 125754, Note_off_c, 0, 64, 52
1, 125955, Control_c, 0, 64, 114
1, 125970, Control_c, 0, 64, 97
1, 125985, Note_on_c, 0, 56, 75
1, 125985, Control_c, 0, 64, 86
1, 125987, Note_on_c, 0, 74, 68
1, 125999, Note_on_c, 0, 66, 46
1, 126000, Note_on_c, 0, 62, 52
1, 126000, Control_c, 0, 64, 75
1, 126014, Control_c, 0, 64, 65
1, 126029, Control_c, 0, 64, 49
1, 126044, Control_c, 0, 64, 0
1, 126134, Control_c, 0, 64, 37
1, 126149, Control_c, 0, 64, 49
1, 126164, Control_c, 0, 64, 58
1, 126178, Control_c, 0, 64, 62
1, 126193, Control_c, 0, 64, 64
1, 126208, Control_c, 0, 64, 64
1, 126223, Control_c, 0, 64, 66
1, 126229, Note_on_c, 0, 40, 39
1, 126237, Control_c, 0, 64, 67
1, 126252, Control_c, 0, 64, 69
1, 126267, Control_c, 0, 64, 72
1, 126281, Note_off_c, 0, 74, 62
1, 126282, Control_c, 0, 64, 76
1, 126296, Note_off_c, 0, 66, 59
1, 126297, Control_c, 0, 64, 80
1, 126319, Control_c, 0, 64, 85
1, 126334, Control_c, 0, 64, 90
1, 126349, Control_c, 0, 64, 94
1, 126363, Control_c, 0, 64, 97
1, 126378, Control_c, 0, 64, 99
1, 126380, Note_on_c, 0, 47, 51
1, 126383, Note_off_c, 0, 62, 52
1, 126385, Note_off_c, 0, 40, 36
1, 126393, Control_c, 0, 64, 101
1, 126408, Control_c, 0, 64, 104
1, 126423, Control_c, 0, 64, 107
1, 126507, Note_off_c, 0, 56, 36
1, 126513, Note_on_c, 0, 50, 56
1, 126570, Control_c, 0, 64, 103
1, 126585, Control_c, 0, 64, 100
1, 126600, Control_c, 0, 64, 96
1, 126607, Note_off_c, 0, 47, 36
1, 126615, Control_c, 0, 64, 88
1, 126627, Note_on_c, 0, 73, 64
1, 126630, Control_c, 0, 64, 75
1, 126632, Note_on_c, 0, 55, 61
1, 126637, Note_on_c, 0, 64, 54
1, 126639, Note_off_c, 0, 50, 59
1, 126645, Control_c, 0, 64, 63
1, 126651, Note_on_c, 0, 61, 41
1, 126660, Control_c, 0, 64, 45
1, 126674, Control_c, 0, 64, 0
1, 126719, Control_c, 0, 64, 35
1, 126734, Control_c, 0, 64, 48
1, 126749, Control_c, 0, 64, 58
1, 126763, Control_c, 0, 64, 64
1, 126778, Control_c, 0, 64, 68
1, 126779, Note_off_c, 0, 73, 62
1, 126789, Note_off_c, 0, 61, 60
1, 126793, Control_c, 0, 64, 73
1, 126808, Control_c, 0, 64, 78
1, 126815, Note_off_c, 0, 55, 60
1, 126823, Control_c, 0, 64, 84
1, 126837, Control_c, 0, 64, 88
1, 126852, Control_c, 0, 64, 93
1, 126867, Control_c, 0, 64, 97
1, 126883, Control_c, 0, 64, 100
1, 126898, Control_c, 0, 64, 104
1, 126913, Control_c, 0, 64, 107
1, 126917, Note_on_c, 0, 71, 69
1, 126927, Control_c, 0, 64, 109
1, 126931, Note_on_c, 0, 59, 45
1, 126942, Control_c, 0, 64, 112
1, 126957, Control_c, 0, 64, 114
1, 126966, Note_off_c, 0, 59, 53
1, 126999, Note_off_c, 0, 64, 36
1, 127004, Note_off_c, 0, 71, 59
1, 127172, Control_c, 0, 64, 109
1, 127186, Control_c, 0, 64, 101
1, 127201, Control_c, 0, 64, 88
1, 127216, Control_c, 0, 64, 75
1, 127222, Note_on_c, 0, 76, 77
1, 127227, Note_on_c, 0, 35, 55
1, 127231, Control_c, 0, 64, 61
1, 127244, Note_on_c, 0, 64, 47
1, 127244, Note_on_c, 0, 71, 49
1, 127246, Control_c, 0, 64, 47
1, 127260, Control_c, 0, 64, 29
1, 127275, Control_c, 0, 64, 0
1, 127305, Control_c, 0, 64, 32
1, 127320, Control_c, 0, 64, 44
1, 127334, Control_c, 0, 64, 54
1, 127349, Control_c, 0, 64, 60
1, 127364, Control_c, 0, 64, 63
1, 127378, Note_on_c, 0, 42, 51
1, 127379, Control_c, 0, 64, 66
1, 127393, Control_c, 0, 64, 68
1, 127408, Control_c, 0, 64, 70
1, 127414, Note_off_c, 0, 35, 52
1, 127423, Control_c, 0, 64, 74
1, 127438, Control_c, 0, 64, 77
1, 127453, Control_c, 0, 64, 81
1, 127467, Control_c, 0, 64, 86
1, 127473, Note_off_c, 0, 42, 61
1, 127482, Control_c, 0, 64, 90
1, 127497, Control_c, 0, 64, 95
1, 127503, Note_on_c, 0, 47, 61
1, 127512, Control_c, 0, 64, 98
1, 127578, Note_off_c, 0, 47, 63
1, 127596, Note_off_c, 0, 71, 33
1, 127622, Note_on_c, 0, 50, 72
1, 127702, Note_off_c, 0, 64, 60
1, 127721, Control_c, 0, 64, 92
1, 127736, Control_c, 0, 64, 82
1, 127750, Control_c, 0, 64, 72
1, 127765, Control_c, 0, 64, 64
1, 127780, Note_on_c, 0, 54, 66
1, 127780, Control_c, 0, 64, 59
1, 127786, Note_on_c, 0, 74, 75
1, 127795, Control_c, 0, 64, 58
1, 127795, Note_on_c, 0, 62, 66
1, 127810, Note_on_c, 0, 69, 59
1, 127814, Note_off_c, 0, 76, 58
1, 127816, Control_c, 0, 64, 59
1, 127831, Control_c, 0, 64, 63
1, 127846, Control_c, 0, 64, 67
1, 127861, Control_c, 0, 64, 70
1, 127876, Control_c, 0, 64, 75
1, 127891, Control_c, 0, 64, 79
1, 127906, Control_c, 0, 64, 84
1, 127921, Control_c, 0, 64, 90
1, 127932, Note_off_c, 0, 62, 60
1, 127935, Control_c, 0, 64, 97
1, 127950, Control_c, 0, 64, 106
1, 127953, Note_off_c, 0, 50, 57
1, 127965, Control_c, 0, 64, 127
1, 127967, Note_off_c, 0, 54, 58
1, 128079, Note_on_c, 0, 78, 78
1, 128089, Note_on_c, 0, 66, 66
1, 128111, Note_off_c, 0, 69, 51
1, 128119, Note_off_c, 0, 74, 61
1, 128172, Note_off_c, 0, 78, 62
1, 128247, Note_off_c, 0, 66, 28
1, 128335, Control_c, 0, 64, 105
1, 128347, Note_on_c, 0, 45, 75
1, 128350, Note_on_c, 0, 76, 82
1, 128350, Control_c, 0, 64, 73
1, 128358, Note_on_c, 0, 66, 69
1, 128360, Note_on_c, 0, 64, 61
1, 128365, Control_c, 0, 64, 42
1, 128380, Control_c, 0, 64, 0
1, 128511, Note_on_c, 0, 50, 66
1, 128528, Control_c, 0, 64, 53
1, 128543, Control_c, 0, 64, 73
1, 128565, Control_c, 0, 64, 78
1, 128579, Control_c, 0, 64, 80
1, 128624, Control_c, 0, 64, 82
1, 128639, Control_c, 0, 64, 84
1, 128654, Control_c, 0, 64, 89
1, 128655, Note_on_c, 0, 71, 81
1, 128661, Note_on_c, 0, 54, 69
1, 128669, Control_c, 0, 64, 96
1, 128682, Note_off_c, 0, 76, 60
1, 128684, Control_c, 0, 64, 109
1, 128687, Note_off_c, 0, 66, 63
1, 128699, Control_c, 0, 64, 127
1, 128713, Note_off_c, 0, 45, 32
1, 128713, Note_off_c, 0, 64, 58
1, 128745, Note_off_c, 0, 71, 55
1, 128791, Note_off_c, 0, 50, 49
1, 128791, Note_on_c, 0, 59, 72
1, 128815, Note_off_c, 0, 54, 38
1, 128899, Note_off_c, 0, 59, 51
1, 128905, Control_c, 0, 64, 94
1, 128920, Control_c, 0, 64, 59
1, 128926, Note_on_c, 0, 74, 81
1, 128928, Note_on_c, 0, 43, 73
1, 128933, Note_on_c, 0, 62, 76
1, 128935, Control_c, 0, 64, 0
1, 128937, Note_on_c, 0, 69, 70
1, 129009, Control_c, 0, 64, 45
1, 129023, Control_c, 0, 64, 66
1, 129038, Control_c, 0, 64, 78
1, 129050, Note_off_c, 0, 62, 40
1, 129053, Control_c, 0, 64, 104
1, 129068, Control_c, 0, 64, 127
1, 129072, Note_on_c, 0, 49, 81
1, 129085, Note_off_c, 0, 74, 59
1, 129148, Note_off_c, 0, 69, 55
1, 129211, Note_on_c, 0, 76, 88
1, 129212, Note_on_c, 0, 64, 79
1, 129213, Note_on_c, 0, 52, 78
1, 129215, Note_on_c, 0, 71, 79
1, 129221, Note_off_c, 0, 43, 60
1, 129256, Note_off_c, 0, 64, 60
1, 129272, Note_off_c, 0, 76, 60
1, 129273, Note_off_c, 0, 49, 56
1, 129304, Note_off_c, 0, 71, 58
1, 129357, Note_off_c, 0, 52, 63
1, 129362, Note_on_c, 0, 59, 81
1, 129411, Note_off_c, 0, 59, 65
1, 129520, Poly_aftertouch_c, 0, 49, 127
1, 129521, Control_c, 0, 64, 72
1, 129522, Note_on_c, 0, 78, 94
1, 129524, Note_on_c, 0, 66, 87
1, 129525, Note_on_c, 0, 73, 88
1, 129530, Note_on_c, 0, 42, 84
1, 129536, Control_c, 0, 64, 39
1, 129539, Poly_aftertouch_c, 0, 49, 0
1, 129551, Control_c, 0, 64, 0
1, 129610, Control_c, 0, 64, 49
1, 129625, Control_c, 0, 64, 60
1, 129640, Control_c, 0, 64, 66
1, 129654, Control_c, 0, 64, 71
1, 129669, Control_c, 0, 64, 76
1, 129679, Note_on_c, 0, 49, 79
1, 129684, Control_c, 0, 64, 78
1, 129691, Note_off_c, 0, 42, 63
1, 129699, Control_c, 0, 64, 80
1, 129714, Control_c, 0, 64, 82
1, 129728, Control_c, 0, 64, 84
1, 129743, Control_c, 0, 64, 86
1, 129758, Control_c, 0, 64, 89
1, 129772, Control_c, 0, 64, 91
1, 129787, Control_c, 0, 64, 92
1, 129801, Note_off_c, 0, 49, 63
1, 129802, Control_c, 0, 64, 93
1, 129817, Control_c, 0, 64, 94
1, 129819, Note_on_c, 0, 54, 83
1, 129832, Control_c, 0, 64, 95
1, 129841, Note_off_c, 0, 78, 58
1, 129860, Note_off_c, 0, 66, 56
1, 129861, Control_c, 0, 64, 98
1, 129866, Note_off_c, 0, 54, 64
1, 129893, Note_off_c, 0, 73, 59
1, 129935, Control_c, 0, 64, 100
1, 129958, Note_on_c, 0, 54, 87
1, 130061, Control_c, 0, 64, 97
1, 130076, Control_c, 0, 64, 83
1, 130091, Control_c, 0, 64, 68
1, 130106, Control_c, 0, 64, 52
1, 130114, Note_on_c, 0, 75, 81
1, 130114, Note_on_c, 0, 59, 75
1, 130114, Note_on_c, 0, 66, 86
1, 130115, Note_on_c, 0, 78, 84
1, 130117, Note_on_c, 0, 63, 85
1, 130118, Note_on_c, 0, 71, 78
1, 130121, Control_c, 0, 64, 0
1, 130165, Control_c, 0, 64, 39
1, 130180, Control_c, 0, 64, 56
1, 130195, Control_c, 0, 64, 66
1, 130210, Control_c, 0, 64, 77
1, 130225, Control_c, 0, 64, 92
1, 130240, Control_c, 0, 64, 114
1, 130255, Control_c, 0, 64, 127
1, 130280, Note_off_c, 0, 71, 58
1, 130293, Note_off_c, 0, 63, 60
1, 130358, Control_c, 0, 64, 96
1, 130373, Control_c, 0, 64, 77
1, 130388, Control_c, 0, 64, 65
1, 130402, Control_c, 0, 64, 55
1, 130413, Note_on_c, 0, 61, 83
1, 130415, Note_on_c, 0, 58, 80
1, 130415, Note_on_c, 0, 70, 83
1, 130415, Note_on_c, 0, 73, 86
1, 130417, Control_c, 0, 64, 53
1, 130427, Note_off_c, 0, 54, 61
1, 130428, Note_off_c, 0, 59, 63
1, 130432, Control_c, 0, 64, 59
1, 130447, Control_c, 0, 64, 67
1, 130448, Note_off_c, 0, 66, 63
1, 130448, Note_off_c, 0, 75, 63
1, 130456, Note_off_c, 0, 78, 59
1, 130462, Control_c, 0, 64, 76
1, 130466, Note_off_c, 0, 70, 65
1, 130467, Note_off_c, 0, 58, 65
1, 130472, Note_off_c, 0, 61, 61
1, 130476, Control_c, 0, 64, 91
1, 130486, Note_off_c, 0, 73, 63
1, 130491, Control_c, 0, 64, 127
1, 130684, Control_c, 0, 64, 108
1, 130699, Control_c, 0, 64, 72
1, 130714, Control_c, 0, 64, 37
1, 130720, Note_on_c, 0, 66, 85
1, 130720, Note_on_c, 0, 81, 96
1, 130722, Note_on_c, 0, 69, 94
1, 130723, Note_on_c, 0, 62, 76
1, 130723, Note_on_c, 0, 74, 90
1, 130723, Note_on_c, 0, 55, 75
1, 130724, Note_on_c, 0, 78, 91
1, 130729, Control_c, 0, 64, 0
1, 130732, Note_on_c, 0, 59, 72
1, 130766, Note_off_c, 0, 66, 64
1, 130768, Note_off_c, 0, 62, 62
1, 130772, Note_off_c, 0, 59, 63
1, 130773, Control_c, 0, 64, 52
1, 130788, Control_c, 0, 64, 66
1, 130801, Note_off_c, 0, 55, 64
1, 130810, Control_c, 0, 64, 83
1, 130825, Control_c, 0, 64, 127
1, 131064, Note_on_c, 0, 33, 92
1, 131064, Note_on_c, 0, 45, 101
1, 131105, Note_off_c, 0, 33, 65
1, 131115, Note_off_c, 0, 45, 64
1, 131163, Note_off_c, 0, 81, 55
1, 131182, Note_off_c, 0, 69, 58
1, 131200, Note_off_c, 0, 74, 58
1, 131209, Note_off_c, 0, 78, 58
1, 131429, Note_on_c, 0, 66, 93
1, 131433, Note_on_c, 0, 55, 77
1, 131433, Control_c, 0, 64, 93
1, 131434, Note_on_c, 0, 69, 91
1, 131434, Note_on_c, 0, 73, 87
1, 131434, Note_on_c, 0, 81, 92
1, 131436, Note_on_c, 0, 78, 89
1, 131437, Note_on_c, 0, 61, 84
1, 131439, Note_on_c, 0, 57, 81
1, 131448, Control_c, 0, 64, 74
1, 131463, Control_c, 0, 64, 65
1, 131477, Control_c, 0, 64, 63
1, 131492, Control_c, 0, 64, 67
1, 131507, Control_c, 0, 64, 77
1, 131522, Control_c, 0, 64, 93
1, 131537, Control_c, 0, 64, 127
1, 131629, Note_off_c, 0, 66, 60
1, 131750, Note_off_c, 0, 55, 54
1, 131769, Note_off_c, 0, 57, 47
1, 131812, Note_off_c, 0, 61, 59
1, 131825, Note_on_c, 0, 64, 82
1, 131829, Note_on_c, 0, 76, 91
1, 131867, Note_off_c, 0, 64, 62
1, 131873, Note_off_c, 0, 81, 42
1, 131873, Note_off_c, 0, 78, 59
1, 131883, Note_off_c, 0, 73, 58
1, 131887, Note_off_c, 0, 69, 57
1, 131956, Note_off_c, 0, 76, 58
1, 132227, Control_c, 0, 64, 95
1, 132241, Control_c, 0, 64, 66
1, 132243, Note_on_c, 0, 86, 94
1, 132244, Note_on_c, 0, 38, 94
1, 132246, Note_on_c, 0, 78, 94
1, 132250, Note_on_c, 0, 45, 85
1, 132256, Control_c, 0, 64, 31
1, 132271, Control_c, 0, 64, 0
1, 132323, Control_c, 0, 64, 52
1, 132338, Control_c, 0, 64, 66
1, 132353, Control_c, 0, 64, 78
1, 132368, Control_c, 0, 64, 106
1, 132382, Control_c, 0, 64, 127
1, 132410, Note_off_c, 0, 86, 56
1, 132422, Note_off_c, 0, 78, 59
1, 132430, Note_off_c, 0, 38, 61
1, 132446, Note_off_c, 0, 45, 63
1, 132448, Note_on_c, 0, 81, 79
1, 132454, Note_on_c, 0, 50, 75
1, 132454, Note_on_c, 0, 74, 74
1, 132481, Note_off_c, 0, 81, 64
1, 132485, Note_off_c, 0, 74, 64
1, 132485, Note_off_c, 0, 50, 64
1, 132604, Note_on_c, 0, 50, 67
1, 132608, Note_on_c, 0, 78, 77
1, 132615, Note_on_c, 0, 69, 72
1, 132627, Note_on_c, 0, 57, 46
1, 132694, Note_off_c, 0, 50, 51
1, 132722, Note_off_c, 0, 69, 50
1, 132727, Note_off_c, 0, 78, 61
1, 132732, Note_on_c, 0, 74, 79
1, 132734, Note_on_c, 0, 54, 65
1, 132738, Note_off_c, 0, 57, 52
1, 132743, Note_on_c, 0, 66, 74
1, 132759, Note_on_c, 0, 64, 48
1, 132763, Note_off_c, 0, 54, 66
1, 132773, Note_off_c, 0, 66, 65
1, 132780, Note_off_c, 0, 64, 60
1, 132782, Note_off_c, 0, 74, 65
1, 132839, Poly_aftertouch_c, 0, 62, 0
1, 132902, Control_c, 0, 64, 112
1, 132917, Control_c, 0, 64, 74
1, 132919, Note_on_c, 0, 86, 101
1, 132921, Note_on_c, 0, 62, 85
1, 132921, Note_on_c, 0, 78, 88
1, 132922, Note_on_c, 0, 59, 66
1, 132923, Note_on_c, 0, 74, 88
1, 132931, Note_on_c, 0, 66, 85
1, 132931, Control_c, 0, 64, 53
1, 132946, Control_c, 0, 64, 0
1, 132976, Control_c, 0, 64, 43
1, 132991, Control_c, 0, 64, 60
1, 133006, Control_c, 0, 64, 71
1, 133021, Control_c, 0, 64, 82
1, 133036, Control_c, 0, 64, 99
1, 133058, Control_c, 0, 64, 127
1, 133092, Note_off_c, 0, 66, 60
1, 133121, Note_off_c, 0, 86, 53
1, 133210, Note_off_c, 0, 62, 56
1, 133224, Note_off_c, 0, 59, 37
1, 133232, Note_on_c, 0, 76, 91
1, 133233, Note_on_c, 0, 64, 85
1, 133239, Note_off_c, 0, 74, 30
1, 133254, Note_off_c, 0, 78, 57
1, 133258, Note_off_c, 0, 64, 66
1, 133272, Note_off_c, 0, 76, 64
1, 133518, Control_c, 0, 64, 101
1, 133533, Control_c, 0, 64, 70
1, 133537, Note_on_c, 0, 81, 92
1, 133538, Note_on_c, 0, 30, 91
1, 133538, Note_on_c, 0, 90, 91
1, 133539, Note_on_c, 0, 38, 85
1, 133547, Control_c, 0, 64, 47
1, 133562, Control_c, 0, 64, 0
1, 133592, Control_c, 0, 64, 53
1, 133607, Control_c, 0, 64, 71
1, 133621, Control_c, 0, 64, 88
1, 133636, Control_c, 0, 64, 127
1, 133662, Note_off_c, 0, 30, 60
1, 133682, Note_off_c, 0, 81, 61
1, 133689, Note_off_c, 0, 38, 62
1, 133697, Note_on_c, 0, 45, 84
1, 133701, Note_on_c, 0, 86, 78
1, 133705, Note_on_c, 0, 78, 81
1, 133715, Note_off_c, 0, 90, 37
1, 133724, Note_off_c, 0, 86, 67
1, 133727, Note_off_c, 0, 45, 66
1, 133739, Note_off_c, 0, 78, 60
1, 133849, Note_on_c, 0, 50, 73
1, 133853, Note_on_c, 0, 81, 77
1, 133863, Note_on_c, 0, 74, 61
1, 133876, Note_on_c, 0, 72, 62
1, 133885, Note_on_c, 0, 57, 28
1, 133899, Note_off_c, 0, 72, 56
1, 133913, Note_off_c, 0, 74, 50
1, 133930, Note_off_c, 0, 57, 48
1, 133955, Note_off_c, 0, 50, 59
1, 133972, Note_on_c, 0, 54, 70
1, 133972, Note_on_c, 0, 62, 75
1, 133974, Note_on_c, 0, 78, 86
1, 133979, Note_on_c, 0, 69, 71
1, 133986, Note_off_c, 0, 81, 50
1, 134002, Note_off_c, 0, 54, 65
1, 134004, Note_off_c, 0, 69, 65
1, 134010, Note_off_c, 0, 62, 60
1, 134018, Note_off_c, 0, 78, 60
1, 134118, Control_c, 0, 64, 92
1, 134133, Control_c, 0, 64, 75
1, 134136, Note_on_c, 0, 66, 93
1, 134141, Note_on_c, 0, 81, 80
1, 134145, Note_on_c, 0, 90, 92
1, 134148, Control_c, 0, 64, 66
1, 134149, Note_on_c, 0, 78, 87
1, 134163, Control_c, 0, 64, 64
1, 134177, Control_c, 0, 64, 67
1, 134192, Control_c, 0, 64, 72
1, 134207, Control_c, 0, 64, 81
1, 134222, Control_c, 0, 64, 90
1, 134237, Control_c, 0, 64, 101
1, 134252, Control_c, 0, 64, 116
1, 134267, Control_c, 0, 64, 127
1, 134309, Note_off_c, 0, 90, 48
1, 134316, Note_off_c, 0, 78, 56
1, 134345, Note_off_c, 0, 66, 56
1, 134414, Note_off_c, 0, 81, 57
1, 134431, Note_on_c, 0, 64, 75
1, 134431, Note_on_c, 0, 88, 92
1, 134436, Note_on_c, 0, 76, 90
1, 134483, Note_off_c, 0, 76, 62
1, 134486, Note_off_c, 0, 88, 65
1, 134522, Note_off_c, 0, 64, 46
1, 134584, Control_c, 0, 64, 125
1, 134599, Control_c, 0, 64, 99
1, 134614, Control_c, 0, 64, 75
1, 134629, Control_c, 0, 64, 47
1, 134643, Control_c, 0, 64, 0
1, 134675, Note_on_c, 0, 78, 79
1, 134708, Note_on_c, 0, 90, 81
1, 134737, Note_on_c, 0, 52, 65
1, 134749, Note_on_c, 0, 59, 54
1, 134755, Note_on_c, 0, 93, 103
1, 134782, Note_off_c, 0, 90, 65
1, 134791, Control_c, 0, 64, 43
1, 134806, Control_c, 0, 64, 127
1, 134890, Note_on_c, 0, 55, 77
1, 134896, Note_off_c, 0, 52, 50
1, 134898, Note_on_c, 0, 62, 64
1, 134909, Note_off_c, 0, 59, 25
1, 134910, Note_off_c, 0, 93, 60
1, 134920, Note_off_c, 0, 55, 65
1, 134929, Note_off_c, 0, 62, 64
1, 134960, Note_off_c, 0, 78, 58
1, 135032, Note_on_c, 0, 55, 72
1, 135036, Note_on_c, 0, 62, 67
1, 135044, Note_on_c, 0, 88, 89
1, 135050, Note_on_c, 0, 76, 81
1, 135077, Note_on_c, 0, 87, 30
1, 135094, Note_off_c, 0, 55, 60
1, 135096, Note_off_c, 0, 76, 60
1, 135115, Note_off_c, 0, 62, 49
1, 135125, Note_off_c, 0, 87, 28
1, 135125, Note_off_c, 0, 88, 62
1, 135162, Note_on_c, 0, 59, 76
1, 135189, Note_on_c, 0, 67, 12
1, 135191, Note_off_c, 0, 59, 65
1, 135230, Note_off_c, 0, 67, 47
1, 135245, Note_on_c, 0, 78, 81
1, 135294, Note_on_c, 0, 90, 78
1, 135304, Control_c, 0, 64, 109
1, 135319, Control_c, 0, 64, 70
1, 135334, Control_c, 0, 64, 39
1, 135335, Note_on_c, 0, 33, 94
1, 135341, Note_on_c, 0, 93, 100
1, 135349, Control_c, 0, 64, 0
1, 135365, Note_off_c, 0, 90, 65
1, 135379, Control_c, 0, 64, 43
1, 135393, Control_c, 0, 64, 69
1, 135408, Control_c, 0, 64, 93
1, 135423, Control_c, 0, 64, 127
1, 135463, Note_off_c, 0, 33, 59
1, 135473, Note_off_c, 0, 93, 56
1, 135483, Note_on_c, 0, 45, 80
1, 135506, Note_off_c, 0, 78, 58
1, 135511, Note_off_c, 0, 45, 69
1, 135626, Note_on_c, 0, 88, 90
1, 135636, Note_on_c, 0, 76, 78
1, 135638, Note_on_c, 0, 55, 68
1, 135641, Note_on_c, 0, 61, 71
1, 135663, Note_off_c, 0, 76, 61
1, 135674, Note_off_c, 0, 88, 65
1, 135709, Note_off_c, 0, 61, 58
1, 135728, Note_off_c, 0, 55, 40
1, 135764, Note_on_c, 0, 57, 80
1, 135767, Note_on_c, 0, 64, 59
1, 135787, Note_off_c, 0, 64, 65
1, 135793, Note_off_c, 0, 57, 66
1, 135927, Control_c, 0, 64, 80
1, 135941, Note_on_c, 0, 38, 97
1, 135942, Control_c, 0, 64, 48
1, 135947, Note_on_c, 0, 90, 86
1, 135951, Note_on_c, 0, 81, 80
1, 135954, Note_on_c, 0, 45, 79
1, 135957, Control_c, 0, 64, 0
1, 136031, Control_c, 0, 64, 59
1, 136053, Control_c, 0, 64, 72
1, 136067, Control_c, 0, 64, 84
1, 136079, Note_off_c, 0, 45, 55
1, 136082, Control_c, 0, 64, 104
1, 136097, Note_off_c, 0, 81, 55
1, 136097, Control_c, 0, 64, 127
1, 136122, Note_on_c, 0, 50, 80
1, 136122, Note_on_c, 0, 86, 76
1, 136127, Note_on_c, 0, 78, 76
1, 136132, Note_off_c, 0, 38, 59
1, 136139, Note_off_c, 0, 90, 33
1, 136142, Note_off_c, 0, 86, 71
1, 136148, Note_off_c, 0, 78, 70
1, 136151, Note_off_c, 0, 50, 64
1, 136255, Note_on_c, 0, 50, 74
1, 136260, Note_on_c, 0, 74, 73
1, 136262, Note_on_c, 0, 81, 73
1, 136303, Note_on_c, 0, 57, 21
1, 136348, Note_off_c, 0, 74, 40
1, 136352, Note_off_c, 0, 50, 58
1, 136357, Note_off_c, 0, 57, 45
1, 136383, Note_on_c, 0, 78, 79
1, 136384, Note_on_c, 0, 62, 74
1, 136388, Note_on_c, 0, 54, 62
1, 136389, Note_on_c, 0, 69, 70
1, 136406, Note_off_c, 0, 81, 58
1, 136410, Note_off_c, 0, 54, 63
1, 136414, Note_off_c, 0, 62, 65
1, 136425, Note_off_c, 0, 69, 59
1, 136439, Note_off_c, 0, 78, 62
1, 136538, Note_on_c, 0, 81, 81
1, 136542, Note_on_c, 0, 66, 94
1, 136545, Note_on_c, 0, 78, 77
1, 136547, Note_on_c, 0, 69, 73
1, 136733, Note_off_c, 0, 66, 50
1, 136795, Note_off_c, 0, 78, 42
1, 136810, Note_off_c, 0, 69, 38
1, 136844, Note_on_c, 0, 64, 85
1, 136848, Note_on_c, 0, 76, 93
1, 136869, Note_off_c, 0, 81, 60
1, 136882, Note_off_c, 0, 64, 63
1, 136906, Note_off_c, 0, 76, 64
1, 137143, Control_c, 0, 64, 89
1, 137150, Note_on_c, 0, 86, 91
1, 137154, Note_on_c, 0, 35, 93
1, 137154, Note_on_c, 0, 78, 89
1, 137155, Note_on_c, 0, 42, 91
1, 137158, Control_c, 0, 64, 60
1, 137172, Control_c, 0, 64, 0
1, 137231, Control_c, 0, 64, 51
1, 137246, Control_c, 0, 64, 65
1, 137262, Control_c, 0, 64, 79
1, 137277, Control_c, 0, 64, 120
1, 137292, Control_c, 0, 64, 127
1, 137302, Note_off_c, 0, 78, 62
1, 137314, Note_off_c, 0, 35, 59
1, 137320, Note_off_c, 0, 42, 63
1, 137327, Note_on_c, 0, 47, 79
1, 137332, Note_on_c, 0, 83, 79
1, 137334, Note_on_c, 0, 74, 76
1, 137336, Note_off_c, 0, 86, 63
1, 137361, Note_off_c, 0, 47, 64
1, 137368, Note_off_c, 0, 83, 61
1, 137372, Note_off_c, 0, 74, 61
1, 137477, Note_on_c, 0, 48, 71
1, 137477, Note_on_c, 0, 71, 71
1, 137480, Note_on_c, 0, 78, 61
1, 137490, Note_on_c, 0, 57, 57
1, 137547, Note_off_c, 0, 57, 55
1, 137584, Note_off_c, 0, 71, 57
1, 137591, Note_off_c, 0, 48, 60
1, 137598, Note_off_c, 0, 78, 55
1, 137600, Note_on_c, 0, 74, 79
1, 137604, Note_on_c, 0, 62, 60
1, 137613, Note_on_c, 0, 66, 69
1, 137635, Note_off_c, 0, 62, 64
1, 137639, Note_off_c, 0, 66, 68
1, 137645, Note_off_c, 0, 74, 61
1, 137743, Control_c, 0, 64, 83
1, 137758, Control_c, 0, 64, 60
1, 137759, Note_on_c, 0, 74, 89
1, 137759, Note_on_c, 0, 86, 89
1, 137761, Note_on_c, 0, 59, 60
1, 137761, Note_on_c, 0, 62, 77
1, 137766, Note_on_c, 0, 78, 74
1, 137768, Note_on_c, 0, 66, 86
1, 137773, Control_c, 0, 64, 0
1, 137832, Control_c, 0, 64, 43
1, 137847, Control_c, 0, 64, 58
1, 137862, Control_c, 0, 64, 67
1, 137877, Control_c, 0, 64, 77
1, 137892, Control_c, 0, 64, 95
1, 137907, Control_c, 0, 64, 125
1, 137921, Control_c, 0, 64, 127
1, 137935, Note_off_c, 0, 66, 58
1, 137977, Note_off_c, 0, 86, 40
1, 138036, Note_off_c, 0, 62, 56
1, 138046, Note_off_c, 0, 59, 37
1, 138052, Note_on_c, 0, 76, 86
1, 138059, Note_on_c, 0, 64, 75
1, 138062, Note_off_c, 0, 74, 60
1, 138077, Note_off_c, 0, 64, 67
1, 138077, Note_off_c, 0, 78, 63
1, 138090, Note_off_c, 0, 76, 62
1, 138330, Control_c, 0, 64, 94
1, 138344, Control_c, 0, 64, 66
1, 138347, Note_on_c, 0, 33, 87
1, 138348, Note_on_c, 0, 42, 84
1, 138348, Note_on_c, 0, 81, 92
1, 138351, Note_on_c, 0, 90, 92
1, 138359, Control_c, 0, 64, 0
1, 138404, Control_c, 0, 64, 46
1, 138418, Control_c, 0, 64, 64
1, 138433, Control_c, 0, 64, 79
1, 138448, Control_c, 0, 64, 127
1, 138478, Note_off_c, 0, 90, 57
1, 138479, Note_off_c, 0, 33, 60
1, 138487, Note_off_c, 0, 42, 63
1, 138498, Note_on_c, 0, 45, 77
1, 138509, Note_on_c, 0, 85, 84
1, 138509, Note_off_c, 0, 81, 59
1, 138515, Note_on_c, 0, 78, 82
1, 138528, Note_off_c, 0, 45, 67
1, 138543, Note_off_c, 0, 85, 60
1, 138548, Note_off_c, 0, 78, 60
1, 138643, Note_on_c, 0, 81, 82
1, 138643, Note_on_c, 0, 49, 71
1, 138648, Note_on_c, 0, 73, 80
1, 138671, Note_on_c, 0, 57, 48
1, 138735, Note_off_c, 0, 73, 58
1, 138756, Note_off_c, 0, 49, 59
1, 138756, Note_off_c, 0, 57, 56
1, 138772, Note_on_c, 0, 61, 80
1, 138773, Note_on_c, 0, 78, 81
1, 138774, Note_on_c, 0, 54, 67
1, 138780, Note_on_c, 0, 69, 72
1, 138793, Note_off_c, 0, 81, 41
1, 138795, Note_off_c, 0, 78, 67
1, 138795, Note_off_c, 0, 69, 67
1, 138804, Note_off_c, 0, 54, 65
1, 138811, Note_off_c, 0, 61, 58
1, 138816, Note_on_c, 0, 79, 39
1, 138852, Note_off_c, 0, 79, 56
1, 138908, Control_c, 0, 64, 105
1, 138923, Control_c, 0, 64, 72
1, 138935, Note_on_c, 0, 66, 95
1, 138938, Control_c, 0, 64, 52
1, 138939, Note_on_c, 0, 81, 71
1, 138947, Note_on_c, 0, 85, 68
1, 138949, Note_on_c, 0, 90, 89
1, 138952, Note_on_c, 0, 78, 83
1, 138953, Control_c, 0, 64, 0
1, 138997, Control_c, 0, 64, 44
1, 139011, Control_c, 0, 64, 59
1, 139026, Control_c, 0, 64, 68
1, 139048, Control_c, 0, 64, 78
1, 139063, Control_c, 0, 64, 94
1, 139078, Control_c, 0, 64, 127
1, 139117, Note_off_c, 0, 85, 62
1, 139129, Note_off_c, 0, 90, 39
1, 139130, Note_off_c, 0, 78, 61
1, 139181, Note_off_c, 0, 66, 54
1, 139242, Note_on_c, 0, 88, 97
1, 139246, Note_on_c, 0, 64, 80
1, 139248, Note_on_c, 0, 76, 88
1, 139260, Note_off_c, 0, 81, 58
1, 139293, Note_off_c, 0, 76, 64
1, 139301, Note_off_c, 0, 64, 64
1, 139315, Note_off_c, 0, 88, 64
1, 139537, Control_c, 0, 64, 88
1, 139552, Control_c, 0, 64, 66
1, 139564, Note_on_c, 0, 55, 83
1, 139564, Note_on_c, 0, 66, 95
1, 139565, Note_on_c, 0, 95, 97
1, 139567, Note_on_c, 0, 83, 94
1, 139567, Control_c, 0, 64, 46
1, 139568, Note_on_c, 0, 90, 87
1, 139569, Note_on_c, 0, 60, 85
1, 139582, Control_c, 0, 64, 0
1, 139611, Control_c, 0, 64, 46
1, 139614, Note_off_c, 0, 66, 63
1, 139626, Control_c, 0, 64, 67
1, 139629, Note_off_c, 0, 60, 65
1, 139641, Control_c, 0, 64, 100
1, 139644, Note_off_c, 0, 55, 64
1, 139656, Note_off_c, 0, 90, 57
1, 139656, Control_c, 0, 64, 127
1, 139687, Note_off_c, 0, 83, 62
1, 139704, Note_off_c, 0, 95, 58
1, 139910, Note_on_c, 0, 38, 81
1, 139911, Note_on_c, 0, 45, 91
1, 139919, Note_on_c, 0, 88, 96
1, 139922, Note_on_c, 0, 76, 87
1, 139956, Note_off_c, 0, 38, 61
1, 139957, Note_off_c, 0, 45, 64
1, 139994, Note_off_c, 0, 76, 60
1, 140053, Note_off_c, 0, 88, 63
1, 140250, Note_on_c, 0, 66, 90
1, 140253, Note_on_c, 0, 83, 95
1, 140253, Note_on_c, 0, 90, 94
1, 140256, Note_on_c, 0, 95, 99
1, 140258, Note_on_c, 0, 54, 78
1, 140262, Note_on_c, 0, 60, 75
1, 140321, Note_off_c, 0, 54, 60
1, 140321, Note_off_c, 0, 60, 63
1, 140368, Note_off_c, 0, 66, 61
1, 140655, Note_on_c, 0, 64, 85
1, 140658, Note_on_c, 0, 76, 89
1, 140661, Note_on_c, 0, 88, 94
1, 140668, Note_off_c, 0, 95, 65
1, 140688, Note_off_c, 0, 90, 62
1, 140690, Note_off_c, 0, 83, 62
1, 140700, Note_off_c, 0, 76, 62
1, 140723, Note_off_c, 0, 88, 66
1, 140734, Note_off_c, 0, 64, 64
1, 141169, Control_c, 0, 64, 86
1, 141183, Control_c, 0, 64, 37
1, 141191, Note_on_c, 0, 31, 92
1, 141191, Note_on_c, 0, 43, 98
1, 141198, Control_c, 0, 64, 0
1, 141251, Note_off_c, 0, 31, 64
1, 141259, Control_c, 0, 64, 79
1, 141281, Control_c, 0, 64, 127
1, 141282, Note_off_c, 0, 43, 65
1, 141752, Note_on_c, 0, 83, 92
1, 141754, Note_on_c, 0, 55, 66
1, 141755, Note_on_c, 0, 95, 87
1, 141762, Note_on_c, 0, 47, 61
1, 141895, Note_off_c, 0, 83, 60
1, 141896, Note_off_c, 0, 95, 61
1, 141987, Note_on_c, 0, 81, 88
1, 141989, Note_on_c, 0, 93, 92
1, 142098, Note_off_c, 0, 81, 59
1, 142102, Note_off_c, 0, 93, 65
1, 142173, Note_on_c, 0, 91, 94
1, 142175, Note_on_c, 0, 79, 87
1, 142180, Note_on_c, 0, 50, 60
1, 142180, Note_on_c, 0, 59, 58
1, 142205, Note_off_c, 0, 55, 61
1, 142208, Note_off_c, 0, 47, 49
1, 142232, Note_off_c, 0, 50, 60
1, 142241, Note_off_c, 0, 79, 65
1, 142322, Note_on_c, 0, 90, 85
1, 142323, Note_on_c, 0, 78, 86
1, 142340, Note_off_c, 0, 59, 38
1, 142355, Note_off_c, 0, 91, 58
1, 142381, Note_off_c, 0, 90, 66
1, 142385, Note_off_c, 0, 78, 63
1, 142457, Note_on_c, 0, 52, 61
1, 142460, Note_on_c, 0, 88, 86
1, 142464, Note_on_c, 0, 59, 45
1, 142464, Note_on_c, 0, 76, 82
1, 142511, Note_off_c, 0, 76, 65
1, 142516, Note_off_c, 0, 88, 65
1, 142581, Note_on_c, 0, 86, 85
1, 142588, Note_on_c, 0, 74, 78
1, 142628, Note_off_c, 0, 74, 63
1, 142659, Note_off_c, 0, 86, 53
1, 142697, Note_on_c, 0, 85, 85
1, 142700, Note_on_c, 0, 73, 85
1, 142702, Note_off_c, 0, 59, 55
1, 142705, Note_on_c, 0, 55, 61
1, 142712, Note_on_c, 0, 64, 57
1, 142743, Note_off_c, 0, 85, 65
1, 142750, Note_off_c, 0, 73, 61
1, 142758, Note_off_c, 0, 52, 49
1, 142817, Note_on_c, 0, 83, 83
1, 142825, Note_on_c, 0, 71, 75
1, 142865, Note_off_c, 0, 71, 62
1, 142866, Note_off_c, 0, 83, 65
1, 142874, Note_off_c, 0, 64, 35
1, 142932, Note_on_c, 0, 52, 57
1, 142934, Note_on_c, 0, 81, 91
1, 142940, Note_on_c, 0, 61, 48
1, 142947, Note_on_c, 0, 69, 71
1, 142965, Note_off_c, 0, 61, 59
1, 142970, Note_off_c, 0, 55, 26
1, 142973, Note_off_c, 0, 52, 62
1, 142977, Note_off_c, 0, 69, 63
1, 142983, Note_off_c, 0, 81, 63
1, 143041, Note_on_c, 0, 79, 88
1, 143051, Note_on_c, 0, 67, 77
1, 143084, Note_off_c, 0, 67, 64
1, 143087, Note_off_c, 0, 79, 65
1, 143176, Note_on_c, 0, 78, 88
1, 143178, Note_on_c, 0, 66, 78
1, 143192, Control_c, 0, 64, 65
1, 143207, Control_c, 0, 64, 0
1, 143286, Note_on_c, 0, 76, 77
1, 143341, Control_c, 0, 64, 56
1, 143356, Control_c, 0, 64, 127
1, 143364, Note_off_c, 0, 78, 52
1, 143422, Note_on_c, 0, 42, 86
1, 143422, Note_off_c, 0, 76, 52
1, 143430, Note_on_c, 0, 30, 70
1, 143430, Note_on_c, 0, 74, 82
1, 143460, Note_off_c, 0, 30, 63
1, 143466, Note_off_c, 0, 42, 63
1, 143482, Note_off_c, 0, 66, 53
1, 143520, Note_off_c, 0, 74, 58
1, 143566, Note_on_c, 0, 73, 89
1, 143603, Note_off_c, 0, 73, 63
1, 143752, Note_on_c, 0, 81, 88
1, 143753, Note_on_c, 0, 93, 89
1, 143757, Note_on_c, 0, 54, 58
1, 143759, Note_on_c, 0, 45, 58
1, 143812, Note_off_c, 0, 81, 61
1, 143820, Note_off_c, 0, 93, 64
1, 143918, Note_on_c, 0, 91, 89
1, 143922, Note_on_c, 0, 79, 84
1, 143968, Note_off_c, 0, 79, 66
1, 144000, Note_off_c, 0, 91, 56
1, 144016, Note_off_c, 0, 45, 0
1, 144040, Note_off_c, 0, 54, 61
1, 144047, Note_on_c, 0, 57, 66
1, 144053, Note_on_c, 0, 90, 82
1, 144053, Poly_aftertouch_c, 0, 45, 127
1, 144057, Note_on_c, 0, 78, 82
1, 144064, Note_on_c, 0, 49, 57
1, 144098, Poly_aftertouch_c, 0, 45, 0
1, 144101, Note_off_c, 0, 49, 64
1, 144104, Note_off_c, 0, 90, 65
1, 144106, Note_off_c, 0, 78, 62
1, 144124, Note_off_c, 0, 57, 57
1, 144169, Note_on_c, 0, 88, 85
1, 144178, Note_on_c, 0, 76, 79
1, 144220, Note_off_c, 0, 88, 66
1, 144221, Note_off_c, 0, 76, 62
1, 144292, Note_on_c, 0, 86, 85
1, 144296, Note_on_c, 0, 57, 55
1, 144303, Note_on_c, 0, 74, 75
1, 144326, Note_on_c, 0, 50, 34
1, 144332, Note_off_c, 0, 74, 64
1, 144336, Note_on_c, 0, 48, 30
1, 144348, Note_off_c, 0, 86, 58
1, 144376, Note_off_c, 0, 48, 53
1, 144400, Note_on_c, 0, 85, 80
1, 144404, Note_on_c, 0, 73, 82
1, 144447, Note_off_c, 0, 73, 60
1, 144447, Note_off_c, 0, 85, 63
1, 144500, Note_off_c, 0, 50, 42
1, 144517, Note_on_c, 0, 83, 79
1, 144527, Note_on_c, 0, 71, 65
1, 144529, Note_on_c, 0, 54, 61
1, 144532, Note_on_c, 0, 62, 54
1, 144545, Note_off_c, 0, 57, 41
1, 144559, Note_off_c, 0, 71, 65
1, 144563, Note_off_c, 0, 83, 63
1, 144624, Note_on_c, 0, 81, 79
1, 144639, Note_on_c, 0, 69, 60
1, 144661, Note_off_c, 0, 62, 44
1, 144670, Note_off_c, 0, 54, 46
1, 144673, Note_off_c, 0, 81, 62
1, 144675, Note_off_c, 0, 69, 62
1, 144723, Note_on_c, 0, 50, 56
1, 144727, Note_on_c, 0, 59, 52
1, 144740, Note_on_c, 0, 79, 80
1, 144748, Note_on_c, 0, 67, 65
1, 144748, Note_off_c, 0, 59, 62
1, 144757, Note_off_c, 0, 50, 63
1, 144776, Note_off_c, 0, 67, 67
1, 144792, Note_off_c, 0, 79, 65
1, 144847, Note_on_c, 0, 78, 75
1, 144855, Note_on_c, 0, 66, 69
1, 144886, Note_off_c, 0, 66, 64
1, 144894, Note_off_c, 0, 78, 62
1, 144956, Control_c, 0, 64, 96
1, 144971, Note_on_c, 0, 76, 76
1, 144971, Control_c, 0, 64, 52
1, 144977, Note_on_c, 0, 64, 63
1, 144986, Control_c, 0, 64, 0
1, 145097, Note_on_c, 0, 74, 64
1, 145098, Control_c, 0, 64, 62
1, 145112, Control_c, 0, 64, 90
1, 145127, Control_c, 0, 64, 127
1, 145218, Note_on_c, 0, 28, 60
1, 145223, Note_on_c, 0, 40, 66
1, 145231, Note_on_c, 0, 73, 66
1, 145244, Note_off_c, 0, 74, 61
1, 145251, Note_off_c, 0, 40, 64
1, 145252, Note_off_c, 0, 28, 62
1, 145262, Note_off_c, 0, 76, 38
1, 145266, Note_off_c, 0, 64, 58
1, 145329, Note_off_c, 0, 73, 48
1, 145357, Note_on_c, 0, 71, 66
1, 145383, Note_off_c, 0, 71, 67
1, 145530, Note_on_c, 0, 43, 46
1, 145538, Note_on_c, 0, 51, 46
1, 145544, Note_on_c, 0, 91, 73
1, 145555, Note_on_c, 0, 79, 48
1, 145569, Note_off_c, 0, 51, 52
1, 145591, Note_on_c, 0, 52, 40
1, 145594, Note_off_c, 0, 79, 65
1, 145655, Note_off_c, 0, 91, 52
1, 145702, Note_on_c, 0, 90, 72
1, 145707, Note_on_c, 0, 78, 71
1, 145753, Note_off_c, 0, 90, 61
1, 145756, Note_off_c, 0, 78, 61
1, 145798, Note_off_c, 0, 52, 37
1, 145827, Note_on_c, 0, 47, 52
1, 145830, Note_on_c, 0, 55, 56
1, 145838, Note_off_c, 0, 43, 50
1, 145845, Note_on_c, 0, 88, 74
1, 145854, Note_on_c, 0, 76, 60
1, 145859, Note_off_c, 0, 47, 65
1, 145865, Note_off_c, 0, 55, 65
1, 145882, Note_off_c, 0, 76, 59
1, 145886, Note_off_c, 0, 88, 60
1, 145960, Note_on_c, 0, 86, 75
1, 145970, Note_on_c, 0, 74, 63
1, 145999, Note_off_c, 0, 74, 65
1, 146015, Note_off_c, 0, 86, 62
1, 146056, Control_c, 0, 64, 84
1, 146065, Note_on_c, 0, 55, 55
1, 146068, Note_on_c, 0, 49, 53
1, 146071, Control_c, 0, 64, 66
1, 146074, Note_on_c, 0, 85, 69
1, 146082, Note_on_c, 0, 73, 68
1, 146085, Control_c, 0, 64, 57
1, 146100, Control_c, 0, 64, 54
1, 146115, Note_off_c, 0, 85, 62
1, 146115, Control_c, 0, 64, 57
1, 146117, Note_off_c, 0, 73, 64
1, 146129, Control_c, 0, 64, 64
1, 146144, Control_c, 0, 64, 71
1, 146159, Control_c, 0, 64, 83
1, 146174, Control_c, 0, 64, 96
1, 146189, Control_c, 0, 64, 112
1, 146195, Note_on_c, 0, 83, 72
1, 146203, Control_c, 0, 64, 127
1, 146209, Note_on_c, 0, 71, 57
1, 146239, Note_off_c, 0, 83, 57
1, 146245, Note_off_c, 0, 71, 62
1, 146263, Control_c, 0, 64, 94
1, 146277, Control_c, 0, 64, 75
1, 146292, Control_c, 0, 64, 64
1, 146307, Control_c, 0, 64, 61
1, 146313, Note_on_c, 0, 52, 50
1, 146315, Note_off_c, 0, 55, 58
1, 146322, Control_c, 0, 64, 65
1, 146328, Note_on_c, 0, 81, 69
1, 146328, Note_on_c, 0, 61, 46
1, 146337, Control_c, 0, 64, 74
1, 146341, Note_on_c, 0, 69, 49
1, 146351, Control_c, 0, 64, 86
1, 146362, Note_off_c, 0, 81, 62
1, 146366, Control_c, 0, 64, 102
1, 146372, Note_off_c, 0, 69, 60
1, 146381, Control_c, 0, 64, 106
1, 146396, Control_c, 0, 64, 98
1, 146411, Control_c, 0, 64, 80
1, 146411, Note_off_c, 0, 49, 43
1, 146426, Control_c, 0, 64, 64
1, 146441, Control_c, 0, 64, 50
1, 146456, Note_on_c, 0, 79, 68
1, 146456, Control_c, 0, 64, 45
1, 146465, Note_on_c, 0, 67, 48
1, 146470, Control_c, 0, 64, 53
1, 146485, Control_c, 0, 64, 62
1, 146489, Note_off_c, 0, 67, 62
1, 146500, Control_c, 0, 64, 69
1, 146515, Control_c, 0, 64, 76
1, 146536, Control_c, 0, 64, 85
1, 146539, Note_off_c, 0, 79, 50
1, 146546, Note_on_c, 0, 57, 56
1, 146551, Control_c, 0, 64, 95
1, 146560, Note_on_c, 0, 49, 43
1, 146566, Control_c, 0, 64, 120
1, 146575, Note_off_c, 0, 61, 35
1, 146576, Note_off_c, 0, 57, 65
1, 146581, Control_c, 0, 64, 127
1, 146590, Note_on_c, 0, 78, 68
1, 146598, Note_off_c, 0, 49, 54
1, 146600, Note_off_c, 0, 52, 23
1, 146603, Note_on_c, 0, 66, 51
1, 146630, Note_off_c, 0, 66, 58
1, 146632, Note_off_c, 0, 78, 59
1, 146733, Note_on_c, 0, 64, 56
1, 146774, Note_off_c, 0, 64, 59
1, 146818, Control_c, 0, 64, 117
1, 146833, Control_c, 0, 64, 102
1, 146849, Control_c, 0, 64, 93
1, 146864, Control_c, 0, 64, 83
1, 146879, Control_c, 0, 64, 72
1, 146881, Note_on_c, 0, 42, 45
1, 146893, Control_c, 0, 64, 58
1, 146900, Note_on_c, 0, 62, 58
1, 146908, Control_c, 0, 64, 0
1, 146959, Note_on_c, 0, 74, 55
1, 146989, Note_off_c, 0, 62, 60
1, 147012, Control_c, 0, 64, 45
1, 147026, Control_c, 0, 64, 64
1, 147035, Note_off_c, 0, 74, 63
1, 147041, Control_c, 0, 64, 79
1, 147056, Control_c, 0, 64, 127
1, 147122, Note_on_c, 0, 58, 52
1, 147290, Note_off_c, 0, 58, 35
1, 147299, Note_on_c, 0, 50, 52
1, 147307, Note_on_c, 0, 78, 56
1, 147379, Note_off_c, 0, 42, 40
1, 147416, Note_off_c, 0, 78, 52
1, 147445, Note_on_c, 0, 91, 61
1, 147474, Note_on_c, 0, 58, 35
1, 147522, Note_on_c, 0, 90, 67
1, 147543, Note_off_c, 0, 50, 32
1, 147562, Note_off_c, 0, 91, 59
1, 147592, Note_off_c, 0, 90, 59
1, 147597, Control_c, 0, 64, 107
1, 147609, Note_off_c, 0, 58, 35
1, 147612, Control_c, 0, 64, 84
1, 147618, Note_on_c, 0, 43, 45
1, 147624, Note_on_c, 0, 76, 60
1, 147626, Control_c, 0, 64, 71
1, 147641, Control_c, 0, 64, 63
1, 147657, Control_c, 0, 64, 57
1, 147672, Control_c, 0, 64, 56
1, 147687, Control_c, 0, 64, 59
1, 147696, Note_off_c, 0, 76, 60
1, 147702, Control_c, 0, 64, 64
1, 147713, Note_on_c, 0, 90, 65
1, 147717, Control_c, 0, 64, 67
1, 147731, Control_c, 0, 64, 71
1, 147746, Control_c, 0, 64, 75
1, 147757, Note_on_c, 0, 58, 44
1, 147761, Control_c, 0, 64, 78
1, 147775, Control_c, 0, 64, 80
1, 147790, Control_c, 0, 64, 82
1, 147798, Note_on_c, 0, 88, 62
1, 147805, Control_c, 0, 64, 84
1, 147820, Control_c, 0, 64, 86
1, 147833, Note_off_c, 0, 90, 44
1, 147835, Control_c, 0, 64, 86
1, 147842, Note_off_c, 0, 88, 64
1, 147849, Control_c, 0, 64, 88
1, 147864, Control_c, 0, 64, 89
1, 147872, Note_on_c, 0, 50, 47
1, 147883, Note_on_c, 0, 74, 68
1, 147893, Control_c, 0, 64, 84
1, 147909, Control_c, 0, 64, 70
1, 147918, Note_off_c, 0, 43, 33
1, 147924, Control_c, 0, 64, 51
1, 147935, Note_off_c, 0, 58, 41
1, 147939, Control_c, 0, 64, 0
1, 147956, Note_off_c, 0, 74, 61
1, 147967, Note_on_c, 0, 88, 69
1, 147998, Control_c, 0, 64, 31
1, 148013, Control_c, 0, 64, 46
1, 148029, Note_on_c, 0, 59, 26
1, 148036, Control_c, 0, 64, 58
1, 148045, Note_off_c, 0, 50, 37
1, 148050, Control_c, 0, 64, 66
1, 148056, Note_on_c, 0, 86, 61
1, 148065, Control_c, 0, 64, 72
1, 148080, Control_c, 0, 64, 77
1, 148085, Note_off_c, 0, 59, 60
1, 148092, Note_off_c, 0, 88, 54
1, 148095, Control_c, 0, 64, 80
1, 148108, Note_off_c, 0, 86, 64
1, 148109, Control_c, 0, 64, 81
1, 148128, Note_on_c, 0, 45, 53
1, 148139, Control_c, 0, 64, 78
1, 148143, Note_on_c, 0, 73, 57
1, 148154, Control_c, 0, 64, 70
1, 148169, Control_c, 0, 64, 62
1, 148183, Control_c, 0, 64, 56
1, 148198, Control_c, 0, 64, 61
1, 148207, Note_off_c, 0, 73, 56
1, 148213, Control_c, 0, 64, 68
1, 148219, Note_on_c, 0, 86, 66
1, 148220, Note_off_c, 0, 45, 46
1, 148228, Control_c, 0, 64, 77
1, 148243, Control_c, 0, 64, 90
1, 148245, Note_on_c, 0, 61, 52
1, 148257, Control_c, 0, 64, 127
1, 148292, Note_on_c, 0, 85, 69
1, 148322, Note_off_c, 0, 61, 53
1, 148331, Note_off_c, 0, 86, 59
1, 148346, Note_off_c, 0, 85, 60
1, 148346, Control_c, 0, 64, 82
1, 148361, Control_c, 0, 64, 64
1, 148366, Note_on_c, 0, 47, 61
1, 148375, Control_c, 0, 64, 55
1, 148387, Note_on_c, 0, 71, 65
1, 148390, Control_c, 0, 64, 54
1, 148405, Control_c, 0, 64, 59
1, 148420, Control_c, 0, 64, 65
1, 148429, Note_off_c, 0, 71, 61
1, 148435, Control_c, 0, 64, 75
1, 148451, Control_c, 0, 64, 92
1, 148462, Note_on_c, 0, 85, 71
1, 148466, Control_c, 0, 64, 127
1, 148481, Note_off_c, 0, 47, 53
1, 148488, Note_on_c, 0, 62, 58
1, 148516, Poly_aftertouch_c, 0, 55, 127
1, 148525, Control_c, 0, 64, 118
1, 148526, Note_on_c, 0, 83, 72
1, 148539, Control_c, 0, 64, 81
1, 148550, Note_off_c, 0, 62, 59
1, 148553, Note_off_c, 0, 85, 62
1, 148554, Control_c, 0, 64, 64
1, 148569, Control_c, 0, 64, 57
1, 148576, Note_off_c, 0, 83, 65
1, 148584, Control_c, 0, 64, 58
1, 148599, Control_c, 0, 64, 64
1, 148614, Control_c, 0, 64, 72
1, 148621, Note_on_c, 0, 69, 63
1, 148627, Note_on_c, 0, 48, 48
1, 148629, Control_c, 0, 64, 87
1, 148642, Note_on_c, 0, 49, 33
1, 148644, Control_c, 0, 64, 127
1, 148670, Note_off_c, 0, 69, 54
1, 148687, Poly_aftertouch_c, 0, 55, 0
1, 148687, Control_c, 0, 64, 107
1, 148698, Note_on_c, 0, 83, 68
1, 148702, Control_c, 0, 64, 76
1, 148716, Control_c, 0, 64, 61
1, 148717, Note_off_c, 0, 48, 63
1, 148718, Note_on_c, 0, 63, 55
1, 148727, Note_off_c, 0, 49, 51
1, 148731, Control_c, 0, 64, 55
1, 148746, Control_c, 0, 64, 61
1, 148761, Control_c, 0, 64, 67
1, 148776, Note_on_c, 0, 81, 71
1, 148784, Control_c, 0, 64, 76
1, 148798, Control_c, 0, 64, 89
1, 148799, Note_off_c, 0, 63, 48
1, 148802, Note_off_c, 0, 83, 51
1, 148813, Control_c, 0, 64, 119
1, 148828, Control_c, 0, 64, 127
1, 148834, Note_on_c, 0, 49, 67
1, 148837, Note_off_c, 0, 81, 62
1, 148858, Note_on_c, 0, 67, 68
1, 148887, Control_c, 0, 64, 116
1, 148902, Control_c, 0, 64, 79
1, 148916, Note_off_c, 0, 67, 58
1, 148917, Control_c, 0, 64, 63
1, 148928, Note_on_c, 0, 81, 69
1, 148931, Control_c, 0, 64, 56
1, 148946, Control_c, 0, 64, 60
1, 148961, Control_c, 0, 64, 67
1, 148974, Note_off_c, 0, 49, 52
1, 148976, Control_c, 0, 64, 77
1, 148991, Control_c, 0, 64, 96
1, 148993, Note_on_c, 0, 79, 71
1, 149005, Control_c, 0, 64, 127
1, 149019, Note_off_c, 0, 81, 60
1, 149049, Control_c, 0, 64, 109
1, 149063, Note_on_c, 0, 66, 69
1, 149064, Control_c, 0, 64, 73
1, 149079, Control_c, 0, 64, 53
1, 149088, Note_on_c, 0, 50, 61
1, 149094, Control_c, 0, 64, 0
1, 149118, Note_off_c, 0, 79, 55
1, 149129, Note_on_c, 0, 78, 71
1, 149135, Note_off_c, 0, 66, 62
1, 149153, Control_c, 0, 64, 49
1, 149168, Control_c, 0, 64, 63
1, 149180, Note_on_c, 0, 54, 52
1, 149183, Control_c, 0, 64, 75
1, 149195, Note_off_c, 0, 78, 65
1, 149198, Control_c, 0, 64, 90
1, 149213, Control_c, 0, 64, 113
1, 149225, Note_off_c, 0, 50, 58
1, 149228, Control_c, 0, 64, 127
1, 149240, Note_on_c, 0, 57, 62
1, 149268, Note_off_c, 0, 54, 61
1, 149288, Note_off_c, 0, 57, 60
1, 149294, Note_on_c, 0, 62, 57
1, 149332, Control_c, 0, 64, 90
1, 149342, Note_off_c, 0, 62, 59
1, 149347, Control_c, 0, 64, 70
1, 149362, Control_c, 0, 64, 62
1, 149373, Note_on_c, 0, 78, 65
1, 149377, Control_c, 0, 64, 59
1, 149377, Note_on_c, 0, 52, 66
1, 149392, Control_c, 0, 64, 62
1, 149407, Control_c, 0, 64, 66
1, 149421, Control_c, 0, 64, 75
1, 149436, Control_c, 0, 64, 92
1, 149451, Control_c, 0, 64, 127
1, 149461, Note_off_c, 0, 78, 54
1, 149465, Note_on_c, 0, 91, 64
1, 149479, Note_off_c, 0, 52, 58
1, 149495, Note_on_c, 0, 67, 69
1, 149532, Control_c, 0, 64, 106
1, 149544, Note_on_c, 0, 90, 71
1, 149547, Control_c, 0, 64, 80
1, 149562, Control_c, 0, 64, 66
1, 149577, Control_c, 0, 64, 60
1, 149583, Note_off_c, 0, 91, 46
1, 149591, Note_off_c, 0, 67, 63
1, 149601, Note_off_c, 0, 90, 60
1, 149607, Control_c, 0, 64, 64
1, 149609, Note_on_c, 0, 53, 73
1, 149621, Control_c, 0, 64, 71
1, 149631, Note_on_c, 0, 76, 72
1, 149636, Control_c, 0, 64, 81
1, 149651, Control_c, 0, 64, 101
1, 149666, Control_c, 0, 64, 127
1, 149681, Note_off_c, 0, 76, 64
1, 149707, Note_off_c, 0, 53, 61
1, 149710, Note_on_c, 0, 90, 74
1, 149710, Control_c, 0, 64, 120
1, 149725, Control_c, 0, 64, 85
1, 149740, Note_on_c, 0, 68, 76
1, 149740, Control_c, 0, 64, 68
1, 149754, Control_c, 0, 64, 61
1, 149769, Control_c, 0, 64, 63
1, 149779, Note_on_c, 0, 88, 73
1, 149784, Control_c, 0, 64, 69
1, 149799, Control_c, 0, 64, 80
1, 149806, Note_off_c, 0, 90, 62
1, 149814, Control_c, 0, 64, 102
1, 149818, Note_off_c, 0, 88, 64
1, 149828, Control_c, 0, 64, 127
1, 149831, Note_off_c, 0, 68, 60
1, 149841, Note_on_c, 0, 54, 81
1, 149861, Note_on_c, 0, 74, 74
1, 149887, Control_c, 0, 64, 88
1, 149902, Control_c, 0, 64, 68
1, 149917, Control_c, 0, 64, 58
1, 149923, Note_off_c, 0, 74, 63
1, 149932, Control_c, 0, 64, 56
1, 149933, Note_on_c, 0, 88, 73
1, 149946, Control_c, 0, 64, 62
1, 149961, Control_c, 0, 64, 68
1, 149964, Note_on_c, 0, 69, 68
1, 149972, Note_off_c, 0, 54, 60
1, 149976, Control_c, 0, 64, 78
1, 149991, Control_c, 0, 64, 94
1, 150004, Note_on_c, 0, 86, 72
1, 150006, Control_c, 0, 64, 127
1, 150021, Note_off_c, 0, 88, 55
1, 150036, Control_c, 0, 64, 111
1, 150047, Note_off_c, 0, 69, 55
1, 150050, Note_off_c, 0, 86, 65
1, 150051, Control_c, 0, 64, 74
1, 150066, Control_c, 0, 64, 49
1, 150071, Note_on_c, 0, 55, 77
1, 150081, Control_c, 0, 64, 0
1, 150090, Note_on_c, 0, 73, 71
1, 150140, Control_c, 0, 64, 44
1, 150154, Note_off_c, 0, 73, 62
1, 150155, Control_c, 0, 64, 61
1, 150170, Note_on_c, 0, 86, 72
1, 150170, Control_c, 0, 64, 71
1, 150185, Control_c, 0, 64, 87
1, 150191, Note_on_c, 0, 71, 74
1, 150192, Note_off_c, 0, 55, 48
1, 150200, Control_c, 0, 64, 127
1, 150240, Note_on_c, 0, 85, 73
1, 150248, Note_off_c, 0, 71, 62
1, 150260, Note_off_c, 0, 86, 58
1, 150281, Control_c, 0, 64, 98
1, 150295, Note_off_c, 0, 85, 63
1, 150295, Control_c, 0, 64, 66
1, 150310, Control_c, 0, 64, 0
1, 150313, Note_on_c, 0, 57, 85
1, 150324, Note_on_c, 0, 71, 67
1, 150379, Note_off_c, 0, 71, 66
1, 150385, Control_c, 0, 64, 30
1, 150400, Control_c, 0, 64, 59
1, 150405, Note_on_c, 0, 85, 75
1, 150414, Control_c, 0, 64, 69
1, 150425, Note_on_c, 0, 61, 71
1, 150429, Control_c, 0, 64, 81
1, 150444, Control_c, 0, 64, 109
1, 150459, Control_c, 0, 64, 127
1, 150479, Note_on_c, 0, 83, 74
1, 150496, Note_off_c, 0, 85, 62
1, 150503, Control_c, 0, 64, 87
1, 150518, Control_c, 0, 64, 58
1, 150519, Note_off_c, 0, 83, 62
1, 150533, Control_c, 0, 64, 0
1, 150546, Note_on_c, 0, 59, 74
1, 150564, Note_on_c, 0, 69, 76
1, 150564, Note_off_c, 0, 57, 28
1, 150569, Note_off_c, 0, 61, 60
1, 150622, Control_c, 0, 64, 31
1, 150629, Note_off_c, 0, 69, 64
1, 150637, Control_c, 0, 64, 66
1, 150646, Note_on_c, 0, 83, 74
1, 150651, Control_c, 0, 64, 83
1, 150664, Note_on_c, 0, 62, 73
1, 150666, Control_c, 0, 64, 105
1, 150681, Control_c, 0, 64, 122
1, 150695, Control_c, 0, 64, 127
1, 150701, Note_off_c, 0, 59, 54
1, 150706, Note_on_c, 0, 81, 80
1, 150740, Control_c, 0, 64, 125
1, 150751, Note_off_c, 0, 83, 56
1, 150755, Control_c, 0, 64, 86
1, 150764, Note_off_c, 0, 81, 64
1, 150769, Control_c, 0, 64, 56
1, 150774, Note_off_c, 0, 62, 62
1, 150777, Note_on_c, 0, 61, 68
1, 150784, Control_c, 0, 64, 0
1, 150795, Note_on_c, 0, 67, 76
1, 150868, Note_off_c, 0, 67, 61
1, 150871, Note_on_c, 0, 81, 80
1, 150880, Note_off_c, 0, 61, 62
1, 150882, Note_on_c, 0, 64, 66
1, 150889, Control_c, 0, 64, 57
1, 150905, Control_c, 0, 64, 93
1, 150919, Control_c, 0, 64, 127
1, 150940, Note_on_c, 0, 79, 84
1, 150942, Note_off_c, 0, 64, 62
1, 151051, Note_off_c, 0, 81, 37
1, 151058, Note_on_c, 0, 78, 86
1, 151061, Control_c, 0, 64, 69
1, 151069, Note_on_c, 0, 62, 81
1, 151075, Control_c, 0, 64, 0
1, 151087, Note_off_c, 0, 79, 64
1, 151176, Note_on_c, 0, 66, 70
1, 151179, Control_c, 0, 64, 35
1, 151186, Note_off_c, 0, 78, 63
1, 151193, Control_c, 0, 64, 86
1, 151208, Control_c, 0, 64, 127
1, 151257, Note_on_c, 0, 69, 80
1, 151273, Note_off_c, 0, 66, 61
1, 151296, Note_off_c, 0, 62, 60
1, 151326, Note_off_c, 0, 69, 61
1, 151344, Note_on_c, 0, 74, 82
1, 151404, Note_off_c, 0, 74, 62
1, 151488, Note_on_c, 0, 90, 96
1, 151500, Note_on_c, 0, 78, 63
1, 151580, Note_off_c, 0, 78, 39
1, 151659, Note_on_c, 0, 81, 58
1, 151663, Note_on_c, 0, 91, 97
1, 151692, Note_off_c, 0, 90, 62
1, 151786, Note_off_c, 0, 81, 39
1, 151801, Note_on_c, 0, 90, 89
1, 151809, Note_on_c, 0, 78, 49
1, 151846, Note_off_c, 0, 91, 59
1, 151866, Note_off_c, 0, 78, 46
1, 151916, Note_on_c, 0, 88, 92
1, 151918, Note_on_c, 0, 76, 54
1, 151930, Note_off_c, 0, 90, 65
1, 151956, Note_off_c, 0, 76, 63
1, 152015, Note_on_c, 0, 79, 53
1, 152023, Note_off_c, 0, 88, 65
1, 152025, Note_on_c, 0, 90, 89
1, 152062, Note_off_c, 0, 79, 59
1, 152099, Note_on_c, 0, 76, 60
1, 152111, Note_on_c, 0, 88, 92
1, 152151, Note_off_c, 0, 76, 60
1, 152163, Note_off_c, 0, 90, 52
1, 152182, Note_off_c, 0, 88, 66
1, 152188, Note_on_c, 0, 74, 61
1, 152190, Note_on_c, 0, 86, 88
1, 152228, Note_off_c, 0, 74, 60
1, 152272, Note_off_c, 0, 86, 57
1, 152275, Note_on_c, 0, 78, 52
1, 152279, Note_on_c, 0, 88, 93
1, 152319, Note_off_c, 0, 78, 58
1, 152339, Note_off_c, 0, 88, 63
1, 152348, Note_on_c, 0, 74, 59
1, 152357, Note_on_c, 0, 86, 90
1, 152400, Note_off_c, 0, 74, 56
1, 152430, Note_on_c, 0, 85, 89
1, 152431, Control_c, 0, 64, 92
1, 152434, Note_on_c, 0, 73, 60
1, 152440, Note_off_c, 0, 86, 59
1, 152447, Control_c, 0, 64, 69
1, 152462, Control_c, 0, 64, 50
1, 152477, Control_c, 0, 64, 0
1, 152481, Note_off_c, 0, 73, 60
1, 152514, Note_on_c, 0, 86, 79
1, 152525, Note_off_c, 0, 85, 65
1, 152528, Note_on_c, 0, 76, 63
1, 152528, Control_c, 0, 64, 45
1, 152543, Control_c, 0, 64, 60
1, 152558, Control_c, 0, 64, 67
1, 152573, Control_c, 0, 64, 70
1, 152579, Note_off_c, 0, 76, 56
1, 152585, Note_on_c, 0, 85, 76
1, 152587, Control_c, 0, 64, 72
1, 152602, Control_c, 0, 64, 73
1, 152609, Note_on_c, 0, 73, 58
1, 152623, Note_off_c, 0, 86, 60
1, 152632, Control_c, 0, 64, 71
1, 152644, Note_off_c, 0, 73, 64
1, 152647, Control_c, 0, 64, 66
1, 152662, Control_c, 0, 64, 61
1, 152668, Note_on_c, 0, 83, 79
1, 152670, Note_off_c, 0, 85, 68
1, 152674, Note_on_c, 0, 71, 56
1, 152677, Control_c, 0, 64, 56
1, 152691, Control_c, 0, 64, 57
1, 152706, Control_c, 0, 64, 61
1, 152712, Note_off_c, 0, 71, 65
1, 152721, Control_c, 0, 64, 65
1, 152722, Note_off_c, 0, 83, 64
1, 152736, Control_c, 0, 64, 69
1, 152742, Note_on_c, 0, 85, 75
1, 152751, Control_c, 0, 64, 72
1, 152760, Note_on_c, 0, 74, 52
1, 152765, Control_c, 0, 64, 74
1, 152780, Control_c, 0, 64, 74
1, 152795, Control_c, 0, 64, 73
1, 152801, Note_off_c, 0, 74, 61
1, 152810, Control_c, 0, 64, 69
1, 152811, Note_on_c, 0, 83, 78
1, 152824, Control_c, 0, 64, 63
1, 152827, Note_on_c, 0, 71, 59
1, 152839, Control_c, 0, 64, 57
1, 152841, Note_off_c, 0, 85, 56
1, 152867, Note_off_c, 0, 83, 64
1, 152869, Control_c, 0, 64, 60
1, 152870, Note_off_c, 0, 71, 64
1, 152884, Control_c, 0, 64, 64
1, 152888, Note_on_c, 0, 81, 77
1, 152894, Note_on_c, 0, 69, 57
1, 152898, Control_c, 0, 64, 69
1, 152913, Control_c, 0, 64, 74
1, 152928, Control_c, 0, 64, 78
1, 152935, Note_off_c, 0, 69, 63
1, 152943, Control_c, 0, 64, 80
1, 152951, Note_off_c, 0, 81, 61
1, 152958, Control_c, 0, 64, 79
1, 152969, Note_on_c, 0, 83, 75
1, 152972, Note_on_c, 0, 73, 57
1, 152972, Control_c, 0, 64, 74
1, 152987, Control_c, 0, 64, 67
1, 153002, Control_c, 0, 64, 64
1, 153012, Note_off_c, 0, 73, 58
1, 153032, Control_c, 0, 64, 67
1, 153036, Note_on_c, 0, 81, 68
1, 153042, Note_on_c, 0, 69, 51
1, 153047, Control_c, 0, 64, 71
1, 153053, Note_off_c, 0, 83, 61
1, 153061, Control_c, 0, 64, 76
1, 153076, Control_c, 0, 64, 81
1, 153091, Control_c, 0, 64, 86
1, 153092, Note_off_c, 0, 69, 57
1, 153094, Note_off_c, 0, 81, 63
1, 153100, Note_on_c, 0, 67, 56
1, 153106, Control_c, 0, 64, 87
1, 153121, Note_on_c, 0, 79, 45
1, 153136, Control_c, 0, 64, 83
1, 153151, Note_off_c, 0, 67, 56
1, 153151, Control_c, 0, 64, 76
1, 153163, Note_off_c, 0, 79, 64
1, 153165, Control_c, 0, 64, 68
1, 153180, Control_c, 0, 64, 63
1, 153190, Note_on_c, 0, 71, 55
1, 153193, Note_on_c, 0, 81, 66
1, 153209, Control_c, 0, 64, 66
1, 153224, Control_c, 0, 64, 69
1, 153240, Control_c, 0, 64, 74
1, 153245, Note_off_c, 0, 81, 62
1, 153255, Control_c, 0, 64, 76
1, 153267, Note_on_c, 0, 67, 59
1, 153271, Note_on_c, 0, 79, 69
1, 153276, Note_off_c, 0, 71, 37
1, 153277, Control_c, 0, 64, 75
1, 153292, Control_c, 0, 64, 69
1, 153307, Control_c, 0, 64, 60
1, 153321, Control_c, 0, 64, 41
1, 153336, Control_c, 0, 64, 0
1, 153358, Note_on_c, 0, 66, 62
1, 153360, Note_on_c, 0, 78, 63
1, 153366, Control_c, 0, 64, 33
1, 153367, Note_off_c, 0, 79, 63
1, 153381, Control_c, 0, 64, 48
1, 153382, Note_off_c, 0, 67, 53
1, 153395, Control_c, 0, 64, 59
1, 153410, Control_c, 0, 64, 64
1, 153425, Control_c, 0, 64, 68
1, 153440, Control_c, 0, 64, 72
1, 153455, Control_c, 0, 64, 74
1, 153458, Note_on_c, 0, 76, 67
1, 153470, Control_c, 0, 64, 76
1, 153485, Control_c, 0, 64, 79
1, 153492, Note_on_c, 0, 69, 56
1, 153500, Control_c, 0, 64, 81
1, 153514, Note_off_c, 0, 66, 58
1, 153515, Control_c, 0, 64, 85
1, 153521, Note_off_c, 0, 78, 59
1, 153526, Note_off_c, 0, 76, 62
1, 153529, Control_c, 0, 64, 88
1, 153537, Note_on_c, 0, 74, 73
1, 153544, Control_c, 0, 64, 90
1, 153559, Control_c, 0, 64, 92
1, 153574, Control_c, 0, 64, 92
1, 153613, Note_on_c, 0, 64, 63
1, 153614, Note_on_c, 0, 76, 75
1, 153616, Note_off_c, 0, 74, 60
1, 153642, Note_off_c, 0, 69, 38
1, 153682, Note_on_c, 0, 78, 77
1, 153693, Note_off_c, 0, 76, 61
1, 153720, Note_on_c, 0, 67, 65
1, 153736, Control_c, 0, 64, 89
1, 153740, Note_off_c, 0, 78, 63
1, 153751, Control_c, 0, 64, 78
1, 153753, Note_on_c, 0, 79, 79
1, 153764, Note_off_c, 0, 64, 55
1, 153766, Control_c, 0, 64, 64
1, 153781, Control_c, 0, 64, 42
1, 153795, Control_c, 0, 64, 0
1, 153825, Note_on_c, 0, 81, 85
1, 153826, Note_off_c, 0, 79, 64
1, 153831, Note_on_c, 0, 66, 70
1, 153854, Note_off_c, 0, 67, 57
1, 153854, Control_c, 0, 64, 42
1, 153869, Control_c, 0, 64, 55
1, 153878, Note_off_c, 0, 81, 64
1, 153884, Control_c, 0, 64, 63
1, 153896, Note_on_c, 0, 79, 80
1, 153899, Control_c, 0, 64, 67
1, 153914, Control_c, 0, 64, 70
1, 153929, Control_c, 0, 64, 71
1, 153944, Note_on_c, 0, 69, 65
1, 153944, Note_off_c, 0, 66, 62
1, 153944, Control_c, 0, 64, 72
1, 153956, Note_on_c, 0, 78, 79
1, 153959, Note_off_c, 0, 79, 66
1, 153959, Control_c, 0, 64, 73
1, 153974, Control_c, 0, 64, 74
1, 153988, Control_c, 0, 64, 75
1, 154003, Control_c, 0, 64, 77
1, 154025, Control_c, 0, 64, 78
1, 154027, Note_off_c, 0, 78, 64
1, 154036, Note_off_c, 0, 69, 60
1, 154038, Note_on_c, 0, 79, 84
1, 154041, Control_c, 0, 64, 79
1, 154054, Note_on_c, 0, 67, 73
1, 154056, Control_c, 0, 64, 80
1, 154085, Control_c, 0, 64, 79
1, 154100, Control_c, 0, 64, 73
1, 154103, Note_on_c, 0, 81, 85
1, 154115, Control_c, 0, 64, 66
1, 154123, Note_off_c, 0, 67, 65
1, 154130, Control_c, 0, 64, 61
1, 154136, Note_on_c, 0, 71, 75
1, 154138, Note_off_c, 0, 79, 63
1, 154144, Control_c, 0, 64, 60
1, 154159, Control_c, 0, 64, 63
1, 154174, Control_c, 0, 64, 66
1, 154182, Note_on_c, 0, 83, 79
1, 154189, Control_c, 0, 64, 71
1, 154204, Control_c, 0, 64, 75
1, 154218, Control_c, 0, 64, 81
1, 154224, Note_off_c, 0, 71, 63
1, 154230, Note_off_c, 0, 81, 34
1, 154233, Note_on_c, 0, 69, 76
1, 154233, Control_c, 0, 64, 87
1, 154240, Note_on_c, 0, 85, 81
1, 154247, Note_off_c, 0, 83, 65
1, 154248, Control_c, 0, 64, 89
1, 154263, Control_c, 0, 64, 86
1, 154278, Control_c, 0, 64, 78
1, 154293, Control_c, 0, 64, 70
1, 154307, Control_c, 0, 64, 65
1, 154309, Note_on_c, 0, 83, 79
1, 154334, Note_off_c, 0, 85, 64
1, 154337, Control_c, 0, 64, 68
1, 154352, Control_c, 0, 64, 73
1, 154354, Note_off_c, 0, 69, 62
1, 154357, Note_on_c, 0, 72, 57
1, 154361, Note_on_c, 0, 73, 31
1, 154367, Note_off_c, 0, 83, 64
1, 154367, Control_c, 0, 64, 79
1, 154375, Note_on_c, 0, 81, 79
1, 154382, Control_c, 0, 64, 85
1, 154389, Note_off_c, 0, 72, 67
1, 154397, Note_off_c, 0, 73, 53
1, 154397, Control_c, 0, 64, 87
1, 154412, Control_c, 0, 64, 85
1, 154427, Control_c, 0, 64, 77
1, 154427, Note_on_c, 0, 71, 83
1, 154442, Control_c, 0, 64, 67
1, 154449, Note_on_c, 0, 83, 80
1, 154457, Note_off_c, 0, 81, 65
1, 154457, Control_c, 0, 64, 63
1, 154471, Control_c, 0, 64, 65
1, 154486, Control_c, 0, 64, 70
1, 154497, Note_on_c, 0, 85, 74
1, 154501, Control_c, 0, 64, 76
1, 154510, Note_off_c, 0, 71, 64
1, 154516, Control_c, 0, 64, 85
1, 154517, Note_on_c, 0, 74, 78
1, 154518, Note_off_c, 0, 83, 64
1, 154531, Control_c, 0, 64, 96
1, 154545, Control_c, 0, 64, 109
1, 154551, Note_off_c, 0, 85, 65
1, 154560, Control_c, 0, 64, 111
1, 154574, Note_on_c, 0, 84, 71
1, 154575, Note_on_c, 0, 86, 64
1, 154575, Control_c, 0, 64, 108
1, 154589, Control_c, 0, 64, 93
1, 154595, Note_off_c, 0, 74, 62
1, 154604, Control_c, 0, 64, 76
1, 154609, Note_off_c, 0, 86, 56
1, 154616, Note_off_c, 0, 84, 64
1, 154618, Note_on_c, 0, 73, 85
1, 154619, Control_c, 0, 64, 64
1, 154629, Note_on_c, 0, 88, 83
1, 154634, Control_c, 0, 64, 56
1, 154649, Control_c, 0, 64, 58
1, 154663, Control_c, 0, 64, 63
1, 154666, Note_on_c, 0, 86, 26
1, 154666, Note_off_c, 0, 86, 127
1, 154678, Control_c, 0, 64, 69
1, 154687, Note_off_c, 0, 88, 65
1, 154691, Note_on_c, 0, 86, 35
1, 154693, Control_c, 0, 64, 76
1, 154708, Control_c, 0, 64, 84
1, 154715, Note_off_c, 0, 73, 62
1, 154718, Note_on_c, 0, 76, 79
1, 154723, Control_c, 0, 64, 90
1, 154737, Control_c, 0, 64, 92
1, 154755, Note_on_c, 0, 85, 81
1, 154768, Note_off_c, 0, 86, 65
1, 154775, Control_c, 0, 64, 91
1, 154785, Note_off_c, 0, 76, 64
1, 154789, Control_c, 0, 64, 86
1, 154804, Control_c, 0, 64, 75
1, 154818, Note_on_c, 0, 74, 89
1, 154819, Control_c, 0, 64, 65
1, 154823, Note_off_c, 0, 85, 65
1, 154831, Note_on_c, 0, 86, 77
1, 154834, Control_c, 0, 64, 58
1, 154850, Control_c, 0, 64, 59
1, 154865, Control_c, 0, 64, 64
1, 154880, Control_c, 0, 64, 71
1, 154890, Note_on_c, 0, 88, 89
1, 154894, Control_c, 0, 64, 79
1, 154909, Control_c, 0, 64, 88
1, 154920, Note_on_c, 0, 78, 80
1, 154924, Control_c, 0, 64, 94
1, 154930, Note_off_c, 0, 74, 61
1, 154932, Note_off_c, 0, 86, 62
1, 154939, Control_c, 0, 64, 95
1, 154954, Control_c, 0, 64, 94
1, 154963, Note_on_c, 0, 90, 80
1, 154968, Control_c, 0, 64, 87
1, 154983, Control_c, 0, 64, 74
1, 154987, Note_off_c, 0, 88, 65
1, 154998, Control_c, 0, 64, 63
1, 155011, Note_on_c, 0, 76, 83
1, 155012, Control_c, 0, 64, 55
1, 155016, Note_on_c, 0, 91, 91
1, 155018, Note_off_c, 0, 78, 59
1, 155023, Note_off_c, 0, 90, 64
1, 155027, Control_c, 0, 64, 56
1, 155042, Control_c, 0, 64, 63
1, 155057, Control_c, 0, 64, 70
1, 155072, Control_c, 0, 64, 79
1, 155086, Control_c, 0, 64, 88
1, 155089, Note_on_c, 0, 90, 88
1, 155101, Control_c, 0, 64, 93
1, 155116, Control_c, 0, 64, 94
1, 155121, Note_off_c, 0, 91, 65
1, 155121, Note_on_c, 0, 79, 80
1, 155127, Note_off_c, 0, 76, 56
1, 155142, Note_on_c, 0, 88, 89
1, 155144, Note_off_c, 0, 90, 65
1, 155146, Control_c, 0, 64, 90
1, 155160, Control_c, 0, 64, 79
1, 155175, Control_c, 0, 64, 64
1, 155190, Control_c, 0, 64, 42
1, 155205, Control_c, 0, 64, 0
1, 155210, Note_off_c, 0, 79, 65
1, 155223, Note_on_c, 0, 90, 93
1, 155228, Note_on_c, 0, 78, 78
1, 155249, Control_c, 0, 64, 41
1, 155254, Note_off_c, 0, 88, 66
1, 155264, Control_c, 0, 64, 55
1, 155270, Note_on_c, 0, 89, 31
1, 155279, Control_c, 0, 64, 66
1, 155294, Control_c, 0, 64, 76
1, 155297, Note_on_c, 0, 91, 94
1, 155309, Control_c, 0, 64, 93
1, 155318, Note_off_c, 0, 89, 0
1, 155318, Note_on_c, 0, 89, 2
1, 155324, Control_c, 0, 64, 127
1, 155328, Note_off_c, 0, 78, 65
1, 155331, Note_off_c, 0, 90, 64
1, 155340, Note_on_c, 0, 81, 85
1, 155368, Note_off_c, 0, 89, 35
1, 155372, Note_on_c, 0, 93, 92
1, 155398, Note_off_c, 0, 81, 64
1, 155402, Note_off_c, 0, 91, 65
1, 155501, Control_c, 0, 64, 112
1, 155524, Control_c, 0, 64, 63
1, 155528, Note_on_c, 0, 95, 95
1, 155530, Note_on_c, 0, 83, 106
1, 155539, Control_c, 0, 64, 0
1, 155553, Note_off_c, 0, 93, 66
1, 155658, Control_c, 0, 64, 52
1, 155673, Control_c, 0, 64, 81
1, 155684, Note_on_c, 0, 93, 93
1, 155688, Control_c, 0, 64, 111
1, 155703, Control_c, 0, 64, 127
1, 155727, Note_on_c, 0, 78, 94
1, 155768, Note_on_c, 0, 92, 92
1, 155794, Note_off_c, 0, 93, 65
1, 155796, Note_off_c, 0, 95, 49
1, 155836, Note_on_c, 0, 90, 88
1, 155892, Note_off_c, 0, 92, 64
1, 155908, Note_off_c, 0, 90, 64
1, 155912, Note_on_c, 0, 88, 90
1, 155918, Note_on_c, 0, 74, 91
1, 155955, Note_off_c, 0, 78, 58
1, 155968, Note_off_c, 0, 88, 59
1, 155983, Note_off_c, 0, 83, 60
1, 155986, Note_on_c, 0, 86, 81
1, 156054, Note_on_c, 0, 85, 90
1, 156063, Note_off_c, 0, 74, 56
1, 156069, Note_on_c, 0, 71, 80
1, 156089, Note_off_c, 0, 86, 62
1, 156093, Note_off_c, 0, 71, 66
1, 156114, Note_on_c, 0, 83, 98
1, 156130, Note_off_c, 0, 85, 66
1, 156151, Note_off_c, 0, 83, 68
1, 156394, Note_on_c, 0, 47, 82
1, 156397, Note_on_c, 0, 74, 91
1, 156398, Note_on_c, 0, 54, 89
1, 156398, Note_on_c, 0, 62, 94
1, 156398, Note_on_c, 0, 66, 85
1, 156399, Note_on_c, 0, 50, 79
1, 156406, Control_c, 0, 64, 104
1, 156421, Control_c, 0, 64, 68
1, 156437, Control_c, 0, 64, 0
1, 156540, Control_c, 0, 64, 44
1, 156555, Control_c, 0, 64, 57
1, 156570, Control_c, 0, 64, 65
1, 156585, Control_c, 0, 64, 71
1, 156600, Control_c, 0, 64, 76
1, 156615, Control_c, 0, 64, 81
1, 156630, Control_c, 0, 64, 85
1, 156644, Control_c, 0, 64, 87
1, 156659, Control_c, 0, 64, 88
1, 156674, Control_c, 0, 64, 88
1, 156689, Control_c, 0, 64, 89
1, 156807, Note_on_c, 0, 64, 93
1, 156809, Note_on_c, 0, 56, 94
1, 156820, Note_off_c, 0, 74, 52
1, 156837, Control_c, 0, 64, 90
1, 156838, Note_off_c, 0, 62, 63
1, 156849, Note_off_c, 0, 54, 59
1, 156850, Note_off_c, 0, 47, 63
1, 156850, Note_off_c, 0, 66, 61
1, 156852, Control_c, 0, 64, 91
1, 156856, Note_off_c, 0, 50, 60
1, 156866, Note_off_c, 0, 64, 66
1, 156866, Control_c, 0, 64, 92
1, 156881, Control_c, 0, 64, 96
1, 156895, Note_off_c, 0, 56, 60
1, 156895, Control_c, 0, 64, 103
1, 156910, Control_c, 0, 64, 114
1, 156925, Control_c, 0, 64, 127
1, 157265, Note_on_c, 0, 57, 95
1, 157268, Note_on_c, 0, 69, 83
1, 157269, Note_on_c, 0, 45, 86
1, 157269, Note_on_c, 0, 78, 96
1, 157271, Note_on_c, 0, 66, 87
1, 157273, Note_on_c, 0, 54, 84
1, 157273, Note_on_c, 0, 73, 84
1, 157275, Note_on_c, 0, 49, 81
1, 157303, Control_c, 0, 64, 109
1, 157318, Control_c, 0, 64, 79
1, 157333, Control_c, 0, 64, 60
1, 157348, Control_c, 0, 64, 37
1, 157362, Control_c, 0, 64, 0
1, 157540, Control_c, 0, 64, 47
1, 157554, Control_c, 0, 64, 59
1, 157569, Control_c, 0, 64, 60
1, 157584, Control_c, 0, 64, 61
1, 157599, Control_c, 0, 64, 64
1, 157613, Control_c, 0, 64, 68
1, 157628, Control_c, 0, 64, 78
1, 157643, Control_c, 0, 64, 95
1, 157652, Note_off_c, 0, 45, 59
1, 157658, Control_c, 0, 64, 127
1, 157671, Note_off_c, 0, 54, 58
1, 157682, Note_off_c, 0, 49, 61
1, 157708, Note_off_c, 0, 57, 61
1, 157736, Note_off_c, 0, 78, 54
1, 157745, Note_off_c, 0, 66, 60
1, 157762, Note_off_c, 0, 69, 58
1, 157795, Note_off_c, 0, 73, 60
1, 157983, Note_on_c, 0, 62, 82
1, 157983, Note_on_c, 0, 78, 88
1, 157984, Note_on_c, 0, 57, 83
1, 157984, Note_on_c, 0, 59, 75
1, 157984, Note_on_c, 0, 66, 86
1, 157985, Note_on_c, 0, 71, 80
1, 157987, Note_on_c, 0, 74, 79
1, 157992, Control_c, 0, 64, 74
1, 158006, Control_c, 0, 64, 0
1, 158081, Control_c, 0, 64, 42
1, 158096, Control_c, 0, 64, 65
1, 158111, Control_c, 0, 64, 85
1, 158126, Control_c, 0, 64, 127
1, 158227, Note_off_c, 0, 57, 56
1, 158236, Note_off_c, 0, 78, 56
1, 158252, Note_off_c, 0, 66, 60
1, 158253, Note_off_c, 0, 59, 52
1, 158254, Note_off_c, 0, 62, 58
1, 158329, Note_off_c, 0, 74, 30
1, 158365, Note_off_c, 0, 71, 57
1, 158379, Note_on_c, 0, 76, 86
1, 158384, Note_on_c, 0, 64, 87
1, 158428, Note_off_c, 0, 64, 63
1, 158465, Note_off_c, 0, 76, 63
1, 158635, Note_on_c, 0, 61, 89
1, 158782, Note_off_c, 0, 61, 57
1, 158831, Control_c, 0, 64, 118
1, 158838, Note_on_c, 0, 81, 98
1, 158838, Note_on_c, 0, 55, 82
1, 158841, Note_on_c, 0, 62, 79
1, 158841, Note_on_c, 0, 66, 87
1, 158841, Note_on_c, 0, 69, 94
1, 158842, Note_on_c, 0, 78, 87
1, 158846, Control_c, 0, 64, 70
1, 158847, Note_on_c, 0, 59, 72
1, 158860, Control_c, 0, 64, 34
1, 158875, Control_c, 0, 64, 0
1, 158920, Control_c, 0, 64, 37
1, 158934, Control_c, 0, 64, 62
1, 158937, Note_off_c, 0, 66, 61
1, 158942, Note_off_c, 0, 62, 61
1, 158949, Control_c, 0, 64, 75
1, 158964, Note_off_c, 0, 59, 62
1, 158964, Control_c, 0, 64, 127
1, 158976, Note_off_c, 0, 55, 64
1, 159333, Note_on_c, 0, 45, 96
1, 159333, Note_on_c, 0, 33, 95
1, 159360, Note_off_c, 0, 33, 67
1, 159374, Note_off_c, 0, 45, 64
1, 159456, Note_off_c, 0, 69, 37
1, 159495, Note_off_c, 0, 78, 35
1, 159625, Note_on_c, 0, 71, 79
1, 159758, Note_on_c, 0, 73, 89
1, 159770, Note_off_c, 0, 71, 60
1, 159794, Note_off_c, 0, 81, 33
1, 159876, Note_on_c, 0, 74, 88
1, 159882, Note_off_c, 0, 73, 64
1, 160016, Note_on_c, 0, 66, 76
1, 160030, Note_on_c, 0, 81, 83
1, 160031, Control_c, 0, 64, 80
1, 160031, Note_on_c, 0, 55, 77
1, 160033, Note_on_c, 0, 73, 74
1, 160037, Note_on_c, 0, 59, 70
1, 160038, Note_off_c, 0, 74, 62
1, 160046, Control_c, 0, 64, 53
1, 160061, Control_c, 0, 64, 0
1, 160090, Control_c, 0, 64, 40
1, 160100, Note_off_c, 0, 73, 60
1, 160105, Control_c, 0, 64, 64
1, 160117, Note_off_c, 0, 81, 62
1, 160120, Control_c, 0, 64, 94
1, 160128, Note_on_c, 0, 74, 73
1, 160134, Control_c, 0, 64, 127
1, 160170, Note_off_c, 0, 59, 60
1, 160186, Note_off_c, 0, 74, 62
1, 160197, Note_on_c, 0, 81, 63
1, 160198, Note_on_c, 0, 73, 65
1, 160222, Note_off_c, 0, 55, 56
1, 160232, Note_off_c, 0, 73, 60
1, 160246, Note_off_c, 0, 81, 63
1, 160257, Note_on_c, 0, 74, 64
1, 160303, Note_off_c, 0, 74, 61
1, 160314, Note_on_c, 0, 73, 68
1, 160323, Note_on_c, 0, 81, 55
1, 160345, Note_off_c, 0, 66, 50
1, 160346, Note_on_c, 0, 58, 84
1, 160353, Note_off_c, 0, 73, 59
1, 160361, Note_off_c, 0, 81, 63
1, 160368, Note_on_c, 0, 74, 69
1, 160425, Note_off_c, 0, 74, 63
1, 160434, Note_on_c, 0, 73, 67
1, 160456, Note_on_c, 0, 81, 50
1, 160474, Note_off_c, 0, 73, 58
1, 160487, Note_off_c, 0, 81, 52
1, 160496, Note_on_c, 0, 74, 57
1, 160508, Note_off_c, 0, 58, 63
1, 160542, Note_off_c, 0, 74, 63
1, 160544, Note_on_c, 0, 73, 69
1, 160545, Note_on_c, 0, 59, 79
1, 160567, Note_on_c, 0, 81, 53
1, 160572, Note_off_c, 0, 73, 64
1, 160588, Note_off_c, 0, 81, 60
1, 160609, Note_on_c, 0, 74, 68
1, 160651, Note_off_c, 0, 74, 61
1, 160653, Note_on_c, 0, 73, 68
1, 160659, Note_on_c, 0, 81, 68
1, 160683, Note_on_c, 0, 61, 85
1, 160690, Note_off_c, 0, 81, 62
1, 160694, Note_off_c, 0, 73, 55
1, 160695, Note_off_c, 0, 59, 56
1, 160716, Note_on_c, 0, 74, 69
1, 160768, Note_on_c, 0, 73, 61
1, 160772, Note_off_c, 0, 74, 60
1, 160793, Note_off_c, 0, 61, 59
1, 160816, Note_on_c, 0, 64, 80
1, 160816, Note_off_c, 0, 73, 60
1, 160827, Note_on_c, 0, 74, 62
1, 160844, Note_on_c, 0, 62, 84
1, 160854, Control_c, 0, 64, 83
1, 160869, Note_off_c, 0, 74, 61
1, 160869, Control_c, 0, 64, 67
1, 160880, Note_on_c, 0, 73, 56
1, 160884, Control_c, 0, 64, 62
1, 160898, Control_c, 0, 64, 66
1, 160910, Note_off_c, 0, 64, 61
1, 160913, Control_c, 0, 64, 78
1, 160916, Note_off_c, 0, 73, 65
1, 160928, Control_c, 0, 64, 103
1, 160930, Note_on_c, 0, 74, 62
1, 160943, Control_c, 0, 64, 127
1, 160956, Poly_aftertouch_c, 0, 81, 0
1, 160971, Note_off_c, 0, 74, 61
1, 160980, Note_on_c, 0, 73, 68
1, 161032, Note_off_c, 0, 73, 61
1, 161039, Note_on_c, 0, 61, 89
1, 161044, Note_on_c, 0, 74, 57
1, 161064, Note_off_c, 0, 62, 60
1, 161077, Note_on_c, 0, 73, 62
1, 161087, Note_off_c, 0, 74, 60
1, 161105, Note_on_c, 0, 81, 47
1, 161129, Note_off_c, 0, 73, 62
1, 161133, Note_off_c, 0, 81, 55
1, 161149, Note_on_c, 0, 74, 67
1, 161196, Note_on_c, 0, 73, 66
1, 161198, Note_off_c, 0, 74, 61
1, 161214, Note_off_c, 0, 61, 58
1, 161219, Note_on_c, 0, 81, 56
1, 161236, Note_on_c, 0, 62, 87
1, 161241, Note_on_c, 0, 59, 78
1, 161245, Note_off_c, 0, 73, 60
1, 161250, Note_off_c, 0, 81, 51
1, 161264, Note_on_c, 0, 74, 68
1, 161288, Note_off_c, 0, 62, 64
1, 161293, Note_off_c, 0, 59, 63
1, 161307, Note_on_c, 0, 73, 66
1, 161313, Note_off_c, 0, 74, 61
1, 161366, Note_off_c, 0, 73, 62
1, 161371, Note_on_c, 0, 74, 63
1, 161417, Note_on_c, 0, 54, 11
1, 161425, Note_on_c, 0, 73, 62
1, 161426, Note_off_c, 0, 74, 62
1, 161447, Control_c, 0, 64, 104
1, 161462, Control_c, 0, 64, 73
1, 161468, Note_off_c, 0, 54, 51
1, 161469, Note_on_c, 0, 66, 97
1, 161475, Note_on_c, 0, 55, 86
1, 161477, Note_off_c, 0, 73, 61
1, 161477, Control_c, 0, 64, 60
1, 161480, Note_on_c, 0, 74, 61
1, 161482, Note_on_c, 0, 57, 80
1, 161492, Control_c, 0, 64, 59
1, 161514, Control_c, 0, 64, 71
1, 161526, Note_off_c, 0, 66, 64
1, 161529, Control_c, 0, 64, 104
1, 161540, Note_on_c, 0, 73, 61
1, 161544, Control_c, 0, 64, 127
1, 161547, Note_off_c, 0, 74, 63
1, 161551, Note_off_c, 0, 57, 63
1, 161553, Note_off_c, 0, 55, 63
1, 161602, Note_off_c, 0, 73, 58
1, 161604, Note_on_c, 0, 74, 64
1, 161649, Note_on_c, 0, 73, 50
1, 161658, Note_off_c, 0, 74, 62
1, 161714, Note_off_c, 0, 73, 61
1, 161723, Note_on_c, 0, 74, 63
1, 161745, Note_on_c, 0, 33, 94
1, 161772, Note_on_c, 0, 73, 63
1, 161779, Note_off_c, 0, 74, 61
1, 161789, Note_off_c, 0, 33, 64
1, 161831, Note_off_c, 0, 73, 62
1, 161844, Note_on_c, 0, 74, 69
1, 161894, Note_on_c, 0, 73, 63
1, 161894, Note_off_c, 0, 74, 62
1, 161939, Note_on_c, 0, 81, 12
1, 161953, Note_off_c, 0, 73, 62
1, 161956, Note_on_c, 0, 74, 72
1, 162007, Note_off_c, 0, 81, 0
1, 162010, Note_on_c, 0, 73, 67
1, 162015, Note_off_c, 0, 74, 63
1, 162022, Note_on_c, 0, 81, 44
1, 162058, Note_on_c, 0, 64, 94
1, 162088, Note_on_c, 0, 74, 71
1, 162090, Note_off_c, 0, 73, 61
1, 162091, Note_off_c, 0, 64, 69
1, 162125, Note_off_c, 0, 81, 50
1, 162201, Note_off_c, 0, 74, 59
1, 162328, Note_on_c, 0, 73, 90
1, 162329, Note_on_c, 0, 81, 91
1, 162559, Note_on_c, 0, 71, 94
1, 162615, Note_off_c, 0, 73, 57
1, 162718, Note_on_c, 0, 73, 95
1, 162730, Note_off_c, 0, 81, 32
1, 162739, Note_off_c, 0, 71, 64
1, 162769, Note_off_c, 0, 73, 65
1, 163004, Note_on_c, 0, 76, 96
1, 163007, Note_on_c, 0, 78, 89
1, 163007, Note_on_c, 0, 81, 95
1, 163012, Note_on_c, 0, 26, 92
1, 163012, Control_c, 0, 64, 78
1, 163013, Note_on_c, 0, 38, 99
1, 163027, Control_c, 0, 64, 0
1, 163212, Note_off_c, 0, 26, 63
1, 163242, Note_off_c, 0, 38, 65
1, 163249, Control_c, 0, 64, 61
1, 163264, Control_c, 0, 64, 76
1, 163278, Control_c, 0, 64, 127
1, 163480, Note_on_c, 0, 74, 99
1, 163486, Note_on_c, 0, 66, 96
1, 163495, Note_off_c, 0, 78, 61
1, 163498, Note_off_c, 0, 76, 59
1, 163515, Note_off_c, 0, 81, 52
1, 163518, Note_off_c, 0, 66, 59
1, 163580, Note_off_c, 0, 74, 55
1, 164551, Note_on_c, 0, 69, 70
1, 164559, Note_on_c, 0, 54, 50
1, 164568, Note_on_c, 0, 62, 52
1, 164782, Note_off_c, 0, 62, 54
1, 164848, Note_on_c, 0, 74, 77
1, 164850, Note_on_c, 0, 66, 66
1, 164851, Note_on_c, 0, 57, 57
1, 164853, Note_off_c, 0, 69, 61
1, 164893, Note_off_c, 0, 66, 59
1, 164910, Note_off_c, 0, 74, 63
1, 164977, Note_off_c, 0, 57, 35
1, 165051, Note_on_c, 0, 62, 53
1, 165056, Note_on_c, 0, 78, 76
1, 165067, Note_on_c, 0, 69, 63
1, 165177, Note_off_c, 0, 62, 49
1, 165200, Note_off_c, 0, 54, 7
1, 165206, Note_off_c, 0, 69, 60
1, 165212, Note_on_c, 0, 74, 78
1, 165216, Note_on_c, 0, 66, 67
1, 165221, Note_on_c, 0, 57, 53
1, 165224, Note_off_c, 0, 78, 35
1, 165256, Note_off_c, 0, 66, 61
1, 165271, Note_off_c, 0, 74, 61
1, 165366, Note_on_c, 0, 78, 80
1, 165369, Note_off_c, 0, 57, 33
1, 165376, Note_on_c, 0, 62, 66
1, 165378, Note_on_c, 0, 69, 63
1, 165451, Note_off_c, 0, 69, 55
1, 165456, Note_off_c, 0, 62, 57
1, 165494, Note_on_c, 0, 81, 85
1, 165495, Note_on_c, 0, 66, 65
1, 165501, Note_on_c, 0, 74, 76
1, 165510, Note_off_c, 0, 78, 60
1, 165548, Note_off_c, 0, 74, 62
1, 165567, Note_off_c, 0, 81, 60
1, 165568, Note_off_c, 0, 66, 57
1, 165614, Note_on_c, 0, 62, 67
1, 165622, Note_on_c, 0, 78, 83
1, 165625, Note_on_c, 0, 69, 73
1, 165715, Note_off_c, 0, 69, 54
1, 165737, Note_off_c, 0, 62, 58
1, 165742, Note_on_c, 0, 74, 81
1, 165743, Note_on_c, 0, 66, 68
1, 165744, Note_on_c, 0, 81, 82
1, 165755, Note_off_c, 0, 78, 49
1, 165773, Note_off_c, 0, 74, 62
1, 165775, Note_off_c, 0, 66, 58
1, 165789, Note_off_c, 0, 81, 65
1, 165867, Note_on_c, 0, 86, 94
1, 165876, Note_on_c, 0, 78, 78
1, 165880, Note_on_c, 0, 69, 61
1, 165953, Note_off_c, 0, 78, 61
1, 165970, Note_off_c, 0, 69, 54
1, 165985, Note_off_c, 0, 86, 56
1, 166008, Note_on_c, 0, 81, 86
1, 166010, Note_on_c, 0, 66, 65
1, 166015, Note_on_c, 0, 74, 78
1, 166049, Note_off_c, 0, 74, 60
1, 166054, Note_off_c, 0, 81, 65
1, 166132, Note_off_c, 0, 66, 52
1, 166143, Note_on_c, 0, 69, 68
1, 166144, Note_on_c, 0, 86, 87
1, 166160, Note_on_c, 0, 78, 73
1, 166179, Note_on_c, 0, 87, 36
1, 166179, Note_off_c, 0, 87, 127
1, 166214, Note_off_c, 0, 78, 57
1, 166266, Note_off_c, 0, 69, 52
1, 166293, Note_on_c, 0, 90, 94
1, 166296, Note_on_c, 0, 74, 75
1, 166301, Note_on_c, 0, 81, 66
1, 166305, Note_off_c, 0, 86, 64
1, 166319, Note_off_c, 0, 81, 64
1, 166344, Note_off_c, 0, 90, 65
1, 166350, Note_off_c, 0, 74, 61
1, 166450, Note_on_c, 0, 93, 94
1, 166451, Note_on_c, 0, 78, 69
1, 166455, Note_on_c, 0, 86, 89
1, 166545, Note_off_c, 0, 78, 54
1, 166577, Note_off_c, 0, 86, 57
1, 166628, Note_on_c, 0, 81, 75
1, 166635, Note_on_c, 0, 98, 97
1, 166636, Note_on_c, 0, 90, 91
1, 166648, Note_off_c, 0, 93, 65
1, 166649, Note_off_c, 0, 81, 70
1, 166672, Note_off_c, 0, 90, 63
1, 166726, Note_off_c, 0, 98, 63
1, 166890, Note_on_c, 0, 88, 84
1, 166891, Note_on_c, 0, 102, 99
1, 166896, Note_on_c, 0, 93, 78
1, 166908, Note_on_c, 0, 86, 109
1, 166932, Note_off_c, 0, 86, 70
1, 167051, Note_off_c, 0, 102, 64
1, 167098, Note_off_c, 0, 88, 58
1, 167104, Note_off_c, 0, 93, 62
1, 168234, Note_on_c, 0, 26, 93
1, 168253, Control_c, 0, 64, 85
1, 168267, Control_c, 0, 64, 63
1, 168282, Control_c, 0, 64, 50
1, 168297, Control_c, 0, 64, 56
1, 168312, Control_c, 0, 64, 65
1, 168327, Control_c, 0, 64, 87
1, 168342, Control_c, 0, 64, 127
1, 168426, Note_on_c, 0, 38, 94
1, 168431, Note_off_c, 0, 26, 61
1, 168461, Note_off_c, 0, 38, 65
1, 168736, Note_on_c, 0, 62, 87
1, 168737, Note_on_c, 0, 50, 87
1, 168738, Note_on_c, 0, 78, 92
1, 168739, Note_on_c, 0, 57, 78
1, 168740, Note_on_c, 0, 66, 91
1, 168741, Note_on_c, 0, 69, 81
1, 168744, Note_on_c, 0, 54, 82
1, 168747, Note_on_c, 0, 74, 83
1, 169449, Note_off_c, 0, 50, 55
1, 169459, Note_off_c, 0, 62, 58
1, 169474, Note_off_c, 0, 57, 60
1, 169501, Note_off_c, 0, 54, 61
1, 170356, Note_on_c, 0, 26, 90
1, 170389, Control_c, 0, 64, 83
1, 170404, Control_c, 0, 64, 63
1, 170419, Control_c, 0, 64, 46
1, 170434, Control_c, 0, 64, 34
1, 170449, Control_c, 0, 64, 43
1, 170463, Control_c, 0, 64, 60
1, 170478, Control_c, 0, 64, 75
1, 170500, Control_c, 0, 64, 127
1, 170589, Note_off_c, 0, 78, 52
1, 170592, Note_off_c, 0, 66, 44
1, 170607, Note_off_c, 0, 74, 37
1, 170643, Note_off_c, 0, 26, 60
1, 170646, Note_on_c, 0, 38, 93
1, 170655, Note_off_c, 0, 69, 39
1, 170691, Note_off_c, 0, 38, 65
1, 171132, Note_on_c, 0, 62, 75
1, 171138, Note_on_c, 0, 78, 90
1, 171139, Note_on_c, 0, 66, 84
1, 171140, Note_on_c, 0, 50, 79
1, 171141, Note_on_c, 0, 69, 79
1, 171143, Note_on_c, 0, 54, 74
1, 171143, Note_on_c, 0, 57, 70
1, 171147, Note_on_c, 0, 74, 82
1, 177633, Note_off_c, 0, 78, 60
1, 177684, Note_off_c, 0, 50, 32
1, 177684, Note_off_c, 0, 69, 32
1, 177693, Note_off_c, 0, 74, 28
1, 177697, Note_off_c, 0, 54, 36
1, 177697, Note_off_c, 0, 57, 38
1, 177707, Note_off_c, 0, 62, 34
1, 177741, Note_off_c, 0, 66, 39
1, 177950, Control_c, 0, 64, 116
1, 177965, Control_c, 0, 64, 99
1, 177987, Control_c, 0, 64, 90
1, 178003, Control_c, 0, 64, 82
1, 178018, Control_c, 0, 64, 75
1, 178032, Control_c, 0, 64, 70
1, 178047, Control_c, 0, 64, 65
1, 178062, Control_c, 0, 64, 59
1, 178077, Control_c, 0, 64, 53
1, 178092, Control_c, 0, 64, 48
1, 178107, Control_c, 0, 64, 44
1, 178122, Control_c, 0, 64, 41
1, 178136, Control_c, 0, 64, 37
1, 178151, Control_c, 0, 64, 32
1, 178166, Control_c, 0, 64, 0
1, 180458, Control_c, 0, 64, 30
1, 180472, Control_c, 0, 64, 32
1, 180487, Control_c, 0, 64, 32
1, 180516, Control_c, 0, 64, 32
1, 180561, Control_c, 0, 64, 30
1, 180709, Control_c, 0, 64, 0
1, 181428, Control_c, 0, 64, 30
1, 181443, Control_c, 0, 64, 32
1, 181458, Control_c, 0, 64, 33
1, 181472, Control_c, 0, 64, 33
1, 181487, Control_c, 0, 64, 34
1, 181517, Control_c, 0, 64, 33
1, 181577, Control_c, 0, 64, 33
1, 181651, Control_c, 0, 64, 33
1, 181666, Control_c, 0, 64, 34
1, 181681, Control_c, 0, 64, 35
1, 181696, Control_c, 0, 64, 37
1, 181711, Control_c, 0, 64, 39
1, 181733, Control_c, 0, 64, 41
1, 181747, Control_c, 0, 64, 42
1, 181762, Control_c, 0, 64, 43
1, 181792, Control_c, 0, 64, 43
1, 181821, Control_c, 0, 64, 44
1, 181851, Control_c, 0, 64, 44
1, 182134, Control_c, 0, 64, 44
1, 182238, Control_c, 0, 64, 44
1, 182296, Control_c, 0, 64, 45
1, 182326, Control_c, 0, 64, 45
1, 182370, Control_c, 0, 64, 46
1, 182414, Control_c, 0, 64, 46
1, 182444, Control_c, 0, 64, 47
1, 182510, Control_c, 0, 64, 47
1, 182525, Control_c, 0, 64, 48
1, 182540, Control_c, 0, 64, 49
1, 182555, Control_c, 0, 64, 52
1, 182569, Control_c, 0, 64, 54
1, 182599, Control_c, 0, 64, 53
1, 182629, Control_c, 0, 67, 19
1, 182674, Control_c, 0, 64, 54
1, 182703, Control_c, 0, 64, 53
1, 182718, Control_c, 0, 67, 0
1, 182748, Control_c, 0, 64, 53
1, 182763, Control_c, 0, 64, 52
1, 182777, Control_c, 0, 64, 52
1, 182808, Control_c, 0, 64, 51
1, 182867, Control_c, 0, 64, 52
1, 182882, Control_c, 0, 64, 52
1, 182897, Control_c, 0, 64, 53
1, 182912, Control_c, 0, 64, 54
1, 182926, Control_c, 0, 64, 54
1, 183044, Control_c, 0, 64, 55
1, 183059, Control_c, 0, 64, 56
1, 183074, Control_c, 0, 64, 57
1, 183089, Control_c, 0, 64, 57
1, 183133, Control_c, 0, 64, 58
1, 183163, Control_c, 0, 64, 57
1, 183207, Control_c, 0, 64, 57
1, 183259, Control_c, 0, 64, 56
1, 183289, Control_c, 0, 64, 56
1, 183333, Control_c, 0, 64, 55
1, 183467, Control_c, 0, 64, 56
1, 183646, Control_c, 0, 64, 56
1, 183660, Control_c, 0, 64, 57
1, 183675, Control_c, 0, 64, 58
1, 183690, Control_c, 0, 64, 58
1, 183705, Control_c, 0, 64, 59
1, 183720, Control_c, 0, 64, 59
1, 183735, Control_c, 0, 64, 60
1, 183749, Control_c, 0, 64, 60
1, 183764, Control_c, 0, 64, 61
1, 183794, Control_c, 0, 64, 61
1, 183809, Control_c, 0, 64, 62
1, 183838, Control_c, 0, 64, 62
1, 183883, Control_c, 0, 64, 62
1, 183913, Control_c, 0, 64, 61
1, 183928, Control_c, 0, 64, 61
1, 183942, Control_c, 0, 64, 60
1, 183979, Control_c, 0, 64, 60
1, 183994, Control_c, 0, 64, 59
1, 184024, Control_c, 0, 64, 58
1, 184039, Control_c, 0, 64, 58
1, 184054, Control_c, 0, 64, 57
1, 184083, Control_c, 0, 64, 57
1, 184113, Control_c, 0, 64, 56
1, 184275, Control_c, 0, 64, 57
1, 184320, Control_c, 0, 64, 57
1, 184528, Control_c, 0, 64, 58
1, 184632, Control_c, 0, 64, 57
1, 184877, Control_c, 0, 64, 58
1, 184891, Control_c, 0, 64, 59
1, 184906, Control_c, 0, 64, 59
1, 184921, Control_c, 0, 64, 60
1, 184965, Control_c, 0, 64, 60
1, 184980, Control_c, 0, 64, 61
1, 184995, Control_c, 0, 64, 62
1, 185010, Control_c, 0, 64, 63
1, 185024, Control_c, 0, 64, 64
1, 185039, Control_c, 0, 64, 65
1, 185054, Control_c, 0, 64, 66
1, 185098, Control_c, 0, 64, 65
1, 185113, Control_c, 0, 64, 65
1, 185128, Control_c, 0, 64, 64
1, 185143, Control_c, 0, 64, 64
1, 185172, Control_c, 0, 64, 63
1, 185188, Control_c, 0, 64, 63
1, 185203, Control_c, 0, 64, 62
1, 185218, Control_c, 0, 64, 62
1, 185232, Control_c, 0, 64, 61
1, 185247, Control_c, 0, 64, 60
1, 185262, Control_c, 0, 64, 59
1, 185277, Control_c, 0, 64, 59
1, 185321, Control_c, 0, 64, 58
1, 185350, Control_c, 0, 64, 58
1, 185394, Control_c, 0, 64, 57
1, 185409, Control_c, 0, 64, 57
1, 185438, Control_c, 0, 64, 56
1, 185491, Control_c, 0, 64, 56
1, 185594, Control_c, 0, 64, 55
1, 185624, Control_c, 0, 64, 55
1, 185653, Control_c, 0, 64, 54
1, 185831, Control_c, 0, 64, 54
1, 185860, Control_c, 0, 64, 53
1, 185875, Control_c, 0, 64, 51
1, 185890, Control_c, 0, 64, 48
1, 185905, Control_c, 0, 64, 44
1, 185920, Control_c, 0, 64, 36
1, 185935, Control_c, 0, 64, 0
1, 186209, Control_c, 0, 67, 20
1, 186224, Control_c, 0, 67, 23
1, 186239, Control_c, 0, 67, 29
1, 186254, Control_c, 0, 67, 36
1, 186269, Control_c, 0, 67, 46
1, 186284, Control_c, 0, 67, 55
1, 186299, Control_c, 0, 67, 64
1, 186313, Control_c, 0, 67, 70
1, 186328, Control_c, 0, 67, 72
1, 186343, Control_c, 0, 67, 70
1, 186358, Control_c, 0, 67, 68
1, 186373, Control_c, 0, 67, 66
1, 186387, Control_c, 0, 67, 64
1, 186402, Control_c, 0, 67, 62
1, 186417, Control_c, 0, 67, 60
1, 186432, Control_c, 0, 67, 58
1, 186447, Control_c, 0, 67, 52
1, 186461, Control_c, 0, 67, 43
1, 186476, Control_c, 0, 67, 31
1, 186491, Control_c, 0, 67, 0
1, 186863, Control_c, 0, 64, 33
1, 186878, Control_c, 0, 64, 36
1, 186892, Control_c, 0, 64, 39
1, 186907, Control_c, 0, 64, 41
1, 186922, Control_c, 0, 64, 42
1, 186937, Control_c, 0, 64, 44
1, 186952, Control_c, 0, 64, 45
1, 186974, Control_c, 0, 64, 47
1, 186989, Control_c, 0, 64, 48
1, 187004, Control_c, 0, 64, 48
1, 187018, Control_c, 0, 64, 49
1, 187092, Control_c, 0, 64, 49
1, 187137, Control_c, 0, 64, 50
1, 187166, Control_c, 0, 64, 50
1, 187255, Control_c, 0, 64, 51
1, 187300, Control_c, 0, 64, 51
1, 187433, Control_c, 0, 64, 52
1, 187551, Control_c, 0, 64, 52
1, 187827, Control_c, 0, 64, 53
1, 188286, Control_c, 0, 64, 53
1, 188752, Control_c, 0, 67, 20
1, 188767, Control_c, 0, 67, 23
1, 188782, Control_c, 0, 67, 26
1, 188797, Control_c, 0, 67, 32
1, 188811, Control_c, 0, 67, 42
1, 188826, Control_c, 0, 67, 56
1, 188841, Control_c, 0, 67, 76
1, 188856, Control_c, 0, 67, 99
1, 188871, Control_c, 0, 67, 125
1, 188886, Control_c, 0, 67, 127
1, 188974, Control_c, 0, 64, 54
1, 189004, Control_c, 0, 64, 55
1, 189019, Control_c, 0, 64, 56
1, 189034, Control_c, 0, 64, 56
1, 189049, Control_c, 0, 64, 57
1, 189063, Control_c, 0, 64, 58
1, 189078, Control_c, 0, 64, 59
1, 189094, Control_c, 0, 64, 59
1, 189123, Control_c, 0, 64, 60
1, 189123, Control_c, 0, 67, 123
1, 189138, Control_c, 0, 67, 88
1, 189153, Control_c, 0, 67, 38
1, 189168, Control_c, 0, 67, 0
1, 189280, Control_c, 0, 64, 59
1, 189309, Control_c, 0, 64, 59
1, 189354, Control_c, 0, 64, 58
1, 189354, Control_c, 0, 67, 21
1, 189369, Control_c, 0, 64, 58
1, 189369, Control_c, 0, 67, 28
1, 189384, Control_c, 0, 67, 44
1, 189399, Control_c, 0, 64, 57
1, 189399, Control_c, 0, 67, 68
1, 189413, Control_c, 0, 64, 57
1, 189413, Control_c, 0, 67, 95
1, 189428, Control_c, 0, 64, 56
1, 189428, Control_c, 0, 67, 119
1, 189443, Control_c, 0, 64, 55
1, 189443, Control_c, 0, 67, 127
1, 189458, Control_c, 0, 64, 55
1, 189473, Control_c, 0, 64, 54
1, 189487, Control_c, 0, 64, 54
1, 189502, Control_c, 0, 64, 53
1, 189517, Control_c, 0, 64, 52
1, 189532, Control_c, 0, 64, 50
1, 189547, Control_c, 0, 64, 47
1, 189561, Control_c, 0, 64, 44
1, 189576, Control_c, 0, 64, 41
1, 189591, Control_c, 0, 64, 37
1, 189605, Control_c, 0, 64, 34
1, 189620, Control_c, 0, 64, 31
1, 189679, Control_c, 0, 64, 32
1, 189694, Control_c, 0, 64, 32
1, 189709, Control_c, 0, 64, 33
1, 189724, Control_c, 0, 64, 34
1, 189738, Control_c, 0, 64, 35
1, 189753, Control_c, 0, 64, 35
1, 189768, Control_c, 0, 64, 36
1, 189783, Control_c, 0, 64, 38
1, 189798, Control_c, 0, 64, 39
1, 189813, Control_c, 0, 64, 41
1, 189817, Note_on_c, 0, 38, 35
1, 189828, Control_c, 0, 64, 44
1, 189843, Control_c, 0, 64, 46
1, 189858, Control_c, 0, 64, 49
1, 189873, Control_c, 0, 64, 51
1, 189887, Control_c, 0, 64, 53
1, 189902, Control_c, 0, 64, 56
1, 189917, Control_c, 0, 64, 58
1, 189931, Control_c, 0, 64, 60
1, 189953, Control_c, 0, 64, 62
1, 189968, Control_c, 0, 64, 63
1, 189975, Note_on_c, 0, 45, 38
1, 189984, Control_c, 0, 64, 64
1, 189999, Control_c, 0, 64, 64
1, 190014, Control_c, 0, 64, 65
1, 190029, Control_c, 0, 64, 66
1, 190043, Control_c, 0, 64, 68
1, 190058, Control_c, 0, 64, 69
1, 190061, Note_on_c, 0, 54, 36
1, 190073, Control_c, 0, 64, 70
1, 190088, Control_c, 0, 64, 71
1, 190103, Control_c, 0, 64, 72
1, 190117, Control_c, 0, 64, 74
1, 190132, Control_c, 0, 64, 75
1, 190144, Note_on_c, 0, 62, 37
1, 190147, Control_c, 0, 64, 78
1, 190162, Control_c, 0, 64, 80
1, 190174, Note_on_c, 0, 66, 43
1, 190177, Control_c, 0, 64, 82
1, 190192, Control_c, 0, 64, 85
1, 190206, Control_c, 0, 64, 88
1, 190212, Note_on_c, 0, 69, 48
1, 190221, Control_c, 0, 64, 92
1, 190221, Control_c, 0, 67, 120
1, 190236, Control_c, 0, 64, 96
1, 190236, Control_c, 0, 67, 110
1, 190251, Control_c, 0, 64, 102
1, 190251, Control_c, 0, 67, 100
1, 190266, Note_on_c, 0, 74, 62
1, 190266, Control_c, 0, 64, 112
1, 190266, Control_c, 0, 67, 89
1, 190275, Note_off_c, 0, 38, 38
1, 190281, Control_c, 0, 64, 127
1, 190281, Control_c, 0, 67, 77
1, 190296, Control_c, 0, 67, 65
1, 190310, Control_c, 0, 67, 55
1, 190325, Control_c, 0, 67, 46
1, 190337, Note_off_c, 0, 45, 39
1, 190340, Control_c, 0, 67, 38
1, 190354, Control_c, 0, 67, 31
1, 190369, Control_c, 0, 67, 27
1, 190372, Note_off_c, 0, 62, 36
1, 190384, Control_c, 0, 67, 23
1, 190399, Control_c, 0, 67, 20
1, 190439, Note_off_c, 0, 66, 37
1, 190440, Note_off_c, 0, 74, 52
1, 190449, Note_off_c, 0, 54, 39
1, 190550, Note_off_c, 0, 69, 35
1, 190740, Note_on_c, 0, 76, 61
1, 190769, Note_on_c, 0, 64, 37
1, 190807, Control_c, 0, 67, 22
1, 190834, Note_off_c, 0, 76, 52
1, 190897, Note_on_c, 0, 47, 36
1, 190921, Note_off_c, 0, 64, 35
1, 190922, Note_on_c, 0, 50, 35
1, 190959, Note_on_c, 0, 54, 30
1, 190977, Note_on_c, 0, 57, 44
1, 191017, Note_on_c, 0, 62, 51
1, 191029, Control_c, 0, 64, 114
1, 191044, Control_c, 0, 64, 100
1, 191059, Control_c, 0, 64, 87
1, 191074, Control_c, 0, 64, 75
1, 191075, Note_on_c, 0, 66, 42
1, 191089, Control_c, 0, 64, 66
1, 191100, Note_on_c, 0, 69, 47
1, 191104, Control_c, 0, 64, 59
1, 191119, Control_c, 0, 64, 54
1, 191130, Note_on_c, 0, 74, 68
1, 191133, Control_c, 0, 64, 54
1, 191148, Control_c, 0, 64, 56
1, 191163, Control_c, 0, 64, 59
1, 191177, Control_c, 0, 64, 61
1, 191184, Note_off_c, 0, 69, 53
1, 191192, Control_c, 0, 64, 64
1, 191207, Control_c, 0, 64, 66
1, 191222, Control_c, 0, 64, 70
1, 191237, Note_off_c, 0, 50, 36
1, 191237, Control_c, 0, 64, 74
1, 191250, Note_off_c, 0, 57, 38
1, 191251, Control_c, 0, 64, 77
1, 191266, Control_c, 0, 64, 80
1, 191281, Control_c, 0, 64, 84
1, 191282, Note_off_c, 0, 62, 58
1, 191294, Note_off_c, 0, 54, 41
1, 191296, Control_c, 0, 64, 87
1, 191308, Note_off_c, 0, 47, 50
1, 191310, Control_c, 0, 64, 92
1, 191325, Control_c, 0, 64, 100
1, 191332, Note_off_c, 0, 74, 57
1, 191341, Control_c, 0, 64, 111
1, 191356, Control_c, 0, 64, 127
1, 191472, Note_on_c, 0, 73, 71
1, 191484, Note_off_c, 0, 66, 61
1, 191489, Note_on_c, 0, 61, 48
1, 191541, Note_off_c, 0, 61, 55
1, 191596, Note_off_c, 0, 73, 38
1, 191619, Note_on_c, 0, 43, 42
1, 191664, Note_on_c, 0, 50, 40
1, 191675, Control_c, 0, 64, 125
1, 191690, Control_c, 0, 64, 113
1, 191703, Note_on_c, 0, 55, 42
1, 191704, Note_on_c, 0, 61, 47
1, 191705, Control_c, 0, 64, 106
1, 191720, Control_c, 0, 64, 100
1, 191734, Control_c, 0, 64, 95
1, 191739, Note_on_c, 0, 62, 55
1, 191749, Control_c, 0, 64, 90
1, 191764, Control_c, 0, 64, 82
1, 191779, Control_c, 0, 64, 74
1, 191781, Note_on_c, 0, 67, 49
1, 191794, Control_c, 0, 64, 65
1, 191808, Control_c, 0, 64, 56
1, 191823, Control_c, 0, 64, 46
1, 191830, Note_on_c, 0, 73, 66
1, 191838, Control_c, 0, 64, 42
1, 191868, Control_c, 0, 64, 44
1, 191882, Control_c, 0, 64, 48
1, 191897, Control_c, 0, 64, 53
1, 191912, Control_c, 0, 64, 59
1, 191926, Control_c, 0, 64, 63
1, 191941, Control_c, 0, 64, 67
1, 191956, Control_c, 0, 64, 71
1, 191971, Control_c, 0, 64, 76
1, 191986, Control_c, 0, 64, 80
1, 191987, Note_off_c, 0, 55, 37
1, 192001, Control_c, 0, 64, 84
1, 192002, Note_off_c, 0, 73, 62
1, 192007, Note_off_c, 0, 67, 52
1, 192016, Control_c, 0, 64, 88
1, 192022, Note_off_c, 0, 61, 55
1, 192031, Control_c, 0, 64, 92
1, 192046, Control_c, 0, 64, 96
1, 192047, Note_off_c, 0, 43, 40
1, 192061, Control_c, 0, 64, 100
1, 192075, Control_c, 0, 64, 103
1, 192108, Note_off_c, 0, 50, 36
1, 192139, Note_on_c, 0, 71, 69
1, 192156, Note_on_c, 0, 59, 42
1, 192187, Note_off_c, 0, 62, 30
1, 192210, Note_off_c, 0, 59, 62
1, 192239, Note_on_c, 0, 42, 47
1, 192257, Note_off_c, 0, 71, 56
1, 192320, Control_c, 0, 64, 101
1, 192334, Control_c, 0, 64, 99
1, 192341, Note_on_c, 0, 50, 36
1, 192349, Control_c, 0, 64, 97
1, 192364, Control_c, 0, 64, 95
1, 192380, Control_c, 0, 64, 93
1, 192386, Note_on_c, 0, 61, 46
1, 192394, Control_c, 0, 64, 90
1, 192399, Note_on_c, 0, 57, 45
1, 192409, Control_c, 0, 64, 88
1, 192424, Control_c, 0, 64, 86
1, 192439, Control_c, 0, 64, 84
1, 192445, Note_on_c, 0, 62, 38
1, 192454, Control_c, 0, 64, 81
1, 192469, Control_c, 0, 64, 79
1, 192484, Control_c, 0, 64, 77
1, 192497, Note_on_c, 0, 69, 41
1, 192499, Control_c, 0, 64, 75
1, 192513, Control_c, 0, 64, 73
1, 192528, Control_c, 0, 64, 69
1, 192543, Control_c, 0, 64, 64
1, 192557, Control_c, 0, 64, 56
1, 192572, Control_c, 0, 64, 45
1, 192573, Note_on_c, 0, 73, 69
1, 192587, Control_c, 0, 64, 33
1, 192602, Control_c, 0, 64, 0
1, 192676, Control_c, 0, 64, 33
1, 192691, Control_c, 0, 64, 47
1, 192705, Control_c, 0, 64, 58
1, 192720, Control_c, 0, 64, 65
1, 192726, Note_off_c, 0, 62, 43
1, 192735, Control_c, 0, 64, 67
1, 192749, Control_c, 0, 64, 69
1, 192751, Note_off_c, 0, 69, 22
1, 192764, Control_c, 0, 64, 71
1, 192768, Note_off_c, 0, 57, 37
1, 192779, Control_c, 0, 64, 74
1, 192794, Note_off_c, 0, 61, 33
1, 192794, Control_c, 0, 64, 79
1, 192809, Control_c, 0, 64, 85
1, 192821, Note_off_c, 0, 50, 40
1, 192824, Control_c, 0, 64, 90
1, 192838, Control_c, 0, 64, 94
1, 192853, Control_c, 0, 64, 97
1, 192866, Note_off_c, 0, 42, 43
1, 192868, Control_c, 0, 64, 101
1, 192882, Control_c, 0, 64, 105
1, 192897, Control_c, 0, 64, 109
1, 192912, Control_c, 0, 64, 115
1, 192927, Control_c, 0, 64, 119
1, 192942, Control_c, 0, 64, 122
1, 192964, Control_c, 0, 64, 125
1, 193112, Control_c, 0, 64, 122
1, 193127, Control_c, 0, 64, 120
1, 193142, Control_c, 0, 64, 118
1, 193156, Control_c, 0, 64, 116
1, 193171, Control_c, 0, 64, 113
1, 193187, Control_c, 0, 64, 110
1, 193202, Control_c, 0, 64, 108
1, 193217, Control_c, 0, 64, 106
1, 193247, Control_c, 0, 64, 102
1, 193261, Control_c, 0, 64, 100
1, 193276, Control_c, 0, 64, 97
1, 193291, Control_c, 0, 64, 91
1, 193306, Control_c, 0, 64, 83
1, 193313, Note_on_c, 0, 59, 33
1, 193321, Control_c, 0, 64, 74
1, 193324, Note_on_c, 0, 40, 28
1, 193330, Note_on_c, 0, 45, 25
1, 193335, Control_c, 0, 64, 69
1, 193350, Control_c, 0, 64, 65
1, 193365, Control_c, 0, 64, 64
1, 193394, Control_c, 0, 64, 65
1, 193409, Control_c, 0, 64, 67
1, 193424, Control_c, 0, 64, 71
1, 193424, Control_c, 0, 67, 25
1, 193439, Control_c, 0, 64, 76
1, 193439, Control_c, 0, 67, 27
1, 193453, Control_c, 0, 64, 81
1, 193453, Control_c, 0, 67, 29
1, 193468, Control_c, 0, 64, 87
1, 193468, Control_c, 0, 67, 31
1, 193483, Control_c, 0, 64, 92
1, 193483, Control_c, 0, 67, 34
1, 193497, Control_c, 0, 64, 98
1, 193497, Control_c, 0, 67, 39
1, 193509, Note_off_c, 0, 73, 39
1, 193512, Control_c, 0, 64, 108
1, 193512, Control_c, 0, 67, 47
1, 193513, Note_off_c, 0, 45, 41
1, 193527, Control_c, 0, 64, 127
1, 193527, Control_c, 0, 67, 57
1, 193536, Note_off_c, 0, 40, 41
1, 193542, Control_c, 0, 67, 68
1, 193557, Control_c, 0, 67, 81
1, 193572, Control_c, 0, 67, 90
1, 193587, Control_c, 0, 67, 95
1, 193594, Note_off_c, 0, 59, 34
1, 193602, Control_c, 0, 67, 95
1, 193632, Control_c, 0, 67, 94
1, 193661, Control_c, 0, 67, 94
1, 193676, Control_c, 0, 67, 93
1, 193697, Control_c, 0, 67, 93
1, 193712, Control_c, 0, 67, 92
1, 193727, Control_c, 0, 67, 92
1, 193742, Control_c, 0, 67, 91
1, 193846, Control_c, 0, 67, 91
1, 194010, Note_on_c, 0, 66, 44
1, 194046, Note_on_c, 0, 54, 9
1, 194084, Control_c, 0, 67, 90
1, 194096, Note_off_c, 0, 66, 46
1, 194098, Note_off_c, 0, 54, 49
1, 194217, Control_c, 0, 64, 119
1, 194232, Control_c, 0, 64, 110
1, 194247, Control_c, 0, 64, 105
1, 194262, Control_c, 0, 64, 101
1, 194276, Control_c, 0, 64, 97
1, 194291, Control_c, 0, 64, 92
1, 194306, Control_c, 0, 64, 86
1, 194317, Note_on_c, 0, 66, 43
1, 194320, Control_c, 0, 64, 79
1, 194335, Note_on_c, 0, 61, 33
1, 194336, Control_c, 0, 64, 73
1, 194344, Note_on_c, 0, 54, 20
1, 194347, Note_on_c, 0, 33, 20
1, 194351, Control_c, 0, 64, 67
1, 194353, Note_on_c, 0, 38, 8
1, 194366, Control_c, 0, 64, 60
1, 194381, Control_c, 0, 64, 48
1, 194395, Control_c, 0, 64, 0
1, 194551, Control_c, 0, 67, 90
1, 194758, Control_c, 0, 67, 89
1, 195012, Control_c, 0, 64, 39
1, 195026, Control_c, 0, 64, 50
1, 195041, Control_c, 0, 64, 59
1, 195056, Control_c, 0, 64, 63
1, 195070, Control_c, 0, 64, 65
1, 195085, Control_c, 0, 64, 68
1, 195100, Control_c, 0, 64, 75
1, 195115, Control_c, 0, 64, 88
1, 195115, Control_c, 0, 67, 89
1, 195128, Note_off_c, 0, 38, 39
1, 195130, Note_off_c, 0, 33, 48
1, 195130, Control_c, 0, 64, 110
1, 195144, Control_c, 0, 64, 127
1, 195144, Control_c, 0, 67, 88
1, 195174, Control_c, 0, 67, 88
1, 195203, Note_off_c, 0, 61, 40
1, 195221, Note_off_c, 0, 54, 38
1, 195232, Note_off_c, 0, 66, 30
1, 195241, Control_c, 0, 67, 87
1, 195416, Note_on_c, 0, 38, 31
1, 195492, Control_c, 0, 67, 87
1, 195521, Note_on_c, 0, 45, 29
1, 195522, Control_c, 0, 67, 86
1, 195537, Control_c, 0, 64, 125
1, 195539, Note_on_c, 0, 54, 35
1, 195551, Control_c, 0, 64, 102
1, 195567, Control_c, 0, 64, 91
1, 195567, Control_c, 0, 67, 86
1, 195582, Note_on_c, 0, 59, 34
1, 195582, Control_c, 0, 64, 82
1, 195597, Control_c, 0, 64, 75
1, 195597, Control_c, 0, 67, 85
1, 195612, Note_on_c, 0, 62, 45
1, 195612, Control_c, 0, 64, 67
1, 195612, Control_c, 0, 67, 84
1, 195627, Control_c, 0, 64, 63
1, 195627, Control_c, 0, 67, 83
1, 195642, Control_c, 0, 64, 59
1, 195642, Control_c, 0, 67, 83
1, 195656, Control_c, 0, 67, 81
1, 195671, Control_c, 0, 64, 60
1, 195671, Control_c, 0, 67, 80
1, 195673, Note_on_c, 0, 66, 45
1, 195686, Control_c, 0, 64, 62
1, 195686, Control_c, 0, 67, 75
1, 195700, Control_c, 0, 64, 64
1, 195700, Control_c, 0, 67, 65
1, 195715, Control_c, 0, 64, 67
1, 195715, Control_c, 0, 67, 55
1, 195730, Control_c, 0, 64, 69
1, 195730, Control_c, 0, 67, 46
1, 195745, Control_c, 0, 64, 72
1, 195745, Control_c, 0, 67, 35
1, 195760, Control_c, 0, 64, 76
1, 195760, Control_c, 0, 67, 26
1, 195775, Control_c, 0, 64, 80
1, 195775, Control_c, 0, 67, 0
1, 195790, Control_c, 0, 64, 84
1, 195802, Note_off_c, 0, 62, 36
1, 195805, Control_c, 0, 64, 91
1, 195820, Control_c, 0, 64, 98
1, 195825, Note_off_c, 0, 38, 41
1, 195834, Control_c, 0, 64, 113
1, 195849, Control_c, 0, 64, 127
1, 195890, Note_off_c, 0, 45, 35
1, 195950, Note_off_c, 0, 66, 33
1, 195956, Note_off_c, 0, 54, 42
1, 196101, Note_on_c, 0, 67, 47
1, 196109, Note_on_c, 0, 55, 36
1, 196159, Note_off_c, 0, 59, 40
1, 196180, Note_off_c, 0, 55, 54
1, 196219, Note_on_c, 0, 42, 49
1, 196255, Note_off_c, 0, 67, 37
1, 196286, Note_on_c, 0, 49, 46
1, 196320, Note_on_c, 0, 57, 50
1, 196330, Control_c, 0, 64, 99
1, 196345, Control_c, 0, 64, 84
1, 196360, Control_c, 0, 64, 74
1, 196376, Control_c, 0, 64, 67
1, 196377, Note_on_c, 0, 64, 46
1, 196390, Control_c, 0, 64, 63
1, 196405, Control_c, 0, 64, 61
1, 196419, Note_on_c, 0, 69, 60
1, 196420, Control_c, 0, 64, 61
1, 196435, Control_c, 0, 64, 63
1, 196450, Control_c, 0, 64, 65
1, 196464, Control_c, 0, 64, 68
1, 196479, Control_c, 0, 64, 73
1, 196484, Note_off_c, 0, 42, 62
1, 196494, Control_c, 0, 64, 81
1, 196509, Control_c, 0, 64, 89
1, 196523, Control_c, 0, 64, 101
1, 196538, Control_c, 0, 64, 127
1, 196547, Note_off_c, 0, 49, 58
1, 196582, Note_off_c, 0, 57, 36
1, 196587, Note_off_c, 0, 69, 54
1, 196621, Note_off_c, 0, 64, 51
1, 196716, Note_on_c, 0, 71, 70
1, 196729, Note_on_c, 0, 59, 42
1, 196758, Note_off_c, 0, 59, 58
1, 196789, Note_off_c, 0, 71, 58
1, 196851, Note_on_c, 0, 47, 49
1, 196894, Note_on_c, 0, 54, 45
1, 196900, Note_on_c, 0, 61, 56
1, 196931, Control_c, 0, 64, 100
1, 196946, Control_c, 0, 64, 79
1, 196951, Note_on_c, 0, 66, 49
1, 196955, Note_on_c, 0, 69, 55
1, 196961, Control_c, 0, 64, 64
1, 196976, Control_c, 0, 64, 48
1, 196991, Control_c, 0, 64, 0
1, 197007, Note_on_c, 0, 73, 75
1, 197064, Control_c, 0, 64, 35
1, 197079, Control_c, 0, 64, 49
1, 197094, Control_c, 0, 64, 61
1, 197109, Control_c, 0, 64, 69
1, 197123, Control_c, 0, 64, 77
1, 197128, Note_off_c, 0, 47, 61
1, 197138, Control_c, 0, 64, 86
1, 197148, Note_off_c, 0, 61, 50
1, 197153, Control_c, 0, 64, 96
1, 197169, Control_c, 0, 64, 127
1, 197176, Note_off_c, 0, 54, 38
1, 197193, Note_off_c, 0, 73, 56
1, 197232, Note_off_c, 0, 69, 38
1, 197286, Note_on_c, 0, 74, 79
1, 197295, Note_on_c, 0, 62, 63
1, 197346, Note_off_c, 0, 62, 54
1, 197358, Note_off_c, 0, 66, 37
1, 197369, Note_off_c, 0, 74, 59
1, 197428, Note_on_c, 0, 46, 52
1, 197482, Note_on_c, 0, 56, 56
1, 197551, Note_on_c, 0, 62, 52
1, 197568, Note_on_c, 0, 64, 55
1, 197576, Control_c, 0, 64, 122
1, 197591, Control_c, 0, 64, 103
1, 197606, Control_c, 0, 64, 89
1, 197609, Note_on_c, 0, 68, 60
1, 197620, Control_c, 0, 64, 76
1, 197635, Control_c, 0, 64, 64
1, 197650, Control_c, 0, 64, 47
1, 197662, Note_on_c, 0, 76, 78
1, 197665, Control_c, 0, 64, 0
1, 197739, Control_c, 0, 64, 38
1, 197754, Control_c, 0, 64, 53
1, 197769, Control_c, 0, 64, 62
1, 197784, Control_c, 0, 64, 67
1, 197793, Note_off_c, 0, 62, 36
1, 197799, Control_c, 0, 64, 72
1, 197814, Control_c, 0, 64, 75
1, 197823, Note_off_c, 0, 64, 61
1, 197828, Control_c, 0, 64, 79
1, 197843, Control_c, 0, 64, 83
1, 197858, Control_c, 0, 64, 89
1, 197872, Control_c, 0, 64, 94
1, 197875, Note_off_c, 0, 56, 38
1, 197880, Note_off_c, 0, 46, 58
1, 197887, Control_c, 0, 64, 98
1, 197902, Control_c, 0, 64, 100
1, 197942, Note_on_c, 0, 74, 76
1, 197946, Control_c, 0, 64, 102
1, 197962, Note_on_c, 0, 62, 54
1, 197978, Note_off_c, 0, 68, 61
1, 197999, Note_off_c, 0, 76, 44
1, 198012, Note_off_c, 0, 62, 57
1, 198110, Note_on_c, 0, 76, 79
1, 198122, Note_on_c, 0, 64, 62
1, 198136, Note_off_c, 0, 74, 59
1, 198157, Note_off_c, 0, 64, 62
1, 198169, Control_c, 0, 64, 99
1, 198181, Note_on_c, 0, 45, 56
1, 198192, Control_c, 0, 64, 96
1, 198207, Control_c, 0, 64, 92
1, 198207, Note_off_c, 0, 76, 61
1, 198222, Control_c, 0, 64, 88
1, 198237, Control_c, 0, 64, 84
1, 198249, Note_on_c, 0, 54, 51
1, 198251, Control_c, 0, 64, 81
1, 198266, Control_c, 0, 64, 79
1, 198281, Control_c, 0, 64, 77
1, 198284, Note_on_c, 0, 66, 66
1, 198291, Note_on_c, 0, 61, 54
1, 198295, Control_c, 0, 64, 75
1, 198310, Control_c, 0, 64, 73
1, 198325, Control_c, 0, 64, 70
1, 198340, Control_c, 0, 64, 64
1, 198342, Note_on_c, 0, 69, 54
1, 198355, Control_c, 0, 64, 55
1, 198368, Note_on_c, 0, 73, 61
1, 198369, Control_c, 0, 64, 0
1, 198401, Note_on_c, 0, 78, 78
1, 198462, Note_off_c, 0, 73, 52
1, 198502, Control_c, 0, 64, 31
1, 198517, Control_c, 0, 64, 63
1, 198532, Control_c, 0, 64, 73
1, 198547, Control_c, 0, 64, 83
1, 198560, Note_off_c, 0, 61, 60
1, 198562, Control_c, 0, 64, 91
1, 198577, Control_c, 0, 64, 100
1, 198592, Control_c, 0, 64, 127
1, 198599, Note_off_c, 0, 78, 61
1, 198606, Note_off_c, 0, 66, 57
1, 198648, Note_off_c, 0, 45, 35
1, 198654, Note_off_c, 0, 54, 46
1, 198815, Note_on_c, 0, 73, 70
1, 198819, Note_off_c, 0, 69, 63
1, 198844, Note_on_c, 0, 61, 45
1, 198901, Note_off_c, 0, 73, 60
1, 198946, Note_on_c, 0, 45, 41
1, 198958, Note_off_c, 0, 61, 54
1, 198985, Note_on_c, 0, 50, 49
1, 199020, Note_on_c, 0, 54, 58
1, 199059, Control_c, 0, 64, 114
1, 199074, Control_c, 0, 64, 104
1, 199089, Control_c, 0, 64, 97
1, 199098, Note_on_c, 0, 59, 48
1, 199104, Control_c, 0, 64, 91
1, 199118, Control_c, 0, 64, 86
1, 199133, Control_c, 0, 64, 81
1, 199136, Note_on_c, 0, 62, 50
1, 199148, Control_c, 0, 64, 73
1, 199161, Note_on_c, 0, 66, 60
1, 199163, Control_c, 0, 64, 64
1, 199178, Control_c, 0, 64, 49
1, 199192, Control_c, 0, 64, 0
1, 199227, Note_on_c, 0, 71, 73
1, 199310, Control_c, 0, 64, 52
1, 199325, Control_c, 0, 64, 63
1, 199340, Control_c, 0, 64, 70
1, 199355, Control_c, 0, 64, 77
1, 199370, Control_c, 0, 64, 87
1, 199385, Note_off_c, 0, 59, 41
1, 199385, Control_c, 0, 64, 100
1, 199396, Note_off_c, 0, 45, 40
1, 199397, Note_off_c, 0, 71, 55
1, 199400, Control_c, 0, 64, 127
1, 199408, Note_off_c, 0, 54, 36
1, 199431, Note_off_c, 0, 50, 35
1, 199442, Note_off_c, 0, 62, 35
1, 199465, Note_off_c, 0, 66, 30
1, 199735, Note_on_c, 0, 43, 62
1, 199808, Control_c, 0, 64, 109
1, 199818, Note_on_c, 0, 50, 56
1, 199822, Control_c, 0, 64, 101
1, 199837, Control_c, 0, 64, 94
1, 199848, Note_on_c, 0, 54, 69
1, 199852, Control_c, 0, 64, 87
1, 199866, Control_c, 0, 64, 81
1, 199881, Control_c, 0, 64, 75
1, 199896, Control_c, 0, 64, 68
1, 199911, Control_c, 0, 64, 62
1, 199917, Note_on_c, 0, 59, 65
1, 199926, Control_c, 0, 64, 55
1, 199940, Control_c, 0, 64, 47
1, 199955, Control_c, 0, 64, 38
1, 199970, Control_c, 0, 64, 0
1, 199985, Note_on_c, 0, 71, 69
1, 200013, Note_on_c, 0, 74, 69
1, 200044, Note_on_c, 0, 78, 77
1, 200088, Note_on_c, 0, 83, 93
1, 200118, Control_c, 0, 64, 42
1, 200133, Control_c, 0, 64, 57
1, 200148, Control_c, 0, 64, 64
1, 200163, Control_c, 0, 64, 70
1, 200178, Control_c, 0, 64, 76
1, 200192, Control_c, 0, 64, 86
1, 200201, Note_off_c, 0, 78, 39
1, 200207, Control_c, 0, 64, 104
1, 200216, Note_off_c, 0, 43, 35
1, 200222, Control_c, 0, 64, 127
1, 200231, Note_off_c, 0, 50, 56
1, 200243, Note_off_c, 0, 54, 53
1, 200268, Note_off_c, 0, 71, 60
1, 200269, Note_off_c, 0, 59, 33
1, 200309, Note_off_c, 0, 83, 62
1, 200538, Note_on_c, 0, 78, 77
1, 200538, Note_off_c, 0, 74, 63
1, 200565, Note_on_c, 0, 66, 54
1, 200625, Note_off_c, 0, 78, 61
1, 200635, Note_on_c, 0, 47, 54
1, 200663, Note_off_c, 0, 66, 56
1, 200675, Note_on_c, 0, 52, 48
1, 200700, Note_on_c, 0, 55, 47
1, 200741, Note_on_c, 0, 62, 56
1, 200748, Note_on_c, 0, 64, 56
1, 200763, Control_c, 0, 64, 108
1, 200778, Control_c, 0, 64, 85
1, 200793, Control_c, 0, 64, 65
1, 200800, Note_on_c, 0, 67, 51
1, 200808, Control_c, 0, 64, 48
1, 200822, Control_c, 0, 64, 0
1, 200826, Note_on_c, 0, 71, 63
1, 200860, Note_on_c, 0, 76, 81
1, 200896, Control_c, 0, 64, 40
1, 200905, Note_off_c, 0, 47, 59
1, 200911, Control_c, 0, 64, 58
1, 200917, Note_off_c, 0, 64, 51
1, 200922, Note_off_c, 0, 67, 58
1, 200926, Control_c, 0, 64, 69
1, 200941, Control_c, 0, 64, 81
1, 200947, Note_off_c, 0, 62, 53
1, 200951, Note_off_c, 0, 55, 60
1, 200956, Control_c, 0, 64, 107
1, 200961, Note_off_c, 0, 52, 57
1, 200971, Control_c, 0, 64, 127
1, 200978, Note_off_c, 0, 71, 53
1, 201007, Note_off_c, 0, 76, 61
1, 201162, Note_on_c, 0, 81, 77
1, 201176, Note_on_c, 0, 69, 59
1, 201270, Note_off_c, 0, 81, 58
1, 201299, Note_off_c, 0, 69, 54
1, 201309, Note_on_c, 0, 52, 45
1, 201359, Note_on_c, 0, 59, 33
1, 201405, Note_on_c, 0, 61, 47
1, 201409, Control_c, 0, 64, 114
1, 201412, Note_on_c, 0, 67, 54
1, 201424, Control_c, 0, 64, 102
1, 201438, Control_c, 0, 64, 93
1, 201453, Control_c, 0, 64, 84
1, 201456, Note_on_c, 0, 71, 48
1, 201468, Control_c, 0, 64, 73
1, 201481, Note_on_c, 0, 73, 53
1, 201483, Control_c, 0, 64, 61
1, 201498, Control_c, 0, 64, 0
1, 201507, Note_on_c, 0, 79, 69
1, 201631, Control_c, 0, 64, 43
1, 201645, Control_c, 0, 64, 62
1, 201660, Control_c, 0, 64, 67
1, 201668, Note_off_c, 0, 67, 54
1, 201675, Control_c, 0, 64, 72
1, 201690, Control_c, 0, 64, 79
1, 201705, Control_c, 0, 64, 88
1, 201710, Note_off_c, 0, 61, 54
1, 201714, Note_off_c, 0, 59, 50
1, 201719, Control_c, 0, 64, 102
1, 201730, Note_off_c, 0, 79, 57
1, 201734, Control_c, 0, 64, 127
1, 201747, Note_off_c, 0, 52, 59
1, 201848, Note_on_c, 0, 76, 39
1, 201848, Note_off_c, 0, 71, 53
1, 201873, Note_on_c, 0, 64, 25
1, 201898, Note_off_c, 0, 73, 19
1, 201908, Note_off_c, 0, 76, 59
1, 201911, Note_off_c, 0, 64, 48
1, 202051, Note_on_c, 0, 47, 38
1, 202082, Note_on_c, 0, 54, 37
1, 202099, Control_c, 0, 64, 114
1, 202114, Control_c, 0, 64, 108
1, 202129, Control_c, 0, 64, 103
1, 202134, Note_on_c, 0, 64, 44
1, 202141, Note_on_c, 0, 59, 27
1, 202143, Control_c, 0, 64, 99
1, 202158, Control_c, 0, 64, 96
1, 202169, Note_on_c, 0, 66, 46
1, 202173, Control_c, 0, 64, 93
1, 202187, Control_c, 0, 64, 89
1, 202202, Control_c, 0, 64, 86
1, 202217, Control_c, 0, 64, 82
1, 202230, Note_on_c, 0, 71, 51
1, 202232, Control_c, 0, 64, 78
1, 202247, Control_c, 0, 64, 73
1, 202261, Control_c, 0, 64, 68
1, 202276, Control_c, 0, 64, 61
1, 202287, Note_on_c, 0, 76, 65
1, 202291, Control_c, 0, 64, 49
1, 202306, Control_c, 0, 64, 30
1, 202321, Control_c, 0, 64, 0
1, 202410, Control_c, 0, 64, 46
1, 202425, Control_c, 0, 64, 61
1, 202440, Control_c, 0, 64, 69
1, 202455, Control_c, 0, 64, 75
1, 202458, Note_off_c, 0, 54, 53
1, 202469, Control_c, 0, 64, 80
1, 202476, Note_off_c, 0, 47, 57
1, 202484, Control_c, 0, 64, 86
1, 202499, Control_c, 0, 64, 90
1, 202499, Control_c, 0, 67, 20
1, 202500, Note_off_c, 0, 71, 20
1, 202514, Control_c, 0, 64, 97
1, 202514, Control_c, 0, 67, 24
1, 202523, Note_off_c, 0, 66, 34
1, 202526, Note_off_c, 0, 64, 38
1, 202529, Control_c, 0, 64, 104
1, 202529, Control_c, 0, 67, 30
1, 202543, Control_c, 0, 64, 112
1, 202543, Control_c, 0, 67, 36
1, 202555, Note_off_c, 0, 59, 41
1, 202558, Control_c, 0, 64, 127
1, 202558, Control_c, 0, 67, 45
1, 202573, Control_c, 0, 67, 55
1, 202587, Control_c, 0, 67, 65
1, 202602, Control_c, 0, 67, 74
1, 202617, Control_c, 0, 67, 81
1, 202632, Control_c, 0, 67, 85
1, 202699, Control_c, 0, 67, 84
1, 202729, Control_c, 0, 67, 83
1, 202743, Control_c, 0, 67, 83
1, 202758, Control_c, 0, 67, 82
1, 202789, Control_c, 0, 67, 81
1, 202804, Control_c, 0, 67, 81
1, 202878, Control_c, 0, 67, 80
1, 202937, Control_c, 0, 64, 120
1, 202937, Control_c, 0, 67, 80
1, 202952, Control_c, 0, 64, 111
1, 202966, Control_c, 0, 64, 105
1, 202981, Control_c, 0, 64, 97
1, 202996, Control_c, 0, 64, 90
1, 202997, Note_on_c, 0, 64, 32
1, 203002, Note_on_c, 0, 59, 22
1, 203006, Note_on_c, 0, 54, 30
1, 203010, Control_c, 0, 64, 82
1, 203013, Note_on_c, 0, 69, 35
1, 203025, Control_c, 0, 64, 73
1, 203025, Control_c, 0, 67, 79
1, 203040, Control_c, 0, 64, 64
1, 203040, Control_c, 0, 67, 79
1, 203055, Control_c, 0, 64, 55
1, 203070, Control_c, 0, 64, 47
1, 203084, Control_c, 0, 64, 46
1, 203099, Control_c, 0, 64, 50
1, 203114, Control_c, 0, 64, 55
1, 203114, Control_c, 0, 67, 80
1, 203129, Control_c, 0, 64, 59
1, 203129, Control_c, 0, 67, 82
1, 203144, Control_c, 0, 64, 63
1, 203144, Control_c, 0, 67, 84
1, 203159, Control_c, 0, 64, 67
1, 203159, Control_c, 0, 67, 86
1, 203173, Control_c, 0, 64, 73
1, 203173, Control_c, 0, 67, 89
1, 203188, Control_c, 0, 64, 81
1, 203188, Control_c, 0, 67, 98
1, 203203, Control_c, 0, 64, 88
1, 203203, Control_c, 0, 67, 109
1, 203209, Note_off_c, 0, 64, 51
1, 203218, Control_c, 0, 64, 96
1, 203218, Control_c, 0, 67, 121
1, 203233, Control_c, 0, 64, 105
1, 203233, Control_c, 0, 67, 127
1, 203245, Note_off_c, 0, 59, 41
1, 203248, Control_c, 0, 64, 120
1, 203255, Note_off_c, 0, 76, 27
1, 203263, Control_c, 0, 64, 127
1, 203303, Note_off_c, 0, 69, 37
1, 203328, Note_off_c, 0, 54, 42
1, 203617, Note_on_c, 0, 71, 53
1, 203681, Note_off_c, 0, 71, 53
1, 203770, Note_on_c, 0, 47, 30
1, 203791, Note_on_c, 0, 52, 30
1, 203832, Control_c, 0, 64, 122
1, 203847, Control_c, 0, 64, 112
1, 203862, Control_c, 0, 64, 107
1, 203872, Note_on_c, 0, 57, 32
1, 203877, Control_c, 0, 64, 101
1, 203892, Control_c, 0, 64, 97
1, 203907, Control_c, 0, 64, 93
1, 203922, Control_c, 0, 64, 89
1, 203926, Note_on_c, 0, 62, 41
1, 203929, Note_on_c, 0, 71, 44
1, 203937, Control_c, 0, 64, 85
1, 203951, Control_c, 0, 64, 80
1, 203966, Control_c, 0, 64, 75
1, 203981, Control_c, 0, 64, 68
1, 203996, Control_c, 0, 64, 61
1, 204011, Control_c, 0, 64, 53
1, 204025, Control_c, 0, 64, 47
1, 204040, Control_c, 0, 64, 43
1, 204055, Control_c, 0, 64, 42
1, 204086, Control_c, 0, 64, 42
1, 204100, Control_c, 0, 64, 43
1, 204115, Control_c, 0, 64, 47
1, 204130, Control_c, 0, 64, 54
1, 204145, Control_c, 0, 64, 59
1, 204159, Control_c, 0, 64, 63
1, 204174, Control_c, 0, 64, 66
1, 204196, Control_c, 0, 64, 69
1, 204211, Control_c, 0, 64, 72
1, 204226, Control_c, 0, 64, 76
1, 204241, Control_c, 0, 64, 80
1, 204255, Control_c, 0, 64, 83
1, 204270, Control_c, 0, 64, 85
1, 204275, Note_off_c, 0, 57, 41
1, 204285, Control_c, 0, 64, 88
1, 204300, Control_c, 0, 64, 90
1, 204315, Control_c, 0, 64, 93
1, 204324, Note_off_c, 0, 52, 39
1, 204330, Control_c, 0, 64, 95
1, 204340, Note_off_c, 0, 47, 42
1, 204345, Control_c, 0, 64, 97
1, 204375, Control_c, 0, 64, 100
1, 204405, Control_c, 0, 64, 102
1, 204423, Note_off_c, 0, 62, 32
1, 204450, Note_off_c, 0, 71, 35
1, 204691, Note_on_c, 0, 40, 31
1, 204701, Control_c, 0, 64, 98
1, 204730, Control_c, 0, 64, 96
1, 204745, Control_c, 0, 64, 95
1, 204760, Control_c, 0, 64, 94
1, 204763, Note_on_c, 0, 45, 29
1, 204775, Control_c, 0, 64, 92
1, 204789, Control_c, 0, 64, 89
1, 204804, Control_c, 0, 64, 86
1, 204819, Control_c, 0, 64, 83
1, 204834, Control_c, 0, 64, 79
1, 204836, Note_on_c, 0, 50, 28
1, 204849, Control_c, 0, 64, 74
1, 204854, Note_on_c, 0, 55, 42
1, 204864, Control_c, 0, 64, 68
1, 204878, Control_c, 0, 64, 62
1, 204893, Control_c, 0, 64, 58
1, 204908, Control_c, 0, 64, 56
1, 204945, Control_c, 0, 64, 57
1, 204960, Control_c, 0, 64, 57
1, 204975, Control_c, 0, 64, 59
1, 204989, Control_c, 0, 64, 60
1, 204993, Note_on_c, 0, 71, 57
1, 205004, Control_c, 0, 64, 62
1, 205019, Control_c, 0, 64, 64
1, 205034, Control_c, 0, 64, 65
1, 205049, Control_c, 0, 64, 66
1, 205063, Control_c, 0, 64, 69
1, 205078, Control_c, 0, 64, 72
1, 205093, Control_c, 0, 64, 75
1, 205108, Control_c, 0, 64, 78
1, 205123, Control_c, 0, 64, 81
1, 205135, Note_off_c, 0, 40, 40
1, 205138, Control_c, 0, 64, 85
1, 205138, Note_off_c, 0, 55, 23
1, 205153, Control_c, 0, 64, 88
1, 205165, Note_off_c, 0, 45, 41
1, 205168, Control_c, 0, 64, 92
1, 205183, Control_c, 0, 64, 99
1, 205183, Control_c, 0, 67, 120
1, 205198, Control_c, 0, 64, 107
1, 205198, Control_c, 0, 67, 113
1, 205212, Control_c, 0, 64, 118
1, 205212, Control_c, 0, 67, 106
1, 205227, Control_c, 0, 64, 127
1, 205227, Control_c, 0, 67, 100
1, 205242, Control_c, 0, 67, 93
1, 205257, Control_c, 0, 67, 88
1, 205265, Note_off_c, 0, 50, 41
1, 205272, Control_c, 0, 67, 84
1, 205287, Control_c, 0, 67, 80
1, 205302, Control_c, 0, 67, 77
1, 205317, Control_c, 0, 67, 75
1, 205332, Control_c, 0, 67, 73
1, 205346, Control_c, 0, 67, 71
1, 205361, Control_c, 0, 67, 68
1, 205376, Control_c, 0, 67, 67
1, 205391, Control_c, 0, 67, 64
1, 205405, Control_c, 0, 67, 62
1, 205420, Control_c, 0, 67, 60
1, 205435, Control_c, 0, 67, 58
1, 205447, Note_on_c, 0, 64, 44
1, 205450, Control_c, 0, 67, 56
1, 205465, Control_c, 0, 67, 54
1, 205479, Control_c, 0, 67, 53
1, 205494, Control_c, 0, 67, 50
1, 205509, Control_c, 0, 67, 48
1, 205524, Control_c, 0, 67, 44
1, 205538, Control_c, 0, 67, 41
1, 205553, Control_c, 0, 67, 37
1, 205568, Control_c, 0, 67, 34
1, 205572, Note_off_c, 0, 71, 33
1, 205583, Control_c, 0, 67, 30
1, 205598, Control_c, 0, 67, 27
1, 205612, Control_c, 0, 67, 23
1, 205627, Control_c, 0, 67, 20
1, 205628, Note_off_c, 0, 64, 49
1, 205642, Control_c, 0, 67, 0
1, 205685, Note_on_c, 0, 47, 35
1, 205744, Note_on_c, 0, 55, 38
1, 205768, Control_c, 0, 64, 114
1, 205783, Control_c, 0, 64, 98
1, 205796, Note_on_c, 0, 62, 46
1, 205798, Control_c, 0, 64, 87
1, 205812, Control_c, 0, 64, 78
1, 205827, Control_c, 0, 64, 70
1, 205842, Control_c, 0, 64, 63
1, 205847, Note_on_c, 0, 64, 51
1, 205857, Control_c, 0, 64, 55
1, 205872, Control_c, 0, 64, 49
1, 205886, Control_c, 0, 64, 48
1, 205901, Control_c, 0, 64, 49
1, 205916, Control_c, 0, 64, 50
1, 205931, Control_c, 0, 64, 52
1, 205946, Control_c, 0, 64, 55
1, 205961, Control_c, 0, 64, 59
1, 205976, Control_c, 0, 64, 63
1, 205991, Control_c, 0, 64, 65
1, 206006, Control_c, 0, 64, 68
1, 206021, Control_c, 0, 64, 72
1, 206035, Control_c, 0, 64, 76
1, 206050, Control_c, 0, 64, 81
1, 206065, Control_c, 0, 64, 84
1, 206080, Control_c, 0, 64, 88
1, 206084, Note_off_c, 0, 64, 61
1, 206091, Note_off_c, 0, 47, 41
1, 206095, Control_c, 0, 64, 90
1, 206110, Control_c, 0, 64, 93
1, 206125, Control_c, 0, 64, 94
1, 206130, Note_off_c, 0, 55, 36
1, 206139, Control_c, 0, 64, 95
1, 206154, Control_c, 0, 64, 95
1, 206169, Control_c, 0, 64, 96
1, 206200, Note_on_c, 0, 64, 59
1, 206212, Note_off_c, 0, 62, 39
1, 206315, Note_off_c, 0, 64, 57
1, 206402, Note_on_c, 0, 45, 37
1, 206421, Control_c, 0, 64, 95
1, 206443, Control_c, 0, 64, 94
1, 206458, Control_c, 0, 64, 93
1, 206461, Note_on_c, 0, 54, 33
1, 206473, Control_c, 0, 64, 91
1, 206488, Control_c, 0, 64, 90
1, 206503, Control_c, 0, 64, 89
1, 206517, Control_c, 0, 64, 87
1, 206532, Control_c, 0, 64, 84
1, 206534, Note_on_c, 0, 61, 44
1, 206547, Control_c, 0, 64, 81
1, 206561, Control_c, 0, 64, 76
1, 206573, Note_on_c, 0, 64, 54
1, 206576, Control_c, 0, 64, 69
1, 206591, Control_c, 0, 64, 63
1, 206606, Control_c, 0, 64, 54
1, 206621, Control_c, 0, 64, 46
1, 206635, Control_c, 0, 64, 40
1, 206650, Control_c, 0, 64, 39
1, 206665, Control_c, 0, 64, 39
1, 206679, Control_c, 0, 64, 39
1, 206694, Control_c, 0, 64, 41
1, 206709, Control_c, 0, 64, 46
1, 206724, Control_c, 0, 64, 54
1, 206739, Control_c, 0, 64, 60
1, 206755, Control_c, 0, 64, 63
1, 206770, Control_c, 0, 64, 66
1, 206784, Control_c, 0, 64, 68
1, 206798, Note_off_c, 0, 54, 56
1, 206799, Control_c, 0, 64, 70
1, 206814, Control_c, 0, 64, 73
1, 206829, Note_off_c, 0, 45, 54
1, 206829, Control_c, 0, 64, 75
1, 206844, Control_c, 0, 64, 76
1, 206858, Control_c, 0, 64, 77
1, 206869, Note_on_c, 0, 66, 63
1, 206870, Note_off_c, 0, 61, 36
1, 206873, Control_c, 0, 64, 78
1, 206888, Control_c, 0, 64, 78
1, 206903, Control_c, 0, 64, 79
1, 206918, Control_c, 0, 64, 80
1, 206932, Control_c, 0, 64, 80
1, 206943, Note_off_c, 0, 64, 52
1, 206962, Control_c, 0, 64, 81
1, 207072, Note_on_c, 0, 67, 63
1, 207108, Note_off_c, 0, 66, 56
1, 207155, Control_c, 0, 64, 80
1, 207167, Note_off_c, 0, 67, 59
1, 207170, Control_c, 0, 64, 80
1, 207192, Control_c, 0, 64, 79
1, 207207, Control_c, 0, 64, 78
1, 207221, Control_c, 0, 64, 77
1, 207232, Note_on_c, 0, 43, 28
1, 207236, Control_c, 0, 64, 75
1, 207251, Control_c, 0, 64, 73
1, 207263, Note_on_c, 0, 52, 34
1, 207266, Control_c, 0, 64, 70
1, 207268, Note_on_c, 0, 59, 38
1, 207281, Control_c, 0, 64, 68
1, 207296, Control_c, 0, 64, 64
1, 207310, Control_c, 0, 64, 58
1, 207311, Note_on_c, 0, 62, 48
1, 207325, Control_c, 0, 64, 49
1, 207340, Control_c, 0, 64, 0
1, 207351, Note_on_c, 0, 67, 57
1, 207465, Note_off_c, 0, 62, 38
1, 207563, Control_c, 0, 64, 35
1, 207593, Control_c, 0, 64, 39
1, 207607, Control_c, 0, 64, 47
1, 207622, Control_c, 0, 64, 54
1, 207637, Control_c, 0, 64, 59
1, 207652, Control_c, 0, 64, 61
1, 207667, Control_c, 0, 64, 63
1, 207681, Control_c, 0, 64, 64
1, 207696, Control_c, 0, 64, 65
1, 207701, Note_on_c, 0, 69, 53
1, 207711, Control_c, 0, 64, 66
1, 207725, Control_c, 0, 64, 67
1, 207737, Note_off_c, 0, 67, 58
1, 207738, Note_off_c, 0, 52, 40
1, 207740, Control_c, 0, 64, 68
1, 207755, Control_c, 0, 64, 70
1, 207770, Control_c, 0, 64, 72
1, 207776, Note_off_c, 0, 59, 20
1, 207785, Control_c, 0, 64, 74
1, 207800, Control_c, 0, 64, 75
1, 207801, Note_off_c, 0, 43, 40
1, 207815, Control_c, 0, 64, 76
1, 207830, Control_c, 0, 64, 77
1, 207844, Control_c, 0, 64, 78
1, 207874, Control_c, 0, 64, 78
1, 207940, Control_c, 0, 64, 78
1, 207959, Note_on_c, 0, 42, 31
1, 207985, Control_c, 0, 64, 77
1, 208000, Control_c, 0, 64, 76
1, 208014, Control_c, 0, 64, 75
1, 208029, Control_c, 0, 64, 74
1, 208044, Control_c, 0, 64, 73
1, 208054, Note_on_c, 0, 50, 30
1, 208059, Control_c, 0, 64, 72
1, 208074, Control_c, 0, 64, 70
1, 208089, Control_c, 0, 64, 67
1, 208104, Control_c, 0, 64, 63
1, 208119, Control_c, 0, 64, 57
1, 208133, Control_c, 0, 64, 48
1, 208145, Note_on_c, 0, 61, 38
1, 208148, Control_c, 0, 64, 37
1, 208163, Control_c, 0, 64, 0
1, 208237, Control_c, 0, 64, 35
1, 208252, Control_c, 0, 64, 44
1, 208267, Control_c, 0, 64, 54
1, 208281, Control_c, 0, 64, 60
1, 208296, Control_c, 0, 64, 63
1, 208311, Control_c, 0, 64, 64
1, 208325, Control_c, 0, 64, 66
1, 208340, Control_c, 0, 64, 67
1, 208356, Control_c, 0, 64, 69
1, 208371, Control_c, 0, 64, 72
1, 208386, Control_c, 0, 64, 76
1, 208401, Control_c, 0, 64, 80
1, 208411, Note_off_c, 0, 69, 34
1, 208416, Control_c, 0, 64, 83
1, 208430, Note_off_c, 0, 42, 45
1, 208430, Control_c, 0, 64, 87
1, 208439, Note_off_c, 0, 50, 29
1, 208445, Control_c, 0, 64, 90
1, 208460, Control_c, 0, 64, 93
1, 208475, Control_c, 0, 64, 94
1, 208490, Control_c, 0, 64, 95
1, 208504, Control_c, 0, 64, 95
1, 208519, Control_c, 0, 64, 96
1, 208542, Note_on_c, 0, 62, 45
1, 208600, Note_off_c, 0, 61, 35
1, 208664, Note_off_c, 0, 62, 53
1, 208749, Control_c, 0, 64, 95
1, 208750, Note_on_c, 0, 43, 28
1, 208763, Control_c, 0, 64, 95
1, 208778, Control_c, 0, 64, 94
1, 208789, Note_on_c, 0, 50, 32
1, 208793, Control_c, 0, 64, 93
1, 208800, Note_on_c, 0, 59, 37
1, 208808, Control_c, 0, 64, 92
1, 208823, Control_c, 0, 64, 90
1, 208837, Control_c, 0, 64, 88
1, 208852, Control_c, 0, 64, 84
1, 208867, Control_c, 0, 64, 77
1, 208879, Note_on_c, 0, 69, 56
1, 208882, Control_c, 0, 64, 70
1, 208897, Control_c, 0, 64, 64
1, 208912, Control_c, 0, 64, 56
1, 208927, Control_c, 0, 64, 49
1, 208941, Control_c, 0, 64, 44
1, 208956, Control_c, 0, 64, 45
1, 208971, Control_c, 0, 64, 49
1, 208986, Control_c, 0, 64, 53
1, 209001, Control_c, 0, 64, 57
1, 209016, Control_c, 0, 64, 60
1, 209030, Control_c, 0, 64, 62
1, 209045, Control_c, 0, 64, 64
1, 209060, Control_c, 0, 64, 67
1, 209074, Control_c, 0, 64, 69
1, 209089, Control_c, 0, 64, 72
1, 209104, Control_c, 0, 64, 75
1, 209119, Control_c, 0, 64, 78
1, 209134, Control_c, 0, 64, 81
1, 209150, Control_c, 0, 64, 83
1, 209157, Note_off_c, 0, 43, 40
1, 209165, Control_c, 0, 64, 86
1, 209179, Control_c, 0, 64, 87
1, 209194, Control_c, 0, 64, 88
1, 209209, Control_c, 0, 64, 89
1, 209223, Note_on_c, 0, 68, 69
1, 209224, Control_c, 0, 64, 90
1, 209239, Control_c, 0, 64, 91
1, 209253, Control_c, 0, 64, 91
1, 209283, Note_off_c, 0, 50, 38
1, 209283, Control_c, 0, 64, 92
1, 209288, Note_off_c, 0, 59, 58
1, 209297, Control_c, 0, 64, 92
1, 209341, Note_off_c, 0, 69, 37
1, 209404, Note_on_c, 0, 45, 42
1, 209439, Control_c, 0, 64, 92
1, 209454, Control_c, 0, 64, 91
1, 209455, Note_on_c, 0, 49, 39
1, 209469, Control_c, 0, 64, 91
1, 209484, Control_c, 0, 64, 90
1, 209498, Control_c, 0, 64, 89
1, 209513, Control_c, 0, 64, 86
1, 209521, Note_on_c, 0, 61, 42
1, 209528, Control_c, 0, 64, 81
1, 209543, Control_c, 0, 64, 73
1, 209558, Control_c, 0, 64, 64
1, 209572, Note_on_c, 0, 67, 62
1, 209572, Control_c, 0, 64, 55
1, 209587, Control_c, 0, 64, 44
1, 209602, Control_c, 0, 64, 33
1, 209604, Note_off_c, 0, 68, 52
1, 209617, Control_c, 0, 64, 0
1, 209646, Control_c, 0, 64, 29
1, 209661, Control_c, 0, 64, 31
1, 209676, Control_c, 0, 64, 35
1, 209691, Control_c, 0, 64, 43
1, 209705, Control_c, 0, 64, 52
1, 209720, Control_c, 0, 64, 58
1, 209735, Control_c, 0, 64, 62
1, 209750, Control_c, 0, 64, 65
1, 209765, Control_c, 0, 64, 69
1, 209779, Control_c, 0, 64, 72
1, 209794, Control_c, 0, 64, 76
1, 209809, Control_c, 0, 64, 81
1, 209824, Control_c, 0, 64, 86
1, 209827, Note_off_c, 0, 67, 58
1, 209839, Control_c, 0, 64, 91
1, 209854, Control_c, 0, 64, 98
1, 209868, Note_off_c, 0, 45, 40
1, 209869, Control_c, 0, 64, 105
1, 209883, Control_c, 0, 64, 115
1, 209898, Control_c, 0, 64, 127
1, 209913, Note_on_c, 0, 66, 56
1, 209946, Note_off_c, 0, 49, 43
1, 210074, Note_off_c, 0, 61, 37
1, 210108, Note_on_c, 0, 47, 37
1, 210177, Note_on_c, 0, 54, 40
1, 210217, Control_c, 0, 64, 112
1, 210229, Note_on_c, 0, 62, 47
1, 210232, Control_c, 0, 64, 102
1, 210247, Control_c, 0, 64, 91
1, 210262, Control_c, 0, 64, 75
1, 210275, Note_off_c, 0, 66, 24
1, 210277, Control_c, 0, 64, 63
1, 210277, Note_on_c, 0, 68, 57
1, 210292, Control_c, 0, 64, 48
1, 210307, Control_c, 0, 64, 0
1, 210396, Control_c, 0, 64, 44
1, 210410, Control_c, 0, 64, 57
1, 210425, Control_c, 0, 64, 64
1, 210440, Control_c, 0, 64, 68
1, 210454, Control_c, 0, 64, 72
1, 210469, Control_c, 0, 64, 76
1, 210484, Control_c, 0, 64, 79
1, 210499, Control_c, 0, 64, 82
1, 210514, Control_c, 0, 64, 86
1, 210528, Control_c, 0, 64, 90
1, 210536, Note_off_c, 0, 68, 59
1, 210543, Control_c, 0, 64, 93
1, 210558, Control_c, 0, 64, 94
1, 210560, Note_off_c, 0, 47, 55
1, 210573, Control_c, 0, 64, 94
1, 210573, Control_c, 0, 67, 19
1, 210588, Control_c, 0, 67, 21
1, 210602, Control_c, 0, 67, 24
1, 210617, Control_c, 0, 67, 28
1, 210632, Control_c, 0, 67, 31
1, 210647, Control_c, 0, 67, 36
1, 210661, Control_c, 0, 67, 40
1, 210676, Note_off_c, 0, 54, 41
1, 210676, Control_c, 0, 67, 44
1, 210677, Note_on_c, 0, 69, 49
1, 210691, Control_c, 0, 67, 47
1, 210706, Control_c, 0, 67, 47
1, 210766, Control_c, 0, 67, 47
1, 210781, Control_c, 0, 67, 46
1, 210783, Note_off_c, 0, 62, 32
1, 210796, Control_c, 0, 67, 45
1, 210825, Control_c, 0, 67, 44
1, 210837, Note_off_c, 0, 69, 36
1, 210840, Control_c, 0, 67, 44
1, 210855, Control_c, 0, 67, 43
1, 210857, Note_on_c, 0, 40, 41
1, 210870, Control_c, 0, 64, 94
1, 210870, Control_c, 0, 67, 43
1, 210885, Control_c, 0, 67, 42
1, 210900, Control_c, 0, 67, 42
1, 210915, Control_c, 0, 64, 93
1, 210937, Control_c, 0, 64, 92
1, 210937, Control_c, 0, 67, 41
1, 210951, Control_c, 0, 64, 90
1, 210966, Control_c, 0, 64, 89
1, 210966, Control_c, 0, 67, 41
1, 210972, Note_on_c, 0, 56, 46
1, 210981, Control_c, 0, 64, 87
1, 210996, Control_c, 0, 64, 85
1, 211011, Control_c, 0, 64, 83
1, 211025, Control_c, 0, 64, 81
1, 211025, Control_c, 0, 67, 40
1, 211040, Control_c, 0, 64, 80
1, 211055, Control_c, 0, 64, 78
1, 211070, Control_c, 0, 64, 75
1, 211078, Note_on_c, 0, 62, 29
1, 211085, Control_c, 0, 64, 74
1, 211085, Control_c, 0, 67, 40
1, 211100, Control_c, 0, 64, 72
1, 211107, Note_on_c, 0, 66, 34
1, 211115, Control_c, 0, 64, 71
1, 211129, Control_c, 0, 64, 70
1, 211144, Control_c, 0, 64, 68
1, 211151, Note_on_c, 0, 73, 59
1, 211159, Control_c, 0, 64, 65
1, 211174, Control_c, 0, 64, 62
1, 211189, Control_c, 0, 64, 57
1, 211204, Control_c, 0, 64, 50
1, 211204, Control_c, 0, 67, 39
1, 211219, Control_c, 0, 64, 40
1, 211225, Note_off_c, 0, 66, 54
1, 211233, Control_c, 0, 64, 30
1, 211248, Control_c, 0, 64, 0
1, 211292, Control_c, 0, 64, 32
1, 211307, Control_c, 0, 64, 42
1, 211322, Control_c, 0, 64, 54
1, 211337, Control_c, 0, 64, 61
1, 211351, Control_c, 0, 64, 66
1, 211366, Control_c, 0, 64, 71
1, 211381, Control_c, 0, 64, 75
1, 211396, Control_c, 0, 64, 78
1, 211411, Control_c, 0, 64, 81
1, 211425, Control_c, 0, 64, 83
1, 211434, Note_off_c, 0, 73, 55
1, 211440, Control_c, 0, 64, 85
1, 211455, Control_c, 0, 64, 87
1, 211469, Control_c, 0, 64, 88
1, 211484, Control_c, 0, 64, 89
1, 211499, Control_c, 0, 64, 89
1, 211514, Control_c, 0, 64, 90
1, 211633, Control_c, 0, 64, 89
1, 211663, Control_c, 0, 64, 89
1, 211699, Control_c, 0, 64, 88
1, 211714, Control_c, 0, 64, 87
1, 211729, Control_c, 0, 64, 86
1, 211744, Control_c, 0, 64, 86
1, 211759, Control_c, 0, 64, 85
1, 211773, Control_c, 0, 64, 84
1, 211788, Control_c, 0, 64, 83
1, 211803, Control_c, 0, 64, 82
1, 211818, Control_c, 0, 64, 81
1, 211821, Note_on_c, 0, 76, 61
1, 211833, Control_c, 0, 64, 80
1, 211848, Control_c, 0, 64, 79
1, 211858, Note_on_c, 0, 71, 38
1, 211863, Control_c, 0, 64, 78
1, 211878, Control_c, 0, 64, 77
1, 211893, Control_c, 0, 64, 76
1, 211907, Control_c, 0, 64, 75
1, 211922, Control_c, 0, 64, 74
1, 211937, Control_c, 0, 64, 74
1, 211952, Control_c, 0, 64, 73
1, 211967, Control_c, 0, 64, 73
1, 211981, Control_c, 0, 64, 72
1, 212011, Control_c, 0, 67, 39
1, 212026, Control_c, 0, 64, 72
1, 212055, Control_c, 0, 64, 71
1, 212085, Control_c, 0, 64, 70
1, 212099, Control_c, 0, 64, 68
1, 212114, Control_c, 0, 64, 65
1, 212129, Control_c, 0, 64, 62
1, 212144, Control_c, 0, 64, 57
1, 212159, Control_c, 0, 64, 53
1, 212164, Note_off_c, 0, 62, 0
1, 212173, Control_c, 0, 64, 50
1, 212188, Control_c, 0, 64, 47
1, 212200, Poly_aftertouch_c, 0, 62, 127
1, 212203, Control_c, 0, 64, 43
1, 212217, Control_c, 0, 64, 40
1, 212232, Control_c, 0, 64, 40
1, 212247, Control_c, 0, 64, 43
1, 212262, Control_c, 0, 64, 49
1, 212277, Control_c, 0, 64, 55
1, 212292, Control_c, 0, 64, 60
1, 212307, Control_c, 0, 64, 63
1, 212322, Control_c, 0, 64, 66
1, 212338, Control_c, 0, 64, 69
1, 212353, Control_c, 0, 64, 73
1, 212353, Control_c, 0, 67, 40
1, 212368, Control_c, 0, 64, 75
1, 212368, Control_c, 0, 67, 41
1, 212383, Control_c, 0, 64, 77
1, 212383, Control_c, 0, 67, 41
1, 212397, Control_c, 0, 64, 79
1, 212397, Control_c, 0, 67, 42
1, 212399, Poly_aftertouch_c, 0, 62, 0
1, 212420, Control_c, 0, 64, 79
1, 212420, Control_c, 0, 67, 43
1, 212435, Control_c, 0, 67, 45
1, 212450, Control_c, 0, 67, 46
1, 212465, Control_c, 0, 67, 47
1, 212479, Control_c, 0, 67, 48
1, 212494, Control_c, 0, 67, 49
1, 212509, Control_c, 0, 67, 51
1, 212522, Note_off_c, 0, 40, 34
1, 212523, Note_off_c, 0, 56, 37
1, 212523, Control_c, 0, 67, 61
1, 212530, Note_off_c, 0, 71, 21
1, 212538, Control_c, 0, 64, 78
1, 212538, Control_c, 0, 67, 71
1, 212553, Control_c, 0, 64, 77
1, 212553, Control_c, 0, 67, 83
1, 212568, Control_c, 0, 64, 76
1, 212568, Control_c, 0, 67, 93
1, 212583, Control_c, 0, 64, 75
1, 212583, Control_c, 0, 67, 103
1, 212597, Control_c, 0, 64, 74
1, 212597, Control_c, 0, 67, 111
1, 212612, Control_c, 0, 64, 73
1, 212612, Control_c, 0, 67, 119
1, 212627, Control_c, 0, 64, 72
1, 212627, Control_c, 0, 67, 127
1, 212642, Control_c, 0, 64, 70
1, 212656, Control_c, 0, 64, 68
1, 212671, Control_c, 0, 64, 66
1, 212686, Control_c, 0, 64, 64
1, 212701, Control_c, 0, 64, 62
1, 212716, Control_c, 0, 64, 60
1, 212730, Control_c, 0, 64, 59
1, 212745, Control_c, 0, 64, 57
1, 212760, Control_c, 0, 64, 55
1, 212775, Control_c, 0, 64, 53
1, 212790, Control_c, 0, 64, 50
1, 212805, Control_c, 0, 64, 46
1, 212820, Control_c, 0, 64, 42
1, 212835, Control_c, 0, 64, 38
1, 212849, Control_c, 0, 64, 34
1, 212864, Control_c, 0, 64, 31
1, 212879, Control_c, 0, 64, 0
1, 213663, Note_on_c, 0, 70, 25
1, 213893, Control_c, 0, 64, 34
1, 213899, Note_on_c, 0, 74, 37
1, 213908, Control_c, 0, 64, 42
1, 213930, Control_c, 0, 64, 49
1, 213946, Control_c, 0, 64, 53
1, 213955, Note_off_c, 0, 70, 39
1, 213961, Control_c, 0, 64, 57
1, 213975, Control_c, 0, 64, 58
1, 213990, Control_c, 0, 64, 60
1, 214005, Control_c, 0, 64, 61
1, 214020, Control_c, 0, 64, 62
1, 214035, Control_c, 0, 64, 64
1, 214049, Control_c, 0, 64, 66
1, 214064, Control_c, 0, 64, 68
1, 214079, Control_c, 0, 64, 70
1, 214093, Control_c, 0, 64, 74
1, 214108, Control_c, 0, 64, 79
1, 214123, Control_c, 0, 64, 84
1, 214138, Control_c, 0, 64, 90
1, 214153, Control_c, 0, 64, 97
1, 214167, Control_c, 0, 64, 101
1, 214182, Control_c, 0, 64, 104
1, 214204, Note_off_c, 0, 74, 35
1, 214256, Control_c, 0, 64, 106
1, 214361, Control_c, 0, 64, 104
1, 214375, Control_c, 0, 64, 102
1, 214390, Control_c, 0, 64, 100
1, 214405, Control_c, 0, 64, 97
1, 214419, Control_c, 0, 64, 96
1, 214434, Control_c, 0, 64, 94
1, 214449, Control_c, 0, 64, 93
1, 214464, Control_c, 0, 64, 92
1, 214479, Control_c, 0, 64, 91
1, 214493, Control_c, 0, 64, 90
1, 214508, Control_c, 0, 64, 88
1, 214516, Note_on_c, 0, 69, 35
1, 214523, Control_c, 0, 64, 87
1, 214538, Control_c, 0, 64, 86
1, 214554, Control_c, 0, 64, 84
1, 214568, Control_c, 0, 64, 83
1, 214583, Control_c, 0, 64, 82
1, 214598, Control_c, 0, 64, 81
1, 214612, Control_c, 0, 64, 79
1, 214627, Control_c, 0, 64, 78
1, 214642, Control_c, 0, 64, 76
1, 214657, Control_c, 0, 64, 75
1, 214680, Control_c, 0, 64, 72
1, 214694, Control_c, 0, 64, 69
1, 214709, Control_c, 0, 64, 65
1, 214724, Control_c, 0, 64, 61
1, 214727, Note_on_c, 0, 73, 37
1, 214739, Control_c, 0, 64, 57
1, 214754, Control_c, 0, 64, 55
1, 214761, Note_off_c, 0, 69, 39
1, 214769, Control_c, 0, 64, 55
1, 214784, Control_c, 0, 64, 57
1, 214799, Control_c, 0, 64, 59
1, 214814, Control_c, 0, 64, 61
1, 214829, Control_c, 0, 64, 62
1, 214843, Control_c, 0, 64, 64
1, 214858, Control_c, 0, 64, 65
1, 214873, Control_c, 0, 64, 67
1, 214888, Control_c, 0, 64, 69
1, 214903, Control_c, 0, 64, 71
1, 214917, Control_c, 0, 64, 72
1, 214932, Control_c, 0, 64, 73
1, 214947, Control_c, 0, 64, 74
1, 214962, Control_c, 0, 64, 75
1, 214977, Control_c, 0, 64, 77
1, 214991, Control_c, 0, 64, 78
1, 215006, Control_c, 0, 64, 79
1, 215021, Control_c, 0, 64, 80
1, 215034, Note_off_c, 0, 73, 30
1, 215036, Control_c, 0, 64, 81
1, 215050, Control_c, 0, 64, 81
1, 215080, Control_c, 0, 64, 82
1, 215362, Control_c, 0, 64, 81
1, 215391, Control_c, 0, 64, 81
1, 215398, Note_on_c, 0, 68, 34
1, 215406, Control_c, 0, 64, 79
1, 215428, Control_c, 0, 64, 75
1, 215443, Control_c, 0, 64, 71
1, 215458, Control_c, 0, 64, 67
1, 215473, Control_c, 0, 64, 65
1, 215488, Control_c, 0, 64, 65
1, 215532, Control_c, 0, 64, 66
1, 215547, Control_c, 0, 64, 68
1, 215562, Control_c, 0, 64, 69
1, 215577, Control_c, 0, 64, 70
1, 215592, Control_c, 0, 64, 72
1, 215607, Control_c, 0, 64, 73
1, 215622, Control_c, 0, 64, 74
1, 215637, Control_c, 0, 64, 75
1, 215651, Control_c, 0, 64, 76
1, 215666, Control_c, 0, 64, 78
1, 215681, Control_c, 0, 64, 79
1, 215685, Note_on_c, 0, 72, 33
1, 215690, Note_off_c, 0, 68, 41
1, 215696, Control_c, 0, 64, 80
1, 215711, Control_c, 0, 64, 82
1, 215726, Control_c, 0, 64, 84
1, 215740, Control_c, 0, 64, 86
1, 215755, Control_c, 0, 64, 88
1, 215770, Control_c, 0, 64, 90
1, 215785, Control_c, 0, 64, 92
1, 215800, Control_c, 0, 64, 93
1, 215814, Control_c, 0, 64, 95
1, 215829, Control_c, 0, 64, 95
1, 215844, Control_c, 0, 64, 96
1, 215867, Note_off_c, 0, 72, 18
1, 215903, Control_c, 0, 64, 98
1, 215905, Note_on_c, 0, 67, 41
1, 216111, Control_c, 0, 64, 95
1, 216125, Note_off_c, 0, 67, 32
1, 216125, Control_c, 0, 64, 94
1, 216140, Control_c, 0, 64, 94
1, 216162, Control_c, 0, 64, 93
1, 216177, Control_c, 0, 64, 92
1, 216191, Control_c, 0, 64, 91
1, 216206, Control_c, 0, 64, 89
1, 216221, Control_c, 0, 64, 86
1, 216236, Control_c, 0, 64, 79
1, 216251, Control_c, 0, 64, 72
1, 216254, Note_on_c, 0, 33, 40
1, 216256, Note_on_c, 0, 71, 37
1, 216266, Control_c, 0, 64, 66
1, 216280, Control_c, 0, 64, 61
1, 216295, Control_c, 0, 64, 57
1, 216310, Control_c, 0, 64, 55
1, 216325, Control_c, 0, 64, 56
1, 216341, Control_c, 0, 64, 58
1, 216356, Control_c, 0, 64, 61
1, 216370, Control_c, 0, 64, 64
1, 216385, Control_c, 0, 64, 68
1, 216400, Control_c, 0, 64, 73
1, 216415, Control_c, 0, 64, 82
1, 216425, Note_off_c, 0, 33, 63
1, 216429, Control_c, 0, 64, 93
1, 216441, Note_off_c, 0, 76, 35
1, 216444, Control_c, 0, 64, 127
1, 216593, Note_on_c, 0, 69, 30
1, 216608, Note_off_c, 0, 71, 36
1, 216770, Control_c, 0, 67, 117
1, 216785, Control_c, 0, 67, 108
1, 216800, Control_c, 0, 67, 102
1, 216808, Note_on_c, 0, 73, 45
1, 216814, Control_c, 0, 67, 98
1, 216826, Note_off_c, 0, 69, 39
1, 216844, Control_c, 0, 67, 96
1, 216856, Note_off_c, 0, 73, 60
1, 217029, Note_on_c, 0, 78, 63
1, 217030, Note_on_c, 0, 67, 33
1, 217318, Note_on_c, 0, 71, 35
1, 217325, Note_on_c, 0, 76, 60
1, 217359, Note_off_c, 0, 67, 34
1, 217550, Note_off_c, 0, 78, 36
1, 217557, Note_on_c, 0, 69, 34
1, 217558, Note_off_c, 0, 71, 43
1, 217675, Control_c, 0, 67, 98
1, 217714, Note_off_c, 0, 76, 51
1, 217735, Note_on_c, 0, 73, 45
1, 217745, Note_off_c, 0, 69, 40
1, 217828, Note_off_c, 0, 73, 56
1, 217890, Note_on_c, 0, 78, 66
1, 218001, Control_c, 0, 64, 120
1, 218016, Control_c, 0, 64, 115
1, 218031, Control_c, 0, 64, 111
1, 218046, Control_c, 0, 64, 108
1, 218060, Control_c, 0, 64, 105
1, 218075, Control_c, 0, 64, 103
1, 218103, Note_on_c, 0, 76, 70
1, 218105, Control_c, 0, 64, 100
1, 218135, Control_c, 0, 64, 97
1, 218149, Control_c, 0, 67, 100
1, 218164, Control_c, 0, 64, 95
1, 218179, Control_c, 0, 64, 94
1, 218194, Control_c, 0, 64, 91
1, 218206, Note_off_c, 0, 78, 58
1, 218209, Control_c, 0, 64, 88
1, 218224, Control_c, 0, 64, 81
1, 218239, Control_c, 0, 64, 72
1, 218254, Control_c, 0, 64, 65
1, 218268, Control_c, 0, 64, 57
1, 218269, Note_on_c, 0, 74, 68
1, 218271, Note_on_c, 0, 66, 45
1, 218283, Control_c, 0, 64, 47
1, 218298, Control_c, 0, 64, 40
1, 218313, Control_c, 0, 64, 37
1, 218328, Control_c, 0, 64, 35
1, 218336, Note_off_c, 0, 76, 63
1, 218342, Control_c, 0, 64, 32
1, 218357, Control_c, 0, 64, 0
1, 218439, Control_c, 0, 64, 34
1, 218439, Note_off_c, 0, 66, 54
1, 218444, Note_on_c, 0, 73, 68
1, 218450, Note_on_c, 0, 69, 35
1, 218452, Note_off_c, 0, 74, 60
1, 218454, Control_c, 0, 64, 41
1, 218468, Control_c, 0, 64, 48
1, 218483, Control_c, 0, 64, 52
1, 218498, Control_c, 0, 64, 55
1, 218513, Control_c, 0, 64, 58
1, 218528, Control_c, 0, 64, 60
1, 218542, Control_c, 0, 64, 63
1, 218557, Control_c, 0, 64, 66
1, 218572, Control_c, 0, 64, 70
1, 218586, Control_c, 0, 64, 75
1, 218588, Note_off_c, 0, 69, 41
1, 218594, Note_on_c, 0, 74, 71
1, 218601, Control_c, 0, 64, 81
1, 218606, Note_off_c, 0, 73, 64
1, 218616, Control_c, 0, 64, 87
1, 218631, Control_c, 0, 64, 94
1, 218646, Control_c, 0, 64, 98
1, 218670, Note_off_c, 0, 74, 56
1, 218765, Control_c, 0, 64, 96
1, 218780, Control_c, 0, 64, 94
1, 218795, Control_c, 0, 64, 92
1, 218809, Control_c, 0, 64, 89
1, 218824, Control_c, 0, 64, 86
1, 218828, Note_on_c, 0, 81, 73
1, 218839, Control_c, 0, 64, 83
1, 218854, Control_c, 0, 64, 80
1, 218869, Control_c, 0, 64, 77
1, 218883, Control_c, 0, 64, 75
1, 218898, Control_c, 0, 64, 72
1, 218913, Control_c, 0, 64, 69
1, 218928, Control_c, 0, 64, 64
1, 218943, Control_c, 0, 64, 58
1, 218957, Control_c, 0, 64, 51
1, 218972, Control_c, 0, 64, 44
1, 218987, Control_c, 0, 64, 39
1, 219002, Control_c, 0, 64, 39
1, 219017, Control_c, 0, 64, 40
1, 219032, Control_c, 0, 64, 42
1, 219037, Note_on_c, 0, 64, 34
1, 219047, Control_c, 0, 64, 48
1, 219062, Control_c, 0, 64, 55
1, 219077, Control_c, 0, 64, 60
1, 219091, Control_c, 0, 64, 63
1, 219106, Control_c, 0, 64, 65
1, 219121, Control_c, 0, 64, 67
1, 219135, Control_c, 0, 64, 71
1, 219150, Control_c, 0, 64, 74
1, 219172, Control_c, 0, 64, 77
1, 219187, Control_c, 0, 64, 80
1, 219202, Control_c, 0, 64, 82
1, 219217, Control_c, 0, 64, 85
1, 219230, Note_on_c, 0, 73, 45
1, 219232, Control_c, 0, 64, 88
1, 219240, Note_on_c, 0, 67, 39
1, 219246, Control_c, 0, 64, 90
1, 219261, Control_c, 0, 64, 91
1, 219276, Control_c, 0, 64, 93
1, 219284, Note_off_c, 0, 64, 34
1, 219291, Control_c, 0, 64, 94
1, 219306, Control_c, 0, 64, 94
1, 219321, Control_c, 0, 64, 95
1, 219333, Note_off_c, 0, 67, 45
1, 219335, Control_c, 0, 64, 95
1, 219387, Note_on_c, 0, 79, 62
1, 219449, Note_off_c, 0, 73, 33
1, 219461, Note_off_c, 0, 81, 36
1, 219483, Note_off_c, 0, 79, 61
1, 219544, Control_c, 0, 64, 95
1, 219574, Control_c, 0, 64, 94
1, 219579, Note_on_c, 0, 76, 60
1, 219588, Control_c, 0, 64, 94
1, 219603, Control_c, 0, 64, 93
1, 219618, Control_c, 0, 64, 91
1, 219632, Control_c, 0, 64, 83
1, 219647, Control_c, 0, 64, 73
1, 219662, Control_c, 0, 64, 64
1, 219677, Control_c, 0, 64, 55
1, 219692, Control_c, 0, 64, 43
1, 219706, Control_c, 0, 64, 31
1, 219721, Control_c, 0, 64, 0
1, 219742, Note_on_c, 0, 62, 41
1, 219750, Control_c, 0, 64, 31
1, 219765, Control_c, 0, 64, 39
1, 219780, Control_c, 0, 64, 50
1, 219796, Control_c, 0, 64, 58
1, 219811, Control_c, 0, 64, 63
1, 219825, Control_c, 0, 64, 66
1, 219840, Control_c, 0, 64, 68
1, 219855, Control_c, 0, 64, 69
1, 219870, Control_c, 0, 64, 70
1, 219885, Control_c, 0, 64, 72
1, 219907, Control_c, 0, 64, 73
1, 219909, Note_off_c, 0, 76, 62
1, 219922, Control_c, 0, 64, 73
1, 219937, Control_c, 0, 64, 74
1, 219961, Note_off_c, 0, 62, 36
1, 219966, Control_c, 0, 64, 74
1, 219971, Note_on_c, 0, 74, 29
1, 219975, Note_on_c, 0, 67, 17
1, 220042, Note_off_c, 0, 74, 58
1, 220081, Note_off_c, 0, 67, 40
1, 220126, Note_on_c, 0, 78, 54
1, 220335, Note_on_c, 0, 76, 53
1, 220382, Control_c, 0, 64, 74
1, 220452, Note_off_c, 0, 78, 30
1, 220456, Control_c, 0, 64, 73
1, 220486, Control_c, 0, 64, 72
1, 220501, Control_c, 0, 64, 69
1, 220506, Note_on_c, 0, 59, 38
1, 220513, Note_on_c, 0, 74, 51
1, 220516, Control_c, 0, 64, 65
1, 220530, Control_c, 0, 64, 59
1, 220542, Note_off_c, 0, 76, 59
1, 220545, Control_c, 0, 64, 56
1, 220560, Control_c, 0, 64, 56
1, 220575, Control_c, 0, 64, 57
1, 220589, Control_c, 0, 64, 59
1, 220604, Control_c, 0, 64, 62
1, 220619, Control_c, 0, 64, 64
1, 220634, Control_c, 0, 64, 67
1, 220634, Control_c, 0, 67, 98
1, 220649, Control_c, 0, 64, 68
1, 220671, Control_c, 0, 64, 70
1, 220686, Control_c, 0, 64, 71
1, 220699, Note_off_c, 0, 74, 55
1, 220701, Control_c, 0, 64, 72
1, 220716, Control_c, 0, 64, 73
1, 220723, Note_on_c, 0, 73, 49
1, 220730, Note_off_c, 0, 59, 36
1, 220730, Control_c, 0, 64, 74
1, 220730, Control_c, 0, 67, 96
1, 220731, Note_on_c, 0, 68, 42
1, 220735, Note_on_c, 0, 62, 41
1, 220745, Control_c, 0, 64, 76
1, 220760, Control_c, 0, 64, 78
1, 220760, Control_c, 0, 67, 95
1, 220763, Note_off_c, 0, 68, 56
1, 220773, Note_off_c, 0, 62, 61
1, 220775, Control_c, 0, 64, 80
1, 220789, Control_c, 0, 64, 83
1, 220804, Control_c, 0, 64, 87
1, 220804, Control_c, 0, 67, 94
1, 220819, Control_c, 0, 64, 90
1, 220819, Control_c, 0, 67, 93
1, 220834, Control_c, 0, 64, 95
1, 220834, Control_c, 0, 67, 90
1, 220849, Control_c, 0, 64, 98
1, 220849, Control_c, 0, 67, 79
1, 220863, Control_c, 0, 64, 100
1, 220863, Control_c, 0, 67, 66
1, 220878, Control_c, 0, 67, 50
1, 220893, Control_c, 0, 64, 103
1, 220893, Control_c, 0, 67, 38
1, 220907, Control_c, 0, 67, 26
1, 220922, Control_c, 0, 67, 0
1, 220934, Note_on_c, 0, 71, 47
1, 220937, Control_c, 0, 64, 105
1, 220951, Note_off_c, 0, 73, 43
1, 221091, Note_off_c, 0, 71, 28
1, 221131, Control_c, 0, 64, 103
1, 221146, Control_c, 0, 64, 101
1, 221160, Control_c, 0, 64, 99
1, 221175, Control_c, 0, 64, 96
1, 221190, Control_c, 0, 64, 92
1, 221205, Control_c, 0, 64, 84
1, 221220, Control_c, 0, 64, 73
1, 221226, Note_on_c, 0, 33, 39
1, 221229, Note_on_c, 0, 76, 54
1, 221235, Control_c, 0, 64, 65
1, 221250, Control_c, 0, 64, 59
1, 221265, Control_c, 0, 64, 56
1, 221294, Control_c, 0, 64, 57
1, 221309, Control_c, 0, 64, 59
1, 221324, Control_c, 0, 64, 64
1, 221338, Control_c, 0, 64, 69
1, 221353, Control_c, 0, 64, 77
1, 221364, Note_off_c, 0, 33, 61
1, 221368, Control_c, 0, 64, 89
1, 221383, Control_c, 0, 64, 114
1, 221398, Control_c, 0, 64, 127
1, 221544, Note_on_c, 0, 69, 37
1, 221721, Note_off_c, 0, 69, 41
1, 221729, Note_on_c, 0, 73, 40
1, 221756, Note_off_c, 0, 76, 36
1, 221785, Note_off_c, 0, 73, 60
1, 221892, Note_on_c, 0, 78, 63
1, 221917, Note_on_c, 0, 67, 22
1, 222157, Note_on_c, 0, 76, 65
1, 222219, Poly_aftertouch_c, 0, 71, 127
1, 222253, Note_off_c, 0, 67, 38
1, 222263, Note_off_c, 0, 78, 38
1, 222365, Note_on_c, 0, 70, 46
1, 222382, Poly_aftertouch_c, 0, 71, 0
1, 222461, Note_off_c, 0, 76, 51
1, 222528, Note_on_c, 0, 73, 56
1, 222529, Note_off_c, 0, 70, 48
1, 222587, Note_off_c, 0, 73, 57
1, 222672, Control_c, 0, 64, 122
1, 222684, Note_on_c, 0, 78, 70
1, 222686, Control_c, 0, 64, 116
1, 222701, Control_c, 0, 64, 112
1, 222716, Control_c, 0, 64, 108
1, 222732, Control_c, 0, 64, 105
1, 222747, Control_c, 0, 64, 103
1, 222762, Control_c, 0, 64, 100
1, 222791, Control_c, 0, 64, 97
1, 222806, Control_c, 0, 64, 95
1, 222821, Control_c, 0, 64, 92
1, 222836, Control_c, 0, 64, 90
1, 222850, Control_c, 0, 64, 89
1, 222865, Control_c, 0, 64, 87
1, 222880, Control_c, 0, 64, 86
1, 222895, Control_c, 0, 64, 84
1, 222918, Control_c, 0, 64, 83
1, 222922, Note_on_c, 0, 76, 70
1, 222932, Control_c, 0, 64, 81
1, 222947, Control_c, 0, 64, 80
1, 222962, Control_c, 0, 64, 78
1, 222977, Control_c, 0, 64, 77
1, 222991, Control_c, 0, 64, 75
1, 223006, Control_c, 0, 64, 74
1, 223012, Note_off_c, 0, 78, 59
1, 223021, Control_c, 0, 64, 72
1, 223036, Control_c, 0, 64, 69
1, 223051, Control_c, 0, 64, 66
1, 223065, Control_c, 0, 64, 60
1, 223080, Control_c, 0, 64, 49
1, 223083, Note_on_c, 0, 74, 69
1, 223088, Note_on_c, 0, 59, 42
1, 223095, Control_c, 0, 64, 0
1, 223150, Note_off_c, 0, 76, 60
1, 223245, Note_on_c, 0, 73, 74
1, 223256, Note_on_c, 0, 66, 43
1, 223265, Note_off_c, 0, 74, 59
1, 223273, Control_c, 0, 64, 38
1, 223284, Note_off_c, 0, 59, 57
1, 223288, Control_c, 0, 64, 52
1, 223302, Control_c, 0, 64, 61
1, 223317, Control_c, 0, 64, 65
1, 223332, Control_c, 0, 64, 67
1, 223345, Note_off_c, 0, 66, 61
1, 223347, Control_c, 0, 64, 72
1, 223362, Control_c, 0, 64, 78
1, 223376, Control_c, 0, 64, 88
1, 223391, Control_c, 0, 64, 100
1, 223403, Note_on_c, 0, 74, 79
1, 223406, Control_c, 0, 64, 119
1, 223415, Note_off_c, 0, 73, 63
1, 223421, Control_c, 0, 64, 127
1, 223506, Note_off_c, 0, 74, 53
1, 223652, Control_c, 0, 64, 113
1, 223667, Control_c, 0, 64, 100
1, 223679, Note_on_c, 0, 83, 80
1, 223681, Control_c, 0, 64, 90
1, 223696, Control_c, 0, 64, 81
1, 223711, Control_c, 0, 64, 70
1, 223725, Control_c, 0, 64, 55
1, 223740, Control_c, 0, 64, 0
1, 223888, Control_c, 0, 64, 48
1, 223903, Control_c, 0, 64, 63
1, 223918, Control_c, 0, 64, 66
1, 223932, Control_c, 0, 64, 70
1, 223947, Control_c, 0, 64, 77
1, 223962, Control_c, 0, 64, 91
1, 223976, Note_on_c, 0, 65, 40
1, 223977, Control_c, 0, 64, 127
1, 223985, Note_on_c, 0, 56, 44
1, 224129, Note_off_c, 0, 83, 34
1, 224200, Note_off_c, 0, 56, 33
1, 224216, Note_on_c, 0, 81, 68
1, 224219, Note_on_c, 0, 62, 40
1, 224242, Note_on_c, 0, 71, 23
1, 224296, Note_off_c, 0, 65, 39
1, 224327, Note_off_c, 0, 71, 50
1, 224410, Note_off_c, 0, 62, 55
1, 224436, Note_on_c, 0, 80, 70
1, 224441, Note_off_c, 0, 81, 56
1, 224505, Note_off_c, 0, 80, 61
1, 224585, Note_on_c, 0, 79, 66
1, 224605, Note_off_c, 0, 79, 66
1, 224629, Note_on_c, 0, 81, 63
1, 224637, Control_c, 0, 64, 122
1, 224652, Control_c, 0, 64, 106
1, 224667, Control_c, 0, 64, 97
1, 224678, Note_on_c, 0, 79, 71
1, 224681, Control_c, 0, 64, 88
1, 224696, Control_c, 0, 64, 78
1, 224711, Control_c, 0, 64, 67
1, 224726, Control_c, 0, 64, 57
1, 224734, Note_off_c, 0, 81, 49
1, 224741, Control_c, 0, 64, 34
1, 224755, Control_c, 0, 64, 0
1, 224859, Control_c, 0, 64, 41
1, 224874, Control_c, 0, 64, 55
1, 224889, Control_c, 0, 64, 63
1, 224904, Control_c, 0, 64, 68
1, 224919, Control_c, 0, 64, 71
1, 224920, Note_on_c, 0, 45, 30
1, 224934, Control_c, 0, 64, 74
1, 224948, Control_c, 0, 64, 77
1, 224963, Control_c, 0, 64, 81
1, 224978, Control_c, 0, 64, 85
1, 224993, Control_c, 0, 64, 90
1, 225008, Control_c, 0, 64, 94
1, 225022, Control_c, 0, 64, 97
1, 225047, Note_off_c, 0, 45, 34
1, 225068, Control_c, 0, 64, 99
1, 225182, Note_on_c, 0, 55, 31
1, 225184, Note_on_c, 0, 78, 57
1, 225190, Note_on_c, 0, 61, 34
1, 225215, Note_off_c, 0, 79, 20
1, 225314, Note_off_c, 0, 61, 34
1, 225341, Note_off_c, 0, 55, 34
1, 225446, Note_off_c, 0, 78, 59
1, 225452, Note_on_c, 0, 76, 54
1, 225594, Control_c, 0, 64, 97
1, 225600, Note_off_c, 0, 76, 48
1, 225624, Control_c, 0, 64, 95
1, 225639, Control_c, 0, 64, 94
1, 225653, Control_c, 0, 64, 92
1, 225668, Control_c, 0, 64, 91
1, 225683, Control_c, 0, 64, 89
1, 225697, Control_c, 0, 64, 87
1, 225712, Control_c, 0, 64, 84
1, 225718, Note_on_c, 0, 74, 44
1, 225727, Control_c, 0, 64, 83
1, 225742, Control_c, 0, 64, 81
1, 225757, Control_c, 0, 64, 80
1, 225766, Note_off_c, 0, 74, 0
1, 225766, Note_on_c, 0, 74, 13
1, 225772, Control_c, 0, 64, 77
1, 225786, Control_c, 0, 64, 74
1, 225801, Control_c, 0, 64, 69
1, 225816, Control_c, 0, 64, 61
1, 225831, Control_c, 0, 64, 44
1, 225845, Control_c, 0, 64, 0
1, 225942, Control_c, 0, 64, 43
1, 225957, Control_c, 0, 64, 57
1, 225972, Control_c, 0, 64, 64
1, 225982, Note_on_c, 0, 46, 27
1, 225987, Control_c, 0, 64, 68
1, 226001, Control_c, 0, 64, 70
1, 226016, Control_c, 0, 64, 74
1, 226031, Control_c, 0, 64, 78
1, 226046, Control_c, 0, 64, 85
1, 226061, Control_c, 0, 64, 95
1, 226076, Control_c, 0, 64, 108
1, 226091, Control_c, 0, 64, 127
1, 226210, Note_off_c, 0, 46, 45
1, 226223, Note_on_c, 0, 56, 33
1, 226401, Note_on_c, 0, 62, 26
1, 226518, Note_off_c, 0, 62, 42
1, 226568, Note_on_c, 0, 66, 36
1, 226570, Note_off_c, 0, 56, 41
1, 226710, Note_off_c, 0, 66, 45
1, 226728, Note_off_c, 0, 74, 40
1, 226748, Note_on_c, 0, 62, 42
1, 226819, Note_off_c, 0, 62, 47
1, 226899, Note_on_c, 0, 76, 58
1, 226910, Note_on_c, 0, 56, 46
1, 226978, Note_off_c, 0, 56, 47
1, 227051, Note_off_c, 0, 76, 30
1, 227053, Note_on_c, 0, 77, 66
1, 227071, Note_on_c, 0, 46, 40
1, 227116, Note_off_c, 0, 77, 62
1, 227129, Note_off_c, 0, 46, 56
1, 227165, Control_c, 0, 64, 119
1, 227180, Control_c, 0, 64, 108
1, 227195, Control_c, 0, 64, 102
1, 227210, Control_c, 0, 64, 97
1, 227224, Control_c, 0, 64, 94
1, 227239, Control_c, 0, 64, 90
1, 227254, Control_c, 0, 64, 86
1, 227263, Note_on_c, 0, 78, 66
1, 227268, Control_c, 0, 64, 81
1, 227276, Note_on_c, 0, 69, 50
1, 227284, Control_c, 0, 64, 75
1, 227299, Control_c, 0, 64, 67
1, 227314, Control_c, 0, 64, 58
1, 227329, Control_c, 0, 64, 45
1, 227343, Control_c, 0, 64, 32
1, 227358, Control_c, 0, 64, 0
1, 227438, Note_on_c, 0, 45, 47
1, 227440, Control_c, 0, 64, 35
1, 227455, Control_c, 0, 64, 47
1, 227469, Control_c, 0, 64, 56
1, 227484, Control_c, 0, 64, 61
1, 227499, Control_c, 0, 64, 63
1, 227514, Control_c, 0, 64, 64
1, 227518, Note_off_c, 0, 45, 52
1, 227530, Control_c, 0, 64, 64
1, 227545, Control_c, 0, 64, 65
1, 227560, Control_c, 0, 64, 66
1, 227574, Control_c, 0, 64, 67
1, 227589, Control_c, 0, 64, 68
1, 227604, Control_c, 0, 64, 69
1, 227606, Note_on_c, 0, 73, 68
1, 227619, Note_on_c, 0, 55, 39
1, 227619, Control_c, 0, 64, 69
1, 227624, Note_on_c, 0, 70, 53
1, 227634, Control_c, 0, 64, 70
1, 227638, Note_off_c, 0, 69, 47
1, 227642, Note_on_c, 0, 61, 35
1, 227643, Note_off_c, 0, 78, 58
1, 227648, Control_c, 0, 64, 71
1, 227663, Control_c, 0, 64, 72
1, 227678, Control_c, 0, 64, 73
1, 227693, Control_c, 0, 64, 75
1, 227707, Control_c, 0, 64, 76
1, 227722, Control_c, 0, 64, 76
1, 227737, Control_c, 0, 64, 77
1, 227767, Control_c, 0, 64, 77
1, 227802, Note_off_c, 0, 61, 23
1, 227841, Control_c, 0, 64, 77
1, 227851, Note_off_c, 0, 55, 30
1, 227855, Control_c, 0, 64, 76
1, 227870, Control_c, 0, 64, 76
1, 227885, Control_c, 0, 64, 75
1, 227900, Control_c, 0, 64, 74
1, 227915, Control_c, 0, 64, 73
1, 227918, Note_off_c, 0, 70, 30
1, 227930, Control_c, 0, 64, 72
1, 227945, Control_c, 0, 64, 70
1, 227948, Note_on_c, 0, 74, 65
1, 227950, Note_on_c, 0, 69, 49
1, 227960, Control_c, 0, 64, 67
1, 227974, Control_c, 0, 64, 62
1, 227981, Note_off_c, 0, 73, 57
1, 227989, Control_c, 0, 64, 54
1, 228004, Control_c, 0, 64, 38
1, 228018, Control_c, 0, 64, 0
1, 228091, Control_c, 0, 64, 36
1, 228105, Note_on_c, 0, 46, 43
1, 228106, Control_c, 0, 64, 51
1, 228121, Control_c, 0, 64, 59
1, 228136, Control_c, 0, 64, 63
1, 228158, Control_c, 0, 64, 64
1, 228172, Control_c, 0, 64, 65
1, 228187, Control_c, 0, 64, 66
1, 228202, Control_c, 0, 64, 67
1, 228217, Control_c, 0, 64, 69
1, 228231, Control_c, 0, 64, 70
1, 228246, Control_c, 0, 64, 71
1, 228260, Note_off_c, 0, 46, 54
1, 228261, Control_c, 0, 64, 72
1, 228276, Control_c, 0, 64, 73
1, 228284, Note_on_c, 0, 68, 52
1, 228285, Note_on_c, 0, 56, 44
1, 228287, Note_off_c, 0, 69, 36
1, 228291, Control_c, 0, 64, 73
1, 228305, Control_c, 0, 64, 74
1, 228321, Control_c, 0, 64, 75
1, 228336, Control_c, 0, 64, 76
1, 228366, Control_c, 0, 64, 76
1, 228410, Control_c, 0, 64, 77
1, 228431, Note_on_c, 0, 62, 49
1, 228532, Note_off_c, 0, 62, 49
1, 228547, Note_off_c, 0, 56, 30
1, 228589, Control_c, 0, 64, 77
1, 228600, Note_off_c, 0, 74, 57
1, 228620, Note_on_c, 0, 66, 52
1, 228659, Note_off_c, 0, 68, 63
1, 228765, Note_on_c, 0, 62, 51
1, 228838, Note_off_c, 0, 66, 56
1, 228884, Control_c, 0, 64, 77
1, 228896, Note_off_c, 0, 62, 36
1, 228937, Note_on_c, 0, 56, 50
1, 228940, Note_on_c, 0, 76, 64
1, 228951, Control_c, 0, 64, 76
1, 229005, Note_off_c, 0, 56, 44
1, 229010, Control_c, 0, 64, 76
1, 229044, Note_off_c, 0, 76, 39
1, 229084, Control_c, 0, 64, 75
1, 229103, Note_on_c, 0, 77, 61
1, 229125, Note_on_c, 0, 46, 40
1, 229144, Control_c, 0, 64, 75
1, 229167, Note_off_c, 0, 77, 61
1, 229179, Note_off_c, 0, 46, 51
1, 229189, Control_c, 0, 64, 74
1, 229204, Control_c, 0, 64, 74
1, 229218, Control_c, 0, 64, 73
1, 229233, Control_c, 0, 64, 73
1, 229248, Control_c, 0, 64, 72
1, 229262, Control_c, 0, 64, 72
1, 229277, Control_c, 0, 64, 71
1, 229292, Control_c, 0, 64, 71
1, 229307, Control_c, 0, 64, 70
1, 229322, Control_c, 0, 64, 69
1, 229335, Note_on_c, 0, 78, 59
1, 229337, Control_c, 0, 64, 65
1, 229350, Note_on_c, 0, 69, 40
1, 229352, Control_c, 0, 64, 57
1, 229367, Control_c, 0, 64, 34
1, 229382, Control_c, 0, 64, 0
1, 229500, Control_c, 0, 64, 41
1, 229515, Control_c, 0, 64, 52
1, 229530, Control_c, 0, 64, 59
1, 229541, Note_on_c, 0, 45, 38
1, 229544, Control_c, 0, 64, 62
1, 229559, Control_c, 0, 64, 64
1, 229574, Control_c, 0, 64, 66
1, 229588, Control_c, 0, 64, 69
1, 229603, Control_c, 0, 64, 72
1, 229618, Control_c, 0, 64, 74
1, 229629, Note_off_c, 0, 45, 41
1, 229633, Control_c, 0, 64, 76
1, 229656, Control_c, 0, 64, 77
1, 229670, Control_c, 0, 64, 78
1, 229700, Control_c, 0, 64, 78
1, 229719, Note_off_c, 0, 78, 54
1, 229722, Note_on_c, 0, 73, 56
1, 229725, Note_on_c, 0, 55, 40
1, 229732, Note_off_c, 0, 69, 53
1, 229736, Note_on_c, 0, 70, 46
1, 229750, Note_on_c, 0, 61, 31
1, 229961, Note_off_c, 0, 61, 24
1, 229962, Note_off_c, 0, 55, 31
1, 229967, Control_c, 0, 64, 78
1, 229982, Control_c, 0, 64, 77
1, 229997, Control_c, 0, 64, 76
1, 230012, Control_c, 0, 64, 75
1, 230027, Control_c, 0, 64, 75
1, 230050, Note_off_c, 0, 70, 26
1, 230056, Control_c, 0, 64, 74
1, 230071, Control_c, 0, 64, 73
1, 230072, Note_on_c, 0, 74, 57
1, 230082, Note_on_c, 0, 69, 39
1, 230085, Control_c, 0, 64, 69
1, 230094, Note_off_c, 0, 73, 37
1, 230100, Control_c, 0, 64, 60
1, 230115, Control_c, 0, 64, 48
1, 230130, Control_c, 0, 64, 36
1, 230145, Control_c, 0, 64, 30
1, 230174, Control_c, 0, 64, 34
1, 230189, Control_c, 0, 64, 40
1, 230204, Control_c, 0, 64, 50
1, 230219, Control_c, 0, 64, 57
1, 230234, Control_c, 0, 64, 61
1, 230248, Note_on_c, 0, 46, 37
1, 230249, Control_c, 0, 64, 64
1, 230264, Control_c, 0, 64, 65
1, 230279, Control_c, 0, 64, 67
1, 230294, Control_c, 0, 64, 68
1, 230309, Control_c, 0, 64, 70
1, 230323, Control_c, 0, 64, 72
1, 230338, Control_c, 0, 64, 73
1, 230353, Control_c, 0, 64, 75
1, 230368, Control_c, 0, 64, 76
1, 230383, Control_c, 0, 64, 77
1, 230405, Control_c, 0, 64, 78
1, 230419, Control_c, 0, 64, 79
1, 230428, Note_on_c, 0, 68, 44
1, 230434, Control_c, 0, 64, 81
1, 230435, Note_off_c, 0, 69, 36
1, 230441, Note_on_c, 0, 56, 32
1, 230449, Control_c, 0, 64, 82
1, 230455, Note_off_c, 0, 46, 40
1, 230464, Control_c, 0, 64, 84
1, 230479, Control_c, 0, 64, 86
1, 230493, Control_c, 0, 64, 88
1, 230508, Control_c, 0, 64, 90
1, 230523, Control_c, 0, 64, 91
1, 230538, Control_c, 0, 64, 92
1, 230616, Note_on_c, 0, 62, 40
1, 230627, Control_c, 0, 64, 93
1, 230642, Control_c, 0, 64, 94
1, 230657, Control_c, 0, 64, 95
1, 230687, Control_c, 0, 67, 23
1, 230687, Note_off_c, 0, 62, 50
1, 230701, Control_c, 0, 67, 30
1, 230717, Control_c, 0, 67, 38
1, 230732, Control_c, 0, 67, 46
1, 230747, Control_c, 0, 67, 55
1, 230756, Note_off_c, 0, 56, 37
1, 230762, Control_c, 0, 67, 67
1, 230777, Control_c, 0, 67, 80
1, 230791, Control_c, 0, 67, 92
1, 230806, Control_c, 0, 67, 102
1, 230809, Note_on_c, 0, 66, 43
1, 230821, Control_c, 0, 67, 108
1, 230828, Note_off_c, 0, 74, 53
1, 230872, Note_off_c, 0, 68, 59
1, 231005, Note_on_c, 0, 62, 40
1, 231028, Control_c, 0, 64, 94
1, 231099, Note_off_c, 0, 66, 35
1, 231102, Control_c, 0, 64, 94
1, 231139, Control_c, 0, 64, 93
1, 231142, Note_off_c, 0, 62, 35
1, 231154, Control_c, 0, 64, 93
1, 231169, Control_c, 0, 64, 92
1, 231198, Control_c, 0, 64, 92
1, 231207, Note_on_c, 0, 56, 46
1, 231213, Control_c, 0, 64, 91
1, 231221, Note_on_c, 0, 76, 45
1, 231242, Control_c, 0, 64, 91
1, 231257, Control_c, 0, 64, 90
1, 231287, Control_c, 0, 64, 90
1, 231302, Note_off_c, 0, 56, 34
1, 231316, Control_c, 0, 64, 89
1, 231330, Note_off_c, 0, 76, 32
1, 231331, Control_c, 0, 64, 89
1, 231361, Control_c, 0, 64, 88
1, 231361, Control_c, 0, 67, 106
1, 231391, Control_c, 0, 64, 88
1, 231406, Control_c, 0, 64, 87
1, 231407, Note_on_c, 0, 77, 53
1, 231420, Note_on_c, 0, 46, 31
1, 231450, Control_c, 0, 64, 87
1, 231481, Note_off_c, 0, 77, 50
1, 231495, Control_c, 0, 64, 86
1, 231540, Control_c, 0, 64, 86
1, 231555, Control_c, 0, 64, 85
1, 231570, Control_c, 0, 64, 83
1, 231584, Control_c, 0, 64, 82
1, 231599, Control_c, 0, 64, 80
1, 231614, Control_c, 0, 64, 79
1, 231629, Control_c, 0, 64, 78
1, 231644, Control_c, 0, 64, 77
1, 231659, Control_c, 0, 64, 76
1, 231673, Control_c, 0, 64, 75
1, 231688, Control_c, 0, 64, 73
1, 231697, Note_on_c, 0, 78, 50
1, 231703, Control_c, 0, 64, 68
1, 231705, Note_on_c, 0, 67, 39
1, 231718, Control_c, 0, 64, 63
1, 231733, Control_c, 0, 64, 54
1, 231747, Control_c, 0, 64, 46
1, 231762, Control_c, 0, 64, 42
1, 231777, Control_c, 0, 64, 43
1, 231791, Control_c, 0, 64, 46
1, 231806, Control_c, 0, 64, 49
1, 231821, Control_c, 0, 64, 54
1, 231836, Control_c, 0, 64, 58
1, 231851, Control_c, 0, 64, 61
1, 231865, Control_c, 0, 64, 62
1, 231880, Control_c, 0, 64, 63
1, 231903, Control_c, 0, 64, 65
1, 231918, Control_c, 0, 64, 67
1, 231933, Control_c, 0, 64, 68
1, 231947, Control_c, 0, 64, 70
1, 231962, Control_c, 0, 64, 72
1, 231963, Note_on_c, 0, 55, 29
1, 231977, Control_c, 0, 64, 73
1, 231991, Control_c, 0, 64, 75
1, 231997, Note_off_c, 0, 67, 47
1, 232006, Control_c, 0, 64, 75
1, 232021, Control_c, 0, 64, 76
1, 232036, Control_c, 0, 64, 77
1, 232051, Control_c, 0, 64, 78
1, 232065, Control_c, 0, 64, 78
1, 232080, Control_c, 0, 64, 79
1, 232095, Control_c, 0, 64, 80
1, 232125, Control_c, 0, 64, 80
1, 232139, Control_c, 0, 64, 81
1, 232154, Control_c, 0, 64, 81
1, 232160, Note_off_c, 0, 46, 44
1, 232169, Control_c, 0, 64, 82
1, 232175, Note_on_c, 0, 61, 39
1, 232178, Note_on_c, 0, 68, 42
1, 232184, Control_c, 0, 64, 82
1, 232198, Control_c, 0, 64, 83
1, 232213, Control_c, 0, 64, 83
1, 232228, Control_c, 0, 64, 84
1, 232243, Control_c, 0, 64, 85
1, 232258, Control_c, 0, 64, 86
1, 232273, Control_c, 0, 64, 86
1, 232282, Note_off_c, 0, 68, 37
1, 232324, Note_off_c, 0, 55, 39
1, 232405, Note_on_c, 0, 69, 44
1, 232437, Note_off_c, 0, 61, 34
1, 232491, Note_off_c, 0, 78, 29
1, 232548, Note_off_c, 0, 69, 33
1, 232666, Control_c, 0, 64, 86
1, 232681, Control_c, 0, 64, 85
1, 232696, Control_c, 0, 64, 84
1, 232711, Control_c, 0, 64, 83
1, 232726, Control_c, 0, 64, 83
1, 232741, Control_c, 0, 64, 82
1, 232756, Control_c, 0, 64, 81
1, 232766, Note_on_c, 0, 78, 50
1, 232770, Control_c, 0, 64, 80
1, 232771, Note_on_c, 0, 70, 40
1, 232785, Control_c, 0, 64, 79
1, 232800, Control_c, 0, 64, 78
1, 232814, Control_c, 0, 64, 78
1, 232829, Control_c, 0, 64, 77
1, 232844, Control_c, 0, 64, 76
1, 232859, Control_c, 0, 64, 76
1, 232874, Control_c, 0, 64, 75
1, 232888, Control_c, 0, 64, 74
1, 232903, Control_c, 0, 64, 74
1, 232933, Control_c, 0, 64, 73
1, 232948, Control_c, 0, 64, 73
1, 232962, Control_c, 0, 64, 72
1, 232992, Control_c, 0, 64, 72
1, 233021, Control_c, 0, 64, 71
1, 233036, Control_c, 0, 64, 71
1, 233051, Control_c, 0, 64, 70
1, 233061, Note_on_c, 0, 49, 37
1, 233066, Control_c, 0, 64, 67
1, 233081, Control_c, 0, 64, 61
1, 233096, Control_c, 0, 64, 53
1, 233111, Control_c, 0, 64, 44
1, 233126, Control_c, 0, 64, 38
1, 233141, Control_c, 0, 64, 37
1, 233171, Control_c, 0, 64, 38
1, 233185, Control_c, 0, 64, 41
1, 233200, Control_c, 0, 64, 49
1, 233215, Control_c, 0, 64, 56
1, 233230, Control_c, 0, 64, 61
1, 233245, Control_c, 0, 64, 64
1, 233260, Control_c, 0, 64, 66
1, 233275, Control_c, 0, 64, 68
1, 233289, Control_c, 0, 64, 72
1, 233304, Control_c, 0, 64, 74
1, 233319, Control_c, 0, 64, 76
1, 233334, Control_c, 0, 64, 78
1, 233349, Control_c, 0, 64, 79
1, 233364, Control_c, 0, 64, 80
1, 233370, Note_on_c, 0, 55, 31
1, 233379, Control_c, 0, 64, 81
1, 233400, Control_c, 0, 64, 83
1, 233415, Control_c, 0, 64, 84
1, 233430, Control_c, 0, 64, 85
1, 233441, Note_off_c, 0, 49, 35
1, 233444, Control_c, 0, 64, 87
1, 233459, Control_c, 0, 64, 88
1, 233474, Control_c, 0, 64, 89
1, 233489, Control_c, 0, 64, 91
1, 233504, Control_c, 0, 64, 93
1, 233519, Control_c, 0, 64, 94
1, 233534, Control_c, 0, 64, 96
1, 233563, Control_c, 0, 64, 98
1, 233588, Note_on_c, 0, 58, 35
1, 233593, Control_c, 0, 64, 101
1, 233608, Control_c, 0, 64, 103
1, 233623, Control_c, 0, 64, 106
1, 233637, Control_c, 0, 64, 108
1, 233652, Control_c, 0, 64, 112
1, 233667, Control_c, 0, 64, 118
1, 233682, Control_c, 0, 64, 127
1, 233720, Note_off_c, 0, 55, 34
1, 233815, Control_c, 0, 67, 108
1, 233843, Note_on_c, 0, 66, 38
1, 233850, Note_off_c, 0, 58, 33
1, 233987, Note_off_c, 0, 78, 34
1, 234055, Note_on_c, 0, 55, 38
1, 234081, Note_off_c, 0, 66, 39
1, 234095, Note_off_c, 0, 70, 36
1, 234249, Note_on_c, 0, 73, 52
1, 234268, Note_on_c, 0, 69, 37
1, 234269, Note_on_c, 0, 61, 40
1, 234419, Note_off_c, 0, 55, 37
1, 234440, Note_on_c, 0, 68, 58
1, 234446, Note_on_c, 0, 58, 40
1, 234453, Note_off_c, 0, 69, 42
1, 234475, Note_off_c, 0, 61, 36
1, 234549, Control_c, 0, 64, 122
1, 234564, Control_c, 0, 64, 116
1, 234579, Control_c, 0, 64, 111
1, 234593, Control_c, 0, 64, 108
1, 234608, Control_c, 0, 64, 104
1, 234623, Control_c, 0, 64, 97
1, 234634, Note_off_c, 0, 58, 35
1, 234637, Note_on_c, 0, 76, 68
1, 234638, Control_c, 0, 64, 86
1, 234645, Note_on_c, 0, 64, 40
1, 234653, Control_c, 0, 64, 74
1, 234658, Note_on_c, 0, 67, 36
1, 234667, Control_c, 0, 64, 64
1, 234682, Control_c, 0, 64, 52
1, 234697, Control_c, 0, 64, 46
1, 234701, Note_off_c, 0, 68, 36
1, 234710, Note_off_c, 0, 73, 35
1, 234713, Control_c, 0, 64, 47
1, 234728, Control_c, 0, 64, 51
1, 234743, Control_c, 0, 64, 56
1, 234757, Control_c, 0, 64, 60
1, 234773, Control_c, 0, 64, 63
1, 234783, Note_off_c, 0, 64, 46
1, 234788, Control_c, 0, 64, 65
1, 234802, Control_c, 0, 64, 68
1, 234807, Note_on_c, 0, 59, 42
1, 234817, Control_c, 0, 64, 71
1, 234832, Control_c, 0, 64, 74
1, 234847, Control_c, 0, 64, 77
1, 234862, Control_c, 0, 64, 80
1, 234884, Control_c, 0, 64, 83
1, 234899, Control_c, 0, 64, 86
1, 234914, Control_c, 0, 64, 88
1, 234929, Control_c, 0, 64, 89
1, 234944, Control_c, 0, 64, 90
1, 234959, Control_c, 0, 64, 91
1, 234973, Control_c, 0, 64, 92
1, 234981, Note_on_c, 0, 62, 45
1, 234986, Note_on_c, 0, 74, 66
1, 234988, Note_off_c, 0, 59, 36
1, 234988, Control_c, 0, 64, 94
1, 235003, Control_c, 0, 64, 95
1, 235005, Note_off_c, 0, 76, 58
1, 235032, Control_c, 0, 64, 95
1, 235054, Note_off_c, 0, 74, 61
1, 235075, Note_off_c, 0, 62, 45
1, 235144, Note_on_c, 0, 66, 55
1, 235144, Note_off_c, 0, 67, 45
1, 235164, Note_on_c, 0, 50, 44
1, 235209, Control_c, 0, 64, 95
1, 235224, Control_c, 0, 64, 94
1, 235239, Control_c, 0, 64, 94
1, 235254, Control_c, 0, 64, 92
1, 235269, Control_c, 0, 64, 89
1, 235284, Control_c, 0, 64, 82
1, 235299, Control_c, 0, 64, 74
1, 235311, Note_on_c, 0, 73, 70
1, 235314, Control_c, 0, 64, 66
1, 235325, Note_on_c, 0, 61, 42
1, 235328, Control_c, 0, 64, 61
1, 235333, Note_on_c, 0, 65, 36
1, 235334, Note_off_c, 0, 66, 48
1, 235343, Control_c, 0, 64, 57
1, 235358, Control_c, 0, 64, 56
1, 235358, Control_c, 0, 67, 106
1, 235373, Control_c, 0, 64, 56
1, 235388, Control_c, 0, 64, 57
1, 235403, Control_c, 0, 64, 59
1, 235417, Control_c, 0, 64, 62
1, 235432, Control_c, 0, 64, 64
1, 235447, Control_c, 0, 64, 67
1, 235448, Note_off_c, 0, 61, 50
1, 235456, Note_on_c, 0, 56, 58
1, 235462, Control_c, 0, 64, 69
1, 235477, Control_c, 0, 64, 73
1, 235484, Note_off_c, 0, 50, 32
1, 235491, Control_c, 0, 64, 75
1, 235507, Control_c, 0, 64, 78
1, 235507, Control_c, 0, 67, 104
1, 235522, Control_c, 0, 64, 81
1, 235537, Control_c, 0, 64, 84
1, 235548, Note_off_c, 0, 65, 41
1, 235552, Control_c, 0, 64, 86
1, 235552, Control_c, 0, 67, 102
1, 235566, Control_c, 0, 64, 88
1, 235581, Control_c, 0, 64, 92
1, 235581, Control_c, 0, 67, 100
1, 235596, Control_c, 0, 64, 96
1, 235611, Control_c, 0, 64, 101
1, 235611, Control_c, 0, 67, 98
1, 235632, Control_c, 0, 64, 105
1, 235638, Note_on_c, 0, 59, 50
1, 235644, Note_on_c, 0, 71, 69
1, 235647, Control_c, 0, 64, 109
1, 235647, Control_c, 0, 67, 96
1, 235660, Note_off_c, 0, 56, 35
1, 235662, Control_c, 0, 64, 114
1, 235662, Control_c, 0, 67, 93
1, 235677, Control_c, 0, 64, 127
1, 235677, Control_c, 0, 67, 88
1, 235692, Control_c, 0, 67, 82
1, 235707, Control_c, 0, 67, 75
1, 235722, Control_c, 0, 67, 68
1, 235722, Note_off_c, 0, 59, 47
1, 235726, Note_off_c, 0, 73, 37
1, 235737, Control_c, 0, 67, 61
1, 235752, Control_c, 0, 67, 53
1, 235766, Control_c, 0, 67, 44
1, 235773, Note_off_c, 0, 71, 47
1, 235781, Control_c, 0, 67, 37
1, 235796, Control_c, 0, 67, 30
1, 235800, Note_on_c, 0, 50, 62
1, 235811, Control_c, 0, 67, 23
1, 235826, Control_c, 0, 67, 0
1, 235900, Control_c, 0, 64, 125
1, 235914, Control_c, 0, 64, 114
1, 235929, Control_c, 0, 64, 108
1, 235944, Control_c, 0, 64, 103
1, 235958, Control_c, 0, 64, 100
1, 235973, Control_c, 0, 64, 96
1, 235988, Control_c, 0, 64, 90
1, 236003, Control_c, 0, 64, 84
1, 236018, Control_c, 0, 64, 76
1, 236026, Note_on_c, 0, 73, 71
1, 236032, Control_c, 0, 64, 69
1, 236047, Control_c, 0, 64, 62
1, 236062, Control_c, 0, 64, 54
1, 236077, Control_c, 0, 64, 47
1, 236092, Control_c, 0, 64, 43
1, 236106, Control_c, 0, 64, 43
1, 236121, Control_c, 0, 64, 44
1, 236136, Control_c, 0, 64, 48
1, 236151, Control_c, 0, 64, 53
1, 236166, Control_c, 0, 64, 59
1, 236181, Control_c, 0, 64, 63
1, 236196, Control_c, 0, 64, 66
1, 236211, Control_c, 0, 64, 69
1, 236226, Control_c, 0, 64, 72
1, 236240, Control_c, 0, 64, 75
1, 236255, Control_c, 0, 64, 79
1, 236262, Note_on_c, 0, 54, 35
1, 236269, Control_c, 0, 64, 84
1, 236279, Note_on_c, 0, 69, 38
1, 236284, Control_c, 0, 64, 88
1, 236299, Control_c, 0, 64, 93
1, 236315, Control_c, 0, 64, 100
1, 236329, Control_c, 0, 64, 110
1, 236344, Control_c, 0, 64, 127
1, 236447, Note_on_c, 0, 61, 39
1, 236457, Note_on_c, 0, 57, 44
1, 236510, Note_off_c, 0, 54, 33
1, 236533, Note_off_c, 0, 50, 40
1, 236560, Note_off_c, 0, 69, 23
1, 236589, Note_on_c, 0, 66, 42
1, 236607, Note_off_c, 0, 57, 35
1, 236747, Note_on_c, 0, 49, 55
1, 236751, Control_c, 0, 64, 117
1, 236766, Control_c, 0, 64, 97
1, 236780, Control_c, 0, 64, 83
1, 236795, Control_c, 0, 64, 75
1, 236810, Control_c, 0, 64, 70
1, 236822, Note_off_c, 0, 61, 39
1, 236825, Control_c, 0, 64, 66
1, 236840, Control_c, 0, 64, 65
1, 236870, Control_c, 0, 64, 65
1, 236884, Control_c, 0, 64, 67
1, 236899, Control_c, 0, 64, 69
1, 236914, Control_c, 0, 64, 73
1, 236923, Note_on_c, 0, 54, 42
1, 236929, Control_c, 0, 64, 77
1, 236944, Control_c, 0, 64, 80
1, 236953, Note_on_c, 0, 69, 43
1, 236957, Note_off_c, 0, 66, 35
1, 236959, Control_c, 0, 64, 84
1, 236973, Control_c, 0, 64, 89
1, 236988, Control_c, 0, 64, 94
1, 237003, Control_c, 0, 64, 101
1, 237018, Control_c, 0, 64, 110
1, 237033, Control_c, 0, 64, 127
1, 237103, Note_on_c, 0, 57, 46
1, 237103, Note_on_c, 0, 61, 48
1, 237132, Note_off_c, 0, 49, 37
1, 237152, Note_off_c, 0, 54, 40
1, 237181, Note_off_c, 0, 57, 51
1, 237212, Note_off_c, 0, 69, 27
1, 237236, Note_off_c, 0, 73, 33
1, 237261, Note_on_c, 0, 66, 61
1, 237322, Note_off_c, 0, 61, 37
1, 237338, Note_off_c, 0, 66, 60
1, 237471, Control_c, 0, 64, 103
1, 237475, Note_on_c, 0, 66, 60
1, 237482, Note_on_c, 0, 45, 43
1, 237485, Control_c, 0, 64, 89
1, 237500, Control_c, 0, 64, 78
1, 237515, Control_c, 0, 64, 69
1, 237529, Control_c, 0, 64, 63
1, 237544, Control_c, 0, 64, 59
1, 237559, Control_c, 0, 64, 57
1, 237589, Control_c, 0, 64, 58
1, 237603, Control_c, 0, 64, 60
1, 237618, Control_c, 0, 64, 62
1, 237633, Control_c, 0, 64, 65
1, 237648, Control_c, 0, 64, 67
1, 237660, Note_on_c, 0, 49, 41
1, 237663, Control_c, 0, 64, 70
1, 237677, Control_c, 0, 64, 73
1, 237692, Control_c, 0, 64, 76
1, 237707, Control_c, 0, 64, 78
1, 237722, Control_c, 0, 64, 80
1, 237737, Control_c, 0, 64, 82
1, 237752, Control_c, 0, 64, 84
1, 237767, Control_c, 0, 64, 87
1, 237782, Note_off_c, 0, 45, 40
1, 237782, Control_c, 0, 64, 89
1, 237797, Control_c, 0, 64, 92
1, 237812, Control_c, 0, 64, 94
1, 237826, Control_c, 0, 64, 97
1, 237844, Note_on_c, 0, 54, 40
1, 237847, Note_on_c, 0, 57, 43
1, 237856, Control_c, 0, 64, 100
1, 237871, Control_c, 0, 64, 102
1, 237893, Control_c, 0, 64, 104
1, 237909, Control_c, 0, 64, 107
1, 237913, Note_off_c, 0, 49, 40
1, 237924, Control_c, 0, 64, 109
1, 237939, Control_c, 0, 64, 112
1, 237968, Control_c, 0, 64, 116
1, 237991, Note_off_c, 0, 54, 40
1, 237998, Control_c, 0, 64, 118
1, 238028, Note_on_c, 0, 61, 44
1, 238130, Note_off_c, 0, 57, 27
1, 238175, Control_c, 0, 64, 115
1, 238190, Control_c, 0, 64, 113
1, 238205, Control_c, 0, 64, 110
1, 238220, Control_c, 0, 64, 107
1, 238235, Control_c, 0, 64, 105
1, 238265, Poly_aftertouch_c, 0, 57, 127
1, 238265, Control_c, 0, 64, 101
1, 238280, Control_c, 0, 64, 98
1, 238294, Control_c, 0, 64, 96
1, 238300, Note_on_c, 0, 42, 59
1, 238309, Control_c, 0, 64, 92
1, 238324, Control_c, 0, 64, 88
1, 238339, Control_c, 0, 64, 83
1, 238353, Control_c, 0, 64, 76
1, 238368, Control_c, 0, 64, 68
1, 238372, Poly_aftertouch_c, 0, 57, 0
1, 238383, Control_c, 0, 64, 62
1, 238398, Control_c, 0, 64, 55
1, 238402, Note_off_c, 0, 61, 36
1, 238413, Control_c, 0, 64, 50
1, 238427, Control_c, 0, 64, 49
1, 238442, Control_c, 0, 64, 50
1, 238457, Control_c, 0, 64, 52
1, 238472, Control_c, 0, 64, 55
1, 238486, Control_c, 0, 64, 58
1, 238501, Control_c, 0, 64, 60
1, 238516, Control_c, 0, 64, 61
1, 238531, Control_c, 0, 64, 62
1, 238545, Control_c, 0, 64, 63
1, 238560, Control_c, 0, 64, 65
1, 238575, Control_c, 0, 64, 66
1, 238589, Note_on_c, 0, 45, 29
1, 238590, Control_c, 0, 64, 68
1, 238605, Control_c, 0, 64, 70
1, 238614, Note_on_c, 0, 62, 37
1, 238627, Control_c, 0, 64, 72
1, 238642, Control_c, 0, 64, 74
1, 238657, Control_c, 0, 64, 75
1, 238672, Control_c, 0, 64, 77
1, 238686, Control_c, 0, 64, 78
1, 238703, Control_c, 0, 64, 79
1, 238718, Control_c, 0, 64, 80
1, 238732, Control_c, 0, 64, 80
1, 238747, Control_c, 0, 64, 81
1, 238753, Note_off_c, 0, 62, 0
1, 238762, Control_c, 0, 64, 81
1, 238777, Control_c, 0, 64, 82
1, 238786, Note_on_c, 0, 50, 40
1, 238790, Poly_aftertouch_c, 0, 62, 127
1, 238791, Control_c, 0, 64, 82
1, 238802, Note_on_c, 0, 67, 60
1, 238831, Note_on_c, 0, 55, 28
1, 238833, Note_off_c, 0, 66, 23
1, 238836, Control_c, 0, 64, 83
1, 238837, Note_off_c, 0, 42, 38
1, 238843, Note_off_c, 0, 45, 31
1, 238852, Poly_aftertouch_c, 0, 62, 0
1, 238865, Control_c, 0, 64, 83
1, 238895, Control_c, 0, 64, 84
1, 238910, Control_c, 0, 64, 84
1, 238941, Note_off_c, 0, 50, 35
1, 238950, Note_off_c, 0, 55, 36
1, 238954, Control_c, 0, 64, 85
1, 238965, Note_off_c, 0, 67, 60
1, 238983, Control_c, 0, 64, 85
1, 239043, Control_c, 0, 64, 86
1, 239153, Note_on_c, 0, 69, 69
1, 239169, Note_on_c, 0, 57, 51
1, 239176, Control_c, 0, 64, 84
1, 239191, Control_c, 0, 64, 77
1, 239206, Control_c, 0, 64, 69
1, 239221, Control_c, 0, 64, 61
1, 239236, Control_c, 0, 64, 55
1, 239250, Control_c, 0, 64, 52
1, 239265, Control_c, 0, 64, 54
1, 239280, Control_c, 0, 64, 58
1, 239295, Control_c, 0, 64, 61
1, 239309, Control_c, 0, 64, 65
1, 239323, Note_on_c, 0, 38, 54
1, 239323, Note_on_c, 0, 66, 59
1, 239324, Control_c, 0, 64, 69
1, 239339, Control_c, 0, 64, 75
1, 239344, Note_on_c, 0, 62, 42
1, 239354, Control_c, 0, 64, 80
1, 239369, Control_c, 0, 64, 84
1, 239371, Note_off_c, 0, 57, 34
1, 239373, Note_off_c, 0, 69, 56
1, 239391, Control_c, 0, 64, 86
1, 239406, Control_c, 0, 64, 87
1, 239421, Control_c, 0, 64, 88
1, 239436, Control_c, 0, 64, 90
1, 239451, Control_c, 0, 64, 92
1, 239465, Control_c, 0, 64, 94
1, 239480, Control_c, 0, 64, 96
1, 239482, Note_on_c, 0, 71, 78
1, 239488, Note_on_c, 0, 45, 51
1, 239494, Note_on_c, 0, 59, 51
1, 239496, Note_on_c, 0, 54, 56
1, 239512, Note_off_c, 0, 38, 36
1, 239514, Note_off_c, 0, 66, 53
1, 239520, Note_off_c, 0, 62, 26
1, 239525, Control_c, 0, 64, 98
1, 239529, Note_off_c, 0, 45, 62
1, 239567, Note_off_c, 0, 59, 34
1, 239597, Note_off_c, 0, 54, 54
1, 239612, Note_off_c, 0, 71, 60
1, 239614, Control_c, 0, 64, 100
1, 239762, Note_on_c, 0, 73, 83
1, 239769, Note_on_c, 0, 61, 68
1, 239792, Control_c, 0, 64, 91
1, 239806, Control_c, 0, 64, 78
1, 239821, Control_c, 0, 64, 67
1, 239836, Control_c, 0, 64, 60
1, 239851, Control_c, 0, 64, 57
1, 239866, Control_c, 0, 64, 59
1, 239880, Control_c, 0, 64, 62
1, 239895, Control_c, 0, 64, 66
1, 239900, Note_off_c, 0, 73, 60
1, 239904, Note_on_c, 0, 69, 68
1, 239910, Control_c, 0, 64, 71
1, 239924, Note_on_c, 0, 66, 52
1, 239925, Control_c, 0, 64, 79
1, 239934, Note_on_c, 0, 49, 55
1, 239940, Control_c, 0, 64, 91
1, 239952, Note_off_c, 0, 61, 53
1, 239955, Control_c, 0, 64, 107
1, 239970, Control_c, 0, 64, 127
1, 240050, Note_on_c, 0, 74, 82
1, 240060, Note_on_c, 0, 57, 59
1, 240062, Note_on_c, 0, 54, 58
1, 240063, Note_on_c, 0, 62, 63
1, 240072, Note_off_c, 0, 49, 58
1, 240106, Note_off_c, 0, 54, 59
1, 240107, Note_off_c, 0, 69, 37
1, 240111, Note_off_c, 0, 62, 53
1, 240114, Note_off_c, 0, 66, 35
1, 240140, Note_off_c, 0, 57, 58
1, 240160, Note_off_c, 0, 74, 57
1, 240285, Note_on_c, 0, 64, 59
1, 240322, Note_on_c, 0, 68, 74
1, 240363, Control_c, 0, 64, 96
1, 240373, Note_on_c, 0, 76, 83
1, 240378, Control_c, 0, 64, 73
1, 240393, Control_c, 0, 64, 61
1, 240408, Control_c, 0, 64, 53
1, 240423, Control_c, 0, 64, 55
1, 240438, Control_c, 0, 64, 56
1, 240453, Control_c, 0, 64, 58
1, 240468, Control_c, 0, 64, 62
1, 240482, Control_c, 0, 64, 65
1, 240497, Control_c, 0, 64, 67
1, 240511, Note_off_c, 0, 64, 63
1, 240512, Control_c, 0, 64, 69
1, 240522, Note_on_c, 0, 47, 48
1, 240527, Control_c, 0, 64, 73
1, 240542, Control_c, 0, 64, 77
1, 240556, Control_c, 0, 64, 81
1, 240571, Control_c, 0, 64, 86
1, 240586, Control_c, 0, 64, 89
1, 240598, Note_on_c, 0, 74, 78
1, 240601, Control_c, 0, 64, 94
1, 240610, Note_on_c, 0, 62, 68
1, 240616, Control_c, 0, 64, 99
1, 240619, Note_off_c, 0, 68, 55
1, 240630, Control_c, 0, 64, 108
1, 240645, Control_c, 0, 64, 127
1, 240661, Note_off_c, 0, 76, 45
1, 240668, Note_off_c, 0, 62, 60
1, 240691, Note_off_c, 0, 47, 35
1, 240700, Note_on_c, 0, 56, 60
1, 240751, Note_off_c, 0, 74, 56
1, 240763, Note_on_c, 0, 64, 72
1, 240768, Note_on_c, 0, 76, 86
1, 240807, Note_off_c, 0, 64, 62
1, 240831, Note_off_c, 0, 56, 58
1, 240844, Note_off_c, 0, 76, 64
1, 240845, Note_on_c, 0, 62, 62
1, 240906, Note_off_c, 0, 62, 60
1, 240908, Note_on_c, 0, 66, 76
1, 240933, Control_c, 0, 64, 100
1, 240939, Note_on_c, 0, 69, 69
1, 240948, Control_c, 0, 64, 76
1, 240962, Control_c, 0, 64, 47
1, 240970, Note_on_c, 0, 78, 91
1, 240977, Control_c, 0, 64, 0
1, 241052, Control_c, 0, 64, 54
1, 241067, Control_c, 0, 64, 70
1, 241076, Note_off_c, 0, 66, 59
1, 241081, Control_c, 0, 64, 82
1, 241084, Note_off_c, 0, 69, 61
1, 241096, Control_c, 0, 64, 127
1, 241106, Note_off_c, 0, 78, 63
1, 241123, Note_on_c, 0, 45, 71
1, 241284, Note_on_c, 0, 81, 97
1, 241285, Note_on_c, 0, 54, 63
1, 241288, Note_on_c, 0, 69, 81
1, 241352, Note_off_c, 0, 45, 51
1, 241406, Note_off_c, 0, 69, 57
1, 241440, Note_off_c, 0, 54, 63
1, 241440, Note_off_c, 0, 81, 62
1, 241445, Note_on_c, 0, 60, 79
1, 241696, Note_off_c, 0, 60, 52
1, 241699, Note_on_c, 0, 66, 68
1, 241699, Note_on_c, 0, 72, 87
1, 241699, Note_on_c, 0, 84, 96
1, 241699, Note_on_c, 0, 63, 67
1, 241726, Control_c, 0, 64, 88
1, 241741, Control_c, 0, 64, 59
1, 241756, Control_c, 0, 64, 0
1, 241889, Control_c, 0, 64, 54
1, 241905, Control_c, 0, 64, 64
1, 241920, Control_c, 0, 64, 64
1, 241949, Control_c, 0, 64, 65
1, 241958, Note_off_c, 0, 63, 61
1, 241964, Control_c, 0, 64, 67
1, 241969, Note_on_c, 0, 64, 72
1, 241979, Note_off_c, 0, 66, 59
1, 241979, Control_c, 0, 64, 69
1, 241994, Control_c, 0, 64, 75
1, 242009, Control_c, 0, 64, 84
1, 242024, Control_c, 0, 64, 98
1, 242038, Control_c, 0, 64, 127
1, 242060, Note_off_c, 0, 72, 52
1, 242064, Note_off_c, 0, 84, 53
1, 242096, Note_on_c, 0, 66, 79
1, 242097, Note_on_c, 0, 63, 76
1, 242104, Note_off_c, 0, 64, 62
1, 242235, Note_off_c, 0, 63, 59
1, 242235, Note_off_c, 0, 66, 60
1, 242250, Note_on_c, 0, 64, 74
1, 242283, Note_off_c, 0, 64, 62
1, 242327, Note_on_c, 0, 72, 86
1, 242444, Control_c, 0, 64, 72
1, 242459, Control_c, 0, 64, 0
1, 242489, Note_on_c, 0, 84, 90
1, 242593, Control_c, 0, 64, 71
1, 242608, Control_c, 0, 64, 127
1, 242646, Note_off_c, 0, 84, 61
1, 242696, Note_off_c, 0, 72, 63
1, 242763, Note_on_c, 0, 42, 52
1, 242768, Note_on_c, 0, 35, 52
1, 242864, Note_off_c, 0, 35, 55
1, 242900, Note_off_c, 0, 42, 62
1, 242924, Note_on_c, 0, 75, 75
1, 242930, Note_on_c, 0, 63, 65
1, 242936, Note_on_c, 0, 47, 57
1, 242965, Note_off_c, 0, 47, 65
1, 242966, Note_off_c, 0, 63, 61
1, 242985, Note_off_c, 0, 75, 61
1, 243094, Note_on_c, 0, 54, 66
1, 243273, Note_on_c, 0, 75, 78
1, 243274, Note_on_c, 0, 60, 66
1, 243280, Note_on_c, 0, 63, 66
1, 243289, Note_on_c, 0, 57, 61
1, 243297, Control_c, 0, 64, 82
1, 243312, Control_c, 0, 64, 64
1, 243327, Control_c, 0, 64, 44
1, 243335, Note_off_c, 0, 54, 53
1, 243341, Control_c, 0, 64, 0
1, 243371, Control_c, 0, 64, 39
1, 243386, Control_c, 0, 64, 56
1, 243401, Control_c, 0, 64, 65
1, 243416, Control_c, 0, 64, 71
1, 243431, Control_c, 0, 64, 77
1, 243442, Note_off_c, 0, 63, 59
1, 243445, Control_c, 0, 64, 81
1, 243460, Control_c, 0, 64, 84
1, 243474, Note_off_c, 0, 60, 60
1, 243475, Control_c, 0, 64, 85
1, 243490, Control_c, 0, 64, 86
1, 243505, Control_c, 0, 64, 86
1, 243517, Note_off_c, 0, 75, 52
1, 243520, Note_on_c, 0, 76, 81
1, 243520, Control_c, 0, 64, 87
1, 243528, Note_on_c, 0, 64, 61
1, 243535, Control_c, 0, 64, 87
1, 243550, Control_c, 0, 64, 88
1, 243569, Note_off_c, 0, 64, 58
1, 243580, Control_c, 0, 64, 89
1, 243594, Control_c, 0, 64, 90
1, 243609, Control_c, 0, 64, 91
1, 243624, Control_c, 0, 64, 91
1, 243626, Note_off_c, 0, 76, 57
1, 243633, Note_on_c, 0, 61, 70
1, 243639, Control_c, 0, 64, 92
1, 243649, Note_off_c, 0, 57, 37
1, 243654, Control_c, 0, 64, 92
1, 243676, Note_on_c, 0, 66, 65
1, 243707, Note_off_c, 0, 61, 53
1, 243711, Note_on_c, 0, 78, 69
1, 243740, Note_off_c, 0, 66, 60
1, 243793, Note_off_c, 0, 78, 62
1, 243817, Note_on_c, 0, 69, 64
1, 243832, Control_c, 0, 64, 91
1, 243846, Control_c, 0, 64, 86
1, 243861, Control_c, 0, 64, 75
1, 243874, Note_on_c, 0, 74, 62
1, 243884, Control_c, 0, 64, 65
1, 243898, Control_c, 0, 64, 52
1, 243913, Control_c, 0, 64, 35
1, 243920, Note_on_c, 0, 62, 53
1, 243927, Note_on_c, 0, 81, 75
1, 243928, Control_c, 0, 64, 0
1, 243958, Control_c, 0, 64, 29
1, 243972, Control_c, 0, 64, 39
1, 243987, Control_c, 0, 64, 49
1, 244002, Control_c, 0, 64, 56
1, 244017, Control_c, 0, 64, 61
1, 244031, Control_c, 0, 64, 63
1, 244046, Control_c, 0, 64, 65
1, 244061, Control_c, 0, 64, 66
1, 244076, Control_c, 0, 64, 67
1, 244089, Note_on_c, 0, 46, 50
1, 244090, Control_c, 0, 64, 68
1, 244104, Note_off_c, 0, 69, 60
1, 244105, Control_c, 0, 64, 69
1, 244120, Control_c, 0, 64, 70
1, 244135, Control_c, 0, 64, 71
1, 244150, Control_c, 0, 64, 71
1, 244225, Note_on_c, 0, 79, 77
1, 244225, Note_off_c, 0, 74, 58
1, 244229, Note_off_c, 0, 46, 55
1, 244229, Note_off_c, 0, 62, 14
1, 244238, Note_on_c, 0, 67, 61
1, 244238, Note_on_c, 0, 52, 55
1, 244253, Note_off_c, 0, 81, 30
1, 244321, Note_off_c, 0, 67, 62
1, 244356, Note_off_c, 0, 79, 42
1, 244395, Note_on_c, 0, 55, 59
1, 244415, Note_off_c, 0, 52, 54
1, 244447, Control_c, 0, 64, 71
1, 244452, Note_on_c, 0, 66, 53
1, 244462, Control_c, 0, 64, 70
1, 244477, Control_c, 0, 64, 69
1, 244492, Control_c, 0, 64, 68
1, 244497, Note_on_c, 0, 73, 60
1, 244507, Control_c, 0, 64, 67
1, 244521, Control_c, 0, 64, 63
1, 244536, Control_c, 0, 64, 56
1, 244551, Control_c, 0, 64, 34
1, 244566, Control_c, 0, 64, 0
1, 244575, Note_on_c, 0, 78, 72
1, 244576, Note_off_c, 0, 55, 59
1, 244598, Note_on_c, 0, 61, 51
1, 244677, Control_c, 0, 64, 45
1, 244691, Control_c, 0, 64, 58
1, 244706, Control_c, 0, 64, 64
1, 244709, Note_off_c, 0, 61, 60
1, 244721, Control_c, 0, 64, 67
1, 244736, Control_c, 0, 64, 68
1, 244751, Control_c, 0, 64, 69
1, 244766, Control_c, 0, 64, 70
1, 244781, Control_c, 0, 64, 71
1, 244795, Control_c, 0, 64, 72
1, 244804, Note_off_c, 0, 78, 55
1, 244808, Note_off_c, 0, 66, 61
1, 244824, Note_on_c, 0, 45, 44
1, 244869, Control_c, 0, 64, 70
1, 244884, Control_c, 0, 64, 65
1, 244899, Control_c, 0, 64, 60
1, 244914, Control_c, 0, 64, 55
1, 244927, Note_off_c, 0, 73, 37
1, 244928, Control_c, 0, 64, 54
1, 244930, Note_on_c, 0, 76, 72
1, 244943, Control_c, 0, 64, 56
1, 244947, Note_on_c, 0, 64, 48
1, 244958, Control_c, 0, 64, 59
1, 244973, Control_c, 0, 64, 62
1, 244988, Control_c, 0, 64, 65
1, 245002, Control_c, 0, 64, 68
1, 245017, Control_c, 0, 64, 71
1, 245026, Note_off_c, 0, 64, 57
1, 245032, Control_c, 0, 64, 74
1, 245037, Note_off_c, 0, 76, 63
1, 245046, Control_c, 0, 64, 77
1, 245061, Control_c, 0, 64, 80
1, 245064, Note_on_c, 0, 55, 48
1, 245076, Control_c, 0, 64, 83
1, 245092, Control_c, 0, 64, 85
1, 245107, Control_c, 0, 64, 86
1, 245122, Control_c, 0, 64, 86
1, 245210, Control_c, 0, 64, 86
1, 245225, Control_c, 0, 64, 85
1, 245240, Control_c, 0, 64, 83
1, 245256, Control_c, 0, 64, 79
1, 245264, Note_off_c, 0, 55, 39
1, 245270, Control_c, 0, 64, 73
1, 245285, Control_c, 0, 64, 64
1, 245291, Note_on_c, 0, 74, 63
1, 245291, Note_on_c, 0, 54, 45
1, 245300, Control_c, 0, 64, 52
1, 245315, Control_c, 0, 64, 0
1, 245397, Control_c, 0, 64, 34
1, 245412, Control_c, 0, 64, 45
1, 245426, Control_c, 0, 64, 55
1, 245441, Control_c, 0, 64, 61
1, 245456, Control_c, 0, 64, 63
1, 245470, Control_c, 0, 64, 64
1, 245485, Control_c, 0, 64, 65
1, 245500, Control_c, 0, 64, 66
1, 245515, Control_c, 0, 64, 66
1, 245530, Control_c, 0, 64, 67
1, 245544, Note_on_c, 0, 62, 43
1, 245544, Control_c, 0, 64, 67
1, 245576, Note_off_c, 0, 54, 52
1, 245587, Note_off_c, 0, 45, 38
1, 245589, Control_c, 0, 64, 67
1, 245604, Control_c, 0, 64, 64
1, 245619, Control_c, 0, 64, 60
1, 245633, Control_c, 0, 64, 54
1, 245640, Note_on_c, 0, 72, 68
1, 245648, Control_c, 0, 64, 50
1, 245649, Note_off_c, 0, 74, 49
1, 245663, Control_c, 0, 64, 51
1, 245678, Control_c, 0, 64, 54
1, 245693, Control_c, 0, 64, 57
1, 245708, Control_c, 0, 64, 60
1, 245720, Note_on_c, 0, 50, 42
1, 245723, Control_c, 0, 64, 63
1, 245733, Note_off_c, 0, 62, 48
1, 245738, Control_c, 0, 64, 65
1, 245752, Control_c, 0, 64, 68
1, 245767, Control_c, 0, 64, 71
1, 245776, Note_off_c, 0, 50, 60
1, 245782, Control_c, 0, 64, 76
1, 245796, Control_c, 0, 64, 84
1, 245811, Control_c, 0, 64, 95
1, 245826, Control_c, 0, 64, 118
1, 245829, Note_off_c, 0, 72, 37
1, 245841, Control_c, 0, 64, 127
1, 246053, Note_on_c, 0, 52, 40
1, 246053, Note_on_c, 0, 70, 69
1, 246064, Control_c, 0, 64, 102
1, 246066, Note_on_c, 0, 43, 34
1, 246079, Control_c, 0, 64, 84
1, 246093, Control_c, 0, 64, 70
1, 246116, Control_c, 0, 64, 56
1, 246131, Control_c, 0, 64, 29
1, 246146, Control_c, 0, 64, 0
1, 246190, Control_c, 0, 64, 29
1, 246205, Control_c, 0, 64, 38
1, 246219, Control_c, 0, 64, 47
1, 246234, Control_c, 0, 64, 56
1, 246249, Control_c, 0, 64, 63
1, 246264, Control_c, 0, 64, 65
1, 246279, Control_c, 0, 64, 67
1, 246293, Control_c, 0, 64, 69
1, 246308, Control_c, 0, 64, 73
1, 246319, Note_off_c, 0, 43, 41
1, 246323, Control_c, 0, 64, 78
1, 246337, Note_on_c, 0, 74, 46
1, 246338, Control_c, 0, 64, 83
1, 246353, Control_c, 0, 64, 90
1, 246367, Control_c, 0, 64, 93
1, 246382, Control_c, 0, 64, 98
1, 246397, Control_c, 0, 64, 106
1, 246412, Control_c, 0, 64, 127
1, 246432, Note_off_c, 0, 74, 42
1, 246484, Note_on_c, 0, 69, 64
1, 246489, Note_on_c, 0, 58, 46
1, 246501, Note_off_c, 0, 52, 40
1, 246522, Note_off_c, 0, 58, 65
1, 246605, Note_off_c, 0, 70, 35
1, 246653, Note_on_c, 0, 74, 54
1, 246797, Control_c, 0, 64, 94
1, 246812, Control_c, 0, 64, 78
1, 246823, Note_on_c, 0, 38, 40
1, 246827, Note_on_c, 0, 67, 53
1, 246827, Control_c, 0, 64, 66
1, 246841, Control_c, 0, 64, 54
1, 246845, Note_off_c, 0, 74, 37
1, 246853, Note_on_c, 0, 45, 28
1, 246864, Control_c, 0, 64, 48
1, 246879, Control_c, 0, 64, 48
1, 246894, Control_c, 0, 64, 49
1, 246897, Note_off_c, 0, 69, 56
1, 246909, Control_c, 0, 64, 50
1, 246923, Control_c, 0, 64, 53
1, 246938, Control_c, 0, 64, 57
1, 246953, Control_c, 0, 64, 60
1, 246968, Control_c, 0, 64, 63
1, 246983, Control_c, 0, 64, 66
1, 246997, Control_c, 0, 64, 70
1, 247009, Note_on_c, 0, 74, 51
1, 247012, Control_c, 0, 64, 76
1, 247027, Control_c, 0, 64, 83
1, 247041, Control_c, 0, 64, 92
1, 247052, Note_off_c, 0, 45, 40
1, 247056, Control_c, 0, 64, 101
1, 247065, Note_off_c, 0, 38, 39
1, 247071, Control_c, 0, 64, 108
1, 247086, Control_c, 0, 64, 114
1, 247101, Control_c, 0, 64, 119
1, 247130, Control_c, 0, 64, 122
1, 247141, Note_on_c, 0, 50, 41
1, 247155, Note_off_c, 0, 74, 55
1, 247168, Note_on_c, 0, 66, 47
1, 247198, Note_off_c, 0, 67, 35
1, 247204, Note_off_c, 0, 50, 50
1, 247293, Note_on_c, 0, 74, 51
1, 247309, Note_on_c, 0, 54, 36
1, 247455, Note_on_c, 0, 57, 45
1, 247456, Note_on_c, 0, 64, 49
1, 247479, Note_off_c, 0, 66, 55
1, 247485, Note_off_c, 0, 74, 42
1, 247491, Note_off_c, 0, 54, 41
1, 247516, Note_off_c, 0, 57, 57
1, 247532, Control_c, 0, 64, 120
1, 247600, Note_on_c, 0, 74, 52
1, 247601, Note_off_c, 0, 64, 54
1, 247628, Control_c, 0, 67, 19
1, 247643, Control_c, 0, 67, 21
1, 247658, Control_c, 0, 67, 25
1, 247672, Control_c, 0, 67, 30
1, 247687, Control_c, 0, 67, 40
1, 247702, Control_c, 0, 67, 49
1, 247717, Control_c, 0, 67, 57
1, 247732, Control_c, 0, 67, 60
1, 247762, Control_c, 0, 67, 58
1, 247772, Note_on_c, 0, 62, 48
1, 247777, Control_c, 0, 67, 56
1, 247780, Note_off_c, 0, 74, 29
1, 247791, Control_c, 0, 67, 54
1, 247862, Note_off_c, 0, 62, 45
1, 247905, Note_on_c, 0, 74, 54
1, 247910, Control_c, 0, 64, 118
1, 247918, Note_on_c, 0, 43, 39
1, 247939, Control_c, 0, 64, 113
1, 247950, Note_off_c, 0, 74, 59
1, 247954, Control_c, 0, 64, 109
1, 247969, Control_c, 0, 64, 105
1, 247983, Control_c, 0, 64, 101
1, 247997, Note_on_c, 0, 52, 43
1, 247998, Control_c, 0, 64, 98
1, 248013, Control_c, 0, 64, 95
1, 248028, Control_c, 0, 64, 91
1, 248043, Control_c, 0, 64, 86
1, 248057, Control_c, 0, 64, 79
1, 248072, Control_c, 0, 64, 73
1, 248087, Control_c, 0, 64, 67
1, 248102, Control_c, 0, 64, 63
1, 248117, Control_c, 0, 64, 57
1, 248131, Control_c, 0, 64, 51
1, 248146, Control_c, 0, 64, 43
1, 248161, Control_c, 0, 64, 33
1, 248176, Control_c, 0, 64, 0
1, 248205, Note_on_c, 0, 70, 48
1, 248221, Note_on_c, 0, 58, 34
1, 248251, Control_c, 0, 67, 55
1, 248265, Control_c, 0, 67, 57
1, 248280, Control_c, 0, 67, 58
1, 248295, Control_c, 0, 67, 60
1, 248310, Control_c, 0, 67, 62
1, 248325, Control_c, 0, 67, 67
1, 248340, Control_c, 0, 67, 74
1, 248355, Control_c, 0, 67, 83
1, 248377, Control_c, 0, 67, 92
1, 248392, Control_c, 0, 67, 100
1, 248407, Control_c, 0, 67, 103
1, 248436, Control_c, 0, 64, 34
1, 248451, Control_c, 0, 64, 46
1, 248466, Control_c, 0, 64, 57
1, 248466, Control_c, 0, 67, 101
1, 248474, Note_on_c, 0, 74, 41
1, 248481, Control_c, 0, 64, 63
1, 248495, Control_c, 0, 64, 66
1, 248510, Control_c, 0, 64, 69
1, 248510, Control_c, 0, 67, 99
1, 248525, Control_c, 0, 64, 73
1, 248540, Control_c, 0, 64, 78
1, 248555, Control_c, 0, 64, 82
1, 248570, Control_c, 0, 64, 87
1, 248570, Control_c, 0, 67, 97
1, 248585, Control_c, 0, 64, 92
1, 248599, Control_c, 0, 64, 96
1, 248610, Note_off_c, 0, 58, 57
1, 248614, Control_c, 0, 64, 99
1, 248625, Note_off_c, 0, 74, 35
1, 248629, Control_c, 0, 67, 96
1, 248638, Note_off_c, 0, 52, 53
1, 248644, Control_c, 0, 64, 101
1, 248644, Note_on_c, 0, 69, 49
1, 248674, Control_c, 0, 64, 103
1, 248674, Control_c, 0, 67, 95
1, 248718, Note_off_c, 0, 70, 38
1, 248742, Note_off_c, 0, 43, 41
1, 248792, Control_c, 0, 67, 95
1, 248805, Note_on_c, 0, 74, 43
1, 248851, Control_c, 0, 67, 94
1, 248895, Control_c, 0, 64, 101
1, 248910, Control_c, 0, 64, 94
1, 248925, Control_c, 0, 64, 84
1, 248925, Control_c, 0, 67, 94
1, 248939, Control_c, 0, 64, 75
1, 248939, Control_c, 0, 67, 93
1, 248954, Control_c, 0, 64, 69
1, 248954, Control_c, 0, 67, 92
1, 248965, Note_on_c, 0, 38, 41
1, 248969, Control_c, 0, 64, 66
1, 248969, Control_c, 0, 67, 90
1, 248976, Note_on_c, 0, 67, 42
1, 248978, Note_off_c, 0, 74, 45
1, 248984, Control_c, 0, 64, 66
1, 248984, Control_c, 0, 67, 88
1, 248999, Control_c, 0, 64, 66
1, 248999, Control_c, 0, 67, 85
1, 249014, Control_c, 0, 64, 68
1, 249014, Control_c, 0, 67, 80
1, 249020, Note_off_c, 0, 69, 41
1, 249029, Control_c, 0, 64, 71
1, 249029, Control_c, 0, 67, 75
1, 249044, Control_c, 0, 64, 74
1, 249044, Control_c, 0, 67, 70
1, 249058, Control_c, 0, 64, 77
1, 249058, Control_c, 0, 67, 64
1, 249073, Control_c, 0, 64, 79
1, 249073, Control_c, 0, 67, 59
1, 249089, Control_c, 0, 64, 81
1, 249089, Control_c, 0, 67, 53
1, 249104, Control_c, 0, 64, 83
1, 249104, Control_c, 0, 67, 48
1, 249126, Control_c, 0, 64, 85
1, 249126, Control_c, 0, 67, 43
1, 249141, Control_c, 0, 64, 87
1, 249141, Control_c, 0, 67, 37
1, 249150, Note_on_c, 0, 45, 40
1, 249152, Note_on_c, 0, 74, 44
1, 249156, Control_c, 0, 64, 88
1, 249156, Control_c, 0, 67, 31
1, 249170, Control_c, 0, 64, 90
1, 249170, Control_c, 0, 67, 24
1, 249185, Control_c, 0, 64, 92
1, 249185, Control_c, 0, 67, 0
1, 249200, Control_c, 0, 64, 95
1, 249230, Control_c, 0, 64, 97
1, 249240, Note_off_c, 0, 38, 39
1, 249270, Note_off_c, 0, 45, 35
1, 249274, Control_c, 0, 64, 99
1, 249305, Note_on_c, 0, 50, 44
1, 249306, Note_on_c, 0, 66, 53
1, 249309, Note_off_c, 0, 67, 23
1, 249315, Note_off_c, 0, 74, 43
1, 249318, Control_c, 0, 64, 101
1, 249415, Note_off_c, 0, 50, 42
1, 249437, Control_c, 0, 64, 103
1, 249442, Note_on_c, 0, 74, 57
1, 249461, Note_on_c, 0, 54, 46
1, 249604, Note_off_c, 0, 54, 55
1, 249605, Note_on_c, 0, 57, 53
1, 249607, Note_on_c, 0, 64, 55
1, 249633, Note_off_c, 0, 74, 37
1, 249648, Note_off_c, 0, 57, 60
1, 249649, Note_off_c, 0, 66, 50
1, 249743, Note_on_c, 0, 74, 65
1, 249747, Note_off_c, 0, 64, 61
1, 249792, Control_c, 0, 64, 106
1, 249822, Control_c, 0, 64, 108
1, 249890, Control_c, 0, 64, 110
1, 249893, Note_on_c, 0, 62, 58
1, 249932, Note_off_c, 0, 74, 40
1, 249989, Note_on_c, 0, 43, 53
1, 250012, Note_off_c, 0, 62, 57
1, 250015, Note_on_c, 0, 74, 61
1, 250059, Note_off_c, 0, 74, 56
1, 250061, Note_on_c, 0, 50, 54
1, 250112, Control_c, 0, 64, 103
1, 250127, Control_c, 0, 64, 91
1, 250141, Control_c, 0, 64, 76
1, 250156, Control_c, 0, 64, 65
1, 250171, Control_c, 0, 64, 55
1, 250179, Note_on_c, 0, 58, 57
1, 250184, Note_on_c, 0, 70, 71
1, 250185, Control_c, 0, 64, 44
1, 250200, Control_c, 0, 64, 41
1, 250215, Control_c, 0, 64, 46
1, 250230, Control_c, 0, 64, 55
1, 250245, Control_c, 0, 64, 61
1, 250260, Control_c, 0, 64, 65
1, 250275, Control_c, 0, 64, 69
1, 250290, Control_c, 0, 64, 75
1, 250304, Control_c, 0, 64, 82
1, 250319, Control_c, 0, 64, 88
1, 250334, Control_c, 0, 64, 97
1, 250349, Control_c, 0, 64, 108
1, 250355, Note_off_c, 0, 58, 60
1, 250364, Control_c, 0, 64, 127
1, 250385, Note_on_c, 0, 76, 68
1, 250392, Note_off_c, 0, 43, 32
1, 250428, Note_off_c, 0, 50, 54
1, 250532, Note_on_c, 0, 69, 70
1, 250570, Note_off_c, 0, 76, 56
1, 250692, Note_on_c, 0, 76, 70
1, 250743, Note_off_c, 0, 69, 59
1, 250791, Note_off_c, 0, 70, 16
1, 250847, Control_c, 0, 64, 97
1, 250859, Note_on_c, 0, 34, 51
1, 250862, Control_c, 0, 64, 78
1, 250863, Note_on_c, 0, 67, 72
1, 250877, Control_c, 0, 64, 64
1, 250890, Note_off_c, 0, 76, 49
1, 250891, Control_c, 0, 64, 53
1, 250906, Control_c, 0, 64, 44
1, 250921, Control_c, 0, 64, 41
1, 250936, Control_c, 0, 64, 44
1, 250951, Control_c, 0, 64, 49
1, 250965, Control_c, 0, 64, 56
1, 250980, Control_c, 0, 64, 61
1, 250995, Control_c, 0, 64, 66
1, 251009, Control_c, 0, 64, 71
1, 251024, Control_c, 0, 64, 80
1, 251039, Control_c, 0, 64, 88
1, 251044, Note_on_c, 0, 42, 57
1, 251054, Control_c, 0, 64, 96
1, 251060, Note_on_c, 0, 76, 63
1, 251069, Control_c, 0, 64, 105
1, 251083, Control_c, 0, 64, 127
1, 251091, Note_off_c, 0, 34, 35
1, 251176, Note_off_c, 0, 42, 61
1, 251188, Note_on_c, 0, 49, 53
1, 251193, Note_on_c, 0, 66, 73
1, 251235, Note_off_c, 0, 76, 58
1, 251238, Note_off_c, 0, 49, 60
1, 251284, Note_off_c, 0, 67, 39
1, 251339, Note_on_c, 0, 54, 57
1, 251341, Note_on_c, 0, 76, 71
1, 251484, Note_on_c, 0, 64, 72
1, 251490, Note_on_c, 0, 61, 64
1, 251518, Note_off_c, 0, 76, 48
1, 251527, Note_off_c, 0, 66, 58
1, 251536, Note_off_c, 0, 54, 58
1, 251536, Note_off_c, 0, 61, 51
1, 251634, Note_on_c, 0, 76, 70
1, 251788, Note_on_c, 0, 66, 74
1, 251829, Note_off_c, 0, 76, 56
1, 251834, Note_off_c, 0, 64, 57
1, 251949, Note_on_c, 0, 76, 70
1, 251974, Note_off_c, 0, 66, 61
1, 251976, Note_on_c, 0, 48, 49
1, 252052, Note_on_c, 0, 58, 51
1, 252084, Control_c, 0, 64, 107
1, 252099, Control_c, 0, 64, 81
1, 252117, Note_on_c, 0, 67, 66
1, 252120, Control_c, 0, 64, 64
1, 252122, Note_off_c, 0, 76, 50
1, 252126, Note_on_c, 0, 64, 54
1, 252135, Control_c, 0, 64, 42
1, 252150, Control_c, 0, 64, 0
1, 252209, Control_c, 0, 64, 37
1, 252224, Control_c, 0, 64, 49
1, 252239, Control_c, 0, 64, 60
1, 252254, Control_c, 0, 64, 65
1, 252269, Control_c, 0, 64, 68
1, 252284, Note_on_c, 0, 76, 56
1, 252284, Control_c, 0, 64, 71
1, 252285, Note_off_c, 0, 67, 55
1, 252299, Control_c, 0, 64, 73
1, 252314, Control_c, 0, 64, 75
1, 252326, Note_off_c, 0, 76, 61
1, 252329, Control_c, 0, 64, 78
1, 252343, Control_c, 0, 64, 79
1, 252358, Control_c, 0, 64, 80
1, 252373, Control_c, 0, 64, 80
1, 252433, Control_c, 0, 64, 79
1, 252448, Control_c, 0, 64, 73
1, 252462, Control_c, 0, 64, 65
1, 252477, Control_c, 0, 64, 55
1, 252478, Note_on_c, 0, 70, 56
1, 252492, Control_c, 0, 64, 41
1, 252507, Control_c, 0, 64, 0
1, 252519, Note_on_c, 0, 69, 63
1, 252536, Control_c, 0, 64, 30
1, 252551, Control_c, 0, 64, 37
1, 252566, Control_c, 0, 64, 45
1, 252570, Note_off_c, 0, 64, 59
1, 252580, Control_c, 0, 64, 50
1, 252595, Control_c, 0, 64, 54
1, 252610, Control_c, 0, 64, 58
1, 252612, Note_off_c, 0, 70, 39
1, 252624, Note_off_c, 0, 58, 59
1, 252625, Control_c, 0, 64, 61
1, 252640, Control_c, 0, 64, 64
1, 252654, Control_c, 0, 64, 68
1, 252669, Control_c, 0, 64, 73
1, 252675, Note_off_c, 0, 48, 62
1, 252684, Control_c, 0, 64, 79
1, 252698, Control_c, 0, 64, 88
1, 252713, Control_c, 0, 64, 100
1, 252728, Control_c, 0, 64, 127
1, 252870, Control_c, 0, 64, 113
1, 252885, Control_c, 0, 64, 91
1, 252886, Note_on_c, 0, 67, 66
1, 252886, Note_on_c, 0, 37, 58
1, 252900, Control_c, 0, 64, 76
1, 252914, Control_c, 0, 64, 64
1, 252929, Control_c, 0, 64, 56
1, 252944, Control_c, 0, 64, 55
1, 252959, Control_c, 0, 64, 58
1, 252974, Control_c, 0, 64, 60
1, 252988, Control_c, 0, 64, 62
1, 253003, Control_c, 0, 64, 63
1, 253008, Note_off_c, 0, 69, 55
1, 253018, Control_c, 0, 64, 65
1, 253033, Control_c, 0, 64, 68
1, 253048, Control_c, 0, 64, 71
1, 253062, Control_c, 0, 64, 73
1, 253077, Control_c, 0, 64, 75
1, 253093, Control_c, 0, 64, 77
1, 253094, Note_on_c, 0, 42, 50
1, 253094, Note_on_c, 0, 76, 58
1, 253108, Control_c, 0, 64, 80
1, 253123, Control_c, 0, 64, 85
1, 253137, Control_c, 0, 64, 89
1, 253152, Control_c, 0, 64, 93
1, 253167, Control_c, 0, 64, 97
1, 253182, Control_c, 0, 64, 100
1, 253211, Control_c, 0, 64, 103
1, 253226, Control_c, 0, 64, 105
1, 253229, Note_on_c, 0, 66, 70
1, 253234, Note_on_c, 0, 46, 53
1, 253241, Control_c, 0, 64, 108
1, 253256, Control_c, 0, 64, 111
1, 253271, Control_c, 0, 64, 114
1, 253277, Note_off_c, 0, 67, 54
1, 253283, Note_off_c, 0, 76, 49
1, 253288, Note_off_c, 0, 37, 34
1, 253300, Note_off_c, 0, 42, 48
1, 253300, Control_c, 0, 64, 116
1, 253315, Control_c, 0, 64, 118
1, 253330, Control_c, 0, 64, 125
1, 253345, Control_c, 0, 64, 127
1, 253355, Note_off_c, 0, 46, 60
1, 253373, Note_on_c, 0, 52, 55
1, 253373, Note_on_c, 0, 76, 70
1, 253446, Note_off_c, 0, 52, 58
1, 253509, Note_on_c, 0, 55, 65
1, 253517, Note_on_c, 0, 64, 77
1, 253539, Note_off_c, 0, 55, 67
1, 253549, Note_off_c, 0, 76, 49
1, 253563, Note_off_c, 0, 66, 32
1, 253664, Note_on_c, 0, 76, 75
1, 253801, Note_on_c, 0, 36, 75
1, 253811, Control_c, 0, 64, 95
1, 253814, Note_on_c, 0, 67, 81
1, 253826, Control_c, 0, 64, 73
1, 253841, Control_c, 0, 64, 59
1, 253849, Note_off_c, 0, 76, 56
1, 253855, Control_c, 0, 64, 42
1, 253870, Control_c, 0, 64, 30
1, 253887, Control_c, 0, 64, 34
1, 253899, Note_off_c, 0, 64, 53
1, 253902, Control_c, 0, 64, 47
1, 253916, Control_c, 0, 64, 58
1, 253931, Control_c, 0, 64, 67
1, 253946, Control_c, 0, 64, 74
1, 253958, Note_on_c, 0, 42, 61
1, 253960, Note_on_c, 0, 76, 78
1, 253960, Control_c, 0, 64, 83
1, 253975, Control_c, 0, 64, 91
1, 253990, Control_c, 0, 64, 100
1, 254005, Control_c, 0, 64, 113
1, 254020, Control_c, 0, 64, 127
1, 254053, Note_off_c, 0, 36, 52
1, 254147, Note_on_c, 0, 52, 64
1, 254151, Note_on_c, 0, 74, 86
1, 254175, Note_off_c, 0, 52, 64
1, 254189, Note_off_c, 0, 67, 61
1, 254195, Note_off_c, 0, 42, 62
1, 254220, Note_off_c, 0, 76, 61
1, 254368, Note_on_c, 0, 76, 78
1, 254436, Note_off_c, 0, 74, 51
1, 254539, Note_on_c, 0, 31, 81
1, 254546, Control_c, 0, 64, 98
1, 254547, Note_on_c, 0, 73, 84
1, 254560, Control_c, 0, 64, 67
1, 254570, Note_off_c, 0, 76, 58
1, 254575, Control_c, 0, 64, 32
1, 254590, Control_c, 0, 64, 0
1, 254634, Control_c, 0, 64, 41
1, 254649, Control_c, 0, 64, 59
1, 254664, Control_c, 0, 64, 70
1, 254680, Control_c, 0, 64, 84
1, 254695, Control_c, 0, 64, 114
1, 254704, Note_on_c, 0, 40, 66
1, 254709, Control_c, 0, 64, 127
1, 254726, Note_on_c, 0, 76, 85
1, 254749, Note_off_c, 0, 31, 60
1, 254784, Note_off_c, 0, 73, 57
1, 254842, Note_off_c, 0, 40, 61
1, 254860, Note_on_c, 0, 46, 70
1, 254871, Note_on_c, 0, 72, 84
1, 254894, Note_off_c, 0, 46, 65
1, 254921, Note_off_c, 0, 76, 61
1, 254996, Note_on_c, 0, 76, 80
1, 254999, Note_on_c, 0, 47, 68
1, 255061, Note_off_c, 0, 72, 55
1, 255148, Note_on_c, 0, 52, 76
1, 255152, Note_on_c, 0, 71, 84
1, 255176, Note_off_c, 0, 76, 54
1, 255275, Note_on_c, 0, 55, 68
1, 255279, Note_on_c, 0, 76, 85
1, 255292, Note_off_c, 0, 71, 64
1, 255343, Note_off_c, 0, 76, 61
1, 255351, Note_off_c, 0, 47, 38
1, 255369, Note_off_c, 0, 52, 38
1, 255422, Note_off_c, 0, 55, 62
1, 255423, Note_on_c, 0, 75, 83
1, 255425, Note_on_c, 0, 59, 61
1, 255473, Note_off_c, 0, 59, 61
1, 255569, Note_on_c, 0, 71, 81
1, 255637, Note_off_c, 0, 75, 61
1, 255735, Note_on_c, 0, 47, 89
1, 255739, Note_on_c, 0, 76, 87
1, 255754, Control_c, 0, 64, 73
1, 255769, Note_off_c, 0, 71, 62
1, 255769, Control_c, 0, 64, 30
1, 255784, Control_c, 0, 64, 0
1, 255866, Control_c, 0, 64, 44
1, 255880, Control_c, 0, 64, 66
1, 255895, Control_c, 0, 64, 77
1, 255910, Control_c, 0, 64, 93
1, 255925, Note_on_c, 0, 55, 67
1, 255925, Control_c, 0, 64, 112
1, 255926, Note_on_c, 0, 71, 84
1, 255939, Control_c, 0, 64, 127
1, 256004, Note_off_c, 0, 47, 61
1, 256123, Note_on_c, 0, 63, 74
1, 256133, Note_on_c, 0, 79, 91
1, 256173, Note_off_c, 0, 63, 60
1, 256174, Note_off_c, 0, 76, 59
1, 256192, Note_off_c, 0, 55, 61
1, 256198, Note_off_c, 0, 71, 55
1, 256388, Note_on_c, 0, 71, 85
1, 256457, Note_off_c, 0, 79, 55
1, 256473, Note_off_c, 0, 71, 59
1, 256788, Note_on_c, 0, 83, 92
1, 256791, Note_on_c, 0, 28, 73
1, 256821, Control_c, 0, 64, 85
1, 256836, Control_c, 0, 64, 66
1, 256851, Control_c, 0, 64, 48
1, 256865, Control_c, 0, 64, 0
1, 256940, Control_c, 0, 64, 32
1, 256954, Control_c, 0, 64, 36
1, 256969, Control_c, 0, 64, 42
1, 256984, Control_c, 0, 64, 51
1, 256999, Control_c, 0, 64, 58
1, 257014, Control_c, 0, 64, 63
1, 257028, Control_c, 0, 64, 66
1, 257043, Control_c, 0, 64, 69
1, 257058, Control_c, 0, 64, 71
1, 257074, Control_c, 0, 64, 73
1, 257089, Control_c, 0, 64, 75
1, 257103, Control_c, 0, 64, 78
1, 257118, Control_c, 0, 64, 81
1, 257133, Control_c, 0, 64, 84
1, 257148, Control_c, 0, 64, 88
1, 257163, Control_c, 0, 64, 92
1, 257177, Control_c, 0, 64, 96
1, 257192, Control_c, 0, 64, 98
1, 257207, Control_c, 0, 64, 100
1, 257213, Note_on_c, 0, 78, 79
1, 257236, Control_c, 0, 64, 104
1, 257250, Control_c, 0, 64, 108
1, 257265, Control_c, 0, 64, 113
1, 257280, Control_c, 0, 64, 117
1, 257295, Control_c, 0, 64, 120
1, 257310, Control_c, 0, 64, 127
1, 257569, Note_on_c, 0, 82, 77
1, 257617, Note_off_c, 0, 78, 52
1, 257755, Note_off_c, 0, 82, 55
1, 257822, Note_on_c, 0, 77, 63
1, 258032, Note_on_c, 0, 81, 68
1, 258061, Note_off_c, 0, 77, 61
1, 258171, Note_off_c, 0, 81, 49
1, 258222, Note_on_c, 0, 76, 62
1, 258403, Note_on_c, 0, 80, 52
1, 258429, Note_off_c, 0, 76, 37
1, 258586, Note_on_c, 0, 75, 50
1, 258654, Note_off_c, 0, 80, 34
1, 258788, Note_on_c, 0, 79, 52
1, 258798, Note_off_c, 0, 75, 48
1, 258986, Note_on_c, 0, 74, 43
1, 259156, Control_c, 0, 67, 20
1, 259171, Control_c, 0, 67, 24
1, 259186, Control_c, 0, 67, 27
1, 259201, Control_c, 0, 67, 32
1, 259215, Control_c, 0, 67, 38
1, 259226, Note_off_c, 0, 74, 35
1, 259230, Note_on_c, 0, 78, 46
1, 259230, Control_c, 0, 67, 48
1, 259245, Control_c, 0, 67, 63
1, 259260, Control_c, 0, 67, 81
1, 259273, Note_off_c, 0, 83, 54
1, 259274, Control_c, 0, 67, 99
1, 259289, Control_c, 0, 67, 116
1, 259304, Control_c, 0, 67, 127
1, 259312, Note_off_c, 0, 79, 39
1, 259477, Note_on_c, 0, 73, 46
1, 259501, Note_off_c, 0, 28, 57
1, 259512, Note_off_c, 0, 78, 37
1, 259699, Note_on_c, 0, 77, 43
1, 259748, Note_off_c, 0, 73, 42
1, 259800, Note_off_c, 0, 77, 49
1, 259920, Note_on_c, 0, 82, 52
1, 259934, Note_on_c, 0, 72, 38
1, 260054, Note_off_c, 0, 72, 35
1, 260065, Note_off_c, 0, 82, 35
1, 260220, Note_on_c, 0, 81, 58
1, 260329, Poly_aftertouch_c, 0, 76, 0
1, 260457, Note_on_c, 0, 74, 38
1, 260514, Note_off_c, 0, 81, 37
1, 260614, Note_on_c, 0, 78, 50
1, 260617, Note_off_c, 0, 74, 41
1, 260737, Note_off_c, 0, 78, 36
1, 260779, Note_on_c, 0, 83, 70
1, 260796, Note_on_c, 0, 72, 41
1, 260927, Note_off_c, 0, 72, 29
1, 261000, Note_on_c, 0, 76, 50
1, 261018, Note_on_c, 0, 81, 76
1, 261104, Note_off_c, 0, 83, 53
1, 261122, Control_c, 0, 64, 111
1, 261137, Control_c, 0, 64, 99
1, 261152, Control_c, 0, 64, 87
1, 261167, Control_c, 0, 64, 77
1, 261182, Control_c, 0, 64, 70
1, 261197, Control_c, 0, 64, 66
1, 261212, Control_c, 0, 64, 66
1, 261213, Note_on_c, 0, 75, 50
1, 261226, Control_c, 0, 64, 68
1, 261241, Note_off_c, 0, 76, 29
1, 261241, Control_c, 0, 64, 72
1, 261256, Control_c, 0, 64, 75
1, 261270, Control_c, 0, 64, 78
1, 261285, Control_c, 0, 64, 81
1, 261300, Control_c, 0, 64, 83
1, 261315, Control_c, 0, 64, 84
1, 261330, Control_c, 0, 64, 84
1, 261344, Control_c, 0, 64, 85
1, 261359, Control_c, 0, 64, 85
1, 261376, Note_off_c, 0, 75, 56
1, 261378, Note_on_c, 0, 78, 52
1, 261395, Note_off_c, 0, 81, 61
1, 261497, Note_off_c, 0, 78, 33
1, 261537, Control_c, 0, 64, 85
1, 261539, Note_on_c, 0, 83, 69
1, 261551, Note_on_c, 0, 72, 47
1, 261566, Control_c, 0, 64, 84
1, 261596, Control_c, 0, 64, 84
1, 261626, Control_c, 0, 64, 83
1, 261641, Control_c, 0, 64, 83
1, 261685, Control_c, 0, 64, 82
1, 261700, Note_off_c, 0, 72, 21
1, 261715, Control_c, 0, 64, 82
1, 261729, Control_c, 0, 64, 81
1, 261747, Note_on_c, 0, 81, 75
1, 261749, Note_on_c, 0, 76, 54
1, 261758, Control_c, 0, 64, 81
1, 261773, Control_c, 0, 64, 80
1, 261787, Control_c, 0, 64, 80
1, 261802, Control_c, 0, 64, 79
1, 261817, Control_c, 0, 64, 78
1, 261832, Control_c, 0, 64, 78
1, 261855, Control_c, 0, 64, 77
1, 261861, Note_off_c, 0, 83, 56
1, 261870, Control_c, 0, 64, 76
1, 261885, Control_c, 0, 64, 75
1, 261900, Note_off_c, 0, 76, 54
1, 261900, Control_c, 0, 64, 74
1, 261915, Control_c, 0, 64, 72
1, 261921, Note_on_c, 0, 79, 73
1, 261924, Note_on_c, 0, 71, 52
1, 261930, Control_c, 0, 64, 71
1, 261945, Control_c, 0, 64, 69
1, 261957, Note_off_c, 0, 81, 62
1, 261960, Control_c, 0, 64, 67
1, 261974, Control_c, 0, 64, 64
1, 261989, Control_c, 0, 64, 58
1, 262004, Control_c, 0, 64, 42
1, 262018, Control_c, 0, 64, 0
1, 262052, Note_off_c, 0, 71, 55
1, 262074, Note_on_c, 0, 76, 53
1, 262080, Note_on_c, 0, 78, 72
1, 262092, Note_off_c, 0, 79, 58
1, 262181, Control_c, 0, 64, 38
1, 262195, Note_off_c, 0, 76, 56
1, 262196, Control_c, 0, 64, 43
1, 262210, Control_c, 0, 64, 51
1, 262225, Control_c, 0, 64, 59
1, 262240, Control_c, 0, 64, 64
1, 262242, Note_on_c, 0, 79, 76
1, 262246, Note_off_c, 0, 78, 63
1, 262250, Note_on_c, 0, 70, 50
1, 262255, Control_c, 0, 64, 67
1, 262270, Control_c, 0, 64, 71
1, 262285, Control_c, 0, 64, 78
1, 262300, Note_off_c, 0, 70, 63
1, 262300, Control_c, 0, 64, 90
1, 262315, Control_c, 0, 64, 111
1, 262321, Note_off_c, 0, 79, 62
1, 262329, Control_c, 0, 64, 127
1, 262506, Note_on_c, 0, 86, 80
1, 262762, Note_on_c, 0, 58, 41
1, 262788, Note_on_c, 0, 76, 26
1, 262932, Note_on_c, 0, 64, 40
1, 262933, Note_on_c, 0, 79, 56
1, 262938, Note_off_c, 0, 58, 55
1, 262942, Note_off_c, 0, 76, 40
1, 263025, Note_off_c, 0, 86, 54
1, 263077, Note_on_c, 0, 85, 67
1, 263089, Note_on_c, 0, 67, 47
1, 263099, Note_off_c, 0, 64, 35
1, 263115, Note_off_c, 0, 79, 56
1, 263130, Note_off_c, 0, 67, 60
1, 263173, Note_off_c, 0, 85, 61
1, 263269, Note_on_c, 0, 84, 73
1, 263427, Control_c, 0, 64, 125
1, 263441, Control_c, 0, 64, 95
1, 263452, Note_on_c, 0, 75, 49
1, 263456, Note_on_c, 0, 57, 39
1, 263456, Control_c, 0, 64, 79
1, 263472, Control_c, 0, 64, 67
1, 263487, Control_c, 0, 64, 59
1, 263502, Control_c, 0, 64, 51
1, 263532, Control_c, 0, 64, 54
1, 263546, Control_c, 0, 64, 59
1, 263561, Control_c, 0, 64, 64
1, 263576, Control_c, 0, 64, 67
1, 263591, Control_c, 0, 64, 70
1, 263594, Note_off_c, 0, 57, 57
1, 263606, Control_c, 0, 64, 73
1, 263620, Control_c, 0, 64, 75
1, 263621, Note_on_c, 0, 78, 59
1, 263625, Note_on_c, 0, 63, 37
1, 263635, Control_c, 0, 64, 76
1, 263650, Control_c, 0, 64, 77
1, 263665, Control_c, 0, 64, 78
1, 263665, Note_off_c, 0, 84, 57
1, 263680, Control_c, 0, 64, 79
1, 263681, Note_off_c, 0, 75, 36
1, 263695, Control_c, 0, 64, 80
1, 263710, Control_c, 0, 64, 81
1, 263748, Note_off_c, 0, 63, 58
1, 263788, Note_on_c, 0, 83, 68
1, 263802, Note_off_c, 0, 78, 58
1, 263803, Note_on_c, 0, 66, 33
1, 263833, Note_off_c, 0, 83, 55
1, 263837, Note_off_c, 0, 66, 42
1, 263984, Note_on_c, 0, 81, 60
1, 264102, Control_c, 0, 64, 80
1, 264117, Control_c, 0, 64, 78
1, 264132, Control_c, 0, 64, 71
1, 264146, Control_c, 0, 64, 62
1, 264148, Note_off_c, 0, 81, 54
1, 264161, Control_c, 0, 64, 49
1, 264176, Note_on_c, 0, 79, 58
1, 264176, Control_c, 0, 64, 30
1, 264180, Note_on_c, 0, 39, 45
1, 264190, Control_c, 0, 64, 0
1, 264198, Note_on_c, 0, 70, 32
1, 264235, Control_c, 0, 64, 40
1, 264250, Control_c, 0, 64, 52
1, 264266, Control_c, 0, 64, 60
1, 264281, Control_c, 0, 64, 65
1, 264295, Control_c, 0, 64, 68
1, 264310, Control_c, 0, 64, 70
1, 264325, Control_c, 0, 64, 72
1, 264340, Control_c, 0, 64, 73
1, 264348, Note_off_c, 0, 79, 39
1, 264355, Control_c, 0, 64, 75
1, 264369, Control_c, 0, 64, 76
1, 264382, Note_off_c, 0, 70, 41
1, 264384, Control_c, 0, 64, 79
1, 264386, Note_on_c, 0, 78, 56
1, 264397, Note_on_c, 0, 49, 40
1, 264399, Control_c, 0, 64, 82
1, 264413, Control_c, 0, 64, 85
1, 264428, Control_c, 0, 64, 87
1, 264437, Note_off_c, 0, 39, 34
1, 264443, Control_c, 0, 64, 88
1, 264458, Control_c, 0, 64, 89
1, 264488, Control_c, 0, 64, 90
1, 264503, Control_c, 0, 64, 90
1, 264517, Control_c, 0, 64, 91
1, 264532, Control_c, 0, 64, 92
1, 264547, Control_c, 0, 64, 93
1, 264549, Note_off_c, 0, 78, 38
1, 264562, Control_c, 0, 64, 93
1, 264577, Control_c, 0, 64, 94
1, 264592, Control_c, 0, 64, 94
1, 264593, Note_on_c, 0, 79, 57
1, 264598, Note_on_c, 0, 55, 45
1, 264606, Control_c, 0, 64, 95
1, 264609, Note_off_c, 0, 49, 37
1, 264623, Note_off_c, 0, 55, 58
1, 264624, Note_off_c, 0, 79, 67
1, 264636, Control_c, 0, 64, 95
1, 264651, Control_c, 0, 64, 96
1, 264799, Control_c, 0, 67, 114
1, 264813, Control_c, 0, 64, 95
1, 264813, Control_c, 0, 67, 100
1, 264836, Control_c, 0, 64, 94
1, 264836, Control_c, 0, 67, 87
1, 264851, Control_c, 0, 64, 93
1, 264851, Control_c, 0, 67, 74
1, 264866, Control_c, 0, 64, 90
1, 264866, Control_c, 0, 67, 63
1, 264881, Control_c, 0, 64, 85
1, 264881, Control_c, 0, 67, 52
1, 264895, Control_c, 0, 64, 75
1, 264895, Control_c, 0, 67, 43
1, 264910, Control_c, 0, 64, 62
1, 264910, Control_c, 0, 67, 31
1, 264925, Control_c, 0, 64, 31
1, 264925, Control_c, 0, 67, 20
1, 264927, Note_on_c, 0, 81, 57
1, 264929, Note_on_c, 0, 38, 42
1, 264939, Control_c, 0, 64, 0
1, 264939, Control_c, 0, 67, 0
1, 264999, Control_c, 0, 64, 44
1, 265013, Control_c, 0, 64, 61
1, 265028, Control_c, 0, 64, 71
1, 265043, Control_c, 0, 64, 85
1, 265059, Control_c, 0, 64, 127
1, 265072, Note_off_c, 0, 38, 62
1, 265211, Note_on_c, 0, 74, 25
1, 265222, Control_c, 0, 67, 19
1, 265251, Control_c, 0, 67, 22
1, 265358, Note_off_c, 0, 74, 37
1, 265370, Control_c, 0, 67, 20
1, 265370, Note_on_c, 0, 78, 41
1, 265373, Note_off_c, 0, 81, 21
1, 265403, Note_off_c, 0, 78, 61
1, 265415, Control_c, 0, 67, 0
1, 265534, Note_on_c, 0, 83, 65
1, 265557, Note_on_c, 0, 72, 29
1, 265782, Note_on_c, 0, 81, 66
1, 265839, Poly_aftertouch_c, 0, 76, 127
1, 265899, Note_off_c, 0, 72, 32
1, 265924, Note_off_c, 0, 83, 52
1, 265973, Poly_aftertouch_c, 0, 76, 0
1, 265983, Note_on_c, 0, 75, 38
1, 266094, Note_off_c, 0, 81, 53
1, 266139, Note_on_c, 0, 78, 46
1, 266164, Note_off_c, 0, 75, 40
1, 266254, Note_off_c, 0, 78, 38
1, 266280, Note_on_c, 0, 83, 63
1, 266303, Note_on_c, 0, 72, 34
1, 266440, Note_off_c, 0, 72, 35
1, 266452, Control_c, 0, 67, 19
1, 266468, Note_on_c, 0, 81, 71
1, 266474, Note_on_c, 0, 76, 45
1, 266568, Note_off_c, 0, 83, 56
1, 266612, Note_off_c, 0, 76, 36
1, 266622, Note_on_c, 0, 79, 72
1, 266628, Note_on_c, 0, 71, 54
1, 266630, Control_c, 0, 67, 21
1, 266675, Note_off_c, 0, 81, 62
1, 266705, Control_c, 0, 64, 119
1, 266720, Control_c, 0, 64, 109
1, 266735, Control_c, 0, 64, 103
1, 266750, Control_c, 0, 64, 98
1, 266764, Control_c, 0, 64, 94
1, 266779, Control_c, 0, 64, 91
1, 266783, Note_off_c, 0, 71, 35
1, 266787, Note_on_c, 0, 78, 73
1, 266794, Control_c, 0, 64, 88
1, 266801, Note_on_c, 0, 74, 49
1, 266802, Note_off_c, 0, 79, 55
1, 266808, Control_c, 0, 64, 86
1, 266823, Control_c, 0, 64, 83
1, 266838, Control_c, 0, 64, 79
1, 266853, Control_c, 0, 64, 73
1, 266868, Control_c, 0, 64, 63
1, 266882, Control_c, 0, 64, 41
1, 266897, Control_c, 0, 64, 0
1, 266914, Note_off_c, 0, 74, 42
1, 266942, Note_on_c, 0, 79, 73
1, 266962, Note_on_c, 0, 70, 45
1, 266965, Note_off_c, 0, 78, 63
1, 267030, Control_c, 0, 64, 53
1, 267045, Control_c, 0, 64, 68
1, 267050, Note_off_c, 0, 70, 65
1, 267059, Note_off_c, 0, 79, 63
1, 267060, Control_c, 0, 64, 81
1, 267075, Control_c, 0, 64, 127
1, 267141, Control_c, 0, 67, 19
1, 267156, Control_c, 0, 67, 0
1, 267197, Note_on_c, 0, 86, 70
1, 267427, Note_on_c, 0, 58, 34
1, 267461, Note_on_c, 0, 76, 39
1, 267600, Note_on_c, 0, 64, 40
1, 267618, Note_off_c, 0, 76, 53
1, 267621, Note_on_c, 0, 79, 40
1, 267640, Note_off_c, 0, 58, 41
1, 267719, Note_off_c, 0, 86, 57
1, 267743, Note_on_c, 0, 85, 64
1, 267752, Note_on_c, 0, 67, 42
1, 267758, Note_off_c, 0, 64, 34
1, 267787, Note_off_c, 0, 79, 50
1, 267792, Note_off_c, 0, 67, 56
1, 267850, Note_off_c, 0, 85, 60
1, 267936, Note_on_c, 0, 84, 71
1, 268068, Control_c, 0, 64, 107
1, 268083, Control_c, 0, 64, 83
1, 268098, Control_c, 0, 64, 70
1, 268103, Note_on_c, 0, 57, 41
1, 268106, Note_on_c, 0, 75, 49
1, 268112, Control_c, 0, 64, 60
1, 268127, Control_c, 0, 64, 50
1, 268142, Control_c, 0, 64, 46
1, 268157, Control_c, 0, 64, 48
1, 268172, Control_c, 0, 64, 54
1, 268187, Control_c, 0, 64, 59
1, 268202, Control_c, 0, 64, 62
1, 268217, Control_c, 0, 64, 64
1, 268231, Control_c, 0, 64, 64
1, 268245, Note_off_c, 0, 57, 59
1, 268246, Control_c, 0, 64, 65
1, 268261, Control_c, 0, 64, 67
1, 268273, Note_on_c, 0, 63, 40
1, 268276, Control_c, 0, 64, 70
1, 268287, Note_on_c, 0, 78, 61
1, 268291, Control_c, 0, 64, 73
1, 268306, Control_c, 0, 64, 76
1, 268321, Control_c, 0, 64, 79
1, 268336, Control_c, 0, 64, 81
1, 268351, Control_c, 0, 64, 83
1, 268355, Note_off_c, 0, 84, 54
1, 268366, Control_c, 0, 64, 85
1, 268375, Note_off_c, 0, 75, 37
1, 268380, Control_c, 0, 64, 88
1, 268395, Control_c, 0, 64, 90
1, 268401, Note_off_c, 0, 63, 58
1, 268410, Control_c, 0, 64, 92
1, 268425, Control_c, 0, 64, 95
1, 268440, Control_c, 0, 64, 98
1, 268448, Note_on_c, 0, 83, 71
1, 268454, Note_on_c, 0, 66, 42
1, 268454, Control_c, 0, 64, 100
1, 268465, Note_off_c, 0, 78, 59
1, 268470, Control_c, 0, 64, 104
1, 268483, Note_off_c, 0, 66, 58
1, 268485, Control_c, 0, 64, 107
1, 268500, Control_c, 0, 64, 109
1, 268510, Note_off_c, 0, 83, 60
1, 268515, Control_c, 0, 64, 111
1, 268670, Control_c, 0, 64, 108
1, 268676, Note_on_c, 0, 81, 72
1, 268685, Control_c, 0, 64, 105
1, 268700, Control_c, 0, 64, 103
1, 268714, Control_c, 0, 64, 99
1, 268729, Control_c, 0, 64, 92
1, 268744, Control_c, 0, 64, 82
1, 268759, Control_c, 0, 64, 71
1, 268774, Control_c, 0, 64, 55
1, 268788, Control_c, 0, 64, 0
1, 268855, Note_on_c, 0, 79, 71
1, 268861, Note_on_c, 0, 43, 38
1, 268892, Control_c, 0, 64, 41
1, 268906, Control_c, 0, 64, 57
1, 268921, Control_c, 0, 64, 64
1, 268936, Control_c, 0, 64, 67
1, 268951, Control_c, 0, 64, 68
1, 268966, Control_c, 0, 64, 70
1, 268980, Control_c, 0, 64, 76
1, 268995, Control_c, 0, 64, 84
1, 269010, Control_c, 0, 64, 96
1, 269025, Control_c, 0, 64, 111
1, 269040, Note_on_c, 0, 52, 54
1, 269040, Note_on_c, 0, 78, 69
1, 269040, Control_c, 0, 64, 127
1, 269056, Note_off_c, 0, 43, 42
1, 269134, Note_off_c, 0, 81, 24
1, 269148, Poly_aftertouch_c, 0, 71, 127
1, 269150, Note_off_c, 0, 52, 51
1, 269188, Poly_aftertouch_c, 0, 71, 0
1, 269230, Note_off_c, 0, 79, 38
1, 269240, Note_on_c, 0, 76, 66
1, 269244, Note_on_c, 0, 59, 40
1, 269267, Note_off_c, 0, 78, 45
1, 269270, Note_off_c, 0, 59, 55
1, 269284, Note_off_c, 0, 76, 55
1, 269493, Control_c, 0, 64, 118
1, 269507, Control_c, 0, 64, 93
1, 269522, Control_c, 0, 64, 80
1, 269537, Control_c, 0, 64, 69
1, 269552, Control_c, 0, 64, 60
1, 269555, Note_on_c, 0, 33, 64
1, 269567, Control_c, 0, 64, 52
1, 269571, Note_on_c, 0, 76, 48
1, 269582, Control_c, 0, 64, 51
1, 269597, Control_c, 0, 64, 56
1, 269611, Control_c, 0, 64, 63
1, 269626, Control_c, 0, 64, 70
1, 269635, Note_off_c, 0, 33, 63
1, 269641, Control_c, 0, 64, 80
1, 269656, Control_c, 0, 64, 107
1, 269671, Control_c, 0, 64, 127
1, 269811, Note_on_c, 0, 69, 32
1, 269940, Note_off_c, 0, 76, 29
1, 269988, Note_on_c, 0, 73, 40
1, 269993, Note_off_c, 0, 69, 40
1, 270038, Note_off_c, 0, 73, 61
1, 270155, Note_on_c, 0, 78, 64
1, 270163, Note_on_c, 0, 67, 41
1, 270403, Note_on_c, 0, 76, 65
1, 270419, Note_on_c, 0, 71, 35
1, 270433, Note_off_c, 0, 67, 19
1, 270543, Note_off_c, 0, 78, 38
1, 270592, Note_on_c, 0, 69, 42
1, 270598, Note_off_c, 0, 71, 39
1, 270681, Note_off_c, 0, 76, 55
1, 270754, Note_on_c, 0, 73, 48
1, 270768, Note_off_c, 0, 69, 37
1, 270876, Note_off_c, 0, 73, 37
1, 270898, Note_on_c, 0, 78, 66
1, 270932, Note_on_c, 0, 67, 34
1, 271077, Note_off_c, 0, 67, 35
1, 271089, Note_on_c, 0, 76, 72
1, 271110, Note_on_c, 0, 71, 37
1, 271207, Note_off_c, 0, 78, 51
1, 271240, Note_off_c, 0, 71, 35
1, 271248, Note_on_c, 0, 74, 70
1, 271254, Note_on_c, 0, 66, 48
1, 271284, Note_off_c, 0, 76, 61
1, 271385, Note_off_c, 0, 66, 61
1, 271397, Note_on_c, 0, 73, 73
1, 271412, Note_off_c, 0, 74, 55
1, 271416, Note_on_c, 0, 69, 50
1, 271450, Control_c, 0, 64, 115
1, 271465, Control_c, 0, 64, 107
1, 271479, Control_c, 0, 64, 102
1, 271494, Control_c, 0, 64, 98
1, 271509, Control_c, 0, 64, 95
1, 271523, Control_c, 0, 64, 91
1, 271538, Control_c, 0, 64, 87
1, 271550, Note_on_c, 0, 74, 78
1, 271553, Control_c, 0, 64, 84
1, 271555, Note_on_c, 0, 62, 51
1, 271576, Control_c, 0, 64, 80
1, 271591, Control_c, 0, 64, 78
1, 271600, Note_off_c, 0, 69, 36
1, 271605, Control_c, 0, 64, 75
1, 271620, Control_c, 0, 64, 72
1, 271623, Note_off_c, 0, 73, 61
1, 271635, Control_c, 0, 64, 69
1, 271650, Control_c, 0, 64, 64
1, 271665, Control_c, 0, 64, 53
1, 271679, Control_c, 0, 64, 0
1, 271746, Note_off_c, 0, 62, 58
1, 271761, Note_on_c, 0, 66, 54
1, 271765, Note_on_c, 0, 76, 76
1, 271827, Control_c, 0, 64, 55
1, 271842, Note_off_c, 0, 74, 50
1, 271842, Control_c, 0, 64, 65
1, 271847, Note_off_c, 0, 66, 63
1, 271856, Control_c, 0, 64, 68
1, 271871, Control_c, 0, 64, 69
1, 271886, Control_c, 0, 64, 71
1, 271901, Control_c, 0, 64, 72
1, 271916, Control_c, 0, 64, 75
1, 271921, Note_on_c, 0, 57, 52
1, 271931, Control_c, 0, 64, 78
1, 271946, Control_c, 0, 64, 83
1, 271961, Control_c, 0, 64, 89
1, 271976, Control_c, 0, 64, 94
1, 271986, Note_off_c, 0, 76, 57
1, 271991, Control_c, 0, 64, 97
1, 272020, Control_c, 0, 64, 100
1, 272059, Note_off_c, 0, 57, 37
1, 272083, Note_on_c, 0, 62, 49
1, 272087, Note_on_c, 0, 67, 52
1, 272128, Note_off_c, 0, 67, 61
1, 272129, Note_off_c, 0, 62, 59
1, 272219, Note_on_c, 0, 57, 38
1, 272342, Note_off_c, 0, 57, 36
1, 272353, Control_c, 0, 64, 95
1, 272362, Note_on_c, 0, 76, 66
1, 272368, Control_c, 0, 64, 83
1, 272380, Note_on_c, 0, 59, 52
1, 272383, Note_on_c, 0, 64, 43
1, 272383, Control_c, 0, 64, 74
1, 272398, Control_c, 0, 64, 66
1, 272413, Control_c, 0, 64, 61
1, 272427, Control_c, 0, 64, 59
1, 272439, Note_off_c, 0, 64, 56
1, 272442, Control_c, 0, 64, 61
1, 272457, Control_c, 0, 64, 64
1, 272471, Control_c, 0, 64, 68
1, 272486, Control_c, 0, 64, 71
1, 272501, Control_c, 0, 64, 73
1, 272510, Note_off_c, 0, 59, 34
1, 272516, Control_c, 0, 64, 74
1, 272531, Control_c, 0, 64, 75
1, 272532, Note_on_c, 0, 57, 49
1, 272545, Control_c, 0, 64, 75
1, 272560, Control_c, 0, 64, 76
1, 272575, Control_c, 0, 64, 76
1, 272590, Control_c, 0, 64, 77
1, 272649, Control_c, 0, 64, 77
1, 272654, Note_off_c, 0, 57, 60
1, 272671, Note_on_c, 0, 61, 57
1, 272686, Note_on_c, 0, 66, 40
1, 272694, Control_c, 0, 64, 78
1, 272718, Note_off_c, 0, 76, 61
1, 272739, Note_off_c, 0, 66, 46
1, 272813, Note_on_c, 0, 54, 56
1, 272824, Note_on_c, 0, 78, 65
1, 272825, Note_off_c, 0, 61, 26
1, 272945, Control_c, 0, 64, 76
1, 272961, Control_c, 0, 64, 71
1, 272976, Control_c, 0, 64, 65
1, 272979, Note_off_c, 0, 54, 57
1, 272991, Control_c, 0, 64, 59
1, 273003, Note_on_c, 0, 76, 66
1, 273005, Control_c, 0, 64, 52
1, 273006, Note_on_c, 0, 58, 52
1, 273011, Note_on_c, 0, 64, 47
1, 273020, Control_c, 0, 64, 48
1, 273035, Control_c, 0, 64, 47
1, 273051, Control_c, 0, 64, 49
1, 273072, Note_off_c, 0, 78, 54
1, 273073, Control_c, 0, 64, 52
1, 273088, Control_c, 0, 64, 56
1, 273102, Control_c, 0, 64, 59
1, 273117, Control_c, 0, 64, 62
1, 273132, Control_c, 0, 64, 64
1, 273147, Control_c, 0, 64, 66
1, 273156, Note_off_c, 0, 64, 38
1, 273162, Control_c, 0, 64, 69
1, 273173, Note_off_c, 0, 58, 36
1, 273177, Note_on_c, 0, 55, 59
1, 273177, Control_c, 0, 64, 71
1, 273183, Note_on_c, 0, 74, 74
1, 273192, Control_c, 0, 64, 72
1, 273194, Note_off_c, 0, 76, 62
1, 273207, Control_c, 0, 64, 73
1, 273222, Control_c, 0, 64, 74
1, 273237, Control_c, 0, 64, 74
1, 273266, Control_c, 0, 64, 74
1, 273281, Control_c, 0, 64, 71
1, 273295, Control_c, 0, 64, 64
1, 273310, Control_c, 0, 64, 54
1, 273325, Control_c, 0, 64, 40
1, 273340, Control_c, 0, 64, 0
1, 273345, Note_on_c, 0, 73, 71
1, 273355, Note_off_c, 0, 74, 59
1, 273360, Note_on_c, 0, 65, 51
1, 273367, Note_on_c, 0, 59, 47
1, 273367, Note_off_c, 0, 55, 37
1, 273384, Control_c, 0, 64, 33
1, 273399, Control_c, 0, 64, 45
1, 273414, Control_c, 0, 64, 55
1, 273428, Control_c, 0, 64, 62
1, 273443, Control_c, 0, 64, 66
1, 273458, Control_c, 0, 64, 68
1, 273470, Note_off_c, 0, 59, 54
1, 273473, Control_c, 0, 64, 70
1, 273488, Control_c, 0, 64, 72
1, 273500, Note_off_c, 0, 65, 35
1, 273502, Control_c, 0, 64, 76
1, 273505, Note_on_c, 0, 53, 57
1, 273517, Control_c, 0, 64, 82
1, 273520, Note_on_c, 0, 71, 68
1, 273525, Note_off_c, 0, 73, 61
1, 273532, Control_c, 0, 64, 92
1, 273537, Note_off_c, 0, 53, 64
1, 273547, Control_c, 0, 64, 112
1, 273562, Control_c, 0, 64, 127
1, 273579, Note_off_c, 0, 71, 63
1, 273755, Control_c, 0, 64, 105
1, 273769, Control_c, 0, 64, 81
1, 273778, Note_on_c, 0, 38, 48
1, 273784, Control_c, 0, 64, 65
1, 273791, Note_on_c, 0, 73, 66
1, 273799, Control_c, 0, 64, 49
1, 273814, Control_c, 0, 64, 0
1, 273867, Control_c, 0, 64, 35
1, 273881, Control_c, 0, 64, 54
1, 273896, Control_c, 0, 64, 69
1, 273911, Control_c, 0, 64, 96
1, 273925, Control_c, 0, 64, 127
1, 273934, Note_off_c, 0, 73, 58
1, 273988, Note_off_c, 0, 38, 55
1, 274073, Note_on_c, 0, 57, 36
1, 274251, Note_on_c, 0, 66, 38
1, 274266, Note_on_c, 0, 61, 29
1, 274420, Note_on_c, 0, 54, 36
1, 274455, Note_off_c, 0, 54, 55
1, 274512, Note_off_c, 0, 57, 34
1, 274599, Control_c, 0, 64, 110
1, 274614, Note_on_c, 0, 37, 51
1, 274614, Control_c, 0, 64, 90
1, 274629, Control_c, 0, 64, 78
1, 274644, Control_c, 0, 64, 70
1, 274660, Control_c, 0, 64, 64
1, 274674, Control_c, 0, 64, 62
1, 274682, Note_off_c, 0, 61, 35
1, 274689, Control_c, 0, 64, 61
1, 274704, Control_c, 0, 64, 62
1, 274719, Control_c, 0, 64, 65
1, 274734, Control_c, 0, 64, 69
1, 274748, Control_c, 0, 64, 75
1, 274763, Control_c, 0, 64, 83
1, 274778, Control_c, 0, 64, 92
1, 274791, Note_on_c, 0, 57, 41
1, 274793, Control_c, 0, 64, 107
1, 274808, Control_c, 0, 64, 127
1, 274816, Note_off_c, 0, 37, 54
1, 274818, Note_off_c, 0, 66, 36
1, 274877, Note_off_c, 0, 57, 43
1, 274949, Note_on_c, 0, 66, 56
1, 274987, Note_on_c, 0, 61, 30
1, 275028, Note_off_c, 0, 61, 49
1, 275034, Note_off_c, 0, 66, 60
1, 275123, Note_on_c, 0, 54, 42
1, 275153, Note_off_c, 0, 54, 55
1, 275348, Control_c, 0, 64, 103
1, 275350, Note_on_c, 0, 66, 55
1, 275362, Note_on_c, 0, 33, 45
1, 275363, Control_c, 0, 64, 84
1, 275378, Control_c, 0, 64, 71
1, 275393, Control_c, 0, 64, 62
1, 275407, Control_c, 0, 64, 54
1, 275422, Control_c, 0, 64, 49
1, 275437, Control_c, 0, 64, 50
1, 275453, Control_c, 0, 64, 54
1, 275468, Control_c, 0, 64, 58
1, 275483, Control_c, 0, 64, 62
1, 275497, Control_c, 0, 64, 65
1, 275512, Control_c, 0, 64, 68
1, 275527, Control_c, 0, 64, 73
1, 275542, Control_c, 0, 64, 78
1, 275557, Control_c, 0, 64, 84
1, 275568, Note_off_c, 0, 33, 58
1, 275569, Note_on_c, 0, 54, 26
1, 275571, Control_c, 0, 64, 88
1, 275586, Control_c, 0, 64, 92
1, 275601, Control_c, 0, 64, 95
1, 275601, Control_c, 0, 67, 22
1, 275616, Control_c, 0, 64, 98
1, 275616, Control_c, 0, 67, 27
1, 275630, Control_c, 0, 64, 101
1, 275630, Control_c, 0, 67, 33
1, 275645, Control_c, 0, 64, 103
1, 275645, Control_c, 0, 67, 42
1, 275660, Control_c, 0, 67, 52
1, 275675, Control_c, 0, 64, 107
1, 275675, Control_c, 0, 67, 62
1, 275690, Control_c, 0, 67, 71
1, 275705, Control_c, 0, 67, 77
1, 275720, Control_c, 0, 64, 109
1, 275720, Control_c, 0, 67, 80
1, 275756, Note_on_c, 0, 61, 38
1, 275779, Control_c, 0, 67, 79
1, 275782, Note_on_c, 0, 57, 24
1, 275794, Control_c, 0, 67, 78
1, 275809, Control_c, 0, 67, 77
1, 275823, Control_c, 0, 67, 76
1, 275838, Control_c, 0, 67, 76
1, 275853, Control_c, 0, 67, 75
1, 275868, Control_c, 0, 67, 74
1, 275897, Control_c, 0, 67, 73
1, 275927, Control_c, 0, 67, 73
1, 275942, Control_c, 0, 67, 72
1, 275958, Note_on_c, 0, 49, 39
1, 276001, Control_c, 0, 67, 72
1, 276008, Note_off_c, 0, 49, 62
1, 276030, Control_c, 0, 67, 71
1, 276083, Control_c, 0, 67, 71
1, 276097, Control_c, 0, 64, 107
1, 276142, Control_c, 0, 64, 105
1, 276142, Control_c, 0, 67, 70
1, 276171, Control_c, 0, 64, 102
1, 276186, Control_c, 0, 67, 70
1, 276201, Control_c, 0, 64, 100
1, 276215, Control_c, 0, 67, 69
1, 276230, Control_c, 0, 64, 97
1, 276246, Control_c, 0, 64, 94
1, 276246, Control_c, 0, 67, 69
1, 276261, Control_c, 0, 64, 86
1, 276265, Note_on_c, 0, 30, 48
1, 276268, Note_off_c, 0, 61, 32
1, 276276, Control_c, 0, 64, 76
1, 276276, Control_c, 0, 67, 68
1, 276281, Note_off_c, 0, 57, 42
1, 276291, Control_c, 0, 64, 68
1, 276306, Control_c, 0, 64, 62
1, 276306, Control_c, 0, 67, 67
1, 276320, Control_c, 0, 64, 58
1, 276327, Note_off_c, 0, 54, 42
1, 276335, Control_c, 0, 64, 56
1, 276335, Control_c, 0, 67, 67
1, 276365, Control_c, 0, 64, 57
1, 276380, Control_c, 0, 64, 58
1, 276394, Control_c, 0, 64, 61
1, 276409, Control_c, 0, 64, 65
1, 276424, Control_c, 0, 64, 68
1, 276439, Control_c, 0, 64, 72
1, 276453, Control_c, 0, 64, 77
1, 276468, Control_c, 0, 64, 80
1, 276483, Control_c, 0, 64, 83
1, 276498, Control_c, 0, 64, 85
1, 276513, Control_c, 0, 64, 87
1, 276527, Control_c, 0, 64, 89
1, 276542, Control_c, 0, 64, 90
1, 276557, Control_c, 0, 64, 91
1, 276572, Control_c, 0, 64, 92
1, 276587, Control_c, 0, 64, 93
1, 276602, Control_c, 0, 64, 94
1, 276605, Note_on_c, 0, 38, 32
1, 276615, Note_on_c, 0, 62, 41
1, 276617, Control_c, 0, 64, 95
1, 276644, Note_off_c, 0, 66, 31
1, 276646, Control_c, 0, 64, 98
1, 276656, Note_off_c, 0, 30, 35
1, 276661, Control_c, 0, 64, 100
1, 276676, Control_c, 0, 67, 66
1, 276691, Control_c, 0, 64, 102
1, 276691, Control_c, 0, 67, 66
1, 276735, Control_c, 0, 67, 65
1, 276750, Control_c, 0, 64, 104
1, 276750, Control_c, 0, 67, 65
1, 276794, Control_c, 0, 67, 64
1, 276809, Control_c, 0, 67, 64
1, 276832, Control_c, 0, 67, 59
1, 276843, Note_on_c, 0, 67, 50
1, 276846, Control_c, 0, 67, 55
1, 276861, Control_c, 0, 67, 53
1, 276864, Note_on_c, 0, 55, 35
1, 276876, Control_c, 0, 67, 52
1, 276885, Note_off_c, 0, 62, 33
1, 276890, Note_on_c, 0, 45, 35
1, 276891, Control_c, 0, 67, 51
1, 276894, Note_off_c, 0, 38, 39
1, 276976, Note_off_c, 0, 55, 34
1, 276994, Control_c, 0, 67, 51
1, 277009, Control_c, 0, 67, 50
1, 277030, Note_off_c, 0, 67, 47
1, 277045, Note_off_c, 0, 45, 34
1, 277203, Control_c, 0, 64, 102
1, 277216, Note_on_c, 0, 69, 60
1, 277217, Control_c, 0, 64, 99
1, 277231, Note_on_c, 0, 57, 48
1, 277232, Control_c, 0, 64, 91
1, 277247, Control_c, 0, 64, 81
1, 277261, Control_c, 0, 64, 70
1, 277276, Control_c, 0, 64, 63
1, 277276, Control_c, 0, 67, 50
1, 277291, Control_c, 0, 64, 57
1, 277306, Control_c, 0, 64, 54
1, 277306, Control_c, 0, 67, 49
1, 277321, Control_c, 0, 64, 55
1, 277321, Control_c, 0, 67, 48
1, 277336, Control_c, 0, 64, 57
1, 277336, Control_c, 0, 67, 39
1, 277350, Control_c, 0, 64, 61
1, 277350, Control_c, 0, 67, 19
1, 277365, Control_c, 0, 64, 63
1, 277365, Control_c, 0, 67, 0
1, 277380, Control_c, 0, 64, 66
1, 277384, Note_on_c, 0, 49, 41
1, 277391, Note_on_c, 0, 66, 49
1, 277395, Control_c, 0, 64, 69
1, 277410, Control_c, 0, 64, 72
1, 277419, Note_on_c, 0, 62, 30
1, 277419, Note_off_c, 0, 57, 56
1, 277425, Control_c, 0, 64, 77
1, 277440, Control_c, 0, 64, 80
1, 277451, Note_off_c, 0, 69, 37
1, 277455, Control_c, 0, 64, 83
1, 277469, Control_c, 0, 64, 85
1, 277484, Control_c, 0, 64, 86
1, 277484, Note_off_c, 0, 49, 37
1, 277499, Control_c, 0, 64, 87
1, 277514, Control_c, 0, 64, 88
1, 277525, Note_off_c, 0, 62, 32
1, 277529, Control_c, 0, 64, 89
1, 277543, Control_c, 0, 64, 90
1, 277551, Note_on_c, 0, 71, 70
1, 277557, Note_on_c, 0, 50, 50
1, 277558, Note_off_c, 0, 66, 58
1, 277558, Control_c, 0, 64, 91
1, 277576, Note_on_c, 0, 59, 43
1, 277580, Note_on_c, 0, 54, 37
1, 277595, Control_c, 0, 64, 92
1, 277610, Control_c, 0, 64, 92
1, 277619, Note_off_c, 0, 59, 45
1, 277624, Control_c, 0, 64, 93
1, 277639, Control_c, 0, 64, 93
1, 277650, Note_off_c, 0, 50, 52
1, 277654, Control_c, 0, 64, 94
1, 277659, Note_off_c, 0, 54, 38
1, 277669, Control_c, 0, 64, 95
1, 277684, Control_c, 0, 64, 96
1, 277693, Note_off_c, 0, 71, 61
1, 277714, Control_c, 0, 64, 98
1, 277743, Control_c, 0, 64, 101
1, 277854, Note_on_c, 0, 73, 78
1, 277863, Control_c, 0, 64, 92
1, 277863, Note_on_c, 0, 61, 57
1, 277878, Control_c, 0, 64, 81
1, 277892, Control_c, 0, 64, 71
1, 277907, Control_c, 0, 64, 62
1, 277922, Control_c, 0, 64, 54
1, 277937, Control_c, 0, 64, 47
1, 277952, Control_c, 0, 64, 45
1, 277966, Control_c, 0, 64, 47
1, 277981, Control_c, 0, 64, 50
1, 277996, Control_c, 0, 64, 55
1, 277999, Note_on_c, 0, 47, 45
1, 277999, Note_on_c, 0, 69, 67
1, 278010, Control_c, 0, 64, 59
1, 278020, Note_off_c, 0, 73, 56
1, 278025, Control_c, 0, 64, 63
1, 278029, Note_on_c, 0, 66, 45
1, 278040, Control_c, 0, 64, 67
1, 278042, Note_off_c, 0, 61, 55
1, 278055, Control_c, 0, 64, 70
1, 278070, Control_c, 0, 64, 75
1, 278084, Control_c, 0, 64, 78
1, 278099, Control_c, 0, 64, 81
1, 278114, Control_c, 0, 64, 84
1, 278129, Control_c, 0, 64, 86
1, 278144, Control_c, 0, 64, 88
1, 278146, Note_on_c, 0, 74, 81
1, 278157, Note_on_c, 0, 62, 62
1, 278158, Note_off_c, 0, 47, 35
1, 278159, Control_c, 0, 64, 91
1, 278159, Note_off_c, 0, 66, 56
1, 278162, Note_off_c, 0, 69, 58
1, 278166, Note_on_c, 0, 57, 47
1, 278168, Note_on_c, 0, 54, 35
1, 278173, Control_c, 0, 64, 96
1, 278188, Control_c, 0, 64, 103
1, 278204, Control_c, 0, 64, 114
1, 278218, Control_c, 0, 64, 127
1, 278221, Note_off_c, 0, 57, 59
1, 278221, Note_off_c, 0, 62, 53
1, 278232, Note_off_c, 0, 54, 43
1, 278250, Note_off_c, 0, 74, 55
1, 278367, Note_on_c, 0, 64, 57
1, 278411, Note_on_c, 0, 68, 69
1, 278433, Control_c, 0, 64, 108
1, 278448, Control_c, 0, 64, 93
1, 278463, Control_c, 0, 64, 78
1, 278471, Note_on_c, 0, 76, 75
1, 278478, Control_c, 0, 64, 63
1, 278492, Control_c, 0, 64, 31
1, 278507, Control_c, 0, 64, 0
1, 278581, Control_c, 0, 64, 30
1, 278596, Control_c, 0, 64, 45
1, 278611, Control_c, 0, 64, 56
1, 278626, Control_c, 0, 64, 63
1, 278629, Note_off_c, 0, 64, 59
1, 278641, Control_c, 0, 64, 67
1, 278656, Control_c, 0, 64, 70
1, 278662, Note_on_c, 0, 46, 51
1, 278671, Control_c, 0, 64, 72
1, 278686, Control_c, 0, 64, 74
1, 278701, Control_c, 0, 64, 76
1, 278715, Control_c, 0, 64, 78
1, 278730, Control_c, 0, 64, 81
1, 278733, Note_on_c, 0, 74, 78
1, 278745, Control_c, 0, 64, 85
1, 278757, Note_on_c, 0, 62, 54
1, 278760, Control_c, 0, 64, 89
1, 278761, Note_off_c, 0, 68, 45
1, 278775, Control_c, 0, 64, 93
1, 278781, Note_off_c, 0, 76, 58
1, 278790, Control_c, 0, 64, 98
1, 278805, Control_c, 0, 64, 104
1, 278807, Note_off_c, 0, 46, 37
1, 278813, Note_off_c, 0, 62, 49
1, 278820, Control_c, 0, 64, 114
1, 278834, Control_c, 0, 64, 127
1, 278852, Note_on_c, 0, 56, 60
1, 278906, Note_on_c, 0, 76, 81
1, 278907, Note_on_c, 0, 64, 68
1, 278930, Note_off_c, 0, 74, 50
1, 278948, Note_off_c, 0, 56, 52
1, 278949, Note_off_c, 0, 64, 61
1, 278984, Note_on_c, 0, 62, 49
1, 279005, Note_off_c, 0, 76, 62
1, 279046, Note_off_c, 0, 62, 58
1, 279070, Note_on_c, 0, 66, 70
1, 279115, Note_on_c, 0, 69, 65
1, 279123, Control_c, 0, 64, 107
1, 279138, Control_c, 0, 64, 98
1, 279153, Control_c, 0, 64, 88
1, 279167, Control_c, 0, 64, 80
1, 279182, Control_c, 0, 64, 71
1, 279197, Control_c, 0, 64, 59
1, 279207, Note_on_c, 0, 78, 75
1, 279212, Control_c, 0, 64, 32
1, 279227, Control_c, 0, 64, 0
1, 279389, Control_c, 0, 64, 49
1, 279404, Control_c, 0, 64, 65
1, 279419, Note_on_c, 0, 45, 30
1, 279419, Control_c, 0, 64, 70
1, 279435, Control_c, 0, 64, 77
1, 279449, Note_off_c, 0, 69, 37
1, 279450, Control_c, 0, 64, 81
1, 279464, Control_c, 0, 64, 88
1, 279479, Control_c, 0, 64, 97
1, 279494, Control_c, 0, 64, 113
1, 279509, Control_c, 0, 64, 127
1, 279523, Note_off_c, 0, 45, 37
1, 279603, Note_on_c, 0, 73, 67
1, 279616, Note_on_c, 0, 70, 53
1, 279622, Note_off_c, 0, 78, 51
1, 279623, Note_on_c, 0, 55, 40
1, 279623, Note_off_c, 0, 66, 54
1, 279638, Note_on_c, 0, 61, 43
1, 279841, Note_off_c, 0, 55, 35
1, 279882, Note_off_c, 0, 61, 39
1, 279932, Control_c, 0, 64, 110
1, 279939, Note_off_c, 0, 70, 30
1, 279946, Control_c, 0, 64, 101
1, 279959, Note_on_c, 0, 74, 63
1, 279961, Control_c, 0, 64, 96
1, 279976, Control_c, 0, 64, 91
1, 279977, Note_on_c, 0, 69, 44
1, 279990, Control_c, 0, 64, 84
1, 280005, Control_c, 0, 64, 74
1, 280020, Control_c, 0, 64, 63
1, 280021, Note_off_c, 0, 73, 29
1, 280035, Control_c, 0, 64, 45
1, 280050, Control_c, 0, 64, 0
1, 280119, Note_on_c, 0, 46, 40
1, 280138, Control_c, 0, 64, 34
1, 280153, Control_c, 0, 64, 47
1, 280168, Control_c, 0, 64, 56
1, 280183, Control_c, 0, 64, 61
1, 280197, Control_c, 0, 64, 62
1, 280212, Control_c, 0, 64, 63
1, 280227, Control_c, 0, 64, 63
1, 280243, Control_c, 0, 64, 64
1, 280251, Note_off_c, 0, 69, 57
1, 280258, Control_c, 0, 64, 65
1, 280270, Note_on_c, 0, 56, 43
1, 280273, Note_on_c, 0, 68, 45
1, 280273, Control_c, 0, 64, 67
1, 280276, Note_off_c, 0, 46, 52
1, 280287, Control_c, 0, 64, 69
1, 280302, Control_c, 0, 64, 71
1, 280317, Control_c, 0, 64, 73
1, 280332, Control_c, 0, 64, 74
1, 280347, Control_c, 0, 64, 75
1, 280376, Control_c, 0, 64, 75
1, 280421, Control_c, 0, 64, 76
1, 280428, Note_on_c, 0, 62, 38
1, 280531, Note_off_c, 0, 62, 39
1, 280568, Note_off_c, 0, 74, 37
1, 280593, Note_off_c, 0, 56, 20
1, 280607, Note_on_c, 0, 66, 45
1, 280632, Note_off_c, 0, 68, 63
1, 280748, Note_on_c, 0, 62, 49
1, 280841, Note_off_c, 0, 66, 37
1, 280863, Note_off_c, 0, 62, 35
1, 280909, Note_on_c, 0, 76, 65
1, 280921, Note_on_c, 0, 56, 49
1, 280985, Note_off_c, 0, 56, 48
1, 281030, Note_off_c, 0, 76, 38
1, 281084, Note_on_c, 0, 77, 65
1, 281101, Note_on_c, 0, 46, 36
1, 281124, Control_c, 0, 64, 75
1, 281147, Note_off_c, 0, 46, 56
1, 281148, Note_off_c, 0, 77, 63
1, 281184, Control_c, 0, 64, 75
1, 281214, Control_c, 0, 64, 74
1, 281229, Control_c, 0, 64, 74
1, 281243, Control_c, 0, 64, 73
1, 281258, Control_c, 0, 64, 72
1, 281270, Note_on_c, 0, 78, 72
1, 281273, Control_c, 0, 64, 68
1, 281288, Control_c, 0, 64, 61
1, 281293, Note_on_c, 0, 69, 39
1, 281303, Control_c, 0, 64, 44
1, 281325, Control_c, 0, 64, 0
1, 281451, Note_on_c, 0, 45, 41
1, 281458, Control_c, 0, 64, 47
1, 281473, Control_c, 0, 64, 57
1, 281488, Control_c, 0, 64, 59
1, 281503, Control_c, 0, 64, 61
1, 281518, Control_c, 0, 64, 61
1, 281532, Control_c, 0, 64, 63
1, 281547, Control_c, 0, 64, 65
1, 281562, Note_off_c, 0, 45, 39
1, 281562, Control_c, 0, 64, 67
1, 281577, Control_c, 0, 64, 69
1, 281592, Control_c, 0, 64, 72
1, 281604, Note_on_c, 0, 73, 68
1, 281607, Control_c, 0, 64, 74
1, 281616, Note_off_c, 0, 78, 59
1, 281620, Note_on_c, 0, 55, 38
1, 281622, Control_c, 0, 64, 75
1, 281627, Note_on_c, 0, 70, 47
1, 281627, Note_off_c, 0, 69, 55
1, 281635, Note_on_c, 0, 61, 39
1, 281636, Control_c, 0, 64, 77
1, 281651, Control_c, 0, 64, 78
1, 281666, Control_c, 0, 64, 79
1, 281681, Control_c, 0, 64, 81
1, 281696, Control_c, 0, 64, 82
1, 281710, Control_c, 0, 64, 83
1, 281725, Control_c, 0, 64, 83
1, 281740, Control_c, 0, 64, 84
1, 281754, Control_c, 0, 64, 85
1, 281769, Control_c, 0, 64, 86
1, 281784, Control_c, 0, 64, 86
1, 281796, Note_off_c, 0, 61, 25
1, 281805, Note_off_c, 0, 55, 38
1, 281848, Note_off_c, 0, 70, 56
1, 281904, Control_c, 0, 64, 85
1, 281919, Control_c, 0, 64, 84
1, 281932, Note_on_c, 0, 74, 69
1, 281933, Control_c, 0, 64, 80
1, 281941, Note_on_c, 0, 69, 49
1, 281948, Control_c, 0, 64, 74
1, 281963, Control_c, 0, 64, 67
1, 281978, Note_off_c, 0, 73, 56
1, 281978, Control_c, 0, 64, 59
1, 281992, Control_c, 0, 64, 40
1, 282007, Control_c, 0, 64, 0
1, 282094, Note_on_c, 0, 46, 49
1, 282119, Control_c, 0, 64, 39
1, 282134, Control_c, 0, 64, 55
1, 282148, Control_c, 0, 64, 62
1, 282163, Control_c, 0, 64, 65
1, 282178, Control_c, 0, 64, 66
1, 282192, Control_c, 0, 64, 68
1, 282207, Control_c, 0, 64, 70
1, 282222, Control_c, 0, 64, 73
1, 282237, Control_c, 0, 64, 77
1, 282248, Note_on_c, 0, 68, 62
1, 282252, Control_c, 0, 64, 80
1, 282256, Note_on_c, 0, 56, 55
1, 282266, Control_c, 0, 64, 82
1, 282281, Control_c, 0, 64, 83
1, 282296, Control_c, 0, 64, 85
1, 282302, Note_off_c, 0, 46, 61
1, 282310, Control_c, 0, 64, 86
1, 282320, Note_off_c, 0, 69, 30
1, 282325, Control_c, 0, 64, 87
1, 282340, Control_c, 0, 64, 88
1, 282355, Control_c, 0, 64, 89
1, 282370, Control_c, 0, 64, 89
1, 282392, Note_on_c, 0, 62, 64
1, 282407, Note_off_c, 0, 56, 52
1, 282489, Control_c, 0, 64, 88
1, 282503, Control_c, 0, 64, 86
1, 282518, Control_c, 0, 64, 80
1, 282533, Control_c, 0, 64, 69
1, 282540, Note_on_c, 0, 67, 68
1, 282548, Control_c, 0, 64, 61
1, 282554, Note_off_c, 0, 74, 50
1, 282555, Note_on_c, 0, 55, 58
1, 282563, Control_c, 0, 64, 48
1, 282577, Control_c, 0, 64, 36
1, 282592, Control_c, 0, 64, 33
1, 282607, Control_c, 0, 64, 40
1, 282617, Note_off_c, 0, 68, 63
1, 282622, Control_c, 0, 64, 48
1, 282638, Control_c, 0, 64, 56
1, 282653, Control_c, 0, 64, 60
1, 282668, Control_c, 0, 64, 62
1, 282682, Control_c, 0, 64, 64
1, 282697, Control_c, 0, 64, 66
1, 282705, Note_on_c, 0, 47, 62
1, 282712, Control_c, 0, 64, 69
1, 282726, Control_c, 0, 64, 71
1, 282741, Control_c, 0, 64, 73
1, 282756, Control_c, 0, 64, 74
1, 282771, Control_c, 0, 64, 75
1, 282796, Note_off_c, 0, 67, 58
1, 282801, Control_c, 0, 64, 76
1, 282812, Note_off_c, 0, 62, 39
1, 282823, Control_c, 0, 64, 76
1, 282838, Control_c, 0, 64, 77
1, 282859, Note_off_c, 0, 47, 57
1, 282865, Note_on_c, 0, 76, 79
1, 282897, Control_c, 0, 64, 77
1, 282900, Note_off_c, 0, 55, 57
1, 282912, Control_c, 0, 64, 78
1, 282927, Control_c, 0, 64, 80
1, 282941, Control_c, 0, 64, 81
1, 282944, Note_off_c, 0, 76, 61
1, 282956, Control_c, 0, 64, 82
1, 282971, Control_c, 0, 64, 83
1, 282986, Control_c, 0, 64, 83
1, 283001, Control_c, 0, 64, 84
1, 283015, Control_c, 0, 64, 84
1, 283052, Note_on_c, 0, 78, 82
1, 283135, Note_off_c, 0, 78, 62
1, 283163, Control_c, 0, 64, 84
1, 283178, Control_c, 0, 64, 83
1, 283193, Control_c, 0, 64, 83
1, 283208, Control_c, 0, 64, 81
1, 283214, Note_on_c, 0, 79, 86
1, 283223, Control_c, 0, 64, 77
1, 283233, Note_on_c, 0, 71, 60
1, 283238, Control_c, 0, 64, 68
1, 283252, Control_c, 0, 64, 59
1, 283267, Control_c, 0, 64, 45
1, 283282, Control_c, 0, 64, 0
1, 283356, Control_c, 0, 64, 29
1, 283363, Note_on_c, 0, 47, 65
1, 283371, Control_c, 0, 64, 43
1, 283386, Control_c, 0, 64, 54
1, 283401, Control_c, 0, 64, 61
1, 283415, Control_c, 0, 64, 64
1, 283431, Control_c, 0, 64, 66
1, 283446, Control_c, 0, 64, 67
1, 283461, Control_c, 0, 64, 67
1, 283476, Control_c, 0, 64, 68
1, 283480, Note_off_c, 0, 47, 39
1, 283491, Control_c, 0, 64, 69
1, 283506, Control_c, 0, 64, 71
1, 283518, Note_on_c, 0, 75, 79
1, 283521, Control_c, 0, 64, 74
1, 283530, Note_on_c, 0, 72, 65
1, 283532, Note_on_c, 0, 57, 62
1, 283536, Control_c, 0, 64, 75
1, 283538, Note_on_c, 0, 63, 60
1, 283542, Note_off_c, 0, 71, 30
1, 283548, Note_off_c, 0, 79, 62
1, 283557, Control_c, 0, 64, 78
1, 283572, Control_c, 0, 64, 79
1, 283587, Control_c, 0, 64, 81
1, 283602, Control_c, 0, 64, 81
1, 283617, Control_c, 0, 64, 82
1, 283684, Note_off_c, 0, 63, 62
1, 283706, Note_off_c, 0, 57, 30
1, 283735, Note_off_c, 0, 72, 59
1, 283780, Control_c, 0, 64, 81
1, 283795, Control_c, 0, 64, 81
1, 283810, Control_c, 0, 64, 79
1, 283821, Note_on_c, 0, 76, 80
1, 283825, Control_c, 0, 64, 76
1, 283836, Note_on_c, 0, 71, 56
1, 283839, Control_c, 0, 64, 70
1, 283854, Control_c, 0, 64, 62
1, 283858, Note_off_c, 0, 75, 62
1, 283869, Control_c, 0, 64, 45
1, 283884, Control_c, 0, 64, 0
1, 283965, Note_on_c, 0, 48, 57
1, 283987, Control_c, 0, 64, 31
1, 284002, Control_c, 0, 64, 44
1, 284017, Control_c, 0, 64, 56
1, 284031, Control_c, 0, 64, 62
1, 284046, Control_c, 0, 64, 64
1, 284061, Control_c, 0, 64, 65
1, 284076, Control_c, 0, 64, 66
1, 284090, Control_c, 0, 64, 66
1, 284108, Note_off_c, 0, 71, 51
1, 284117, Note_on_c, 0, 70, 72
1, 284117, Note_on_c, 0, 58, 61
1, 284150, Control_c, 0, 64, 67
1, 284179, Control_c, 0, 64, 68
1, 284194, Control_c, 0, 64, 69
1, 284209, Control_c, 0, 64, 70
1, 284224, Control_c, 0, 64, 71
1, 284239, Control_c, 0, 64, 71
1, 284250, Note_on_c, 0, 64, 68
1, 284272, Note_off_c, 0, 58, 62
1, 284284, Control_c, 0, 64, 72
1, 284350, Control_c, 0, 64, 71
1, 284365, Control_c, 0, 64, 68
1, 284379, Control_c, 0, 64, 62
1, 284394, Note_off_c, 0, 48, 58
1, 284394, Control_c, 0, 64, 45
1, 284402, Note_on_c, 0, 69, 74
1, 284406, Note_on_c, 0, 57, 64
1, 284409, Control_c, 0, 64, 0
1, 284415, Note_off_c, 0, 76, 60
1, 284471, Note_off_c, 0, 70, 62
1, 284513, Control_c, 0, 64, 40
1, 284528, Control_c, 0, 64, 54
1, 284543, Control_c, 0, 64, 61
1, 284549, Note_on_c, 0, 49, 72
1, 284558, Control_c, 0, 64, 64
1, 284573, Control_c, 0, 64, 65
1, 284587, Control_c, 0, 64, 66
1, 284602, Control_c, 0, 64, 67
1, 284617, Note_off_c, 0, 69, 58
1, 284617, Control_c, 0, 64, 69
1, 284632, Control_c, 0, 64, 71
1, 284646, Note_off_c, 0, 64, 52
1, 284647, Control_c, 0, 64, 73
1, 284661, Control_c, 0, 64, 75
1, 284676, Control_c, 0, 64, 76
1, 284691, Control_c, 0, 64, 78
1, 284701, Note_on_c, 0, 78, 87
1, 284705, Control_c, 0, 64, 80
1, 284720, Control_c, 0, 64, 82
1, 284729, Note_off_c, 0, 49, 54
1, 284735, Control_c, 0, 64, 84
1, 284750, Control_c, 0, 64, 85
1, 284761, Note_off_c, 0, 57, 57
1, 284765, Control_c, 0, 64, 86
1, 284779, Control_c, 0, 64, 87
1, 284794, Control_c, 0, 64, 87
1, 284802, Note_off_c, 0, 78, 61
1, 284809, Control_c, 0, 64, 88
1, 284824, Control_c, 0, 64, 88
1, 284904, Note_on_c, 0, 80, 90
1, 285001, Control_c, 0, 64, 88
1, 285016, Control_c, 0, 64, 87
1, 285032, Control_c, 0, 64, 86
1, 285038, Note_off_c, 0, 80, 59
1, 285054, Control_c, 0, 64, 83
1, 285069, Control_c, 0, 64, 76
1, 285083, Control_c, 0, 64, 65
1, 285085, Note_on_c, 0, 81, 90
1, 285098, Control_c, 0, 64, 47
1, 285099, Note_on_c, 0, 73, 71
1, 285113, Control_c, 0, 64, 0
1, 285202, Control_c, 0, 64, 36
1, 285217, Control_c, 0, 64, 50
1, 285232, Control_c, 0, 64, 59
1, 285234, Note_on_c, 0, 49, 70
1, 285247, Control_c, 0, 64, 62
1, 285262, Control_c, 0, 64, 63
1, 285276, Control_c, 0, 64, 64
1, 285291, Control_c, 0, 64, 65
1, 285306, Control_c, 0, 64, 67
1, 285321, Control_c, 0, 64, 69
1, 285335, Control_c, 0, 64, 72
1, 285336, Note_off_c, 0, 49, 62
1, 285350, Control_c, 0, 64, 75
1, 285365, Control_c, 0, 64, 79
1, 285380, Control_c, 0, 64, 82
1, 285390, Note_on_c, 0, 77, 79
1, 285395, Control_c, 0, 64, 85
1, 285398, Note_on_c, 0, 59, 58
1, 285399, Note_off_c, 0, 81, 60
1, 285400, Note_on_c, 0, 65, 63
1, 285409, Note_on_c, 0, 74, 61
1, 285409, Control_c, 0, 64, 88
1, 285412, Note_off_c, 0, 73, 28
1, 285424, Control_c, 0, 64, 91
1, 285439, Control_c, 0, 64, 93
1, 285454, Control_c, 0, 64, 96
1, 285469, Control_c, 0, 64, 98
1, 285476, Note_off_c, 0, 59, 60
1, 285477, Note_off_c, 0, 65, 52
1, 285548, Note_off_c, 0, 74, 37
1, 285646, Control_c, 0, 64, 92
1, 285661, Control_c, 0, 64, 83
1, 285676, Control_c, 0, 64, 70
1, 285691, Control_c, 0, 64, 58
1, 285693, Note_on_c, 0, 50, 54
1, 285699, Note_on_c, 0, 78, 85
1, 285706, Control_c, 0, 64, 34
1, 285710, Note_on_c, 0, 73, 65
1, 285721, Control_c, 0, 64, 0
1, 285726, Note_off_c, 0, 77, 58
1, 285780, Control_c, 0, 64, 41
1, 285795, Control_c, 0, 64, 52
1, 285816, Control_c, 0, 64, 59
1, 285832, Control_c, 0, 64, 62
1, 285847, Control_c, 0, 64, 64
1, 285862, Control_c, 0, 64, 65
1, 285868, Note_on_c, 0, 57, 52
1, 285877, Control_c, 0, 64, 68
1, 285892, Control_c, 0, 64, 72
1, 285900, Note_off_c, 0, 50, 61
1, 285906, Control_c, 0, 64, 76
1, 285921, Control_c, 0, 64, 81
1, 285936, Control_c, 0, 64, 84
1, 285951, Control_c, 0, 64, 85
1, 286012, Note_off_c, 0, 73, 53
1, 286019, Note_on_c, 0, 68, 70
1, 286025, Note_on_c, 0, 66, 56
1, 286040, Control_c, 0, 64, 85
1, 286080, Note_off_c, 0, 66, 57
1, 286120, Note_off_c, 0, 57, 38
1, 286129, Control_c, 0, 64, 86
1, 286203, Control_c, 0, 64, 86
1, 286218, Control_c, 0, 64, 87
1, 286291, Control_c, 0, 64, 86
1, 286306, Control_c, 0, 64, 81
1, 286321, Control_c, 0, 64, 71
1, 286327, Note_on_c, 0, 69, 70
1, 286336, Control_c, 0, 64, 62
1, 286350, Control_c, 0, 64, 50
1, 286365, Control_c, 0, 64, 38
1, 286380, Control_c, 0, 64, 36
1, 286395, Control_c, 0, 64, 43
1, 286410, Control_c, 0, 64, 51
1, 286424, Control_c, 0, 64, 59
1, 286439, Control_c, 0, 64, 63
1, 286454, Control_c, 0, 64, 67
1, 286466, Note_off_c, 0, 78, 54
1, 286469, Control_c, 0, 64, 73
1, 286470, Note_off_c, 0, 68, 36
1, 286473, Note_on_c, 0, 45, 46
1, 286484, Control_c, 0, 64, 79
1, 286499, Control_c, 0, 64, 85
1, 286514, Control_c, 0, 64, 92
1, 286528, Control_c, 0, 64, 97
1, 286537, Note_off_c, 0, 45, 45
1, 286550, Control_c, 0, 64, 101
1, 286565, Control_c, 0, 64, 104
1, 286580, Control_c, 0, 64, 106
1, 286582, Note_off_c, 0, 69, 39
1, 286610, Control_c, 0, 64, 109
1, 286624, Note_on_c, 0, 55, 49
1, 286633, Note_on_c, 0, 73, 71
1, 286639, Note_on_c, 0, 70, 57
1, 286641, Control_c, 0, 64, 111
1, 286748, Note_on_c, 0, 61, 53
1, 286803, Note_off_c, 0, 55, 37
1, 286818, Control_c, 0, 64, 109
1, 286833, Control_c, 0, 64, 107
1, 286848, Control_c, 0, 64, 103
1, 286862, Control_c, 0, 64, 99
1, 286877, Control_c, 0, 64, 95
1, 286892, Control_c, 0, 64, 90
1, 286907, Control_c, 0, 64, 82
1, 286922, Control_c, 0, 64, 68
1, 286922, Note_off_c, 0, 61, 35
1, 286930, Note_on_c, 0, 74, 68
1, 286937, Control_c, 0, 64, 55
1, 286938, Note_on_c, 0, 69, 49
1, 286940, Note_on_c, 0, 46, 43
1, 286952, Control_c, 0, 64, 0
1, 286995, Note_off_c, 0, 73, 37
1, 287010, Note_off_c, 0, 70, 40
1, 287041, Control_c, 0, 64, 36
1, 287055, Control_c, 0, 64, 51
1, 287070, Control_c, 0, 64, 61
1, 287083, Note_on_c, 0, 53, 37
1, 287085, Control_c, 0, 64, 65
1, 287099, Control_c, 0, 64, 67
1, 287114, Control_c, 0, 64, 69
1, 287129, Control_c, 0, 64, 71
1, 287134, Note_off_c, 0, 46, 51
1, 287144, Control_c, 0, 64, 73
1, 287159, Control_c, 0, 64, 75
1, 287173, Control_c, 0, 64, 77
1, 287188, Control_c, 0, 64, 79
1, 287203, Control_c, 0, 64, 81
1, 287218, Control_c, 0, 64, 82
1, 287229, Note_on_c, 0, 64, 52
1, 287233, Control_c, 0, 64, 83
1, 287247, Control_c, 0, 64, 84
1, 287253, Note_on_c, 0, 62, 39
1, 287262, Control_c, 0, 64, 84
1, 287275, Note_off_c, 0, 69, 55
1, 287277, Control_c, 0, 64, 85
1, 287309, Note_off_c, 0, 62, 58
1, 287342, Note_off_c, 0, 53, 30
1, 287522, Control_c, 0, 64, 83
1, 287537, Control_c, 0, 64, 78
1, 287552, Control_c, 0, 64, 70
1, 287564, Note_on_c, 0, 65, 53
1, 287567, Control_c, 0, 64, 63
1, 287582, Control_c, 0, 64, 55
1, 287596, Control_c, 0, 64, 49
1, 287611, Control_c, 0, 64, 50
1, 287626, Control_c, 0, 64, 55
1, 287641, Control_c, 0, 64, 61
1, 287655, Control_c, 0, 64, 65
1, 287670, Control_c, 0, 64, 69
1, 287685, Control_c, 0, 64, 73
1, 287693, Note_off_c, 0, 74, 37
1, 287700, Control_c, 0, 64, 76
1, 287711, Note_on_c, 0, 41, 40
1, 287715, Control_c, 0, 64, 80
1, 287730, Control_c, 0, 64, 83
1, 287730, Control_c, 0, 67, 20
1, 287745, Control_c, 0, 64, 85
1, 287745, Control_c, 0, 67, 23
1, 287754, Note_off_c, 0, 64, 37
1, 287760, Control_c, 0, 64, 87
1, 287760, Control_c, 0, 67, 25
1, 287774, Control_c, 0, 64, 89
1, 287781, Note_off_c, 0, 65, 52
1, 287789, Control_c, 0, 64, 90
1, 287789, Control_c, 0, 67, 29
1, 287804, Control_c, 0, 64, 90
1, 287834, Control_c, 0, 64, 91
1, 287858, Note_off_c, 0, 41, 31
1, 287866, Note_on_c, 0, 66, 45
1, 287870, Note_on_c, 0, 69, 52
1, 287873, Note_on_c, 0, 51, 44
1, 288004, Note_on_c, 0, 57, 44
1, 288011, Control_c, 0, 64, 90
1, 288026, Control_c, 0, 64, 90
1, 288041, Control_c, 0, 64, 88
1, 288063, Control_c, 0, 64, 87
1, 288070, Note_off_c, 0, 51, 29
1, 288076, Note_off_c, 0, 66, 30
1, 288078, Control_c, 0, 64, 86
1, 288093, Control_c, 0, 64, 84
1, 288108, Control_c, 0, 64, 83
1, 288108, Control_c, 0, 67, 31
1, 288122, Control_c, 0, 64, 80
1, 288137, Control_c, 0, 64, 75
1, 288152, Control_c, 0, 64, 69
1, 288152, Control_c, 0, 67, 32
1, 288167, Control_c, 0, 64, 63
1, 288167, Control_c, 0, 67, 32
1, 288170, Note_off_c, 0, 57, 28
1, 288177, Note_on_c, 0, 70, 55
1, 288180, Note_on_c, 0, 65, 45
1, 288182, Control_c, 0, 64, 55
1, 288182, Control_c, 0, 67, 35
1, 288184, Note_on_c, 0, 42, 41
1, 288196, Control_c, 0, 64, 44
1, 288196, Control_c, 0, 67, 39
1, 288211, Control_c, 0, 64, 0
1, 288211, Control_c, 0, 67, 43
1, 288219, Note_off_c, 0, 69, 53
1, 288227, Control_c, 0, 67, 47
1, 288242, Control_c, 0, 67, 52
1, 288257, Control_c, 0, 67, 61
1, 288271, Control_c, 0, 67, 69
1, 288286, Control_c, 0, 64, 32
1, 288286, Control_c, 0, 67, 77
1, 288301, Control_c, 0, 64, 43
1, 288301, Control_c, 0, 67, 83
1, 288316, Control_c, 0, 64, 54
1, 288316, Control_c, 0, 67, 86
1, 288331, Control_c, 0, 64, 60
1, 288331, Control_c, 0, 67, 87
1, 288336, Note_on_c, 0, 49, 44
1, 288345, Control_c, 0, 64, 63
1, 288345, Control_c, 0, 67, 88
1, 288360, Control_c, 0, 64, 65
1, 288369, Note_off_c, 0, 42, 44
1, 288375, Control_c, 0, 64, 66
1, 288390, Control_c, 0, 64, 67
1, 288405, Control_c, 0, 64, 68
1, 288419, Control_c, 0, 64, 70
1, 288434, Control_c, 0, 64, 71
1, 288434, Control_c, 0, 67, 88
1, 288449, Control_c, 0, 64, 73
1, 288464, Control_c, 0, 64, 74
1, 288478, Control_c, 0, 64, 74
1, 288489, Note_on_c, 0, 60, 44
1, 288493, Control_c, 0, 64, 75
1, 288493, Control_c, 0, 67, 87
1, 288499, Note_on_c, 0, 59, 40
1, 288508, Control_c, 0, 64, 76
1, 288513, Note_off_c, 0, 65, 54
1, 288523, Control_c, 0, 64, 77
1, 288538, Control_c, 0, 64, 78
1, 288538, Control_c, 0, 67, 87
1, 288551, Note_off_c, 0, 59, 61
1, 288567, Control_c, 0, 64, 79
1, 288597, Note_off_c, 0, 49, 55
1, 288597, Control_c, 0, 64, 79
1, 288597, Control_c, 0, 67, 86
1, 288642, Control_c, 0, 64, 80
1, 288761, Control_c, 0, 64, 79
1, 288776, Control_c, 0, 64, 77
1, 288791, Control_c, 0, 64, 72
1, 288805, Note_on_c, 0, 61, 50
1, 288813, Control_c, 0, 64, 64
1, 288827, Control_c, 0, 64, 58
1, 288842, Control_c, 0, 64, 55
1, 288857, Control_c, 0, 64, 56
1, 288857, Control_c, 0, 67, 86
1, 288872, Control_c, 0, 64, 59
1, 288876, Note_off_c, 0, 60, 43
1, 288886, Control_c, 0, 64, 62
1, 288901, Control_c, 0, 64, 65
1, 288916, Control_c, 0, 64, 68
1, 288931, Control_c, 0, 64, 71
1, 288943, Note_on_c, 0, 37, 42
1, 288946, Control_c, 0, 64, 74
1, 288961, Control_c, 0, 64, 77
1, 288976, Control_c, 0, 64, 80
1, 288986, Note_off_c, 0, 70, 33
1, 288991, Control_c, 0, 64, 83
1, 289005, Control_c, 0, 64, 85
1, 289021, Control_c, 0, 64, 87
1, 289036, Control_c, 0, 64, 88
1, 289050, Control_c, 0, 64, 89
1, 289056, Note_off_c, 0, 37, 37
1, 289065, Control_c, 0, 64, 90
1, 289080, Control_c, 0, 64, 90
1, 289081, Note_off_c, 0, 61, 35
1, 289095, Control_c, 0, 64, 91
1, 289110, Control_c, 0, 64, 91
1, 289110, Note_on_c, 0, 65, 47
1, 289122, Note_on_c, 0, 47, 47
1, 289122, Note_on_c, 0, 62, 43
1, 289161, Note_off_c, 0, 65, 0
1, 289161, Note_on_c, 0, 65, 10
1, 289210, Note_off_c, 0, 47, 49
1, 289259, Note_on_c, 0, 53, 47
1, 289296, Note_off_c, 0, 53, 58
1, 289317, Control_c, 0, 64, 91
1, 289325, Note_off_c, 0, 65, 41
1, 289347, Control_c, 0, 64, 90
1, 289357, Note_off_c, 0, 62, 36
1, 289376, Control_c, 0, 64, 89
1, 289391, Control_c, 0, 64, 86
1, 289391, Control_c, 0, 67, 85
1, 289406, Control_c, 0, 64, 81
1, 289420, Note_on_c, 0, 38, 40
1, 289420, Control_c, 0, 64, 74
1, 289420, Control_c, 0, 67, 85
1, 289426, Note_on_c, 0, 66, 47
1, 289435, Control_c, 0, 64, 68
1, 289439, Note_on_c, 0, 61, 37
1, 289450, Control_c, 0, 64, 63
1, 289465, Control_c, 0, 64, 56
1, 289480, Control_c, 0, 64, 51
1, 289494, Control_c, 0, 64, 49
1, 289509, Control_c, 0, 64, 50
1, 289524, Control_c, 0, 64, 53
1, 289539, Control_c, 0, 64, 56
1, 289562, Control_c, 0, 64, 59
1, 289576, Control_c, 0, 64, 62
1, 289576, Control_c, 0, 67, 85
1, 289591, Control_c, 0, 64, 64
1, 289591, Control_c, 0, 67, 86
1, 289606, Control_c, 0, 64, 67
1, 289621, Note_on_c, 0, 45, 36
1, 289621, Control_c, 0, 64, 70
1, 289635, Control_c, 0, 64, 73
1, 289650, Control_c, 0, 64, 75
1, 289656, Note_off_c, 0, 61, 59
1, 289665, Control_c, 0, 64, 77
1, 289674, Note_off_c, 0, 38, 40
1, 289680, Control_c, 0, 64, 80
1, 289695, Control_c, 0, 64, 81
1, 289709, Control_c, 0, 64, 83
1, 289724, Control_c, 0, 64, 84
1, 289739, Control_c, 0, 64, 84
1, 289754, Control_c, 0, 64, 85
1, 289769, Control_c, 0, 64, 86
1, 289784, Control_c, 0, 64, 87
1, 289790, Note_on_c, 0, 56, 47
1, 289798, Control_c, 0, 64, 87
1, 289806, Note_on_c, 0, 54, 36
1, 289813, Control_c, 0, 64, 88
1, 289829, Control_c, 0, 64, 88
1, 289843, Control_c, 0, 64, 89
1, 289858, Control_c, 0, 64, 89
1, 289873, Control_c, 0, 64, 90
1, 289903, Control_c, 0, 64, 90
1, 289975, Note_off_c, 0, 45, 38
1, 289977, Control_c, 0, 67, 85
1, 289978, Note_off_c, 0, 56, 26
1, 289991, Note_off_c, 0, 54, 40
1, 290081, Control_c, 0, 64, 90
1, 290096, Control_c, 0, 64, 89
1, 290111, Control_c, 0, 64, 88
1, 290125, Control_c, 0, 64, 87
1, 290125, Control_c, 0, 67, 85
1, 290140, Control_c, 0, 64, 86
1, 290155, Control_c, 0, 64, 85
1, 290170, Control_c, 0, 64, 83
1, 290185, Control_c, 0, 64, 81
1, 290190, Note_on_c, 0, 57, 38
1, 290199, Control_c, 0, 64, 75
1, 290214, Control_c, 0, 64, 69
1, 290229, Control_c, 0, 64, 62
1, 290243, Control_c, 0, 64, 53
1, 290258, Control_c, 0, 64, 43
1, 290258, Control_c, 0, 67, 84
1, 290273, Control_c, 0, 64, 36
1, 290296, Control_c, 0, 64, 35
1, 290311, Control_c, 0, 64, 39
1, 290325, Control_c, 0, 64, 46
1, 290340, Control_c, 0, 64, 55
1, 290355, Control_c, 0, 64, 62
1, 290370, Control_c, 0, 64, 66
1, 290385, Control_c, 0, 64, 70
1, 290399, Control_c, 0, 64, 75
1, 290399, Control_c, 0, 67, 85
1, 290414, Control_c, 0, 64, 78
1, 290426, Note_on_c, 0, 38, 29
1, 290429, Control_c, 0, 64, 80
1, 290444, Control_c, 0, 64, 82
1, 290458, Control_c, 0, 64, 84
1, 290473, Control_c, 0, 64, 85
1, 290488, Control_c, 0, 64, 87
1, 290503, Control_c, 0, 64, 89
1, 290506, Note_off_c, 0, 57, 33
1, 290518, Control_c, 0, 64, 90
1, 290526, Note_off_c, 0, 66, 26
1, 290532, Control_c, 0, 64, 90
1, 290534, Note_off_c, 0, 38, 49
1, 290562, Control_c, 0, 64, 91
1, 290615, Note_on_c, 0, 61, 44
1, 290638, Note_on_c, 0, 54, 34
1, 290657, Note_on_c, 0, 58, 13
1, 290736, Note_off_c, 0, 58, 36
1, 290816, Note_on_c, 0, 46, 40
1, 290845, Control_c, 0, 64, 90
1, 290874, Control_c, 0, 64, 90
1, 290878, Note_off_c, 0, 54, 29
1, 290904, Control_c, 0, 64, 89
1, 290919, Control_c, 0, 64, 88
1, 290934, Control_c, 0, 64, 87
1, 290948, Control_c, 0, 64, 85
1, 290948, Control_c, 0, 67, 84
1, 290963, Control_c, 0, 64, 83
1, 290978, Control_c, 0, 64, 80
1, 290993, Control_c, 0, 64, 75
1, 290993, Control_c, 0, 67, 84
1, 291008, Control_c, 0, 64, 68
1, 291021, Note_on_c, 0, 64, 48
1, 291022, Control_c, 0, 64, 63
1, 291044, Control_c, 0, 64, 56
1, 291047, Note_off_c, 0, 46, 40
1, 291059, Control_c, 0, 64, 51
1, 291059, Control_c, 0, 67, 83
1, 291060, Note_on_c, 0, 55, 33
1, 291074, Control_c, 0, 64, 48
1, 291074, Control_c, 0, 67, 83
1, 291089, Control_c, 0, 64, 49
1, 291104, Control_c, 0, 64, 52
1, 291104, Control_c, 0, 67, 82
1, 291119, Control_c, 0, 64, 55
1, 291119, Control_c, 0, 67, 82
1, 291134, Control_c, 0, 64, 57
1, 291148, Control_c, 0, 64, 60
1, 291148, Control_c, 0, 67, 81
1, 291163, Control_c, 0, 64, 61
1, 291163, Control_c, 0, 67, 81
1, 291178, Control_c, 0, 64, 63
1, 291192, Control_c, 0, 64, 65
1, 291192, Control_c, 0, 67, 80
1, 291207, Control_c, 0, 64, 67
1, 291207, Control_c, 0, 67, 79
1, 291222, Control_c, 0, 64, 70
1, 291222, Control_c, 0, 67, 79
1, 291232, Note_off_c, 0, 55, 48
1, 291237, Control_c, 0, 64, 72
1, 291237, Control_c, 0, 67, 78
1, 291252, Control_c, 0, 64, 74
1, 291252, Control_c, 0, 67, 77
1, 291265, Note_on_c, 0, 59, 35
1, 291267, Control_c, 0, 64, 75
1, 291267, Control_c, 0, 67, 77
1, 291281, Control_c, 0, 64, 77
1, 291281, Control_c, 0, 67, 76
1, 291296, Control_c, 0, 64, 78
1, 291311, Control_c, 0, 64, 78
1, 291311, Control_c, 0, 67, 76
1, 291315, Note_off_c, 0, 61, 26
1, 291326, Control_c, 0, 67, 75
1, 291355, Control_c, 0, 64, 77
1, 291355, Control_c, 0, 67, 75
1, 291370, Control_c, 0, 64, 74
1, 291370, Control_c, 0, 67, 74
1, 291385, Control_c, 0, 64, 69
1, 291385, Control_c, 0, 67, 74
1, 291399, Control_c, 0, 64, 64
1, 291399, Control_c, 0, 67, 73
1, 291414, Control_c, 0, 64, 60
1, 291414, Control_c, 0, 67, 71
1, 291416, Note_on_c, 0, 47, 37
1, 291418, Note_on_c, 0, 62, 57
1, 291431, Control_c, 0, 64, 59
1, 291431, Control_c, 0, 67, 64
1, 291438, Note_off_c, 0, 59, 58
1, 291445, Control_c, 0, 64, 60
1, 291445, Control_c, 0, 67, 52
1, 291460, Control_c, 0, 64, 61
1, 291460, Control_c, 0, 67, 37
1, 291475, Control_c, 0, 64, 62
1, 291475, Control_c, 0, 67, 22
1, 291490, Control_c, 0, 64, 64
1, 291490, Control_c, 0, 67, 0
1, 291504, Control_c, 0, 64, 66
1, 291519, Control_c, 0, 64, 68
1, 291534, Control_c, 0, 64, 71
1, 291539, Note_off_c, 0, 64, 33
1, 291549, Control_c, 0, 64, 75
1, 291564, Control_c, 0, 64, 78
1, 291578, Control_c, 0, 64, 80
1, 291583, Note_on_c, 0, 55, 50
1, 291593, Control_c, 0, 64, 82
1, 291600, Note_off_c, 0, 62, 61
1, 291608, Control_c, 0, 64, 83
1, 291623, Control_c, 0, 64, 84
1, 291668, Control_c, 0, 64, 83
1, 291682, Control_c, 0, 64, 78
1, 291697, Control_c, 0, 64, 71
1, 291712, Control_c, 0, 64, 65
1, 291720, Note_on_c, 0, 61, 60
1, 291727, Control_c, 0, 64, 59
1, 291730, Note_off_c, 0, 47, 24
1, 291730, Note_on_c, 0, 49, 41
1, 291742, Control_c, 0, 64, 56
1, 291771, Control_c, 0, 64, 58
1, 291793, Control_c, 0, 64, 60
1, 291808, Control_c, 0, 64, 62
1, 291815, Note_off_c, 0, 55, 36
1, 291823, Control_c, 0, 64, 63
1, 291837, Control_c, 0, 64, 66
1, 291852, Control_c, 0, 64, 69
1, 291867, Control_c, 0, 64, 73
1, 291874, Note_on_c, 0, 56, 59
1, 291882, Control_c, 0, 64, 76
1, 291897, Control_c, 0, 64, 78
1, 291942, Control_c, 0, 64, 77
1, 291957, Control_c, 0, 64, 74
1, 291971, Control_c, 0, 64, 71
1, 291986, Control_c, 0, 64, 69
1, 292001, Control_c, 0, 64, 69
1, 292015, Control_c, 0, 64, 70
1, 292030, Control_c, 0, 64, 71
1, 292032, Note_on_c, 0, 50, 49
1, 292038, Note_on_c, 0, 59, 61
1, 292052, Note_off_c, 0, 49, 42
1, 292060, Control_c, 0, 64, 71
1, 292066, Note_off_c, 0, 56, 52
1, 292075, Control_c, 0, 64, 69
1, 292089, Control_c, 0, 64, 64
1, 292104, Control_c, 0, 64, 56
1, 292119, Control_c, 0, 64, 49
1, 292134, Control_c, 0, 64, 48
1, 292149, Control_c, 0, 64, 52
1, 292163, Control_c, 0, 64, 57
1, 292178, Control_c, 0, 64, 61
1, 292190, Note_on_c, 0, 53, 64
1, 292193, Control_c, 0, 64, 66
1, 292208, Control_c, 0, 64, 73
1, 292224, Control_c, 0, 64, 82
1, 292237, Note_off_c, 0, 61, 0
1, 292239, Control_c, 0, 64, 91
1, 292253, Note_off_c, 0, 50, 56
1, 292253, Control_c, 0, 64, 98
1, 292261, Note_off_c, 0, 59, 52
1, 292268, Control_c, 0, 64, 100
1, 292273, Poly_aftertouch_c, 0, 61, 127
1, 292298, Control_c, 0, 64, 94
1, 292313, Control_c, 0, 64, 82
1, 292327, Control_c, 0, 64, 71
1, 292342, Control_c, 0, 64, 65
1, 292351, Note_off_c, 0, 53, 58
1, 292357, Control_c, 0, 64, 62
1, 292371, Poly_aftertouch_c, 0, 61, 0
1, 292372, Note_on_c, 0, 57, 73
1, 292372, Control_c, 0, 64, 64
1, 292383, Note_on_c, 0, 54, 54
1, 292387, Control_c, 0, 64, 67
1, 292401, Control_c, 0, 64, 72
1, 292416, Control_c, 0, 64, 80
1, 292431, Control_c, 0, 64, 88
1, 292446, Control_c, 0, 64, 99
1, 292460, Control_c, 0, 64, 116
1, 292472, Note_off_c, 0, 57, 62
1, 292475, Note_off_c, 0, 54, 56
1, 292475, Control_c, 0, 64, 127
1, 292587, Control_c, 0, 64, 97
1, 292601, Note_on_c, 0, 62, 75
1, 292601, Control_c, 0, 64, 77
1, 292603, Note_on_c, 0, 50, 63
1, 292616, Control_c, 0, 64, 67
1, 292631, Control_c, 0, 64, 61
1, 292645, Control_c, 0, 64, 57
1, 292675, Control_c, 0, 64, 60
1, 292690, Control_c, 0, 64, 65
1, 292705, Control_c, 0, 64, 74
1, 292720, Control_c, 0, 64, 83
1, 292735, Control_c, 0, 64, 90
1, 292750, Control_c, 0, 64, 91
1, 292756, Note_on_c, 0, 66, 80
1, 292760, Note_on_c, 0, 45, 62
1, 292764, Control_c, 0, 64, 83
1, 292779, Control_c, 0, 64, 66
1, 292785, Note_off_c, 0, 50, 38
1, 292794, Control_c, 0, 64, 0
1, 292824, Note_off_c, 0, 62, 48
1, 292883, Control_c, 0, 64, 47
1, 292898, Control_c, 0, 64, 65
1, 292911, Note_on_c, 0, 69, 82
1, 292912, Control_c, 0, 64, 79
1, 292916, Note_on_c, 0, 42, 60
1, 292927, Control_c, 0, 64, 127
1, 292930, Note_off_c, 0, 45, 54
1, 292985, Note_off_c, 0, 42, 62
1, 293000, Note_off_c, 0, 66, 59
1, 293051, Note_off_c, 0, 69, 59
1, 293147, Note_on_c, 0, 43, 58
1, 293150, Control_c, 0, 64, 75
1, 293152, Note_on_c, 0, 73, 84
1, 293154, Note_on_c, 0, 52, 50
1, 293165, Control_c, 0, 64, 34
1, 293180, Control_c, 0, 64, 0
1, 293321, Control_c, 0, 64, 46
1, 293336, Control_c, 0, 64, 77
1, 293350, Control_c, 0, 64, 95
1, 293365, Control_c, 0, 64, 127
1, 293399, Note_on_c, 0, 67, 71
1, 293411, Note_off_c, 0, 43, 62
1, 293437, Note_off_c, 0, 52, 60
1, 293563, Note_on_c, 0, 71, 79
1, 293566, Note_on_c, 0, 55, 67
1, 293609, Note_off_c, 0, 67, 59
1, 293718, Note_on_c, 0, 64, 67
1, 293753, Note_off_c, 0, 71, 51
1, 293815, Note_off_c, 0, 73, 41
1, 293910, Note_on_c, 0, 70, 79
1, 293915, Note_on_c, 0, 58, 43
1, 293928, Note_on_c, 0, 51, 51
1, 293930, Control_c, 0, 64, 92
1, 293945, Control_c, 0, 64, 68
1, 293949, Note_off_c, 0, 64, 58
1, 293959, Control_c, 0, 64, 47
1, 293974, Control_c, 0, 64, 0
1, 294055, Control_c, 0, 64, 37
1, 294070, Control_c, 0, 64, 52
1, 294085, Control_c, 0, 64, 63
1, 294100, Control_c, 0, 64, 69
1, 294105, Note_on_c, 0, 67, 54
1, 294115, Control_c, 0, 64, 74
1, 294121, Note_off_c, 0, 55, 6
1, 294125, Note_off_c, 0, 58, 61
1, 294130, Control_c, 0, 64, 78
1, 294145, Control_c, 0, 64, 84
1, 294160, Control_c, 0, 64, 89
1, 294174, Control_c, 0, 64, 102
1, 294189, Control_c, 0, 64, 127
1, 294195, Note_off_c, 0, 51, 60
1, 294268, Note_on_c, 0, 69, 68
1, 294293, Note_off_c, 0, 67, 59
1, 294329, Note_off_c, 0, 70, 37
1, 294420, Note_off_c, 0, 69, 59
1, 294424, Note_on_c, 0, 63, 58
1, 294483, Note_off_c, 0, 63, 58
1, 294581, Note_on_c, 0, 67, 57
1, 294582, Note_on_c, 0, 45, 51
1, 294589, Control_c, 0, 64, 101
1, 294604, Control_c, 0, 64, 82
1, 294619, Control_c, 0, 64, 68
1, 294634, Control_c, 0, 64, 56
1, 294648, Control_c, 0, 64, 43
1, 294663, Control_c, 0, 64, 34
1, 294678, Control_c, 0, 64, 36
1, 294693, Control_c, 0, 64, 41
1, 294707, Control_c, 0, 64, 47
1, 294722, Control_c, 0, 64, 52
1, 294735, Note_on_c, 0, 61, 55
1, 294737, Control_c, 0, 64, 55
1, 294752, Control_c, 0, 64, 57
1, 294767, Control_c, 0, 64, 59
1, 294789, Control_c, 0, 64, 60
1, 294803, Control_c, 0, 64, 61
1, 294848, Control_c, 0, 64, 60
1, 294863, Control_c, 0, 64, 59
1, 294878, Control_c, 0, 64, 56
1, 294893, Control_c, 0, 64, 50
1, 294908, Control_c, 0, 64, 34
1, 294909, Note_on_c, 0, 66, 55
1, 294922, Control_c, 0, 64, 0
1, 294926, Note_on_c, 0, 33, 35
1, 294953, Note_off_c, 0, 67, 36
1, 295026, Control_c, 0, 64, 31
1, 295040, Control_c, 0, 64, 46
1, 295055, Control_c, 0, 64, 56
1, 295068, Note_on_c, 0, 55, 47
1, 295070, Control_c, 0, 64, 62
1, 295085, Control_c, 0, 64, 65
1, 295100, Control_c, 0, 64, 66
1, 295114, Control_c, 0, 64, 68
1, 295129, Control_c, 0, 64, 69
1, 295144, Control_c, 0, 64, 70
1, 295159, Control_c, 0, 64, 71
1, 295197, Note_off_c, 0, 66, 33
1, 295213, Note_off_c, 0, 33, 35
1, 295233, Control_c, 0, 64, 69
1, 295248, Control_c, 0, 64, 66
1, 295253, Note_on_c, 0, 64, 44
1, 295262, Note_off_c, 0, 55, 48
1, 295262, Control_c, 0, 64, 58
1, 295266, Note_on_c, 0, 38, 38
1, 295277, Control_c, 0, 64, 33
1, 295286, Note_off_c, 0, 61, 35
1, 295292, Control_c, 0, 64, 0
1, 295308, Note_off_c, 0, 45, 33
1, 295381, Control_c, 0, 64, 30
1, 295396, Control_c, 0, 64, 44
1, 295412, Control_c, 0, 64, 55
1, 295426, Control_c, 0, 64, 62
1, 295441, Control_c, 0, 64, 64
1, 295456, Control_c, 0, 64, 66
1, 295471, Control_c, 0, 64, 67
1, 295474, Note_on_c, 0, 57, 34
1, 295486, Control_c, 0, 64, 69
1, 295501, Control_c, 0, 64, 71
1, 295516, Control_c, 0, 64, 73
1, 295537, Control_c, 0, 64, 75
1, 295552, Control_c, 0, 64, 75
1, 295596, Control_c, 0, 64, 74
1, 295611, Control_c, 0, 64, 70
1, 295626, Control_c, 0, 64, 64
1, 295641, Control_c, 0, 64, 59
1, 295656, Control_c, 0, 64, 55
1, 295671, Control_c, 0, 64, 57
1, 295684, Note_on_c, 0, 62, 35
1, 295686, Control_c, 0, 64, 60
1, 295695, Note_on_c, 0, 45, 31
1, 295701, Control_c, 0, 64, 64
1, 295707, Note_off_c, 0, 57, 45
1, 295716, Control_c, 0, 64, 69
1, 295724, Note_off_c, 0, 38, 55
1, 295730, Control_c, 0, 64, 74
1, 295740, Note_off_c, 0, 64, 59
1, 295745, Control_c, 0, 64, 80
1, 295760, Control_c, 0, 64, 86
1, 295775, Control_c, 0, 64, 95
1, 295789, Control_c, 0, 64, 114
1, 295792, Note_off_c, 0, 45, 56
1, 295804, Control_c, 0, 64, 127
1, 295819, Control_c, 0, 67, 19
1, 295979, Note_off_c, 0, 62, 54
1, 295982, Control_c, 0, 67, 0
1, 295983, Note_on_c, 0, 54, 19
1, 296025, Note_off_c, 0, 54, 40
1, 296047, Note_on_c, 0, 43, 41
1, 296137, Note_on_c, 0, 52, 43
1, 296265, Control_c, 0, 64, 114
1, 296287, Control_c, 0, 64, 107
1, 296302, Control_c, 0, 64, 99
1, 296317, Note_on_c, 0, 58, 42
1, 296317, Control_c, 0, 64, 88
1, 296332, Control_c, 0, 64, 74
1, 296339, Note_on_c, 0, 70, 52
1, 296347, Control_c, 0, 64, 62
1, 296362, Control_c, 0, 64, 46
1, 296376, Control_c, 0, 64, 0
1, 296420, Control_c, 0, 64, 40
1, 296435, Control_c, 0, 64, 56
1, 296450, Control_c, 0, 64, 65
1, 296465, Control_c, 0, 64, 71
1, 296480, Control_c, 0, 64, 78
1, 296494, Control_c, 0, 64, 83
1, 296509, Control_c, 0, 64, 86
1, 296524, Control_c, 0, 64, 88
1, 296539, Control_c, 0, 64, 90
1, 296554, Control_c, 0, 64, 93
1, 296568, Control_c, 0, 64, 95
1, 296583, Control_c, 0, 64, 98
1, 296598, Control_c, 0, 64, 100
1, 296628, Control_c, 0, 64, 102
1, 296637, Note_on_c, 0, 74, 47
1, 296672, Control_c, 0, 64, 104
1, 296673, Note_off_c, 0, 58, 55
1, 296784, Note_off_c, 0, 52, 35
1, 296816, Note_off_c, 0, 74, 30
1, 296825, Note_on_c, 0, 69, 56
1, 296879, Control_c, 0, 64, 106
1, 296909, Note_off_c, 0, 43, 39
1, 296925, Note_off_c, 0, 70, 39
1, 297010, Note_on_c, 0, 74, 51
1, 297140, Control_c, 0, 64, 104
1, 297155, Control_c, 0, 64, 96
1, 297169, Control_c, 0, 64, 85
1, 297184, Control_c, 0, 64, 74
1, 297198, Note_on_c, 0, 67, 53
1, 297199, Control_c, 0, 64, 66
1, 297203, Note_on_c, 0, 45, 37
1, 297214, Control_c, 0, 64, 61
1, 297221, Note_off_c, 0, 74, 32
1, 297229, Control_c, 0, 64, 58
1, 297258, Control_c, 0, 64, 59
1, 297262, Note_off_c, 0, 69, 53
1, 297273, Control_c, 0, 64, 60
1, 297281, Note_off_c, 0, 45, 53
1, 297288, Control_c, 0, 64, 62
1, 297303, Control_c, 0, 64, 64
1, 297317, Control_c, 0, 64, 67
1, 297331, Note_on_c, 0, 38, 41
1, 297332, Control_c, 0, 64, 69
1, 297347, Control_c, 0, 64, 71
1, 297361, Control_c, 0, 64, 73
1, 297376, Control_c, 0, 64, 75
1, 297391, Control_c, 0, 64, 76
1, 297395, Note_on_c, 0, 74, 47
1, 297406, Control_c, 0, 64, 78
1, 297421, Control_c, 0, 64, 81
1, 297436, Control_c, 0, 64, 83
1, 297442, Note_on_c, 0, 45, 37
1, 297450, Control_c, 0, 64, 85
1, 297465, Control_c, 0, 64, 87
1, 297480, Control_c, 0, 64, 88
1, 297490, Note_off_c, 0, 38, 34
1, 297492, Note_off_c, 0, 45, 57
1, 297495, Control_c, 0, 64, 89
1, 297510, Control_c, 0, 64, 91
1, 297525, Control_c, 0, 64, 92
1, 297540, Note_on_c, 0, 66, 57
1, 297540, Control_c, 0, 64, 94
1, 297554, Control_c, 0, 64, 95
1, 297564, Note_off_c, 0, 74, 54
1, 297566, Note_on_c, 0, 50, 38
1, 297569, Control_c, 0, 64, 96
1, 297584, Control_c, 0, 64, 98
1, 297594, Note_off_c, 0, 67, 37
1, 297599, Control_c, 0, 64, 100
1, 297628, Control_c, 0, 64, 103
1, 297638, Note_off_c, 0, 50, 49
1, 297673, Control_c, 0, 64, 105
1, 297694, Note_on_c, 0, 74, 57
1, 297702, Control_c, 0, 64, 107
1, 297716, Note_on_c, 0, 54, 36
1, 297855, Note_on_c, 0, 64, 62
1, 297864, Note_off_c, 0, 54, 48
1, 297865, Note_on_c, 0, 57, 47
1, 297904, Note_off_c, 0, 74, 37
1, 297912, Note_off_c, 0, 57, 60
1, 297978, Control_c, 0, 64, 109
1, 298007, Control_c, 0, 64, 111
1, 298009, Note_on_c, 0, 74, 62
1, 298010, Note_off_c, 0, 66, 25
1, 298011, Note_off_c, 0, 64, 61
1, 298037, Control_c, 0, 64, 114
1, 298052, Control_c, 0, 64, 116
1, 298066, Control_c, 0, 64, 118
1, 298081, Control_c, 0, 64, 120
1, 298096, Control_c, 0, 64, 122
1, 298111, Control_c, 0, 64, 125
1, 298126, Control_c, 0, 64, 127
1, 298142, Note_on_c, 0, 62, 63
1, 298157, Note_off_c, 0, 74, 52
1, 298270, Note_on_c, 0, 43, 55
1, 298279, Note_on_c, 0, 74, 65
1, 298285, Note_off_c, 0, 62, 48
1, 298330, Note_off_c, 0, 74, 54
1, 298360, Note_on_c, 0, 50, 54
1, 298392, Control_c, 0, 64, 119
1, 298407, Control_c, 0, 64, 113
1, 298422, Control_c, 0, 64, 105
1, 298437, Control_c, 0, 64, 94
1, 298451, Control_c, 0, 64, 81
1, 298466, Control_c, 0, 64, 70
1, 298476, Note_on_c, 0, 58, 49
1, 298481, Control_c, 0, 64, 60
1, 298482, Note_on_c, 0, 70, 73
1, 298496, Control_c, 0, 64, 54
1, 298510, Control_c, 0, 64, 53
1, 298533, Control_c, 0, 64, 57
1, 298547, Control_c, 0, 64, 61
1, 298562, Control_c, 0, 64, 65
1, 298577, Control_c, 0, 64, 70
1, 298592, Control_c, 0, 64, 77
1, 298607, Control_c, 0, 64, 84
1, 298622, Control_c, 0, 64, 93
1, 298637, Control_c, 0, 64, 105
1, 298652, Control_c, 0, 64, 127
1, 298691, Note_off_c, 0, 58, 58
1, 298693, Note_on_c, 0, 76, 68
1, 298735, Note_off_c, 0, 43, 36
1, 298813, Note_off_c, 0, 50, 42
1, 298850, Note_on_c, 0, 69, 68
1, 298886, Note_off_c, 0, 76, 56
1, 298902, Note_off_c, 0, 70, 56
1, 298998, Note_on_c, 0, 76, 74
1, 299036, Note_off_c, 0, 69, 59
1, 299156, Control_c, 0, 64, 103
1, 299167, Note_on_c, 0, 67, 74
1, 299170, Control_c, 0, 64, 78
1, 299175, Note_on_c, 0, 42, 49
1, 299182, Note_off_c, 0, 76, 57
1, 299185, Control_c, 0, 64, 62
1, 299200, Control_c, 0, 64, 53
1, 299214, Control_c, 0, 64, 53
1, 299229, Control_c, 0, 64, 57
1, 299244, Control_c, 0, 64, 62
1, 299259, Control_c, 0, 64, 66
1, 299274, Control_c, 0, 64, 73
1, 299296, Control_c, 0, 64, 80
1, 299311, Control_c, 0, 64, 88
1, 299314, Note_off_c, 0, 42, 53
1, 299322, Note_on_c, 0, 34, 50
1, 299325, Control_c, 0, 64, 99
1, 299340, Control_c, 0, 64, 127
1, 299374, Note_on_c, 0, 78, 70
1, 299383, Note_off_c, 0, 67, 60
1, 299428, Note_off_c, 0, 34, 58
1, 299439, Note_on_c, 0, 42, 55
1, 299510, Note_off_c, 0, 42, 61
1, 299519, Note_on_c, 0, 66, 76
1, 299522, Note_on_c, 0, 49, 50
1, 299555, Note_off_c, 0, 78, 58
1, 299568, Note_off_c, 0, 49, 62
1, 299662, Note_on_c, 0, 78, 77
1, 299674, Note_on_c, 0, 54, 50
1, 299782, Note_off_c, 0, 54, 59
1, 299814, Note_on_c, 0, 70, 82
1, 299819, Note_on_c, 0, 61, 64
1, 299853, Note_off_c, 0, 61, 61
1, 299867, Note_off_c, 0, 78, 55
1, 299938, Note_off_c, 0, 66, 38
1, 299990, Note_on_c, 0, 78, 71
1, 300163, Note_on_c, 0, 73, 84
1, 300175, Note_off_c, 0, 78, 47
1, 300199, Note_off_c, 0, 70, 62
1, 300306, Note_on_c, 0, 45, 53
1, 300316, Note_on_c, 0, 78, 70
1, 300330, Note_off_c, 0, 73, 60
1, 300363, Note_off_c, 0, 78, 57
1, 300393, Note_on_c, 0, 55, 47
1, 300539, Note_on_c, 0, 61, 47
1, 300549, Control_c, 0, 64, 94
1, 300563, Note_on_c, 0, 78, 79
1, 300564, Control_c, 0, 64, 70
1, 300578, Control_c, 0, 64, 54
1, 300593, Control_c, 0, 64, 0
1, 300697, Control_c, 0, 64, 47
1, 300712, Control_c, 0, 64, 61
1, 300726, Control_c, 0, 64, 68
1, 300741, Control_c, 0, 64, 74
1, 300756, Control_c, 0, 64, 82
1, 300771, Control_c, 0, 64, 91
1, 300793, Control_c, 0, 64, 102
1, 300798, Note_off_c, 0, 61, 59
1, 300808, Control_c, 0, 64, 127
1, 300828, Note_on_c, 0, 81, 59
1, 300838, Note_off_c, 0, 55, 58
1, 300946, Note_off_c, 0, 45, 41
1, 300981, Note_off_c, 0, 81, 55
1, 300986, Note_on_c, 0, 76, 67
1, 301037, Note_off_c, 0, 78, 55
1, 301131, Note_on_c, 0, 81, 61
1, 301269, Control_c, 0, 64, 103
1, 301275, Note_on_c, 0, 45, 44
1, 301283, Control_c, 0, 64, 81
1, 301298, Control_c, 0, 64, 68
1, 301300, Note_on_c, 0, 74, 61
1, 301313, Control_c, 0, 64, 59
1, 301315, Note_off_c, 0, 81, 40
1, 301325, Note_off_c, 0, 45, 58
1, 301327, Control_c, 0, 64, 51
1, 301334, Note_off_c, 0, 76, 54
1, 301342, Control_c, 0, 64, 50
1, 301357, Control_c, 0, 64, 56
1, 301372, Control_c, 0, 64, 63
1, 301377, Note_on_c, 0, 38, 45
1, 301387, Control_c, 0, 64, 67
1, 301401, Control_c, 0, 64, 72
1, 301416, Control_c, 0, 64, 77
1, 301431, Control_c, 0, 64, 82
1, 301446, Control_c, 0, 64, 87
1, 301457, Note_off_c, 0, 38, 55
1, 301461, Control_c, 0, 64, 93
1, 301462, Note_on_c, 0, 45, 50
1, 301465, Note_on_c, 0, 81, 52
1, 301475, Control_c, 0, 64, 106
1, 301490, Control_c, 0, 64, 127
1, 301501, Note_off_c, 0, 45, 62
1, 301558, Note_off_c, 0, 74, 37
1, 301569, Note_on_c, 0, 50, 38
1, 301603, Note_off_c, 0, 50, 51
1, 301612, Note_on_c, 0, 73, 58
1, 301624, Note_off_c, 0, 81, 54
1, 301659, Note_on_c, 0, 54, 42
1, 301716, Note_off_c, 0, 54, 60
1, 301733, Note_on_c, 0, 57, 47
1, 301759, Note_on_c, 0, 81, 51
1, 301763, Note_off_c, 0, 57, 54
1, 301798, Note_on_c, 0, 62, 51
1, 301829, Note_off_c, 0, 62, 61
1, 301915, Note_on_c, 0, 66, 44
1, 301919, Note_on_c, 0, 71, 57
1, 301940, Note_off_c, 0, 66, 57
1, 301951, Note_off_c, 0, 81, 43
1, 301961, Note_off_c, 0, 73, 37
1, 302050, Note_off_c, 0, 71, 55
1, 302065, Note_on_c, 0, 81, 57
1, 302195, Control_c, 0, 67, 19
1, 302205, Note_off_c, 0, 81, 38
1, 302220, Note_on_c, 0, 69, 49
1, 302224, Control_c, 0, 67, 22
1, 302239, Control_c, 0, 67, 24
1, 302254, Control_c, 0, 67, 28
1, 302355, Note_on_c, 0, 81, 52
1, 302363, Note_on_c, 0, 43, 41
1, 302366, Note_off_c, 0, 69, 34
1, 302390, Note_off_c, 0, 81, 63
1, 302429, Note_on_c, 0, 52, 47
1, 302498, Control_c, 0, 64, 107
1, 302513, Control_c, 0, 64, 99
1, 302528, Control_c, 0, 64, 93
1, 302543, Control_c, 0, 64, 88
1, 302557, Control_c, 0, 64, 82
1, 302561, Note_on_c, 0, 58, 41
1, 302563, Note_on_c, 0, 70, 56
1, 302572, Control_c, 0, 64, 69
1, 302587, Control_c, 0, 64, 57
1, 302603, Control_c, 0, 64, 0
1, 302692, Control_c, 0, 67, 30
1, 302706, Control_c, 0, 64, 45
1, 302721, Control_c, 0, 64, 58
1, 302721, Control_c, 0, 67, 33
1, 302736, Control_c, 0, 64, 64
1, 302736, Control_c, 0, 67, 37
1, 302751, Control_c, 0, 64, 67
1, 302751, Control_c, 0, 67, 41
1, 302761, Note_on_c, 0, 74, 52
1, 302766, Control_c, 0, 64, 71
1, 302766, Control_c, 0, 67, 43
1, 302780, Control_c, 0, 64, 73
1, 302788, Note_off_c, 0, 58, 61
1, 302795, Control_c, 0, 64, 76
1, 302810, Control_c, 0, 64, 80
1, 302810, Control_c, 0, 67, 42
1, 302815, Note_off_c, 0, 52, 52
1, 302825, Control_c, 0, 64, 84
1, 302825, Control_c, 0, 67, 42
1, 302840, Control_c, 0, 64, 90
1, 302840, Control_c, 0, 67, 41
1, 302855, Control_c, 0, 64, 96
1, 302855, Control_c, 0, 67, 41
1, 302870, Control_c, 0, 64, 106
1, 302870, Control_c, 0, 67, 40
1, 302885, Control_c, 0, 64, 115
1, 302885, Control_c, 0, 67, 39
1, 302899, Control_c, 0, 64, 127
1, 302899, Control_c, 0, 67, 39
1, 302905, Note_off_c, 0, 74, 36
1, 302914, Control_c, 0, 67, 38
1, 302921, Note_on_c, 0, 69, 50
1, 302923, Note_off_c, 0, 43, 42
1, 302929, Control_c, 0, 67, 37
1, 302944, Control_c, 0, 67, 37
1, 302959, Control_c, 0, 67, 36
1, 302973, Control_c, 0, 67, 36
1, 302988, Control_c, 0, 67, 35
1, 302992, Note_off_c, 0, 70, 38
1, 303055, Control_c, 0, 67, 35
1, 303081, Note_on_c, 0, 74, 46
1, 303099, Control_c, 0, 67, 34
1, 303188, Control_c, 0, 64, 105
1, 303203, Control_c, 0, 64, 92
1, 303203, Control_c, 0, 67, 34
1, 303218, Control_c, 0, 64, 80
1, 303226, Note_on_c, 0, 45, 44
1, 303232, Control_c, 0, 64, 72
1, 303232, Control_c, 0, 67, 33
1, 303243, Note_on_c, 0, 67, 50
1, 303247, Control_c, 0, 64, 65
1, 303247, Control_c, 0, 67, 33
1, 303252, Note_off_c, 0, 74, 36
1, 303262, Control_c, 0, 64, 61
1, 303262, Control_c, 0, 67, 32
1, 303292, Control_c, 0, 64, 63
1, 303292, Control_c, 0, 67, 30
1, 303297, Note_off_c, 0, 69, 41
1, 303306, Control_c, 0, 64, 65
1, 303308, Note_off_c, 0, 45, 54
1, 303321, Control_c, 0, 64, 68
1, 303321, Control_c, 0, 67, 27
1, 303336, Control_c, 0, 64, 71
1, 303336, Control_c, 0, 67, 19
1, 303347, Note_on_c, 0, 38, 46
1, 303351, Control_c, 0, 64, 73
1, 303351, Control_c, 0, 67, 0
1, 303366, Control_c, 0, 64, 77
1, 303380, Control_c, 0, 64, 80
1, 303396, Control_c, 0, 64, 82
1, 303408, Note_on_c, 0, 74, 45
1, 303411, Control_c, 0, 64, 84
1, 303426, Control_c, 0, 64, 87
1, 303441, Control_c, 0, 64, 91
1, 303456, Control_c, 0, 64, 94
1, 303465, Note_on_c, 0, 45, 49
1, 303470, Note_off_c, 0, 38, 57
1, 303471, Control_c, 0, 64, 98
1, 303485, Control_c, 0, 64, 100
1, 303515, Control_c, 0, 64, 103
1, 303529, Note_off_c, 0, 45, 56
1, 303544, Control_c, 0, 64, 106
1, 303559, Note_on_c, 0, 66, 57
1, 303579, Note_on_c, 0, 50, 46
1, 303582, Note_off_c, 0, 74, 52
1, 303588, Note_off_c, 0, 67, 40
1, 303603, Control_c, 0, 64, 108
1, 303633, Control_c, 0, 64, 111
1, 303645, Note_off_c, 0, 50, 51
1, 303693, Control_c, 0, 64, 114
1, 303704, Note_on_c, 0, 74, 65
1, 303726, Note_on_c, 0, 54, 47
1, 303767, Control_c, 0, 64, 116
1, 303804, Control_c, 0, 64, 118
1, 303849, Control_c, 0, 64, 120
1, 303854, Note_off_c, 0, 54, 63
1, 303863, Control_c, 0, 64, 122
1, 303868, Note_on_c, 0, 64, 61
1, 303871, Note_on_c, 0, 57, 52
1, 303878, Control_c, 0, 64, 125
1, 303893, Control_c, 0, 64, 127
1, 303896, Note_off_c, 0, 74, 51
1, 303916, Note_off_c, 0, 57, 61
1, 303949, Note_off_c, 0, 66, 47
1, 304027, Note_off_c, 0, 64, 61
1, 304031, Note_on_c, 0, 74, 47
1, 304160, Note_on_c, 0, 62, 61
1, 304202, Note_off_c, 0, 74, 38
1, 304307, Note_on_c, 0, 43, 47
1, 304307, Note_on_c, 0, 74, 62
1, 304309, Note_off_c, 0, 62, 55
1, 304346, Note_off_c, 0, 74, 58
1, 304388, Note_on_c, 0, 50, 56
1, 304442, Control_c, 0, 64, 103
1, 304457, Control_c, 0, 64, 83
1, 304471, Control_c, 0, 64, 69
1, 304474, Note_on_c, 0, 58, 58
1, 304478, Note_on_c, 0, 70, 72
1, 304486, Control_c, 0, 64, 56
1, 304501, Control_c, 0, 64, 36
1, 304516, Control_c, 0, 64, 0
1, 304553, Control_c, 0, 64, 29
1, 304568, Control_c, 0, 64, 44
1, 304583, Control_c, 0, 64, 56
1, 304598, Control_c, 0, 64, 63
1, 304613, Control_c, 0, 64, 68
1, 304627, Control_c, 0, 64, 74
1, 304642, Control_c, 0, 64, 81
1, 304657, Control_c, 0, 64, 91
1, 304659, Note_on_c, 0, 76, 67
1, 304671, Note_off_c, 0, 58, 62
1, 304672, Control_c, 0, 64, 114
1, 304685, Note_off_c, 0, 43, 34
1, 304686, Control_c, 0, 64, 127
1, 304748, Note_off_c, 0, 50, 59
1, 304804, Note_on_c, 0, 69, 71
1, 304832, Note_off_c, 0, 76, 57
1, 304852, Note_off_c, 0, 70, 60
1, 304944, Note_on_c, 0, 76, 76
1, 304989, Note_off_c, 0, 69, 60
1, 305102, Control_c, 0, 64, 104
1, 305117, Control_c, 0, 64, 75
1, 305125, Note_on_c, 0, 42, 58
1, 305129, Note_on_c, 0, 67, 73
1, 305132, Control_c, 0, 64, 59
1, 305147, Control_c, 0, 64, 39
1, 305160, Note_off_c, 0, 76, 58
1, 305161, Control_c, 0, 64, 0
1, 305205, Control_c, 0, 64, 31
1, 305220, Control_c, 0, 64, 37
1, 305235, Control_c, 0, 64, 47
1, 305249, Control_c, 0, 64, 57
1, 305272, Control_c, 0, 64, 63
1, 305284, Note_off_c, 0, 42, 62
1, 305284, Note_on_c, 0, 34, 54
1, 305287, Control_c, 0, 64, 69
1, 305301, Control_c, 0, 64, 78
1, 305316, Control_c, 0, 64, 93
1, 305331, Control_c, 0, 64, 127
1, 305341, Note_on_c, 0, 78, 69
1, 305342, Note_off_c, 0, 67, 61
1, 305395, Note_off_c, 0, 34, 60
1, 305402, Note_on_c, 0, 42, 58
1, 305475, Note_off_c, 0, 42, 62
1, 305478, Note_on_c, 0, 66, 76
1, 305489, Note_on_c, 0, 49, 47
1, 305512, Note_off_c, 0, 78, 59
1, 305539, Note_off_c, 0, 49, 60
1, 305625, Note_on_c, 0, 78, 76
1, 305633, Note_on_c, 0, 54, 61
1, 305749, Note_off_c, 0, 54, 61
1, 305774, Note_on_c, 0, 61, 71
1, 305775, Note_on_c, 0, 70, 82
1, 305809, Note_off_c, 0, 61, 59
1, 305821, Note_off_c, 0, 78, 58
1, 305858, Note_off_c, 0, 66, 51
1, 305931, Note_on_c, 0, 78, 78
1, 306093, Note_on_c, 0, 73, 86
1, 306122, Note_off_c, 0, 78, 59
1, 306129, Note_off_c, 0, 70, 61
1, 306239, Note_on_c, 0, 78, 82
1, 306260, Note_off_c, 0, 73, 60
1, 306271, Note_on_c, 0, 46, 67
1, 306304, Note_off_c, 0, 78, 65
1, 306337, Note_on_c, 0, 56, 69
1, 306478, Note_on_c, 0, 79, 96
1, 306480, Control_c, 0, 64, 79
1, 306483, Note_on_c, 0, 62, 70
1, 306495, Control_c, 0, 64, 51
1, 306509, Control_c, 0, 64, 0
1, 306614, Control_c, 0, 64, 49
1, 306629, Control_c, 0, 64, 62
1, 306644, Control_c, 0, 64, 68
1, 306659, Control_c, 0, 64, 77
1, 306673, Control_c, 0, 64, 98
1, 306688, Control_c, 0, 64, 127
1, 306697, Note_off_c, 0, 62, 54
1, 306738, Note_on_c, 0, 82, 75
1, 306786, Note_off_c, 0, 56, 56
1, 306793, Note_off_c, 0, 46, 61
1, 306903, Note_on_c, 0, 77, 80
1, 306906, Note_off_c, 0, 79, 61
1, 306953, Note_off_c, 0, 82, 61
1, 307060, Note_on_c, 0, 82, 77
1, 307126, Note_off_c, 0, 77, 59
1, 307170, Control_c, 0, 64, 92
1, 307185, Control_c, 0, 64, 68
1, 307199, Control_c, 0, 64, 48
1, 307204, Note_on_c, 0, 46, 64
1, 307204, Note_on_c, 0, 75, 79
1, 307214, Control_c, 0, 64, 0
1, 307229, Control_c, 0, 64, 35
1, 307234, Note_off_c, 0, 82, 60
1, 307244, Control_c, 0, 64, 55
1, 307259, Control_c, 0, 64, 73
1, 307273, Control_c, 0, 64, 109
1, 307288, Control_c, 0, 64, 127
1, 307299, Note_off_c, 0, 46, 61
1, 307312, Note_on_c, 0, 39, 62
1, 307365, Note_on_c, 0, 46, 52
1, 307376, Note_on_c, 0, 82, 68
1, 307388, Note_off_c, 0, 39, 60
1, 307442, Note_off_c, 0, 46, 63
1, 307445, Note_on_c, 0, 51, 63
1, 307495, Note_off_c, 0, 51, 59
1, 307498, Note_off_c, 0, 75, 62
1, 307502, Note_on_c, 0, 74, 87
1, 307506, Note_off_c, 0, 82, 57
1, 307531, Note_on_c, 0, 55, 62
1, 307561, Note_off_c, 0, 55, 65
1, 307627, Note_on_c, 0, 58, 60
1, 307642, Note_on_c, 0, 82, 75
1, 307668, Note_off_c, 0, 74, 59
1, 307683, Note_on_c, 0, 63, 60
1, 307706, Note_off_c, 0, 58, 57
1, 307743, Note_off_c, 0, 63, 64
1, 307775, Note_on_c, 0, 67, 72
1, 307776, Note_on_c, 0, 72, 79
1, 307792, Note_off_c, 0, 82, 56
1, 307808, Note_off_c, 0, 67, 64
1, 307928, Note_on_c, 0, 82, 70
1, 307981, Note_off_c, 0, 72, 60
1, 308075, Note_on_c, 0, 70, 73
1, 308098, Note_off_c, 0, 82, 57
1, 308215, Note_on_c, 0, 82, 71
1, 308229, Note_off_c, 0, 70, 62
1, 308257, Note_on_c, 0, 45, 71
1, 308277, Note_off_c, 0, 82, 58
1, 308328, Note_on_c, 0, 55, 60
1, 308401, Control_c, 0, 64, 103
1, 308416, Control_c, 0, 64, 65
1, 308427, Note_on_c, 0, 61, 78
1, 308429, Note_on_c, 0, 78, 82
1, 308431, Control_c, 0, 64, 0
1, 308534, Control_c, 0, 64, 57
1, 308549, Control_c, 0, 64, 83
1, 308563, Control_c, 0, 64, 127
1, 308638, Note_off_c, 0, 61, 60
1, 308663, Note_on_c, 0, 82, 71
1, 308670, Note_off_c, 0, 55, 62
1, 308730, Note_off_c, 0, 45, 36
1, 308797, Note_on_c, 0, 76, 81
1, 308840, Note_off_c, 0, 82, 61
1, 308949, Note_on_c, 0, 82, 79
1, 308993, Note_off_c, 0, 76, 60
1, 309076, Control_c, 0, 64, 114
1, 309091, Control_c, 0, 64, 77
1, 309097, Note_on_c, 0, 38, 79
1, 309106, Control_c, 0, 64, 59
1, 309112, Note_on_c, 0, 74, 78
1, 309121, Control_c, 0, 64, 35
1, 309136, Control_c, 0, 64, 33
1, 309151, Control_c, 0, 64, 55
1, 309165, Control_c, 0, 64, 71
1, 309180, Control_c, 0, 64, 100
1, 309190, Note_off_c, 0, 82, 37
1, 309195, Control_c, 0, 64, 127
1, 309252, Note_on_c, 0, 45, 67
1, 309262, Note_off_c, 0, 74, 61
1, 309267, Note_on_c, 0, 82, 86
1, 309279, Note_off_c, 0, 38, 61
1, 309324, Note_off_c, 0, 78, 48
1, 309355, Note_off_c, 0, 45, 62
1, 309402, Note_on_c, 0, 54, 67
1, 309407, Note_on_c, 0, 73, 88
1, 309432, Note_off_c, 0, 54, 66
1, 309539, Note_on_c, 0, 83, 81
1, 309540, Note_on_c, 0, 62, 77
1, 309568, Note_off_c, 0, 73, 60
1, 309586, Note_off_c, 0, 82, 56
1, 309604, Note_off_c, 0, 83, 65
1, 309684, Note_on_c, 0, 71, 87
1, 309827, Note_on_c, 0, 85, 92
1, 309919, Note_off_c, 0, 71, 59
1, 309946, Note_off_c, 0, 62, 53
1, 309976, Note_on_c, 0, 69, 85
1, 310017, Note_off_c, 0, 69, 64
1, 310106, Note_on_c, 0, 86, 83
1, 310143, Note_on_c, 0, 57, 75
1, 310190, Note_on_c, 0, 61, 71
1, 310219, Note_off_c, 0, 85, 27
1, 310229, Note_off_c, 0, 86, 51
1, 310239, Control_c, 0, 64, 113
1, 310254, Control_c, 0, 64, 68
1, 310268, Note_on_c, 0, 67, 78
1, 310269, Control_c, 0, 64, 0
1, 310278, Note_on_c, 0, 78, 91
1, 310328, Control_c, 0, 64, 55
1, 310343, Control_c, 0, 64, 84
1, 310358, Control_c, 0, 64, 127
1, 310391, Note_off_c, 0, 67, 61
1, 310441, Note_off_c, 0, 57, 64
1, 310457, Note_off_c, 0, 61, 60
1, 310490, Note_on_c, 0, 85, 80
1, 310539, Note_off_c, 0, 78, 60
1, 310644, Note_on_c, 0, 76, 93
1, 310690, Note_off_c, 0, 85, 58
1, 310790, Note_on_c, 0, 85, 85
1, 310844, Note_off_c, 0, 76, 60
1, 310929, Note_on_c, 0, 38, 87
1, 310947, Note_on_c, 0, 74, 90
1, 310958, Control_c, 0, 64, 103
1, 310973, Control_c, 0, 64, 59
1, 310988, Control_c, 0, 64, 0
1, 310994, Note_off_c, 0, 85, 56
1, 311033, Control_c, 0, 64, 45
1, 311047, Control_c, 0, 64, 78
1, 311062, Control_c, 0, 64, 127
1, 311092, Note_on_c, 0, 45, 73
1, 311097, Note_on_c, 0, 85, 84
1, 311116, Note_off_c, 0, 74, 63
1, 311121, Note_off_c, 0, 38, 63
1, 311194, Note_off_c, 0, 45, 62
1, 311233, Note_on_c, 0, 54, 71
1, 311241, Note_on_c, 0, 73, 90
1, 311270, Note_off_c, 0, 54, 66
1, 311378, Note_on_c, 0, 86, 83
1, 311379, Note_on_c, 0, 62, 85
1, 311407, Note_off_c, 0, 73, 61
1, 311437, Note_off_c, 0, 85, 58
1, 311466, Note_off_c, 0, 86, 60
1, 311529, Note_on_c, 0, 71, 93
1, 311651, Note_on_c, 0, 88, 94
1, 311744, Note_off_c, 0, 71, 61
1, 311766, Note_off_c, 0, 62, 51
1, 311802, Note_on_c, 0, 69, 88
1, 311839, Note_off_c, 0, 69, 67
1, 311930, Note_on_c, 0, 90, 90
1, 311968, Note_off_c, 0, 88, 57
1, 312134, Note_on_c, 0, 38, 82
1, 312134, Note_on_c, 0, 78, 97
1, 312136, Note_on_c, 0, 45, 90
1, 312142, Note_on_c, 0, 85, 88
1, 312145, Control_c, 0, 64, 71
1, 312160, Control_c, 0, 64, 44
1, 312175, Note_off_c, 0, 90, 44
1, 312175, Control_c, 0, 64, 0
1, 312206, Control_c, 0, 64, 52
1, 312220, Control_c, 0, 64, 100
1, 312233, Note_off_c, 0, 38, 63
1, 312235, Control_c, 0, 64, 127
1, 312242, Note_off_c, 0, 45, 63
1, 312358, Note_off_c, 0, 78, 57
1, 312362, Note_on_c, 0, 91, 77
1, 312372, Note_off_c, 0, 85, 63
1, 312426, Note_off_c, 0, 91, 58
1, 312495, Note_on_c, 0, 76, 81
1, 312497, Note_on_c, 0, 85, 78
1, 312585, Note_off_c, 0, 76, 57
1, 312638, Note_on_c, 0, 91, 70
1, 312640, Note_on_c, 0, 62, 66
1, 312674, Note_off_c, 0, 85, 63
1, 312676, Note_on_c, 0, 66, 69
1, 312716, Note_on_c, 0, 69, 61
1, 312751, Note_off_c, 0, 62, 58
1, 312772, Note_on_c, 0, 74, 86
1, 312782, Note_on_c, 0, 81, 68
1, 312788, Note_on_c, 0, 86, 69
1, 312801, Note_off_c, 0, 91, 39
1, 312805, Note_off_c, 0, 66, 49
1, 312933, Note_off_c, 0, 74, 61
1, 312941, Note_on_c, 0, 93, 77
1, 312979, Note_off_c, 0, 81, 59
1, 312981, Note_off_c, 0, 86, 46
1, 313038, Note_off_c, 0, 69, 17
1, 313068, Note_on_c, 0, 61, 76
1, 313073, Note_on_c, 0, 73, 79
1, 313080, Note_on_c, 0, 86, 84
1, 313082, Note_on_c, 0, 81, 78
1, 313110, Note_off_c, 0, 93, 54
1, 313160, Note_off_c, 0, 73, 62
1, 313188, Note_off_c, 0, 61, 60
1, 313205, Note_on_c, 0, 93, 83
1, 313236, Note_off_c, 0, 86, 56
1, 313239, Note_off_c, 0, 81, 60
1, 313301, Poly_aftertouch_c, 0, 66, 127
1, 313331, Note_on_c, 0, 59, 66
1, 313336, Note_on_c, 0, 71, 70
1, 313342, Poly_aftertouch_c, 0, 66, 0
1, 313342, Note_on_c, 0, 86, 80
1, 313344, Note_on_c, 0, 81, 80
1, 313383, Note_off_c, 0, 93, 59
1, 313450, Note_off_c, 0, 59, 56
1, 313470, Note_on_c, 0, 93, 83
1, 313475, Note_on_c, 0, 66, 23
1, 313492, Note_off_c, 0, 81, 63
1, 313494, Note_off_c, 0, 71, 56
1, 313514, Note_off_c, 0, 86, 57
1, 313564, Poly_aftertouch_c, 0, 90, 127
1, 313567, Poly_aftertouch_c, 0, 63, 127
1, 313591, Note_off_c, 0, 66, 26
1, 313600, Note_on_c, 0, 57, 83
1, 313604, Poly_aftertouch_c, 0, 90, 0
1, 313605, Poly_aftertouch_c, 0, 63, 0
1, 313613, Note_on_c, 0, 86, 86
1, 313614, Note_on_c, 0, 81, 80
1, 313634, Note_off_c, 0, 57, 62
1, 313644, Note_off_c, 0, 93, 61
1, 313699, Note_off_c, 0, 81, 58
1, 313736, Note_on_c, 0, 93, 88
1, 313762, Note_off_c, 0, 86, 60
1, 313890, Note_on_c, 0, 38, 92
1, 313892, Note_on_c, 0, 45, 96
1, 313894, Control_c, 0, 64, 69
1, 313895, Note_on_c, 0, 85, 87
1, 313896, Note_on_c, 0, 78, 90
1, 313909, Note_off_c, 0, 93, 49
1, 313909, Control_c, 0, 64, 29
1, 313924, Control_c, 0, 64, 0
1, 313938, Control_c, 0, 64, 30
1, 313953, Control_c, 0, 64, 57
1, 313954, Note_off_c, 0, 45, 64
1, 313957, Note_off_c, 0, 38, 64
1, 313968, Control_c, 0, 64, 83
1, 313983, Control_c, 0, 64, 127
1, 314048, Note_off_c, 0, 78, 54
1, 314060, Note_on_c, 0, 91, 73
1, 314060, Note_off_c, 0, 85, 62
1, 314129, Note_off_c, 0, 91, 58
1, 314188, Note_on_c, 0, 85, 81
1, 314191, Note_on_c, 0, 76, 76
1, 314278, Note_off_c, 0, 76, 57
1, 314324, Note_on_c, 0, 62, 71
1, 314326, Note_on_c, 0, 91, 74
1, 314357, Note_on_c, 0, 66, 70
1, 314374, Note_off_c, 0, 85, 59
1, 314384, Note_on_c, 0, 69, 66
1, 314415, Note_off_c, 0, 62, 59
1, 314444, Note_on_c, 0, 74, 91
1, 314454, Note_on_c, 0, 86, 76
1, 314454, Note_on_c, 0, 81, 76
1, 314468, Note_off_c, 0, 91, 50
1, 314505, Note_off_c, 0, 66, 55
1, 314601, Note_on_c, 0, 93, 80
1, 314606, Note_off_c, 0, 74, 59
1, 314630, Note_off_c, 0, 81, 61
1, 314637, Note_off_c, 0, 69, 37
1, 314643, Note_off_c, 0, 86, 57
1, 314728, Note_on_c, 0, 61, 77
1, 314731, Note_on_c, 0, 73, 81
1, 314739, Note_on_c, 0, 81, 79
1, 314741, Note_on_c, 0, 86, 82
1, 314771, Note_off_c, 0, 93, 55
1, 314828, Note_off_c, 0, 73, 62
1, 314867, Note_on_c, 0, 93, 88
1, 314871, Note_off_c, 0, 61, 58
1, 314901, Note_off_c, 0, 86, 60
1, 314902, Note_off_c, 0, 81, 58
1, 314961, Poly_aftertouch_c, 0, 66, 127
1, 314990, Note_on_c, 0, 59, 76
1, 314990, Note_on_c, 0, 71, 80
1, 314992, Poly_aftertouch_c, 0, 66, 0
1, 315010, Note_on_c, 0, 81, 82
1, 315010, Note_on_c, 0, 86, 83
1, 315047, Note_off_c, 0, 93, 58
1, 315127, Note_off_c, 0, 59, 59
1, 315127, Note_off_c, 0, 81, 57
1, 315129, Note_on_c, 0, 93, 84
1, 315132, Note_off_c, 0, 71, 59
1, 315148, Note_off_c, 0, 86, 59
1, 315258, Note_on_c, 0, 57, 87
1, 315264, Note_on_c, 0, 86, 84
1, 315269, Note_on_c, 0, 81, 76
1, 315287, Note_off_c, 0, 93, 62
1, 315303, Note_off_c, 0, 57, 64
1, 315327, Poly_aftertouch_c, 0, 69, 127
1, 315334, Note_off_c, 0, 81, 60
1, 315354, Poly_aftertouch_c, 0, 69, 0
1, 315387, Note_on_c, 0, 93, 90
1, 315404, Note_off_c, 0, 86, 59
1, 315526, Control_c, 0, 64, 78
1, 315534, Note_on_c, 0, 38, 92
1, 315536, Note_on_c, 0, 45, 101
1, 315541, Control_c, 0, 64, 55
1, 315547, Note_on_c, 0, 78, 79
1, 315548, Note_on_c, 0, 85, 80
1, 315555, Note_off_c, 0, 93, 55
1, 315555, Control_c, 0, 64, 0
1, 315600, Note_off_c, 0, 45, 65
1, 315600, Control_c, 0, 64, 48
1, 315603, Note_off_c, 0, 38, 63
1, 315615, Control_c, 0, 64, 82
1, 315629, Control_c, 0, 64, 127
1, 315676, Note_off_c, 0, 78, 47
1, 315698, Note_on_c, 0, 91, 74
1, 315703, Note_off_c, 0, 85, 62
1, 315770, Note_off_c, 0, 91, 60
1, 315829, Note_on_c, 0, 85, 81
1, 315830, Note_on_c, 0, 76, 80
1, 315911, Note_off_c, 0, 76, 57
1, 315952, Note_on_c, 0, 91, 77
1, 315969, Note_on_c, 0, 62, 75
1, 315995, Note_off_c, 0, 85, 63
1, 315999, Note_on_c, 0, 66, 70
1, 316024, Note_on_c, 0, 69, 67
1, 316048, Note_off_c, 0, 62, 60
1, 316077, Note_on_c, 0, 74, 92
1, 316081, Note_on_c, 0, 81, 73
1, 316084, Note_on_c, 0, 86, 73
1, 316087, Note_off_c, 0, 91, 38
1, 316099, Note_off_c, 0, 66, 57
1, 316230, Note_on_c, 0, 93, 78
1, 316246, Note_off_c, 0, 74, 62
1, 316253, Note_off_c, 0, 81, 57
1, 316259, Note_off_c, 0, 86, 59
1, 316284, Note_off_c, 0, 69, 38
1, 316357, Note_on_c, 0, 73, 90
1, 316359, Note_on_c, 0, 61, 79
1, 316361, Note_on_c, 0, 81, 75
1, 316366, Note_on_c, 0, 86, 79
1, 316382, Note_off_c, 0, 93, 60
1, 316479, Note_off_c, 0, 73, 62
1, 316481, Note_on_c, 0, 93, 85
1, 316504, Note_off_c, 0, 81, 57
1, 316509, Note_off_c, 0, 86, 58
1, 316523, Note_off_c, 0, 61, 60
1, 316622, Note_on_c, 0, 59, 78
1, 316624, Note_on_c, 0, 71, 82
1, 316625, Note_on_c, 0, 86, 87
1, 316626, Note_on_c, 0, 81, 82
1, 316640, Poly_aftertouch_c, 0, 66, 0
1, 316656, Note_off_c, 0, 93, 62
1, 316740, Note_on_c, 0, 93, 87
1, 316742, Note_off_c, 0, 81, 56
1, 316752, Note_off_c, 0, 71, 61
1, 316755, Note_off_c, 0, 59, 60
1, 316760, Note_off_c, 0, 86, 57
1, 316878, Note_on_c, 0, 57, 81
1, 316880, Note_on_c, 0, 81, 85
1, 316881, Note_on_c, 0, 86, 87
1, 316904, Note_off_c, 0, 93, 63
1, 316931, Note_off_c, 0, 57, 60
1, 316951, Poly_aftertouch_c, 0, 69, 0
1, 316969, Note_off_c, 0, 81, 61
1, 316981, Poly_aftertouch_c, 0, 69, 0
1, 317012, Note_on_c, 0, 93, 88
1, 317053, Note_off_c, 0, 86, 56
1, 317053, Control_c, 0, 67, 19
1, 317184, Note_off_c, 0, 93, 54
1, 317187, Control_c, 0, 64, 81
1, 317189, Note_on_c, 0, 38, 86
1, 317190, Note_on_c, 0, 78, 103
1, 317192, Note_on_c, 0, 45, 92
1, 317196, Note_on_c, 0, 85, 82
1, 317201, Control_c, 0, 64, 56
1, 317201, Control_c, 0, 67, 0
1, 317216, Control_c, 0, 64, 32
1, 317231, Control_c, 0, 64, 50
1, 317235, Note_off_c, 0, 45, 66
1, 317238, Note_off_c, 0, 38, 63
1, 317253, Control_c, 0, 64, 72
1, 317268, Control_c, 0, 64, 127
1, 317427, Note_on_c, 0, 91, 75
1, 317431, Note_off_c, 0, 85, 39
1, 317466, Note_off_c, 0, 78, 55
1, 317518, Note_off_c, 0, 91, 55
1, 317575, Note_on_c, 0, 76, 90
1, 317577, Note_on_c, 0, 85, 81
1, 317689, Note_off_c, 0, 76, 52
1, 317724, Note_on_c, 0, 62, 68
1, 317733, Note_on_c, 0, 91, 74
1, 317750, Note_on_c, 0, 66, 65
1, 317763, Note_off_c, 0, 85, 63
1, 317782, Note_on_c, 0, 69, 65
1, 317817, Note_off_c, 0, 62, 60
1, 317849, Note_on_c, 0, 74, 93
1, 317857, Note_on_c, 0, 81, 80
1, 317859, Note_on_c, 0, 86, 74
1, 317873, Note_off_c, 0, 91, 53
1, 317897, Note_off_c, 0, 66, 60
1, 318018, Note_off_c, 0, 86, 0
1, 318043, Note_on_c, 0, 93, 84
1, 318051, Note_off_c, 0, 74, 58
1, 318082, Note_off_c, 0, 81, 58
1, 318091, Poly_aftertouch_c, 0, 86, 0
1, 318117, Note_off_c, 0, 69, 37
1, 318180, Note_on_c, 0, 86, 82
1, 318182, Note_on_c, 0, 73, 89
1, 318183, Note_on_c, 0, 61, 79
1, 318184, Note_on_c, 0, 81, 82
1, 318205, Note_off_c, 0, 93, 60
1, 318281, Note_off_c, 0, 73, 63
1, 318314, Note_on_c, 0, 93, 88
1, 318342, Note_off_c, 0, 61, 60
1, 318353, Note_off_c, 0, 86, 59
1, 318358, Note_off_c, 0, 81, 55
1, 318446, Control_c, 0, 64, 100
1, 318450, Note_on_c, 0, 59, 80
1, 318451, Note_on_c, 0, 71, 89
1, 318454, Note_on_c, 0, 86, 82
1, 318457, Note_on_c, 0, 81, 85
1, 318461, Control_c, 0, 64, 84
1, 318475, Control_c, 0, 64, 83
1, 318490, Note_off_c, 0, 93, 59
1, 318490, Control_c, 0, 64, 87
1, 318505, Control_c, 0, 64, 109
1, 318520, Control_c, 0, 64, 127
1, 318589, Note_on_c, 0, 93, 91
1, 318625, Note_off_c, 0, 71, 56
1, 318627, Note_off_c, 0, 86, 59
1, 318630, Note_off_c, 0, 81, 55
1, 318630, Note_off_c, 0, 59, 59
1, 318698, Control_c, 0, 64, 78
1, 318713, Control_c, 0, 64, 63
1, 318727, Note_on_c, 0, 57, 84
1, 318728, Note_on_c, 0, 69, 93
1, 318737, Note_on_c, 0, 86, 82
1, 318738, Note_on_c, 0, 81, 84
1, 318751, Control_c, 0, 64, 72
1, 318766, Control_c, 0, 64, 100
1, 318776, Note_off_c, 0, 93, 57
1, 318780, Control_c, 0, 64, 127
1, 318785, Note_off_c, 0, 57, 65
1, 318803, Note_off_c, 0, 69, 61
1, 318853, Note_off_c, 0, 81, 61
1, 318888, Note_on_c, 0, 93, 90
1, 318900, Note_off_c, 0, 86, 62
1, 318945, Note_off_c, 0, 93, 65
1, 319047, Control_c, 0, 64, 94
1, 319062, Control_c, 0, 64, 67
1, 319064, Note_on_c, 0, 82, 100
1, 319077, Control_c, 0, 64, 55
1, 319078, Note_on_c, 0, 90, 79
1, 319092, Control_c, 0, 64, 59
1, 319106, Control_c, 0, 64, 69
1, 319121, Control_c, 0, 64, 120
1, 319136, Control_c, 0, 64, 127
1, 319137, Note_off_c, 0, 90, 63
1, 319320, Note_on_c, 0, 94, 102
1, 319325, Note_on_c, 0, 78, 70
1, 319342, Note_off_c, 0, 82, 58
1, 319455, Note_off_c, 0, 78, 60
1, 319493, Control_c, 0, 64, 90
1, 319494, Note_on_c, 0, 81, 95
1, 319508, Note_off_c, 0, 94, 63
1, 319514, Note_on_c, 0, 86, 91
1, 319515, Control_c, 0, 64, 69
1, 319530, Control_c, 0, 64, 69
1, 319545, Control_c, 0, 64, 77
1, 319560, Control_c, 0, 64, 102
1, 319575, Control_c, 0, 64, 127
1, 319608, Note_off_c, 0, 86, 62
1, 319655, Note_on_c, 0, 93, 95
1, 319663, Note_on_c, 0, 74, 73
1, 319686, Note_off_c, 0, 81, 46
1, 319708, Control_c, 0, 67, 19
1, 319754, Note_off_c, 0, 74, 56
1, 319784, Note_on_c, 0, 79, 92
1, 319788, Note_off_c, 0, 93, 60
1, 319792, Note_on_c, 0, 86, 88
1, 319855, Control_c, 0, 67, 21
1, 319885, Control_c, 0, 64, 94
1, 319891, Note_off_c, 0, 79, 61
1, 319900, Control_c, 0, 64, 68
1, 319901, Note_on_c, 0, 74, 78
1, 319915, Note_on_c, 0, 91, 92
1, 319915, Control_c, 0, 64, 59
1, 319922, Note_off_c, 0, 86, 53
1, 319929, Control_c, 0, 64, 63
1, 319944, Control_c, 0, 64, 73
1, 319959, Control_c, 0, 64, 99
1, 319974, Control_c, 0, 64, 127
1, 319974, Control_c, 0, 67, 23
1, 320004, Control_c, 0, 67, 26
1, 320019, Control_c, 0, 67, 28
1, 320025, Note_on_c, 0, 78, 88
1, 320037, Note_on_c, 0, 81, 77
1, 320054, Note_off_c, 0, 74, 57
1, 320067, Note_off_c, 0, 91, 62
1, 320120, Note_off_c, 0, 81, 54
1, 320143, Note_on_c, 0, 69, 79
1, 320144, Note_on_c, 0, 90, 81
1, 320181, Note_off_c, 0, 78, 61
1, 320192, Note_off_c, 0, 90, 61
1, 320248, Note_off_c, 0, 69, 56
1, 320262, Note_on_c, 0, 76, 89
1, 320262, Note_on_c, 0, 81, 71
1, 320308, Control_c, 0, 67, 26
1, 320323, Control_c, 0, 64, 78
1, 320326, Note_off_c, 0, 81, 60
1, 320338, Control_c, 0, 64, 61
1, 320352, Control_c, 0, 64, 55
1, 320367, Control_c, 0, 64, 60
1, 320374, Note_on_c, 0, 88, 81
1, 320382, Control_c, 0, 64, 68
1, 320383, Note_on_c, 0, 69, 73
1, 320397, Control_c, 0, 64, 80
1, 320412, Note_off_c, 0, 76, 56
1, 320412, Control_c, 0, 64, 127
1, 320473, Note_off_c, 0, 88, 55
1, 320486, Note_on_c, 0, 78, 80
1, 320487, Note_on_c, 0, 74, 80
1, 320490, Note_off_c, 0, 69, 59
1, 320500, Control_c, 0, 67, 24
1, 320561, Note_off_c, 0, 78, 61
1, 320595, Note_on_c, 0, 66, 72
1, 320596, Note_on_c, 0, 86, 84
1, 320606, Note_off_c, 0, 74, 58
1, 320663, Control_c, 0, 64, 112
1, 320678, Control_c, 0, 64, 79
1, 320693, Control_c, 0, 64, 65
1, 320707, Control_c, 0, 64, 59
1, 320710, Note_on_c, 0, 78, 76
1, 320711, Note_on_c, 0, 70, 74
1, 320722, Control_c, 0, 64, 62
1, 320725, Note_off_c, 0, 66, 60
1, 320730, Note_off_c, 0, 86, 61
1, 320737, Control_c, 0, 64, 68
1, 320752, Control_c, 0, 64, 77
1, 320752, Control_c, 0, 67, 22
1, 320767, Control_c, 0, 64, 92
1, 320782, Control_c, 0, 64, 127
1, 320817, Note_on_c, 0, 66, 72
1, 320818, Note_on_c, 0, 82, 80
1, 320830, Note_off_c, 0, 78, 56
1, 320833, Note_off_c, 0, 70, 61
1, 320885, Control_c, 0, 64, 89
1, 320888, Note_off_c, 0, 66, 62
1, 320900, Control_c, 0, 64, 72
1, 320904, Note_off_c, 0, 82, 58
1, 320915, Control_c, 0, 64, 69
1, 320916, Note_on_c, 0, 69, 75
1, 320925, Note_on_c, 0, 74, 76
1, 320930, Control_c, 0, 64, 72
1, 320944, Control_c, 0, 64, 81
1, 320959, Control_c, 0, 64, 97
1, 320975, Control_c, 0, 64, 127
1, 321030, Note_off_c, 0, 69, 58
1, 321031, Note_on_c, 0, 62, 72
1, 321032, Note_on_c, 0, 81, 78
1, 321033, Note_off_c, 0, 74, 61
1, 321042, Control_c, 0, 64, 100
1, 321056, Control_c, 0, 64, 82
1, 321056, Control_c, 0, 67, 20
1, 321071, Control_c, 0, 64, 80
1, 321086, Control_c, 0, 64, 87
1, 321086, Control_c, 0, 67, 0
1, 321101, Control_c, 0, 64, 108
1, 321105, Note_off_c, 0, 62, 61
1, 321116, Control_c, 0, 64, 127
1, 321138, Note_on_c, 0, 67, 73
1, 321143, Note_off_c, 0, 81, 54
1, 321146, Note_on_c, 0, 74, 73
1, 321161, Control_c, 0, 64, 97
1, 321175, Control_c, 0, 64, 73
1, 321190, Control_c, 0, 64, 60
1, 321205, Control_c, 0, 64, 56
1, 321211, Note_off_c, 0, 67, 59
1, 321219, Control_c, 0, 64, 61
1, 321234, Control_c, 0, 64, 67
1, 321237, Note_on_c, 0, 62, 68
1, 321249, Control_c, 0, 64, 75
1, 321254, Note_on_c, 0, 79, 75
1, 321259, Note_off_c, 0, 74, 57
1, 321264, Control_c, 0, 64, 86
1, 321279, Control_c, 0, 64, 102
1, 321293, Control_c, 0, 64, 127
1, 321359, Note_off_c, 0, 79, 59
1, 321360, Note_on_c, 0, 69, 69
1, 321369, Note_off_c, 0, 62, 62
1, 321369, Note_on_c, 0, 66, 70
1, 321456, Note_off_c, 0, 66, 58
1, 321462, Note_on_c, 0, 78, 73
1, 321484, Note_on_c, 0, 57, 63
1, 321488, Note_off_c, 0, 69, 59
1, 321520, Note_off_c, 0, 78, 62
1, 321557, Note_off_c, 0, 57, 61
1, 321619, Control_c, 0, 64, 83
1, 321627, Note_on_c, 0, 64, 78
1, 321635, Control_c, 0, 64, 63
1, 321636, Note_on_c, 0, 76, 76
1, 321649, Control_c, 0, 64, 34
1, 321664, Control_c, 0, 64, 0
1, 321761, Control_c, 0, 64, 45
1, 321777, Control_c, 0, 64, 58
1, 321792, Control_c, 0, 64, 65
1, 321806, Control_c, 0, 64, 69
1, 321821, Control_c, 0, 64, 73
1, 321836, Control_c, 0, 64, 76
1, 321842, Note_on_c, 0, 54, 47
1, 321845, Note_on_c, 0, 69, 53
1, 321850, Control_c, 0, 64, 81
1, 321865, Control_c, 0, 64, 89
1, 321880, Control_c, 0, 64, 101
1, 321895, Control_c, 0, 64, 127
1, 321930, Note_off_c, 0, 64, 50
1, 321946, Note_off_c, 0, 54, 57
1, 321954, Note_off_c, 0, 76, 32
1, 321961, Note_on_c, 0, 57, 59
1, 321962, Note_off_c, 0, 69, 56
1, 321966, Note_on_c, 0, 66, 65
1, 322067, Note_on_c, 0, 54, 65
1, 322072, Note_on_c, 0, 69, 73
1, 322094, Note_off_c, 0, 57, 56
1, 322127, Note_off_c, 0, 66, 59
1, 322186, Note_off_c, 0, 54, 57
1, 322223, Note_on_c, 0, 74, 83
1, 322227, Note_on_c, 0, 50, 52
1, 322236, Control_c, 0, 64, 93
1, 322239, Note_on_c, 0, 62, 58
1, 322250, Control_c, 0, 64, 71
1, 322258, Note_off_c, 0, 69, 56
1, 322265, Control_c, 0, 64, 58
1, 322280, Control_c, 0, 64, 43
1, 322295, Control_c, 0, 64, 32
1, 322310, Control_c, 0, 64, 30
1, 322324, Control_c, 0, 64, 33
1, 322339, Control_c, 0, 64, 40
1, 322354, Control_c, 0, 64, 49
1, 322369, Control_c, 0, 64, 57
1, 322384, Control_c, 0, 64, 63
1, 322398, Control_c, 0, 64, 68
1, 322399, Note_on_c, 0, 69, 48
1, 322413, Note_on_c, 0, 54, 43
1, 322413, Control_c, 0, 64, 73
1, 322428, Control_c, 0, 64, 78
1, 322442, Control_c, 0, 64, 84
1, 322457, Control_c, 0, 64, 90
1, 322472, Control_c, 0, 64, 95
1, 322487, Control_c, 0, 64, 100
1, 322504, Note_off_c, 0, 69, 60
1, 322510, Control_c, 0, 64, 108
1, 322514, Note_off_c, 0, 54, 54
1, 322524, Control_c, 0, 64, 122
1, 322529, Note_on_c, 0, 57, 50
1, 322532, Note_on_c, 0, 66, 51
1, 322539, Control_c, 0, 64, 127
1, 322589, Note_off_c, 0, 57, 53
1, 322600, Note_off_c, 0, 62, 57
1, 322631, Note_off_c, 0, 66, 59
1, 322632, Note_on_c, 0, 69, 60
1, 322643, Note_on_c, 0, 54, 55
1, 322720, Note_off_c, 0, 54, 57
1, 322731, Note_on_c, 0, 62, 60
1, 322744, Note_off_c, 0, 69, 57
1, 322841, Note_on_c, 0, 54, 60
1, 322854, Note_on_c, 0, 69, 64
1, 322866, Note_off_c, 0, 74, 53
1, 322913, Note_off_c, 0, 54, 60
1, 322913, Note_off_c, 0, 62, 53
1, 322942, Note_off_c, 0, 69, 62
1, 322943, Note_on_c, 0, 57, 59
1, 322943, Note_on_c, 0, 66, 71
1, 322992, Note_off_c, 0, 50, 38
1, 323028, Note_on_c, 0, 69, 68
1, 323030, Note_off_c, 0, 57, 39
1, 323032, Note_on_c, 0, 54, 67
1, 323062, Note_off_c, 0, 66, 60
1, 323094, Note_off_c, 0, 54, 60
1, 323202, Note_on_c, 0, 49, 72
1, 323206, Note_on_c, 0, 73, 84
1, 323221, Control_c, 0, 64, 96
1, 323222, Note_off_c, 0, 69, 60
1, 323226, Note_on_c, 0, 61, 61
1, 323244, Control_c, 0, 64, 71
1, 323259, Control_c, 0, 64, 47
1, 323273, Control_c, 0, 64, 0
1, 323362, Control_c, 0, 64, 47
1, 323378, Control_c, 0, 64, 60
1, 323393, Control_c, 0, 64, 67
1, 323408, Control_c, 0, 64, 74
1, 323414, Note_on_c, 0, 50, 58
1, 323422, Note_on_c, 0, 66, 58
1, 323422, Control_c, 0, 64, 81
1, 323433, Note_off_c, 0, 73, 57
1, 323437, Control_c, 0, 64, 87
1, 323452, Control_c, 0, 64, 95
1, 323467, Control_c, 0, 64, 108
1, 323482, Control_c, 0, 64, 127
1, 323507, Note_off_c, 0, 50, 58
1, 323526, Note_on_c, 0, 54, 60
1, 323529, Note_off_c, 0, 66, 59
1, 323541, Note_on_c, 0, 62, 58
1, 323572, Note_off_c, 0, 49, 24
1, 323596, Note_off_c, 0, 61, 37
1, 323632, Note_on_c, 0, 50, 64
1, 323647, Note_on_c, 0, 66, 67
1, 323659, Note_off_c, 0, 54, 39
1, 323687, Note_off_c, 0, 62, 55
1, 323694, Note_off_c, 0, 50, 60
1, 323763, Control_c, 0, 64, 108
1, 323766, Note_on_c, 0, 70, 85
1, 323772, Note_on_c, 0, 46, 66
1, 323778, Control_c, 0, 64, 92
1, 323788, Note_on_c, 0, 58, 53
1, 323793, Control_c, 0, 64, 77
1, 323797, Note_off_c, 0, 66, 59
1, 323808, Control_c, 0, 64, 61
1, 323822, Control_c, 0, 64, 39
1, 323837, Control_c, 0, 64, 0
1, 323910, Note_on_c, 0, 50, 50
1, 323913, Note_on_c, 0, 66, 61
1, 323925, Control_c, 0, 64, 33
1, 323940, Control_c, 0, 64, 48
1, 323955, Control_c, 0, 64, 58
1, 323969, Control_c, 0, 64, 63
1, 323992, Control_c, 0, 64, 66
1, 324007, Control_c, 0, 64, 69
1, 324010, Note_off_c, 0, 66, 59
1, 324016, Note_off_c, 0, 50, 52
1, 324021, Control_c, 0, 64, 73
1, 324036, Note_on_c, 0, 62, 50
1, 324036, Control_c, 0, 64, 79
1, 324045, Note_on_c, 0, 54, 46
1, 324051, Control_c, 0, 64, 89
1, 324066, Control_c, 0, 64, 106
1, 324081, Control_c, 0, 64, 127
1, 324096, Note_off_c, 0, 58, 59
1, 324102, Note_off_c, 0, 54, 54
1, 324139, Note_off_c, 0, 62, 57
1, 324150, Note_on_c, 0, 66, 51
1, 324153, Note_on_c, 0, 50, 52
1, 324195, Note_off_c, 0, 50, 59
1, 324246, Note_off_c, 0, 66, 53
1, 324252, Note_on_c, 0, 58, 53
1, 324365, Note_on_c, 0, 66, 66
1, 324386, Note_on_c, 0, 50, 48
1, 324457, Note_off_c, 0, 50, 54
1, 324474, Note_on_c, 0, 62, 63
1, 324475, Note_off_c, 0, 66, 58
1, 324475, Note_on_c, 0, 54, 59
1, 324487, Note_off_c, 0, 70, 33
1, 324550, Note_off_c, 0, 46, 56
1, 324568, Note_off_c, 0, 54, 54
1, 324569, Note_off_c, 0, 58, 36
1, 324583, Note_on_c, 0, 50, 67
1, 324590, Note_on_c, 0, 66, 73
1, 324610, Note_off_c, 0, 62, 60
1, 324645, Note_off_c, 0, 50, 61
1, 324718, Note_off_c, 0, 66, 54
1, 324766, Note_on_c, 0, 47, 77
1, 324770, Control_c, 0, 64, 104
1, 324776, Note_on_c, 0, 71, 86
1, 324785, Control_c, 0, 64, 76
1, 324796, Note_on_c, 0, 59, 56
1, 324800, Control_c, 0, 64, 53
1, 324815, Control_c, 0, 64, 0
1, 324919, Control_c, 0, 64, 43
1, 324934, Control_c, 0, 64, 60
1, 324949, Control_c, 0, 64, 67
1, 324964, Control_c, 0, 64, 72
1, 324972, Note_on_c, 0, 66, 61
1, 324975, Note_on_c, 0, 51, 53
1, 324979, Control_c, 0, 64, 79
1, 324994, Control_c, 0, 64, 90
1, 325009, Control_c, 0, 64, 104
1, 325024, Control_c, 0, 64, 127
1, 325030, Note_off_c, 0, 71, 58
1, 325071, Note_off_c, 0, 59, 38
1, 325086, Note_off_c, 0, 51, 55
1, 325108, Note_on_c, 0, 54, 56
1, 325113, Note_on_c, 0, 63, 69
1, 325116, Note_off_c, 0, 66, 61
1, 325143, Note_off_c, 0, 47, 38
1, 325221, Note_on_c, 0, 51, 59
1, 325225, Note_off_c, 0, 54, 50
1, 325227, Note_on_c, 0, 66, 66
1, 325259, Note_off_c, 0, 63, 59
1, 325310, Note_off_c, 0, 51, 58
1, 325349, Control_c, 0, 64, 97
1, 325352, Note_on_c, 0, 44, 83
1, 325361, Note_on_c, 0, 68, 78
1, 325364, Control_c, 0, 64, 76
1, 325370, Note_off_c, 0, 66, 0
1, 325378, Note_on_c, 0, 56, 57
1, 325379, Note_off_c, 0, 68, 60
1, 325379, Control_c, 0, 64, 61
1, 325393, Note_on_c, 0, 66, 11
1, 325393, Control_c, 0, 64, 0
1, 325400, Note_on_c, 0, 67, 51
1, 325457, Note_off_c, 0, 66, 43
1, 325515, Note_on_c, 0, 47, 58
1, 325520, Control_c, 0, 64, 53
1, 325535, Control_c, 0, 64, 66
1, 325549, Control_c, 0, 64, 79
1, 325564, Note_off_c, 0, 67, 52
1, 325564, Control_c, 0, 64, 116
1, 325579, Control_c, 0, 64, 127
1, 325605, Note_off_c, 0, 44, 61
1, 325621, Note_off_c, 0, 47, 63
1, 325645, Note_on_c, 0, 51, 65
1, 325724, Note_on_c, 0, 59, 25
1, 325736, Note_on_c, 0, 47, 75
1, 325757, Note_off_c, 0, 56, 39
1, 325760, Note_on_c, 0, 63, 57
1, 325783, Note_off_c, 0, 51, 53
1, 325832, Note_off_c, 0, 59, 40
1, 325871, Note_off_c, 0, 47, 57
1, 325872, Note_on_c, 0, 42, 82
1, 325883, Note_on_c, 0, 66, 80
1, 325891, Control_c, 0, 64, 83
1, 325891, Note_off_c, 0, 63, 52
1, 325894, Note_on_c, 0, 54, 62
1, 325906, Control_c, 0, 64, 66
1, 325921, Control_c, 0, 64, 51
1, 325936, Control_c, 0, 64, 33
1, 325951, Control_c, 0, 64, 0
1, 325995, Control_c, 0, 64, 31
1, 326006, Note_on_c, 0, 63, 73
1, 326010, Control_c, 0, 64, 47
1, 326010, Note_on_c, 0, 47, 66
1, 326024, Control_c, 0, 64, 59
1, 326039, Control_c, 0, 64, 66
1, 326053, Note_off_c, 0, 66, 58
1, 326054, Control_c, 0, 64, 73
1, 326069, Control_c, 0, 64, 82
1, 326083, Control_c, 0, 64, 94
1, 326098, Control_c, 0, 64, 127
1, 326107, Note_off_c, 0, 47, 62
1, 326118, Note_off_c, 0, 63, 60
1, 326123, Note_on_c, 0, 51, 65
1, 326123, Note_off_c, 0, 54, 58
1, 326127, Note_on_c, 0, 59, 62
1, 326165, Note_off_c, 0, 42, 56
1, 326212, Note_off_c, 0, 59, 60
1, 326219, Note_on_c, 0, 47, 74
1, 326221, Note_off_c, 0, 51, 55
1, 326224, Note_on_c, 0, 63, 69
1, 326268, Note_off_c, 0, 63, 56
1, 326274, Note_off_c, 0, 47, 65
1, 326353, Note_on_c, 0, 47, 83
1, 326355, Note_on_c, 0, 71, 89
1, 326357, Control_c, 0, 64, 119
1, 326371, Note_on_c, 0, 59, 61
1, 326372, Control_c, 0, 64, 82
1, 326387, Control_c, 0, 64, 65
1, 326402, Control_c, 0, 64, 48
1, 326416, Control_c, 0, 64, 32
1, 326431, Control_c, 0, 64, 0
1, 326446, Control_c, 0, 64, 30
1, 326461, Control_c, 0, 64, 39
1, 326476, Control_c, 0, 64, 50
1, 326490, Control_c, 0, 64, 61
1, 326493, Note_on_c, 0, 51, 60
1, 326497, Note_on_c, 0, 66, 62
1, 326505, Control_c, 0, 64, 66
1, 326520, Control_c, 0, 64, 73
1, 326535, Control_c, 0, 64, 80
1, 326550, Control_c, 0, 64, 89
1, 326565, Control_c, 0, 64, 103
1, 326578, Note_off_c, 0, 71, 60
1, 326579, Note_off_c, 0, 51, 60
1, 326579, Note_off_c, 0, 59, 50
1, 326580, Control_c, 0, 64, 127
1, 326592, Note_on_c, 0, 54, 63
1, 326609, Note_on_c, 0, 63, 68
1, 326615, Note_off_c, 0, 66, 62
1, 326634, Note_off_c, 0, 47, 54
1, 326702, Note_on_c, 0, 51, 68
1, 326719, Note_on_c, 0, 66, 70
1, 326729, Note_off_c, 0, 54, 52
1, 326738, Note_off_c, 0, 63, 59
1, 326830, Note_on_c, 0, 44, 79
1, 326832, Control_c, 0, 64, 89
1, 326836, Note_off_c, 0, 51, 60
1, 326840, Note_on_c, 0, 68, 87
1, 326846, Note_off_c, 0, 66, 61
1, 326847, Control_c, 0, 64, 65
1, 326855, Note_on_c, 0, 56, 61
1, 326862, Control_c, 0, 64, 34
1, 326878, Control_c, 0, 64, 0
1, 326937, Control_c, 0, 64, 38
1, 326952, Control_c, 0, 64, 53
1, 326966, Control_c, 0, 64, 62
1, 326971, Note_on_c, 0, 63, 67
1, 326977, Note_on_c, 0, 47, 64
1, 326981, Control_c, 0, 64, 67
1, 327003, Control_c, 0, 64, 73
1, 327014, Note_off_c, 0, 44, 56
1, 327018, Control_c, 0, 64, 77
1, 327033, Control_c, 0, 64, 82
1, 327048, Control_c, 0, 64, 90
1, 327063, Control_c, 0, 64, 106
1, 327063, Note_off_c, 0, 68, 38
1, 327078, Control_c, 0, 64, 127
1, 327083, Note_off_c, 0, 47, 64
1, 327087, Note_on_c, 0, 51, 66
1, 327101, Note_on_c, 0, 59, 65
1, 327102, Note_off_c, 0, 63, 61
1, 327143, Note_off_c, 0, 56, 55
1, 327200, Note_on_c, 0, 47, 73
1, 327206, Note_on_c, 0, 63, 78
1, 327248, Note_off_c, 0, 51, 35
1, 327287, Note_off_c, 0, 59, 54
1, 327343, Note_on_c, 0, 42, 76
1, 327343, Note_off_c, 0, 47, 58
1, 327344, Control_c, 0, 64, 98
1, 327350, Note_on_c, 0, 66, 88
1, 327360, Control_c, 0, 64, 74
1, 327361, Note_on_c, 0, 54, 68
1, 327371, Note_off_c, 0, 63, 60
1, 327375, Control_c, 0, 64, 59
1, 327389, Control_c, 0, 64, 33
1, 327404, Control_c, 0, 64, 0
1, 327449, Control_c, 0, 64, 35
1, 327463, Control_c, 0, 64, 49
1, 327478, Control_c, 0, 64, 59
1, 327493, Control_c, 0, 64, 67
1, 327495, Note_on_c, 0, 63, 76
1, 327503, Note_on_c, 0, 47, 68
1, 327507, Note_off_c, 0, 42, 60
1, 327508, Control_c, 0, 64, 74
1, 327523, Control_c, 0, 64, 83
1, 327537, Control_c, 0, 64, 92
1, 327546, Note_off_c, 0, 66, 56
1, 327552, Control_c, 0, 64, 104
1, 327567, Control_c, 0, 64, 127
1, 327605, Note_off_c, 0, 54, 39
1, 327608, Note_on_c, 0, 51, 66
1, 327612, Note_off_c, 0, 63, 60
1, 327617, Note_on_c, 0, 59, 70
1, 327636, Note_off_c, 0, 47, 39
1, 327703, Note_on_c, 0, 47, 51
1, 327710, Note_on_c, 0, 63, 77
1, 327719, Note_off_c, 0, 59, 61
1, 327761, Note_off_c, 0, 51, 37
1, 327780, Note_off_c, 0, 63, 61
1, 327824, Note_off_c, 0, 47, 61
1, 327825, Control_c, 0, 64, 83
1, 327840, Control_c, 0, 64, 66
1, 327850, Note_on_c, 0, 51, 85
1, 327851, Note_on_c, 0, 39, 86
1, 327851, Note_on_c, 0, 71, 85
1, 327855, Control_c, 0, 64, 54
1, 327858, Note_on_c, 0, 59, 65
1, 327869, Control_c, 0, 64, 48
1, 327884, Control_c, 0, 64, 51
1, 327899, Control_c, 0, 64, 58
1, 327913, Control_c, 0, 64, 65
1, 327915, Note_off_c, 0, 51, 62
1, 327928, Control_c, 0, 64, 72
1, 327943, Control_c, 0, 64, 83
1, 327957, Note_off_c, 0, 39, 62
1, 327958, Control_c, 0, 64, 98
1, 327973, Control_c, 0, 64, 127
1, 328014, Note_on_c, 0, 66, 72
1, 328061, Note_off_c, 0, 71, 60
1, 328091, Note_off_c, 0, 59, 58
1, 328139, Note_on_c, 0, 47, 86
1, 328140, Note_on_c, 0, 35, 89
1, 328151, Control_c, 0, 64, 83
1, 328153, Note_on_c, 0, 63, 74
1, 328166, Control_c, 0, 64, 68
1, 328168, Note_off_c, 0, 66, 61
1, 328181, Control_c, 0, 64, 62
1, 328196, Control_c, 0, 64, 64
1, 328209, Note_off_c, 0, 47, 63
1, 328210, Control_c, 0, 64, 67
1, 328225, Control_c, 0, 64, 75
1, 328240, Control_c, 0, 64, 92
1, 328242, Note_off_c, 0, 35, 60
1, 328255, Control_c, 0, 64, 127
1, 328262, Note_on_c, 0, 66, 75
1, 328290, Note_off_c, 0, 63, 61
1, 328374, Control_c, 0, 64, 74
1, 328374, Note_on_c, 0, 32, 86
1, 328374, Note_on_c, 0, 44, 87
1, 328374, Note_off_c, 0, 66, 56
1, 328389, Control_c, 0, 64, 60
1, 328389, Note_on_c, 0, 68, 75
1, 328394, Note_on_c, 0, 56, 66
1, 328403, Control_c, 0, 64, 51
1, 328418, Control_c, 0, 64, 54
1, 328433, Control_c, 0, 64, 61
1, 328441, Note_off_c, 0, 44, 63
1, 328448, Control_c, 0, 64, 70
1, 328463, Control_c, 0, 64, 88
1, 328469, Note_off_c, 0, 32, 61
1, 328485, Control_c, 0, 64, 127
1, 328500, Note_on_c, 0, 63, 77
1, 328532, Note_off_c, 0, 68, 57
1, 328580, Note_off_c, 0, 56, 50
1, 328589, Control_c, 0, 64, 116
1, 328597, Note_off_c, 0, 63, 60
1, 328604, Control_c, 0, 64, 78
1, 328617, Note_on_c, 0, 28, 89
1, 328618, Control_c, 0, 64, 64
1, 328619, Note_on_c, 0, 40, 86
1, 328626, Note_on_c, 0, 58, 23
1, 328630, Note_on_c, 0, 59, 72
1, 328633, Control_c, 0, 64, 59
1, 328648, Control_c, 0, 64, 61
1, 328663, Control_c, 0, 64, 66
1, 328666, Note_off_c, 0, 58, 33
1, 328672, Note_off_c, 0, 40, 61
1, 328678, Control_c, 0, 64, 76
1, 328684, Note_off_c, 0, 28, 62
1, 328692, Control_c, 0, 64, 117
1, 328707, Control_c, 0, 64, 127
1, 328732, Note_on_c, 0, 63, 75
1, 328775, Note_off_c, 0, 59, 61
1, 328805, Note_off_c, 0, 63, 61
1, 328914, Control_c, 0, 64, 81
1, 328921, Note_on_c, 0, 37, 89
1, 328928, Note_on_c, 0, 64, 71
1, 328929, Note_on_c, 0, 25, 87
1, 328929, Control_c, 0, 64, 58
1, 328944, Control_c, 0, 64, 0
1, 328945, Note_on_c, 0, 52, 53
1, 329191, Note_on_c, 0, 59, 32
1, 329197, Control_c, 0, 64, 52
1, 329212, Control_c, 0, 64, 85
1, 329233, Control_c, 0, 64, 127
1, 329239, Note_off_c, 0, 25, 61
1, 329248, Note_off_c, 0, 64, 56
1, 329266, Note_off_c, 0, 59, 38
1, 329278, Note_off_c, 0, 52, 37
1, 329281, Note_on_c, 0, 56, 64
1, 329301, Note_off_c, 0, 37, 61
1, 329394, Note_on_c, 0, 59, 66
1, 329408, Note_off_c, 0, 56, 59
1, 329457, Note_off_c, 0, 59, 62
1, 329530, Control_c, 0, 64, 119
1, 329545, Control_c, 0, 64, 74
1, 329549, Note_on_c, 0, 42, 88
1, 329552, Note_on_c, 0, 30, 80
1, 329559, Control_c, 0, 64, 50
1, 329564, Note_on_c, 0, 66, 80
1, 329567, Note_on_c, 0, 54, 71
1, 329574, Control_c, 0, 64, 0
1, 329605, Note_off_c, 0, 30, 63
1, 329619, Control_c, 0, 64, 46
1, 329633, Control_c, 0, 64, 65
1, 329642, Note_off_c, 0, 42, 62
1, 329648, Control_c, 0, 64, 82
1, 329663, Control_c, 0, 64, 127
1, 329745, Note_on_c, 0, 59, 68
1, 329747, Note_off_c, 0, 66, 59
1, 329755, Note_off_c, 0, 54, 61
1, 329793, Note_off_c, 0, 59, 61
1, 329878, Note_on_c, 0, 52, 79
1, 329881, Note_on_c, 0, 56, 82
1, 330004, Note_on_c, 0, 68, 80
1, 330035, Note_off_c, 0, 56, 57
1, 330056, Note_off_c, 0, 68, 60
1, 330126, Note_on_c, 0, 56, 85
1, 330136, Note_on_c, 0, 70, 81
1, 330157, Note_on_c, 0, 55, 62
1, 330165, Note_off_c, 0, 52, 61
1, 330260, Note_on_c, 0, 64, 66
1, 330260, Note_off_c, 0, 70, 59
1, 330261, Note_off_c, 0, 55, 32
1, 330297, Note_off_c, 0, 56, 49
1, 330315, Note_off_c, 0, 64, 59
1, 330360, Note_on_c, 0, 58, 92
1, 330380, Note_on_c, 0, 59, 75
1, 330404, Note_off_c, 0, 58, 67
1, 330475, Note_off_c, 0, 59, 53
1, 330482, Note_on_c, 0, 71, 74
1, 330517, Note_off_c, 0, 71, 62
1, 330663, Note_on_c, 0, 47, 81
1, 330667, Note_on_c, 0, 75, 87
1, 330679, Control_c, 0, 64, 89
1, 330685, Note_on_c, 0, 63, 54
1, 330694, Control_c, 0, 64, 62
1, 330709, Control_c, 0, 64, 0
1, 330715, Note_off_c, 0, 63, 50
1, 330865, Control_c, 0, 64, 59
1, 330880, Control_c, 0, 64, 65
1, 330894, Control_c, 0, 64, 66
1, 330899, Note_on_c, 0, 51, 64
1, 330904, Note_on_c, 0, 71, 69
1, 330909, Control_c, 0, 64, 68
1, 330924, Control_c, 0, 64, 74
1, 330938, Control_c, 0, 64, 84
1, 330953, Control_c, 0, 64, 106
1, 330968, Control_c, 0, 64, 127
1, 331036, Note_on_c, 0, 59, 67
1, 331051, Note_on_c, 0, 63, 75
1, 331078, Note_off_c, 0, 47, 60
1, 331084, Note_off_c, 0, 75, 52
1, 331097, Note_off_c, 0, 71, 56
1, 331114, Note_off_c, 0, 51, 56
1, 331160, Note_on_c, 0, 66, 78
1, 331163, Note_on_c, 0, 54, 72
1, 331168, Note_off_c, 0, 59, 55
1, 331211, Note_off_c, 0, 63, 57
1, 331240, Note_off_c, 0, 54, 59
1, 331302, Note_on_c, 0, 46, 82
1, 331311, Note_on_c, 0, 75, 85
1, 331323, Control_c, 0, 64, 80
1, 331338, Control_c, 0, 64, 48
1, 331341, Note_off_c, 0, 66, 61
1, 331354, Control_c, 0, 64, 0
1, 331489, Note_on_c, 0, 51, 69
1, 331502, Note_on_c, 0, 71, 72
1, 331634, Note_on_c, 0, 59, 69
1, 331649, Note_on_c, 0, 63, 76
1, 331658, Control_c, 0, 64, 50
1, 331673, Control_c, 0, 64, 54
1, 331687, Control_c, 0, 64, 55
1, 331702, Control_c, 0, 64, 59
1, 331717, Control_c, 0, 64, 65
1, 331732, Control_c, 0, 64, 71
1, 331739, Note_off_c, 0, 75, 52
1, 331746, Note_off_c, 0, 46, 44
1, 331747, Control_c, 0, 64, 80
1, 331757, Note_off_c, 0, 71, 55
1, 331761, Control_c, 0, 64, 98
1, 331769, Note_on_c, 0, 55, 73
1, 331774, Note_on_c, 0, 67, 76
1, 331776, Control_c, 0, 64, 127
1, 331787, Note_off_c, 0, 59, 47
1, 331797, Note_off_c, 0, 51, 53
1, 331812, Note_off_c, 0, 63, 60
1, 331841, Note_off_c, 0, 55, 60
1, 331929, Note_on_c, 0, 44, 85
1, 331935, Note_on_c, 0, 75, 86
1, 331940, Control_c, 0, 64, 81
1, 331954, Control_c, 0, 64, 62
1, 331965, Note_off_c, 0, 67, 60
1, 331969, Control_c, 0, 64, 0
1, 332043, Control_c, 0, 64, 36
1, 332058, Control_c, 0, 64, 49
1, 332072, Control_c, 0, 64, 60
1, 332087, Control_c, 0, 64, 65
1, 332097, Note_on_c, 0, 51, 70
1, 332102, Control_c, 0, 64, 69
1, 332103, Note_on_c, 0, 72, 79
1, 332118, Control_c, 0, 64, 73
1, 332133, Control_c, 0, 64, 78
1, 332148, Control_c, 0, 64, 86
1, 332152, Note_off_c, 0, 44, 56
1, 332163, Control_c, 0, 64, 102
1, 332178, Control_c, 0, 64, 127
1, 332270, Note_on_c, 0, 63, 80
1, 332279, Note_on_c, 0, 60, 68
1, 332333, Note_off_c, 0, 51, 61
1, 332372, Note_off_c, 0, 60, 55
1, 332443, Note_off_c, 0, 72, 31
1, 332448, Note_on_c, 0, 68, 85
1, 332450, Note_on_c, 0, 56, 70
1, 332467, Note_off_c, 0, 63, 62
1, 332476, Note_off_c, 0, 56, 64
1, 332479, Note_off_c, 0, 75, 23
1, 332495, Note_off_c, 0, 68, 64
1, 332759, Note_on_c, 0, 32, 66
1, 332765, Note_on_c, 0, 80, 92
1, 332768, Note_on_c, 0, 72, 83
1, 332768, Note_on_c, 0, 68, 87
1, 332770, Note_on_c, 0, 75, 76
1, 332777, Control_c, 0, 64, 76
1, 332792, Control_c, 0, 64, 58
1, 332807, Control_c, 0, 64, 0
1, 332896, Control_c, 0, 64, 36
1, 332911, Control_c, 0, 64, 55
1, 332926, Control_c, 0, 64, 66
1, 332941, Control_c, 0, 64, 77
1, 332956, Control_c, 0, 64, 114
1, 332979, Control_c, 0, 64, 127
1, 333056, Note_off_c, 0, 32, 36
1, 333073, Note_on_c, 0, 44, 56
1, 333139, Note_off_c, 0, 44, 61
1, 333251, Note_on_c, 0, 39, 56
1, 333398, Note_on_c, 0, 48, 64
1, 333415, Note_off_c, 0, 39, 53
1, 333549, Note_on_c, 0, 44, 66
1, 333556, Note_off_c, 0, 48, 60
1, 333659, Note_off_c, 0, 44, 62
1, 333701, Note_on_c, 0, 51, 63
1, 333835, Note_off_c, 0, 51, 58
1, 333880, Note_on_c, 0, 48, 58
1, 334069, Note_on_c, 0, 56, 59
1, 334085, Note_off_c, 0, 48, 37
1, 334261, Control_c, 0, 64, 96
1, 334268, Note_on_c, 0, 51, 59
1, 334275, Control_c, 0, 64, 77
1, 334290, Control_c, 0, 64, 66
1, 334305, Control_c, 0, 64, 59
1, 334320, Control_c, 0, 64, 56
1, 334335, Control_c, 0, 64, 60
1, 334349, Control_c, 0, 64, 68
1, 334364, Control_c, 0, 64, 84
1, 334379, Control_c, 0, 64, 127
1, 334385, Note_off_c, 0, 56, 34
1, 334517, Note_off_c, 0, 51, 58
1, 334518, Note_on_c, 0, 60, 50
1, 334664, Note_off_c, 0, 60, 38
1, 334846, Control_c, 0, 64, 95
1, 334861, Control_c, 0, 64, 82
1, 334876, Control_c, 0, 64, 76
1, 334889, Note_on_c, 0, 63, 44
1, 334891, Control_c, 0, 64, 74
1, 334896, Note_on_c, 0, 56, 38
1, 334906, Control_c, 0, 64, 73
1, 334920, Control_c, 0, 64, 74
1, 334935, Control_c, 0, 64, 75
1, 334950, Control_c, 0, 64, 78
1, 334965, Control_c, 0, 64, 83
1, 334966, Note_off_c, 0, 80, 51
1, 334979, Note_off_c, 0, 68, 38
1, 334980, Control_c, 0, 64, 89
1, 334992, Note_off_c, 0, 72, 37
1, 334995, Control_c, 0, 64, 95
1, 335004, Note_off_c, 0, 63, 60
1, 335010, Control_c, 0, 64, 100
1, 335024, Control_c, 0, 64, 103
1, 335024, Control_c, 0, 67, 20
1, 335037, Note_off_c, 0, 75, 37
1, 335039, Control_c, 0, 64, 105
1, 335039, Control_c, 0, 67, 22
1, 335055, Note_off_c, 0, 56, 36
1, 335069, Control_c, 0, 67, 26
1, 335084, Control_c, 0, 67, 29
1, 335098, Control_c, 0, 67, 35
1, 335113, Control_c, 0, 67, 42
1, 335128, Control_c, 0, 67, 49
1, 335143, Control_c, 0, 67, 56
1, 335158, Control_c, 0, 67, 61
1, 335172, Control_c, 0, 67, 62
1, 335239, Control_c, 0, 67, 63
1, 335343, Control_c, 0, 67, 63
1, 335359, Control_c, 0, 67, 64
1, 335403, Control_c, 0, 64, 103
1, 335433, Control_c, 0, 64, 101
1, 335462, Control_c, 0, 64, 98
1, 335492, Control_c, 0, 64, 96
1, 335507, Control_c, 0, 64, 94
1, 335522, Control_c, 0, 64, 93
1, 335522, Control_c, 0, 67, 63
1, 335536, Control_c, 0, 64, 91
1, 335536, Control_c, 0, 67, 62
1, 335551, Control_c, 0, 64, 89
1, 335566, Control_c, 0, 64, 87
1, 335566, Control_c, 0, 67, 62
1, 335581, Control_c, 0, 64, 84
1, 335595, Control_c, 0, 64, 82
1, 335595, Control_c, 0, 67, 61
1, 335610, Control_c, 0, 64, 79
1, 335625, Control_c, 0, 64, 76
1, 335625, Control_c, 0, 67, 61
1, 335640, Control_c, 0, 64, 72
1, 335654, Control_c, 0, 64, 69
1, 335669, Control_c, 0, 64, 64
1, 335669, Control_c, 0, 67, 60
1, 335684, Control_c, 0, 64, 59
1, 335699, Control_c, 0, 64, 52
1, 335714, Control_c, 0, 64, 45
1, 335728, Control_c, 0, 64, 37
1, 335743, Control_c, 0, 64, 0
1, 335773, Control_c, 0, 67, 60
1, 335867, Note_on_c, 0, 73, 67
1, 335886, Note_on_c, 0, 35, 41
1, 335892, Control_c, 0, 67, 59
1, 335921, Control_c, 0, 64, 31
1, 335921, Control_c, 0, 67, 59
1, 335936, Control_c, 0, 64, 42
1, 335951, Control_c, 0, 64, 51
1, 335973, Control_c, 0, 64, 59
1, 335988, Control_c, 0, 64, 62
1, 336002, Control_c, 0, 64, 65
1, 336017, Control_c, 0, 64, 67
1, 336032, Control_c, 0, 64, 70
1, 336047, Control_c, 0, 64, 75
1, 336062, Control_c, 0, 64, 86
1, 336062, Control_c, 0, 67, 58
1, 336077, Control_c, 0, 64, 104
1, 336092, Control_c, 0, 64, 127
1, 336092, Control_c, 0, 67, 58
1, 336234, Note_on_c, 0, 42, 38
1, 336241, Control_c, 0, 67, 57
1, 336246, Note_on_c, 0, 75, 57
1, 336311, Note_off_c, 0, 73, 56
1, 336374, Note_off_c, 0, 35, 37
1, 336408, Note_off_c, 0, 75, 49
1, 336423, Note_off_c, 0, 42, 43
1, 336449, Note_on_c, 0, 78, 54
1, 336449, Note_on_c, 0, 80, 54
1, 336455, Note_on_c, 0, 47, 38
1, 336489, Note_off_c, 0, 47, 57
1, 336569, Note_off_c, 0, 80, 33
1, 336587, Note_off_c, 0, 78, 37
1, 336609, Note_on_c, 0, 51, 49
1, 336610, Note_on_c, 0, 71, 61
1, 336667, Note_off_c, 0, 51, 52
1, 336721, Note_off_c, 0, 71, 53
1, 336786, Note_on_c, 0, 78, 60
1, 336787, Note_on_c, 0, 75, 56
1, 336792, Note_on_c, 0, 54, 42
1, 336818, Note_off_c, 0, 78, 63
1, 336820, Note_off_c, 0, 75, 64
1, 336858, Note_off_c, 0, 54, 53
1, 336954, Note_on_c, 0, 47, 39
1, 336962, Note_on_c, 0, 66, 55
1, 337106, Note_off_c, 0, 47, 34
1, 337177, Note_off_c, 0, 66, 44
1, 337182, Control_c, 0, 64, 110
1, 337188, Note_on_c, 0, 39, 43
1, 337197, Note_on_c, 0, 68, 50
1, 337197, Control_c, 0, 64, 83
1, 337201, Note_on_c, 0, 71, 48
1, 337212, Control_c, 0, 64, 69
1, 337226, Control_c, 0, 64, 60
1, 337241, Control_c, 0, 64, 50
1, 337256, Control_c, 0, 64, 41
1, 337271, Control_c, 0, 64, 39
1, 337286, Control_c, 0, 64, 42
1, 337300, Control_c, 0, 64, 48
1, 337315, Control_c, 0, 64, 55
1, 337330, Control_c, 0, 64, 61
1, 337345, Control_c, 0, 64, 66
1, 337361, Control_c, 0, 64, 74
1, 337361, Control_c, 0, 67, 58
1, 337369, Note_off_c, 0, 68, 37
1, 337375, Control_c, 0, 64, 82
1, 337390, Control_c, 0, 64, 88
1, 337396, Note_off_c, 0, 71, 28
1, 337405, Control_c, 0, 64, 93
1, 337408, Note_off_c, 0, 39, 57
1, 337419, Control_c, 0, 64, 98
1, 337419, Control_c, 0, 67, 59
1, 337428, Note_on_c, 0, 63, 46
1, 337434, Control_c, 0, 64, 103
1, 337434, Control_c, 0, 67, 60
1, 337449, Control_c, 0, 64, 112
1, 337449, Control_c, 0, 67, 61
1, 337464, Control_c, 0, 64, 127
1, 337464, Control_c, 0, 67, 63
1, 337487, Control_c, 0, 67, 65
1, 337501, Control_c, 0, 67, 67
1, 337516, Control_c, 0, 67, 76
1, 337531, Control_c, 0, 67, 85
1, 337546, Control_c, 0, 67, 91
1, 337561, Control_c, 0, 67, 94
1, 337571, Note_off_c, 0, 63, 50
1, 337605, Control_c, 0, 67, 93
1, 337619, Control_c, 0, 67, 92
1, 337634, Control_c, 0, 67, 91
1, 337649, Control_c, 0, 67, 90
1, 337664, Control_c, 0, 67, 90
1, 337679, Control_c, 0, 67, 89
1, 337691, Note_on_c, 0, 75, 47
1, 337693, Control_c, 0, 67, 89
1, 337723, Control_c, 0, 67, 88
1, 337734, Note_off_c, 0, 75, 59
1, 337789, Note_on_c, 0, 42, 42
1, 337887, Control_c, 0, 64, 125
1, 337901, Note_on_c, 0, 49, 25
1, 337902, Control_c, 0, 64, 114
1, 337916, Control_c, 0, 64, 107
1, 337931, Control_c, 0, 64, 102
1, 337946, Control_c, 0, 64, 98
1, 337961, Control_c, 0, 64, 95
1, 337976, Control_c, 0, 64, 92
1, 337991, Control_c, 0, 64, 90
1, 338006, Control_c, 0, 64, 88
1, 338021, Control_c, 0, 64, 86
1, 338035, Control_c, 0, 64, 84
1, 338050, Control_c, 0, 64, 82
1, 338065, Control_c, 0, 64, 80
1, 338071, Note_on_c, 0, 64, 54
1, 338080, Control_c, 0, 64, 77
1, 338095, Control_c, 0, 64, 70
1, 338097, Note_on_c, 0, 58, 36
1, 338110, Control_c, 0, 64, 61
1, 338124, Control_c, 0, 64, 44
1, 338139, Control_c, 0, 64, 0
1, 338250, Control_c, 0, 64, 45
1, 338265, Control_c, 0, 64, 59
1, 338280, Control_c, 0, 64, 65
1, 338295, Control_c, 0, 64, 69
1, 338310, Control_c, 0, 64, 71
1, 338324, Control_c, 0, 64, 73
1, 338333, Note_on_c, 0, 73, 27
1, 338338, Note_on_c, 0, 70, 33
1, 338339, Control_c, 0, 64, 76
1, 338354, Control_c, 0, 64, 80
1, 338369, Control_c, 0, 64, 84
1, 338383, Control_c, 0, 64, 87
1, 338398, Control_c, 0, 64, 88
1, 338413, Control_c, 0, 64, 89
1, 338428, Control_c, 0, 64, 90
1, 338443, Control_c, 0, 64, 91
1, 338457, Control_c, 0, 64, 92
1, 338472, Control_c, 0, 64, 92
1, 338473, Poly_aftertouch_c, 0, 46, 127
1, 338478, Note_on_c, 0, 68, 39
1, 338492, Note_off_c, 0, 64, 35
1, 338492, Note_off_c, 0, 73, 34
1, 338528, Note_off_c, 0, 70, 38
1, 338531, Control_c, 0, 64, 93
1, 338581, Note_on_c, 0, 66, 42
1, 338596, Note_off_c, 0, 68, 0
1, 338665, Control_c, 0, 64, 92
1, 338672, Poly_aftertouch_c, 0, 68, 0
1, 338680, Control_c, 0, 64, 91
1, 338695, Control_c, 0, 64, 86
1, 338710, Control_c, 0, 64, 80
1, 338713, Note_on_c, 0, 61, 50
1, 338725, Control_c, 0, 64, 74
1, 338733, Note_off_c, 0, 66, 50
1, 338739, Control_c, 0, 64, 69
1, 338754, Control_c, 0, 64, 66
1, 338769, Control_c, 0, 64, 65
1, 338799, Control_c, 0, 64, 66
1, 338799, Control_c, 0, 67, 89
1, 338813, Control_c, 0, 64, 67
1, 338813, Control_c, 0, 67, 90
1, 338828, Control_c, 0, 64, 69
1, 338828, Control_c, 0, 67, 90
1, 338843, Control_c, 0, 64, 72
1, 338858, Control_c, 0, 64, 75
1, 338858, Control_c, 0, 67, 91
1, 338868, Note_on_c, 0, 70, 39
1, 338868, Note_on_c, 0, 73, 34
1, 338872, Control_c, 0, 64, 77
1, 338887, Control_c, 0, 64, 80
1, 338902, Control_c, 0, 64, 83
1, 338917, Control_c, 0, 64, 85
1, 338932, Control_c, 0, 64, 87
1, 338946, Control_c, 0, 64, 89
1, 338968, Control_c, 0, 64, 90
1, 338969, Note_off_c, 0, 73, 35
1, 338974, Note_on_c, 0, 68, 45
1, 338983, Control_c, 0, 64, 90
1, 338989, Note_off_c, 0, 61, 28
1, 339028, Control_c, 0, 67, 90
1, 339072, Control_c, 0, 64, 90
1, 339082, Note_on_c, 0, 66, 41
1, 339087, Control_c, 0, 64, 88
1, 339091, Note_off_c, 0, 70, 21
1, 339102, Control_c, 0, 64, 83
1, 339117, Control_c, 0, 64, 75
1, 339132, Control_c, 0, 64, 66
1, 339144, Note_off_c, 0, 68, 42
1, 339146, Control_c, 0, 64, 57
1, 339161, Control_c, 0, 64, 48
1, 339176, Control_c, 0, 64, 43
1, 339176, Control_c, 0, 67, 90
1, 339177, Note_on_c, 0, 63, 51
1, 339181, Note_off_c, 0, 66, 57
1, 339191, Control_c, 0, 64, 42
1, 339205, Control_c, 0, 64, 44
1, 339220, Control_c, 0, 64, 47
1, 339235, Control_c, 0, 64, 51
1, 339250, Control_c, 0, 64, 58
1, 339265, Control_c, 0, 64, 63
1, 339279, Control_c, 0, 64, 67
1, 339294, Control_c, 0, 64, 71
1, 339305, Note_on_c, 0, 70, 43
1, 339309, Control_c, 0, 64, 76
1, 339314, Note_on_c, 0, 73, 33
1, 339324, Control_c, 0, 64, 80
1, 339324, Control_c, 0, 67, 89
1, 339338, Note_off_c, 0, 49, 44
1, 339340, Control_c, 0, 64, 84
1, 339355, Note_off_c, 0, 58, 38
1, 339355, Control_c, 0, 64, 90
1, 339369, Control_c, 0, 64, 95
1, 339373, Note_off_c, 0, 63, 27
1, 339384, Control_c, 0, 64, 100
1, 339399, Control_c, 0, 64, 106
1, 339407, Note_on_c, 0, 68, 45
1, 339413, Control_c, 0, 64, 109
1, 339413, Control_c, 0, 67, 89
1, 339414, Poly_aftertouch_c, 0, 46, 0
1, 339417, Note_off_c, 0, 73, 35
1, 339443, Control_c, 0, 64, 111
1, 339503, Note_on_c, 0, 66, 40
1, 339549, Note_off_c, 0, 70, 34
1, 339562, Control_c, 0, 64, 108
1, 339569, Note_off_c, 0, 42, 42
1, 339577, Control_c, 0, 64, 101
1, 339577, Control_c, 0, 67, 88
1, 339591, Control_c, 0, 64, 88
1, 339607, Control_c, 0, 64, 75
1, 339618, Note_on_c, 0, 61, 51
1, 339621, Control_c, 0, 64, 64
1, 339629, Note_off_c, 0, 66, 52
1, 339632, Note_off_c, 0, 68, 43
1, 339636, Control_c, 0, 64, 55
1, 339651, Control_c, 0, 64, 51
1, 339666, Control_c, 0, 64, 52
1, 339681, Control_c, 0, 64, 55
1, 339696, Control_c, 0, 64, 59
1, 339718, Control_c, 0, 64, 63
1, 339733, Control_c, 0, 64, 66
1, 339748, Control_c, 0, 64, 70
1, 339758, Note_on_c, 0, 70, 46
1, 339763, Control_c, 0, 64, 75
1, 339777, Control_c, 0, 64, 79
1, 339779, Note_on_c, 0, 73, 37
1, 339792, Control_c, 0, 64, 83
1, 339792, Control_c, 0, 67, 88
1, 339807, Control_c, 0, 64, 86
1, 339807, Control_c, 0, 67, 87
1, 339821, Control_c, 0, 64, 90
1, 339821, Control_c, 0, 67, 87
1, 339835, Note_off_c, 0, 61, 35
1, 339836, Control_c, 0, 64, 94
1, 339836, Control_c, 0, 67, 86
1, 339848, Note_on_c, 0, 68, 48
1, 339851, Note_off_c, 0, 73, 51
1, 339851, Control_c, 0, 64, 97
1, 339851, Control_c, 0, 67, 86
1, 339869, Note_on_c, 0, 42, 44
1, 339881, Control_c, 0, 67, 85
1, 339896, Control_c, 0, 67, 85
1, 339935, Note_off_c, 0, 70, 30
1, 339940, Control_c, 0, 67, 84
1, 339943, Note_on_c, 0, 49, 45
1, 339962, Note_on_c, 0, 66, 31
1, 339970, Control_c, 0, 67, 84
1, 339985, Control_c, 0, 64, 96
1, 339993, Note_off_c, 0, 68, 33
1, 340000, Control_c, 0, 64, 95
1, 340014, Control_c, 0, 64, 93
1, 340029, Control_c, 0, 64, 91
1, 340044, Control_c, 0, 64, 88
1, 340059, Control_c, 0, 64, 81
1, 340074, Control_c, 0, 64, 73
1, 340089, Control_c, 0, 64, 65
1, 340100, Note_on_c, 0, 58, 57
1, 340103, Control_c, 0, 64, 58
1, 340118, Control_c, 0, 64, 53
1, 340119, Note_off_c, 0, 66, 40
1, 340133, Control_c, 0, 64, 50
1, 340134, Note_on_c, 0, 63, 35
1, 340164, Control_c, 0, 64, 50
1, 340179, Control_c, 0, 64, 51
1, 340193, Control_c, 0, 64, 53
1, 340208, Control_c, 0, 64, 57
1, 340223, Control_c, 0, 64, 61
1, 340237, Control_c, 0, 64, 65
1, 340252, Control_c, 0, 64, 69
1, 340267, Note_on_c, 0, 73, 21
1, 340267, Control_c, 0, 64, 74
1, 340269, Note_off_c, 0, 63, 36
1, 340270, Note_on_c, 0, 70, 29
1, 340278, Note_off_c, 0, 42, 42
1, 340282, Control_c, 0, 64, 79
1, 340297, Control_c, 0, 64, 84
1, 340304, Note_off_c, 0, 49, 36
1, 340311, Control_c, 0, 64, 90
1, 340326, Control_c, 0, 64, 99
1, 340341, Control_c, 0, 64, 127
1, 340343, Note_off_c, 0, 73, 39
1, 340371, Note_on_c, 0, 68, 37
1, 340400, Control_c, 0, 67, 84
1, 340430, Control_c, 0, 67, 85
1, 340441, Note_off_c, 0, 70, 38
1, 340445, Note_off_c, 0, 58, 39
1, 340481, Note_on_c, 0, 66, 41
1, 340560, Note_off_c, 0, 68, 39
1, 340585, Control_c, 0, 64, 94
1, 340585, Control_c, 0, 67, 85
1, 340600, Control_c, 0, 64, 78
1, 340602, Note_on_c, 0, 56, 64
1, 340605, Note_on_c, 0, 61, 42
1, 340615, Control_c, 0, 64, 68
1, 340617, Note_off_c, 0, 66, 35
1, 340630, Control_c, 0, 64, 63
1, 340644, Control_c, 0, 64, 63
1, 340659, Control_c, 0, 64, 64
1, 340674, Control_c, 0, 64, 67
1, 340689, Control_c, 0, 64, 71
1, 340704, Control_c, 0, 64, 77
1, 340714, Note_off_c, 0, 56, 63
1, 340718, Control_c, 0, 64, 84
1, 340719, Note_on_c, 0, 70, 44
1, 340724, Note_on_c, 0, 73, 35
1, 340733, Control_c, 0, 64, 93
1, 340748, Control_c, 0, 64, 107
1, 340754, Note_off_c, 0, 61, 35
1, 340763, Control_c, 0, 64, 127
1, 340794, Note_on_c, 0, 68, 48
1, 340795, Note_off_c, 0, 73, 45
1, 340879, Note_off_c, 0, 70, 34
1, 340900, Note_on_c, 0, 37, 50
1, 340927, Note_on_c, 0, 66, 31
1, 340951, Note_off_c, 0, 68, 42
1, 340969, Note_on_c, 0, 44, 47
1, 340986, Control_c, 0, 64, 110
1, 341001, Control_c, 0, 64, 90
1, 341016, Control_c, 0, 64, 75
1, 341031, Control_c, 0, 64, 61
1, 341039, Note_on_c, 0, 52, 59
1, 341040, Note_off_c, 0, 66, 53
1, 341046, Control_c, 0, 64, 34
1, 341055, Note_on_c, 0, 63, 42
1, 341061, Control_c, 0, 64, 0
1, 341149, Control_c, 0, 64, 40
1, 341164, Control_c, 0, 64, 59
1, 341166, Note_off_c, 0, 44, 56
1, 341177, Note_on_c, 0, 73, 31
1, 341179, Control_c, 0, 64, 69
1, 341180, Note_on_c, 0, 70, 39
1, 341186, Note_off_c, 0, 37, 44
1, 341193, Control_c, 0, 64, 79
1, 341201, Note_off_c, 0, 63, 34
1, 341216, Control_c, 0, 64, 95
1, 341231, Control_c, 0, 64, 127
1, 341271, Note_off_c, 0, 73, 37
1, 341276, Note_on_c, 0, 68, 50
1, 341282, Note_off_c, 0, 52, 59
1, 341356, Note_off_c, 0, 70, 36
1, 341378, Note_on_c, 0, 66, 48
1, 341447, Note_off_c, 0, 68, 41
1, 341463, Note_off_c, 0, 66, 56
1, 341476, Note_on_c, 0, 58, 64
1, 341479, Note_on_c, 0, 61, 51
1, 341482, Control_c, 0, 64, 90
1, 341497, Control_c, 0, 64, 72
1, 341512, Control_c, 0, 64, 61
1, 341527, Control_c, 0, 64, 50
1, 341541, Control_c, 0, 64, 43
1, 341556, Control_c, 0, 64, 41
1, 341571, Control_c, 0, 64, 43
1, 341586, Control_c, 0, 64, 48
1, 341601, Control_c, 0, 64, 55
1, 341609, Note_on_c, 0, 70, 41
1, 341610, Note_on_c, 0, 73, 32
1, 341616, Control_c, 0, 64, 62
1, 341630, Control_c, 0, 64, 68
1, 341644, Note_off_c, 0, 58, 63
1, 341645, Control_c, 0, 64, 81
1, 341657, Note_off_c, 0, 61, 34
1, 341660, Control_c, 0, 64, 103
1, 341675, Control_c, 0, 64, 127
1, 341689, Note_on_c, 0, 68, 56
1, 341728, Note_off_c, 0, 73, 32
1, 341787, Note_off_c, 0, 70, 41
1, 341803, Note_on_c, 0, 66, 45
1, 341809, Note_on_c, 0, 42, 42
1, 341852, Note_on_c, 0, 49, 51
1, 341852, Control_c, 0, 64, 119
1, 341863, Note_off_c, 0, 68, 33
1, 341867, Control_c, 0, 64, 85
1, 341881, Control_c, 0, 64, 69
1, 341896, Control_c, 0, 64, 58
1, 341899, Note_on_c, 0, 56, 68
1, 341901, Note_off_c, 0, 66, 58
1, 341911, Control_c, 0, 64, 45
1, 341919, Note_on_c, 0, 63, 46
1, 341926, Control_c, 0, 64, 34
1, 341941, Control_c, 0, 64, 0
1, 341978, Control_c, 0, 64, 33
1, 341993, Control_c, 0, 64, 42
1, 342008, Control_c, 0, 64, 52
1, 342022, Control_c, 0, 64, 60
1, 342031, Note_off_c, 0, 63, 38
1, 342037, Control_c, 0, 64, 65
1, 342052, Control_c, 0, 64, 72
1, 342062, Note_on_c, 0, 73, 18
1, 342063, Note_on_c, 0, 70, 29
1, 342067, Control_c, 0, 64, 79
1, 342076, Note_off_c, 0, 56, 61
1, 342082, Control_c, 0, 64, 88
1, 342096, Control_c, 0, 64, 101
1, 342096, Control_c, 0, 67, 85
1, 342111, Control_c, 0, 64, 127
1, 342111, Control_c, 0, 67, 84
1, 342126, Control_c, 0, 67, 84
1, 342134, Note_on_c, 0, 68, 48
1, 342143, Note_off_c, 0, 73, 37
1, 342155, Control_c, 0, 67, 83
1, 342170, Control_c, 0, 67, 83
1, 342215, Control_c, 0, 67, 82
1, 342224, Note_on_c, 0, 66, 52
1, 342239, Note_off_c, 0, 70, 39
1, 342244, Control_c, 0, 67, 81
1, 342259, Control_c, 0, 67, 80
1, 342274, Control_c, 0, 67, 78
1, 342283, Note_off_c, 0, 42, 44
1, 342289, Control_c, 0, 67, 74
1, 342295, Note_off_c, 0, 49, 40
1, 342304, Control_c, 0, 67, 71
1, 342319, Control_c, 0, 67, 67
1, 342332, Note_on_c, 0, 52, 69
1, 342333, Control_c, 0, 64, 88
1, 342333, Control_c, 0, 67, 63
1, 342340, Note_off_c, 0, 66, 55
1, 342343, Note_on_c, 0, 61, 50
1, 342348, Control_c, 0, 64, 70
1, 342348, Control_c, 0, 67, 58
1, 342357, Note_off_c, 0, 68, 45
1, 342363, Control_c, 0, 64, 62
1, 342363, Control_c, 0, 67, 52
1, 342378, Control_c, 0, 64, 57
1, 342378, Control_c, 0, 67, 44
1, 342393, Control_c, 0, 64, 57
1, 342393, Control_c, 0, 67, 38
1, 342407, Control_c, 0, 64, 60
1, 342407, Control_c, 0, 67, 31
1, 342422, Control_c, 0, 64, 64
1, 342422, Control_c, 0, 67, 25
1, 342437, Control_c, 0, 64, 68
1, 342437, Control_c, 0, 67, 19
1, 342452, Control_c, 0, 64, 72
1, 342452, Control_c, 0, 67, 0
1, 342467, Control_c, 0, 64, 76
1, 342478, Note_on_c, 0, 73, 39
1, 342480, Note_on_c, 0, 70, 44
1, 342481, Control_c, 0, 64, 79
1, 342491, Note_off_c, 0, 52, 59
1, 342496, Control_c, 0, 64, 83
1, 342511, Control_c, 0, 64, 86
1, 342522, Note_off_c, 0, 61, 37
1, 342526, Control_c, 0, 64, 88
1, 342540, Note_off_c, 0, 73, 54
1, 342542, Control_c, 0, 64, 90
1, 342555, Note_on_c, 0, 68, 51
1, 342556, Control_c, 0, 64, 92
1, 342571, Control_c, 0, 64, 94
1, 342586, Control_c, 0, 64, 96
1, 342602, Control_c, 0, 64, 98
1, 342630, Note_off_c, 0, 70, 31
1, 342631, Control_c, 0, 64, 100
1, 342632, Note_on_c, 0, 37, 54
1, 342665, Note_on_c, 0, 66, 46
1, 342676, Control_c, 0, 64, 93
1, 342682, Note_on_c, 0, 44, 62
1, 342691, Control_c, 0, 64, 82
1, 342697, Note_off_c, 0, 68, 32
1, 342712, Control_c, 0, 64, 71
1, 342727, Control_c, 0, 64, 64
1, 342730, Note_off_c, 0, 37, 55
1, 342742, Control_c, 0, 64, 60
1, 342757, Control_c, 0, 64, 62
1, 342772, Control_c, 0, 64, 65
1, 342772, Note_on_c, 0, 54, 72
1, 342787, Control_c, 0, 64, 69
1, 342802, Control_c, 0, 64, 75
1, 342802, Note_off_c, 0, 66, 58
1, 342814, Note_on_c, 0, 63, 45
1, 342817, Control_c, 0, 64, 81
1, 342822, Note_off_c, 0, 44, 63
1, 342832, Control_c, 0, 64, 87
1, 342846, Control_c, 0, 64, 96
1, 342861, Control_c, 0, 64, 106
1, 342876, Control_c, 0, 64, 127
1, 342956, Note_on_c, 0, 70, 39
1, 342959, Note_on_c, 0, 73, 27
1, 342963, Note_off_c, 0, 63, 30
1, 342984, Note_off_c, 0, 54, 39
1, 343047, Note_on_c, 0, 56, 80
1, 343051, Note_off_c, 0, 73, 34
1, 343069, Note_on_c, 0, 68, 46
1, 343130, Note_off_c, 0, 70, 39
1, 343156, Note_on_c, 0, 66, 55
1, 343246, Control_c, 0, 64, 97
1, 343248, Note_off_c, 0, 68, 31
1, 343261, Control_c, 0, 64, 77
1, 343264, Note_off_c, 0, 66, 58
1, 343265, Note_on_c, 0, 59, 75
1, 343276, Control_c, 0, 64, 66
1, 343277, Note_off_c, 0, 56, 55
1, 343278, Note_on_c, 0, 61, 47
1, 343281, Note_on_c, 0, 52, 69
1, 343291, Control_c, 0, 64, 59
1, 343305, Control_c, 0, 64, 56
1, 343320, Control_c, 0, 64, 57
1, 343329, Note_off_c, 0, 61, 59
1, 343336, Control_c, 0, 64, 59
1, 343348, Note_off_c, 0, 52, 61
1, 343350, Control_c, 0, 64, 62
1, 343365, Control_c, 0, 64, 66
1, 343380, Control_c, 0, 64, 72
1, 343395, Control_c, 0, 64, 81
1, 343402, Note_on_c, 0, 70, 49
1, 343403, Note_on_c, 0, 73, 37
1, 343410, Control_c, 0, 64, 94
1, 343425, Control_c, 0, 64, 119
1, 343440, Control_c, 0, 64, 127
1, 343449, Note_on_c, 0, 61, 86
1, 343449, Note_off_c, 0, 59, 60
1, 343504, Note_off_c, 0, 61, 64
1, 343531, Note_on_c, 0, 68, 54
1, 343583, Note_off_c, 0, 73, 23
1, 343610, Note_on_c, 0, 66, 60
1, 343612, Note_off_c, 0, 70, 28
1, 343616, Note_on_c, 0, 46, 65
1, 343635, Note_off_c, 0, 68, 55
1, 343674, Note_on_c, 0, 54, 62
1, 343699, Control_c, 0, 64, 116
1, 343713, Control_c, 0, 64, 84
1, 343728, Control_c, 0, 64, 66
1, 343729, Note_on_c, 0, 63, 79
1, 343743, Control_c, 0, 64, 42
1, 343758, Control_c, 0, 64, 0
1, 343770, Note_off_c, 0, 66, 53
1, 343832, Control_c, 0, 64, 29
1, 343847, Control_c, 0, 64, 46
1, 343861, Control_c, 0, 64, 57
1, 343876, Control_c, 0, 64, 63
1, 343878, Note_on_c, 0, 73, 45
1, 343881, Note_on_c, 0, 70, 49
1, 343891, Control_c, 0, 64, 66
1, 343906, Control_c, 0, 64, 70
1, 343920, Control_c, 0, 64, 76
1, 343935, Control_c, 0, 64, 87
1, 343941, Note_off_c, 0, 73, 49
1, 343950, Control_c, 0, 64, 102
1, 343965, Control_c, 0, 64, 127
1, 343990, Note_on_c, 0, 68, 54
1, 343999, Note_off_c, 0, 63, 37
1, 344021, Note_off_c, 0, 46, 37
1, 344042, Note_off_c, 0, 70, 32
1, 344042, Note_off_c, 0, 54, 51
1, 344093, Note_on_c, 0, 66, 56
1, 344157, Note_off_c, 0, 68, 33
1, 344219, Note_off_c, 0, 66, 57
1, 344230, Note_on_c, 0, 61, 69
1, 344244, Note_on_c, 0, 52, 50
1, 344255, Control_c, 0, 64, 98
1, 344270, Control_c, 0, 64, 79
1, 344284, Control_c, 0, 64, 65
1, 344299, Control_c, 0, 64, 52
1, 344314, Control_c, 0, 64, 36
1, 344329, Control_c, 0, 64, 30
1, 344358, Control_c, 0, 64, 35
1, 344373, Control_c, 0, 64, 41
1, 344388, Control_c, 0, 64, 51
1, 344399, Note_on_c, 0, 70, 40
1, 344403, Control_c, 0, 64, 60
1, 344418, Control_c, 0, 64, 65
1, 344425, Note_on_c, 0, 73, 6
1, 344427, Note_off_c, 0, 61, 61
1, 344432, Control_c, 0, 64, 71
1, 344447, Control_c, 0, 64, 76
1, 344462, Control_c, 0, 64, 81
1, 344477, Control_c, 0, 64, 86
1, 344479, Note_off_c, 0, 52, 61
1, 344489, Note_off_c, 0, 73, 44
1, 344492, Control_c, 0, 64, 93
1, 344507, Control_c, 0, 64, 101
1, 344510, Note_on_c, 0, 68, 48
1, 344522, Control_c, 0, 64, 114
1, 344536, Control_c, 0, 64, 127
1, 344564, Note_off_c, 0, 70, 33
1, 344566, Control_c, 0, 67, 21
1, 344581, Control_c, 0, 67, 23
1, 344596, Control_c, 0, 67, 26
1, 344610, Control_c, 0, 67, 29
1, 344625, Note_off_c, 0, 68, 50
1, 344625, Control_c, 0, 67, 35
1, 344635, Note_on_c, 0, 66, 42
1, 344640, Control_c, 0, 67, 45
1, 344655, Control_c, 0, 67, 58
1, 344670, Control_c, 0, 67, 74
1, 344681, Note_off_c, 0, 66, 55
1, 344684, Control_c, 0, 67, 90
1, 344699, Control_c, 0, 67, 105
1, 344714, Control_c, 0, 67, 121
1, 344728, Control_c, 0, 67, 127
1, 344758, Control_c, 0, 64, 116
1, 344773, Control_c, 0, 64, 108
1, 344788, Control_c, 0, 64, 101
1, 344803, Control_c, 0, 64, 96
1, 344817, Control_c, 0, 64, 90
1, 344832, Control_c, 0, 64, 83
1, 344847, Control_c, 0, 64, 76
1, 344862, Control_c, 0, 64, 70
1, 344877, Control_c, 0, 64, 64
1, 344892, Control_c, 0, 64, 58
1, 344906, Control_c, 0, 64, 48
1, 344921, Control_c, 0, 64, 32
1, 344937, Control_c, 0, 64, 0
1, 344981, Note_on_c, 0, 63, 46
1, 344994, Note_on_c, 0, 35, 30
1, 345004, Note_on_c, 0, 47, 24
1, 345263, Note_on_c, 0, 73, 40
1, 345270, Control_c, 0, 64, 32
1, 345285, Control_c, 0, 64, 46
1, 345300, Control_c, 0, 64, 56
1, 345315, Control_c, 0, 64, 61
1, 345322, Poly_aftertouch_c, 0, 75, 127
1, 345330, Control_c, 0, 64, 64
1, 345345, Control_c, 0, 64, 66
1, 345359, Control_c, 0, 64, 68
1, 345371, Poly_aftertouch_c, 0, 75, 0
1, 345374, Control_c, 0, 64, 71
1, 345389, Control_c, 0, 64, 75
1, 345404, Control_c, 0, 64, 82
1, 345419, Control_c, 0, 64, 91
1, 345433, Control_c, 0, 64, 112
1, 345446, Note_on_c, 0, 71, 32
1, 345448, Control_c, 0, 64, 127
1, 345472, Note_off_c, 0, 63, 36
1, 345562, Note_off_c, 0, 73, 32
1, 345574, Note_on_c, 0, 69, 42
1, 345601, Note_off_c, 0, 71, 39
1, 345616, Note_off_c, 0, 35, 40
1, 345674, Note_on_c, 0, 65, 47
1, 345689, Note_off_c, 0, 47, 48
1, 345727, Note_off_c, 0, 69, 33
1, 345804, Note_on_c, 0, 73, 42
1, 345813, Note_on_c, 0, 77, 40
1, 345851, Note_off_c, 0, 65, 30
1, 345902, Note_off_c, 0, 77, 43
1, 345930, Note_on_c, 0, 42, 27
1, 345932, Note_on_c, 0, 54, 38
1, 345964, Note_on_c, 0, 71, 33
1, 345965, Note_off_c, 0, 54, 57
1, 345972, Note_off_c, 0, 42, 51
1, 346010, Note_off_c, 0, 73, 37
1, 346022, Note_on_c, 0, 69, 45
1, 346035, Note_off_c, 0, 71, 42
1, 346108, Control_c, 0, 64, 119
1, 346123, Control_c, 0, 64, 83
1, 346137, Note_on_c, 0, 63, 57
1, 346138, Control_c, 0, 64, 63
1, 346138, Note_off_c, 0, 69, 49
1, 346141, Note_on_c, 0, 47, 38
1, 346149, Note_on_c, 0, 59, 34
1, 346152, Control_c, 0, 64, 48
1, 346167, Control_c, 0, 64, 41
1, 346182, Control_c, 0, 64, 45
1, 346197, Control_c, 0, 64, 52
1, 346212, Control_c, 0, 64, 57
1, 346227, Control_c, 0, 64, 61
1, 346233, Note_off_c, 0, 59, 61
1, 346242, Control_c, 0, 64, 64
1, 346256, Control_c, 0, 64, 69
1, 346257, Note_on_c, 0, 75, 33
1, 346265, Note_on_c, 0, 73, 43
1, 346271, Control_c, 0, 64, 75
1, 346286, Control_c, 0, 64, 82
1, 346296, Note_off_c, 0, 47, 56
1, 346300, Control_c, 0, 64, 90
1, 346315, Control_c, 0, 64, 99
1, 346318, Note_off_c, 0, 75, 41
1, 346330, Control_c, 0, 64, 127
1, 346360, Note_on_c, 0, 71, 42
1, 346380, Note_off_c, 0, 63, 34
1, 346436, Note_off_c, 0, 73, 33
1, 346459, Note_on_c, 0, 69, 55
1, 346528, Note_off_c, 0, 71, 32
1, 346561, Control_c, 0, 64, 97
1, 346573, Note_on_c, 0, 65, 60
1, 346576, Control_c, 0, 64, 77
1, 346579, Note_off_c, 0, 69, 53
1, 346585, Note_on_c, 0, 49, 42
1, 346591, Control_c, 0, 64, 63
1, 346594, Note_on_c, 0, 37, 41
1, 346605, Control_c, 0, 64, 47
1, 346620, Control_c, 0, 64, 0
1, 346650, Control_c, 0, 64, 30
1, 346665, Control_c, 0, 64, 37
1, 346679, Control_c, 0, 64, 47
1, 346694, Control_c, 0, 64, 56
1, 346704, Note_on_c, 0, 77, 40
1, 346707, Note_on_c, 0, 75, 46
1, 346709, Control_c, 0, 64, 62
1, 346724, Control_c, 0, 64, 67
1, 346738, Control_c, 0, 64, 72
1, 346753, Control_c, 0, 64, 78
1, 346768, Control_c, 0, 64, 84
1, 346783, Control_c, 0, 64, 91
1, 346798, Control_c, 0, 64, 99
1, 346799, Note_on_c, 0, 73, 62
1, 346808, Note_off_c, 0, 77, 57
1, 346812, Control_c, 0, 64, 112
1, 346827, Control_c, 0, 64, 127
1, 346832, Note_off_c, 0, 65, 41
1, 346844, Note_off_c, 0, 75, 63
1, 346868, Note_off_c, 0, 37, 40
1, 346871, Note_off_c, 0, 49, 50
1, 346918, Note_on_c, 0, 71, 59
1, 346958, Note_off_c, 0, 73, 52
1, 346978, Note_off_c, 0, 71, 58
1, 346984, Note_on_c, 0, 66, 70
1, 347094, Note_on_c, 0, 78, 59
1, 347095, Note_on_c, 0, 75, 56
1, 347145, Note_on_c, 0, 45, 58
1, 347152, Note_on_c, 0, 57, 54
1, 347169, Note_on_c, 0, 73, 70
1, 347181, Note_off_c, 0, 45, 64
1, 347188, Note_off_c, 0, 57, 64
1, 347207, Note_off_c, 0, 66, 48
1, 347243, Note_off_c, 0, 78, 32
1, 347262, Note_on_c, 0, 71, 66
1, 347270, Note_off_c, 0, 75, 54
1, 347324, Control_c, 0, 64, 100
1, 347340, Control_c, 0, 64, 82
1, 347348, Note_on_c, 0, 61, 67
1, 347351, Note_on_c, 0, 49, 65
1, 347352, Note_off_c, 0, 73, 57
1, 347353, Note_on_c, 0, 65, 73
1, 347354, Control_c, 0, 64, 72
1, 347369, Control_c, 0, 64, 67
1, 347372, Note_off_c, 0, 71, 61
1, 347384, Control_c, 0, 64, 67
1, 347399, Control_c, 0, 64, 68
1, 347414, Control_c, 0, 64, 71
1, 347427, Note_off_c, 0, 61, 56
1, 347428, Control_c, 0, 64, 78
1, 347443, Control_c, 0, 64, 86
1, 347456, Note_on_c, 0, 77, 65
1, 347458, Control_c, 0, 64, 95
1, 347466, Note_off_c, 0, 49, 61
1, 347473, Control_c, 0, 64, 106
1, 347481, Note_on_c, 0, 75, 52
1, 347488, Control_c, 0, 64, 127
1, 347530, Note_off_c, 0, 65, 58
1, 347546, Note_on_c, 0, 73, 71
1, 347553, Note_off_c, 0, 77, 59
1, 347592, Note_off_c, 0, 75, 62
1, 347626, Note_on_c, 0, 71, 70
1, 347710, Control_c, 0, 64, 102
1, 347725, Control_c, 0, 64, 72
1, 347728, Note_off_c, 0, 73, 50
1, 347731, Note_on_c, 0, 51, 74
1, 347734, Note_on_c, 0, 66, 77
1, 347737, Note_on_c, 0, 39, 70
1, 347740, Control_c, 0, 64, 55
1, 347742, Note_off_c, 0, 71, 56
1, 347754, Control_c, 0, 64, 0
1, 347840, Note_on_c, 0, 75, 64
1, 347841, Note_on_c, 0, 78, 64
1, 347873, Control_c, 0, 64, 46
1, 347887, Control_c, 0, 64, 60
1, 347895, Note_off_c, 0, 66, 54
1, 347902, Control_c, 0, 64, 67
1, 347917, Control_c, 0, 64, 73
1, 347920, Note_on_c, 0, 73, 70
1, 347927, Note_off_c, 0, 78, 57
1, 347932, Control_c, 0, 64, 76
1, 347954, Control_c, 0, 64, 78
1, 347969, Control_c, 0, 64, 80
1, 347984, Control_c, 0, 64, 81
1, 347999, Control_c, 0, 64, 82
1, 348001, Note_off_c, 0, 75, 56
1, 348014, Control_c, 0, 64, 82
1, 348015, Note_on_c, 0, 71, 70
1, 348025, Note_off_c, 0, 39, 58
1, 348041, Note_off_c, 0, 51, 62
1, 348090, Note_off_c, 0, 73, 47
1, 348096, Note_on_c, 0, 68, 86
1, 348114, Note_off_c, 0, 71, 61
1, 348163, Control_c, 0, 67, 122
1, 348177, Control_c, 0, 67, 110
1, 348188, Note_on_c, 0, 80, 78
1, 348192, Control_c, 0, 67, 98
1, 348207, Control_c, 0, 67, 88
1, 348215, Note_on_c, 0, 75, 47
1, 348222, Control_c, 0, 67, 79
1, 348232, Note_off_c, 0, 68, 52
1, 348237, Control_c, 0, 67, 70
1, 348251, Control_c, 0, 67, 64
1, 348263, Note_on_c, 0, 45, 70
1, 348266, Control_c, 0, 64, 83
1, 348266, Control_c, 0, 67, 58
1, 348271, Note_on_c, 0, 57, 67
1, 348274, Note_on_c, 0, 73, 75
1, 348281, Control_c, 0, 67, 54
1, 348296, Control_c, 0, 64, 83
1, 348296, Control_c, 0, 67, 51
1, 348302, Note_off_c, 0, 45, 65
1, 348302, Note_off_c, 0, 57, 66
1, 348311, Note_off_c, 0, 80, 39
1, 348311, Control_c, 0, 64, 84
1, 348311, Control_c, 0, 67, 49
1, 348326, Control_c, 0, 64, 85
1, 348326, Control_c, 0, 67, 48
1, 348340, Control_c, 0, 64, 86
1, 348340, Control_c, 0, 67, 48
1, 348352, Note_on_c, 0, 71, 72
1, 348355, Control_c, 0, 64, 86
1, 348355, Control_c, 0, 67, 46
1, 348370, Control_c, 0, 67, 42
1, 348385, Control_c, 0, 64, 84
1, 348385, Control_c, 0, 67, 34
1, 348385, Note_off_c, 0, 75, 38
1, 348400, Control_c, 0, 64, 76
1, 348400, Control_c, 0, 67, 23
1, 348415, Control_c, 0, 64, 65
1, 348415, Control_c, 0, 67, 0
1, 348430, Control_c, 0, 64, 50
1, 348436, Note_off_c, 0, 73, 57
1, 348442, Note_on_c, 0, 63, 75
1, 348445, Control_c, 0, 64, 45
1, 348447, Note_on_c, 0, 51, 76
1, 348447, Note_on_c, 0, 66, 78
1, 348458, Note_off_c, 0, 71, 62
1, 348459, Control_c, 0, 64, 50
1, 348474, Control_c, 0, 64, 58
1, 348489, Control_c, 0, 64, 64
1, 348503, Control_c, 0, 64, 70
1, 348510, Note_off_c, 0, 63, 61
1, 348518, Control_c, 0, 64, 79
1, 348523, Note_off_c, 0, 66, 62
1, 348530, Note_off_c, 0, 51, 59
1, 348533, Control_c, 0, 64, 89
1, 348535, Note_on_c, 0, 78, 77
1, 348548, Control_c, 0, 64, 101
1, 348563, Control_c, 0, 64, 127
1, 348598, Note_off_c, 0, 78, 61
1, 348622, Note_on_c, 0, 68, 88
1, 348710, Note_on_c, 0, 80, 83
1, 348719, Note_off_c, 0, 68, 62
1, 348768, Note_off_c, 0, 80, 61
1, 348807, Control_c, 0, 64, 90
1, 348822, Control_c, 0, 64, 62
1, 348835, Note_on_c, 0, 41, 83
1, 348836, Control_c, 0, 64, 37
1, 348837, Note_on_c, 0, 70, 85
1, 348839, Note_on_c, 0, 53, 81
1, 348851, Control_c, 0, 64, 0
1, 348896, Control_c, 0, 64, 39
1, 348900, Note_off_c, 0, 41, 62
1, 348909, Note_off_c, 0, 53, 62
1, 348910, Control_c, 0, 64, 57
1, 348926, Control_c, 0, 64, 70
1, 348941, Control_c, 0, 64, 80
1, 348951, Note_on_c, 0, 82, 73
1, 348954, Note_on_c, 0, 78, 67
1, 348956, Control_c, 0, 64, 93
1, 348971, Control_c, 0, 64, 102
1, 348986, Control_c, 0, 64, 108
1, 348990, Note_off_c, 0, 70, 51
1, 349000, Control_c, 0, 64, 111
1, 349047, Note_on_c, 0, 77, 66
1, 349057, Note_on_c, 0, 59, 80
1, 349061, Note_on_c, 0, 47, 82
1, 349079, Note_off_c, 0, 82, 57
1, 349107, Note_off_c, 0, 59, 64
1, 349109, Note_off_c, 0, 47, 62
1, 349143, Note_off_c, 0, 78, 37
1, 349149, Note_on_c, 0, 75, 76
1, 349182, Note_off_c, 0, 77, 60
1, 349208, Control_c, 0, 64, 98
1, 349223, Control_c, 0, 64, 77
1, 349238, Control_c, 0, 64, 64
1, 349242, Note_off_c, 0, 75, 58
1, 349252, Control_c, 0, 64, 54
1, 349259, Note_on_c, 0, 53, 81
1, 349259, Note_on_c, 0, 65, 82
1, 349261, Note_on_c, 0, 68, 84
1, 349267, Control_c, 0, 64, 53
1, 349282, Control_c, 0, 64, 58
1, 349297, Control_c, 0, 64, 62
1, 349312, Control_c, 0, 64, 66
1, 349315, Note_off_c, 0, 65, 64
1, 349326, Control_c, 0, 64, 70
1, 349333, Note_off_c, 0, 53, 62
1, 349340, Control_c, 0, 64, 76
1, 349346, Note_off_c, 0, 68, 64
1, 349355, Note_on_c, 0, 80, 81
1, 349355, Control_c, 0, 64, 82
1, 349370, Control_c, 0, 64, 87
1, 349385, Control_c, 0, 64, 93
1, 349399, Control_c, 0, 64, 98
1, 349414, Control_c, 0, 64, 103
1, 349420, Note_off_c, 0, 80, 62
1, 349429, Control_c, 0, 64, 107
1, 349451, Control_c, 0, 64, 117
1, 349463, Note_on_c, 0, 70, 92
1, 349466, Control_c, 0, 64, 127
1, 349554, Note_on_c, 0, 82, 86
1, 349567, Note_off_c, 0, 70, 59
1, 349613, Note_off_c, 0, 82, 60
1, 349644, Control_c, 0, 64, 100
1, 349658, Control_c, 0, 64, 71
1, 349673, Control_c, 0, 64, 49
1, 349679, Note_on_c, 0, 56, 87
1, 349681, Note_on_c, 0, 44, 83
1, 349685, Note_on_c, 0, 71, 92
1, 349688, Control_c, 0, 64, 0
1, 349734, Control_c, 0, 64, 33
1, 349748, Control_c, 0, 64, 52
1, 349749, Note_off_c, 0, 44, 62
1, 349763, Control_c, 0, 64, 65
1, 349768, Note_off_c, 0, 56, 54
1, 349778, Control_c, 0, 64, 78
1, 349793, Control_c, 0, 64, 105
1, 349805, Note_on_c, 0, 78, 83
1, 349808, Note_on_c, 0, 83, 82
1, 349808, Control_c, 0, 64, 127
1, 349867, Note_off_c, 0, 71, 54
1, 349936, Note_on_c, 0, 63, 91
1, 349941, Note_on_c, 0, 77, 78
1, 349949, Note_on_c, 0, 51, 80
1, 349957, Note_off_c, 0, 83, 59
1, 349977, Note_off_c, 0, 51, 67
1, 349986, Note_off_c, 0, 78, 59
1, 350006, Note_off_c, 0, 63, 62
1, 350063, Note_on_c, 0, 75, 86
1, 350069, Note_off_c, 0, 77, 60
1, 350225, Note_off_c, 0, 75, 61
1, 350226, Note_on_c, 0, 56, 85
1, 350226, Note_on_c, 0, 68, 88
1, 350230, Control_c, 0, 64, 82
1, 350233, Note_on_c, 0, 73, 100
1, 350245, Control_c, 0, 64, 58
1, 350260, Control_c, 0, 64, 30
1, 350275, Control_c, 0, 64, 40
1, 350277, Note_off_c, 0, 68, 64
1, 350290, Control_c, 0, 64, 58
1, 350305, Control_c, 0, 64, 70
1, 350320, Control_c, 0, 64, 96
1, 350323, Note_off_c, 0, 56, 60
1, 350335, Control_c, 0, 64, 127
1, 350405, Note_off_c, 0, 73, 56
1, 350413, Note_on_c, 0, 85, 99
1, 350464, Note_off_c, 0, 85, 60
1, 350958, Note_on_c, 0, 83, 95
1, 350960, Note_on_c, 0, 71, 90
1, 351025, Note_off_c, 0, 71, 61
1, 351037, Note_off_c, 0, 83, 61
1, 351062, Poly_aftertouch_c, 0, 37, 127
1, 351101, Poly_aftertouch_c, 0, 37, 0
1, 351142, Control_c, 0, 64, 94
1, 351157, Control_c, 0, 64, 73
1, 351172, Control_c, 0, 64, 61
1, 351180, Note_on_c, 0, 37, 95
1, 351183, Note_on_c, 0, 83, 93
1, 351184, Note_on_c, 0, 25, 89
1, 351184, Note_on_c, 0, 71, 89
1, 351187, Control_c, 0, 64, 39
1, 351202, Control_c, 0, 64, 0
1, 351202, Control_c, 0, 66, 127
1, 351438, Note_off_c, 0, 25, 62
1, 351441, Note_on_c, 0, 80, 73
1, 351490, Note_off_c, 0, 37, 60
1, 351558, Control_c, 0, 64, 45
1, 351573, Control_c, 0, 64, 61
1, 351588, Control_c, 0, 64, 69
1, 351599, Note_on_c, 0, 78, 76
1, 351602, Control_c, 0, 64, 77
1, 351617, Control_c, 0, 64, 84
1, 351632, Control_c, 0, 64, 92
1, 351641, Note_off_c, 0, 83, 50
1, 351644, Note_off_c, 0, 80, 54
1, 351646, Control_c, 0, 64, 104
1, 351655, Note_off_c, 0, 71, 60
1, 351661, Control_c, 0, 64, 127
1, 351721, Note_on_c, 0, 76, 77
1, 351778, Note_off_c, 0, 78, 53
1, 351845, Note_on_c, 0, 68, 86
1, 351846, Control_c, 0, 64, 118
1, 351848, Note_on_c, 0, 58, 76
1, 351850, Note_on_c, 0, 70, 81
1, 351851, Note_on_c, 0, 61, 68
1, 351851, Note_on_c, 0, 64, 67
1, 351856, Note_off_c, 0, 76, 56
1, 351861, Control_c, 0, 64, 76
1, 351876, Control_c, 0, 64, 54
1, 351891, Control_c, 0, 64, 0
1, 351965, Control_c, 0, 64, 34
1, 351980, Control_c, 0, 64, 48
1, 351983, Note_on_c, 0, 82, 72
1, 351992, Note_on_c, 0, 80, 63
1, 351995, Control_c, 0, 64, 60
1, 352010, Control_c, 0, 64, 67
1, 352025, Control_c, 0, 64, 71
1, 352039, Note_off_c, 0, 64, 55
1, 352040, Control_c, 0, 64, 75
1, 352054, Control_c, 0, 64, 79
1, 352064, Note_off_c, 0, 68, 59
1, 352069, Control_c, 0, 64, 86
1, 352084, Control_c, 0, 64, 95
1, 352084, Note_on_c, 0, 78, 82
1, 352099, Control_c, 0, 64, 112
1, 352114, Control_c, 0, 64, 127
1, 352123, Note_off_c, 0, 82, 38
1, 352137, Note_off_c, 0, 61, 38
1, 352138, Note_off_c, 0, 80, 57
1, 352146, Note_off_c, 0, 70, 58
1, 352177, Note_on_c, 0, 76, 81
1, 352213, Note_off_c, 0, 78, 59
1, 352248, Control_c, 0, 64, 105
1, 352262, Note_off_c, 0, 58, 59
1, 352263, Control_c, 0, 64, 75
1, 352269, Note_off_c, 0, 76, 62
1, 352270, Note_on_c, 0, 59, 71
1, 352272, Note_on_c, 0, 63, 76
1, 352272, Note_on_c, 0, 66, 80
1, 352277, Control_c, 0, 64, 56
1, 352279, Note_on_c, 0, 68, 83
1, 352292, Control_c, 0, 64, 0
1, 352352, Control_c, 0, 64, 49
1, 352367, Control_c, 0, 64, 63
1, 352371, Note_on_c, 0, 78, 73
1, 352374, Note_on_c, 0, 80, 68
1, 352382, Control_c, 0, 64, 73
1, 352397, Control_c, 0, 64, 88
1, 352407, Note_off_c, 0, 59, 62
1, 352409, Note_off_c, 0, 68, 53
1, 352412, Control_c, 0, 64, 127
1, 352427, Note_off_c, 0, 63, 0
1, 352454, Note_on_c, 0, 63, 48
1, 352466, Note_on_c, 0, 60, 81
1, 352468, Note_on_c, 0, 76, 82
1, 352475, Note_off_c, 0, 80, 60
1, 352504, Note_off_c, 0, 60, 63
1, 352505, Note_off_c, 0, 78, 61
1, 352514, Note_off_c, 0, 63, 63
1, 352531, Note_off_c, 0, 66, 61
1, 352565, Note_on_c, 0, 75, 81
1, 352571, Note_off_c, 0, 76, 62
1, 352614, Note_off_c, 0, 75, 64
1, 352685, Control_c, 0, 64, 91
1, 352699, Note_on_c, 0, 75, 91
1, 352700, Control_c, 0, 64, 67
1, 352701, Note_on_c, 0, 68, 72
1, 352705, Note_on_c, 0, 61, 70
1, 352705, Note_on_c, 0, 64, 64
1, 352710, Note_on_c, 0, 72, 61
1, 352715, Control_c, 0, 64, 44
1, 352716, Note_on_c, 0, 71, 70
1, 352730, Control_c, 0, 64, 0
1, 352774, Control_c, 0, 64, 42
1, 352776, Note_off_c, 0, 72, 57
1, 352789, Control_c, 0, 64, 55
1, 352791, Note_off_c, 0, 71, 60
1, 352803, Control_c, 0, 64, 63
1, 352818, Control_c, 0, 64, 69
1, 352819, Note_on_c, 0, 87, 78
1, 352823, Note_on_c, 0, 83, 73
1, 352827, Note_off_c, 0, 64, 58
1, 352833, Note_off_c, 0, 68, 61
1, 352833, Control_c, 0, 64, 74
1, 352848, Control_c, 0, 64, 77
1, 352863, Control_c, 0, 64, 80
1, 352877, Control_c, 0, 64, 84
1, 352892, Control_c, 0, 64, 88
1, 352907, Note_off_c, 0, 75, 0
1, 352907, Control_c, 0, 64, 93
1, 352923, Control_c, 0, 64, 97
1, 352925, Note_on_c, 0, 82, 88
1, 352938, Control_c, 0, 64, 100
1, 352946, Poly_aftertouch_c, 0, 75, 127
1, 352946, Note_off_c, 0, 87, 58
1, 352953, Note_off_c, 0, 83, 59
1, 352953, Control_c, 0, 64, 103
1, 352967, Control_c, 0, 64, 106
1, 352982, Control_c, 0, 64, 108
1, 352997, Control_c, 0, 64, 111
1, 353001, Poly_aftertouch_c, 0, 75, 0
1, 353017, Note_on_c, 0, 80, 86
1, 353037, Note_off_c, 0, 82, 59
1, 353100, Control_c, 0, 64, 97
1, 353115, Control_c, 0, 64, 75
1, 353122, Note_off_c, 0, 61, 42
1, 353124, Note_on_c, 0, 70, 76
1, 353125, Note_on_c, 0, 73, 83
1, 353126, Note_on_c, 0, 63, 66
1, 353128, Note_off_c, 0, 80, 48
1, 353128, Note_on_c, 0, 66, 64
1, 353130, Control_c, 0, 64, 60
1, 353145, Control_c, 0, 64, 43
1, 353160, Control_c, 0, 64, 37
1, 353174, Control_c, 0, 64, 45
1, 353196, Control_c, 0, 64, 56
1, 353211, Control_c, 0, 64, 64
1, 353226, Control_c, 0, 64, 70
1, 353230, Note_on_c, 0, 85, 71
1, 353231, Note_on_c, 0, 82, 72
1, 353241, Control_c, 0, 64, 76
1, 353252, Note_off_c, 0, 70, 57
1, 353256, Control_c, 0, 64, 82
1, 353258, Note_off_c, 0, 73, 52
1, 353271, Control_c, 0, 64, 85
1, 353286, Control_c, 0, 64, 86
1, 353312, Note_off_c, 0, 66, 36
1, 353315, Control_c, 0, 64, 87
1, 353326, Note_off_c, 0, 63, 33
1, 353328, Note_on_c, 0, 58, 73
1, 353330, Control_c, 0, 64, 88
1, 353336, Note_on_c, 0, 80, 79
1, 353345, Control_c, 0, 64, 90
1, 353360, Control_c, 0, 64, 95
1, 353364, Note_off_c, 0, 85, 57
1, 353374, Control_c, 0, 64, 100
1, 353389, Control_c, 0, 64, 102
1, 353419, Control_c, 0, 64, 106
1, 353425, Note_on_c, 0, 78, 79
1, 353433, Control_c, 0, 64, 109
1, 353435, Note_off_c, 0, 82, 37
1, 353448, Control_c, 0, 64, 111
1, 353464, Note_off_c, 0, 58, 57
1, 353468, Note_off_c, 0, 80, 59
1, 353478, Control_c, 0, 64, 105
1, 353492, Control_c, 0, 64, 86
1, 353504, Note_off_c, 0, 78, 63
1, 353507, Control_c, 0, 64, 68
1, 353522, Note_on_c, 0, 68, 78
1, 353522, Control_c, 0, 64, 56
1, 353524, Note_on_c, 0, 64, 68
1, 353527, Note_on_c, 0, 71, 83
1, 353530, Note_on_c, 0, 59, 60
1, 353537, Control_c, 0, 64, 49
1, 353552, Control_c, 0, 64, 53
1, 353566, Control_c, 0, 64, 60
1, 353581, Control_c, 0, 64, 65
1, 353593, Note_off_c, 0, 59, 61
1, 353596, Control_c, 0, 64, 72
1, 353601, Note_off_c, 0, 68, 64
1, 353611, Control_c, 0, 64, 83
1, 353617, Note_on_c, 0, 83, 73
1, 353617, Note_off_c, 0, 64, 61
1, 353624, Note_on_c, 0, 80, 71
1, 353626, Control_c, 0, 64, 98
1, 353636, Note_off_c, 0, 71, 58
1, 353640, Control_c, 0, 64, 127
1, 353667, Note_off_c, 0, 83, 63
1, 353676, Note_off_c, 0, 80, 59
1, 353685, Control_c, 0, 64, 106
1, 353700, Control_c, 0, 64, 81
1, 353715, Control_c, 0, 64, 71
1, 353724, Note_on_c, 0, 60, 72
1, 353730, Control_c, 0, 64, 68
1, 353733, Note_on_c, 0, 70, 83
1, 353733, Note_on_c, 0, 63, 71
1, 353733, Note_on_c, 0, 66, 76
1, 353745, Control_c, 0, 64, 72
1, 353760, Control_c, 0, 64, 81
1, 353775, Control_c, 0, 64, 97
1, 353790, Control_c, 0, 64, 127
1, 353811, Note_off_c, 0, 66, 61
1, 353820, Note_on_c, 0, 82, 75
1, 353837, Note_off_c, 0, 60, 56
1, 353837, Note_on_c, 0, 77, 53
1, 353853, Note_off_c, 0, 70, 61
1, 353861, Note_off_c, 0, 77, 59
1, 353882, Note_off_c, 0, 82, 60
1, 353884, Note_off_c, 0, 63, 60
1, 353945, Control_c, 0, 64, 86
1, 353960, Control_c, 0, 64, 63
1, 353975, Control_c, 0, 64, 31
1, 353976, Note_on_c, 0, 64, 76
1, 353983, Note_on_c, 0, 68, 85
1, 353985, Note_on_c, 0, 61, 76
1, 353990, Control_c, 0, 64, 0
1, 354034, Control_c, 0, 64, 40
1, 354049, Control_c, 0, 64, 61
1, 354049, Control_c, 0, 66, 0
1, 354064, Control_c, 0, 64, 74
1, 354070, Note_off_c, 0, 64, 61
1, 354079, Control_c, 0, 64, 93
1, 354094, Control_c, 0, 64, 127
1, 354097, Note_off_c, 0, 61, 62
1, 354114, Note_on_c, 0, 76, 69
1, 354120, Note_on_c, 0, 80, 62
1, 354171, Note_off_c, 0, 68, 60
1, 354206, Note_off_c, 0, 76, 51
1, 354222, Note_on_c, 0, 75, 66
1, 354242, Note_off_c, 0, 80, 50
1, 354305, Note_off_c, 0, 75, 59
1, 354307, Note_on_c, 0, 73, 76
1, 354345, Note_off_c, 0, 73, 59
1, 354401, Note_on_c, 0, 42, 76
1, 354401, Note_on_c, 0, 49, 82
1, 354410, Note_on_c, 0, 73, 75
1, 354433, Note_off_c, 0, 49, 64
1, 354434, Note_off_c, 0, 42, 67
1, 354505, Note_on_c, 0, 85, 72
1, 354517, Note_on_c, 0, 80, 64
1, 354528, Note_off_c, 0, 73, 56
1, 354600, Note_off_c, 0, 85, 59
1, 354611, Note_on_c, 0, 78, 71
1, 354646, Note_off_c, 0, 80, 60
1, 354692, Note_on_c, 0, 76, 76
1, 354725, Note_off_c, 0, 78, 60
1, 354771, Note_off_c, 0, 76, 63
1, 354786, Note_on_c, 0, 59, 79
1, 354786, Note_on_c, 0, 71, 86
1, 354797, Note_on_c, 0, 68, 78
1, 354827, Control_c, 0, 64, 87
1, 354842, Control_c, 0, 64, 71
1, 354857, Control_c, 0, 64, 65
1, 354872, Control_c, 0, 64, 66
1, 354887, Control_c, 0, 64, 70
1, 354892, Note_on_c, 0, 80, 56
1, 354892, Note_off_c, 0, 68, 62
1, 354895, Note_on_c, 0, 76, 66
1, 354901, Control_c, 0, 64, 77
1, 354916, Control_c, 0, 64, 85
1, 354931, Control_c, 0, 64, 96
1, 354946, Control_c, 0, 64, 115
1, 354961, Control_c, 0, 64, 127
1, 354969, Note_on_c, 0, 75, 71
1, 354982, Note_off_c, 0, 76, 61
1, 355002, Note_off_c, 0, 80, 55
1, 355041, Note_off_c, 0, 75, 58
1, 355065, Note_on_c, 0, 73, 73
1, 355118, Note_off_c, 0, 73, 62
1, 355124, Control_c, 0, 64, 107
1, 355139, Control_c, 0, 64, 80
1, 355153, Control_c, 0, 64, 68
1, 355161, Note_on_c, 0, 73, 67
1, 355168, Control_c, 0, 64, 65
1, 355183, Control_c, 0, 64, 68
1, 355197, Control_c, 0, 64, 75
1, 355212, Control_c, 0, 64, 82
1, 355227, Control_c, 0, 64, 93
1, 355242, Control_c, 0, 64, 109
1, 355255, Note_on_c, 0, 85, 71
1, 355257, Control_c, 0, 64, 127
1, 355265, Note_on_c, 0, 80, 58
1, 355274, Note_off_c, 0, 73, 56
1, 355340, Note_on_c, 0, 78, 76
1, 355343, Note_off_c, 0, 85, 57
1, 355385, Note_off_c, 0, 80, 57
1, 355390, Note_off_c, 0, 71, 58
1, 355430, Note_on_c, 0, 76, 69
1, 355448, Note_off_c, 0, 78, 57
1, 355503, Control_c, 0, 64, 99
1, 355510, Note_off_c, 0, 76, 64
1, 355518, Control_c, 0, 64, 78
1, 355533, Control_c, 0, 64, 66
1, 355536, Note_on_c, 0, 64, 68
1, 355537, Note_on_c, 0, 61, 69
1, 355538, Note_on_c, 0, 70, 70
1, 355548, Control_c, 0, 64, 61
1, 355550, Note_off_c, 0, 59, 54
1, 355563, Control_c, 0, 64, 62
1, 355577, Control_c, 0, 64, 66
1, 355592, Control_c, 0, 64, 70
1, 355607, Control_c, 0, 64, 77
1, 355621, Control_c, 0, 64, 85
1, 355636, Control_c, 0, 64, 96
1, 355651, Control_c, 0, 64, 117
1, 355658, Note_off_c, 0, 70, 38
1, 355666, Control_c, 0, 64, 127
1, 355670, Note_on_c, 0, 78, 42
1, 355701, Note_off_c, 0, 78, 53
1, 355776, Note_on_c, 0, 85, 58
1, 355809, Note_on_c, 0, 78, 38
1, 355880, Note_off_c, 0, 85, 38
1, 355906, Note_on_c, 0, 73, 75
1, 355907, Note_on_c, 0, 58, 78
1, 355907, Note_on_c, 0, 70, 85
1, 355918, Control_c, 0, 64, 80
1, 355919, Note_off_c, 0, 78, 32
1, 355933, Control_c, 0, 64, 62
1, 355933, Note_off_c, 0, 64, 55
1, 355947, Control_c, 0, 64, 55
1, 355962, Control_c, 0, 64, 62
1, 355977, Control_c, 0, 64, 69
1, 355986, Note_off_c, 0, 61, 33
1, 355992, Control_c, 0, 64, 82
1, 356007, Note_on_c, 0, 85, 60
1, 356007, Control_c, 0, 64, 106
1, 356021, Control_c, 0, 64, 127
1, 356045, Note_off_c, 0, 70, 61
1, 356049, Note_on_c, 0, 78, 42
1, 356066, Note_on_c, 0, 80, 44
1, 356076, Note_off_c, 0, 58, 62
1, 356081, Note_off_c, 0, 85, 64
1, 356111, Note_off_c, 0, 80, 56
1, 356124, Note_off_c, 0, 73, 39
1, 356132, Note_off_c, 0, 78, 62
1, 356224, Note_on_c, 0, 57, 74
1, 356306, Note_on_c, 0, 63, 72
1, 356310, Control_c, 0, 64, 84
1, 356324, Control_c, 0, 64, 58
1, 356339, Control_c, 0, 64, 0
1, 356363, Note_on_c, 0, 68, 88
1, 356398, Control_c, 0, 64, 55
1, 356413, Control_c, 0, 64, 70
1, 356428, Control_c, 0, 64, 90
1, 356443, Control_c, 0, 64, 127
1, 356454, Note_off_c, 0, 63, 64
1, 356484, Note_off_c, 0, 57, 64
1, 356556, Note_on_c, 0, 80, 64
1, 356562, Note_on_c, 0, 75, 52
1, 356633, Note_off_c, 0, 80, 52
1, 356660, Note_on_c, 0, 73, 66
1, 356702, Note_off_c, 0, 68, 36
1, 356712, Note_off_c, 0, 75, 56
1, 356747, Note_on_c, 0, 71, 70
1, 356792, Note_off_c, 0, 73, 59
1, 356828, Control_c, 0, 64, 101
1, 356839, Note_off_c, 0, 71, 62
1, 356842, Control_c, 0, 64, 77
1, 356846, Note_on_c, 0, 23, 81
1, 356857, Control_c, 0, 64, 67
1, 356858, Note_on_c, 0, 35, 69
1, 356858, Note_on_c, 0, 63, 75
1, 356878, Note_off_c, 0, 23, 66
1, 356887, Control_c, 0, 64, 74
1, 356890, Note_off_c, 0, 35, 64
1, 356902, Control_c, 0, 64, 81
1, 356918, Control_c, 0, 64, 92
1, 356940, Control_c, 0, 64, 115
1, 356955, Control_c, 0, 64, 127
1, 356979, Note_on_c, 0, 73, 62
1, 356984, Note_on_c, 0, 75, 51
1, 357021, Note_off_c, 0, 63, 50
1, 357097, Note_off_c, 0, 73, 55
1, 357100, Note_off_c, 0, 75, 24
1, 357110, Note_on_c, 0, 71, 32
1, 357116, Note_on_c, 0, 72, 31
1, 357153, Note_on_c, 0, 69, 67
1, 357177, Note_off_c, 0, 72, 51
1, 357188, Note_off_c, 0, 71, 52
1, 357257, Note_off_c, 0, 69, 62
1, 357265, Note_on_c, 0, 59, 64
1, 357265, Note_on_c, 0, 66, 86
1, 357265, Control_c, 0, 64, 113
1, 357274, Note_on_c, 0, 62, 67
1, 357277, Note_on_c, 0, 56, 68
1, 357280, Control_c, 0, 64, 90
1, 357295, Control_c, 0, 64, 81
1, 357310, Control_c, 0, 64, 80
1, 357325, Control_c, 0, 64, 80
1, 357340, Control_c, 0, 64, 82
1, 357355, Control_c, 0, 64, 87
1, 357362, Note_on_c, 0, 74, 66
1, 357364, Note_on_c, 0, 78, 66
1, 357370, Control_c, 0, 64, 97
1, 357384, Control_c, 0, 64, 127
1, 357408, Note_off_c, 0, 66, 48
1, 357432, Note_off_c, 0, 62, 56
1, 357450, Note_on_c, 0, 73, 75
1, 357471, Note_off_c, 0, 59, 62
1, 357498, Note_off_c, 0, 56, 58
1, 357520, Note_off_c, 0, 74, 51
1, 357534, Note_on_c, 0, 71, 77
1, 357572, Note_off_c, 0, 78, 37
1, 357599, Note_off_c, 0, 73, 57
1, 357666, Control_c, 0, 64, 116
1, 357671, Note_off_c, 0, 71, 65
1, 357676, Note_on_c, 0, 66, 83
1, 357677, Note_on_c, 0, 55, 57
1, 357677, Note_on_c, 0, 61, 65
1, 357678, Note_on_c, 0, 58, 56
1, 357689, Control_c, 0, 64, 72
1, 357703, Control_c, 0, 64, 0
1, 357763, Control_c, 0, 64, 38
1, 357778, Control_c, 0, 64, 56
1, 357793, Control_c, 0, 64, 69
1, 357805, Note_on_c, 0, 78, 66
1, 357808, Control_c, 0, 64, 83
1, 357809, Note_on_c, 0, 73, 61
1, 357823, Control_c, 0, 64, 119
1, 357838, Control_c, 0, 64, 127
1, 357846, Note_off_c, 0, 61, 51
1, 357859, Note_off_c, 0, 55, 61
1, 357859, Note_off_c, 0, 58, 59
1, 357869, Note_off_c, 0, 66, 54
1, 357904, Note_on_c, 0, 71, 69
1, 357914, Note_off_c, 0, 78, 55
1, 357997, Note_on_c, 0, 70, 74
1, 357997, Note_off_c, 0, 73, 38
1, 358027, Note_off_c, 0, 71, 61
1, 358093, Note_off_c, 0, 70, 64
1, 358109, Note_on_c, 0, 61, 83
1, 358113, Note_on_c, 0, 47, 66
1, 358119, Control_c, 0, 64, 100
1, 358124, Note_on_c, 0, 52, 58
1, 358133, Control_c, 0, 64, 68
1, 358148, Control_c, 0, 64, 0
1, 358220, Note_on_c, 0, 73, 62
1, 358222, Note_on_c, 0, 70, 62
1, 358222, Control_c, 0, 64, 34
1, 358237, Control_c, 0, 64, 52
1, 358252, Control_c, 0, 64, 64
1, 358267, Control_c, 0, 64, 71
1, 358282, Control_c, 0, 64, 79
1, 358297, Control_c, 0, 64, 94
1, 358300, Note_off_c, 0, 61, 51
1, 358312, Control_c, 0, 64, 127
1, 358326, Note_on_c, 0, 69, 65
1, 358369, Note_off_c, 0, 73, 53
1, 358426, Note_on_c, 0, 67, 74
1, 358480, Note_off_c, 0, 70, 27
1, 358481, Note_off_c, 0, 69, 60
1, 358557, Control_c, 0, 64, 96
1, 358560, Note_on_c, 0, 55, 69
1, 358562, Note_on_c, 0, 64, 84
1, 358569, Note_on_c, 0, 61, 68
1, 358571, Control_c, 0, 64, 71
1, 358581, Note_off_c, 0, 67, 58
1, 358586, Control_c, 0, 64, 58
1, 358601, Control_c, 0, 64, 50
1, 358616, Control_c, 0, 64, 56
1, 358631, Control_c, 0, 64, 63
1, 358645, Control_c, 0, 64, 71
1, 358654, Note_off_c, 0, 61, 60
1, 358660, Control_c, 0, 64, 83
1, 358675, Control_c, 0, 64, 107
1, 358684, Note_off_c, 0, 55, 60
1, 358689, Note_on_c, 0, 76, 74
1, 358690, Control_c, 0, 64, 127
1, 358711, Note_on_c, 0, 73, 55
1, 358717, Note_off_c, 0, 47, 62
1, 358734, Note_off_c, 0, 52, 50
1, 358826, Note_on_c, 0, 71, 59
1, 358831, Note_off_c, 0, 76, 58
1, 358839, Note_off_c, 0, 64, 58
1, 358840, Note_on_c, 0, 72, 54
1, 358866, Note_off_c, 0, 73, 55
1, 358869, Note_off_c, 0, 72, 53
1, 358941, Note_on_c, 0, 70, 65
1, 358949, Note_off_c, 0, 71, 62
1, 358990, Note_off_c, 0, 70, 62
1, 359149, Control_c, 0, 64, 100
1, 359159, Note_on_c, 0, 35, 85
1, 359160, Note_on_c, 0, 60, 84
1, 359164, Control_c, 0, 64, 71
1, 359186, Control_c, 0, 64, 52
1, 359188, Note_on_c, 0, 42, 59
1, 359201, Control_c, 0, 64, 0
1, 359232, Note_off_c, 0, 42, 57
1, 359245, Control_c, 0, 64, 50
1, 359254, Note_off_c, 0, 35, 62
1, 359260, Control_c, 0, 64, 69
1, 359275, Control_c, 0, 64, 127
1, 359421, Note_on_c, 0, 72, 49
1, 359435, Note_on_c, 0, 69, 43
1, 359554, Note_on_c, 0, 68, 62
1, 359571, Note_off_c, 0, 60, 61
1, 359588, Note_off_c, 0, 72, 41
1, 359602, Note_off_c, 0, 69, 36
1, 359669, Note_on_c, 0, 66, 53
1, 359670, Note_off_c, 0, 68, 58
1, 359766, Note_off_c, 0, 66, 59
1, 359771, Note_on_c, 0, 57, 73
1, 359780, Note_on_c, 0, 51, 69
1, 359783, Note_on_c, 0, 63, 67
1, 359903, Note_on_c, 0, 69, 50
1, 359912, Note_on_c, 0, 75, 42
1, 359972, Note_off_c, 0, 75, 54
1, 360002, Note_off_c, 0, 69, 59
1, 360005, Note_on_c, 0, 68, 60
1, 360035, Note_off_c, 0, 68, 65
1, 360128, Note_on_c, 0, 66, 51
1, 360142, Note_off_c, 0, 63, 41
1, 360216, Note_on_c, 0, 61, 65
1, 360216, Note_off_c, 0, 66, 52
1, 360322, Poly_aftertouch_c, 0, 49, 127
1, 360343, Note_on_c, 0, 73, 48
1, 360344, Note_on_c, 0, 69, 37
1, 360419, Note_off_c, 0, 61, 31
1, 360432, Note_on_c, 0, 68, 54
1, 360476, Note_off_c, 0, 73, 34
1, 360494, Note_off_c, 0, 69, 38
1, 360536, Note_on_c, 0, 66, 47
1, 360616, Note_on_c, 0, 63, 58
1, 360622, Note_off_c, 0, 66, 54
1, 360637, Note_off_c, 0, 68, 40
1, 360640, Note_off_c, 0, 57, 55
1, 360735, Poly_aftertouch_c, 0, 49, 0
1, 360742, Note_on_c, 0, 69, 43
1, 360746, Note_on_c, 0, 73, 43
1, 360808, Note_off_c, 0, 63, 29
1, 360826, Note_on_c, 0, 68, 48
1, 360854, Note_off_c, 0, 73, 36
1, 360868, Note_off_c, 0, 51, 38
1, 360900, Note_off_c, 0, 69, 31
1, 360920, Note_on_c, 0, 66, 47
1, 361013, Note_off_c, 0, 68, 32
1, 361024, Note_on_c, 0, 54, 70
1, 361024, Note_off_c, 0, 66, 47
1, 361026, Control_c, 0, 64, 112
1, 361037, Note_on_c, 0, 61, 48
1, 361040, Control_c, 0, 64, 105
1, 361055, Control_c, 0, 64, 99
1, 361070, Control_c, 0, 64, 93
1, 361085, Control_c, 0, 64, 84
1, 361100, Control_c, 0, 64, 75
1, 361114, Control_c, 0, 64, 67
1, 361129, Control_c, 0, 64, 60
1, 361144, Control_c, 0, 64, 53
1, 361158, Control_c, 0, 64, 51
1, 361167, Note_on_c, 0, 69, 34
1, 361173, Note_on_c, 0, 73, 39
1, 361173, Control_c, 0, 64, 52
1, 361188, Control_c, 0, 64, 53
1, 361195, Note_off_c, 0, 61, 36
1, 361203, Control_c, 0, 64, 55
1, 361218, Control_c, 0, 64, 58
1, 361233, Control_c, 0, 64, 61
1, 361236, Note_off_c, 0, 73, 50
1, 361248, Note_on_c, 0, 68, 43
1, 361248, Control_c, 0, 64, 64
1, 361263, Control_c, 0, 64, 68
1, 361278, Control_c, 0, 64, 72
1, 361292, Control_c, 0, 64, 76
1, 361307, Control_c, 0, 64, 80
1, 361321, Note_off_c, 0, 69, 39
1, 361322, Control_c, 0, 64, 85
1, 361332, Note_on_c, 0, 66, 45
1, 361337, Control_c, 0, 64, 91
1, 361351, Control_c, 0, 64, 100
1, 361366, Control_c, 0, 64, 115
1, 361381, Control_c, 0, 64, 127
1, 361410, Note_off_c, 0, 68, 35
1, 361413, Note_off_c, 0, 66, 52
1, 361434, Note_on_c, 0, 63, 46
1, 361540, Note_on_c, 0, 69, 38
1, 361548, Note_on_c, 0, 73, 32
1, 361638, Note_on_c, 0, 68, 43
1, 361642, Note_off_c, 0, 63, 36
1, 361689, Note_off_c, 0, 73, 26
1, 361727, Note_off_c, 0, 69, 36
1, 361728, Note_on_c, 0, 66, 41
1, 361813, Note_on_c, 0, 61, 45
1, 361813, Note_off_c, 0, 66, 49
1, 361817, Note_off_c, 0, 68, 43
1, 361893, Note_off_c, 0, 54, 47
1, 361948, Note_on_c, 0, 69, 33
1, 361974, Note_on_c, 0, 73, 15
1, 362008, Note_off_c, 0, 61, 29
1, 362035, Note_on_c, 0, 68, 46
1, 362036, Note_off_c, 0, 73, 42
1, 362100, Note_off_c, 0, 69, 40
1, 362135, Note_on_c, 0, 66, 35
1, 362220, Note_off_c, 0, 66, 50
1, 362230, Note_on_c, 0, 49, 59
1, 362232, Note_off_c, 0, 68, 40
1, 362240, Note_on_c, 0, 63, 46
1, 362255, Control_c, 0, 64, 106
1, 362270, Control_c, 0, 64, 92
1, 362285, Control_c, 0, 64, 78
1, 362300, Control_c, 0, 64, 69
1, 362315, Control_c, 0, 64, 62
1, 362330, Control_c, 0, 64, 56
1, 362345, Control_c, 0, 64, 53
1, 362360, Control_c, 0, 64, 52
1, 362367, Note_on_c, 0, 69, 35
1, 362375, Control_c, 0, 64, 53
1, 362389, Control_c, 0, 64, 54
1, 362392, Note_off_c, 0, 63, 30
1, 362404, Note_on_c, 0, 73, 9
1, 362404, Control_c, 0, 64, 57
1, 362419, Control_c, 0, 64, 60
1, 362433, Control_c, 0, 64, 64
1, 362448, Control_c, 0, 64, 67
1, 362460, Note_on_c, 0, 68, 44
1, 362463, Control_c, 0, 64, 72
1, 362467, Note_off_c, 0, 73, 44
1, 362478, Control_c, 0, 64, 77
1, 362493, Control_c, 0, 64, 81
1, 362509, Control_c, 0, 64, 83
1, 362524, Control_c, 0, 64, 87
1, 362538, Control_c, 0, 64, 91
1, 362538, Note_on_c, 0, 66, 40
1, 362542, Note_off_c, 0, 69, 32
1, 362553, Control_c, 0, 64, 95
1, 362568, Control_c, 0, 64, 99
1, 362583, Control_c, 0, 64, 105
1, 362598, Control_c, 0, 64, 109
1, 362612, Control_c, 0, 64, 114
1, 362627, Control_c, 0, 64, 116
1, 362628, Note_off_c, 0, 68, 34
1, 362632, Note_on_c, 0, 61, 39
1, 362642, Control_c, 0, 64, 118
1, 362646, Note_off_c, 0, 66, 37
1, 362657, Control_c, 0, 64, 122
1, 362672, Control_c, 0, 64, 127
1, 362745, Control_c, 0, 67, 20
1, 362753, Note_on_c, 0, 69, 33
1, 362785, Note_on_c, 0, 73, 26
1, 362820, Control_c, 0, 67, 22
1, 362821, Note_off_c, 0, 61, 35
1, 362835, Control_c, 0, 67, 25
1, 362849, Note_on_c, 0, 68, 46
1, 362850, Control_c, 0, 67, 31
1, 362851, Note_off_c, 0, 73, 39
1, 362865, Control_c, 0, 67, 36
1, 362879, Control_c, 0, 67, 40
1, 362894, Control_c, 0, 67, 44
1, 362909, Control_c, 0, 67, 50
1, 362931, Control_c, 0, 67, 58
1, 362946, Control_c, 0, 67, 69
1, 362953, Note_off_c, 0, 69, 39
1, 362959, Note_on_c, 0, 66, 39
1, 362961, Control_c, 0, 67, 82
1, 362976, Control_c, 0, 67, 99
1, 362991, Control_c, 0, 67, 111
1, 363005, Control_c, 0, 67, 120
1, 363020, Control_c, 0, 67, 124
1, 363024, Note_off_c, 0, 66, 55
1, 363041, Note_on_c, 0, 63, 46
1, 363041, Note_off_c, 0, 68, 40
1, 363094, Control_c, 0, 67, 122
1, 363124, Control_c, 0, 67, 120
1, 363153, Control_c, 0, 67, 118
1, 363176, Note_on_c, 0, 73, 29
1, 363206, Poly_aftertouch_c, 0, 69, 127
1, 363229, Note_off_c, 0, 49, 51
1, 363246, Note_off_c, 0, 63, 23
1, 363269, Note_on_c, 0, 68, 45
1, 363367, Note_off_c, 0, 73, 36
1, 363373, Poly_aftertouch_c, 0, 69, 0
1, 363375, Note_on_c, 0, 66, 39
1, 363391, Control_c, 0, 64, 120
1, 363406, Control_c, 0, 64, 114
1, 363421, Control_c, 0, 64, 109
1, 363436, Control_c, 0, 64, 107
1, 363451, Control_c, 0, 64, 104
1, 363466, Control_c, 0, 64, 102
1, 363480, Control_c, 0, 64, 99
1, 363483, Note_on_c, 0, 61, 48
1, 363489, Note_on_c, 0, 51, 52
1, 363495, Control_c, 0, 64, 96
1, 363504, Note_off_c, 0, 68, 43
1, 363509, Note_off_c, 0, 66, 35
1, 363510, Control_c, 0, 64, 89
1, 363525, Control_c, 0, 64, 79
1, 363540, Control_c, 0, 64, 70
1, 363554, Control_c, 0, 64, 63
1, 363568, Control_c, 0, 64, 58
1, 363583, Control_c, 0, 64, 56
1, 363598, Control_c, 0, 64, 56
1, 363613, Control_c, 0, 64, 57
1, 363627, Control_c, 0, 64, 59
1, 363629, Note_on_c, 0, 69, 27
1, 363642, Control_c, 0, 64, 61
1, 363657, Control_c, 0, 64, 64
1, 363679, Control_c, 0, 64, 67
1, 363689, Poly_aftertouch_c, 0, 73, 127
1, 363694, Control_c, 0, 64, 70
1, 363709, Control_c, 0, 64, 73
1, 363724, Control_c, 0, 64, 75
1, 363733, Note_off_c, 0, 61, 38
1, 363739, Control_c, 0, 64, 77
1, 363743, Note_on_c, 0, 68, 32
1, 363750, Poly_aftertouch_c, 0, 73, 0
1, 363753, Control_c, 0, 64, 79
1, 363768, Control_c, 0, 64, 82
1, 363783, Control_c, 0, 64, 86
1, 363798, Control_c, 0, 64, 89
1, 363813, Control_c, 0, 64, 92
1, 363827, Control_c, 0, 64, 96
1, 363838, Note_off_c, 0, 69, 36
1, 363842, Control_c, 0, 64, 100
1, 363846, Note_on_c, 0, 66, 40
1, 363857, Control_c, 0, 64, 105
1, 363872, Control_c, 0, 64, 115
1, 363872, Control_c, 0, 67, 120
1, 363886, Control_c, 0, 64, 127
1, 363901, Control_c, 0, 67, 122
1, 363924, Note_off_c, 0, 66, 50
1, 363931, Control_c, 0, 67, 124
1, 363942, Note_off_c, 0, 68, 39
1, 363960, Note_on_c, 0, 63, 34
1, 363975, Control_c, 0, 67, 127
1, 364103, Note_on_c, 0, 69, 17
1, 364126, Note_on_c, 0, 73, 8
1, 364235, Note_on_c, 0, 68, 41
1, 364238, Note_off_c, 0, 51, 28
1, 364305, Note_off_c, 0, 69, 30
1, 364342, Note_off_c, 0, 73, 17
1, 364372, Note_on_c, 0, 66, 38
1, 364416, Note_off_c, 0, 63, 40
1, 364518, Note_off_c, 0, 68, 35
1, 364591, Control_c, 0, 64, 114
1, 364606, Control_c, 0, 64, 107
1, 364621, Control_c, 0, 64, 102
1, 364628, Note_on_c, 0, 41, 39
1, 364628, Note_on_c, 0, 61, 41
1, 364631, Note_off_c, 0, 66, 33
1, 364635, Control_c, 0, 64, 95
1, 364650, Control_c, 0, 64, 83
1, 364665, Control_c, 0, 64, 69
1, 364680, Control_c, 0, 64, 60
1, 364695, Control_c, 0, 64, 50
1, 364709, Control_c, 0, 64, 46
1, 364724, Control_c, 0, 64, 46
1, 364739, Control_c, 0, 64, 48
1, 364754, Control_c, 0, 64, 51
1, 364769, Control_c, 0, 64, 56
1, 364783, Control_c, 0, 64, 60
1, 364798, Control_c, 0, 64, 64
1, 364813, Control_c, 0, 64, 67
1, 364828, Control_c, 0, 64, 71
1, 364843, Control_c, 0, 64, 76
1, 364858, Control_c, 0, 64, 80
1, 364873, Control_c, 0, 64, 83
1, 364887, Control_c, 0, 64, 86
1, 364903, Control_c, 0, 64, 89
1, 364918, Control_c, 0, 64, 94
1, 364932, Control_c, 0, 64, 98
1, 364934, Note_on_c, 0, 73, 34
1, 364947, Control_c, 0, 64, 103
1, 364950, Note_on_c, 0, 69, 15
1, 364962, Control_c, 0, 64, 109
1, 364977, Control_c, 0, 64, 112
1, 364992, Control_c, 0, 64, 114
1, 365007, Control_c, 0, 64, 117
1, 365022, Control_c, 0, 64, 120
1, 365036, Control_c, 0, 64, 127
1, 365054, Note_on_c, 0, 51, 41
1, 365077, Note_on_c, 0, 68, 44
1, 365129, Note_off_c, 0, 61, 40
1, 365153, Note_off_c, 0, 73, 33
1, 365164, Note_off_c, 0, 69, 33
1, 365212, Note_on_c, 0, 66, 40
1, 365268, Note_off_c, 0, 68, 37
1, 365321, Note_on_c, 0, 57, 46
1, 365322, Note_on_c, 0, 63, 41
1, 365338, Note_off_c, 0, 66, 36
1, 365478, Note_on_c, 0, 69, 6
1, 365483, Note_on_c, 0, 73, 23
1, 365564, Note_off_c, 0, 73, 36
1, 365591, Note_on_c, 0, 68, 29
1, 365595, Note_off_c, 0, 63, 38
1, 365683, Note_on_c, 0, 66, 36
1, 365697, Note_off_c, 0, 69, 36
1, 365713, Note_off_c, 0, 41, 0
1, 365750, Poly_aftertouch_c, 0, 41, 127
1, 365761, Note_off_c, 0, 66, 49
1, 365767, Note_on_c, 0, 61, 39
1, 365793, Note_off_c, 0, 68, 41
1, 365866, Note_off_c, 0, 57, 36
1, 365897, Note_off_c, 0, 51, 40
1, 365926, Note_on_c, 0, 69, 28
1, 365926, Note_on_c, 0, 73, 36
1, 365987, Note_off_c, 0, 61, 37
1, 366050, Poly_aftertouch_c, 0, 41, 0
1, 366053, Note_on_c, 0, 68, 39
1, 366133, Note_on_c, 0, 66, 42
1, 366148, Note_off_c, 0, 73, 36
1, 366196, Note_off_c, 0, 69, 34
1, 366208, Note_off_c, 0, 66, 51
1, 366235, Note_on_c, 0, 63, 32
1, 366248, Note_off_c, 0, 68, 44
1, 366367, Note_on_c, 0, 69, 15
1, 366375, Note_on_c, 0, 73, 32
1, 366500, Note_on_c, 0, 68, 33
1, 366537, Note_off_c, 0, 63, 30
1, 366582, Note_off_c, 0, 69, 36
1, 366587, Note_off_c, 0, 73, 34
1, 366598, Note_on_c, 0, 66, 35
1, 366759, Note_on_c, 0, 29, 37
1, 366764, Note_off_c, 0, 68, 36
1, 366765, Note_on_c, 0, 61, 36
1, 366785, Note_off_c, 0, 66, 35
1, 366800, Note_off_c, 0, 29, 41
1, 366961, Note_on_c, 0, 69, 14
1, 366981, Note_on_c, 0, 73, 19
1, 367061, Note_off_c, 0, 73, 36
1, 367077, Note_on_c, 0, 68, 40
1, 367078, Note_off_c, 0, 61, 36
1, 367183, Note_on_c, 0, 66, 38
1, 367186, Note_off_c, 0, 69, 35
1, 367288, Note_off_c, 0, 66, 49
1, 367294, Note_on_c, 0, 63, 42
1, 367303, Note_off_c, 0, 68, 44
1, 367446, Note_on_c, 0, 69, 34
1, 367474, Note_on_c, 0, 73, 20
1, 367610, Note_on_c, 0, 68, 38
1, 367741, Note_on_c, 0, 66, 30
1, 367776, Note_off_c, 0, 63, 40
1, 367822, Note_off_c, 0, 69, 28
1, 367849, Note_off_c, 0, 73, 35
1, 367892, Note_off_c, 0, 68, 38
1, 367963, Note_on_c, 0, 61, 43
1, 368013, Note_off_c, 0, 66, 34
1, 368247, Note_on_c, 0, 73, 40
1, 368250, Note_on_c, 0, 69, 32
1, 368444, Note_on_c, 0, 68, 37
1, 368518, Note_off_c, 0, 69, 27
1, 368613, Note_on_c, 0, 41, 37
1, 368617, Note_on_c, 0, 66, 42
1, 368617, Control_c, 0, 64, 93
1, 368632, Control_c, 0, 64, 80
1, 368647, Control_c, 0, 64, 72
1, 368658, Note_off_c, 0, 61, 41
1, 368662, Control_c, 0, 64, 69
1, 368676, Control_c, 0, 64, 68
1, 368706, Control_c, 0, 64, 70
1, 368715, Note_off_c, 0, 68, 39
1, 368718, Note_off_c, 0, 73, 35
1, 368721, Control_c, 0, 64, 71
1, 368736, Control_c, 0, 64, 73
1, 368751, Control_c, 0, 64, 78
1, 368766, Control_c, 0, 64, 85
1, 368780, Control_c, 0, 64, 94
1, 368795, Control_c, 0, 64, 104
1, 368810, Control_c, 0, 64, 127
1, 368867, Note_on_c, 0, 63, 44
1, 368894, Note_off_c, 0, 66, 40
1, 368956, Note_on_c, 0, 51, 41
1, 369011, Note_off_c, 0, 63, 0
1, 369025, Control_c, 0, 64, 106
1, 369040, Control_c, 0, 64, 88
1, 369046, Note_on_c, 0, 73, 48
1, 369047, Note_on_c, 0, 69, 36
1, 369048, Poly_aftertouch_c, 0, 63, 127
1, 369055, Control_c, 0, 64, 73
1, 369070, Control_c, 0, 64, 64
1, 369085, Control_c, 0, 64, 56
1, 369099, Control_c, 0, 64, 51
1, 369114, Control_c, 0, 64, 50
1, 369129, Control_c, 0, 64, 53
1, 369144, Control_c, 0, 64, 56
1, 369159, Control_c, 0, 64, 60
1, 369174, Control_c, 0, 64, 63
1, 369189, Control_c, 0, 64, 66
1, 369204, Control_c, 0, 64, 70
1, 369219, Control_c, 0, 64, 76
1, 369233, Control_c, 0, 64, 85
1, 369240, Note_on_c, 0, 68, 49
1, 369241, Note_on_c, 0, 57, 42
1, 369248, Control_c, 0, 64, 95
1, 369263, Control_c, 0, 64, 117
1, 369277, Note_off_c, 0, 69, 37
1, 369278, Control_c, 0, 64, 127
1, 369287, Note_off_c, 0, 73, 33
1, 369302, Note_off_c, 0, 41, 17
1, 369308, Note_off_c, 0, 51, 42
1, 369393, Note_off_c, 0, 57, 58
1, 369409, Poly_aftertouch_c, 0, 63, 0
1, 369428, Note_on_c, 0, 66, 42
1, 369432, Note_off_c, 0, 68, 40
1, 369605, Note_off_c, 0, 66, 42
1, 369606, Note_on_c, 0, 61, 43
1, 369865, Note_on_c, 0, 75, 56
1, 369892, Note_on_c, 0, 69, 38
1, 369897, Note_off_c, 0, 75, 66
1, 370139, Note_on_c, 0, 68, 42
1, 370234, Note_off_c, 0, 69, 25
1, 370357, Note_on_c, 0, 66, 31
1, 370485, Note_off_c, 0, 61, 38
1, 370492, Note_off_c, 0, 68, 28
1, 370619, Note_on_c, 0, 60, 36
1, 370726, Note_off_c, 0, 66, 35
1, 370908, Control_c, 0, 64, 108
1, 370923, Control_c, 0, 64, 98
1, 370937, Control_c, 0, 64, 92
1, 370951, Note_on_c, 0, 77, 49
1, 370952, Control_c, 0, 64, 85
1, 370958, Note_on_c, 0, 69, 43
1, 370967, Control_c, 0, 64, 80
1, 370982, Control_c, 0, 64, 74
1, 370996, Control_c, 0, 64, 69
1, 371011, Control_c, 0, 64, 63
1, 371026, Control_c, 0, 64, 56
1, 371041, Control_c, 0, 64, 48
1, 371056, Control_c, 0, 64, 39
1, 371070, Control_c, 0, 64, 36
1, 371085, Control_c, 0, 64, 36
1, 371115, Control_c, 0, 64, 37
1, 371130, Control_c, 0, 64, 40
1, 371144, Control_c, 0, 64, 46
1, 371159, Control_c, 0, 64, 52
1, 371182, Control_c, 0, 64, 56
1, 371196, Control_c, 0, 64, 58
1, 371211, Control_c, 0, 64, 60
1, 371226, Control_c, 0, 64, 61
1, 371241, Control_c, 0, 64, 63
1, 371256, Control_c, 0, 64, 65
1, 371261, Note_on_c, 0, 68, 36
1, 371270, Control_c, 0, 64, 67
1, 371285, Control_c, 0, 64, 70
1, 371301, Control_c, 0, 64, 72
1, 371316, Control_c, 0, 64, 74
1, 371331, Control_c, 0, 64, 76
1, 371346, Control_c, 0, 64, 78
1, 371361, Control_c, 0, 64, 80
1, 371375, Control_c, 0, 64, 82
1, 371390, Control_c, 0, 64, 84
1, 371405, Control_c, 0, 64, 86
1, 371419, Control_c, 0, 64, 87
1, 371434, Control_c, 0, 64, 89
1, 371449, Control_c, 0, 64, 90
1, 371479, Control_c, 0, 64, 90
1, 371493, Control_c, 0, 64, 91
1, 371508, Control_c, 0, 64, 91
1, 371538, Control_c, 0, 64, 92
1, 371568, Control_c, 0, 64, 92
1, 371571, Note_on_c, 0, 66, 38
1, 371583, Note_off_c, 0, 69, 11
1, 371612, Control_c, 0, 64, 93
1, 371680, Note_off_c, 0, 68, 31
1, 371943, Note_on_c, 0, 65, 37
1, 372039, Note_off_c, 0, 60, 39
1, 372051, Note_off_c, 0, 66, 32
1, 372113, Note_off_c, 0, 77, 53
1, 372423, Note_on_c, 0, 60, 37
1, 372494, Note_off_c, 0, 65, 41
1, 372509, Control_c, 0, 64, 93
1, 372524, Control_c, 0, 64, 94
1, 372539, Control_c, 0, 64, 94
1, 372554, Control_c, 0, 64, 96
1, 372569, Control_c, 0, 64, 98
1, 372584, Control_c, 0, 64, 100
1, 372584, Note_off_c, 0, 60, 43
1, 372599, Control_c, 0, 64, 102
1, 372614, Control_c, 0, 64, 105
1, 372629, Control_c, 0, 64, 107
1, 372643, Control_c, 0, 64, 112
1, 372665, Control_c, 0, 64, 116
1, 372680, Control_c, 0, 64, 120
1, 372695, Control_c, 0, 64, 127
1, 373332, Control_c, 0, 64, 120
1, 373347, Control_c, 0, 64, 106
1, 373349, Note_on_c, 0, 58, 35
1, 373362, Control_c, 0, 64, 90
1, 373377, Control_c, 0, 64, 75
1, 373392, Control_c, 0, 64, 65
1, 373414, Control_c, 0, 64, 55
1, 373429, Control_c, 0, 64, 46
1, 373444, Control_c, 0, 64, 39
1, 373459, Control_c, 0, 64, 40
1, 373473, Control_c, 0, 64, 49
1, 373488, Control_c, 0, 64, 60
1, 373503, Control_c, 0, 64, 70
1, 373517, Control_c, 0, 64, 88
1, 373532, Control_c, 0, 64, 127
1, 373568, Note_off_c, 0, 58, 59
1, 373609, Note_on_c, 0, 70, 46
1, 373648, Note_off_c, 0, 70, 52
1, 373765, Note_on_c, 0, 70, 51
1, 373940, Note_off_c, 0, 70, 43
1, 374001, Note_on_c, 0, 34, 28
1, 374095, Control_c, 0, 64, 98
1, 374109, Note_on_c, 0, 82, 67
1, 374110, Control_c, 0, 64, 81
1, 374125, Control_c, 0, 64, 71
1, 374140, Control_c, 0, 64, 64
1, 374162, Control_c, 0, 64, 62
1, 374177, Control_c, 0, 64, 63
1, 374192, Control_c, 0, 64, 65
1, 374207, Control_c, 0, 64, 69
1, 374221, Control_c, 0, 64, 78
1, 374236, Control_c, 0, 64, 95
1, 374251, Control_c, 0, 64, 127
1, 374487, Note_on_c, 0, 41, 28
1, 374514, Note_off_c, 0, 34, 40
1, 374597, Note_on_c, 0, 84, 74
1, 374627, Note_off_c, 0, 41, 24
1, 374638, Note_off_c, 0, 82, 62
1, 374751, Note_on_c, 0, 50, 36
1, 374808, Note_off_c, 0, 50, 55
1, 374993, Note_on_c, 0, 82, 72
1, 375015, Note_on_c, 0, 58, 38
1, 375191, Note_off_c, 0, 84, 26
1, 375236, Note_on_c, 0, 54, 37
1, 375293, Note_off_c, 0, 58, 34
1, 375308, Note_on_c, 0, 81, 72
1, 375358, Note_off_c, 0, 82, 56
1, 375399, Note_off_c, 0, 81, 58
1, 375429, Note_on_c, 0, 62, 37
1, 375491, Note_off_c, 0, 62, 53
1, 375491, Note_off_c, 0, 54, 40
1, 375596, Note_on_c, 0, 81, 71
1, 375614, Note_on_c, 0, 58, 42
1, 375624, Control_c, 0, 64, 100
1, 375639, Control_c, 0, 64, 79
1, 375660, Control_c, 0, 64, 67
1, 375675, Control_c, 0, 64, 60
1, 375690, Control_c, 0, 64, 54
1, 375705, Control_c, 0, 64, 53
1, 375720, Control_c, 0, 64, 55
1, 375735, Control_c, 0, 64, 57
1, 375750, Control_c, 0, 64, 60
1, 375765, Control_c, 0, 64, 63
1, 375780, Control_c, 0, 64, 66
1, 375794, Control_c, 0, 64, 68
1, 375809, Control_c, 0, 64, 72
1, 375824, Control_c, 0, 64, 75
1, 375830, Note_on_c, 0, 55, 40
1, 375839, Control_c, 0, 64, 77
1, 375854, Control_c, 0, 64, 79
1, 375868, Control_c, 0, 64, 81
1, 375883, Control_c, 0, 64, 83
1, 375896, Note_off_c, 0, 58, 32
1, 375898, Control_c, 0, 64, 85
1, 375912, Control_c, 0, 64, 87
1, 375918, Note_on_c, 0, 79, 66
1, 375927, Control_c, 0, 64, 90
1, 375942, Control_c, 0, 64, 93
1, 375957, Control_c, 0, 64, 95
1, 375969, Note_off_c, 0, 81, 53
1, 375972, Control_c, 0, 64, 98
1, 375986, Control_c, 0, 64, 100
1, 376001, Control_c, 0, 64, 103
1, 376016, Control_c, 0, 64, 107
1, 376031, Control_c, 0, 64, 112
1, 376046, Control_c, 0, 64, 117
1, 376054, Note_off_c, 0, 55, 36
1, 376060, Control_c, 0, 64, 122
1, 376074, Note_on_c, 0, 63, 29
1, 376075, Control_c, 0, 64, 127
1, 376094, Note_off_c, 0, 79, 59
1, 376212, Note_off_c, 0, 63, 25
1, 376269, Control_c, 0, 64, 125
1, 376283, Control_c, 0, 64, 116
1, 376298, Control_c, 0, 64, 112
1, 376313, Control_c, 0, 64, 108
1, 376328, Control_c, 0, 64, 104
1, 376343, Control_c, 0, 64, 101
1, 376358, Control_c, 0, 64, 98
1, 376370, Note_on_c, 0, 81, 66
1, 376373, Control_c, 0, 64, 95
1, 376376, Note_on_c, 0, 62, 37
1, 376388, Control_c, 0, 64, 92
1, 376409, Control_c, 0, 64, 89
1, 376424, Control_c, 0, 64, 86
1, 376439, Control_c, 0, 64, 80
1, 376454, Control_c, 0, 64, 72
1, 376469, Control_c, 0, 64, 64
1, 376483, Control_c, 0, 64, 56
1, 376498, Control_c, 0, 64, 49
1, 376513, Control_c, 0, 64, 47
1, 376528, Control_c, 0, 64, 49
1, 376543, Control_c, 0, 64, 52
1, 376558, Control_c, 0, 64, 56
1, 376573, Control_c, 0, 64, 60
1, 376587, Control_c, 0, 64, 64
1, 376602, Control_c, 0, 64, 66
1, 376613, Note_on_c, 0, 58, 33
1, 376617, Control_c, 0, 64, 69
1, 376632, Control_c, 0, 64, 73
1, 376647, Control_c, 0, 64, 77
1, 376662, Control_c, 0, 64, 80
1, 376677, Control_c, 0, 64, 83
1, 376691, Control_c, 0, 64, 86
1, 376706, Control_c, 0, 64, 89
1, 376711, Note_off_c, 0, 62, 32
1, 376721, Control_c, 0, 64, 92
1, 376735, Control_c, 0, 64, 97
1, 376750, Control_c, 0, 64, 101
1, 376765, Control_c, 0, 64, 105
1, 376780, Control_c, 0, 64, 107
1, 376781, Note_on_c, 0, 65, 37
1, 376795, Control_c, 0, 64, 111
1, 376809, Control_c, 0, 64, 116
1, 376824, Control_c, 0, 64, 127
1, 376894, Note_off_c, 0, 58, 36
1, 376945, Note_on_c, 0, 62, 30
1, 376972, Note_off_c, 0, 65, 38
1, 377071, Note_on_c, 0, 58, 33
1, 377103, Note_off_c, 0, 62, 30
1, 377169, Note_off_c, 0, 81, 39
1, 377222, Note_on_c, 0, 65, 38
1, 377278, Note_off_c, 0, 58, 42
1, 377383, Note_on_c, 0, 62, 35
1, 377401, Note_off_c, 0, 65, 39
1, 377497, Note_on_c, 0, 74, 57
1, 377530, Note_on_c, 0, 58, 34
1, 377547, Note_off_c, 0, 62, 35
1, 377563, Note_off_c, 0, 74, 50
1, 377618, Control_c, 0, 64, 120
1, 377632, Control_c, 0, 64, 113
1, 377647, Control_c, 0, 64, 109
1, 377662, Control_c, 0, 64, 105
1, 377678, Control_c, 0, 64, 103
1, 377690, Note_off_c, 0, 58, 30
1, 377693, Control_c, 0, 64, 101
1, 377707, Control_c, 0, 64, 99
1, 377722, Control_c, 0, 64, 97
1, 377728, Note_on_c, 0, 74, 53
1, 377737, Control_c, 0, 64, 95
1, 377750, Note_on_c, 0, 57, 39
1, 377752, Control_c, 0, 64, 90
1, 377767, Control_c, 0, 64, 81
1, 377781, Control_c, 0, 64, 70
1, 377797, Control_c, 0, 64, 60
1, 377812, Control_c, 0, 64, 49
1, 377827, Control_c, 0, 64, 42
1, 377856, Control_c, 0, 64, 44
1, 377871, Control_c, 0, 64, 47
1, 377886, Control_c, 0, 64, 54
1, 377908, Control_c, 0, 64, 61
1, 377923, Control_c, 0, 64, 65
1, 377938, Control_c, 0, 64, 70
1, 377953, Control_c, 0, 64, 74
1, 377968, Control_c, 0, 64, 78
1, 377976, Note_on_c, 0, 62, 38
1, 377982, Control_c, 0, 64, 80
1, 377997, Control_c, 0, 64, 81
1, 378012, Control_c, 0, 64, 81
1, 378027, Control_c, 0, 64, 82
1, 378042, Control_c, 0, 64, 83
1, 378052, Note_off_c, 0, 57, 29
1, 378056, Control_c, 0, 64, 83
1, 378071, Control_c, 0, 64, 84
1, 378086, Control_c, 0, 64, 85
1, 378156, Note_on_c, 0, 58, 43
1, 378159, Note_off_c, 0, 62, 35
1, 378249, Control_c, 0, 64, 84
1, 378293, Control_c, 0, 64, 84
1, 378303, Note_on_c, 0, 57, 43
1, 378307, Control_c, 0, 64, 83
1, 378308, Note_off_c, 0, 58, 36
1, 378322, Control_c, 0, 64, 83
1, 378337, Control_c, 0, 64, 82
1, 378352, Control_c, 0, 64, 81
1, 378367, Control_c, 0, 64, 81
1, 378382, Control_c, 0, 64, 80
1, 378397, Control_c, 0, 64, 78
1, 378412, Control_c, 0, 64, 77
1, 378426, Control_c, 0, 64, 76
1, 378441, Control_c, 0, 64, 74
1, 378456, Control_c, 0, 64, 70
1, 378471, Control_c, 0, 64, 64
1, 378486, Control_c, 0, 64, 54
1, 378496, Note_on_c, 0, 55, 36
1, 378501, Control_c, 0, 64, 36
1, 378503, Note_off_c, 0, 57, 46
1, 378516, Control_c, 0, 64, 0
1, 378604, Control_c, 0, 64, 36
1, 378619, Control_c, 0, 64, 58
1, 378634, Control_c, 0, 64, 66
1, 378656, Control_c, 0, 64, 71
1, 378671, Control_c, 0, 64, 75
1, 378686, Control_c, 0, 64, 78
1, 378701, Control_c, 0, 64, 82
1, 378701, Note_on_c, 0, 62, 37
1, 378716, Control_c, 0, 64, 86
1, 378725, Note_off_c, 0, 74, 57
1, 378730, Control_c, 0, 64, 91
1, 378745, Control_c, 0, 64, 95
1, 378760, Control_c, 0, 64, 98
1, 378761, Note_off_c, 0, 55, 37
1, 378775, Control_c, 0, 64, 100
1, 378804, Control_c, 0, 64, 102
1, 378848, Note_on_c, 0, 75, 57
1, 378874, Note_on_c, 0, 58, 41
1, 378918, Note_off_c, 0, 62, 38
1, 378979, Note_off_c, 0, 75, 56
1, 379011, Note_off_c, 0, 58, 42
1, 379012, Note_on_c, 0, 55, 37
1, 379085, Control_c, 0, 64, 100
1, 379115, Control_c, 0, 64, 98
1, 379130, Control_c, 0, 64, 93
1, 379145, Control_c, 0, 64, 84
1, 379148, Note_on_c, 0, 77, 64
1, 379153, Note_off_c, 0, 55, 37
1, 379155, Note_on_c, 0, 53, 43
1, 379160, Control_c, 0, 64, 72
1, 379175, Control_c, 0, 64, 62
1, 379190, Control_c, 0, 64, 53
1, 379204, Control_c, 0, 64, 48
1, 379219, Control_c, 0, 64, 50
1, 379234, Control_c, 0, 64, 53
1, 379248, Control_c, 0, 64, 56
1, 379263, Control_c, 0, 64, 60
1, 379279, Control_c, 0, 64, 63
1, 379294, Control_c, 0, 64, 66
1, 379300, Note_on_c, 0, 62, 44
1, 379309, Control_c, 0, 64, 69
1, 379324, Control_c, 0, 64, 73
1, 379339, Control_c, 0, 64, 76
1, 379353, Control_c, 0, 64, 77
1, 379366, Note_off_c, 0, 53, 33
1, 379368, Control_c, 0, 64, 77
1, 379405, Control_c, 0, 64, 77
1, 379420, Control_c, 0, 64, 73
1, 379434, Control_c, 0, 64, 65
1, 379440, Note_on_c, 0, 79, 72
1, 379449, Control_c, 0, 64, 57
1, 379463, Note_on_c, 0, 58, 41
1, 379464, Control_c, 0, 64, 51
1, 379479, Control_c, 0, 64, 50
1, 379485, Note_off_c, 0, 62, 42
1, 379494, Control_c, 0, 64, 52
1, 379509, Control_c, 0, 64, 55
1, 379524, Control_c, 0, 64, 60
1, 379539, Control_c, 0, 64, 63
1, 379553, Control_c, 0, 64, 66
1, 379568, Control_c, 0, 64, 70
1, 379583, Control_c, 0, 64, 76
1, 379589, Note_on_c, 0, 53, 48
1, 379589, Note_off_c, 0, 77, 24
1, 379595, Note_off_c, 0, 58, 48
1, 379598, Control_c, 0, 64, 81
1, 379613, Control_c, 0, 64, 85
1, 379627, Control_c, 0, 64, 87
1, 379657, Control_c, 0, 64, 86
1, 379672, Control_c, 0, 64, 78
1, 379686, Control_c, 0, 64, 67
1, 379701, Control_c, 0, 64, 56
1, 379715, Note_on_c, 0, 81, 75
1, 379716, Control_c, 0, 64, 44
1, 379731, Control_c, 0, 64, 41
1, 379732, Note_on_c, 0, 52, 42
1, 379741, Note_off_c, 0, 53, 36
1, 379746, Control_c, 0, 64, 46
1, 379760, Control_c, 0, 64, 53
1, 379767, Note_off_c, 0, 79, 57
1, 379775, Control_c, 0, 64, 57
1, 379790, Control_c, 0, 64, 61
1, 379805, Control_c, 0, 64, 65
1, 379820, Control_c, 0, 64, 71
1, 379834, Control_c, 0, 64, 76
1, 379849, Control_c, 0, 64, 81
1, 379857, Note_on_c, 0, 62, 47
1, 379864, Control_c, 0, 64, 83
1, 379878, Control_c, 0, 64, 84
1, 379893, Control_c, 0, 64, 84
1, 379908, Control_c, 0, 64, 85
1, 379923, Control_c, 0, 64, 86
1, 379938, Control_c, 0, 64, 87
1, 379953, Control_c, 0, 64, 88
1, 379968, Control_c, 0, 64, 89
1, 379975, Note_off_c, 0, 52, 33
1, 379980, Note_on_c, 0, 82, 77
1, 379983, Control_c, 0, 64, 89
1, 380001, Note_off_c, 0, 81, 63
1, 380013, Control_c, 0, 64, 90
1, 380015, Note_off_c, 0, 62, 34
1, 380016, Note_on_c, 0, 58, 44
1, 380039, Note_off_c, 0, 82, 64
1, 380042, Control_c, 0, 64, 90
1, 380091, Note_off_c, 0, 58, 54
1, 380135, Note_on_c, 0, 55, 51
1, 380183, Control_c, 0, 64, 90
1, 380213, Control_c, 0, 64, 89
1, 380228, Control_c, 0, 64, 88
1, 380243, Control_c, 0, 64, 88
1, 380257, Control_c, 0, 64, 86
1, 380272, Control_c, 0, 64, 83
1, 380285, Note_on_c, 0, 84, 73
1, 380287, Control_c, 0, 64, 75
1, 380298, Note_off_c, 0, 55, 51
1, 380302, Control_c, 0, 64, 63
1, 380306, Note_on_c, 0, 51, 45
1, 380317, Control_c, 0, 64, 34
1, 380331, Control_c, 0, 64, 0
1, 380406, Control_c, 0, 64, 36
1, 380406, Control_c, 0, 67, 104
1, 380421, Control_c, 0, 64, 51
1, 380421, Control_c, 0, 67, 80
1, 380435, Control_c, 0, 64, 61
1, 380435, Control_c, 0, 67, 56
1, 380450, Control_c, 0, 64, 64
1, 380450, Control_c, 0, 67, 36
1, 380465, Control_c, 0, 64, 65
1, 380465, Control_c, 0, 67, 22
1, 380479, Note_on_c, 0, 60, 44
1, 380480, Control_c, 0, 64, 65
1, 380480, Control_c, 0, 67, 0
1, 380495, Control_c, 0, 64, 66
1, 380509, Control_c, 0, 64, 68
1, 380524, Control_c, 0, 64, 71
1, 380539, Control_c, 0, 64, 73
1, 380543, Note_on_c, 0, 82, 74
1, 380554, Control_c, 0, 64, 75
1, 380569, Control_c, 0, 64, 77
1, 380583, Control_c, 0, 64, 79
1, 380598, Control_c, 0, 64, 82
1, 380613, Control_c, 0, 64, 84
1, 380617, Note_off_c, 0, 84, 51
1, 380627, Control_c, 0, 64, 87
1, 380642, Control_c, 0, 64, 88
1, 380657, Control_c, 0, 64, 89
1, 380659, Note_off_c, 0, 60, 33
1, 380664, Note_on_c, 0, 57, 50
1, 380672, Control_c, 0, 64, 89
1, 380687, Control_c, 0, 64, 90
1, 380701, Control_c, 0, 64, 91
1, 380716, Note_off_c, 0, 51, 25
1, 380716, Control_c, 0, 64, 93
1, 380731, Control_c, 0, 64, 94
1, 380743, Note_on_c, 0, 84, 73
1, 380746, Control_c, 0, 64, 95
1, 380776, Control_c, 0, 64, 98
1, 380800, Note_on_c, 0, 55, 26
1, 380816, Note_off_c, 0, 82, 48
1, 380819, Note_off_c, 0, 57, 51
1, 380820, Control_c, 0, 64, 100
1, 380868, Note_on_c, 0, 74, 59
1, 380914, Note_off_c, 0, 55, 42
1, 380993, Control_c, 0, 64, 98
1, 381022, Control_c, 0, 64, 94
1, 381029, Note_on_c, 0, 86, 71
1, 381037, Control_c, 0, 64, 91
1, 381041, Note_on_c, 0, 50, 40
1, 381051, Control_c, 0, 64, 86
1, 381066, Control_c, 0, 64, 78
1, 381081, Control_c, 0, 64, 68
1, 381088, Note_off_c, 0, 84, 38
1, 381096, Control_c, 0, 64, 59
1, 381111, Control_c, 0, 64, 45
1, 381125, Control_c, 0, 64, 0
1, 381214, Control_c, 0, 64, 42
1, 381229, Control_c, 0, 64, 57
1, 381244, Control_c, 0, 64, 64
1, 381259, Control_c, 0, 64, 68
1, 381268, Note_on_c, 0, 60, 35
1, 381273, Control_c, 0, 64, 71
1, 381288, Control_c, 0, 64, 73
1, 381303, Control_c, 0, 64, 77
1, 381318, Control_c, 0, 64, 83
1, 381318, Control_c, 0, 67, 20
1, 381333, Control_c, 0, 64, 90
1, 381333, Control_c, 0, 67, 22
1, 381348, Control_c, 0, 64, 97
1, 381348, Control_c, 0, 67, 24
1, 381363, Control_c, 0, 64, 106
1, 381363, Control_c, 0, 67, 26
1, 381378, Control_c, 0, 64, 117
1, 381378, Control_c, 0, 67, 28
1, 381393, Control_c, 0, 64, 127
1, 381393, Control_c, 0, 67, 31
1, 381407, Control_c, 0, 67, 36
1, 381422, Control_c, 0, 67, 40
1, 381437, Control_c, 0, 67, 43
1, 381451, Control_c, 0, 67, 44
1, 381481, Control_c, 0, 67, 43
1, 381486, Note_off_c, 0, 74, 37
1, 381496, Control_c, 0, 67, 42
1, 381511, Control_c, 0, 67, 41
1, 381525, Control_c, 0, 67, 40
1, 381540, Control_c, 0, 67, 39
1, 381549, Note_on_c, 0, 81, 59
1, 381555, Control_c, 0, 67, 38
1, 381563, Note_off_c, 0, 86, 54
1, 381603, Note_off_c, 0, 81, 58
1, 381614, Control_c, 0, 67, 39
1, 381624, Poly_aftertouch_c, 0, 66, 127
1, 381629, Control_c, 0, 67, 40
1, 381651, Control_c, 0, 67, 41
1, 381666, Control_c, 0, 67, 42
1, 381682, Control_c, 0, 67, 44
1, 381697, Control_c, 0, 67, 45
1, 381712, Control_c, 0, 67, 49
1, 381727, Control_c, 0, 67, 63
1, 381741, Control_c, 0, 67, 79
1, 381756, Control_c, 0, 67, 95
1, 381771, Control_c, 0, 67, 105
1, 381786, Control_c, 0, 67, 111
1, 381799, Poly_aftertouch_c, 0, 66, 0
1, 381832, Note_off_c, 0, 60, 42
1, 381860, Control_c, 0, 67, 109
1, 381879, Note_off_c, 0, 50, 17
1, 381904, Control_c, 0, 67, 107
1, 382084, Note_on_c, 0, 79, 47
1, 382347, Control_c, 0, 64, 120
1, 382362, Control_c, 0, 64, 113
1, 382377, Control_c, 0, 64, 108
1, 382392, Control_c, 0, 64, 104
1, 382414, Control_c, 0, 64, 101
1, 382429, Control_c, 0, 64, 98
1, 382459, Control_c, 0, 64, 95
1, 382469, Note_on_c, 0, 91, 67
1, 382475, Control_c, 0, 64, 93
1, 382490, Control_c, 0, 64, 91
1, 382504, Control_c, 0, 64, 90
1, 382519, Control_c, 0, 64, 87
1, 382534, Control_c, 0, 64, 83
1, 382549, Control_c, 0, 64, 77
1, 382564, Control_c, 0, 64, 70
1, 382578, Control_c, 0, 64, 64
1, 382593, Control_c, 0, 64, 58
1, 382608, Control_c, 0, 64, 52
1, 382622, Control_c, 0, 64, 51
1, 382637, Control_c, 0, 64, 52
1, 382652, Control_c, 0, 64, 55
1, 382652, Control_c, 0, 67, 110
1, 382667, Control_c, 0, 64, 59
1, 382682, Control_c, 0, 64, 62
1, 382682, Control_c, 0, 67, 113
1, 382696, Control_c, 0, 64, 65
1, 382696, Control_c, 0, 67, 115
1, 382711, Control_c, 0, 64, 69
1, 382711, Control_c, 0, 67, 122
1, 382726, Control_c, 0, 64, 72
1, 382726, Control_c, 0, 67, 127
1, 382741, Control_c, 0, 64, 76
1, 382751, Note_on_c, 0, 43, 28
1, 382756, Control_c, 0, 64, 80
1, 382770, Control_c, 0, 64, 84
1, 382785, Control_c, 0, 64, 90
1, 382800, Control_c, 0, 64, 97
1, 382815, Control_c, 0, 64, 120
1, 382829, Control_c, 0, 64, 127
1, 382961, Note_on_c, 0, 50, 37
1, 382968, Note_off_c, 0, 43, 36
1, 383108, Note_off_c, 0, 50, 41
1, 383138, Note_on_c, 0, 59, 24
1, 383292, Note_off_c, 0, 79, 39
1, 383328, Note_off_c, 0, 59, 41
1, 383370, Note_on_c, 0, 62, 38
1, 383533, Note_off_c, 0, 91, 50
1, 383603, Note_on_c, 0, 59, 21
1, 383791, Note_on_c, 0, 55, 30
1, 383817, Note_on_c, 0, 93, 63
1, 383882, Note_off_c, 0, 59, 27
1, 383997, Note_on_c, 0, 67, 35
1, 384020, Note_off_c, 0, 55, 39
1, 384069, Note_off_c, 0, 62, 41
1, 384180, Control_c, 0, 64, 117
1, 384194, Note_on_c, 0, 91, 73
1, 384195, Control_c, 0, 64, 94
1, 384198, Note_on_c, 0, 63, 49
1, 384210, Control_c, 0, 64, 76
1, 384225, Control_c, 0, 64, 65
1, 384239, Control_c, 0, 64, 56
1, 384254, Note_off_c, 0, 67, 39
1, 384254, Control_c, 0, 64, 50
1, 384269, Control_c, 0, 64, 51
1, 384284, Control_c, 0, 64, 55
1, 384299, Control_c, 0, 64, 58
1, 384314, Control_c, 0, 64, 61
1, 384329, Control_c, 0, 64, 63
1, 384343, Control_c, 0, 64, 64
1, 384358, Control_c, 0, 64, 67
1, 384368, Note_on_c, 0, 59, 35
1, 384373, Control_c, 0, 64, 69
1, 384388, Control_c, 0, 64, 72
1, 384402, Control_c, 0, 64, 75
1, 384417, Control_c, 0, 64, 76
1, 384432, Control_c, 0, 64, 78
1, 384447, Control_c, 0, 64, 79
1, 384450, Note_off_c, 0, 59, 43
1, 384462, Control_c, 0, 64, 80
1, 384476, Control_c, 0, 64, 81
1, 384479, Note_off_c, 0, 93, 34
1, 384491, Control_c, 0, 64, 83
1, 384501, Note_on_c, 0, 90, 72
1, 384506, Note_on_c, 0, 55, 42
1, 384506, Control_c, 0, 64, 84
1, 384521, Control_c, 0, 64, 86
1, 384535, Control_c, 0, 64, 87
1, 384549, Control_c, 0, 64, 89
1, 384562, Note_off_c, 0, 91, 61
1, 384564, Control_c, 0, 64, 90
1, 384579, Control_c, 0, 64, 91
1, 384593, Control_c, 0, 64, 92
1, 384608, Control_c, 0, 64, 93
1, 384623, Control_c, 0, 64, 93
1, 384651, Note_off_c, 0, 63, 11
1, 384654, Note_off_c, 0, 55, 34
1, 384657, Note_on_c, 0, 67, 40
1, 384700, Note_off_c, 0, 90, 58
1, 384734, Control_c, 0, 64, 93
1, 384749, Control_c, 0, 64, 92
1, 384764, Control_c, 0, 64, 92
1, 384779, Control_c, 0, 64, 91
1, 384793, Control_c, 0, 64, 89
1, 384803, Note_off_c, 0, 67, 26
1, 384804, Note_on_c, 0, 90, 73
1, 384808, Control_c, 0, 64, 85
1, 384809, Note_on_c, 0, 64, 42
1, 384823, Control_c, 0, 64, 79
1, 384838, Control_c, 0, 64, 70
1, 384853, Control_c, 0, 64, 62
1, 384868, Control_c, 0, 64, 53
1, 384883, Control_c, 0, 64, 47
1, 384898, Control_c, 0, 64, 48
1, 384913, Control_c, 0, 64, 50
1, 384928, Control_c, 0, 64, 53
1, 384943, Control_c, 0, 64, 56
1, 384944, Note_on_c, 0, 60, 41
1, 384958, Control_c, 0, 64, 59
1, 384972, Control_c, 0, 64, 62
1, 384987, Control_c, 0, 64, 64
1, 385002, Control_c, 0, 64, 66
1, 385016, Control_c, 0, 64, 68
1, 385031, Control_c, 0, 64, 71
1, 385046, Control_c, 0, 64, 73
1, 385061, Control_c, 0, 64, 76
1, 385076, Control_c, 0, 64, 78
1, 385088, Note_on_c, 0, 88, 65
1, 385091, Control_c, 0, 64, 81
1, 385101, Note_on_c, 0, 55, 41
1, 385101, Note_off_c, 0, 60, 37
1, 385105, Control_c, 0, 64, 83
1, 385120, Control_c, 0, 64, 85
1, 385135, Control_c, 0, 64, 87
1, 385150, Control_c, 0, 64, 89
1, 385159, Note_off_c, 0, 90, 52
1, 385164, Control_c, 0, 64, 91
1, 385179, Control_c, 0, 64, 93
1, 385194, Control_c, 0, 64, 94
1, 385203, Note_off_c, 0, 88, 52
1, 385209, Control_c, 0, 64, 94
1, 385234, Note_off_c, 0, 64, 20
1, 385244, Note_off_c, 0, 55, 35
1, 385268, Note_on_c, 0, 67, 28
1, 385302, Note_off_c, 0, 67, 55
1, 385313, Control_c, 0, 64, 94
1, 385343, Control_c, 0, 64, 92
1, 385358, Control_c, 0, 64, 90
1, 385372, Control_c, 0, 64, 88
1, 385395, Control_c, 0, 64, 86
1, 385410, Control_c, 0, 64, 84
1, 385424, Control_c, 0, 64, 82
1, 385435, Note_on_c, 0, 90, 53
1, 385439, Control_c, 0, 64, 81
1, 385454, Control_c, 0, 64, 80
1, 385469, Control_c, 0, 64, 78
1, 385475, Note_on_c, 0, 78, 64
1, 385483, Note_on_c, 0, 66, 41
1, 385484, Control_c, 0, 64, 74
1, 385498, Control_c, 0, 64, 70
1, 385513, Control_c, 0, 64, 62
1, 385528, Control_c, 0, 64, 51
1, 385542, Control_c, 0, 64, 0
1, 385661, Control_c, 0, 64, 41
1, 385671, Note_off_c, 0, 90, 30
1, 385677, Control_c, 0, 64, 57
1, 385692, Control_c, 0, 64, 65
1, 385700, Note_on_c, 0, 62, 38
1, 385707, Control_c, 0, 64, 69
1, 385721, Control_c, 0, 64, 71
1, 385736, Control_c, 0, 64, 74
1, 385751, Control_c, 0, 64, 77
1, 385766, Control_c, 0, 64, 81
1, 385781, Control_c, 0, 64, 87
1, 385795, Control_c, 0, 64, 92
1, 385810, Control_c, 0, 64, 97
1, 385825, Control_c, 0, 64, 99
1, 385852, Note_on_c, 0, 59, 40
1, 385930, Note_off_c, 0, 66, 32
1, 385948, Note_off_c, 0, 62, 26
1, 385988, Note_on_c, 0, 55, 39
1, 386021, Note_off_c, 0, 59, 30
1, 386077, Control_c, 0, 64, 94
1, 386092, Control_c, 0, 64, 86
1, 386107, Control_c, 0, 64, 74
1, 386121, Control_c, 0, 64, 65
1, 386130, Note_on_c, 0, 67, 50
1, 386132, Note_off_c, 0, 55, 0
1, 386144, Control_c, 0, 64, 57
1, 386159, Control_c, 0, 64, 53
1, 386173, Control_c, 0, 64, 55
1, 386188, Control_c, 0, 64, 59
1, 386203, Control_c, 0, 64, 63
1, 386210, Poly_aftertouch_c, 0, 55, 0
1, 386218, Control_c, 0, 64, 67
1, 386233, Control_c, 0, 64, 70
1, 386247, Control_c, 0, 64, 75
1, 386262, Control_c, 0, 64, 79
1, 386277, Control_c, 0, 64, 83
1, 386283, Note_off_c, 0, 78, 62
1, 386292, Control_c, 0, 64, 87
1, 386307, Control_c, 0, 64, 91
1, 386312, Note_on_c, 0, 62, 43
1, 386321, Control_c, 0, 64, 94
1, 386336, Control_c, 0, 64, 95
1, 386351, Control_c, 0, 64, 96
1, 386439, Note_off_c, 0, 62, 50
1, 386451, Note_on_c, 0, 59, 42
1, 386484, Note_off_c, 0, 67, 39
1, 386566, Note_off_c, 0, 59, 55
1, 386611, Note_on_c, 0, 71, 49
1, 386617, Note_on_c, 0, 55, 36
1, 386618, Control_c, 0, 64, 95
1, 386633, Control_c, 0, 64, 94
1, 386648, Control_c, 0, 64, 94
1, 386663, Control_c, 0, 64, 93
1, 386676, Note_off_c, 0, 71, 55
1, 386678, Control_c, 0, 64, 92
1, 386693, Control_c, 0, 64, 91
1, 386708, Control_c, 0, 64, 89
1, 386723, Control_c, 0, 64, 88
1, 386737, Control_c, 0, 64, 86
1, 386743, Note_off_c, 0, 55, 28
1, 386752, Control_c, 0, 64, 85
1, 386767, Control_c, 0, 64, 83
1, 386782, Control_c, 0, 64, 81
1, 386796, Control_c, 0, 64, 76
1, 386800, Note_on_c, 0, 66, 42
1, 386810, Note_on_c, 0, 71, 56
1, 386811, Control_c, 0, 64, 69
1, 386826, Control_c, 0, 64, 62
1, 386841, Control_c, 0, 64, 55
1, 386855, Control_c, 0, 64, 49
1, 386892, Control_c, 0, 64, 51
1, 386907, Control_c, 0, 64, 53
1, 386922, Control_c, 0, 64, 55
1, 386937, Control_c, 0, 64, 58
1, 386952, Control_c, 0, 64, 61
1, 386967, Control_c, 0, 64, 63
1, 386977, Note_on_c, 0, 59, 40
1, 386982, Control_c, 0, 64, 64
1, 386996, Control_c, 0, 64, 65
1, 387011, Control_c, 0, 64, 67
1, 387026, Control_c, 0, 64, 69
1, 387041, Control_c, 0, 64, 70
1, 387056, Control_c, 0, 64, 72
1, 387064, Note_off_c, 0, 66, 37
1, 387070, Control_c, 0, 64, 73
1, 387085, Control_c, 0, 64, 73
1, 387121, Note_on_c, 0, 55, 42
1, 387159, Control_c, 0, 64, 74
1, 387164, Note_off_c, 0, 59, 37
1, 387264, Control_c, 0, 64, 73
1, 387268, Note_on_c, 0, 50, 45
1, 387270, Note_off_c, 0, 55, 53
1, 387279, Control_c, 0, 64, 73
1, 387293, Control_c, 0, 64, 70
1, 387308, Control_c, 0, 64, 65
1, 387323, Control_c, 0, 64, 60
1, 387338, Control_c, 0, 64, 57
1, 387367, Control_c, 0, 64, 58
1, 387382, Control_c, 0, 64, 59
1, 387397, Control_c, 0, 64, 61
1, 387411, Control_c, 0, 64, 63
1, 387426, Control_c, 0, 64, 64
1, 387441, Control_c, 0, 64, 66
1, 387456, Control_c, 0, 64, 68
1, 387459, Note_on_c, 0, 64, 39
1, 387460, Note_off_c, 0, 50, 30
1, 387471, Control_c, 0, 64, 69
1, 387477, Note_off_c, 0, 71, 56
1, 387486, Control_c, 0, 64, 71
1, 387501, Control_c, 0, 64, 72
1, 387515, Control_c, 0, 64, 73
1, 387530, Control_c, 0, 64, 75
1, 387545, Control_c, 0, 64, 76
1, 387560, Control_c, 0, 64, 77
1, 387575, Control_c, 0, 64, 78
1, 387590, Control_c, 0, 64, 79
1, 387605, Control_c, 0, 64, 79
1, 387617, Note_on_c, 0, 59, 40
1, 387619, Control_c, 0, 64, 80
1, 387641, Control_c, 0, 64, 80
1, 387691, Note_off_c, 0, 64, 36
1, 387775, Note_off_c, 0, 59, 39
1, 387795, Note_on_c, 0, 72, 52
1, 387803, Note_on_c, 0, 55, 37
1, 387933, Note_on_c, 0, 50, 51
1, 387942, Note_off_c, 0, 55, 37
1, 387982, Control_c, 0, 64, 80
1, 387997, Control_c, 0, 64, 79
1, 388012, Control_c, 0, 64, 78
1, 388026, Control_c, 0, 64, 77
1, 388041, Control_c, 0, 64, 74
1, 388056, Control_c, 0, 64, 69
1, 388072, Control_c, 0, 64, 63
1, 388087, Control_c, 0, 64, 57
1, 388089, Note_on_c, 0, 74, 63
1, 388094, Note_on_c, 0, 62, 47
1, 388102, Control_c, 0, 64, 52
1, 388116, Control_c, 0, 64, 51
1, 388131, Control_c, 0, 64, 53
1, 388146, Control_c, 0, 64, 55
1, 388155, Note_off_c, 0, 50, 38
1, 388160, Control_c, 0, 64, 57
1, 388175, Control_c, 0, 64, 59
1, 388190, Control_c, 0, 64, 62
1, 388205, Control_c, 0, 64, 64
1, 388220, Control_c, 0, 64, 65
1, 388232, Note_on_c, 0, 55, 47
1, 388234, Control_c, 0, 64, 67
1, 388243, Note_off_c, 0, 72, 37
1, 388249, Control_c, 0, 64, 69
1, 388264, Control_c, 0, 64, 70
1, 388293, Note_off_c, 0, 62, 36
1, 388295, Control_c, 0, 64, 69
1, 388309, Control_c, 0, 64, 68
1, 388324, Control_c, 0, 64, 65
1, 388339, Control_c, 0, 64, 60
1, 388354, Control_c, 0, 64, 56
1, 388357, Note_on_c, 0, 76, 69
1, 388359, Note_on_c, 0, 50, 48
1, 388368, Control_c, 0, 64, 55
1, 388391, Control_c, 0, 64, 56
1, 388399, Note_off_c, 0, 55, 37
1, 388406, Control_c, 0, 64, 58
1, 388421, Control_c, 0, 64, 59
1, 388435, Note_off_c, 0, 74, 49
1, 388436, Control_c, 0, 64, 61
1, 388450, Control_c, 0, 64, 63
1, 388462, Note_off_c, 0, 50, 57
1, 388465, Control_c, 0, 64, 65
1, 388480, Control_c, 0, 64, 67
1, 388495, Control_c, 0, 64, 70
1, 388499, Note_on_c, 0, 47, 46
1, 388510, Control_c, 0, 64, 72
1, 388524, Control_c, 0, 64, 73
1, 388539, Control_c, 0, 64, 73
1, 388568, Control_c, 0, 64, 72
1, 388583, Control_c, 0, 64, 69
1, 388598, Control_c, 0, 64, 64
1, 388612, Note_off_c, 0, 47, 43
1, 388613, Control_c, 0, 64, 59
1, 388628, Control_c, 0, 64, 56
1, 388631, Note_on_c, 0, 78, 71
1, 388645, Note_on_c, 0, 61, 52
1, 388657, Control_c, 0, 64, 57
1, 388664, Note_off_c, 0, 76, 58
1, 388672, Control_c, 0, 64, 58
1, 388687, Control_c, 0, 64, 60
1, 388702, Control_c, 0, 64, 63
1, 388717, Control_c, 0, 64, 66
1, 388732, Control_c, 0, 64, 69
1, 388747, Control_c, 0, 64, 73
1, 388761, Control_c, 0, 64, 77
1, 388772, Note_on_c, 0, 55, 51
1, 388776, Control_c, 0, 64, 81
1, 388791, Control_c, 0, 64, 83
1, 388806, Control_c, 0, 64, 83
1, 388821, Control_c, 0, 64, 82
1, 388835, Control_c, 0, 64, 78
1, 388850, Control_c, 0, 64, 71
1, 388866, Control_c, 0, 64, 65
1, 388881, Control_c, 0, 64, 61
1, 388896, Control_c, 0, 64, 62
1, 388908, Note_on_c, 0, 79, 79
1, 388911, Control_c, 0, 64, 64
1, 388919, Note_off_c, 0, 55, 56
1, 388923, Note_on_c, 0, 52, 52
1, 388925, Control_c, 0, 64, 66
1, 388940, Control_c, 0, 64, 69
1, 388947, Note_off_c, 0, 61, 26
1, 388955, Control_c, 0, 64, 72
1, 388970, Control_c, 0, 64, 76
1, 388984, Control_c, 0, 64, 79
1, 388999, Control_c, 0, 64, 83
1, 389014, Control_c, 0, 64, 88
1, 389014, Control_c, 0, 67, 125
1, 389028, Note_off_c, 0, 79, 55
1, 389028, Control_c, 0, 64, 93
1, 389028, Control_c, 0, 67, 116
1, 389034, Note_off_c, 0, 78, 25
1, 389043, Control_c, 0, 64, 97
1, 389043, Control_c, 0, 67, 105
1, 389051, Note_on_c, 0, 46, 51
1, 389057, Control_c, 0, 64, 99
1, 389057, Control_c, 0, 67, 91
1, 389067, Note_off_c, 0, 52, 37
1, 389072, Control_c, 0, 64, 101
1, 389072, Control_c, 0, 67, 80
1, 389087, Control_c, 0, 67, 71
1, 389102, Control_c, 0, 67, 64
1, 389117, Control_c, 0, 67, 59
1, 389139, Control_c, 0, 67, 54
1, 389154, Control_c, 0, 67, 49
1, 389169, Control_c, 0, 67, 45
1, 389179, Note_off_c, 0, 46, 52
1, 389184, Control_c, 0, 67, 42
1, 389198, Control_c, 0, 64, 97
1, 389198, Control_c, 0, 67, 38
1, 389213, Control_c, 0, 64, 91
1, 389213, Control_c, 0, 67, 35
1, 389228, Control_c, 0, 64, 82
1, 389228, Control_c, 0, 67, 31
1, 389238, Note_on_c, 0, 81, 73
1, 389243, Control_c, 0, 64, 71
1, 389243, Control_c, 0, 67, 28
1, 389249, Note_on_c, 0, 60, 45
1, 389258, Control_c, 0, 64, 63
1, 389258, Control_c, 0, 67, 23
1, 389272, Control_c, 0, 64, 56
1, 389272, Control_c, 0, 67, 0
1, 389287, Control_c, 0, 64, 52
1, 389316, Control_c, 0, 64, 53
1, 389331, Control_c, 0, 64, 55
1, 389346, Control_c, 0, 64, 58
1, 389361, Control_c, 0, 64, 60
1, 389376, Control_c, 0, 64, 63
1, 389390, Control_c, 0, 64, 66
1, 389405, Control_c, 0, 64, 68
1, 389420, Control_c, 0, 64, 70
1, 389426, Note_on_c, 0, 54, 48
1, 389435, Control_c, 0, 64, 73
1, 389450, Control_c, 0, 64, 76
1, 389465, Control_c, 0, 64, 78
1, 389480, Control_c, 0, 64, 80
1, 389495, Control_c, 0, 64, 83
1, 389500, Note_on_c, 0, 79, 71
1, 389509, Control_c, 0, 64, 84
1, 389513, Note_off_c, 0, 60, 41
1, 389524, Control_c, 0, 64, 87
1, 389539, Control_c, 0, 64, 89
1, 389554, Control_c, 0, 64, 91
1, 389569, Control_c, 0, 64, 94
1, 389581, Note_off_c, 0, 81, 59
1, 389583, Control_c, 0, 64, 95
1, 389620, Note_on_c, 0, 52, 42
1, 389623, Note_off_c, 0, 54, 36
1, 389628, Control_c, 0, 64, 97
1, 389688, Note_on_c, 0, 81, 72
1, 389722, Note_off_c, 0, 79, 63
1, 389740, Note_off_c, 0, 81, 61
1, 389778, Note_off_c, 0, 52, 53
1, 389778, Note_on_c, 0, 45, 38
1, 389792, Control_c, 0, 64, 94
1, 389806, Control_c, 0, 64, 92
1, 389821, Control_c, 0, 64, 90
1, 389829, Note_on_c, 0, 71, 54
1, 389836, Control_c, 0, 64, 87
1, 389851, Control_c, 0, 64, 83
1, 389866, Control_c, 0, 64, 80
1, 389888, Control_c, 0, 64, 77
1, 389903, Control_c, 0, 64, 74
1, 389918, Control_c, 0, 64, 72
1, 389933, Control_c, 0, 64, 70
1, 389947, Control_c, 0, 64, 67
1, 389962, Control_c, 0, 64, 64
1, 389977, Control_c, 0, 64, 59
1, 389992, Control_c, 0, 64, 51
1, 389997, Note_on_c, 0, 83, 69
1, 390007, Control_c, 0, 64, 45
1, 390021, Control_c, 0, 64, 38
1, 390029, Note_on_c, 0, 59, 34
1, 390036, Control_c, 0, 64, 34
1, 390051, Control_c, 0, 64, 30
1, 390095, Control_c, 0, 64, 33
1, 390110, Control_c, 0, 64, 40
1, 390125, Control_c, 0, 64, 51
1, 390139, Control_c, 0, 64, 59
1, 390154, Note_off_c, 0, 45, 36
1, 390154, Control_c, 0, 64, 63
1, 390169, Control_c, 0, 64, 65
1, 390184, Control_c, 0, 64, 66
1, 390199, Control_c, 0, 64, 67
1, 390213, Control_c, 0, 64, 68
1, 390213, Control_c, 0, 67, 19
1, 390228, Control_c, 0, 64, 69
1, 390243, Control_c, 0, 64, 71
1, 390243, Control_c, 0, 67, 23
1, 390258, Control_c, 0, 64, 72
1, 390258, Control_c, 0, 67, 26
1, 390263, Note_on_c, 0, 54, 40
1, 390273, Control_c, 0, 64, 73
1, 390273, Control_c, 0, 67, 30
1, 390288, Control_c, 0, 64, 74
1, 390288, Control_c, 0, 67, 34
1, 390303, Control_c, 0, 64, 75
1, 390303, Control_c, 0, 67, 39
1, 390318, Control_c, 0, 67, 46
1, 390332, Control_c, 0, 64, 76
1, 390332, Control_c, 0, 67, 53
1, 390347, Control_c, 0, 64, 76
1, 390347, Control_c, 0, 67, 60
1, 390362, Control_c, 0, 67, 63
1, 390377, Control_c, 0, 67, 63
1, 390422, Note_on_c, 0, 78, 53
1, 390436, Control_c, 0, 67, 64
1, 390443, Note_on_c, 0, 51, 34
1, 390467, Note_off_c, 0, 59, 20
1, 390467, Control_c, 0, 67, 64
1, 390481, Control_c, 0, 67, 65
1, 390496, Note_off_c, 0, 54, 21
1, 390496, Control_c, 0, 67, 67
1, 390511, Control_c, 0, 67, 73
1, 390526, Control_c, 0, 67, 81
1, 390541, Control_c, 0, 67, 88
1, 390556, Control_c, 0, 67, 93
1, 390571, Control_c, 0, 67, 96
1, 390586, Control_c, 0, 64, 77
1, 390586, Control_c, 0, 67, 99
1, 390604, Note_on_c, 0, 45, 35
1, 390610, Note_off_c, 0, 51, 36
1, 390616, Control_c, 0, 67, 101
1, 390646, Note_off_c, 0, 45, 52
1, 390681, Note_off_c, 0, 83, 34
1, 390712, Control_c, 0, 64, 76
1, 390756, Control_c, 0, 64, 75
1, 390771, Control_c, 0, 64, 74
1, 390786, Control_c, 0, 64, 73
1, 390800, Control_c, 0, 64, 72
1, 390815, Control_c, 0, 64, 71
1, 390830, Control_c, 0, 64, 70
1, 390845, Control_c, 0, 64, 69
1, 390845, Control_c, 0, 67, 99
1, 390860, Control_c, 0, 64, 68
1, 390875, Control_c, 0, 64, 67
1, 390878, Note_on_c, 0, 76, 46
1, 390889, Control_c, 0, 64, 66
1, 390896, Note_on_c, 0, 43, 27
1, 390904, Control_c, 0, 64, 63
1, 390919, Control_c, 0, 64, 58
1, 390919, Control_c, 0, 67, 97
1, 390931, Note_off_c, 0, 71, 41
1, 390934, Control_c, 0, 64, 50
1, 390949, Control_c, 0, 64, 39
1, 390950, Note_off_c, 0, 78, 35
1, 390963, Control_c, 0, 64, 0
1, 391037, Control_c, 0, 67, 96
1, 391067, Control_c, 0, 67, 95
1, 391081, Control_c, 0, 64, 39
1, 391096, Control_c, 0, 64, 51
1, 391111, Control_c, 0, 64, 59
1, 391126, Control_c, 0, 64, 62
1, 391141, Control_c, 0, 64, 63
1, 391155, Note_on_c, 0, 47, 17
1, 391155, Control_c, 0, 64, 64
1, 391170, Control_c, 0, 64, 66
1, 391170, Control_c, 0, 67, 95
1, 391185, Control_c, 0, 64, 68
1, 391185, Control_c, 0, 67, 94
1, 391200, Control_c, 0, 64, 71
1, 391215, Control_c, 0, 64, 74
1, 391215, Control_c, 0, 67, 94
1, 391230, Control_c, 0, 64, 77
1, 391245, Control_c, 0, 64, 81
1, 391260, Control_c, 0, 64, 84
1, 391275, Control_c, 0, 64, 87
1, 391290, Control_c, 0, 64, 90
1, 391305, Control_c, 0, 64, 91
1, 391320, Control_c, 0, 64, 93
1, 391320, Control_c, 0, 67, 93
1, 391334, Control_c, 0, 64, 94
1, 391342, Note_off_c, 0, 76, 34
1, 391349, Control_c, 0, 64, 94
1, 391349, Control_c, 0, 67, 93
1, 391358, Note_on_c, 0, 51, 33
1, 391364, Control_c, 0, 64, 95
1, 391364, Control_c, 0, 67, 92
1, 391386, Control_c, 0, 64, 95
1, 391401, Control_c, 0, 64, 96
1, 391440, Note_off_c, 0, 43, 16
1, 391504, Control_c, 0, 67, 92
1, 391593, Control_c, 0, 67, 91
1, 391608, Control_c, 0, 67, 91
1, 391616, Note_on_c, 0, 52, 35
1, 391623, Control_c, 0, 67, 90
1, 391630, Note_off_c, 0, 47, 23
1, 391638, Control_c, 0, 67, 89
1, 391653, Control_c, 0, 67, 88
1, 391668, Control_c, 0, 67, 88
1, 391683, Note_off_c, 0, 51, 41
1, 391683, Control_c, 0, 67, 86
1, 391698, Control_c, 0, 67, 86
1, 391710, Note_off_c, 0, 52, 54
1, 391712, Control_c, 0, 67, 83
1, 391727, Control_c, 0, 67, 77
1, 391742, Control_c, 0, 67, 69
1, 391757, Control_c, 0, 67, 63
1, 391772, Control_c, 0, 67, 55
1, 391786, Control_c, 0, 67, 48
1, 391801, Control_c, 0, 67, 41
1, 391816, Control_c, 0, 67, 35
1, 391831, Control_c, 0, 67, 29
1, 391846, Control_c, 0, 67, 24
1, 391860, Control_c, 0, 67, 0
1, 392054, Control_c, 0, 64, 95
1, 392069, Control_c, 0, 64, 95
1, 392083, Control_c, 0, 64, 94
1, 392098, Control_c, 0, 64, 94
1, 392113, Control_c, 0, 64, 93
1, 392135, Control_c, 0, 64, 92
1, 392150, Control_c, 0, 64, 91
1, 392165, Control_c, 0, 64, 90
1, 392171, Note_on_c, 0, 48, 36
1, 392180, Control_c, 0, 64, 88
1, 392195, Control_c, 0, 64, 87
1, 392209, Control_c, 0, 64, 85
1, 392211, Note_on_c, 0, 88, 69
1, 392224, Control_c, 0, 64, 82
1, 392239, Control_c, 0, 64, 77
1, 392254, Control_c, 0, 64, 69
1, 392269, Control_c, 0, 64, 60
1, 392283, Control_c, 0, 64, 48
1, 392298, Control_c, 0, 64, 40
1, 392313, Control_c, 0, 64, 36
1, 392328, Control_c, 0, 64, 37
1, 392342, Control_c, 0, 64, 38
1, 392357, Control_c, 0, 64, 43
1, 392372, Control_c, 0, 64, 52
1, 392387, Control_c, 0, 64, 61
1, 392402, Control_c, 0, 64, 65
1, 392416, Control_c, 0, 64, 69
1, 392431, Control_c, 0, 64, 72
1, 392446, Control_c, 0, 64, 76
1, 392461, Control_c, 0, 64, 80
1, 392476, Control_c, 0, 64, 83
1, 392491, Control_c, 0, 64, 88
1, 392506, Control_c, 0, 64, 92
1, 392520, Control_c, 0, 64, 96
1, 392535, Control_c, 0, 64, 101
1, 392549, Note_on_c, 0, 52, 35
1, 392550, Control_c, 0, 64, 107
1, 392565, Control_c, 0, 64, 116
1, 392580, Control_c, 0, 64, 127
1, 392669, Note_off_c, 0, 48, 33
1, 392745, Note_on_c, 0, 83, 66
1, 392751, Note_on_c, 0, 57, 37
1, 392827, Note_off_c, 0, 52, 39
1, 392840, Note_off_c, 0, 88, 35
1, 392904, Note_off_c, 0, 57, 45
1, 392932, Note_on_c, 0, 59, 35
1, 392991, Note_off_c, 0, 59, 44
1, 393070, Note_on_c, 0, 81, 66
1, 393084, Note_on_c, 0, 60, 37
1, 393188, Note_off_c, 0, 83, 60
1, 393209, Note_on_c, 0, 64, 43
1, 393242, Note_off_c, 0, 60, 41
1, 393317, Note_off_c, 0, 64, 56
1, 393349, Note_on_c, 0, 86, 71
1, 393376, Note_on_c, 0, 69, 33
1, 393465, Note_off_c, 0, 69, 37
1, 393488, Note_on_c, 0, 71, 49
1, 393602, Note_off_c, 0, 71, 32
1, 393616, Note_off_c, 0, 81, 0
1, 393661, Note_on_c, 0, 84, 70
1, 393675, Note_on_c, 0, 72, 41
1, 393693, Poly_aftertouch_c, 0, 81, 0
1, 393712, Note_off_c, 0, 72, 58
1, 393914, Control_c, 0, 67, 19
1, 393929, Control_c, 0, 67, 22
1, 393959, Control_c, 0, 67, 25
1, 393974, Control_c, 0, 67, 27
1, 393984, Note_on_c, 0, 81, 71
1, 393988, Control_c, 0, 67, 29
1, 394018, Control_c, 0, 67, 33
1, 394020, Note_off_c, 0, 86, 27
1, 394032, Note_off_c, 0, 84, 61
1, 394033, Control_c, 0, 67, 37
1, 394048, Control_c, 0, 67, 43
1, 394062, Control_c, 0, 67, 49
1, 394068, Note_off_c, 0, 81, 60
1, 394077, Control_c, 0, 67, 54
1, 394092, Control_c, 0, 67, 58
1, 394106, Control_c, 0, 67, 60
1, 394121, Control_c, 0, 67, 62
1, 394136, Control_c, 0, 67, 64
1, 394344, Control_c, 0, 64, 118
1, 394359, Control_c, 0, 64, 110
1, 394380, Control_c, 0, 64, 105
1, 394382, Note_on_c, 0, 40, 31
1, 394395, Control_c, 0, 64, 101
1, 394410, Control_c, 0, 64, 99
1, 394425, Control_c, 0, 64, 96
1, 394425, Control_c, 0, 67, 63
1, 394440, Control_c, 0, 64, 94
1, 394456, Control_c, 0, 64, 91
1, 394456, Control_c, 0, 67, 63
1, 394470, Note_on_c, 0, 81, 71
1, 394471, Control_c, 0, 64, 87
1, 394485, Control_c, 0, 64, 81
1, 394500, Control_c, 0, 64, 74
1, 394515, Control_c, 0, 64, 66
1, 394530, Control_c, 0, 64, 60
1, 394530, Control_c, 0, 67, 62
1, 394544, Control_c, 0, 64, 53
1, 394559, Control_c, 0, 64, 50
1, 394574, Control_c, 0, 64, 51
1, 394589, Control_c, 0, 64, 53
1, 394589, Control_c, 0, 67, 63
1, 394604, Control_c, 0, 64, 56
1, 394604, Control_c, 0, 67, 63
1, 394619, Control_c, 0, 64, 60
1, 394619, Control_c, 0, 67, 64
1, 394634, Control_c, 0, 64, 63
1, 394634, Control_c, 0, 67, 65
1, 394649, Control_c, 0, 64, 67
1, 394649, Control_c, 0, 67, 67
1, 394664, Control_c, 0, 64, 70
1, 394664, Control_c, 0, 67, 75
1, 394678, Control_c, 0, 64, 75
1, 394678, Control_c, 0, 67, 86
1, 394693, Control_c, 0, 64, 78
1, 394693, Control_c, 0, 67, 99
1, 394708, Control_c, 0, 64, 80
1, 394708, Control_c, 0, 67, 113
1, 394723, Control_c, 0, 64, 82
1, 394723, Control_c, 0, 67, 125
1, 394737, Control_c, 0, 64, 84
1, 394737, Control_c, 0, 67, 127
1, 394752, Control_c, 0, 64, 88
1, 394763, Note_on_c, 0, 47, 26
1, 394767, Control_c, 0, 64, 91
1, 394782, Control_c, 0, 64, 97
1, 394797, Control_c, 0, 64, 101
1, 394811, Control_c, 0, 64, 105
1, 394826, Control_c, 0, 64, 107
1, 394828, Note_off_c, 0, 40, 35
1, 394855, Control_c, 0, 64, 110
1, 394870, Control_c, 0, 64, 113
1, 394872, Note_off_c, 0, 47, 35
1, 394885, Control_c, 0, 64, 116
1, 394900, Control_c, 0, 64, 118
1, 394915, Control_c, 0, 64, 120
1, 394926, Note_on_c, 0, 52, 40
1, 394944, Control_c, 0, 64, 122
1, 394991, Note_off_c, 0, 52, 45
1, 395082, Note_on_c, 0, 54, 41
1, 395257, Note_on_c, 0, 55, 42
1, 395259, Note_off_c, 0, 54, 36
1, 395264, Control_c, 0, 64, 120
1, 395352, Control_c, 0, 64, 118
1, 395382, Note_off_c, 0, 55, 57
1, 395397, Control_c, 0, 64, 116
1, 395413, Note_on_c, 0, 59, 35
1, 395442, Control_c, 0, 64, 113
1, 395472, Control_c, 0, 64, 110
1, 395488, Note_off_c, 0, 59, 47
1, 395516, Control_c, 0, 64, 108
1, 395560, Control_c, 0, 64, 106
1, 395591, Note_on_c, 0, 64, 24
1, 395605, Control_c, 0, 64, 104
1, 395667, Note_off_c, 0, 64, 35
1, 395693, Control_c, 0, 64, 102
1, 395762, Note_on_c, 0, 66, 36
1, 395767, Note_on_c, 0, 76, 51
1, 395798, Control_c, 0, 64, 100
1, 395814, Note_off_c, 0, 76, 56
1, 395879, Control_c, 0, 64, 98
1, 395880, Note_off_c, 0, 81, 32
1, 395904, Note_off_c, 0, 66, 23
1, 395924, Control_c, 0, 64, 96
1, 395939, Control_c, 0, 64, 96
1, 395953, Control_c, 0, 64, 95
1, 395968, Control_c, 0, 64, 94
1, 395983, Control_c, 0, 64, 93
1, 395998, Control_c, 0, 64, 92
1, 396012, Control_c, 0, 64, 91
1, 396027, Control_c, 0, 64, 90
1, 396042, Control_c, 0, 64, 89
1, 396058, Control_c, 0, 64, 88
1, 396073, Control_c, 0, 64, 87
1, 396088, Control_c, 0, 64, 86
1, 396092, Note_on_c, 0, 67, 34
1, 396102, Control_c, 0, 64, 86
1, 396103, Note_on_c, 0, 76, 45
1, 396117, Control_c, 0, 64, 85
1, 396132, Control_c, 0, 64, 84
1, 396147, Control_c, 0, 64, 83
1, 396162, Control_c, 0, 64, 83
1, 396176, Control_c, 0, 64, 82
1, 396191, Control_c, 0, 64, 81
1, 396206, Control_c, 0, 64, 81
1, 396211, Note_off_c, 0, 67, 33
1, 396221, Control_c, 0, 64, 80
1, 396236, Control_c, 0, 64, 79
1, 396250, Control_c, 0, 64, 78
1, 396265, Control_c, 0, 64, 78
1, 396280, Control_c, 0, 64, 77
1, 396294, Control_c, 0, 64, 76
1, 396309, Control_c, 0, 64, 75
1, 396324, Control_c, 0, 64, 74
1, 396339, Control_c, 0, 64, 74
1, 396354, Control_c, 0, 64, 73
1, 396369, Control_c, 0, 64, 72
1, 396384, Control_c, 0, 64, 71
1, 396399, Control_c, 0, 64, 71
1, 396413, Control_c, 0, 64, 70
1, 396428, Control_c, 0, 64, 69
1, 396443, Control_c, 0, 64, 69
1, 396458, Control_c, 0, 64, 67
1, 396473, Control_c, 0, 64, 66
1, 396488, Control_c, 0, 64, 63
1, 396502, Control_c, 0, 64, 59
1, 396517, Control_c, 0, 64, 53
1, 396532, Control_c, 0, 64, 47
1, 396547, Control_c, 0, 64, 42
1, 396562, Control_c, 0, 64, 39
1, 396591, Control_c, 0, 64, 40
1, 396606, Control_c, 0, 64, 43
1, 396628, Control_c, 0, 64, 49
1, 396643, Control_c, 0, 64, 56
1, 396658, Control_c, 0, 64, 60
1, 396673, Control_c, 0, 64, 63
1, 396688, Control_c, 0, 64, 65
1, 396702, Control_c, 0, 64, 67
1, 396717, Control_c, 0, 64, 70
1, 396732, Control_c, 0, 64, 73
1, 396747, Control_c, 0, 64, 76
1, 396762, Control_c, 0, 64, 79
1, 396776, Control_c, 0, 64, 82
1, 396791, Control_c, 0, 64, 84
1, 396806, Control_c, 0, 64, 87
1, 396821, Control_c, 0, 64, 91
1, 396835, Control_c, 0, 64, 95
1, 396851, Control_c, 0, 64, 98
1, 396866, Control_c, 0, 64, 100
1, 396878, Note_off_c, 0, 76, 34
1, 396896, Control_c, 0, 64, 102
1, 396925, Control_c, 0, 64, 105
1, 396940, Control_c, 0, 64, 107
1, 396955, Control_c, 0, 64, 109
1, 396985, Control_c, 0, 64, 111
1, 396985, Control_c, 0, 67, 124
1, 396999, Control_c, 0, 67, 121
1, 397014, Control_c, 0, 67, 119
1, 397029, Control_c, 0, 64, 114
1, 397029, Control_c, 0, 67, 117
1, 397073, Control_c, 0, 67, 115
1, 397310, Control_c, 0, 67, 117
1, 397376, Control_c, 0, 64, 112
1, 397421, Control_c, 0, 64, 110
1, 397434, Note_on_c, 0, 95, 52
1, 397436, Control_c, 0, 64, 107
1, 397450, Control_c, 0, 64, 100
1, 397465, Control_c, 0, 64, 88
1, 397466, Note_on_c, 0, 52, 33
1, 397480, Control_c, 0, 64, 78
1, 397495, Control_c, 0, 64, 69
1, 397510, Control_c, 0, 64, 63
1, 397524, Control_c, 0, 64, 60
1, 397539, Control_c, 0, 64, 60
1, 397554, Control_c, 0, 64, 62
1, 397569, Control_c, 0, 64, 65
1, 397583, Control_c, 0, 64, 68
1, 397598, Control_c, 0, 64, 73
1, 397613, Control_c, 0, 64, 80
1, 397628, Control_c, 0, 64, 86
1, 397643, Control_c, 0, 64, 92
1, 397659, Control_c, 0, 64, 100
1, 397673, Control_c, 0, 64, 116
1, 397688, Control_c, 0, 64, 127
1, 397734, Note_on_c, 0, 59, 25
1, 397747, Control_c, 0, 67, 119
1, 397797, Note_off_c, 0, 52, 40
1, 397807, Control_c, 0, 67, 121
1, 397836, Control_c, 0, 67, 123
1, 397851, Note_off_c, 0, 59, 41
1, 397893, Note_on_c, 0, 90, 57
1, 397912, Note_on_c, 0, 64, 32
1, 397925, Control_c, 0, 67, 125
1, 397956, Note_off_c, 0, 64, 45
1, 398035, Note_off_c, 0, 95, 32
1, 398058, Note_on_c, 0, 66, 35
1, 398201, Note_on_c, 0, 88, 56
1, 398205, Note_on_c, 0, 67, 35
1, 398242, Note_off_c, 0, 66, 28
1, 398342, Note_on_c, 0, 71, 42
1, 398359, Note_off_c, 0, 67, 41
1, 398410, Note_off_c, 0, 90, 37
1, 398430, Note_off_c, 0, 71, 56
1, 398482, Note_on_c, 0, 93, 63
1, 398492, Note_on_c, 0, 76, 45
1, 398541, Control_c, 0, 67, 123
1, 398583, Note_off_c, 0, 76, 55
1, 398600, Control_c, 0, 67, 121
1, 398622, Note_on_c, 0, 78, 51
1, 398674, Control_c, 0, 67, 119
1, 398714, Note_off_c, 0, 78, 59
1, 398748, Control_c, 0, 67, 117
1, 398788, Note_on_c, 0, 79, 50
1, 398792, Note_off_c, 0, 88, 41
1, 398795, Note_on_c, 0, 91, 63
1, 398819, Note_off_c, 0, 79, 67
1, 398852, Control_c, 0, 67, 115
1, 398903, Control_c, 0, 67, 112
1, 398918, Control_c, 0, 67, 106
1, 398933, Control_c, 0, 67, 96
1, 398948, Control_c, 0, 67, 85
1, 398963, Control_c, 0, 67, 76
1, 398977, Control_c, 0, 67, 68
1, 398992, Control_c, 0, 67, 62
1, 399007, Control_c, 0, 67, 57
1, 399022, Control_c, 0, 67, 53
1, 399037, Control_c, 0, 67, 50
1, 399052, Control_c, 0, 67, 48
1, 399066, Control_c, 0, 67, 47
1, 399081, Control_c, 0, 67, 46
1, 399095, Note_off_c, 0, 93, 34
1, 399096, Control_c, 0, 67, 46
1, 399133, Note_on_c, 0, 88, 65
1, 399147, Note_off_c, 0, 91, 59
1, 399185, Note_off_c, 0, 88, 63
1, 399200, Control_c, 0, 67, 46
1, 399215, Control_c, 0, 67, 47
1, 399229, Control_c, 0, 67, 47
1, 399245, Control_c, 0, 67, 48
1, 399290, Control_c, 0, 67, 48
1, 399482, Control_c, 0, 64, 119
1, 399497, Control_c, 0, 64, 108
1, 399511, Control_c, 0, 64, 101
1, 399526, Control_c, 0, 64, 95
1, 399536, Note_on_c, 0, 47, 33
1, 399540, Control_c, 0, 64, 88
1, 399552, Note_on_c, 0, 88, 65
1, 399555, Control_c, 0, 64, 79
1, 399570, Control_c, 0, 64, 71
1, 399585, Control_c, 0, 64, 62
1, 399600, Control_c, 0, 64, 54
1, 399622, Control_c, 0, 64, 48
1, 399637, Control_c, 0, 64, 47
1, 399651, Control_c, 0, 64, 48
1, 399666, Control_c, 0, 64, 50
1, 399681, Control_c, 0, 64, 52
1, 399681, Control_c, 0, 67, 49
1, 399696, Control_c, 0, 64, 57
1, 399711, Control_c, 0, 64, 62
1, 399711, Control_c, 0, 67, 49
1, 399725, Control_c, 0, 64, 67
1, 399725, Control_c, 0, 67, 51
1, 399740, Control_c, 0, 64, 73
1, 399740, Control_c, 0, 67, 52
1, 399755, Control_c, 0, 64, 80
1, 399755, Control_c, 0, 67, 54
1, 399770, Control_c, 0, 64, 90
1, 399770, Control_c, 0, 67, 56
1, 399785, Control_c, 0, 64, 100
1, 399785, Control_c, 0, 67, 59
1, 399800, Control_c, 0, 64, 115
1, 399800, Control_c, 0, 67, 62
1, 399815, Control_c, 0, 64, 127
1, 399815, Control_c, 0, 67, 69
1, 399830, Control_c, 0, 67, 79
1, 399833, Note_on_c, 0, 54, 35
1, 399844, Control_c, 0, 67, 89
1, 399859, Control_c, 0, 67, 100
1, 399874, Control_c, 0, 67, 113
1, 399889, Control_c, 0, 67, 124
1, 399904, Control_c, 0, 67, 127
1, 399949, Note_off_c, 0, 47, 41
1, 399983, Note_off_c, 0, 54, 50
1, 400010, Note_on_c, 0, 59, 38
1, 400090, Note_off_c, 0, 59, 57
1, 400147, Note_on_c, 0, 61, 38
1, 400289, Note_on_c, 0, 62, 45
1, 400298, Note_off_c, 0, 61, 37
1, 400392, Note_off_c, 0, 62, 56
1, 400423, Note_on_c, 0, 61, 48
1, 400585, Note_on_c, 0, 59, 47
1, 400587, Note_off_c, 0, 61, 40
1, 400712, Note_off_c, 0, 59, 34
1, 400730, Note_on_c, 0, 83, 60
1, 400755, Note_on_c, 0, 54, 33
1, 400812, Note_off_c, 0, 83, 62
1, 400813, Note_off_c, 0, 54, 43
1, 400905, Control_c, 0, 64, 116
1, 400920, Control_c, 0, 64, 107
1, 400935, Control_c, 0, 64, 99
1, 400944, Note_on_c, 0, 83, 66
1, 400950, Control_c, 0, 64, 84
1, 400953, Note_on_c, 0, 45, 36
1, 400964, Control_c, 0, 64, 72
1, 400979, Control_c, 0, 64, 61
1, 400992, Note_off_c, 0, 88, 43
1, 400994, Control_c, 0, 64, 51
1, 401010, Control_c, 0, 64, 47
1, 401024, Control_c, 0, 64, 50
1, 401039, Control_c, 0, 64, 55
1, 401054, Control_c, 0, 64, 60
1, 401054, Control_c, 0, 67, 121
1, 401069, Control_c, 0, 64, 63
1, 401069, Control_c, 0, 67, 110
1, 401084, Control_c, 0, 64, 66
1, 401084, Control_c, 0, 67, 98
1, 401098, Control_c, 0, 64, 69
1, 401098, Control_c, 0, 67, 87
1, 401100, Note_on_c, 0, 50, 47
1, 401120, Control_c, 0, 64, 74
1, 401120, Control_c, 0, 67, 77
1, 401135, Control_c, 0, 64, 79
1, 401135, Control_c, 0, 67, 67
1, 401150, Control_c, 0, 64, 84
1, 401150, Control_c, 0, 67, 58
1, 401165, Control_c, 0, 64, 89
1, 401165, Control_c, 0, 67, 51
1, 401180, Control_c, 0, 64, 92
1, 401180, Control_c, 0, 67, 44
1, 401195, Control_c, 0, 64, 97
1, 401195, Control_c, 0, 67, 38
1, 401204, Note_off_c, 0, 45, 35
1, 401210, Control_c, 0, 64, 102
1, 401210, Control_c, 0, 67, 33
1, 401218, Note_off_c, 0, 83, 48
1, 401224, Control_c, 0, 64, 110
1, 401224, Control_c, 0, 67, 29
1, 401239, Control_c, 0, 64, 127
1, 401239, Control_c, 0, 67, 26
1, 401254, Note_on_c, 0, 54, 50
1, 401254, Control_c, 0, 67, 23
1, 401269, Control_c, 0, 67, 21
1, 401298, Control_c, 0, 67, 19
1, 401371, Note_off_c, 0, 54, 47
1, 401403, Note_on_c, 0, 59, 44
1, 401409, Note_off_c, 0, 50, 39
1, 401482, Note_off_c, 0, 59, 46
1, 401535, Control_c, 0, 64, 110
1, 401550, Control_c, 0, 64, 103
1, 401564, Control_c, 0, 64, 98
1, 401579, Control_c, 0, 64, 94
1, 401594, Control_c, 0, 64, 88
1, 401607, Note_on_c, 0, 83, 73
1, 401609, Control_c, 0, 64, 81
1, 401624, Control_c, 0, 64, 73
1, 401627, Note_on_c, 0, 43, 41
1, 401639, Control_c, 0, 64, 66
1, 401654, Control_c, 0, 64, 59
1, 401669, Control_c, 0, 64, 54
1, 401684, Control_c, 0, 64, 53
1, 401699, Control_c, 0, 64, 53
1, 401714, Control_c, 0, 64, 54
1, 401728, Control_c, 0, 64, 56
1, 401728, Control_c, 0, 67, 0
1, 401743, Control_c, 0, 64, 59
1, 401758, Control_c, 0, 64, 62
1, 401773, Control_c, 0, 64, 66
1, 401788, Control_c, 0, 64, 70
1, 401803, Control_c, 0, 64, 74
1, 401818, Control_c, 0, 64, 79
1, 401825, Note_on_c, 0, 50, 39
1, 401833, Control_c, 0, 64, 82
1, 401847, Control_c, 0, 64, 86
1, 401869, Control_c, 0, 64, 90
1, 401884, Control_c, 0, 64, 98
1, 401899, Control_c, 0, 64, 108
1, 401914, Control_c, 0, 64, 127
1, 401940, Note_off_c, 0, 43, 35
1, 401989, Note_on_c, 0, 76, 66
1, 402003, Note_on_c, 0, 52, 48
1, 402020, Note_off_c, 0, 83, 35
1, 402113, Note_off_c, 0, 76, 59
1, 402134, Note_off_c, 0, 52, 52
1, 402140, Note_off_c, 0, 50, 38
1, 402142, Note_on_c, 0, 59, 46
1, 402195, Note_off_c, 0, 59, 57
1, 402297, Note_on_c, 0, 71, 73
1, 402307, Note_on_c, 0, 76, 71
1, 402313, Control_c, 0, 64, 106
1, 402328, Control_c, 0, 64, 87
1, 402343, Control_c, 0, 64, 72
1, 402358, Control_c, 0, 64, 60
1, 402372, Control_c, 0, 64, 50
1, 402387, Control_c, 0, 64, 47
1, 402402, Control_c, 0, 64, 48
1, 402417, Control_c, 0, 64, 51
1, 402432, Control_c, 0, 64, 56
1, 402448, Control_c, 0, 64, 61
1, 402455, Note_on_c, 0, 62, 46
1, 402459, Note_off_c, 0, 76, 56
1, 402462, Control_c, 0, 64, 64
1, 402477, Control_c, 0, 64, 67
1, 402492, Control_c, 0, 64, 71
1, 402507, Control_c, 0, 64, 75
1, 402522, Control_c, 0, 64, 79
1, 402536, Control_c, 0, 64, 82
1, 402551, Control_c, 0, 64, 86
1, 402566, Control_c, 0, 64, 89
1, 402581, Control_c, 0, 64, 93
1, 402591, Note_on_c, 0, 64, 63
1, 402591, Note_on_c, 0, 76, 74
1, 402596, Control_c, 0, 64, 99
1, 402618, Control_c, 0, 64, 108
1, 402623, Note_on_c, 0, 59, 44
1, 402626, Note_off_c, 0, 62, 55
1, 402633, Control_c, 0, 64, 127
1, 402676, Note_off_c, 0, 71, 55
1, 402707, Note_off_c, 0, 59, 48
1, 402738, Note_off_c, 0, 64, 59
1, 402744, Note_on_c, 0, 52, 53
1, 402763, Note_off_c, 0, 76, 60
1, 402899, Note_on_c, 0, 76, 77
1, 402904, Note_off_c, 0, 52, 35
1, 402909, Note_on_c, 0, 64, 60
1, 402914, Control_c, 0, 64, 90
1, 402929, Control_c, 0, 64, 71
1, 402944, Control_c, 0, 64, 59
1, 402959, Control_c, 0, 64, 55
1, 402974, Control_c, 0, 64, 57
1, 402988, Control_c, 0, 64, 61
1, 403003, Control_c, 0, 64, 64
1, 403018, Control_c, 0, 64, 68
1, 403033, Control_c, 0, 64, 74
1, 403045, Note_off_c, 0, 64, 60
1, 403048, Control_c, 0, 64, 82
1, 403062, Control_c, 0, 64, 89
1, 403077, Control_c, 0, 64, 96
1, 403091, Note_on_c, 0, 61, 57
1, 403092, Control_c, 0, 64, 106
1, 403107, Control_c, 0, 64, 127
1, 403158, Note_off_c, 0, 76, 61
1, 403162, Note_on_c, 0, 78, 78
1, 403170, Note_on_c, 0, 66, 70
1, 403262, Note_on_c, 0, 57, 58
1, 403282, Note_off_c, 0, 66, 60
1, 403308, Note_off_c, 0, 61, 35
1, 403318, Note_off_c, 0, 78, 51
1, 403344, Note_on_c, 0, 79, 83
1, 403345, Note_on_c, 0, 67, 69
1, 403403, Note_off_c, 0, 57, 52
1, 403407, Note_on_c, 0, 50, 53
1, 403435, Note_off_c, 0, 67, 59
1, 403451, Note_off_c, 0, 50, 60
1, 403454, Note_off_c, 0, 79, 60
1, 403539, Note_on_c, 0, 79, 87
1, 403541, Note_on_c, 0, 67, 74
1, 403604, Control_c, 0, 64, 91
1, 403618, Control_c, 0, 64, 73
1, 403633, Control_c, 0, 64, 59
1, 403648, Control_c, 0, 64, 35
1, 403663, Control_c, 0, 64, 0
1, 403684, Note_on_c, 0, 42, 64
1, 403708, Control_c, 0, 64, 42
1, 403723, Control_c, 0, 64, 54
1, 403730, Note_off_c, 0, 67, 52
1, 403737, Control_c, 0, 64, 62
1, 403752, Control_c, 0, 64, 67
1, 403767, Control_c, 0, 64, 69
1, 403782, Control_c, 0, 64, 71
1, 403797, Control_c, 0, 64, 72
1, 403811, Control_c, 0, 64, 74
1, 403826, Control_c, 0, 64, 75
1, 403835, Note_on_c, 0, 49, 62
1, 403835, Note_off_c, 0, 42, 59
1, 403841, Control_c, 0, 64, 78
1, 403845, Note_on_c, 0, 81, 83
1, 403856, Note_on_c, 0, 69, 62
1, 403856, Control_c, 0, 64, 80
1, 403871, Control_c, 0, 64, 83
1, 403881, Note_off_c, 0, 79, 63
1, 403886, Control_c, 0, 64, 86
1, 403900, Control_c, 0, 64, 89
1, 403915, Control_c, 0, 64, 90
1, 403930, Control_c, 0, 64, 91
1, 403931, Note_off_c, 0, 49, 59
1, 403944, Control_c, 0, 64, 92
1, 403959, Control_c, 0, 64, 92
1, 403964, Note_on_c, 0, 52, 67
1, 403974, Control_c, 0, 64, 93
1, 404004, Control_c, 0, 64, 93
1, 404064, Note_off_c, 0, 52, 60
1, 404125, Note_on_c, 0, 50, 75
1, 404146, Control_c, 0, 64, 92
1, 404161, Control_c, 0, 64, 87
1, 404175, Control_c, 0, 64, 76
1, 404190, Control_c, 0, 64, 62
1, 404205, Control_c, 0, 64, 29
1, 404220, Control_c, 0, 64, 0
1, 404250, Note_on_c, 0, 57, 69
1, 404294, Control_c, 0, 64, 31
1, 404309, Control_c, 0, 64, 52
1, 404323, Control_c, 0, 64, 64
1, 404338, Control_c, 0, 64, 68
1, 404353, Control_c, 0, 64, 70
1, 404367, Control_c, 0, 64, 72
1, 404382, Control_c, 0, 64, 74
1, 404394, Note_on_c, 0, 74, 75
1, 404397, Control_c, 0, 64, 77
1, 404406, Note_on_c, 0, 62, 64
1, 404412, Control_c, 0, 64, 80
1, 404422, Note_off_c, 0, 57, 59
1, 404427, Control_c, 0, 64, 84
1, 404441, Control_c, 0, 64, 88
1, 404456, Note_off_c, 0, 81, 51
1, 404456, Control_c, 0, 64, 93
1, 404465, Note_off_c, 0, 50, 36
1, 404471, Control_c, 0, 64, 102
1, 404477, Note_off_c, 0, 69, 57
1, 404486, Note_off_c, 0, 62, 59
1, 404486, Control_c, 0, 64, 115
1, 404501, Control_c, 0, 64, 127
1, 404520, Note_off_c, 0, 74, 61
1, 404689, Note_on_c, 0, 81, 85
1, 404697, Note_on_c, 0, 69, 63
1, 404708, Control_c, 0, 64, 100
1, 404723, Control_c, 0, 64, 81
1, 404738, Control_c, 0, 64, 65
1, 404753, Control_c, 0, 64, 56
1, 404767, Control_c, 0, 64, 52
1, 404782, Control_c, 0, 64, 55
1, 404797, Control_c, 0, 64, 60
1, 404812, Control_c, 0, 64, 64
1, 404824, Note_on_c, 0, 43, 62
1, 404827, Control_c, 0, 64, 68
1, 404843, Control_c, 0, 64, 72
1, 404864, Control_c, 0, 64, 76
1, 404879, Control_c, 0, 64, 80
1, 404888, Note_off_c, 0, 69, 61
1, 404894, Control_c, 0, 64, 84
1, 404909, Control_c, 0, 64, 89
1, 404924, Control_c, 0, 64, 95
1, 404939, Control_c, 0, 64, 102
1, 404954, Control_c, 0, 64, 116
1, 404969, Control_c, 0, 64, 127
1, 404989, Note_on_c, 0, 50, 64
1, 404990, Note_on_c, 0, 80, 83
1, 405000, Note_on_c, 0, 68, 75
1, 405001, Note_off_c, 0, 43, 56
1, 405026, Note_off_c, 0, 81, 60
1, 405115, Note_off_c, 0, 68, 55
1, 405121, Note_on_c, 0, 59, 65
1, 405140, Note_off_c, 0, 80, 57
1, 405205, Note_off_c, 0, 50, 30
1, 405246, Note_off_c, 0, 59, 55
1, 405264, Control_c, 0, 64, 93
1, 405267, Note_on_c, 0, 79, 87
1, 405273, Note_on_c, 0, 67, 72
1, 405279, Control_c, 0, 64, 72
1, 405294, Control_c, 0, 64, 59
1, 405308, Control_c, 0, 64, 46
1, 405323, Control_c, 0, 64, 43
1, 405338, Control_c, 0, 64, 51
1, 405353, Control_c, 0, 64, 59
1, 405368, Control_c, 0, 64, 64
1, 405383, Control_c, 0, 64, 67
1, 405398, Control_c, 0, 64, 72
1, 405400, Note_on_c, 0, 45, 71
1, 405413, Control_c, 0, 64, 78
1, 405428, Control_c, 0, 64, 85
1, 405435, Note_off_c, 0, 67, 62
1, 405443, Control_c, 0, 64, 94
1, 405457, Control_c, 0, 64, 106
1, 405472, Control_c, 0, 64, 127
1, 405511, Note_off_c, 0, 45, 57
1, 405541, Note_on_c, 0, 54, 68
1, 405556, Note_on_c, 0, 66, 78
1, 405557, Note_on_c, 0, 78, 82
1, 405581, Note_off_c, 0, 79, 62
1, 405640, Note_off_c, 0, 66, 62
1, 405673, Note_on_c, 0, 61, 68
1, 405680, Note_off_c, 0, 78, 63
1, 405704, Note_off_c, 0, 54, 54
1, 405726, Note_on_c, 0, 68, 76
1, 405766, Note_on_c, 0, 75, 74
1, 405766, Note_off_c, 0, 61, 54
1, 405806, Control_c, 0, 64, 107
1, 405821, Control_c, 0, 64, 78
1, 405830, Note_on_c, 0, 80, 85
1, 405836, Control_c, 0, 64, 61
1, 405844, Note_on_c, 0, 47, 73
1, 405851, Control_c, 0, 64, 45
1, 405866, Control_c, 0, 64, 36
1, 405881, Control_c, 0, 64, 41
1, 405895, Control_c, 0, 64, 52
1, 405910, Control_c, 0, 64, 60
1, 405925, Control_c, 0, 64, 65
1, 405939, Control_c, 0, 64, 72
1, 405954, Control_c, 0, 64, 82
1, 405969, Control_c, 0, 64, 95
1, 405984, Control_c, 0, 64, 125
1, 405999, Control_c, 0, 64, 127
1, 406006, Note_on_c, 0, 54, 79
1, 406043, Note_off_c, 0, 47, 61
1, 406075, Note_off_c, 0, 68, 60
1, 406120, Note_off_c, 0, 80, 58
1, 406169, Note_on_c, 0, 81, 89
1, 406170, Note_on_c, 0, 63, 71
1, 406177, Note_on_c, 0, 69, 77
1, 406191, Note_off_c, 0, 75, 60
1, 406203, Note_off_c, 0, 63, 64
1, 406237, Note_off_c, 0, 69, 59
1, 406242, Note_off_c, 0, 54, 60
1, 406245, Note_on_c, 0, 80, 9
1, 406268, Note_off_c, 0, 81, 62
1, 406286, Note_off_c, 0, 80, 48
1, 406555, Control_c, 0, 64, 91
1, 406566, Note_on_c, 0, 40, 73
1, 406569, Note_on_c, 0, 76, 82
1, 406570, Control_c, 0, 64, 68
1, 406572, Note_on_c, 0, 73, 80
1, 406572, Note_on_c, 0, 85, 87
1, 406585, Control_c, 0, 64, 49
1, 406600, Control_c, 0, 64, 0
1, 406644, Control_c, 0, 64, 34
1, 406659, Control_c, 0, 64, 53
1, 406674, Control_c, 0, 64, 66
1, 406689, Control_c, 0, 64, 78
1, 406704, Control_c, 0, 64, 102
1, 406718, Control_c, 0, 64, 127
1, 406805, Note_off_c, 0, 40, 48
1, 406818, Note_off_c, 0, 85, 58
1, 406824, Note_on_c, 0, 50, 66
1, 406836, Note_off_c, 0, 73, 61
1, 406856, Note_off_c, 0, 50, 65
1, 406995, Note_on_c, 0, 83, 89
1, 407005, Note_on_c, 0, 71, 71
1, 407017, Note_on_c, 0, 56, 57
1, 407049, Note_off_c, 0, 76, 56
1, 407131, Note_off_c, 0, 71, 59
1, 407179, Note_off_c, 0, 83, 62
1, 407186, Note_off_c, 0, 56, 60
1, 407207, Note_on_c, 0, 64, 67
1, 407266, Note_off_c, 0, 64, 62
1, 407500, Note_on_c, 0, 88, 91
1, 407505, Note_on_c, 0, 76, 77
1, 407631, Control_c, 0, 64, 125
1, 407646, Control_c, 0, 64, 107
1, 407660, Control_c, 0, 64, 99
1, 407675, Control_c, 0, 64, 94
1, 407690, Control_c, 0, 64, 89
1, 407704, Control_c, 0, 64, 84
1, 407719, Control_c, 0, 64, 78
1, 407733, Control_c, 0, 64, 71
1, 407748, Control_c, 0, 64, 64
1, 407763, Control_c, 0, 64, 55
1, 407777, Control_c, 0, 64, 44
1, 407792, Control_c, 0, 64, 0
1, 407948, Control_c, 0, 67, 20
1, 407963, Control_c, 0, 67, 24
1, 407978, Control_c, 0, 67, 29
1, 407992, Control_c, 0, 67, 35
1, 408007, Control_c, 0, 67, 46
1, 408022, Control_c, 0, 67, 64
1, 408038, Control_c, 0, 67, 81
1, 408053, Control_c, 0, 67, 98
1, 408059, Note_on_c, 0, 70, 40
1, 408068, Control_c, 0, 67, 114
1, 408082, Control_c, 0, 67, 127
1, 408097, Control_c, 0, 64, 34
1, 408112, Control_c, 0, 64, 41
1, 408127, Control_c, 0, 64, 48
1, 408141, Control_c, 0, 64, 56
1, 408156, Control_c, 0, 64, 59
1, 408171, Control_c, 0, 64, 60
1, 408186, Control_c, 0, 64, 62
1, 408201, Control_c, 0, 64, 63
1, 408215, Control_c, 0, 64, 65
1, 408230, Control_c, 0, 64, 67
1, 408245, Control_c, 0, 64, 69
1, 408260, Control_c, 0, 64, 72
1, 408274, Control_c, 0, 64, 75
1, 408280, Note_on_c, 0, 74, 43
1, 408289, Control_c, 0, 64, 79
1, 408304, Control_c, 0, 64, 82
1, 408319, Control_c, 0, 64, 86
1, 408334, Control_c, 0, 64, 90
1, 408349, Control_c, 0, 64, 96
1, 408356, Note_off_c, 0, 70, 35
1, 408364, Control_c, 0, 64, 100
1, 408379, Control_c, 0, 64, 106
1, 408394, Control_c, 0, 64, 112
1, 408408, Control_c, 0, 64, 119
1, 408423, Control_c, 0, 64, 127
1, 408481, Note_on_c, 0, 82, 48
1, 408510, Note_off_c, 0, 74, 45
1, 408678, Note_on_c, 0, 86, 45
1, 408766, Note_off_c, 0, 82, 29
1, 408802, Control_c, 0, 64, 105
1, 408816, Control_c, 0, 64, 90
1, 408832, Control_c, 0, 64, 78
1, 408847, Control_c, 0, 64, 73
1, 408849, Note_on_c, 0, 69, 40
1, 408862, Control_c, 0, 64, 71
1, 408906, Control_c, 0, 64, 72
1, 408916, Note_off_c, 0, 86, 52
1, 408921, Control_c, 0, 64, 74
1, 408936, Control_c, 0, 64, 77
1, 408951, Control_c, 0, 64, 79
1, 408965, Control_c, 0, 64, 82
1, 408980, Control_c, 0, 64, 83
1, 408995, Control_c, 0, 64, 85
1, 409010, Control_c, 0, 64, 86
1, 409023, Note_on_c, 0, 73, 47
1, 409025, Control_c, 0, 64, 87
1, 409039, Control_c, 0, 64, 88
1, 409062, Note_off_c, 0, 69, 37
1, 409069, Control_c, 0, 64, 89
1, 409170, Note_off_c, 0, 73, 37
1, 409189, Note_on_c, 0, 81, 47
1, 409202, Control_c, 0, 64, 88
1, 409291, Control_c, 0, 64, 88
1, 409306, Control_c, 0, 64, 87
1, 409321, Control_c, 0, 64, 86
1, 409336, Control_c, 0, 64, 81
1, 409357, Control_c, 0, 64, 76
1, 409372, Control_c, 0, 64, 71
1, 409387, Control_c, 0, 64, 68
1, 409395, Note_on_c, 0, 85, 50
1, 409402, Control_c, 0, 64, 66
1, 409403, Note_on_c, 0, 68, 40
1, 409437, Note_off_c, 0, 81, 37
1, 409446, Control_c, 0, 64, 68
1, 409461, Control_c, 0, 64, 70
1, 409476, Control_c, 0, 64, 73
1, 409488, Note_off_c, 0, 68, 46
1, 409491, Control_c, 0, 64, 75
1, 409506, Control_c, 0, 64, 77
1, 409521, Control_c, 0, 64, 79
1, 409535, Control_c, 0, 64, 80
1, 409550, Control_c, 0, 64, 81
1, 409565, Control_c, 0, 64, 82
1, 409580, Control_c, 0, 64, 82
1, 409595, Control_c, 0, 64, 83
1, 409617, Note_off_c, 0, 85, 25
1, 409624, Note_on_c, 0, 80, 44
1, 409628, Note_on_c, 0, 72, 36
1, 409774, Control_c, 0, 64, 82
1, 409787, Note_off_c, 0, 72, 29
1, 409788, Control_c, 0, 64, 81
1, 409803, Control_c, 0, 64, 80
1, 409818, Control_c, 0, 64, 76
1, 409833, Control_c, 0, 64, 68
1, 409848, Control_c, 0, 64, 63
1, 409850, Note_on_c, 0, 84, 45
1, 409851, Note_off_c, 0, 80, 40
1, 409862, Control_c, 0, 64, 58
1, 409866, Note_on_c, 0, 67, 34
1, 409877, Control_c, 0, 64, 56
1, 409892, Control_c, 0, 64, 57
1, 409906, Control_c, 0, 64, 59
1, 409921, Control_c, 0, 64, 62
1, 409936, Control_c, 0, 64, 66
1, 409947, Note_off_c, 0, 67, 61
1, 409951, Control_c, 0, 64, 69
1, 409966, Control_c, 0, 64, 73
1, 409980, Control_c, 0, 64, 76
1, 409995, Control_c, 0, 64, 78
1, 410010, Control_c, 0, 64, 80
1, 410025, Control_c, 0, 64, 83
1, 410040, Control_c, 0, 64, 85
1, 410054, Control_c, 0, 64, 88
1, 410069, Control_c, 0, 64, 91
1, 410084, Control_c, 0, 64, 94
1, 410106, Control_c, 0, 64, 97
1, 410121, Control_c, 0, 64, 99
1, 410124, Note_on_c, 0, 71, 38
1, 410134, Note_on_c, 0, 79, 30
1, 410136, Control_c, 0, 64, 101
1, 410152, Note_off_c, 0, 71, 50
1, 410166, Control_c, 0, 64, 103
1, 410185, Note_off_c, 0, 84, 17
1, 410186, Note_off_c, 0, 79, 47
1, 410195, Control_c, 0, 64, 107
1, 410210, Control_c, 0, 64, 109
1, 410225, Control_c, 0, 64, 112
1, 410239, Control_c, 0, 64, 115
1, 410254, Control_c, 0, 64, 122
1, 410269, Control_c, 0, 64, 127
1, 410299, Control_c, 0, 67, 124
1, 410313, Control_c, 0, 67, 119
1, 410328, Control_c, 0, 67, 114
1, 410343, Control_c, 0, 67, 110
1, 410358, Control_c, 0, 67, 108
1, 410388, Control_c, 0, 67, 106
1, 410477, Control_c, 0, 64, 110
1, 410492, Control_c, 0, 64, 92
1, 410507, Control_c, 0, 64, 81
1, 410507, Control_c, 0, 67, 104
1, 410518, Note_on_c, 0, 33, 52
1, 410522, Control_c, 0, 64, 72
1, 410537, Control_c, 0, 64, 70
1, 410546, Note_on_c, 0, 83, 42
1, 410552, Control_c, 0, 64, 70
1, 410567, Control_c, 0, 64, 73
1, 410567, Control_c, 0, 67, 99
1, 410582, Control_c, 0, 64, 82
1, 410582, Control_c, 0, 67, 94
1, 410596, Note_off_c, 0, 33, 63
1, 410597, Control_c, 0, 64, 109
1, 410597, Control_c, 0, 67, 88
1, 410611, Control_c, 0, 64, 127
1, 410611, Control_c, 0, 67, 83
1, 410626, Control_c, 0, 67, 79
1, 410641, Control_c, 0, 67, 75
1, 410655, Control_c, 0, 67, 73
1, 410670, Control_c, 0, 67, 72
1, 410672, Note_off_c, 0, 88, 33
1, 410715, Control_c, 0, 67, 74
1, 410729, Control_c, 0, 67, 77
1, 410744, Control_c, 0, 67, 79
1, 410759, Control_c, 0, 67, 82
1, 410774, Control_c, 0, 67, 84
1, 410789, Control_c, 0, 67, 85
1, 410803, Control_c, 0, 67, 87
1, 410818, Control_c, 0, 67, 91
1, 410833, Control_c, 0, 67, 98
1, 410838, Note_on_c, 0, 81, 39
1, 410841, Note_off_c, 0, 83, 41
1, 410855, Control_c, 0, 67, 105
1, 410870, Control_c, 0, 67, 115
1, 410885, Control_c, 0, 67, 121
1, 410900, Control_c, 0, 67, 127
1, 410901, Note_off_c, 0, 76, 50
1, 411035, Note_off_c, 0, 81, 50
1, 411039, Note_on_c, 0, 85, 51
1, 411209, Note_off_c, 0, 85, 60
1, 411226, Note_on_c, 0, 90, 67
1, 411245, Note_on_c, 0, 67, 32
1, 411257, Note_on_c, 0, 78, 23
1, 411297, Note_off_c, 0, 78, 51
1, 411309, Note_off_c, 0, 90, 58
1, 411440, Note_on_c, 0, 88, 63
1, 411470, Note_on_c, 0, 76, 42
1, 411489, Note_on_c, 0, 71, 5
1, 411524, Note_off_c, 0, 67, 41
1, 411639, Note_on_c, 0, 81, 49
1, 411643, Note_off_c, 0, 71, 38
1, 411655, Note_on_c, 0, 69, 28
1, 411670, Note_off_c, 0, 88, 57
1, 411679, Note_off_c, 0, 76, 39
1, 411682, Note_off_c, 0, 81, 0
1, 411682, Note_on_c, 0, 81, 7
1, 411783, Note_off_c, 0, 81, 55
1, 411787, Note_off_c, 0, 69, 39
1, 411798, Note_on_c, 0, 85, 59
1, 411799, Note_on_c, 0, 73, 42
1, 411834, Note_off_c, 0, 73, 54
1, 411948, Note_off_c, 0, 85, 55
1, 411951, Note_on_c, 0, 90, 69
1, 411964, Note_on_c, 0, 78, 51
1, 412004, Note_off_c, 0, 78, 62
1, 412022, Note_off_c, 0, 90, 60
1, 412129, Note_on_c, 0, 88, 71
1, 412147, Note_on_c, 0, 76, 54
1, 412185, Note_off_c, 0, 88, 63
1, 412185, Note_off_c, 0, 76, 64
1, 412275, Note_on_c, 0, 66, 44
1, 412277, Note_on_c, 0, 86, 74
1, 412287, Control_c, 0, 64, 102
1, 412293, Note_on_c, 0, 74, 55
1, 412301, Control_c, 0, 64, 78
1, 412316, Control_c, 0, 64, 63
1, 412331, Control_c, 0, 64, 57
1, 412334, Note_off_c, 0, 74, 63
1, 412353, Control_c, 0, 64, 58
1, 412368, Control_c, 0, 64, 61
1, 412382, Control_c, 0, 64, 64
1, 412397, Control_c, 0, 64, 68
1, 412412, Control_c, 0, 64, 74
1, 412427, Control_c, 0, 64, 83
1, 412442, Control_c, 0, 64, 91
1, 412447, Note_on_c, 0, 85, 79
1, 412457, Control_c, 0, 64, 100
1, 412460, Note_on_c, 0, 69, 49
1, 412461, Note_off_c, 0, 66, 40
1, 412464, Note_on_c, 0, 73, 63
1, 412468, Note_off_c, 0, 86, 50
1, 412472, Control_c, 0, 64, 115
1, 412487, Control_c, 0, 64, 127
1, 412489, Note_off_c, 0, 69, 59
1, 412495, Note_off_c, 0, 73, 64
1, 412513, Note_off_c, 0, 85, 64
1, 412613, Note_on_c, 0, 86, 78
1, 412630, Note_on_c, 0, 74, 50
1, 412656, Note_off_c, 0, 74, 55
1, 412658, Note_off_c, 0, 86, 62
1, 412843, Control_c, 0, 64, 105
1, 412857, Control_c, 0, 64, 94
1, 412859, Note_on_c, 0, 93, 76
1, 412872, Control_c, 0, 64, 81
1, 412880, Note_on_c, 0, 81, 41
1, 412887, Control_c, 0, 64, 67
1, 412902, Control_c, 0, 64, 54
1, 412917, Control_c, 0, 64, 33
1, 412931, Control_c, 0, 64, 0
1, 412975, Control_c, 0, 64, 37
1, 412990, Control_c, 0, 64, 50
1, 413005, Control_c, 0, 64, 59
1, 413020, Control_c, 0, 64, 66
1, 413035, Control_c, 0, 64, 72
1, 413049, Control_c, 0, 64, 78
1, 413064, Control_c, 0, 64, 86
1, 413074, Note_on_c, 0, 64, 41
1, 413079, Control_c, 0, 64, 94
1, 413101, Control_c, 0, 64, 105
1, 413116, Control_c, 0, 64, 127
1, 413272, Note_off_c, 0, 81, 39
1, 413279, Note_on_c, 0, 85, 48
1, 413285, Note_on_c, 0, 73, 38
1, 413289, Note_off_c, 0, 93, 64
1, 413292, Note_on_c, 0, 67, 33
1, 413330, Note_off_c, 0, 64, 34
1, 413345, Note_off_c, 0, 67, 52
1, 413353, Note_off_c, 0, 73, 46
1, 413426, Note_on_c, 0, 91, 70
1, 413426, Note_off_c, 0, 85, 54
1, 413452, Note_on_c, 0, 79, 37
1, 413481, Note_off_c, 0, 91, 61
1, 413485, Note_off_c, 0, 79, 51
1, 413609, Note_on_c, 0, 88, 68
1, 413631, Note_on_c, 0, 76, 43
1, 413724, Control_c, 0, 64, 97
1, 413739, Control_c, 0, 64, 79
1, 413753, Control_c, 0, 64, 68
1, 413768, Control_c, 0, 64, 61
1, 413772, Note_on_c, 0, 62, 38
1, 413783, Control_c, 0, 64, 59
1, 413798, Control_c, 0, 64, 62
1, 413813, Control_c, 0, 64, 66
1, 413828, Control_c, 0, 64, 69
1, 413850, Control_c, 0, 64, 74
1, 413865, Control_c, 0, 64, 78
1, 413879, Control_c, 0, 64, 82
1, 413894, Control_c, 0, 64, 86
1, 413909, Control_c, 0, 64, 89
1, 413924, Control_c, 0, 64, 93
1, 413939, Control_c, 0, 64, 97
1, 413953, Control_c, 0, 64, 100
1, 413968, Control_c, 0, 64, 104
1, 413971, Note_off_c, 0, 88, 58
1, 413977, Note_on_c, 0, 86, 53
1, 413983, Control_c, 0, 64, 107
1, 413998, Control_c, 0, 64, 111
1, 414000, Note_on_c, 0, 67, 31
1, 414006, Note_on_c, 0, 74, 34
1, 414006, Note_off_c, 0, 76, 37
1, 414013, Control_c, 0, 64, 117
1, 414028, Control_c, 0, 64, 122
1, 414034, Note_off_c, 0, 62, 38
1, 414043, Control_c, 0, 64, 127
1, 414072, Note_off_c, 0, 74, 42
1, 414101, Note_off_c, 0, 67, 53
1, 414162, Note_on_c, 0, 90, 59
1, 414184, Note_on_c, 0, 78, 26
1, 414194, Note_off_c, 0, 86, 42
1, 414218, Note_off_c, 0, 90, 54
1, 414220, Note_off_c, 0, 78, 53
1, 414338, Note_on_c, 0, 88, 65
1, 414403, Note_off_c, 0, 88, 61
1, 414520, Note_on_c, 0, 59, 45
1, 414526, Note_on_c, 0, 74, 45
1, 414532, Note_on_c, 0, 86, 52
1, 414532, Control_c, 0, 64, 122
1, 414547, Control_c, 0, 64, 106
1, 414556, Note_off_c, 0, 74, 57
1, 414562, Control_c, 0, 64, 92
1, 414576, Control_c, 0, 64, 81
1, 414599, Control_c, 0, 64, 73
1, 414603, Note_off_c, 0, 86, 60
1, 414614, Control_c, 0, 64, 68
1, 414628, Control_c, 0, 64, 67
1, 414643, Control_c, 0, 64, 68
1, 414658, Control_c, 0, 64, 70
1, 414673, Control_c, 0, 64, 73
1, 414688, Control_c, 0, 64, 77
1, 414697, Note_on_c, 0, 73, 45
1, 414702, Control_c, 0, 64, 81
1, 414711, Note_on_c, 0, 62, 47
1, 414717, Control_c, 0, 64, 86
1, 414728, Note_off_c, 0, 59, 58
1, 414732, Note_on_c, 0, 80, 45
1, 414732, Control_c, 0, 64, 90
1, 414739, Note_off_c, 0, 62, 62
1, 414747, Control_c, 0, 64, 92
1, 414762, Control_c, 0, 64, 96
1, 414773, Note_on_c, 0, 85, 59
1, 414776, Control_c, 0, 64, 99
1, 414791, Control_c, 0, 64, 104
1, 414806, Control_c, 0, 64, 112
1, 414821, Control_c, 0, 64, 127
1, 414846, Note_off_c, 0, 80, 46
1, 414846, Note_off_c, 0, 85, 55
1, 414857, Note_off_c, 0, 73, 43
1, 414968, Note_on_c, 0, 83, 59
1, 414999, Control_c, 0, 67, 119
1, 415014, Control_c, 0, 67, 108
1, 415028, Control_c, 0, 67, 95
1, 415029, Note_off_c, 0, 83, 62
1, 415029, Poly_aftertouch_c, 0, 71, 127
1, 415043, Control_c, 0, 67, 79
1, 415053, Poly_aftertouch_c, 0, 71, 0
1, 415058, Control_c, 0, 67, 67
1, 415073, Control_c, 0, 67, 56
1, 415088, Control_c, 0, 67, 45
1, 415102, Control_c, 0, 67, 36
1, 415117, Control_c, 0, 67, 28
1, 415132, Control_c, 0, 67, 20
1, 415146, Control_c, 0, 67, 0
1, 415176, Control_c, 0, 64, 118
1, 415191, Control_c, 0, 64, 111
1, 415206, Control_c, 0, 64, 104
1, 415222, Control_c, 0, 64, 98
1, 415237, Control_c, 0, 64, 90
1, 415251, Control_c, 0, 64, 79
1, 415266, Control_c, 0, 64, 67
1, 415268, Note_on_c, 0, 33, 44
1, 415281, Control_c, 0, 64, 54
1, 415284, Note_on_c, 0, 76, 26
1, 415296, Control_c, 0, 64, 35
1, 415297, Note_on_c, 0, 88, 23
1, 415311, Control_c, 0, 64, 0
1, 415332, Poly_aftertouch_c, 0, 89, 127
1, 415363, Control_c, 0, 64, 30
1, 415363, Poly_aftertouch_c, 0, 89, 0
1, 415378, Control_c, 0, 64, 44
1, 415393, Control_c, 0, 64, 59
1, 415407, Control_c, 0, 64, 69
1, 415422, Control_c, 0, 64, 89
1, 415437, Control_c, 0, 64, 127
1, 415444, Note_off_c, 0, 33, 63
1, 415511, Control_c, 0, 67, 19
1, 415513, Note_on_c, 0, 81, 48
1, 415569, Note_off_c, 0, 81, 0
1, 415569, Note_on_c, 0, 81, 3
1, 415584, Control_c, 0, 67, 21
1, 415644, Note_off_c, 0, 88, 58
1, 415656, Note_off_c, 0, 76, 39
1, 415686, Note_off_c, 0, 81, 55
1, 415689, Note_on_c, 0, 85, 52
1, 415748, Note_off_c, 0, 85, 51
1, 415832, Note_on_c, 0, 90, 66
1, 415834, Note_on_c, 0, 70, 42
1, 415860, Note_on_c, 0, 78, 36
1, 415995, Note_off_c, 0, 70, 32
1, 416010, Note_on_c, 0, 82, 72
1, 416028, Note_on_c, 0, 73, 42
1, 416065, Note_off_c, 0, 78, 17
1, 416074, Note_off_c, 0, 90, 33
1, 416185, Note_on_c, 0, 85, 64
1, 416187, Note_off_c, 0, 73, 35
1, 416195, Note_on_c, 0, 70, 49
1, 416272, Note_off_c, 0, 82, 37
1, 416344, Note_on_c, 0, 73, 61
1, 416425, Note_off_c, 0, 85, 51
1, 416427, Poly_aftertouch_c, 0, 78, 127
1, 416442, Note_off_c, 0, 70, 41
1, 416451, Note_off_c, 0, 73, 60
1, 416492, Note_on_c, 0, 90, 70
1, 416512, Poly_aftertouch_c, 0, 78, 0
1, 416589, Note_off_c, 0, 90, 59
1, 416715, Note_on_c, 0, 89, 62
1, 416734, Note_on_c, 0, 88, 62
1, 416755, Note_off_c, 0, 88, 59
1, 416767, Note_off_c, 0, 89, 64
1, 416910, Note_on_c, 0, 88, 74
1, 416927, Note_on_c, 0, 76, 62
1, 417009, Note_off_c, 0, 88, 62
1, 417009, Note_off_c, 0, 76, 61
1, 417105, Note_on_c, 0, 86, 77
1, 417119, Note_on_c, 0, 74, 57
1, 417170, Note_off_c, 0, 74, 61
1, 417269, Note_on_c, 0, 85, 80
1, 417283, Note_on_c, 0, 73, 65
1, 417288, Note_off_c, 0, 86, 34
1, 417324, Note_off_c, 0, 73, 56
1, 417342, Note_off_c, 0, 85, 63
1, 417435, Note_on_c, 0, 86, 71
1, 417436, Note_on_c, 0, 74, 54
1, 417450, Note_on_c, 0, 84, 61
1, 417459, Note_off_c, 0, 74, 59
1, 417468, Control_c, 0, 67, 19
1, 417470, Note_off_c, 0, 84, 62
1, 417485, Note_off_c, 0, 86, 63
1, 417598, Note_on_c, 0, 83, 75
1, 417654, Control_c, 0, 64, 90
1, 417668, Note_on_c, 0, 95, 84
1, 417669, Control_c, 0, 64, 67
1, 417669, Control_c, 0, 67, 0
1, 417684, Control_c, 0, 64, 50
1, 417699, Control_c, 0, 64, 0
1, 417743, Control_c, 0, 64, 30
1, 417758, Control_c, 0, 64, 47
1, 417772, Control_c, 0, 64, 62
1, 417787, Control_c, 0, 64, 75
1, 417802, Control_c, 0, 64, 109
1, 417817, Control_c, 0, 64, 127
1, 417843, Note_off_c, 0, 95, 60
1, 417874, Note_off_c, 0, 83, 57
1, 417902, Note_on_c, 0, 65, 45
1, 417914, Note_on_c, 0, 56, 39
1, 418121, Note_off_c, 0, 56, 29
1, 418137, Note_on_c, 0, 81, 73
1, 418147, Note_on_c, 0, 62, 36
1, 418158, Note_on_c, 0, 71, 37
1, 418225, Note_off_c, 0, 71, 57
1, 418260, Note_off_c, 0, 81, 52
1, 418265, Note_off_c, 0, 65, 41
1, 418319, Note_off_c, 0, 62, 36
1, 418326, Note_on_c, 0, 80, 69
1, 418394, Note_off_c, 0, 80, 60
1, 418456, Note_on_c, 0, 79, 68
1, 418487, Note_off_c, 0, 79, 65
1, 418502, Note_on_c, 0, 81, 63
1, 418541, Note_on_c, 0, 79, 65
1, 418580, Control_c, 0, 64, 110
1, 418594, Control_c, 0, 64, 93
1, 418609, Control_c, 0, 64, 76
1, 418624, Control_c, 0, 64, 64
1, 418630, Note_off_c, 0, 81, 38
1, 418639, Control_c, 0, 64, 52
1, 418654, Control_c, 0, 64, 40
1, 418669, Control_c, 0, 64, 31
1, 418684, Control_c, 0, 64, 29
1, 418714, Control_c, 0, 64, 33
1, 418729, Control_c, 0, 64, 42
1, 418743, Control_c, 0, 64, 53
1, 418758, Control_c, 0, 64, 62
1, 418773, Control_c, 0, 64, 67
1, 418787, Note_on_c, 0, 45, 31
1, 418788, Control_c, 0, 64, 72
1, 418802, Control_c, 0, 64, 79
1, 418817, Control_c, 0, 64, 86
1, 418817, Control_c, 0, 67, 19
1, 418832, Control_c, 0, 64, 95
1, 418832, Control_c, 0, 67, 21
1, 418847, Control_c, 0, 64, 109
1, 418847, Control_c, 0, 67, 23
1, 418861, Control_c, 0, 64, 127
1, 418861, Control_c, 0, 67, 25
1, 418876, Control_c, 0, 67, 27
1, 418888, Note_off_c, 0, 45, 37
1, 418891, Control_c, 0, 67, 30
1, 418906, Control_c, 0, 67, 35
1, 418920, Control_c, 0, 67, 44
1, 418935, Control_c, 0, 67, 53
1, 418950, Control_c, 0, 67, 64
1, 418966, Control_c, 0, 67, 75
1, 418981, Control_c, 0, 67, 86
1, 418995, Control_c, 0, 67, 94
1, 419006, Note_on_c, 0, 78, 48
1, 419006, Note_on_c, 0, 55, 31
1, 419010, Control_c, 0, 67, 100
1, 419019, Note_on_c, 0, 61, 37
1, 419025, Control_c, 0, 67, 107
1, 419040, Control_c, 0, 67, 112
1, 419055, Control_c, 0, 67, 117
1, 419058, Note_off_c, 0, 79, 48
1, 419069, Control_c, 0, 67, 121
1, 419092, Control_c, 0, 67, 123
1, 419135, Note_off_c, 0, 61, 51
1, 419171, Note_off_c, 0, 55, 37
1, 419200, Note_off_c, 0, 78, 57
1, 419210, Note_on_c, 0, 76, 56
1, 419389, Note_off_c, 0, 76, 41
1, 419478, Note_on_c, 0, 74, 53
1, 419492, Control_c, 0, 64, 122
1, 419507, Control_c, 0, 64, 109
1, 419522, Control_c, 0, 64, 97
1, 419536, Control_c, 0, 64, 82
1, 419551, Control_c, 0, 64, 70
1, 419566, Control_c, 0, 64, 60
1, 419581, Control_c, 0, 64, 51
1, 419596, Control_c, 0, 64, 47
1, 419611, Control_c, 0, 64, 49
1, 419626, Control_c, 0, 64, 51
1, 419641, Control_c, 0, 64, 54
1, 419644, Note_on_c, 0, 46, 40
1, 419656, Control_c, 0, 64, 59
1, 419670, Control_c, 0, 64, 64
1, 419685, Control_c, 0, 64, 69
1, 419700, Control_c, 0, 64, 77
1, 419715, Control_c, 0, 64, 84
1, 419730, Control_c, 0, 64, 90
1, 419744, Control_c, 0, 64, 96
1, 419759, Control_c, 0, 64, 101
1, 419759, Control_c, 0, 67, 121
1, 419774, Control_c, 0, 64, 107
1, 419775, Note_on_c, 0, 56, 46
1, 419789, Control_c, 0, 64, 119
1, 419804, Control_c, 0, 64, 127
1, 419804, Control_c, 0, 67, 119
1, 419805, Note_off_c, 0, 46, 43
1, 419867, Note_off_c, 0, 56, 58
1, 419885, Control_c, 0, 67, 117
1, 419910, Note_on_c, 0, 62, 36
1, 419956, Note_off_c, 0, 62, 55
1, 419959, Control_c, 0, 67, 115
1, 420010, Note_on_c, 0, 56, 50
1, 420034, Control_c, 0, 67, 113
1, 420085, Note_on_c, 0, 62, 46
1, 420123, Control_c, 0, 67, 111
1, 420156, Note_off_c, 0, 62, 50
1, 420191, Note_off_c, 0, 56, 31
1, 420213, Note_on_c, 0, 66, 48
1, 420349, Note_off_c, 0, 66, 56
1, 420407, Note_off_c, 0, 74, 34
1, 420422, Note_on_c, 0, 62, 44
1, 420499, Note_off_c, 0, 62, 46
1, 420575, Note_on_c, 0, 76, 63
1, 420589, Note_on_c, 0, 56, 50
1, 420657, Note_off_c, 0, 56, 49
1, 420735, Note_on_c, 0, 77, 66
1, 420737, Note_off_c, 0, 76, 34
1, 420753, Note_on_c, 0, 46, 32
1, 420797, Control_c, 0, 64, 118
1, 420801, Note_off_c, 0, 46, 48
1, 420803, Note_off_c, 0, 77, 59
1, 420812, Control_c, 0, 64, 111
1, 420827, Control_c, 0, 64, 106
1, 420842, Control_c, 0, 64, 101
1, 420857, Control_c, 0, 64, 96
1, 420872, Control_c, 0, 64, 92
1, 420887, Control_c, 0, 64, 88
1, 420902, Control_c, 0, 64, 85
1, 420917, Control_c, 0, 64, 82
1, 420924, Note_on_c, 0, 78, 69
1, 420931, Control_c, 0, 64, 79
1, 420946, Control_c, 0, 64, 73
1, 420957, Note_on_c, 0, 69, 33
1, 420961, Control_c, 0, 64, 66
1, 420976, Control_c, 0, 64, 58
1, 420990, Control_c, 0, 64, 46
1, 421005, Control_c, 0, 64, 39
1, 421020, Control_c, 0, 64, 38
1, 421035, Control_c, 0, 64, 38
1, 421050, Control_c, 0, 64, 40
1, 421064, Control_c, 0, 64, 43
1, 421079, Control_c, 0, 64, 49
1, 421092, Note_on_c, 0, 45, 45
1, 421094, Control_c, 0, 64, 57
1, 421108, Control_c, 0, 64, 61
1, 421123, Control_c, 0, 64, 64
1, 421138, Control_c, 0, 64, 66
1, 421153, Control_c, 0, 64, 68
1, 421168, Control_c, 0, 64, 71
1, 421182, Control_c, 0, 64, 74
1, 421192, Note_off_c, 0, 45, 40
1, 421197, Note_off_c, 0, 69, 40
1, 421197, Control_c, 0, 64, 76
1, 421213, Control_c, 0, 64, 77
1, 421228, Control_c, 0, 64, 78
1, 421243, Control_c, 0, 64, 78
1, 421256, Note_on_c, 0, 73, 63
1, 421257, Control_c, 0, 64, 79
1, 421271, Note_on_c, 0, 55, 36
1, 421272, Control_c, 0, 64, 80
1, 421276, Note_on_c, 0, 70, 44
1, 421285, Note_off_c, 0, 78, 56
1, 421287, Control_c, 0, 64, 81
1, 421294, Note_on_c, 0, 61, 34
1, 421302, Control_c, 0, 64, 82
1, 421316, Control_c, 0, 64, 83
1, 421339, Control_c, 0, 64, 84
1, 421354, Control_c, 0, 64, 84
1, 421369, Control_c, 0, 64, 85
1, 421398, Control_c, 0, 64, 85
1, 421458, Note_off_c, 0, 61, 26
1, 421458, Control_c, 0, 64, 85
1, 421477, Note_off_c, 0, 55, 36
1, 421483, Note_off_c, 0, 70, 40
1, 421487, Control_c, 0, 64, 84
1, 421502, Control_c, 0, 64, 84
1, 421516, Control_c, 0, 64, 83
1, 421531, Control_c, 0, 64, 81
1, 421546, Control_c, 0, 64, 79
1, 421561, Control_c, 0, 64, 75
1, 421576, Control_c, 0, 64, 70
1, 421577, Note_on_c, 0, 74, 65
1, 421590, Control_c, 0, 64, 62
1, 421596, Note_on_c, 0, 69, 37
1, 421605, Control_c, 0, 64, 48
1, 421621, Control_c, 0, 64, 0
1, 421624, Note_off_c, 0, 73, 54
1, 421672, Note_on_c, 0, 46, 47
1, 421725, Control_c, 0, 64, 43
1, 421739, Control_c, 0, 64, 57
1, 421754, Control_c, 0, 64, 63
1, 421769, Control_c, 0, 64, 65
1, 421781, Note_on_c, 0, 56, 50
1, 421784, Control_c, 0, 64, 67
1, 421799, Control_c, 0, 64, 69
1, 421814, Control_c, 0, 64, 72
1, 421817, Note_off_c, 0, 46, 57
1, 421826, Note_off_c, 0, 69, 52
1, 421829, Control_c, 0, 64, 75
1, 421844, Control_c, 0, 64, 78
1, 421855, Note_off_c, 0, 56, 59
1, 421858, Control_c, 0, 64, 81
1, 421873, Control_c, 0, 64, 84
1, 421876, Note_on_c, 0, 62, 48
1, 421884, Note_on_c, 0, 68, 59
1, 421888, Control_c, 0, 64, 88
1, 421903, Control_c, 0, 64, 92
1, 421918, Control_c, 0, 64, 96
1, 421925, Note_off_c, 0, 62, 59
1, 421932, Control_c, 0, 64, 98
1, 421976, Note_on_c, 0, 56, 52
1, 421976, Control_c, 0, 64, 100
1, 422022, Note_off_c, 0, 56, 56
1, 422043, Note_on_c, 0, 62, 55
1, 422050, Control_c, 0, 67, 109
1, 422065, Control_c, 0, 67, 106
1, 422087, Control_c, 0, 67, 100
1, 422102, Control_c, 0, 67, 93
1, 422117, Control_c, 0, 64, 96
1, 422117, Control_c, 0, 67, 85
1, 422132, Control_c, 0, 64, 88
1, 422132, Control_c, 0, 67, 77
1, 422146, Control_c, 0, 64, 77
1, 422146, Control_c, 0, 67, 70
1, 422161, Control_c, 0, 64, 67
1, 422161, Control_c, 0, 67, 63
1, 422176, Control_c, 0, 64, 59
1, 422176, Control_c, 0, 67, 55
1, 422183, Note_off_c, 0, 74, 36
1, 422191, Control_c, 0, 64, 50
1, 422191, Control_c, 0, 67, 49
1, 422192, Note_on_c, 0, 67, 64
1, 422201, Note_on_c, 0, 55, 45
1, 422206, Control_c, 0, 64, 49
1, 422206, Control_c, 0, 67, 43
1, 422220, Control_c, 0, 64, 50
1, 422220, Control_c, 0, 67, 38
1, 422235, Control_c, 0, 64, 53
1, 422235, Control_c, 0, 67, 32
1, 422246, Note_off_c, 0, 68, 62
1, 422250, Control_c, 0, 64, 57
1, 422250, Control_c, 0, 67, 27
1, 422265, Control_c, 0, 64, 60
1, 422265, Control_c, 0, 67, 22
1, 422280, Control_c, 0, 64, 62
1, 422280, Control_c, 0, 67, 0
1, 422294, Control_c, 0, 64, 64
1, 422309, Control_c, 0, 64, 67
1, 422324, Control_c, 0, 64, 69
1, 422338, Control_c, 0, 64, 72
1, 422353, Control_c, 0, 64, 75
1, 422362, Note_on_c, 0, 47, 52
1, 422368, Control_c, 0, 64, 77
1, 422383, Control_c, 0, 64, 80
1, 422398, Control_c, 0, 64, 83
1, 422414, Control_c, 0, 64, 86
1, 422428, Control_c, 0, 64, 88
1, 422443, Control_c, 0, 64, 90
1, 422458, Control_c, 0, 64, 91
1, 422466, Note_off_c, 0, 62, 41
1, 422473, Control_c, 0, 64, 91
1, 422488, Control_c, 0, 64, 92
1, 422490, Note_off_c, 0, 47, 62
1, 422502, Control_c, 0, 64, 93
1, 422510, Note_on_c, 0, 76, 76
1, 422512, Note_off_c, 0, 67, 32
1, 422517, Control_c, 0, 64, 94
1, 422523, Note_off_c, 0, 55, 55
1, 422547, Control_c, 0, 64, 94
1, 422562, Control_c, 0, 64, 95
1, 422577, Control_c, 0, 64, 95
1, 422589, Note_off_c, 0, 76, 60
1, 422646, Note_on_c, 0, 78, 80
1, 422740, Control_c, 0, 64, 95
1, 422757, Note_off_c, 0, 78, 58
1, 422769, Control_c, 0, 64, 94
1, 422784, Control_c, 0, 64, 91
1, 422799, Control_c, 0, 64, 86
1, 422814, Control_c, 0, 64, 79
1, 422815, Note_on_c, 0, 79, 83
1, 422836, Control_c, 0, 64, 70
1, 422840, Note_on_c, 0, 71, 57
1, 422851, Control_c, 0, 64, 58
1, 422866, Control_c, 0, 64, 0
1, 422976, Note_on_c, 0, 47, 52
1, 422984, Control_c, 0, 64, 41
1, 422999, Control_c, 0, 64, 57
1, 423014, Control_c, 0, 64, 64
1, 423029, Control_c, 0, 64, 68
1, 423043, Control_c, 0, 64, 70
1, 423058, Control_c, 0, 64, 72
1, 423073, Control_c, 0, 64, 74
1, 423087, Control_c, 0, 64, 78
1, 423102, Control_c, 0, 64, 80
1, 423117, Control_c, 0, 64, 82
1, 423129, Note_on_c, 0, 75, 74
1, 423132, Control_c, 0, 64, 84
1, 423138, Note_off_c, 0, 47, 37
1, 423143, Note_on_c, 0, 63, 54
1, 423147, Control_c, 0, 64, 87
1, 423149, Note_off_c, 0, 71, 30
1, 423150, Note_on_c, 0, 72, 58
1, 423161, Control_c, 0, 64, 90
1, 423167, Note_off_c, 0, 79, 64
1, 423174, Note_on_c, 0, 57, 27
1, 423176, Control_c, 0, 64, 94
1, 423191, Control_c, 0, 64, 99
1, 423207, Control_c, 0, 64, 104
1, 423222, Control_c, 0, 64, 107
1, 423237, Control_c, 0, 64, 110
1, 423246, Note_off_c, 0, 57, 38
1, 423251, Control_c, 0, 64, 112
1, 423281, Control_c, 0, 64, 114
1, 423311, Note_off_c, 0, 63, 37
1, 423346, Note_off_c, 0, 72, 39
1, 423385, Control_c, 0, 64, 112
1, 423400, Control_c, 0, 64, 107
1, 423414, Note_on_c, 0, 76, 80
1, 423414, Control_c, 0, 64, 97
1, 423429, Control_c, 0, 64, 84
1, 423431, Note_on_c, 0, 71, 54
1, 423444, Control_c, 0, 64, 72
1, 423459, Control_c, 0, 64, 63
1, 423459, Note_off_c, 0, 75, 52
1, 423474, Control_c, 0, 64, 54
1, 423489, Control_c, 0, 64, 48
1, 423503, Control_c, 0, 64, 48
1, 423518, Control_c, 0, 64, 51
1, 423533, Control_c, 0, 64, 55
1, 423540, Note_on_c, 0, 48, 50
1, 423548, Control_c, 0, 64, 58
1, 423563, Control_c, 0, 64, 60
1, 423584, Control_c, 0, 64, 63
1, 423599, Control_c, 0, 64, 65
1, 423614, Control_c, 0, 64, 67
1, 423629, Note_on_c, 0, 58, 56
1, 423629, Control_c, 0, 64, 70
1, 423644, Control_c, 0, 64, 73
1, 423659, Control_c, 0, 64, 76
1, 423674, Control_c, 0, 64, 78
1, 423683, Note_off_c, 0, 71, 38
1, 423689, Control_c, 0, 64, 80
1, 423699, Note_on_c, 0, 70, 71
1, 423704, Control_c, 0, 64, 80
1, 423715, Note_off_c, 0, 58, 63
1, 423718, Control_c, 0, 64, 81
1, 423723, Note_on_c, 0, 64, 55
1, 423788, Note_off_c, 0, 64, 57
1, 423818, Note_on_c, 0, 58, 68
1, 423881, Control_c, 0, 64, 80
1, 423909, Note_on_c, 0, 64, 65
1, 423910, Note_off_c, 0, 58, 60
1, 423910, Control_c, 0, 64, 80
1, 423925, Control_c, 0, 64, 79
1, 423940, Control_c, 0, 64, 77
1, 423955, Control_c, 0, 64, 74
1, 423970, Control_c, 0, 64, 67
1, 423984, Note_on_c, 0, 69, 73
1, 423984, Control_c, 0, 64, 57
1, 423987, Note_off_c, 0, 76, 54
1, 423993, Note_off_c, 0, 48, 36
1, 423999, Control_c, 0, 64, 43
1, 424015, Control_c, 0, 64, 0
1, 424036, Note_on_c, 0, 57, 52
1, 424058, Note_off_c, 0, 70, 62
1, 424089, Control_c, 0, 64, 34
1, 424104, Control_c, 0, 64, 46
1, 424119, Control_c, 0, 64, 57
1, 424133, Control_c, 0, 64, 64
1, 424148, Note_on_c, 0, 49, 69
1, 424148, Control_c, 0, 64, 67
1, 424163, Control_c, 0, 64, 69
1, 424178, Control_c, 0, 64, 71
1, 424193, Control_c, 0, 64, 73
1, 424208, Control_c, 0, 64, 77
1, 424212, Note_off_c, 0, 69, 59
1, 424223, Control_c, 0, 64, 83
1, 424238, Control_c, 0, 64, 90
1, 424253, Control_c, 0, 64, 98
1, 424257, Note_off_c, 0, 64, 35
1, 424268, Control_c, 0, 64, 107
1, 424282, Control_c, 0, 64, 125
1, 424288, Note_on_c, 0, 78, 81
1, 424297, Control_c, 0, 64, 127
1, 424307, Note_off_c, 0, 49, 52
1, 424320, Note_off_c, 0, 57, 60
1, 424440, Note_on_c, 0, 80, 85
1, 424492, Note_off_c, 0, 78, 55
1, 424601, Control_c, 0, 64, 88
1, 424616, Control_c, 0, 64, 69
1, 424617, Note_on_c, 0, 81, 86
1, 424630, Note_on_c, 0, 73, 74
1, 424631, Control_c, 0, 64, 54
1, 424646, Control_c, 0, 64, 34
1, 424660, Note_off_c, 0, 80, 58
1, 424660, Control_c, 0, 64, 0
1, 424667, Note_on_c, 0, 49, 49
1, 424675, Control_c, 0, 64, 30
1, 424690, Control_c, 0, 64, 42
1, 424705, Control_c, 0, 64, 52
1, 424720, Control_c, 0, 64, 59
1, 424734, Control_c, 0, 64, 63
1, 424749, Control_c, 0, 64, 66
1, 424764, Control_c, 0, 64, 70
1, 424771, Note_off_c, 0, 49, 57
1, 424779, Note_on_c, 0, 59, 56
1, 424779, Control_c, 0, 64, 74
1, 424794, Control_c, 0, 64, 78
1, 424810, Control_c, 0, 64, 83
1, 424824, Control_c, 0, 64, 88
1, 424839, Control_c, 0, 64, 93
1, 424854, Control_c, 0, 64, 98
1, 424860, Note_off_c, 0, 59, 61
1, 424869, Control_c, 0, 64, 104
1, 424875, Note_on_c, 0, 65, 59
1, 424883, Control_c, 0, 64, 110
1, 424898, Control_c, 0, 64, 117
1, 424904, Note_on_c, 0, 77, 79
1, 424913, Control_c, 0, 64, 125
1, 424928, Control_c, 0, 64, 127
1, 424931, Note_off_c, 0, 81, 60
1, 424935, Note_off_c, 0, 65, 57
1, 424937, Note_on_c, 0, 74, 44
1, 424949, Note_off_c, 0, 73, 48
1, 424965, Note_on_c, 0, 59, 55
1, 424974, Note_off_c, 0, 74, 48
1, 425039, Note_off_c, 0, 59, 60
1, 425054, Note_on_c, 0, 65, 64
1, 425143, Control_c, 0, 64, 116
1, 425157, Control_c, 0, 64, 110
1, 425172, Control_c, 0, 64, 105
1, 425176, Note_off_c, 0, 65, 38
1, 425187, Control_c, 0, 64, 98
1, 425202, Control_c, 0, 64, 91
1, 425217, Control_c, 0, 64, 84
1, 425231, Control_c, 0, 64, 76
1, 425239, Note_on_c, 0, 78, 80
1, 425243, Note_on_c, 0, 50, 51
1, 425246, Control_c, 0, 64, 68
1, 425251, Note_on_c, 0, 73, 59
1, 425261, Control_c, 0, 64, 58
1, 425272, Note_off_c, 0, 77, 60
1, 425276, Control_c, 0, 64, 35
1, 425290, Control_c, 0, 64, 0
1, 425379, Control_c, 0, 64, 37
1, 425394, Control_c, 0, 64, 53
1, 425409, Control_c, 0, 64, 62
1, 425424, Control_c, 0, 64, 66
1, 425427, Note_on_c, 0, 57, 49
1, 425439, Control_c, 0, 64, 69
1, 425453, Control_c, 0, 64, 71
1, 425468, Control_c, 0, 64, 72
1, 425472, Note_off_c, 0, 50, 38
1, 425483, Control_c, 0, 64, 75
1, 425498, Control_c, 0, 64, 77
1, 425513, Control_c, 0, 64, 79
1, 425528, Control_c, 0, 64, 82
1, 425543, Control_c, 0, 64, 85
1, 425557, Control_c, 0, 64, 87
1, 425572, Control_c, 0, 64, 91
1, 425587, Control_c, 0, 64, 94
1, 425591, Note_on_c, 0, 68, 61
1, 425602, Control_c, 0, 64, 97
1, 425611, Note_off_c, 0, 73, 59
1, 425615, Note_on_c, 0, 66, 38
1, 425617, Control_c, 0, 64, 100
1, 425647, Control_c, 0, 64, 103
1, 425671, Note_off_c, 0, 57, 38
1, 425676, Note_off_c, 0, 66, 44
1, 425677, Control_c, 0, 64, 107
1, 425721, Control_c, 0, 64, 109
1, 425877, Control_c, 0, 64, 107
1, 425892, Control_c, 0, 64, 96
1, 425903, Note_on_c, 0, 69, 60
1, 425906, Control_c, 0, 64, 82
1, 425921, Control_c, 0, 64, 71
1, 425936, Control_c, 0, 64, 63
1, 425951, Control_c, 0, 64, 58
1, 425966, Control_c, 0, 64, 59
1, 425980, Control_c, 0, 64, 63
1, 425995, Control_c, 0, 64, 66
1, 426010, Control_c, 0, 64, 71
1, 426017, Note_on_c, 0, 45, 43
1, 426024, Control_c, 0, 64, 75
1, 426026, Note_off_c, 0, 78, 55
1, 426039, Control_c, 0, 64, 79
1, 426054, Control_c, 0, 64, 83
1, 426062, Note_off_c, 0, 45, 49
1, 426069, Control_c, 0, 64, 85
1, 426078, Note_off_c, 0, 68, 37
1, 426084, Control_c, 0, 64, 87
1, 426097, Note_on_c, 0, 55, 51
1, 426098, Control_c, 0, 64, 88
1, 426113, Control_c, 0, 64, 89
1, 426128, Control_c, 0, 64, 90
1, 426143, Control_c, 0, 64, 90
1, 426158, Control_c, 0, 64, 91
1, 426162, Note_off_c, 0, 69, 37
1, 426172, Control_c, 0, 64, 91
1, 426178, Note_off_c, 0, 55, 61
1, 426195, Note_on_c, 0, 73, 62
1, 426199, Note_on_c, 0, 61, 47
1, 426206, Note_on_c, 0, 70, 47
1, 426243, Note_off_c, 0, 61, 59
1, 426306, Note_on_c, 0, 55, 45
1, 426369, Note_on_c, 0, 61, 50
1, 426380, Control_c, 0, 64, 91
1, 426386, Note_off_c, 0, 55, 49
1, 426395, Control_c, 0, 64, 90
1, 426410, Control_c, 0, 64, 90
1, 426425, Control_c, 0, 64, 89
1, 426440, Control_c, 0, 64, 88
1, 426455, Control_c, 0, 64, 87
1, 426470, Control_c, 0, 64, 84
1, 426485, Control_c, 0, 64, 77
1, 426500, Control_c, 0, 64, 68
1, 426502, Note_off_c, 0, 61, 33
1, 426508, Note_on_c, 0, 74, 62
1, 426513, Note_on_c, 0, 46, 45
1, 426515, Control_c, 0, 64, 60
1, 426529, Control_c, 0, 64, 50
1, 426532, Note_on_c, 0, 69, 37
1, 426544, Control_c, 0, 64, 43
1, 426558, Note_off_c, 0, 70, 39
1, 426559, Control_c, 0, 64, 42
1, 426581, Control_c, 0, 64, 46
1, 426583, Note_off_c, 0, 73, 46
1, 426596, Control_c, 0, 64, 49
1, 426610, Control_c, 0, 64, 53
1, 426625, Control_c, 0, 64, 56
1, 426640, Control_c, 0, 64, 59
1, 426655, Control_c, 0, 64, 61
1, 426670, Control_c, 0, 64, 64
1, 426677, Note_on_c, 0, 53, 38
1, 426685, Control_c, 0, 64, 66
1, 426699, Control_c, 0, 64, 68
1, 426705, Note_off_c, 0, 46, 46
1, 426714, Control_c, 0, 64, 70
1, 426729, Control_c, 0, 64, 72
1, 426744, Control_c, 0, 64, 73
1, 426759, Control_c, 0, 64, 74
1, 426774, Control_c, 0, 64, 74
1, 426818, Control_c, 0, 64, 75
1, 426818, Control_c, 0, 67, 19
1, 426824, Note_on_c, 0, 64, 44
1, 426830, Note_off_c, 0, 53, 41
1, 426833, Control_c, 0, 67, 21
1, 426841, Note_on_c, 0, 62, 34
1, 426862, Control_c, 0, 67, 24
1, 426877, Control_c, 0, 67, 27
1, 426879, Note_off_c, 0, 69, 59
1, 426892, Control_c, 0, 67, 29
1, 426902, Note_off_c, 0, 62, 57
1, 426907, Control_c, 0, 67, 31
1, 426922, Control_c, 0, 67, 33
1, 426936, Control_c, 0, 67, 35
1, 427084, Control_c, 0, 67, 34
1, 427099, Control_c, 0, 64, 74
1, 427114, Control_c, 0, 64, 72
1, 427129, Control_c, 0, 64, 67
1, 427143, Note_on_c, 0, 65, 46
1, 427144, Control_c, 0, 64, 62
1, 427159, Control_c, 0, 64, 56
1, 427173, Control_c, 0, 64, 51
1, 427188, Control_c, 0, 64, 52
1, 427203, Control_c, 0, 64, 54
1, 427203, Control_c, 0, 67, 34
1, 427218, Control_c, 0, 64, 57
1, 427233, Control_c, 0, 64, 60
1, 427245, Note_on_c, 0, 41, 33
1, 427246, Note_off_c, 0, 74, 32
1, 427248, Control_c, 0, 64, 63
1, 427263, Control_c, 0, 64, 66
1, 427277, Control_c, 0, 64, 70
1, 427292, Control_c, 0, 64, 73
1, 427307, Control_c, 0, 64, 75
1, 427308, Note_off_c, 0, 41, 53
1, 427308, Note_off_c, 0, 64, 34
1, 427324, Note_off_c, 0, 65, 58
1, 427329, Control_c, 0, 64, 77
1, 427329, Control_c, 0, 67, 34
1, 427344, Control_c, 0, 64, 78
1, 427352, Note_on_c, 0, 51, 43
1, 427358, Control_c, 0, 64, 79
1, 427358, Control_c, 0, 67, 35
1, 427373, Control_c, 0, 64, 79
1, 427373, Control_c, 0, 67, 35
1, 427388, Control_c, 0, 67, 36
1, 427403, Control_c, 0, 67, 37
1, 427410, Note_off_c, 0, 51, 58
1, 427418, Control_c, 0, 64, 80
1, 427418, Control_c, 0, 67, 38
1, 427433, Control_c, 0, 67, 43
1, 427439, Note_on_c, 0, 69, 51
1, 427448, Control_c, 0, 67, 48
1, 427457, Note_on_c, 0, 57, 38
1, 427463, Control_c, 0, 67, 53
1, 427471, Note_on_c, 0, 66, 23
1, 427477, Control_c, 0, 67, 55
1, 427492, Control_c, 0, 67, 56
1, 427501, Note_off_c, 0, 57, 49
1, 427531, Note_on_c, 0, 51, 47
1, 427551, Control_c, 0, 64, 79
1, 427576, Note_off_c, 0, 66, 27
1, 427581, Control_c, 0, 64, 79
1, 427584, Note_off_c, 0, 51, 54
1, 427611, Control_c, 0, 64, 78
1, 427612, Note_on_c, 0, 57, 40
1, 427640, Control_c, 0, 64, 78
1, 427655, Control_c, 0, 64, 77
1, 427670, Control_c, 0, 64, 76
1, 427684, Control_c, 0, 64, 76
1, 427699, Control_c, 0, 64, 75
1, 427714, Control_c, 0, 64, 73
1, 427729, Control_c, 0, 64, 70
1, 427744, Control_c, 0, 64, 65
1, 427749, Note_off_c, 0, 57, 27
1, 427757, Note_on_c, 0, 42, 40
1, 427757, Note_on_c, 0, 70, 54
1, 427758, Control_c, 0, 64, 59
1, 427764, Note_on_c, 0, 65, 38
1, 427773, Control_c, 0, 64, 50
1, 427788, Control_c, 0, 64, 45
1, 427802, Control_c, 0, 67, 57
1, 427803, Note_off_c, 0, 69, 46
1, 427817, Control_c, 0, 64, 46
1, 427817, Control_c, 0, 67, 57
1, 427832, Control_c, 0, 64, 48
1, 427832, Control_c, 0, 67, 58
1, 427847, Control_c, 0, 64, 50
1, 427847, Control_c, 0, 67, 58
1, 427862, Control_c, 0, 64, 53
1, 427862, Control_c, 0, 67, 63
1, 427877, Control_c, 0, 64, 57
1, 427877, Control_c, 0, 67, 69
1, 427892, Control_c, 0, 64, 60
1, 427892, Control_c, 0, 67, 76
1, 427907, Control_c, 0, 64, 63
1, 427907, Control_c, 0, 67, 83
1, 427918, Note_on_c, 0, 49, 41
1, 427922, Control_c, 0, 64, 65
1, 427922, Control_c, 0, 67, 91
1, 427928, Note_off_c, 0, 42, 43
1, 427937, Control_c, 0, 64, 67
1, 427937, Control_c, 0, 67, 99
1, 427951, Control_c, 0, 64, 69
1, 427951, Control_c, 0, 67, 106
1, 427966, Control_c, 0, 64, 72
1, 427966, Control_c, 0, 67, 111
1, 427981, Control_c, 0, 64, 73
1, 427981, Control_c, 0, 67, 116
1, 427996, Control_c, 0, 64, 75
1, 427996, Control_c, 0, 67, 118
1, 428011, Control_c, 0, 64, 76
1, 428026, Control_c, 0, 64, 76
1, 428041, Control_c, 0, 64, 77
1, 428068, Note_on_c, 0, 60, 40
1, 428078, Control_c, 0, 64, 77
1, 428087, Note_on_c, 0, 58, 41
1, 428093, Control_c, 0, 64, 78
1, 428147, Note_off_c, 0, 58, 55
1, 428159, Note_off_c, 0, 65, 41
1, 428178, Note_off_c, 0, 49, 52
1, 428315, Control_c, 0, 64, 77
1, 428330, Control_c, 0, 64, 77
1, 428345, Control_c, 0, 64, 76
1, 428360, Control_c, 0, 64, 75
1, 428374, Control_c, 0, 64, 70
1, 428389, Control_c, 0, 64, 65
1, 428397, Note_on_c, 0, 61, 45
1, 428404, Control_c, 0, 64, 60
1, 428419, Control_c, 0, 64, 57
1, 428433, Control_c, 0, 64, 56
1, 428448, Control_c, 0, 64, 58
1, 428463, Control_c, 0, 64, 61
1, 428478, Control_c, 0, 64, 64
1, 428493, Control_c, 0, 64, 66
1, 428496, Note_off_c, 0, 60, 46
1, 428503, Note_on_c, 0, 37, 28
1, 428507, Control_c, 0, 64, 69
1, 428522, Control_c, 0, 64, 72
1, 428522, Control_c, 0, 67, 120
1, 428537, Control_c, 0, 64, 74
1, 428552, Control_c, 0, 64, 76
1, 428565, Note_off_c, 0, 70, 36
1, 428567, Control_c, 0, 64, 77
1, 428570, Note_off_c, 0, 37, 41
1, 428581, Control_c, 0, 64, 77
1, 428600, Note_on_c, 0, 47, 44
1, 428610, Note_off_c, 0, 61, 47
1, 428625, Control_c, 0, 64, 78
1, 428664, Note_off_c, 0, 47, 57
1, 428699, Note_on_c, 0, 65, 49
1, 428705, Note_on_c, 0, 53, 33
1, 428733, Note_on_c, 0, 62, 28
1, 428744, Note_off_c, 0, 53, 55
1, 428801, Note_on_c, 0, 47, 41
1, 428827, Control_c, 0, 64, 77
1, 428854, Note_off_c, 0, 62, 47
1, 428855, Note_off_c, 0, 47, 60
1, 428856, Control_c, 0, 64, 77
1, 428871, Control_c, 0, 64, 76
1, 428885, Note_on_c, 0, 53, 38
1, 428886, Control_c, 0, 64, 76
1, 428901, Control_c, 0, 64, 75
1, 428916, Control_c, 0, 64, 75
1, 428923, Note_off_c, 0, 65, 54
1, 428945, Control_c, 0, 64, 74
1, 428951, Note_off_c, 0, 53, 48
1, 428960, Control_c, 0, 64, 74
1, 428975, Control_c, 0, 64, 73
1, 428990, Control_c, 0, 64, 72
1, 429004, Control_c, 0, 64, 71
1, 429019, Control_c, 0, 64, 70
1, 429034, Note_on_c, 0, 66, 49
1, 429034, Control_c, 0, 64, 69
1, 429048, Control_c, 0, 64, 69
1, 429054, Note_on_c, 0, 61, 27
1, 429059, Note_on_c, 0, 38, 36
1, 429063, Control_c, 0, 64, 66
1, 429078, Control_c, 0, 64, 63
1, 429093, Control_c, 0, 64, 58
1, 429108, Control_c, 0, 64, 53
1, 429123, Control_c, 0, 64, 50
1, 429153, Control_c, 0, 64, 50
1, 429168, Control_c, 0, 64, 52
1, 429183, Control_c, 0, 64, 53
1, 429197, Control_c, 0, 64, 56
1, 429212, Control_c, 0, 64, 59
1, 429216, Note_on_c, 0, 45, 31
1, 429227, Control_c, 0, 64, 61
1, 429242, Control_c, 0, 64, 63
1, 429256, Control_c, 0, 64, 64
1, 429261, Note_off_c, 0, 38, 41
1, 429263, Note_off_c, 0, 61, 51
1, 429271, Control_c, 0, 64, 66
1, 429286, Control_c, 0, 64, 68
1, 429301, Control_c, 0, 64, 70
1, 429316, Control_c, 0, 64, 72
1, 429330, Control_c, 0, 64, 73
1, 429345, Control_c, 0, 64, 74
1, 429360, Control_c, 0, 64, 75
1, 429407, Note_on_c, 0, 56, 43
1, 429428, Note_on_c, 0, 54, 31
1, 429434, Control_c, 0, 64, 75
1, 429493, Control_c, 0, 64, 76
1, 429641, Note_off_c, 0, 54, 42
1, 429642, Note_off_c, 0, 45, 22
1, 429644, Note_off_c, 0, 56, 32
1, 429679, Control_c, 0, 64, 75
1, 429724, Control_c, 0, 64, 75
1, 429753, Control_c, 0, 64, 74
1, 429783, Control_c, 0, 64, 74
1, 429797, Control_c, 0, 64, 73
1, 429808, Note_on_c, 0, 57, 38
1, 429812, Control_c, 0, 64, 73
1, 429827, Control_c, 0, 64, 71
1, 429842, Control_c, 0, 64, 67
1, 429857, Control_c, 0, 64, 62
1, 429871, Control_c, 0, 64, 55
1, 429886, Control_c, 0, 64, 52
1, 429901, Control_c, 0, 64, 53
1, 429916, Control_c, 0, 64, 55
1, 429931, Control_c, 0, 64, 58
1, 429946, Control_c, 0, 64, 61
1, 429961, Control_c, 0, 64, 64
1, 429975, Control_c, 0, 64, 66
1, 429990, Control_c, 0, 64, 68
1, 430005, Control_c, 0, 64, 71
1, 430020, Control_c, 0, 64, 73
1, 430035, Control_c, 0, 64, 75
1, 430038, Note_on_c, 0, 38, 33
1, 430048, Note_off_c, 0, 66, 49
1, 430050, Control_c, 0, 64, 76
1, 430065, Control_c, 0, 64, 77
1, 430094, Control_c, 0, 64, 77
1, 430123, Note_off_c, 0, 57, 33
1, 430135, Note_off_c, 0, 38, 53
1, 430212, Control_c, 0, 64, 78
1, 430228, Note_on_c, 0, 61, 43
1, 430256, Note_on_c, 0, 54, 24
1, 430306, Poly_aftertouch_c, 0, 58, 127
1, 430377, Poly_aftertouch_c, 0, 58, 0
1, 430415, Note_on_c, 0, 46, 36
1, 430443, Control_c, 0, 64, 77
1, 430472, Note_off_c, 0, 54, 29
1, 430473, Control_c, 0, 64, 77
1, 430517, Control_c, 0, 64, 76
1, 430547, Control_c, 0, 64, 76
1, 430562, Control_c, 0, 64, 74
1, 430576, Control_c, 0, 64, 72
1, 430591, Control_c, 0, 64, 69
1, 430606, Note_on_c, 0, 64, 44
1, 430606, Control_c, 0, 64, 65
1, 430620, Control_c, 0, 64, 62
1, 430627, Note_on_c, 0, 55, 31
1, 430630, Note_off_c, 0, 46, 42
1, 430635, Control_c, 0, 64, 59
1, 430650, Control_c, 0, 64, 59
1, 430665, Control_c, 0, 64, 59
1, 430680, Control_c, 0, 64, 60
1, 430680, Control_c, 0, 67, 117
1, 430694, Control_c, 0, 64, 61
1, 430709, Control_c, 0, 64, 62
1, 430709, Control_c, 0, 67, 115
1, 430724, Control_c, 0, 64, 64
1, 430739, Control_c, 0, 64, 65
1, 430754, Control_c, 0, 64, 67
1, 430754, Control_c, 0, 67, 113
1, 430768, Control_c, 0, 64, 70
1, 430783, Control_c, 0, 64, 72
1, 430795, Note_off_c, 0, 55, 42
1, 430798, Control_c, 0, 64, 73
1, 430813, Control_c, 0, 64, 74
1, 430813, Control_c, 0, 67, 111
1, 430828, Note_on_c, 0, 59, 35
1, 430828, Control_c, 0, 64, 75
1, 430843, Control_c, 0, 64, 76
1, 430858, Control_c, 0, 64, 76
1, 430868, Note_off_c, 0, 61, 7
1, 430887, Control_c, 0, 64, 76
1, 430902, Control_c, 0, 64, 75
1, 430917, Control_c, 0, 64, 72
1, 430932, Control_c, 0, 64, 68
1, 430947, Control_c, 0, 64, 65
1, 430962, Control_c, 0, 64, 62
1, 430968, Note_on_c, 0, 62, 53
1, 430976, Control_c, 0, 64, 61
1, 430976, Control_c, 0, 67, 109
1, 430987, Note_on_c, 0, 47, 35
1, 430991, Control_c, 0, 64, 61
1, 431006, Control_c, 0, 64, 62
1, 431020, Control_c, 0, 64, 63
1, 431025, Note_off_c, 0, 59, 44
1, 431035, Control_c, 0, 64, 65
1, 431035, Control_c, 0, 67, 107
1, 431050, Control_c, 0, 64, 67
1, 431072, Control_c, 0, 64, 69
1, 431078, Note_off_c, 0, 64, 30
1, 431087, Control_c, 0, 64, 71
1, 431087, Control_c, 0, 67, 105
1, 431102, Control_c, 0, 64, 73
1, 431117, Control_c, 0, 64, 75
1, 431132, Control_c, 0, 64, 77
1, 431132, Control_c, 0, 67, 100
1, 431139, Note_on_c, 0, 55, 43
1, 431145, Note_off_c, 0, 62, 61
1, 431146, Control_c, 0, 64, 78
1, 431146, Control_c, 0, 67, 94
1, 431161, Control_c, 0, 64, 79
1, 431161, Control_c, 0, 67, 89
1, 431176, Control_c, 0, 67, 85
1, 431191, Control_c, 0, 67, 81
1, 431207, Control_c, 0, 67, 77
1, 431221, Control_c, 0, 64, 77
1, 431221, Control_c, 0, 67, 74
1, 431236, Control_c, 0, 64, 73
1, 431236, Control_c, 0, 67, 70
1, 431251, Control_c, 0, 64, 68
1, 431251, Control_c, 0, 67, 66
1, 431266, Control_c, 0, 64, 64
1, 431266, Control_c, 0, 67, 62
1, 431269, Note_on_c, 0, 61, 60
1, 431281, Control_c, 0, 64, 62
1, 431281, Control_c, 0, 67, 58
1, 431294, Note_on_c, 0, 49, 36
1, 431296, Control_c, 0, 64, 61
1, 431296, Control_c, 0, 67, 54
1, 431311, Control_c, 0, 64, 62
1, 431311, Control_c, 0, 67, 50
1, 431318, Note_off_c, 0, 47, 34
1, 431325, Control_c, 0, 64, 62
1, 431325, Control_c, 0, 67, 46
1, 431331, Note_off_c, 0, 55, 46
1, 431340, Control_c, 0, 64, 63
1, 431340, Control_c, 0, 67, 42
1, 431355, Control_c, 0, 64, 65
1, 431355, Control_c, 0, 67, 35
1, 431370, Control_c, 0, 64, 67
1, 431370, Control_c, 0, 67, 29
1, 431385, Control_c, 0, 64, 69
1, 431385, Control_c, 0, 67, 22
1, 431399, Control_c, 0, 64, 72
1, 431399, Control_c, 0, 67, 0
1, 431414, Control_c, 0, 64, 74
1, 431418, Note_on_c, 0, 56, 55
1, 431429, Control_c, 0, 64, 77
1, 431443, Control_c, 0, 64, 78
1, 431458, Control_c, 0, 64, 80
1, 431473, Control_c, 0, 64, 80
1, 431517, Control_c, 0, 64, 79
1, 431532, Control_c, 0, 64, 75
1, 431547, Control_c, 0, 64, 70
1, 431562, Control_c, 0, 64, 64
1, 431572, Note_off_c, 0, 49, 38
1, 431574, Note_on_c, 0, 50, 43
1, 431574, Note_on_c, 0, 59, 57
1, 431576, Control_c, 0, 64, 60
1, 431591, Note_off_c, 0, 56, 56
1, 431591, Control_c, 0, 64, 57
1, 431621, Control_c, 0, 64, 58
1, 431636, Control_c, 0, 64, 60
1, 431651, Control_c, 0, 64, 62
1, 431666, Control_c, 0, 64, 64
1, 431681, Control_c, 0, 64, 66
1, 431696, Control_c, 0, 64, 69
1, 431711, Control_c, 0, 64, 73
1, 431716, Note_on_c, 0, 53, 62
1, 431725, Control_c, 0, 64, 78
1, 431740, Control_c, 0, 64, 82
1, 431755, Control_c, 0, 64, 86
1, 431758, Note_off_c, 0, 61, 0
1, 431770, Control_c, 0, 64, 88
1, 431782, Note_off_c, 0, 59, 52
1, 431785, Control_c, 0, 64, 89
1, 431795, Poly_aftertouch_c, 0, 61, 127
1, 431806, Note_off_c, 0, 50, 34
1, 431837, Control_c, 0, 64, 87
1, 431851, Control_c, 0, 64, 80
1, 431866, Control_c, 0, 64, 70
1, 431875, Note_off_c, 0, 53, 59
1, 431881, Control_c, 0, 64, 63
1, 431896, Control_c, 0, 64, 58
1, 431898, Note_on_c, 0, 57, 63
1, 431909, Note_on_c, 0, 54, 43
1, 431911, Control_c, 0, 64, 56
1, 431912, Poly_aftertouch_c, 0, 61, 0
1, 431925, Control_c, 0, 64, 58
1, 431940, Control_c, 0, 64, 61
1, 431955, Control_c, 0, 64, 66
1, 431970, Control_c, 0, 64, 70
1, 431985, Control_c, 0, 64, 76
1, 431995, Note_off_c, 0, 54, 52
1, 432000, Control_c, 0, 64, 82
1, 432015, Control_c, 0, 64, 87
1, 432023, Note_off_c, 0, 57, 61
1, 432030, Control_c, 0, 64, 92
1, 432045, Control_c, 0, 64, 97
1, 432060, Control_c, 0, 64, 102
1, 432065, Note_on_c, 0, 62, 69
1, 432098, Note_on_c, 0, 50, 48
1, 432119, Control_c, 0, 64, 104
1, 432178, Note_on_c, 0, 66, 67
1, 432223, Control_c, 0, 64, 101
1, 432238, Control_c, 0, 64, 99
1, 432253, Control_c, 0, 64, 93
1, 432267, Control_c, 0, 64, 83
1, 432271, Note_on_c, 0, 45, 50
1, 432280, Note_off_c, 0, 50, 33
1, 432282, Control_c, 0, 64, 71
1, 432288, Note_on_c, 0, 69, 71
1, 432297, Control_c, 0, 64, 59
1, 432306, Note_off_c, 0, 66, 60
1, 432312, Control_c, 0, 64, 35
1, 432317, Note_off_c, 0, 62, 22
1, 432327, Control_c, 0, 64, 0
1, 432398, Note_on_c, 0, 66, 76
1, 432414, Note_off_c, 0, 69, 56
1, 432415, Control_c, 0, 64, 35
1, 432430, Control_c, 0, 64, 51
1, 432435, Note_on_c, 0, 42, 49
1, 432444, Control_c, 0, 64, 62
1, 432459, Control_c, 0, 64, 70
1, 432473, Control_c, 0, 64, 79
1, 432487, Note_off_c, 0, 45, 37
1, 432488, Control_c, 0, 64, 93
1, 432503, Control_c, 0, 64, 111
1, 432509, Note_on_c, 0, 69, 78
1, 432518, Control_c, 0, 64, 127
1, 432521, Note_off_c, 0, 42, 61
1, 432558, Note_off_c, 0, 66, 61
1, 432644, Control_c, 0, 64, 112
1, 432659, Control_c, 0, 64, 87
1, 432673, Control_c, 0, 64, 70
1, 432688, Control_c, 0, 64, 53
1, 432703, Control_c, 0, 64, 0
1, 432716, Note_on_c, 0, 43, 38
1, 432717, Note_on_c, 0, 73, 70
1, 432726, Note_on_c, 0, 52, 33
1, 432733, Note_off_c, 0, 69, 54
1, 432941, Control_c, 0, 64, 63
1, 432956, Control_c, 0, 64, 71
1, 432971, Control_c, 0, 64, 74
1, 432986, Control_c, 0, 64, 75
1, 433001, Control_c, 0, 64, 81
1, 433004, Note_on_c, 0, 67, 53
1, 433015, Control_c, 0, 64, 95
1, 433030, Control_c, 0, 64, 127
1, 433040, Note_off_c, 0, 43, 41
1, 433071, Note_off_c, 0, 52, 47
1, 433092, Note_off_c, 0, 73, 53
1, 433174, Note_on_c, 0, 71, 66
1, 433178, Note_on_c, 0, 55, 55
1, 433194, Note_off_c, 0, 67, 55
1, 433347, Note_on_c, 0, 64, 56
1, 433371, Note_off_c, 0, 71, 35
1, 433474, Note_off_c, 0, 55, 26
1, 433480, Note_off_c, 0, 64, 53
1, 433496, Control_c, 0, 64, 103
1, 433507, Note_on_c, 0, 58, 49
1, 433511, Note_on_c, 0, 51, 50
1, 433511, Control_c, 0, 64, 84
1, 433512, Note_on_c, 0, 70, 62
1, 433526, Control_c, 0, 64, 70
1, 433541, Control_c, 0, 64, 59
1, 433556, Control_c, 0, 64, 39
1, 433570, Control_c, 0, 64, 0
1, 433616, Control_c, 0, 64, 34
1, 433631, Control_c, 0, 64, 48
1, 433645, Control_c, 0, 64, 60
1, 433660, Control_c, 0, 64, 68
1, 433675, Control_c, 0, 64, 74
1, 433680, Note_on_c, 0, 67, 48
1, 433690, Control_c, 0, 64, 80
1, 433705, Control_c, 0, 64, 85
1, 433715, Note_off_c, 0, 58, 60
1, 433719, Control_c, 0, 64, 88
1, 433734, Control_c, 0, 64, 90
1, 433749, Control_c, 0, 64, 92
1, 433764, Control_c, 0, 64, 93
1, 433778, Note_off_c, 0, 51, 57
1, 433779, Control_c, 0, 64, 94
1, 433794, Control_c, 0, 64, 95
1, 433824, Control_c, 0, 64, 98
1, 433850, Note_off_c, 0, 70, 0
1, 433863, Note_on_c, 0, 69, 28
1, 433868, Control_c, 0, 64, 100
1, 433880, Note_off_c, 0, 67, 37
1, 433887, Poly_aftertouch_c, 0, 70, 127
1, 433919, Poly_aftertouch_c, 0, 70, 0
1, 433943, Control_c, 0, 64, 102
1, 433999, Note_off_c, 0, 69, 39
1, 434003, Note_on_c, 0, 63, 40
1, 434074, Note_off_c, 0, 63, 50
1, 434158, Control_c, 0, 64, 97
1, 434172, Control_c, 0, 64, 90
1, 434174, Note_on_c, 0, 67, 53
1, 434187, Control_c, 0, 64, 83
1, 434190, Note_on_c, 0, 45, 39
1, 434202, Control_c, 0, 64, 75
1, 434217, Control_c, 0, 64, 69
1, 434232, Control_c, 0, 64, 65
1, 434246, Control_c, 0, 64, 63
1, 434276, Control_c, 0, 64, 64
1, 434291, Control_c, 0, 64, 65
1, 434306, Control_c, 0, 64, 67
1, 434320, Control_c, 0, 64, 69
1, 434334, Note_on_c, 0, 61, 46
1, 434335, Control_c, 0, 64, 72
1, 434350, Control_c, 0, 64, 74
1, 434364, Control_c, 0, 64, 76
1, 434379, Control_c, 0, 64, 77
1, 434440, Control_c, 0, 64, 75
1, 434455, Control_c, 0, 64, 71
1, 434469, Control_c, 0, 64, 65
1, 434484, Control_c, 0, 64, 60
1, 434499, Control_c, 0, 64, 54
1, 434501, Note_on_c, 0, 66, 49
1, 434514, Control_c, 0, 64, 49
1, 434520, Note_on_c, 0, 33, 23
1, 434529, Control_c, 0, 64, 48
1, 434543, Control_c, 0, 64, 49
1, 434558, Control_c, 0, 64, 50
1, 434570, Note_off_c, 0, 67, 29
1, 434573, Control_c, 0, 64, 51
1, 434587, Control_c, 0, 64, 53
1, 434602, Control_c, 0, 64, 56
1, 434617, Control_c, 0, 64, 60
1, 434632, Control_c, 0, 64, 63
1, 434647, Control_c, 0, 64, 66
1, 434661, Control_c, 0, 64, 68
1, 434669, Note_on_c, 0, 55, 44
1, 434676, Control_c, 0, 64, 71
1, 434691, Control_c, 0, 64, 73
1, 434706, Control_c, 0, 64, 74
1, 434721, Control_c, 0, 64, 75
1, 434736, Control_c, 0, 64, 75
1, 434766, Control_c, 0, 64, 76
1, 434817, Control_c, 0, 64, 75
1, 434823, Note_off_c, 0, 61, 36
1, 434828, Note_off_c, 0, 33, 36
1, 434832, Control_c, 0, 64, 74
1, 434847, Control_c, 0, 64, 69
1, 434849, Note_on_c, 0, 64, 48
1, 434862, Control_c, 0, 64, 62
1, 434865, Note_off_c, 0, 55, 37
1, 434875, Note_off_c, 0, 66, 19
1, 434876, Control_c, 0, 64, 49
1, 434883, Note_on_c, 0, 38, 25
1, 434891, Control_c, 0, 64, 0
1, 434892, Note_off_c, 0, 45, 21
1, 434995, Control_c, 0, 64, 36
1, 435010, Control_c, 0, 64, 51
1, 435025, Control_c, 0, 64, 60
1, 435040, Control_c, 0, 64, 65
1, 435055, Control_c, 0, 64, 69
1, 435061, Note_on_c, 0, 57, 34
1, 435069, Control_c, 0, 64, 71
1, 435084, Control_c, 0, 64, 74
1, 435099, Control_c, 0, 64, 76
1, 435113, Control_c, 0, 64, 78
1, 435128, Control_c, 0, 64, 79
1, 435143, Control_c, 0, 64, 80
1, 435218, Control_c, 0, 64, 78
1, 435233, Control_c, 0, 64, 74
1, 435248, Control_c, 0, 64, 67
1, 435263, Control_c, 0, 64, 61
1, 435271, Note_on_c, 0, 62, 40
1, 435278, Control_c, 0, 64, 55
1, 435283, Note_on_c, 0, 45, 33
1, 435292, Control_c, 0, 64, 51
1, 435299, Note_off_c, 0, 57, 41
1, 435307, Control_c, 0, 64, 52
1, 435322, Control_c, 0, 64, 56
1, 435336, Control_c, 0, 64, 62
1, 435350, Note_off_c, 0, 64, 38
1, 435351, Control_c, 0, 64, 69
1, 435357, Note_off_c, 0, 38, 55
1, 435366, Control_c, 0, 64, 77
1, 435381, Control_c, 0, 64, 87
1, 435396, Control_c, 0, 64, 97
1, 435410, Control_c, 0, 64, 114
1, 435414, Note_off_c, 0, 45, 55
1, 435425, Control_c, 0, 64, 127
1, 435425, Control_c, 0, 67, 20
1, 435440, Control_c, 0, 67, 22
1, 435455, Control_c, 0, 67, 25
1, 435470, Control_c, 0, 67, 28
1, 435484, Control_c, 0, 67, 30
1, 435499, Control_c, 0, 67, 32
1, 435514, Control_c, 0, 67, 33
1, 435566, Control_c, 0, 67, 32
1, 435591, Note_on_c, 0, 54, 24
1, 435596, Control_c, 0, 67, 29
1, 435603, Note_off_c, 0, 62, 54
1, 435630, Note_off_c, 0, 54, 49
1, 435655, Control_c, 0, 67, 27
1, 435684, Note_on_c, 0, 43, 41
1, 435778, Note_on_c, 0, 52, 46
1, 435922, Control_c, 0, 64, 112
1, 435936, Control_c, 0, 64, 96
1, 435951, Control_c, 0, 64, 80
1, 435961, Note_on_c, 0, 70, 56
1, 435966, Control_c, 0, 64, 70
1, 435981, Control_c, 0, 64, 62
1, 435981, Control_c, 0, 67, 25
1, 435993, Note_on_c, 0, 58, 28
1, 435997, Control_c, 0, 64, 56
1, 436012, Control_c, 0, 64, 53
1, 436027, Control_c, 0, 64, 55
1, 436041, Control_c, 0, 64, 60
1, 436056, Control_c, 0, 64, 66
1, 436071, Control_c, 0, 64, 72
1, 436086, Control_c, 0, 64, 81
1, 436101, Control_c, 0, 64, 89
1, 436115, Control_c, 0, 64, 97
1, 436130, Control_c, 0, 64, 106
1, 436145, Control_c, 0, 64, 120
1, 436159, Control_c, 0, 64, 127
1, 436191, Note_off_c, 0, 70, 32
1, 436244, Note_on_c, 0, 74, 35
1, 436330, Note_off_c, 0, 58, 42
1, 436338, Note_on_c, 0, 70, 49
1, 436416, Note_off_c, 0, 74, 26
1, 436432, Note_off_c, 0, 52, 38
1, 436459, Note_on_c, 0, 69, 56
1, 436492, Note_off_c, 0, 70, 55
1, 436558, Note_on_c, 0, 74, 51
1, 436562, Note_off_c, 0, 43, 39
1, 436664, Note_on_c, 0, 70, 51
1, 436726, Note_off_c, 0, 74, 37
1, 436756, Note_off_c, 0, 69, 34
1, 436802, Note_on_c, 0, 67, 62
1, 436805, Control_c, 0, 64, 98
1, 436817, Note_on_c, 0, 45, 42
1, 436820, Control_c, 0, 64, 81
1, 436835, Control_c, 0, 64, 68
1, 436847, Note_off_c, 0, 70, 57
1, 436849, Control_c, 0, 64, 59
1, 436864, Control_c, 0, 64, 52
1, 436879, Control_c, 0, 64, 50
1, 436888, Note_off_c, 0, 45, 52
1, 436894, Control_c, 0, 64, 52
1, 436909, Control_c, 0, 64, 57
1, 436924, Control_c, 0, 64, 62
1, 436938, Control_c, 0, 64, 66
1, 436945, Note_on_c, 0, 38, 46
1, 436949, Note_on_c, 0, 74, 50
1, 436953, Control_c, 0, 64, 69
1, 436968, Control_c, 0, 64, 72
1, 436982, Control_c, 0, 64, 75
1, 436997, Control_c, 0, 64, 77
1, 437006, Note_off_c, 0, 67, 36
1, 437012, Control_c, 0, 64, 78
1, 437027, Control_c, 0, 64, 80
1, 437038, Note_on_c, 0, 69, 49
1, 437042, Control_c, 0, 64, 82
1, 437064, Note_on_c, 0, 45, 47
1, 437064, Control_c, 0, 64, 84
1, 437067, Note_off_c, 0, 74, 53
1, 437079, Control_c, 0, 64, 85
1, 437081, Note_off_c, 0, 38, 53
1, 437094, Control_c, 0, 64, 86
1, 437109, Control_c, 0, 64, 88
1, 437123, Control_c, 0, 64, 89
1, 437136, Note_off_c, 0, 45, 61
1, 437138, Control_c, 0, 64, 91
1, 437139, Note_on_c, 0, 66, 62
1, 437153, Control_c, 0, 64, 92
1, 437168, Control_c, 0, 64, 93
1, 437170, Note_off_c, 0, 69, 52
1, 437183, Control_c, 0, 64, 93
1, 437186, Note_on_c, 0, 50, 48
1, 437212, Control_c, 0, 64, 94
1, 437227, Control_c, 0, 64, 94
1, 437230, Note_on_c, 0, 74, 62
1, 437246, Note_off_c, 0, 50, 53
1, 437271, Control_c, 0, 64, 95
1, 437321, Note_on_c, 0, 69, 57
1, 437343, Note_on_c, 0, 54, 30
1, 437375, Note_off_c, 0, 74, 37
1, 437430, Note_on_c, 0, 64, 63
1, 437440, Note_on_c, 0, 57, 53
1, 437440, Note_off_c, 0, 66, 23
1, 437461, Note_off_c, 0, 69, 55
1, 437465, Note_off_c, 0, 54, 41
1, 437493, Note_off_c, 0, 57, 57
1, 437526, Note_on_c, 0, 74, 65
1, 437556, Note_off_c, 0, 64, 55
1, 437619, Note_on_c, 0, 69, 60
1, 437639, Note_off_c, 0, 74, 53
1, 437642, Control_c, 0, 64, 95
1, 437672, Control_c, 0, 64, 96
1, 437703, Note_on_c, 0, 62, 67
1, 437714, Note_off_c, 0, 69, 60
1, 437788, Note_on_c, 0, 74, 65
1, 437823, Note_on_c, 0, 43, 57
1, 437843, Note_off_c, 0, 62, 50
1, 437866, Note_on_c, 0, 69, 62
1, 437893, Note_off_c, 0, 74, 56
1, 437904, Note_on_c, 0, 50, 64
1, 437917, Control_c, 0, 64, 95
1, 437920, Note_off_c, 0, 69, 60
1, 437931, Control_c, 0, 64, 94
1, 437946, Control_c, 0, 64, 89
1, 437961, Control_c, 0, 64, 81
1, 437976, Control_c, 0, 64, 71
1, 437991, Control_c, 0, 64, 63
1, 437997, Note_on_c, 0, 70, 76
1, 438000, Note_on_c, 0, 58, 60
1, 438006, Control_c, 0, 64, 55
1, 438020, Control_c, 0, 64, 50
1, 438050, Control_c, 0, 64, 54
1, 438065, Control_c, 0, 64, 59
1, 438080, Control_c, 0, 64, 63
1, 438094, Control_c, 0, 64, 67
1, 438104, Note_on_c, 0, 76, 68
1, 438109, Control_c, 0, 64, 72
1, 438124, Control_c, 0, 64, 78
1, 438138, Control_c, 0, 64, 85
1, 438153, Control_c, 0, 64, 92
1, 438158, Note_off_c, 0, 58, 61
1, 438168, Control_c, 0, 64, 101
1, 438180, Note_off_c, 0, 43, 32
1, 438183, Control_c, 0, 64, 127
1, 438188, Note_on_c, 0, 74, 71
1, 438200, Note_off_c, 0, 70, 54
1, 438244, Note_off_c, 0, 76, 56
1, 438247, Note_off_c, 0, 50, 58
1, 438274, Note_off_c, 0, 74, 64
1, 438276, Note_on_c, 0, 69, 73
1, 438365, Note_on_c, 0, 76, 76
1, 438427, Note_off_c, 0, 69, 47
1, 438466, Note_on_c, 0, 74, 75
1, 438559, Note_off_c, 0, 76, 56
1, 438591, Control_c, 0, 64, 99
1, 438606, Control_c, 0, 64, 77
1, 438608, Note_on_c, 0, 42, 51
1, 438616, Note_on_c, 0, 67, 73
1, 438621, Control_c, 0, 64, 64
1, 438635, Control_c, 0, 64, 50
1, 438642, Note_off_c, 0, 74, 59
1, 438650, Control_c, 0, 64, 44
1, 438665, Control_c, 0, 64, 46
1, 438680, Control_c, 0, 64, 55
1, 438695, Control_c, 0, 64, 63
1, 438710, Control_c, 0, 64, 69
1, 438724, Control_c, 0, 64, 78
1, 438739, Control_c, 0, 64, 92
1, 438754, Control_c, 0, 64, 111
1, 438762, Note_off_c, 0, 42, 61
1, 438766, Note_on_c, 0, 34, 48
1, 438769, Control_c, 0, 64, 127
1, 438778, Note_on_c, 0, 78, 73
1, 438801, Note_off_c, 0, 67, 62
1, 438814, Control_c, 0, 67, 23
1, 438853, Note_off_c, 0, 34, 59
1, 438865, Note_on_c, 0, 73, 70
1, 438870, Note_on_c, 0, 42, 46
1, 438906, Note_off_c, 0, 78, 60
1, 438938, Note_off_c, 0, 42, 62
1, 438945, Note_on_c, 0, 49, 50
1, 438953, Note_on_c, 0, 66, 79
1, 438998, Note_off_c, 0, 73, 59
1, 439004, Note_off_c, 0, 49, 62
1, 439047, Note_on_c, 0, 78, 72
1, 439086, Note_on_c, 0, 54, 50
1, 439150, Note_on_c, 0, 73, 73
1, 439208, Note_off_c, 0, 78, 50
1, 439217, Note_on_c, 0, 61, 63
1, 439264, Note_on_c, 0, 70, 81
1, 439264, Note_off_c, 0, 61, 55
1, 439281, Note_off_c, 0, 54, 35
1, 439374, Note_off_c, 0, 73, 38
1, 439413, Note_off_c, 0, 66, 35
1, 439437, Note_on_c, 0, 78, 76
1, 439586, Note_on_c, 0, 73, 84
1, 439606, Note_off_c, 0, 78, 58
1, 439614, Note_off_c, 0, 70, 61
1, 439708, Note_on_c, 0, 45, 57
1, 439726, Note_on_c, 0, 78, 76
1, 439741, Note_off_c, 0, 73, 62
1, 439782, Note_off_c, 0, 78, 61
1, 439789, Note_on_c, 0, 55, 56
1, 439943, Note_on_c, 0, 61, 56
1, 439980, Note_on_c, 0, 78, 82
1, 439994, Control_c, 0, 64, 98
1, 440008, Control_c, 0, 64, 78
1, 440023, Control_c, 0, 64, 60
1, 440038, Control_c, 0, 64, 0
1, 440134, Control_c, 0, 64, 44
1, 440149, Control_c, 0, 64, 60
1, 440164, Control_c, 0, 64, 68
1, 440179, Control_c, 0, 64, 76
1, 440194, Control_c, 0, 64, 84
1, 440199, Note_on_c, 0, 81, 59
1, 440208, Control_c, 0, 64, 91
1, 440223, Control_c, 0, 64, 98
1, 440238, Control_c, 0, 64, 106
1, 440244, Note_off_c, 0, 61, 59
1, 440252, Control_c, 0, 64, 112
1, 440267, Control_c, 0, 64, 118
1, 440279, Note_off_c, 0, 55, 58
1, 440282, Control_c, 0, 64, 125
1, 440289, Note_on_c, 0, 79, 71
1, 440297, Control_c, 0, 64, 127
1, 440347, Note_off_c, 0, 81, 38
1, 440382, Note_on_c, 0, 76, 73
1, 440385, Note_off_c, 0, 79, 64
1, 440391, Note_off_c, 0, 45, 57
1, 440451, Note_off_c, 0, 78, 14
1, 440469, Note_on_c, 0, 81, 70
1, 440559, Note_on_c, 0, 79, 71
1, 440638, Note_off_c, 0, 81, 37
1, 440638, Control_c, 0, 64, 120
1, 440652, Control_c, 0, 64, 99
1, 440664, Note_on_c, 0, 45, 50
1, 440667, Control_c, 0, 64, 83
1, 440674, Note_on_c, 0, 74, 74
1, 440681, Control_c, 0, 64, 70
1, 440693, Note_off_c, 0, 79, 58
1, 440696, Control_c, 0, 64, 60
1, 440699, Note_off_c, 0, 76, 47
1, 440711, Control_c, 0, 64, 49
1, 440719, Note_off_c, 0, 45, 56
1, 440725, Control_c, 0, 64, 42
1, 440740, Control_c, 0, 64, 45
1, 440755, Control_c, 0, 64, 51
1, 440770, Control_c, 0, 64, 57
1, 440775, Note_on_c, 0, 38, 38
1, 440786, Control_c, 0, 64, 61
1, 440808, Control_c, 0, 64, 64
1, 440823, Control_c, 0, 64, 68
1, 440826, Note_on_c, 0, 81, 59
1, 440838, Control_c, 0, 64, 73
1, 440853, Control_c, 0, 64, 78
1, 440868, Control_c, 0, 64, 81
1, 440882, Control_c, 0, 64, 84
1, 440883, Note_on_c, 0, 45, 43
1, 440891, Note_off_c, 0, 38, 35
1, 440896, Note_on_c, 0, 78, 60
1, 440897, Control_c, 0, 64, 88
1, 440898, Note_off_c, 0, 74, 54
1, 440912, Control_c, 0, 64, 91
1, 440916, Note_off_c, 0, 45, 51
1, 440927, Control_c, 0, 64, 94
1, 440942, Control_c, 0, 64, 96
1, 440956, Note_on_c, 0, 50, 51
1, 440962, Note_off_c, 0, 81, 47
1, 440971, Control_c, 0, 64, 99
1, 440981, Note_on_c, 0, 73, 69
1, 440983, Note_off_c, 0, 50, 58
1, 440986, Control_c, 0, 64, 101
1, 441003, Note_off_c, 0, 78, 59
1, 441016, Control_c, 0, 64, 104
1, 441047, Note_on_c, 0, 54, 53
1, 441075, Note_on_c, 0, 81, 68
1, 441100, Note_off_c, 0, 54, 61
1, 441112, Note_on_c, 0, 57, 53
1, 441119, Control_c, 0, 67, 21
1, 441138, Note_off_c, 0, 57, 61
1, 441148, Control_c, 0, 67, 0
1, 441150, Note_on_c, 0, 78, 63
1, 441179, Note_on_c, 0, 62, 52
1, 441213, Note_off_c, 0, 62, 61
1, 441222, Note_off_c, 0, 81, 39
1, 441237, Control_c, 0, 64, 106
1, 441251, Note_off_c, 0, 78, 58
1, 441258, Note_on_c, 0, 71, 64
1, 441270, Note_on_c, 0, 66, 50
1, 441275, Note_off_c, 0, 73, 36
1, 441292, Note_off_c, 0, 66, 60
1, 441361, Note_on_c, 0, 81, 59
1, 441367, Note_off_c, 0, 71, 55
1, 441429, Control_c, 0, 64, 108
1, 441456, Note_on_c, 0, 78, 54
1, 441511, Note_off_c, 0, 78, 55
1, 441521, Note_off_c, 0, 81, 38
1, 441541, Note_on_c, 0, 69, 57
1, 441640, Note_on_c, 0, 81, 60
1, 441664, Note_off_c, 0, 69, 36
1, 441705, Note_on_c, 0, 43, 42
1, 441723, Note_on_c, 0, 78, 58
1, 441724, Note_off_c, 0, 81, 60
1, 441734, Control_c, 0, 64, 104
1, 441749, Control_c, 0, 64, 102
1, 441764, Control_c, 0, 64, 99
1, 441765, Note_off_c, 0, 78, 59
1, 441768, Note_on_c, 0, 52, 54
1, 441793, Control_c, 0, 64, 95
1, 441808, Control_c, 0, 64, 94
1, 441823, Control_c, 0, 64, 92
1, 441838, Control_c, 0, 64, 90
1, 441852, Control_c, 0, 64, 87
1, 441867, Control_c, 0, 64, 81
1, 441882, Control_c, 0, 64, 72
1, 441893, Note_on_c, 0, 58, 42
1, 441896, Note_on_c, 0, 70, 55
1, 441896, Control_c, 0, 64, 62
1, 441911, Control_c, 0, 64, 46
1, 441926, Control_c, 0, 64, 0
1, 442000, Control_c, 0, 64, 40
1, 442015, Note_off_c, 0, 70, 61
1, 442015, Control_c, 0, 64, 56
1, 442026, Note_on_c, 0, 74, 54
1, 442030, Control_c, 0, 64, 64
1, 442045, Control_c, 0, 64, 67
1, 442060, Control_c, 0, 64, 70
1, 442069, Note_off_c, 0, 58, 61
1, 442075, Control_c, 0, 64, 72
1, 442090, Control_c, 0, 64, 74
1, 442104, Control_c, 0, 64, 76
1, 442110, Note_off_c, 0, 52, 58
1, 442114, Note_off_c, 0, 74, 55
1, 442119, Control_c, 0, 64, 78
1, 442120, Note_on_c, 0, 70, 42
1, 442134, Control_c, 0, 64, 79
1, 442141, Poly_aftertouch_c, 0, 46, 127
1, 442149, Control_c, 0, 64, 81
1, 442164, Control_c, 0, 64, 81
1, 442179, Control_c, 0, 64, 82
1, 442191, Poly_aftertouch_c, 0, 46, 0
1, 442194, Control_c, 0, 64, 83
1, 442209, Control_c, 0, 64, 83
1, 442210, Note_on_c, 0, 69, 52
1, 442217, Note_off_c, 0, 43, 40
1, 442221, Note_off_c, 0, 70, 57
1, 442285, Note_on_c, 0, 74, 53
1, 442376, Note_on_c, 0, 70, 51
1, 442395, Note_off_c, 0, 74, 51
1, 442450, Note_off_c, 0, 69, 29
1, 442454, Control_c, 0, 64, 83
1, 442483, Control_c, 0, 64, 82
1, 442498, Note_on_c, 0, 45, 53
1, 442498, Control_c, 0, 64, 81
1, 442509, Note_on_c, 0, 67, 55
1, 442513, Control_c, 0, 64, 78
1, 442528, Control_c, 0, 64, 70
1, 442530, Note_off_c, 0, 70, 51
1, 442543, Control_c, 0, 64, 61
1, 442558, Control_c, 0, 64, 47
1, 442573, Control_c, 0, 64, 0
1, 442609, Note_off_c, 0, 45, 60
1, 442632, Control_c, 0, 64, 42
1, 442639, Note_on_c, 0, 38, 49
1, 442647, Note_on_c, 0, 74, 50
1, 442647, Control_c, 0, 64, 53
1, 442661, Control_c, 0, 64, 59
1, 442676, Control_c, 0, 64, 63
1, 442691, Control_c, 0, 64, 64
1, 442692, Note_off_c, 0, 67, 32
1, 442706, Control_c, 0, 64, 66
1, 442721, Note_on_c, 0, 69, 50
1, 442721, Control_c, 0, 64, 67
1, 442735, Control_c, 0, 64, 68
1, 442737, Note_off_c, 0, 74, 55
1, 442749, Note_on_c, 0, 45, 51
1, 442750, Control_c, 0, 64, 70
1, 442765, Control_c, 0, 64, 71
1, 442768, Note_off_c, 0, 38, 61
1, 442780, Control_c, 0, 64, 73
1, 442795, Control_c, 0, 64, 74
1, 442804, Note_off_c, 0, 45, 64
1, 442809, Control_c, 0, 64, 75
1, 442819, Note_on_c, 0, 66, 50
1, 442824, Control_c, 0, 64, 76
1, 442831, Note_off_c, 0, 69, 56
1, 442839, Control_c, 0, 64, 77
1, 442851, Note_on_c, 0, 50, 46
1, 442853, Control_c, 0, 64, 77
1, 442883, Control_c, 0, 64, 78
1, 442891, Note_on_c, 0, 74, 59
1, 442898, Note_off_c, 0, 50, 56
1, 442980, Note_on_c, 0, 69, 51
1, 442986, Note_on_c, 0, 54, 40
1, 443004, Note_off_c, 0, 74, 51
1, 443097, Note_off_c, 0, 54, 62
1, 443099, Note_on_c, 0, 57, 59
1, 443106, Note_on_c, 0, 64, 53
1, 443115, Note_off_c, 0, 66, 22
1, 443123, Note_off_c, 0, 69, 57
1, 443135, Note_off_c, 0, 57, 65
1, 443209, Note_on_c, 0, 74, 57
1, 443226, Note_off_c, 0, 64, 53
1, 443294, Note_off_c, 0, 74, 57
1, 443297, Note_on_c, 0, 69, 50
1, 443381, Note_on_c, 0, 62, 62
1, 443392, Note_off_c, 0, 69, 60
1, 443460, Note_on_c, 0, 74, 60
1, 443497, Note_off_c, 0, 62, 53
1, 443499, Poly_aftertouch_c, 0, 49, 0
1, 443515, Note_on_c, 0, 41, 58
1, 443543, Control_c, 0, 64, 77
1, 443546, Note_on_c, 0, 69, 51
1, 443568, Note_off_c, 0, 74, 58
1, 443572, Control_c, 0, 64, 77
1, 443586, Note_off_c, 0, 69, 62
1, 443601, Note_on_c, 0, 48, 48
1, 443616, Control_c, 0, 64, 76
1, 443631, Control_c, 0, 64, 73
1, 443646, Control_c, 0, 64, 66
1, 443661, Control_c, 0, 64, 57
1, 443666, Note_on_c, 0, 70, 76
1, 443676, Control_c, 0, 64, 49
1, 443691, Control_c, 0, 64, 51
1, 443706, Note_on_c, 0, 58, 61
1, 443706, Control_c, 0, 64, 58
1, 443711, Note_off_c, 0, 41, 53
1, 443720, Control_c, 0, 64, 64
1, 443735, Control_c, 0, 64, 70
1, 443743, Note_off_c, 0, 48, 51
1, 443750, Control_c, 0, 64, 78
1, 443765, Control_c, 0, 64, 87
1, 443779, Note_on_c, 0, 76, 68
1, 443780, Control_c, 0, 64, 98
1, 443801, Control_c, 0, 64, 116
1, 443812, Note_off_c, 0, 58, 63
1, 443816, Control_c, 0, 64, 127
1, 443854, Note_on_c, 0, 74, 71
1, 443884, Note_off_c, 0, 70, 58
1, 443921, Note_off_c, 0, 76, 54
1, 443939, Note_off_c, 0, 74, 63
1, 443941, Note_on_c, 0, 69, 79
1, 444036, Note_on_c, 0, 76, 76
1, 444102, Note_on_c, 0, 74, 77
1, 444103, Note_off_c, 0, 69, 46
1, 444182, Note_off_c, 0, 76, 50
1, 444218, Note_on_c, 0, 42, 73
1, 444218, Note_off_c, 0, 74, 60
1, 444229, Note_on_c, 0, 67, 73
1, 444232, Control_c, 0, 64, 109
1, 444247, Control_c, 0, 64, 73
1, 444262, Control_c, 0, 64, 50
1, 444277, Control_c, 0, 64, 0
1, 444321, Control_c, 0, 64, 58
1, 444336, Note_off_c, 0, 67, 61
1, 444336, Control_c, 0, 64, 74
1, 444349, Note_on_c, 0, 78, 72
1, 444351, Control_c, 0, 64, 127
1, 444359, Note_on_c, 0, 34, 61
1, 444375, Note_off_c, 0, 42, 56
1, 444429, Note_on_c, 0, 73, 74
1, 444455, Note_on_c, 0, 42, 59
1, 444460, Poly_aftertouch_c, 0, 79, 0
1, 444463, Note_off_c, 0, 34, 57
1, 444466, Note_off_c, 0, 78, 60
1, 444513, Note_on_c, 0, 66, 80
1, 444518, Note_off_c, 0, 42, 63
1, 444528, Note_on_c, 0, 49, 61
1, 444537, Note_off_c, 0, 73, 57
1, 444572, Note_off_c, 0, 49, 62
1, 444600, Note_on_c, 0, 78, 72
1, 444646, Note_on_c, 0, 54, 68
1, 444677, Note_on_c, 0, 73, 73
1, 444725, Note_off_c, 0, 78, 59
1, 444741, Note_off_c, 0, 66, 48
1, 444764, Note_off_c, 0, 54, 61
1, 444794, Note_on_c, 0, 70, 85
1, 444795, Note_on_c, 0, 61, 71
1, 444820, Note_off_c, 0, 61, 65
1, 444869, Note_off_c, 0, 73, 53
1, 444972, Note_on_c, 0, 78, 82
1, 445121, Note_on_c, 0, 73, 87
1, 445145, Note_off_c, 0, 78, 59
1, 445150, Note_off_c, 0, 70, 62
1, 445264, Note_on_c, 0, 78, 78
1, 445273, Note_on_c, 0, 46, 71
1, 445280, Note_off_c, 0, 73, 62
1, 445341, Note_off_c, 0, 78, 63
1, 445348, Note_on_c, 0, 56, 75
1, 445493, Control_c, 0, 64, 77
1, 445494, Note_on_c, 0, 62, 80
1, 445499, Note_on_c, 0, 79, 91
1, 445508, Control_c, 0, 64, 30
1, 445522, Control_c, 0, 64, 0
1, 445671, Control_c, 0, 64, 73
1, 445686, Control_c, 0, 64, 127
1, 445715, Note_on_c, 0, 82, 80
1, 445720, Note_off_c, 0, 62, 59
1, 445790, Note_off_c, 0, 56, 57
1, 445791, Note_off_c, 0, 46, 61
1, 445837, Note_off_c, 0, 79, 61
1, 445841, Note_on_c, 0, 77, 78
1, 445880, Note_off_c, 0, 82, 62
1, 445986, Note_on_c, 0, 82, 61
1, 446150, Note_on_c, 0, 75, 80
1, 446153, Control_c, 0, 64, 96
1, 446162, Note_on_c, 0, 46, 65
1, 446164, Note_off_c, 0, 82, 61
1, 446168, Control_c, 0, 64, 66
1, 446172, Note_off_c, 0, 77, 55
1, 446183, Control_c, 0, 64, 40
1, 446197, Control_c, 0, 64, 29
1, 446212, Control_c, 0, 64, 53
1, 446227, Control_c, 0, 64, 69
1, 446242, Control_c, 0, 64, 86
1, 446254, Note_off_c, 0, 46, 62
1, 446257, Control_c, 0, 64, 127
1, 446276, Note_on_c, 0, 39, 59
1, 446329, Note_on_c, 0, 82, 69
1, 446336, Note_on_c, 0, 46, 56
1, 446344, Note_off_c, 0, 39, 60
1, 446409, Note_on_c, 0, 51, 65
1, 446411, Note_off_c, 0, 46, 63
1, 446430, Note_off_c, 0, 75, 62
1, 446440, Note_on_c, 0, 74, 86
1, 446451, Note_off_c, 0, 82, 57
1, 446461, Note_off_c, 0, 51, 60
1, 446483, Note_on_c, 0, 55, 54
1, 446520, Note_off_c, 0, 55, 61
1, 446576, Note_on_c, 0, 58, 60
1, 446595, Note_on_c, 0, 82, 72
1, 446621, Note_off_c, 0, 74, 65
1, 446645, Note_on_c, 0, 63, 63
1, 446692, Note_off_c, 0, 58, 51
1, 446726, Note_off_c, 0, 63, 63
1, 446732, Note_on_c, 0, 72, 79
1, 446737, Note_on_c, 0, 67, 75
1, 446751, Note_off_c, 0, 82, 60
1, 446798, Note_off_c, 0, 67, 61
1, 446904, Note_on_c, 0, 82, 78
1, 446961, Note_off_c, 0, 72, 58
1, 447044, Note_on_c, 0, 70, 80
1, 447080, Note_off_c, 0, 82, 57
1, 447194, Note_on_c, 0, 82, 76
1, 447211, Note_on_c, 0, 45, 66
1, 447216, Note_off_c, 0, 70, 61
1, 447275, Note_off_c, 0, 82, 61
1, 447286, Note_on_c, 0, 55, 67
1, 447372, Note_on_c, 0, 61, 74
1, 447378, Control_c, 0, 64, 95
1, 447387, Note_on_c, 0, 78, 85
1, 447392, Control_c, 0, 64, 68
1, 447407, Control_c, 0, 64, 43
1, 447421, Control_c, 0, 64, 0
1, 447436, Control_c, 0, 64, 31
1, 447450, Control_c, 0, 64, 51
1, 447465, Control_c, 0, 64, 65
1, 447480, Control_c, 0, 64, 80
1, 447495, Control_c, 0, 64, 127
1, 447554, Note_on_c, 0, 82, 74
1, 447557, Note_off_c, 0, 61, 61
1, 447593, Note_off_c, 0, 55, 61
1, 447593, Note_off_c, 0, 78, 59
1, 447628, Note_on_c, 0, 80, 76
1, 447671, Note_off_c, 0, 45, 40
1, 447696, Note_off_c, 0, 82, 58
1, 447727, Note_on_c, 0, 74, 66
1, 447733, Note_on_c, 0, 76, 71
1, 447739, Note_off_c, 0, 80, 61
1, 447812, Note_on_c, 0, 82, 72
1, 447827, Note_off_c, 0, 74, 51
1, 447828, Note_off_c, 0, 76, 57
1, 447897, Note_on_c, 0, 80, 72
1, 447983, Note_off_c, 0, 82, 53
1, 447990, Note_on_c, 0, 38, 80
1, 447992, Control_c, 0, 64, 106
1, 448007, Control_c, 0, 64, 70
1, 448022, Control_c, 0, 64, 51
1, 448037, Note_on_c, 0, 74, 45
1, 448037, Control_c, 0, 64, 0
1, 448058, Note_off_c, 0, 80, 57
1, 448066, Control_c, 0, 64, 43
1, 448081, Control_c, 0, 64, 57
1, 448096, Control_c, 0, 64, 65
1, 448111, Control_c, 0, 64, 73
1, 448114, Note_off_c, 0, 74, 62
1, 448117, Note_on_c, 0, 82, 69
1, 448120, Note_on_c, 0, 45, 67
1, 448126, Control_c, 0, 64, 82
1, 448134, Note_off_c, 0, 38, 60
1, 448140, Control_c, 0, 64, 90
1, 448155, Control_c, 0, 64, 104
1, 448170, Control_c, 0, 64, 127
1, 448192, Note_off_c, 0, 45, 63
1, 448227, Note_on_c, 0, 54, 63
1, 448247, Note_on_c, 0, 73, 83
1, 448250, Note_off_c, 0, 54, 64
1, 448354, Note_on_c, 0, 83, 75
1, 448390, Note_on_c, 0, 62, 69
1, 448421, Note_off_c, 0, 73, 57
1, 448454, Note_off_c, 0, 83, 63
1, 448478, Note_off_c, 0, 82, 42
1, 448530, Note_on_c, 0, 71, 86
1, 448675, Note_on_c, 0, 85, 88
1, 448765, Note_off_c, 0, 71, 61
1, 448841, Note_on_c, 0, 69, 84
1, 448847, Note_off_c, 0, 62, 29
1, 448887, Note_off_c, 0, 69, 63
1, 448976, Note_on_c, 0, 78, 48
1, 449000, Note_off_c, 0, 78, 55
1, 449009, Note_on_c, 0, 86, 78
1, 449017, Note_off_c, 0, 85, 0
1, 449017, Note_on_c, 0, 85, 10
1, 449102, Note_on_c, 0, 57, 75
1, 449107, Note_off_c, 0, 86, 63
1, 449110, Note_off_c, 0, 85, 56
1, 449144, Note_on_c, 0, 61, 72
1, 449193, Control_c, 0, 64, 105
1, 449196, Note_on_c, 0, 67, 73
1, 449208, Control_c, 0, 64, 68
1, 449211, Note_on_c, 0, 78, 90
1, 449222, Control_c, 0, 64, 48
1, 449237, Control_c, 0, 64, 35
1, 449252, Control_c, 0, 64, 46
1, 449267, Control_c, 0, 64, 59
1, 449282, Control_c, 0, 64, 69
1, 449296, Control_c, 0, 64, 90
1, 449311, Control_c, 0, 64, 127
1, 449327, Note_off_c, 0, 67, 61
1, 449350, Note_on_c, 0, 85, 79
1, 449389, Note_off_c, 0, 57, 62
1, 449395, Note_off_c, 0, 78, 60
1, 449396, Note_off_c, 0, 61, 60
1, 449440, Note_on_c, 0, 81, 78
1, 449504, Note_off_c, 0, 85, 57
1, 449526, Note_on_c, 0, 76, 82
1, 449568, Note_off_c, 0, 81, 60
1, 449616, Note_on_c, 0, 85, 79
1, 449664, Note_off_c, 0, 76, 48
1, 449709, Note_on_c, 0, 81, 81
1, 449818, Note_off_c, 0, 85, 57
1, 449831, Note_on_c, 0, 38, 77
1, 449845, Note_on_c, 0, 74, 83
1, 449853, Control_c, 0, 64, 105
1, 449868, Control_c, 0, 64, 64
1, 449883, Control_c, 0, 64, 0
1, 449903, Note_off_c, 0, 81, 51
1, 449927, Control_c, 0, 64, 44
1, 449942, Control_c, 0, 64, 72
1, 449957, Control_c, 0, 64, 103
1, 449971, Control_c, 0, 64, 127
1, 449994, Note_on_c, 0, 85, 78
1, 450007, Note_on_c, 0, 45, 67
1, 450018, Note_off_c, 0, 38, 61
1, 450036, Note_off_c, 0, 74, 61
1, 450092, Note_off_c, 0, 45, 62
1, 450096, Note_on_c, 0, 81, 79
1, 450122, Note_on_c, 0, 54, 71
1, 450151, Note_off_c, 0, 54, 66
1, 450191, Note_on_c, 0, 73, 87
1, 450240, Note_off_c, 0, 85, 53
1, 450246, Note_off_c, 0, 81, 53
1, 450275, Note_on_c, 0, 86, 80
1, 450311, Note_on_c, 0, 62, 78
1, 450311, Note_off_c, 0, 73, 58
1, 450349, Note_on_c, 0, 81, 82
1, 450369, Poly_aftertouch_c, 0, 85, 0
1, 450398, Note_off_c, 0, 86, 57
1, 450421, Note_off_c, 0, 81, 64
1, 450463, Note_on_c, 0, 71, 89
1, 450571, Note_on_c, 0, 88, 92
1, 450663, Note_on_c, 0, 81, 87
1, 450663, Note_off_c, 0, 88, 58
1, 450714, Note_off_c, 0, 71, 57
1, 450763, Note_on_c, 0, 69, 91
1, 450764, Note_off_c, 0, 62, 55
1, 450792, Note_off_c, 0, 81, 57
1, 450800, Note_off_c, 0, 69, 64
1, 450883, Note_on_c, 0, 90, 93
1, 450990, Note_on_c, 0, 81, 93
1, 451038, Note_off_c, 0, 90, 52
1, 451054, Note_off_c, 0, 81, 62
1, 451178, Note_on_c, 0, 45, 93
1, 451178, Note_on_c, 0, 78, 98
1, 451179, Note_on_c, 0, 38, 87
1, 451180, Control_c, 0, 64, 86
1, 451195, Control_c, 0, 64, 53
1, 451209, Control_c, 0, 64, 0
1, 451239, Control_c, 0, 64, 48
1, 451254, Control_c, 0, 64, 78
1, 451262, Note_off_c, 0, 45, 65
1, 451266, Note_off_c, 0, 38, 63
1, 451269, Control_c, 0, 64, 127
1, 451394, Note_on_c, 0, 91, 78
1, 451429, Note_off_c, 0, 78, 59
1, 451486, Note_on_c, 0, 85, 80
1, 451510, Note_off_c, 0, 91, 59
1, 451581, Note_on_c, 0, 76, 86
1, 451617, Note_off_c, 0, 85, 62
1, 451659, Note_off_c, 0, 76, 58
1, 451670, Note_on_c, 0, 91, 83
1, 451744, Note_on_c, 0, 62, 67
1, 451763, Note_on_c, 0, 85, 75
1, 451775, Note_on_c, 0, 66, 67
1, 451802, Note_on_c, 0, 69, 65
1, 451834, Note_off_c, 0, 62, 59
1, 451864, Note_off_c, 0, 91, 61
1, 451873, Note_on_c, 0, 74, 91
1, 451876, Note_on_c, 0, 81, 88
1, 451903, Note_off_c, 0, 85, 60
1, 451906, Note_off_c, 0, 66, 59
1, 452013, Note_on_c, 0, 93, 77
1, 452043, Note_off_c, 0, 69, 30
1, 452077, Note_off_c, 0, 74, 61
1, 452096, Note_off_c, 0, 81, 36
1, 452106, Note_on_c, 0, 86, 84
1, 452143, Note_off_c, 0, 93, 57
1, 452199, Note_on_c, 0, 81, 84
1, 452206, Note_on_c, 0, 73, 85
1, 452207, Note_on_c, 0, 61, 78
1, 452208, Note_off_c, 0, 86, 61
1, 452288, Note_off_c, 0, 73, 63
1, 452289, Note_on_c, 0, 93, 81
1, 452341, Note_off_c, 0, 81, 41
1, 452347, Note_off_c, 0, 61, 59
1, 452369, Note_on_c, 0, 86, 86
1, 452418, Note_off_c, 0, 93, 51
1, 452464, Note_on_c, 0, 59, 78
1, 452464, Note_on_c, 0, 81, 84
1, 452467, Note_on_c, 0, 71, 84
1, 452482, Note_off_c, 0, 86, 63
1, 452553, Note_on_c, 0, 93, 82
1, 452585, Note_off_c, 0, 81, 56
1, 452598, Note_off_c, 0, 59, 59
1, 452602, Note_off_c, 0, 71, 60
1, 452634, Note_on_c, 0, 86, 87
1, 452666, Note_off_c, 0, 93, 62
1, 452717, Note_on_c, 0, 57, 88
1, 452726, Note_on_c, 0, 81, 85
1, 452744, Note_off_c, 0, 86, 62
1, 452764, Note_off_c, 0, 57, 62
1, 452791, Poly_aftertouch_c, 0, 69, 127
1, 452815, Note_on_c, 0, 93, 81
1, 452821, Poly_aftertouch_c, 0, 69, 0
1, 452826, Note_off_c, 0, 81, 61
1, 452885, Note_on_c, 0, 86, 81
1, 452903, Note_off_c, 0, 93, 66
1, 452997, Control_c, 0, 64, 71
1, 453009, Note_on_c, 0, 38, 84
1, 453012, Control_c, 0, 64, 44
1, 453012, Note_on_c, 0, 45, 92
1, 453021, Note_on_c, 0, 78, 82
1, 453022, Note_off_c, 0, 86, 59
1, 453027, Control_c, 0, 64, 0
1, 453071, Control_c, 0, 64, 54
1, 453085, Note_off_c, 0, 38, 64
1, 453086, Control_c, 0, 64, 82
1, 453089, Note_off_c, 0, 45, 64
1, 453101, Control_c, 0, 64, 127
1, 453146, Note_on_c, 0, 91, 76
1, 453169, Note_off_c, 0, 78, 40
1, 453237, Note_on_c, 0, 85, 81
1, 453241, Note_off_c, 0, 91, 49
1, 453328, Note_on_c, 0, 76, 83
1, 453355, Note_off_c, 0, 85, 60
1, 453389, Note_off_c, 0, 76, 61
1, 453412, Note_on_c, 0, 91, 81
1, 453444, Note_on_c, 0, 62, 68
1, 453479, Note_on_c, 0, 66, 76
1, 453510, Note_on_c, 0, 85, 76
1, 453518, Note_on_c, 0, 69, 68
1, 453542, Note_off_c, 0, 62, 60
1, 453580, Note_off_c, 0, 91, 58
1, 453590, Note_on_c, 0, 74, 89
1, 453604, Note_on_c, 0, 81, 82
1, 453614, Note_off_c, 0, 66, 56
1, 453618, Note_off_c, 0, 85, 63
1, 453706, Note_on_c, 0, 93, 83
1, 453741, Note_off_c, 0, 74, 59
1, 453771, Note_off_c, 0, 81, 47
1, 453780, Note_off_c, 0, 69, 34
1, 453789, Note_on_c, 0, 86, 83
1, 453828, Note_off_c, 0, 93, 60
1, 453876, Note_on_c, 0, 81, 84
1, 453879, Note_on_c, 0, 61, 80
1, 453879, Note_on_c, 0, 73, 85
1, 453888, Note_off_c, 0, 86, 63
1, 453960, Note_on_c, 0, 93, 79
1, 453983, Note_off_c, 0, 73, 62
1, 453989, Note_off_c, 0, 81, 56
1, 454030, Note_off_c, 0, 61, 59
1, 454042, Note_on_c, 0, 86, 81
1, 454084, Note_off_c, 0, 93, 60
1, 454132, Note_on_c, 0, 59, 78
1, 454133, Note_on_c, 0, 71, 84
1, 454136, Note_on_c, 0, 81, 79
1, 454147, Note_off_c, 0, 86, 63
1, 454153, Poly_aftertouch_c, 0, 66, 0
1, 454219, Note_on_c, 0, 93, 81
1, 454249, Note_off_c, 0, 81, 58
1, 454267, Note_off_c, 0, 59, 60
1, 454271, Note_off_c, 0, 71, 58
1, 454310, Note_on_c, 0, 86, 84
1, 454339, Note_off_c, 0, 93, 60
1, 454387, Note_on_c, 0, 57, 88
1, 454403, Note_on_c, 0, 81, 78
1, 454419, Note_off_c, 0, 86, 62
1, 454431, Note_off_c, 0, 57, 62
1, 454481, Note_on_c, 0, 93, 78
1, 454490, Note_off_c, 0, 81, 61
1, 454547, Note_on_c, 0, 86, 78
1, 454565, Note_off_c, 0, 93, 65
1, 454628, Control_c, 0, 64, 114
1, 454642, Control_c, 0, 64, 72
1, 454652, Note_on_c, 0, 38, 87
1, 454653, Note_on_c, 0, 45, 96
1, 454657, Control_c, 0, 64, 50
1, 454664, Note_on_c, 0, 78, 84
1, 454671, Note_off_c, 0, 86, 61
1, 454672, Control_c, 0, 64, 0
1, 454702, Control_c, 0, 64, 48
1, 454717, Control_c, 0, 64, 70
1, 454717, Note_off_c, 0, 45, 62
1, 454724, Note_off_c, 0, 38, 63
1, 454732, Control_c, 0, 64, 127
1, 454782, Note_on_c, 0, 91, 77
1, 454793, Note_off_c, 0, 78, 52
1, 454860, Note_off_c, 0, 91, 57
1, 454863, Note_on_c, 0, 85, 79
1, 454944, Note_on_c, 0, 76, 82
1, 454962, Note_off_c, 0, 85, 62
1, 455007, Note_off_c, 0, 76, 59
1, 455026, Note_on_c, 0, 91, 79
1, 455068, Note_on_c, 0, 62, 69
1, 455100, Note_on_c, 0, 66, 68
1, 455120, Note_on_c, 0, 69, 68
1, 455131, Note_on_c, 0, 85, 69
1, 455152, Note_off_c, 0, 62, 60
1, 455194, Note_on_c, 0, 74, 83
1, 455194, Note_off_c, 0, 91, 55
1, 455209, Note_off_c, 0, 66, 61
1, 455215, Note_on_c, 0, 81, 78
1, 455227, Note_off_c, 0, 85, 63
1, 455307, Note_on_c, 0, 93, 78
1, 455331, Note_off_c, 0, 74, 60
1, 455357, Note_off_c, 0, 81, 36
1, 455380, Note_off_c, 0, 69, 37
1, 455382, Note_on_c, 0, 86, 80
1, 455423, Note_off_c, 0, 93, 58
1, 455465, Note_on_c, 0, 61, 78
1, 455465, Note_on_c, 0, 73, 87
1, 455467, Note_on_c, 0, 81, 82
1, 455481, Note_off_c, 0, 86, 63
1, 455551, Note_on_c, 0, 93, 79
1, 455571, Note_off_c, 0, 73, 61
1, 455580, Note_off_c, 0, 81, 58
1, 455623, Note_off_c, 0, 61, 60
1, 455634, Note_on_c, 0, 86, 82
1, 455683, Note_off_c, 0, 93, 54
1, 455714, Note_on_c, 0, 59, 79
1, 455716, Note_on_c, 0, 71, 83
1, 455723, Note_on_c, 0, 81, 84
1, 455726, Poly_aftertouch_c, 0, 66, 127
1, 455738, Note_off_c, 0, 86, 63
1, 455752, Poly_aftertouch_c, 0, 66, 0
1, 455809, Note_on_c, 0, 93, 83
1, 455844, Note_off_c, 0, 81, 61
1, 455856, Note_off_c, 0, 71, 59
1, 455863, Note_off_c, 0, 59, 58
1, 455897, Note_on_c, 0, 86, 83
1, 455933, Note_off_c, 0, 93, 63
1, 455965, Note_on_c, 0, 57, 87
1, 455979, Note_on_c, 0, 81, 87
1, 455996, Note_off_c, 0, 86, 63
1, 456010, Note_off_c, 0, 57, 64
1, 456045, Poly_aftertouch_c, 0, 69, 0
1, 456055, Note_on_c, 0, 93, 85
1, 456066, Poly_aftertouch_c, 0, 69, 0
1, 456072, Note_off_c, 0, 81, 63
1, 456117, Note_on_c, 0, 86, 81
1, 456143, Note_off_c, 0, 93, 64
1, 456213, Control_c, 0, 64, 94
1, 456228, Control_c, 0, 64, 66
1, 456233, Note_on_c, 0, 38, 76
1, 456236, Note_on_c, 0, 78, 96
1, 456243, Note_on_c, 0, 45, 75
1, 456243, Control_c, 0, 64, 43
1, 456258, Control_c, 0, 64, 0
1, 456288, Control_c, 0, 64, 53
1, 456295, Note_off_c, 0, 38, 63
1, 456298, Note_off_c, 0, 86, 57
1, 456301, Note_off_c, 0, 45, 63
1, 456303, Control_c, 0, 64, 75
1, 456318, Control_c, 0, 64, 127
1, 456367, Note_on_c, 0, 91, 68
1, 456406, Note_off_c, 0, 78, 56
1, 456461, Note_off_c, 0, 91, 58
1, 456461, Note_on_c, 0, 85, 76
1, 456540, Note_on_c, 0, 76, 90
1, 456572, Note_off_c, 0, 85, 61
1, 456622, Note_on_c, 0, 91, 82
1, 456622, Note_off_c, 0, 76, 57
1, 456669, Note_on_c, 0, 62, 67
1, 456698, Note_on_c, 0, 66, 69
1, 456718, Note_on_c, 0, 85, 71
1, 456727, Note_on_c, 0, 70, 43
1, 456743, Note_on_c, 0, 69, 70
1, 456765, Note_off_c, 0, 70, 49
1, 456771, Note_off_c, 0, 62, 60
1, 456792, Note_on_c, 0, 74, 94
1, 456792, Note_off_c, 0, 91, 59
1, 456804, Note_on_c, 0, 81, 87
1, 456828, Note_off_c, 0, 85, 61
1, 456841, Note_off_c, 0, 66, 56
1, 456921, Note_on_c, 0, 93, 81
1, 456970, Note_off_c, 0, 74, 58
1, 456986, Note_off_c, 0, 81, 48
1, 457000, Note_off_c, 0, 69, 37
1, 457009, Note_on_c, 0, 86, 86
1, 457044, Note_off_c, 0, 93, 55
1, 457096, Note_on_c, 0, 81, 86
1, 457102, Note_on_c, 0, 61, 80
1, 457102, Note_on_c, 0, 73, 84
1, 457116, Note_off_c, 0, 86, 62
1, 457192, Note_on_c, 0, 93, 80
1, 457200, Note_off_c, 0, 73, 63
1, 457234, Note_off_c, 0, 81, 46
1, 457251, Note_off_c, 0, 61, 61
1, 457273, Note_on_c, 0, 86, 84
1, 457355, Control_c, 0, 64, 98
1, 457362, Note_off_c, 0, 93, 55
1, 457370, Note_on_c, 0, 59, 79
1, 457370, Control_c, 0, 64, 88
1, 457374, Note_on_c, 0, 71, 89
1, 457385, Control_c, 0, 64, 87
1, 457388, Note_on_c, 0, 81, 82
1, 457403, Note_off_c, 0, 86, 62
1, 457415, Control_c, 0, 64, 91
1, 457430, Control_c, 0, 64, 106
1, 457444, Control_c, 0, 64, 127
1, 457480, Note_on_c, 0, 93, 86
1, 457534, Note_off_c, 0, 71, 54
1, 457552, Note_off_c, 0, 59, 59
1, 457554, Note_off_c, 0, 81, 48
1, 457564, Note_on_c, 0, 86, 89
1, 457623, Control_c, 0, 64, 122
1, 457638, Control_c, 0, 64, 85
1, 457646, Note_off_c, 0, 93, 53
1, 457653, Control_c, 0, 64, 71
1, 457668, Control_c, 0, 64, 65
1, 457674, Note_on_c, 0, 69, 86
1, 457677, Note_on_c, 0, 57, 87
1, 457683, Control_c, 0, 64, 64
1, 457688, Note_on_c, 0, 81, 77
1, 457698, Control_c, 0, 64, 68
1, 457700, Note_off_c, 0, 86, 61
1, 457712, Control_c, 0, 64, 74
1, 457727, Control_c, 0, 64, 85
1, 457740, Note_off_c, 0, 57, 63
1, 457742, Control_c, 0, 64, 107
1, 457757, Control_c, 0, 64, 127
1, 457767, Note_off_c, 0, 69, 61
1, 457796, Note_on_c, 0, 93, 87
1, 457846, Note_off_c, 0, 81, 58
1, 457903, Note_on_c, 0, 86, 95
1, 457944, Note_off_c, 0, 93, 47
1, 458028, Note_off_c, 0, 86, 62
1, 458054, Note_on_c, 0, 82, 102
1, 458074, Control_c, 0, 64, 109
1, 458089, Control_c, 0, 64, 79
1, 458103, Control_c, 0, 64, 66
1, 458118, Control_c, 0, 64, 62
1, 458133, Control_c, 0, 64, 64
1, 458148, Control_c, 0, 64, 69
1, 458163, Control_c, 0, 64, 77
1, 458178, Control_c, 0, 64, 97
1, 458193, Control_c, 0, 64, 127
1, 458257, Note_on_c, 0, 90, 98
1, 458345, Note_on_c, 0, 78, 86
1, 458361, Note_off_c, 0, 82, 59
1, 458413, Note_on_c, 0, 94, 96
1, 458446, Control_c, 0, 64, 103
1, 458452, Note_off_c, 0, 90, 62
1, 458460, Control_c, 0, 64, 80
1, 458475, Control_c, 0, 64, 68
1, 458490, Control_c, 0, 64, 66
1, 458505, Control_c, 0, 64, 70
1, 458509, Note_off_c, 0, 78, 62
1, 458518, Note_on_c, 0, 81, 95
1, 458520, Control_c, 0, 64, 80
1, 458534, Control_c, 0, 64, 110
1, 458549, Control_c, 0, 64, 127
1, 458572, Note_off_c, 0, 94, 54
1, 458631, Note_on_c, 0, 86, 83
1, 458692, Note_off_c, 0, 81, 52
1, 458693, Note_on_c, 0, 74, 86
1, 458720, Note_off_c, 0, 86, 54
1, 458726, Control_c, 0, 64, 79
1, 458741, Control_c, 0, 64, 59
1, 458742, Note_on_c, 0, 95, 72
1, 458756, Control_c, 0, 64, 39
1, 458779, Control_c, 0, 64, 41
1, 458783, Note_on_c, 0, 93, 38
1, 458794, Control_c, 0, 64, 56
1, 458808, Control_c, 0, 64, 70
1, 458819, Note_off_c, 0, 74, 62
1, 458822, Note_off_c, 0, 93, 33
1, 458823, Control_c, 0, 64, 97
1, 458834, Note_on_c, 0, 79, 91
1, 458838, Control_c, 0, 64, 127
1, 458856, Note_off_c, 0, 95, 61
1, 458926, Note_on_c, 0, 86, 82
1, 458929, Note_off_c, 0, 79, 58
1, 458955, Note_on_c, 0, 74, 77
1, 459001, Control_c, 0, 64, 95
1, 459015, Control_c, 0, 64, 70
1, 459018, Note_on_c, 0, 91, 83
1, 459030, Control_c, 0, 64, 58
1, 459042, Note_off_c, 0, 86, 49
1, 459045, Control_c, 0, 64, 54
1, 459060, Control_c, 0, 64, 60
1, 459075, Control_c, 0, 64, 72
1, 459082, Note_on_c, 0, 78, 86
1, 459090, Control_c, 0, 64, 105
1, 459105, Control_c, 0, 64, 127
1, 459125, Note_off_c, 0, 74, 60
1, 459125, Note_off_c, 0, 91, 63
1, 459173, Note_on_c, 0, 81, 79
1, 459209, Control_c, 0, 64, 91
1, 459216, Note_on_c, 0, 69, 81
1, 459224, Control_c, 0, 64, 73
1, 459239, Control_c, 0, 64, 68
1, 459251, Note_off_c, 0, 78, 61
1, 459254, Control_c, 0, 64, 72
1, 459256, Note_on_c, 0, 90, 76
1, 459269, Control_c, 0, 64, 89
1, 459283, Control_c, 0, 64, 127
1, 459284, Note_off_c, 0, 81, 60
1, 459314, Note_off_c, 0, 90, 63
1, 459319, Note_off_c, 0, 69, 59
1, 459334, Note_on_c, 0, 76, 89
1, 459401, Note_on_c, 0, 81, 77
1, 459447, Control_c, 0, 64, 68
1, 459456, Note_on_c, 0, 69, 70
1, 459462, Control_c, 0, 64, 0
1, 459486, Note_off_c, 0, 81, 58
1, 459492, Note_off_c, 0, 76, 56
1, 459497, Note_on_c, 0, 88, 82
1, 459506, Control_c, 0, 64, 31
1, 459528, Control_c, 0, 64, 57
1, 459543, Control_c, 0, 64, 69
1, 459558, Control_c, 0, 64, 79
1, 459573, Control_c, 0, 64, 99
1, 459582, Note_on_c, 0, 74, 82
1, 459584, Note_off_c, 0, 88, 65
1, 459588, Control_c, 0, 64, 127
1, 459594, Note_off_c, 0, 69, 53
1, 459656, Note_on_c, 0, 78, 74
1, 459691, Control_c, 0, 64, 90
1, 459706, Control_c, 0, 64, 68
1, 459707, Note_on_c, 0, 66, 72
1, 459721, Control_c, 0, 64, 56
1, 459736, Control_c, 0, 64, 52
1, 459743, Note_on_c, 0, 86, 71
1, 459749, Note_off_c, 0, 74, 57
1, 459750, Control_c, 0, 64, 58
1, 459765, Control_c, 0, 64, 68
1, 459780, Control_c, 0, 64, 81
1, 459782, Note_off_c, 0, 78, 58
1, 459795, Control_c, 0, 64, 127
1, 459824, Note_on_c, 0, 70, 81
1, 459824, Note_off_c, 0, 86, 59
1, 459850, Note_off_c, 0, 66, 57
1, 459883, Control_c, 0, 64, 97
1, 459889, Note_on_c, 0, 78, 76
1, 459898, Control_c, 0, 64, 72
1, 459913, Control_c, 0, 64, 60
1, 459928, Control_c, 0, 64, 54
1, 459943, Control_c, 0, 64, 59
1, 459952, Note_on_c, 0, 66, 75
1, 459959, Control_c, 0, 64, 67
1, 459963, Note_off_c, 0, 70, 59
1, 459973, Control_c, 0, 64, 83
1, 459988, Note_on_c, 0, 82, 78
1, 459988, Control_c, 0, 64, 127
1, 460006, Note_off_c, 0, 78, 51
1, 460021, Note_off_c, 0, 66, 62
1, 460059, Note_on_c, 0, 69, 82
1, 460067, Note_off_c, 0, 82, 62
1, 460077, Control_c, 0, 64, 96
1, 460092, Control_c, 0, 64, 75
1, 460106, Control_c, 0, 64, 65
1, 460121, Control_c, 0, 64, 65
1, 460136, Control_c, 0, 64, 70
1, 460145, Note_on_c, 0, 74, 66
1, 460151, Control_c, 0, 64, 82
1, 460166, Note_on_c, 0, 62, 75
1, 460166, Control_c, 0, 64, 127
1, 460189, Note_off_c, 0, 69, 47
1, 460229, Note_on_c, 0, 81, 78
1, 460240, Control_c, 0, 64, 118
1, 460241, Note_off_c, 0, 62, 60
1, 460255, Control_c, 0, 64, 80
1, 460277, Control_c, 0, 64, 62
1, 460291, Note_on_c, 0, 67, 76
1, 460291, Note_off_c, 0, 74, 62
1, 460292, Control_c, 0, 64, 54
1, 460306, Control_c, 0, 64, 56
1, 460320, Note_off_c, 0, 81, 61
1, 460321, Control_c, 0, 64, 63
1, 460336, Control_c, 0, 64, 70
1, 460351, Control_c, 0, 64, 83
1, 460366, Control_c, 0, 64, 127
1, 460377, Note_off_c, 0, 67, 61
1, 460387, Note_on_c, 0, 62, 68
1, 460394, Note_on_c, 0, 74, 70
1, 460473, Note_on_c, 0, 79, 78
1, 460499, Control_c, 0, 64, 81
1, 460500, Note_off_c, 0, 74, 58
1, 460514, Control_c, 0, 64, 55
1, 460522, Note_on_c, 0, 66, 79
1, 460529, Control_c, 0, 64, 0
1, 460563, Note_off_c, 0, 62, 60
1, 460588, Control_c, 0, 64, 43
1, 460603, Control_c, 0, 64, 60
1, 460610, Note_off_c, 0, 79, 58
1, 460616, Note_on_c, 0, 69, 68
1, 460618, Control_c, 0, 64, 67
1, 460632, Control_c, 0, 64, 76
1, 460647, Control_c, 0, 64, 91
1, 460661, Note_on_c, 0, 57, 72
1, 460662, Control_c, 0, 64, 127
1, 460703, Note_on_c, 0, 78, 72
1, 460703, Note_off_c, 0, 66, 60
1, 460735, Note_off_c, 0, 69, 54
1, 460750, Note_off_c, 0, 57, 59
1, 460754, Note_off_c, 0, 78, 61
1, 460846, Note_on_c, 0, 64, 66
1, 460855, Note_on_c, 0, 76, 86
1, 460855, Control_c, 0, 64, 104
1, 460870, Control_c, 0, 64, 75
1, 460885, Control_c, 0, 64, 60
1, 460900, Control_c, 0, 64, 39
1, 460915, Control_c, 0, 64, 0
1, 460959, Control_c, 0, 64, 45
1, 460974, Control_c, 0, 64, 56
1, 460989, Control_c, 0, 64, 63
1, 461004, Control_c, 0, 64, 67
1, 461026, Control_c, 0, 64, 72
1, 461039, Note_on_c, 0, 54, 48
1, 461041, Control_c, 0, 64, 76
1, 461046, Note_on_c, 0, 69, 55
1, 461055, Control_c, 0, 64, 82
1, 461057, Note_off_c, 0, 64, 54
1, 461070, Control_c, 0, 64, 90
1, 461085, Control_c, 0, 64, 102
1, 461100, Control_c, 0, 64, 127
1, 461115, Note_off_c, 0, 54, 59
1, 461127, Note_on_c, 0, 57, 52
1, 461141, Note_off_c, 0, 69, 59
1, 461148, Note_on_c, 0, 66, 58
1, 461165, Note_off_c, 0, 76, 34
1, 461174, Note_off_c, 0, 57, 59
1, 461215, Note_off_c, 0, 66, 57
1, 461224, Note_on_c, 0, 69, 54
1, 461227, Note_on_c, 0, 54, 54
1, 461262, Note_off_c, 0, 54, 65
1, 461280, Note_off_c, 0, 69, 61
1, 461282, Note_on_c, 0, 57, 65
1, 461287, Note_on_c, 0, 66, 59
1, 461349, Note_on_c, 0, 54, 60
1, 461352, Note_on_c, 0, 69, 67
1, 461354, Note_off_c, 0, 57, 56
1, 461406, Note_off_c, 0, 66, 55
1, 461436, Note_off_c, 0, 54, 60
1, 461457, Note_on_c, 0, 50, 66
1, 461462, Note_on_c, 0, 74, 84
1, 461479, Note_on_c, 0, 62, 56
1, 461485, Note_off_c, 0, 69, 55
1, 461485, Control_c, 0, 64, 92
1, 461500, Control_c, 0, 64, 74
1, 461515, Control_c, 0, 64, 60
1, 461529, Control_c, 0, 64, 41
1, 461545, Control_c, 0, 64, 0
1, 461590, Control_c, 0, 64, 31
1, 461605, Control_c, 0, 64, 46
1, 461616, Note_on_c, 0, 54, 49
1, 461617, Note_on_c, 0, 69, 58
1, 461619, Control_c, 0, 64, 57
1, 461634, Control_c, 0, 64, 64
1, 461648, Control_c, 0, 64, 68
1, 461662, Control_c, 0, 64, 72
1, 461673, Note_off_c, 0, 54, 60
1, 461677, Control_c, 0, 64, 75
1, 461683, Note_off_c, 0, 69, 56
1, 461692, Control_c, 0, 64, 78
1, 461707, Control_c, 0, 64, 84
1, 461719, Note_on_c, 0, 57, 46
1, 461722, Note_on_c, 0, 66, 45
1, 461722, Control_c, 0, 64, 89
1, 461737, Control_c, 0, 64, 108
1, 461752, Control_c, 0, 64, 127
1, 461760, Note_off_c, 0, 57, 60
1, 461777, Note_off_c, 0, 66, 60
1, 461805, Note_on_c, 0, 54, 47
1, 461809, Note_on_c, 0, 69, 54
1, 461833, Note_off_c, 0, 54, 61
1, 461852, Note_off_c, 0, 69, 61
1, 461869, Note_on_c, 0, 57, 50
1, 461875, Note_on_c, 0, 66, 63
1, 461908, Note_off_c, 0, 57, 62
1, 461922, Note_on_c, 0, 54, 60
1, 461926, Note_off_c, 0, 66, 54
1, 461951, Note_on_c, 0, 69, 64
1, 461974, Note_off_c, 0, 54, 58
1, 461987, Note_off_c, 0, 74, 25
1, 461994, Note_on_c, 0, 57, 63
1, 462013, Note_off_c, 0, 69, 61
1, 462026, Note_on_c, 0, 66, 69
1, 462041, Note_off_c, 0, 57, 60
1, 462071, Note_on_c, 0, 54, 56
1, 462072, Note_off_c, 0, 66, 54
1, 462087, Note_on_c, 0, 69, 64
1, 462111, Note_off_c, 0, 54, 62
1, 462122, Note_off_c, 0, 62, 38
1, 462133, Note_on_c, 0, 57, 63
1, 462149, Note_off_c, 0, 69, 61
1, 462157, Note_on_c, 0, 66, 69
1, 462170, Note_off_c, 0, 57, 62
1, 462188, Note_on_c, 0, 54, 60
1, 462211, Note_on_c, 0, 69, 61
1, 462215, Note_off_c, 0, 66, 62
1, 462247, Note_off_c, 0, 54, 63
1, 462268, Note_off_c, 0, 69, 62
1, 462268, Note_on_c, 0, 57, 53
1, 462273, Note_on_c, 0, 66, 61
1, 462324, Note_off_c, 0, 57, 54
1, 462330, Note_on_c, 0, 69, 64
1, 462333, Note_on_c, 0, 54, 70
1, 462360, Note_off_c, 0, 66, 60
1, 462412, Note_off_c, 0, 54, 59
1, 462441, Note_off_c, 0, 50, 40
1, 462442, Control_c, 0, 64, 87
1, 462445, Note_on_c, 0, 49, 80
1, 462445, Note_on_c, 0, 73, 89
1, 462456, Note_off_c, 0, 69, 62
1, 462457, Control_c, 0, 64, 66
1, 462464, Note_on_c, 0, 61, 63
1, 462472, Control_c, 0, 64, 52
1, 462487, Control_c, 0, 64, 37
1, 462501, Control_c, 0, 64, 31
1, 462524, Control_c, 0, 64, 34
1, 462539, Control_c, 0, 64, 43
1, 462554, Control_c, 0, 64, 55
1, 462568, Control_c, 0, 64, 64
1, 462583, Control_c, 0, 64, 71
1, 462598, Control_c, 0, 64, 80
1, 462605, Note_off_c, 0, 73, 61
1, 462613, Control_c, 0, 64, 91
1, 462621, Note_on_c, 0, 66, 63
1, 462627, Note_on_c, 0, 50, 57
1, 462627, Control_c, 0, 64, 104
1, 462632, Note_off_c, 0, 49, 55
1, 462642, Control_c, 0, 64, 127
1, 462695, Note_off_c, 0, 50, 59
1, 462700, Note_off_c, 0, 66, 60
1, 462709, Note_on_c, 0, 62, 60
1, 462712, Note_on_c, 0, 54, 56
1, 462730, Note_off_c, 0, 61, 36
1, 462759, Note_off_c, 0, 54, 58
1, 462780, Note_on_c, 0, 50, 59
1, 462783, Note_off_c, 0, 62, 59
1, 462787, Note_on_c, 0, 66, 60
1, 462820, Note_off_c, 0, 50, 60
1, 462835, Note_off_c, 0, 66, 59
1, 462855, Note_on_c, 0, 62, 57
1, 462855, Note_on_c, 0, 54, 61
1, 462910, Note_off_c, 0, 54, 53
1, 462926, Note_on_c, 0, 66, 69
1, 462939, Note_on_c, 0, 50, 66
1, 462965, Note_off_c, 0, 62, 54
1, 463040, Note_off_c, 0, 50, 57
1, 463043, Note_on_c, 0, 70, 86
1, 463045, Note_on_c, 0, 46, 71
1, 463055, Note_off_c, 0, 66, 55
1, 463057, Control_c, 0, 64, 112
1, 463064, Note_on_c, 0, 58, 58
1, 463072, Control_c, 0, 64, 91
1, 463087, Control_c, 0, 64, 73
1, 463101, Control_c, 0, 64, 59
1, 463116, Control_c, 0, 64, 0
1, 463181, Note_on_c, 0, 50, 49
1, 463187, Note_on_c, 0, 66, 57
1, 463236, Control_c, 0, 64, 45
1, 463243, Note_off_c, 0, 50, 58
1, 463250, Control_c, 0, 64, 58
1, 463258, Note_off_c, 0, 66, 62
1, 463272, Control_c, 0, 64, 64
1, 463287, Control_c, 0, 64, 68
1, 463294, Note_on_c, 0, 62, 46
1, 463295, Note_on_c, 0, 54, 28
1, 463302, Control_c, 0, 64, 72
1, 463317, Control_c, 0, 64, 76
1, 463332, Control_c, 0, 64, 81
1, 463332, Note_off_c, 0, 54, 50
1, 463336, Note_off_c, 0, 62, 62
1, 463347, Control_c, 0, 64, 85
1, 463356, Note_on_c, 0, 50, 54
1, 463362, Control_c, 0, 64, 91
1, 463367, Note_on_c, 0, 66, 43
1, 463376, Control_c, 0, 64, 97
1, 463391, Control_c, 0, 64, 102
1, 463401, Note_off_c, 0, 50, 59
1, 463406, Control_c, 0, 64, 107
1, 463412, Note_off_c, 0, 66, 60
1, 463421, Control_c, 0, 64, 113
1, 463430, Note_on_c, 0, 54, 51
1, 463436, Note_on_c, 0, 62, 52
1, 463436, Control_c, 0, 64, 120
1, 463451, Control_c, 0, 64, 127
1, 463474, Note_off_c, 0, 54, 61
1, 463480, Note_off_c, 0, 62, 59
1, 463504, Note_on_c, 0, 50, 58
1, 463511, Note_on_c, 0, 66, 56
1, 463548, Note_off_c, 0, 50, 57
1, 463548, Note_off_c, 0, 66, 59
1, 463549, Note_off_c, 0, 70, 35
1, 463576, Note_on_c, 0, 54, 55
1, 463594, Note_on_c, 0, 62, 52
1, 463619, Note_off_c, 0, 54, 59
1, 463626, Note_off_c, 0, 62, 63
1, 463652, Note_on_c, 0, 66, 64
1, 463661, Note_on_c, 0, 50, 50
1, 463678, Note_off_c, 0, 58, 37
1, 463690, Note_off_c, 0, 50, 62
1, 463701, Note_on_c, 0, 54, 63
1, 463703, Note_off_c, 0, 66, 59
1, 463706, Note_on_c, 0, 62, 57
1, 463749, Note_off_c, 0, 54, 59
1, 463770, Note_on_c, 0, 66, 57
1, 463770, Note_off_c, 0, 62, 61
1, 463775, Note_on_c, 0, 50, 66
1, 463826, Note_off_c, 0, 50, 60
1, 463844, Note_off_c, 0, 66, 61
1, 463847, Note_on_c, 0, 54, 63
1, 463863, Note_on_c, 0, 62, 56
1, 463883, Note_off_c, 0, 54, 61
1, 463904, Note_on_c, 0, 50, 58
1, 463932, Note_on_c, 0, 66, 56
1, 463957, Note_off_c, 0, 46, 44
1, 463963, Note_on_c, 0, 54, 63
1, 463963, Note_off_c, 0, 50, 60
1, 464041, Note_off_c, 0, 54, 61
1, 464050, Note_on_c, 0, 50, 60
1, 464081, Control_c, 0, 64, 114
1, 464096, Control_c, 0, 64, 97
1, 464111, Control_c, 0, 64, 81
1, 464114, Note_on_c, 0, 71, 82
1, 464115, Note_on_c, 0, 47, 79
1, 464125, Note_off_c, 0, 50, 61
1, 464126, Control_c, 0, 64, 66
1, 464128, Note_on_c, 0, 59, 59
1, 464138, Note_off_c, 0, 66, 59
1, 464141, Control_c, 0, 64, 49
1, 464155, Control_c, 0, 64, 0
1, 464170, Note_off_c, 0, 62, 18
1, 464243, Note_on_c, 0, 50, 59
1, 464244, Control_c, 0, 64, 44
1, 464259, Control_c, 0, 64, 60
1, 464274, Control_c, 0, 64, 67
1, 464278, Note_on_c, 0, 66, 57
1, 464289, Control_c, 0, 64, 72
1, 464292, Note_off_c, 0, 50, 61
1, 464296, Note_off_c, 0, 59, 55
1, 464304, Control_c, 0, 64, 77
1, 464310, Note_off_c, 0, 71, 62
1, 464318, Control_c, 0, 64, 83
1, 464329, Note_on_c, 0, 54, 49
1, 464333, Control_c, 0, 64, 91
1, 464348, Control_c, 0, 64, 106
1, 464363, Control_c, 0, 64, 127
1, 464366, Note_off_c, 0, 54, 61
1, 464369, Note_off_c, 0, 66, 61
1, 464386, Note_on_c, 0, 62, 48
1, 464403, Note_on_c, 0, 50, 57
1, 464448, Note_off_c, 0, 50, 59
1, 464460, Note_off_c, 0, 62, 59
1, 464463, Note_on_c, 0, 66, 56
1, 464473, Note_on_c, 0, 54, 50
1, 464509, Note_off_c, 0, 66, 58
1, 464538, Note_off_c, 0, 54, 48
1, 464542, Note_off_c, 0, 47, 56
1, 464551, Note_on_c, 0, 50, 58
1, 464564, Note_on_c, 0, 62, 52
1, 464613, Note_off_c, 0, 50, 55
1, 464644, Note_on_c, 0, 66, 51
1, 464697, Note_on_c, 0, 44, 69
1, 464726, Note_on_c, 0, 68, 79
1, 464749, Note_off_c, 0, 66, 48
1, 464751, Note_on_c, 0, 56, 46
1, 464772, Control_c, 0, 64, 118
1, 464786, Control_c, 0, 64, 102
1, 464801, Control_c, 0, 64, 92
1, 464805, Note_off_c, 0, 62, 20
1, 464816, Control_c, 0, 64, 84
1, 464831, Control_c, 0, 64, 76
1, 464846, Control_c, 0, 64, 69
1, 464854, Note_on_c, 0, 50, 51
1, 464861, Control_c, 0, 64, 62
1, 464876, Control_c, 0, 64, 53
1, 464891, Control_c, 0, 64, 41
1, 464892, Note_on_c, 0, 66, 50
1, 464905, Control_c, 0, 64, 0
1, 464915, Note_off_c, 0, 50, 56
1, 464936, Note_off_c, 0, 66, 61
1, 464952, Note_on_c, 0, 54, 37
1, 464968, Note_on_c, 0, 62, 40
1, 464992, Note_off_c, 0, 54, 55
1, 465015, Note_off_c, 0, 62, 61
1, 465023, Control_c, 0, 64, 41
1, 465032, Note_on_c, 0, 50, 48
1, 465038, Control_c, 0, 64, 50
1, 465041, Note_on_c, 0, 66, 55
1, 465053, Control_c, 0, 64, 58
1, 465068, Control_c, 0, 64, 61
1, 465079, Note_off_c, 0, 50, 60
1, 465082, Note_off_c, 0, 66, 60
1, 465083, Control_c, 0, 64, 63
1, 465088, Note_off_c, 0, 68, 49
1, 465095, Note_on_c, 0, 54, 58
1, 465097, Control_c, 0, 64, 65
1, 465112, Control_c, 0, 64, 67
1, 465117, Note_on_c, 0, 62, 52
1, 465127, Control_c, 0, 64, 70
1, 465138, Note_off_c, 0, 54, 62
1, 465141, Control_c, 0, 64, 73
1, 465156, Control_c, 0, 64, 78
1, 465157, Note_off_c, 0, 62, 62
1, 465171, Control_c, 0, 64, 82
1, 465178, Note_on_c, 0, 50, 59
1, 465181, Note_on_c, 0, 66, 59
1, 465186, Control_c, 0, 64, 88
1, 465201, Control_c, 0, 64, 95
1, 465216, Control_c, 0, 64, 105
1, 465222, Note_off_c, 0, 50, 60
1, 465231, Control_c, 0, 64, 127
1, 465236, Note_off_c, 0, 56, 37
1, 465240, Note_on_c, 0, 54, 58
1, 465257, Note_off_c, 0, 66, 60
1, 465264, Note_on_c, 0, 62, 63
1, 465294, Note_off_c, 0, 54, 61
1, 465314, Note_on_c, 0, 50, 65
1, 465317, Note_on_c, 0, 66, 54
1, 465322, Note_off_c, 0, 62, 57
1, 465371, Note_off_c, 0, 50, 62
1, 465381, Note_on_c, 0, 54, 58
1, 465397, Note_on_c, 0, 62, 52
1, 465415, Note_off_c, 0, 66, 61
1, 465424, Note_off_c, 0, 54, 62
1, 465441, Note_on_c, 0, 50, 60
1, 465484, Note_on_c, 0, 65, 3
1, 465500, Note_off_c, 0, 50, 61
1, 465504, Note_on_c, 0, 54, 60
1, 465529, Note_off_c, 0, 65, 52
1, 465560, Note_on_c, 0, 66, 53
1, 465569, Note_on_c, 0, 50, 67
1, 465582, Note_off_c, 0, 54, 59
1, 465598, Note_off_c, 0, 44, 58
1, 465613, Note_off_c, 0, 62, 54
1, 465684, Control_c, 0, 64, 97
1, 465688, Note_on_c, 0, 49, 83
1, 465690, Note_on_c, 0, 73, 90
1, 465699, Control_c, 0, 64, 76
1, 465702, Note_off_c, 0, 66, 59
1, 465705, Note_off_c, 0, 50, 51
1, 465708, Note_on_c, 0, 61, 61
1, 465714, Control_c, 0, 64, 63
1, 465728, Control_c, 0, 64, 52
1, 465743, Control_c, 0, 64, 44
1, 465758, Control_c, 0, 64, 44
1, 465772, Control_c, 0, 64, 46
1, 465787, Control_c, 0, 64, 50
1, 465802, Control_c, 0, 64, 54
1, 465817, Control_c, 0, 64, 59
1, 465829, Note_on_c, 0, 66, 63
1, 465832, Control_c, 0, 64, 64
1, 465833, Note_on_c, 0, 50, 59
1, 465846, Control_c, 0, 64, 70
1, 465861, Control_c, 0, 64, 77
1, 465876, Control_c, 0, 64, 86
1, 465879, Note_off_c, 0, 73, 60
1, 465883, Note_off_c, 0, 50, 61
1, 465891, Control_c, 0, 64, 99
1, 465906, Control_c, 0, 64, 127
1, 465912, Note_off_c, 0, 66, 61
1, 465915, Note_on_c, 0, 54, 48
1, 465916, Note_on_c, 0, 62, 59
1, 465948, Note_off_c, 0, 54, 57
1, 465971, Note_off_c, 0, 62, 57
1, 465990, Note_off_c, 0, 61, 28
1, 465996, Note_on_c, 0, 66, 54
1, 465999, Note_on_c, 0, 50, 60
1, 466038, Note_off_c, 0, 66, 60
1, 466046, Note_off_c, 0, 50, 60
1, 466059, Note_on_c, 0, 54, 48
1, 466079, Note_on_c, 0, 62, 57
1, 466121, Note_off_c, 0, 54, 52
1, 466140, Note_on_c, 0, 66, 64
1, 466153, Note_on_c, 0, 50, 59
1, 466198, Note_off_c, 0, 62, 50
1, 466244, Note_off_c, 0, 49, 37
1, 466285, Note_off_c, 0, 50, 37
1, 466301, Note_on_c, 0, 70, 81
1, 466316, Note_on_c, 0, 46, 65
1, 466320, Note_on_c, 0, 58, 60
1, 466322, Note_off_c, 0, 66, 53
1, 466342, Control_c, 0, 64, 102
1, 466357, Control_c, 0, 64, 84
1, 466372, Control_c, 0, 64, 70
1, 466387, Control_c, 0, 64, 58
1, 466402, Control_c, 0, 64, 38
1, 466417, Control_c, 0, 64, 0
1, 466440, Note_on_c, 0, 50, 49
1, 466455, Note_on_c, 0, 66, 56
1, 466495, Note_off_c, 0, 50, 59
1, 466512, Note_off_c, 0, 66, 59
1, 466536, Control_c, 0, 64, 44
1, 466542, Note_on_c, 0, 62, 47
1, 466543, Note_on_c, 0, 54, 26
1, 466550, Control_c, 0, 64, 57
1, 466565, Control_c, 0, 64, 63
1, 466580, Control_c, 0, 64, 65
1, 466583, Note_off_c, 0, 54, 49
1, 466588, Note_off_c, 0, 62, 60
1, 466594, Control_c, 0, 64, 67
1, 466596, Note_on_c, 0, 50, 58
1, 466609, Control_c, 0, 64, 69
1, 466617, Note_on_c, 0, 66, 51
1, 466624, Control_c, 0, 64, 71
1, 466639, Control_c, 0, 64, 75
1, 466654, Control_c, 0, 64, 81
1, 466658, Note_off_c, 0, 50, 57
1, 466661, Note_off_c, 0, 66, 61
1, 466668, Control_c, 0, 64, 87
1, 466675, Note_on_c, 0, 54, 56
1, 466683, Control_c, 0, 64, 93
1, 466684, Note_on_c, 0, 62, 58
1, 466698, Control_c, 0, 64, 100
1, 466713, Control_c, 0, 64, 107
1, 466728, Note_off_c, 0, 54, 56
1, 466728, Control_c, 0, 64, 115
1, 466730, Note_off_c, 0, 62, 59
1, 466742, Control_c, 0, 64, 127
1, 466746, Note_on_c, 0, 50, 58
1, 466754, Note_on_c, 0, 66, 65
1, 466771, Note_off_c, 0, 70, 26
1, 466801, Note_off_c, 0, 66, 54
1, 466806, Note_off_c, 0, 50, 59
1, 466827, Note_on_c, 0, 62, 56
1, 466830, Note_on_c, 0, 54, 55
1, 466866, Note_off_c, 0, 58, 42
1, 466867, Note_off_c, 0, 54, 63
1, 466873, Note_off_c, 0, 62, 53
1, 466879, Note_on_c, 0, 50, 58
1, 466880, Note_on_c, 0, 66, 67
1, 466948, Note_off_c, 0, 50, 61
1, 466949, Note_on_c, 0, 54, 71
1, 466951, Note_off_c, 0, 66, 61
1, 466954, Note_on_c, 0, 62, 59
1, 466998, Note_off_c, 0, 62, 60
1, 467004, Note_on_c, 0, 66, 53
1, 467017, Note_off_c, 0, 54, 60
1, 467028, Note_on_c, 0, 50, 58
1, 467079, Note_off_c, 0, 66, 62
1, 467087, Note_off_c, 0, 50, 60
1, 467091, Note_on_c, 0, 54, 66
1, 467096, Note_on_c, 0, 62, 70
1, 467109, Note_off_c, 0, 46, 42
1, 467152, Note_on_c, 0, 50, 63
1, 467155, Note_off_c, 0, 54, 61
1, 467165, Note_on_c, 0, 66, 69
1, 467221, Note_off_c, 0, 62, 54
1, 467284, Control_c, 0, 64, 106
1, 467285, Note_on_c, 0, 47, 80
1, 467291, Note_on_c, 0, 71, 90
1, 467291, Note_off_c, 0, 50, 41
1, 467299, Control_c, 0, 64, 88
1, 467307, Note_on_c, 0, 59, 60
1, 467311, Note_off_c, 0, 66, 60
1, 467314, Control_c, 0, 64, 72
1, 467329, Control_c, 0, 64, 60
1, 467343, Control_c, 0, 64, 41
1, 467358, Control_c, 0, 64, 29
1, 467388, Control_c, 0, 64, 36
1, 467403, Control_c, 0, 64, 44
1, 467417, Control_c, 0, 64, 53
1, 467432, Control_c, 0, 64, 59
1, 467433, Note_on_c, 0, 50, 55
1, 467442, Note_on_c, 0, 66, 61
1, 467447, Control_c, 0, 64, 63
1, 467462, Control_c, 0, 64, 66
1, 467477, Control_c, 0, 64, 70
1, 467491, Control_c, 0, 64, 75
1, 467506, Control_c, 0, 64, 81
1, 467508, Note_off_c, 0, 59, 53
1, 467511, Note_off_c, 0, 50, 59
1, 467521, Control_c, 0, 64, 88
1, 467526, Note_on_c, 0, 54, 58
1, 467535, Control_c, 0, 64, 101
1, 467541, Note_off_c, 0, 71, 35
1, 467543, Note_on_c, 0, 62, 60
1, 467544, Note_off_c, 0, 66, 61
1, 467550, Control_c, 0, 64, 127
1, 467574, Note_off_c, 0, 54, 57
1, 467621, Note_on_c, 0, 50, 61
1, 467628, Note_on_c, 0, 66, 61
1, 467685, Note_off_c, 0, 50, 57
1, 467686, Note_off_c, 0, 62, 0
1, 467693, Note_on_c, 0, 54, 58
1, 467696, Note_off_c, 0, 66, 61
1, 467703, Note_on_c, 0, 62, 34
1, 467794, Note_off_c, 0, 54, 51
1, 467805, Note_on_c, 0, 50, 59
1, 467813, Note_off_c, 0, 47, 61
1, 467814, Note_on_c, 0, 66, 62
1, 467870, Note_off_c, 0, 50, 55
1, 467941, Note_on_c, 0, 44, 74
1, 467941, Note_off_c, 0, 62, 30
1, 467949, Note_on_c, 0, 68, 81
1, 467960, Control_c, 0, 64, 98
1, 467971, Note_off_c, 0, 66, 55
1, 467974, Control_c, 0, 64, 75
1, 467975, Note_on_c, 0, 56, 50
1, 467989, Control_c, 0, 64, 60
1, 468004, Control_c, 0, 64, 41
1, 468019, Control_c, 0, 64, 0
1, 468093, Control_c, 0, 64, 39
1, 468108, Control_c, 0, 64, 52
1, 468113, Note_on_c, 0, 50, 50
1, 468114, Note_on_c, 0, 66, 55
1, 468122, Control_c, 0, 64, 61
1, 468137, Control_c, 0, 64, 66
1, 468152, Control_c, 0, 64, 68
1, 468167, Control_c, 0, 64, 69
1, 468169, Note_off_c, 0, 50, 58
1, 468173, Note_off_c, 0, 66, 60
1, 468182, Control_c, 0, 64, 71
1, 468197, Control_c, 0, 64, 74
1, 468203, Note_on_c, 0, 62, 43
1, 468210, Note_on_c, 0, 54, 30
1, 468212, Control_c, 0, 64, 76
1, 468226, Control_c, 0, 64, 80
1, 468238, Note_off_c, 0, 62, 61
1, 468241, Control_c, 0, 64, 84
1, 468246, Note_off_c, 0, 54, 49
1, 468256, Control_c, 0, 64, 88
1, 468265, Note_on_c, 0, 66, 54
1, 468266, Note_on_c, 0, 50, 59
1, 468271, Control_c, 0, 64, 92
1, 468285, Control_c, 0, 64, 96
1, 468300, Control_c, 0, 64, 100
1, 468304, Note_off_c, 0, 66, 59
1, 468307, Note_off_c, 0, 50, 60
1, 468315, Control_c, 0, 64, 104
1, 468330, Note_on_c, 0, 62, 59
1, 468330, Control_c, 0, 64, 109
1, 468334, Note_on_c, 0, 54, 61
1, 468345, Control_c, 0, 64, 117
1, 468359, Control_c, 0, 64, 127
1, 468375, Note_off_c, 0, 54, 59
1, 468387, Note_off_c, 0, 62, 58
1, 468396, Note_off_c, 0, 68, 31
1, 468400, Note_on_c, 0, 66, 65
1, 468408, Note_on_c, 0, 50, 61
1, 468459, Note_off_c, 0, 50, 57
1, 468463, Note_off_c, 0, 66, 61
1, 468478, Note_on_c, 0, 62, 60
1, 468482, Note_on_c, 0, 54, 65
1, 468530, Note_off_c, 0, 54, 62
1, 468543, Note_off_c, 0, 62, 57
1, 468545, Note_on_c, 0, 66, 59
1, 468557, Note_off_c, 0, 56, 37
1, 468557, Note_on_c, 0, 50, 65
1, 468614, Note_off_c, 0, 66, 61
1, 468616, Note_off_c, 0, 50, 61
1, 468620, Note_on_c, 0, 54, 71
1, 468627, Note_on_c, 0, 62, 60
1, 468680, Note_off_c, 0, 54, 60
1, 468686, Note_on_c, 0, 66, 61
1, 468690, Note_on_c, 0, 50, 57
1, 468693, Note_off_c, 0, 62, 61
1, 468754, Note_off_c, 0, 66, 60
1, 468761, Note_off_c, 0, 50, 62
1, 468769, Note_on_c, 0, 54, 65
1, 468772, Note_on_c, 0, 62, 54
1, 468835, Note_off_c, 0, 54, 59
1, 468842, Note_on_c, 0, 50, 67
1, 468843, Note_off_c, 0, 44, 51
1, 468860, Note_on_c, 0, 66, 65
1, 468895, Note_off_c, 0, 62, 57
1, 468918, Note_off_c, 0, 50, 59
1, 468966, Note_on_c, 0, 47, 86
1, 468974, Note_on_c, 0, 71, 88
1, 468975, Control_c, 0, 64, 88
1, 468988, Note_off_c, 0, 66, 54
1, 468990, Note_on_c, 0, 59, 55
1, 468990, Control_c, 0, 64, 70
1, 469004, Control_c, 0, 64, 57
1, 469019, Control_c, 0, 64, 35
1, 469034, Control_c, 0, 64, 0
1, 469108, Control_c, 0, 64, 36
1, 469121, Note_on_c, 0, 66, 58
1, 469123, Control_c, 0, 64, 54
1, 469131, Note_on_c, 0, 50, 54
1, 469138, Control_c, 0, 64, 66
1, 469153, Control_c, 0, 64, 73
1, 469168, Control_c, 0, 64, 82
1, 469174, Note_off_c, 0, 59, 59
1, 469182, Control_c, 0, 64, 90
1, 469183, Note_off_c, 0, 71, 51
1, 469197, Control_c, 0, 64, 110
1, 469207, Note_off_c, 0, 50, 61
1, 469212, Control_c, 0, 64, 127
1, 469224, Note_on_c, 0, 54, 52
1, 469231, Note_off_c, 0, 66, 61
1, 469234, Note_on_c, 0, 62, 57
1, 469279, Note_off_c, 0, 54, 61
1, 469320, Note_on_c, 0, 50, 60
1, 469329, Note_off_c, 0, 62, 60
1, 469332, Note_on_c, 0, 66, 59
1, 469383, Note_off_c, 0, 47, 53
1, 469396, Note_on_c, 0, 54, 60
1, 469396, Note_off_c, 0, 50, 59
1, 469398, Note_off_c, 0, 66, 59
1, 469413, Note_on_c, 0, 62, 61
1, 469469, Note_off_c, 0, 54, 58
1, 469478, Note_on_c, 0, 66, 63
1, 469490, Note_on_c, 0, 50, 67
1, 469514, Note_off_c, 0, 62, 58
1, 469574, Note_off_c, 0, 50, 46
1, 469595, Note_on_c, 0, 44, 82
1, 469596, Note_on_c, 0, 68, 83
1, 469606, Control_c, 0, 64, 114
1, 469613, Note_off_c, 0, 66, 58
1, 469620, Control_c, 0, 64, 96
1, 469621, Note_on_c, 0, 56, 47
1, 469635, Control_c, 0, 64, 82
1, 469650, Control_c, 0, 64, 71
1, 469665, Control_c, 0, 64, 62
1, 469680, Control_c, 0, 64, 49
1, 469694, Control_c, 0, 64, 30
1, 469709, Control_c, 0, 64, 0
1, 469747, Note_on_c, 0, 50, 51
1, 469748, Note_on_c, 0, 66, 54
1, 469812, Control_c, 0, 64, 40
1, 469821, Note_off_c, 0, 66, 61
1, 469827, Control_c, 0, 64, 54
1, 469839, Note_off_c, 0, 50, 60
1, 469842, Control_c, 0, 64, 63
1, 469854, Note_on_c, 0, 54, 44
1, 469857, Note_on_c, 0, 62, 42
1, 469857, Control_c, 0, 64, 67
1, 469872, Control_c, 0, 64, 71
1, 469886, Control_c, 0, 64, 75
1, 469900, Note_off_c, 0, 62, 61
1, 469901, Control_c, 0, 64, 81
1, 469902, Note_off_c, 0, 54, 60
1, 469916, Control_c, 0, 64, 91
1, 469930, Note_on_c, 0, 50, 52
1, 469930, Control_c, 0, 64, 113
1, 469931, Note_on_c, 0, 66, 50
1, 469945, Control_c, 0, 64, 127
1, 469982, Note_off_c, 0, 66, 59
1, 470016, Note_off_c, 0, 50, 59
1, 470018, Note_on_c, 0, 54, 57
1, 470021, Note_on_c, 0, 62, 51
1, 470080, Note_off_c, 0, 54, 55
1, 470081, Note_off_c, 0, 62, 60
1, 470101, Note_on_c, 0, 66, 63
1, 470117, Note_on_c, 0, 50, 51
1, 470162, Note_off_c, 0, 68, 34
1, 470167, Note_off_c, 0, 66, 60
1, 470179, Note_off_c, 0, 50, 56
1, 470181, Note_off_c, 0, 56, 30
1, 470188, Note_on_c, 0, 62, 58
1, 470197, Note_on_c, 0, 54, 61
1, 470237, Note_off_c, 0, 62, 54
1, 470241, Note_off_c, 0, 54, 58
1, 470244, Note_on_c, 0, 66, 61
1, 470292, Note_on_c, 0, 50, 42
1, 470334, Note_off_c, 0, 50, 61
1, 470334, Note_off_c, 0, 66, 60
1, 470339, Note_on_c, 0, 62, 64
1, 470346, Note_on_c, 0, 54, 67
1, 470394, Note_on_c, 0, 66, 58
1, 470397, Note_off_c, 0, 62, 51
1, 470403, Note_off_c, 0, 54, 60
1, 470426, Note_on_c, 0, 50, 62
1, 470468, Note_off_c, 0, 66, 59
1, 470481, Note_off_c, 0, 50, 59
1, 470492, Note_on_c, 0, 62, 47
1, 470499, Note_on_c, 0, 54, 65
1, 470523, Note_off_c, 0, 44, 30
1, 470567, Note_on_c, 0, 50, 65
1, 470567, Note_off_c, 0, 54, 56
1, 470581, Note_on_c, 0, 66, 67
1, 470629, Note_off_c, 0, 62, 49
1, 470672, Note_off_c, 0, 50, 55
1, 470709, Control_c, 0, 64, 105
1, 470710, Note_on_c, 0, 47, 81
1, 470718, Note_on_c, 0, 71, 86
1, 470724, Control_c, 0, 64, 89
1, 470736, Note_on_c, 0, 59, 49
1, 470739, Control_c, 0, 64, 73
1, 470742, Note_off_c, 0, 66, 59
1, 470760, Control_c, 0, 64, 61
1, 470775, Control_c, 0, 64, 48
1, 470790, Control_c, 0, 64, 38
1, 470805, Control_c, 0, 64, 38
1, 470820, Control_c, 0, 64, 41
1, 470835, Control_c, 0, 64, 46
1, 470850, Control_c, 0, 64, 52
1, 470865, Control_c, 0, 64, 56
1, 470879, Control_c, 0, 64, 59
1, 470883, Note_on_c, 0, 66, 55
1, 470887, Note_on_c, 0, 50, 55
1, 470894, Control_c, 0, 64, 62
1, 470909, Control_c, 0, 64, 65
1, 470921, Note_off_c, 0, 71, 60
1, 470924, Control_c, 0, 64, 70
1, 470939, Control_c, 0, 64, 77
1, 470941, Note_off_c, 0, 59, 52
1, 470954, Control_c, 0, 64, 85
1, 470968, Control_c, 0, 64, 95
1, 470977, Note_off_c, 0, 50, 59
1, 470978, Note_on_c, 0, 62, 57
1, 470980, Note_off_c, 0, 66, 61
1, 470983, Control_c, 0, 64, 120
1, 470986, Note_on_c, 0, 54, 59
1, 470998, Control_c, 0, 64, 127
1, 471048, Note_off_c, 0, 54, 57
1, 471056, Note_off_c, 0, 62, 59
1, 471058, Note_on_c, 0, 66, 62
1, 471082, Note_on_c, 0, 50, 62
1, 471130, Note_off_c, 0, 66, 60
1, 471142, Note_on_c, 0, 62, 61
1, 471147, Note_off_c, 0, 47, 54
1, 471157, Note_off_c, 0, 50, 58
1, 471166, Note_on_c, 0, 54, 62
1, 471229, Note_on_c, 0, 66, 71
1, 471239, Note_off_c, 0, 54, 58
1, 471252, Note_on_c, 0, 50, 65
1, 471339, Control_c, 0, 64, 117
1, 471347, Note_on_c, 0, 68, 90
1, 471351, Note_on_c, 0, 44, 83
1, 471354, Control_c, 0, 64, 88
1, 471362, Note_on_c, 0, 56, 62
1, 471368, Note_off_c, 0, 50, 59
1, 471369, Control_c, 0, 64, 72
1, 471371, Note_off_c, 0, 66, 58
1, 471383, Control_c, 0, 64, 61
1, 471392, Note_off_c, 0, 62, 37
1, 471398, Control_c, 0, 64, 49
1, 471413, Control_c, 0, 64, 43
1, 471443, Control_c, 0, 64, 45
1, 471458, Control_c, 0, 64, 47
1, 471473, Control_c, 0, 64, 50
1, 471488, Control_c, 0, 64, 55
1, 471491, Note_on_c, 0, 66, 65
1, 471504, Note_on_c, 0, 50, 59
1, 471509, Control_c, 0, 64, 60
1, 471524, Control_c, 0, 64, 63
1, 471539, Control_c, 0, 64, 66
1, 471554, Control_c, 0, 64, 70
1, 471569, Control_c, 0, 64, 75
1, 471582, Note_off_c, 0, 50, 61
1, 471583, Control_c, 0, 64, 81
1, 471589, Note_off_c, 0, 66, 59
1, 471591, Note_off_c, 0, 68, 57
1, 471598, Note_on_c, 0, 54, 55
1, 471598, Note_on_c, 0, 62, 54
1, 471598, Control_c, 0, 64, 87
1, 471613, Control_c, 0, 64, 95
1, 471628, Control_c, 0, 64, 108
1, 471643, Control_c, 0, 64, 127
1, 471655, Note_off_c, 0, 54, 56
1, 471678, Note_off_c, 0, 62, 60
1, 471687, Note_on_c, 0, 66, 62
1, 471694, Note_on_c, 0, 50, 58
1, 471749, Note_off_c, 0, 56, 35
1, 471759, Note_off_c, 0, 66, 60
1, 471769, Note_off_c, 0, 50, 60
1, 471777, Note_on_c, 0, 54, 62
1, 471782, Note_on_c, 0, 62, 52
1, 471812, Note_off_c, 0, 44, 57
1, 471851, Note_off_c, 0, 54, 57
1, 471854, Note_on_c, 0, 50, 56
1, 471875, Note_on_c, 0, 66, 63
1, 471912, Note_off_c, 0, 62, 54
1, 471929, Note_off_c, 0, 50, 58
1, 471972, Note_on_c, 0, 47, 86
1, 471976, Note_on_c, 0, 71, 86
1, 471985, Control_c, 0, 64, 96
1, 471994, Note_on_c, 0, 59, 60
1, 471999, Control_c, 0, 64, 78
1, 472014, Control_c, 0, 64, 65
1, 472021, Note_off_c, 0, 66, 37
1, 472029, Control_c, 0, 64, 51
1, 472044, Control_c, 0, 64, 38
1, 472059, Control_c, 0, 64, 0
1, 472103, Control_c, 0, 64, 31
1, 472111, Note_on_c, 0, 50, 64
1, 472116, Note_on_c, 0, 66, 64
1, 472118, Control_c, 0, 64, 40
1, 472132, Control_c, 0, 64, 54
1, 472147, Control_c, 0, 64, 63
1, 472162, Control_c, 0, 64, 69
1, 472170, Note_off_c, 0, 71, 59
1, 472177, Control_c, 0, 64, 75
1, 472192, Control_c, 0, 64, 81
1, 472195, Note_off_c, 0, 59, 46
1, 472206, Control_c, 0, 64, 87
1, 472219, Note_on_c, 0, 62, 62
1, 472221, Control_c, 0, 64, 105
1, 472224, Note_on_c, 0, 54, 60
1, 472224, Note_off_c, 0, 66, 62
1, 472227, Note_off_c, 0, 50, 57
1, 472236, Control_c, 0, 64, 127
1, 472315, Note_off_c, 0, 54, 61
1, 472318, Note_on_c, 0, 66, 65
1, 472327, Note_off_c, 0, 62, 60
1, 472339, Note_on_c, 0, 50, 73
1, 472349, Note_off_c, 0, 47, 55
1, 472409, Note_off_c, 0, 66, 59
1, 472411, Note_on_c, 0, 62, 65
1, 472421, Note_off_c, 0, 50, 61
1, 472430, Note_on_c, 0, 54, 71
1, 472516, Note_on_c, 0, 66, 75
1, 472527, Note_on_c, 0, 50, 70
1, 472536, Note_off_c, 0, 54, 54
1, 472635, Note_on_c, 0, 44, 87
1, 472640, Note_on_c, 0, 68, 89
1, 472644, Control_c, 0, 64, 92
1, 472648, Note_off_c, 0, 50, 59
1, 472655, Note_on_c, 0, 56, 63
1, 472658, Control_c, 0, 64, 69
1, 472664, Note_off_c, 0, 66, 59
1, 472673, Control_c, 0, 64, 52
1, 472688, Control_c, 0, 64, 0
1, 472704, Note_off_c, 0, 62, 36
1, 472793, Note_on_c, 0, 50, 65
1, 472801, Note_on_c, 0, 66, 67
1, 472852, Control_c, 0, 64, 32
1, 472867, Control_c, 0, 64, 50
1, 472881, Control_c, 0, 64, 63
1, 472896, Control_c, 0, 64, 73
1, 472911, Control_c, 0, 64, 87
1, 472921, Note_on_c, 0, 62, 70
1, 472926, Control_c, 0, 64, 127
1, 472930, Note_on_c, 0, 54, 67
1, 472933, Note_off_c, 0, 50, 58
1, 472935, Note_off_c, 0, 66, 61
1, 473029, Note_off_c, 0, 54, 59
1, 473044, Note_on_c, 0, 50, 73
1, 473053, Note_on_c, 0, 66, 80
1, 473086, Note_off_c, 0, 62, 59
1, 473118, Note_off_c, 0, 68, 38
1, 473142, Note_off_c, 0, 56, 48
1, 473154, Note_on_c, 0, 54, 66
1, 473164, Note_off_c, 0, 50, 60
1, 473170, Note_on_c, 0, 62, 72
1, 473180, Note_off_c, 0, 66, 59
1, 473216, Note_off_c, 0, 44, 57
1, 473264, Note_off_c, 0, 54, 54
1, 473274, Note_on_c, 0, 50, 78
1, 473282, Note_on_c, 0, 66, 79
1, 473337, Note_off_c, 0, 62, 57
1, 473383, Note_off_c, 0, 50, 57
1, 473425, Note_on_c, 0, 45, 84
1, 473427, Note_on_c, 0, 69, 83
1, 473438, Note_on_c, 0, 57, 72
1, 473458, Note_off_c, 0, 66, 57
1, 473467, Control_c, 0, 64, 85
1, 473481, Control_c, 0, 64, 63
1, 473496, Control_c, 0, 64, 34
1, 473511, Control_c, 0, 64, 0
1, 473625, Note_on_c, 0, 66, 75
1, 473629, Note_on_c, 0, 50, 73
1, 473675, Control_c, 0, 64, 52
1, 473690, Control_c, 0, 64, 70
1, 473704, Control_c, 0, 64, 77
1, 473719, Control_c, 0, 64, 87
1, 473734, Control_c, 0, 64, 103
1, 473756, Control_c, 0, 64, 127
1, 473778, Note_on_c, 0, 54, 72
1, 473781, Note_on_c, 0, 62, 80
1, 473801, Note_off_c, 0, 50, 59
1, 473827, Note_off_c, 0, 66, 56
1, 473935, Note_off_c, 0, 54, 52
1, 473945, Note_on_c, 0, 50, 75
1, 473951, Note_on_c, 0, 66, 78
1, 473993, Note_off_c, 0, 62, 60
1, 474005, Note_off_c, 0, 45, 58
1, 474087, Note_off_c, 0, 57, 46
1, 474135, Note_off_c, 0, 50, 60
1, 474151, Note_on_c, 0, 54, 76
1, 474151, Note_on_c, 0, 62, 81
1, 474207, Note_off_c, 0, 66, 51
1, 474268, Note_off_c, 0, 54, 57
1, 474270, Note_off_c, 0, 69, 52
1, 474385, Note_on_c, 0, 50, 80
1, 474388, Note_on_c, 0, 66, 84
1, 474409, Note_off_c, 0, 62, 60
1, 474431, Note_off_c, 0, 50, 62
1, 474462, Note_off_c, 0, 66, 59
1, 474859, Note_on_c, 0, 26, 93
1, 474860, Note_on_c, 0, 38, 99
1, 474861, Note_on_c, 0, 78, 89
1, 474862, Note_on_c, 0, 69, 83
1, 474862, Note_on_c, 0, 66, 89
1, 474866, Note_on_c, 0, 74, 83
1, 474905, Control_c, 0, 64, 89
1, 474919, Control_c, 0, 64, 69
1, 474934, Control_c, 0, 64, 57
1, 474949, Control_c, 0, 64, 42
1, 474964, Control_c, 0, 64, 30
1, 474993, Control_c, 0, 64, 41
1, 475008, Control_c, 0, 64, 55
1, 475023, Control_c, 0, 64, 68
1, 475038, Control_c, 0, 64, 88
1, 475053, Control_c, 0, 64, 127
1, 475065, Note_off_c, 0, 26, 62
1, 475073, Note_off_c, 0, 78, 61
1, 475107, Note_off_c, 0, 74, 59
1, 475108, Note_off_c, 0, 69, 57
1, 475121, Note_off_c, 0, 38, 61
1, 475127, Note_off_c, 0, 66, 58
1, 475833, Note_on_c, 0, 57, 73
1, 475846, Note_on_c, 0, 45, 47
1, 476169, Note_on_c, 0, 62, 80
1, 476171, Note_on_c, 0, 50, 54
1, 476242, Note_off_c, 0, 45, 36
1, 476284, Note_off_c, 0, 57, 38
1, 476377, Note_off_c, 0, 50, 59
1, 476382, Note_on_c, 0, 54, 62
1, 476391, Note_on_c, 0, 66, 81
1, 476412, Note_off_c, 0, 62, 60
1, 476557, Note_off_c, 0, 54, 61
1, 476561, Note_off_c, 0, 66, 61
1, 476576, Note_on_c, 0, 57, 64
1, 476581, Note_on_c, 0, 69, 79
1, 476641, Note_off_c, 0, 57, 62
1, 476751, Note_on_c, 0, 62, 64
1, 476757, Note_on_c, 0, 74, 89
1, 476788, Note_off_c, 0, 69, 56
1, 476901, Note_off_c, 0, 62, 58
1, 476910, Note_on_c, 0, 78, 89
1, 476910, Note_on_c, 0, 66, 67
1, 476922, Note_off_c, 0, 74, 64
1, 477053, Note_off_c, 0, 66, 62
1, 477056, Note_off_c, 0, 78, 62
1, 477072, Note_on_c, 0, 69, 70
1, 477076, Note_on_c, 0, 81, 94
1, 477144, Note_off_c, 0, 69, 60
1, 477241, Note_on_c, 0, 86, 92
1, 477241, Note_on_c, 0, 74, 77
1, 477279, Note_off_c, 0, 81, 51
1, 477431, Note_on_c, 0, 90, 94
1, 477432, Note_on_c, 0, 78, 76
1, 477437, Note_off_c, 0, 74, 53
1, 477444, Note_off_c, 0, 86, 63
1, 477637, Note_off_c, 0, 90, 63
1, 477640, Note_off_c, 0, 78, 64
1, 477655, Note_on_c, 0, 93, 96
1, 477658, Note_on_c, 0, 81, 79
1, 477733, Note_off_c, 0, 81, 58
1, 477953, Note_off_c, 0, 93, 40
1, 477965, Note_on_c, 0, 90, 90
1, 477974, Note_on_c, 0, 86, 80
1, 477974, Note_on_c, 0, 102, 96
1, 477976, Note_on_c, 0, 98, 94
1, 478000, Note_off_c, 0, 86, 65
1, 478004, Note_off_c, 0, 90, 66
1, 478153, Note_off_c, 0, 98, 60
1, 478172, Note_off_c, 0, 102, 63
1, 479517, Control_c, 0, 64, 98
1, 479532, Control_c, 0, 64, 61
1, 479539, Note_on_c, 0, 64, 78
1, 479547, Note_on_c, 0, 54, 76
1, 479547, Control_c, 0, 64, 0
1, 479549, Note_on_c, 0, 59, 68
1, 479602, Note_on_c, 0, 69, 99
1, 479605, Note_on_c, 0, 81, 96
1, 479605, Note_on_c, 0, 76, 98
1, 479650, Control_c, 0, 64, 52
1, 479665, Control_c, 0, 64, 86
1, 479672, Note_off_c, 0, 64, 59
1, 479673, Note_off_c, 0, 54, 63
1, 479680, Control_c, 0, 64, 127
1, 479700, Note_off_c, 0, 59, 63
1, 479969, Note_off_c, 0, 69, 54
1, 480041, Note_off_c, 0, 81, 49
1, 480094, Note_off_c, 0, 76, 51
1, 480794, Note_on_c, 0, 74, 92
1, 480794, Note_on_c, 0, 78, 85
1, 480795, Note_on_c, 0, 81, 84
1, 480795, Note_on_c, 0, 86, 88
1, 480862, Note_on_c, 0, 69, 89
1, 480864, Note_on_c, 0, 66, 82
1, 480865, Note_on_c, 0, 57, 84
1, 480868, Note_on_c, 0, 62, 80
1, 480913, Note_off_c, 0, 86, 62
1, 480949, Note_off_c, 0, 74, 58
1, 480969, Note_off_c, 0, 81, 61
1, 480982, Note_off_c, 0, 78, 61
1, 481772, Note_off_c, 0, 69, 61
1, 481898, Note_off_c, 0, 66, 37
1, 482086, Note_off_c, 0, 62, 20
1, 482158, Note_off_c, 0, 57, 56
1, 482714, Note_on_c, 0, 26, 93
1, 483158, Note_on_c, 0, 62, 84
1, 483161, Note_on_c, 0, 54, 83
1, 483164, Note_on_c, 0, 50, 82
1, 483164, Note_on_c, 0, 38, 90
1, 483164, Note_on_c, 0, 57, 79
1, 483203, Control_c, 0, 64, 112
1, 483217, Control_c, 0, 64, 85
1, 483232, Control_c, 0, 64, 71
1, 483247, Control_c, 0, 64, 62
1, 483262, Control_c, 0, 64, 50
1, 483277, Control_c, 0, 64, 38
1, 483292, Control_c, 0, 64, 0
1, 489000, Control_c, 0, 64, 29
1, 489015, Control_c, 0, 64, 31
1, 489029, Control_c, 0, 64, 34
1, 489044, Control_c, 0, 64, 37
1, 489059, Control_c, 0, 64, 40
1, 489073, Control_c, 0, 64, 44
1, 489088, Control_c, 0, 64, 47
1, 489103, Control_c, 0, 64, 49
1, 489118, Control_c, 0, 64, 52
1, 489133, Control_c, 0, 64, 54
1, 489148, Control_c, 0, 64, 56
1, 489162, Control_c, 0, 64, 58
1, 489177, Control_c, 0, 64, 59
1, 489192, Control_c, 0, 64, 61
1, 489206, Control_c, 0, 64, 62
1, 489221, Control_c, 0, 64, 63
1, 489236, Control_c, 0, 64, 64
1, 489251, Control_c, 0, 64, 66
1, 489266, Control_c, 0, 64, 67
1, 489281, Control_c, 0, 64, 70
1, 489295, Control_c, 0, 64, 71
1, 489310, Control_c, 0, 64, 73
1, 489325, Control_c, 0, 64, 76
1, 489340, Control_c, 0, 64, 79
1, 489355, Control_c, 0, 64, 82
1, 489370, Control_c, 0, 64, 87
1, 489385, Control_c, 0, 64, 92
1, 489388, Poly_aftertouch_c, 0, 33, 127
1, 489399, Control_c, 0, 64, 100
1, 489406, Poly_aftertouch_c, 0, 30, 127
1, 489412, Poly_aftertouch_c, 0, 29, 127
1, 489414, Control_c, 0, 64, 110
1, 489429, Control_c, 0, 64, 127
1, 489850, Note_off_c, 0, 50, 55
1, 489939, Note_off_c, 0, 26, 39
1, 489949, Note_off_c, 0, 54, 57
1, 489950, Poly_aftertouch_c, 0, 33, 0
1, 489995, Poly_aftertouch_c, 0, 30, 0
1, 490079, Note_off_c, 0, 62, 31
1, 490085, Note_off_c, 0, 38, 40
1, 490132, Poly_aftertouch_c, 0, 29, 0
1, 490156, Note_off_c, 0, 57, 37
1, 490290, Control_c, 0, 64, 118
1, 490306, Control_c, 0, 64, 108
1, 490321, Control_c, 0, 64, 100
1, 490335, Control_c, 0, 64, 93
1, 490350, Control_c, 0, 64, 87
1, 490365, Control_c, 0, 64, 82
1, 490380, Control_c, 0, 64, 77
1, 490395, Control_c, 0, 64, 74
1, 490409, Control_c, 0, 64, 70
1, 490424, Control_c, 0, 64, 67
1, 490439, Control_c, 0, 64, 64
1, 490453, Control_c, 0, 64, 60
1, 490468, Control_c, 0, 64, 57
1, 490483, Control_c, 0, 64, 55
1, 490498, Control_c, 0, 64, 54
1, 490513, Control_c, 0, 64, 53
1, 490527, Control_c, 0, 64, 52
1, 490542, Control_c, 0, 64, 51
1, 490557, Control_c, 0, 64, 49
1, 490572, Control_c, 0, 64, 45
1, 490587, Control_c, 0, 64, 41
1, 490601, Control_c, 0, 64, 37
1, 490616, Control_c, 0, 64, 35
1, 490631, Control_c, 0, 64, 33
1, 490661, Control_c, 0, 64, 30
1, 490676, Control_c, 0, 64, 0
1, 492521, Control_c, 0, 64, 30
1, 492536, Control_c, 0, 64, 34
1, 492550, Control_c, 0, 64, 36
1, 492565, Control_c, 0, 64, 38
1, 492580, Control_c, 0, 64, 39
1, 492595, Control_c, 0, 64, 40
1, 492610, Control_c, 0, 64, 42
1, 492624, Control_c, 0, 64, 43
1, 492639, Control_c, 0, 64, 45
1, 492654, Control_c, 0, 64, 48
1, 492669, Control_c, 0, 64, 51
1, 492684, Control_c, 0, 64, 53
1, 492700, Control_c, 0, 64, 55
1, 492715, Control_c, 0, 64, 56
1, 492744, Control_c, 0, 64, 56
1, 492789, Control_c, 0, 64, 57
1, 492803, Control_c, 0, 64, 56
1, 492892, Control_c, 0, 64, 56
1, 492907, Control_c, 0, 64, 55
1, 492921, Control_c, 0, 64, 53
1, 492936, Control_c, 0, 64, 53
1, 492995, Control_c, 0, 64, 53
1, 493025, Control_c, 0, 64, 54
1, 493040, Control_c, 0, 64, 54
1, 493054, Control_c, 0, 64, 55
1, 493069, Control_c, 0, 64, 55
1, 493084, Control_c, 0, 64, 56
1, 493144, Control_c, 0, 64, 55
1, 493226, Control_c, 0, 64, 55
1, 493285, Control_c, 0, 64, 54
1, 493300, Control_c, 0, 64, 54
1, 493403, Control_c, 0, 64, 53
1, 493418, Control_c, 0, 64, 53
1, 493433, Control_c, 0, 64, 52
1, 493463, Control_c, 0, 64, 51
1, 493478, Control_c, 0, 64, 49
1, 493493, Control_c, 0, 64, 46
1, 493508, Control_c, 0, 64, 43
1, 493523, Control_c, 0, 64, 40
1, 493538, Control_c, 0, 64, 36
1, 493552, Control_c, 0, 64, 33
1, 493582, Control_c, 0, 64, 30
1, 493975, Control_c, 0, 64, 32
1, 493990, Control_c, 0, 64, 33
1, 494004, Control_c, 0, 64, 34
1, 494019, Control_c, 0, 64, 35
1, 494034, Control_c, 0, 64, 36
1, 494049, Control_c, 0, 64, 37
1, 494064, Control_c, 0, 64, 39
1, 494078, Control_c, 0, 64, 41
1, 494093, Control_c, 0, 64, 43
1, 494108, Control_c, 0, 64, 44
1, 494123, Control_c, 0, 64, 45
1, 494138, Control_c, 0, 64, 46
1, 494152, Control_c, 0, 64, 47
1, 494167, Control_c, 0, 64, 48
1, 494196, Control_c, 0, 64, 47
1, 494211, Control_c, 0, 64, 47
1, 494241, Control_c, 0, 64, 47
1, 494256, Control_c, 0, 64, 48
1, 494271, Control_c, 0, 64, 48
1, 494285, Control_c, 0, 64, 49
1, 494301, Control_c, 0, 64, 50
1, 494464, Control_c, 0, 64, 50
1, 494479, Control_c, 0, 64, 51
1, 494494, Control_c, 0, 64, 51
1, 494509, Control_c, 0, 64, 52
1, 494524, Control_c, 0, 64, 53
1, 494538, Control_c, 0, 64, 55
1, 494553, Control_c, 0, 64, 57
1, 494568, Control_c, 0, 64, 59
1, 494583, Control_c, 0, 64, 60
1, 494627, Control_c, 0, 64, 60
1, 494642, Control_c, 0, 64, 61
1, 494657, Control_c, 0, 64, 62
1, 494672, Control_c, 0, 64, 63
1, 494739, Control_c, 0, 64, 64
1, 494753, Control_c, 0, 64, 64
1, 494798, Control_c, 0, 64, 64
1, 494813, Control_c, 0, 64, 63
1, 494857, Control_c, 0, 64, 63
1, 494872, Control_c, 0, 64, 62
1, 494887, Control_c, 0, 64, 61
1, 494901, Control_c, 0, 64, 61
1, 494916, Control_c, 0, 64, 60
1, 494945, Control_c, 0, 64, 60
1, 494975, Control_c, 0, 64, 59
1, 494990, Control_c, 0, 64, 59
1, 495019, Control_c, 0, 64, 58
1, 495095, Control_c, 0, 64, 58
1, 495391, Control_c, 0, 64, 57
1, 495450, Control_c, 0, 64, 57
1, 495502, Control_c, 0, 64, 56
1, 495517, Control_c, 0, 64, 56
1, 495546, Control_c, 0, 64, 55
1, 495561, Control_c, 0, 64, 55
1, 495680, Control_c, 0, 64, 55
1, 495695, Control_c, 0, 64, 56
1, 495710, Control_c, 0, 64, 57
1, 495724, Control_c, 0, 64, 58
1, 495739, Control_c, 0, 64, 59
1, 495754, Control_c, 0, 64, 59
1, 495768, Control_c, 0, 64, 60
1, 495783, Control_c, 0, 64, 60
1, 495813, Control_c, 0, 64, 61
1, 495828, Control_c, 0, 64, 61
1, 495842, Control_c, 0, 64, 62
1, 495857, Control_c, 0, 64, 62
1, 495872, Control_c, 0, 64, 63
1, 495887, Control_c, 0, 64, 63
1, 496021, Control_c, 0, 64, 64
1, 496065, Control_c, 0, 64, 64
1, 496110, Control_c, 0, 64, 65
1, 496155, Control_c, 0, 64, 65
1, 496169, Control_c, 0, 64, 67
1, 496199, Control_c, 0, 64, 67
1, 496236, Control_c, 0, 64, 68
1, 496251, Control_c, 0, 64, 69
1, 496265, Control_c, 0, 64, 70
1, 496280, Control_c, 0, 64, 71
1, 496324, Control_c, 0, 64, 71
1, 496324, Control_c, 0, 67, 20
1, 496339, Control_c, 0, 64, 70
1, 496354, Control_c, 0, 64, 68
1, 496369, Control_c, 0, 64, 66
1, 496384, Control_c, 0, 64, 63
1, 496399, Control_c, 0, 64, 58
1, 496414, Control_c, 0, 64, 48
1, 496429, Control_c, 0, 64, 32
1, 496444, Control_c, 0, 64, 0
1, 496503, Control_c, 0, 67, 0
1, 496859, Control_c, 0, 67, 19
1, 497162, Control_c, 0, 67, 0
1, 497281, Control_c, 0, 64, 30
1, 497296, Control_c, 0, 64, 32
1, 497311, Control_c, 0, 64, 34
1, 497326, Control_c, 0, 64, 35
1, 497340, Control_c, 0, 64, 36
1, 497355, Control_c, 0, 64, 36
1, 497385, Control_c, 0, 64, 37
1, 497414, Control_c, 0, 64, 37
1, 497429, Control_c, 0, 64, 38
1, 497444, Control_c, 0, 64, 41
1, 497458, Control_c, 0, 64, 44
1, 497473, Control_c, 0, 64, 47
1, 497490, Control_c, 0, 64, 50
1, 497505, Control_c, 0, 64, 52
1, 497519, Control_c, 0, 64, 53
1, 497534, Control_c, 0, 64, 55
1, 497549, Control_c, 0, 64, 55
1, 497563, Control_c, 0, 64, 56
1, 497578, Control_c, 0, 64, 57
1, 497593, Control_c, 0, 64, 57
1, 497608, Control_c, 0, 64, 59
1, 497623, Control_c, 0, 64, 60
1, 497667, Control_c, 0, 64, 59
1, 498059, Control_c, 0, 64, 59
1, 498134, Control_c, 0, 64, 59
1, 498149, Control_c, 0, 64, 59
1, 498178, Control_c, 0, 64, 58
1, 498193, Control_c, 0, 64, 56
1, 498208, Control_c, 0, 64, 54
1, 498223, Control_c, 0, 64, 51
1, 498237, Control_c, 0, 64, 49
1, 498252, Control_c, 0, 64, 49
1, 498267, Control_c, 0, 64, 49
1, 498283, Control_c, 0, 64, 50
1, 498341, Control_c, 0, 64, 50
1, 498371, Control_c, 0, 64, 50
1, 498400, Control_c, 0, 64, 49
1, 498415, Control_c, 0, 64, 48
1, 498430, Control_c, 0, 64, 47
1, 498445, Control_c, 0, 64, 46
1, 498445, Control_c, 0, 67, 19
1, 498482, Control_c, 0, 64, 46
1, 498497, Control_c, 0, 64, 47
1, 498526, Control_c, 0, 64, 46
1, 498541, Control_c, 0, 64, 46
1, 498556, Control_c, 0, 64, 45
1, 498586, Control_c, 0, 64, 44
1, 498600, Control_c, 0, 64, 42
1, 498600, Control_c, 0, 67, 0
1, 498615, Control_c, 0, 64, 39
1, 498630, Control_c, 0, 64, 37
1, 498645, Control_c, 0, 64, 38
1, 498660, Control_c, 0, 64, 38
1, 498674, Control_c, 0, 64, 38
1, 498689, Control_c, 0, 64, 37
1, 498704, Control_c, 0, 64, 34
1, 498718, Control_c, 0, 64, 31
1, 498733, Control_c, 0, 64, 29
1, 498748, Control_c, 0, 64, 0
1, 499090, Control_c, 0, 64, 29
1, 499194, Control_c, 0, 64, 31
1, 499246, Control_c, 0, 64, 33
1, 499261, Control_c, 0, 64, 33
1, 499379, Control_c, 0, 64, 33
1, 499512, Control_c, 0, 64, 33
1, 499645, Control_c, 0, 64, 33
1, 499734, Control_c, 0, 64, 32
1, 499764, Control_c, 0, 64, 0
1, 500024, Control_c, 0, 64, 31
1, 500039, Control_c, 0, 64, 37
1, 500054, Control_c, 0, 64, 43
1, 500068, Control_c, 0, 64, 48
1, 500083, Control_c, 0, 64, 51
1, 500098, Control_c, 0, 64, 53
1, 500113, Control_c, 0, 64, 54
1, 500128, Control_c, 0, 64, 54
1, 500143, Control_c, 0, 64, 55
1, 500157, Control_c, 0, 64, 57
1, 500172, Control_c, 0, 64, 58
1, 500187, Control_c, 0, 64, 60
1, 500202, Control_c, 0, 64, 61
1, 500217, Control_c, 0, 64, 61
1, 500246, Control_c, 0, 64, 62
1, 500261, Control_c, 0, 64, 63
1, 500276, Control_c, 0, 64, 65
1, 500290, Control_c, 0, 64, 66
1, 500305, Control_c, 0, 64, 68
1, 500320, Control_c, 0, 64, 70
1, 500335, Control_c, 0, 64, 72
1, 500350, Control_c, 0, 64, 76
1, 500364, Control_c, 0, 64, 78
1, 500379, Control_c, 0, 64, 80
1, 500394, Control_c, 0, 64, 80
1, 500424, Control_c, 0, 64, 80
1, 500438, Control_c, 0, 64, 79
1, 500453, Control_c, 0, 64, 76
1, 500468, Control_c, 0, 64, 72
1, 500483, Control_c, 0, 64, 68
1, 500498, Control_c, 0, 64, 64
1, 500513, Control_c, 0, 64, 60
1, 500527, Control_c, 0, 64, 57
1, 500542, Control_c, 0, 64, 54
1, 500557, Control_c, 0, 64, 54
1, 500572, Control_c, 0, 64, 53
1, 500587, Control_c, 0, 64, 52
1, 500602, Control_c, 0, 64, 50
1, 500617, Control_c, 0, 64, 47
1, 500632, Control_c, 0, 64, 43
1, 500647, Control_c, 0, 64, 40
1, 500662, Control_c, 0, 64, 36
1, 500677, Control_c, 0, 64, 34
1, 500692, Control_c, 0, 64, 33
1, 500714, Control_c, 0, 64, 32
1, 500906, Control_c, 0, 64, 32
1, 500966, Control_c, 0, 64, 33
1, 500995, Control_c, 0, 64, 34
1, 501010, Control_c, 0, 64, 34
1, 501025, Control_c, 0, 64, 35
1, 501055, Control_c, 0, 64, 35
1, 501129, Control_c, 0, 64, 36
1, 501144, Control_c, 0, 64, 36
1, 501174, Control_c, 0, 64, 37
1, 501262, Control_c, 0, 64, 37
1, 501350, Control_c, 0, 64, 38
1, 501352, Poly_aftertouch_c, 0, 53, 127
1, 501395, Control_c, 0, 64, 38
1, 501425, Control_c, 0, 64, 39
1, 501439, Control_c, 0, 64, 39
1, 501476, Control_c, 0, 64, 40
1, 501522, Control_c, 0, 64, 40
1, 501551, Control_c, 0, 64, 41
1, 501640, Control_c, 0, 64, 41
1, 501729, Control_c, 0, 64, 42
1, 501756, Poly_aftertouch_c, 0, 52, 127
1, 501774, Control_c, 0, 64, 42
1, 501818, Control_c, 0, 64, 43
1, 501936, Control_c, 0, 64, 43
1, 501981, Control_c, 0, 64, 44
1, 502188, Control_c, 0, 64, 43
1, 502240, Control_c, 0, 64, 43
1, 502254, Control_c, 0, 64, 42
1, 502269, Control_c, 0, 64, 42
1, 502285, Control_c, 0, 64, 40
1, 502300, Poly_aftertouch_c, 0, 52, 0
1, 502300, Control_c, 0, 64, 37
1, 502315, Poly_aftertouch_c, 0, 53, 0
1, 502315, Control_c, 0, 64, 35
1, 502330, Control_c, 0, 64, 32
1, 502345, Control_c, 0, 64, 0
1, 502823, Note_on_c, 0, 74, 72
1, 502897, Note_on_c, 0, 76, 84
1, 502925, Note_on_c, 0, 47, 48
1, 502948, Note_off_c, 0, 74, 62
1, 502984, Note_on_c, 0, 57, 45
1, 503019, Note_on_c, 0, 78, 88
1, 503020, Note_on_c, 0, 73, 78
1, 503028, Note_on_c, 0, 66, 69
1, 503048, Note_on_c, 0, 61, 53
1, 503052, Note_off_c, 0, 76, 60
1, 503272, Control_c, 0, 64, 32
1, 503287, Control_c, 0, 64, 42
1, 503302, Control_c, 0, 64, 51
1, 503316, Control_c, 0, 64, 57
1, 503331, Control_c, 0, 64, 61
1, 503346, Control_c, 0, 64, 63
1, 503361, Control_c, 0, 64, 66
1, 503376, Control_c, 0, 64, 69
1, 503390, Control_c, 0, 64, 75
1, 503405, Control_c, 0, 64, 84
1, 503420, Control_c, 0, 64, 99
1, 503434, Control_c, 0, 64, 127
1, 503558, Note_off_c, 0, 47, 39
1, 503568, Note_off_c, 0, 78, 55
1, 503637, Note_off_c, 0, 61, 39
1, 503727, Note_off_c, 0, 66, 36
1, 503780, Note_off_c, 0, 57, 37
1, 504152, Note_off_c, 0, 73, 23
1, 504243, Control_c, 0, 64, 112
1, 504257, Control_c, 0, 64, 100
1, 504263, Note_on_c, 0, 76, 75
1, 504272, Control_c, 0, 64, 92
1, 504274, Note_on_c, 0, 64, 51
1, 504277, Note_on_c, 0, 52, 40
1, 504277, Note_on_c, 0, 56, 41
1, 504281, Note_on_c, 0, 71, 54
1, 504283, Note_on_c, 0, 59, 39
1, 504287, Control_c, 0, 64, 85
1, 504302, Control_c, 0, 64, 79
1, 504317, Control_c, 0, 64, 72
1, 504331, Control_c, 0, 64, 65
1, 504346, Control_c, 0, 64, 58
1, 504361, Control_c, 0, 64, 48
1, 504376, Control_c, 0, 64, 36
1, 504391, Control_c, 0, 64, 0
1, 504517, Control_c, 0, 64, 31
1, 504531, Control_c, 0, 64, 46
1, 504546, Control_c, 0, 64, 56
1, 504561, Control_c, 0, 64, 61
1, 504576, Control_c, 0, 64, 64
1, 504591, Control_c, 0, 64, 66
1, 504605, Control_c, 0, 64, 68
1, 504620, Control_c, 0, 64, 72
1, 504635, Control_c, 0, 64, 80
1, 504650, Control_c, 0, 64, 88
1, 504665, Control_c, 0, 64, 99
1, 504680, Control_c, 0, 64, 119
1, 504695, Control_c, 0, 64, 127
1, 504716, Note_off_c, 0, 52, 38
1, 504749, Note_off_c, 0, 56, 38
1, 504791, Note_off_c, 0, 59, 41
1, 504961, Note_off_c, 0, 76, 59
1, 505057, Note_off_c, 0, 71, 34
1, 505320, Note_off_c, 0, 64, 40
1, 505396, Note_on_c, 0, 62, 47
1, 505401, Note_on_c, 0, 74, 58
1, 505445, Note_off_c, 0, 62, 58
1, 505486, Note_on_c, 0, 73, 58
1, 505492, Note_on_c, 0, 61, 40
1, 505539, Note_off_c, 0, 74, 36
1, 505548, Note_off_c, 0, 61, 43
1, 505607, Control_c, 0, 64, 112
1, 505618, Note_on_c, 0, 71, 44
1, 505622, Control_c, 0, 64, 101
1, 505628, Note_on_c, 0, 59, 38
1, 505633, Note_on_c, 0, 62, 41
1, 505637, Control_c, 0, 64, 93
1, 505643, Note_on_c, 0, 55, 43
1, 505652, Control_c, 0, 64, 86
1, 505654, Note_on_c, 0, 67, 31
1, 505662, Note_off_c, 0, 73, 57
1, 505667, Control_c, 0, 64, 80
1, 505681, Control_c, 0, 64, 75
1, 505696, Control_c, 0, 64, 69
1, 505711, Control_c, 0, 64, 65
1, 505726, Control_c, 0, 64, 61
1, 505741, Control_c, 0, 64, 56
1, 505756, Control_c, 0, 64, 53
1, 505770, Control_c, 0, 64, 48
1, 505785, Control_c, 0, 64, 43
1, 505800, Control_c, 0, 64, 35
1, 505815, Control_c, 0, 64, 0
1, 506177, Control_c, 0, 64, 32
1, 506192, Control_c, 0, 64, 47
1, 506207, Control_c, 0, 64, 58
1, 506222, Control_c, 0, 64, 63
1, 506236, Control_c, 0, 64, 65
1, 506251, Control_c, 0, 64, 66
1, 506266, Control_c, 0, 64, 68
1, 506282, Control_c, 0, 64, 70
1, 506297, Control_c, 0, 64, 74
1, 506312, Control_c, 0, 64, 80
1, 506326, Control_c, 0, 64, 88
1, 506341, Control_c, 0, 64, 97
1, 506356, Control_c, 0, 64, 107
1, 506371, Control_c, 0, 64, 127
1, 506372, Note_off_c, 0, 59, 38
1, 506378, Note_off_c, 0, 62, 37
1, 506412, Note_off_c, 0, 55, 41
1, 506494, Note_off_c, 0, 67, 43
1, 506571, Note_off_c, 0, 71, 41
1, 507135, Control_c, 0, 64, 116
1, 507149, Control_c, 0, 64, 105
1, 507151, Note_on_c, 0, 76, 71
1, 507164, Control_c, 0, 64, 97
1, 507166, Note_on_c, 0, 69, 49
1, 507179, Control_c, 0, 64, 91
1, 507180, Note_on_c, 0, 57, 33
1, 507182, Note_on_c, 0, 45, 34
1, 507183, Note_on_c, 0, 49, 35
1, 507184, Note_on_c, 0, 64, 40
1, 507194, Control_c, 0, 64, 84
1, 507208, Control_c, 0, 64, 76
1, 507223, Control_c, 0, 64, 66
1, 507238, Control_c, 0, 64, 57
1, 507253, Control_c, 0, 64, 47
1, 507268, Control_c, 0, 64, 39
1, 507282, Control_c, 0, 64, 38
1, 507297, Control_c, 0, 64, 38
1, 507312, Control_c, 0, 64, 40
1, 507327, Control_c, 0, 64, 44
1, 507342, Control_c, 0, 64, 50
1, 507357, Control_c, 0, 64, 56
1, 507372, Control_c, 0, 64, 61
1, 507387, Control_c, 0, 64, 64
1, 507401, Control_c, 0, 64, 67
1, 507416, Control_c, 0, 64, 72
1, 507431, Control_c, 0, 64, 77
1, 507453, Control_c, 0, 64, 83
1, 507468, Control_c, 0, 64, 90
1, 507482, Control_c, 0, 64, 100
1, 507497, Control_c, 0, 64, 118
1, 507512, Control_c, 0, 64, 127
1, 507603, Note_off_c, 0, 45, 40
1, 507673, Note_off_c, 0, 57, 42
1, 507722, Note_off_c, 0, 49, 41
1, 507773, Note_off_c, 0, 64, 37
1, 507911, Note_off_c, 0, 76, 52
1, 508120, Note_off_c, 0, 69, 39
1, 508265, Note_on_c, 0, 62, 43
1, 508269, Note_on_c, 0, 74, 55
1, 508326, Note_off_c, 0, 62, 56
1, 508351, Note_on_c, 0, 61, 48
1, 508355, Note_on_c, 0, 73, 59
1, 508358, Note_off_c, 0, 74, 53
1, 508396, Note_off_c, 0, 61, 60
1, 508498, Control_c, 0, 64, 114
1, 508513, Control_c, 0, 64, 103
1, 508528, Control_c, 0, 64, 97
1, 508536, Note_on_c, 0, 71, 54
1, 508538, Note_off_c, 0, 73, 46
1, 508543, Control_c, 0, 64, 91
1, 508546, Note_on_c, 0, 66, 41
1, 508558, Control_c, 0, 64, 86
1, 508561, Note_on_c, 0, 51, 39
1, 508561, Note_on_c, 0, 59, 30
1, 508567, Note_on_c, 0, 57, 35
1, 508573, Control_c, 0, 64, 81
1, 508579, Note_on_c, 0, 69, 24
1, 508588, Control_c, 0, 64, 77
1, 508603, Control_c, 0, 64, 72
1, 508617, Control_c, 0, 64, 66
1, 508632, Control_c, 0, 64, 61
1, 508647, Control_c, 0, 64, 56
1, 508662, Control_c, 0, 64, 51
1, 508677, Control_c, 0, 64, 46
1, 508692, Control_c, 0, 64, 39
1, 508707, Control_c, 0, 64, 0
1, 509277, Control_c, 0, 64, 32
1, 509292, Control_c, 0, 64, 43
1, 509307, Control_c, 0, 64, 57
1, 509321, Control_c, 0, 64, 63
1, 509336, Control_c, 0, 64, 67
1, 509351, Control_c, 0, 64, 71
1, 509366, Control_c, 0, 64, 76
1, 509381, Control_c, 0, 64, 84
1, 509396, Control_c, 0, 64, 98
1, 509411, Control_c, 0, 64, 127
1, 509421, Note_off_c, 0, 69, 40
1, 509425, Note_off_c, 0, 59, 41
1, 509431, Note_off_c, 0, 57, 41
1, 509442, Note_off_c, 0, 66, 29
1, 509512, Note_off_c, 0, 71, 35
1, 509542, Note_off_c, 0, 51, 34
1, 509917, Note_on_c, 0, 76, 62
1, 509922, Control_c, 0, 64, 110
1, 509937, Control_c, 0, 64, 98
1, 509949, Note_on_c, 0, 69, 39
1, 509951, Note_on_c, 0, 59, 15
1, 509951, Control_c, 0, 64, 88
1, 509953, Note_on_c, 0, 54, 22
1, 509961, Note_on_c, 0, 64, 23
1, 509966, Control_c, 0, 64, 80
1, 509981, Control_c, 0, 64, 72
1, 509995, Control_c, 0, 64, 65
1, 510010, Control_c, 0, 64, 57
1, 510025, Control_c, 0, 64, 50
1, 510040, Control_c, 0, 64, 45
1, 510055, Control_c, 0, 64, 43
1, 510069, Control_c, 0, 64, 42
1, 510099, Control_c, 0, 64, 43
1, 510114, Control_c, 0, 64, 45
1, 510129, Control_c, 0, 64, 49
1, 510144, Control_c, 0, 64, 55
1, 510159, Control_c, 0, 64, 59
1, 510174, Control_c, 0, 64, 63
1, 510189, Control_c, 0, 64, 65
1, 510203, Control_c, 0, 64, 69
1, 510218, Control_c, 0, 64, 73
1, 510233, Control_c, 0, 64, 78
1, 510248, Control_c, 0, 64, 82
1, 510263, Control_c, 0, 64, 87
1, 510278, Control_c, 0, 64, 92
1, 510293, Control_c, 0, 64, 97
1, 510308, Control_c, 0, 64, 103
1, 510323, Control_c, 0, 64, 107
1, 510338, Control_c, 0, 64, 110
1, 510538, Control_c, 0, 64, 107
1, 510564, Note_on_c, 0, 52, 33
1, 510567, Control_c, 0, 64, 105
1, 510612, Control_c, 0, 64, 102
1, 510642, Control_c, 0, 64, 100
1, 510672, Control_c, 0, 64, 98
1, 510696, Note_off_c, 0, 59, 10
1, 510716, Control_c, 0, 64, 96
1, 510731, Control_c, 0, 64, 96
1, 510745, Control_c, 0, 64, 95
1, 510760, Control_c, 0, 64, 95
1, 510775, Control_c, 0, 64, 94
1, 510790, Control_c, 0, 64, 93
1, 510805, Control_c, 0, 64, 93
1, 510819, Control_c, 0, 64, 92
1, 510834, Control_c, 0, 64, 91
1, 510849, Control_c, 0, 64, 91
1, 510864, Control_c, 0, 64, 90
1, 510871, Note_off_c, 0, 64, 30
1, 510879, Control_c, 0, 64, 89
1, 510893, Control_c, 0, 64, 89
1, 510908, Control_c, 0, 64, 88
1, 510923, Control_c, 0, 64, 87
1, 510938, Control_c, 0, 64, 87
1, 510952, Control_c, 0, 64, 86
1, 510967, Control_c, 0, 64, 86
1, 510982, Control_c, 0, 64, 85
1, 510997, Control_c, 0, 64, 85
1, 511012, Control_c, 0, 64, 84
1, 511019, Note_on_c, 0, 74, 51
1, 511026, Control_c, 0, 64, 84
1, 511041, Control_c, 0, 64, 83
1, 511072, Control_c, 0, 64, 83
1, 511087, Control_c, 0, 64, 82
1, 511102, Control_c, 0, 64, 82
1, 511116, Control_c, 0, 64, 81
1, 511122, Note_off_c, 0, 54, 18
1, 511131, Control_c, 0, 64, 80
1, 511142, Note_on_c, 0, 73, 56
1, 511146, Control_c, 0, 64, 80
1, 511160, Control_c, 0, 64, 79
1, 511175, Control_c, 0, 64, 78
1, 511198, Control_c, 0, 64, 77
1, 511213, Control_c, 0, 64, 76
1, 511228, Control_c, 0, 64, 74
1, 511238, Note_off_c, 0, 69, 32
1, 511242, Control_c, 0, 64, 73
1, 511257, Control_c, 0, 64, 72
1, 511272, Control_c, 0, 64, 70
1, 511280, Note_off_c, 0, 52, 28
1, 511287, Control_c, 0, 64, 69
1, 511302, Control_c, 0, 64, 67
1, 511316, Control_c, 0, 64, 66
1, 511321, Note_off_c, 0, 76, 22
1, 511331, Control_c, 0, 64, 65
1, 511332, Note_on_c, 0, 71, 53
1, 511343, Note_off_c, 0, 74, 26
1, 511346, Control_c, 0, 64, 63
1, 511361, Control_c, 0, 64, 62
1, 511375, Control_c, 0, 64, 61
1, 511390, Control_c, 0, 64, 60
1, 511405, Control_c, 0, 64, 60
1, 511420, Control_c, 0, 64, 59
1, 511435, Note_off_c, 0, 73, 46
1, 511435, Control_c, 0, 64, 59
1, 511450, Control_c, 0, 64, 58
1, 511464, Control_c, 0, 64, 57
1, 511479, Control_c, 0, 64, 57
1, 511494, Control_c, 0, 64, 56
1, 511494, Control_c, 0, 67, 19
1, 511509, Control_c, 0, 64, 55
1, 511524, Control_c, 0, 64, 55
1, 511524, Control_c, 0, 67, 22
1, 511539, Control_c, 0, 64, 54
1, 511554, Control_c, 0, 64, 53
1, 511554, Control_c, 0, 67, 26
1, 511568, Control_c, 0, 64, 53
1, 511568, Control_c, 0, 67, 31
1, 511583, Control_c, 0, 67, 36
1, 511598, Control_c, 0, 64, 52
1, 511598, Control_c, 0, 67, 44
1, 511613, Control_c, 0, 64, 52
1, 511613, Control_c, 0, 67, 53
1, 511628, Control_c, 0, 64, 51
1, 511628, Control_c, 0, 67, 66
1, 511642, Control_c, 0, 64, 51
1, 511642, Control_c, 0, 67, 80
1, 511657, Control_c, 0, 67, 93
1, 511672, Control_c, 0, 64, 50
1, 511672, Control_c, 0, 67, 107
1, 511687, Control_c, 0, 64, 50
1, 511687, Control_c, 0, 67, 119
1, 511701, Control_c, 0, 67, 127
1, 511731, Control_c, 0, 64, 49
1, 511790, Control_c, 0, 64, 49
1, 511820, Control_c, 0, 64, 48
1, 511835, Control_c, 0, 64, 48
1, 511865, Control_c, 0, 64, 47
1, 511880, Control_c, 0, 64, 47
1, 511895, Control_c, 0, 64, 46
1, 511924, Control_c, 0, 64, 46
1, 511947, Control_c, 0, 64, 45
1, 512021, Control_c, 0, 64, 46
1, 512036, Control_c, 0, 64, 46
1, 512038, Note_on_c, 0, 67, 33
1, 512051, Control_c, 0, 64, 47
1, 512053, Note_on_c, 0, 47, 11
1, 512065, Control_c, 0, 64, 49
1, 512080, Control_c, 0, 64, 51
1, 512081, Poly_aftertouch_c, 0, 64, 127
1, 512095, Control_c, 0, 64, 53
1, 512110, Control_c, 0, 64, 55
1, 512125, Control_c, 0, 64, 56
1, 512139, Control_c, 0, 64, 58
1, 512154, Control_c, 0, 64, 60
1, 512169, Control_c, 0, 64, 62
1, 512184, Control_c, 0, 64, 64
1, 512198, Control_c, 0, 64, 67
1, 512213, Control_c, 0, 64, 70
1, 512228, Control_c, 0, 64, 75
1, 512243, Control_c, 0, 64, 80
1, 512258, Control_c, 0, 64, 86
1, 512263, Note_off_c, 0, 71, 55
1, 512272, Control_c, 0, 64, 92
1, 512287, Control_c, 0, 64, 101
1, 512302, Control_c, 0, 64, 119
1, 512317, Control_c, 0, 64, 127
1, 512539, Note_on_c, 0, 69, 43
1, 512627, Control_c, 0, 64, 125
1, 512642, Control_c, 0, 64, 118
1, 512657, Control_c, 0, 64, 114
1, 512672, Control_c, 0, 64, 110
1, 512694, Control_c, 0, 64, 108
1, 512698, Note_off_c, 0, 67, 43
1, 512724, Control_c, 0, 64, 104
1, 512753, Control_c, 0, 64, 101
1, 512783, Control_c, 0, 64, 99
1, 512813, Control_c, 0, 64, 96
1, 512827, Control_c, 0, 64, 95
1, 512842, Control_c, 0, 64, 94
1, 512857, Control_c, 0, 64, 93
1, 512872, Control_c, 0, 64, 92
1, 512887, Control_c, 0, 64, 91
1, 512901, Control_c, 0, 64, 90
1, 512916, Control_c, 0, 64, 89
1, 512931, Control_c, 0, 64, 88
1, 512946, Control_c, 0, 64, 87
1, 512961, Control_c, 0, 64, 86
1, 512976, Control_c, 0, 64, 85
1, 512991, Control_c, 0, 64, 84
1, 513006, Control_c, 0, 64, 83
1, 513007, Note_off_c, 0, 47, 42
1, 513020, Control_c, 0, 64, 82
1, 513027, Poly_aftertouch_c, 0, 64, 0
1, 513035, Control_c, 0, 64, 81
1, 513050, Control_c, 0, 64, 80
1, 513065, Control_c, 0, 64, 80
1, 513080, Control_c, 0, 64, 78
1, 513094, Control_c, 0, 64, 77
1, 513109, Note_on_c, 0, 71, 47
1, 513109, Control_c, 0, 64, 75
1, 513124, Control_c, 0, 64, 74
1, 513138, Control_c, 0, 64, 72
1, 513153, Control_c, 0, 64, 69
1, 513168, Control_c, 0, 64, 66
1, 513183, Control_c, 0, 64, 63
1, 513198, Control_c, 0, 64, 59
1, 513212, Control_c, 0, 64, 56
1, 513227, Control_c, 0, 64, 54
1, 513242, Control_c, 0, 64, 52
1, 513257, Control_c, 0, 64, 50
1, 513272, Control_c, 0, 64, 47
1, 513286, Control_c, 0, 64, 43
1, 513301, Control_c, 0, 64, 37
1, 513317, Control_c, 0, 64, 33
1, 513331, Control_c, 0, 64, 0
1, 513361, Note_off_c, 0, 69, 22
1, 514755, Note_on_c, 0, 59, 32
1, 514770, Note_on_c, 0, 62, 19
1, 514794, Note_off_c, 0, 59, 63
1, 514804, Note_off_c, 0, 62, 49
1, 515063, Note_on_c, 0, 62, 32
1, 515082, Note_on_c, 0, 59, 27
1, 515392, Note_on_c, 0, 66, 27
1, 515402, Note_off_c, 0, 59, 30
1, 515403, Note_on_c, 0, 54, 23
1, 515409, Note_off_c, 0, 62, 35
1, 515456, Note_off_c, 0, 66, 41
1, 515459, Note_off_c, 0, 54, 54
1, 515920, Note_on_c, 0, 62, 36
1, 515922, Note_on_c, 0, 59, 31
1, 515961, Note_off_c, 0, 62, 60
1, 515966, Note_off_c, 0, 59, 60
1, 516234, Note_on_c, 0, 59, 26
1, 516234, Note_on_c, 0, 62, 28
1, 516529, Note_off_c, 0, 59, 27
1, 516559, Note_on_c, 0, 66, 31
1, 516573, Note_off_c, 0, 62, 40
1, 516574, Note_on_c, 0, 54, 15
1, 516639, Note_off_c, 0, 54, 56
1, 516650, Note_off_c, 0, 66, 56
1, 517089, Note_on_c, 0, 62, 36
1, 517140, Poly_aftertouch_c, 0, 59, 127
1, 517142, Note_off_c, 0, 62, 60
1, 517188, Poly_aftertouch_c, 0, 59, 0
1, 517433, Note_on_c, 0, 62, 34
1, 517441, Note_on_c, 0, 59, 21
1, 517558, Control_c, 0, 64, 32
1, 517573, Control_c, 0, 64, 43
1, 517588, Control_c, 0, 64, 52
1, 517602, Control_c, 0, 64, 56
1, 517617, Control_c, 0, 64, 58
1, 517632, Control_c, 0, 64, 59
1, 517647, Control_c, 0, 64, 60
1, 517655, Note_off_c, 0, 71, 54
1, 517662, Control_c, 0, 64, 60
1, 517677, Control_c, 0, 64, 61
1, 517692, Control_c, 0, 64, 61
1, 517706, Control_c, 0, 64, 62
1, 517721, Control_c, 0, 64, 63
1, 517736, Control_c, 0, 64, 63
1, 517751, Control_c, 0, 64, 64
1, 517766, Control_c, 0, 64, 65
1, 517781, Control_c, 0, 64, 67
1, 517796, Control_c, 0, 64, 68
1, 517803, Note_on_c, 0, 66, 34
1, 517810, Control_c, 0, 64, 71
1, 517825, Control_c, 0, 64, 74
1, 517840, Control_c, 0, 64, 78
1, 517854, Control_c, 0, 64, 83
1, 517869, Control_c, 0, 64, 90
1, 517884, Control_c, 0, 64, 101
1, 517899, Control_c, 0, 64, 122
1, 517914, Control_c, 0, 64, 127
1, 517956, Note_off_c, 0, 62, 41
1, 517966, Note_off_c, 0, 66, 29
1, 517988, Note_off_c, 0, 59, 42
1, 518128, Control_c, 0, 67, 124
1, 518143, Control_c, 0, 67, 118
1, 518158, Control_c, 0, 67, 111
1, 518173, Control_c, 0, 67, 105
1, 518188, Control_c, 0, 67, 97
1, 518203, Control_c, 0, 67, 91
1, 518217, Control_c, 0, 67, 86
1, 518232, Control_c, 0, 67, 82
1, 518247, Control_c, 0, 67, 79
1, 518263, Control_c, 0, 67, 76
1, 518278, Control_c, 0, 67, 73
1, 518279, Note_on_c, 0, 78, 67
1, 518292, Control_c, 0, 67, 70
1, 518307, Control_c, 0, 64, 103
1, 518307, Control_c, 0, 67, 67
1, 518322, Control_c, 0, 64, 90
1, 518322, Control_c, 0, 67, 65
1, 518337, Control_c, 0, 64, 80
1, 518337, Control_c, 0, 67, 63
1, 518352, Control_c, 0, 64, 70
1, 518352, Control_c, 0, 67, 60
1, 518366, Control_c, 0, 64, 62
1, 518366, Control_c, 0, 67, 58
1, 518381, Control_c, 0, 64, 50
1, 518381, Control_c, 0, 67, 55
1, 518396, Control_c, 0, 64, 43
1, 518396, Control_c, 0, 67, 53
1, 518411, Control_c, 0, 64, 43
1, 518411, Control_c, 0, 67, 52
1, 518426, Control_c, 0, 64, 46
1, 518440, Control_c, 0, 64, 52
1, 518455, Control_c, 0, 64, 57
1, 518470, Control_c, 0, 64, 61
1, 518470, Control_c, 0, 67, 53
1, 518484, Control_c, 0, 64, 65
1, 518484, Control_c, 0, 67, 56
1, 518499, Control_c, 0, 64, 68
1, 518499, Control_c, 0, 67, 61
1, 518514, Control_c, 0, 64, 72
1, 518514, Control_c, 0, 67, 64
1, 518529, Control_c, 0, 64, 75
1, 518529, Control_c, 0, 67, 68
1, 518544, Control_c, 0, 64, 77
1, 518544, Control_c, 0, 67, 77
1, 518559, Control_c, 0, 64, 79
1, 518559, Control_c, 0, 67, 92
1, 518574, Control_c, 0, 64, 82
1, 518574, Control_c, 0, 67, 110
1, 518589, Control_c, 0, 64, 85
1, 518589, Control_c, 0, 67, 127
1, 518604, Control_c, 0, 64, 89
1, 518619, Control_c, 0, 64, 94
1, 518634, Control_c, 0, 64, 99
1, 518648, Control_c, 0, 64, 105
1, 518663, Control_c, 0, 64, 112
1, 518685, Control_c, 0, 64, 127
1, 518770, Note_on_c, 0, 62, 33
1, 518791, Note_on_c, 0, 59, 5
1, 518847, Note_off_c, 0, 62, 48
1, 518848, Note_off_c, 0, 59, 45
1, 519124, Note_on_c, 0, 62, 28
1, 519129, Note_on_c, 0, 59, 20
1, 519229, Note_off_c, 0, 78, 29
1, 519481, Note_on_c, 0, 66, 39
1, 519597, Note_off_c, 0, 62, 41
1, 519621, Note_off_c, 0, 59, 41
1, 519627, Control_c, 0, 67, 115
1, 519641, Control_c, 0, 67, 100
1, 519656, Control_c, 0, 67, 85
1, 519661, Note_off_c, 0, 66, 37
1, 519668, Note_on_c, 0, 79, 55
1, 519671, Control_c, 0, 67, 69
1, 519686, Control_c, 0, 67, 56
1, 519701, Control_c, 0, 67, 45
1, 519716, Control_c, 0, 67, 36
1, 519730, Control_c, 0, 67, 31
1, 519745, Control_c, 0, 67, 29
1, 519773, Note_on_c, 0, 78, 57
1, 519775, Control_c, 0, 67, 27
1, 519832, Note_off_c, 0, 79, 59
1, 519834, Control_c, 0, 64, 125
1, 519850, Control_c, 0, 64, 118
1, 519851, Note_off_c, 0, 78, 58
1, 519862, Note_on_c, 0, 76, 60
1, 519865, Control_c, 0, 64, 114
1, 519880, Control_c, 0, 64, 109
1, 519894, Control_c, 0, 64, 106
1, 519909, Control_c, 0, 64, 102
1, 519924, Control_c, 0, 64, 99
1, 519935, Note_on_c, 0, 78, 65
1, 519939, Control_c, 0, 64, 95
1, 519954, Control_c, 0, 64, 91
1, 519969, Control_c, 0, 64, 86
1, 519981, Note_off_c, 0, 76, 53
1, 519984, Control_c, 0, 64, 77
1, 519999, Control_c, 0, 64, 69
1, 520013, Control_c, 0, 64, 62
1, 520028, Control_c, 0, 64, 51
1, 520043, Control_c, 0, 64, 42
1, 520043, Control_c, 0, 67, 29
1, 520056, Control_c, 0, 64, 38
1, 520071, Control_c, 0, 64, 39
1, 520086, Control_c, 0, 64, 39
1, 520086, Control_c, 0, 67, 31
1, 520101, Control_c, 0, 64, 40
1, 520101, Control_c, 0, 67, 32
1, 520116, Control_c, 0, 64, 43
1, 520116, Control_c, 0, 67, 34
1, 520130, Control_c, 0, 64, 48
1, 520130, Control_c, 0, 67, 35
1, 520145, Control_c, 0, 64, 55
1, 520145, Control_c, 0, 67, 37
1, 520160, Control_c, 0, 64, 59
1, 520160, Control_c, 0, 67, 38
1, 520183, Control_c, 0, 64, 62
1, 520183, Control_c, 0, 67, 40
1, 520198, Control_c, 0, 64, 63
1, 520198, Control_c, 0, 67, 41
1, 520212, Control_c, 0, 64, 64
1, 520212, Control_c, 0, 67, 45
1, 520227, Control_c, 0, 64, 66
1, 520227, Control_c, 0, 67, 53
1, 520242, Control_c, 0, 64, 68
1, 520242, Control_c, 0, 67, 62
1, 520256, Control_c, 0, 64, 70
1, 520256, Control_c, 0, 67, 72
1, 520270, Note_on_c, 0, 61, 30
1, 520271, Note_on_c, 0, 64, 28
1, 520271, Control_c, 0, 64, 73
1, 520271, Control_c, 0, 67, 83
1, 520286, Control_c, 0, 64, 76
1, 520286, Control_c, 0, 67, 94
1, 520301, Control_c, 0, 64, 78
1, 520301, Control_c, 0, 67, 105
1, 520316, Control_c, 0, 64, 80
1, 520316, Control_c, 0, 67, 115
1, 520330, Control_c, 0, 64, 81
1, 520330, Control_c, 0, 67, 125
1, 520344, Note_off_c, 0, 61, 40
1, 520345, Control_c, 0, 64, 83
1, 520345, Control_c, 0, 67, 127
1, 520348, Note_off_c, 0, 64, 37
1, 520360, Control_c, 0, 64, 85
1, 520375, Control_c, 0, 64, 87
1, 520389, Control_c, 0, 64, 89
1, 520404, Control_c, 0, 64, 90
1, 520419, Control_c, 0, 64, 90
1, 520464, Control_c, 0, 64, 91
1, 520597, Control_c, 0, 64, 90
1, 520646, Note_on_c, 0, 64, 29
1, 520647, Note_on_c, 0, 61, 26
1, 520679, Note_off_c, 0, 78, 36
1, 520732, Control_c, 0, 64, 90
1, 520776, Control_c, 0, 64, 89
1, 520799, Note_on_c, 0, 79, 58
1, 520807, Control_c, 0, 64, 89
1, 520821, Control_c, 0, 64, 88
1, 520836, Control_c, 0, 64, 88
1, 520866, Control_c, 0, 64, 87
1, 520880, Control_c, 0, 64, 87
1, 520895, Control_c, 0, 64, 86
1, 520930, Note_on_c, 0, 78, 58
1, 520932, Control_c, 0, 64, 86
1, 520947, Control_c, 0, 64, 85
1, 520962, Control_c, 0, 64, 84
1, 520976, Control_c, 0, 64, 84
1, 520991, Control_c, 0, 64, 83
1, 520999, Note_off_c, 0, 79, 56
1, 521006, Control_c, 0, 64, 82
1, 521021, Control_c, 0, 64, 82
1, 521031, Note_off_c, 0, 78, 60
1, 521036, Control_c, 0, 64, 81
1, 521036, Note_on_c, 0, 76, 60
1, 521051, Control_c, 0, 64, 80
1, 521080, Control_c, 0, 64, 79
1, 521095, Control_c, 0, 64, 79
1, 521105, Note_on_c, 0, 66, 28
1, 521121, Note_on_c, 0, 78, 63
1, 521125, Control_c, 0, 64, 78
1, 521140, Control_c, 0, 64, 78
1, 521144, Note_off_c, 0, 76, 55
1, 521149, Note_off_c, 0, 64, 37
1, 521154, Control_c, 0, 64, 77
1, 521156, Note_off_c, 0, 61, 13
1, 521169, Control_c, 0, 64, 76
1, 521184, Control_c, 0, 64, 75
1, 521186, Note_off_c, 0, 66, 34
1, 521199, Control_c, 0, 64, 74
1, 521200, Note_on_c, 0, 79, 68
1, 521200, Note_off_c, 0, 78, 61
1, 521213, Control_c, 0, 64, 73
1, 521228, Control_c, 0, 64, 72
1, 521243, Control_c, 0, 64, 72
1, 521258, Control_c, 0, 64, 71
1, 521273, Control_c, 0, 64, 70
1, 521286, Note_on_c, 0, 78, 71
1, 521287, Control_c, 0, 64, 69
1, 521289, Note_off_c, 0, 79, 64
1, 521302, Control_c, 0, 64, 68
1, 521317, Control_c, 0, 64, 67
1, 521332, Control_c, 0, 64, 65
1, 521347, Note_on_c, 0, 79, 67
1, 521347, Control_c, 0, 64, 64
1, 521349, Note_off_c, 0, 78, 61
1, 521361, Control_c, 0, 64, 61
1, 521376, Control_c, 0, 64, 55
1, 521391, Control_c, 0, 64, 49
1, 521406, Control_c, 0, 64, 40
1, 521421, Control_c, 0, 64, 0
1, 521436, Note_on_c, 0, 78, 73
1, 521476, Note_off_c, 0, 79, 54
1, 521540, Control_c, 0, 64, 41
1, 521555, Control_c, 0, 64, 54
1, 521570, Control_c, 0, 64, 63
1, 521585, Control_c, 0, 64, 66
1, 521600, Control_c, 0, 64, 70
1, 521614, Control_c, 0, 64, 74
1, 521629, Control_c, 0, 64, 79
1, 521644, Control_c, 0, 64, 85
1, 521651, Note_off_c, 0, 78, 60
1, 521659, Control_c, 0, 64, 89
1, 521681, Control_c, 0, 64, 91
1, 521755, Control_c, 0, 64, 91
1, 521770, Control_c, 0, 64, 90
1, 521784, Control_c, 0, 64, 88
1, 521799, Control_c, 0, 64, 86
1, 521814, Control_c, 0, 64, 82
1, 521829, Control_c, 0, 64, 77
1, 521841, Note_on_c, 0, 83, 72
1, 521844, Control_c, 0, 64, 72
1, 521859, Control_c, 0, 64, 66
1, 521874, Control_c, 0, 64, 61
1, 521875, Note_on_c, 0, 62, 29
1, 521883, Note_on_c, 0, 66, 22
1, 521889, Control_c, 0, 64, 56
1, 521903, Control_c, 0, 64, 55
1, 521918, Control_c, 0, 64, 56
1, 521933, Control_c, 0, 64, 57
1, 521948, Control_c, 0, 64, 59
1, 521962, Control_c, 0, 64, 60
1, 521977, Control_c, 0, 64, 62
1, 521992, Control_c, 0, 64, 64
1, 522007, Control_c, 0, 64, 67
1, 522022, Control_c, 0, 64, 71
1, 522036, Control_c, 0, 64, 75
1, 522051, Control_c, 0, 64, 79
1, 522066, Control_c, 0, 64, 84
1, 522080, Note_off_c, 0, 62, 39
1, 522081, Control_c, 0, 64, 88
1, 522096, Control_c, 0, 64, 92
1, 522110, Control_c, 0, 64, 94
1, 522124, Note_off_c, 0, 66, 36
1, 522125, Control_c, 0, 64, 94
1, 522214, Control_c, 0, 64, 94
1, 522228, Control_c, 0, 64, 92
1, 522244, Control_c, 0, 64, 87
1, 522259, Control_c, 0, 64, 80
1, 522262, Note_on_c, 0, 81, 71
1, 522267, Note_on_c, 0, 66, 32
1, 522274, Control_c, 0, 64, 72
1, 522285, Note_on_c, 0, 62, 28
1, 522289, Control_c, 0, 64, 67
1, 522304, Control_c, 0, 64, 65
1, 522319, Control_c, 0, 64, 65
1, 522348, Control_c, 0, 64, 66
1, 522363, Control_c, 0, 64, 68
1, 522378, Control_c, 0, 64, 70
1, 522392, Control_c, 0, 64, 74
1, 522407, Control_c, 0, 64, 78
1, 522430, Control_c, 0, 64, 82
1, 522445, Control_c, 0, 64, 87
1, 522459, Control_c, 0, 64, 91
1, 522474, Control_c, 0, 64, 95
1, 522533, Control_c, 0, 64, 95
1, 522548, Control_c, 0, 64, 91
1, 522563, Control_c, 0, 64, 84
1, 522577, Control_c, 0, 64, 74
1, 522592, Control_c, 0, 64, 68
1, 522598, Note_on_c, 0, 79, 71
1, 522601, Note_off_c, 0, 83, 9
1, 522607, Control_c, 0, 64, 65
1, 522613, Note_on_c, 0, 71, 42
1, 522622, Control_c, 0, 64, 64
1, 522643, Note_off_c, 0, 62, 42
1, 522652, Control_c, 0, 64, 65
1, 522656, Note_off_c, 0, 66, 40
1, 522667, Control_c, 0, 64, 67
1, 522682, Control_c, 0, 64, 70
1, 522696, Control_c, 0, 64, 73
1, 522711, Control_c, 0, 64, 77
1, 522726, Control_c, 0, 64, 82
1, 522741, Control_c, 0, 64, 87
1, 522756, Control_c, 0, 64, 91
1, 522756, Control_c, 0, 67, 125
1, 522770, Control_c, 0, 64, 95
1, 522779, Note_off_c, 0, 81, 24
1, 522804, Note_off_c, 0, 79, 62
1, 522859, Control_c, 0, 64, 96
1, 522874, Control_c, 0, 64, 93
1, 522889, Control_c, 0, 64, 85
1, 522904, Control_c, 0, 64, 76
1, 522904, Control_c, 0, 67, 123
1, 522912, Note_on_c, 0, 64, 33
1, 522914, Note_on_c, 0, 78, 62
1, 522919, Control_c, 0, 64, 67
1, 522925, Note_on_c, 0, 61, 31
1, 522933, Control_c, 0, 64, 61
1, 522948, Control_c, 0, 64, 57
1, 522949, Note_off_c, 0, 71, 33
1, 522963, Control_c, 0, 67, 121
1, 522977, Control_c, 0, 64, 58
1, 522992, Control_c, 0, 64, 60
1, 523007, Control_c, 0, 64, 62
1, 523007, Control_c, 0, 67, 119
1, 523022, Control_c, 0, 64, 64
1, 523037, Control_c, 0, 64, 66
1, 523037, Control_c, 0, 67, 117
1, 523053, Control_c, 0, 64, 68
1, 523053, Control_c, 0, 67, 113
1, 523068, Control_c, 0, 64, 71
1, 523068, Control_c, 0, 67, 108
1, 523082, Control_c, 0, 64, 73
1, 523082, Control_c, 0, 67, 103
1, 523097, Control_c, 0, 64, 75
1, 523097, Control_c, 0, 67, 97
1, 523112, Control_c, 0, 64, 77
1, 523112, Control_c, 0, 67, 92
1, 523127, Control_c, 0, 64, 79
1, 523127, Control_c, 0, 67, 87
1, 523142, Control_c, 0, 64, 80
1, 523142, Control_c, 0, 67, 84
1, 523156, Control_c, 0, 64, 82
1, 523156, Control_c, 0, 67, 81
1, 523179, Control_c, 0, 64, 83
1, 523179, Control_c, 0, 67, 79
1, 523194, Control_c, 0, 64, 84
1, 523194, Control_c, 0, 67, 77
1, 523208, Control_c, 0, 64, 85
1, 523208, Control_c, 0, 67, 76
1, 523215, Note_on_c, 0, 76, 65
1, 523223, Control_c, 0, 64, 86
1, 523223, Control_c, 0, 67, 75
1, 523238, Control_c, 0, 64, 86
1, 523238, Control_c, 0, 67, 74
1, 523253, Control_c, 0, 67, 73
1, 523268, Control_c, 0, 64, 87
1, 523282, Control_c, 0, 64, 87
1, 523294, Note_on_c, 0, 71, 41
1, 523316, Note_off_c, 0, 78, 53
1, 523348, Note_off_c, 0, 64, 57
1, 523396, Note_on_c, 0, 74, 69
1, 523427, Note_off_c, 0, 76, 38
1, 523474, Note_off_c, 0, 74, 60
1, 523478, Note_off_c, 0, 61, 34
1, 523534, Control_c, 0, 64, 86
1, 523549, Control_c, 0, 64, 82
1, 523559, Note_off_c, 0, 71, 20
1, 523564, Control_c, 0, 64, 75
1, 523576, Note_on_c, 0, 66, 44
1, 523579, Control_c, 0, 64, 68
1, 523579, Note_on_c, 0, 74, 70
1, 523585, Note_on_c, 0, 59, 41
1, 523593, Control_c, 0, 64, 63
1, 523593, Control_c, 0, 67, 73
1, 523608, Control_c, 0, 64, 57
1, 523608, Control_c, 0, 67, 72
1, 523623, Control_c, 0, 64, 55
1, 523638, Control_c, 0, 64, 56
1, 523638, Control_c, 0, 67, 71
1, 523653, Control_c, 0, 64, 57
1, 523653, Control_c, 0, 67, 70
1, 523667, Control_c, 0, 64, 59
1, 523667, Control_c, 0, 67, 65
1, 523682, Control_c, 0, 64, 61
1, 523682, Control_c, 0, 67, 58
1, 523697, Control_c, 0, 64, 64
1, 523697, Control_c, 0, 67, 47
1, 523712, Control_c, 0, 64, 66
1, 523712, Control_c, 0, 67, 35
1, 523727, Control_c, 0, 64, 69
1, 523727, Control_c, 0, 67, 23
1, 523741, Control_c, 0, 64, 72
1, 523741, Control_c, 0, 67, 0
1, 523756, Control_c, 0, 64, 75
1, 523771, Control_c, 0, 64, 79
1, 523786, Control_c, 0, 64, 82
1, 523801, Control_c, 0, 64, 85
1, 523816, Control_c, 0, 64, 88
1, 523819, Note_on_c, 0, 76, 63
1, 523831, Control_c, 0, 64, 92
1, 523847, Control_c, 0, 64, 98
1, 523862, Control_c, 0, 64, 105
1, 523877, Control_c, 0, 64, 112
1, 523881, Note_off_c, 0, 74, 52
1, 523883, Note_on_c, 0, 71, 47
1, 523892, Control_c, 0, 64, 127
1, 523941, Note_off_c, 0, 66, 38
1, 523951, Note_off_c, 0, 71, 59
1, 523953, Note_off_c, 0, 59, 35
1, 523990, Note_off_c, 0, 76, 37
1, 524014, Note_on_c, 0, 78, 59
1, 524085, Note_off_c, 0, 78, 60
1, 524284, Control_c, 0, 64, 115
1, 524298, Control_c, 0, 64, 92
1, 524303, Note_on_c, 0, 55, 45
1, 524308, Note_on_c, 0, 47, 52
1, 524313, Control_c, 0, 64, 79
1, 524328, Control_c, 0, 64, 69
1, 524329, Note_on_c, 0, 76, 42
1, 524342, Control_c, 0, 64, 63
1, 524357, Control_c, 0, 64, 57
1, 524372, Control_c, 0, 64, 56
1, 524387, Control_c, 0, 64, 57
1, 524390, Note_off_c, 0, 76, 60
1, 524402, Control_c, 0, 64, 59
1, 524412, Note_on_c, 0, 78, 48
1, 524416, Control_c, 0, 64, 62
1, 524431, Control_c, 0, 64, 64
1, 524446, Control_c, 0, 64, 68
1, 524451, Note_off_c, 0, 78, 63
1, 524461, Control_c, 0, 64, 74
1, 524476, Control_c, 0, 64, 81
1, 524491, Control_c, 0, 64, 89
1, 524495, Note_on_c, 0, 76, 47
1, 524506, Control_c, 0, 64, 99
1, 524521, Control_c, 0, 64, 122
1, 524525, Note_off_c, 0, 76, 53
1, 524536, Control_c, 0, 64, 127
1, 524542, Note_on_c, 0, 78, 54
1, 524576, Note_off_c, 0, 78, 59
1, 524618, Note_on_c, 0, 76, 50
1, 524643, Note_off_c, 0, 76, 57
1, 524652, Note_on_c, 0, 78, 52
1, 524696, Note_off_c, 0, 78, 56
1, 524700, Note_off_c, 0, 55, 62
1, 524723, Note_off_c, 0, 47, 37
1, 524724, Note_on_c, 0, 59, 50
1, 524732, Note_on_c, 0, 76, 52
1, 524758, Note_off_c, 0, 76, 55
1, 524765, Note_on_c, 0, 78, 51
1, 524795, Note_off_c, 0, 78, 59
1, 524836, Note_on_c, 0, 76, 50
1, 524858, Note_off_c, 0, 76, 58
1, 524875, Note_on_c, 0, 78, 56
1, 524900, Note_off_c, 0, 78, 58
1, 524942, Note_on_c, 0, 76, 58
1, 524962, Note_off_c, 0, 76, 61
1, 524972, Note_on_c, 0, 78, 67
1, 524977, Note_off_c, 0, 59, 54
1, 524991, Note_on_c, 0, 62, 58
1, 525004, Note_off_c, 0, 78, 62
1, 525042, Note_on_c, 0, 76, 63
1, 525064, Note_off_c, 0, 76, 59
1, 525078, Note_on_c, 0, 78, 60
1, 525114, Note_off_c, 0, 78, 60
1, 525144, Note_on_c, 0, 76, 56
1, 525163, Note_on_c, 0, 78, 58
1, 525170, Note_off_c, 0, 76, 54
1, 525209, Note_off_c, 0, 78, 60
1, 525229, Note_on_c, 0, 76, 58
1, 525245, Note_on_c, 0, 64, 57
1, 525253, Note_on_c, 0, 78, 59
1, 525265, Note_off_c, 0, 76, 54
1, 525302, Note_off_c, 0, 78, 64
1, 525305, Note_off_c, 0, 62, 50
1, 525323, Poly_aftertouch_c, 0, 76, 127
1, 525365, Poly_aftertouch_c, 0, 76, 0
1, 525384, Note_on_c, 0, 74, 59
1, 525385, Note_on_c, 0, 67, 66
1, 525449, Note_off_c, 0, 74, 61
1, 525468, Note_on_c, 0, 76, 61
1, 525484, Control_c, 0, 64, 101
1, 525499, Control_c, 0, 64, 87
1, 525500, Note_on_c, 0, 71, 70
1, 525502, Note_off_c, 0, 76, 62
1, 525513, Note_on_c, 0, 78, 62
1, 525514, Control_c, 0, 64, 78
1, 525529, Control_c, 0, 64, 73
1, 525543, Control_c, 0, 64, 71
1, 525552, Note_off_c, 0, 78, 60
1, 525573, Control_c, 0, 64, 73
1, 525585, Note_on_c, 0, 76, 62
1, 525588, Control_c, 0, 64, 76
1, 525603, Control_c, 0, 64, 80
1, 525616, Note_off_c, 0, 76, 62
1, 525618, Control_c, 0, 64, 85
1, 525625, Note_off_c, 0, 64, 56
1, 525633, Note_on_c, 0, 78, 58
1, 525633, Control_c, 0, 64, 90
1, 525646, Note_off_c, 0, 67, 57
1, 525648, Control_c, 0, 64, 94
1, 525662, Control_c, 0, 64, 98
1, 525667, Note_off_c, 0, 78, 65
1, 525692, Control_c, 0, 64, 101
1, 525696, Note_on_c, 0, 76, 65
1, 525726, Note_off_c, 0, 76, 65
1, 525739, Note_on_c, 0, 78, 68
1, 525770, Note_off_c, 0, 78, 61
1, 525817, Note_on_c, 0, 76, 56
1, 525839, Note_off_c, 0, 76, 60
1, 525864, Note_on_c, 0, 78, 57
1, 525874, Note_on_c, 0, 67, 50
1, 525889, Note_off_c, 0, 78, 60
1, 525916, Note_on_c, 0, 76, 60
1, 525946, Note_off_c, 0, 76, 65
1, 525969, Note_on_c, 0, 78, 59
1, 525992, Note_off_c, 0, 78, 60
1, 525996, Note_off_c, 0, 71, 37
1, 526032, Note_on_c, 0, 76, 57
1, 526056, Note_off_c, 0, 76, 59
1, 526069, Note_on_c, 0, 78, 65
1, 526099, Note_off_c, 0, 78, 65
1, 526132, Note_on_c, 0, 76, 64
1, 526145, Note_on_c, 0, 64, 60
1, 526172, Note_off_c, 0, 76, 62
1, 526195, Note_on_c, 0, 78, 56
1, 526220, Note_off_c, 0, 78, 58
1, 526257, Note_on_c, 0, 76, 56
1, 526285, Note_off_c, 0, 67, 35
1, 526285, Note_off_c, 0, 76, 56
1, 526291, Note_on_c, 0, 78, 65
1, 526315, Note_off_c, 0, 78, 62
1, 526353, Note_on_c, 0, 76, 60
1, 526378, Note_off_c, 0, 76, 58
1, 526381, Note_on_c, 0, 78, 72
1, 526414, Note_off_c, 0, 78, 59
1, 526438, Note_on_c, 0, 62, 55
1, 526452, Note_on_c, 0, 76, 64
1, 526469, Note_off_c, 0, 64, 54
1, 526471, Control_c, 0, 64, 99
1, 526482, Note_on_c, 0, 78, 56
1, 526500, Note_off_c, 0, 76, 0
1, 526501, Note_off_c, 0, 78, 65
1, 526516, Note_on_c, 0, 76, 55
1, 526545, Control_c, 0, 64, 97
1, 526569, Note_on_c, 0, 74, 61
1, 526573, Note_off_c, 0, 76, 62
1, 526575, Control_c, 0, 64, 96
1, 526588, Note_on_c, 0, 67, 67
1, 526590, Control_c, 0, 64, 95
1, 526604, Control_c, 0, 64, 94
1, 526607, Note_off_c, 0, 74, 56
1, 526619, Control_c, 0, 64, 92
1, 526634, Control_c, 0, 64, 86
1, 526643, Note_on_c, 0, 76, 65
1, 526649, Control_c, 0, 64, 77
1, 526664, Control_c, 0, 64, 67
1, 526668, Note_on_c, 0, 71, 78
1, 526679, Note_off_c, 0, 76, 62
1, 526679, Control_c, 0, 64, 61
1, 526689, Note_on_c, 0, 78, 59
1, 526693, Control_c, 0, 64, 57
1, 526708, Control_c, 0, 64, 58
1, 526721, Note_off_c, 0, 78, 64
1, 526723, Control_c, 0, 64, 59
1, 526738, Control_c, 0, 64, 61
1, 526752, Control_c, 0, 64, 63
1, 526759, Note_on_c, 0, 76, 58
1, 526767, Control_c, 0, 64, 65
1, 526770, Note_off_c, 0, 67, 56
1, 526782, Control_c, 0, 64, 67
1, 526786, Note_off_c, 0, 76, 65
1, 526795, Control_c, 0, 64, 69
1, 526799, Note_on_c, 0, 78, 63
1, 526807, Note_off_c, 0, 62, 23
1, 526810, Control_c, 0, 64, 71
1, 526825, Control_c, 0, 64, 73
1, 526829, Note_off_c, 0, 78, 64
1, 526840, Control_c, 0, 64, 73
1, 526855, Control_c, 0, 64, 74
1, 526861, Note_on_c, 0, 76, 66
1, 526870, Control_c, 0, 64, 74
1, 526889, Note_off_c, 0, 76, 64
1, 526899, Control_c, 0, 64, 75
1, 526917, Note_on_c, 0, 78, 62
1, 526947, Note_off_c, 0, 78, 62
1, 526977, Note_on_c, 0, 67, 56
1, 526987, Note_on_c, 0, 76, 58
1, 527010, Note_off_c, 0, 76, 59
1, 527022, Note_on_c, 0, 78, 54
1, 527052, Note_off_c, 0, 78, 61
1, 527081, Note_on_c, 0, 76, 70
1, 527108, Note_off_c, 0, 76, 66
1, 527109, Note_off_c, 0, 71, 56
1, 527121, Note_on_c, 0, 78, 64
1, 527150, Note_off_c, 0, 78, 63
1, 527192, Note_on_c, 0, 76, 64
1, 527215, Note_off_c, 0, 76, 63
1, 527224, Note_on_c, 0, 78, 62
1, 527226, Note_on_c, 0, 64, 50
1, 527258, Note_off_c, 0, 78, 60
1, 527288, Note_on_c, 0, 76, 71
1, 527288, Note_off_c, 0, 67, 49
1, 527314, Note_off_c, 0, 76, 65
1, 527324, Note_on_c, 0, 78, 59
1, 527359, Note_off_c, 0, 78, 61
1, 527397, Note_on_c, 0, 76, 60
1, 527418, Note_off_c, 0, 76, 61
1, 527427, Note_on_c, 0, 78, 59
1, 527448, Note_off_c, 0, 78, 61
1, 527470, Control_c, 0, 64, 74
1, 527481, Note_on_c, 0, 76, 78
1, 527490, Note_on_c, 0, 62, 51
1, 527491, Note_off_c, 0, 64, 54
1, 527514, Control_c, 0, 64, 74
1, 527535, Note_off_c, 0, 76, 62
1, 527568, Note_on_c, 0, 74, 61
1, 527591, Note_on_c, 0, 67, 59
1, 527604, Note_off_c, 0, 74, 63
1, 527618, Control_c, 0, 64, 73
1, 527642, Note_on_c, 0, 76, 61
1, 527648, Control_c, 0, 64, 73
1, 527670, Control_c, 0, 64, 72
1, 527678, Note_off_c, 0, 76, 66
1, 527682, Note_on_c, 0, 78, 64
1, 527685, Control_c, 0, 64, 71
1, 527699, Control_c, 0, 64, 69
1, 527701, Note_on_c, 0, 71, 67
1, 527714, Control_c, 0, 64, 65
1, 527728, Note_off_c, 0, 78, 61
1, 527729, Control_c, 0, 64, 60
1, 527744, Control_c, 0, 64, 54
1, 527750, Note_on_c, 0, 76, 69
1, 527759, Control_c, 0, 64, 50
1, 527764, Note_off_c, 0, 62, 26
1, 527773, Control_c, 0, 64, 49
1, 527777, Note_off_c, 0, 76, 65
1, 527788, Control_c, 0, 64, 50
1, 527794, Note_on_c, 0, 78, 55
1, 527802, Note_off_c, 0, 67, 58
1, 527803, Control_c, 0, 64, 52
1, 527818, Control_c, 0, 64, 54
1, 527833, Control_c, 0, 64, 57
1, 527849, Control_c, 0, 64, 60
1, 527859, Note_off_c, 0, 78, 54
1, 527862, Note_on_c, 0, 76, 61
1, 527863, Control_c, 0, 64, 62
1, 527878, Control_c, 0, 64, 63
1, 527893, Control_c, 0, 64, 63
1, 527908, Control_c, 0, 64, 64
1, 527923, Control_c, 0, 64, 65
1, 527937, Control_c, 0, 64, 66
1, 527952, Control_c, 0, 64, 67
1, 527958, Note_off_c, 0, 76, 59
1, 528014, Note_on_c, 0, 67, 58
1, 528025, Poly_aftertouch_c, 0, 75, 0
1, 528071, Control_c, 0, 64, 66
1, 528125, Note_on_c, 0, 74, 62
1, 528130, Control_c, 0, 64, 66
1, 528135, Note_off_c, 0, 71, 38
1, 528175, Control_c, 0, 64, 65
1, 528177, Note_on_c, 0, 76, 58
1, 528200, Note_off_c, 0, 74, 57
1, 528204, Control_c, 0, 64, 65
1, 528210, Note_on_c, 0, 78, 65
1, 528213, Note_off_c, 0, 76, 64
1, 528219, Control_c, 0, 64, 64
1, 528234, Control_c, 0, 64, 61
1, 528249, Control_c, 0, 64, 57
1, 528263, Control_c, 0, 64, 54
1, 528278, Control_c, 0, 64, 52
1, 528282, Note_on_c, 0, 76, 73
1, 528294, Control_c, 0, 64, 51
1, 528295, Note_off_c, 0, 78, 58
1, 528323, Note_on_c, 0, 64, 48
1, 528323, Control_c, 0, 64, 52
1, 528338, Control_c, 0, 64, 53
1, 528353, Control_c, 0, 64, 56
1, 528368, Control_c, 0, 64, 60
1, 528370, Note_off_c, 0, 76, 62
1, 528382, Control_c, 0, 64, 62
1, 528384, Note_off_c, 0, 67, 38
1, 528397, Control_c, 0, 64, 63
1, 528420, Control_c, 0, 64, 64
1, 528435, Control_c, 0, 64, 64
1, 528450, Control_c, 0, 64, 65
1, 528464, Control_c, 0, 64, 65
1, 528492, Note_on_c, 0, 74, 59
1, 528523, Control_c, 0, 64, 65
1, 528546, Note_on_c, 0, 76, 57
1, 528553, Control_c, 0, 64, 64
1, 528562, Note_off_c, 0, 74, 58
1, 528568, Control_c, 0, 64, 63
1, 528583, Note_off_c, 0, 76, 64
1, 528583, Control_c, 0, 64, 60
1, 528587, Note_on_c, 0, 78, 65
1, 528597, Control_c, 0, 64, 57
1, 528612, Control_c, 0, 64, 54
1, 528627, Control_c, 0, 64, 52
1, 528643, Control_c, 0, 64, 51
1, 528662, Note_on_c, 0, 76, 64
1, 528670, Note_on_c, 0, 62, 43
1, 528673, Control_c, 0, 64, 52
1, 528688, Control_c, 0, 64, 54
1, 528692, Note_off_c, 0, 64, 40
1, 528702, Control_c, 0, 64, 57
1, 528706, Note_off_c, 0, 78, 37
1, 528717, Control_c, 0, 64, 60
1, 528732, Control_c, 0, 64, 63
1, 528746, Control_c, 0, 64, 66
1, 528757, Note_off_c, 0, 76, 61
1, 528757, Note_off_c, 0, 62, 61
1, 528761, Control_c, 0, 64, 68
1, 528776, Control_c, 0, 64, 70
1, 528791, Control_c, 0, 64, 73
1, 528806, Control_c, 0, 64, 74
1, 528820, Control_c, 0, 64, 75
1, 528865, Control_c, 0, 64, 74
1, 528894, Control_c, 0, 64, 74
1, 528909, Control_c, 0, 64, 73
1, 528924, Note_on_c, 0, 74, 41
1, 528924, Control_c, 0, 64, 72
1, 528938, Control_c, 0, 64, 71
1, 528953, Control_c, 0, 64, 70
1, 528968, Control_c, 0, 64, 69
1, 528973, Note_on_c, 0, 76, 56
1, 528983, Control_c, 0, 64, 68
1, 528986, Note_off_c, 0, 74, 54
1, 528998, Control_c, 0, 64, 67
1, 529013, Control_c, 0, 64, 66
1, 529028, Control_c, 0, 64, 64
1, 529043, Control_c, 0, 64, 64
1, 529046, Note_on_c, 0, 78, 56
1, 529046, Note_off_c, 0, 76, 62
1, 529058, Control_c, 0, 64, 63
1, 529073, Control_c, 0, 64, 63
1, 529087, Control_c, 0, 64, 62
1, 529102, Control_c, 0, 64, 62
1, 529117, Control_c, 0, 64, 61
1, 529131, Control_c, 0, 64, 61
1, 529146, Control_c, 0, 64, 60
1, 529168, Control_c, 0, 64, 58
1, 529173, Note_on_c, 0, 76, 60
1, 529183, Control_c, 0, 64, 56
1, 529198, Control_c, 0, 64, 53
1, 529213, Control_c, 0, 64, 48
1, 529228, Control_c, 0, 64, 40
1, 529234, Note_off_c, 0, 78, 44
1, 529243, Control_c, 0, 64, 0
1, 529376, Control_c, 0, 64, 42
1, 529391, Control_c, 0, 64, 53
1, 529406, Control_c, 0, 64, 59
1, 529406, Control_c, 0, 67, 21
1, 529420, Control_c, 0, 64, 61
1, 529420, Control_c, 0, 67, 25
1, 529435, Control_c, 0, 64, 62
1, 529435, Control_c, 0, 67, 29
1, 529451, Control_c, 0, 64, 63
1, 529451, Control_c, 0, 67, 35
1, 529466, Control_c, 0, 64, 64
1, 529466, Control_c, 0, 67, 44
1, 529481, Control_c, 0, 64, 65
1, 529481, Control_c, 0, 67, 57
1, 529496, Control_c, 0, 64, 66
1, 529496, Control_c, 0, 67, 74
1, 529511, Control_c, 0, 64, 67
1, 529511, Control_c, 0, 67, 89
1, 529525, Control_c, 0, 64, 67
1, 529525, Control_c, 0, 67, 104
1, 529540, Control_c, 0, 64, 68
1, 529540, Control_c, 0, 67, 118
1, 529555, Control_c, 0, 64, 69
1, 529555, Control_c, 0, 67, 127
1, 529569, Control_c, 0, 64, 70
1, 529580, Note_on_c, 0, 61, 32
1, 529584, Control_c, 0, 64, 71
1, 529599, Control_c, 0, 64, 72
1, 529608, Note_on_c, 0, 64, 6
1, 529614, Control_c, 0, 64, 72
1, 529629, Control_c, 0, 64, 73
1, 529643, Control_c, 0, 64, 74
1, 529658, Control_c, 0, 64, 74
1, 529673, Control_c, 0, 64, 75
1, 529687, Control_c, 0, 64, 75
1, 529702, Control_c, 0, 64, 76
1, 529716, Note_off_c, 0, 64, 37
1, 529728, Note_off_c, 0, 61, 35
1, 529791, Control_c, 0, 64, 76
1, 529873, Note_off_c, 0, 76, 50
1, 530032, Note_on_c, 0, 61, 33
1, 530060, Note_on_c, 0, 64, 14
1, 530140, Control_c, 0, 64, 76
1, 530202, Note_on_c, 0, 78, 44
1, 530214, Control_c, 0, 64, 75
1, 530259, Control_c, 0, 64, 75
1, 530304, Control_c, 0, 64, 74
1, 530323, Note_on_c, 0, 76, 53
1, 530333, Control_c, 0, 64, 74
1, 530363, Control_c, 0, 64, 73
1, 530378, Control_c, 0, 64, 71
1, 530386, Note_off_c, 0, 76, 63
1, 530392, Control_c, 0, 64, 68
1, 530407, Control_c, 0, 64, 63
1, 530414, Note_on_c, 0, 74, 54
1, 530415, Note_off_c, 0, 78, 37
1, 530422, Control_c, 0, 64, 58
1, 530437, Control_c, 0, 64, 54
1, 530452, Control_c, 0, 64, 53
1, 530466, Control_c, 0, 64, 53
1, 530481, Control_c, 0, 64, 54
1, 530496, Control_c, 0, 64, 55
1, 530510, Control_c, 0, 64, 58
1, 530513, Note_on_c, 0, 76, 59
1, 530525, Control_c, 0, 64, 60
1, 530528, Note_off_c, 0, 74, 51
1, 530537, Note_on_c, 0, 67, 25
1, 530539, Control_c, 0, 64, 62
1, 530553, Note_off_c, 0, 61, 31
1, 530554, Note_on_c, 0, 71, 6
1, 530554, Control_c, 0, 64, 64
1, 530569, Control_c, 0, 64, 66
1, 530573, Note_off_c, 0, 67, 60
1, 530581, Note_off_c, 0, 64, 44
1, 530581, Note_off_c, 0, 71, 47
1, 530584, Control_c, 0, 64, 67
1, 530586, Note_off_c, 0, 76, 62
1, 530599, Control_c, 0, 64, 69
1, 530605, Note_on_c, 0, 78, 58
1, 530614, Control_c, 0, 64, 70
1, 530629, Control_c, 0, 64, 72
1, 530643, Control_c, 0, 64, 74
1, 530665, Control_c, 0, 64, 75
1, 530680, Control_c, 0, 64, 76
1, 530696, Note_off_c, 0, 78, 62
1, 530709, Note_on_c, 0, 76, 60
1, 530782, Note_on_c, 0, 78, 63
1, 530783, Note_off_c, 0, 76, 61
1, 530799, Control_c, 0, 64, 75
1, 530813, Control_c, 0, 64, 75
1, 530828, Control_c, 0, 64, 74
1, 530843, Control_c, 0, 64, 73
1, 530858, Control_c, 0, 64, 72
1, 530873, Control_c, 0, 64, 71
1, 530888, Control_c, 0, 64, 70
1, 530903, Control_c, 0, 64, 68
1, 530917, Control_c, 0, 64, 66
1, 530932, Control_c, 0, 64, 64
1, 530947, Control_c, 0, 64, 60
1, 530962, Control_c, 0, 64, 54
1, 530977, Control_c, 0, 64, 44
1, 530991, Control_c, 0, 64, 0
1, 531001, Note_on_c, 0, 76, 55
1, 531005, Note_on_c, 0, 40, 27
1, 531015, Note_on_c, 0, 45, 20
1, 531016, Note_off_c, 0, 78, 43
1, 531140, Control_c, 0, 64, 58
1, 531155, Control_c, 0, 64, 73
1, 531158, Note_off_c, 0, 40, 55
1, 531170, Control_c, 0, 64, 105
1, 531175, Note_off_c, 0, 45, 55
1, 531185, Control_c, 0, 64, 127
1, 531275, Note_off_c, 0, 76, 57
1, 531576, Note_on_c, 0, 81, 60
1, 531589, Note_on_c, 0, 61, 39
1, 531690, Poly_aftertouch_c, 0, 64, 127
1, 531787, Poly_aftertouch_c, 0, 64, 0
1, 531789, Note_off_c, 0, 61, 38
1, 531854, Note_off_c, 0, 81, 55
1, 532036, Note_on_c, 0, 79, 69
1, 532048, Note_on_c, 0, 61, 34
1, 532068, Note_on_c, 0, 64, 23
1, 532269, Note_off_c, 0, 79, 61
1, 532396, Note_on_c, 0, 78, 72
1, 532409, Note_on_c, 0, 67, 34
1, 532416, Note_on_c, 0, 71, 34
1, 532635, Note_off_c, 0, 78, 56
1, 532691, Note_off_c, 0, 67, 42
1, 532715, Note_off_c, 0, 71, 39
1, 532719, Note_on_c, 0, 76, 75
1, 532787, Note_off_c, 0, 64, 36
1, 532852, Note_off_c, 0, 61, 35
1, 533021, Note_on_c, 0, 74, 72
1, 533028, Note_on_c, 0, 67, 46
1, 533031, Note_on_c, 0, 71, 46
1, 533055, Note_off_c, 0, 76, 61
1, 533268, Control_c, 0, 64, 120
1, 533283, Control_c, 0, 64, 97
1, 533294, Note_on_c, 0, 73, 75
1, 533298, Control_c, 0, 64, 80
1, 533312, Control_c, 0, 64, 67
1, 533319, Note_on_c, 0, 64, 33
1, 533327, Note_on_c, 0, 61, 39
1, 533327, Control_c, 0, 64, 55
1, 533337, Note_off_c, 0, 74, 48
1, 533340, Note_off_c, 0, 71, 37
1, 533342, Control_c, 0, 64, 45
1, 533357, Control_c, 0, 64, 43
1, 533369, Note_off_c, 0, 67, 38
1, 533372, Control_c, 0, 64, 47
1, 533386, Control_c, 0, 64, 52
1, 533401, Control_c, 0, 64, 56
1, 533416, Control_c, 0, 64, 59
1, 533432, Control_c, 0, 64, 62
1, 533447, Control_c, 0, 64, 63
1, 533462, Control_c, 0, 64, 65
1, 533476, Control_c, 0, 64, 66
1, 533491, Control_c, 0, 64, 68
1, 533506, Control_c, 0, 64, 69
1, 533521, Control_c, 0, 64, 71
1, 533536, Control_c, 0, 64, 72
1, 533551, Control_c, 0, 64, 72
1, 533562, Note_off_c, 0, 64, 52
1, 533566, Control_c, 0, 64, 73
1, 533574, Note_on_c, 0, 74, 79
1, 533577, Note_off_c, 0, 61, 34
1, 533581, Control_c, 0, 64, 74
1, 533591, Note_off_c, 0, 73, 60
1, 533595, Note_on_c, 0, 67, 37
1, 533596, Control_c, 0, 64, 75
1, 533605, Note_on_c, 0, 71, 34
1, 533625, Control_c, 0, 64, 75
1, 533745, Note_off_c, 0, 67, 22
1, 533766, Control_c, 0, 64, 75
1, 533774, Note_off_c, 0, 71, 33
1, 533796, Control_c, 0, 64, 74
1, 533810, Control_c, 0, 64, 74
1, 533825, Control_c, 0, 64, 72
1, 533840, Control_c, 0, 64, 67
1, 533854, Control_c, 0, 64, 60
1, 533855, Note_on_c, 0, 76, 80
1, 533869, Control_c, 0, 64, 48
1, 533873, Note_on_c, 0, 62, 40
1, 533883, Note_on_c, 0, 59, 35
1, 533884, Control_c, 0, 64, 32
1, 533899, Control_c, 0, 64, 0
1, 533958, Control_c, 0, 64, 31
1, 533964, Note_off_c, 0, 74, 33
1, 533973, Control_c, 0, 64, 42
1, 533988, Control_c, 0, 64, 52
1, 534003, Control_c, 0, 64, 59
1, 534018, Control_c, 0, 64, 61
1, 534033, Control_c, 0, 64, 63
1, 534048, Control_c, 0, 64, 64
1, 534062, Control_c, 0, 64, 65
1, 534077, Control_c, 0, 64, 67
1, 534092, Control_c, 0, 64, 69
1, 534107, Control_c, 0, 64, 70
1, 534122, Control_c, 0, 64, 71
1, 534136, Note_off_c, 0, 59, 40
1, 534136, Control_c, 0, 64, 73
1, 534140, Note_off_c, 0, 62, 33
1, 534141, Note_on_c, 0, 83, 80
1, 534151, Control_c, 0, 64, 74
1, 534160, Note_on_c, 0, 67, 38
1, 534164, Note_on_c, 0, 71, 44
1, 534166, Control_c, 0, 64, 76
1, 534181, Control_c, 0, 64, 78
1, 534196, Control_c, 0, 64, 79
1, 534210, Control_c, 0, 64, 81
1, 534225, Control_c, 0, 64, 83
1, 534241, Control_c, 0, 64, 84
1, 534251, Note_off_c, 0, 76, 48
1, 534256, Control_c, 0, 64, 85
1, 534303, Note_off_c, 0, 67, 23
1, 534331, Note_off_c, 0, 71, 37
1, 534343, Note_off_c, 0, 83, 60
1, 534441, Control_c, 0, 64, 84
1, 534456, Control_c, 0, 64, 80
1, 534465, Note_on_c, 0, 57, 48
1, 534467, Note_on_c, 0, 81, 83
1, 534471, Control_c, 0, 64, 70
1, 534477, Note_on_c, 0, 61, 38
1, 534485, Control_c, 0, 64, 59
1, 534500, Control_c, 0, 64, 37
1, 534515, Control_c, 0, 64, 0
1, 534545, Control_c, 0, 67, 114
1, 534559, Control_c, 0, 67, 97
1, 534574, Control_c, 0, 67, 77
1, 534589, Control_c, 0, 64, 42
1, 534589, Control_c, 0, 67, 57
1, 534604, Control_c, 0, 64, 55
1, 534604, Control_c, 0, 67, 35
1, 534619, Control_c, 0, 64, 62
1, 534619, Control_c, 0, 67, 0
1, 534633, Control_c, 0, 64, 66
1, 534648, Control_c, 0, 64, 69
1, 534663, Control_c, 0, 64, 74
1, 534677, Control_c, 0, 64, 80
1, 534692, Control_c, 0, 64, 89
1, 534707, Control_c, 0, 64, 100
1, 534722, Control_c, 0, 64, 122
1, 534737, Control_c, 0, 64, 127
1, 534776, Note_off_c, 0, 57, 30
1, 534793, Note_on_c, 0, 79, 76
1, 534795, Note_on_c, 0, 67, 55
1, 534814, Note_on_c, 0, 71, 38
1, 534836, Note_off_c, 0, 67, 60
1, 534844, Note_off_c, 0, 71, 53
1, 534878, Note_off_c, 0, 81, 57
1, 534879, Note_off_c, 0, 61, 38
1, 534959, Note_off_c, 0, 79, 59
1, 535233, Control_c, 0, 64, 105
1, 535243, Note_on_c, 0, 37, 65
1, 535248, Note_on_c, 0, 42, 57
1, 535248, Control_c, 0, 64, 66
1, 535256, Note_on_c, 0, 79, 84
1, 535263, Control_c, 0, 64, 0
1, 535307, Control_c, 0, 64, 34
1, 535322, Control_c, 0, 64, 67
1, 535336, Note_off_c, 0, 37, 62
1, 535337, Control_c, 0, 64, 127
1, 535344, Note_off_c, 0, 42, 62
1, 535784, Note_on_c, 0, 64, 56
1, 535790, Note_on_c, 0, 61, 56
1, 536071, Note_off_c, 0, 64, 60
1, 536081, Note_off_c, 0, 61, 56
1, 536085, Note_off_c, 0, 79, 55
1, 536225, Note_on_c, 0, 61, 52
1, 536238, Note_on_c, 0, 64, 36
1, 536400, Note_on_c, 0, 70, 62
1, 536471, Note_off_c, 0, 70, 63
1, 536489, Note_on_c, 0, 71, 67
1, 536545, Note_off_c, 0, 64, 37
1, 536566, Note_on_c, 0, 73, 68
1, 536637, Note_on_c, 0, 74, 68
1, 536644, Note_off_c, 0, 71, 37
1, 536680, Note_off_c, 0, 73, 61
1, 536687, Control_c, 0, 64, 102
1, 536701, Note_on_c, 0, 76, 69
1, 536702, Control_c, 0, 64, 81
1, 536717, Control_c, 0, 64, 70
1, 536730, Note_off_c, 0, 74, 64
1, 536732, Control_c, 0, 64, 62
1, 536736, Note_on_c, 0, 67, 38
1, 536740, Note_on_c, 0, 54, 41
1, 536747, Control_c, 0, 64, 59
1, 536761, Control_c, 0, 64, 60
1, 536762, Note_off_c, 0, 76, 64
1, 536766, Note_on_c, 0, 78, 76
1, 536776, Control_c, 0, 64, 63
1, 536791, Control_c, 0, 64, 68
1, 536796, Note_off_c, 0, 61, 40
1, 536805, Control_c, 0, 64, 73
1, 536814, Note_on_c, 0, 76, 66
1, 536820, Control_c, 0, 64, 79
1, 536835, Control_c, 0, 64, 88
1, 536850, Control_c, 0, 64, 96
1, 536856, Note_off_c, 0, 78, 62
1, 536865, Control_c, 0, 64, 106
1, 536870, Note_on_c, 0, 74, 75
1, 536880, Control_c, 0, 64, 125
1, 536895, Control_c, 0, 64, 127
1, 536909, Note_off_c, 0, 67, 51
1, 536919, Note_on_c, 0, 73, 75
1, 536931, Note_off_c, 0, 76, 60
1, 536954, Note_off_c, 0, 74, 63
1, 536972, Note_off_c, 0, 73, 64
1, 536976, Note_on_c, 0, 71, 73
1, 537022, Note_off_c, 0, 71, 48
1, 537044, Note_on_c, 0, 69, 64
1, 537062, Note_on_c, 0, 67, 56
1, 537099, Note_off_c, 0, 67, 46
1, 537117, Control_c, 0, 64, 116
1, 537123, Note_on_c, 0, 67, 64
1, 537132, Note_off_c, 0, 69, 63
1, 537132, Control_c, 0, 64, 107
1, 537147, Control_c, 0, 64, 102
1, 537157, Note_off_c, 0, 54, 0
1, 537161, Control_c, 0, 64, 98
1, 537176, Control_c, 0, 64, 95
1, 537191, Control_c, 0, 64, 94
1, 537194, Poly_aftertouch_c, 0, 54, 127
1, 537205, Control_c, 0, 64, 92
1, 537207, Note_on_c, 0, 69, 67
1, 537220, Note_off_c, 0, 67, 62
1, 537220, Control_c, 0, 64, 91
1, 537235, Control_c, 0, 64, 90
1, 537250, Control_c, 0, 64, 89
1, 537265, Control_c, 0, 64, 88
1, 537269, Note_off_c, 0, 69, 61
1, 537279, Control_c, 0, 64, 87
1, 537288, Note_on_c, 0, 67, 57
1, 537294, Control_c, 0, 64, 86
1, 537295, Poly_aftertouch_c, 0, 54, 0
1, 537309, Control_c, 0, 64, 85
1, 537324, Control_c, 0, 64, 84
1, 537334, Note_on_c, 0, 69, 54
1, 537334, Note_off_c, 0, 67, 63
1, 537339, Control_c, 0, 64, 83
1, 537354, Control_c, 0, 64, 82
1, 537368, Control_c, 0, 64, 81
1, 537369, Note_off_c, 0, 69, 61
1, 537383, Control_c, 0, 64, 80
1, 537405, Note_on_c, 0, 67, 55
1, 537405, Control_c, 0, 64, 79
1, 537420, Control_c, 0, 64, 77
1, 537422, Note_on_c, 0, 62, 69
1, 537430, Note_on_c, 0, 59, 57
1, 537436, Control_c, 0, 64, 73
1, 537444, Note_off_c, 0, 67, 64
1, 537451, Control_c, 0, 64, 66
1, 537454, Note_on_c, 0, 69, 57
1, 537466, Control_c, 0, 64, 57
1, 537481, Control_c, 0, 64, 43
1, 537492, Note_off_c, 0, 69, 62
1, 537496, Control_c, 0, 64, 29
1, 537510, Control_c, 0, 64, 0
1, 537524, Note_on_c, 0, 67, 58
1, 537525, Control_c, 0, 64, 30
1, 537540, Control_c, 0, 64, 34
1, 537555, Control_c, 0, 64, 40
1, 537556, Note_off_c, 0, 67, 66
1, 537560, Note_on_c, 0, 69, 59
1, 537570, Control_c, 0, 64, 48
1, 537584, Control_c, 0, 64, 55
1, 537599, Control_c, 0, 64, 60
1, 537602, Note_off_c, 0, 69, 63
1, 537614, Control_c, 0, 64, 63
1, 537620, Note_on_c, 0, 67, 67
1, 537628, Control_c, 0, 64, 67
1, 537643, Control_c, 0, 64, 69
1, 537655, Note_off_c, 0, 67, 62
1, 537658, Note_on_c, 0, 69, 55
1, 537658, Control_c, 0, 64, 72
1, 537673, Control_c, 0, 64, 73
1, 537688, Control_c, 0, 64, 74
1, 537718, Note_off_c, 0, 69, 61
1, 537721, Note_on_c, 0, 65, 72
1, 537732, Control_c, 0, 64, 73
1, 537733, Note_on_c, 0, 67, 55
1, 537747, Control_c, 0, 64, 71
1, 537759, Note_on_c, 0, 54, 58
1, 537762, Control_c, 0, 64, 66
1, 537771, Note_off_c, 0, 67, 63
1, 537777, Control_c, 0, 64, 61
1, 537791, Note_on_c, 0, 69, 39
1, 537792, Control_c, 0, 64, 53
1, 537807, Control_c, 0, 64, 47
1, 537813, Note_off_c, 0, 62, 56
1, 537821, Control_c, 0, 64, 46
1, 537823, Note_off_c, 0, 69, 62
1, 537836, Control_c, 0, 64, 48
1, 537837, Note_off_c, 0, 59, 55
1, 537848, Note_on_c, 0, 67, 58
1, 537851, Control_c, 0, 64, 51
1, 537866, Control_c, 0, 64, 55
1, 537881, Control_c, 0, 64, 58
1, 537881, Note_off_c, 0, 67, 65
1, 537896, Control_c, 0, 64, 61
1, 537910, Control_c, 0, 64, 63
1, 537912, Note_on_c, 0, 69, 49
1, 537925, Control_c, 0, 64, 65
1, 537938, Note_off_c, 0, 69, 59
1, 537940, Control_c, 0, 64, 67
1, 537955, Control_c, 0, 64, 68
1, 537970, Control_c, 0, 64, 69
1, 537973, Note_on_c, 0, 67, 50
1, 537984, Control_c, 0, 64, 71
1, 537999, Control_c, 0, 64, 74
1, 538006, Note_off_c, 0, 67, 65
1, 538014, Control_c, 0, 64, 76
1, 538026, Note_on_c, 0, 69, 55
1, 538028, Control_c, 0, 64, 78
1, 538037, Note_on_c, 0, 62, 50
1, 538043, Control_c, 0, 64, 80
1, 538050, Note_on_c, 0, 59, 35
1, 538058, Control_c, 0, 64, 80
1, 538060, Note_off_c, 0, 69, 58
1, 538073, Control_c, 0, 64, 81
1, 538074, Note_off_c, 0, 54, 38
1, 538088, Control_c, 0, 64, 81
1, 538091, Note_on_c, 0, 67, 54
1, 538102, Control_c, 0, 64, 82
1, 538117, Control_c, 0, 64, 83
1, 538119, Note_off_c, 0, 65, 56
1, 538121, Note_off_c, 0, 67, 66
1, 538132, Control_c, 0, 64, 84
1, 538134, Note_on_c, 0, 69, 56
1, 538154, Control_c, 0, 64, 84
1, 538171, Note_off_c, 0, 62, 57
1, 538178, Note_off_c, 0, 69, 64
1, 538184, Control_c, 0, 64, 85
1, 538202, Note_off_c, 0, 59, 40
1, 538205, Note_on_c, 0, 67, 60
1, 538230, Control_c, 0, 64, 85
1, 538234, Note_off_c, 0, 67, 66
1, 538248, Note_on_c, 0, 69, 61
1, 538284, Note_off_c, 0, 69, 60
1, 538312, Note_on_c, 0, 67, 63
1, 538350, Note_on_c, 0, 69, 62
1, 538352, Note_off_c, 0, 67, 64
1, 538408, Note_off_c, 0, 69, 61
1, 538415, Note_on_c, 0, 67, 61
1, 538458, Note_on_c, 0, 69, 49
1, 538471, Note_off_c, 0, 67, 63
1, 538531, Note_off_c, 0, 69, 61
1, 538532, Note_on_c, 0, 62, 69
1, 538534, Note_on_c, 0, 67, 54
1, 538541, Note_on_c, 0, 59, 58
1, 538582, Note_on_c, 0, 69, 52
1, 538585, Control_c, 0, 64, 85
1, 538591, Note_off_c, 0, 67, 62
1, 538614, Control_c, 0, 64, 84
1, 538629, Control_c, 0, 64, 83
1, 538644, Control_c, 0, 64, 83
1, 538644, Note_off_c, 0, 69, 62
1, 538655, Note_on_c, 0, 67, 47
1, 538659, Control_c, 0, 64, 82
1, 538674, Control_c, 0, 64, 81
1, 538689, Control_c, 0, 64, 80
1, 538699, Note_on_c, 0, 69, 54
1, 538704, Control_c, 0, 64, 79
1, 538711, Note_off_c, 0, 67, 61
1, 538718, Control_c, 0, 64, 78
1, 538733, Control_c, 0, 64, 77
1, 538748, Control_c, 0, 64, 77
1, 538763, Control_c, 0, 64, 76
1, 538764, Note_off_c, 0, 69, 62
1, 538775, Note_on_c, 0, 67, 46
1, 538777, Control_c, 0, 64, 75
1, 538792, Control_c, 0, 64, 73
1, 538807, Control_c, 0, 64, 71
1, 538822, Control_c, 0, 64, 68
1, 538829, Note_off_c, 0, 67, 61
1, 538832, Note_on_c, 0, 69, 46
1, 538837, Control_c, 0, 64, 64
1, 538845, Note_on_c, 0, 65, 65
1, 538851, Control_c, 0, 64, 56
1, 538866, Control_c, 0, 64, 44
1, 538867, Note_on_c, 0, 54, 49
1, 538877, Note_off_c, 0, 69, 59
1, 538881, Control_c, 0, 64, 0
1, 538916, Note_on_c, 0, 67, 42
1, 538952, Note_off_c, 0, 67, 65
1, 538961, Note_on_c, 0, 69, 47
1, 538972, Note_off_c, 0, 59, 48
1, 538977, Control_c, 0, 64, 34
1, 538978, Note_off_c, 0, 62, 55
1, 538992, Control_c, 0, 64, 45
1, 539002, Note_off_c, 0, 69, 62
1, 539007, Control_c, 0, 64, 53
1, 539022, Control_c, 0, 64, 58
1, 539032, Note_on_c, 0, 67, 54
1, 539038, Control_c, 0, 64, 61
1, 539053, Control_c, 0, 64, 62
1, 539067, Note_off_c, 0, 67, 65
1, 539068, Control_c, 0, 64, 63
1, 539079, Note_on_c, 0, 69, 52
1, 539082, Control_c, 0, 64, 64
1, 539097, Control_c, 0, 64, 65
1, 539112, Control_c, 0, 64, 66
1, 539119, Note_off_c, 0, 69, 62
1, 539127, Control_c, 0, 64, 68
1, 539136, Note_on_c, 0, 59, 38
1, 539136, Note_on_c, 0, 62, 43
1, 539142, Control_c, 0, 64, 69
1, 539145, Note_off_c, 0, 54, 53
1, 539145, Note_on_c, 0, 67, 51
1, 539153, Note_off_c, 0, 65, 58
1, 539156, Control_c, 0, 64, 70
1, 539171, Control_c, 0, 64, 71
1, 539179, Note_off_c, 0, 67, 63
1, 539181, Note_on_c, 0, 69, 49
1, 539186, Control_c, 0, 64, 71
1, 539196, Note_off_c, 0, 62, 57
1, 539200, Control_c, 0, 64, 72
1, 539215, Control_c, 0, 64, 72
1, 539227, Note_off_c, 0, 59, 57
1, 539230, Control_c, 0, 64, 73
1, 539232, Note_on_c, 0, 67, 56
1, 539240, Note_off_c, 0, 69, 63
1, 539281, Note_off_c, 0, 67, 63
1, 539402, Note_on_c, 0, 60, 55
1, 539458, Note_off_c, 0, 60, 60
1, 539471, Note_on_c, 0, 62, 55
1, 539482, Control_c, 0, 64, 72
1, 539497, Control_c, 0, 64, 72
1, 539512, Control_c, 0, 64, 71
1, 539517, Note_off_c, 0, 62, 58
1, 539527, Control_c, 0, 64, 71
1, 539541, Control_c, 0, 64, 70
1, 539550, Note_on_c, 0, 60, 51
1, 539556, Control_c, 0, 64, 69
1, 539571, Control_c, 0, 64, 68
1, 539586, Control_c, 0, 64, 66
1, 539589, Note_off_c, 0, 60, 65
1, 539600, Control_c, 0, 64, 64
1, 539604, Note_on_c, 0, 62, 50
1, 539615, Control_c, 0, 64, 61
1, 539630, Control_c, 0, 64, 57
1, 539651, Note_off_c, 0, 62, 59
1, 539652, Control_c, 0, 64, 51
1, 539657, Note_on_c, 0, 64, 55
1, 539663, Note_on_c, 0, 58, 57
1, 539667, Control_c, 0, 64, 43
1, 539682, Control_c, 0, 64, 31
1, 539685, Note_on_c, 0, 60, 53
1, 539697, Control_c, 0, 64, 0
1, 539712, Note_off_c, 0, 60, 63
1, 539730, Note_on_c, 0, 62, 50
1, 539756, Control_c, 0, 64, 29
1, 539764, Note_off_c, 0, 62, 59
1, 539771, Control_c, 0, 64, 38
1, 539786, Control_c, 0, 64, 47
1, 539800, Control_c, 0, 64, 54
1, 539804, Note_on_c, 0, 60, 48
1, 539815, Control_c, 0, 64, 58
1, 539831, Control_c, 0, 64, 60
1, 539837, Note_off_c, 0, 60, 60
1, 539846, Control_c, 0, 64, 62
1, 539861, Control_c, 0, 64, 62
1, 539866, Note_on_c, 0, 62, 38
1, 539875, Control_c, 0, 64, 63
1, 539894, Note_off_c, 0, 62, 57
1, 539905, Control_c, 0, 64, 62
1, 539920, Control_c, 0, 64, 61
1, 539931, Note_on_c, 0, 60, 47
1, 539935, Control_c, 0, 64, 58
1, 539950, Control_c, 0, 64, 55
1, 539959, Note_on_c, 0, 54, 41
1, 539965, Control_c, 0, 64, 53
1, 539966, Note_on_c, 0, 66, 42
1, 539969, Note_off_c, 0, 60, 65
1, 539979, Control_c, 0, 64, 52
1, 539980, Note_on_c, 0, 62, 54
1, 539994, Control_c, 0, 64, 52
1, 540009, Control_c, 0, 64, 53
1, 540014, Note_off_c, 0, 64, 56
1, 540023, Control_c, 0, 64, 54
1, 540027, Note_off_c, 0, 62, 56
1, 540038, Control_c, 0, 64, 57
1, 540048, Note_off_c, 0, 58, 38
1, 540053, Control_c, 0, 64, 59
1, 540067, Note_on_c, 0, 60, 47
1, 540068, Control_c, 0, 64, 61
1, 540083, Control_c, 0, 64, 62
1, 540093, Note_on_c, 0, 62, 42
1, 540097, Control_c, 0, 64, 63
1, 540097, Control_c, 0, 67, 20
1, 540098, Note_off_c, 0, 60, 60
1, 540112, Control_c, 0, 64, 64
1, 540112, Control_c, 0, 67, 23
1, 540127, Control_c, 0, 64, 64
1, 540141, Control_c, 0, 64, 65
1, 540141, Control_c, 0, 67, 25
1, 540142, Note_off_c, 0, 62, 59
1, 540171, Control_c, 0, 64, 65
1, 540171, Control_c, 0, 67, 27
1, 540186, Control_c, 0, 67, 29
1, 540187, Note_on_c, 0, 60, 34
1, 540201, Control_c, 0, 64, 66
1, 540201, Control_c, 0, 67, 31
1, 540205, Note_off_c, 0, 54, 36
1, 540215, Control_c, 0, 67, 33
1, 540221, Note_off_c, 0, 60, 52
1, 540230, Control_c, 0, 67, 35
1, 540239, Note_on_c, 0, 62, 32
1, 540245, Control_c, 0, 67, 38
1, 540260, Control_c, 0, 67, 41
1, 540262, Note_on_c, 0, 64, 44
1, 540269, Note_off_c, 0, 62, 56
1, 540270, Note_on_c, 0, 58, 43
1, 540275, Control_c, 0, 67, 45
1, 540290, Control_c, 0, 67, 49
1, 540305, Control_c, 0, 67, 56
1, 540311, Note_on_c, 0, 60, 36
1, 540317, Note_off_c, 0, 66, 40
1, 540320, Control_c, 0, 67, 62
1, 540334, Control_c, 0, 67, 67
1, 540349, Control_c, 0, 67, 70
1, 540354, Note_off_c, 0, 60, 47
1, 540364, Control_c, 0, 67, 71
1, 540367, Note_on_c, 0, 62, 38
1, 540369, Note_off_c, 0, 64, 57
1, 540379, Control_c, 0, 67, 72
1, 540402, Note_off_c, 0, 58, 54
1, 540404, Note_off_c, 0, 62, 53
1, 540416, Control_c, 0, 67, 71
1, 540422, Note_on_c, 0, 60, 41
1, 540463, Note_off_c, 0, 60, 63
1, 540475, Control_c, 0, 67, 71
1, 540493, Note_on_c, 0, 62, 30
1, 540504, Control_c, 0, 67, 70
1, 540530, Note_off_c, 0, 62, 43
1, 540549, Control_c, 0, 67, 70
1, 540553, Note_on_c, 0, 60, 45
1, 540579, Control_c, 0, 67, 69
1, 540582, Note_off_c, 0, 60, 63
1, 540606, Note_on_c, 0, 62, 38
1, 540637, Note_off_c, 0, 62, 56
1, 540676, Note_on_c, 0, 60, 45
1, 540704, Note_off_c, 0, 60, 61
1, 540728, Control_c, 0, 67, 69
1, 540729, Note_on_c, 0, 62, 43
1, 540758, Note_off_c, 0, 62, 57
1, 540772, Control_c, 0, 64, 65
1, 540797, Note_on_c, 0, 60, 45
1, 540802, Control_c, 0, 64, 65
1, 540812, Note_on_c, 0, 64, 37
1, 540817, Control_c, 0, 64, 62
1, 540817, Control_c, 0, 67, 68
1, 540826, Note_on_c, 0, 57, 32
1, 540829, Note_off_c, 0, 60, 59
1, 540832, Control_c, 0, 64, 59
1, 540846, Control_c, 0, 64, 56
1, 540849, Note_on_c, 0, 62, 51
1, 540861, Control_c, 0, 64, 53
1, 540876, Control_c, 0, 64, 52
1, 540881, Note_off_c, 0, 62, 58
1, 540891, Control_c, 0, 64, 52
1, 540906, Control_c, 0, 64, 53
1, 540913, Note_on_c, 0, 60, 45
1, 540920, Control_c, 0, 64, 55
1, 540935, Control_c, 0, 64, 57
1, 540948, Note_off_c, 0, 60, 63
1, 540950, Control_c, 0, 64, 60
1, 540965, Control_c, 0, 64, 62
1, 540969, Note_on_c, 0, 62, 45
1, 540979, Control_c, 0, 64, 63
1, 540994, Control_c, 0, 64, 64
1, 540998, Note_off_c, 0, 62, 57
1, 541009, Control_c, 0, 64, 64
1, 541023, Control_c, 0, 64, 65
1, 541044, Note_on_c, 0, 60, 46
1, 541076, Note_off_c, 0, 60, 61
1, 541092, Note_on_c, 0, 62, 43
1, 541112, Control_c, 0, 67, 68
1, 541127, Note_off_c, 0, 62, 57
1, 541136, Note_on_c, 0, 66, 39
1, 541162, Note_on_c, 0, 54, 36
1, 541172, Note_on_c, 0, 60, 45
1, 541178, Note_off_c, 0, 57, 40
1, 541178, Control_c, 0, 64, 64
1, 541193, Control_c, 0, 64, 62
1, 541208, Control_c, 0, 64, 60
1, 541210, Note_off_c, 0, 60, 64
1, 541223, Control_c, 0, 64, 58
1, 541226, Note_on_c, 0, 62, 49
1, 541238, Control_c, 0, 64, 59
1, 541253, Control_c, 0, 64, 59
1, 541259, Note_off_c, 0, 64, 35
1, 541264, Note_off_c, 0, 62, 52
1, 541268, Control_c, 0, 64, 60
1, 541282, Control_c, 0, 64, 61
1, 541297, Control_c, 0, 64, 62
1, 541299, Note_on_c, 0, 60, 45
1, 541312, Control_c, 0, 64, 64
1, 541326, Note_off_c, 0, 60, 60
1, 541327, Control_c, 0, 64, 65
1, 541342, Control_c, 0, 64, 66
1, 541345, Note_on_c, 0, 62, 29
1, 541357, Control_c, 0, 64, 66
1, 541371, Control_c, 0, 64, 67
1, 541378, Note_off_c, 0, 62, 51
1, 541401, Control_c, 0, 64, 67
1, 541405, Note_off_c, 0, 54, 37
1, 541417, Control_c, 0, 64, 68
1, 541418, Note_on_c, 0, 60, 46
1, 541428, Note_on_c, 0, 64, 37
1, 541440, Note_off_c, 0, 66, 40
1, 541443, Note_off_c, 0, 60, 60
1, 541446, Note_on_c, 0, 57, 28
1, 541446, Control_c, 0, 64, 68
1, 541474, Note_on_c, 0, 62, 43
1, 541491, Control_c, 0, 64, 69
1, 541498, Note_off_c, 0, 62, 59
1, 541530, Note_on_c, 0, 60, 57
1, 541558, Note_off_c, 0, 57, 32
1, 541589, Note_off_c, 0, 64, 30
1, 541639, Note_off_c, 0, 60, 0
1, 541668, Control_c, 0, 64, 68
1, 541676, Poly_aftertouch_c, 0, 60, 127
1, 541727, Poly_aftertouch_c, 0, 60, 0
1, 541728, Control_c, 0, 64, 68
1, 541757, Control_c, 0, 64, 67
1, 541760, Note_on_c, 0, 59, 40
1, 541764, Note_on_c, 0, 54, 34
1, 541772, Control_c, 0, 64, 66
1, 541782, Note_on_c, 0, 66, 43
1, 541787, Control_c, 0, 64, 64
1, 541799, Note_off_c, 0, 59, 63
1, 541801, Control_c, 0, 64, 61
1, 541816, Control_c, 0, 64, 57
1, 541831, Control_c, 0, 64, 54
1, 541839, Note_on_c, 0, 60, 31
1, 541846, Control_c, 0, 64, 53
1, 541870, Note_off_c, 0, 60, 55
1, 541876, Control_c, 0, 64, 54
1, 541898, Control_c, 0, 64, 56
1, 541913, Note_on_c, 0, 59, 47
1, 541913, Control_c, 0, 64, 58
1, 541927, Control_c, 0, 64, 60
1, 541942, Control_c, 0, 64, 62
1, 541947, Note_off_c, 0, 59, 62
1, 541957, Control_c, 0, 64, 63
1, 541963, Note_on_c, 0, 60, 48
1, 541972, Control_c, 0, 64, 64
1, 541987, Control_c, 0, 64, 64
1, 541987, Control_c, 0, 67, 68
1, 541994, Note_off_c, 0, 60, 61
1, 542001, Control_c, 0, 64, 65
1, 542016, Control_c, 0, 64, 66
1, 542043, Note_on_c, 0, 59, 33
1, 542046, Control_c, 0, 64, 66
1, 542074, Note_off_c, 0, 59, 52
1, 542084, Note_on_c, 0, 60, 43
1, 542115, Note_off_c, 0, 60, 58
1, 542157, Note_on_c, 0, 59, 37
1, 542174, Note_on_c, 0, 64, 37
1, 542185, Note_on_c, 0, 57, 35
1, 542185, Note_off_c, 0, 59, 59
1, 542206, Note_on_c, 0, 60, 46
1, 542239, Note_off_c, 0, 60, 61
1, 542245, Note_off_c, 0, 66, 38
1, 542269, Control_c, 0, 67, 69
1, 542287, Note_on_c, 0, 59, 36
1, 542299, Control_c, 0, 67, 70
1, 542311, Note_off_c, 0, 64, 46
1, 542314, Control_c, 0, 67, 70
1, 542317, Note_off_c, 0, 59, 53
1, 542335, Note_on_c, 0, 60, 45
1, 542343, Control_c, 0, 67, 71
1, 542363, Note_off_c, 0, 60, 58
1, 542377, Note_off_c, 0, 54, 34
1, 542390, Note_off_c, 0, 57, 43
1, 542399, Note_on_c, 0, 59, 27
1, 542442, Note_off_c, 0, 59, 45
1, 542450, Note_on_c, 0, 60, 42
1, 542477, Note_off_c, 0, 60, 57
1, 542499, Note_on_c, 0, 59, 35
1, 542543, Note_off_c, 0, 59, 61
1, 542548, Note_on_c, 0, 60, 45
1, 542595, Control_c, 0, 64, 66
1, 542596, Note_off_c, 0, 60, 62
1, 542647, Note_on_c, 0, 59, 38
1, 542677, Control_c, 0, 64, 65
1, 542692, Control_c, 0, 64, 65
1, 542706, Control_c, 0, 64, 63
1, 542721, Control_c, 0, 64, 61
1, 542736, Control_c, 0, 64, 60
1, 542742, Note_on_c, 0, 60, 49
1, 542759, Note_off_c, 0, 59, 42
1, 542780, Control_c, 0, 64, 60
1, 542795, Control_c, 0, 64, 61
1, 542810, Control_c, 0, 64, 62
1, 542818, Note_off_c, 0, 60, 59
1, 542824, Control_c, 0, 64, 63
1, 542839, Control_c, 0, 64, 64
1, 542845, Note_on_c, 0, 62, 43
1, 542854, Control_c, 0, 64, 64
1, 542913, Note_off_c, 0, 62, 55
1, 542928, Control_c, 0, 64, 64
1, 542943, Note_on_c, 0, 60, 47
1, 542943, Control_c, 0, 64, 63
1, 542958, Control_c, 0, 64, 62
1, 542973, Control_c, 0, 64, 62
1, 542973, Control_c, 0, 67, 71
1, 542979, Note_off_c, 0, 60, 66
1, 542987, Control_c, 0, 64, 62
1, 543002, Control_c, 0, 64, 63
1, 543002, Control_c, 0, 67, 72
1, 543018, Control_c, 0, 64, 63
1, 543030, Note_on_c, 0, 59, 37
1, 543033, Control_c, 0, 64, 64
1, 543047, Control_c, 0, 64, 65
1, 543062, Control_c, 0, 64, 66
1, 543062, Control_c, 0, 67, 72
1, 543077, Control_c, 0, 64, 67
1, 543088, Note_off_c, 0, 59, 59
1, 543092, Control_c, 0, 64, 68
1, 543107, Control_c, 0, 64, 69
1, 543112, Note_on_c, 0, 64, 45
1, 543122, Control_c, 0, 64, 69
1, 543137, Control_c, 0, 64, 70
1, 543151, Control_c, 0, 64, 71
1, 543151, Control_c, 0, 67, 73
1, 543166, Control_c, 0, 64, 72
1, 543166, Control_c, 0, 67, 73
1, 543181, Control_c, 0, 64, 73
1, 543196, Control_c, 0, 64, 73
1, 543200, Note_off_c, 0, 64, 62
1, 543211, Control_c, 0, 64, 74
1, 543222, Note_on_c, 0, 66, 45
1, 543226, Control_c, 0, 64, 75
1, 543240, Control_c, 0, 64, 75
1, 543256, Note_off_c, 0, 66, 64
1, 543270, Control_c, 0, 64, 76
1, 543285, Control_c, 0, 64, 76
1, 543338, Note_on_c, 0, 69, 52
1, 543344, Control_c, 0, 64, 77
1, 543466, Note_on_c, 0, 76, 56
1, 543514, Control_c, 0, 67, 73
1, 543529, Control_c, 0, 67, 72
1, 543573, Control_c, 0, 67, 71
1, 543581, Note_on_c, 0, 78, 55
1, 543602, Note_off_c, 0, 69, 34
1, 543603, Control_c, 0, 67, 71
1, 543618, Control_c, 0, 67, 70
1, 543636, Note_off_c, 0, 76, 37
1, 543647, Control_c, 0, 67, 70
1, 543662, Control_c, 0, 67, 69
1, 543677, Control_c, 0, 67, 69
1, 543691, Control_c, 0, 64, 76
1, 543691, Control_c, 0, 67, 68
1, 543712, Note_off_c, 0, 78, 59
1, 543721, Control_c, 0, 67, 68
1, 543736, Control_c, 0, 64, 76
1, 543736, Control_c, 0, 67, 67
1, 543765, Control_c, 0, 64, 75
1, 543765, Control_c, 0, 67, 67
1, 543780, Control_c, 0, 64, 74
1, 543795, Control_c, 0, 64, 73
1, 543811, Control_c, 0, 64, 70
1, 543826, Control_c, 0, 64, 67
1, 543841, Control_c, 0, 64, 62
1, 543856, Control_c, 0, 64, 53
1, 543856, Control_c, 0, 67, 66
1, 543864, Note_on_c, 0, 83, 70
1, 543870, Control_c, 0, 64, 43
1, 543870, Control_c, 0, 67, 66
1, 543872, Note_on_c, 0, 40, 32
1, 543876, Note_on_c, 0, 47, 20
1, 543885, Control_c, 0, 64, 31
1, 543900, Control_c, 0, 64, 0
1, 543915, Control_c, 0, 67, 65
1, 543929, Control_c, 0, 67, 65
1, 543944, Control_c, 0, 67, 64
1, 543959, Control_c, 0, 67, 63
1, 543974, Control_c, 0, 64, 50
1, 543974, Control_c, 0, 67, 62
1, 543989, Control_c, 0, 64, 67
1, 543989, Control_c, 0, 67, 59
1, 544004, Control_c, 0, 64, 107
1, 544004, Control_c, 0, 67, 58
1, 544019, Control_c, 0, 64, 127
1, 544019, Control_c, 0, 67, 55
1, 544034, Control_c, 0, 67, 51
1, 544049, Control_c, 0, 67, 46
1, 544059, Note_off_c, 0, 40, 37
1, 544064, Control_c, 0, 67, 38
1, 544074, Note_off_c, 0, 47, 44
1, 544078, Control_c, 0, 67, 24
1, 544093, Control_c, 0, 67, 0
1, 544145, Control_c, 0, 67, 19
1, 544160, Control_c, 0, 67, 25
1, 544175, Control_c, 0, 67, 32
1, 544189, Control_c, 0, 67, 47
1, 544204, Control_c, 0, 67, 64
1, 544219, Control_c, 0, 67, 84
1, 544234, Control_c, 0, 67, 100
1, 544249, Control_c, 0, 67, 112
1, 544263, Control_c, 0, 67, 121
1, 544278, Control_c, 0, 67, 127
1, 544478, Note_on_c, 0, 66, 31
1, 544478, Note_on_c, 0, 64, 31
1, 544800, Note_off_c, 0, 66, 27
1, 544857, Note_off_c, 0, 83, 55
1, 544895, Note_on_c, 0, 71, 38
1, 544898, Note_on_c, 0, 59, 25
1, 544943, Note_off_c, 0, 59, 48
1, 544951, Note_off_c, 0, 64, 37
1, 545205, Note_off_c, 0, 71, 30
1, 545280, Note_on_c, 0, 55, 32
1, 545291, Note_on_c, 0, 64, 17
1, 545405, Note_off_c, 0, 55, 54
1, 545494, Note_off_c, 0, 64, 39
1, 545531, Note_on_c, 0, 84, 59
1, 545620, Note_on_c, 0, 83, 61
1, 545683, Note_off_c, 0, 84, 63
1, 545685, Note_off_c, 0, 83, 63
1, 545700, Note_on_c, 0, 81, 64
1, 545765, Note_on_c, 0, 83, 76
1, 545784, Note_off_c, 0, 81, 57
1, 545820, Control_c, 0, 64, 119
1, 545834, Control_c, 0, 64, 108
1, 545849, Control_c, 0, 64, 103
1, 545864, Control_c, 0, 64, 99
1, 545879, Control_c, 0, 64, 96
1, 545894, Control_c, 0, 64, 93
1, 545909, Control_c, 0, 64, 91
1, 545924, Control_c, 0, 64, 90
1, 545939, Control_c, 0, 64, 89
1, 545953, Control_c, 0, 64, 87
1, 545968, Control_c, 0, 64, 84
1, 545983, Control_c, 0, 64, 80
1, 545998, Control_c, 0, 64, 72
1, 546013, Control_c, 0, 64, 64
1, 546028, Control_c, 0, 64, 52
1, 546042, Control_c, 0, 64, 33
1, 546054, Note_on_c, 0, 64, 37
1, 546056, Note_on_c, 0, 66, 36
1, 546057, Control_c, 0, 64, 0
1, 546101, Control_c, 0, 64, 29
1, 546116, Control_c, 0, 64, 43
1, 546131, Control_c, 0, 64, 55
1, 546146, Control_c, 0, 64, 63
1, 546160, Control_c, 0, 64, 68
1, 546175, Control_c, 0, 64, 72
1, 546190, Control_c, 0, 64, 77
1, 546206, Control_c, 0, 64, 82
1, 546221, Control_c, 0, 64, 88
1, 546221, Control_c, 0, 67, 125
1, 546236, Control_c, 0, 64, 97
1, 546251, Control_c, 0, 64, 110
1, 546266, Control_c, 0, 64, 127
1, 546281, Control_c, 0, 67, 123
1, 546293, Note_off_c, 0, 66, 34
1, 546295, Note_off_c, 0, 64, 27
1, 546340, Control_c, 0, 67, 121
1, 546377, Note_off_c, 0, 83, 45
1, 546392, Control_c, 0, 67, 118
1, 546453, Note_on_c, 0, 69, 25
1, 546476, Poly_aftertouch_c, 0, 57, 127
1, 546496, Control_c, 0, 67, 116
1, 546516, Poly_aftertouch_c, 0, 57, 0
1, 546540, Control_c, 0, 67, 113
1, 546555, Control_c, 0, 67, 107
1, 546570, Control_c, 0, 67, 101
1, 546585, Control_c, 0, 67, 95
1, 546599, Note_on_c, 0, 85, 57
1, 546599, Control_c, 0, 67, 88
1, 546614, Control_c, 0, 67, 83
1, 546629, Control_c, 0, 67, 76
1, 546644, Control_c, 0, 67, 70
1, 546658, Control_c, 0, 67, 65
1, 546673, Control_c, 0, 67, 60
1, 546688, Control_c, 0, 67, 55
1, 546703, Control_c, 0, 67, 50
1, 546709, Note_off_c, 0, 69, 35
1, 546714, Note_on_c, 0, 83, 67
1, 546717, Control_c, 0, 67, 44
1, 546732, Control_c, 0, 67, 36
1, 546747, Control_c, 0, 67, 29
1, 546762, Control_c, 0, 67, 22
1, 546777, Control_c, 0, 67, 0
1, 546787, Note_off_c, 0, 85, 53
1, 546824, Note_on_c, 0, 81, 67
1, 546827, Note_off_c, 0, 83, 60
1, 546876, Note_on_c, 0, 54, 37
1, 546915, Note_off_c, 0, 54, 53
1, 546918, Note_on_c, 0, 83, 72
1, 546952, Note_off_c, 0, 81, 60
1, 547000, Note_off_c, 0, 83, 62
1, 547009, Note_on_c, 0, 85, 70
1, 547097, Note_on_c, 0, 83, 67
1, 547100, Note_off_c, 0, 85, 62
1, 547174, Note_on_c, 0, 85, 70
1, 547183, Note_off_c, 0, 83, 61
1, 547259, Control_c, 0, 64, 90
1, 547274, Control_c, 0, 64, 67
1, 547288, Note_on_c, 0, 83, 75
1, 547289, Control_c, 0, 64, 42
1, 547296, Note_on_c, 0, 40, 39
1, 547299, Note_on_c, 0, 47, 31
1, 547304, Control_c, 0, 64, 0
1, 547334, Control_c, 0, 64, 34
1, 547339, Note_off_c, 0, 85, 56
1, 547348, Control_c, 0, 64, 57
1, 547363, Control_c, 0, 64, 74
1, 547365, Note_off_c, 0, 40, 58
1, 547378, Control_c, 0, 64, 127
1, 547400, Note_off_c, 0, 47, 58
1, 547457, Note_off_c, 0, 83, 56
1, 547696, Note_on_c, 0, 88, 83
1, 547712, Note_on_c, 0, 80, 58
1, 547751, Note_on_c, 0, 56, 3
1, 547759, Poly_aftertouch_c, 0, 64, 127
1, 547794, Note_off_c, 0, 56, 47
1, 547975, Poly_aftertouch_c, 0, 64, 0
1, 547994, Note_off_c, 0, 80, 61
1, 548056, Note_on_c, 0, 87, 81
1, 548077, Note_on_c, 0, 59, 44
1, 548087, Note_on_c, 0, 66, 36
1, 548097, Control_c, 0, 64, 95
1, 548112, Control_c, 0, 64, 87
1, 548118, Note_off_c, 0, 88, 57
1, 548127, Control_c, 0, 64, 86
1, 548156, Control_c, 0, 64, 87
1, 548171, Control_c, 0, 64, 91
1, 548186, Control_c, 0, 64, 100
1, 548201, Control_c, 0, 64, 115
1, 548216, Control_c, 0, 64, 127
1, 548349, Control_c, 0, 64, 87
1, 548360, Note_on_c, 0, 85, 75
1, 548363, Control_c, 0, 64, 71
1, 548374, Note_off_c, 0, 66, 42
1, 548378, Control_c, 0, 64, 65
1, 548380, Note_on_c, 0, 75, 49
1, 548386, Note_off_c, 0, 87, 63
1, 548388, Note_on_c, 0, 69, 40
1, 548393, Control_c, 0, 64, 66
1, 548407, Control_c, 0, 64, 69
1, 548422, Control_c, 0, 64, 76
1, 548437, Control_c, 0, 64, 85
1, 548441, Note_off_c, 0, 85, 64
1, 548452, Control_c, 0, 64, 100
1, 548467, Control_c, 0, 64, 127
1, 548538, Note_off_c, 0, 69, 38
1, 548570, Note_off_c, 0, 59, 38
1, 548583, Note_off_c, 0, 75, 46
1, 548687, Note_on_c, 0, 83, 70
1, 548928, Note_on_c, 0, 81, 71
1, 549101, Note_on_c, 0, 80, 67
1, 549288, Note_on_c, 0, 78, 63
1, 549343, Note_off_c, 0, 80, 50
1, 549355, Note_off_c, 0, 81, 25
1, 549387, Note_off_c, 0, 83, 14
1, 549489, Note_on_c, 0, 80, 61
1, 549525, Note_off_c, 0, 78, 58
1, 549701, Note_on_c, 0, 76, 62
1, 549781, Note_off_c, 0, 80, 18
1, 549975, Note_on_c, 0, 78, 55
1, 550089, Note_on_c, 0, 61, 31
1, 550163, Note_on_c, 0, 54, 44
1, 550173, Note_off_c, 0, 76, 24
1, 550174, Note_off_c, 0, 61, 38
1, 550225, Note_off_c, 0, 54, 57
1, 550265, Note_on_c, 0, 47, 42
1, 550314, Control_c, 0, 64, 97
1, 550329, Control_c, 0, 64, 82
1, 550344, Control_c, 0, 64, 71
1, 550358, Control_c, 0, 64, 64
1, 550364, Note_on_c, 0, 83, 62
1, 550367, Note_on_c, 0, 54, 5
1, 550373, Control_c, 0, 64, 59
1, 550399, Note_on_c, 0, 61, 42
1, 550403, Control_c, 0, 64, 61
1, 550408, Note_off_c, 0, 47, 43
1, 550418, Control_c, 0, 64, 64
1, 550419, Note_off_c, 0, 54, 49
1, 550432, Control_c, 0, 64, 67
1, 550433, Note_off_c, 0, 78, 38
1, 550447, Control_c, 0, 64, 71
1, 550462, Control_c, 0, 64, 75
1, 550476, Control_c, 0, 64, 79
1, 550491, Control_c, 0, 64, 83
1, 550506, Control_c, 0, 64, 87
1, 550521, Control_c, 0, 64, 92
1, 550536, Control_c, 0, 64, 97
1, 550544, Note_off_c, 0, 61, 58
1, 550550, Control_c, 0, 64, 101
1, 550565, Control_c, 0, 64, 104
1, 550684, Control_c, 0, 64, 94
1, 550687, Note_on_c, 0, 62, 53
1, 550698, Note_on_c, 0, 81, 58
1, 550699, Control_c, 0, 64, 85
1, 550714, Control_c, 0, 64, 76
1, 550729, Control_c, 0, 64, 68
1, 550744, Control_c, 0, 64, 63
1, 550758, Control_c, 0, 64, 58
1, 550773, Control_c, 0, 64, 58
1, 550788, Control_c, 0, 64, 59
1, 550802, Control_c, 0, 64, 61
1, 550817, Control_c, 0, 64, 63
1, 550832, Control_c, 0, 64, 66
1, 550847, Control_c, 0, 64, 70
1, 550862, Control_c, 0, 64, 74
1, 550884, Control_c, 0, 64, 79
1, 550899, Control_c, 0, 64, 81
1, 550914, Control_c, 0, 64, 82
1, 550958, Control_c, 0, 64, 80
1, 550973, Control_c, 0, 64, 76
1, 550988, Control_c, 0, 64, 70
1, 550997, Note_on_c, 0, 79, 62
1, 550998, Note_on_c, 0, 64, 55
1, 551003, Control_c, 0, 64, 65
1, 551018, Control_c, 0, 64, 62
1, 551023, Note_off_c, 0, 83, 34
1, 551033, Control_c, 0, 64, 61
1, 551048, Control_c, 0, 64, 62
1, 551063, Control_c, 0, 64, 63
1, 551071, Note_off_c, 0, 62, 36
1, 551078, Control_c, 0, 64, 64
1, 551093, Control_c, 0, 64, 67
1, 551107, Control_c, 0, 64, 72
1, 551122, Control_c, 0, 64, 79
1, 551137, Control_c, 0, 64, 87
1, 551152, Control_c, 0, 64, 95
1, 551167, Control_c, 0, 64, 103
1, 551176, Note_off_c, 0, 79, 60
1, 551181, Control_c, 0, 64, 110
1, 551191, Note_off_c, 0, 81, 26
1, 551196, Control_c, 0, 64, 114
1, 551233, Note_off_c, 0, 64, 54
1, 551285, Control_c, 0, 64, 110
1, 551299, Control_c, 0, 64, 98
1, 551314, Control_c, 0, 64, 82
1, 551316, Note_on_c, 0, 78, 54
1, 551328, Note_on_c, 0, 66, 59
1, 551329, Control_c, 0, 64, 67
1, 551344, Control_c, 0, 64, 54
1, 551359, Control_c, 0, 64, 33
1, 551374, Control_c, 0, 64, 0
1, 551432, Control_c, 0, 64, 38
1, 551447, Control_c, 0, 64, 52
1, 551462, Control_c, 0, 64, 61
1, 551477, Control_c, 0, 64, 67
1, 551492, Control_c, 0, 64, 69
1, 551507, Control_c, 0, 64, 71
1, 551521, Note_off_c, 0, 66, 63
1, 551522, Control_c, 0, 64, 72
1, 551537, Control_c, 0, 64, 74
1, 551552, Control_c, 0, 64, 76
1, 551555, Note_on_c, 0, 76, 51
1, 551567, Control_c, 0, 64, 78
1, 551581, Control_c, 0, 64, 80
1, 551596, Control_c, 0, 64, 81
1, 551611, Control_c, 0, 64, 82
1, 551633, Control_c, 0, 64, 83
1, 551648, Control_c, 0, 64, 83
1, 551650, Note_off_c, 0, 78, 39
1, 551654, Note_on_c, 0, 71, 59
1, 551663, Control_c, 0, 64, 84
1, 551678, Control_c, 0, 64, 84
1, 551693, Control_c, 0, 64, 85
1, 551707, Control_c, 0, 64, 85
1, 551722, Control_c, 0, 64, 86
1, 551730, Note_off_c, 0, 76, 62
1, 551745, Note_on_c, 0, 74, 56
1, 551806, Note_off_c, 0, 71, 59
1, 551901, Control_c, 0, 64, 85
1, 551916, Control_c, 0, 64, 79
1, 551929, Note_on_c, 0, 69, 53
1, 551930, Control_c, 0, 64, 68
1, 551932, Note_on_c, 0, 73, 51
1, 551945, Note_off_c, 0, 74, 38
1, 551945, Control_c, 0, 64, 56
1, 551960, Control_c, 0, 64, 30
1, 551975, Control_c, 0, 64, 0
1, 552020, Control_c, 0, 64, 31
1, 552035, Control_c, 0, 64, 44
1, 552049, Control_c, 0, 64, 55
1, 552064, Control_c, 0, 64, 62
1, 552079, Control_c, 0, 64, 67
1, 552094, Control_c, 0, 64, 70
1, 552109, Control_c, 0, 64, 73
1, 552110, Note_off_c, 0, 69, 59
1, 552124, Control_c, 0, 64, 74
1, 552139, Note_on_c, 0, 74, 47
1, 552153, Control_c, 0, 64, 74
1, 552168, Control_c, 0, 64, 70
1, 552183, Control_c, 0, 64, 65
1, 552198, Control_c, 0, 64, 63
1, 552213, Note_off_c, 0, 73, 36
1, 552217, Note_on_c, 0, 66, 56
1, 552227, Control_c, 0, 64, 64
1, 552242, Control_c, 0, 64, 65
1, 552256, Control_c, 0, 64, 68
1, 552271, Control_c, 0, 64, 71
1, 552286, Control_c, 0, 64, 75
1, 552294, Note_off_c, 0, 66, 63
1, 552301, Control_c, 0, 64, 80
1, 552316, Control_c, 0, 64, 85
1, 552319, Note_on_c, 0, 71, 48
1, 552330, Control_c, 0, 64, 89
1, 552344, Note_off_c, 0, 74, 36
1, 552345, Control_c, 0, 64, 92
1, 552358, Note_off_c, 0, 71, 52
1, 552360, Control_c, 0, 64, 94
1, 552456, Control_c, 0, 64, 93
1, 552471, Control_c, 0, 64, 92
1, 552486, Control_c, 0, 64, 90
1, 552501, Control_c, 0, 64, 88
1, 552516, Control_c, 0, 64, 86
1, 552530, Control_c, 0, 64, 83
1, 552545, Control_c, 0, 64, 80
1, 552550, Note_on_c, 0, 64, 51
1, 552560, Control_c, 0, 64, 75
1, 552565, Note_on_c, 0, 71, 50
1, 552574, Control_c, 0, 64, 66
1, 552589, Control_c, 0, 64, 58
1, 552606, Control_c, 0, 64, 43
1, 552621, Control_c, 0, 64, 0
1, 552739, Control_c, 0, 64, 34
1, 552753, Control_c, 0, 64, 44
1, 552768, Control_c, 0, 64, 52
1, 552783, Control_c, 0, 64, 56
1, 552798, Control_c, 0, 64, 59
1, 552813, Control_c, 0, 64, 60
1, 552827, Control_c, 0, 64, 61
1, 552842, Control_c, 0, 64, 62
1, 552857, Control_c, 0, 64, 62
1, 552862, Note_on_c, 0, 61, 32
1, 552872, Control_c, 0, 64, 64
1, 552887, Control_c, 0, 64, 65
1, 552902, Control_c, 0, 64, 66
1, 552917, Control_c, 0, 64, 67
1, 552932, Control_c, 0, 64, 68
1, 552947, Control_c, 0, 64, 69
1, 552961, Control_c, 0, 64, 70
1, 552976, Control_c, 0, 64, 71
1, 552991, Control_c, 0, 64, 72
1, 553005, Control_c, 0, 64, 73
1, 553020, Control_c, 0, 64, 73
1, 553035, Control_c, 0, 64, 74
1, 553050, Control_c, 0, 64, 75
1, 553065, Control_c, 0, 64, 75
1, 553079, Control_c, 0, 64, 76
1, 553094, Control_c, 0, 64, 77
1, 553109, Control_c, 0, 64, 77
1, 553131, Note_on_c, 0, 54, 34
1, 553131, Control_c, 0, 64, 78
1, 553146, Control_c, 0, 64, 78
1, 553161, Control_c, 0, 64, 79
1, 553176, Control_c, 0, 64, 80
1, 553183, Note_off_c, 0, 64, 34
1, 553191, Control_c, 0, 64, 81
1, 553205, Control_c, 0, 64, 82
1, 553220, Control_c, 0, 64, 83
1, 553235, Control_c, 0, 64, 84
1, 553250, Control_c, 0, 64, 85
1, 553263, Note_off_c, 0, 61, 37
1, 553265, Control_c, 0, 64, 86
1, 553279, Control_c, 0, 64, 87
1, 553294, Control_c, 0, 64, 88
1, 553309, Control_c, 0, 64, 89
1, 553324, Control_c, 0, 64, 89
1, 553339, Control_c, 0, 64, 90
1, 553368, Control_c, 0, 64, 90
1, 553383, Control_c, 0, 64, 91
1, 553399, Control_c, 0, 64, 91
1, 553428, Note_on_c, 0, 69, 46
1, 553428, Control_c, 0, 64, 92
1, 553439, Note_on_c, 0, 64, 33
1, 553439, Note_off_c, 0, 71, 55
1, 553462, Note_off_c, 0, 54, 37
1, 553488, Control_c, 0, 64, 92
1, 553668, Note_off_c, 0, 64, 0
1, 553704, Poly_aftertouch_c, 0, 64, 127
1, 553814, Control_c, 0, 64, 92
1, 553834, Note_off_c, 0, 69, 34
1, 553863, Note_on_c, 0, 66, 43
1, 553880, Control_c, 0, 64, 91
1, 553924, Control_c, 0, 64, 91
1, 553939, Control_c, 0, 64, 90
1, 553984, Control_c, 0, 64, 90
1, 553999, Control_c, 0, 64, 89
1, 554014, Control_c, 0, 64, 88
1, 554028, Control_c, 0, 64, 86
1, 554043, Control_c, 0, 64, 81
1, 554058, Control_c, 0, 64, 74
1, 554073, Control_c, 0, 64, 65
1, 554088, Control_c, 0, 64, 57
1, 554102, Control_c, 0, 64, 49
1, 554117, Control_c, 0, 64, 46
1, 554132, Control_c, 0, 64, 49
1, 554142, Note_on_c, 0, 47, 26
1, 554147, Control_c, 0, 64, 55
1, 554161, Control_c, 0, 64, 61
1, 554176, Control_c, 0, 64, 66
1, 554191, Control_c, 0, 64, 70
1, 554207, Control_c, 0, 64, 74
1, 554222, Control_c, 0, 64, 79
1, 554237, Control_c, 0, 64, 84
1, 554251, Control_c, 0, 64, 91
1, 554266, Control_c, 0, 64, 105
1, 554281, Control_c, 0, 64, 127
1, 554360, Note_on_c, 0, 54, 35
1, 554440, Note_off_c, 0, 47, 42
1, 554440, Note_off_c, 0, 66, 60
1, 554480, Note_off_c, 0, 54, 54
1, 554496, Poly_aftertouch_c, 0, 64, 0
1, 554547, Note_on_c, 0, 59, 30
1, 554583, Note_off_c, 0, 59, 47
1, 554697, Note_on_c, 0, 61, 36
1, 554834, Note_on_c, 0, 66, 37
1, 554884, Note_off_c, 0, 61, 39
1, 554994, Note_on_c, 0, 71, 43
1, 554995, Note_off_c, 0, 66, 56
1, 555152, Note_off_c, 0, 71, 36
1, 555156, Note_on_c, 0, 67, 44
1, 555224, Note_on_c, 0, 78, 64
1, 555259, Note_off_c, 0, 67, 56
1, 555318, Note_on_c, 0, 64, 39
1, 555400, Note_off_c, 0, 64, 55
1, 555495, Control_c, 0, 64, 104
1, 555510, Control_c, 0, 64, 83
1, 555519, Note_on_c, 0, 83, 71
1, 555525, Note_on_c, 0, 61, 29
1, 555525, Control_c, 0, 64, 71
1, 555540, Control_c, 0, 64, 63
1, 555555, Control_c, 0, 64, 58
1, 555585, Control_c, 0, 64, 60
1, 555599, Control_c, 0, 64, 63
1, 555609, Note_off_c, 0, 61, 53
1, 555614, Control_c, 0, 64, 65
1, 555629, Control_c, 0, 64, 68
1, 555644, Note_off_c, 0, 78, 60
1, 555644, Control_c, 0, 64, 71
1, 555659, Control_c, 0, 64, 75
1, 555662, Note_on_c, 0, 66, 47
1, 555673, Control_c, 0, 64, 78
1, 555688, Control_c, 0, 64, 82
1, 555703, Control_c, 0, 64, 86
1, 555717, Control_c, 0, 64, 91
1, 555732, Control_c, 0, 64, 95
1, 555747, Control_c, 0, 64, 99
1, 555762, Control_c, 0, 64, 103
1, 555792, Control_c, 0, 64, 105
1, 555811, Note_on_c, 0, 62, 48
1, 555811, Note_off_c, 0, 66, 34
1, 555897, Note_on_c, 0, 79, 64
1, 555913, Note_on_c, 0, 59, 47
1, 555939, Note_off_c, 0, 62, 37
1, 555986, Note_off_c, 0, 59, 52
1, 556029, Control_c, 0, 64, 101
1, 556044, Control_c, 0, 64, 92
1, 556059, Control_c, 0, 64, 80
1, 556074, Control_c, 0, 64, 72
1, 556077, Note_on_c, 0, 76, 68
1, 556088, Control_c, 0, 64, 66
1, 556089, Note_on_c, 0, 71, 49
1, 556103, Control_c, 0, 64, 64
1, 556125, Control_c, 0, 64, 64
1, 556140, Control_c, 0, 64, 65
1, 556142, Note_off_c, 0, 83, 34
1, 556154, Control_c, 0, 64, 67
1, 556169, Control_c, 0, 64, 70
1, 556184, Control_c, 0, 64, 72
1, 556199, Control_c, 0, 64, 75
1, 556214, Control_c, 0, 64, 77
1, 556216, Note_off_c, 0, 79, 62
1, 556229, Control_c, 0, 64, 79
1, 556234, Note_on_c, 0, 67, 51
1, 556244, Control_c, 0, 64, 81
1, 556258, Control_c, 0, 64, 83
1, 556259, Note_off_c, 0, 71, 35
1, 556273, Control_c, 0, 64, 85
1, 556288, Control_c, 0, 64, 87
1, 556303, Control_c, 0, 64, 88
1, 556318, Control_c, 0, 64, 90
1, 556326, Note_on_c, 0, 73, 73
1, 556333, Control_c, 0, 64, 91
1, 556362, Control_c, 0, 64, 91
1, 556364, Note_off_c, 0, 67, 53
1, 556369, Note_off_c, 0, 76, 62
1, 556394, Note_on_c, 0, 64, 49
1, 556524, Note_off_c, 0, 64, 56
1, 556554, Control_c, 0, 64, 89
1, 556560, Note_on_c, 0, 61, 50
1, 556569, Control_c, 0, 64, 81
1, 556584, Control_c, 0, 64, 71
1, 556589, Note_on_c, 0, 78, 76
1, 556600, Control_c, 0, 64, 62
1, 556615, Control_c, 0, 64, 52
1, 556630, Control_c, 0, 64, 47
1, 556644, Control_c, 0, 64, 49
1, 556659, Control_c, 0, 64, 54
1, 556674, Control_c, 0, 64, 58
1, 556689, Note_off_c, 0, 61, 57
1, 556689, Control_c, 0, 64, 61
1, 556704, Control_c, 0, 64, 63
1, 556718, Control_c, 0, 64, 65
1, 556719, Note_on_c, 0, 66, 49
1, 556733, Control_c, 0, 64, 67
1, 556749, Control_c, 0, 64, 71
1, 556764, Control_c, 0, 64, 77
1, 556778, Control_c, 0, 64, 82
1, 556793, Control_c, 0, 64, 87
1, 556808, Control_c, 0, 64, 93
1, 556815, Note_off_c, 0, 73, 36
1, 556823, Control_c, 0, 64, 100
1, 556834, Note_on_c, 0, 62, 61
1, 556838, Control_c, 0, 64, 116
1, 556852, Control_c, 0, 64, 127
1, 556861, Note_off_c, 0, 66, 54
1, 556968, Note_on_c, 0, 59, 54
1, 556972, Note_off_c, 0, 62, 52
1, 556977, Note_on_c, 0, 74, 72
1, 557141, Control_c, 0, 64, 96
1, 557156, Control_c, 0, 64, 65
1, 557171, Control_c, 0, 64, 0
1, 557177, Note_on_c, 0, 67, 55
1, 557179, Note_on_c, 0, 71, 71
1, 557258, Note_off_c, 0, 74, 49
1, 557260, Control_c, 0, 64, 47
1, 557262, Note_off_c, 0, 59, 25
1, 557275, Control_c, 0, 64, 63
1, 557289, Control_c, 0, 64, 72
1, 557304, Control_c, 0, 64, 86
1, 557319, Control_c, 0, 64, 122
1, 557334, Control_c, 0, 64, 127
1, 557336, Note_on_c, 0, 64, 60
1, 557348, Note_off_c, 0, 67, 55
1, 557355, Note_off_c, 0, 78, 16
1, 557439, Note_off_c, 0, 64, 61
1, 557457, Note_on_c, 0, 61, 65
1, 557524, Note_off_c, 0, 61, 60
1, 557576, Note_on_c, 0, 57, 68
1, 557641, Note_off_c, 0, 71, 49
1, 557686, Note_on_c, 0, 52, 65
1, 557701, Note_off_c, 0, 57, 57
1, 557816, Control_c, 0, 64, 95
1, 557826, Note_on_c, 0, 45, 82
1, 557831, Control_c, 0, 64, 75
1, 557839, Note_off_c, 0, 52, 55
1, 557846, Control_c, 0, 64, 63
1, 557861, Control_c, 0, 64, 49
1, 557862, Note_on_c, 0, 73, 56
1, 557875, Control_c, 0, 64, 44
1, 557890, Control_c, 0, 64, 50
1, 557905, Control_c, 0, 64, 60
1, 557919, Control_c, 0, 64, 68
1, 557927, Note_off_c, 0, 73, 63
1, 557931, Note_on_c, 0, 74, 65
1, 557934, Control_c, 0, 64, 80
1, 557949, Control_c, 0, 64, 127
1, 557973, Note_on_c, 0, 52, 67
1, 558002, Note_off_c, 0, 74, 63
1, 558010, Note_on_c, 0, 73, 64
1, 558018, Note_off_c, 0, 45, 59
1, 558049, Note_off_c, 0, 52, 63
1, 558065, Note_off_c, 0, 73, 60
1, 558070, Note_on_c, 0, 74, 69
1, 558077, Note_on_c, 0, 57, 59
1, 558115, Note_off_c, 0, 74, 58
1, 558128, Note_off_c, 0, 57, 62
1, 558129, Note_on_c, 0, 73, 62
1, 558164, Note_on_c, 0, 74, 63
1, 558166, Note_on_c, 0, 61, 70
1, 558181, Note_off_c, 0, 73, 0
1, 558208, Note_on_c, 0, 73, 34
1, 558223, Note_off_c, 0, 74, 0
1, 558239, Note_on_c, 0, 74, 55
1, 558243, Note_on_c, 0, 64, 73
1, 558257, Note_off_c, 0, 61, 61
1, 558277, Note_off_c, 0, 73, 0
1, 558285, Note_off_c, 0, 74, 64
1, 558286, Note_on_c, 0, 73, 59
1, 558319, Note_off_c, 0, 64, 62
1, 558321, Note_on_c, 0, 69, 86
1, 558324, Note_off_c, 0, 73, 61
1, 558330, Note_on_c, 0, 74, 67
1, 558386, Note_off_c, 0, 69, 65
1, 558390, Note_on_c, 0, 73, 68
1, 558444, Note_off_c, 0, 74, 60
1, 558561, Note_on_c, 0, 71, 82
1, 558612, Note_off_c, 0, 73, 59
1, 558672, Poly_aftertouch_c, 0, 72, 0
1, 558675, Note_off_c, 0, 71, 62
1, 558694, Note_on_c, 0, 73, 91
1, 558785, Note_off_c, 0, 73, 61
1, 558932, Note_on_c, 0, 66, 84
1, 558933, Note_on_c, 0, 78, 87
1, 558935, Note_on_c, 0, 72, 76
1, 558937, Note_on_c, 0, 76, 78
1, 558980, Control_c, 0, 64, 73
1, 558996, Control_c, 0, 64, 34
1, 559011, Control_c, 0, 64, 0
1, 559181, Control_c, 0, 64, 57
1, 559196, Control_c, 0, 64, 73
1, 559209, Note_on_c, 0, 38, 71
1, 559211, Control_c, 0, 64, 112
1, 559213, Note_on_c, 0, 45, 64
1, 559226, Control_c, 0, 64, 127
1, 559353, Note_off_c, 0, 45, 62
1, 559375, Note_off_c, 0, 38, 59
1, 559382, Note_on_c, 0, 48, 69
1, 559444, Note_off_c, 0, 48, 62
1, 559463, Note_off_c, 0, 72, 60
1, 559538, Note_on_c, 0, 54, 70
1, 559566, Note_off_c, 0, 76, 51
1, 559692, Note_off_c, 0, 78, 58
1, 559698, Note_on_c, 0, 59, 58
1, 559738, Note_off_c, 0, 54, 58
1, 559771, Note_on_c, 0, 74, 77
1, 559773, Note_on_c, 0, 71, 75
1, 559818, Note_off_c, 0, 66, 58
1, 559829, Note_off_c, 0, 71, 61
1, 559833, Note_off_c, 0, 74, 60
1, 559871, Note_off_c, 0, 59, 62
1, 559887, Note_on_c, 0, 62, 63
1, 559934, Note_off_c, 0, 62, 60
1, 560140, Note_on_c, 0, 74, 65
1, 560147, Note_on_c, 0, 70, 53
1, 560152, Control_c, 0, 64, 100
1, 560155, Note_on_c, 0, 64, 45
1, 560166, Control_c, 0, 64, 79
1, 560181, Control_c, 0, 64, 56
1, 560196, Control_c, 0, 64, 0
1, 560300, Control_c, 0, 64, 57
1, 560314, Control_c, 0, 64, 72
1, 560329, Control_c, 0, 64, 81
1, 560344, Control_c, 0, 64, 93
1, 560359, Control_c, 0, 64, 98
1, 560374, Control_c, 0, 64, 105
1, 560388, Control_c, 0, 64, 114
1, 560403, Control_c, 0, 64, 127
1, 560404, Note_on_c, 0, 42, 52
1, 560470, Note_off_c, 0, 42, 60
1, 560527, Note_on_c, 0, 73, 53
1, 560560, Note_off_c, 0, 70, 61
1, 560593, Note_off_c, 0, 64, 57
1, 560670, Note_on_c, 0, 58, 40
1, 560750, Note_off_c, 0, 58, 53
1, 560885, Control_c, 0, 64, 96
1, 560895, Note_on_c, 0, 66, 48
1, 560900, Control_c, 0, 64, 78
1, 560909, Note_on_c, 0, 56, 43
1, 560912, Note_on_c, 0, 62, 33
1, 560915, Control_c, 0, 64, 65
1, 560930, Control_c, 0, 64, 54
1, 560944, Control_c, 0, 64, 41
1, 560959, Control_c, 0, 64, 40
1, 560974, Control_c, 0, 64, 51
1, 560989, Control_c, 0, 64, 62
1, 561004, Control_c, 0, 64, 71
1, 561019, Control_c, 0, 64, 84
1, 561032, Note_off_c, 0, 73, 62
1, 561034, Control_c, 0, 64, 104
1, 561037, Note_off_c, 0, 74, 40
1, 561049, Control_c, 0, 64, 127
1, 561182, Note_on_c, 0, 71, 57
1, 561222, Note_off_c, 0, 66, 37
1, 561329, Note_off_c, 0, 62, 35
1, 561341, Note_off_c, 0, 56, 31
1, 561363, Note_off_c, 0, 71, 37
1, 561386, Note_on_c, 0, 68, 64
1, 561499, Note_off_c, 0, 68, 56
1, 561590, Control_c, 0, 64, 118
1, 561605, Control_c, 0, 64, 112
1, 561620, Control_c, 0, 64, 108
1, 561634, Control_c, 0, 64, 105
1, 561649, Control_c, 0, 64, 100
1, 561664, Control_c, 0, 64, 96
1, 561669, Note_on_c, 0, 73, 56
1, 561679, Control_c, 0, 64, 92
1, 561686, Note_on_c, 0, 64, 38
1, 561693, Note_on_c, 0, 66, 33
1, 561693, Control_c, 0, 64, 87
1, 561698, Note_on_c, 0, 59, 32
1, 561708, Control_c, 0, 64, 81
1, 561723, Control_c, 0, 64, 73
1, 561738, Control_c, 0, 64, 65
1, 561753, Control_c, 0, 64, 54
1, 561767, Control_c, 0, 64, 41
1, 561782, Control_c, 0, 64, 0
1, 561857, Control_c, 0, 64, 29
1, 561872, Control_c, 0, 64, 36
1, 561886, Control_c, 0, 64, 44
1, 561901, Control_c, 0, 64, 51
1, 561916, Control_c, 0, 64, 55
1, 561931, Control_c, 0, 64, 58
1, 561946, Control_c, 0, 64, 60
1, 561960, Control_c, 0, 64, 62
1, 561975, Control_c, 0, 64, 64
1, 561991, Control_c, 0, 64, 67
1, 562006, Control_c, 0, 64, 69
1, 562021, Control_c, 0, 64, 72
1, 562035, Control_c, 0, 64, 76
1, 562050, Control_c, 0, 64, 80
1, 562054, Note_off_c, 0, 66, 38
1, 562065, Control_c, 0, 64, 84
1, 562079, Control_c, 0, 64, 88
1, 562094, Control_c, 0, 64, 94
1, 562116, Control_c, 0, 64, 101
1, 562131, Control_c, 0, 64, 112
1, 562146, Control_c, 0, 64, 127
1, 562270, Note_off_c, 0, 59, 34
1, 562384, Control_c, 0, 67, 20
1, 562414, Control_c, 0, 67, 22
1, 562429, Control_c, 0, 67, 25
1, 562459, Control_c, 0, 67, 27
1, 562495, Note_on_c, 0, 66, 38
1, 562498, Note_off_c, 0, 64, 37
1, 562506, Note_on_c, 0, 54, 25
1, 562517, Control_c, 0, 67, 29
1, 562547, Control_c, 0, 67, 34
1, 562562, Control_c, 0, 67, 40
1, 562566, Note_off_c, 0, 73, 37
1, 562577, Control_c, 0, 67, 47
1, 562591, Control_c, 0, 67, 57
1, 562606, Control_c, 0, 67, 68
1, 562621, Control_c, 0, 67, 80
1, 562636, Control_c, 0, 67, 88
1, 562648, Note_off_c, 0, 54, 38
1, 562651, Control_c, 0, 67, 92
1, 562665, Control_c, 0, 67, 93
1, 562676, Note_off_c, 0, 66, 41
1, 562680, Control_c, 0, 67, 94
1, 562695, Control_c, 0, 67, 96
1, 562709, Control_c, 0, 67, 101
1, 562724, Control_c, 0, 67, 105
1, 562739, Control_c, 0, 67, 108
1, 562799, Control_c, 0, 67, 111
1, 562813, Control_c, 0, 67, 117
1, 562828, Control_c, 0, 67, 127
1, 563132, Control_c, 0, 67, 121
1, 563147, Control_c, 0, 67, 111
1, 563162, Control_c, 0, 67, 102
1, 563177, Control_c, 0, 67, 94
1, 563192, Control_c, 0, 67, 88
1, 563207, Control_c, 0, 67, 83
1, 563222, Control_c, 0, 67, 79
1, 563237, Control_c, 0, 67, 78
1, 563292, Note_on_c, 0, 66, 35
1, 563386, Note_off_c, 0, 66, 33
1, 563562, Control_c, 0, 67, 78
1, 563673, Control_c, 0, 67, 79
1, 563703, Control_c, 0, 64, 120
1, 563718, Control_c, 0, 64, 96
1, 563732, Control_c, 0, 64, 81
1, 563740, Note_on_c, 0, 35, 24
1, 563746, Note_on_c, 0, 78, 57
1, 563747, Control_c, 0, 64, 69
1, 563762, Control_c, 0, 64, 60
1, 563777, Control_c, 0, 64, 53
1, 563793, Control_c, 0, 64, 49
1, 563808, Control_c, 0, 64, 53
1, 563823, Control_c, 0, 64, 62
1, 563823, Control_c, 0, 67, 80
1, 563837, Control_c, 0, 64, 75
1, 563837, Control_c, 0, 67, 83
1, 563852, Control_c, 0, 64, 108
1, 563852, Control_c, 0, 67, 86
1, 563867, Control_c, 0, 64, 127
1, 563867, Control_c, 0, 67, 88
1, 563881, Control_c, 0, 67, 92
1, 563896, Control_c, 0, 67, 97
1, 563911, Control_c, 0, 67, 108
1, 563916, Note_off_c, 0, 35, 48
1, 563926, Control_c, 0, 67, 123
1, 563941, Control_c, 0, 67, 127
1, 564321, Note_on_c, 0, 54, 26
1, 564327, Note_on_c, 0, 47, 30
1, 564444, Note_off_c, 0, 47, 52
1, 564513, Note_off_c, 0, 54, 41
1, 564691, Note_on_c, 0, 73, 34
1, 564707, Note_on_c, 0, 69, 21
1, 564924, Note_off_c, 0, 69, 39
1, 564933, Note_off_c, 0, 73, 41
1, 565035, Note_off_c, 0, 78, 39
1, 565050, Note_on_c, 0, 63, 33
1, 565057, Note_on_c, 0, 66, 19
1, 565237, Note_off_c, 0, 63, 42
1, 565237, Note_on_c, 0, 80, 49
1, 565261, Note_off_c, 0, 66, 38
1, 565311, Note_on_c, 0, 78, 53
1, 565347, Note_off_c, 0, 80, 57
1, 565350, Note_off_c, 0, 78, 61
1, 565377, Note_on_c, 0, 76, 56
1, 565450, Note_off_c, 0, 76, 58
1, 565452, Note_on_c, 0, 78, 69
1, 565809, Note_on_c, 0, 73, 43
1, 565809, Note_on_c, 0, 76, 49
1, 566149, Note_on_c, 0, 81, 49
1, 566203, Note_off_c, 0, 78, 59
1, 566299, Note_off_c, 0, 76, 37
1, 566352, Note_off_c, 0, 73, 29
1, 566421, Note_on_c, 0, 69, 35
1, 566422, Note_off_c, 0, 81, 44
1, 566462, Note_off_c, 0, 69, 63
1, 566551, Note_on_c, 0, 85, 58
1, 566575, Note_off_c, 0, 85, 61
1, 566891, Control_c, 0, 67, 125
1, 566906, Control_c, 0, 67, 122
1, 566921, Control_c, 0, 67, 120
1, 566950, Control_c, 0, 67, 118
1, 567129, Control_c, 0, 64, 79
1, 567129, Control_c, 0, 67, 116
1, 567144, Control_c, 0, 64, 62
1, 567148, Note_on_c, 0, 78, 49
1, 567157, Note_on_c, 0, 35, 37
1, 567159, Control_c, 0, 64, 46
1, 567159, Control_c, 0, 67, 106
1, 567173, Control_c, 0, 64, 44
1, 567173, Control_c, 0, 67, 94
1, 567188, Control_c, 0, 64, 56
1, 567188, Control_c, 0, 67, 79
1, 567203, Control_c, 0, 64, 71
1, 567203, Control_c, 0, 67, 62
1, 567218, Control_c, 0, 64, 127
1, 567218, Control_c, 0, 67, 43
1, 567219, Note_off_c, 0, 35, 59
1, 567233, Control_c, 0, 67, 31
1, 567248, Control_c, 0, 67, 23
1, 567263, Control_c, 0, 67, 21
1, 567307, Control_c, 0, 67, 26
1, 567322, Control_c, 0, 67, 29
1, 567337, Control_c, 0, 67, 32
1, 567359, Control_c, 0, 67, 35
1, 567374, Control_c, 0, 67, 42
1, 567389, Control_c, 0, 67, 52
1, 567404, Control_c, 0, 67, 63
1, 567419, Control_c, 0, 67, 73
1, 567433, Control_c, 0, 67, 78
1, 567448, Control_c, 0, 67, 79
1, 567482, Note_on_c, 0, 54, 40
1, 567492, Note_on_c, 0, 47, 33
1, 567507, Control_c, 0, 67, 80
1, 567547, Note_off_c, 0, 47, 56
1, 567551, Note_off_c, 0, 54, 52
1, 567581, Control_c, 0, 67, 79
1, 567596, Control_c, 0, 67, 79
1, 567625, Control_c, 0, 67, 78
1, 567678, Note_on_c, 0, 73, 50
1, 567685, Control_c, 0, 67, 78
1, 567690, Note_on_c, 0, 69, 36
1, 567699, Control_c, 0, 67, 77
1, 567714, Control_c, 0, 67, 77
1, 567788, Note_off_c, 0, 73, 59
1, 567795, Note_off_c, 0, 78, 49
1, 567819, Control_c, 0, 67, 76
1, 567848, Control_c, 0, 67, 76
1, 567863, Control_c, 0, 67, 75
1, 567875, Note_on_c, 0, 63, 39
1, 567878, Note_off_c, 0, 69, 39
1, 567914, Note_on_c, 0, 66, 36
1, 567983, Note_off_c, 0, 66, 49
1, 567995, Note_off_c, 0, 63, 47
1, 568034, Note_on_c, 0, 80, 55
1, 568161, Note_on_c, 0, 78, 61
1, 568224, Note_off_c, 0, 80, 49
1, 568255, Control_c, 0, 67, 75
1, 568261, Note_off_c, 0, 78, 60
1, 568266, Note_on_c, 0, 76, 64
1, 568285, Control_c, 0, 67, 74
1, 568315, Control_c, 0, 67, 74
1, 568329, Control_c, 0, 67, 73
1, 568359, Control_c, 0, 67, 72
1, 568364, Note_on_c, 0, 78, 70
1, 568373, Control_c, 0, 67, 71
1, 568388, Control_c, 0, 67, 71
1, 568391, Note_off_c, 0, 76, 58
1, 568403, Control_c, 0, 67, 70
1, 568431, Note_on_c, 0, 80, 73
1, 568433, Control_c, 0, 67, 70
1, 568434, Note_off_c, 0, 78, 62
1, 568462, Control_c, 0, 67, 69
1, 568508, Note_on_c, 0, 78, 72
1, 568510, Note_off_c, 0, 80, 64
1, 568522, Control_c, 0, 67, 69
1, 568537, Control_c, 0, 67, 68
1, 568567, Control_c, 0, 67, 68
1, 568575, Note_off_c, 0, 78, 62
1, 568576, Note_on_c, 0, 80, 72
1, 568596, Control_c, 0, 67, 67
1, 568653, Note_on_c, 0, 78, 77
1, 568686, Note_off_c, 0, 80, 62
1, 568701, Control_c, 0, 67, 68
1, 568716, Control_c, 0, 67, 68
1, 568722, Note_off_c, 0, 78, 64
1, 568745, Control_c, 0, 67, 69
1, 568775, Control_c, 0, 67, 69
1, 568834, Control_c, 0, 67, 70
1, 568960, Control_c, 0, 67, 70
1, 569019, Control_c, 0, 67, 71
1, 569040, Note_on_c, 0, 73, 52
1, 569053, Note_on_c, 0, 76, 46
1, 569064, Control_c, 0, 64, 88
1, 569073, Note_on_c, 0, 90, 86
1, 569078, Control_c, 0, 64, 71
1, 569093, Control_c, 0, 64, 62
1, 569094, Note_on_c, 0, 81, 56
1, 569108, Control_c, 0, 64, 57
1, 569123, Control_c, 0, 64, 60
1, 569138, Control_c, 0, 64, 64
1, 569152, Control_c, 0, 64, 70
1, 569167, Control_c, 0, 64, 79
1, 569167, Control_c, 0, 67, 71
1, 569182, Control_c, 0, 64, 92
1, 569196, Control_c, 0, 64, 118
1, 569211, Control_c, 0, 64, 127
1, 569238, Note_off_c, 0, 81, 48
1, 569375, Note_off_c, 0, 76, 49
1, 569409, Note_off_c, 0, 73, 41
1, 569512, Note_on_c, 0, 88, 84
1, 569523, Control_c, 0, 67, 71
1, 569529, Note_on_c, 0, 69, 42
1, 569530, Note_on_c, 0, 78, 57
1, 569532, Note_on_c, 0, 73, 42
1, 569622, Note_off_c, 0, 73, 43
1, 569632, Note_off_c, 0, 69, 34
1, 569664, Control_c, 0, 67, 70
1, 569714, Note_off_c, 0, 78, 55
1, 569757, Note_off_c, 0, 90, 49
1, 569780, Note_off_c, 0, 88, 59
1, 569820, Note_on_c, 0, 87, 81
1, 569838, Note_on_c, 0, 76, 64
1, 569842, Note_on_c, 0, 66, 41
1, 569842, Control_c, 0, 67, 71
1, 569872, Control_c, 0, 67, 71
1, 569875, Note_off_c, 0, 66, 54
1, 569878, Note_off_c, 0, 76, 58
1, 569882, Note_off_c, 0, 87, 63
1, 570130, Note_on_c, 0, 85, 82
1, 570137, Note_on_c, 0, 75, 60
1, 570316, Control_c, 0, 67, 71
1, 570331, Control_c, 0, 64, 97
1, 570353, Control_c, 0, 64, 74
1, 570368, Control_c, 0, 64, 61
1, 570382, Control_c, 0, 64, 52
1, 570382, Control_c, 0, 67, 70
1, 570412, Control_c, 0, 64, 58
1, 570421, Note_on_c, 0, 47, 33
1, 570426, Note_on_c, 0, 40, 29
1, 570427, Control_c, 0, 64, 66
1, 570442, Control_c, 0, 64, 74
1, 570457, Control_c, 0, 64, 91
1, 570471, Control_c, 0, 64, 127
1, 570480, Note_off_c, 0, 40, 58
1, 570507, Note_off_c, 0, 47, 60
1, 570599, Note_off_c, 0, 75, 56
1, 570709, Note_on_c, 0, 78, 73
1, 570728, Note_on_c, 0, 73, 52
1, 570781, Note_off_c, 0, 85, 57
1, 570838, Note_off_c, 0, 78, 61
1, 570849, Note_off_c, 0, 73, 56
1, 570856, Control_c, 0, 67, 71
1, 570871, Control_c, 0, 67, 71
1, 570955, Note_on_c, 0, 63, 42
1, 570960, Note_on_c, 0, 69, 29
1, 570997, Note_off_c, 0, 69, 45
1, 570998, Note_off_c, 0, 63, 62
1, 571142, Note_on_c, 0, 67, 47
1, 571175, Note_on_c, 0, 72, 50
1, 571197, Note_on_c, 0, 76, 69
1, 571235, Control_c, 0, 64, 114
1, 571250, Control_c, 0, 64, 80
1, 571258, Note_on_c, 0, 83, 68
1, 571265, Control_c, 0, 64, 64
1, 571270, Note_on_c, 0, 81, 75
1, 571279, Control_c, 0, 64, 53
1, 571294, Control_c, 0, 64, 48
1, 571309, Control_c, 0, 64, 55
1, 571324, Control_c, 0, 64, 64
1, 571324, Control_c, 0, 67, 71
1, 571339, Control_c, 0, 64, 72
1, 571354, Control_c, 0, 64, 88
1, 571369, Control_c, 0, 64, 127
1, 571370, Note_off_c, 0, 81, 0
1, 571371, Note_off_c, 0, 67, 38
1, 571378, Note_off_c, 0, 76, 60
1, 571392, Note_off_c, 0, 83, 64
1, 571398, Control_c, 0, 67, 70
1, 571410, Note_off_c, 0, 72, 63
1, 571434, Poly_aftertouch_c, 0, 81, 0
1, 571443, Control_c, 0, 67, 70
1, 571531, Control_c, 0, 67, 69
1, 571533, Note_on_c, 0, 45, 43
1, 571545, Note_on_c, 0, 40, 28
1, 571561, Control_c, 0, 67, 68
1, 571590, Control_c, 0, 67, 67
1, 571592, Note_off_c, 0, 45, 59
1, 571601, Note_off_c, 0, 40, 55
1, 571650, Control_c, 0, 67, 67
1, 571679, Control_c, 0, 67, 66
1, 571694, Control_c, 0, 67, 66
1, 571709, Control_c, 0, 67, 65
1, 571721, Note_on_c, 0, 60, 51
1, 571724, Control_c, 0, 67, 64
1, 571739, Control_c, 0, 67, 60
1, 571754, Control_c, 0, 67, 55
1, 571755, Note_on_c, 0, 71, 54
1, 571770, Control_c, 0, 67, 51
1, 571785, Control_c, 0, 67, 48
1, 571800, Control_c, 0, 67, 46
1, 571804, Note_off_c, 0, 60, 55
1, 571813, Note_on_c, 0, 76, 70
1, 571814, Control_c, 0, 67, 44
1, 571829, Control_c, 0, 67, 39
1, 571852, Control_c, 0, 67, 32
1, 571866, Control_c, 0, 67, 22
1, 571881, Control_c, 0, 67, 0
1, 571935, Note_off_c, 0, 71, 33
1, 571980, Note_off_c, 0, 76, 51
1, 572105, Note_on_c, 0, 66, 49
1, 572181, Note_off_c, 0, 66, 61
1, 572484, Note_on_c, 0, 71, 66
1, 572492, Note_on_c, 0, 64, 50
1, 572719, Control_c, 0, 64, 118
1, 572734, Control_c, 0, 64, 100
1, 572749, Control_c, 0, 64, 82
1, 572764, Control_c, 0, 64, 65
1, 572778, Control_c, 0, 64, 44
1, 572793, Control_c, 0, 64, 0
1, 572805, Note_on_c, 0, 38, 47
1, 572810, Note_on_c, 0, 45, 40
1, 572852, Control_c, 0, 64, 32
1, 572867, Control_c, 0, 64, 50
1, 572882, Control_c, 0, 64, 63
1, 572897, Control_c, 0, 64, 71
1, 572912, Control_c, 0, 64, 84
1, 572926, Control_c, 0, 64, 101
1, 572941, Control_c, 0, 64, 127
1, 572962, Note_off_c, 0, 64, 37
1, 572975, Note_off_c, 0, 71, 57
1, 573112, Note_off_c, 0, 45, 40
1, 573212, Note_on_c, 0, 66, 58
1, 573233, Note_on_c, 0, 63, 41
1, 573235, Note_on_c, 0, 48, 37
1, 573237, Control_c, 0, 64, 95
1, 573245, Note_on_c, 0, 57, 35
1, 573252, Control_c, 0, 64, 80
1, 573267, Control_c, 0, 64, 71
1, 573282, Control_c, 0, 64, 66
1, 573296, Control_c, 0, 64, 64
1, 573326, Control_c, 0, 64, 66
1, 573348, Control_c, 0, 64, 68
1, 573360, Note_off_c, 0, 57, 55
1, 573363, Control_c, 0, 64, 73
1, 573379, Control_c, 0, 64, 79
1, 573393, Control_c, 0, 64, 90
1, 573408, Control_c, 0, 64, 114
1, 573423, Control_c, 0, 64, 127
1, 573477, Note_off_c, 0, 63, 39
1, 573541, Note_on_c, 0, 62, 54
1, 573542, Note_on_c, 0, 47, 42
1, 573543, Note_on_c, 0, 56, 50
1, 573557, Control_c, 0, 64, 91
1, 573572, Control_c, 0, 64, 76
1, 573575, Note_off_c, 0, 48, 41
1, 573586, Control_c, 0, 64, 67
1, 573601, Control_c, 0, 64, 63
1, 573616, Control_c, 0, 64, 62
1, 573631, Control_c, 0, 64, 63
1, 573646, Control_c, 0, 64, 65
1, 573661, Control_c, 0, 64, 69
1, 573664, Note_off_c, 0, 47, 43
1, 573675, Control_c, 0, 64, 75
1, 573690, Control_c, 0, 64, 84
1, 573705, Control_c, 0, 64, 97
1, 573719, Control_c, 0, 64, 114
1, 573731, Note_off_c, 0, 62, 51
1, 573734, Control_c, 0, 64, 127
1, 573820, Note_off_c, 0, 56, 36
1, 573867, Control_c, 0, 64, 115
1, 573882, Control_c, 0, 64, 101
1, 573897, Control_c, 0, 64, 92
1, 573911, Control_c, 0, 64, 84
1, 573926, Control_c, 0, 64, 79
1, 573941, Control_c, 0, 64, 75
1, 573956, Control_c, 0, 64, 70
1, 573971, Control_c, 0, 64, 66
1, 573978, Note_on_c, 0, 46, 40
1, 573980, Note_on_c, 0, 61, 40
1, 573986, Control_c, 0, 64, 62
1, 573986, Note_on_c, 0, 55, 33
1, 574001, Control_c, 0, 64, 55
1, 574016, Control_c, 0, 64, 45
1, 574031, Control_c, 0, 64, 0
1, 574172, Control_c, 0, 64, 44
1, 574187, Control_c, 0, 64, 59
1, 574202, Control_c, 0, 64, 66
1, 574216, Control_c, 0, 64, 75
1, 574231, Control_c, 0, 64, 85
1, 574246, Control_c, 0, 64, 96
1, 574261, Control_c, 0, 64, 114
1, 574276, Control_c, 0, 64, 127
1, 574293, Note_off_c, 0, 38, 29
1, 574310, Note_off_c, 0, 66, 55
1, 574437, Note_on_c, 0, 63, 50
1, 574453, Note_off_c, 0, 46, 46
1, 574472, Note_off_c, 0, 61, 53
1, 574706, Note_off_c, 0, 55, 34
1, 574749, Control_c, 0, 64, 110
1, 574764, Control_c, 0, 64, 96
1, 574766, Note_on_c, 0, 64, 49
1, 574779, Control_c, 0, 64, 83
1, 574793, Note_off_c, 0, 63, 28
1, 574794, Note_on_c, 0, 45, 35
1, 574794, Control_c, 0, 64, 70
1, 574797, Note_on_c, 0, 60, 26
1, 574806, Note_on_c, 0, 54, 21
1, 574809, Control_c, 0, 64, 61
1, 574824, Control_c, 0, 64, 49
1, 574846, Control_c, 0, 64, 35
1, 574861, Control_c, 0, 64, 0
1, 574890, Control_c, 0, 64, 32
1, 574905, Control_c, 0, 64, 41
1, 574920, Control_c, 0, 64, 52
1, 574935, Control_c, 0, 64, 60
1, 574949, Control_c, 0, 64, 65
1, 574965, Control_c, 0, 64, 71
1, 574980, Control_c, 0, 64, 77
1, 574995, Control_c, 0, 64, 84
1, 575010, Control_c, 0, 64, 91
1, 575025, Control_c, 0, 64, 99
1, 575039, Control_c, 0, 64, 111
1, 575054, Control_c, 0, 64, 127
1, 575097, Note_on_c, 0, 66, 56
1, 575116, Note_off_c, 0, 45, 41
1, 575116, Note_off_c, 0, 60, 39
1, 575144, Note_off_c, 0, 64, 30
1, 575191, Note_off_c, 0, 66, 49
1, 575214, Note_off_c, 0, 54, 39
1, 575580, Note_on_c, 0, 71, 57
1, 575625, Control_c, 0, 64, 120
1, 575640, Control_c, 0, 64, 105
1, 575654, Control_c, 0, 64, 94
1, 575669, Control_c, 0, 64, 84
1, 575684, Control_c, 0, 64, 74
1, 575698, Control_c, 0, 64, 64
1, 575713, Control_c, 0, 64, 54
1, 575728, Control_c, 0, 64, 44
1, 575743, Control_c, 0, 64, 38
1, 575758, Control_c, 0, 64, 39
1, 575774, Control_c, 0, 64, 42
1, 575788, Control_c, 0, 64, 48
1, 575803, Control_c, 0, 64, 56
1, 575818, Control_c, 0, 64, 61
1, 575833, Control_c, 0, 64, 65
1, 575848, Control_c, 0, 64, 69
1, 575862, Control_c, 0, 64, 74
1, 575877, Control_c, 0, 64, 80
1, 575892, Control_c, 0, 64, 86
1, 575907, Control_c, 0, 64, 94
1, 575921, Control_c, 0, 64, 103
1, 575936, Control_c, 0, 64, 119
1, 575951, Control_c, 0, 64, 127
1, 575995, Control_c, 0, 67, 19
1, 575996, Note_on_c, 0, 50, 29
1, 575998, Note_on_c, 0, 43, 34
1, 576010, Control_c, 0, 67, 27
1, 576025, Control_c, 0, 67, 35
1, 576040, Control_c, 0, 67, 47
1, 576055, Control_c, 0, 67, 63
1, 576070, Control_c, 0, 67, 77
1, 576084, Control_c, 0, 67, 89
1, 576099, Control_c, 0, 67, 96
1, 576114, Control_c, 0, 67, 99
1, 576180, Note_off_c, 0, 50, 41
1, 576228, Note_off_c, 0, 43, 37
1, 576248, Control_c, 0, 67, 97
1, 576262, Control_c, 0, 67, 96
1, 576277, Control_c, 0, 67, 95
1, 576292, Control_c, 0, 67, 94
1, 576306, Control_c, 0, 67, 93
1, 576341, Note_on_c, 0, 65, 38
1, 576341, Note_on_c, 0, 59, 33
1, 576344, Control_c, 0, 67, 92
1, 576359, Control_c, 0, 67, 91
1, 576374, Control_c, 0, 67, 90
1, 576389, Control_c, 0, 67, 89
1, 576403, Control_c, 0, 67, 89
1, 576418, Control_c, 0, 67, 87
1, 576433, Control_c, 0, 67, 86
1, 576448, Control_c, 0, 67, 85
1, 576463, Control_c, 0, 67, 80
1, 576477, Control_c, 0, 67, 74
1, 576492, Control_c, 0, 67, 66
1, 576507, Control_c, 0, 67, 60
1, 576508, Note_off_c, 0, 65, 45
1, 576521, Control_c, 0, 67, 55
1, 576536, Control_c, 0, 67, 51
1, 576542, Note_off_c, 0, 59, 31
1, 576544, Note_off_c, 0, 71, 24
1, 576551, Control_c, 0, 67, 48
1, 576567, Control_c, 0, 67, 45
1, 576582, Control_c, 0, 67, 44
1, 576597, Control_c, 0, 67, 43
1, 576637, Note_on_c, 0, 61, 42
1, 576700, Note_off_c, 0, 61, 58
1, 576778, Note_on_c, 0, 73, 54
1, 576855, Note_on_c, 0, 71, 56
1, 576880, Note_off_c, 0, 73, 60
1, 576889, Note_off_c, 0, 71, 64
1, 576913, Note_on_c, 0, 69, 62
1, 576973, Note_on_c, 0, 71, 68
1, 576982, Control_c, 0, 64, 109
1, 576997, Control_c, 0, 64, 83
1, 576997, Control_c, 0, 67, 42
1, 577012, Control_c, 0, 64, 69
1, 577012, Control_c, 0, 67, 42
1, 577026, Control_c, 0, 64, 59
1, 577041, Control_c, 0, 64, 48
1, 577041, Control_c, 0, 67, 41
1, 577053, Note_off_c, 0, 69, 35
1, 577056, Control_c, 0, 64, 42
1, 577056, Control_c, 0, 67, 40
1, 577071, Control_c, 0, 64, 44
1, 577071, Control_c, 0, 67, 37
1, 577093, Control_c, 0, 64, 49
1, 577093, Control_c, 0, 67, 30
1, 577108, Control_c, 0, 64, 54
1, 577108, Control_c, 0, 67, 20
1, 577123, Control_c, 0, 64, 57
1, 577123, Control_c, 0, 67, 0
1, 577137, Control_c, 0, 64, 60
1, 577152, Control_c, 0, 64, 62
1, 577167, Control_c, 0, 64, 65
1, 577182, Control_c, 0, 64, 68
1, 577193, Note_on_c, 0, 44, 40
1, 577197, Control_c, 0, 64, 74
1, 577199, Note_on_c, 0, 37, 39
1, 577211, Control_c, 0, 64, 81
1, 577226, Control_c, 0, 64, 88
1, 577241, Control_c, 0, 64, 96
1, 577256, Control_c, 0, 64, 110
1, 577271, Control_c, 0, 64, 127
1, 577302, Note_off_c, 0, 37, 50
1, 577314, Note_off_c, 0, 44, 48
1, 577474, Note_on_c, 0, 65, 50
1, 577500, Note_on_c, 0, 59, 41
1, 577633, Note_off_c, 0, 59, 48
1, 577639, Note_off_c, 0, 71, 58
1, 577709, Note_on_c, 0, 73, 69
1, 577723, Note_on_c, 0, 58, 42
1, 577766, Note_off_c, 0, 58, 62
1, 577795, Note_off_c, 0, 65, 36
1, 577856, Note_off_c, 0, 73, 60
1, 578010, Note_on_c, 0, 74, 76
1, 578094, Control_c, 0, 64, 99
1, 578108, Control_c, 0, 64, 84
1, 578123, Control_c, 0, 64, 72
1, 578138, Control_c, 0, 64, 62
1, 578153, Control_c, 0, 64, 51
1, 578169, Control_c, 0, 64, 44
1, 578183, Control_c, 0, 64, 43
1, 578198, Control_c, 0, 64, 45
1, 578213, Control_c, 0, 64, 48
1, 578228, Control_c, 0, 64, 53
1, 578234, Note_on_c, 0, 43, 41
1, 578242, Note_on_c, 0, 50, 31
1, 578243, Control_c, 0, 64, 58
1, 578258, Control_c, 0, 64, 62
1, 578272, Control_c, 0, 64, 65
1, 578287, Control_c, 0, 64, 70
1, 578302, Control_c, 0, 64, 76
1, 578317, Control_c, 0, 64, 84
1, 578332, Control_c, 0, 64, 92
1, 578347, Control_c, 0, 64, 103
1, 578362, Control_c, 0, 64, 127
1, 578403, Note_off_c, 0, 50, 34
1, 578430, Note_off_c, 0, 43, 40
1, 578477, Note_on_c, 0, 65, 59
1, 578481, Note_on_c, 0, 59, 48
1, 578621, Note_off_c, 0, 74, 61
1, 578630, Note_off_c, 0, 65, 57
1, 578672, Note_off_c, 0, 59, 33
1, 578692, Note_on_c, 0, 61, 55
1, 578711, Note_on_c, 0, 73, 79
1, 578737, Note_off_c, 0, 61, 60
1, 578893, Note_off_c, 0, 73, 55
1, 578999, Note_on_c, 0, 71, 78
1, 579036, Control_c, 0, 64, 104
1, 579050, Control_c, 0, 64, 92
1, 579065, Control_c, 0, 64, 80
1, 579080, Control_c, 0, 64, 67
1, 579095, Control_c, 0, 64, 52
1, 579110, Control_c, 0, 64, 34
1, 579125, Control_c, 0, 64, 0
1, 579169, Control_c, 0, 64, 32
1, 579184, Control_c, 0, 64, 40
1, 579199, Control_c, 0, 64, 47
1, 579213, Control_c, 0, 64, 54
1, 579228, Control_c, 0, 64, 58
1, 579232, Note_on_c, 0, 47, 46
1, 579235, Note_on_c, 0, 52, 45
1, 579240, Note_on_c, 0, 55, 44
1, 579243, Control_c, 0, 64, 60
1, 579257, Control_c, 0, 64, 63
1, 579272, Control_c, 0, 64, 65
1, 579287, Control_c, 0, 64, 68
1, 579302, Control_c, 0, 64, 72
1, 579317, Control_c, 0, 64, 75
1, 579339, Control_c, 0, 64, 79
1, 579354, Control_c, 0, 64, 83
1, 579369, Control_c, 0, 64, 89
1, 579384, Control_c, 0, 64, 97
1, 579399, Control_c, 0, 64, 113
1, 579413, Control_c, 0, 64, 127
1, 579472, Note_on_c, 0, 64, 65
1, 579484, Note_off_c, 0, 52, 58
1, 579489, Note_off_c, 0, 55, 58
1, 579492, Note_on_c, 0, 59, 50
1, 579517, Note_off_c, 0, 47, 48
1, 579621, Note_off_c, 0, 64, 60
1, 579662, Note_off_c, 0, 71, 37
1, 579694, Note_off_c, 0, 59, 32
1, 579718, Note_on_c, 0, 61, 66
1, 579790, Note_off_c, 0, 61, 57
1, 579814, Note_on_c, 0, 73, 72
1, 579891, Note_on_c, 0, 71, 76
1, 579939, Note_off_c, 0, 73, 61
1, 579955, Note_on_c, 0, 69, 75
1, 579959, Note_off_c, 0, 71, 64
1, 580022, Note_on_c, 0, 71, 81
1, 580088, Control_c, 0, 64, 102
1, 580099, Note_off_c, 0, 69, 57
1, 580103, Control_c, 0, 64, 76
1, 580118, Control_c, 0, 64, 55
1, 580133, Control_c, 0, 64, 0
1, 580237, Control_c, 0, 64, 30
1, 580249, Note_on_c, 0, 50, 63
1, 580252, Control_c, 0, 64, 60
1, 580254, Note_on_c, 0, 43, 57
1, 580267, Control_c, 0, 64, 68
1, 580282, Control_c, 0, 64, 74
1, 580296, Control_c, 0, 64, 80
1, 580311, Control_c, 0, 64, 87
1, 580326, Control_c, 0, 64, 98
1, 580341, Control_c, 0, 64, 127
1, 580440, Note_off_c, 0, 50, 53
1, 580489, Note_off_c, 0, 43, 30
1, 580522, Note_on_c, 0, 65, 74
1, 580535, Note_on_c, 0, 59, 55
1, 580568, Note_off_c, 0, 71, 61
1, 580630, Note_off_c, 0, 59, 50
1, 580719, Note_off_c, 0, 65, 56
1, 580890, Note_on_c, 0, 73, 85
1, 580899, Note_on_c, 0, 61, 54
1, 581282, Control_c, 0, 64, 119
1, 581289, Note_on_c, 0, 76, 88
1, 581297, Control_c, 0, 64, 111
1, 581301, Note_on_c, 0, 64, 49
1, 581311, Control_c, 0, 64, 105
1, 581326, Control_c, 0, 64, 100
1, 581341, Control_c, 0, 64, 97
1, 581357, Control_c, 0, 64, 94
1, 581372, Control_c, 0, 64, 93
1, 581387, Control_c, 0, 64, 91
1, 581401, Control_c, 0, 64, 90
1, 581407, Note_off_c, 0, 61, 32
1, 581416, Control_c, 0, 64, 90
1, 581431, Control_c, 0, 64, 89
1, 581437, Note_off_c, 0, 73, 36
1, 581446, Control_c, 0, 64, 88
1, 581460, Control_c, 0, 64, 87
1, 581475, Control_c, 0, 64, 86
1, 581490, Control_c, 0, 64, 85
1, 581505, Control_c, 0, 64, 83
1, 581520, Control_c, 0, 64, 82
1, 581534, Control_c, 0, 64, 81
1, 581549, Control_c, 0, 64, 79
1, 581564, Control_c, 0, 64, 78
1, 581587, Control_c, 0, 64, 76
1, 581602, Control_c, 0, 64, 75
1, 581612, Note_on_c, 0, 77, 80
1, 581616, Control_c, 0, 64, 73
1, 581620, Note_off_c, 0, 64, 55
1, 581629, Note_on_c, 0, 65, 54
1, 581631, Control_c, 0, 64, 70
1, 581646, Control_c, 0, 64, 67
1, 581660, Control_c, 0, 64, 62
1, 581675, Control_c, 0, 64, 53
1, 581690, Control_c, 0, 64, 0
1, 581727, Note_off_c, 0, 76, 38
1, 581794, Control_c, 0, 64, 31
1, 581808, Control_c, 0, 64, 45
1, 581823, Control_c, 0, 64, 56
1, 581838, Control_c, 0, 64, 60
1, 581853, Control_c, 0, 64, 61
1, 581885, Note_on_c, 0, 74, 81
1, 581893, Note_on_c, 0, 62, 49
1, 581912, Control_c, 0, 64, 62
1, 581942, Control_c, 0, 64, 62
1, 581994, Note_off_c, 0, 65, 35
1, 582060, Control_c, 0, 64, 62
1, 582090, Control_c, 0, 64, 61
1, 582120, Control_c, 0, 64, 61
1, 582134, Control_c, 0, 64, 60
1, 582144, Note_off_c, 0, 77, 15
1, 582150, Control_c, 0, 64, 59
1, 582152, Note_on_c, 0, 73, 77
1, 582165, Control_c, 0, 64, 56
1, 582177, Note_on_c, 0, 61, 48
1, 582180, Control_c, 0, 64, 51
1, 582189, Note_off_c, 0, 62, 49
1, 582195, Control_c, 0, 64, 45
1, 582210, Control_c, 0, 64, 32
1, 582225, Control_c, 0, 64, 0
1, 582337, Note_off_c, 0, 74, 42
1, 582428, Note_on_c, 0, 70, 73
1, 582436, Note_on_c, 0, 58, 43
1, 582482, Note_off_c, 0, 61, 37
1, 582484, Note_off_c, 0, 73, 61
1, 582544, Control_c, 0, 64, 40
1, 582558, Control_c, 0, 64, 57
1, 582573, Control_c, 0, 64, 66
1, 582588, Control_c, 0, 64, 72
1, 582602, Control_c, 0, 64, 79
1, 582607, Note_off_c, 0, 58, 61
1, 582614, Note_off_c, 0, 70, 61
1, 582617, Control_c, 0, 64, 84
1, 582632, Control_c, 0, 64, 88
1, 582647, Control_c, 0, 64, 89
1, 582662, Control_c, 0, 64, 90
1, 582711, Note_on_c, 0, 73, 72
1, 582725, Note_on_c, 0, 61, 46
1, 582765, Control_c, 0, 64, 89
1, 582780, Control_c, 0, 64, 86
1, 582795, Control_c, 0, 64, 81
1, 582809, Control_c, 0, 64, 75
1, 582824, Control_c, 0, 64, 67
1, 582839, Control_c, 0, 64, 59
1, 582854, Control_c, 0, 64, 43
1, 582869, Control_c, 0, 64, 0
1, 582989, Note_on_c, 0, 70, 62
1, 582999, Note_on_c, 0, 58, 38
1, 583038, Note_off_c, 0, 61, 34
1, 583047, Control_c, 0, 64, 47
1, 583062, Control_c, 0, 64, 60
1, 583084, Control_c, 0, 64, 65
1, 583089, Note_off_c, 0, 73, 50
1, 583099, Control_c, 0, 64, 67
1, 583113, Control_c, 0, 64, 69
1, 583128, Control_c, 0, 64, 73
1, 583142, Note_off_c, 0, 58, 61
1, 583143, Control_c, 0, 64, 78
1, 583158, Control_c, 0, 64, 83
1, 583161, Note_off_c, 0, 70, 59
1, 583173, Control_c, 0, 64, 86
1, 583188, Control_c, 0, 64, 86
1, 583287, Note_on_c, 0, 61, 44
1, 583287, Note_on_c, 0, 73, 60
1, 583336, Control_c, 0, 64, 86
1, 583380, Control_c, 0, 64, 85
1, 583395, Control_c, 0, 64, 85
1, 583410, Control_c, 0, 64, 84
1, 583424, Control_c, 0, 64, 83
1, 583439, Control_c, 0, 64, 82
1, 583454, Control_c, 0, 64, 81
1, 583469, Control_c, 0, 64, 80
1, 583484, Control_c, 0, 64, 77
1, 583498, Control_c, 0, 64, 73
1, 583513, Control_c, 0, 64, 67
1, 583528, Control_c, 0, 64, 61
1, 583543, Control_c, 0, 64, 52
1, 583558, Control_c, 0, 64, 42
1, 583572, Control_c, 0, 64, 35
1, 583585, Note_on_c, 0, 70, 53
1, 583587, Control_c, 0, 64, 36
1, 583594, Note_on_c, 0, 58, 39
1, 583597, Note_off_c, 0, 61, 39
1, 583602, Control_c, 0, 64, 39
1, 583610, Note_off_c, 0, 73, 53
1, 583617, Control_c, 0, 64, 45
1, 583632, Control_c, 0, 64, 53
1, 583647, Control_c, 0, 64, 60
1, 583662, Control_c, 0, 64, 65
1, 583677, Control_c, 0, 64, 72
1, 583692, Control_c, 0, 64, 79
1, 583705, Control_c, 0, 64, 86
1, 583719, Note_off_c, 0, 70, 62
1, 583720, Control_c, 0, 64, 93
1, 583722, Note_off_c, 0, 58, 62
1, 583735, Control_c, 0, 64, 100
1, 583751, Control_c, 0, 64, 107
1, 583766, Control_c, 0, 64, 112
1, 583781, Control_c, 0, 64, 114
1, 583891, Control_c, 0, 64, 108
1, 583906, Control_c, 0, 64, 99
1, 583916, Note_on_c, 0, 68, 53
1, 583921, Control_c, 0, 64, 89
1, 583924, Note_on_c, 0, 56, 44
1, 583936, Control_c, 0, 64, 79
1, 583951, Control_c, 0, 64, 70
1, 583966, Control_c, 0, 64, 63
1, 583981, Control_c, 0, 64, 57
1, 583996, Control_c, 0, 64, 55
1, 584010, Control_c, 0, 64, 55
1, 584025, Control_c, 0, 64, 57
1, 584040, Control_c, 0, 64, 59
1, 584054, Control_c, 0, 64, 61
1, 584069, Control_c, 0, 64, 64
1, 584084, Control_c, 0, 64, 68
1, 584099, Control_c, 0, 64, 71
1, 584114, Control_c, 0, 64, 76
1, 584128, Control_c, 0, 64, 81
1, 584143, Control_c, 0, 64, 86
1, 584158, Control_c, 0, 64, 91
1, 584172, Control_c, 0, 64, 95
1, 584187, Control_c, 0, 64, 97
1, 584206, Note_off_c, 0, 56, 41
1, 584261, Control_c, 0, 64, 93
1, 584276, Control_c, 0, 64, 83
1, 584279, Note_on_c, 0, 52, 48
1, 584285, Note_on_c, 0, 64, 54
1, 584291, Control_c, 0, 64, 73
1, 584306, Control_c, 0, 64, 64
1, 584308, Note_off_c, 0, 68, 27
1, 584321, Control_c, 0, 64, 53
1, 584336, Control_c, 0, 64, 43
1, 584351, Control_c, 0, 64, 34
1, 584365, Control_c, 0, 64, 34
1, 584380, Control_c, 0, 64, 35
1, 584395, Control_c, 0, 64, 38
1, 584410, Control_c, 0, 64, 43
1, 584425, Control_c, 0, 64, 50
1, 584440, Control_c, 0, 64, 58
1, 584455, Control_c, 0, 64, 63
1, 584470, Control_c, 0, 64, 68
1, 584472, Note_off_c, 0, 52, 54
1, 584482, Note_off_c, 0, 64, 54
1, 584485, Control_c, 0, 64, 73
1, 584500, Control_c, 0, 64, 79
1, 584514, Control_c, 0, 64, 86
1, 584529, Control_c, 0, 64, 94
1, 584544, Control_c, 0, 64, 102
1, 584559, Control_c, 0, 64, 108
1, 584582, Control_c, 0, 64, 112
1, 584715, Control_c, 0, 64, 110
1, 584717, Note_on_c, 0, 67, 67
1, 584730, Control_c, 0, 64, 107
1, 584745, Control_c, 0, 64, 100
1, 584759, Control_c, 0, 64, 90
1, 584774, Control_c, 0, 64, 76
1, 584789, Control_c, 0, 64, 65
1, 584804, Control_c, 0, 64, 55
1, 584819, Control_c, 0, 64, 48
1, 584848, Control_c, 0, 64, 53
1, 584863, Control_c, 0, 64, 58
1, 584878, Control_c, 0, 64, 63
1, 584893, Control_c, 0, 64, 67
1, 584908, Control_c, 0, 64, 73
1, 584923, Control_c, 0, 64, 82
1, 584938, Control_c, 0, 64, 100
1, 584952, Control_c, 0, 64, 127
1, 585012, Note_off_c, 0, 67, 65
1, 585140, Note_on_c, 0, 63, 81
1, 585174, Control_c, 0, 64, 84
1, 585189, Control_c, 0, 64, 71
1, 585203, Control_c, 0, 64, 64
1, 585218, Control_c, 0, 64, 63
1, 585233, Control_c, 0, 64, 66
1, 585248, Control_c, 0, 64, 72
1, 585263, Control_c, 0, 64, 84
1, 585269, Note_on_c, 0, 66, 58
1, 585277, Control_c, 0, 64, 107
1, 585292, Control_c, 0, 64, 127
1, 585348, Note_off_c, 0, 66, 59
1, 585358, Note_on_c, 0, 71, 52
1, 585392, Note_off_c, 0, 71, 60
1, 585415, Note_on_c, 0, 78, 45
1, 585444, Note_off_c, 0, 78, 62
1, 585507, Note_on_c, 0, 78, 46
1, 585537, Note_off_c, 0, 78, 55
1, 585579, Note_on_c, 0, 90, 68
1, 585612, Note_on_c, 0, 66, 82
1, 585641, Note_off_c, 0, 90, 58
1, 585674, Poly_aftertouch_c, 0, 90, 0
1, 585683, Note_on_c, 0, 90, 51
1, 585725, Note_off_c, 0, 90, 63
1, 585755, Note_on_c, 0, 91, 73
1, 585800, Note_off_c, 0, 91, 61
1, 585805, Note_on_c, 0, 90, 63
1, 585832, Note_off_c, 0, 90, 66
1, 585851, Note_on_c, 0, 91, 66
1, 585854, Note_off_c, 0, 66, 51
1, 585896, Note_on_c, 0, 90, 71
1, 585897, Note_off_c, 0, 91, 64
1, 585936, Note_off_c, 0, 90, 61
1, 585952, Note_on_c, 0, 91, 70
1, 585998, Note_on_c, 0, 90, 67
1, 586002, Note_off_c, 0, 91, 65
1, 586006, Note_on_c, 0, 62, 72
1, 586007, Note_on_c, 0, 71, 87
1, 586026, Control_c, 0, 64, 109
1, 586041, Control_c, 0, 64, 86
1, 586044, Note_off_c, 0, 90, 62
1, 586053, Note_off_c, 0, 63, 61
1, 586056, Control_c, 0, 64, 72
1, 586058, Note_on_c, 0, 91, 67
1, 586078, Control_c, 0, 64, 65
1, 586093, Control_c, 0, 64, 61
1, 586107, Control_c, 0, 64, 61
1, 586109, Note_off_c, 0, 91, 61
1, 586112, Note_on_c, 0, 90, 63
1, 586122, Control_c, 0, 64, 64
1, 586137, Control_c, 0, 64, 68
1, 586153, Note_off_c, 0, 90, 60
1, 586153, Control_c, 0, 64, 73
1, 586168, Control_c, 0, 64, 78
1, 586172, Note_on_c, 0, 91, 68
1, 586182, Control_c, 0, 64, 84
1, 586197, Control_c, 0, 64, 91
1, 586212, Control_c, 0, 64, 103
1, 586214, Note_off_c, 0, 91, 61
1, 586218, Note_on_c, 0, 90, 71
1, 586227, Control_c, 0, 64, 127
1, 586261, Note_off_c, 0, 90, 61
1, 586278, Note_on_c, 0, 91, 70
1, 586318, Note_off_c, 0, 91, 61
1, 586326, Note_on_c, 0, 90, 65
1, 586364, Note_off_c, 0, 90, 60
1, 586389, Note_on_c, 0, 91, 67
1, 586409, Note_off_c, 0, 71, 54
1, 586431, Note_off_c, 0, 91, 61
1, 586437, Note_on_c, 0, 90, 66
1, 586481, Note_off_c, 0, 90, 61
1, 586500, Note_on_c, 0, 91, 69
1, 586509, Note_on_c, 0, 67, 74
1, 586546, Note_on_c, 0, 90, 70
1, 586547, Note_off_c, 0, 91, 61
1, 586582, Note_off_c, 0, 67, 61
1, 586599, Note_off_c, 0, 90, 63
1, 586605, Note_on_c, 0, 91, 69
1, 586641, Control_c, 0, 64, 96
1, 586655, Note_on_c, 0, 90, 66
1, 586656, Control_c, 0, 64, 72
1, 586659, Note_off_c, 0, 91, 63
1, 586668, Note_on_c, 0, 61, 72
1, 586668, Note_on_c, 0, 64, 75
1, 586671, Control_c, 0, 64, 62
1, 586686, Control_c, 0, 64, 56
1, 586701, Control_c, 0, 64, 58
1, 586705, Note_off_c, 0, 62, 53
1, 586710, Note_off_c, 0, 90, 63
1, 586716, Control_c, 0, 64, 63
1, 586720, Note_on_c, 0, 91, 68
1, 586730, Control_c, 0, 64, 68
1, 586745, Control_c, 0, 64, 77
1, 586759, Note_off_c, 0, 91, 61
1, 586760, Control_c, 0, 64, 101
1, 586762, Note_off_c, 0, 64, 62
1, 586762, Note_on_c, 0, 90, 69
1, 586772, Note_off_c, 0, 61, 60
1, 586774, Control_c, 0, 64, 127
1, 586825, Note_off_c, 0, 90, 62
1, 586836, Note_on_c, 0, 91, 74
1, 586872, Note_on_c, 0, 90, 70
1, 586881, Note_off_c, 0, 91, 63
1, 586929, Note_off_c, 0, 90, 63
1, 586943, Note_on_c, 0, 91, 73
1, 586968, Note_on_c, 0, 61, 81
1, 586972, Note_on_c, 0, 54, 80
1, 586976, Control_c, 0, 64, 103
1, 586986, Note_on_c, 0, 90, 71
1, 586990, Note_off_c, 0, 91, 64
1, 586991, Control_c, 0, 64, 81
1, 587005, Control_c, 0, 64, 70
1, 587020, Control_c, 0, 64, 64
1, 587035, Control_c, 0, 64, 61
1, 587037, Note_off_c, 0, 90, 64
1, 587050, Control_c, 0, 64, 62
1, 587056, Note_on_c, 0, 91, 66
1, 587065, Control_c, 0, 64, 65
1, 587079, Control_c, 0, 64, 71
1, 587090, Note_off_c, 0, 91, 61
1, 587094, Control_c, 0, 64, 80
1, 587098, Note_on_c, 0, 90, 73
1, 587109, Control_c, 0, 64, 95
1, 587120, Note_off_c, 0, 61, 57
1, 587124, Control_c, 0, 64, 127
1, 587144, Note_off_c, 0, 90, 62
1, 587165, Note_on_c, 0, 91, 71
1, 587201, Note_on_c, 0, 90, 70
1, 587206, Note_off_c, 0, 91, 62
1, 587257, Note_off_c, 0, 90, 63
1, 587264, Note_on_c, 0, 91, 71
1, 587319, Note_on_c, 0, 90, 64
1, 587321, Note_off_c, 0, 91, 64
1, 587337, Note_on_c, 0, 61, 80
1, 587338, Note_on_c, 0, 66, 89
1, 587346, Control_c, 0, 64, 97
1, 587361, Control_c, 0, 64, 64
1, 587370, Note_off_c, 0, 90, 62
1, 587376, Control_c, 0, 64, 0
1, 587384, Note_on_c, 0, 91, 71
1, 587390, Note_off_c, 0, 54, 52
1, 587433, Note_on_c, 0, 90, 65
1, 587435, Control_c, 0, 64, 37
1, 587436, Note_off_c, 0, 91, 63
1, 587451, Control_c, 0, 64, 57
1, 587465, Control_c, 0, 64, 71
1, 587480, Control_c, 0, 64, 86
1, 587485, Note_off_c, 0, 90, 61
1, 587492, Note_on_c, 0, 91, 69
1, 587495, Control_c, 0, 64, 127
1, 587534, Note_on_c, 0, 90, 65
1, 587575, Note_off_c, 0, 91, 0
1, 587588, Note_on_c, 0, 91, 52
1, 587590, Note_off_c, 0, 90, 64
1, 587605, Note_off_c, 0, 66, 61
1, 587640, Note_on_c, 0, 90, 75
1, 587664, Note_off_c, 0, 61, 56
1, 587698, Note_off_c, 0, 91, 60
1, 587798, Note_on_c, 0, 59, 61
1, 587799, Note_on_c, 0, 62, 71
1, 587800, Note_on_c, 0, 88, 89
1, 587832, Note_off_c, 0, 59, 63
1, 587855, Note_off_c, 0, 90, 55
1, 587962, Control_c, 0, 64, 59
1, 587977, Control_c, 0, 64, 0
1, 587984, Note_off_c, 0, 62, 54
1, 588027, Note_on_c, 0, 50, 69
1, 588027, Note_on_c, 0, 59, 66
1, 588029, Note_on_c, 0, 90, 93
1, 588041, Note_off_c, 0, 88, 66
1, 588051, Control_c, 0, 64, 64
1, 588066, Control_c, 0, 64, 127
1, 588087, Note_off_c, 0, 59, 63
1, 588097, Note_off_c, 0, 90, 66
1, 588145, Note_off_c, 0, 50, 58
1, 588238, Note_on_c, 0, 95, 91
1, 588453, Note_on_c, 0, 54, 87
1, 588458, Control_c, 0, 64, 94
1, 588461, Note_on_c, 0, 49, 81
1, 588462, Note_on_c, 0, 102, 98
1, 588473, Control_c, 0, 64, 65
1, 588488, Control_c, 0, 64, 38
1, 588503, Control_c, 0, 64, 0
1, 588518, Control_c, 0, 64, 39
1, 588527, Note_off_c, 0, 95, 34
1, 588533, Control_c, 0, 64, 61
1, 588548, Control_c, 0, 64, 80
1, 588563, Control_c, 0, 64, 127
1, 588630, Note_off_c, 0, 102, 62
1, 588646, Note_on_c, 0, 95, 96
1, 588776, Note_off_c, 0, 49, 59
1, 588786, Note_off_c, 0, 95, 63
1, 588800, Note_on_c, 0, 90, 92
1, 588800, Control_c, 0, 64, 84
1, 588807, Note_on_c, 0, 47, 82
1, 588815, Control_c, 0, 64, 60
1, 588830, Control_c, 0, 64, 0
1, 588859, Control_c, 0, 64, 48
1, 588865, Note_off_c, 0, 90, 63
1, 588874, Control_c, 0, 64, 66
1, 588889, Control_c, 0, 64, 85
1, 588893, Note_off_c, 0, 54, 62
1, 588904, Control_c, 0, 64, 127
1, 588917, Note_on_c, 0, 95, 92
1, 588924, Note_off_c, 0, 47, 62
1, 588997, Note_on_c, 0, 90, 80
1, 589010, Note_off_c, 0, 95, 64
1, 589057, Note_off_c, 0, 90, 64
1, 589081, Note_on_c, 0, 83, 83
1, 589117, Control_c, 0, 64, 100
1, 589126, Note_off_c, 0, 83, 64
1, 589132, Control_c, 0, 64, 74
1, 589146, Note_on_c, 0, 50, 82
1, 589147, Control_c, 0, 64, 62
1, 589149, Note_on_c, 0, 45, 79
1, 589160, Note_on_c, 0, 90, 86
1, 589162, Control_c, 0, 64, 56
1, 589177, Control_c, 0, 64, 60
1, 589191, Control_c, 0, 64, 66
1, 589206, Control_c, 0, 64, 76
1, 589221, Control_c, 0, 64, 95
1, 589232, Note_on_c, 0, 83, 78
1, 589236, Control_c, 0, 64, 127
1, 589238, Note_off_c, 0, 90, 62
1, 589286, Note_off_c, 0, 83, 63
1, 589295, Note_on_c, 0, 78, 78
1, 589318, Note_off_c, 0, 78, 67
1, 589376, Note_on_c, 0, 83, 81
1, 589385, Control_c, 0, 64, 81
1, 589400, Control_c, 0, 64, 62
1, 589411, Note_on_c, 0, 43, 68
1, 589415, Control_c, 0, 64, 47
1, 589428, Note_on_c, 0, 78, 78
1, 589430, Control_c, 0, 64, 45
1, 589435, Note_off_c, 0, 45, 57
1, 589442, Note_off_c, 0, 83, 61
1, 589445, Control_c, 0, 64, 55
1, 589460, Control_c, 0, 64, 65
1, 589474, Control_c, 0, 64, 74
1, 589484, Note_off_c, 0, 78, 63
1, 589489, Control_c, 0, 64, 93
1, 589502, Note_on_c, 0, 71, 75
1, 589504, Control_c, 0, 64, 127
1, 589546, Note_off_c, 0, 71, 62
1, 589576, Note_on_c, 0, 78, 78
1, 589622, Control_c, 0, 64, 110
1, 589636, Note_off_c, 0, 78, 59
1, 589637, Control_c, 0, 64, 75
1, 589638, Note_on_c, 0, 71, 76
1, 589652, Control_c, 0, 64, 55
1, 589666, Control_c, 0, 64, 39
1, 589681, Control_c, 0, 64, 42
1, 589691, Note_on_c, 0, 47, 59
1, 589695, Note_on_c, 0, 42, 63
1, 589696, Note_off_c, 0, 71, 65
1, 589697, Control_c, 0, 64, 55
1, 589711, Control_c, 0, 64, 65
1, 589713, Note_on_c, 0, 66, 75
1, 589726, Control_c, 0, 64, 73
1, 589728, Note_off_c, 0, 50, 54
1, 589739, Note_off_c, 0, 43, 51
1, 589741, Control_c, 0, 64, 83
1, 589742, Note_off_c, 0, 66, 60
1, 589756, Control_c, 0, 64, 95
1, 589771, Control_c, 0, 64, 107
1, 589785, Control_c, 0, 64, 127
1, 589800, Note_on_c, 0, 71, 77
1, 589834, Note_off_c, 0, 47, 58
1, 589854, Note_off_c, 0, 42, 57
1, 589870, Note_on_c, 0, 66, 74
1, 589913, Note_off_c, 0, 71, 54
1, 589960, Note_on_c, 0, 59, 71
1, 589971, Control_c, 0, 64, 118
1, 589986, Control_c, 0, 64, 110
1, 590000, Note_off_c, 0, 66, 58
1, 590000, Control_c, 0, 64, 105
1, 590015, Control_c, 0, 64, 100
1, 590030, Control_c, 0, 64, 95
1, 590045, Control_c, 0, 64, 90
1, 590060, Control_c, 0, 64, 86
1, 590074, Control_c, 0, 64, 83
1, 590089, Control_c, 0, 64, 80
1, 590104, Control_c, 0, 64, 77
1, 590119, Control_c, 0, 64, 73
1, 590129, Note_on_c, 0, 66, 74
1, 590133, Control_c, 0, 64, 68
1, 590149, Control_c, 0, 64, 61
1, 590164, Control_c, 0, 64, 53
1, 590179, Control_c, 0, 64, 43
1, 590188, Note_off_c, 0, 59, 56
1, 590194, Control_c, 0, 64, 30
1, 590209, Control_c, 0, 64, 0
1, 591979, Note_on_c, 0, 56, 30
1, 591979, Note_on_c, 0, 62, 27
1, 591994, Note_on_c, 0, 35, 14
1, 592006, Poly_aftertouch_c, 0, 40, 127
1, 592158, Control_c, 0, 64, 32
1, 592173, Control_c, 0, 64, 37
1, 592173, Control_c, 0, 67, 20
1, 592187, Control_c, 0, 64, 41
1, 592187, Control_c, 0, 67, 24
1, 592202, Control_c, 0, 64, 47
1, 592202, Control_c, 0, 67, 29
1, 592217, Control_c, 0, 64, 52
1, 592217, Control_c, 0, 67, 34
1, 592232, Control_c, 0, 64, 55
1, 592232, Control_c, 0, 67, 42
1, 592247, Control_c, 0, 64, 57
1, 592247, Control_c, 0, 67, 52
1, 592262, Control_c, 0, 64, 58
1, 592262, Control_c, 0, 67, 66
1, 592277, Control_c, 0, 64, 60
1, 592277, Control_c, 0, 67, 82
1, 592292, Control_c, 0, 64, 61
1, 592292, Control_c, 0, 67, 101
1, 592307, Control_c, 0, 64, 63
1, 592307, Control_c, 0, 67, 117
1, 592321, Control_c, 0, 64, 64
1, 592321, Control_c, 0, 67, 127
1, 592336, Control_c, 0, 64, 66
1, 592351, Control_c, 0, 64, 68
1, 592366, Control_c, 0, 64, 71
1, 592381, Control_c, 0, 64, 73
1, 592395, Control_c, 0, 64, 76
1, 592410, Control_c, 0, 64, 78
1, 592425, Control_c, 0, 64, 81
1, 592439, Control_c, 0, 64, 83
1, 592454, Control_c, 0, 64, 88
1, 592469, Control_c, 0, 64, 93
1, 592484, Control_c, 0, 64, 98
1, 592499, Control_c, 0, 64, 107
1, 592513, Control_c, 0, 64, 122
1, 592528, Control_c, 0, 64, 127
1, 592617, Note_off_c, 0, 56, 41
1, 592719, Note_off_c, 0, 35, 38
1, 592858, Note_off_c, 0, 62, 38
1, 592888, Poly_aftertouch_c, 0, 40, 0
1, 593136, Note_on_c, 0, 64, 42
1, 593144, Control_c, 0, 64, 118
1, 593151, Note_on_c, 0, 58, 33
1, 593152, Note_on_c, 0, 42, 31
1, 593158, Note_on_c, 0, 37, 29
1, 593159, Control_c, 0, 64, 99
1, 593174, Control_c, 0, 64, 90
1, 593189, Control_c, 0, 64, 82
1, 593204, Control_c, 0, 64, 75
1, 593219, Control_c, 0, 64, 68
1, 593234, Control_c, 0, 64, 63
1, 593248, Control_c, 0, 64, 59
1, 593263, Control_c, 0, 64, 58
1, 593266, Note_off_c, 0, 66, 51
1, 593278, Control_c, 0, 64, 59
1, 593293, Control_c, 0, 64, 61
1, 593308, Control_c, 0, 64, 64
1, 593323, Control_c, 0, 64, 66
1, 593326, Note_off_c, 0, 58, 57
1, 593338, Control_c, 0, 64, 70
1, 593353, Control_c, 0, 64, 75
1, 593356, Note_off_c, 0, 42, 44
1, 593368, Control_c, 0, 64, 81
1, 593383, Control_c, 0, 64, 90
1, 593398, Control_c, 0, 64, 102
1, 593412, Control_c, 0, 64, 127
1, 593463, Note_off_c, 0, 37, 38
1, 593513, Note_off_c, 0, 64, 36
1, 593639, Note_on_c, 0, 66, 48
1, 593641, Control_c, 0, 64, 102
1, 593648, Note_on_c, 0, 44, 36
1, 593649, Note_on_c, 0, 60, 38
1, 593656, Control_c, 0, 64, 86
1, 593660, Note_on_c, 0, 39, 34
1, 593671, Control_c, 0, 64, 75
1, 593685, Control_c, 0, 64, 66
1, 593700, Control_c, 0, 64, 58
1, 593715, Control_c, 0, 64, 48
1, 593730, Control_c, 0, 64, 38
1, 593745, Control_c, 0, 64, 31
1, 593774, Control_c, 0, 64, 33
1, 593789, Control_c, 0, 64, 36
1, 593804, Control_c, 0, 64, 43
1, 593819, Control_c, 0, 64, 53
1, 593833, Control_c, 0, 64, 61
1, 593848, Control_c, 0, 64, 68
1, 593863, Control_c, 0, 64, 74
1, 593878, Control_c, 0, 64, 83
1, 593892, Control_c, 0, 64, 92
1, 593907, Control_c, 0, 64, 107
1, 593922, Note_off_c, 0, 39, 39
1, 593922, Control_c, 0, 64, 127
1, 593961, Note_off_c, 0, 44, 43
1, 593991, Note_off_c, 0, 60, 33
1, 594041, Note_off_c, 0, 66, 33
1, 594541, Note_on_c, 0, 42, 36
1, 594678, Note_on_c, 0, 49, 34
1, 594778, Note_on_c, 0, 52, 41
1, 594790, Control_c, 0, 64, 119
1, 594805, Control_c, 0, 64, 113
1, 594819, Control_c, 0, 64, 108
1, 594834, Control_c, 0, 64, 105
1, 594849, Control_c, 0, 64, 102
1, 594864, Control_c, 0, 64, 99
1, 594879, Control_c, 0, 64, 97
1, 594894, Control_c, 0, 64, 95
1, 594899, Note_on_c, 0, 54, 34
1, 594908, Control_c, 0, 64, 93
1, 594923, Control_c, 0, 64, 91
1, 594939, Control_c, 0, 64, 89
1, 594954, Control_c, 0, 64, 87
1, 594956, Note_on_c, 0, 58, 42
1, 594969, Control_c, 0, 64, 86
1, 594984, Control_c, 0, 64, 84
1, 594999, Control_c, 0, 64, 82
1, 595013, Control_c, 0, 64, 81
1, 595028, Control_c, 0, 64, 79
1, 595043, Control_c, 0, 64, 77
1, 595065, Control_c, 0, 64, 76
1, 595073, Note_on_c, 0, 61, 42
1, 595080, Control_c, 0, 64, 74
1, 595095, Control_c, 0, 64, 73
1, 595110, Control_c, 0, 64, 72
1, 595125, Control_c, 0, 64, 71
1, 595139, Control_c, 0, 64, 70
1, 595154, Control_c, 0, 64, 69
1, 595169, Control_c, 0, 64, 67
1, 595184, Control_c, 0, 64, 66
1, 595199, Control_c, 0, 64, 65
1, 595213, Control_c, 0, 64, 64
1, 595228, Control_c, 0, 64, 63
1, 595243, Control_c, 0, 64, 62
1, 595258, Control_c, 0, 64, 61
1, 595273, Control_c, 0, 64, 60
1, 595317, Control_c, 0, 64, 60
1, 595362, Control_c, 0, 64, 59
1, 595378, Note_on_c, 0, 66, 44
1, 595392, Control_c, 0, 64, 59
1, 595436, Control_c, 0, 64, 58
1, 595480, Control_c, 0, 64, 58
1, 596036, Control_c, 0, 64, 57
1, 596051, Control_c, 0, 64, 57
1, 596081, Control_c, 0, 64, 56
1, 596095, Control_c, 0, 64, 56
1, 596110, Control_c, 0, 64, 55
1, 596125, Control_c, 0, 64, 54
1, 596140, Control_c, 0, 64, 53
1, 596155, Control_c, 0, 64, 52
1, 596170, Control_c, 0, 64, 50
1, 596185, Control_c, 0, 64, 47
1, 596200, Control_c, 0, 64, 43
1, 596214, Control_c, 0, 64, 37
1, 596229, Control_c, 0, 64, 0
1, 596273, Note_off_c, 0, 49, 44
1, 596277, Note_off_c, 0, 42, 46
1, 596286, Note_off_c, 0, 52, 54
1, 596301, Note_off_c, 0, 58, 43
1, 596313, Note_off_c, 0, 61, 36
1, 596332, Note_off_c, 0, 54, 48
1, 596526, Control_c, 0, 64, 37
1, 596541, Control_c, 0, 64, 45
1, 596563, Control_c, 0, 64, 52
1, 596578, Control_c, 0, 64, 56
1, 596593, Control_c, 0, 64, 60
1, 596608, Control_c, 0, 64, 62
1, 596623, Control_c, 0, 64, 64
1, 596638, Control_c, 0, 64, 67
1, 596653, Control_c, 0, 64, 70
1, 596667, Control_c, 0, 64, 75
1, 596682, Control_c, 0, 64, 85
1, 596688, Note_off_c, 0, 66, 56
1, 596697, Control_c, 0, 64, 106
1, 596711, Control_c, 0, 64, 127
1, 597052, Note_on_c, 0, 66, 35
1, 598012, Note_off_c, 0, 66, 25
1, 598563, Note_on_c, 0, 66, 29
1, 599491, Note_on_c, 0, 23, 29
1, 599622, Note_off_c, 0, 23, 46
1, 600104, Note_on_c, 0, 42, 28
1, 600256, Note_off_c, 0, 42, 40
1, 600525, Note_off_c, 0, 66, 37
1, 600593, Note_on_c, 0, 51, 32
1, 600799, Note_on_c, 0, 68, 21
1, 600939, Note_on_c, 0, 66, 32
1, 601029, Note_off_c, 0, 68, 35
1, 601041, Note_off_c, 0, 51, 40
1, 601083, Note_off_c, 0, 66, 36
1, 601095, Note_on_c, 0, 59, 26
1, 601105, Note_on_c, 0, 64, 26
1, 601205, Note_on_c, 0, 66, 42
1, 601244, Note_off_c, 0, 64, 36
1, 601261, Note_off_c, 0, 59, 38
1, 601327, Note_off_c, 0, 66, 55
1, 601343, Note_on_c, 0, 68, 49
1, 601494, Note_on_c, 0, 66, 46
1, 601500, Note_on_c, 0, 63, 41
1, 601500, Control_c, 0, 64, 97
1, 601515, Control_c, 0, 64, 78
1, 601529, Control_c, 0, 64, 69
1, 601536, Note_off_c, 0, 68, 44
1, 601544, Control_c, 0, 64, 63
1, 601559, Control_c, 0, 64, 60
1, 601574, Control_c, 0, 64, 59
1, 601589, Control_c, 0, 64, 61
1, 601604, Control_c, 0, 64, 63
1, 601618, Control_c, 0, 64, 69
1, 601633, Control_c, 0, 64, 76
1, 601648, Control_c, 0, 64, 88
1, 601663, Control_c, 0, 64, 106
1, 601670, Note_off_c, 0, 66, 56
1, 601678, Control_c, 0, 64, 127
1, 601924, Note_on_c, 0, 66, 30
1, 601993, Poly_aftertouch_c, 0, 71, 127
1, 602127, Poly_aftertouch_c, 0, 71, 0
1, 602219, Control_c, 0, 64, 100
1, 602234, Control_c, 0, 64, 81
1, 602248, Control_c, 0, 64, 69
1, 602255, Note_on_c, 0, 71, 40
1, 602256, Note_on_c, 0, 75, 50
1, 602263, Control_c, 0, 64, 62
1, 602278, Control_c, 0, 64, 58
1, 602308, Control_c, 0, 64, 61
1, 602322, Control_c, 0, 64, 63
1, 602330, Note_off_c, 0, 66, 56
1, 602337, Control_c, 0, 64, 66
1, 602352, Control_c, 0, 64, 68
1, 602361, Note_off_c, 0, 63, 47
1, 602367, Control_c, 0, 64, 73
1, 602382, Control_c, 0, 64, 78
1, 602397, Control_c, 0, 64, 83
1, 602412, Control_c, 0, 64, 90
1, 602427, Control_c, 0, 64, 96
1, 602442, Control_c, 0, 64, 103
1, 602457, Control_c, 0, 64, 113
1, 602469, Note_off_c, 0, 75, 59
1, 602471, Control_c, 0, 64, 127
1, 602509, Note_off_c, 0, 71, 38
1, 602584, Note_on_c, 0, 78, 61
1, 602614, Note_on_c, 0, 75, 42
1, 602712, Note_off_c, 0, 78, 62
1, 602975, Note_on_c, 0, 82, 72
1, 603146, Control_c, 0, 64, 125
1, 603159, Note_off_c, 0, 75, 41
1, 603161, Control_c, 0, 64, 120
1, 603190, Control_c, 0, 64, 117
1, 603205, Control_c, 0, 64, 114
1, 603235, Control_c, 0, 64, 111
1, 603250, Control_c, 0, 64, 109
1, 603279, Control_c, 0, 64, 107
1, 603305, Note_on_c, 0, 78, 50
1, 603331, Control_c, 0, 64, 105
1, 603391, Control_c, 0, 64, 102
1, 603435, Control_c, 0, 64, 100
1, 603479, Control_c, 0, 64, 98
1, 603509, Control_c, 0, 64, 96
1, 603524, Control_c, 0, 64, 95
1, 603539, Control_c, 0, 64, 93
1, 603553, Control_c, 0, 64, 92
1, 603565, Note_off_c, 0, 78, 37
1, 603568, Control_c, 0, 64, 90
1, 603583, Control_c, 0, 64, 89
1, 603598, Control_c, 0, 64, 87
1, 603613, Control_c, 0, 64, 86
1, 603628, Control_c, 0, 64, 85
1, 603630, Note_on_c, 0, 80, 69
1, 603641, Note_on_c, 0, 76, 40
1, 603643, Control_c, 0, 64, 84
1, 603658, Control_c, 0, 64, 84
1, 603672, Control_c, 0, 64, 83
1, 603687, Control_c, 0, 64, 82
1, 603702, Control_c, 0, 64, 82
1, 603717, Control_c, 0, 64, 81
1, 603732, Control_c, 0, 64, 81
1, 603747, Control_c, 0, 64, 80
1, 603750, Note_off_c, 0, 82, 58
1, 603762, Control_c, 0, 64, 80
1, 603777, Control_c, 0, 64, 79
1, 603792, Control_c, 0, 64, 78
1, 603807, Control_c, 0, 64, 78
1, 603821, Control_c, 0, 64, 77
1, 603836, Control_c, 0, 64, 76
1, 603851, Control_c, 0, 64, 76
1, 603866, Control_c, 0, 64, 75
1, 603881, Control_c, 0, 64, 74
1, 603895, Control_c, 0, 64, 74
1, 603910, Control_c, 0, 64, 73
1, 603924, Control_c, 0, 64, 72
1, 603935, Note_on_c, 0, 74, 43
1, 603953, Control_c, 0, 64, 71
1, 603968, Control_c, 0, 64, 71
1, 603983, Control_c, 0, 64, 70
1, 603998, Control_c, 0, 64, 70
1, 604009, Note_off_c, 0, 76, 36
1, 604013, Control_c, 0, 64, 68
1, 604027, Control_c, 0, 64, 67
1, 604050, Control_c, 0, 64, 66
1, 604065, Control_c, 0, 64, 65
1, 604080, Control_c, 0, 64, 64
1, 604094, Control_c, 0, 64, 63
1, 604109, Control_c, 0, 64, 62
1, 604124, Control_c, 0, 64, 60
1, 604139, Control_c, 0, 64, 59
1, 604153, Control_c, 0, 64, 56
1, 604168, Control_c, 0, 64, 54
1, 604183, Control_c, 0, 64, 52
1, 604198, Control_c, 0, 64, 48
1, 604213, Control_c, 0, 64, 38
1, 604227, Control_c, 0, 64, 0
1, 604272, Note_on_c, 0, 75, 41
1, 604347, Note_off_c, 0, 74, 55
1, 604406, Control_c, 0, 64, 31
1, 604420, Control_c, 0, 64, 40
1, 604435, Control_c, 0, 64, 48
1, 604450, Control_c, 0, 64, 53
1, 604465, Control_c, 0, 64, 57
1, 604479, Control_c, 0, 64, 59
1, 604494, Control_c, 0, 64, 60
1, 604509, Control_c, 0, 64, 61
1, 604525, Control_c, 0, 64, 62
1, 604540, Control_c, 0, 64, 64
1, 604555, Control_c, 0, 64, 65
1, 604565, Note_on_c, 0, 73, 41
1, 604569, Control_c, 0, 64, 66
1, 604584, Control_c, 0, 64, 68
1, 604599, Control_c, 0, 64, 69
1, 604614, Control_c, 0, 64, 71
1, 604621, Note_off_c, 0, 75, 36
1, 604629, Control_c, 0, 64, 72
1, 604643, Control_c, 0, 64, 72
1, 604658, Control_c, 0, 64, 73
1, 604690, Note_off_c, 0, 73, 55
1, 604829, Control_c, 0, 64, 72
1, 604858, Control_c, 0, 64, 72
1, 604876, Note_on_c, 0, 78, 55
1, 604877, Note_on_c, 0, 73, 34
1, 604888, Control_c, 0, 64, 71
1, 604903, Control_c, 0, 64, 71
1, 604917, Control_c, 0, 64, 70
1, 605053, Note_off_c, 0, 80, 53
1, 605252, Note_on_c, 0, 80, 69
1, 605286, Note_on_c, 0, 72, 28
1, 605321, Note_off_c, 0, 78, 58
1, 605340, Note_off_c, 0, 73, 35
1, 605452, Control_c, 0, 64, 70
1, 605563, Control_c, 0, 64, 69
1, 605569, Note_on_c, 0, 78, 68
1, 605578, Control_c, 0, 64, 67
1, 605586, Note_on_c, 0, 73, 34
1, 605592, Control_c, 0, 64, 63
1, 605607, Control_c, 0, 64, 59
1, 605616, Note_off_c, 0, 72, 20
1, 605622, Control_c, 0, 64, 56
1, 605637, Control_c, 0, 64, 56
1, 605652, Control_c, 0, 64, 56
1, 605667, Control_c, 0, 64, 57
1, 605682, Control_c, 0, 64, 57
1, 605697, Control_c, 0, 64, 59
1, 605712, Control_c, 0, 64, 61
1, 605726, Control_c, 0, 64, 62
1, 605741, Control_c, 0, 64, 62
1, 605764, Note_off_c, 0, 80, 46
1, 605771, Control_c, 0, 64, 63
1, 605855, Note_on_c, 0, 76, 66
1, 605959, Note_off_c, 0, 78, 60
1, 606022, Control_c, 0, 64, 62
1, 606083, Note_off_c, 0, 73, 32
1, 606096, Control_c, 0, 64, 62
1, 606112, Control_c, 0, 64, 61
1, 606127, Control_c, 0, 64, 59
1, 606138, Note_on_c, 0, 70, 32
1, 606140, Note_on_c, 0, 75, 59
1, 606141, Control_c, 0, 64, 56
1, 606156, Control_c, 0, 64, 53
1, 606171, Control_c, 0, 64, 51
1, 606186, Control_c, 0, 64, 48
1, 606201, Control_c, 0, 64, 46
1, 606212, Note_off_c, 0, 76, 54
1, 606215, Control_c, 0, 64, 46
1, 606230, Control_c, 0, 64, 46
1, 606245, Control_c, 0, 64, 48
1, 606260, Control_c, 0, 64, 51
1, 606275, Control_c, 0, 64, 55
1, 606297, Control_c, 0, 64, 59
1, 606312, Control_c, 0, 64, 61
1, 606327, Control_c, 0, 64, 62
1, 606335, Note_off_c, 0, 70, 51
1, 606341, Control_c, 0, 64, 63
1, 606356, Control_c, 0, 64, 64
1, 606371, Control_c, 0, 64, 65
1, 606386, Control_c, 0, 64, 66
1, 606401, Control_c, 0, 64, 67
1, 606416, Control_c, 0, 64, 68
1, 606445, Control_c, 0, 64, 68
1, 606457, Note_on_c, 0, 73, 60
1, 606558, Note_off_c, 0, 75, 56
1, 606609, Control_c, 0, 64, 68
1, 606638, Control_c, 0, 64, 67
1, 606667, Control_c, 0, 64, 67
1, 606682, Control_c, 0, 64, 66
1, 606697, Control_c, 0, 64, 66
1, 606712, Control_c, 0, 64, 65
1, 606727, Control_c, 0, 64, 64
1, 606741, Control_c, 0, 64, 64
1, 606756, Control_c, 0, 64, 63
1, 606771, Control_c, 0, 64, 63
1, 606786, Control_c, 0, 64, 62
1, 606801, Control_c, 0, 64, 61
1, 606815, Control_c, 0, 64, 59
1, 606830, Control_c, 0, 64, 59
1, 606845, Control_c, 0, 64, 58
1, 606859, Control_c, 0, 64, 57
1, 606863, Note_on_c, 0, 78, 61
1, 606874, Control_c, 0, 64, 56
1, 606889, Note_off_c, 0, 73, 55
1, 606889, Control_c, 0, 64, 55
1, 606904, Control_c, 0, 64, 53
1, 606920, Control_c, 0, 64, 52
1, 606935, Control_c, 0, 64, 52
1, 606950, Control_c, 0, 64, 51
1, 607009, Control_c, 0, 64, 52
1, 607024, Control_c, 0, 64, 53
1, 607046, Control_c, 0, 64, 54
1, 607061, Control_c, 0, 64, 55
1, 607076, Control_c, 0, 64, 56
1, 607090, Control_c, 0, 64, 57
1, 607105, Control_c, 0, 64, 58
1, 607120, Control_c, 0, 64, 60
1, 607135, Control_c, 0, 64, 61
1, 607150, Control_c, 0, 64, 62
1, 607164, Control_c, 0, 64, 64
1, 607179, Control_c, 0, 64, 65
1, 607194, Control_c, 0, 64, 67
1, 607209, Control_c, 0, 64, 69
1, 607224, Control_c, 0, 64, 72
1, 607238, Control_c, 0, 64, 75
1, 607253, Control_c, 0, 64, 78
1, 607268, Control_c, 0, 64, 81
1, 607283, Control_c, 0, 64, 86
1, 607297, Control_c, 0, 64, 92
1, 607312, Control_c, 0, 64, 100
1, 607327, Control_c, 0, 64, 113
1, 607342, Control_c, 0, 64, 127
1, 607607, Note_on_c, 0, 23, 29
1, 607800, Note_off_c, 0, 23, 49
1, 608117, Note_on_c, 0, 42, 36
1, 608227, Note_off_c, 0, 42, 52
1, 608421, Note_on_c, 0, 51, 36
1, 608463, Note_off_c, 0, 78, 60
1, 608674, Note_on_c, 0, 59, 38
1, 608705, Note_off_c, 0, 51, 40
1, 608803, Note_off_c, 0, 59, 50
1, 608942, Note_on_c, 0, 62, 41
1, 608948, Note_on_c, 0, 82, 69
1, 608988, Control_c, 0, 67, 122
1, 609003, Control_c, 0, 67, 112
1, 609017, Control_c, 0, 67, 103
1, 609032, Control_c, 0, 67, 93
1, 609047, Control_c, 0, 67, 85
1, 609062, Control_c, 0, 67, 77
1, 609077, Control_c, 0, 67, 71
1, 609092, Control_c, 0, 67, 67
1, 609107, Control_c, 0, 67, 62
1, 609122, Control_c, 0, 67, 60
1, 609136, Control_c, 0, 67, 60
1, 609196, Control_c, 0, 67, 61
1, 609203, Note_off_c, 0, 62, 33
1, 609210, Control_c, 0, 67, 62
1, 609225, Note_on_c, 0, 63, 34
1, 609225, Control_c, 0, 67, 63
1, 609240, Control_c, 0, 67, 63
1, 609255, Control_c, 0, 67, 64
1, 609266, Note_off_c, 0, 63, 56
1, 609269, Control_c, 0, 67, 65
1, 609307, Control_c, 0, 67, 65
1, 609322, Control_c, 0, 67, 66
1, 609366, Control_c, 0, 67, 66
1, 609411, Control_c, 0, 67, 67
1, 609485, Control_c, 0, 67, 67
1, 609515, Note_on_c, 0, 66, 45
1, 609545, Control_c, 0, 64, 105
1, 609559, Control_c, 0, 64, 86
1, 609559, Control_c, 0, 67, 68
1, 609574, Control_c, 0, 64, 75
1, 609589, Control_c, 0, 64, 69
1, 609604, Control_c, 0, 64, 69
1, 609619, Control_c, 0, 64, 70
1, 609633, Control_c, 0, 64, 73
1, 609648, Control_c, 0, 64, 78
1, 609663, Control_c, 0, 64, 83
1, 609678, Control_c, 0, 64, 88
1, 609692, Control_c, 0, 64, 95
1, 609707, Control_c, 0, 64, 101
1, 609722, Control_c, 0, 64, 107
1, 609728, Note_on_c, 0, 70, 38
1, 609737, Control_c, 0, 64, 114
1, 609752, Control_c, 0, 64, 122
1, 609766, Control_c, 0, 64, 127
1, 609855, Note_off_c, 0, 66, 35
1, 609889, Note_off_c, 0, 70, 40
1, 609909, Note_on_c, 0, 71, 43
1, 610007, Note_off_c, 0, 71, 35
1, 610073, Note_on_c, 0, 74, 51
1, 610074, Note_off_c, 0, 82, 0
1, 610111, Poly_aftertouch_c, 0, 82, 127
1, 610136, Note_on_c, 0, 87, 65
1, 610184, Poly_aftertouch_c, 0, 82, 0
1, 610247, Note_off_c, 0, 74, 33
1, 610266, Note_on_c, 0, 75, 46
1, 610368, Note_off_c, 0, 75, 52
1, 610383, Control_c, 0, 64, 119
1, 610398, Control_c, 0, 64, 114
1, 610413, Control_c, 0, 64, 111
1, 610427, Control_c, 0, 64, 108
1, 610442, Control_c, 0, 64, 105
1, 610457, Control_c, 0, 64, 100
1, 610467, Note_on_c, 0, 80, 70
1, 610472, Control_c, 0, 64, 93
1, 610478, Note_on_c, 0, 78, 41
1, 610487, Control_c, 0, 64, 86
1, 610502, Control_c, 0, 64, 84
1, 610533, Note_off_c, 0, 87, 44
1, 610620, Control_c, 0, 67, 67
1, 610631, Note_off_c, 0, 78, 47
1, 610719, Note_on_c, 0, 71, 50
1, 610820, Control_c, 0, 64, 85
1, 610848, Note_off_c, 0, 71, 41
1, 610925, Control_c, 0, 64, 84
1, 610939, Control_c, 0, 64, 83
1, 610954, Control_c, 0, 64, 81
1, 610969, Control_c, 0, 64, 77
1, 610970, Note_on_c, 0, 85, 64
1, 610973, Note_on_c, 0, 75, 43
1, 610984, Control_c, 0, 64, 74
1, 610985, Note_off_c, 0, 80, 50
1, 610990, Note_on_c, 0, 78, 43
1, 610999, Control_c, 0, 64, 73
1, 611043, Control_c, 0, 64, 73
1, 611058, Control_c, 0, 64, 74
1, 611069, Note_off_c, 0, 75, 60
1, 611072, Control_c, 0, 64, 75
1, 611087, Control_c, 0, 64, 75
1, 611102, Control_c, 0, 64, 76
1, 611117, Control_c, 0, 64, 76
1, 611131, Control_c, 0, 64, 77
1, 611171, Note_on_c, 0, 66, 53
1, 611206, Control_c, 0, 64, 77
1, 611250, Control_c, 0, 64, 78
1, 611253, Note_off_c, 0, 85, 63
1, 611298, Note_off_c, 0, 66, 60
1, 611308, Note_on_c, 0, 71, 57
1, 611399, Control_c, 0, 64, 77
1, 611413, Control_c, 0, 64, 76
1, 611428, Control_c, 0, 64, 75
1, 611488, Note_on_c, 0, 64, 31
1, 611498, Note_off_c, 0, 71, 38
1, 611501, Note_on_c, 0, 65, 32
1, 611517, Control_c, 0, 64, 76
1, 611546, Note_off_c, 0, 65, 49
1, 611554, Control_c, 0, 64, 76
1, 611581, Note_off_c, 0, 64, 39
1, 611598, Control_c, 0, 64, 77
1, 611602, Note_on_c, 0, 68, 67
1, 611613, Control_c, 0, 64, 77
1, 611643, Control_c, 0, 64, 78
1, 611702, Control_c, 0, 64, 78
1, 611722, Note_on_c, 0, 63, 65
1, 611733, Control_c, 0, 67, 68
1, 611779, Note_off_c, 0, 68, 34
1, 611792, Control_c, 0, 64, 79
1, 611822, Control_c, 0, 64, 78
1, 611836, Control_c, 0, 64, 76
1, 611849, Poly_aftertouch_c, 0, 62, 0
1, 611851, Control_c, 0, 64, 71
1, 611857, Note_off_c, 0, 63, 54
1, 611866, Control_c, 0, 64, 66
1, 611867, Note_on_c, 0, 66, 64
1, 611872, Note_on_c, 0, 82, 76
1, 611880, Control_c, 0, 64, 61
1, 611891, Note_on_c, 0, 73, 55
1, 611892, Note_off_c, 0, 78, 31
1, 611895, Control_c, 0, 64, 58
1, 611910, Control_c, 0, 64, 59
1, 611925, Control_c, 0, 64, 60
1, 611940, Control_c, 0, 64, 62
1, 611954, Control_c, 0, 64, 65
1, 611969, Control_c, 0, 64, 68
1, 611969, Control_c, 0, 67, 68
1, 611984, Control_c, 0, 64, 72
1, 611999, Control_c, 0, 64, 75
1, 612014, Control_c, 0, 64, 79
1, 612022, Note_off_c, 0, 66, 61
1, 612028, Note_on_c, 0, 59, 71
1, 612029, Control_c, 0, 64, 82
1, 612043, Control_c, 0, 64, 85
1, 612049, Note_off_c, 0, 82, 58
1, 612049, Note_off_c, 0, 73, 56
1, 612058, Control_c, 0, 64, 90
1, 612073, Control_c, 0, 64, 94
1, 612088, Control_c, 0, 64, 98
1, 612103, Control_c, 0, 64, 100
1, 612160, Control_c, 0, 64, 102
1, 612160, Control_c, 0, 67, 68
1, 612171, Note_on_c, 0, 71, 81
1, 612175, Control_c, 0, 67, 67
1, 612301, Control_c, 0, 64, 99
1, 612301, Control_c, 0, 67, 67
1, 612316, Control_c, 0, 64, 97
1, 612331, Control_c, 0, 64, 87
1, 612346, Note_off_c, 0, 71, 55
1, 612346, Control_c, 0, 64, 71
1, 612357, Note_off_c, 0, 59, 37
1, 612360, Control_c, 0, 64, 55
1, 612360, Control_c, 0, 67, 66
1, 612374, Note_on_c, 0, 65, 82
1, 612375, Control_c, 0, 64, 0
1, 612375, Control_c, 0, 67, 65
1, 612378, Note_on_c, 0, 80, 82
1, 612386, Note_on_c, 0, 74, 70
1, 612390, Control_c, 0, 67, 64
1, 612404, Control_c, 0, 67, 62
1, 612419, Control_c, 0, 67, 60
1, 612434, Control_c, 0, 64, 44
1, 612434, Control_c, 0, 67, 59
1, 612439, Note_off_c, 0, 65, 66
1, 612449, Control_c, 0, 64, 64
1, 612449, Control_c, 0, 67, 58
1, 612464, Control_c, 0, 64, 80
1, 612464, Control_c, 0, 67, 54
1, 612478, Control_c, 0, 64, 127
1, 612478, Control_c, 0, 67, 49
1, 612493, Control_c, 0, 67, 47
1, 612509, Control_c, 0, 67, 46
1, 612613, Control_c, 0, 67, 47
1, 612642, Control_c, 0, 67, 47
1, 612672, Control_c, 0, 67, 48
1, 612682, Note_on_c, 0, 37, 66
1, 612747, Control_c, 0, 67, 48
1, 612821, Note_on_c, 0, 47, 68
1, 612844, Note_off_c, 0, 37, 60
1, 612909, Note_off_c, 0, 47, 62
1, 612937, Note_on_c, 0, 53, 66
1, 613000, Note_off_c, 0, 53, 63
1, 613045, Note_on_c, 0, 56, 66
1, 613051, Control_c, 0, 67, 49
1, 613107, Note_on_c, 0, 58, 71
1, 613110, Control_c, 0, 67, 49
1, 613113, Note_off_c, 0, 74, 57
1, 613148, Note_off_c, 0, 56, 57
1, 613155, Control_c, 0, 67, 50
1, 613156, Note_on_c, 0, 59, 40
1, 613176, Note_off_c, 0, 58, 61
1, 613190, Note_on_c, 0, 62, 72
1, 613224, Note_off_c, 0, 80, 58
1, 613238, Note_off_c, 0, 62, 63
1, 613239, Note_off_c, 0, 59, 37
1, 613256, Note_on_c, 0, 65, 68
1, 613358, Note_on_c, 0, 68, 82
1, 613360, Note_off_c, 0, 65, 58
1, 613407, Control_c, 0, 67, 50
1, 613581, Note_on_c, 0, 70, 78
1, 613582, Note_on_c, 0, 78, 74
1, 613599, Control_c, 0, 64, 107
1, 613614, Control_c, 0, 64, 100
1, 613640, Note_off_c, 0, 68, 56
1, 613759, Note_off_c, 0, 78, 62
1, 613784, Control_c, 0, 64, 94
1, 613799, Control_c, 0, 64, 82
1, 613799, Control_c, 0, 67, 50
1, 613814, Note_on_c, 0, 71, 82
1, 613814, Note_on_c, 0, 77, 72
1, 613814, Control_c, 0, 64, 70
1, 613817, Note_off_c, 0, 70, 61
1, 613829, Control_c, 0, 64, 61
1, 613829, Control_c, 0, 67, 49
1, 613844, Control_c, 0, 64, 54
1, 613858, Control_c, 0, 64, 53
1, 613873, Control_c, 0, 64, 56
1, 613888, Control_c, 0, 64, 62
1, 613903, Control_c, 0, 64, 65
1, 613918, Control_c, 0, 64, 68
1, 613933, Control_c, 0, 64, 70
1, 613948, Control_c, 0, 64, 72
1, 613963, Control_c, 0, 64, 74
1, 613978, Control_c, 0, 64, 75
1, 613978, Note_off_c, 0, 77, 49
1, 613992, Control_c, 0, 64, 76
1, 613992, Control_c, 0, 67, 49
1, 613998, Note_off_c, 0, 71, 59
1, 614007, Control_c, 0, 64, 76
1, 614019, Note_on_c, 0, 62, 74
1, 614022, Control_c, 0, 64, 77
1, 614025, Note_on_c, 0, 80, 61
1, 614037, Control_c, 0, 64, 77
1, 614037, Control_c, 0, 67, 48
1, 614051, Control_c, 0, 64, 78
1, 614066, Control_c, 0, 64, 78
1, 614081, Control_c, 0, 64, 79
1, 614085, Note_off_c, 0, 62, 60
1, 614112, Control_c, 0, 64, 79
1, 614237, Note_on_c, 0, 77, 76
1, 614245, Control_c, 0, 64, 78
1, 614249, Note_on_c, 0, 68, 68
1, 614260, Control_c, 0, 64, 72
1, 614267, Note_off_c, 0, 80, 61
1, 614274, Control_c, 0, 64, 64
1, 614289, Control_c, 0, 64, 58
1, 614289, Control_c, 0, 67, 48
1, 614304, Control_c, 0, 64, 56
1, 614319, Control_c, 0, 64, 57
1, 614319, Control_c, 0, 67, 47
1, 614334, Control_c, 0, 64, 59
1, 614334, Control_c, 0, 67, 47
1, 614348, Control_c, 0, 64, 61
1, 614348, Control_c, 0, 67, 46
1, 614363, Control_c, 0, 64, 63
1, 614363, Control_c, 0, 67, 46
1, 614378, Control_c, 0, 64, 66
1, 614378, Control_c, 0, 67, 45
1, 614393, Control_c, 0, 64, 70
1, 614393, Control_c, 0, 67, 44
1, 614407, Control_c, 0, 64, 74
1, 614407, Control_c, 0, 67, 42
1, 614408, Note_on_c, 0, 59, 70
1, 614422, Control_c, 0, 64, 77
1, 614422, Control_c, 0, 67, 35
1, 614437, Control_c, 0, 64, 80
1, 614437, Control_c, 0, 67, 25
1, 614452, Control_c, 0, 64, 82
1, 614452, Control_c, 0, 67, 0
1, 614467, Control_c, 0, 64, 85
1, 614481, Control_c, 0, 64, 88
1, 614496, Control_c, 0, 64, 91
1, 614511, Control_c, 0, 64, 94
1, 614531, Note_on_c, 0, 62, 70
1, 614532, Note_off_c, 0, 59, 61
1, 614533, Control_c, 0, 64, 98
1, 614548, Control_c, 0, 64, 101
1, 614562, Control_c, 0, 64, 105
1, 614577, Control_c, 0, 64, 109
1, 614592, Control_c, 0, 64, 113
1, 614607, Control_c, 0, 64, 118
1, 614622, Control_c, 0, 64, 127
1, 614644, Note_off_c, 0, 62, 56
1, 614646, Note_on_c, 0, 78, 84
1, 614660, Note_on_c, 0, 56, 68
1, 614696, Note_off_c, 0, 77, 56
1, 614769, Note_off_c, 0, 56, 59
1, 614785, Note_on_c, 0, 59, 63
1, 614789, Note_off_c, 0, 68, 38
1, 614886, Note_off_c, 0, 59, 60
1, 614892, Note_off_c, 0, 78, 51
1, 614904, Note_on_c, 0, 50, 68
1, 614944, Note_off_c, 0, 50, 56
1, 615008, Note_on_c, 0, 69, 59
1, 615063, Note_on_c, 0, 72, 61
1, 615157, Control_c, 0, 64, 95
1, 615165, Note_on_c, 0, 37, 47
1, 615171, Control_c, 0, 64, 68
1, 615186, Control_c, 0, 64, 41
1, 615201, Control_c, 0, 64, 0
1, 615233, Note_on_c, 0, 51, 32
1, 615249, Note_on_c, 0, 80, 67
1, 615342, Control_c, 0, 64, 42
1, 615356, Control_c, 0, 64, 72
1, 615370, Note_off_c, 0, 37, 62
1, 615371, Control_c, 0, 64, 110
1, 615386, Control_c, 0, 64, 127
1, 615468, Note_off_c, 0, 51, 41
1, 615603, Note_off_c, 0, 72, 36
1, 615628, Note_on_c, 0, 54, 46
1, 615900, Note_on_c, 0, 57, 41
1, 615912, Note_on_c, 0, 75, 57
1, 615937, Note_off_c, 0, 69, 16
1, 615990, Note_off_c, 0, 54, 41
1, 616061, Note_off_c, 0, 57, 34
1, 616154, Note_on_c, 0, 60, 45
1, 616290, Note_off_c, 0, 60, 34
1, 616370, Note_off_c, 0, 80, 37
1, 616374, Note_on_c, 0, 63, 44
1, 616416, Note_off_c, 0, 75, 61
1, 616592, Note_on_c, 0, 76, 57
1, 616606, Note_on_c, 0, 66, 32
1, 616824, Control_c, 0, 64, 94
1, 616839, Control_c, 0, 64, 76
1, 616851, Note_on_c, 0, 69, 37
1, 616854, Control_c, 0, 64, 66
1, 616859, Note_on_c, 0, 77, 40
1, 616865, Note_off_c, 0, 76, 34
1, 616869, Control_c, 0, 64, 60
1, 616899, Control_c, 0, 64, 62
1, 616914, Control_c, 0, 64, 65
1, 616929, Control_c, 0, 64, 68
1, 616944, Control_c, 0, 64, 72
1, 616958, Control_c, 0, 64, 75
1, 616973, Control_c, 0, 64, 78
1, 616988, Control_c, 0, 64, 80
1, 617002, Control_c, 0, 64, 81
1, 617017, Control_c, 0, 64, 83
1, 617030, Note_off_c, 0, 66, 39
1, 617032, Note_off_c, 0, 69, 31
1, 617032, Control_c, 0, 64, 85
1, 617034, Note_off_c, 0, 77, 55
1, 617042, Note_on_c, 0, 78, 46
1, 617047, Control_c, 0, 64, 86
1, 617062, Control_c, 0, 64, 88
1, 617076, Control_c, 0, 64, 88
1, 617091, Control_c, 0, 64, 89
1, 617108, Note_on_c, 0, 72, 45
1, 617120, Control_c, 0, 64, 90
1, 617131, Note_off_c, 0, 63, 27
1, 617149, Note_off_c, 0, 78, 48
1, 617187, Note_on_c, 0, 79, 53
1, 617294, Note_off_c, 0, 72, 36
1, 617318, Note_off_c, 0, 79, 55
1, 617329, Control_c, 0, 64, 88
1, 617344, Note_on_c, 0, 80, 48
1, 617344, Control_c, 0, 64, 83
1, 617356, Note_on_c, 0, 75, 39
1, 617359, Control_c, 0, 64, 74
1, 617373, Control_c, 0, 64, 67
1, 617388, Control_c, 0, 64, 64
1, 617403, Control_c, 0, 64, 64
1, 617418, Control_c, 0, 64, 65
1, 617431, Note_off_c, 0, 80, 62
1, 617433, Control_c, 0, 64, 66
1, 617447, Control_c, 0, 64, 69
1, 617462, Control_c, 0, 64, 71
1, 617468, Note_on_c, 0, 81, 53
1, 617477, Control_c, 0, 64, 74
1, 617492, Control_c, 0, 64, 76
1, 617507, Control_c, 0, 64, 78
1, 617522, Note_off_c, 0, 81, 61
1, 617529, Control_c, 0, 64, 80
1, 617544, Control_c, 0, 64, 81
1, 617552, Note_on_c, 0, 82, 60
1, 617555, Note_off_c, 0, 75, 52
1, 617558, Control_c, 0, 64, 81
1, 617588, Control_c, 0, 64, 82
1, 617600, Note_off_c, 0, 82, 61
1, 617603, Control_c, 0, 64, 82
1, 617618, Control_c, 0, 64, 83
1, 617632, Note_on_c, 0, 83, 68
1, 617677, Note_on_c, 0, 78, 52
1, 617707, Note_off_c, 0, 83, 57
1, 617717, Note_on_c, 0, 84, 62
1, 617719, Note_off_c, 0, 78, 57
1, 617722, Control_c, 0, 64, 83
1, 617766, Control_c, 0, 64, 84
1, 617781, Control_c, 0, 64, 85
1, 617787, Note_on_c, 0, 85, 64
1, 617793, Note_off_c, 0, 84, 52
1, 617796, Control_c, 0, 64, 86
1, 617825, Control_c, 0, 64, 87
1, 617838, Note_off_c, 0, 85, 61
1, 617840, Control_c, 0, 64, 87
1, 617877, Note_on_c, 0, 86, 55
1, 617939, Note_off_c, 0, 86, 55
1, 617951, Note_on_c, 0, 87, 58
1, 617973, Control_c, 0, 64, 87
1, 617981, Note_off_c, 0, 87, 66
1, 618003, Control_c, 0, 64, 86
1, 618016, Note_on_c, 0, 61, 44
1, 618032, Control_c, 0, 64, 86
1, 618047, Control_c, 0, 64, 85
1, 618053, Note_on_c, 0, 67, 32
1, 618062, Control_c, 0, 64, 83
1, 618077, Control_c, 0, 64, 80
1, 618093, Note_on_c, 0, 70, 43
1, 618093, Control_c, 0, 64, 73
1, 618108, Control_c, 0, 64, 60
1, 618122, Control_c, 0, 64, 0
1, 618182, Note_on_c, 0, 76, 53
1, 618226, Control_c, 0, 64, 50
1, 618240, Control_c, 0, 64, 61
1, 618255, Control_c, 0, 64, 69
1, 618278, Note_off_c, 0, 76, 62
1, 618278, Control_c, 0, 64, 78
1, 618288, Note_off_c, 0, 61, 60
1, 618293, Control_c, 0, 64, 94
1, 618308, Control_c, 0, 64, 127
1, 618314, Note_off_c, 0, 70, 52
1, 618346, Note_off_c, 0, 67, 44
1, 618411, Control_c, 0, 67, 19
1, 618420, Note_on_c, 0, 88, 58
1, 618441, Note_on_c, 0, 84, 35
1, 618473, Note_off_c, 0, 84, 53
1, 618591, Note_on_c, 0, 90, 66
1, 618605, Note_off_c, 0, 88, 40
1, 618607, Note_on_c, 0, 82, 38
1, 618615, Note_off_c, 0, 90, 68
1, 618619, Control_c, 0, 67, 0
1, 618638, Note_off_c, 0, 82, 54
1, 618643, Note_on_c, 0, 58, 37
1, 618663, Control_c, 0, 64, 115
1, 618678, Control_c, 0, 64, 78
1, 618684, Note_on_c, 0, 64, 28
1, 618684, Note_on_c, 0, 67, 45
1, 618692, Control_c, 0, 64, 61
1, 618707, Control_c, 0, 64, 43
1, 618722, Control_c, 0, 64, 37
1, 618724, Note_on_c, 0, 73, 62
1, 618737, Control_c, 0, 64, 44
1, 618752, Control_c, 0, 64, 55
1, 618766, Control_c, 0, 64, 63
1, 618781, Control_c, 0, 64, 69
1, 618788, Note_off_c, 0, 67, 62
1, 618788, Note_off_c, 0, 58, 64
1, 618794, Note_off_c, 0, 73, 62
1, 618796, Control_c, 0, 64, 77
1, 618811, Control_c, 0, 64, 88
1, 618817, Note_off_c, 0, 64, 46
1, 618826, Control_c, 0, 64, 107
1, 618840, Control_c, 0, 64, 127
1, 618872, Note_on_c, 0, 85, 73
1, 618904, Note_on_c, 0, 81, 36
1, 618931, Control_c, 0, 67, 19
1, 618940, Note_off_c, 0, 81, 48
1, 618975, Control_c, 0, 67, 0
1, 618994, Note_off_c, 0, 85, 63
1, 618995, Note_on_c, 0, 87, 73
1, 619001, Note_on_c, 0, 79, 58
1, 619031, Note_off_c, 0, 79, 62
1, 619034, Note_off_c, 0, 87, 62
1, 619037, Note_on_c, 0, 56, 54
1, 619042, Note_on_c, 0, 62, 45
1, 619071, Control_c, 0, 64, 77
1, 619082, Note_on_c, 0, 65, 57
1, 619086, Control_c, 0, 64, 54
1, 619101, Control_c, 0, 64, 0
1, 619121, Note_on_c, 0, 71, 67
1, 619131, Control_c, 0, 64, 37
1, 619145, Control_c, 0, 64, 58
1, 619148, Note_off_c, 0, 56, 60
1, 619160, Control_c, 0, 64, 72
1, 619167, Note_off_c, 0, 65, 65
1, 619170, Note_off_c, 0, 62, 63
1, 619172, Note_off_c, 0, 71, 62
1, 619175, Control_c, 0, 64, 90
1, 619190, Control_c, 0, 64, 127
1, 619219, Control_c, 0, 67, 19
1, 619233, Note_on_c, 0, 83, 66
1, 619258, Note_on_c, 0, 79, 42
1, 619290, Note_off_c, 0, 79, 48
1, 619339, Note_off_c, 0, 83, 44
1, 619342, Note_on_c, 0, 85, 74
1, 619349, Note_on_c, 0, 77, 58
1, 619352, Control_c, 0, 67, 0
1, 619359, Note_on_c, 0, 53, 59
1, 619370, Note_off_c, 0, 77, 66
1, 619375, Note_off_c, 0, 85, 61
1, 619397, Control_c, 0, 64, 119
1, 619412, Control_c, 0, 64, 74
1, 619415, Note_on_c, 0, 59, 44
1, 619427, Note_on_c, 0, 62, 51
1, 619427, Control_c, 0, 64, 51
1, 619442, Control_c, 0, 64, 0
1, 619445, Note_on_c, 0, 68, 68
1, 619470, Note_off_c, 0, 53, 58
1, 619471, Control_c, 0, 64, 35
1, 619479, Note_off_c, 0, 59, 0
1, 619479, Note_on_c, 0, 59, 3
1, 619486, Control_c, 0, 64, 56
1, 619501, Control_c, 0, 64, 68
1, 619501, Note_off_c, 0, 62, 63
1, 619511, Note_off_c, 0, 68, 64
1, 619516, Control_c, 0, 64, 81
1, 619519, Note_off_c, 0, 59, 60
1, 619530, Control_c, 0, 64, 108
1, 619545, Control_c, 0, 64, 127
1, 619564, Note_on_c, 0, 80, 69
1, 619575, Control_c, 0, 67, 19
1, 619585, Note_on_c, 0, 76, 52
1, 619610, Note_off_c, 0, 76, 58
1, 619691, Note_on_c, 0, 82, 67
1, 619691, Note_off_c, 0, 80, 61
1, 619699, Note_on_c, 0, 74, 51
1, 619704, Note_on_c, 0, 51, 49
1, 619709, Control_c, 0, 67, 0
1, 619722, Note_off_c, 0, 74, 60
1, 619724, Note_on_c, 0, 57, 43
1, 619725, Note_off_c, 0, 82, 59
1, 619738, Control_c, 0, 64, 120
1, 619750, Note_on_c, 0, 60, 45
1, 619753, Control_c, 0, 64, 71
1, 619776, Control_c, 0, 64, 50
1, 619790, Control_c, 0, 64, 0
1, 619798, Note_on_c, 0, 66, 53
1, 619820, Control_c, 0, 64, 38
1, 619835, Control_c, 0, 64, 55
1, 619850, Control_c, 0, 64, 66
1, 619851, Note_off_c, 0, 51, 60
1, 619854, Note_off_c, 0, 60, 64
1, 619859, Note_off_c, 0, 66, 61
1, 619865, Note_off_c, 0, 57, 62
1, 619865, Control_c, 0, 64, 77
1, 619880, Control_c, 0, 64, 89
1, 619894, Control_c, 0, 64, 104
1, 619894, Control_c, 0, 67, 19
1, 619909, Control_c, 0, 64, 127
1, 619930, Note_on_c, 0, 78, 56
1, 619938, Note_on_c, 0, 74, 47
1, 619969, Note_off_c, 0, 74, 54
1, 620065, Note_on_c, 0, 80, 53
1, 620078, Note_on_c, 0, 72, 30
1, 620089, Note_on_c, 0, 48, 51
1, 620092, Note_off_c, 0, 80, 58
1, 620098, Note_off_c, 0, 78, 38
1, 620115, Note_off_c, 0, 72, 42
1, 620145, Control_c, 0, 67, 0
1, 620146, Note_on_c, 0, 57, 47
1, 620148, Note_on_c, 0, 54, 38
1, 620160, Control_c, 0, 64, 87
1, 620175, Control_c, 0, 64, 64
1, 620190, Control_c, 0, 64, 31
1, 620205, Control_c, 0, 64, 0
1, 620226, Note_on_c, 0, 63, 49
1, 620279, Control_c, 0, 64, 44
1, 620294, Control_c, 0, 64, 59
1, 620309, Control_c, 0, 64, 67
1, 620324, Control_c, 0, 64, 74
1, 620324, Control_c, 0, 67, 19
1, 620326, Note_off_c, 0, 63, 60
1, 620338, Control_c, 0, 64, 81
1, 620350, Note_off_c, 0, 57, 58
1, 620353, Control_c, 0, 64, 88
1, 620367, Note_on_c, 0, 75, 47
1, 620368, Control_c, 0, 64, 97
1, 620381, Note_off_c, 0, 48, 36
1, 620381, Note_on_c, 0, 71, 42
1, 620383, Control_c, 0, 64, 109
1, 620383, Control_c, 0, 67, 21
1, 620389, Poly_aftertouch_c, 0, 51, 127
1, 620399, Control_c, 0, 64, 127
1, 620406, Note_off_c, 0, 54, 53
1, 620419, Note_off_c, 0, 71, 52
1, 620437, Poly_aftertouch_c, 0, 51, 0
1, 620443, Control_c, 0, 67, 23
1, 620565, Note_on_c, 0, 77, 48
1, 620571, Note_on_c, 0, 69, 40
1, 620605, Note_off_c, 0, 75, 41
1, 620623, Note_off_c, 0, 77, 53
1, 620633, Note_off_c, 0, 69, 43
1, 620866, Control_c, 0, 64, 92
1, 620878, Note_on_c, 0, 44, 49
1, 620881, Control_c, 0, 64, 65
1, 620886, Note_on_c, 0, 37, 46
1, 620895, Control_c, 0, 64, 0
1, 620895, Control_c, 0, 67, 21
1, 620969, Control_c, 0, 64, 59
1, 620984, Control_c, 0, 64, 99
1, 620984, Control_c, 0, 67, 25
1, 620999, Control_c, 0, 64, 127
1, 620999, Control_c, 0, 67, 33
1, 621010, Note_off_c, 0, 37, 54
1, 621014, Control_c, 0, 67, 51
1, 621029, Control_c, 0, 67, 92
1, 621034, Note_off_c, 0, 44, 63
1, 621043, Control_c, 0, 67, 127
1, 621341, Note_on_c, 0, 53, 45
1, 621480, Note_off_c, 0, 53, 55
1, 621499, Note_on_c, 0, 56, 48
1, 621564, Note_off_c, 0, 56, 57
1, 621573, Note_on_c, 0, 59, 48
1, 621600, Note_off_c, 0, 59, 64
1, 621621, Note_on_c, 0, 62, 53
1, 621658, Note_off_c, 0, 62, 60
1, 621683, Note_on_c, 0, 63, 59
1, 621723, Note_off_c, 0, 63, 61
1, 621728, Note_on_c, 0, 65, 50
1, 621764, Note_on_c, 0, 68, 61
1, 621819, Note_off_c, 0, 65, 52
1, 621834, Note_on_c, 0, 74, 65
1, 621850, Note_off_c, 0, 68, 62
1, 621866, Control_c, 0, 67, 125
1, 621918, Note_on_c, 0, 75, 66
1, 621932, Note_off_c, 0, 74, 58
1, 621980, Note_off_c, 0, 75, 62
1, 622056, Note_on_c, 0, 82, 81
1, 622156, Control_c, 0, 67, 123
1, 622171, Control_c, 0, 67, 119
1, 622186, Control_c, 0, 67, 110
1, 622201, Control_c, 0, 67, 99
1, 622215, Control_c, 0, 67, 86
1, 622230, Control_c, 0, 67, 73
1, 622245, Control_c, 0, 67, 57
1, 622260, Control_c, 0, 67, 42
1, 622275, Control_c, 0, 67, 22
1, 622289, Control_c, 0, 67, 0
1, 622319, Control_c, 0, 64, 112
1, 622334, Control_c, 0, 64, 75
1, 622348, Control_c, 0, 64, 50
1, 622363, Control_c, 0, 64, 0
1, 622541, Control_c, 0, 67, 22
1, 622556, Control_c, 0, 67, 31
1, 622571, Control_c, 0, 67, 42
1, 622586, Control_c, 0, 67, 57
1, 622601, Control_c, 0, 67, 76
1, 622615, Control_c, 0, 67, 97
1, 622630, Control_c, 0, 67, 117
1, 622645, Control_c, 0, 67, 127
1, 623142, Control_c, 0, 64, 33
1, 623157, Control_c, 0, 64, 48
1, 623171, Control_c, 0, 64, 56
1, 623186, Control_c, 0, 64, 60
1, 623201, Control_c, 0, 64, 62
1, 623216, Control_c, 0, 64, 65
1, 623231, Control_c, 0, 64, 67
1, 623245, Control_c, 0, 64, 72
1, 623260, Control_c, 0, 64, 77
1, 623275, Control_c, 0, 64, 85
1, 623289, Note_on_c, 0, 42, 37
1, 623290, Control_c, 0, 64, 97
1, 623291, Note_on_c, 0, 49, 32
1, 623305, Control_c, 0, 64, 127
1, 623650, Note_on_c, 0, 80, 43
1, 623848, Note_off_c, 0, 82, 35
1, 624005, Note_on_c, 0, 73, 34
1, 624066, Note_off_c, 0, 80, 41
1, 624145, Note_off_c, 0, 73, 35
1, 624157, Note_off_c, 0, 42, 44
1, 624163, Note_off_c, 0, 49, 42
1, 624807, Note_on_c, 0, 61, 44
1, 624831, Note_on_c, 0, 58, 29
1, 624871, Note_on_c, 0, 54, 10
1, 625144, Note_off_c, 0, 58, 38
1, 625162, Note_off_c, 0, 54, 41
1, 625274, Note_off_c, 0, 61, 32
1, 625704, Note_on_c, 0, 54, 41
1, 625708, Note_on_c, 0, 61, 58
1, 625722, Note_on_c, 0, 58, 31
1, 625891, Note_off_c, 0, 58, 34
1, 625892, Note_off_c, 0, 54, 36
1, 625989, Control_c, 0, 67, 122
1, 626004, Control_c, 0, 67, 114
1, 626018, Control_c, 0, 67, 103
1, 626033, Control_c, 0, 67, 92
1, 626048, Control_c, 0, 67, 81
1, 626063, Control_c, 0, 67, 71
1, 626078, Control_c, 0, 67, 62
1, 626094, Control_c, 0, 67, 55
1, 626108, Control_c, 0, 67, 48
1, 626123, Control_c, 0, 67, 39
1, 626138, Control_c, 0, 67, 32
1, 626153, Control_c, 0, 67, 24
1, 626168, Control_c, 0, 67, 0
1, 626290, Note_off_c, 0, 61, 27
1, 626581, Note_on_c, 0, 61, 67
1, 626582, Note_on_c, 0, 54, 38
1, 626584, Note_on_c, 0, 58, 39
1, 626695, Note_off_c, 0, 58, 48
1, 626712, Note_off_c, 0, 54, 47
1, 626950, Note_off_c, 0, 61, 56
1, 627337, Control_c, 0, 64, 125
1, 627352, Control_c, 0, 64, 110
1, 627367, Control_c, 0, 64, 103
1, 627381, Control_c, 0, 64, 98
1, 627396, Control_c, 0, 64, 93
1, 627411, Control_c, 0, 64, 89
1, 627411, Control_c, 0, 67, 20
1, 627426, Control_c, 0, 64, 85
1, 627426, Control_c, 0, 67, 23
1, 627441, Control_c, 0, 64, 79
1, 627441, Control_c, 0, 67, 25
1, 627455, Control_c, 0, 64, 74
1, 627455, Control_c, 0, 67, 27
1, 627470, Control_c, 0, 64, 69
1, 627470, Control_c, 0, 67, 30
1, 627485, Control_c, 0, 64, 64
1, 627485, Control_c, 0, 67, 34
1, 627500, Control_c, 0, 64, 60
1, 627500, Control_c, 0, 67, 40
1, 627515, Control_c, 0, 64, 55
1, 627515, Control_c, 0, 67, 48
1, 627529, Control_c, 0, 64, 53
1, 627529, Control_c, 0, 67, 59
1, 627544, Control_c, 0, 64, 52
1, 627544, Control_c, 0, 67, 75
1, 627559, Control_c, 0, 64, 51
1, 627559, Control_c, 0, 67, 89
1, 627574, Control_c, 0, 64, 51
1, 627574, Control_c, 0, 67, 101
1, 627589, Control_c, 0, 64, 49
1, 627589, Control_c, 0, 67, 112
1, 627603, Control_c, 0, 64, 48
1, 627603, Control_c, 0, 67, 122
1, 627618, Control_c, 0, 64, 47
1, 627618, Control_c, 0, 67, 127
1, 627633, Control_c, 0, 64, 45
1, 627648, Control_c, 0, 64, 44
1, 627663, Control_c, 0, 64, 43
1, 627708, Control_c, 0, 64, 43
1, 627738, Control_c, 0, 64, 42
1, 627797, Control_c, 0, 64, 42
1, 627951, Note_on_c, 0, 54, 33
1, 628057, Control_c, 0, 64, 42
1, 628101, Control_c, 0, 64, 43
1, 628131, Control_c, 0, 64, 44
1, 628146, Control_c, 0, 64, 44
1, 628161, Control_c, 0, 64, 45
1, 628176, Control_c, 0, 64, 47
1, 628191, Control_c, 0, 64, 48
1, 628205, Control_c, 0, 64, 49
1, 628220, Control_c, 0, 64, 50
1, 628235, Control_c, 0, 64, 51
1, 628250, Control_c, 0, 64, 52
1, 628265, Control_c, 0, 64, 54
1, 628279, Control_c, 0, 64, 55
1, 628294, Control_c, 0, 64, 57
1, 628309, Control_c, 0, 64, 58
1, 628324, Control_c, 0, 64, 60
1, 628339, Control_c, 0, 64, 61
1, 628353, Control_c, 0, 64, 62
1, 628368, Control_c, 0, 64, 63
1, 628383, Control_c, 0, 64, 63
1, 628398, Control_c, 0, 64, 64
1, 628412, Control_c, 0, 64, 65
1, 628427, Control_c, 0, 64, 67
1, 628442, Control_c, 0, 64, 69
1, 628457, Control_c, 0, 64, 70
1, 628472, Control_c, 0, 64, 72
1, 628488, Control_c, 0, 64, 73
1, 628502, Control_c, 0, 64, 75
1, 628517, Control_c, 0, 64, 76
1, 628532, Control_c, 0, 64, 78
1, 628547, Control_c, 0, 64, 80
1, 628562, Control_c, 0, 64, 83
1, 628576, Control_c, 0, 64, 85
1, 628591, Control_c, 0, 64, 88
1, 628606, Control_c, 0, 64, 92
1, 628621, Control_c, 0, 64, 96
1, 628635, Control_c, 0, 64, 103
1, 628650, Control_c, 0, 64, 112
1, 628665, Control_c, 0, 64, 127
1, 629118, Note_off_c, 0, 54, 37
1, 629354, Note_on_c, 0, 54, 34
1, 630057, Control_c, 0, 64, 116
1, 630073, Control_c, 0, 64, 107
1, 630088, Control_c, 0, 64, 102
1, 630103, Control_c, 0, 64, 98
1, 630118, Control_c, 0, 64, 94
1, 630133, Control_c, 0, 64, 91
1, 630147, Control_c, 0, 64, 89
1, 630162, Control_c, 0, 64, 87
1, 630171, Note_on_c, 0, 68, 49
1, 630177, Control_c, 0, 64, 84
1, 630192, Control_c, 0, 64, 83
1, 630206, Control_c, 0, 64, 81
1, 630221, Control_c, 0, 64, 79
1, 630236, Control_c, 0, 64, 77
1, 630259, Control_c, 0, 64, 75
1, 630274, Control_c, 0, 64, 72
1, 630288, Control_c, 0, 64, 69
1, 630303, Control_c, 0, 64, 66
1, 630318, Control_c, 0, 64, 63
1, 630333, Control_c, 0, 64, 58
1, 630348, Control_c, 0, 64, 55
1, 630362, Control_c, 0, 64, 54
1, 630406, Control_c, 0, 64, 54
1, 630421, Control_c, 0, 64, 55
1, 630436, Control_c, 0, 64, 57
1, 630451, Control_c, 0, 64, 59
1, 630466, Control_c, 0, 64, 61
1, 630480, Control_c, 0, 64, 63
1, 630495, Control_c, 0, 64, 64
1, 630510, Control_c, 0, 64, 65
1, 630525, Control_c, 0, 64, 67
1, 630540, Control_c, 0, 64, 69
1, 630555, Control_c, 0, 64, 71
1, 630569, Control_c, 0, 64, 73
1, 630584, Control_c, 0, 64, 75
1, 630599, Control_c, 0, 64, 77
1, 630614, Control_c, 0, 64, 79
1, 630629, Control_c, 0, 64, 81
1, 630644, Control_c, 0, 64, 83
1, 630659, Control_c, 0, 64, 84
1, 630673, Note_on_c, 0, 60, 30
1, 630673, Control_c, 0, 64, 86
1, 630688, Control_c, 0, 64, 89
1, 630703, Control_c, 0, 64, 91
1, 630718, Control_c, 0, 64, 94
1, 630733, Control_c, 0, 64, 98
1, 630747, Control_c, 0, 64, 101
1, 630762, Control_c, 0, 64, 103
1, 630777, Control_c, 0, 64, 106
1, 630792, Control_c, 0, 64, 108
1, 630806, Control_c, 0, 64, 112
1, 630821, Control_c, 0, 64, 115
1, 630851, Control_c, 0, 64, 118
1, 630882, Control_c, 0, 64, 122
1, 630897, Control_c, 0, 64, 125
1, 630912, Control_c, 0, 64, 127
1, 630981, Note_on_c, 0, 63, 34
1, 631121, Note_off_c, 0, 68, 36
1, 631333, Note_on_c, 0, 61, 33
1, 631336, Note_on_c, 0, 71, 42
1, 631378, Control_c, 0, 64, 125
1, 631408, Control_c, 0, 64, 122
1, 631431, Note_on_c, 0, 70, 49
1, 631437, Control_c, 0, 64, 120
1, 631457, Note_off_c, 0, 60, 35
1, 631466, Note_off_c, 0, 71, 35
1, 631482, Control_c, 0, 64, 118
1, 631483, Note_off_c, 0, 63, 33
1, 631496, Control_c, 0, 64, 115
1, 631511, Control_c, 0, 64, 113
1, 631513, Note_on_c, 0, 68, 48
1, 631526, Control_c, 0, 64, 110
1, 631538, Note_off_c, 0, 70, 60
1, 631539, Note_off_c, 0, 68, 59
1, 631541, Control_c, 0, 64, 108
1, 631556, Control_c, 0, 64, 106
1, 631571, Control_c, 0, 64, 103
1, 631586, Control_c, 0, 64, 100
1, 631601, Control_c, 0, 64, 97
1, 631616, Control_c, 0, 64, 93
1, 631630, Control_c, 0, 64, 90
1, 631632, Note_on_c, 0, 68, 56
1, 631634, Note_on_c, 0, 64, 42
1, 631645, Control_c, 0, 64, 87
1, 631660, Control_c, 0, 64, 85
1, 631675, Control_c, 0, 64, 82
1, 631690, Control_c, 0, 64, 78
1, 631705, Control_c, 0, 64, 73
1, 631720, Control_c, 0, 64, 66
1, 631735, Control_c, 0, 64, 58
1, 631757, Control_c, 0, 64, 50
1, 631772, Control_c, 0, 64, 43
1, 631786, Control_c, 0, 64, 42
1, 631816, Control_c, 0, 64, 43
1, 631831, Control_c, 0, 64, 44
1, 631846, Control_c, 0, 64, 47
1, 631860, Control_c, 0, 64, 51
1, 631875, Control_c, 0, 64, 55
1, 631890, Control_c, 0, 64, 57
1, 631905, Control_c, 0, 64, 58
1, 631920, Control_c, 0, 64, 59
1, 631935, Control_c, 0, 64, 60
1, 631950, Control_c, 0, 64, 62
1, 631961, Note_on_c, 0, 60, 42
1, 631964, Control_c, 0, 64, 63
1, 631979, Control_c, 0, 64, 64
1, 631994, Control_c, 0, 64, 66
1, 632009, Control_c, 0, 64, 67
1, 632024, Control_c, 0, 64, 69
1, 632039, Control_c, 0, 64, 70
1, 632051, Note_off_c, 0, 64, 50
1, 632053, Control_c, 0, 64, 71
1, 632068, Control_c, 0, 64, 71
1, 632083, Control_c, 0, 64, 72
1, 632090, Note_off_c, 0, 61, 39
1, 632186, Control_c, 0, 64, 71
1, 632201, Control_c, 0, 64, 69
1, 632216, Control_c, 0, 64, 67
1, 632231, Control_c, 0, 64, 65
1, 632243, Note_on_c, 0, 63, 49
1, 632245, Control_c, 0, 64, 64
1, 632290, Control_c, 0, 64, 64
1, 632305, Control_c, 0, 64, 65
1, 632319, Control_c, 0, 64, 66
1, 632325, Note_off_c, 0, 68, 58
1, 632334, Control_c, 0, 64, 67
1, 632349, Control_c, 0, 64, 69
1, 632364, Control_c, 0, 64, 70
1, 632379, Control_c, 0, 64, 71
1, 632483, Control_c, 0, 64, 70
1, 632536, Control_c, 0, 64, 70
1, 632552, Note_on_c, 0, 61, 37
1, 632557, Note_on_c, 0, 71, 46
1, 632638, Note_off_c, 0, 60, 32
1, 632646, Note_on_c, 0, 70, 50
1, 632679, Note_off_c, 0, 71, 35
1, 632710, Note_off_c, 0, 63, 33
1, 632713, Control_c, 0, 64, 69
1, 632725, Note_on_c, 0, 68, 45
1, 632743, Control_c, 0, 64, 69
1, 632748, Note_off_c, 0, 70, 60
1, 632749, Note_off_c, 0, 68, 59
1, 632757, Control_c, 0, 64, 68
1, 632772, Control_c, 0, 64, 68
1, 632787, Control_c, 0, 64, 67
1, 632802, Control_c, 0, 64, 66
1, 632817, Control_c, 0, 64, 65
1, 632832, Control_c, 0, 64, 63
1, 632833, Note_on_c, 0, 68, 59
1, 632838, Note_on_c, 0, 64, 39
1, 632847, Control_c, 0, 64, 62
1, 632862, Control_c, 0, 64, 59
1, 632876, Control_c, 0, 64, 54
1, 632891, Control_c, 0, 64, 47
1, 632906, Control_c, 0, 64, 39
1, 632920, Control_c, 0, 64, 33
1, 632935, Control_c, 0, 64, 33
1, 632965, Control_c, 0, 64, 34
1, 632980, Control_c, 0, 64, 36
1, 632994, Control_c, 0, 64, 40
1, 633009, Control_c, 0, 64, 46
1, 633024, Control_c, 0, 64, 51
1, 633039, Control_c, 0, 64, 54
1, 633054, Control_c, 0, 64, 56
1, 633068, Control_c, 0, 64, 57
1, 633083, Control_c, 0, 64, 59
1, 633098, Control_c, 0, 64, 60
1, 633113, Control_c, 0, 64, 62
1, 633127, Control_c, 0, 64, 63
1, 633138, Note_on_c, 0, 60, 35
1, 633142, Control_c, 0, 64, 64
1, 633157, Control_c, 0, 64, 65
1, 633172, Control_c, 0, 64, 66
1, 633187, Control_c, 0, 64, 67
1, 633189, Note_off_c, 0, 64, 54
1, 633202, Control_c, 0, 64, 67
1, 633286, Note_off_c, 0, 61, 33
1, 633359, Control_c, 0, 64, 67
1, 633373, Control_c, 0, 64, 66
1, 633388, Control_c, 0, 64, 64
1, 633403, Control_c, 0, 64, 62
1, 633418, Control_c, 0, 64, 58
1, 633432, Control_c, 0, 64, 56
1, 633439, Note_on_c, 0, 63, 38
1, 633447, Control_c, 0, 64, 55
1, 633477, Control_c, 0, 64, 56
1, 633492, Control_c, 0, 64, 56
1, 633506, Control_c, 0, 64, 58
1, 633521, Control_c, 0, 64, 61
1, 633523, Note_off_c, 0, 68, 59
1, 633536, Control_c, 0, 64, 63
1, 633550, Control_c, 0, 64, 64
1, 633565, Control_c, 0, 64, 66
1, 633580, Control_c, 0, 64, 67
1, 633595, Control_c, 0, 64, 68
1, 633610, Control_c, 0, 64, 69
1, 633625, Control_c, 0, 64, 69
1, 633684, Control_c, 0, 64, 69
1, 633714, Control_c, 0, 64, 68
1, 633729, Control_c, 0, 64, 67
1, 633743, Control_c, 0, 64, 65
1, 633745, Note_off_c, 0, 60, 42
1, 633758, Note_on_c, 0, 71, 44
1, 633758, Control_c, 0, 64, 62
1, 633766, Note_on_c, 0, 59, 28
1, 633773, Control_c, 0, 64, 59
1, 633788, Control_c, 0, 64, 56
1, 633803, Control_c, 0, 64, 55
1, 633832, Control_c, 0, 64, 56
1, 633847, Control_c, 0, 64, 56
1, 633862, Control_c, 0, 64, 58
1, 633869, Note_on_c, 0, 70, 50
1, 633877, Control_c, 0, 64, 59
1, 633890, Note_off_c, 0, 71, 36
1, 633891, Control_c, 0, 64, 62
1, 633906, Control_c, 0, 64, 64
1, 633921, Control_c, 0, 64, 67
1, 633936, Control_c, 0, 64, 69
1, 633950, Control_c, 0, 64, 70
1, 633965, Control_c, 0, 64, 72
1, 633970, Note_on_c, 0, 68, 47
1, 633980, Control_c, 0, 64, 72
1, 633981, Note_off_c, 0, 54, 34
1, 634006, Note_off_c, 0, 70, 58
1, 634006, Note_off_c, 0, 63, 42
1, 634021, Note_off_c, 0, 68, 63
1, 634033, Note_off_c, 0, 59, 58
1, 634093, Control_c, 0, 64, 72
1, 634108, Control_c, 0, 64, 71
1, 634122, Control_c, 0, 64, 70
1, 634132, Note_on_c, 0, 68, 56
1, 634137, Control_c, 0, 64, 69
1, 634143, Note_on_c, 0, 62, 40
1, 634152, Control_c, 0, 64, 68
1, 634167, Control_c, 0, 64, 65
1, 634181, Control_c, 0, 64, 61
1, 634196, Control_c, 0, 64, 55
1, 634211, Control_c, 0, 64, 49
1, 634226, Control_c, 0, 64, 46
1, 634255, Control_c, 0, 64, 48
1, 634270, Control_c, 0, 64, 50
1, 634285, Control_c, 0, 64, 54
1, 634300, Control_c, 0, 64, 57
1, 634314, Control_c, 0, 64, 60
1, 634329, Control_c, 0, 64, 61
1, 634344, Control_c, 0, 64, 63
1, 634359, Control_c, 0, 64, 64
1, 634373, Control_c, 0, 64, 66
1, 634388, Control_c, 0, 64, 68
1, 634403, Control_c, 0, 64, 70
1, 634418, Control_c, 0, 64, 73
1, 634433, Control_c, 0, 64, 75
1, 634445, Note_on_c, 0, 58, 47
1, 634448, Control_c, 0, 64, 76
1, 634462, Control_c, 0, 64, 77
1, 634471, Note_off_c, 0, 62, 36
1, 634477, Control_c, 0, 64, 78
1, 634492, Control_c, 0, 64, 80
1, 634507, Control_c, 0, 64, 83
1, 634522, Control_c, 0, 64, 86
1, 634537, Control_c, 0, 64, 90
1, 634540, Note_off_c, 0, 68, 62
1, 634552, Control_c, 0, 64, 95
1, 634566, Control_c, 0, 64, 100
1, 634581, Control_c, 0, 64, 106
1, 634596, Control_c, 0, 64, 114
1, 634611, Control_c, 0, 64, 127
1, 634855, Control_c, 0, 64, 116
1, 634871, Control_c, 0, 64, 105
1, 634886, Control_c, 0, 64, 96
1, 634900, Note_on_c, 0, 82, 73
1, 634901, Control_c, 0, 64, 87
1, 634904, Note_on_c, 0, 52, 43
1, 634916, Control_c, 0, 64, 78
1, 634930, Control_c, 0, 64, 72
1, 634945, Control_c, 0, 64, 68
1, 634960, Control_c, 0, 64, 66
1, 635004, Control_c, 0, 64, 67
1, 635019, Control_c, 0, 64, 68
1, 635034, Control_c, 0, 64, 71
1, 635049, Control_c, 0, 64, 73
1, 635064, Control_c, 0, 64, 76
1, 635078, Control_c, 0, 64, 79
1, 635093, Control_c, 0, 64, 82
1, 635108, Control_c, 0, 64, 85
1, 635122, Control_c, 0, 64, 89
1, 635137, Control_c, 0, 64, 92
1, 635152, Control_c, 0, 64, 94
1, 635167, Control_c, 0, 64, 97
1, 635182, Control_c, 0, 64, 99
1, 635190, Note_off_c, 0, 58, 37
1, 635196, Control_c, 0, 64, 101
1, 635211, Control_c, 0, 64, 103
1, 635241, Control_c, 0, 64, 105
1, 635285, Control_c, 0, 64, 108
1, 635308, Note_on_c, 0, 42, 35
1, 635310, Note_off_c, 0, 52, 38
1, 635404, Control_c, 0, 64, 110
1, 635471, Note_off_c, 0, 42, 47
1, 635634, Control_c, 0, 67, 121
1, 635649, Control_c, 0, 67, 114
1, 635664, Control_c, 0, 67, 109
1, 635679, Control_c, 0, 67, 104
1, 635694, Control_c, 0, 67, 99
1, 635708, Control_c, 0, 67, 96
1, 635714, Note_on_c, 0, 80, 72
1, 635723, Control_c, 0, 67, 93
1, 635738, Control_c, 0, 67, 90
1, 635753, Control_c, 0, 67, 87
1, 635768, Control_c, 0, 67, 85
1, 635783, Control_c, 0, 67, 83
1, 635798, Control_c, 0, 67, 79
1, 635813, Control_c, 0, 67, 75
1, 635827, Control_c, 0, 67, 71
1, 635842, Control_c, 0, 67, 67
1, 635857, Control_c, 0, 67, 63
1, 635872, Control_c, 0, 67, 59
1, 635884, Note_off_c, 0, 82, 33
1, 635887, Control_c, 0, 64, 108
1, 635887, Control_c, 0, 67, 55
1, 635901, Control_c, 0, 67, 49
1, 635916, Control_c, 0, 67, 46
1, 635931, Control_c, 0, 67, 43
1, 635945, Control_c, 0, 67, 41
1, 635960, Control_c, 0, 67, 38
1, 635975, Control_c, 0, 64, 106
1, 635975, Control_c, 0, 67, 36
1, 635990, Control_c, 0, 64, 102
1, 635990, Control_c, 0, 67, 33
1, 636005, Control_c, 0, 64, 91
1, 636005, Control_c, 0, 67, 30
1, 636011, Note_on_c, 0, 42, 44
1, 636016, Note_on_c, 0, 35, 43
1, 636019, Control_c, 0, 64, 80
1, 636019, Control_c, 0, 67, 27
1, 636034, Control_c, 0, 64, 72
1, 636034, Control_c, 0, 67, 22
1, 636049, Control_c, 0, 64, 66
1, 636049, Control_c, 0, 67, 0
1, 636064, Control_c, 0, 64, 63
1, 636079, Control_c, 0, 64, 62
1, 636093, Control_c, 0, 64, 65
1, 636108, Control_c, 0, 64, 72
1, 636124, Control_c, 0, 64, 83
1, 636138, Control_c, 0, 64, 102
1, 636153, Control_c, 0, 64, 127
1, 636213, Note_off_c, 0, 35, 40
1, 636244, Note_off_c, 0, 42, 57
1, 636296, Note_on_c, 0, 75, 65
1, 636303, Note_on_c, 0, 51, 47
1, 636350, Note_off_c, 0, 51, 59
1, 636403, Note_off_c, 0, 80, 57
1, 636609, Note_on_c, 0, 57, 62
1, 637039, Note_on_c, 0, 69, 65
1, 637292, Note_off_c, 0, 57, 29
1, 637490, Note_on_c, 0, 68, 65
1, 637522, Note_off_c, 0, 69, 51
1, 637546, Note_off_c, 0, 68, 62
1, 637607, Note_on_c, 0, 68, 63
1, 638009, Note_on_c, 0, 66, 63
1, 638011, Note_off_c, 0, 68, 49
1, 638069, Note_off_c, 0, 66, 59
1, 638123, Note_on_c, 0, 66, 66
1, 638162, Control_c, 0, 64, 125
1, 638177, Control_c, 0, 64, 122
1, 638251, Control_c, 0, 64, 125
1, 638266, Control_c, 0, 64, 127
1, 638400, Note_off_c, 0, 66, 51
1, 638476, Note_on_c, 0, 65, 70
1, 638529, Note_off_c, 0, 65, 59
1, 638600, Control_c, 0, 64, 92
1, 638615, Control_c, 0, 64, 68
1, 638626, Note_on_c, 0, 77, 66
1, 638630, Control_c, 0, 64, 35
1, 638633, Note_on_c, 0, 65, 67
1, 638645, Control_c, 0, 64, 0
1, 638763, Control_c, 0, 64, 38
1, 638778, Control_c, 0, 64, 44
1, 638793, Control_c, 0, 64, 51
1, 638803, Note_off_c, 0, 75, 54
1, 638808, Control_c, 0, 64, 59
1, 638822, Control_c, 0, 64, 62
1, 638837, Control_c, 0, 64, 64
1, 638852, Control_c, 0, 64, 66
1, 638865, Note_off_c, 0, 65, 63
1, 638868, Control_c, 0, 64, 67
1, 638878, Note_on_c, 0, 63, 65
1, 638883, Control_c, 0, 64, 70
1, 638897, Control_c, 0, 64, 73
1, 638912, Control_c, 0, 64, 77
1, 638927, Control_c, 0, 64, 81
1, 638942, Control_c, 0, 64, 85
1, 638956, Control_c, 0, 64, 88
1, 638971, Control_c, 0, 64, 90
1, 638973, Note_off_c, 0, 63, 63
1, 638986, Control_c, 0, 64, 91
1, 639016, Control_c, 0, 64, 91
1, 639104, Control_c, 0, 64, 90
1, 639119, Control_c, 0, 64, 88
1, 639122, Note_on_c, 0, 78, 77
1, 639134, Control_c, 0, 64, 83
1, 639145, Note_on_c, 0, 63, 48
1, 639149, Control_c, 0, 64, 74
1, 639163, Control_c, 0, 64, 65
1, 639178, Control_c, 0, 64, 56
1, 639193, Control_c, 0, 64, 44
1, 639208, Control_c, 0, 64, 38
1, 639245, Control_c, 0, 64, 40
1, 639260, Control_c, 0, 64, 44
1, 639275, Control_c, 0, 64, 49
1, 639284, Note_off_c, 0, 77, 38
1, 639289, Control_c, 0, 64, 55
1, 639304, Control_c, 0, 64, 60
1, 639319, Control_c, 0, 64, 64
1, 639334, Control_c, 0, 64, 68
1, 639349, Control_c, 0, 64, 73
1, 639363, Control_c, 0, 64, 79
1, 639378, Control_c, 0, 64, 86
1, 639387, Note_on_c, 0, 59, 58
1, 639393, Control_c, 0, 64, 96
1, 639408, Control_c, 0, 64, 127
1, 639486, Note_off_c, 0, 63, 38
1, 639630, Control_c, 0, 64, 91
1, 639645, Control_c, 0, 64, 72
1, 639651, Note_off_c, 0, 59, 24
1, 639657, Note_on_c, 0, 80, 72
1, 639661, Control_c, 0, 64, 61
1, 639662, Note_on_c, 0, 53, 45
1, 639676, Control_c, 0, 64, 56
1, 639691, Control_c, 0, 64, 56
1, 639706, Control_c, 0, 64, 60
1, 639720, Control_c, 0, 64, 65
1, 639735, Note_off_c, 0, 78, 56
1, 639735, Control_c, 0, 64, 70
1, 639750, Control_c, 0, 64, 76
1, 639765, Control_c, 0, 64, 87
1, 639765, Note_off_c, 0, 53, 54
1, 639780, Control_c, 0, 64, 107
1, 639794, Control_c, 0, 64, 127
1, 639856, Note_off_c, 0, 80, 62
1, 639927, Control_c, 0, 67, 20
1, 639942, Control_c, 0, 67, 26
1, 639951, Note_on_c, 0, 47, 45
1, 639957, Control_c, 0, 67, 30
1, 639972, Control_c, 0, 67, 36
1, 639994, Control_c, 0, 67, 46
1, 639998, Note_off_c, 0, 47, 64
1, 640009, Control_c, 0, 67, 57
1, 640024, Control_c, 0, 67, 68
1, 640038, Control_c, 0, 67, 78
1, 640053, Control_c, 0, 67, 89
1, 640068, Control_c, 0, 67, 104
1, 640083, Control_c, 0, 67, 125
1, 640098, Control_c, 0, 67, 127
1, 640231, Control_c, 0, 64, 120
1, 640245, Control_c, 0, 64, 108
1, 640260, Control_c, 0, 64, 101
1, 640275, Control_c, 0, 64, 96
1, 640290, Control_c, 0, 64, 91
1, 640305, Control_c, 0, 64, 87
1, 640320, Control_c, 0, 64, 83
1, 640335, Control_c, 0, 64, 79
1, 640350, Control_c, 0, 64, 75
1, 640365, Control_c, 0, 64, 70
1, 640380, Control_c, 0, 64, 62
1, 640391, Note_on_c, 0, 68, 45
1, 640394, Control_c, 0, 64, 37
1, 640401, Note_on_c, 0, 34, 32
1, 640409, Control_c, 0, 64, 0
1, 640529, Control_c, 0, 64, 49
1, 640543, Control_c, 0, 64, 62
1, 640558, Control_c, 0, 64, 68
1, 640573, Control_c, 0, 64, 77
1, 640578, Note_off_c, 0, 34, 57
1, 640588, Control_c, 0, 64, 94
1, 640603, Control_c, 0, 64, 127
1, 640817, Note_on_c, 0, 53, 29
1, 641079, Note_on_c, 0, 46, 38
1, 641092, Note_on_c, 0, 62, 33
1, 641220, Note_off_c, 0, 53, 40
1, 641245, Note_off_c, 0, 68, 39
1, 641405, Note_on_c, 0, 72, 48
1, 641420, Note_on_c, 0, 52, 35
1, 641519, Note_off_c, 0, 72, 57
1, 641524, Note_on_c, 0, 70, 52
1, 641561, Note_off_c, 0, 62, 41
1, 641609, Note_on_c, 0, 68, 48
1, 641622, Note_off_c, 0, 70, 63
1, 641638, Note_off_c, 0, 68, 58
1, 641654, Control_c, 0, 64, 116
1, 641669, Control_c, 0, 64, 111
1, 641683, Control_c, 0, 64, 107
1, 641698, Control_c, 0, 64, 100
1, 641709, Note_on_c, 0, 68, 60
1, 641713, Control_c, 0, 64, 92
1, 641725, Note_on_c, 0, 61, 37
1, 641728, Control_c, 0, 64, 82
1, 641743, Control_c, 0, 64, 71
1, 641757, Control_c, 0, 64, 60
1, 641772, Control_c, 0, 64, 43
1, 641787, Control_c, 0, 64, 0
1, 641861, Control_c, 0, 64, 30
1, 641876, Control_c, 0, 64, 38
1, 641891, Control_c, 0, 64, 47
1, 641906, Control_c, 0, 64, 52
1, 641921, Control_c, 0, 64, 56
1, 641936, Control_c, 0, 64, 59
1, 641951, Control_c, 0, 64, 60
1, 641965, Control_c, 0, 64, 61
1, 641980, Control_c, 0, 64, 62
1, 641991, Note_on_c, 0, 53, 36
1, 641995, Control_c, 0, 64, 63
1, 642009, Control_c, 0, 64, 64
1, 642024, Control_c, 0, 64, 65
1, 642039, Control_c, 0, 64, 66
1, 642055, Control_c, 0, 64, 67
1, 642076, Note_off_c, 0, 52, 17
1, 642101, Note_off_c, 0, 61, 56
1, 642188, Control_c, 0, 64, 66
1, 642203, Control_c, 0, 64, 66
1, 642218, Control_c, 0, 64, 65
1, 642240, Control_c, 0, 64, 62
1, 642255, Control_c, 0, 64, 57
1, 642261, Note_on_c, 0, 62, 47
1, 642269, Control_c, 0, 64, 50
1, 642284, Control_c, 0, 64, 46
1, 642299, Control_c, 0, 64, 45
1, 642314, Control_c, 0, 64, 48
1, 642329, Control_c, 0, 64, 52
1, 642344, Control_c, 0, 64, 57
1, 642359, Control_c, 0, 64, 61
1, 642374, Control_c, 0, 64, 64
1, 642376, Note_off_c, 0, 68, 35
1, 642388, Control_c, 0, 64, 66
1, 642403, Control_c, 0, 64, 67
1, 642418, Control_c, 0, 64, 68
1, 642432, Control_c, 0, 64, 69
1, 642447, Control_c, 0, 64, 69
1, 642477, Control_c, 0, 64, 70
1, 642522, Note_on_c, 0, 52, 39
1, 642534, Note_on_c, 0, 71, 40
1, 642536, Note_off_c, 0, 53, 32
1, 642620, Note_off_c, 0, 71, 49
1, 642627, Note_on_c, 0, 70, 47
1, 642699, Control_c, 0, 64, 69
1, 642714, Note_on_c, 0, 68, 45
1, 642719, Note_off_c, 0, 70, 62
1, 642729, Control_c, 0, 64, 69
1, 642740, Note_off_c, 0, 68, 60
1, 642743, Control_c, 0, 64, 68
1, 642749, Note_off_c, 0, 62, 42
1, 642758, Control_c, 0, 64, 68
1, 642788, Control_c, 0, 64, 67
1, 642818, Control_c, 0, 64, 66
1, 642832, Control_c, 0, 64, 65
1, 642847, Control_c, 0, 64, 63
1, 642863, Control_c, 0, 64, 61
1, 642866, Note_on_c, 0, 68, 46
1, 642876, Note_on_c, 0, 61, 46
1, 642878, Control_c, 0, 64, 55
1, 642892, Control_c, 0, 64, 47
1, 642907, Control_c, 0, 64, 33
1, 642922, Control_c, 0, 64, 0
1, 643004, Control_c, 0, 64, 30
1, 643018, Control_c, 0, 64, 39
1, 643033, Control_c, 0, 64, 47
1, 643048, Control_c, 0, 64, 53
1, 643062, Control_c, 0, 64, 57
1, 643077, Control_c, 0, 64, 59
1, 643089, Note_off_c, 0, 52, 28
1, 643092, Control_c, 0, 64, 60
1, 643107, Control_c, 0, 64, 61
1, 643122, Control_c, 0, 64, 62
1, 643137, Control_c, 0, 64, 63
1, 643152, Control_c, 0, 64, 63
1, 643161, Note_on_c, 0, 53, 40
1, 643167, Control_c, 0, 64, 64
1, 643182, Control_c, 0, 64, 64
1, 643300, Control_c, 0, 64, 64
1, 643329, Control_c, 0, 64, 63
1, 643374, Control_c, 0, 64, 63
1, 643388, Control_c, 0, 64, 62
1, 643403, Control_c, 0, 64, 60
1, 643410, Note_on_c, 0, 60, 43
1, 643418, Control_c, 0, 64, 57
1, 643433, Control_c, 0, 64, 54
1, 643448, Control_c, 0, 64, 52
1, 643462, Control_c, 0, 64, 51
1, 643477, Control_c, 0, 64, 50
1, 643507, Control_c, 0, 64, 51
1, 643522, Control_c, 0, 64, 51
1, 643536, Control_c, 0, 64, 52
1, 643538, Note_off_c, 0, 61, 42
1, 643551, Control_c, 0, 64, 54
1, 643566, Control_c, 0, 64, 57
1, 643581, Control_c, 0, 64, 59
1, 643596, Control_c, 0, 64, 61
1, 643611, Control_c, 0, 64, 63
1, 643626, Control_c, 0, 64, 65
1, 643641, Control_c, 0, 64, 67
1, 643645, Note_on_c, 0, 52, 47
1, 643656, Control_c, 0, 64, 68
1, 643671, Control_c, 0, 64, 69
1, 643718, Note_off_c, 0, 53, 36
1, 643767, Control_c, 0, 64, 68
1, 643782, Control_c, 0, 64, 67
1, 643797, Control_c, 0, 64, 67
1, 643811, Control_c, 0, 64, 65
1, 643826, Control_c, 0, 64, 64
1, 643841, Control_c, 0, 64, 61
1, 643856, Control_c, 0, 64, 58
1, 643871, Control_c, 0, 64, 53
1, 643885, Control_c, 0, 64, 48
1, 643893, Note_on_c, 0, 59, 46
1, 643900, Control_c, 0, 64, 42
1, 643915, Control_c, 0, 64, 34
1, 643930, Control_c, 0, 64, 0
1, 643989, Control_c, 0, 64, 32
1, 644004, Control_c, 0, 64, 40
1, 644019, Control_c, 0, 64, 47
1, 644034, Control_c, 0, 64, 53
1, 644043, Note_off_c, 0, 60, 47
1, 644049, Control_c, 0, 64, 57
1, 644049, Control_c, 0, 67, 113
1, 644064, Control_c, 0, 64, 61
1, 644064, Control_c, 0, 67, 93
1, 644078, Control_c, 0, 64, 64
1, 644078, Control_c, 0, 67, 76
1, 644093, Control_c, 0, 64, 66
1, 644093, Control_c, 0, 67, 59
1, 644108, Control_c, 0, 64, 69
1, 644108, Control_c, 0, 67, 45
1, 644109, Note_on_c, 0, 51, 51
1, 644123, Control_c, 0, 64, 72
1, 644123, Control_c, 0, 67, 32
1, 644132, Note_off_c, 0, 52, 50
1, 644138, Control_c, 0, 64, 75
1, 644138, Control_c, 0, 67, 21
1, 644152, Control_c, 0, 64, 76
1, 644152, Control_c, 0, 67, 0
1, 644167, Control_c, 0, 64, 78
1, 644182, Control_c, 0, 64, 78
1, 644197, Control_c, 0, 64, 79
1, 644219, Note_off_c, 0, 68, 35
1, 644271, Control_c, 0, 64, 78
1, 644285, Control_c, 0, 64, 78
1, 644300, Control_c, 0, 64, 75
1, 644315, Control_c, 0, 64, 71
1, 644330, Control_c, 0, 64, 65
1, 644340, Note_on_c, 0, 67, 56
1, 644340, Note_off_c, 0, 59, 28
1, 644345, Note_on_c, 0, 58, 42
1, 644345, Control_c, 0, 64, 59
1, 644359, Control_c, 0, 64, 50
1, 644374, Control_c, 0, 64, 39
1, 644389, Control_c, 0, 64, 31
1, 644404, Control_c, 0, 64, 29
1, 644434, Control_c, 0, 64, 32
1, 644449, Control_c, 0, 64, 40
1, 644464, Control_c, 0, 64, 49
1, 644487, Control_c, 0, 64, 58
1, 644502, Control_c, 0, 64, 62
1, 644516, Control_c, 0, 64, 65
1, 644524, Note_off_c, 0, 67, 62
1, 644531, Control_c, 0, 64, 70
1, 644540, Note_off_c, 0, 58, 60
1, 644546, Control_c, 0, 64, 75
1, 644561, Control_c, 0, 64, 83
1, 644563, Note_off_c, 0, 46, 43
1, 644575, Control_c, 0, 64, 94
1, 644576, Note_on_c, 0, 50, 53
1, 644590, Note_off_c, 0, 51, 17
1, 644590, Control_c, 0, 64, 119
1, 644605, Control_c, 0, 64, 127
1, 644827, Control_c, 0, 64, 112
1, 644842, Control_c, 0, 64, 102
1, 644857, Control_c, 0, 64, 94
1, 644872, Control_c, 0, 64, 88
1, 644884, Note_on_c, 0, 67, 55
1, 644887, Control_c, 0, 64, 80
1, 644898, Note_on_c, 0, 41, 41
1, 644901, Note_on_c, 0, 57, 42
1, 644901, Control_c, 0, 64, 73
1, 644916, Control_c, 0, 64, 67
1, 644931, Control_c, 0, 64, 60
1, 644946, Control_c, 0, 64, 52
1, 644961, Control_c, 0, 64, 40
1, 644975, Control_c, 0, 64, 0
1, 645079, Control_c, 0, 64, 33
1, 645094, Control_c, 0, 64, 44
1, 645108, Control_c, 0, 64, 54
1, 645123, Control_c, 0, 64, 60
1, 645138, Control_c, 0, 64, 63
1, 645152, Control_c, 0, 64, 65
1, 645167, Control_c, 0, 64, 67
1, 645182, Control_c, 0, 64, 70
1, 645197, Control_c, 0, 64, 72
1, 645206, Note_on_c, 0, 49, 58
1, 645212, Control_c, 0, 64, 75
1, 645234, Control_c, 0, 64, 77
1, 645249, Control_c, 0, 64, 79
1, 645265, Control_c, 0, 64, 81
1, 645280, Control_c, 0, 64, 83
1, 645295, Control_c, 0, 64, 85
1, 645296, Note_off_c, 0, 50, 37
1, 645310, Control_c, 0, 64, 87
1, 645325, Control_c, 0, 64, 88
1, 645339, Control_c, 0, 64, 89
1, 645354, Control_c, 0, 64, 90
1, 645369, Control_c, 0, 64, 92
1, 645383, Control_c, 0, 64, 92
1, 645398, Control_c, 0, 64, 93
1, 645413, Control_c, 0, 64, 93
1, 645416, Note_off_c, 0, 57, 33
1, 645428, Note_on_c, 0, 65, 62
1, 645436, Note_on_c, 0, 58, 54
1, 645443, Control_c, 0, 64, 94
1, 645444, Note_off_c, 0, 67, 53
1, 645487, Control_c, 0, 64, 94
1, 645499, Note_off_c, 0, 58, 56
1, 645531, Note_off_c, 0, 65, 61
1, 645642, Note_on_c, 0, 50, 69
1, 645680, Control_c, 0, 64, 94
1, 645695, Control_c, 0, 64, 93
1, 645709, Control_c, 0, 64, 92
1, 645724, Control_c, 0, 64, 91
1, 645739, Control_c, 0, 64, 90
1, 645745, Note_off_c, 0, 49, 55
1, 645754, Control_c, 0, 64, 89
1, 645769, Control_c, 0, 64, 88
1, 645783, Control_c, 0, 64, 86
1, 645798, Control_c, 0, 64, 84
1, 645813, Control_c, 0, 64, 81
1, 645828, Control_c, 0, 64, 78
1, 645843, Control_c, 0, 64, 72
1, 645847, Note_on_c, 0, 69, 67
1, 645855, Note_on_c, 0, 59, 56
1, 645858, Control_c, 0, 64, 62
1, 645873, Control_c, 0, 64, 32
1, 645888, Control_c, 0, 64, 0
1, 646013, Control_c, 0, 64, 31
1, 646028, Control_c, 0, 64, 33
1, 646043, Control_c, 0, 64, 39
1, 646059, Control_c, 0, 64, 47
1, 646074, Control_c, 0, 64, 55
1, 646085, Note_on_c, 0, 51, 67
1, 646088, Control_c, 0, 64, 58
1, 646103, Control_c, 0, 64, 59
1, 646118, Control_c, 0, 64, 60
1, 646148, Control_c, 0, 64, 61
1, 646152, Note_off_c, 0, 50, 54
1, 646163, Control_c, 0, 64, 62
1, 646177, Control_c, 0, 64, 62
1, 646192, Control_c, 0, 64, 63
1, 646222, Control_c, 0, 64, 62
1, 646237, Control_c, 0, 64, 61
1, 646252, Control_c, 0, 64, 60
1, 646267, Control_c, 0, 64, 59
1, 646289, Note_off_c, 0, 69, 61
1, 646291, Note_on_c, 0, 67, 65
1, 646294, Note_off_c, 0, 59, 60
1, 646296, Note_on_c, 0, 60, 64
1, 646311, Control_c, 0, 64, 60
1, 646326, Control_c, 0, 64, 61
1, 646341, Control_c, 0, 64, 62
1, 646355, Control_c, 0, 64, 63
1, 646370, Control_c, 0, 64, 64
1, 646385, Control_c, 0, 64, 64
1, 646399, Control_c, 0, 64, 65
1, 646414, Control_c, 0, 64, 65
1, 646493, Note_off_c, 0, 60, 48
1, 646502, Note_on_c, 0, 49, 70
1, 646518, Control_c, 0, 64, 65
1, 646538, Note_off_c, 0, 51, 52
1, 646547, Control_c, 0, 64, 64
1, 646562, Control_c, 0, 64, 63
1, 646577, Control_c, 0, 64, 62
1, 646592, Control_c, 0, 64, 60
1, 646607, Control_c, 0, 64, 56
1, 646622, Control_c, 0, 64, 51
1, 646636, Control_c, 0, 64, 45
1, 646651, Control_c, 0, 64, 34
1, 646666, Control_c, 0, 64, 0
1, 646763, Note_on_c, 0, 58, 69
1, 646852, Control_c, 0, 64, 40
1, 646867, Control_c, 0, 64, 49
1, 646882, Control_c, 0, 64, 57
1, 646897, Control_c, 0, 64, 60
1, 646911, Control_c, 0, 64, 62
1, 646926, Control_c, 0, 64, 64
1, 646941, Control_c, 0, 64, 66
1, 646956, Control_c, 0, 64, 67
1, 646971, Control_c, 0, 64, 69
1, 646985, Control_c, 0, 64, 71
1, 647000, Control_c, 0, 64, 73
1, 647015, Control_c, 0, 64, 74
1, 647030, Control_c, 0, 64, 75
1, 647045, Control_c, 0, 64, 75
1, 647059, Note_on_c, 0, 65, 78
1, 647060, Control_c, 0, 64, 76
1, 647075, Control_c, 0, 64, 76
1, 647084, Note_off_c, 0, 67, 26
1, 647090, Control_c, 0, 64, 77
1, 647104, Control_c, 0, 64, 77
1, 647119, Control_c, 0, 64, 78
1, 647127, Note_off_c, 0, 49, 64
1, 647134, Control_c, 0, 64, 78
1, 647148, Control_c, 0, 64, 79
1, 647171, Note_off_c, 0, 58, 33
1, 647178, Control_c, 0, 64, 80
1, 647282, Control_c, 0, 64, 78
1, 647287, Note_on_c, 0, 57, 76
1, 647296, Control_c, 0, 64, 73
1, 647297, Note_on_c, 0, 50, 63
1, 647311, Control_c, 0, 64, 64
1, 647326, Control_c, 0, 64, 52
1, 647341, Control_c, 0, 64, 37
1, 647355, Control_c, 0, 64, 0
1, 647370, Control_c, 0, 64, 29
1, 647385, Control_c, 0, 64, 37
1, 647400, Control_c, 0, 64, 47
1, 647414, Control_c, 0, 64, 56
1, 647429, Control_c, 0, 64, 61
1, 647444, Control_c, 0, 64, 63
1, 647459, Control_c, 0, 64, 64
1, 647481, Control_c, 0, 64, 65
1, 647520, Note_on_c, 0, 69, 75
1, 647525, Control_c, 0, 64, 66
1, 647540, Control_c, 0, 64, 66
1, 647555, Control_c, 0, 64, 67
1, 647570, Control_c, 0, 64, 68
1, 647584, Control_c, 0, 64, 69
1, 647587, Note_off_c, 0, 65, 33
1, 647611, Note_off_c, 0, 57, 37
1, 647614, Control_c, 0, 64, 69
1, 647629, Control_c, 0, 64, 70
1, 647644, Control_c, 0, 64, 71
1, 647659, Control_c, 0, 64, 71
1, 647763, Control_c, 0, 64, 71
1, 647778, Control_c, 0, 64, 68
1, 647787, Note_on_c, 0, 59, 62
1, 647793, Control_c, 0, 64, 63
1, 647808, Control_c, 0, 64, 55
1, 647823, Control_c, 0, 64, 44
1, 647838, Control_c, 0, 64, 31
1, 647852, Control_c, 0, 64, 0
1, 647882, Control_c, 0, 64, 32
1, 647897, Control_c, 0, 64, 38
1, 647912, Control_c, 0, 64, 45
1, 647926, Control_c, 0, 64, 52
1, 647941, Control_c, 0, 64, 58
1, 647956, Control_c, 0, 64, 61
1, 647970, Control_c, 0, 64, 64
1, 647985, Control_c, 0, 64, 66
1, 648000, Control_c, 0, 64, 67
1, 648015, Control_c, 0, 64, 69
1, 648030, Control_c, 0, 64, 71
1, 648044, Control_c, 0, 64, 71
1, 648052, Note_off_c, 0, 69, 52
1, 648059, Control_c, 0, 64, 72
1, 648076, Note_on_c, 0, 67, 75
1, 648118, Control_c, 0, 64, 70
1, 648133, Control_c, 0, 64, 66
1, 648148, Control_c, 0, 64, 63
1, 648163, Control_c, 0, 64, 60
1, 648193, Control_c, 0, 64, 61
1, 648207, Control_c, 0, 64, 62
1, 648230, Control_c, 0, 64, 65
1, 648245, Control_c, 0, 64, 67
1, 648259, Control_c, 0, 64, 70
1, 648274, Control_c, 0, 64, 73
1, 648289, Control_c, 0, 64, 76
1, 648290, Note_off_c, 0, 59, 54
1, 648304, Control_c, 0, 64, 78
1, 648310, Note_off_c, 0, 50, 60
1, 648318, Control_c, 0, 64, 81
1, 648333, Control_c, 0, 64, 82
1, 648348, Control_c, 0, 64, 83
1, 648404, Note_off_c, 0, 41, 36
1, 648407, Note_on_c, 0, 59, 67
1, 648421, Note_on_c, 0, 42, 49
1, 648429, Note_on_c, 0, 50, 51
1, 648437, Control_c, 0, 64, 81
1, 648453, Control_c, 0, 64, 76
1, 648468, Control_c, 0, 64, 66
1, 648482, Control_c, 0, 64, 56
1, 648497, Control_c, 0, 64, 36
1, 648512, Control_c, 0, 64, 0
1, 648805, Note_on_c, 0, 66, 68
1, 648825, Note_off_c, 0, 67, 56
1, 648860, Note_off_c, 0, 42, 63
1, 648868, Control_c, 0, 64, 53
1, 648883, Control_c, 0, 64, 88
1, 648887, Note_off_c, 0, 50, 63
1, 648898, Control_c, 0, 64, 127
1, 648904, Note_off_c, 0, 59, 57
1, 649015, Note_off_c, 0, 66, 62
1, 649100, Note_on_c, 0, 59, 63
1, 649213, Note_on_c, 0, 62, 63
1, 649298, Note_on_c, 0, 66, 67
1, 649298, Note_off_c, 0, 59, 54
1, 649343, Note_off_c, 0, 62, 60
1, 649377, Note_off_c, 0, 66, 60
1, 649379, Note_on_c, 0, 71, 68
1, 649429, Note_off_c, 0, 71, 63
1, 649432, Note_on_c, 0, 74, 76
1, 649489, Note_off_c, 0, 74, 64
1, 649494, Note_on_c, 0, 78, 73
1, 649536, Note_off_c, 0, 78, 62
1, 649567, Note_on_c, 0, 83, 92
1, 649620, Note_on_c, 0, 86, 75
1, 649632, Note_off_c, 0, 83, 56
1, 649665, Note_on_c, 0, 90, 77
1, 649684, Note_off_c, 0, 86, 63
1, 649710, Note_off_c, 0, 90, 63
1, 649750, Note_on_c, 0, 90, 81
1, 649822, Note_on_c, 0, 91, 83
1, 649823, Note_off_c, 0, 90, 65
1, 649883, Note_on_c, 0, 90, 73
1, 649885, Note_off_c, 0, 91, 64
1, 649921, Note_on_c, 0, 91, 72
1, 649928, Note_off_c, 0, 90, 65
1, 649979, Note_on_c, 0, 90, 60
1, 649982, Note_off_c, 0, 91, 61
1, 650009, Note_on_c, 0, 91, 65
1, 650014, Note_off_c, 0, 90, 63
1, 650043, Note_on_c, 0, 78, 97
1, 650047, Note_on_c, 0, 66, 88
1, 650068, Note_on_c, 0, 90, 74
1, 650073, Note_off_c, 0, 91, 66
1, 650105, Note_off_c, 0, 90, 62
1, 650118, Note_on_c, 0, 91, 73
1, 650121, Note_off_c, 0, 66, 61
1, 650126, Note_off_c, 0, 78, 62
1, 650152, Poly_aftertouch_c, 0, 77, 0
1, 650165, Note_off_c, 0, 91, 63
1, 650166, Note_on_c, 0, 90, 69
1, 650209, Note_on_c, 0, 91, 82
1, 650211, Note_off_c, 0, 90, 60
1, 650264, Note_off_c, 0, 91, 66
1, 650269, Note_on_c, 0, 90, 68
1, 650310, Note_on_c, 0, 91, 82
1, 650320, Note_off_c, 0, 90, 63
1, 650351, Note_on_c, 0, 90, 64
1, 650372, Note_off_c, 0, 91, 64
1, 650417, Note_on_c, 0, 83, 100
1, 650418, Note_on_c, 0, 71, 92
1, 650422, Note_off_c, 0, 90, 63
1, 650425, Note_on_c, 0, 86, 89
1, 650425, Control_c, 0, 64, 112
1, 650440, Control_c, 0, 64, 70
1, 650455, Control_c, 0, 64, 32
1, 650477, Control_c, 0, 64, 0
1, 650495, Note_on_c, 0, 91, 78
1, 650506, Control_c, 0, 64, 40
1, 650521, Control_c, 0, 64, 64
1, 650536, Control_c, 0, 64, 88
1, 650551, Control_c, 0, 64, 127
1, 650559, Note_on_c, 0, 90, 77
1, 650560, Note_off_c, 0, 91, 64
1, 650605, Note_off_c, 0, 83, 58
1, 650612, Note_on_c, 0, 91, 77
1, 650617, Note_off_c, 0, 90, 63
1, 650661, Note_off_c, 0, 71, 61
1, 650662, Note_off_c, 0, 91, 64
1, 650665, Note_on_c, 0, 90, 68
1, 650714, Note_on_c, 0, 91, 76
1, 650717, Note_off_c, 0, 90, 63
1, 650760, Note_on_c, 0, 90, 72
1, 650768, Note_off_c, 0, 91, 64
1, 650810, Note_on_c, 0, 91, 73
1, 650822, Note_off_c, 0, 90, 64
1, 650855, Poly_aftertouch_c, 0, 90, 0
1, 650863, Note_on_c, 0, 90, 69
1, 650868, Note_off_c, 0, 91, 64
1, 650885, Note_on_c, 0, 67, 79
1, 650886, Note_on_c, 0, 79, 82
1, 650912, Note_on_c, 0, 91, 78
1, 650921, Note_off_c, 0, 90, 64
1, 650923, Note_off_c, 0, 86, 56
1, 650926, Note_off_c, 0, 79, 64
1, 650941, Note_off_c, 0, 67, 63
1, 650968, Note_on_c, 0, 90, 68
1, 650994, Note_off_c, 0, 91, 63
1, 651027, Note_on_c, 0, 76, 90
1, 651031, Note_on_c, 0, 64, 90
1, 651034, Note_off_c, 0, 90, 62
1, 651036, Note_on_c, 0, 83, 86
1, 651056, Control_c, 0, 64, 97
1, 651070, Control_c, 0, 64, 58
1, 651085, Control_c, 0, 64, 0
1, 651099, Note_on_c, 0, 91, 74
1, 651130, Control_c, 0, 64, 40
1, 651145, Control_c, 0, 64, 72
1, 651157, Note_on_c, 0, 90, 79
1, 651160, Control_c, 0, 64, 127
1, 651161, Note_off_c, 0, 91, 64
1, 651203, Note_off_c, 0, 76, 59
1, 651209, Note_on_c, 0, 91, 68
1, 651221, Note_off_c, 0, 90, 62
1, 651237, Note_off_c, 0, 64, 60
1, 651271, Note_on_c, 0, 90, 65
1, 651276, Note_off_c, 0, 91, 64
1, 651317, Note_on_c, 0, 91, 72
1, 651323, Note_off_c, 0, 90, 62
1, 651354, Note_on_c, 0, 73, 89
1, 651357, Note_on_c, 0, 61, 85
1, 651364, Note_off_c, 0, 83, 57
1, 651373, Note_on_c, 0, 90, 58
1, 651376, Note_off_c, 0, 91, 63
1, 651409, Note_off_c, 0, 90, 62
1, 651418, Note_on_c, 0, 91, 70
1, 651427, Note_off_c, 0, 61, 58
1, 651459, Note_off_c, 0, 73, 61
1, 651472, Note_on_c, 0, 90, 71
1, 651475, Note_off_c, 0, 91, 65
1, 651519, Note_on_c, 0, 91, 73
1, 651541, Note_off_c, 0, 90, 0
1, 651558, Note_on_c, 0, 90, 58
1, 651591, Note_off_c, 0, 91, 63
1, 651652, Note_on_c, 0, 85, 74
1, 651664, Note_on_c, 0, 78, 99
1, 651665, Note_on_c, 0, 66, 89
1, 651667, Note_off_c, 0, 90, 38
1, 651672, Control_c, 0, 64, 79
1, 651687, Control_c, 0, 64, 59
1, 651696, Note_on_c, 0, 91, 40
1, 651699, Note_on_c, 0, 84, 35
1, 651701, Control_c, 0, 64, 39
1, 651716, Control_c, 0, 64, 49
1, 651731, Control_c, 0, 64, 63
1, 651737, Note_off_c, 0, 84, 50
1, 651745, Note_off_c, 0, 85, 59
1, 651746, Control_c, 0, 64, 80
1, 651761, Control_c, 0, 64, 127
1, 651770, Note_on_c, 0, 90, 71
1, 651774, Note_off_c, 0, 91, 64
1, 651805, Note_off_c, 0, 78, 61
1, 651814, Note_off_c, 0, 66, 58
1, 651820, Note_on_c, 0, 91, 65
1, 651825, Note_off_c, 0, 90, 59
1, 651874, Note_on_c, 0, 90, 65
1, 651881, Note_off_c, 0, 91, 63
1, 651925, Note_on_c, 0, 91, 75
1, 651935, Note_off_c, 0, 90, 62
1, 651978, Poly_aftertouch_c, 0, 90, 0
1, 651987, Note_on_c, 0, 90, 64
1, 651990, Note_off_c, 0, 91, 64
1, 652026, Note_on_c, 0, 91, 79
1, 652042, Note_off_c, 0, 90, 62
1, 652085, Note_on_c, 0, 90, 71
1, 652124, Note_off_c, 0, 91, 61
1, 652126, Note_on_c, 0, 62, 63
1, 652127, Note_on_c, 0, 74, 63
1, 652166, Note_on_c, 0, 88, 95
1, 652187, Note_off_c, 0, 74, 46
1, 652205, Note_off_c, 0, 62, 58
1, 652282, Note_off_c, 0, 90, 61
1, 652330, Control_c, 0, 64, 71
1, 652331, Note_on_c, 0, 59, 74
1, 652345, Control_c, 0, 64, 43
1, 652357, Note_on_c, 0, 90, 100
1, 652360, Control_c, 0, 64, 0
1, 652375, Control_c, 0, 64, 34
1, 652387, Note_off_c, 0, 88, 66
1, 652390, Control_c, 0, 64, 66
1, 652396, Note_on_c, 0, 62, 65
1, 652405, Control_c, 0, 64, 127
1, 652421, Note_off_c, 0, 59, 59
1, 652450, Note_on_c, 0, 66, 72
1, 652480, Note_off_c, 0, 62, 61
1, 652506, Note_off_c, 0, 90, 67
1, 652506, Note_off_c, 0, 66, 62
1, 652513, Note_on_c, 0, 71, 68
1, 652539, Note_off_c, 0, 71, 69
1, 652598, Note_on_c, 0, 74, 64
1, 652617, Note_on_c, 0, 78, 83
1, 652618, Note_on_c, 0, 72, 39
1, 652643, Note_off_c, 0, 74, 61
1, 652650, Note_off_c, 0, 72, 55
1, 652664, Note_off_c, 0, 78, 63
1, 652681, Note_on_c, 0, 83, 74
1, 652723, Note_on_c, 0, 86, 80
1, 652766, Note_on_c, 0, 95, 98
1, 652950, Note_off_c, 0, 95, 61
1, 652953, Note_off_c, 0, 83, 47
1, 652980, Note_off_c, 0, 86, 52
1, 653044, Note_on_c, 0, 57, 73
1, 653049, Control_c, 0, 64, 70
1, 653063, Note_on_c, 0, 93, 87
1, 653064, Note_on_c, 0, 81, 88
1, 653064, Control_c, 0, 64, 46
1, 653073, Note_on_c, 0, 95, 68
1, 653073, Note_off_c, 0, 95, 127
1, 653079, Control_c, 0, 64, 0
1, 653093, Control_c, 0, 64, 42
1, 653108, Control_c, 0, 64, 66
1, 653113, Note_on_c, 0, 62, 60
1, 653123, Control_c, 0, 64, 127
1, 653151, Note_off_c, 0, 57, 60
1, 653171, Note_on_c, 0, 66, 68
1, 653197, Note_off_c, 0, 62, 61
1, 653199, Note_off_c, 0, 81, 62
1, 653205, Note_off_c, 0, 93, 64
1, 653220, Note_on_c, 0, 69, 70
1, 653224, Note_off_c, 0, 66, 61
1, 653260, Note_off_c, 0, 69, 61
1, 653299, Note_on_c, 0, 74, 81
1, 653302, Note_on_c, 0, 79, 77
1, 653332, Note_off_c, 0, 74, 63
1, 653337, Note_on_c, 0, 86, 75
1, 653386, Note_on_c, 0, 91, 96
1, 653416, Note_off_c, 0, 86, 64
1, 653431, Note_off_c, 0, 79, 66
1, 653451, Note_off_c, 0, 91, 62
1, 653636, Control_c, 0, 64, 103
1, 653642, Note_on_c, 0, 55, 83
1, 653651, Control_c, 0, 64, 64
1, 653658, Note_on_c, 0, 90, 93
1, 653661, Note_on_c, 0, 78, 81
1, 653665, Control_c, 0, 64, 34
1, 653680, Control_c, 0, 64, 0
1, 653695, Control_c, 0, 64, 54
1, 653710, Control_c, 0, 64, 79
1, 653725, Control_c, 0, 64, 127
1, 653725, Note_on_c, 0, 59, 66
1, 653772, Note_off_c, 0, 78, 60
1, 653781, Note_off_c, 0, 90, 62
1, 653782, Note_on_c, 0, 62, 72
1, 653785, Note_off_c, 0, 55, 60
1, 653834, Note_off_c, 0, 59, 61
1, 653850, Note_off_c, 0, 62, 63
1, 653853, Note_on_c, 0, 76, 75
1, 653856, Note_on_c, 0, 67, 73
1, 653877, Note_on_c, 0, 83, 70
1, 653909, Note_on_c, 0, 88, 94
1, 653922, Note_off_c, 0, 67, 56
1, 653951, Note_off_c, 0, 83, 64
1, 653956, Note_off_c, 0, 76, 63
1, 653959, Note_on_c, 0, 71, 67
1, 653979, Note_off_c, 0, 88, 65
1, 653985, Note_off_c, 0, 71, 68
1, 654050, Note_on_c, 0, 74, 73
1, 654053, Note_on_c, 0, 86, 92
1, 654121, Note_off_c, 0, 74, 62
1, 654136, Note_off_c, 0, 86, 62
1, 654185, Control_c, 0, 64, 79
1, 654194, Note_on_c, 0, 54, 84
1, 654200, Control_c, 0, 64, 54
1, 654201, Note_on_c, 0, 74, 75
1, 654222, Control_c, 0, 64, 0
1, 654230, Note_on_c, 0, 83, 76
1, 654239, Note_on_c, 0, 86, 88
1, 654252, Control_c, 0, 64, 45
1, 654266, Control_c, 0, 64, 70
1, 654269, Note_on_c, 0, 59, 51
1, 654280, Note_off_c, 0, 74, 63
1, 654281, Control_c, 0, 64, 127
1, 654309, Note_off_c, 0, 83, 61
1, 654322, Note_on_c, 0, 62, 72
1, 654325, Note_off_c, 0, 86, 63
1, 654359, Note_off_c, 0, 54, 59
1, 654383, Note_off_c, 0, 59, 63
1, 654399, Note_on_c, 0, 88, 96
1, 654402, Note_on_c, 0, 76, 73
1, 654405, Note_off_c, 0, 62, 62
1, 654410, Note_on_c, 0, 66, 74
1, 654444, Note_off_c, 0, 76, 62
1, 654463, Note_off_c, 0, 66, 60
1, 654467, Note_off_c, 0, 88, 64
1, 654507, Note_on_c, 0, 71, 77
1, 654536, Note_off_c, 0, 71, 66
1, 654567, Note_on_c, 0, 90, 88
1, 654571, Note_on_c, 0, 78, 79
1, 654627, Note_off_c, 0, 90, 63
1, 654643, Note_off_c, 0, 78, 60
1, 654726, Note_on_c, 0, 76, 78
1, 654760, Note_on_c, 0, 79, 74
1, 654769, Poly_aftertouch_c, 0, 44, 127
1, 654803, Note_off_c, 0, 76, 59
1, 654804, Note_on_c, 0, 84, 75
1, 654814, Control_c, 0, 64, 86
1, 654822, Poly_aftertouch_c, 0, 44, 0
1, 654828, Note_on_c, 0, 36, 91
1, 654829, Control_c, 0, 64, 58
1, 654843, Control_c, 0, 64, 0
1, 654854, Note_on_c, 0, 88, 95
1, 654870, Note_off_c, 0, 79, 63
1, 654873, Control_c, 0, 64, 35
1, 654888, Control_c, 0, 64, 66
1, 654903, Control_c, 0, 64, 127
1, 654904, Note_off_c, 0, 84, 60
1, 654938, Note_off_c, 0, 88, 62
1, 654971, Note_on_c, 0, 43, 71
1, 655016, Note_off_c, 0, 36, 57
1, 655037, Note_on_c, 0, 88, 65
1, 655066, Note_on_c, 0, 52, 64
1, 655067, Note_off_c, 0, 43, 61
1, 655070, Note_off_c, 0, 88, 52
1, 655088, Note_on_c, 0, 90, 75
1, 655113, Note_off_c, 0, 52, 58
1, 655143, Note_off_c, 0, 90, 61
1, 655144, Note_on_c, 0, 36, 73
1, 655154, Note_on_c, 0, 88, 69
1, 655181, Note_off_c, 0, 88, 68
1, 655189, Note_on_c, 0, 90, 63
1, 655219, Note_on_c, 0, 43, 63
1, 655233, Note_off_c, 0, 90, 62
1, 655239, Note_off_c, 0, 36, 59
1, 655254, Note_on_c, 0, 88, 68
1, 655280, Note_off_c, 0, 88, 68
1, 655283, Note_off_c, 0, 43, 62
1, 655293, Note_on_c, 0, 90, 75
1, 655299, Note_on_c, 0, 52, 63
1, 655341, Note_on_c, 0, 88, 81
1, 655344, Note_off_c, 0, 52, 63
1, 655380, Note_off_c, 0, 90, 61
1, 655396, Note_on_c, 0, 55, 70
1, 655408, Note_off_c, 0, 88, 64
1, 655410, Note_on_c, 0, 84, 96
1, 655472, Note_off_c, 0, 55, 62
1, 655489, Note_on_c, 0, 88, 79
1, 655493, Note_on_c, 0, 60, 56
1, 655525, Note_off_c, 0, 88, 61
1, 655544, Note_on_c, 0, 90, 68
1, 655545, Note_off_c, 0, 60, 61
1, 655579, Note_on_c, 0, 52, 73
1, 655584, Note_off_c, 0, 90, 60
1, 655600, Note_on_c, 0, 88, 63
1, 655634, Note_off_c, 0, 88, 66
1, 655644, Note_on_c, 0, 90, 73
1, 655661, Note_on_c, 0, 55, 75
1, 655674, Note_off_c, 0, 52, 56
1, 655690, Note_off_c, 0, 90, 61
1, 655710, Note_on_c, 0, 88, 73
1, 655740, Note_off_c, 0, 88, 63
1, 655753, Note_on_c, 0, 90, 66
1, 655755, Note_on_c, 0, 60, 76
1, 655766, Note_off_c, 0, 84, 42
1, 655778, Note_off_c, 0, 55, 61
1, 655794, Note_off_c, 0, 90, 60
1, 655799, Note_on_c, 0, 88, 71
1, 655828, Note_off_c, 0, 88, 64
1, 655836, Note_off_c, 0, 60, 65
1, 655839, Note_on_c, 0, 64, 70
1, 655844, Note_on_c, 0, 90, 73
1, 655891, Note_on_c, 0, 88, 71
1, 655904, Note_on_c, 0, 55, 79
1, 655907, Note_off_c, 0, 64, 61
1, 655911, Note_off_c, 0, 90, 64
1, 655925, Note_on_c, 0, 84, 92
1, 655926, Note_off_c, 0, 88, 64
1, 655991, Note_on_c, 0, 88, 78
1, 656001, Note_on_c, 0, 60, 72
1, 656020, Note_off_c, 0, 55, 60
1, 656047, Note_off_c, 0, 88, 61
1, 656048, Note_on_c, 0, 90, 74
1, 656080, Note_on_c, 0, 64, 75
1, 656098, Note_on_c, 0, 88, 68
1, 656102, Note_off_c, 0, 90, 63
1, 656104, Note_off_c, 0, 60, 58
1, 656142, Note_on_c, 0, 90, 70
1, 656146, Note_off_c, 0, 88, 64
1, 656152, Note_off_c, 0, 64, 60
1, 656155, Note_on_c, 0, 67, 78
1, 656195, Note_on_c, 0, 88, 65
1, 656201, Note_off_c, 0, 90, 64
1, 656235, Poly_aftertouch_c, 0, 90, 0
1, 656239, Note_on_c, 0, 60, 75
1, 656240, Note_off_c, 0, 88, 63
1, 656241, Note_off_c, 0, 67, 59
1, 656244, Note_on_c, 0, 90, 67
1, 656292, Note_on_c, 0, 88, 69
1, 656292, Note_off_c, 0, 84, 57
1, 656305, Note_off_c, 0, 90, 62
1, 656327, Note_on_c, 0, 64, 73
1, 656342, Note_on_c, 0, 90, 61
1, 656354, Note_off_c, 0, 60, 63
1, 656364, Note_off_c, 0, 88, 0
1, 656378, Note_on_c, 0, 88, 56
1, 656404, Note_on_c, 0, 67, 78
1, 656414, Note_off_c, 0, 90, 62
1, 656424, Note_off_c, 0, 64, 62
1, 656431, Note_on_c, 0, 84, 81
1, 656437, Note_off_c, 0, 88, 66
1, 656493, Note_on_c, 0, 88, 63
1, 656497, Note_off_c, 0, 67, 58
1, 656499, Note_on_c, 0, 72, 82
1, 656538, Note_on_c, 0, 90, 78
1, 656566, Note_off_c, 0, 88, 0
1, 656576, Note_off_c, 0, 72, 60
1, 656582, Note_on_c, 0, 88, 54
1, 656589, Note_on_c, 0, 64, 73
1, 656596, Note_off_c, 0, 90, 64
1, 656635, Note_on_c, 0, 90, 73
1, 656637, Note_off_c, 0, 88, 64
1, 656664, Note_on_c, 0, 67, 71
1, 656692, Note_on_c, 0, 88, 73
1, 656694, Note_off_c, 0, 64, 61
1, 656737, Note_off_c, 0, 90, 62
1, 656754, Note_on_c, 0, 72, 76
1, 656772, Note_off_c, 0, 67, 61
1, 656802, Note_on_c, 0, 86, 92
1, 656837, Note_off_c, 0, 72, 63
1, 656840, Note_off_c, 0, 88, 59
1, 656858, Note_on_c, 0, 76, 74
1, 656956, Control_c, 0, 64, 97
1, 656964, Note_off_c, 0, 76, 54
1, 656971, Control_c, 0, 64, 76
1, 656986, Control_c, 0, 64, 67
1, 656989, Note_on_c, 0, 79, 78
1, 656992, Note_on_c, 0, 88, 98
1, 657001, Control_c, 0, 64, 66
1, 657016, Control_c, 0, 64, 71
1, 657022, Note_off_c, 0, 84, 56
1, 657031, Control_c, 0, 64, 81
1, 657044, Note_off_c, 0, 86, 59
1, 657046, Control_c, 0, 64, 117
1, 657060, Control_c, 0, 64, 127
1, 657102, Note_on_c, 0, 76, 73
1, 657102, Note_off_c, 0, 79, 64
1, 657159, Note_off_c, 0, 88, 65
1, 657187, Note_off_c, 0, 76, 63
1, 657197, Note_on_c, 0, 72, 59
1, 657262, Note_on_c, 0, 79, 76
1, 657273, Note_off_c, 0, 72, 63
1, 657278, Note_on_c, 0, 93, 93
1, 657291, Note_on_c, 0, 84, 75
1, 657301, Poly_aftertouch_c, 0, 71, 0
1, 657343, Note_off_c, 0, 79, 57
1, 657350, Note_on_c, 0, 76, 78
1, 657430, Note_on_c, 0, 72, 69
1, 657432, Note_off_c, 0, 76, 62
1, 657460, Note_off_c, 0, 84, 58
1, 657498, Control_c, 0, 64, 119
1, 657507, Note_on_c, 0, 67, 73
1, 657513, Control_c, 0, 64, 86
1, 657522, Note_off_c, 0, 72, 59
1, 657528, Note_on_c, 0, 91, 93
1, 657528, Control_c, 0, 64, 71
1, 657543, Control_c, 0, 64, 67
1, 657555, Note_on_c, 0, 84, 61
1, 657557, Control_c, 0, 64, 68
1, 657572, Control_c, 0, 64, 72
1, 657585, Note_off_c, 0, 93, 60
1, 657587, Note_on_c, 0, 76, 71
1, 657587, Control_c, 0, 64, 81
1, 657591, Note_off_c, 0, 84, 60
1, 657601, Control_c, 0, 64, 103
1, 657603, Note_off_c, 0, 67, 63
1, 657616, Control_c, 0, 64, 127
1, 657667, Note_on_c, 0, 72, 71
1, 657672, Note_off_c, 0, 76, 60
1, 657752, Note_on_c, 0, 67, 69
1, 657755, Note_off_c, 0, 72, 63
1, 657761, Note_on_c, 0, 90, 91
1, 657788, Note_on_c, 0, 84, 52
1, 657797, Note_off_c, 0, 91, 63
1, 657818, Note_off_c, 0, 84, 65
1, 657822, Note_on_c, 0, 64, 67
1, 657835, Note_off_c, 0, 90, 65
1, 657837, Note_off_c, 0, 67, 62
1, 657902, Note_on_c, 0, 72, 67
1, 657930, Note_off_c, 0, 64, 60
1, 657994, Control_c, 0, 64, 96
1, 658002, Note_on_c, 0, 67, 69
1, 658007, Note_on_c, 0, 88, 97
1, 658007, Note_off_c, 0, 72, 60
1, 658008, Control_c, 0, 64, 76
1, 658023, Control_c, 0, 64, 66
1, 658038, Control_c, 0, 64, 62
1, 658053, Control_c, 0, 64, 65
1, 658068, Control_c, 0, 64, 71
1, 658083, Control_c, 0, 64, 81
1, 658093, Note_on_c, 0, 64, 61
1, 658098, Control_c, 0, 64, 98
1, 658101, Note_off_c, 0, 67, 63
1, 658113, Control_c, 0, 64, 127
1, 658167, Note_on_c, 0, 60, 57
1, 658179, Note_off_c, 0, 64, 61
1, 658217, Note_on_c, 0, 86, 90
1, 658235, Note_on_c, 0, 67, 64
1, 658243, Note_on_c, 0, 79, 61
1, 658250, Note_off_c, 0, 60, 63
1, 658272, Note_off_c, 0, 79, 67
1, 658272, Note_off_c, 0, 88, 58
1, 658320, Note_off_c, 0, 67, 60
1, 658325, Note_on_c, 0, 64, 61
1, 658364, Note_on_c, 0, 84, 91
1, 658396, Note_off_c, 0, 64, 62
1, 658399, Note_off_c, 0, 86, 61
1, 658403, Note_on_c, 0, 60, 61
1, 658470, Note_off_c, 0, 60, 61
1, 658471, Note_on_c, 0, 55, 66
1, 658483, Note_off_c, 0, 84, 64
1, 658496, Note_on_c, 0, 79, 90
1, 658539, Note_on_c, 0, 64, 64
1, 658553, Note_off_c, 0, 55, 61
1, 658577, Note_off_c, 0, 79, 64
1, 658613, Note_on_c, 0, 76, 89
1, 658621, Note_on_c, 0, 60, 68
1, 658626, Note_off_c, 0, 64, 59
1, 658697, Note_on_c, 0, 55, 66
1, 658709, Note_off_c, 0, 60, 62
1, 658725, Note_on_c, 0, 74, 89
1, 658757, Note_off_c, 0, 76, 63
1, 658769, Note_on_c, 0, 52, 57
1, 658840, Note_off_c, 0, 55, 34
1, 658843, Note_on_c, 0, 72, 90
1, 658843, Note_off_c, 0, 74, 60
1, 658856, Note_off_c, 0, 52, 61
1, 658916, Note_off_c, 0, 72, 63
1, 659011, Note_on_c, 0, 42, 86
1, 659013, Note_on_c, 0, 72, 92
1, 659040, Control_c, 0, 64, 73
1, 659055, Control_c, 0, 64, 0
1, 659144, Control_c, 0, 64, 39
1, 659159, Control_c, 0, 64, 62
1, 659174, Control_c, 0, 64, 75
1, 659189, Control_c, 0, 64, 95
1, 659203, Control_c, 0, 64, 127
1, 659231, Note_on_c, 0, 48, 64
1, 659240, Note_on_c, 0, 79, 91
1, 659261, Note_off_c, 0, 42, 56
1, 659305, Note_off_c, 0, 72, 55
1, 659325, Note_off_c, 0, 48, 61
1, 659364, Note_on_c, 0, 52, 68
1, 659371, Note_on_c, 0, 78, 87
1, 659417, Note_off_c, 0, 52, 60
1, 659475, Note_on_c, 0, 76, 86
1, 659484, Note_on_c, 0, 56, 70
1, 659502, Note_off_c, 0, 79, 53
1, 659556, Note_off_c, 0, 78, 51
1, 659559, Note_on_c, 0, 74, 85
1, 659564, Note_off_c, 0, 56, 59
1, 659567, Note_on_c, 0, 59, 57
1, 659626, Note_off_c, 0, 59, 63
1, 659627, Note_off_c, 0, 76, 60
1, 659636, Note_on_c, 0, 72, 84
1, 659638, Note_off_c, 0, 74, 65
1, 659694, Note_off_c, 0, 72, 63
1, 659699, Note_on_c, 0, 62, 35
1, 659734, Note_off_c, 0, 62, 51
1, 659773, Note_on_c, 0, 72, 77
1, 659790, Note_on_c, 0, 69, 68
1, 659803, Note_on_c, 0, 68, 40
1, 659809, Note_off_c, 0, 69, 67
1, 659833, Note_off_c, 0, 68, 54
1, 659845, Note_off_c, 0, 72, 60
1, 659859, Note_on_c, 0, 74, 74
1, 659916, Note_off_c, 0, 74, 60
1, 659919, Note_on_c, 0, 72, 72
1, 659958, Note_off_c, 0, 72, 62
1, 659960, Note_on_c, 0, 74, 60
1, 660004, Note_off_c, 0, 74, 62
1, 660017, Note_on_c, 0, 72, 69
1, 660052, Note_on_c, 0, 74, 76
1, 660057, Note_off_c, 0, 72, 59
1, 660113, Note_on_c, 0, 72, 67
1, 660120, Note_off_c, 0, 74, 65
1, 660182, Note_on_c, 0, 71, 88
1, 660205, Note_off_c, 0, 72, 63
1, 660236, Note_off_c, 0, 71, 66
1, 660338, Note_on_c, 0, 42, 73
1, 660345, Control_c, 0, 64, 87
1, 660359, Control_c, 0, 64, 48
1, 660368, Note_on_c, 0, 71, 86
1, 660374, Control_c, 0, 64, 0
1, 660508, Control_c, 0, 64, 30
1, 660523, Control_c, 0, 64, 83
1, 660538, Note_on_c, 0, 47, 68
1, 660538, Control_c, 0, 64, 127
1, 660570, Note_on_c, 0, 81, 89
1, 660640, Note_off_c, 0, 71, 58
1, 660665, Note_off_c, 0, 42, 49
1, 660671, Note_on_c, 0, 51, 68
1, 660680, Note_off_c, 0, 47, 59
1, 660691, Note_on_c, 0, 79, 89
1, 660729, Note_off_c, 0, 81, 59
1, 660742, Note_off_c, 0, 51, 62
1, 660777, Note_on_c, 0, 78, 81
1, 660778, Note_on_c, 0, 57, 64
1, 660813, Note_off_c, 0, 79, 60
1, 660815, Note_off_c, 0, 57, 63
1, 660864, Note_on_c, 0, 76, 79
1, 660864, Note_off_c, 0, 78, 64
1, 660870, Note_on_c, 0, 59, 56
1, 660957, Note_on_c, 0, 75, 77
1, 660966, Note_off_c, 0, 76, 63
1, 660973, Note_on_c, 0, 63, 76
1, 661094, Control_c, 0, 64, 92
1, 661106, Note_off_c, 0, 75, 62
1, 661108, Control_c, 0, 64, 69
1, 661111, Note_on_c, 0, 69, 89
1, 661119, Note_on_c, 0, 72, 63
1, 661123, Control_c, 0, 64, 54
1, 661138, Control_c, 0, 64, 53
1, 661152, Control_c, 0, 64, 61
1, 661167, Control_c, 0, 64, 70
1, 661182, Control_c, 0, 64, 83
1, 661197, Control_c, 0, 64, 122
1, 661204, Note_on_c, 0, 74, 51
1, 661212, Control_c, 0, 64, 127
1, 661218, Note_off_c, 0, 72, 61
1, 661234, Note_off_c, 0, 69, 59
1, 661276, Note_off_c, 0, 63, 60
1, 661280, Note_off_c, 0, 59, 62
1, 661286, Note_off_c, 0, 74, 62
1, 661302, Note_on_c, 0, 72, 63
1, 661332, Note_off_c, 0, 72, 65
1, 661347, Note_on_c, 0, 74, 57
1, 661400, Note_off_c, 0, 74, 64
1, 661402, Note_on_c, 0, 72, 78
1, 661481, Note_on_c, 0, 71, 83
1, 661511, Note_off_c, 0, 72, 63
1, 661535, Note_off_c, 0, 71, 63
1, 661641, Note_on_c, 0, 41, 60
1, 661643, Control_c, 0, 64, 86
1, 661657, Control_c, 0, 64, 63
1, 661672, Control_c, 0, 64, 0
1, 661687, Note_on_c, 0, 71, 76
1, 661711, Note_on_c, 0, 72, 62
1, 661754, Control_c, 0, 64, 51
1, 661769, Control_c, 0, 64, 66
1, 661783, Control_c, 0, 64, 78
1, 661798, Control_c, 0, 64, 101
1, 661813, Control_c, 0, 64, 127
1, 661821, Note_on_c, 0, 47, 54
1, 661839, Note_off_c, 0, 41, 48
1, 661907, Note_on_c, 0, 83, 92
1, 661928, Note_on_c, 0, 51, 64
1, 661943, Note_off_c, 0, 72, 11
1, 661958, Note_off_c, 0, 71, 36
1, 661978, Note_off_c, 0, 47, 61
1, 662037, Note_off_c, 0, 51, 60
1, 662045, Note_on_c, 0, 56, 58
1, 662065, Note_on_c, 0, 82, 89
1, 662101, Note_off_c, 0, 83, 61
1, 662106, Note_off_c, 0, 56, 59
1, 662180, Note_on_c, 0, 59, 63
1, 662192, Note_on_c, 0, 80, 88
1, 662224, Note_off_c, 0, 59, 61
1, 662232, Note_off_c, 0, 82, 59
1, 662298, Note_on_c, 0, 78, 88
1, 662335, Note_off_c, 0, 80, 57
1, 662397, Note_on_c, 0, 77, 83
1, 662407, Note_off_c, 0, 78, 60
1, 662487, Control_c, 0, 64, 74
1, 662502, Control_c, 0, 64, 34
1, 662510, Note_on_c, 0, 42, 60
1, 662516, Note_off_c, 0, 77, 52
1, 662517, Control_c, 0, 64, 0
1, 662524, Note_on_c, 0, 76, 78
1, 662608, Note_on_c, 0, 48, 58
1, 662650, Note_on_c, 0, 72, 79
1, 662650, Control_c, 0, 64, 48
1, 662665, Control_c, 0, 64, 78
1, 662680, Control_c, 0, 64, 95
1, 662680, Note_on_c, 0, 52, 65
1, 662686, Note_off_c, 0, 76, 62
1, 662695, Control_c, 0, 64, 116
1, 662705, Note_off_c, 0, 42, 38
1, 662724, Note_off_c, 0, 48, 62
1, 662744, Note_off_c, 0, 72, 65
1, 662754, Control_c, 0, 64, 118
1, 662756, Note_off_c, 0, 52, 61
1, 662763, Note_on_c, 0, 69, 77
1, 662769, Control_c, 0, 64, 125
1, 662775, Note_on_c, 0, 57, 59
1, 662784, Control_c, 0, 64, 127
1, 662815, Note_off_c, 0, 57, 59
1, 662858, Note_off_c, 0, 69, 58
1, 662877, Note_on_c, 0, 64, 78
1, 662880, Note_on_c, 0, 60, 63
1, 662916, Note_off_c, 0, 60, 65
1, 663002, Note_on_c, 0, 66, 79
1, 663020, Note_off_c, 0, 64, 60
1, 663130, Note_off_c, 0, 66, 59
1, 663138, Note_on_c, 0, 69, 66
1, 663139, Note_on_c, 0, 71, 65
1, 663166, Note_off_c, 0, 71, 65
1, 663172, Note_off_c, 0, 69, 63
1, 663281, Control_c, 0, 64, 116
1, 663296, Control_c, 0, 64, 105
1, 663310, Note_on_c, 0, 42, 53
1, 663310, Control_c, 0, 64, 93
1, 663318, Note_on_c, 0, 67, 74
1, 663325, Control_c, 0, 64, 70
1, 663340, Control_c, 0, 64, 38
1, 663354, Control_c, 0, 64, 0
1, 663524, Note_on_c, 0, 52, 48
1, 663661, Note_on_c, 0, 58, 57
1, 663756, Control_c, 0, 64, 34
1, 663770, Control_c, 0, 64, 47
1, 663784, Note_off_c, 0, 58, 59
1, 663785, Control_c, 0, 64, 57
1, 663800, Control_c, 0, 64, 60
1, 663807, Note_on_c, 0, 60, 49
1, 663815, Control_c, 0, 64, 62
1, 663830, Control_c, 0, 64, 64
1, 663845, Control_c, 0, 64, 66
1, 663860, Control_c, 0, 64, 68
1, 663875, Control_c, 0, 64, 71
1, 663890, Control_c, 0, 64, 75
1, 663905, Control_c, 0, 64, 80
1, 663917, Note_on_c, 0, 58, 52
1, 663919, Control_c, 0, 64, 87
1, 663934, Control_c, 0, 64, 93
1, 663953, Note_off_c, 0, 60, 47
1, 663956, Control_c, 0, 64, 97
1, 663971, Control_c, 0, 64, 99
1, 664000, Control_c, 0, 64, 102
1, 664030, Control_c, 0, 64, 105
1, 664040, Note_on_c, 0, 60, 41
1, 664049, Note_off_c, 0, 67, 57
1, 664173, Note_off_c, 0, 58, 39
1, 664238, Control_c, 0, 64, 98
1, 664244, Note_on_c, 0, 66, 57
1, 664252, Control_c, 0, 64, 89
1, 664257, Note_on_c, 0, 61, 44
1, 664267, Control_c, 0, 64, 77
1, 664282, Control_c, 0, 64, 64
1, 664294, Note_off_c, 0, 60, 45
1, 664296, Control_c, 0, 64, 36
1, 664311, Control_c, 0, 64, 0
1, 664400, Control_c, 0, 64, 46
1, 664415, Control_c, 0, 64, 62
1, 664431, Control_c, 0, 64, 66
1, 664446, Control_c, 0, 64, 68
1, 664461, Control_c, 0, 64, 70
1, 664467, Note_off_c, 0, 61, 59
1, 664471, Note_on_c, 0, 58, 45
1, 664475, Control_c, 0, 64, 72
1, 664490, Control_c, 0, 64, 74
1, 664505, Control_c, 0, 64, 77
1, 664520, Control_c, 0, 64, 82
1, 664535, Control_c, 0, 64, 85
1, 664549, Control_c, 0, 64, 87
1, 664564, Control_c, 0, 64, 88
1, 664593, Control_c, 0, 64, 88
1, 664613, Note_on_c, 0, 61, 46
1, 664720, Control_c, 0, 64, 88
1, 664734, Control_c, 0, 64, 87
1, 664749, Note_off_c, 0, 58, 25
1, 664749, Control_c, 0, 64, 84
1, 664764, Control_c, 0, 64, 81
1, 664779, Control_c, 0, 64, 76
1, 664794, Control_c, 0, 64, 70
1, 664808, Control_c, 0, 64, 63
1, 664823, Control_c, 0, 64, 51
1, 664831, Note_off_c, 0, 61, 47
1, 664838, Control_c, 0, 64, 35
1, 664844, Note_on_c, 0, 62, 43
1, 664853, Control_c, 0, 64, 0
1, 664957, Control_c, 0, 64, 33
1, 664972, Control_c, 0, 64, 44
1, 664987, Control_c, 0, 64, 53
1, 665001, Control_c, 0, 64, 58
1, 665016, Control_c, 0, 64, 61
1, 665031, Control_c, 0, 64, 62
1, 665046, Note_off_c, 0, 62, 58
1, 665046, Control_c, 0, 64, 62
1, 665061, Control_c, 0, 64, 63
1, 665075, Control_c, 0, 64, 64
1, 665088, Note_on_c, 0, 58, 40
1, 665090, Control_c, 0, 64, 66
1, 665105, Control_c, 0, 64, 68
1, 665119, Control_c, 0, 64, 71
1, 665134, Control_c, 0, 64, 74
1, 665149, Control_c, 0, 64, 77
1, 665164, Control_c, 0, 64, 80
1, 665179, Control_c, 0, 64, 84
1, 665193, Note_off_c, 0, 52, 59
1, 665193, Control_c, 0, 64, 87
1, 665208, Control_c, 0, 64, 91
1, 665224, Control_c, 0, 64, 94
1, 665239, Control_c, 0, 64, 97
1, 665254, Control_c, 0, 64, 99
1, 665284, Control_c, 0, 64, 103
1, 665303, Note_on_c, 0, 62, 44
1, 665313, Control_c, 0, 64, 107
1, 665342, Control_c, 0, 64, 110
1, 665348, Note_off_c, 0, 66, 32
1, 665357, Note_off_c, 0, 58, 31
1, 665368, Note_off_c, 0, 62, 50
1, 665372, Control_c, 0, 64, 112
1, 665392, Note_off_c, 0, 42, 34
1, 665402, Control_c, 0, 64, 114
1, 665557, Control_c, 0, 64, 112
1, 665572, Control_c, 0, 64, 109
1, 665587, Control_c, 0, 64, 107
1, 665602, Control_c, 0, 64, 104
1, 665617, Control_c, 0, 64, 101
1, 665631, Control_c, 0, 64, 98
1, 665646, Control_c, 0, 64, 96
1, 665661, Control_c, 0, 64, 93
1, 665676, Control_c, 0, 64, 90
1, 665691, Control_c, 0, 64, 87
1, 665693, Note_on_c, 0, 66, 57
1, 665697, Note_on_c, 0, 47, 35
1, 665705, Control_c, 0, 64, 83
1, 665720, Control_c, 0, 64, 79
1, 665735, Control_c, 0, 64, 73
1, 665750, Control_c, 0, 64, 67
1, 665765, Control_c, 0, 64, 60
1, 665780, Control_c, 0, 64, 52
1, 665795, Control_c, 0, 64, 44
1, 665810, Control_c, 0, 64, 35
1, 665824, Control_c, 0, 64, 32
1, 665869, Control_c, 0, 64, 32
1, 665884, Control_c, 0, 64, 34
1, 665898, Control_c, 0, 64, 38
1, 665913, Control_c, 0, 64, 44
1, 665928, Control_c, 0, 64, 50
1, 665942, Control_c, 0, 64, 54
1, 665957, Control_c, 0, 64, 57
1, 665972, Control_c, 0, 64, 59
1, 665987, Control_c, 0, 64, 60
1, 666002, Control_c, 0, 64, 62
1, 666018, Control_c, 0, 64, 63
1, 666033, Control_c, 0, 64, 64
1, 666047, Control_c, 0, 64, 66
1, 666062, Control_c, 0, 64, 67
1, 666077, Control_c, 0, 64, 68
1, 666092, Control_c, 0, 64, 69
1, 666107, Control_c, 0, 64, 71
1, 666121, Control_c, 0, 64, 71
1, 666136, Control_c, 0, 64, 72
1, 666151, Control_c, 0, 64, 72
1, 666165, Control_c, 0, 64, 73
1, 666184, Note_on_c, 0, 54, 31
1, 666187, Note_on_c, 0, 63, 24
1, 666203, Control_c, 0, 64, 73
1, 666277, Control_c, 0, 64, 74
1, 666440, Control_c, 0, 64, 73
1, 666469, Control_c, 0, 64, 73
1, 666484, Control_c, 0, 64, 72
1, 666498, Control_c, 0, 64, 71
1, 666513, Control_c, 0, 64, 69
1, 666528, Control_c, 0, 64, 67
1, 666531, Note_on_c, 0, 46, 35
1, 666543, Note_on_c, 0, 62, 29
1, 666543, Control_c, 0, 64, 64
1, 666558, Control_c, 0, 64, 60
1, 666573, Control_c, 0, 64, 58
1, 666584, Note_off_c, 0, 47, 38
1, 666588, Control_c, 0, 64, 57
1, 666610, Note_off_c, 0, 63, 41
1, 666617, Control_c, 0, 64, 58
1, 666632, Control_c, 0, 64, 59
1, 666633, Note_off_c, 0, 54, 34
1, 666647, Control_c, 0, 64, 60
1, 666662, Control_c, 0, 64, 62
1, 666677, Control_c, 0, 64, 63
1, 666691, Control_c, 0, 64, 64
1, 666706, Control_c, 0, 64, 66
1, 666721, Control_c, 0, 64, 67
1, 666736, Control_c, 0, 64, 69
1, 666751, Control_c, 0, 64, 70
1, 666765, Control_c, 0, 64, 72
1, 666780, Control_c, 0, 64, 73
1, 666795, Control_c, 0, 64, 74
1, 666810, Control_c, 0, 64, 76
1, 666826, Control_c, 0, 64, 77
1, 666841, Control_c, 0, 64, 79
1, 666847, Note_off_c, 0, 66, 58
1, 666856, Control_c, 0, 64, 80
1, 666870, Control_c, 0, 64, 82
1, 666885, Control_c, 0, 64, 83
1, 666892, Note_on_c, 0, 54, 40
1, 666900, Control_c, 0, 64, 83
1, 666914, Control_c, 0, 64, 85
1, 666929, Control_c, 0, 64, 86
1, 666951, Control_c, 0, 64, 87
1, 666966, Control_c, 0, 64, 88
1, 666996, Control_c, 0, 64, 89
1, 667038, Note_on_c, 0, 68, 54
1, 667112, Note_on_c, 0, 66, 53
1, 667151, Note_off_c, 0, 68, 36
1, 667159, Control_c, 0, 64, 88
1, 667163, Note_off_c, 0, 66, 57
1, 667174, Control_c, 0, 64, 88
1, 667178, Note_on_c, 0, 64, 53
1, 667189, Control_c, 0, 64, 87
1, 667203, Control_c, 0, 64, 86
1, 667218, Control_c, 0, 64, 84
1, 667223, Note_off_c, 0, 54, 0
1, 667233, Control_c, 0, 64, 81
1, 667245, Note_on_c, 0, 66, 56
1, 667248, Control_c, 0, 64, 75
1, 667255, Note_off_c, 0, 62, 33
1, 667263, Control_c, 0, 64, 68
1, 667267, Note_off_c, 0, 46, 40
1, 667277, Control_c, 0, 64, 60
1, 667278, Note_on_c, 0, 45, 36
1, 667281, Note_off_c, 0, 64, 60
1, 667292, Control_c, 0, 64, 51
1, 667307, Control_c, 0, 64, 38
1, 667321, Control_c, 0, 64, 32
1, 667351, Control_c, 0, 64, 30
1, 667355, Poly_aftertouch_c, 0, 54, 0
1, 667410, Control_c, 0, 64, 35
1, 667425, Control_c, 0, 64, 43
1, 667440, Control_c, 0, 64, 51
1, 667455, Control_c, 0, 64, 56
1, 667470, Control_c, 0, 64, 59
1, 667485, Control_c, 0, 64, 61
1, 667500, Control_c, 0, 64, 62
1, 667514, Control_c, 0, 64, 64
1, 667529, Control_c, 0, 64, 65
1, 667544, Control_c, 0, 64, 67
1, 667559, Control_c, 0, 64, 69
1, 667565, Note_on_c, 0, 61, 43
1, 667574, Control_c, 0, 64, 71
1, 667588, Control_c, 0, 64, 73
1, 667596, Note_on_c, 0, 54, 18
1, 667603, Control_c, 0, 64, 75
1, 667619, Control_c, 0, 64, 77
1, 667634, Control_c, 0, 64, 80
1, 667647, Note_off_c, 0, 45, 49
1, 667649, Control_c, 0, 64, 82
1, 667664, Control_c, 0, 64, 84
1, 667679, Control_c, 0, 64, 86
1, 667700, Control_c, 0, 64, 87
1, 667715, Control_c, 0, 64, 88
1, 667849, Control_c, 0, 64, 87
1, 667863, Control_c, 0, 64, 87
1, 667878, Control_c, 0, 64, 86
1, 667893, Control_c, 0, 64, 83
1, 667896, Note_on_c, 0, 44, 36
1, 667908, Control_c, 0, 64, 77
1, 667909, Note_on_c, 0, 60, 43
1, 667923, Control_c, 0, 64, 70
1, 667938, Control_c, 0, 64, 64
1, 667948, Note_off_c, 0, 54, 38
1, 667952, Control_c, 0, 64, 59
1, 667966, Note_off_c, 0, 61, 36
1, 667967, Control_c, 0, 64, 56
1, 667997, Control_c, 0, 64, 57
1, 668011, Control_c, 0, 64, 60
1, 668026, Control_c, 0, 64, 63
1, 668041, Control_c, 0, 64, 65
1, 668053, Note_off_c, 0, 66, 51
1, 668056, Control_c, 0, 64, 68
1, 668070, Control_c, 0, 64, 72
1, 668085, Control_c, 0, 64, 76
1, 668100, Control_c, 0, 64, 81
1, 668115, Control_c, 0, 64, 85
1, 668130, Control_c, 0, 64, 90
1, 668144, Control_c, 0, 64, 94
1, 668159, Control_c, 0, 64, 97
1, 668189, Control_c, 0, 64, 99
1, 668233, Control_c, 0, 64, 95
1, 668248, Control_c, 0, 64, 88
1, 668260, Note_on_c, 0, 68, 66
1, 668263, Control_c, 0, 64, 79
1, 668269, Note_on_c, 0, 51, 39
1, 668278, Control_c, 0, 64, 72
1, 668293, Control_c, 0, 64, 67
1, 668308, Control_c, 0, 64, 65
1, 668337, Control_c, 0, 64, 66
1, 668352, Control_c, 0, 64, 69
1, 668367, Control_c, 0, 64, 72
1, 668378, Note_off_c, 0, 60, 37
1, 668382, Control_c, 0, 64, 76
1, 668397, Control_c, 0, 64, 83
1, 668412, Control_c, 0, 64, 90
1, 668427, Control_c, 0, 64, 101
1, 668449, Control_c, 0, 64, 125
1, 668464, Control_c, 0, 64, 127
1, 668517, Note_off_c, 0, 68, 54
1, 668662, Note_on_c, 0, 66, 63
1, 668671, Control_c, 0, 64, 109
1, 668677, Note_on_c, 0, 49, 41
1, 668686, Control_c, 0, 64, 90
1, 668701, Control_c, 0, 64, 77
1, 668716, Control_c, 0, 64, 70
1, 668731, Control_c, 0, 64, 66
1, 668746, Control_c, 0, 64, 66
1, 668746, Note_off_c, 0, 51, 41
1, 668775, Control_c, 0, 64, 66
1, 668790, Control_c, 0, 64, 68
1, 668805, Control_c, 0, 64, 71
1, 668820, Control_c, 0, 64, 75
1, 668835, Control_c, 0, 64, 80
1, 668849, Control_c, 0, 64, 86
1, 668864, Control_c, 0, 64, 94
1, 668879, Control_c, 0, 64, 101
1, 668893, Control_c, 0, 64, 107
1, 668908, Control_c, 0, 64, 110
1, 668953, Control_c, 0, 64, 107
1, 668967, Control_c, 0, 64, 96
1, 668979, Note_on_c, 0, 64, 63
1, 668982, Control_c, 0, 64, 82
1, 668995, Note_on_c, 0, 61, 48
1, 668997, Note_on_c, 0, 56, 46
1, 668997, Control_c, 0, 64, 70
1, 669012, Control_c, 0, 64, 64
1, 669027, Control_c, 0, 64, 61
1, 669041, Control_c, 0, 64, 59
1, 669056, Control_c, 0, 64, 60
1, 669071, Control_c, 0, 64, 60
1, 669085, Control_c, 0, 64, 61
1, 669100, Control_c, 0, 64, 63
1, 669115, Control_c, 0, 64, 66
1, 669127, Note_off_c, 0, 49, 32
1, 669130, Control_c, 0, 64, 71
1, 669145, Control_c, 0, 64, 76
1, 669159, Control_c, 0, 64, 81
1, 669174, Control_c, 0, 64, 85
1, 669196, Control_c, 0, 64, 89
1, 669211, Note_off_c, 0, 61, 41
1, 669211, Control_c, 0, 64, 91
1, 669227, Control_c, 0, 64, 92
1, 669271, Control_c, 0, 64, 90
1, 669286, Control_c, 0, 64, 83
1, 669301, Control_c, 0, 64, 70
1, 669315, Control_c, 0, 64, 60
1, 669322, Note_on_c, 0, 63, 61
1, 669329, Note_on_c, 0, 47, 39
1, 669329, Note_off_c, 0, 64, 60
1, 669330, Control_c, 0, 64, 48
1, 669345, Control_c, 0, 64, 36
1, 669346, Note_off_c, 0, 44, 26
1, 669347, Note_off_c, 0, 66, 8
1, 669360, Control_c, 0, 64, 0
1, 669434, Control_c, 0, 64, 35
1, 669449, Control_c, 0, 64, 48
1, 669459, Note_off_c, 0, 56, 34
1, 669464, Control_c, 0, 64, 59
1, 669479, Control_c, 0, 64, 66
1, 669494, Control_c, 0, 64, 71
1, 669509, Control_c, 0, 64, 80
1, 669523, Control_c, 0, 64, 92
1, 669535, Note_off_c, 0, 63, 59
1, 669538, Control_c, 0, 64, 120
1, 669553, Control_c, 0, 64, 127
1, 669641, Control_c, 0, 64, 94
1, 669647, Note_on_c, 0, 61, 65
1, 669650, Note_on_c, 0, 52, 51
1, 669656, Control_c, 0, 64, 74
1, 669671, Control_c, 0, 64, 64
1, 669686, Control_c, 0, 64, 59
1, 669701, Control_c, 0, 64, 60
1, 669715, Control_c, 0, 64, 62
1, 669730, Control_c, 0, 64, 66
1, 669738, Note_off_c, 0, 52, 62
1, 669745, Control_c, 0, 64, 71
1, 669760, Control_c, 0, 64, 81
1, 669770, Note_off_c, 0, 47, 53
1, 669775, Control_c, 0, 64, 98
1, 669787, Note_off_c, 0, 61, 59
1, 669789, Control_c, 0, 64, 127
1, 670078, Note_on_c, 0, 66, 57
1, 670084, Note_on_c, 0, 46, 46
1, 670109, Control_c, 0, 64, 86
1, 670124, Control_c, 0, 64, 67
1, 670138, Control_c, 0, 64, 52
1, 670153, Control_c, 0, 64, 37
1, 670168, Control_c, 0, 64, 34
1, 670212, Control_c, 0, 64, 37
1, 670227, Control_c, 0, 64, 42
1, 670242, Control_c, 0, 64, 50
1, 670257, Control_c, 0, 64, 56
1, 670272, Control_c, 0, 64, 58
1, 670287, Control_c, 0, 64, 59
1, 670332, Control_c, 0, 64, 59
1, 670346, Control_c, 0, 64, 60
1, 670361, Control_c, 0, 64, 61
1, 670435, Control_c, 0, 64, 61
1, 670447, Note_on_c, 0, 61, 39
1, 670479, Control_c, 0, 64, 62
1, 670494, Control_c, 0, 64, 62
1, 670509, Control_c, 0, 64, 63
1, 670524, Control_c, 0, 64, 63
1, 670809, Note_off_c, 0, 46, 33
1, 670885, Note_on_c, 0, 64, 37
1, 670887, Control_c, 0, 64, 63
1, 670902, Control_c, 0, 64, 62
1, 670910, Note_on_c, 0, 58, 26
1, 670913, Note_on_c, 0, 42, 27
1, 670917, Control_c, 0, 64, 60
1, 670920, Note_on_c, 0, 49, 22
1, 670932, Control_c, 0, 64, 57
1, 670947, Control_c, 0, 64, 56
1, 670961, Control_c, 0, 64, 54
1, 670976, Control_c, 0, 64, 53
1, 670980, Note_off_c, 0, 61, 39
1, 670991, Control_c, 0, 64, 50
1, 671006, Control_c, 0, 64, 49
1, 671035, Control_c, 0, 64, 50
1, 671050, Control_c, 0, 64, 51
1, 671065, Control_c, 0, 64, 53
1, 671080, Control_c, 0, 64, 56
1, 671095, Control_c, 0, 64, 59
1, 671110, Control_c, 0, 64, 62
1, 671125, Control_c, 0, 64, 64
1, 671140, Control_c, 0, 64, 65
1, 671154, Control_c, 0, 64, 67
1, 671169, Control_c, 0, 64, 69
1, 671184, Control_c, 0, 64, 72
1, 671199, Control_c, 0, 64, 75
1, 671214, Control_c, 0, 64, 78
1, 671229, Control_c, 0, 64, 79
1, 671413, Note_on_c, 0, 54, 30
1, 671421, Control_c, 0, 64, 79
1, 671534, Note_off_c, 0, 58, 35
1, 671548, Control_c, 0, 64, 79
1, 671562, Control_c, 0, 64, 80
1, 671577, Control_c, 0, 64, 81
1, 671592, Control_c, 0, 64, 83
1, 671607, Control_c, 0, 64, 84
1, 671622, Control_c, 0, 64, 85
1, 671637, Control_c, 0, 64, 86
1, 671652, Control_c, 0, 64, 87
1, 671667, Control_c, 0, 64, 88
1, 671671, Note_off_c, 0, 64, 36
1, 671679, Note_off_c, 0, 49, 41
1, 671682, Control_c, 0, 64, 88
1, 671697, Control_c, 0, 64, 89
1, 671711, Control_c, 0, 64, 89
1, 671720, Note_off_c, 0, 42, 43
1, 671756, Control_c, 0, 64, 90
1, 671820, Note_off_c, 0, 54, 41
1, 671874, Control_c, 0, 64, 89
1, 671903, Control_c, 0, 64, 89
1, 671933, Control_c, 0, 64, 88
1, 671948, Control_c, 0, 64, 86
1, 671963, Control_c, 0, 64, 81
1, 671978, Control_c, 0, 64, 74
1, 671992, Control_c, 0, 64, 64
1, 672007, Control_c, 0, 64, 56
1, 672022, Control_c, 0, 64, 49
1, 672037, Control_c, 0, 64, 43
1, 672052, Control_c, 0, 64, 35
1, 672067, Control_c, 0, 64, 0
1, 672126, Control_c, 0, 64, 30
1, 672141, Control_c, 0, 64, 36
1, 672141, Control_c, 0, 67, 19
1, 672156, Control_c, 0, 64, 41
1, 672156, Control_c, 0, 67, 22
1, 672171, Control_c, 0, 64, 45
1, 672171, Control_c, 0, 67, 25
1, 672192, Control_c, 0, 64, 51
1, 672192, Control_c, 0, 67, 29
1, 672207, Control_c, 0, 64, 56
1, 672207, Control_c, 0, 67, 36
1, 672222, Control_c, 0, 64, 59
1, 672222, Control_c, 0, 67, 45
1, 672236, Control_c, 0, 64, 61
1, 672236, Control_c, 0, 67, 56
1, 672251, Control_c, 0, 64, 62
1, 672251, Control_c, 0, 67, 69
1, 672266, Control_c, 0, 64, 64
1, 672266, Control_c, 0, 67, 83
1, 672281, Control_c, 0, 64, 65
1, 672281, Control_c, 0, 67, 96
1, 672296, Control_c, 0, 64, 68
1, 672296, Control_c, 0, 67, 110
1, 672311, Control_c, 0, 64, 72
1, 672311, Control_c, 0, 67, 120
1, 672326, Control_c, 0, 64, 77
1, 672326, Control_c, 0, 67, 127
1, 672341, Control_c, 0, 64, 82
1, 672356, Control_c, 0, 64, 86
1, 672371, Control_c, 0, 64, 92
1, 672385, Control_c, 0, 64, 103
1, 672400, Control_c, 0, 64, 127
1, 672498, Note_off_c, 0, 66, 55
1, 672761, Note_on_c, 0, 23, 27
1, 672982, Note_off_c, 0, 23, 40
1, 673329, Note_on_c, 0, 42, 35
1, 673335, Note_on_c, 0, 82, 61
1, 673472, Note_off_c, 0, 42, 35
1, 673694, Note_on_c, 0, 51, 24
1, 673969, Note_off_c, 0, 51, 42
1, 674015, Note_on_c, 0, 59, 36
1, 674189, Note_off_c, 0, 59, 31
1, 674247, Note_on_c, 0, 62, 39
1, 674406, Note_on_c, 0, 63, 40
1, 674448, Note_off_c, 0, 62, 35
1, 674530, Note_off_c, 0, 63, 61
1, 674555, Note_on_c, 0, 66, 43
1, 674649, Note_off_c, 0, 66, 56
1, 674705, Note_on_c, 0, 87, 64
1, 674711, Note_on_c, 0, 71, 41
1, 674886, Note_off_c, 0, 71, 36
1, 674900, Note_on_c, 0, 74, 47
1, 674911, Note_off_c, 0, 82, 20
1, 675059, Note_off_c, 0, 74, 53
1, 675098, Note_on_c, 0, 75, 46
1, 675136, Note_off_c, 0, 75, 63
1, 675188, Control_c, 0, 67, 121
1, 675202, Control_c, 0, 67, 111
1, 675217, Control_c, 0, 67, 101
1, 675232, Control_c, 0, 67, 92
1, 675247, Control_c, 0, 67, 83
1, 675262, Control_c, 0, 67, 77
1, 675277, Control_c, 0, 67, 72
1, 675292, Control_c, 0, 67, 67
1, 675307, Control_c, 0, 67, 64
1, 675322, Control_c, 0, 67, 61
1, 675336, Control_c, 0, 67, 59
1, 675351, Control_c, 0, 67, 56
1, 675366, Control_c, 0, 67, 53
1, 675380, Control_c, 0, 67, 51
1, 675395, Control_c, 0, 67, 49
1, 675410, Control_c, 0, 67, 47
1, 675425, Control_c, 0, 67, 46
1, 675431, Note_on_c, 0, 80, 65
1, 675440, Control_c, 0, 67, 45
1, 675454, Control_c, 0, 67, 45
1, 675469, Control_c, 0, 67, 44
1, 675484, Control_c, 0, 67, 44
1, 675504, Note_off_c, 0, 87, 36
1, 675543, Control_c, 0, 64, 122
1, 675558, Control_c, 0, 64, 112
1, 675572, Control_c, 0, 64, 107
1, 675587, Control_c, 0, 64, 100
1, 675603, Control_c, 0, 64, 92
1, 675618, Control_c, 0, 64, 80
1, 675633, Control_c, 0, 64, 67
1, 675648, Control_c, 0, 64, 51
1, 675648, Control_c, 0, 67, 43
1, 675663, Control_c, 0, 64, 0
1, 675663, Control_c, 0, 67, 43
1, 675675, Note_on_c, 0, 40, 38
1, 675677, Control_c, 0, 67, 42
1, 675692, Note_on_c, 0, 47, 21
1, 675692, Control_c, 0, 67, 41
1, 675707, Control_c, 0, 64, 34
1, 675707, Control_c, 0, 67, 33
1, 675722, Control_c, 0, 64, 56
1, 675722, Control_c, 0, 67, 23
1, 675737, Control_c, 0, 64, 71
1, 675737, Control_c, 0, 67, 0
1, 675751, Control_c, 0, 64, 89
1, 675766, Control_c, 0, 64, 127
1, 675788, Note_off_c, 0, 40, 53
1, 675862, Note_off_c, 0, 47, 49
1, 675909, Note_on_c, 0, 51, 45
1, 675959, Note_off_c, 0, 51, 62
1, 676055, Note_on_c, 0, 56, 54
1, 676188, Note_off_c, 0, 56, 57
1, 676200, Note_on_c, 0, 61, 55
1, 676290, Note_off_c, 0, 61, 58
1, 676332, Note_on_c, 0, 64, 51
1, 676383, Note_off_c, 0, 64, 54
1, 676487, Note_on_c, 0, 85, 74
1, 676498, Note_on_c, 0, 49, 48
1, 676500, Control_c, 0, 64, 104
1, 676515, Control_c, 0, 64, 76
1, 676530, Control_c, 0, 64, 60
1, 676537, Note_off_c, 0, 80, 47
1, 676545, Control_c, 0, 64, 37
1, 676560, Control_c, 0, 64, 0
1, 676633, Control_c, 0, 64, 43
1, 676648, Control_c, 0, 64, 57
1, 676663, Control_c, 0, 64, 66
1, 676671, Note_on_c, 0, 59, 41
1, 676686, Control_c, 0, 64, 75
1, 676701, Control_c, 0, 64, 86
1, 676715, Control_c, 0, 64, 106
1, 676717, Note_off_c, 0, 49, 52
1, 676730, Control_c, 0, 64, 127
1, 676845, Note_off_c, 0, 85, 54
1, 676982, Note_on_c, 0, 68, 48
1, 677356, Note_on_c, 0, 83, 61
1, 677490, Note_off_c, 0, 83, 62
1, 677638, Note_on_c, 0, 85, 62
1, 677720, Note_off_c, 0, 85, 55
1, 677787, Note_on_c, 0, 83, 59
1, 677894, Note_on_c, 0, 80, 60
1, 677904, Note_off_c, 0, 83, 36
1, 678052, Note_off_c, 0, 80, 47
1, 678055, Note_on_c, 0, 76, 49
1, 678163, Note_off_c, 0, 76, 60
1, 678311, Note_off_c, 0, 68, 36
1, 678347, Note_off_c, 0, 59, 39
1, 678509, Control_c, 0, 64, 118
1, 678523, Control_c, 0, 64, 114
1, 678538, Control_c, 0, 64, 110
1, 678553, Control_c, 0, 64, 108
1, 678568, Control_c, 0, 64, 106
1, 678598, Control_c, 0, 64, 103
1, 678628, Control_c, 0, 64, 100
1, 678657, Control_c, 0, 64, 98
1, 678672, Control_c, 0, 64, 96
1, 678687, Control_c, 0, 64, 95
1, 678702, Control_c, 0, 64, 93
1, 678717, Control_c, 0, 64, 92
1, 678731, Control_c, 0, 64, 90
1, 678746, Control_c, 0, 64, 89
1, 678761, Control_c, 0, 64, 87
1, 678776, Control_c, 0, 64, 86
1, 678791, Control_c, 0, 64, 84
1, 678806, Control_c, 0, 64, 81
1, 678821, Control_c, 0, 64, 79
1, 678836, Control_c, 0, 64, 76
1, 678851, Control_c, 0, 64, 74
1, 678866, Control_c, 0, 64, 69
1, 678881, Control_c, 0, 64, 64
1, 678895, Control_c, 0, 64, 58
1, 678910, Control_c, 0, 64, 52
1, 678932, Control_c, 0, 64, 49
1, 678947, Control_c, 0, 64, 48
1, 678961, Control_c, 0, 64, 46
1, 678976, Control_c, 0, 64, 44
1, 678991, Control_c, 0, 64, 42
1, 679006, Control_c, 0, 64, 40
1, 679021, Control_c, 0, 64, 39
1, 679096, Control_c, 0, 64, 40
1, 679110, Control_c, 0, 64, 40
1, 679125, Control_c, 0, 64, 41
1, 679140, Control_c, 0, 64, 42
1, 679154, Control_c, 0, 64, 43
1, 679169, Control_c, 0, 64, 44
1, 679184, Control_c, 0, 64, 45
1, 679199, Control_c, 0, 64, 47
1, 679214, Control_c, 0, 64, 48
1, 679228, Control_c, 0, 64, 50
1, 679243, Control_c, 0, 64, 51
1, 679258, Control_c, 0, 64, 52
1, 679273, Control_c, 0, 64, 54
1, 679288, Control_c, 0, 64, 56
1, 679302, Control_c, 0, 64, 57
1, 679317, Control_c, 0, 64, 58
1, 679332, Control_c, 0, 64, 59
1, 679346, Control_c, 0, 64, 60
1, 679361, Control_c, 0, 64, 62
1, 679376, Control_c, 0, 64, 63
1, 679391, Control_c, 0, 64, 64
1, 679406, Control_c, 0, 64, 66
1, 679420, Control_c, 0, 64, 67
1, 679433, Note_on_c, 0, 64, 69
1, 679435, Control_c, 0, 64, 69
1, 679447, Note_on_c, 0, 61, 59
1, 679450, Note_on_c, 0, 59, 44
1, 679450, Control_c, 0, 64, 71
1, 679460, Note_on_c, 0, 56, 51
1, 679465, Control_c, 0, 64, 73
1, 679480, Control_c, 0, 64, 75
1, 679495, Control_c, 0, 64, 78
1, 679510, Control_c, 0, 64, 81
1, 679525, Control_c, 0, 64, 84
1, 679540, Control_c, 0, 64, 89
1, 679555, Control_c, 0, 64, 95
1, 679570, Control_c, 0, 64, 106
1, 679584, Control_c, 0, 64, 127
1, 680050, Note_off_c, 0, 59, 34
1, 680078, Note_off_c, 0, 64, 39
1, 680079, Note_off_c, 0, 56, 41
1, 680121, Note_off_c, 0, 61, 35
1, 680574, Note_on_c, 0, 66, 73
1, 680586, Note_on_c, 0, 59, 56
1, 680591, Note_on_c, 0, 63, 58
1, 680595, Note_on_c, 0, 58, 52
1, 680608, Control_c, 0, 64, 91
1, 680623, Control_c, 0, 64, 71
1, 680638, Control_c, 0, 64, 59
1, 680653, Control_c, 0, 64, 44
1, 680668, Control_c, 0, 64, 39
1, 680682, Control_c, 0, 64, 44
1, 680697, Control_c, 0, 64, 53
1, 680712, Control_c, 0, 64, 61
1, 680726, Control_c, 0, 64, 68
1, 680731, Note_off_c, 0, 59, 59
1, 680741, Control_c, 0, 64, 77
1, 680754, Note_off_c, 0, 63, 60
1, 680756, Control_c, 0, 64, 93
1, 680765, Note_off_c, 0, 58, 59
1, 680771, Control_c, 0, 64, 127
1, 680877, Note_off_c, 0, 66, 52
1, 680997, Note_on_c, 0, 68, 81
1, 681008, Control_c, 0, 64, 102
1, 681015, Note_on_c, 0, 59, 61
1, 681017, Note_on_c, 0, 64, 60
1, 681021, Note_on_c, 0, 61, 58
1, 681023, Control_c, 0, 64, 77
1, 681038, Control_c, 0, 64, 64
1, 681052, Control_c, 0, 64, 56
1, 681066, Control_c, 0, 64, 57
1, 681081, Control_c, 0, 64, 63
1, 681096, Control_c, 0, 64, 72
1, 681111, Control_c, 0, 64, 89
1, 681126, Control_c, 0, 64, 127
1, 681203, Note_off_c, 0, 68, 57
1, 681215, Note_off_c, 0, 64, 49
1, 681227, Note_off_c, 0, 59, 45
1, 681245, Note_off_c, 0, 61, 36
1, 681322, Note_on_c, 0, 68, 85
1, 681335, Note_on_c, 0, 64, 73
1, 681343, Note_on_c, 0, 59, 63
1, 681344, Note_on_c, 0, 61, 71
1, 681356, Control_c, 0, 64, 97
1, 681371, Control_c, 0, 64, 73
1, 681386, Control_c, 0, 64, 59
1, 681401, Control_c, 0, 64, 39
1, 681416, Control_c, 0, 64, 0
1, 681460, Control_c, 0, 64, 31
1, 681475, Control_c, 0, 64, 42
1, 681490, Control_c, 0, 64, 52
1, 681504, Control_c, 0, 64, 58
1, 681519, Control_c, 0, 64, 62
1, 681534, Control_c, 0, 64, 64
1, 681549, Control_c, 0, 64, 66
1, 681564, Control_c, 0, 64, 69
1, 681579, Control_c, 0, 64, 73
1, 681594, Control_c, 0, 64, 78
1, 681608, Control_c, 0, 64, 84
1, 681623, Control_c, 0, 64, 94
1, 681638, Control_c, 0, 64, 108
1, 681653, Control_c, 0, 64, 127
1, 682060, Note_on_c, 0, 88, 95
1, 682070, Note_on_c, 0, 76, 78
1, 682076, Control_c, 0, 64, 92
1, 682091, Control_c, 0, 64, 71
1, 682106, Control_c, 0, 64, 51
1, 682121, Control_c, 0, 64, 0
1, 682195, Control_c, 0, 64, 38
1, 682210, Control_c, 0, 64, 59
1, 682225, Control_c, 0, 64, 72
1, 682240, Control_c, 0, 64, 87
1, 682254, Control_c, 0, 64, 127
1, 682307, Note_off_c, 0, 64, 54
1, 682310, Note_off_c, 0, 68, 61
1, 682328, Note_off_c, 0, 59, 57
1, 682360, Note_off_c, 0, 61, 57
1, 682780, Control_c, 0, 64, 94
1, 682795, Control_c, 0, 64, 75
1, 682810, Control_c, 0, 64, 63
1, 682825, Control_c, 0, 64, 53
1, 682840, Control_c, 0, 64, 51
1, 682842, Note_on_c, 0, 49, 36
1, 682844, Note_on_c, 0, 42, 34
1, 682855, Control_c, 0, 64, 61
1, 682869, Control_c, 0, 64, 72
1, 682884, Control_c, 0, 64, 105
1, 682899, Control_c, 0, 64, 127
1, 682934, Note_off_c, 0, 42, 53
1, 682986, Note_off_c, 0, 49, 36
1, 683017, Note_off_c, 0, 88, 58
1, 683018, Control_c, 0, 67, 19
1, 683033, Control_c, 0, 67, 25
1, 683042, Note_off_c, 0, 76, 49
1, 683048, Control_c, 0, 67, 32
1, 683062, Control_c, 0, 67, 44
1, 683077, Control_c, 0, 67, 60
1, 683092, Control_c, 0, 67, 80
1, 683107, Control_c, 0, 67, 97
1, 683121, Control_c, 0, 67, 114
1, 683136, Control_c, 0, 67, 127
1, 683369, Note_on_c, 0, 87, 72
1, 683400, Note_on_c, 0, 75, 34
1, 683671, Note_on_c, 0, 64, 32
1, 683680, Note_off_c, 0, 75, 50
1, 683681, Note_on_c, 0, 68, 40
1, 683683, Note_on_c, 0, 58, 35
1, 683691, Control_c, 0, 64, 95
1, 683706, Control_c, 0, 64, 78
1, 683721, Control_c, 0, 64, 69
1, 683736, Control_c, 0, 64, 66
1, 683750, Control_c, 0, 64, 67
1, 683765, Control_c, 0, 64, 69
1, 683780, Control_c, 0, 64, 73
1, 683795, Control_c, 0, 64, 77
1, 683797, Note_on_c, 0, 85, 75
1, 683810, Control_c, 0, 64, 83
1, 683824, Control_c, 0, 64, 90
1, 683826, Note_on_c, 0, 73, 42
1, 683839, Control_c, 0, 64, 97
1, 683854, Control_c, 0, 64, 107
1, 683856, Note_off_c, 0, 87, 53
1, 683869, Control_c, 0, 64, 116
1, 683880, Note_off_c, 0, 73, 45
1, 683884, Control_c, 0, 64, 127
1, 683912, Note_off_c, 0, 85, 62
1, 684047, Control_c, 0, 64, 115
1, 684062, Control_c, 0, 64, 97
1, 684077, Control_c, 0, 64, 83
1, 684092, Control_c, 0, 64, 72
1, 684097, Note_on_c, 0, 84, 74
1, 684106, Control_c, 0, 64, 65
1, 684107, Note_on_c, 0, 72, 58
1, 684121, Control_c, 0, 64, 60
1, 684136, Control_c, 0, 64, 59
1, 684151, Control_c, 0, 64, 61
1, 684173, Control_c, 0, 64, 63
1, 684188, Control_c, 0, 64, 66
1, 684203, Control_c, 0, 64, 70
1, 684217, Control_c, 0, 64, 74
1, 684232, Control_c, 0, 64, 80
1, 684244, Note_off_c, 0, 72, 35
1, 684247, Control_c, 0, 64, 86
1, 684262, Control_c, 0, 64, 96
1, 684270, Note_off_c, 0, 84, 61
1, 684276, Control_c, 0, 64, 108
1, 684291, Control_c, 0, 64, 127
1, 684381, Control_c, 0, 64, 102
1, 684396, Control_c, 0, 64, 82
1, 684411, Control_c, 0, 64, 70
1, 684422, Note_on_c, 0, 87, 69
1, 684426, Control_c, 0, 64, 63
1, 684440, Control_c, 0, 64, 58
1, 684446, Note_on_c, 0, 75, 39
1, 684470, Control_c, 0, 64, 61
1, 684485, Control_c, 0, 64, 64
1, 684500, Control_c, 0, 64, 69
1, 684515, Control_c, 0, 64, 74
1, 684530, Control_c, 0, 64, 80
1, 684545, Control_c, 0, 64, 87
1, 684560, Control_c, 0, 64, 95
1, 684574, Control_c, 0, 64, 106
1, 684589, Control_c, 0, 64, 127
1, 684619, Control_c, 0, 64, 114
1, 684634, Control_c, 0, 64, 92
1, 684635, Note_off_c, 0, 75, 56
1, 684648, Control_c, 0, 64, 75
1, 684663, Control_c, 0, 64, 70
1, 684678, Control_c, 0, 64, 70
1, 684692, Control_c, 0, 64, 75
1, 684707, Control_c, 0, 64, 81
1, 684707, Control_c, 0, 67, 125
1, 684722, Control_c, 0, 64, 94
1, 684737, Control_c, 0, 64, 125
1, 684737, Control_c, 0, 67, 122
1, 684752, Control_c, 0, 64, 127
1, 684766, Control_c, 0, 67, 119
1, 684778, Note_off_c, 0, 58, 58
1, 684781, Control_c, 0, 67, 113
1, 684790, Note_on_c, 0, 85, 61
1, 684796, Control_c, 0, 67, 105
1, 684801, Note_off_c, 0, 64, 40
1, 684811, Control_c, 0, 67, 96
1, 684816, Note_on_c, 0, 73, 21
1, 684826, Note_off_c, 0, 68, 58
1, 684826, Control_c, 0, 67, 84
1, 684831, Note_off_c, 0, 87, 46
1, 684840, Control_c, 0, 67, 73
1, 684855, Control_c, 0, 67, 64
1, 684857, Note_off_c, 0, 73, 52
1, 684870, Control_c, 0, 67, 56
1, 684883, Note_off_c, 0, 85, 63
1, 684884, Control_c, 0, 67, 50
1, 684899, Control_c, 0, 67, 45
1, 684922, Control_c, 0, 67, 40
1, 684937, Control_c, 0, 67, 34
1, 684952, Control_c, 0, 67, 31
1, 684966, Control_c, 0, 67, 29
1, 685039, Note_on_c, 0, 60, 37
1, 685107, Note_on_c, 0, 63, 28
1, 685122, Note_on_c, 0, 65, 42
1, 685189, Note_on_c, 0, 69, 38
1, 685189, Control_c, 0, 64, 115
1, 685204, Control_c, 0, 64, 110
1, 685219, Control_c, 0, 64, 105
1, 685234, Control_c, 0, 64, 102
1, 685242, Note_on_c, 0, 77, 37
1, 685249, Control_c, 0, 64, 98
1, 685263, Control_c, 0, 64, 96
1, 685278, Control_c, 0, 64, 94
1, 685293, Control_c, 0, 64, 92
1, 685308, Control_c, 0, 64, 91
1, 685323, Control_c, 0, 64, 89
1, 685338, Control_c, 0, 64, 88
1, 685352, Control_c, 0, 64, 85
1, 685367, Control_c, 0, 64, 81
1, 685382, Control_c, 0, 64, 74
1, 685397, Control_c, 0, 64, 67
1, 685412, Control_c, 0, 64, 59
1, 685427, Control_c, 0, 64, 51
1, 685442, Control_c, 0, 64, 44
1, 685445, Note_on_c, 0, 92, 69
1, 685457, Control_c, 0, 64, 43
1, 685471, Control_c, 0, 64, 47
1, 685486, Control_c, 0, 64, 53
1, 685486, Control_c, 0, 67, 31
1, 685501, Control_c, 0, 64, 60
1, 685501, Control_c, 0, 67, 33
1, 685515, Control_c, 0, 64, 65
1, 685515, Control_c, 0, 67, 36
1, 685530, Control_c, 0, 64, 69
1, 685530, Control_c, 0, 67, 38
1, 685545, Control_c, 0, 64, 78
1, 685545, Control_c, 0, 67, 39
1, 685560, Control_c, 0, 64, 87
1, 685560, Control_c, 0, 67, 41
1, 685575, Control_c, 0, 64, 97
1, 685575, Control_c, 0, 67, 44
1, 685589, Control_c, 0, 64, 109
1, 685589, Control_c, 0, 67, 52
1, 685604, Control_c, 0, 64, 127
1, 685604, Control_c, 0, 67, 66
1, 685619, Control_c, 0, 67, 84
1, 685633, Control_c, 0, 67, 103
1, 685648, Control_c, 0, 67, 116
1, 685665, Note_off_c, 0, 77, 42
1, 685671, Control_c, 0, 67, 126
1, 685688, Note_off_c, 0, 65, 41
1, 685746, Note_off_c, 0, 69, 35
1, 685905, Note_on_c, 0, 78, 46
1, 685947, Note_on_c, 0, 66, 5
1, 686008, Note_off_c, 0, 78, 60
1, 686059, Note_off_c, 0, 66, 37
1, 686182, Note_on_c, 0, 80, 55
1, 686185, Note_on_c, 0, 68, 44
1, 686233, Note_off_c, 0, 68, 48
1, 686277, Note_off_c, 0, 80, 54
1, 686391, Note_on_c, 0, 78, 56
1, 686409, Note_on_c, 0, 66, 37
1, 686454, Note_off_c, 0, 66, 46
1, 686454, Note_off_c, 0, 78, 54
1, 686716, Control_c, 0, 64, 112
1, 686731, Control_c, 0, 64, 106
1, 686737, Note_on_c, 0, 81, 46
1, 686745, Note_on_c, 0, 69, 34
1, 686745, Control_c, 0, 64, 101
1, 686760, Control_c, 0, 64, 97
1, 686775, Control_c, 0, 64, 92
1, 686791, Control_c, 0, 64, 85
1, 686801, Note_off_c, 0, 81, 0
1, 686801, Note_on_c, 0, 81, 3
1, 686806, Control_c, 0, 64, 77
1, 686821, Control_c, 0, 64, 68
1, 686835, Control_c, 0, 64, 60
1, 686850, Control_c, 0, 64, 50
1, 686865, Control_c, 0, 64, 44
1, 686880, Control_c, 0, 64, 44
1, 686894, Control_c, 0, 64, 45
1, 686909, Control_c, 0, 64, 47
1, 686924, Control_c, 0, 64, 51
1, 686939, Control_c, 0, 64, 56
1, 686954, Control_c, 0, 64, 60
1, 686968, Control_c, 0, 64, 63
1, 686983, Control_c, 0, 64, 66
1, 686998, Control_c, 0, 64, 70
1, 687013, Control_c, 0, 64, 76
1, 687028, Control_c, 0, 64, 81
1, 687043, Control_c, 0, 64, 88
1, 687058, Control_c, 0, 64, 93
1, 687072, Control_c, 0, 64, 98
1, 687087, Control_c, 0, 64, 105
1, 687102, Control_c, 0, 64, 116
1, 687117, Control_c, 0, 64, 127
1, 687506, Note_on_c, 0, 90, 41
1, 687581, Note_off_c, 0, 92, 40
1, 687723, Note_off_c, 0, 81, 41
1, 687726, Note_off_c, 0, 90, 32
1, 687742, Note_off_c, 0, 69, 35
1, 687806, Note_off_c, 0, 60, 44
1, 687844, Note_off_c, 0, 63, 42
1, 688199, Control_c, 0, 64, 120
1, 688214, Control_c, 0, 64, 118
1, 688229, Control_c, 0, 64, 115
1, 688243, Control_c, 0, 64, 113
1, 688273, Control_c, 0, 64, 109
1, 688303, Control_c, 0, 64, 107
1, 688332, Control_c, 0, 64, 105
1, 688361, Control_c, 0, 64, 103
1, 688407, Control_c, 0, 64, 100
1, 688452, Control_c, 0, 64, 98
1, 688496, Control_c, 0, 64, 96
1, 688511, Control_c, 0, 64, 95
1, 688525, Control_c, 0, 64, 93
1, 688540, Control_c, 0, 64, 91
1, 688555, Control_c, 0, 64, 89
1, 688570, Control_c, 0, 64, 86
1, 688585, Control_c, 0, 64, 84
1, 688599, Control_c, 0, 64, 82
1, 688614, Control_c, 0, 64, 80
1, 688629, Control_c, 0, 64, 78
1, 688644, Control_c, 0, 64, 76
1, 688666, Control_c, 0, 64, 74
1, 688681, Control_c, 0, 64, 72
1, 688696, Control_c, 0, 64, 70
1, 688711, Control_c, 0, 64, 67
1, 688726, Control_c, 0, 64, 64
1, 688740, Control_c, 0, 64, 60
1, 688755, Control_c, 0, 64, 56
1, 688757, Note_on_c, 0, 80, 50
1, 688762, Note_on_c, 0, 70, 42
1, 688770, Control_c, 0, 64, 52
1, 688775, Note_on_c, 0, 64, 21
1, 688776, Note_on_c, 0, 61, 21
1, 688785, Control_c, 0, 64, 49
1, 688800, Control_c, 0, 64, 46
1, 688814, Control_c, 0, 64, 43
1, 688829, Control_c, 0, 64, 39
1, 688844, Control_c, 0, 64, 33
1, 688858, Control_c, 0, 64, 0
1, 688947, Control_c, 0, 64, 30
1, 688962, Control_c, 0, 64, 34
1, 688977, Control_c, 0, 64, 38
1, 688992, Control_c, 0, 64, 43
1, 689007, Control_c, 0, 64, 48
1, 689022, Control_c, 0, 64, 52
1, 689037, Control_c, 0, 64, 56
1, 689052, Control_c, 0, 64, 58
1, 689066, Control_c, 0, 64, 60
1, 689081, Control_c, 0, 64, 61
1, 689096, Control_c, 0, 64, 63
1, 689111, Control_c, 0, 64, 64
1, 689126, Control_c, 0, 64, 66
1, 689140, Control_c, 0, 64, 68
1, 689155, Control_c, 0, 64, 69
1, 689170, Control_c, 0, 64, 71
1, 689186, Control_c, 0, 64, 73
1, 689201, Control_c, 0, 64, 76
1, 689216, Control_c, 0, 64, 81
1, 689230, Control_c, 0, 64, 88
1, 689245, Control_c, 0, 64, 98
1, 689258, Poly_aftertouch_c, 0, 78, 127
1, 689260, Control_c, 0, 64, 117
1, 689275, Control_c, 0, 64, 127
1, 689460, Poly_aftertouch_c, 0, 78, 0
1, 689781, Note_off_c, 0, 80, 37
1, 689802, Note_off_c, 0, 61, 33
1, 689858, Note_off_c, 0, 64, 31
1, 689923, Note_off_c, 0, 70, 37
1, 691137, Note_on_c, 0, 78, 38
1, 691148, Note_on_c, 0, 54, 27
1, 691152, Note_on_c, 0, 66, 29
1, 691240, Control_c, 0, 64, 97
1, 691254, Control_c, 0, 64, 86
1, 691269, Control_c, 0, 64, 79
1, 691284, Control_c, 0, 64, 72
1, 691299, Control_c, 0, 64, 66
1, 691314, Control_c, 0, 64, 61
1, 691328, Control_c, 0, 64, 55
1, 691343, Control_c, 0, 64, 52
1, 691358, Control_c, 0, 64, 51
1, 691373, Control_c, 0, 64, 49
1, 691387, Control_c, 0, 64, 47
1, 691402, Control_c, 0, 64, 44
1, 691417, Control_c, 0, 64, 40
1, 691432, Control_c, 0, 64, 37
1, 691446, Control_c, 0, 64, 36
1, 691476, Control_c, 0, 64, 36
1, 691520, Control_c, 0, 64, 36
1, 691535, Control_c, 0, 64, 37
1, 691550, Control_c, 0, 64, 39
1, 691565, Control_c, 0, 64, 40
1, 691580, Control_c, 0, 64, 42
1, 691594, Control_c, 0, 64, 45
1, 691609, Control_c, 0, 64, 47
1, 691624, Control_c, 0, 64, 49
1, 691639, Control_c, 0, 64, 51
1, 691662, Control_c, 0, 64, 54
1, 691677, Control_c, 0, 64, 56
1, 691691, Control_c, 0, 64, 58
1, 691706, Control_c, 0, 64, 60
1, 691721, Control_c, 0, 64, 62
1, 691736, Control_c, 0, 64, 64
1, 691751, Control_c, 0, 64, 67
1, 691765, Control_c, 0, 64, 70
1, 691780, Control_c, 0, 64, 73
1, 691795, Control_c, 0, 64, 76
1, 691809, Control_c, 0, 64, 78
1, 691824, Control_c, 0, 64, 82
1, 691839, Control_c, 0, 64, 86
1, 691854, Control_c, 0, 64, 93
1, 691869, Control_c, 0, 64, 105
1, 691884, Control_c, 0, 64, 127
1, 692000, Poly_aftertouch_c, 0, 75, 127
1, 692226, Note_off_c, 0, 54, 41
1, 692232, Note_off_c, 0, 78, 38
1, 692250, Poly_aftertouch_c, 0, 75, 0
1, 692283, Note_off_c, 0, 66, 38
1, 692924, Note_on_c, 0, 54, 18
1, 692926, Note_on_c, 0, 78, 32
1, 692936, Note_on_c, 0, 66, 25
1, 693663, Note_off_c, 0, 66, 41
1, 693690, Note_off_c, 0, 78, 58
1, 694727, Note_off_c, 0, 54, 40
1, 695147, Control_c, 0, 67, 119
1, 695162, Control_c, 0, 67, 111
1, 695177, Control_c, 0, 67, 103
1, 695192, Control_c, 0, 67, 96
1, 695207, Control_c, 0, 67, 92
1, 695221, Control_c, 0, 67, 90
1, 695251, Control_c, 0, 67, 91
1, 695266, Control_c, 0, 67, 94
1, 695280, Control_c, 0, 67, 96
1, 695294, Control_c, 0, 67, 99
1, 695309, Control_c, 0, 67, 101
1, 695324, Control_c, 0, 67, 104
1, 695339, Control_c, 0, 67, 109
1, 695353, Control_c, 0, 67, 118
1, 695368, Control_c, 0, 67, 127
1, 695925, Note_on_c, 0, 87, 48
1, 695953, Note_on_c, 0, 23, 33
1, 695969, Control_c, 0, 64, 108
1, 695984, Control_c, 0, 64, 90
1, 695999, Control_c, 0, 64, 77
1, 696014, Control_c, 0, 64, 67
1, 696029, Control_c, 0, 64, 63
1, 696043, Control_c, 0, 64, 60
1, 696073, Control_c, 0, 64, 62
1, 696087, Control_c, 0, 64, 64
1, 696102, Control_c, 0, 64, 68
1, 696117, Control_c, 0, 64, 75
1, 696132, Control_c, 0, 64, 81
1, 696155, Control_c, 0, 64, 89
1, 696169, Control_c, 0, 64, 101
1, 696179, Note_off_c, 0, 87, 61
1, 696184, Control_c, 0, 64, 127
1, 696188, Note_on_c, 0, 99, 47
1, 696282, Note_off_c, 0, 23, 30
1, 696331, Note_off_c, 0, 99, 57
1, 696347, Note_on_c, 0, 90, 46
1, 696479, Note_on_c, 0, 102, 50
1, 696483, Note_on_c, 0, 35, 46
1, 696532, Note_off_c, 0, 35, 55
1, 696561, Note_off_c, 0, 102, 53
1, 696613, Note_on_c, 0, 95, 36
1, 696640, Note_off_c, 0, 90, 34
1, 696715, Note_off_c, 0, 95, 52
1, 696740, Note_on_c, 0, 99, 40
1, 696808, Note_on_c, 0, 42, 40
1, 696819, Note_off_c, 0, 99, 59
1, 696849, Note_on_c, 0, 87, 42
1, 696943, Note_off_c, 0, 87, 51
1, 696971, Note_on_c, 0, 99, 42
1, 697012, Note_off_c, 0, 42, 39
1, 697042, Note_off_c, 0, 99, 56
1, 697066, Note_on_c, 0, 47, 34
1, 697083, Note_on_c, 0, 90, 32
1, 697125, Note_off_c, 0, 47, 44
1, 697160, Note_on_c, 0, 102, 50
1, 697215, Note_off_c, 0, 102, 59
1, 697219, Note_off_c, 0, 90, 41
1, 697234, Note_on_c, 0, 51, 43
1, 697239, Note_on_c, 0, 95, 50
1, 697297, Note_off_c, 0, 95, 59
1, 697316, Note_on_c, 0, 99, 57
1, 697371, Note_off_c, 0, 99, 58
1, 697377, Note_off_c, 0, 51, 56
1, 697398, Note_on_c, 0, 54, 51
1, 697398, Note_on_c, 0, 87, 63
1, 697449, Note_off_c, 0, 87, 62
1, 697486, Note_on_c, 0, 99, 56
1, 697507, Note_off_c, 0, 54, 58
1, 697524, Note_off_c, 0, 99, 61
1, 697543, Note_on_c, 0, 59, 42
1, 697547, Note_on_c, 0, 90, 63
1, 697598, Note_off_c, 0, 59, 53
1, 697619, Note_on_c, 0, 102, 60
1, 697674, Note_off_c, 0, 102, 56
1, 697684, Note_on_c, 0, 95, 58
1, 697685, Note_off_c, 0, 90, 38
1, 697694, Note_on_c, 0, 63, 46
1, 697744, Note_off_c, 0, 95, 64
1, 697752, Note_on_c, 0, 99, 62
1, 697805, Note_off_c, 0, 99, 59
1, 697820, Note_off_c, 0, 63, 60
1, 697825, Note_on_c, 0, 87, 66
1, 697839, Note_on_c, 0, 66, 49
1, 697874, Note_off_c, 0, 87, 63
1, 697899, Note_on_c, 0, 99, 64
1, 697930, Note_off_c, 0, 66, 58
1, 697951, Note_off_c, 0, 99, 60
1, 697969, Note_on_c, 0, 71, 53
1, 697970, Note_on_c, 0, 90, 63
1, 698031, Note_off_c, 0, 71, 55
1, 698039, Note_on_c, 0, 102, 56
1, 698090, Note_off_c, 0, 102, 59
1, 698100, Note_on_c, 0, 95, 63
1, 698117, Note_off_c, 0, 90, 37
1, 698117, Note_on_c, 0, 75, 48
1, 698178, Note_off_c, 0, 95, 64
1, 698182, Note_on_c, 0, 99, 58
1, 698249, Note_off_c, 0, 75, 63
1, 698257, Note_off_c, 0, 99, 61
1, 698272, Note_on_c, 0, 78, 56
1, 698277, Note_on_c, 0, 87, 60
1, 698305, Note_off_c, 0, 78, 63
1, 698348, Note_off_c, 0, 87, 63
1, 698376, Note_on_c, 0, 99, 57
1, 698456, Note_off_c, 0, 99, 44
1, 698483, Note_on_c, 0, 90, 49
1, 698567, Note_on_c, 0, 102, 51
1, 698634, Note_off_c, 0, 102, 56
1, 698666, Note_on_c, 0, 95, 48
1, 698700, Note_off_c, 0, 90, 35
1, 698794, Note_off_c, 0, 95, 61
1, 698802, Note_on_c, 0, 99, 53
1, 698871, Note_off_c, 0, 99, 60
1, 698934, Control_c, 0, 64, 85
1, 698949, Control_c, 0, 64, 67
1, 698963, Note_on_c, 0, 52, 44
1, 698964, Control_c, 0, 64, 52
1, 698979, Control_c, 0, 64, 29
1, 698984, Note_on_c, 0, 84, 59
1, 698993, Control_c, 0, 64, 0
1, 699023, Control_c, 0, 64, 31
1, 699038, Control_c, 0, 64, 48
1, 699053, Control_c, 0, 64, 62
1, 699068, Control_c, 0, 64, 71
1, 699083, Control_c, 0, 64, 82
1, 699097, Control_c, 0, 64, 107
1, 699098, Note_off_c, 0, 52, 57
1, 699104, Note_on_c, 0, 55, 49
1, 699112, Control_c, 0, 64, 127
1, 699133, Note_off_c, 0, 84, 57
1, 699174, Note_on_c, 0, 96, 53
1, 699189, Note_off_c, 0, 55, 60
1, 699211, Note_on_c, 0, 57, 36
1, 699263, Note_off_c, 0, 57, 59
1, 699274, Note_off_c, 0, 96, 58
1, 699284, Note_on_c, 0, 60, 47
1, 699306, Note_on_c, 0, 88, 50
1, 699319, Note_off_c, 0, 60, 62
1, 699362, Note_on_c, 0, 64, 41
1, 699387, Note_on_c, 0, 100, 44
1, 699389, Note_off_c, 0, 64, 54
1, 699431, Note_off_c, 0, 100, 50
1, 699441, Note_off_c, 0, 88, 33
1, 699458, Note_on_c, 0, 93, 56
1, 699488, Note_on_c, 0, 67, 33
1, 699509, Note_off_c, 0, 93, 55
1, 699529, Note_on_c, 0, 96, 60
1, 699530, Note_off_c, 0, 67, 50
1, 699536, Note_on_c, 0, 69, 39
1, 699574, Note_on_c, 0, 72, 51
1, 699592, Note_off_c, 0, 96, 63
1, 699616, Note_on_c, 0, 84, 60
1, 699625, Note_on_c, 0, 76, 58
1, 699639, Note_off_c, 0, 72, 53
1, 699646, Note_off_c, 0, 69, 41
1, 699649, Note_off_c, 0, 76, 65
1, 699667, Note_off_c, 0, 84, 58
1, 699723, Note_on_c, 0, 96, 42
1, 699790, Note_off_c, 0, 96, 41
1, 699793, Note_on_c, 0, 88, 60
1, 699864, Note_on_c, 0, 100, 60
1, 699944, Note_off_c, 0, 88, 35
1, 699955, Note_off_c, 0, 100, 56
1, 699971, Note_on_c, 0, 93, 51
1, 700027, Note_off_c, 0, 93, 61
1, 700047, Control_c, 0, 64, 108
1, 700048, Note_on_c, 0, 55, 54
1, 700056, Note_on_c, 0, 96, 54
1, 700062, Control_c, 0, 64, 78
1, 700076, Control_c, 0, 64, 61
1, 700091, Control_c, 0, 64, 41
1, 700106, Control_c, 0, 64, 0
1, 700108, Note_off_c, 0, 96, 60
1, 700136, Control_c, 0, 64, 47
1, 700141, Note_on_c, 0, 59, 25
1, 700150, Control_c, 0, 64, 63
1, 700165, Control_c, 0, 64, 75
1, 700176, Note_on_c, 0, 83, 44
1, 700180, Control_c, 0, 64, 95
1, 700184, Note_on_c, 0, 62, 49
1, 700185, Note_off_c, 0, 55, 55
1, 700195, Control_c, 0, 64, 127
1, 700211, Note_off_c, 0, 59, 58
1, 700224, Note_off_c, 0, 62, 64
1, 700262, Note_off_c, 0, 83, 47
1, 700263, Note_on_c, 0, 67, 35
1, 700289, Note_on_c, 0, 95, 46
1, 700291, Note_off_c, 0, 67, 54
1, 700387, Note_off_c, 0, 95, 50
1, 700419, Note_on_c, 0, 86, 43
1, 700542, Note_on_c, 0, 98, 35
1, 700600, Note_off_c, 0, 98, 43
1, 700639, Note_off_c, 0, 86, 23
1, 700644, Note_on_c, 0, 91, 51
1, 700759, Note_off_c, 0, 91, 60
1, 700776, Note_on_c, 0, 95, 34
1, 700807, Note_off_c, 0, 95, 55
1, 700899, Control_c, 0, 64, 109
1, 700906, Note_on_c, 0, 35, 47
1, 700914, Control_c, 0, 64, 82
1, 700929, Control_c, 0, 64, 68
1, 700944, Control_c, 0, 64, 57
1, 700958, Note_on_c, 0, 87, 45
1, 700958, Control_c, 0, 64, 49
1, 700988, Control_c, 0, 64, 56
1, 701003, Control_c, 0, 64, 63
1, 701018, Control_c, 0, 64, 70
1, 701033, Control_c, 0, 64, 78
1, 701047, Control_c, 0, 64, 88
1, 701057, Note_on_c, 0, 42, 47
1, 701062, Control_c, 0, 64, 100
1, 701077, Control_c, 0, 64, 127
1, 701101, Note_off_c, 0, 35, 41
1, 701139, Note_off_c, 0, 87, 62
1, 701142, Note_off_c, 0, 42, 61
1, 701163, Note_on_c, 0, 99, 35
1, 701192, Note_on_c, 0, 47, 49
1, 701219, Note_off_c, 0, 47, 57
1, 701269, Note_off_c, 0, 99, 49
1, 701284, Note_on_c, 0, 90, 42
1, 701311, Note_on_c, 0, 51, 50
1, 701372, Note_on_c, 0, 102, 30
1, 701399, Note_off_c, 0, 51, 59
1, 701419, Note_on_c, 0, 54, 46
1, 701420, Note_off_c, 0, 102, 52
1, 701425, Note_off_c, 0, 90, 32
1, 701431, Note_on_c, 0, 95, 53
1, 701472, Note_off_c, 0, 54, 57
1, 701498, Note_off_c, 0, 95, 58
1, 701509, Note_on_c, 0, 99, 59
1, 701527, Note_on_c, 0, 59, 44
1, 701555, Note_off_c, 0, 99, 57
1, 701557, Note_off_c, 0, 59, 54
1, 701588, Note_on_c, 0, 90, 53
1, 701640, Note_on_c, 0, 63, 45
1, 701649, Note_on_c, 0, 102, 64
1, 701721, Note_on_c, 0, 95, 60
1, 701723, Note_off_c, 0, 63, 62
1, 701727, Note_off_c, 0, 102, 61
1, 701741, Note_on_c, 0, 66, 43
1, 701743, Note_off_c, 0, 90, 45
1, 701789, Note_off_c, 0, 95, 62
1, 701789, Note_off_c, 0, 66, 56
1, 701792, Note_on_c, 0, 99, 62
1, 701843, Note_on_c, 0, 71, 48
1, 701851, Note_off_c, 0, 99, 60
1, 701858, Note_on_c, 0, 90, 60
1, 701877, Note_off_c, 0, 71, 54
1, 701924, Note_on_c, 0, 102, 65
1, 701976, Note_on_c, 0, 75, 45
1, 701998, Note_on_c, 0, 95, 58
1, 702000, Note_off_c, 0, 102, 59
1, 702001, Note_off_c, 0, 90, 38
1, 702057, Note_off_c, 0, 75, 64
1, 702064, Note_off_c, 0, 95, 61
1, 702066, Note_on_c, 0, 99, 58
1, 702088, Note_on_c, 0, 78, 44
1, 702121, Note_off_c, 0, 78, 57
1, 702131, Note_off_c, 0, 99, 61
1, 702162, Note_on_c, 0, 90, 52
1, 702224, Note_on_c, 0, 102, 63
1, 702290, Note_off_c, 0, 90, 41
1, 702299, Note_off_c, 0, 102, 58
1, 702314, Note_on_c, 0, 95, 51
1, 702370, Note_off_c, 0, 95, 54
1, 702389, Note_on_c, 0, 99, 46
1, 702436, Note_off_c, 0, 99, 59
1, 702468, Note_on_c, 0, 90, 55
1, 702549, Note_on_c, 0, 102, 57
1, 702630, Note_on_c, 0, 99, 49
1, 702639, Note_off_c, 0, 90, 39
1, 702643, Note_off_c, 0, 102, 62
1, 702701, Note_off_c, 0, 99, 58
1, 702735, Note_on_c, 0, 52, 51
1, 702768, Control_c, 0, 64, 93
1, 702783, Control_c, 0, 64, 74
1, 702797, Note_on_c, 0, 93, 59
1, 702798, Control_c, 0, 64, 60
1, 702813, Control_c, 0, 64, 48
1, 702828, Control_c, 0, 64, 44
1, 702832, Note_off_c, 0, 52, 53
1, 702838, Note_on_c, 0, 55, 38
1, 702842, Control_c, 0, 64, 50
1, 702857, Control_c, 0, 64, 58
1, 702872, Control_c, 0, 64, 64
1, 702894, Control_c, 0, 64, 71
1, 702896, Note_on_c, 0, 57, 43
1, 702909, Control_c, 0, 64, 79
1, 702913, Note_off_c, 0, 55, 57
1, 702916, Note_on_c, 0, 96, 56
1, 702918, Note_off_c, 0, 93, 58
1, 702924, Control_c, 0, 64, 90
1, 702939, Control_c, 0, 64, 103
1, 702954, Control_c, 0, 64, 127
1, 702971, Note_off_c, 0, 57, 61
1, 702976, Note_on_c, 0, 60, 47
1, 703002, Note_off_c, 0, 96, 57
1, 703010, Note_off_c, 0, 60, 63
1, 703017, Note_on_c, 0, 88, 52
1, 703050, Note_on_c, 0, 64, 35
1, 703079, Note_off_c, 0, 64, 53
1, 703092, Note_on_c, 0, 100, 58
1, 703136, Note_off_c, 0, 88, 35
1, 703146, Note_on_c, 0, 67, 46
1, 703151, Note_off_c, 0, 100, 60
1, 703164, Note_on_c, 0, 93, 60
1, 703206, Note_on_c, 0, 69, 46
1, 703224, Note_off_c, 0, 67, 61
1, 703234, Note_on_c, 0, 96, 61
1, 703249, Note_off_c, 0, 93, 51
1, 703250, Note_on_c, 0, 72, 53
1, 703301, Note_off_c, 0, 96, 61
1, 703304, Note_on_c, 0, 76, 51
1, 703319, Note_on_c, 0, 88, 59
1, 703335, Note_off_c, 0, 76, 63
1, 703339, Note_off_c, 0, 72, 56
1, 703349, Note_off_c, 0, 69, 33
1, 703382, Note_on_c, 0, 100, 66
1, 703455, Note_off_c, 0, 100, 64
1, 703464, Note_on_c, 0, 93, 57
1, 703510, Note_off_c, 0, 88, 21
1, 703533, Note_off_c, 0, 93, 63
1, 703565, Note_on_c, 0, 96, 41
1, 703571, Note_on_c, 0, 98, 39
1, 703601, Note_off_c, 0, 98, 56
1, 703620, Note_off_c, 0, 96, 64
1, 703626, Note_on_c, 0, 93, 55
1, 703652, Note_off_c, 0, 93, 63
1, 703673, Note_on_c, 0, 55, 52
1, 703717, Control_c, 0, 64, 85
1, 703724, Note_on_c, 0, 59, 48
1, 703732, Control_c, 0, 64, 66
1, 703747, Control_c, 0, 64, 54
1, 703762, Control_c, 0, 64, 49
1, 703765, Note_on_c, 0, 91, 61
1, 703768, Note_on_c, 0, 62, 56
1, 703777, Control_c, 0, 64, 54
1, 703791, Control_c, 0, 64, 62
1, 703799, Note_off_c, 0, 55, 57
1, 703806, Control_c, 0, 64, 67
1, 703807, Note_off_c, 0, 62, 65
1, 703817, Note_off_c, 0, 59, 57
1, 703821, Control_c, 0, 64, 76
1, 703833, Note_on_c, 0, 67, 48
1, 703835, Control_c, 0, 64, 90
1, 703850, Note_on_c, 0, 95, 59
1, 703850, Control_c, 0, 64, 112
1, 703863, Note_off_c, 0, 91, 50
1, 703865, Control_c, 0, 64, 127
1, 703873, Note_off_c, 0, 67, 64
1, 703923, Note_off_c, 0, 95, 60
1, 703942, Note_on_c, 0, 86, 67
1, 703959, Note_on_c, 0, 71, 36
1, 703989, Note_off_c, 0, 71, 51
1, 704007, Note_on_c, 0, 98, 69
1, 704096, Note_off_c, 0, 98, 56
1, 704099, Note_on_c, 0, 91, 63
1, 704163, Note_on_c, 0, 95, 63
1, 704180, Note_off_c, 0, 91, 62
1, 704210, Note_off_c, 0, 86, 23
1, 704225, Note_on_c, 0, 61, 53
1, 704233, Note_off_c, 0, 95, 57
1, 704251, Note_on_c, 0, 58, 11
1, 704264, Note_on_c, 0, 64, 49
1, 704265, Control_c, 0, 64, 100
1, 704276, Note_on_c, 0, 68, 66
1, 704280, Control_c, 0, 64, 76
1, 704295, Control_c, 0, 64, 60
1, 704295, Control_c, 0, 67, 120
1, 704309, Control_c, 0, 64, 50
1, 704309, Control_c, 0, 67, 107
1, 704324, Control_c, 0, 64, 48
1, 704324, Control_c, 0, 67, 95
1, 704339, Control_c, 0, 64, 53
1, 704339, Control_c, 0, 67, 84
1, 704341, Note_on_c, 0, 73, 62
1, 704345, Note_on_c, 0, 88, 62
1, 704355, Control_c, 0, 64, 59
1, 704355, Control_c, 0, 67, 74
1, 704370, Control_c, 0, 64, 65
1, 704370, Control_c, 0, 67, 63
1, 704392, Control_c, 0, 64, 73
1, 704392, Control_c, 0, 67, 51
1, 704406, Control_c, 0, 64, 84
1, 704406, Control_c, 0, 67, 35
1, 704421, Control_c, 0, 64, 98
1, 704421, Control_c, 0, 67, 0
1, 704436, Control_c, 0, 64, 127
1, 704459, Note_on_c, 0, 92, 59
1, 704463, Note_off_c, 0, 58, 43
1, 704467, Note_off_c, 0, 88, 57
1, 704475, Note_off_c, 0, 61, 56
1, 704481, Note_off_c, 0, 64, 50
1, 704489, Note_off_c, 0, 68, 50
1, 704510, Note_off_c, 0, 73, 51
1, 704560, Note_on_c, 0, 85, 59
1, 704572, Note_off_c, 0, 92, 55
1, 704639, Note_on_c, 0, 97, 63
1, 704722, Note_on_c, 0, 88, 65
1, 704722, Note_off_c, 0, 97, 57
1, 704740, Note_on_c, 0, 61, 52
1, 704767, Note_on_c, 0, 64, 49
1, 704770, Note_on_c, 0, 92, 69
1, 704779, Note_off_c, 0, 85, 57
1, 704781, Note_off_c, 0, 88, 57
1, 704827, Note_on_c, 0, 67, 54
1, 704845, Note_off_c, 0, 92, 63
1, 704851, Control_c, 0, 64, 89
1, 704865, Control_c, 0, 64, 57
1, 704880, Control_c, 0, 64, 0
1, 704888, Note_on_c, 0, 88, 67
1, 704890, Note_on_c, 0, 71, 66
1, 704962, Note_off_c, 0, 64, 58
1, 704967, Note_on_c, 0, 91, 68
1, 704970, Control_c, 0, 64, 32
1, 704976, Note_off_c, 0, 88, 62
1, 704984, Control_c, 0, 64, 63
1, 704999, Control_c, 0, 64, 81
1, 705014, Control_c, 0, 64, 127
1, 705053, Note_off_c, 0, 71, 61
1, 705062, Note_off_c, 0, 91, 59
1, 705083, Note_on_c, 0, 83, 53
1, 705087, Note_off_c, 0, 67, 56
1, 705103, Note_off_c, 0, 61, 56
1, 705153, Note_on_c, 0, 95, 63
1, 705228, Note_on_c, 0, 88, 64
1, 705253, Note_off_c, 0, 83, 38
1, 705271, Note_on_c, 0, 63, 61
1, 705272, Note_off_c, 0, 95, 50
1, 705289, Note_on_c, 0, 91, 71
1, 705293, Note_off_c, 0, 88, 62
1, 705324, Note_on_c, 0, 67, 58
1, 705334, Control_c, 0, 64, 89
1, 705349, Control_c, 0, 64, 68
1, 705363, Control_c, 0, 64, 52
1, 705378, Control_c, 0, 64, 36
1, 705386, Note_off_c, 0, 91, 62
1, 705390, Note_on_c, 0, 70, 72
1, 705393, Control_c, 0, 64, 42
1, 705394, Note_on_c, 0, 87, 72
1, 705408, Control_c, 0, 64, 56
1, 705423, Control_c, 0, 64, 67
1, 705438, Control_c, 0, 64, 81
1, 705453, Control_c, 0, 64, 127
1, 705467, Note_off_c, 0, 67, 62
1, 705485, Note_off_c, 0, 63, 63
1, 705492, Note_on_c, 0, 91, 70
1, 705494, Note_off_c, 0, 70, 60
1, 705506, Note_off_c, 0, 87, 61
1, 705554, Note_on_c, 0, 82, 73
1, 705604, Note_off_c, 0, 91, 36
1, 705637, Note_on_c, 0, 94, 60
1, 705647, Note_on_c, 0, 87, 64
1, 705714, Note_on_c, 0, 54, 59
1, 705726, Note_on_c, 0, 91, 73
1, 705729, Note_off_c, 0, 87, 63
1, 705741, Note_on_c, 0, 60, 56
1, 705749, Note_off_c, 0, 82, 38
1, 705753, Note_off_c, 0, 94, 63
1, 705771, Note_off_c, 0, 91, 64
1, 705786, Note_on_c, 0, 64, 63
1, 705793, Control_c, 0, 64, 98
1, 705807, Control_c, 0, 64, 73
1, 705822, Control_c, 0, 64, 59
1, 705837, Control_c, 0, 64, 44
1, 705838, Note_on_c, 0, 69, 70
1, 705840, Note_on_c, 0, 84, 77
1, 705852, Control_c, 0, 64, 42
1, 705867, Control_c, 0, 64, 51
1, 705888, Control_c, 0, 64, 62
1, 705903, Control_c, 0, 64, 71
1, 705906, Note_off_c, 0, 64, 63
1, 705908, Note_off_c, 0, 69, 63
1, 705918, Note_on_c, 0, 58, 28
1, 705918, Control_c, 0, 64, 88
1, 705924, Note_on_c, 0, 88, 80
1, 705932, Note_off_c, 0, 84, 63
1, 705933, Control_c, 0, 64, 127
1, 705942, Note_off_c, 0, 54, 61
1, 705945, Note_off_c, 0, 60, 64
1, 705956, Note_off_c, 0, 58, 51
1, 706009, Note_on_c, 0, 81, 76
1, 706026, Note_off_c, 0, 88, 62
1, 706074, Note_on_c, 0, 93, 72
1, 706106, Note_off_c, 0, 81, 58
1, 706141, Note_on_c, 0, 84, 77
1, 706157, Note_off_c, 0, 93, 63
1, 706161, Note_on_c, 0, 51, 66
1, 706199, Note_on_c, 0, 57, 52
1, 706212, Note_on_c, 0, 88, 64
1, 706218, Note_off_c, 0, 84, 63
1, 706233, Note_on_c, 0, 60, 62
1, 706241, Note_off_c, 0, 88, 67
1, 706245, Control_c, 0, 64, 86
1, 706260, Control_c, 0, 64, 65
1, 706275, Control_c, 0, 64, 44
1, 706276, Poly_aftertouch_c, 0, 89, 0
1, 706290, Control_c, 0, 64, 0
1, 706305, Note_on_c, 0, 66, 72
1, 706321, Note_on_c, 0, 81, 80
1, 706334, Control_c, 0, 64, 44
1, 706348, Control_c, 0, 64, 58
1, 706363, Control_c, 0, 64, 67
1, 706368, Note_off_c, 0, 51, 62
1, 706378, Control_c, 0, 64, 75
1, 706393, Control_c, 0, 64, 86
1, 706404, Note_on_c, 0, 84, 70
1, 706408, Note_off_c, 0, 57, 60
1, 706408, Control_c, 0, 64, 98
1, 706412, Note_off_c, 0, 81, 59
1, 706422, Note_off_c, 0, 60, 63
1, 706423, Control_c, 0, 64, 127
1, 706441, Note_on_c, 0, 85, 31
1, 706478, Note_off_c, 0, 84, 65
1, 706481, Note_off_c, 0, 85, 52
1, 706483, Note_off_c, 0, 66, 56
1, 706491, Note_on_c, 0, 78, 80
1, 706566, Note_on_c, 0, 90, 70
1, 706573, Note_on_c, 0, 81, 65
1, 706649, Note_off_c, 0, 78, 32
1, 706657, Note_off_c, 0, 90, 58
1, 706657, Note_on_c, 0, 84, 79
1, 706668, Note_off_c, 0, 81, 62
1, 706699, Note_off_c, 0, 84, 58
1, 706726, Control_c, 0, 64, 112
1, 706741, Control_c, 0, 64, 77
1, 706749, Note_on_c, 0, 59, 65
1, 706749, Note_on_c, 0, 69, 67
1, 706751, Note_on_c, 0, 65, 70
1, 706757, Control_c, 0, 64, 59
1, 706759, Poly_aftertouch_c, 0, 66, 0
1, 706767, Note_on_c, 0, 77, 79
1, 706772, Control_c, 0, 64, 29
1, 706787, Control_c, 0, 64, 0
1, 706816, Control_c, 0, 64, 34
1, 706831, Control_c, 0, 64, 52
1, 706836, Note_on_c, 0, 81, 79
1, 706846, Control_c, 0, 64, 62
1, 706860, Control_c, 0, 64, 67
1, 706861, Note_off_c, 0, 69, 60
1, 706875, Note_off_c, 0, 77, 62
1, 706875, Control_c, 0, 64, 72
1, 706890, Control_c, 0, 64, 76
1, 706898, Note_off_c, 0, 65, 62
1, 706901, Note_off_c, 0, 59, 61
1, 706905, Control_c, 0, 64, 82
1, 706920, Note_on_c, 0, 74, 78
1, 706920, Control_c, 0, 64, 89
1, 706925, Note_off_c, 0, 81, 62
1, 706934, Control_c, 0, 64, 101
1, 706949, Control_c, 0, 64, 127
1, 706988, Note_on_c, 0, 86, 77
1, 707018, Note_off_c, 0, 74, 58
1, 707051, Note_on_c, 0, 77, 77
1, 707078, Note_off_c, 0, 86, 61
1, 707121, Note_on_c, 0, 81, 86
1, 707149, Note_off_c, 0, 77, 62
1, 707175, Note_off_c, 0, 81, 61
1, 707216, Control_c, 0, 64, 110
1, 707231, Control_c, 0, 64, 80
1, 707246, Note_on_c, 0, 62, 68
1, 707246, Control_c, 0, 64, 61
1, 707257, Note_on_c, 0, 66, 68
1, 707259, Note_on_c, 0, 74, 84
1, 707261, Note_on_c, 0, 56, 69
1, 707261, Control_c, 0, 64, 0
1, 707335, Control_c, 0, 64, 45
1, 707350, Control_c, 0, 64, 59
1, 707351, Note_off_c, 0, 66, 62
1, 707360, Note_off_c, 0, 62, 62
1, 707365, Control_c, 0, 64, 67
1, 707371, Note_on_c, 0, 77, 74
1, 707387, Control_c, 0, 64, 77
1, 707388, Note_off_c, 0, 74, 61
1, 707390, Note_off_c, 0, 56, 61
1, 707402, Control_c, 0, 64, 87
1, 707417, Control_c, 0, 64, 100
1, 707432, Control_c, 0, 64, 127
1, 707453, Note_off_c, 0, 77, 63
1, 707460, Note_on_c, 0, 71, 77
1, 707518, Note_on_c, 0, 83, 79
1, 707524, Note_off_c, 0, 71, 63
1, 707545, Note_off_c, 0, 83, 66
1, 707566, Control_c, 0, 64, 116
1, 707581, Control_c, 0, 64, 73
1, 707596, Control_c, 0, 64, 56
1, 707602, Note_on_c, 0, 59, 71
1, 707604, Note_on_c, 0, 53, 71
1, 707604, Note_on_c, 0, 63, 79
1, 707610, Control_c, 0, 64, 33
1, 707615, Note_on_c, 0, 71, 86
1, 707625, Control_c, 0, 64, 0
1, 707640, Control_c, 0, 64, 35
1, 707655, Control_c, 0, 64, 53
1, 707670, Note_off_c, 0, 59, 64
1, 707670, Control_c, 0, 64, 66
1, 707674, Note_off_c, 0, 63, 62
1, 707684, Control_c, 0, 64, 82
1, 707688, Note_on_c, 0, 75, 78
1, 707688, Note_off_c, 0, 53, 62
1, 707699, Control_c, 0, 64, 127
1, 707712, Note_off_c, 0, 71, 60
1, 707767, Note_off_c, 0, 75, 64
1, 707775, Note_on_c, 0, 68, 80
1, 707840, Note_on_c, 0, 80, 76
1, 707855, Note_off_c, 0, 68, 63
1, 707864, Note_off_c, 0, 80, 69
1, 707923, Note_on_c, 0, 59, 73
1, 707924, Note_on_c, 0, 55, 72
1, 707930, Note_on_c, 0, 49, 78
1, 707936, Control_c, 0, 64, 73
1, 707944, Note_on_c, 0, 67, 75
1, 707951, Control_c, 0, 64, 49
1, 707963, Note_on_c, 0, 69, 51
1, 707966, Control_c, 0, 64, 0
1, 707993, Note_off_c, 0, 69, 34
1, 708010, Control_c, 0, 64, 43
1, 708018, Note_off_c, 0, 55, 63
1, 708020, Note_off_c, 0, 59, 62
1, 708024, Note_on_c, 0, 71, 81
1, 708025, Control_c, 0, 64, 62
1, 708040, Control_c, 0, 64, 75
1, 708047, Note_off_c, 0, 49, 63
1, 708055, Control_c, 0, 64, 100
1, 708066, Note_off_c, 0, 67, 62
1, 708070, Control_c, 0, 64, 127
1, 708127, Note_off_c, 0, 71, 61
1, 708127, Note_on_c, 0, 64, 80
1, 708226, Note_off_c, 0, 64, 61
1, 708227, Note_on_c, 0, 76, 78
1, 708241, Note_on_c, 0, 44, 72
1, 708258, Note_off_c, 0, 76, 64
1, 708273, Note_on_c, 0, 49, 65
1, 708317, Note_on_c, 0, 53, 66
1, 708443, Note_on_c, 0, 59, 73
1, 708444, Note_on_c, 0, 65, 79
1, 708448, Control_c, 0, 64, 107
1, 708459, Note_on_c, 0, 64, 68
1, 708463, Control_c, 0, 64, 83
1, 708478, Control_c, 0, 64, 64
1, 708481, Note_off_c, 0, 64, 40
1, 708493, Control_c, 0, 64, 45
1, 708507, Control_c, 0, 64, 0
1, 708677, Note_on_c, 0, 68, 82
1, 708699, Control_c, 0, 64, 34
1, 708714, Control_c, 0, 64, 47
1, 708729, Control_c, 0, 64, 55
1, 708744, Control_c, 0, 64, 59
1, 708759, Control_c, 0, 64, 61
1, 708773, Control_c, 0, 64, 62
1, 708788, Control_c, 0, 64, 64
1, 708803, Control_c, 0, 64, 65
1, 708818, Note_on_c, 0, 62, 77
1, 708818, Control_c, 0, 64, 67
1, 708833, Control_c, 0, 64, 69
1, 708848, Control_c, 0, 64, 71
1, 708849, Note_off_c, 0, 65, 58
1, 708863, Control_c, 0, 64, 72
1, 708875, Note_off_c, 0, 68, 61
1, 708885, Control_c, 0, 64, 74
1, 708900, Control_c, 0, 64, 76
1, 708914, Note_on_c, 0, 74, 76
1, 708914, Control_c, 0, 64, 78
1, 708929, Control_c, 0, 64, 79
1, 708944, Control_c, 0, 64, 80
1, 708973, Control_c, 0, 64, 81
1, 708988, Control_c, 0, 64, 81
1, 708992, Note_on_c, 0, 65, 75
1, 709018, Control_c, 0, 64, 82
1, 709050, Note_off_c, 0, 74, 39
1, 709072, Note_off_c, 0, 62, 45
1, 709074, Note_on_c, 0, 68, 80
1, 709122, Control_c, 0, 64, 81
1, 709137, Control_c, 0, 64, 78
1, 709152, Control_c, 0, 64, 68
1, 709164, Note_on_c, 0, 62, 72
1, 709167, Control_c, 0, 64, 52
1, 709172, Note_off_c, 0, 65, 38
1, 709182, Control_c, 0, 64, 0
1, 709218, Note_off_c, 0, 68, 60
1, 709241, Control_c, 0, 64, 36
1, 709242, Note_on_c, 0, 74, 73
1, 709256, Control_c, 0, 64, 56
1, 709271, Control_c, 0, 64, 68
1, 709286, Control_c, 0, 64, 75
1, 709301, Control_c, 0, 64, 80
1, 709313, Note_on_c, 0, 65, 71
1, 709316, Control_c, 0, 64, 82
1, 709330, Control_c, 0, 64, 84
1, 709345, Control_c, 0, 64, 85
1, 709353, Note_off_c, 0, 62, 37
1, 709360, Control_c, 0, 64, 86
1, 709366, Note_off_c, 0, 74, 56
1, 709374, Control_c, 0, 64, 88
1, 709389, Note_on_c, 0, 68, 72
1, 709389, Control_c, 0, 64, 90
1, 709404, Control_c, 0, 64, 91
1, 709419, Control_c, 0, 64, 92
1, 709441, Note_off_c, 0, 65, 54
1, 709448, Control_c, 0, 64, 93
1, 709468, Note_on_c, 0, 62, 69
1, 709485, Note_off_c, 0, 68, 60
1, 709534, Note_on_c, 0, 74, 64
1, 709568, Control_c, 0, 64, 88
1, 709582, Control_c, 0, 64, 80
1, 709597, Control_c, 0, 64, 70
1, 709605, Note_off_c, 0, 62, 45
1, 709607, Note_on_c, 0, 65, 61
1, 709612, Control_c, 0, 64, 63
1, 709635, Control_c, 0, 64, 57
1, 709650, Control_c, 0, 64, 58
1, 709653, Note_off_c, 0, 74, 60
1, 709664, Control_c, 0, 64, 62
1, 709679, Control_c, 0, 64, 67
1, 709689, Note_on_c, 0, 68, 66
1, 709694, Control_c, 0, 64, 72
1, 709709, Control_c, 0, 64, 79
1, 709714, Note_off_c, 0, 65, 53
1, 709724, Control_c, 0, 64, 88
1, 709738, Control_c, 0, 64, 98
1, 709753, Control_c, 0, 64, 111
1, 709766, Note_off_c, 0, 59, 50
1, 709768, Control_c, 0, 64, 127
1, 709782, Note_off_c, 0, 68, 56
1, 709789, Note_on_c, 0, 62, 56
1, 709794, Note_off_c, 0, 44, 57
1, 709810, Note_off_c, 0, 49, 37
1, 709846, Note_off_c, 0, 53, 53
1, 709851, Note_on_c, 0, 74, 59
1, 709933, Note_off_c, 0, 74, 56
1, 709937, Note_on_c, 0, 65, 57
1, 710019, Note_off_c, 0, 62, 18
1, 710034, Note_off_c, 0, 65, 60
1, 710046, Note_on_c, 0, 68, 40
1, 710052, Note_on_c, 0, 74, 59
1, 710090, Note_off_c, 0, 68, 48
1, 710094, Note_on_c, 0, 50, 48
1, 710142, Note_on_c, 0, 53, 46
1, 710183, Control_c, 0, 64, 109
1, 710198, Control_c, 0, 64, 94
1, 710210, Note_on_c, 0, 65, 59
1, 710212, Note_off_c, 0, 74, 34
1, 710213, Control_c, 0, 64, 79
1, 710218, Note_on_c, 0, 56, 59
1, 710228, Control_c, 0, 64, 66
1, 710243, Control_c, 0, 64, 54
1, 710257, Control_c, 0, 64, 39
1, 710271, Control_c, 0, 64, 0
1, 710301, Control_c, 0, 64, 31
1, 710316, Control_c, 0, 64, 36
1, 710330, Control_c, 0, 64, 41
1, 710339, Note_on_c, 0, 68, 52
1, 710345, Control_c, 0, 64, 49
1, 710352, Note_off_c, 0, 65, 57
1, 710360, Control_c, 0, 64, 55
1, 710383, Control_c, 0, 64, 61
1, 710397, Control_c, 0, 64, 64
1, 710412, Control_c, 0, 64, 66
1, 710427, Control_c, 0, 64, 69
1, 710442, Control_c, 0, 64, 71
1, 710457, Control_c, 0, 64, 74
1, 710458, Note_on_c, 0, 60, 49
1, 710461, Note_off_c, 0, 68, 56
1, 710472, Control_c, 0, 64, 76
1, 710486, Control_c, 0, 64, 78
1, 710501, Control_c, 0, 64, 80
1, 710516, Control_c, 0, 64, 82
1, 710530, Control_c, 0, 64, 83
1, 710532, Note_on_c, 0, 72, 49
1, 710545, Control_c, 0, 64, 84
1, 710560, Control_c, 0, 64, 84
1, 710575, Control_c, 0, 64, 85
1, 710590, Control_c, 0, 64, 86
1, 710610, Note_on_c, 0, 65, 52
1, 710621, Note_off_c, 0, 60, 37
1, 710634, Control_c, 0, 64, 86
1, 710674, Note_off_c, 0, 72, 28
1, 710680, Note_off_c, 0, 65, 55
1, 710690, Note_on_c, 0, 68, 48
1, 710708, Control_c, 0, 67, 22
1, 710723, Control_c, 0, 67, 26
1, 710738, Control_c, 0, 64, 87
1, 710738, Control_c, 0, 67, 29
1, 710753, Control_c, 0, 67, 34
1, 710766, Note_off_c, 0, 56, 52
1, 710768, Control_c, 0, 67, 44
1, 710783, Control_c, 0, 67, 58
1, 710784, Note_on_c, 0, 60, 44
1, 710798, Control_c, 0, 67, 75
1, 710800, Note_off_c, 0, 53, 53
1, 710806, Note_off_c, 0, 50, 56
1, 710812, Note_off_c, 0, 68, 36
1, 710813, Control_c, 0, 67, 93
1, 710827, Control_c, 0, 67, 103
1, 710842, Control_c, 0, 67, 107
1, 710865, Note_on_c, 0, 72, 48
1, 710917, Control_c, 0, 67, 105
1, 710946, Control_c, 0, 64, 87
1, 710962, Note_on_c, 0, 65, 47
1, 710975, Note_off_c, 0, 60, 40
1, 710976, Control_c, 0, 67, 103
1, 711024, Note_off_c, 0, 72, 37
1, 711027, Note_off_c, 0, 65, 46
1, 711032, Note_on_c, 0, 68, 49
1, 711145, Note_on_c, 0, 60, 35
1, 711159, Note_off_c, 0, 68, 34
1, 711170, Note_on_c, 0, 44, 48
1, 711227, Note_on_c, 0, 72, 48
1, 711265, Control_c, 0, 64, 87
1, 711265, Note_off_c, 0, 72, 65
1, 711279, Note_off_c, 0, 60, 36
1, 711288, Note_on_c, 0, 49, 23
1, 711295, Control_c, 0, 64, 86
1, 711324, Control_c, 0, 64, 86
1, 711339, Control_c, 0, 64, 85
1, 711353, Control_c, 0, 64, 85
1, 711368, Control_c, 0, 64, 84
1, 711383, Control_c, 0, 64, 84
1, 711398, Control_c, 0, 64, 83
1, 711413, Control_c, 0, 64, 83
1, 711427, Control_c, 0, 64, 81
1, 711441, Note_on_c, 0, 52, 39
1, 711442, Control_c, 0, 64, 76
1, 711449, Note_on_c, 0, 61, 48
1, 711457, Control_c, 0, 64, 69
1, 711471, Control_c, 0, 64, 61
1, 711486, Control_c, 0, 64, 53
1, 711489, Note_off_c, 0, 52, 0
1, 711489, Note_on_c, 0, 52, 9
1, 711501, Control_c, 0, 64, 48
1, 711516, Control_c, 0, 64, 46
1, 711531, Control_c, 0, 64, 47
1, 711547, Control_c, 0, 64, 48
1, 711562, Control_c, 0, 64, 50
1, 711576, Control_c, 0, 64, 53
1, 711591, Control_c, 0, 64, 57
1, 711601, Note_off_c, 0, 61, 44
1, 711606, Control_c, 0, 64, 61
1, 711608, Note_on_c, 0, 64, 32
1, 711621, Control_c, 0, 64, 63
1, 711636, Control_c, 0, 64, 65
1, 711636, Control_c, 0, 67, 105
1, 711650, Control_c, 0, 64, 67
1, 711665, Control_c, 0, 64, 70
1, 711665, Control_c, 0, 67, 107
1, 711680, Control_c, 0, 64, 72
1, 711695, Control_c, 0, 64, 74
1, 711695, Control_c, 0, 67, 109
1, 711710, Control_c, 0, 64, 76
1, 711725, Control_c, 0, 64, 77
1, 711725, Control_c, 0, 67, 112
1, 711730, Note_on_c, 0, 56, 41
1, 711730, Note_off_c, 0, 64, 42
1, 711739, Control_c, 0, 64, 78
1, 711739, Control_c, 0, 67, 119
1, 711754, Control_c, 0, 64, 79
1, 711754, Control_c, 0, 67, 126
1, 711768, Control_c, 0, 64, 80
1, 711783, Control_c, 0, 64, 81
1, 711798, Control_c, 0, 64, 83
1, 711813, Control_c, 0, 64, 83
1, 711827, Note_on_c, 0, 68, 43
1, 711828, Control_c, 0, 64, 84
1, 711857, Control_c, 0, 64, 84
1, 711894, Control_c, 0, 64, 85
1, 711912, Note_off_c, 0, 56, 31
1, 711929, Note_on_c, 0, 61, 33
1, 711968, Note_off_c, 0, 68, 32
1, 711968, Control_c, 0, 64, 85
1, 711983, Note_off_c, 0, 61, 42
1, 711990, Note_on_c, 0, 64, 43
1, 712014, Note_off_c, 0, 44, 58
1, 712043, Note_off_c, 0, 49, 41
1, 712093, Note_off_c, 0, 64, 55
1, 712118, Note_on_c, 0, 56, 41
1, 712151, Note_off_c, 0, 52, 18
1, 712210, Note_on_c, 0, 68, 49
1, 712303, Note_off_c, 0, 56, 35
1, 712308, Note_on_c, 0, 61, 37
1, 712352, Note_on_c, 0, 37, 39
1, 712374, Note_off_c, 0, 61, 50
1, 712374, Note_off_c, 0, 68, 28
1, 712400, Note_on_c, 0, 64, 40
1, 712428, Control_c, 0, 64, 85
1, 712473, Control_c, 0, 64, 84
1, 712490, Note_on_c, 0, 44, 35
1, 712503, Control_c, 0, 64, 84
1, 712517, Control_c, 0, 64, 83
1, 712523, Note_off_c, 0, 64, 50
1, 712532, Control_c, 0, 64, 82
1, 712538, Note_on_c, 0, 56, 40
1, 712547, Control_c, 0, 64, 81
1, 712554, Note_on_c, 0, 49, 40
1, 712562, Control_c, 0, 64, 80
1, 712577, Control_c, 0, 64, 79
1, 712591, Control_c, 0, 64, 78
1, 712606, Control_c, 0, 64, 77
1, 712628, Control_c, 0, 64, 76
1, 712643, Control_c, 0, 64, 76
1, 712651, Note_on_c, 0, 68, 33
1, 712658, Control_c, 0, 64, 75
1, 712672, Control_c, 0, 64, 73
1, 712687, Control_c, 0, 64, 72
1, 712702, Control_c, 0, 64, 71
1, 712717, Control_c, 0, 64, 71
1, 712732, Control_c, 0, 64, 70
1, 712747, Control_c, 0, 64, 68
1, 712762, Control_c, 0, 64, 67
1, 712777, Control_c, 0, 64, 66
1, 712792, Control_c, 0, 64, 65
1, 712806, Control_c, 0, 64, 63
1, 712821, Control_c, 0, 64, 61
1, 712836, Control_c, 0, 64, 58
1, 712841, Note_off_c, 0, 68, 39
1, 712848, Note_on_c, 0, 53, 42
1, 712848, Note_on_c, 0, 61, 42
1, 712850, Note_off_c, 0, 37, 0
1, 712851, Control_c, 0, 64, 55
1, 712866, Control_c, 0, 64, 48
1, 712880, Control_c, 0, 64, 33
1, 712887, Poly_aftertouch_c, 0, 37, 127
1, 712894, Note_off_c, 0, 56, 35
1, 712895, Control_c, 0, 64, 0
1, 713090, Note_on_c, 0, 65, 41
1, 713099, Note_off_c, 0, 61, 46
1, 713257, Note_on_c, 0, 56, 43
1, 713266, Control_c, 0, 64, 39
1, 713281, Control_c, 0, 64, 53
1, 713295, Control_c, 0, 64, 61
1, 713310, Control_c, 0, 64, 64
1, 713325, Control_c, 0, 64, 65
1, 713340, Control_c, 0, 64, 66
1, 713355, Control_c, 0, 64, 67
1, 713377, Control_c, 0, 64, 69
1, 713392, Control_c, 0, 64, 71
1, 713402, Note_on_c, 0, 68, 44
1, 713407, Control_c, 0, 64, 72
1, 713410, Note_off_c, 0, 65, 32
1, 713421, Control_c, 0, 64, 74
1, 713436, Control_c, 0, 64, 75
1, 713451, Control_c, 0, 64, 76
1, 713466, Control_c, 0, 64, 78
1, 713468, Note_off_c, 0, 53, 33
1, 713480, Control_c, 0, 64, 80
1, 713495, Control_c, 0, 64, 82
1, 713510, Control_c, 0, 64, 84
1, 713525, Control_c, 0, 64, 85
1, 713538, Note_on_c, 0, 61, 41
1, 713540, Control_c, 0, 64, 86
1, 713546, Note_off_c, 0, 49, 40
1, 713555, Control_c, 0, 64, 88
1, 713562, Note_off_c, 0, 56, 16
1, 713570, Control_c, 0, 64, 91
1, 713572, Poly_aftertouch_c, 0, 37, 0
1, 713579, Note_off_c, 0, 68, 27
1, 713585, Control_c, 0, 64, 92
1, 713600, Control_c, 0, 64, 93
1, 713614, Control_c, 0, 64, 94
1, 713629, Control_c, 0, 64, 94
1, 713644, Control_c, 0, 64, 95
1, 713665, Note_off_c, 0, 61, 36
1, 713680, Note_on_c, 0, 65, 25
1, 713688, Control_c, 0, 64, 97
1, 713699, Note_off_c, 0, 44, 29
1, 713733, Control_c, 0, 64, 99
1, 713762, Control_c, 0, 64, 102
1, 713792, Control_c, 0, 64, 104
1, 713799, Note_on_c, 0, 56, 38
1, 713821, Control_c, 0, 64, 107
1, 713836, Control_c, 0, 64, 110
1, 713851, Control_c, 0, 64, 114
1, 713865, Control_c, 0, 64, 122
1, 713880, Control_c, 0, 64, 127
1, 713911, Note_off_c, 0, 65, 26
1, 713961, Note_on_c, 0, 68, 50
1, 713975, Note_off_c, 0, 56, 32
1, 714176, Note_on_c, 0, 37, 32
1, 714375, Note_off_c, 0, 37, 40
1, 714439, Note_on_c, 0, 44, 35
1, 714595, Note_on_c, 0, 49, 40
1, 714651, Note_off_c, 0, 44, 45
1, 714715, Note_on_c, 0, 53, 36
1, 714763, Note_off_c, 0, 49, 45
1, 714855, Note_on_c, 0, 56, 41
1, 714868, Note_off_c, 0, 53, 56
1, 714944, Note_off_c, 0, 68, 30
1, 714965, Note_on_c, 0, 61, 41
1, 715023, Note_off_c, 0, 56, 38
1, 715060, Note_off_c, 0, 61, 51
1, 715072, Note_on_c, 0, 65, 42
1, 715182, Note_on_c, 0, 68, 48
1, 715221, Note_off_c, 0, 65, 42
1, 715265, Note_off_c, 0, 68, 59
1, 715311, Note_on_c, 0, 53, 40
1, 715418, Note_off_c, 0, 53, 49
1, 715449, Note_on_c, 0, 56, 38
1, 715539, Note_on_c, 0, 61, 46
1, 715603, Control_c, 0, 67, 122
1, 715624, Control_c, 0, 67, 116
1, 715633, Note_off_c, 0, 61, 59
1, 715639, Control_c, 0, 67, 110
1, 715650, Note_on_c, 0, 65, 43
1, 715654, Control_c, 0, 67, 104
1, 715668, Control_c, 0, 67, 98
1, 715683, Control_c, 0, 67, 94
1, 715687, Note_off_c, 0, 56, 37
1, 715698, Control_c, 0, 67, 92
1, 715713, Control_c, 0, 67, 90
1, 715728, Control_c, 0, 67, 88
1, 715743, Control_c, 0, 67, 85
1, 715748, Note_off_c, 0, 65, 59
1, 715749, Note_on_c, 0, 68, 52
1, 715758, Control_c, 0, 67, 83
1, 715773, Control_c, 0, 67, 80
1, 715787, Control_c, 0, 67, 77
1, 715802, Control_c, 0, 67, 75
1, 715817, Control_c, 0, 67, 73
1, 715832, Control_c, 0, 67, 71
1, 715838, Note_on_c, 0, 73, 54
1, 715847, Control_c, 0, 67, 69
1, 715861, Control_c, 0, 67, 67
1, 715876, Control_c, 0, 67, 66
1, 715891, Control_c, 0, 67, 65
1, 715906, Control_c, 0, 67, 64
1, 715926, Note_off_c, 0, 73, 57
1, 715937, Note_on_c, 0, 77, 51
1, 715952, Note_off_c, 0, 68, 29
1, 716040, Note_on_c, 0, 80, 60
1, 716040, Note_off_c, 0, 77, 53
1, 716186, Note_on_c, 0, 65, 42
1, 716202, Note_off_c, 0, 80, 60
1, 716260, Control_c, 0, 67, 65
1, 716294, Note_on_c, 0, 68, 31
1, 716383, Note_off_c, 0, 65, 27
1, 716402, Control_c, 0, 67, 64
1, 716408, Note_on_c, 0, 73, 51
1, 716524, Note_on_c, 0, 77, 40
1, 716634, Note_off_c, 0, 68, 41
1, 716640, Note_off_c, 0, 77, 54
1, 716641, Note_on_c, 0, 80, 42
1, 716677, Note_off_c, 0, 73, 40
1, 716762, Note_on_c, 0, 85, 48
1, 716882, Note_off_c, 0, 85, 56
1, 716896, Note_on_c, 0, 89, 47
1, 716931, Note_off_c, 0, 80, 45
1, 717025, Note_on_c, 0, 92, 59
1, 717031, Note_off_c, 0, 89, 54
1, 717207, Note_on_c, 0, 65, 40
1, 717393, Note_on_c, 0, 68, 34
1, 717566, Control_c, 0, 67, 64
1, 717574, Note_on_c, 0, 73, 29
1, 717595, Control_c, 0, 67, 63
1, 717610, Control_c, 0, 67, 62
1, 717625, Control_c, 0, 67, 62
1, 717669, Control_c, 0, 67, 61
1, 717684, Control_c, 0, 67, 58
1, 717699, Control_c, 0, 67, 51
1, 717713, Control_c, 0, 67, 45
1, 717728, Control_c, 0, 67, 40
1, 717744, Control_c, 0, 67, 35
1, 717752, Note_on_c, 0, 77, 32
1, 717759, Control_c, 0, 67, 31
1, 717774, Control_c, 0, 67, 27
1, 717788, Control_c, 0, 67, 24
1, 717818, Control_c, 0, 67, 21
1, 717943, Note_on_c, 0, 80, 42
1, 717975, Control_c, 0, 67, 25
1, 717990, Control_c, 0, 67, 27
1, 718005, Control_c, 0, 67, 29
1, 718034, Control_c, 0, 67, 33
1, 718049, Control_c, 0, 67, 34
1, 718063, Control_c, 0, 67, 35
1, 718078, Control_c, 0, 67, 40
1, 718093, Control_c, 0, 67, 46
1, 718108, Control_c, 0, 67, 51
1, 718123, Control_c, 0, 67, 56
1, 718125, Note_off_c, 0, 92, 30
1, 718137, Control_c, 0, 67, 58
1, 718146, Note_on_c, 0, 85, 44
1, 718187, Note_off_c, 0, 80, 36
1, 718197, Control_c, 0, 67, 57
1, 718226, Control_c, 0, 67, 56
1, 718241, Control_c, 0, 67, 56
1, 718256, Control_c, 0, 67, 55
1, 718271, Control_c, 0, 67, 54
1, 718285, Control_c, 0, 67, 53
1, 718291, Note_off_c, 0, 85, 37
1, 718300, Control_c, 0, 67, 52
1, 718315, Control_c, 0, 67, 51
1, 718330, Control_c, 0, 67, 51
1, 718345, Control_c, 0, 67, 50
1, 718360, Control_c, 0, 67, 49
1, 718375, Control_c, 0, 67, 48
1, 718390, Control_c, 0, 67, 48
1, 718405, Control_c, 0, 67, 47
1, 718411, Note_on_c, 0, 89, 44
1, 718419, Control_c, 0, 67, 47
1, 718434, Control_c, 0, 67, 46
1, 718442, Note_off_c, 0, 89, 54
1, 718463, Control_c, 0, 67, 45
1, 718478, Control_c, 0, 67, 45
1, 718508, Control_c, 0, 67, 44
1, 718523, Control_c, 0, 67, 43
1, 718537, Control_c, 0, 67, 43
1, 718552, Control_c, 0, 67, 40
1, 718567, Control_c, 0, 67, 36
1, 718581, Control_c, 0, 67, 33
1, 718596, Control_c, 0, 67, 30
1, 718619, Control_c, 0, 67, 28
1, 718634, Control_c, 0, 67, 26
1, 718663, Control_c, 0, 67, 23
1, 718693, Control_c, 0, 67, 20
1, 718708, Control_c, 0, 67, 0
1, 718908, Note_on_c, 0, 92, 48
1, 718953, Note_off_c, 0, 92, 64
1, 719576, Note_on_c, 0, 85, 47
1, 719955, Note_off_c, 0, 85, 54
1, 720915, Note_on_c, 0, 97, 57
1, 722589, Note_off_c, 0, 77, 45
1, 722954, Note_off_c, 0, 73, 42
1, 723048, Note_off_c, 0, 68, 47
1, 723082, Note_off_c, 0, 97, 63
1, 723091, Note_off_c, 0, 65, 41
1, 723512, Control_c, 0, 64, 83
1, 723529, Control_c, 0, 64, 39
1, 723544, Control_c, 0, 64, 0
1, 723662, Control_c, 0, 64, 44
1, 723676, Control_c, 0, 64, 107
1, 723691, Control_c, 0, 64, 127
1, 723693, Note_on_c, 0, 37, 90
1, 723902, Note_on_c, 0, 44, 73
1, 723928, Note_off_c, 0, 37, 60
1, 723970, Note_off_c, 0, 44, 64
1, 723994, Note_on_c, 0, 49, 64
1, 724021, Note_off_c, 0, 49, 65
1, 724066, Note_on_c, 0, 53, 71
1, 724121, Note_on_c, 0, 56, 83
1, 724166, Note_off_c, 0, 53, 61
1, 724185, Note_on_c, 0, 61, 79
1, 724187, Note_off_c, 0, 56, 62
1, 724215, Note_off_c, 0, 61, 60
1, 724217, Note_on_c, 0, 65, 64
1, 724230, Note_on_c, 0, 68, 87
1, 724267, Note_on_c, 0, 73, 75
1, 724280, Note_off_c, 0, 65, 64
1, 724316, Note_on_c, 0, 65, 91
1, 724319, Note_on_c, 0, 77, 94
1, 724349, Note_off_c, 0, 68, 66
1, 724410, Note_off_c, 0, 73, 55
1, 727003, Note_on_c, 0, 33, 88
1, 727018, Control_c, 0, 64, 68
1, 727033, Note_off_c, 0, 77, 57
1, 727033, Control_c, 0, 64, 0
1, 727062, Note_off_c, 0, 65, 53
1, 727092, Control_c, 0, 64, 60
1, 727107, Control_c, 0, 64, 86
1, 727122, Control_c, 0, 64, 127
1, 727178, Note_on_c, 0, 38, 70
1, 727204, Note_off_c, 0, 33, 60
1, 727246, Note_off_c, 0, 38, 62
1, 727249, Note_on_c, 0, 45, 77
1, 727278, Note_off_c, 0, 45, 69
1, 727360, Note_on_c, 0, 50, 64
1, 727368, Note_on_c, 0, 48, 49
1, 727387, Note_on_c, 0, 57, 78
1, 727398, Note_off_c, 0, 48, 55
1, 727420, Note_off_c, 0, 50, 62
1, 727442, Note_on_c, 0, 62, 79
1, 727443, Note_off_c, 0, 57, 64
1, 727475, Note_off_c, 0, 62, 63
1, 727499, Note_on_c, 0, 66, 75
1, 727518, Note_on_c, 0, 69, 63
1, 727532, Note_on_c, 0, 74, 78
1, 727567, Note_off_c, 0, 66, 60
1, 727615, Note_on_c, 0, 66, 85
1, 727617, Note_on_c, 0, 78, 98
1, 727646, Note_off_c, 0, 69, 62
1, 727693, Note_off_c, 0, 74, 56
1, 729231, Note_off_c, 0, 78, 49
1, 729340, Control_c, 0, 67, 21
1, 729354, Control_c, 0, 67, 23
1, 729380, Note_off_c, 0, 66, 27
1, 729428, Control_c, 0, 67, 26
1, 729458, Control_c, 0, 67, 30
1, 729473, Control_c, 0, 67, 33
1, 729488, Control_c, 0, 67, 33
1, 729532, Control_c, 0, 67, 35
1, 729547, Control_c, 0, 67, 38
1, 729562, Control_c, 0, 67, 46
1, 729577, Control_c, 0, 67, 51
1, 729592, Control_c, 0, 67, 54
1, 729607, Control_c, 0, 67, 56
1, 729621, Control_c, 0, 67, 59
1, 729636, Control_c, 0, 67, 63
1, 729651, Control_c, 0, 67, 69
1, 729665, Control_c, 0, 67, 77
1, 729680, Control_c, 0, 67, 82
1, 729695, Control_c, 0, 67, 85
1, 729710, Control_c, 0, 67, 86
1, 729725, Control_c, 0, 67, 87
1, 729739, Control_c, 0, 67, 91
1, 729754, Control_c, 0, 67, 98
1, 729769, Control_c, 0, 67, 107
1, 729784, Control_c, 0, 67, 114
1, 729799, Control_c, 0, 67, 118
1, 729828, Control_c, 0, 67, 120
1, 729851, Control_c, 0, 67, 124
1, 729865, Control_c, 0, 67, 127
1, 729970, Control_c, 0, 64, 114
1, 729983, Note_on_c, 0, 68, 42
1, 729985, Control_c, 0, 64, 100
1, 730000, Control_c, 0, 64, 91
1, 730015, Control_c, 0, 64, 81
1, 730030, Control_c, 0, 64, 74
1, 730044, Control_c, 0, 64, 67
1, 730059, Control_c, 0, 64, 60
1, 730074, Control_c, 0, 64, 53
1, 730089, Control_c, 0, 64, 47
1, 730094, Note_on_c, 0, 71, 37
1, 730103, Control_c, 0, 64, 38
1, 730118, Control_c, 0, 64, 0
1, 730218, Note_on_c, 0, 75, 40
1, 730339, Note_on_c, 0, 23, 28
1, 730385, Control_c, 0, 64, 34
1, 730400, Control_c, 0, 64, 42
1, 730415, Control_c, 0, 64, 48
1, 730430, Control_c, 0, 64, 53
1, 730438, Note_on_c, 0, 80, 61
1, 730444, Control_c, 0, 64, 57
1, 730459, Control_c, 0, 64, 60
1, 730474, Control_c, 0, 64, 62
1, 730489, Control_c, 0, 64, 64
1, 730504, Control_c, 0, 64, 67
1, 730519, Control_c, 0, 64, 70
1, 730534, Control_c, 0, 64, 77
1, 730549, Control_c, 0, 64, 88
1, 730563, Control_c, 0, 64, 113
1, 730576, Note_off_c, 0, 23, 33
1, 730578, Control_c, 0, 64, 127
1, 730725, Note_on_c, 0, 35, 29
1, 730775, Note_off_c, 0, 35, 50
1, 730908, Note_on_c, 0, 42, 36
1, 731059, Note_off_c, 0, 42, 43
1, 731074, Note_on_c, 0, 47, 38
1, 731131, Note_off_c, 0, 47, 54
1, 731227, Note_on_c, 0, 51, 40
1, 731240, Note_off_c, 0, 68, 42
1, 731277, Note_off_c, 0, 71, 30
1, 731351, Note_off_c, 0, 51, 52
1, 731363, Note_off_c, 0, 75, 30
1, 731372, Note_on_c, 0, 54, 41
1, 731406, Note_off_c, 0, 80, 53
1, 731422, Note_off_c, 0, 54, 56
1, 731481, Note_on_c, 0, 59, 45
1, 731518, Note_off_c, 0, 59, 60
1, 731586, Note_on_c, 0, 63, 47
1, 731692, Note_on_c, 0, 66, 39
1, 731713, Note_off_c, 0, 63, 61
1, 731751, Note_off_c, 0, 66, 59
1, 731795, Note_on_c, 0, 71, 38
1, 731874, Note_on_c, 0, 75, 41
1, 731900, Note_off_c, 0, 71, 36
1, 731946, Note_off_c, 0, 75, 53
1, 731963, Note_on_c, 0, 78, 49
1, 732041, Note_off_c, 0, 78, 60
1, 732060, Note_on_c, 0, 80, 23
1, 732109, Note_off_c, 0, 80, 53
1, 732124, Note_on_c, 0, 83, 49
1, 732165, Note_off_c, 0, 83, 44
1, 732192, Note_on_c, 0, 87, 55
1, 732243, Note_off_c, 0, 87, 56
1, 732255, Note_on_c, 0, 90, 54
1, 732299, Note_off_c, 0, 90, 59
1, 732331, Note_on_c, 0, 92, 48
1, 732393, Note_on_c, 0, 90, 52
1, 732406, Note_off_c, 0, 92, 58
1, 732446, Note_on_c, 0, 87, 54
1, 732462, Note_off_c, 0, 90, 63
1, 732482, Note_off_c, 0, 87, 66
1, 732516, Note_on_c, 0, 83, 55
1, 732551, Note_off_c, 0, 83, 61
1, 732608, Note_on_c, 0, 80, 54
1, 732680, Note_on_c, 0, 78, 52
1, 732747, Note_on_c, 0, 75, 44
1, 732784, Note_off_c, 0, 80, 38
1, 732791, Note_off_c, 0, 75, 63
1, 732798, Note_off_c, 0, 78, 61
1, 732822, Note_on_c, 0, 71, 44
1, 732896, Note_off_c, 0, 71, 52
1, 732901, Note_on_c, 0, 75, 52
1, 732960, Note_off_c, 0, 75, 51
1, 732963, Note_on_c, 0, 78, 57
1, 733045, Note_on_c, 0, 80, 55
1, 733045, Note_off_c, 0, 78, 59
1, 733080, Note_off_c, 0, 80, 63
1, 733115, Note_on_c, 0, 66, 60
1, 733163, Note_on_c, 0, 83, 24
1, 733191, Note_off_c, 0, 66, 51
1, 733219, Note_off_c, 0, 83, 41
1, 733250, Note_on_c, 0, 87, 45
1, 733300, Note_off_c, 0, 87, 56
1, 733312, Note_on_c, 0, 90, 51
1, 733348, Note_off_c, 0, 90, 64
1, 733386, Note_on_c, 0, 92, 47
1, 733440, Note_on_c, 0, 90, 60
1, 733448, Note_off_c, 0, 92, 58
1, 733453, Note_on_c, 0, 71, 63
1, 733517, Note_off_c, 0, 90, 55
1, 733518, Note_on_c, 0, 87, 53
1, 733554, Note_off_c, 0, 87, 65
1, 733595, Note_on_c, 0, 83, 52
1, 733630, Note_off_c, 0, 83, 60
1, 733688, Note_off_c, 0, 71, 37
1, 733691, Note_on_c, 0, 80, 50
1, 733768, Note_on_c, 0, 78, 50
1, 733867, Note_on_c, 0, 75, 40
1, 733876, Note_on_c, 0, 68, 61
1, 733911, Note_off_c, 0, 68, 64
1, 733928, Note_off_c, 0, 80, 32
1, 733937, Note_off_c, 0, 75, 61
1, 733945, Note_off_c, 0, 78, 53
1, 733983, Note_on_c, 0, 71, 41
1, 734044, Note_off_c, 0, 71, 54
1, 734079, Note_on_c, 0, 75, 40
1, 734113, Note_off_c, 0, 75, 55
1, 734138, Note_on_c, 0, 78, 52
1, 734183, Note_off_c, 0, 78, 59
1, 734204, Note_on_c, 0, 80, 40
1, 734233, Note_off_c, 0, 80, 54
1, 734271, Note_on_c, 0, 83, 55
1, 734296, Note_on_c, 0, 59, 32
1, 734301, Note_on_c, 0, 54, 40
1, 734310, Note_on_c, 0, 51, 30
1, 734335, Note_off_c, 0, 59, 48
1, 734341, Note_off_c, 0, 83, 37
1, 734342, Poly_aftertouch_c, 0, 63, 127
1, 734350, Note_off_c, 0, 54, 52
1, 734354, Note_off_c, 0, 51, 52
1, 734356, Note_on_c, 0, 87, 53
1, 734376, Poly_aftertouch_c, 0, 63, 0
1, 734413, Note_off_c, 0, 87, 56
1, 734418, Note_on_c, 0, 90, 53
1, 734457, Note_off_c, 0, 90, 61
1, 734493, Note_on_c, 0, 92, 45
1, 734545, Note_off_c, 0, 92, 51
1, 734555, Note_on_c, 0, 90, 58
1, 734600, Note_off_c, 0, 90, 53
1, 734610, Note_on_c, 0, 87, 47
1, 734635, Note_off_c, 0, 87, 58
1, 734677, Note_on_c, 0, 83, 49
1, 734706, Note_off_c, 0, 83, 54
1, 734741, Note_on_c, 0, 23, 38
1, 734785, Note_on_c, 0, 80, 46
1, 734786, Note_off_c, 0, 23, 40
1, 734852, Note_on_c, 0, 78, 50
1, 734928, Note_off_c, 0, 80, 37
1, 734931, Note_on_c, 0, 75, 45
1, 734968, Note_off_c, 0, 75, 64
1, 734976, Note_off_c, 0, 78, 57
1, 735016, Note_on_c, 0, 71, 41
1, 735083, Note_on_c, 0, 75, 46
1, 735089, Note_off_c, 0, 71, 41
1, 735136, Note_off_c, 0, 75, 54
1, 735150, Note_on_c, 0, 78, 48
1, 735226, Note_on_c, 0, 80, 59
1, 735229, Note_off_c, 0, 78, 58
1, 735258, Note_off_c, 0, 80, 65
1, 735280, Note_on_c, 0, 66, 60
1, 735312, Note_on_c, 0, 83, 59
1, 735394, Note_on_c, 0, 87, 52
1, 735402, Note_off_c, 0, 83, 34
1, 735454, Note_on_c, 0, 90, 56
1, 735460, Note_off_c, 0, 87, 55
1, 735476, Note_off_c, 0, 66, 58
1, 735490, Note_off_c, 0, 90, 60
1, 735523, Note_on_c, 0, 92, 52
1, 735582, Note_on_c, 0, 71, 63
1, 735588, Note_on_c, 0, 90, 61
1, 735598, Note_off_c, 0, 92, 60
1, 735657, Note_off_c, 0, 90, 58
1, 735659, Note_on_c, 0, 87, 54
1, 735692, Note_off_c, 0, 87, 64
1, 735730, Note_on_c, 0, 83, 48
1, 735763, Note_off_c, 0, 83, 63
1, 735791, Note_off_c, 0, 71, 38
1, 735833, Note_on_c, 0, 80, 45
1, 735912, Note_on_c, 0, 78, 49
1, 735998, Note_on_c, 0, 75, 43
1, 735998, Note_on_c, 0, 68, 57
1, 736001, Note_off_c, 0, 80, 36
1, 736032, Note_off_c, 0, 68, 64
1, 736056, Note_off_c, 0, 75, 60
1, 736075, Note_off_c, 0, 78, 38
1, 736110, Note_on_c, 0, 71, 42
1, 736171, Note_off_c, 0, 71, 49
1, 736189, Note_on_c, 0, 75, 44
1, 736239, Note_off_c, 0, 75, 56
1, 736266, Note_on_c, 0, 78, 52
1, 736320, Note_off_c, 0, 78, 54
1, 736341, Note_on_c, 0, 80, 35
1, 736374, Note_off_c, 0, 80, 53
1, 736413, Note_on_c, 0, 59, 34
1, 736415, Note_on_c, 0, 54, 44
1, 736421, Note_on_c, 0, 63, 26
1, 736423, Note_on_c, 0, 51, 40
1, 736424, Note_on_c, 0, 83, 33
1, 736443, Note_off_c, 0, 59, 55
1, 736459, Note_off_c, 0, 63, 48
1, 736465, Note_off_c, 0, 51, 60
1, 736472, Note_off_c, 0, 83, 43
1, 736474, Note_off_c, 0, 54, 56
1, 736488, Note_on_c, 0, 87, 48
1, 736558, Note_on_c, 0, 90, 50
1, 736563, Note_off_c, 0, 87, 53
1, 736605, Note_off_c, 0, 90, 62
1, 736649, Note_on_c, 0, 92, 39
1, 736708, Note_on_c, 0, 90, 56
1, 736710, Note_off_c, 0, 92, 44
1, 736759, Note_off_c, 0, 90, 53
1, 736772, Note_on_c, 0, 87, 50
1, 736803, Note_off_c, 0, 87, 65
1, 736841, Note_on_c, 0, 83, 51
1, 736862, Note_on_c, 0, 23, 42
1, 736877, Note_off_c, 0, 83, 62
1, 736898, Note_off_c, 0, 23, 58
1, 736940, Note_on_c, 0, 80, 49
1, 737019, Note_on_c, 0, 78, 46
1, 737103, Note_on_c, 0, 75, 40
1, 737116, Note_off_c, 0, 80, 35
1, 737150, Note_off_c, 0, 75, 61
1, 737186, Note_off_c, 0, 78, 36
1, 737192, Note_on_c, 0, 71, 40
1, 737271, Note_on_c, 0, 75, 42
1, 737294, Note_off_c, 0, 71, 37
1, 737340, Note_off_c, 0, 75, 54
1, 737357, Note_on_c, 0, 78, 47
1, 737441, Note_off_c, 0, 78, 57
1, 737447, Note_on_c, 0, 80, 50
1, 737456, Note_on_c, 0, 66, 59
1, 737469, Note_off_c, 0, 80, 61
1, 737522, Note_on_c, 0, 83, 52
1, 737589, Note_off_c, 0, 83, 41
1, 737614, Note_on_c, 0, 87, 50
1, 737657, Note_off_c, 0, 66, 57
1, 737691, Note_on_c, 0, 90, 53
1, 737693, Note_off_c, 0, 87, 58
1, 737750, Note_off_c, 0, 90, 60
1, 737776, Note_on_c, 0, 92, 50
1, 737795, Note_on_c, 0, 71, 50
1, 737859, Note_off_c, 0, 92, 57
1, 737861, Note_on_c, 0, 90, 52
1, 737930, Note_off_c, 0, 90, 62
1, 737935, Note_on_c, 0, 87, 50
1, 737969, Note_off_c, 0, 87, 66
1, 737980, Note_off_c, 0, 71, 36
1, 738008, Note_on_c, 0, 83, 53
1, 738058, Note_off_c, 0, 83, 49
1, 738120, Note_on_c, 0, 80, 46
1, 738168, Note_on_c, 0, 68, 45
1, 738204, Note_on_c, 0, 78, 50
1, 738207, Note_off_c, 0, 68, 55
1, 738282, Control_c, 0, 67, 122
1, 738297, Control_c, 0, 67, 114
1, 738308, Note_on_c, 0, 75, 43
1, 738311, Control_c, 0, 67, 106
1, 738326, Control_c, 0, 67, 100
1, 738341, Control_c, 0, 67, 97
1, 738349, Note_off_c, 0, 80, 32
1, 738356, Control_c, 0, 67, 95
1, 738371, Control_c, 0, 67, 94
1, 738382, Note_off_c, 0, 75, 62
1, 738386, Control_c, 0, 67, 92
1, 738404, Note_off_c, 0, 78, 53
1, 738424, Note_on_c, 0, 71, 39
1, 738445, Control_c, 0, 67, 93
1, 738460, Control_c, 0, 67, 94
1, 738475, Control_c, 0, 67, 95
1, 738490, Control_c, 0, 67, 97
1, 738504, Control_c, 0, 67, 100
1, 738519, Control_c, 0, 67, 103
1, 738526, Note_on_c, 0, 75, 49
1, 738534, Control_c, 0, 67, 105
1, 738568, Note_off_c, 0, 71, 37
1, 738578, Control_c, 0, 67, 107
1, 738608, Control_c, 0, 67, 110
1, 738623, Control_c, 0, 67, 113
1, 738627, Note_off_c, 0, 75, 60
1, 738637, Control_c, 0, 67, 118
1, 738645, Note_on_c, 0, 78, 50
1, 738652, Control_c, 0, 67, 122
1, 738738, Note_off_c, 0, 78, 58
1, 738740, Note_on_c, 0, 80, 54
1, 738772, Control_c, 0, 67, 120
1, 738774, Note_off_c, 0, 80, 62
1, 738839, Control_c, 0, 67, 117
1, 738848, Note_on_c, 0, 83, 47
1, 738913, Control_c, 0, 67, 115
1, 738935, Note_on_c, 0, 87, 60
1, 738986, Control_c, 0, 67, 113
1, 739063, Note_off_c, 0, 83, 33
1, 739074, Note_on_c, 0, 90, 60
1, 739116, Note_off_c, 0, 87, 56
1, 739149, Control_c, 0, 67, 111
1, 739208, Note_on_c, 0, 92, 57
1, 739308, Note_off_c, 0, 90, 33
1, 739345, Note_on_c, 0, 83, 52
1, 739360, Note_off_c, 0, 92, 56
1, 739481, Note_on_c, 0, 87, 55
1, 739647, Note_on_c, 0, 90, 58
1, 739690, Control_c, 0, 67, 109
1, 739691, Note_off_c, 0, 87, 51
1, 739735, Control_c, 0, 67, 106
1, 739750, Control_c, 0, 67, 103
1, 739763, Note_on_c, 0, 92, 47
1, 739764, Control_c, 0, 67, 100
1, 739779, Control_c, 0, 67, 98
1, 739794, Control_c, 0, 67, 95
1, 739808, Control_c, 0, 67, 93
1, 739820, Note_off_c, 0, 90, 36
1, 739823, Control_c, 0, 67, 92
1, 739838, Control_c, 0, 67, 90
1, 739849, Note_off_c, 0, 83, 31
1, 739853, Control_c, 0, 67, 88
1, 739868, Control_c, 0, 67, 86
1, 739882, Control_c, 0, 67, 85
1, 739897, Control_c, 0, 67, 84
1, 739912, Control_c, 0, 67, 83
1, 739927, Control_c, 0, 67, 83
1, 740084, Note_off_c, 0, 92, 31
1, 740160, Note_on_c, 0, 95, 55
1, 740270, Note_off_c, 0, 95, 57
1, 740469, Control_c, 0, 67, 83
1, 740484, Control_c, 0, 67, 84
1, 740499, Control_c, 0, 67, 85
1, 740513, Control_c, 0, 67, 87
1, 740528, Control_c, 0, 67, 88
1, 740543, Control_c, 0, 67, 89
1, 740557, Control_c, 0, 67, 90
1, 740572, Control_c, 0, 67, 91
1, 740587, Control_c, 0, 67, 92
1, 740602, Control_c, 0, 67, 93
1, 740617, Control_c, 0, 67, 94
1, 740631, Control_c, 0, 67, 95
1, 740646, Control_c, 0, 67, 96
1, 740676, Control_c, 0, 67, 98
1, 740705, Control_c, 0, 67, 103
1, 740720, Control_c, 0, 67, 109
1, 740735, Control_c, 0, 67, 115
1, 740750, Control_c, 0, 67, 122
1, 740764, Control_c, 0, 67, 127
1, 741131, Note_on_c, 0, 59, 31
1, 741294, Note_on_c, 0, 63, 46
1, 741304, Note_off_c, 0, 59, 37
1, 741387, Note_on_c, 0, 66, 44
1, 741435, Note_off_c, 0, 63, 56
1, 741450, Note_on_c, 0, 68, 52
1, 741485, Note_off_c, 0, 66, 50
1, 741507, Note_off_c, 0, 68, 56
1, 741555, Note_on_c, 0, 71, 41
1, 741589, Note_on_c, 0, 75, 46
1, 741653, Note_on_c, 0, 78, 48
1, 741734, Note_on_c, 0, 80, 48
1, 741765, Control_c, 0, 67, 122
1, 741779, Control_c, 0, 67, 118
1, 741794, Control_c, 0, 67, 114
1, 741809, Control_c, 0, 67, 110
1, 741832, Control_c, 0, 67, 107
1, 741847, Control_c, 0, 67, 103
1, 741861, Control_c, 0, 67, 99
1, 741876, Control_c, 0, 67, 95
1, 741891, Control_c, 0, 67, 91
1, 741906, Control_c, 0, 67, 87
1, 741921, Control_c, 0, 67, 83
1, 741936, Control_c, 0, 67, 80
1, 741951, Control_c, 0, 67, 77
1, 741966, Control_c, 0, 67, 73
1, 741973, Note_on_c, 0, 83, 58
1, 741981, Control_c, 0, 67, 69
1, 741995, Control_c, 0, 67, 64
1, 742010, Control_c, 0, 67, 59
1, 742025, Note_off_c, 0, 83, 64
1, 742025, Control_c, 0, 67, 53
1, 742040, Control_c, 0, 67, 47
1, 742055, Control_c, 0, 67, 40
1, 742069, Control_c, 0, 67, 32
1, 742084, Control_c, 0, 67, 23
1, 742099, Control_c, 0, 67, 0
1, 742955, Note_off_c, 0, 71, 36
1, 743039, Note_off_c, 0, 75, 33
1, 743109, Note_off_c, 0, 78, 32
1, 743166, Note_off_c, 0, 80, 51
1, 743701, Control_c, 0, 64, 96
1, 743714, Note_on_c, 0, 35, 38
1, 743716, Control_c, 0, 64, 80
1, 743730, Control_c, 0, 64, 68
1, 743745, Control_c, 0, 64, 58
1, 743760, Control_c, 0, 64, 43
1, 743775, Control_c, 0, 64, 33
1, 743790, Control_c, 0, 64, 0
1, 743805, Control_c, 0, 67, 20
1, 743820, Control_c, 0, 64, 33
1, 743820, Control_c, 0, 67, 23
1, 743835, Control_c, 0, 64, 44
1, 743835, Control_c, 0, 67, 25
1, 743849, Control_c, 0, 64, 56
1, 743849, Control_c, 0, 67, 28
1, 743864, Control_c, 0, 64, 65
1, 743864, Control_c, 0, 67, 33
1, 743879, Control_c, 0, 64, 72
1, 743879, Control_c, 0, 67, 42
1, 743893, Control_c, 0, 64, 82
1, 743893, Control_c, 0, 67, 57
1, 743908, Control_c, 0, 64, 99
1, 743908, Control_c, 0, 67, 75
1, 743923, Control_c, 0, 64, 127
1, 743923, Control_c, 0, 67, 97
1, 743936, Note_off_c, 0, 35, 51
1, 743938, Control_c, 0, 67, 113
1, 743953, Control_c, 0, 67, 127
1, 744541, Note_on_c, 0, 63, 38
1, 744547, Note_on_c, 0, 54, 20
1, 744554, Note_on_c, 0, 71, 40
1, 744570, Note_on_c, 0, 47, 8
1, 746873, Poly_aftertouch_c, 0, 68, 127
1, 750570, Poly_aftertouch_c, 0, 68, 0
1, 750764, Note_off_c, 0, 54, 38
1, 750782, Control_c, 0, 67, 124
1, 750797, Control_c, 0, 67, 121
1, 750804, Note_off_c, 0, 71, 36
1, 750819, Control_c, 0, 67, 118
1, 750834, Control_c, 0, 67, 115
1, 750841, Note_off_c, 0, 47, 36
1, 750849, Control_c, 0, 67, 111
1, 750849, Note_off_c, 0, 63, 36
1, 750864, Control_c, 0, 67, 106
1, 750879, Control_c, 0, 67, 102
1, 750893, Control_c, 0, 67, 99
1, 750908, Control_c, 0, 64, 114
1, 750908, Control_c, 0, 67, 95
1, 750923, Control_c, 0, 64, 106
1, 750923, Control_c, 0, 67, 91
1, 750938, Control_c, 0, 64, 100
1, 750938, Control_c, 0, 67, 86
1, 750953, Control_c, 0, 64, 94
1, 750953, Control_c, 0, 67, 81
1, 750967, Control_c, 0, 64, 90
1, 750967, Control_c, 0, 67, 75
1, 750982, Control_c, 0, 64, 85
1, 750982, Control_c, 0, 67, 70
1, 750997, Control_c, 0, 64, 81
1, 750997, Control_c, 0, 67, 65
1, 751011, Control_c, 0, 64, 78
1, 751011, Control_c, 0, 67, 60
1, 751026, Control_c, 0, 64, 75
1, 751026, Control_c, 0, 67, 56
1, 751041, Control_c, 0, 64, 72
1, 751041, Control_c, 0, 67, 51
1, 751056, Control_c, 0, 64, 70
1, 751056, Control_c, 0, 67, 48
1, 751071, Control_c, 0, 64, 68
1, 751071, Control_c, 0, 67, 44
1, 751085, Control_c, 0, 64, 66
1, 751085, Control_c, 0, 67, 41
1, 751100, Control_c, 0, 64, 63
1, 751100, Control_c, 0, 67, 37
1, 751115, Control_c, 0, 64, 61
1, 751115, Control_c, 0, 67, 33
1, 751130, Control_c, 0, 64, 59
1, 751130, Control_c, 0, 67, 29
1, 751145, Control_c, 0, 64, 58
1, 751145, Control_c, 0, 67, 26
1, 751159, Control_c, 0, 64, 58
1, 751159, Control_c, 0, 67, 22
1, 751174, Control_c, 0, 64, 57
1, 751174, Control_c, 0, 67, 19
1, 751189, Control_c, 0, 64, 57
1, 751189, Control_c, 0, 67, 0
1, 751204, Control_c, 0, 64, 56
1, 751219, Control_c, 0, 64, 55
1, 751233, Control_c, 0, 64, 54
1, 751248, Control_c, 0, 64, 53
1, 751263, Control_c, 0, 64, 53
1, 751278, Control_c, 0, 64, 52
1, 751308, Control_c, 0, 64, 52
1, 751323, Control_c, 0, 64, 51
1, 751338, Control_c, 0, 64, 50
1, 751352, Control_c, 0, 64, 50
1, 751397, Control_c, 0, 64, 49
1, 751953, Control_c, 0, 64, 49
1, 752317, Control_c, 0, 64, 49
1, 753644, Control_c, 0, 64, 49
1, 753674, Control_c, 0, 64, 47
1, 753687, Control_c, 0, 64, 44
1, 753702, Control_c, 0, 64, 39
1, 753717, Control_c, 0, 64, 31
1, 753731, Control_c, 0, 64, 0
1, 758944, Control_c, 0, 64, 30
1, 758959, Control_c, 0, 64, 33
1, 758974, Control_c, 0, 64, 35
1, 758989, Control_c, 0, 64, 37
1, 759004, Control_c, 0, 64, 38
1, 759100, Control_c, 0, 64, 38
1, 759189, Control_c, 0, 64, 38
1, 759322, Control_c, 0, 64, 38
1, 759604, Control_c, 0, 64, 38
1, 759619, Control_c, 0, 64, 39
1, 759634, Control_c, 0, 64, 40
1, 759648, Control_c, 0, 64, 40
1, 759663, Control_c, 0, 64, 41
1, 759678, Control_c, 0, 64, 42
1, 759708, Control_c, 0, 64, 42
1, 759938, Control_c, 0, 64, 43
1, 760294, Control_c, 0, 64, 43
1, 760309, Control_c, 0, 64, 44
1, 760323, Control_c, 0, 64, 43
1, 760338, Control_c, 0, 64, 43
1, 760368, Control_c, 0, 64, 42
1, 760412, Control_c, 0, 64, 43
1, 760427, Control_c, 0, 64, 43
1, 760441, Control_c, 0, 64, 44
1, 760456, Control_c, 0, 64, 45
1, 760471, Control_c, 0, 64, 45
1, 760530, Control_c, 0, 64, 44
1, 760552, Control_c, 0, 64, 43
1, 760567, Control_c, 0, 64, 40
1, 760582, Control_c, 0, 64, 37
1, 760596, Control_c, 0, 64, 34
1, 760626, Control_c, 0, 64, 34
1, 760641, Control_c, 0, 64, 34
1, 760656, Control_c, 0, 64, 32
1, 760686, Control_c, 0, 64, 32
1, 760701, Control_c, 0, 64, 33
1, 760715, Control_c, 0, 64, 34
1, 760745, Control_c, 0, 64, 36
1, 760760, Control_c, 0, 64, 38
1, 760775, Control_c, 0, 64, 40
1, 760804, Control_c, 0, 64, 39
1, 760819, Control_c, 0, 64, 39
1, 760834, Control_c, 0, 64, 38
1, 760878, Control_c, 0, 64, 39
1, 760908, Control_c, 0, 64, 40
1, 760922, Control_c, 0, 64, 40
1, 760937, Control_c, 0, 64, 41
1, 760967, Control_c, 0, 64, 42
1, 761011, Control_c, 0, 64, 41
1, 761026, Control_c, 0, 64, 41
1, 761041, Control_c, 0, 64, 40
1, 761072, Control_c, 0, 64, 40
1, 761101, Control_c, 0, 64, 39
1, 761116, Control_c, 0, 64, 39
1, 761145, Control_c, 0, 64, 38
1, 761206, Control_c, 0, 64, 39
1, 761613, Control_c, 0, 64, 38
1, 761687, Control_c, 0, 64, 38
1, 761791, Control_c, 0, 64, 38
1, 761850, Control_c, 0, 64, 39
1, 761881, Control_c, 0, 64, 39
1, 761895, Control_c, 0, 64, 40
1, 761910, Control_c, 0, 64, 40
1, 761925, Control_c, 0, 64, 41
1, 761955, Control_c, 0, 64, 42
1, 761984, Control_c, 0, 64, 42
1, 762081, Control_c, 0, 64, 43
1, 762229, Control_c, 0, 64, 42
1, 762288, Control_c, 0, 64, 43
1, 762302, Control_c, 0, 64, 43
1, 762317, Control_c, 0, 64, 44
1, 762406, Control_c, 0, 64, 43
1, 762510, Control_c, 0, 64, 44
1, 762718, Control_c, 0, 64, 43
1, 762992, Control_c, 0, 64, 44
1, 763037, Control_c, 0, 64, 44
1, 763051, Control_c, 0, 64, 45
1, 763066, Control_c, 0, 64, 45
1, 763125, Control_c, 0, 64, 45
1, 763155, Control_c, 0, 64, 44
1, 763199, Control_c, 0, 64, 45
1, 763229, Control_c, 0, 64, 45
1, 763288, Control_c, 0, 64, 46
1, 763303, Control_c, 0, 64, 46
1, 763467, Control_c, 0, 64, 47
1, 763638, Control_c, 0, 64, 47
1, 763935, Control_c, 0, 64, 48
1, 763949, Control_c, 0, 64, 48
1, 764023, Control_c, 0, 64, 48
1, 764082, Control_c, 0, 64, 48
1, 764112, Control_c, 0, 64, 49
1, 764127, Control_c, 0, 64, 50
1, 764141, Control_c, 0, 64, 50
1, 764156, Control_c, 0, 64, 51
1, 764171, Control_c, 0, 64, 50
1, 764185, Control_c, 0, 64, 50
1, 764200, Control_c, 0, 64, 49
1, 764230, Control_c, 0, 64, 48
1, 764245, Control_c, 0, 64, 48
1, 764260, Control_c, 0, 64, 47
1, 764297, Control_c, 0, 64, 46
1, 764342, Control_c, 0, 64, 46
1, 764371, Control_c, 0, 64, 45
1, 764401, Control_c, 0, 64, 46
1, 764475, Control_c, 0, 64, 46
1, 764489, Control_c, 0, 64, 47
1, 764504, Control_c, 0, 64, 48
1, 764519, Control_c, 0, 64, 48
1, 764534, Control_c, 0, 64, 49
1, 764624, Control_c, 0, 64, 48
1, 764653, Control_c, 0, 64, 48
1, 764697, Control_c, 0, 64, 47
1, 764712, Control_c, 0, 64, 47
1, 764727, Control_c, 0, 64, 46
1, 764757, Control_c, 0, 64, 45
1, 764786, Control_c, 0, 64, 45
1, 764801, Control_c, 0, 64, 44
1, 764815, Control_c, 0, 64, 44
1, 764830, Control_c, 0, 64, 43
1, 764845, Control_c, 0, 64, 43
1, 764860, Control_c, 0, 64, 42
1, 764904, Control_c, 0, 64, 43
1, 764919, Control_c, 0, 64, 43
1, 764934, Control_c, 0, 64, 44
1, 764949, Control_c, 0, 64, 45
1, 764963, Control_c, 0, 64, 46
1, 764978, Control_c, 0, 64, 46
1, 764993, Control_c, 0, 64, 47
1, 765023, Control_c, 0, 64, 47
1, 765045, Control_c, 0, 64, 48
1, 765061, Control_c, 0, 64, 48
1, 765076, Control_c, 0, 64, 49
1, 765120, Control_c, 0, 64, 48
1, 765224, Control_c, 0, 64, 49
1, 765312, Control_c, 0, 64, 48
1, 765357, Control_c, 0, 64, 48
1, 765387, Control_c, 0, 64, 47
1, 765402, Control_c, 0, 64, 46
1, 765417, Control_c, 0, 64, 44
1, 765431, Control_c, 0, 64, 41
1, 765446, Control_c, 0, 64, 35
1, 765461, Control_c, 0, 64, 0
1, 765609, Control_c, 0, 64, 29
1, 765624, Control_c, 0, 64, 33
1, 765638, Control_c, 0, 64, 37
1, 765653, Control_c, 0, 64, 41
1, 765669, Control_c, 0, 64, 44
1, 765684, Control_c, 0, 64, 46
1, 765699, Control_c, 0, 64, 48
1, 765713, Control_c, 0, 64, 49
1, 765728, Control_c, 0, 64, 50
1, 765743, Control_c, 0, 64, 51
1, 765757, Control_c, 0, 64, 51
1, 765795, Control_c, 0, 64, 52
1, 765839, Control_c, 0, 64, 52
1, 766196, Control_c, 0, 64, 53
1, 766492, Control_c, 0, 64, 53
1, 766543, Control_c, 0, 64, 53
1, 766588, Control_c, 0, 64, 52
1, 766603, Control_c, 0, 64, 52
1, 766633, Control_c, 0, 64, 51
1, 766692, Control_c, 0, 64, 52
1, 766767, Control_c, 0, 64, 52
1, 766841, Control_c, 0, 64, 51
1, 766856, Control_c, 0, 64, 48
1, 766871, Control_c, 0, 64, 44
1, 766885, Control_c, 0, 64, 34
1, 766900, Control_c, 0, 64, 0
1, 767075, Note_on_c, 0, 66, 75
1, 767075, Note_on_c, 0, 69, 79
1, 767080, Note_on_c, 0, 62, 71
1, 767098, Note_off_c, 0, 66, 66
1, 767114, Note_off_c, 0, 69, 63
1, 767117, Note_off_c, 0, 62, 62
1, 767315, Note_on_c, 0, 64, 76
1, 767315, Note_on_c, 0, 67, 75
1, 767318, Note_on_c, 0, 57, 80
1, 767339, Note_off_c, 0, 64, 67
1, 767347, Note_off_c, 0, 67, 65
1, 767350, Note_off_c, 0, 57, 67
1, 767550, Note_on_c, 0, 66, 74
1, 767552, Note_on_c, 0, 69, 79
1, 767559, Note_on_c, 0, 62, 73
1, 767580, Note_off_c, 0, 66, 63
1, 767593, Note_off_c, 0, 69, 61
1, 767598, Note_off_c, 0, 62, 61
1, 767779, Note_on_c, 0, 57, 72
1, 767779, Note_on_c, 0, 67, 75
1, 767780, Note_on_c, 0, 64, 76
1, 767804, Note_off_c, 0, 64, 69
1, 767813, Note_off_c, 0, 57, 66
1, 767816, Note_off_c, 0, 67, 64
1, 768005, Note_on_c, 0, 66, 73
1, 768007, Note_on_c, 0, 69, 75
1, 768009, Note_on_c, 0, 62, 66
1, 768043, Note_off_c, 0, 66, 64
1, 768049, Note_off_c, 0, 62, 63
1, 768059, Note_off_c, 0, 69, 61
1, 768125, Note_on_c, 0, 67, 74
1, 768126, Note_on_c, 0, 64, 69
1, 768130, Note_on_c, 0, 57, 64
1, 768153, Note_off_c, 0, 64, 66
1, 768165, Note_off_c, 0, 67, 60
1, 768165, Note_off_c, 0, 57, 62
1, 768225, Note_on_c, 0, 54, 66
1, 768228, Note_on_c, 0, 66, 73
1, 768231, Note_on_c, 0, 62, 70
1, 768258, Note_off_c, 0, 66, 61
1, 768263, Note_off_c, 0, 54, 64
1, 768269, Note_off_c, 0, 62, 64
1, 768325, Note_on_c, 0, 67, 74
1, 768329, Note_on_c, 0, 57, 65
1, 768331, Note_on_c, 0, 64, 54
1, 768350, Note_off_c, 0, 64, 63
1, 768361, Note_off_c, 0, 67, 62
1, 768367, Note_off_c, 0, 57, 62
1, 768440, Note_on_c, 0, 66, 76
1, 768444, Note_on_c, 0, 62, 74
1, 768448, Note_on_c, 0, 69, 74
1, 768468, Note_off_c, 0, 66, 64
1, 768472, Note_off_c, 0, 69, 65
1, 768482, Note_off_c, 0, 62, 63
1, 768675, Note_on_c, 0, 57, 77
1, 768677, Note_on_c, 0, 67, 75
1, 768678, Note_on_c, 0, 64, 75
1, 768699, Note_off_c, 0, 64, 70
1, 768707, Note_off_c, 0, 57, 65
1, 768709, Note_off_c, 0, 67, 65
1, 768910, Note_on_c, 0, 66, 76
1, 768910, Note_on_c, 0, 69, 74
1, 768916, Note_on_c, 0, 62, 69
1, 768943, Note_off_c, 0, 66, 61
1, 768950, Note_off_c, 0, 62, 60
1, 768958, Note_off_c, 0, 69, 61
1, 769022, Note_on_c, 0, 67, 76
1, 769023, Note_on_c, 0, 64, 71
1, 769023, Note_on_c, 0, 57, 67
1, 769051, Note_off_c, 0, 64, 64
1, 769063, Note_off_c, 0, 57, 64
1, 769069, Note_off_c, 0, 67, 60
1, 769127, Note_on_c, 0, 66, 74
1, 769128, Note_on_c, 0, 62, 70
1, 769134, Note_on_c, 0, 54, 71
1, 769163, Note_off_c, 0, 62, 61
1, 769167, Note_off_c, 0, 66, 57
1, 769169, Note_off_c, 0, 54, 65
1, 769224, Note_on_c, 0, 64, 70
1, 769226, Note_on_c, 0, 57, 64
1, 769226, Note_on_c, 0, 67, 72
1, 769252, Note_off_c, 0, 64, 66
1, 769265, Note_off_c, 0, 57, 65
1, 769267, Note_off_c, 0, 67, 60
1, 769342, Note_on_c, 0, 66, 75
1, 769343, Note_on_c, 0, 62, 68
1, 769344, Note_on_c, 0, 69, 79
1, 769370, Note_off_c, 0, 66, 63
1, 769385, Note_off_c, 0, 69, 62
1, 769386, Note_off_c, 0, 62, 60
1, 769576, Note_on_c, 0, 57, 75
1, 769578, Note_on_c, 0, 67, 74
1, 769581, Note_on_c, 0, 64, 72
1, 769605, Note_off_c, 0, 64, 67
1, 769615, Note_off_c, 0, 67, 63
1, 769617, Note_off_c, 0, 57, 62
1, 769797, Note_on_c, 0, 69, 75
1, 769798, Note_on_c, 0, 62, 72
1, 769798, Note_on_c, 0, 66, 74
1, 769833, Note_off_c, 0, 66, 59
1, 769842, Note_off_c, 0, 62, 60
1, 769848, Note_off_c, 0, 69, 60
1, 769907, Note_on_c, 0, 67, 74
1, 769908, Note_on_c, 0, 57, 73
1, 769913, Note_on_c, 0, 64, 67
1, 769941, Note_off_c, 0, 64, 65
1, 769951, Note_off_c, 0, 57, 60
1, 769959, Note_off_c, 0, 67, 61
1, 770008, Note_on_c, 0, 54, 76
1, 770011, Note_on_c, 0, 66, 72
1, 770013, Note_on_c, 0, 62, 66
1, 770048, Note_off_c, 0, 66, 60
1, 770052, Note_off_c, 0, 62, 60
1, 770058, Note_off_c, 0, 54, 57
1, 770100, Note_on_c, 0, 57, 76
1, 770106, Note_on_c, 0, 67, 72
1, 770109, Note_on_c, 0, 64, 68
1, 770139, Note_off_c, 0, 64, 64
1, 770139, Note_off_c, 0, 57, 63
1, 770162, Note_off_c, 0, 67, 61
1, 770219, Note_on_c, 0, 66, 73
1, 770221, Note_on_c, 0, 62, 85
1, 770227, Note_on_c, 0, 69, 66
1, 770247, Note_off_c, 0, 62, 65
1, 770267, Note_off_c, 0, 66, 57
1, 770269, Note_off_c, 0, 69, 57
1, 770463, Note_on_c, 0, 74, 98
1, 770472, Note_on_c, 0, 71, 68
1, 770475, Note_on_c, 0, 67, 65
1, 770480, Control_c, 0, 64, 54
1, 770494, Note_off_c, 0, 74, 66
1, 770495, Control_c, 0, 64, 63
1, 770509, Control_c, 0, 64, 71
1, 770516, Note_off_c, 0, 67, 57
1, 770524, Control_c, 0, 64, 80
1, 770530, Note_off_c, 0, 71, 53
1, 770539, Control_c, 0, 64, 91
1, 770553, Control_c, 0, 64, 98
1, 770688, Control_c, 0, 64, 91
1, 770699, Note_on_c, 0, 62, 84
1, 770701, Note_on_c, 0, 66, 69
1, 770703, Control_c, 0, 64, 83
1, 770705, Note_on_c, 0, 69, 69
1, 770718, Control_c, 0, 64, 73
1, 770732, Control_c, 0, 64, 65
1, 770733, Note_off_c, 0, 66, 61
1, 770741, Note_off_c, 0, 69, 59
1, 770747, Control_c, 0, 64, 56
1, 770749, Note_off_c, 0, 62, 62
1, 770762, Control_c, 0, 64, 46
1, 770776, Control_c, 0, 64, 37
1, 770791, Control_c, 0, 64, 31
1, 770806, Control_c, 0, 64, 0
1, 770813, Note_on_c, 0, 64, 65
1, 770815, Note_on_c, 0, 67, 67
1, 770824, Note_on_c, 0, 57, 49
1, 770838, Note_on_c, 0, 55, 27
1, 770842, Note_off_c, 0, 64, 66
1, 770853, Note_off_c, 0, 57, 61
1, 770853, Note_off_c, 0, 67, 61
1, 770871, Note_off_c, 0, 55, 45
1, 770910, Note_on_c, 0, 54, 75
1, 770918, Note_on_c, 0, 66, 72
1, 770919, Note_on_c, 0, 62, 64
1, 770947, Note_off_c, 0, 66, 62
1, 770955, Note_off_c, 0, 54, 60
1, 770961, Note_off_c, 0, 62, 62
1, 771009, Note_on_c, 0, 57, 70
1, 771016, Note_on_c, 0, 64, 69
1, 771020, Note_on_c, 0, 67, 69
1, 771054, Note_off_c, 0, 57, 64
1, 771059, Note_off_c, 0, 64, 60
1, 771065, Note_off_c, 0, 67, 60
1, 771134, Note_on_c, 0, 62, 87
1, 771137, Note_on_c, 0, 66, 69
1, 771147, Note_on_c, 0, 69, 66
1, 771165, Note_off_c, 0, 62, 66
1, 771175, Note_off_c, 0, 66, 58
1, 771178, Note_off_c, 0, 69, 63
1, 771368, Note_on_c, 0, 74, 98
1, 771376, Control_c, 0, 64, 50
1, 771378, Note_on_c, 0, 67, 68
1, 771383, Note_on_c, 0, 71, 66
1, 771391, Control_c, 0, 64, 61
1, 771400, Note_off_c, 0, 74, 68
1, 771406, Control_c, 0, 64, 67
1, 771421, Control_c, 0, 64, 72
1, 771423, Note_off_c, 0, 67, 54
1, 771428, Note_off_c, 0, 71, 56
1, 771436, Control_c, 0, 64, 77
1, 771452, Control_c, 0, 64, 81
1, 771467, Control_c, 0, 64, 84
1, 771481, Control_c, 0, 64, 86
1, 771511, Control_c, 0, 64, 86
1, 771555, Control_c, 0, 64, 86
1, 771570, Control_c, 0, 64, 85
1, 771585, Control_c, 0, 64, 82
1, 771596, Note_on_c, 0, 66, 73
1, 771597, Note_on_c, 0, 62, 87
1, 771599, Control_c, 0, 64, 76
1, 771602, Note_on_c, 0, 69, 63
1, 771614, Control_c, 0, 64, 69
1, 771629, Control_c, 0, 64, 62
1, 771632, Note_off_c, 0, 66, 56
1, 771637, Note_off_c, 0, 69, 61
1, 771644, Control_c, 0, 64, 52
1, 771655, Note_off_c, 0, 62, 62
1, 771659, Control_c, 0, 64, 43
1, 771673, Control_c, 0, 64, 37
1, 771688, Control_c, 0, 64, 38
1, 771703, Control_c, 0, 64, 38
1, 771709, Note_on_c, 0, 57, 76
1, 771713, Note_on_c, 0, 67, 65
1, 771717, Note_on_c, 0, 64, 59
1, 771744, Note_off_c, 0, 67, 65
1, 771749, Note_off_c, 0, 57, 61
1, 771759, Note_off_c, 0, 64, 64
1, 771763, Control_c, 0, 64, 38
1, 771823, Note_on_c, 0, 54, 79
1, 771833, Note_on_c, 0, 66, 69
1, 771837, Note_on_c, 0, 62, 63
1, 771867, Note_off_c, 0, 66, 62
1, 771869, Note_off_c, 0, 62, 64
1, 771870, Note_off_c, 0, 54, 60
1, 771888, Control_c, 0, 64, 37
1, 771921, Note_on_c, 0, 57, 73
1, 771934, Note_on_c, 0, 67, 72
1, 771941, Note_on_c, 0, 64, 63
1, 771954, Note_off_c, 0, 57, 65
1, 771962, Note_off_c, 0, 67, 65
1, 771984, Note_off_c, 0, 64, 61
1, 772037, Control_c, 0, 64, 36
1, 772037, Note_on_c, 0, 62, 85
1, 772042, Note_on_c, 0, 66, 75
1, 772045, Note_on_c, 0, 69, 69
1, 772052, Control_c, 0, 64, 34
1, 772067, Control_c, 0, 64, 0
1, 772071, Note_off_c, 0, 62, 65
1, 772076, Note_off_c, 0, 66, 61
1, 772078, Note_off_c, 0, 69, 58
1, 772150, Note_on_c, 0, 64, 64
1, 772153, Note_on_c, 0, 67, 66
1, 772195, Note_off_c, 0, 67, 62
1, 772199, Note_off_c, 0, 64, 59
1, 772265, Note_on_c, 0, 74, 95
1, 772270, Note_on_c, 0, 66, 66
1, 772275, Control_c, 0, 64, 37
1, 772279, Note_on_c, 0, 69, 56
1, 772290, Control_c, 0, 64, 56
1, 772297, Note_off_c, 0, 74, 66
1, 772304, Note_off_c, 0, 66, 62
1, 772304, Control_c, 0, 64, 66
1, 772317, Note_off_c, 0, 69, 61
1, 772319, Control_c, 0, 64, 75
1, 772334, Control_c, 0, 64, 88
1, 772348, Control_c, 0, 64, 122
1, 772363, Control_c, 0, 64, 127
1, 772383, Note_on_c, 0, 67, 69
1, 772389, Note_on_c, 0, 71, 63
1, 772425, Note_off_c, 0, 67, 59
1, 772429, Note_off_c, 0, 71, 55
1, 772488, Note_on_c, 0, 62, 85
1, 772503, Note_on_c, 0, 66, 68
1, 772506, Note_on_c, 0, 69, 63
1, 772511, Control_c, 0, 64, 100
1, 772534, Control_c, 0, 64, 80
1, 772543, Note_off_c, 0, 66, 65
1, 772549, Note_off_c, 0, 62, 63
1, 772549, Control_c, 0, 64, 64
1, 772553, Note_off_c, 0, 69, 58
1, 772563, Control_c, 0, 64, 42
1, 772578, Control_c, 0, 64, 0
1, 772610, Note_on_c, 0, 57, 74
1, 772612, Note_on_c, 0, 67, 72
1, 772621, Note_on_c, 0, 64, 50
1, 772642, Note_off_c, 0, 67, 64
1, 772652, Note_off_c, 0, 57, 64
1, 772657, Note_off_c, 0, 64, 65
1, 772714, Note_on_c, 0, 54, 78
1, 772717, Note_on_c, 0, 66, 75
1, 772728, Note_on_c, 0, 62, 60
1, 772752, Note_off_c, 0, 66, 60
1, 772759, Note_off_c, 0, 62, 65
1, 772770, Note_off_c, 0, 54, 62
1, 772815, Note_on_c, 0, 57, 73
1, 772822, Note_on_c, 0, 67, 73
1, 772833, Note_on_c, 0, 64, 61
1, 772850, Note_off_c, 0, 57, 65
1, 772857, Note_off_c, 0, 67, 66
1, 772872, Note_off_c, 0, 64, 61
1, 772930, Note_on_c, 0, 66, 78
1, 772931, Note_on_c, 0, 62, 87
1, 772937, Note_on_c, 0, 69, 65
1, 772964, Note_off_c, 0, 62, 65
1, 772966, Note_off_c, 0, 69, 65
1, 772969, Note_off_c, 0, 66, 57
1, 773034, Note_on_c, 0, 67, 70
1, 773042, Note_on_c, 0, 64, 61
1, 773089, Note_off_c, 0, 64, 58
1, 773092, Note_off_c, 0, 67, 59
1, 773152, Note_on_c, 0, 74, 100
1, 773157, Note_on_c, 0, 66, 69
1, 773157, Control_c, 0, 64, 45
1, 773169, Note_on_c, 0, 69, 59
1, 773171, Control_c, 0, 64, 60
1, 773185, Note_off_c, 0, 74, 67
1, 773186, Control_c, 0, 64, 67
1, 773197, Note_off_c, 0, 66, 56
1, 773201, Control_c, 0, 64, 75
1, 773212, Note_off_c, 0, 69, 57
1, 773216, Control_c, 0, 64, 82
1, 773231, Control_c, 0, 64, 87
1, 773245, Control_c, 0, 64, 89
1, 773260, Control_c, 0, 64, 90
1, 773278, Note_on_c, 0, 67, 59
1, 773283, Note_on_c, 0, 71, 68
1, 773316, Note_off_c, 0, 67, 60
1, 773334, Note_off_c, 0, 71, 49
1, 773357, Control_c, 0, 64, 88
1, 773372, Control_c, 0, 64, 83
1, 773386, Control_c, 0, 64, 76
1, 773388, Note_on_c, 0, 50, 86
1, 773388, Note_on_c, 0, 62, 81
1, 773400, Note_on_c, 0, 66, 66
1, 773401, Control_c, 0, 64, 69
1, 773407, Note_on_c, 0, 69, 55
1, 773416, Control_c, 0, 64, 63
1, 773425, Note_off_c, 0, 62, 59
1, 773430, Note_off_c, 0, 66, 63
1, 773431, Control_c, 0, 64, 56
1, 773436, Note_off_c, 0, 50, 60
1, 773444, Note_off_c, 0, 69, 58
1, 773446, Control_c, 0, 64, 49
1, 773460, Control_c, 0, 64, 45
1, 773490, Control_c, 0, 64, 46
1, 773506, Note_on_c, 0, 67, 65
1, 773511, Note_on_c, 0, 64, 56
1, 773542, Note_off_c, 0, 67, 65
1, 773557, Note_off_c, 0, 64, 62
1, 773564, Control_c, 0, 64, 46
1, 773611, Note_on_c, 0, 45, 91
1, 773613, Note_on_c, 0, 57, 83
1, 773621, Note_on_c, 0, 66, 73
1, 773626, Note_on_c, 0, 62, 71
1, 773650, Note_off_c, 0, 57, 62
1, 773660, Note_off_c, 0, 62, 63
1, 773662, Note_off_c, 0, 66, 58
1, 773663, Note_off_c, 0, 45, 64
1, 773668, Control_c, 0, 64, 45
1, 773723, Note_on_c, 0, 67, 77
1, 773735, Note_on_c, 0, 64, 67
1, 773772, Note_off_c, 0, 67, 63
1, 773786, Control_c, 0, 64, 46
1, 773787, Note_off_c, 0, 64, 61
1, 773829, Note_on_c, 0, 50, 92
1, 773830, Note_on_c, 0, 38, 92
1, 773831, Control_c, 0, 64, 45
1, 773836, Note_on_c, 0, 66, 77
1, 773846, Note_on_c, 0, 69, 67
1, 773876, Control_c, 0, 64, 45
1, 773876, Note_off_c, 0, 50, 62
1, 773883, Note_off_c, 0, 69, 60
1, 773884, Note_off_c, 0, 66, 59
1, 773888, Note_off_c, 0, 38, 63
1, 773936, Note_on_c, 0, 67, 79
1, 773948, Note_on_c, 0, 64, 67
1, 773951, Control_c, 0, 64, 44
1, 773966, Control_c, 0, 64, 44
1, 773987, Note_off_c, 0, 67, 64
1, 773994, Note_off_c, 0, 64, 61
1, 774010, Control_c, 0, 64, 43
1, 774059, Note_on_c, 0, 45, 92
1, 774062, Control_c, 0, 64, 42
1, 774064, Note_on_c, 0, 33, 89
1, 774065, Note_on_c, 0, 66, 78
1, 774073, Note_on_c, 0, 62, 72
1, 774076, Control_c, 0, 64, 40
1, 774077, Note_on_c, 0, 31, 57
1, 774091, Control_c, 0, 64, 34
1, 774095, Note_off_c, 0, 45, 61
1, 774098, Note_off_c, 0, 31, 40
1, 774103, Note_off_c, 0, 62, 63
1, 774106, Control_c, 0, 64, 0
1, 774115, Note_off_c, 0, 66, 60
1, 774115, Note_off_c, 0, 33, 64
1, 774170, Note_on_c, 0, 67, 73
1, 774179, Note_on_c, 0, 64, 70
1, 774214, Note_off_c, 0, 67, 63
1, 774227, Note_off_c, 0, 64, 60
1, 774288, Note_on_c, 0, 26, 96
1, 774288, Note_on_c, 0, 38, 95
1, 774290, Note_on_c, 0, 66, 75
1, 774295, Note_on_c, 0, 69, 66
1, 774314, Control_c, 0, 64, 56
1, 774325, Note_off_c, 0, 66, 60
1, 774328, Control_c, 0, 64, 67
1, 774333, Note_off_c, 0, 69, 60
1, 774343, Control_c, 0, 64, 75
1, 774358, Control_c, 0, 64, 84
1, 774373, Control_c, 0, 64, 91
1, 774388, Control_c, 0, 64, 95
1, 774398, Note_on_c, 0, 67, 72
1, 774402, Control_c, 0, 64, 97
1, 774404, Note_on_c, 0, 64, 63
1, 774431, Note_off_c, 0, 67, 63
1, 774432, Control_c, 0, 64, 99
1, 774440, Note_off_c, 0, 64, 62
1, 774462, Control_c, 0, 64, 101
1, 774482, Note_off_c, 0, 26, 62
1, 774506, Control_c, 0, 64, 103
1, 774508, Note_on_c, 0, 66, 79
1, 774513, Note_on_c, 0, 62, 66
1, 774542, Note_off_c, 0, 62, 65
1, 774547, Note_off_c, 0, 38, 59
1, 774549, Note_off_c, 0, 66, 60
1, 774616, Note_on_c, 0, 67, 78
1, 774627, Note_on_c, 0, 64, 66
1, 774660, Note_off_c, 0, 64, 59
1, 774664, Note_off_c, 0, 67, 63
1, 774728, Note_on_c, 0, 66, 79
1, 774738, Note_on_c, 0, 69, 64
1, 774771, Note_off_c, 0, 66, 55
1, 774775, Note_off_c, 0, 69, 66
1, 774833, Note_on_c, 0, 67, 77
1, 774837, Note_on_c, 0, 64, 69
1, 774886, Note_off_c, 0, 64, 55
1, 774887, Note_off_c, 0, 67, 62
1, 774914, Control_c, 0, 64, 101
1, 774951, Note_on_c, 0, 74, 104
1, 774955, Note_on_c, 0, 66, 69
1, 774961, Note_on_c, 0, 69, 57
1, 774987, Note_off_c, 0, 74, 68
1, 774988, Control_c, 0, 64, 98
1, 774988, Note_off_c, 0, 66, 57
1, 774996, Note_off_c, 0, 69, 61
1, 775018, Control_c, 0, 64, 96
1, 775032, Control_c, 0, 64, 95
1, 775047, Control_c, 0, 64, 94
1, 775059, Note_on_c, 0, 67, 71
1, 775062, Control_c, 0, 64, 93
1, 775065, Note_on_c, 0, 71, 71
1, 775076, Control_c, 0, 64, 92
1, 775091, Control_c, 0, 64, 92
1, 775105, Note_off_c, 0, 67, 58
1, 775106, Control_c, 0, 64, 91
1, 775121, Control_c, 0, 64, 90
1, 775126, Note_off_c, 0, 71, 57
1, 775136, Control_c, 0, 64, 89
1, 775150, Control_c, 0, 64, 88
1, 775165, Control_c, 0, 64, 83
1, 775180, Note_on_c, 0, 62, 79
1, 775180, Control_c, 0, 64, 73
1, 775184, Note_on_c, 0, 66, 69
1, 775185, Note_on_c, 0, 50, 81
1, 775195, Note_on_c, 0, 69, 57
1, 775195, Control_c, 0, 64, 61
1, 775210, Control_c, 0, 64, 37
1, 775212, Note_off_c, 0, 62, 63
1, 775215, Note_off_c, 0, 66, 62
1, 775224, Control_c, 0, 64, 0
1, 775228, Note_off_c, 0, 69, 64
1, 775232, Note_off_c, 0, 50, 61
1, 775294, Note_on_c, 0, 67, 70
1, 775295, Note_on_c, 0, 64, 62
1, 775325, Note_off_c, 0, 67, 64
1, 775338, Note_off_c, 0, 64, 64
1, 775394, Note_on_c, 0, 45, 84
1, 775396, Note_on_c, 0, 57, 78
1, 775408, Note_on_c, 0, 66, 71
1, 775412, Note_on_c, 0, 62, 68
1, 775424, Note_off_c, 0, 57, 65
1, 775443, Note_off_c, 0, 62, 63
1, 775443, Note_off_c, 0, 66, 61
1, 775446, Note_off_c, 0, 45, 64
1, 775510, Note_on_c, 0, 67, 74
1, 775522, Note_on_c, 0, 64, 65
1, 775555, Note_off_c, 0, 67, 63
1, 775575, Note_off_c, 0, 64, 60
1, 775620, Note_on_c, 0, 50, 85
1, 775622, Note_on_c, 0, 38, 89
1, 775626, Note_on_c, 0, 66, 75
1, 775631, Note_on_c, 0, 69, 68
1, 775663, Note_off_c, 0, 66, 59
1, 775664, Note_off_c, 0, 50, 61
1, 775665, Note_off_c, 0, 69, 59
1, 775674, Note_off_c, 0, 38, 65
1, 775726, Note_on_c, 0, 67, 75
1, 775740, Note_on_c, 0, 64, 60
1, 775773, Note_off_c, 0, 67, 61
1, 775783, Note_off_c, 0, 64, 63
1, 775838, Note_on_c, 0, 45, 89
1, 775838, Note_on_c, 0, 33, 91
1, 775844, Note_on_c, 0, 66, 75
1, 775850, Note_on_c, 0, 62, 71
1, 775876, Note_off_c, 0, 45, 62
1, 775877, Note_off_c, 0, 66, 63
1, 775882, Note_off_c, 0, 62, 62
1, 775891, Note_off_c, 0, 33, 64
1, 775947, Note_on_c, 0, 67, 73
1, 775951, Note_on_c, 0, 64, 73
1, 775979, Note_off_c, 0, 67, 66
1, 775997, Note_off_c, 0, 64, 61
1, 776060, Note_on_c, 0, 38, 95
1, 776061, Note_on_c, 0, 26, 96
1, 776063, Note_on_c, 0, 66, 73
1, 776067, Note_on_c, 0, 69, 66
1, 776091, Control_c, 0, 64, 60
1, 776098, Note_off_c, 0, 66, 60
1, 776103, Note_off_c, 0, 69, 60
1, 776106, Control_c, 0, 64, 69
1, 776121, Control_c, 0, 64, 74
1, 776136, Control_c, 0, 64, 79
1, 776152, Control_c, 0, 64, 81
1, 776166, Control_c, 0, 64, 83
1, 776175, Note_on_c, 0, 67, 69
1, 776178, Note_on_c, 0, 64, 64
1, 776181, Control_c, 0, 64, 85
1, 776196, Control_c, 0, 64, 88
1, 776206, Note_off_c, 0, 67, 65
1, 776211, Control_c, 0, 64, 89
1, 776213, Note_off_c, 0, 64, 64
1, 776225, Control_c, 0, 64, 91
1, 776242, Control_c, 0, 64, 92
1, 776257, Control_c, 0, 64, 94
1, 776279, Control_c, 0, 64, 95
1, 776291, Note_on_c, 0, 66, 78
1, 776300, Note_off_c, 0, 26, 54
1, 776304, Note_on_c, 0, 62, 67
1, 776333, Note_off_c, 0, 62, 65
1, 776342, Note_off_c, 0, 66, 60
1, 776398, Note_off_c, 0, 38, 61
1, 776403, Note_on_c, 0, 67, 80
1, 776413, Note_on_c, 0, 64, 65
1, 776449, Note_off_c, 0, 64, 59
1, 776451, Note_off_c, 0, 67, 63
1, 776509, Note_on_c, 0, 66, 85
1, 776520, Note_on_c, 0, 69, 69
1, 776547, Note_off_c, 0, 69, 62
1, 776559, Note_off_c, 0, 66, 61
1, 776611, Note_on_c, 0, 64, 72
1, 776612, Note_on_c, 0, 67, 75
1, 776634, Control_c, 0, 64, 96
1, 776663, Control_c, 0, 64, 95
1, 776668, Note_off_c, 0, 67, 61
1, 776669, Note_off_c, 0, 64, 61
1, 776693, Control_c, 0, 64, 95
1, 776723, Control_c, 0, 64, 94
1, 776724, Note_on_c, 0, 74, 102
1, 776731, Note_on_c, 0, 66, 70
1, 776738, Control_c, 0, 64, 92
1, 776742, Note_on_c, 0, 69, 55
1, 776753, Control_c, 0, 64, 88
1, 776759, Note_off_c, 0, 66, 59
1, 776760, Note_off_c, 0, 74, 69
1, 776767, Note_off_c, 0, 69, 59
1, 776768, Control_c, 0, 64, 85
1, 776783, Control_c, 0, 64, 81
1, 776797, Control_c, 0, 64, 79
1, 776812, Control_c, 0, 64, 77
1, 776827, Control_c, 0, 64, 77
1, 776837, Note_on_c, 0, 67, 70
1, 776839, Note_on_c, 0, 71, 74
1, 776841, Control_c, 0, 64, 76
1, 776871, Control_c, 0, 64, 75
1, 776872, Note_off_c, 0, 67, 61
1, 776896, Note_off_c, 0, 71, 50
1, 776901, Control_c, 0, 64, 75
1, 776945, Control_c, 0, 64, 74
1, 776953, Note_on_c, 0, 62, 89
1, 776958, Note_on_c, 0, 66, 70
1, 776960, Control_c, 0, 64, 70
1, 776967, Note_on_c, 0, 69, 47
1, 776975, Control_c, 0, 64, 58
1, 776988, Note_off_c, 0, 66, 60
1, 776989, Control_c, 0, 64, 0
1, 777004, Note_off_c, 0, 62, 65
1, 777007, Note_off_c, 0, 69, 64
1, 777066, Note_on_c, 0, 57, 80
1, 777072, Note_on_c, 0, 67, 67
1, 777084, Note_on_c, 0, 64, 52
1, 777090, Note_off_c, 0, 57, 69
1, 777108, Note_off_c, 0, 67, 62
1, 777119, Note_off_c, 0, 64, 65
1, 777175, Note_on_c, 0, 50, 84
1, 777181, Note_on_c, 0, 66, 74
1, 777184, Note_on_c, 0, 62, 68
1, 777215, Note_off_c, 0, 66, 63
1, 777216, Note_off_c, 0, 62, 63
1, 777224, Note_off_c, 0, 50, 61
1, 777262, Note_on_c, 0, 45, 77
1, 777282, Note_on_c, 0, 67, 75
1, 777291, Note_on_c, 0, 64, 64
1, 777300, Note_off_c, 0, 45, 63
1, 777324, Note_off_c, 0, 67, 61
1, 777333, Note_off_c, 0, 64, 61
1, 777383, Note_on_c, 0, 38, 91
1, 777396, Note_on_c, 0, 66, 76
1, 777402, Note_on_c, 0, 69, 61
1, 777412, Control_c, 0, 64, 65
1, 777427, Note_off_c, 0, 38, 60
1, 777427, Control_c, 0, 64, 108
1, 777432, Note_off_c, 0, 66, 58
1, 777433, Note_off_c, 0, 69, 63
1, 777442, Control_c, 0, 64, 127
1, 777498, Note_on_c, 0, 67, 71
1, 777498, Note_on_c, 0, 64, 68
1, 777558, Note_off_c, 0, 64, 59
1, 777559, Note_off_c, 0, 67, 58
1, 777609, Note_on_c, 0, 74, 104
1, 777613, Note_on_c, 0, 66, 69
1, 777620, Note_on_c, 0, 69, 59
1, 777638, Note_off_c, 0, 74, 70
1, 777648, Note_off_c, 0, 66, 58
1, 777656, Note_off_c, 0, 69, 54
1, 777718, Note_on_c, 0, 67, 69
1, 777722, Note_on_c, 0, 71, 71
1, 777756, Note_off_c, 0, 67, 60
1, 777775, Control_c, 0, 64, 89
1, 777790, Note_off_c, 0, 71, 55
1, 777790, Control_c, 0, 64, 63
1, 777805, Control_c, 0, 64, 0
1, 777837, Note_on_c, 0, 62, 88
1, 777842, Note_on_c, 0, 66, 69
1, 777849, Note_on_c, 0, 69, 55
1, 777878, Note_off_c, 0, 66, 61
1, 777888, Note_off_c, 0, 69, 62
1, 777889, Note_off_c, 0, 62, 64
1, 777948, Note_on_c, 0, 57, 80
1, 777951, Note_on_c, 0, 67, 68
1, 777963, Note_on_c, 0, 64, 51
1, 777978, Note_off_c, 0, 57, 67
1, 777983, Note_off_c, 0, 67, 63
1, 777996, Note_off_c, 0, 64, 65
1, 778056, Note_on_c, 0, 50, 81
1, 778062, Note_on_c, 0, 62, 70
1, 778062, Note_on_c, 0, 66, 73
1, 778089, Note_off_c, 0, 66, 65
1, 778093, Note_off_c, 0, 62, 62
1, 778105, Note_off_c, 0, 50, 60
1, 778146, Note_on_c, 0, 45, 77
1, 778160, Note_on_c, 0, 67, 72
1, 778172, Note_on_c, 0, 64, 60
1, 778181, Note_off_c, 0, 45, 66
1, 778194, Note_off_c, 0, 67, 65
1, 778210, Note_off_c, 0, 64, 58
1, 778264, Note_on_c, 0, 38, 91
1, 778277, Note_on_c, 0, 66, 73
1, 778280, Note_on_c, 0, 69, 66
1, 778280, Control_c, 0, 64, 37
1, 778294, Control_c, 0, 64, 81
1, 778307, Note_off_c, 0, 66, 61
1, 778309, Control_c, 0, 64, 127
1, 778310, Note_off_c, 0, 38, 65
1, 778310, Note_off_c, 0, 69, 60
1, 778377, Note_on_c, 0, 64, 65
1, 778378, Note_on_c, 0, 67, 72
1, 778430, Note_off_c, 0, 64, 60
1, 778431, Note_off_c, 0, 67, 60
1, 778485, Note_on_c, 0, 74, 104
1, 778491, Note_on_c, 0, 66, 69
1, 778498, Note_on_c, 0, 69, 58
1, 778526, Note_off_c, 0, 74, 67
1, 778529, Note_off_c, 0, 66, 60
1, 778540, Note_off_c, 0, 69, 58
1, 778603, Note_on_c, 0, 67, 66
1, 778607, Note_on_c, 0, 71, 65
1, 778644, Note_off_c, 0, 67, 61
1, 778644, Control_c, 0, 64, 107
1, 778659, Control_c, 0, 64, 88
1, 778667, Note_off_c, 0, 71, 49
1, 778673, Control_c, 0, 64, 72
1, 778688, Control_c, 0, 64, 59
1, 778703, Control_c, 0, 64, 43
1, 778717, Control_c, 0, 64, 29
1, 778723, Note_on_c, 0, 62, 75
1, 778725, Note_on_c, 0, 66, 61
1, 778726, Note_on_c, 0, 50, 76
1, 778735, Note_on_c, 0, 69, 49
1, 778747, Control_c, 0, 64, 39
1, 778759, Note_off_c, 0, 66, 63
1, 778762, Control_c, 0, 64, 49
1, 778772, Note_off_c, 0, 69, 55
1, 778777, Control_c, 0, 64, 58
1, 778792, Control_c, 0, 64, 62
1, 778807, Control_c, 0, 64, 65
1, 778817, Note_off_c, 0, 62, 62
1, 778822, Note_off_c, 0, 50, 58
1, 778822, Control_c, 0, 64, 69
1, 778832, Note_on_c, 0, 67, 61
1, 778837, Control_c, 0, 64, 72
1, 778837, Note_on_c, 0, 64, 53
1, 778851, Control_c, 0, 64, 75
1, 778865, Note_off_c, 0, 67, 65
1, 778866, Control_c, 0, 64, 75
1, 778876, Note_off_c, 0, 64, 64
1, 778881, Control_c, 0, 64, 74
1, 778896, Control_c, 0, 64, 70
1, 778911, Control_c, 0, 64, 63
1, 778925, Control_c, 0, 64, 53
1, 778940, Control_c, 0, 64, 45
1, 778951, Note_on_c, 0, 61, 86
1, 778953, Note_on_c, 0, 66, 64
1, 778955, Control_c, 0, 64, 45
1, 778959, Note_on_c, 0, 49, 82
1, 778962, Note_on_c, 0, 62, 60
1, 778970, Control_c, 0, 64, 52
1, 778985, Control_c, 0, 64, 59
1, 778987, Note_off_c, 0, 66, 60
1, 778992, Note_off_c, 0, 62, 66
1, 778999, Control_c, 0, 64, 64
1, 779014, Control_c, 0, 64, 68
1, 779024, Note_off_c, 0, 61, 61
1, 779029, Control_c, 0, 64, 74
1, 779032, Note_off_c, 0, 49, 63
1, 779043, Control_c, 0, 64, 80
1, 779058, Note_on_c, 0, 67, 71
1, 779058, Control_c, 0, 64, 83
1, 779069, Note_on_c, 0, 64, 63
1, 779073, Control_c, 0, 64, 83
1, 779103, Control_c, 0, 64, 82
1, 779105, Note_off_c, 0, 64, 62
1, 779105, Note_off_c, 0, 67, 59
1, 779117, Control_c, 0, 64, 75
1, 779132, Control_c, 0, 64, 66
1, 779147, Control_c, 0, 64, 53
1, 779162, Control_c, 0, 64, 41
1, 779177, Note_on_c, 0, 59, 87
1, 779177, Control_c, 0, 64, 39
1, 779179, Note_on_c, 0, 66, 73
1, 779182, Note_on_c, 0, 47, 85
1, 779187, Note_on_c, 0, 69, 65
1, 779191, Control_c, 0, 64, 48
1, 779206, Control_c, 0, 64, 59
1, 779221, Note_off_c, 0, 66, 57
1, 779221, Control_c, 0, 64, 66
1, 779224, Note_off_c, 0, 69, 58
1, 779236, Note_off_c, 0, 59, 64
1, 779236, Control_c, 0, 64, 73
1, 779236, Note_off_c, 0, 47, 63
1, 779251, Control_c, 0, 64, 80
1, 779273, Control_c, 0, 64, 84
1, 779288, Control_c, 0, 64, 86
1, 779292, Note_on_c, 0, 67, 72
1, 779297, Note_on_c, 0, 64, 66
1, 779336, Note_off_c, 0, 67, 59
1, 779338, Note_off_c, 0, 64, 61
1, 779347, Control_c, 0, 64, 85
1, 779362, Control_c, 0, 64, 84
1, 779377, Control_c, 0, 64, 83
1, 779391, Control_c, 0, 64, 82
1, 779405, Note_on_c, 0, 57, 87
1, 779406, Control_c, 0, 64, 81
1, 779407, Note_on_c, 0, 45, 90
1, 779412, Note_on_c, 0, 62, 70
1, 779414, Note_on_c, 0, 66, 77
1, 779421, Control_c, 0, 64, 79
1, 779437, Control_c, 0, 64, 78
1, 779451, Note_off_c, 0, 57, 64
1, 779452, Note_off_c, 0, 66, 56
1, 779452, Control_c, 0, 64, 77
1, 779453, Note_off_c, 0, 45, 65
1, 779454, Note_off_c, 0, 62, 59
1, 779466, Control_c, 0, 64, 76
1, 779481, Control_c, 0, 64, 76
1, 779496, Control_c, 0, 64, 75
1, 779511, Control_c, 0, 64, 75
1, 779514, Note_on_c, 0, 67, 74
1, 779516, Note_on_c, 0, 43, 88
1, 779517, Note_on_c, 0, 55, 90
1, 779519, Note_on_c, 0, 64, 71
1, 779526, Control_c, 0, 64, 74
1, 779540, Control_c, 0, 64, 72
1, 779555, Control_c, 0, 64, 66
1, 779561, Note_off_c, 0, 55, 65
1, 779564, Note_off_c, 0, 67, 63
1, 779570, Control_c, 0, 64, 56
1, 779576, Note_off_c, 0, 43, 62
1, 779576, Note_off_c, 0, 64, 59
1, 779585, Control_c, 0, 64, 41
1, 779600, Control_c, 0, 64, 0
1, 779623, Note_on_c, 0, 54, 92
1, 779623, Note_on_c, 0, 66, 83
1, 779629, Note_on_c, 0, 42, 89
1, 779629, Control_c, 0, 64, 30
1, 779632, Note_on_c, 0, 69, 72
1, 779644, Control_c, 0, 64, 42
1, 779659, Control_c, 0, 64, 52
1, 779668, Note_off_c, 0, 69, 64
1, 779670, Note_off_c, 0, 66, 60
1, 779674, Control_c, 0, 64, 57
1, 779704, Note_off_c, 0, 54, 63
1, 779704, Control_c, 0, 64, 55
1, 779719, Control_c, 0, 64, 52
1, 779734, Control_c, 0, 64, 49
1, 779734, Note_on_c, 0, 71, 82
1, 779737, Note_on_c, 0, 67, 72
1, 779748, Control_c, 0, 64, 48
1, 779763, Control_c, 0, 64, 48
1, 779773, Note_off_c, 0, 67, 62
1, 779778, Control_c, 0, 64, 49
1, 779779, Note_off_c, 0, 71, 67
1, 779783, Note_off_c, 0, 42, 62
1, 779793, Control_c, 0, 64, 51
1, 779808, Control_c, 0, 64, 53
1, 779822, Control_c, 0, 64, 54
1, 779837, Control_c, 0, 64, 54
1, 779841, Note_on_c, 0, 69, 83
1, 779841, Note_on_c, 0, 73, 83
1, 779844, Note_on_c, 0, 52, 92
1, 779847, Note_on_c, 0, 40, 86
1, 779874, Note_off_c, 0, 69, 64
1, 779892, Note_off_c, 0, 73, 63
1, 779940, Control_c, 0, 64, 55
1, 779941, Note_off_c, 0, 52, 54
1, 779947, Note_on_c, 0, 74, 86
1, 779949, Note_on_c, 0, 71, 78
1, 779969, Note_off_c, 0, 40, 63
1, 779990, Note_off_c, 0, 71, 63
1, 779994, Note_off_c, 0, 74, 62
1, 780067, Note_on_c, 0, 50, 90
1, 780068, Note_on_c, 0, 73, 90
1, 780068, Note_on_c, 0, 76, 88
1, 780071, Note_on_c, 0, 38, 88
1, 780081, Control_c, 0, 64, 54
1, 780096, Control_c, 0, 64, 53
1, 780106, Note_off_c, 0, 73, 64
1, 780111, Control_c, 0, 64, 50
1, 780121, Note_off_c, 0, 76, 65
1, 780126, Control_c, 0, 64, 46
1, 780140, Control_c, 0, 64, 41
1, 780155, Control_c, 0, 64, 38
1, 780157, Note_off_c, 0, 50, 54
1, 780167, Note_on_c, 0, 78, 93
1, 780170, Control_c, 0, 64, 35
1, 780178, Note_on_c, 0, 74, 84
1, 780184, Control_c, 0, 64, 30
1, 780199, Control_c, 0, 64, 0
1, 780212, Note_off_c, 0, 38, 61
1, 780220, Note_off_c, 0, 74, 60
1, 780229, Note_off_c, 0, 78, 64
1, 780288, Note_on_c, 0, 76, 97
1, 780288, Note_on_c, 0, 79, 93
1, 780294, Note_on_c, 0, 37, 79
1, 780295, Note_on_c, 0, 49, 79
1, 780336, Note_off_c, 0, 76, 64
1, 780348, Note_off_c, 0, 79, 67
1, 780349, Note_off_c, 0, 49, 64
1, 780400, Note_on_c, 0, 81, 94
1, 780402, Note_off_c, 0, 37, 56
1, 780404, Note_on_c, 0, 78, 86
1, 780450, Note_off_c, 0, 78, 64
1, 780461, Note_off_c, 0, 81, 64
1, 780559, Note_on_c, 0, 83, 102
1, 780560, Note_on_c, 0, 47, 96
1, 780560, Note_on_c, 0, 78, 87
1, 780560, Note_on_c, 0, 74, 93
1, 780562, Note_on_c, 0, 71, 100
1, 780563, Note_on_c, 0, 35, 93
1, 780586, Control_c, 0, 64, 91
1, 780594, Note_off_c, 0, 35, 65
1, 780601, Control_c, 0, 64, 127
1, 780607, Note_off_c, 0, 47, 65
1, 780648, Note_off_c, 0, 78, 61
1, 780667, Note_off_c, 0, 74, 0
1, 780668, Note_off_c, 0, 71, 63
1, 780670, Note_off_c, 0, 83, 62
1, 780703, Poly_aftertouch_c, 0, 74, 127
1, 780777, Poly_aftertouch_c, 0, 74, 0
1, 780851, Note_on_c, 0, 83, 93
1, 780852, Note_on_c, 0, 71, 90
1, 780855, Note_on_c, 0, 74, 90
1, 780858, Note_on_c, 0, 78, 80
1, 780861, Note_on_c, 0, 62, 76
1, 780867, Note_on_c, 0, 54, 73
1, 780884, Note_off_c, 0, 78, 64
1, 780893, Note_off_c, 0, 74, 62
1, 780896, Note_off_c, 0, 71, 63
1, 780899, Note_off_c, 0, 83, 64
1, 780939, Note_off_c, 0, 62, 55
1, 780947, Note_off_c, 0, 54, 58
1, 781095, Note_on_c, 0, 57, 82
1, 781097, Note_on_c, 0, 62, 79
1, 781098, Control_c, 0, 64, 99
1, 781099, Note_on_c, 0, 54, 82
1, 781100, Note_on_c, 0, 74, 82
1, 781102, Note_on_c, 0, 69, 83
1, 781107, Note_on_c, 0, 81, 77
1, 781108, Note_on_c, 0, 78, 72
1, 781112, Control_c, 0, 64, 62
1, 781119, Note_off_c, 0, 62, 68
1, 781124, Note_off_c, 0, 74, 67
1, 781126, Note_off_c, 0, 78, 64
1, 781127, Control_c, 0, 64, 0
1, 781132, Note_off_c, 0, 57, 64
1, 781141, Note_off_c, 0, 69, 52
1, 781143, Note_off_c, 0, 54, 66
1, 781144, Note_off_c, 0, 81, 58
1, 781339, Note_on_c, 0, 69, 82
1, 781342, Note_on_c, 0, 81, 83
1, 781344, Note_on_c, 0, 38, 85
1, 781344, Note_on_c, 0, 74, 79
1, 781346, Note_on_c, 0, 50, 71
1, 781360, Note_on_c, 0, 77, 55
1, 781374, Note_off_c, 0, 74, 66
1, 781376, Note_off_c, 0, 50, 66
1, 781379, Note_off_c, 0, 77, 63
1, 781385, Note_off_c, 0, 69, 61
1, 781394, Note_off_c, 0, 81, 64
1, 781397, Note_off_c, 0, 38, 60
1, 781579, Note_on_c, 0, 35, 83
1, 781579, Note_on_c, 0, 47, 85
1, 781580, Note_on_c, 0, 83, 96
1, 781581, Note_on_c, 0, 74, 91
1, 781582, Note_on_c, 0, 71, 92
1, 781584, Note_on_c, 0, 78, 77
1, 781594, Control_c, 0, 64, 75
1, 781606, Note_off_c, 0, 78, 68
1, 781609, Control_c, 0, 64, 127
1, 781612, Note_off_c, 0, 74, 64
1, 781615, Note_off_c, 0, 35, 63
1, 781620, Note_off_c, 0, 71, 61
1, 781627, Note_off_c, 0, 47, 65
1, 781632, Note_off_c, 0, 83, 63
1, 781684, Note_on_c, 0, 78, 85
1, 781689, Note_on_c, 0, 74, 83
1, 781690, Note_on_c, 0, 71, 72
1, 781691, Note_on_c, 0, 83, 75
1, 781718, Note_off_c, 0, 83, 63
1, 781725, Note_off_c, 0, 71, 58
1, 781725, Note_off_c, 0, 74, 62
1, 781730, Note_off_c, 0, 78, 60
1, 781790, Note_on_c, 0, 71, 78
1, 781790, Note_on_c, 0, 74, 80
1, 781792, Note_on_c, 0, 78, 75
1, 781796, Note_on_c, 0, 83, 81
1, 781797, Note_on_c, 0, 62, 73
1, 781800, Note_on_c, 0, 54, 78
1, 781820, Note_off_c, 0, 83, 64
1, 781829, Note_off_c, 0, 78, 59
1, 781830, Note_off_c, 0, 71, 58
1, 781832, Note_off_c, 0, 74, 61
1, 781838, Note_off_c, 0, 62, 60
1, 781855, Note_off_c, 0, 54, 59
1, 781884, Note_on_c, 0, 78, 79
1, 781888, Note_on_c, 0, 83, 85
1, 781889, Note_on_c, 0, 71, 76
1, 781889, Note_on_c, 0, 74, 72
1, 781931, Note_off_c, 0, 74, 62
1, 781934, Note_off_c, 0, 78, 62
1, 781934, Note_off_c, 0, 83, 63
1, 781941, Note_off_c, 0, 71, 61
1, 781981, Control_c, 0, 64, 106
1, 781993, Note_on_c, 0, 54, 82
1, 781994, Note_on_c, 0, 57, 81
1, 781995, Note_on_c, 0, 73, 88
1, 781995, Note_on_c, 0, 81, 86
1, 781996, Control_c, 0, 64, 69
1, 781996, Note_on_c, 0, 61, 78
1, 781997, Note_on_c, 0, 69, 84
1, 782001, Note_on_c, 0, 78, 78
1, 782010, Control_c, 0, 64, 0
1, 782021, Note_off_c, 0, 57, 67
1, 782026, Note_off_c, 0, 61, 64
1, 782034, Note_off_c, 0, 69, 62
1, 782037, Note_off_c, 0, 73, 63
1, 782039, Note_off_c, 0, 81, 61
1, 782041, Note_off_c, 0, 54, 64
1, 782046, Note_off_c, 0, 78, 56
1, 782236, Note_on_c, 0, 73, 91
1, 782236, Note_on_c, 0, 81, 88
1, 782238, Note_on_c, 0, 69, 81
1, 782238, Note_on_c, 0, 78, 80
1, 782245, Note_on_c, 0, 54, 67
1, 782248, Note_on_c, 0, 42, 69
1, 782277, Note_off_c, 0, 73, 64
1, 782277, Note_off_c, 0, 69, 61
1, 782280, Note_off_c, 0, 78, 58
1, 782287, Note_off_c, 0, 81, 61
1, 782338, Note_off_c, 0, 42, 58
1, 782339, Note_off_c, 0, 54, 54
1, 782470, Note_on_c, 0, 43, 69
1, 782473, Note_on_c, 0, 79, 94
1, 782475, Note_on_c, 0, 67, 86
1, 782476, Note_on_c, 0, 55, 63
1, 782476, Control_c, 0, 64, 45
1, 782479, Note_on_c, 0, 71, 80
1, 782486, Note_on_c, 0, 76, 75
1, 782491, Control_c, 0, 64, 76
1, 782500, Note_off_c, 0, 71, 69
1, 782505, Note_off_c, 0, 43, 65
1, 782506, Control_c, 0, 64, 93
1, 782509, Note_off_c, 0, 76, 69
1, 782513, Note_off_c, 0, 55, 62
1, 782521, Control_c, 0, 64, 127
1, 782524, Note_off_c, 0, 67, 61
1, 782539, Note_off_c, 0, 79, 64
1, 782702, Note_on_c, 0, 55, 69
1, 782708, Note_on_c, 0, 79, 85
1, 782709, Note_on_c, 0, 64, 62
1, 782711, Note_on_c, 0, 67, 76
1, 782714, Note_on_c, 0, 71, 72
1, 782724, Note_on_c, 0, 76, 66
1, 782727, Note_on_c, 0, 59, 48
1, 782730, Control_c, 0, 64, 125
1, 782742, Note_off_c, 0, 76, 65
1, 782743, Note_off_c, 0, 64, 64
1, 782743, Note_off_c, 0, 71, 63
1, 782745, Control_c, 0, 64, 119
1, 782753, Note_off_c, 0, 59, 63
1, 782757, Note_off_c, 0, 67, 59
1, 782759, Control_c, 0, 64, 117
1, 782759, Note_off_c, 0, 55, 62
1, 782763, Note_off_c, 0, 79, 64
1, 782789, Control_c, 0, 64, 114
1, 782818, Control_c, 0, 64, 112
1, 782833, Control_c, 0, 64, 108
1, 782848, Control_c, 0, 64, 101
1, 782863, Control_c, 0, 64, 85
1, 782877, Control_c, 0, 64, 67
1, 782891, Control_c, 0, 64, 46
1, 782906, Control_c, 0, 64, 0
1, 782926, Note_on_c, 0, 63, 69
1, 782929, Note_on_c, 0, 59, 61
1, 782931, Note_on_c, 0, 78, 79
1, 782932, Note_on_c, 0, 66, 74
1, 782932, Note_on_c, 0, 75, 72
1, 782938, Note_on_c, 0, 71, 74
1, 782950, Control_c, 0, 64, 40
1, 782961, Note_off_c, 0, 59, 66
1, 782963, Note_off_c, 0, 71, 66
1, 782965, Control_c, 0, 64, 57
1, 782967, Note_off_c, 0, 66, 60
1, 782969, Note_off_c, 0, 63, 61
1, 782970, Note_off_c, 0, 75, 55
1, 782980, Control_c, 0, 64, 65
1, 782987, Note_off_c, 0, 78, 63
1, 782995, Control_c, 0, 64, 69
1, 783016, Control_c, 0, 64, 72
1, 783127, Note_on_c, 0, 78, 72
1, 783134, Note_on_c, 0, 71, 72
1, 783135, Note_on_c, 0, 66, 71
1, 783135, Note_on_c, 0, 75, 66
1, 783163, Note_off_c, 0, 66, 65
1, 783164, Note_off_c, 0, 75, 63
1, 783166, Note_off_c, 0, 71, 60
1, 783183, Note_off_c, 0, 78, 62
1, 783195, Note_on_c, 0, 47, 53
1, 783207, Note_on_c, 0, 59, 45
1, 783238, Note_off_c, 0, 47, 63
1, 783239, Control_c, 0, 64, 71
1, 783240, Note_off_c, 0, 59, 64
1, 783270, Note_on_c, 0, 78, 80
1, 783271, Note_on_c, 0, 66, 73
1, 783272, Note_on_c, 0, 71, 76
1, 783279, Note_on_c, 0, 75, 59
1, 783311, Note_off_c, 0, 71, 59
1, 783311, Note_off_c, 0, 75, 63
1, 783316, Note_off_c, 0, 66, 60
1, 783328, Control_c, 0, 64, 71
1, 783331, Note_off_c, 0, 78, 61
1, 783343, Control_c, 0, 64, 65
1, 783357, Control_c, 0, 64, 55
1, 783372, Control_c, 0, 64, 0
1, 783397, Note_on_c, 0, 64, 64
1, 783403, Note_on_c, 0, 59, 51
1, 783404, Note_on_c, 0, 76, 87
1, 783408, Note_on_c, 0, 71, 83
1, 783409, Note_on_c, 0, 67, 75
1, 783432, Control_c, 0, 64, 47
1, 783443, Note_off_c, 0, 67, 64
1, 783445, Note_off_c, 0, 71, 63
1, 783447, Control_c, 0, 64, 60
1, 783459, Note_off_c, 0, 76, 65
1, 783462, Control_c, 0, 64, 65
1, 783467, Note_off_c, 0, 64, 59
1, 783475, Note_off_c, 0, 59, 54
1, 783477, Control_c, 0, 64, 67
1, 783567, Note_on_c, 0, 76, 87
1, 783573, Note_on_c, 0, 67, 72
1, 783573, Note_on_c, 0, 71, 76
1, 783600, Note_off_c, 0, 71, 66
1, 783606, Note_off_c, 0, 67, 66
1, 783621, Note_off_c, 0, 76, 64
1, 783631, Note_on_c, 0, 52, 63
1, 783670, Control_c, 0, 64, 67
1, 783681, Note_off_c, 0, 52, 58
1, 783698, Note_on_c, 0, 79, 81
1, 783699, Note_on_c, 0, 71, 75
1, 783701, Note_on_c, 0, 67, 70
1, 783731, Note_off_c, 0, 67, 64
1, 783736, Note_off_c, 0, 71, 64
1, 783755, Note_off_c, 0, 79, 65
1, 783826, Control_c, 0, 64, 65
1, 783827, Note_on_c, 0, 59, 68
1, 783828, Note_on_c, 0, 78, 83
1, 783832, Note_on_c, 0, 66, 76
1, 783839, Note_on_c, 0, 63, 51
1, 783840, Control_c, 0, 64, 54
1, 783855, Note_off_c, 0, 59, 66
1, 783855, Control_c, 0, 64, 0
1, 783862, Note_off_c, 0, 66, 65
1, 783862, Note_off_c, 0, 78, 62
1, 783862, Note_off_c, 0, 63, 60
1, 784087, Note_on_c, 0, 59, 74
1, 784090, Note_on_c, 0, 47, 54
1, 784274, Note_off_c, 0, 59, 60
1, 784335, Note_on_c, 0, 71, 80
1, 784339, Note_on_c, 0, 59, 59
1, 784340, Note_off_c, 0, 47, 62
1, 784366, Note_off_c, 0, 71, 67
1, 784393, Note_off_c, 0, 59, 61
1, 784648, Note_on_c, 0, 71, 84
1, 784661, Note_on_c, 0, 59, 44
1, 785137, Note_off_c, 0, 59, 54
1, 785156, Note_on_c, 0, 69, 60
1, 785171, Note_on_c, 0, 57, 40
1, 785217, Note_off_c, 0, 71, 56
1, 785293, Control_c, 0, 64, 49
1, 785308, Control_c, 0, 64, 63
1, 785323, Control_c, 0, 64, 71
1, 785338, Control_c, 0, 64, 80
1, 785352, Control_c, 0, 64, 87
1, 785353, Note_off_c, 0, 69, 61
1, 785367, Control_c, 0, 64, 90
1, 785382, Control_c, 0, 64, 91
1, 785397, Control_c, 0, 64, 91
1, 785414, Note_off_c, 0, 57, 41
1, 785485, Control_c, 0, 64, 91
1, 785500, Control_c, 0, 64, 90
1, 785515, Control_c, 0, 64, 89
1, 785529, Control_c, 0, 64, 87
1, 785532, Note_on_c, 0, 67, 64
1, 785536, Note_on_c, 0, 55, 50
1, 785544, Control_c, 0, 64, 85
1, 785559, Control_c, 0, 64, 83
1, 785574, Control_c, 0, 64, 80
1, 785589, Control_c, 0, 64, 78
1, 785591, Note_off_c, 0, 67, 51
1, 785600, Note_off_c, 0, 55, 46
1, 785603, Control_c, 0, 64, 76
1, 785618, Control_c, 0, 64, 73
1, 785633, Control_c, 0, 64, 70
1, 785647, Note_on_c, 0, 66, 64
1, 785648, Control_c, 0, 64, 67
1, 785663, Note_on_c, 0, 54, 50
1, 785663, Control_c, 0, 64, 65
1, 785678, Control_c, 0, 64, 62
1, 785693, Control_c, 0, 64, 60
1, 785702, Note_off_c, 0, 66, 49
1, 785708, Control_c, 0, 64, 58
1, 785719, Note_off_c, 0, 54, 54
1, 785722, Control_c, 0, 64, 55
1, 785737, Control_c, 0, 64, 52
1, 785752, Control_c, 0, 64, 49
1, 785754, Note_on_c, 0, 64, 60
1, 785758, Note_on_c, 0, 52, 51
1, 785767, Control_c, 0, 64, 47
1, 785782, Control_c, 0, 64, 44
1, 785797, Control_c, 0, 64, 40
1, 785806, Note_off_c, 0, 64, 53
1, 785808, Note_off_c, 0, 52, 58
1, 785811, Control_c, 0, 64, 35
1, 785827, Control_c, 0, 64, 30
1, 785842, Control_c, 0, 64, 0
1, 785857, Note_on_c, 0, 66, 67
1, 785859, Note_on_c, 0, 54, 56
1, 785891, Note_off_c, 0, 66, 63
1, 785899, Note_off_c, 0, 54, 63
1, 786122, Note_on_c, 0, 59, 58
1, 786128, Note_on_c, 0, 47, 39
1, 786356, Note_on_c, 0, 52, 50
1, 786357, Note_off_c, 0, 59, 61
1, 786358, Note_on_c, 0, 64, 58
1, 786372, Note_off_c, 0, 47, 43
1, 786388, Note_off_c, 0, 64, 67
1, 786396, Note_off_c, 0, 52, 64
1, 786644, Note_on_c, 0, 64, 58
1, 786648, Note_on_c, 0, 52, 41
1, 787113, Note_off_c, 0, 52, 35
1, 787124, Note_on_c, 0, 62, 55
1, 787128, Note_on_c, 0, 50, 45
1, 787135, Note_off_c, 0, 64, 58
1, 787147, Control_c, 0, 64, 38
1, 787162, Control_c, 0, 64, 58
1, 787163, Note_off_c, 0, 62, 63
1, 787175, Note_off_c, 0, 50, 59
1, 787176, Control_c, 0, 64, 66
1, 787191, Control_c, 0, 64, 71
1, 787206, Control_c, 0, 64, 73
1, 787221, Control_c, 0, 64, 74
1, 787280, Control_c, 0, 64, 73
1, 787295, Control_c, 0, 64, 73
1, 787309, Control_c, 0, 64, 71
1, 787324, Control_c, 0, 64, 68
1, 787339, Control_c, 0, 64, 65
1, 787354, Control_c, 0, 64, 59
1, 787363, Note_on_c, 0, 62, 66
1, 787369, Control_c, 0, 64, 52
1, 787374, Note_on_c, 0, 50, 39
1, 787383, Control_c, 0, 64, 43
1, 787398, Control_c, 0, 64, 34
1, 787413, Control_c, 0, 64, 0
1, 787427, Note_off_c, 0, 50, 57
1, 787463, Note_off_c, 0, 62, 56
1, 787467, Note_on_c, 0, 52, 42
1, 787473, Note_on_c, 0, 64, 59
1, 787554, Note_off_c, 0, 52, 48
1, 787576, Note_off_c, 0, 64, 60
1, 787600, Note_on_c, 0, 60, 56
1, 787603, Note_on_c, 0, 48, 50
1, 787638, Note_off_c, 0, 48, 66
1, 787835, Note_on_c, 0, 36, 55
1, 787870, Note_off_c, 0, 36, 63
1, 788077, Note_off_c, 0, 60, 56
1, 788097, Note_on_c, 0, 24, 56
1, 788162, Control_c, 0, 67, 21
1, 788177, Control_c, 0, 67, 24
1, 788191, Control_c, 0, 67, 26
1, 788206, Control_c, 0, 67, 29
1, 788222, Control_c, 0, 67, 32
1, 788237, Control_c, 0, 67, 36
1, 788259, Control_c, 0, 67, 42
1, 788274, Control_c, 0, 67, 50
1, 788289, Control_c, 0, 67, 58
1, 788304, Control_c, 0, 67, 65
1, 788319, Control_c, 0, 67, 71
1, 788334, Control_c, 0, 67, 75
1, 788349, Control_c, 0, 67, 78
1, 788355, Note_on_c, 0, 42, 56
1, 788363, Control_c, 0, 67, 82
1, 788378, Control_c, 0, 67, 87
1, 788382, Note_off_c, 0, 42, 62
1, 788393, Control_c, 0, 67, 91
1, 788408, Control_c, 0, 67, 94
1, 788423, Control_c, 0, 67, 94
1, 788555, Control_c, 0, 67, 94
1, 788570, Control_c, 0, 67, 93
1, 788601, Note_on_c, 0, 42, 59
1, 788632, Note_off_c, 0, 42, 64
1, 788641, Poly_aftertouch_c, 0, 36, 127
1, 788674, Control_c, 0, 67, 93
1, 788763, Control_c, 0, 67, 92
1, 788849, Note_on_c, 0, 40, 63
1, 788852, Control_c, 0, 67, 92
1, 788879, Note_off_c, 0, 40, 65
1, 789053, Control_c, 0, 67, 91
1, 789104, Note_on_c, 0, 40, 60
1, 789130, Note_off_c, 0, 40, 60
1, 789336, Note_on_c, 0, 42, 71
1, 789368, Note_off_c, 0, 42, 64
1, 789434, Note_on_c, 0, 42, 70
1, 789466, Note_off_c, 0, 42, 67
1, 789516, Note_off_c, 0, 24, 40
1, 789538, Note_on_c, 0, 42, 69
1, 789572, Note_off_c, 0, 42, 66
1, 789648, Note_on_c, 0, 42, 56
1, 789687, Note_off_c, 0, 42, 59
1, 789783, Note_on_c, 0, 40, 53
1, 789795, Note_on_c, 0, 35, 38
1, 789824, Note_off_c, 0, 40, 61
1, 789861, Control_c, 0, 67, 92
1, 789878, Poly_aftertouch_c, 0, 36, 0
1, 789905, Control_c, 0, 67, 93
1, 789949, Control_c, 0, 67, 94
1, 789979, Control_c, 0, 67, 95
1, 789994, Control_c, 0, 67, 95
1, 790009, Control_c, 0, 67, 96
1, 790039, Control_c, 0, 67, 98
1, 790041, Note_on_c, 0, 40, 47
1, 790054, Control_c, 0, 67, 105
1, 790068, Control_c, 0, 67, 116
1, 790072, Note_off_c, 0, 40, 61
1, 790083, Control_c, 0, 67, 127
1, 790276, Note_on_c, 0, 42, 45
1, 790312, Note_off_c, 0, 42, 63
1, 790449, Note_on_c, 0, 42, 46
1, 790494, Note_off_c, 0, 42, 63
1, 790595, Note_on_c, 0, 42, 51
1, 790647, Note_off_c, 0, 42, 60
1, 790752, Note_on_c, 0, 43, 56
1, 790763, Note_on_c, 0, 34, 39
1, 790789, Note_off_c, 0, 43, 64
1, 790847, Note_off_c, 0, 35, 40
1, 790933, Note_on_c, 0, 43, 44
1, 790972, Note_off_c, 0, 43, 64
1, 791086, Note_on_c, 0, 43, 49
1, 791131, Note_off_c, 0, 43, 62
1, 791274, Note_on_c, 0, 45, 41
1, 791276, Note_on_c, 0, 33, 38
1, 791312, Note_off_c, 0, 45, 64
1, 791314, Note_off_c, 0, 34, 38
1, 791403, Control_c, 0, 64, 38
1, 791419, Control_c, 0, 64, 52
1, 791434, Control_c, 0, 64, 59
1, 791448, Control_c, 0, 64, 62
1, 791463, Control_c, 0, 64, 65
1, 791478, Control_c, 0, 64, 68
1, 791492, Control_c, 0, 64, 74
1, 791507, Control_c, 0, 64, 85
1, 791522, Control_c, 0, 64, 103
1, 791537, Control_c, 0, 64, 127
1, 791601, Note_on_c, 0, 45, 39
1, 791610, Note_off_c, 0, 33, 58
1, 791645, Note_off_c, 0, 45, 63
1, 792265, Note_on_c, 0, 73, 50
1, 792269, Note_on_c, 0, 95, 52
1, 792272, Note_on_c, 0, 83, 50
1, 792277, Note_on_c, 0, 79, 38
1, 792288, Note_off_c, 0, 95, 61
1, 792294, Note_off_c, 0, 83, 58
1, 792298, Note_off_c, 0, 73, 63
1, 792311, Note_off_c, 0, 79, 48
1, 792547, Note_on_c, 0, 91, 57
1, 792555, Note_on_c, 0, 85, 30
1, 792556, Note_on_c, 0, 71, 33
1, 792556, Note_on_c, 0, 79, 42
1, 792567, Note_off_c, 0, 91, 61
1, 792586, Note_off_c, 0, 79, 53
1, 792589, Note_off_c, 0, 71, 53
1, 792590, Note_off_c, 0, 85, 31
1, 792605, Poly_aftertouch_c, 0, 76, 127
1, 792629, Poly_aftertouch_c, 0, 76, 0
1, 792802, Note_on_c, 0, 88, 62
1, 792811, Note_on_c, 0, 67, 50
1, 792814, Note_on_c, 0, 83, 43
1, 792832, Note_off_c, 0, 88, 66
1, 792839, Note_off_c, 0, 83, 54
1, 792841, Note_off_c, 0, 67, 59
1, 792868, Poly_aftertouch_c, 0, 73, 127
1, 792886, Poly_aftertouch_c, 0, 76, 0
1, 792903, Poly_aftertouch_c, 0, 73, 0
1, 793047, Note_on_c, 0, 85, 65
1, 793058, Note_on_c, 0, 79, 50
1, 793059, Note_on_c, 0, 71, 40
1, 793073, Note_on_c, 0, 64, 25
1, 793076, Note_off_c, 0, 85, 65
1, 793083, Note_off_c, 0, 79, 58
1, 793087, Note_off_c, 0, 71, 53
1, 793106, Note_off_c, 0, 64, 44
1, 793136, Poly_aftertouch_c, 0, 73, 0
1, 793288, Note_on_c, 0, 83, 53
1, 793288, Note_on_c, 0, 88, 65
1, 793288, Note_on_c, 0, 67, 56
1, 793300, Note_on_c, 0, 76, 43
1, 793303, Note_on_c, 0, 73, 31
1, 793308, Note_off_c, 0, 83, 61
1, 793309, Note_off_c, 0, 67, 66
1, 793314, Note_off_c, 0, 88, 69
1, 793329, Note_off_c, 0, 76, 47
1, 793337, Note_off_c, 0, 73, 47
1, 793449, Control_c, 0, 64, 103
1, 793463, Control_c, 0, 64, 80
1, 793478, Control_c, 0, 64, 62
1, 793500, Control_c, 0, 64, 0
1, 793528, Note_on_c, 0, 86, 67
1, 793532, Note_on_c, 0, 66, 47
1, 793537, Note_on_c, 0, 74, 51
1, 793539, Note_on_c, 0, 69, 45
1, 793541, Note_on_c, 0, 81, 38
1, 793551, Note_off_c, 0, 86, 68
1, 793559, Note_off_c, 0, 74, 59
1, 793572, Note_off_c, 0, 81, 33
1, 793574, Control_c, 0, 64, 47
1, 793589, Control_c, 0, 64, 60
1, 793599, Note_off_c, 0, 66, 45
1, 793604, Note_off_c, 0, 69, 53
1, 793604, Control_c, 0, 64, 66
1, 793619, Control_c, 0, 64, 69
1, 793634, Control_c, 0, 64, 70
1, 793649, Control_c, 0, 64, 70
1, 793762, Note_on_c, 0, 81, 62
1, 793767, Note_on_c, 0, 74, 59
1, 793770, Note_on_c, 0, 66, 49
1, 793775, Note_on_c, 0, 62, 49
1, 793789, Note_on_c, 0, 69, 17
1, 793790, Note_off_c, 0, 81, 65
1, 793792, Note_off_c, 0, 74, 62
1, 793805, Note_off_c, 0, 62, 61
1, 793810, Note_off_c, 0, 66, 61
1, 793811, Control_c, 0, 64, 70
1, 793828, Note_off_c, 0, 69, 40
1, 793887, Control_c, 0, 64, 69
1, 793998, Note_on_c, 0, 78, 65
1, 794000, Note_on_c, 0, 74, 52
1, 794005, Note_on_c, 0, 62, 45
1, 794005, Control_c, 0, 64, 69
1, 794006, Note_on_c, 0, 57, 48
1, 794021, Note_off_c, 0, 74, 63
1, 794023, Note_on_c, 0, 66, 22
1, 794025, Note_off_c, 0, 78, 68
1, 794033, Note_off_c, 0, 62, 58
1, 794035, Control_c, 0, 64, 68
1, 794042, Note_off_c, 0, 57, 62
1, 794049, Control_c, 0, 64, 67
1, 794057, Note_off_c, 0, 66, 31
1, 794064, Control_c, 0, 64, 66
1, 794079, Control_c, 0, 64, 65
1, 794093, Control_c, 0, 64, 64
1, 794108, Control_c, 0, 64, 64
1, 794139, Control_c, 0, 64, 63
1, 794198, Control_c, 0, 64, 63
1, 794212, Control_c, 0, 64, 62
1, 794227, Control_c, 0, 64, 57
1, 794242, Note_on_c, 0, 81, 67
1, 794243, Note_on_c, 0, 73, 60
1, 794245, Note_on_c, 0, 57, 50
1, 794246, Note_on_c, 0, 69, 52
1, 794247, Note_on_c, 0, 64, 48
1, 794250, Control_c, 0, 64, 47
1, 794265, Note_off_c, 0, 73, 65
1, 794265, Control_c, 0, 64, 31
1, 794267, Note_off_c, 0, 69, 61
1, 794267, Note_off_c, 0, 81, 67
1, 794278, Note_off_c, 0, 64, 62
1, 794279, Note_off_c, 0, 57, 64
1, 794280, Control_c, 0, 64, 0
1, 794468, Note_on_c, 0, 74, 64
1, 794471, Note_on_c, 0, 81, 61
1, 794474, Note_on_c, 0, 62, 52
1, 794477, Note_on_c, 0, 66, 51
1, 794479, Note_on_c, 0, 69, 47
1, 794492, Note_off_c, 0, 74, 66
1, 794496, Note_off_c, 0, 81, 66
1, 794501, Note_off_c, 0, 69, 57
1, 794504, Note_off_c, 0, 62, 60
1, 794510, Note_off_c, 0, 66, 61
1, 794709, Note_on_c, 0, 73, 62
1, 794709, Note_on_c, 0, 81, 61
1, 794714, Note_on_c, 0, 57, 53
1, 794718, Note_on_c, 0, 69, 44
1, 794720, Note_on_c, 0, 64, 47
1, 794726, Note_off_c, 0, 81, 64
1, 794732, Note_off_c, 0, 73, 65
1, 794743, Note_off_c, 0, 69, 52
1, 794752, Note_off_c, 0, 64, 58
1, 794755, Note_off_c, 0, 57, 62
1, 794931, Note_on_c, 0, 74, 68
1, 794934, Note_on_c, 0, 81, 62
1, 794942, Note_on_c, 0, 62, 48
1, 794951, Note_on_c, 0, 66, 43
1, 794951, Note_on_c, 0, 69, 39
1, 794957, Note_off_c, 0, 74, 65
1, 794960, Note_off_c, 0, 81, 66
1, 794975, Note_off_c, 0, 62, 54
1, 794979, Note_off_c, 0, 69, 50
1, 794980, Note_off_c, 0, 66, 54
1, 795174, Note_on_c, 0, 81, 67
1, 795175, Note_on_c, 0, 73, 65
1, 795178, Note_on_c, 0, 57, 50
1, 795182, Note_on_c, 0, 69, 52
1, 795184, Note_on_c, 0, 64, 49
1, 795193, Note_off_c, 0, 73, 66
1, 795193, Note_off_c, 0, 81, 67
1, 795203, Note_off_c, 0, 69, 59
1, 795217, Note_off_c, 0, 57, 62
1, 795222, Note_off_c, 0, 64, 56
1, 795399, Note_on_c, 0, 74, 67
1, 795401, Note_on_c, 0, 81, 74
1, 795408, Note_on_c, 0, 66, 45
1, 795408, Note_on_c, 0, 69, 51
1, 795412, Note_on_c, 0, 62, 40
1, 795414, Control_c, 0, 64, 43
1, 795419, Note_off_c, 0, 74, 67
1, 795425, Note_off_c, 0, 81, 69
1, 795429, Control_c, 0, 64, 57
1, 795430, Note_off_c, 0, 69, 59
1, 795444, Control_c, 0, 64, 62
1, 795456, Note_off_c, 0, 66, 61
1, 795458, Control_c, 0, 64, 63
1, 795472, Note_off_c, 0, 62, 51
1, 795508, Note_on_c, 0, 64, 55
1, 795533, Control_c, 0, 64, 63
1, 795592, Control_c, 0, 64, 62
1, 795600, Note_off_c, 0, 64, 54
1, 795607, Control_c, 0, 64, 62
1, 795622, Control_c, 0, 64, 61
1, 795623, Note_on_c, 0, 78, 63
1, 795629, Note_on_c, 0, 54, 51
1, 795629, Note_on_c, 0, 74, 67
1, 795631, Note_on_c, 0, 62, 48
1, 795633, Note_on_c, 0, 81, 63
1, 795637, Control_c, 0, 64, 60
1, 795652, Control_c, 0, 64, 60
1, 795652, Note_off_c, 0, 78, 65
1, 795660, Note_off_c, 0, 74, 60
1, 795666, Control_c, 0, 64, 59
1, 795670, Note_off_c, 0, 81, 58
1, 795679, Note_off_c, 0, 62, 63
1, 795681, Control_c, 0, 64, 59
1, 795699, Note_off_c, 0, 54, 57
1, 795725, Note_on_c, 0, 64, 54
1, 795725, Note_on_c, 0, 79, 66
1, 795738, Note_on_c, 0, 73, 57
1, 795767, Note_off_c, 0, 73, 66
1, 795780, Note_off_c, 0, 64, 52
1, 795806, Note_off_c, 0, 79, 56
1, 795828, Note_on_c, 0, 62, 62
1, 795837, Control_c, 0, 64, 57
1, 795839, Note_on_c, 0, 66, 61
1, 795843, Note_on_c, 0, 81, 72
1, 795846, Note_on_c, 0, 78, 60
1, 795852, Control_c, 0, 64, 51
1, 795853, Note_on_c, 0, 74, 56
1, 795861, Note_off_c, 0, 62, 64
1, 795866, Note_off_c, 0, 81, 69
1, 795866, Control_c, 0, 64, 30
1, 795866, Note_off_c, 0, 78, 65
1, 795869, Note_off_c, 0, 66, 65
1, 795872, Note_off_c, 0, 74, 62
1, 795881, Control_c, 0, 64, 0
1, 796075, Note_on_c, 0, 62, 72
1, 796078, Note_on_c, 0, 74, 67
1, 796229, Note_off_c, 0, 74, 58
1, 796310, Note_on_c, 0, 79, 70
1, 796313, Note_on_c, 0, 67, 58
1, 796313, Note_on_c, 0, 83, 65
1, 796316, Note_on_c, 0, 86, 60
1, 796334, Note_off_c, 0, 79, 71
1, 796338, Note_off_c, 0, 83, 69
1, 796343, Note_off_c, 0, 86, 67
1, 796350, Note_off_c, 0, 67, 61
1, 796549, Note_on_c, 0, 86, 69
1, 796550, Note_on_c, 0, 78, 67
1, 796555, Note_on_c, 0, 74, 59
1, 796555, Note_on_c, 0, 81, 56
1, 796575, Note_off_c, 0, 81, 61
1, 796575, Note_off_c, 0, 78, 68
1, 796577, Note_off_c, 0, 86, 64
1, 796612, Note_off_c, 0, 74, 52
1, 796650, Note_on_c, 0, 69, 61
1, 796697, Note_off_c, 0, 69, 58
1, 796768, Note_on_c, 0, 67, 66
1, 796768, Note_on_c, 0, 86, 69
1, 796770, Note_on_c, 0, 83, 64
1, 796782, Note_on_c, 0, 79, 44
1, 796789, Note_off_c, 0, 83, 66
1, 796794, Note_off_c, 0, 86, 65
1, 796807, Note_off_c, 0, 79, 57
1, 796813, Note_off_c, 0, 67, 64
1, 796981, Note_on_c, 0, 86, 76
1, 796984, Note_on_c, 0, 78, 72
1, 796990, Note_on_c, 0, 74, 63
1, 797008, Note_off_c, 0, 78, 68
1, 797023, Note_off_c, 0, 86, 61
1, 797042, Note_off_c, 0, 74, 51
1, 797086, Note_on_c, 0, 69, 69
1, 797119, Note_off_c, 0, 69, 56
1, 797202, Note_on_c, 0, 86, 79
1, 797203, Note_on_c, 0, 79, 79
1, 797208, Note_on_c, 0, 83, 73
1, 797211, Note_on_c, 0, 67, 58
1, 797242, Note_off_c, 0, 83, 65
1, 797244, Control_c, 0, 64, 41
1, 797255, Note_off_c, 0, 79, 60
1, 797259, Control_c, 0, 64, 49
1, 797274, Control_c, 0, 64, 53
1, 797286, Note_off_c, 0, 67, 64
1, 797289, Control_c, 0, 64, 54
1, 797303, Note_off_c, 0, 86, 41
1, 797312, Note_on_c, 0, 81, 73
1, 797314, Note_on_c, 0, 85, 73
1, 797318, Control_c, 0, 64, 53
1, 797326, Note_on_c, 0, 74, 54
1, 797356, Note_off_c, 0, 81, 58
1, 797375, Note_off_c, 0, 74, 54
1, 797381, Note_off_c, 0, 85, 56
1, 797393, Control_c, 0, 64, 53
1, 797408, Control_c, 0, 64, 52
1, 797423, Control_c, 0, 64, 52
1, 797423, Note_on_c, 0, 71, 60
1, 797424, Note_on_c, 0, 83, 72
1, 797428, Note_on_c, 0, 79, 65
1, 797437, Control_c, 0, 64, 51
1, 797452, Control_c, 0, 64, 50
1, 797467, Control_c, 0, 64, 49
1, 797467, Note_off_c, 0, 79, 60
1, 797482, Control_c, 0, 64, 48
1, 797500, Note_off_c, 0, 71, 61
1, 797512, Note_on_c, 0, 85, 73
1, 797517, Note_on_c, 0, 81, 70
1, 797520, Note_on_c, 0, 67, 55
1, 797520, Note_off_c, 0, 83, 36
1, 797541, Control_c, 0, 64, 48
1, 797551, Note_off_c, 0, 81, 60
1, 797556, Control_c, 0, 64, 46
1, 797570, Control_c, 0, 64, 43
1, 797574, Note_off_c, 0, 85, 62
1, 797585, Control_c, 0, 64, 42
1, 797600, Control_c, 0, 64, 43
1, 797615, Control_c, 0, 64, 44
1, 797625, Note_on_c, 0, 83, 72
1, 797625, Note_off_c, 0, 67, 63
1, 797626, Note_on_c, 0, 74, 64
1, 797630, Control_c, 0, 64, 46
1, 797639, Note_on_c, 0, 86, 54
1, 797643, Note_on_c, 0, 88, 58
1, 797644, Control_c, 0, 64, 49
1, 797646, Note_off_c, 0, 83, 70
1, 797659, Control_c, 0, 64, 52
1, 797661, Note_off_c, 0, 86, 65
1, 797662, Note_off_c, 0, 88, 62
1, 797674, Control_c, 0, 64, 53
1, 797689, Control_c, 0, 64, 54
1, 797695, Note_off_c, 0, 74, 61
1, 797704, Control_c, 0, 64, 54
1, 797724, Note_on_c, 0, 71, 63
1, 797748, Control_c, 0, 64, 55
1, 797777, Control_c, 0, 64, 55
1, 797794, Note_off_c, 0, 71, 63
1, 797830, Note_on_c, 0, 85, 73
1, 797843, Note_on_c, 0, 78, 57
1, 797846, Note_on_c, 0, 69, 62
1, 797867, Control_c, 0, 64, 55
1, 797906, Note_off_c, 0, 69, 52
1, 797923, Note_on_c, 0, 83, 68
1, 797925, Note_off_c, 0, 78, 0
1, 797926, Note_on_c, 0, 66, 65
1, 797929, Note_off_c, 0, 62, 41
1, 797955, Note_off_c, 0, 85, 37
1, 797973, Poly_aftertouch_c, 0, 78, 0
1, 797995, Note_off_c, 0, 66, 57
1, 798020, Note_off_c, 0, 83, 59
1, 798023, Control_c, 0, 64, 52
1, 798038, Control_c, 0, 64, 46
1, 798050, Note_on_c, 0, 81, 72
1, 798051, Note_on_c, 0, 62, 64
1, 798053, Control_c, 0, 64, 34
1, 798054, Note_on_c, 0, 64, 66
1, 798065, Note_on_c, 0, 73, 55
1, 798067, Control_c, 0, 64, 0
1, 798070, Note_on_c, 0, 79, 48
1, 798087, Note_off_c, 0, 73, 62
1, 798087, Note_off_c, 0, 81, 61
1, 798096, Note_off_c, 0, 79, 53
1, 798147, Note_off_c, 0, 64, 57
1, 798159, Note_on_c, 0, 69, 64
1, 798272, Note_on_c, 0, 66, 68
1, 798272, Note_on_c, 0, 81, 70
1, 798275, Note_on_c, 0, 74, 60
1, 798278, Note_on_c, 0, 78, 60
1, 798282, Note_off_c, 0, 62, 62
1, 798291, Note_off_c, 0, 69, 50
1, 798301, Note_off_c, 0, 74, 64
1, 798302, Note_off_c, 0, 81, 64
1, 798308, Note_off_c, 0, 78, 67
1, 798373, Note_on_c, 0, 62, 69
1, 798397, Note_off_c, 0, 66, 54
1, 798467, Control_c, 0, 64, 34
1, 798482, Note_on_c, 0, 81, 74
1, 798482, Control_c, 0, 64, 47
1, 798484, Note_on_c, 0, 73, 66
1, 798484, Note_on_c, 0, 79, 73
1, 798485, Note_on_c, 0, 64, 65
1, 798497, Control_c, 0, 64, 54
1, 798512, Control_c, 0, 64, 57
1, 798514, Note_off_c, 0, 79, 64
1, 798517, Note_off_c, 0, 73, 61
1, 798518, Note_off_c, 0, 81, 61
1, 798527, Control_c, 0, 64, 58
1, 798585, Note_on_c, 0, 69, 67
1, 798585, Note_off_c, 0, 62, 44
1, 798627, Note_off_c, 0, 64, 59
1, 798661, Control_c, 0, 64, 59
1, 798676, Control_c, 0, 64, 60
1, 798686, Note_on_c, 0, 81, 71
1, 798690, Note_on_c, 0, 66, 71
1, 798690, Control_c, 0, 64, 60
1, 798696, Note_on_c, 0, 78, 66
1, 798698, Note_on_c, 0, 74, 57
1, 798705, Control_c, 0, 64, 61
1, 798705, Control_c, 0, 67, 121
1, 798720, Control_c, 0, 64, 62
1, 798720, Control_c, 0, 67, 104
1, 798723, Note_off_c, 0, 81, 63
1, 798731, Note_off_c, 0, 78, 67
1, 798732, Note_off_c, 0, 69, 52
1, 798732, Note_off_c, 0, 74, 65
1, 798743, Control_c, 0, 67, 87
1, 798757, Control_c, 0, 67, 72
1, 798772, Control_c, 0, 64, 62
1, 798772, Control_c, 0, 67, 59
1, 798787, Control_c, 0, 67, 53
1, 798800, Note_on_c, 0, 62, 72
1, 798802, Control_c, 0, 67, 49
1, 798816, Control_c, 0, 67, 48
1, 798826, Note_off_c, 0, 66, 59
1, 798831, Control_c, 0, 67, 47
1, 798833, Note_off_c, 0, 62, 63
1, 798861, Control_c, 0, 64, 61
1, 798861, Control_c, 0, 67, 46
1, 798876, Control_c, 0, 64, 58
1, 798876, Control_c, 0, 67, 45
1, 798890, Control_c, 0, 64, 48
1, 798890, Control_c, 0, 67, 43
1, 798904, Note_on_c, 0, 73, 73
1, 798905, Control_c, 0, 64, 39
1, 798905, Control_c, 0, 67, 32
1, 798907, Note_on_c, 0, 76, 77
1, 798908, Note_on_c, 0, 57, 81
1, 798920, Control_c, 0, 64, 37
1, 798920, Control_c, 0, 67, 0
1, 798934, Note_on_c, 0, 64, 52
1, 798935, Control_c, 0, 64, 41
1, 798939, Note_off_c, 0, 73, 56
1, 798950, Control_c, 0, 64, 46
1, 798961, Note_off_c, 0, 64, 58
1, 798964, Control_c, 0, 64, 52
1, 798979, Control_c, 0, 64, 57
1, 798989, Note_off_c, 0, 76, 52
1, 798994, Control_c, 0, 64, 60
1, 799008, Control_c, 0, 64, 62
1, 799016, Note_on_c, 0, 71, 62
1, 799019, Note_on_c, 0, 74, 62
1, 799023, Control_c, 0, 64, 63
1, 799031, Note_on_c, 0, 69, 59
1, 799038, Control_c, 0, 64, 64
1, 799048, Note_off_c, 0, 71, 63
1, 799068, Control_c, 0, 64, 64
1, 799069, Note_off_c, 0, 69, 59
1, 799077, Note_off_c, 0, 74, 53
1, 799119, Note_on_c, 0, 73, 73
1, 799128, Note_on_c, 0, 64, 61
1, 799132, Note_on_c, 0, 69, 54
1, 799174, Note_off_c, 0, 73, 51
1, 799179, Note_off_c, 0, 69, 60
1, 799210, Note_off_c, 0, 64, 60
1, 799218, Note_on_c, 0, 71, 69
1, 799218, Note_on_c, 0, 74, 68
1, 799219, Note_on_c, 0, 61, 67
1, 799223, Note_off_c, 0, 57, 36
1, 799246, Control_c, 0, 64, 63
1, 799261, Control_c, 0, 64, 60
1, 799262, Note_off_c, 0, 71, 57
1, 799275, Control_c, 0, 64, 54
1, 799277, Note_off_c, 0, 74, 59
1, 799290, Control_c, 0, 64, 48
1, 799305, Control_c, 0, 64, 49
1, 799320, Control_c, 0, 64, 52
1, 799327, Note_on_c, 0, 73, 81
1, 799330, Note_on_c, 0, 76, 81
1, 799330, Note_off_c, 0, 61, 60
1, 799332, Note_on_c, 0, 57, 79
1, 799334, Control_c, 0, 64, 56
1, 799349, Control_c, 0, 64, 60
1, 799365, Note_off_c, 0, 73, 61
1, 799365, Control_c, 0, 64, 63
1, 799376, Note_off_c, 0, 76, 63
1, 799380, Control_c, 0, 64, 65
1, 799395, Control_c, 0, 64, 66
1, 799411, Control_c, 0, 64, 66
1, 799434, Note_on_c, 0, 64, 74
1, 799438, Note_off_c, 0, 57, 59
1, 799525, Note_off_c, 0, 64, 54
1, 799545, Note_on_c, 0, 61, 71
1, 799552, Note_on_c, 0, 71, 70
1, 799552, Note_on_c, 0, 74, 75
1, 799581, Control_c, 0, 64, 66
1, 799587, Note_off_c, 0, 71, 62
1, 799596, Control_c, 0, 64, 65
1, 799610, Control_c, 0, 64, 63
1, 799614, Note_off_c, 0, 61, 61
1, 799625, Control_c, 0, 64, 61
1, 799632, Note_on_c, 0, 57, 68
1, 799640, Control_c, 0, 64, 57
1, 799646, Note_on_c, 0, 73, 75
1, 799650, Note_off_c, 0, 74, 60
1, 799653, Note_on_c, 0, 69, 40
1, 799655, Control_c, 0, 64, 49
1, 799670, Control_c, 0, 64, 29
1, 799674, Note_off_c, 0, 57, 63
1, 799685, Control_c, 0, 64, 0
1, 799688, Note_off_c, 0, 69, 64
1, 799703, Note_off_c, 0, 73, 61
1, 799768, Note_on_c, 0, 62, 78
1, 799769, Note_on_c, 0, 52, 74
1, 799773, Note_on_c, 0, 68, 73
1, 799774, Note_on_c, 0, 56, 70
1, 799774, Note_on_c, 0, 59, 64
1, 799783, Note_on_c, 0, 72, 63
1, 799783, Note_on_c, 0, 71, 68
1, 799788, Control_c, 0, 64, 46
1, 799801, Note_off_c, 0, 62, 65
1, 799803, Control_c, 0, 64, 60
1, 799806, Note_off_c, 0, 59, 65
1, 799818, Control_c, 0, 64, 62
1, 799821, Note_off_c, 0, 52, 60
1, 799823, Note_off_c, 0, 56, 60
1, 799828, Note_off_c, 0, 68, 62
1, 799866, Note_off_c, 0, 72, 55
1, 799873, Note_off_c, 0, 71, 53
1, 799881, Note_on_c, 0, 66, 62
1, 799881, Note_on_c, 0, 69, 66
1, 799932, Note_off_c, 0, 66, 51
1, 799980, Control_c, 0, 64, 63
1, 799989, Note_off_c, 0, 69, 59
1, 799995, Control_c, 0, 64, 63
1, 799998, Note_on_c, 0, 47, 76
1, 799998, Note_on_c, 0, 59, 77
1, 799999, Note_on_c, 0, 64, 68
1, 799999, Note_on_c, 0, 68, 68
1, 800010, Control_c, 0, 64, 64
1, 800038, Note_off_c, 0, 59, 61
1, 800055, Note_off_c, 0, 47, 60
1, 800100, Note_on_c, 0, 66, 66
1, 800100, Note_off_c, 0, 68, 30
1, 800101, Note_off_c, 0, 64, 37
1, 800102, Note_on_c, 0, 69, 68
1, 800143, Control_c, 0, 64, 63
1, 800146, Note_off_c, 0, 66, 53
1, 800157, Control_c, 0, 64, 62
1, 800172, Control_c, 0, 64, 62
1, 800187, Control_c, 0, 64, 61
1, 800201, Note_on_c, 0, 44, 86
1, 800201, Note_on_c, 0, 56, 77
1, 800210, Note_on_c, 0, 68, 78
1, 800213, Note_on_c, 0, 71, 72
1, 800218, Control_c, 0, 64, 62
1, 800233, Note_off_c, 0, 69, 55
1, 800240, Control_c, 0, 64, 62
1, 800242, Note_off_c, 0, 56, 63
1, 800254, Control_c, 0, 64, 63
1, 800269, Control_c, 0, 64, 64
1, 800274, Note_off_c, 0, 44, 63
1, 800284, Control_c, 0, 64, 64
1, 800295, Note_off_c, 0, 71, 64
1, 800299, Control_c, 0, 64, 65
1, 800312, Note_off_c, 0, 68, 63
1, 800323, Note_on_c, 0, 64, 78
1, 800374, Control_c, 0, 64, 65
1, 800418, Control_c, 0, 64, 66
1, 800422, Note_on_c, 0, 40, 81
1, 800424, Note_on_c, 0, 52, 87
1, 800434, Note_on_c, 0, 71, 77
1, 800437, Note_off_c, 0, 64, 45
1, 800440, Note_on_c, 0, 68, 76
1, 800455, Note_off_c, 0, 40, 66
1, 800470, Note_off_c, 0, 52, 65
1, 800482, Note_off_c, 0, 68, 58
1, 800526, Note_off_c, 0, 71, 51
1, 800529, Note_on_c, 0, 76, 83
1, 800536, Control_c, 0, 64, 66
1, 800566, Control_c, 0, 64, 66
1, 800570, Note_off_c, 0, 76, 61
1, 800580, Control_c, 0, 64, 65
1, 800595, Control_c, 0, 64, 63
1, 800610, Control_c, 0, 64, 54
1, 800625, Control_c, 0, 64, 0
1, 800663, Note_on_c, 0, 67, 90
1, 800667, Note_on_c, 0, 57, 81
1, 800668, Note_on_c, 0, 64, 70
1, 800669, Note_on_c, 0, 76, 95
1, 800671, Note_on_c, 0, 61, 80
1, 800699, Control_c, 0, 64, 45
1, 800708, Note_off_c, 0, 64, 61
1, 800710, Note_off_c, 0, 67, 63
1, 800714, Control_c, 0, 64, 60
1, 800728, Control_c, 0, 64, 68
1, 800734, Note_off_c, 0, 57, 65
1, 800742, Note_off_c, 0, 61, 62
1, 800743, Control_c, 0, 64, 73
1, 800758, Control_c, 0, 64, 76
1, 800773, Control_c, 0, 64, 76
1, 800798, Note_on_c, 0, 73, 84
1, 800809, Note_off_c, 0, 76, 56
1, 800912, Note_off_c, 0, 73, 64
1, 800914, Note_on_c, 0, 69, 79
1, 800916, Note_on_c, 0, 52, 75
1, 800917, Note_on_c, 0, 40, 81
1, 800953, Note_off_c, 0, 52, 63
1, 800964, Note_off_c, 0, 40, 59
1, 800966, Control_c, 0, 64, 76
1, 801017, Note_on_c, 0, 73, 90
1, 801050, Note_off_c, 0, 69, 57
1, 801126, Note_on_c, 0, 76, 89
1, 801128, Note_on_c, 0, 37, 84
1, 801131, Note_on_c, 0, 49, 69
1, 801152, Note_off_c, 0, 73, 63
1, 801165, Note_off_c, 0, 49, 65
1, 801181, Control_c, 0, 64, 75
1, 801187, Note_off_c, 0, 37, 62
1, 801232, Note_on_c, 0, 69, 82
1, 801232, Note_off_c, 0, 76, 54
1, 801341, Note_on_c, 0, 76, 85
1, 801347, Note_on_c, 0, 33, 88
1, 801348, Note_on_c, 0, 45, 87
1, 801348, Note_on_c, 0, 73, 80
1, 801363, Note_off_c, 0, 69, 63
1, 801396, Note_off_c, 0, 33, 62
1, 801399, Note_off_c, 0, 45, 64
1, 801403, Control_c, 0, 64, 75
1, 801418, Control_c, 0, 64, 72
1, 801420, Note_off_c, 0, 73, 54
1, 801433, Control_c, 0, 64, 65
1, 801448, Control_c, 0, 64, 47
1, 801461, Note_on_c, 0, 81, 88
1, 801463, Note_off_c, 0, 76, 59
1, 801463, Control_c, 0, 64, 0
1, 801563, Note_off_c, 0, 81, 62
1, 801629, Note_on_c, 0, 50, 95
1, 801629, Note_on_c, 0, 38, 92
1, 801632, Note_on_c, 0, 74, 86
1, 801632, Note_on_c, 0, 78, 83
1, 801633, Note_on_c, 0, 81, 89
1, 801634, Note_on_c, 0, 69, 83
1, 801641, Control_c, 0, 64, 54
1, 801656, Control_c, 0, 64, 77
1, 801665, Note_off_c, 0, 38, 61
1, 801670, Note_off_c, 0, 50, 65
1, 801670, Control_c, 0, 64, 97
1, 801681, Note_off_c, 0, 74, 61
1, 801685, Note_off_c, 0, 78, 62
1, 801685, Control_c, 0, 64, 120
1, 801700, Control_c, 0, 64, 122
1, 801704, Note_off_c, 0, 69, 56
1, 801706, Note_off_c, 0, 81, 58
1, 801752, Control_c, 0, 64, 120
1, 801797, Control_c, 0, 64, 118
1, 801827, Control_c, 0, 64, 116
1, 801857, Control_c, 0, 64, 114
1, 801872, Control_c, 0, 64, 111
1, 801887, Control_c, 0, 64, 108
1, 801894, Note_on_c, 0, 73, 86
1, 801895, Note_on_c, 0, 81, 88
1, 801900, Note_on_c, 0, 76, 73
1, 801904, Note_on_c, 0, 57, 77
1, 801912, Note_on_c, 0, 64, 59
1, 801916, Control_c, 0, 64, 105
1, 801923, Note_off_c, 0, 76, 69
1, 801938, Note_off_c, 0, 73, 60
1, 801943, Note_off_c, 0, 64, 65
1, 801945, Note_off_c, 0, 81, 61
1, 801946, Control_c, 0, 64, 103
1, 802000, Note_on_c, 0, 69, 66
1, 802005, Control_c, 0, 64, 101
1, 802079, Control_c, 0, 64, 99
1, 802091, Note_off_c, 0, 57, 39
1, 802117, Note_on_c, 0, 78, 89
1, 802120, Note_on_c, 0, 74, 93
1, 802120, Note_on_c, 0, 81, 88
1, 802124, Note_on_c, 0, 62, 62
1, 802132, Note_on_c, 0, 66, 64
1, 802147, Note_off_c, 0, 69, 28
1, 802151, Note_off_c, 0, 74, 62
1, 802162, Note_off_c, 0, 78, 62
1, 802163, Note_off_c, 0, 81, 63
1, 802174, Note_off_c, 0, 66, 61
1, 802179, Note_off_c, 0, 62, 60
1, 802213, Control_c, 0, 64, 97
1, 802257, Control_c, 0, 64, 96
1, 802287, Control_c, 0, 64, 95
1, 802316, Control_c, 0, 64, 95
1, 802331, Control_c, 0, 64, 94
1, 802342, Note_on_c, 0, 57, 70
1, 802350, Note_on_c, 0, 64, 63
1, 802351, Note_on_c, 0, 81, 95
1, 802353, Note_on_c, 0, 73, 89
1, 802373, Note_off_c, 0, 73, 70
1, 802395, Note_off_c, 0, 81, 63
1, 802413, Note_off_c, 0, 57, 60
1, 802421, Note_off_c, 0, 64, 63
1, 802434, Control_c, 0, 64, 94
1, 802448, Note_on_c, 0, 69, 69
1, 802464, Control_c, 0, 64, 93
1, 802486, Control_c, 0, 64, 91
1, 802501, Control_c, 0, 64, 85
1, 802515, Note_off_c, 0, 69, 54
1, 802516, Control_c, 0, 64, 72
1, 802531, Control_c, 0, 64, 58
1, 802546, Control_c, 0, 64, 0
1, 802590, Note_on_c, 0, 62, 66
1, 802590, Note_on_c, 0, 74, 94
1, 802591, Note_on_c, 0, 66, 74
1, 802591, Note_on_c, 0, 78, 84
1, 802591, Note_on_c, 0, 81, 95
1, 802636, Control_c, 0, 64, 36
1, 802638, Note_off_c, 0, 78, 59
1, 802644, Note_off_c, 0, 74, 61
1, 802650, Control_c, 0, 64, 49
1, 802665, Control_c, 0, 64, 58
1, 802667, Note_off_c, 0, 66, 60
1, 802674, Note_off_c, 0, 81, 61
1, 802680, Control_c, 0, 64, 62
1, 802684, Note_off_c, 0, 62, 61
1, 802695, Control_c, 0, 64, 62
1, 802704, Note_on_c, 0, 76, 83
1, 802705, Note_on_c, 0, 79, 82
1, 802708, Note_on_c, 0, 64, 67
1, 802710, Control_c, 0, 64, 63
1, 802723, Note_on_c, 0, 74, 9
1, 802753, Note_off_c, 0, 76, 63
1, 802764, Note_off_c, 0, 74, 27
1, 802776, Note_off_c, 0, 64, 58
1, 802786, Note_off_c, 0, 79, 51
1, 802806, Note_on_c, 0, 54, 67
1, 802806, Note_on_c, 0, 78, 84
1, 802812, Note_on_c, 0, 62, 67
1, 802815, Note_on_c, 0, 74, 79
1, 802869, Note_off_c, 0, 62, 62
1, 802872, Note_off_c, 0, 78, 60
1, 802880, Note_off_c, 0, 74, 56
1, 802884, Note_off_c, 0, 54, 60
1, 802898, Note_on_c, 0, 64, 69
1, 802907, Note_on_c, 0, 76, 85
1, 802907, Note_on_c, 0, 79, 83
1, 802961, Note_off_c, 0, 76, 63
1, 802963, Note_off_c, 0, 64, 63
1, 802976, Note_off_c, 0, 79, 64
1, 803012, Note_on_c, 0, 62, 67
1, 803018, Note_on_c, 0, 66, 72
1, 803018, Note_on_c, 0, 81, 89
1, 803020, Note_on_c, 0, 78, 87
1, 803021, Note_on_c, 0, 74, 88
1, 803050, Note_off_c, 0, 66, 64
1, 803051, Note_off_c, 0, 74, 63
1, 803059, Note_off_c, 0, 81, 66
1, 803061, Note_off_c, 0, 78, 65
1, 803062, Note_off_c, 0, 62, 62
1, 803065, Control_c, 0, 64, 62
1, 803080, Control_c, 0, 64, 55
1, 803094, Control_c, 0, 64, 0
1, 803269, Note_on_c, 0, 54, 72
1, 803271, Note_on_c, 0, 74, 100
1, 803271, Note_on_c, 0, 83, 101
1, 803272, Note_on_c, 0, 71, 92
1, 803274, Note_on_c, 0, 66, 82
1, 803277, Note_on_c, 0, 62, 70
1, 803280, Control_c, 0, 64, 53
1, 803281, Note_on_c, 0, 59, 63
1, 803290, Note_on_c, 0, 78, 56
1, 803295, Control_c, 0, 64, 71
1, 803300, Note_off_c, 0, 74, 67
1, 803309, Control_c, 0, 64, 80
1, 803312, Note_off_c, 0, 71, 63
1, 803312, Note_off_c, 0, 83, 64
1, 803313, Note_off_c, 0, 78, 62
1, 803323, Note_off_c, 0, 54, 64
1, 803324, Control_c, 0, 64, 87
1, 803339, Control_c, 0, 64, 88
1, 803347, Note_off_c, 0, 66, 60
1, 803349, Note_off_c, 0, 62, 60
1, 803365, Note_off_c, 0, 59, 61
1, 803414, Control_c, 0, 64, 88
1, 803459, Control_c, 0, 64, 87
1, 803473, Control_c, 0, 64, 83
1, 803488, Control_c, 0, 64, 74
1, 803503, Control_c, 0, 64, 62
1, 803504, Note_on_c, 0, 57, 76
1, 803513, Note_on_c, 0, 73, 83
1, 803515, Note_on_c, 0, 76, 83
1, 803518, Control_c, 0, 64, 40
1, 803523, Note_on_c, 0, 61, 61
1, 803532, Control_c, 0, 64, 0
1, 803607, Note_off_c, 0, 57, 62
1, 803617, Note_on_c, 0, 62, 69
1, 803621, Control_c, 0, 64, 33
1, 803626, Note_on_c, 0, 69, 72
1, 803636, Control_c, 0, 64, 36
1, 803638, Note_off_c, 0, 76, 52
1, 803656, Note_off_c, 0, 61, 59
1, 803659, Note_off_c, 0, 73, 57
1, 803680, Control_c, 0, 64, 37
1, 803695, Control_c, 0, 64, 38
1, 803710, Note_off_c, 0, 69, 62
1, 803710, Control_c, 0, 64, 40
1, 803721, Note_off_c, 0, 62, 61
1, 803724, Note_on_c, 0, 66, 75
1, 803724, Control_c, 0, 64, 43
1, 803727, Note_on_c, 0, 64, 74
1, 803739, Control_c, 0, 64, 45
1, 803754, Control_c, 0, 64, 47
1, 803769, Control_c, 0, 64, 48
1, 803814, Note_off_c, 0, 66, 60
1, 803820, Note_on_c, 0, 69, 78
1, 803824, Note_on_c, 0, 62, 74
1, 803858, Note_off_c, 0, 64, 55
1, 803873, Control_c, 0, 64, 49
1, 803888, Control_c, 0, 64, 49
1, 803903, Control_c, 0, 64, 50
1, 803917, Control_c, 0, 64, 51
1, 803923, Note_on_c, 0, 57, 73
1, 803930, Note_on_c, 0, 73, 77
1, 803930, Note_on_c, 0, 76, 76
1, 803935, Note_on_c, 0, 61, 76
1, 803937, Note_off_c, 0, 69, 61
1, 803939, Note_off_c, 0, 62, 61
1, 803947, Control_c, 0, 64, 48
1, 803962, Control_c, 0, 64, 0
1, 803966, Note_off_c, 0, 57, 62
1, 803977, Note_off_c, 0, 61, 62
1, 803986, Note_off_c, 0, 76, 61
1, 803989, Note_off_c, 0, 73, 63
1, 804168, Note_on_c, 0, 54, 77
1, 804169, Note_on_c, 0, 64, 81
1, 804174, Note_on_c, 0, 81, 102
1, 804175, Note_on_c, 0, 61, 72
1, 804175, Note_on_c, 0, 73, 94
1, 804177, Control_c, 0, 64, 56
1, 804177, Note_on_c, 0, 69, 86
1, 804182, Note_on_c, 0, 57, 68
1, 804192, Control_c, 0, 64, 64
1, 804207, Control_c, 0, 64, 69
1, 804209, Note_off_c, 0, 69, 64
1, 804213, Note_off_c, 0, 73, 59
1, 804215, Note_off_c, 0, 81, 66
1, 804222, Control_c, 0, 64, 74
1, 804231, Note_off_c, 0, 64, 62
1, 804237, Control_c, 0, 64, 80
1, 804240, Note_off_c, 0, 61, 60
1, 804252, Control_c, 0, 64, 86
1, 804261, Note_off_c, 0, 57, 58
1, 804267, Control_c, 0, 64, 90
1, 804268, Note_off_c, 0, 54, 57
1, 804355, Control_c, 0, 64, 88
1, 804370, Control_c, 0, 64, 78
1, 804385, Control_c, 0, 64, 65
1, 804400, Control_c, 0, 64, 48
1, 804403, Note_on_c, 0, 55, 72
1, 804415, Control_c, 0, 64, 0
1, 804416, Note_on_c, 0, 74, 80
1, 804419, Note_on_c, 0, 71, 79
1, 804420, Note_on_c, 0, 59, 65
1, 804501, Note_off_c, 0, 74, 51
1, 804503, Control_c, 0, 64, 31
1, 804518, Control_c, 0, 64, 36
1, 804519, Note_off_c, 0, 55, 53
1, 804526, Note_on_c, 0, 67, 74
1, 804529, Note_on_c, 0, 61, 71
1, 804533, Control_c, 0, 64, 39
1, 804559, Note_off_c, 0, 71, 58
1, 804563, Note_off_c, 0, 59, 53
1, 804577, Control_c, 0, 64, 39
1, 804592, Control_c, 0, 64, 40
1, 804607, Control_c, 0, 64, 42
1, 804618, Note_off_c, 0, 67, 64
1, 804621, Control_c, 0, 64, 44
1, 804628, Note_on_c, 0, 64, 68
1, 804629, Note_off_c, 0, 61, 62
1, 804633, Note_on_c, 0, 62, 75
1, 804636, Control_c, 0, 64, 46
1, 804651, Control_c, 0, 64, 47
1, 804706, Note_off_c, 0, 64, 56
1, 804733, Control_c, 0, 64, 47
1, 804735, Note_on_c, 0, 67, 78
1, 804739, Note_on_c, 0, 61, 75
1, 804759, Note_on_c, 0, 55, 55
1, 804762, Control_c, 0, 64, 49
1, 804763, Note_off_c, 0, 62, 58
1, 804777, Control_c, 0, 64, 50
1, 804792, Control_c, 0, 64, 50
1, 804807, Control_c, 0, 64, 51
1, 804811, Note_off_c, 0, 61, 60
1, 804812, Note_off_c, 0, 55, 47
1, 804836, Note_on_c, 0, 59, 73
1, 804836, Control_c, 0, 64, 51
1, 804847, Note_on_c, 0, 71, 77
1, 804848, Note_on_c, 0, 74, 79
1, 804848, Note_off_c, 0, 67, 54
1, 804866, Control_c, 0, 64, 50
1, 804879, Note_off_c, 0, 59, 63
1, 804881, Control_c, 0, 64, 46
1, 804893, Note_off_c, 0, 74, 63
1, 804896, Control_c, 0, 64, 30
1, 804898, Note_off_c, 0, 71, 64
1, 804911, Control_c, 0, 64, 0
1, 804990, Note_on_c, 0, 52, 70
1, 805017, Note_on_c, 0, 55, 73
1, 805033, Note_on_c, 0, 62, 64
1, 805074, Control_c, 0, 64, 58
1, 805079, Note_on_c, 0, 66, 88
1, 805080, Note_on_c, 0, 74, 98
1, 805080, Note_on_c, 0, 83, 101
1, 805083, Note_on_c, 0, 71, 90
1, 805083, Note_off_c, 0, 52, 61
1, 805089, Control_c, 0, 64, 65
1, 805104, Control_c, 0, 64, 71
1, 805107, Note_off_c, 0, 74, 65
1, 805113, Note_off_c, 0, 55, 64
1, 805116, Note_off_c, 0, 71, 63
1, 805117, Note_off_c, 0, 83, 66
1, 805119, Control_c, 0, 64, 78
1, 805128, Note_off_c, 0, 62, 62
1, 805134, Control_c, 0, 64, 86
1, 805140, Note_on_c, 0, 67, 10
1, 805149, Control_c, 0, 64, 92
1, 805151, Note_off_c, 0, 66, 62
1, 805164, Control_c, 0, 64, 95
1, 805170, Note_off_c, 0, 67, 0
1, 805178, Control_c, 0, 64, 95
1, 805193, Control_c, 0, 64, 95
1, 805200, Poly_aftertouch_c, 0, 67, 0
1, 805238, Control_c, 0, 64, 94
1, 805252, Control_c, 0, 64, 90
1, 805267, Control_c, 0, 64, 75
1, 805282, Control_c, 0, 64, 61
1, 805296, Control_c, 0, 64, 34
1, 805311, Note_on_c, 0, 57, 75
1, 805311, Control_c, 0, 64, 0
1, 805316, Note_on_c, 0, 61, 73
1, 805318, Note_on_c, 0, 73, 84
1, 805319, Note_on_c, 0, 76, 82
1, 805403, Note_off_c, 0, 57, 60
1, 805429, Note_on_c, 0, 62, 65
1, 805432, Note_on_c, 0, 69, 74
1, 805434, Note_off_c, 0, 76, 56
1, 805453, Note_off_c, 0, 61, 57
1, 805477, Note_off_c, 0, 73, 54
1, 805522, Note_off_c, 0, 62, 63
1, 805523, Note_off_c, 0, 69, 62
1, 805536, Note_on_c, 0, 66, 75
1, 805541, Note_on_c, 0, 64, 68
1, 805615, Note_off_c, 0, 66, 57
1, 805633, Note_on_c, 0, 69, 70
1, 805635, Note_on_c, 0, 62, 69
1, 805674, Note_off_c, 0, 64, 56
1, 805737, Note_on_c, 0, 57, 66
1, 805741, Note_on_c, 0, 73, 74
1, 805743, Note_on_c, 0, 76, 73
1, 805745, Note_on_c, 0, 61, 69
1, 805745, Note_off_c, 0, 62, 62
1, 805746, Note_off_c, 0, 69, 62
1, 805771, Note_off_c, 0, 57, 63
1, 805772, Note_off_c, 0, 61, 66
1, 805773, Note_off_c, 0, 73, 64
1, 805775, Note_off_c, 0, 76, 66
1, 805957, Control_c, 0, 64, 37
1, 805966, Note_on_c, 0, 54, 79
1, 805967, Note_on_c, 0, 64, 85
1, 805968, Note_on_c, 0, 81, 93
1, 805969, Note_on_c, 0, 73, 91
1, 805972, Note_on_c, 0, 69, 88
1, 805972, Control_c, 0, 64, 65
1, 805972, Note_on_c, 0, 61, 75
1, 805978, Note_on_c, 0, 57, 70
1, 805987, Control_c, 0, 64, 75
1, 806001, Control_c, 0, 64, 87
1, 806009, Note_off_c, 0, 81, 65
1, 806009, Note_off_c, 0, 73, 64
1, 806016, Control_c, 0, 64, 101
1, 806020, Note_off_c, 0, 69, 64
1, 806025, Note_off_c, 0, 64, 63
1, 806031, Control_c, 0, 64, 127
1, 806035, Note_off_c, 0, 61, 60
1, 806042, Note_off_c, 0, 54, 60
1, 806052, Note_off_c, 0, 57, 59
1, 806164, Control_c, 0, 64, 93
1, 806179, Control_c, 0, 64, 75
1, 806193, Control_c, 0, 64, 62
1, 806201, Note_on_c, 0, 55, 65
1, 806208, Note_on_c, 0, 71, 79
1, 806208, Control_c, 0, 64, 44
1, 806210, Note_on_c, 0, 74, 78
1, 806221, Note_on_c, 0, 59, 66
1, 806231, Control_c, 0, 64, 0
1, 806308, Note_off_c, 0, 55, 57
1, 806316, Note_on_c, 0, 67, 71
1, 806323, Note_off_c, 0, 74, 58
1, 806328, Note_on_c, 0, 61, 66
1, 806349, Note_off_c, 0, 59, 60
1, 806363, Note_off_c, 0, 71, 57
1, 806411, Note_off_c, 0, 67, 64
1, 806425, Note_off_c, 0, 61, 61
1, 806428, Note_on_c, 0, 64, 65
1, 806429, Note_on_c, 0, 62, 66
1, 806497, Note_off_c, 0, 64, 57
1, 806526, Note_on_c, 0, 67, 71
1, 806527, Note_on_c, 0, 61, 71
1, 806547, Note_off_c, 0, 62, 59
1, 806639, Note_on_c, 0, 55, 67
1, 806642, Note_off_c, 0, 61, 54
1, 806643, Note_on_c, 0, 71, 70
1, 806644, Note_on_c, 0, 59, 60
1, 806644, Note_on_c, 0, 74, 69
1, 806655, Note_off_c, 0, 67, 62
1, 806675, Note_off_c, 0, 59, 66
1, 806677, Note_off_c, 0, 71, 63
1, 806680, Note_off_c, 0, 74, 65
1, 806688, Note_off_c, 0, 55, 58
1, 806860, Note_on_c, 0, 52, 80
1, 806862, Note_on_c, 0, 62, 80
1, 806863, Note_on_c, 0, 55, 71
1, 806863, Note_on_c, 0, 79, 95
1, 806864, Note_on_c, 0, 59, 72
1, 806865, Note_on_c, 0, 71, 83
1, 806866, Note_on_c, 0, 67, 84
1, 806869, Control_c, 0, 64, 48
1, 806871, Note_on_c, 0, 74, 74
1, 806884, Control_c, 0, 64, 63
1, 806899, Control_c, 0, 64, 69
1, 806902, Note_off_c, 0, 74, 58
1, 806908, Note_off_c, 0, 67, 62
1, 806912, Note_off_c, 0, 55, 60
1, 806914, Note_off_c, 0, 71, 60
1, 806914, Control_c, 0, 64, 80
1, 806918, Note_off_c, 0, 52, 62
1, 806918, Note_off_c, 0, 59, 63
1, 806929, Control_c, 0, 64, 95
1, 806935, Note_off_c, 0, 79, 63
1, 806937, Note_off_c, 0, 62, 60
1, 806943, Control_c, 0, 64, 118
1, 806958, Control_c, 0, 64, 127
1, 807024, Control_c, 0, 64, 110
1, 807039, Control_c, 0, 64, 97
1, 807054, Control_c, 0, 64, 80
1, 807069, Control_c, 0, 64, 64
1, 807084, Control_c, 0, 64, 36
1, 807099, Control_c, 0, 64, 0
1, 807105, Note_on_c, 0, 64, 65
1, 807108, Note_on_c, 0, 57, 70
1, 807113, Note_on_c, 0, 61, 62
1, 807113, Note_on_c, 0, 69, 64
1, 807113, Note_on_c, 0, 76, 68
1, 807117, Note_on_c, 0, 73, 66
1, 807141, Note_off_c, 0, 76, 68
1, 807142, Note_off_c, 0, 69, 67
1, 807145, Note_off_c, 0, 61, 64
1, 807145, Note_off_c, 0, 73, 67
1, 807146, Note_off_c, 0, 64, 63
1, 807151, Note_off_c, 0, 57, 63
1, 807321, Control_c, 0, 64, 56
1, 807323, Note_on_c, 0, 54, 83
1, 807324, Note_on_c, 0, 81, 99
1, 807325, Note_on_c, 0, 61, 81
1, 807326, Note_on_c, 0, 69, 87
1, 807327, Note_on_c, 0, 73, 89
1, 807332, Note_on_c, 0, 64, 74
1, 807336, Control_c, 0, 64, 72
1, 807340, Note_on_c, 0, 57, 69
1, 807350, Control_c, 0, 64, 81
1, 807352, Note_on_c, 0, 76, 37
1, 807359, Note_off_c, 0, 73, 61
1, 807361, Note_off_c, 0, 57, 63
1, 807365, Control_c, 0, 64, 95
1, 807368, Note_off_c, 0, 64, 59
1, 807368, Note_off_c, 0, 69, 59
1, 807377, Note_off_c, 0, 61, 61
1, 807380, Note_off_c, 0, 54, 63
1, 807380, Control_c, 0, 64, 100
1, 807385, Note_off_c, 0, 76, 48
1, 807386, Note_off_c, 0, 81, 56
1, 807396, Control_c, 0, 64, 105
1, 807529, Control_c, 0, 64, 97
1, 807544, Control_c, 0, 64, 79
1, 807555, Note_on_c, 0, 66, 74
1, 807556, Note_on_c, 0, 74, 81
1, 807559, Note_on_c, 0, 62, 66
1, 807559, Note_on_c, 0, 71, 74
1, 807559, Note_on_c, 0, 78, 76
1, 807559, Control_c, 0, 64, 58
1, 807564, Note_on_c, 0, 59, 64
1, 807573, Control_c, 0, 64, 0
1, 807586, Note_off_c, 0, 78, 63
1, 807587, Note_off_c, 0, 74, 63
1, 807590, Note_off_c, 0, 71, 62
1, 807604, Note_off_c, 0, 62, 60
1, 807605, Note_off_c, 0, 59, 62
1, 807611, Note_off_c, 0, 66, 60
1, 807771, Note_on_c, 0, 55, 69
1, 807773, Control_c, 0, 64, 53
1, 807778, Note_on_c, 0, 83, 101
1, 807780, Note_on_c, 0, 66, 79
1, 807782, Note_on_c, 0, 71, 90
1, 807785, Note_on_c, 0, 74, 80
1, 807787, Note_on_c, 0, 59, 57
1, 807788, Control_c, 0, 64, 71
1, 807789, Note_on_c, 0, 62, 33
1, 807799, Note_on_c, 0, 78, 51
1, 807799, Note_off_c, 0, 78, 127
1, 807801, Note_off_c, 0, 74, 69
1, 807803, Control_c, 0, 64, 78
1, 807810, Note_off_c, 0, 71, 66
1, 807815, Note_off_c, 0, 59, 67
1, 807818, Control_c, 0, 64, 86
1, 807821, Note_off_c, 0, 62, 47
1, 807824, Note_off_c, 0, 55, 65
1, 807829, Note_off_c, 0, 83, 63
1, 807833, Control_c, 0, 64, 90
1, 807844, Note_off_c, 0, 66, 57
1, 807847, Control_c, 0, 64, 93
1, 807862, Control_c, 0, 64, 96
1, 807936, Control_c, 0, 64, 94
1, 807951, Control_c, 0, 64, 82
1, 807966, Control_c, 0, 64, 67
1, 807981, Control_c, 0, 64, 56
1, 807990, Note_on_c, 0, 61, 81
1, 807990, Note_on_c, 0, 64, 71
1, 807990, Note_on_c, 0, 79, 85
1, 807991, Note_on_c, 0, 67, 78
1, 807996, Note_on_c, 0, 76, 80
1, 807996, Control_c, 0, 64, 50
1, 808011, Control_c, 0, 64, 55
1, 808025, Control_c, 0, 64, 62
1, 808040, Control_c, 0, 64, 68
1, 808044, Note_off_c, 0, 64, 62
1, 808051, Note_off_c, 0, 67, 62
1, 808053, Note_off_c, 0, 61, 57
1, 808055, Control_c, 0, 64, 75
1, 808056, Note_off_c, 0, 76, 56
1, 808070, Control_c, 0, 64, 80
1, 808085, Control_c, 0, 64, 84
1, 808092, Note_off_c, 0, 79, 59
1, 808099, Control_c, 0, 64, 85
1, 808103, Note_on_c, 0, 73, 83
1, 808114, Control_c, 0, 64, 84
1, 808129, Control_c, 0, 64, 82
1, 808144, Control_c, 0, 64, 75
1, 808159, Control_c, 0, 64, 66
1, 808173, Control_c, 0, 64, 61
1, 808189, Control_c, 0, 64, 60
1, 808199, Note_on_c, 0, 69, 77
1, 808204, Control_c, 0, 64, 62
1, 808204, Note_on_c, 0, 57, 64
1, 808206, Note_on_c, 0, 79, 77
1, 808209, Note_on_c, 0, 64, 63
1, 808210, Note_on_c, 0, 61, 66
1, 808210, Note_on_c, 0, 76, 76
1, 808219, Control_c, 0, 64, 66
1, 808223, Note_off_c, 0, 73, 34
1, 808234, Control_c, 0, 64, 71
1, 808237, Note_off_c, 0, 57, 66
1, 808237, Note_off_c, 0, 64, 68
1, 808243, Note_off_c, 0, 61, 63
1, 808249, Control_c, 0, 64, 77
1, 808252, Note_off_c, 0, 69, 63
1, 808263, Control_c, 0, 64, 83
1, 808264, Note_off_c, 0, 76, 63
1, 808278, Control_c, 0, 64, 86
1, 808293, Control_c, 0, 64, 87
1, 808312, Note_on_c, 0, 85, 88
1, 808321, Note_off_c, 0, 79, 58
1, 808337, Control_c, 0, 64, 84
1, 808351, Control_c, 0, 64, 72
1, 808366, Control_c, 0, 64, 59
1, 808371, Note_off_c, 0, 85, 65
1, 808381, Control_c, 0, 64, 0
1, 808416, Note_on_c, 0, 62, 75
1, 808422, Note_on_c, 0, 66, 75
1, 808424, Note_on_c, 0, 81, 89
1, 808429, Note_on_c, 0, 78, 87
1, 808455, Control_c, 0, 64, 44
1, 808477, Control_c, 0, 64, 59
1, 808491, Note_off_c, 0, 62, 60
1, 808492, Control_c, 0, 64, 66
1, 808498, Note_off_c, 0, 66, 57
1, 808507, Control_c, 0, 64, 69
1, 808521, Control_c, 0, 64, 71
1, 808527, Note_on_c, 0, 74, 84
1, 808536, Control_c, 0, 64, 73
1, 808549, Note_off_c, 0, 78, 42
1, 808553, Note_off_c, 0, 81, 62
1, 808581, Control_c, 0, 64, 71
1, 808595, Control_c, 0, 64, 65
1, 808610, Control_c, 0, 64, 55
1, 808616, Note_off_c, 0, 74, 61
1, 808625, Control_c, 0, 64, 43
1, 808635, Note_on_c, 0, 59, 66
1, 808638, Note_on_c, 0, 86, 93
1, 808640, Control_c, 0, 64, 39
1, 808646, Note_on_c, 0, 78, 81
1, 808650, Note_on_c, 0, 66, 65
1, 808655, Note_on_c, 0, 62, 59
1, 808655, Control_c, 0, 64, 48
1, 808670, Control_c, 0, 64, 58
1, 808681, Note_off_c, 0, 78, 54
1, 808685, Control_c, 0, 64, 63
1, 808687, Note_off_c, 0, 59, 58
1, 808687, Note_off_c, 0, 62, 64
1, 808700, Control_c, 0, 64, 67
1, 808708, Note_off_c, 0, 66, 59
1, 808714, Control_c, 0, 64, 70
1, 808726, Note_off_c, 0, 86, 62
1, 808729, Control_c, 0, 64, 72
1, 808730, Note_on_c, 0, 68, 67
1, 808736, Note_on_c, 0, 80, 86
1, 808759, Control_c, 0, 64, 73
1, 808774, Control_c, 0, 64, 72
1, 808783, Note_off_c, 0, 68, 60
1, 808784, Note_off_c, 0, 80, 63
1, 808789, Control_c, 0, 64, 70
1, 808804, Control_c, 0, 64, 63
1, 808819, Control_c, 0, 64, 41
1, 808833, Control_c, 0, 64, 0
1, 808854, Note_on_c, 0, 69, 82
1, 808855, Note_on_c, 0, 57, 75
1, 808855, Note_on_c, 0, 81, 95
1, 808857, Note_on_c, 0, 85, 90
1, 808860, Note_on_c, 0, 64, 66
1, 808863, Note_on_c, 0, 61, 68
1, 808893, Control_c, 0, 64, 34
1, 808908, Control_c, 0, 64, 57
1, 808919, Note_off_c, 0, 69, 59
1, 808922, Control_c, 0, 64, 65
1, 808937, Control_c, 0, 64, 69
1, 808941, Note_off_c, 0, 81, 59
1, 808949, Note_off_c, 0, 85, 64
1, 808952, Control_c, 0, 64, 72
1, 808953, Note_off_c, 0, 64, 60
1, 808962, Note_off_c, 0, 57, 61
1, 808967, Control_c, 0, 64, 72
1, 808969, Note_on_c, 0, 76, 86
1, 808994, Note_off_c, 0, 61, 60
1, 809033, Note_off_c, 0, 76, 61
1, 809073, Note_on_c, 0, 73, 79
1, 809161, Note_on_c, 0, 69, 79
1, 809182, Note_off_c, 0, 73, 61
1, 809237, Note_off_c, 0, 69, 59
1, 809303, Note_on_c, 0, 57, 84
1, 809330, Note_off_c, 0, 57, 65
1, 809494, Control_c, 0, 64, 72
1, 809509, Control_c, 0, 64, 70
1, 809524, Control_c, 0, 64, 65
1, 809538, Control_c, 0, 64, 51
1, 809553, Control_c, 0, 64, 0
1, 809567, Note_on_c, 0, 33, 97
1, 809598, Control_c, 0, 64, 46
1, 809611, Note_off_c, 0, 33, 65
1, 809612, Control_c, 0, 64, 67
1, 809627, Control_c, 0, 64, 91
1, 809642, Control_c, 0, 64, 127
1, 809844, Note_on_c, 0, 71, 88
1, 809853, Note_on_c, 0, 55, 60
1, 809858, Note_on_c, 0, 62, 55
1, 809860, Note_on_c, 0, 66, 58
1, 809881, Note_off_c, 0, 66, 60
1, 809883, Note_off_c, 0, 71, 63
1, 809884, Note_off_c, 0, 55, 65
1, 809900, Note_off_c, 0, 62, 53
1, 810081, Note_on_c, 0, 67, 88
1, 810095, Note_on_c, 0, 62, 65
1, 810100, Note_on_c, 0, 59, 48
1, 810118, Note_off_c, 0, 62, 65
1, 810125, Note_off_c, 0, 67, 64
1, 810133, Note_off_c, 0, 59, 64
1, 810150, Note_on_c, 0, 52, 2
1, 810190, Note_off_c, 0, 52, 48
1, 810315, Note_on_c, 0, 71, 85
1, 810320, Note_on_c, 0, 66, 77
1, 810321, Note_on_c, 0, 55, 56
1, 810333, Note_on_c, 0, 62, 52
1, 810345, Note_off_c, 0, 66, 66
1, 810357, Note_off_c, 0, 55, 63
1, 810360, Note_off_c, 0, 71, 64
1, 810366, Note_off_c, 0, 62, 63
1, 810548, Note_on_c, 0, 67, 84
1, 810553, Note_on_c, 0, 52, 57
1, 810553, Note_on_c, 0, 59, 54
1, 810555, Note_on_c, 0, 62, 74
1, 810587, Note_off_c, 0, 62, 64
1, 810587, Note_off_c, 0, 67, 61
1, 810589, Note_off_c, 0, 59, 63
1, 810611, Note_off_c, 0, 52, 51
1, 810703, Control_c, 0, 64, 117
1, 810725, Control_c, 0, 64, 101
1, 810740, Control_c, 0, 64, 83
1, 810755, Control_c, 0, 64, 64
1, 810770, Control_c, 0, 64, 45
1, 810774, Note_on_c, 0, 62, 66
1, 810779, Note_on_c, 0, 66, 85
1, 810779, Note_on_c, 0, 71, 87
1, 810781, Note_on_c, 0, 55, 64
1, 810785, Control_c, 0, 64, 0
1, 810806, Note_off_c, 0, 62, 63
1, 810814, Control_c, 0, 64, 40
1, 810826, Note_off_c, 0, 66, 60
1, 810829, Control_c, 0, 64, 53
1, 810832, Note_off_c, 0, 71, 62
1, 810843, Control_c, 0, 64, 60
1, 810858, Control_c, 0, 64, 64
1, 810873, Control_c, 0, 64, 64
1, 810883, Note_on_c, 0, 67, 82
1, 810892, Note_on_c, 0, 52, 71
1, 810895, Note_on_c, 0, 59, 60
1, 810899, Note_on_c, 0, 62, 67
1, 810899, Note_off_c, 0, 55, 62
1, 810917, Control_c, 0, 64, 64
1, 810930, Note_off_c, 0, 59, 62
1, 810933, Note_off_c, 0, 67, 65
1, 810935, Note_off_c, 0, 62, 63
1, 810988, Note_on_c, 0, 49, 79
1, 810992, Note_on_c, 0, 64, 84
1, 811000, Note_off_c, 0, 52, 57
1, 811004, Note_on_c, 0, 55, 59
1, 811045, Note_off_c, 0, 64, 62
1, 811066, Control_c, 0, 64, 63
1, 811077, Note_on_c, 0, 59, 70
1, 811082, Note_on_c, 0, 67, 84
1, 811093, Note_on_c, 0, 52, 64
1, 811096, Control_c, 0, 64, 63
1, 811104, Note_on_c, 0, 53, 56
1, 811106, Note_off_c, 0, 55, 61
1, 811107, Note_off_c, 0, 49, 61
1, 811110, Control_c, 0, 64, 61
1, 811125, Control_c, 0, 64, 56
1, 811135, Note_off_c, 0, 59, 62
1, 811136, Note_off_c, 0, 67, 65
1, 811140, Control_c, 0, 64, 41
1, 811151, Note_off_c, 0, 53, 52
1, 811155, Control_c, 0, 64, 0
1, 811191, Note_on_c, 0, 55, 72
1, 811192, Note_on_c, 0, 62, 83
1, 811197, Note_off_c, 0, 52, 32
1, 811197, Note_on_c, 0, 71, 94
1, 811200, Note_on_c, 0, 66, 87
1, 811222, Note_off_c, 0, 66, 66
1, 811225, Note_off_c, 0, 55, 67
1, 811229, Control_c, 0, 64, 51
1, 811237, Note_off_c, 0, 71, 65
1, 811243, Control_c, 0, 64, 64
1, 811249, Note_off_c, 0, 62, 63
1, 811258, Control_c, 0, 64, 70
1, 811273, Control_c, 0, 64, 74
1, 811288, Control_c, 0, 64, 75
1, 811346, Control_c, 0, 64, 74
1, 811360, Control_c, 0, 64, 72
1, 811375, Control_c, 0, 64, 70
1, 811391, Control_c, 0, 64, 69
1, 811421, Note_on_c, 0, 74, 95
1, 811422, Note_on_c, 0, 66, 79
1, 811423, Note_on_c, 0, 59, 69
1, 811433, Note_on_c, 0, 69, 73
1, 811451, Control_c, 0, 64, 69
1, 811463, Note_off_c, 0, 69, 68
1, 811467, Note_off_c, 0, 74, 66
1, 811502, Note_off_c, 0, 66, 58
1, 811504, Note_off_c, 0, 59, 59
1, 811591, Control_c, 0, 64, 68
1, 811606, Control_c, 0, 64, 64
1, 811621, Control_c, 0, 64, 52
1, 811635, Control_c, 0, 64, 0
1, 811646, Note_on_c, 0, 62, 69
1, 811648, Note_on_c, 0, 69, 76
1, 811650, Note_on_c, 0, 78, 93
1, 811653, Note_on_c, 0, 73, 88
1, 811693, Note_off_c, 0, 73, 63
1, 811695, Control_c, 0, 64, 47
1, 811710, Control_c, 0, 64, 60
1, 811712, Note_off_c, 0, 62, 62
1, 811712, Note_off_c, 0, 69, 62
1, 811720, Note_off_c, 0, 78, 62
1, 811725, Control_c, 0, 64, 66
1, 811739, Control_c, 0, 64, 68
1, 811821, Note_on_c, 0, 59, 64
1, 811823, Note_on_c, 0, 66, 68
1, 811829, Note_on_c, 0, 74, 91
1, 811835, Note_on_c, 0, 69, 77
1, 811873, Note_off_c, 0, 69, 61
1, 811879, Note_off_c, 0, 66, 62
1, 811880, Note_off_c, 0, 74, 64
1, 811892, Note_off_c, 0, 59, 60
1, 811950, Note_on_c, 0, 62, 70
1, 811957, Note_on_c, 0, 73, 85
1, 811958, Note_on_c, 0, 78, 83
1, 811979, Note_on_c, 0, 69, 46
1, 811982, Note_off_c, 0, 62, 64
1, 811999, Note_off_c, 0, 73, 62
1, 812008, Note_off_c, 0, 69, 49
1, 812011, Note_off_c, 0, 78, 62
1, 812035, Control_c, 0, 64, 66
1, 812050, Control_c, 0, 64, 62
1, 812065, Control_c, 0, 64, 57
1, 812071, Note_on_c, 0, 58, 79
1, 812077, Note_on_c, 0, 69, 88
1, 812080, Control_c, 0, 64, 55
1, 812085, Note_on_c, 0, 74, 82
1, 812095, Control_c, 0, 64, 56
1, 812103, Note_on_c, 0, 66, 58
1, 812110, Control_c, 0, 64, 58
1, 812124, Note_off_c, 0, 66, 63
1, 812125, Control_c, 0, 64, 60
1, 812136, Note_off_c, 0, 69, 61
1, 812139, Control_c, 0, 64, 62
1, 812143, Note_off_c, 0, 58, 65
1, 812154, Control_c, 0, 64, 62
1, 812175, Note_off_c, 0, 74, 55
1, 812182, Note_on_c, 0, 71, 81
1, 812204, Note_on_c, 0, 55, 62
1, 812218, Note_on_c, 0, 66, 45
1, 812221, Note_on_c, 0, 61, 26
1, 812222, Control_c, 0, 64, 63
1, 812230, Note_on_c, 0, 62, 49
1, 812241, Note_off_c, 0, 66, 56
1, 812244, Note_off_c, 0, 71, 62
1, 812251, Note_off_c, 0, 61, 33
1, 812253, Note_off_c, 0, 62, 60
1, 812282, Control_c, 0, 64, 63
1, 812282, Note_on_c, 0, 68, 80
1, 812285, Note_on_c, 0, 66, 80
1, 812301, Note_on_c, 0, 74, 62
1, 812311, Control_c, 0, 64, 64
1, 812318, Note_on_c, 0, 72, 56
1, 812321, Note_on_c, 0, 59, 44
1, 812321, Note_off_c, 0, 55, 62
1, 812334, Note_off_c, 0, 66, 63
1, 812335, Note_off_c, 0, 68, 62
1, 812342, Note_off_c, 0, 72, 56
1, 812349, Note_off_c, 0, 59, 53
1, 812368, Note_off_c, 0, 74, 50
1, 812370, Control_c, 0, 64, 63
1, 812380, Note_on_c, 0, 71, 76
1, 812385, Control_c, 0, 64, 63
1, 812390, Note_on_c, 0, 55, 64
1, 812399, Note_on_c, 0, 62, 59
1, 812400, Control_c, 0, 64, 60
1, 812406, Note_on_c, 0, 59, 25
1, 812414, Control_c, 0, 64, 51
1, 812421, Note_off_c, 0, 62, 64
1, 812421, Note_off_c, 0, 71, 64
1, 812429, Control_c, 0, 64, 37
1, 812434, Note_off_c, 0, 55, 62
1, 812436, Note_off_c, 0, 59, 46
1, 812444, Control_c, 0, 64, 0
1, 812459, Control_c, 0, 64, 33
1, 812474, Control_c, 0, 64, 43
1, 812488, Control_c, 0, 64, 51
1, 812498, Note_on_c, 0, 52, 81
1, 812498, Note_on_c, 0, 59, 77
1, 812498, Note_on_c, 0, 67, 84
1, 812503, Control_c, 0, 64, 57
1, 812511, Note_on_c, 0, 60, 67
1, 812517, Note_off_c, 0, 67, 71
1, 812518, Control_c, 0, 64, 60
1, 812524, Note_off_c, 0, 52, 67
1, 812525, Note_on_c, 0, 62, 45
1, 812531, Note_off_c, 0, 60, 68
1, 812532, Note_off_c, 0, 59, 64
1, 812533, Control_c, 0, 64, 61
1, 812548, Control_c, 0, 64, 62
1, 812554, Note_off_c, 0, 62, 49
1, 812681, Note_on_c, 0, 67, 89
1, 812682, Note_on_c, 0, 52, 83
1, 812683, Note_on_c, 0, 62, 70
1, 812684, Note_on_c, 0, 59, 73
1, 812700, Note_off_c, 0, 67, 68
1, 812712, Note_off_c, 0, 52, 66
1, 812726, Control_c, 0, 64, 61
1, 812727, Note_off_c, 0, 59, 0
1, 812740, Note_on_c, 0, 67, 95
1, 812741, Control_c, 0, 64, 52
1, 812747, Note_on_c, 0, 52, 77
1, 812756, Control_c, 0, 64, 0
1, 812764, Poly_aftertouch_c, 0, 59, 127
1, 812935, Poly_aftertouch_c, 0, 59, 0
1, 812948, Control_c, 0, 64, 50
1, 812970, Control_c, 0, 64, 102
1, 812977, Note_off_c, 0, 52, 63
1, 812986, Control_c, 0, 64, 127
1, 813159, Note_on_c, 0, 33, 74
1, 813187, Note_on_c, 0, 45, 87
1, 813212, Note_off_c, 0, 33, 62
1, 813231, Note_off_c, 0, 67, 62
1, 813237, Control_c, 0, 64, 89
1, 813242, Note_off_c, 0, 62, 57
1, 813252, Control_c, 0, 64, 74
1, 813267, Control_c, 0, 64, 64
1, 813282, Control_c, 0, 64, 55
1, 813297, Control_c, 0, 64, 47
1, 813311, Control_c, 0, 64, 43
1, 813326, Control_c, 0, 64, 42
1, 813341, Control_c, 0, 64, 43
1, 813385, Control_c, 0, 64, 42
1, 813400, Control_c, 0, 64, 42
1, 813400, Control_c, 0, 67, 20
1, 813415, Control_c, 0, 64, 40
1, 813415, Control_c, 0, 67, 25
1, 813430, Control_c, 0, 64, 39
1, 813430, Control_c, 0, 67, 35
1, 813445, Control_c, 0, 64, 36
1, 813445, Control_c, 0, 67, 46
1, 813460, Control_c, 0, 64, 32
1, 813460, Control_c, 0, 67, 60
1, 813465, Note_on_c, 0, 52, 54
1, 813474, Note_on_c, 0, 60, 59
1, 813474, Note_on_c, 0, 67, 63
1, 813475, Control_c, 0, 64, 0
1, 813475, Control_c, 0, 67, 73
1, 813485, Note_on_c, 0, 57, 58
1, 813490, Control_c, 0, 67, 83
1, 813496, Note_off_c, 0, 60, 62
1, 813502, Note_off_c, 0, 67, 67
1, 813504, Control_c, 0, 67, 88
1, 813508, Note_off_c, 0, 52, 63
1, 813519, Note_off_c, 0, 57, 65
1, 813519, Control_c, 0, 67, 89
1, 813578, Control_c, 0, 67, 89
1, 813593, Control_c, 0, 67, 88
1, 813623, Control_c, 0, 67, 88
1, 813637, Control_c, 0, 67, 87
1, 813675, Note_on_c, 0, 52, 49
1, 813677, Note_on_c, 0, 67, 55
1, 813687, Note_on_c, 0, 60, 36
1, 813698, Note_on_c, 0, 57, 40
1, 813714, Note_off_c, 0, 67, 65
1, 813719, Control_c, 0, 67, 87
1, 813726, Note_off_c, 0, 60, 48
1, 813728, Note_off_c, 0, 52, 61
1, 813734, Control_c, 0, 67, 86
1, 813736, Note_off_c, 0, 57, 58
1, 813749, Control_c, 0, 67, 86
1, 813825, Note_on_c, 0, 67, 59
1, 813826, Note_on_c, 0, 60, 55
1, 813833, Note_on_c, 0, 57, 53
1, 813847, Note_on_c, 0, 52, 44
1, 813862, Note_off_c, 0, 60, 65
1, 813874, Note_off_c, 0, 57, 63
1, 813877, Note_off_c, 0, 67, 60
1, 813878, Note_off_c, 0, 52, 60
1, 813964, Note_on_c, 0, 66, 60
1, 813975, Note_on_c, 0, 59, 52
1, 813975, Note_on_c, 0, 50, 57
1, 813982, Note_on_c, 0, 55, 51
1, 814008, Note_off_c, 0, 50, 64
1, 814009, Note_off_c, 0, 59, 65
1, 814009, Note_off_c, 0, 66, 58
1, 814016, Control_c, 0, 67, 85
1, 814018, Note_off_c, 0, 55, 64
1, 814221, Note_on_c, 0, 66, 60
1, 814230, Note_on_c, 0, 50, 42
1, 814232, Note_on_c, 0, 59, 47
1, 814240, Note_on_c, 0, 55, 39
1, 814252, Note_off_c, 0, 66, 65
1, 814257, Note_off_c, 0, 59, 59
1, 814259, Note_off_c, 0, 50, 50
1, 814267, Note_off_c, 0, 55, 51
1, 814327, Control_c, 0, 67, 85
1, 814473, Note_on_c, 0, 48, 53
1, 814473, Note_on_c, 0, 64, 53
1, 814488, Note_on_c, 0, 54, 45
1, 814490, Note_on_c, 0, 57, 41
1, 814507, Note_off_c, 0, 64, 65
1, 814512, Note_off_c, 0, 48, 65
1, 814521, Note_off_c, 0, 54, 56
1, 814521, Note_off_c, 0, 57, 55
1, 814718, Note_on_c, 0, 48, 52
1, 814718, Note_on_c, 0, 64, 57
1, 814723, Note_on_c, 0, 54, 56
1, 814739, Note_on_c, 0, 57, 44
1, 814749, Note_off_c, 0, 64, 66
1, 814754, Note_off_c, 0, 48, 64
1, 814763, Note_off_c, 0, 54, 59
1, 814768, Note_off_c, 0, 57, 52
1, 814957, Note_on_c, 0, 62, 55
1, 814962, Note_on_c, 0, 47, 55
1, 814969, Note_on_c, 0, 55, 44
1, 814972, Control_c, 0, 64, 30
1, 814972, Control_c, 0, 67, 84
1, 814977, Note_on_c, 0, 52, 43
1, 814987, Control_c, 0, 64, 39
1, 814987, Control_c, 0, 67, 84
1, 814990, Note_off_c, 0, 62, 64
1, 814996, Note_off_c, 0, 55, 58
1, 814998, Note_off_c, 0, 47, 64
1, 815001, Control_c, 0, 64, 47
1, 815015, Note_off_c, 0, 52, 52
1, 815016, Control_c, 0, 64, 53
1, 815031, Control_c, 0, 64, 56
1, 815046, Control_c, 0, 64, 57
1, 815046, Control_c, 0, 67, 83
1, 815075, Control_c, 0, 64, 56
1, 815090, Control_c, 0, 64, 54
1, 815090, Control_c, 0, 67, 83
1, 815105, Control_c, 0, 64, 51
1, 815120, Control_c, 0, 64, 48
1, 815120, Control_c, 0, 67, 82
1, 815135, Control_c, 0, 64, 47
1, 815150, Control_c, 0, 64, 47
1, 815165, Control_c, 0, 64, 50
1, 815165, Control_c, 0, 67, 81
1, 815180, Control_c, 0, 64, 54
1, 815180, Control_c, 0, 67, 80
1, 815189, Note_off_c, 0, 45, 62
1, 815193, Note_on_c, 0, 47, 54
1, 815195, Control_c, 0, 64, 59
1, 815195, Control_c, 0, 67, 78
1, 815197, Note_on_c, 0, 52, 52
1, 815198, Note_on_c, 0, 62, 55
1, 815216, Note_on_c, 0, 55, 25
1, 815216, Control_c, 0, 64, 63
1, 815216, Control_c, 0, 67, 77
1, 815224, Note_off_c, 0, 47, 63
1, 815230, Note_off_c, 0, 52, 59
1, 815231, Control_c, 0, 64, 67
1, 815231, Control_c, 0, 67, 74
1, 815239, Note_off_c, 0, 62, 64
1, 815246, Control_c, 0, 64, 72
1, 815246, Control_c, 0, 67, 68
1, 815255, Note_off_c, 0, 55, 40
1, 815261, Control_c, 0, 64, 76
1, 815261, Control_c, 0, 67, 59
1, 815276, Control_c, 0, 64, 79
1, 815276, Control_c, 0, 67, 47
1, 815290, Control_c, 0, 64, 80
1, 815290, Control_c, 0, 67, 37
1, 815305, Control_c, 0, 67, 30
1, 815320, Control_c, 0, 67, 27
1, 815347, Note_on_c, 0, 45, 60
1, 815380, Control_c, 0, 64, 80
1, 815395, Control_c, 0, 64, 75
1, 815397, Note_on_c, 0, 54, 66
1, 815410, Control_c, 0, 64, 68
1, 815410, Control_c, 0, 67, 25
1, 815425, Control_c, 0, 64, 62
1, 815425, Control_c, 0, 67, 22
1, 815439, Note_on_c, 0, 60, 87
1, 815439, Control_c, 0, 64, 54
1, 815439, Control_c, 0, 67, 0
1, 815469, Control_c, 0, 64, 60
1, 815484, Control_c, 0, 64, 66
1, 815498, Note_off_c, 0, 54, 63
1, 815499, Control_c, 0, 64, 73
1, 815507, Note_off_c, 0, 60, 62
1, 815514, Control_c, 0, 64, 83
1, 815529, Control_c, 0, 64, 97
1, 815543, Control_c, 0, 64, 127
1, 815630, Note_on_c, 0, 72, 67
1, 815660, Note_on_c, 0, 54, 62
1, 815666, Note_on_c, 0, 60, 65
1, 815673, Note_on_c, 0, 75, 73
1, 815692, Note_off_c, 0, 72, 61
1, 815701, Note_off_c, 0, 60, 61
1, 815702, Note_off_c, 0, 45, 50
1, 815726, Note_on_c, 0, 76, 74
1, 815737, Note_off_c, 0, 75, 63
1, 815740, Note_off_c, 0, 54, 56
1, 815763, Note_on_c, 0, 78, 71
1, 815795, Note_off_c, 0, 76, 62
1, 815797, Note_on_c, 0, 81, 75
1, 815821, Note_off_c, 0, 78, 65
1, 815821, Note_on_c, 0, 43, 69
1, 815834, Note_off_c, 0, 81, 57
1, 815839, Control_c, 0, 64, 97
1, 815850, Note_on_c, 0, 52, 67
1, 815854, Control_c, 0, 64, 80
1, 815856, Note_on_c, 0, 59, 84
1, 815866, Note_on_c, 0, 81, 76
1, 815869, Control_c, 0, 64, 69
1, 815884, Control_c, 0, 64, 65
1, 815898, Control_c, 0, 64, 66
1, 815913, Control_c, 0, 64, 70
1, 815918, Note_off_c, 0, 81, 63
1, 815918, Note_off_c, 0, 52, 62
1, 815919, Note_off_c, 0, 59, 61
1, 815921, Note_on_c, 0, 84, 77
1, 815928, Control_c, 0, 64, 74
1, 815943, Control_c, 0, 64, 81
1, 815965, Control_c, 0, 64, 86
1, 815978, Note_off_c, 0, 84, 62
1, 815980, Control_c, 0, 64, 90
1, 815995, Control_c, 0, 64, 92
1, 816010, Control_c, 0, 64, 93
1, 816011, Note_on_c, 0, 86, 83
1, 816025, Control_c, 0, 64, 93
1, 816028, Note_on_c, 0, 84, 54
1, 816047, Note_on_c, 0, 52, 71
1, 816050, Note_on_c, 0, 59, 74
1, 816054, Note_off_c, 0, 84, 56
1, 816054, Control_c, 0, 64, 94
1, 816069, Note_on_c, 0, 87, 82
1, 816069, Control_c, 0, 64, 94
1, 816070, Note_off_c, 0, 43, 56
1, 816075, Note_off_c, 0, 86, 63
1, 816084, Control_c, 0, 64, 95
1, 816089, Note_off_c, 0, 59, 58
1, 816091, Note_off_c, 0, 52, 61
1, 816099, Control_c, 0, 64, 95
1, 816122, Note_off_c, 0, 87, 64
1, 816123, Note_on_c, 0, 89, 53
1, 816124, Note_on_c, 0, 88, 52
1, 816151, Note_off_c, 0, 88, 61
1, 816157, Control_c, 0, 64, 97
1, 816166, Note_off_c, 0, 89, 64
1, 816167, Note_on_c, 0, 95, 72
1, 816170, Note_on_c, 0, 93, 73
1, 816172, Note_on_c, 0, 42, 76
1, 816180, Note_on_c, 0, 91, 41
1, 816208, Note_on_c, 0, 51, 72
1, 816209, Note_off_c, 0, 93, 59
1, 816210, Note_off_c, 0, 91, 54
1, 816213, Note_off_c, 0, 95, 61
1, 816218, Control_c, 0, 64, 90
1, 816233, Control_c, 0, 64, 74
1, 816248, Control_c, 0, 64, 58
1, 816250, Note_on_c, 0, 57, 86
1, 816260, Note_on_c, 0, 96, 104
1, 816262, Control_c, 0, 64, 35
1, 816277, Control_c, 0, 64, 0
1, 816280, Note_off_c, 0, 42, 63
1, 816281, Note_off_c, 0, 51, 63
1, 816289, Note_off_c, 0, 96, 68
1, 816292, Control_c, 0, 64, 42
1, 816307, Control_c, 0, 64, 59
1, 816312, Note_off_c, 0, 57, 64
1, 816322, Control_c, 0, 64, 69
1, 816336, Control_c, 0, 64, 79
1, 816351, Control_c, 0, 64, 90
1, 816366, Control_c, 0, 64, 94
1, 816574, Control_c, 0, 64, 93
1, 816579, Note_on_c, 0, 72, 108
1, 816583, Note_on_c, 0, 63, 85
1, 816584, Note_on_c, 0, 54, 79
1, 816584, Note_on_c, 0, 60, 76
1, 816588, Control_c, 0, 64, 92
1, 816590, Note_on_c, 0, 57, 72
1, 816603, Control_c, 0, 64, 88
1, 816618, Control_c, 0, 64, 78
1, 816633, Control_c, 0, 64, 64
1, 816647, Control_c, 0, 64, 30
1, 816662, Control_c, 0, 64, 0
1, 816892, Control_c, 0, 64, 32
1, 816906, Control_c, 0, 64, 76
1, 816911, Note_off_c, 0, 60, 54
1, 816921, Control_c, 0, 64, 111
1, 816936, Control_c, 0, 64, 127
1, 816996, Note_off_c, 0, 72, 54
1, 817056, Note_off_c, 0, 63, 60
1, 817097, Note_off_c, 0, 57, 36
1, 817114, Note_off_c, 0, 54, 52
1, 817156, Note_on_c, 0, 60, 83
1, 817159, Control_c, 0, 64, 80
1, 817174, Control_c, 0, 64, 57
1, 817189, Control_c, 0, 64, 0
1, 817196, Note_on_c, 0, 72, 97
1, 817202, Note_off_c, 0, 60, 67
1, 817219, Control_c, 0, 64, 40
1, 817234, Control_c, 0, 64, 62
1, 817248, Control_c, 0, 64, 68
1, 817263, Control_c, 0, 64, 71
1, 817269, Note_off_c, 0, 72, 65
1, 817278, Control_c, 0, 64, 74
1, 817293, Control_c, 0, 64, 77
1, 817308, Control_c, 0, 64, 79
1, 817323, Control_c, 0, 64, 80
1, 817338, Control_c, 0, 64, 83
1, 817353, Control_c, 0, 64, 88
1, 817368, Control_c, 0, 64, 101
1, 817383, Control_c, 0, 64, 127
1, 817422, Note_on_c, 0, 43, 65
1, 817430, Note_on_c, 0, 48, 56
1, 817479, Control_c, 0, 64, 89
1, 817493, Control_c, 0, 64, 68
1, 817494, Note_on_c, 0, 52, 73
1, 817508, Control_c, 0, 64, 49
1, 817523, Control_c, 0, 64, 29
1, 817529, Note_on_c, 0, 86, 97
1, 817530, Note_on_c, 0, 74, 96
1, 817532, Note_on_c, 0, 58, 87
1, 817532, Note_on_c, 0, 82, 92
1, 817538, Control_c, 0, 64, 43
1, 817544, Note_off_c, 0, 43, 64
1, 817551, Note_off_c, 0, 48, 65
1, 817553, Control_c, 0, 64, 63
1, 817567, Control_c, 0, 64, 85
1, 817577, Note_off_c, 0, 52, 62
1, 817582, Control_c, 0, 64, 127
1, 817585, Note_off_c, 0, 74, 53
1, 817599, Note_off_c, 0, 58, 65
1, 817600, Note_off_c, 0, 86, 58
1, 817601, Note_off_c, 0, 82, 61
1, 817804, Note_on_c, 0, 60, 66
1, 817805, Note_on_c, 0, 74, 91
1, 817805, Note_on_c, 0, 82, 93
1, 817805, Note_on_c, 0, 86, 92
1, 817806, Note_on_c, 0, 58, 63
1, 817806, Note_on_c, 0, 64, 69
1, 817809, Note_on_c, 0, 55, 65
1, 817830, Note_off_c, 0, 82, 61
1, 817839, Note_off_c, 0, 55, 65
1, 817844, Note_off_c, 0, 86, 64
1, 817845, Note_off_c, 0, 74, 63
1, 817856, Note_off_c, 0, 60, 63
1, 817859, Note_off_c, 0, 58, 59
1, 817863, Note_off_c, 0, 64, 59
1, 817880, Control_c, 0, 64, 86
1, 817895, Control_c, 0, 64, 60
1, 817909, Control_c, 0, 64, 0
1, 818042, Control_c, 0, 64, 49
1, 818047, Note_on_c, 0, 60, 74
1, 818050, Note_on_c, 0, 54, 85
1, 818054, Note_on_c, 0, 64, 74
1, 818055, Note_on_c, 0, 72, 94
1, 818055, Note_on_c, 0, 81, 89
1, 818055, Note_on_c, 0, 84, 96
1, 818057, Control_c, 0, 64, 73
1, 818072, Control_c, 0, 64, 83
1, 818077, Note_off_c, 0, 64, 70
1, 818087, Control_c, 0, 64, 93
1, 818091, Note_off_c, 0, 60, 63
1, 818092, Note_off_c, 0, 81, 57
1, 818101, Note_off_c, 0, 72, 63
1, 818101, Control_c, 0, 64, 94
1, 818102, Note_off_c, 0, 54, 64
1, 818104, Note_off_c, 0, 84, 64
1, 818116, Control_c, 0, 64, 97
1, 818131, Control_c, 0, 64, 103
1, 818146, Control_c, 0, 64, 109
1, 818161, Control_c, 0, 64, 120
1, 818176, Control_c, 0, 64, 127
1, 818300, Note_on_c, 0, 81, 87
1, 818301, Note_on_c, 0, 84, 91
1, 818301, Note_on_c, 0, 72, 88
1, 818304, Note_on_c, 0, 54, 60
1, 818305, Note_on_c, 0, 42, 74
1, 818326, Note_off_c, 0, 81, 63
1, 818340, Note_off_c, 0, 54, 58
1, 818342, Note_off_c, 0, 84, 66
1, 818343, Note_off_c, 0, 72, 59
1, 818365, Note_off_c, 0, 42, 61
1, 818390, Control_c, 0, 64, 120
1, 818405, Control_c, 0, 64, 107
1, 818420, Control_c, 0, 64, 91
1, 818435, Control_c, 0, 64, 67
1, 818450, Control_c, 0, 64, 0
1, 818540, Note_on_c, 0, 40, 78
1, 818541, Note_on_c, 0, 52, 85
1, 818548, Note_on_c, 0, 74, 93
1, 818548, Note_on_c, 0, 86, 96
1, 818548, Note_on_c, 0, 82, 89
1, 818553, Control_c, 0, 64, 42
1, 818568, Control_c, 0, 64, 62
1, 818570, Note_off_c, 0, 82, 65
1, 818579, Note_off_c, 0, 40, 64
1, 818584, Control_c, 0, 64, 74
1, 818588, Note_off_c, 0, 74, 61
1, 818591, Note_off_c, 0, 86, 63
1, 818594, Note_off_c, 0, 52, 63
1, 818599, Control_c, 0, 64, 88
1, 818614, Control_c, 0, 64, 127
1, 818658, Note_on_c, 0, 82, 95
1, 818669, Note_on_c, 0, 86, 80
1, 818670, Note_on_c, 0, 74, 72
1, 818694, Note_off_c, 0, 86, 61
1, 818695, Note_off_c, 0, 82, 59
1, 818696, Note_off_c, 0, 74, 68
1, 818755, Note_on_c, 0, 58, 69
1, 818757, Note_on_c, 0, 55, 69
1, 818757, Note_on_c, 0, 64, 68
1, 818760, Note_on_c, 0, 60, 59
1, 818763, Note_on_c, 0, 82, 83
1, 818768, Note_on_c, 0, 74, 77
1, 818769, Note_on_c, 0, 86, 81
1, 818786, Note_off_c, 0, 82, 64
1, 818787, Note_off_c, 0, 55, 65
1, 818788, Note_off_c, 0, 60, 67
1, 818789, Note_off_c, 0, 74, 67
1, 818792, Note_off_c, 0, 86, 65
1, 818793, Note_off_c, 0, 64, 59
1, 818794, Note_off_c, 0, 58, 59
1, 818849, Note_on_c, 0, 86, 87
1, 818853, Note_on_c, 0, 82, 80
1, 818855, Note_on_c, 0, 74, 77
1, 818876, Note_off_c, 0, 82, 65
1, 818882, Note_off_c, 0, 74, 63
1, 818894, Note_off_c, 0, 86, 64
1, 818894, Control_c, 0, 64, 115
1, 818909, Control_c, 0, 64, 78
1, 818924, Control_c, 0, 64, 57
1, 818939, Control_c, 0, 64, 0
1, 818960, Note_on_c, 0, 57, 76
1, 818962, Note_on_c, 0, 66, 81
1, 818964, Note_on_c, 0, 62, 77
1, 818965, Note_on_c, 0, 60, 64
1, 818968, Note_on_c, 0, 88, 98
1, 818971, Note_on_c, 0, 84, 89
1, 818973, Note_on_c, 0, 76, 89
1, 818990, Control_c, 0, 64, 51
1, 818993, Note_off_c, 0, 66, 64
1, 818995, Note_off_c, 0, 62, 66
1, 818998, Note_off_c, 0, 84, 62
1, 819005, Control_c, 0, 64, 66
1, 819010, Note_off_c, 0, 57, 64
1, 819011, Note_off_c, 0, 60, 65
1, 819016, Note_off_c, 0, 76, 62
1, 819020, Control_c, 0, 64, 77
1, 819028, Note_off_c, 0, 88, 64
1, 819035, Control_c, 0, 64, 96
1, 819049, Control_c, 0, 64, 114
1, 819064, Control_c, 0, 64, 127
1, 819204, Note_on_c, 0, 38, 84
1, 819204, Note_on_c, 0, 76, 90
1, 819205, Note_on_c, 0, 84, 89
1, 819207, Note_on_c, 0, 88, 80
1, 819208, Note_on_c, 0, 50, 74
1, 819215, Note_on_c, 0, 89, 84
1, 819226, Note_off_c, 0, 84, 68
1, 819234, Note_off_c, 0, 89, 66
1, 819237, Note_off_c, 0, 50, 68
1, 819251, Note_off_c, 0, 76, 61
1, 819252, Note_off_c, 0, 88, 63
1, 819258, Note_off_c, 0, 38, 59
1, 819301, Control_c, 0, 64, 125
1, 819331, Control_c, 0, 64, 122
1, 819346, Control_c, 0, 64, 114
1, 819361, Control_c, 0, 64, 96
1, 819377, Control_c, 0, 64, 74
1, 819392, Control_c, 0, 64, 53
1, 819406, Control_c, 0, 64, 0
1, 819431, Note_on_c, 0, 90, 98
1, 819432, Note_on_c, 0, 78, 96
1, 819434, Note_on_c, 0, 82, 92
1, 819436, Note_on_c, 0, 48, 90
1, 819437, Note_on_c, 0, 36, 80
1, 819457, Note_off_c, 0, 82, 64
1, 819466, Control_c, 0, 64, 53
1, 819469, Note_off_c, 0, 36, 66
1, 819470, Note_off_c, 0, 78, 63
1, 819477, Note_off_c, 0, 90, 64
1, 819480, Note_off_c, 0, 48, 66
1, 819480, Control_c, 0, 64, 65
1, 819495, Control_c, 0, 64, 72
1, 819510, Control_c, 0, 64, 79
1, 819524, Control_c, 0, 64, 83
1, 819639, Note_on_c, 0, 82, 91
1, 819644, Note_on_c, 0, 78, 80
1, 819645, Note_on_c, 0, 90, 83
1, 819657, Note_off_c, 0, 82, 69
1, 819663, Note_off_c, 0, 90, 73
1, 819665, Note_off_c, 0, 78, 69
1, 819704, Note_on_c, 0, 90, 87
1, 819710, Note_on_c, 0, 70, 93
1, 819710, Note_on_c, 0, 78, 85
1, 819710, Note_on_c, 0, 82, 102
1, 819720, Note_on_c, 0, 58, 75
1, 819720, Note_on_c, 0, 64, 68
1, 819722, Note_on_c, 0, 66, 78
1, 819725, Control_c, 0, 64, 84
1, 819740, Control_c, 0, 64, 84
1, 819755, Control_c, 0, 64, 85
1, 819756, Note_off_c, 0, 82, 60
1, 819760, Note_off_c, 0, 70, 64
1, 819762, Note_off_c, 0, 78, 62
1, 819766, Note_off_c, 0, 64, 62
1, 819768, Note_off_c, 0, 90, 62
1, 819770, Note_off_c, 0, 66, 58
1, 819770, Control_c, 0, 64, 85
1, 819782, Note_off_c, 0, 58, 65
1, 819932, Control_c, 0, 64, 85
1, 819947, Control_c, 0, 64, 83
1, 819958, Note_on_c, 0, 82, 35
1, 819962, Control_c, 0, 64, 78
1, 819977, Control_c, 0, 64, 67
1, 819987, Note_off_c, 0, 82, 53
1, 819992, Control_c, 0, 64, 47
1, 820006, Control_c, 0, 64, 0
1, 820101, Note_on_c, 0, 90, 84
1, 820119, Note_on_c, 0, 47, 86
1, 820121, Note_on_c, 0, 35, 74
1, 820122, Note_on_c, 0, 83, 99
1, 820122, Note_on_c, 0, 95, 100
1, 820125, Control_c, 0, 64, 51
1, 820140, Control_c, 0, 64, 63
1, 820147, Note_off_c, 0, 35, 64
1, 820149, Note_off_c, 0, 90, 65
1, 820155, Control_c, 0, 64, 67
1, 820162, Note_off_c, 0, 47, 64
1, 820169, Note_off_c, 0, 95, 67
1, 820170, Control_c, 0, 64, 71
1, 820170, Note_off_c, 0, 83, 65
1, 820185, Control_c, 0, 64, 76
1, 820200, Control_c, 0, 64, 80
1, 820215, Control_c, 0, 64, 85
1, 820229, Control_c, 0, 64, 89
1, 820244, Control_c, 0, 64, 90
1, 820274, Control_c, 0, 64, 88
1, 820289, Control_c, 0, 64, 79
1, 820304, Control_c, 0, 64, 68
1, 820319, Control_c, 0, 64, 59
1, 820334, Control_c, 0, 64, 50
1, 820348, Control_c, 0, 64, 53
1, 820351, Note_on_c, 0, 66, 78
1, 820353, Note_on_c, 0, 83, 100
1, 820354, Note_on_c, 0, 71, 95
1, 820355, Note_on_c, 0, 63, 74
1, 820356, Note_on_c, 0, 78, 84
1, 820358, Note_on_c, 0, 59, 72
1, 820363, Control_c, 0, 64, 59
1, 820374, Note_off_c, 0, 78, 72
1, 820375, Note_off_c, 0, 71, 65
1, 820378, Control_c, 0, 64, 64
1, 820390, Note_off_c, 0, 83, 65
1, 820393, Control_c, 0, 64, 69
1, 820395, Note_off_c, 0, 63, 60
1, 820398, Note_off_c, 0, 59, 62
1, 820408, Control_c, 0, 64, 75
1, 820417, Note_off_c, 0, 66, 62
1, 820422, Control_c, 0, 64, 83
1, 820437, Control_c, 0, 64, 89
1, 820459, Control_c, 0, 64, 94
1, 820474, Control_c, 0, 64, 97
1, 820504, Control_c, 0, 64, 94
1, 820519, Control_c, 0, 64, 84
1, 820533, Control_c, 0, 64, 70
1, 820548, Control_c, 0, 64, 61
1, 820563, Control_c, 0, 64, 54
1, 820584, Note_on_c, 0, 67, 76
1, 820585, Note_on_c, 0, 64, 72
1, 820586, Note_on_c, 0, 95, 101
1, 820587, Note_on_c, 0, 90, 97
1, 820587, Note_on_c, 0, 70, 76
1, 820588, Note_on_c, 0, 83, 101
1, 820593, Control_c, 0, 64, 59
1, 820605, Note_off_c, 0, 90, 70
1, 820608, Control_c, 0, 64, 64
1, 820615, Note_off_c, 0, 83, 64
1, 820619, Note_off_c, 0, 70, 62
1, 820620, Note_off_c, 0, 95, 64
1, 820622, Control_c, 0, 64, 70
1, 820626, Note_off_c, 0, 67, 63
1, 820635, Note_off_c, 0, 64, 62
1, 820637, Control_c, 0, 64, 75
1, 820652, Control_c, 0, 64, 78
1, 820667, Control_c, 0, 64, 80
1, 820682, Control_c, 0, 64, 80
1, 820726, Control_c, 0, 64, 79
1, 820741, Control_c, 0, 64, 73
1, 820755, Control_c, 0, 64, 65
1, 820770, Control_c, 0, 64, 55
1, 820785, Control_c, 0, 64, 45
1, 820800, Control_c, 0, 64, 43
1, 820808, Note_on_c, 0, 78, 91
1, 820808, Note_on_c, 0, 83, 95
1, 820810, Note_on_c, 0, 71, 101
1, 820815, Control_c, 0, 64, 48
1, 820817, Note_on_c, 0, 59, 69
1, 820819, Note_on_c, 0, 63, 72
1, 820819, Note_on_c, 0, 66, 68
1, 820827, Note_off_c, 0, 78, 69
1, 820829, Control_c, 0, 64, 57
1, 820835, Note_off_c, 0, 71, 67
1, 820835, Note_off_c, 0, 83, 65
1, 820844, Control_c, 0, 64, 63
1, 820850, Note_off_c, 0, 63, 65
1, 820859, Control_c, 0, 64, 67
1, 820867, Note_off_c, 0, 59, 63
1, 820873, Note_off_c, 0, 66, 59
1, 820873, Control_c, 0, 64, 72
1, 820888, Control_c, 0, 64, 76
1, 820903, Control_c, 0, 64, 78
1, 820918, Control_c, 0, 64, 80
1, 820933, Control_c, 0, 64, 80
1, 821008, Control_c, 0, 64, 80
1, 821023, Control_c, 0, 64, 66
1, 821038, Control_c, 0, 64, 0
1, 821055, Note_on_c, 0, 59, 94
1, 821333, Note_on_c, 0, 79, 76
1, 821335, Note_on_c, 0, 64, 67
1, 821336, Note_on_c, 0, 67, 65
1, 821338, Note_on_c, 0, 72, 67
1, 821338, Note_on_c, 0, 76, 68
1, 821365, Note_off_c, 0, 76, 68
1, 821366, Note_off_c, 0, 79, 64
1, 821372, Note_off_c, 0, 72, 60
1, 821373, Note_off_c, 0, 67, 65
1, 821380, Note_off_c, 0, 64, 62
1, 821386, Control_c, 0, 64, 39
1, 821401, Control_c, 0, 64, 54
1, 821416, Control_c, 0, 64, 62
1, 821431, Control_c, 0, 64, 67
1, 821434, Note_on_c, 0, 64, 55
1, 821438, Note_on_c, 0, 67, 63
1, 821440, Note_on_c, 0, 79, 76
1, 821443, Note_on_c, 0, 76, 74
1, 821444, Note_on_c, 0, 72, 55
1, 821445, Control_c, 0, 64, 71
1, 821460, Control_c, 0, 64, 75
1, 821468, Note_off_c, 0, 64, 62
1, 821468, Note_off_c, 0, 76, 69
1, 821469, Note_off_c, 0, 67, 67
1, 821472, Note_off_c, 0, 79, 64
1, 821475, Control_c, 0, 64, 80
1, 821480, Note_off_c, 0, 72, 64
1, 821490, Control_c, 0, 64, 85
1, 821504, Control_c, 0, 64, 89
1, 821519, Control_c, 0, 64, 98
1, 821524, Note_on_c, 0, 64, 70
1, 821528, Note_on_c, 0, 67, 71
1, 821534, Control_c, 0, 64, 104
1, 821538, Note_on_c, 0, 79, 70
1, 821540, Note_on_c, 0, 76, 78
1, 821541, Note_on_c, 0, 72, 61
1, 821549, Control_c, 0, 64, 106
1, 821566, Note_off_c, 0, 79, 67
1, 821569, Note_off_c, 0, 76, 61
1, 821573, Note_off_c, 0, 72, 63
1, 821575, Note_off_c, 0, 64, 62
1, 821579, Note_off_c, 0, 67, 61
1, 821616, Poly_aftertouch_c, 0, 67, 0
1, 821625, Note_on_c, 0, 64, 70
1, 821627, Note_on_c, 0, 67, 60
1, 821627, Note_on_c, 0, 76, 77
1, 821631, Note_on_c, 0, 72, 61
1, 821634, Note_on_c, 0, 79, 76
1, 821652, Control_c, 0, 64, 94
1, 821667, Control_c, 0, 64, 75
1, 821676, Note_off_c, 0, 72, 61
1, 821682, Control_c, 0, 64, 59
1, 821683, Note_off_c, 0, 76, 62
1, 821684, Note_off_c, 0, 67, 62
1, 821686, Note_off_c, 0, 64, 64
1, 821687, Note_off_c, 0, 79, 62
1, 821696, Control_c, 0, 64, 0
1, 821741, Note_on_c, 0, 64, 82
1, 821744, Note_on_c, 0, 76, 84
1, 821746, Note_on_c, 0, 79, 83
1, 821750, Note_on_c, 0, 67, 66
1, 821750, Note_on_c, 0, 72, 69
1, 821756, Control_c, 0, 64, 51
1, 821760, Note_off_c, 0, 59, 58
1, 821772, Control_c, 0, 64, 64
1, 821778, Note_off_c, 0, 67, 68
1, 821783, Note_off_c, 0, 64, 67
1, 821784, Note_off_c, 0, 76, 62
1, 821787, Control_c, 0, 64, 72
1, 821787, Note_off_c, 0, 72, 63
1, 821794, Note_off_c, 0, 79, 64
1, 821801, Control_c, 0, 64, 81
1, 821817, Control_c, 0, 64, 89
1, 821832, Control_c, 0, 64, 94
1, 821847, Control_c, 0, 64, 95
1, 821862, Control_c, 0, 64, 96
1, 821976, Note_on_c, 0, 34, 92
1, 821981, Note_on_c, 0, 22, 95
1, 822002, Control_c, 0, 64, 100
1, 822003, Note_off_c, 0, 22, 68
1, 822017, Note_off_c, 0, 34, 59
1, 822017, Control_c, 0, 64, 107
1, 822032, Control_c, 0, 64, 127
1, 822036, Note_on_c, 0, 35, 8
1, 822084, Note_off_c, 0, 35, 37
1, 822207, Note_on_c, 0, 35, 81
1, 822215, Note_on_c, 0, 48, 64
1, 822263, Note_off_c, 0, 48, 56
1, 822298, Note_off_c, 0, 35, 57
1, 822299, Note_on_c, 0, 52, 61
1, 822314, Note_on_c, 0, 38, 55
1, 822315, Note_on_c, 0, 40, 56
1, 822356, Note_off_c, 0, 38, 59
1, 822357, Note_off_c, 0, 40, 58
1, 822364, Note_off_c, 0, 52, 61
1, 822377, Note_on_c, 0, 55, 66
1, 822387, Note_on_c, 0, 43, 58
1, 822392, Note_on_c, 0, 41, 49
1, 822411, Note_off_c, 0, 55, 63
1, 822417, Note_off_c, 0, 43, 62
1, 822418, Note_off_c, 0, 41, 55
1, 822447, Note_on_c, 0, 48, 60
1, 822469, Note_on_c, 0, 60, 68
1, 822473, Note_off_c, 0, 48, 67
1, 822507, Note_off_c, 0, 60, 58
1, 822528, Note_on_c, 0, 64, 68
1, 822531, Note_on_c, 0, 50, 33
1, 822535, Note_on_c, 0, 52, 52
1, 822572, Note_off_c, 0, 50, 61
1, 822572, Note_off_c, 0, 52, 50
1, 822590, Note_off_c, 0, 64, 63
1, 822594, Note_on_c, 0, 55, 51
1, 822595, Note_on_c, 0, 67, 69
1, 822615, Note_off_c, 0, 55, 63
1, 822619, Note_off_c, 0, 67, 68
1, 822647, Note_on_c, 0, 60, 60
1, 822660, Poly_aftertouch_c, 0, 53, 0
1, 822670, Note_on_c, 0, 72, 78
1, 822671, Note_off_c, 0, 60, 68
1, 822685, Poly_aftertouch_c, 0, 53, 0
1, 822725, Note_off_c, 0, 72, 52
1, 822734, Note_on_c, 0, 76, 68
1, 822741, Note_on_c, 0, 64, 40
1, 822744, Note_on_c, 0, 62, 38
1, 822772, Note_off_c, 0, 64, 55
1, 822775, Note_off_c, 0, 62, 51
1, 822781, Note_on_c, 0, 67, 74
1, 822781, Note_on_c, 0, 79, 85
1, 822789, Note_off_c, 0, 76, 65
1, 822818, Note_off_c, 0, 67, 63
1, 822820, Note_off_c, 0, 79, 64
1, 822834, Note_on_c, 0, 72, 72
1, 822856, Note_off_c, 0, 72, 69
1, 822859, Note_on_c, 0, 84, 79
1, 822903, Note_on_c, 0, 76, 74
1, 822903, Note_on_c, 0, 88, 84
1, 822918, Note_off_c, 0, 84, 59
1, 822939, Note_on_c, 0, 91, 82
1, 822944, Note_on_c, 0, 79, 66
1, 822951, Note_off_c, 0, 76, 64
1, 822963, Note_off_c, 0, 79, 68
1, 822987, Note_off_c, 0, 88, 64
1, 822999, Note_on_c, 0, 96, 96
1, 823005, Note_on_c, 0, 84, 103
1, 823016, Note_off_c, 0, 91, 63
1, 823031, Control_c, 0, 64, 106
1, 823037, Note_off_c, 0, 96, 66
1, 823038, Note_off_c, 0, 84, 66
1, 823046, Control_c, 0, 64, 60
1, 823061, Control_c, 0, 64, 0
1, 823319, Note_on_c, 0, 74, 76
1, 823322, Note_on_c, 0, 60, 58
1, 823323, Note_on_c, 0, 66, 66
1, 823324, Note_on_c, 0, 62, 71
1, 823327, Note_on_c, 0, 57, 62
1, 823338, Note_on_c, 0, 72, 49
1, 823374, Note_off_c, 0, 72, 0
1, 823374, Note_on_c, 0, 72, 23
1, 823559, Control_c, 0, 64, 37
1, 823570, Note_off_c, 0, 62, 61
1, 823573, Control_c, 0, 64, 73
1, 823588, Control_c, 0, 64, 110
1, 823590, Note_off_c, 0, 74, 55
1, 823597, Note_off_c, 0, 66, 63
1, 823603, Control_c, 0, 64, 127
1, 823605, Note_off_c, 0, 72, 52
1, 823609, Note_off_c, 0, 60, 61
1, 823614, Note_off_c, 0, 57, 63
1, 823751, Control_c, 0, 64, 86
1, 823765, Control_c, 0, 64, 66
1, 823780, Control_c, 0, 64, 54
1, 823787, Note_on_c, 0, 56, 72
1, 823792, Note_on_c, 0, 64, 66
1, 823793, Note_on_c, 0, 68, 73
1, 823795, Note_on_c, 0, 76, 77
1, 823795, Control_c, 0, 64, 53
1, 823798, Note_on_c, 0, 72, 69
1, 823799, Note_on_c, 0, 60, 51
1, 823799, Note_on_c, 0, 62, 65
1, 823810, Control_c, 0, 64, 61
1, 823820, Note_off_c, 0, 64, 65
1, 823822, Note_off_c, 0, 68, 65
1, 823822, Note_off_c, 0, 72, 69
1, 823825, Control_c, 0, 64, 74
1, 823826, Note_off_c, 0, 56, 59
1, 823828, Note_off_c, 0, 62, 66
1, 823836, Note_off_c, 0, 60, 66
1, 823840, Control_c, 0, 64, 93
1, 823844, Note_off_c, 0, 76, 63
1, 823854, Control_c, 0, 64, 127
1, 823959, Control_c, 0, 64, 113
1, 823973, Control_c, 0, 64, 76
1, 823988, Control_c, 0, 64, 58
1, 824003, Control_c, 0, 64, 0
1, 824033, Note_on_c, 0, 61, 71
1, 824033, Note_on_c, 0, 54, 69
1, 824036, Note_on_c, 0, 70, 76
1, 824036, Note_on_c, 0, 78, 81
1, 824036, Note_on_c, 0, 73, 73
1, 824037, Note_on_c, 0, 58, 64
1, 824039, Note_on_c, 0, 66, 71
1, 824047, Control_c, 0, 64, 46
1, 824057, Note_off_c, 0, 70, 70
1, 824057, Note_off_c, 0, 73, 70
1, 824062, Control_c, 0, 64, 65
1, 824065, Note_off_c, 0, 66, 67
1, 824068, Note_off_c, 0, 58, 66
1, 824070, Note_off_c, 0, 78, 63
1, 824071, Note_off_c, 0, 54, 61
1, 824077, Note_off_c, 0, 61, 58
1, 824077, Control_c, 0, 64, 81
1, 824091, Control_c, 0, 64, 127
1, 824277, Control_c, 0, 64, 86
1, 824292, Control_c, 0, 64, 56
1, 824297, Note_on_c, 0, 54, 93
1, 824307, Control_c, 0, 64, 0
1, 824455, Control_c, 0, 64, 35
1, 824470, Control_c, 0, 64, 45
1, 824485, Control_c, 0, 64, 48
1, 824500, Control_c, 0, 64, 53
1, 824514, Control_c, 0, 64, 59
1, 824529, Control_c, 0, 64, 62
1, 824544, Control_c, 0, 64, 64
1, 824551, Note_on_c, 0, 62, 63
1, 824559, Note_on_c, 0, 66, 58
1, 824559, Note_on_c, 0, 81, 67
1, 824559, Control_c, 0, 64, 67
1, 824560, Note_on_c, 0, 74, 66
1, 824566, Note_on_c, 0, 69, 56
1, 824566, Note_on_c, 0, 78, 59
1, 824574, Control_c, 0, 64, 69
1, 824588, Control_c, 0, 64, 72
1, 824593, Note_off_c, 0, 66, 64
1, 824594, Note_off_c, 0, 74, 64
1, 824594, Note_off_c, 0, 78, 65
1, 824596, Note_off_c, 0, 62, 60
1, 824599, Note_off_c, 0, 69, 63
1, 824600, Note_off_c, 0, 81, 57
1, 824603, Control_c, 0, 64, 74
1, 824618, Control_c, 0, 64, 75
1, 824633, Control_c, 0, 64, 76
1, 824647, Control_c, 0, 64, 76
1, 824662, Control_c, 0, 64, 77
1, 824666, Note_on_c, 0, 62, 59
1, 824668, Note_on_c, 0, 78, 73
1, 824677, Note_on_c, 0, 66, 64
1, 824677, Control_c, 0, 64, 78
1, 824682, Note_on_c, 0, 81, 55
1, 824684, Note_on_c, 0, 74, 58
1, 824692, Control_c, 0, 64, 79
1, 824694, Note_on_c, 0, 69, 49
1, 824707, Note_off_c, 0, 74, 61
1, 824707, Note_off_c, 0, 62, 60
1, 824707, Control_c, 0, 64, 80
1, 824708, Note_off_c, 0, 78, 55
1, 824710, Note_off_c, 0, 66, 64
1, 824711, Note_off_c, 0, 81, 51
1, 824714, Note_off_c, 0, 69, 61
1, 824722, Control_c, 0, 64, 80
1, 824751, Control_c, 0, 64, 81
1, 824766, Control_c, 0, 64, 81
1, 824770, Note_on_c, 0, 62, 65
1, 824777, Note_on_c, 0, 74, 76
1, 824781, Note_on_c, 0, 78, 71
1, 824781, Control_c, 0, 64, 82
1, 824783, Note_on_c, 0, 69, 66
1, 824783, Note_on_c, 0, 81, 71
1, 824784, Note_on_c, 0, 66, 68
1, 824811, Control_c, 0, 64, 83
1, 824814, Note_off_c, 0, 69, 64
1, 824814, Note_off_c, 0, 78, 63
1, 824814, Note_off_c, 0, 81, 61
1, 824817, Note_off_c, 0, 74, 60
1, 824817, Note_off_c, 0, 66, 64
1, 824829, Note_off_c, 0, 62, 63
1, 824841, Control_c, 0, 64, 83
1, 824865, Poly_aftertouch_c, 0, 62, 0
1, 824872, Note_on_c, 0, 62, 59
1, 824877, Note_on_c, 0, 78, 72
1, 824877, Note_on_c, 0, 81, 72
1, 824879, Note_on_c, 0, 74, 72
1, 824885, Note_on_c, 0, 69, 69
1, 824886, Note_on_c, 0, 66, 66
1, 824915, Control_c, 0, 64, 80
1, 824915, Note_off_c, 0, 69, 63
1, 824918, Note_off_c, 0, 81, 53
1, 824918, Note_off_c, 0, 66, 61
1, 824927, Note_off_c, 0, 74, 62
1, 824930, Control_c, 0, 64, 71
1, 824932, Note_off_c, 0, 62, 62
1, 824932, Note_off_c, 0, 78, 63
1, 824952, Control_c, 0, 64, 59
1, 824957, Note_off_c, 0, 54, 53
1, 824968, Control_c, 0, 64, 34
1, 824983, Control_c, 0, 64, 0
1, 824994, Note_on_c, 0, 62, 89
1, 824999, Note_on_c, 0, 74, 88
1, 825001, Note_on_c, 0, 66, 77
1, 825002, Note_on_c, 0, 78, 79
1, 825002, Note_on_c, 0, 69, 82
1, 825002, Note_on_c, 0, 81, 90
1, 825013, Control_c, 0, 64, 50
1, 825018, Note_off_c, 0, 66, 72
1, 825027, Control_c, 0, 64, 68
1, 825036, Note_off_c, 0, 62, 65
1, 825042, Control_c, 0, 64, 87
1, 825057, Control_c, 0, 64, 127
1, 825070, Note_off_c, 0, 74, 58
1, 825078, Note_off_c, 0, 81, 55
1, 825087, Note_off_c, 0, 69, 48
1, 825115, Note_off_c, 0, 78, 60
1, 825227, Note_on_c, 0, 24, 91
1, 825230, Note_on_c, 0, 36, 90
1, 825258, Note_off_c, 0, 36, 67
1, 825259, Note_off_c, 0, 24, 64
1, 825412, Control_c, 0, 64, 115
1, 825427, Control_c, 0, 64, 95
1, 825442, Control_c, 0, 64, 91
1, 825449, Note_on_c, 0, 38, 81
1, 825471, Note_on_c, 0, 50, 60
1, 825486, Control_c, 0, 64, 93
1, 825501, Control_c, 0, 64, 98
1, 825511, Note_off_c, 0, 50, 58
1, 825516, Control_c, 0, 64, 109
1, 825531, Control_c, 0, 64, 127
1, 825538, Note_on_c, 0, 42, 70
1, 825541, Note_off_c, 0, 38, 57
1, 825552, Note_on_c, 0, 54, 63
1, 825585, Note_off_c, 0, 54, 64
1, 825607, Note_on_c, 0, 45, 74
1, 825610, Note_off_c, 0, 42, 63
1, 825615, Note_on_c, 0, 57, 64
1, 825646, Note_off_c, 0, 57, 65
1, 825662, Note_off_c, 0, 45, 63
1, 825698, Note_on_c, 0, 50, 56
1, 825708, Note_on_c, 0, 62, 69
1, 825731, Note_off_c, 0, 50, 65
1, 825772, Note_on_c, 0, 66, 67
1, 825777, Note_on_c, 0, 54, 66
1, 825784, Note_off_c, 0, 62, 43
1, 825837, Note_on_c, 0, 69, 62
1, 825841, Note_on_c, 0, 57, 74
1, 825842, Note_off_c, 0, 66, 61
1, 825851, Note_off_c, 0, 54, 60
1, 825896, Note_on_c, 0, 74, 74
1, 825896, Note_off_c, 0, 69, 62
1, 825897, Note_off_c, 0, 57, 62
1, 825909, Note_on_c, 0, 62, 67
1, 825957, Note_on_c, 0, 69, 69
1, 825971, Note_off_c, 0, 62, 60
1, 825972, Note_on_c, 0, 57, 68
1, 825980, Note_off_c, 0, 74, 59
1, 826030, Note_on_c, 0, 66, 64
1, 826036, Note_off_c, 0, 57, 59
1, 826042, Note_on_c, 0, 54, 69
1, 826043, Note_off_c, 0, 69, 61
1, 826071, Note_off_c, 0, 66, 59
1, 826072, Note_off_c, 0, 54, 64
1, 826086, Note_on_c, 0, 62, 74
1, 826087, Note_on_c, 0, 50, 75
1, 826149, Note_off_c, 0, 62, 55
1, 826155, Note_on_c, 0, 66, 68
1, 826158, Note_on_c, 0, 54, 75
1, 826169, Note_off_c, 0, 50, 61
1, 826203, Note_off_c, 0, 66, 64
1, 826209, Note_on_c, 0, 69, 74
1, 826212, Note_on_c, 0, 57, 74
1, 826222, Note_off_c, 0, 54, 62
1, 826243, Note_off_c, 0, 69, 57
1, 826260, Note_off_c, 0, 57, 61
1, 826269, Note_on_c, 0, 62, 75
1, 826292, Note_on_c, 0, 74, 80
1, 826321, Note_off_c, 0, 62, 60
1, 826344, Note_off_c, 0, 74, 55
1, 826349, Note_on_c, 0, 78, 77
1, 826352, Note_on_c, 0, 66, 67
1, 826394, Note_on_c, 0, 81, 85
1, 826403, Note_off_c, 0, 78, 64
1, 826403, Note_on_c, 0, 69, 73
1, 826416, Note_off_c, 0, 66, 62
1, 826448, Note_off_c, 0, 81, 63
1, 826460, Note_off_c, 0, 69, 59
1, 826477, Note_on_c, 0, 74, 69
1, 826482, Note_on_c, 0, 86, 87
1, 826495, Note_off_c, 0, 74, 66
1, 826531, Note_on_c, 0, 90, 85
1, 826540, Note_on_c, 0, 78, 70
1, 826555, Note_off_c, 0, 86, 55
1, 826588, Note_on_c, 0, 81, 73
1, 826588, Note_on_c, 0, 93, 69
1, 826588, Note_on_c, 0, 95, 60
1, 826594, Note_off_c, 0, 78, 64
1, 826601, Note_off_c, 0, 90, 64
1, 826604, Note_off_c, 0, 81, 68
1, 826629, Note_on_c, 0, 100, 91
1, 826631, Note_off_c, 0, 93, 59
1, 826634, Note_on_c, 0, 86, 101
1, 826637, Note_on_c, 0, 98, 84
1, 826643, Note_off_c, 0, 95, 66
1, 826656, Note_off_c, 0, 98, 68
1, 826656, Control_c, 0, 64, 76
1, 826661, Note_off_c, 0, 100, 68
1, 826667, Note_off_c, 0, 86, 61
1, 826669, Note_on_c, 0, 96, 17
1, 826669, Note_off_c, 0, 96, 127
1, 826671, Control_c, 0, 64, 0
1, 826948, Note_on_c, 0, 62, 53
1, 826949, Note_on_c, 0, 76, 68
1, 826951, Note_on_c, 0, 68, 52
1, 826954, Note_on_c, 0, 64, 45
1, 826955, Note_on_c, 0, 59, 39
1, 826962, Note_on_c, 0, 74, 52
1, 827198, Control_c, 0, 64, 38
1, 827213, Control_c, 0, 64, 65
1, 827221, Note_off_c, 0, 64, 58
1, 827226, Note_off_c, 0, 76, 58
1, 827228, Control_c, 0, 64, 75
1, 827235, Note_off_c, 0, 74, 61
1, 827239, Note_off_c, 0, 68, 64
1, 827242, Control_c, 0, 64, 93
1, 827257, Control_c, 0, 64, 127
1, 827260, Note_off_c, 0, 59, 62
1, 827264, Note_off_c, 0, 62, 59
1, 827407, Control_c, 0, 64, 110
1, 827421, Control_c, 0, 64, 80
1, 827436, Control_c, 0, 64, 66
1, 827448, Note_on_c, 0, 58, 55
1, 827449, Note_on_c, 0, 78, 61
1, 827451, Control_c, 0, 64, 57
1, 827452, Note_on_c, 0, 74, 51
1, 827455, Note_on_c, 0, 66, 52
1, 827458, Note_on_c, 0, 70, 53
1, 827465, Control_c, 0, 64, 56
1, 827467, Note_on_c, 0, 62, 31
1, 827471, Note_on_c, 0, 64, 34
1, 827480, Control_c, 0, 64, 62
1, 827490, Note_off_c, 0, 74, 64
1, 827495, Note_off_c, 0, 66, 62
1, 827495, Control_c, 0, 64, 70
1, 827496, Note_off_c, 0, 70, 65
1, 827510, Control_c, 0, 64, 88
1, 827521, Note_off_c, 0, 62, 51
1, 827521, Note_off_c, 0, 58, 52
1, 827525, Control_c, 0, 64, 127
1, 827529, Note_off_c, 0, 78, 62
1, 827565, Note_off_c, 0, 64, 33
1, 827628, Control_c, 0, 64, 97
1, 827643, Control_c, 0, 64, 73
1, 827658, Control_c, 0, 64, 60
1, 827673, Control_c, 0, 64, 47
1, 827688, Control_c, 0, 64, 42
1, 827693, Note_on_c, 0, 64, 58
1, 827694, Note_on_c, 0, 80, 72
1, 827703, Control_c, 0, 64, 50
1, 827703, Note_on_c, 0, 56, 60
1, 827705, Note_on_c, 0, 60, 56
1, 827709, Note_on_c, 0, 68, 58
1, 827709, Note_on_c, 0, 72, 59
1, 827717, Control_c, 0, 64, 61
1, 827718, Note_on_c, 0, 76, 49
1, 827732, Control_c, 0, 64, 70
1, 827743, Note_off_c, 0, 60, 65
1, 827744, Note_off_c, 0, 76, 56
1, 827747, Control_c, 0, 64, 88
1, 827748, Note_off_c, 0, 68, 61
1, 827750, Note_off_c, 0, 72, 60
1, 827757, Note_off_c, 0, 64, 61
1, 827759, Note_off_c, 0, 56, 56
1, 827762, Control_c, 0, 64, 127
1, 827777, Note_off_c, 0, 80, 56
1, 827865, Control_c, 0, 64, 83
1, 827880, Control_c, 0, 64, 65
1, 827895, Control_c, 0, 64, 48
1, 827910, Control_c, 0, 64, 29
1, 827925, Control_c, 0, 64, 0
1, 827946, Note_on_c, 0, 81, 79
1, 827947, Control_c, 0, 64, 38
1, 827952, Note_on_c, 0, 54, 72
1, 827952, Note_on_c, 0, 64, 63
1, 827954, Note_on_c, 0, 72, 64
1, 827958, Note_on_c, 0, 60, 62
1, 827962, Control_c, 0, 64, 52
1, 827977, Note_on_c, 0, 67, 40
1, 827977, Note_on_c, 0, 69, 38
1, 827977, Control_c, 0, 64, 63
1, 827986, Note_off_c, 0, 64, 62
1, 827991, Control_c, 0, 64, 72
1, 827994, Note_off_c, 0, 60, 66
1, 828005, Note_off_c, 0, 67, 49
1, 828006, Note_off_c, 0, 69, 55
1, 828006, Control_c, 0, 64, 91
1, 828008, Note_off_c, 0, 72, 62
1, 828021, Control_c, 0, 64, 127
1, 828023, Note_off_c, 0, 54, 54
1, 828030, Note_off_c, 0, 81, 63
1, 828110, Control_c, 0, 64, 91
1, 828125, Control_c, 0, 64, 62
1, 828139, Control_c, 0, 64, 0
1, 828193, Note_on_c, 0, 63, 73
1, 828193, Note_on_c, 0, 83, 82
1, 828194, Note_on_c, 0, 75, 73
1, 828198, Note_on_c, 0, 53, 72
1, 828198, Note_on_c, 0, 71, 75
1, 828203, Note_on_c, 0, 57, 66
1, 828214, Control_c, 0, 64, 53
1, 828229, Control_c, 0, 64, 67
1, 828238, Note_off_c, 0, 71, 60
1, 828239, Note_off_c, 0, 57, 64
1, 828244, Control_c, 0, 64, 78
1, 828250, Note_off_c, 0, 53, 58
1, 828250, Note_off_c, 0, 75, 62
1, 828259, Control_c, 0, 64, 100
1, 828267, Note_off_c, 0, 83, 62
1, 828274, Control_c, 0, 64, 127
1, 828286, Note_off_c, 0, 63, 51
1, 828348, Control_c, 0, 64, 117
1, 828362, Control_c, 0, 64, 80
1, 828377, Control_c, 0, 64, 62
1, 828392, Control_c, 0, 64, 39
1, 828406, Control_c, 0, 64, 0
1, 828416, Note_on_c, 0, 52, 71
1, 828418, Note_on_c, 0, 62, 73
1, 828421, Note_on_c, 0, 84, 87
1, 828421, Control_c, 0, 64, 31
1, 828424, Note_on_c, 0, 56, 70
1, 828424, Note_on_c, 0, 72, 78
1, 828429, Note_on_c, 0, 76, 78
1, 828436, Control_c, 0, 64, 54
1, 828451, Control_c, 0, 64, 70
1, 828453, Note_off_c, 0, 56, 64
1, 828454, Note_off_c, 0, 52, 63
1, 828461, Note_off_c, 0, 76, 63
1, 828466, Note_off_c, 0, 72, 63
1, 828466, Control_c, 0, 64, 92
1, 828472, Note_off_c, 0, 62, 61
1, 828478, Note_off_c, 0, 84, 62
1, 828481, Control_c, 0, 64, 127
1, 828585, Control_c, 0, 64, 94
1, 828600, Control_c, 0, 64, 67
1, 828614, Control_c, 0, 64, 50
1, 828629, Control_c, 0, 64, 30
1, 828644, Control_c, 0, 64, 0
1, 828648, Note_on_c, 0, 55, 72
1, 828650, Note_on_c, 0, 77, 72
1, 828650, Note_on_c, 0, 65, 78
1, 828652, Note_on_c, 0, 73, 83
1, 828654, Note_on_c, 0, 85, 86
1, 828658, Note_on_c, 0, 59, 68
1, 828659, Control_c, 0, 64, 40
1, 828674, Control_c, 0, 64, 57
1, 828695, Control_c, 0, 64, 70
1, 828703, Note_off_c, 0, 77, 63
1, 828707, Note_off_c, 0, 55, 62
1, 828708, Note_off_c, 0, 59, 62
1, 828710, Control_c, 0, 64, 100
1, 828713, Note_off_c, 0, 65, 64
1, 828725, Control_c, 0, 64, 127
1, 828735, Note_off_c, 0, 85, 61
1, 828748, Note_off_c, 0, 73, 44
1, 828814, Control_c, 0, 64, 90
1, 828829, Control_c, 0, 64, 68
1, 828844, Control_c, 0, 64, 51
1, 828859, Control_c, 0, 64, 0
1, 828881, Note_on_c, 0, 54, 80
1, 828882, Note_on_c, 0, 64, 77
1, 828885, Note_on_c, 0, 58, 73
1, 828886, Note_on_c, 0, 86, 93
1, 828888, Control_c, 0, 64, 34
1, 828889, Note_on_c, 0, 74, 85
1, 828889, Note_on_c, 0, 78, 86
1, 828903, Control_c, 0, 64, 54
1, 828918, Control_c, 0, 64, 66
1, 828925, Note_off_c, 0, 58, 61
1, 828929, Note_off_c, 0, 54, 60
1, 828932, Control_c, 0, 64, 82
1, 828936, Note_off_c, 0, 74, 63
1, 828937, Note_off_c, 0, 64, 64
1, 828938, Note_off_c, 0, 78, 64
1, 828947, Control_c, 0, 64, 127
1, 828951, Note_off_c, 0, 86, 60
1, 829052, Control_c, 0, 64, 98
1, 829067, Control_c, 0, 64, 73
1, 829082, Control_c, 0, 64, 58
1, 829097, Control_c, 0, 64, 40
1, 829102, Note_on_c, 0, 57, 76
1, 829103, Note_on_c, 0, 67, 75
1, 829108, Note_on_c, 0, 61, 79
1, 829108, Note_on_c, 0, 79, 90
1, 829109, Note_on_c, 0, 75, 87
1, 829110, Note_on_c, 0, 87, 95
1, 829111, Control_c, 0, 64, 38
1, 829126, Control_c, 0, 64, 47
1, 829141, Control_c, 0, 64, 61
1, 829145, Note_off_c, 0, 67, 64
1, 829154, Note_off_c, 0, 57, 64
1, 829156, Control_c, 0, 64, 73
1, 829165, Note_off_c, 0, 79, 65
1, 829169, Note_off_c, 0, 61, 59
1, 829171, Control_c, 0, 64, 101
1, 829181, Note_off_c, 0, 75, 61
1, 829185, Control_c, 0, 64, 127
1, 829190, Note_off_c, 0, 87, 64
1, 829274, Control_c, 0, 64, 85
1, 829289, Control_c, 0, 64, 65
1, 829303, Control_c, 0, 64, 48
1, 829318, Control_c, 0, 64, 41
1, 829321, Note_on_c, 0, 60, 67
1, 829321, Note_on_c, 0, 66, 83
1, 829325, Note_on_c, 0, 56, 76
1, 829327, Note_on_c, 0, 88, 93
1, 829330, Note_on_c, 0, 76, 91
1, 829331, Note_on_c, 0, 80, 86
1, 829333, Control_c, 0, 64, 48
1, 829348, Control_c, 0, 64, 59
1, 829353, Note_off_c, 0, 60, 68
1, 829362, Control_c, 0, 64, 68
1, 829371, Note_off_c, 0, 80, 61
1, 829375, Note_off_c, 0, 56, 59
1, 829375, Note_off_c, 0, 76, 62
1, 829377, Control_c, 0, 64, 85
1, 829389, Note_off_c, 0, 88, 62
1, 829392, Note_off_c, 0, 66, 59
1, 829392, Control_c, 0, 64, 127
1, 829518, Control_c, 0, 64, 80
1, 829533, Control_c, 0, 64, 61
1, 829548, Control_c, 0, 64, 34
1, 829561, Note_on_c, 0, 69, 84
1, 829562, Control_c, 0, 64, 0
1, 829564, Note_on_c, 0, 89, 102
1, 829565, Note_on_c, 0, 59, 79
1, 829566, Note_on_c, 0, 77, 89
1, 829566, Note_on_c, 0, 81, 94
1, 829569, Note_on_c, 0, 63, 79
1, 829592, Control_c, 0, 64, 42
1, 829607, Control_c, 0, 64, 62
1, 829615, Note_off_c, 0, 69, 64
1, 829619, Note_off_c, 0, 81, 60
1, 829619, Note_off_c, 0, 77, 57
1, 829621, Note_off_c, 0, 59, 63
1, 829622, Control_c, 0, 64, 74
1, 829636, Control_c, 0, 64, 97
1, 829637, Note_off_c, 0, 89, 62
1, 829643, Note_off_c, 0, 63, 60
1, 829651, Control_c, 0, 64, 127
1, 829771, Control_c, 0, 64, 108
1, 829785, Control_c, 0, 64, 75
1, 829800, Control_c, 0, 64, 55
1, 829801, Note_on_c, 0, 58, 71
1, 829804, Note_on_c, 0, 70, 78
1, 829807, Note_on_c, 0, 63, 72
1, 829815, Control_c, 0, 64, 42
1, 829819, Note_on_c, 0, 82, 100
1, 829819, Note_on_c, 0, 90, 98
1, 829819, Note_on_c, 0, 78, 100
1, 829830, Control_c, 0, 64, 48
1, 829845, Control_c, 0, 64, 61
1, 829851, Note_off_c, 0, 63, 63
1, 829854, Note_off_c, 0, 70, 64
1, 829859, Control_c, 0, 64, 72
1, 829862, Note_off_c, 0, 58, 62
1, 829874, Control_c, 0, 64, 92
1, 829889, Control_c, 0, 64, 127
1, 829952, Note_on_c, 0, 63, 32
1, 829987, Note_on_c, 0, 56, 79
1, 829988, Note_off_c, 0, 63, 53
1, 830048, Note_on_c, 0, 63, 78
1, 830051, Control_c, 0, 64, 108
1, 830067, Control_c, 0, 64, 69
1, 830082, Control_c, 0, 64, 33
1, 830097, Control_c, 0, 64, 0
1, 830102, Note_on_c, 0, 71, 95
1, 830127, Note_off_c, 0, 78, 60
1, 830129, Note_off_c, 0, 82, 61
1, 830130, Note_off_c, 0, 90, 63
1, 830141, Control_c, 0, 64, 61
1, 830150, Note_off_c, 0, 56, 60
1, 830156, Control_c, 0, 64, 79
1, 830168, Note_off_c, 0, 71, 65
1, 830171, Control_c, 0, 64, 127
1, 830206, Note_off_c, 0, 63, 60
1, 830323, Note_on_c, 0, 80, 96
1, 830326, Note_on_c, 0, 92, 90
1, 830359, Note_on_c, 0, 90, 41
1, 830359, Note_off_c, 0, 90, 127
1, 830367, Note_off_c, 0, 80, 63
1, 830369, Note_off_c, 0, 92, 64
1, 830492, Note_on_c, 0, 59, 65
1, 830497, Note_on_c, 0, 68, 70
1, 830497, Note_on_c, 0, 82, 94
1, 830497, Note_on_c, 0, 94, 94
1, 830499, Note_on_c, 0, 53, 68
1, 830519, Note_off_c, 0, 68, 67
1, 830537, Note_off_c, 0, 53, 59
1, 830546, Note_off_c, 0, 82, 61
1, 830549, Note_off_c, 0, 59, 61
1, 830550, Note_off_c, 0, 94, 65
1, 830618, Note_on_c, 0, 95, 96
1, 830621, Note_on_c, 0, 83, 95
1, 830673, Note_off_c, 0, 83, 64
1, 830677, Note_off_c, 0, 95, 66
1, 830772, Control_c, 0, 64, 99
1, 830787, Control_c, 0, 64, 69
1, 830801, Control_c, 0, 64, 35
1, 830806, Note_on_c, 0, 53, 84
1, 830806, Note_on_c, 0, 83, 113
1, 830806, Note_on_c, 0, 95, 107
1, 830809, Note_on_c, 0, 62, 89
1, 830809, Note_on_c, 0, 86, 95
1, 830813, Note_on_c, 0, 56, 88
1, 830816, Control_c, 0, 64, 0
1, 830846, Control_c, 0, 64, 42
1, 830854, Note_off_c, 0, 62, 62
1, 830861, Control_c, 0, 64, 65
1, 830874, Note_off_c, 0, 53, 65
1, 830875, Control_c, 0, 64, 84
1, 830877, Note_off_c, 0, 56, 65
1, 830890, Control_c, 0, 64, 127
1, 831011, Note_off_c, 0, 83, 61
1, 831013, Note_off_c, 0, 95, 62
1, 831017, Note_off_c, 0, 86, 61
1, 831116, Note_on_c, 0, 49, 83
1, 831117, Note_on_c, 0, 83, 100
1, 831119, Note_on_c, 0, 95, 96
1, 831120, Note_on_c, 0, 86, 88
1, 831125, Note_on_c, 0, 37, 72
1, 831140, Note_on_c, 0, 51, 48
1, 831142, Note_off_c, 0, 49, 69
1, 831145, Note_off_c, 0, 86, 63
1, 831154, Note_off_c, 0, 37, 63
1, 831157, Note_off_c, 0, 95, 66
1, 831163, Note_off_c, 0, 83, 61
1, 831167, Note_off_c, 0, 51, 58
1, 831372, Control_c, 0, 64, 84
1, 831378, Note_on_c, 0, 63, 99
1, 831384, Note_on_c, 0, 94, 87
1, 831387, Control_c, 0, 64, 51
1, 831388, Note_on_c, 0, 87, 85
1, 831391, Note_on_c, 0, 82, 80
1, 831402, Control_c, 0, 64, 0
1, 831428, Note_off_c, 0, 82, 59
1, 831433, Note_off_c, 0, 87, 61
1, 831435, Note_off_c, 0, 94, 63
1, 831447, Control_c, 0, 64, 44
1, 831461, Control_c, 0, 64, 68
1, 831476, Control_c, 0, 64, 85
1, 831491, Control_c, 0, 64, 127
1, 831621, Note_on_c, 0, 87, 91
1, 831622, Note_on_c, 0, 82, 91
1, 831624, Note_on_c, 0, 94, 85
1, 831625, Note_on_c, 0, 58, 71
1, 831628, Note_on_c, 0, 54, 70
1, 831639, Note_off_c, 0, 63, 61
1, 831655, Note_off_c, 0, 94, 62
1, 831660, Note_off_c, 0, 82, 64
1, 831661, Note_off_c, 0, 87, 63
1, 831759, Note_off_c, 0, 58, 36
1, 831813, Note_off_c, 0, 54, 53
1, 831839, Control_c, 0, 64, 103
1, 831854, Control_c, 0, 64, 73
1, 831858, Note_on_c, 0, 65, 95
1, 831861, Note_on_c, 0, 86, 84
1, 831861, Note_on_c, 0, 80, 84
1, 831861, Note_on_c, 0, 92, 81
1, 831869, Control_c, 0, 64, 56
1, 831884, Control_c, 0, 64, 38
1, 831891, Note_off_c, 0, 86, 63
1, 831899, Control_c, 0, 64, 43
1, 831903, Note_off_c, 0, 92, 62
1, 831906, Note_off_c, 0, 80, 63
1, 831913, Control_c, 0, 64, 57
1, 831928, Control_c, 0, 64, 67
1, 831943, Control_c, 0, 64, 78
1, 831956, Note_on_c, 0, 80, 77
1, 831957, Control_c, 0, 64, 97
1, 831958, Note_on_c, 0, 92, 72
1, 831959, Note_on_c, 0, 86, 81
1, 831972, Control_c, 0, 64, 127
1, 831989, Note_off_c, 0, 92, 64
1, 832002, Note_off_c, 0, 80, 62
1, 832004, Note_off_c, 0, 86, 62
1, 832059, Note_on_c, 0, 86, 80
1, 832064, Note_on_c, 0, 80, 76
1, 832070, Note_on_c, 0, 92, 78
1, 832070, Note_on_c, 0, 62, 76
1, 832072, Note_off_c, 0, 65, 61
1, 832074, Note_on_c, 0, 56, 75
1, 832093, Note_off_c, 0, 92, 66
1, 832099, Note_off_c, 0, 80, 59
1, 832102, Note_off_c, 0, 86, 64
1, 832105, Note_on_c, 0, 59, 39
1, 832149, Note_off_c, 0, 59, 45
1, 832155, Note_on_c, 0, 80, 77
1, 832156, Note_on_c, 0, 86, 76
1, 832161, Note_on_c, 0, 92, 83
1, 832186, Note_off_c, 0, 92, 64
1, 832202, Note_off_c, 0, 86, 63
1, 832212, Note_off_c, 0, 80, 61
1, 832266, Note_off_c, 0, 56, 59
1, 832269, Control_c, 0, 64, 106
1, 832284, Control_c, 0, 64, 68
1, 832286, Note_on_c, 0, 66, 96
1, 832288, Note_on_c, 0, 87, 87
1, 832290, Note_on_c, 0, 90, 85
1, 832293, Note_on_c, 0, 78, 80
1, 832296, Note_off_c, 0, 62, 38
1, 832300, Control_c, 0, 64, 39
1, 832315, Control_c, 0, 64, 0
1, 832344, Control_c, 0, 64, 31
1, 832359, Control_c, 0, 64, 56
1, 832374, Control_c, 0, 64, 69
1, 832389, Control_c, 0, 64, 86
1, 832403, Control_c, 0, 64, 127
1, 832406, Note_off_c, 0, 90, 45
1, 832431, Note_off_c, 0, 78, 59
1, 832447, Note_off_c, 0, 87, 63
1, 832505, Note_off_c, 0, 66, 58
1, 832531, Note_on_c, 0, 63, 71
1, 832535, Note_on_c, 0, 78, 74
1, 832536, Note_on_c, 0, 90, 83
1, 832537, Note_on_c, 0, 58, 66
1, 832538, Note_on_c, 0, 87, 86
1, 832555, Note_off_c, 0, 63, 67
1, 832566, Note_off_c, 0, 58, 67
1, 832577, Note_off_c, 0, 78, 60
1, 832579, Note_off_c, 0, 87, 55
1, 832588, Note_off_c, 0, 90, 62
1, 832722, Control_c, 0, 64, 78
1, 832737, Control_c, 0, 64, 60
1, 832752, Control_c, 0, 64, 42
1, 832757, Note_on_c, 0, 62, 93
1, 832758, Note_on_c, 0, 53, 87
1, 832761, Note_on_c, 0, 56, 89
1, 832767, Control_c, 0, 64, 43
1, 832769, Note_on_c, 0, 95, 84
1, 832771, Note_on_c, 0, 83, 76
1, 832771, Note_on_c, 0, 86, 74
1, 832781, Control_c, 0, 64, 59
1, 832791, Note_off_c, 0, 62, 64
1, 832796, Control_c, 0, 64, 77
1, 832800, Note_off_c, 0, 86, 63
1, 832804, Note_off_c, 0, 53, 66
1, 832809, Note_off_c, 0, 56, 64
1, 832809, Note_off_c, 0, 83, 62
1, 832811, Control_c, 0, 64, 127
1, 832816, Note_off_c, 0, 95, 64
1, 832940, Note_on_c, 0, 95, 73
1, 832942, Note_on_c, 0, 86, 71
1, 832944, Note_on_c, 0, 83, 70
1, 832974, Note_off_c, 0, 86, 62
1, 832978, Note_off_c, 0, 83, 61
1, 832980, Note_off_c, 0, 95, 60
1, 832991, Note_on_c, 0, 46, 96
1, 833002, Note_on_c, 0, 34, 77
1, 833027, Note_off_c, 0, 34, 65
1, 833035, Note_off_c, 0, 46, 65
1, 833077, Note_on_c, 0, 95, 78
1, 833078, Note_on_c, 0, 86, 68
1, 833080, Note_on_c, 0, 83, 69
1, 833101, Note_off_c, 0, 86, 57
1, 833104, Note_off_c, 0, 83, 69
1, 833114, Note_off_c, 0, 95, 62
1, 833205, Note_on_c, 0, 82, 80
1, 833209, Note_on_c, 0, 63, 91
1, 833210, Note_on_c, 0, 94, 80
1, 833211, Note_on_c, 0, 87, 59
1, 833235, Note_off_c, 0, 87, 60
1, 833249, Note_off_c, 0, 94, 62
1, 833253, Note_off_c, 0, 82, 60
1, 833308, Note_on_c, 0, 87, 85
1, 833313, Note_on_c, 0, 82, 70
1, 833320, Note_on_c, 0, 94, 74
1, 833347, Note_off_c, 0, 94, 65
1, 833351, Note_off_c, 0, 82, 61
1, 833352, Note_off_c, 0, 87, 66
1, 833412, Note_on_c, 0, 82, 77
1, 833414, Note_on_c, 0, 94, 78
1, 833415, Note_on_c, 0, 87, 80
1, 833423, Note_on_c, 0, 54, 73
1, 833425, Note_on_c, 0, 58, 79
1, 833447, Note_off_c, 0, 87, 62
1, 833454, Note_off_c, 0, 82, 64
1, 833456, Note_off_c, 0, 94, 64
1, 833468, Note_off_c, 0, 63, 60
1, 833500, Note_on_c, 0, 94, 76
1, 833503, Note_on_c, 0, 87, 81
1, 833504, Note_on_c, 0, 82, 78
1, 833547, Note_off_c, 0, 94, 65
1, 833548, Note_off_c, 0, 87, 62
1, 833551, Note_off_c, 0, 82, 61
1, 833593, Note_off_c, 0, 58, 60
1, 833603, Control_c, 0, 64, 86
1, 833609, Note_off_c, 0, 54, 60
1, 833613, Note_on_c, 0, 65, 94
1, 833617, Note_on_c, 0, 80, 82
1, 833618, Note_on_c, 0, 92, 83
1, 833618, Control_c, 0, 64, 68
1, 833625, Note_on_c, 0, 86, 77
1, 833633, Control_c, 0, 64, 57
1, 833648, Control_c, 0, 64, 53
1, 833663, Control_c, 0, 64, 58
1, 833667, Note_off_c, 0, 80, 63
1, 833672, Note_off_c, 0, 86, 59
1, 833677, Note_off_c, 0, 92, 61
1, 833677, Control_c, 0, 64, 65
1, 833692, Control_c, 0, 64, 72
1, 833707, Control_c, 0, 64, 80
1, 833721, Control_c, 0, 64, 87
1, 833736, Control_c, 0, 64, 91
1, 833752, Control_c, 0, 64, 93
1, 833767, Control_c, 0, 64, 94
1, 833779, Note_on_c, 0, 80, 85
1, 833779, Note_on_c, 0, 86, 89
1, 833782, Control_c, 0, 64, 94
1, 833784, Note_on_c, 0, 92, 82
1, 833812, Control_c, 0, 64, 95
1, 833829, Note_on_c, 0, 62, 66
1, 833831, Note_on_c, 0, 56, 72
1, 833831, Note_off_c, 0, 80, 63
1, 833834, Note_off_c, 0, 86, 61
1, 833836, Note_off_c, 0, 92, 63
1, 833841, Note_on_c, 0, 59, 49
1, 833843, Note_off_c, 0, 65, 54
1, 833871, Control_c, 0, 64, 95
1, 833919, Note_on_c, 0, 86, 86
1, 833921, Note_on_c, 0, 92, 88
1, 833930, Note_on_c, 0, 80, 83
1, 833950, Note_off_c, 0, 59, 57
1, 833991, Note_off_c, 0, 86, 58
1, 833995, Note_off_c, 0, 92, 62
1, 833996, Note_off_c, 0, 80, 58
1, 834026, Control_c, 0, 64, 93
1, 834041, Control_c, 0, 64, 79
1, 834047, Note_off_c, 0, 62, 61
1, 834056, Note_off_c, 0, 56, 41
1, 834056, Control_c, 0, 64, 60
1, 834067, Note_on_c, 0, 66, 86
1, 834071, Control_c, 0, 64, 0
1, 834074, Note_on_c, 0, 87, 86
1, 834075, Note_on_c, 0, 90, 89
1, 834082, Note_on_c, 0, 78, 82
1, 834145, Control_c, 0, 64, 52
1, 834159, Control_c, 0, 64, 64
1, 834174, Control_c, 0, 64, 73
1, 834189, Control_c, 0, 64, 89
1, 834204, Control_c, 0, 64, 109
1, 834219, Control_c, 0, 64, 127
1, 834285, Note_off_c, 0, 66, 60
1, 834305, Note_on_c, 0, 58, 74
1, 834308, Note_on_c, 0, 63, 65
1, 834329, Note_off_c, 0, 63, 65
1, 834340, Note_off_c, 0, 58, 63
1, 834340, Note_off_c, 0, 78, 59
1, 834371, Note_off_c, 0, 90, 52
1, 834409, Note_off_c, 0, 87, 53
1, 834576, Control_c, 0, 64, 98
1, 834591, Control_c, 0, 64, 69
1, 834606, Control_c, 0, 64, 48
1, 834609, Note_on_c, 0, 47, 98
1, 834612, Note_on_c, 0, 35, 89
1, 834621, Control_c, 0, 64, 0
1, 834625, Note_on_c, 0, 89, 95
1, 834650, Control_c, 0, 64, 46
1, 834657, Note_off_c, 0, 35, 61
1, 834665, Control_c, 0, 64, 63
1, 834667, Note_off_c, 0, 47, 67
1, 834687, Control_c, 0, 64, 76
1, 834702, Control_c, 0, 64, 94
1, 834717, Control_c, 0, 64, 127
1, 834739, Note_off_c, 0, 89, 58
1, 834773, Note_on_c, 0, 92, 70
1, 834851, Note_on_c, 0, 90, 56
1, 834863, Note_off_c, 0, 92, 62
1, 834898, Note_on_c, 0, 62, 81
1, 834901, Note_on_c, 0, 64, 62
1, 834907, Note_on_c, 0, 89, 72
1, 834917, Note_off_c, 0, 90, 57
1, 834967, Note_on_c, 0, 86, 73
1, 834998, Note_off_c, 0, 89, 61
1, 835003, Note_off_c, 0, 64, 25
1, 835022, Note_off_c, 0, 86, 63
1, 835045, Note_on_c, 0, 83, 72
1, 835094, Note_off_c, 0, 83, 59
1, 835106, Note_on_c, 0, 53, 69
1, 835110, Note_on_c, 0, 56, 72
1, 835113, Note_on_c, 0, 59, 62
1, 835134, Note_on_c, 0, 80, 67
1, 835153, Note_off_c, 0, 62, 62
1, 835185, Note_on_c, 0, 78, 71
1, 835228, Note_off_c, 0, 80, 60
1, 835251, Note_on_c, 0, 77, 66
1, 835265, Note_off_c, 0, 78, 62
1, 835315, Note_on_c, 0, 63, 89
1, 835315, Note_off_c, 0, 59, 55
1, 835316, Note_off_c, 0, 77, 63
1, 835332, Note_on_c, 0, 80, 74
1, 835332, Note_off_c, 0, 56, 57
1, 835394, Note_on_c, 0, 78, 73
1, 835411, Note_off_c, 0, 63, 61
1, 835466, Note_off_c, 0, 80, 53
1, 835474, Note_on_c, 0, 77, 62
1, 835500, Note_off_c, 0, 53, 28
1, 835518, Note_off_c, 0, 78, 58
1, 835535, Note_on_c, 0, 65, 94
1, 835539, Control_c, 0, 64, 91
1, 835551, Note_off_c, 0, 77, 65
1, 835554, Control_c, 0, 64, 73
1, 835562, Note_on_c, 0, 74, 77
1, 835569, Control_c, 0, 64, 64
1, 835584, Control_c, 0, 64, 61
1, 835599, Control_c, 0, 64, 64
1, 835614, Control_c, 0, 64, 69
1, 835615, Note_off_c, 0, 74, 58
1, 835626, Note_off_c, 0, 65, 63
1, 835629, Control_c, 0, 64, 77
1, 835644, Control_c, 0, 64, 86
1, 835650, Note_on_c, 0, 73, 69
1, 835659, Control_c, 0, 64, 96
1, 835673, Control_c, 0, 64, 107
1, 835688, Control_c, 0, 64, 125
1, 835703, Control_c, 0, 64, 127
1, 835705, Note_on_c, 0, 71, 65
1, 835728, Note_off_c, 0, 73, 63
1, 835769, Note_on_c, 0, 68, 71
1, 835769, Note_off_c, 0, 71, 64
1, 835834, Note_on_c, 0, 71, 66
1, 835837, Note_off_c, 0, 68, 64
1, 835844, Note_on_c, 0, 65, 79
1, 835878, Note_off_c, 0, 65, 63
1, 835879, Note_on_c, 0, 73, 72
1, 835909, Note_off_c, 0, 71, 64
1, 835924, Control_c, 0, 64, 125
1, 835933, Note_off_c, 0, 73, 63
1, 835939, Control_c, 0, 64, 117
1, 835942, Note_on_c, 0, 65, 91
1, 835955, Note_on_c, 0, 74, 80
1, 835988, Note_off_c, 0, 65, 64
1, 836013, Note_on_c, 0, 77, 71
1, 836019, Note_off_c, 0, 74, 60
1, 836082, Note_on_c, 0, 78, 80
1, 836088, Note_off_c, 0, 77, 64
1, 836138, Note_on_c, 0, 80, 83
1, 836159, Note_off_c, 0, 78, 64
1, 836188, Note_off_c, 0, 80, 63
1, 836210, Note_on_c, 0, 83, 80
1, 836260, Note_on_c, 0, 86, 86
1, 836292, Note_off_c, 0, 83, 58
1, 836318, Control_c, 0, 64, 108
1, 836333, Control_c, 0, 64, 83
1, 836347, Control_c, 0, 64, 55
1, 836350, Note_on_c, 0, 89, 82
1, 836362, Control_c, 0, 64, 0
1, 836370, Note_off_c, 0, 86, 63
1, 836372, Note_on_c, 0, 40, 94
1, 836374, Note_on_c, 0, 28, 86
1, 836410, Note_off_c, 0, 28, 64
1, 836429, Note_off_c, 0, 40, 64
1, 836437, Control_c, 0, 64, 40
1, 836443, Note_off_c, 0, 89, 65
1, 836451, Control_c, 0, 64, 74
1, 836456, Note_on_c, 0, 92, 67
1, 836466, Control_c, 0, 64, 100
1, 836481, Control_c, 0, 64, 127
1, 836551, Note_on_c, 0, 90, 59
1, 836554, Note_off_c, 0, 92, 64
1, 836613, Note_on_c, 0, 89, 71
1, 836618, Note_off_c, 0, 90, 61
1, 836636, Note_on_c, 0, 62, 89
1, 836678, Note_on_c, 0, 86, 72
1, 836700, Note_off_c, 0, 89, 63
1, 836733, Note_off_c, 0, 86, 62
1, 836755, Note_on_c, 0, 83, 68
1, 836808, Note_off_c, 0, 83, 59
1, 836839, Note_on_c, 0, 53, 72
1, 836843, Note_on_c, 0, 56, 73
1, 836847, Note_on_c, 0, 59, 63
1, 836848, Note_on_c, 0, 80, 61
1, 836851, Control_c, 0, 64, 90
1, 836866, Control_c, 0, 64, 71
1, 836878, Note_off_c, 0, 62, 61
1, 836881, Control_c, 0, 64, 60
1, 836896, Control_c, 0, 64, 59
1, 836911, Control_c, 0, 64, 63
1, 836911, Note_on_c, 0, 78, 65
1, 836933, Control_c, 0, 64, 70
1, 836949, Control_c, 0, 64, 78
1, 836960, Note_off_c, 0, 80, 60
1, 836964, Control_c, 0, 64, 86
1, 836978, Control_c, 0, 64, 94
1, 836986, Note_on_c, 0, 77, 65
1, 836992, Note_off_c, 0, 78, 63
1, 836993, Control_c, 0, 64, 98
1, 837013, Note_off_c, 0, 59, 60
1, 837015, Note_on_c, 0, 63, 77
1, 837021, Note_off_c, 0, 56, 57
1, 837041, Note_off_c, 0, 77, 61
1, 837052, Control_c, 0, 64, 100
1, 837064, Note_on_c, 0, 80, 73
1, 837071, Note_off_c, 0, 63, 61
1, 837074, Note_off_c, 0, 53, 48
1, 837111, Control_c, 0, 64, 102
1, 837123, Note_on_c, 0, 78, 66
1, 837142, Note_on_c, 0, 65, 73
1, 837156, Control_c, 0, 64, 104
1, 837175, Note_off_c, 0, 80, 55
1, 837188, Note_on_c, 0, 77, 63
1, 837201, Note_off_c, 0, 65, 63
1, 837226, Note_off_c, 0, 78, 60
1, 837257, Note_off_c, 0, 77, 63
1, 837259, Control_c, 0, 64, 100
1, 837271, Note_on_c, 0, 74, 68
1, 837274, Control_c, 0, 64, 78
1, 837287, Note_on_c, 0, 65, 74
1, 837289, Control_c, 0, 64, 58
1, 837304, Control_c, 0, 64, 0
1, 837318, Note_off_c, 0, 74, 55
1, 837354, Note_on_c, 0, 73, 66
1, 837364, Control_c, 0, 64, 49
1, 837378, Control_c, 0, 64, 66
1, 837393, Control_c, 0, 64, 73
1, 837394, Note_off_c, 0, 65, 62
1, 837408, Control_c, 0, 64, 80
1, 837423, Control_c, 0, 64, 84
1, 837426, Note_on_c, 0, 71, 66
1, 837438, Control_c, 0, 64, 86
1, 837450, Note_off_c, 0, 73, 60
1, 837452, Control_c, 0, 64, 87
1, 837467, Control_c, 0, 64, 89
1, 837482, Control_c, 0, 64, 91
1, 837496, Note_on_c, 0, 68, 60
1, 837496, Control_c, 0, 64, 92
1, 837497, Note_off_c, 0, 71, 62
1, 837511, Control_c, 0, 64, 91
1, 837526, Note_on_c, 0, 65, 66
1, 837526, Control_c, 0, 64, 85
1, 837541, Control_c, 0, 64, 69
1, 837556, Control_c, 0, 64, 51
1, 837570, Control_c, 0, 64, 0
1, 837572, Note_off_c, 0, 68, 61
1, 837575, Note_on_c, 0, 74, 61
1, 837614, Control_c, 0, 67, 20
1, 837629, Control_c, 0, 64, 45
1, 837629, Control_c, 0, 67, 23
1, 837644, Control_c, 0, 64, 56
1, 837644, Control_c, 0, 67, 26
1, 837647, Note_on_c, 0, 73, 60
1, 837659, Control_c, 0, 64, 62
1, 837659, Control_c, 0, 67, 30
1, 837682, Control_c, 0, 64, 65
1, 837682, Control_c, 0, 67, 35
1, 837689, Note_off_c, 0, 74, 53
1, 837696, Control_c, 0, 64, 65
1, 837696, Control_c, 0, 67, 44
1, 837711, Control_c, 0, 64, 66
1, 837711, Control_c, 0, 67, 53
1, 837716, Note_off_c, 0, 65, 57
1, 837726, Control_c, 0, 64, 66
1, 837726, Control_c, 0, 67, 64
1, 837735, Note_on_c, 0, 71, 58
1, 837742, Control_c, 0, 67, 75
1, 837757, Control_c, 0, 67, 84
1, 837760, Note_off_c, 0, 73, 58
1, 837772, Control_c, 0, 64, 67
1, 837772, Control_c, 0, 67, 91
1, 837787, Control_c, 0, 67, 97
1, 837801, Control_c, 0, 67, 101
1, 837802, Note_off_c, 0, 71, 63
1, 837805, Note_on_c, 0, 68, 59
1, 837816, Control_c, 0, 67, 103
1, 837831, Control_c, 0, 67, 105
1, 837843, Note_off_c, 0, 68, 65
1, 837846, Control_c, 0, 67, 108
1, 837861, Control_c, 0, 64, 67
1, 837861, Control_c, 0, 67, 112
1, 837875, Control_c, 0, 67, 116
1, 837879, Note_on_c, 0, 65, 44
1, 837890, Control_c, 0, 67, 121
1, 837902, Note_off_c, 0, 65, 61
1, 837905, Control_c, 0, 64, 68
1, 837905, Control_c, 0, 67, 127
1, 837957, Note_on_c, 0, 62, 50
1, 838023, Control_c, 0, 64, 67
1, 838030, Note_on_c, 0, 61, 57
1, 838053, Control_c, 0, 64, 67
1, 838061, Note_off_c, 0, 62, 58
1, 838067, Control_c, 0, 64, 66
1, 838082, Control_c, 0, 64, 66
1, 838097, Control_c, 0, 64, 65
1, 838112, Control_c, 0, 64, 65
1, 838127, Note_on_c, 0, 59, 52
1, 838142, Control_c, 0, 64, 64
1, 838155, Note_off_c, 0, 61, 50
1, 838157, Control_c, 0, 64, 63
1, 838171, Control_c, 0, 64, 61
1, 838186, Control_c, 0, 64, 58
1, 838201, Control_c, 0, 64, 50
1, 838216, Control_c, 0, 64, 34
1, 838231, Control_c, 0, 64, 0
1, 838283, Note_on_c, 0, 50, 38
1, 838287, Note_on_c, 0, 54, 55
1, 838292, Note_on_c, 0, 45, 38
1, 838332, Note_off_c, 0, 59, 36
1, 838449, Note_on_c, 0, 66, 44
1, 838460, Control_c, 0, 64, 40
1, 838473, Note_off_c, 0, 54, 59
1, 838475, Control_c, 0, 64, 56
1, 838490, Control_c, 0, 64, 63
1, 838505, Control_c, 0, 64, 65
1, 838518, Note_off_c, 0, 66, 53
1, 838519, Control_c, 0, 64, 66
1, 838532, Note_on_c, 0, 62, 47
1, 838534, Control_c, 0, 64, 66
1, 838550, Control_c, 0, 64, 67
1, 838565, Control_c, 0, 64, 68
1, 838595, Control_c, 0, 64, 68
1, 838610, Control_c, 0, 64, 65
1, 838613, Note_off_c, 0, 62, 60
1, 838624, Control_c, 0, 64, 59
1, 838631, Note_on_c, 0, 52, 52
1, 838634, Note_on_c, 0, 56, 53
1, 838639, Control_c, 0, 64, 50
1, 838654, Control_c, 0, 64, 43
1, 838668, Control_c, 0, 64, 47
1, 838676, Note_off_c, 0, 50, 43
1, 838683, Control_c, 0, 64, 54
1, 838698, Control_c, 0, 64, 59
1, 838713, Control_c, 0, 64, 62
1, 838718, Note_on_c, 0, 68, 57
1, 838728, Control_c, 0, 64, 64
1, 838739, Note_off_c, 0, 56, 52
1, 838742, Control_c, 0, 64, 66
1, 838757, Control_c, 0, 64, 68
1, 838772, Control_c, 0, 64, 71
1, 838786, Note_off_c, 0, 68, 54
1, 838787, Control_c, 0, 64, 72
1, 838790, Note_on_c, 0, 64, 51
1, 838802, Control_c, 0, 64, 73
1, 838816, Control_c, 0, 64, 72
1, 838831, Control_c, 0, 64, 70
1, 838846, Control_c, 0, 64, 65
1, 838849, Note_off_c, 0, 52, 60
1, 838861, Note_on_c, 0, 54, 54
1, 838861, Control_c, 0, 64, 58
1, 838863, Note_off_c, 0, 64, 63
1, 838873, Note_on_c, 0, 57, 63
1, 838875, Control_c, 0, 64, 48
1, 838890, Control_c, 0, 64, 48
1, 838905, Control_c, 0, 64, 52
1, 838920, Control_c, 0, 64, 57
1, 838935, Control_c, 0, 64, 61
1, 838948, Note_on_c, 0, 69, 58
1, 838949, Control_c, 0, 64, 63
1, 838964, Control_c, 0, 64, 65
1, 838967, Note_off_c, 0, 45, 42
1, 838970, Note_off_c, 0, 57, 39
1, 838979, Control_c, 0, 64, 67
1, 838994, Control_c, 0, 64, 69
1, 838999, Note_off_c, 0, 54, 57
1, 839009, Note_on_c, 0, 66, 60
1, 839009, Control_c, 0, 64, 71
1, 839022, Note_off_c, 0, 69, 55
1, 839024, Control_c, 0, 64, 73
1, 839039, Control_c, 0, 64, 73
1, 839054, Control_c, 0, 64, 74
1, 839068, Control_c, 0, 64, 74
1, 839081, Note_on_c, 0, 50, 33
1, 839081, Note_off_c, 0, 66, 61
1, 839083, Control_c, 0, 64, 75
1, 839094, Note_on_c, 0, 59, 61
1, 839098, Note_on_c, 0, 45, 23
1, 839113, Control_c, 0, 64, 75
1, 839119, Note_off_c, 0, 50, 51
1, 839155, Note_off_c, 0, 59, 60
1, 839167, Note_on_c, 0, 71, 66
1, 839227, Note_off_c, 0, 71, 63
1, 839230, Note_off_c, 0, 45, 40
1, 839235, Note_on_c, 0, 68, 60
1, 839268, Control_c, 0, 64, 73
1, 839283, Control_c, 0, 64, 64
1, 839298, Control_c, 0, 64, 49
1, 839310, Note_on_c, 0, 45, 35
1, 839313, Control_c, 0, 64, 0
1, 839314, Note_off_c, 0, 68, 58
1, 839315, Note_on_c, 0, 49, 50
1, 839315, Note_on_c, 0, 57, 58
1, 839325, Note_on_c, 0, 61, 74
1, 839358, Control_c, 0, 64, 30
1, 839373, Control_c, 0, 64, 46
1, 839388, Control_c, 0, 64, 56
1, 839394, Note_off_c, 0, 57, 62
1, 839395, Note_on_c, 0, 73, 68
1, 839403, Control_c, 0, 64, 62
1, 839412, Note_off_c, 0, 61, 58
1, 839417, Control_c, 0, 64, 65
1, 839432, Control_c, 0, 64, 67
1, 839447, Control_c, 0, 64, 68
1, 839450, Note_off_c, 0, 49, 46
1, 839459, Note_on_c, 0, 69, 60
1, 839462, Control_c, 0, 64, 69
1, 839468, Note_off_c, 0, 73, 57
1, 839477, Control_c, 0, 64, 70
1, 839491, Control_c, 0, 64, 71
1, 839506, Control_c, 0, 64, 71
1, 839521, Control_c, 0, 64, 72
1, 839523, Note_off_c, 0, 45, 40
1, 839528, Note_off_c, 0, 69, 62
1, 839542, Note_on_c, 0, 63, 76
1, 839543, Note_on_c, 0, 59, 55
1, 839551, Control_c, 0, 64, 72
1, 839565, Control_c, 0, 64, 73
1, 839611, Note_on_c, 0, 75, 68
1, 839629, Note_off_c, 0, 63, 59
1, 839657, Note_off_c, 0, 59, 35
1, 839672, Note_on_c, 0, 71, 60
1, 839696, Note_off_c, 0, 75, 58
1, 839713, Control_c, 0, 64, 70
1, 839728, Control_c, 0, 64, 62
1, 839742, Note_off_c, 0, 71, 64
1, 839743, Note_on_c, 0, 64, 73
1, 839743, Control_c, 0, 64, 47
1, 839747, Note_on_c, 0, 57, 57
1, 839758, Note_on_c, 0, 61, 52
1, 839758, Control_c, 0, 64, 0
1, 839802, Control_c, 0, 64, 36
1, 839804, Note_off_c, 0, 64, 60
1, 839814, Note_on_c, 0, 76, 75
1, 839816, Control_c, 0, 64, 48
1, 839831, Control_c, 0, 64, 58
1, 839846, Control_c, 0, 64, 63
1, 839861, Control_c, 0, 64, 66
1, 839869, Note_off_c, 0, 57, 61
1, 839876, Control_c, 0, 64, 67
1, 839877, Note_off_c, 0, 61, 58
1, 839878, Note_on_c, 0, 73, 71
1, 839880, Note_off_c, 0, 76, 59
1, 839890, Control_c, 0, 64, 67
1, 839905, Control_c, 0, 64, 68
1, 839927, Control_c, 0, 64, 68
1, 839942, Control_c, 0, 64, 69
1, 839945, Note_off_c, 0, 73, 63
1, 839954, Note_on_c, 0, 66, 79
1, 839957, Control_c, 0, 64, 69
1, 839959, Note_on_c, 0, 59, 59
1, 839983, Note_off_c, 0, 59, 64
1, 840029, Note_on_c, 0, 78, 72
1, 840029, Note_off_c, 0, 66, 57
1, 840094, Note_on_c, 0, 75, 65
1, 840120, Note_off_c, 0, 78, 59
1, 840120, Control_c, 0, 64, 69
1, 840135, Control_c, 0, 64, 66
1, 840151, Control_c, 0, 64, 61
1, 840166, Control_c, 0, 64, 49
1, 840172, Note_on_c, 0, 44, 56
1, 840178, Note_off_c, 0, 75, 63
1, 840181, Control_c, 0, 64, 40
1, 840189, Note_on_c, 0, 68, 65
1, 840195, Control_c, 0, 64, 40
1, 840210, Control_c, 0, 64, 43
1, 840225, Control_c, 0, 64, 49
1, 840240, Control_c, 0, 64, 54
1, 840255, Control_c, 0, 64, 58
1, 840261, Note_off_c, 0, 44, 55
1, 840267, Note_on_c, 0, 80, 66
1, 840269, Note_off_c, 0, 68, 56
1, 840269, Control_c, 0, 64, 62
1, 840284, Control_c, 0, 64, 64
1, 840299, Control_c, 0, 64, 65
1, 840311, Note_on_c, 0, 52, 44
1, 840313, Control_c, 0, 64, 65
1, 840326, Note_off_c, 0, 80, 51
1, 840328, Control_c, 0, 64, 66
1, 840333, Note_on_c, 0, 76, 62
1, 840342, Note_off_c, 0, 52, 51
1, 840343, Control_c, 0, 64, 66
1, 840400, Note_off_c, 0, 76, 63
1, 840409, Note_on_c, 0, 56, 51
1, 840414, Note_on_c, 0, 69, 66
1, 840432, Control_c, 0, 64, 66
1, 840446, Control_c, 0, 64, 65
1, 840461, Control_c, 0, 64, 63
1, 840476, Note_off_c, 0, 69, 59
1, 840476, Control_c, 0, 64, 61
1, 840506, Note_on_c, 0, 81, 64
1, 840520, Control_c, 0, 64, 62
1, 840528, Note_on_c, 0, 59, 48
1, 840535, Control_c, 0, 64, 63
1, 840550, Control_c, 0, 64, 64
1, 840565, Control_c, 0, 64, 64
1, 840579, Note_on_c, 0, 78, 60
1, 840580, Control_c, 0, 64, 65
1, 840595, Control_c, 0, 64, 64
1, 840599, Note_off_c, 0, 81, 59
1, 840610, Control_c, 0, 64, 64
1, 840625, Control_c, 0, 64, 61
1, 840639, Control_c, 0, 64, 56
1, 840653, Note_off_c, 0, 78, 63
1, 840654, Control_c, 0, 64, 51
1, 840666, Note_on_c, 0, 64, 39
1, 840676, Control_c, 0, 64, 49
1, 840680, Note_on_c, 0, 71, 54
1, 840691, Control_c, 0, 64, 52
1, 840706, Control_c, 0, 64, 56
1, 840720, Control_c, 0, 64, 60
1, 840735, Control_c, 0, 64, 63
1, 840743, Note_off_c, 0, 71, 48
1, 840747, Note_off_c, 0, 56, 32
1, 840750, Control_c, 0, 64, 66
1, 840765, Control_c, 0, 64, 68
1, 840780, Control_c, 0, 64, 69
1, 840786, Note_on_c, 0, 83, 59
1, 840788, Note_off_c, 0, 59, 34
1, 840795, Control_c, 0, 64, 70
1, 840798, Note_on_c, 0, 52, 39
1, 840810, Note_off_c, 0, 64, 38
1, 840810, Control_c, 0, 64, 69
1, 840824, Control_c, 0, 64, 67
1, 840839, Control_c, 0, 64, 61
1, 840854, Control_c, 0, 64, 52
1, 840869, Control_c, 0, 64, 44
1, 840876, Note_off_c, 0, 83, 57
1, 840877, Note_on_c, 0, 80, 57
1, 840884, Control_c, 0, 64, 46
1, 840899, Control_c, 0, 64, 53
1, 840914, Control_c, 0, 64, 60
1, 840928, Control_c, 0, 64, 63
1, 840936, Note_off_c, 0, 52, 60
1, 840944, Control_c, 0, 64, 67
1, 840959, Control_c, 0, 64, 70
1, 840966, Note_off_c, 0, 80, 62
1, 840974, Control_c, 0, 64, 74
1, 840983, Note_on_c, 0, 72, 54
1, 840988, Control_c, 0, 64, 77
1, 841003, Control_c, 0, 64, 80
1, 841018, Control_c, 0, 64, 83
1, 841033, Control_c, 0, 64, 84
1, 841047, Note_off_c, 0, 72, 41
1, 841048, Control_c, 0, 64, 85
1, 841099, Note_on_c, 0, 84, 58
1, 841159, Note_off_c, 0, 84, 52
1, 841208, Note_on_c, 0, 80, 49
1, 841225, Control_c, 0, 64, 85
1, 841230, Note_off_c, 0, 80, 64
1, 841255, Control_c, 0, 64, 84
1, 841269, Control_c, 0, 64, 84
1, 841284, Control_c, 0, 64, 83
1, 841299, Control_c, 0, 64, 83
1, 841314, Control_c, 0, 64, 82
1, 841343, Control_c, 0, 64, 81
1, 841358, Control_c, 0, 64, 80
1, 841370, Note_on_c, 0, 35, 37
1, 841373, Control_c, 0, 64, 77
1, 841388, Control_c, 0, 64, 70
1, 841403, Control_c, 0, 64, 62
1, 841425, Control_c, 0, 64, 50
1, 841431, Note_on_c, 0, 83, 59
1, 841440, Control_c, 0, 64, 36
1, 841455, Control_c, 0, 64, 29
1, 841469, Control_c, 0, 64, 32
1, 841484, Control_c, 0, 64, 38
1, 841499, Control_c, 0, 64, 47
1, 841514, Control_c, 0, 64, 55
1, 841529, Control_c, 0, 64, 61
1, 841543, Control_c, 0, 64, 64
1, 841558, Control_c, 0, 64, 67
1, 841559, Note_on_c, 0, 42, 26
1, 841573, Control_c, 0, 64, 68
1, 841588, Control_c, 0, 64, 70
1, 841600, Note_on_c, 0, 84, 45
1, 841602, Control_c, 0, 64, 71
1, 841617, Control_c, 0, 64, 72
1, 841632, Control_c, 0, 64, 73
1, 841635, Note_off_c, 0, 83, 39
1, 841642, Note_off_c, 0, 35, 40
1, 841647, Control_c, 0, 64, 74
1, 841684, Note_off_c, 0, 42, 50
1, 841685, Note_off_c, 0, 84, 62
1, 841693, Note_on_c, 0, 87, 68
1, 841731, Note_on_c, 0, 47, 37
1, 841783, Note_off_c, 0, 47, 57
1, 841795, Note_on_c, 0, 85, 59
1, 841821, Note_off_c, 0, 87, 61
1, 841845, Note_off_c, 0, 85, 65
1, 841871, Note_on_c, 0, 81, 61
1, 841889, Note_on_c, 0, 51, 41
1, 841906, Note_off_c, 0, 81, 58
1, 841945, Note_on_c, 0, 78, 65
1, 841974, Control_c, 0, 64, 73
1, 841986, Note_off_c, 0, 51, 50
1, 842004, Control_c, 0, 64, 73
1, 842015, Note_on_c, 0, 54, 22
1, 842020, Note_on_c, 0, 75, 62
1, 842039, Note_off_c, 0, 78, 62
1, 842048, Control_c, 0, 64, 72
1, 842064, Note_off_c, 0, 75, 62
1, 842078, Control_c, 0, 64, 72
1, 842088, Note_on_c, 0, 76, 64
1, 842097, Note_off_c, 0, 54, 45
1, 842103, Note_on_c, 0, 57, 48
1, 842122, Control_c, 0, 64, 71
1, 842152, Note_off_c, 0, 57, 63
1, 842152, Control_c, 0, 64, 71
1, 842170, Note_on_c, 0, 77, 62
1, 842171, Note_off_c, 0, 76, 60
1, 842174, Control_c, 0, 64, 70
1, 842218, Note_on_c, 0, 59, 38
1, 842228, Note_off_c, 0, 77, 63
1, 842239, Note_on_c, 0, 80, 66
1, 842246, Note_off_c, 0, 59, 53
1, 842278, Control_c, 0, 64, 70
1, 842304, Note_on_c, 0, 78, 69
1, 842337, Control_c, 0, 64, 69
1, 842342, Note_off_c, 0, 80, 59
1, 842349, Note_on_c, 0, 63, 39
1, 842378, Note_on_c, 0, 75, 62
1, 842385, Note_off_c, 0, 63, 57
1, 842396, Control_c, 0, 64, 69
1, 842397, Note_off_c, 0, 78, 62
1, 842413, Note_off_c, 0, 75, 63
1, 842425, Control_c, 0, 64, 68
1, 842440, Control_c, 0, 64, 68
1, 842441, Note_on_c, 0, 69, 61
1, 842455, Control_c, 0, 64, 67
1, 842485, Control_c, 0, 64, 67
1, 842491, Note_off_c, 0, 69, 60
1, 842500, Control_c, 0, 64, 66
1, 842515, Note_on_c, 0, 70, 72
1, 842515, Control_c, 0, 64, 66
1, 842530, Control_c, 0, 64, 65
1, 842545, Control_c, 0, 64, 65
1, 842558, Note_off_c, 0, 70, 60
1, 842560, Control_c, 0, 64, 64
1, 842575, Control_c, 0, 64, 63
1, 842586, Note_on_c, 0, 71, 71
1, 842589, Control_c, 0, 64, 63
1, 842604, Control_c, 0, 64, 62
1, 842619, Control_c, 0, 64, 61
1, 842634, Control_c, 0, 64, 60
1, 842649, Control_c, 0, 64, 58
1, 842652, Note_off_c, 0, 71, 61
1, 842658, Note_on_c, 0, 72, 70
1, 842664, Control_c, 0, 64, 57
1, 842679, Control_c, 0, 64, 55
1, 842693, Control_c, 0, 64, 53
1, 842708, Control_c, 0, 64, 50
1, 842716, Note_off_c, 0, 72, 64
1, 842723, Control_c, 0, 64, 47
1, 842723, Note_on_c, 0, 75, 74
1, 842738, Control_c, 0, 64, 42
1, 842753, Control_c, 0, 64, 34
1, 842768, Control_c, 0, 64, 0
1, 842799, Note_on_c, 0, 73, 66
1, 842820, Note_off_c, 0, 75, 63
1, 842864, Note_on_c, 0, 70, 57
1, 842876, Note_off_c, 0, 73, 63
1, 842888, Note_off_c, 0, 70, 61
1, 842938, Note_on_c, 0, 66, 57
1, 842961, Note_off_c, 0, 66, 63
1, 843004, Note_on_c, 0, 63, 64
1, 843040, Note_off_c, 0, 63, 62
1, 843081, Note_on_c, 0, 64, 61
1, 843148, Note_off_c, 0, 64, 58
1, 843152, Note_on_c, 0, 65, 64
1, 843196, Note_off_c, 0, 65, 62
1, 843217, Note_on_c, 0, 68, 63
1, 843284, Note_on_c, 0, 66, 56
1, 843305, Note_off_c, 0, 68, 58
1, 843340, Note_on_c, 0, 63, 56
1, 843372, Note_off_c, 0, 66, 60
1, 843397, Note_on_c, 0, 57, 55
1, 843405, Note_off_c, 0, 63, 60
1, 843448, Note_off_c, 0, 57, 60
1, 843486, Note_on_c, 0, 58, 50
1, 843537, Note_on_c, 0, 59, 50
1, 843540, Note_off_c, 0, 58, 55
1, 843595, Note_off_c, 0, 59, 64
1, 843603, Note_on_c, 0, 60, 55
1, 843647, Note_off_c, 0, 60, 65
1, 843692, Note_on_c, 0, 61, 58
1, 843731, Note_off_c, 0, 61, 63
1, 843752, Note_on_c, 0, 66, 56
1, 843817, Note_off_c, 0, 66, 54
1, 843821, Note_on_c, 0, 69, 53
1, 843859, Note_off_c, 0, 69, 64
1, 843889, Note_on_c, 0, 63, 54
1, 843951, Note_on_c, 0, 64, 54
1, 843969, Note_off_c, 0, 63, 58
1, 844001, Note_off_c, 0, 64, 62
1, 844021, Note_on_c, 0, 65, 56
1, 844059, Note_off_c, 0, 65, 66
1, 844076, Note_on_c, 0, 66, 54
1, 844135, Note_off_c, 0, 66, 56
1, 844142, Note_on_c, 0, 69, 56
1, 844187, Note_off_c, 0, 69, 59
1, 844208, Note_on_c, 0, 73, 59
1, 844273, Note_on_c, 0, 68, 61
1, 844273, Note_off_c, 0, 73, 60
1, 844347, Note_on_c, 0, 69, 50
1, 844350, Note_off_c, 0, 68, 60
1, 844383, Note_off_c, 0, 69, 65
1, 844418, Note_on_c, 0, 72, 54
1, 844477, Note_off_c, 0, 72, 51
1, 844494, Note_on_c, 0, 73, 61
1, 844533, Note_off_c, 0, 73, 63
1, 844575, Note_on_c, 0, 77, 45
1, 844613, Note_off_c, 0, 77, 62
1, 844627, Note_on_c, 0, 78, 57
1, 844694, Note_on_c, 0, 80, 65
1, 844706, Note_off_c, 0, 78, 61
1, 844722, Note_off_c, 0, 80, 67
1, 844769, Note_on_c, 0, 81, 59
1, 844809, Note_off_c, 0, 81, 57
1, 844825, Note_on_c, 0, 85, 54
1, 844849, Note_on_c, 0, 64, 49
1, 844874, Note_on_c, 0, 73, 52
1, 844878, Note_on_c, 0, 69, 39
1, 844896, Note_off_c, 0, 64, 62
1, 844906, Note_off_c, 0, 85, 54
1, 844924, Note_on_c, 0, 81, 63
1, 844926, Note_on_c, 0, 88, 68
1, 844929, Note_off_c, 0, 69, 48
1, 844932, Note_off_c, 0, 73, 58
1, 844934, Note_on_c, 0, 76, 48
1, 844943, Note_off_c, 0, 81, 67
1, 844950, Note_off_c, 0, 88, 70
1, 844958, Note_off_c, 0, 76, 55
1, 845107, Note_on_c, 0, 85, 36
1, 845114, Note_on_c, 0, 80, 17
1, 845127, Note_on_c, 0, 61, 33
1, 845135, Note_off_c, 0, 85, 56
1, 845135, Note_on_c, 0, 69, 49
1, 845140, Note_off_c, 0, 80, 49
1, 845166, Note_off_c, 0, 61, 51
1, 845180, Note_on_c, 0, 78, 65
1, 845189, Note_off_c, 0, 69, 59
1, 845202, Note_on_c, 0, 88, 68
1, 845209, Note_off_c, 0, 78, 67
1, 845210, Note_on_c, 0, 81, 57
1, 845230, Note_off_c, 0, 81, 61
1, 845230, Note_off_c, 0, 88, 66
1, 845346, Note_on_c, 0, 64, 48
1, 845377, Note_off_c, 0, 64, 62
1, 845379, Note_on_c, 0, 73, 58
1, 845412, Note_on_c, 0, 76, 66
1, 845439, Note_off_c, 0, 76, 68
1, 845442, Note_on_c, 0, 88, 66
1, 845444, Note_on_c, 0, 81, 55
1, 845445, Note_off_c, 0, 73, 61
1, 845464, Poly_aftertouch_c, 0, 69, 0
1, 845464, Note_off_c, 0, 81, 61
1, 845470, Note_off_c, 0, 88, 66
1, 845546, Note_on_c, 0, 85, 57
1, 845556, Note_on_c, 0, 80, 45
1, 845569, Note_off_c, 0, 85, 63
1, 845582, Note_off_c, 0, 80, 55
1, 845582, Note_on_c, 0, 61, 51
1, 845606, Note_on_c, 0, 69, 45
1, 845615, Note_off_c, 0, 61, 53
1, 845641, Note_on_c, 0, 78, 70
1, 845655, Note_off_c, 0, 69, 60
1, 845662, Note_on_c, 0, 88, 72
1, 845667, Note_on_c, 0, 81, 60
1, 845671, Note_off_c, 0, 78, 64
1, 845686, Note_off_c, 0, 81, 63
1, 845696, Note_off_c, 0, 88, 63
1, 845764, Note_on_c, 0, 85, 62
1, 845774, Note_on_c, 0, 80, 55
1, 845786, Note_off_c, 0, 85, 66
1, 845794, Note_off_c, 0, 80, 62
1, 845809, Note_on_c, 0, 64, 55
1, 845825, Note_on_c, 0, 69, 44
1, 845850, Note_off_c, 0, 69, 53
1, 845865, Note_on_c, 0, 76, 76
1, 845878, Note_on_c, 0, 88, 75
1, 845882, Note_on_c, 0, 81, 70
1, 845897, Note_off_c, 0, 76, 62
1, 845913, Note_off_c, 0, 81, 68
1, 845925, Note_off_c, 0, 88, 62
1, 845987, Note_on_c, 0, 75, 72
1, 845999, Note_on_c, 0, 85, 58
1, 846000, Note_on_c, 0, 80, 61
1, 846011, Note_off_c, 0, 75, 67
1, 846019, Note_off_c, 0, 80, 64
1, 846021, Note_off_c, 0, 85, 65
1, 846100, Note_on_c, 0, 73, 78
1, 846104, Note_on_c, 0, 88, 74
1, 846105, Note_on_c, 0, 81, 71
1, 846125, Note_off_c, 0, 73, 64
1, 846130, Note_off_c, 0, 81, 67
1, 846138, Note_off_c, 0, 88, 64
1, 846204, Note_on_c, 0, 75, 73
1, 846209, Note_on_c, 0, 80, 66
1, 846209, Note_on_c, 0, 85, 64
1, 846236, Note_off_c, 0, 80, 67
1, 846238, Note_off_c, 0, 85, 68
1, 846247, Note_off_c, 0, 75, 54
1, 846321, Note_on_c, 0, 76, 75
1, 846322, Note_on_c, 0, 81, 79
1, 846325, Note_on_c, 0, 88, 80
1, 846333, Control_c, 0, 64, 50
1, 846342, Note_off_c, 0, 64, 57
1, 846347, Note_off_c, 0, 81, 67
1, 846348, Control_c, 0, 64, 63
1, 846360, Note_off_c, 0, 76, 59
1, 846363, Control_c, 0, 64, 69
1, 846378, Control_c, 0, 64, 72
1, 846378, Note_off_c, 0, 88, 62
1, 846393, Control_c, 0, 64, 74
1, 846423, Note_on_c, 0, 85, 72
1, 846435, Note_on_c, 0, 80, 60
1, 846454, Note_off_c, 0, 85, 62
1, 846457, Note_off_c, 0, 80, 62
1, 846482, Control_c, 0, 64, 74
1, 846497, Control_c, 0, 64, 72
1, 846511, Control_c, 0, 64, 65
1, 846527, Control_c, 0, 64, 51
1, 846539, Note_on_c, 0, 81, 75
1, 846542, Control_c, 0, 64, 0
1, 846544, Note_on_c, 0, 73, 56
1, 846545, Note_on_c, 0, 63, 57
1, 846548, Note_on_c, 0, 66, 50
1, 846554, Note_on_c, 0, 78, 42
1, 846563, Note_off_c, 0, 81, 68
1, 846571, Note_off_c, 0, 73, 58
1, 846572, Note_off_c, 0, 66, 61
1, 846581, Note_off_c, 0, 63, 62
1, 846582, Note_off_c, 0, 78, 51
1, 846640, Note_on_c, 0, 85, 77
1, 846673, Note_off_c, 0, 85, 66
1, 846763, Note_on_c, 0, 83, 81
1, 846764, Note_on_c, 0, 71, 54
1, 846767, Note_on_c, 0, 68, 52
1, 846772, Note_on_c, 0, 64, 39
1, 846773, Note_on_c, 0, 80, 60
1, 846786, Note_off_c, 0, 71, 62
1, 846789, Note_off_c, 0, 68, 61
1, 846795, Note_off_c, 0, 80, 61
1, 846801, Note_off_c, 0, 64, 47
1, 846844, Note_off_c, 0, 83, 61
1, 846867, Note_on_c, 0, 76, 73
1, 846889, Note_off_c, 0, 76, 69
1, 846970, Note_on_c, 0, 61, 62
1, 846972, Note_on_c, 0, 78, 67
1, 846980, Note_on_c, 0, 75, 64
1, 846983, Note_on_c, 0, 69, 37
1, 846987, Note_on_c, 0, 66, 37
1, 847000, Note_off_c, 0, 61, 63
1, 847007, Note_off_c, 0, 75, 66
1, 847009, Note_off_c, 0, 78, 54
1, 847014, Note_off_c, 0, 69, 46
1, 847015, Note_off_c, 0, 66, 45
1, 847073, Note_on_c, 0, 81, 75
1, 847107, Note_off_c, 0, 81, 59
1, 847182, Note_on_c, 0, 80, 69
1, 847186, Note_on_c, 0, 76, 70
1, 847187, Note_on_c, 0, 68, 54
1, 847191, Note_on_c, 0, 59, 44
1, 847191, Note_on_c, 0, 64, 49
1, 847212, Note_off_c, 0, 68, 58
1, 847213, Note_off_c, 0, 64, 61
1, 847213, Note_off_c, 0, 76, 67
1, 847215, Note_off_c, 0, 59, 60
1, 847216, Note_off_c, 0, 80, 59
1, 847295, Note_on_c, 0, 71, 56
1, 847338, Note_off_c, 0, 71, 61
1, 847385, Note_on_c, 0, 57, 45
1, 847386, Note_on_c, 0, 75, 62
1, 847395, Note_on_c, 0, 73, 55
1, 847421, Note_off_c, 0, 57, 54
1, 847422, Note_off_c, 0, 75, 64
1, 847424, Note_off_c, 0, 73, 64
1, 847478, Poly_aftertouch_c, 0, 63, 0
1, 847499, Note_on_c, 0, 78, 64
1, 847525, Note_off_c, 0, 78, 67
1, 847607, Note_on_c, 0, 64, 50
1, 847608, Note_on_c, 0, 56, 54
1, 847608, Note_on_c, 0, 76, 73
1, 847612, Note_on_c, 0, 59, 46
1, 847630, Note_off_c, 0, 64, 63
1, 847636, Note_off_c, 0, 59, 60
1, 847641, Note_off_c, 0, 56, 63
1, 847712, Note_off_c, 0, 76, 48
1, 847713, Note_on_c, 0, 71, 60
1, 847800, Note_off_c, 0, 71, 59
1, 847810, Note_on_c, 0, 68, 63
1, 847850, Note_off_c, 0, 68, 62
1, 847916, Note_on_c, 0, 64, 61
1, 847945, Note_off_c, 0, 64, 66
1, 848022, Note_on_c, 0, 64, 54
1, 848041, Note_off_c, 0, 64, 63
1, 848116, Note_on_c, 0, 64, 59
1, 848125, Note_on_c, 0, 42, 50
1, 848158, Note_off_c, 0, 64, 65
1, 848188, Note_on_c, 0, 49, 43
1, 848208, Note_off_c, 0, 42, 56
1, 848222, Note_on_c, 0, 57, 68
1, 848226, Note_on_c, 0, 64, 55
1, 848231, Note_on_c, 0, 68, 63
1, 848233, Note_off_c, 0, 49, 61
1, 848250, Note_off_c, 0, 64, 65
1, 848253, Note_off_c, 0, 57, 67
1, 848258, Note_off_c, 0, 68, 66
1, 848328, Note_on_c, 0, 63, 58
1, 848361, Note_off_c, 0, 63, 65
1, 848433, Note_on_c, 0, 63, 62
1, 848440, Note_on_c, 0, 51, 51
1, 848450, Note_on_c, 0, 68, 54
1, 848462, Note_off_c, 0, 63, 66
1, 848472, Note_off_c, 0, 51, 63
1, 848478, Note_off_c, 0, 68, 62
1, 848539, Note_on_c, 0, 61, 54
1, 848575, Note_on_c, 0, 42, 47
1, 848576, Note_off_c, 0, 61, 63
1, 848617, Note_off_c, 0, 42, 62
1, 848624, Note_on_c, 0, 49, 46
1, 848647, Note_on_c, 0, 64, 56
1, 848652, Note_off_c, 0, 49, 61
1, 848658, Note_on_c, 0, 68, 57
1, 848661, Note_on_c, 0, 57, 39
1, 848677, Note_off_c, 0, 64, 66
1, 848688, Note_off_c, 0, 68, 65
1, 848692, Note_off_c, 0, 57, 56
1, 848751, Note_on_c, 0, 63, 59
1, 848782, Note_off_c, 0, 63, 66
1, 848858, Note_on_c, 0, 47, 39
1, 848860, Note_on_c, 0, 63, 58
1, 848861, Note_on_c, 0, 51, 48
1, 848873, Note_on_c, 0, 68, 52
1, 848878, Note_on_c, 0, 57, 5
1, 848885, Note_off_c, 0, 47, 50
1, 848888, Note_off_c, 0, 63, 63
1, 848891, Note_off_c, 0, 51, 60
1, 848906, Note_off_c, 0, 68, 59
1, 848913, Control_c, 0, 67, 120
1, 848930, Control_c, 0, 67, 114
1, 848944, Note_off_c, 0, 57, 51
1, 848944, Control_c, 0, 67, 107
1, 848959, Control_c, 0, 67, 102
1, 848968, Note_on_c, 0, 61, 58
1, 848974, Control_c, 0, 67, 97
1, 848989, Control_c, 0, 67, 92
1, 849001, Note_off_c, 0, 61, 64
1, 849003, Control_c, 0, 67, 87
1, 849010, Note_on_c, 0, 44, 50
1, 849018, Control_c, 0, 67, 74
1, 849033, Control_c, 0, 67, 50
1, 849048, Note_on_c, 0, 51, 51
1, 849048, Control_c, 0, 67, 0
1, 849050, Note_off_c, 0, 44, 65
1, 849079, Note_on_c, 0, 66, 70
1, 849080, Note_on_c, 0, 59, 62
1, 849082, Note_on_c, 0, 70, 75
1, 849083, Note_off_c, 0, 51, 63
1, 849105, Note_off_c, 0, 66, 68
1, 849105, Note_off_c, 0, 70, 67
1, 849109, Note_off_c, 0, 59, 64
1, 849180, Note_on_c, 0, 65, 70
1, 849210, Note_off_c, 0, 65, 63
1, 849284, Note_on_c, 0, 65, 74
1, 849292, Note_on_c, 0, 49, 51
1, 849293, Note_on_c, 0, 70, 73
1, 849294, Note_on_c, 0, 59, 45
1, 849309, Note_on_c, 0, 53, 21
1, 849315, Note_off_c, 0, 65, 64
1, 849319, Note_off_c, 0, 49, 61
1, 849320, Note_off_c, 0, 59, 54
1, 849321, Note_off_c, 0, 70, 63
1, 849355, Note_off_c, 0, 53, 37
1, 849388, Note_on_c, 0, 63, 70
1, 849415, Note_off_c, 0, 63, 66
1, 849439, Note_on_c, 0, 44, 54
1, 849478, Note_off_c, 0, 44, 65
1, 849480, Note_on_c, 0, 51, 53
1, 849492, Note_on_c, 0, 66, 73
1, 849499, Note_on_c, 0, 70, 74
1, 849502, Note_on_c, 0, 59, 52
1, 849508, Note_off_c, 0, 51, 63
1, 849515, Note_off_c, 0, 66, 68
1, 849523, Note_off_c, 0, 70, 66
1, 849529, Note_off_c, 0, 59, 61
1, 849592, Note_on_c, 0, 65, 74
1, 849624, Note_off_c, 0, 65, 63
1, 849698, Note_on_c, 0, 53, 50
1, 849710, Note_on_c, 0, 49, 48
1, 849710, Note_on_c, 0, 65, 67
1, 849714, Note_on_c, 0, 70, 64
1, 849724, Note_off_c, 0, 53, 56
1, 849731, Note_off_c, 0, 65, 67
1, 849737, Note_off_c, 0, 70, 65
1, 849738, Note_off_c, 0, 49, 60
1, 849767, Control_c, 0, 67, 21
1, 849782, Control_c, 0, 67, 29
1, 849797, Control_c, 0, 67, 39
1, 849804, Note_on_c, 0, 63, 71
1, 849812, Control_c, 0, 67, 53
1, 849826, Control_c, 0, 67, 71
1, 849829, Note_off_c, 0, 63, 69
1, 849841, Control_c, 0, 67, 86
1, 849856, Control_c, 0, 67, 102
1, 849871, Control_c, 0, 67, 116
1, 849886, Control_c, 0, 67, 127
1, 849949, Note_on_c, 0, 61, 58
1, 849956, Note_on_c, 0, 37, 45
1, 849959, Control_c, 0, 64, 32
1, 849974, Control_c, 0, 64, 53
1, 849989, Control_c, 0, 64, 64
1, 850004, Control_c, 0, 64, 69
1, 850019, Note_off_c, 0, 37, 60
1, 850019, Control_c, 0, 64, 74
1, 850033, Control_c, 0, 64, 79
1, 850035, Poly_aftertouch_c, 0, 49, 127
1, 850048, Control_c, 0, 64, 82
1, 850063, Control_c, 0, 64, 83
1, 850067, Poly_aftertouch_c, 0, 49, 0
1, 850078, Control_c, 0, 64, 83
1, 850079, Note_off_c, 0, 61, 56
1, 850092, Note_on_c, 0, 73, 60
1, 850119, Note_off_c, 0, 73, 67
1, 850137, Control_c, 0, 64, 83
1, 850182, Control_c, 0, 64, 81
1, 850196, Control_c, 0, 64, 76
1, 850211, Control_c, 0, 64, 67
1, 850214, Note_on_c, 0, 73, 73
1, 850225, Note_on_c, 0, 54, 40
1, 850226, Control_c, 0, 64, 52
1, 850241, Control_c, 0, 64, 31
1, 850253, Note_off_c, 0, 54, 60
1, 850256, Control_c, 0, 64, 0
1, 850305, Note_off_c, 0, 73, 60
1, 850322, Note_on_c, 0, 63, 69
1, 850356, Note_off_c, 0, 63, 62
1, 850438, Note_on_c, 0, 47, 41
1, 850449, Note_on_c, 0, 63, 67
1, 850465, Note_off_c, 0, 47, 51
1, 850521, Note_off_c, 0, 63, 62
1, 850664, Note_on_c, 0, 59, 52
1, 850673, Note_on_c, 0, 66, 45
1, 850673, Note_on_c, 0, 75, 70
1, 850685, Note_off_c, 0, 59, 62
1, 850698, Note_off_c, 0, 66, 54
1, 850698, Note_off_c, 0, 75, 68
1, 850762, Note_on_c, 0, 75, 77
1, 850787, Note_off_c, 0, 75, 64
1, 850875, Note_on_c, 0, 75, 80
1, 850899, Note_on_c, 0, 63, 37
1, 850903, Note_on_c, 0, 55, 36
1, 850918, Note_off_c, 0, 75, 62
1, 850921, Note_on_c, 0, 76, 76
1, 850932, Note_off_c, 0, 63, 48
1, 850933, Note_off_c, 0, 55, 47
1, 850966, Note_on_c, 0, 75, 65
1, 850984, Note_off_c, 0, 76, 62
1, 851010, Note_on_c, 0, 73, 78
1, 851017, Note_off_c, 0, 75, 64
1, 851052, Note_on_c, 0, 75, 70
1, 851067, Note_off_c, 0, 73, 64
1, 851081, Note_on_c, 0, 52, 55
1, 851087, Note_on_c, 0, 59, 59
1, 851091, Note_off_c, 0, 75, 64
1, 851113, Note_off_c, 0, 52, 64
1, 851118, Note_off_c, 0, 59, 65
1, 851187, Note_on_c, 0, 80, 82
1, 851223, Note_off_c, 0, 80, 63
1, 851303, Note_on_c, 0, 75, 71
1, 851308, Note_on_c, 0, 49, 44
1, 851330, Note_off_c, 0, 75, 67
1, 851333, Note_on_c, 0, 56, 3
1, 851337, Note_off_c, 0, 49, 58
1, 851368, Note_off_c, 0, 56, 28
1, 851407, Note_on_c, 0, 73, 77
1, 851439, Note_off_c, 0, 73, 63
1, 851500, Note_on_c, 0, 45, 49
1, 851517, Note_on_c, 0, 73, 57
1, 851523, Note_on_c, 0, 52, 19
1, 851526, Note_off_c, 0, 45, 58
1, 851541, Note_off_c, 0, 73, 64
1, 851542, Note_on_c, 0, 75, 71
1, 851571, Note_off_c, 0, 52, 37
1, 851586, Note_on_c, 0, 73, 66
1, 851592, Note_off_c, 0, 75, 64
1, 851602, Note_off_c, 0, 73, 67
1, 851612, Note_on_c, 0, 68, 79
1, 851643, Note_off_c, 0, 68, 66
1, 851647, Note_on_c, 0, 42, 44
1, 851660, Note_on_c, 0, 49, 63
1, 851688, Note_off_c, 0, 42, 62
1, 851704, Note_off_c, 0, 49, 63
1, 851718, Note_on_c, 0, 64, 74
1, 851719, Note_on_c, 0, 68, 72
1, 851722, Note_on_c, 0, 57, 51
1, 851746, Note_off_c, 0, 64, 62
1, 851749, Note_off_c, 0, 57, 61
1, 851752, Note_off_c, 0, 68, 61
1, 851829, Note_on_c, 0, 63, 65
1, 851858, Note_off_c, 0, 63, 66
1, 851922, Note_on_c, 0, 47, 46
1, 851931, Note_on_c, 0, 51, 53
1, 851945, Note_on_c, 0, 63, 69
1, 851949, Note_off_c, 0, 47, 62
1, 851964, Note_off_c, 0, 51, 64
1, 851966, Note_on_c, 0, 68, 52
1, 851973, Note_off_c, 0, 63, 67
1, 851988, Note_off_c, 0, 68, 64
1, 852039, Note_on_c, 0, 61, 65
1, 852074, Note_off_c, 0, 61, 61
1, 852082, Note_on_c, 0, 42, 56
1, 852119, Note_off_c, 0, 42, 64
1, 852123, Note_on_c, 0, 49, 52
1, 852146, Note_on_c, 0, 64, 62
1, 852148, Note_on_c, 0, 57, 61
1, 852153, Note_off_c, 0, 49, 64
1, 852155, Note_on_c, 0, 68, 63
1, 852174, Note_off_c, 0, 64, 67
1, 852184, Note_off_c, 0, 57, 64
1, 852184, Note_off_c, 0, 68, 66
1, 852244, Note_on_c, 0, 63, 68
1, 852274, Note_off_c, 0, 63, 65
1, 852349, Note_on_c, 0, 51, 40
1, 852350, Note_on_c, 0, 47, 50
1, 852361, Note_on_c, 0, 68, 60
1, 852364, Note_on_c, 0, 63, 55
1, 852375, Note_off_c, 0, 47, 59
1, 852378, Note_off_c, 0, 51, 54
1, 852394, Note_off_c, 0, 68, 63
1, 852397, Note_off_c, 0, 63, 65
1, 852456, Note_on_c, 0, 61, 57
1, 852488, Note_off_c, 0, 61, 63
1, 852567, Note_on_c, 0, 47, 59
1, 852569, Note_on_c, 0, 35, 64
1, 852595, Note_off_c, 0, 47, 66
1, 852601, Note_off_c, 0, 35, 63
1, 852816, Note_on_c, 0, 59, 66
1, 852817, Note_on_c, 0, 47, 69
1, 852841, Note_off_c, 0, 47, 67
1, 852843, Note_off_c, 0, 59, 68
1, 853049, Note_on_c, 0, 35, 61
1, 853055, Note_on_c, 0, 47, 55
1, 853079, Note_off_c, 0, 35, 62
1, 853080, Note_off_c, 0, 47, 60
1, 853272, Note_on_c, 0, 59, 46
1, 853294, Note_off_c, 0, 59, 58
1, 853300, Note_on_c, 0, 45, 23
1, 853340, Note_off_c, 0, 45, 41
1, 853449, Note_on_c, 0, 42, 56
1, 853465, Note_on_c, 0, 49, 58
1, 853484, Note_on_c, 0, 64, 63
1, 853487, Note_off_c, 0, 42, 60
1, 853490, Note_on_c, 0, 68, 66
1, 853498, Note_on_c, 0, 57, 60
1, 853507, Note_off_c, 0, 49, 65
1, 853517, Note_off_c, 0, 64, 63
1, 853526, Note_off_c, 0, 68, 57
1, 853533, Note_off_c, 0, 57, 64
1, 853584, Note_on_c, 0, 63, 68
1, 853619, Note_off_c, 0, 63, 61
1, 853681, Note_on_c, 0, 47, 63
1, 853693, Note_on_c, 0, 68, 72
1, 853702, Note_on_c, 0, 63, 51
1, 853706, Note_on_c, 0, 51, 18
1, 853709, Note_on_c, 0, 57, 28
1, 853716, Note_off_c, 0, 47, 66
1, 853728, Note_off_c, 0, 63, 59
1, 853729, Note_off_c, 0, 68, 61
1, 853752, Note_off_c, 0, 57, 48
1, 853753, Note_off_c, 0, 51, 38
1, 853786, Note_on_c, 0, 61, 67
1, 853839, Note_off_c, 0, 61, 54
1, 853858, Note_on_c, 0, 40, 59
1, 853887, Note_on_c, 0, 47, 23
1, 853893, Note_on_c, 0, 62, 69
1, 853897, Note_on_c, 0, 55, 72
1, 853904, Note_on_c, 0, 66, 66
1, 853905, Note_off_c, 0, 40, 61
1, 853916, Note_off_c, 0, 47, 47
1, 853933, Note_off_c, 0, 62, 64
1, 853934, Note_off_c, 0, 55, 60
1, 853934, Note_off_c, 0, 66, 62
1, 853996, Note_on_c, 0, 61, 70
1, 854032, Note_off_c, 0, 61, 59
1, 854090, Note_on_c, 0, 45, 60
1, 854097, Note_on_c, 0, 49, 58
1, 854101, Note_on_c, 0, 61, 67
1, 854108, Note_on_c, 0, 66, 54
1, 854122, Note_off_c, 0, 45, 63
1, 854127, Note_off_c, 0, 49, 65
1, 854146, Note_off_c, 0, 66, 63
1, 854159, Note_off_c, 0, 61, 57
1, 854209, Note_on_c, 0, 59, 52
1, 854243, Note_off_c, 0, 59, 63
1, 854313, Note_on_c, 0, 33, 68
1, 854313, Note_on_c, 0, 45, 59
1, 854343, Note_off_c, 0, 33, 64
1, 854345, Note_off_c, 0, 45, 64
1, 854552, Note_on_c, 0, 45, 72
1, 854555, Note_on_c, 0, 57, 64
1, 854578, Note_off_c, 0, 45, 66
1, 854580, Note_off_c, 0, 57, 65
1, 854772, Note_on_c, 0, 33, 67
1, 854788, Note_on_c, 0, 45, 46
1, 854799, Note_off_c, 0, 33, 65
1, 854817, Note_off_c, 0, 45, 50
1, 855000, Note_on_c, 0, 45, 64
1, 855005, Note_on_c, 0, 57, 59
1, 855036, Note_off_c, 0, 57, 65
1, 855039, Note_off_c, 0, 45, 61
1, 855163, Note_on_c, 0, 40, 59
1, 855207, Note_on_c, 0, 62, 65
1, 855208, Note_off_c, 0, 40, 58
1, 855219, Note_on_c, 0, 55, 59
1, 855231, Note_on_c, 0, 66, 40
1, 855244, Note_off_c, 0, 62, 62
1, 855257, Note_off_c, 0, 66, 52
1, 855258, Note_off_c, 0, 55, 61
1, 855302, Note_on_c, 0, 61, 68
1, 855343, Note_off_c, 0, 61, 59
1, 855406, Note_on_c, 0, 45, 61
1, 855410, Note_on_c, 0, 49, 44
1, 855418, Note_on_c, 0, 66, 56
1, 855419, Note_on_c, 0, 61, 55
1, 855435, Note_off_c, 0, 45, 65
1, 855440, Note_off_c, 0, 49, 54
1, 855456, Note_off_c, 0, 66, 64
1, 855461, Note_off_c, 0, 61, 56
1, 855509, Note_on_c, 0, 59, 58
1, 855542, Note_off_c, 0, 59, 64
1, 855565, Note_on_c, 0, 38, 56
1, 855613, Note_off_c, 0, 38, 63
1, 855615, Note_on_c, 0, 53, 54
1, 855620, Note_on_c, 0, 60, 72
1, 855625, Poly_aftertouch_c, 0, 45, 0
1, 855640, Note_on_c, 0, 64, 60
1, 855663, Note_off_c, 0, 60, 61
1, 855671, Note_off_c, 0, 64, 63
1, 855672, Note_off_c, 0, 53, 57
1, 855726, Note_on_c, 0, 59, 56
1, 855755, Note_off_c, 0, 59, 67
1, 855827, Note_on_c, 0, 47, 52
1, 855835, Note_on_c, 0, 59, 60
1, 855837, Note_on_c, 0, 43, 40
1, 855855, Note_off_c, 0, 47, 63
1, 855864, Note_on_c, 0, 64, 13
1, 855872, Note_off_c, 0, 43, 45
1, 855899, Note_off_c, 0, 64, 40
1, 855911, Note_off_c, 0, 59, 43
1, 855926, Note_on_c, 0, 57, 58
1, 855956, Note_off_c, 0, 57, 65
1, 856038, Note_on_c, 0, 31, 61
1, 856050, Note_on_c, 0, 43, 43
1, 856072, Note_off_c, 0, 31, 63
1, 856082, Note_off_c, 0, 43, 48
1, 856282, Note_on_c, 0, 55, 58
1, 856308, Note_off_c, 0, 55, 63
1, 856315, Note_on_c, 0, 41, 17
1, 856348, Note_off_c, 0, 41, 40
1, 856482, Note_on_c, 0, 38, 9
1, 856508, Note_on_c, 0, 53, 52
1, 856515, Note_on_c, 0, 60, 57
1, 856524, Note_on_c, 0, 64, 51
1, 856535, Note_off_c, 0, 38, 40
1, 856538, Note_off_c, 0, 60, 59
1, 856547, Note_off_c, 0, 53, 63
1, 856551, Note_off_c, 0, 64, 59
1, 856609, Note_on_c, 0, 59, 51
1, 856639, Note_off_c, 0, 59, 62
1, 856704, Note_on_c, 0, 43, 54
1, 856719, Note_on_c, 0, 47, 35
1, 856721, Note_on_c, 0, 64, 42
1, 856722, Note_on_c, 0, 59, 47
1, 856734, Note_off_c, 0, 43, 64
1, 856751, Note_off_c, 0, 47, 45
1, 856751, Note_off_c, 0, 64, 52
1, 856797, Note_off_c, 0, 59, 33
1, 856804, Note_on_c, 0, 57, 52
1, 856842, Note_off_c, 0, 57, 62
1, 856921, Note_on_c, 0, 31, 56
1, 856933, Note_on_c, 0, 43, 43
1, 856951, Note_off_c, 0, 31, 58
1, 856965, Note_off_c, 0, 43, 47
1, 857169, Note_on_c, 0, 55, 56
1, 857195, Note_on_c, 0, 41, 35
1, 857199, Note_off_c, 0, 55, 63
1, 857228, Note_off_c, 0, 41, 43
1, 857265, Poly_aftertouch_c, 0, 43, 0
1, 857339, Note_on_c, 0, 38, 43
1, 857365, Note_on_c, 0, 45, 38
1, 857408, Note_on_c, 0, 53, 44
1, 857432, Control_c, 0, 64, 36
1, 857442, Note_on_c, 0, 60, 38
1, 857447, Note_on_c, 0, 64, 42
1, 857447, Control_c, 0, 64, 44
1, 857461, Control_c, 0, 64, 52
1, 857476, Control_c, 0, 64, 56
1, 857491, Control_c, 0, 64, 59
1, 857506, Control_c, 0, 64, 62
1, 857521, Control_c, 0, 64, 63
1, 857535, Control_c, 0, 64, 66
1, 857537, Note_off_c, 0, 38, 43
1, 857550, Control_c, 0, 64, 68
1, 857562, Note_on_c, 0, 59, 39
1, 857565, Control_c, 0, 64, 73
1, 857568, Note_off_c, 0, 60, 64
1, 857580, Control_c, 0, 64, 78
1, 857582, Note_off_c, 0, 45, 41
1, 857594, Note_off_c, 0, 59, 55
1, 857595, Control_c, 0, 64, 85
1, 857610, Control_c, 0, 64, 94
1, 857625, Control_c, 0, 64, 103
1, 857640, Control_c, 0, 64, 114
1, 857655, Control_c, 0, 64, 127
1, 857681, Note_off_c, 0, 53, 34
1, 857701, Note_on_c, 0, 59, 42
1, 857741, Note_off_c, 0, 64, 33
1, 857780, Note_on_c, 0, 57, 51
1, 857786, Note_off_c, 0, 59, 59
1, 857804, Control_c, 0, 64, 114
1, 857807, Note_off_c, 0, 57, 60
1, 857819, Control_c, 0, 64, 108
1, 857834, Control_c, 0, 64, 103
1, 857848, Control_c, 0, 64, 96
1, 857863, Control_c, 0, 64, 86
1, 857875, Note_on_c, 0, 60, 63
1, 857876, Note_on_c, 0, 43, 39
1, 857878, Control_c, 0, 64, 76
1, 857880, Note_on_c, 0, 64, 54
1, 857890, Note_on_c, 0, 53, 39
1, 857900, Control_c, 0, 64, 67
1, 857915, Control_c, 0, 64, 60
1, 857930, Control_c, 0, 64, 56
1, 857945, Control_c, 0, 64, 58
1, 857960, Control_c, 0, 64, 60
1, 857974, Control_c, 0, 64, 62
1, 857989, Control_c, 0, 64, 64
1, 857997, Note_on_c, 0, 59, 51
1, 858004, Control_c, 0, 64, 67
1, 858015, Note_off_c, 0, 60, 62
1, 858018, Control_c, 0, 64, 69
1, 858019, Note_off_c, 0, 43, 54
1, 858033, Control_c, 0, 64, 72
1, 858048, Note_off_c, 0, 59, 62
1, 858048, Control_c, 0, 64, 74
1, 858063, Control_c, 0, 64, 76
1, 858077, Note_off_c, 0, 53, 34
1, 858078, Control_c, 0, 64, 78
1, 858093, Control_c, 0, 64, 80
1, 858108, Control_c, 0, 64, 81
1, 858123, Note_on_c, 0, 59, 25
1, 858123, Control_c, 0, 64, 82
1, 858200, Note_off_c, 0, 64, 37
1, 858219, Note_on_c, 0, 57, 52
1, 858237, Note_on_c, 0, 38, 45
1, 858241, Control_c, 0, 64, 81
1, 858256, Note_off_c, 0, 57, 64
1, 858256, Control_c, 0, 64, 81
1, 858259, Note_off_c, 0, 59, 57
1, 858271, Control_c, 0, 64, 80
1, 858285, Control_c, 0, 64, 78
1, 858300, Control_c, 0, 64, 74
1, 858315, Control_c, 0, 64, 68
1, 858316, Note_on_c, 0, 45, 19
1, 858330, Control_c, 0, 64, 62
1, 858335, Note_on_c, 0, 64, 56
1, 858339, Note_on_c, 0, 60, 56
1, 858345, Control_c, 0, 64, 56
1, 858349, Note_on_c, 0, 53, 47
1, 858359, Control_c, 0, 64, 54
1, 858374, Control_c, 0, 64, 55
1, 858389, Control_c, 0, 64, 57
1, 858404, Control_c, 0, 64, 60
1, 858418, Control_c, 0, 64, 62
1, 858433, Control_c, 0, 64, 64
1, 858448, Control_c, 0, 64, 66
1, 858451, Note_off_c, 0, 38, 54
1, 858453, Note_on_c, 0, 59, 43
1, 858459, Note_off_c, 0, 60, 63
1, 858463, Control_c, 0, 64, 69
1, 858478, Control_c, 0, 64, 72
1, 858489, Note_off_c, 0, 59, 64
1, 858492, Control_c, 0, 64, 74
1, 858507, Control_c, 0, 64, 77
1, 858516, Note_off_c, 0, 45, 41
1, 858522, Control_c, 0, 64, 79
1, 858537, Control_c, 0, 64, 80
1, 858552, Control_c, 0, 64, 82
1, 858562, Note_on_c, 0, 59, 51
1, 858567, Control_c, 0, 64, 83
1, 858572, Note_off_c, 0, 64, 37
1, 858582, Control_c, 0, 64, 83
1, 858597, Control_c, 0, 64, 84
1, 858612, Control_c, 0, 64, 84
1, 858636, Note_off_c, 0, 53, 36
1, 858663, Note_on_c, 0, 57, 52
1, 858672, Note_off_c, 0, 59, 61
1, 858698, Note_off_c, 0, 57, 65
1, 858722, Control_c, 0, 64, 84
1, 858737, Control_c, 0, 64, 82
1, 858752, Control_c, 0, 64, 77
1, 858767, Control_c, 0, 64, 70
1, 858770, Note_on_c, 0, 53, 45
1, 858772, Note_on_c, 0, 60, 55
1, 858775, Note_on_c, 0, 43, 39
1, 858782, Control_c, 0, 64, 63
1, 858783, Note_on_c, 0, 64, 44
1, 858796, Control_c, 0, 64, 57
1, 858811, Control_c, 0, 64, 54
1, 858826, Control_c, 0, 64, 55
1, 858841, Control_c, 0, 64, 57
1, 858856, Control_c, 0, 64, 59
1, 858871, Control_c, 0, 64, 61
1, 858880, Note_on_c, 0, 59, 52
1, 858886, Control_c, 0, 64, 63
1, 858893, Note_off_c, 0, 60, 62
1, 858895, Note_off_c, 0, 43, 54
1, 858901, Control_c, 0, 64, 65
1, 858915, Control_c, 0, 64, 67
1, 858927, Note_off_c, 0, 59, 62
1, 858928, Note_off_c, 0, 53, 50
1, 858930, Control_c, 0, 64, 69
1, 858945, Control_c, 0, 64, 71
1, 858960, Control_c, 0, 64, 72
1, 858975, Control_c, 0, 64, 74
1, 858989, Control_c, 0, 64, 74
1, 858994, Note_on_c, 0, 59, 39
1, 859004, Control_c, 0, 64, 75
1, 859019, Control_c, 0, 64, 76
1, 859065, Note_off_c, 0, 64, 40
1, 859097, Note_on_c, 0, 57, 53
1, 859109, Note_off_c, 0, 59, 61
1, 859114, Note_on_c, 0, 38, 44
1, 859133, Note_off_c, 0, 57, 65
1, 859152, Control_c, 0, 64, 75
1, 859166, Control_c, 0, 64, 74
1, 859181, Control_c, 0, 64, 71
1, 859196, Control_c, 0, 64, 67
1, 859211, Control_c, 0, 64, 62
1, 859220, Note_on_c, 0, 60, 54
1, 859226, Control_c, 0, 64, 58
1, 859227, Note_on_c, 0, 64, 46
1, 859231, Note_on_c, 0, 53, 41
1, 859238, Poly_aftertouch_c, 0, 45, 127
1, 859240, Control_c, 0, 64, 56
1, 859270, Control_c, 0, 64, 57
1, 859285, Control_c, 0, 64, 59
1, 859301, Control_c, 0, 64, 62
1, 859316, Control_c, 0, 64, 64
1, 859330, Control_c, 0, 64, 66
1, 859333, Note_on_c, 0, 59, 47
1, 859342, Note_off_c, 0, 60, 64
1, 859344, Note_off_c, 0, 38, 42
1, 859345, Control_c, 0, 64, 68
1, 859352, Note_off_c, 0, 64, 55
1, 859360, Control_c, 0, 64, 70
1, 859371, Note_off_c, 0, 53, 61
1, 859375, Control_c, 0, 64, 72
1, 859376, Note_off_c, 0, 59, 63
1, 859398, Control_c, 0, 64, 73
1, 859412, Control_c, 0, 64, 74
1, 859427, Control_c, 0, 64, 75
1, 859437, Poly_aftertouch_c, 0, 45, 0
1, 859442, Control_c, 0, 64, 75
1, 859452, Note_on_c, 0, 59, 54
1, 859457, Control_c, 0, 64, 76
1, 859486, Control_c, 0, 64, 76
1, 859527, Note_off_c, 0, 59, 61
1, 859556, Note_on_c, 0, 57, 57
1, 859575, Control_c, 0, 64, 76
1, 859594, Note_off_c, 0, 57, 63
1, 859613, Note_on_c, 0, 39, 36
1, 859619, Control_c, 0, 64, 75
1, 859634, Note_on_c, 0, 44, 37
1, 859634, Control_c, 0, 64, 75
1, 859649, Control_c, 0, 64, 74
1, 859664, Control_c, 0, 64, 73
1, 859679, Control_c, 0, 64, 70
1, 859694, Control_c, 0, 64, 65
1, 859701, Note_on_c, 0, 59, 47
1, 859706, Note_on_c, 0, 54, 41
1, 859708, Control_c, 0, 64, 58
1, 859714, Note_on_c, 0, 63, 54
1, 859723, Control_c, 0, 64, 50
1, 859738, Control_c, 0, 64, 45
1, 859753, Control_c, 0, 64, 46
1, 859768, Control_c, 0, 64, 48
1, 859782, Control_c, 0, 64, 51
1, 859797, Control_c, 0, 64, 55
1, 859812, Control_c, 0, 64, 59
1, 859820, Note_off_c, 0, 59, 62
1, 859827, Control_c, 0, 64, 63
1, 859839, Note_on_c, 0, 58, 49
1, 859842, Control_c, 0, 64, 66
1, 859856, Control_c, 0, 64, 68
1, 859866, Note_off_c, 0, 58, 63
1, 859869, Note_off_c, 0, 54, 60
1, 859871, Control_c, 0, 64, 71
1, 859886, Control_c, 0, 64, 73
1, 859901, Control_c, 0, 64, 75
1, 859916, Control_c, 0, 64, 76
1, 859930, Control_c, 0, 64, 78
1, 859945, Control_c, 0, 64, 79
1, 859960, Control_c, 0, 64, 80
1, 859962, Note_on_c, 0, 58, 51
1, 859975, Control_c, 0, 64, 81
1, 859989, Control_c, 0, 64, 81
1, 860023, Note_off_c, 0, 44, 40
1, 860050, Note_on_c, 0, 56, 55
1, 860057, Note_off_c, 0, 63, 37
1, 860069, Note_off_c, 0, 39, 38
1, 860070, Note_off_c, 0, 58, 50
1, 860078, Control_c, 0, 64, 81
1, 860091, Note_off_c, 0, 56, 58
1, 860124, Control_c, 0, 64, 80
1, 860161, Control_c, 0, 64, 79
1, 860176, Control_c, 0, 64, 77
1, 860186, Note_on_c, 0, 63, 49
1, 860191, Control_c, 0, 64, 73
1, 860197, Note_on_c, 0, 42, 38
1, 860205, Note_on_c, 0, 49, 40
1, 860206, Control_c, 0, 64, 66
1, 860209, Note_on_c, 0, 58, 39
1, 860220, Control_c, 0, 64, 57
1, 860235, Control_c, 0, 64, 44
1, 860250, Control_c, 0, 64, 0
1, 860279, Control_c, 0, 64, 30
1, 860294, Control_c, 0, 64, 35
1, 860308, Note_on_c, 0, 56, 52
1, 860309, Control_c, 0, 64, 44
1, 860323, Note_off_c, 0, 58, 59
1, 860324, Control_c, 0, 64, 54
1, 860339, Control_c, 0, 64, 60
1, 860354, Control_c, 0, 64, 64
1, 860355, Note_off_c, 0, 56, 59
1, 860355, Note_off_c, 0, 63, 44
1, 860368, Control_c, 0, 64, 67
1, 860383, Control_c, 0, 64, 69
1, 860398, Control_c, 0, 64, 71
1, 860401, Note_off_c, 0, 49, 42
1, 860412, Control_c, 0, 64, 72
1, 860418, Note_off_c, 0, 42, 55
1, 860427, Control_c, 0, 64, 73
1, 860439, Note_on_c, 0, 56, 48
1, 860442, Control_c, 0, 64, 74
1, 860457, Control_c, 0, 64, 75
1, 860472, Control_c, 0, 64, 76
1, 860487, Control_c, 0, 64, 77
1, 860501, Control_c, 0, 64, 78
1, 860558, Note_on_c, 0, 54, 48
1, 860580, Note_off_c, 0, 56, 37
1, 860603, Note_off_c, 0, 54, 59
1, 860620, Control_c, 0, 64, 77
1, 860635, Control_c, 0, 64, 77
1, 860650, Control_c, 0, 64, 76
1, 860665, Control_c, 0, 64, 76
1, 860679, Control_c, 0, 64, 75
1, 860694, Control_c, 0, 64, 73
1, 860709, Control_c, 0, 64, 68
1, 860724, Control_c, 0, 64, 62
1, 860728, Note_on_c, 0, 62, 45
1, 860732, Note_on_c, 0, 42, 28
1, 860733, Note_on_c, 0, 58, 36
1, 860735, Note_on_c, 0, 35, 35
1, 860738, Control_c, 0, 64, 53
1, 860754, Control_c, 0, 64, 46
1, 860755, Note_on_c, 0, 50, 17
1, 860769, Control_c, 0, 64, 42
1, 860784, Control_c, 0, 64, 43
1, 860799, Control_c, 0, 64, 47
1, 860813, Control_c, 0, 64, 51
1, 860828, Control_c, 0, 64, 55
1, 860842, Note_off_c, 0, 50, 0
1, 860843, Control_c, 0, 64, 59
1, 860858, Control_c, 0, 64, 61
1, 860873, Control_c, 0, 64, 64
1, 860886, Poly_aftertouch_c, 0, 50, 127
1, 860894, Note_on_c, 0, 56, 36
1, 860895, Control_c, 0, 64, 66
1, 860895, Note_off_c, 0, 58, 44
1, 860910, Control_c, 0, 64, 68
1, 860924, Note_off_c, 0, 56, 55
1, 860925, Control_c, 0, 64, 69
1, 860932, Note_off_c, 0, 42, 41
1, 860937, Note_off_c, 0, 62, 30
1, 860940, Control_c, 0, 64, 71
1, 860951, Note_off_c, 0, 35, 49
1, 860955, Control_c, 0, 64, 72
1, 860970, Control_c, 0, 64, 73
1, 860984, Control_c, 0, 64, 74
1, 860999, Control_c, 0, 64, 75
1, 861014, Control_c, 0, 64, 75
1, 861025, Note_on_c, 0, 56, 48
1, 861029, Control_c, 0, 64, 76
1, 861044, Control_c, 0, 64, 76
1, 861059, Control_c, 0, 64, 77
1, 861151, Note_on_c, 0, 54, 37
1, 861183, Note_off_c, 0, 56, 31
1, 861197, Note_off_c, 0, 54, 56
1, 861203, Poly_aftertouch_c, 0, 50, 0
1, 861325, Control_c, 0, 64, 76
1, 861340, Control_c, 0, 64, 76
1, 861355, Control_c, 0, 64, 74
1, 861361, Note_on_c, 0, 28, 37
1, 861362, Note_on_c, 0, 62, 39
1, 861364, Note_on_c, 0, 50, 32
1, 861369, Control_c, 0, 64, 70
1, 861380, Note_on_c, 0, 40, 29
1, 861382, Note_on_c, 0, 58, 28
1, 861384, Control_c, 0, 64, 65
1, 861399, Control_c, 0, 64, 59
1, 861414, Control_c, 0, 64, 53
1, 861429, Control_c, 0, 64, 50
1, 861443, Control_c, 0, 64, 50
1, 861458, Control_c, 0, 64, 51
1, 861473, Control_c, 0, 64, 53
1, 861488, Control_c, 0, 64, 55
1, 861503, Control_c, 0, 64, 58
1, 861518, Control_c, 0, 64, 61
1, 861533, Control_c, 0, 64, 63
1, 861548, Control_c, 0, 64, 64
1, 861562, Control_c, 0, 64, 66
1, 861566, Note_on_c, 0, 56, 43
1, 861577, Note_off_c, 0, 58, 18
1, 861577, Control_c, 0, 64, 67
1, 861589, Note_off_c, 0, 62, 39
1, 861592, Control_c, 0, 64, 68
1, 861607, Control_c, 0, 64, 69
1, 861607, Note_off_c, 0, 56, 60
1, 861622, Control_c, 0, 64, 70
1, 861643, Control_c, 0, 64, 71
1, 861658, Control_c, 0, 64, 72
1, 861673, Control_c, 0, 64, 72
1, 861688, Control_c, 0, 64, 73
1, 861719, Control_c, 0, 64, 73
1, 861724, Note_on_c, 0, 56, 46
1, 861763, Control_c, 0, 64, 74
1, 861859, Note_on_c, 0, 54, 35
1, 861871, Note_off_c, 0, 50, 10
1, 861876, Note_off_c, 0, 56, 23
1, 861901, Note_off_c, 0, 54, 57
1, 862059, Control_c, 0, 64, 72
1, 862063, Note_on_c, 0, 50, 52
1, 862074, Control_c, 0, 64, 67
1, 862089, Control_c, 0, 64, 61
1, 862104, Control_c, 0, 64, 54
1, 862119, Control_c, 0, 64, 48
1, 862133, Control_c, 0, 64, 47
1, 862148, Control_c, 0, 64, 49
1, 862163, Control_c, 0, 64, 53
1, 862177, Control_c, 0, 64, 57
1, 862192, Control_c, 0, 64, 61
1, 862207, Control_c, 0, 64, 64
1, 862222, Control_c, 0, 64, 67
1, 862237, Control_c, 0, 64, 71
1, 862251, Control_c, 0, 64, 74
1, 862266, Control_c, 0, 64, 77
1, 862281, Control_c, 0, 64, 79
1, 862296, Control_c, 0, 64, 83
1, 862306, Note_on_c, 0, 54, 37
1, 862311, Control_c, 0, 64, 86
1, 862326, Control_c, 0, 64, 90
1, 862340, Control_c, 0, 64, 95
1, 862355, Control_c, 0, 64, 99
1, 862359, Poly_aftertouch_c, 0, 32, 127
1, 862370, Control_c, 0, 64, 103
1, 862391, Control_c, 0, 64, 107
1, 862406, Control_c, 0, 64, 112
1, 862416, Note_on_c, 0, 56, 43
1, 862421, Control_c, 0, 64, 117
1, 862436, Control_c, 0, 64, 120
1, 862451, Control_c, 0, 64, 125
1, 862454, Note_off_c, 0, 54, 29
1, 862454, Note_off_c, 0, 50, 29
1, 862466, Control_c, 0, 64, 127
1, 862513, Note_on_c, 0, 58, 44
1, 862603, Note_on_c, 0, 62, 41
1, 862627, Note_off_c, 0, 56, 38
1, 862689, Note_on_c, 0, 50, 47
1, 862689, Note_off_c, 0, 62, 51
1, 862691, Note_off_c, 0, 58, 39
1, 862768, Note_off_c, 0, 50, 52
1, 862788, Note_on_c, 0, 54, 43
1, 862797, Poly_aftertouch_c, 0, 34, 127
1, 862841, Note_off_c, 0, 54, 57
1, 862858, Note_on_c, 0, 56, 57
1, 862946, Note_off_c, 0, 56, 56
1, 863004, Poly_aftertouch_c, 0, 58, 127
1, 863023, Note_on_c, 0, 62, 52
1, 863035, Poly_aftertouch_c, 0, 58, 0
1, 863116, Note_on_c, 0, 66, 51
1, 863217, Note_on_c, 0, 68, 58
1, 863259, Note_off_c, 0, 62, 38
1, 863311, Note_on_c, 0, 70, 56
1, 863335, Note_off_c, 0, 66, 35
1, 863390, Note_off_c, 0, 68, 49
1, 863399, Note_on_c, 0, 74, 54
1, 863479, Note_on_c, 0, 62, 45
1, 863503, Note_off_c, 0, 74, 54
1, 863506, Note_off_c, 0, 70, 36
1, 863563, Note_on_c, 0, 66, 51
1, 863627, Note_off_c, 0, 62, 33
1, 863661, Note_on_c, 0, 68, 55
1, 863661, Note_off_c, 0, 66, 55
1, 863760, Note_off_c, 0, 68, 57
1, 863768, Note_on_c, 0, 70, 48
1, 863798, Note_off_c, 0, 70, 63
1, 863867, Note_on_c, 0, 74, 53
1, 863983, Note_on_c, 0, 78, 57
1, 864121, Note_on_c, 0, 80, 63
1, 864245, Note_on_c, 0, 82, 63
1, 864254, Note_off_c, 0, 74, 16
1, 864305, Note_off_c, 0, 78, 37
1, 864376, Note_on_c, 0, 86, 60
1, 864487, Note_off_c, 0, 82, 32
1, 864491, Note_off_c, 0, 80, 38
1, 864493, Note_on_c, 0, 74, 52
1, 864498, Control_c, 0, 64, 117
1, 864513, Control_c, 0, 64, 103
1, 864528, Control_c, 0, 64, 92
1, 864543, Control_c, 0, 64, 83
1, 864558, Control_c, 0, 64, 77
1, 864572, Control_c, 0, 64, 75
1, 864587, Control_c, 0, 64, 74
1, 864602, Control_c, 0, 64, 75
1, 864617, Control_c, 0, 64, 76
1, 864639, Control_c, 0, 64, 78
1, 864654, Control_c, 0, 64, 81
1, 864655, Note_on_c, 0, 78, 50
1, 864669, Control_c, 0, 64, 84
1, 864684, Control_c, 0, 64, 87
1, 864689, Note_off_c, 0, 28, 50
1, 864699, Control_c, 0, 64, 90
1, 864703, Poly_aftertouch_c, 0, 32, 0
1, 864713, Control_c, 0, 64, 92
1, 864728, Control_c, 0, 64, 94
1, 864730, Poly_aftertouch_c, 0, 34, 0
1, 864743, Control_c, 0, 64, 95
1, 864770, Note_off_c, 0, 40, 40
1, 864773, Control_c, 0, 64, 97
1, 864867, Note_on_c, 0, 80, 51
1, 864889, Note_off_c, 0, 86, 39
1, 864891, Control_c, 0, 64, 99
1, 864892, Note_off_c, 0, 74, 33
1, 865098, Note_on_c, 0, 82, 45
1, 865098, Note_off_c, 0, 78, 38
1, 865103, Note_off_c, 0, 80, 59
1, 865140, Note_off_c, 0, 82, 51
1, 865248, Note_on_c, 0, 75, 34
1, 865322, Control_c, 0, 64, 97
1, 865327, Note_on_c, 0, 83, 54
1, 865351, Control_c, 0, 64, 95
1, 865366, Control_c, 0, 64, 94
1, 865389, Control_c, 0, 64, 93
1, 865403, Control_c, 0, 64, 92
1, 865418, Control_c, 0, 64, 92
1, 865433, Control_c, 0, 64, 91
1, 865448, Control_c, 0, 64, 89
1, 865463, Control_c, 0, 64, 85
1, 865467, Note_on_c, 0, 35, 40
1, 865477, Control_c, 0, 64, 79
1, 865492, Control_c, 0, 64, 69
1, 865495, Note_on_c, 0, 87, 63
1, 865507, Control_c, 0, 64, 60
1, 865522, Control_c, 0, 64, 50
1, 865536, Control_c, 0, 64, 41
1, 865551, Control_c, 0, 64, 39
1, 865566, Control_c, 0, 64, 42
1, 865581, Control_c, 0, 64, 49
1, 865586, Note_off_c, 0, 83, 58
1, 865596, Control_c, 0, 64, 56
1, 865611, Control_c, 0, 64, 62
1, 865626, Control_c, 0, 64, 66
1, 865640, Control_c, 0, 64, 71
1, 865644, Note_on_c, 0, 42, 42
1, 865655, Control_c, 0, 64, 78
1, 865658, Note_off_c, 0, 35, 39
1, 865670, Control_c, 0, 64, 83
1, 865685, Control_c, 0, 64, 88
1, 865685, Note_off_c, 0, 75, 47
1, 865700, Control_c, 0, 64, 91
1, 865703, Note_off_c, 0, 42, 59
1, 865715, Control_c, 0, 64, 94
1, 865730, Control_c, 0, 64, 96
1, 865759, Note_off_c, 0, 87, 60
1, 865760, Note_on_c, 0, 47, 35
1, 865760, Control_c, 0, 64, 98
1, 865795, Note_off_c, 0, 47, 44
1, 865823, Note_on_c, 0, 75, 35
1, 865849, Note_on_c, 0, 51, 50
1, 865893, Note_on_c, 0, 83, 50
1, 865906, Note_off_c, 0, 51, 62
1, 865932, Note_on_c, 0, 54, 54
1, 865951, Note_on_c, 0, 87, 65
1, 865977, Note_off_c, 0, 54, 64
1, 866024, Note_on_c, 0, 59, 44
1, 866047, Note_off_c, 0, 87, 57
1, 866052, Note_off_c, 0, 59, 56
1, 866066, Note_off_c, 0, 75, 42
1, 866079, Note_off_c, 0, 83, 43
1, 866133, Note_on_c, 0, 63, 44
1, 866182, Control_c, 0, 64, 96
1, 866197, Control_c, 0, 64, 95
1, 866212, Control_c, 0, 64, 94
1, 866222, Note_on_c, 0, 75, 37
1, 866226, Control_c, 0, 64, 92
1, 866241, Control_c, 0, 64, 90
1, 866245, Note_on_c, 0, 64, 62
1, 866253, Note_off_c, 0, 63, 54
1, 866256, Control_c, 0, 64, 87
1, 866271, Control_c, 0, 64, 82
1, 866275, Note_on_c, 0, 82, 49
1, 866285, Control_c, 0, 64, 73
1, 866300, Control_c, 0, 64, 64
1, 866315, Note_on_c, 0, 87, 55
1, 866315, Control_c, 0, 64, 54
1, 866330, Control_c, 0, 64, 44
1, 866345, Control_c, 0, 64, 40
1, 866359, Control_c, 0, 64, 43
1, 866374, Control_c, 0, 64, 51
1, 866381, Note_off_c, 0, 75, 37
1, 866383, Note_off_c, 0, 87, 59
1, 866389, Note_off_c, 0, 82, 54
1, 866389, Control_c, 0, 64, 59
1, 866404, Control_c, 0, 64, 63
1, 866419, Control_c, 0, 64, 67
1, 866433, Control_c, 0, 64, 70
1, 866448, Control_c, 0, 64, 73
1, 866463, Control_c, 0, 64, 75
1, 866478, Control_c, 0, 64, 76
1, 866493, Control_c, 0, 64, 76
1, 866512, Note_on_c, 0, 75, 26
1, 866522, Note_on_c, 0, 63, 39
1, 866552, Note_on_c, 0, 82, 41
1, 866553, Control_c, 0, 64, 77
1, 866582, Control_c, 0, 64, 77
1, 866595, Note_on_c, 0, 87, 62
1, 866620, Note_off_c, 0, 82, 59
1, 866642, Control_c, 0, 64, 78
1, 866648, Note_off_c, 0, 87, 59
1, 866654, Note_off_c, 0, 75, 46
1, 866656, Note_off_c, 0, 64, 49
1, 866696, Note_on_c, 0, 59, 27
1, 866789, Control_c, 0, 64, 77
1, 866804, Control_c, 0, 64, 76
1, 866817, Note_on_c, 0, 71, 33
1, 866819, Control_c, 0, 64, 73
1, 866834, Control_c, 0, 64, 68
1, 866835, Note_on_c, 0, 65, 67
1, 866848, Note_off_c, 0, 63, 21
1, 866848, Control_c, 0, 64, 62
1, 866854, Note_on_c, 0, 83, 55
1, 866861, Note_on_c, 0, 82, 44
1, 866863, Control_c, 0, 64, 57
1, 866873, Note_off_c, 0, 71, 43
1, 866886, Control_c, 0, 64, 56
1, 866900, Control_c, 0, 64, 57
1, 866912, Note_off_c, 0, 82, 60
1, 866915, Control_c, 0, 64, 60
1, 866917, Note_off_c, 0, 59, 34
1, 866917, Note_off_c, 0, 83, 54
1, 866930, Control_c, 0, 64, 62
1, 866945, Control_c, 0, 64, 65
1, 866960, Control_c, 0, 64, 67
1, 866974, Control_c, 0, 64, 70
1, 866989, Control_c, 0, 64, 73
1, 867004, Control_c, 0, 64, 74
1, 867019, Control_c, 0, 64, 75
1, 867023, Note_on_c, 0, 71, 34
1, 867034, Control_c, 0, 64, 75
1, 867049, Control_c, 0, 64, 76
1, 867071, Note_on_c, 0, 63, 42
1, 867075, Note_on_c, 0, 83, 45
1, 867086, Note_on_c, 0, 82, 46
1, 867087, Note_off_c, 0, 71, 42
1, 867093, Control_c, 0, 64, 76
1, 867107, Control_c, 0, 64, 77
1, 867116, Note_off_c, 0, 83, 61
1, 867116, Note_off_c, 0, 82, 58
1, 867187, Note_off_c, 0, 65, 61
1, 867210, Note_on_c, 0, 71, 39
1, 867223, Note_on_c, 0, 59, 26
1, 867234, Note_on_c, 0, 82, 47
1, 867238, Note_on_c, 0, 83, 51
1, 867239, Note_off_c, 0, 71, 55
1, 867278, Note_off_c, 0, 83, 60
1, 867281, Note_off_c, 0, 82, 58
1, 867316, Control_c, 0, 64, 76
1, 867331, Control_c, 0, 64, 73
1, 867345, Note_on_c, 0, 71, 44
1, 867346, Control_c, 0, 64, 68
1, 867359, Note_on_c, 0, 66, 63
1, 867360, Control_c, 0, 64, 62
1, 867375, Control_c, 0, 64, 57
1, 867385, Note_off_c, 0, 63, 20
1, 867390, Control_c, 0, 64, 55
1, 867405, Control_c, 0, 64, 55
1, 867409, Note_on_c, 0, 80, 41
1, 867415, Note_off_c, 0, 71, 41
1, 867416, Note_on_c, 0, 83, 53
1, 867420, Control_c, 0, 64, 57
1, 867428, Note_off_c, 0, 59, 43
1, 867435, Control_c, 0, 64, 59
1, 867450, Control_c, 0, 64, 62
1, 867453, Note_off_c, 0, 83, 63
1, 867460, Note_off_c, 0, 80, 47
1, 867465, Control_c, 0, 64, 65
1, 867479, Control_c, 0, 64, 68
1, 867494, Control_c, 0, 64, 71
1, 867509, Control_c, 0, 64, 74
1, 867523, Control_c, 0, 64, 77
1, 867538, Control_c, 0, 64, 78
1, 867553, Control_c, 0, 64, 80
1, 867557, Note_on_c, 0, 71, 41
1, 867560, Note_on_c, 0, 63, 46
1, 867568, Control_c, 0, 64, 80
1, 867583, Control_c, 0, 64, 81
1, 867597, Control_c, 0, 64, 81
1, 867609, Note_off_c, 0, 71, 43
1, 867635, Control_c, 0, 64, 82
1, 867642, Note_on_c, 0, 83, 56
1, 867647, Note_on_c, 0, 80, 24
1, 867676, Note_off_c, 0, 83, 63
1, 867698, Note_off_c, 0, 80, 50
1, 867733, Note_off_c, 0, 66, 54
1, 867746, Note_on_c, 0, 59, 35
1, 867757, Note_off_c, 0, 63, 59
1, 867842, Control_c, 0, 64, 80
1, 867856, Control_c, 0, 64, 77
1, 867859, Note_on_c, 0, 67, 65
1, 867862, Note_on_c, 0, 79, 52
1, 867871, Control_c, 0, 64, 71
1, 867886, Control_c, 0, 64, 65
1, 867901, Control_c, 0, 64, 60
1, 867910, Note_off_c, 0, 59, 39
1, 867916, Control_c, 0, 64, 57
1, 867924, Note_off_c, 0, 79, 54
1, 867924, Note_on_c, 0, 80, 55
1, 867945, Control_c, 0, 64, 58
1, 867960, Control_c, 0, 64, 60
1, 867975, Control_c, 0, 64, 62
1, 867983, Note_on_c, 0, 82, 55
1, 867990, Control_c, 0, 64, 63
1, 867992, Note_off_c, 0, 80, 62
1, 868004, Control_c, 0, 64, 65
1, 868019, Control_c, 0, 64, 67
1, 868034, Control_c, 0, 64, 69
1, 868043, Note_on_c, 0, 64, 55
1, 868043, Note_on_c, 0, 83, 56
1, 868049, Control_c, 0, 64, 71
1, 868056, Note_off_c, 0, 82, 54
1, 868064, Control_c, 0, 64, 73
1, 868077, Note_off_c, 0, 83, 64
1, 868079, Control_c, 0, 64, 75
1, 868094, Control_c, 0, 64, 76
1, 868103, Note_on_c, 0, 85, 66
1, 868109, Control_c, 0, 64, 77
1, 868124, Control_c, 0, 64, 78
1, 868177, Note_off_c, 0, 67, 37
1, 868178, Note_on_c, 0, 83, 57
1, 868197, Note_off_c, 0, 85, 52
1, 868204, Note_on_c, 0, 59, 51
1, 868219, Note_on_c, 0, 82, 61
1, 868260, Note_off_c, 0, 83, 58
1, 868282, Note_on_c, 0, 80, 54
1, 868304, Note_off_c, 0, 82, 62
1, 868317, Control_c, 0, 64, 78
1, 868317, Note_off_c, 0, 80, 64
1, 868332, Control_c, 0, 64, 76
1, 868344, Note_on_c, 0, 79, 58
1, 868345, Note_on_c, 0, 68, 76
1, 868346, Control_c, 0, 64, 74
1, 868361, Control_c, 0, 64, 70
1, 868383, Control_c, 0, 64, 61
1, 868394, Note_off_c, 0, 79, 59
1, 868397, Note_off_c, 0, 64, 53
1, 868398, Control_c, 0, 64, 43
1, 868409, Note_off_c, 0, 59, 52
1, 868410, Note_on_c, 0, 80, 61
1, 868413, Control_c, 0, 64, 0
1, 868457, Note_off_c, 0, 80, 53
1, 868461, Note_on_c, 0, 82, 60
1, 868487, Control_c, 0, 64, 40
1, 868498, Note_off_c, 0, 82, 62
1, 868502, Control_c, 0, 64, 55
1, 868509, Note_on_c, 0, 83, 60
1, 868517, Control_c, 0, 64, 62
1, 868529, Note_on_c, 0, 64, 54
1, 868532, Control_c, 0, 64, 66
1, 868546, Control_c, 0, 64, 67
1, 868561, Control_c, 0, 64, 67
1, 868568, Note_off_c, 0, 83, 63
1, 868576, Control_c, 0, 64, 68
1, 868586, Note_on_c, 0, 82, 39
1, 868591, Control_c, 0, 64, 69
1, 868594, Note_on_c, 0, 80, 56
1, 868606, Control_c, 0, 64, 69
1, 868620, Control_c, 0, 64, 70
1, 868628, Note_off_c, 0, 80, 63
1, 868633, Note_off_c, 0, 82, 0
1, 868650, Note_on_c, 0, 82, 48
1, 868650, Control_c, 0, 64, 70
1, 868693, Note_off_c, 0, 68, 57
1, 868700, Note_on_c, 0, 59, 46
1, 868718, Note_on_c, 0, 80, 59
1, 868738, Note_off_c, 0, 82, 58
1, 868762, Note_off_c, 0, 64, 53
1, 868764, Note_off_c, 0, 80, 61
1, 868795, Note_on_c, 0, 79, 56
1, 868798, Control_c, 0, 64, 70
1, 868813, Control_c, 0, 64, 67
1, 868815, Note_on_c, 0, 69, 76
1, 868827, Control_c, 0, 64, 63
1, 868833, Note_off_c, 0, 79, 60
1, 868842, Control_c, 0, 64, 57
1, 868857, Control_c, 0, 64, 51
1, 868860, Note_on_c, 0, 78, 48
1, 868869, Note_off_c, 0, 59, 43
1, 868872, Control_c, 0, 64, 48
1, 868887, Note_off_c, 0, 78, 63
1, 868887, Control_c, 0, 64, 50
1, 868902, Control_c, 0, 64, 53
1, 868917, Control_c, 0, 64, 57
1, 868919, Note_on_c, 0, 79, 63
1, 868932, Control_c, 0, 64, 60
1, 868947, Control_c, 0, 64, 63
1, 868962, Control_c, 0, 64, 65
1, 868964, Note_off_c, 0, 79, 60
1, 868973, Note_on_c, 0, 78, 60
1, 868976, Control_c, 0, 64, 67
1, 868991, Control_c, 0, 64, 68
1, 869006, Control_c, 0, 64, 69
1, 869007, Note_on_c, 0, 64, 53
1, 869008, Note_off_c, 0, 78, 62
1, 869021, Control_c, 0, 64, 70
1, 869036, Control_c, 0, 64, 70
1, 869051, Note_on_c, 0, 77, 39
1, 869063, Note_off_c, 0, 69, 55
1, 869076, Note_off_c, 0, 77, 59
1, 869083, Note_on_c, 0, 79, 58
1, 869140, Note_off_c, 0, 79, 64
1, 869162, Note_on_c, 0, 59, 48
1, 869165, Note_on_c, 0, 77, 59
1, 869191, Note_off_c, 0, 77, 66
1, 869213, Note_on_c, 0, 79, 52
1, 869235, Control_c, 0, 64, 69
1, 869248, Note_off_c, 0, 79, 65
1, 869250, Control_c, 0, 64, 67
1, 869257, Note_off_c, 0, 64, 31
1, 869262, Note_on_c, 0, 77, 63
1, 869265, Control_c, 0, 64, 62
1, 869280, Control_c, 0, 64, 56
1, 869289, Note_on_c, 0, 70, 82
1, 869294, Control_c, 0, 64, 53
1, 869300, Note_off_c, 0, 77, 56
1, 869324, Control_c, 0, 64, 55
1, 869331, Note_on_c, 0, 79, 48
1, 869332, Note_off_c, 0, 59, 55
1, 869339, Control_c, 0, 64, 58
1, 869354, Control_c, 0, 64, 60
1, 869355, Note_off_c, 0, 79, 57
1, 869368, Control_c, 0, 64, 63
1, 869376, Note_on_c, 0, 76, 62
1, 869383, Control_c, 0, 64, 65
1, 869398, Control_c, 0, 64, 67
1, 869411, Note_off_c, 0, 76, 61
1, 869413, Control_c, 0, 64, 68
1, 869427, Control_c, 0, 64, 70
1, 869442, Control_c, 0, 64, 71
1, 869453, Note_on_c, 0, 75, 45
1, 869455, Note_off_c, 0, 70, 55
1, 869457, Control_c, 0, 64, 72
1, 869461, Note_on_c, 0, 64, 47
1, 869472, Control_c, 0, 64, 72
1, 869487, Control_c, 0, 64, 73
1, 869493, Note_off_c, 0, 75, 64
1, 869522, Note_on_c, 0, 74, 53
1, 869531, Control_c, 0, 64, 73
1, 869553, Note_off_c, 0, 74, 61
1, 869556, Note_off_c, 0, 64, 58
1, 869569, Note_on_c, 0, 73, 69
1, 869576, Note_on_c, 0, 59, 43
1, 869623, Note_off_c, 0, 59, 55
1, 869641, Note_off_c, 0, 73, 62
1, 869644, Note_on_c, 0, 72, 71
1, 869710, Control_c, 0, 64, 73
1, 869722, Note_on_c, 0, 73, 58
1, 869724, Note_off_c, 0, 72, 54
1, 869724, Control_c, 0, 64, 69
1, 869739, Control_c, 0, 64, 60
1, 869754, Control_c, 0, 64, 37
1, 869769, Control_c, 0, 64, 0
1, 869773, Note_on_c, 0, 66, 56
1, 869783, Note_on_c, 0, 71, 79
1, 869784, Note_off_c, 0, 73, 62
1, 869829, Control_c, 0, 64, 42
1, 869835, Note_off_c, 0, 66, 62
1, 869844, Control_c, 0, 64, 59
1, 869850, Note_off_c, 0, 71, 64
1, 869858, Control_c, 0, 64, 66
1, 869873, Note_on_c, 0, 63, 56
1, 869874, Note_on_c, 0, 73, 61
1, 869880, Control_c, 0, 64, 71
1, 869895, Control_c, 0, 64, 73
1, 869906, Note_off_c, 0, 63, 65
1, 869910, Control_c, 0, 64, 73
1, 869912, Note_off_c, 0, 73, 62
1, 869924, Control_c, 0, 64, 74
1, 869948, Note_on_c, 0, 71, 53
1, 869963, Note_on_c, 0, 59, 54
1, 869977, Note_off_c, 0, 71, 66
1, 869987, Note_on_c, 0, 73, 55
1, 869996, Note_off_c, 0, 59, 63
1, 870019, Note_off_c, 0, 73, 65
1, 870040, Note_on_c, 0, 54, 51
1, 870059, Note_on_c, 0, 71, 56
1, 870074, Note_off_c, 0, 54, 65
1, 870079, Note_off_c, 0, 71, 62
1, 870084, Note_on_c, 0, 47, 57
1, 870100, Note_on_c, 0, 73, 53
1, 870112, Note_off_c, 0, 47, 65
1, 870117, Control_c, 0, 64, 74
1, 870127, Note_off_c, 0, 73, 61
1, 870148, Note_on_c, 0, 71, 64
1, 870162, Control_c, 0, 64, 75
1, 870168, Note_off_c, 0, 71, 66
1, 870177, Control_c, 0, 64, 75
1, 870191, Control_c, 0, 64, 76
1, 870204, Note_on_c, 0, 73, 53
1, 870230, Note_off_c, 0, 73, 60
1, 870246, Note_on_c, 0, 71, 62
1, 870276, Note_off_c, 0, 71, 60
1, 870280, Control_c, 0, 64, 73
1, 870295, Control_c, 0, 64, 67
1, 870305, Note_on_c, 0, 73, 88
1, 870310, Control_c, 0, 64, 59
1, 870324, Control_c, 0, 64, 49
1, 870339, Control_c, 0, 64, 48
1, 870341, Note_on_c, 0, 70, 50
1, 870354, Control_c, 0, 64, 53
1, 870356, Note_off_c, 0, 73, 65
1, 870369, Control_c, 0, 64, 60
1, 870377, Note_off_c, 0, 70, 65
1, 870384, Control_c, 0, 64, 65
1, 870398, Control_c, 0, 64, 68
1, 870410, Note_on_c, 0, 71, 50
1, 870413, Control_c, 0, 64, 71
1, 870428, Control_c, 0, 64, 73
1, 870443, Control_c, 0, 64, 74
1, 870459, Note_off_c, 0, 71, 62
1, 870484, Note_on_c, 0, 70, 48
1, 870490, Note_on_c, 0, 63, 58
1, 870525, Note_off_c, 0, 70, 64
1, 870547, Note_off_c, 0, 63, 64
1, 870557, Note_on_c, 0, 71, 45
1, 870586, Note_off_c, 0, 71, 62
1, 870632, Note_on_c, 0, 70, 50
1, 870636, Note_on_c, 0, 59, 62
1, 870663, Note_off_c, 0, 59, 66
1, 870696, Note_on_c, 0, 71, 44
1, 870699, Note_off_c, 0, 70, 34
1, 870733, Note_off_c, 0, 71, 58
1, 870748, Control_c, 0, 64, 72
1, 870763, Control_c, 0, 64, 66
1, 870775, Note_on_c, 0, 69, 53
1, 870776, Note_on_c, 0, 74, 88
1, 870778, Control_c, 0, 64, 57
1, 870793, Control_c, 0, 64, 45
1, 870808, Control_c, 0, 64, 41
1, 870816, Note_off_c, 0, 74, 65
1, 870818, Note_off_c, 0, 69, 61
1, 870822, Control_c, 0, 64, 46
1, 870837, Control_c, 0, 64, 55
1, 870848, Note_on_c, 0, 71, 48
1, 870852, Control_c, 0, 64, 61
1, 870866, Control_c, 0, 64, 66
1, 870881, Control_c, 0, 64, 69
1, 870883, Note_off_c, 0, 71, 62
1, 870896, Control_c, 0, 64, 71
1, 870911, Control_c, 0, 64, 71
1, 870937, Note_on_c, 0, 69, 32
1, 870951, Note_on_c, 0, 65, 75
1, 870963, Note_off_c, 0, 69, 52
1, 870979, Note_off_c, 0, 65, 66
1, 870985, Note_on_c, 0, 71, 42
1, 871012, Note_off_c, 0, 71, 52
1, 871071, Note_on_c, 0, 59, 58
1, 871089, Note_off_c, 0, 59, 65
1, 871106, Note_on_c, 0, 71, 37
1, 871136, Note_on_c, 0, 69, 34
1, 871170, Note_off_c, 0, 71, 0
1, 871178, Control_c, 0, 64, 70
1, 871182, Note_off_c, 0, 69, 59
1, 871188, Note_on_c, 0, 71, 31
1, 871192, Control_c, 0, 64, 65
1, 871207, Control_c, 0, 64, 58
1, 871211, Note_on_c, 0, 75, 87
1, 871222, Control_c, 0, 64, 50
1, 871228, Note_off_c, 0, 71, 59
1, 871237, Control_c, 0, 64, 48
1, 871248, Note_on_c, 0, 69, 53
1, 871252, Control_c, 0, 64, 51
1, 871256, Note_off_c, 0, 75, 64
1, 871266, Control_c, 0, 64, 58
1, 871281, Control_c, 0, 64, 63
1, 871295, Note_off_c, 0, 69, 59
1, 871297, Control_c, 0, 64, 67
1, 871312, Control_c, 0, 64, 71
1, 871318, Note_on_c, 0, 68, 50
1, 871327, Control_c, 0, 64, 73
1, 871342, Control_c, 0, 64, 73
1, 871355, Note_off_c, 0, 68, 64
1, 871374, Note_on_c, 0, 69, 45
1, 871429, Note_off_c, 0, 69, 63
1, 871441, Note_on_c, 0, 59, 61
1, 871453, Control_c, 0, 64, 73
1, 871460, Note_off_c, 0, 59, 64
1, 871462, Note_on_c, 0, 68, 49
1, 871483, Control_c, 0, 64, 72
1, 871488, Note_off_c, 0, 68, 58
1, 871497, Control_c, 0, 64, 72
1, 871498, Note_on_c, 0, 69, 45
1, 871512, Control_c, 0, 64, 71
1, 871527, Control_c, 0, 64, 71
1, 871542, Control_c, 0, 64, 70
1, 871558, Note_off_c, 0, 69, 58
1, 871564, Note_on_c, 0, 68, 58
1, 871613, Note_off_c, 0, 68, 61
1, 871630, Control_c, 0, 64, 70
1, 871645, Control_c, 0, 64, 69
1, 871647, Note_on_c, 0, 76, 96
1, 871650, Note_on_c, 0, 67, 52
1, 871660, Control_c, 0, 64, 62
1, 871675, Control_c, 0, 64, 35
1, 871677, Note_off_c, 0, 76, 64
1, 871689, Control_c, 0, 64, 0
1, 871704, Note_off_c, 0, 67, 59
1, 871753, Note_on_c, 0, 68, 44
1, 871784, Note_off_c, 0, 68, 63
1, 871810, Note_on_c, 0, 70, 44
1, 871873, Note_off_c, 0, 70, 59
1, 871892, Note_on_c, 0, 64, 75
1, 871899, Note_on_c, 0, 68, 53
1, 871915, Note_off_c, 0, 64, 69
1, 871942, Note_off_c, 0, 68, 61
1, 871994, Note_on_c, 0, 70, 36
1, 872020, Note_off_c, 0, 70, 55
1, 872057, Note_on_c, 0, 68, 49
1, 872080, Note_off_c, 0, 68, 60
1, 872096, Note_on_c, 0, 70, 55
1, 872138, Note_off_c, 0, 70, 66
1, 872168, Note_on_c, 0, 68, 54
1, 872195, Note_off_c, 0, 68, 60
1, 872217, Note_on_c, 0, 70, 54
1, 872255, Note_off_c, 0, 70, 63
1, 872284, Note_on_c, 0, 68, 56
1, 872309, Note_off_c, 0, 68, 60
1, 872324, Note_on_c, 0, 70, 42
1, 872356, Note_off_c, 0, 70, 61
1, 872395, Note_on_c, 0, 68, 52
1, 872418, Note_off_c, 0, 68, 61
1, 872437, Note_on_c, 0, 70, 51
1, 872465, Note_off_c, 0, 70, 62
1, 872500, Note_on_c, 0, 68, 58
1, 872533, Note_off_c, 0, 68, 64
1, 872556, Note_on_c, 0, 70, 56
1, 872572, Control_c, 0, 64, 30
1, 872583, Note_on_c, 0, 76, 99
1, 872587, Control_c, 0, 64, 48
1, 872592, Note_off_c, 0, 70, 65
1, 872601, Control_c, 0, 64, 58
1, 872604, Note_off_c, 0, 76, 67
1, 872616, Control_c, 0, 64, 63
1, 872621, Note_on_c, 0, 68, 58
1, 872631, Control_c, 0, 64, 64
1, 872655, Note_off_c, 0, 68, 64
1, 872661, Control_c, 0, 64, 63
1, 872675, Control_c, 0, 64, 62
1, 872685, Note_on_c, 0, 70, 52
1, 872690, Control_c, 0, 64, 59
1, 872705, Control_c, 0, 64, 54
1, 872720, Control_c, 0, 64, 47
1, 872731, Note_off_c, 0, 70, 59
1, 872734, Control_c, 0, 64, 41
1, 872749, Control_c, 0, 64, 35
1, 872764, Control_c, 0, 64, 31
1, 872771, Note_on_c, 0, 68, 43
1, 872804, Note_off_c, 0, 68, 60
1, 872827, Note_on_c, 0, 64, 69
1, 872834, Note_on_c, 0, 70, 51
1, 872842, Note_off_c, 0, 64, 67
1, 872881, Note_off_c, 0, 70, 64
1, 872905, Control_c, 0, 64, 29
1, 872920, Control_c, 0, 64, 0
1, 872925, Note_on_c, 0, 68, 43
1, 872950, Note_off_c, 0, 68, 59
1, 872967, Note_on_c, 0, 70, 53
1, 873005, Note_off_c, 0, 70, 65
1, 873009, Control_c, 0, 64, 29
1, 873024, Control_c, 0, 64, 32
1, 873031, Note_on_c, 0, 68, 55
1, 873039, Control_c, 0, 64, 35
1, 873054, Control_c, 0, 64, 31
1, 873059, Note_off_c, 0, 68, 61
1, 873068, Control_c, 0, 64, 0
1, 873082, Note_on_c, 0, 70, 49
1, 873115, Note_off_c, 0, 70, 64
1, 873146, Note_on_c, 0, 68, 56
1, 873170, Note_off_c, 0, 68, 60
1, 873195, Note_on_c, 0, 70, 51
1, 873235, Note_off_c, 0, 70, 64
1, 873259, Note_on_c, 0, 68, 57
1, 873275, Control_c, 0, 64, 57
1, 873284, Note_on_c, 0, 76, 99
1, 873290, Control_c, 0, 64, 88
1, 873300, Note_off_c, 0, 68, 61
1, 873305, Control_c, 0, 64, 114
1, 873307, Note_off_c, 0, 76, 65
1, 873320, Control_c, 0, 64, 127
1, 873328, Note_on_c, 0, 70, 46
1, 873367, Note_off_c, 0, 70, 61
1, 873421, Note_on_c, 0, 68, 46
1, 873444, Note_off_c, 0, 68, 59
1, 873468, Note_on_c, 0, 70, 51
1, 873483, Control_c, 0, 64, 125
1, 873494, Note_off_c, 0, 70, 60
1, 873498, Control_c, 0, 64, 98
1, 873513, Control_c, 0, 64, 76
1, 873525, Note_on_c, 0, 68, 55
1, 873526, Note_on_c, 0, 64, 75
1, 873528, Control_c, 0, 64, 58
1, 873543, Control_c, 0, 64, 0
1, 873546, Note_off_c, 0, 64, 71
1, 873558, Note_off_c, 0, 68, 64
1, 873586, Note_on_c, 0, 70, 51
1, 873633, Note_off_c, 0, 70, 62
1, 873665, Note_on_c, 0, 68, 47
1, 873691, Note_off_c, 0, 68, 60
1, 873714, Note_on_c, 0, 70, 45
1, 873751, Note_off_c, 0, 70, 62
1, 873784, Note_on_c, 0, 68, 51
1, 873790, Note_on_c, 0, 64, 56
1, 873808, Note_off_c, 0, 68, 60
1, 873810, Note_off_c, 0, 64, 61
1, 873841, Note_on_c, 0, 70, 45
1, 873871, Note_off_c, 0, 70, 59
1, 873898, Note_on_c, 0, 68, 53
1, 873924, Note_off_c, 0, 68, 62
1, 873960, Note_on_c, 0, 70, 48
1, 873990, Note_off_c, 0, 70, 61
1, 874020, Note_on_c, 0, 68, 52
1, 874029, Note_on_c, 0, 63, 54
1, 874049, Note_off_c, 0, 68, 60
1, 874052, Note_off_c, 0, 63, 61
1, 874089, Note_on_c, 0, 70, 42
1, 874115, Note_off_c, 0, 70, 58
1, 874149, Note_on_c, 0, 68, 49
1, 874172, Note_off_c, 0, 68, 62
1, 874196, Note_on_c, 0, 70, 50
1, 874234, Note_off_c, 0, 70, 66
1, 874252, Note_on_c, 0, 63, 68
1, 874261, Note_on_c, 0, 68, 55
1, 874278, Note_off_c, 0, 63, 67
1, 874295, Note_off_c, 0, 68, 60
1, 874322, Note_on_c, 0, 70, 42
1, 874347, Note_off_c, 0, 70, 55
1, 874426, Note_on_c, 0, 70, 53
1, 874470, Note_off_c, 0, 70, 62
1, 874490, Note_on_c, 0, 62, 68
1, 874516, Note_off_c, 0, 62, 67
1, 874521, Note_on_c, 0, 67, 51
1, 874558, Note_off_c, 0, 67, 63
1, 874570, Note_on_c, 0, 71, 54
1, 874613, Note_off_c, 0, 71, 62
1, 874649, Note_on_c, 0, 67, 50
1, 874677, Note_off_c, 0, 67, 60
1, 874682, Note_on_c, 0, 62, 62
1, 874691, Note_on_c, 0, 71, 48
1, 874712, Note_off_c, 0, 62, 64
1, 874735, Note_off_c, 0, 71, 63
1, 874770, Note_on_c, 0, 67, 51
1, 874798, Note_off_c, 0, 67, 60
1, 874819, Note_on_c, 0, 71, 45
1, 874837, Note_on_c, 0, 62, 61
1, 874857, Note_off_c, 0, 71, 64
1, 874869, Note_off_c, 0, 62, 65
1, 874889, Note_on_c, 0, 67, 57
1, 874929, Note_off_c, 0, 67, 59
1, 874941, Note_on_c, 0, 71, 53
1, 874981, Note_off_c, 0, 71, 62
1, 874989, Note_on_c, 0, 63, 71
1, 875010, Note_on_c, 0, 68, 55
1, 875018, Note_off_c, 0, 63, 67
1, 875051, Note_off_c, 0, 68, 63
1, 875078, Note_on_c, 0, 70, 56
1, 875123, Note_off_c, 0, 70, 63
1, 875153, Note_on_c, 0, 68, 45
1, 875194, Note_off_c, 0, 68, 62
1, 875214, Note_on_c, 0, 70, 43
1, 875230, Note_on_c, 0, 63, 68
1, 875252, Note_off_c, 0, 70, 64
1, 875260, Note_off_c, 0, 63, 65
1, 875284, Note_on_c, 0, 68, 48
1, 875348, Note_on_c, 0, 70, 46
1, 875384, Note_off_c, 0, 68, 31
1, 875396, Note_off_c, 0, 70, 62
1, 875440, Note_on_c, 0, 67, 46
1, 875455, Note_on_c, 0, 64, 71
1, 875482, Note_off_c, 0, 67, 60
1, 875487, Note_off_c, 0, 64, 62
1, 875506, Note_on_c, 0, 71, 51
1, 875537, Control_c, 0, 64, 37
1, 875543, Note_off_c, 0, 71, 65
1, 875552, Control_c, 0, 64, 48
1, 875567, Control_c, 0, 64, 53
1, 875582, Control_c, 0, 64, 54
1, 875589, Note_on_c, 0, 67, 43
1, 875615, Note_off_c, 0, 67, 59
1, 875642, Note_on_c, 0, 71, 54
1, 875680, Note_off_c, 0, 71, 65
1, 875709, Note_on_c, 0, 64, 61
1, 875714, Note_on_c, 0, 67, 45
1, 875716, Control_c, 0, 64, 54
1, 875740, Note_off_c, 0, 64, 65
1, 875746, Control_c, 0, 64, 53
1, 875759, Note_off_c, 0, 67, 59
1, 875787, Note_on_c, 0, 71, 46
1, 875837, Note_off_c, 0, 71, 58
1, 875890, Note_on_c, 0, 68, 52
1, 875931, Control_c, 0, 64, 53
1, 875935, Note_off_c, 0, 68, 61
1, 875942, Note_on_c, 0, 63, 70
1, 875945, Control_c, 0, 64, 51
1, 875960, Control_c, 0, 64, 49
1, 875970, Note_on_c, 0, 70, 56
1, 875975, Control_c, 0, 64, 47
1, 875977, Note_off_c, 0, 63, 63
1, 876005, Control_c, 0, 64, 47
1, 876011, Note_off_c, 0, 70, 62
1, 876020, Control_c, 0, 64, 47
1, 876057, Note_on_c, 0, 68, 47
1, 876064, Control_c, 0, 64, 48
1, 876088, Note_off_c, 0, 68, 61
1, 876109, Control_c, 0, 64, 48
1, 876112, Note_on_c, 0, 70, 52
1, 876146, Note_on_c, 0, 63, 67
1, 876163, Note_off_c, 0, 70, 60
1, 876187, Note_off_c, 0, 63, 61
1, 876196, Note_on_c, 0, 68, 50
1, 876232, Note_off_c, 0, 68, 64
1, 876243, Control_c, 0, 64, 48
1, 876255, Note_on_c, 0, 70, 46
1, 876294, Note_off_c, 0, 70, 64
1, 876304, Note_on_c, 0, 63, 65
1, 876329, Note_on_c, 0, 68, 52
1, 876358, Note_off_c, 0, 63, 62
1, 876368, Note_off_c, 0, 68, 61
1, 876376, Control_c, 0, 64, 48
1, 876384, Note_on_c, 0, 70, 56
1, 876430, Note_off_c, 0, 70, 61
1, 876435, Control_c, 0, 64, 48
1, 876454, Note_on_c, 0, 62, 69
1, 876474, Note_on_c, 0, 67, 48
1, 876494, Control_c, 0, 64, 47
1, 876500, Note_off_c, 0, 62, 60
1, 876514, Note_off_c, 0, 67, 62
1, 876542, Note_on_c, 0, 71, 51
1, 876582, Note_off_c, 0, 71, 63
1, 876583, Control_c, 0, 64, 48
1, 876622, Note_on_c, 0, 67, 51
1, 876636, Note_on_c, 0, 62, 67
1, 876661, Note_off_c, 0, 67, 63
1, 876681, Note_off_c, 0, 62, 60
1, 876683, Note_on_c, 0, 71, 41
1, 876720, Note_off_c, 0, 71, 63
1, 876724, Control_c, 0, 64, 47
1, 876754, Note_on_c, 0, 67, 55
1, 876791, Note_off_c, 0, 67, 63
1, 876813, Note_on_c, 0, 62, 59
1, 876825, Note_on_c, 0, 71, 44
1, 876847, Note_off_c, 0, 62, 65
1, 876893, Note_off_c, 0, 71, 48
1, 876903, Control_c, 0, 64, 47
1, 876904, Note_on_c, 0, 67, 20
1, 876917, Control_c, 0, 64, 45
1, 876932, Control_c, 0, 64, 43
1, 876944, Note_off_c, 0, 67, 52
1, 876947, Control_c, 0, 64, 41
1, 876956, Note_on_c, 0, 63, 69
1, 876959, Note_on_c, 0, 68, 50
1, 876962, Control_c, 0, 64, 40
1, 876977, Control_c, 0, 64, 41
1, 876992, Control_c, 0, 64, 41
1, 877003, Note_off_c, 0, 68, 62
1, 877007, Control_c, 0, 64, 42
1, 877022, Control_c, 0, 64, 43
1, 877036, Note_on_c, 0, 70, 56
1, 877051, Control_c, 0, 64, 43
1, 877078, Note_off_c, 0, 70, 62
1, 877108, Note_on_c, 0, 68, 46
1, 877110, Control_c, 0, 64, 43
1, 877125, Control_c, 0, 64, 43
1, 877147, Note_off_c, 0, 68, 63
1, 877154, Control_c, 0, 64, 44
1, 877161, Note_on_c, 0, 70, 50
1, 877169, Control_c, 0, 64, 45
1, 877184, Control_c, 0, 64, 48
1, 877199, Control_c, 0, 64, 51
1, 877200, Note_off_c, 0, 70, 64
1, 877214, Control_c, 0, 64, 55
1, 877227, Control_c, 0, 64, 58
1, 877228, Note_on_c, 0, 68, 52
1, 877242, Control_c, 0, 64, 61
1, 877257, Control_c, 0, 64, 64
1, 877263, Note_off_c, 0, 68, 62
1, 877272, Control_c, 0, 64, 66
1, 877287, Control_c, 0, 64, 69
1, 877295, Note_on_c, 0, 70, 44
1, 877302, Control_c, 0, 64, 72
1, 877317, Control_c, 0, 64, 75
1, 877332, Control_c, 0, 64, 79
1, 877346, Control_c, 0, 64, 81
1, 877364, Note_on_c, 0, 68, 50
1, 877375, Note_off_c, 0, 70, 47
1, 877428, Control_c, 0, 64, 79
1, 877442, Control_c, 0, 64, 75
1, 877457, Control_c, 0, 64, 69
1, 877472, Note_off_c, 0, 68, 51
1, 877472, Control_c, 0, 64, 63
1, 877481, Note_on_c, 0, 67, 42
1, 877487, Note_on_c, 0, 64, 47
1, 877487, Control_c, 0, 64, 58
1, 877502, Control_c, 0, 64, 54
1, 877516, Control_c, 0, 64, 54
1, 877530, Note_off_c, 0, 67, 60
1, 877531, Control_c, 0, 64, 55
1, 877538, Note_off_c, 0, 63, 55
1, 877546, Control_c, 0, 64, 57
1, 877561, Control_c, 0, 64, 60
1, 877564, Note_on_c, 0, 71, 44
1, 877576, Control_c, 0, 64, 63
1, 877591, Control_c, 0, 64, 65
1, 877606, Control_c, 0, 64, 68
1, 877621, Control_c, 0, 64, 70
1, 877635, Control_c, 0, 64, 72
1, 877645, Note_on_c, 0, 67, 50
1, 877650, Control_c, 0, 64, 72
1, 877660, Note_off_c, 0, 71, 37
1, 877680, Control_c, 0, 64, 72
1, 877695, Control_c, 0, 64, 69
1, 877710, Control_c, 0, 64, 65
1, 877725, Control_c, 0, 64, 59
1, 877731, Note_on_c, 0, 63, 57
1, 877740, Note_on_c, 0, 68, 50
1, 877740, Control_c, 0, 64, 51
1, 877755, Control_c, 0, 64, 46
1, 877760, Note_off_c, 0, 67, 35
1, 877784, Control_c, 0, 64, 48
1, 877785, Note_off_c, 0, 68, 60
1, 877799, Control_c, 0, 64, 52
1, 877814, Control_c, 0, 64, 57
1, 877818, Note_off_c, 0, 64, 38
1, 877823, Note_on_c, 0, 70, 47
1, 877829, Control_c, 0, 64, 61
1, 877844, Control_c, 0, 64, 64
1, 877858, Control_c, 0, 64, 66
1, 877873, Control_c, 0, 64, 67
1, 877895, Note_on_c, 0, 68, 55
1, 877918, Control_c, 0, 64, 65
1, 877932, Control_c, 0, 64, 62
1, 877947, Control_c, 0, 64, 54
1, 877949, Note_off_c, 0, 70, 52
1, 877961, Note_off_c, 0, 68, 55
1, 877962, Control_c, 0, 64, 46
1, 877968, Note_on_c, 0, 62, 64
1, 877974, Note_on_c, 0, 67, 52
1, 877977, Control_c, 0, 64, 39
1, 877992, Control_c, 0, 64, 37
1, 878007, Control_c, 0, 64, 39
1, 878022, Control_c, 0, 64, 42
1, 878037, Control_c, 0, 64, 48
1, 878040, Note_off_c, 0, 67, 57
1, 878051, Control_c, 0, 64, 55
1, 878063, Note_on_c, 0, 71, 47
1, 878063, Note_off_c, 0, 63, 49
1, 878066, Control_c, 0, 64, 59
1, 878081, Control_c, 0, 64, 61
1, 878096, Control_c, 0, 64, 63
1, 878119, Control_c, 0, 64, 64
1, 878133, Control_c, 0, 64, 64
1, 878153, Note_on_c, 0, 67, 54
1, 878163, Control_c, 0, 64, 64
1, 878175, Note_off_c, 0, 71, 50
1, 878178, Control_c, 0, 64, 62
1, 878192, Control_c, 0, 64, 58
1, 878207, Control_c, 0, 64, 52
1, 878222, Control_c, 0, 64, 47
1, 878223, Note_off_c, 0, 67, 54
1, 878226, Note_on_c, 0, 63, 71
1, 878235, Note_on_c, 0, 68, 54
1, 878237, Control_c, 0, 64, 42
1, 878252, Control_c, 0, 64, 41
1, 878266, Control_c, 0, 64, 42
1, 878280, Note_off_c, 0, 68, 61
1, 878281, Control_c, 0, 64, 44
1, 878296, Control_c, 0, 64, 49
1, 878309, Note_off_c, 0, 62, 49
1, 878309, Note_on_c, 0, 70, 56
1, 878310, Control_c, 0, 64, 54
1, 878325, Control_c, 0, 64, 58
1, 878340, Control_c, 0, 64, 62
1, 878355, Control_c, 0, 64, 64
1, 878370, Control_c, 0, 64, 65
1, 878384, Control_c, 0, 64, 66
1, 878386, Note_on_c, 0, 68, 62
1, 878429, Control_c, 0, 64, 64
1, 878443, Note_off_c, 0, 70, 58
1, 878444, Control_c, 0, 64, 60
1, 878458, Control_c, 0, 64, 54
1, 878460, Note_off_c, 0, 68, 61
1, 878464, Note_on_c, 0, 64, 70
1, 878470, Note_on_c, 0, 67, 56
1, 878473, Control_c, 0, 64, 49
1, 878489, Control_c, 0, 64, 46
1, 878519, Control_c, 0, 64, 47
1, 878534, Control_c, 0, 64, 50
1, 878542, Note_off_c, 0, 67, 59
1, 878549, Control_c, 0, 64, 54
1, 878550, Note_off_c, 0, 63, 55
1, 878560, Note_on_c, 0, 71, 57
1, 878563, Control_c, 0, 64, 57
1, 878578, Control_c, 0, 64, 60
1, 878593, Control_c, 0, 64, 62
1, 878607, Control_c, 0, 64, 64
1, 878622, Control_c, 0, 64, 64
1, 878637, Control_c, 0, 64, 65
1, 878642, Note_on_c, 0, 67, 60
1, 878652, Control_c, 0, 64, 64
1, 878655, Note_off_c, 0, 71, 55
1, 878667, Control_c, 0, 64, 62
1, 878682, Control_c, 0, 64, 57
1, 878697, Control_c, 0, 64, 52
1, 878711, Note_on_c, 0, 63, 75
1, 878711, Note_off_c, 0, 67, 58
1, 878712, Control_c, 0, 64, 48
1, 878726, Control_c, 0, 64, 48
1, 878727, Note_on_c, 0, 68, 61
1, 878741, Control_c, 0, 64, 49
1, 878751, Note_off_c, 0, 64, 59
1, 878756, Control_c, 0, 64, 51
1, 878771, Control_c, 0, 64, 54
1, 878777, Note_off_c, 0, 68, 61
1, 878786, Control_c, 0, 64, 57
1, 878800, Control_c, 0, 64, 60
1, 878801, Note_on_c, 0, 70, 55
1, 878815, Control_c, 0, 64, 62
1, 878830, Control_c, 0, 64, 64
1, 878845, Control_c, 0, 64, 65
1, 878873, Note_on_c, 0, 68, 52
1, 878882, Control_c, 0, 64, 64
1, 878897, Control_c, 0, 64, 61
1, 878911, Control_c, 0, 64, 56
1, 878918, Note_off_c, 0, 70, 50
1, 878926, Control_c, 0, 64, 50
1, 878939, Note_off_c, 0, 68, 61
1, 878941, Control_c, 0, 64, 45
1, 878949, Note_on_c, 0, 62, 68
1, 878956, Control_c, 0, 64, 45
1, 878963, Note_on_c, 0, 67, 53
1, 878971, Control_c, 0, 64, 46
1, 878986, Control_c, 0, 64, 49
1, 879001, Control_c, 0, 64, 52
1, 879008, Note_off_c, 0, 67, 60
1, 879015, Control_c, 0, 64, 57
1, 879022, Note_off_c, 0, 63, 50
1, 879029, Note_on_c, 0, 71, 59
1, 879030, Control_c, 0, 64, 61
1, 879045, Control_c, 0, 64, 64
1, 879060, Control_c, 0, 64, 65
1, 879075, Control_c, 0, 64, 66
1, 879104, Control_c, 0, 64, 66
1, 879106, Note_off_c, 0, 71, 60
1, 879117, Note_on_c, 0, 67, 46
1, 879119, Control_c, 0, 64, 63
1, 879133, Control_c, 0, 64, 59
1, 879148, Control_c, 0, 64, 50
1, 879163, Control_c, 0, 64, 44
1, 879168, Note_on_c, 0, 61, 74
1, 879170, Note_off_c, 0, 67, 57
1, 879178, Control_c, 0, 64, 42
1, 879191, Note_on_c, 0, 66, 53
1, 879193, Control_c, 0, 64, 44
1, 879201, Note_off_c, 0, 62, 58
1, 879207, Control_c, 0, 64, 46
1, 879222, Control_c, 0, 64, 51
1, 879230, Note_off_c, 0, 66, 63
1, 879237, Control_c, 0, 64, 57
1, 879252, Control_c, 0, 64, 61
1, 879254, Note_on_c, 0, 68, 59
1, 879267, Control_c, 0, 64, 64
1, 879283, Control_c, 0, 64, 66
1, 879298, Control_c, 0, 64, 67
1, 879327, Control_c, 0, 64, 66
1, 879329, Note_on_c, 0, 66, 59
1, 879342, Control_c, 0, 64, 64
1, 879356, Control_c, 0, 64, 60
1, 879371, Control_c, 0, 64, 52
1, 879381, Note_off_c, 0, 68, 55
1, 879386, Control_c, 0, 64, 44
1, 879396, Note_off_c, 0, 66, 60
1, 879401, Control_c, 0, 64, 36
1, 879404, Note_on_c, 0, 60, 75
1, 879416, Note_on_c, 0, 65, 67
1, 879416, Control_c, 0, 64, 34
1, 879421, Note_off_c, 0, 61, 60
1, 879430, Control_c, 0, 64, 34
1, 879445, Control_c, 0, 64, 38
1, 879460, Control_c, 0, 64, 45
1, 879475, Control_c, 0, 64, 53
1, 879479, Note_off_c, 0, 65, 61
1, 879487, Note_on_c, 0, 69, 58
1, 879490, Control_c, 0, 64, 59
1, 879505, Control_c, 0, 64, 63
1, 879520, Control_c, 0, 64, 65
1, 879534, Control_c, 0, 64, 67
1, 879549, Control_c, 0, 64, 68
1, 879579, Control_c, 0, 64, 66
1, 879579, Note_on_c, 0, 65, 55
1, 879582, Note_off_c, 0, 69, 55
1, 879594, Control_c, 0, 64, 63
1, 879616, Control_c, 0, 64, 57
1, 879630, Control_c, 0, 64, 49
1, 879630, Control_c, 0, 67, 121
1, 879631, Note_on_c, 0, 59, 80
1, 879645, Control_c, 0, 64, 47
1, 879645, Control_c, 0, 67, 116
1, 879660, Control_c, 0, 64, 49
1, 879660, Control_c, 0, 67, 111
1, 879663, Note_off_c, 0, 60, 60
1, 879670, Note_off_c, 0, 65, 57
1, 879675, Control_c, 0, 64, 53
1, 879675, Control_c, 0, 67, 105
1, 879690, Control_c, 0, 64, 57
1, 879690, Control_c, 0, 67, 99
1, 879694, Note_on_c, 0, 66, 67
1, 879704, Control_c, 0, 64, 61
1, 879704, Control_c, 0, 67, 94
1, 879719, Control_c, 0, 64, 64
1, 879719, Control_c, 0, 67, 91
1, 879734, Control_c, 0, 64, 66
1, 879734, Control_c, 0, 67, 88
1, 879749, Control_c, 0, 64, 70
1, 879749, Control_c, 0, 67, 87
1, 879764, Control_c, 0, 64, 72
1, 879764, Control_c, 0, 67, 86
1, 879779, Control_c, 0, 64, 72
1, 879779, Control_c, 0, 67, 85
1, 879779, Note_on_c, 0, 63, 50
1, 879791, Note_off_c, 0, 66, 56
1, 879794, Control_c, 0, 67, 85
1, 879809, Control_c, 0, 64, 72
1, 879809, Control_c, 0, 67, 84
1, 879824, Control_c, 0, 64, 68
1, 879824, Control_c, 0, 67, 83
1, 879838, Control_c, 0, 64, 60
1, 879838, Control_c, 0, 67, 80
1, 879843, Note_off_c, 0, 63, 60
1, 879853, Control_c, 0, 64, 50
1, 879853, Control_c, 0, 67, 77
1, 879859, Note_on_c, 0, 58, 80
1, 879860, Note_off_c, 0, 59, 64
1, 879867, Note_on_c, 0, 67, 57
1, 879868, Control_c, 0, 64, 42
1, 879868, Control_c, 0, 67, 72
1, 879882, Control_c, 0, 64, 40
1, 879882, Control_c, 0, 67, 62
1, 879897, Control_c, 0, 64, 44
1, 879897, Control_c, 0, 67, 53
1, 879912, Control_c, 0, 64, 51
1, 879912, Control_c, 0, 67, 43
1, 879927, Control_c, 0, 64, 57
1, 879927, Control_c, 0, 67, 32
1, 879939, Note_on_c, 0, 63, 52
1, 879942, Note_off_c, 0, 67, 60
1, 879942, Control_c, 0, 64, 62
1, 879942, Control_c, 0, 67, 23
1, 879956, Control_c, 0, 64, 66
1, 879956, Control_c, 0, 67, 0
1, 879971, Control_c, 0, 64, 69
1, 879986, Control_c, 0, 64, 73
1, 880001, Control_c, 0, 64, 77
1, 880016, Control_c, 0, 64, 81
1, 880030, Control_c, 0, 64, 85
1, 880045, Control_c, 0, 64, 87
1, 880048, Note_off_c, 0, 58, 61
1, 880053, Note_off_c, 0, 63, 62
1, 880060, Control_c, 0, 64, 86
1, 880076, Control_c, 0, 64, 78
1, 880077, Note_on_c, 0, 57, 101
1, 880080, Note_on_c, 0, 62, 77
1, 880091, Control_c, 0, 64, 59
1, 880106, Control_c, 0, 64, 0
1, 880127, Note_off_c, 0, 62, 57
1, 880157, Note_on_c, 0, 64, 59
1, 880206, Note_off_c, 0, 64, 62
1, 880242, Note_on_c, 0, 62, 52
1, 880270, Note_off_c, 0, 62, 61
1, 880298, Control_c, 0, 67, 21
1, 880300, Note_on_c, 0, 64, 55
1, 880313, Control_c, 0, 67, 24
1, 880327, Control_c, 0, 67, 27
1, 880333, Note_off_c, 0, 64, 64
1, 880342, Control_c, 0, 67, 30
1, 880360, Note_on_c, 0, 62, 61
1, 880365, Control_c, 0, 67, 34
1, 880379, Control_c, 0, 67, 40
1, 880394, Control_c, 0, 67, 48
1, 880409, Control_c, 0, 67, 56
1, 880414, Note_off_c, 0, 62, 61
1, 880424, Control_c, 0, 67, 63
1, 880435, Note_on_c, 0, 64, 58
1, 880439, Control_c, 0, 67, 71
1, 880453, Control_c, 0, 67, 80
1, 880468, Note_off_c, 0, 64, 63
1, 880468, Control_c, 0, 67, 88
1, 880483, Control_c, 0, 67, 97
1, 880497, Note_on_c, 0, 62, 53
1, 880498, Control_c, 0, 67, 107
1, 880512, Control_c, 0, 67, 115
1, 880527, Control_c, 0, 67, 123
1, 880542, Control_c, 0, 67, 127
1, 880548, Note_off_c, 0, 62, 60
1, 880569, Note_on_c, 0, 64, 51
1, 880603, Note_off_c, 0, 64, 61
1, 880627, Note_on_c, 0, 62, 50
1, 880673, Note_off_c, 0, 62, 61
1, 880702, Note_on_c, 0, 64, 56
1, 880736, Note_off_c, 0, 64, 65
1, 880759, Note_on_c, 0, 62, 54
1, 880813, Note_off_c, 0, 62, 61
1, 880838, Note_on_c, 0, 64, 51
1, 880878, Note_off_c, 0, 64, 65
1, 880899, Note_on_c, 0, 62, 49
1, 880946, Note_off_c, 0, 62, 63
1, 880969, Note_on_c, 0, 64, 60
1, 881034, Note_on_c, 0, 62, 62
1, 881036, Note_off_c, 0, 64, 58
1, 881105, Note_off_c, 0, 62, 63
1, 881127, Note_on_c, 0, 59, 88
1, 881138, Note_off_c, 0, 57, 59
1, 881171, Note_off_c, 0, 59, 63
1, 881230, Note_on_c, 0, 59, 64
1, 881254, Note_off_c, 0, 59, 69
1, 881307, Note_on_c, 0, 59, 67
1, 881333, Note_off_c, 0, 59, 65
1, 881391, Note_on_c, 0, 59, 60
1, 881428, Note_off_c, 0, 59, 64
1, 881459, Note_on_c, 0, 62, 53
1, 881500, Note_off_c, 0, 62, 62
1, 881516, Note_on_c, 0, 59, 56
1, 881574, Note_off_c, 0, 59, 60
1, 881610, Note_on_c, 0, 62, 51
1, 881652, Note_off_c, 0, 62, 62
1, 881666, Note_on_c, 0, 59, 39
1, 881709, Note_off_c, 0, 59, 63
1, 881743, Note_on_c, 0, 62, 46
1, 881783, Note_off_c, 0, 62, 62
1, 881809, Note_on_c, 0, 59, 46
1, 881857, Note_off_c, 0, 59, 62
1, 881888, Note_on_c, 0, 62, 46
1, 881930, Note_off_c, 0, 62, 61
1, 881957, Note_on_c, 0, 59, 50
1, 882002, Note_off_c, 0, 59, 60
1, 882025, Note_on_c, 0, 62, 56
1, 882071, Note_off_c, 0, 62, 57
1, 882106, Note_on_c, 0, 59, 46
1, 882150, Note_off_c, 0, 59, 62
1, 882173, Note_on_c, 0, 62, 46
1, 882218, Note_off_c, 0, 62, 61
1, 882253, Note_on_c, 0, 59, 41
1, 882290, Note_off_c, 0, 59, 60
1, 882313, Note_on_c, 0, 62, 54
1, 882357, Note_off_c, 0, 62, 59
1, 882396, Note_on_c, 0, 59, 44
1, 882436, Note_off_c, 0, 59, 62
1, 882461, Note_on_c, 0, 62, 48
1, 882506, Note_off_c, 0, 62, 61
1, 882538, Note_on_c, 0, 59, 42
1, 882574, Note_off_c, 0, 59, 60
1, 882611, Note_on_c, 0, 62, 53
1, 882655, Note_off_c, 0, 62, 60
1, 882684, Note_on_c, 0, 59, 50
1, 882723, Note_off_c, 0, 59, 64
1, 882765, Note_on_c, 0, 62, 44
1, 882834, Note_on_c, 0, 59, 41
1, 882839, Note_off_c, 0, 62, 45
1, 882878, Note_off_c, 0, 59, 62
1, 882880, Note_on_c, 0, 47, 52
1, 882893, Note_on_c, 0, 54, 44
1, 882904, Note_off_c, 0, 47, 60
1, 882906, Note_on_c, 0, 57, 57
1, 882921, Note_off_c, 0, 54, 54
1, 882950, Note_off_c, 0, 57, 59
1, 882979, Note_on_c, 0, 62, 45
1, 883059, Note_on_c, 0, 59, 41
1, 883101, Note_off_c, 0, 62, 58
1, 883123, Note_off_c, 0, 59, 58
1, 883132, Note_on_c, 0, 52, 60
1, 883134, Note_on_c, 0, 40, 56
1, 883150, Note_on_c, 0, 55, 55
1, 883165, Note_off_c, 0, 52, 64
1, 883168, Note_off_c, 0, 40, 64
1, 883197, Note_off_c, 0, 55, 58
1, 883231, Note_on_c, 0, 62, 52
1, 883303, Note_on_c, 0, 59, 44
1, 883339, Note_off_c, 0, 62, 49
1, 883386, Note_off_c, 0, 59, 61
1, 883398, Note_on_c, 0, 54, 62
1, 883400, Note_on_c, 0, 47, 54
1, 883405, Note_on_c, 0, 57, 60
1, 883430, Note_off_c, 0, 54, 64
1, 883431, Note_off_c, 0, 47, 65
1, 883447, Note_off_c, 0, 57, 62
1, 883472, Note_on_c, 0, 62, 48
1, 883546, Note_on_c, 0, 59, 42
1, 883611, Note_off_c, 0, 62, 58
1, 883631, Note_off_c, 0, 59, 61
1, 883633, Note_on_c, 0, 52, 71
1, 883639, Note_on_c, 0, 40, 57
1, 883648, Note_on_c, 0, 55, 58
1, 883662, Note_off_c, 0, 52, 67
1, 883665, Note_off_c, 0, 40, 60
1, 883691, Note_off_c, 0, 55, 62
1, 883732, Note_on_c, 0, 62, 57
1, 883823, Note_on_c, 0, 59, 40
1, 883848, Note_off_c, 0, 62, 57
1, 883866, Note_on_c, 0, 54, 70
1, 883890, Note_on_c, 0, 47, 40
1, 883891, Note_off_c, 0, 59, 61
1, 883913, Note_on_c, 0, 57, 51
1, 883960, Note_off_c, 0, 57, 59
1, 883977, Note_on_c, 0, 62, 50
1, 883979, Note_off_c, 0, 54, 62
1, 883988, Note_on_c, 0, 52, 64
1, 884039, Note_off_c, 0, 47, 43
1, 884047, Note_on_c, 0, 59, 47
1, 884068, Note_off_c, 0, 52, 59
1, 884097, Note_off_c, 0, 62, 60
1, 884120, Note_off_c, 0, 59, 60
1, 884123, Note_on_c, 0, 50, 62
1, 884145, Note_on_c, 0, 55, 57
1, 884184, Note_off_c, 0, 55, 60
1, 884203, Note_off_c, 0, 50, 61
1, 884219, Note_on_c, 0, 62, 55
1, 884220, Note_on_c, 0, 52, 57
1, 884280, Note_on_c, 0, 59, 47
1, 884313, Note_off_c, 0, 52, 59
1, 884317, Note_off_c, 0, 62, 57
1, 884339, Note_on_c, 0, 54, 62
1, 884342, Note_off_c, 0, 59, 60
1, 884366, Note_on_c, 0, 57, 59
1, 884367, Note_off_c, 0, 54, 65
1, 884405, Note_off_c, 0, 57, 60
1, 884436, Note_on_c, 0, 62, 60
1, 884501, Note_on_c, 0, 59, 46
1, 884546, Note_off_c, 0, 62, 59
1, 884564, Note_off_c, 0, 59, 61
1, 884577, Note_on_c, 0, 52, 50
1, 884589, Note_on_c, 0, 55, 60
1, 884605, Note_off_c, 0, 52, 60
1, 884610, Note_on_c, 0, 41, 8
1, 884612, Note_on_c, 0, 40, 4
1, 884624, Note_off_c, 0, 55, 61
1, 884658, Note_off_c, 0, 40, 27
1, 884659, Note_off_c, 0, 41, 27
1, 884669, Note_on_c, 0, 62, 57
1, 884730, Note_on_c, 0, 59, 49
1, 884757, Note_off_c, 0, 62, 55
1, 884802, Note_off_c, 0, 59, 61
1, 884808, Note_on_c, 0, 47, 55
1, 884808, Note_on_c, 0, 54, 60
1, 884819, Note_on_c, 0, 57, 61
1, 884852, Note_off_c, 0, 47, 66
1, 884854, Note_off_c, 0, 54, 65
1, 884868, Note_off_c, 0, 57, 61
1, 884895, Note_on_c, 0, 62, 52
1, 884963, Note_on_c, 0, 59, 51
1, 885002, Note_off_c, 0, 62, 60
1, 885034, Note_off_c, 0, 59, 62
1, 885038, Note_on_c, 0, 40, 59
1, 885039, Note_on_c, 0, 52, 58
1, 885055, Note_on_c, 0, 55, 61
1, 885073, Note_off_c, 0, 52, 64
1, 885082, Note_off_c, 0, 40, 59
1, 885100, Note_off_c, 0, 55, 61
1, 885127, Note_on_c, 0, 62, 56
1, 885187, Note_on_c, 0, 59, 42
1, 885202, Note_off_c, 0, 62, 59
1, 885239, Note_off_c, 0, 59, 63
1, 885260, Note_on_c, 0, 49, 62
1, 885270, Note_on_c, 0, 42, 50
1, 885271, Note_on_c, 0, 56, 64
1, 885311, Note_off_c, 0, 49, 60
1, 885317, Note_off_c, 0, 42, 60
1, 885326, Note_off_c, 0, 56, 50
1, 885350, Note_on_c, 0, 61, 58
1, 885412, Note_on_c, 0, 58, 49
1, 885437, Note_off_c, 0, 61, 54
1, 885476, Note_off_c, 0, 58, 61
1, 885488, Note_on_c, 0, 46, 56
1, 885490, Note_on_c, 0, 51, 59
1, 885493, Control_c, 0, 67, 125
1, 885506, Note_on_c, 0, 54, 55
1, 885508, Control_c, 0, 67, 111
1, 885523, Control_c, 0, 67, 90
1, 885532, Note_off_c, 0, 46, 64
1, 885532, Note_off_c, 0, 51, 64
1, 885538, Control_c, 0, 67, 67
1, 885553, Control_c, 0, 67, 46
1, 885564, Note_on_c, 0, 61, 55
1, 885568, Control_c, 0, 67, 28
1, 885579, Note_off_c, 0, 54, 50
1, 885583, Control_c, 0, 67, 0
1, 885627, Note_on_c, 0, 58, 45
1, 885681, Note_off_c, 0, 58, 60
1, 885685, Note_on_c, 0, 36, 50
1, 885735, Note_on_c, 0, 43, 14
1, 885739, Note_off_c, 0, 61, 30
1, 885765, Note_on_c, 0, 52, 70
1, 885769, Control_c, 0, 64, 32
1, 885784, Control_c, 0, 64, 49
1, 885798, Control_c, 0, 64, 59
1, 885813, Control_c, 0, 64, 63
1, 885828, Control_c, 0, 64, 67
1, 885830, Note_on_c, 0, 55, 31
1, 885842, Control_c, 0, 64, 70
1, 885857, Control_c, 0, 64, 74
1, 885872, Note_off_c, 0, 55, 50
1, 885872, Control_c, 0, 64, 79
1, 885887, Control_c, 0, 64, 84
1, 885902, Control_c, 0, 64, 90
1, 885903, Note_off_c, 0, 52, 62
1, 885905, Note_on_c, 0, 57, 44
1, 885917, Control_c, 0, 64, 92
1, 885946, Control_c, 0, 64, 91
1, 885961, Control_c, 0, 64, 86
1, 885976, Control_c, 0, 64, 76
1, 885991, Control_c, 0, 64, 67
1, 886006, Control_c, 0, 64, 61
1, 886011, Note_off_c, 0, 57, 41
1, 886015, Note_on_c, 0, 51, 73
1, 886021, Control_c, 0, 64, 56
1, 886036, Control_c, 0, 64, 58
1, 886050, Control_c, 0, 64, 61
1, 886065, Control_c, 0, 64, 65
1, 886080, Control_c, 0, 64, 70
1, 886095, Control_c, 0, 64, 75
1, 886098, Note_on_c, 0, 54, 36
1, 886110, Control_c, 0, 64, 81
1, 886124, Control_c, 0, 64, 87
1, 886139, Control_c, 0, 64, 92
1, 886153, Note_on_c, 0, 59, 50
1, 886154, Control_c, 0, 64, 95
1, 886164, Note_off_c, 0, 54, 50
1, 886168, Note_off_c, 0, 51, 57
1, 886169, Control_c, 0, 64, 95
1, 886198, Control_c, 0, 64, 91
1, 886214, Control_c, 0, 64, 78
1, 886229, Control_c, 0, 64, 67
1, 886243, Control_c, 0, 64, 58
1, 886255, Note_on_c, 0, 52, 73
1, 886258, Control_c, 0, 64, 49
1, 886273, Control_c, 0, 64, 46
1, 886288, Control_c, 0, 64, 49
1, 886301, Note_off_c, 0, 59, 37
1, 886303, Control_c, 0, 64, 55
1, 886317, Control_c, 0, 64, 62
1, 886322, Note_on_c, 0, 55, 52
1, 886332, Control_c, 0, 64, 66
1, 886355, Control_c, 0, 64, 72
1, 886370, Control_c, 0, 64, 79
1, 886385, Control_c, 0, 64, 86
1, 886385, Note_off_c, 0, 52, 56
1, 886394, Note_off_c, 0, 55, 56
1, 886399, Control_c, 0, 64, 90
1, 886411, Note_on_c, 0, 57, 45
1, 886414, Control_c, 0, 64, 91
1, 886443, Control_c, 0, 64, 88
1, 886458, Control_c, 0, 64, 80
1, 886474, Control_c, 0, 64, 70
1, 886489, Control_c, 0, 64, 63
1, 886504, Note_on_c, 0, 51, 76
1, 886504, Control_c, 0, 64, 58
1, 886520, Note_off_c, 0, 57, 61
1, 886534, Control_c, 0, 64, 60
1, 886548, Control_c, 0, 64, 64
1, 886563, Control_c, 0, 64, 67
1, 886578, Control_c, 0, 64, 71
1, 886585, Note_on_c, 0, 54, 49
1, 886592, Note_off_c, 0, 36, 56
1, 886593, Control_c, 0, 64, 76
1, 886608, Control_c, 0, 64, 81
1, 886609, Note_off_c, 0, 43, 40
1, 886622, Control_c, 0, 64, 84
1, 886632, Note_off_c, 0, 51, 60
1, 886637, Control_c, 0, 64, 86
1, 886649, Note_on_c, 0, 59, 48
1, 886651, Note_off_c, 0, 54, 54
1, 886666, Control_c, 0, 64, 84
1, 886681, Control_c, 0, 64, 79
1, 886696, Control_c, 0, 64, 71
1, 886711, Control_c, 0, 64, 63
1, 886726, Control_c, 0, 64, 59
1, 886728, Note_on_c, 0, 52, 80
1, 886755, Control_c, 0, 64, 61
1, 886762, Note_off_c, 0, 59, 51
1, 886770, Control_c, 0, 64, 63
1, 886785, Control_c, 0, 64, 65
1, 886800, Control_c, 0, 64, 68
1, 886805, Note_on_c, 0, 55, 38
1, 886807, Note_off_c, 0, 52, 55
1, 886814, Control_c, 0, 64, 70
1, 886829, Control_c, 0, 64, 71
1, 886835, Note_on_c, 0, 51, 73
1, 886844, Control_c, 0, 64, 72
1, 886849, Note_off_c, 0, 55, 59
1, 886862, Note_off_c, 0, 51, 68
1, 886865, Note_on_c, 0, 57, 53
1, 886873, Control_c, 0, 64, 73
1, 886903, Control_c, 0, 64, 72
1, 886918, Control_c, 0, 64, 71
1, 886926, Note_off_c, 0, 57, 62
1, 886933, Control_c, 0, 64, 70
1, 886946, Note_on_c, 0, 50, 78
1, 886948, Control_c, 0, 64, 69
1, 886966, Note_on_c, 0, 35, 65
1, 886978, Control_c, 0, 64, 70
1, 886983, Note_off_c, 0, 50, 63
1, 887030, Note_on_c, 0, 54, 48
1, 887058, Note_off_c, 0, 54, 58
1, 887060, Note_on_c, 0, 51, 76
1, 887070, Poly_aftertouch_c, 0, 34, 0
1, 887096, Note_on_c, 0, 59, 50
1, 887103, Control_c, 0, 64, 69
1, 887118, Control_c, 0, 64, 67
1, 887133, Control_c, 0, 64, 63
1, 887148, Control_c, 0, 64, 56
1, 887148, Note_off_c, 0, 59, 56
1, 887163, Control_c, 0, 64, 48
1, 887178, Control_c, 0, 64, 46
1, 887183, Note_on_c, 0, 52, 82
1, 887192, Control_c, 0, 64, 49
1, 887203, Note_off_c, 0, 51, 60
1, 887207, Control_c, 0, 64, 54
1, 887222, Control_c, 0, 64, 59
1, 887225, Note_off_c, 0, 35, 59
1, 887237, Control_c, 0, 64, 62
1, 887252, Control_c, 0, 64, 65
1, 887267, Control_c, 0, 64, 68
1, 887277, Note_on_c, 0, 55, 61
1, 887282, Control_c, 0, 64, 71
1, 887297, Control_c, 0, 64, 72
1, 887324, Note_off_c, 0, 52, 57
1, 887327, Control_c, 0, 64, 71
1, 887333, Note_on_c, 0, 57, 60
1, 887341, Control_c, 0, 64, 68
1, 887356, Control_c, 0, 64, 62
1, 887359, Note_off_c, 0, 55, 61
1, 887371, Control_c, 0, 64, 53
1, 887386, Control_c, 0, 64, 48
1, 887401, Control_c, 0, 64, 49
1, 887407, Note_on_c, 0, 33, 74
1, 887415, Note_on_c, 0, 50, 80
1, 887415, Control_c, 0, 64, 53
1, 887430, Control_c, 0, 64, 58
1, 887445, Control_c, 0, 64, 62
1, 887460, Control_c, 0, 64, 66
1, 887468, Note_off_c, 0, 33, 62
1, 887475, Control_c, 0, 64, 69
1, 887479, Note_off_c, 0, 57, 59
1, 887489, Control_c, 0, 64, 73
1, 887501, Note_on_c, 0, 54, 63
1, 887504, Control_c, 0, 64, 77
1, 887519, Control_c, 0, 64, 79
1, 887529, Note_off_c, 0, 50, 58
1, 887549, Control_c, 0, 64, 78
1, 887563, Control_c, 0, 64, 75
1, 887578, Control_c, 0, 64, 68
1, 887582, Note_on_c, 0, 59, 53
1, 887593, Control_c, 0, 64, 60
1, 887608, Control_c, 0, 64, 50
1, 887610, Note_off_c, 0, 54, 51
1, 887620, Note_on_c, 0, 48, 82
1, 887622, Control_c, 0, 64, 46
1, 887637, Control_c, 0, 64, 49
1, 887652, Control_c, 0, 64, 53
1, 887656, Note_on_c, 0, 52, 73
1, 887667, Control_c, 0, 64, 58
1, 887682, Note_off_c, 0, 59, 51
1, 887682, Control_c, 0, 64, 62
1, 887696, Control_c, 0, 64, 66
1, 887700, Note_off_c, 0, 48, 60
1, 887711, Control_c, 0, 64, 69
1, 887726, Control_c, 0, 64, 72
1, 887735, Note_on_c, 0, 55, 63
1, 887741, Control_c, 0, 64, 74
1, 887743, Note_off_c, 0, 52, 59
1, 887776, Note_on_c, 0, 47, 81
1, 887785, Control_c, 0, 64, 73
1, 887798, Note_off_c, 0, 55, 62
1, 887800, Control_c, 0, 64, 68
1, 887814, Control_c, 0, 64, 62
1, 887821, Note_on_c, 0, 40, 38
1, 887829, Control_c, 0, 64, 56
1, 887849, Note_on_c, 0, 62, 5
1, 887851, Control_c, 0, 64, 55
1, 887861, Note_off_c, 0, 47, 63
1, 887863, Note_on_c, 0, 45, 92
1, 887866, Control_c, 0, 64, 57
1, 887881, Control_c, 0, 64, 60
1, 887890, Note_on_c, 0, 54, 69
1, 887893, Poly_aftertouch_c, 0, 38, 127
1, 887896, Control_c, 0, 64, 63
1, 887899, Poly_aftertouch_c, 0, 60, 0
1, 887902, Note_off_c, 0, 62, 25
1, 887909, Note_off_c, 0, 40, 61
1, 887911, Control_c, 0, 64, 66
1, 887926, Control_c, 0, 64, 70
1, 887928, Poly_aftertouch_c, 0, 38, 0
1, 887933, Note_on_c, 0, 58, 56
1, 887941, Control_c, 0, 64, 73
1, 887950, Note_off_c, 0, 54, 54
1, 887956, Control_c, 0, 64, 75
1, 887958, Note_off_c, 0, 58, 56
1, 887965, Note_on_c, 0, 57, 71
1, 887970, Control_c, 0, 64, 76
1, 888000, Note_off_c, 0, 57, 62
1, 888000, Control_c, 0, 64, 75
1, 888014, Control_c, 0, 64, 71
1, 888018, Note_off_c, 0, 45, 56
1, 888024, Note_on_c, 0, 62, 45
1, 888029, Control_c, 0, 64, 64
1, 888044, Control_c, 0, 64, 52
1, 888059, Control_c, 0, 64, 37
1, 888065, Note_on_c, 0, 43, 91
1, 888072, Note_on_c, 0, 36, 77
1, 888075, Control_c, 0, 64, 33
1, 888085, Note_off_c, 0, 62, 60
1, 888090, Control_c, 0, 64, 39
1, 888105, Control_c, 0, 64, 50
1, 888114, Note_on_c, 0, 55, 57
1, 888116, Note_off_c, 0, 36, 58
1, 888119, Control_c, 0, 64, 60
1, 888134, Control_c, 0, 64, 65
1, 888149, Control_c, 0, 64, 70
1, 888156, Note_off_c, 0, 43, 61
1, 888164, Control_c, 0, 64, 75
1, 888179, Control_c, 0, 64, 80
1, 888183, Note_on_c, 0, 59, 42
1, 888183, Note_off_c, 0, 55, 62
1, 888193, Control_c, 0, 64, 83
1, 888208, Control_c, 0, 64, 88
1, 888215, Note_on_c, 0, 57, 26
1, 888216, Note_on_c, 0, 64, 66
1, 888218, Poly_aftertouch_c, 0, 53, 0
1, 888223, Control_c, 0, 64, 94
1, 888233, Note_off_c, 0, 59, 63
1, 888237, Control_c, 0, 64, 100
1, 888252, Control_c, 0, 64, 104
1, 888255, Note_off_c, 0, 57, 53
1, 888263, Note_off_c, 0, 64, 57
1, 888296, Note_on_c, 0, 42, 112
1, 888297, Control_c, 0, 64, 96
1, 888311, Control_c, 0, 64, 68
1, 888318, Note_on_c, 0, 54, 79
1, 888326, Control_c, 0, 64, 30
1, 888340, Note_off_c, 0, 42, 68
1, 888341, Control_c, 0, 64, 0
1, 888356, Control_c, 0, 67, 19
1, 888371, Control_c, 0, 67, 23
1, 888385, Note_off_c, 0, 54, 61
1, 888385, Control_c, 0, 67, 27
1, 888400, Control_c, 0, 67, 33
1, 888401, Note_on_c, 0, 66, 59
1, 888415, Control_c, 0, 67, 41
1, 888430, Control_c, 0, 67, 54
1, 888444, Control_c, 0, 67, 72
1, 888460, Control_c, 0, 67, 87
1, 888462, Note_off_c, 0, 66, 60
1, 888475, Control_c, 0, 67, 101
1, 888480, Note_on_c, 0, 54, 67
1, 888490, Control_c, 0, 67, 113
1, 888505, Control_c, 0, 67, 125
1, 888519, Control_c, 0, 67, 127
1, 888520, Note_off_c, 0, 54, 60
1, 888541, Note_on_c, 0, 66, 64
1, 888608, Note_off_c, 0, 66, 62
1, 888629, Note_on_c, 0, 54, 58
1, 888668, Note_off_c, 0, 54, 62
1, 888697, Note_on_c, 0, 66, 59
1, 888736, Note_off_c, 0, 66, 62
1, 888769, Note_on_c, 0, 54, 64
1, 888816, Note_off_c, 0, 54, 58
1, 888844, Note_on_c, 0, 66, 60
1, 888883, Note_off_c, 0, 66, 62
1, 888930, Note_on_c, 0, 54, 48
1, 888963, Note_off_c, 0, 54, 59
1, 888989, Note_on_c, 0, 66, 60
1, 889021, Note_off_c, 0, 66, 64
1, 889053, Note_on_c, 0, 54, 58
1, 889098, Note_off_c, 0, 54, 61
1, 889130, Note_on_c, 0, 66, 56
1, 889178, Note_off_c, 0, 66, 60
1, 889212, Note_on_c, 0, 54, 56
1, 889251, Note_off_c, 0, 54, 63
1, 889290, Note_on_c, 0, 66, 55
1, 889326, Note_off_c, 0, 66, 64
1, 889360, Note_on_c, 0, 54, 52
1, 889401, Note_off_c, 0, 54, 63
1, 889440, Note_on_c, 0, 66, 57
1, 889473, Note_off_c, 0, 66, 64
1, 889503, Note_on_c, 0, 54, 53
1, 889545, Note_off_c, 0, 54, 62
1, 889577, Note_on_c, 0, 66, 57
1, 889622, Note_off_c, 0, 66, 58
1, 889659, Note_on_c, 0, 54, 52
1, 889700, Note_off_c, 0, 54, 63
1, 889741, Note_on_c, 0, 66, 51
1, 889779, Note_off_c, 0, 66, 63
1, 889810, Note_on_c, 0, 54, 46
1, 889852, Note_off_c, 0, 54, 62
1, 889870, Note_on_c, 0, 66, 58
1, 889930, Note_off_c, 0, 66, 50
1, 889956, Note_on_c, 0, 54, 44
1, 890081, Note_on_c, 0, 62, 50
1, 890090, Note_on_c, 0, 34, 50
1, 890090, Note_on_c, 0, 46, 57
1, 890090, Note_off_c, 0, 54, 56
1, 890130, Note_off_c, 0, 34, 62
1, 890130, Note_off_c, 0, 46, 60
1, 890175, Note_on_c, 0, 66, 58
1, 890179, Note_off_c, 0, 62, 56
1, 890260, Note_off_c, 0, 66, 49
1, 890272, Note_on_c, 0, 56, 49
1, 890317, Note_on_c, 0, 41, 54
1, 890331, Note_off_c, 0, 56, 55
1, 890332, Note_on_c, 0, 47, 31
1, 890339, Note_on_c, 0, 63, 58
1, 890341, Note_off_c, 0, 41, 60
1, 890362, Note_off_c, 0, 47, 47
1, 890414, Note_on_c, 0, 66, 52
1, 890417, Note_off_c, 0, 63, 56
1, 890480, Note_off_c, 0, 66, 51
1, 890491, Note_on_c, 0, 56, 44
1, 890555, Note_off_c, 0, 56, 56
1, 890557, Note_on_c, 0, 34, 60
1, 890558, Note_on_c, 0, 46, 64
1, 890564, Note_on_c, 0, 62, 56
1, 890590, Note_off_c, 0, 46, 63
1, 890593, Note_off_c, 0, 34, 64
1, 890634, Note_on_c, 0, 66, 53
1, 890634, Note_off_c, 0, 62, 55
1, 890725, Note_on_c, 0, 56, 48
1, 890753, Note_off_c, 0, 66, 55
1, 890800, Note_on_c, 0, 41, 53
1, 890801, Note_on_c, 0, 63, 62
1, 890807, Note_off_c, 0, 56, 59
1, 890829, Note_off_c, 0, 41, 59
1, 890894, Note_on_c, 0, 66, 56
1, 890898, Note_off_c, 0, 63, 60
1, 890958, Note_on_c, 0, 56, 53
1, 890990, Note_off_c, 0, 66, 56
1, 891034, Note_on_c, 0, 62, 62
1, 891042, Note_on_c, 0, 34, 51
1, 891044, Note_off_c, 0, 56, 51
1, 891050, Note_on_c, 0, 46, 46
1, 891056, Control_c, 0, 64, 37
1, 891071, Control_c, 0, 64, 53
1, 891085, Control_c, 0, 64, 63
1, 891100, Control_c, 0, 64, 67
1, 891103, Note_off_c, 0, 46, 59
1, 891113, Note_off_c, 0, 34, 60
1, 891115, Control_c, 0, 64, 70
1, 891130, Control_c, 0, 64, 73
1, 891134, Note_on_c, 0, 66, 54
1, 891134, Note_off_c, 0, 62, 58
1, 891145, Control_c, 0, 64, 75
1, 891159, Control_c, 0, 64, 76
1, 891204, Note_on_c, 0, 61, 57
1, 891204, Control_c, 0, 64, 74
1, 891219, Control_c, 0, 64, 69
1, 891233, Control_c, 0, 64, 63
1, 891240, Note_off_c, 0, 66, 38
1, 891248, Control_c, 0, 64, 57
1, 891264, Control_c, 0, 64, 55
1, 891279, Control_c, 0, 64, 58
1, 891281, Note_on_c, 0, 34, 51
1, 891282, Note_on_c, 0, 46, 55
1, 891288, Note_off_c, 0, 61, 59
1, 891293, Note_on_c, 0, 60, 61
1, 891294, Control_c, 0, 64, 62
1, 891309, Control_c, 0, 64, 66
1, 891324, Control_c, 0, 64, 69
1, 891338, Control_c, 0, 64, 72
1, 891353, Control_c, 0, 64, 75
1, 891368, Control_c, 0, 64, 77
1, 891372, Note_off_c, 0, 60, 61
1, 891378, Note_on_c, 0, 66, 55
1, 891382, Control_c, 0, 64, 79
1, 891383, Note_off_c, 0, 46, 59
1, 891385, Note_off_c, 0, 34, 55
1, 891397, Control_c, 0, 64, 79
1, 891412, Control_c, 0, 64, 79
1, 891427, Control_c, 0, 64, 77
1, 891442, Control_c, 0, 64, 71
1, 891443, Note_on_c, 0, 61, 58
1, 891455, Control_c, 0, 64, 64
1, 891469, Note_off_c, 0, 66, 50
1, 891470, Control_c, 0, 64, 55
1, 891485, Control_c, 0, 64, 50
1, 891500, Control_c, 0, 64, 53
1, 891503, Note_on_c, 0, 33, 57
1, 891506, Note_on_c, 0, 45, 53
1, 891515, Control_c, 0, 64, 58
1, 891521, Note_on_c, 0, 62, 63
1, 891530, Control_c, 0, 64, 62
1, 891545, Control_c, 0, 64, 66
1, 891559, Control_c, 0, 64, 70
1, 891574, Control_c, 0, 64, 74
1, 891596, Control_c, 0, 64, 77
1, 891597, Note_off_c, 0, 45, 59
1, 891598, Note_off_c, 0, 61, 37
1, 891599, Note_off_c, 0, 33, 59
1, 891611, Note_on_c, 0, 66, 58
1, 891611, Control_c, 0, 64, 79
1, 891624, Note_off_c, 0, 62, 60
1, 891626, Control_c, 0, 64, 80
1, 891641, Control_c, 0, 64, 79
1, 891656, Control_c, 0, 64, 76
1, 891670, Control_c, 0, 64, 70
1, 891679, Note_on_c, 0, 54, 52
1, 891680, Note_off_c, 0, 66, 61
1, 891685, Control_c, 0, 64, 62
1, 891685, Control_c, 0, 67, 122
1, 891700, Control_c, 0, 64, 55
1, 891700, Control_c, 0, 67, 116
1, 891715, Control_c, 0, 64, 55
1, 891715, Control_c, 0, 67, 108
1, 891730, Control_c, 0, 64, 59
1, 891730, Control_c, 0, 67, 100
1, 891731, Note_on_c, 0, 45, 59
1, 891734, Note_on_c, 0, 33, 57
1, 891744, Control_c, 0, 64, 62
1, 891744, Control_c, 0, 67, 90
1, 891750, Note_on_c, 0, 61, 61
1, 891753, Note_off_c, 0, 54, 62
1, 891759, Control_c, 0, 64, 65
1, 891759, Control_c, 0, 67, 82
1, 891774, Control_c, 0, 64, 68
1, 891774, Control_c, 0, 67, 74
1, 891789, Control_c, 0, 64, 71
1, 891789, Control_c, 0, 67, 67
1, 891804, Control_c, 0, 64, 75
1, 891804, Control_c, 0, 67, 61
1, 891819, Control_c, 0, 64, 78
1, 891819, Control_c, 0, 67, 55
1, 891834, Control_c, 0, 64, 80
1, 891834, Control_c, 0, 67, 51
1, 891837, Note_off_c, 0, 45, 59
1, 891840, Note_on_c, 0, 65, 55
1, 891847, Note_off_c, 0, 33, 59
1, 891849, Control_c, 0, 64, 82
1, 891849, Control_c, 0, 67, 48
1, 891863, Control_c, 0, 67, 43
1, 891866, Note_off_c, 0, 61, 50
1, 891876, Note_off_c, 0, 65, 60
1, 891878, Control_c, 0, 67, 38
1, 891893, Control_c, 0, 64, 79
1, 891893, Control_c, 0, 67, 34
1, 891894, Note_on_c, 0, 53, 55
1, 891908, Control_c, 0, 64, 70
1, 891908, Control_c, 0, 67, 29
1, 891923, Control_c, 0, 64, 61
1, 891923, Control_c, 0, 67, 24
1, 891937, Control_c, 0, 64, 50
1, 891937, Control_c, 0, 67, 0
1, 891952, Control_c, 0, 64, 43
1, 891967, Control_c, 0, 64, 46
1, 891971, Note_on_c, 0, 32, 63
1, 891971, Note_on_c, 0, 44, 62
1, 891974, Note_off_c, 0, 53, 58
1, 891981, Control_c, 0, 64, 53
1, 891990, Note_on_c, 0, 60, 56
1, 891996, Control_c, 0, 64, 59
1, 892011, Control_c, 0, 64, 63
1, 892026, Control_c, 0, 64, 65
1, 892041, Control_c, 0, 64, 68
1, 892048, Note_off_c, 0, 44, 63
1, 892057, Control_c, 0, 64, 71
1, 892057, Note_off_c, 0, 32, 60
1, 892069, Note_on_c, 0, 64, 60
1, 892072, Control_c, 0, 64, 73
1, 892084, Note_off_c, 0, 60, 53
1, 892086, Control_c, 0, 64, 75
1, 892101, Control_c, 0, 64, 77
1, 892116, Control_c, 0, 64, 78
1, 892131, Control_c, 0, 64, 78
1, 892146, Control_c, 0, 64, 79
1, 892148, Note_on_c, 0, 32, 65
1, 892148, Note_on_c, 0, 44, 65
1, 892150, Note_on_c, 0, 59, 58
1, 892155, Note_off_c, 0, 64, 58
1, 892160, Control_c, 0, 64, 80
1, 892175, Control_c, 0, 64, 81
1, 892190, Note_off_c, 0, 44, 58
1, 892190, Control_c, 0, 64, 81
1, 892204, Control_c, 0, 64, 82
1, 892206, Note_off_c, 0, 32, 56
1, 892206, Note_off_c, 0, 59, 58
1, 892218, Note_on_c, 0, 58, 61
1, 892284, Note_on_c, 0, 64, 62
1, 892293, Note_on_c, 0, 44, 68
1, 892294, Note_on_c, 0, 32, 65
1, 892323, Control_c, 0, 64, 82
1, 892347, Note_off_c, 0, 58, 39
1, 892356, Note_off_c, 0, 44, 60
1, 892358, Note_on_c, 0, 59, 60
1, 892364, Note_off_c, 0, 32, 60
1, 892370, Note_off_c, 0, 64, 58
1, 892390, Control_c, 0, 64, 81
1, 892405, Control_c, 0, 64, 73
1, 892419, Control_c, 0, 64, 65
1, 892430, Note_off_c, 0, 59, 59
1, 892434, Control_c, 0, 64, 57
1, 892449, Note_on_c, 0, 31, 73
1, 892449, Control_c, 0, 64, 51
1, 892450, Note_on_c, 0, 43, 69
1, 892450, Note_on_c, 0, 60, 63
1, 892464, Control_c, 0, 64, 51
1, 892479, Control_c, 0, 64, 55
1, 892493, Control_c, 0, 64, 59
1, 892508, Control_c, 0, 64, 64
1, 892510, Note_on_c, 0, 64, 58
1, 892523, Control_c, 0, 64, 68
1, 892525, Note_off_c, 0, 60, 55
1, 892537, Control_c, 0, 64, 74
1, 892552, Note_off_c, 0, 43, 58
1, 892552, Control_c, 0, 64, 82
1, 892567, Control_c, 0, 64, 89
1, 892576, Note_off_c, 0, 31, 60
1, 892582, Control_c, 0, 64, 92
1, 892600, Note_off_c, 0, 64, 61
1, 892608, Note_on_c, 0, 52, 44
1, 892612, Control_c, 0, 64, 90
1, 892627, Control_c, 0, 64, 82
1, 892642, Control_c, 0, 64, 71
1, 892656, Control_c, 0, 64, 61
1, 892671, Control_c, 0, 64, 52
1, 892673, Note_on_c, 0, 43, 72
1, 892676, Note_on_c, 0, 31, 77
1, 892679, Note_off_c, 0, 52, 61
1, 892686, Control_c, 0, 64, 51
1, 892688, Note_on_c, 0, 59, 55
1, 892701, Control_c, 0, 64, 56
1, 892716, Control_c, 0, 64, 60
1, 892730, Control_c, 0, 64, 64
1, 892731, Note_off_c, 0, 43, 61
1, 892744, Note_off_c, 0, 31, 61
1, 892745, Control_c, 0, 64, 70
1, 892757, Note_off_c, 0, 59, 64
1, 892760, Control_c, 0, 64, 79
1, 892763, Note_on_c, 0, 63, 66
1, 892775, Control_c, 0, 64, 88
1, 892790, Control_c, 0, 64, 97
1, 892804, Control_c, 0, 64, 102
1, 892831, Note_on_c, 0, 51, 54
1, 892838, Note_off_c, 0, 63, 61
1, 892850, Control_c, 0, 64, 96
1, 892865, Control_c, 0, 64, 81
1, 892880, Control_c, 0, 64, 66
1, 892895, Control_c, 0, 64, 49
1, 892909, Control_c, 0, 64, 38
1, 892918, Note_on_c, 0, 42, 80
1, 892918, Note_off_c, 0, 51, 61
1, 892921, Note_on_c, 0, 30, 77
1, 892924, Control_c, 0, 64, 40
1, 892925, Note_on_c, 0, 58, 56
1, 892939, Control_c, 0, 64, 49
1, 892953, Control_c, 0, 64, 58
1, 892957, Note_off_c, 0, 30, 65
1, 892964, Note_off_c, 0, 42, 61
1, 892968, Control_c, 0, 64, 64
1, 892983, Control_c, 0, 64, 70
1, 892998, Control_c, 0, 64, 79
1, 893005, Note_off_c, 0, 58, 59
1, 893011, Note_on_c, 0, 62, 63
1, 893013, Control_c, 0, 64, 88
1, 893027, Control_c, 0, 64, 94
1, 893042, Control_c, 0, 64, 98
1, 893068, Note_off_c, 0, 62, 57
1, 893084, Note_on_c, 0, 50, 62
1, 893154, Control_c, 0, 64, 95
1, 893168, Control_c, 0, 64, 80
1, 893181, Note_on_c, 0, 42, 86
1, 893183, Control_c, 0, 64, 63
1, 893184, Note_off_c, 0, 50, 55
1, 893186, Note_on_c, 0, 30, 85
1, 893191, Note_on_c, 0, 62, 56
1, 893198, Control_c, 0, 64, 0
1, 893229, Note_off_c, 0, 62, 58
1, 893272, Control_c, 0, 64, 47
1, 893273, Note_on_c, 0, 58, 52
1, 893287, Control_c, 0, 64, 61
1, 893302, Control_c, 0, 64, 70
1, 893316, Control_c, 0, 64, 76
1, 893318, Note_off_c, 0, 30, 62
1, 893318, Note_off_c, 0, 58, 61
1, 893331, Control_c, 0, 64, 83
1, 893346, Control_c, 0, 64, 87
1, 893350, Note_on_c, 0, 62, 48
1, 893360, Control_c, 0, 64, 91
1, 893365, Note_off_c, 0, 42, 63
1, 893375, Note_off_c, 0, 62, 58
1, 893375, Control_c, 0, 64, 92
1, 893390, Control_c, 0, 64, 93
1, 893424, Note_on_c, 0, 62, 74
1, 893473, Note_off_c, 0, 62, 42
1, 893502, Note_on_c, 0, 74, 73
1, 893560, Note_off_c, 0, 74, 60
1, 893561, Note_on_c, 0, 70, 66
1, 893568, Control_c, 0, 64, 91
1, 893583, Control_c, 0, 64, 87
1, 893598, Control_c, 0, 64, 83
1, 893613, Control_c, 0, 64, 82
1, 893626, Note_on_c, 0, 66, 96
1, 893628, Note_on_c, 0, 54, 93
1, 893649, Note_off_c, 0, 70, 60
1, 893649, Note_on_c, 0, 74, 62
1, 893658, Control_c, 0, 64, 82
1, 893667, Note_off_c, 0, 66, 64
1, 893673, Control_c, 0, 64, 83
1, 893676, Note_on_c, 0, 62, 49
1, 893678, Note_off_c, 0, 54, 64
1, 893685, Note_off_c, 0, 74, 60
1, 893687, Note_on_c, 0, 53, 12
1, 893688, Control_c, 0, 64, 84
1, 893703, Control_c, 0, 64, 86
1, 893712, Note_off_c, 0, 53, 0
1, 893718, Control_c, 0, 64, 87
1, 893733, Control_c, 0, 64, 88
1, 893733, Poly_aftertouch_c, 0, 53, 0
1, 893753, Note_off_c, 0, 62, 55
1, 893792, Control_c, 0, 64, 83
1, 893796, Note_on_c, 0, 74, 61
1, 893802, Note_on_c, 0, 61, 78
1, 893807, Control_c, 0, 64, 72
1, 893807, Note_on_c, 0, 49, 78
1, 893822, Control_c, 0, 64, 62
1, 893836, Note_off_c, 0, 61, 66
1, 893837, Note_off_c, 0, 49, 66
1, 893839, Note_off_c, 0, 74, 63
1, 893844, Control_c, 0, 64, 49
1, 893852, Note_on_c, 0, 70, 66
1, 893858, Control_c, 0, 64, 47
1, 893869, Note_on_c, 0, 62, 92
1, 893870, Note_on_c, 0, 50, 93
1, 893873, Control_c, 0, 64, 54
1, 893888, Control_c, 0, 64, 62
1, 893903, Control_c, 0, 64, 69
1, 893914, Note_off_c, 0, 50, 65
1, 893917, Note_off_c, 0, 70, 61
1, 893918, Control_c, 0, 64, 76
1, 893919, Note_on_c, 0, 74, 74
1, 893920, Note_off_c, 0, 62, 64
1, 893932, Control_c, 0, 64, 85
1, 893947, Control_c, 0, 64, 94
1, 893962, Control_c, 0, 64, 103
1, 893975, Note_off_c, 0, 74, 61
1, 893977, Control_c, 0, 64, 112
1, 893992, Control_c, 0, 64, 116
1, 894022, Control_c, 0, 64, 96
1, 894023, Note_on_c, 0, 74, 68
1, 894037, Control_c, 0, 64, 72
1, 894051, Control_c, 0, 64, 47
1, 894066, Control_c, 0, 64, 0
1, 894096, Note_on_c, 0, 66, 91
1, 894099, Note_on_c, 0, 54, 89
1, 894110, Control_c, 0, 64, 59
1, 894113, Note_on_c, 0, 86, 71
1, 894125, Control_c, 0, 64, 78
1, 894140, Note_off_c, 0, 54, 66
1, 894140, Control_c, 0, 64, 127
1, 894141, Note_off_c, 0, 66, 62
1, 894141, Note_off_c, 0, 74, 37
1, 894171, Note_off_c, 0, 86, 61
1, 894178, Note_on_c, 0, 82, 72
1, 894256, Note_on_c, 0, 61, 76
1, 894256, Note_on_c, 0, 86, 67
1, 894257, Note_on_c, 0, 49, 81
1, 894258, Control_c, 0, 64, 101
1, 894263, Note_off_c, 0, 82, 55
1, 894273, Control_c, 0, 64, 69
1, 894281, Note_off_c, 0, 86, 68
1, 894284, Note_off_c, 0, 61, 67
1, 894286, Note_off_c, 0, 49, 66
1, 894288, Control_c, 0, 64, 41
1, 894302, Control_c, 0, 64, 0
1, 894314, Note_on_c, 0, 74, 72
1, 894317, Control_c, 0, 64, 34
1, 894323, Note_on_c, 0, 62, 80
1, 894327, Note_on_c, 0, 48, 75
1, 894328, Note_on_c, 0, 50, 76
1, 894332, Control_c, 0, 64, 55
1, 894343, Note_off_c, 0, 74, 65
1, 894344, Note_off_c, 0, 62, 70
1, 894347, Control_c, 0, 64, 66
1, 894357, Note_off_c, 0, 48, 69
1, 894359, Note_off_c, 0, 50, 65
1, 894362, Control_c, 0, 64, 77
1, 894376, Control_c, 0, 64, 89
1, 894376, Control_c, 0, 67, 21
1, 894391, Control_c, 0, 64, 94
1, 894391, Control_c, 0, 67, 23
1, 894406, Control_c, 0, 64, 93
1, 894418, Note_on_c, 0, 74, 58
1, 894421, Control_c, 0, 64, 89
1, 894436, Control_c, 0, 64, 81
1, 894452, Control_c, 0, 64, 69
1, 894467, Control_c, 0, 64, 52
1, 894481, Note_off_c, 0, 74, 61
1, 894481, Control_c, 0, 64, 0
1, 894504, Note_on_c, 0, 70, 48
1, 894565, Note_off_c, 0, 70, 55
1, 894568, Note_on_c, 0, 31, 57
1, 894581, Note_on_c, 0, 43, 50
1, 894603, Note_on_c, 0, 74, 43
1, 894627, Note_off_c, 0, 74, 58
1, 894637, Control_c, 0, 64, 48
1, 894652, Control_c, 0, 64, 63
1, 894663, Note_on_c, 0, 62, 61
1, 894667, Control_c, 0, 64, 70
1, 894681, Control_c, 0, 64, 76
1, 894696, Control_c, 0, 64, 80
1, 894698, Note_off_c, 0, 62, 64
1, 894710, Note_off_c, 0, 43, 62
1, 894711, Control_c, 0, 64, 81
1, 894726, Control_c, 0, 64, 83
1, 894740, Control_c, 0, 64, 83
1, 894740, Control_c, 0, 67, 21
1, 894755, Control_c, 0, 64, 84
1, 894781, Note_on_c, 0, 62, 28
1, 894785, Control_c, 0, 64, 82
1, 894800, Control_c, 0, 64, 72
1, 894809, Note_off_c, 0, 31, 30
1, 894815, Control_c, 0, 64, 62
1, 894821, Note_off_c, 0, 62, 52
1, 894829, Control_c, 0, 64, 43
1, 894832, Note_on_c, 0, 58, 62
1, 894834, Note_on_c, 0, 44, 65
1, 894835, Note_on_c, 0, 32, 66
1, 894844, Control_c, 0, 64, 0
1, 894874, Control_c, 0, 67, 0
1, 894889, Control_c, 0, 64, 38
1, 894901, Note_off_c, 0, 58, 52
1, 894904, Control_c, 0, 64, 53
1, 894919, Control_c, 0, 64, 62
1, 894919, Note_on_c, 0, 62, 61
1, 894924, Note_off_c, 0, 44, 62
1, 894933, Control_c, 0, 64, 67
1, 894943, Note_off_c, 0, 32, 61
1, 894948, Control_c, 0, 64, 70
1, 894963, Control_c, 0, 64, 72
1, 894977, Note_off_c, 0, 62, 60
1, 894978, Control_c, 0, 64, 74
1, 894993, Control_c, 0, 64, 76
1, 894999, Note_on_c, 0, 32, 57
1, 895000, Note_on_c, 0, 44, 68
1, 895000, Note_on_c, 0, 50, 55
1, 895007, Control_c, 0, 64, 77
1, 895022, Control_c, 0, 64, 79
1, 895037, Control_c, 0, 64, 80
1, 895049, Note_off_c, 0, 44, 62
1, 895052, Note_off_c, 0, 50, 55
1, 895054, Note_off_c, 0, 32, 61
1, 895086, Note_on_c, 0, 62, 51
1, 895122, Note_off_c, 0, 62, 64
1, 895135, Note_on_c, 0, 32, 64
1, 895136, Note_on_c, 0, 58, 59
1, 895139, Note_on_c, 0, 44, 67
1, 895185, Note_off_c, 0, 58, 54
1, 895187, Note_off_c, 0, 44, 57
1, 895193, Note_off_c, 0, 32, 60
1, 895199, Control_c, 0, 64, 79
1, 895200, Note_on_c, 0, 62, 65
1, 895214, Control_c, 0, 64, 76
1, 895229, Control_c, 0, 64, 67
1, 895244, Control_c, 0, 64, 53
1, 895260, Control_c, 0, 64, 0
1, 895262, Note_off_c, 0, 62, 60
1, 895264, Note_on_c, 0, 33, 75
1, 895264, Note_on_c, 0, 45, 75
1, 895289, Note_on_c, 0, 53, 68
1, 895319, Control_c, 0, 64, 45
1, 895342, Control_c, 0, 64, 58
1, 895356, Control_c, 0, 64, 66
1, 895357, Note_off_c, 0, 45, 63
1, 895358, Note_off_c, 0, 33, 61
1, 895371, Control_c, 0, 64, 71
1, 895372, Note_off_c, 0, 53, 56
1, 895374, Note_on_c, 0, 65, 67
1, 895386, Control_c, 0, 64, 75
1, 895401, Control_c, 0, 64, 79
1, 895416, Control_c, 0, 64, 81
1, 895430, Note_off_c, 0, 65, 59
1, 895430, Control_c, 0, 64, 81
1, 895444, Note_on_c, 0, 61, 60
1, 895445, Control_c, 0, 64, 81
1, 895460, Control_c, 0, 64, 75
1, 895475, Control_c, 0, 64, 66
1, 895490, Control_c, 0, 64, 54
1, 895503, Note_on_c, 0, 33, 75
1, 895504, Note_on_c, 0, 45, 74
1, 895504, Control_c, 0, 64, 49
1, 895519, Note_on_c, 0, 65, 60
1, 895519, Control_c, 0, 64, 53
1, 895524, Note_off_c, 0, 61, 58
1, 895534, Control_c, 0, 64, 59
1, 895549, Control_c, 0, 64, 63
1, 895554, Note_off_c, 0, 45, 61
1, 895559, Note_off_c, 0, 65, 66
1, 895560, Note_off_c, 0, 33, 62
1, 895563, Control_c, 0, 64, 67
1, 895578, Control_c, 0, 64, 71
1, 895585, Note_on_c, 0, 53, 60
1, 895593, Control_c, 0, 64, 77
1, 895608, Control_c, 0, 64, 81
1, 895623, Control_c, 0, 64, 82
1, 895637, Control_c, 0, 64, 81
1, 895644, Note_on_c, 0, 65, 62
1, 895652, Control_c, 0, 64, 75
1, 895667, Control_c, 0, 64, 65
1, 895682, Control_c, 0, 64, 52
1, 895688, Note_off_c, 0, 53, 36
1, 895697, Control_c, 0, 64, 31
1, 895709, Note_off_c, 0, 65, 63
1, 895712, Control_c, 0, 64, 0
1, 895727, Control_c, 0, 64, 34
1, 895728, Note_on_c, 0, 46, 83
1, 895731, Note_on_c, 0, 34, 78
1, 895735, Note_on_c, 0, 60, 57
1, 895742, Control_c, 0, 64, 46
1, 895756, Control_c, 0, 64, 58
1, 895765, Note_off_c, 0, 34, 64
1, 895771, Control_c, 0, 64, 66
1, 895772, Note_off_c, 0, 46, 61
1, 895781, Note_off_c, 0, 60, 61
1, 895786, Control_c, 0, 64, 75
1, 895801, Control_c, 0, 64, 87
1, 895807, Note_on_c, 0, 64, 64
1, 895816, Control_c, 0, 64, 100
1, 895830, Control_c, 0, 64, 114
1, 895845, Control_c, 0, 64, 127
1, 895864, Note_off_c, 0, 64, 59
1, 895883, Note_on_c, 0, 52, 62
1, 895919, Control_c, 0, 64, 118
1, 895934, Control_c, 0, 64, 99
1, 895948, Control_c, 0, 64, 79
1, 895963, Control_c, 0, 64, 62
1, 895966, Note_off_c, 0, 52, 55
1, 895968, Note_on_c, 0, 46, 88
1, 895976, Note_on_c, 0, 34, 79
1, 895978, Note_on_c, 0, 64, 63
1, 895978, Control_c, 0, 64, 0
1, 896016, Note_off_c, 0, 64, 58
1, 896058, Note_on_c, 0, 60, 53
1, 896105, Note_off_c, 0, 60, 62
1, 896139, Note_on_c, 0, 64, 44
1, 896157, Note_off_c, 0, 34, 61
1, 896162, Note_off_c, 0, 64, 58
1, 896165, Control_c, 0, 64, 41
1, 896179, Control_c, 0, 64, 55
1, 896194, Control_c, 0, 64, 63
1, 896201, Note_off_c, 0, 46, 63
1, 896209, Control_c, 0, 64, 65
1, 896218, Note_on_c, 0, 64, 66
1, 896224, Control_c, 0, 64, 67
1, 896239, Control_c, 0, 64, 69
1, 896253, Control_c, 0, 64, 71
1, 896263, Note_off_c, 0, 64, 51
1, 896268, Control_c, 0, 64, 73
1, 896283, Control_c, 0, 64, 75
1, 896287, Note_on_c, 0, 76, 63
1, 896298, Control_c, 0, 64, 76
1, 896312, Control_c, 0, 64, 76
1, 896327, Control_c, 0, 64, 77
1, 896341, Note_off_c, 0, 76, 62
1, 896349, Note_on_c, 0, 72, 53
1, 896386, Control_c, 0, 64, 76
1, 896401, Control_c, 0, 64, 75
1, 896425, Note_on_c, 0, 68, 102
1, 896427, Note_on_c, 0, 76, 67
1, 896431, Note_off_c, 0, 72, 59
1, 896460, Note_off_c, 0, 68, 68
1, 896474, Note_off_c, 0, 76, 60
1, 896490, Control_c, 0, 64, 75
1, 896499, Note_on_c, 0, 64, 41
1, 896520, Control_c, 0, 64, 76
1, 896535, Control_c, 0, 64, 76
1, 896538, Note_off_c, 0, 64, 51
1, 896577, Note_on_c, 0, 76, 61
1, 896594, Control_c, 0, 64, 76
1, 896609, Control_c, 0, 64, 74
1, 896618, Note_off_c, 0, 76, 58
1, 896624, Control_c, 0, 64, 71
1, 896639, Control_c, 0, 64, 68
1, 896642, Note_on_c, 0, 72, 59
1, 896651, Note_on_c, 0, 63, 76
1, 896653, Control_c, 0, 64, 66
1, 896659, Note_on_c, 0, 64, 93
1, 896672, Note_off_c, 0, 63, 69
1, 896696, Control_c, 0, 64, 68
1, 896702, Note_off_c, 0, 72, 60
1, 896704, Note_off_c, 0, 64, 68
1, 896711, Control_c, 0, 64, 69
1, 896716, Note_on_c, 0, 76, 66
1, 896726, Control_c, 0, 64, 72
1, 896741, Control_c, 0, 64, 74
1, 896746, Note_off_c, 0, 76, 66
1, 896756, Control_c, 0, 64, 76
1, 896770, Control_c, 0, 64, 77
1, 896785, Control_c, 0, 64, 77
1, 896797, Note_on_c, 0, 76, 74
1, 896838, Control_c, 0, 64, 76
1, 896854, Control_c, 0, 64, 73
1, 896868, Control_c, 0, 64, 69
1, 896873, Note_off_c, 0, 76, 38
1, 896883, Control_c, 0, 64, 66
1, 896889, Note_on_c, 0, 68, 107
1, 896898, Control_c, 0, 64, 65
1, 896902, Note_on_c, 0, 88, 60
1, 896913, Control_c, 0, 64, 65
1, 896927, Control_c, 0, 64, 67
1, 896930, Note_off_c, 0, 68, 69
1, 896931, Note_off_c, 0, 88, 67
1, 896942, Control_c, 0, 64, 70
1, 896957, Control_c, 0, 64, 74
1, 896963, Note_on_c, 0, 84, 55
1, 896972, Control_c, 0, 64, 80
1, 896987, Control_c, 0, 64, 86
1, 897001, Control_c, 0, 64, 90
1, 897008, Note_off_c, 0, 84, 55
1, 897016, Control_c, 0, 64, 92
1, 897017, Note_on_c, 0, 88, 75
1, 897074, Note_off_c, 0, 88, 63
1, 897075, Control_c, 0, 64, 90
1, 897090, Control_c, 0, 64, 81
1, 897103, Note_on_c, 0, 63, 83
1, 897105, Control_c, 0, 64, 71
1, 897113, Note_on_c, 0, 64, 91
1, 897113, Note_on_c, 0, 76, 67
1, 897120, Control_c, 0, 64, 65
1, 897134, Control_c, 0, 64, 63
1, 897138, Note_off_c, 0, 63, 66
1, 897140, Note_off_c, 0, 76, 66
1, 897149, Control_c, 0, 64, 64
1, 897158, Note_off_c, 0, 64, 68
1, 897164, Control_c, 0, 64, 66
1, 897179, Control_c, 0, 64, 69
1, 897194, Control_c, 0, 64, 72
1, 897208, Control_c, 0, 64, 75
1, 897212, Note_on_c, 0, 76, 57
1, 897223, Control_c, 0, 64, 76
1, 897238, Control_c, 0, 64, 76
1, 897253, Note_off_c, 0, 76, 64
1, 897262, Note_on_c, 0, 72, 71
1, 897327, Control_c, 0, 64, 76
1, 897328, Note_off_c, 0, 72, 54
1, 897342, Control_c, 0, 64, 73
1, 897342, Note_on_c, 0, 76, 70
1, 897357, Control_c, 0, 64, 68
1, 897372, Control_c, 0, 64, 58
1, 897373, Note_off_c, 0, 76, 65
1, 897387, Control_c, 0, 64, 0
1, 897419, Note_on_c, 0, 64, 49
1, 897440, Note_off_c, 0, 64, 62
1, 897519, Note_on_c, 0, 64, 35
1, 897568, Note_off_c, 0, 64, 58
1, 897584, Note_on_c, 0, 32, 58
1, 897587, Note_on_c, 0, 60, 58
1, 897587, Control_c, 0, 64, 42
1, 897592, Note_on_c, 0, 44, 56
1, 897601, Control_c, 0, 64, 52
1, 897616, Control_c, 0, 64, 56
1, 897631, Control_c, 0, 64, 60
1, 897646, Control_c, 0, 64, 64
1, 897652, Note_off_c, 0, 44, 60
1, 897653, Note_off_c, 0, 60, 59
1, 897661, Control_c, 0, 64, 68
1, 897667, Note_off_c, 0, 32, 60
1, 897676, Control_c, 0, 64, 73
1, 897686, Note_on_c, 0, 64, 58
1, 897691, Control_c, 0, 64, 79
1, 897706, Control_c, 0, 64, 83
1, 897715, Note_off_c, 0, 64, 66
1, 897721, Control_c, 0, 64, 86
1, 897736, Control_c, 0, 64, 87
1, 897739, Note_on_c, 0, 52, 52
1, 897750, Control_c, 0, 64, 88
1, 897765, Control_c, 0, 64, 89
1, 897780, Control_c, 0, 64, 90
1, 897795, Control_c, 0, 64, 90
1, 897799, Note_on_c, 0, 32, 60
1, 897799, Note_on_c, 0, 44, 54
1, 897801, Note_off_c, 0, 52, 54
1, 897810, Control_c, 0, 64, 91
1, 897817, Note_on_c, 0, 64, 56
1, 897824, Control_c, 0, 64, 92
1, 897839, Control_c, 0, 64, 92
1, 897858, Note_off_c, 0, 64, 57
1, 897873, Note_off_c, 0, 32, 54
1, 897880, Note_on_c, 0, 60, 57
1, 897883, Note_off_c, 0, 44, 57
1, 897924, Note_off_c, 0, 60, 53
1, 897944, Note_on_c, 0, 64, 57
1, 897972, Control_c, 0, 64, 91
1, 897983, Note_off_c, 0, 64, 64
1, 897987, Control_c, 0, 64, 80
1, 898002, Control_c, 0, 64, 67
1, 898017, Control_c, 0, 64, 53
1, 898027, Note_on_c, 0, 45, 79
1, 898029, Note_on_c, 0, 33, 76
1, 898031, Control_c, 0, 64, 31
1, 898034, Note_on_c, 0, 64, 64
1, 898046, Control_c, 0, 64, 29
1, 898061, Control_c, 0, 64, 43
1, 898076, Control_c, 0, 64, 57
1, 898091, Control_c, 0, 64, 63
1, 898103, Note_off_c, 0, 64, 51
1, 898105, Note_off_c, 0, 33, 59
1, 898105, Note_off_c, 0, 45, 63
1, 898106, Control_c, 0, 64, 67
1, 898120, Control_c, 0, 64, 72
1, 898127, Note_on_c, 0, 76, 63
1, 898135, Control_c, 0, 64, 75
1, 898150, Control_c, 0, 64, 77
1, 898161, Note_off_c, 0, 76, 64
1, 898165, Control_c, 0, 64, 79
1, 898180, Control_c, 0, 64, 80
1, 898194, Control_c, 0, 64, 80
1, 898198, Note_on_c, 0, 72, 59
1, 898213, Note_on_c, 0, 45, 78
1, 898214, Note_on_c, 0, 33, 78
1, 898240, Note_off_c, 0, 72, 56
1, 898259, Note_off_c, 0, 45, 59
1, 898261, Note_on_c, 0, 76, 66
1, 898262, Note_off_c, 0, 33, 60
1, 898286, Note_off_c, 0, 76, 67
1, 898330, Note_on_c, 0, 64, 60
1, 898335, Control_c, 0, 64, 81
1, 898344, Note_on_c, 0, 33, 76
1, 898345, Note_on_c, 0, 45, 75
1, 898361, Note_off_c, 0, 64, 62
1, 898390, Note_off_c, 0, 45, 63
1, 898401, Note_off_c, 0, 33, 61
1, 898409, Control_c, 0, 64, 80
1, 898423, Control_c, 0, 64, 78
1, 898424, Note_on_c, 0, 64, 50
1, 898438, Control_c, 0, 64, 69
1, 898454, Control_c, 0, 64, 58
1, 898469, Control_c, 0, 64, 36
1, 898477, Note_on_c, 0, 46, 79
1, 898481, Note_on_c, 0, 34, 77
1, 898484, Control_c, 0, 64, 0
1, 898493, Note_off_c, 0, 64, 63
1, 898495, Note_on_c, 0, 60, 62
1, 898513, Control_c, 0, 64, 33
1, 898528, Control_c, 0, 64, 46
1, 898543, Control_c, 0, 64, 56
1, 898556, Note_off_c, 0, 46, 64
1, 898556, Note_off_c, 0, 60, 61
1, 898558, Control_c, 0, 64, 62
1, 898564, Note_off_c, 0, 34, 62
1, 898572, Control_c, 0, 64, 65
1, 898574, Note_on_c, 0, 64, 63
1, 898587, Control_c, 0, 64, 67
1, 898602, Control_c, 0, 64, 69
1, 898617, Control_c, 0, 64, 71
1, 898621, Note_off_c, 0, 64, 62
1, 898632, Control_c, 0, 64, 72
1, 898636, Note_on_c, 0, 52, 62
1, 898646, Control_c, 0, 64, 74
1, 898647, Note_on_c, 0, 46, 81
1, 898651, Note_on_c, 0, 34, 72
1, 898661, Control_c, 0, 64, 76
1, 898676, Control_c, 0, 64, 79
1, 898691, Control_c, 0, 64, 82
1, 898694, Note_off_c, 0, 46, 62
1, 898702, Note_off_c, 0, 34, 61
1, 898702, Note_on_c, 0, 64, 59
1, 898705, Control_c, 0, 64, 84
1, 898708, Note_off_c, 0, 52, 56
1, 898720, Control_c, 0, 64, 86
1, 898764, Note_off_c, 0, 64, 61
1, 898765, Control_c, 0, 64, 86
1, 898769, Note_on_c, 0, 60, 67
1, 898774, Note_on_c, 0, 34, 72
1, 898777, Note_on_c, 0, 46, 82
1, 898824, Control_c, 0, 64, 86
1, 898827, Note_off_c, 0, 60, 54
1, 898832, Note_off_c, 0, 46, 64
1, 898836, Note_off_c, 0, 34, 62
1, 898839, Control_c, 0, 64, 82
1, 898850, Note_on_c, 0, 65, 48
1, 898854, Control_c, 0, 64, 71
1, 898866, Note_on_c, 0, 64, 46
1, 898869, Control_c, 0, 64, 59
1, 898884, Control_c, 0, 64, 31
1, 898887, Note_off_c, 0, 65, 60
1, 898889, Note_off_c, 0, 64, 56
1, 898898, Control_c, 0, 64, 0
1, 898905, Note_on_c, 0, 47, 87
1, 898906, Note_on_c, 0, 35, 89
1, 898922, Note_on_c, 0, 55, 70
1, 898928, Control_c, 0, 64, 34
1, 898943, Control_c, 0, 64, 48
1, 898958, Control_c, 0, 64, 58
1, 898973, Control_c, 0, 64, 65
1, 898988, Control_c, 0, 64, 69
1, 898992, Note_on_c, 0, 67, 64
1, 898992, Note_off_c, 0, 35, 61
1, 898994, Note_off_c, 0, 47, 64
1, 899003, Control_c, 0, 64, 75
1, 899018, Control_c, 0, 64, 80
1, 899019, Note_off_c, 0, 55, 40
1, 899033, Control_c, 0, 64, 83
1, 899047, Control_c, 0, 64, 84
1, 899051, Note_off_c, 0, 67, 61
1, 899059, Note_on_c, 0, 63, 65
1, 899062, Control_c, 0, 64, 83
1, 899084, Control_c, 0, 64, 75
1, 899098, Control_c, 0, 64, 67
1, 899113, Control_c, 0, 64, 62
1, 899128, Control_c, 0, 64, 60
1, 899139, Note_on_c, 0, 47, 84
1, 899142, Note_on_c, 0, 35, 89
1, 899143, Control_c, 0, 64, 62
1, 899152, Note_on_c, 0, 67, 71
1, 899158, Control_c, 0, 64, 64
1, 899159, Note_off_c, 0, 63, 53
1, 899173, Control_c, 0, 64, 67
1, 899188, Control_c, 0, 64, 69
1, 899195, Note_off_c, 0, 67, 62
1, 899198, Note_off_c, 0, 47, 64
1, 899202, Control_c, 0, 64, 70
1, 899204, Note_off_c, 0, 35, 61
1, 899217, Note_on_c, 0, 55, 68
1, 899217, Control_c, 0, 64, 71
1, 899277, Control_c, 0, 64, 70
1, 899287, Note_off_c, 0, 55, 58
1, 899289, Note_on_c, 0, 67, 66
1, 899292, Control_c, 0, 64, 67
1, 899307, Control_c, 0, 64, 60
1, 899322, Control_c, 0, 64, 0
1, 899339, Note_off_c, 0, 67, 57
1, 899372, Note_on_c, 0, 62, 60
1, 899379, Note_on_c, 0, 48, 99
1, 899380, Note_on_c, 0, 36, 88
1, 899411, Note_off_c, 0, 36, 66
1, 899411, Control_c, 0, 64, 29
1, 899426, Note_off_c, 0, 48, 68
1, 899426, Control_c, 0, 64, 60
1, 899441, Control_c, 0, 64, 68
1, 899442, Note_off_c, 0, 62, 60
1, 899447, Note_on_c, 0, 66, 60
1, 899456, Control_c, 0, 64, 74
1, 899470, Control_c, 0, 64, 79
1, 899485, Control_c, 0, 64, 81
1, 899486, Note_off_c, 0, 66, 57
1, 899500, Control_c, 0, 64, 81
1, 899544, Control_c, 0, 64, 82
1, 899559, Control_c, 0, 64, 82
1, 899574, Control_c, 0, 64, 83
1, 899588, Control_c, 0, 64, 84
1, 899632, Note_on_c, 0, 70, 103
1, 899749, Note_off_c, 0, 70, 56
1, 899864, Note_on_c, 0, 66, 98
1, 899898, Note_off_c, 0, 66, 68
1, 899947, Note_on_c, 0, 82, 84
1, 899951, Control_c, 0, 64, 83
1, 899966, Control_c, 0, 64, 83
1, 899981, Control_c, 0, 64, 81
1, 899995, Control_c, 0, 64, 77
1, 900010, Control_c, 0, 64, 67
1, 900016, Note_on_c, 0, 90, 82
1, 900025, Control_c, 0, 64, 48
1, 900028, Note_off_c, 0, 82, 62
1, 900040, Control_c, 0, 64, 0
1, 900078, Note_on_c, 0, 49, 76
1, 900084, Note_on_c, 0, 37, 83
1, 900085, Note_on_c, 0, 94, 98
1, 900089, Note_off_c, 0, 90, 64
1, 900114, Note_on_c, 0, 95, 55
1, 900115, Control_c, 0, 64, 46
1, 900130, Control_c, 0, 64, 60
1, 900135, Note_off_c, 0, 95, 61
1, 900144, Note_off_c, 0, 94, 60
1, 900144, Control_c, 0, 64, 69
1, 900151, Note_on_c, 0, 90, 88
1, 900159, Control_c, 0, 64, 79
1, 900174, Control_c, 0, 64, 92
1, 900182, Note_off_c, 0, 37, 59
1, 900186, Note_off_c, 0, 49, 61
1, 900189, Control_c, 0, 64, 97
1, 900203, Note_off_c, 0, 90, 63
1, 900221, Note_on_c, 0, 94, 93
1, 900234, Control_c, 0, 64, 90
1, 900249, Control_c, 0, 64, 76
1, 900264, Control_c, 0, 64, 62
1, 900278, Control_c, 0, 64, 42
1, 900286, Note_on_c, 0, 50, 89
1, 900286, Note_on_c, 0, 90, 89
1, 900287, Note_on_c, 0, 38, 87
1, 900293, Note_off_c, 0, 94, 64
1, 900293, Control_c, 0, 64, 33
1, 900308, Control_c, 0, 64, 43
1, 900323, Control_c, 0, 64, 58
1, 900329, Note_off_c, 0, 90, 65
1, 900338, Control_c, 0, 64, 66
1, 900343, Note_off_c, 0, 50, 63
1, 900347, Note_off_c, 0, 38, 62
1, 900352, Control_c, 0, 64, 75
1, 900358, Note_on_c, 0, 82, 65
1, 900367, Control_c, 0, 64, 84
1, 900376, Note_off_c, 0, 82, 63
1, 900382, Control_c, 0, 64, 90
1, 900397, Control_c, 0, 64, 92
1, 900412, Control_c, 0, 64, 93
1, 900418, Note_on_c, 0, 78, 82
1, 900485, Control_c, 0, 64, 92
1, 900500, Control_c, 0, 64, 78
1, 900508, Note_off_c, 0, 78, 62
1, 900512, Note_on_c, 0, 50, 96
1, 900515, Note_on_c, 0, 38, 94
1, 900515, Control_c, 0, 64, 58
1, 900523, Note_on_c, 0, 70, 84
1, 900530, Control_c, 0, 64, 0
1, 900550, Note_on_c, 0, 40, 31
1, 900550, Note_off_c, 0, 40, 127
1, 900558, Note_off_c, 0, 70, 60
1, 900597, Note_on_c, 0, 82, 80
1, 900612, Control_c, 0, 64, 45
1, 900626, Control_c, 0, 64, 54
1, 900641, Control_c, 0, 64, 58
1, 900655, Note_off_c, 0, 82, 59
1, 900656, Control_c, 0, 64, 60
1, 900665, Note_on_c, 0, 78, 76
1, 900670, Control_c, 0, 64, 60
1, 900685, Control_c, 0, 64, 61
1, 900700, Control_c, 0, 64, 61
1, 900715, Control_c, 0, 64, 62
1, 900717, Note_off_c, 0, 78, 63
1, 900730, Control_c, 0, 64, 62
1, 900747, Note_on_c, 0, 66, 68
1, 900773, Note_off_c, 0, 66, 67
1, 900780, Note_off_c, 0, 50, 60
1, 900789, Control_c, 0, 64, 63
1, 900801, Note_off_c, 0, 38, 63
1, 900803, Control_c, 0, 64, 63
1, 900809, Note_on_c, 0, 78, 78
1, 900818, Control_c, 0, 64, 64
1, 900833, Control_c, 0, 64, 64
1, 900872, Note_on_c, 0, 70, 75
1, 900873, Note_off_c, 0, 78, 61
1, 900908, Control_c, 0, 64, 65
1, 900927, Note_off_c, 0, 70, 63
1, 900944, Note_on_c, 0, 49, 77
1, 900947, Note_on_c, 0, 37, 72
1, 900953, Control_c, 0, 64, 65
1, 900958, Note_on_c, 0, 66, 75
1, 900979, Note_off_c, 0, 66, 69
1, 901027, Note_off_c, 0, 49, 56
1, 901030, Note_off_c, 0, 37, 54
1, 901036, Note_on_c, 0, 66, 67
1, 901042, Control_c, 0, 64, 65
1, 901057, Control_c, 0, 64, 63
1, 901072, Control_c, 0, 64, 56
1, 901082, Note_off_c, 0, 66, 62
1, 901086, Control_c, 0, 64, 0
1, 901092, Note_on_c, 0, 70, 74
1, 901154, Note_on_c, 0, 36, 77
1, 901154, Note_off_c, 0, 70, 64
1, 901161, Note_on_c, 0, 48, 76
1, 901172, Note_on_c, 0, 58, 78
1, 901191, Control_c, 0, 64, 53
1, 901195, Note_off_c, 0, 48, 66
1, 901206, Control_c, 0, 64, 70
1, 901208, Note_off_c, 0, 36, 62
1, 901221, Control_c, 0, 64, 76
1, 901223, Note_off_c, 0, 58, 62
1, 901235, Control_c, 0, 64, 79
1, 901238, Note_on_c, 0, 66, 71
1, 901302, Note_off_c, 0, 66, 61
1, 901306, Note_on_c, 0, 42, 78
1, 901313, Note_on_c, 0, 54, 68
1, 901313, Note_on_c, 0, 70, 71
1, 901343, Note_off_c, 0, 54, 63
1, 901345, Note_off_c, 0, 70, 70
1, 901360, Note_off_c, 0, 42, 62
1, 901395, Note_on_c, 0, 70, 77
1, 901426, Note_off_c, 0, 70, 65
1, 901440, Note_on_c, 0, 36, 82
1, 901446, Note_on_c, 0, 48, 73
1, 901450, Note_on_c, 0, 82, 80
1, 901477, Note_off_c, 0, 48, 68
1, 901499, Note_off_c, 0, 36, 62
1, 901506, Note_on_c, 0, 78, 82
1, 901507, Note_off_c, 0, 82, 60
1, 901524, Control_c, 0, 64, 78
1, 901539, Control_c, 0, 64, 71
1, 901554, Control_c, 0, 64, 55
1, 901560, Note_off_c, 0, 78, 63
1, 901568, Control_c, 0, 64, 0
1, 901573, Note_on_c, 0, 49, 97
1, 901575, Note_on_c, 0, 37, 85
1, 901590, Note_on_c, 0, 66, 88
1, 901626, Note_off_c, 0, 49, 66
1, 901627, Control_c, 0, 64, 41
1, 901631, Note_off_c, 0, 37, 62
1, 901643, Control_c, 0, 64, 61
1, 901644, Note_off_c, 0, 66, 62
1, 901658, Control_c, 0, 64, 68
1, 901666, Note_on_c, 0, 78, 82
1, 901673, Control_c, 0, 64, 74
1, 901688, Control_c, 0, 64, 76
1, 901703, Control_c, 0, 64, 76
1, 901721, Note_on_c, 0, 54, 85
1, 901723, Note_off_c, 0, 78, 65
1, 901728, Note_on_c, 0, 42, 86
1, 901730, Note_on_c, 0, 70, 71
1, 901755, Note_off_c, 0, 70, 69
1, 901759, Note_off_c, 0, 54, 62
1, 901776, Note_off_c, 0, 42, 62
1, 901796, Note_on_c, 0, 70, 69
1, 901806, Control_c, 0, 64, 77
1, 901821, Control_c, 0, 64, 77
1, 901836, Note_off_c, 0, 70, 62
1, 901836, Control_c, 0, 64, 78
1, 901850, Control_c, 0, 64, 78
1, 901852, Note_on_c, 0, 49, 89
1, 901856, Note_on_c, 0, 37, 86
1, 901861, Note_on_c, 0, 82, 82
1, 901880, Control_c, 0, 64, 79
1, 901902, Note_off_c, 0, 49, 64
1, 901912, Note_off_c, 0, 37, 62
1, 901912, Note_off_c, 0, 82, 62
1, 901913, Note_on_c, 0, 78, 77
1, 901924, Control_c, 0, 64, 78
1, 901939, Control_c, 0, 64, 74
1, 901948, Note_off_c, 0, 78, 62
1, 901954, Control_c, 0, 64, 61
1, 901969, Control_c, 0, 64, 0
1, 901983, Note_on_c, 0, 38, 89
1, 901984, Note_on_c, 0, 50, 90
1, 901998, Note_on_c, 0, 66, 82
1, 902028, Control_c, 0, 64, 43
1, 902036, Note_off_c, 0, 50, 64
1, 902037, Note_off_c, 0, 38, 65
1, 902040, Note_off_c, 0, 66, 61
1, 902042, Control_c, 0, 64, 61
1, 902057, Control_c, 0, 64, 68
1, 902061, Note_on_c, 0, 78, 79
1, 902079, Control_c, 0, 64, 74
1, 902094, Control_c, 0, 64, 77
1, 902109, Control_c, 0, 64, 77
1, 902118, Note_off_c, 0, 78, 64
1, 902135, Note_on_c, 0, 54, 87
1, 902142, Note_on_c, 0, 42, 83
1, 902151, Note_on_c, 0, 70, 80
1, 902171, Note_off_c, 0, 42, 67
1, 902174, Note_off_c, 0, 70, 65
1, 902177, Note_off_c, 0, 54, 65
1, 902198, Control_c, 0, 64, 78
1, 902204, Note_on_c, 0, 82, 80
1, 902213, Control_c, 0, 64, 78
1, 902228, Control_c, 0, 64, 79
1, 902238, Note_off_c, 0, 82, 58
1, 902242, Control_c, 0, 64, 80
1, 902257, Control_c, 0, 64, 81
1, 902261, Note_on_c, 0, 58, 89
1, 902270, Note_on_c, 0, 46, 83
1, 902274, Note_on_c, 0, 66, 79
1, 902297, Note_off_c, 0, 46, 70
1, 902309, Note_off_c, 0, 58, 65
1, 902316, Control_c, 0, 64, 81
1, 902320, Note_off_c, 0, 66, 62
1, 902338, Note_on_c, 0, 78, 80
1, 902376, Control_c, 0, 64, 79
1, 902390, Control_c, 0, 64, 68
1, 902400, Note_off_c, 0, 78, 62
1, 902405, Note_on_c, 0, 50, 96
1, 902405, Note_on_c, 0, 62, 97
1, 902405, Control_c, 0, 64, 47
1, 902420, Control_c, 0, 64, 0
1, 902421, Note_on_c, 0, 70, 87
1, 902465, Control_c, 0, 64, 43
1, 902474, Note_off_c, 0, 70, 66
1, 902480, Control_c, 0, 64, 59
1, 902495, Control_c, 0, 64, 68
1, 902503, Note_on_c, 0, 82, 79
1, 902510, Control_c, 0, 64, 78
1, 902514, Note_off_c, 0, 50, 61
1, 902514, Note_off_c, 0, 62, 57
1, 902525, Control_c, 0, 64, 87
1, 902539, Control_c, 0, 64, 93
1, 902541, Note_off_c, 0, 82, 56
1, 902554, Control_c, 0, 64, 94
1, 902569, Control_c, 0, 64, 95
1, 902580, Note_on_c, 0, 66, 75
1, 902586, Note_on_c, 0, 68, 54
1, 902610, Note_off_c, 0, 66, 60
1, 902614, Control_c, 0, 64, 92
1, 902623, Note_off_c, 0, 68, 57
1, 902628, Control_c, 0, 64, 80
1, 902643, Control_c, 0, 64, 65
1, 902653, Note_on_c, 0, 64, 98
1, 902654, Note_on_c, 0, 78, 82
1, 902655, Note_on_c, 0, 52, 99
1, 902658, Control_c, 0, 64, 46
1, 902672, Control_c, 0, 64, 38
1, 902687, Control_c, 0, 64, 50
1, 902702, Control_c, 0, 64, 62
1, 902705, Note_on_c, 0, 79, 25
1, 902705, Note_off_c, 0, 79, 127
1, 902708, Note_off_c, 0, 52, 62
1, 902710, Note_off_c, 0, 78, 60
1, 902711, Note_off_c, 0, 64, 63
1, 902717, Control_c, 0, 64, 72
1, 902732, Control_c, 0, 64, 87
1, 902743, Note_on_c, 0, 68, 80
1, 902747, Control_c, 0, 64, 127
1, 902817, Note_off_c, 0, 68, 52
1, 902824, Note_on_c, 0, 80, 80
1, 902860, Note_on_c, 0, 81, 45
1, 902887, Note_off_c, 0, 81, 56
1, 902891, Note_off_c, 0, 80, 59
1, 902902, Control_c, 0, 64, 73
1, 902917, Control_c, 0, 64, 0
1, 902951, Note_on_c, 0, 53, 102
1, 902951, Note_on_c, 0, 65, 101
1, 903021, Control_c, 0, 64, 46
1, 903036, Control_c, 0, 64, 63
1, 903051, Control_c, 0, 64, 73
1, 903065, Control_c, 0, 64, 97
1, 903080, Control_c, 0, 64, 127
1, 903090, Note_on_c, 0, 69, 81
1, 903114, Note_off_c, 0, 65, 57
1, 903139, Note_off_c, 0, 53, 57
1, 903142, Note_off_c, 0, 69, 61
1, 903164, Note_on_c, 0, 81, 89
1, 903165, Note_on_c, 0, 73, 68
1, 903183, Note_off_c, 0, 73, 66
1, 903209, Note_off_c, 0, 81, 64
1, 903238, Note_on_c, 0, 65, 98
1, 903239, Note_on_c, 0, 61, 90
1, 903242, Note_on_c, 0, 57, 84
1, 903243, Note_on_c, 0, 53, 86
1, 903262, Note_on_c, 0, 81, 77
1, 903279, Note_off_c, 0, 65, 66
1, 903285, Note_off_c, 0, 53, 60
1, 903292, Note_off_c, 0, 61, 62
1, 903298, Note_off_c, 0, 57, 61
1, 903313, Note_off_c, 0, 81, 63
1, 903329, Note_on_c, 0, 93, 85
1, 903330, Note_on_c, 0, 85, 78
1, 903357, Note_off_c, 0, 85, 66
1, 903368, Note_off_c, 0, 93, 66
1, 903373, Poly_aftertouch_c, 0, 83, 0
1, 903388, Note_on_c, 0, 81, 85
1, 903416, Note_off_c, 0, 81, 63
1, 903467, Control_c, 0, 64, 94
1, 903482, Control_c, 0, 64, 60
1, 903496, Control_c, 0, 64, 0
1, 903503, Note_on_c, 0, 48, 94
1, 903503, Note_on_c, 0, 60, 100
1, 903578, Control_c, 0, 64, 39
1, 903585, Note_on_c, 0, 68, 45
1, 903593, Control_c, 0, 64, 66
1, 903608, Control_c, 0, 64, 73
1, 903622, Control_c, 0, 64, 80
1, 903635, Note_off_c, 0, 68, 61
1, 903637, Control_c, 0, 64, 83
1, 903652, Control_c, 0, 64, 86
1, 903657, Note_off_c, 0, 48, 60
1, 903658, Note_off_c, 0, 60, 61
1, 903660, Note_on_c, 0, 76, 64
1, 903662, Note_on_c, 0, 80, 72
1, 903667, Control_c, 0, 64, 88
1, 903682, Control_c, 0, 64, 90
1, 903691, Note_off_c, 0, 76, 65
1, 903696, Control_c, 0, 64, 92
1, 903711, Control_c, 0, 64, 92
1, 903716, Note_off_c, 0, 80, 61
1, 903726, Control_c, 0, 64, 93
1, 903741, Control_c, 0, 64, 94
1, 903766, Note_on_c, 0, 60, 96
1, 903767, Note_on_c, 0, 56, 96
1, 903768, Note_on_c, 0, 52, 91
1, 903769, Note_on_c, 0, 48, 85
1, 903777, Note_on_c, 0, 80, 83
1, 903793, Note_off_c, 0, 48, 62
1, 903807, Note_off_c, 0, 60, 67
1, 903817, Note_off_c, 0, 52, 60
1, 903817, Note_off_c, 0, 56, 62
1, 903835, Note_off_c, 0, 80, 61
1, 903839, Note_on_c, 0, 87, 80
1, 903851, Note_on_c, 0, 92, 67
1, 903888, Control_c, 0, 64, 94
1, 903907, Note_off_c, 0, 87, 66
1, 903908, Note_off_c, 0, 92, 64
1, 903924, Note_on_c, 0, 80, 84
1, 903951, Note_off_c, 0, 80, 61
1, 903993, Control_c, 0, 64, 92
1, 904008, Control_c, 0, 64, 76
1, 904022, Control_c, 0, 64, 55
1, 904030, Note_on_c, 0, 63, 100
1, 904037, Note_on_c, 0, 51, 95
1, 904038, Control_c, 0, 64, 0
1, 904097, Control_c, 0, 64, 52
1, 904112, Control_c, 0, 64, 65
1, 904127, Control_c, 0, 64, 73
1, 904142, Note_off_c, 0, 51, 58
1, 904142, Control_c, 0, 64, 83
1, 904143, Note_off_c, 0, 63, 59
1, 904155, Note_on_c, 0, 67, 75
1, 904157, Control_c, 0, 64, 89
1, 904172, Control_c, 0, 64, 90
1, 904210, Note_off_c, 0, 67, 59
1, 904220, Note_on_c, 0, 63, 99
1, 904229, Note_on_c, 0, 51, 85
1, 904231, Control_c, 0, 64, 90
1, 904232, Note_on_c, 0, 79, 86
1, 904240, Note_on_c, 0, 71, 53
1, 904260, Control_c, 0, 64, 92
1, 904263, Note_off_c, 0, 71, 60
1, 904275, Note_off_c, 0, 79, 63
1, 904275, Control_c, 0, 64, 93
1, 904290, Control_c, 0, 64, 94
1, 904305, Note_off_c, 0, 51, 59
1, 904318, Note_off_c, 0, 63, 58
1, 904327, Control_c, 0, 64, 94
1, 904345, Note_on_c, 0, 79, 66
1, 904356, Control_c, 0, 64, 95
1, 904361, Note_on_c, 0, 81, 53
1, 904380, Note_on_c, 0, 59, 90
1, 904384, Note_off_c, 0, 81, 60
1, 904386, Note_on_c, 0, 63, 90
1, 904389, Note_on_c, 0, 55, 79
1, 904393, Note_off_c, 0, 79, 65
1, 904402, Note_on_c, 0, 83, 81
1, 904404, Note_on_c, 0, 91, 87
1, 904407, Note_on_c, 0, 51, 66
1, 904416, Control_c, 0, 64, 95
1, 904431, Control_c, 0, 64, 96
1, 904431, Note_off_c, 0, 59, 65
1, 904431, Note_off_c, 0, 63, 61
1, 904435, Note_off_c, 0, 83, 61
1, 904444, Note_off_c, 0, 51, 59
1, 904445, Note_off_c, 0, 91, 66
1, 904449, Note_off_c, 0, 55, 64
1, 904460, Note_on_c, 0, 79, 82
1, 904490, Control_c, 0, 64, 93
1, 904491, Note_off_c, 0, 79, 66
1, 904505, Control_c, 0, 64, 75
1, 904519, Control_c, 0, 64, 53
1, 904534, Control_c, 0, 64, 0
1, 904538, Note_on_c, 0, 58, 89
1, 904540, Note_on_c, 0, 46, 95
1, 904554, Note_on_c, 0, 56, 68
1, 904580, Note_on_c, 0, 45, 42
1, 904593, Control_c, 0, 64, 51
1, 904608, Control_c, 0, 64, 65
1, 904618, Note_off_c, 0, 45, 34
1, 904622, Note_on_c, 0, 66, 78
1, 904623, Control_c, 0, 64, 74
1, 904625, Note_off_c, 0, 56, 57
1, 904637, Control_c, 0, 64, 84
1, 904652, Control_c, 0, 64, 89
1, 904655, Note_off_c, 0, 46, 60
1, 904667, Control_c, 0, 64, 89
1, 904674, Note_off_c, 0, 66, 62
1, 904680, Note_off_c, 0, 58, 58
1, 904683, Note_on_c, 0, 74, 67
1, 904690, Note_on_c, 0, 78, 75
1, 904708, Note_off_c, 0, 74, 65
1, 904738, Note_off_c, 0, 78, 65
1, 904762, Note_on_c, 0, 54, 88
1, 904765, Note_on_c, 0, 58, 96
1, 904765, Note_on_c, 0, 50, 80
1, 904768, Note_on_c, 0, 46, 77
1, 904794, Note_on_c, 0, 78, 79
1, 904808, Note_off_c, 0, 46, 64
1, 904815, Note_off_c, 0, 50, 63
1, 904816, Note_off_c, 0, 58, 63
1, 904819, Note_off_c, 0, 54, 64
1, 904861, Note_off_c, 0, 78, 61
1, 904862, Note_on_c, 0, 86, 78
1, 904867, Note_on_c, 0, 90, 80
1, 904920, Note_off_c, 0, 90, 63
1, 904923, Note_off_c, 0, 86, 63
1, 904931, Note_on_c, 0, 78, 76
1, 904965, Control_c, 0, 64, 88
1, 904979, Note_off_c, 0, 78, 63
1, 904979, Control_c, 0, 64, 78
1, 904994, Control_c, 0, 64, 61
1, 905009, Control_c, 0, 64, 0
1, 905030, Note_on_c, 0, 50, 101
1, 905030, Note_on_c, 0, 62, 99
1, 905085, Note_off_c, 0, 62, 66
1, 905090, Control_c, 0, 64, 59
1, 905105, Control_c, 0, 64, 74
1, 905114, Note_off_c, 0, 50, 65
1, 905120, Control_c, 0, 64, 93
1, 905135, Control_c, 0, 64, 127
1, 905284, Note_on_c, 0, 54, 44
1, 905296, Note_on_c, 0, 30, 59
1, 905307, Note_on_c, 0, 42, 42
1, 905349, Note_off_c, 0, 30, 58
1, 905349, Note_off_c, 0, 42, 52
1, 905367, Note_on_c, 0, 66, 48
1, 905407, Note_off_c, 0, 66, 59
1, 905439, Note_on_c, 0, 62, 51
1, 905453, Note_on_c, 0, 31, 61
1, 905454, Note_on_c, 0, 43, 57
1, 905459, Note_off_c, 0, 54, 35
1, 905485, Note_off_c, 0, 31, 63
1, 905489, Note_off_c, 0, 43, 64
1, 905504, Note_off_c, 0, 62, 50
1, 905514, Note_on_c, 0, 66, 52
1, 905573, Note_off_c, 0, 66, 55
1, 905605, Note_on_c, 0, 33, 67
1, 905607, Note_on_c, 0, 45, 68
1, 905612, Note_on_c, 0, 54, 44
1, 905643, Note_off_c, 0, 45, 63
1, 905645, Note_off_c, 0, 33, 62
1, 905658, Note_off_c, 0, 54, 54
1, 905692, Note_on_c, 0, 66, 55
1, 905733, Note_off_c, 0, 66, 63
1, 905755, Note_on_c, 0, 35, 68
1, 905757, Note_on_c, 0, 47, 68
1, 905766, Note_on_c, 0, 57, 64
1, 905793, Note_off_c, 0, 47, 62
1, 905800, Note_off_c, 0, 35, 60
1, 905841, Note_off_c, 0, 57, 51
1, 905854, Note_on_c, 0, 69, 62
1, 905890, Note_off_c, 0, 69, 62
1, 905898, Note_on_c, 0, 37, 72
1, 905902, Note_on_c, 0, 49, 69
1, 905903, Note_on_c, 0, 66, 51
1, 905947, Note_off_c, 0, 49, 60
1, 905948, Note_off_c, 0, 37, 61
1, 905954, Note_on_c, 0, 69, 63
1, 905974, Note_off_c, 0, 66, 52
1, 906012, Note_off_c, 0, 69, 61
1, 906028, Note_on_c, 0, 57, 74
1, 906039, Note_on_c, 0, 38, 75
1, 906039, Note_on_c, 0, 50, 80
1, 906073, Note_off_c, 0, 57, 61
1, 906090, Note_off_c, 0, 38, 62
1, 906091, Note_off_c, 0, 50, 62
1, 906097, Note_on_c, 0, 69, 63
1, 906121, Control_c, 0, 64, 87
1, 906130, Note_off_c, 0, 69, 62
1, 906136, Control_c, 0, 64, 55
1, 906151, Control_c, 0, 64, 0
1, 906166, Note_on_c, 0, 62, 78
1, 906177, Note_on_c, 0, 40, 79
1, 906181, Note_on_c, 0, 52, 78
1, 906209, Control_c, 0, 64, 49
1, 906224, Control_c, 0, 64, 65
1, 906227, Note_off_c, 0, 52, 61
1, 906229, Note_on_c, 0, 74, 63
1, 906234, Note_off_c, 0, 62, 59
1, 906239, Control_c, 0, 64, 74
1, 906242, Note_off_c, 0, 40, 62
1, 906254, Control_c, 0, 64, 94
1, 906269, Control_c, 0, 64, 127
1, 906282, Note_on_c, 0, 69, 71
1, 906291, Note_off_c, 0, 74, 64
1, 906309, Note_on_c, 0, 42, 80
1, 906310, Note_on_c, 0, 54, 82
1, 906319, Note_off_c, 0, 69, 61
1, 906339, Note_on_c, 0, 74, 68
1, 906360, Note_off_c, 0, 42, 64
1, 906366, Note_off_c, 0, 54, 61
1, 906398, Note_off_c, 0, 74, 63
1, 906413, Note_on_c, 0, 62, 73
1, 906434, Note_on_c, 0, 43, 81
1, 906434, Note_on_c, 0, 55, 83
1, 906455, Note_off_c, 0, 62, 62
1, 906475, Note_on_c, 0, 74, 67
1, 906486, Note_off_c, 0, 43, 62
1, 906486, Note_off_c, 0, 55, 64
1, 906507, Note_off_c, 0, 74, 64
1, 906550, Note_on_c, 0, 66, 76
1, 906570, Note_on_c, 0, 45, 84
1, 906571, Note_on_c, 0, 57, 82
1, 906617, Note_off_c, 0, 45, 63
1, 906620, Note_on_c, 0, 78, 80
1, 906622, Note_off_c, 0, 57, 63
1, 906631, Note_off_c, 0, 66, 58
1, 906665, Note_on_c, 0, 73, 71
1, 906680, Note_off_c, 0, 78, 62
1, 906691, Note_on_c, 0, 47, 81
1, 906697, Note_on_c, 0, 59, 81
1, 906719, Note_off_c, 0, 73, 64
1, 906729, Note_on_c, 0, 74, 44
1, 906741, Note_on_c, 0, 78, 74
1, 906744, Note_off_c, 0, 59, 65
1, 906750, Note_off_c, 0, 47, 63
1, 906756, Note_off_c, 0, 74, 56
1, 906795, Note_off_c, 0, 78, 63
1, 906807, Note_on_c, 0, 66, 75
1, 906822, Note_on_c, 0, 49, 85
1, 906822, Note_on_c, 0, 61, 87
1, 906852, Note_off_c, 0, 66, 63
1, 906866, Note_on_c, 0, 78, 78
1, 906872, Note_off_c, 0, 49, 64
1, 906875, Note_off_c, 0, 61, 61
1, 906915, Note_off_c, 0, 78, 63
1, 906929, Control_c, 0, 64, 76
1, 906944, Control_c, 0, 64, 0
1, 906944, Note_on_c, 0, 69, 76
1, 906952, Note_on_c, 0, 50, 89
1, 906953, Note_on_c, 0, 62, 94
1, 906983, Note_off_c, 0, 69, 60
1, 907003, Note_on_c, 0, 81, 79
1, 907003, Control_c, 0, 64, 35
1, 907006, Note_off_c, 0, 50, 63
1, 907008, Note_off_c, 0, 62, 65
1, 907018, Control_c, 0, 64, 63
1, 907032, Control_c, 0, 64, 73
1, 907047, Control_c, 0, 64, 96
1, 907054, Note_on_c, 0, 78, 83
1, 907060, Note_off_c, 0, 81, 65
1, 907062, Control_c, 0, 64, 127
1, 907075, Note_on_c, 0, 52, 89
1, 907081, Note_on_c, 0, 64, 85
1, 907120, Note_off_c, 0, 78, 64
1, 907124, Note_on_c, 0, 81, 55
1, 907126, Note_off_c, 0, 64, 65
1, 907139, Note_off_c, 0, 52, 61
1, 907161, Note_off_c, 0, 81, 65
1, 907185, Note_on_c, 0, 74, 88
1, 907201, Note_on_c, 0, 66, 88
1, 907203, Note_on_c, 0, 54, 87
1, 907230, Note_off_c, 0, 74, 63
1, 907247, Note_on_c, 0, 86, 83
1, 907255, Note_off_c, 0, 54, 63
1, 907257, Note_off_c, 0, 66, 62
1, 907314, Note_on_c, 0, 81, 88
1, 907317, Note_off_c, 0, 86, 64
1, 907332, Note_on_c, 0, 55, 89
1, 907332, Note_on_c, 0, 67, 91
1, 907361, Note_off_c, 0, 81, 61
1, 907376, Note_on_c, 0, 86, 73
1, 907381, Note_off_c, 0, 55, 64
1, 907382, Note_off_c, 0, 67, 66
1, 907404, Note_off_c, 0, 86, 65
1, 907451, Note_on_c, 0, 57, 97
1, 907451, Note_on_c, 0, 69, 93
1, 907452, Note_on_c, 0, 78, 85
1, 907501, Note_off_c, 0, 69, 63
1, 907503, Note_off_c, 0, 57, 63
1, 907516, Note_on_c, 0, 90, 79
1, 907516, Note_off_c, 0, 78, 49
1, 907559, Control_c, 0, 64, 83
1, 907570, Note_on_c, 0, 86, 78
1, 907574, Control_c, 0, 64, 57
1, 907575, Note_off_c, 0, 90, 63
1, 907581, Note_on_c, 0, 59, 91
1, 907582, Note_on_c, 0, 71, 93
1, 907588, Control_c, 0, 64, 0
1, 907618, Control_c, 0, 64, 34
1, 907633, Control_c, 0, 64, 60
1, 907638, Note_off_c, 0, 71, 65
1, 907639, Note_on_c, 0, 90, 86
1, 907641, Note_off_c, 0, 59, 63
1, 907644, Note_off_c, 0, 86, 63
1, 907648, Control_c, 0, 64, 77
1, 907662, Control_c, 0, 64, 107
1, 907677, Control_c, 0, 64, 127
1, 907705, Note_off_c, 0, 90, 63
1, 907722, Note_on_c, 0, 73, 98
1, 907723, Note_on_c, 0, 61, 86
1, 907724, Note_on_c, 0, 81, 80
1, 907765, Note_off_c, 0, 81, 59
1, 907774, Note_off_c, 0, 61, 61
1, 907777, Note_off_c, 0, 73, 62
1, 907788, Note_on_c, 0, 95, 85
1, 907844, Note_off_c, 0, 95, 65
1, 907850, Note_on_c, 0, 90, 84
1, 907850, Note_on_c, 0, 62, 92
1, 907852, Note_on_c, 0, 74, 97
1, 907892, Note_off_c, 0, 90, 64
1, 907906, Note_off_c, 0, 74, 65
1, 907907, Note_off_c, 0, 62, 61
1, 907919, Note_on_c, 0, 96, 64
1, 907924, Note_on_c, 0, 95, 76
1, 907954, Note_off_c, 0, 95, 58
1, 907960, Note_off_c, 0, 96, 64
1, 907979, Note_on_c, 0, 86, 80
1, 907999, Note_on_c, 0, 76, 95
1, 908000, Note_on_c, 0, 64, 88
1, 908018, Control_c, 0, 64, 80
1, 908034, Note_off_c, 0, 86, 60
1, 908034, Control_c, 0, 64, 64
1, 908042, Note_on_c, 0, 98, 87
1, 908056, Control_c, 0, 64, 58
1, 908068, Note_off_c, 0, 64, 65
1, 908071, Control_c, 0, 64, 62
1, 908073, Note_off_c, 0, 76, 65
1, 908086, Control_c, 0, 64, 70
1, 908100, Control_c, 0, 64, 88
1, 908109, Note_on_c, 0, 93, 83
1, 908109, Note_off_c, 0, 98, 65
1, 908115, Control_c, 0, 64, 127
1, 908178, Note_on_c, 0, 98, 84
1, 908182, Note_on_c, 0, 78, 98
1, 908189, Note_off_c, 0, 93, 66
1, 908191, Note_on_c, 0, 66, 85
1, 908208, Note_off_c, 0, 98, 65
1, 908209, Note_on_c, 0, 79, 74
1, 908232, Note_off_c, 0, 66, 60
1, 908233, Note_off_c, 0, 79, 70
1, 908239, Note_off_c, 0, 78, 62
1, 908360, Note_on_c, 0, 79, 98
1, 908360, Note_on_c, 0, 67, 100
1, 908396, Note_off_c, 0, 79, 67
1, 908414, Note_off_c, 0, 67, 65
1, 908476, Poly_aftertouch_c, 0, 77, 0
1, 908694, Control_c, 0, 64, 81
1, 908696, Note_on_c, 0, 38, 106
1, 908700, Note_on_c, 0, 26, 102
1, 908700, Note_on_c, 0, 74, 93
1, 908701, Note_on_c, 0, 69, 98
1, 908703, Note_on_c, 0, 81, 95
1, 908704, Note_on_c, 0, 78, 85
1, 908709, Control_c, 0, 64, 58
1, 908723, Control_c, 0, 64, 0
1, 908798, Control_c, 0, 64, 57
1, 908810, Note_off_c, 0, 26, 64
1, 908819, Control_c, 0, 64, 73
1, 908835, Note_off_c, 0, 38, 64
1, 908835, Control_c, 0, 64, 104
1, 908846, Note_off_c, 0, 69, 57
1, 908847, Note_off_c, 0, 74, 62
1, 908850, Control_c, 0, 64, 127
1, 908900, Note_off_c, 0, 78, 61
1, 908944, Note_off_c, 0, 81, 59
1, 908971, Note_on_c, 0, 76, 96
1, 908975, Note_on_c, 0, 79, 94
1, 909029, Note_off_c, 0, 76, 62
1, 909099, Note_off_c, 0, 79, 49
1, 909140, Note_on_c, 0, 57, 83
1, 909141, Note_on_c, 0, 78, 95
1, 909144, Note_on_c, 0, 74, 94
1, 909147, Note_on_c, 0, 67, 73
1, 909222, Note_off_c, 0, 74, 53
1, 909241, Note_off_c, 0, 78, 62
1, 909251, Note_off_c, 0, 67, 60
1, 909295, Note_on_c, 0, 79, 94
1, 909296, Note_on_c, 0, 76, 96
1, 909311, Note_off_c, 0, 57, 58
1, 909341, Note_off_c, 0, 76, 63
1, 909364, Note_off_c, 0, 79, 64
1, 909444, Note_on_c, 0, 69, 86
1, 909444, Note_on_c, 0, 74, 94
1, 909444, Note_on_c, 0, 81, 96
1, 909447, Note_on_c, 0, 62, 78
1, 909447, Note_on_c, 0, 78, 90
1, 909448, Note_on_c, 0, 66, 74
1, 909519, Note_off_c, 0, 74, 58
1, 909525, Note_off_c, 0, 78, 63
1, 909537, Note_off_c, 0, 81, 59
1, 909564, Note_off_c, 0, 66, 61
1, 909565, Note_off_c, 0, 69, 57
1, 909576, Note_off_c, 0, 62, 60
1, 909597, Note_on_c, 0, 76, 97
1, 909601, Note_on_c, 0, 79, 88
1, 909653, Note_off_c, 0, 76, 62
1, 909668, Note_off_c, 0, 79, 63
1, 909710, Note_on_c, 0, 57, 74
1, 909722, Note_on_c, 0, 64, 70
1, 909725, Note_on_c, 0, 74, 91
1, 909725, Note_on_c, 0, 78, 87
1, 909729, Note_on_c, 0, 67, 77
1, 909794, Note_off_c, 0, 78, 61
1, 909800, Note_off_c, 0, 74, 58
1, 909827, Note_off_c, 0, 64, 59
1, 909834, Note_on_c, 0, 76, 95
1, 909835, Note_on_c, 0, 79, 89
1, 909838, Note_off_c, 0, 67, 60
1, 909856, Note_off_c, 0, 57, 61
1, 909889, Note_off_c, 0, 76, 62
1, 909909, Note_off_c, 0, 79, 65
1, 909946, Note_on_c, 0, 62, 57
1, 909951, Note_on_c, 0, 69, 87
1, 909956, Note_on_c, 0, 81, 92
1, 909957, Note_on_c, 0, 74, 89
1, 909962, Note_on_c, 0, 78, 79
1, 909975, Note_on_c, 0, 66, 59
1, 909989, Note_off_c, 0, 62, 61
1, 910009, Note_off_c, 0, 66, 62
1, 910016, Note_off_c, 0, 69, 62
1, 910018, Note_off_c, 0, 74, 54
1, 910023, Note_off_c, 0, 78, 59
1, 910041, Note_off_c, 0, 81, 59
1, 910071, Note_on_c, 0, 67, 85
1, 910071, Note_on_c, 0, 76, 96
1, 910077, Note_on_c, 0, 79, 90
1, 910125, Note_off_c, 0, 76, 63
1, 910151, Note_off_c, 0, 79, 64
1, 910163, Note_off_c, 0, 67, 59
1, 910178, Note_on_c, 0, 57, 83
1, 910181, Note_on_c, 0, 78, 94
1, 910187, Note_on_c, 0, 64, 64
1, 910190, Note_on_c, 0, 74, 87
1, 910248, Note_off_c, 0, 64, 62
1, 910256, Note_off_c, 0, 74, 61
1, 910274, Note_off_c, 0, 78, 0
1, 910278, Note_on_c, 0, 67, 80
1, 910287, Note_on_c, 0, 79, 92
1, 910288, Note_on_c, 0, 76, 92
1, 910291, Note_on_c, 0, 78, 42
1, 910324, Note_off_c, 0, 78, 58
1, 910332, Note_off_c, 0, 67, 65
1, 910334, Note_off_c, 0, 57, 62
1, 910363, Note_off_c, 0, 76, 59
1, 910376, Control_c, 0, 64, 90
1, 910386, Note_off_c, 0, 79, 63
1, 910390, Control_c, 0, 64, 65
1, 910405, Control_c, 0, 64, 35
1, 910412, Note_on_c, 0, 66, 91
1, 910413, Note_on_c, 0, 62, 86
1, 910417, Note_on_c, 0, 78, 75
1, 910420, Control_c, 0, 64, 0
1, 910421, Note_on_c, 0, 81, 88
1, 910422, Note_on_c, 0, 74, 87
1, 910423, Note_on_c, 0, 69, 66
1, 910440, Note_off_c, 0, 69, 67
1, 910451, Control_c, 0, 64, 43
1, 910453, Note_off_c, 0, 66, 65
1, 910462, Note_off_c, 0, 62, 66
1, 910466, Control_c, 0, 64, 63
1, 910471, Note_off_c, 0, 74, 64
1, 910480, Control_c, 0, 64, 77
1, 910488, Note_off_c, 0, 81, 61
1, 910491, Note_off_c, 0, 78, 59
1, 910495, Control_c, 0, 64, 127
1, 910585, Note_on_c, 0, 75, 43
1, 910611, Note_off_c, 0, 75, 55
1, 910620, Note_on_c, 0, 37, 83
1, 910626, Note_on_c, 0, 25, 98
1, 910628, Control_c, 0, 64, 93
1, 910643, Control_c, 0, 64, 58
1, 910658, Control_c, 0, 64, 0
1, 910679, Note_on_c, 0, 74, 86
1, 910681, Note_on_c, 0, 83, 90
1, 910682, Note_on_c, 0, 71, 85
1, 910682, Note_on_c, 0, 78, 79
1, 910700, Note_off_c, 0, 37, 63
1, 910717, Note_off_c, 0, 25, 62
1, 910718, Control_c, 0, 64, 47
1, 910732, Control_c, 0, 64, 62
1, 910736, Note_off_c, 0, 83, 64
1, 910747, Control_c, 0, 64, 75
1, 910749, Note_off_c, 0, 74, 63
1, 910753, Note_off_c, 0, 71, 62
1, 910757, Note_off_c, 0, 78, 63
1, 910762, Control_c, 0, 64, 103
1, 910777, Control_c, 0, 64, 127
1, 910808, Note_on_c, 0, 35, 96
1, 910812, Note_on_c, 0, 23, 92
1, 910880, Control_c, 0, 64, 98
1, 910895, Control_c, 0, 64, 69
1, 910910, Control_c, 0, 64, 38
1, 910913, Note_off_c, 0, 35, 54
1, 910923, Control_c, 0, 64, 0
1, 910926, Note_off_c, 0, 23, 63
1, 911012, Note_on_c, 0, 33, 99
1, 911014, Note_on_c, 0, 21, 94
1, 911018, Note_on_c, 0, 76, 88
1, 911019, Note_on_c, 0, 69, 77
1, 911025, Note_on_c, 0, 73, 70
1, 911025, Note_on_c, 0, 64, 75
1, 911078, Note_off_c, 0, 21, 65
1, 911080, Control_c, 0, 64, 60
1, 911087, Note_off_c, 0, 69, 58
1, 911092, Note_off_c, 0, 64, 61
1, 911094, Control_c, 0, 64, 84
1, 911105, Note_off_c, 0, 33, 65
1, 911109, Control_c, 0, 64, 127
1, 911129, Note_off_c, 0, 73, 59
1, 911212, Note_on_c, 0, 74, 73
1, 911213, Note_on_c, 0, 71, 66
1, 911232, Note_off_c, 0, 76, 51
1, 911255, Note_off_c, 0, 71, 58
1, 911296, Note_on_c, 0, 52, 83
1, 911323, Note_off_c, 0, 74, 55
1, 911328, Note_on_c, 0, 73, 74
1, 911337, Note_on_c, 0, 69, 59
1, 911363, Note_off_c, 0, 52, 60
1, 911417, Note_on_c, 0, 54, 86
1, 911433, Note_on_c, 0, 74, 75
1, 911433, Note_on_c, 0, 71, 68
1, 911446, Note_off_c, 0, 73, 56
1, 911457, Note_off_c, 0, 69, 31
1, 911475, Note_off_c, 0, 71, 58
1, 911499, Note_off_c, 0, 54, 61
1, 911501, Note_off_c, 0, 74, 62
1, 911525, Control_c, 0, 64, 107
1, 911540, Control_c, 0, 64, 93
1, 911545, Note_on_c, 0, 55, 90
1, 911554, Control_c, 0, 64, 92
1, 911555, Note_on_c, 0, 76, 79
1, 911558, Note_on_c, 0, 73, 73
1, 911559, Note_on_c, 0, 69, 67
1, 911569, Control_c, 0, 64, 93
1, 911584, Control_c, 0, 64, 98
1, 911597, Note_off_c, 0, 73, 57
1, 911599, Control_c, 0, 64, 116
1, 911601, Note_off_c, 0, 69, 56
1, 911614, Control_c, 0, 64, 127
1, 911618, Note_off_c, 0, 55, 62
1, 911621, Note_off_c, 0, 76, 56
1, 911666, Note_on_c, 0, 71, 78
1, 911673, Note_on_c, 0, 74, 73
1, 911719, Note_off_c, 0, 71, 63
1, 911727, Note_on_c, 0, 57, 91
1, 911731, Note_off_c, 0, 74, 62
1, 911786, Note_on_c, 0, 73, 80
1, 911803, Note_on_c, 0, 69, 71
1, 911803, Note_off_c, 0, 57, 63
1, 911873, Note_on_c, 0, 59, 93
1, 911893, Note_on_c, 0, 71, 73
1, 911895, Note_on_c, 0, 74, 79
1, 911917, Note_off_c, 0, 73, 56
1, 911920, Note_off_c, 0, 69, 44
1, 911947, Note_off_c, 0, 59, 59
1, 911951, Note_off_c, 0, 71, 62
1, 911962, Control_c, 0, 64, 114
1, 911973, Note_off_c, 0, 74, 59
1, 911977, Control_c, 0, 64, 79
1, 911992, Control_c, 0, 64, 63
1, 912007, Control_c, 0, 64, 50
1, 912010, Note_on_c, 0, 61, 98
1, 912022, Control_c, 0, 64, 47
1, 912023, Note_on_c, 0, 73, 78
1, 912023, Note_on_c, 0, 76, 77
1, 912031, Note_on_c, 0, 69, 66
1, 912038, Control_c, 0, 64, 55
1, 912052, Control_c, 0, 64, 63
1, 912067, Control_c, 0, 64, 71
1, 912076, Note_off_c, 0, 69, 55
1, 912082, Control_c, 0, 64, 84
1, 912090, Note_off_c, 0, 61, 59
1, 912092, Note_off_c, 0, 73, 58
1, 912097, Note_off_c, 0, 76, 54
1, 912097, Control_c, 0, 64, 106
1, 912111, Control_c, 0, 64, 127
1, 912133, Note_on_c, 0, 71, 74
1, 912138, Note_on_c, 0, 74, 76
1, 912186, Note_on_c, 0, 62, 95
1, 912188, Note_off_c, 0, 71, 63
1, 912210, Note_off_c, 0, 74, 61
1, 912259, Note_off_c, 0, 62, 64
1, 912266, Note_on_c, 0, 73, 86
1, 912268, Note_on_c, 0, 69, 75
1, 912336, Note_on_c, 0, 64, 90
1, 912340, Note_off_c, 0, 69, 55
1, 912372, Note_on_c, 0, 74, 78
1, 912375, Note_on_c, 0, 71, 75
1, 912401, Note_off_c, 0, 64, 65
1, 912408, Note_off_c, 0, 73, 27
1, 912428, Note_off_c, 0, 71, 60
1, 912451, Control_c, 0, 64, 82
1, 912456, Note_off_c, 0, 74, 60
1, 912466, Control_c, 0, 64, 63
1, 912481, Control_c, 0, 64, 43
1, 912488, Note_on_c, 0, 66, 96
1, 912495, Control_c, 0, 64, 31
1, 912506, Note_on_c, 0, 76, 80
1, 912510, Control_c, 0, 64, 39
1, 912521, Note_on_c, 0, 69, 59
1, 912523, Note_off_c, 0, 66, 66
1, 912525, Control_c, 0, 64, 57
1, 912540, Control_c, 0, 64, 68
1, 912563, Control_c, 0, 64, 90
1, 912569, Note_off_c, 0, 69, 60
1, 912577, Control_c, 0, 64, 127
1, 912609, Note_off_c, 0, 76, 55
1, 912651, Control_c, 0, 64, 88
1, 912666, Control_c, 0, 64, 63
1, 912681, Control_c, 0, 64, 31
1, 912690, Note_on_c, 0, 31, 92
1, 912691, Note_on_c, 0, 43, 89
1, 912694, Note_on_c, 0, 67, 92
1, 912696, Control_c, 0, 64, 0
1, 912725, Control_c, 0, 64, 56
1, 912740, Control_c, 0, 64, 87
1, 912752, Note_off_c, 0, 43, 62
1, 912755, Control_c, 0, 64, 127
1, 912769, Note_off_c, 0, 31, 57
1, 912794, Note_off_c, 0, 67, 61
1, 912799, Control_c, 0, 64, 97
1, 912814, Control_c, 0, 64, 62
1, 912830, Control_c, 0, 64, 0
1, 912860, Control_c, 0, 64, 54
1, 912872, Note_on_c, 0, 69, 93
1, 912874, Control_c, 0, 64, 81
1, 912876, Note_on_c, 0, 42, 77
1, 912881, Note_on_c, 0, 30, 80
1, 912889, Control_c, 0, 64, 127
1, 912915, Note_off_c, 0, 69, 65
1, 912951, Note_off_c, 0, 42, 64
1, 912963, Note_off_c, 0, 30, 59
1, 913037, Control_c, 0, 64, 64
1, 913052, Control_c, 0, 64, 0
1, 913088, Note_on_c, 0, 76, 100
1, 913089, Note_on_c, 0, 71, 100
1, 913089, Note_on_c, 0, 83, 105
1, 913093, Note_on_c, 0, 40, 96
1, 913095, Note_on_c, 0, 28, 95
1, 913171, Note_off_c, 0, 71, 55
1, 913171, Control_c, 0, 64, 62
1, 913174, Note_off_c, 0, 28, 64
1, 913186, Note_off_c, 0, 76, 58
1, 913186, Control_c, 0, 64, 127
1, 913200, Note_off_c, 0, 40, 63
1, 913287, Note_on_c, 0, 78, 89
1, 913287, Note_on_c, 0, 81, 91
1, 913318, Note_off_c, 0, 83, 55
1, 913350, Note_off_c, 0, 78, 62
1, 913372, Note_off_c, 0, 81, 61
1, 913431, Note_on_c, 0, 79, 92
1, 913441, Note_on_c, 0, 76, 70
1, 913442, Note_on_c, 0, 59, 71
1, 913444, Note_on_c, 0, 69, 74
1, 913463, Note_on_c, 0, 66, 38
1, 913496, Note_off_c, 0, 66, 52
1, 913498, Note_off_c, 0, 76, 62
1, 913502, Note_off_c, 0, 69, 59
1, 913506, Note_off_c, 0, 79, 61
1, 913545, Note_on_c, 0, 78, 92
1, 913548, Note_on_c, 0, 81, 85
1, 913595, Note_off_c, 0, 78, 61
1, 913597, Note_off_c, 0, 59, 52
1, 913610, Note_off_c, 0, 81, 62
1, 913668, Note_on_c, 0, 79, 93
1, 913671, Note_on_c, 0, 76, 88
1, 913673, Note_on_c, 0, 67, 71
1, 913673, Note_on_c, 0, 71, 79
1, 913673, Note_on_c, 0, 83, 91
1, 913679, Note_on_c, 0, 64, 70
1, 913720, Note_off_c, 0, 76, 63
1, 913728, Note_off_c, 0, 71, 63
1, 913728, Note_off_c, 0, 67, 62
1, 913730, Note_off_c, 0, 79, 64
1, 913734, Note_off_c, 0, 64, 62
1, 913743, Note_off_c, 0, 83, 61
1, 913791, Note_on_c, 0, 78, 89
1, 913800, Note_on_c, 0, 81, 83
1, 913834, Note_off_c, 0, 78, 64
1, 913853, Note_off_c, 0, 81, 62
1, 913915, Note_on_c, 0, 79, 91
1, 913916, Note_on_c, 0, 76, 84
1, 913920, Note_on_c, 0, 59, 77
1, 913921, Note_on_c, 0, 69, 81
1, 913925, Note_on_c, 0, 66, 69
1, 913958, Note_off_c, 0, 66, 58
1, 913967, Note_off_c, 0, 76, 62
1, 913967, Note_off_c, 0, 79, 64
1, 913986, Note_off_c, 0, 69, 55
1, 914024, Note_on_c, 0, 78, 88
1, 914028, Note_on_c, 0, 81, 80
1, 914077, Note_off_c, 0, 78, 63
1, 914077, Note_off_c, 0, 59, 52
1, 914088, Note_off_c, 0, 81, 63
1, 914161, Note_on_c, 0, 76, 92
1, 914162, Note_on_c, 0, 79, 91
1, 914164, Note_on_c, 0, 67, 71
1, 914164, Note_on_c, 0, 71, 91
1, 914164, Note_on_c, 0, 83, 89
1, 914167, Note_on_c, 0, 64, 54
1, 914200, Note_off_c, 0, 67, 64
1, 914204, Note_off_c, 0, 64, 63
1, 914213, Note_off_c, 0, 76, 60
1, 914220, Note_off_c, 0, 71, 63
1, 914220, Note_off_c, 0, 79, 63
1, 914239, Note_off_c, 0, 83, 63
1, 914280, Note_on_c, 0, 78, 89
1, 914286, Note_on_c, 0, 69, 83
1, 914286, Note_on_c, 0, 81, 84
1, 914325, Note_off_c, 0, 78, 64
1, 914340, Note_off_c, 0, 81, 63
1, 914354, Note_off_c, 0, 69, 57
1, 914397, Note_on_c, 0, 59, 78
1, 914397, Note_on_c, 0, 79, 94
1, 914405, Note_on_c, 0, 76, 83
1, 914406, Note_on_c, 0, 66, 63
1, 914437, Note_off_c, 0, 66, 49
1, 914458, Note_off_c, 0, 79, 66
1, 914462, Note_off_c, 0, 76, 62
1, 914500, Note_on_c, 0, 69, 73
1, 914503, Note_on_c, 0, 78, 93
1, 914504, Note_on_c, 0, 81, 95
1, 914524, Note_off_c, 0, 59, 63
1, 914543, Note_off_c, 0, 69, 61
1, 914560, Note_off_c, 0, 78, 62
1, 914580, Control_c, 0, 64, 83
1, 914587, Note_off_c, 0, 81, 62
1, 914595, Control_c, 0, 64, 59
1, 914610, Control_c, 0, 64, 0
1, 914626, Note_on_c, 0, 67, 82
1, 914626, Note_on_c, 0, 71, 84
1, 914629, Note_on_c, 0, 64, 81
1, 914632, Note_on_c, 0, 83, 98
1, 914635, Note_on_c, 0, 76, 93
1, 914636, Note_on_c, 0, 79, 87
1, 914644, Note_off_c, 0, 71, 71
1, 914654, Control_c, 0, 64, 36
1, 914658, Note_off_c, 0, 67, 67
1, 914669, Control_c, 0, 64, 59
1, 914670, Note_off_c, 0, 64, 68
1, 914673, Note_off_c, 0, 76, 64
1, 914675, Note_off_c, 0, 79, 64
1, 914684, Control_c, 0, 64, 71
1, 914687, Note_off_c, 0, 83, 64
1, 914698, Control_c, 0, 64, 95
1, 914713, Control_c, 0, 64, 127
1, 914840, Control_c, 0, 64, 109
1, 914848, Note_on_c, 0, 26, 93
1, 914850, Note_on_c, 0, 38, 94
1, 914854, Control_c, 0, 64, 71
1, 914869, Control_c, 0, 64, 46
1, 914884, Control_c, 0, 64, 0
1, 914900, Note_off_c, 0, 38, 64
1, 914905, Note_on_c, 0, 76, 85
1, 914909, Note_on_c, 0, 85, 92
1, 914910, Note_on_c, 0, 73, 94
1, 914911, Note_on_c, 0, 79, 72
1, 914911, Note_off_c, 0, 26, 57
1, 914928, Control_c, 0, 64, 53
1, 914943, Control_c, 0, 64, 68
1, 914946, Note_off_c, 0, 79, 66
1, 914949, Note_off_c, 0, 76, 64
1, 914958, Control_c, 0, 64, 83
1, 914960, Note_off_c, 0, 85, 66
1, 914972, Control_c, 0, 64, 127
1, 914975, Note_off_c, 0, 73, 63
1, 915028, Note_on_c, 0, 37, 89
1, 915031, Note_on_c, 0, 25, 99
1, 915076, Note_on_c, 0, 24, 39
1, 915091, Control_c, 0, 64, 77
1, 915097, Note_off_c, 0, 37, 62
1, 915106, Control_c, 0, 64, 51
1, 915111, Note_off_c, 0, 24, 51
1, 915121, Control_c, 0, 64, 0
1, 915142, Note_off_c, 0, 25, 57
1, 915240, Note_on_c, 0, 23, 88
1, 915240, Note_on_c, 0, 35, 97
1, 915245, Note_on_c, 0, 78, 89
1, 915246, Note_on_c, 0, 71, 73
1, 915248, Note_on_c, 0, 66, 80
1, 915252, Note_on_c, 0, 74, 74
1, 915270, Control_c, 0, 64, 57
1, 915281, Note_off_c, 0, 23, 65
1, 915284, Control_c, 0, 64, 78
1, 915293, Note_off_c, 0, 71, 62
1, 915299, Control_c, 0, 64, 117
1, 915300, Note_off_c, 0, 35, 61
1, 915314, Note_off_c, 0, 66, 57
1, 915314, Control_c, 0, 64, 127
1, 915347, Note_off_c, 0, 74, 60
1, 915418, Note_on_c, 0, 73, 70
1, 915428, Note_on_c, 0, 76, 68
1, 915462, Note_off_c, 0, 78, 33
1, 915478, Note_off_c, 0, 73, 59
1, 915480, Note_on_c, 0, 50, 75
1, 915508, Note_off_c, 0, 76, 51
1, 915532, Note_off_c, 0, 50, 59
1, 915554, Note_on_c, 0, 71, 67
1, 915557, Note_on_c, 0, 74, 65
1, 915625, Note_on_c, 0, 52, 83
1, 915651, Note_on_c, 0, 76, 70
1, 915660, Note_on_c, 0, 73, 65
1, 915667, Note_off_c, 0, 74, 61
1, 915674, Note_off_c, 0, 71, 47
1, 915700, Note_off_c, 0, 52, 59
1, 915706, Note_off_c, 0, 73, 54
1, 915751, Control_c, 0, 64, 100
1, 915758, Note_off_c, 0, 76, 54
1, 915766, Note_on_c, 0, 54, 97
1, 915766, Control_c, 0, 64, 79
1, 915779, Note_on_c, 0, 78, 74
1, 915781, Control_c, 0, 64, 71
1, 915786, Note_on_c, 0, 74, 64
1, 915791, Note_on_c, 0, 71, 61
1, 915795, Control_c, 0, 64, 71
1, 915810, Control_c, 0, 64, 73
1, 915825, Control_c, 0, 64, 81
1, 915829, Note_off_c, 0, 71, 57
1, 915840, Control_c, 0, 64, 90
1, 915847, Note_off_c, 0, 54, 61
1, 915854, Control_c, 0, 64, 99
1, 915859, Note_off_c, 0, 74, 56
1, 915866, Note_off_c, 0, 78, 39
1, 915869, Control_c, 0, 64, 104
1, 915884, Control_c, 0, 64, 107
1, 915899, Note_on_c, 0, 73, 71
1, 915899, Control_c, 0, 64, 109
1, 915902, Note_on_c, 0, 76, 69
1, 915914, Control_c, 0, 64, 113
1, 915928, Control_c, 0, 64, 127
1, 915946, Note_on_c, 0, 55, 82
1, 915951, Note_off_c, 0, 73, 58
1, 915964, Note_off_c, 0, 76, 60
1, 916017, Note_off_c, 0, 55, 63
1, 916018, Note_on_c, 0, 74, 74
1, 916027, Note_on_c, 0, 71, 70
1, 916086, Note_on_c, 0, 57, 89
1, 916132, Note_on_c, 0, 76, 76
1, 916140, Note_on_c, 0, 73, 70
1, 916152, Note_off_c, 0, 57, 62
1, 916152, Note_off_c, 0, 71, 47
1, 916155, Note_off_c, 0, 74, 59
1, 916192, Note_off_c, 0, 73, 54
1, 916212, Control_c, 0, 64, 86
1, 916226, Control_c, 0, 64, 58
1, 916241, Control_c, 0, 64, 0
1, 916242, Note_on_c, 0, 59, 86
1, 916250, Note_off_c, 0, 76, 52
1, 916255, Note_on_c, 0, 78, 75
1, 916262, Note_on_c, 0, 74, 63
1, 916266, Note_on_c, 0, 71, 67
1, 916285, Control_c, 0, 64, 54
1, 916307, Control_c, 0, 64, 71
1, 916322, Control_c, 0, 64, 112
1, 916323, Note_off_c, 0, 59, 63
1, 916337, Control_c, 0, 64, 127
1, 916340, Note_off_c, 0, 71, 53
1, 916362, Note_off_c, 0, 78, 35
1, 916376, Note_on_c, 0, 73, 77
1, 916382, Note_on_c, 0, 76, 70
1, 916410, Note_off_c, 0, 74, 51
1, 916427, Note_on_c, 0, 61, 91
1, 916434, Note_off_c, 0, 73, 61
1, 916447, Note_off_c, 0, 76, 59
1, 916498, Note_off_c, 0, 61, 64
1, 916500, Note_on_c, 0, 74, 80
1, 916513, Note_on_c, 0, 71, 68
1, 916572, Note_on_c, 0, 62, 94
1, 916608, Note_on_c, 0, 76, 75
1, 916614, Note_on_c, 0, 73, 71
1, 916616, Note_off_c, 0, 74, 55
1, 916632, Note_off_c, 0, 62, 65
1, 916647, Note_off_c, 0, 71, 28
1, 916650, Note_off_c, 0, 73, 61
1, 916707, Control_c, 0, 64, 105
1, 916722, Control_c, 0, 64, 56
1, 916733, Note_off_c, 0, 76, 51
1, 916737, Note_on_c, 0, 64, 91
1, 916737, Control_c, 0, 64, 0
1, 916747, Note_on_c, 0, 78, 81
1, 916749, Note_on_c, 0, 71, 80
1, 916778, Note_off_c, 0, 64, 67
1, 916796, Control_c, 0, 64, 59
1, 916798, Note_off_c, 0, 78, 63
1, 916802, Note_off_c, 0, 71, 62
1, 916811, Control_c, 0, 64, 76
1, 916827, Control_c, 0, 64, 111
1, 916841, Control_c, 0, 64, 127
1, 916915, Control_c, 0, 64, 79
1, 916930, Control_c, 0, 64, 61
1, 916945, Control_c, 0, 64, 48
1, 916948, Note_on_c, 0, 66, 86
1, 916951, Note_on_c, 0, 33, 90
1, 916960, Note_on_c, 0, 45, 69
1, 916960, Control_c, 0, 64, 53
1, 916975, Control_c, 0, 64, 63
1, 916990, Control_c, 0, 64, 75
1, 917004, Note_off_c, 0, 45, 61
1, 917004, Control_c, 0, 64, 127
1, 917016, Note_off_c, 0, 66, 60
1, 917058, Note_off_c, 0, 33, 58
1, 917086, Control_c, 0, 64, 76
1, 917100, Control_c, 0, 64, 58
1, 917115, Control_c, 0, 64, 55
1, 917129, Note_on_c, 0, 43, 88
1, 917130, Control_c, 0, 64, 65
1, 917131, Note_on_c, 0, 31, 84
1, 917136, Note_on_c, 0, 67, 87
1, 917145, Control_c, 0, 64, 87
1, 917160, Control_c, 0, 64, 127
1, 917191, Note_off_c, 0, 43, 64
1, 917199, Note_off_c, 0, 31, 59
1, 917219, Note_off_c, 0, 67, 61
1, 917264, Control_c, 0, 64, 102
1, 917279, Control_c, 0, 64, 63
1, 917293, Control_c, 0, 64, 0
1, 917321, Note_on_c, 0, 42, 99
1, 917332, Note_on_c, 0, 30, 85
1, 917334, Note_on_c, 0, 81, 88
1, 917335, Note_on_c, 0, 69, 77
1, 917335, Note_on_c, 0, 74, 83
1, 917338, Control_c, 0, 64, 57
1, 917343, Note_on_c, 0, 78, 71
1, 917353, Control_c, 0, 64, 94
1, 917355, Note_off_c, 0, 74, 71
1, 917356, Note_off_c, 0, 69, 68
1, 917359, Note_off_c, 0, 30, 65
1, 917367, Control_c, 0, 64, 127
1, 917368, Note_off_c, 0, 78, 67
1, 917371, Note_off_c, 0, 42, 66
1, 917384, Note_off_c, 0, 81, 64
1, 917499, Note_on_c, 0, 91, 76
1, 917509, Note_on_c, 0, 79, 70
1, 917526, Note_on_c, 0, 86, 50
1, 917537, Note_off_c, 0, 79, 70
1, 917550, Note_off_c, 0, 91, 63
1, 917553, Note_off_c, 0, 86, 53
1, 917569, Note_on_c, 0, 57, 57
1, 917574, Note_on_c, 0, 43, 52
1, 917577, Note_on_c, 0, 45, 58
1, 917598, Note_off_c, 0, 57, 64
1, 917602, Note_off_c, 0, 45, 58
1, 917603, Note_off_c, 0, 43, 55
1, 917623, Note_on_c, 0, 90, 79
1, 917626, Note_on_c, 0, 86, 75
1, 917632, Note_on_c, 0, 78, 73
1, 917663, Poly_aftertouch_c, 0, 55, 0
1, 917667, Note_off_c, 0, 78, 60
1, 917667, Note_off_c, 0, 86, 59
1, 917673, Note_off_c, 0, 90, 63
1, 917712, Note_on_c, 0, 50, 78
1, 917717, Note_on_c, 0, 62, 71
1, 917735, Note_on_c, 0, 91, 82
1, 917738, Note_on_c, 0, 79, 82
1, 917744, Note_on_c, 0, 86, 74
1, 917750, Note_off_c, 0, 62, 63
1, 917755, Note_off_c, 0, 50, 60
1, 917771, Note_off_c, 0, 79, 60
1, 917771, Note_off_c, 0, 86, 64
1, 917778, Note_off_c, 0, 91, 65
1, 917854, Note_on_c, 0, 93, 89
1, 917857, Note_on_c, 0, 81, 81
1, 917861, Note_on_c, 0, 86, 81
1, 917866, Note_on_c, 0, 66, 80
1, 917869, Note_on_c, 0, 54, 73
1, 917890, Note_off_c, 0, 86, 60
1, 917900, Note_off_c, 0, 93, 65
1, 917902, Note_off_c, 0, 81, 63
1, 917903, Note_off_c, 0, 54, 60
1, 917908, Note_off_c, 0, 66, 54
1, 917969, Note_on_c, 0, 91, 85
1, 917973, Note_on_c, 0, 79, 81
1, 917975, Note_on_c, 0, 86, 80
1, 918009, Note_off_c, 0, 91, 64
1, 918011, Note_off_c, 0, 79, 63
1, 918011, Note_off_c, 0, 86, 59
1, 918025, Note_on_c, 0, 57, 72
1, 918025, Note_on_c, 0, 69, 72
1, 918063, Note_off_c, 0, 57, 63
1, 918065, Note_off_c, 0, 69, 59
1, 918075, Note_on_c, 0, 90, 85
1, 918076, Note_on_c, 0, 78, 80
1, 918081, Note_on_c, 0, 86, 76
1, 918109, Note_off_c, 0, 86, 63
1, 918125, Note_off_c, 0, 78, 62
1, 918126, Note_off_c, 0, 90, 63
1, 918176, Note_on_c, 0, 62, 72
1, 918179, Note_on_c, 0, 91, 90
1, 918183, Note_on_c, 0, 74, 72
1, 918184, Note_on_c, 0, 79, 87
1, 918188, Note_on_c, 0, 86, 81
1, 918206, Note_off_c, 0, 62, 64
1, 918214, Note_off_c, 0, 74, 64
1, 918214, Note_off_c, 0, 86, 62
1, 918226, Note_off_c, 0, 79, 63
1, 918230, Note_off_c, 0, 91, 65
1, 918264, Control_c, 0, 64, 82
1, 918279, Control_c, 0, 64, 65
1, 918294, Control_c, 0, 64, 60
1, 918298, Note_on_c, 0, 93, 98
1, 918300, Note_on_c, 0, 81, 88
1, 918303, Note_on_c, 0, 86, 85
1, 918308, Control_c, 0, 64, 64
1, 918317, Note_on_c, 0, 78, 78
1, 918323, Control_c, 0, 64, 72
1, 918338, Note_off_c, 0, 86, 60
1, 918338, Control_c, 0, 64, 84
1, 918339, Note_on_c, 0, 68, 41
1, 918340, Note_off_c, 0, 93, 67
1, 918343, Note_off_c, 0, 81, 65
1, 918353, Control_c, 0, 64, 103
1, 918368, Note_off_c, 0, 78, 61
1, 918368, Note_off_c, 0, 68, 55
1, 918368, Control_c, 0, 64, 127
1, 918405, Note_on_c, 0, 76, 80
1, 918409, Note_on_c, 0, 91, 93
1, 918413, Note_on_c, 0, 86, 90
1, 918414, Note_on_c, 0, 79, 87
1, 918449, Note_off_c, 0, 79, 65
1, 918450, Note_off_c, 0, 91, 64
1, 918456, Note_off_c, 0, 76, 64
1, 918459, Note_off_c, 0, 86, 62
1, 918512, Note_on_c, 0, 90, 88
1, 918516, Note_on_c, 0, 78, 88
1, 918516, Note_on_c, 0, 86, 72
1, 918520, Note_on_c, 0, 74, 76
1, 918554, Note_off_c, 0, 86, 60
1, 918570, Note_off_c, 0, 78, 61
1, 918570, Note_off_c, 0, 90, 64
1, 918594, Note_off_c, 0, 74, 58
1, 918620, Note_on_c, 0, 91, 90
1, 918622, Note_on_c, 0, 69, 70
1, 918622, Note_on_c, 0, 86, 88
1, 918625, Note_on_c, 0, 79, 83
1, 918653, Note_off_c, 0, 79, 63
1, 918665, Note_off_c, 0, 86, 61
1, 918668, Note_off_c, 0, 91, 65
1, 918700, Note_off_c, 0, 69, 61
1, 918712, Note_on_c, 0, 62, 75
1, 918725, Note_on_c, 0, 93, 92
1, 918726, Note_on_c, 0, 81, 91
1, 918730, Note_on_c, 0, 86, 84
1, 918751, Note_off_c, 0, 62, 57
1, 918757, Note_off_c, 0, 86, 64
1, 918761, Control_c, 0, 64, 89
1, 918767, Note_off_c, 0, 81, 62
1, 918767, Note_off_c, 0, 93, 67
1, 918776, Control_c, 0, 64, 62
1, 918790, Control_c, 0, 64, 0
1, 918957, Note_on_c, 0, 55, 75
1, 918960, Note_on_c, 0, 95, 104
1, 918961, Note_on_c, 0, 86, 96
1, 918962, Note_on_c, 0, 83, 95
1, 918963, Note_on_c, 0, 62, 75
1, 918969, Control_c, 0, 64, 46
1, 918969, Note_on_c, 0, 66, 83
1, 918977, Note_on_c, 0, 59, 63
1, 918984, Note_off_c, 0, 86, 69
1, 918984, Control_c, 0, 64, 60
1, 918993, Note_off_c, 0, 95, 67
1, 918998, Note_off_c, 0, 83, 66
1, 918998, Control_c, 0, 64, 69
1, 919013, Control_c, 0, 64, 82
1, 919028, Control_c, 0, 64, 93
1, 919034, Note_off_c, 0, 55, 60
1, 919043, Control_c, 0, 64, 97
1, 919049, Note_off_c, 0, 62, 58
1, 919058, Note_off_c, 0, 59, 61
1, 919067, Note_off_c, 0, 66, 57
1, 919132, Control_c, 0, 64, 90
1, 919146, Control_c, 0, 64, 75
1, 919162, Control_c, 0, 64, 60
1, 919177, Control_c, 0, 64, 0
1, 919182, Note_on_c, 0, 57, 71
1, 919201, Note_on_c, 0, 85, 88
1, 919201, Note_on_c, 0, 88, 89
1, 919203, Note_on_c, 0, 61, 67
1, 919237, Control_c, 0, 64, 40
1, 919252, Control_c, 0, 64, 53
1, 919267, Control_c, 0, 64, 61
1, 919288, Control_c, 0, 64, 65
1, 919301, Note_on_c, 0, 62, 68
1, 919303, Control_c, 0, 64, 66
1, 919315, Note_off_c, 0, 57, 57
1, 919318, Note_off_c, 0, 61, 61
1, 919318, Control_c, 0, 64, 66
1, 919336, Note_on_c, 0, 81, 87
1, 919351, Note_off_c, 0, 88, 60
1, 919374, Note_off_c, 0, 62, 62
1, 919376, Note_off_c, 0, 85, 60
1, 919383, Note_on_c, 0, 64, 62
1, 919429, Note_off_c, 0, 81, 63
1, 919443, Note_on_c, 0, 76, 86
1, 919452, Note_on_c, 0, 66, 79
1, 919452, Note_off_c, 0, 64, 63
1, 919505, Note_off_c, 0, 66, 63
1, 919526, Note_on_c, 0, 64, 59
1, 919528, Note_on_c, 0, 81, 86
1, 919554, Note_off_c, 0, 76, 58
1, 919570, Note_off_c, 0, 64, 57
1, 919571, Note_on_c, 0, 62, 73
1, 919629, Note_on_c, 0, 85, 85
1, 919629, Control_c, 0, 64, 65
1, 919630, Note_on_c, 0, 88, 88
1, 919639, Note_off_c, 0, 62, 63
1, 919640, Note_off_c, 0, 81, 60
1, 919642, Note_on_c, 0, 61, 78
1, 919644, Control_c, 0, 64, 55
1, 919659, Control_c, 0, 64, 0
1, 919670, Note_off_c, 0, 88, 62
1, 919678, Note_off_c, 0, 85, 65
1, 919689, Note_off_c, 0, 61, 59
1, 919874, Note_on_c, 0, 85, 100
1, 919875, Note_on_c, 0, 93, 104
1, 919878, Note_on_c, 0, 81, 92
1, 919880, Note_on_c, 0, 54, 79
1, 919881, Control_c, 0, 64, 40
1, 919883, Note_on_c, 0, 64, 74
1, 919893, Note_on_c, 0, 61, 67
1, 919894, Note_on_c, 0, 57, 68
1, 919896, Control_c, 0, 64, 59
1, 919906, Note_off_c, 0, 85, 66
1, 919907, Note_off_c, 0, 93, 67
1, 919908, Note_off_c, 0, 81, 64
1, 919911, Control_c, 0, 64, 68
1, 919926, Control_c, 0, 64, 75
1, 919941, Control_c, 0, 64, 80
1, 919944, Note_off_c, 0, 61, 57
1, 919947, Note_off_c, 0, 64, 59
1, 919956, Control_c, 0, 64, 83
1, 919970, Control_c, 0, 64, 84
1, 919975, Note_off_c, 0, 57, 60
1, 919979, Note_off_c, 0, 54, 59
1, 920030, Control_c, 0, 64, 83
1, 920052, Control_c, 0, 64, 80
1, 920067, Control_c, 0, 64, 71
1, 920082, Control_c, 0, 64, 58
1, 920097, Control_c, 0, 64, 0
1, 920108, Note_on_c, 0, 55, 69
1, 920122, Note_on_c, 0, 59, 64
1, 920125, Note_on_c, 0, 86, 90
1, 920127, Note_on_c, 0, 83, 91
1, 920185, Control_c, 0, 64, 42
1, 920200, Control_c, 0, 64, 53
1, 920207, Note_off_c, 0, 55, 59
1, 920209, Note_on_c, 0, 61, 71
1, 920215, Control_c, 0, 64, 61
1, 920221, Note_off_c, 0, 59, 60
1, 920230, Control_c, 0, 64, 63
1, 920251, Note_on_c, 0, 79, 84
1, 920263, Note_off_c, 0, 86, 57
1, 920271, Note_off_c, 0, 61, 61
1, 920274, Control_c, 0, 64, 64
1, 920275, Note_on_c, 0, 62, 69
1, 920285, Note_off_c, 0, 83, 62
1, 920289, Control_c, 0, 64, 64
1, 920304, Control_c, 0, 64, 65
1, 920319, Control_c, 0, 64, 65
1, 920334, Control_c, 0, 64, 66
1, 920344, Note_on_c, 0, 64, 75
1, 920344, Note_off_c, 0, 62, 61
1, 920349, Note_off_c, 0, 79, 64
1, 920349, Control_c, 0, 64, 67
1, 920361, Note_on_c, 0, 74, 82
1, 920364, Control_c, 0, 64, 68
1, 920379, Control_c, 0, 64, 69
1, 920384, Note_off_c, 0, 64, 61
1, 920407, Note_on_c, 0, 62, 72
1, 920437, Control_c, 0, 64, 69
1, 920456, Note_on_c, 0, 79, 85
1, 920462, Note_on_c, 0, 61, 74
1, 920464, Note_off_c, 0, 62, 61
1, 920476, Note_off_c, 0, 74, 60
1, 920482, Control_c, 0, 64, 70
1, 920511, Control_c, 0, 64, 70
1, 920520, Note_off_c, 0, 61, 62
1, 920542, Note_on_c, 0, 59, 70
1, 920556, Note_on_c, 0, 86, 82
1, 920556, Control_c, 0, 64, 70
1, 920558, Note_on_c, 0, 83, 80
1, 920558, Note_off_c, 0, 79, 63
1, 920570, Control_c, 0, 64, 65
1, 920582, Note_off_c, 0, 83, 64
1, 920585, Control_c, 0, 64, 53
1, 920595, Note_off_c, 0, 59, 62
1, 920597, Note_off_c, 0, 86, 64
1, 920600, Control_c, 0, 64, 0
1, 920684, Note_on_c, 0, 52, 64
1, 920686, Note_on_c, 0, 55, 65
1, 920728, Note_on_c, 0, 62, 67
1, 920764, Note_off_c, 0, 52, 62
1, 920777, Control_c, 0, 64, 30
1, 920778, Note_on_c, 0, 66, 80
1, 920793, Note_on_c, 0, 86, 93
1, 920793, Note_on_c, 0, 95, 92
1, 920794, Note_on_c, 0, 83, 87
1, 920797, Note_off_c, 0, 55, 64
1, 920799, Control_c, 0, 64, 51
1, 920801, Note_on_c, 0, 93, 86
1, 920809, Note_off_c, 0, 86, 74
1, 920814, Note_off_c, 0, 62, 60
1, 920815, Note_off_c, 0, 95, 67
1, 920815, Control_c, 0, 64, 69
1, 920821, Note_off_c, 0, 93, 71
1, 920826, Note_off_c, 0, 83, 67
1, 920830, Control_c, 0, 64, 84
1, 920845, Control_c, 0, 64, 112
1, 920860, Control_c, 0, 64, 127
1, 920878, Note_off_c, 0, 66, 58
1, 920948, Control_c, 0, 64, 104
1, 920963, Control_c, 0, 64, 81
1, 920978, Control_c, 0, 64, 62
1, 920981, Poly_aftertouch_c, 0, 61, 0
1, 920993, Control_c, 0, 64, 0
1, 921004, Note_on_c, 0, 57, 73
1, 921013, Note_on_c, 0, 61, 59
1, 921025, Note_on_c, 0, 85, 89
1, 921026, Note_on_c, 0, 88, 83
1, 921082, Control_c, 0, 64, 35
1, 921095, Note_on_c, 0, 62, 66
1, 921097, Control_c, 0, 64, 47
1, 921112, Control_c, 0, 64, 59
1, 921124, Note_off_c, 0, 57, 57
1, 921127, Control_c, 0, 64, 63
1, 921131, Note_off_c, 0, 61, 61
1, 921143, Note_on_c, 0, 81, 79
1, 921154, Note_off_c, 0, 88, 60
1, 921156, Control_c, 0, 64, 62
1, 921169, Note_off_c, 0, 62, 63
1, 921171, Control_c, 0, 64, 60
1, 921172, Note_on_c, 0, 64, 70
1, 921185, Control_c, 0, 64, 47
1, 921187, Note_off_c, 0, 85, 61
1, 921200, Control_c, 0, 64, 0
1, 921242, Note_off_c, 0, 64, 62
1, 921242, Note_off_c, 0, 81, 64
1, 921244, Note_on_c, 0, 76, 78
1, 921252, Note_on_c, 0, 66, 70
1, 921274, Control_c, 0, 64, 31
1, 921289, Control_c, 0, 64, 52
1, 921304, Control_c, 0, 64, 65
1, 921308, Note_off_c, 0, 66, 63
1, 921318, Note_on_c, 0, 64, 61
1, 921319, Control_c, 0, 64, 69
1, 921333, Control_c, 0, 64, 72
1, 921341, Note_on_c, 0, 81, 81
1, 921348, Control_c, 0, 64, 72
1, 921363, Note_off_c, 0, 76, 59
1, 921363, Control_c, 0, 64, 73
1, 921377, Note_on_c, 0, 62, 73
1, 921378, Control_c, 0, 64, 74
1, 921379, Note_off_c, 0, 64, 55
1, 921392, Control_c, 0, 64, 75
1, 921408, Control_c, 0, 64, 76
1, 921436, Note_on_c, 0, 85, 83
1, 921438, Control_c, 0, 64, 76
1, 921441, Note_on_c, 0, 88, 82
1, 921444, Note_on_c, 0, 61, 73
1, 921444, Note_off_c, 0, 62, 63
1, 921446, Note_off_c, 0, 81, 63
1, 921453, Control_c, 0, 64, 68
1, 921464, Note_off_c, 0, 88, 68
1, 921467, Control_c, 0, 64, 51
1, 921478, Note_off_c, 0, 85, 64
1, 921482, Control_c, 0, 64, 0
1, 921492, Note_off_c, 0, 61, 61
1, 921669, Control_c, 0, 64, 45
1, 921672, Note_on_c, 0, 93, 99
1, 921673, Note_on_c, 0, 85, 94
1, 921673, Note_on_c, 0, 54, 82
1, 921675, Note_on_c, 0, 81, 92
1, 921676, Note_on_c, 0, 64, 79
1, 921684, Control_c, 0, 64, 62
1, 921686, Note_on_c, 0, 57, 74
1, 921687, Note_on_c, 0, 61, 71
1, 921693, Note_off_c, 0, 85, 70
1, 921698, Control_c, 0, 64, 74
1, 921701, Note_off_c, 0, 81, 65
1, 921705, Note_off_c, 0, 93, 64
1, 921713, Control_c, 0, 64, 101
1, 921728, Control_c, 0, 64, 127
1, 921735, Note_off_c, 0, 64, 62
1, 921747, Note_off_c, 0, 61, 59
1, 921761, Note_off_c, 0, 57, 61
1, 921771, Note_off_c, 0, 54, 57
1, 921882, Note_on_c, 0, 55, 71
1, 921890, Control_c, 0, 64, 92
1, 921899, Note_on_c, 0, 59, 67
1, 921905, Note_on_c, 0, 86, 82
1, 921905, Note_on_c, 0, 83, 86
1, 921905, Control_c, 0, 64, 68
1, 921920, Control_c, 0, 64, 49
1, 921935, Control_c, 0, 64, 0
1, 921974, Note_on_c, 0, 61, 74
1, 922000, Note_off_c, 0, 55, 58
1, 922009, Note_off_c, 0, 59, 61
1, 922013, Note_on_c, 0, 79, 77
1, 922026, Note_off_c, 0, 86, 56
1, 922042, Note_on_c, 0, 62, 65
1, 922043, Note_off_c, 0, 61, 61
1, 922064, Note_off_c, 0, 83, 57
1, 922098, Control_c, 0, 64, 33
1, 922108, Note_off_c, 0, 62, 62
1, 922111, Note_off_c, 0, 79, 62
1, 922113, Control_c, 0, 64, 43
1, 922114, Note_on_c, 0, 64, 67
1, 922118, Note_on_c, 0, 74, 69
1, 922128, Control_c, 0, 64, 52
1, 922143, Control_c, 0, 64, 58
1, 922152, Note_off_c, 0, 64, 63
1, 922157, Control_c, 0, 64, 61
1, 922172, Control_c, 0, 64, 61
1, 922178, Note_on_c, 0, 62, 65
1, 922187, Control_c, 0, 64, 62
1, 922208, Note_on_c, 0, 79, 76
1, 922220, Note_off_c, 0, 74, 61
1, 922233, Note_off_c, 0, 62, 62
1, 922243, Note_on_c, 0, 61, 67
1, 922246, Control_c, 0, 64, 62
1, 922276, Control_c, 0, 64, 63
1, 922313, Control_c, 0, 64, 61
1, 922316, Note_on_c, 0, 86, 68
1, 922319, Note_on_c, 0, 59, 64
1, 922325, Note_on_c, 0, 83, 61
1, 922328, Control_c, 0, 64, 55
1, 922328, Note_off_c, 0, 79, 63
1, 922331, Note_off_c, 0, 61, 61
1, 922342, Note_off_c, 0, 83, 66
1, 922342, Control_c, 0, 64, 35
1, 922343, Note_off_c, 0, 86, 66
1, 922348, Note_off_c, 0, 59, 66
1, 922357, Control_c, 0, 64, 0
1, 922537, Note_on_c, 0, 67, 85
1, 922537, Note_on_c, 0, 79, 92
1, 922537, Note_on_c, 0, 71, 85
1, 922539, Note_on_c, 0, 52, 77
1, 922542, Note_on_c, 0, 55, 72
1, 922543, Note_on_c, 0, 62, 76
1, 922546, Note_on_c, 0, 59, 64
1, 922551, Control_c, 0, 64, 54
1, 922565, Control_c, 0, 64, 72
1, 922570, Note_off_c, 0, 71, 66
1, 922579, Note_off_c, 0, 67, 61
1, 922580, Control_c, 0, 64, 96
1, 922586, Note_on_c, 0, 60, 12
1, 922586, Note_off_c, 0, 59, 63
1, 922587, Note_off_c, 0, 79, 64
1, 922590, Note_off_c, 0, 55, 62
1, 922595, Control_c, 0, 64, 127
1, 922606, Note_off_c, 0, 52, 60
1, 922606, Note_off_c, 0, 62, 62
1, 922631, Note_off_c, 0, 60, 54
1, 922728, Control_c, 0, 64, 108
1, 922743, Control_c, 0, 64, 81
1, 922758, Control_c, 0, 64, 63
1, 922761, Note_on_c, 0, 58, 25
1, 922772, Note_on_c, 0, 61, 70
1, 922772, Control_c, 0, 64, 31
1, 922775, Note_on_c, 0, 57, 72
1, 922775, Note_on_c, 0, 64, 66
1, 922779, Note_on_c, 0, 76, 70
1, 922784, Note_on_c, 0, 69, 63
1, 922784, Note_on_c, 0, 73, 70
1, 922787, Control_c, 0, 64, 0
1, 922802, Note_off_c, 0, 58, 54
1, 922804, Note_off_c, 0, 76, 68
1, 922808, Note_off_c, 0, 73, 69
1, 922810, Note_off_c, 0, 69, 67
1, 922811, Note_off_c, 0, 57, 65
1, 922814, Note_off_c, 0, 64, 62
1, 922818, Note_off_c, 0, 61, 56
1, 922980, Control_c, 0, 64, 32
1, 922989, Note_on_c, 0, 61, 80
1, 922992, Note_on_c, 0, 54, 85
1, 922992, Note_on_c, 0, 81, 94
1, 922993, Note_on_c, 0, 73, 89
1, 922994, Note_on_c, 0, 69, 85
1, 922995, Note_on_c, 0, 64, 76
1, 922995, Control_c, 0, 64, 59
1, 922996, Note_on_c, 0, 57, 73
1, 923010, Control_c, 0, 64, 69
1, 923016, Note_off_c, 0, 73, 66
1, 923032, Note_off_c, 0, 57, 68
1, 923032, Control_c, 0, 64, 83
1, 923032, Note_off_c, 0, 69, 64
1, 923037, Note_off_c, 0, 64, 63
1, 923040, Note_off_c, 0, 81, 65
1, 923047, Note_off_c, 0, 61, 61
1, 923047, Control_c, 0, 64, 127
1, 923055, Note_off_c, 0, 54, 61
1, 923180, Control_c, 0, 64, 80
1, 923195, Control_c, 0, 64, 58
1, 923211, Control_c, 0, 64, 0
1, 923232, Note_on_c, 0, 62, 71
1, 923234, Note_on_c, 0, 71, 78
1, 923235, Note_on_c, 0, 74, 80
1, 923235, Note_on_c, 0, 78, 82
1, 923235, Note_on_c, 0, 66, 74
1, 923238, Note_on_c, 0, 59, 71
1, 923255, Control_c, 0, 64, 31
1, 923256, Note_off_c, 0, 74, 69
1, 923259, Note_off_c, 0, 71, 62
1, 923264, Note_off_c, 0, 78, 63
1, 923270, Control_c, 0, 64, 47
1, 923273, Note_off_c, 0, 66, 59
1, 923282, Note_off_c, 0, 62, 59
1, 923285, Control_c, 0, 64, 57
1, 923294, Note_off_c, 0, 59, 60
1, 923300, Control_c, 0, 64, 62
1, 923315, Control_c, 0, 64, 62
1, 923330, Control_c, 0, 64, 56
1, 923344, Control_c, 0, 64, 40
1, 923359, Control_c, 0, 64, 0
1, 923433, Control_c, 0, 64, 40
1, 923446, Note_on_c, 0, 55, 68
1, 923448, Control_c, 0, 64, 57
1, 923449, Note_on_c, 0, 83, 96
1, 923452, Note_on_c, 0, 66, 78
1, 923452, Note_on_c, 0, 71, 81
1, 923453, Note_on_c, 0, 62, 55
1, 923455, Note_on_c, 0, 74, 69
1, 923457, Note_on_c, 0, 78, 68
1, 923457, Note_off_c, 0, 78, 127
1, 923458, Note_on_c, 0, 59, 61
1, 923462, Control_c, 0, 64, 68
1, 923470, Note_off_c, 0, 71, 71
1, 923472, Note_off_c, 0, 74, 66
1, 923477, Control_c, 0, 64, 78
1, 923480, Note_off_c, 0, 62, 63
1, 923481, Note_off_c, 0, 83, 61
1, 923490, Note_off_c, 0, 59, 66
1, 923492, Control_c, 0, 64, 91
1, 923497, Note_off_c, 0, 55, 61
1, 923507, Control_c, 0, 64, 107
1, 923512, Note_off_c, 0, 66, 60
1, 923522, Control_c, 0, 64, 120
1, 923536, Control_c, 0, 64, 127
1, 923595, Control_c, 0, 64, 105
1, 923610, Control_c, 0, 64, 86
1, 923625, Control_c, 0, 64, 71
1, 923640, Control_c, 0, 64, 59
1, 923655, Control_c, 0, 64, 44
1, 923670, Control_c, 0, 64, 32
1, 923678, Note_on_c, 0, 79, 91
1, 923679, Note_on_c, 0, 61, 74
1, 923679, Note_on_c, 0, 64, 70
1, 923685, Control_c, 0, 64, 37
1, 923685, Note_on_c, 0, 76, 88
1, 923700, Control_c, 0, 64, 53
1, 923714, Control_c, 0, 64, 63
1, 923729, Control_c, 0, 64, 69
1, 923744, Control_c, 0, 64, 74
1, 923759, Control_c, 0, 64, 77
1, 923774, Control_c, 0, 64, 79
1, 923795, Control_c, 0, 64, 80
1, 923810, Control_c, 0, 64, 81
1, 923825, Control_c, 0, 64, 82
1, 923826, Note_off_c, 0, 79, 59
1, 923840, Note_off_c, 0, 76, 54
1, 923840, Control_c, 0, 64, 83
1, 923855, Control_c, 0, 64, 84
1, 923858, Note_on_c, 0, 73, 86
1, 923860, Note_on_c, 0, 67, 71
1, 923869, Control_c, 0, 64, 85
1, 923878, Note_off_c, 0, 61, 58
1, 923884, Control_c, 0, 64, 86
1, 923894, Note_off_c, 0, 64, 56
1, 923899, Control_c, 0, 64, 87
1, 923914, Control_c, 0, 64, 87
1, 923968, Note_off_c, 0, 67, 53
1, 923968, Note_on_c, 0, 79, 83
1, 923977, Note_on_c, 0, 76, 74
1, 923981, Note_on_c, 0, 64, 49
1, 923985, Note_on_c, 0, 61, 65
1, 923991, Note_off_c, 0, 73, 32
1, 924033, Control_c, 0, 64, 88
1, 924035, Note_off_c, 0, 76, 59
1, 924048, Control_c, 0, 64, 88
1, 924051, Note_off_c, 0, 61, 45
1, 924059, Note_off_c, 0, 64, 55
1, 924063, Control_c, 0, 64, 89
1, 924068, Note_on_c, 0, 57, 71
1, 924068, Note_on_c, 0, 85, 96
1, 924078, Control_c, 0, 64, 90
1, 924079, Note_off_c, 0, 79, 59
1, 924093, Control_c, 0, 64, 90
1, 924138, Note_off_c, 0, 85, 66
1, 924138, Control_c, 0, 64, 91
1, 924167, Control_c, 0, 64, 91
1, 924170, Note_on_c, 0, 61, 73
1, 924172, Note_on_c, 0, 79, 95
1, 924177, Note_on_c, 0, 76, 89
1, 924178, Note_off_c, 0, 57, 58
1, 924181, Note_on_c, 0, 64, 60
1, 924182, Control_c, 0, 64, 93
1, 924197, Control_c, 0, 64, 94
1, 924203, Note_off_c, 0, 64, 65
1, 924208, Note_off_c, 0, 61, 59
1, 924214, Note_off_c, 0, 79, 70
1, 924217, Note_off_c, 0, 76, 65
1, 924285, Control_c, 0, 67, 26
1, 924300, Control_c, 0, 67, 32
1, 924315, Control_c, 0, 67, 42
1, 924329, Control_c, 0, 64, 93
1, 924329, Control_c, 0, 67, 61
1, 924344, Control_c, 0, 64, 89
1, 924344, Control_c, 0, 67, 87
1, 924359, Control_c, 0, 64, 80
1, 924359, Control_c, 0, 67, 120
1, 924374, Control_c, 0, 64, 67
1, 924374, Control_c, 0, 67, 127
1, 924389, Control_c, 0, 64, 45
1, 924404, Control_c, 0, 64, 0
1, 924483, Note_on_c, 0, 52, 55
1, 924560, Control_c, 0, 64, 35
1, 924564, Note_on_c, 0, 55, 47
1, 924575, Control_c, 0, 64, 46
1, 924590, Control_c, 0, 64, 55
1, 924597, Note_on_c, 0, 58, 60
1, 924598, Note_off_c, 0, 52, 54
1, 924605, Control_c, 0, 64, 59
1, 924619, Control_c, 0, 64, 60
1, 924631, Note_off_c, 0, 55, 59
1, 924647, Note_on_c, 0, 59, 59
1, 924654, Note_on_c, 0, 67, 60
1, 924654, Note_off_c, 0, 58, 63
1, 924684, Note_off_c, 0, 59, 66
1, 924708, Control_c, 0, 64, 61
1, 924712, Note_off_c, 0, 67, 63
1, 924723, Note_on_c, 0, 71, 43
1, 924737, Note_on_c, 0, 74, 62
1, 924737, Control_c, 0, 64, 61
1, 924747, Note_off_c, 0, 71, 58
1, 924766, Note_off_c, 0, 74, 67
1, 924770, Note_on_c, 0, 79, 75
1, 924797, Control_c, 0, 64, 61
1, 924820, Note_on_c, 0, 76, 76
1, 924827, Control_c, 0, 64, 59
1, 924842, Control_c, 0, 64, 56
1, 924850, Note_off_c, 0, 79, 56
1, 924857, Control_c, 0, 64, 51
1, 924872, Note_on_c, 0, 73, 71
1, 924872, Control_c, 0, 64, 46
1, 924873, Note_off_c, 0, 76, 64
1, 924879, Note_on_c, 0, 64, 49
1, 924887, Control_c, 0, 64, 41
1, 924901, Control_c, 0, 64, 36
1, 924913, Note_off_c, 0, 64, 59
1, 924913, Note_off_c, 0, 73, 57
1, 924916, Control_c, 0, 64, 35
1, 924917, Note_on_c, 0, 69, 66
1, 924919, Note_on_c, 0, 54, 64
1, 924931, Control_c, 0, 64, 35
1, 924946, Note_off_c, 0, 69, 65
1, 924946, Control_c, 0, 64, 37
1, 924954, Note_on_c, 0, 57, 46
1, 924960, Control_c, 0, 64, 39
1, 924975, Control_c, 0, 64, 42
1, 924989, Note_on_c, 0, 60, 66
1, 924990, Control_c, 0, 64, 47
1, 925005, Control_c, 0, 64, 52
1, 925020, Control_c, 0, 64, 56
1, 925035, Control_c, 0, 64, 58
1, 925037, Note_on_c, 0, 61, 78
1, 925038, Note_off_c, 0, 57, 63
1, 925047, Note_off_c, 0, 54, 62
1, 925049, Note_off_c, 0, 60, 65
1, 925050, Control_c, 0, 64, 60
1, 925065, Control_c, 0, 64, 61
1, 925068, Note_on_c, 0, 69, 74
1, 925080, Control_c, 0, 64, 62
1, 925080, Note_off_c, 0, 61, 61
1, 925095, Control_c, 0, 64, 64
1, 925106, Note_on_c, 0, 73, 76
1, 925109, Control_c, 0, 64, 65
1, 925124, Control_c, 0, 64, 65
1, 925139, Note_off_c, 0, 69, 58
1, 925139, Control_c, 0, 64, 66
1, 925147, Note_on_c, 0, 76, 60
1, 925151, Control_c, 0, 64, 67
1, 925157, Note_off_c, 0, 73, 63
1, 925164, Note_off_c, 0, 76, 63
1, 925166, Control_c, 0, 64, 68
1, 925172, Note_on_c, 0, 81, 82
1, 925181, Control_c, 0, 64, 68
1, 925220, Note_on_c, 0, 78, 85
1, 925226, Control_c, 0, 64, 67
1, 925241, Control_c, 0, 64, 64
1, 925256, Control_c, 0, 64, 57
1, 925262, Note_on_c, 0, 74, 76
1, 925262, Note_off_c, 0, 81, 62
1, 925270, Note_on_c, 0, 66, 54
1, 925270, Control_c, 0, 64, 48
1, 925290, Note_off_c, 0, 78, 64
1, 925293, Control_c, 0, 64, 43
1, 925300, Note_off_c, 0, 66, 62
1, 925306, Note_on_c, 0, 62, 61
1, 925307, Control_c, 0, 64, 45
1, 925307, Control_c, 0, 67, 121
1, 925321, Note_on_c, 0, 71, 72
1, 925322, Note_off_c, 0, 74, 64
1, 925322, Control_c, 0, 64, 48
1, 925322, Control_c, 0, 67, 95
1, 925337, Control_c, 0, 64, 52
1, 925337, Control_c, 0, 67, 59
1, 925345, Note_off_c, 0, 62, 64
1, 925350, Note_off_c, 0, 71, 66
1, 925352, Control_c, 0, 64, 55
1, 925352, Control_c, 0, 67, 23
1, 925357, Note_on_c, 0, 55, 71
1, 925366, Control_c, 0, 64, 56
1, 925366, Control_c, 0, 67, 0
1, 925381, Control_c, 0, 64, 56
1, 925405, Note_on_c, 0, 59, 62
1, 925411, Control_c, 0, 64, 57
1, 925426, Control_c, 0, 64, 60
1, 925440, Control_c, 0, 64, 62
1, 925443, Note_on_c, 0, 61, 72
1, 925449, Note_off_c, 0, 55, 63
1, 925455, Control_c, 0, 64, 63
1, 925460, Note_on_c, 0, 62, 74
1, 925462, Note_off_c, 0, 59, 63
1, 925470, Control_c, 0, 64, 65
1, 925476, Note_off_c, 0, 61, 65
1, 925485, Control_c, 0, 64, 66
1, 925497, Note_on_c, 0, 71, 64
1, 925500, Control_c, 0, 64, 68
1, 925501, Note_off_c, 0, 62, 62
1, 925515, Control_c, 0, 64, 71
1, 925530, Control_c, 0, 64, 74
1, 925533, Note_on_c, 0, 74, 63
1, 925545, Control_c, 0, 64, 78
1, 925552, Note_off_c, 0, 71, 60
1, 925557, Note_on_c, 0, 78, 75
1, 925559, Control_c, 0, 64, 81
1, 925570, Note_off_c, 0, 74, 61
1, 925574, Control_c, 0, 64, 83
1, 925599, Note_on_c, 0, 83, 74
1, 925611, Note_off_c, 0, 78, 63
1, 925619, Control_c, 0, 64, 79
1, 925634, Control_c, 0, 64, 70
1, 925649, Control_c, 0, 64, 60
1, 925653, Note_on_c, 0, 61, 69
1, 925653, Note_on_c, 0, 67, 71
1, 925659, Note_on_c, 0, 64, 64
1, 925660, Note_on_c, 0, 79, 83
1, 925664, Control_c, 0, 64, 46
1, 925679, Control_c, 0, 64, 38
1, 925684, Note_off_c, 0, 83, 64
1, 925694, Control_c, 0, 64, 45
1, 925709, Control_c, 0, 64, 54
1, 925723, Control_c, 0, 64, 61
1, 925735, Note_off_c, 0, 64, 61
1, 925737, Note_off_c, 0, 67, 62
1, 925737, Note_off_c, 0, 79, 66
1, 925738, Control_c, 0, 64, 66
1, 925746, Note_on_c, 0, 76, 77
1, 925748, Note_off_c, 0, 61, 62
1, 925753, Control_c, 0, 64, 71
1, 925768, Control_c, 0, 64, 77
1, 925782, Control_c, 0, 64, 84
1, 925797, Control_c, 0, 64, 92
1, 925812, Control_c, 0, 64, 95
1, 925813, Note_on_c, 0, 73, 81
1, 925823, Note_off_c, 0, 76, 44
1, 925842, Control_c, 0, 64, 94
1, 925856, Control_c, 0, 64, 86
1, 925871, Control_c, 0, 64, 75
1, 925886, Control_c, 0, 64, 65
1, 925893, Note_on_c, 0, 69, 84
1, 925893, Note_on_c, 0, 76, 71
1, 925897, Note_on_c, 0, 57, 83
1, 925900, Control_c, 0, 64, 60
1, 925915, Control_c, 0, 64, 59
1, 925930, Note_off_c, 0, 73, 58
1, 925930, Control_c, 0, 64, 62
1, 925945, Control_c, 0, 64, 65
1, 925960, Note_on_c, 0, 79, 62
1, 925960, Control_c, 0, 64, 69
1, 925971, Note_off_c, 0, 76, 63
1, 925974, Control_c, 0, 64, 73
1, 925989, Control_c, 0, 64, 77
1, 926004, Control_c, 0, 64, 79
1, 926019, Control_c, 0, 64, 80
1, 926038, Note_on_c, 0, 85, 80
1, 926044, Note_off_c, 0, 79, 65
1, 926056, Control_c, 0, 64, 80
1, 926071, Control_c, 0, 64, 76
1, 926086, Control_c, 0, 64, 67
1, 926088, Note_off_c, 0, 85, 66
1, 926101, Control_c, 0, 64, 54
1, 926115, Control_c, 0, 64, 35
1, 926121, Note_on_c, 0, 66, 71
1, 926122, Note_on_c, 0, 62, 68
1, 926124, Note_on_c, 0, 81, 86
1, 926130, Control_c, 0, 64, 0
1, 926132, Note_off_c, 0, 69, 57
1, 926160, Control_c, 0, 64, 40
1, 926175, Control_c, 0, 64, 52
1, 926189, Control_c, 0, 64, 60
1, 926198, Note_on_c, 0, 78, 84
1, 926204, Control_c, 0, 64, 64
1, 926210, Note_off_c, 0, 81, 62
1, 926219, Control_c, 0, 64, 65
1, 926234, Control_c, 0, 64, 66
1, 926256, Note_off_c, 0, 78, 64
1, 926258, Note_on_c, 0, 74, 79
1, 926278, Control_c, 0, 64, 65
1, 926293, Control_c, 0, 64, 58
1, 926308, Control_c, 0, 64, 43
1, 926314, Note_off_c, 0, 66, 58
1, 926323, Control_c, 0, 64, 0
1, 926324, Note_off_c, 0, 62, 59
1, 926341, Note_on_c, 0, 78, 88
1, 926347, Note_on_c, 0, 68, 68
1, 926364, Note_off_c, 0, 74, 60
1, 926382, Control_c, 0, 64, 44
1, 926397, Control_c, 0, 64, 59
1, 926412, Control_c, 0, 64, 65
1, 926413, Note_on_c, 0, 80, 84
1, 926427, Note_off_c, 0, 78, 64
1, 926427, Control_c, 0, 64, 70
1, 926431, Note_off_c, 0, 68, 59
1, 926442, Control_c, 0, 64, 74
1, 926457, Control_c, 0, 64, 77
1, 926472, Control_c, 0, 64, 78
1, 926487, Control_c, 0, 64, 79
1, 926488, Note_off_c, 0, 80, 66
1, 926493, Note_on_c, 0, 86, 75
1, 926519, Note_off_c, 0, 86, 66
1, 926531, Control_c, 0, 64, 77
1, 926546, Control_c, 0, 64, 69
1, 926561, Control_c, 0, 64, 54
1, 926576, Control_c, 0, 64, 0
1, 926601, Note_on_c, 0, 69, 71
1, 926602, Note_on_c, 0, 85, 90
1, 926612, Note_on_c, 0, 61, 59
1, 926620, Note_off_c, 0, 57, 49
1, 926621, Note_on_c, 0, 64, 44
1, 926635, Note_off_c, 0, 69, 61
1, 926635, Control_c, 0, 64, 57
1, 926637, Note_off_c, 0, 61, 63
1, 926648, Note_off_c, 0, 64, 51
1, 926651, Control_c, 0, 64, 72
1, 926666, Control_c, 0, 64, 98
1, 926671, Note_on_c, 0, 81, 75
1, 926680, Control_c, 0, 64, 127
1, 926703, Note_off_c, 0, 85, 63
1, 926735, Note_on_c, 0, 76, 74
1, 926737, Note_off_c, 0, 81, 62
1, 926768, Note_off_c, 0, 76, 64
1, 926799, Note_on_c, 0, 73, 62
1, 926856, Note_on_c, 0, 69, 59
1, 926864, Note_off_c, 0, 73, 56
1, 926927, Note_on_c, 0, 64, 50
1, 926946, Note_off_c, 0, 69, 57
1, 926969, Note_on_c, 0, 61, 62
1, 926969, Note_off_c, 0, 64, 63
1, 927031, Note_off_c, 0, 61, 57
1, 927044, Note_on_c, 0, 57, 66
1, 927086, Note_on_c, 0, 52, 64
1, 927125, Note_off_c, 0, 57, 38
1, 927133, Note_on_c, 0, 49, 73
1, 927145, Note_off_c, 0, 52, 61
1, 927184, Note_off_c, 0, 49, 59
1, 927248, Note_on_c, 0, 45, 63
1, 927309, Note_off_c, 0, 45, 60
1, 927321, Note_on_c, 0, 33, 60
1, 927372, Note_off_c, 0, 33, 62
1, 927437, Note_on_c, 0, 47, 45
1, 927450, Note_on_c, 0, 45, 32
1, 927484, Note_off_c, 0, 47, 55
1, 927484, Note_off_c, 0, 45, 55
1, 927506, Note_on_c, 0, 49, 54
1, 927554, Control_c, 0, 64, 119
1, 927564, Note_off_c, 0, 49, 60
1, 927569, Control_c, 0, 64, 114
1, 927572, Note_on_c, 0, 52, 62
1, 927584, Control_c, 0, 64, 109
1, 927599, Control_c, 0, 64, 107
1, 927613, Control_c, 0, 64, 105
1, 927628, Control_c, 0, 64, 103
1, 927637, Note_off_c, 0, 52, 60
1, 927640, Note_on_c, 0, 57, 67
1, 927658, Control_c, 0, 64, 100
1, 927692, Note_on_c, 0, 59, 60
1, 927692, Note_off_c, 0, 57, 61
1, 927717, Control_c, 0, 64, 98
1, 927746, Note_off_c, 0, 59, 62
1, 927747, Note_on_c, 0, 61, 67
1, 927776, Note_off_c, 0, 61, 66
1, 927776, Control_c, 0, 67, 19
1, 927791, Control_c, 0, 64, 96
1, 927806, Control_c, 0, 64, 95
1, 927809, Note_on_c, 0, 62, 71
1, 927821, Control_c, 0, 64, 94
1, 927821, Control_c, 0, 67, 21
1, 927835, Control_c, 0, 64, 92
1, 927850, Control_c, 0, 64, 90
1, 927855, Note_on_c, 0, 64, 68
1, 927865, Control_c, 0, 64, 89
1, 927867, Note_off_c, 0, 62, 54
1, 927879, Control_c, 0, 64, 87
1, 927879, Control_c, 0, 67, 24
1, 927894, Control_c, 0, 64, 86
1, 927894, Control_c, 0, 67, 26
1, 927909, Note_off_c, 0, 64, 63
1, 927909, Control_c, 0, 64, 85
1, 927909, Control_c, 0, 67, 29
1, 927911, Note_on_c, 0, 66, 73
1, 927924, Control_c, 0, 64, 83
1, 927924, Control_c, 0, 67, 34
1, 927939, Control_c, 0, 64, 82
1, 927939, Control_c, 0, 67, 39
1, 927943, Note_off_c, 0, 66, 63
1, 927953, Control_c, 0, 64, 81
1, 927953, Control_c, 0, 67, 44
1, 927968, Control_c, 0, 64, 79
1, 927968, Control_c, 0, 67, 49
1, 927983, Control_c, 0, 64, 77
1, 927983, Control_c, 0, 67, 54
1, 927986, Note_on_c, 0, 67, 61
1, 927999, Control_c, 0, 64, 75
1, 927999, Control_c, 0, 67, 57
1, 928014, Control_c, 0, 64, 74
1, 928014, Control_c, 0, 67, 58
1, 928020, Note_on_c, 0, 69, 75
1, 928029, Control_c, 0, 64, 72
1, 928029, Control_c, 0, 67, 59
1, 928037, Note_off_c, 0, 67, 60
1, 928044, Control_c, 0, 64, 70
1, 928044, Control_c, 0, 67, 60
1, 928058, Control_c, 0, 64, 67
1, 928058, Control_c, 0, 67, 62
1, 928073, Control_c, 0, 64, 65
1, 928073, Control_c, 0, 67, 66
1, 928080, Note_on_c, 0, 71, 64
1, 928080, Note_off_c, 0, 69, 62
1, 928088, Control_c, 0, 64, 63
1, 928088, Control_c, 0, 67, 72
1, 928102, Control_c, 0, 64, 61
1, 928102, Control_c, 0, 67, 79
1, 928117, Note_on_c, 0, 73, 64
1, 928117, Control_c, 0, 64, 59
1, 928117, Control_c, 0, 67, 86
1, 928124, Note_off_c, 0, 71, 63
1, 928132, Control_c, 0, 64, 58
1, 928132, Control_c, 0, 67, 93
1, 928144, Note_off_c, 0, 73, 67
1, 928147, Control_c, 0, 67, 99
1, 928162, Control_c, 0, 64, 58
1, 928162, Control_c, 0, 67, 102
1, 928177, Note_on_c, 0, 74, 70
1, 928177, Control_c, 0, 64, 57
1, 928192, Control_c, 0, 64, 57
1, 928207, Control_c, 0, 64, 56
1, 928207, Control_c, 0, 67, 104
1, 928220, Note_off_c, 0, 74, 60
1, 928222, Note_on_c, 0, 76, 76
1, 928236, Control_c, 0, 64, 56
1, 928281, Note_on_c, 0, 78, 71
1, 928281, Note_off_c, 0, 76, 64
1, 928288, Control_c, 0, 64, 54
1, 928302, Control_c, 0, 64, 43
1, 928305, Note_off_c, 0, 78, 69
1, 928317, Control_c, 0, 64, 0
1, 928341, Note_on_c, 0, 79, 69
1, 928377, Note_off_c, 0, 79, 63
1, 928384, Note_on_c, 0, 81, 65
1, 928433, Note_on_c, 0, 83, 54
1, 928441, Note_off_c, 0, 81, 62
1, 928449, Note_on_c, 0, 62, 51
1, 928460, Note_on_c, 0, 85, 64
1, 928472, Note_on_c, 0, 71, 52
1, 928478, Note_off_c, 0, 83, 55
1, 928490, Note_off_c, 0, 62, 65
1, 928505, Note_on_c, 0, 79, 73
1, 928505, Note_on_c, 0, 86, 70
1, 928507, Note_on_c, 0, 74, 64
1, 928508, Note_off_c, 0, 71, 66
1, 928510, Note_off_c, 0, 85, 67
1, 928525, Control_c, 0, 67, 102
1, 928529, Note_off_c, 0, 79, 70
1, 928531, Note_off_c, 0, 86, 68
1, 928535, Note_off_c, 0, 74, 66
1, 928639, Note_on_c, 0, 83, 70
1, 928669, Note_off_c, 0, 83, 62
1, 928671, Note_on_c, 0, 59, 51
1, 928712, Note_off_c, 0, 59, 50
1, 928745, Note_on_c, 0, 88, 76
1, 928753, Note_on_c, 0, 76, 65
1, 928759, Note_on_c, 0, 79, 50
1, 928771, Note_off_c, 0, 76, 64
1, 928778, Note_off_c, 0, 88, 66
1, 928785, Note_off_c, 0, 79, 54
1, 928875, Note_on_c, 0, 83, 58
1, 928882, Note_on_c, 0, 78, 49
1, 928898, Note_off_c, 0, 83, 60
1, 928905, Note_on_c, 0, 62, 51
1, 928906, Note_off_c, 0, 78, 56
1, 928924, Note_on_c, 0, 71, 62
1, 928942, Note_off_c, 0, 62, 65
1, 928959, Note_on_c, 0, 74, 71
1, 928963, Note_off_c, 0, 71, 64
1, 928976, Note_on_c, 0, 86, 77
1, 928981, Poly_aftertouch_c, 0, 67, 0
1, 928985, Note_off_c, 0, 74, 67
1, 928986, Note_on_c, 0, 79, 63
1, 929005, Note_off_c, 0, 79, 64
1, 929026, Note_off_c, 0, 86, 60
1, 929130, Note_on_c, 0, 59, 55
1, 929164, Poly_aftertouch_c, 0, 83, 0
1, 929171, Note_off_c, 0, 59, 50
1, 929175, Note_on_c, 0, 60, 21
1, 929175, Note_off_c, 0, 60, 127
1, 929205, Note_on_c, 0, 76, 68
1, 929207, Note_on_c, 0, 88, 74
1, 929214, Note_on_c, 0, 79, 66
1, 929233, Note_off_c, 0, 76, 67
1, 929237, Note_off_c, 0, 79, 67
1, 929248, Note_off_c, 0, 88, 61
1, 929323, Note_on_c, 0, 83, 50
1, 929339, Note_on_c, 0, 78, 28
1, 929345, Note_off_c, 0, 83, 58
1, 929355, Note_on_c, 0, 62, 61
1, 929369, Note_off_c, 0, 78, 45
1, 929376, Note_on_c, 0, 67, 21
1, 929411, Note_off_c, 0, 67, 44
1, 929419, Note_on_c, 0, 74, 83
1, 929436, Note_on_c, 0, 86, 68
1, 929438, Note_on_c, 0, 79, 71
1, 929458, Note_off_c, 0, 74, 64
1, 929462, Note_off_c, 0, 79, 69
1, 929471, Note_off_c, 0, 86, 59
1, 929530, Note_on_c, 0, 73, 75
1, 929543, Note_on_c, 0, 83, 59
1, 929558, Note_off_c, 0, 73, 64
1, 929562, Note_off_c, 0, 83, 63
1, 929653, Note_on_c, 0, 71, 79
1, 929662, Note_on_c, 0, 86, 63
1, 929665, Note_on_c, 0, 79, 63
1, 929677, Note_off_c, 0, 71, 66
1, 929683, Note_off_c, 0, 79, 64
1, 929691, Note_off_c, 0, 86, 65
1, 929757, Note_on_c, 0, 73, 74
1, 929760, Note_on_c, 0, 83, 69
1, 929776, Note_on_c, 0, 78, 49
1, 929791, Note_off_c, 0, 73, 66
1, 929795, Note_off_c, 0, 83, 64
1, 929799, Note_off_c, 0, 78, 56
1, 929879, Note_on_c, 0, 74, 86
1, 929888, Note_on_c, 0, 86, 74
1, 929890, Note_on_c, 0, 79, 73
1, 929905, Control_c, 0, 64, 51
1, 929915, Note_off_c, 0, 79, 69
1, 929920, Control_c, 0, 64, 60
1, 929935, Control_c, 0, 64, 63
1, 929936, Note_off_c, 0, 86, 61
1, 929949, Control_c, 0, 64, 64
1, 929964, Control_c, 0, 64, 64
1, 929991, Note_on_c, 0, 83, 75
1, 929995, Note_off_c, 0, 74, 60
1, 929997, Note_on_c, 0, 78, 68
1, 930017, Note_off_c, 0, 83, 66
1, 930021, Note_off_c, 0, 78, 69
1, 930053, Control_c, 0, 64, 64
1, 930068, Control_c, 0, 64, 61
1, 930082, Control_c, 0, 64, 53
1, 930097, Control_c, 0, 64, 37
1, 930108, Note_on_c, 0, 73, 76
1, 930109, Note_on_c, 0, 79, 75
1, 930112, Control_c, 0, 64, 0
1, 930126, Note_on_c, 0, 76, 53
1, 930136, Note_off_c, 0, 79, 67
1, 930144, Note_off_c, 0, 73, 61
1, 930147, Note_off_c, 0, 76, 60
1, 930213, Note_on_c, 0, 83, 80
1, 930263, Note_off_c, 0, 83, 62
1, 930321, Note_on_c, 0, 74, 73
1, 930323, Note_on_c, 0, 78, 78
1, 930350, Note_off_c, 0, 74, 64
1, 930365, Note_off_c, 0, 78, 59
1, 930441, Note_on_c, 0, 74, 73
1, 930468, Note_off_c, 0, 74, 65
1, 930541, Note_on_c, 0, 71, 62
1, 930556, Note_on_c, 0, 76, 58
1, 930557, Note_on_c, 0, 73, 65
1, 930571, Note_off_c, 0, 71, 66
1, 930577, Note_off_c, 0, 76, 59
1, 930584, Note_off_c, 0, 73, 68
1, 930655, Note_on_c, 0, 79, 71
1, 930695, Note_off_c, 0, 79, 59
1, 930767, Note_on_c, 0, 78, 64
1, 930767, Note_on_c, 0, 69, 60
1, 930776, Note_on_c, 0, 74, 53
1, 930797, Note_off_c, 0, 78, 63
1, 930799, Note_off_c, 0, 74, 61
1, 930800, Note_off_c, 0, 69, 62
1, 930884, Note_on_c, 0, 69, 53
1, 930919, Note_off_c, 0, 69, 58
1, 930983, Note_on_c, 0, 73, 61
1, 930984, Note_on_c, 0, 67, 62
1, 930985, Note_on_c, 0, 71, 59
1, 931015, Note_off_c, 0, 71, 66
1, 931015, Note_off_c, 0, 73, 62
1, 931019, Note_off_c, 0, 67, 63
1, 931086, Note_on_c, 0, 76, 69
1, 931126, Note_off_c, 0, 76, 57
1, 931205, Note_on_c, 0, 74, 63
1, 931211, Note_on_c, 0, 66, 52
1, 931217, Control_c, 0, 67, 100
1, 931221, Note_off_c, 0, 62, 50
1, 931234, Note_off_c, 0, 66, 61
1, 931235, Note_off_c, 0, 74, 66
1, 931247, Control_c, 0, 67, 98
1, 931338, Note_on_c, 0, 69, 57
1, 931371, Note_off_c, 0, 69, 65
1, 931442, Note_on_c, 0, 65, 78
1, 931446, Control_c, 0, 67, 91
1, 931457, Note_on_c, 0, 66, 81
1, 931461, Control_c, 0, 67, 74
1, 931473, Note_off_c, 0, 65, 64
1, 931476, Control_c, 0, 67, 28
1, 931486, Note_off_c, 0, 66, 66
1, 931491, Control_c, 0, 67, 0
1, 931659, Note_on_c, 0, 62, 69
1, 931689, Note_off_c, 0, 62, 65
1, 931785, Note_on_c, 0, 62, 76
1, 931818, Note_off_c, 0, 62, 64
1, 931903, Note_on_c, 0, 62, 79
1, 931936, Note_on_c, 0, 40, 52
1, 931946, Note_off_c, 0, 62, 60
1, 931987, Note_on_c, 0, 47, 41
1, 932007, Note_off_c, 0, 40, 56
1, 932022, Note_on_c, 0, 62, 79
1, 932034, Note_on_c, 0, 66, 73
1, 932039, Note_on_c, 0, 56, 60
1, 932040, Note_off_c, 0, 47, 64
1, 932053, Note_off_c, 0, 62, 64
1, 932058, Note_off_c, 0, 66, 67
1, 932073, Note_off_c, 0, 56, 62
1, 932138, Note_on_c, 0, 61, 78
1, 932180, Note_off_c, 0, 61, 58
1, 932242, Note_on_c, 0, 55, 69
1, 932249, Note_on_c, 0, 45, 60
1, 932254, Note_on_c, 0, 61, 71
1, 932258, Note_on_c, 0, 66, 72
1, 932276, Note_off_c, 0, 55, 64
1, 932283, Note_off_c, 0, 45, 63
1, 932283, Note_off_c, 0, 61, 65
1, 932301, Note_off_c, 0, 66, 53
1, 932359, Note_on_c, 0, 59, 73
1, 932386, Note_off_c, 0, 59, 66
1, 932428, Note_on_c, 0, 40, 64
1, 932466, Note_on_c, 0, 47, 33
1, 932475, Note_on_c, 0, 62, 78
1, 932478, Note_off_c, 0, 40, 58
1, 932481, Note_on_c, 0, 55, 68
1, 932485, Note_on_c, 0, 66, 70
1, 932494, Note_off_c, 0, 47, 50
1, 932508, Note_off_c, 0, 62, 61
1, 932515, Note_off_c, 0, 66, 62
1, 932519, Note_off_c, 0, 55, 61
1, 932580, Note_on_c, 0, 61, 75
1, 932618, Note_off_c, 0, 61, 61
1, 932679, Note_on_c, 0, 45, 59
1, 932684, Control_c, 0, 67, 32
1, 932687, Note_on_c, 0, 49, 45
1, 932692, Note_on_c, 0, 61, 64
1, 932693, Note_on_c, 0, 66, 69
1, 932699, Control_c, 0, 67, 58
1, 932711, Note_off_c, 0, 45, 64
1, 932714, Control_c, 0, 67, 96
1, 932717, Note_off_c, 0, 49, 54
1, 932724, Note_off_c, 0, 61, 64
1, 932726, Note_off_c, 0, 66, 61
1, 932729, Control_c, 0, 67, 127
1, 932802, Note_on_c, 0, 59, 66
1, 932840, Note_off_c, 0, 59, 62
1, 932878, Note_on_c, 0, 36, 38
1, 932925, Note_off_c, 0, 36, 58
1, 932926, Note_on_c, 0, 58, 63
1, 932934, Note_on_c, 0, 62, 56
1, 932937, Note_on_c, 0, 51, 46
1, 932960, Note_off_c, 0, 58, 65
1, 932970, Note_off_c, 0, 62, 63
1, 932971, Note_off_c, 0, 51, 61
1, 933035, Note_on_c, 0, 57, 57
1, 933078, Note_off_c, 0, 57, 62
1, 933138, Note_on_c, 0, 41, 27
1, 933140, Note_on_c, 0, 51, 38
1, 933152, Note_on_c, 0, 57, 55
1, 933153, Note_on_c, 0, 45, 9
1, 933164, Note_on_c, 0, 62, 48
1, 933174, Note_off_c, 0, 51, 52
1, 933176, Note_off_c, 0, 41, 38
1, 933185, Note_off_c, 0, 57, 60
1, 933193, Note_off_c, 0, 62, 55
1, 933209, Note_off_c, 0, 45, 26
1, 933247, Note_on_c, 0, 55, 63
1, 933280, Note_off_c, 0, 55, 62
1, 933339, Note_on_c, 0, 36, 19
1, 933341, Note_on_c, 0, 43, 33
1, 933363, Note_on_c, 0, 58, 62
1, 933373, Note_on_c, 0, 62, 57
1, 933375, Note_off_c, 0, 36, 47
1, 933377, Note_off_c, 0, 43, 49
1, 933385, Note_on_c, 0, 51, 41
1, 933397, Note_off_c, 0, 58, 63
1, 933407, Note_off_c, 0, 62, 64
1, 933419, Note_off_c, 0, 51, 59
1, 933463, Note_on_c, 0, 57, 63
1, 933505, Note_off_c, 0, 57, 63
1, 933583, Note_on_c, 0, 41, 42
1, 933583, Note_on_c, 0, 57, 67
1, 933601, Note_on_c, 0, 51, 17
1, 933608, Note_on_c, 0, 62, 39
1, 933613, Note_off_c, 0, 41, 58
1, 933616, Note_off_c, 0, 57, 66
1, 933637, Note_off_c, 0, 62, 49
1, 933647, Note_off_c, 0, 51, 37
1, 933666, Poly_aftertouch_c, 0, 45, 0
1, 933692, Note_on_c, 0, 55, 69
1, 933718, Note_off_c, 0, 55, 67
1, 933827, Control_c, 0, 64, 33
1, 933831, Note_on_c, 0, 41, 48
1, 933839, Note_on_c, 0, 53, 66
1, 933841, Control_c, 0, 64, 51
1, 933856, Control_c, 0, 64, 63
1, 933861, Note_off_c, 0, 41, 63
1, 933871, Control_c, 0, 64, 70
1, 933886, Control_c, 0, 64, 75
1, 933901, Control_c, 0, 64, 77
1, 933918, Note_off_c, 0, 53, 60
1, 933975, Control_c, 0, 64, 77
1, 933978, Note_on_c, 0, 65, 63
1, 934006, Note_off_c, 0, 65, 68
1, 934064, Control_c, 0, 64, 75
1, 934079, Control_c, 0, 64, 69
1, 934094, Control_c, 0, 64, 57
1, 934102, Note_on_c, 0, 50, 60
1, 934104, Note_on_c, 0, 65, 79
1, 934108, Control_c, 0, 64, 0
1, 934112, Note_on_c, 0, 58, 53
1, 934136, Note_off_c, 0, 50, 63
1, 934148, Note_off_c, 0, 58, 64
1, 934206, Note_off_c, 0, 65, 62
1, 934227, Note_on_c, 0, 62, 67
1, 934253, Note_off_c, 0, 62, 66
1, 934338, Note_on_c, 0, 46, 55
1, 934344, Note_on_c, 0, 62, 69
1, 934350, Note_on_c, 0, 53, 40
1, 934366, Note_off_c, 0, 46, 63
1, 934379, Note_off_c, 0, 53, 48
1, 934392, Note_off_c, 0, 62, 60
1, 934456, Note_on_c, 0, 67, 76
1, 934481, Note_off_c, 0, 67, 65
1, 934569, Note_on_c, 0, 67, 86
1, 934570, Note_on_c, 0, 58, 59
1, 934583, Note_on_c, 0, 65, 28
1, 934595, Note_off_c, 0, 67, 65
1, 934607, Note_off_c, 0, 58, 64
1, 934619, Note_off_c, 0, 65, 43
1, 934681, Note_on_c, 0, 67, 74
1, 934704, Note_off_c, 0, 67, 70
1, 934794, Note_on_c, 0, 67, 71
1, 934795, Note_on_c, 0, 62, 54
1, 934799, Note_on_c, 0, 55, 51
1, 934818, Note_off_c, 0, 62, 62
1, 934827, Note_off_c, 0, 55, 63
1, 934839, Note_off_c, 0, 67, 63
1, 934845, Note_on_c, 0, 69, 75
1, 934885, Note_off_c, 0, 69, 63
1, 934896, Note_on_c, 0, 67, 64
1, 934937, Note_off_c, 0, 67, 65
1, 934940, Note_on_c, 0, 66, 73
1, 934978, Note_off_c, 0, 66, 55
1, 935002, Note_on_c, 0, 67, 81
1, 935022, Note_on_c, 0, 51, 60
1, 935029, Note_on_c, 0, 58, 53
1, 935034, Note_off_c, 0, 67, 66
1, 935059, Note_off_c, 0, 51, 60
1, 935064, Note_off_c, 0, 58, 64
1, 935134, Note_on_c, 0, 74, 79
1, 935162, Note_off_c, 0, 74, 64
1, 935253, Note_on_c, 0, 69, 74
1, 935254, Note_on_c, 0, 48, 60
1, 935259, Note_on_c, 0, 55, 50
1, 935275, Note_off_c, 0, 69, 66
1, 935286, Note_off_c, 0, 55, 53
1, 935286, Note_off_c, 0, 48, 63
1, 935361, Note_on_c, 0, 67, 76
1, 935389, Note_off_c, 0, 67, 65
1, 935466, Note_on_c, 0, 67, 77
1, 935470, Note_on_c, 0, 43, 61
1, 935489, Note_on_c, 0, 50, 44
1, 935492, Note_off_c, 0, 67, 66
1, 935503, Control_c, 0, 64, 31
1, 935504, Note_on_c, 0, 69, 66
1, 935513, Note_off_c, 0, 43, 64
1, 935517, Note_off_c, 0, 50, 53
1, 935518, Control_c, 0, 64, 47
1, 935533, Control_c, 0, 64, 56
1, 935540, Note_on_c, 0, 67, 66
1, 935548, Control_c, 0, 64, 59
1, 935559, Note_off_c, 0, 69, 62
1, 935582, Note_on_c, 0, 62, 76
1, 935584, Note_off_c, 0, 67, 62
1, 935621, Note_on_c, 0, 40, 63
1, 935629, Note_off_c, 0, 62, 60
1, 935650, Control_c, 0, 64, 58
1, 935659, Note_on_c, 0, 47, 58
1, 935665, Control_c, 0, 64, 41
1, 935680, Control_c, 0, 64, 0
1, 935680, Control_c, 0, 67, 121
1, 935681, Note_on_c, 0, 62, 73
1, 935683, Note_on_c, 0, 56, 84
1, 935690, Note_off_c, 0, 40, 59
1, 935695, Control_c, 0, 67, 90
1, 935695, Note_on_c, 0, 65, 67
1, 935695, Note_off_c, 0, 47, 68
1, 935704, Note_off_c, 0, 62, 69
1, 935710, Control_c, 0, 67, 57
1, 935711, Note_off_c, 0, 56, 66
1, 935714, Note_off_c, 0, 65, 65
1, 935725, Control_c, 0, 67, 32
1, 935739, Control_c, 0, 67, 25
1, 935829, Note_on_c, 0, 61, 68
1, 935856, Note_off_c, 0, 61, 67
1, 935880, Control_c, 0, 67, 27
1, 935924, Control_c, 0, 67, 29
1, 935927, Note_on_c, 0, 55, 55
1, 935927, Note_on_c, 0, 45, 53
1, 935934, Note_on_c, 0, 61, 68
1, 935935, Note_on_c, 0, 49, 48
1, 935942, Note_on_c, 0, 66, 63
1, 935953, Note_off_c, 0, 45, 57
1, 935955, Note_off_c, 0, 55, 63
1, 935962, Note_off_c, 0, 49, 58
1, 935963, Note_off_c, 0, 61, 65
1, 935974, Note_off_c, 0, 66, 64
1, 935999, Control_c, 0, 67, 31
1, 936041, Note_on_c, 0, 59, 68
1, 936067, Note_off_c, 0, 59, 68
1, 936086, Note_on_c, 0, 40, 56
1, 936088, Control_c, 0, 67, 32
1, 936118, Control_c, 0, 67, 32
1, 936121, Note_on_c, 0, 47, 46
1, 936133, Control_c, 0, 67, 35
1, 936144, Note_on_c, 0, 56, 70
1, 936148, Control_c, 0, 67, 42
1, 936151, Note_off_c, 0, 40, 60
1, 936154, Note_off_c, 0, 47, 64
1, 936155, Note_on_c, 0, 62, 70
1, 936161, Note_on_c, 0, 66, 69
1, 936162, Control_c, 0, 67, 51
1, 936177, Control_c, 0, 67, 60
1, 936181, Note_off_c, 0, 62, 68
1, 936190, Note_off_c, 0, 66, 65
1, 936192, Control_c, 0, 67, 70
1, 936193, Note_off_c, 0, 56, 56
1, 936207, Control_c, 0, 67, 79
1, 936222, Control_c, 0, 67, 86
1, 936236, Control_c, 0, 67, 91
1, 936251, Control_c, 0, 67, 93
1, 936253, Note_on_c, 0, 61, 70
1, 936289, Note_off_c, 0, 61, 63
1, 936351, Note_on_c, 0, 45, 67
1, 936362, Note_on_c, 0, 49, 53
1, 936365, Note_on_c, 0, 66, 61
1, 936366, Note_on_c, 0, 61, 58
1, 936380, Note_off_c, 0, 45, 65
1, 936384, Control_c, 0, 67, 92
1, 936386, Note_off_c, 0, 49, 60
1, 936401, Note_off_c, 0, 66, 62
1, 936401, Note_off_c, 0, 61, 62
1, 936429, Control_c, 0, 67, 92
1, 936443, Control_c, 0, 67, 91
1, 936463, Note_on_c, 0, 59, 57
1, 936493, Note_off_c, 0, 59, 66
1, 936525, Control_c, 0, 67, 91
1, 936583, Note_on_c, 0, 33, 68
1, 936591, Note_on_c, 0, 45, 60
1, 936608, Note_off_c, 0, 33, 65
1, 936616, Note_off_c, 0, 45, 59
1, 936840, Note_on_c, 0, 57, 55
1, 936842, Note_on_c, 0, 45, 46
1, 936863, Note_off_c, 0, 57, 58
1, 936871, Note_off_c, 0, 45, 54
1, 937064, Note_on_c, 0, 33, 61
1, 937071, Note_on_c, 0, 45, 62
1, 937093, Note_off_c, 0, 33, 63
1, 937096, Note_off_c, 0, 45, 61
1, 937305, Note_on_c, 0, 57, 65
1, 937313, Note_on_c, 0, 43, 57
1, 937328, Note_off_c, 0, 57, 64
1, 937328, Note_on_c, 0, 45, 41
1, 937344, Note_off_c, 0, 43, 64
1, 937359, Note_off_c, 0, 45, 47
1, 937408, Control_c, 0, 67, 90
1, 937456, Note_on_c, 0, 40, 50
1, 937497, Control_c, 0, 67, 90
1, 937499, Note_on_c, 0, 47, 37
1, 937511, Control_c, 0, 67, 89
1, 937514, Note_on_c, 0, 62, 67
1, 937520, Note_on_c, 0, 55, 67
1, 937522, Note_on_c, 0, 66, 64
1, 937522, Note_off_c, 0, 40, 59
1, 937526, Control_c, 0, 67, 89
1, 937531, Note_off_c, 0, 47, 56
1, 937541, Control_c, 0, 67, 88
1, 937544, Note_off_c, 0, 62, 66
1, 937552, Note_off_c, 0, 55, 64
1, 937552, Note_off_c, 0, 66, 65
1, 937556, Control_c, 0, 67, 88
1, 937571, Control_c, 0, 67, 87
1, 937615, Note_on_c, 0, 61, 74
1, 937652, Note_off_c, 0, 61, 60
1, 937676, Control_c, 0, 67, 87
1, 937705, Control_c, 0, 67, 86
1, 937721, Note_on_c, 0, 49, 60
1, 937723, Note_on_c, 0, 66, 66
1, 937725, Note_on_c, 0, 61, 63
1, 937735, Control_c, 0, 67, 86
1, 937736, Note_on_c, 0, 55, 25
1, 937754, Note_off_c, 0, 49, 64
1, 937759, Note_off_c, 0, 61, 63
1, 937764, Note_off_c, 0, 66, 60
1, 937769, Note_off_c, 0, 55, 43
1, 937779, Control_c, 0, 67, 85
1, 937827, Note_on_c, 0, 59, 43
1, 937852, Note_off_c, 0, 59, 59
1, 937872, Note_on_c, 0, 42, 48
1, 937895, Note_on_c, 0, 49, 58
1, 937936, Note_on_c, 0, 57, 45
1, 937942, Note_on_c, 0, 67, 71
1, 937954, Note_on_c, 0, 64, 42
1, 937972, Control_c, 0, 64, 37
1, 937987, Control_c, 0, 64, 55
1, 938008, Control_c, 0, 64, 64
1, 938020, Note_off_c, 0, 57, 58
1, 938023, Control_c, 0, 64, 69
1, 938038, Control_c, 0, 64, 74
1, 938048, Note_on_c, 0, 62, 65
1, 938053, Control_c, 0, 64, 78
1, 938053, Control_c, 0, 67, 85
1, 938068, Note_off_c, 0, 64, 35
1, 938068, Control_c, 0, 64, 80
1, 938082, Note_off_c, 0, 62, 64
1, 938083, Control_c, 0, 64, 80
1, 938083, Control_c, 0, 67, 84
1, 938087, Note_off_c, 0, 49, 64
1, 938097, Control_c, 0, 67, 84
1, 938124, Note_off_c, 0, 42, 40
1, 938142, Control_c, 0, 67, 83
1, 938157, Control_c, 0, 67, 83
1, 938158, Note_on_c, 0, 62, 63
1, 938187, Control_c, 0, 64, 80
1, 938187, Control_c, 0, 67, 82
1, 938187, Note_off_c, 0, 67, 57
1, 938202, Control_c, 0, 64, 79
1, 938202, Control_c, 0, 67, 81
1, 938216, Control_c, 0, 64, 78
1, 938216, Control_c, 0, 67, 81
1, 938231, Control_c, 0, 64, 77
1, 938231, Control_c, 0, 67, 80
1, 938246, Control_c, 0, 64, 76
1, 938246, Control_c, 0, 67, 78
1, 938251, Note_on_c, 0, 61, 67
1, 938255, Note_off_c, 0, 62, 60
1, 938261, Control_c, 0, 64, 74
1, 938261, Control_c, 0, 67, 74
1, 938276, Control_c, 0, 64, 73
1, 938276, Control_c, 0, 67, 68
1, 938282, Note_off_c, 0, 61, 66
1, 938290, Control_c, 0, 64, 72
1, 938290, Control_c, 0, 67, 65
1, 938305, Control_c, 0, 64, 71
1, 938305, Control_c, 0, 67, 61
1, 938320, Control_c, 0, 64, 70
1, 938320, Control_c, 0, 67, 55
1, 938334, Control_c, 0, 64, 68
1, 938334, Control_c, 0, 67, 42
1, 938349, Control_c, 0, 64, 57
1, 938349, Control_c, 0, 67, 0
1, 938364, Control_c, 0, 64, 0
1, 938366, Note_on_c, 0, 47, 71
1, 938369, Note_on_c, 0, 35, 62
1, 938391, Note_off_c, 0, 47, 67
1, 938399, Note_off_c, 0, 35, 60
1, 938610, Note_on_c, 0, 47, 71
1, 938613, Note_on_c, 0, 59, 69
1, 938637, Note_off_c, 0, 59, 68
1, 938641, Note_off_c, 0, 47, 68
1, 938869, Note_on_c, 0, 67, 69
1, 938873, Note_on_c, 0, 64, 50
1, 938875, Note_on_c, 0, 47, 45
1, 938878, Note_on_c, 0, 59, 43
1, 938890, Note_on_c, 0, 54, 40
1, 938905, Control_c, 0, 64, 45
1, 938920, Control_c, 0, 64, 56
1, 938935, Control_c, 0, 64, 63
1, 938950, Control_c, 0, 64, 68
1, 938965, Control_c, 0, 64, 71
1, 938980, Control_c, 0, 64, 76
1, 938995, Control_c, 0, 64, 81
1, 939006, Note_on_c, 0, 62, 62
1, 939009, Note_off_c, 0, 59, 60
1, 939009, Control_c, 0, 64, 88
1, 939024, Control_c, 0, 64, 96
1, 939030, Note_off_c, 0, 64, 50
1, 939039, Control_c, 0, 64, 106
1, 939045, Note_off_c, 0, 62, 62
1, 939054, Control_c, 0, 64, 127
1, 939059, Note_off_c, 0, 54, 60
1, 939078, Note_off_c, 0, 47, 63
1, 939127, Note_on_c, 0, 62, 67
1, 939150, Note_off_c, 0, 67, 57
1, 939226, Note_on_c, 0, 61, 74
1, 939227, Note_off_c, 0, 62, 57
1, 939257, Note_off_c, 0, 61, 64
1, 939322, Control_c, 0, 64, 83
1, 939334, Note_on_c, 0, 69, 80
1, 939336, Control_c, 0, 64, 65
1, 939338, Note_on_c, 0, 43, 62
1, 939339, Note_on_c, 0, 55, 61
1, 939339, Note_on_c, 0, 66, 71
1, 939349, Note_on_c, 0, 50, 57
1, 939351, Control_c, 0, 64, 45
1, 939353, Note_on_c, 0, 59, 51
1, 939366, Control_c, 0, 64, 0
1, 939379, Control_c, 0, 64, 31
1, 939394, Control_c, 0, 64, 46
1, 939409, Control_c, 0, 64, 59
1, 939416, Note_off_c, 0, 59, 0
1, 939424, Control_c, 0, 64, 67
1, 939439, Control_c, 0, 64, 76
1, 939453, Poly_aftertouch_c, 0, 59, 127
1, 939454, Control_c, 0, 64, 86
1, 939459, Note_off_c, 0, 55, 58
1, 939463, Note_on_c, 0, 64, 53
1, 939466, Note_on_c, 0, 59, 13
1, 939469, Note_off_c, 0, 66, 61
1, 939469, Control_c, 0, 64, 96
1, 939483, Control_c, 0, 64, 107
1, 939488, Note_off_c, 0, 64, 64
1, 939498, Note_off_c, 0, 50, 59
1, 939498, Control_c, 0, 64, 127
1, 939540, Note_off_c, 0, 43, 57
1, 939572, Note_on_c, 0, 64, 70
1, 939600, Note_off_c, 0, 69, 54
1, 939669, Note_on_c, 0, 62, 75
1, 939680, Note_off_c, 0, 64, 61
1, 939702, Note_off_c, 0, 59, 28
1, 939704, Note_off_c, 0, 62, 62
1, 939743, Control_c, 0, 64, 109
1, 939758, Control_c, 0, 64, 81
1, 939773, Control_c, 0, 64, 65
1, 939776, Note_on_c, 0, 40, 76
1, 939776, Note_on_c, 0, 52, 76
1, 939785, Note_on_c, 0, 47, 67
1, 939785, Note_on_c, 0, 71, 81
1, 939787, Control_c, 0, 64, 51
1, 939791, Note_on_c, 0, 67, 72
1, 939802, Control_c, 0, 64, 41
1, 939814, Note_on_c, 0, 59, 57
1, 939817, Control_c, 0, 64, 45
1, 939832, Control_c, 0, 64, 56
1, 939847, Control_c, 0, 64, 65
1, 939861, Control_c, 0, 64, 72
1, 939876, Control_c, 0, 64, 82
1, 939891, Control_c, 0, 64, 96
1, 939893, Note_off_c, 0, 40, 61
1, 939899, Note_on_c, 0, 66, 70
1, 939905, Control_c, 0, 64, 117
1, 939909, Note_off_c, 0, 67, 61
1, 939913, Note_off_c, 0, 52, 61
1, 939916, Note_off_c, 0, 47, 61
1, 939920, Control_c, 0, 64, 127
1, 939951, Note_off_c, 0, 66, 63
1, 939963, Note_off_c, 0, 71, 60
1, 939985, Note_off_c, 0, 59, 0
1, 940000, Note_on_c, 0, 66, 67
1, 940022, Poly_aftertouch_c, 0, 59, 127
1, 940042, Poly_aftertouch_c, 0, 59, 0
1, 940075, Poly_aftertouch_c, 0, 59, 0
1, 940077, Note_off_c, 0, 66, 59
1, 940091, Note_on_c, 0, 64, 73
1, 940116, Poly_aftertouch_c, 0, 67, 0
1, 940160, Note_off_c, 0, 64, 62
1, 940173, Control_c, 0, 64, 85
1, 940188, Control_c, 0, 64, 66
1, 940202, Control_c, 0, 64, 50
1, 940217, Note_on_c, 0, 57, 93
1, 940217, Control_c, 0, 64, 31
1, 940218, Note_on_c, 0, 45, 87
1, 940223, Note_on_c, 0, 73, 87
1, 940232, Note_on_c, 0, 61, 65
1, 940232, Control_c, 0, 64, 32
1, 940247, Control_c, 0, 64, 48
1, 940270, Control_c, 0, 64, 62
1, 940277, Note_off_c, 0, 61, 58
1, 940282, Note_on_c, 0, 69, 31
1, 940284, Control_c, 0, 64, 73
1, 940299, Control_c, 0, 64, 91
1, 940312, Note_off_c, 0, 45, 62
1, 940314, Control_c, 0, 64, 127
1, 940320, Note_off_c, 0, 57, 62
1, 940374, Note_on_c, 0, 67, 80
1, 940378, Note_off_c, 0, 73, 53
1, 940380, Note_off_c, 0, 69, 36
1, 940422, Note_off_c, 0, 67, 65
1, 940483, Note_on_c, 0, 50, 84
1, 940491, Note_on_c, 0, 67, 79
1, 940496, Note_on_c, 0, 62, 55
1, 940519, Note_off_c, 0, 62, 60
1, 940532, Note_off_c, 0, 50, 62
1, 940568, Note_off_c, 0, 67, 52
1, 940583, Note_on_c, 0, 66, 80
1, 940632, Note_off_c, 0, 66, 62
1, 940670, Control_c, 0, 64, 78
1, 940684, Control_c, 0, 64, 54
1, 940693, Note_on_c, 0, 74, 89
1, 940694, Note_on_c, 0, 59, 87
1, 940694, Note_on_c, 0, 47, 87
1, 940699, Control_c, 0, 64, 0
1, 940700, Note_on_c, 0, 71, 80
1, 940709, Note_on_c, 0, 62, 70
1, 940741, Note_off_c, 0, 62, 62
1, 940753, Note_off_c, 0, 47, 64
1, 940757, Note_off_c, 0, 59, 63
1, 940758, Control_c, 0, 64, 51
1, 940774, Control_c, 0, 64, 64
1, 940789, Control_c, 0, 64, 74
1, 940804, Control_c, 0, 64, 86
1, 940807, Note_on_c, 0, 69, 83
1, 940819, Control_c, 0, 64, 100
1, 940828, Note_off_c, 0, 71, 61
1, 940833, Control_c, 0, 64, 107
1, 940848, Control_c, 0, 64, 112
1, 940858, Note_off_c, 0, 69, 63
1, 940863, Control_c, 0, 64, 114
1, 940893, Control_c, 0, 64, 117
1, 940896, Note_off_c, 0, 74, 53
1, 940907, Control_c, 0, 64, 125
1, 940922, Control_c, 0, 64, 127
1, 940926, Note_on_c, 0, 52, 86
1, 940931, Note_on_c, 0, 64, 71
1, 940931, Note_on_c, 0, 69, 84
1, 940954, Note_off_c, 0, 64, 69
1, 940985, Note_off_c, 0, 52, 62
1, 941008, Note_off_c, 0, 69, 61
1, 941048, Note_on_c, 0, 67, 88
1, 941094, Note_off_c, 0, 67, 64
1, 941137, Control_c, 0, 64, 99
1, 941152, Control_c, 0, 64, 76
1, 941166, Control_c, 0, 64, 59
1, 941181, Control_c, 0, 64, 0
1, 941249, Note_on_c, 0, 79, 77
1, 941253, Note_on_c, 0, 76, 61
1, 941254, Note_on_c, 0, 37, 62
1, 941255, Note_on_c, 0, 25, 73
1, 941258, Note_on_c, 0, 67, 59
1, 941285, Control_c, 0, 64, 37
1, 941300, Control_c, 0, 64, 50
1, 941314, Control_c, 0, 64, 59
1, 941329, Control_c, 0, 64, 65
1, 941344, Control_c, 0, 64, 70
1, 941358, Control_c, 0, 64, 76
1, 941373, Control_c, 0, 64, 83
1, 941386, Note_off_c, 0, 37, 56
1, 941388, Control_c, 0, 64, 91
1, 941403, Note_off_c, 0, 25, 62
1, 941403, Control_c, 0, 64, 103
1, 941413, Note_on_c, 0, 74, 73
1, 941418, Control_c, 0, 64, 127
1, 941424, Note_off_c, 0, 76, 60
1, 941453, Note_off_c, 0, 74, 60
1, 941526, Note_on_c, 0, 28, 80
1, 941528, Note_on_c, 0, 40, 71
1, 941537, Note_on_c, 0, 74, 76
1, 941591, Note_off_c, 0, 67, 59
1, 941594, Note_off_c, 0, 28, 60
1, 941595, Note_off_c, 0, 79, 57
1, 941596, Note_off_c, 0, 40, 60
1, 941635, Note_on_c, 0, 73, 82
1, 941662, Note_off_c, 0, 74, 57
1, 941696, Note_off_c, 0, 73, 61
1, 941752, Control_c, 0, 64, 99
1, 941762, Note_on_c, 0, 79, 86
1, 941764, Note_on_c, 0, 76, 82
1, 941766, Note_on_c, 0, 33, 86
1, 941766, Note_on_c, 0, 45, 84
1, 941767, Control_c, 0, 64, 75
1, 941773, Note_on_c, 0, 67, 66
1, 941781, Control_c, 0, 64, 61
1, 941796, Control_c, 0, 64, 50
1, 941826, Control_c, 0, 64, 56
1, 941841, Control_c, 0, 64, 63
1, 941849, Note_off_c, 0, 33, 63
1, 941855, Control_c, 0, 64, 69
1, 941866, Note_off_c, 0, 45, 64
1, 941870, Control_c, 0, 64, 76
1, 941873, Note_on_c, 0, 74, 80
1, 941885, Control_c, 0, 64, 86
1, 941889, Note_off_c, 0, 76, 61
1, 941899, Control_c, 0, 64, 97
1, 941914, Control_c, 0, 64, 110
1, 941919, Note_off_c, 0, 74, 65
1, 941929, Control_c, 0, 64, 127
1, 941987, Note_on_c, 0, 52, 90
1, 941990, Note_on_c, 0, 74, 82
1, 941992, Note_on_c, 0, 40, 84
1, 942049, Note_off_c, 0, 40, 60
1, 942055, Note_off_c, 0, 52, 59
1, 942095, Note_on_c, 0, 73, 90
1, 942100, Note_off_c, 0, 79, 46
1, 942123, Note_off_c, 0, 74, 60
1, 942137, Note_off_c, 0, 67, 54
1, 942163, Note_off_c, 0, 73, 62
1, 942211, Control_c, 0, 64, 92
1, 942211, Note_on_c, 0, 57, 94
1, 942214, Note_on_c, 0, 45, 93
1, 942219, Note_on_c, 0, 79, 92
1, 942220, Note_on_c, 0, 76, 90
1, 942224, Note_on_c, 0, 67, 78
1, 942226, Control_c, 0, 64, 68
1, 942241, Control_c, 0, 64, 57
1, 942255, Control_c, 0, 64, 52
1, 942270, Control_c, 0, 64, 56
1, 942285, Control_c, 0, 64, 63
1, 942287, Note_off_c, 0, 45, 57
1, 942299, Control_c, 0, 64, 68
1, 942306, Note_off_c, 0, 57, 62
1, 942314, Control_c, 0, 64, 76
1, 942321, Note_on_c, 0, 74, 90
1, 942329, Control_c, 0, 64, 88
1, 942344, Control_c, 0, 64, 101
1, 942345, Note_off_c, 0, 76, 63
1, 942356, Note_off_c, 0, 67, 55
1, 942359, Control_c, 0, 64, 118
1, 942375, Control_c, 0, 64, 127
1, 942381, Note_off_c, 0, 74, 64
1, 942405, Control_c, 0, 64, 119
1, 942420, Control_c, 0, 64, 94
1, 942435, Control_c, 0, 64, 76
1, 942449, Control_c, 0, 64, 68
1, 942453, Note_on_c, 0, 64, 90
1, 942455, Note_on_c, 0, 52, 87
1, 942455, Note_on_c, 0, 74, 88
1, 942464, Control_c, 0, 64, 67
1, 942479, Control_c, 0, 64, 70
1, 942494, Control_c, 0, 64, 74
1, 942516, Control_c, 0, 64, 82
1, 942524, Note_off_c, 0, 79, 55
1, 942527, Note_off_c, 0, 64, 62
1, 942530, Control_c, 0, 64, 93
1, 942538, Note_off_c, 0, 52, 60
1, 942545, Control_c, 0, 64, 110
1, 942560, Control_c, 0, 64, 127
1, 942577, Note_on_c, 0, 73, 92
1, 942598, Note_off_c, 0, 74, 62
1, 942676, Note_off_c, 0, 73, 61
1, 942712, Note_on_c, 0, 61, 95
1, 942721, Note_on_c, 0, 49, 92
1, 942775, Note_off_c, 0, 49, 61
1, 942778, Note_off_c, 0, 61, 62
1, 942960, Control_c, 0, 64, 84
1, 942975, Control_c, 0, 64, 62
1, 942984, Note_on_c, 0, 69, 92
1, 942986, Note_on_c, 0, 57, 95
1, 942990, Control_c, 0, 64, 0
1, 943034, Note_off_c, 0, 69, 64
1, 943034, Control_c, 0, 64, 52
1, 943049, Control_c, 0, 64, 66
1, 943063, Control_c, 0, 64, 77
1, 943065, Note_off_c, 0, 57, 64
1, 943078, Control_c, 0, 64, 97
1, 943093, Control_c, 0, 64, 127
1, 943227, Control_c, 0, 64, 118
1, 943242, Control_c, 0, 64, 87
1, 943265, Control_c, 0, 64, 76
1, 943277, Note_on_c, 0, 57, 92
1, 943278, Note_on_c, 0, 45, 93
1, 943280, Control_c, 0, 64, 74
1, 943287, Note_on_c, 0, 69, 87
1, 943295, Control_c, 0, 64, 75
1, 943309, Control_c, 0, 64, 79
1, 943324, Note_off_c, 0, 57, 63
1, 943324, Control_c, 0, 64, 85
1, 943339, Control_c, 0, 64, 102
1, 943347, Note_off_c, 0, 45, 61
1, 943353, Control_c, 0, 64, 127
1, 943576, Control_c, 0, 64, 116
1, 943591, Control_c, 0, 64, 74
1, 943604, Note_on_c, 0, 38, 100
1, 943606, Control_c, 0, 64, 50
1, 943606, Note_on_c, 0, 26, 98
1, 943609, Note_on_c, 0, 81, 96
1, 943609, Note_on_c, 0, 74, 92
1, 943613, Note_on_c, 0, 78, 83
1, 943620, Control_c, 0, 64, 0
1, 943650, Note_off_c, 0, 26, 64
1, 943655, Note_off_c, 0, 69, 61
1, 943663, Note_off_c, 0, 38, 65
1, 943665, Control_c, 0, 64, 45
1, 943679, Control_c, 0, 64, 66
1, 943694, Control_c, 0, 64, 84
1, 943709, Control_c, 0, 64, 127
1, 943718, Note_off_c, 0, 74, 62
1, 943761, Note_off_c, 0, 78, 59
1, 943830, Note_on_c, 0, 76, 85
1, 943833, Note_on_c, 0, 79, 86
1, 943884, Note_off_c, 0, 81, 42
1, 943901, Note_off_c, 0, 76, 60
1, 943978, Note_on_c, 0, 57, 89
1, 943978, Note_on_c, 0, 78, 93
1, 943982, Note_on_c, 0, 67, 86
1, 943983, Note_on_c, 0, 74, 88
1, 943990, Note_off_c, 0, 79, 52
1, 944053, Note_off_c, 0, 67, 61
1, 944065, Note_off_c, 0, 78, 61
1, 944072, Note_off_c, 0, 74, 59
1, 944113, Note_on_c, 0, 76, 93
1, 944113, Note_on_c, 0, 79, 87
1, 944144, Note_off_c, 0, 57, 55
1, 944164, Note_off_c, 0, 76, 64
1, 944187, Note_off_c, 0, 79, 64
1, 944221, Control_c, 0, 64, 88
1, 944236, Control_c, 0, 64, 70
1, 944250, Note_on_c, 0, 69, 88
1, 944250, Control_c, 0, 64, 66
1, 944252, Note_on_c, 0, 62, 80
1, 944253, Note_on_c, 0, 66, 81
1, 944253, Note_on_c, 0, 74, 87
1, 944253, Note_on_c, 0, 81, 93
1, 944254, Note_on_c, 0, 78, 86
1, 944265, Control_c, 0, 64, 67
1, 944280, Control_c, 0, 64, 72
1, 944295, Control_c, 0, 64, 78
1, 944310, Control_c, 0, 64, 87
1, 944324, Control_c, 0, 64, 96
1, 944332, Note_off_c, 0, 78, 61
1, 944336, Note_off_c, 0, 69, 59
1, 944339, Control_c, 0, 64, 115
1, 944346, Note_off_c, 0, 66, 62
1, 944347, Note_off_c, 0, 62, 59
1, 944354, Control_c, 0, 64, 127
1, 944355, Note_off_c, 0, 74, 59
1, 944376, Note_on_c, 0, 76, 90
1, 944381, Note_on_c, 0, 79, 86
1, 944396, Note_off_c, 0, 81, 35
1, 944422, Note_off_c, 0, 76, 65
1, 944443, Note_off_c, 0, 79, 63
1, 944498, Note_on_c, 0, 57, 81
1, 944499, Note_on_c, 0, 67, 79
1, 944500, Note_on_c, 0, 78, 88
1, 944502, Note_on_c, 0, 74, 85
1, 944515, Note_on_c, 0, 64, 54
1, 944548, Note_off_c, 0, 64, 64
1, 944585, Note_off_c, 0, 78, 0
1, 944605, Note_on_c, 0, 79, 87
1, 944606, Note_off_c, 0, 67, 61
1, 944607, Note_on_c, 0, 76, 88
1, 944623, Note_on_c, 0, 78, 11
1, 944625, Note_off_c, 0, 57, 58
1, 944625, Note_off_c, 0, 74, 60
1, 944635, Note_off_c, 0, 78, 51
1, 944660, Note_off_c, 0, 76, 62
1, 944690, Note_off_c, 0, 79, 64
1, 944695, Control_c, 0, 64, 91
1, 944710, Control_c, 0, 64, 74
1, 944721, Note_on_c, 0, 66, 73
1, 944721, Note_on_c, 0, 69, 87
1, 944725, Control_c, 0, 64, 62
1, 944728, Note_on_c, 0, 81, 89
1, 944729, Note_on_c, 0, 74, 90
1, 944730, Note_on_c, 0, 78, 87
1, 944736, Note_on_c, 0, 62, 61
1, 944740, Control_c, 0, 64, 59
1, 944763, Control_c, 0, 64, 61
1, 944777, Note_off_c, 0, 62, 64
1, 944778, Control_c, 0, 64, 65
1, 944787, Note_off_c, 0, 66, 61
1, 944791, Note_off_c, 0, 69, 62
1, 944793, Control_c, 0, 64, 69
1, 944801, Note_off_c, 0, 74, 57
1, 944804, Note_off_c, 0, 78, 59
1, 944807, Control_c, 0, 64, 74
1, 944822, Control_c, 0, 64, 78
1, 944837, Control_c, 0, 64, 81
1, 944849, Note_on_c, 0, 76, 88
1, 944851, Note_on_c, 0, 67, 83
1, 944852, Note_on_c, 0, 79, 83
1, 944852, Control_c, 0, 64, 82
1, 944879, Note_off_c, 0, 81, 38
1, 944906, Note_off_c, 0, 76, 61
1, 944924, Note_off_c, 0, 79, 63
1, 944926, Note_off_c, 0, 67, 59
1, 944926, Control_c, 0, 64, 83
1, 944941, Control_c, 0, 64, 85
1, 944948, Note_on_c, 0, 57, 85
1, 944952, Note_on_c, 0, 78, 91
1, 944953, Note_on_c, 0, 64, 70
1, 944956, Control_c, 0, 64, 86
1, 944962, Note_on_c, 0, 74, 86
1, 944971, Control_c, 0, 64, 87
1, 945000, Control_c, 0, 64, 87
1, 945012, Note_off_c, 0, 64, 63
1, 945015, Control_c, 0, 64, 88
1, 945030, Control_c, 0, 64, 88
1, 945045, Note_on_c, 0, 67, 74
1, 945055, Note_on_c, 0, 76, 91
1, 945057, Note_on_c, 0, 79, 86
1, 945080, Note_off_c, 0, 74, 61
1, 945086, Note_off_c, 0, 57, 62
1, 945086, Note_off_c, 0, 78, 62
1, 945089, Control_c, 0, 64, 86
1, 945104, Control_c, 0, 64, 78
1, 945109, Note_off_c, 0, 67, 64
1, 945119, Control_c, 0, 64, 64
1, 945120, Note_off_c, 0, 76, 60
1, 945133, Control_c, 0, 64, 0
1, 945179, Note_on_c, 0, 66, 89
1, 945180, Note_on_c, 0, 62, 74
1, 945183, Note_on_c, 0, 69, 78
1, 945185, Note_on_c, 0, 81, 91
1, 945189, Note_on_c, 0, 78, 83
1, 945190, Note_on_c, 0, 74, 90
1, 945206, Note_off_c, 0, 69, 67
1, 945222, Note_off_c, 0, 66, 66
1, 945222, Control_c, 0, 64, 55
1, 945235, Note_off_c, 0, 62, 65
1, 945237, Control_c, 0, 64, 67
1, 945240, Note_off_c, 0, 74, 62
1, 945247, Note_off_c, 0, 79, 37
1, 945251, Note_off_c, 0, 78, 61
1, 945251, Control_c, 0, 64, 82
1, 945259, Note_off_c, 0, 81, 62
1, 945266, Control_c, 0, 64, 127
1, 945371, Control_c, 0, 64, 94
1, 945386, Control_c, 0, 64, 62
1, 945400, Control_c, 0, 64, 0
1, 945401, Note_on_c, 0, 37, 80
1, 945406, Note_on_c, 0, 25, 94
1, 945433, Note_on_c, 0, 24, 63
1, 945462, Note_on_c, 0, 83, 97
1, 945463, Note_on_c, 0, 71, 91
1, 945463, Note_on_c, 0, 74, 88
1, 945467, Note_on_c, 0, 78, 83
1, 945472, Note_off_c, 0, 24, 48
1, 945474, Control_c, 0, 64, 46
1, 945481, Note_off_c, 0, 37, 63
1, 945496, Control_c, 0, 64, 59
1, 945511, Control_c, 0, 64, 67
1, 945520, Note_off_c, 0, 25, 58
1, 945526, Control_c, 0, 64, 83
1, 945532, Note_off_c, 0, 83, 65
1, 945541, Control_c, 0, 64, 127
1, 945547, Note_off_c, 0, 74, 64
1, 945555, Note_off_c, 0, 78, 65
1, 945556, Note_off_c, 0, 71, 64
1, 945612, Note_on_c, 0, 35, 93
1, 945616, Note_on_c, 0, 23, 96
1, 945690, Control_c, 0, 64, 74
1, 945700, Note_off_c, 0, 35, 58
1, 945705, Control_c, 0, 64, 46
1, 945719, Note_off_c, 0, 23, 63
1, 945719, Control_c, 0, 64, 0
1, 945780, Note_on_c, 0, 33, 99
1, 945781, Note_on_c, 0, 76, 95
1, 945782, Note_on_c, 0, 69, 81
1, 945782, Note_on_c, 0, 21, 96
1, 945786, Note_on_c, 0, 64, 80
1, 945787, Note_on_c, 0, 73, 74
1, 945823, Control_c, 0, 64, 51
1, 945829, Note_off_c, 0, 21, 64
1, 945838, Control_c, 0, 64, 85
1, 945850, Note_off_c, 0, 33, 65
1, 945851, Note_off_c, 0, 69, 60
1, 945853, Control_c, 0, 64, 127
1, 945856, Note_off_c, 0, 64, 62
1, 945888, Note_off_c, 0, 73, 60
1, 945972, Note_on_c, 0, 71, 73
1, 945973, Note_off_c, 0, 76, 59
1, 945976, Note_on_c, 0, 74, 70
1, 946012, Note_on_c, 0, 52, 89
1, 946050, Note_off_c, 0, 71, 55
1, 946069, Note_off_c, 0, 52, 58
1, 946096, Note_off_c, 0, 74, 61
1, 946097, Note_on_c, 0, 73, 75
1, 946099, Note_on_c, 0, 69, 71
1, 946140, Note_on_c, 0, 54, 88
1, 946208, Note_on_c, 0, 74, 74
1, 946208, Note_on_c, 0, 71, 64
1, 946217, Note_off_c, 0, 54, 64
1, 946220, Note_off_c, 0, 69, 56
1, 946222, Note_off_c, 0, 73, 60
1, 946274, Control_c, 0, 64, 104
1, 946286, Note_off_c, 0, 71, 55
1, 946289, Control_c, 0, 64, 77
1, 946295, Note_on_c, 0, 55, 93
1, 946304, Control_c, 0, 64, 66
1, 946319, Control_c, 0, 64, 63
1, 946320, Note_off_c, 0, 74, 54
1, 946329, Note_on_c, 0, 76, 76
1, 946334, Control_c, 0, 64, 67
1, 946342, Note_on_c, 0, 73, 63
1, 946344, Note_on_c, 0, 69, 58
1, 946348, Control_c, 0, 64, 74
1, 946363, Control_c, 0, 64, 86
1, 946370, Note_off_c, 0, 55, 63
1, 946378, Control_c, 0, 64, 109
1, 946390, Note_off_c, 0, 73, 53
1, 946393, Control_c, 0, 64, 127
1, 946396, Note_off_c, 0, 69, 50
1, 946439, Note_on_c, 0, 71, 71
1, 946441, Note_on_c, 0, 74, 73
1, 946452, Note_off_c, 0, 76, 58
1, 946469, Note_on_c, 0, 57, 92
1, 946493, Note_off_c, 0, 71, 59
1, 946506, Note_off_c, 0, 74, 60
1, 946542, Note_on_c, 0, 73, 80
1, 946543, Note_off_c, 0, 57, 64
1, 946551, Note_on_c, 0, 69, 70
1, 946616, Note_on_c, 0, 59, 89
1, 946638, Note_on_c, 0, 74, 77
1, 946644, Note_on_c, 0, 71, 71
1, 946651, Note_off_c, 0, 73, 61
1, 946667, Note_off_c, 0, 69, 55
1, 946691, Note_off_c, 0, 59, 61
1, 946719, Control_c, 0, 64, 96
1, 946734, Control_c, 0, 64, 64
1, 946735, Note_off_c, 0, 71, 55
1, 946745, Note_off_c, 0, 74, 61
1, 946749, Control_c, 0, 64, 0
1, 946761, Note_on_c, 0, 61, 100
1, 946768, Note_on_c, 0, 76, 77
1, 946770, Note_on_c, 0, 73, 69
1, 946782, Note_on_c, 0, 69, 70
1, 946822, Control_c, 0, 64, 36
1, 946837, Note_off_c, 0, 69, 56
1, 946837, Control_c, 0, 64, 64
1, 946840, Note_off_c, 0, 61, 61
1, 946850, Note_off_c, 0, 73, 51
1, 946852, Control_c, 0, 64, 74
1, 946868, Control_c, 0, 64, 87
1, 946877, Note_on_c, 0, 71, 74
1, 946879, Note_on_c, 0, 74, 77
1, 946883, Control_c, 0, 64, 101
1, 946897, Control_c, 0, 64, 112
1, 946899, Note_off_c, 0, 76, 53
1, 946912, Control_c, 0, 64, 127
1, 946936, Note_on_c, 0, 62, 95
1, 946936, Note_off_c, 0, 71, 61
1, 946957, Note_off_c, 0, 74, 61
1, 947010, Note_on_c, 0, 73, 82
1, 947016, Note_off_c, 0, 62, 64
1, 947019, Note_on_c, 0, 69, 79
1, 947091, Note_on_c, 0, 64, 95
1, 947120, Note_on_c, 0, 74, 78
1, 947123, Note_on_c, 0, 71, 71
1, 947136, Note_off_c, 0, 73, 58
1, 947156, Note_off_c, 0, 64, 63
1, 947165, Note_off_c, 0, 69, 47
1, 947186, Note_off_c, 0, 71, 63
1, 947217, Control_c, 0, 64, 79
1, 947232, Control_c, 0, 64, 43
1, 947233, Note_off_c, 0, 74, 60
1, 947246, Control_c, 0, 64, 0
1, 947253, Note_on_c, 0, 66, 102
1, 947271, Note_on_c, 0, 76, 78
1, 947276, Note_on_c, 0, 69, 74
1, 947290, Note_off_c, 0, 66, 68
1, 947306, Control_c, 0, 64, 53
1, 947320, Control_c, 0, 64, 73
1, 947323, Note_off_c, 0, 69, 56
1, 947335, Control_c, 0, 64, 106
1, 947350, Control_c, 0, 64, 127
1, 947422, Note_off_c, 0, 76, 55
1, 947425, Control_c, 0, 64, 78
1, 947439, Control_c, 0, 64, 56
1, 947444, Note_on_c, 0, 67, 92
1, 947448, Note_on_c, 0, 31, 91
1, 947448, Note_on_c, 0, 43, 86
1, 947454, Control_c, 0, 64, 30
1, 947469, Control_c, 0, 64, 34
1, 947484, Control_c, 0, 64, 57
1, 947499, Control_c, 0, 64, 79
1, 947508, Note_off_c, 0, 43, 61
1, 947513, Control_c, 0, 64, 127
1, 947547, Note_off_c, 0, 31, 56
1, 947555, Note_off_c, 0, 67, 60
1, 947573, Control_c, 0, 64, 68
1, 947588, Control_c, 0, 64, 0
1, 947623, Note_on_c, 0, 42, 79
1, 947623, Note_on_c, 0, 69, 96
1, 947630, Note_on_c, 0, 30, 81
1, 947632, Control_c, 0, 64, 62
1, 947646, Control_c, 0, 64, 97
1, 947661, Control_c, 0, 64, 127
1, 947666, Note_off_c, 0, 69, 65
1, 947693, Note_off_c, 0, 42, 64
1, 947705, Note_off_c, 0, 30, 59
1, 947773, Control_c, 0, 64, 112
1, 947788, Control_c, 0, 64, 60
1, 947802, Control_c, 0, 64, 0
1, 947846, Note_on_c, 0, 40, 104
1, 947848, Note_on_c, 0, 83, 98
1, 947850, Note_on_c, 0, 76, 94
1, 947851, Note_on_c, 0, 71, 91
1, 947855, Note_on_c, 0, 26, 90
1, 947857, Note_on_c, 0, 28, 85
1, 947907, Note_off_c, 0, 26, 62
1, 947919, Note_off_c, 0, 28, 63
1, 947920, Note_off_c, 0, 76, 52
1, 947922, Note_off_c, 0, 71, 55
1, 947935, Control_c, 0, 64, 59
1, 947946, Note_off_c, 0, 40, 66
1, 947950, Control_c, 0, 64, 127
1, 948045, Note_on_c, 0, 78, 86
1, 948045, Note_on_c, 0, 81, 91
1, 948066, Note_off_c, 0, 83, 59
1, 948094, Note_off_c, 0, 78, 64
1, 948119, Note_off_c, 0, 81, 63
1, 948174, Note_on_c, 0, 79, 88
1, 948176, Note_on_c, 0, 69, 74
1, 948177, Note_on_c, 0, 76, 85
1, 948179, Note_on_c, 0, 59, 64
1, 948238, Note_off_c, 0, 76, 58
1, 948239, Note_off_c, 0, 69, 57
1, 948241, Note_off_c, 0, 79, 64
1, 948268, Note_off_c, 0, 59, 52
1, 948280, Poly_aftertouch_c, 0, 57, 0
1, 948284, Note_on_c, 0, 78, 90
1, 948286, Note_on_c, 0, 81, 88
1, 948339, Note_off_c, 0, 78, 59
1, 948351, Note_off_c, 0, 81, 63
1, 948351, Control_c, 0, 64, 116
1, 948366, Control_c, 0, 64, 74
1, 948381, Control_c, 0, 64, 55
1, 948396, Control_c, 0, 64, 41
1, 948404, Note_on_c, 0, 67, 81
1, 948405, Note_on_c, 0, 71, 89
1, 948405, Note_on_c, 0, 64, 72
1, 948408, Note_on_c, 0, 79, 98
1, 948409, Note_on_c, 0, 76, 93
1, 948411, Control_c, 0, 64, 53
1, 948414, Note_on_c, 0, 83, 91
1, 948425, Control_c, 0, 64, 65
1, 948440, Control_c, 0, 64, 80
1, 948455, Control_c, 0, 64, 127
1, 948465, Note_off_c, 0, 76, 60
1, 948476, Note_off_c, 0, 79, 63
1, 948479, Note_off_c, 0, 71, 61
1, 948480, Note_off_c, 0, 67, 62
1, 948504, Note_off_c, 0, 64, 60
1, 948507, Note_off_c, 0, 83, 62
1, 948534, Note_on_c, 0, 78, 85
1, 948539, Note_on_c, 0, 81, 82
1, 948582, Note_off_c, 0, 78, 63
1, 948594, Note_off_c, 0, 81, 62
1, 948649, Note_on_c, 0, 69, 83
1, 948650, Note_on_c, 0, 59, 75
1, 948652, Note_on_c, 0, 66, 70
1, 948655, Note_on_c, 0, 79, 89
1, 948658, Note_on_c, 0, 76, 84
1, 948703, Note_off_c, 0, 66, 60
1, 948712, Note_off_c, 0, 79, 65
1, 948718, Note_off_c, 0, 76, 60
1, 948721, Note_off_c, 0, 69, 56
1, 948761, Note_on_c, 0, 78, 87
1, 948761, Note_on_c, 0, 81, 89
1, 948802, Note_off_c, 0, 59, 53
1, 948814, Note_off_c, 0, 78, 60
1, 948831, Note_off_c, 0, 81, 62
1, 948848, Control_c, 0, 64, 84
1, 948863, Control_c, 0, 64, 65
1, 948872, Note_on_c, 0, 67, 64
1, 948878, Control_c, 0, 64, 55
1, 948879, Note_on_c, 0, 71, 88
1, 948879, Note_on_c, 0, 64, 44
1, 948880, Note_on_c, 0, 76, 91
1, 948882, Note_on_c, 0, 79, 89
1, 948887, Note_on_c, 0, 83, 85
1, 948892, Control_c, 0, 64, 58
1, 948906, Note_off_c, 0, 64, 58
1, 948907, Control_c, 0, 64, 64
1, 948912, Note_off_c, 0, 67, 65
1, 948922, Control_c, 0, 64, 74
1, 948937, Control_c, 0, 64, 89
1, 948939, Note_off_c, 0, 71, 64
1, 948951, Note_off_c, 0, 76, 54
1, 948952, Note_off_c, 0, 79, 61
1, 948952, Control_c, 0, 64, 127
1, 948990, Note_on_c, 0, 78, 89
1, 948993, Note_on_c, 0, 81, 84
1, 949000, Note_off_c, 0, 83, 52
1, 949002, Note_on_c, 0, 69, 85
1, 949050, Note_off_c, 0, 78, 60
1, 949054, Note_off_c, 0, 81, 62
1, 949097, Note_on_c, 0, 79, 95
1, 949104, Note_on_c, 0, 59, 83
1, 949108, Note_on_c, 0, 76, 78
1, 949133, Note_off_c, 0, 69, 58
1, 949168, Note_off_c, 0, 76, 61
1, 949200, Note_on_c, 0, 78, 91
1, 949200, Note_on_c, 0, 81, 90
1, 949219, Note_on_c, 0, 69, 74
1, 949224, Note_off_c, 0, 79, 62
1, 949244, Note_off_c, 0, 59, 62
1, 949253, Note_off_c, 0, 69, 62
1, 949266, Note_off_c, 0, 78, 62
1, 949285, Note_off_c, 0, 81, 63
1, 949285, Control_c, 0, 64, 88
1, 949288, Poly_aftertouch_c, 0, 76, 0
1, 949300, Control_c, 0, 64, 63
1, 949314, Control_c, 0, 64, 0
1, 949331, Note_on_c, 0, 64, 79
1, 949332, Note_on_c, 0, 71, 81
1, 949334, Note_on_c, 0, 67, 78
1, 949335, Note_on_c, 0, 76, 93
1, 949335, Note_on_c, 0, 83, 92
1, 949335, Note_on_c, 0, 79, 89
1, 949351, Note_off_c, 0, 71, 72
1, 949356, Note_off_c, 0, 67, 72
1, 949359, Control_c, 0, 64, 56
1, 949366, Note_off_c, 0, 79, 65
1, 949371, Note_off_c, 0, 76, 65
1, 949374, Note_off_c, 0, 64, 67
1, 949374, Control_c, 0, 64, 71
1, 949385, Note_off_c, 0, 83, 61
1, 949389, Control_c, 0, 64, 95
1, 949404, Control_c, 0, 64, 127
1, 949522, Control_c, 0, 64, 83
1, 949537, Control_c, 0, 64, 55
1, 949547, Note_on_c, 0, 26, 91
1, 949548, Note_on_c, 0, 38, 83
1, 949552, Control_c, 0, 64, 0
1, 949592, Note_on_c, 0, 76, 89
1, 949595, Note_on_c, 0, 73, 92
1, 949597, Control_c, 0, 64, 34
1, 949598, Note_on_c, 0, 85, 91
1, 949601, Note_off_c, 0, 38, 64
1, 949602, Note_on_c, 0, 79, 65
1, 949603, Note_off_c, 0, 26, 63
1, 949612, Control_c, 0, 64, 58
1, 949626, Note_off_c, 0, 79, 65
1, 949627, Control_c, 0, 64, 69
1, 949635, Note_off_c, 0, 76, 62
1, 949641, Control_c, 0, 64, 88
1, 949649, Note_off_c, 0, 85, 64
1, 949656, Note_off_c, 0, 73, 61
1, 949656, Control_c, 0, 64, 127
1, 949726, Note_on_c, 0, 37, 88
1, 949730, Note_on_c, 0, 25, 94
1, 949762, Note_on_c, 0, 24, 56
1, 949779, Note_off_c, 0, 37, 64
1, 949803, Note_off_c, 0, 24, 50
1, 949804, Note_off_c, 0, 25, 61
1, 949834, Control_c, 0, 64, 86
1, 949848, Control_c, 0, 64, 57
1, 949863, Control_c, 0, 64, 0
1, 949928, Note_on_c, 0, 35, 101
1, 949929, Note_on_c, 0, 23, 91
1, 949930, Note_on_c, 0, 78, 89
1, 949934, Note_on_c, 0, 66, 81
1, 949934, Note_on_c, 0, 71, 74
1, 949939, Note_on_c, 0, 74, 73
1, 949967, Control_c, 0, 64, 55
1, 949973, Note_off_c, 0, 23, 63
1, 949977, Note_off_c, 0, 71, 63
1, 949989, Control_c, 0, 64, 87
1, 949992, Note_off_c, 0, 35, 62
1, 950000, Note_off_c, 0, 66, 58
1, 950004, Control_c, 0, 64, 127
1, 950057, Note_off_c, 0, 74, 52
1, 950103, Note_on_c, 0, 73, 72
1, 950116, Note_on_c, 0, 76, 68
1, 950155, Note_off_c, 0, 78, 36
1, 950164, Note_on_c, 0, 50, 83
1, 950173, Note_off_c, 0, 73, 55
1, 950197, Note_off_c, 0, 76, 56
1, 950215, Note_off_c, 0, 50, 63
1, 950233, Note_on_c, 0, 71, 67
1, 950245, Note_on_c, 0, 74, 65
1, 950307, Note_on_c, 0, 52, 93
1, 950341, Note_on_c, 0, 76, 74
1, 950343, Note_on_c, 0, 73, 68
1, 950358, Note_off_c, 0, 74, 58
1, 950367, Note_off_c, 0, 52, 63
1, 950384, Note_off_c, 0, 71, 26
1, 950409, Note_off_c, 0, 73, 59
1, 950420, Control_c, 0, 64, 101
1, 950435, Control_c, 0, 64, 75
1, 950449, Note_off_c, 0, 76, 52
1, 950450, Control_c, 0, 64, 62
1, 950459, Note_on_c, 0, 54, 95
1, 950464, Control_c, 0, 64, 56
1, 950479, Note_on_c, 0, 78, 70
1, 950479, Control_c, 0, 64, 60
1, 950485, Note_on_c, 0, 74, 64
1, 950487, Note_on_c, 0, 71, 68
1, 950494, Control_c, 0, 64, 67
1, 950509, Control_c, 0, 64, 80
1, 950524, Note_off_c, 0, 54, 65
1, 950524, Control_c, 0, 64, 106
1, 950530, Note_off_c, 0, 71, 56
1, 950538, Control_c, 0, 64, 127
1, 950545, Note_off_c, 0, 78, 55
1, 950596, Note_on_c, 0, 73, 75
1, 950599, Note_off_c, 0, 74, 32
1, 950602, Note_on_c, 0, 76, 70
1, 950644, Note_on_c, 0, 55, 86
1, 950654, Note_off_c, 0, 73, 61
1, 950669, Note_off_c, 0, 76, 59
1, 950703, Note_off_c, 0, 55, 65
1, 950716, Note_on_c, 0, 74, 77
1, 950723, Note_on_c, 0, 71, 70
1, 950796, Note_on_c, 0, 57, 94
1, 950831, Note_on_c, 0, 76, 74
1, 950832, Note_on_c, 0, 73, 70
1, 950846, Note_off_c, 0, 74, 58
1, 950847, Note_off_c, 0, 57, 64
1, 950848, Note_off_c, 0, 71, 57
1, 950891, Note_off_c, 0, 73, 58
1, 950901, Control_c, 0, 64, 86
1, 950916, Control_c, 0, 64, 56
1, 950931, Control_c, 0, 64, 0
1, 950943, Note_on_c, 0, 59, 89
1, 950943, Note_off_c, 0, 76, 47
1, 950954, Note_on_c, 0, 78, 76
1, 950964, Note_on_c, 0, 74, 65
1, 950972, Note_on_c, 0, 71, 57
1, 950990, Control_c, 0, 64, 50
1, 951004, Note_off_c, 0, 59, 66
1, 951005, Control_c, 0, 64, 64
1, 951014, Note_off_c, 0, 71, 59
1, 951020, Control_c, 0, 64, 75
1, 951027, Note_off_c, 0, 78, 53
1, 951034, Control_c, 0, 64, 88
1, 951049, Control_c, 0, 64, 103
1, 951064, Control_c, 0, 64, 115
1, 951073, Note_on_c, 0, 73, 76
1, 951074, Note_on_c, 0, 76, 72
1, 951079, Control_c, 0, 64, 127
1, 951093, Note_off_c, 0, 74, 49
1, 951124, Note_on_c, 0, 61, 90
1, 951129, Note_off_c, 0, 73, 61
1, 951143, Note_off_c, 0, 76, 57
1, 951184, Note_off_c, 0, 61, 63
1, 951192, Note_on_c, 0, 74, 76
1, 951206, Note_on_c, 0, 71, 63
1, 951267, Note_off_c, 0, 71, 53
1, 951279, Note_on_c, 0, 62, 94
1, 951289, Note_on_c, 0, 76, 76
1, 951306, Note_off_c, 0, 74, 58
1, 951314, Note_on_c, 0, 73, 56
1, 951330, Note_off_c, 0, 62, 64
1, 951336, Note_off_c, 0, 73, 66
1, 951391, Control_c, 0, 64, 89
1, 951406, Control_c, 0, 64, 48
1, 951420, Control_c, 0, 64, 0
1, 951442, Note_off_c, 0, 76, 38
1, 951443, Note_on_c, 0, 64, 88
1, 951446, Note_on_c, 0, 78, 84
1, 951449, Note_on_c, 0, 71, 86
1, 951465, Control_c, 0, 64, 36
1, 951476, Note_off_c, 0, 64, 65
1, 951480, Control_c, 0, 64, 60
1, 951495, Note_off_c, 0, 71, 63
1, 951502, Control_c, 0, 64, 70
1, 951503, Note_off_c, 0, 78, 63
1, 951517, Control_c, 0, 64, 82
1, 951532, Control_c, 0, 64, 98
1, 951547, Control_c, 0, 64, 125
1, 951562, Control_c, 0, 64, 127
1, 951591, Control_c, 0, 64, 120
1, 951606, Control_c, 0, 64, 85
1, 951620, Control_c, 0, 64, 60
1, 951635, Control_c, 0, 64, 0
1, 951650, Note_on_c, 0, 66, 88
1, 951658, Note_on_c, 0, 45, 84
1, 951659, Note_on_c, 0, 33, 86
1, 951665, Control_c, 0, 64, 34
1, 951680, Control_c, 0, 64, 59
1, 951694, Control_c, 0, 64, 75
1, 951709, Control_c, 0, 64, 127
1, 951714, Note_off_c, 0, 66, 62
1, 951715, Note_off_c, 0, 45, 62
1, 951725, Note_off_c, 0, 33, 59
1, 951768, Control_c, 0, 64, 88
1, 951783, Control_c, 0, 64, 62
1, 951798, Control_c, 0, 64, 33
1, 951812, Control_c, 0, 64, 34
1, 951823, Note_on_c, 0, 43, 87
1, 951827, Control_c, 0, 64, 56
1, 951830, Note_on_c, 0, 67, 83
1, 951833, Note_on_c, 0, 31, 77
1, 951839, Note_on_c, 0, 33, 73
1, 951842, Control_c, 0, 64, 75
1, 951857, Control_c, 0, 64, 127
1, 951881, Note_off_c, 0, 33, 59
1, 951885, Note_off_c, 0, 43, 63
1, 951886, Note_off_c, 0, 31, 60
1, 951920, Note_off_c, 0, 67, 57
1, 951946, Control_c, 0, 64, 105
1, 951962, Control_c, 0, 64, 62
1, 951977, Control_c, 0, 64, 0
1, 952014, Note_on_c, 0, 42, 98
1, 952025, Note_on_c, 0, 81, 96
1, 952026, Note_on_c, 0, 30, 80
1, 952027, Note_on_c, 0, 69, 76
1, 952027, Note_on_c, 0, 74, 77
1, 952034, Note_on_c, 0, 78, 73
1, 952036, Control_c, 0, 64, 32
1, 952048, Note_off_c, 0, 30, 65
1, 952048, Note_off_c, 0, 74, 70
1, 952048, Note_off_c, 0, 69, 70
1, 952051, Control_c, 0, 64, 73
1, 952058, Note_off_c, 0, 78, 68
1, 952066, Note_off_c, 0, 42, 63
1, 952066, Control_c, 0, 64, 127
1, 952075, Note_off_c, 0, 81, 66
1, 952120, Poly_aftertouch_c, 0, 71, 0
1, 952190, Note_on_c, 0, 91, 76
1, 952201, Note_on_c, 0, 79, 75
1, 952226, Note_off_c, 0, 79, 71
1, 952228, Note_on_c, 0, 86, 36
1, 952253, Note_off_c, 0, 91, 64
1, 952257, Note_on_c, 0, 45, 73
1, 952266, Note_off_c, 0, 86, 46
1, 952269, Note_on_c, 0, 57, 51
1, 952286, Note_off_c, 0, 45, 65
1, 952292, Note_off_c, 0, 57, 58
1, 952325, Note_on_c, 0, 90, 81
1, 952328, Note_on_c, 0, 78, 77
1, 952335, Note_on_c, 0, 86, 75
1, 952361, Poly_aftertouch_c, 0, 55, 0
1, 952364, Note_off_c, 0, 86, 62
1, 952377, Note_off_c, 0, 90, 63
1, 952379, Note_off_c, 0, 78, 61
1, 952398, Note_on_c, 0, 50, 75
1, 952406, Note_on_c, 0, 62, 71
1, 952436, Note_on_c, 0, 79, 83
1, 952437, Note_on_c, 0, 91, 84
1, 952439, Note_off_c, 0, 62, 63
1, 952446, Note_on_c, 0, 86, 72
1, 952452, Note_off_c, 0, 50, 61
1, 952470, Note_off_c, 0, 86, 68
1, 952481, Note_off_c, 0, 79, 63
1, 952483, Note_off_c, 0, 91, 65
1, 952504, Control_c, 0, 64, 78
1, 952518, Control_c, 0, 64, 61
1, 952533, Control_c, 0, 64, 49
1, 952546, Note_on_c, 0, 54, 72
1, 952547, Note_on_c, 0, 66, 80
1, 952548, Control_c, 0, 64, 53
1, 952550, Note_on_c, 0, 93, 85
1, 952554, Note_on_c, 0, 81, 81
1, 952556, Note_on_c, 0, 86, 80
1, 952562, Control_c, 0, 64, 62
1, 952577, Control_c, 0, 64, 70
1, 952592, Control_c, 0, 64, 81
1, 952595, Note_off_c, 0, 86, 60
1, 952596, Note_off_c, 0, 54, 60
1, 952596, Note_off_c, 0, 81, 63
1, 952597, Note_off_c, 0, 66, 61
1, 952598, Note_off_c, 0, 93, 66
1, 952607, Control_c, 0, 64, 100
1, 952622, Control_c, 0, 64, 127
1, 952666, Note_on_c, 0, 91, 90
1, 952673, Note_on_c, 0, 79, 81
1, 952677, Note_on_c, 0, 86, 76
1, 952693, Note_on_c, 0, 57, 82
1, 952695, Note_on_c, 0, 69, 77
1, 952704, Note_off_c, 0, 86, 64
1, 952707, Note_off_c, 0, 79, 63
1, 952708, Note_off_c, 0, 91, 66
1, 952739, Note_off_c, 0, 57, 60
1, 952743, Note_off_c, 0, 69, 61
1, 952769, Note_on_c, 0, 90, 87
1, 952770, Note_on_c, 0, 78, 86
1, 952781, Note_on_c, 0, 86, 78
1, 952805, Note_off_c, 0, 86, 66
1, 952821, Note_off_c, 0, 78, 63
1, 952823, Note_off_c, 0, 90, 63
1, 952862, Note_on_c, 0, 76, 69
1, 952865, Note_on_c, 0, 62, 54
1, 952871, Note_on_c, 0, 74, 64
1, 952871, Note_on_c, 0, 64, 62
1, 952875, Note_on_c, 0, 91, 88
1, 952880, Note_on_c, 0, 79, 85
1, 952884, Note_on_c, 0, 86, 83
1, 952890, Note_off_c, 0, 62, 62
1, 952890, Note_off_c, 0, 74, 65
1, 952891, Note_off_c, 0, 76, 66
1, 952893, Note_off_c, 0, 64, 65
1, 952907, Note_off_c, 0, 86, 66
1, 952912, Note_off_c, 0, 79, 62
1, 952919, Control_c, 0, 64, 107
1, 952923, Note_off_c, 0, 91, 66
1, 952933, Control_c, 0, 64, 79
1, 952948, Control_c, 0, 64, 64
1, 952963, Control_c, 0, 64, 55
1, 952985, Control_c, 0, 64, 56
1, 952992, Note_on_c, 0, 93, 98
1, 952998, Note_on_c, 0, 81, 82
1, 952999, Note_on_c, 0, 86, 84
1, 953000, Control_c, 0, 64, 63
1, 953005, Note_on_c, 0, 78, 78
1, 953011, Note_on_c, 0, 68, 59
1, 953015, Control_c, 0, 64, 68
1, 953030, Control_c, 0, 64, 74
1, 953036, Note_off_c, 0, 68, 62
1, 953039, Note_off_c, 0, 93, 66
1, 953042, Note_off_c, 0, 81, 62
1, 953042, Note_off_c, 0, 86, 61
1, 953045, Control_c, 0, 64, 79
1, 953052, Note_off_c, 0, 78, 60
1, 953059, Control_c, 0, 64, 81
1, 953074, Control_c, 0, 64, 81
1, 953097, Note_on_c, 0, 76, 82
1, 953106, Note_on_c, 0, 91, 95
1, 953112, Note_on_c, 0, 79, 81
1, 953112, Note_on_c, 0, 86, 86
1, 953143, Note_off_c, 0, 76, 64
1, 953150, Note_off_c, 0, 79, 65
1, 953151, Note_off_c, 0, 91, 64
1, 953154, Note_off_c, 0, 86, 62
1, 953201, Note_on_c, 0, 74, 80
1, 953205, Note_on_c, 0, 90, 87
1, 953208, Note_on_c, 0, 78, 89
1, 953209, Note_on_c, 0, 86, 74
1, 953246, Note_off_c, 0, 86, 59
1, 953256, Note_off_c, 0, 78, 63
1, 953257, Note_off_c, 0, 90, 64
1, 953267, Note_off_c, 0, 74, 59
1, 953308, Note_on_c, 0, 91, 91
1, 953311, Note_on_c, 0, 69, 57
1, 953312, Note_on_c, 0, 79, 86
1, 953317, Note_on_c, 0, 71, 64
1, 953317, Note_on_c, 0, 86, 77
1, 953339, Note_off_c, 0, 86, 67
1, 953344, Note_off_c, 0, 71, 67
1, 953348, Note_off_c, 0, 79, 61
1, 953356, Note_off_c, 0, 91, 66
1, 953369, Note_off_c, 0, 69, 59
1, 953399, Note_on_c, 0, 62, 76
1, 953413, Note_on_c, 0, 81, 91
1, 953413, Note_on_c, 0, 93, 97
1, 953421, Note_on_c, 0, 86, 82
1, 953430, Control_c, 0, 64, 73
1, 953440, Note_off_c, 0, 62, 58
1, 953440, Note_off_c, 0, 86, 70
1, 953445, Control_c, 0, 64, 51
1, 953450, Note_off_c, 0, 93, 68
1, 953453, Note_off_c, 0, 81, 62
1, 953459, Control_c, 0, 64, 0
1, 953476, Note_on_c, 0, 87, 5
1, 953476, Note_off_c, 0, 87, 127
1, 953643, Note_on_c, 0, 55, 75
1, 953645, Note_on_c, 0, 86, 92
1, 953645, Note_on_c, 0, 95, 98
1, 953646, Note_on_c, 0, 83, 98
1, 953649, Note_on_c, 0, 62, 76
1, 953651, Note_on_c, 0, 66, 78
1, 953666, Note_on_c, 0, 59, 64
1, 953667, Control_c, 0, 64, 57
1, 953668, Note_off_c, 0, 86, 69
1, 953677, Note_off_c, 0, 95, 65
1, 953681, Control_c, 0, 64, 67
1, 953685, Note_off_c, 0, 83, 64
1, 953696, Control_c, 0, 64, 76
1, 953711, Control_c, 0, 64, 84
1, 953722, Note_off_c, 0, 55, 62
1, 953726, Control_c, 0, 64, 90
1, 953726, Note_off_c, 0, 62, 58
1, 953747, Note_off_c, 0, 66, 58
1, 953748, Control_c, 0, 64, 96
1, 953757, Note_off_c, 0, 59, 61
1, 953851, Control_c, 0, 64, 93
1, 953866, Control_c, 0, 64, 77
1, 953875, Note_on_c, 0, 57, 73
1, 953881, Control_c, 0, 64, 61
1, 953890, Note_on_c, 0, 85, 88
1, 953890, Note_on_c, 0, 88, 86
1, 953893, Note_on_c, 0, 61, 71
1, 953896, Control_c, 0, 64, 0
1, 953955, Control_c, 0, 64, 38
1, 953970, Control_c, 0, 64, 55
1, 953980, Note_on_c, 0, 62, 77
1, 953980, Note_off_c, 0, 61, 63
1, 953985, Control_c, 0, 64, 65
1, 953991, Note_off_c, 0, 57, 59
1, 954000, Control_c, 0, 64, 71
1, 954014, Control_c, 0, 64, 76
1, 954029, Control_c, 0, 64, 79
1, 954030, Note_on_c, 0, 81, 84
1, 954044, Control_c, 0, 64, 81
1, 954046, Note_off_c, 0, 88, 61
1, 954053, Note_off_c, 0, 62, 63
1, 954059, Control_c, 0, 64, 82
1, 954062, Note_on_c, 0, 64, 65
1, 954070, Note_off_c, 0, 85, 60
1, 954074, Control_c, 0, 64, 84
1, 954088, Control_c, 0, 64, 87
1, 954103, Control_c, 0, 64, 91
1, 954114, Note_off_c, 0, 81, 63
1, 954118, Control_c, 0, 64, 94
1, 954129, Note_off_c, 0, 64, 63
1, 954130, Note_on_c, 0, 66, 79
1, 954132, Control_c, 0, 64, 96
1, 954138, Note_on_c, 0, 76, 82
1, 954162, Control_c, 0, 64, 98
1, 954183, Note_off_c, 0, 66, 63
1, 954201, Note_on_c, 0, 64, 62
1, 954206, Control_c, 0, 64, 101
1, 954227, Note_on_c, 0, 81, 83
1, 954245, Note_on_c, 0, 62, 78
1, 954247, Note_off_c, 0, 64, 55
1, 954249, Note_off_c, 0, 76, 60
1, 954281, Control_c, 0, 64, 104
1, 954296, Control_c, 0, 64, 107
1, 954315, Note_off_c, 0, 62, 62
1, 954319, Note_on_c, 0, 61, 83
1, 954320, Note_on_c, 0, 85, 84
1, 954322, Note_on_c, 0, 88, 84
1, 954325, Control_c, 0, 64, 93
1, 954329, Note_off_c, 0, 81, 62
1, 954340, Control_c, 0, 64, 62
1, 954355, Control_c, 0, 64, 0
1, 954364, Note_off_c, 0, 88, 63
1, 954367, Note_off_c, 0, 85, 66
1, 954376, Note_off_c, 0, 61, 60
1, 954561, Note_on_c, 0, 85, 101
1, 954564, Note_on_c, 0, 93, 99
1, 954565, Note_on_c, 0, 81, 88
1, 954567, Note_on_c, 0, 54, 75
1, 954570, Control_c, 0, 64, 47
1, 954572, Note_on_c, 0, 64, 74
1, 954582, Note_on_c, 0, 61, 62
1, 954585, Note_on_c, 0, 57, 59
1, 954585, Control_c, 0, 64, 59
1, 954588, Note_off_c, 0, 85, 66
1, 954594, Note_off_c, 0, 81, 63
1, 954598, Note_off_c, 0, 93, 66
1, 954600, Control_c, 0, 64, 71
1, 954615, Control_c, 0, 64, 88
1, 954626, Note_off_c, 0, 61, 56
1, 954630, Control_c, 0, 64, 127
1, 954635, Note_off_c, 0, 64, 60
1, 954659, Note_off_c, 0, 57, 57
1, 954670, Note_off_c, 0, 54, 52
1, 954763, Control_c, 0, 64, 100
1, 954778, Control_c, 0, 64, 71
1, 954783, Note_on_c, 0, 55, 67
1, 954793, Control_c, 0, 64, 45
1, 954794, Note_on_c, 0, 59, 61
1, 954807, Note_on_c, 0, 86, 84
1, 954808, Note_on_c, 0, 83, 84
1, 954808, Control_c, 0, 64, 0
1, 954882, Note_on_c, 0, 61, 69
1, 954882, Control_c, 0, 64, 48
1, 954892, Note_off_c, 0, 55, 60
1, 954897, Control_c, 0, 64, 60
1, 954910, Note_off_c, 0, 59, 61
1, 954911, Control_c, 0, 64, 65
1, 954919, Note_on_c, 0, 79, 79
1, 954926, Control_c, 0, 64, 70
1, 954941, Control_c, 0, 64, 75
1, 954951, Note_off_c, 0, 86, 41
1, 954952, Note_off_c, 0, 61, 60
1, 954954, Note_on_c, 0, 62, 70
1, 954955, Control_c, 0, 64, 78
1, 954978, Note_off_c, 0, 83, 60
1, 955021, Note_off_c, 0, 62, 61
1, 955021, Note_off_c, 0, 79, 65
1, 955026, Note_on_c, 0, 64, 73
1, 955029, Note_on_c, 0, 74, 76
1, 955071, Note_off_c, 0, 64, 60
1, 955091, Note_on_c, 0, 62, 73
1, 955121, Note_on_c, 0, 79, 85
1, 955139, Note_off_c, 0, 62, 60
1, 955140, Note_off_c, 0, 74, 60
1, 955141, Note_on_c, 0, 61, 69
1, 955194, Control_c, 0, 64, 76
1, 955203, Note_off_c, 0, 61, 62
1, 955209, Control_c, 0, 64, 69
1, 955217, Note_on_c, 0, 59, 77
1, 955224, Control_c, 0, 64, 49
1, 955226, Note_on_c, 0, 86, 80
1, 955237, Note_on_c, 0, 83, 77
1, 955243, Note_off_c, 0, 79, 65
1, 955246, Control_c, 0, 64, 0
1, 955256, Note_off_c, 0, 83, 71
1, 955268, Note_off_c, 0, 86, 63
1, 955288, Note_off_c, 0, 59, 60
1, 955378, Note_on_c, 0, 52, 64
1, 955383, Note_on_c, 0, 55, 64
1, 955421, Note_on_c, 0, 62, 70
1, 955465, Note_on_c, 0, 95, 105
1, 955466, Note_on_c, 0, 86, 91
1, 955468, Note_on_c, 0, 66, 85
1, 955468, Note_on_c, 0, 83, 91
1, 955477, Note_off_c, 0, 52, 61
1, 955483, Control_c, 0, 64, 53
1, 955488, Note_off_c, 0, 86, 68
1, 955494, Note_off_c, 0, 55, 64
1, 955498, Note_off_c, 0, 95, 69
1, 955498, Control_c, 0, 64, 72
1, 955503, Note_off_c, 0, 62, 64
1, 955503, Note_off_c, 0, 83, 65
1, 955512, Control_c, 0, 64, 87
1, 955527, Control_c, 0, 64, 127
1, 955580, Note_off_c, 0, 66, 58
1, 955646, Control_c, 0, 64, 89
1, 955661, Control_c, 0, 64, 66
1, 955676, Control_c, 0, 64, 36
1, 955685, Note_on_c, 0, 57, 69
1, 955690, Note_on_c, 0, 61, 54
1, 955691, Control_c, 0, 64, 0
1, 955703, Note_on_c, 0, 85, 84
1, 955704, Note_on_c, 0, 88, 84
1, 955750, Control_c, 0, 64, 36
1, 955765, Control_c, 0, 64, 48
1, 955771, Note_on_c, 0, 62, 72
1, 955779, Control_c, 0, 64, 58
1, 955792, Note_off_c, 0, 57, 57
1, 955794, Control_c, 0, 64, 64
1, 955795, Note_off_c, 0, 61, 62
1, 955809, Control_c, 0, 64, 66
1, 955824, Note_on_c, 0, 81, 78
1, 955824, Control_c, 0, 64, 67
1, 955833, Note_off_c, 0, 88, 58
1, 955839, Control_c, 0, 64, 68
1, 955840, Note_off_c, 0, 62, 63
1, 955851, Note_on_c, 0, 64, 65
1, 955853, Control_c, 0, 64, 70
1, 955867, Note_off_c, 0, 85, 63
1, 955868, Control_c, 0, 64, 71
1, 955883, Control_c, 0, 64, 72
1, 955897, Note_off_c, 0, 81, 64
1, 955909, Note_on_c, 0, 76, 75
1, 955914, Note_off_c, 0, 64, 62
1, 955926, Note_on_c, 0, 66, 73
1, 955991, Note_off_c, 0, 66, 63
1, 956003, Note_on_c, 0, 64, 57
1, 956005, Note_on_c, 0, 81, 83
1, 956039, Note_off_c, 0, 76, 59
1, 956057, Note_off_c, 0, 64, 54
1, 956058, Note_on_c, 0, 62, 73
1, 956099, Control_c, 0, 64, 72
1, 956101, Note_on_c, 0, 85, 81
1, 956108, Note_on_c, 0, 88, 74
1, 956114, Note_off_c, 0, 81, 62
1, 956114, Control_c, 0, 64, 69
1, 956117, Note_on_c, 0, 61, 77
1, 956117, Note_off_c, 0, 62, 64
1, 956129, Control_c, 0, 64, 59
1, 956130, Note_off_c, 0, 88, 71
1, 956143, Control_c, 0, 64, 0
1, 956147, Note_off_c, 0, 85, 63
1, 956169, Note_off_c, 0, 61, 61
1, 956291, Control_c, 0, 64, 29
1, 956306, Control_c, 0, 64, 35
1, 956321, Control_c, 0, 64, 36
1, 956329, Note_on_c, 0, 64, 73
1, 956329, Note_on_c, 0, 93, 100
1, 956330, Note_on_c, 0, 54, 75
1, 956330, Note_on_c, 0, 85, 90
1, 956331, Note_on_c, 0, 81, 95
1, 956335, Control_c, 0, 64, 48
1, 956343, Note_on_c, 0, 61, 64
1, 956350, Note_off_c, 0, 85, 69
1, 956350, Control_c, 0, 64, 61
1, 956354, Note_on_c, 0, 57, 58
1, 956356, Note_off_c, 0, 81, 66
1, 956364, Note_off_c, 0, 93, 66
1, 956365, Control_c, 0, 64, 69
1, 956380, Control_c, 0, 64, 75
1, 956395, Control_c, 0, 64, 82
1, 956400, Note_off_c, 0, 64, 61
1, 956408, Note_off_c, 0, 61, 61
1, 956409, Control_c, 0, 64, 85
1, 956416, Note_off_c, 0, 57, 57
1, 956424, Control_c, 0, 64, 86
1, 956436, Note_off_c, 0, 54, 58
1, 956498, Control_c, 0, 64, 83
1, 956513, Control_c, 0, 64, 73
1, 956528, Control_c, 0, 64, 62
1, 956543, Control_c, 0, 64, 48
1, 956549, Note_on_c, 0, 55, 69
1, 956558, Control_c, 0, 64, 0
1, 956563, Note_on_c, 0, 59, 64
1, 956566, Note_on_c, 0, 86, 83
1, 956572, Note_on_c, 0, 83, 83
1, 956601, Control_c, 0, 64, 37
1, 956616, Control_c, 0, 64, 50
1, 956631, Control_c, 0, 64, 58
1, 956646, Control_c, 0, 64, 63
1, 956655, Note_on_c, 0, 61, 67
1, 956661, Control_c, 0, 64, 65
1, 956668, Note_off_c, 0, 55, 58
1, 956675, Note_off_c, 0, 59, 60
1, 956675, Control_c, 0, 64, 67
1, 956683, Note_on_c, 0, 79, 76
1, 956705, Control_c, 0, 64, 67
1, 956727, Note_off_c, 0, 61, 61
1, 956734, Note_on_c, 0, 62, 67
1, 956742, Control_c, 0, 64, 67
1, 956767, Note_off_c, 0, 83, 58
1, 956788, Control_c, 0, 64, 66
1, 956788, Note_off_c, 0, 79, 64
1, 956797, Note_off_c, 0, 62, 62
1, 956802, Control_c, 0, 64, 66
1, 956805, Note_on_c, 0, 74, 68
1, 956805, Note_on_c, 0, 64, 68
1, 956809, Note_off_c, 0, 86, 25
1, 956817, Control_c, 0, 64, 65
1, 956832, Control_c, 0, 64, 65
1, 956841, Note_off_c, 0, 64, 64
1, 956862, Control_c, 0, 64, 64
1, 956874, Note_on_c, 0, 62, 67
1, 956899, Note_on_c, 0, 79, 70
1, 956913, Note_off_c, 0, 74, 60
1, 956924, Note_off_c, 0, 62, 57
1, 956941, Note_on_c, 0, 61, 67
1, 956951, Control_c, 0, 64, 65
1, 956980, Control_c, 0, 64, 64
1, 956995, Control_c, 0, 64, 54
1, 956996, Note_on_c, 0, 86, 68
1, 956999, Note_on_c, 0, 59, 71
1, 957002, Note_on_c, 0, 83, 65
1, 957010, Control_c, 0, 64, 0
1, 957011, Note_off_c, 0, 61, 61
1, 957011, Note_off_c, 0, 79, 64
1, 957022, Note_off_c, 0, 83, 66
1, 957026, Note_off_c, 0, 86, 63
1, 957035, Note_off_c, 0, 59, 66
1, 957217, Note_on_c, 0, 52, 76
1, 957217, Control_c, 0, 64, 33
1, 957219, Note_on_c, 0, 62, 73
1, 957223, Note_on_c, 0, 59, 62
1, 957223, Note_on_c, 0, 71, 73
1, 957223, Note_on_c, 0, 79, 82
1, 957225, Note_on_c, 0, 67, 70
1, 957229, Note_on_c, 0, 55, 65
1, 957232, Control_c, 0, 64, 53
1, 957235, Note_on_c, 0, 74, 55
1, 957247, Control_c, 0, 64, 66
1, 957256, Note_off_c, 0, 67, 61
1, 957257, Note_off_c, 0, 55, 65
1, 957257, Note_off_c, 0, 71, 64
1, 957259, Note_off_c, 0, 74, 58
1, 957262, Control_c, 0, 64, 77
1, 957268, Note_off_c, 0, 59, 62
1, 957276, Control_c, 0, 64, 90
1, 957276, Note_off_c, 0, 52, 61
1, 957278, Note_off_c, 0, 79, 64
1, 957281, Note_off_c, 0, 62, 62
1, 957291, Control_c, 0, 64, 96
1, 957306, Control_c, 0, 64, 91
1, 957321, Control_c, 0, 64, 76
1, 957336, Control_c, 0, 64, 62
1, 957351, Control_c, 0, 64, 31
1, 957366, Control_c, 0, 64, 0
1, 957464, Note_on_c, 0, 57, 67
1, 957473, Note_on_c, 0, 61, 62
1, 957473, Note_on_c, 0, 64, 56
1, 957481, Note_on_c, 0, 73, 66
1, 957482, Note_on_c, 0, 69, 56
1, 957482, Note_on_c, 0, 76, 57
1, 957508, Note_off_c, 0, 73, 68
1, 957509, Note_off_c, 0, 76, 64
1, 957512, Note_off_c, 0, 61, 65
1, 957514, Note_off_c, 0, 64, 64
1, 957514, Note_off_c, 0, 69, 64
1, 957516, Note_off_c, 0, 57, 63
1, 957694, Note_on_c, 0, 73, 83
1, 957695, Note_on_c, 0, 81, 86
1, 957697, Note_on_c, 0, 61, 77
1, 957697, Note_on_c, 0, 69, 79
1, 957698, Note_on_c, 0, 64, 77
1, 957700, Note_on_c, 0, 54, 83
1, 957700, Control_c, 0, 64, 45
1, 957709, Note_on_c, 0, 57, 65
1, 957715, Control_c, 0, 64, 66
1, 957721, Note_off_c, 0, 69, 67
1, 957722, Note_off_c, 0, 73, 63
1, 957730, Control_c, 0, 64, 91
1, 957736, Note_off_c, 0, 61, 60
1, 957738, Note_off_c, 0, 57, 65
1, 957740, Note_off_c, 0, 64, 61
1, 957744, Note_off_c, 0, 81, 63
1, 957744, Control_c, 0, 64, 127
1, 957752, Note_off_c, 0, 54, 62
1, 957804, Control_c, 0, 64, 93
1, 957819, Control_c, 0, 64, 69
1, 957834, Control_c, 0, 64, 48
1, 957849, Control_c, 0, 64, 0
1, 957926, Note_on_c, 0, 66, 71
1, 957927, Note_on_c, 0, 78, 72
1, 957928, Note_on_c, 0, 71, 64
1, 957931, Note_on_c, 0, 74, 65
1, 957932, Note_on_c, 0, 59, 62
1, 957932, Note_on_c, 0, 62, 64
1, 957952, Note_off_c, 0, 78, 67
1, 957956, Note_off_c, 0, 71, 68
1, 957959, Note_off_c, 0, 74, 67
1, 957974, Note_off_c, 0, 62, 62
1, 957978, Note_off_c, 0, 59, 61
1, 957981, Note_off_c, 0, 66, 59
1, 958144, Control_c, 0, 64, 35
1, 958146, Note_on_c, 0, 55, 72
1, 958148, Note_on_c, 0, 83, 96
1, 958150, Note_on_c, 0, 71, 87
1, 958151, Note_on_c, 0, 59, 61
1, 958153, Note_on_c, 0, 66, 78
1, 958155, Note_on_c, 0, 74, 74
1, 958159, Control_c, 0, 64, 54
1, 958162, Note_on_c, 0, 78, 64
1, 958162, Note_off_c, 0, 78, 127
1, 958170, Note_off_c, 0, 74, 67
1, 958173, Note_off_c, 0, 71, 66
1, 958174, Control_c, 0, 64, 65
1, 958185, Note_off_c, 0, 59, 66
1, 958189, Control_c, 0, 64, 76
1, 958189, Note_off_c, 0, 83, 63
1, 958194, Note_off_c, 0, 55, 62
1, 958204, Control_c, 0, 64, 88
1, 958218, Control_c, 0, 64, 97
1, 958230, Note_off_c, 0, 66, 52
1, 958241, Control_c, 0, 64, 100
1, 958314, Control_c, 0, 64, 94
1, 958329, Control_c, 0, 64, 77
1, 958344, Control_c, 0, 64, 61
1, 958360, Control_c, 0, 64, 29
1, 958371, Note_on_c, 0, 61, 77
1, 958373, Note_on_c, 0, 67, 77
1, 958375, Note_on_c, 0, 79, 88
1, 958375, Control_c, 0, 64, 0
1, 958376, Note_on_c, 0, 64, 70
1, 958382, Note_on_c, 0, 76, 79
1, 958404, Control_c, 0, 64, 38
1, 958419, Control_c, 0, 64, 55
1, 958422, Note_off_c, 0, 64, 61
1, 958430, Note_off_c, 0, 61, 60
1, 958434, Control_c, 0, 64, 63
1, 958439, Note_off_c, 0, 67, 63
1, 958449, Control_c, 0, 64, 67
1, 958455, Note_off_c, 0, 76, 60
1, 958464, Control_c, 0, 64, 70
1, 958475, Note_off_c, 0, 79, 62
1, 958478, Control_c, 0, 64, 70
1, 958490, Note_on_c, 0, 73, 86
1, 958508, Control_c, 0, 64, 69
1, 958522, Control_c, 0, 64, 65
1, 958537, Control_c, 0, 64, 59
1, 958552, Control_c, 0, 64, 50
1, 958567, Control_c, 0, 64, 46
1, 958582, Control_c, 0, 64, 52
1, 958587, Note_on_c, 0, 57, 75
1, 958588, Note_on_c, 0, 69, 80
1, 958591, Note_on_c, 0, 79, 83
1, 958596, Note_on_c, 0, 64, 66
1, 958597, Note_on_c, 0, 61, 73
1, 958597, Control_c, 0, 64, 59
1, 958598, Note_on_c, 0, 76, 77
1, 958606, Note_off_c, 0, 73, 54
1, 958612, Control_c, 0, 64, 64
1, 958626, Note_off_c, 0, 64, 66
1, 958627, Note_off_c, 0, 61, 64
1, 958627, Control_c, 0, 64, 68
1, 958634, Note_off_c, 0, 57, 61
1, 958639, Note_off_c, 0, 69, 63
1, 958642, Control_c, 0, 64, 71
1, 958652, Note_off_c, 0, 76, 61
1, 958657, Control_c, 0, 64, 73
1, 958671, Control_c, 0, 64, 75
1, 958686, Control_c, 0, 64, 75
1, 958696, Note_off_c, 0, 79, 55
1, 958697, Note_on_c, 0, 85, 86
1, 958730, Control_c, 0, 64, 75
1, 958745, Control_c, 0, 64, 69
1, 958755, Note_off_c, 0, 85, 65
1, 958760, Control_c, 0, 64, 58
1, 958775, Control_c, 0, 64, 0
1, 958813, Note_on_c, 0, 62, 74
1, 958817, Note_on_c, 0, 78, 89
1, 958818, Note_on_c, 0, 81, 86
1, 958823, Note_on_c, 0, 66, 69
1, 958849, Control_c, 0, 64, 38
1, 958864, Control_c, 0, 64, 53
1, 958878, Control_c, 0, 64, 63
1, 958886, Note_off_c, 0, 62, 57
1, 958893, Control_c, 0, 64, 67
1, 958908, Note_off_c, 0, 66, 58
1, 958908, Control_c, 0, 64, 70
1, 958916, Note_on_c, 0, 74, 83
1, 958922, Control_c, 0, 64, 71
1, 958933, Note_off_c, 0, 78, 50
1, 958941, Note_off_c, 0, 81, 62
1, 958967, Control_c, 0, 64, 68
1, 958990, Control_c, 0, 64, 59
1, 959004, Control_c, 0, 64, 40
1, 959011, Note_off_c, 0, 74, 60
1, 959019, Control_c, 0, 64, 0
1, 959032, Note_on_c, 0, 59, 62
1, 959032, Note_on_c, 0, 86, 96
1, 959038, Note_on_c, 0, 62, 65
1, 959040, Note_on_c, 0, 78, 83
1, 959044, Note_on_c, 0, 66, 62
1, 959049, Control_c, 0, 64, 41
1, 959063, Control_c, 0, 64, 60
1, 959073, Note_off_c, 0, 59, 62
1, 959074, Note_off_c, 0, 62, 65
1, 959078, Control_c, 0, 64, 69
1, 959093, Control_c, 0, 64, 80
1, 959104, Note_off_c, 0, 66, 60
1, 959107, Note_off_c, 0, 78, 53
1, 959108, Control_c, 0, 64, 91
1, 959123, Control_c, 0, 64, 99
1, 959129, Note_on_c, 0, 68, 70
1, 959137, Note_on_c, 0, 80, 88
1, 959137, Control_c, 0, 64, 104
1, 959151, Note_off_c, 0, 86, 56
1, 959181, Note_off_c, 0, 80, 64
1, 959196, Note_off_c, 0, 68, 60
1, 959198, Control_c, 0, 64, 100
1, 959213, Control_c, 0, 64, 86
1, 959227, Control_c, 0, 64, 68
1, 959242, Control_c, 0, 64, 50
1, 959257, Control_c, 0, 64, 0
1, 959271, Note_on_c, 0, 69, 74
1, 959272, Note_on_c, 0, 57, 63
1, 959277, Note_on_c, 0, 85, 95
1, 959285, Note_on_c, 0, 61, 54
1, 959289, Note_on_c, 0, 64, 49
1, 959301, Control_c, 0, 64, 37
1, 959305, Note_off_c, 0, 57, 65
1, 959309, Note_off_c, 0, 69, 63
1, 959310, Note_off_c, 0, 64, 59
1, 959316, Control_c, 0, 64, 57
1, 959318, Note_off_c, 0, 61, 63
1, 959331, Control_c, 0, 64, 68
1, 959341, Note_on_c, 0, 81, 83
1, 959345, Control_c, 0, 64, 78
1, 959360, Control_c, 0, 64, 90
1, 959375, Control_c, 0, 64, 102
1, 959382, Note_off_c, 0, 85, 62
1, 959390, Control_c, 0, 64, 108
1, 959409, Note_on_c, 0, 76, 81
1, 959417, Note_off_c, 0, 81, 62
1, 959446, Note_off_c, 0, 76, 61
1, 959472, Note_on_c, 0, 73, 67
1, 959513, Note_on_c, 0, 69, 67
1, 959534, Note_off_c, 0, 73, 59
1, 959580, Note_on_c, 0, 64, 60
1, 959591, Note_off_c, 0, 69, 58
1, 959613, Control_c, 0, 64, 106
1, 959620, Note_on_c, 0, 61, 75
1, 959637, Note_off_c, 0, 64, 62
1, 959658, Control_c, 0, 64, 103
1, 959677, Note_off_c, 0, 61, 62
1, 959687, Control_c, 0, 64, 100
1, 959717, Control_c, 0, 64, 97
1, 959718, Note_on_c, 0, 57, 61
1, 959739, Control_c, 0, 64, 95
1, 959754, Control_c, 0, 64, 93
1, 959754, Control_c, 0, 67, 19
1, 959761, Note_on_c, 0, 56, 77
1, 959765, Note_off_c, 0, 57, 62
1, 959768, Control_c, 0, 64, 91
1, 959768, Control_c, 0, 67, 22
1, 959783, Control_c, 0, 64, 89
1, 959783, Control_c, 0, 67, 26
1, 959798, Control_c, 0, 64, 88
1, 959798, Control_c, 0, 67, 31
1, 959813, Control_c, 0, 64, 86
1, 959813, Control_c, 0, 67, 41
1, 959817, Note_off_c, 0, 56, 62
1, 959824, Note_on_c, 0, 57, 57
1, 959828, Control_c, 0, 64, 85
1, 959828, Control_c, 0, 67, 58
1, 959834, Note_on_c, 0, 55, 54
1, 959843, Control_c, 0, 64, 84
1, 959843, Control_c, 0, 67, 81
1, 959858, Control_c, 0, 67, 103
1, 959860, Note_off_c, 0, 57, 65
1, 959870, Note_on_c, 0, 54, 81
1, 959870, Note_off_c, 0, 55, 65
1, 959873, Control_c, 0, 67, 121
1, 959887, Control_c, 0, 67, 127
1, 959921, Note_on_c, 0, 53, 72
1, 959957, Note_off_c, 0, 54, 64
1, 959973, Note_on_c, 0, 52, 75
1, 959984, Note_off_c, 0, 53, 62
1, 960022, Control_c, 0, 64, 83
1, 960034, Note_off_c, 0, 52, 61
1, 960042, Note_on_c, 0, 51, 73
1, 960051, Control_c, 0, 64, 83
1, 960066, Control_c, 0, 64, 82
1, 960081, Control_c, 0, 64, 77
1, 960096, Control_c, 0, 64, 70
1, 960102, Note_off_c, 0, 51, 62
1, 960108, Note_on_c, 0, 50, 73
1, 960110, Control_c, 0, 64, 62
1, 960125, Control_c, 0, 64, 50
1, 960140, Control_c, 0, 64, 31
1, 960155, Control_c, 0, 64, 0
1, 960163, Note_off_c, 0, 50, 61
1, 960167, Note_on_c, 0, 49, 72
1, 960287, Note_off_c, 0, 49, 63
1, 960298, Note_on_c, 0, 48, 71
1, 960309, Note_on_c, 0, 36, 57
1, 960317, Control_c, 0, 64, 39
1, 960332, Control_c, 0, 64, 52
1, 960337, Note_off_c, 0, 48, 62
1, 960347, Control_c, 0, 64, 58
1, 960376, Control_c, 0, 64, 57
1, 960391, Control_c, 0, 64, 57
1, 960406, Control_c, 0, 64, 55
1, 960408, Note_off_c, 0, 36, 61
1, 960417, Note_on_c, 0, 48, 61
1, 960421, Control_c, 0, 64, 54
1, 960436, Control_c, 0, 64, 52
1, 960445, Note_off_c, 0, 48, 66
1, 960450, Control_c, 0, 64, 50
1, 960472, Control_c, 0, 64, 50
1, 960487, Control_c, 0, 64, 49
1, 960514, Note_on_c, 0, 48, 64
1, 960517, Control_c, 0, 64, 47
1, 960532, Control_c, 0, 64, 31
1, 960546, Note_off_c, 0, 48, 66
1, 960546, Control_c, 0, 64, 0
1, 960561, Note_on_c, 0, 36, 67
1, 960588, Note_on_c, 0, 48, 68
1, 960611, Note_off_c, 0, 36, 62
1, 960617, Note_off_c, 0, 48, 0
1, 960627, Poly_aftertouch_c, 0, 48, 0
1, 960664, Poly_aftertouch_c, 0, 48, 127
1, 960683, Poly_aftertouch_c, 0, 48, 0
1, 960738, Note_on_c, 0, 48, 58
1, 960769, Note_off_c, 0, 48, 65
1, 960799, Note_on_c, 0, 35, 68
1, 960800, Note_on_c, 0, 47, 69
1, 960823, Note_on_c, 0, 48, 54
1, 960848, Note_off_c, 0, 48, 0
1, 960859, Note_off_c, 0, 35, 62
1, 960868, Note_off_c, 0, 47, 64
1, 960875, Note_on_c, 0, 48, 48
1, 960904, Note_off_c, 0, 48, 66
1, 960955, Note_on_c, 0, 48, 62
1, 960988, Note_off_c, 0, 48, 65
1, 961047, Note_on_c, 0, 47, 69
1, 961052, Note_on_c, 0, 35, 69
1, 961056, Note_on_c, 0, 48, 52
1, 961080, Control_c, 0, 64, 37
1, 961095, Control_c, 0, 64, 52
1, 961098, Note_off_c, 0, 48, 0
1, 961098, Note_on_c, 0, 48, 38
1, 961110, Note_off_c, 0, 35, 59
1, 961110, Control_c, 0, 64, 60
1, 961117, Note_off_c, 0, 47, 64
1, 961125, Control_c, 0, 64, 62
1, 961131, Note_off_c, 0, 48, 66
1, 961187, Note_on_c, 0, 48, 56
1, 961214, Control_c, 0, 64, 61
1, 961226, Note_off_c, 0, 48, 66
1, 961236, Control_c, 0, 64, 59
1, 961250, Control_c, 0, 64, 54
1, 961265, Control_c, 0, 64, 47
1, 961280, Control_c, 0, 64, 43
1, 961295, Control_c, 0, 64, 45
1, 961299, Note_on_c, 0, 34, 67
1, 961301, Note_on_c, 0, 48, 40
1, 961306, Note_on_c, 0, 46, 66
1, 961310, Control_c, 0, 64, 50
1, 961322, Note_off_c, 0, 48, 0
1, 961325, Control_c, 0, 64, 55
1, 961332, Note_off_c, 0, 34, 65
1, 961339, Control_c, 0, 64, 59
1, 961342, Note_off_c, 0, 46, 64
1, 961354, Control_c, 0, 64, 62
1, 961355, Poly_aftertouch_c, 0, 48, 0
1, 961369, Control_c, 0, 64, 64
1, 961384, Control_c, 0, 64, 65
1, 961399, Control_c, 0, 64, 65
1, 961414, Control_c, 0, 64, 66
1, 961460, Note_on_c, 0, 48, 4
1, 961472, Note_on_c, 0, 46, 70
1, 961486, Note_on_c, 0, 34, 57
1, 961492, Note_off_c, 0, 48, 0
1, 961516, Note_off_c, 0, 34, 64
1, 961520, Note_off_c, 0, 46, 62
1, 961529, Poly_aftertouch_c, 0, 48, 127
1, 961548, Poly_aftertouch_c, 0, 48, 0
1, 961572, Note_on_c, 0, 48, 18
1, 961593, Control_c, 0, 64, 66
1, 961615, Note_off_c, 0, 48, 60
1, 961620, Note_on_c, 0, 34, 57
1, 961628, Note_on_c, 0, 46, 66
1, 961661, Note_on_c, 0, 48, 53
1, 961667, Control_c, 0, 64, 65
1, 961668, Note_off_c, 0, 46, 60
1, 961681, Control_c, 0, 64, 62
1, 961682, Note_off_c, 0, 34, 58
1, 961691, Note_off_c, 0, 48, 66
1, 961696, Control_c, 0, 64, 59
1, 961711, Control_c, 0, 64, 58
1, 961726, Control_c, 0, 64, 59
1, 961741, Control_c, 0, 64, 61
1, 961748, Note_on_c, 0, 49, 67
1, 961755, Control_c, 0, 64, 63
1, 961765, Note_on_c, 0, 33, 70
1, 961769, Note_on_c, 0, 45, 64
1, 961770, Control_c, 0, 64, 64
1, 961785, Control_c, 0, 64, 65
1, 961795, Note_off_c, 0, 49, 0
1, 961800, Control_c, 0, 64, 66
1, 961813, Note_off_c, 0, 33, 63
1, 961813, Note_off_c, 0, 45, 59
1, 961815, Control_c, 0, 64, 67
1, 961819, Poly_aftertouch_c, 0, 49, 0
1, 961829, Control_c, 0, 64, 67
1, 961844, Control_c, 0, 64, 68
1, 961886, Note_on_c, 0, 49, 75
1, 961917, Note_off_c, 0, 49, 66
1, 961918, Control_c, 0, 64, 66
1, 961933, Control_c, 0, 64, 61
1, 961948, Control_c, 0, 64, 55
1, 961962, Control_c, 0, 64, 52
1, 961985, Control_c, 0, 64, 54
1, 961996, Note_on_c, 0, 33, 67
1, 962000, Note_on_c, 0, 49, 54
1, 962000, Control_c, 0, 64, 56
1, 962003, Note_on_c, 0, 45, 60
1, 962015, Control_c, 0, 64, 59
1, 962029, Control_c, 0, 64, 62
1, 962033, Note_off_c, 0, 49, 0
1, 962033, Note_on_c, 0, 49, 26
1, 962037, Note_off_c, 0, 33, 61
1, 962037, Note_off_c, 0, 45, 65
1, 962044, Control_c, 0, 64, 65
1, 962059, Control_c, 0, 64, 68
1, 962070, Note_off_c, 0, 49, 66
1, 962073, Control_c, 0, 64, 71
1, 962088, Control_c, 0, 64, 74
1, 962103, Control_c, 0, 64, 75
1, 962118, Control_c, 0, 64, 76
1, 962118, Control_c, 0, 67, 125
1, 962125, Note_on_c, 0, 49, 65
1, 962133, Control_c, 0, 64, 76
1, 962133, Control_c, 0, 67, 118
1, 962147, Control_c, 0, 67, 114
1, 962150, Note_off_c, 0, 49, 66
1, 962177, Control_c, 0, 64, 75
1, 962177, Control_c, 0, 67, 112
1, 962192, Control_c, 0, 64, 71
1, 962207, Control_c, 0, 64, 64
1, 962222, Control_c, 0, 64, 58
1, 962225, Note_on_c, 0, 50, 54
1, 962237, Control_c, 0, 64, 53
1, 962240, Note_on_c, 0, 32, 67
1, 962240, Note_on_c, 0, 44, 62
1, 962252, Control_c, 0, 64, 54
1, 962252, Control_c, 0, 67, 107
1, 962266, Control_c, 0, 64, 56
1, 962266, Control_c, 0, 67, 96
1, 962281, Control_c, 0, 64, 61
1, 962281, Control_c, 0, 67, 81
1, 962289, Note_off_c, 0, 50, 51
1, 962296, Control_c, 0, 64, 65
1, 962296, Control_c, 0, 67, 65
1, 962297, Note_on_c, 0, 62, 55
1, 962311, Control_c, 0, 64, 69
1, 962311, Control_c, 0, 67, 50
1, 962317, Note_off_c, 0, 44, 63
1, 962324, Note_off_c, 0, 32, 61
1, 962326, Control_c, 0, 64, 76
1, 962326, Control_c, 0, 67, 37
1, 962341, Note_off_c, 0, 62, 59
1, 962341, Control_c, 0, 64, 85
1, 962341, Control_c, 0, 67, 25
1, 962356, Control_c, 0, 64, 98
1, 962356, Control_c, 0, 67, 0
1, 962362, Note_on_c, 0, 58, 60
1, 962371, Control_c, 0, 64, 127
1, 962413, Note_off_c, 0, 58, 50
1, 962466, Note_on_c, 0, 62, 37
1, 962481, Note_on_c, 0, 44, 70
1, 962481, Note_on_c, 0, 32, 70
1, 962504, Control_c, 0, 64, 96
1, 962519, Control_c, 0, 64, 78
1, 962523, Note_off_c, 0, 62, 0
1, 962534, Control_c, 0, 64, 65
1, 962537, Note_on_c, 0, 62, 38
1, 962549, Control_c, 0, 64, 52
1, 962564, Control_c, 0, 64, 31
1, 962578, Control_c, 0, 64, 0
1, 962619, Note_on_c, 0, 74, 48
1, 962619, Note_off_c, 0, 62, 51
1, 962654, Note_off_c, 0, 74, 63
1, 962670, Note_on_c, 0, 70, 52
1, 962683, Control_c, 0, 64, 44
1, 962697, Control_c, 0, 64, 56
1, 962712, Control_c, 0, 64, 63
1, 962734, Control_c, 0, 64, 66
1, 962749, Control_c, 0, 64, 68
1, 962760, Note_on_c, 0, 74, 51
1, 962764, Control_c, 0, 64, 70
1, 962779, Control_c, 0, 64, 74
1, 962779, Note_off_c, 0, 44, 64
1, 962780, Note_off_c, 0, 32, 61
1, 962794, Note_off_c, 0, 70, 35
1, 962794, Control_c, 0, 64, 77
1, 962797, Note_off_c, 0, 74, 61
1, 962809, Control_c, 0, 64, 81
1, 962818, Note_on_c, 0, 62, 55
1, 962823, Control_c, 0, 64, 82
1, 962838, Control_c, 0, 64, 83
1, 962868, Control_c, 0, 64, 80
1, 962883, Control_c, 0, 64, 72
1, 962897, Note_on_c, 0, 74, 57
1, 962897, Control_c, 0, 64, 64
1, 962912, Control_c, 0, 64, 56
1, 962913, Note_on_c, 0, 47, 67
1, 962916, Note_on_c, 0, 35, 72
1, 962925, Note_off_c, 0, 62, 42
1, 962927, Control_c, 0, 64, 53
1, 962940, Note_off_c, 0, 74, 60
1, 962942, Control_c, 0, 64, 56
1, 962957, Control_c, 0, 64, 61
1, 962970, Note_on_c, 0, 71, 43
1, 962971, Control_c, 0, 64, 66
1, 962986, Control_c, 0, 64, 71
1, 963001, Control_c, 0, 64, 77
1, 963016, Control_c, 0, 64, 84
1, 963020, Note_off_c, 0, 35, 61
1, 963024, Note_off_c, 0, 71, 54
1, 963027, Note_off_c, 0, 47, 64
1, 963030, Control_c, 0, 64, 92
1, 963043, Note_on_c, 0, 74, 58
1, 963045, Control_c, 0, 64, 100
1, 963060, Control_c, 0, 64, 106
1, 963092, Note_off_c, 0, 74, 58
1, 963104, Control_c, 0, 64, 99
1, 963119, Control_c, 0, 64, 84
1, 963124, Note_on_c, 0, 62, 48
1, 963134, Control_c, 0, 64, 69
1, 963150, Control_c, 0, 64, 56
1, 963159, Note_on_c, 0, 50, 68
1, 963163, Note_on_c, 0, 38, 70
1, 963165, Control_c, 0, 64, 36
1, 963168, Note_off_c, 0, 62, 51
1, 963180, Control_c, 0, 64, 30
1, 963194, Control_c, 0, 64, 38
1, 963209, Control_c, 0, 64, 52
1, 963211, Note_on_c, 0, 74, 53
1, 963224, Control_c, 0, 64, 61
1, 963238, Control_c, 0, 64, 66
1, 963253, Control_c, 0, 64, 70
1, 963260, Note_off_c, 0, 74, 58
1, 963268, Control_c, 0, 64, 72
1, 963278, Note_on_c, 0, 71, 52
1, 963279, Note_off_c, 0, 50, 60
1, 963283, Control_c, 0, 64, 74
1, 963295, Note_off_c, 0, 38, 61
1, 963298, Control_c, 0, 64, 74
1, 963313, Control_c, 0, 64, 75
1, 963321, Note_off_c, 0, 71, 57
1, 963328, Control_c, 0, 64, 75
1, 963375, Note_on_c, 0, 62, 55
1, 963401, Note_on_c, 0, 50, 68
1, 963408, Note_off_c, 0, 62, 64
1, 963410, Note_on_c, 0, 38, 70
1, 963476, Note_on_c, 0, 62, 66
1, 963513, Control_c, 0, 64, 76
1, 963519, Note_off_c, 0, 50, 60
1, 963527, Control_c, 0, 64, 76
1, 963542, Control_c, 0, 64, 77
1, 963552, Note_off_c, 0, 62, 57
1, 963557, Note_on_c, 0, 59, 48
1, 963572, Control_c, 0, 64, 75
1, 963587, Control_c, 0, 64, 69
1, 963602, Control_c, 0, 64, 61
1, 963617, Control_c, 0, 64, 49
1, 963625, Note_on_c, 0, 49, 75
1, 963630, Note_on_c, 0, 37, 71
1, 963631, Note_off_c, 0, 38, 58
1, 963632, Control_c, 0, 64, 40
1, 963634, Note_off_c, 0, 59, 61
1, 963646, Control_c, 0, 64, 38
1, 963661, Note_on_c, 0, 62, 61
1, 963661, Control_c, 0, 64, 41
1, 963676, Control_c, 0, 64, 47
1, 963691, Control_c, 0, 64, 53
1, 963699, Note_off_c, 0, 62, 64
1, 963706, Control_c, 0, 64, 59
1, 963720, Control_c, 0, 64, 63
1, 963722, Note_on_c, 0, 50, 59
1, 963735, Control_c, 0, 64, 68
1, 963750, Control_c, 0, 64, 72
1, 963765, Control_c, 0, 64, 77
1, 963773, Note_off_c, 0, 49, 63
1, 963780, Control_c, 0, 64, 78
1, 963787, Note_off_c, 0, 37, 63
1, 963800, Note_on_c, 0, 62, 64
1, 963809, Control_c, 0, 64, 76
1, 963824, Control_c, 0, 64, 72
1, 963829, Note_off_c, 0, 50, 37
1, 963839, Control_c, 0, 64, 68
1, 963853, Control_c, 0, 64, 65
1, 963857, Note_on_c, 0, 37, 69
1, 963862, Note_on_c, 0, 49, 73
1, 963867, Note_off_c, 0, 62, 60
1, 963868, Control_c, 0, 64, 65
1, 963883, Control_c, 0, 64, 65
1, 963888, Note_on_c, 0, 59, 54
1, 963898, Control_c, 0, 64, 66
1, 963913, Control_c, 0, 64, 68
1, 963927, Control_c, 0, 64, 69
1, 963943, Control_c, 0, 64, 71
1, 963957, Note_off_c, 0, 59, 61
1, 963958, Note_off_c, 0, 49, 63
1, 963958, Control_c, 0, 64, 72
1, 963966, Note_on_c, 0, 62, 64
1, 963973, Control_c, 0, 64, 74
1, 963988, Control_c, 0, 64, 75
1, 964047, Control_c, 0, 64, 71
1, 964052, Note_off_c, 0, 37, 56
1, 964061, Control_c, 0, 64, 64
1, 964072, Note_off_c, 0, 62, 58
1, 964076, Control_c, 0, 64, 53
1, 964078, Note_on_c, 0, 47, 75
1, 964079, Note_on_c, 0, 35, 72
1, 964091, Control_c, 0, 64, 46
1, 964103, Note_on_c, 0, 51, 54
1, 964106, Control_c, 0, 64, 47
1, 964121, Control_c, 0, 64, 52
1, 964136, Control_c, 0, 64, 56
1, 964150, Control_c, 0, 64, 60
1, 964165, Control_c, 0, 64, 64
1, 964166, Note_off_c, 0, 47, 63
1, 964168, Note_on_c, 0, 63, 63
1, 964170, Note_off_c, 0, 35, 61
1, 964180, Control_c, 0, 64, 67
1, 964195, Control_c, 0, 64, 69
1, 964198, Note_off_c, 0, 51, 51
1, 964217, Control_c, 0, 64, 69
1, 964232, Control_c, 0, 64, 68
1, 964247, Control_c, 0, 64, 68
1, 964256, Note_on_c, 0, 47, 73
1, 964261, Note_off_c, 0, 63, 55
1, 964263, Note_on_c, 0, 35, 71
1, 964291, Control_c, 0, 64, 68
1, 964306, Control_c, 0, 64, 69
1, 964308, Note_off_c, 0, 35, 60
1, 964314, Note_off_c, 0, 47, 62
1, 964321, Control_c, 0, 64, 70
1, 964336, Control_c, 0, 64, 71
1, 964346, Note_on_c, 0, 51, 47
1, 964350, Control_c, 0, 64, 72
1, 964365, Control_c, 0, 64, 73
1, 964374, Note_on_c, 0, 35, 71
1, 964378, Note_on_c, 0, 47, 61
1, 964380, Control_c, 0, 64, 73
1, 964388, Note_on_c, 0, 63, 64
1, 964395, Control_c, 0, 64, 74
1, 964416, Note_off_c, 0, 47, 64
1, 964433, Note_off_c, 0, 51, 50
1, 964440, Control_c, 0, 64, 71
1, 964447, Note_off_c, 0, 35, 61
1, 964454, Control_c, 0, 64, 66
1, 964469, Control_c, 0, 64, 57
1, 964475, Note_on_c, 0, 60, 56
1, 964475, Note_off_c, 0, 63, 61
1, 964484, Control_c, 0, 64, 50
1, 964499, Control_c, 0, 64, 49
1, 964510, Note_on_c, 0, 46, 76
1, 964514, Note_on_c, 0, 34, 69
1, 964514, Control_c, 0, 64, 50
1, 964529, Control_c, 0, 64, 53
1, 964543, Control_c, 0, 64, 56
1, 964558, Control_c, 0, 64, 60
1, 964567, Note_on_c, 0, 64, 58
1, 964568, Note_off_c, 0, 60, 50
1, 964573, Control_c, 0, 64, 65
1, 964588, Control_c, 0, 64, 68
1, 964602, Control_c, 0, 64, 70
1, 964615, Note_off_c, 0, 64, 58
1, 964617, Control_c, 0, 64, 72
1, 964628, Note_on_c, 0, 52, 55
1, 964673, Note_off_c, 0, 46, 61
1, 964709, Note_on_c, 0, 64, 62
1, 964729, Note_off_c, 0, 34, 59
1, 964744, Note_on_c, 0, 45, 78
1, 964746, Note_on_c, 0, 33, 75
1, 964761, Note_off_c, 0, 52, 51
1, 964770, Note_off_c, 0, 64, 60
1, 964777, Note_on_c, 0, 60, 59
1, 964796, Control_c, 0, 64, 71
1, 964817, Note_off_c, 0, 45, 63
1, 964845, Note_on_c, 0, 64, 61
1, 964861, Note_off_c, 0, 60, 55
1, 964899, Control_c, 0, 64, 70
1, 964914, Control_c, 0, 64, 64
1, 964917, Note_off_c, 0, 33, 36
1, 964929, Control_c, 0, 64, 46
1, 964937, Note_off_c, 0, 64, 62
1, 964944, Control_c, 0, 64, 0
1, 964956, Note_on_c, 0, 32, 75
1, 964956, Note_on_c, 0, 44, 84
1, 964967, Note_on_c, 0, 52, 50
1, 965011, Control_c, 0, 64, 49
1, 965025, Note_off_c, 0, 44, 63
1, 965025, Control_c, 0, 64, 61
1, 965030, Note_off_c, 0, 32, 62
1, 965031, Note_on_c, 0, 64, 60
1, 965040, Control_c, 0, 64, 67
1, 965055, Control_c, 0, 64, 71
1, 965059, Note_off_c, 0, 52, 48
1, 965070, Control_c, 0, 64, 77
1, 965085, Control_c, 0, 64, 78
1, 965093, Note_off_c, 0, 64, 63
1, 965102, Note_on_c, 0, 60, 59
1, 965174, Note_off_c, 0, 60, 61
1, 965186, Note_on_c, 0, 64, 56
1, 965188, Control_c, 0, 64, 77
1, 965203, Control_c, 0, 64, 74
1, 965211, Note_on_c, 0, 44, 86
1, 965213, Note_on_c, 0, 32, 82
1, 965218, Control_c, 0, 64, 67
1, 965232, Control_c, 0, 64, 50
1, 965247, Control_c, 0, 64, 0
1, 965256, Note_off_c, 0, 64, 62
1, 965280, Note_on_c, 0, 53, 63
1, 965360, Note_on_c, 0, 65, 70
1, 965402, Note_off_c, 0, 53, 39
1, 965438, Note_off_c, 0, 32, 61
1, 965446, Note_off_c, 0, 65, 62
1, 965462, Note_on_c, 0, 61, 72
1, 965468, Note_off_c, 0, 44, 66
1, 965470, Control_c, 0, 64, 66
1, 965485, Control_c, 0, 64, 127
1, 965554, Note_off_c, 0, 61, 60
1, 965557, Note_on_c, 0, 65, 69
1, 965603, Note_off_c, 0, 65, 61
1, 965656, Note_on_c, 0, 65, 71
1, 965657, Note_on_c, 0, 53, 83
1, 965661, Note_on_c, 0, 41, 81
1, 965746, Note_off_c, 0, 53, 60
1, 965748, Note_on_c, 0, 77, 67
1, 965758, Note_off_c, 0, 41, 60
1, 965760, Control_c, 0, 64, 99
1, 965775, Control_c, 0, 64, 70
1, 965779, Note_off_c, 0, 65, 36
1, 965790, Control_c, 0, 64, 46
1, 965804, Control_c, 0, 64, 0
1, 965808, Note_off_c, 0, 77, 63
1, 965823, Note_on_c, 0, 73, 70
1, 965829, Note_on_c, 0, 52, 87
1, 965832, Note_on_c, 0, 40, 82
1, 965848, Control_c, 0, 64, 35
1, 965863, Control_c, 0, 64, 54
1, 965878, Control_c, 0, 64, 65
1, 965888, Note_off_c, 0, 73, 63
1, 965890, Note_on_c, 0, 77, 65
1, 965893, Control_c, 0, 64, 72
1, 965901, Note_off_c, 0, 52, 63
1, 965908, Control_c, 0, 64, 79
1, 965922, Control_c, 0, 64, 81
1, 965932, Note_off_c, 0, 77, 63
1, 965937, Control_c, 0, 64, 80
1, 965940, Note_off_c, 0, 40, 60
1, 965952, Control_c, 0, 64, 74
1, 965963, Note_on_c, 0, 65, 68
1, 965966, Control_c, 0, 64, 65
1, 965981, Control_c, 0, 64, 59
1, 965982, Note_on_c, 0, 51, 88
1, 965987, Note_on_c, 0, 39, 85
1, 965991, Note_off_c, 0, 65, 65
1, 965996, Control_c, 0, 64, 60
1, 966011, Control_c, 0, 64, 64
1, 966026, Control_c, 0, 64, 72
1, 966040, Control_c, 0, 64, 83
1, 966045, Note_on_c, 0, 65, 81
1, 966054, Note_off_c, 0, 51, 62
1, 966055, Control_c, 0, 64, 102
1, 966070, Control_c, 0, 64, 106
1, 966075, Note_off_c, 0, 39, 56
1, 966085, Control_c, 0, 64, 94
1, 966100, Control_c, 0, 64, 77
1, 966109, Note_off_c, 0, 65, 63
1, 966113, Note_on_c, 0, 61, 70
1, 966115, Control_c, 0, 64, 65
1, 966121, Note_on_c, 0, 38, 78
1, 966122, Note_on_c, 0, 50, 83
1, 966130, Control_c, 0, 64, 59
1, 966145, Control_c, 0, 64, 61
1, 966159, Control_c, 0, 64, 67
1, 966174, Control_c, 0, 64, 77
1, 966177, Note_off_c, 0, 50, 62
1, 966179, Note_on_c, 0, 65, 67
1, 966189, Control_c, 0, 64, 92
1, 966197, Note_off_c, 0, 38, 62
1, 966204, Note_off_c, 0, 61, 51
1, 966204, Control_c, 0, 64, 111
1, 966219, Control_c, 0, 64, 109
1, 966234, Control_c, 0, 64, 88
1, 966234, Note_on_c, 0, 53, 71
1, 966241, Note_off_c, 0, 65, 61
1, 966248, Control_c, 0, 64, 70
1, 966252, Note_on_c, 0, 37, 84
1, 966252, Note_on_c, 0, 49, 86
1, 966263, Control_c, 0, 64, 57
1, 966278, Control_c, 0, 64, 56
1, 966293, Note_on_c, 0, 65, 63
1, 966293, Control_c, 0, 64, 62
1, 966305, Note_off_c, 0, 53, 61
1, 966308, Control_c, 0, 64, 70
1, 966315, Note_off_c, 0, 49, 64
1, 966322, Control_c, 0, 64, 82
1, 966326, Note_off_c, 0, 37, 61
1, 966338, Control_c, 0, 64, 114
1, 966353, Control_c, 0, 64, 127
1, 966361, Note_off_c, 0, 65, 64
1, 966368, Note_on_c, 0, 62, 67
1, 966382, Note_on_c, 0, 36, 84
1, 966382, Note_on_c, 0, 48, 85
1, 966383, Control_c, 0, 64, 95
1, 966398, Control_c, 0, 64, 74
1, 966412, Control_c, 0, 64, 65
1, 966427, Control_c, 0, 64, 66
1, 966437, Note_off_c, 0, 48, 63
1, 966437, Note_on_c, 0, 66, 70
1, 966441, Note_off_c, 0, 36, 62
1, 966442, Control_c, 0, 64, 75
1, 966449, Note_off_c, 0, 62, 57
1, 966457, Control_c, 0, 64, 100
1, 966478, Control_c, 0, 64, 127
1, 966504, Note_on_c, 0, 54, 70
1, 966505, Note_off_c, 0, 66, 62
1, 966517, Note_on_c, 0, 47, 88
1, 966519, Note_on_c, 0, 35, 92
1, 966523, Control_c, 0, 64, 103
1, 966538, Control_c, 0, 64, 70
1, 966553, Control_c, 0, 64, 55
1, 966568, Control_c, 0, 64, 58
1, 966574, Note_off_c, 0, 47, 64
1, 966575, Note_on_c, 0, 66, 68
1, 966581, Note_off_c, 0, 35, 61
1, 966583, Control_c, 0, 64, 66
1, 966597, Control_c, 0, 64, 79
1, 966602, Note_off_c, 0, 54, 57
1, 966612, Control_c, 0, 64, 118
1, 966627, Control_c, 0, 64, 127
1, 966632, Note_off_c, 0, 66, 61
1, 966634, Note_on_c, 0, 62, 63
1, 966653, Note_on_c, 0, 46, 88
1, 966654, Note_on_c, 0, 34, 83
1, 966704, Note_off_c, 0, 62, 59
1, 966716, Control_c, 0, 64, 84
1, 966725, Note_off_c, 0, 46, 63
1, 966726, Note_on_c, 0, 66, 39
1, 966731, Note_on_c, 0, 67, 52
1, 966731, Control_c, 0, 64, 59
1, 966745, Control_c, 0, 64, 0
1, 966762, Note_off_c, 0, 34, 59
1, 966771, Note_off_c, 0, 67, 47
1, 966786, Note_off_c, 0, 66, 62
1, 966797, Note_on_c, 0, 45, 102
1, 966801, Note_on_c, 0, 33, 91
1, 966802, Note_on_c, 0, 55, 71
1, 966819, Control_c, 0, 64, 47
1, 966834, Control_c, 0, 64, 71
1, 966838, Note_off_c, 0, 55, 61
1, 966842, Note_off_c, 0, 33, 63
1, 966847, Note_off_c, 0, 45, 67
1, 966849, Control_c, 0, 64, 90
1, 966863, Control_c, 0, 64, 127
1, 967069, Note_on_c, 0, 67, 98
1, 967115, Note_off_c, 0, 67, 66
1, 967325, Note_on_c, 0, 63, 101
1, 967362, Note_off_c, 0, 63, 69
1, 967420, Note_on_c, 0, 79, 84
1, 967505, Note_on_c, 0, 87, 78
1, 967524, Control_c, 0, 64, 105
1, 967539, Control_c, 0, 64, 74
1, 967554, Control_c, 0, 64, 44
1, 967568, Control_c, 0, 64, 0
1, 967572, Note_off_c, 0, 87, 63
1, 967575, Note_on_c, 0, 46, 77
1, 967576, Note_on_c, 0, 91, 97
1, 967584, Note_on_c, 0, 34, 75
1, 967599, Note_off_c, 0, 79, 32
1, 967612, Control_c, 0, 64, 37
1, 967627, Control_c, 0, 64, 56
1, 967637, Note_off_c, 0, 91, 54
1, 967642, Control_c, 0, 64, 65
1, 967653, Note_on_c, 0, 87, 85
1, 967657, Control_c, 0, 64, 74
1, 967672, Control_c, 0, 64, 82
1, 967686, Control_c, 0, 64, 86
1, 967701, Note_off_c, 0, 34, 60
1, 967701, Control_c, 0, 64, 87
1, 967706, Note_off_c, 0, 46, 62
1, 967707, Note_off_c, 0, 87, 64
1, 967713, Note_on_c, 0, 91, 86
1, 967731, Control_c, 0, 64, 86
1, 967745, Control_c, 0, 64, 78
1, 967760, Control_c, 0, 64, 63
1, 967775, Control_c, 0, 64, 40
1, 967780, Note_on_c, 0, 87, 77
1, 967787, Note_off_c, 0, 91, 62
1, 967790, Control_c, 0, 64, 0
1, 967796, Note_on_c, 0, 47, 92
1, 967798, Note_on_c, 0, 35, 89
1, 967820, Control_c, 0, 64, 34
1, 967829, Note_off_c, 0, 87, 64
1, 967834, Control_c, 0, 64, 58
1, 967849, Note_on_c, 0, 79, 74
1, 967849, Control_c, 0, 64, 73
1, 967856, Note_off_c, 0, 35, 62
1, 967856, Note_off_c, 0, 47, 65
1, 967864, Control_c, 0, 64, 88
1, 967873, Note_off_c, 0, 79, 71
1, 967879, Control_c, 0, 64, 127
1, 967927, Note_on_c, 0, 75, 73
1, 968020, Control_c, 0, 64, 88
1, 968026, Note_off_c, 0, 75, 63
1, 968032, Note_on_c, 0, 47, 95
1, 968034, Note_on_c, 0, 35, 92
1, 968035, Control_c, 0, 64, 61
1, 968042, Note_on_c, 0, 67, 81
1, 968049, Control_c, 0, 64, 0
1, 968094, Note_off_c, 0, 67, 62
1, 968115, Note_on_c, 0, 79, 80
1, 968187, Note_on_c, 0, 75, 69
1, 968188, Note_off_c, 0, 79, 66
1, 968211, Note_off_c, 0, 75, 69
1, 968268, Note_on_c, 0, 63, 77
1, 968272, Control_c, 0, 64, 65
1, 968287, Control_c, 0, 64, 83
1, 968302, Control_c, 0, 64, 98
1, 968316, Control_c, 0, 64, 103
1, 968319, Note_off_c, 0, 63, 50
1, 968321, Note_off_c, 0, 47, 61
1, 968337, Note_on_c, 0, 68, 31
1, 968359, Note_on_c, 0, 75, 64
1, 968363, Note_off_c, 0, 35, 59
1, 968389, Note_off_c, 0, 68, 52
1, 968390, Control_c, 0, 64, 101
1, 968401, Note_off_c, 0, 75, 58
1, 968402, Note_on_c, 0, 67, 69
1, 968405, Control_c, 0, 64, 89
1, 968420, Control_c, 0, 64, 73
1, 968434, Control_c, 0, 64, 58
1, 968449, Control_c, 0, 64, 30
1, 968462, Note_off_c, 0, 67, 65
1, 968464, Control_c, 0, 64, 0
1, 968485, Note_on_c, 0, 46, 81
1, 968488, Note_on_c, 0, 34, 70
1, 968492, Note_on_c, 0, 63, 70
1, 968494, Control_c, 0, 64, 49
1, 968508, Control_c, 0, 64, 62
1, 968516, Note_off_c, 0, 63, 69
1, 968523, Control_c, 0, 64, 71
1, 968538, Control_c, 0, 64, 79
1, 968553, Control_c, 0, 64, 86
1, 968556, Note_off_c, 0, 46, 59
1, 968568, Control_c, 0, 64, 86
1, 968568, Note_on_c, 0, 63, 64
1, 968575, Note_off_c, 0, 34, 56
1, 968598, Control_c, 0, 64, 86
1, 968613, Control_c, 0, 64, 81
1, 968625, Note_off_c, 0, 63, 57
1, 968628, Control_c, 0, 64, 69
1, 968633, Note_on_c, 0, 67, 62
1, 968642, Control_c, 0, 64, 50
1, 968657, Control_c, 0, 64, 0
1, 968705, Note_on_c, 0, 33, 86
1, 968713, Note_on_c, 0, 45, 87
1, 968714, Note_off_c, 0, 67, 59
1, 968734, Note_on_c, 0, 55, 76
1, 968739, Control_c, 0, 64, 52
1, 968754, Control_c, 0, 64, 70
1, 968761, Note_off_c, 0, 45, 65
1, 968765, Note_off_c, 0, 33, 64
1, 968769, Control_c, 0, 64, 85
1, 968783, Control_c, 0, 64, 107
1, 968795, Note_off_c, 0, 55, 61
1, 968798, Control_c, 0, 64, 127
1, 968814, Note_on_c, 0, 63, 72
1, 968876, Note_on_c, 0, 39, 83
1, 968878, Note_on_c, 0, 51, 72
1, 968882, Note_off_c, 0, 63, 61
1, 968887, Note_on_c, 0, 67, 66
1, 968908, Note_off_c, 0, 51, 67
1, 968914, Note_off_c, 0, 67, 57
1, 968933, Note_off_c, 0, 39, 60
1, 968969, Note_on_c, 0, 67, 79
1, 969008, Note_off_c, 0, 67, 59
1, 969020, Note_on_c, 0, 33, 87
1, 969023, Note_on_c, 0, 45, 77
1, 969039, Note_on_c, 0, 79, 75
1, 969063, Note_off_c, 0, 45, 63
1, 969072, Note_off_c, 0, 33, 62
1, 969078, Note_on_c, 0, 75, 74
1, 969081, Note_off_c, 0, 79, 65
1, 969095, Control_c, 0, 64, 102
1, 969104, Note_off_c, 0, 75, 68
1, 969110, Control_c, 0, 64, 75
1, 969125, Control_c, 0, 64, 49
1, 969139, Control_c, 0, 64, 0
1, 969161, Note_on_c, 0, 46, 92
1, 969164, Note_on_c, 0, 34, 85
1, 969164, Note_on_c, 0, 63, 82
1, 969198, Control_c, 0, 64, 30
1, 969213, Control_c, 0, 64, 63
1, 969221, Note_off_c, 0, 34, 63
1, 969221, Note_off_c, 0, 46, 64
1, 969228, Control_c, 0, 64, 75
1, 969240, Note_off_c, 0, 63, 60
1, 969243, Control_c, 0, 64, 87
1, 969244, Note_on_c, 0, 75, 73
1, 969257, Control_c, 0, 64, 91
1, 969300, Note_on_c, 0, 67, 53
1, 969311, Note_off_c, 0, 75, 59
1, 969321, Note_on_c, 0, 39, 92
1, 969321, Note_on_c, 0, 51, 79
1, 969323, Note_off_c, 0, 67, 60
1, 969348, Note_on_c, 0, 49, 35
1, 969351, Note_off_c, 0, 51, 65
1, 969357, Note_on_c, 0, 38, 52
1, 969369, Note_off_c, 0, 39, 59
1, 969376, Note_on_c, 0, 67, 71
1, 969383, Note_off_c, 0, 49, 58
1, 969393, Note_off_c, 0, 38, 49
1, 969409, Note_off_c, 0, 67, 64
1, 969447, Note_on_c, 0, 79, 73
1, 969453, Note_on_c, 0, 46, 86
1, 969460, Note_on_c, 0, 34, 87
1, 969482, Note_off_c, 0, 79, 67
1, 969496, Note_on_c, 0, 75, 76
1, 969511, Note_off_c, 0, 46, 64
1, 969514, Note_off_c, 0, 34, 62
1, 969547, Note_off_c, 0, 75, 64
1, 969548, Control_c, 0, 64, 85
1, 969562, Control_c, 0, 64, 68
1, 969577, Control_c, 0, 64, 49
1, 969592, Note_on_c, 0, 63, 80
1, 969592, Control_c, 0, 64, 0
1, 969596, Note_on_c, 0, 47, 91
1, 969598, Note_on_c, 0, 35, 94
1, 969636, Control_c, 0, 64, 44
1, 969640, Note_off_c, 0, 63, 61
1, 969644, Note_off_c, 0, 35, 63
1, 969647, Note_off_c, 0, 47, 65
1, 969651, Control_c, 0, 64, 62
1, 969657, Note_on_c, 0, 75, 69
1, 969666, Control_c, 0, 64, 70
1, 969680, Control_c, 0, 64, 78
1, 969695, Control_c, 0, 64, 81
1, 969704, Note_off_c, 0, 75, 58
1, 969737, Note_on_c, 0, 67, 75
1, 969740, Note_on_c, 0, 51, 93
1, 969746, Note_on_c, 0, 39, 89
1, 969765, Note_off_c, 0, 67, 67
1, 969782, Note_off_c, 0, 39, 61
1, 969787, Note_off_c, 0, 51, 63
1, 969803, Note_on_c, 0, 79, 73
1, 969820, Note_off_c, 0, 79, 67
1, 969868, Note_on_c, 0, 55, 89
1, 969871, Note_on_c, 0, 63, 83
1, 969872, Note_on_c, 0, 43, 89
1, 969911, Note_off_c, 0, 63, 59
1, 969913, Note_off_c, 0, 55, 65
1, 969915, Note_off_c, 0, 43, 63
1, 969946, Note_on_c, 0, 75, 65
1, 969962, Control_c, 0, 64, 77
1, 969977, Control_c, 0, 64, 64
1, 969982, Note_off_c, 0, 75, 60
1, 969992, Control_c, 0, 64, 31
1, 970005, Note_on_c, 0, 59, 95
1, 970006, Control_c, 0, 64, 0
1, 970008, Note_on_c, 0, 47, 94
1, 970020, Note_on_c, 0, 67, 80
1, 970051, Control_c, 0, 64, 36
1, 970064, Note_off_c, 0, 67, 64
1, 970066, Control_c, 0, 64, 52
1, 970081, Control_c, 0, 64, 61
1, 970096, Note_on_c, 0, 79, 70
1, 970096, Control_c, 0, 64, 66
1, 970097, Note_off_c, 0, 59, 59
1, 970098, Note_off_c, 0, 47, 61
1, 970111, Control_c, 0, 64, 68
1, 970122, Note_off_c, 0, 79, 67
1, 970126, Control_c, 0, 64, 70
1, 970140, Control_c, 0, 64, 71
1, 970155, Control_c, 0, 64, 72
1, 970187, Note_on_c, 0, 63, 78
1, 970222, Control_c, 0, 64, 69
1, 970237, Control_c, 0, 64, 60
1, 970247, Note_off_c, 0, 63, 60
1, 970252, Control_c, 0, 64, 35
1, 970262, Note_on_c, 0, 61, 97
1, 970267, Control_c, 0, 64, 0
1, 970268, Note_on_c, 0, 49, 96
1, 970281, Note_on_c, 0, 75, 76
1, 970296, Control_c, 0, 64, 40
1, 970311, Control_c, 0, 64, 59
1, 970323, Note_off_c, 0, 75, 53
1, 970326, Control_c, 0, 64, 69
1, 970327, Note_on_c, 0, 51, 4
1, 970327, Note_off_c, 0, 49, 63
1, 970331, Note_off_c, 0, 61, 62
1, 970342, Control_c, 0, 64, 81
1, 970357, Control_c, 0, 64, 101
1, 970371, Control_c, 0, 64, 116
1, 970385, Note_off_c, 0, 51, 53
1, 970386, Control_c, 0, 64, 120
1, 970388, Note_on_c, 0, 67, 78
1, 970416, Control_c, 0, 64, 122
1, 970460, Control_c, 0, 64, 125
1, 970464, Note_on_c, 0, 79, 79
1, 970467, Note_off_c, 0, 67, 56
1, 970507, Note_off_c, 0, 79, 62
1, 970534, Control_c, 0, 64, 119
1, 970549, Control_c, 0, 64, 84
1, 970563, Control_c, 0, 64, 51
1, 970570, Note_on_c, 0, 62, 106
1, 970572, Note_on_c, 0, 50, 100
1, 970578, Control_c, 0, 64, 0
1, 970682, Control_c, 0, 64, 63
1, 970697, Control_c, 0, 64, 75
1, 970711, Control_c, 0, 64, 78
1, 970741, Control_c, 0, 64, 78
1, 970756, Note_on_c, 0, 66, 80
1, 970756, Control_c, 0, 64, 82
1, 970768, Note_off_c, 0, 62, 55
1, 970771, Control_c, 0, 64, 88
1, 970774, Note_off_c, 0, 50, 58
1, 970786, Control_c, 0, 64, 97
1, 970801, Control_c, 0, 64, 110
1, 970812, Note_off_c, 0, 66, 60
1, 970816, Control_c, 0, 64, 127
1, 970826, Note_on_c, 0, 70, 73
1, 970834, Note_on_c, 0, 78, 80
1, 970850, Note_off_c, 0, 70, 70
1, 970882, Note_on_c, 0, 62, 91
1, 970884, Note_off_c, 0, 78, 62
1, 970885, Note_on_c, 0, 50, 88
1, 970885, Note_on_c, 0, 58, 97
1, 970888, Note_on_c, 0, 54, 88
1, 970924, Note_on_c, 0, 78, 83
1, 970927, Note_off_c, 0, 62, 65
1, 970931, Note_off_c, 0, 50, 62
1, 970935, Note_off_c, 0, 54, 63
1, 970938, Note_off_c, 0, 58, 64
1, 970995, Note_off_c, 0, 78, 62
1, 971006, Note_on_c, 0, 82, 78
1, 971008, Note_on_c, 0, 90, 80
1, 971057, Note_off_c, 0, 82, 61
1, 971066, Note_off_c, 0, 90, 63
1, 971079, Note_on_c, 0, 78, 82
1, 971105, Note_off_c, 0, 78, 62
1, 971149, Control_c, 0, 64, 73
1, 971164, Control_c, 0, 64, 30
1, 971166, Note_on_c, 0, 57, 108
1, 971167, Note_on_c, 0, 45, 96
1, 971179, Control_c, 0, 64, 0
1, 971253, Control_c, 0, 64, 60
1, 971267, Control_c, 0, 64, 65
1, 971282, Control_c, 0, 64, 67
1, 971287, Note_on_c, 0, 65, 78
1, 971295, Note_off_c, 0, 57, 55
1, 971312, Control_c, 0, 64, 67
1, 971316, Note_off_c, 0, 45, 60
1, 971333, Note_off_c, 0, 65, 61
1, 971341, Control_c, 0, 64, 68
1, 971352, Note_on_c, 0, 73, 67
1, 971356, Control_c, 0, 64, 68
1, 971361, Note_on_c, 0, 77, 71
1, 971371, Control_c, 0, 64, 69
1, 971377, Note_off_c, 0, 73, 69
1, 971385, Control_c, 0, 64, 69
1, 971402, Note_off_c, 0, 77, 60
1, 971415, Control_c, 0, 64, 70
1, 971425, Note_on_c, 0, 53, 86
1, 971427, Note_on_c, 0, 57, 93
1, 971430, Note_on_c, 0, 45, 79
1, 971430, Control_c, 0, 64, 70
1, 971432, Note_on_c, 0, 49, 81
1, 971445, Control_c, 0, 64, 71
1, 971457, Note_on_c, 0, 77, 74
1, 971460, Note_off_c, 0, 45, 68
1, 971460, Control_c, 0, 64, 72
1, 971468, Note_off_c, 0, 57, 65
1, 971470, Note_off_c, 0, 53, 65
1, 971474, Control_c, 0, 64, 74
1, 971476, Note_off_c, 0, 49, 63
1, 971487, Note_off_c, 0, 77, 57
1, 971489, Control_c, 0, 64, 75
1, 971504, Control_c, 0, 64, 75
1, 971519, Control_c, 0, 64, 76
1, 971524, Note_on_c, 0, 85, 79
1, 971529, Note_on_c, 0, 89, 75
1, 971534, Control_c, 0, 64, 76
1, 971560, Note_off_c, 0, 85, 60
1, 971564, Control_c, 0, 64, 77
1, 971576, Note_off_c, 0, 89, 59
1, 971583, Note_on_c, 0, 77, 77
1, 971608, Control_c, 0, 64, 77
1, 971623, Note_off_c, 0, 77, 62
1, 971623, Control_c, 0, 64, 79
1, 971638, Control_c, 0, 64, 80
1, 971652, Control_c, 0, 64, 79
1, 971667, Control_c, 0, 64, 67
1, 971682, Note_on_c, 0, 60, 95
1, 971682, Control_c, 0, 64, 0
1, 971689, Note_on_c, 0, 48, 76
1, 971690, Note_on_c, 0, 47, 89
1, 971737, Note_off_c, 0, 47, 62
1, 971778, Control_c, 0, 64, 50
1, 971793, Control_c, 0, 64, 62
1, 971795, Note_off_c, 0, 60, 62
1, 971798, Note_on_c, 0, 64, 76
1, 971802, Note_off_c, 0, 48, 63
1, 971808, Control_c, 0, 64, 65
1, 971823, Control_c, 0, 64, 67
1, 971847, Note_off_c, 0, 64, 59
1, 971873, Note_on_c, 0, 68, 52
1, 971873, Note_on_c, 0, 76, 79
1, 971874, Note_on_c, 0, 60, 89
1, 971878, Note_on_c, 0, 48, 82
1, 971895, Note_off_c, 0, 68, 59
1, 971911, Control_c, 0, 64, 68
1, 971919, Note_off_c, 0, 76, 59
1, 971927, Control_c, 0, 64, 69
1, 971942, Control_c, 0, 64, 70
1, 971943, Note_off_c, 0, 60, 64
1, 971954, Note_on_c, 0, 76, 78
1, 971957, Control_c, 0, 64, 71
1, 971959, Note_off_c, 0, 48, 57
1, 971987, Control_c, 0, 64, 71
1, 972016, Control_c, 0, 64, 72
1, 972017, Note_on_c, 0, 56, 81
1, 972018, Note_on_c, 0, 48, 63
1, 972018, Note_off_c, 0, 76, 61
1, 972019, Note_on_c, 0, 60, 74
1, 972022, Note_on_c, 0, 52, 72
1, 972022, Note_on_c, 0, 80, 81
1, 972029, Note_on_c, 0, 88, 92
1, 972031, Control_c, 0, 64, 72
1, 972039, Note_off_c, 0, 60, 72
1, 972046, Control_c, 0, 64, 73
1, 972049, Note_off_c, 0, 56, 62
1, 972052, Note_off_c, 0, 52, 67
1, 972056, Note_off_c, 0, 48, 63
1, 972061, Control_c, 0, 64, 73
1, 972068, Note_off_c, 0, 80, 63
1, 972076, Control_c, 0, 64, 74
1, 972088, Note_on_c, 0, 76, 83
1, 972089, Note_off_c, 0, 88, 66
1, 972090, Control_c, 0, 64, 74
1, 972105, Control_c, 0, 64, 75
1, 972120, Control_c, 0, 64, 75
1, 972129, Note_off_c, 0, 76, 64
1, 972149, Control_c, 0, 64, 69
1, 972164, Control_c, 0, 64, 49
1, 972174, Note_on_c, 0, 43, 94
1, 972174, Note_on_c, 0, 55, 101
1, 972179, Control_c, 0, 64, 0
1, 972268, Control_c, 0, 64, 55
1, 972279, Note_on_c, 0, 64, 68
1, 972282, Control_c, 0, 64, 66
1, 972297, Control_c, 0, 64, 69
1, 972311, Note_off_c, 0, 64, 67
1, 972333, Note_on_c, 0, 67, 70
1, 972333, Note_off_c, 0, 55, 57
1, 972341, Note_off_c, 0, 43, 59
1, 972355, Note_on_c, 0, 71, 63
1, 972355, Note_on_c, 0, 76, 74
1, 972355, Note_off_c, 0, 67, 70
1, 972371, Poly_aftertouch_c, 0, 65, 0
1, 972381, Note_off_c, 0, 71, 66
1, 972406, Note_off_c, 0, 76, 61
1, 972416, Control_c, 0, 64, 69
1, 972421, Note_on_c, 0, 55, 93
1, 972423, Note_on_c, 0, 52, 80
1, 972425, Note_on_c, 0, 43, 71
1, 972425, Note_on_c, 0, 47, 78
1, 972443, Note_on_c, 0, 76, 88
1, 972465, Note_off_c, 0, 43, 67
1, 972468, Control_c, 0, 64, 70
1, 972475, Note_off_c, 0, 55, 63
1, 972484, Note_off_c, 0, 52, 61
1, 972487, Note_off_c, 0, 47, 62
1, 972509, Note_off_c, 0, 76, 61
1, 972518, Note_on_c, 0, 79, 85
1, 972527, Note_on_c, 0, 88, 85
1, 972527, Control_c, 0, 64, 70
1, 972531, Note_on_c, 0, 83, 71
1, 972542, Control_c, 0, 64, 71
1, 972555, Note_off_c, 0, 83, 67
1, 972557, Control_c, 0, 64, 72
1, 972564, Note_off_c, 0, 79, 64
1, 972572, Note_off_c, 0, 88, 64
1, 972586, Note_on_c, 0, 76, 85
1, 972608, Note_off_c, 0, 76, 69
1, 972631, Control_c, 0, 64, 71
1, 972646, Control_c, 0, 64, 61
1, 972660, Control_c, 0, 64, 0
1, 972670, Note_on_c, 0, 58, 98
1, 972676, Note_on_c, 0, 46, 95
1, 972750, Control_c, 0, 64, 44
1, 972765, Control_c, 0, 64, 64
1, 972766, Note_on_c, 0, 63, 89
1, 972780, Control_c, 0, 64, 67
1, 972795, Control_c, 0, 64, 70
1, 972813, Note_off_c, 0, 58, 58
1, 972823, Note_off_c, 0, 46, 60
1, 972830, Note_off_c, 0, 63, 61
1, 972834, Note_on_c, 0, 67, 55
1, 972843, Note_on_c, 0, 70, 69
1, 972853, Note_on_c, 0, 75, 71
1, 972854, Control_c, 0, 64, 70
1, 972858, Note_off_c, 0, 67, 66
1, 972889, Note_off_c, 0, 70, 63
1, 972899, Control_c, 0, 64, 71
1, 972899, Note_off_c, 0, 75, 62
1, 972912, Note_on_c, 0, 58, 89
1, 972917, Note_on_c, 0, 51, 83
1, 972922, Note_on_c, 0, 55, 69
1, 972923, Note_on_c, 0, 46, 83
1, 972928, Control_c, 0, 64, 71
1, 972942, Note_on_c, 0, 75, 83
1, 972943, Control_c, 0, 64, 72
1, 972947, Note_off_c, 0, 55, 67
1, 972957, Control_c, 0, 64, 73
1, 972962, Note_off_c, 0, 58, 64
1, 972972, Control_c, 0, 64, 74
1, 972974, Note_off_c, 0, 51, 63
1, 972974, Note_off_c, 0, 46, 60
1, 972987, Control_c, 0, 64, 74
1, 973001, Note_on_c, 0, 78, 58
1, 973013, Note_off_c, 0, 75, 63
1, 973016, Note_on_c, 0, 79, 77
1, 973017, Note_on_c, 0, 82, 78
1, 973017, Control_c, 0, 64, 75
1, 973020, Note_on_c, 0, 87, 83
1, 973031, Control_c, 0, 64, 75
1, 973046, Control_c, 0, 64, 76
1, 973048, Note_off_c, 0, 78, 38
1, 973061, Control_c, 0, 64, 78
1, 973077, Control_c, 0, 64, 78
1, 973081, Note_off_c, 0, 87, 65
1, 973083, Note_off_c, 0, 82, 62
1, 973088, Note_on_c, 0, 75, 89
1, 973090, Note_off_c, 0, 79, 63
1, 973092, Control_c, 0, 64, 79
1, 973128, Note_off_c, 0, 75, 64
1, 973150, Control_c, 0, 64, 78
1, 973165, Control_c, 0, 64, 70
1, 973180, Control_c, 0, 64, 45
1, 973182, Note_on_c, 0, 52, 93
1, 973184, Note_on_c, 0, 40, 88
1, 973195, Control_c, 0, 64, 0
1, 973218, Note_on_c, 0, 41, 45
1, 973218, Note_off_c, 0, 41, 127
1, 973291, Control_c, 0, 64, 55
1, 973306, Control_c, 0, 64, 63
1, 973320, Note_on_c, 0, 62, 80
1, 973321, Control_c, 0, 64, 64
1, 973344, Note_off_c, 0, 62, 69
1, 973348, Note_off_c, 0, 52, 58
1, 973351, Control_c, 0, 64, 64
1, 973353, Note_off_c, 0, 40, 61
1, 973380, Control_c, 0, 64, 65
1, 973385, Note_on_c, 0, 74, 73
1, 973389, Note_on_c, 0, 67, 53
1, 973395, Note_on_c, 0, 65, 54
1, 973395, Control_c, 0, 64, 67
1, 973407, Note_on_c, 0, 71, 45
1, 973410, Control_c, 0, 64, 68
1, 973412, Note_off_c, 0, 67, 62
1, 973418, Note_off_c, 0, 65, 60
1, 973425, Control_c, 0, 64, 69
1, 973431, Note_off_c, 0, 71, 60
1, 973432, Note_on_c, 0, 69, 14
1, 973439, Control_c, 0, 64, 71
1, 973443, Note_off_c, 0, 74, 63
1, 973454, Control_c, 0, 64, 72
1, 973469, Note_on_c, 0, 52, 92
1, 973469, Control_c, 0, 64, 72
1, 973472, Note_on_c, 0, 40, 81
1, 973474, Note_on_c, 0, 47, 82
1, 973475, Note_on_c, 0, 43, 80
1, 973477, Note_off_c, 0, 69, 28
1, 973484, Control_c, 0, 64, 73
1, 973498, Note_on_c, 0, 74, 83
1, 973499, Control_c, 0, 64, 73
1, 973513, Control_c, 0, 64, 74
1, 973514, Note_off_c, 0, 40, 62
1, 973518, Note_off_c, 0, 52, 64
1, 973522, Note_off_c, 0, 47, 63
1, 973534, Note_off_c, 0, 43, 60
1, 973567, Note_off_c, 0, 74, 63
1, 973573, Control_c, 0, 64, 74
1, 973582, Note_on_c, 0, 79, 86
1, 973586, Note_on_c, 0, 86, 78
1, 973588, Control_c, 0, 64, 75
1, 973607, Note_on_c, 0, 83, 60
1, 973633, Control_c, 0, 64, 75
1, 973655, Note_off_c, 0, 79, 63
1, 973668, Note_off_c, 0, 86, 62
1, 973672, Note_on_c, 0, 74, 87
1, 973676, Note_off_c, 0, 83, 44
1, 973677, Control_c, 0, 64, 76
1, 973692, Control_c, 0, 64, 77
1, 973707, Control_c, 0, 64, 78
1, 973716, Note_off_c, 0, 74, 64
1, 973722, Control_c, 0, 64, 79
1, 973737, Control_c, 0, 64, 80
1, 973752, Control_c, 0, 64, 82
1, 973767, Control_c, 0, 64, 83
1, 973781, Control_c, 0, 64, 83
1, 973811, Control_c, 0, 64, 82
1, 973826, Control_c, 0, 64, 71
1, 973830, Note_on_c, 0, 57, 97
1, 973835, Note_on_c, 0, 45, 99
1, 973841, Control_c, 0, 64, 0
1, 974056, Note_on_c, 0, 61, 72
1, 974176, Note_on_c, 0, 64, 64
1, 974177, Note_on_c, 0, 73, 78
1, 974179, Note_on_c, 0, 69, 67
1, 974309, Note_off_c, 0, 73, 62
1, 974337, Control_c, 0, 64, 38
1, 974342, Note_off_c, 0, 69, 60
1, 974352, Control_c, 0, 64, 127
1, 974354, Note_off_c, 0, 64, 62
1, 974366, Note_off_c, 0, 61, 57
1, 974685, Note_on_c, 0, 59, 73
1, 974715, Control_c, 0, 64, 110
1, 974730, Control_c, 0, 64, 87
1, 974745, Control_c, 0, 64, 71
1, 974759, Control_c, 0, 64, 62
1, 974774, Control_c, 0, 64, 55
1, 974789, Control_c, 0, 64, 53
1, 974804, Control_c, 0, 64, 56
1, 974819, Control_c, 0, 64, 62
1, 974834, Control_c, 0, 64, 67
1, 974849, Control_c, 0, 64, 71
1, 974853, Note_on_c, 0, 61, 75
1, 974863, Control_c, 0, 64, 74
1, 974870, Note_off_c, 0, 59, 62
1, 974878, Control_c, 0, 64, 76
1, 974893, Control_c, 0, 64, 77
1, 974951, Note_off_c, 0, 61, 62
1, 974968, Note_on_c, 0, 62, 74
1, 975011, Control_c, 0, 64, 77
1, 975041, Control_c, 0, 64, 78
1, 975049, Note_on_c, 0, 64, 76
1, 975061, Note_off_c, 0, 62, 61
1, 975070, Control_c, 0, 64, 78
1, 975100, Control_c, 0, 64, 79
1, 975119, Note_on_c, 0, 66, 77
1, 975127, Note_off_c, 0, 57, 59
1, 975129, Note_off_c, 0, 64, 62
1, 975151, Note_off_c, 0, 45, 57
1, 975160, Control_c, 0, 64, 79
1, 975168, Note_off_c, 0, 66, 63
1, 975186, Note_on_c, 0, 67, 78
1, 975238, Note_on_c, 0, 69, 76
1, 975249, Control_c, 0, 64, 80
1, 975261, Note_off_c, 0, 67, 63
1, 975288, Note_on_c, 0, 71, 81
1, 975293, Control_c, 0, 64, 80
1, 975314, Note_off_c, 0, 69, 64
1, 975336, Note_on_c, 0, 73, 74
1, 975338, Control_c, 0, 64, 81
1, 975354, Note_off_c, 0, 71, 65
1, 975368, Control_c, 0, 64, 80
1, 975374, Note_off_c, 0, 73, 59
1, 975382, Control_c, 0, 64, 67
1, 975391, Note_on_c, 0, 74, 86
1, 975397, Control_c, 0, 64, 0
1, 975440, Note_on_c, 0, 76, 83
1, 975478, Control_c, 0, 64, 38
1, 975481, Note_off_c, 0, 74, 49
1, 975493, Note_on_c, 0, 44, 70
1, 975493, Control_c, 0, 64, 70
1, 975497, Note_on_c, 0, 78, 86
1, 975498, Note_on_c, 0, 56, 73
1, 975508, Control_c, 0, 64, 98
1, 975511, Note_off_c, 0, 76, 65
1, 975523, Control_c, 0, 64, 127
1, 975526, Note_off_c, 0, 44, 67
1, 975527, Note_off_c, 0, 56, 66
1, 975540, Note_off_c, 0, 78, 65
1, 975563, Note_on_c, 0, 79, 82
1, 975603, Note_on_c, 0, 81, 88
1, 975646, Note_on_c, 0, 83, 87
1, 975651, Note_off_c, 0, 79, 45
1, 975687, Note_on_c, 0, 85, 91
1, 975690, Note_off_c, 0, 81, 63
1, 975728, Note_off_c, 0, 83, 64
1, 975742, Note_on_c, 0, 86, 87
1, 975764, Note_off_c, 0, 85, 65
1, 975833, Note_on_c, 0, 66, 98
1, 975833, Note_on_c, 0, 62, 92
1, 975835, Note_on_c, 0, 76, 105
1, 975880, Note_off_c, 0, 86, 62
1, 976022, Note_on_c, 0, 88, 83
1, 976092, Note_off_c, 0, 76, 57
1, 976117, Note_on_c, 0, 80, 81
1, 976151, Note_off_c, 0, 88, 59
1, 976230, Note_on_c, 0, 64, 92
1, 976230, Note_on_c, 0, 74, 94
1, 976244, Note_on_c, 0, 59, 74
1, 976259, Note_off_c, 0, 80, 61
1, 976270, Note_off_c, 0, 66, 60
1, 976310, Note_off_c, 0, 62, 39
1, 976343, Note_on_c, 0, 86, 78
1, 976391, Note_off_c, 0, 74, 60
1, 976415, Note_off_c, 0, 59, 38
1, 976422, Note_on_c, 0, 83, 79
1, 976452, Note_off_c, 0, 86, 58
1, 976487, Note_off_c, 0, 64, 61
1, 976523, Note_on_c, 0, 66, 93
1, 976523, Note_on_c, 0, 76, 84
1, 976524, Control_c, 0, 64, 88
1, 976527, Note_on_c, 0, 62, 87
1, 976539, Control_c, 0, 64, 76
1, 976550, Note_off_c, 0, 83, 61
1, 976554, Control_c, 0, 64, 72
1, 976568, Control_c, 0, 64, 72
1, 976583, Control_c, 0, 64, 74
1, 976598, Control_c, 0, 64, 78
1, 976611, Note_on_c, 0, 88, 75
1, 976613, Control_c, 0, 64, 86
1, 976627, Control_c, 0, 64, 102
1, 976642, Control_c, 0, 64, 127
1, 976655, Note_off_c, 0, 76, 59
1, 976684, Note_on_c, 0, 80, 80
1, 976721, Note_off_c, 0, 88, 60
1, 976769, Note_off_c, 0, 62, 57
1, 976777, Control_c, 0, 64, 109
1, 976780, Note_off_c, 0, 66, 54
1, 976788, Note_on_c, 0, 64, 93
1, 976789, Note_on_c, 0, 74, 82
1, 976792, Control_c, 0, 64, 103
1, 976795, Note_on_c, 0, 59, 80
1, 976807, Note_off_c, 0, 80, 62
1, 976836, Control_c, 0, 64, 108
1, 976851, Control_c, 0, 64, 122
1, 976866, Control_c, 0, 64, 127
1, 976879, Note_on_c, 0, 86, 79
1, 976892, Note_off_c, 0, 74, 59
1, 976959, Note_on_c, 0, 83, 76
1, 976980, Note_off_c, 0, 59, 36
1, 976989, Note_off_c, 0, 86, 61
1, 976994, Note_off_c, 0, 64, 60
1, 977021, Control_c, 0, 64, 100
1, 977036, Control_c, 0, 64, 67
1, 977046, Note_on_c, 0, 66, 92
1, 977050, Control_c, 0, 64, 47
1, 977053, Note_on_c, 0, 62, 83
1, 977055, Note_off_c, 0, 83, 61
1, 977064, Note_on_c, 0, 76, 69
1, 977065, Control_c, 0, 64, 0
1, 977076, Note_on_c, 0, 77, 67
1, 977080, Control_c, 0, 64, 32
1, 977095, Control_c, 0, 64, 50
1, 977110, Control_c, 0, 64, 62
1, 977111, Note_on_c, 0, 64, 3
1, 977111, Note_off_c, 0, 64, 127
1, 977124, Control_c, 0, 64, 71
1, 977139, Control_c, 0, 64, 81
1, 977140, Note_off_c, 0, 76, 53
1, 977144, Note_on_c, 0, 88, 80
1, 977154, Control_c, 0, 64, 94
1, 977161, Note_off_c, 0, 77, 29
1, 977169, Control_c, 0, 64, 108
1, 977176, Note_off_c, 0, 66, 59
1, 977184, Control_c, 0, 64, 127
1, 977195, Note_on_c, 0, 64, 75
1, 977203, Note_on_c, 0, 80, 80
1, 977205, Note_off_c, 0, 62, 51
1, 977243, Note_off_c, 0, 88, 60
1, 977272, Control_c, 0, 64, 109
1, 977287, Control_c, 0, 64, 82
1, 977290, Note_off_c, 0, 64, 62
1, 977302, Control_c, 0, 64, 65
1, 977306, Note_on_c, 0, 74, 82
1, 977310, Note_on_c, 0, 62, 87
1, 977313, Note_on_c, 0, 59, 79
1, 977317, Control_c, 0, 64, 50
1, 977320, Note_off_c, 0, 80, 62
1, 977332, Control_c, 0, 64, 45
1, 977347, Control_c, 0, 64, 53
1, 977362, Control_c, 0, 64, 62
1, 977377, Control_c, 0, 64, 68
1, 977389, Note_on_c, 0, 86, 78
1, 977392, Control_c, 0, 64, 74
1, 977395, Note_off_c, 0, 74, 59
1, 977404, Note_off_c, 0, 59, 63
1, 977406, Note_off_c, 0, 62, 62
1, 977406, Control_c, 0, 64, 83
1, 977421, Note_on_c, 0, 64, 81
1, 977421, Control_c, 0, 64, 95
1, 977436, Control_c, 0, 64, 108
1, 977450, Control_c, 0, 64, 127
1, 977451, Note_on_c, 0, 83, 73
1, 977491, Note_off_c, 0, 86, 60
1, 977511, Note_off_c, 0, 64, 63
1, 977526, Control_c, 0, 64, 88
1, 977535, Note_off_c, 0, 83, 61
1, 977540, Note_on_c, 0, 66, 95
1, 977541, Note_on_c, 0, 76, 81
1, 977541, Control_c, 0, 64, 69
1, 977544, Note_on_c, 0, 62, 81
1, 977555, Control_c, 0, 64, 59
1, 977567, Note_on_c, 0, 64, 34
1, 977570, Control_c, 0, 64, 61
1, 977585, Control_c, 0, 64, 67
1, 977590, Note_off_c, 0, 64, 54
1, 977600, Control_c, 0, 64, 78
1, 977615, Control_c, 0, 64, 100
1, 977619, Note_on_c, 0, 88, 82
1, 977630, Control_c, 0, 64, 127
1, 977642, Note_off_c, 0, 76, 55
1, 977682, Note_off_c, 0, 66, 59
1, 977683, Note_on_c, 0, 80, 81
1, 977705, Note_off_c, 0, 62, 58
1, 977731, Note_off_c, 0, 88, 62
1, 977760, Note_on_c, 0, 59, 78
1, 977766, Note_on_c, 0, 64, 70
1, 977784, Note_on_c, 0, 74, 84
1, 977791, Note_off_c, 0, 80, 57
1, 977793, Note_off_c, 0, 64, 67
1, 977803, Note_off_c, 0, 59, 65
1, 977815, Control_c, 0, 64, 108
1, 977830, Control_c, 0, 64, 54
1, 977845, Control_c, 0, 64, 0
1, 977860, Note_on_c, 0, 86, 80
1, 977885, Note_off_c, 0, 74, 53
1, 977907, Note_on_c, 0, 54, 92
1, 977914, Note_on_c, 0, 42, 97
1, 977916, Note_on_c, 0, 83, 77
1, 977940, Note_off_c, 0, 42, 70
1, 977946, Note_off_c, 0, 86, 63
1, 977952, Note_off_c, 0, 54, 65
1, 977963, Control_c, 0, 64, 127
1, 977969, Note_off_c, 0, 83, 64
1, 978089, Note_on_c, 0, 88, 89
1, 978094, Note_on_c, 0, 76, 79
1, 978098, Note_on_c, 0, 62, 71
1, 978098, Note_on_c, 0, 81, 75
1, 978101, Note_on_c, 0, 66, 95
1, 978110, Note_on_c, 0, 57, 88
1, 978144, Note_off_c, 0, 76, 63
1, 978145, Note_off_c, 0, 81, 63
1, 978148, Note_off_c, 0, 88, 64
1, 978250, Note_on_c, 0, 88, 90
1, 978255, Note_on_c, 0, 76, 82
1, 978265, Note_on_c, 0, 83, 64
1, 978268, Note_on_c, 0, 81, 62
1, 978287, Note_off_c, 0, 66, 60
1, 978290, Note_off_c, 0, 83, 66
1, 978292, Note_off_c, 0, 81, 65
1, 978301, Note_off_c, 0, 76, 64
1, 978304, Note_off_c, 0, 88, 65
1, 978334, Note_off_c, 0, 62, 58
1, 978378, Note_on_c, 0, 64, 78
1, 978378, Note_on_c, 0, 83, 82
1, 978384, Note_on_c, 0, 59, 76
1, 978384, Note_on_c, 0, 86, 83
1, 978388, Note_on_c, 0, 74, 81
1, 978411, Poly_aftertouch_c, 0, 58, 127
1, 978420, Note_off_c, 0, 74, 63
1, 978425, Note_off_c, 0, 83, 63
1, 978431, Note_off_c, 0, 86, 62
1, 978456, Note_off_c, 0, 64, 59
1, 978463, Poly_aftertouch_c, 0, 58, 0
1, 978497, Note_on_c, 0, 86, 85
1, 978498, Note_on_c, 0, 74, 81
1, 978502, Note_on_c, 0, 83, 78
1, 978530, Note_off_c, 0, 83, 62
1, 978542, Note_off_c, 0, 59, 53
1, 978545, Note_off_c, 0, 74, 62
1, 978548, Note_off_c, 0, 86, 63
1, 978617, Note_on_c, 0, 62, 79
1, 978619, Note_on_c, 0, 66, 80
1, 978620, Note_on_c, 0, 88, 95
1, 978623, Note_on_c, 0, 81, 83
1, 978625, Note_on_c, 0, 76, 78
1, 978653, Note_off_c, 0, 57, 0
1, 978653, Note_on_c, 0, 57, 11
1, 978667, Note_off_c, 0, 81, 64
1, 978671, Note_off_c, 0, 88, 66
1, 978673, Note_off_c, 0, 76, 64
1, 978717, Note_off_c, 0, 62, 59
1, 978718, Note_off_c, 0, 66, 60
1, 978739, Note_on_c, 0, 81, 89
1, 978742, Note_on_c, 0, 76, 78
1, 978742, Note_on_c, 0, 88, 84
1, 978776, Note_on_c, 0, 86, 42
1, 978776, Note_off_c, 0, 86, 127
1, 978782, Note_off_c, 0, 57, 36
1, 978789, Note_off_c, 0, 81, 63
1, 978790, Note_off_c, 0, 76, 63
1, 978796, Note_off_c, 0, 88, 64
1, 978854, Note_on_c, 0, 59, 75
1, 978855, Note_on_c, 0, 64, 70
1, 978868, Note_on_c, 0, 86, 88
1, 978873, Note_on_c, 0, 83, 88
1, 978873, Note_on_c, 0, 74, 86
1, 978874, Note_off_c, 0, 59, 71
1, 978880, Note_off_c, 0, 64, 68
1, 978919, Control_c, 0, 64, 115
1, 978924, Note_off_c, 0, 74, 62
1, 978927, Note_off_c, 0, 86, 63
1, 978931, Note_off_c, 0, 83, 62
1, 978934, Control_c, 0, 64, 61
1, 978949, Control_c, 0, 64, 0
1, 979016, Note_on_c, 0, 52, 91
1, 979020, Note_on_c, 0, 86, 91
1, 979022, Note_on_c, 0, 40, 78
1, 979022, Note_on_c, 0, 74, 95
1, 979023, Note_on_c, 0, 41, 75
1, 979029, Note_on_c, 0, 83, 82
1, 979037, Control_c, 0, 64, 44
1, 979046, Note_off_c, 0, 40, 67
1, 979048, Note_off_c, 0, 41, 65
1, 979049, Note_off_c, 0, 52, 66
1, 979052, Control_c, 0, 64, 127
1, 979059, Note_off_c, 0, 83, 60
1, 979071, Note_off_c, 0, 74, 62
1, 979075, Note_off_c, 0, 86, 64
1, 979214, Note_on_c, 0, 76, 91
1, 979215, Note_on_c, 0, 88, 94
1, 979216, Note_on_c, 0, 62, 69
1, 979216, Note_on_c, 0, 66, 83
1, 979217, Note_on_c, 0, 82, 88
1, 979232, Note_on_c, 0, 56, 68
1, 979261, Note_off_c, 0, 76, 63
1, 979269, Note_off_c, 0, 82, 61
1, 979271, Note_off_c, 0, 88, 64
1, 979319, Note_off_c, 0, 66, 60
1, 979324, Note_off_c, 0, 62, 60
1, 979357, Note_on_c, 0, 64, 75
1, 979373, Note_on_c, 0, 88, 96
1, 979375, Note_on_c, 0, 82, 92
1, 979376, Note_on_c, 0, 76, 87
1, 979420, Note_off_c, 0, 82, 63
1, 979426, Note_off_c, 0, 76, 63
1, 979428, Note_off_c, 0, 88, 64
1, 979462, Note_off_c, 0, 64, 54
1, 979480, Note_on_c, 0, 62, 74
1, 979493, Note_on_c, 0, 59, 62
1, 979506, Note_on_c, 0, 83, 86
1, 979508, Note_on_c, 0, 74, 87
1, 979508, Note_on_c, 0, 86, 84
1, 979550, Note_off_c, 0, 83, 65
1, 979552, Note_off_c, 0, 74, 64
1, 979553, Note_off_c, 0, 86, 64
1, 979580, Note_off_c, 0, 62, 60
1, 979617, Note_on_c, 0, 86, 89
1, 979620, Note_on_c, 0, 64, 73
1, 979621, Note_on_c, 0, 74, 81
1, 979625, Note_on_c, 0, 83, 80
1, 979655, Note_off_c, 0, 83, 58
1, 979669, Note_off_c, 0, 74, 61
1, 979672, Note_off_c, 0, 86, 61
1, 979676, Note_off_c, 0, 59, 56
1, 979699, Note_off_c, 0, 56, 54
1, 979746, Note_on_c, 0, 88, 93
1, 979747, Note_on_c, 0, 76, 85
1, 979749, Note_off_c, 0, 64, 0
1, 979749, Note_on_c, 0, 66, 81
1, 979749, Note_on_c, 0, 82, 86
1, 979755, Note_on_c, 0, 62, 72
1, 979794, Note_off_c, 0, 82, 64
1, 979796, Note_off_c, 0, 88, 65
1, 979797, Note_off_c, 0, 76, 62
1, 979837, Poly_aftertouch_c, 0, 64, 0
1, 979867, Note_on_c, 0, 82, 91
1, 979869, Note_on_c, 0, 88, 91
1, 979872, Note_on_c, 0, 76, 81
1, 979881, Note_off_c, 0, 66, 59
1, 979892, Note_off_c, 0, 62, 59
1, 979920, Note_off_c, 0, 88, 65
1, 979925, Note_off_c, 0, 82, 63
1, 979927, Note_off_c, 0, 76, 61
1, 979997, Note_on_c, 0, 64, 75
1, 980001, Note_on_c, 0, 59, 76
1, 980015, Note_on_c, 0, 86, 89
1, 980016, Note_on_c, 0, 74, 91
1, 980024, Note_off_c, 0, 64, 63
1, 980027, Note_on_c, 0, 83, 68
1, 980033, Note_on_c, 0, 84, 63
1, 980043, Note_off_c, 0, 59, 64
1, 980056, Note_off_c, 0, 84, 65
1, 980064, Note_off_c, 0, 83, 61
1, 980067, Note_off_c, 0, 74, 61
1, 980067, Note_off_c, 0, 86, 63
1, 980143, Note_on_c, 0, 86, 89
1, 980146, Note_on_c, 0, 74, 85
1, 980150, Note_on_c, 0, 83, 81
1, 980185, Note_off_c, 0, 83, 55
1, 980207, Note_off_c, 0, 74, 62
1, 980214, Note_off_c, 0, 86, 60
1, 980313, Control_c, 0, 64, 64
1, 980328, Control_c, 0, 64, 0
1, 980337, Note_on_c, 0, 50, 101
1, 980338, Note_on_c, 0, 38, 98
1, 980346, Note_on_c, 0, 78, 82
1, 980347, Note_on_c, 0, 81, 82
1, 980348, Note_on_c, 0, 90, 86
1, 980384, Note_off_c, 0, 38, 65
1, 980397, Note_off_c, 0, 50, 60
1, 980401, Control_c, 0, 64, 127
1, 980402, Note_off_c, 0, 78, 61
1, 980420, Note_off_c, 0, 90, 56
1, 980434, Note_off_c, 0, 81, 51
1, 980554, Note_on_c, 0, 81, 79
1, 980557, Note_on_c, 0, 78, 81
1, 980560, Note_on_c, 0, 90, 78
1, 980615, Note_off_c, 0, 90, 62
1, 980620, Note_off_c, 0, 78, 59
1, 980623, Note_off_c, 0, 81, 60
1, 980717, Note_on_c, 0, 62, 82
1, 980724, Note_on_c, 0, 54, 77
1, 980724, Note_on_c, 0, 57, 78
1, 980727, Note_on_c, 0, 74, 76
1, 980728, Note_on_c, 0, 86, 77
1, 980730, Note_on_c, 0, 81, 72
1, 980759, Note_on_c, 0, 66, 44
1, 980770, Note_off_c, 0, 74, 58
1, 980776, Note_off_c, 0, 81, 62
1, 980781, Note_off_c, 0, 86, 61
1, 980787, Note_off_c, 0, 66, 55
1, 980848, Note_off_c, 0, 57, 59
1, 980850, Note_on_c, 0, 86, 77
1, 980855, Note_on_c, 0, 74, 78
1, 980857, Note_on_c, 0, 81, 78
1, 980865, Note_off_c, 0, 54, 56
1, 980897, Note_off_c, 0, 74, 62
1, 980902, Note_off_c, 0, 62, 50
1, 980912, Note_off_c, 0, 86, 61
1, 980939, Note_off_c, 0, 81, 61
1, 980990, Note_on_c, 0, 62, 75
1, 980990, Note_on_c, 0, 57, 75
1, 980990, Note_on_c, 0, 66, 90
1, 980999, Note_on_c, 0, 78, 83
1, 981001, Note_on_c, 0, 81, 69
1, 981010, Note_on_c, 0, 90, 68
1, 981033, Note_off_c, 0, 90, 68
1, 981044, Note_off_c, 0, 78, 62
1, 981049, Note_off_c, 0, 81, 61
1, 981058, Note_off_c, 0, 62, 58
1, 981118, Note_off_c, 0, 66, 56
1, 981121, Note_on_c, 0, 90, 75
1, 981127, Note_on_c, 0, 81, 74
1, 981130, Note_on_c, 0, 78, 71
1, 981156, Note_off_c, 0, 90, 56
1, 981170, Note_off_c, 0, 78, 53
1, 981181, Note_off_c, 0, 81, 57
1, 981186, Note_off_c, 0, 57, 24
1, 981236, Note_on_c, 0, 81, 69
1, 981240, Note_on_c, 0, 62, 78
1, 981240, Note_on_c, 0, 54, 77
1, 981242, Note_on_c, 0, 57, 48
1, 981246, Note_on_c, 0, 74, 79
1, 981249, Note_on_c, 0, 86, 75
1, 981279, Note_off_c, 0, 86, 61
1, 981281, Note_off_c, 0, 57, 65
1, 981289, Note_off_c, 0, 81, 63
1, 981292, Note_off_c, 0, 62, 62
1, 981295, Note_off_c, 0, 74, 60
1, 981308, Note_off_c, 0, 54, 59
1, 981357, Note_on_c, 0, 81, 81
1, 981359, Note_on_c, 0, 74, 74
1, 981360, Note_on_c, 0, 86, 81
1, 981398, Note_off_c, 0, 74, 61
1, 981400, Note_off_c, 0, 86, 61
1, 981451, Note_off_c, 0, 81, 61
1, 981455, Control_c, 0, 64, 119
1, 981469, Control_c, 0, 64, 90
1, 981481, Note_on_c, 0, 66, 83
1, 981484, Note_on_c, 0, 62, 76
1, 981484, Control_c, 0, 64, 84
1, 981488, Note_on_c, 0, 81, 61
1, 981498, Note_on_c, 0, 78, 84
1, 981498, Note_on_c, 0, 90, 85
1, 981514, Control_c, 0, 64, 88
1, 981529, Control_c, 0, 64, 105
1, 981535, Note_off_c, 0, 90, 57
1, 981536, Note_off_c, 0, 78, 59
1, 981541, Note_off_c, 0, 81, 64
1, 981544, Control_c, 0, 64, 127
1, 981565, Note_off_c, 0, 62, 59
1, 981568, Note_off_c, 0, 66, 62
1, 981601, Note_on_c, 0, 64, 80
1, 981607, Note_on_c, 0, 81, 80
1, 981612, Note_on_c, 0, 78, 78
1, 981617, Note_on_c, 0, 90, 73
1, 981639, Note_off_c, 0, 90, 68
1, 981657, Note_off_c, 0, 81, 61
1, 981660, Note_off_c, 0, 78, 59
1, 981688, Note_off_c, 0, 64, 58
1, 981712, Note_on_c, 0, 62, 75
1, 981720, Note_on_c, 0, 54, 78
1, 981723, Note_on_c, 0, 81, 75
1, 981728, Note_on_c, 0, 74, 76
1, 981731, Note_on_c, 0, 86, 70
1, 981757, Note_off_c, 0, 86, 66
1, 981762, Note_off_c, 0, 74, 60
1, 981767, Note_off_c, 0, 81, 62
1, 981776, Note_off_c, 0, 62, 61
1, 981809, Note_off_c, 0, 54, 60
1, 981816, Note_on_c, 0, 64, 70
1, 981831, Note_on_c, 0, 86, 83
1, 981832, Note_on_c, 0, 74, 78
1, 981834, Note_on_c, 0, 81, 80
1, 981862, Note_off_c, 0, 86, 62
1, 981865, Note_off_c, 0, 74, 64
1, 981885, Note_off_c, 0, 64, 60
1, 981888, Note_off_c, 0, 81, 59
1, 981936, Note_on_c, 0, 62, 76
1, 981936, Note_on_c, 0, 66, 84
1, 981946, Note_on_c, 0, 78, 81
1, 981946, Note_on_c, 0, 81, 75
1, 981950, Note_on_c, 0, 90, 86
1, 981981, Note_off_c, 0, 66, 63
1, 981985, Note_off_c, 0, 62, 63
1, 981987, Note_off_c, 0, 90, 58
1, 981991, Note_off_c, 0, 81, 63
1, 981993, Note_off_c, 0, 78, 62
1, 982057, Note_on_c, 0, 81, 77
1, 982060, Note_on_c, 0, 90, 78
1, 982060, Note_on_c, 0, 78, 77
1, 982092, Note_off_c, 0, 90, 59
1, 982107, Note_off_c, 0, 81, 61
1, 982112, Note_off_c, 0, 78, 62
1, 982166, Note_on_c, 0, 62, 80
1, 982173, Note_on_c, 0, 54, 69
1, 982173, Note_on_c, 0, 57, 69
1, 982176, Note_on_c, 0, 86, 83
1, 982184, Note_on_c, 0, 74, 80
1, 982205, Note_on_c, 0, 81, 60
1, 982224, Note_off_c, 0, 54, 47
1, 982227, Note_off_c, 0, 57, 60
1, 982230, Note_off_c, 0, 81, 55
1, 982231, Note_off_c, 0, 62, 62
1, 982232, Note_off_c, 0, 86, 64
1, 982233, Note_off_c, 0, 74, 59
1, 982295, Note_on_c, 0, 81, 81
1, 982298, Note_on_c, 0, 86, 69
1, 982303, Note_on_c, 0, 74, 68
1, 982331, Note_off_c, 0, 86, 61
1, 982335, Note_off_c, 0, 74, 62
1, 982386, Note_off_c, 0, 81, 56
1, 982395, Control_c, 0, 64, 85
1, 982410, Control_c, 0, 64, 48
1, 982425, Control_c, 0, 64, 0
1, 982437, Note_on_c, 0, 66, 74
1, 982438, Note_on_c, 0, 62, 69
1, 982445, Note_on_c, 0, 57, 62
1, 982450, Note_on_c, 0, 81, 50
1, 982451, Note_on_c, 0, 90, 72
1, 982453, Note_on_c, 0, 78, 65
1, 982484, Control_c, 0, 64, 57
1, 982499, Control_c, 0, 64, 70
1, 982501, Note_off_c, 0, 90, 57
1, 982508, Note_off_c, 0, 78, 55
1, 982514, Control_c, 0, 64, 100
1, 982529, Control_c, 0, 64, 127
1, 982543, Note_off_c, 0, 81, 50
1, 982575, Note_off_c, 0, 66, 61
1, 982577, Note_off_c, 0, 57, 57
1, 982589, Note_off_c, 0, 62, 57
1, 982617, Note_on_c, 0, 74, 69
1, 982620, Note_on_c, 0, 86, 63
1, 982623, Note_on_c, 0, 81, 54
1, 982660, Note_off_c, 0, 86, 59
1, 982665, Note_off_c, 0, 74, 60
1, 982683, Note_on_c, 0, 62, 75
1, 982698, Note_on_c, 0, 54, 62
1, 982698, Note_on_c, 0, 57, 66
1, 982704, Note_off_c, 0, 81, 62
1, 982748, Note_off_c, 0, 54, 51
1, 982772, Note_on_c, 0, 81, 66
1, 982774, Note_on_c, 0, 90, 75
1, 982775, Note_on_c, 0, 78, 76
1, 982776, Note_off_c, 0, 57, 57
1, 982799, Note_off_c, 0, 90, 66
1, 982809, Note_off_c, 0, 62, 59
1, 982835, Note_off_c, 0, 78, 61
1, 982853, Note_off_c, 0, 81, 60
1, 982910, Note_on_c, 0, 66, 80
1, 982912, Note_on_c, 0, 62, 77
1, 982912, Note_on_c, 0, 57, 63
1, 982921, Note_on_c, 0, 74, 84
1, 982945, Note_on_c, 0, 81, 77
1, 982952, Note_on_c, 0, 86, 49
1, 982957, Note_on_c, 0, 84, 62
1, 982981, Note_off_c, 0, 84, 65
1, 982983, Note_off_c, 0, 74, 61
1, 982984, Note_off_c, 0, 86, 65
1, 983025, Note_off_c, 0, 66, 60
1, 983029, Note_off_c, 0, 81, 55
1, 983043, Note_off_c, 0, 57, 56
1, 983044, Note_off_c, 0, 62, 57
1, 983069, Note_on_c, 0, 81, 70
1, 983073, Note_on_c, 0, 78, 89
1, 983078, Note_on_c, 0, 90, 78
1, 983119, Note_off_c, 0, 90, 62
1, 983138, Note_on_c, 0, 62, 83
1, 983142, Note_off_c, 0, 81, 59
1, 983142, Note_off_c, 0, 78, 61
1, 983146, Note_on_c, 0, 57, 71
1, 983154, Note_on_c, 0, 54, 65
1, 983226, Note_on_c, 0, 74, 87
1, 983226, Note_off_c, 0, 54, 56
1, 983231, Note_on_c, 0, 86, 80
1, 983235, Note_on_c, 0, 81, 90
1, 983236, Note_off_c, 0, 57, 61
1, 983253, Note_off_c, 0, 62, 56
1, 983279, Note_off_c, 0, 74, 63
1, 983283, Note_off_c, 0, 86, 63
1, 983324, Note_off_c, 0, 81, 53
1, 983362, Note_on_c, 0, 62, 80
1, 983365, Note_on_c, 0, 66, 87
1, 983369, Note_on_c, 0, 57, 74
1, 983369, Note_on_c, 0, 81, 71
1, 983371, Note_on_c, 0, 78, 93
1, 983374, Note_on_c, 0, 90, 86
1, 983416, Note_off_c, 0, 90, 65
1, 983440, Note_off_c, 0, 78, 60
1, 983449, Note_off_c, 0, 81, 60
1, 983476, Note_off_c, 0, 66, 60
1, 983487, Note_off_c, 0, 57, 60
1, 983487, Note_off_c, 0, 62, 56
1, 983515, Note_on_c, 0, 74, 93
1, 983515, Note_on_c, 0, 86, 81
1, 983521, Note_on_c, 0, 81, 77
1, 983564, Note_off_c, 0, 74, 63
1, 983571, Note_off_c, 0, 86, 63
1, 983586, Note_on_c, 0, 62, 89
1, 983592, Note_on_c, 0, 54, 84
1, 983596, Note_on_c, 0, 57, 78
1, 983607, Note_off_c, 0, 81, 63
1, 983643, Note_off_c, 0, 62, 62
1, 983656, Note_off_c, 0, 57, 62
1, 983675, Note_off_c, 0, 54, 62
1, 983679, Note_on_c, 0, 78, 97
1, 983681, Note_on_c, 0, 81, 86
1, 983690, Note_on_c, 0, 90, 83
1, 983732, Note_off_c, 0, 90, 65
1, 983764, Note_off_c, 0, 78, 58
1, 983765, Note_off_c, 0, 81, 60
1, 983847, Note_on_c, 0, 74, 94
1, 983850, Note_on_c, 0, 86, 88
1, 983851, Note_on_c, 0, 81, 89
1, 983902, Note_off_c, 0, 74, 59
1, 983930, Note_off_c, 0, 86, 64
1, 983953, Note_off_c, 0, 81, 61
1, 983953, Control_c, 0, 64, 112
1, 983968, Control_c, 0, 64, 69
1, 983982, Control_c, 0, 64, 38
1, 983997, Control_c, 0, 64, 0
1, 984019, Note_on_c, 0, 49, 93
1, 984022, Note_on_c, 0, 78, 98
1, 984024, Note_on_c, 0, 37, 90
1, 984027, Control_c, 0, 64, 42
1, 984028, Note_on_c, 0, 90, 84
1, 984036, Note_on_c, 0, 81, 80
1, 984042, Control_c, 0, 64, 62
1, 984057, Control_c, 0, 64, 77
1, 984072, Control_c, 0, 64, 127
1, 984080, Note_off_c, 0, 49, 65
1, 984094, Note_off_c, 0, 37, 61
1, 984105, Note_off_c, 0, 90, 64
1, 984122, Note_off_c, 0, 78, 61
1, 984143, Note_off_c, 0, 81, 58
1, 984190, Control_c, 0, 64, 103
1, 984203, Note_on_c, 0, 47, 97
1, 984205, Control_c, 0, 64, 77
1, 984209, Note_on_c, 0, 35, 93
1, 984211, Note_on_c, 0, 81, 78
1, 984217, Note_on_c, 0, 76, 87
1, 984217, Note_on_c, 0, 88, 88
1, 984220, Control_c, 0, 64, 71
1, 984224, Note_on_c, 0, 74, 75
1, 984234, Control_c, 0, 64, 72
1, 984247, Note_off_c, 0, 74, 63
1, 984249, Control_c, 0, 64, 79
1, 984254, Note_off_c, 0, 76, 62
1, 984254, Note_off_c, 0, 81, 66
1, 984264, Control_c, 0, 64, 101
1, 984279, Control_c, 0, 64, 127
1, 984283, Note_off_c, 0, 88, 66
1, 984337, Note_off_c, 0, 47, 39
1, 984337, Note_off_c, 0, 35, 55
1, 984404, Note_on_c, 0, 39, 17
1, 984412, Control_c, 0, 64, 114
1, 984427, Control_c, 0, 64, 67
1, 984449, Control_c, 0, 64, 0
1, 984456, Note_off_c, 0, 39, 47
1, 984462, Note_on_c, 0, 45, 106
1, 984463, Note_on_c, 0, 86, 91
1, 984464, Note_on_c, 0, 33, 94
1, 984464, Note_on_c, 0, 81, 98
1, 984465, Note_on_c, 0, 90, 92
1, 984465, Note_on_c, 0, 79, 94
1, 984465, Note_on_c, 0, 93, 93
1, 984523, Control_c, 0, 64, 39
1, 984538, Control_c, 0, 64, 70
1, 984548, Note_off_c, 0, 33, 64
1, 984553, Control_c, 0, 64, 107
1, 984560, Note_off_c, 0, 86, 61
1, 984567, Control_c, 0, 64, 127
1, 984577, Note_off_c, 0, 45, 64
1, 984611, Note_off_c, 0, 93, 62
1, 984619, Note_off_c, 0, 81, 54
1, 984620, Note_off_c, 0, 79, 61
1, 984644, Note_off_c, 0, 90, 58
1, 984733, Note_on_c, 0, 88, 82
1, 984734, Note_on_c, 0, 81, 91
1, 984735, Note_on_c, 0, 93, 85
1, 984737, Note_on_c, 0, 85, 86
1, 984738, Note_on_c, 0, 79, 87
1, 984835, Note_off_c, 0, 79, 59
1, 984837, Note_on_c, 0, 64, 91
1, 984837, Note_off_c, 0, 81, 57
1, 984837, Note_off_c, 0, 93, 63
1, 984838, Note_on_c, 0, 55, 94
1, 984847, Note_on_c, 0, 61, 80
1, 984854, Note_off_c, 0, 85, 64
1, 984856, Note_on_c, 0, 57, 67
1, 984883, Note_off_c, 0, 88, 58
1, 984896, Note_off_c, 0, 57, 53
1, 984912, Note_off_c, 0, 61, 55
1, 984921, Note_off_c, 0, 64, 60
1, 984922, Note_off_c, 0, 55, 58
1, 984938, Note_on_c, 0, 86, 87
1, 984941, Note_on_c, 0, 81, 95
1, 984942, Note_on_c, 0, 79, 93
1, 984943, Note_on_c, 0, 93, 88
1, 984944, Note_on_c, 0, 90, 85
1, 985032, Note_off_c, 0, 86, 60
1, 985047, Note_off_c, 0, 93, 60
1, 985051, Note_off_c, 0, 81, 57
1, 985058, Note_off_c, 0, 79, 62
1, 985064, Note_off_c, 0, 90, 62
1, 985123, Note_on_c, 0, 62, 80
1, 985130, Note_on_c, 0, 66, 100
1, 985133, Note_on_c, 0, 57, 83
1, 985136, Note_on_c, 0, 55, 78
1, 985138, Note_on_c, 0, 81, 90
1, 985138, Note_on_c, 0, 93, 95
1, 985139, Note_on_c, 0, 79, 97
1, 985139, Note_on_c, 0, 85, 86
1, 985140, Note_on_c, 0, 88, 83
1, 985243, Note_off_c, 0, 62, 60
1, 985246, Note_off_c, 0, 79, 61
1, 985246, Note_off_c, 0, 81, 55
1, 985250, Note_off_c, 0, 55, 59
1, 985254, Note_off_c, 0, 93, 59
1, 985257, Note_off_c, 0, 85, 63
1, 985264, Note_off_c, 0, 66, 60
1, 985273, Note_off_c, 0, 57, 60
1, 985299, Note_off_c, 0, 88, 54
1, 985327, Note_on_c, 0, 86, 80
1, 985333, Note_on_c, 0, 81, 85
1, 985334, Note_on_c, 0, 79, 91
1, 985335, Note_on_c, 0, 90, 76
1, 985339, Note_on_c, 0, 93, 80
1, 985395, Note_off_c, 0, 86, 61
1, 985399, Note_off_c, 0, 93, 62
1, 985404, Note_on_c, 0, 64, 92
1, 985413, Note_off_c, 0, 81, 50
1, 985413, Note_on_c, 0, 55, 81
1, 985415, Note_on_c, 0, 61, 82
1, 985416, Note_off_c, 0, 79, 61
1, 985417, Note_on_c, 0, 57, 69
1, 985429, Note_off_c, 0, 90, 62
1, 985479, Note_off_c, 0, 55, 58
1, 985485, Note_off_c, 0, 57, 57
1, 985491, Note_on_c, 0, 88, 70
1, 985503, Note_on_c, 0, 81, 84
1, 985504, Note_on_c, 0, 93, 88
1, 985504, Note_off_c, 0, 61, 58
1, 985507, Note_on_c, 0, 79, 90
1, 985507, Note_on_c, 0, 85, 77
1, 985509, Note_off_c, 0, 64, 61
1, 985582, Note_off_c, 0, 81, 57
1, 985584, Note_off_c, 0, 79, 62
1, 985592, Note_off_c, 0, 93, 63
1, 985604, Note_off_c, 0, 85, 63
1, 985622, Note_off_c, 0, 88, 55
1, 985643, Control_c, 0, 64, 78
1, 985658, Control_c, 0, 64, 57
1, 985664, Note_on_c, 0, 66, 94
1, 985673, Control_c, 0, 64, 30
1, 985675, Note_on_c, 0, 55, 57
1, 985680, Note_on_c, 0, 86, 75
1, 985680, Note_on_c, 0, 93, 79
1, 985681, Note_on_c, 0, 79, 86
1, 985684, Note_on_c, 0, 57, 48
1, 985684, Note_on_c, 0, 81, 76
1, 985688, Note_on_c, 0, 90, 65
1, 985702, Control_c, 0, 64, 49
1, 985717, Control_c, 0, 64, 64
1, 985721, Note_off_c, 0, 55, 64
1, 985722, Note_off_c, 0, 57, 58
1, 985732, Control_c, 0, 64, 76
1, 985733, Note_off_c, 0, 81, 53
1, 985734, Note_off_c, 0, 93, 64
1, 985738, Note_off_c, 0, 66, 63
1, 985741, Note_off_c, 0, 86, 61
1, 985745, Note_off_c, 0, 79, 61
1, 985747, Control_c, 0, 64, 94
1, 985761, Note_off_c, 0, 90, 61
1, 985762, Control_c, 0, 64, 127
1, 985788, Note_on_c, 0, 64, 93
1, 985834, Note_on_c, 0, 88, 79
1, 985836, Note_on_c, 0, 93, 82
1, 985837, Note_on_c, 0, 79, 85
1, 985843, Note_on_c, 0, 81, 72
1, 985852, Note_off_c, 0, 64, 65
1, 985863, Note_on_c, 0, 85, 60
1, 985881, Note_off_c, 0, 81, 57
1, 985892, Note_off_c, 0, 79, 59
1, 985898, Note_off_c, 0, 93, 64
1, 985902, Note_off_c, 0, 85, 59
1, 985916, Note_on_c, 0, 62, 95
1, 985920, Note_off_c, 0, 88, 57
1, 985991, Note_off_c, 0, 62, 60
1, 986012, Note_on_c, 0, 93, 74
1, 986012, Note_on_c, 0, 86, 58
1, 986015, Note_on_c, 0, 81, 69
1, 986016, Note_on_c, 0, 79, 71
1, 986020, Note_on_c, 0, 90, 66
1, 986045, Note_on_c, 0, 64, 95
1, 986055, Note_on_c, 0, 87, 12
1, 986055, Note_off_c, 0, 87, 127
1, 986067, Note_off_c, 0, 86, 61
1, 986075, Note_off_c, 0, 93, 60
1, 986085, Note_off_c, 0, 79, 58
1, 986102, Note_off_c, 0, 90, 61
1, 986115, Note_off_c, 0, 81, 34
1, 986144, Note_off_c, 0, 64, 58
1, 986154, Control_c, 0, 64, 80
1, 986169, Control_c, 0, 64, 63
1, 986184, Control_c, 0, 64, 52
1, 986185, Note_on_c, 0, 66, 96
1, 986187, Note_on_c, 0, 88, 77
1, 986187, Note_on_c, 0, 93, 82
1, 986189, Note_on_c, 0, 81, 81
1, 986191, Note_on_c, 0, 79, 80
1, 986191, Note_on_c, 0, 85, 71
1, 986199, Control_c, 0, 64, 56
1, 986213, Control_c, 0, 64, 65
1, 986228, Control_c, 0, 64, 75
1, 986243, Control_c, 0, 64, 96
1, 986250, Note_off_c, 0, 66, 61
1, 986254, Note_off_c, 0, 79, 54
1, 986256, Note_off_c, 0, 93, 60
1, 986258, Control_c, 0, 64, 127
1, 986278, Note_off_c, 0, 85, 60
1, 986283, Note_off_c, 0, 81, 40
1, 986305, Note_off_c, 0, 88, 37
1, 986361, Note_on_c, 0, 86, 71
1, 986364, Note_on_c, 0, 90, 72
1, 986366, Note_on_c, 0, 81, 79
1, 986369, Note_on_c, 0, 93, 67
1, 986371, Note_on_c, 0, 79, 75
1, 986398, Note_off_c, 0, 79, 57
1, 986406, Note_off_c, 0, 81, 48
1, 986406, Note_off_c, 0, 93, 56
1, 986414, Note_off_c, 0, 86, 63
1, 986439, Note_on_c, 0, 64, 88
1, 986439, Note_off_c, 0, 90, 61
1, 986450, Note_on_c, 0, 61, 82
1, 986451, Note_on_c, 0, 55, 75
1, 986451, Note_on_c, 0, 57, 72
1, 986514, Note_off_c, 0, 55, 59
1, 986519, Note_off_c, 0, 64, 58
1, 986523, Note_off_c, 0, 57, 62
1, 986530, Note_off_c, 0, 61, 62
1, 986531, Note_on_c, 0, 88, 74
1, 986538, Note_on_c, 0, 81, 74
1, 986538, Note_on_c, 0, 85, 71
1, 986539, Note_on_c, 0, 93, 75
1, 986540, Note_on_c, 0, 79, 78
1, 986603, Note_off_c, 0, 81, 54
1, 986604, Note_off_c, 0, 79, 59
1, 986618, Note_off_c, 0, 85, 62
1, 986623, Note_off_c, 0, 93, 60
1, 986651, Note_off_c, 0, 88, 41
1, 986659, Control_c, 0, 64, 117
1, 986681, Control_c, 0, 64, 80
1, 986695, Note_on_c, 0, 62, 74
1, 986696, Control_c, 0, 64, 63
1, 986699, Note_on_c, 0, 66, 84
1, 986707, Note_on_c, 0, 86, 62
1, 986710, Control_c, 0, 64, 54
1, 986713, Note_on_c, 0, 93, 60
1, 986713, Note_on_c, 0, 55, 61
1, 986716, Note_on_c, 0, 79, 64
1, 986716, Note_on_c, 0, 90, 61
1, 986717, Note_on_c, 0, 57, 60
1, 986724, Note_on_c, 0, 81, 53
1, 986725, Control_c, 0, 64, 55
1, 986740, Control_c, 0, 64, 60
1, 986755, Control_c, 0, 64, 66
1, 986770, Note_off_c, 0, 93, 58
1, 986770, Control_c, 0, 64, 76
1, 986774, Note_off_c, 0, 86, 61
1, 986784, Control_c, 0, 64, 96
1, 986787, Note_off_c, 0, 79, 54
1, 986788, Note_off_c, 0, 81, 41
1, 986799, Control_c, 0, 64, 127
1, 986802, Note_off_c, 0, 90, 62
1, 986823, Note_off_c, 0, 62, 60
1, 986834, Note_off_c, 0, 55, 60
1, 986838, Note_off_c, 0, 66, 61
1, 986853, Note_off_c, 0, 57, 56
1, 986886, Note_on_c, 0, 88, 68
1, 986887, Note_on_c, 0, 79, 76
1, 986888, Note_on_c, 0, 93, 68
1, 986889, Note_on_c, 0, 85, 69
1, 986894, Note_on_c, 0, 81, 65
1, 986943, Note_on_c, 0, 64, 83
1, 986947, Note_off_c, 0, 81, 50
1, 986949, Note_off_c, 0, 79, 58
1, 986951, Note_on_c, 0, 57, 68
1, 986955, Note_on_c, 0, 55, 67
1, 986958, Note_on_c, 0, 61, 71
1, 986959, Note_off_c, 0, 93, 61
1, 986967, Note_off_c, 0, 85, 61
1, 986979, Note_off_c, 0, 88, 57
1, 987032, Note_off_c, 0, 61, 58
1, 987041, Note_on_c, 0, 86, 78
1, 987048, Note_on_c, 0, 79, 84
1, 987048, Note_on_c, 0, 81, 82
1, 987048, Note_on_c, 0, 93, 80
1, 987055, Note_on_c, 0, 90, 66
1, 987063, Note_off_c, 0, 64, 60
1, 987068, Note_off_c, 0, 55, 36
1, 987079, Note_off_c, 0, 57, 50
1, 987127, Note_off_c, 0, 93, 64
1, 987128, Note_off_c, 0, 86, 62
1, 987128, Note_off_c, 0, 81, 60
1, 987130, Note_off_c, 0, 79, 65
1, 987154, Note_off_c, 0, 90, 62
1, 987184, Note_on_c, 0, 62, 81
1, 987185, Control_c, 0, 64, 104
1, 987189, Note_on_c, 0, 66, 87
1, 987190, Note_on_c, 0, 57, 70
1, 987198, Note_on_c, 0, 55, 46
1, 987200, Control_c, 0, 64, 75
1, 987207, Note_on_c, 0, 79, 80
1, 987211, Note_on_c, 0, 88, 73
1, 987211, Note_on_c, 0, 93, 78
1, 987213, Note_on_c, 0, 81, 74
1, 987215, Control_c, 0, 64, 64
1, 987218, Note_on_c, 0, 85, 72
1, 987230, Control_c, 0, 64, 60
1, 987245, Control_c, 0, 64, 62
1, 987259, Control_c, 0, 64, 68
1, 987274, Control_c, 0, 64, 80
1, 987282, Note_off_c, 0, 81, 56
1, 987289, Control_c, 0, 64, 112
1, 987293, Note_off_c, 0, 79, 63
1, 987298, Note_off_c, 0, 93, 64
1, 987301, Note_off_c, 0, 66, 59
1, 987302, Note_off_c, 0, 85, 61
1, 987303, Note_off_c, 0, 62, 59
1, 987304, Control_c, 0, 64, 127
1, 987315, Note_off_c, 0, 55, 57
1, 987319, Note_off_c, 0, 88, 58
1, 987332, Note_off_c, 0, 57, 55
1, 987365, Note_on_c, 0, 86, 83
1, 987367, Note_on_c, 0, 90, 80
1, 987372, Note_on_c, 0, 93, 75
1, 987376, Note_on_c, 0, 79, 84
1, 987376, Note_on_c, 0, 81, 73
1, 987437, Note_on_c, 0, 64, 87
1, 987443, Note_on_c, 0, 57, 82
1, 987443, Note_on_c, 0, 61, 82
1, 987445, Note_off_c, 0, 81, 56
1, 987446, Note_off_c, 0, 93, 63
1, 987450, Note_on_c, 0, 55, 72
1, 987453, Note_off_c, 0, 79, 63
1, 987458, Note_off_c, 0, 86, 62
1, 987466, Note_off_c, 0, 90, 64
1, 987512, Note_off_c, 0, 55, 58
1, 987530, Note_off_c, 0, 57, 55
1, 987533, Note_off_c, 0, 61, 54
1, 987534, Note_off_c, 0, 64, 54
1, 987536, Note_on_c, 0, 88, 81
1, 987542, Note_on_c, 0, 81, 86
1, 987542, Note_on_c, 0, 79, 91
1, 987545, Note_on_c, 0, 93, 89
1, 987547, Note_on_c, 0, 85, 83
1, 987627, Note_off_c, 0, 79, 64
1, 987627, Note_off_c, 0, 81, 59
1, 987630, Note_off_c, 0, 93, 65
1, 987638, Note_off_c, 0, 85, 63
1, 987655, Note_off_c, 0, 88, 61
1, 987682, Control_c, 0, 64, 98
1, 987691, Note_on_c, 0, 62, 80
1, 987697, Control_c, 0, 64, 67
1, 987698, Note_on_c, 0, 66, 90
1, 987701, Note_on_c, 0, 57, 73
1, 987702, Note_on_c, 0, 87, 88
1, 987708, Note_on_c, 0, 55, 63
1, 987711, Note_on_c, 0, 81, 91
1, 987711, Control_c, 0, 64, 51
1, 987712, Note_on_c, 0, 93, 84
1, 987713, Note_on_c, 0, 90, 82
1, 987714, Note_on_c, 0, 79, 92
1, 987726, Control_c, 0, 64, 43
1, 987741, Control_c, 0, 64, 50
1, 987756, Control_c, 0, 64, 61
1, 987771, Control_c, 0, 64, 71
1, 987785, Control_c, 0, 64, 92
1, 987789, Note_off_c, 0, 87, 63
1, 987800, Control_c, 0, 64, 127
1, 987803, Note_off_c, 0, 93, 64
1, 987807, Note_off_c, 0, 81, 61
1, 987810, Note_off_c, 0, 79, 64
1, 987826, Note_off_c, 0, 90, 63
1, 987834, Note_off_c, 0, 62, 60
1, 987841, Note_off_c, 0, 55, 59
1, 987842, Note_off_c, 0, 66, 61
1, 987866, Note_off_c, 0, 57, 58
1, 987877, Note_on_c, 0, 88, 84
1, 987878, Note_on_c, 0, 81, 90
1, 987878, Note_on_c, 0, 79, 91
1, 987884, Note_on_c, 0, 93, 88
1, 987887, Note_on_c, 0, 85, 80
1, 987959, Note_on_c, 0, 64, 92
1, 987961, Note_on_c, 0, 57, 83
1, 987964, Note_on_c, 0, 61, 85
1, 987965, Note_off_c, 0, 81, 60
1, 987967, Note_off_c, 0, 79, 63
1, 987971, Note_on_c, 0, 55, 77
1, 987979, Note_off_c, 0, 93, 63
1, 987984, Note_off_c, 0, 85, 61
1, 987998, Note_off_c, 0, 88, 58
1, 988059, Note_on_c, 0, 86, 92
1, 988064, Note_on_c, 0, 81, 98
1, 988067, Note_on_c, 0, 90, 82
1, 988069, Note_on_c, 0, 93, 93
1, 988069, Note_on_c, 0, 79, 95
1, 988090, Note_off_c, 0, 64, 57
1, 988100, Note_on_c, 0, 83, 40
1, 988100, Note_off_c, 0, 83, 127
1, 988105, Note_off_c, 0, 55, 59
1, 988117, Note_off_c, 0, 61, 58
1, 988138, Note_off_c, 0, 57, 56
1, 988146, Note_off_c, 0, 86, 62
1, 988153, Note_off_c, 0, 79, 61
1, 988155, Note_off_c, 0, 81, 61
1, 988159, Note_off_c, 0, 93, 64
1, 988184, Note_off_c, 0, 90, 63
1, 988224, Control_c, 0, 64, 112
1, 988231, Note_on_c, 0, 55, 84
1, 988232, Note_on_c, 0, 62, 89
1, 988235, Note_on_c, 0, 59, 80
1, 988239, Control_c, 0, 64, 74
1, 988242, Note_on_c, 0, 88, 95
1, 988245, Note_on_c, 0, 57, 80
1, 988247, Note_on_c, 0, 81, 100
1, 988248, Note_on_c, 0, 93, 98
1, 988254, Control_c, 0, 64, 53
1, 988255, Note_on_c, 0, 79, 94
1, 988258, Note_on_c, 0, 85, 80
1, 988269, Control_c, 0, 64, 0
1, 988275, Note_on_c, 0, 83, 58
1, 988298, Control_c, 0, 64, 43
1, 988299, Note_off_c, 0, 83, 37
1, 988313, Control_c, 0, 64, 64
1, 988328, Control_c, 0, 64, 85
1, 988342, Control_c, 0, 64, 127
1, 988358, Note_off_c, 0, 79, 62
1, 988358, Note_off_c, 0, 81, 61
1, 988367, Note_off_c, 0, 93, 65
1, 988382, Note_off_c, 0, 85, 61
1, 988392, Note_off_c, 0, 88, 58
1, 988421, Note_off_c, 0, 62, 57
1, 988426, Note_off_c, 0, 55, 55
1, 988434, Note_on_c, 0, 86, 93
1, 988437, Note_on_c, 0, 90, 86
1, 988437, Note_on_c, 0, 93, 86
1, 988439, Note_off_c, 0, 59, 58
1, 988440, Note_on_c, 0, 79, 100
1, 988440, Note_on_c, 0, 81, 92
1, 988454, Note_off_c, 0, 57, 38
1, 988530, Note_on_c, 0, 64, 91
1, 988534, Note_on_c, 0, 61, 89
1, 988535, Note_on_c, 0, 55, 87
1, 988537, Note_on_c, 0, 57, 88
1, 988543, Note_off_c, 0, 86, 60
1, 988565, Note_off_c, 0, 64, 61
1, 988570, Note_off_c, 0, 81, 58
1, 988570, Note_off_c, 0, 93, 62
1, 988575, Note_off_c, 0, 79, 62
1, 988577, Note_off_c, 0, 61, 63
1, 988586, Note_off_c, 0, 55, 67
1, 988589, Note_off_c, 0, 57, 63
1, 988591, Note_off_c, 0, 90, 61
1, 988668, Note_on_c, 0, 88, 87
1, 988672, Note_on_c, 0, 85, 98
1, 988672, Note_on_c, 0, 93, 99
1, 988674, Note_on_c, 0, 81, 100
1, 988685, Note_on_c, 0, 79, 85
1, 988704, Note_on_c, 0, 83, 48
1, 988704, Note_off_c, 0, 83, 127
1, 988706, Note_off_c, 0, 79, 72
1, 988718, Note_off_c, 0, 81, 61
1, 988725, Note_off_c, 0, 88, 64
1, 988731, Note_off_c, 0, 85, 61
1, 988755, Note_off_c, 0, 93, 65
1, 988832, Poly_aftertouch_c, 0, 27, 127
1, 988889, Poly_aftertouch_c, 0, 27, 0
1, 989050, Note_on_c, 0, 86, 101
1, 989052, Note_on_c, 0, 93, 99
1, 989052, Note_on_c, 0, 98, 99
1, 989056, Note_on_c, 0, 38, 103
1, 989059, Note_on_c, 0, 26, 95
1, 989077, Control_c, 0, 64, 116
1, 989091, Control_c, 0, 64, 66
1, 989106, Control_c, 0, 64, 0
1, 989127, Note_on_c, 0, 88, 26
1, 989127, Note_off_c, 0, 88, 127
1, 989225, Control_c, 0, 66, 127
1, 989278, Note_off_c, 0, 98, 59
1, 989325, Note_off_c, 0, 93, 62
1, 989330, Note_off_c, 0, 26, 59
1, 989333, Note_off_c, 0, 86, 57
1, 989388, Note_off_c, 0, 38, 62
1, 990041, Note_on_c, 0, 57, 45
1, 990046, Note_on_c, 0, 67, 56
1, 990048, Note_on_c, 0, 64, 46
1, 990120, Control_c, 0, 64, 29
1, 990127, Note_off_c, 0, 64, 55
1, 990135, Control_c, 0, 64, 50
1, 990150, Control_c, 0, 64, 61
1, 990157, Note_off_c, 0, 57, 56
1, 990165, Control_c, 0, 64, 63
1, 990170, Note_off_c, 0, 67, 58
1, 990180, Control_c, 0, 64, 64
1, 990195, Control_c, 0, 64, 66
1, 990209, Control_c, 0, 64, 67
1, 990224, Control_c, 0, 64, 68
1, 990239, Control_c, 0, 64, 68
1, 990254, Control_c, 0, 64, 69
1, 990269, Control_c, 0, 64, 69
1, 990284, Control_c, 0, 64, 70
1, 990300, Note_on_c, 0, 69, 54
1, 990300, Control_c, 0, 64, 71
1, 990306, Note_on_c, 0, 66, 45
1, 990315, Control_c, 0, 64, 73
1, 990316, Note_on_c, 0, 62, 37
1, 990329, Control_c, 0, 64, 75
1, 990359, Control_c, 0, 64, 75
1, 990367, Note_off_c, 0, 66, 58
1, 990376, Note_off_c, 0, 62, 57
1, 990376, Note_off_c, 0, 69, 60
1, 990494, Note_on_c, 0, 57, 52
1, 990495, Note_on_c, 0, 67, 57
1, 990503, Note_on_c, 0, 64, 50
1, 990529, Control_c, 0, 64, 76
1, 990535, Note_off_c, 0, 64, 64
1, 990546, Note_off_c, 0, 57, 54
1, 990552, Note_off_c, 0, 67, 53
1, 990643, Note_on_c, 0, 62, 51
1, 990649, Note_on_c, 0, 69, 58
1, 990651, Note_on_c, 0, 66, 54
1, 990710, Note_off_c, 0, 66, 52
1, 990713, Note_off_c, 0, 62, 54
1, 990720, Note_off_c, 0, 69, 55
1, 990722, Control_c, 0, 64, 72
1, 990737, Control_c, 0, 64, 63
1, 990752, Control_c, 0, 64, 43
1, 990767, Control_c, 0, 64, 0
1, 990779, Note_on_c, 0, 57, 55
1, 990796, Note_on_c, 0, 67, 51
1, 990797, Note_on_c, 0, 64, 48
1, 990826, Control_c, 0, 64, 47
1, 990841, Control_c, 0, 64, 60
1, 990842, Note_off_c, 0, 64, 58
1, 990855, Control_c, 0, 64, 67
1, 990870, Control_c, 0, 64, 70
1, 990883, Note_off_c, 0, 67, 54
1, 990885, Control_c, 0, 64, 74
1, 990892, Note_off_c, 0, 57, 52
1, 990900, Control_c, 0, 64, 75
1, 990906, Note_on_c, 0, 54, 52
1, 990915, Control_c, 0, 64, 77
1, 990922, Note_on_c, 0, 66, 56
1, 990928, Note_on_c, 0, 62, 53
1, 990929, Control_c, 0, 64, 78
1, 990944, Control_c, 0, 64, 79
1, 990959, Control_c, 0, 64, 79
1, 990966, Note_off_c, 0, 66, 59
1, 990970, Note_off_c, 0, 62, 60
1, 990974, Note_off_c, 0, 54, 55
1, 990974, Control_c, 0, 64, 80
1, 991003, Control_c, 0, 64, 80
1, 991018, Control_c, 0, 64, 81
1, 991025, Note_on_c, 0, 57, 59
1, 991033, Control_c, 0, 64, 82
1, 991047, Note_on_c, 0, 67, 54
1, 991052, Note_on_c, 0, 64, 50
1, 991089, Note_off_c, 0, 64, 64
1, 991116, Note_off_c, 0, 67, 56
1, 991123, Control_c, 0, 64, 82
1, 991125, Note_off_c, 0, 57, 52
1, 991138, Control_c, 0, 64, 76
1, 991152, Control_c, 0, 64, 65
1, 991162, Note_on_c, 0, 62, 58
1, 991175, Control_c, 0, 64, 46
1, 991178, Note_on_c, 0, 66, 59
1, 991184, Note_on_c, 0, 69, 58
1, 991190, Control_c, 0, 64, 0
1, 991241, Note_off_c, 0, 66, 55
1, 991249, Control_c, 0, 64, 30
1, 991253, Note_off_c, 0, 69, 47
1, 991264, Note_off_c, 0, 62, 57
1, 991264, Control_c, 0, 64, 50
1, 991278, Control_c, 0, 64, 63
1, 991293, Control_c, 0, 64, 69
1, 991295, Note_on_c, 0, 57, 58
1, 991299, Note_on_c, 0, 64, 53
1, 991302, Note_on_c, 0, 67, 58
1, 991308, Control_c, 0, 64, 73
1, 991323, Control_c, 0, 64, 75
1, 991333, Note_off_c, 0, 64, 64
1, 991338, Control_c, 0, 64, 76
1, 991348, Note_off_c, 0, 67, 58
1, 991352, Control_c, 0, 64, 78
1, 991367, Control_c, 0, 64, 79
1, 991369, Note_off_c, 0, 57, 52
1, 991382, Control_c, 0, 64, 80
1, 991397, Control_c, 0, 64, 81
1, 991407, Note_on_c, 0, 54, 60
1, 991412, Note_on_c, 0, 66, 68
1, 991412, Control_c, 0, 64, 81
1, 991414, Note_on_c, 0, 62, 58
1, 991426, Control_c, 0, 64, 82
1, 991441, Control_c, 0, 64, 83
1, 991456, Control_c, 0, 64, 84
1, 991461, Note_off_c, 0, 62, 55
1, 991464, Note_off_c, 0, 66, 59
1, 991485, Control_c, 0, 64, 82
1, 991500, Note_off_c, 0, 54, 48
1, 991500, Control_c, 0, 64, 75
1, 991515, Control_c, 0, 64, 67
1, 991520, Note_on_c, 0, 57, 63
1, 991530, Note_on_c, 0, 64, 63
1, 991530, Control_c, 0, 64, 61
1, 991531, Note_on_c, 0, 67, 66
1, 991545, Control_c, 0, 64, 61
1, 991560, Control_c, 0, 64, 62
1, 991566, Note_off_c, 0, 64, 61
1, 991575, Control_c, 0, 64, 65
1, 991590, Control_c, 0, 64, 67
1, 991596, Note_off_c, 0, 67, 62
1, 991605, Control_c, 0, 64, 71
1, 991614, Note_off_c, 0, 57, 62
1, 991619, Control_c, 0, 64, 75
1, 991634, Control_c, 0, 64, 80
1, 991637, Note_on_c, 0, 62, 64
1, 991644, Note_on_c, 0, 66, 72
1, 991649, Control_c, 0, 64, 83
1, 991655, Note_on_c, 0, 69, 61
1, 991664, Control_c, 0, 64, 86
1, 991678, Control_c, 0, 64, 88
1, 991691, Note_off_c, 0, 69, 58
1, 991693, Control_c, 0, 64, 88
1, 991700, Note_off_c, 0, 66, 60
1, 991708, Control_c, 0, 64, 89
1, 991715, Note_off_c, 0, 62, 57
1, 991723, Control_c, 0, 64, 89
1, 991738, Control_c, 0, 64, 90
1, 991752, Note_on_c, 0, 57, 64
1, 991752, Control_c, 0, 64, 92
1, 991758, Note_on_c, 0, 64, 70
1, 991763, Note_on_c, 0, 67, 68
1, 991767, Control_c, 0, 64, 93
1, 991816, Note_off_c, 0, 64, 57
1, 991826, Control_c, 0, 64, 91
1, 991828, Note_off_c, 0, 67, 55
1, 991841, Note_off_c, 0, 57, 55
1, 991841, Control_c, 0, 64, 81
1, 991856, Control_c, 0, 64, 67
1, 991864, Note_on_c, 0, 54, 75
1, 991870, Control_c, 0, 64, 47
1, 991873, Note_on_c, 0, 66, 72
1, 991882, Note_on_c, 0, 62, 67
1, 991885, Control_c, 0, 64, 0
1, 991930, Note_off_c, 0, 62, 61
1, 991938, Control_c, 0, 64, 39
1, 991945, Note_off_c, 0, 66, 62
1, 991953, Control_c, 0, 64, 55
1, 991968, Control_c, 0, 64, 65
1, 991971, Note_off_c, 0, 54, 55
1, 991983, Control_c, 0, 64, 74
1, 991988, Note_on_c, 0, 57, 67
1, 991995, Note_on_c, 0, 67, 67
1, 991998, Note_on_c, 0, 64, 63
1, 991998, Control_c, 0, 64, 82
1, 992013, Control_c, 0, 64, 88
1, 992028, Control_c, 0, 64, 90
1, 992033, Note_off_c, 0, 64, 62
1, 992043, Control_c, 0, 64, 90
1, 992056, Note_off_c, 0, 67, 61
1, 992072, Control_c, 0, 64, 91
1, 992080, Note_off_c, 0, 57, 61
1, 992087, Control_c, 0, 64, 92
1, 992099, Note_on_c, 0, 62, 66
1, 992101, Control_c, 0, 64, 94
1, 992104, Note_on_c, 0, 66, 68
1, 992116, Control_c, 0, 64, 96
1, 992117, Note_on_c, 0, 69, 62
1, 992131, Control_c, 0, 64, 98
1, 992146, Control_c, 0, 64, 100
1, 992164, Note_off_c, 0, 66, 62
1, 992165, Note_off_c, 0, 69, 52
1, 992178, Note_off_c, 0, 62, 57
1, 992190, Control_c, 0, 64, 96
1, 992205, Control_c, 0, 64, 80
1, 992216, Note_on_c, 0, 57, 69
1, 992220, Note_on_c, 0, 64, 63
1, 992220, Control_c, 0, 64, 63
1, 992223, Note_on_c, 0, 67, 69
1, 992235, Control_c, 0, 64, 32
1, 992249, Control_c, 0, 64, 0
1, 992264, Note_off_c, 0, 64, 57
1, 992293, Control_c, 0, 64, 32
1, 992295, Note_off_c, 0, 67, 59
1, 992304, Note_off_c, 0, 57, 58
1, 992308, Control_c, 0, 64, 53
1, 992323, Control_c, 0, 64, 65
1, 992326, Note_on_c, 0, 54, 71
1, 992328, Note_on_c, 0, 66, 74
1, 992335, Note_on_c, 0, 62, 66
1, 992338, Control_c, 0, 64, 74
1, 992353, Control_c, 0, 64, 82
1, 992368, Control_c, 0, 64, 86
1, 992373, Note_off_c, 0, 62, 61
1, 992383, Control_c, 0, 64, 87
1, 992386, Note_off_c, 0, 66, 61
1, 992393, Note_off_c, 0, 54, 61
1, 992397, Control_c, 0, 64, 87
1, 992448, Note_on_c, 0, 57, 68
1, 992448, Note_on_c, 0, 64, 73
1, 992449, Note_on_c, 0, 67, 71
1, 992478, Note_off_c, 0, 64, 64
1, 992493, Note_off_c, 0, 67, 60
1, 992516, Control_c, 0, 64, 87
1, 992519, Note_off_c, 0, 57, 53
1, 992531, Control_c, 0, 64, 83
1, 992546, Control_c, 0, 64, 77
1, 992561, Control_c, 0, 64, 72
1, 992575, Control_c, 0, 64, 68
1, 992579, Note_on_c, 0, 62, 69
1, 992582, Note_on_c, 0, 66, 73
1, 992590, Control_c, 0, 64, 67
1, 992602, Note_on_c, 0, 69, 47
1, 992613, Note_off_c, 0, 66, 60
1, 992634, Control_c, 0, 64, 68
1, 992640, Note_off_c, 0, 62, 57
1, 992663, Note_off_c, 0, 69, 37
1, 992681, Note_on_c, 0, 57, 70
1, 992681, Note_on_c, 0, 64, 70
1, 992684, Note_on_c, 0, 67, 70
1, 992714, Note_off_c, 0, 64, 66
1, 992730, Note_off_c, 0, 67, 60
1, 992736, Note_off_c, 0, 57, 63
1, 992759, Note_on_c, 0, 54, 77
1, 992764, Note_on_c, 0, 66, 80
1, 992767, Note_on_c, 0, 62, 67
1, 992806, Note_off_c, 0, 62, 61
1, 992821, Note_off_c, 0, 66, 59
1, 992821, Control_c, 0, 64, 67
1, 992830, Note_off_c, 0, 54, 60
1, 992844, Note_on_c, 0, 57, 69
1, 992850, Note_on_c, 0, 64, 73
1, 992851, Note_on_c, 0, 67, 78
1, 992879, Note_off_c, 0, 64, 67
1, 992880, Control_c, 0, 64, 67
1, 992895, Control_c, 0, 64, 62
1, 992904, Note_off_c, 0, 67, 0
1, 992904, Note_off_c, 0, 57, 64
1, 992910, Control_c, 0, 64, 40
1, 992910, Control_c, 0, 66, 0
1, 992923, Note_on_c, 0, 66, 83
1, 992923, Note_on_c, 0, 69, 84
1, 992924, Control_c, 0, 64, 0
1, 992928, Note_on_c, 0, 62, 81
1, 992945, Poly_aftertouch_c, 0, 67, 0
1, 992949, Note_off_c, 0, 66, 65
1, 992958, Note_off_c, 0, 69, 64
1, 992960, Note_on_c, 0, 67, 2
1, 992960, Note_off_c, 0, 67, 127
1, 992964, Note_off_c, 0, 62, 63
1, 993190, Note_on_c, 0, 84, 83
1, 993191, Note_on_c, 0, 79, 68
1, 993195, Note_on_c, 0, 72, 63
1, 993196, Note_on_c, 0, 67, 52
1, 993198, Note_on_c, 0, 62, 49
1, 993208, Note_on_c, 0, 58, 51
1, 993310, Control_c, 0, 64, 30
1, 993325, Control_c, 0, 64, 51
1, 993339, Control_c, 0, 64, 60
1, 993354, Control_c, 0, 64, 67
1, 993369, Control_c, 0, 64, 80
1, 993378, Note_off_c, 0, 72, 49
1, 993384, Control_c, 0, 64, 112
1, 993391, Note_off_c, 0, 62, 54
1, 993396, Note_off_c, 0, 79, 60
1, 993399, Control_c, 0, 64, 127
1, 993410, Note_off_c, 0, 84, 61
1, 993441, Note_off_c, 0, 67, 38
1, 993448, Note_off_c, 0, 58, 59
1, 993570, Control_c, 0, 64, 102
1, 993581, Note_on_c, 0, 57, 66
1, 993585, Control_c, 0, 64, 78
1, 993591, Note_on_c, 0, 86, 91
1, 993592, Note_on_c, 0, 65, 61
1, 993594, Note_on_c, 0, 81, 79
1, 993599, Note_on_c, 0, 74, 77
1, 993600, Control_c, 0, 64, 68
1, 993614, Note_on_c, 0, 60, 17
1, 993615, Control_c, 0, 64, 63
1, 993644, Control_c, 0, 64, 66
1, 993646, Note_off_c, 0, 57, 63
1, 993657, Note_off_c, 0, 60, 29
1, 993659, Control_c, 0, 64, 71
1, 993673, Control_c, 0, 64, 82
1, 993688, Control_c, 0, 64, 95
1, 993694, Note_off_c, 0, 65, 52
1, 993698, Note_off_c, 0, 74, 60
1, 993703, Note_off_c, 0, 81, 62
1, 993703, Control_c, 0, 64, 122
1, 993718, Control_c, 0, 64, 127
1, 993722, Note_off_c, 0, 86, 64
1, 993822, Note_on_c, 0, 64, 66
1, 993826, Note_on_c, 0, 55, 66
1, 993828, Note_on_c, 0, 88, 96
1, 993830, Note_on_c, 0, 82, 90
1, 993835, Note_on_c, 0, 58, 57
1, 993836, Note_on_c, 0, 76, 86
1, 993837, Control_c, 0, 64, 85
1, 993852, Control_c, 0, 64, 53
1, 993867, Control_c, 0, 64, 0
1, 993910, Note_off_c, 0, 76, 60
1, 993911, Control_c, 0, 64, 52
1, 993916, Note_off_c, 0, 82, 63
1, 993918, Note_off_c, 0, 64, 60
1, 993926, Control_c, 0, 64, 76
1, 993933, Note_off_c, 0, 88, 65
1, 993941, Control_c, 0, 64, 104
1, 993943, Note_off_c, 0, 55, 54
1, 993955, Control_c, 0, 64, 127
1, 993977, Note_off_c, 0, 58, 29
1, 994000, Note_on_c, 0, 89, 97
1, 994001, Note_on_c, 0, 84, 94
1, 994003, Note_on_c, 0, 77, 83
1, 994004, Note_on_c, 0, 62, 70
1, 994007, Note_on_c, 0, 53, 75
1, 994008, Note_on_c, 0, 57, 68
1, 994058, Note_off_c, 0, 77, 60
1, 994061, Note_off_c, 0, 84, 62
1, 994061, Note_off_c, 0, 57, 62
1, 994066, Note_off_c, 0, 62, 60
1, 994068, Note_off_c, 0, 53, 61
1, 994079, Note_off_c, 0, 89, 64
1, 994147, Control_c, 0, 64, 82
1, 994155, Note_on_c, 0, 52, 75
1, 994158, Note_on_c, 0, 62, 81
1, 994169, Note_on_c, 0, 86, 92
1, 994169, Control_c, 0, 64, 52
1, 994171, Note_on_c, 0, 91, 98
1, 994172, Note_on_c, 0, 55, 62
1, 994172, Note_on_c, 0, 79, 93
1, 994184, Control_c, 0, 64, 0
1, 994201, Note_on_c, 0, 54, 60
1, 994213, Control_c, 0, 64, 51
1, 994216, Note_off_c, 0, 62, 61
1, 994219, Note_off_c, 0, 86, 64
1, 994223, Note_off_c, 0, 79, 64
1, 994225, Note_off_c, 0, 54, 59
1, 994228, Control_c, 0, 64, 66
1, 994233, Note_off_c, 0, 55, 64
1, 994242, Note_off_c, 0, 52, 59
1, 994242, Note_off_c, 0, 91, 65
1, 994243, Control_c, 0, 64, 83
1, 994258, Control_c, 0, 64, 127
1, 994312, Note_on_c, 0, 61, 88
1, 994314, Note_on_c, 0, 52, 74
1, 994314, Note_on_c, 0, 88, 94
1, 994320, Note_on_c, 0, 81, 85
1, 994324, Note_on_c, 0, 93, 73
1, 994326, Note_on_c, 0, 55, 73
1, 994328, Note_on_c, 0, 91, 86
1, 994346, Note_off_c, 0, 81, 63
1, 994349, Note_off_c, 0, 91, 66
1, 994352, Note_off_c, 0, 93, 68
1, 994359, Note_off_c, 0, 88, 63
1, 994368, Note_off_c, 0, 52, 61
1, 994371, Note_off_c, 0, 55, 58
1, 994371, Note_off_c, 0, 61, 60
1, 994430, Note_on_c, 0, 52, 80
1, 994432, Note_on_c, 0, 88, 91
1, 994433, Note_on_c, 0, 55, 80
1, 994434, Note_on_c, 0, 81, 85
1, 994436, Note_on_c, 0, 93, 91
1, 994438, Note_on_c, 0, 61, 77
1, 994455, Note_off_c, 0, 81, 66
1, 994463, Note_off_c, 0, 88, 64
1, 994465, Note_off_c, 0, 61, 68
1, 994477, Note_off_c, 0, 93, 65
1, 994478, Note_off_c, 0, 55, 64
1, 994481, Note_off_c, 0, 52, 63
1, 994541, Control_c, 0, 66, 127
1, 994668, Note_on_c, 0, 98, 101
1, 994670, Note_on_c, 0, 86, 101
1, 994673, Note_on_c, 0, 26, 99
1, 994673, Note_on_c, 0, 38, 102
1, 994674, Control_c, 0, 64, 74
1, 994689, Control_c, 0, 64, 53
1, 994703, Control_c, 0, 64, 0
1, 994733, Control_c, 0, 66, 0
1, 994800, Note_off_c, 0, 98, 66
1, 994821, Control_c, 0, 66, 127
1, 994849, Note_off_c, 0, 86, 64
1, 994851, Note_off_c, 0, 26, 63
1, 994889, Note_off_c, 0, 38, 63
1, 995155, Note_on_c, 0, 57, 48
1, 995158, Note_on_c, 0, 67, 58
1, 995166, Note_on_c, 0, 64, 45
1, 995191, Note_off_c, 0, 64, 53
1, 995193, Note_off_c, 0, 67, 61
1, 995226, Note_off_c, 0, 57, 53
1, 995255, Note_on_c, 0, 62, 60
1, 995256, Note_on_c, 0, 66, 65
1, 995262, Note_on_c, 0, 69, 59
1, 995314, Note_off_c, 0, 62, 58
1, 995334, Control_c, 0, 64, 33
1, 995337, Note_off_c, 0, 66, 37
1, 995344, Note_off_c, 0, 69, 36
1, 995349, Note_on_c, 0, 57, 65
1, 995349, Control_c, 0, 64, 50
1, 995360, Note_on_c, 0, 67, 56
1, 995363, Control_c, 0, 64, 60
1, 995367, Note_on_c, 0, 64, 39
1, 995378, Control_c, 0, 64, 62
1, 995393, Control_c, 0, 64, 63
1, 995394, Note_off_c, 0, 64, 56
1, 995423, Note_off_c, 0, 67, 44
1, 995423, Control_c, 0, 64, 63
1, 995435, Note_off_c, 0, 57, 62
1, 995438, Control_c, 0, 64, 64
1, 995453, Note_on_c, 0, 62, 58
1, 995454, Note_on_c, 0, 66, 57
1, 995466, Note_on_c, 0, 69, 50
1, 995516, Note_off_c, 0, 69, 45
1, 995520, Note_off_c, 0, 62, 57
1, 995527, Note_off_c, 0, 66, 46
1, 995542, Control_c, 0, 64, 63
1, 995542, Note_on_c, 0, 64, 39
1, 995546, Note_on_c, 0, 67, 57
1, 995557, Control_c, 0, 64, 61
1, 995561, Note_on_c, 0, 57, 55
1, 995572, Control_c, 0, 64, 56
1, 995581, Note_off_c, 0, 64, 53
1, 995587, Control_c, 0, 64, 48
1, 995601, Control_c, 0, 64, 39
1, 995616, Control_c, 0, 64, 0
1, 995627, Note_off_c, 0, 57, 50
1, 995647, Note_off_c, 0, 67, 57
1, 995654, Note_on_c, 0, 54, 59
1, 995657, Note_on_c, 0, 66, 59
1, 995660, Control_c, 0, 64, 34
1, 995662, Note_on_c, 0, 62, 57
1, 995682, Control_c, 0, 64, 45
1, 995697, Control_c, 0, 64, 55
1, 995712, Control_c, 0, 64, 61
1, 995727, Control_c, 0, 64, 65
1, 995727, Note_off_c, 0, 62, 57
1, 995732, Note_off_c, 0, 66, 62
1, 995742, Control_c, 0, 64, 67
1, 995757, Control_c, 0, 64, 70
1, 995767, Note_off_c, 0, 54, 53
1, 995771, Control_c, 0, 64, 74
1, 995786, Control_c, 0, 64, 78
1, 995801, Control_c, 0, 64, 81
1, 995810, Note_on_c, 0, 57, 60
1, 995816, Control_c, 0, 64, 85
1, 995817, Note_on_c, 0, 67, 65
1, 995820, Note_on_c, 0, 64, 60
1, 995831, Control_c, 0, 64, 88
1, 995845, Control_c, 0, 64, 90
1, 995849, Note_off_c, 0, 64, 67
1, 995860, Control_c, 0, 64, 91
1, 995861, Note_off_c, 0, 67, 58
1, 995875, Control_c, 0, 64, 91
1, 995899, Note_off_c, 0, 57, 48
1, 995942, Note_on_c, 0, 62, 60
1, 995950, Control_c, 0, 64, 91
1, 995953, Note_on_c, 0, 66, 68
1, 995956, Note_on_c, 0, 69, 67
1, 995965, Control_c, 0, 64, 90
1, 995980, Control_c, 0, 64, 89
1, 995991, Note_off_c, 0, 66, 58
1, 995995, Control_c, 0, 64, 86
1, 996000, Note_off_c, 0, 69, 54
1, 996010, Control_c, 0, 64, 82
1, 996020, Note_off_c, 0, 62, 58
1, 996024, Control_c, 0, 64, 74
1, 996039, Control_c, 0, 64, 65
1, 996054, Control_c, 0, 64, 54
1, 996068, Control_c, 0, 64, 39
1, 996075, Note_on_c, 0, 57, 57
1, 996082, Note_on_c, 0, 67, 72
1, 996083, Control_c, 0, 64, 33
1, 996085, Note_on_c, 0, 64, 59
1, 996098, Control_c, 0, 64, 40
1, 996113, Control_c, 0, 64, 51
1, 996119, Note_off_c, 0, 64, 65
1, 996128, Control_c, 0, 64, 59
1, 996142, Control_c, 0, 64, 64
1, 996147, Note_off_c, 0, 67, 60
1, 996157, Control_c, 0, 64, 68
1, 996172, Control_c, 0, 64, 73
1, 996174, Note_off_c, 0, 57, 53
1, 996186, Control_c, 0, 64, 76
1, 996201, Control_c, 0, 64, 79
1, 996206, Note_on_c, 0, 54, 57
1, 996207, Note_on_c, 0, 66, 66
1, 996216, Note_on_c, 0, 62, 56
1, 996216, Control_c, 0, 64, 81
1, 996231, Control_c, 0, 64, 83
1, 996246, Note_off_c, 0, 66, 59
1, 996246, Control_c, 0, 64, 83
1, 996255, Note_off_c, 0, 62, 61
1, 996261, Control_c, 0, 64, 84
1, 996263, Note_off_c, 0, 54, 55
1, 996289, Control_c, 0, 64, 84
1, 996304, Control_c, 0, 64, 85
1, 996311, Note_on_c, 0, 57, 57
1, 996319, Control_c, 0, 64, 86
1, 996321, Note_on_c, 0, 67, 69
1, 996324, Note_on_c, 0, 64, 60
1, 996353, Note_off_c, 0, 64, 67
1, 996378, Control_c, 0, 64, 86
1, 996379, Note_off_c, 0, 67, 60
1, 996392, Control_c, 0, 64, 82
1, 996407, Control_c, 0, 64, 74
1, 996430, Control_c, 0, 64, 66
1, 996436, Note_off_c, 0, 57, 59
1, 996445, Control_c, 0, 64, 57
1, 996454, Note_on_c, 0, 62, 58
1, 996459, Note_on_c, 0, 66, 67
1, 996460, Control_c, 0, 64, 47
1, 996460, Note_on_c, 0, 69, 69
1, 996474, Control_c, 0, 64, 45
1, 996489, Control_c, 0, 64, 50
1, 996491, Note_off_c, 0, 66, 65
1, 996504, Control_c, 0, 64, 57
1, 996513, Note_off_c, 0, 69, 53
1, 996519, Control_c, 0, 64, 61
1, 996520, Note_off_c, 0, 62, 60
1, 996534, Control_c, 0, 64, 64
1, 996548, Control_c, 0, 64, 67
1, 996552, Note_on_c, 0, 64, 68
1, 996553, Note_on_c, 0, 57, 63
1, 996556, Note_on_c, 0, 67, 68
1, 996563, Control_c, 0, 64, 70
1, 996578, Control_c, 0, 64, 72
1, 996581, Note_off_c, 0, 64, 65
1, 996592, Note_off_c, 0, 67, 58
1, 996592, Control_c, 0, 64, 72
1, 996607, Control_c, 0, 64, 73
1, 996618, Note_off_c, 0, 57, 55
1, 996637, Control_c, 0, 64, 73
1, 996639, Note_on_c, 0, 66, 69
1, 996641, Note_on_c, 0, 69, 70
1, 996645, Note_on_c, 0, 62, 60
1, 996666, Control_c, 0, 64, 74
1, 996668, Note_off_c, 0, 66, 64
1, 996706, Note_off_c, 0, 62, 57
1, 996712, Control_c, 0, 64, 73
1, 996727, Control_c, 0, 64, 72
1, 996729, Note_on_c, 0, 64, 62
1, 996731, Note_on_c, 0, 67, 70
1, 996735, Note_on_c, 0, 57, 64
1, 996740, Note_off_c, 0, 69, 29
1, 996742, Control_c, 0, 64, 69
1, 996757, Note_off_c, 0, 64, 67
1, 996757, Control_c, 0, 64, 62
1, 996771, Control_c, 0, 64, 52
1, 996786, Control_c, 0, 64, 38
1, 996796, Note_off_c, 0, 57, 52
1, 996801, Control_c, 0, 64, 0
1, 996805, Note_off_c, 0, 67, 38
1, 996815, Note_on_c, 0, 66, 73
1, 996821, Note_on_c, 0, 54, 67
1, 996824, Note_on_c, 0, 62, 65
1, 996830, Control_c, 0, 64, 29
1, 996845, Control_c, 0, 64, 40
1, 996860, Control_c, 0, 64, 54
1, 996874, Note_off_c, 0, 62, 56
1, 996875, Control_c, 0, 64, 62
1, 996890, Control_c, 0, 64, 67
1, 996894, Note_off_c, 0, 66, 57
1, 996905, Control_c, 0, 64, 71
1, 996911, Note_off_c, 0, 54, 55
1, 996919, Control_c, 0, 64, 74
1, 996934, Note_on_c, 0, 57, 65
1, 996934, Control_c, 0, 64, 76
1, 996939, Note_on_c, 0, 64, 68
1, 996939, Note_on_c, 0, 67, 66
1, 996949, Control_c, 0, 64, 77
1, 996964, Control_c, 0, 64, 77
1, 996969, Note_off_c, 0, 64, 64
1, 996991, Note_off_c, 0, 67, 57
1, 997008, Control_c, 0, 64, 78
1, 997018, Note_off_c, 0, 57, 56
1, 997038, Note_on_c, 0, 62, 62
1, 997042, Note_on_c, 0, 66, 68
1, 997046, Note_on_c, 0, 69, 70
1, 997053, Control_c, 0, 64, 78
1, 997082, Note_off_c, 0, 66, 55
1, 997097, Control_c, 0, 64, 78
1, 997105, Note_off_c, 0, 69, 59
1, 997112, Control_c, 0, 64, 76
1, 997116, Note_off_c, 0, 62, 59
1, 997127, Control_c, 0, 64, 72
1, 997142, Control_c, 0, 64, 64
1, 997163, Note_on_c, 0, 57, 69
1, 997164, Control_c, 0, 64, 50
1, 997172, Note_on_c, 0, 64, 70
1, 997177, Note_on_c, 0, 67, 72
1, 997179, Control_c, 0, 64, 0
1, 997218, Note_off_c, 0, 64, 61
1, 997233, Note_off_c, 0, 67, 60
1, 997238, Control_c, 0, 64, 40
1, 997251, Note_off_c, 0, 57, 54
1, 997253, Control_c, 0, 64, 55
1, 997268, Control_c, 0, 64, 66
1, 997282, Note_on_c, 0, 54, 66
1, 997282, Note_on_c, 0, 66, 73
1, 997283, Control_c, 0, 64, 70
1, 997289, Note_on_c, 0, 62, 64
1, 997297, Control_c, 0, 64, 73
1, 997312, Control_c, 0, 64, 74
1, 997322, Note_off_c, 0, 66, 56
1, 997322, Note_off_c, 0, 62, 64
1, 997327, Control_c, 0, 64, 75
1, 997337, Note_off_c, 0, 54, 56
1, 997384, Note_on_c, 0, 57, 68
1, 997393, Note_on_c, 0, 64, 68
1, 997399, Note_on_c, 0, 67, 69
1, 997401, Control_c, 0, 64, 75
1, 997423, Note_off_c, 0, 64, 65
1, 997429, Note_off_c, 0, 67, 63
1, 997460, Control_c, 0, 64, 74
1, 997475, Control_c, 0, 64, 69
1, 997487, Note_off_c, 0, 57, 43
1, 997491, Control_c, 0, 64, 63
1, 997506, Control_c, 0, 64, 56
1, 997517, Note_on_c, 0, 62, 75
1, 997520, Control_c, 0, 64, 51
1, 997521, Note_on_c, 0, 66, 72
1, 997529, Note_on_c, 0, 69, 71
1, 997535, Control_c, 0, 64, 52
1, 997550, Control_c, 0, 64, 55
1, 997554, Note_off_c, 0, 66, 57
1, 997565, Control_c, 0, 64, 61
1, 997580, Control_c, 0, 64, 64
1, 997584, Note_off_c, 0, 62, 59
1, 997594, Control_c, 0, 64, 66
1, 997600, Note_off_c, 0, 69, 35
1, 997602, Note_on_c, 0, 57, 72
1, 997608, Note_on_c, 0, 64, 69
1, 997609, Control_c, 0, 64, 67
1, 997613, Note_on_c, 0, 67, 68
1, 997624, Control_c, 0, 64, 68
1, 997637, Note_off_c, 0, 64, 64
1, 997649, Note_off_c, 0, 67, 61
1, 997659, Note_off_c, 0, 57, 64
1, 997683, Control_c, 0, 64, 68
1, 997687, Note_on_c, 0, 54, 72
1, 997688, Note_on_c, 0, 66, 75
1, 997696, Note_on_c, 0, 62, 67
1, 997729, Note_off_c, 0, 62, 66
1, 997754, Note_off_c, 0, 54, 59
1, 997763, Note_on_c, 0, 57, 73
1, 997771, Note_on_c, 0, 67, 73
1, 997772, Control_c, 0, 64, 68
1, 997773, Note_off_c, 0, 66, 38
1, 997775, Note_on_c, 0, 64, 67
1, 997787, Control_c, 0, 64, 66
1, 997802, Control_c, 0, 64, 60
1, 997805, Note_off_c, 0, 64, 66
1, 997817, Control_c, 0, 64, 41
1, 997824, Note_off_c, 0, 67, 63
1, 997831, Control_c, 0, 64, 0
1, 997833, Note_off_c, 0, 57, 61
1, 997861, Control_c, 0, 66, 0
1, 997876, Note_on_c, 0, 66, 80
1, 997882, Note_on_c, 0, 62, 80
1, 997883, Note_on_c, 0, 69, 74
1, 997912, Control_c, 0, 64, 31
1, 997915, Note_off_c, 0, 66, 62
1, 997918, Note_off_c, 0, 69, 65
1, 997927, Control_c, 0, 64, 56
1, 997940, Note_off_c, 0, 62, 63
1, 997942, Control_c, 0, 64, 66
1, 997957, Control_c, 0, 64, 75
1, 997972, Control_c, 0, 64, 84
1, 997987, Control_c, 0, 64, 91
1, 998002, Control_c, 0, 64, 95
1, 998084, Note_on_c, 0, 84, 83
1, 998087, Note_on_c, 0, 72, 77
1, 998089, Note_on_c, 0, 69, 57
1, 998089, Note_on_c, 0, 79, 78
1, 998094, Note_on_c, 0, 57, 54
1, 998101, Note_on_c, 0, 59, 48
1, 998112, Note_off_c, 0, 69, 60
1, 998116, Note_off_c, 0, 79, 65
1, 998120, Note_on_c, 0, 62, 29
1, 998122, Note_off_c, 0, 57, 60
1, 998127, Note_off_c, 0, 59, 57
1, 998145, Note_off_c, 0, 62, 58
1, 998164, Control_c, 0, 64, 97
1, 998213, Note_off_c, 0, 72, 63
1, 998222, Note_on_c, 0, 80, 82
1, 998224, Control_c, 0, 64, 90
1, 998225, Note_off_c, 0, 84, 63
1, 998231, Note_on_c, 0, 68, 83
1, 998234, Note_on_c, 0, 58, 75
1, 998235, Note_on_c, 0, 62, 58
1, 998238, Control_c, 0, 64, 73
1, 998253, Control_c, 0, 64, 48
1, 998268, Control_c, 0, 64, 0
1, 998271, Note_off_c, 0, 62, 62
1, 998285, Note_off_c, 0, 80, 63
1, 998296, Note_off_c, 0, 68, 63
1, 998300, Note_off_c, 0, 58, 62
1, 998329, Control_c, 0, 64, 34
1, 998343, Control_c, 0, 64, 56
1, 998358, Control_c, 0, 64, 69
1, 998360, Note_on_c, 0, 57, 77
1, 998367, Note_on_c, 0, 67, 75
1, 998370, Note_on_c, 0, 81, 72
1, 998373, Control_c, 0, 64, 79
1, 998374, Note_on_c, 0, 73, 78
1, 998375, Note_on_c, 0, 85, 84
1, 998380, Note_on_c, 0, 60, 65
1, 998387, Control_c, 0, 64, 93
1, 998402, Control_c, 0, 64, 103
1, 998415, Note_off_c, 0, 57, 64
1, 998417, Control_c, 0, 64, 109
1, 998418, Note_off_c, 0, 81, 62
1, 998419, Note_off_c, 0, 67, 62
1, 998422, Note_off_c, 0, 73, 57
1, 998431, Note_off_c, 0, 85, 61
1, 998434, Note_off_c, 0, 60, 60
1, 998523, Note_on_c, 0, 56, 78
1, 998523, Note_on_c, 0, 86, 87
1, 998525, Note_on_c, 0, 83, 74
1, 998526, Note_on_c, 0, 66, 73
1, 998526, Note_on_c, 0, 74, 77
1, 998538, Note_on_c, 0, 60, 53
1, 998559, Note_off_c, 0, 60, 62
1, 998569, Note_off_c, 0, 74, 61
1, 998571, Note_off_c, 0, 86, 62
1, 998576, Note_off_c, 0, 83, 60
1, 998577, Note_off_c, 0, 66, 60
1, 998578, Note_off_c, 0, 56, 59
1, 998625, Control_c, 0, 64, 111
1, 998638, Note_on_c, 0, 55, 85
1, 998641, Note_on_c, 0, 87, 87
1, 998642, Note_on_c, 0, 65, 82
1, 998647, Note_on_c, 0, 75, 75
1, 998649, Note_on_c, 0, 84, 82
1, 998662, Note_on_c, 0, 59, 59
1, 998662, Control_c, 0, 64, 122
1, 998677, Control_c, 0, 64, 127
1, 998689, Note_off_c, 0, 59, 64
1, 998691, Note_off_c, 0, 84, 55
1, 998697, Note_off_c, 0, 65, 63
1, 998702, Note_off_c, 0, 55, 63
1, 998705, Note_off_c, 0, 75, 61
1, 998707, Note_off_c, 0, 87, 64
1, 998736, Control_c, 0, 64, 117
1, 998751, Control_c, 0, 64, 91
1, 998766, Control_c, 0, 64, 73
1, 998775, Note_on_c, 0, 64, 84
1, 998780, Note_on_c, 0, 58, 72
1, 998781, Control_c, 0, 64, 65
1, 998783, Note_on_c, 0, 88, 94
1, 998786, Note_on_c, 0, 55, 64
1, 998787, Note_on_c, 0, 76, 81
1, 998791, Note_on_c, 0, 84, 77
1, 998792, Note_on_c, 0, 53, 58
1, 998795, Control_c, 0, 64, 64
1, 998810, Control_c, 0, 64, 66
1, 998821, Note_off_c, 0, 53, 57
1, 998821, Note_off_c, 0, 64, 60
1, 998823, Note_off_c, 0, 84, 62
1, 998824, Note_off_c, 0, 55, 65
1, 998825, Control_c, 0, 64, 70
1, 998829, Note_off_c, 0, 76, 62
1, 998834, Note_off_c, 0, 88, 66
1, 998836, Note_off_c, 0, 58, 60
1, 998840, Control_c, 0, 64, 75
1, 998855, Control_c, 0, 64, 81
1, 998869, Control_c, 0, 64, 85
1, 998884, Control_c, 0, 64, 87
1, 998899, Control_c, 0, 64, 88
1, 998908, Note_on_c, 0, 63, 91
1, 998909, Note_on_c, 0, 53, 81
1, 998911, Note_on_c, 0, 89, 90
1, 998914, Note_on_c, 0, 77, 79
1, 998914, Control_c, 0, 64, 89
1, 998915, Note_on_c, 0, 86, 79
1, 998921, Note_on_c, 0, 57, 69
1, 998929, Control_c, 0, 64, 91
1, 998944, Control_c, 0, 64, 95
1, 998950, Note_off_c, 0, 57, 67
1, 998952, Note_off_c, 0, 86, 59
1, 998958, Note_off_c, 0, 63, 63
1, 998958, Control_c, 0, 64, 102
1, 998959, Note_off_c, 0, 53, 60
1, 998959, Note_off_c, 0, 89, 63
1, 998965, Note_off_c, 0, 77, 65
1, 998973, Control_c, 0, 64, 108
1, 998988, Control_c, 0, 64, 115
1, 999003, Control_c, 0, 64, 127
1, 999027, Note_on_c, 0, 61, 94
1, 999030, Note_on_c, 0, 51, 91
1, 999036, Note_on_c, 0, 90, 92
1, 999038, Note_on_c, 0, 87, 69
1, 999039, Note_on_c, 0, 78, 80
1, 999048, Note_on_c, 0, 55, 64
1, 999057, Note_on_c, 0, 86, 65
1, 999063, Note_off_c, 0, 55, 65
1, 999066, Note_off_c, 0, 87, 50
1, 999079, Note_off_c, 0, 86, 63
1, 999081, Note_off_c, 0, 61, 62
1, 999081, Note_off_c, 0, 90, 65
1, 999096, Note_off_c, 0, 78, 61
1, 999099, Note_off_c, 0, 51, 60
1, 999119, Poly_aftertouch_c, 0, 50, 127
1, 999152, Control_c, 0, 64, 107
1, 999155, Poly_aftertouch_c, 0, 50, 0
1, 999167, Control_c, 0, 64, 73
1, 999167, Note_on_c, 0, 87, 82
1, 999172, Note_on_c, 0, 91, 97
1, 999175, Note_on_c, 0, 79, 91
1, 999176, Note_on_c, 0, 55, 58
1, 999180, Note_on_c, 0, 61, 83
1, 999181, Note_on_c, 0, 51, 74
1, 999182, Control_c, 0, 64, 56
1, 999190, Note_on_c, 0, 88, 71
1, 999197, Control_c, 0, 64, 48
1, 999211, Control_c, 0, 64, 55
1, 999221, Note_off_c, 0, 88, 53
1, 999226, Control_c, 0, 64, 64
1, 999228, Note_off_c, 0, 61, 63
1, 999228, Note_off_c, 0, 79, 64
1, 999233, Note_off_c, 0, 91, 63
1, 999241, Control_c, 0, 64, 74
1, 999249, Note_off_c, 0, 87, 62
1, 999256, Control_c, 0, 64, 95
1, 999271, Control_c, 0, 64, 127
1, 999308, Note_on_c, 0, 58, 90
1, 999311, Note_off_c, 0, 55, 34
1, 999313, Note_on_c, 0, 85, 85
1, 999313, Note_on_c, 0, 80, 93
1, 999313, Note_on_c, 0, 92, 96
1, 999355, Note_off_c, 0, 51, 57
1, 999356, Note_off_c, 0, 85, 64
1, 999359, Note_off_c, 0, 80, 62
1, 999368, Note_off_c, 0, 92, 62
1, 999417, Note_off_c, 0, 58, 62
1, 999456, Note_on_c, 0, 57, 91
1, 999461, Note_on_c, 0, 85, 93
1, 999464, Note_on_c, 0, 93, 92
1, 999465, Note_on_c, 0, 81, 86
1, 999482, Note_off_c, 0, 85, 68
1, 999487, Note_off_c, 0, 57, 64
1, 999489, Note_off_c, 0, 81, 62
1, 999505, Note_off_c, 0, 93, 66
1, 999633, Control_c, 0, 64, 93
1, 999648, Control_c, 0, 64, 63
1, 999663, Control_c, 0, 64, 0
1, 999665, Note_on_c, 0, 38, 100
1, 999665, Note_on_c, 0, 98, 104
1, 999668, Note_on_c, 0, 86, 101
1, 999668, Note_on_c, 0, 26, 98
1, 999695, Note_off_c, 0, 26, 69
1, 999700, Note_off_c, 0, 98, 67
1, 999702, Note_off_c, 0, 86, 67
1, 999703, Note_off_c, 0, 38, 67
1, 999707, Control_c, 0, 64, 51
1, 999720, Note_on_c, 0, 88, 12
1, 999720, Note_off_c, 0, 88, 127
1, 999722, Control_c, 0, 64, 66
1, 999736, Control_c, 0, 64, 80
1, 999751, Control_c, 0, 64, 113
1, 999766, Control_c, 0, 64, 127
1, 999885, Note_on_c, 0, 67, 83
1, 999886, Note_on_c, 0, 57, 75
1, 999900, Note_on_c, 0, 64, 51
1, 999912, Note_off_c, 0, 57, 67
1, 999912, Note_off_c, 0, 67, 64
1, 999920, Note_off_c, 0, 64, 63
1, 1000030, Note_on_c, 0, 66, 78
1, 1000032, Note_on_c, 0, 62, 74
1, 1000035, Note_on_c, 0, 69, 80
1, 1000055, Note_off_c, 0, 66, 66
1, 1000079, Note_off_c, 0, 69, 61
1, 1000085, Note_off_c, 0, 62, 63
1, 1000189, Control_c, 0, 64, 103
1, 1000201, Note_on_c, 0, 67, 81
1, 1000203, Note_on_c, 0, 57, 80
1, 1000204, Control_c, 0, 64, 97
1, 1000205, Note_on_c, 0, 64, 79
1, 1000237, Note_off_c, 0, 64, 62
1, 1000251, Note_off_c, 0, 57, 60
1, 1000253, Note_off_c, 0, 67, 64
1, 1000263, Control_c, 0, 64, 99
1, 1000278, Control_c, 0, 64, 101
1, 1000351, Note_on_c, 0, 66, 78
1, 1000356, Note_on_c, 0, 69, 75
1, 1000359, Note_on_c, 0, 62, 71
1, 1000376, Note_off_c, 0, 66, 66
1, 1000404, Note_off_c, 0, 69, 57
1, 1000406, Note_off_c, 0, 62, 55
1, 1000440, Control_c, 0, 64, 103
1, 1000500, Note_on_c, 0, 57, 77
1, 1000503, Note_on_c, 0, 67, 77
1, 1000505, Note_on_c, 0, 64, 76
1, 1000526, Note_off_c, 0, 64, 68
1, 1000532, Note_off_c, 0, 57, 61
1, 1000547, Note_off_c, 0, 67, 61
1, 1000604, Control_c, 0, 64, 97
1, 1000619, Control_c, 0, 64, 86
1, 1000633, Control_c, 0, 64, 71
1, 1000648, Control_c, 0, 64, 54
1, 1000663, Control_c, 0, 64, 0
1, 1000696, Note_on_c, 0, 69, 96
1, 1000699, Note_on_c, 0, 62, 86
1, 1000699, Note_on_c, 0, 66, 81
1, 1000723, Control_c, 0, 64, 47
1, 1000726, Note_off_c, 0, 66, 63
1, 1000738, Control_c, 0, 64, 59
1, 1000747, Note_off_c, 0, 69, 64
1, 1000750, Note_off_c, 0, 62, 64
1, 1000753, Control_c, 0, 64, 66
1, 1000768, Control_c, 0, 64, 69
1, 1000783, Control_c, 0, 64, 69
1, 1000819, Note_on_c, 0, 64, 80
1, 1000819, Note_on_c, 0, 67, 81
1, 1000821, Note_on_c, 0, 57, 77
1, 1000848, Note_off_c, 0, 64, 64
1, 1000860, Note_off_c, 0, 57, 60
1, 1000860, Note_off_c, 0, 67, 59
1, 1000872, Control_c, 0, 64, 69
1, 1000887, Control_c, 0, 64, 68
1, 1000909, Control_c, 0, 64, 67
1, 1000924, Control_c, 0, 64, 64
1, 1000928, Note_on_c, 0, 54, 82
1, 1000935, Note_on_c, 0, 62, 73
1, 1000935, Note_on_c, 0, 66, 76
1, 1000938, Control_c, 0, 64, 59
1, 1000953, Control_c, 0, 64, 40
1, 1000968, Control_c, 0, 64, 0
1, 1000974, Note_off_c, 0, 62, 60
1, 1000979, Note_off_c, 0, 66, 58
1, 1000988, Note_off_c, 0, 54, 61
1, 1001021, Note_on_c, 0, 57, 76
1, 1001028, Note_on_c, 0, 64, 75
1, 1001028, Note_on_c, 0, 67, 77
1, 1001054, Note_off_c, 0, 64, 64
1, 1001070, Note_off_c, 0, 57, 59
1, 1001076, Note_off_c, 0, 67, 60
1, 1001152, Note_on_c, 0, 66, 96
1, 1001155, Note_on_c, 0, 62, 88
1, 1001155, Note_on_c, 0, 69, 88
1, 1001176, Control_c, 0, 64, 41
1, 1001179, Note_off_c, 0, 66, 64
1, 1001186, Note_off_c, 0, 69, 66
1, 1001190, Control_c, 0, 64, 127
1, 1001201, Note_off_c, 0, 62, 65
1, 1001368, Control_c, 0, 64, 85
1, 1001382, Control_c, 0, 64, 61
1, 1001397, Control_c, 0, 64, 0
1, 1001401, Note_on_c, 0, 57, 90
1, 1001401, Note_on_c, 0, 76, 95
1, 1001403, Note_on_c, 0, 81, 101
1, 1001404, Note_on_c, 0, 64, 87
1, 1001405, Note_on_c, 0, 62, 87
1, 1001407, Note_on_c, 0, 69, 79
1, 1001412, Note_on_c, 0, 59, 78
1, 1001421, Note_on_c, 0, 67, 57
1, 1001424, Note_off_c, 0, 69, 66
1, 1001427, Control_c, 0, 64, 34
1, 1001430, Note_off_c, 0, 76, 64
1, 1001435, Note_off_c, 0, 64, 66
1, 1001438, Note_off_c, 0, 62, 65
1, 1001442, Note_off_c, 0, 59, 66
1, 1001442, Control_c, 0, 64, 63
1, 1001444, Note_off_c, 0, 67, 40
1, 1001444, Note_off_c, 0, 81, 69
1, 1001453, Note_off_c, 0, 57, 66
1, 1001456, Control_c, 0, 64, 75
1, 1001471, Control_c, 0, 64, 87
1, 1001487, Control_c, 0, 64, 119
1, 1001502, Control_c, 0, 64, 127
1, 1001595, Note_on_c, 0, 87, 35
1, 1001632, Note_off_c, 0, 87, 44
1, 1001658, Control_c, 0, 64, 98
1, 1001673, Control_c, 0, 64, 72
1, 1001687, Control_c, 0, 64, 44
1, 1001700, Note_on_c, 0, 98, 104
1, 1001702, Note_on_c, 0, 86, 101
1, 1001702, Control_c, 0, 64, 0
1, 1001709, Note_on_c, 0, 26, 93
1, 1001711, Note_on_c, 0, 38, 92
1, 1001713, Note_on_c, 0, 40, 79
1, 1001715, Note_on_c, 0, 28, 87
1, 1001735, Note_off_c, 0, 40, 60
1, 1001737, Note_off_c, 0, 26, 68
1, 1001739, Note_off_c, 0, 38, 67
1, 1001741, Note_off_c, 0, 98, 68
1, 1001744, Note_off_c, 0, 28, 65
1, 1001746, Note_off_c, 0, 86, 64
1, 1001746, Control_c, 0, 64, 49
1, 1001761, Control_c, 0, 64, 66
1, 1001776, Control_c, 0, 64, 76
1, 1001791, Control_c, 0, 64, 88
1, 1001805, Control_c, 0, 64, 92
1, 1002068, Note_on_c, 0, 57, 67
1, 1002068, Note_on_c, 0, 67, 76
1, 1002074, Note_on_c, 0, 64, 63
1, 1002093, Note_off_c, 0, 67, 67
1, 1002094, Note_off_c, 0, 64, 66
1, 1002117, Control_c, 0, 64, 91
1, 1002134, Note_off_c, 0, 57, 60
1, 1002175, Note_on_c, 0, 62, 74
1, 1002181, Note_on_c, 0, 66, 78
1, 1002181, Note_on_c, 0, 69, 83
1, 1002205, Note_off_c, 0, 66, 66
1, 1002225, Note_off_c, 0, 62, 60
1, 1002244, Note_off_c, 0, 69, 57
1, 1002283, Note_on_c, 0, 57, 77
1, 1002288, Note_on_c, 0, 64, 74
1, 1002289, Note_on_c, 0, 67, 74
1, 1002296, Control_c, 0, 64, 91
1, 1002314, Note_off_c, 0, 64, 64
1, 1002321, Note_off_c, 0, 67, 65
1, 1002354, Control_c, 0, 64, 90
1, 1002363, Note_off_c, 0, 57, 59
1, 1002384, Control_c, 0, 64, 90
1, 1002390, Note_on_c, 0, 62, 78
1, 1002393, Note_on_c, 0, 66, 74
1, 1002405, Note_on_c, 0, 69, 71
1, 1002407, Control_c, 0, 64, 89
1, 1002422, Control_c, 0, 64, 86
1, 1002429, Note_off_c, 0, 66, 60
1, 1002436, Control_c, 0, 64, 82
1, 1002449, Note_off_c, 0, 69, 49
1, 1002451, Control_c, 0, 64, 75
1, 1002463, Note_off_c, 0, 62, 57
1, 1002466, Control_c, 0, 64, 66
1, 1002481, Control_c, 0, 64, 50
1, 1002494, Note_on_c, 0, 57, 74
1, 1002496, Control_c, 0, 64, 0
1, 1002500, Note_on_c, 0, 64, 70
1, 1002500, Note_on_c, 0, 67, 73
1, 1002524, Note_off_c, 0, 64, 67
1, 1002537, Note_off_c, 0, 67, 62
1, 1002593, Note_off_c, 0, 57, 54
1, 1002605, Note_on_c, 0, 62, 84
1, 1002607, Note_on_c, 0, 66, 83
1, 1002613, Note_on_c, 0, 69, 77
1, 1002614, Control_c, 0, 64, 48
1, 1002628, Control_c, 0, 64, 71
1, 1002643, Control_c, 0, 64, 78
1, 1002652, Note_off_c, 0, 66, 60
1, 1002658, Control_c, 0, 64, 79
1, 1002664, Note_off_c, 0, 62, 61
1, 1002666, Note_off_c, 0, 69, 59
1, 1002673, Control_c, 0, 64, 78
1, 1002702, Control_c, 0, 64, 78
1, 1002703, Note_on_c, 0, 57, 81
1, 1002710, Note_on_c, 0, 64, 76
1, 1002711, Note_on_c, 0, 67, 73
1, 1002717, Control_c, 0, 64, 77
1, 1002741, Note_off_c, 0, 64, 61
1, 1002747, Note_off_c, 0, 67, 60
1, 1002747, Control_c, 0, 64, 77
1, 1002777, Note_off_c, 0, 57, 56
1, 1002792, Control_c, 0, 64, 76
1, 1002800, Note_on_c, 0, 54, 80
1, 1002804, Note_on_c, 0, 66, 80
1, 1002807, Control_c, 0, 64, 76
1, 1002810, Note_on_c, 0, 62, 72
1, 1002822, Control_c, 0, 64, 73
1, 1002836, Control_c, 0, 64, 68
1, 1002839, Note_off_c, 0, 62, 61
1, 1002851, Note_off_c, 0, 66, 58
1, 1002851, Control_c, 0, 64, 59
1, 1002866, Control_c, 0, 64, 45
1, 1002868, Note_off_c, 0, 54, 57
1, 1002880, Control_c, 0, 64, 29
1, 1002887, Note_on_c, 0, 57, 80
1, 1002895, Note_on_c, 0, 64, 71
1, 1002895, Control_c, 0, 64, 0
1, 1002896, Note_on_c, 0, 67, 75
1, 1002925, Control_c, 0, 64, 30
1, 1002928, Note_off_c, 0, 64, 62
1, 1002940, Control_c, 0, 64, 40
1, 1002950, Note_off_c, 0, 67, 61
1, 1002954, Control_c, 0, 64, 49
1, 1002969, Note_off_c, 0, 57, 59
1, 1002969, Control_c, 0, 64, 55
1, 1002984, Control_c, 0, 64, 58
1, 1002999, Note_on_c, 0, 66, 89
1, 1003004, Note_on_c, 0, 69, 81
1, 1003006, Note_on_c, 0, 62, 84
1, 1003014, Control_c, 0, 64, 53
1, 1003029, Control_c, 0, 64, 0
1, 1003030, Note_off_c, 0, 66, 58
1, 1003032, Note_off_c, 0, 69, 64
1, 1003056, Note_off_c, 0, 62, 63
1, 1003233, Note_on_c, 0, 57, 93
1, 1003236, Note_on_c, 0, 81, 102
1, 1003236, Note_on_c, 0, 62, 87
1, 1003236, Note_on_c, 0, 69, 92
1, 1003238, Note_on_c, 0, 76, 92
1, 1003239, Note_on_c, 0, 64, 85
1, 1003241, Note_on_c, 0, 67, 92
1, 1003243, Note_on_c, 0, 59, 72
1, 1003245, Control_c, 0, 64, 43
1, 1003257, Note_off_c, 0, 76, 68
1, 1003260, Control_c, 0, 64, 108
1, 1003272, Note_off_c, 0, 81, 68
1, 1003273, Note_off_c, 0, 59, 64
1, 1003273, Note_off_c, 0, 64, 63
1, 1003275, Note_off_c, 0, 62, 62
1, 1003275, Control_c, 0, 64, 127
1, 1003276, Note_off_c, 0, 67, 65
1, 1003281, Note_off_c, 0, 69, 59
1, 1003284, Note_off_c, 0, 57, 63
1, 1003438, Control_c, 0, 64, 100
1, 1003452, Note_on_c, 0, 66, 87
1, 1003452, Control_c, 0, 64, 68
1, 1003455, Note_on_c, 0, 62, 80
1, 1003460, Note_on_c, 0, 69, 77
1, 1003467, Control_c, 0, 64, 42
1, 1003482, Control_c, 0, 64, 0
1, 1003503, Note_off_c, 0, 66, 60
1, 1003504, Note_off_c, 0, 69, 47
1, 1003519, Note_off_c, 0, 62, 61
1, 1003552, Note_on_c, 0, 64, 78
1, 1003558, Note_on_c, 0, 57, 68
1, 1003558, Note_on_c, 0, 67, 73
1, 1003591, Note_off_c, 0, 64, 63
1, 1003608, Note_off_c, 0, 57, 61
1, 1003611, Note_off_c, 0, 67, 61
1, 1003644, Note_on_c, 0, 54, 81
1, 1003653, Note_on_c, 0, 66, 76
1, 1003653, Note_on_c, 0, 62, 73
1, 1003692, Note_off_c, 0, 62, 62
1, 1003698, Note_off_c, 0, 66, 56
1, 1003704, Note_off_c, 0, 54, 63
1, 1003731, Note_on_c, 0, 57, 77
1, 1003742, Note_on_c, 0, 64, 71
1, 1003746, Note_on_c, 0, 67, 67
1, 1003778, Note_off_c, 0, 64, 63
1, 1003791, Note_off_c, 0, 57, 63
1, 1003797, Note_off_c, 0, 67, 57
1, 1003835, Note_on_c, 0, 66, 89
1, 1003837, Note_on_c, 0, 69, 83
1, 1003844, Note_on_c, 0, 62, 83
1, 1003856, Note_on_c, 0, 67, 28
1, 1003866, Note_off_c, 0, 66, 61
1, 1003877, Note_off_c, 0, 69, 65
1, 1003878, Note_off_c, 0, 67, 49
1, 1003907, Note_off_c, 0, 62, 62
1, 1004050, Note_on_c, 0, 57, 90
1, 1004050, Note_on_c, 0, 62, 95
1, 1004050, Poly_aftertouch_c, 0, 63, 0
1, 1004056, Note_on_c, 0, 76, 90
1, 1004056, Note_on_c, 0, 81, 91
1, 1004057, Note_on_c, 0, 64, 89
1, 1004059, Note_on_c, 0, 59, 85
1, 1004059, Note_on_c, 0, 69, 90
1, 1004062, Note_on_c, 0, 67, 92
1, 1004068, Control_c, 0, 64, 65
1, 1004083, Control_c, 0, 64, 127
1, 1004083, Note_on_c, 0, 79, 40
1, 1004092, Note_off_c, 0, 76, 59
1, 1004093, Note_off_c, 0, 81, 67
1, 1004095, Note_off_c, 0, 62, 66
1, 1004096, Note_off_c, 0, 64, 64
1, 1004100, Note_off_c, 0, 69, 57
1, 1004104, Note_off_c, 0, 59, 61
1, 1004106, Note_off_c, 0, 67, 65
1, 1004110, Note_off_c, 0, 57, 64
1, 1004113, Note_off_c, 0, 79, 59
1, 1004251, Note_on_c, 0, 66, 92
1, 1004253, Note_on_c, 0, 62, 91
1, 1004258, Note_on_c, 0, 69, 80
1, 1004276, Control_c, 0, 64, 96
1, 1004290, Control_c, 0, 64, 82
1, 1004295, Note_off_c, 0, 66, 60
1, 1004305, Control_c, 0, 64, 74
1, 1004320, Control_c, 0, 64, 68
1, 1004321, Note_off_c, 0, 62, 59
1, 1004322, Note_off_c, 0, 69, 0
1, 1004334, Control_c, 0, 64, 65
1, 1004336, Note_on_c, 0, 57, 90
1, 1004339, Note_on_c, 0, 64, 88
1, 1004341, Note_on_c, 0, 69, 36
1, 1004345, Note_on_c, 0, 67, 78
1, 1004349, Control_c, 0, 64, 64
1, 1004363, Note_off_c, 0, 69, 59
1, 1004387, Note_off_c, 0, 64, 62
1, 1004397, Note_off_c, 0, 57, 63
1, 1004402, Note_off_c, 0, 67, 62
1, 1004432, Note_on_c, 0, 54, 89
1, 1004436, Note_on_c, 0, 62, 84
1, 1004436, Note_on_c, 0, 66, 86
1, 1004438, Control_c, 0, 64, 63
1, 1004467, Control_c, 0, 64, 62
1, 1004482, Control_c, 0, 64, 61
1, 1004489, Note_off_c, 0, 62, 63
1, 1004497, Control_c, 0, 64, 60
1, 1004510, Note_off_c, 0, 54, 59
1, 1004512, Control_c, 0, 64, 60
1, 1004517, Note_on_c, 0, 57, 88
1, 1004521, Note_on_c, 0, 67, 79
1, 1004523, Note_on_c, 0, 64, 80
1, 1004533, Note_off_c, 0, 66, 33
1, 1004556, Control_c, 0, 64, 60
1, 1004577, Note_off_c, 0, 64, 61
1, 1004598, Note_off_c, 0, 57, 63
1, 1004611, Note_on_c, 0, 62, 99
1, 1004613, Note_on_c, 0, 66, 89
1, 1004615, Note_on_c, 0, 69, 88
1, 1004630, Control_c, 0, 64, 59
1, 1004640, Note_off_c, 0, 67, 66
1, 1004652, Control_c, 0, 64, 56
1, 1004664, Note_off_c, 0, 66, 62
1, 1004664, Note_off_c, 0, 69, 66
1, 1004667, Control_c, 0, 64, 47
1, 1004673, Note_off_c, 0, 62, 65
1, 1004683, Control_c, 0, 64, 0
1, 1004861, Control_c, 0, 64, 29
1, 1004870, Note_on_c, 0, 62, 92
1, 1004871, Note_on_c, 0, 64, 94
1, 1004873, Note_on_c, 0, 59, 85
1, 1004873, Note_on_c, 0, 76, 102
1, 1004874, Note_on_c, 0, 57, 95
1, 1004876, Control_c, 0, 64, 58
1, 1004876, Note_on_c, 0, 69, 101
1, 1004877, Note_on_c, 0, 81, 104
1, 1004878, Note_on_c, 0, 67, 93
1, 1004890, Control_c, 0, 64, 82
1, 1004905, Control_c, 0, 64, 127
1, 1004990, Note_off_c, 0, 81, 64
1, 1004995, Note_off_c, 0, 76, 64
1, 1005016, Note_off_c, 0, 64, 61
1, 1005018, Note_off_c, 0, 69, 59
1, 1005022, Note_off_c, 0, 67, 69
1, 1005028, Note_off_c, 0, 62, 61
1, 1005048, Note_off_c, 0, 59, 64
1, 1005048, Note_off_c, 0, 57, 63
1, 1005142, Control_c, 0, 64, 72
1, 1005156, Control_c, 0, 64, 0
1, 1005216, Control_c, 0, 67, 20
1, 1005230, Control_c, 0, 67, 32
1, 1005245, Control_c, 0, 67, 47
1, 1005260, Control_c, 0, 67, 61
1, 1005275, Control_c, 0, 67, 71
1, 1005290, Control_c, 0, 67, 81
1, 1005305, Control_c, 0, 67, 91
1, 1005320, Control_c, 0, 67, 108
1, 1005335, Control_c, 0, 67, 127
1, 1005668, Control_c, 0, 64, 39
1, 1005683, Control_c, 0, 64, 51
1, 1005698, Control_c, 0, 64, 58
1, 1005713, Control_c, 0, 64, 60
1, 1005720, Note_on_c, 0, 67, 46
1, 1005725, Note_on_c, 0, 57, 43
1, 1005728, Control_c, 0, 64, 61
1, 1005731, Note_on_c, 0, 64, 34
1, 1005743, Control_c, 0, 64, 63
1, 1005758, Control_c, 0, 64, 64
1, 1005773, Control_c, 0, 64, 66
1, 1005785, Note_off_c, 0, 64, 61
1, 1005787, Control_c, 0, 64, 68
1, 1005802, Control_c, 0, 64, 70
1, 1005807, Note_off_c, 0, 67, 63
1, 1005817, Control_c, 0, 64, 70
1, 1005819, Note_off_c, 0, 57, 56
1, 1005832, Control_c, 0, 64, 71
1, 1005847, Control_c, 0, 64, 71
1, 1005861, Control_c, 0, 64, 72
1, 1005876, Control_c, 0, 64, 73
1, 1005891, Control_c, 0, 64, 74
1, 1005905, Control_c, 0, 64, 74
1, 1005928, Note_on_c, 0, 66, 56
1, 1005935, Control_c, 0, 64, 75
1, 1005936, Note_on_c, 0, 62, 39
1, 1005942, Note_on_c, 0, 69, 43
1, 1005950, Control_c, 0, 64, 76
1, 1005965, Control_c, 0, 64, 77
1, 1005978, Note_off_c, 0, 62, 55
1, 1005990, Note_off_c, 0, 66, 50
1, 1005994, Control_c, 0, 64, 76
1, 1006009, Control_c, 0, 64, 73
1, 1006021, Note_off_c, 0, 69, 47
1, 1006025, Control_c, 0, 64, 69
1, 1006040, Control_c, 0, 64, 67
1, 1006069, Control_c, 0, 64, 68
1, 1006082, Note_on_c, 0, 57, 51
1, 1006084, Control_c, 0, 64, 69
1, 1006089, Note_on_c, 0, 67, 54
1, 1006092, Note_on_c, 0, 64, 47
1, 1006098, Control_c, 0, 64, 71
1, 1006113, Control_c, 0, 64, 73
1, 1006128, Control_c, 0, 64, 76
1, 1006128, Control_c, 0, 67, 125
1, 1006130, Note_off_c, 0, 64, 63
1, 1006143, Control_c, 0, 64, 78
1, 1006143, Control_c, 0, 67, 112
1, 1006156, Note_off_c, 0, 67, 53
1, 1006166, Control_c, 0, 64, 79
1, 1006166, Control_c, 0, 67, 93
1, 1006180, Control_c, 0, 64, 80
1, 1006180, Control_c, 0, 67, 77
1, 1006192, Note_off_c, 0, 57, 34
1, 1006195, Control_c, 0, 64, 81
1, 1006195, Control_c, 0, 67, 61
1, 1006210, Control_c, 0, 64, 83
1, 1006210, Control_c, 0, 67, 45
1, 1006225, Control_c, 0, 64, 86
1, 1006225, Control_c, 0, 67, 26
1, 1006230, Note_on_c, 0, 62, 63
1, 1006236, Note_on_c, 0, 66, 57
1, 1006239, Control_c, 0, 64, 88
1, 1006239, Control_c, 0, 67, 0
1, 1006241, Note_on_c, 0, 69, 52
1, 1006254, Control_c, 0, 64, 88
1, 1006269, Control_c, 0, 64, 89
1, 1006274, Note_off_c, 0, 62, 56
1, 1006278, Note_off_c, 0, 69, 62
1, 1006281, Note_off_c, 0, 66, 58
1, 1006285, Control_c, 0, 64, 90
1, 1006300, Control_c, 0, 64, 91
1, 1006315, Control_c, 0, 64, 91
1, 1006368, Note_on_c, 0, 57, 56
1, 1006369, Note_on_c, 0, 64, 56
1, 1006371, Note_on_c, 0, 67, 60
1, 1006374, Control_c, 0, 64, 92
1, 1006389, Control_c, 0, 64, 94
1, 1006403, Control_c, 0, 64, 94
1, 1006411, Note_off_c, 0, 64, 61
1, 1006417, Note_off_c, 0, 57, 57
1, 1006433, Control_c, 0, 64, 86
1, 1006439, Note_off_c, 0, 67, 62
1, 1006448, Control_c, 0, 64, 72
1, 1006463, Control_c, 0, 64, 60
1, 1006477, Control_c, 0, 64, 50
1, 1006492, Control_c, 0, 64, 54
1, 1006504, Note_on_c, 0, 66, 69
1, 1006506, Note_on_c, 0, 62, 73
1, 1006507, Control_c, 0, 64, 61
1, 1006509, Note_on_c, 0, 69, 66
1, 1006521, Control_c, 0, 64, 68
1, 1006533, Note_off_c, 0, 62, 66
1, 1006536, Control_c, 0, 64, 79
1, 1006537, Note_off_c, 0, 66, 63
1, 1006544, Note_off_c, 0, 69, 65
1, 1006551, Control_c, 0, 64, 99
1, 1006566, Control_c, 0, 64, 127
1, 1006679, Note_on_c, 0, 69, 68
1, 1006682, Note_on_c, 0, 81, 72
1, 1006682, Note_on_c, 0, 57, 80
1, 1006721, Note_off_c, 0, 57, 60
1, 1006742, Note_off_c, 0, 69, 59
1, 1006759, Note_off_c, 0, 81, 59
1, 1006840, Note_on_c, 0, 50, 84
1, 1006843, Note_on_c, 0, 62, 74
1, 1006843, Note_on_c, 0, 78, 70
1, 1006850, Note_on_c, 0, 69, 69
1, 1006865, Note_off_c, 0, 62, 67
1, 1006886, Note_off_c, 0, 50, 63
1, 1006926, Note_off_c, 0, 69, 53
1, 1006929, Poly_aftertouch_c, 0, 81, 127
1, 1006953, Note_off_c, 0, 78, 60
1, 1006955, Poly_aftertouch_c, 0, 81, 0
1, 1006995, Note_on_c, 0, 45, 89
1, 1007001, Note_on_c, 0, 57, 79
1, 1007007, Note_on_c, 0, 67, 74
1, 1007010, Note_on_c, 0, 76, 76
1, 1007013, Note_on_c, 0, 79, 76
1, 1007029, Note_off_c, 0, 57, 68
1, 1007046, Note_off_c, 0, 45, 64
1, 1007071, Note_off_c, 0, 67, 61
1, 1007080, Note_off_c, 0, 79, 64
1, 1007116, Note_off_c, 0, 76, 42
1, 1007152, Note_on_c, 0, 38, 91
1, 1007153, Note_on_c, 0, 50, 91
1, 1007162, Note_on_c, 0, 69, 79
1, 1007168, Note_on_c, 0, 81, 76
1, 1007168, Note_on_c, 0, 74, 72
1, 1007169, Note_on_c, 0, 78, 71
1, 1007196, Note_off_c, 0, 50, 60
1, 1007201, Note_off_c, 0, 38, 64
1, 1007227, Note_off_c, 0, 81, 60
1, 1007231, Note_off_c, 0, 69, 57
1, 1007235, Note_off_c, 0, 74, 61
1, 1007266, Note_off_c, 0, 78, 62
1, 1007323, Note_on_c, 0, 33, 95
1, 1007324, Note_on_c, 0, 45, 91
1, 1007329, Note_on_c, 0, 67, 84
1, 1007334, Note_on_c, 0, 79, 84
1, 1007335, Note_on_c, 0, 76, 77
1, 1007362, Note_off_c, 0, 45, 61
1, 1007368, Note_off_c, 0, 33, 64
1, 1007419, Note_off_c, 0, 67, 54
1, 1007428, Note_off_c, 0, 79, 60
1, 1007531, Note_off_c, 0, 76, 31
1, 1007537, Control_c, 0, 64, 79
1, 1007552, Control_c, 0, 64, 53
1, 1007553, Note_on_c, 0, 69, 99
1, 1007555, Note_on_c, 0, 38, 105
1, 1007557, Note_on_c, 0, 74, 87
1, 1007558, Note_on_c, 0, 81, 92
1, 1007558, Note_on_c, 0, 26, 109
1, 1007563, Note_on_c, 0, 78, 83
1, 1007567, Control_c, 0, 64, 0
1, 1007600, Note_on_c, 0, 27, 41
1, 1007600, Note_off_c, 0, 27, 127
1, 1007604, Note_off_c, 0, 26, 64
1, 1007612, Note_off_c, 0, 38, 64
1, 1007626, Control_c, 0, 64, 46
1, 1007641, Control_c, 0, 64, 72
1, 1007651, Poly_aftertouch_c, 0, 27, 0
1, 1007663, Control_c, 0, 64, 127
1, 1007725, Note_off_c, 0, 69, 53
1, 1007732, Note_off_c, 0, 81, 54
1, 1007797, Note_off_c, 0, 74, 48
1, 1007806, Note_off_c, 0, 78, 53
1, 1007871, Note_on_c, 0, 69, 81
1, 1007876, Note_on_c, 0, 74, 63
1, 1007877, Note_on_c, 0, 78, 69
1, 1007878, Note_on_c, 0, 81, 78
1, 1007904, Note_on_c, 0, 54, 61
1, 1007907, Note_on_c, 0, 62, 47
1, 1007955, Note_off_c, 0, 81, 59
1, 1007971, Note_off_c, 0, 69, 58
1, 1007973, Note_off_c, 0, 74, 61
1, 1007985, Note_off_c, 0, 78, 60
1, 1008040, Note_off_c, 0, 54, 54
1, 1008067, Note_on_c, 0, 81, 87
1, 1008068, Note_on_c, 0, 66, 66
1, 1008070, Note_on_c, 0, 69, 85
1, 1008073, Note_on_c, 0, 74, 81
1, 1008074, Note_on_c, 0, 57, 58
1, 1008075, Note_on_c, 0, 78, 80
1, 1008084, Note_off_c, 0, 62, 37
1, 1008151, Note_off_c, 0, 81, 58
1, 1008152, Note_off_c, 0, 69, 57
1, 1008158, Note_off_c, 0, 74, 60
1, 1008166, Note_off_c, 0, 78, 62
1, 1008170, Note_off_c, 0, 66, 55
1, 1008199, Note_off_c, 0, 57, 37
1, 1008234, Note_on_c, 0, 62, 73
1, 1008240, Note_on_c, 0, 81, 89
1, 1008241, Note_on_c, 0, 69, 84
1, 1008242, Note_on_c, 0, 54, 69
1, 1008244, Note_on_c, 0, 74, 78
1, 1008246, Note_on_c, 0, 78, 78
1, 1008321, Note_off_c, 0, 81, 60
1, 1008328, Note_off_c, 0, 69, 59
1, 1008342, Note_off_c, 0, 74, 59
1, 1008346, Note_off_c, 0, 78, 62
1, 1008359, Note_off_c, 0, 54, 52
1, 1008424, Note_on_c, 0, 66, 68
1, 1008427, Note_on_c, 0, 57, 67
1, 1008427, Note_on_c, 0, 81, 83
1, 1008429, Note_on_c, 0, 69, 77
1, 1008429, Note_on_c, 0, 74, 77
1, 1008430, Note_on_c, 0, 78, 74
1, 1008476, Note_off_c, 0, 62, 35
1, 1008489, Note_off_c, 0, 81, 61
1, 1008490, Note_off_c, 0, 69, 57
1, 1008495, Note_off_c, 0, 74, 60
1, 1008497, Note_off_c, 0, 78, 60
1, 1008530, Note_off_c, 0, 66, 50
1, 1008551, Note_off_c, 0, 57, 58
1, 1008566, Note_on_c, 0, 54, 67
1, 1008570, Note_on_c, 0, 74, 75
1, 1008571, Note_on_c, 0, 62, 65
1, 1008574, Note_on_c, 0, 81, 81
1, 1008575, Note_on_c, 0, 78, 75
1, 1008576, Note_on_c, 0, 69, 73
1, 1008624, Note_off_c, 0, 74, 62
1, 1008629, Note_off_c, 0, 69, 59
1, 1008632, Note_off_c, 0, 78, 63
1, 1008633, Note_off_c, 0, 81, 62
1, 1008699, Note_on_c, 0, 57, 67
1, 1008700, Note_off_c, 0, 54, 35
1, 1008711, Note_on_c, 0, 81, 79
1, 1008712, Note_on_c, 0, 69, 72
1, 1008713, Note_on_c, 0, 74, 78
1, 1008715, Note_on_c, 0, 78, 78
1, 1008719, Note_on_c, 0, 66, 60
1, 1008724, Note_off_c, 0, 62, 58
1, 1008767, Note_off_c, 0, 81, 62
1, 1008768, Note_off_c, 0, 74, 61
1, 1008769, Note_off_c, 0, 69, 61
1, 1008772, Note_off_c, 0, 78, 63
1, 1008797, Note_off_c, 0, 66, 50
1, 1008841, Note_on_c, 0, 54, 66
1, 1008843, Note_on_c, 0, 62, 66
1, 1008850, Note_on_c, 0, 69, 70
1, 1008850, Note_on_c, 0, 81, 80
1, 1008854, Note_on_c, 0, 74, 75
1, 1008855, Note_on_c, 0, 78, 77
1, 1008892, Note_off_c, 0, 57, 32
1, 1008904, Note_off_c, 0, 74, 60
1, 1008907, Note_off_c, 0, 81, 60
1, 1008908, Note_off_c, 0, 69, 61
1, 1008911, Note_off_c, 0, 78, 63
1, 1008981, Note_on_c, 0, 66, 64
1, 1008983, Note_on_c, 0, 57, 66
1, 1008988, Note_on_c, 0, 81, 79
1, 1008989, Note_on_c, 0, 69, 69
1, 1008989, Note_on_c, 0, 78, 76
1, 1008990, Note_on_c, 0, 74, 73
1, 1009006, Note_off_c, 0, 54, 57
1, 1009023, Note_off_c, 0, 62, 57
1, 1009034, Note_off_c, 0, 74, 57
1, 1009044, Note_off_c, 0, 69, 61
1, 1009047, Note_off_c, 0, 78, 62
1, 1009047, Note_off_c, 0, 81, 62
1, 1009066, Note_off_c, 0, 66, 51
1, 1009122, Note_on_c, 0, 54, 72
1, 1009123, Note_on_c, 0, 69, 67
1, 1009124, Note_on_c, 0, 62, 79
1, 1009126, Note_on_c, 0, 81, 74
1, 1009128, Note_on_c, 0, 78, 77
1, 1009132, Note_on_c, 0, 74, 71
1, 1009151, Note_off_c, 0, 57, 40
1, 1009185, Note_off_c, 0, 74, 60
1, 1009189, Note_off_c, 0, 69, 61
1, 1009190, Note_off_c, 0, 81, 61
1, 1009194, Note_off_c, 0, 78, 62
1, 1009269, Note_on_c, 0, 57, 76
1, 1009273, Note_on_c, 0, 69, 67
1, 1009273, Note_on_c, 0, 81, 76
1, 1009275, Note_on_c, 0, 74, 76
1, 1009275, Note_on_c, 0, 66, 64
1, 1009275, Note_on_c, 0, 78, 77
1, 1009290, Note_off_c, 0, 54, 53
1, 1009305, Note_off_c, 0, 62, 55
1, 1009316, Note_off_c, 0, 69, 57
1, 1009324, Note_off_c, 0, 74, 60
1, 1009329, Note_off_c, 0, 78, 62
1, 1009332, Note_off_c, 0, 81, 61
1, 1009359, Note_off_c, 0, 66, 54
1, 1009401, Note_on_c, 0, 62, 74
1, 1009404, Note_on_c, 0, 54, 74
1, 1009408, Note_on_c, 0, 78, 78
1, 1009409, Note_on_c, 0, 74, 76
1, 1009410, Note_on_c, 0, 81, 76
1, 1009414, Note_on_c, 0, 69, 70
1, 1009437, Note_off_c, 0, 57, 35
1, 1009463, Note_off_c, 0, 69, 59
1, 1009472, Note_off_c, 0, 81, 59
1, 1009478, Note_off_c, 0, 74, 60
1, 1009487, Note_off_c, 0, 78, 61
1, 1009517, Control_c, 0, 64, 86
1, 1009532, Control_c, 0, 64, 70
1, 1009535, Note_off_c, 0, 54, 51
1, 1009547, Control_c, 0, 64, 63
1, 1009547, Note_off_c, 0, 62, 60
1, 1009552, Note_on_c, 0, 57, 74
1, 1009560, Note_on_c, 0, 66, 76
1, 1009561, Note_on_c, 0, 81, 94
1, 1009561, Control_c, 0, 64, 64
1, 1009568, Note_on_c, 0, 74, 73
1, 1009570, Note_on_c, 0, 69, 71
1, 1009576, Control_c, 0, 64, 71
1, 1009589, Note_off_c, 0, 74, 71
1, 1009591, Control_c, 0, 64, 89
1, 1009595, Note_off_c, 0, 69, 68
1, 1009604, Note_off_c, 0, 57, 62
1, 1009606, Control_c, 0, 64, 127
1, 1009616, Note_off_c, 0, 81, 62
1, 1009628, Note_off_c, 0, 66, 59
1, 1009734, Note_on_c, 0, 78, 82
1, 1009737, Note_on_c, 0, 66, 69
1, 1009738, Note_on_c, 0, 74, 75
1, 1009740, Note_on_c, 0, 57, 63
1, 1009784, Note_on_c, 0, 81, 90
1, 1009788, Note_off_c, 0, 78, 62
1, 1009793, Note_off_c, 0, 74, 61
1, 1009849, Note_on_c, 0, 78, 88
1, 1009857, Note_on_c, 0, 69, 67
1, 1009858, Note_on_c, 0, 74, 65
1, 1009868, Note_off_c, 0, 66, 60
1, 1009872, Note_on_c, 0, 62, 51
1, 1009874, Note_off_c, 0, 81, 64
1, 1009892, Note_off_c, 0, 57, 59
1, 1009902, Note_off_c, 0, 74, 63
1, 1009931, Note_off_c, 0, 78, 61
1, 1009975, Note_off_c, 0, 69, 47
1, 1009997, Note_on_c, 0, 66, 70
1, 1010000, Note_on_c, 0, 81, 95
1, 1010007, Note_on_c, 0, 57, 71
1, 1010022, Note_off_c, 0, 62, 49
1, 1010055, Note_off_c, 0, 81, 65
1, 1010144, Note_off_c, 0, 57, 45
1, 1010161, Note_on_c, 0, 62, 61
1, 1010163, Note_on_c, 0, 69, 66
1, 1010163, Note_on_c, 0, 78, 83
1, 1010167, Note_on_c, 0, 74, 74
1, 1010213, Note_off_c, 0, 74, 62
1, 1010220, Note_off_c, 0, 66, 35
1, 1010221, Note_off_c, 0, 78, 65
1, 1010222, Note_on_c, 0, 81, 89
1, 1010252, Note_off_c, 0, 69, 53
1, 1010290, Note_on_c, 0, 78, 82
1, 1010292, Note_on_c, 0, 74, 75
1, 1010297, Note_on_c, 0, 66, 74
1, 1010303, Note_on_c, 0, 57, 65
1, 1010314, Note_off_c, 0, 81, 63
1, 1010315, Note_off_c, 0, 62, 57
1, 1010348, Note_off_c, 0, 74, 60
1, 1010372, Note_off_c, 0, 78, 62
1, 1010432, Note_on_c, 0, 69, 76
1, 1010432, Note_on_c, 0, 81, 96
1, 1010433, Note_on_c, 0, 62, 70
1, 1010444, Note_off_c, 0, 57, 47
1, 1010461, Note_off_c, 0, 66, 56
1, 1010497, Note_off_c, 0, 81, 61
1, 1010540, Note_off_c, 0, 69, 52
1, 1010586, Note_on_c, 0, 66, 77
1, 1010592, Note_on_c, 0, 78, 83
1, 1010593, Note_on_c, 0, 74, 80
1, 1010601, Note_on_c, 0, 57, 71
1, 1010611, Note_off_c, 0, 62, 31
1, 1010669, Note_on_c, 0, 81, 91
1, 1010673, Note_off_c, 0, 78, 62
1, 1010681, Note_off_c, 0, 74, 57
1, 1010741, Note_on_c, 0, 78, 81
1, 1010743, Note_on_c, 0, 74, 75
1, 1010754, Note_on_c, 0, 62, 63
1, 1010759, Note_on_c, 0, 69, 71
1, 1010767, Note_off_c, 0, 81, 61
1, 1010778, Note_off_c, 0, 57, 43
1, 1010802, Note_off_c, 0, 66, 59
1, 1010825, Note_off_c, 0, 74, 56
1, 1010861, Note_off_c, 0, 69, 55
1, 1010899, Note_on_c, 0, 66, 79
1, 1010901, Note_on_c, 0, 81, 97
1, 1010903, Note_off_c, 0, 78, 52
1, 1010910, Note_on_c, 0, 57, 72
1, 1010915, Note_off_c, 0, 62, 60
1, 1011010, Note_off_c, 0, 81, 56
1, 1011073, Note_off_c, 0, 57, 59
1, 1011079, Note_on_c, 0, 69, 71
1, 1011079, Note_on_c, 0, 78, 82
1, 1011080, Note_on_c, 0, 62, 64
1, 1011085, Note_on_c, 0, 74, 74
1, 1011132, Note_off_c, 0, 66, 41
1, 1011150, Note_on_c, 0, 81, 89
1, 1011153, Note_off_c, 0, 78, 64
1, 1011168, Note_off_c, 0, 69, 55
1, 1011170, Note_off_c, 0, 74, 63
1, 1011257, Note_off_c, 0, 62, 27
1, 1011264, Note_on_c, 0, 66, 74
1, 1011270, Note_on_c, 0, 78, 90
1, 1011273, Note_on_c, 0, 57, 70
1, 1011275, Note_on_c, 0, 74, 88
1, 1011279, Note_off_c, 0, 81, 57
1, 1011317, Note_off_c, 0, 74, 64
1, 1011323, Note_off_c, 0, 78, 65
1, 1011326, Note_off_c, 0, 66, 62
1, 1011331, Note_off_c, 0, 57, 58
1, 1011597, Note_on_c, 0, 69, 95
1, 1011600, Note_on_c, 0, 81, 94
1, 1011600, Note_on_c, 0, 74, 92
1, 1011601, Note_on_c, 0, 66, 90
1, 1011602, Note_on_c, 0, 78, 91
1, 1011603, Note_on_c, 0, 62, 85
1, 1011667, Note_off_c, 0, 66, 64
1, 1011670, Note_off_c, 0, 62, 63
1, 1012719, Control_c, 0, 64, 107
1, 1012734, Control_c, 0, 64, 62
1, 1012748, Note_off_c, 0, 81, 51
1, 1012749, Control_c, 0, 64, 0
1, 1012752, Note_off_c, 0, 69, 52
1, 1012757, Note_on_c, 0, 62, 88
1, 1012760, Note_on_c, 0, 50, 85
1, 1012762, Note_on_c, 0, 57, 83
1, 1012768, Note_on_c, 0, 54, 80
1, 1012789, Note_off_c, 0, 74, 58
1, 1012808, Control_c, 0, 64, 99
1, 1012816, Note_off_c, 0, 78, 58
1, 1012823, Control_c, 0, 64, 127
1, 1012849, Note_off_c, 0, 50, 60
1, 1012849, Note_off_c, 0, 57, 64
1, 1012860, Note_off_c, 0, 54, 63
1, 1012899, Note_off_c, 0, 62, 61
1, 1013128, Note_on_c, 0, 62, 86
1, 1013131, Note_on_c, 0, 66, 87
1, 1013132, Note_on_c, 0, 69, 94
1, 1013136, Note_on_c, 0, 81, 91
1, 1013138, Note_on_c, 0, 78, 87
1, 1013139, Note_on_c, 0, 74, 86
1, 1013177, Note_off_c, 0, 62, 61
1, 1013183, Note_off_c, 0, 66, 63
1, 1013398, Note_off_c, 0, 74, 48
1, 1013410, Note_off_c, 0, 81, 56
1, 1013412, Note_off_c, 0, 69, 49
1, 1013415, Note_off_c, 0, 78, 54
1, 1013586, Note_on_c, 0, 62, 87
1, 1013588, Note_on_c, 0, 69, 101
1, 1013589, Note_on_c, 0, 66, 89
1, 1013590, Note_on_c, 0, 81, 96
1, 1013591, Note_on_c, 0, 74, 92
1, 1013594, Note_on_c, 0, 78, 89
1, 1013625, Note_off_c, 0, 62, 66
1, 1013630, Note_off_c, 0, 66, 61
1, 1014566, Control_c, 0, 64, 108
1, 1014578, Note_on_c, 0, 50, 104
1, 1014579, Note_on_c, 0, 38, 94
1, 1014581, Control_c, 0, 64, 57
1, 1014593, Note_off_c, 0, 69, 54
1, 1014595, Control_c, 0, 64, 0
1, 1014625, Note_off_c, 0, 74, 59
1, 1014625, Control_c, 0, 64, 45
1, 1014630, Note_off_c, 0, 81, 55
1, 1014640, Control_c, 0, 64, 78
1, 1014655, Control_c, 0, 64, 127
1, 1014675, Note_off_c, 0, 38, 62
1, 1014694, Note_off_c, 0, 78, 57
1, 1014704, Note_off_c, 0, 50, 63
1, 1015270, Note_on_c, 0, 74, 96
1, 1015270, Note_on_c, 0, 69, 93
1, 1015270, Note_on_c, 0, 86, 92
1, 1015272, Note_on_c, 0, 78, 91
1, 1015274, Note_on_c, 0, 57, 84
1, 1015276, Note_on_c, 0, 66, 82
1, 1015276, Note_on_c, 0, 81, 88
1, 1015279, Note_on_c, 0, 62, 82
1, 1016263, Note_off_c, 0, 86, 36
1, 1016366, Note_off_c, 0, 81, 51
1, 1016439, Note_off_c, 0, 74, 47
1, 1016442, Note_off_c, 0, 78, 55
1, 1017469, Note_on_c, 0, 26, 104
1, 1021919, Note_off_c, 0, 26, 67
1, 1021999, Note_off_c, 0, 62, 55
1, 1022035, Note_off_c, 0, 57, 58
1, 1022044, Note_off_c, 0, 66, 58
1, 1022047, Note_off_c, 0, 69, 54
1, 1022187, Control_c, 0, 64, 56
1, 1022202, Control_c, 0, 64, 0
1, 1022202, End_track
0, 0, End_of_file
