0, 0, Header, 0, 1, 384
1, 0, Start_track
1, 0, Title_t, "Sonata Hob. XVI/42--Inna Faliks "
1, 0, Text_t, "2009 Piano-e-Competition audition round"
1, 0, Text_t, "captured January 2009"
1, 0, Text_t, "http://www.piano-e-competition.com/"
1, 0, Text_t, "File processed for distribution by software from Zenph Studios, Inc., http://www.zenph.com"
1, 0, Instrument_name_t, "Yamaha Disklavier Pro Mark IV concert grand piano, model DCFIIISM4PRO"
1, 0, Sequencer_specific, 39, 67, 113, 0, 1, 0, 1, 0, 83, 111, 110, 97, 116, 97, 72, 111, 98, 46, 88, 86, 73, 47, 52, 50, 73, 110, 110, 97, 32, 70, 97, 108, 105, 107, 115, 32, 32, 32, 32, 32
1, 0, Sequencer_specific, 6, 67, 113, 0, 0, 0, 69
1, 0, System_exclusive, 21, 67, 113, 126, 21, 0, 2, 2, 0, 3, 14, 1, 4, 1, 13, 13, 10, 11, 9, 2, 7, 247
1, 0, Sequencer_specific, 5, 67, 123, 12, 2, 1
1, 0, Tempo, 512820
1, 0, Time_signature, 4, 2, 24, 8
1, 0, System_exclusive, 5, 126, 127, 9, 1, 247
1, 1, System_exclusive, 8, 67, 16, 76, 0, 0, 126, 0, 247
1, 2, System_exclusive, 8, 67, 16, 76, 8, 9, 7, 1, 247
1, 3, Control_c, 0, 0, 0
1, 3, Control_c, 1, 0, 0
1, 3, Control_c, 2, 0, 0
1, 3, Control_c, 3, 0, 0
1, 3, Control_c, 4, 0, 0
1, 3, Control_c, 5, 0, 0
1, 3, Control_c, 6, 0, 0
1, 3, Control_c, 7, 0, 0
1, 3, Control_c, 8, 0, 0
1, 3, Control_c, 9, 0, 127
1, 3, Control_c, 10, 0, 0
1, 3, Control_c, 11, 0, 0
1, 3, Control_c, 12, 0, 0
1, 3, Control_c, 13, 0, 0
1, 3, Control_c, 14, 0, 0
1, 3, Control_c, 15, 0, 0
1, 4, Control_c, 0, 32, 0
1, 4, Control_c, 1, 32, 0
1, 4, Control_c, 2, 32, 0
1, 4, Control_c, 3, 32, 0
1, 4, Control_c, 4, 32, 0
1, 4, Control_c, 5, 32, 0
1, 4, Control_c, 6, 32, 0
1, 4, Control_c, 7, 32, 0
1, 4, Control_c, 8, 32, 0
1, 4, Control_c, 9, 32, 0
1, 4, Control_c, 10, 32, 0
1, 4, Control_c, 11, 32, 0
1, 4, Control_c, 12, 32, 0
1, 4, Control_c, 13, 32, 0
1, 4, Control_c, 14, 32, 0
1, 4, Control_c, 15, 32, 0
1, 5, Program_c, 0, 0
1, 5, Program_c, 1, 0
1, 5, Program_c, 2, 0
1, 5, Program_c, 3, 0
1, 5, Program_c, 4, 0
1, 5, Program_c, 5, 0
1, 5, Program_c, 6, 0
1, 5, Program_c, 7, 0
1, 5, Program_c, 8, 0
1, 5, Program_c, 9, 0
1, 5, Program_c, 10, 0
1, 5, Program_c, 11, 0
1, 5, Program_c, 12, 0
1, 5, Program_c, 13, 0
1, 5, Program_c, 14, 0
1, 5, Program_c, 15, 0
1, 6, Control_c, 0, 7, 100
1, 6, Control_c, 1, 7, 100
1, 6, Control_c, 2, 7, 100
1, 6, Control_c, 3, 7, 100
1, 6, Control_c, 4, 7, 100
1, 6, Control_c, 5, 7, 100
1, 6, Control_c, 6, 7, 100
1, 6, Control_c, 7, 7, 100
1, 6, Control_c, 8, 7, 100
1, 6, Control_c, 9, 7, 100
1, 6, Control_c, 10, 7, 100
1, 6, Control_c, 11, 7, 100
1, 6, Control_c, 12, 7, 100
1, 6, Control_c, 13, 7, 100
1, 6, Control_c, 14, 7, 100
1, 6, Control_c, 15, 7, 100
1, 117, Control_c, 0, 64, 15
1, 117, Control_c, 0, 67, 15
1, 229, Control_c, 0, 64, 31
1, 229, Control_c, 0, 67, 31
1, 341, Control_c, 0, 64, 46
1, 341, Control_c, 0, 67, 46
1, 452, Control_c, 0, 64, 63
1, 452, Control_c, 0, 67, 63
1, 564, Control_c, 0, 64, 77
1, 564, Control_c, 0, 67, 77
1, 676, Control_c, 0, 64, 94
1, 676, Control_c, 0, 67, 94
1, 787, Control_c, 0, 64, 108
1, 787, Control_c, 0, 67, 108
1, 899, Control_c, 0, 64, 127
1, 899, Control_c, 0, 67, 127
1, 1133, Note_on_c, 0, 69, 49
1, 1457, Note_on_c, 0, 74, 55
1, 1462, Note_on_c, 0, 62, 36
1, 1469, Note_on_c, 0, 66, 37
1, 1505, Note_off_c, 0, 69, 53
1, 1532, Control_c, 0, 64, 84
1, 1547, Control_c, 0, 64, 69
1, 1562, Control_c, 0, 64, 60
1, 1585, Control_c, 0, 64, 46
1, 1599, Control_c, 0, 64, 23
1, 1614, Control_c, 0, 64, 13
1, 1629, Control_c, 0, 64, 22
1, 1643, Control_c, 0, 64, 42
1, 1658, Control_c, 0, 64, 58
1, 1673, Control_c, 0, 64, 74
1, 1688, Control_c, 0, 64, 91
1, 1703, Control_c, 0, 64, 99
1, 1718, Control_c, 0, 64, 109
1, 1732, Control_c, 0, 64, 127
1, 1797, Note_off_c, 0, 74, 36
1, 1836, Note_off_c, 0, 62, 38
1, 1846, Note_off_c, 0, 66, 35
1, 2238, Note_on_c, 0, 74, 43
1, 2334, Note_off_c, 0, 74, 57
1, 2489, Note_on_c, 0, 74, 42
1, 2524, Note_on_c, 0, 62, 28
1, 2527, Note_on_c, 0, 66, 25
1, 2727, Note_off_c, 0, 66, 32
1, 2748, Note_off_c, 0, 62, 36
1, 2822, Note_off_c, 0, 74, 36
1, 3289, Control_c, 0, 64, 114
1, 3303, Control_c, 0, 64, 103
1, 3318, Control_c, 0, 64, 96
1, 3333, Control_c, 0, 64, 89
1, 3349, Control_c, 0, 64, 84
1, 3364, Control_c, 0, 64, 80
1, 3379, Control_c, 0, 64, 78
1, 3393, Control_c, 0, 64, 75
1, 3408, Control_c, 0, 64, 72
1, 3423, Control_c, 0, 64, 68
1, 3438, Control_c, 0, 64, 65
1, 3453, Control_c, 0, 64, 63
1, 3467, Control_c, 0, 64, 61
1, 3482, Control_c, 0, 64, 58
1, 3497, Control_c, 0, 64, 55
1, 3512, Control_c, 0, 64, 51
1, 3526, Control_c, 0, 64, 48
1, 3541, Control_c, 0, 64, 44
1, 3556, Control_c, 0, 64, 40
1, 3571, Control_c, 0, 64, 36
1, 3586, Control_c, 0, 64, 29
1, 3601, Control_c, 0, 64, 21
1, 3615, Control_c, 0, 64, 0
1, 3978, Note_on_c, 0, 69, 54
1, 4088, Note_on_c, 0, 74, 70
1, 4117, Note_off_c, 0, 69, 52
1, 4186, Control_c, 0, 67, 103
1, 4201, Control_c, 0, 67, 67
1, 4205, Note_on_c, 0, 78, 83
1, 4215, Control_c, 0, 67, 20
1, 4230, Control_c, 0, 67, 0
1, 4233, Note_off_c, 0, 74, 64
1, 4376, Note_on_c, 0, 76, 64
1, 4409, Note_on_c, 0, 62, 35
1, 4410, Note_on_c, 0, 67, 32
1, 4460, Note_off_c, 0, 78, 64
1, 4816, Control_c, 0, 64, 24
1, 4831, Control_c, 0, 64, 36
1, 4846, Control_c, 0, 64, 46
1, 4860, Control_c, 0, 64, 56
1, 4875, Control_c, 0, 64, 61
1, 4875, Control_c, 0, 67, 9
1, 4890, Control_c, 0, 64, 63
1, 4890, Control_c, 0, 67, 15
1, 4905, Control_c, 0, 64, 64
1, 4905, Control_c, 0, 67, 26
1, 4920, Control_c, 0, 64, 67
1, 4920, Control_c, 0, 67, 42
1, 4935, Control_c, 0, 64, 69
1, 4935, Control_c, 0, 67, 62
1, 4951, Control_c, 0, 64, 72
1, 4951, Control_c, 0, 67, 84
1, 4965, Control_c, 0, 64, 75
1, 4965, Control_c, 0, 67, 100
1, 4980, Control_c, 0, 64, 77
1, 4980, Control_c, 0, 67, 114
1, 4995, Control_c, 0, 64, 79
1, 4995, Control_c, 0, 67, 126
1, 5010, Control_c, 0, 64, 79
1, 5010, Control_c, 0, 67, 127
1, 5025, Control_c, 0, 64, 80
1, 5213, Note_on_c, 0, 73, 51
1, 5238, Note_off_c, 0, 76, 61
1, 5291, Control_c, 0, 64, 79
1, 5343, Control_c, 0, 64, 79
1, 5358, Control_c, 0, 64, 78
1, 5387, Control_c, 0, 64, 78
1, 5402, Control_c, 0, 64, 77
1, 5417, Control_c, 0, 64, 77
1, 5432, Control_c, 0, 64, 76
1, 5446, Control_c, 0, 64, 75
1, 5461, Control_c, 0, 64, 74
1, 5476, Control_c, 0, 64, 73
1, 5485, Note_on_c, 0, 74, 48
1, 5490, Control_c, 0, 64, 71
1, 5505, Control_c, 0, 64, 68
1, 5508, Note_on_c, 0, 66, 32
1, 5520, Control_c, 0, 64, 64
1, 5535, Control_c, 0, 64, 58
1, 5550, Control_c, 0, 64, 44
1, 5559, Note_off_c, 0, 73, 35
1, 5564, Note_off_c, 0, 66, 0
1, 5564, Note_on_c, 0, 66, 6
1, 5565, Control_c, 0, 64, 24
1, 5580, Control_c, 0, 64, 0
1, 5645, Note_off_c, 0, 67, 57
1, 5951, Control_c, 0, 64, 28
1, 5966, Control_c, 0, 64, 43
1, 5981, Control_c, 0, 64, 57
1, 5995, Control_c, 0, 64, 64
1, 6010, Control_c, 0, 64, 68
1, 6010, Control_c, 0, 67, 120
1, 6025, Control_c, 0, 64, 71
1, 6025, Control_c, 0, 67, 100
1, 6040, Control_c, 0, 64, 75
1, 6040, Control_c, 0, 67, 69
1, 6055, Control_c, 0, 64, 83
1, 6055, Control_c, 0, 67, 39
1, 6077, Control_c, 0, 64, 93
1, 6077, Control_c, 0, 67, 8
1, 6092, Control_c, 0, 64, 101
1, 6092, Control_c, 0, 67, 0
1, 6107, Control_c, 0, 64, 117
1, 6121, Control_c, 0, 64, 127
1, 6151, Note_off_c, 0, 62, 39
1, 6173, Note_off_c, 0, 74, 38
1, 6201, Note_off_c, 0, 66, 29
1, 6417, Control_c, 0, 64, 104
1, 6432, Control_c, 0, 64, 96
1, 6447, Control_c, 0, 64, 89
1, 6462, Control_c, 0, 64, 83
1, 6477, Control_c, 0, 64, 78
1, 6492, Control_c, 0, 64, 75
1, 6507, Control_c, 0, 64, 72
1, 6521, Control_c, 0, 64, 70
1, 6537, Control_c, 0, 64, 67
1, 6552, Control_c, 0, 64, 64
1, 6567, Control_c, 0, 64, 62
1, 6581, Control_c, 0, 64, 57
1, 6596, Control_c, 0, 64, 52
1, 6611, Control_c, 0, 64, 45
1, 6626, Control_c, 0, 64, 41
1, 6641, Control_c, 0, 64, 37
1, 6655, Control_c, 0, 64, 30
1, 6670, Control_c, 0, 64, 18
1, 6685, Control_c, 0, 64, 0
1, 6835, Note_on_c, 0, 69, 59
1, 6936, Note_on_c, 0, 74, 72
1, 6939, Note_off_c, 0, 69, 63
1, 7037, Note_on_c, 0, 78, 85
1, 7063, Note_off_c, 0, 74, 64
1, 7142, Note_on_c, 0, 81, 86
1, 7163, Note_off_c, 0, 78, 65
1, 7230, Note_off_c, 0, 81, 59
1, 7309, Note_on_c, 0, 81, 79
1, 7337, Note_on_c, 0, 71, 43
1, 7434, Control_c, 0, 64, 10
1, 7449, Control_c, 0, 64, 31
1, 7464, Control_c, 0, 64, 46
1, 7479, Control_c, 0, 64, 57
1, 7480, Note_off_c, 0, 71, 53
1, 7494, Control_c, 0, 64, 63
1, 7508, Control_c, 0, 64, 65
1, 7523, Control_c, 0, 64, 66
1, 7538, Control_c, 0, 64, 68
1, 7560, Control_c, 0, 64, 71
1, 7575, Control_c, 0, 64, 73
1, 7590, Control_c, 0, 64, 74
1, 7605, Control_c, 0, 64, 75
1, 7620, Control_c, 0, 64, 75
1, 7679, Control_c, 0, 64, 75
1, 7693, Control_c, 0, 64, 74
1, 7708, Control_c, 0, 64, 73
1, 7723, Control_c, 0, 64, 71
1, 7738, Control_c, 0, 64, 69
1, 7753, Control_c, 0, 64, 66
1, 7768, Control_c, 0, 64, 63
1, 7783, Control_c, 0, 64, 60
1, 7798, Control_c, 0, 64, 55
1, 7813, Control_c, 0, 64, 47
1, 7827, Control_c, 0, 64, 36
1, 7835, Note_on_c, 0, 79, 57
1, 7842, Control_c, 0, 64, 25
1, 7857, Control_c, 0, 64, 15
1, 7872, Control_c, 0, 64, 0
1, 7875, Note_off_c, 0, 81, 60
1, 7931, Note_off_c, 0, 79, 59
1, 8213, Note_on_c, 0, 78, 76
1, 8231, Note_on_c, 0, 69, 51
1, 8267, Note_off_c, 0, 69, 50
1, 8274, Note_off_c, 0, 78, 64
1, 8331, Note_on_c, 0, 78, 76
1, 8364, Note_on_c, 0, 67, 44
1, 8471, Control_c, 0, 64, 15
1, 8471, Control_c, 0, 67, 9
1, 8486, Control_c, 0, 64, 34
1, 8486, Control_c, 0, 67, 13
1, 8494, Note_off_c, 0, 67, 50
1, 8501, Control_c, 0, 64, 47
1, 8501, Control_c, 0, 67, 18
1, 8516, Control_c, 0, 64, 58
1, 8516, Control_c, 0, 67, 23
1, 8531, Control_c, 0, 64, 63
1, 8531, Control_c, 0, 67, 27
1, 8546, Control_c, 0, 64, 64
1, 8546, Control_c, 0, 67, 32
1, 8561, Control_c, 0, 64, 64
1, 8561, Control_c, 0, 67, 39
1, 8576, Control_c, 0, 64, 65
1, 8576, Control_c, 0, 67, 48
1, 8590, Control_c, 0, 64, 66
1, 8590, Control_c, 0, 67, 56
1, 8605, Control_c, 0, 64, 68
1, 8605, Control_c, 0, 67, 64
1, 8620, Control_c, 0, 64, 69
1, 8620, Control_c, 0, 67, 71
1, 8634, Control_c, 0, 67, 76
1, 8649, Control_c, 0, 67, 80
1, 8664, Control_c, 0, 67, 84
1, 8679, Control_c, 0, 67, 87
1, 8694, Control_c, 0, 67, 89
1, 8708, Control_c, 0, 64, 68
1, 8708, Control_c, 0, 67, 92
1, 8723, Control_c, 0, 64, 67
1, 8723, Control_c, 0, 67, 94
1, 8738, Control_c, 0, 64, 66
1, 8738, Control_c, 0, 67, 97
1, 8753, Control_c, 0, 64, 65
1, 8753, Control_c, 0, 67, 99
1, 8768, Control_c, 0, 64, 63
1, 8768, Control_c, 0, 67, 101
1, 8782, Control_c, 0, 64, 62
1, 8782, Control_c, 0, 67, 103
1, 8797, Control_c, 0, 64, 60
1, 8797, Control_c, 0, 67, 104
1, 8812, Control_c, 0, 64, 57
1, 8812, Control_c, 0, 67, 104
1, 8827, Control_c, 0, 64, 53
1, 8827, Control_c, 0, 67, 105
1, 8841, Control_c, 0, 64, 48
1, 8856, Control_c, 0, 64, 43
1, 8864, Note_on_c, 0, 76, 57
1, 8871, Control_c, 0, 64, 39
1, 8871, Control_c, 0, 67, 105
1, 8886, Control_c, 0, 64, 33
1, 8898, Note_off_c, 0, 78, 66
1, 8901, Control_c, 0, 64, 22
1, 8915, Control_c, 0, 64, 0
1, 8988, Note_off_c, 0, 76, 64
1, 9288, Note_on_c, 0, 74, 68
1, 9292, Note_on_c, 0, 66, 51
1, 9333, Note_off_c, 0, 74, 65
1, 9345, Note_off_c, 0, 66, 50
1, 9409, Note_on_c, 0, 74, 58
1, 9420, Note_on_c, 0, 64, 38
1, 9464, Note_off_c, 0, 64, 0
1, 9464, Note_on_c, 0, 64, 3
1, 9502, Control_c, 0, 67, 106
1, 9531, Control_c, 0, 67, 106
1, 9546, Control_c, 0, 67, 108
1, 9561, Control_c, 0, 67, 113
1, 9576, Control_c, 0, 67, 120
1, 9591, Control_c, 0, 64, 22
1, 9591, Control_c, 0, 67, 124
1, 9598, Note_off_c, 0, 64, 45
1, 9605, Control_c, 0, 64, 31
1, 9605, Control_c, 0, 67, 125
1, 9620, Control_c, 0, 64, 38
1, 9620, Control_c, 0, 67, 126
1, 9635, Control_c, 0, 64, 45
1, 9635, Control_c, 0, 67, 127
1, 9650, Control_c, 0, 64, 51
1, 9664, Control_c, 0, 64, 54
1, 9679, Control_c, 0, 64, 55
1, 9694, Control_c, 0, 64, 56
1, 9784, Control_c, 0, 64, 55
1, 9799, Control_c, 0, 64, 54
1, 9822, Control_c, 0, 64, 53
1, 9836, Control_c, 0, 64, 51
1, 9851, Control_c, 0, 64, 49
1, 9866, Control_c, 0, 64, 46
1, 9881, Control_c, 0, 64, 45
1, 9895, Control_c, 0, 64, 43
1, 9910, Control_c, 0, 64, 39
1, 9925, Control_c, 0, 64, 34
1, 9940, Control_c, 0, 64, 28
1, 9955, Control_c, 0, 64, 20
1, 9957, Note_on_c, 0, 73, 52
1, 9969, Control_c, 0, 64, 14
1, 9972, Note_off_c, 0, 74, 60
1, 9984, Control_c, 0, 64, 0
1, 10069, Note_off_c, 0, 73, 63
1, 10424, Note_on_c, 0, 74, 66
1, 10433, Note_on_c, 0, 62, 48
1, 10477, Note_off_c, 0, 62, 52
1, 10593, Note_on_c, 0, 78, 66
1, 10621, Note_on_c, 0, 62, 26
1, 10631, Note_on_c, 0, 57, 28
1, 10647, Note_off_c, 0, 74, 55
1, 11192, Control_c, 0, 64, 22
1, 11208, Control_c, 0, 64, 40
1, 11222, Control_c, 0, 64, 52
1, 11237, Control_c, 0, 64, 61
1, 11252, Control_c, 0, 64, 64
1, 11267, Control_c, 0, 64, 65
1, 11282, Control_c, 0, 64, 66
1, 11303, Control_c, 0, 64, 68
1, 11318, Control_c, 0, 64, 71
1, 11334, Control_c, 0, 64, 73
1, 11349, Control_c, 0, 64, 74
1, 11364, Control_c, 0, 64, 75
1, 11379, Control_c, 0, 64, 76
1, 11675, Control_c, 0, 64, 75
1, 11720, Control_c, 0, 64, 75
1, 11734, Control_c, 0, 64, 74
1, 11749, Control_c, 0, 64, 74
1, 11764, Control_c, 0, 64, 73
1, 11779, Control_c, 0, 64, 73
1, 11794, Control_c, 0, 64, 72
1, 11808, Control_c, 0, 64, 71
1, 11823, Control_c, 0, 64, 69
1, 11838, Control_c, 0, 64, 66
1, 11852, Control_c, 0, 64, 64
1, 11858, Note_on_c, 0, 76, 47
1, 11867, Control_c, 0, 64, 61
1, 11874, Note_on_c, 0, 61, 27
1, 11882, Control_c, 0, 64, 57
1, 11897, Control_c, 0, 64, 50
1, 11912, Control_c, 0, 64, 38
1, 11914, Note_off_c, 0, 76, 0
1, 11914, Note_on_c, 0, 76, 16
1, 11926, Control_c, 0, 64, 24
1, 11941, Control_c, 0, 64, 8
1, 11951, Note_off_c, 0, 78, 55
1, 11956, Control_c, 0, 64, 0
1, 12010, Note_off_c, 0, 62, 48
1, 12320, Control_c, 0, 64, 12
1, 12335, Control_c, 0, 64, 31
1, 12349, Control_c, 0, 64, 46
1, 12364, Control_c, 0, 64, 58
1, 12379, Control_c, 0, 64, 65
1, 12394, Control_c, 0, 64, 69
1, 12408, Control_c, 0, 64, 71
1, 12423, Control_c, 0, 64, 73
1, 12438, Control_c, 0, 64, 78
1, 12453, Control_c, 0, 64, 84
1, 12468, Control_c, 0, 64, 89
1, 12482, Control_c, 0, 64, 93
1, 12497, Control_c, 0, 64, 95
1, 12512, Control_c, 0, 64, 97
1, 12512, Control_c, 0, 67, 123
1, 12527, Control_c, 0, 64, 98
1, 12527, Control_c, 0, 67, 103
1, 12542, Control_c, 0, 64, 99
1, 12542, Control_c, 0, 67, 76
1, 12556, Control_c, 0, 64, 99
1, 12556, Control_c, 0, 67, 42
1, 12569, Note_off_c, 0, 57, 31
1, 12571, Control_c, 0, 64, 100
1, 12571, Control_c, 0, 67, 0
1, 12624, Note_off_c, 0, 61, 35
1, 12678, Note_off_c, 0, 76, 32
1, 12815, Control_c, 0, 64, 99
1, 12830, Control_c, 0, 64, 99
1, 12845, Control_c, 0, 64, 98
1, 12875, Control_c, 0, 64, 98
1, 12889, Control_c, 0, 64, 97
1, 12935, Control_c, 0, 64, 97
1, 12994, Control_c, 0, 64, 96
1, 13068, Control_c, 0, 64, 96
1, 13083, Control_c, 0, 64, 95
1, 13127, Control_c, 0, 64, 95
1, 13142, Control_c, 0, 64, 94
1, 13157, Control_c, 0, 64, 94
1, 13172, Control_c, 0, 64, 93
1, 13187, Control_c, 0, 64, 92
1, 13202, Control_c, 0, 64, 91
1, 13217, Control_c, 0, 64, 90
1, 13231, Control_c, 0, 64, 88
1, 13246, Control_c, 0, 64, 86
1, 13261, Control_c, 0, 64, 83
1, 13276, Control_c, 0, 64, 77
1, 13291, Control_c, 0, 64, 69
1, 13305, Control_c, 0, 64, 60
1, 13320, Control_c, 0, 64, 42
1, 13335, Control_c, 0, 64, 0
1, 13423, Control_c, 0, 64, 9
1, 13438, Control_c, 0, 64, 34
1, 13453, Control_c, 0, 64, 52
1, 13468, Control_c, 0, 64, 65
1, 13483, Control_c, 0, 64, 79
1, 13497, Control_c, 0, 64, 82
1, 13512, Control_c, 0, 64, 83
1, 13527, Control_c, 0, 64, 85
1, 13535, Note_on_c, 0, 74, 76
1, 13542, Control_c, 0, 64, 91
1, 13564, Control_c, 0, 64, 98
1, 13579, Control_c, 0, 64, 106
1, 13594, Control_c, 0, 64, 114
1, 13609, Control_c, 0, 64, 117
1, 13620, Note_on_c, 0, 78, 86
1, 13638, Control_c, 0, 64, 119
1, 13644, Note_off_c, 0, 74, 56
1, 13695, Note_on_c, 0, 81, 88
1, 13728, Note_off_c, 0, 78, 64
1, 13802, Control_c, 0, 64, 117
1, 13817, Control_c, 0, 64, 115
1, 13832, Control_c, 0, 64, 113
1, 13847, Control_c, 0, 64, 108
1, 13859, Note_on_c, 0, 50, 56
1, 13861, Note_on_c, 0, 54, 56
1, 13861, Control_c, 0, 64, 100
1, 13864, Note_on_c, 0, 57, 56
1, 13866, Note_on_c, 0, 86, 91
1, 13876, Control_c, 0, 64, 88
1, 13891, Control_c, 0, 64, 74
1, 13894, Note_off_c, 0, 81, 62
1, 13906, Control_c, 0, 64, 63
1, 13920, Control_c, 0, 64, 50
1, 13935, Control_c, 0, 64, 9
1, 13950, Control_c, 0, 64, 0
1, 13995, Control_c, 0, 64, 26
1, 14010, Control_c, 0, 64, 48
1, 14025, Control_c, 0, 64, 63
1, 14040, Control_c, 0, 64, 77
1, 14054, Control_c, 0, 64, 81
1, 14069, Control_c, 0, 64, 81
1, 14084, Control_c, 0, 64, 82
1, 14099, Control_c, 0, 64, 82
1, 14114, Control_c, 0, 64, 83
1, 14143, Control_c, 0, 64, 83
1, 14172, Control_c, 0, 64, 84
1, 14173, Note_off_c, 0, 86, 59
1, 14183, Note_on_c, 0, 88, 72
1, 14240, Note_off_c, 0, 88, 66
1, 14248, Note_on_c, 0, 86, 77
1, 14277, Control_c, 0, 64, 83
1, 14292, Control_c, 0, 64, 81
1, 14314, Control_c, 0, 64, 77
1, 14320, Note_off_c, 0, 86, 63
1, 14322, Note_on_c, 0, 85, 87
1, 14329, Control_c, 0, 64, 70
1, 14344, Control_c, 0, 64, 64
1, 14359, Control_c, 0, 64, 55
1, 14374, Control_c, 0, 64, 38
1, 14388, Control_c, 0, 64, 0
1, 14390, Note_on_c, 0, 86, 82
1, 14421, Note_off_c, 0, 85, 61
1, 14522, Control_c, 0, 64, 34
1, 14537, Control_c, 0, 64, 55
1, 14552, Control_c, 0, 64, 69
1, 14567, Control_c, 0, 64, 84
1, 14582, Control_c, 0, 64, 88
1, 14597, Control_c, 0, 64, 93
1, 14612, Control_c, 0, 64, 108
1, 14626, Control_c, 0, 64, 127
1, 14676, Note_off_c, 0, 54, 63
1, 14808, Note_off_c, 0, 57, 54
1, 14943, Note_on_c, 0, 88, 85
1, 15059, Note_off_c, 0, 86, 33
1, 15091, Control_c, 0, 64, 108
1, 15106, Control_c, 0, 64, 95
1, 15107, Note_on_c, 0, 85, 72
1, 15121, Control_c, 0, 64, 83
1, 15136, Control_c, 0, 64, 76
1, 15143, Note_on_c, 0, 55, 43
1, 15145, Note_on_c, 0, 61, 40
1, 15147, Note_on_c, 0, 57, 39
1, 15150, Control_c, 0, 64, 69
1, 15157, Note_on_c, 0, 52, 39
1, 15160, Note_off_c, 0, 88, 64
1, 15165, Control_c, 0, 64, 63
1, 15180, Control_c, 0, 64, 55
1, 15195, Control_c, 0, 64, 36
1, 15209, Control_c, 0, 64, 0
1, 15298, Control_c, 0, 67, 9
1, 15313, Control_c, 0, 67, 11
1, 15323, Note_off_c, 0, 50, 36
1, 15329, Control_c, 0, 67, 14
1, 15344, Control_c, 0, 67, 18
1, 15359, Control_c, 0, 67, 22
1, 15373, Control_c, 0, 67, 27
1, 15388, Control_c, 0, 67, 33
1, 15403, Control_c, 0, 67, 39
1, 15418, Control_c, 0, 67, 45
1, 15432, Control_c, 0, 67, 53
1, 15447, Control_c, 0, 64, 19
1, 15447, Control_c, 0, 67, 60
1, 15462, Control_c, 0, 64, 35
1, 15462, Control_c, 0, 67, 68
1, 15477, Control_c, 0, 64, 48
1, 15477, Control_c, 0, 67, 74
1, 15492, Control_c, 0, 64, 61
1, 15492, Control_c, 0, 67, 81
1, 15506, Control_c, 0, 64, 66
1, 15506, Control_c, 0, 67, 87
1, 15521, Control_c, 0, 64, 69
1, 15521, Control_c, 0, 67, 95
1, 15536, Control_c, 0, 64, 71
1, 15536, Control_c, 0, 67, 103
1, 15551, Control_c, 0, 64, 74
1, 15551, Control_c, 0, 67, 110
1, 15552, Note_off_c, 0, 85, 63
1, 15566, Control_c, 0, 64, 80
1, 15566, Control_c, 0, 67, 118
1, 15581, Control_c, 0, 64, 85
1, 15581, Control_c, 0, 67, 125
1, 15596, Control_c, 0, 64, 91
1, 15596, Control_c, 0, 67, 127
1, 15611, Control_c, 0, 64, 96
1, 15625, Control_c, 0, 64, 102
1, 15640, Control_c, 0, 64, 106
1, 15655, Control_c, 0, 64, 108
1, 15670, Control_c, 0, 64, 108
1, 15672, Note_off_c, 0, 52, 39
1, 15685, Note_off_c, 0, 55, 40
1, 15685, Control_c, 0, 64, 109
1, 15689, Note_off_c, 0, 61, 53
1, 15699, Control_c, 0, 64, 113
1, 15714, Control_c, 0, 64, 117
1, 15729, Control_c, 0, 64, 122
1, 15744, Control_c, 0, 64, 127
1, 15807, Note_off_c, 0, 57, 37
1, 16003, Control_c, 0, 64, 119
1, 16017, Control_c, 0, 64, 117
1, 16032, Control_c, 0, 64, 114
1, 16047, Control_c, 0, 64, 110
1, 16062, Control_c, 0, 64, 106
1, 16077, Control_c, 0, 64, 103
1, 16092, Control_c, 0, 64, 101
1, 16106, Control_c, 0, 64, 99
1, 16122, Control_c, 0, 64, 96
1, 16137, Control_c, 0, 64, 90
1, 16152, Control_c, 0, 64, 84
1, 16167, Control_c, 0, 64, 77
1, 16182, Control_c, 0, 64, 72
1, 16188, Note_on_c, 0, 81, 52
1, 16196, Control_c, 0, 64, 66
1, 16211, Control_c, 0, 64, 60
1, 16226, Control_c, 0, 64, 47
1, 16241, Control_c, 0, 64, 12
1, 16255, Control_c, 0, 64, 0
1, 16329, Control_c, 0, 64, 22
1, 16344, Control_c, 0, 64, 37
1, 16359, Control_c, 0, 64, 53
1, 16374, Control_c, 0, 64, 62
1, 16389, Control_c, 0, 64, 66
1, 16403, Note_off_c, 0, 81, 61
1, 16403, Control_c, 0, 64, 67
1, 16418, Control_c, 0, 64, 68
1, 16424, Note_on_c, 0, 83, 55
1, 16433, Control_c, 0, 64, 69
1, 16448, Control_c, 0, 64, 72
1, 16463, Control_c, 0, 64, 75
1, 16478, Control_c, 0, 64, 77
1, 16488, Note_off_c, 0, 83, 65
1, 16490, Note_on_c, 0, 81, 63
1, 16493, Control_c, 0, 64, 77
1, 16555, Note_off_c, 0, 81, 64
1, 16562, Note_on_c, 0, 80, 78
1, 16573, Control_c, 0, 64, 74
1, 16588, Control_c, 0, 64, 69
1, 16603, Control_c, 0, 64, 62
1, 16618, Control_c, 0, 64, 51
1, 16629, Note_off_c, 0, 80, 63
1, 16633, Control_c, 0, 64, 27
1, 16642, Note_on_c, 0, 81, 76
1, 16648, Control_c, 0, 64, 0
1, 16663, Control_c, 0, 67, 116
1, 16678, Control_c, 0, 67, 97
1, 16693, Control_c, 0, 67, 67
1, 16708, Control_c, 0, 67, 26
1, 16722, Control_c, 0, 64, 17
1, 16722, Control_c, 0, 67, 0
1, 16737, Control_c, 0, 64, 36
1, 16752, Control_c, 0, 64, 53
1, 16767, Control_c, 0, 64, 64
1, 16781, Control_c, 0, 64, 71
1, 16796, Control_c, 0, 64, 73
1, 16811, Control_c, 0, 64, 74
1, 16826, Control_c, 0, 64, 78
1, 16840, Control_c, 0, 64, 84
1, 16855, Control_c, 0, 64, 89
1, 16870, Control_c, 0, 64, 93
1, 16885, Control_c, 0, 64, 96
1, 16900, Control_c, 0, 64, 98
1, 16916, Control_c, 0, 64, 99
1, 16931, Control_c, 0, 64, 100
1, 16945, Control_c, 0, 64, 101
1, 16967, Note_on_c, 0, 83, 74
1, 17015, Note_off_c, 0, 81, 61
1, 17034, Control_c, 0, 64, 100
1, 17049, Control_c, 0, 64, 98
1, 17064, Control_c, 0, 64, 94
1, 17078, Control_c, 0, 64, 91
1, 17093, Control_c, 0, 64, 89
1, 17108, Control_c, 0, 64, 85
1, 17123, Control_c, 0, 64, 77
1, 17138, Control_c, 0, 64, 70
1, 17152, Control_c, 0, 64, 64
1, 17167, Control_c, 0, 64, 58
1, 17168, Note_on_c, 0, 86, 70
1, 17182, Control_c, 0, 64, 47
1, 17190, Note_on_c, 0, 79, 36
1, 17191, Note_on_c, 0, 76, 39
1, 17196, Control_c, 0, 64, 32
1, 17211, Control_c, 0, 64, 0
1, 17213, Note_off_c, 0, 83, 64
1, 17271, Control_c, 0, 67, 10
1, 17286, Control_c, 0, 67, 15
1, 17308, Control_c, 0, 67, 22
1, 17323, Control_c, 0, 67, 28
1, 17338, Control_c, 0, 67, 34
1, 17352, Control_c, 0, 67, 42
1, 17367, Control_c, 0, 67, 49
1, 17382, Control_c, 0, 67, 56
1, 17396, Control_c, 0, 67, 62
1, 17411, Control_c, 0, 67, 67
1, 17426, Control_c, 0, 67, 71
1, 17441, Control_c, 0, 67, 74
1, 17452, Note_on_c, 0, 84, 61
1, 17456, Control_c, 0, 67, 77
1, 17471, Control_c, 0, 67, 79
1, 17486, Control_c, 0, 67, 82
1, 17488, Note_off_c, 0, 86, 61
1, 17500, Control_c, 0, 67, 85
1, 17515, Control_c, 0, 67, 87
1, 17530, Control_c, 0, 67, 89
1, 17545, Control_c, 0, 67, 90
1, 17550, Note_off_c, 0, 84, 60
1, 17590, Control_c, 0, 67, 91
1, 17634, Control_c, 0, 67, 92
1, 17649, Control_c, 0, 67, 94
1, 17664, Control_c, 0, 67, 96
1, 17678, Control_c, 0, 67, 98
1, 17692, Note_on_c, 0, 84, 61
1, 17693, Control_c, 0, 67, 100
1, 17708, Control_c, 0, 67, 103
1, 17724, Control_c, 0, 67, 108
1, 17739, Control_c, 0, 67, 113
1, 17754, Control_c, 0, 67, 121
1, 17768, Control_c, 0, 67, 127
1, 17842, Control_c, 0, 64, 26
1, 17857, Control_c, 0, 64, 41
1, 17872, Control_c, 0, 64, 53
1, 17886, Control_c, 0, 64, 61
1, 17901, Control_c, 0, 64, 63
1, 17916, Control_c, 0, 64, 64
1, 17931, Control_c, 0, 64, 67
1, 17947, Control_c, 0, 64, 71
1, 17962, Control_c, 0, 64, 74
1, 17976, Control_c, 0, 64, 77
1, 17991, Control_c, 0, 64, 80
1, 18006, Control_c, 0, 64, 84
1, 18020, Control_c, 0, 64, 88
1, 18035, Control_c, 0, 64, 91
1, 18058, Control_c, 0, 64, 91
1, 18131, Note_on_c, 0, 83, 71
1, 18168, Note_off_c, 0, 84, 62
1, 18210, Note_off_c, 0, 83, 62
1, 18250, Control_c, 0, 64, 91
1, 18265, Control_c, 0, 64, 90
1, 18280, Control_c, 0, 64, 89
1, 18294, Control_c, 0, 64, 87
1, 18309, Control_c, 0, 64, 85
1, 18320, Note_on_c, 0, 83, 54
1, 18324, Control_c, 0, 64, 82
1, 18339, Control_c, 0, 64, 79
1, 18353, Note_on_c, 0, 75, 33
1, 18353, Control_c, 0, 64, 76
1, 18359, Note_on_c, 0, 78, 43
1, 18368, Control_c, 0, 64, 73
1, 18383, Control_c, 0, 64, 69
1, 18398, Control_c, 0, 64, 64
1, 18413, Note_off_c, 0, 78, 0
1, 18413, Note_on_c, 0, 78, 11
1, 18413, Control_c, 0, 64, 59
1, 18428, Control_c, 0, 64, 49
1, 18442, Control_c, 0, 64, 35
1, 18457, Control_c, 0, 64, 0
1, 18495, Note_off_c, 0, 76, 62
1, 18536, Note_off_c, 0, 79, 43
1, 18850, Control_c, 0, 64, 17
1, 18865, Control_c, 0, 64, 36
1, 18880, Control_c, 0, 64, 51
1, 18895, Control_c, 0, 64, 63
1, 18910, Control_c, 0, 64, 74
1, 18924, Control_c, 0, 64, 81
1, 18939, Control_c, 0, 64, 86
1, 18954, Control_c, 0, 64, 93
1, 18968, Control_c, 0, 64, 110
1, 18983, Control_c, 0, 64, 127
1, 19084, Note_off_c, 0, 75, 40
1, 19088, Note_off_c, 0, 78, 58
1, 19325, Control_c, 0, 64, 99
1, 19340, Control_c, 0, 64, 87
1, 19355, Control_c, 0, 64, 76
1, 19369, Control_c, 0, 64, 67
1, 19384, Control_c, 0, 64, 59
1, 19399, Control_c, 0, 64, 46
1, 19414, Control_c, 0, 64, 8
1, 19429, Control_c, 0, 64, 0
1, 19668, Note_on_c, 0, 81, 52
1, 19731, Note_off_c, 0, 83, 64
1, 19929, Note_on_c, 0, 84, 59
1, 19957, Note_on_c, 0, 75, 26
1, 19969, Control_c, 0, 64, 16
1, 19984, Control_c, 0, 64, 30
1, 19990, Note_off_c, 0, 81, 56
1, 19998, Control_c, 0, 64, 39
1, 20013, Control_c, 0, 64, 48
1, 20028, Control_c, 0, 64, 57
1, 20043, Control_c, 0, 64, 62
1, 20058, Control_c, 0, 64, 64
1, 20073, Control_c, 0, 64, 65
1, 20088, Control_c, 0, 64, 67
1, 20103, Control_c, 0, 64, 70
1, 20118, Control_c, 0, 64, 73
1, 20133, Control_c, 0, 64, 76
1, 20148, Control_c, 0, 64, 78
1, 20150, Note_on_c, 0, 81, 77
1, 20162, Control_c, 0, 64, 79
1, 20177, Control_c, 0, 64, 80
1, 20192, Control_c, 0, 64, 81
1, 20207, Note_off_c, 0, 84, 62
1, 20267, Control_c, 0, 64, 80
1, 20279, Note_off_c, 0, 81, 58
1, 20282, Control_c, 0, 64, 79
1, 20303, Control_c, 0, 64, 77
1, 20318, Control_c, 0, 64, 74
1, 20333, Control_c, 0, 64, 70
1, 20348, Control_c, 0, 64, 67
1, 20363, Control_c, 0, 64, 63
1, 20377, Control_c, 0, 64, 58
1, 20392, Control_c, 0, 64, 50
1, 20405, Note_on_c, 0, 81, 62
1, 20407, Note_on_c, 0, 76, 45
1, 20407, Control_c, 0, 64, 37
1, 20422, Control_c, 0, 64, 20
1, 20437, Control_c, 0, 64, 0
1, 20468, Note_off_c, 0, 75, 56
1, 20534, Note_off_c, 0, 76, 51
1, 20626, Note_on_c, 0, 79, 69
1, 20638, Note_off_c, 0, 81, 62
1, 20690, Note_off_c, 0, 79, 62
1, 20854, Note_on_c, 0, 83, 56
1, 20854, Note_on_c, 0, 73, 35
1, 20911, Note_off_c, 0, 73, 56
1, 21060, Note_on_c, 0, 79, 67
1, 21088, Note_off_c, 0, 83, 64
1, 21149, Note_off_c, 0, 79, 59
1, 21293, Note_on_c, 0, 79, 53
1, 21309, Note_on_c, 0, 74, 35
1, 21423, Note_off_c, 0, 74, 65
1, 21505, Note_on_c, 0, 78, 55
1, 21527, Note_off_c, 0, 79, 58
1, 21577, Note_off_c, 0, 78, 66
1, 21724, Note_on_c, 0, 81, 57
1, 21724, Note_on_c, 0, 66, 41
1, 21805, Note_off_c, 0, 66, 41
1, 21862, Control_c, 0, 67, 118
1, 21876, Control_c, 0, 67, 95
1, 21891, Control_c, 0, 67, 67
1, 21906, Control_c, 0, 67, 32
1, 21921, Control_c, 0, 67, 0
1, 21936, Note_on_c, 0, 78, 65
1, 21960, Note_off_c, 0, 81, 61
1, 22037, Note_off_c, 0, 78, 64
1, 22149, Note_on_c, 0, 78, 73
1, 22154, Note_on_c, 0, 67, 43
1, 22276, Note_off_c, 0, 67, 41
1, 22356, Note_on_c, 0, 76, 74
1, 22371, Note_off_c, 0, 78, 66
1, 22434, Note_off_c, 0, 76, 60
1, 22603, Note_on_c, 0, 77, 63
1, 22632, Note_on_c, 0, 68, 36
1, 22698, Control_c, 0, 67, 9
1, 22713, Control_c, 0, 67, 11
1, 22727, Note_off_c, 0, 68, 53
1, 22728, Control_c, 0, 67, 14
1, 22742, Control_c, 0, 67, 17
1, 22757, Control_c, 0, 67, 21
1, 22772, Control_c, 0, 67, 26
1, 22787, Control_c, 0, 67, 34
1, 22802, Control_c, 0, 67, 40
1, 22816, Control_c, 0, 67, 45
1, 22831, Control_c, 0, 67, 49
1, 22846, Control_c, 0, 67, 53
1, 22855, Note_on_c, 0, 74, 56
1, 22861, Control_c, 0, 67, 58
1, 22876, Control_c, 0, 67, 64
1, 22889, Note_off_c, 0, 77, 62
1, 22890, Control_c, 0, 67, 70
1, 22905, Control_c, 0, 67, 75
1, 22920, Control_c, 0, 67, 80
1, 22935, Control_c, 0, 67, 84
1, 22950, Control_c, 0, 67, 89
1, 22964, Control_c, 0, 67, 94
1, 22979, Control_c, 0, 67, 98
1, 22994, Control_c, 0, 67, 104
1, 23009, Control_c, 0, 67, 107
1, 23024, Control_c, 0, 67, 110
1, 23035, Note_off_c, 0, 74, 65
1, 23039, Control_c, 0, 67, 113
1, 23054, Control_c, 0, 67, 116
1, 23069, Control_c, 0, 67, 119
1, 23083, Control_c, 0, 67, 121
1, 23098, Control_c, 0, 67, 122
1, 23113, Control_c, 0, 67, 123
1, 23157, Control_c, 0, 67, 123
1, 23169, Note_on_c, 0, 74, 53
1, 23172, Control_c, 0, 67, 125
1, 23184, Note_on_c, 0, 69, 35
1, 23187, Control_c, 0, 67, 127
1, 23787, Control_c, 0, 64, 22
1, 23802, Control_c, 0, 64, 36
1, 23817, Control_c, 0, 64, 49
1, 23832, Control_c, 0, 64, 57
1, 23847, Control_c, 0, 64, 62
1, 23862, Control_c, 0, 64, 63
1, 23877, Control_c, 0, 64, 64
1, 23892, Control_c, 0, 64, 65
1, 23906, Control_c, 0, 64, 68
1, 23921, Control_c, 0, 64, 69
1, 23936, Control_c, 0, 64, 71
1, 23951, Control_c, 0, 64, 71
1, 23965, Control_c, 0, 64, 72
1, 23980, Control_c, 0, 64, 72
1, 24025, Control_c, 0, 64, 73
1, 24210, Control_c, 0, 64, 72
1, 24255, Control_c, 0, 64, 72
1, 24270, Control_c, 0, 64, 71
1, 24285, Control_c, 0, 64, 70
1, 24300, Control_c, 0, 64, 69
1, 24315, Control_c, 0, 64, 68
1, 24320, Note_on_c, 0, 57, 32
1, 24326, Note_on_c, 0, 73, 39
1, 24330, Control_c, 0, 64, 66
1, 24344, Control_c, 0, 64, 64
1, 24359, Control_c, 0, 64, 62
1, 24374, Control_c, 0, 64, 59
1, 24388, Control_c, 0, 64, 53
1, 24398, Note_off_c, 0, 73, 0
1, 24398, Note_on_c, 0, 73, 3
1, 24403, Control_c, 0, 64, 44
1, 24418, Control_c, 0, 64, 31
1, 24419, Note_off_c, 0, 74, 45
1, 24433, Control_c, 0, 64, 11
1, 24448, Control_c, 0, 64, 0
1, 24536, Note_off_c, 0, 69, 38
1, 24655, Control_c, 0, 64, 14
1, 24670, Control_c, 0, 64, 34
1, 24685, Control_c, 0, 64, 46
1, 24700, Control_c, 0, 64, 57
1, 24714, Control_c, 0, 64, 63
1, 24729, Control_c, 0, 64, 67
1, 24744, Control_c, 0, 64, 69
1, 24759, Control_c, 0, 64, 74
1, 24774, Control_c, 0, 64, 82
1, 24796, Control_c, 0, 64, 93
1, 24811, Control_c, 0, 64, 106
1, 24826, Control_c, 0, 64, 127
1, 24950, Note_off_c, 0, 57, 34
1, 25080, Note_off_c, 0, 73, 27
1, 25272, Control_c, 0, 64, 113
1, 25286, Control_c, 0, 64, 107
1, 25301, Control_c, 0, 64, 102
1, 25316, Control_c, 0, 64, 99
1, 25330, Control_c, 0, 64, 97
1, 25345, Control_c, 0, 64, 95
1, 25360, Control_c, 0, 64, 93
1, 25375, Control_c, 0, 64, 91
1, 25390, Control_c, 0, 64, 88
1, 25404, Control_c, 0, 64, 86
1, 25419, Control_c, 0, 64, 84
1, 25434, Control_c, 0, 64, 83
1, 25449, Control_c, 0, 64, 81
1, 25464, Control_c, 0, 64, 80
1, 25478, Control_c, 0, 64, 79
1, 25493, Control_c, 0, 64, 77
1, 25508, Control_c, 0, 64, 76
1, 25523, Control_c, 0, 64, 74
1, 25545, Control_c, 0, 64, 72
1, 25560, Control_c, 0, 64, 70
1, 25575, Control_c, 0, 64, 68
1, 25590, Control_c, 0, 64, 66
1, 25605, Control_c, 0, 64, 64
1, 25619, Control_c, 0, 64, 63
1, 25634, Control_c, 0, 64, 60
1, 25649, Control_c, 0, 64, 57
1, 25664, Control_c, 0, 64, 53
1, 25679, Control_c, 0, 64, 47
1, 25693, Control_c, 0, 64, 41
1, 25709, Control_c, 0, 64, 34
1, 25724, Control_c, 0, 64, 24
1, 25739, Control_c, 0, 64, 13
1, 25754, Control_c, 0, 64, 0
1, 25828, Control_c, 0, 67, 127
1, 25842, Control_c, 0, 67, 107
1, 25857, Control_c, 0, 67, 86
1, 25872, Control_c, 0, 67, 65
1, 25887, Control_c, 0, 67, 44
1, 25902, Control_c, 0, 67, 21
1, 25916, Control_c, 0, 67, 0
1, 25971, Note_on_c, 0, 47, 63
1, 26062, Note_on_c, 0, 51, 74
1, 26136, Note_off_c, 0, 47, 58
1, 26138, Note_on_c, 0, 54, 79
1, 26180, Note_off_c, 0, 51, 65
1, 26265, Note_on_c, 0, 59, 70
1, 26354, Note_off_c, 0, 54, 63
1, 26695, Control_c, 0, 64, 21
1, 26710, Control_c, 0, 64, 34
1, 26725, Control_c, 0, 64, 45
1, 26739, Control_c, 0, 64, 54
1, 26754, Control_c, 0, 64, 60
1, 26769, Control_c, 0, 64, 62
1, 26783, Control_c, 0, 64, 63
1, 26798, Control_c, 0, 64, 64
1, 26813, Control_c, 0, 64, 67
1, 26828, Control_c, 0, 64, 70
1, 26843, Control_c, 0, 64, 72
1, 26858, Control_c, 0, 64, 75
1, 26872, Control_c, 0, 64, 77
1, 26887, Control_c, 0, 64, 79
1, 26902, Control_c, 0, 64, 81
1, 26917, Control_c, 0, 64, 82
1, 26931, Control_c, 0, 64, 82
1, 26941, Note_off_c, 0, 59, 36
1, 26961, Control_c, 0, 64, 83
1, 27050, Note_on_c, 0, 59, 59
1, 27184, Note_off_c, 0, 59, 56
1, 27287, Note_on_c, 0, 59, 45
1, 27294, Control_c, 0, 64, 82
1, 27310, Control_c, 0, 64, 81
1, 27325, Control_c, 0, 64, 80
1, 27339, Control_c, 0, 64, 77
1, 27354, Control_c, 0, 64, 71
1, 27369, Control_c, 0, 64, 64
1, 27384, Control_c, 0, 64, 54
1, 27399, Control_c, 0, 64, 33
1, 27413, Control_c, 0, 64, 0
1, 27487, Control_c, 0, 64, 21
1, 27502, Control_c, 0, 64, 37
1, 27517, Control_c, 0, 64, 51
1, 27531, Control_c, 0, 64, 63
1, 27546, Control_c, 0, 64, 68
1, 27561, Control_c, 0, 64, 69
1, 27576, Control_c, 0, 64, 70
1, 27591, Control_c, 0, 64, 73
1, 27606, Control_c, 0, 64, 78
1, 27621, Control_c, 0, 64, 83
1, 27636, Control_c, 0, 64, 86
1, 27650, Control_c, 0, 64, 88
1, 27665, Control_c, 0, 64, 91
1, 27680, Control_c, 0, 64, 95
1, 27695, Control_c, 0, 64, 99
1, 27710, Control_c, 0, 64, 102
1, 27724, Control_c, 0, 64, 104
1, 27728, Note_on_c, 0, 84, 59
1, 27739, Control_c, 0, 64, 105
1, 27754, Control_c, 0, 64, 107
1, 27769, Control_c, 0, 64, 110
1, 27791, Control_c, 0, 64, 114
1, 27805, Control_c, 0, 64, 117
1, 27820, Control_c, 0, 64, 119
1, 27850, Control_c, 0, 64, 122
1, 27865, Control_c, 0, 64, 127
1, 27873, Note_off_c, 0, 59, 41
1, 27937, Note_on_c, 0, 81, 77
1, 27954, Note_off_c, 0, 84, 63
1, 28030, Note_off_c, 0, 81, 60
1, 28148, Control_c, 0, 64, 114
1, 28162, Note_on_c, 0, 83, 62
1, 28162, Control_c, 0, 64, 101
1, 28177, Control_c, 0, 64, 85
1, 28192, Control_c, 0, 64, 71
1, 28207, Control_c, 0, 64, 59
1, 28222, Control_c, 0, 64, 42
1, 28236, Control_c, 0, 64, 0
1, 28325, Control_c, 0, 64, 29
1, 28340, Control_c, 0, 64, 46
1, 28354, Control_c, 0, 64, 60
1, 28365, Note_off_c, 0, 83, 65
1, 28368, Note_on_c, 0, 79, 72
1, 28369, Control_c, 0, 64, 71
1, 28384, Control_c, 0, 64, 77
1, 28399, Control_c, 0, 64, 79
1, 28414, Control_c, 0, 64, 83
1, 28428, Control_c, 0, 64, 90
1, 28443, Control_c, 0, 64, 97
1, 28458, Control_c, 0, 64, 105
1, 28473, Control_c, 0, 64, 111
1, 28488, Control_c, 0, 64, 114
1, 28537, Note_off_c, 0, 79, 38
1, 28569, Control_c, 0, 64, 111
1, 28581, Note_on_c, 0, 81, 70
1, 28584, Control_c, 0, 64, 99
1, 28599, Control_c, 0, 64, 81
1, 28614, Control_c, 0, 64, 67
1, 28628, Control_c, 0, 64, 56
1, 28643, Control_c, 0, 64, 35
1, 28658, Control_c, 0, 64, 0
1, 28703, Control_c, 0, 64, 25
1, 28718, Control_c, 0, 64, 41
1, 28733, Control_c, 0, 64, 55
1, 28747, Control_c, 0, 64, 66
1, 28762, Control_c, 0, 64, 78
1, 28777, Control_c, 0, 64, 81
1, 28780, Note_on_c, 0, 78, 78
1, 28792, Control_c, 0, 64, 82
1, 28792, Note_on_c, 0, 63, 60
1, 28807, Control_c, 0, 64, 85
1, 28816, Note_off_c, 0, 81, 60
1, 28822, Control_c, 0, 64, 91
1, 28836, Control_c, 0, 64, 96
1, 28836, Control_c, 0, 67, 9
1, 28851, Control_c, 0, 64, 99
1, 28851, Control_c, 0, 67, 10
1, 28866, Control_c, 0, 64, 100
1, 28866, Control_c, 0, 67, 11
1, 28880, Control_c, 0, 67, 12
1, 28896, Control_c, 0, 67, 14
1, 28908, Note_off_c, 0, 78, 53
1, 28911, Control_c, 0, 67, 16
1, 28926, Control_c, 0, 67, 18
1, 28941, Control_c, 0, 64, 98
1, 28941, Control_c, 0, 67, 20
1, 28956, Control_c, 0, 64, 94
1, 28956, Control_c, 0, 67, 23
1, 28970, Control_c, 0, 64, 92
1, 28970, Control_c, 0, 67, 27
1, 28985, Control_c, 0, 64, 90
1, 28985, Control_c, 0, 67, 30
1, 29000, Control_c, 0, 64, 86
1, 29000, Control_c, 0, 67, 34
1, 29015, Control_c, 0, 64, 78
1, 29015, Control_c, 0, 67, 39
1, 29030, Control_c, 0, 64, 69
1, 29030, Control_c, 0, 67, 44
1, 29034, Note_on_c, 0, 64, 51
1, 29045, Control_c, 0, 64, 63
1, 29045, Control_c, 0, 67, 48
1, 29046, Note_on_c, 0, 79, 64
1, 29059, Control_c, 0, 64, 56
1, 29059, Control_c, 0, 67, 52
1, 29074, Note_off_c, 0, 63, 63
1, 29074, Control_c, 0, 64, 43
1, 29074, Control_c, 0, 67, 57
1, 29089, Control_c, 0, 64, 27
1, 29089, Control_c, 0, 67, 62
1, 29103, Control_c, 0, 64, 0
1, 29103, Control_c, 0, 67, 67
1, 29118, Control_c, 0, 67, 72
1, 29133, Control_c, 0, 67, 78
1, 29148, Control_c, 0, 67, 83
1, 29163, Control_c, 0, 67, 86
1, 29177, Control_c, 0, 67, 89
1, 29192, Control_c, 0, 67, 92
1, 29206, Control_c, 0, 67, 93
1, 29246, Note_on_c, 0, 67, 67
1, 29249, Note_off_c, 0, 64, 62
1, 29288, Control_c, 0, 67, 94
1, 29296, Note_off_c, 0, 67, 64
1, 29475, Note_on_c, 0, 66, 64
1, 29570, Control_c, 0, 67, 94
1, 29629, Control_c, 0, 67, 95
1, 29644, Control_c, 0, 67, 95
1, 29658, Control_c, 0, 67, 96
1, 29673, Control_c, 0, 67, 98
1, 29674, Note_on_c, 0, 69, 65
1, 29688, Note_off_c, 0, 66, 61
1, 29688, Control_c, 0, 67, 101
1, 29704, Control_c, 0, 67, 104
1, 29719, Control_c, 0, 67, 106
1, 29733, Control_c, 0, 67, 108
1, 29739, Note_off_c, 0, 69, 66
1, 29748, Control_c, 0, 67, 111
1, 29763, Control_c, 0, 67, 115
1, 29778, Control_c, 0, 67, 119
1, 29792, Control_c, 0, 67, 124
1, 29807, Control_c, 0, 67, 127
1, 29958, Note_on_c, 0, 67, 48
1, 30014, Control_c, 0, 64, 27
1, 30037, Control_c, 0, 64, 39
1, 30052, Control_c, 0, 64, 50
1, 30062, Note_off_c, 0, 79, 60
1, 30067, Control_c, 0, 64, 59
1, 30081, Control_c, 0, 64, 64
1, 30096, Control_c, 0, 64, 65
1, 30111, Control_c, 0, 64, 66
1, 30125, Control_c, 0, 64, 67
1, 30140, Control_c, 0, 64, 69
1, 30155, Control_c, 0, 64, 71
1, 30170, Control_c, 0, 64, 73
1, 30185, Control_c, 0, 64, 73
1, 30209, Note_off_c, 0, 67, 49
1, 30214, Control_c, 0, 64, 74
1, 30393, Control_c, 0, 64, 73
1, 30407, Control_c, 0, 64, 73
1, 30422, Control_c, 0, 64, 72
1, 30437, Control_c, 0, 64, 70
1, 30444, Note_on_c, 0, 83, 50
1, 30451, Control_c, 0, 64, 67
1, 30466, Control_c, 0, 64, 64
1, 30481, Control_c, 0, 64, 60
1, 30497, Control_c, 0, 64, 52
1, 30512, Control_c, 0, 64, 39
1, 30527, Control_c, 0, 64, 18
1, 30542, Control_c, 0, 64, 0
1, 30630, Control_c, 0, 64, 9
1, 30645, Control_c, 0, 64, 27
1, 30660, Control_c, 0, 64, 39
1, 30669, Note_on_c, 0, 79, 60
1, 30675, Control_c, 0, 64, 50
1, 30690, Control_c, 0, 64, 60
1, 30691, Note_off_c, 0, 83, 59
1, 30704, Control_c, 0, 64, 64
1, 30719, Control_c, 0, 64, 65
1, 30734, Control_c, 0, 64, 66
1, 30748, Control_c, 0, 64, 67
1, 30754, Note_off_c, 0, 79, 55
1, 30771, Control_c, 0, 64, 69
1, 30786, Control_c, 0, 64, 71
1, 30801, Control_c, 0, 64, 72
1, 30816, Control_c, 0, 64, 73
1, 30874, Control_c, 0, 64, 72
1, 30882, Note_on_c, 0, 81, 61
1, 30889, Control_c, 0, 64, 70
1, 30904, Control_c, 0, 64, 67
1, 30919, Control_c, 0, 64, 62
1, 30934, Control_c, 0, 64, 53
1, 30948, Control_c, 0, 64, 38
1, 30963, Control_c, 0, 64, 0
1, 31037, Control_c, 0, 64, 16
1, 31052, Control_c, 0, 64, 33
1, 31067, Control_c, 0, 64, 46
1, 31081, Control_c, 0, 64, 61
1, 31082, Note_on_c, 0, 78, 69
1, 31096, Control_c, 0, 64, 70
1, 31107, Note_off_c, 0, 81, 59
1, 31111, Control_c, 0, 64, 74
1, 31126, Control_c, 0, 64, 75
1, 31141, Control_c, 0, 64, 77
1, 31156, Control_c, 0, 64, 81
1, 31171, Control_c, 0, 64, 87
1, 31186, Control_c, 0, 64, 89
1, 31201, Control_c, 0, 64, 90
1, 31218, Note_off_c, 0, 78, 56
1, 31274, Control_c, 0, 64, 89
1, 31289, Control_c, 0, 64, 82
1, 31290, Note_on_c, 0, 79, 61
1, 31305, Control_c, 0, 64, 73
1, 31320, Control_c, 0, 64, 64
1, 31335, Control_c, 0, 64, 54
1, 31350, Control_c, 0, 64, 32
1, 31365, Control_c, 0, 64, 0
1, 31409, Control_c, 0, 64, 16
1, 31424, Control_c, 0, 64, 33
1, 31439, Control_c, 0, 64, 47
1, 31454, Control_c, 0, 64, 61
1, 31469, Control_c, 0, 64, 70
1, 31484, Control_c, 0, 64, 74
1, 31490, Note_on_c, 0, 76, 64
1, 31498, Control_c, 0, 64, 74
1, 31501, Note_on_c, 0, 61, 54
1, 31508, Note_off_c, 0, 79, 58
1, 31513, Control_c, 0, 64, 75
1, 31535, Control_c, 0, 64, 78
1, 31550, Control_c, 0, 64, 81
1, 31565, Control_c, 0, 64, 82
1, 31579, Control_c, 0, 64, 83
1, 31609, Control_c, 0, 64, 83
1, 31613, Note_off_c, 0, 76, 49
1, 31630, Note_off_c, 0, 61, 57
1, 31728, Control_c, 0, 64, 81
1, 31743, Control_c, 0, 64, 77
1, 31758, Control_c, 0, 64, 73
1, 31759, Note_on_c, 0, 78, 57
1, 31772, Control_c, 0, 64, 69
1, 31780, Note_on_c, 0, 62, 48
1, 31787, Control_c, 0, 64, 65
1, 31802, Control_c, 0, 64, 60
1, 31817, Control_c, 0, 64, 50
1, 31832, Control_c, 0, 64, 30
1, 31846, Control_c, 0, 64, 0
1, 31985, Note_on_c, 0, 66, 57
1, 31992, Note_off_c, 0, 62, 61
1, 32045, Note_off_c, 0, 66, 61
1, 32184, Note_on_c, 0, 64, 47
1, 32358, Control_c, 0, 67, 120
1, 32373, Control_c, 0, 67, 95
1, 32388, Control_c, 0, 67, 63
1, 32389, Note_on_c, 0, 67, 66
1, 32402, Control_c, 0, 67, 29
1, 32403, Note_off_c, 0, 64, 62
1, 32417, Control_c, 0, 67, 0
1, 32438, Note_off_c, 0, 67, 62
1, 32654, Control_c, 0, 64, 12
1, 32662, Note_on_c, 0, 66, 56
1, 32669, Control_c, 0, 64, 22
1, 32670, Note_off_c, 0, 78, 67
1, 32684, Control_c, 0, 64, 28
1, 32699, Control_c, 0, 64, 34
1, 32713, Control_c, 0, 64, 37
1, 32728, Control_c, 0, 64, 41
1, 32743, Control_c, 0, 64, 43
1, 32758, Control_c, 0, 64, 43
1, 32773, Control_c, 0, 64, 42
1, 32788, Control_c, 0, 64, 40
1, 32802, Control_c, 0, 64, 30
1, 32817, Control_c, 0, 64, 0
1, 32858, Note_on_c, 0, 81, 75
1, 33076, Control_c, 0, 64, 18
1, 33084, Note_on_c, 0, 74, 77
1, 33091, Control_c, 0, 64, 32
1, 33106, Control_c, 0, 64, 43
1, 33116, Note_off_c, 0, 81, 59
1, 33121, Control_c, 0, 64, 54
1, 33136, Control_c, 0, 64, 62
1, 33150, Control_c, 0, 64, 65
1, 33165, Control_c, 0, 64, 67
1, 33180, Control_c, 0, 64, 68
1, 33195, Control_c, 0, 64, 70
1, 33210, Control_c, 0, 64, 74
1, 33225, Control_c, 0, 64, 77
1, 33240, Control_c, 0, 64, 78
1, 33255, Control_c, 0, 64, 79
1, 33269, Note_on_c, 0, 86, 86
1, 33269, Control_c, 0, 64, 80
1, 33284, Control_c, 0, 64, 81
1, 33299, Control_c, 0, 64, 81
1, 33314, Control_c, 0, 64, 82
1, 33318, Note_off_c, 0, 74, 52
1, 33329, Control_c, 0, 64, 82
1, 33462, Control_c, 0, 64, 82
1, 33476, Control_c, 0, 64, 81
1, 33491, Control_c, 0, 64, 79
1, 33506, Control_c, 0, 64, 76
1, 33512, Note_on_c, 0, 85, 76
1, 33514, Note_on_c, 0, 81, 68
1, 33521, Control_c, 0, 64, 70
1, 33536, Control_c, 0, 64, 63
1, 33547, Note_off_c, 0, 86, 58
1, 33550, Control_c, 0, 64, 53
1, 33565, Control_c, 0, 64, 22
1, 33580, Control_c, 0, 64, 0
1, 33654, Control_c, 0, 64, 33
1, 33669, Control_c, 0, 64, 49
1, 33684, Control_c, 0, 64, 62
1, 33699, Control_c, 0, 64, 68
1, 33714, Control_c, 0, 64, 71
1, 33720, Note_on_c, 0, 83, 77
1, 33727, Note_on_c, 0, 79, 69
1, 33729, Control_c, 0, 64, 72
1, 33734, Note_off_c, 0, 81, 61
1, 33744, Control_c, 0, 64, 74
1, 33756, Note_off_c, 0, 85, 64
1, 33759, Control_c, 0, 64, 79
1, 33781, Control_c, 0, 64, 84
1, 33796, Control_c, 0, 64, 88
1, 33811, Control_c, 0, 64, 90
1, 33826, Control_c, 0, 64, 92
1, 33827, Note_off_c, 0, 83, 66
1, 33841, Control_c, 0, 64, 93
1, 33855, Control_c, 0, 64, 94
1, 33870, Control_c, 0, 64, 94
1, 33885, Control_c, 0, 64, 95
1, 33899, Control_c, 0, 64, 96
1, 33914, Control_c, 0, 64, 97
1, 33929, Control_c, 0, 64, 99
1, 33934, Note_on_c, 0, 81, 80
1, 33943, Note_on_c, 0, 78, 71
1, 33944, Control_c, 0, 64, 101
1, 33959, Control_c, 0, 64, 104
1, 33968, Note_off_c, 0, 79, 61
1, 33973, Control_c, 0, 64, 107
1, 33988, Control_c, 0, 64, 108
1, 33995, Note_off_c, 0, 78, 65
1, 34018, Control_c, 0, 64, 109
1, 34122, Control_c, 0, 64, 108
1, 34137, Control_c, 0, 64, 103
1, 34138, Note_on_c, 0, 79, 78
1, 34139, Note_on_c, 0, 76, 63
1, 34152, Control_c, 0, 64, 91
1, 34152, Note_on_c, 0, 68, 61
1, 34166, Control_c, 0, 64, 78
1, 34172, Note_off_c, 0, 81, 64
1, 34181, Control_c, 0, 64, 66
1, 34196, Control_c, 0, 64, 57
1, 34211, Control_c, 0, 64, 35
1, 34226, Control_c, 0, 64, 0
1, 34270, Control_c, 0, 64, 27
1, 34285, Control_c, 0, 64, 41
1, 34292, Note_off_c, 0, 66, 53
1, 34299, Control_c, 0, 64, 55
1, 34314, Control_c, 0, 64, 64
1, 34329, Control_c, 0, 64, 68
1, 34344, Control_c, 0, 64, 68
1, 34344, Control_c, 0, 67, 8
1, 34359, Control_c, 0, 67, 10
1, 34373, Control_c, 0, 64, 69
1, 34373, Control_c, 0, 67, 10
1, 34388, Control_c, 0, 64, 69
1, 34388, Control_c, 0, 67, 11
1, 34403, Control_c, 0, 64, 70
1, 34433, Control_c, 0, 67, 12
1, 34448, Control_c, 0, 67, 13
1, 34463, Control_c, 0, 67, 14
1, 34477, Note_on_c, 0, 74, 45
1, 34478, Control_c, 0, 64, 69
1, 34478, Control_c, 0, 67, 15
1, 34480, Note_on_c, 0, 78, 73
1, 34494, Control_c, 0, 64, 68
1, 34494, Control_c, 0, 67, 18
1, 34501, Note_on_c, 0, 69, 49
1, 34508, Note_off_c, 0, 76, 64
1, 34509, Control_c, 0, 64, 65
1, 34509, Control_c, 0, 67, 21
1, 34530, Control_c, 0, 64, 61
1, 34530, Control_c, 0, 67, 25
1, 34545, Control_c, 0, 64, 55
1, 34545, Control_c, 0, 67, 28
1, 34560, Control_c, 0, 64, 44
1, 34560, Control_c, 0, 67, 32
1, 34569, Note_off_c, 0, 79, 60
1, 34575, Control_c, 0, 64, 25
1, 34575, Control_c, 0, 67, 36
1, 34590, Control_c, 0, 64, 0
1, 34590, Control_c, 0, 67, 40
1, 34605, Control_c, 0, 67, 43
1, 34620, Control_c, 0, 67, 47
1, 34635, Control_c, 0, 67, 52
1, 34650, Control_c, 0, 67, 56
1, 34650, Note_off_c, 0, 68, 58
1, 34665, Control_c, 0, 67, 59
1, 34679, Control_c, 0, 67, 65
1, 34694, Control_c, 0, 67, 69
1, 34709, Control_c, 0, 67, 73
1, 34723, Control_c, 0, 67, 79
1, 34738, Control_c, 0, 67, 85
1, 34753, Control_c, 0, 67, 91
1, 34768, Control_c, 0, 67, 97
1, 34783, Control_c, 0, 67, 105
1, 34797, Control_c, 0, 67, 113
1, 34812, Control_c, 0, 67, 121
1, 34827, Control_c, 0, 67, 127
1, 34989, Control_c, 0, 64, 27
1, 35004, Control_c, 0, 64, 40
1, 35019, Control_c, 0, 64, 52
1, 35034, Control_c, 0, 64, 60
1, 35049, Control_c, 0, 64, 63
1, 35064, Control_c, 0, 64, 65
1, 35079, Control_c, 0, 64, 66
1, 35094, Control_c, 0, 64, 68
1, 35109, Control_c, 0, 64, 71
1, 35123, Control_c, 0, 64, 73
1, 35138, Control_c, 0, 64, 75
1, 35153, Control_c, 0, 64, 75
1, 35168, Control_c, 0, 64, 76
1, 35212, Control_c, 0, 64, 76
1, 35383, Control_c, 0, 64, 76
1, 35413, Control_c, 0, 64, 75
1, 35428, Control_c, 0, 64, 74
1, 35443, Control_c, 0, 64, 74
1, 35457, Control_c, 0, 64, 73
1, 35472, Control_c, 0, 64, 72
1, 35487, Control_c, 0, 64, 70
1, 35502, Control_c, 0, 64, 67
1, 35517, Control_c, 0, 64, 65
1, 35532, Control_c, 0, 64, 62
1, 35544, Note_on_c, 0, 76, 46
1, 35546, Control_c, 0, 64, 58
1, 35561, Control_c, 0, 64, 53
1, 35562, Note_on_c, 0, 73, 36
1, 35576, Control_c, 0, 64, 42
1, 35591, Control_c, 0, 64, 30
1, 35606, Control_c, 0, 64, 15
1, 35607, Note_off_c, 0, 74, 57
1, 35614, Note_off_c, 0, 73, 0
1, 35614, Note_on_c, 0, 73, 8
1, 35620, Control_c, 0, 64, 0
1, 35714, Note_off_c, 0, 78, 61
1, 35764, Note_on_c, 0, 68, 49
1, 35857, Note_off_c, 0, 69, 60
1, 35976, Note_on_c, 0, 69, 67
1, 36036, Note_off_c, 0, 68, 61
1, 36177, Note_on_c, 0, 70, 65
1, 36232, Note_off_c, 0, 69, 63
1, 36371, Note_off_c, 0, 76, 42
1, 36426, Note_off_c, 0, 73, 46
1, 36444, Note_on_c, 0, 71, 52
1, 36477, Note_off_c, 0, 70, 59
1, 36682, Note_on_c, 0, 67, 48
1, 36719, Note_off_c, 0, 71, 63
1, 36948, Note_on_c, 0, 66, 42
1, 36987, Note_off_c, 0, 67, 64
1, 37198, Note_on_c, 0, 69, 53
1, 37215, Note_on_c, 0, 64, 32
1, 37227, Note_off_c, 0, 66, 52
1, 37473, Control_c, 0, 64, 16
1, 37487, Control_c, 0, 64, 24
1, 37502, Control_c, 0, 64, 29
1, 37524, Control_c, 0, 64, 33
1, 37539, Control_c, 0, 64, 37
1, 37554, Control_c, 0, 64, 39
1, 37569, Control_c, 0, 64, 41
1, 37584, Control_c, 0, 64, 42
1, 37613, Control_c, 0, 64, 41
1, 37625, Note_on_c, 0, 74, 53
1, 37628, Control_c, 0, 64, 40
1, 37642, Control_c, 0, 64, 38
1, 37654, Note_on_c, 0, 66, 33
1, 37657, Control_c, 0, 64, 36
1, 37670, Note_on_c, 0, 62, 30
1, 37672, Control_c, 0, 64, 31
1, 37688, Control_c, 0, 64, 23
1, 37701, Note_off_c, 0, 64, 42
1, 37703, Control_c, 0, 64, 0
1, 37706, Note_off_c, 0, 69, 61
1, 37896, Control_c, 0, 64, 14
1, 37911, Control_c, 0, 64, 34
1, 37926, Control_c, 0, 64, 48
1, 37940, Control_c, 0, 64, 59
1, 37955, Control_c, 0, 64, 65
1, 37970, Control_c, 0, 64, 68
1, 37985, Control_c, 0, 64, 69
1, 38000, Control_c, 0, 64, 73
1, 38014, Control_c, 0, 64, 77
1, 38018, Note_off_c, 0, 74, 58
1, 38029, Control_c, 0, 64, 81
1, 38044, Control_c, 0, 64, 85
1, 38058, Control_c, 0, 64, 88
1, 38073, Control_c, 0, 64, 90
1, 38088, Control_c, 0, 64, 91
1, 38132, Control_c, 0, 64, 91
1, 38147, Control_c, 0, 64, 92
1, 38426, Note_on_c, 0, 74, 49
1, 38500, Note_off_c, 0, 62, 41
1, 38513, Note_off_c, 0, 74, 60
1, 38517, Note_off_c, 0, 66, 42
1, 38702, Note_on_c, 0, 74, 45
1, 38709, Note_on_c, 0, 66, 33
1, 38725, Note_on_c, 0, 62, 30
1, 38927, Note_off_c, 0, 74, 54
1, 38942, Note_off_c, 0, 66, 37
1, 38963, Note_off_c, 0, 62, 38
1, 39067, Control_c, 0, 67, 120
1, 39082, Control_c, 0, 67, 105
1, 39097, Control_c, 0, 67, 86
1, 39112, Control_c, 0, 67, 59
1, 39127, Control_c, 0, 67, 31
1, 39142, Control_c, 0, 67, 0
1, 39424, Control_c, 0, 64, 91
1, 39438, Control_c, 0, 64, 91
1, 39453, Control_c, 0, 64, 90
1, 39468, Control_c, 0, 64, 90
1, 39483, Control_c, 0, 64, 89
1, 39498, Control_c, 0, 64, 88
1, 39512, Control_c, 0, 64, 88
1, 39527, Control_c, 0, 64, 87
1, 39542, Control_c, 0, 64, 86
1, 39557, Control_c, 0, 64, 84
1, 39572, Control_c, 0, 64, 83
1, 39586, Control_c, 0, 64, 81
1, 39601, Control_c, 0, 64, 79
1, 39616, Control_c, 0, 64, 77
1, 39631, Control_c, 0, 64, 75
1, 39646, Control_c, 0, 64, 72
1, 39661, Control_c, 0, 64, 69
1, 39675, Control_c, 0, 64, 66
1, 39690, Control_c, 0, 64, 64
1, 39705, Control_c, 0, 64, 62
1, 39720, Control_c, 0, 64, 60
1, 39735, Control_c, 0, 64, 58
1, 39750, Control_c, 0, 64, 55
1, 39772, Control_c, 0, 64, 53
1, 39786, Control_c, 0, 64, 52
1, 39801, Control_c, 0, 64, 50
1, 39816, Control_c, 0, 64, 48
1, 39831, Control_c, 0, 64, 46
1, 39845, Control_c, 0, 64, 44
1, 39860, Control_c, 0, 64, 42
1, 39875, Control_c, 0, 64, 38
1, 39890, Control_c, 0, 64, 32
1, 39905, Control_c, 0, 64, 23
1, 39920, Control_c, 0, 64, 0
1, 40030, Note_on_c, 0, 69, 54
1, 40099, Control_c, 0, 64, 26
1, 40114, Control_c, 0, 64, 40
1, 40128, Control_c, 0, 64, 52
1, 40143, Control_c, 0, 64, 61
1, 40152, Note_on_c, 0, 74, 69
1, 40158, Control_c, 0, 64, 64
1, 40173, Control_c, 0, 64, 66
1, 40180, Note_off_c, 0, 69, 56
1, 40188, Control_c, 0, 64, 69
1, 40203, Control_c, 0, 64, 73
1, 40217, Control_c, 0, 64, 77
1, 40232, Control_c, 0, 64, 80
1, 40247, Control_c, 0, 64, 83
1, 40261, Control_c, 0, 64, 85
1, 40275, Note_on_c, 0, 78, 80
1, 40276, Control_c, 0, 64, 87
1, 40291, Note_off_c, 0, 74, 63
1, 40291, Control_c, 0, 64, 88
1, 40335, Control_c, 0, 64, 88
1, 40372, Note_off_c, 0, 78, 64
1, 40424, Control_c, 0, 64, 88
1, 40439, Control_c, 0, 64, 86
1, 40450, Note_on_c, 0, 78, 65
1, 40453, Control_c, 0, 64, 84
1, 40468, Control_c, 0, 64, 79
1, 40483, Note_on_c, 0, 62, 37
1, 40483, Control_c, 0, 64, 73
1, 40498, Control_c, 0, 64, 68
1, 40511, Note_on_c, 0, 67, 40
1, 40521, Control_c, 0, 64, 64
1, 40535, Control_c, 0, 64, 59
1, 40550, Control_c, 0, 64, 45
1, 40565, Control_c, 0, 64, 17
1, 40580, Control_c, 0, 64, 0
1, 40683, Control_c, 0, 64, 24
1, 40698, Control_c, 0, 64, 42
1, 40700, Note_on_c, 0, 76, 73
1, 40713, Control_c, 0, 64, 56
1, 40728, Control_c, 0, 64, 64
1, 40733, Note_off_c, 0, 78, 65
1, 40743, Control_c, 0, 64, 66
1, 40757, Control_c, 0, 64, 67
1, 40772, Control_c, 0, 64, 69
1, 40787, Control_c, 0, 64, 75
1, 40802, Control_c, 0, 64, 83
1, 40817, Control_c, 0, 64, 86
1, 40832, Control_c, 0, 64, 88
1, 40862, Note_off_c, 0, 76, 37
1, 40907, Control_c, 0, 64, 87
1, 40921, Control_c, 0, 64, 84
1, 40931, Note_on_c, 0, 79, 64
1, 40936, Control_c, 0, 64, 80
1, 40951, Control_c, 0, 64, 76
1, 40966, Control_c, 0, 64, 71
1, 40981, Control_c, 0, 64, 64
1, 40996, Control_c, 0, 64, 56
1, 41011, Control_c, 0, 64, 37
1, 41025, Control_c, 0, 64, 0
1, 41153, Note_on_c, 0, 73, 72
1, 41157, Control_c, 0, 64, 22
1, 41172, Control_c, 0, 64, 38
1, 41187, Control_c, 0, 64, 51
1, 41187, Control_c, 0, 67, 9
1, 41201, Control_c, 0, 64, 62
1, 41201, Control_c, 0, 67, 11
1, 41216, Note_off_c, 0, 79, 61
1, 41216, Control_c, 0, 64, 64
1, 41216, Control_c, 0, 67, 12
1, 41231, Control_c, 0, 64, 66
1, 41231, Control_c, 0, 67, 15
1, 41246, Control_c, 0, 64, 68
1, 41246, Control_c, 0, 67, 19
1, 41268, Control_c, 0, 64, 72
1, 41268, Control_c, 0, 67, 24
1, 41282, Control_c, 0, 64, 79
1, 41282, Control_c, 0, 67, 30
1, 41297, Control_c, 0, 64, 83
1, 41297, Control_c, 0, 67, 37
1, 41312, Control_c, 0, 64, 85
1, 41312, Control_c, 0, 67, 44
1, 41327, Control_c, 0, 64, 86
1, 41327, Control_c, 0, 67, 49
1, 41342, Control_c, 0, 67, 53
1, 41357, Control_c, 0, 67, 56
1, 41372, Control_c, 0, 67, 60
1, 41386, Control_c, 0, 67, 62
1, 41401, Control_c, 0, 67, 64
1, 41416, Control_c, 0, 67, 66
1, 41431, Control_c, 0, 67, 69
1, 41446, Control_c, 0, 67, 72
1, 41461, Control_c, 0, 64, 86
1, 41461, Control_c, 0, 67, 74
1, 41476, Control_c, 0, 64, 85
1, 41476, Control_c, 0, 67, 75
1, 41490, Control_c, 0, 64, 82
1, 41490, Control_c, 0, 67, 77
1, 41505, Control_c, 0, 64, 80
1, 41505, Control_c, 0, 67, 80
1, 41520, Control_c, 0, 64, 78
1, 41520, Control_c, 0, 67, 82
1, 41535, Control_c, 0, 64, 76
1, 41535, Control_c, 0, 67, 84
1, 41542, Note_on_c, 0, 76, 60
1, 41548, Note_on_c, 0, 66, 40
1, 41550, Control_c, 0, 64, 73
1, 41550, Control_c, 0, 67, 87
1, 41564, Control_c, 0, 64, 68
1, 41564, Control_c, 0, 67, 91
1, 41579, Control_c, 0, 64, 64
1, 41579, Control_c, 0, 67, 95
1, 41594, Control_c, 0, 64, 58
1, 41594, Control_c, 0, 67, 100
1, 41608, Control_c, 0, 64, 51
1, 41608, Control_c, 0, 67, 106
1, 41619, Note_off_c, 0, 73, 63
1, 41623, Control_c, 0, 64, 40
1, 41623, Control_c, 0, 67, 113
1, 41638, Control_c, 0, 64, 28
1, 41638, Control_c, 0, 67, 121
1, 41653, Control_c, 0, 64, 11
1, 41653, Control_c, 0, 67, 127
1, 41667, Note_off_c, 0, 67, 64
1, 41668, Control_c, 0, 64, 0
1, 42199, Note_on_c, 0, 74, 36
1, 42270, Note_off_c, 0, 76, 53
1, 42388, Control_c, 0, 64, 31
1, 42403, Control_c, 0, 64, 41
1, 42418, Control_c, 0, 64, 51
1, 42432, Control_c, 0, 64, 57
1, 42447, Control_c, 0, 64, 59
1, 42462, Control_c, 0, 64, 61
1, 42477, Control_c, 0, 64, 63
1, 42492, Note_off_c, 0, 62, 45
1, 42492, Control_c, 0, 64, 64
1, 42507, Control_c, 0, 64, 66
1, 42522, Control_c, 0, 64, 68
1, 42537, Control_c, 0, 64, 70
1, 42552, Control_c, 0, 64, 73
1, 42567, Control_c, 0, 64, 76
1, 42582, Control_c, 0, 64, 78
1, 42586, Note_off_c, 0, 74, 56
1, 42597, Control_c, 0, 64, 79
1, 42611, Control_c, 0, 64, 80
1, 42635, Note_on_c, 0, 62, 40
1, 42683, Note_off_c, 0, 66, 59
1, 42782, Control_c, 0, 64, 79
1, 42796, Control_c, 0, 64, 78
1, 42799, Note_on_c, 0, 66, 73
1, 42811, Control_c, 0, 64, 76
1, 42826, Control_c, 0, 64, 75
1, 42841, Control_c, 0, 64, 74
1, 42855, Control_c, 0, 64, 70
1, 42870, Control_c, 0, 64, 65
1, 42885, Control_c, 0, 64, 60
1, 42900, Note_off_c, 0, 62, 36
1, 42900, Control_c, 0, 64, 57
1, 42915, Control_c, 0, 64, 55
1, 42922, Note_on_c, 0, 69, 75
1, 42929, Control_c, 0, 64, 52
1, 42944, Control_c, 0, 64, 45
1, 42955, Note_off_c, 0, 66, 63
1, 42959, Control_c, 0, 64, 32
1, 42974, Control_c, 0, 64, 12
1, 42974, Control_c, 0, 67, 109
1, 42988, Control_c, 0, 64, 0
1, 42988, Control_c, 0, 67, 68
1, 43003, Control_c, 0, 67, 21
1, 43018, Control_c, 0, 67, 0
1, 43049, Note_on_c, 0, 74, 78
1, 43120, Note_off_c, 0, 69, 62
1, 43172, Note_on_c, 0, 78, 85
1, 43198, Note_off_c, 0, 74, 64
1, 43297, Note_on_c, 0, 81, 88
1, 43323, Note_off_c, 0, 78, 65
1, 43399, Note_off_c, 0, 81, 56
1, 43467, Note_on_c, 0, 81, 72
1, 43493, Note_on_c, 0, 71, 40
1, 43507, Note_on_c, 0, 74, 34
1, 43603, Control_c, 0, 64, 31
1, 43618, Control_c, 0, 64, 45
1, 43633, Control_c, 0, 64, 56
1, 43648, Control_c, 0, 64, 62
1, 43663, Control_c, 0, 64, 63
1, 43677, Control_c, 0, 64, 66
1, 43692, Control_c, 0, 64, 74
1, 43704, Note_off_c, 0, 71, 47
1, 43705, Note_off_c, 0, 74, 37
1, 43707, Control_c, 0, 64, 81
1, 43722, Control_c, 0, 64, 87
1, 43737, Control_c, 0, 64, 93
1, 43751, Control_c, 0, 64, 99
1, 43766, Control_c, 0, 64, 104
1, 43781, Control_c, 0, 64, 108
1, 43810, Control_c, 0, 64, 107
1, 43825, Control_c, 0, 64, 105
1, 43840, Control_c, 0, 64, 103
1, 43855, Control_c, 0, 64, 101
1, 43855, Control_c, 0, 67, 8
1, 43870, Control_c, 0, 64, 98
1, 43870, Control_c, 0, 67, 10
1, 43884, Control_c, 0, 64, 92
1, 43884, Control_c, 0, 67, 10
1, 43899, Control_c, 0, 64, 86
1, 43899, Control_c, 0, 67, 11
1, 43914, Control_c, 0, 64, 81
1, 43914, Control_c, 0, 67, 12
1, 43929, Control_c, 0, 64, 78
1, 43929, Control_c, 0, 67, 15
1, 43944, Control_c, 0, 64, 75
1, 43944, Control_c, 0, 67, 18
1, 43959, Control_c, 0, 64, 71
1, 43959, Control_c, 0, 67, 20
1, 43974, Control_c, 0, 64, 67
1, 43974, Control_c, 0, 67, 22
1, 43989, Control_c, 0, 64, 63
1, 43989, Control_c, 0, 67, 25
1, 44003, Control_c, 0, 64, 59
1, 44003, Control_c, 0, 67, 27
1, 44016, Note_on_c, 0, 79, 56
1, 44018, Control_c, 0, 64, 54
1, 44018, Control_c, 0, 67, 30
1, 44033, Control_c, 0, 64, 46
1, 44033, Control_c, 0, 67, 32
1, 44048, Control_c, 0, 64, 35
1, 44048, Control_c, 0, 67, 34
1, 44063, Control_c, 0, 64, 20
1, 44063, Control_c, 0, 67, 36
1, 44078, Control_c, 0, 64, 0
1, 44078, Control_c, 0, 67, 39
1, 44092, Note_off_c, 0, 81, 52
1, 44093, Control_c, 0, 67, 42
1, 44108, Control_c, 0, 67, 45
1, 44123, Control_c, 0, 67, 49
1, 44138, Control_c, 0, 67, 54
1, 44141, Note_off_c, 0, 79, 60
1, 44153, Control_c, 0, 67, 59
1, 44168, Control_c, 0, 67, 62
1, 44182, Control_c, 0, 67, 64
1, 44197, Control_c, 0, 67, 66
1, 44212, Control_c, 0, 67, 68
1, 44226, Control_c, 0, 67, 70
1, 44241, Control_c, 0, 67, 71
1, 44263, Control_c, 0, 67, 72
1, 44293, Control_c, 0, 67, 72
1, 44392, Note_on_c, 0, 78, 81
1, 44416, Note_on_c, 0, 69, 47
1, 44416, Note_on_c, 0, 73, 47
1, 44444, Note_off_c, 0, 73, 57
1, 44450, Note_off_c, 0, 78, 66
1, 44457, Note_off_c, 0, 69, 52
1, 44507, Note_on_c, 0, 78, 77
1, 44515, Control_c, 0, 67, 72
1, 44537, Note_on_c, 0, 71, 47
1, 44548, Note_on_c, 0, 67, 33
1, 44648, Control_c, 0, 67, 72
1, 44663, Control_c, 0, 64, 19
1, 44663, Control_c, 0, 67, 73
1, 44678, Control_c, 0, 64, 35
1, 44678, Control_c, 0, 67, 74
1, 44693, Control_c, 0, 64, 47
1, 44693, Control_c, 0, 67, 74
1, 44707, Control_c, 0, 64, 58
1, 44707, Control_c, 0, 67, 77
1, 44712, Note_off_c, 0, 67, 42
1, 44722, Control_c, 0, 64, 63
1, 44722, Control_c, 0, 67, 80
1, 44728, Note_off_c, 0, 71, 38
1, 44737, Control_c, 0, 64, 64
1, 44737, Control_c, 0, 67, 84
1, 44752, Control_c, 0, 64, 64
1, 44752, Control_c, 0, 67, 88
1, 44767, Control_c, 0, 64, 65
1, 44767, Control_c, 0, 67, 92
1, 44782, Control_c, 0, 64, 68
1, 44782, Control_c, 0, 67, 96
1, 44797, Control_c, 0, 64, 70
1, 44797, Control_c, 0, 67, 102
1, 44812, Control_c, 0, 64, 71
1, 44812, Control_c, 0, 67, 108
1, 44826, Control_c, 0, 64, 71
1, 44826, Control_c, 0, 67, 114
1, 44841, Control_c, 0, 67, 120
1, 44856, Control_c, 0, 67, 126
1, 44871, Control_c, 0, 67, 127
1, 44976, Control_c, 0, 64, 71
1, 45013, Control_c, 0, 64, 70
1, 45028, Control_c, 0, 64, 68
1, 45043, Control_c, 0, 64, 66
1, 45056, Note_on_c, 0, 76, 53
1, 45057, Control_c, 0, 64, 64
1, 45072, Control_c, 0, 64, 61
1, 45087, Control_c, 0, 64, 55
1, 45102, Control_c, 0, 64, 45
1, 45107, Note_off_c, 0, 78, 66
1, 45117, Control_c, 0, 64, 33
1, 45131, Control_c, 0, 64, 16
1, 45146, Control_c, 0, 64, 0
1, 45214, Note_off_c, 0, 76, 58
1, 45466, Note_on_c, 0, 74, 66
1, 45470, Note_on_c, 0, 69, 46
1, 45485, Note_on_c, 0, 66, 41
1, 45500, Note_off_c, 0, 69, 56
1, 45508, Note_off_c, 0, 74, 66
1, 45522, Note_off_c, 0, 66, 49
1, 45584, Note_on_c, 0, 74, 63
1, 45595, Note_on_c, 0, 67, 46
1, 45600, Note_on_c, 0, 64, 45
1, 45632, Note_off_c, 0, 67, 0
1, 45632, Note_on_c, 0, 67, 14
1, 45777, Control_c, 0, 64, 9
1, 45789, Note_off_c, 0, 67, 47
1, 45792, Control_c, 0, 64, 26
1, 45806, Control_c, 0, 64, 37
1, 45821, Control_c, 0, 64, 45
1, 45836, Control_c, 0, 64, 51
1, 45842, Note_off_c, 0, 64, 36
1, 45851, Control_c, 0, 64, 54
1, 45866, Control_c, 0, 64, 55
1, 45880, Control_c, 0, 64, 57
1, 45895, Control_c, 0, 64, 58
1, 45910, Control_c, 0, 64, 59
1, 45954, Control_c, 0, 64, 59
1, 45984, Control_c, 0, 64, 58
1, 45998, Control_c, 0, 64, 58
1, 46013, Control_c, 0, 64, 56
1, 46028, Control_c, 0, 64, 54
1, 46043, Control_c, 0, 64, 52
1, 46058, Control_c, 0, 64, 51
1, 46072, Control_c, 0, 64, 49
1, 46087, Control_c, 0, 64, 46
1, 46102, Control_c, 0, 64, 41
1, 46117, Control_c, 0, 64, 36
1, 46132, Control_c, 0, 64, 31
1, 46141, Note_on_c, 0, 73, 43
1, 46147, Control_c, 0, 64, 26
1, 46162, Control_c, 0, 64, 17
1, 46175, Note_off_c, 0, 74, 66
1, 46177, Control_c, 0, 64, 0
1, 46284, Note_off_c, 0, 73, 62
1, 46384, Control_c, 0, 64, 12
1, 46398, Control_c, 0, 64, 27
1, 46413, Control_c, 0, 64, 37
1, 46428, Control_c, 0, 64, 45
1, 46443, Control_c, 0, 64, 52
1, 46458, Control_c, 0, 64, 56
1, 46474, Control_c, 0, 64, 59
1, 46489, Control_c, 0, 64, 61
1, 46511, Control_c, 0, 64, 62
1, 46526, Control_c, 0, 64, 63
1, 46540, Control_c, 0, 64, 64
1, 46555, Control_c, 0, 64, 65
1, 46558, Note_on_c, 0, 74, 67
1, 46570, Note_on_c, 0, 62, 50
1, 46570, Control_c, 0, 64, 66
1, 46601, Note_off_c, 0, 62, 58
1, 46652, Poly_aftertouch_c, 0, 66, 0
1, 46689, Control_c, 0, 64, 65
1, 46703, Note_on_c, 0, 62, 45
1, 46703, Control_c, 0, 64, 64
1, 46705, Note_on_c, 0, 78, 71
1, 46718, Control_c, 0, 64, 63
1, 46729, Note_on_c, 0, 57, 45
1, 46733, Control_c, 0, 64, 62
1, 46738, Note_off_c, 0, 74, 54
1, 46744, Note_off_c, 0, 62, 0
1, 46744, Note_on_c, 0, 62, 19
1, 46748, Control_c, 0, 64, 58
1, 46763, Control_c, 0, 64, 50
1, 46777, Control_c, 0, 64, 34
1, 46792, Control_c, 0, 64, 0
1, 46910, Control_c, 0, 67, 104
1, 46925, Control_c, 0, 64, 27
1, 46925, Control_c, 0, 67, 69
1, 46940, Control_c, 0, 64, 42
1, 46940, Control_c, 0, 67, 30
1, 46955, Control_c, 0, 64, 53
1, 46955, Control_c, 0, 67, 0
1, 46970, Control_c, 0, 64, 59
1, 46985, Control_c, 0, 64, 62
1, 46999, Control_c, 0, 64, 63
1, 47014, Control_c, 0, 64, 64
1, 47029, Control_c, 0, 64, 65
1, 47044, Control_c, 0, 64, 67
1, 47059, Control_c, 0, 64, 69
1, 47074, Control_c, 0, 64, 70
1, 47089, Control_c, 0, 64, 71
1, 47103, Control_c, 0, 64, 71
1, 47134, Note_on_c, 0, 79, 69
1, 47148, Note_off_c, 0, 78, 63
1, 47207, Control_c, 0, 64, 71
1, 47221, Control_c, 0, 64, 69
1, 47236, Control_c, 0, 64, 66
1, 47257, Note_on_c, 0, 80, 69
1, 47259, Control_c, 0, 64, 63
1, 47274, Control_c, 0, 64, 58
1, 47282, Note_off_c, 0, 79, 55
1, 47289, Control_c, 0, 64, 53
1, 47304, Control_c, 0, 64, 46
1, 47319, Control_c, 0, 64, 33
1, 47333, Control_c, 0, 64, 0
1, 47393, Control_c, 0, 67, 11
1, 47408, Control_c, 0, 67, 15
1, 47423, Control_c, 0, 67, 20
1, 47438, Control_c, 0, 67, 28
1, 47452, Control_c, 0, 67, 38
1, 47467, Control_c, 0, 67, 48
1, 47482, Control_c, 0, 67, 56
1, 47497, Control_c, 0, 67, 62
1, 47512, Control_c, 0, 67, 69
1, 47526, Control_c, 0, 67, 77
1, 47541, Control_c, 0, 64, 25
1, 47541, Control_c, 0, 67, 84
1, 47556, Control_c, 0, 64, 35
1, 47556, Control_c, 0, 67, 90
1, 47570, Control_c, 0, 64, 43
1, 47570, Control_c, 0, 67, 95
1, 47585, Control_c, 0, 64, 50
1, 47585, Control_c, 0, 67, 102
1, 47600, Control_c, 0, 64, 55
1, 47600, Control_c, 0, 67, 108
1, 47615, Control_c, 0, 64, 58
1, 47615, Control_c, 0, 67, 115
1, 47630, Control_c, 0, 64, 59
1, 47630, Control_c, 0, 67, 121
1, 47644, Control_c, 0, 64, 59
1, 47644, Control_c, 0, 67, 127
1, 47659, Control_c, 0, 64, 60
1, 47659, Control_c, 0, 67, 127
1, 47674, Control_c, 0, 64, 60
1, 47689, Control_c, 0, 64, 61
1, 47792, Control_c, 0, 64, 60
1, 47805, Note_on_c, 0, 81, 67
1, 47807, Control_c, 0, 64, 60
1, 47837, Note_off_c, 0, 80, 61
1, 47837, Control_c, 0, 64, 59
1, 47852, Control_c, 0, 64, 59
1, 47867, Control_c, 0, 64, 57
1, 47882, Control_c, 0, 64, 53
1, 47896, Control_c, 0, 64, 49
1, 47911, Control_c, 0, 64, 48
1, 47925, Control_c, 0, 64, 47
1, 47940, Control_c, 0, 64, 43
1, 47955, Control_c, 0, 64, 35
1, 47968, Note_on_c, 0, 76, 55
1, 47969, Control_c, 0, 64, 17
1, 47984, Control_c, 0, 64, 0
1, 48004, Note_on_c, 0, 61, 39
1, 48025, Note_off_c, 0, 81, 62
1, 48115, Note_off_c, 0, 62, 58
1, 48541, Control_c, 0, 64, 30
1, 48556, Control_c, 0, 64, 42
1, 48570, Control_c, 0, 64, 55
1, 48585, Control_c, 0, 64, 62
1, 48600, Control_c, 0, 64, 63
1, 48615, Control_c, 0, 64, 65
1, 48630, Control_c, 0, 64, 68
1, 48645, Control_c, 0, 64, 72
1, 48660, Control_c, 0, 64, 78
1, 48675, Control_c, 0, 64, 82
1, 48690, Control_c, 0, 64, 85
1, 48705, Control_c, 0, 64, 89
1, 48719, Control_c, 0, 64, 93
1, 48734, Control_c, 0, 64, 93
1, 48756, Control_c, 0, 64, 94
1, 48786, Control_c, 0, 64, 95
1, 48800, Control_c, 0, 64, 96
1, 48815, Control_c, 0, 64, 97
1, 48860, Control_c, 0, 67, 123
1, 48876, Control_c, 0, 64, 97
1, 48876, Control_c, 0, 67, 107
1, 48891, Control_c, 0, 67, 79
1, 48905, Control_c, 0, 67, 47
1, 48920, Control_c, 0, 67, 14
1, 48935, Control_c, 0, 67, 0
1, 48939, Note_off_c, 0, 57, 28
1, 48979, Control_c, 0, 64, 98
1, 49003, Note_off_c, 0, 61, 39
1, 49007, Note_off_c, 0, 76, 34
1, 49335, Control_c, 0, 64, 97
1, 49349, Control_c, 0, 64, 95
1, 49364, Control_c, 0, 64, 95
1, 49379, Control_c, 0, 64, 93
1, 49394, Control_c, 0, 64, 91
1, 49409, Control_c, 0, 64, 85
1, 49423, Control_c, 0, 64, 74
1, 49438, Control_c, 0, 64, 66
1, 49453, Control_c, 0, 64, 59
1, 49468, Control_c, 0, 64, 46
1, 49483, Control_c, 0, 64, 14
1, 49505, Control_c, 0, 64, 0
1, 49594, Control_c, 0, 64, 31
1, 49609, Control_c, 0, 64, 49
1, 49623, Control_c, 0, 64, 64
1, 49633, Note_on_c, 0, 74, 73
1, 49638, Control_c, 0, 64, 73
1, 49653, Control_c, 0, 64, 76
1, 49669, Control_c, 0, 64, 77
1, 49684, Control_c, 0, 64, 81
1, 49699, Control_c, 0, 64, 85
1, 49704, Note_on_c, 0, 78, 86
1, 49714, Control_c, 0, 64, 92
1, 49724, Note_off_c, 0, 74, 59
1, 49728, Control_c, 0, 64, 95
1, 49743, Control_c, 0, 64, 97
1, 49758, Control_c, 0, 64, 101
1, 49772, Note_on_c, 0, 81, 87
1, 49772, Control_c, 0, 64, 106
1, 49787, Control_c, 0, 64, 110
1, 49802, Control_c, 0, 64, 111
1, 49808, Note_off_c, 0, 78, 65
1, 49901, Note_on_c, 0, 50, 61
1, 49905, Note_on_c, 0, 54, 62
1, 49906, Control_c, 0, 64, 108
1, 49910, Note_on_c, 0, 57, 62
1, 49916, Note_on_c, 0, 86, 94
1, 49921, Control_c, 0, 64, 103
1, 49936, Control_c, 0, 64, 92
1, 49941, Note_off_c, 0, 81, 62
1, 49951, Control_c, 0, 64, 76
1, 49965, Control_c, 0, 64, 62
1, 49980, Control_c, 0, 64, 40
1, 49995, Control_c, 0, 64, 0
1, 50054, Control_c, 0, 64, 34
1, 50069, Control_c, 0, 64, 50
1, 50084, Control_c, 0, 64, 64
1, 50099, Control_c, 0, 64, 77
1, 50113, Control_c, 0, 64, 79
1, 50128, Control_c, 0, 64, 81
1, 50143, Control_c, 0, 64, 84
1, 50158, Control_c, 0, 64, 88
1, 50172, Control_c, 0, 64, 92
1, 50187, Control_c, 0, 64, 93
1, 50202, Control_c, 0, 64, 94
1, 50223, Note_off_c, 0, 86, 58
1, 50226, Note_on_c, 0, 88, 74
1, 50232, Control_c, 0, 64, 94
1, 50303, Note_on_c, 0, 86, 78
1, 50303, Note_off_c, 0, 88, 67
1, 50328, Control_c, 0, 64, 94
1, 50343, Control_c, 0, 64, 92
1, 50358, Control_c, 0, 64, 85
1, 50363, Note_on_c, 0, 85, 88
1, 50363, Note_off_c, 0, 86, 64
1, 50372, Control_c, 0, 64, 76
1, 50387, Control_c, 0, 64, 68
1, 50402, Control_c, 0, 64, 63
1, 50417, Control_c, 0, 64, 56
1, 50426, Note_on_c, 0, 86, 85
1, 50432, Control_c, 0, 64, 37
1, 50446, Control_c, 0, 64, 0
1, 50452, Note_off_c, 0, 85, 64
1, 50537, Control_c, 0, 64, 16
1, 50551, Control_c, 0, 64, 40
1, 50566, Control_c, 0, 64, 57
1, 50581, Control_c, 0, 64, 73
1, 50595, Control_c, 0, 64, 83
1, 50610, Control_c, 0, 64, 85
1, 50625, Control_c, 0, 64, 86
1, 50640, Control_c, 0, 64, 88
1, 50655, Control_c, 0, 64, 92
1, 50669, Control_c, 0, 64, 98
1, 50684, Control_c, 0, 64, 101
1, 50699, Control_c, 0, 64, 104
1, 50714, Control_c, 0, 64, 106
1, 50729, Control_c, 0, 64, 108
1, 50744, Note_off_c, 0, 54, 64
1, 50744, Control_c, 0, 64, 110
1, 50758, Control_c, 0, 64, 113
1, 50773, Control_c, 0, 64, 114
1, 50788, Control_c, 0, 64, 115
1, 50818, Control_c, 0, 64, 117
1, 50833, Control_c, 0, 64, 119
1, 50867, Note_off_c, 0, 57, 36
1, 50980, Note_on_c, 0, 88, 88
1, 51048, Control_c, 0, 64, 114
1, 51051, Note_off_c, 0, 86, 51
1, 51062, Control_c, 0, 64, 108
1, 51077, Control_c, 0, 64, 105
1, 51092, Control_c, 0, 64, 101
1, 51107, Control_c, 0, 64, 95
1, 51121, Control_c, 0, 64, 86
1, 51128, Note_on_c, 0, 85, 78
1, 51136, Control_c, 0, 64, 73
1, 51137, Note_on_c, 0, 57, 41
1, 51143, Note_on_c, 0, 61, 48
1, 51145, Note_on_c, 0, 55, 47
1, 51151, Control_c, 0, 64, 62
1, 51152, Note_on_c, 0, 52, 43
1, 51166, Control_c, 0, 64, 47
1, 51170, Note_off_c, 0, 88, 65
1, 51181, Control_c, 0, 64, 8
1, 51181, Control_c, 0, 67, 8
1, 51195, Control_c, 0, 64, 0
1, 51210, Control_c, 0, 67, 9
1, 51225, Control_c, 0, 67, 10
1, 51240, Control_c, 0, 67, 11
1, 51251, Note_off_c, 0, 50, 46
1, 51255, Control_c, 0, 67, 12
1, 51271, Control_c, 0, 67, 14
1, 51285, Control_c, 0, 67, 18
1, 51300, Control_c, 0, 67, 22
1, 51315, Control_c, 0, 67, 29
1, 51330, Control_c, 0, 67, 35
1, 51345, Control_c, 0, 67, 41
1, 51360, Control_c, 0, 67, 47
1, 51374, Control_c, 0, 67, 52
1, 51389, Control_c, 0, 64, 16
1, 51389, Control_c, 0, 67, 56
1, 51404, Control_c, 0, 64, 36
1, 51404, Control_c, 0, 67, 61
1, 51418, Control_c, 0, 64, 51
1, 51418, Control_c, 0, 67, 65
1, 51433, Control_c, 0, 64, 63
1, 51433, Control_c, 0, 67, 71
1, 51448, Control_c, 0, 64, 69
1, 51448, Control_c, 0, 67, 77
1, 51463, Control_c, 0, 64, 74
1, 51463, Control_c, 0, 67, 85
1, 51478, Control_c, 0, 64, 77
1, 51478, Control_c, 0, 67, 94
1, 51490, Note_off_c, 0, 85, 65
1, 51492, Control_c, 0, 64, 81
1, 51492, Control_c, 0, 67, 104
1, 51507, Control_c, 0, 64, 88
1, 51507, Control_c, 0, 67, 115
1, 51522, Control_c, 0, 64, 96
1, 51522, Control_c, 0, 67, 123
1, 51536, Control_c, 0, 64, 104
1, 51536, Control_c, 0, 67, 127
1, 51551, Control_c, 0, 64, 113
1, 51566, Control_c, 0, 64, 127
1, 51754, Note_off_c, 0, 61, 55
1, 51781, Note_off_c, 0, 52, 39
1, 51862, Note_off_c, 0, 55, 40
1, 51961, Note_off_c, 0, 57, 38
1, 52152, Note_on_c, 0, 69, 54
1, 52153, Control_c, 0, 64, 108
1, 52167, Control_c, 0, 64, 99
1, 52182, Control_c, 0, 64, 89
1, 52197, Control_c, 0, 64, 77
1, 52212, Control_c, 0, 64, 67
1, 52227, Control_c, 0, 64, 58
1, 52241, Control_c, 0, 64, 39
1, 52256, Control_c, 0, 64, 0
1, 52310, Note_off_c, 0, 69, 61
1, 52314, Note_on_c, 0, 71, 60
1, 52330, Control_c, 0, 64, 24
1, 52345, Control_c, 0, 64, 40
1, 52359, Control_c, 0, 64, 53
1, 52374, Control_c, 0, 64, 63
1, 52382, Note_off_c, 0, 71, 64
1, 52389, Control_c, 0, 64, 67
1, 52391, Note_on_c, 0, 73, 71
1, 52404, Control_c, 0, 64, 69
1, 52419, Control_c, 0, 64, 71
1, 52433, Note_off_c, 0, 73, 64
1, 52434, Control_c, 0, 64, 75
1, 52449, Control_c, 0, 64, 79
1, 52454, Note_on_c, 0, 74, 79
1, 52463, Control_c, 0, 64, 83
1, 52478, Control_c, 0, 64, 87
1, 52501, Control_c, 0, 64, 89
1, 52511, Note_off_c, 0, 74, 68
1, 52515, Control_c, 0, 64, 92
1, 52522, Note_on_c, 0, 76, 72
1, 52530, Control_c, 0, 64, 97
1, 52545, Control_c, 0, 64, 103
1, 52560, Control_c, 0, 64, 111
1, 52574, Control_c, 0, 64, 127
1, 52580, Note_on_c, 0, 78, 89
1, 52583, Note_off_c, 0, 76, 67
1, 52604, Control_c, 0, 67, 124
1, 52619, Control_c, 0, 67, 98
1, 52627, Note_off_c, 0, 78, 66
1, 52634, Control_c, 0, 67, 62
1, 52648, Note_on_c, 0, 79, 91
1, 52648, Control_c, 0, 67, 19
1, 52663, Control_c, 0, 67, 0
1, 52713, Note_on_c, 0, 81, 92
1, 52716, Note_off_c, 0, 79, 62
1, 52778, Note_on_c, 0, 83, 85
1, 52800, Note_off_c, 0, 81, 63
1, 52888, Note_on_c, 0, 52, 55
1, 52901, Note_on_c, 0, 55, 51
1, 52903, Note_on_c, 0, 61, 61
1, 52919, Note_on_c, 0, 85, 78
1, 52925, Note_off_c, 0, 83, 65
1, 52931, Control_c, 0, 64, 100
1, 52946, Control_c, 0, 64, 80
1, 52961, Control_c, 0, 64, 63
1, 52976, Control_c, 0, 64, 46
1, 52990, Control_c, 0, 64, 0
1, 53035, Control_c, 0, 64, 9
1, 53050, Control_c, 0, 64, 37
1, 53064, Control_c, 0, 64, 56
1, 53079, Control_c, 0, 64, 69
1, 53092, Note_off_c, 0, 85, 59
1, 53094, Control_c, 0, 64, 80
1, 53109, Control_c, 0, 64, 82
1, 53124, Control_c, 0, 64, 84
1, 53138, Control_c, 0, 64, 89
1, 53153, Control_c, 0, 64, 95
1, 53168, Control_c, 0, 64, 98
1, 53182, Control_c, 0, 64, 99
1, 53197, Control_c, 0, 64, 99
1, 53212, Control_c, 0, 64, 100
1, 53215, Note_on_c, 0, 86, 64
1, 53227, Control_c, 0, 64, 101
1, 53250, Control_c, 0, 64, 102
1, 53286, Note_on_c, 0, 85, 66
1, 53289, Note_off_c, 0, 86, 61
1, 53338, Control_c, 0, 64, 98
1, 53345, Note_off_c, 0, 85, 64
1, 53353, Control_c, 0, 64, 88
1, 53356, Note_on_c, 0, 83, 75
1, 53368, Control_c, 0, 64, 85
1, 53383, Control_c, 0, 64, 83
1, 53397, Control_c, 0, 64, 78
1, 53412, Control_c, 0, 64, 68
1, 53423, Note_on_c, 0, 85, 73
1, 53427, Control_c, 0, 64, 59
1, 53429, Note_off_c, 0, 83, 63
1, 53442, Control_c, 0, 64, 35
1, 53457, Control_c, 0, 64, 0
1, 53531, Control_c, 0, 64, 17
1, 53546, Control_c, 0, 64, 43
1, 53560, Control_c, 0, 64, 59
1, 53575, Control_c, 0, 64, 72
1, 53590, Control_c, 0, 64, 79
1, 53605, Control_c, 0, 64, 80
1, 53620, Note_off_c, 0, 52, 36
1, 53620, Control_c, 0, 64, 82
1, 53635, Control_c, 0, 64, 88
1, 53646, Note_off_c, 0, 55, 64
1, 53650, Control_c, 0, 64, 97
1, 53665, Control_c, 0, 64, 105
1, 53680, Control_c, 0, 64, 109
1, 53695, Control_c, 0, 64, 114
1, 53702, Note_off_c, 0, 61, 61
1, 53710, Control_c, 0, 64, 117
1, 53724, Control_c, 0, 64, 127
1, 53841, Note_on_c, 0, 86, 95
1, 53882, Note_off_c, 0, 85, 60
1, 53962, Note_on_c, 0, 84, 89
1, 53993, Note_on_c, 0, 60, 60
1, 53995, Note_on_c, 0, 54, 58
1, 53996, Note_on_c, 0, 63, 63
1, 54006, Note_on_c, 0, 57, 60
1, 54012, Control_c, 0, 64, 86
1, 54019, Note_off_c, 0, 86, 60
1, 54026, Control_c, 0, 64, 70
1, 54041, Control_c, 0, 64, 61
1, 54056, Control_c, 0, 64, 46
1, 54071, Control_c, 0, 64, 0
1, 54160, Control_c, 0, 64, 29
1, 54175, Control_c, 0, 64, 46
1, 54189, Control_c, 0, 64, 61
1, 54204, Control_c, 0, 64, 70
1, 54219, Control_c, 0, 64, 73
1, 54234, Control_c, 0, 64, 74
1, 54249, Control_c, 0, 64, 76
1, 54252, Note_off_c, 0, 84, 60
1, 54262, Note_on_c, 0, 86, 69
1, 54264, Control_c, 0, 64, 81
1, 54279, Control_c, 0, 64, 86
1, 54293, Control_c, 0, 64, 89
1, 54308, Control_c, 0, 64, 90
1, 54333, Note_on_c, 0, 84, 75
1, 54336, Note_off_c, 0, 86, 60
1, 54397, Control_c, 0, 64, 86
1, 54401, Note_on_c, 0, 83, 78
1, 54401, Note_off_c, 0, 84, 64
1, 54411, Control_c, 0, 64, 82
1, 54426, Control_c, 0, 64, 80
1, 54441, Control_c, 0, 64, 78
1, 54457, Control_c, 0, 64, 75
1, 54471, Note_on_c, 0, 84, 75
1, 54472, Control_c, 0, 64, 70
1, 54487, Control_c, 0, 64, 62
1, 54497, Note_off_c, 0, 83, 64
1, 54502, Control_c, 0, 64, 52
1, 54516, Control_c, 0, 64, 35
1, 54531, Control_c, 0, 64, 0
1, 54649, Control_c, 0, 64, 11
1, 54664, Control_c, 0, 64, 33
1, 54679, Control_c, 0, 64, 50
1, 54694, Control_c, 0, 64, 62
1, 54708, Control_c, 0, 64, 69
1, 54723, Control_c, 0, 64, 72
1, 54746, Control_c, 0, 64, 74
1, 54760, Control_c, 0, 64, 79
1, 54775, Control_c, 0, 64, 86
1, 54775, Control_c, 0, 67, 9
1, 54790, Control_c, 0, 64, 94
1, 54790, Control_c, 0, 67, 10
1, 54805, Control_c, 0, 64, 97
1, 54805, Control_c, 0, 67, 12
1, 54806, Note_off_c, 0, 57, 58
1, 54820, Control_c, 0, 64, 99
1, 54820, Control_c, 0, 67, 14
1, 54830, Note_off_c, 0, 54, 31
1, 54834, Control_c, 0, 64, 101
1, 54834, Control_c, 0, 67, 17
1, 54849, Control_c, 0, 64, 108
1, 54849, Control_c, 0, 67, 19
1, 54864, Control_c, 0, 64, 122
1, 54864, Control_c, 0, 67, 20
1, 54879, Control_c, 0, 64, 127
1, 54938, Control_c, 0, 67, 20
1, 55001, Note_off_c, 0, 63, 43
1, 55044, Note_on_c, 0, 86, 78
1, 55075, Note_off_c, 0, 84, 64
1, 55146, Control_c, 0, 64, 114
1, 55146, Control_c, 0, 67, 20
1, 55160, Control_c, 0, 64, 101
1, 55175, Control_c, 0, 64, 98
1, 55175, Control_c, 0, 67, 21
1, 55185, Note_on_c, 0, 83, 71
1, 55190, Control_c, 0, 64, 92
1, 55190, Control_c, 0, 67, 21
1, 55200, Note_on_c, 0, 59, 45
1, 55204, Note_on_c, 0, 55, 39
1, 55205, Control_c, 0, 64, 83
1, 55205, Control_c, 0, 67, 22
1, 55206, Note_on_c, 0, 64, 42
1, 55220, Control_c, 0, 64, 71
1, 55220, Control_c, 0, 67, 25
1, 55230, Note_off_c, 0, 86, 65
1, 55234, Control_c, 0, 64, 62
1, 55234, Control_c, 0, 67, 31
1, 55249, Control_c, 0, 64, 45
1, 55249, Control_c, 0, 67, 37
1, 55265, Control_c, 0, 64, 0
1, 55265, Control_c, 0, 67, 40
1, 55280, Control_c, 0, 67, 42
1, 55295, Control_c, 0, 67, 44
1, 55310, Control_c, 0, 67, 44
1, 55324, Note_off_c, 0, 60, 65
1, 55325, Control_c, 0, 67, 45
1, 55339, Control_c, 0, 67, 45
1, 55429, Control_c, 0, 67, 46
1, 55540, Control_c, 0, 67, 46
1, 55673, Control_c, 0, 67, 47
1, 55688, Control_c, 0, 67, 47
1, 55703, Control_c, 0, 67, 48
1, 55717, Control_c, 0, 67, 49
1, 55732, Control_c, 0, 67, 49
1, 55791, Control_c, 0, 67, 50
1, 55806, Control_c, 0, 64, 23
1, 55806, Control_c, 0, 67, 50
1, 55821, Control_c, 0, 64, 42
1, 55821, Control_c, 0, 67, 52
1, 55836, Control_c, 0, 64, 59
1, 55836, Control_c, 0, 67, 56
1, 55851, Control_c, 0, 64, 67
1, 55851, Control_c, 0, 67, 64
1, 55865, Control_c, 0, 64, 72
1, 55865, Control_c, 0, 67, 73
1, 55880, Control_c, 0, 64, 75
1, 55880, Control_c, 0, 67, 83
1, 55895, Control_c, 0, 64, 80
1, 55895, Control_c, 0, 67, 93
1, 55907, Note_off_c, 0, 64, 60
1, 55909, Control_c, 0, 64, 89
1, 55909, Control_c, 0, 67, 103
1, 55924, Control_c, 0, 64, 104
1, 55924, Control_c, 0, 67, 112
1, 55939, Control_c, 0, 64, 117
1, 55939, Control_c, 0, 67, 122
1, 55954, Control_c, 0, 64, 127
1, 55954, Control_c, 0, 67, 127
1, 56047, Note_off_c, 0, 55, 43
1, 56105, Note_off_c, 0, 83, 63
1, 56109, Note_on_c, 0, 81, 66
1, 56157, Note_off_c, 0, 81, 61
1, 56183, Note_on_c, 0, 79, 72
1, 56260, Note_on_c, 0, 78, 79
1, 56268, Note_off_c, 0, 79, 59
1, 56336, Note_on_c, 0, 76, 82
1, 56360, Note_off_c, 0, 78, 67
1, 56363, Control_c, 0, 64, 111
1, 56377, Control_c, 0, 64, 100
1, 56392, Control_c, 0, 64, 96
1, 56407, Control_c, 0, 64, 94
1, 56422, Control_c, 0, 64, 92
1, 56437, Control_c, 0, 64, 86
1, 56452, Control_c, 0, 64, 77
1, 56467, Control_c, 0, 64, 71
1, 56481, Control_c, 0, 64, 67
1, 56496, Control_c, 0, 64, 65
1, 56511, Control_c, 0, 64, 61
1, 56519, Note_on_c, 0, 62, 44
1, 56520, Note_on_c, 0, 81, 81
1, 56526, Control_c, 0, 64, 52
1, 56526, Note_on_c, 0, 66, 42
1, 56532, Note_on_c, 0, 57, 35
1, 56540, Control_c, 0, 64, 34
1, 56555, Control_c, 0, 64, 0
1, 56556, Note_off_c, 0, 76, 65
1, 56653, Note_off_c, 0, 59, 62
1, 57526, Control_c, 0, 64, 18
1, 57541, Control_c, 0, 64, 36
1, 57555, Control_c, 0, 64, 52
1, 57570, Control_c, 0, 64, 62
1, 57585, Control_c, 0, 64, 66
1, 57600, Control_c, 0, 64, 69
1, 57615, Control_c, 0, 64, 72
1, 57629, Control_c, 0, 64, 78
1, 57644, Control_c, 0, 64, 84
1, 57660, Control_c, 0, 64, 89
1, 57675, Control_c, 0, 64, 92
1, 57690, Control_c, 0, 64, 94
1, 57705, Control_c, 0, 64, 94
1, 57801, Control_c, 0, 64, 94
1, 57875, Control_c, 0, 64, 93
1, 57890, Control_c, 0, 64, 92
1, 57904, Control_c, 0, 64, 91
1, 57919, Control_c, 0, 64, 90
1, 57934, Control_c, 0, 64, 89
1, 57949, Control_c, 0, 64, 88
1, 57964, Control_c, 0, 64, 86
1, 57972, Note_off_c, 0, 66, 45
1, 57978, Control_c, 0, 64, 83
1, 57993, Control_c, 0, 64, 81
1, 58008, Control_c, 0, 64, 79
1, 58023, Control_c, 0, 64, 76
1, 58038, Note_on_c, 0, 79, 50
1, 58038, Control_c, 0, 64, 70
1, 58044, Note_off_c, 0, 81, 49
1, 58053, Control_c, 0, 64, 66
1, 58068, Control_c, 0, 64, 63
1, 58082, Control_c, 0, 64, 60
1, 58097, Control_c, 0, 64, 55
1, 58112, Control_c, 0, 64, 44
1, 58112, Note_off_c, 0, 79, 62
1, 58124, Note_on_c, 0, 78, 59
1, 58127, Control_c, 0, 64, 23
1, 58130, Note_off_c, 0, 57, 36
1, 58142, Control_c, 0, 64, 0
1, 58153, Note_off_c, 0, 62, 34
1, 58199, Note_off_c, 0, 78, 66
1, 58209, Note_on_c, 0, 76, 62
1, 58251, Note_off_c, 0, 76, 60
1, 58298, Note_on_c, 0, 74, 57
1, 58393, Note_off_c, 0, 74, 57
1, 58424, Note_on_c, 0, 73, 55
1, 58446, Note_on_c, 0, 64, 26
1, 58448, Note_on_c, 0, 57, 24
1, 58496, Note_off_c, 0, 73, 63
1, 58917, Note_on_c, 0, 76, 57
1, 58931, Note_off_c, 0, 57, 56
1, 58944, Note_on_c, 0, 67, 35
1, 58990, Note_off_c, 0, 67, 47
1, 58995, Note_off_c, 0, 76, 62
1, 59018, Note_off_c, 0, 64, 45
1, 59515, Note_on_c, 0, 50, 24
1, 59516, Note_on_c, 0, 74, 48
1, 59528, Note_on_c, 0, 66, 36
1, 59565, Control_c, 0, 64, 16
1, 59580, Control_c, 0, 64, 29
1, 59595, Control_c, 0, 64, 38
1, 59610, Control_c, 0, 64, 47
1, 59624, Control_c, 0, 64, 56
1, 59639, Control_c, 0, 64, 61
1, 59654, Control_c, 0, 64, 63
1, 59669, Control_c, 0, 64, 64
1, 59683, Control_c, 0, 64, 66
1, 59698, Control_c, 0, 64, 68
1, 59713, Control_c, 0, 64, 70
1, 59728, Control_c, 0, 64, 72
1, 59743, Control_c, 0, 64, 74
1, 59758, Control_c, 0, 64, 75
1, 59773, Control_c, 0, 64, 76
1, 59840, Note_off_c, 0, 66, 42
1, 59843, Note_off_c, 0, 50, 37
1, 59884, Note_off_c, 0, 74, 36
1, 59936, Control_c, 0, 64, 75
1, 59950, Control_c, 0, 64, 74
1, 59965, Control_c, 0, 64, 72
1, 59987, Control_c, 0, 64, 70
1, 60002, Control_c, 0, 64, 69
1, 60017, Control_c, 0, 64, 67
1, 60032, Control_c, 0, 64, 64
1, 60047, Control_c, 0, 64, 59
1, 60062, Control_c, 0, 64, 52
1, 60077, Control_c, 0, 64, 43
1, 60092, Control_c, 0, 64, 29
1, 60107, Control_c, 0, 64, 0
1, 60492, Control_c, 0, 64, 19
1, 60506, Control_c, 0, 64, 26
1, 60521, Control_c, 0, 64, 33
1, 60536, Control_c, 0, 64, 40
1, 60551, Control_c, 0, 64, 48
1, 60555, Note_on_c, 0, 62, 36
1, 60566, Control_c, 0, 64, 54
1, 60580, Control_c, 0, 64, 58
1, 60595, Control_c, 0, 64, 60
1, 60610, Control_c, 0, 64, 60
1, 60625, Control_c, 0, 64, 61
1, 60640, Control_c, 0, 64, 63
1, 60655, Control_c, 0, 64, 65
1, 60670, Control_c, 0, 64, 67
1, 60685, Control_c, 0, 64, 69
1, 60699, Control_c, 0, 64, 71
1, 60714, Control_c, 0, 64, 72
1, 60736, Control_c, 0, 64, 73
1, 60751, Control_c, 0, 64, 74
1, 60780, Control_c, 0, 64, 74
1, 60800, Note_off_c, 0, 62, 43
1, 60810, Control_c, 0, 64, 75
1, 61241, Control_c, 0, 64, 74
1, 61300, Control_c, 0, 64, 74
1, 61315, Control_c, 0, 64, 73
1, 61329, Control_c, 0, 64, 73
1, 61344, Control_c, 0, 64, 72
1, 61359, Control_c, 0, 64, 72
1, 61374, Control_c, 0, 64, 70
1, 61389, Control_c, 0, 64, 69
1, 61403, Control_c, 0, 64, 67
1, 61418, Control_c, 0, 64, 66
1, 61433, Control_c, 0, 64, 64
1, 61448, Control_c, 0, 64, 61
1, 61463, Control_c, 0, 64, 56
1, 61485, Control_c, 0, 64, 49
1, 61500, Control_c, 0, 64, 45
1, 61500, Control_c, 0, 67, 106
1, 61515, Control_c, 0, 64, 43
1, 61515, Control_c, 0, 67, 78
1, 61529, Control_c, 0, 64, 38
1, 61529, Control_c, 0, 67, 48
1, 61544, Control_c, 0, 64, 26
1, 61544, Control_c, 0, 67, 18
1, 61559, Control_c, 0, 64, 0
1, 61559, Control_c, 0, 67, 0
1, 61945, Control_c, 0, 64, 27
1, 61960, Control_c, 0, 64, 43
1, 61975, Control_c, 0, 64, 57
1, 61990, Control_c, 0, 64, 69
1, 62005, Control_c, 0, 64, 82
1, 62019, Control_c, 0, 64, 89
1, 62034, Control_c, 0, 64, 105
1, 62049, Control_c, 0, 64, 127
1, 62156, Note_on_c, 0, 57, 76
1, 62530, Note_on_c, 0, 62, 81
1, 62550, Note_on_c, 0, 54, 48
1, 62554, Note_on_c, 0, 38, 46
1, 62560, Note_on_c, 0, 50, 50
1, 62562, Note_on_c, 0, 42, 44
1, 62569, Note_on_c, 0, 45, 50
1, 62605, Control_c, 0, 64, 86
1, 62620, Control_c, 0, 64, 67
1, 62623, Note_off_c, 0, 57, 49
1, 62635, Control_c, 0, 64, 57
1, 62649, Control_c, 0, 64, 38
1, 62664, Control_c, 0, 64, 0
1, 62828, Control_c, 0, 64, 24
1, 62842, Control_c, 0, 64, 40
1, 62857, Control_c, 0, 64, 55
1, 62872, Control_c, 0, 64, 67
1, 62887, Control_c, 0, 64, 79
1, 62901, Control_c, 0, 64, 88
1, 62916, Control_c, 0, 64, 103
1, 62931, Control_c, 0, 64, 127
1, 63004, Note_off_c, 0, 62, 52
1, 63049, Note_off_c, 0, 38, 40
1, 63180, Note_off_c, 0, 42, 50
1, 63213, Note_off_c, 0, 45, 34
1, 63284, Note_off_c, 0, 50, 59
1, 63377, Note_on_c, 0, 62, 61
1, 63428, Note_off_c, 0, 54, 56
1, 63533, Note_off_c, 0, 62, 61
1, 63655, Note_on_c, 0, 62, 51
1, 63821, Control_c, 0, 64, 76
1, 63824, Note_on_c, 0, 49, 50
1, 63836, Control_c, 0, 64, 62
1, 63850, Control_c, 0, 64, 46
1, 63865, Control_c, 0, 64, 16
1, 63880, Control_c, 0, 64, 20
1, 63895, Control_c, 0, 64, 30
1, 63910, Control_c, 0, 64, 42
1, 63924, Control_c, 0, 64, 56
1, 63939, Control_c, 0, 64, 68
1, 63954, Control_c, 0, 64, 89
1, 63967, Note_on_c, 0, 50, 69
1, 63969, Control_c, 0, 64, 93
1, 63984, Control_c, 0, 64, 95
1, 63997, Note_off_c, 0, 62, 62
1, 63998, Control_c, 0, 64, 104
1, 64013, Control_c, 0, 64, 127
1, 64021, Note_off_c, 0, 49, 64
1, 64108, Note_on_c, 0, 54, 74
1, 64118, Control_c, 0, 64, 102
1, 64133, Control_c, 0, 64, 84
1, 64147, Note_off_c, 0, 50, 63
1, 64147, Control_c, 0, 64, 74
1, 64162, Control_c, 0, 64, 69
1, 64177, Control_c, 0, 64, 63
1, 64192, Control_c, 0, 64, 53
1, 64207, Control_c, 0, 64, 31
1, 64221, Control_c, 0, 64, 0
1, 64234, Note_on_c, 0, 57, 78
1, 64283, Note_off_c, 0, 54, 64
1, 64325, Control_c, 0, 64, 18
1, 64339, Control_c, 0, 64, 40
1, 64354, Control_c, 0, 64, 56
1, 64362, Note_on_c, 0, 61, 81
1, 64369, Control_c, 0, 64, 66
1, 64384, Control_c, 0, 64, 73
1, 64429, Control_c, 0, 64, 72
1, 64444, Control_c, 0, 64, 70
1, 64453, Note_off_c, 0, 57, 46
1, 64459, Control_c, 0, 64, 66
1, 64480, Control_c, 0, 64, 61
1, 64495, Control_c, 0, 64, 52
1, 64502, Note_off_c, 0, 61, 67
1, 64510, Control_c, 0, 64, 36
1, 64512, Note_on_c, 0, 62, 80
1, 64525, Control_c, 0, 64, 8
1, 64540, Control_c, 0, 64, 0
1, 64649, Note_on_c, 0, 66, 80
1, 64683, Note_off_c, 0, 62, 62
1, 64776, Note_on_c, 0, 69, 80
1, 64807, Note_off_c, 0, 66, 64
1, 64939, Note_on_c, 0, 74, 72
1, 64980, Note_off_c, 0, 69, 63
1, 65079, Note_on_c, 0, 69, 78
1, 65108, Note_off_c, 0, 74, 66
1, 65228, Note_on_c, 0, 66, 81
1, 65263, Note_off_c, 0, 69, 64
1, 65493, Note_on_c, 0, 50, 37
1, 65496, Note_on_c, 0, 55, 45
1, 65497, Note_on_c, 0, 64, 66
1, 65562, Note_off_c, 0, 66, 62
1, 66024, Control_c, 0, 64, 17
1, 66039, Control_c, 0, 64, 30
1, 66053, Control_c, 0, 64, 41
1, 66068, Control_c, 0, 64, 55
1, 66083, Control_c, 0, 64, 62
1, 66098, Control_c, 0, 64, 65
1, 66113, Control_c, 0, 64, 67
1, 66127, Control_c, 0, 64, 69
1, 66142, Control_c, 0, 64, 72
1, 66157, Control_c, 0, 64, 78
1, 66172, Control_c, 0, 64, 81
1, 66187, Control_c, 0, 64, 84
1, 66201, Control_c, 0, 64, 87
1, 66216, Control_c, 0, 64, 89
1, 66231, Control_c, 0, 64, 91
1, 66245, Control_c, 0, 64, 92
1, 66247, Note_on_c, 0, 61, 58
1, 66260, Control_c, 0, 64, 93
1, 66275, Control_c, 0, 64, 95
1, 66276, Note_off_c, 0, 64, 63
1, 66290, Control_c, 0, 64, 95
1, 66305, Control_c, 0, 64, 96
1, 66438, Control_c, 0, 64, 95
1, 66468, Control_c, 0, 64, 93
1, 66483, Control_c, 0, 64, 90
1, 66494, Note_off_c, 0, 61, 64
1, 66498, Control_c, 0, 64, 86
1, 66513, Control_c, 0, 64, 83
1, 66516, Note_on_c, 0, 62, 63
1, 66528, Control_c, 0, 64, 78
1, 66542, Note_on_c, 0, 54, 43
1, 66542, Control_c, 0, 64, 70
1, 66557, Control_c, 0, 64, 62
1, 66572, Control_c, 0, 64, 49
1, 66587, Control_c, 0, 64, 16
1, 66590, Note_off_c, 0, 55, 64
1, 66602, Control_c, 0, 64, 0
1, 66674, Control_c, 0, 64, 24
1, 66676, Note_on_c, 0, 69, 64
1, 66689, Control_c, 0, 64, 42
1, 66704, Control_c, 0, 64, 56
1, 66727, Control_c, 0, 64, 66
1, 66735, Note_off_c, 0, 62, 48
1, 66741, Control_c, 0, 64, 70
1, 66756, Control_c, 0, 64, 72
1, 66771, Control_c, 0, 64, 74
1, 66786, Control_c, 0, 64, 78
1, 66801, Control_c, 0, 64, 82
1, 66805, Note_on_c, 0, 66, 78
1, 66812, Note_off_c, 0, 50, 41
1, 66815, Control_c, 0, 64, 86
1, 66820, Note_off_c, 0, 69, 64
1, 66830, Control_c, 0, 64, 91
1, 66845, Control_c, 0, 64, 93
1, 66860, Control_c, 0, 64, 94
1, 66874, Control_c, 0, 64, 94
1, 66889, Control_c, 0, 64, 88
1, 66904, Control_c, 0, 64, 73
1, 66919, Control_c, 0, 64, 59
1, 66934, Control_c, 0, 64, 37
1, 66945, Note_on_c, 0, 74, 70
1, 66948, Control_c, 0, 64, 0
1, 66963, Control_c, 0, 64, 16
1, 66974, Note_off_c, 0, 66, 63
1, 66978, Control_c, 0, 64, 31
1, 66983, Note_off_c, 0, 54, 48
1, 66993, Control_c, 0, 64, 44
1, 67008, Control_c, 0, 64, 58
1, 67022, Control_c, 0, 64, 74
1, 67037, Control_c, 0, 64, 87
1, 67052, Control_c, 0, 64, 88
1, 67059, Note_off_c, 0, 74, 66
1, 67067, Control_c, 0, 64, 89
1, 67072, Note_on_c, 0, 69, 81
1, 67082, Control_c, 0, 64, 94
1, 67097, Control_c, 0, 64, 104
1, 67112, Control_c, 0, 64, 115
1, 67127, Control_c, 0, 64, 122
1, 67141, Control_c, 0, 64, 127
1, 67192, Note_off_c, 0, 69, 53
1, 67194, Note_on_c, 0, 78, 85
1, 67276, Control_c, 0, 64, 100
1, 67290, Control_c, 0, 64, 75
1, 67305, Control_c, 0, 64, 59
1, 67320, Control_c, 0, 64, 37
1, 67335, Control_c, 0, 64, 0
1, 67336, Note_on_c, 0, 74, 81
1, 67343, Note_off_c, 0, 78, 65
1, 67394, Control_c, 0, 64, 34
1, 67409, Control_c, 0, 64, 47
1, 67424, Control_c, 0, 64, 59
1, 67438, Control_c, 0, 64, 67
1, 67453, Control_c, 0, 64, 72
1, 67468, Note_on_c, 0, 81, 89
1, 67475, Control_c, 0, 64, 72
1, 67490, Control_c, 0, 64, 74
1, 67505, Control_c, 0, 64, 78
1, 67508, Note_off_c, 0, 74, 58
1, 67520, Control_c, 0, 64, 85
1, 67535, Control_c, 0, 64, 88
1, 67550, Control_c, 0, 64, 89
1, 67589, Note_on_c, 0, 78, 94
1, 67594, Control_c, 0, 64, 89
1, 67602, Note_off_c, 0, 81, 62
1, 67624, Control_c, 0, 64, 88
1, 67638, Control_c, 0, 64, 85
1, 67653, Control_c, 0, 64, 83
1, 67668, Control_c, 0, 64, 81
1, 67683, Control_c, 0, 64, 75
1, 67697, Control_c, 0, 64, 67
1, 67697, Control_c, 0, 67, 8
1, 67712, Control_c, 0, 64, 61
1, 67727, Control_c, 0, 64, 55
1, 67742, Control_c, 0, 64, 49
1, 67757, Control_c, 0, 64, 42
1, 67757, Control_c, 0, 67, 8
1, 67760, Note_on_c, 0, 86, 78
1, 67771, Control_c, 0, 64, 31
1, 67786, Control_c, 0, 64, 11
1, 67786, Control_c, 0, 67, 9
1, 67801, Control_c, 0, 64, 0
1, 67804, Note_off_c, 0, 78, 65
1, 67815, Control_c, 0, 67, 9
1, 67830, Control_c, 0, 67, 10
1, 67860, Control_c, 0, 67, 10
1, 67890, Control_c, 0, 67, 11
1, 67897, Note_on_c, 0, 85, 81
1, 67905, Control_c, 0, 67, 13
1, 67919, Control_c, 0, 67, 14
1, 67928, Note_off_c, 0, 86, 61
1, 67934, Control_c, 0, 67, 15
1, 67994, Control_c, 0, 67, 15
1, 68018, Note_on_c, 0, 83, 78
1, 68039, Control_c, 0, 67, 16
1, 68054, Control_c, 0, 67, 17
1, 68069, Control_c, 0, 67, 17
1, 68077, Note_off_c, 0, 85, 56
1, 68083, Control_c, 0, 67, 18
1, 68098, Control_c, 0, 67, 19
1, 68113, Control_c, 0, 67, 20
1, 68128, Control_c, 0, 67, 20
1, 68143, Control_c, 0, 67, 21
1, 68158, Control_c, 0, 67, 24
1, 68168, Note_on_c, 0, 81, 74
1, 68173, Control_c, 0, 67, 25
1, 68181, Note_on_c, 0, 71, 50
1, 68185, Note_off_c, 0, 83, 65
1, 68187, Control_c, 0, 67, 28
1, 68202, Control_c, 0, 67, 30
1, 68204, Note_off_c, 0, 71, 62
1, 68224, Control_c, 0, 67, 32
1, 68239, Control_c, 0, 67, 35
1, 68253, Control_c, 0, 67, 40
1, 68268, Control_c, 0, 67, 45
1, 68283, Control_c, 0, 67, 48
1, 68298, Control_c, 0, 67, 49
1, 68301, Note_on_c, 0, 79, 73
1, 68306, Note_off_c, 0, 81, 61
1, 68313, Control_c, 0, 67, 50
1, 68328, Control_c, 0, 67, 52
1, 68343, Control_c, 0, 67, 54
1, 68358, Control_c, 0, 67, 56
1, 68373, Control_c, 0, 67, 59
1, 68387, Control_c, 0, 67, 64
1, 68402, Control_c, 0, 67, 69
1, 68405, Note_off_c, 0, 79, 59
1, 68414, Note_on_c, 0, 81, 78
1, 68417, Control_c, 0, 67, 73
1, 68432, Control_c, 0, 67, 77
1, 68442, Note_off_c, 0, 81, 61
1, 68446, Control_c, 0, 67, 80
1, 68461, Control_c, 0, 67, 80
1, 68557, Note_on_c, 0, 69, 63
1, 68564, Note_on_c, 0, 79, 74
1, 68575, Note_off_c, 0, 69, 64
1, 68682, Note_on_c, 0, 78, 72
1, 68689, Note_off_c, 0, 79, 60
1, 68727, Control_c, 0, 67, 80
1, 68742, Control_c, 0, 67, 79
1, 68797, Note_on_c, 0, 79, 74
1, 68802, Note_off_c, 0, 78, 65
1, 68838, Note_off_c, 0, 79, 63
1, 68847, Control_c, 0, 67, 79
1, 68943, Note_on_c, 0, 78, 72
1, 68947, Note_on_c, 0, 67, 50
1, 68978, Note_off_c, 0, 67, 61
1, 69077, Note_on_c, 0, 76, 77
1, 69088, Note_off_c, 0, 78, 63
1, 69201, Note_on_c, 0, 78, 76
1, 69207, Note_off_c, 0, 76, 64
1, 69243, Note_off_c, 0, 78, 69
1, 69323, Note_on_c, 0, 76, 75
1, 69343, Note_on_c, 0, 66, 55
1, 69368, Note_off_c, 0, 66, 63
1, 69403, Control_c, 0, 67, 78
1, 69417, Control_c, 0, 67, 77
1, 69432, Control_c, 0, 67, 77
1, 69435, Note_off_c, 0, 76, 64
1, 69447, Control_c, 0, 67, 75
1, 69455, Note_on_c, 0, 74, 73
1, 69461, Control_c, 0, 67, 74
1, 69476, Control_c, 0, 67, 71
1, 69491, Control_c, 0, 67, 67
1, 69506, Control_c, 0, 67, 59
1, 69521, Control_c, 0, 67, 43
1, 69535, Control_c, 0, 67, 22
1, 69550, Control_c, 0, 67, 0
1, 69574, Note_off_c, 0, 74, 66
1, 69574, Note_on_c, 0, 76, 77
1, 69610, Note_off_c, 0, 76, 66
1, 69720, Note_on_c, 0, 74, 70
1, 69721, Note_on_c, 0, 64, 62
1, 69746, Note_off_c, 0, 64, 65
1, 69850, Note_on_c, 0, 73, 80
1, 69870, Note_off_c, 0, 74, 59
1, 69962, Note_on_c, 0, 81, 86
1, 69976, Note_off_c, 0, 73, 64
1, 70022, Note_off_c, 0, 81, 62
1, 70116, Note_on_c, 0, 79, 80
1, 70124, Note_on_c, 0, 62, 58
1, 70196, Control_c, 0, 64, 21
1, 70210, Control_c, 0, 64, 38
1, 70225, Control_c, 0, 64, 52
1, 70240, Control_c, 0, 64, 64
1, 70255, Control_c, 0, 64, 71
1, 70265, Note_on_c, 0, 78, 90
1, 70270, Control_c, 0, 64, 74
1, 70284, Control_c, 0, 64, 78
1, 70298, Note_off_c, 0, 79, 61
1, 70299, Control_c, 0, 64, 87
1, 70314, Control_c, 0, 64, 97
1, 70326, Note_off_c, 0, 62, 59
1, 70329, Control_c, 0, 64, 106
1, 70344, Control_c, 0, 64, 122
1, 70358, Control_c, 0, 64, 127
1, 70411, Note_on_c, 0, 86, 93
1, 70445, Note_off_c, 0, 78, 66
1, 70619, Control_c, 0, 67, 8
1, 70633, Control_c, 0, 67, 10
1, 70648, Control_c, 0, 67, 12
1, 70663, Control_c, 0, 67, 15
1, 70673, Note_on_c, 0, 78, 84
1, 70678, Control_c, 0, 64, 117
1, 70678, Control_c, 0, 67, 18
1, 70693, Control_c, 0, 64, 104
1, 70693, Control_c, 0, 67, 23
1, 70700, Note_on_c, 0, 57, 53
1, 70707, Control_c, 0, 64, 91
1, 70707, Control_c, 0, 67, 27
1, 70710, Note_on_c, 0, 62, 53
1, 70714, Note_off_c, 0, 86, 62
1, 70722, Control_c, 0, 64, 77
1, 70722, Control_c, 0, 67, 31
1, 70737, Control_c, 0, 64, 65
1, 70737, Control_c, 0, 67, 36
1, 70752, Control_c, 0, 64, 53
1, 70752, Control_c, 0, 67, 41
1, 70767, Control_c, 0, 64, 28
1, 70767, Control_c, 0, 67, 48
1, 70781, Control_c, 0, 64, 0
1, 70781, Control_c, 0, 67, 54
1, 70796, Control_c, 0, 67, 60
1, 70811, Control_c, 0, 67, 67
1, 70826, Control_c, 0, 67, 73
1, 70841, Control_c, 0, 67, 79
1, 70856, Control_c, 0, 64, 27
1, 70856, Control_c, 0, 67, 85
1, 70864, Note_off_c, 0, 78, 63
1, 70871, Control_c, 0, 64, 45
1, 70871, Control_c, 0, 67, 93
1, 70876, Note_on_c, 0, 79, 68
1, 70885, Control_c, 0, 64, 59
1, 70885, Control_c, 0, 67, 100
1, 70900, Control_c, 0, 64, 67
1, 70900, Control_c, 0, 67, 107
1, 70915, Control_c, 0, 64, 70
1, 70915, Control_c, 0, 67, 113
1, 70930, Control_c, 0, 64, 71
1, 70930, Control_c, 0, 67, 118
1, 70945, Note_off_c, 0, 79, 59
1, 70945, Control_c, 0, 64, 74
1, 70945, Control_c, 0, 67, 123
1, 70957, Note_on_c, 0, 78, 69
1, 70960, Control_c, 0, 64, 79
1, 70960, Control_c, 0, 67, 127
1, 70975, Control_c, 0, 64, 84
1, 70988, Note_off_c, 0, 78, 65
1, 70989, Control_c, 0, 64, 87
1, 71004, Control_c, 0, 64, 89
1, 71008, Note_on_c, 0, 79, 63
1, 71019, Control_c, 0, 64, 91
1, 71033, Control_c, 0, 64, 92
1, 71060, Note_off_c, 0, 79, 61
1, 71076, Note_on_c, 0, 78, 63
1, 71105, Note_off_c, 0, 78, 59
1, 71115, Note_on_c, 0, 79, 66
1, 71122, Control_c, 0, 64, 90
1, 71137, Control_c, 0, 64, 82
1, 71152, Control_c, 0, 64, 72
1, 71167, Control_c, 0, 64, 65
1, 71173, Note_off_c, 0, 79, 61
1, 71181, Control_c, 0, 64, 59
1, 71186, Note_on_c, 0, 78, 65
1, 71196, Control_c, 0, 64, 50
1, 71219, Control_c, 0, 64, 35
1, 71234, Control_c, 0, 64, 0
1, 71461, Note_off_c, 0, 78, 65
1, 71473, Note_on_c, 0, 76, 61
1, 71574, Note_on_c, 0, 78, 74
1, 71574, Note_off_c, 0, 76, 63
1, 71762, Note_on_c, 0, 61, 32
1, 71771, Note_on_c, 0, 76, 55
1, 71830, Note_off_c, 0, 78, 62
1, 71858, Note_off_c, 0, 62, 59
1, 72251, Control_c, 0, 64, 28
1, 72266, Control_c, 0, 64, 41
1, 72280, Control_c, 0, 64, 55
1, 72295, Control_c, 0, 64, 63
1, 72310, Control_c, 0, 64, 65
1, 72325, Control_c, 0, 64, 68
1, 72340, Control_c, 0, 64, 71
1, 72354, Control_c, 0, 64, 76
1, 72369, Control_c, 0, 64, 81
1, 72384, Control_c, 0, 64, 85
1, 72399, Control_c, 0, 64, 88
1, 72413, Control_c, 0, 64, 92
1, 72428, Control_c, 0, 64, 96
1, 72443, Control_c, 0, 64, 100
1, 72458, Control_c, 0, 64, 101
1, 72480, Note_off_c, 0, 57, 0
1, 72487, Control_c, 0, 64, 101
1, 72502, Control_c, 0, 64, 102
1, 72517, Control_c, 0, 64, 103
1, 72532, Control_c, 0, 64, 105
1, 72547, Control_c, 0, 64, 106
1, 72576, Control_c, 0, 67, 117
1, 72591, Control_c, 0, 67, 100
1, 72597, Poly_aftertouch_c, 0, 57, 0
1, 72605, Control_c, 0, 67, 77
1, 72620, Control_c, 0, 67, 50
1, 72635, Control_c, 0, 67, 22
1, 72644, Note_off_c, 0, 76, 35
1, 72650, Control_c, 0, 67, 0
1, 72697, Note_off_c, 0, 61, 45
1, 72731, Control_c, 0, 64, 105
1, 72746, Control_c, 0, 64, 104
1, 72895, Control_c, 0, 64, 103
1, 72910, Control_c, 0, 64, 102
1, 72924, Control_c, 0, 64, 101
1, 72954, Control_c, 0, 64, 101
1, 72969, Control_c, 0, 64, 100
1, 72984, Control_c, 0, 64, 98
1, 72999, Control_c, 0, 64, 96
1, 73014, Control_c, 0, 64, 95
1, 73028, Control_c, 0, 64, 92
1, 73043, Control_c, 0, 64, 84
1, 73058, Control_c, 0, 64, 72
1, 73073, Control_c, 0, 64, 63
1, 73088, Control_c, 0, 64, 50
1, 73102, Control_c, 0, 64, 18
1, 73117, Control_c, 0, 64, 0
1, 73176, Control_c, 0, 64, 27
1, 73191, Control_c, 0, 64, 43
1, 73203, Note_on_c, 0, 74, 78
1, 73206, Control_c, 0, 64, 58
1, 73221, Control_c, 0, 64, 69
1, 73235, Control_c, 0, 64, 78
1, 73250, Control_c, 0, 64, 79
1, 73265, Control_c, 0, 64, 81
1, 73274, Note_on_c, 0, 78, 88
1, 73280, Control_c, 0, 64, 85
1, 73294, Note_off_c, 0, 74, 57
1, 73295, Control_c, 0, 64, 91
1, 73309, Control_c, 0, 64, 95
1, 73324, Control_c, 0, 64, 98
1, 73339, Control_c, 0, 64, 100
1, 73348, Note_on_c, 0, 81, 89
1, 73354, Control_c, 0, 64, 103
1, 73369, Control_c, 0, 64, 105
1, 73383, Control_c, 0, 64, 106
1, 73385, Note_off_c, 0, 78, 64
1, 73465, Control_c, 0, 64, 105
1, 73467, Note_on_c, 0, 57, 54
1, 73467, Note_on_c, 0, 50, 58
1, 73468, Note_on_c, 0, 54, 58
1, 73480, Control_c, 0, 64, 91
1, 73495, Control_c, 0, 64, 70
1, 73497, Note_on_c, 0, 86, 90
1, 73509, Control_c, 0, 64, 55
1, 73520, Note_off_c, 0, 81, 63
1, 73524, Control_c, 0, 64, 0
1, 73583, Control_c, 0, 64, 34
1, 73598, Control_c, 0, 64, 52
1, 73613, Control_c, 0, 64, 67
1, 73629, Control_c, 0, 64, 78
1, 73644, Control_c, 0, 64, 79
1, 73658, Control_c, 0, 64, 80
1, 73673, Control_c, 0, 64, 82
1, 73688, Control_c, 0, 64, 86
1, 73703, Control_c, 0, 64, 90
1, 73718, Control_c, 0, 64, 91
1, 73747, Control_c, 0, 64, 92
1, 73762, Control_c, 0, 64, 93
1, 73768, Note_off_c, 0, 86, 62
1, 73777, Control_c, 0, 64, 93
1, 73780, Note_on_c, 0, 88, 71
1, 73846, Note_on_c, 0, 86, 76
1, 73851, Control_c, 0, 64, 92
1, 73853, Note_off_c, 0, 88, 61
1, 73866, Control_c, 0, 64, 87
1, 73881, Control_c, 0, 64, 78
1, 73896, Control_c, 0, 64, 66
1, 73911, Control_c, 0, 64, 58
1, 73912, Note_on_c, 0, 85, 89
1, 73914, Note_off_c, 0, 86, 63
1, 73926, Control_c, 0, 64, 44
1, 73940, Control_c, 0, 64, 19
1, 73955, Control_c, 0, 64, 0
1, 73979, Note_on_c, 0, 86, 82
1, 74012, Note_off_c, 0, 85, 62
1, 74103, Control_c, 0, 64, 18
1, 74118, Control_c, 0, 64, 37
1, 74132, Control_c, 0, 64, 53
1, 74147, Control_c, 0, 64, 65
1, 74162, Control_c, 0, 64, 76
1, 74176, Control_c, 0, 64, 79
1, 74191, Control_c, 0, 64, 81
1, 74214, Control_c, 0, 64, 84
1, 74229, Control_c, 0, 64, 89
1, 74244, Control_c, 0, 64, 96
1, 74255, Note_off_c, 0, 54, 55
1, 74258, Control_c, 0, 64, 103
1, 74273, Control_c, 0, 64, 111
1, 74288, Control_c, 0, 64, 127
1, 74338, Note_off_c, 0, 57, 56
1, 74406, Control_c, 0, 67, 8
1, 74467, Control_c, 0, 67, 9
1, 74484, Note_on_c, 0, 88, 86
1, 74496, Control_c, 0, 67, 10
1, 74541, Control_c, 0, 67, 10
1, 74555, Control_c, 0, 67, 11
1, 74570, Control_c, 0, 67, 13
1, 74585, Control_c, 0, 64, 122
1, 74585, Control_c, 0, 67, 15
1, 74600, Control_c, 0, 64, 113
1, 74600, Control_c, 0, 67, 15
1, 74615, Control_c, 0, 64, 103
1, 74622, Note_off_c, 0, 86, 0
1, 74629, Control_c, 0, 64, 93
1, 74641, Note_on_c, 0, 85, 79
1, 74644, Control_c, 0, 64, 84
1, 74659, Poly_aftertouch_c, 0, 86, 127
1, 74659, Control_c, 0, 64, 77
1, 74659, Control_c, 0, 67, 17
1, 74661, Note_on_c, 0, 55, 43
1, 74665, Note_on_c, 0, 57, 43
1, 74665, Note_on_c, 0, 61, 49
1, 74674, Note_on_c, 0, 52, 47
1, 74674, Control_c, 0, 64, 72
1, 74674, Control_c, 0, 67, 19
1, 74689, Control_c, 0, 64, 66
1, 74689, Control_c, 0, 67, 22
1, 74704, Control_c, 0, 64, 58
1, 74704, Control_c, 0, 67, 24
1, 74711, Note_off_c, 0, 88, 62
1, 74715, Poly_aftertouch_c, 0, 86, 0
1, 74719, Control_c, 0, 64, 42
1, 74719, Control_c, 0, 67, 25
1, 74734, Control_c, 0, 64, 14
1, 74734, Control_c, 0, 67, 26
1, 74749, Control_c, 0, 64, 0
1, 74749, Control_c, 0, 67, 30
1, 74763, Control_c, 0, 67, 33
1, 74778, Control_c, 0, 67, 36
1, 74793, Control_c, 0, 67, 40
1, 74807, Control_c, 0, 67, 43
1, 74822, Control_c, 0, 67, 47
1, 74823, Note_off_c, 0, 50, 37
1, 74837, Control_c, 0, 67, 51
1, 74852, Control_c, 0, 67, 55
1, 74867, Control_c, 0, 67, 60
1, 74881, Control_c, 0, 67, 65
1, 74896, Control_c, 0, 67, 71
1, 74911, Control_c, 0, 67, 75
1, 74926, Control_c, 0, 67, 77
1, 74941, Control_c, 0, 67, 78
1, 74963, Control_c, 0, 67, 79
1, 75022, Control_c, 0, 64, 18
1, 75037, Control_c, 0, 64, 33
1, 75052, Control_c, 0, 64, 49
1, 75067, Control_c, 0, 64, 61
1, 75081, Control_c, 0, 64, 67
1, 75096, Control_c, 0, 64, 72
1, 75111, Control_c, 0, 64, 75
1, 75115, Note_off_c, 0, 85, 63
1, 75126, Control_c, 0, 64, 79
1, 75141, Control_c, 0, 64, 85
1, 75155, Control_c, 0, 64, 93
1, 75155, Control_c, 0, 67, 79
1, 75170, Control_c, 0, 64, 100
1, 75185, Control_c, 0, 64, 105
1, 75185, Control_c, 0, 67, 82
1, 75199, Control_c, 0, 64, 110
1, 75199, Control_c, 0, 67, 87
1, 75214, Control_c, 0, 64, 115
1, 75214, Control_c, 0, 67, 92
1, 75230, Control_c, 0, 64, 122
1, 75230, Control_c, 0, 67, 98
1, 75245, Control_c, 0, 64, 127
1, 75245, Control_c, 0, 67, 103
1, 75260, Control_c, 0, 67, 109
1, 75275, Control_c, 0, 67, 115
1, 75290, Control_c, 0, 67, 120
1, 75304, Control_c, 0, 67, 125
1, 75319, Control_c, 0, 67, 127
1, 75374, Note_off_c, 0, 52, 41
1, 75402, Note_off_c, 0, 61, 56
1, 75469, Note_off_c, 0, 55, 43
1, 75527, Control_c, 0, 64, 122
1, 75542, Control_c, 0, 64, 115
1, 75557, Control_c, 0, 64, 110
1, 75562, Note_off_c, 0, 57, 36
1, 75571, Control_c, 0, 64, 108
1, 75586, Control_c, 0, 64, 107
1, 75601, Control_c, 0, 64, 105
1, 75616, Control_c, 0, 64, 101
1, 75631, Control_c, 0, 64, 98
1, 75646, Control_c, 0, 64, 95
1, 75661, Control_c, 0, 64, 94
1, 75676, Control_c, 0, 64, 92
1, 75691, Control_c, 0, 64, 90
1, 75712, Control_c, 0, 64, 83
1, 75721, Note_on_c, 0, 81, 42
1, 75727, Control_c, 0, 64, 78
1, 75742, Control_c, 0, 64, 73
1, 75756, Control_c, 0, 64, 68
1, 75771, Control_c, 0, 64, 62
1, 75786, Control_c, 0, 64, 51
1, 75801, Control_c, 0, 64, 27
1, 75816, Control_c, 0, 64, 0
1, 75861, Control_c, 0, 64, 9
1, 75876, Control_c, 0, 64, 26
1, 75877, Note_on_c, 0, 80, 57
1, 75890, Control_c, 0, 64, 37
1, 75905, Control_c, 0, 64, 49
1, 75920, Control_c, 0, 64, 60
1, 75935, Control_c, 0, 64, 65
1, 75945, Note_off_c, 0, 81, 35
1, 75949, Control_c, 0, 64, 66
1, 75964, Control_c, 0, 64, 66
1, 75979, Control_c, 0, 64, 67
1, 75994, Control_c, 0, 64, 70
1, 76000, Note_on_c, 0, 83, 61
1, 76009, Control_c, 0, 64, 73
1, 76014, Note_off_c, 0, 80, 59
1, 76025, Control_c, 0, 64, 75
1, 76039, Control_c, 0, 64, 77
1, 76054, Control_c, 0, 64, 79
1, 76069, Control_c, 0, 64, 80
1, 76084, Control_c, 0, 64, 81
1, 76099, Control_c, 0, 64, 82
1, 76114, Control_c, 0, 64, 82
1, 76120, Note_off_c, 0, 83, 66
1, 76123, Note_on_c, 0, 81, 73
1, 76202, Control_c, 0, 64, 82
1, 76232, Control_c, 0, 64, 81
1, 76244, Note_on_c, 0, 84, 74
1, 76276, Control_c, 0, 64, 80
1, 76279, Note_off_c, 0, 81, 60
1, 76291, Control_c, 0, 64, 79
1, 76306, Control_c, 0, 64, 77
1, 76320, Control_c, 0, 64, 77
1, 76361, Note_on_c, 0, 83, 82
1, 76365, Control_c, 0, 64, 76
1, 76379, Control_c, 0, 64, 75
1, 76389, Note_off_c, 0, 84, 64
1, 76394, Control_c, 0, 64, 74
1, 76409, Control_c, 0, 64, 74
1, 76424, Control_c, 0, 64, 73
1, 76439, Control_c, 0, 64, 72
1, 76461, Control_c, 0, 64, 68
1, 76476, Control_c, 0, 64, 65
1, 76491, Control_c, 0, 64, 62
1, 76506, Control_c, 0, 64, 60
1, 76521, Control_c, 0, 64, 57
1, 76535, Control_c, 0, 64, 49
1, 76550, Control_c, 0, 64, 40
1, 76565, Control_c, 0, 64, 33
1, 76579, Control_c, 0, 64, 28
1, 76593, Note_on_c, 0, 86, 66
1, 76594, Control_c, 0, 64, 19
1, 76597, Note_on_c, 0, 67, 32
1, 76603, Note_on_c, 0, 64, 37
1, 76609, Control_c, 0, 64, 0
1, 76615, Note_off_c, 0, 83, 64
1, 76671, Note_off_c, 0, 86, 54
1, 76951, Control_c, 0, 64, 18
1, 76966, Control_c, 0, 64, 29
1, 76966, Control_c, 0, 67, 124
1, 76981, Control_c, 0, 64, 38
1, 76981, Control_c, 0, 67, 105
1, 76995, Control_c, 0, 64, 47
1, 76995, Control_c, 0, 67, 79
1, 77010, Control_c, 0, 64, 56
1, 77010, Control_c, 0, 67, 41
1, 77025, Control_c, 0, 64, 62
1, 77025, Control_c, 0, 67, 0
1, 77040, Control_c, 0, 64, 64
1, 77055, Control_c, 0, 64, 66
1, 77069, Control_c, 0, 64, 68
1, 77084, Control_c, 0, 64, 71
1, 77098, Control_c, 0, 64, 75
1, 77113, Control_c, 0, 64, 78
1, 77128, Control_c, 0, 64, 81
1, 77142, Control_c, 0, 64, 84
1, 77157, Control_c, 0, 64, 86
1, 77172, Control_c, 0, 64, 89
1, 77187, Control_c, 0, 64, 90
1, 77209, Control_c, 0, 64, 91
1, 77224, Control_c, 0, 64, 91
1, 77239, Control_c, 0, 64, 92
1, 77241, Note_on_c, 0, 84, 75
1, 77254, Control_c, 0, 64, 92
1, 77269, Control_c, 0, 64, 93
1, 77343, Control_c, 0, 64, 94
1, 77357, Control_c, 0, 64, 94
1, 77417, Control_c, 0, 64, 95
1, 77432, Control_c, 0, 64, 95
1, 77506, Control_c, 0, 67, 8
1, 77521, Control_c, 0, 67, 11
1, 77535, Control_c, 0, 67, 16
1, 77550, Control_c, 0, 67, 22
1, 77565, Control_c, 0, 67, 30
1, 77580, Control_c, 0, 67, 39
1, 77595, Control_c, 0, 67, 47
1, 77609, Control_c, 0, 67, 54
1, 77625, Control_c, 0, 67, 63
1, 77640, Control_c, 0, 67, 70
1, 77655, Control_c, 0, 67, 78
1, 77670, Control_c, 0, 67, 85
1, 77685, Control_c, 0, 67, 91
1, 77699, Control_c, 0, 67, 98
1, 77714, Control_c, 0, 67, 105
1, 77729, Control_c, 0, 67, 112
1, 77744, Control_c, 0, 64, 95
1, 77744, Control_c, 0, 67, 119
1, 77759, Control_c, 0, 64, 93
1, 77759, Control_c, 0, 67, 125
1, 77772, Note_on_c, 0, 63, 42
1, 77773, Control_c, 0, 64, 90
1, 77773, Control_c, 0, 67, 127
1, 77785, Note_on_c, 0, 66, 51
1, 77788, Control_c, 0, 64, 86
1, 77803, Control_c, 0, 64, 83
1, 77817, Control_c, 0, 64, 79
1, 77832, Control_c, 0, 64, 73
1, 77847, Control_c, 0, 64, 66
1, 77862, Control_c, 0, 64, 59
1, 77877, Control_c, 0, 64, 46
1, 77892, Control_c, 0, 64, 20
1, 77906, Control_c, 0, 64, 0
1, 77908, Note_off_c, 0, 67, 46
1, 77911, Note_off_c, 0, 64, 61
1, 78032, Control_c, 0, 64, 20
1, 78047, Control_c, 0, 64, 31
1, 78062, Control_c, 0, 64, 40
1, 78077, Control_c, 0, 64, 50
1, 78092, Control_c, 0, 64, 57
1, 78106, Control_c, 0, 64, 62
1, 78121, Control_c, 0, 64, 63
1, 78136, Control_c, 0, 64, 64
1, 78150, Control_c, 0, 64, 65
1, 78165, Control_c, 0, 64, 66
1, 78180, Control_c, 0, 64, 68
1, 78195, Control_c, 0, 64, 69
1, 78210, Control_c, 0, 64, 70
1, 78224, Control_c, 0, 64, 70
1, 78373, Control_c, 0, 64, 69
1, 78388, Control_c, 0, 64, 69
1, 78403, Control_c, 0, 64, 68
1, 78418, Control_c, 0, 64, 68
1, 78430, Note_on_c, 0, 83, 57
1, 78433, Control_c, 0, 64, 67
1, 78448, Control_c, 0, 64, 63
1, 78463, Control_c, 0, 64, 57
1, 78478, Control_c, 0, 64, 44
1, 78493, Control_c, 0, 64, 11
1, 78508, Control_c, 0, 64, 0
1, 78544, Note_off_c, 0, 84, 57
1, 78581, Control_c, 0, 64, 22
1, 78597, Control_c, 0, 64, 37
1, 78612, Control_c, 0, 64, 50
1, 78627, Control_c, 0, 64, 61
1, 78642, Control_c, 0, 64, 66
1, 78656, Control_c, 0, 64, 68
1, 78671, Control_c, 0, 64, 69
1, 78686, Control_c, 0, 64, 71
1, 78708, Control_c, 0, 64, 75
1, 78722, Control_c, 0, 64, 79
1, 78737, Control_c, 0, 64, 82
1, 78752, Control_c, 0, 64, 84
1, 78767, Control_c, 0, 64, 85
1, 78782, Control_c, 0, 64, 86
1, 78797, Control_c, 0, 64, 86
1, 78812, Control_c, 0, 64, 87
1, 78974, Control_c, 0, 64, 86
1, 78989, Control_c, 0, 64, 84
1, 79004, Control_c, 0, 64, 78
1, 79019, Control_c, 0, 64, 70
1, 79024, Note_on_c, 0, 72, 51
1, 79034, Control_c, 0, 64, 62
1, 79048, Control_c, 0, 64, 48
1, 79063, Control_c, 0, 64, 0
1, 79108, Control_c, 0, 64, 22
1, 79122, Control_c, 0, 64, 35
1, 79137, Control_c, 0, 64, 48
1, 79152, Control_c, 0, 64, 62
1, 79166, Control_c, 0, 64, 69
1, 79181, Control_c, 0, 64, 73
1, 79196, Control_c, 0, 64, 74
1, 79211, Control_c, 0, 64, 75
1, 79227, Control_c, 0, 64, 77
1, 79242, Control_c, 0, 64, 81
1, 79257, Control_c, 0, 64, 84
1, 79262, Note_off_c, 0, 83, 60
1, 79271, Control_c, 0, 64, 85
1, 79278, Note_on_c, 0, 81, 59
1, 79286, Control_c, 0, 64, 85
1, 79293, Note_off_c, 0, 66, 36
1, 79301, Control_c, 0, 64, 86
1, 79316, Control_c, 0, 64, 87
1, 79331, Control_c, 0, 64, 88
1, 79359, Control_c, 0, 64, 86
1, 79374, Note_on_c, 0, 83, 69
1, 79374, Control_c, 0, 64, 76
1, 79389, Control_c, 0, 64, 64
1, 79393, Note_off_c, 0, 81, 60
1, 79403, Control_c, 0, 64, 51
1, 79418, Control_c, 0, 64, 24
1, 79433, Control_c, 0, 64, 0
1, 79456, Control_c, 0, 64, 14
1, 79470, Control_c, 0, 64, 26
1, 79485, Control_c, 0, 64, 36
1, 79500, Control_c, 0, 64, 47
1, 79515, Control_c, 0, 64, 59
1, 79524, Note_on_c, 0, 86, 68
1, 79530, Control_c, 0, 64, 67
1, 79535, Note_off_c, 0, 83, 59
1, 79545, Control_c, 0, 64, 75
1, 79559, Control_c, 0, 64, 75
1, 79574, Control_c, 0, 64, 77
1, 79589, Control_c, 0, 64, 80
1, 79603, Control_c, 0, 64, 86
1, 79618, Control_c, 0, 64, 90
1, 79633, Control_c, 0, 64, 92
1, 79637, Note_on_c, 0, 84, 75
1, 79650, Note_off_c, 0, 86, 59
1, 79663, Control_c, 0, 64, 93
1, 79677, Control_c, 0, 64, 95
1, 79691, Note_off_c, 0, 63, 36
1, 79692, Control_c, 0, 64, 97
1, 79707, Control_c, 0, 64, 98
1, 79733, Note_on_c, 0, 83, 77
1, 79736, Control_c, 0, 64, 98
1, 79751, Control_c, 0, 64, 100
1, 79766, Note_off_c, 0, 84, 62
1, 79766, Control_c, 0, 64, 104
1, 79781, Control_c, 0, 64, 106
1, 79827, Note_on_c, 0, 81, 83
1, 79846, Note_off_c, 0, 83, 66
1, 79900, Note_off_c, 0, 81, 63
1, 79929, Control_c, 0, 64, 105
1, 79944, Control_c, 0, 64, 101
1, 79959, Control_c, 0, 64, 90
1, 79974, Control_c, 0, 64, 77
1, 79987, Note_on_c, 0, 81, 70
1, 79988, Control_c, 0, 64, 69
1, 79994, Note_on_c, 0, 64, 39
1, 79995, Note_on_c, 0, 71, 47
1, 80003, Control_c, 0, 64, 63
1, 80019, Control_c, 0, 64, 56
1, 80034, Control_c, 0, 64, 43
1, 80049, Control_c, 0, 64, 15
1, 80051, Note_off_c, 0, 72, 63
1, 80064, Control_c, 0, 64, 0
1, 80138, Control_c, 0, 64, 12
1, 80153, Control_c, 0, 64, 35
1, 80167, Control_c, 0, 64, 51
1, 80182, Control_c, 0, 64, 63
1, 80204, Control_c, 0, 64, 70
1, 80219, Control_c, 0, 64, 72
1, 80234, Control_c, 0, 64, 74
1, 80248, Control_c, 0, 64, 76
1, 80248, Control_c, 0, 67, 126
1, 80263, Control_c, 0, 64, 80
1, 80263, Control_c, 0, 67, 104
1, 80278, Control_c, 0, 64, 86
1, 80278, Control_c, 0, 67, 75
1, 80293, Control_c, 0, 64, 91
1, 80293, Control_c, 0, 67, 41
1, 80308, Control_c, 0, 64, 93
1, 80308, Control_c, 0, 67, 0
1, 80323, Control_c, 0, 64, 95
1, 80338, Control_c, 0, 64, 95
1, 80352, Control_c, 0, 64, 97
1, 80367, Control_c, 0, 64, 98
1, 80382, Control_c, 0, 64, 99
1, 80397, Control_c, 0, 64, 100
1, 80412, Control_c, 0, 64, 101
1, 80426, Control_c, 0, 64, 103
1, 80441, Control_c, 0, 64, 105
1, 80442, Note_on_c, 0, 73, 65
1, 80452, Note_on_c, 0, 79, 70
1, 80456, Control_c, 0, 64, 108
1, 80471, Control_c, 0, 64, 108
1, 80486, Control_c, 0, 64, 109
1, 80492, Note_off_c, 0, 81, 62
1, 80500, Control_c, 0, 64, 110
1, 80510, Note_off_c, 0, 71, 61
1, 80515, Control_c, 0, 64, 113
1, 80524, Note_off_c, 0, 64, 52
1, 80530, Control_c, 0, 64, 115
1, 80559, Control_c, 0, 64, 105
1, 80574, Control_c, 0, 64, 92
1, 80604, Control_c, 0, 64, 94
1, 80618, Control_c, 0, 64, 99
1, 80633, Control_c, 0, 64, 105
1, 80648, Control_c, 0, 64, 109
1, 80663, Control_c, 0, 64, 110
1, 80737, Control_c, 0, 64, 109
1, 80767, Control_c, 0, 64, 108
1, 80797, Control_c, 0, 64, 107
1, 80812, Control_c, 0, 64, 105
1, 80827, Control_c, 0, 64, 97
1, 80842, Control_c, 0, 64, 91
1, 80857, Control_c, 0, 64, 89
1, 80871, Control_c, 0, 64, 88
1, 80886, Control_c, 0, 64, 83
1, 80901, Control_c, 0, 64, 75
1, 80916, Control_c, 0, 64, 66
1, 80931, Control_c, 0, 64, 56
1, 80944, Note_on_c, 0, 74, 64
1, 80953, Control_c, 0, 64, 37
1, 80955, Note_on_c, 0, 62, 46
1, 80967, Control_c, 0, 64, 0
1, 81051, Note_off_c, 0, 73, 63
1, 81086, Control_c, 0, 64, 30
1, 81101, Control_c, 0, 64, 46
1, 81116, Control_c, 0, 64, 60
1, 81128, Note_on_c, 0, 78, 83
1, 81131, Control_c, 0, 64, 67
1, 81146, Control_c, 0, 64, 71
1, 81157, Note_off_c, 0, 79, 61
1, 81161, Control_c, 0, 64, 72
1, 81175, Control_c, 0, 64, 74
1, 81190, Control_c, 0, 64, 76
1, 81205, Control_c, 0, 64, 80
1, 81220, Control_c, 0, 64, 82
1, 81235, Control_c, 0, 64, 83
1, 81249, Control_c, 0, 64, 83
1, 81264, Control_c, 0, 64, 84
1, 81279, Control_c, 0, 64, 85
1, 81345, Note_on_c, 0, 69, 56
1, 81353, Control_c, 0, 64, 83
1, 81360, Note_off_c, 0, 78, 64
1, 81367, Control_c, 0, 64, 74
1, 81370, Note_on_c, 0, 79, 64
1, 81382, Control_c, 0, 64, 63
1, 81397, Control_c, 0, 64, 46
1, 81412, Control_c, 0, 64, 0
1, 81439, Note_off_c, 0, 79, 64
1, 81441, Control_c, 0, 64, 9
1, 81446, Note_on_c, 0, 78, 78
1, 81456, Control_c, 0, 64, 24
1, 81471, Control_c, 0, 64, 28
1, 81473, Note_off_c, 0, 74, 48
1, 81486, Control_c, 0, 64, 29
1, 81500, Note_off_c, 0, 78, 66
1, 81515, Note_on_c, 0, 76, 74
1, 81515, Control_c, 0, 64, 26
1, 81530, Control_c, 0, 64, 22
1, 81545, Control_c, 0, 64, 20
1, 81560, Control_c, 0, 64, 19
1, 81575, Control_c, 0, 64, 18
1, 81590, Control_c, 0, 64, 12
1, 81593, Note_off_c, 0, 76, 64
1, 81596, Note_on_c, 0, 78, 72
1, 81605, Control_c, 0, 64, 0
1, 81620, Control_c, 0, 67, 8
1, 81635, Control_c, 0, 67, 9
1, 81650, Control_c, 0, 67, 11
1, 81664, Control_c, 0, 67, 14
1, 81679, Control_c, 0, 67, 17
1, 81702, Control_c, 0, 67, 23
1, 81717, Control_c, 0, 67, 30
1, 81732, Control_c, 0, 67, 38
1, 81746, Control_c, 0, 67, 46
1, 81761, Control_c, 0, 67, 55
1, 81776, Control_c, 0, 67, 63
1, 81790, Control_c, 0, 67, 70
1, 81805, Control_c, 0, 67, 77
1, 81820, Control_c, 0, 67, 82
1, 81835, Control_c, 0, 67, 88
1, 81850, Control_c, 0, 67, 94
1, 81864, Control_c, 0, 67, 98
1, 81879, Control_c, 0, 67, 101
1, 81894, Control_c, 0, 67, 104
1, 81909, Control_c, 0, 67, 107
1, 81924, Control_c, 0, 67, 109
1, 81939, Control_c, 0, 67, 111
1, 81954, Control_c, 0, 67, 114
1, 81968, Control_c, 0, 67, 117
1, 81980, Note_on_c, 0, 76, 58
1, 81983, Control_c, 0, 67, 118
1, 81985, Note_off_c, 0, 78, 62
1, 81998, Control_c, 0, 67, 121
1, 81999, Note_on_c, 0, 67, 38
1, 82001, Note_on_c, 0, 71, 44
1, 82013, Control_c, 0, 67, 124
1, 82028, Control_c, 0, 67, 127
1, 82090, Note_off_c, 0, 69, 63
1, 82105, Note_off_c, 0, 62, 41
1, 82167, Note_on_c, 0, 82, 60
1, 82203, Note_off_c, 0, 76, 51
1, 82220, Control_c, 0, 64, 14
1, 82235, Control_c, 0, 64, 32
1, 82250, Control_c, 0, 64, 43
1, 82264, Control_c, 0, 64, 52
1, 82279, Control_c, 0, 64, 57
1, 82294, Control_c, 0, 64, 60
1, 82309, Control_c, 0, 64, 61
1, 82316, Note_off_c, 0, 82, 64
1, 82317, Note_on_c, 0, 83, 71
1, 82323, Control_c, 0, 64, 62
1, 82339, Control_c, 0, 64, 62
1, 82354, Control_c, 0, 64, 63
1, 82384, Control_c, 0, 64, 62
1, 82398, Control_c, 0, 64, 61
1, 82414, Control_c, 0, 64, 59
1, 82429, Control_c, 0, 64, 57
1, 82451, Control_c, 0, 64, 54
1, 82466, Control_c, 0, 64, 48
1, 82481, Control_c, 0, 64, 38
1, 82496, Control_c, 0, 64, 26
1, 82511, Control_c, 0, 64, 19
1, 82512, Note_on_c, 0, 78, 59
1, 82526, Control_c, 0, 64, 16
1, 82536, Note_off_c, 0, 67, 60
1, 82540, Control_c, 0, 64, 11
1, 82547, Note_off_c, 0, 83, 60
1, 82555, Control_c, 0, 64, 0
1, 82620, Note_off_c, 0, 71, 60
1, 82675, Note_on_c, 0, 79, 63
1, 82683, Note_off_c, 0, 78, 62
1, 82828, Note_on_c, 0, 76, 63
1, 82842, Note_off_c, 0, 79, 59
1, 83093, Note_on_c, 0, 74, 56
1, 83111, Note_on_c, 0, 66, 41
1, 83126, Note_off_c, 0, 76, 64
1, 83127, Note_on_c, 0, 57, 30
1, 83703, Control_c, 0, 64, 12
1, 83718, Control_c, 0, 64, 29
1, 83733, Control_c, 0, 64, 41
1, 83748, Control_c, 0, 64, 55
1, 83762, Control_c, 0, 64, 62
1, 83777, Control_c, 0, 64, 65
1, 83792, Control_c, 0, 64, 67
1, 83807, Control_c, 0, 64, 69
1, 83822, Control_c, 0, 64, 73
1, 83836, Control_c, 0, 64, 78
1, 83851, Control_c, 0, 64, 80
1, 83866, Control_c, 0, 64, 81
1, 83881, Control_c, 0, 64, 83
1, 83895, Control_c, 0, 64, 83
1, 83925, Control_c, 0, 64, 84
1, 84097, Control_c, 0, 64, 83
1, 84171, Control_c, 0, 64, 83
1, 84200, Control_c, 0, 64, 82
1, 84245, Control_c, 0, 64, 81
1, 84259, Control_c, 0, 64, 81
1, 84274, Control_c, 0, 64, 80
1, 84289, Control_c, 0, 64, 79
1, 84304, Control_c, 0, 64, 78
1, 84318, Control_c, 0, 64, 77
1, 84333, Control_c, 0, 64, 74
1, 84344, Note_on_c, 0, 73, 42
1, 84348, Control_c, 0, 64, 71
1, 84363, Control_c, 0, 64, 68
1, 84364, Note_on_c, 0, 64, 31
1, 84378, Control_c, 0, 64, 66
1, 84392, Control_c, 0, 64, 63
1, 84407, Control_c, 0, 64, 58
1, 84414, Note_off_c, 0, 73, 0
1, 84414, Note_on_c, 0, 73, 7
1, 84422, Control_c, 0, 64, 49
1, 84424, Note_off_c, 0, 64, 0
1, 84424, Note_on_c, 0, 64, 3
1, 84437, Control_c, 0, 64, 36
1, 84452, Control_c, 0, 64, 27
1, 84466, Control_c, 0, 64, 23
1, 84478, Note_off_c, 0, 74, 37
1, 84481, Control_c, 0, 64, 14
1, 84496, Control_c, 0, 64, 0
1, 84498, Note_off_c, 0, 66, 58
1, 84920, Control_c, 0, 64, 17
1, 84934, Control_c, 0, 64, 30
1, 84949, Control_c, 0, 64, 41
1, 84964, Control_c, 0, 64, 52
1, 84979, Control_c, 0, 64, 59
1, 84994, Control_c, 0, 64, 63
1, 85009, Control_c, 0, 64, 65
1, 85023, Control_c, 0, 64, 67
1, 85038, Control_c, 0, 64, 71
1, 85053, Control_c, 0, 64, 77
1, 85068, Control_c, 0, 64, 82
1, 85083, Control_c, 0, 64, 88
1, 85097, Control_c, 0, 64, 95
1, 85112, Control_c, 0, 64, 105
1, 85127, Control_c, 0, 64, 119
1, 85141, Control_c, 0, 64, 127
1, 85414, Note_off_c, 0, 73, 39
1, 85563, Control_c, 0, 64, 117
1, 85578, Control_c, 0, 64, 114
1, 85580, Note_off_c, 0, 57, 32
1, 85593, Control_c, 0, 64, 111
1, 85599, Note_off_c, 0, 64, 40
1, 85609, Control_c, 0, 64, 108
1, 85624, Control_c, 0, 64, 104
1, 85638, Control_c, 0, 64, 100
1, 85653, Control_c, 0, 64, 97
1, 85668, Control_c, 0, 64, 95
1, 85683, Control_c, 0, 64, 93
1, 85698, Control_c, 0, 64, 90
1, 85712, Control_c, 0, 64, 87
1, 85727, Control_c, 0, 64, 84
1, 85742, Control_c, 0, 64, 82
1, 85757, Control_c, 0, 64, 80
1, 85772, Control_c, 0, 64, 78
1, 85787, Control_c, 0, 64, 74
1, 85802, Control_c, 0, 64, 71
1, 85817, Control_c, 0, 64, 69
1, 85832, Control_c, 0, 64, 68
1, 85846, Control_c, 0, 64, 66
1, 85861, Control_c, 0, 64, 63
1, 85876, Control_c, 0, 64, 59
1, 85891, Control_c, 0, 64, 55
1, 85906, Control_c, 0, 64, 51
1, 85920, Control_c, 0, 64, 45
1, 85935, Control_c, 0, 64, 31
1, 85950, Control_c, 0, 64, 0
1, 86098, Control_c, 0, 64, 14
1, 86113, Control_c, 0, 64, 27
1, 86128, Control_c, 0, 64, 38
1, 86143, Control_c, 0, 64, 48
1, 86157, Control_c, 0, 64, 56
1, 86172, Control_c, 0, 64, 60
1, 86172, Control_c, 0, 67, 110
1, 86192, Note_on_c, 0, 59, 50
1, 86195, Control_c, 0, 64, 62
1, 86195, Control_c, 0, 67, 74
1, 86210, Control_c, 0, 64, 63
1, 86210, Control_c, 0, 67, 37
1, 86225, Control_c, 0, 64, 64
1, 86225, Control_c, 0, 67, 0
1, 86239, Control_c, 0, 64, 66
1, 86254, Control_c, 0, 64, 69
1, 86269, Control_c, 0, 64, 70
1, 86284, Control_c, 0, 64, 71
1, 86290, Note_on_c, 0, 63, 71
1, 86324, Note_off_c, 0, 59, 38
1, 86328, Control_c, 0, 64, 71
1, 86343, Control_c, 0, 64, 72
1, 86370, Note_on_c, 0, 66, 76
1, 86414, Note_off_c, 0, 63, 64
1, 86462, Control_c, 0, 64, 70
1, 86477, Control_c, 0, 64, 67
1, 86492, Control_c, 0, 64, 65
1, 86507, Control_c, 0, 64, 64
1, 86530, Note_on_c, 0, 71, 72
1, 86536, Control_c, 0, 64, 63
1, 86551, Control_c, 0, 64, 58
1, 86566, Control_c, 0, 64, 49
1, 86579, Note_off_c, 0, 66, 63
1, 86581, Control_c, 0, 64, 38
1, 86595, Control_c, 0, 64, 28
1, 86610, Control_c, 0, 64, 10
1, 86625, Control_c, 0, 64, 0
1, 86892, Control_c, 0, 64, 14
1, 86906, Control_c, 0, 64, 29
1, 86921, Control_c, 0, 64, 40
1, 86944, Control_c, 0, 64, 49
1, 86959, Control_c, 0, 64, 57
1, 86973, Control_c, 0, 64, 62
1, 86988, Control_c, 0, 64, 64
1, 87003, Control_c, 0, 64, 66
1, 87018, Control_c, 0, 64, 69
1, 87033, Control_c, 0, 64, 74
1, 87048, Control_c, 0, 64, 77
1, 87062, Control_c, 0, 64, 80
1, 87074, Note_off_c, 0, 71, 51
1, 87077, Control_c, 0, 64, 82
1, 87092, Control_c, 0, 64, 85
1, 87107, Control_c, 0, 64, 86
1, 87136, Control_c, 0, 64, 86
1, 87151, Control_c, 0, 64, 87
1, 87166, Control_c, 0, 64, 88
1, 87181, Control_c, 0, 64, 89
1, 87256, Control_c, 0, 64, 89
1, 87302, Note_on_c, 0, 71, 57
1, 87403, Control_c, 0, 64, 90
1, 87406, Note_off_c, 0, 71, 56
1, 87546, Note_on_c, 0, 71, 46
1, 87567, Control_c, 0, 64, 89
1, 87581, Control_c, 0, 64, 87
1, 87596, Control_c, 0, 64, 82
1, 87610, Control_c, 0, 64, 74
1, 87625, Control_c, 0, 64, 65
1, 87640, Control_c, 0, 64, 56
1, 87640, Control_c, 0, 67, 9
1, 87655, Control_c, 0, 64, 32
1, 87655, Control_c, 0, 67, 13
1, 87670, Control_c, 0, 64, 0
1, 87670, Control_c, 0, 67, 18
1, 87692, Control_c, 0, 67, 27
1, 87707, Control_c, 0, 67, 37
1, 87722, Control_c, 0, 64, 14
1, 87722, Control_c, 0, 67, 45
1, 87736, Control_c, 0, 64, 30
1, 87736, Control_c, 0, 67, 52
1, 87751, Control_c, 0, 64, 41
1, 87751, Control_c, 0, 67, 61
1, 87766, Control_c, 0, 64, 55
1, 87766, Control_c, 0, 67, 72
1, 87781, Control_c, 0, 64, 64
1, 87781, Control_c, 0, 67, 82
1, 87796, Control_c, 0, 64, 68
1, 87796, Control_c, 0, 67, 92
1, 87810, Control_c, 0, 67, 100
1, 87825, Control_c, 0, 64, 68
1, 87825, Control_c, 0, 67, 108
1, 87840, Control_c, 0, 64, 70
1, 87840, Control_c, 0, 67, 115
1, 87855, Control_c, 0, 64, 72
1, 87855, Control_c, 0, 67, 123
1, 87869, Control_c, 0, 64, 73
1, 87869, Control_c, 0, 67, 127
1, 87914, Control_c, 0, 64, 74
1, 87988, Control_c, 0, 64, 73
1, 88004, Control_c, 0, 64, 73
1, 88019, Control_c, 0, 64, 71
1, 88023, Note_on_c, 0, 60, 43
1, 88033, Control_c, 0, 64, 67
1, 88048, Control_c, 0, 64, 63
1, 88063, Control_c, 0, 64, 59
1, 88078, Control_c, 0, 64, 56
1, 88093, Control_c, 0, 64, 52
1, 88107, Control_c, 0, 64, 44
1, 88122, Control_c, 0, 64, 29
1, 88137, Control_c, 0, 64, 0
1, 88222, Note_on_c, 0, 57, 57
1, 88250, Note_off_c, 0, 71, 38
1, 88252, Note_off_c, 0, 60, 62
1, 88279, Note_off_c, 0, 57, 55
1, 88435, Note_on_c, 0, 59, 49
1, 88544, Control_c, 0, 67, 122
1, 88559, Control_c, 0, 67, 103
1, 88574, Control_c, 0, 67, 77
1, 88589, Control_c, 0, 67, 46
1, 88604, Control_c, 0, 67, 9
1, 88619, Control_c, 0, 67, 0
1, 88639, Note_on_c, 0, 55, 56
1, 88655, Note_off_c, 0, 59, 61
1, 88690, Note_off_c, 0, 55, 63
1, 88851, Note_on_c, 0, 57, 52
1, 89048, Note_on_c, 0, 54, 53
1, 89053, Note_on_c, 0, 75, 74
1, 89073, Note_off_c, 0, 57, 41
1, 89101, Note_off_c, 0, 54, 64
1, 89114, Note_off_c, 0, 75, 60
1, 89284, Note_on_c, 0, 76, 63
1, 89297, Note_on_c, 0, 55, 36
1, 89478, Note_on_c, 0, 79, 68
1, 89483, Note_off_c, 0, 76, 64
1, 89539, Note_off_c, 0, 79, 57
1, 89582, Note_off_c, 0, 55, 42
1, 89679, Note_on_c, 0, 78, 60
1, 89885, Note_on_c, 0, 81, 58
1, 89892, Note_off_c, 0, 78, 62
1, 89945, Note_off_c, 0, 81, 59
1, 90166, Note_on_c, 0, 79, 48
1, 90279, Control_c, 0, 64, 21
1, 90294, Control_c, 0, 64, 33
1, 90309, Control_c, 0, 64, 42
1, 90324, Control_c, 0, 64, 52
1, 90339, Control_c, 0, 64, 59
1, 90354, Control_c, 0, 64, 61
1, 90369, Control_c, 0, 64, 62
1, 90384, Control_c, 0, 64, 62
1, 90399, Control_c, 0, 64, 64
1, 90414, Control_c, 0, 64, 65
1, 90428, Control_c, 0, 64, 66
1, 90436, Note_off_c, 0, 79, 57
1, 90548, Control_c, 0, 64, 66
1, 90562, Control_c, 0, 64, 65
1, 90577, Control_c, 0, 64, 65
1, 90586, Note_on_c, 0, 59, 40
1, 90592, Control_c, 0, 64, 64
1, 90607, Control_c, 0, 64, 63
1, 90622, Control_c, 0, 64, 59
1, 90636, Control_c, 0, 64, 56
1, 90651, Control_c, 0, 64, 52
1, 90666, Control_c, 0, 64, 48
1, 90688, Control_c, 0, 64, 45
1, 90703, Control_c, 0, 64, 41
1, 90717, Control_c, 0, 64, 33
1, 90732, Control_c, 0, 64, 24
1, 90747, Control_c, 0, 64, 19
1, 90762, Control_c, 0, 64, 16
1, 90777, Control_c, 0, 64, 13
1, 90780, Note_on_c, 0, 55, 58
1, 90783, Note_off_c, 0, 59, 56
1, 90792, Control_c, 0, 64, 0
1, 90825, Note_off_c, 0, 55, 63
1, 90994, Note_on_c, 0, 57, 48
1, 91183, Note_on_c, 0, 54, 55
1, 91209, Note_off_c, 0, 57, 49
1, 91240, Note_off_c, 0, 54, 60
1, 91384, Note_on_c, 0, 55, 55
1, 91570, Note_off_c, 0, 55, 57
1, 91579, Note_on_c, 0, 73, 59
1, 91581, Note_on_c, 0, 52, 48
1, 91624, Note_off_c, 0, 52, 53
1, 91650, Note_off_c, 0, 73, 62
1, 91805, Note_on_c, 0, 54, 40
1, 91814, Note_on_c, 0, 74, 45
1, 91998, Note_on_c, 0, 78, 63
1, 92007, Note_off_c, 0, 74, 55
1, 92058, Note_off_c, 0, 78, 66
1, 92095, Note_off_c, 0, 54, 51
1, 92204, Note_on_c, 0, 76, 61
1, 92393, Note_on_c, 0, 79, 62
1, 92409, Note_off_c, 0, 76, 53
1, 92447, Note_off_c, 0, 79, 61
1, 92631, Note_on_c, 0, 78, 59
1, 92688, Control_c, 0, 64, 10
1, 92703, Control_c, 0, 64, 20
1, 92718, Control_c, 0, 64, 28
1, 92733, Control_c, 0, 64, 35
1, 92747, Control_c, 0, 64, 42
1, 92762, Control_c, 0, 64, 50
1, 92777, Control_c, 0, 64, 57
1, 92793, Control_c, 0, 64, 61
1, 92808, Control_c, 0, 64, 63
1, 92822, Control_c, 0, 64, 65
1, 92837, Control_c, 0, 64, 67
1, 92843, Note_on_c, 0, 81, 65
1, 92852, Control_c, 0, 64, 69
1, 92861, Note_on_c, 0, 54, 47
1, 92867, Control_c, 0, 64, 72
1, 92882, Control_c, 0, 64, 75
1, 92883, Note_off_c, 0, 78, 63
1, 92896, Control_c, 0, 64, 78
1, 92911, Control_c, 0, 64, 81
1, 92934, Control_c, 0, 64, 84
1, 92948, Control_c, 0, 64, 88
1, 92963, Control_c, 0, 64, 92
1, 92978, Control_c, 0, 64, 96
1, 92993, Control_c, 0, 64, 97
1, 93022, Control_c, 0, 64, 97
1, 93053, Note_on_c, 0, 74, 72
1, 93057, Note_on_c, 0, 42, 54
1, 93067, Control_c, 0, 64, 95
1, 93081, Control_c, 0, 64, 87
1, 93096, Note_off_c, 0, 81, 62
1, 93096, Control_c, 0, 64, 79
1, 93111, Control_c, 0, 64, 69
1, 93122, Note_off_c, 0, 54, 35
1, 93126, Control_c, 0, 64, 61
1, 93141, Control_c, 0, 64, 47
1, 93156, Control_c, 0, 64, 20
1, 93171, Control_c, 0, 64, 0
1, 93201, Control_c, 0, 64, 15
1, 93215, Control_c, 0, 64, 34
1, 93230, Control_c, 0, 64, 47
1, 93239, Note_on_c, 0, 86, 82
1, 93241, Note_on_c, 0, 54, 58
1, 93245, Control_c, 0, 64, 59
1, 93260, Control_c, 0, 64, 68
1, 93274, Control_c, 0, 64, 75
1, 93289, Control_c, 0, 64, 75
1, 93297, Note_off_c, 0, 74, 58
1, 93304, Control_c, 0, 64, 77
1, 93314, Note_off_c, 0, 42, 56
1, 93319, Control_c, 0, 64, 80
1, 93334, Control_c, 0, 64, 84
1, 93348, Control_c, 0, 64, 87
1, 93363, Control_c, 0, 64, 87
1, 93375, Note_off_c, 0, 54, 64
1, 93422, Control_c, 0, 64, 87
1, 93437, Control_c, 0, 64, 83
1, 93452, Control_c, 0, 64, 76
1, 93457, Note_on_c, 0, 43, 65
1, 93462, Note_on_c, 0, 82, 79
1, 93467, Control_c, 0, 64, 69
1, 93481, Control_c, 0, 64, 63
1, 93496, Control_c, 0, 64, 54
1, 93511, Control_c, 0, 64, 37
1, 93516, Note_off_c, 0, 86, 61
1, 93526, Control_c, 0, 64, 0
1, 93600, Control_c, 0, 64, 25
1, 93615, Control_c, 0, 64, 40
1, 93630, Control_c, 0, 64, 54
1, 93645, Control_c, 0, 64, 65
1, 93660, Control_c, 0, 64, 71
1, 93677, Note_on_c, 0, 83, 81
1, 93682, Note_on_c, 0, 55, 69
1, 93682, Control_c, 0, 64, 72
1, 93696, Control_c, 0, 64, 74
1, 93704, Note_off_c, 0, 82, 64
1, 93711, Note_off_c, 0, 43, 56
1, 93711, Control_c, 0, 64, 77
1, 93726, Control_c, 0, 64, 81
1, 93741, Control_c, 0, 64, 83
1, 93756, Control_c, 0, 64, 84
1, 93770, Control_c, 0, 64, 85
1, 93830, Control_c, 0, 64, 82
1, 93844, Control_c, 0, 64, 73
1, 93859, Note_on_c, 0, 44, 67
1, 93859, Control_c, 0, 64, 64
1, 93866, Note_off_c, 0, 83, 60
1, 93874, Control_c, 0, 64, 49
1, 93883, Note_on_c, 0, 71, 70
1, 93889, Control_c, 0, 64, 16
1, 93904, Control_c, 0, 64, 0
1, 93958, Note_off_c, 0, 55, 61
1, 93978, Control_c, 0, 64, 30
1, 93993, Control_c, 0, 64, 46
1, 94008, Control_c, 0, 64, 60
1, 94023, Control_c, 0, 64, 68
1, 94038, Control_c, 0, 64, 72
1, 94052, Control_c, 0, 64, 72
1, 94067, Control_c, 0, 64, 74
1, 94068, Note_on_c, 0, 76, 85
1, 94076, Note_on_c, 0, 56, 54
1, 94082, Control_c, 0, 64, 76
1, 94096, Control_c, 0, 64, 79
1, 94098, Note_off_c, 0, 71, 62
1, 94111, Control_c, 0, 64, 80
1, 94122, Note_off_c, 0, 44, 61
1, 94126, Control_c, 0, 64, 81
1, 94170, Control_c, 0, 64, 82
1, 94259, Control_c, 0, 64, 81
1, 94274, Control_c, 0, 64, 80
1, 94289, Control_c, 0, 64, 79
1, 94303, Control_c, 0, 64, 79
1, 94318, Control_c, 0, 64, 78
1, 94333, Control_c, 0, 64, 76
1, 94348, Control_c, 0, 64, 72
1, 94354, Note_off_c, 0, 56, 65
1, 94357, Note_on_c, 0, 74, 74
1, 94363, Control_c, 0, 64, 69
1, 94378, Control_c, 0, 64, 68
1, 94393, Control_c, 0, 64, 67
1, 94408, Control_c, 0, 64, 65
1, 94431, Control_c, 0, 64, 60
1, 94433, Note_off_c, 0, 76, 62
1, 94446, Control_c, 0, 64, 51
1, 94461, Control_c, 0, 64, 38
1, 94475, Control_c, 0, 64, 23
1, 94490, Control_c, 0, 64, 0
1, 94545, Note_on_c, 0, 45, 60
1, 94667, Control_c, 0, 64, 23
1, 94682, Control_c, 0, 64, 38
1, 94697, Control_c, 0, 64, 51
1, 94712, Control_c, 0, 64, 60
1, 94727, Control_c, 0, 64, 64
1, 94742, Control_c, 0, 64, 66
1, 94757, Control_c, 0, 64, 67
1, 94764, Note_on_c, 0, 57, 63
1, 94771, Control_c, 0, 64, 69
1, 94777, Note_off_c, 0, 45, 51
1, 94786, Control_c, 0, 64, 72
1, 94801, Control_c, 0, 64, 76
1, 94816, Control_c, 0, 64, 79
1, 94831, Control_c, 0, 64, 81
1, 94845, Control_c, 0, 64, 82
1, 94860, Control_c, 0, 64, 83
1, 94875, Control_c, 0, 64, 84
1, 94890, Control_c, 0, 64, 84
1, 94934, Control_c, 0, 64, 85
1, 94941, Note_on_c, 0, 56, 73
1, 94989, Note_off_c, 0, 57, 61
1, 95037, Control_c, 0, 64, 81
1, 95052, Control_c, 0, 64, 71
1, 95067, Control_c, 0, 64, 60
1, 95082, Control_c, 0, 64, 40
1, 95097, Control_c, 0, 64, 0
1, 95141, Control_c, 0, 64, 17
1, 95153, Note_on_c, 0, 57, 63
1, 95156, Control_c, 0, 64, 35
1, 95179, Control_c, 0, 64, 48
1, 95189, Note_off_c, 0, 56, 62
1, 95190, Note_off_c, 0, 74, 51
1, 95194, Control_c, 0, 64, 58
1, 95210, Control_c, 0, 64, 65
1, 95214, Note_on_c, 0, 73, 58
1, 95224, Control_c, 0, 64, 66
1, 95260, Note_off_c, 0, 73, 58
1, 95260, Note_on_c, 0, 74, 55
1, 95288, Note_off_c, 0, 57, 61
1, 95328, Control_c, 0, 64, 65
1, 95329, Note_on_c, 0, 73, 67
1, 95343, Control_c, 0, 64, 64
1, 95357, Control_c, 0, 64, 62
1, 95372, Control_c, 0, 64, 59
1, 95375, Note_on_c, 0, 57, 64
1, 95387, Control_c, 0, 64, 51
1, 95402, Note_off_c, 0, 74, 0
1, 95402, Control_c, 0, 64, 34
1, 95417, Control_c, 0, 64, 0
1, 95439, Poly_aftertouch_c, 0, 74, 127
1, 95475, Poly_aftertouch_c, 0, 74, 0
1, 95552, Note_on_c, 0, 61, 65
1, 95629, Note_off_c, 0, 57, 57
1, 95742, Note_on_c, 0, 64, 63
1, 95785, Note_off_c, 0, 61, 65
1, 95992, Note_on_c, 0, 69, 57
1, 96039, Note_off_c, 0, 64, 62
1, 96137, Control_c, 0, 67, 8
1, 96152, Control_c, 0, 67, 13
1, 96167, Control_c, 0, 67, 20
1, 96181, Control_c, 0, 67, 28
1, 96182, Note_off_c, 0, 73, 46
1, 96196, Control_c, 0, 67, 36
1, 96206, Note_on_c, 0, 66, 63
1, 96211, Control_c, 0, 67, 43
1, 96226, Control_c, 0, 67, 49
1, 96241, Control_c, 0, 67, 54
1, 96255, Control_c, 0, 67, 59
1, 96256, Note_off_c, 0, 69, 64
1, 96270, Control_c, 0, 67, 66
1, 96285, Control_c, 0, 67, 72
1, 96299, Control_c, 0, 67, 79
1, 96314, Control_c, 0, 67, 85
1, 96329, Control_c, 0, 67, 90
1, 96344, Control_c, 0, 67, 94
1, 96359, Control_c, 0, 67, 99
1, 96373, Control_c, 0, 67, 105
1, 96388, Control_c, 0, 67, 111
1, 96403, Control_c, 0, 67, 117
1, 96417, Control_c, 0, 67, 123
1, 96432, Control_c, 0, 67, 127
1, 96446, Note_on_c, 0, 67, 59
1, 96491, Note_off_c, 0, 66, 61
1, 96681, Note_on_c, 0, 69, 61
1, 96706, Note_on_c, 0, 64, 39
1, 96747, Note_off_c, 0, 67, 59
1, 97074, Note_on_c, 0, 74, 59
1, 97097, Note_on_c, 0, 66, 38
1, 97100, Note_on_c, 0, 62, 33
1, 97106, Note_off_c, 0, 69, 61
1, 97152, Note_off_c, 0, 64, 38
1, 97329, Control_c, 0, 64, 24
1, 97344, Control_c, 0, 64, 40
1, 97359, Control_c, 0, 64, 52
1, 97374, Control_c, 0, 64, 60
1, 97378, Note_off_c, 0, 74, 59
1, 97389, Control_c, 0, 64, 64
1, 97404, Control_c, 0, 64, 65
1, 97426, Control_c, 0, 64, 67
1, 97441, Control_c, 0, 64, 70
1, 97455, Control_c, 0, 64, 73
1, 97470, Control_c, 0, 64, 76
1, 97485, Control_c, 0, 64, 78
1, 97500, Control_c, 0, 64, 79
1, 97515, Control_c, 0, 64, 80
1, 97529, Control_c, 0, 64, 81
1, 97544, Control_c, 0, 64, 82
1, 97559, Control_c, 0, 64, 82
1, 97574, Control_c, 0, 64, 83
1, 97751, Note_off_c, 0, 62, 38
1, 97820, Note_on_c, 0, 74, 53
1, 97872, Note_off_c, 0, 74, 61
1, 97886, Note_off_c, 0, 66, 35
1, 98005, Control_c, 0, 64, 83
1, 98019, Control_c, 0, 64, 81
1, 98034, Note_on_c, 0, 74, 60
1, 98034, Control_c, 0, 64, 80
1, 98040, Note_on_c, 0, 66, 29
1, 98049, Control_c, 0, 64, 78
1, 98050, Note_on_c, 0, 62, 37
1, 98062, Control_c, 0, 64, 77
1, 98077, Control_c, 0, 64, 74
1, 98092, Control_c, 0, 64, 70
1, 98107, Control_c, 0, 64, 65
1, 98122, Control_c, 0, 64, 62
1, 98130, Note_off_c, 0, 74, 52
1, 98137, Control_c, 0, 64, 61
1, 98152, Control_c, 0, 64, 60
1, 98174, Control_c, 0, 64, 55
1, 98189, Control_c, 0, 64, 46
1, 98203, Control_c, 0, 64, 34
1, 98218, Control_c, 0, 64, 21
1, 98232, Note_on_c, 0, 76, 71
1, 98233, Control_c, 0, 64, 0
1, 98255, Note_off_c, 0, 76, 70
1, 98412, Control_c, 0, 67, 115
1, 98418, Note_on_c, 0, 78, 72
1, 98427, Control_c, 0, 67, 97
1, 98433, Note_off_c, 0, 78, 70
1, 98441, Control_c, 0, 67, 74
1, 98456, Control_c, 0, 67, 46
1, 98471, Control_c, 0, 67, 17
1, 98486, Control_c, 0, 67, 0
1, 98584, Note_off_c, 0, 62, 47
1, 98594, Note_off_c, 0, 66, 60
1, 98597, Note_on_c, 0, 79, 75
1, 98631, Note_off_c, 0, 79, 64
1, 98778, Note_on_c, 0, 81, 85
1, 98805, Note_off_c, 0, 81, 62
1, 98965, Note_on_c, 0, 83, 82
1, 98995, Note_off_c, 0, 83, 68
1, 99156, Note_on_c, 0, 85, 77
1, 99186, Note_off_c, 0, 85, 67
1, 99357, Note_on_c, 0, 86, 87
1, 99386, Note_off_c, 0, 86, 66
1, 99682, Note_on_c, 0, 76, 76
1, 99702, Note_on_c, 0, 67, 46
1, 99712, Note_on_c, 0, 62, 45
1, 100192, Control_c, 0, 64, 15
1, 100207, Control_c, 0, 64, 25
1, 100221, Control_c, 0, 64, 34
1, 100236, Control_c, 0, 64, 41
1, 100251, Control_c, 0, 64, 50
1, 100265, Control_c, 0, 64, 56
1, 100280, Control_c, 0, 64, 60
1, 100295, Control_c, 0, 64, 62
1, 100310, Control_c, 0, 64, 63
1, 100325, Control_c, 0, 64, 64
1, 100340, Control_c, 0, 64, 65
1, 100355, Control_c, 0, 64, 67
1, 100370, Control_c, 0, 64, 69
1, 100370, Control_c, 0, 67, 8
1, 100384, Control_c, 0, 64, 70
1, 100384, Control_c, 0, 67, 11
1, 100399, Control_c, 0, 64, 71
1, 100399, Control_c, 0, 67, 14
1, 100421, Control_c, 0, 64, 72
1, 100421, Control_c, 0, 67, 17
1, 100436, Control_c, 0, 64, 72
1, 100436, Control_c, 0, 67, 20
1, 100445, Note_on_c, 0, 73, 59
1, 100451, Control_c, 0, 67, 24
1, 100465, Control_c, 0, 67, 28
1, 100480, Control_c, 0, 67, 31
1, 100481, Note_off_c, 0, 76, 65
1, 100495, Control_c, 0, 67, 34
1, 100510, Control_c, 0, 67, 37
1, 100525, Control_c, 0, 67, 41
1, 100540, Control_c, 0, 67, 45
1, 100554, Control_c, 0, 67, 48
1, 100569, Control_c, 0, 67, 50
1, 100584, Control_c, 0, 67, 51
1, 100599, Control_c, 0, 67, 53
1, 100614, Control_c, 0, 67, 54
1, 100629, Control_c, 0, 67, 56
1, 100644, Control_c, 0, 67, 58
1, 100659, Control_c, 0, 67, 58
1, 100673, Control_c, 0, 67, 59
1, 100688, Control_c, 0, 64, 72
1, 100688, Control_c, 0, 67, 59
1, 100703, Control_c, 0, 64, 70
1, 100703, Control_c, 0, 67, 60
1, 100718, Control_c, 0, 64, 66
1, 100730, Note_on_c, 0, 74, 53
1, 100733, Control_c, 0, 64, 64
1, 100733, Control_c, 0, 67, 61
1, 100742, Note_on_c, 0, 66, 37
1, 100747, Control_c, 0, 64, 62
1, 100747, Control_c, 0, 67, 63
1, 100759, Note_off_c, 0, 73, 56
1, 100762, Control_c, 0, 64, 59
1, 100762, Control_c, 0, 67, 67
1, 100777, Control_c, 0, 64, 54
1, 100777, Control_c, 0, 67, 70
1, 100793, Control_c, 0, 64, 41
1, 100793, Control_c, 0, 67, 74
1, 100799, Note_off_c, 0, 66, 0
1, 100799, Note_on_c, 0, 66, 6
1, 100808, Control_c, 0, 64, 15
1, 100808, Control_c, 0, 67, 77
1, 100822, Control_c, 0, 64, 0
1, 100822, Control_c, 0, 67, 80
1, 100823, Note_off_c, 0, 67, 59
1, 100837, Control_c, 0, 67, 84
1, 100852, Control_c, 0, 67, 86
1, 100867, Control_c, 0, 67, 88
1, 100882, Control_c, 0, 67, 89
1, 100896, Control_c, 0, 67, 92
1, 100911, Control_c, 0, 67, 95
1, 100926, Control_c, 0, 67, 98
1, 100941, Control_c, 0, 67, 102
1, 100956, Control_c, 0, 67, 106
1, 100970, Control_c, 0, 67, 110
1, 100985, Control_c, 0, 67, 114
1, 101000, Control_c, 0, 67, 119
1, 101014, Control_c, 0, 67, 124
1, 101029, Control_c, 0, 67, 127
1, 101103, Control_c, 0, 64, 21
1, 101118, Control_c, 0, 64, 36
1, 101133, Control_c, 0, 64, 50
1, 101148, Control_c, 0, 64, 58
1, 101170, Control_c, 0, 64, 62
1, 101185, Control_c, 0, 64, 64
1, 101200, Control_c, 0, 64, 66
1, 101214, Control_c, 0, 64, 67
1, 101229, Control_c, 0, 64, 70
1, 101244, Control_c, 0, 64, 74
1, 101247, Note_off_c, 0, 62, 33
1, 101259, Control_c, 0, 64, 76
1, 101274, Control_c, 0, 64, 78
1, 101288, Control_c, 0, 64, 80
1, 101294, Note_off_c, 0, 74, 62
1, 101303, Control_c, 0, 64, 81
1, 101318, Control_c, 0, 64, 82
1, 101333, Control_c, 0, 64, 82
1, 101348, Control_c, 0, 64, 83
1, 101379, Note_off_c, 0, 66, 38
1, 101511, Control_c, 0, 64, 82
1, 101526, Control_c, 0, 64, 81
1, 101533, Note_on_c, 0, 62, 49
1, 101541, Control_c, 0, 64, 81
1, 101556, Control_c, 0, 64, 79
1, 101570, Control_c, 0, 64, 76
1, 101580, Note_off_c, 0, 62, 59
1, 101586, Control_c, 0, 64, 73
1, 101599, Note_on_c, 0, 64, 53
1, 101601, Control_c, 0, 64, 70
1, 101616, Control_c, 0, 64, 67
1, 101631, Control_c, 0, 64, 65
1, 101645, Control_c, 0, 64, 62
1, 101660, Control_c, 0, 64, 56
1, 101661, Note_on_c, 0, 66, 58
1, 101668, Note_off_c, 0, 64, 54
1, 101675, Control_c, 0, 64, 44
1, 101690, Control_c, 0, 64, 27
1, 101699, Note_off_c, 0, 66, 64
1, 101705, Control_c, 0, 64, 0
1, 101707, Note_on_c, 0, 67, 69
1, 101748, Note_on_c, 0, 69, 67
1, 101761, Note_off_c, 0, 67, 59
1, 101793, Note_off_c, 0, 69, 61
1, 101797, Note_on_c, 0, 71, 71
1, 101842, Note_off_c, 0, 71, 67
1, 101845, Note_on_c, 0, 73, 74
1, 101868, Note_off_c, 0, 73, 71
1, 101910, Note_on_c, 0, 74, 84
1, 101953, Note_off_c, 0, 74, 66
1, 101964, Note_on_c, 0, 76, 66
1, 102006, Note_on_c, 0, 78, 78
1, 102009, Note_off_c, 0, 76, 67
1, 102036, Note_off_c, 0, 78, 65
1, 102060, Note_on_c, 0, 79, 84
1, 102081, Control_c, 0, 67, 127
1, 102096, Control_c, 0, 67, 98
1, 102110, Control_c, 0, 67, 55
1, 102123, Note_on_c, 0, 81, 83
1, 102123, Note_off_c, 0, 79, 61
1, 102125, Control_c, 0, 67, 15
1, 102140, Control_c, 0, 67, 0
1, 102178, Note_off_c, 0, 81, 64
1, 102184, Note_on_c, 0, 83, 75
1, 102274, Note_on_c, 0, 81, 67
1, 102278, Note_on_c, 0, 71, 45
1, 102283, Note_on_c, 0, 74, 41
1, 102293, Note_off_c, 0, 83, 64
1, 102385, Note_off_c, 0, 74, 57
1, 102403, Note_off_c, 0, 71, 56
1, 102787, Note_off_c, 0, 81, 61
1, 102810, Note_on_c, 0, 79, 50
1, 102920, Note_off_c, 0, 79, 60
1, 103157, Note_on_c, 0, 78, 80
1, 103178, Note_on_c, 0, 69, 51
1, 103179, Note_on_c, 0, 73, 43
1, 103205, Note_off_c, 0, 73, 58
1, 103211, Note_off_c, 0, 78, 66
1, 103230, Note_off_c, 0, 69, 54
1, 103271, Note_on_c, 0, 78, 74
1, 103291, Control_c, 0, 67, 12
1, 103298, Note_on_c, 0, 71, 40
1, 103306, Control_c, 0, 67, 16
1, 103321, Control_c, 0, 67, 23
1, 103324, Note_on_c, 0, 67, 36
1, 103336, Note_off_c, 0, 71, 0
1, 103336, Note_on_c, 0, 71, 7
1, 103336, Control_c, 0, 67, 33
1, 103350, Control_c, 0, 67, 45
1, 103365, Control_c, 0, 67, 53
1, 103380, Control_c, 0, 67, 58
1, 103395, Control_c, 0, 67, 63
1, 103416, Control_c, 0, 67, 66
1, 103431, Control_c, 0, 64, 9
1, 103431, Control_c, 0, 67, 68
1, 103446, Control_c, 0, 64, 26
1, 103446, Control_c, 0, 67, 69
1, 103461, Note_off_c, 0, 71, 50
1, 103461, Control_c, 0, 64, 38
1, 103461, Control_c, 0, 67, 70
1, 103476, Control_c, 0, 64, 48
1, 103476, Control_c, 0, 67, 73
1, 103479, Note_off_c, 0, 67, 49
1, 103491, Control_c, 0, 64, 56
1, 103491, Control_c, 0, 67, 78
1, 103506, Control_c, 0, 64, 61
1, 103506, Control_c, 0, 67, 84
1, 103520, Control_c, 0, 64, 62
1, 103520, Control_c, 0, 67, 89
1, 103535, Control_c, 0, 64, 63
1, 103535, Control_c, 0, 67, 93
1, 103550, Control_c, 0, 64, 63
1, 103550, Control_c, 0, 67, 97
1, 103565, Control_c, 0, 64, 64
1, 103565, Control_c, 0, 67, 101
1, 103580, Control_c, 0, 64, 65
1, 103580, Control_c, 0, 67, 105
1, 103595, Control_c, 0, 64, 66
1, 103595, Control_c, 0, 67, 108
1, 103609, Control_c, 0, 67, 109
1, 103624, Control_c, 0, 67, 110
1, 103639, Control_c, 0, 67, 112
1, 103654, Control_c, 0, 67, 113
1, 103669, Control_c, 0, 67, 114
1, 103683, Control_c, 0, 67, 115
1, 103698, Control_c, 0, 67, 116
1, 103713, Control_c, 0, 67, 117
1, 103728, Control_c, 0, 64, 66
1, 103728, Control_c, 0, 67, 119
1, 103743, Control_c, 0, 64, 65
1, 103743, Control_c, 0, 67, 122
1, 103757, Control_c, 0, 64, 65
1, 103757, Control_c, 0, 67, 125
1, 103772, Control_c, 0, 64, 64
1, 103772, Control_c, 0, 67, 126
1, 103787, Control_c, 0, 64, 64
1, 103787, Control_c, 0, 67, 127
1, 103802, Control_c, 0, 64, 63
1, 103816, Control_c, 0, 64, 61
1, 103823, Note_on_c, 0, 76, 58
1, 103831, Control_c, 0, 64, 59
1, 103842, Note_off_c, 0, 78, 65
1, 103846, Control_c, 0, 64, 57
1, 103861, Control_c, 0, 64, 52
1, 103876, Control_c, 0, 64, 44
1, 103890, Control_c, 0, 64, 35
1, 103905, Control_c, 0, 64, 29
1, 103920, Control_c, 0, 64, 26
1, 103935, Control_c, 0, 64, 20
1, 103941, Note_off_c, 0, 76, 58
1, 103950, Control_c, 0, 64, 0
1, 104244, Note_on_c, 0, 69, 43
1, 104245, Note_on_c, 0, 74, 63
1, 104258, Note_on_c, 0, 66, 43
1, 104270, Note_off_c, 0, 69, 57
1, 104288, Note_off_c, 0, 74, 65
1, 104301, Note_off_c, 0, 66, 49
1, 104350, Note_on_c, 0, 74, 56
1, 104368, Note_on_c, 0, 67, 44
1, 104377, Note_on_c, 0, 64, 40
1, 104406, Note_off_c, 0, 67, 0
1, 104406, Note_on_c, 0, 67, 8
1, 104492, Control_c, 0, 64, 16
1, 104506, Control_c, 0, 64, 32
1, 104521, Note_off_c, 0, 67, 44
1, 104521, Control_c, 0, 64, 43
1, 104524, Note_off_c, 0, 64, 48
1, 104536, Control_c, 0, 64, 53
1, 104551, Control_c, 0, 64, 59
1, 104565, Control_c, 0, 64, 61
1, 104580, Control_c, 0, 64, 63
1, 104595, Control_c, 0, 64, 63
1, 104610, Control_c, 0, 64, 65
1, 104625, Control_c, 0, 64, 66
1, 104639, Control_c, 0, 64, 67
1, 104757, Control_c, 0, 64, 66
1, 104772, Control_c, 0, 64, 66
1, 104789, Control_c, 0, 64, 65
1, 104803, Control_c, 0, 64, 65
1, 104818, Control_c, 0, 64, 63
1, 104833, Control_c, 0, 64, 62
1, 104848, Control_c, 0, 64, 61
1, 104862, Control_c, 0, 64, 60
1, 104877, Control_c, 0, 64, 59
1, 104886, Note_on_c, 0, 73, 54
1, 104889, Note_off_c, 0, 74, 56
1, 104892, Control_c, 0, 64, 56
1, 104915, Control_c, 0, 64, 50
1, 104929, Control_c, 0, 64, 43
1, 104944, Control_c, 0, 64, 39
1, 104959, Control_c, 0, 64, 34
1, 104974, Control_c, 0, 64, 20
1, 104988, Control_c, 0, 64, 0
1, 105037, Note_off_c, 0, 73, 62
1, 105136, Control_c, 0, 64, 21
1, 105151, Control_c, 0, 64, 32
1, 105166, Control_c, 0, 64, 40
1, 105181, Control_c, 0, 64, 47
1, 105196, Control_c, 0, 64, 54
1, 105211, Control_c, 0, 64, 59
1, 105225, Control_c, 0, 64, 61
1, 105240, Control_c, 0, 64, 62
1, 105255, Control_c, 0, 64, 63
1, 105270, Control_c, 0, 64, 65
1, 105281, Note_on_c, 0, 74, 63
1, 105285, Note_on_c, 0, 62, 49
1, 105285, Control_c, 0, 64, 67
1, 105286, Note_on_c, 0, 66, 46
1, 105300, Control_c, 0, 64, 69
1, 105312, Note_off_c, 0, 66, 59
1, 105315, Control_c, 0, 64, 70
1, 105318, Note_off_c, 0, 62, 57
1, 105329, Control_c, 0, 64, 71
1, 105344, Control_c, 0, 64, 71
1, 105374, Control_c, 0, 64, 72
1, 105477, Control_c, 0, 64, 71
1, 105486, Note_on_c, 0, 57, 36
1, 105492, Control_c, 0, 64, 71
1, 105502, Note_on_c, 0, 62, 35
1, 105505, Note_on_c, 0, 78, 65
1, 105507, Control_c, 0, 64, 69
1, 105511, Note_off_c, 0, 74, 63
1, 105522, Control_c, 0, 64, 65
1, 105536, Control_c, 0, 64, 59
1, 105551, Control_c, 0, 64, 48
1, 105565, Control_c, 0, 64, 21
1, 105580, Control_c, 0, 64, 0
1, 105600, Note_off_c, 0, 78, 64
1, 105609, Note_on_c, 0, 79, 65
1, 105640, Control_c, 0, 64, 26
1, 105640, Control_c, 0, 67, 106
1, 105662, Control_c, 0, 64, 40
1, 105662, Control_c, 0, 67, 69
1, 105677, Control_c, 0, 64, 53
1, 105677, Control_c, 0, 67, 22
1, 105691, Control_c, 0, 64, 63
1, 105691, Control_c, 0, 67, 0
1, 105698, Note_on_c, 0, 78, 76
1, 105699, Note_off_c, 0, 79, 63
1, 105706, Control_c, 0, 64, 67
1, 105721, Control_c, 0, 64, 67
1, 105736, Control_c, 0, 64, 68
1, 105751, Control_c, 0, 64, 70
1, 105765, Control_c, 0, 64, 72
1, 105780, Note_off_c, 0, 78, 65
1, 105780, Control_c, 0, 64, 74
1, 105786, Note_on_c, 0, 76, 74
1, 105795, Control_c, 0, 64, 75
1, 105869, Control_c, 0, 64, 74
1, 105873, Note_off_c, 0, 76, 66
1, 105875, Note_on_c, 0, 78, 82
1, 105884, Control_c, 0, 64, 72
1, 105899, Control_c, 0, 64, 70
1, 105914, Control_c, 0, 64, 69
1, 105929, Control_c, 0, 64, 68
1, 105944, Control_c, 0, 64, 66
1, 105958, Control_c, 0, 64, 62
1, 105973, Control_c, 0, 64, 56
1, 105977, Note_on_c, 0, 79, 81
1, 105978, Note_off_c, 0, 78, 64
1, 105988, Control_c, 0, 64, 53
1, 106002, Control_c, 0, 64, 52
1, 106017, Control_c, 0, 64, 50
1, 106032, Control_c, 0, 64, 46
1, 106047, Control_c, 0, 64, 40
1, 106062, Control_c, 0, 64, 36
1, 106106, Control_c, 0, 64, 36
1, 106121, Control_c, 0, 64, 34
1, 106136, Control_c, 0, 64, 30
1, 106150, Control_c, 0, 64, 26
1, 106165, Control_c, 0, 64, 24
1, 106170, Note_on_c, 0, 80, 65
1, 106180, Control_c, 0, 64, 20
1, 106195, Control_c, 0, 64, 8
1, 106209, Control_c, 0, 64, 0
1, 106216, Note_off_c, 0, 79, 60
1, 106358, Control_c, 0, 67, 10
1, 106374, Control_c, 0, 67, 15
1, 106389, Control_c, 0, 67, 20
1, 106412, Control_c, 0, 64, 11
1, 106412, Control_c, 0, 67, 28
1, 106427, Control_c, 0, 64, 29
1, 106427, Control_c, 0, 67, 35
1, 106441, Control_c, 0, 64, 41
1, 106441, Control_c, 0, 67, 45
1, 106456, Control_c, 0, 64, 51
1, 106456, Control_c, 0, 67, 52
1, 106471, Control_c, 0, 64, 57
1, 106471, Control_c, 0, 67, 58
1, 106486, Control_c, 0, 64, 61
1, 106486, Control_c, 0, 67, 64
1, 106501, Control_c, 0, 64, 62
1, 106501, Control_c, 0, 67, 70
1, 106515, Control_c, 0, 64, 63
1, 106515, Control_c, 0, 67, 78
1, 106530, Control_c, 0, 64, 65
1, 106530, Control_c, 0, 67, 85
1, 106545, Control_c, 0, 64, 66
1, 106545, Control_c, 0, 67, 94
1, 106560, Control_c, 0, 64, 68
1, 106560, Control_c, 0, 67, 101
1, 106575, Control_c, 0, 64, 69
1, 106575, Control_c, 0, 67, 108
1, 106589, Control_c, 0, 67, 115
1, 106604, Control_c, 0, 67, 121
1, 106619, Control_c, 0, 64, 70
1, 106619, Control_c, 0, 67, 125
1, 106633, Control_c, 0, 67, 127
1, 106780, Note_on_c, 0, 81, 67
1, 106811, Control_c, 0, 64, 69
1, 106823, Note_off_c, 0, 80, 59
1, 106826, Control_c, 0, 64, 68
1, 106841, Control_c, 0, 64, 67
1, 106856, Control_c, 0, 64, 66
1, 106871, Control_c, 0, 64, 66
1, 106886, Control_c, 0, 64, 65
1, 106900, Control_c, 0, 64, 63
1, 106915, Control_c, 0, 64, 60
1, 106930, Control_c, 0, 64, 55
1, 106943, Note_on_c, 0, 76, 57
1, 106944, Control_c, 0, 64, 50
1, 106959, Control_c, 0, 64, 47
1, 106974, Control_c, 0, 64, 41
1, 106983, Note_on_c, 0, 61, 26
1, 106989, Control_c, 0, 64, 29
1, 107004, Control_c, 0, 64, 0
1, 107020, Note_off_c, 0, 81, 59
1, 107103, Note_off_c, 0, 62, 57
1, 107516, Control_c, 0, 64, 24
1, 107530, Control_c, 0, 64, 36
1, 107545, Control_c, 0, 64, 50
1, 107560, Control_c, 0, 64, 58
1, 107574, Control_c, 0, 64, 62
1, 107589, Control_c, 0, 64, 64
1, 107604, Control_c, 0, 64, 66
1, 107619, Control_c, 0, 64, 70
1, 107634, Control_c, 0, 64, 76
1, 107649, Control_c, 0, 64, 80
1, 107664, Control_c, 0, 64, 85
1, 107679, Control_c, 0, 64, 89
1, 107694, Control_c, 0, 64, 95
1, 107709, Control_c, 0, 64, 101
1, 107723, Control_c, 0, 64, 114
1, 107738, Control_c, 0, 64, 127
1, 107841, Control_c, 0, 67, 125
1, 107856, Control_c, 0, 67, 103
1, 107871, Control_c, 0, 67, 80
1, 107884, Note_off_c, 0, 57, 36
1, 107886, Control_c, 0, 67, 51
1, 107908, Control_c, 0, 67, 20
1, 107923, Control_c, 0, 67, 0
1, 108002, Note_off_c, 0, 61, 34
1, 108063, Note_off_c, 0, 76, 34
1, 108161, Control_c, 0, 64, 117
1, 108176, Control_c, 0, 64, 111
1, 108191, Control_c, 0, 64, 109
1, 108205, Control_c, 0, 64, 108
1, 108220, Control_c, 0, 64, 105
1, 108235, Control_c, 0, 64, 102
1, 108250, Control_c, 0, 64, 99
1, 108265, Control_c, 0, 64, 97
1, 108279, Control_c, 0, 64, 96
1, 108294, Control_c, 0, 64, 94
1, 108309, Control_c, 0, 64, 91
1, 108324, Control_c, 0, 64, 88
1, 108339, Control_c, 0, 64, 86
1, 108353, Control_c, 0, 64, 84
1, 108368, Control_c, 0, 64, 81
1, 108383, Control_c, 0, 64, 75
1, 108397, Control_c, 0, 64, 67
1, 108412, Control_c, 0, 64, 62
1, 108427, Control_c, 0, 64, 57
1, 108442, Control_c, 0, 64, 49
1, 108457, Control_c, 0, 64, 35
1, 108472, Control_c, 0, 64, 0
1, 108546, Control_c, 0, 64, 27
1, 108560, Control_c, 0, 64, 43
1, 108575, Control_c, 0, 64, 56
1, 108590, Control_c, 0, 64, 66
1, 108604, Control_c, 0, 64, 70
1, 108619, Control_c, 0, 64, 73
1, 108630, Note_on_c, 0, 74, 73
1, 108634, Control_c, 0, 64, 78
1, 108657, Control_c, 0, 64, 85
1, 108671, Control_c, 0, 64, 94
1, 108686, Control_c, 0, 64, 101
1, 108701, Control_c, 0, 64, 108
1, 108703, Note_on_c, 0, 78, 86
1, 108716, Control_c, 0, 64, 111
1, 108720, Note_off_c, 0, 74, 57
1, 108730, Control_c, 0, 64, 119
1, 108745, Control_c, 0, 64, 127
1, 108767, Note_on_c, 0, 81, 91
1, 108797, Note_off_c, 0, 78, 66
1, 108892, Note_on_c, 0, 50, 63
1, 108895, Note_on_c, 0, 57, 59
1, 108897, Note_on_c, 0, 54, 62
1, 108909, Control_c, 0, 64, 117
1, 108919, Note_on_c, 0, 86, 92
1, 108924, Control_c, 0, 64, 96
1, 108934, Note_off_c, 0, 81, 63
1, 108939, Control_c, 0, 64, 75
1, 108954, Control_c, 0, 64, 59
1, 108968, Control_c, 0, 64, 32
1, 108983, Control_c, 0, 64, 0
1, 109027, Control_c, 0, 64, 28
1, 109042, Control_c, 0, 64, 45
1, 109057, Control_c, 0, 64, 59
1, 109072, Control_c, 0, 64, 71
1, 109087, Control_c, 0, 64, 78
1, 109101, Control_c, 0, 64, 80
1, 109116, Control_c, 0, 64, 82
1, 109131, Control_c, 0, 64, 86
1, 109145, Control_c, 0, 64, 91
1, 109160, Control_c, 0, 64, 95
1, 109175, Control_c, 0, 64, 97
1, 109205, Control_c, 0, 64, 97
1, 109214, Note_off_c, 0, 86, 60
1, 109220, Control_c, 0, 64, 98
1, 109223, Note_on_c, 0, 88, 74
1, 109235, Control_c, 0, 64, 99
1, 109289, Note_on_c, 0, 86, 71
1, 109291, Note_off_c, 0, 88, 67
1, 109324, Control_c, 0, 64, 98
1, 109339, Control_c, 0, 64, 89
1, 109351, Note_off_c, 0, 86, 63
1, 109352, Note_on_c, 0, 85, 84
1, 109354, Control_c, 0, 64, 85
1, 109369, Control_c, 0, 64, 84
1, 109384, Control_c, 0, 64, 81
1, 109406, Control_c, 0, 64, 75
1, 109421, Control_c, 0, 64, 66
1, 109423, Note_on_c, 0, 86, 84
1, 109435, Control_c, 0, 64, 55
1, 109446, Note_off_c, 0, 85, 63
1, 109450, Control_c, 0, 64, 28
1, 109465, Control_c, 0, 64, 0
1, 109554, Control_c, 0, 64, 28
1, 109569, Control_c, 0, 64, 47
1, 109584, Control_c, 0, 64, 61
1, 109599, Control_c, 0, 64, 71
1, 109614, Control_c, 0, 64, 75
1, 109629, Control_c, 0, 64, 77
1, 109643, Control_c, 0, 64, 79
1, 109658, Control_c, 0, 64, 84
1, 109673, Control_c, 0, 64, 89
1, 109688, Control_c, 0, 64, 93
1, 109700, Note_off_c, 0, 54, 61
1, 109703, Control_c, 0, 64, 97
1, 109718, Control_c, 0, 64, 100
1, 109733, Control_c, 0, 64, 101
1, 109748, Control_c, 0, 64, 102
1, 109762, Control_c, 0, 64, 103
1, 109777, Control_c, 0, 64, 105
1, 109792, Control_c, 0, 64, 105
1, 109807, Control_c, 0, 64, 106
1, 109846, Note_off_c, 0, 57, 55
1, 109851, Control_c, 0, 64, 107
1, 109922, Note_on_c, 0, 88, 89
1, 110029, Control_c, 0, 64, 106
1, 110043, Control_c, 0, 64, 99
1, 110058, Control_c, 0, 64, 93
1, 110066, Note_on_c, 0, 85, 75
1, 110073, Control_c, 0, 64, 90
1, 110088, Note_on_c, 0, 52, 42
1, 110088, Note_on_c, 0, 55, 41
1, 110088, Control_c, 0, 64, 87
1, 110090, Note_on_c, 0, 57, 43
1, 110099, Note_on_c, 0, 61, 43
1, 110103, Control_c, 0, 64, 81
1, 110116, Note_off_c, 0, 88, 60
1, 110117, Control_c, 0, 64, 69
1, 110132, Control_c, 0, 64, 60
1, 110155, Control_c, 0, 64, 44
1, 110161, Note_off_c, 0, 86, 33
1, 110170, Control_c, 0, 64, 0
1, 110198, Note_off_c, 0, 50, 57
1, 110362, Control_c, 0, 64, 17
1, 110378, Control_c, 0, 64, 33
1, 110393, Control_c, 0, 64, 47
1, 110407, Control_c, 0, 64, 61
1, 110422, Control_c, 0, 64, 69
1, 110437, Control_c, 0, 64, 75
1, 110452, Control_c, 0, 64, 81
1, 110467, Control_c, 0, 64, 90
1, 110481, Control_c, 0, 64, 103
1, 110496, Control_c, 0, 64, 127
1, 110510, Note_off_c, 0, 85, 53
1, 110526, Control_c, 0, 67, 10
1, 110540, Control_c, 0, 67, 14
1, 110555, Control_c, 0, 67, 17
1, 110570, Control_c, 0, 67, 24
1, 110585, Control_c, 0, 67, 31
1, 110600, Control_c, 0, 67, 40
1, 110615, Control_c, 0, 67, 48
1, 110630, Control_c, 0, 67, 57
1, 110645, Control_c, 0, 67, 67
1, 110660, Control_c, 0, 67, 78
1, 110674, Control_c, 0, 67, 90
1, 110689, Control_c, 0, 67, 101
1, 110704, Control_c, 0, 67, 112
1, 110718, Control_c, 0, 67, 122
1, 110733, Control_c, 0, 67, 127
1, 110786, Note_off_c, 0, 52, 40
1, 110809, Note_off_c, 0, 55, 39
1, 110851, Note_off_c, 0, 61, 45
1, 110851, Note_off_c, 0, 57, 36
1, 111234, Note_on_c, 0, 69, 46
1, 111260, Control_c, 0, 64, 100
1, 111275, Control_c, 0, 64, 79
1, 111290, Control_c, 0, 64, 68
1, 111304, Control_c, 0, 64, 60
1, 111319, Control_c, 0, 64, 45
1, 111334, Control_c, 0, 64, 14
1, 111343, Note_off_c, 0, 69, 62
1, 111348, Control_c, 0, 64, 0
1, 111353, Note_on_c, 0, 73, 59
1, 111363, Control_c, 0, 64, 16
1, 111378, Control_c, 0, 64, 32
1, 111393, Control_c, 0, 64, 43
1, 111408, Control_c, 0, 64, 54
1, 111423, Control_c, 0, 64, 62
1, 111438, Control_c, 0, 64, 66
1, 111445, Note_off_c, 0, 73, 54
1, 111453, Control_c, 0, 64, 67
1, 111454, Note_on_c, 0, 71, 72
1, 111482, Control_c, 0, 64, 64
1, 111497, Control_c, 0, 64, 57
1, 111512, Control_c, 0, 64, 38
1, 111525, Note_off_c, 0, 71, 59
1, 111527, Control_c, 0, 64, 20
1, 111532, Note_on_c, 0, 74, 66
1, 111541, Control_c, 0, 64, 27
1, 111556, Control_c, 0, 64, 38
1, 111571, Control_c, 0, 64, 47
1, 111586, Control_c, 0, 64, 54
1, 111601, Control_c, 0, 64, 55
1, 111615, Control_c, 0, 64, 52
1, 111623, Note_off_c, 0, 74, 66
1, 111627, Note_on_c, 0, 73, 76
1, 111630, Control_c, 0, 64, 44
1, 111652, Control_c, 0, 64, 29
1, 111667, Control_c, 0, 64, 23
1, 111682, Control_c, 0, 64, 23
1, 111712, Control_c, 0, 64, 22
1, 111726, Note_off_c, 0, 73, 65
1, 111727, Control_c, 0, 64, 18
1, 111728, Note_on_c, 0, 76, 73
1, 111742, Control_c, 0, 64, 9
1, 111756, Control_c, 0, 64, 0
1, 111793, Note_off_c, 0, 76, 62
1, 111819, Note_on_c, 0, 74, 78
1, 111896, Note_off_c, 0, 74, 61
1, 111903, Note_on_c, 0, 78, 74
1, 111985, Note_off_c, 0, 78, 63
1, 112001, Note_on_c, 0, 76, 78
1, 112017, Note_on_c, 0, 52, 48
1, 112025, Note_on_c, 0, 61, 51
1, 112037, Note_on_c, 0, 55, 44
1, 112088, Note_on_c, 0, 79, 74
1, 112092, Note_off_c, 0, 76, 64
1, 112098, Control_c, 0, 64, 12
1, 112113, Control_c, 0, 64, 31
1, 112127, Control_c, 0, 64, 45
1, 112142, Control_c, 0, 64, 56
1, 112157, Control_c, 0, 64, 62
1, 112171, Control_c, 0, 64, 65
1, 112174, Note_off_c, 0, 79, 64
1, 112176, Note_on_c, 0, 78, 83
1, 112186, Control_c, 0, 64, 65
1, 112231, Control_c, 0, 64, 64
1, 112246, Control_c, 0, 64, 60
1, 112260, Control_c, 0, 64, 50
1, 112264, Note_on_c, 0, 81, 77
1, 112269, Note_off_c, 0, 78, 66
1, 112275, Control_c, 0, 64, 30
1, 112290, Control_c, 0, 64, 0
1, 112356, Note_off_c, 0, 81, 64
1, 112375, Note_on_c, 0, 79, 77
1, 112401, Control_c, 0, 64, 24
1, 112415, Control_c, 0, 64, 42
1, 112430, Control_c, 0, 64, 55
1, 112445, Control_c, 0, 64, 64
1, 112460, Control_c, 0, 64, 67
1, 112473, Note_on_c, 0, 83, 76
1, 112475, Control_c, 0, 64, 68
1, 112478, Note_off_c, 0, 52, 52
1, 112480, Note_off_c, 0, 55, 64
1, 112481, Note_off_c, 0, 79, 56
1, 112490, Control_c, 0, 64, 69
1, 112505, Control_c, 0, 64, 73
1, 112519, Control_c, 0, 64, 78
1, 112534, Control_c, 0, 64, 81
1, 112544, Note_off_c, 0, 61, 61
1, 112549, Control_c, 0, 64, 82
1, 112549, Control_c, 0, 67, 119
1, 112564, Note_off_c, 0, 83, 67
1, 112564, Control_c, 0, 64, 83
1, 112564, Control_c, 0, 67, 102
1, 112564, Note_on_c, 0, 81, 83
1, 112578, Control_c, 0, 64, 84
1, 112578, Control_c, 0, 67, 81
1, 112593, Control_c, 0, 64, 86
1, 112593, Control_c, 0, 67, 54
1, 112608, Control_c, 0, 64, 88
1, 112608, Control_c, 0, 67, 31
1, 112623, Control_c, 0, 64, 89
1, 112623, Control_c, 0, 67, 9
1, 112637, Control_c, 0, 67, 0
1, 112639, Note_off_c, 0, 81, 63
1, 112648, Note_on_c, 0, 79, 79
1, 112652, Control_c, 0, 64, 88
1, 112711, Control_c, 0, 64, 84
1, 112726, Control_c, 0, 64, 73
1, 112741, Control_c, 0, 64, 62
1, 112745, Note_on_c, 0, 78, 84
1, 112756, Control_c, 0, 64, 50
1, 112757, Note_on_c, 0, 54, 48
1, 112758, Note_on_c, 0, 63, 55
1, 112762, Note_on_c, 0, 57, 48
1, 112764, Note_off_c, 0, 79, 60
1, 112768, Note_on_c, 0, 60, 52
1, 112772, Control_c, 0, 64, 25
1, 112787, Control_c, 0, 64, 0
1, 112840, Note_on_c, 0, 81, 84
1, 112846, Control_c, 0, 64, 26
1, 112853, Note_off_c, 0, 78, 66
1, 112861, Control_c, 0, 64, 40
1, 112875, Control_c, 0, 64, 54
1, 112890, Control_c, 0, 64, 64
1, 112905, Control_c, 0, 64, 68
1, 112920, Control_c, 0, 64, 69
1, 112934, Note_off_c, 0, 81, 62
1, 112934, Note_on_c, 0, 79, 85
1, 112949, Control_c, 0, 64, 70
1, 112964, Control_c, 0, 64, 71
1, 112979, Control_c, 0, 64, 72
1, 113009, Control_c, 0, 64, 71
1, 113024, Note_on_c, 0, 83, 88
1, 113024, Control_c, 0, 64, 69
1, 113038, Control_c, 0, 64, 67
1, 113047, Note_off_c, 0, 79, 60
1, 113054, Control_c, 0, 64, 64
1, 113068, Control_c, 0, 64, 58
1, 113083, Control_c, 0, 64, 40
1, 113098, Control_c, 0, 64, 0
1, 113140, Note_on_c, 0, 81, 83
1, 113159, Note_off_c, 0, 83, 64
1, 113195, Control_c, 0, 64, 36
1, 113209, Control_c, 0, 64, 53
1, 113224, Control_c, 0, 64, 65
1, 113239, Note_on_c, 0, 84, 85
1, 113239, Control_c, 0, 64, 73
1, 113246, Note_off_c, 0, 57, 52
1, 113247, Note_off_c, 0, 81, 63
1, 113254, Control_c, 0, 64, 74
1, 113268, Control_c, 0, 64, 74
1, 113283, Control_c, 0, 64, 76
1, 113298, Control_c, 0, 64, 80
1, 113313, Control_c, 0, 64, 83
1, 113328, Control_c, 0, 64, 86
1, 113328, Note_on_c, 0, 83, 87
1, 113342, Control_c, 0, 64, 86
1, 113353, Note_off_c, 0, 54, 31
1, 113357, Note_off_c, 0, 84, 62
1, 113357, Control_c, 0, 64, 87
1, 113372, Control_c, 0, 64, 91
1, 113378, Note_off_c, 0, 60, 57
1, 113387, Control_c, 0, 64, 94
1, 113388, Note_off_c, 0, 63, 36
1, 113402, Control_c, 0, 64, 96
1, 113423, Note_on_c, 0, 81, 89
1, 113438, Note_off_c, 0, 83, 66
1, 113491, Control_c, 0, 64, 95
1, 113506, Control_c, 0, 64, 88
1, 113520, Control_c, 0, 64, 83
1, 113535, Control_c, 0, 64, 79
1, 113542, Note_on_c, 0, 79, 78
1, 113547, Note_off_c, 0, 81, 62
1, 113548, Note_on_c, 0, 55, 42
1, 113550, Control_c, 0, 64, 72
1, 113560, Note_on_c, 0, 59, 51
1, 113564, Note_on_c, 0, 64, 58
1, 113566, Control_c, 0, 64, 61
1, 113581, Control_c, 0, 64, 45
1, 113596, Control_c, 0, 64, 14
1, 113610, Control_c, 0, 64, 15
1, 113625, Control_c, 0, 64, 30
1, 113640, Note_on_c, 0, 83, 71
1, 113640, Control_c, 0, 64, 44
1, 113644, Note_off_c, 0, 79, 58
1, 113655, Control_c, 0, 64, 60
1, 113670, Control_c, 0, 64, 67
1, 113685, Control_c, 0, 64, 71
1, 113699, Control_c, 0, 64, 72
1, 113729, Control_c, 0, 64, 70
1, 113742, Note_off_c, 0, 83, 66
1, 113742, Note_on_c, 0, 81, 85
1, 113743, Control_c, 0, 64, 64
1, 113758, Control_c, 0, 64, 49
1, 113773, Control_c, 0, 64, 16
1, 113788, Control_c, 0, 64, 0
1, 113814, Note_off_c, 0, 81, 63
1, 113833, Note_on_c, 0, 79, 80
1, 113930, Note_off_c, 0, 79, 59
1, 113942, Note_on_c, 0, 78, 82
1, 114034, Note_on_c, 0, 76, 75
1, 114037, Note_off_c, 0, 78, 66
1, 114062, Control_c, 0, 67, 8
1, 114121, Control_c, 0, 67, 9
1, 114136, Control_c, 0, 67, 13
1, 114150, Control_c, 0, 67, 17
1, 114165, Control_c, 0, 67, 20
1, 114171, Note_on_c, 0, 75, 74
1, 114172, Note_off_c, 0, 76, 66
1, 114180, Control_c, 0, 67, 23
1, 114195, Control_c, 0, 67, 26
1, 114206, Note_off_c, 0, 64, 62
1, 114210, Control_c, 0, 67, 30
1, 114225, Control_c, 0, 67, 34
1, 114240, Control_c, 0, 67, 38
1, 114255, Control_c, 0, 67, 41
1, 114269, Control_c, 0, 67, 44
1, 114284, Control_c, 0, 67, 47
1, 114298, Note_off_c, 0, 75, 61
1, 114299, Control_c, 0, 67, 49
1, 114301, Note_on_c, 0, 76, 67
1, 114314, Control_c, 0, 67, 49
1, 114343, Control_c, 0, 67, 49
1, 114432, Note_off_c, 0, 76, 64
1, 114433, Control_c, 0, 67, 48
1, 114494, Note_on_c, 0, 66, 67
1, 114494, Note_off_c, 0, 55, 41
1, 114495, Note_on_c, 0, 57, 52
1, 114505, Note_on_c, 0, 62, 58
1, 114537, Control_c, 0, 67, 47
1, 114566, Control_c, 0, 67, 46
1, 114581, Control_c, 0, 67, 45
1, 114596, Control_c, 0, 67, 44
1, 114604, Note_off_c, 0, 59, 59
1, 114611, Control_c, 0, 67, 42
1, 114626, Control_c, 0, 67, 39
1, 114627, Note_on_c, 0, 69, 77
1, 114648, Control_c, 0, 67, 35
1, 114663, Control_c, 0, 67, 28
1, 114678, Control_c, 0, 67, 15
1, 114693, Control_c, 0, 67, 0
1, 114732, Note_on_c, 0, 71, 79
1, 114745, Note_off_c, 0, 69, 63
1, 114826, Note_on_c, 0, 73, 78
1, 114846, Note_off_c, 0, 71, 65
1, 114925, Note_on_c, 0, 74, 80
1, 114926, Note_off_c, 0, 73, 65
1, 115018, Note_on_c, 0, 75, 83
1, 115036, Note_off_c, 0, 74, 65
1, 115110, Note_on_c, 0, 76, 86
1, 115115, Note_off_c, 0, 75, 63
1, 115205, Note_on_c, 0, 77, 84
1, 115220, Note_off_c, 0, 76, 62
1, 115305, Note_on_c, 0, 78, 80
1, 115316, Note_off_c, 0, 77, 59
1, 115390, Note_off_c, 0, 78, 65
1, 115403, Note_on_c, 0, 79, 78
1, 115441, Control_c, 0, 67, 9
1, 115456, Control_c, 0, 67, 11
1, 115471, Control_c, 0, 67, 14
1, 115486, Control_c, 0, 67, 17
1, 115497, Note_on_c, 0, 80, 78
1, 115501, Control_c, 0, 67, 21
1, 115505, Note_off_c, 0, 79, 62
1, 115515, Control_c, 0, 67, 25
1, 115530, Control_c, 0, 67, 28
1, 115545, Control_c, 0, 67, 30
1, 115560, Control_c, 0, 67, 33
1, 115575, Control_c, 0, 67, 38
1, 115589, Control_c, 0, 67, 44
1, 115592, Note_on_c, 0, 81, 75
1, 115602, Note_off_c, 0, 80, 63
1, 115604, Control_c, 0, 67, 49
1, 115619, Control_c, 0, 67, 54
1, 115634, Control_c, 0, 67, 58
1, 115649, Control_c, 0, 67, 61
1, 115663, Control_c, 0, 67, 66
1, 115678, Control_c, 0, 67, 71
1, 115693, Control_c, 0, 67, 76
1, 115708, Control_c, 0, 67, 80
1, 115718, Note_on_c, 0, 79, 72
1, 115722, Control_c, 0, 67, 83
1, 115724, Note_off_c, 0, 81, 63
1, 115737, Control_c, 0, 67, 85
1, 115752, Control_c, 0, 67, 88
1, 115767, Control_c, 0, 67, 93
1, 115782, Control_c, 0, 67, 99
1, 115796, Control_c, 0, 67, 103
1, 115811, Control_c, 0, 67, 107
1, 115814, Note_on_c, 0, 78, 75
1, 115823, Note_off_c, 0, 79, 62
1, 115826, Control_c, 0, 67, 109
1, 115841, Control_c, 0, 67, 112
1, 115856, Control_c, 0, 67, 114
1, 115870, Control_c, 0, 67, 118
1, 115876, Note_off_c, 0, 66, 56
1, 115879, Note_off_c, 0, 57, 49
1, 115885, Control_c, 0, 67, 121
1, 115894, Note_off_c, 0, 62, 55
1, 115900, Control_c, 0, 67, 124
1, 115907, Note_off_c, 0, 78, 67
1, 115915, Control_c, 0, 67, 127
1, 115917, Note_on_c, 0, 76, 70
1, 115978, Note_off_c, 0, 76, 63
1, 116007, Note_on_c, 0, 74, 66
1, 116129, Note_off_c, 0, 74, 50
1, 116168, Note_on_c, 0, 73, 59
1, 116206, Note_on_c, 0, 64, 31
1, 116207, Note_on_c, 0, 57, 34
1, 116261, Note_off_c, 0, 73, 64
1, 116662, Note_off_c, 0, 57, 59
1, 116680, Note_on_c, 0, 76, 64
1, 116709, Note_on_c, 0, 67, 26
1, 116729, Note_off_c, 0, 64, 45
1, 116759, Note_off_c, 0, 67, 47
1, 116764, Note_off_c, 0, 76, 64
1, 117309, Note_on_c, 0, 76, 65
1, 117333, Note_on_c, 0, 50, 34
1, 117334, Note_on_c, 0, 67, 33
1, 117396, Note_off_c, 0, 67, 0
1, 117396, Note_on_c, 0, 67, 10
1, 117501, Control_c, 0, 67, 125
1, 117516, Control_c, 0, 67, 115
1, 117531, Control_c, 0, 67, 100
1, 117546, Control_c, 0, 67, 85
1, 117562, Control_c, 0, 64, 19
1, 117562, Control_c, 0, 67, 68
1, 117577, Control_c, 0, 64, 28
1, 117577, Control_c, 0, 67, 48
1, 117591, Control_c, 0, 64, 36
1, 117591, Control_c, 0, 67, 28
1, 117606, Control_c, 0, 64, 43
1, 117606, Control_c, 0, 67, 10
1, 117621, Control_c, 0, 64, 50
1, 117621, Control_c, 0, 67, 0
1, 117644, Control_c, 0, 64, 55
1, 117659, Control_c, 0, 64, 59
1, 117673, Control_c, 0, 64, 61
1, 117688, Control_c, 0, 64, 63
1, 117703, Control_c, 0, 64, 64
1, 117717, Control_c, 0, 64, 66
1, 117732, Control_c, 0, 64, 69
1, 117747, Control_c, 0, 64, 71
1, 117762, Control_c, 0, 64, 74
1, 117777, Control_c, 0, 64, 78
1, 117791, Control_c, 0, 64, 80
1, 117806, Control_c, 0, 64, 83
1, 117821, Control_c, 0, 64, 86
1, 117836, Control_c, 0, 64, 89
1, 117851, Control_c, 0, 64, 91
1, 117865, Control_c, 0, 64, 95
1, 117880, Control_c, 0, 64, 99
1, 117895, Control_c, 0, 64, 103
1, 117909, Control_c, 0, 64, 107
1, 117924, Control_c, 0, 64, 108
1, 117936, Note_off_c, 0, 67, 44
1, 117939, Control_c, 0, 64, 109
1, 117954, Control_c, 0, 64, 110
1, 117984, Control_c, 0, 67, 9
1, 117999, Control_c, 0, 67, 13
1, 118014, Control_c, 0, 67, 17
1, 118028, Control_c, 0, 67, 25
1, 118043, Control_c, 0, 67, 34
1, 118058, Control_c, 0, 67, 44
1, 118073, Control_c, 0, 67, 55
1, 118088, Control_c, 0, 67, 64
1, 118102, Control_c, 0, 67, 72
1, 118117, Control_c, 0, 67, 79
1, 118132, Control_c, 0, 67, 88
1, 118147, Control_c, 0, 67, 95
1, 118162, Control_c, 0, 67, 102
1, 118177, Control_c, 0, 67, 107
1, 118191, Control_c, 0, 67, 110
1, 118206, Control_c, 0, 67, 111
1, 118280, Control_c, 0, 67, 110
1, 118294, Control_c, 0, 67, 109
1, 118309, Control_c, 0, 67, 109
1, 118324, Control_c, 0, 67, 108
1, 118338, Control_c, 0, 67, 108
1, 118354, Control_c, 0, 67, 106
1, 118369, Control_c, 0, 67, 105
1, 118392, Control_c, 0, 67, 104
1, 118436, Control_c, 0, 64, 109
1, 118436, Control_c, 0, 67, 104
1, 118451, Control_c, 0, 67, 103
1, 118466, Control_c, 0, 67, 102
1, 118481, Control_c, 0, 64, 108
1, 118481, Control_c, 0, 67, 101
1, 118495, Control_c, 0, 64, 107
1, 118510, Control_c, 0, 64, 105
1, 118539, Control_c, 0, 64, 105
1, 118539, Control_c, 0, 67, 101
1, 118554, Control_c, 0, 64, 102
1, 118554, Control_c, 0, 67, 100
1, 118569, Control_c, 0, 64, 99
1, 118569, Control_c, 0, 67, 99
1, 118584, Control_c, 0, 64, 96
1, 118599, Control_c, 0, 64, 95
1, 118613, Control_c, 0, 64, 93
1, 118628, Control_c, 0, 64, 89
1, 118643, Control_c, 0, 64, 81
1, 118643, Control_c, 0, 67, 98
1, 118655, Note_on_c, 0, 74, 38
1, 118658, Control_c, 0, 64, 77
1, 118658, Control_c, 0, 67, 98
1, 118669, Note_on_c, 0, 66, 39
1, 118673, Control_c, 0, 64, 73
1, 118673, Control_c, 0, 67, 97
1, 118687, Control_c, 0, 64, 69
1, 118687, Control_c, 0, 67, 94
1, 118690, Note_on_c, 0, 62, 24
1, 118702, Control_c, 0, 64, 64
1, 118702, Control_c, 0, 67, 90
1, 118717, Control_c, 0, 64, 58
1, 118717, Control_c, 0, 67, 88
1, 118732, Control_c, 0, 64, 43
1, 118732, Control_c, 0, 67, 87
1, 118746, Note_off_c, 0, 66, 0
1, 118746, Note_on_c, 0, 66, 3
1, 118747, Control_c, 0, 64, 27
1, 118747, Control_c, 0, 67, 87
1, 118762, Control_c, 0, 64, 20
1, 118777, Control_c, 0, 64, 17
1, 118792, Control_c, 0, 64, 0
1, 118806, Control_c, 0, 67, 86
1, 118825, Note_off_c, 0, 76, 65
1, 119048, Note_off_c, 0, 50, 42
1, 119138, Control_c, 0, 67, 87
1, 119347, Control_c, 0, 64, 15
1, 119361, Control_c, 0, 64, 29
1, 119361, Control_c, 0, 67, 86
1, 119376, Control_c, 0, 64, 39
1, 119391, Control_c, 0, 64, 51
1, 119406, Control_c, 0, 64, 59
1, 119421, Control_c, 0, 64, 63
1, 119435, Control_c, 0, 64, 64
1, 119450, Control_c, 0, 64, 65
1, 119465, Control_c, 0, 64, 67
1, 119480, Control_c, 0, 64, 71
1, 119495, Control_c, 0, 64, 76
1, 119510, Control_c, 0, 64, 79
1, 119525, Control_c, 0, 64, 83
1, 119540, Control_c, 0, 64, 88
1, 119554, Control_c, 0, 64, 93
1, 119569, Control_c, 0, 64, 98
1, 119584, Control_c, 0, 64, 105
1, 119599, Control_c, 0, 64, 109
1, 119614, Control_c, 0, 64, 115
1, 119628, Control_c, 0, 64, 122
1, 119643, Control_c, 0, 64, 127
1, 119721, Note_off_c, 0, 66, 53
1, 119728, Note_off_c, 0, 62, 46
1, 119808, Note_off_c, 0, 74, 34
1, 119993, Control_c, 0, 64, 119
1, 120008, Control_c, 0, 64, 115
1, 120023, Control_c, 0, 64, 110
1, 120038, Control_c, 0, 64, 100
1, 120052, Control_c, 0, 64, 88
1, 120067, Control_c, 0, 64, 80
1, 120082, Control_c, 0, 64, 77
1, 120097, Control_c, 0, 64, 72
1, 120097, Control_c, 0, 67, 85
1, 120111, Control_c, 0, 64, 65
1, 120111, Control_c, 0, 67, 84
1, 120126, Control_c, 0, 64, 55
1, 120126, Control_c, 0, 67, 78
1, 120141, Control_c, 0, 64, 34
1, 120141, Control_c, 0, 67, 65
1, 120156, Control_c, 0, 64, 0
1, 120156, Control_c, 0, 67, 40
1, 120171, Control_c, 0, 67, 10
1, 120185, Control_c, 0, 67, 0
1, 120320, Note_on_c, 0, 69, 90
1, 120347, Note_off_c, 0, 69, 68
1, 120663, Note_on_c, 0, 74, 91
1, 120676, Note_on_c, 0, 62, 78
1, 120678, Note_on_c, 0, 57, 73
1, 120681, Note_on_c, 0, 50, 72
1, 120681, Note_on_c, 0, 65, 72
1, 120683, Note_on_c, 0, 53, 67
1, 120875, Control_c, 0, 64, 24
1, 120890, Control_c, 0, 64, 39
1, 120905, Control_c, 0, 64, 52
1, 120920, Control_c, 0, 64, 63
1, 120934, Control_c, 0, 64, 67
1, 120949, Control_c, 0, 64, 69
1, 120956, Note_off_c, 0, 74, 60
1, 120964, Control_c, 0, 64, 72
1, 120979, Control_c, 0, 64, 79
1, 120980, Note_off_c, 0, 65, 37
1, 120994, Control_c, 0, 64, 85
1, 121008, Control_c, 0, 64, 90
1, 121023, Control_c, 0, 64, 95
1, 121038, Control_c, 0, 64, 100
1, 121053, Control_c, 0, 64, 108
1, 121068, Control_c, 0, 64, 114
1, 121082, Control_c, 0, 64, 119
1, 121097, Control_c, 0, 64, 127
1, 121245, Control_c, 0, 67, 9
1, 121260, Control_c, 0, 67, 11
1, 121275, Control_c, 0, 67, 13
1, 121290, Control_c, 0, 67, 15
1, 121304, Control_c, 0, 67, 17
1, 121319, Control_c, 0, 67, 20
1, 121334, Control_c, 0, 67, 23
1, 121349, Control_c, 0, 67, 25
1, 121364, Control_c, 0, 67, 27
1, 121386, Control_c, 0, 67, 28
1, 121388, Note_on_c, 0, 74, 74
1, 121402, Note_on_c, 0, 65, 54
1, 121415, Control_c, 0, 67, 28
1, 121430, Control_c, 0, 67, 29
1, 121433, Note_off_c, 0, 50, 33
1, 121440, Note_off_c, 0, 65, 55
1, 121455, Note_off_c, 0, 74, 62
1, 121531, Note_off_c, 0, 53, 37
1, 121534, Control_c, 0, 67, 28
1, 121564, Control_c, 0, 67, 27
1, 121594, Control_c, 0, 67, 27
1, 121612, Note_off_c, 0, 57, 60
1, 121624, Control_c, 0, 64, 108
1, 121629, Note_on_c, 0, 74, 70
1, 121635, Note_off_c, 0, 62, 31
1, 121638, Control_c, 0, 64, 89
1, 121638, Control_c, 0, 67, 26
1, 121643, Note_on_c, 0, 65, 55
1, 121653, Control_c, 0, 64, 79
1, 121668, Control_c, 0, 64, 72
1, 121683, Control_c, 0, 64, 64
1, 121698, Control_c, 0, 64, 56
1, 121713, Control_c, 0, 64, 38
1, 121728, Control_c, 0, 64, 0
1, 121757, Control_c, 0, 67, 26
1, 121772, Control_c, 0, 67, 25
1, 121790, Note_on_c, 0, 62, 67
1, 121818, Note_off_c, 0, 62, 66
1, 121831, Control_c, 0, 67, 25
1, 121861, Control_c, 0, 67, 24
1, 121875, Control_c, 0, 67, 24
1, 121890, Control_c, 0, 67, 23
1, 121919, Note_on_c, 0, 60, 73
1, 121920, Control_c, 0, 67, 23
1, 121944, Note_off_c, 0, 60, 63
1, 121964, Control_c, 0, 67, 22
1, 122044, Note_on_c, 0, 58, 80
1, 122078, Note_off_c, 0, 58, 66
1, 122080, Note_off_c, 0, 65, 62
1, 122082, Control_c, 0, 67, 22
1, 122097, Control_c, 0, 67, 21
1, 122112, Control_c, 0, 67, 20
1, 122114, Note_off_c, 0, 74, 66
1, 122135, Control_c, 0, 67, 19
1, 122150, Control_c, 0, 67, 17
1, 122164, Control_c, 0, 67, 15
1, 122177, Note_on_c, 0, 57, 81
1, 122179, Control_c, 0, 67, 10
1, 122194, Control_c, 0, 67, 0
1, 122213, Note_off_c, 0, 57, 62
1, 122301, Note_on_c, 0, 55, 84
1, 122336, Note_off_c, 0, 55, 63
1, 122430, Note_on_c, 0, 53, 84
1, 122461, Note_off_c, 0, 53, 66
1, 122550, Note_on_c, 0, 52, 87
1, 122586, Note_off_c, 0, 52, 69
1, 122666, Note_on_c, 0, 50, 86
1, 122696, Note_off_c, 0, 50, 65
1, 122789, Note_on_c, 0, 48, 90
1, 122822, Note_off_c, 0, 48, 68
1, 122922, Note_on_c, 0, 46, 79
1, 122947, Note_off_c, 0, 46, 67
1, 123001, Note_on_c, 0, 74, 90
1, 123045, Note_off_c, 0, 74, 66
1, 123047, Note_on_c, 0, 45, 74
1, 123084, Note_off_c, 0, 45, 60
1, 123255, Note_on_c, 0, 76, 100
1, 123256, Note_on_c, 0, 43, 90
1, 123263, Note_on_c, 0, 74, 87
1, 123340, Note_off_c, 0, 43, 63
1, 123343, Control_c, 0, 64, 40
1, 123358, Control_c, 0, 64, 58
1, 123373, Control_c, 0, 64, 78
1, 123388, Control_c, 0, 64, 122
1, 123403, Control_c, 0, 64, 127
1, 123426, Note_off_c, 0, 74, 62
1, 123444, Note_off_c, 0, 76, 71
1, 123972, Note_on_c, 0, 76, 80
1, 124011, Note_on_c, 0, 74, 27
1, 124045, Note_off_c, 0, 74, 54
1, 124045, Note_off_c, 0, 76, 65
1, 124217, Note_on_c, 0, 76, 76
1, 124252, Note_on_c, 0, 74, 37
1, 124315, Control_c, 0, 64, 108
1, 124317, Note_off_c, 0, 74, 0
1, 124317, Note_on_c, 0, 74, 5
1, 124330, Control_c, 0, 64, 82
1, 124336, Note_on_c, 0, 55, 63
1, 124344, Control_c, 0, 64, 68
1, 124359, Control_c, 0, 64, 57
1, 124375, Note_off_c, 0, 55, 64
1, 124381, Control_c, 0, 64, 41
1, 124396, Control_c, 0, 64, 14
1, 124411, Control_c, 0, 64, 0
1, 124458, Note_on_c, 0, 57, 71
1, 124497, Note_off_c, 0, 57, 64
1, 124586, Note_on_c, 0, 58, 74
1, 124611, Note_off_c, 0, 58, 69
1, 124666, Note_off_c, 0, 74, 46
1, 124685, Note_off_c, 0, 76, 60
1, 124709, Note_on_c, 0, 60, 75
1, 124734, Note_off_c, 0, 60, 66
1, 124825, Note_on_c, 0, 62, 71
1, 124860, Note_off_c, 0, 62, 57
1, 124973, Note_on_c, 0, 64, 51
1, 124975, Note_on_c, 0, 76, 73
1, 125001, Note_on_c, 0, 73, 38
1, 125063, Control_c, 0, 64, 27
1, 125074, Note_off_c, 0, 73, 0
1, 125074, Note_on_c, 0, 73, 20
1, 125078, Control_c, 0, 64, 43
1, 125090, Note_off_c, 0, 64, 58
1, 125093, Control_c, 0, 64, 56
1, 125097, Note_on_c, 0, 65, 64
1, 125108, Control_c, 0, 64, 65
1, 125130, Control_c, 0, 64, 71
1, 125145, Control_c, 0, 64, 75
1, 125160, Control_c, 0, 64, 81
1, 125174, Control_c, 0, 64, 91
1, 125177, Note_off_c, 0, 76, 59
1, 125189, Control_c, 0, 64, 101
1, 125195, Note_off_c, 0, 65, 64
1, 125204, Control_c, 0, 64, 111
1, 125219, Control_c, 0, 64, 127
1, 125221, Note_on_c, 0, 67, 59
1, 125365, Note_on_c, 0, 57, 55
1, 125367, Control_c, 0, 64, 98
1, 125372, Note_on_c, 0, 79, 80
1, 125382, Note_on_c, 0, 76, 58
1, 125382, Control_c, 0, 64, 76
1, 125397, Control_c, 0, 64, 66
1, 125412, Control_c, 0, 64, 55
1, 125425, Note_off_c, 0, 67, 35
1, 125426, Control_c, 0, 64, 34
1, 125441, Control_c, 0, 64, 0
1, 125448, Note_off_c, 0, 76, 52
1, 125500, Control_c, 0, 64, 31
1, 125502, Note_on_c, 0, 59, 53
1, 125511, Note_off_c, 0, 73, 50
1, 125515, Control_c, 0, 64, 50
1, 125530, Control_c, 0, 64, 64
1, 125546, Control_c, 0, 64, 80
1, 125555, Note_off_c, 0, 57, 36
1, 125561, Control_c, 0, 64, 87
1, 125576, Control_c, 0, 64, 88
1, 125590, Control_c, 0, 64, 94
1, 125605, Control_c, 0, 64, 110
1, 125620, Control_c, 0, 64, 127
1, 125632, Note_on_c, 0, 61, 69
1, 125656, Note_off_c, 0, 59, 59
1, 125799, Note_on_c, 0, 62, 50
1, 125827, Note_off_c, 0, 61, 63
1, 125836, Note_on_c, 0, 77, 71
1, 125879, Control_c, 0, 64, 91
1, 125894, Control_c, 0, 64, 68
1, 125909, Control_c, 0, 64, 57
1, 125923, Control_c, 0, 64, 36
1, 125937, Note_off_c, 0, 62, 64
1, 125938, Control_c, 0, 64, 0
1, 125940, Poly_aftertouch_c, 0, 76, 127
1, 125942, Note_off_c, 0, 79, 56
1, 125960, Note_on_c, 0, 64, 56
1, 125997, Control_c, 0, 64, 24
1, 126012, Control_c, 0, 64, 43
1, 126027, Control_c, 0, 64, 59
1, 126042, Control_c, 0, 64, 71
1, 126056, Control_c, 0, 64, 78
1, 126071, Control_c, 0, 64, 78
1, 126077, Note_off_c, 0, 64, 62
1, 126086, Note_on_c, 0, 65, 61
1, 126086, Control_c, 0, 64, 81
1, 126101, Control_c, 0, 64, 90
1, 126116, Control_c, 0, 64, 100
1, 126118, Note_off_c, 0, 65, 66
1, 126131, Control_c, 0, 64, 106
1, 126145, Control_c, 0, 64, 107
1, 126148, Poly_aftertouch_c, 0, 76, 0
1, 126160, Control_c, 0, 64, 110
1, 126175, Control_c, 0, 64, 127
1, 126220, Control_c, 0, 64, 122
1, 126221, Note_on_c, 0, 58, 63
1, 126235, Control_c, 0, 64, 82
1, 126246, Note_on_c, 0, 74, 59
1, 126249, Control_c, 0, 64, 64
1, 126264, Control_c, 0, 64, 50
1, 126279, Control_c, 0, 64, 0
1, 126338, Control_c, 0, 64, 28
1, 126342, Note_off_c, 0, 77, 63
1, 126354, Control_c, 0, 64, 47
1, 126360, Note_off_c, 0, 58, 63
1, 126361, Note_on_c, 0, 60, 73
1, 126369, Control_c, 0, 64, 66
1, 126384, Control_c, 0, 64, 95
1, 126399, Control_c, 0, 64, 108
1, 126413, Control_c, 0, 64, 111
1, 126428, Control_c, 0, 64, 127
1, 126441, Note_off_c, 0, 60, 62
1, 126448, Note_off_c, 0, 74, 62
1, 126457, Note_on_c, 0, 62, 72
1, 126608, Note_off_c, 0, 62, 57
1, 126645, Note_on_c, 0, 55, 53
1, 126648, Note_on_c, 0, 82, 90
1, 126658, Control_c, 0, 64, 68
1, 126667, Note_on_c, 0, 74, 58
1, 126673, Control_c, 0, 64, 51
1, 126688, Control_c, 0, 64, 0
1, 126733, Control_c, 0, 64, 33
1, 126741, Note_off_c, 0, 74, 0
1, 126741, Note_on_c, 0, 74, 27
1, 126747, Control_c, 0, 64, 52
1, 126756, Note_on_c, 0, 57, 67
1, 126762, Control_c, 0, 64, 71
1, 126763, Note_off_c, 0, 55, 65
1, 126777, Control_c, 0, 64, 94
1, 126792, Control_c, 0, 64, 95
1, 126807, Control_c, 0, 64, 96
1, 126821, Control_c, 0, 64, 103
1, 126836, Control_c, 0, 64, 127
1, 126877, Note_off_c, 0, 57, 60
1, 126894, Note_on_c, 0, 58, 69
1, 126954, Control_c, 0, 64, 106
1, 126969, Control_c, 0, 64, 101
1, 126984, Control_c, 0, 64, 99
1, 126998, Control_c, 0, 64, 91
1, 127013, Control_c, 0, 64, 76
1, 127026, Note_off_c, 0, 58, 61
1, 127028, Control_c, 0, 64, 63
1, 127032, Note_on_c, 0, 52, 74
1, 127043, Control_c, 0, 64, 39
1, 127058, Control_c, 0, 64, 0
1, 127148, Control_c, 0, 64, 14
1, 127152, Note_on_c, 0, 53, 74
1, 127159, Note_off_c, 0, 52, 67
1, 127163, Control_c, 0, 64, 40
1, 127177, Control_c, 0, 64, 58
1, 127192, Control_c, 0, 64, 75
1, 127207, Control_c, 0, 64, 94
1, 127237, Control_c, 0, 64, 95
1, 127251, Control_c, 0, 64, 102
1, 127266, Control_c, 0, 64, 127
1, 127267, Note_on_c, 0, 55, 78
1, 127269, Note_off_c, 0, 74, 43
1, 127279, Note_off_c, 0, 82, 54
1, 127302, Note_off_c, 0, 53, 65
1, 127355, Control_c, 0, 64, 115
1, 127377, Control_c, 0, 64, 95
1, 127391, Control_c, 0, 64, 78
1, 127406, Control_c, 0, 64, 69
1, 127413, Note_on_c, 0, 48, 70
1, 127421, Control_c, 0, 64, 66
1, 127436, Control_c, 0, 64, 66
1, 127445, Note_on_c, 0, 82, 85
1, 127451, Control_c, 0, 64, 63
1, 127462, Note_on_c, 0, 76, 54
1, 127466, Control_c, 0, 64, 57
1, 127476, Note_off_c, 0, 55, 61
1, 127481, Control_c, 0, 64, 43
1, 127484, Note_off_c, 0, 76, 59
1, 127495, Control_c, 0, 64, 16
1, 127510, Control_c, 0, 64, 0
1, 127550, Note_on_c, 0, 52, 72
1, 127590, Note_off_c, 0, 48, 63
1, 127675, Note_on_c, 0, 55, 79
1, 127693, Note_off_c, 0, 52, 66
1, 127815, Note_off_c, 0, 55, 65
1, 127833, Note_on_c, 0, 60, 62
1, 127963, Note_on_c, 0, 64, 71
1, 127963, Note_off_c, 0, 60, 65
1, 128089, Note_on_c, 0, 60, 68
1, 128119, Note_off_c, 0, 64, 51
1, 128295, Note_on_c, 0, 65, 48
1, 128302, Note_on_c, 0, 81, 67
1, 128339, Note_off_c, 0, 82, 60
1, 128369, Note_off_c, 0, 60, 64
1, 128468, Note_on_c, 0, 84, 66
1, 128485, Note_off_c, 0, 81, 60
1, 128587, Note_on_c, 0, 82, 74
1, 128613, Note_off_c, 0, 84, 63
1, 128717, Note_on_c, 0, 81, 83
1, 128769, Note_off_c, 0, 82, 63
1, 128844, Note_on_c, 0, 79, 84
1, 128855, Note_off_c, 0, 81, 64
1, 128962, Note_on_c, 0, 77, 79
1, 128989, Note_off_c, 0, 79, 59
1, 129134, Note_off_c, 0, 77, 56
1, 129135, Note_on_c, 0, 76, 67
1, 129153, Note_on_c, 0, 67, 47
1, 129249, Note_off_c, 0, 65, 65
1, 129257, Note_on_c, 0, 82, 72
1, 129280, Note_off_c, 0, 76, 62
1, 129394, Note_on_c, 0, 81, 79
1, 129418, Note_off_c, 0, 82, 62
1, 129519, Note_on_c, 0, 79, 77
1, 129562, Note_off_c, 0, 81, 61
1, 129641, Note_on_c, 0, 77, 82
1, 129664, Note_off_c, 0, 79, 63
1, 129758, Note_on_c, 0, 76, 77
1, 129778, Note_off_c, 0, 77, 64
1, 129910, Note_on_c, 0, 77, 64
1, 129914, Note_on_c, 0, 69, 53
1, 129937, Note_off_c, 0, 76, 64
1, 130034, Note_off_c, 0, 77, 61
1, 130038, Note_on_c, 0, 79, 66
1, 130053, Note_off_c, 0, 67, 61
1, 130161, Note_on_c, 0, 77, 67
1, 130184, Note_off_c, 0, 79, 59
1, 130295, Note_on_c, 0, 75, 64
1, 130305, Note_off_c, 0, 77, 61
1, 130402, Note_off_c, 0, 75, 62
1, 130414, Note_on_c, 0, 74, 67
1, 130529, Note_off_c, 0, 74, 65
1, 130539, Note_on_c, 0, 73, 66
1, 130653, Note_off_c, 0, 73, 62
1, 130694, Note_on_c, 0, 74, 57
1, 130704, Note_on_c, 0, 70, 51
1, 130818, Note_on_c, 0, 85, 62
1, 130822, Note_off_c, 0, 74, 47
1, 130835, Note_off_c, 0, 69, 53
1, 130938, Note_on_c, 0, 86, 77
1, 130965, Note_off_c, 0, 85, 63
1, 131058, Note_on_c, 0, 81, 82
1, 131098, Note_off_c, 0, 86, 60
1, 131150, Control_c, 0, 64, 9
1, 131165, Control_c, 0, 64, 22
1, 131180, Control_c, 0, 64, 32
1, 131181, Note_on_c, 0, 82, 72
1, 131195, Control_c, 0, 64, 41
1, 131202, Note_off_c, 0, 81, 62
1, 131210, Control_c, 0, 64, 50
1, 131224, Control_c, 0, 64, 57
1, 131239, Control_c, 0, 64, 62
1, 131254, Control_c, 0, 64, 64
1, 131268, Control_c, 0, 64, 65
1, 131283, Control_c, 0, 64, 66
1, 131298, Control_c, 0, 64, 67
1, 131308, Note_on_c, 0, 79, 70
1, 131313, Control_c, 0, 64, 69
1, 131328, Control_c, 0, 64, 70
1, 131342, Control_c, 0, 64, 70
1, 131344, Note_off_c, 0, 82, 63
1, 131431, Control_c, 0, 64, 69
1, 131444, Note_off_c, 0, 79, 61
1, 131446, Control_c, 0, 64, 67
1, 131459, Note_on_c, 0, 77, 67
1, 131460, Control_c, 0, 64, 63
1, 131466, Note_on_c, 0, 60, 48
1, 131469, Note_on_c, 0, 69, 51
1, 131475, Control_c, 0, 64, 58
1, 131490, Control_c, 0, 64, 45
1, 131505, Control_c, 0, 64, 16
1, 131520, Control_c, 0, 64, 0
1, 131580, Note_off_c, 0, 70, 63
1, 131596, Note_on_c, 0, 84, 71
1, 131609, Control_c, 0, 64, 30
1, 131615, Note_off_c, 0, 77, 53
1, 131624, Control_c, 0, 64, 49
1, 131639, Control_c, 0, 64, 61
1, 131654, Control_c, 0, 64, 67
1, 131657, Note_off_c, 0, 84, 62
1, 131668, Control_c, 0, 64, 71
1, 131683, Control_c, 0, 64, 74
1, 131698, Control_c, 0, 64, 78
1, 131713, Control_c, 0, 64, 85
1, 131718, Note_on_c, 0, 84, 75
1, 131728, Control_c, 0, 64, 94
1, 131742, Control_c, 0, 64, 101
1, 131757, Control_c, 0, 64, 109
1, 131770, Note_off_c, 0, 84, 64
1, 131772, Control_c, 0, 64, 127
1, 131831, Control_c, 0, 64, 98
1, 131841, Note_on_c, 0, 84, 80
1, 131846, Control_c, 0, 64, 81
1, 131868, Control_c, 0, 64, 69
1, 131883, Control_c, 0, 64, 59
1, 131898, Control_c, 0, 64, 41
1, 131913, Control_c, 0, 64, 0
1, 131973, Control_c, 0, 64, 16
1, 131977, Note_on_c, 0, 81, 86
1, 131988, Control_c, 0, 64, 35
1, 131993, Note_off_c, 0, 84, 64
1, 132003, Control_c, 0, 64, 51
1, 132017, Control_c, 0, 64, 66
1, 132032, Control_c, 0, 64, 75
1, 132047, Control_c, 0, 64, 78
1, 132062, Control_c, 0, 64, 80
1, 132077, Control_c, 0, 64, 86
1, 132089, Note_on_c, 0, 77, 87
1, 132091, Control_c, 0, 64, 94
1, 132106, Control_c, 0, 64, 103
1, 132110, Note_off_c, 0, 81, 60
1, 132121, Control_c, 0, 64, 109
1, 132136, Control_c, 0, 64, 115
1, 132151, Control_c, 0, 64, 127
1, 132283, Control_c, 0, 64, 111
1, 132298, Control_c, 0, 64, 84
1, 132310, Note_on_c, 0, 70, 54
1, 132313, Control_c, 0, 64, 69
1, 132322, Note_on_c, 0, 81, 72
1, 132328, Control_c, 0, 64, 60
1, 132343, Control_c, 0, 64, 46
1, 132346, Note_off_c, 0, 77, 58
1, 132358, Control_c, 0, 64, 18
1, 132373, Control_c, 0, 64, 0
1, 132385, Note_off_c, 0, 69, 65
1, 132456, Note_off_c, 0, 81, 63
1, 132462, Control_c, 0, 64, 18
1, 132468, Note_on_c, 0, 79, 61
1, 132477, Control_c, 0, 64, 38
1, 132491, Control_c, 0, 64, 57
1, 132506, Control_c, 0, 64, 65
1, 132518, Note_off_c, 0, 79, 59
1, 132521, Control_c, 0, 64, 78
1, 132528, Note_on_c, 0, 81, 59
1, 132536, Control_c, 0, 64, 78
1, 132551, Control_c, 0, 64, 79
1, 132565, Control_c, 0, 64, 82
1, 132580, Control_c, 0, 64, 90
1, 132587, Note_off_c, 0, 81, 61
1, 132593, Note_on_c, 0, 79, 61
1, 132595, Control_c, 0, 64, 96
1, 132617, Control_c, 0, 64, 101
1, 132632, Control_c, 0, 64, 105
1, 132635, Note_off_c, 0, 79, 62
1, 132647, Control_c, 0, 64, 108
1, 132658, Note_on_c, 0, 81, 52
1, 132660, Note_off_c, 0, 60, 49
1, 132662, Control_c, 0, 64, 117
1, 132677, Control_c, 0, 64, 127
1, 132689, Note_off_c, 0, 81, 64
1, 132704, Note_on_c, 0, 79, 71
1, 132744, Note_off_c, 0, 79, 60
1, 132760, Note_on_c, 0, 81, 65
1, 132793, Note_off_c, 0, 81, 54
1, 132820, Note_on_c, 0, 79, 45
1, 132846, Note_off_c, 0, 79, 55
1, 132857, Note_on_c, 0, 81, 37
1, 132889, Note_off_c, 0, 81, 54
1, 132895, Note_on_c, 0, 79, 71
1, 132915, Note_off_c, 0, 79, 66
1, 132920, Note_on_c, 0, 81, 70
1, 132990, Note_on_c, 0, 79, 66
1, 132994, Note_off_c, 0, 81, 51
1, 133066, Note_on_c, 0, 77, 77
1, 133075, Note_off_c, 0, 79, 60
1, 133142, Note_on_c, 0, 79, 88
1, 133165, Note_off_c, 0, 77, 60
1, 133210, Control_c, 0, 64, 81
1, 133225, Control_c, 0, 64, 63
1, 133240, Control_c, 0, 64, 45
1, 133255, Control_c, 0, 64, 0
1, 133300, Control_c, 0, 64, 23
1, 133314, Control_c, 0, 64, 42
1, 133329, Control_c, 0, 64, 59
1, 133340, Note_on_c, 0, 89, 95
1, 133344, Control_c, 0, 64, 78
1, 133348, Note_on_c, 0, 74, 62
1, 133364, Note_off_c, 0, 79, 62
1, 133365, Control_c, 0, 64, 92
1, 133380, Control_c, 0, 64, 96
1, 133395, Control_c, 0, 64, 103
1, 133410, Control_c, 0, 64, 127
1, 133426, Note_off_c, 0, 70, 61
1, 133447, Note_off_c, 0, 74, 56
1, 133470, Control_c, 0, 67, 8
1, 133484, Control_c, 0, 67, 10
1, 133491, Note_on_c, 0, 81, 79
1, 133499, Control_c, 0, 67, 10
1, 133514, Control_c, 0, 67, 12
1, 133526, Note_off_c, 0, 89, 65
1, 133529, Control_c, 0, 67, 13
1, 133544, Control_c, 0, 67, 18
1, 133559, Control_c, 0, 64, 101
1, 133559, Control_c, 0, 67, 27
1, 133574, Control_c, 0, 64, 95
1, 133574, Control_c, 0, 67, 32
1, 133589, Control_c, 0, 64, 91
1, 133589, Control_c, 0, 67, 37
1, 133604, Control_c, 0, 64, 84
1, 133604, Control_c, 0, 67, 42
1, 133608, Note_on_c, 0, 82, 77
1, 133619, Control_c, 0, 64, 74
1, 133619, Control_c, 0, 67, 48
1, 133631, Note_off_c, 0, 81, 62
1, 133633, Control_c, 0, 64, 64
1, 133633, Control_c, 0, 67, 53
1, 133648, Control_c, 0, 64, 51
1, 133648, Control_c, 0, 67, 59
1, 133663, Control_c, 0, 64, 41
1, 133663, Control_c, 0, 67, 64
1, 133678, Control_c, 0, 64, 35
1, 133678, Control_c, 0, 67, 67
1, 133693, Control_c, 0, 64, 29
1, 133693, Control_c, 0, 67, 70
1, 133708, Control_c, 0, 64, 13
1, 133708, Control_c, 0, 67, 73
1, 133723, Control_c, 0, 64, 0
1, 133723, Control_c, 0, 67, 76
1, 133737, Control_c, 0, 67, 79
1, 133747, Note_off_c, 0, 82, 65
1, 133748, Note_on_c, 0, 88, 79
1, 133750, Note_on_c, 0, 72, 55
1, 133752, Control_c, 0, 67, 80
1, 133767, Control_c, 0, 67, 84
1, 133774, Note_off_c, 0, 72, 60
1, 133781, Control_c, 0, 67, 87
1, 133796, Control_c, 0, 67, 89
1, 133869, Note_on_c, 0, 80, 70
1, 133894, Note_off_c, 0, 88, 60
1, 133900, Control_c, 0, 67, 88
1, 133915, Control_c, 0, 67, 88
1, 133929, Control_c, 0, 67, 87
1, 133959, Control_c, 0, 67, 87
1, 133982, Note_on_c, 0, 81, 74
1, 133982, Note_off_c, 0, 80, 60
1, 133988, Control_c, 0, 67, 86
1, 134003, Control_c, 0, 67, 85
1, 134129, Note_on_c, 0, 86, 71
1, 134131, Note_on_c, 0, 70, 57
1, 134149, Note_off_c, 0, 81, 54
1, 134152, Note_off_c, 0, 70, 60
1, 134252, Note_on_c, 0, 78, 72
1, 134268, Note_off_c, 0, 86, 56
1, 134338, Control_c, 0, 67, 85
1, 134369, Note_off_c, 0, 78, 63
1, 134370, Note_on_c, 0, 79, 71
1, 134504, Note_off_c, 0, 79, 61
1, 134505, Note_on_c, 0, 69, 55
1, 134512, Note_on_c, 0, 84, 61
1, 134526, Note_off_c, 0, 69, 62
1, 134596, Note_off_c, 0, 84, 60
1, 134631, Note_on_c, 0, 76, 67
1, 134741, Note_off_c, 0, 76, 66
1, 134752, Note_on_c, 0, 77, 68
1, 134893, Note_on_c, 0, 82, 65
1, 134895, Note_off_c, 0, 77, 62
1, 134912, Note_on_c, 0, 67, 54
1, 134957, Note_off_c, 0, 67, 57
1, 134997, Control_c, 0, 67, 85
1, 135016, Note_off_c, 0, 82, 62
1, 135019, Note_on_c, 0, 79, 68
1, 135128, Note_on_c, 0, 76, 63
1, 135153, Note_off_c, 0, 79, 60
1, 135240, Note_off_c, 0, 76, 64
1, 135264, Note_on_c, 0, 72, 68
1, 135275, Note_on_c, 0, 64, 41
1, 135307, Note_off_c, 0, 64, 50
1, 135380, Note_off_c, 0, 72, 62
1, 135384, Note_on_c, 0, 74, 68
1, 135413, Control_c, 0, 67, 83
1, 135427, Control_c, 0, 67, 81
1, 135442, Control_c, 0, 67, 77
1, 135457, Control_c, 0, 67, 70
1, 135472, Control_c, 0, 67, 50
1, 135487, Control_c, 0, 67, 22
1, 135501, Control_c, 0, 67, 0
1, 135516, Note_on_c, 0, 70, 71
1, 135520, Note_off_c, 0, 74, 64
1, 135651, Note_off_c, 0, 70, 61
1, 135653, Note_on_c, 0, 69, 73
1, 135666, Note_on_c, 0, 65, 44
1, 135708, Note_off_c, 0, 65, 53
1, 135777, Note_on_c, 0, 77, 72
1, 135810, Note_off_c, 0, 69, 60
1, 135895, Note_on_c, 0, 73, 72
1, 135910, Note_off_c, 0, 77, 61
1, 136034, Note_on_c, 0, 58, 49
1, 136048, Note_off_c, 0, 73, 64
1, 136053, Note_on_c, 0, 74, 67
1, 136057, Control_c, 0, 67, 9
1, 136072, Control_c, 0, 67, 12
1, 136075, Note_off_c, 0, 58, 62
1, 136087, Control_c, 0, 67, 16
1, 136102, Control_c, 0, 67, 21
1, 136117, Control_c, 0, 67, 26
1, 136131, Control_c, 0, 67, 31
1, 136146, Control_c, 0, 67, 36
1, 136161, Control_c, 0, 67, 40
1, 136176, Control_c, 0, 67, 44
1, 136180, Note_on_c, 0, 70, 69
1, 136188, Note_off_c, 0, 74, 63
1, 136191, Control_c, 0, 67, 46
1, 136206, Control_c, 0, 67, 48
1, 136221, Control_c, 0, 67, 49
1, 136236, Control_c, 0, 67, 50
1, 136280, Control_c, 0, 67, 51
1, 136295, Note_on_c, 0, 67, 69
1, 136299, Note_off_c, 0, 70, 59
1, 136310, Control_c, 0, 67, 51
1, 136391, Control_c, 0, 67, 52
1, 136406, Control_c, 0, 67, 52
1, 136411, Note_off_c, 0, 67, 58
1, 136421, Control_c, 0, 67, 54
1, 136436, Control_c, 0, 67, 58
1, 136443, Note_on_c, 0, 65, 64
1, 136450, Control_c, 0, 67, 60
1, 136465, Control_c, 0, 67, 63
1, 136477, Note_on_c, 0, 57, 39
1, 136480, Control_c, 0, 67, 66
1, 136483, Note_on_c, 0, 48, 40
1, 136495, Control_c, 0, 67, 67
1, 136510, Control_c, 0, 67, 69
1, 136525, Control_c, 0, 67, 69
1, 136539, Control_c, 0, 67, 70
1, 136582, Note_off_c, 0, 65, 63
1, 136583, Control_c, 0, 64, 24
1, 136583, Control_c, 0, 67, 71
1, 136586, Note_on_c, 0, 72, 62
1, 136598, Control_c, 0, 64, 37
1, 136613, Control_c, 0, 64, 45
1, 136628, Control_c, 0, 64, 52
1, 136632, Note_off_c, 0, 72, 58
1, 136643, Control_c, 0, 64, 56
1, 136657, Control_c, 0, 64, 59
1, 136672, Control_c, 0, 64, 60
1, 136687, Control_c, 0, 64, 61
1, 136712, Note_on_c, 0, 72, 70
1, 136760, Note_off_c, 0, 72, 61
1, 136792, Control_c, 0, 64, 60
1, 136806, Control_c, 0, 64, 59
1, 136821, Control_c, 0, 64, 56
1, 136836, Control_c, 0, 64, 50
1, 136842, Note_on_c, 0, 72, 67
1, 136851, Control_c, 0, 64, 38
1, 136866, Control_c, 0, 64, 21
1, 136880, Control_c, 0, 64, 0
1, 136960, Note_on_c, 0, 69, 77
1, 136968, Note_off_c, 0, 72, 62
1, 136969, Control_c, 0, 64, 27
1, 136984, Control_c, 0, 64, 43
1, 136999, Control_c, 0, 64, 55
1, 137014, Control_c, 0, 64, 62
1, 137029, Control_c, 0, 64, 65
1, 137044, Control_c, 0, 64, 66
1, 137059, Control_c, 0, 64, 67
1, 137059, Control_c, 0, 67, 71
1, 137065, Note_on_c, 0, 65, 75
1, 137067, Note_off_c, 0, 69, 62
1, 137073, Control_c, 0, 64, 69
1, 137088, Control_c, 0, 64, 71
1, 137111, Control_c, 0, 64, 73
1, 137126, Control_c, 0, 64, 74
1, 137126, Control_c, 0, 67, 72
1, 137200, Control_c, 0, 67, 72
1, 137229, Control_c, 0, 64, 73
1, 137244, Control_c, 0, 64, 71
1, 137244, Control_c, 0, 67, 73
1, 137248, Note_on_c, 0, 58, 52
1, 137259, Control_c, 0, 64, 70
1, 137274, Control_c, 0, 64, 68
1, 137274, Control_c, 0, 67, 74
1, 137279, Note_off_c, 0, 65, 64
1, 137288, Control_c, 0, 64, 63
1, 137288, Control_c, 0, 67, 79
1, 137289, Note_on_c, 0, 69, 66
1, 137303, Control_c, 0, 64, 54
1, 137303, Control_c, 0, 67, 83
1, 137306, Note_off_c, 0, 57, 55
1, 137318, Control_c, 0, 64, 30
1, 137318, Control_c, 0, 67, 86
1, 137333, Control_c, 0, 64, 0
1, 137333, Control_c, 0, 67, 88
1, 137348, Control_c, 0, 67, 89
1, 137363, Control_c, 0, 67, 91
1, 137378, Control_c, 0, 67, 93
1, 137389, Note_off_c, 0, 69, 63
1, 137392, Control_c, 0, 67, 94
1, 137407, Control_c, 0, 67, 95
1, 137413, Note_on_c, 0, 67, 54
1, 137422, Control_c, 0, 64, 28
1, 137422, Control_c, 0, 67, 97
1, 137437, Control_c, 0, 64, 44
1, 137437, Control_c, 0, 67, 98
1, 137452, Control_c, 0, 64, 58
1, 137452, Control_c, 0, 67, 98
1, 137454, Note_off_c, 0, 67, 64
1, 137467, Control_c, 0, 64, 68
1, 137467, Control_c, 0, 67, 99
1, 137468, Note_on_c, 0, 69, 56
1, 137481, Control_c, 0, 64, 71
1, 137481, Control_c, 0, 67, 99
1, 137496, Control_c, 0, 64, 72
1, 137496, Control_c, 0, 67, 100
1, 137511, Control_c, 0, 64, 74
1, 137511, Control_c, 0, 67, 101
1, 137518, Note_off_c, 0, 69, 60
1, 137527, Control_c, 0, 64, 79
1, 137527, Control_c, 0, 67, 103
1, 137530, Note_on_c, 0, 67, 59
1, 137541, Control_c, 0, 64, 83
1, 137541, Control_c, 0, 67, 106
1, 137556, Control_c, 0, 64, 88
1, 137556, Control_c, 0, 67, 108
1, 137558, Note_off_c, 0, 67, 66
1, 137571, Control_c, 0, 64, 89
1, 137571, Control_c, 0, 67, 108
1, 137585, Note_on_c, 0, 69, 51
1, 137586, Control_c, 0, 64, 90
1, 137601, Control_c, 0, 64, 92
1, 137616, Control_c, 0, 64, 94
1, 137619, Note_off_c, 0, 69, 62
1, 137628, Note_on_c, 0, 67, 65
1, 137630, Control_c, 0, 64, 98
1, 137645, Control_c, 0, 64, 100
1, 137660, Control_c, 0, 64, 100
1, 137670, Note_off_c, 0, 67, 63
1, 137675, Control_c, 0, 64, 101
1, 137689, Note_on_c, 0, 69, 52
1, 137690, Control_c, 0, 64, 105
1, 137704, Control_c, 0, 64, 108
1, 137717, Note_off_c, 0, 69, 55
1, 137719, Control_c, 0, 64, 110
1, 137734, Control_c, 0, 67, 109
1, 137741, Note_on_c, 0, 67, 52
1, 137749, Control_c, 0, 64, 111
1, 137763, Control_c, 0, 64, 117
1, 137767, Note_off_c, 0, 67, 58
1, 137777, Control_c, 0, 64, 127
1, 137783, Note_on_c, 0, 69, 44
1, 137808, Note_off_c, 0, 69, 58
1, 137813, Note_off_c, 0, 58, 62
1, 137832, Note_on_c, 0, 67, 66
1, 137854, Note_off_c, 0, 67, 72
1, 137875, Note_on_c, 0, 69, 59
1, 137902, Note_off_c, 0, 48, 39
1, 137926, Note_off_c, 0, 69, 64
1, 137932, Note_on_c, 0, 67, 60
1, 137989, Note_off_c, 0, 67, 64
1, 138014, Note_on_c, 0, 65, 57
1, 138056, Note_off_c, 0, 65, 61
1, 138066, Control_c, 0, 64, 115
1, 138081, Note_on_c, 0, 67, 69
1, 138081, Control_c, 0, 64, 108
1, 138096, Control_c, 0, 64, 105
1, 138111, Control_c, 0, 64, 100
1, 138126, Control_c, 0, 64, 89
1, 138126, Control_c, 0, 67, 109
1, 138141, Control_c, 0, 64, 76
1, 138155, Control_c, 0, 64, 67
1, 138155, Control_c, 0, 67, 110
1, 138170, Control_c, 0, 64, 62
1, 138170, Control_c, 0, 67, 110
1, 138183, Note_on_c, 0, 41, 49
1, 138185, Control_c, 0, 64, 56
1, 138185, Control_c, 0, 67, 111
1, 138200, Note_off_c, 0, 67, 62
1, 138200, Control_c, 0, 64, 45
1, 138200, Control_c, 0, 67, 113
1, 138215, Note_on_c, 0, 65, 61
1, 138215, Control_c, 0, 64, 20
1, 138215, Control_c, 0, 67, 115
1, 138229, Control_c, 0, 64, 0
1, 138229, Control_c, 0, 67, 118
1, 138244, Control_c, 0, 67, 119
1, 138259, Control_c, 0, 67, 120
1, 138274, Control_c, 0, 67, 121
1, 138289, Control_c, 0, 67, 122
1, 138303, Control_c, 0, 67, 123
1, 138318, Control_c, 0, 67, 123
1, 138334, Control_c, 0, 64, 8
1, 138349, Control_c, 0, 64, 27
1, 138350, Note_on_c, 0, 45, 58
1, 138364, Control_c, 0, 64, 37
1, 138378, Control_c, 0, 64, 44
1, 138385, Note_off_c, 0, 41, 44
1, 138393, Control_c, 0, 64, 50
1, 138408, Control_c, 0, 64, 53
1, 138423, Control_c, 0, 67, 124
1, 138438, Control_c, 0, 64, 52
1, 138452, Control_c, 0, 64, 49
1, 138467, Control_c, 0, 64, 47
1, 138467, Control_c, 0, 67, 124
1, 138477, Note_on_c, 0, 48, 71
1, 138482, Control_c, 0, 64, 46
1, 138504, Note_off_c, 0, 45, 62
1, 138512, Control_c, 0, 64, 43
1, 138512, Control_c, 0, 67, 125
1, 138526, Control_c, 0, 64, 36
1, 138526, Control_c, 0, 67, 125
1, 138541, Control_c, 0, 64, 23
1, 138556, Control_c, 0, 64, 0
1, 138629, Note_off_c, 0, 48, 64
1, 138630, Note_on_c, 0, 53, 65
1, 138752, Note_off_c, 0, 53, 66
1, 138760, Note_on_c, 0, 57, 62
1, 138867, Note_off_c, 0, 57, 62
1, 138887, Note_on_c, 0, 53, 61
1, 139027, Note_on_c, 0, 48, 62
1, 139051, Note_off_c, 0, 53, 59
1, 139163, Note_off_c, 0, 48, 63
1, 139175, Note_on_c, 0, 53, 58
1, 139201, Control_c, 0, 67, 126
1, 139229, Note_off_c, 0, 65, 36
1, 139294, Note_on_c, 0, 48, 53
1, 139319, Note_off_c, 0, 53, 39
1, 139423, Note_on_c, 0, 45, 53
1, 139447, Note_off_c, 0, 48, 56
1, 139567, Note_off_c, 0, 45, 61
1, 139577, Note_on_c, 0, 48, 58
1, 139682, Control_c, 0, 67, 126
1, 139706, Note_on_c, 0, 45, 47
1, 139711, Note_off_c, 0, 48, 60
1, 139756, Control_c, 0, 67, 127
1, 139935, Note_on_c, 0, 41, 42
1, 139962, Note_off_c, 0, 45, 56
1, 140136, Control_c, 0, 64, 15
1, 140150, Control_c, 0, 64, 30
1, 140165, Control_c, 0, 64, 42
1, 140180, Control_c, 0, 64, 52
1, 140195, Control_c, 0, 64, 58
1, 140210, Control_c, 0, 64, 61
1, 140224, Control_c, 0, 64, 62
1, 140239, Control_c, 0, 64, 63
1, 140254, Control_c, 0, 64, 64
1, 140258, Note_off_c, 0, 41, 42
1, 140269, Control_c, 0, 64, 66
1, 140284, Control_c, 0, 64, 67
1, 140299, Control_c, 0, 64, 67
1, 140314, Control_c, 0, 64, 68
1, 140492, Control_c, 0, 64, 67
1, 140506, Control_c, 0, 64, 67
1, 140521, Control_c, 0, 64, 66
1, 140536, Control_c, 0, 64, 66
1, 140550, Control_c, 0, 64, 64
1, 140565, Control_c, 0, 64, 62
1, 140580, Control_c, 0, 64, 57
1, 140595, Control_c, 0, 64, 49
1, 140610, Control_c, 0, 64, 40
1, 140624, Control_c, 0, 64, 31
1, 140639, Control_c, 0, 64, 12
1, 140654, Control_c, 0, 64, 0
1, 140728, Note_on_c, 0, 53, 48
1, 140729, Control_c, 0, 64, 20
1, 140744, Control_c, 0, 64, 33
1, 140759, Control_c, 0, 64, 44
1, 140759, Control_c, 0, 67, 126
1, 140773, Control_c, 0, 64, 55
1, 140773, Control_c, 0, 67, 125
1, 140788, Control_c, 0, 64, 61
1, 140788, Control_c, 0, 67, 123
1, 140803, Control_c, 0, 64, 63
1, 140803, Control_c, 0, 67, 122
1, 140818, Control_c, 0, 64, 64
1, 140818, Control_c, 0, 67, 121
1, 140833, Control_c, 0, 64, 65
1, 140833, Control_c, 0, 67, 120
1, 140855, Control_c, 0, 64, 66
1, 140870, Control_c, 0, 64, 68
1, 140870, Control_c, 0, 67, 119
1, 140885, Control_c, 0, 64, 70
1, 140885, Control_c, 0, 67, 118
1, 140900, Control_c, 0, 64, 70
1, 140900, Control_c, 0, 67, 115
1, 140915, Control_c, 0, 64, 71
1, 140915, Control_c, 0, 67, 112
1, 140929, Control_c, 0, 67, 106
1, 140944, Control_c, 0, 67, 98
1, 140959, Control_c, 0, 67, 87
1, 140973, Control_c, 0, 67, 72
1, 140988, Control_c, 0, 67, 53
1, 141003, Control_c, 0, 64, 70
1, 141003, Control_c, 0, 67, 30
1, 141018, Control_c, 0, 64, 69
1, 141018, Control_c, 0, 67, 0
1, 141033, Control_c, 0, 64, 67
1, 141035, Note_on_c, 0, 63, 48
1, 141047, Control_c, 0, 64, 65
1, 141062, Control_c, 0, 64, 60
1, 141077, Note_off_c, 0, 53, 36
1, 141077, Control_c, 0, 64, 50
1, 141092, Control_c, 0, 64, 24
1, 141107, Control_c, 0, 64, 0
1, 141211, Control_c, 0, 64, 25
1, 141226, Control_c, 0, 64, 40
1, 141241, Control_c, 0, 64, 54
1, 141255, Control_c, 0, 64, 64
1, 141270, Control_c, 0, 64, 70
1, 141285, Control_c, 0, 64, 72
1, 141300, Control_c, 0, 64, 74
1, 141315, Control_c, 0, 64, 79
1, 141329, Control_c, 0, 64, 84
1, 141344, Control_c, 0, 64, 89
1, 141359, Control_c, 0, 64, 92
1, 141373, Control_c, 0, 64, 94
1, 141388, Control_c, 0, 64, 95
1, 141396, Note_off_c, 0, 63, 43
1, 141403, Control_c, 0, 64, 97
1, 141418, Control_c, 0, 64, 98
1, 141433, Control_c, 0, 64, 99
1, 141477, Control_c, 0, 64, 99
1, 141506, Control_c, 0, 64, 100
1, 141737, Control_c, 0, 64, 100
1, 141746, Note_on_c, 0, 65, 67
1, 141759, Note_on_c, 0, 63, 42
1, 141793, Note_off_c, 0, 65, 65
1, 141810, Control_c, 0, 64, 101
1, 141840, Control_c, 0, 64, 101
1, 141867, Note_off_c, 0, 63, 45
1, 142025, Note_on_c, 0, 81, 71
1, 142037, Note_on_c, 0, 72, 48
1, 142041, Note_on_c, 0, 63, 32
1, 142063, Control_c, 0, 64, 99
1, 142077, Control_c, 0, 64, 89
1, 142092, Control_c, 0, 64, 76
1, 142107, Control_c, 0, 64, 66
1, 142121, Control_c, 0, 64, 58
1, 142136, Control_c, 0, 64, 43
1, 142151, Control_c, 0, 64, 0
1, 142240, Control_c, 0, 64, 11
1, 142255, Control_c, 0, 64, 32
1, 142269, Control_c, 0, 64, 46
1, 142284, Control_c, 0, 64, 60
1, 142299, Control_c, 0, 64, 71
1, 142315, Control_c, 0, 64, 80
1, 142330, Control_c, 0, 64, 82
1, 142352, Control_c, 0, 64, 85
1, 142367, Control_c, 0, 64, 93
1, 142382, Control_c, 0, 64, 104
1, 142397, Control_c, 0, 64, 115
1, 142412, Control_c, 0, 64, 127
1, 142412, Note_off_c, 0, 72, 35
1, 142416, Note_off_c, 0, 81, 55
1, 142506, Note_off_c, 0, 63, 40
1, 142749, Note_on_c, 0, 81, 60
1, 142763, Note_on_c, 0, 72, 35
1, 142815, Note_off_c, 0, 72, 44
1, 142835, Note_off_c, 0, 81, 58
1, 143015, Note_on_c, 0, 81, 46
1, 143041, Note_on_c, 0, 72, 27
1, 143298, Note_off_c, 0, 72, 36
1, 143360, Note_off_c, 0, 81, 46
1, 143605, Control_c, 0, 64, 91
1, 143620, Control_c, 0, 64, 71
1, 143634, Control_c, 0, 64, 58
1, 143649, Control_c, 0, 64, 36
1, 143664, Control_c, 0, 64, 0
1, 143690, Note_on_c, 0, 50, 80
1, 143693, Control_c, 0, 64, 10
1, 143708, Control_c, 0, 64, 35
1, 143723, Control_c, 0, 64, 53
1, 143738, Control_c, 0, 64, 69
1, 143741, Note_off_c, 0, 50, 62
1, 143752, Control_c, 0, 64, 96
1, 143766, Control_c, 0, 64, 110
1, 143781, Control_c, 0, 64, 127
1, 144018, Note_on_c, 0, 69, 85
1, 144021, Note_on_c, 0, 66, 77
1, 144071, Control_c, 0, 64, 107
1, 144086, Control_c, 0, 64, 77
1, 144101, Control_c, 0, 64, 65
1, 144115, Control_c, 0, 64, 55
1, 144130, Control_c, 0, 64, 38
1, 144145, Control_c, 0, 64, 0
1, 144219, Control_c, 0, 64, 26
1, 144234, Control_c, 0, 64, 43
1, 144249, Control_c, 0, 64, 62
1, 144263, Control_c, 0, 64, 80
1, 144278, Control_c, 0, 64, 92
1, 144293, Control_c, 0, 64, 94
1, 144308, Control_c, 0, 64, 103
1, 144323, Control_c, 0, 64, 127
1, 144398, Note_off_c, 0, 66, 51
1, 144400, Note_off_c, 0, 69, 60
1, 144686, Control_c, 0, 64, 88
1, 144701, Control_c, 0, 64, 63
1, 144716, Control_c, 0, 64, 38
1, 144730, Note_on_c, 0, 72, 89
1, 144731, Control_c, 0, 64, 0
1, 144739, Note_on_c, 0, 66, 63
1, 144740, Note_on_c, 0, 69, 67
1, 144761, Control_c, 0, 64, 18
1, 144776, Control_c, 0, 64, 42
1, 144778, Note_off_c, 0, 72, 66
1, 144791, Control_c, 0, 64, 60
1, 144806, Control_c, 0, 64, 92
1, 144817, Note_off_c, 0, 66, 57
1, 144820, Control_c, 0, 64, 127
1, 144826, Note_off_c, 0, 69, 57
1, 145152, Note_on_c, 0, 87, 93
1, 145173, Note_on_c, 0, 84, 67
1, 145185, Note_on_c, 0, 66, 48
1, 145198, Note_on_c, 0, 69, 49
1, 145265, Control_c, 0, 64, 83
1, 145280, Control_c, 0, 64, 64
1, 145294, Control_c, 0, 64, 43
1, 145309, Control_c, 0, 64, 0
1, 145405, Control_c, 0, 64, 27
1, 145420, Control_c, 0, 64, 41
1, 145435, Control_c, 0, 64, 56
1, 145450, Control_c, 0, 64, 69
1, 145464, Control_c, 0, 64, 86
1, 145479, Control_c, 0, 64, 92
1, 145494, Control_c, 0, 64, 100
1, 145509, Control_c, 0, 64, 127
1, 145655, Note_off_c, 0, 84, 43
1, 145721, Note_off_c, 0, 87, 58
1, 145939, Note_on_c, 0, 87, 82
1, 145971, Note_on_c, 0, 84, 31
1, 146005, Note_off_c, 0, 84, 54
1, 146026, Note_off_c, 0, 87, 60
1, 146302, Note_on_c, 0, 87, 73
1, 146338, Note_on_c, 0, 84, 25
1, 146466, Control_c, 0, 67, 8
1, 146481, Control_c, 0, 67, 10
1, 146496, Control_c, 0, 67, 11
1, 146504, Note_off_c, 0, 84, 43
1, 146510, Control_c, 0, 67, 12
1, 146525, Control_c, 0, 67, 13
1, 146535, Note_off_c, 0, 66, 35
1, 146540, Control_c, 0, 67, 14
1, 146546, Note_off_c, 0, 69, 39
1, 146584, Control_c, 0, 67, 12
1, 146599, Control_c, 0, 67, 12
1, 146644, Control_c, 0, 67, 13
1, 146658, Control_c, 0, 67, 15
1, 146673, Control_c, 0, 67, 17
1, 146688, Control_c, 0, 67, 24
1, 146703, Control_c, 0, 67, 32
1, 146717, Control_c, 0, 67, 44
1, 146732, Control_c, 0, 67, 58
1, 146748, Control_c, 0, 67, 74
1, 146763, Control_c, 0, 67, 95
1, 146778, Control_c, 0, 67, 113
1, 146792, Control_c, 0, 67, 127
1, 146874, Control_c, 0, 64, 92
1, 146889, Control_c, 0, 64, 74
1, 146904, Control_c, 0, 64, 62
1, 146918, Control_c, 0, 64, 47
1, 146933, Control_c, 0, 64, 0
1, 147059, Note_on_c, 0, 86, 61
1, 147065, Note_on_c, 0, 66, 46
1, 147065, Note_on_c, 0, 69, 51
1, 147073, Note_off_c, 0, 87, 62
1, 147095, Note_off_c, 0, 66, 58
1, 147115, Note_off_c, 0, 69, 60
1, 147151, Note_off_c, 0, 86, 62
1, 147184, Note_on_c, 0, 84, 60
1, 147232, Note_off_c, 0, 84, 62
1, 147331, Note_on_c, 0, 82, 68
1, 147334, Note_on_c, 0, 67, 40
1, 147342, Note_on_c, 0, 70, 42
1, 147377, Note_off_c, 0, 70, 61
1, 147387, Note_off_c, 0, 67, 57
1, 147466, Note_off_c, 0, 82, 63
1, 147468, Note_on_c, 0, 84, 68
1, 147592, Note_on_c, 0, 82, 70
1, 147606, Note_off_c, 0, 84, 60
1, 147665, Note_off_c, 0, 82, 63
1, 147682, Control_c, 0, 67, 108
1, 147697, Control_c, 0, 67, 83
1, 147712, Control_c, 0, 67, 53
1, 147727, Note_on_c, 0, 81, 73
1, 147727, Control_c, 0, 67, 24
1, 147738, Note_on_c, 0, 72, 49
1, 147741, Control_c, 0, 67, 0
1, 147742, Note_on_c, 0, 69, 44
1, 147765, Note_off_c, 0, 72, 57
1, 147769, Note_off_c, 0, 69, 59
1, 147853, Note_on_c, 0, 82, 77
1, 147871, Note_off_c, 0, 81, 63
1, 147980, Note_on_c, 0, 81, 82
1, 148004, Note_off_c, 0, 82, 65
1, 148052, Note_off_c, 0, 81, 63
1, 148116, Note_on_c, 0, 70, 48
1, 148121, Note_on_c, 0, 79, 79
1, 148124, Note_on_c, 0, 74, 44
1, 148159, Note_off_c, 0, 74, 58
1, 148180, Note_off_c, 0, 70, 61
1, 148240, Note_on_c, 0, 81, 72
1, 148258, Note_off_c, 0, 79, 62
1, 148260, Control_c, 0, 67, 8
1, 148275, Control_c, 0, 67, 8
1, 148289, Control_c, 0, 67, 9
1, 148304, Control_c, 0, 67, 12
1, 148319, Control_c, 0, 67, 17
1, 148341, Control_c, 0, 67, 20
1, 148356, Control_c, 0, 67, 22
1, 148371, Control_c, 0, 67, 25
1, 148372, Note_on_c, 0, 79, 76
1, 148378, Note_off_c, 0, 81, 63
1, 148386, Control_c, 0, 67, 29
1, 148401, Control_c, 0, 67, 32
1, 148416, Control_c, 0, 67, 36
1, 148431, Control_c, 0, 67, 41
1, 148431, Note_off_c, 0, 79, 62
1, 148445, Control_c, 0, 67, 46
1, 148460, Control_c, 0, 67, 49
1, 148475, Control_c, 0, 67, 52
1, 148489, Control_c, 0, 67, 56
1, 148504, Control_c, 0, 67, 61
1, 148509, Note_on_c, 0, 69, 47
1, 148514, Note_on_c, 0, 72, 47
1, 148514, Note_on_c, 0, 77, 66
1, 148519, Control_c, 0, 67, 65
1, 148534, Control_c, 0, 67, 70
1, 148549, Control_c, 0, 67, 74
1, 148558, Note_off_c, 0, 72, 54
1, 148563, Control_c, 0, 67, 76
1, 148570, Note_off_c, 0, 69, 54
1, 148578, Control_c, 0, 67, 79
1, 148593, Control_c, 0, 67, 81
1, 148608, Control_c, 0, 67, 85
1, 148623, Control_c, 0, 67, 90
1, 148637, Control_c, 0, 67, 94
1, 148638, Note_on_c, 0, 79, 66
1, 148638, Note_off_c, 0, 77, 61
1, 148652, Control_c, 0, 67, 97
1, 148667, Control_c, 0, 67, 100
1, 148681, Control_c, 0, 67, 103
1, 148696, Control_c, 0, 67, 105
1, 148712, Control_c, 0, 67, 108
1, 148727, Control_c, 0, 67, 110
1, 148742, Control_c, 0, 67, 113
1, 148757, Control_c, 0, 67, 115
1, 148763, Note_off_c, 0, 79, 62
1, 148764, Note_on_c, 0, 77, 69
1, 148772, Control_c, 0, 67, 118
1, 148786, Control_c, 0, 67, 121
1, 148801, Control_c, 0, 67, 124
1, 148816, Control_c, 0, 67, 127
1, 148854, Note_off_c, 0, 77, 62
1, 148888, Note_on_c, 0, 70, 38
1, 148908, Note_on_c, 0, 67, 47
1, 148915, Note_on_c, 0, 76, 68
1, 148987, Note_off_c, 0, 67, 63
1, 148994, Note_off_c, 0, 70, 59
1, 149043, Note_off_c, 0, 76, 63
1, 149047, Note_on_c, 0, 77, 68
1, 149176, Note_on_c, 0, 76, 78
1, 149177, Note_off_c, 0, 77, 63
1, 149236, Note_off_c, 0, 76, 61
1, 149347, Note_on_c, 0, 68, 38
1, 149351, Note_on_c, 0, 77, 65
1, 149359, Note_on_c, 0, 71, 43
1, 149456, Note_off_c, 0, 71, 55
1, 149464, Note_off_c, 0, 68, 52
1, 149507, Note_on_c, 0, 76, 58
1, 149515, Note_off_c, 0, 77, 59
1, 149636, Note_off_c, 0, 76, 64
1, 149644, Note_on_c, 0, 74, 59
1, 149749, Note_off_c, 0, 74, 62
1, 149865, Note_on_c, 0, 74, 62
1, 149883, Note_on_c, 0, 69, 42
1, 150239, Control_c, 0, 64, 11
1, 150253, Control_c, 0, 64, 28
1, 150268, Control_c, 0, 64, 43
1, 150283, Control_c, 0, 64, 55
1, 150298, Control_c, 0, 64, 62
1, 150314, Control_c, 0, 64, 65
1, 150329, Control_c, 0, 64, 69
1, 150344, Control_c, 0, 64, 74
1, 150358, Control_c, 0, 64, 83
1, 150373, Control_c, 0, 64, 93
1, 150388, Control_c, 0, 64, 106
1, 150403, Control_c, 0, 64, 127
1, 150806, Note_on_c, 0, 73, 50
1, 150815, Note_on_c, 0, 57, 36
1, 150822, Note_off_c, 0, 74, 54
1, 150826, Control_c, 0, 64, 108
1, 150840, Control_c, 0, 64, 91
1, 150855, Control_c, 0, 64, 76
1, 150870, Control_c, 0, 64, 64
1, 150884, Control_c, 0, 64, 53
1, 150899, Control_c, 0, 64, 28
1, 150914, Control_c, 0, 64, 0
1, 150941, Note_off_c, 0, 73, 58
1, 150941, Note_on_c, 0, 74, 64
1, 150988, Control_c, 0, 64, 15
1, 151003, Control_c, 0, 64, 32
1, 151008, Note_off_c, 0, 69, 38
1, 151018, Control_c, 0, 64, 46
1, 151033, Control_c, 0, 64, 58
1, 151048, Control_c, 0, 64, 63
1, 151063, Control_c, 0, 64, 63
1, 151088, Note_on_c, 0, 76, 70
1, 151092, Note_off_c, 0, 74, 58
1, 151108, Control_c, 0, 64, 64
1, 151137, Control_c, 0, 64, 62
1, 151152, Control_c, 0, 64, 55
1, 151167, Control_c, 0, 64, 41
1, 151182, Control_c, 0, 64, 14
1, 151197, Control_c, 0, 64, 0
1, 151233, Note_on_c, 0, 74, 63
1, 151265, Note_off_c, 0, 76, 65
1, 151315, Control_c, 0, 64, 31
1, 151337, Control_c, 0, 64, 43
1, 151352, Control_c, 0, 64, 54
1, 151352, Control_c, 0, 67, 122
1, 151361, Note_off_c, 0, 57, 33
1, 151367, Control_c, 0, 64, 62
1, 151367, Control_c, 0, 67, 94
1, 151374, Note_on_c, 0, 73, 75
1, 151382, Control_c, 0, 64, 66
1, 151382, Control_c, 0, 67, 58
1, 151397, Control_c, 0, 64, 66
1, 151397, Control_c, 0, 67, 10
1, 151400, Note_off_c, 0, 74, 63
1, 151412, Control_c, 0, 67, 0
1, 151427, Control_c, 0, 64, 67
1, 151486, Control_c, 0, 64, 66
1, 151501, Note_on_c, 0, 70, 71
1, 151501, Control_c, 0, 64, 64
1, 151515, Control_c, 0, 64, 62
1, 151516, Note_off_c, 0, 73, 64
1, 151530, Control_c, 0, 64, 58
1, 151545, Control_c, 0, 64, 51
1, 151560, Control_c, 0, 64, 39
1, 151575, Control_c, 0, 64, 24
1, 151589, Control_c, 0, 64, 14
1, 151604, Control_c, 0, 64, 0
1, 151626, Note_on_c, 0, 69, 72
1, 151641, Note_off_c, 0, 70, 63
1, 151759, Note_on_c, 0, 70, 73
1, 151775, Note_off_c, 0, 69, 62
1, 151885, Note_on_c, 0, 69, 76
1, 151904, Note_off_c, 0, 70, 62
1, 152022, Note_on_c, 0, 67, 77
1, 152034, Note_off_c, 0, 69, 65
1, 152140, Note_off_c, 0, 67, 63
1, 152146, Note_on_c, 0, 65, 70
1, 152204, Control_c, 0, 64, 29
1, 152219, Control_c, 0, 64, 43
1, 152220, Note_on_c, 0, 33, 65
1, 152222, Note_on_c, 0, 45, 70
1, 152234, Control_c, 0, 64, 57
1, 152249, Control_c, 0, 64, 65
1, 152251, Note_off_c, 0, 33, 66
1, 152252, Note_off_c, 0, 45, 65
1, 152263, Control_c, 0, 64, 70
1, 152277, Note_off_c, 0, 65, 57
1, 152278, Control_c, 0, 64, 73
1, 152290, Note_on_c, 0, 64, 74
1, 152293, Control_c, 0, 64, 76
1, 152308, Control_c, 0, 64, 82
1, 152321, Note_off_c, 0, 64, 62
1, 152323, Control_c, 0, 64, 88
1, 152337, Control_c, 0, 64, 91
1, 152352, Control_c, 0, 64, 92
1, 152426, Control_c, 0, 64, 92
1, 152441, Control_c, 0, 64, 87
1, 152455, Control_c, 0, 64, 79
1, 152470, Control_c, 0, 64, 72
1, 152481, Note_on_c, 0, 38, 74
1, 152485, Note_on_c, 0, 50, 62
1, 152485, Control_c, 0, 64, 67
1, 152500, Control_c, 0, 64, 63
1, 152515, Control_c, 0, 64, 59
1, 152529, Control_c, 0, 64, 52
1, 152544, Control_c, 0, 64, 38
1, 152559, Control_c, 0, 64, 13
1, 152574, Control_c, 0, 64, 0
1, 152613, Note_on_c, 0, 81, 64
1, 152628, Note_on_c, 0, 77, 40
1, 152644, Note_off_c, 0, 81, 64
1, 152658, Note_off_c, 0, 77, 51
1, 152742, Note_on_c, 0, 77, 73
1, 152749, Note_on_c, 0, 81, 68
1, 152765, Note_off_c, 0, 77, 69
1, 152777, Note_off_c, 0, 81, 67
1, 152898, Note_on_c, 0, 81, 75
1, 152900, Note_on_c, 0, 77, 74
1, 152983, Control_c, 0, 64, 18
1, 152997, Control_c, 0, 64, 34
1, 153000, Note_off_c, 0, 38, 39
1, 153012, Control_c, 0, 64, 46
1, 153024, Note_off_c, 0, 81, 61
1, 153027, Note_off_c, 0, 50, 46
1, 153027, Control_c, 0, 64, 56
1, 153031, Note_on_c, 0, 76, 74
1, 153036, Note_on_c, 0, 79, 69
1, 153037, Note_off_c, 0, 77, 59
1, 153042, Control_c, 0, 64, 64
1, 153057, Control_c, 0, 64, 68
1, 153072, Control_c, 0, 64, 70
1, 153086, Control_c, 0, 64, 74
1, 153101, Control_c, 0, 64, 81
1, 153105, Note_on_c, 0, 50, 86
1, 153105, Note_on_c, 0, 38, 76
1, 153116, Control_c, 0, 64, 90
1, 153131, Control_c, 0, 64, 96
1, 153133, Note_off_c, 0, 38, 65
1, 153146, Control_c, 0, 64, 98
1, 153152, Note_off_c, 0, 50, 63
1, 153154, Note_off_c, 0, 76, 63
1, 153160, Control_c, 0, 64, 100
1, 153171, Note_on_c, 0, 77, 74
1, 153175, Note_on_c, 0, 74, 66
1, 153175, Control_c, 0, 64, 101
1, 153180, Note_off_c, 0, 79, 63
1, 153200, Note_off_c, 0, 74, 69
1, 153209, Note_off_c, 0, 77, 64
1, 153234, Control_c, 0, 64, 97
1, 153249, Control_c, 0, 64, 85
1, 153264, Control_c, 0, 64, 74
1, 153278, Control_c, 0, 64, 65
1, 153293, Control_c, 0, 64, 56
1, 153308, Control_c, 0, 64, 41
1, 153322, Note_on_c, 0, 52, 86
1, 153323, Control_c, 0, 64, 0
1, 153324, Note_on_c, 0, 40, 78
1, 153454, Note_on_c, 0, 85, 75
1, 153458, Note_on_c, 0, 82, 72
1, 153481, Note_off_c, 0, 82, 70
1, 153482, Note_off_c, 0, 85, 62
1, 153590, Note_on_c, 0, 82, 79
1, 153590, Note_on_c, 0, 85, 79
1, 153622, Note_off_c, 0, 82, 65
1, 153623, Note_off_c, 0, 85, 63
1, 153719, Note_on_c, 0, 82, 80
1, 153723, Note_on_c, 0, 85, 80
1, 153777, Control_c, 0, 64, 23
1, 153791, Control_c, 0, 64, 40
1, 153806, Control_c, 0, 64, 58
1, 153815, Note_off_c, 0, 52, 63
1, 153821, Control_c, 0, 64, 69
1, 153823, Note_off_c, 0, 40, 37
1, 153836, Control_c, 0, 64, 80
1, 153839, Note_on_c, 0, 81, 79
1, 153839, Note_off_c, 0, 82, 64
1, 153849, Note_on_c, 0, 86, 81
1, 153850, Control_c, 0, 64, 85
1, 153865, Control_c, 0, 64, 93
1, 153872, Note_off_c, 0, 85, 63
1, 153880, Control_c, 0, 64, 127
1, 153896, Note_off_c, 0, 81, 62
1, 153916, Note_on_c, 0, 52, 81
1, 153919, Note_on_c, 0, 40, 80
1, 153973, Note_off_c, 0, 40, 62
1, 153976, Note_on_c, 0, 88, 83
1, 153978, Note_off_c, 0, 86, 60
1, 153981, Note_off_c, 0, 52, 60
1, 153987, Note_on_c, 0, 79, 75
1, 154007, Note_off_c, 0, 79, 68
1, 154010, Note_off_c, 0, 88, 63
1, 154088, Control_c, 0, 64, 86
1, 154102, Control_c, 0, 64, 70
1, 154115, Note_on_c, 0, 53, 77
1, 154117, Control_c, 0, 64, 60
1, 154123, Note_on_c, 0, 41, 74
1, 154132, Control_c, 0, 64, 46
1, 154147, Control_c, 0, 64, 14
1, 154162, Control_c, 0, 64, 0
1, 154246, Note_on_c, 0, 86, 71
1, 154248, Note_on_c, 0, 74, 60
1, 154266, Note_off_c, 0, 74, 66
1, 154270, Note_off_c, 0, 86, 66
1, 154281, Note_off_c, 0, 53, 66
1, 154288, Note_off_c, 0, 41, 57
1, 154381, Note_on_c, 0, 74, 63
1, 154384, Note_on_c, 0, 86, 69
1, 154405, Note_off_c, 0, 74, 71
1, 154408, Note_off_c, 0, 86, 66
1, 154524, Note_on_c, 0, 54, 57
1, 154527, Note_on_c, 0, 42, 56
1, 154640, Note_on_c, 0, 72, 63
1, 154640, Note_on_c, 0, 84, 66
1, 154658, Note_off_c, 0, 84, 66
1, 154658, Note_off_c, 0, 72, 64
1, 154730, Note_off_c, 0, 54, 57
1, 154732, Note_off_c, 0, 42, 54
1, 154772, Note_on_c, 0, 72, 63
1, 154772, Note_on_c, 0, 84, 67
1, 154798, Note_off_c, 0, 84, 67
1, 154798, Note_off_c, 0, 72, 66
1, 154909, Note_on_c, 0, 55, 79
1, 154913, Note_on_c, 0, 43, 75
1, 155033, Note_on_c, 0, 70, 76
1, 155035, Note_on_c, 0, 82, 73
1, 155057, Note_off_c, 0, 43, 54
1, 155058, Note_off_c, 0, 70, 63
1, 155060, Note_off_c, 0, 82, 65
1, 155099, Note_off_c, 0, 55, 62
1, 155168, Note_on_c, 0, 82, 83
1, 155174, Note_on_c, 0, 70, 72
1, 155188, Note_off_c, 0, 82, 72
1, 155198, Note_off_c, 0, 70, 68
1, 155292, Note_on_c, 0, 58, 85
1, 155298, Note_on_c, 0, 46, 78
1, 155334, Control_c, 0, 64, 28
1, 155346, Note_off_c, 0, 46, 65
1, 155349, Control_c, 0, 64, 53
1, 155363, Control_c, 0, 64, 66
1, 155370, Note_off_c, 0, 58, 55
1, 155378, Control_c, 0, 64, 101
1, 155393, Control_c, 0, 64, 106
1, 155408, Control_c, 0, 64, 127
1, 155418, Note_on_c, 0, 79, 79
1, 155425, Note_on_c, 0, 67, 71
1, 155452, Note_off_c, 0, 67, 68
1, 155465, Note_off_c, 0, 79, 63
1, 155526, Control_c, 0, 64, 77
1, 155541, Control_c, 0, 64, 65
1, 155547, Note_on_c, 0, 67, 76
1, 155548, Note_on_c, 0, 79, 80
1, 155555, Control_c, 0, 64, 55
1, 155568, Note_off_c, 0, 67, 73
1, 155570, Control_c, 0, 64, 39
1, 155579, Note_off_c, 0, 79, 54
1, 155585, Control_c, 0, 64, 0
1, 155671, Note_on_c, 0, 57, 70
1, 155701, Note_off_c, 0, 57, 61
1, 155799, Note_on_c, 0, 62, 73
1, 155815, Note_off_c, 0, 62, 69
1, 155939, Note_on_c, 0, 65, 81
1, 155967, Note_off_c, 0, 65, 68
1, 156066, Note_on_c, 0, 69, 71
1, 156098, Note_off_c, 0, 69, 63
1, 156191, Note_on_c, 0, 74, 74
1, 156215, Note_off_c, 0, 74, 65
1, 156320, Note_on_c, 0, 77, 77
1, 156353, Note_off_c, 0, 77, 61
1, 156503, Note_on_c, 0, 81, 79
1, 156526, Control_c, 0, 67, 8
1, 156541, Control_c, 0, 67, 11
1, 156556, Control_c, 0, 67, 14
1, 156578, Control_c, 0, 67, 19
1, 156592, Control_c, 0, 67, 27
1, 156607, Control_c, 0, 67, 39
1, 156622, Control_c, 0, 67, 51
1, 156637, Control_c, 0, 67, 62
1, 156652, Control_c, 0, 67, 68
1, 156665, Note_off_c, 0, 81, 65
1, 156667, Control_c, 0, 67, 75
1, 156682, Control_c, 0, 67, 83
1, 156697, Control_c, 0, 67, 92
1, 156712, Control_c, 0, 67, 102
1, 156727, Control_c, 0, 67, 111
1, 156741, Control_c, 0, 67, 120
1, 156756, Control_c, 0, 67, 127
1, 156771, Control_c, 0, 67, 127
1, 157640, Note_on_c, 0, 57, 28
1, 157784, Note_off_c, 0, 57, 42
1, 157795, Note_on_c, 0, 61, 37
1, 157825, Note_off_c, 0, 61, 54
1, 157928, Note_on_c, 0, 64, 48
1, 157966, Note_off_c, 0, 64, 53
1, 158080, Note_on_c, 0, 67, 50
1, 158141, Note_off_c, 0, 67, 57
1, 158241, Note_on_c, 0, 73, 42
1, 158277, Note_off_c, 0, 73, 52
1, 158399, Note_on_c, 0, 76, 49
1, 158441, Note_off_c, 0, 76, 51
1, 158666, Note_on_c, 0, 79, 44
1, 159006, Note_off_c, 0, 79, 43
1, 159839, Control_c, 0, 67, 115
1, 159851, Note_on_c, 0, 46, 95
1, 159854, Note_on_c, 0, 34, 88
1, 159854, Control_c, 0, 64, 20
1, 159854, Control_c, 0, 67, 56
1, 159868, Control_c, 0, 64, 37
1, 159868, Control_c, 0, 67, 0
1, 159883, Control_c, 0, 64, 53
1, 159899, Control_c, 0, 64, 66
1, 159914, Control_c, 0, 64, 82
1, 159929, Control_c, 0, 64, 90
1, 159943, Control_c, 0, 64, 96
1, 159958, Control_c, 0, 64, 127
1, 160071, Note_on_c, 0, 88, 90
1, 160247, Note_on_c, 0, 89, 87
1, 160270, Note_off_c, 0, 88, 64
1, 160405, Note_on_c, 0, 85, 83
1, 160450, Note_off_c, 0, 89, 63
1, 160539, Note_on_c, 0, 86, 90
1, 160562, Note_off_c, 0, 85, 64
1, 160664, Note_on_c, 0, 81, 86
1, 160669, Note_off_c, 0, 86, 62
1, 160831, Note_on_c, 0, 82, 75
1, 160856, Control_c, 0, 64, 100
1, 160863, Note_off_c, 0, 81, 62
1, 160871, Control_c, 0, 64, 69
1, 160885, Control_c, 0, 64, 53
1, 160900, Control_c, 0, 64, 24
1, 160915, Control_c, 0, 64, 0
1, 160930, Control_c, 0, 64, 18
1, 160945, Control_c, 0, 64, 32
1, 160959, Control_c, 0, 64, 45
1, 160973, Note_on_c, 0, 80, 81
1, 160974, Control_c, 0, 64, 60
1, 160989, Control_c, 0, 64, 74
1, 161004, Control_c, 0, 64, 88
1, 161006, Note_off_c, 0, 82, 65
1, 161019, Control_c, 0, 64, 89
1, 161034, Control_c, 0, 64, 90
1, 161049, Control_c, 0, 64, 93
1, 161071, Control_c, 0, 64, 103
1, 161086, Control_c, 0, 64, 108
1, 161100, Control_c, 0, 64, 110
1, 161107, Note_on_c, 0, 81, 87
1, 161115, Control_c, 0, 64, 111
1, 161130, Control_c, 0, 64, 114
1, 161135, Note_off_c, 0, 80, 63
1, 161145, Control_c, 0, 64, 127
1, 161204, Control_c, 0, 64, 108
1, 161219, Control_c, 0, 64, 95
1, 161234, Control_c, 0, 64, 82
1, 161243, Note_on_c, 0, 76, 80
1, 161246, Note_off_c, 0, 81, 62
1, 161249, Control_c, 0, 64, 69
1, 161263, Control_c, 0, 64, 57
1, 161278, Control_c, 0, 64, 37
1, 161293, Control_c, 0, 64, 17
1, 161308, Control_c, 0, 64, 24
1, 161323, Control_c, 0, 64, 34
1, 161338, Control_c, 0, 64, 45
1, 161353, Control_c, 0, 64, 59
1, 161367, Control_c, 0, 64, 69
1, 161373, Note_on_c, 0, 77, 81
1, 161382, Control_c, 0, 64, 80
1, 161397, Control_c, 0, 64, 83
1, 161399, Note_off_c, 0, 76, 65
1, 161411, Control_c, 0, 64, 84
1, 161426, Control_c, 0, 64, 86
1, 161441, Control_c, 0, 64, 90
1, 161456, Control_c, 0, 64, 94
1, 161471, Control_c, 0, 64, 96
1, 161487, Control_c, 0, 64, 97
1, 161499, Note_on_c, 0, 73, 83
1, 161527, Note_off_c, 0, 77, 61
1, 161546, Control_c, 0, 64, 96
1, 161561, Control_c, 0, 64, 89
1, 161576, Control_c, 0, 64, 77
1, 161590, Control_c, 0, 64, 67
1, 161605, Control_c, 0, 64, 59
1, 161620, Control_c, 0, 64, 47
1, 161634, Control_c, 0, 64, 25
1, 161648, Note_on_c, 0, 74, 70
1, 161649, Control_c, 0, 64, 0
1, 161675, Note_off_c, 0, 73, 64
1, 161723, Control_c, 0, 64, 25
1, 161738, Control_c, 0, 64, 41
1, 161753, Control_c, 0, 64, 55
1, 161768, Control_c, 0, 64, 64
1, 161782, Control_c, 0, 64, 70
1, 161795, Note_on_c, 0, 77, 76
1, 161797, Control_c, 0, 64, 71
1, 161799, Note_off_c, 0, 74, 65
1, 161820, Control_c, 0, 64, 73
1, 161835, Control_c, 0, 64, 77
1, 161849, Control_c, 0, 64, 81
1, 161864, Control_c, 0, 64, 84
1, 161879, Control_c, 0, 64, 86
1, 161931, Note_off_c, 0, 77, 60
1, 161932, Note_on_c, 0, 69, 81
1, 161938, Control_c, 0, 64, 85
1, 161953, Control_c, 0, 64, 78
1, 161967, Control_c, 0, 64, 67
1, 161982, Control_c, 0, 64, 57
1, 161997, Control_c, 0, 64, 36
1, 162012, Control_c, 0, 64, 0
1, 162065, Note_on_c, 0, 70, 77
1, 162083, Note_off_c, 0, 69, 62
1, 162086, Control_c, 0, 64, 12
1, 162101, Control_c, 0, 64, 32
1, 162116, Control_c, 0, 64, 47
1, 162131, Control_c, 0, 64, 61
1, 162146, Control_c, 0, 64, 66
1, 162161, Control_c, 0, 64, 66
1, 162175, Control_c, 0, 64, 66
1, 162190, Control_c, 0, 64, 62
1, 162205, Note_on_c, 0, 74, 76
1, 162205, Control_c, 0, 64, 58
1, 162220, Control_c, 0, 64, 61
1, 162229, Note_off_c, 0, 70, 61
1, 162235, Control_c, 0, 64, 71
1, 162249, Control_c, 0, 64, 83
1, 162264, Control_c, 0, 64, 86
1, 162279, Control_c, 0, 64, 88
1, 162295, Control_c, 0, 64, 93
1, 162310, Control_c, 0, 64, 97
1, 162325, Control_c, 0, 64, 100
1, 162334, Note_on_c, 0, 68, 86
1, 162339, Control_c, 0, 64, 100
1, 162363, Note_off_c, 0, 74, 64
1, 162385, Note_off_c, 0, 46, 62
1, 162428, Control_c, 0, 64, 96
1, 162443, Control_c, 0, 64, 93
1, 162457, Control_c, 0, 64, 92
1, 162471, Control_c, 0, 64, 91
1, 162486, Control_c, 0, 64, 85
1, 162501, Control_c, 0, 64, 74
1, 162511, Note_on_c, 0, 33, 61
1, 162512, Note_on_c, 0, 45, 64
1, 162516, Control_c, 0, 64, 64
1, 162518, Note_on_c, 0, 69, 81
1, 162530, Control_c, 0, 64, 54
1, 162541, Note_off_c, 0, 68, 56
1, 162545, Control_c, 0, 64, 32
1, 162568, Control_c, 0, 64, 0
1, 162601, Note_off_c, 0, 34, 62
1, 162670, Note_on_c, 0, 70, 80
1, 162691, Note_off_c, 0, 69, 63
1, 162811, Note_on_c, 0, 71, 79
1, 162818, Note_off_c, 0, 70, 63
1, 162951, Note_on_c, 0, 72, 82
1, 162980, Note_off_c, 0, 71, 65
1, 163074, Note_on_c, 0, 73, 78
1, 163102, Note_off_c, 0, 72, 63
1, 163205, Note_on_c, 0, 74, 77
1, 163217, Note_off_c, 0, 73, 65
1, 163348, Note_on_c, 0, 75, 78
1, 163372, Note_off_c, 0, 74, 63
1, 163472, Note_on_c, 0, 76, 79
1, 163481, Note_off_c, 0, 75, 62
1, 163604, Note_on_c, 0, 77, 75
1, 163616, Note_off_c, 0, 76, 59
1, 163642, Control_c, 0, 67, 8
1, 163672, Control_c, 0, 67, 8
1, 163702, Control_c, 0, 67, 9
1, 163717, Control_c, 0, 67, 9
1, 163731, Control_c, 0, 67, 11
1, 163746, Control_c, 0, 67, 13
1, 163747, Note_on_c, 0, 78, 74
1, 163761, Control_c, 0, 67, 14
1, 163776, Control_c, 0, 67, 15
1, 163779, Note_off_c, 0, 77, 60
1, 163791, Control_c, 0, 67, 15
1, 163805, Control_c, 0, 67, 17
1, 163820, Control_c, 0, 67, 20
1, 163835, Control_c, 0, 67, 25
1, 163850, Control_c, 0, 67, 30
1, 163864, Note_off_c, 0, 78, 66
1, 163865, Control_c, 0, 67, 34
1, 163869, Note_on_c, 0, 79, 78
1, 163880, Control_c, 0, 67, 36
1, 163896, Control_c, 0, 67, 39
1, 163910, Control_c, 0, 67, 40
1, 163925, Control_c, 0, 67, 42
1, 163940, Control_c, 0, 67, 44
1, 163955, Control_c, 0, 67, 45
1, 164011, Note_on_c, 0, 80, 75
1, 164037, Note_off_c, 0, 79, 60
1, 164066, Control_c, 0, 67, 45
1, 164171, Note_off_c, 0, 33, 64
1, 164212, Note_on_c, 0, 81, 78
1, 164221, Note_off_c, 0, 45, 63
1, 164239, Note_off_c, 0, 80, 63
1, 164318, Control_c, 0, 67, 45
1, 164322, Note_off_c, 0, 81, 64
1, 164377, Control_c, 0, 67, 46
1, 164407, Control_c, 0, 67, 47
1, 164422, Control_c, 0, 67, 48
1, 164436, Control_c, 0, 67, 50
1, 164451, Control_c, 0, 67, 53
1, 164466, Control_c, 0, 67, 54
1, 164481, Control_c, 0, 67, 55
1, 164554, Control_c, 0, 67, 55
1, 164659, Note_on_c, 0, 73, 62
1, 164682, Note_on_c, 0, 67, 40
1, 164686, Note_on_c, 0, 57, 34
1, 164724, Note_off_c, 0, 57, 53
1, 164733, Control_c, 0, 67, 56
1, 164734, Note_off_c, 0, 67, 58
1, 164743, Note_off_c, 0, 73, 65
1, 164748, Control_c, 0, 67, 56
1, 164763, Control_c, 0, 67, 57
1, 164778, Control_c, 0, 67, 59
1, 164793, Control_c, 0, 67, 61
1, 164815, Control_c, 0, 67, 64
1, 164830, Control_c, 0, 67, 66
1, 164845, Control_c, 0, 67, 68
1, 164859, Control_c, 0, 67, 71
1, 164874, Control_c, 0, 67, 74
1, 164889, Control_c, 0, 67, 77
1, 164904, Control_c, 0, 67, 81
1, 164919, Control_c, 0, 67, 83
1, 164934, Control_c, 0, 67, 85
1, 164948, Control_c, 0, 67, 87
1, 164963, Control_c, 0, 67, 89
1, 164978, Control_c, 0, 67, 89
1, 164993, Control_c, 0, 67, 90
1, 165008, Control_c, 0, 67, 92
1, 165022, Control_c, 0, 67, 96
1, 165037, Control_c, 0, 67, 103
1, 165052, Control_c, 0, 67, 109
1, 165067, Control_c, 0, 67, 114
1, 165082, Control_c, 0, 67, 119
1, 165097, Control_c, 0, 67, 124
1, 165112, Control_c, 0, 67, 127
1, 165263, Note_on_c, 0, 73, 65
1, 165280, Note_on_c, 0, 67, 42
1, 165303, Note_on_c, 0, 57, 26
1, 165332, Note_off_c, 0, 67, 0
1, 165332, Note_on_c, 0, 67, 12
1, 165564, Control_c, 0, 64, 13
1, 165579, Control_c, 0, 64, 19
1, 165594, Control_c, 0, 64, 24
1, 165608, Control_c, 0, 64, 30
1, 165623, Control_c, 0, 64, 35
1, 165638, Control_c, 0, 64, 41
1, 165653, Control_c, 0, 64, 47
1, 165668, Control_c, 0, 64, 54
1, 165683, Control_c, 0, 64, 58
1, 165697, Control_c, 0, 64, 62
1, 165712, Control_c, 0, 64, 64
1, 165727, Control_c, 0, 64, 66
1, 165742, Control_c, 0, 64, 68
1, 165757, Control_c, 0, 64, 73
1, 165771, Control_c, 0, 64, 76
1, 165786, Control_c, 0, 64, 80
1, 165801, Control_c, 0, 64, 85
1, 165815, Control_c, 0, 64, 89
1, 165830, Control_c, 0, 64, 95
1, 165845, Control_c, 0, 64, 103
1, 165860, Control_c, 0, 64, 114
1, 165875, Control_c, 0, 64, 127
1, 165994, Note_off_c, 0, 67, 50
1, 166698, Control_c, 0, 64, 115
1, 166699, Note_on_c, 0, 74, 39
1, 166711, Note_on_c, 0, 65, 25
1, 166713, Control_c, 0, 64, 103
1, 166727, Control_c, 0, 64, 96
1, 166738, Note_on_c, 0, 58, 23
1, 166742, Control_c, 0, 64, 90
1, 166757, Control_c, 0, 64, 81
1, 166772, Control_c, 0, 64, 71
1, 166787, Control_c, 0, 64, 65
1, 166802, Control_c, 0, 64, 61
1, 166805, Note_off_c, 0, 73, 52
1, 166817, Control_c, 0, 64, 59
1, 166831, Control_c, 0, 64, 55
1, 166846, Control_c, 0, 64, 44
1, 166861, Control_c, 0, 64, 24
1, 166862, Note_off_c, 0, 57, 43
1, 166876, Control_c, 0, 64, 0
1, 167136, Control_c, 0, 64, 18
1, 167151, Control_c, 0, 64, 30
1, 167166, Control_c, 0, 64, 40
1, 167180, Control_c, 0, 64, 51
1, 167195, Control_c, 0, 64, 61
1, 167210, Control_c, 0, 64, 65
1, 167225, Control_c, 0, 64, 70
1, 167240, Control_c, 0, 64, 74
1, 167254, Control_c, 0, 64, 79
1, 167269, Control_c, 0, 64, 85
1, 167284, Control_c, 0, 64, 91
1, 167299, Control_c, 0, 64, 95
1, 167314, Control_c, 0, 64, 99
1, 167328, Control_c, 0, 64, 104
1, 167343, Control_c, 0, 64, 111
1, 167358, Control_c, 0, 64, 127
1, 167527, Note_off_c, 0, 58, 36
1, 167607, Note_off_c, 0, 74, 40
1, 167611, Note_off_c, 0, 65, 35
1, 167699, Control_c, 0, 64, 115
1, 167714, Control_c, 0, 64, 111
1, 167728, Control_c, 0, 64, 110
1, 167758, Control_c, 0, 64, 109
1, 167773, Control_c, 0, 64, 106
1, 167787, Control_c, 0, 64, 103
1, 167810, Control_c, 0, 64, 101
1, 167824, Control_c, 0, 64, 100
1, 167839, Control_c, 0, 64, 99
1, 167854, Control_c, 0, 64, 98
1, 167869, Control_c, 0, 64, 96
1, 167884, Control_c, 0, 64, 95
1, 167899, Control_c, 0, 64, 94
1, 167914, Control_c, 0, 64, 93
1, 167929, Control_c, 0, 64, 92
1, 167944, Control_c, 0, 64, 90
1, 167959, Control_c, 0, 64, 88
1, 167974, Control_c, 0, 64, 88
1, 167988, Control_c, 0, 64, 87
1, 168003, Control_c, 0, 64, 86
1, 168018, Control_c, 0, 64, 85
1, 168048, Control_c, 0, 64, 84
1, 168063, Control_c, 0, 64, 84
1, 168077, Control_c, 0, 64, 83
1, 168092, Control_c, 0, 64, 83
1, 168107, Control_c, 0, 64, 82
1, 168122, Control_c, 0, 64, 81
1, 168137, Control_c, 0, 64, 81
1, 168151, Control_c, 0, 64, 80
1, 168166, Control_c, 0, 64, 78
1, 168181, Control_c, 0, 64, 77
1, 168196, Control_c, 0, 64, 74
1, 168210, Control_c, 0, 64, 70
1, 168225, Control_c, 0, 64, 67
1, 168240, Control_c, 0, 64, 63
1, 168255, Control_c, 0, 64, 56
1, 168270, Control_c, 0, 64, 44
1, 168284, Control_c, 0, 64, 30
1, 168299, Control_c, 0, 64, 18
1, 168314, Control_c, 0, 64, 0
1, 168465, Note_on_c, 0, 62, 52
1, 168500, Note_on_c, 0, 58, 18
1, 168522, Note_off_c, 0, 62, 55
1, 168541, Note_off_c, 0, 58, 62
1, 168785, Note_on_c, 0, 65, 62
1, 168820, Note_on_c, 0, 62, 39
1, 168871, Control_c, 0, 64, 17
1, 168886, Control_c, 0, 64, 28
1, 168900, Control_c, 0, 64, 39
1, 168912, Note_off_c, 0, 62, 0
1, 168915, Control_c, 0, 64, 53
1, 168930, Control_c, 0, 64, 62
1, 168945, Control_c, 0, 64, 68
1, 168949, Poly_aftertouch_c, 0, 62, 127
1, 168959, Control_c, 0, 64, 74
1, 168974, Control_c, 0, 64, 80
1, 168989, Control_c, 0, 64, 89
1, 169004, Control_c, 0, 64, 103
1, 169019, Control_c, 0, 64, 127
1, 169076, Note_off_c, 0, 65, 37
1, 169081, Poly_aftertouch_c, 0, 62, 0
1, 169522, Note_on_c, 0, 65, 61
1, 169540, Note_on_c, 0, 62, 46
1, 169550, Note_on_c, 0, 46, 40
1, 169591, Note_off_c, 0, 62, 46
1, 169664, Note_off_c, 0, 65, 36
1, 169798, Note_on_c, 0, 65, 66
1, 169801, Note_on_c, 0, 58, 57
1, 169812, Control_c, 0, 64, 91
1, 169827, Control_c, 0, 64, 67
1, 169830, Note_on_c, 0, 62, 44
1, 169842, Control_c, 0, 64, 51
1, 169856, Control_c, 0, 64, 0
1, 169884, Note_off_c, 0, 46, 49
1, 169916, Control_c, 0, 64, 20
1, 169930, Control_c, 0, 64, 39
1, 169945, Control_c, 0, 64, 54
1, 169945, Control_c, 0, 67, 127
1, 169959, Control_c, 0, 64, 69
1, 169959, Control_c, 0, 67, 118
1, 169973, Control_c, 0, 64, 82
1, 169973, Control_c, 0, 67, 108
1, 169988, Control_c, 0, 64, 83
1, 169988, Control_c, 0, 67, 99
1, 170003, Control_c, 0, 64, 84
1, 170003, Control_c, 0, 67, 91
1, 170018, Control_c, 0, 64, 90
1, 170018, Control_c, 0, 67, 83
1, 170033, Control_c, 0, 64, 97
1, 170033, Control_c, 0, 67, 73
1, 170054, Control_c, 0, 64, 103
1, 170054, Control_c, 0, 67, 58
1, 170069, Control_c, 0, 64, 107
1, 170069, Control_c, 0, 67, 43
1, 170084, Control_c, 0, 64, 113
1, 170084, Control_c, 0, 67, 28
1, 170099, Control_c, 0, 64, 127
1, 170099, Control_c, 0, 67, 15
1, 170103, Note_off_c, 0, 58, 62
1, 170114, Control_c, 0, 67, 0
1, 170565, Note_on_c, 0, 58, 52
1, 170657, Note_off_c, 0, 58, 55
1, 170692, Note_off_c, 0, 62, 38
1, 170733, Note_off_c, 0, 65, 33
1, 170807, Note_on_c, 0, 58, 49
1, 170907, Note_off_c, 0, 58, 58
1, 171353, Control_c, 0, 64, 101
1, 171368, Control_c, 0, 64, 77
1, 171383, Control_c, 0, 64, 64
1, 171398, Control_c, 0, 64, 51
1, 171413, Control_c, 0, 64, 28
1, 171427, Control_c, 0, 64, 0
1, 171487, Control_c, 0, 64, 11
1, 171501, Control_c, 0, 64, 30
1, 171516, Control_c, 0, 64, 47
1, 171524, Note_on_c, 0, 65, 74
1, 171530, Note_on_c, 0, 62, 68
1, 171531, Control_c, 0, 64, 61
1, 171553, Control_c, 0, 64, 73
1, 171568, Control_c, 0, 64, 79
1, 171583, Control_c, 0, 64, 81
1, 171598, Control_c, 0, 64, 87
1, 171610, Note_off_c, 0, 62, 56
1, 171613, Control_c, 0, 64, 96
1, 171627, Control_c, 0, 64, 109
1, 171642, Control_c, 0, 64, 127
1, 171674, Note_off_c, 0, 65, 53
1, 171854, Note_on_c, 0, 68, 80
1, 171877, Note_on_c, 0, 65, 64
1, 171895, Control_c, 0, 64, 106
1, 171910, Control_c, 0, 64, 82
1, 171924, Control_c, 0, 64, 67
1, 171939, Control_c, 0, 64, 57
1, 171954, Control_c, 0, 64, 40
1, 171968, Control_c, 0, 64, 0
1, 172042, Control_c, 0, 64, 18
1, 172057, Control_c, 0, 64, 39
1, 172072, Control_c, 0, 64, 58
1, 172087, Control_c, 0, 64, 73
1, 172102, Control_c, 0, 64, 88
1, 172117, Control_c, 0, 64, 91
1, 172132, Control_c, 0, 64, 96
1, 172147, Control_c, 0, 64, 127
1, 172222, Note_off_c, 0, 65, 54
1, 172338, Note_off_c, 0, 68, 58
1, 172571, Note_on_c, 0, 46, 78
1, 172571, Note_on_c, 0, 68, 80
1, 172573, Note_on_c, 0, 34, 71
1, 172587, Note_on_c, 0, 65, 56
1, 172611, Note_off_c, 0, 34, 67
1, 172645, Note_off_c, 0, 65, 42
1, 172658, Note_off_c, 0, 46, 65
1, 172699, Note_off_c, 0, 68, 56
1, 172928, Note_on_c, 0, 62, 82
1, 172932, Note_on_c, 0, 68, 68
1, 172933, Note_on_c, 0, 58, 74
1, 172937, Note_on_c, 0, 65, 60
1, 172984, Control_c, 0, 64, 109
1, 172998, Control_c, 0, 64, 95
1, 173013, Control_c, 0, 64, 80
1, 173028, Control_c, 0, 64, 68
1, 173050, Control_c, 0, 64, 56
1, 173065, Control_c, 0, 64, 31
1, 173080, Control_c, 0, 64, 0
1, 173139, Control_c, 0, 64, 8
1, 173154, Control_c, 0, 64, 34
1, 173169, Control_c, 0, 64, 52
1, 173184, Control_c, 0, 64, 68
1, 173198, Control_c, 0, 64, 100
1, 173213, Control_c, 0, 64, 108
1, 173228, Control_c, 0, 64, 113
1, 173243, Control_c, 0, 64, 127
1, 173457, Note_off_c, 0, 62, 47
1, 173485, Note_off_c, 0, 58, 33
1, 173712, Note_on_c, 0, 62, 71
1, 173725, Note_on_c, 0, 58, 58
1, 173891, Note_off_c, 0, 62, 59
1, 173911, Note_off_c, 0, 58, 35
1, 173995, Note_on_c, 0, 62, 56
1, 173998, Note_on_c, 0, 58, 42
1, 174054, Note_off_c, 0, 65, 34
1, 174081, Control_c, 0, 67, 10
1, 174096, Control_c, 0, 67, 12
1, 174111, Control_c, 0, 67, 13
1, 174126, Control_c, 0, 67, 15
1, 174141, Control_c, 0, 67, 16
1, 174155, Control_c, 0, 67, 17
1, 174170, Control_c, 0, 67, 19
1, 174185, Control_c, 0, 67, 21
1, 174200, Control_c, 0, 67, 26
1, 174215, Control_c, 0, 67, 30
1, 174223, Note_off_c, 0, 68, 33
1, 174229, Control_c, 0, 67, 33
1, 174244, Control_c, 0, 67, 35
1, 174275, Control_c, 0, 67, 35
1, 174280, Note_off_c, 0, 62, 34
1, 174302, Note_off_c, 0, 58, 36
1, 174334, Control_c, 0, 67, 36
1, 174682, Control_c, 0, 67, 36
1, 174696, Control_c, 0, 64, 109
1, 174711, Control_c, 0, 64, 75
1, 174711, Control_c, 0, 67, 37
1, 174726, Control_c, 0, 64, 61
1, 174726, Control_c, 0, 67, 42
1, 174741, Control_c, 0, 64, 41
1, 174741, Control_c, 0, 67, 48
1, 174748, Note_on_c, 0, 68, 69
1, 174756, Control_c, 0, 64, 26
1, 174756, Control_c, 0, 67, 52
1, 174761, Note_on_c, 0, 58, 42
1, 174761, Note_on_c, 0, 62, 48
1, 174770, Control_c, 0, 64, 34
1, 174770, Control_c, 0, 67, 55
1, 174785, Control_c, 0, 64, 45
1, 174785, Control_c, 0, 67, 59
1, 174800, Control_c, 0, 64, 58
1, 174800, Control_c, 0, 67, 63
1, 174815, Control_c, 0, 64, 69
1, 174815, Control_c, 0, 67, 67
1, 174830, Control_c, 0, 64, 85
1, 174830, Control_c, 0, 67, 72
1, 174844, Control_c, 0, 64, 90
1, 174844, Control_c, 0, 67, 77
1, 174859, Control_c, 0, 64, 93
1, 174859, Control_c, 0, 67, 81
1, 174874, Control_c, 0, 64, 100
1, 174874, Control_c, 0, 67, 84
1, 174886, Note_off_c, 0, 58, 60
1, 174889, Control_c, 0, 64, 107
1, 174889, Control_c, 0, 67, 90
1, 174904, Control_c, 0, 64, 109
1, 174904, Control_c, 0, 67, 94
1, 174919, Control_c, 0, 67, 96
1, 174934, Control_c, 0, 67, 97
1, 174949, Control_c, 0, 64, 110
1, 174949, Control_c, 0, 67, 99
1, 174963, Control_c, 0, 67, 102
1, 174978, Control_c, 0, 67, 105
1, 174993, Control_c, 0, 64, 108
1, 174993, Control_c, 0, 67, 108
1, 175008, Control_c, 0, 64, 105
1, 175008, Control_c, 0, 67, 110
1, 175023, Control_c, 0, 67, 112
1, 175038, Control_c, 0, 67, 114
1, 175044, Note_on_c, 0, 69, 62
1, 175052, Control_c, 0, 64, 100
1, 175052, Control_c, 0, 67, 116
1, 175054, Note_on_c, 0, 61, 44
1, 175068, Note_on_c, 0, 57, 41
1, 175068, Control_c, 0, 64, 84
1, 175068, Control_c, 0, 67, 119
1, 175081, Note_off_c, 0, 68, 59
1, 175083, Control_c, 0, 64, 69
1, 175083, Control_c, 0, 67, 124
1, 175098, Control_c, 0, 64, 61
1, 175098, Control_c, 0, 67, 127
1, 175113, Control_c, 0, 64, 50
1, 175128, Control_c, 0, 64, 34
1, 175141, Note_off_c, 0, 62, 60
1, 175142, Control_c, 0, 64, 0
1, 175275, Control_c, 0, 64, 15
1, 175298, Control_c, 0, 64, 36
1, 175312, Control_c, 0, 64, 53
1, 175327, Control_c, 0, 64, 63
1, 175342, Control_c, 0, 64, 68
1, 175357, Control_c, 0, 64, 70
1, 175372, Control_c, 0, 64, 71
1, 175387, Control_c, 0, 64, 74
1, 175394, Note_off_c, 0, 69, 62
1, 175401, Control_c, 0, 64, 80
1, 175416, Control_c, 0, 64, 87
1, 175431, Control_c, 0, 64, 90
1, 175438, Note_off_c, 0, 57, 30
1, 175446, Control_c, 0, 64, 91
1, 175461, Control_c, 0, 64, 92
1, 175475, Control_c, 0, 64, 93
1, 175490, Control_c, 0, 64, 98
1, 175505, Control_c, 0, 64, 106
1, 175516, Note_off_c, 0, 61, 31
1, 175519, Control_c, 0, 64, 110
1, 175564, Control_c, 0, 64, 111
1, 175579, Control_c, 0, 64, 114
1, 175593, Control_c, 0, 64, 115
1, 175697, Control_c, 0, 64, 111
1, 175712, Control_c, 0, 64, 104
1, 175727, Control_c, 0, 64, 95
1, 175742, Control_c, 0, 64, 83
1, 175757, Control_c, 0, 64, 69
1, 175772, Control_c, 0, 64, 58
1, 175786, Control_c, 0, 64, 25
1, 175801, Control_c, 0, 64, 0
1, 175826, Note_on_c, 0, 69, 83
1, 175837, Note_on_c, 0, 61, 48
1, 175838, Note_on_c, 0, 57, 43
1, 175845, Control_c, 0, 64, 19
1, 175861, Control_c, 0, 64, 39
1, 175861, Control_c, 0, 67, 120
1, 175876, Control_c, 0, 64, 54
1, 175876, Control_c, 0, 67, 105
1, 175891, Control_c, 0, 64, 69
1, 175891, Control_c, 0, 67, 77
1, 175906, Control_c, 0, 64, 89
1, 175906, Control_c, 0, 67, 43
1, 175921, Control_c, 0, 64, 94
1, 175921, Control_c, 0, 67, 0
1, 175935, Control_c, 0, 64, 96
1, 175950, Control_c, 0, 64, 108
1, 175965, Control_c, 0, 64, 127
1, 176005, Note_off_c, 0, 57, 55
1, 176125, Note_on_c, 0, 71, 78
1, 176147, Note_on_c, 0, 62, 64
1, 176155, Note_on_c, 0, 57, 47
1, 176165, Control_c, 0, 64, 97
1, 176174, Note_off_c, 0, 69, 62
1, 176180, Control_c, 0, 64, 74
1, 176195, Control_c, 0, 64, 65
1, 176210, Control_c, 0, 64, 58
1, 176224, Control_c, 0, 64, 46
1, 176233, Note_off_c, 0, 61, 61
1, 176239, Control_c, 0, 64, 19
1, 176254, Control_c, 0, 64, 0
1, 176342, Control_c, 0, 64, 8
1, 176357, Control_c, 0, 64, 35
1, 176372, Control_c, 0, 64, 50
1, 176387, Control_c, 0, 64, 64
1, 176402, Control_c, 0, 64, 78
1, 176416, Control_c, 0, 64, 79
1, 176446, Control_c, 0, 64, 82
1, 176460, Control_c, 0, 64, 88
1, 176475, Control_c, 0, 64, 92
1, 176490, Control_c, 0, 64, 95
1, 176496, Note_off_c, 0, 71, 58
1, 176505, Control_c, 0, 64, 99
1, 176517, Note_off_c, 0, 57, 33
1, 176520, Control_c, 0, 64, 108
1, 176535, Control_c, 0, 64, 127
1, 176549, Note_off_c, 0, 62, 51
1, 176958, Control_c, 0, 64, 84
1, 176973, Control_c, 0, 64, 64
1, 176988, Control_c, 0, 64, 46
1, 177003, Control_c, 0, 64, 0
1, 177008, Note_on_c, 0, 71, 83
1, 177016, Note_on_c, 0, 62, 60
1, 177024, Note_on_c, 0, 57, 47
1, 177077, Control_c, 0, 64, 18
1, 177091, Control_c, 0, 64, 39
1, 177106, Control_c, 0, 64, 56
1, 177121, Control_c, 0, 64, 72
1, 177136, Control_c, 0, 64, 88
1, 177151, Control_c, 0, 64, 89
1, 177165, Control_c, 0, 64, 90
1, 177180, Control_c, 0, 64, 96
1, 177186, Note_off_c, 0, 57, 53
1, 177195, Control_c, 0, 64, 105
1, 177210, Control_c, 0, 64, 117
1, 177225, Control_c, 0, 64, 127
1, 177447, Note_on_c, 0, 73, 78
1, 177455, Note_on_c, 0, 67, 48
1, 177474, Note_on_c, 0, 64, 42
1, 177477, Control_c, 0, 64, 117
1, 177485, Note_on_c, 0, 57, 35
1, 177492, Control_c, 0, 64, 109
1, 177500, Note_off_c, 0, 71, 64
1, 177506, Control_c, 0, 64, 97
1, 177521, Control_c, 0, 64, 82
1, 177544, Control_c, 0, 64, 68
1, 177559, Control_c, 0, 64, 58
1, 177574, Control_c, 0, 64, 42
1, 177588, Control_c, 0, 64, 10
1, 177603, Control_c, 0, 64, 0
1, 177632, Note_off_c, 0, 62, 60
1, 178077, Control_c, 0, 67, 9
1, 178092, Control_c, 0, 67, 12
1, 178107, Control_c, 0, 67, 16
1, 178121, Control_c, 0, 67, 20
1, 178136, Control_c, 0, 67, 24
1, 178151, Control_c, 0, 67, 26
1, 178166, Control_c, 0, 67, 30
1, 178181, Control_c, 0, 67, 34
1, 178195, Control_c, 0, 67, 37
1, 178210, Control_c, 0, 67, 40
1, 178225, Control_c, 0, 67, 44
1, 178240, Control_c, 0, 67, 48
1, 178256, Control_c, 0, 67, 52
1, 178271, Control_c, 0, 67, 55
1, 178293, Control_c, 0, 64, 11
1, 178293, Control_c, 0, 67, 58
1, 178308, Control_c, 0, 64, 17
1, 178308, Control_c, 0, 67, 63
1, 178323, Control_c, 0, 64, 21
1, 178323, Control_c, 0, 67, 66
1, 178337, Control_c, 0, 64, 25
1, 178337, Control_c, 0, 67, 68
1, 178352, Control_c, 0, 64, 29
1, 178352, Control_c, 0, 67, 69
1, 178367, Control_c, 0, 64, 34
1, 178367, Control_c, 0, 67, 71
1, 178382, Control_c, 0, 64, 38
1, 178382, Control_c, 0, 67, 74
1, 178397, Control_c, 0, 64, 43
1, 178397, Control_c, 0, 67, 76
1, 178411, Control_c, 0, 64, 48
1, 178411, Control_c, 0, 67, 78
1, 178426, Control_c, 0, 64, 51
1, 178426, Control_c, 0, 67, 80
1, 178441, Control_c, 0, 64, 54
1, 178441, Control_c, 0, 67, 83
1, 178456, Control_c, 0, 64, 56
1, 178456, Control_c, 0, 67, 86
1, 178471, Control_c, 0, 64, 58
1, 178471, Control_c, 0, 67, 89
1, 178485, Control_c, 0, 64, 59
1, 178485, Control_c, 0, 67, 94
1, 178500, Control_c, 0, 64, 61
1, 178500, Control_c, 0, 67, 98
1, 178515, Control_c, 0, 64, 62
1, 178515, Control_c, 0, 67, 103
1, 178530, Control_c, 0, 64, 64
1, 178530, Control_c, 0, 67, 106
1, 178544, Control_c, 0, 64, 65
1, 178544, Control_c, 0, 67, 109
1, 178559, Control_c, 0, 64, 67
1, 178559, Control_c, 0, 67, 112
1, 178574, Control_c, 0, 64, 69
1, 178574, Control_c, 0, 67, 114
1, 178589, Control_c, 0, 64, 72
1, 178589, Control_c, 0, 67, 117
1, 178604, Control_c, 0, 64, 74
1, 178604, Control_c, 0, 67, 119
1, 178618, Control_c, 0, 64, 77
1, 178618, Control_c, 0, 67, 123
1, 178633, Control_c, 0, 64, 80
1, 178633, Control_c, 0, 67, 126
1, 178648, Control_c, 0, 64, 83
1, 178648, Control_c, 0, 67, 127
1, 178663, Control_c, 0, 64, 87
1, 178678, Control_c, 0, 64, 91
1, 178693, Control_c, 0, 64, 95
1, 178708, Control_c, 0, 64, 99
1, 178723, Control_c, 0, 64, 100
1, 178724, Note_off_c, 0, 67, 42
1, 178737, Control_c, 0, 64, 101
1, 178752, Control_c, 0, 64, 103
1, 178767, Control_c, 0, 64, 106
1, 178782, Control_c, 0, 64, 110
1, 178797, Control_c, 0, 64, 111
1, 178841, Control_c, 0, 64, 113
1, 178856, Control_c, 0, 64, 115
1, 178870, Control_c, 0, 64, 117
1, 178930, Control_c, 0, 64, 119
1, 179220, Control_c, 0, 64, 117
1, 179234, Control_c, 0, 64, 115
1, 179249, Control_c, 0, 64, 114
1, 179264, Control_c, 0, 64, 113
1, 179279, Control_c, 0, 64, 110
1, 179293, Control_c, 0, 64, 108
1, 179308, Control_c, 0, 64, 107
1, 179323, Control_c, 0, 64, 105
1, 179338, Control_c, 0, 64, 104
1, 179353, Control_c, 0, 64, 102
1, 179367, Control_c, 0, 64, 100
1, 179382, Control_c, 0, 64, 98
1, 179397, Control_c, 0, 64, 94
1, 179412, Control_c, 0, 64, 90
1, 179427, Control_c, 0, 64, 85
1, 179441, Control_c, 0, 64, 80
1, 179456, Note_on_c, 0, 69, 51
1, 179456, Control_c, 0, 64, 73
1, 179471, Control_c, 0, 64, 65
1, 179480, Note_off_c, 0, 73, 53
1, 179486, Control_c, 0, 64, 57
1, 179495, Note_off_c, 0, 57, 36
1, 179498, Note_off_c, 0, 64, 56
1, 179501, Control_c, 0, 64, 41
1, 179516, Control_c, 0, 64, 0
1, 179634, Control_c, 0, 64, 26
1, 179649, Control_c, 0, 64, 38
1, 179664, Control_c, 0, 64, 49
1, 179678, Control_c, 0, 64, 57
1, 179693, Control_c, 0, 64, 62
1, 179708, Control_c, 0, 64, 63
1, 179723, Control_c, 0, 64, 64
1, 179738, Control_c, 0, 64, 65
1, 179753, Control_c, 0, 64, 67
1, 179767, Control_c, 0, 64, 69
1, 179790, Control_c, 0, 64, 71
1, 179867, Note_on_c, 0, 74, 52
1, 179885, Note_on_c, 0, 66, 39
1, 179889, Note_on_c, 0, 62, 33
1, 179894, Control_c, 0, 64, 69
1, 179909, Control_c, 0, 64, 65
1, 179912, Note_off_c, 0, 69, 58
1, 179924, Control_c, 0, 64, 63
1, 179939, Control_c, 0, 64, 60
1, 179954, Control_c, 0, 64, 53
1, 179969, Control_c, 0, 64, 37
1, 179984, Control_c, 0, 64, 0
1, 180087, Control_c, 0, 64, 28
1, 180102, Control_c, 0, 64, 45
1, 180116, Control_c, 0, 64, 59
1, 180131, Control_c, 0, 64, 67
1, 180146, Control_c, 0, 64, 72
1, 180161, Control_c, 0, 64, 74
1, 180176, Note_off_c, 0, 74, 54
1, 180176, Control_c, 0, 64, 78
1, 180190, Control_c, 0, 64, 86
1, 180205, Control_c, 0, 64, 94
1, 180220, Control_c, 0, 64, 101
1, 180234, Control_c, 0, 64, 108
1, 180249, Control_c, 0, 64, 127
1, 180313, Note_off_c, 0, 66, 32
1, 180316, Note_off_c, 0, 62, 34
1, 180678, Note_on_c, 0, 74, 45
1, 180779, Note_off_c, 0, 74, 59
1, 180952, Note_on_c, 0, 74, 41
1, 180973, Note_on_c, 0, 66, 26
1, 181000, Note_on_c, 0, 62, 17
1, 181143, Note_off_c, 0, 62, 27
1, 181186, Note_off_c, 0, 74, 36
1, 181228, Note_off_c, 0, 66, 25
1, 181540, Control_c, 0, 64, 119
1, 181555, Control_c, 0, 64, 117
1, 181584, Control_c, 0, 64, 115
1, 181599, Control_c, 0, 64, 111
1, 181614, Control_c, 0, 64, 109
1, 181629, Control_c, 0, 64, 108
1, 181644, Control_c, 0, 64, 107
1, 181659, Control_c, 0, 64, 105
1, 181674, Control_c, 0, 64, 102
1, 181688, Control_c, 0, 64, 100
1, 181703, Control_c, 0, 64, 99
1, 181718, Control_c, 0, 64, 97
1, 181733, Control_c, 0, 64, 96
1, 181748, Control_c, 0, 64, 94
1, 181762, Control_c, 0, 64, 92
1, 181777, Control_c, 0, 64, 92
1, 181792, Control_c, 0, 64, 91
1, 181807, Control_c, 0, 64, 90
1, 181822, Control_c, 0, 64, 88
1, 181836, Control_c, 0, 64, 87
1, 181851, Control_c, 0, 64, 86
1, 181866, Control_c, 0, 64, 86
1, 181880, Control_c, 0, 64, 85
1, 181895, Control_c, 0, 64, 83
1, 181910, Control_c, 0, 64, 81
1, 181925, Control_c, 0, 64, 80
1, 181940, Control_c, 0, 64, 78
1, 181954, Control_c, 0, 64, 77
1, 181969, Control_c, 0, 64, 75
1, 181984, Control_c, 0, 64, 73
1, 181999, Control_c, 0, 64, 71
1, 182014, Control_c, 0, 64, 69
1, 182036, Control_c, 0, 64, 68
1, 182051, Control_c, 0, 64, 65
1, 182066, Control_c, 0, 64, 63
1, 182080, Control_c, 0, 64, 61
1, 182095, Control_c, 0, 64, 60
1, 182110, Control_c, 0, 64, 59
1, 182125, Control_c, 0, 64, 57
1, 182140, Control_c, 0, 64, 53
1, 182154, Control_c, 0, 64, 51
1, 182169, Control_c, 0, 64, 50
1, 182184, Control_c, 0, 64, 50
1, 182199, Control_c, 0, 64, 48
1, 182213, Control_c, 0, 64, 43
1, 182228, Control_c, 0, 64, 38
1, 182243, Control_c, 0, 64, 37
1, 182259, Control_c, 0, 64, 36
1, 182274, Control_c, 0, 64, 34
1, 182289, Control_c, 0, 64, 25
1, 182303, Control_c, 0, 64, 0
1, 182422, Control_c, 0, 64, 15
1, 182437, Control_c, 0, 64, 24
1, 182452, Control_c, 0, 64, 32
1, 182467, Control_c, 0, 64, 40
1, 182482, Control_c, 0, 64, 52
1, 182496, Control_c, 0, 64, 60
1, 182511, Control_c, 0, 64, 64
1, 182526, Control_c, 0, 64, 67
1, 182541, Control_c, 0, 64, 69
1, 182556, Control_c, 0, 64, 72
1, 182571, Control_c, 0, 64, 78
1, 182581, Note_on_c, 0, 69, 43
1, 182585, Control_c, 0, 64, 82
1, 182600, Control_c, 0, 64, 85
1, 182615, Control_c, 0, 64, 88
1, 182630, Control_c, 0, 64, 88
1, 182645, Control_c, 0, 64, 89
1, 182659, Control_c, 0, 64, 91
1, 182674, Control_c, 0, 64, 95
1, 182688, Control_c, 0, 64, 97
1, 182702, Note_on_c, 0, 74, 57
1, 182702, Control_c, 0, 64, 98
1, 182732, Control_c, 0, 64, 98
1, 182747, Control_c, 0, 64, 100
1, 182751, Note_off_c, 0, 69, 37
1, 182762, Control_c, 0, 64, 101
1, 182784, Control_c, 0, 64, 101
1, 182828, Note_on_c, 0, 78, 72
1, 182843, Control_c, 0, 64, 102
1, 182866, Note_off_c, 0, 74, 63
1, 183006, Control_c, 0, 64, 101
1, 183021, Control_c, 0, 64, 99
1, 183036, Control_c, 0, 64, 96
1, 183044, Note_on_c, 0, 76, 60
1, 183052, Control_c, 0, 64, 94
1, 183063, Note_on_c, 0, 62, 29
1, 183067, Control_c, 0, 64, 93
1, 183081, Control_c, 0, 64, 91
1, 183091, Note_on_c, 0, 67, 40
1, 183096, Control_c, 0, 64, 86
1, 183111, Control_c, 0, 64, 77
1, 183122, Note_off_c, 0, 78, 63
1, 183125, Control_c, 0, 64, 71
1, 183140, Control_c, 0, 64, 70
1, 183155, Control_c, 0, 64, 69
1, 183170, Control_c, 0, 64, 67
1, 183185, Control_c, 0, 64, 63
1, 183200, Control_c, 0, 64, 54
1, 183215, Control_c, 0, 64, 37
1, 183230, Control_c, 0, 64, 0
1, 183510, Control_c, 0, 64, 13
1, 183532, Control_c, 0, 64, 30
1, 183547, Control_c, 0, 64, 41
1, 183562, Control_c, 0, 64, 52
1, 183577, Control_c, 0, 64, 60
1, 183592, Control_c, 0, 64, 64
1, 183606, Control_c, 0, 64, 65
1, 183621, Control_c, 0, 64, 66
1, 183636, Control_c, 0, 64, 68
1, 183650, Control_c, 0, 64, 72
1, 183665, Control_c, 0, 64, 75
1, 183680, Control_c, 0, 64, 76
1, 183695, Control_c, 0, 64, 77
1, 183710, Control_c, 0, 64, 78
1, 183725, Control_c, 0, 64, 79
1, 183740, Control_c, 0, 64, 80
1, 183754, Control_c, 0, 64, 81
1, 183814, Control_c, 0, 64, 82
1, 183829, Control_c, 0, 64, 82
1, 183890, Note_on_c, 0, 73, 48
1, 183941, Note_off_c, 0, 76, 58
1, 184141, Control_c, 0, 64, 82
1, 184170, Control_c, 0, 64, 80
1, 184171, Note_on_c, 0, 74, 46
1, 184186, Control_c, 0, 64, 77
1, 184190, Note_on_c, 0, 66, 33
1, 184201, Control_c, 0, 64, 74
1, 184216, Control_c, 0, 64, 72
1, 184230, Control_c, 0, 64, 70
1, 184245, Control_c, 0, 64, 66
1, 184253, Note_off_c, 0, 73, 36
1, 184260, Control_c, 0, 64, 61
1, 184282, Control_c, 0, 64, 50
1, 184297, Control_c, 0, 64, 28
1, 184312, Control_c, 0, 64, 0
1, 184327, Note_off_c, 0, 67, 55
1, 184622, Control_c, 0, 64, 21
1, 184637, Control_c, 0, 64, 35
1, 184653, Control_c, 0, 64, 48
1, 184668, Control_c, 0, 64, 59
1, 184683, Control_c, 0, 64, 65
1, 184697, Control_c, 0, 64, 68
1, 184712, Control_c, 0, 64, 70
1, 184727, Control_c, 0, 64, 73
1, 184739, Note_off_c, 0, 62, 36
1, 184742, Control_c, 0, 64, 78
1, 184757, Control_c, 0, 64, 82
1, 184771, Control_c, 0, 64, 85
1, 184786, Control_c, 0, 64, 86
1, 184816, Control_c, 0, 64, 87
1, 184818, Note_off_c, 0, 66, 30
1, 184831, Control_c, 0, 64, 88
1, 184845, Control_c, 0, 64, 91
1, 184860, Control_c, 0, 64, 92
1, 184868, Note_off_c, 0, 74, 34
1, 185045, Control_c, 0, 64, 91
1, 185060, Control_c, 0, 64, 89
1, 185075, Control_c, 0, 64, 88
1, 185090, Control_c, 0, 64, 88
1, 185105, Control_c, 0, 64, 86
1, 185120, Control_c, 0, 64, 84
1, 185135, Control_c, 0, 64, 81
1, 185149, Control_c, 0, 64, 79
1, 185164, Control_c, 0, 64, 79
1, 185179, Control_c, 0, 64, 77
1, 185194, Control_c, 0, 64, 74
1, 185209, Control_c, 0, 64, 71
1, 185224, Control_c, 0, 64, 68
1, 185238, Control_c, 0, 64, 68
1, 185253, Control_c, 0, 64, 67
1, 185268, Control_c, 0, 64, 66
1, 185283, Control_c, 0, 64, 63
1, 185298, Control_c, 0, 64, 61
1, 185312, Control_c, 0, 64, 59
1, 185327, Control_c, 0, 64, 56
1, 185342, Control_c, 0, 64, 50
1, 185357, Control_c, 0, 64, 44
1, 185372, Control_c, 0, 64, 38
1, 185386, Control_c, 0, 64, 35
1, 185401, Control_c, 0, 64, 31
1, 185416, Control_c, 0, 64, 22
1, 185430, Control_c, 0, 64, 0
1, 185535, Control_c, 0, 67, 110
1, 185550, Control_c, 0, 67, 79
1, 185565, Control_c, 0, 67, 33
1, 185580, Control_c, 0, 67, 0
1, 185595, Control_c, 0, 64, 10
1, 185609, Control_c, 0, 64, 19
1, 185624, Control_c, 0, 64, 27
1, 185639, Control_c, 0, 64, 35
1, 185652, Note_on_c, 0, 69, 45
1, 185653, Control_c, 0, 64, 40
1, 185668, Control_c, 0, 64, 47
1, 185683, Control_c, 0, 64, 53
1, 185698, Control_c, 0, 64, 58
1, 185713, Control_c, 0, 64, 62
1, 185728, Control_c, 0, 64, 65
1, 185737, Note_off_c, 0, 69, 64
1, 185743, Control_c, 0, 64, 67
1, 185758, Control_c, 0, 64, 69
1, 185760, Note_on_c, 0, 74, 66
1, 185780, Control_c, 0, 64, 71
1, 185795, Control_c, 0, 64, 74
1, 185809, Control_c, 0, 64, 77
1, 185824, Control_c, 0, 64, 79
1, 185839, Control_c, 0, 64, 81
1, 185853, Control_c, 0, 64, 82
1, 185871, Note_on_c, 0, 78, 76
1, 185895, Note_off_c, 0, 74, 63
1, 185898, Control_c, 0, 64, 82
1, 185913, Control_c, 0, 64, 83
1, 185942, Control_c, 0, 64, 83
1, 185981, Note_on_c, 0, 81, 80
1, 186002, Control_c, 0, 64, 84
1, 186003, Note_off_c, 0, 78, 65
1, 186061, Control_c, 0, 64, 83
1, 186081, Note_off_c, 0, 81, 58
1, 186091, Control_c, 0, 64, 83
1, 186106, Control_c, 0, 64, 80
1, 186120, Control_c, 0, 64, 77
1, 186135, Control_c, 0, 64, 76
1, 186150, Control_c, 0, 64, 75
1, 186165, Control_c, 0, 64, 72
1, 186171, Note_on_c, 0, 81, 75
1, 186179, Control_c, 0, 64, 67
1, 186194, Control_c, 0, 64, 61
1, 186208, Note_on_c, 0, 71, 28
1, 186209, Control_c, 0, 64, 48
1, 186224, Control_c, 0, 64, 31
1, 186239, Control_c, 0, 64, 0
1, 186358, Control_c, 0, 64, 23
1, 186373, Control_c, 0, 64, 38
1, 186388, Control_c, 0, 64, 52
1, 186403, Control_c, 0, 64, 63
1, 186403, Control_c, 0, 67, 9
1, 186418, Control_c, 0, 64, 66
1, 186418, Control_c, 0, 67, 11
1, 186427, Note_off_c, 0, 71, 43
1, 186432, Control_c, 0, 67, 15
1, 186447, Control_c, 0, 64, 66
1, 186447, Control_c, 0, 67, 22
1, 186462, Control_c, 0, 64, 67
1, 186462, Control_c, 0, 67, 31
1, 186476, Control_c, 0, 64, 70
1, 186476, Control_c, 0, 67, 38
1, 186491, Control_c, 0, 64, 71
1, 186491, Control_c, 0, 67, 45
1, 186506, Control_c, 0, 64, 72
1, 186506, Control_c, 0, 67, 51
1, 186529, Control_c, 0, 67, 58
1, 186544, Control_c, 0, 67, 65
1, 186558, Control_c, 0, 67, 72
1, 186573, Control_c, 0, 67, 78
1, 186588, Control_c, 0, 64, 71
1, 186588, Control_c, 0, 67, 82
1, 186603, Control_c, 0, 64, 70
1, 186603, Control_c, 0, 67, 85
1, 186618, Control_c, 0, 67, 88
1, 186632, Control_c, 0, 64, 70
1, 186632, Control_c, 0, 67, 91
1, 186647, Control_c, 0, 64, 69
1, 186647, Control_c, 0, 67, 94
1, 186662, Control_c, 0, 64, 67
1, 186662, Control_c, 0, 67, 97
1, 186676, Control_c, 0, 64, 64
1, 186676, Control_c, 0, 67, 99
1, 186691, Control_c, 0, 64, 58
1, 186691, Control_c, 0, 67, 101
1, 186706, Control_c, 0, 64, 52
1, 186708, Note_on_c, 0, 79, 55
1, 186721, Control_c, 0, 64, 49
1, 186721, Control_c, 0, 67, 101
1, 186736, Control_c, 0, 64, 46
1, 186750, Control_c, 0, 64, 37
1, 186759, Note_off_c, 0, 81, 59
1, 186765, Control_c, 0, 64, 17
1, 186780, Control_c, 0, 64, 0
1, 186839, Note_off_c, 0, 79, 57
1, 187077, Note_on_c, 0, 78, 75
1, 187093, Note_on_c, 0, 69, 45
1, 187137, Note_off_c, 0, 78, 65
1, 187147, Note_off_c, 0, 69, 47
1, 187167, Control_c, 0, 67, 102
1, 187181, Control_c, 0, 67, 102
1, 187193, Note_on_c, 0, 78, 70
1, 187196, Control_c, 0, 67, 103
1, 187211, Control_c, 0, 67, 108
1, 187224, Note_on_c, 0, 67, 42
1, 187225, Control_c, 0, 67, 115
1, 187240, Control_c, 0, 67, 124
1, 187255, Control_c, 0, 67, 127
1, 187278, Control_c, 0, 64, 17
1, 187293, Control_c, 0, 64, 30
1, 187307, Control_c, 0, 64, 40
1, 187322, Control_c, 0, 64, 51
1, 187337, Control_c, 0, 64, 59
1, 187352, Control_c, 0, 64, 63
1, 187364, Note_off_c, 0, 67, 41
1, 187367, Control_c, 0, 64, 64
1, 187396, Control_c, 0, 64, 64
1, 187411, Control_c, 0, 64, 65
1, 187425, Control_c, 0, 64, 66
1, 187440, Control_c, 0, 64, 66
1, 187544, Control_c, 0, 64, 66
1, 187573, Control_c, 0, 64, 65
1, 187588, Control_c, 0, 64, 64
1, 187603, Control_c, 0, 64, 63
1, 187618, Control_c, 0, 64, 62
1, 187633, Control_c, 0, 64, 60
1, 187647, Control_c, 0, 64, 58
1, 187662, Control_c, 0, 64, 55
1, 187677, Control_c, 0, 64, 50
1, 187692, Control_c, 0, 64, 44
1, 187696, Note_on_c, 0, 76, 48
1, 187707, Control_c, 0, 64, 37
1, 187708, Note_off_c, 0, 78, 66
1, 187722, Control_c, 0, 64, 27
1, 187737, Control_c, 0, 64, 11
1, 187752, Control_c, 0, 64, 0
1, 187809, Note_off_c, 0, 76, 65
1, 188079, Note_on_c, 0, 74, 63
1, 188092, Note_on_c, 0, 66, 44
1, 188126, Note_off_c, 0, 74, 64
1, 188160, Note_off_c, 0, 66, 42
1, 188196, Note_on_c, 0, 74, 61
1, 188222, Note_on_c, 0, 64, 37
1, 188352, Control_c, 0, 64, 24
1, 188367, Control_c, 0, 64, 35
1, 188372, Note_off_c, 0, 64, 39
1, 188381, Control_c, 0, 64, 44
1, 188396, Control_c, 0, 64, 53
1, 188411, Control_c, 0, 64, 59
1, 188426, Control_c, 0, 64, 61
1, 188441, Control_c, 0, 64, 61
1, 188485, Control_c, 0, 64, 62
1, 188574, Control_c, 0, 64, 61
1, 188589, Control_c, 0, 64, 60
1, 188604, Control_c, 0, 64, 59
1, 188619, Control_c, 0, 64, 58
1, 188634, Control_c, 0, 64, 57
1, 188649, Control_c, 0, 64, 56
1, 188664, Control_c, 0, 64, 53
1, 188679, Control_c, 0, 64, 50
1, 188694, Control_c, 0, 64, 47
1, 188709, Control_c, 0, 64, 45
1, 188724, Control_c, 0, 64, 41
1, 188738, Control_c, 0, 64, 35
1, 188738, Note_on_c, 0, 73, 48
1, 188749, Note_off_c, 0, 74, 59
1, 188753, Control_c, 0, 64, 25
1, 188775, Control_c, 0, 64, 18
1, 188790, Control_c, 0, 64, 14
1, 188805, Control_c, 0, 64, 0
1, 188880, Note_off_c, 0, 73, 63
1, 189245, Note_on_c, 0, 74, 65
1, 189265, Note_on_c, 0, 62, 45
1, 189310, Note_off_c, 0, 62, 54
1, 189408, Note_on_c, 0, 78, 65
1, 189447, Note_on_c, 0, 57, 36
1, 189454, Note_on_c, 0, 62, 28
1, 189472, Note_off_c, 0, 74, 52
1, 190027, Control_c, 0, 64, 18
1, 190042, Control_c, 0, 64, 32
1, 190057, Control_c, 0, 64, 42
1, 190072, Control_c, 0, 64, 52
1, 190087, Control_c, 0, 64, 59
1, 190101, Control_c, 0, 64, 63
1, 190116, Control_c, 0, 64, 64
1, 190131, Control_c, 0, 64, 65
1, 190146, Control_c, 0, 64, 67
1, 190161, Control_c, 0, 64, 70
1, 190175, Control_c, 0, 64, 72
1, 190190, Control_c, 0, 64, 74
1, 190205, Control_c, 0, 64, 74
1, 190220, Control_c, 0, 64, 75
1, 190250, Control_c, 0, 64, 75
1, 190288, Control_c, 0, 64, 76
1, 190362, Control_c, 0, 64, 76
1, 190658, Control_c, 0, 64, 76
1, 190688, Control_c, 0, 64, 75
1, 190717, Control_c, 0, 64, 75
1, 190732, Control_c, 0, 64, 74
1, 190734, Note_on_c, 0, 76, 41
1, 190747, Control_c, 0, 64, 72
1, 190751, Note_on_c, 0, 61, 29
1, 190762, Control_c, 0, 64, 70
1, 190776, Control_c, 0, 64, 69
1, 190791, Control_c, 0, 64, 67
1, 190806, Control_c, 0, 64, 64
1, 190821, Control_c, 0, 64, 60
1, 190836, Control_c, 0, 64, 55
1, 190850, Control_c, 0, 64, 48
1, 190865, Control_c, 0, 64, 42
1, 190870, Note_off_c, 0, 78, 38
1, 190880, Control_c, 0, 64, 33
1, 190895, Control_c, 0, 64, 10
1, 190909, Note_off_c, 0, 62, 48
1, 190910, Control_c, 0, 64, 0
1, 191186, Control_c, 0, 64, 18
1, 191201, Control_c, 0, 64, 30
1, 191216, Control_c, 0, 64, 41
1, 191230, Control_c, 0, 64, 51
1, 191245, Control_c, 0, 64, 60
1, 191260, Control_c, 0, 64, 64
1, 191274, Control_c, 0, 64, 67
1, 191289, Control_c, 0, 64, 69
1, 191304, Control_c, 0, 64, 72
1, 191319, Control_c, 0, 64, 77
1, 191334, Control_c, 0, 64, 80
1, 191348, Control_c, 0, 64, 82
1, 191363, Control_c, 0, 64, 82
1, 191378, Control_c, 0, 64, 83
1, 191407, Control_c, 0, 64, 84
1, 191437, Control_c, 0, 64, 84
1, 191529, Note_off_c, 0, 57, 35
1, 191606, Note_off_c, 0, 61, 31
1, 191633, Note_off_c, 0, 76, 41
1, 191964, Control_c, 0, 64, 84
1, 192022, Control_c, 0, 64, 83
1, 192052, Control_c, 0, 64, 83
1, 192111, Control_c, 0, 64, 82
1, 192200, Control_c, 0, 64, 82
1, 192229, Control_c, 0, 64, 81
1, 192244, Control_c, 0, 64, 80
1, 192259, Control_c, 0, 64, 77
1, 192274, Control_c, 0, 64, 71
1, 192289, Control_c, 0, 64, 63
1, 192304, Control_c, 0, 64, 51
1, 192319, Control_c, 0, 64, 27
1, 192333, Control_c, 0, 64, 0
1, 192378, Control_c, 0, 67, 115
1, 192393, Control_c, 0, 64, 30
1, 192393, Control_c, 0, 67, 82
1, 192407, Control_c, 0, 64, 46
1, 192407, Control_c, 0, 67, 39
1, 192422, Control_c, 0, 64, 63
1, 192422, Control_c, 0, 67, 0
1, 192437, Control_c, 0, 64, 79
1, 192452, Control_c, 0, 64, 87
1, 192467, Control_c, 0, 64, 88
1, 192481, Control_c, 0, 64, 92
1, 192496, Control_c, 0, 64, 100
1, 192518, Control_c, 0, 64, 127
1, 192590, Note_on_c, 0, 74, 57
1, 192667, Note_on_c, 0, 78, 82
1, 192679, Note_off_c, 0, 74, 60
1, 192736, Note_on_c, 0, 81, 85
1, 192768, Note_off_c, 0, 78, 65
1, 192870, Note_on_c, 0, 50, 45
1, 192879, Note_on_c, 0, 57, 42
1, 192880, Note_on_c, 0, 54, 46
1, 192886, Note_on_c, 0, 86, 87
1, 192905, Control_c, 0, 64, 110
1, 192906, Note_off_c, 0, 81, 62
1, 192919, Control_c, 0, 64, 86
1, 192934, Control_c, 0, 64, 70
1, 192949, Control_c, 0, 64, 59
1, 192963, Control_c, 0, 64, 39
1, 192978, Control_c, 0, 64, 0
1, 193023, Control_c, 0, 64, 21
1, 193037, Control_c, 0, 64, 38
1, 193052, Control_c, 0, 64, 53
1, 193067, Control_c, 0, 64, 64
1, 193082, Control_c, 0, 64, 75
1, 193097, Control_c, 0, 64, 78
1, 193111, Control_c, 0, 64, 79
1, 193126, Control_c, 0, 64, 81
1, 193141, Control_c, 0, 64, 85
1, 193156, Control_c, 0, 64, 88
1, 193171, Control_c, 0, 64, 90
1, 193201, Control_c, 0, 64, 90
1, 193204, Note_off_c, 0, 86, 59
1, 193213, Note_on_c, 0, 88, 69
1, 193216, Control_c, 0, 64, 91
1, 193230, Control_c, 0, 64, 92
1, 193245, Control_c, 0, 64, 92
1, 193283, Note_off_c, 0, 88, 63
1, 193289, Note_on_c, 0, 86, 66
1, 193326, Control_c, 0, 64, 92
1, 193341, Control_c, 0, 64, 89
1, 193354, Note_off_c, 0, 86, 62
1, 193356, Control_c, 0, 64, 81
1, 193359, Note_on_c, 0, 85, 80
1, 193371, Control_c, 0, 64, 76
1, 193386, Control_c, 0, 64, 74
1, 193401, Control_c, 0, 64, 72
1, 193416, Control_c, 0, 64, 68
1, 193425, Note_on_c, 0, 86, 74
1, 193430, Control_c, 0, 64, 61
1, 193445, Note_off_c, 0, 85, 61
1, 193446, Control_c, 0, 64, 48
1, 193460, Control_c, 0, 64, 18
1, 193475, Control_c, 0, 64, 0
1, 193565, Control_c, 0, 64, 29
1, 193579, Control_c, 0, 64, 46
1, 193594, Control_c, 0, 64, 60
1, 193609, Control_c, 0, 64, 69
1, 193624, Control_c, 0, 64, 74
1, 193639, Control_c, 0, 64, 75
1, 193654, Control_c, 0, 64, 76
1, 193668, Control_c, 0, 64, 82
1, 193683, Control_c, 0, 64, 89
1, 193691, Note_off_c, 0, 54, 58
1, 193698, Control_c, 0, 64, 94
1, 193713, Control_c, 0, 64, 97
1, 193726, Note_off_c, 0, 57, 55
1, 193728, Control_c, 0, 64, 100
1, 193742, Control_c, 0, 64, 101
1, 193757, Control_c, 0, 64, 103
1, 193772, Control_c, 0, 64, 105
1, 193786, Control_c, 0, 64, 108
1, 193801, Control_c, 0, 64, 110
1, 193816, Control_c, 0, 64, 111
1, 193846, Control_c, 0, 64, 114
1, 193860, Control_c, 0, 64, 119
1, 193875, Control_c, 0, 64, 127
1, 193978, Note_on_c, 0, 88, 79
1, 194061, Control_c, 0, 64, 122
1, 194075, Control_c, 0, 64, 114
1, 194083, Note_off_c, 0, 86, 35
1, 194090, Control_c, 0, 64, 110
1, 194105, Control_c, 0, 64, 108
1, 194120, Control_c, 0, 64, 106
1, 194135, Control_c, 0, 64, 101
1, 194142, Note_on_c, 0, 85, 72
1, 194149, Control_c, 0, 64, 87
1, 194164, Control_c, 0, 64, 73
1, 194175, Note_on_c, 0, 57, 36
1, 194179, Control_c, 0, 64, 65
1, 194181, Note_on_c, 0, 61, 46
1, 194190, Note_on_c, 0, 55, 42
1, 194191, Note_on_c, 0, 52, 40
1, 194194, Control_c, 0, 64, 58
1, 194208, Control_c, 0, 64, 46
1, 194210, Note_off_c, 0, 88, 62
1, 194223, Control_c, 0, 64, 23
1, 194239, Control_c, 0, 64, 0
1, 194321, Note_off_c, 0, 50, 41
1, 194372, Control_c, 0, 67, 8
1, 194402, Control_c, 0, 64, 22
1, 194402, Control_c, 0, 67, 8
1, 194417, Control_c, 0, 64, 42
1, 194417, Control_c, 0, 67, 9
1, 194432, Control_c, 0, 64, 59
1, 194447, Control_c, 0, 64, 69
1, 194462, Control_c, 0, 64, 75
1, 194477, Control_c, 0, 64, 78
1, 194491, Control_c, 0, 64, 83
1, 194491, Control_c, 0, 67, 10
1, 194500, Note_off_c, 0, 85, 58
1, 194506, Control_c, 0, 64, 92
1, 194521, Control_c, 0, 64, 105
1, 194536, Control_c, 0, 64, 127
1, 194560, Note_off_c, 0, 52, 42
1, 194580, Control_c, 0, 67, 10
1, 194621, Note_off_c, 0, 57, 40
1, 194639, Control_c, 0, 67, 10
1, 194641, Note_off_c, 0, 55, 41
1, 194654, Note_off_c, 0, 61, 42
1, 194744, Control_c, 0, 67, 10
1, 195122, Control_c, 0, 67, 11
1, 195226, Control_c, 0, 64, 113
1, 195226, Control_c, 0, 67, 11
1, 195240, Control_c, 0, 64, 100
1, 195255, Control_c, 0, 64, 95
1, 195270, Control_c, 0, 64, 91
1, 195270, Control_c, 0, 67, 12
1, 195285, Control_c, 0, 64, 83
1, 195285, Control_c, 0, 67, 14
1, 195300, Control_c, 0, 64, 74
1, 195300, Control_c, 0, 67, 14
1, 195303, Note_on_c, 0, 81, 46
1, 195314, Control_c, 0, 64, 64
1, 195314, Control_c, 0, 67, 15
1, 195329, Control_c, 0, 64, 53
1, 195344, Control_c, 0, 64, 30
1, 195359, Control_c, 0, 64, 0
1, 195374, Control_c, 0, 67, 15
1, 195446, Control_c, 0, 64, 26
1, 195461, Control_c, 0, 64, 43
1, 195476, Control_c, 0, 64, 59
1, 195491, Control_c, 0, 64, 66
1, 195513, Control_c, 0, 64, 70
1, 195528, Control_c, 0, 64, 71
1, 195530, Note_off_c, 0, 81, 60
1, 195543, Control_c, 0, 64, 74
1, 195553, Note_on_c, 0, 83, 51
1, 195558, Control_c, 0, 64, 77
1, 195572, Control_c, 0, 64, 81
1, 195572, Control_c, 0, 67, 15
1, 195587, Control_c, 0, 64, 84
1, 195602, Control_c, 0, 64, 86
1, 195615, Note_on_c, 0, 81, 60
1, 195615, Note_off_c, 0, 83, 66
1, 195617, Control_c, 0, 64, 86
1, 195632, Control_c, 0, 67, 15
1, 195646, Control_c, 0, 64, 87
1, 195661, Control_c, 0, 64, 87
1, 195677, Note_off_c, 0, 81, 64
1, 195680, Note_on_c, 0, 80, 81
1, 195691, Control_c, 0, 64, 86
1, 195706, Control_c, 0, 64, 78
1, 195720, Control_c, 0, 64, 72
1, 195735, Control_c, 0, 64, 68
1, 195735, Control_c, 0, 67, 16
1, 195747, Note_on_c, 0, 81, 77
1, 195747, Note_off_c, 0, 80, 62
1, 195750, Control_c, 0, 64, 64
1, 195764, Control_c, 0, 64, 55
1, 195764, Control_c, 0, 67, 16
1, 195779, Control_c, 0, 64, 33
1, 195794, Control_c, 0, 64, 0
1, 195855, Control_c, 0, 64, 26
1, 195869, Control_c, 0, 64, 46
1, 195884, Control_c, 0, 64, 60
1, 195899, Control_c, 0, 64, 71
1, 195914, Control_c, 0, 64, 78
1, 195928, Control_c, 0, 64, 79
1, 195943, Control_c, 0, 64, 80
1, 195958, Control_c, 0, 64, 86
1, 195973, Control_c, 0, 64, 93
1, 195988, Control_c, 0, 64, 100
1, 196003, Control_c, 0, 64, 104
1, 196018, Control_c, 0, 64, 106
1, 196033, Control_c, 0, 64, 107
1, 196048, Control_c, 0, 64, 108
1, 196062, Control_c, 0, 64, 108
1, 196067, Note_on_c, 0, 83, 75
1, 196116, Note_off_c, 0, 81, 60
1, 196122, Control_c, 0, 64, 109
1, 196122, Control_c, 0, 67, 17
1, 196225, Control_c, 0, 67, 17
1, 196240, Control_c, 0, 64, 104
1, 196262, Control_c, 0, 64, 98
1, 196277, Control_c, 0, 64, 97
1, 196291, Note_on_c, 0, 86, 74
1, 196292, Control_c, 0, 64, 96
1, 196307, Control_c, 0, 64, 93
1, 196307, Control_c, 0, 67, 18
1, 196311, Note_on_c, 0, 79, 40
1, 196316, Note_on_c, 0, 76, 38
1, 196322, Control_c, 0, 64, 85
1, 196322, Control_c, 0, 67, 18
1, 196328, Note_off_c, 0, 83, 63
1, 196336, Control_c, 0, 64, 72
1, 196336, Control_c, 0, 67, 21
1, 196351, Control_c, 0, 64, 60
1, 196351, Control_c, 0, 67, 23
1, 196366, Control_c, 0, 64, 42
1, 196366, Control_c, 0, 67, 25
1, 196381, Control_c, 0, 64, 0
1, 196381, Control_c, 0, 67, 28
1, 196395, Control_c, 0, 67, 30
1, 196410, Control_c, 0, 67, 33
1, 196425, Control_c, 0, 67, 35
1, 196440, Control_c, 0, 67, 36
1, 196455, Control_c, 0, 67, 37
1, 196484, Control_c, 0, 67, 38
1, 196514, Control_c, 0, 67, 38
1, 196529, Control_c, 0, 67, 39
1, 196589, Note_on_c, 0, 84, 56
1, 196602, Control_c, 0, 67, 39
1, 196629, Note_off_c, 0, 86, 60
1, 196692, Control_c, 0, 67, 40
1, 196702, Note_off_c, 0, 84, 59
1, 196814, Note_on_c, 0, 84, 60
1, 196826, Control_c, 0, 67, 40
1, 196841, Control_c, 0, 67, 41
1, 196855, Control_c, 0, 67, 46
1, 196870, Control_c, 0, 67, 51
1, 196885, Control_c, 0, 67, 57
1, 196900, Control_c, 0, 67, 63
1, 196915, Control_c, 0, 67, 67
1, 196930, Control_c, 0, 67, 72
1, 196945, Control_c, 0, 67, 79
1, 196959, Control_c, 0, 67, 87
1, 196974, Control_c, 0, 67, 92
1, 196989, Control_c, 0, 67, 98
1, 197010, Control_c, 0, 64, 24
1, 197010, Control_c, 0, 67, 103
1, 197025, Control_c, 0, 64, 37
1, 197025, Control_c, 0, 67, 108
1, 197040, Control_c, 0, 64, 49
1, 197040, Control_c, 0, 67, 115
1, 197055, Control_c, 0, 64, 58
1, 197055, Control_c, 0, 67, 125
1, 197070, Control_c, 0, 64, 62
1, 197070, Control_c, 0, 67, 127
1, 197085, Control_c, 0, 64, 63
1, 197100, Control_c, 0, 64, 64
1, 197115, Control_c, 0, 64, 66
1, 197129, Control_c, 0, 64, 69
1, 197144, Control_c, 0, 64, 72
1, 197159, Control_c, 0, 64, 73
1, 197174, Control_c, 0, 64, 74
1, 197189, Control_c, 0, 64, 75
1, 197204, Control_c, 0, 64, 75
1, 197218, Control_c, 0, 64, 76
1, 197233, Control_c, 0, 64, 76
1, 197246, Note_on_c, 0, 83, 68
1, 197285, Note_off_c, 0, 84, 62
1, 197331, Note_off_c, 0, 83, 62
1, 197396, Control_c, 0, 64, 76
1, 197410, Control_c, 0, 64, 74
1, 197425, Control_c, 0, 64, 71
1, 197431, Note_on_c, 0, 83, 63
1, 197441, Control_c, 0, 64, 67
1, 197456, Control_c, 0, 64, 65
1, 197460, Note_on_c, 0, 78, 40
1, 197471, Control_c, 0, 64, 63
1, 197476, Note_on_c, 0, 75, 41
1, 197486, Control_c, 0, 64, 59
1, 197501, Control_c, 0, 64, 51
1, 197504, Note_off_c, 0, 78, 0
1, 197504, Note_on_c, 0, 78, 10
1, 197515, Control_c, 0, 64, 35
1, 197527, Note_off_c, 0, 75, 0
1, 197527, Note_on_c, 0, 75, 9
1, 197530, Control_c, 0, 64, 0
1, 197595, Note_off_c, 0, 76, 56
1, 197624, Note_off_c, 0, 79, 50
1, 197938, Control_c, 0, 64, 16
1, 197952, Control_c, 0, 64, 34
1, 197967, Control_c, 0, 64, 50
1, 197982, Control_c, 0, 64, 62
1, 197997, Control_c, 0, 64, 69
1, 198012, Control_c, 0, 64, 74
1, 198027, Control_c, 0, 64, 76
1, 198042, Control_c, 0, 64, 81
1, 198057, Control_c, 0, 64, 89
1, 198072, Control_c, 0, 64, 96
1, 198087, Control_c, 0, 64, 99
1, 198101, Control_c, 0, 64, 100
1, 198131, Control_c, 0, 64, 101
1, 198135, Note_off_c, 0, 75, 47
1, 198146, Control_c, 0, 64, 101
1, 198155, Note_off_c, 0, 78, 56
1, 198310, Control_c, 0, 64, 101
1, 198325, Control_c, 0, 64, 100
1, 198339, Control_c, 0, 64, 97
1, 198354, Control_c, 0, 64, 92
1, 198369, Control_c, 0, 64, 86
1, 198383, Control_c, 0, 64, 80
1, 198398, Control_c, 0, 64, 72
1, 198412, Control_c, 0, 64, 65
1, 198427, Control_c, 0, 64, 57
1, 198442, Control_c, 0, 64, 36
1, 198456, Control_c, 0, 64, 0
1, 198692, Note_on_c, 0, 81, 53
1, 198765, Note_off_c, 0, 83, 61
1, 198908, Control_c, 0, 64, 19
1, 198923, Control_c, 0, 64, 31
1, 198938, Control_c, 0, 64, 41
1, 198941, Note_on_c, 0, 84, 58
1, 198944, Note_on_c, 0, 75, 34
1, 198953, Control_c, 0, 64, 50
1, 198968, Control_c, 0, 64, 57
1, 198982, Control_c, 0, 64, 61
1, 198997, Control_c, 0, 64, 62
1, 199009, Note_off_c, 0, 81, 49
1, 199012, Control_c, 0, 64, 63
1, 199028, Control_c, 0, 64, 64
1, 199043, Control_c, 0, 64, 66
1, 199058, Control_c, 0, 64, 69
1, 199073, Control_c, 0, 64, 70
1, 199087, Control_c, 0, 64, 71
1, 199102, Control_c, 0, 64, 72
1, 199132, Control_c, 0, 64, 72
1, 199147, Control_c, 0, 64, 73
1, 199148, Note_on_c, 0, 81, 78
1, 199161, Control_c, 0, 64, 73
1, 199189, Note_off_c, 0, 84, 63
1, 199261, Note_off_c, 0, 81, 61
1, 199317, Control_c, 0, 64, 73
1, 199347, Control_c, 0, 64, 72
1, 199361, Control_c, 0, 64, 69
1, 199376, Control_c, 0, 64, 66
1, 199391, Control_c, 0, 64, 64
1, 199405, Control_c, 0, 64, 63
1, 199410, Note_on_c, 0, 81, 69
1, 199413, Note_on_c, 0, 76, 42
1, 199420, Control_c, 0, 64, 60
1, 199435, Control_c, 0, 64, 55
1, 199450, Note_off_c, 0, 76, 0
1, 199450, Note_on_c, 0, 76, 13
1, 199450, Control_c, 0, 64, 44
1, 199465, Control_c, 0, 64, 24
1, 199470, Note_off_c, 0, 75, 53
1, 199479, Control_c, 0, 64, 0
1, 199544, Note_off_c, 0, 76, 55
1, 199644, Note_on_c, 0, 79, 59
1, 199654, Note_off_c, 0, 81, 62
1, 199701, Note_off_c, 0, 79, 61
1, 199855, Note_on_c, 0, 83, 56
1, 199866, Note_on_c, 0, 73, 38
1, 199923, Note_off_c, 0, 73, 47
1, 200070, Note_on_c, 0, 79, 71
1, 200117, Note_off_c, 0, 83, 65
1, 200156, Note_off_c, 0, 79, 63
1, 200298, Note_on_c, 0, 79, 63
1, 200314, Note_on_c, 0, 74, 38
1, 200513, Note_on_c, 0, 78, 56
1, 200513, Note_off_c, 0, 74, 37
1, 200540, Note_off_c, 0, 79, 60
1, 200560, Note_off_c, 0, 78, 59
1, 200599, Control_c, 0, 67, 121
1, 200614, Control_c, 0, 67, 107
1, 200629, Control_c, 0, 67, 92
1, 200644, Control_c, 0, 67, 75
1, 200659, Control_c, 0, 67, 59
1, 200674, Control_c, 0, 67, 44
1, 200689, Control_c, 0, 67, 29
1, 200704, Control_c, 0, 67, 18
1, 200718, Control_c, 0, 67, 8
1, 200728, Note_on_c, 0, 81, 56
1, 200733, Control_c, 0, 67, 0
1, 200740, Note_on_c, 0, 66, 39
1, 200861, Note_off_c, 0, 66, 36
1, 200931, Note_on_c, 0, 78, 71
1, 200954, Note_off_c, 0, 81, 64
1, 201038, Note_off_c, 0, 78, 64
1, 201141, Note_on_c, 0, 78, 72
1, 201152, Note_on_c, 0, 67, 46
1, 201290, Note_off_c, 0, 67, 46
1, 201352, Note_on_c, 0, 76, 74
1, 201378, Note_off_c, 0, 78, 67
1, 201432, Note_off_c, 0, 76, 62
1, 201579, Control_c, 0, 67, 9
1, 201594, Control_c, 0, 67, 13
1, 201595, Note_on_c, 0, 77, 69
1, 201608, Control_c, 0, 67, 16
1, 201623, Control_c, 0, 67, 21
1, 201626, Note_on_c, 0, 68, 31
1, 201638, Control_c, 0, 67, 27
1, 201653, Control_c, 0, 67, 34
1, 201668, Control_c, 0, 67, 42
1, 201682, Control_c, 0, 67, 52
1, 201697, Control_c, 0, 67, 61
1, 201712, Control_c, 0, 67, 72
1, 201726, Control_c, 0, 67, 80
1, 201741, Control_c, 0, 64, 18
1, 201741, Control_c, 0, 67, 89
1, 201756, Control_c, 0, 64, 31
1, 201756, Control_c, 0, 67, 98
1, 201771, Control_c, 0, 64, 39
1, 201771, Control_c, 0, 67, 105
1, 201786, Control_c, 0, 64, 47
1, 201786, Control_c, 0, 67, 112
1, 201796, Note_off_c, 0, 68, 41
1, 201801, Control_c, 0, 64, 51
1, 201801, Control_c, 0, 67, 118
1, 201816, Control_c, 0, 64, 52
1, 201816, Control_c, 0, 67, 124
1, 201825, Note_on_c, 0, 74, 62
1, 201831, Control_c, 0, 67, 127
1, 201846, Control_c, 0, 64, 51
1, 201857, Note_off_c, 0, 77, 62
1, 201860, Control_c, 0, 64, 48
1, 201875, Control_c, 0, 64, 43
1, 201890, Control_c, 0, 64, 41
1, 201920, Control_c, 0, 64, 40
1, 201934, Control_c, 0, 64, 38
1, 201949, Control_c, 0, 64, 31
1, 201964, Control_c, 0, 64, 21
1, 201979, Control_c, 0, 64, 12
1, 201994, Control_c, 0, 64, 11
1, 202000, Note_off_c, 0, 74, 63
1, 202008, Control_c, 0, 64, 9
1, 202023, Control_c, 0, 64, 0
1, 202164, Note_on_c, 0, 74, 49
1, 202203, Note_on_c, 0, 69, 25
1, 202712, Control_c, 0, 64, 13
1, 202727, Control_c, 0, 64, 30
1, 202741, Control_c, 0, 64, 43
1, 202756, Control_c, 0, 64, 53
1, 202771, Control_c, 0, 64, 59
1, 202786, Control_c, 0, 64, 62
1, 202801, Control_c, 0, 64, 64
1, 202816, Control_c, 0, 64, 66
1, 202830, Control_c, 0, 64, 68
1, 202845, Control_c, 0, 64, 71
1, 202860, Control_c, 0, 64, 72
1, 202874, Control_c, 0, 64, 74
1, 202889, Control_c, 0, 64, 74
1, 202934, Control_c, 0, 64, 75
1, 202948, Control_c, 0, 64, 75
1, 202963, Control_c, 0, 64, 76
1, 203253, Control_c, 0, 64, 75
1, 203283, Control_c, 0, 64, 75
1, 203298, Control_c, 0, 64, 74
1, 203309, Note_on_c, 0, 57, 26
1, 203312, Note_on_c, 0, 73, 37
1, 203313, Control_c, 0, 64, 73
1, 203327, Control_c, 0, 64, 71
1, 203342, Control_c, 0, 64, 69
1, 203357, Control_c, 0, 64, 68
1, 203367, Note_off_c, 0, 73, 0
1, 203367, Note_on_c, 0, 73, 8
1, 203372, Control_c, 0, 64, 65
1, 203387, Control_c, 0, 64, 63
1, 203402, Control_c, 0, 64, 57
1, 203416, Control_c, 0, 64, 44
1, 203428, Note_off_c, 0, 74, 43
1, 203431, Control_c, 0, 64, 27
1, 203446, Control_c, 0, 64, 0
1, 203643, Note_off_c, 0, 69, 44
1, 203697, Control_c, 0, 64, 11
1, 203712, Control_c, 0, 64, 29
1, 203727, Control_c, 0, 64, 41
1, 203750, Control_c, 0, 64, 52
1, 203765, Control_c, 0, 64, 60
1, 203779, Control_c, 0, 64, 63
1, 203794, Control_c, 0, 64, 66
1, 203809, Control_c, 0, 64, 68
1, 203825, Control_c, 0, 64, 72
1, 203840, Control_c, 0, 64, 77
1, 203840, Control_c, 0, 67, 111
1, 203855, Control_c, 0, 64, 80
1, 203855, Control_c, 0, 67, 90
1, 203870, Control_c, 0, 64, 83
1, 203870, Control_c, 0, 67, 65
1, 203884, Control_c, 0, 64, 84
1, 203884, Control_c, 0, 67, 38
1, 203899, Control_c, 0, 64, 85
1, 203899, Control_c, 0, 67, 10
1, 203914, Control_c, 0, 64, 85
1, 203914, Control_c, 0, 67, 0
1, 203928, Control_c, 0, 64, 86
1, 203943, Control_c, 0, 64, 87
1, 203958, Control_c, 0, 64, 88
1, 203973, Control_c, 0, 64, 88
1, 204108, Note_off_c, 0, 57, 35
1, 204147, Note_off_c, 0, 73, 48
1, 204558, Control_c, 0, 64, 88
1, 204573, Control_c, 0, 64, 87
1, 204603, Control_c, 0, 64, 86
1, 204618, Control_c, 0, 64, 84
1, 204633, Control_c, 0, 64, 82
1, 204648, Control_c, 0, 64, 77
1, 204663, Control_c, 0, 64, 69
1, 204678, Control_c, 0, 64, 61
1, 204693, Control_c, 0, 64, 49
1, 204707, Control_c, 0, 64, 23
1, 204722, Control_c, 0, 64, 0
1, 204812, Control_c, 0, 64, 17
1, 204826, Control_c, 0, 64, 38
1, 204841, Control_c, 0, 64, 54
1, 204856, Control_c, 0, 64, 69
1, 204865, Note_on_c, 0, 69, 94
1, 204871, Control_c, 0, 64, 83
1, 204886, Control_c, 0, 64, 86
1, 204900, Control_c, 0, 64, 90
1, 204915, Control_c, 0, 64, 100
1, 204930, Control_c, 0, 64, 127
1, 205211, Note_on_c, 0, 50, 86
1, 205216, Note_on_c, 0, 45, 86
1, 205217, Note_on_c, 0, 38, 83
1, 205217, Note_on_c, 0, 42, 84
1, 205223, Note_on_c, 0, 74, 84
1, 205277, Control_c, 0, 64, 76
1, 205281, Note_off_c, 0, 69, 58
1, 205292, Control_c, 0, 64, 59
1, 205307, Control_c, 0, 64, 31
1, 205322, Control_c, 0, 64, 0
1, 205381, Control_c, 0, 64, 23
1, 205396, Control_c, 0, 64, 44
1, 205411, Control_c, 0, 64, 60
1, 205427, Control_c, 0, 64, 87
1, 205441, Control_c, 0, 64, 108
1, 205456, Control_c, 0, 64, 109
1, 205471, Control_c, 0, 64, 114
1, 205486, Control_c, 0, 64, 127
1, 205561, Note_on_c, 0, 73, 74
1, 205573, Note_off_c, 0, 74, 61
1, 205625, Note_on_c, 0, 71, 71
1, 205661, Note_off_c, 0, 73, 61
1, 205689, Note_on_c, 0, 69, 80
1, 205691, Note_off_c, 0, 71, 66
1, 205733, Note_off_c, 0, 69, 66
1, 205738, Note_on_c, 0, 67, 79
1, 205791, Note_on_c, 0, 66, 88
1, 205794, Note_off_c, 0, 67, 62
1, 205852, Note_on_c, 0, 64, 84
1, 205854, Note_off_c, 0, 66, 67
1, 205915, Control_c, 0, 64, 96
1, 205923, Note_on_c, 0, 62, 87
1, 205930, Control_c, 0, 64, 73
1, 205944, Note_off_c, 0, 64, 63
1, 205945, Control_c, 0, 64, 61
1, 205960, Control_c, 0, 64, 44
1, 205974, Control_c, 0, 64, 0
1, 206115, Control_c, 0, 64, 25
1, 206130, Control_c, 0, 64, 44
1, 206145, Control_c, 0, 64, 60
1, 206160, Control_c, 0, 64, 74
1, 206174, Control_c, 0, 64, 88
1, 206189, Control_c, 0, 64, 92
1, 206204, Control_c, 0, 64, 96
1, 206210, Note_off_c, 0, 62, 59
1, 206220, Control_c, 0, 64, 109
1, 206235, Control_c, 0, 64, 127
1, 206507, Note_off_c, 0, 38, 54
1, 206523, Note_off_c, 0, 50, 37
1, 206552, Note_off_c, 0, 42, 61
1, 206569, Note_off_c, 0, 45, 58
1, 206655, Note_on_c, 0, 81, 82
1, 206708, Control_c, 0, 64, 84
1, 206722, Control_c, 0, 64, 62
1, 206745, Control_c, 0, 64, 39
1, 206760, Control_c, 0, 64, 0
1, 206775, Note_on_c, 0, 83, 84
1, 206790, Control_c, 0, 64, 28
1, 206801, Note_off_c, 0, 81, 64
1, 206804, Control_c, 0, 64, 44
1, 206819, Control_c, 0, 64, 59
1, 206834, Control_c, 0, 64, 73
1, 206849, Control_c, 0, 64, 90
1, 206864, Control_c, 0, 64, 94
1, 206875, Note_on_c, 0, 81, 96
1, 206878, Control_c, 0, 64, 94
1, 206893, Control_c, 0, 64, 97
1, 206898, Note_off_c, 0, 83, 66
1, 206908, Control_c, 0, 64, 103
1, 206922, Control_c, 0, 64, 109
1, 206937, Control_c, 0, 64, 113
1, 206952, Control_c, 0, 64, 114
1, 206967, Control_c, 0, 64, 117
1, 207087, Control_c, 0, 64, 115
1, 207101, Control_c, 0, 64, 105
1, 207116, Control_c, 0, 64, 100
1, 207131, Note_on_c, 0, 86, 83
1, 207131, Control_c, 0, 64, 100
1, 207146, Control_c, 0, 64, 98
1, 207160, Control_c, 0, 64, 89
1, 207169, Note_off_c, 0, 81, 60
1, 207175, Control_c, 0, 64, 75
1, 207190, Control_c, 0, 64, 63
1, 207205, Control_c, 0, 64, 47
1, 207220, Control_c, 0, 64, 0
1, 207324, Control_c, 0, 64, 18
1, 207338, Control_c, 0, 64, 41
1, 207353, Control_c, 0, 64, 55
1, 207368, Control_c, 0, 64, 66
1, 207383, Control_c, 0, 64, 72
1, 207398, Control_c, 0, 64, 75
1, 207412, Control_c, 0, 64, 76
1, 207427, Control_c, 0, 64, 79
1, 207427, Control_c, 0, 67, 8
1, 207442, Control_c, 0, 64, 84
1, 207442, Control_c, 0, 67, 11
1, 207457, Control_c, 0, 64, 89
1, 207457, Control_c, 0, 67, 13
1, 207468, Note_on_c, 0, 85, 64
1, 207471, Control_c, 0, 64, 94
1, 207471, Control_c, 0, 67, 15
1, 207494, Control_c, 0, 64, 97
1, 207509, Control_c, 0, 64, 99
1, 207509, Control_c, 0, 67, 15
1, 207511, Note_off_c, 0, 86, 59
1, 207524, Control_c, 0, 64, 101
1, 207524, Control_c, 0, 67, 16
1, 207539, Control_c, 0, 64, 103
1, 207539, Control_c, 0, 67, 17
1, 207553, Control_c, 0, 64, 105
1, 207553, Control_c, 0, 67, 17
1, 207554, Note_on_c, 0, 83, 63
1, 207563, Note_off_c, 0, 85, 63
1, 207583, Control_c, 0, 64, 105
1, 207598, Control_c, 0, 64, 106
1, 207613, Control_c, 0, 64, 107
1, 207613, Control_c, 0, 67, 18
1, 207614, Note_on_c, 0, 81, 81
1, 207615, Note_off_c, 0, 83, 67
1, 207668, Note_off_c, 0, 81, 63
1, 207685, Note_on_c, 0, 79, 76
1, 207716, Control_c, 0, 64, 106
1, 207747, Note_on_c, 0, 78, 79
1, 207760, Note_off_c, 0, 79, 57
1, 207760, Control_c, 0, 67, 17
1, 207775, Control_c, 0, 64, 103
1, 207790, Control_c, 0, 64, 95
1, 207790, Control_c, 0, 67, 18
1, 207805, Control_c, 0, 64, 90
1, 207821, Control_c, 0, 64, 88
1, 207821, Control_c, 0, 67, 18
1, 207836, Control_c, 0, 64, 86
1, 207850, Control_c, 0, 64, 82
1, 207861, Note_on_c, 0, 76, 64
1, 207865, Control_c, 0, 64, 74
1, 207865, Control_c, 0, 67, 19
1, 207876, Note_on_c, 0, 67, 49
1, 207880, Control_c, 0, 64, 64
1, 207880, Control_c, 0, 67, 20
1, 207895, Control_c, 0, 64, 53
1, 207895, Control_c, 0, 67, 22
1, 207897, Note_on_c, 0, 62, 42
1, 207908, Note_off_c, 0, 78, 64
1, 207910, Control_c, 0, 64, 21
1, 207910, Control_c, 0, 67, 25
1, 207924, Control_c, 0, 64, 0
1, 207924, Control_c, 0, 67, 28
1, 207939, Control_c, 0, 67, 30
1, 207954, Control_c, 0, 67, 32
1, 207968, Control_c, 0, 67, 35
1, 207983, Control_c, 0, 67, 39
1, 207998, Control_c, 0, 67, 44
1, 208013, Control_c, 0, 67, 51
1, 208028, Control_c, 0, 67, 60
1, 208043, Control_c, 0, 67, 69
1, 208058, Control_c, 0, 67, 76
1, 208073, Control_c, 0, 67, 83
1, 208087, Control_c, 0, 67, 90
1, 208102, Control_c, 0, 64, 22
1, 208102, Control_c, 0, 67, 97
1, 208117, Control_c, 0, 64, 35
1, 208117, Control_c, 0, 67, 104
1, 208132, Control_c, 0, 64, 45
1, 208132, Control_c, 0, 67, 113
1, 208147, Control_c, 0, 64, 54
1, 208147, Control_c, 0, 67, 121
1, 208162, Control_c, 0, 64, 60
1, 208162, Control_c, 0, 67, 126
1, 208177, Control_c, 0, 64, 63
1, 208177, Control_c, 0, 67, 127
1, 208192, Control_c, 0, 64, 64
1, 208207, Control_c, 0, 64, 65
1, 208222, Control_c, 0, 64, 65
1, 208243, Control_c, 0, 64, 67
1, 208258, Control_c, 0, 64, 68
1, 208272, Note_off_c, 0, 76, 64
1, 208273, Control_c, 0, 64, 68
1, 208305, Note_on_c, 0, 74, 52
1, 208362, Control_c, 0, 64, 68
1, 208374, Note_off_c, 0, 74, 61
1, 208377, Control_c, 0, 64, 67
1, 208392, Control_c, 0, 64, 67
1, 208395, Note_on_c, 0, 73, 66
1, 208421, Control_c, 0, 64, 66
1, 208436, Control_c, 0, 64, 65
1, 208451, Control_c, 0, 64, 62
1, 208463, Note_off_c, 0, 73, 63
1, 208466, Control_c, 0, 64, 59
1, 208469, Note_on_c, 0, 71, 66
1, 208481, Control_c, 0, 64, 56
1, 208495, Control_c, 0, 64, 56
1, 208510, Control_c, 0, 64, 55
1, 208525, Control_c, 0, 64, 51
1, 208535, Note_off_c, 0, 71, 61
1, 208540, Control_c, 0, 64, 43
1, 208550, Note_on_c, 0, 69, 73
1, 208555, Control_c, 0, 64, 36
1, 208569, Control_c, 0, 64, 32
1, 208584, Control_c, 0, 64, 29
1, 208599, Control_c, 0, 64, 21
1, 208615, Control_c, 0, 64, 0
1, 208685, Note_on_c, 0, 74, 56
1, 208700, Note_off_c, 0, 69, 53
1, 208708, Note_on_c, 0, 66, 38
1, 208798, Note_off_c, 0, 67, 53
1, 208991, Control_c, 0, 64, 25
1, 209006, Control_c, 0, 64, 39
1, 209021, Control_c, 0, 64, 51
1, 209035, Control_c, 0, 64, 60
1, 209050, Control_c, 0, 64, 65
1, 209053, Note_off_c, 0, 74, 61
1, 209065, Control_c, 0, 64, 66
1, 209080, Control_c, 0, 64, 68
1, 209095, Control_c, 0, 64, 70
1, 209109, Control_c, 0, 64, 74
1, 209124, Control_c, 0, 64, 77
1, 209139, Control_c, 0, 64, 79
1, 209154, Control_c, 0, 64, 80
1, 209198, Control_c, 0, 64, 81
1, 209213, Control_c, 0, 64, 81
1, 209287, Control_c, 0, 64, 82
1, 209298, Note_off_c, 0, 62, 32
1, 209302, Note_off_c, 0, 66, 50
1, 209405, Control_c, 0, 64, 81
1, 209421, Control_c, 0, 64, 79
1, 209427, Note_on_c, 0, 73, 46
1, 209436, Control_c, 0, 64, 77
1, 209451, Control_c, 0, 64, 76
1, 209466, Control_c, 0, 64, 72
1, 209481, Control_c, 0, 64, 68
1, 209495, Control_c, 0, 64, 62
1, 209510, Control_c, 0, 64, 53
1, 209525, Control_c, 0, 64, 39
1, 209539, Control_c, 0, 64, 28
1, 209554, Control_c, 0, 64, 19
1, 209569, Control_c, 0, 64, 0
1, 209587, Note_off_c, 0, 73, 63
1, 209611, Note_on_c, 0, 74, 58
1, 209697, Note_off_c, 0, 74, 60
1, 209708, Note_on_c, 0, 78, 72
1, 209795, Note_off_c, 0, 78, 64
1, 209808, Note_on_c, 0, 76, 77
1, 209889, Note_off_c, 0, 76, 62
1, 209892, Note_on_c, 0, 79, 78
1, 209977, Note_on_c, 0, 78, 83
1, 209978, Note_off_c, 0, 79, 64
1, 210058, Note_on_c, 0, 81, 83
1, 210059, Note_off_c, 0, 78, 66
1, 210150, Note_on_c, 0, 79, 84
1, 210172, Note_off_c, 0, 81, 61
1, 210230, Control_c, 0, 67, 124
1, 210233, Note_on_c, 0, 83, 81
1, 210234, Note_off_c, 0, 79, 64
1, 210244, Control_c, 0, 67, 104
1, 210259, Control_c, 0, 67, 74
1, 210274, Control_c, 0, 67, 44
1, 210288, Control_c, 0, 67, 14
1, 210303, Control_c, 0, 67, 0
1, 210360, Note_on_c, 0, 81, 71
1, 210374, Note_on_c, 0, 71, 42
1, 210376, Note_off_c, 0, 83, 63
1, 210404, Note_off_c, 0, 71, 58
1, 210592, Note_on_c, 0, 79, 64
1, 210599, Note_off_c, 0, 81, 61
1, 210646, Note_off_c, 0, 79, 63
1, 210787, Note_on_c, 0, 69, 62
1, 210824, Note_off_c, 0, 69, 62
1, 210975, Note_on_c, 0, 78, 80
1, 211021, Note_off_c, 0, 78, 66
1, 211167, Note_on_c, 0, 67, 65
1, 211205, Note_off_c, 0, 67, 64
1, 211377, Note_on_c, 0, 76, 64
1, 211405, Note_off_c, 0, 76, 66
1, 211570, Note_on_c, 0, 66, 63
1, 211605, Note_off_c, 0, 66, 65
1, 211759, Note_on_c, 0, 74, 64
1, 211804, Note_off_c, 0, 74, 66
1, 211972, Note_on_c, 0, 64, 53
1, 212023, Note_off_c, 0, 64, 62
1, 212195, Note_on_c, 0, 73, 60
1, 212263, Note_off_c, 0, 73, 61
1, 212397, Note_on_c, 0, 62, 57
1, 212461, Control_c, 0, 64, 17
1, 212475, Control_c, 0, 64, 33
1, 212490, Control_c, 0, 64, 47
1, 212505, Control_c, 0, 64, 57
1, 212520, Control_c, 0, 64, 63
1, 212535, Control_c, 0, 64, 65
1, 212542, Note_off_c, 0, 62, 58
1, 212550, Control_c, 0, 64, 67
1, 212565, Control_c, 0, 64, 69
1, 212580, Control_c, 0, 64, 73
1, 212594, Note_on_c, 0, 74, 62
1, 212595, Control_c, 0, 64, 78
1, 212610, Control_c, 0, 64, 80
1, 212625, Control_c, 0, 64, 82
1, 212639, Control_c, 0, 64, 83
1, 212654, Control_c, 0, 64, 85
1, 212669, Control_c, 0, 64, 86
1, 212683, Control_c, 0, 64, 87
1, 212698, Control_c, 0, 64, 88
1, 212809, Control_c, 0, 64, 88
1, 212824, Control_c, 0, 64, 84
1, 212833, Note_on_c, 0, 57, 43
1, 212839, Control_c, 0, 64, 81
1, 212845, Note_on_c, 0, 62, 46
1, 212854, Control_c, 0, 64, 78
1, 212857, Note_off_c, 0, 74, 62
1, 212869, Control_c, 0, 64, 73
1, 212883, Control_c, 0, 64, 64
1, 212896, Note_on_c, 0, 78, 64
1, 212898, Control_c, 0, 64, 54
1, 212913, Control_c, 0, 64, 32
1, 212928, Control_c, 0, 64, 0
1, 212966, Note_off_c, 0, 78, 64
1, 212978, Note_on_c, 0, 79, 63
1, 212987, Control_c, 0, 64, 24
1, 213002, Control_c, 0, 64, 38
1, 213017, Control_c, 0, 64, 52
1, 213031, Control_c, 0, 64, 63
1, 213046, Control_c, 0, 64, 68
1, 213052, Note_on_c, 0, 78, 77
1, 213054, Note_off_c, 0, 79, 62
1, 213061, Control_c, 0, 64, 70
1, 213076, Control_c, 0, 64, 72
1, 213090, Control_c, 0, 64, 75
1, 213105, Control_c, 0, 64, 79
1, 213118, Note_off_c, 0, 78, 66
1, 213120, Control_c, 0, 64, 82
1, 213125, Note_on_c, 0, 76, 79
1, 213135, Control_c, 0, 64, 83
1, 213150, Control_c, 0, 64, 83
1, 213164, Control_c, 0, 64, 84
1, 213179, Control_c, 0, 64, 84
1, 213203, Note_on_c, 0, 78, 87
1, 213204, Note_off_c, 0, 76, 64
1, 213283, Control_c, 0, 64, 84
1, 213289, Note_off_c, 0, 78, 63
1, 213291, Note_on_c, 0, 79, 80
1, 213298, Control_c, 0, 64, 79
1, 213313, Control_c, 0, 64, 73
1, 213328, Control_c, 0, 64, 69
1, 213343, Control_c, 0, 64, 67
1, 213357, Control_c, 0, 64, 66
1, 213372, Control_c, 0, 64, 64
1, 213387, Control_c, 0, 64, 58
1, 213402, Control_c, 0, 64, 44
1, 213417, Control_c, 0, 64, 11
1, 213419, Note_on_c, 0, 80, 73
1, 213432, Control_c, 0, 64, 0
1, 213450, Note_off_c, 0, 79, 62
1, 213573, Control_c, 0, 67, 11
1, 213587, Control_c, 0, 64, 14
1, 213587, Control_c, 0, 67, 17
1, 213602, Control_c, 0, 64, 32
1, 213602, Control_c, 0, 67, 23
1, 213617, Control_c, 0, 64, 46
1, 213617, Control_c, 0, 67, 33
1, 213632, Control_c, 0, 64, 57
1, 213632, Control_c, 0, 67, 43
1, 213647, Control_c, 0, 64, 62
1, 213647, Control_c, 0, 67, 50
1, 213662, Control_c, 0, 64, 64
1, 213662, Control_c, 0, 67, 56
1, 213677, Control_c, 0, 64, 65
1, 213677, Control_c, 0, 67, 63
1, 213692, Control_c, 0, 64, 67
1, 213692, Control_c, 0, 67, 70
1, 213706, Control_c, 0, 64, 69
1, 213706, Control_c, 0, 67, 76
1, 213712, Note_off_c, 0, 80, 61
1, 213712, Note_on_c, 0, 83, 65
1, 213721, Control_c, 0, 64, 71
1, 213721, Control_c, 0, 67, 83
1, 213736, Control_c, 0, 64, 73
1, 213736, Control_c, 0, 67, 89
1, 213751, Control_c, 0, 64, 73
1, 213751, Control_c, 0, 67, 94
1, 213766, Control_c, 0, 67, 97
1, 213780, Control_c, 0, 67, 98
1, 213795, Control_c, 0, 64, 74
1, 213795, Control_c, 0, 67, 100
1, 213803, Note_off_c, 0, 83, 66
1, 213810, Control_c, 0, 67, 102
1, 213814, Note_on_c, 0, 81, 71
1, 213824, Control_c, 0, 67, 106
1, 213839, Control_c, 0, 67, 111
1, 213854, Control_c, 0, 64, 73
1, 213854, Control_c, 0, 67, 115
1, 213869, Control_c, 0, 67, 119
1, 213884, Control_c, 0, 64, 73
1, 213884, Control_c, 0, 67, 123
1, 213898, Control_c, 0, 64, 70
1, 213898, Control_c, 0, 67, 125
1, 213913, Control_c, 0, 64, 66
1, 213913, Control_c, 0, 67, 127
1, 213928, Control_c, 0, 64, 61
1, 213928, Control_c, 0, 67, 127
1, 213940, Note_on_c, 0, 61, 39
1, 213943, Control_c, 0, 64, 58
1, 213958, Control_c, 0, 64, 55
1, 213973, Control_c, 0, 64, 49
1, 213987, Control_c, 0, 64, 38
1, 213988, Note_off_c, 0, 81, 61
1, 213990, Note_on_c, 0, 79, 63
1, 214002, Control_c, 0, 64, 14
1, 214017, Note_off_c, 0, 62, 55
1, 214017, Control_c, 0, 64, 0
1, 214061, Note_off_c, 0, 79, 64
1, 214068, Note_on_c, 0, 78, 71
1, 214115, Note_off_c, 0, 78, 64
1, 214144, Note_on_c, 0, 76, 68
1, 214198, Note_off_c, 0, 76, 59
1, 214205, Note_on_c, 0, 78, 67
1, 214300, Note_off_c, 0, 78, 64
1, 214315, Note_on_c, 0, 76, 55
1, 214499, Control_c, 0, 67, 127
1, 214514, Control_c, 0, 67, 126
1, 214529, Control_c, 0, 67, 123
1, 214544, Control_c, 0, 67, 120
1, 214559, Control_c, 0, 64, 22
1, 214559, Control_c, 0, 67, 115
1, 214574, Control_c, 0, 64, 33
1, 214574, Control_c, 0, 67, 107
1, 214589, Control_c, 0, 64, 43
1, 214589, Control_c, 0, 67, 94
1, 214603, Control_c, 0, 64, 53
1, 214603, Control_c, 0, 67, 81
1, 214618, Control_c, 0, 64, 59
1, 214618, Control_c, 0, 67, 62
1, 214633, Control_c, 0, 64, 63
1, 214633, Control_c, 0, 67, 38
1, 214648, Control_c, 0, 64, 64
1, 214648, Control_c, 0, 67, 13
1, 214662, Control_c, 0, 64, 66
1, 214662, Control_c, 0, 67, 0
1, 214677, Control_c, 0, 64, 68
1, 214692, Control_c, 0, 64, 72
1, 214707, Control_c, 0, 64, 75
1, 214721, Control_c, 0, 64, 77
1, 214736, Control_c, 0, 64, 79
1, 214751, Control_c, 0, 64, 80
1, 214766, Control_c, 0, 64, 81
1, 214781, Control_c, 0, 64, 82
1, 214795, Control_c, 0, 64, 83
1, 214810, Control_c, 0, 64, 85
1, 214813, Note_off_c, 0, 57, 38
1, 214825, Control_c, 0, 64, 86
1, 214848, Note_off_c, 0, 61, 58
1, 214869, Control_c, 0, 64, 87
1, 214885, Control_c, 0, 64, 88
1, 214900, Control_c, 0, 64, 88
1, 214947, Note_off_c, 0, 76, 44
1, 215323, Control_c, 0, 64, 87
1, 215338, Control_c, 0, 64, 83
1, 215352, Control_c, 0, 64, 74
1, 215367, Control_c, 0, 64, 61
1, 215382, Control_c, 0, 64, 45
1, 215397, Control_c, 0, 64, 0
1, 215471, Control_c, 0, 64, 19
1, 215486, Control_c, 0, 64, 40
1, 215498, Note_on_c, 0, 74, 76
1, 215501, Control_c, 0, 64, 57
1, 215516, Control_c, 0, 64, 70
1, 215531, Control_c, 0, 64, 83
1, 215546, Control_c, 0, 64, 85
1, 215560, Control_c, 0, 64, 88
1, 215564, Note_on_c, 0, 78, 85
1, 215575, Control_c, 0, 64, 97
1, 215590, Control_c, 0, 64, 127
1, 215590, Note_off_c, 0, 74, 62
1, 215624, Note_on_c, 0, 81, 85
1, 215662, Note_off_c, 0, 78, 65
1, 215736, Note_on_c, 0, 54, 65
1, 215739, Note_on_c, 0, 50, 66
1, 215742, Note_on_c, 0, 57, 66
1, 215778, Note_on_c, 0, 86, 91
1, 215790, Control_c, 0, 64, 81
1, 215800, Note_off_c, 0, 81, 63
1, 215805, Control_c, 0, 64, 62
1, 215820, Control_c, 0, 64, 38
1, 215835, Control_c, 0, 64, 0
1, 215880, Control_c, 0, 64, 28
1, 215895, Control_c, 0, 64, 47
1, 215909, Control_c, 0, 64, 62
1, 215924, Control_c, 0, 64, 76
1, 215939, Control_c, 0, 64, 84
1, 215954, Control_c, 0, 64, 85
1, 215969, Control_c, 0, 64, 89
1, 215983, Control_c, 0, 64, 98
1, 215998, Control_c, 0, 64, 117
1, 216013, Control_c, 0, 64, 127
1, 216036, Note_off_c, 0, 86, 60
1, 216056, Note_on_c, 0, 88, 67
1, 216101, Control_c, 0, 64, 98
1, 216114, Note_off_c, 0, 88, 66
1, 216116, Note_on_c, 0, 86, 76
1, 216116, Control_c, 0, 64, 76
1, 216131, Control_c, 0, 64, 64
1, 216146, Control_c, 0, 64, 51
1, 216161, Control_c, 0, 64, 16
1, 216175, Control_c, 0, 64, 0
1, 216183, Note_off_c, 0, 86, 64
1, 216184, Note_on_c, 0, 85, 83
1, 216249, Note_on_c, 0, 86, 83
1, 216283, Note_off_c, 0, 85, 62
1, 216398, Control_c, 0, 64, 24
1, 216413, Control_c, 0, 64, 45
1, 216427, Control_c, 0, 64, 60
1, 216442, Control_c, 0, 64, 73
1, 216457, Control_c, 0, 64, 88
1, 216479, Control_c, 0, 64, 94
1, 216494, Control_c, 0, 64, 109
1, 216509, Control_c, 0, 64, 127
1, 216541, Note_off_c, 0, 54, 61
1, 216547, Note_off_c, 0, 57, 53
1, 216749, Note_on_c, 0, 88, 86
1, 216848, Note_off_c, 0, 86, 36
1, 216895, Note_on_c, 0, 55, 50
1, 216906, Note_on_c, 0, 85, 79
1, 216910, Note_on_c, 0, 61, 48
1, 216910, Control_c, 0, 64, 90
1, 216915, Note_on_c, 0, 57, 54
1, 216920, Note_on_c, 0, 52, 54
1, 216924, Control_c, 0, 64, 71
1, 216939, Control_c, 0, 64, 60
1, 216954, Control_c, 0, 64, 42
1, 216969, Control_c, 0, 64, 0
1, 216984, Note_off_c, 0, 88, 57
1, 217058, Note_off_c, 0, 50, 42
1, 217242, Control_c, 0, 64, 29
1, 217257, Control_c, 0, 64, 44
1, 217272, Control_c, 0, 64, 57
1, 217287, Control_c, 0, 64, 63
1, 217301, Control_c, 0, 64, 68
1, 217316, Control_c, 0, 64, 75
1, 217331, Note_off_c, 0, 85, 58
1, 217331, Control_c, 0, 64, 84
1, 217346, Control_c, 0, 64, 95
1, 217361, Control_c, 0, 64, 122
1, 217375, Control_c, 0, 64, 127
1, 217410, Note_off_c, 0, 61, 63
1, 217620, Note_off_c, 0, 57, 43
1, 217665, Note_off_c, 0, 55, 44
1, 217696, Note_off_c, 0, 52, 35
1, 217880, Control_c, 0, 64, 122
1, 217885, Note_on_c, 0, 57, 74
1, 217895, Control_c, 0, 64, 81
1, 217910, Control_c, 0, 64, 66
1, 217925, Control_c, 0, 64, 56
1, 217940, Control_c, 0, 64, 34
1, 217954, Control_c, 0, 64, 0
1, 218129, Note_off_c, 0, 57, 61
1, 218130, Note_on_c, 0, 59, 69
1, 218205, Note_on_c, 0, 57, 70
1, 218219, Note_off_c, 0, 59, 62
1, 218267, Note_on_c, 0, 56, 81
1, 218267, Note_off_c, 0, 57, 64
1, 218339, Note_on_c, 0, 57, 84
1, 218345, Note_off_c, 0, 56, 64
1, 218541, Control_c, 0, 64, 20
1, 218556, Control_c, 0, 64, 33
1, 218570, Control_c, 0, 64, 44
1, 218585, Control_c, 0, 64, 55
1, 218600, Control_c, 0, 64, 63
1, 218615, Control_c, 0, 64, 69
1, 218629, Control_c, 0, 64, 73
1, 218644, Control_c, 0, 64, 77
1, 218659, Control_c, 0, 64, 82
1, 218674, Control_c, 0, 64, 88
1, 218685, Note_on_c, 0, 59, 86
1, 218689, Control_c, 0, 64, 93
1, 218703, Control_c, 0, 64, 95
1, 218741, Note_off_c, 0, 57, 59
1, 218815, Control_c, 0, 64, 92
1, 218829, Control_c, 0, 64, 88
1, 218844, Control_c, 0, 64, 85
1, 218851, Note_on_c, 0, 62, 80
1, 218859, Control_c, 0, 64, 83
1, 218870, Note_on_c, 0, 55, 59
1, 218874, Control_c, 0, 64, 78
1, 218876, Note_on_c, 0, 52, 59
1, 218889, Control_c, 0, 64, 71
1, 218903, Control_c, 0, 64, 63
1, 218918, Control_c, 0, 64, 56
1, 218923, Note_off_c, 0, 59, 60
1, 218933, Control_c, 0, 64, 46
1, 218948, Control_c, 0, 64, 34
1, 218963, Control_c, 0, 64, 18
1, 218977, Control_c, 0, 64, 0
1, 219402, Note_on_c, 0, 60, 70
1, 219456, Note_off_c, 0, 62, 63
1, 219862, Note_on_c, 0, 51, 63
1, 219865, Note_on_c, 0, 54, 71
1, 219940, Note_off_c, 0, 52, 64
1, 219944, Note_off_c, 0, 55, 54
1, 220157, Control_c, 0, 64, 19
1, 220172, Control_c, 0, 64, 32
1, 220181, Note_off_c, 0, 60, 66
1, 220187, Control_c, 0, 64, 43
1, 220189, Note_on_c, 0, 59, 86
1, 220201, Control_c, 0, 64, 53
1, 220223, Control_c, 0, 64, 61
1, 220238, Control_c, 0, 64, 66
1, 220253, Control_c, 0, 64, 68
1, 220268, Control_c, 0, 64, 69
1, 220282, Control_c, 0, 64, 72
1, 220297, Control_c, 0, 64, 75
1, 220312, Control_c, 0, 64, 79
1, 220327, Control_c, 0, 64, 80
1, 220416, Control_c, 0, 64, 80
1, 220431, Control_c, 0, 64, 75
1, 220446, Control_c, 0, 64, 70
1, 220461, Control_c, 0, 64, 66
1, 220475, Control_c, 0, 64, 62
1, 220490, Control_c, 0, 64, 55
1, 220505, Control_c, 0, 64, 40
1, 220520, Poly_aftertouch_c, 0, 60, 127
1, 220520, Control_c, 0, 64, 0
1, 220541, Note_on_c, 0, 72, 84
1, 220565, Note_off_c, 0, 59, 53
1, 220598, Poly_aftertouch_c, 0, 60, 0
1, 220638, Note_off_c, 0, 51, 63
1, 220639, Control_c, 0, 64, 34
1, 220652, Note_off_c, 0, 54, 66
1, 220654, Control_c, 0, 64, 51
1, 220669, Control_c, 0, 64, 64
1, 220684, Control_c, 0, 64, 75
1, 220698, Control_c, 0, 64, 79
1, 220713, Control_c, 0, 64, 81
1, 220728, Control_c, 0, 64, 87
1, 220743, Control_c, 0, 64, 96
1, 220758, Control_c, 0, 64, 109
1, 220772, Control_c, 0, 64, 127
1, 220890, Control_c, 0, 64, 122
1, 220905, Control_c, 0, 64, 102
1, 220920, Control_c, 0, 64, 95
1, 220935, Control_c, 0, 64, 92
1, 220950, Control_c, 0, 64, 89
1, 220971, Control_c, 0, 64, 83
1, 220986, Control_c, 0, 64, 73
1, 221001, Control_c, 0, 64, 62
1, 221016, Control_c, 0, 64, 49
1, 221030, Note_on_c, 0, 66, 56
1, 221031, Control_c, 0, 64, 16
1, 221034, Note_on_c, 0, 63, 50
1, 221046, Control_c, 0, 64, 0
1, 221223, Control_c, 0, 64, 22
1, 221238, Control_c, 0, 64, 40
1, 221251, Note_on_c, 0, 71, 72
1, 221253, Control_c, 0, 64, 55
1, 221268, Control_c, 0, 64, 65
1, 221283, Control_c, 0, 64, 70
1, 221297, Control_c, 0, 64, 74
1, 221308, Note_off_c, 0, 72, 62
1, 221312, Control_c, 0, 64, 77
1, 221327, Control_c, 0, 64, 82
1, 221341, Control_c, 0, 64, 88
1, 221356, Control_c, 0, 64, 93
1, 221371, Control_c, 0, 64, 94
1, 221446, Control_c, 0, 64, 92
1, 221461, Control_c, 0, 64, 86
1, 221476, Control_c, 0, 64, 79
1, 221491, Control_c, 0, 64, 76
1, 221506, Control_c, 0, 64, 71
1, 221520, Control_c, 0, 64, 65
1, 221535, Control_c, 0, 64, 57
1, 221539, Note_on_c, 0, 70, 72
1, 221550, Control_c, 0, 64, 38
1, 221565, Control_c, 0, 64, 0
1, 221584, Note_off_c, 0, 71, 64
1, 221698, Control_c, 0, 64, 25
1, 221720, Control_c, 0, 64, 43
1, 221735, Control_c, 0, 64, 58
1, 221750, Control_c, 0, 64, 67
1, 221765, Control_c, 0, 64, 72
1, 221776, Note_on_c, 0, 69, 76
1, 221779, Control_c, 0, 64, 73
1, 221794, Control_c, 0, 64, 74
1, 221809, Control_c, 0, 64, 77
1, 221812, Note_off_c, 0, 70, 63
1, 221824, Control_c, 0, 64, 83
1, 221839, Control_c, 0, 64, 87
1, 221853, Control_c, 0, 64, 89
1, 221868, Control_c, 0, 64, 90
1, 221943, Control_c, 0, 64, 88
1, 221958, Control_c, 0, 64, 77
1, 221972, Control_c, 0, 64, 68
1, 221985, Note_on_c, 0, 64, 59
1, 221987, Control_c, 0, 64, 61
1, 222002, Control_c, 0, 64, 49
1, 222017, Control_c, 0, 64, 22
1, 222032, Control_c, 0, 64, 0
1, 222039, Note_off_c, 0, 66, 53
1, 222083, Note_off_c, 0, 63, 61
1, 222179, Control_c, 0, 64, 18
1, 222196, Control_c, 0, 64, 36
1, 222210, Control_c, 0, 64, 50
1, 222225, Control_c, 0, 64, 61
1, 222240, Control_c, 0, 64, 68
1, 222255, Control_c, 0, 64, 69
1, 222269, Control_c, 0, 64, 70
1, 222271, Note_on_c, 0, 67, 71
1, 222284, Control_c, 0, 64, 70
1, 222299, Control_c, 0, 64, 72
1, 222314, Control_c, 0, 64, 73
1, 222333, Note_off_c, 0, 69, 58
1, 222358, Control_c, 0, 64, 71
1, 222373, Control_c, 0, 64, 67
1, 222387, Control_c, 0, 64, 61
1, 222402, Control_c, 0, 64, 51
1, 222417, Control_c, 0, 64, 25
1, 222432, Control_c, 0, 64, 0
1, 222514, Note_on_c, 0, 61, 62
1, 222587, Note_off_c, 0, 64, 56
1, 222602, Control_c, 0, 64, 23
1, 222617, Control_c, 0, 64, 43
1, 222632, Control_c, 0, 64, 62
1, 222647, Control_c, 0, 64, 79
1, 222662, Control_c, 0, 64, 86
1, 222676, Control_c, 0, 64, 87
1, 222691, Control_c, 0, 64, 91
1, 222706, Control_c, 0, 64, 99
1, 222721, Control_c, 0, 64, 115
1, 222736, Control_c, 0, 64, 127
1, 222754, Note_on_c, 0, 71, 69
1, 222795, Note_off_c, 0, 67, 63
1, 222837, Note_on_c, 0, 69, 83
1, 222881, Note_off_c, 0, 71, 65
1, 222899, Control_c, 0, 64, 108
1, 222914, Control_c, 0, 64, 98
1, 222929, Control_c, 0, 64, 93
1, 222943, Control_c, 0, 64, 83
1, 222958, Control_c, 0, 64, 69
1, 222967, Note_on_c, 0, 67, 73
1, 222973, Control_c, 0, 64, 56
1, 222977, Note_on_c, 0, 62, 60
1, 222989, Control_c, 0, 64, 24
1, 223001, Note_off_c, 0, 69, 63
1, 223004, Control_c, 0, 64, 0
1, 223037, Note_off_c, 0, 61, 65
1, 223165, Control_c, 0, 64, 13
1, 223180, Control_c, 0, 64, 34
1, 223195, Control_c, 0, 64, 53
1, 223196, Note_off_c, 0, 62, 63
1, 223217, Control_c, 0, 64, 66
1, 223232, Control_c, 0, 64, 79
1, 223247, Control_c, 0, 64, 83
1, 223262, Control_c, 0, 64, 85
1, 223277, Control_c, 0, 64, 90
1, 223291, Control_c, 0, 64, 103
1, 223301, Note_on_c, 0, 66, 72
1, 223306, Control_c, 0, 64, 127
1, 223325, Note_off_c, 0, 67, 56
1, 223389, Note_off_c, 0, 66, 64
1, 223496, Note_on_c, 0, 54, 72
1, 223497, Note_on_c, 0, 42, 68
1, 223529, Control_c, 0, 64, 91
1, 223544, Control_c, 0, 64, 70
1, 223558, Control_c, 0, 64, 57
1, 223573, Control_c, 0, 64, 23
1, 223588, Control_c, 0, 64, 0
1, 223662, Control_c, 0, 64, 28
1, 223677, Control_c, 0, 64, 51
1, 223691, Control_c, 0, 64, 67
1, 223706, Control_c, 0, 64, 91
1, 223721, Control_c, 0, 64, 98
1, 223735, Control_c, 0, 64, 102
1, 223740, Note_on_c, 0, 81, 84
1, 223750, Note_on_c, 0, 69, 68
1, 223750, Control_c, 0, 64, 119
1, 223765, Control_c, 0, 64, 127
1, 223850, Note_off_c, 0, 42, 60
1, 223866, Note_off_c, 0, 54, 63
1, 223914, Control_c, 0, 64, 100
1, 223929, Control_c, 0, 64, 80
1, 223944, Control_c, 0, 64, 66
1, 223952, Note_on_c, 0, 55, 84
1, 223953, Note_on_c, 0, 43, 78
1, 223967, Control_c, 0, 64, 47
1, 223982, Control_c, 0, 64, 0
1, 224085, Control_c, 0, 64, 29
1, 224089, Note_off_c, 0, 69, 64
1, 224100, Control_c, 0, 64, 48
1, 224114, Control_c, 0, 64, 62
1, 224129, Control_c, 0, 64, 75
1, 224144, Control_c, 0, 64, 79
1, 224159, Control_c, 0, 64, 80
1, 224173, Control_c, 0, 64, 84
1, 224188, Control_c, 0, 64, 92
1, 224203, Control_c, 0, 64, 102
1, 224218, Note_on_c, 0, 82, 87
1, 224218, Control_c, 0, 64, 106
1, 224238, Note_on_c, 0, 70, 66
1, 224256, Note_off_c, 0, 81, 64
1, 224262, Control_c, 0, 64, 107
1, 224277, Control_c, 0, 64, 108
1, 224307, Note_off_c, 0, 55, 63
1, 224366, Control_c, 0, 64, 105
1, 224381, Control_c, 0, 64, 93
1, 224396, Control_c, 0, 64, 81
1, 224411, Control_c, 0, 64, 76
1, 224426, Control_c, 0, 64, 73
1, 224440, Control_c, 0, 64, 66
1, 224455, Control_c, 0, 64, 57
1, 224470, Control_c, 0, 64, 33
1, 224482, Note_on_c, 0, 44, 67
1, 224485, Control_c, 0, 64, 0
1, 224491, Note_on_c, 0, 56, 64
1, 224532, Note_off_c, 0, 43, 61
1, 224604, Control_c, 0, 64, 14
1, 224619, Control_c, 0, 64, 33
1, 224634, Control_c, 0, 64, 52
1, 224649, Control_c, 0, 64, 65
1, 224663, Control_c, 0, 64, 73
1, 224673, Note_off_c, 0, 70, 55
1, 224678, Control_c, 0, 64, 74
1, 224730, Control_c, 0, 67, 8
1, 224745, Control_c, 0, 64, 69
1, 224745, Control_c, 0, 67, 10
1, 224760, Control_c, 0, 64, 61
1, 224760, Control_c, 0, 67, 14
1, 224775, Control_c, 0, 64, 42
1, 224775, Control_c, 0, 67, 20
1, 224789, Control_c, 0, 64, 0
1, 224789, Control_c, 0, 67, 28
1, 224798, Note_on_c, 0, 83, 73
1, 224804, Control_c, 0, 67, 35
1, 224816, Note_on_c, 0, 71, 53
1, 224819, Control_c, 0, 67, 44
1, 224834, Control_c, 0, 67, 53
1, 224849, Control_c, 0, 67, 61
1, 224850, Note_off_c, 0, 82, 60
1, 224863, Control_c, 0, 67, 69
1, 224867, Note_off_c, 0, 44, 61
1, 224878, Control_c, 0, 64, 25
1, 224878, Control_c, 0, 67, 79
1, 224893, Control_c, 0, 64, 46
1, 224893, Control_c, 0, 67, 89
1, 224908, Control_c, 0, 64, 63
1, 224908, Control_c, 0, 67, 100
1, 224923, Control_c, 0, 64, 87
1, 224923, Control_c, 0, 67, 112
1, 224936, Note_off_c, 0, 56, 65
1, 224937, Control_c, 0, 64, 91
1, 224937, Control_c, 0, 67, 122
1, 224952, Control_c, 0, 67, 127
1, 224979, Note_off_c, 0, 71, 37
1, 224982, Control_c, 0, 64, 91
1, 224996, Control_c, 0, 64, 92
1, 225011, Control_c, 0, 64, 92
1, 225026, Control_c, 0, 64, 93
1, 225041, Control_c, 0, 64, 94
1, 225056, Control_c, 0, 64, 96
1, 225070, Control_c, 0, 64, 96
1, 225174, Control_c, 0, 64, 96
1, 225219, Control_c, 0, 64, 95
1, 225234, Control_c, 0, 64, 88
1, 225245, Note_on_c, 0, 78, 68
1, 225249, Control_c, 0, 64, 76
1, 225251, Note_on_c, 0, 74, 36
1, 225256, Note_on_c, 0, 57, 34
1, 225263, Note_on_c, 0, 66, 50
1, 225263, Control_c, 0, 64, 68
1, 225278, Control_c, 0, 64, 63
1, 225293, Control_c, 0, 64, 59
1, 225307, Control_c, 0, 64, 48
1, 225322, Control_c, 0, 64, 24
1, 225337, Control_c, 0, 64, 0
1, 225341, Note_off_c, 0, 83, 59
1, 225880, Control_c, 0, 64, 31
1, 225894, Control_c, 0, 64, 45
1, 225909, Control_c, 0, 64, 57
1, 225924, Control_c, 0, 64, 64
1, 225938, Control_c, 0, 64, 66
1, 225953, Control_c, 0, 64, 66
1, 225983, Control_c, 0, 64, 68
1, 225998, Control_c, 0, 64, 69
1, 226027, Control_c, 0, 64, 66
1, 226042, Control_c, 0, 64, 59
1, 226057, Control_c, 0, 64, 39
1, 226072, Control_c, 0, 64, 0
1, 226086, Note_off_c, 0, 66, 61
1, 226109, Note_on_c, 0, 68, 55
1, 226229, Control_c, 0, 64, 27
1, 226243, Control_c, 0, 64, 41
1, 226258, Control_c, 0, 64, 54
1, 226273, Control_c, 0, 64, 61
1, 226286, Note_off_c, 0, 68, 59
1, 226288, Control_c, 0, 64, 64
1, 226332, Control_c, 0, 64, 64
1, 226347, Control_c, 0, 64, 65
1, 226406, Control_c, 0, 64, 64
1, 226421, Control_c, 0, 64, 63
1, 226435, Control_c, 0, 64, 61
1, 226442, Note_on_c, 0, 76, 45
1, 226447, Note_on_c, 0, 69, 46
1, 226450, Control_c, 0, 64, 55
1, 226456, Note_on_c, 0, 73, 34
1, 226465, Control_c, 0, 64, 43
1, 226480, Control_c, 0, 64, 18
1, 226481, Note_off_c, 0, 76, 0
1, 226481, Note_on_c, 0, 76, 14
1, 226495, Control_c, 0, 64, 0
1, 226497, Note_off_c, 0, 74, 48
1, 226559, Note_off_c, 0, 78, 63
1, 226976, Control_c, 0, 64, 17
1, 226992, Control_c, 0, 64, 32
1, 227007, Control_c, 0, 64, 45
1, 227022, Control_c, 0, 64, 58
1, 227037, Control_c, 0, 64, 64
1, 227052, Control_c, 0, 64, 67
1, 227066, Control_c, 0, 64, 69
1, 227081, Control_c, 0, 64, 71
1, 227096, Control_c, 0, 64, 74
1, 227111, Control_c, 0, 64, 78
1, 227126, Control_c, 0, 64, 82
1, 227140, Control_c, 0, 64, 83
1, 227155, Control_c, 0, 64, 84
1, 227184, Control_c, 0, 64, 85
1, 227199, Control_c, 0, 64, 85
1, 227214, Control_c, 0, 64, 86
1, 227256, Note_off_c, 0, 69, 57
1, 227273, Control_c, 0, 64, 86
1, 227359, Note_off_c, 0, 57, 37
1, 227511, Control_c, 0, 64, 86
1, 227525, Note_off_c, 0, 76, 46
1, 227529, Note_off_c, 0, 73, 41
1, 227672, Control_c, 0, 64, 85
1, 227739, Control_c, 0, 64, 85
1, 227754, Control_c, 0, 64, 84
1, 227769, Control_c, 0, 64, 83
1, 227800, Control_c, 0, 64, 83
1, 227814, Control_c, 0, 64, 82
1, 227829, Control_c, 0, 64, 81
1, 227844, Control_c, 0, 64, 78
1, 227859, Control_c, 0, 64, 74
1, 227874, Control_c, 0, 64, 71
1, 227888, Control_c, 0, 64, 68
1, 227903, Control_c, 0, 64, 65
1, 227918, Control_c, 0, 64, 61
1, 227933, Control_c, 0, 64, 53
1, 227948, Control_c, 0, 64, 42
1, 227962, Control_c, 0, 64, 30
1, 227977, Control_c, 0, 64, 14
1, 227992, Control_c, 0, 64, 0
1, 228125, Control_c, 0, 67, 120
1, 228140, Control_c, 0, 64, 21
1, 228140, Control_c, 0, 67, 91
1, 228155, Control_c, 0, 64, 32
1, 228155, Control_c, 0, 67, 56
1, 228170, Control_c, 0, 64, 42
1, 228170, Control_c, 0, 67, 20
1, 228185, Control_c, 0, 64, 51
1, 228185, Control_c, 0, 67, 0
1, 228200, Control_c, 0, 64, 59
1, 228214, Control_c, 0, 64, 63
1, 228229, Control_c, 0, 64, 65
1, 228244, Control_c, 0, 64, 66
1, 228250, Note_on_c, 0, 47, 63
1, 228259, Control_c, 0, 64, 67
1, 228274, Control_c, 0, 64, 70
1, 228288, Control_c, 0, 64, 72
1, 228303, Control_c, 0, 64, 74
1, 228318, Control_c, 0, 64, 74
1, 228340, Note_on_c, 0, 51, 75
1, 228347, Control_c, 0, 64, 75
1, 228384, Note_off_c, 0, 47, 61
1, 228407, Control_c, 0, 64, 74
1, 228426, Note_on_c, 0, 54, 82
1, 228437, Control_c, 0, 64, 73
1, 228459, Control_c, 0, 64, 70
1, 228474, Note_off_c, 0, 51, 62
1, 228474, Control_c, 0, 64, 66
1, 228489, Control_c, 0, 64, 60
1, 228504, Control_c, 0, 64, 51
1, 228519, Control_c, 0, 64, 40
1, 228533, Control_c, 0, 64, 31
1, 228548, Control_c, 0, 64, 22
1, 228563, Note_on_c, 0, 59, 77
1, 228563, Control_c, 0, 64, 0
1, 228629, Note_off_c, 0, 54, 58
1, 228890, Control_c, 0, 64, 24
1, 228904, Control_c, 0, 64, 39
1, 228919, Control_c, 0, 64, 51
1, 228934, Control_c, 0, 64, 61
1, 228949, Control_c, 0, 64, 64
1, 228963, Control_c, 0, 64, 66
1, 228978, Control_c, 0, 64, 67
1, 228993, Control_c, 0, 64, 71
1, 229008, Control_c, 0, 64, 76
1, 229023, Control_c, 0, 64, 80
1, 229037, Control_c, 0, 64, 81
1, 229097, Control_c, 0, 64, 82
1, 229129, Note_off_c, 0, 59, 61
1, 229341, Note_on_c, 0, 59, 56
1, 229431, Control_c, 0, 64, 82
1, 229446, Control_c, 0, 64, 83
1, 229461, Note_off_c, 0, 59, 58
1, 229476, Control_c, 0, 64, 83
1, 229505, Control_c, 0, 64, 84
1, 229581, Note_on_c, 0, 59, 43
1, 229594, Control_c, 0, 64, 78
1, 229609, Control_c, 0, 64, 66
1, 229624, Control_c, 0, 64, 56
1, 229639, Control_c, 0, 64, 32
1, 229653, Control_c, 0, 64, 0
1, 229727, Control_c, 0, 64, 22
1, 229742, Control_c, 0, 64, 40
1, 229757, Control_c, 0, 64, 56
1, 229772, Control_c, 0, 64, 67
1, 229786, Control_c, 0, 64, 76
1, 229801, Control_c, 0, 64, 77
1, 229816, Control_c, 0, 64, 79
1, 229831, Control_c, 0, 64, 85
1, 229846, Control_c, 0, 64, 93
1, 229860, Control_c, 0, 64, 99
1, 229875, Control_c, 0, 64, 104
1, 229890, Control_c, 0, 64, 108
1, 229905, Control_c, 0, 64, 110
1, 229920, Control_c, 0, 64, 117
1, 229935, Control_c, 0, 64, 127
1, 230038, Note_off_c, 0, 59, 39
1, 230062, Note_on_c, 0, 84, 58
1, 230274, Note_on_c, 0, 81, 74
1, 230311, Note_off_c, 0, 84, 61
1, 230370, Note_off_c, 0, 81, 60
1, 230476, Control_c, 0, 64, 98
1, 230491, Control_c, 0, 64, 78
1, 230491, Control_c, 0, 67, 8
1, 230503, Note_on_c, 0, 83, 57
1, 230506, Control_c, 0, 64, 66
1, 230506, Control_c, 0, 67, 9
1, 230521, Control_c, 0, 64, 58
1, 230521, Control_c, 0, 67, 11
1, 230535, Control_c, 0, 64, 41
1, 230535, Control_c, 0, 67, 11
1, 230550, Control_c, 0, 64, 0
1, 230550, Control_c, 0, 67, 12
1, 230565, Control_c, 0, 67, 12
1, 230580, Control_c, 0, 67, 13
1, 230595, Control_c, 0, 67, 14
1, 230609, Control_c, 0, 67, 15
1, 230624, Control_c, 0, 67, 16
1, 230639, Control_c, 0, 64, 12
1, 230639, Control_c, 0, 67, 19
1, 230654, Control_c, 0, 64, 36
1, 230654, Control_c, 0, 67, 23
1, 230669, Control_c, 0, 64, 51
1, 230669, Control_c, 0, 67, 28
1, 230683, Control_c, 0, 64, 63
1, 230683, Control_c, 0, 67, 30
1, 230706, Control_c, 0, 64, 71
1, 230706, Control_c, 0, 67, 32
1, 230716, Note_on_c, 0, 79, 62
1, 230721, Control_c, 0, 64, 74
1, 230721, Control_c, 0, 67, 35
1, 230725, Note_off_c, 0, 83, 61
1, 230735, Control_c, 0, 64, 76
1, 230735, Control_c, 0, 67, 38
1, 230750, Control_c, 0, 64, 81
1, 230750, Control_c, 0, 67, 42
1, 230765, Control_c, 0, 64, 86
1, 230765, Control_c, 0, 67, 47
1, 230780, Control_c, 0, 64, 93
1, 230780, Control_c, 0, 67, 50
1, 230795, Control_c, 0, 64, 98
1, 230795, Control_c, 0, 67, 53
1, 230809, Control_c, 0, 64, 101
1, 230809, Control_c, 0, 67, 54
1, 230824, Control_c, 0, 64, 101
1, 230824, Control_c, 0, 67, 55
1, 230839, Control_c, 0, 67, 56
1, 230854, Control_c, 0, 64, 102
1, 230854, Control_c, 0, 67, 57
1, 230869, Control_c, 0, 67, 57
1, 230883, Control_c, 0, 67, 58
1, 230898, Control_c, 0, 64, 99
1, 230900, Note_off_c, 0, 79, 36
1, 230913, Control_c, 0, 64, 90
1, 230927, Control_c, 0, 64, 83
1, 230929, Note_on_c, 0, 81, 65
1, 230942, Control_c, 0, 64, 74
1, 230942, Control_c, 0, 67, 59
1, 230957, Control_c, 0, 64, 64
1, 230957, Control_c, 0, 67, 61
1, 230972, Control_c, 0, 64, 53
1, 230972, Control_c, 0, 67, 66
1, 230988, Control_c, 0, 64, 27
1, 230988, Control_c, 0, 67, 71
1, 231003, Control_c, 0, 64, 0
1, 231003, Control_c, 0, 67, 76
1, 231018, Control_c, 0, 67, 81
1, 231032, Control_c, 0, 67, 86
1, 231047, Control_c, 0, 64, 17
1, 231047, Control_c, 0, 67, 90
1, 231062, Control_c, 0, 64, 33
1, 231062, Control_c, 0, 67, 94
1, 231077, Control_c, 0, 64, 45
1, 231077, Control_c, 0, 67, 98
1, 231092, Control_c, 0, 64, 58
1, 231092, Control_c, 0, 67, 103
1, 231106, Control_c, 0, 64, 67
1, 231106, Control_c, 0, 67, 107
1, 231113, Note_on_c, 0, 63, 64
1, 231121, Control_c, 0, 64, 74
1, 231121, Control_c, 0, 67, 110
1, 231131, Note_on_c, 0, 78, 65
1, 231136, Control_c, 0, 64, 75
1, 231136, Control_c, 0, 67, 113
1, 231151, Control_c, 0, 64, 76
1, 231151, Control_c, 0, 67, 116
1, 231154, Note_off_c, 0, 81, 58
1, 231166, Control_c, 0, 64, 78
1, 231166, Control_c, 0, 67, 119
1, 231181, Control_c, 0, 64, 80
1, 231181, Control_c, 0, 67, 122
1, 231195, Control_c, 0, 64, 82
1, 231195, Control_c, 0, 67, 125
1, 231210, Control_c, 0, 67, 126
1, 231225, Control_c, 0, 67, 127
1, 231270, Control_c, 0, 64, 81
1, 231273, Note_off_c, 0, 78, 38
1, 231285, Control_c, 0, 64, 78
1, 231299, Control_c, 0, 64, 71
1, 231314, Control_c, 0, 64, 65
1, 231329, Control_c, 0, 64, 61
1, 231344, Control_c, 0, 64, 57
1, 231357, Control_c, 0, 64, 51
1, 231359, Note_on_c, 0, 64, 63
1, 231372, Control_c, 0, 64, 41
1, 231387, Control_c, 0, 64, 22
1, 231398, Note_on_c, 0, 79, 56
1, 231402, Control_c, 0, 64, 0
1, 231413, Note_off_c, 0, 63, 62
1, 231499, Control_c, 0, 67, 127
1, 231543, Control_c, 0, 67, 126
1, 231562, Note_on_c, 0, 67, 70
1, 231568, Note_off_c, 0, 64, 63
1, 231587, Control_c, 0, 67, 126
1, 231602, Control_c, 0, 67, 125
1, 231604, Note_off_c, 0, 67, 64
1, 231631, Control_c, 0, 67, 125
1, 231661, Control_c, 0, 67, 124
1, 231675, Control_c, 0, 67, 123
1, 231690, Control_c, 0, 67, 122
1, 231705, Control_c, 0, 67, 121
1, 231720, Control_c, 0, 67, 120
1, 231735, Control_c, 0, 67, 120
1, 231750, Control_c, 0, 67, 118
1, 231765, Control_c, 0, 67, 116
1, 231767, Note_on_c, 0, 66, 62
1, 231780, Control_c, 0, 67, 110
1, 231795, Control_c, 0, 67, 99
1, 231810, Control_c, 0, 67, 84
1, 231825, Control_c, 0, 67, 59
1, 231840, Control_c, 0, 67, 32
1, 231854, Control_c, 0, 67, 0
1, 231963, Note_on_c, 0, 69, 66
1, 231978, Note_off_c, 0, 66, 63
1, 232006, Note_off_c, 0, 69, 62
1, 232218, Control_c, 0, 67, 11
1, 232233, Control_c, 0, 67, 19
1, 232248, Control_c, 0, 67, 28
1, 232260, Note_on_c, 0, 67, 47
1, 232263, Control_c, 0, 67, 38
1, 232278, Control_c, 0, 67, 48
1, 232292, Control_c, 0, 67, 60
1, 232307, Control_c, 0, 64, 11
1, 232307, Control_c, 0, 67, 75
1, 232310, Note_off_c, 0, 79, 63
1, 232322, Control_c, 0, 64, 28
1, 232322, Control_c, 0, 67, 89
1, 232337, Control_c, 0, 64, 41
1, 232337, Control_c, 0, 67, 103
1, 232352, Control_c, 0, 64, 52
1, 232352, Control_c, 0, 67, 112
1, 232367, Control_c, 0, 64, 61
1, 232367, Control_c, 0, 67, 120
1, 232381, Control_c, 0, 64, 65
1, 232381, Control_c, 0, 67, 127
1, 232396, Control_c, 0, 64, 66
1, 232411, Control_c, 0, 64, 68
1, 232426, Control_c, 0, 64, 71
1, 232441, Control_c, 0, 64, 74
1, 232455, Control_c, 0, 64, 77
1, 232462, Note_off_c, 0, 67, 60
1, 232470, Control_c, 0, 64, 78
1, 232575, Control_c, 0, 64, 77
1, 232634, Control_c, 0, 64, 77
1, 232649, Control_c, 0, 64, 76
1, 232664, Control_c, 0, 64, 74
1, 232678, Control_c, 0, 64, 73
1, 232693, Control_c, 0, 64, 72
1, 232708, Control_c, 0, 64, 70
1, 232722, Control_c, 0, 64, 67
1, 232737, Control_c, 0, 64, 62
1, 232747, Note_on_c, 0, 84, 52
1, 232752, Control_c, 0, 64, 54
1, 232767, Control_c, 0, 64, 39
1, 232782, Control_c, 0, 64, 15
1, 232796, Control_c, 0, 64, 0
1, 232896, Note_on_c, 0, 83, 59
1, 232915, Control_c, 0, 64, 19
1, 232929, Note_off_c, 0, 84, 62
1, 232930, Control_c, 0, 64, 30
1, 232952, Control_c, 0, 64, 41
1, 232967, Control_c, 0, 64, 51
1, 232982, Control_c, 0, 64, 60
1, 232997, Control_c, 0, 64, 64
1, 233011, Control_c, 0, 64, 66
1, 233026, Control_c, 0, 64, 67
1, 233031, Note_on_c, 0, 79, 65
1, 233041, Control_c, 0, 64, 70
1, 233056, Control_c, 0, 64, 73
1, 233059, Note_off_c, 0, 83, 64
1, 233071, Control_c, 0, 64, 77
1, 233085, Control_c, 0, 64, 79
1, 233100, Control_c, 0, 64, 79
1, 233175, Control_c, 0, 64, 78
1, 233190, Control_c, 0, 64, 73
1, 233199, Note_on_c, 0, 83, 62
1, 233204, Control_c, 0, 64, 65
1, 233219, Control_c, 0, 64, 57
1, 233231, Note_off_c, 0, 79, 61
1, 233234, Control_c, 0, 64, 36
1, 233249, Control_c, 0, 64, 0
1, 233308, Control_c, 0, 64, 25
1, 233322, Control_c, 0, 64, 41
1, 233328, Note_on_c, 0, 81, 72
1, 233337, Control_c, 0, 64, 55
1, 233352, Control_c, 0, 64, 65
1, 233362, Note_off_c, 0, 83, 66
1, 233368, Control_c, 0, 64, 73
1, 233383, Control_c, 0, 64, 75
1, 233398, Control_c, 0, 64, 75
1, 233413, Control_c, 0, 64, 77
1, 233427, Control_c, 0, 64, 83
1, 233442, Control_c, 0, 64, 88
1, 233452, Note_on_c, 0, 78, 79
1, 233457, Control_c, 0, 64, 91
1, 233470, Note_off_c, 0, 81, 61
1, 233472, Control_c, 0, 64, 91
1, 233501, Control_c, 0, 64, 92
1, 233516, Control_c, 0, 64, 95
1, 233531, Control_c, 0, 64, 98
1, 233545, Control_c, 0, 64, 99
1, 233606, Note_on_c, 0, 81, 65
1, 233619, Control_c, 0, 64, 92
1, 233634, Control_c, 0, 64, 75
1, 233636, Note_off_c, 0, 78, 62
1, 233649, Control_c, 0, 64, 62
1, 233664, Control_c, 0, 64, 47
1, 233679, Control_c, 0, 64, 15
1, 233701, Control_c, 0, 64, 0
1, 233716, Control_c, 0, 64, 14
1, 233731, Control_c, 0, 64, 32
1, 233746, Control_c, 0, 64, 45
1, 233756, Note_on_c, 0, 79, 70
1, 233760, Control_c, 0, 64, 57
1, 233775, Control_c, 0, 64, 67
1, 233778, Note_on_c, 0, 61, 57
1, 233790, Control_c, 0, 64, 78
1, 233796, Note_off_c, 0, 81, 62
1, 233805, Control_c, 0, 64, 81
1, 233820, Control_c, 0, 64, 83
1, 233834, Control_c, 0, 64, 87
1, 233849, Control_c, 0, 64, 94
1, 233864, Control_c, 0, 64, 102
1, 233866, Note_on_c, 0, 76, 70
1, 233878, Control_c, 0, 64, 106
1, 233884, Note_off_c, 0, 61, 62
1, 233893, Control_c, 0, 64, 107
1, 233908, Control_c, 0, 64, 109
1, 233913, Note_off_c, 0, 79, 57
1, 233923, Control_c, 0, 64, 127
1, 233986, Note_off_c, 0, 76, 50
1, 234012, Control_c, 0, 64, 117
1, 234027, Control_c, 0, 64, 97
1, 234028, Note_on_c, 0, 61, 52
1, 234038, Note_on_c, 0, 78, 70
1, 234042, Control_c, 0, 64, 80
1, 234057, Control_c, 0, 64, 67
1, 234071, Control_c, 0, 64, 57
1, 234086, Control_c, 0, 64, 42
1, 234101, Control_c, 0, 64, 13
1, 234116, Control_c, 0, 64, 0
1, 234179, Note_on_c, 0, 62, 62
1, 234179, Note_off_c, 0, 61, 62
1, 234316, Note_on_c, 0, 66, 70
1, 234325, Note_off_c, 0, 62, 62
1, 234427, Control_c, 0, 67, 127
1, 234430, Note_on_c, 0, 63, 68
1, 234448, Control_c, 0, 67, 108
1, 234463, Control_c, 0, 67, 82
1, 234466, Note_off_c, 0, 66, 62
1, 234478, Control_c, 0, 67, 54
1, 234493, Control_c, 0, 67, 25
1, 234507, Control_c, 0, 67, 0
1, 234570, Note_on_c, 0, 64, 72
1, 234588, Note_off_c, 0, 63, 67
1, 234595, Note_off_c, 0, 78, 62
1, 234695, Note_on_c, 0, 67, 71
1, 234716, Note_off_c, 0, 64, 61
1, 234888, Note_on_c, 0, 66, 64
1, 234937, Note_off_c, 0, 67, 63
1, 235029, Note_on_c, 0, 86, 69
1, 235086, Control_c, 0, 64, 20
1, 235102, Control_c, 0, 64, 32
1, 235116, Control_c, 0, 64, 42
1, 235131, Control_c, 0, 64, 52
1, 235146, Control_c, 0, 64, 61
1, 235150, Note_on_c, 0, 85, 77
1, 235161, Control_c, 0, 64, 65
1, 235176, Control_c, 0, 64, 67
1, 235187, Note_off_c, 0, 86, 62
1, 235198, Control_c, 0, 64, 69
1, 235213, Control_c, 0, 64, 71
1, 235228, Control_c, 0, 64, 75
1, 235243, Control_c, 0, 64, 78
1, 235258, Control_c, 0, 64, 78
1, 235268, Note_off_c, 0, 66, 61
1, 235304, Note_on_c, 0, 84, 75
1, 235317, Control_c, 0, 64, 76
1, 235326, Note_off_c, 0, 85, 63
1, 235331, Control_c, 0, 64, 71
1, 235346, Control_c, 0, 64, 63
1, 235361, Control_c, 0, 64, 52
1, 235376, Control_c, 0, 64, 30
1, 235391, Control_c, 0, 64, 0
1, 235428, Note_on_c, 0, 83, 72
1, 235428, Note_off_c, 0, 84, 64
1, 235435, Control_c, 0, 64, 28
1, 235450, Control_c, 0, 64, 38
1, 235465, Control_c, 0, 64, 47
1, 235479, Control_c, 0, 64, 54
1, 235494, Control_c, 0, 64, 57
1, 235524, Control_c, 0, 64, 55
1, 235539, Control_c, 0, 64, 49
1, 235553, Note_on_c, 0, 82, 70
1, 235554, Control_c, 0, 64, 44
1, 235568, Control_c, 0, 64, 42
1, 235589, Note_off_c, 0, 83, 65
1, 235598, Control_c, 0, 64, 41
1, 235613, Control_c, 0, 64, 38
1, 235628, Control_c, 0, 64, 30
1, 235643, Control_c, 0, 64, 18
1, 235658, Control_c, 0, 64, 0
1, 235698, Note_on_c, 0, 81, 75
1, 235732, Note_off_c, 0, 82, 58
1, 235829, Note_off_c, 0, 81, 61
1, 235830, Note_on_c, 0, 80, 70
1, 235836, Control_c, 0, 64, 14
1, 235851, Control_c, 0, 64, 24
1, 235866, Control_c, 0, 64, 29
1, 235881, Control_c, 0, 64, 34
1, 235895, Control_c, 0, 64, 39
1, 235910, Control_c, 0, 64, 46
1, 235925, Control_c, 0, 64, 52
1, 235947, Control_c, 0, 64, 55
1, 235962, Control_c, 0, 64, 58
1, 235968, Note_off_c, 0, 80, 62
1, 235969, Note_on_c, 0, 79, 71
1, 235977, Control_c, 0, 64, 60
1, 235992, Control_c, 0, 64, 63
1, 236007, Control_c, 0, 64, 64
1, 236021, Control_c, 0, 64, 65
1, 236036, Control_c, 0, 64, 66
1, 236066, Control_c, 0, 64, 64
1, 236081, Control_c, 0, 64, 60
1, 236092, Note_off_c, 0, 79, 62
1, 236095, Control_c, 0, 64, 55
1, 236096, Note_on_c, 0, 78, 71
1, 236110, Control_c, 0, 64, 57
1, 236125, Control_c, 0, 64, 65
1, 236140, Control_c, 0, 64, 73
1, 236154, Control_c, 0, 64, 76
1, 236169, Control_c, 0, 64, 77
1, 236184, Control_c, 0, 64, 78
1, 236199, Control_c, 0, 64, 81
1, 236214, Control_c, 0, 64, 83
1, 236228, Control_c, 0, 64, 83
1, 236239, Note_on_c, 0, 77, 68
1, 236243, Control_c, 0, 64, 84
1, 236251, Note_off_c, 0, 78, 63
1, 236258, Control_c, 0, 64, 85
1, 236272, Control_c, 0, 64, 88
1, 236287, Control_c, 0, 64, 89
1, 236317, Control_c, 0, 64, 91
1, 236332, Control_c, 0, 64, 95
1, 236346, Control_c, 0, 64, 100
1, 236361, Control_c, 0, 64, 103
1, 236363, Note_off_c, 0, 77, 62
1, 236370, Note_on_c, 0, 76, 77
1, 236421, Control_c, 0, 64, 105
1, 236436, Control_c, 0, 64, 108
1, 236451, Control_c, 0, 64, 110
1, 236540, Control_c, 0, 64, 109
1, 236554, Control_c, 0, 64, 106
1, 236570, Control_c, 0, 64, 103
1, 236585, Control_c, 0, 64, 101
1, 236600, Control_c, 0, 64, 100
1, 236615, Control_c, 0, 64, 96
1, 236630, Control_c, 0, 64, 90
1, 236644, Control_c, 0, 64, 84
1, 236657, Note_on_c, 0, 66, 39
1, 236659, Control_c, 0, 64, 79
1, 236661, Note_on_c, 0, 74, 62
1, 236674, Control_c, 0, 64, 73
1, 236683, Note_on_c, 0, 57, 34
1, 236695, Control_c, 0, 64, 69
1, 236710, Control_c, 0, 64, 64
1, 236725, Control_c, 0, 64, 57
1, 236740, Control_c, 0, 64, 46
1, 236741, Note_off_c, 0, 76, 59
1, 236755, Control_c, 0, 64, 29
1, 236770, Control_c, 0, 64, 11
1, 236785, Control_c, 0, 64, 0
1, 236859, Control_c, 0, 67, 8
1, 236874, Control_c, 0, 67, 9
1, 236889, Control_c, 0, 67, 9
1, 236903, Control_c, 0, 67, 10
1, 236948, Control_c, 0, 67, 10
1, 236963, Control_c, 0, 67, 11
1, 236977, Control_c, 0, 67, 13
1, 236992, Control_c, 0, 67, 13
1, 237007, Control_c, 0, 67, 14
1, 237037, Control_c, 0, 67, 14
1, 237051, Control_c, 0, 67, 15
1, 237066, Control_c, 0, 67, 16
1, 237081, Control_c, 0, 67, 20
1, 237095, Control_c, 0, 67, 25
1, 237110, Control_c, 0, 67, 29
1, 237125, Control_c, 0, 67, 32
1, 237140, Control_c, 0, 67, 35
1, 237155, Control_c, 0, 67, 37
1, 237169, Control_c, 0, 67, 41
1, 237184, Control_c, 0, 67, 45
1, 237199, Control_c, 0, 67, 50
1, 237214, Control_c, 0, 67, 57
1, 237229, Control_c, 0, 67, 64
1, 237244, Control_c, 0, 67, 72
1, 237259, Control_c, 0, 64, 20
1, 237259, Control_c, 0, 67, 82
1, 237274, Control_c, 0, 64, 31
1, 237274, Control_c, 0, 67, 95
1, 237288, Control_c, 0, 64, 42
1, 237288, Control_c, 0, 67, 109
1, 237303, Control_c, 0, 64, 53
1, 237303, Control_c, 0, 67, 125
1, 237318, Control_c, 0, 64, 62
1, 237318, Control_c, 0, 67, 127
1, 237333, Control_c, 0, 64, 66
1, 237348, Control_c, 0, 64, 67
1, 237363, Control_c, 0, 64, 68
1, 237378, Control_c, 0, 64, 71
1, 237393, Control_c, 0, 64, 74
1, 237408, Control_c, 0, 64, 78
1, 237423, Control_c, 0, 64, 79
1, 237445, Control_c, 0, 64, 80
1, 237460, Control_c, 0, 64, 81
1, 237474, Control_c, 0, 64, 81
1, 237518, Control_c, 0, 64, 82
1, 237548, Control_c, 0, 64, 82
1, 237593, Control_c, 0, 64, 83
1, 237682, Control_c, 0, 64, 83
1, 237874, Control_c, 0, 64, 83
1, 237904, Control_c, 0, 64, 82
1, 237907, Note_on_c, 0, 73, 52
1, 237915, Note_on_c, 0, 64, 31
1, 237918, Control_c, 0, 64, 81
1, 237933, Control_c, 0, 64, 78
1, 237948, Control_c, 0, 64, 73
1, 237963, Note_off_c, 0, 64, 0
1, 237963, Note_on_c, 0, 64, 5
1, 237963, Control_c, 0, 64, 66
1, 237978, Control_c, 0, 64, 60
1, 237980, Note_off_c, 0, 74, 53
1, 237992, Control_c, 0, 64, 50
1, 238001, Note_off_c, 0, 66, 60
1, 238007, Control_c, 0, 64, 32
1, 238022, Control_c, 0, 64, 0
1, 238110, Control_c, 0, 64, 8
1, 238125, Control_c, 0, 64, 29
1, 238140, Control_c, 0, 64, 42
1, 238155, Control_c, 0, 64, 54
1, 238171, Control_c, 0, 64, 61
1, 238193, Control_c, 0, 64, 64
1, 238208, Control_c, 0, 64, 65
1, 238222, Control_c, 0, 64, 67
1, 238237, Control_c, 0, 64, 69
1, 238252, Control_c, 0, 64, 73
1, 238267, Control_c, 0, 64, 75
1, 238282, Control_c, 0, 64, 77
1, 238296, Control_c, 0, 64, 78
1, 238311, Control_c, 0, 64, 78
1, 238326, Control_c, 0, 64, 79
1, 238341, Control_c, 0, 64, 80
1, 238356, Control_c, 0, 64, 81
1, 238371, Control_c, 0, 64, 81
1, 238489, Control_c, 0, 64, 81
1, 238490, Note_on_c, 0, 71, 57
1, 238504, Control_c, 0, 64, 80
1, 238506, Note_on_c, 0, 67, 41
1, 238519, Control_c, 0, 64, 78
1, 238534, Control_c, 0, 64, 73
1, 238548, Control_c, 0, 64, 65
1, 238551, Note_off_c, 0, 57, 37
1, 238563, Control_c, 0, 64, 55
1, 238578, Control_c, 0, 64, 35
1, 238591, Note_off_c, 0, 73, 37
1, 238593, Control_c, 0, 64, 0
1, 238594, Note_off_c, 0, 64, 52
1, 238681, Control_c, 0, 64, 29
1, 238696, Control_c, 0, 64, 45
1, 238711, Control_c, 0, 64, 60
1, 238726, Control_c, 0, 64, 76
1, 238740, Control_c, 0, 64, 92
1, 238755, Control_c, 0, 64, 94
1, 238770, Control_c, 0, 64, 106
1, 238785, Control_c, 0, 64, 127
1, 239017, Control_c, 0, 64, 86
1, 239024, Note_on_c, 0, 69, 52
1, 239029, Note_on_c, 0, 66, 48
1, 239032, Control_c, 0, 64, 74
1, 239046, Control_c, 0, 64, 67
1, 239061, Control_c, 0, 64, 60
1, 239076, Control_c, 0, 64, 44
1, 239090, Control_c, 0, 64, 0
1, 239091, Note_off_c, 0, 71, 38
1, 239094, Note_off_c, 0, 67, 61
1, 239194, Control_c, 0, 64, 13
1, 239209, Control_c, 0, 64, 33
1, 239224, Control_c, 0, 64, 47
1, 239238, Control_c, 0, 64, 60
1, 239253, Control_c, 0, 64, 70
1, 239268, Control_c, 0, 64, 74
1, 239283, Control_c, 0, 64, 75
1, 239298, Control_c, 0, 64, 77
1, 239312, Control_c, 0, 64, 82
1, 239327, Control_c, 0, 64, 87
1, 239342, Control_c, 0, 64, 90
1, 239357, Control_c, 0, 64, 92
1, 239372, Control_c, 0, 64, 93
1, 239387, Control_c, 0, 64, 94
1, 239402, Control_c, 0, 64, 95
1, 239417, Control_c, 0, 64, 95
1, 239594, Control_c, 0, 64, 93
1, 239609, Control_c, 0, 64, 91
1, 239624, Control_c, 0, 64, 90
1, 239638, Control_c, 0, 64, 88
1, 239645, Note_on_c, 0, 67, 48
1, 239653, Control_c, 0, 64, 84
1, 239668, Control_c, 0, 64, 77
1, 239680, Note_on_c, 0, 64, 31
1, 239690, Control_c, 0, 64, 67
1, 239705, Control_c, 0, 64, 60
1, 239720, Control_c, 0, 64, 47
1, 239735, Note_off_c, 0, 66, 46
1, 239735, Control_c, 0, 64, 15
1, 239736, Note_off_c, 0, 69, 64
1, 239750, Control_c, 0, 64, 0
1, 239884, Control_c, 0, 64, 20
1, 239899, Control_c, 0, 64, 34
1, 239913, Control_c, 0, 64, 47
1, 239924, Note_on_c, 0, 69, 53
1, 239928, Control_c, 0, 64, 59
1, 239943, Control_c, 0, 64, 64
1, 239958, Control_c, 0, 64, 66
1, 239973, Control_c, 0, 64, 68
1, 239987, Control_c, 0, 64, 70
1, 240002, Control_c, 0, 64, 74
1, 240017, Control_c, 0, 64, 78
1, 240032, Control_c, 0, 64, 82
1, 240047, Control_c, 0, 64, 85
1, 240061, Control_c, 0, 64, 88
1, 240076, Control_c, 0, 64, 90
1, 240091, Control_c, 0, 64, 94
1, 240106, Control_c, 0, 64, 99
1, 240120, Control_c, 0, 64, 103
1, 240135, Control_c, 0, 64, 104
1, 240180, Control_c, 0, 64, 105
1, 240195, Control_c, 0, 64, 105
1, 240210, Control_c, 0, 64, 106
1, 240373, Note_on_c, 0, 74, 59
1, 240373, Control_c, 0, 64, 105
1, 240380, Note_on_c, 0, 66, 33
1, 240387, Control_c, 0, 64, 103
1, 240402, Control_c, 0, 64, 101
1, 240404, Note_on_c, 0, 62, 32
1, 240417, Control_c, 0, 64, 100
1, 240436, Note_off_c, 0, 64, 42
1, 240439, Control_c, 0, 64, 97
1, 240454, Control_c, 0, 64, 92
1, 240464, Note_off_c, 0, 69, 57
1, 240469, Control_c, 0, 64, 82
1, 240484, Control_c, 0, 64, 71
1, 240499, Control_c, 0, 64, 62
1, 240513, Control_c, 0, 64, 48
1, 240521, Note_off_c, 0, 67, 60
1, 240528, Control_c, 0, 64, 25
1, 240543, Control_c, 0, 64, 0
1, 240692, Control_c, 0, 64, 27
1, 240707, Control_c, 0, 64, 41
1, 240722, Control_c, 0, 64, 55
1, 240736, Control_c, 0, 64, 64
1, 240751, Control_c, 0, 64, 71
1, 240766, Control_c, 0, 64, 75
1, 240781, Control_c, 0, 64, 81
1, 240796, Control_c, 0, 64, 87
1, 240810, Control_c, 0, 64, 94
1, 240825, Control_c, 0, 64, 101
1, 240840, Note_off_c, 0, 74, 37
1, 240840, Control_c, 0, 64, 109
1, 240855, Control_c, 0, 64, 122
1, 240869, Control_c, 0, 64, 127
1, 240881, Note_off_c, 0, 62, 39
1, 240923, Note_off_c, 0, 66, 39
1, 241221, Note_on_c, 0, 74, 50
1, 241337, Note_off_c, 0, 74, 59
1, 241502, Note_on_c, 0, 74, 41
1, 241533, Note_on_c, 0, 66, 29
1, 241566, Note_on_c, 0, 62, 21
1, 241622, Note_off_c, 0, 66, 0
1, 241622, Note_on_c, 0, 66, 3
1, 242296, Note_off_c, 0, 74, 33
1, 242353, Control_c, 0, 64, 119
1, 242363, Note_off_c, 0, 62, 32
1, 242368, Control_c, 0, 64, 117
1, 242382, Control_c, 0, 64, 114
1, 242397, Control_c, 0, 64, 111
1, 242412, Control_c, 0, 64, 108
1, 242427, Control_c, 0, 64, 107
1, 242441, Control_c, 0, 64, 105
1, 242456, Control_c, 0, 64, 103
1, 242471, Control_c, 0, 64, 100
1, 242486, Control_c, 0, 64, 96
1, 242501, Control_c, 0, 64, 92
1, 242501, Control_c, 0, 67, 125
1, 242515, Control_c, 0, 64, 89
1, 242515, Control_c, 0, 67, 96
1, 242528, Note_off_c, 0, 66, 30
1, 242530, Control_c, 0, 64, 88
1, 242530, Control_c, 0, 67, 62
1, 242545, Control_c, 0, 64, 86
1, 242545, Control_c, 0, 67, 23
1, 242560, Control_c, 0, 64, 83
1, 242560, Control_c, 0, 67, 0
1, 242575, Control_c, 0, 64, 78
1, 242589, Control_c, 0, 64, 75
1, 242604, Control_c, 0, 64, 74
1, 242619, Control_c, 0, 64, 74
1, 242633, Control_c, 0, 64, 73
1, 242648, Control_c, 0, 64, 69
1, 242663, Control_c, 0, 64, 65
1, 242686, Control_c, 0, 64, 62
1, 242701, Control_c, 0, 64, 58
1, 242715, Control_c, 0, 64, 55
1, 242730, Control_c, 0, 64, 49
1, 242745, Control_c, 0, 64, 40
1, 242760, Control_c, 0, 64, 24
1, 242775, Control_c, 0, 64, 0
1, 242864, Note_on_c, 0, 69, 55
1, 242952, Control_c, 0, 64, 27
1, 242968, Control_c, 0, 64, 41
1, 242983, Control_c, 0, 64, 55
1, 242990, Note_on_c, 0, 74, 69
1, 242998, Control_c, 0, 64, 63
1, 243012, Control_c, 0, 64, 67
1, 243026, Note_off_c, 0, 69, 59
1, 243027, Control_c, 0, 64, 70
1, 243042, Control_c, 0, 64, 73
1, 243057, Control_c, 0, 64, 77
1, 243071, Control_c, 0, 64, 82
1, 243086, Control_c, 0, 64, 87
1, 243101, Control_c, 0, 64, 91
1, 243103, Note_on_c, 0, 78, 81
1, 243116, Control_c, 0, 64, 95
1, 243131, Control_c, 0, 64, 98
1, 243132, Note_off_c, 0, 74, 63
1, 243146, Control_c, 0, 64, 101
1, 243161, Control_c, 0, 64, 103
1, 243176, Control_c, 0, 64, 103
1, 243222, Note_off_c, 0, 78, 61
1, 243279, Control_c, 0, 64, 103
1, 243294, Control_c, 0, 64, 98
1, 243296, Note_on_c, 0, 78, 77
1, 243306, Note_on_c, 0, 67, 55
1, 243309, Control_c, 0, 64, 88
1, 243313, Note_on_c, 0, 62, 50
1, 243324, Control_c, 0, 64, 78
1, 243338, Control_c, 0, 64, 68
1, 243353, Control_c, 0, 64, 60
1, 243368, Control_c, 0, 64, 40
1, 243383, Control_c, 0, 64, 0
1, 243494, Control_c, 0, 64, 28
1, 243509, Control_c, 0, 64, 44
1, 243524, Control_c, 0, 64, 57
1, 243528, Note_on_c, 0, 76, 88
1, 243538, Control_c, 0, 64, 64
1, 243553, Control_c, 0, 64, 68
1, 243565, Note_off_c, 0, 78, 66
1, 243568, Control_c, 0, 64, 71
1, 243583, Control_c, 0, 64, 73
1, 243598, Control_c, 0, 64, 77
1, 243612, Control_c, 0, 64, 82
1, 243627, Control_c, 0, 64, 86
1, 243642, Control_c, 0, 64, 90
1, 243656, Control_c, 0, 64, 92
1, 243671, Control_c, 0, 64, 93
1, 243791, Control_c, 0, 64, 90
1, 243806, Control_c, 0, 64, 83
1, 243810, Note_on_c, 0, 83, 77
1, 243821, Control_c, 0, 64, 78
1, 243835, Control_c, 0, 64, 73
1, 243850, Control_c, 0, 64, 68
1, 243863, Note_off_c, 0, 76, 59
1, 243865, Control_c, 0, 64, 62
1, 243879, Control_c, 0, 64, 52
1, 243894, Control_c, 0, 64, 27
1, 243909, Control_c, 0, 64, 0
1, 243998, Control_c, 0, 64, 19
1, 244013, Control_c, 0, 64, 38
1, 244017, Note_on_c, 0, 73, 71
1, 244028, Control_c, 0, 64, 52
1, 244043, Control_c, 0, 64, 63
1, 244054, Note_off_c, 0, 83, 62
1, 244058, Control_c, 0, 64, 68
1, 244073, Control_c, 0, 64, 70
1, 244087, Control_c, 0, 64, 73
1, 244102, Control_c, 0, 64, 77
1, 244117, Control_c, 0, 64, 81
1, 244132, Control_c, 0, 64, 87
1, 244147, Control_c, 0, 64, 91
1, 244161, Control_c, 0, 64, 95
1, 244183, Control_c, 0, 64, 97
1, 244198, Control_c, 0, 64, 97
1, 244285, Note_on_c, 0, 76, 72
1, 244287, Control_c, 0, 64, 96
1, 244288, Note_on_c, 0, 66, 52
1, 244302, Control_c, 0, 64, 90
1, 244317, Control_c, 0, 64, 84
1, 244320, Note_off_c, 0, 73, 64
1, 244332, Control_c, 0, 64, 78
1, 244347, Control_c, 0, 64, 71
1, 244352, Note_off_c, 0, 67, 61
1, 244361, Control_c, 0, 64, 63
1, 244376, Control_c, 0, 64, 51
1, 244391, Control_c, 0, 64, 22
1, 244405, Control_c, 0, 64, 0
1, 244494, Note_on_c, 0, 74, 74
1, 244505, Note_off_c, 0, 76, 63
1, 244509, Control_c, 0, 64, 15
1, 244524, Control_c, 0, 64, 34
1, 244539, Control_c, 0, 64, 49
1, 244555, Control_c, 0, 64, 62
1, 244570, Control_c, 0, 64, 73
1, 244584, Control_c, 0, 64, 78
1, 244599, Control_c, 0, 64, 80
1, 244614, Control_c, 0, 64, 86
1, 244629, Control_c, 0, 64, 96
1, 244644, Control_c, 0, 64, 117
1, 244658, Control_c, 0, 64, 127
1, 244791, Note_off_c, 0, 62, 36
1, 244899, Note_off_c, 0, 66, 45
1, 244930, Note_on_c, 0, 86, 85
1, 244977, Control_c, 0, 64, 97
1, 244986, Note_off_c, 0, 74, 58
1, 244991, Control_c, 0, 64, 77
1, 245006, Control_c, 0, 64, 64
1, 245021, Control_c, 0, 64, 52
1, 245036, Control_c, 0, 64, 27
1, 245051, Control_c, 0, 64, 0
1, 245481, Control_c, 0, 67, 8
1, 245496, Control_c, 0, 67, 10
1, 245511, Control_c, 0, 67, 13
1, 245525, Control_c, 0, 67, 16
1, 245540, Control_c, 0, 67, 20
1, 245555, Control_c, 0, 67, 21
1, 245570, Control_c, 0, 67, 22
1, 245630, Control_c, 0, 67, 21
1, 245717, Note_off_c, 0, 86, 60
1, 245740, Note_on_c, 0, 85, 54
1, 245807, Note_off_c, 0, 85, 61
1, 245827, Note_on_c, 0, 86, 69
1, 245889, Control_c, 0, 67, 22
1, 245904, Control_c, 0, 67, 22
1, 245934, Note_off_c, 0, 86, 62
1, 245942, Note_on_c, 0, 88, 72
1, 246028, Note_off_c, 0, 88, 67
1, 246034, Note_on_c, 0, 86, 76
1, 246067, Control_c, 0, 67, 22
1, 246122, Note_on_c, 0, 85, 76
1, 246131, Note_off_c, 0, 86, 59
1, 246213, Note_off_c, 0, 85, 65
1, 246217, Note_on_c, 0, 83, 76
1, 246313, Note_off_c, 0, 83, 65
1, 246327, Note_on_c, 0, 79, 75
1, 246330, Note_on_c, 0, 74, 55
1, 246335, Note_on_c, 0, 71, 43
1, 246369, Note_off_c, 0, 74, 65
1, 246369, Note_off_c, 0, 79, 61
1, 246371, Note_off_c, 0, 71, 61
1, 246445, Control_c, 0, 67, 22
1, 246460, Control_c, 0, 67, 23
1, 246532, Note_on_c, 0, 79, 72
1, 246563, Control_c, 0, 67, 23
1, 246598, Note_off_c, 0, 79, 54
1, 246622, Note_on_c, 0, 81, 75
1, 246637, Control_c, 0, 67, 24
1, 246652, Control_c, 0, 67, 25
1, 246667, Control_c, 0, 67, 28
1, 246681, Control_c, 0, 67, 30
1, 246699, Note_off_c, 0, 81, 60
1, 246711, Control_c, 0, 67, 30
1, 246718, Note_on_c, 0, 83, 68
1, 246726, Control_c, 0, 67, 31
1, 246741, Control_c, 0, 67, 32
1, 246756, Control_c, 0, 67, 35
1, 246771, Control_c, 0, 67, 37
1, 246786, Control_c, 0, 67, 39
1, 246799, Note_off_c, 0, 83, 65
1, 246800, Control_c, 0, 67, 41
1, 246806, Note_on_c, 0, 81, 77
1, 246815, Control_c, 0, 67, 43
1, 246830, Control_c, 0, 67, 46
1, 246845, Control_c, 0, 67, 49
1, 246860, Control_c, 0, 67, 53
1, 246860, Note_off_c, 0, 81, 62
1, 246874, Control_c, 0, 67, 58
1, 246889, Control_c, 0, 67, 65
1, 246899, Note_on_c, 0, 79, 74
1, 246904, Control_c, 0, 67, 73
1, 246919, Control_c, 0, 67, 81
1, 246925, Note_on_c, 0, 69, 47
1, 246934, Control_c, 0, 67, 87
1, 246941, Note_on_c, 0, 73, 21
1, 246950, Control_c, 0, 67, 94
1, 246956, Note_off_c, 0, 69, 53
1, 246961, Note_off_c, 0, 79, 58
1, 246964, Control_c, 0, 67, 101
1, 246979, Control_c, 0, 67, 108
1, 246982, Note_off_c, 0, 73, 44
1, 246985, Note_on_c, 0, 78, 70
1, 246994, Control_c, 0, 67, 114
1, 247009, Control_c, 0, 67, 118
1, 247023, Control_c, 0, 67, 120
1, 247038, Control_c, 0, 67, 120
1, 247053, Control_c, 0, 67, 122
1, 247068, Control_c, 0, 67, 123
1, 247069, Note_off_c, 0, 78, 63
1, 247082, Control_c, 0, 67, 126
1, 247096, Control_c, 0, 67, 127
1, 247108, Note_on_c, 0, 76, 56
1, 247124, Note_on_c, 0, 71, 45
1, 247125, Note_on_c, 0, 67, 34
1, 247148, Note_off_c, 0, 71, 61
1, 247161, Note_off_c, 0, 67, 51
1, 247164, Note_off_c, 0, 76, 63
1, 247347, Note_on_c, 0, 76, 60
1, 247417, Note_off_c, 0, 76, 64
1, 247425, Note_on_c, 0, 78, 66
1, 247504, Note_off_c, 0, 78, 63
1, 247530, Note_on_c, 0, 79, 65
1, 247615, Note_off_c, 0, 79, 62
1, 247619, Note_on_c, 0, 78, 69
1, 247698, Note_off_c, 0, 78, 65
1, 247713, Note_on_c, 0, 76, 70
1, 247724, Note_on_c, 0, 69, 46
1, 247727, Note_on_c, 0, 66, 46
1, 247757, Note_off_c, 0, 76, 65
1, 247761, Note_off_c, 0, 69, 51
1, 247769, Note_off_c, 0, 66, 49
1, 247811, Note_on_c, 0, 74, 66
1, 247859, Note_off_c, 0, 74, 63
1, 247964, Note_on_c, 0, 73, 64
1, 247969, Note_on_c, 0, 67, 42
1, 247974, Note_on_c, 0, 64, 43
1, 247990, Note_off_c, 0, 73, 63
1, 248005, Note_off_c, 0, 64, 58
1, 248005, Note_off_c, 0, 67, 56
1, 248434, Note_on_c, 0, 62, 39
1, 248439, Note_on_c, 0, 66, 40
1, 248440, Note_on_c, 0, 74, 38
1, 248501, Note_off_c, 0, 62, 62
1, 248503, Note_off_c, 0, 74, 66
1, 248520, Note_off_c, 0, 66, 54
1, 249129, Note_on_c, 0, 78, 72
1, 249158, Note_on_c, 0, 62, 38
1, 249166, Note_on_c, 0, 57, 25
1, 249662, Control_c, 0, 64, 13
1, 249677, Control_c, 0, 64, 26
1, 249692, Control_c, 0, 64, 34
1, 249706, Control_c, 0, 64, 43
1, 249721, Control_c, 0, 64, 52
1, 249736, Control_c, 0, 64, 58
1, 249751, Control_c, 0, 64, 62
1, 249766, Control_c, 0, 64, 63
1, 249780, Control_c, 0, 64, 65
1, 249795, Control_c, 0, 64, 67
1, 249810, Control_c, 0, 64, 69
1, 249824, Control_c, 0, 64, 71
1, 249839, Control_c, 0, 64, 73
1, 249854, Control_c, 0, 64, 74
1, 249869, Control_c, 0, 64, 76
1, 249884, Control_c, 0, 64, 77
1, 249898, Control_c, 0, 64, 78
1, 249913, Control_c, 0, 64, 79
1, 249928, Control_c, 0, 64, 79
1, 249943, Control_c, 0, 64, 80
1, 249958, Control_c, 0, 64, 80
1, 249972, Control_c, 0, 64, 81
1, 250032, Control_c, 0, 64, 81
1, 250322, Control_c, 0, 64, 81
1, 250351, Control_c, 0, 64, 80
1, 250366, Control_c, 0, 64, 79
1, 250369, Note_on_c, 0, 76, 43
1, 250381, Control_c, 0, 64, 78
1, 250395, Control_c, 0, 64, 75
1, 250398, Note_on_c, 0, 61, 27
1, 250410, Control_c, 0, 64, 73
1, 250425, Control_c, 0, 64, 71
1, 250440, Control_c, 0, 64, 68
1, 250455, Control_c, 0, 64, 64
1, 250470, Control_c, 0, 64, 60
1, 250485, Control_c, 0, 64, 53
1, 250500, Control_c, 0, 64, 46
1, 250507, Note_off_c, 0, 78, 38
1, 250515, Control_c, 0, 64, 40
1, 250529, Control_c, 0, 64, 31
1, 250544, Control_c, 0, 64, 14
1, 250553, Note_off_c, 0, 62, 42
1, 250559, Control_c, 0, 64, 0
1, 250825, Control_c, 0, 64, 22
1, 250840, Control_c, 0, 64, 35
1, 250855, Control_c, 0, 64, 45
1, 250869, Control_c, 0, 64, 56
1, 250884, Control_c, 0, 64, 62
1, 250899, Control_c, 0, 64, 66
1, 250921, Control_c, 0, 64, 68
1, 250936, Control_c, 0, 64, 70
1, 250952, Control_c, 0, 64, 74
1, 250967, Control_c, 0, 64, 78
1, 250982, Control_c, 0, 64, 81
1, 250997, Control_c, 0, 64, 83
1, 251012, Control_c, 0, 64, 85
1, 251026, Control_c, 0, 64, 86
1, 251041, Control_c, 0, 64, 88
1, 251070, Control_c, 0, 64, 88
1, 251085, Control_c, 0, 64, 89
1, 251090, Note_off_c, 0, 57, 37
1, 251100, Control_c, 0, 64, 90
1, 251115, Control_c, 0, 64, 91
1, 251190, Note_off_c, 0, 61, 29
1, 251191, Note_off_c, 0, 76, 32
1, 251633, Control_c, 0, 64, 90
1, 251648, Control_c, 0, 64, 90
1, 251685, Control_c, 0, 64, 87
1, 251700, Control_c, 0, 64, 81
1, 251715, Control_c, 0, 64, 74
1, 251730, Control_c, 0, 64, 67
1, 251746, Control_c, 0, 64, 60
1, 251761, Control_c, 0, 64, 47
1, 251775, Control_c, 0, 64, 17
1, 251790, Control_c, 0, 64, 0
1, 251819, Control_c, 0, 67, 101
1, 251834, Control_c, 0, 67, 52
1, 251849, Control_c, 0, 64, 12
1, 251849, Control_c, 0, 67, 0
1, 251864, Control_c, 0, 64, 35
1, 251879, Control_c, 0, 64, 53
1, 251893, Control_c, 0, 64, 65
1, 251908, Control_c, 0, 64, 76
1, 251923, Control_c, 0, 64, 79
1, 251938, Control_c, 0, 64, 80
1, 251953, Control_c, 0, 64, 85
1, 251967, Control_c, 0, 64, 94
1, 251982, Control_c, 0, 64, 105
1, 251997, Control_c, 0, 64, 117
1, 252000, Note_on_c, 0, 74, 73
1, 252012, Control_c, 0, 64, 127
1, 252080, Note_on_c, 0, 78, 80
1, 252086, Note_off_c, 0, 74, 63
1, 252148, Note_on_c, 0, 81, 87
1, 252160, Note_off_c, 0, 78, 66
1, 252263, Note_on_c, 0, 50, 40
1, 252265, Note_on_c, 0, 54, 47
1, 252278, Note_on_c, 0, 57, 49
1, 252311, Note_on_c, 0, 86, 82
1, 252336, Note_off_c, 0, 81, 61
1, 252338, Control_c, 0, 64, 88
1, 252353, Control_c, 0, 64, 68
1, 252367, Control_c, 0, 64, 57
1, 252382, Control_c, 0, 64, 34
1, 252397, Control_c, 0, 64, 0
1, 252479, Control_c, 0, 64, 27
1, 252493, Control_c, 0, 64, 43
1, 252508, Control_c, 0, 64, 57
1, 252523, Control_c, 0, 64, 68
1, 252538, Control_c, 0, 64, 75
1, 252554, Control_c, 0, 64, 76
1, 252569, Control_c, 0, 64, 77
1, 252583, Control_c, 0, 64, 80
1, 252598, Control_c, 0, 64, 84
1, 252613, Control_c, 0, 64, 87
1, 252619, Note_off_c, 0, 86, 59
1, 252628, Control_c, 0, 64, 87
1, 252638, Note_on_c, 0, 88, 64
1, 252642, Control_c, 0, 64, 88
1, 252657, Control_c, 0, 64, 89
1, 252672, Control_c, 0, 64, 90
1, 252687, Control_c, 0, 64, 91
1, 252700, Note_off_c, 0, 88, 66
1, 252709, Note_on_c, 0, 86, 64
1, 252761, Note_off_c, 0, 86, 62
1, 252767, Note_on_c, 0, 85, 75
1, 252776, Control_c, 0, 64, 90
1, 252790, Control_c, 0, 64, 83
1, 252805, Control_c, 0, 64, 72
1, 252820, Control_c, 0, 64, 63
1, 252835, Control_c, 0, 64, 47
1, 252838, Note_off_c, 0, 85, 62
1, 252839, Note_on_c, 0, 86, 74
1, 252849, Control_c, 0, 64, 11
1, 252864, Control_c, 0, 64, 0
1, 252953, Control_c, 0, 64, 15
1, 252968, Control_c, 0, 64, 36
1, 252983, Control_c, 0, 64, 51
1, 252998, Control_c, 0, 64, 63
1, 253013, Control_c, 0, 64, 70
1, 253028, Control_c, 0, 64, 74
1, 253042, Control_c, 0, 64, 75
1, 253051, Note_off_c, 0, 54, 53
1, 253057, Control_c, 0, 64, 78
1, 253072, Control_c, 0, 64, 82
1, 253087, Control_c, 0, 64, 87
1, 253102, Control_c, 0, 64, 91
1, 253102, Control_c, 0, 67, 9
1, 253116, Control_c, 0, 64, 93
1, 253116, Control_c, 0, 67, 11
1, 253131, Control_c, 0, 64, 95
1, 253131, Control_c, 0, 67, 14
1, 253146, Control_c, 0, 64, 97
1, 253146, Control_c, 0, 67, 19
1, 253161, Control_c, 0, 64, 100
1, 253161, Control_c, 0, 67, 26
1, 253183, Control_c, 0, 64, 105
1, 253183, Control_c, 0, 67, 34
1, 253198, Control_c, 0, 64, 108
1, 253198, Control_c, 0, 67, 40
1, 253212, Control_c, 0, 64, 109
1, 253212, Control_c, 0, 67, 47
1, 253227, Control_c, 0, 67, 54
1, 253229, Note_off_c, 0, 57, 37
1, 253242, Control_c, 0, 67, 62
1, 253257, Control_c, 0, 64, 110
1, 253257, Control_c, 0, 67, 70
1, 253272, Control_c, 0, 67, 77
1, 253287, Control_c, 0, 67, 82
1, 253302, Control_c, 0, 67, 86
1, 253316, Control_c, 0, 67, 89
1, 253331, Control_c, 0, 67, 92
1, 253347, Control_c, 0, 64, 111
1, 253347, Control_c, 0, 67, 94
1, 253361, Control_c, 0, 67, 96
1, 253376, Control_c, 0, 67, 97
1, 253391, Control_c, 0, 67, 97
1, 253403, Note_on_c, 0, 88, 83
1, 253421, Control_c, 0, 67, 98
1, 253436, Control_c, 0, 67, 98
1, 253442, Note_off_c, 0, 86, 56
1, 253465, Control_c, 0, 64, 110
1, 253510, Control_c, 0, 67, 99
1, 253525, Control_c, 0, 64, 109
1, 253539, Control_c, 0, 64, 103
1, 253554, Control_c, 0, 64, 99
1, 253569, Control_c, 0, 64, 95
1, 253571, Note_on_c, 0, 85, 70
1, 253584, Control_c, 0, 64, 90
1, 253592, Note_on_c, 0, 57, 40
1, 253598, Control_c, 0, 64, 78
1, 253608, Note_on_c, 0, 52, 35
1, 253608, Note_on_c, 0, 55, 33
1, 253609, Note_off_c, 0, 88, 62
1, 253611, Note_on_c, 0, 61, 43
1, 253613, Control_c, 0, 64, 66
1, 253628, Control_c, 0, 64, 56
1, 253643, Control_c, 0, 64, 35
1, 253658, Control_c, 0, 64, 0
1, 253692, Note_off_c, 0, 50, 42
1, 253865, Control_c, 0, 64, 17
1, 253880, Control_c, 0, 64, 35
1, 253895, Control_c, 0, 64, 49
1, 253917, Control_c, 0, 64, 61
1, 253932, Control_c, 0, 64, 71
1, 253946, Control_c, 0, 64, 78
1, 253946, Control_c, 0, 67, 99
1, 253961, Control_c, 0, 64, 81
1, 253976, Control_c, 0, 64, 87
1, 253991, Control_c, 0, 64, 98
1, 253996, Note_off_c, 0, 85, 35
1, 254005, Control_c, 0, 64, 122
1, 254005, Control_c, 0, 67, 100
1, 254020, Control_c, 0, 64, 127
1, 254020, Control_c, 0, 67, 102
1, 254035, Control_c, 0, 67, 106
1, 254050, Control_c, 0, 67, 108
1, 254080, Control_c, 0, 67, 109
1, 254080, Note_off_c, 0, 52, 40
1, 254086, Note_off_c, 0, 61, 32
1, 254095, Control_c, 0, 67, 109
1, 254110, Control_c, 0, 67, 110
1, 254124, Control_c, 0, 67, 110
1, 254144, Note_off_c, 0, 55, 37
1, 254151, Note_off_c, 0, 57, 33
1, 254518, Note_on_c, 0, 69, 45
1, 254584, Control_c, 0, 64, 99
1, 254599, Control_c, 0, 64, 78
1, 254613, Control_c, 0, 64, 66
1, 254628, Control_c, 0, 64, 55
1, 254643, Control_c, 0, 64, 25
1, 254666, Control_c, 0, 64, 0
1, 254680, Note_off_c, 0, 69, 61
1, 254696, Note_on_c, 0, 71, 57
1, 254710, Control_c, 0, 67, 110
1, 254725, Control_c, 0, 64, 11
1, 254739, Control_c, 0, 64, 31
1, 254754, Control_c, 0, 64, 49
1, 254754, Control_c, 0, 67, 109
1, 254762, Note_off_c, 0, 71, 64
1, 254769, Control_c, 0, 64, 63
1, 254776, Note_on_c, 0, 73, 68
1, 254784, Control_c, 0, 64, 75
1, 254799, Control_c, 0, 64, 79
1, 254811, Note_off_c, 0, 73, 64
1, 254814, Control_c, 0, 64, 80
1, 254814, Control_c, 0, 67, 109
1, 254828, Control_c, 0, 64, 83
1, 254843, Control_c, 0, 64, 91
1, 254847, Note_on_c, 0, 74, 75
1, 254858, Control_c, 0, 64, 99
1, 254873, Control_c, 0, 64, 109
1, 254873, Control_c, 0, 67, 108
1, 254888, Control_c, 0, 64, 127
1, 254897, Note_off_c, 0, 74, 63
1, 254903, Control_c, 0, 67, 108
1, 254912, Note_on_c, 0, 76, 72
1, 254932, Control_c, 0, 67, 107
1, 254948, Control_c, 0, 67, 106
1, 254962, Note_off_c, 0, 76, 66
1, 254963, Control_c, 0, 67, 105
1, 254967, Note_on_c, 0, 78, 82
1, 255007, Control_c, 0, 67, 105
1, 255011, Note_off_c, 0, 78, 65
1, 255022, Control_c, 0, 67, 104
1, 255034, Note_on_c, 0, 79, 84
1, 255037, Control_c, 0, 67, 103
1, 255052, Control_c, 0, 67, 101
1, 255067, Control_c, 0, 67, 100
1, 255081, Control_c, 0, 67, 97
1, 255087, Note_off_c, 0, 79, 59
1, 255095, Note_on_c, 0, 81, 85
1, 255096, Control_c, 0, 67, 91
1, 255111, Control_c, 0, 67, 76
1, 255126, Control_c, 0, 67, 56
1, 255141, Control_c, 0, 67, 26
1, 255156, Control_c, 0, 67, 0
1, 255159, Note_on_c, 0, 83, 85
1, 255168, Note_off_c, 0, 81, 64
1, 255287, Note_on_c, 0, 52, 41
1, 255293, Note_on_c, 0, 55, 43
1, 255293, Note_on_c, 0, 61, 52
1, 255295, Note_on_c, 0, 85, 76
1, 255297, Note_off_c, 0, 83, 63
1, 255319, Control_c, 0, 64, 91
1, 255334, Control_c, 0, 64, 66
1, 255349, Control_c, 0, 64, 49
1, 255363, Control_c, 0, 64, 0
1, 255415, Control_c, 0, 64, 13
1, 255430, Control_c, 0, 64, 38
1, 255445, Control_c, 0, 64, 54
1, 255460, Control_c, 0, 64, 68
1, 255475, Control_c, 0, 64, 92
1, 255488, Note_off_c, 0, 85, 59
1, 255490, Control_c, 0, 64, 102
1, 255505, Control_c, 0, 64, 103
1, 255519, Control_c, 0, 64, 110
1, 255534, Control_c, 0, 64, 127
1, 255610, Note_on_c, 0, 86, 59
1, 255672, Note_off_c, 0, 86, 62
1, 255675, Note_on_c, 0, 85, 63
1, 255726, Note_off_c, 0, 85, 64
1, 255726, Control_c, 0, 64, 95
1, 255735, Note_on_c, 0, 83, 70
1, 255742, Control_c, 0, 64, 72
1, 255757, Control_c, 0, 64, 61
1, 255772, Control_c, 0, 64, 47
1, 255786, Control_c, 0, 64, 14
1, 255801, Control_c, 0, 64, 0
1, 255804, Note_on_c, 0, 85, 72
1, 255815, Note_off_c, 0, 83, 63
1, 255846, Control_c, 0, 64, 11
1, 255861, Control_c, 0, 64, 35
1, 255875, Control_c, 0, 64, 51
1, 255890, Control_c, 0, 64, 67
1, 255905, Control_c, 0, 64, 85
1, 255920, Control_c, 0, 64, 89
1, 255934, Note_off_c, 0, 52, 36
1, 255935, Control_c, 0, 64, 91
1, 255949, Control_c, 0, 64, 101
1, 255958, Note_off_c, 0, 55, 54
1, 255964, Control_c, 0, 64, 127
1, 256008, Note_off_c, 0, 61, 62
1, 256183, Note_on_c, 0, 86, 91
1, 256218, Note_off_c, 0, 85, 63
1, 256321, Note_on_c, 0, 54, 46
1, 256324, Note_on_c, 0, 84, 80
1, 256327, Note_on_c, 0, 57, 45
1, 256329, Note_on_c, 0, 63, 52
1, 256333, Note_on_c, 0, 60, 48
1, 256342, Control_c, 0, 64, 115
1, 256357, Control_c, 0, 64, 90
1, 256357, Note_off_c, 0, 86, 62
1, 256372, Control_c, 0, 64, 70
1, 256386, Control_c, 0, 64, 58
1, 256401, Control_c, 0, 64, 34
1, 256416, Control_c, 0, 64, 0
1, 256475, Control_c, 0, 64, 28
1, 256490, Control_c, 0, 64, 46
1, 256505, Control_c, 0, 64, 62
1, 256519, Control_c, 0, 64, 78
1, 256536, Control_c, 0, 64, 87
1, 256551, Control_c, 0, 64, 88
1, 256565, Control_c, 0, 64, 90
1, 256580, Control_c, 0, 64, 96
1, 256581, Note_off_c, 0, 84, 60
1, 256595, Control_c, 0, 64, 103
1, 256608, Note_on_c, 0, 86, 58
1, 256609, Control_c, 0, 64, 105
1, 256624, Control_c, 0, 64, 106
1, 256639, Control_c, 0, 64, 107
1, 256654, Control_c, 0, 64, 111
1, 256664, Note_off_c, 0, 86, 62
1, 256669, Control_c, 0, 64, 117
1, 256673, Note_on_c, 0, 84, 60
1, 256733, Note_off_c, 0, 84, 64
1, 256745, Note_on_c, 0, 83, 67
1, 256772, Control_c, 0, 64, 114
1, 256787, Control_c, 0, 64, 99
1, 256801, Note_off_c, 0, 83, 64
1, 256802, Control_c, 0, 64, 89
1, 256804, Note_on_c, 0, 84, 68
1, 256816, Control_c, 0, 64, 83
1, 256831, Control_c, 0, 64, 75
1, 256846, Control_c, 0, 64, 64
1, 256861, Control_c, 0, 64, 50
1, 256876, Control_c, 0, 64, 0
1, 256956, Control_c, 0, 64, 30
1, 256971, Control_c, 0, 64, 47
1, 256986, Control_c, 0, 64, 62
1, 257001, Control_c, 0, 64, 76
1, 257016, Control_c, 0, 64, 87
1, 257031, Control_c, 0, 64, 90
1, 257046, Control_c, 0, 64, 99
1, 257061, Control_c, 0, 64, 127
1, 257117, Note_off_c, 0, 54, 44
1, 257157, Note_off_c, 0, 57, 36
1, 257208, Control_c, 0, 67, 9
1, 257223, Control_c, 0, 67, 13
1, 257238, Control_c, 0, 67, 18
1, 257253, Control_c, 0, 67, 24
1, 257266, Note_off_c, 0, 63, 43
1, 257268, Control_c, 0, 67, 31
1, 257282, Control_c, 0, 67, 38
1, 257297, Control_c, 0, 67, 45
1, 257312, Control_c, 0, 67, 49
1, 257327, Control_c, 0, 67, 54
1, 257343, Control_c, 0, 67, 59
1, 257357, Control_c, 0, 67, 64
1, 257372, Control_c, 0, 67, 69
1, 257387, Control_c, 0, 67, 74
1, 257390, Note_on_c, 0, 86, 78
1, 257402, Control_c, 0, 67, 77
1, 257410, Note_off_c, 0, 84, 62
1, 257417, Control_c, 0, 67, 79
1, 257431, Control_c, 0, 67, 80
1, 257446, Control_c, 0, 67, 81
1, 257461, Control_c, 0, 67, 82
1, 257476, Control_c, 0, 67, 83
1, 257505, Control_c, 0, 67, 83
1, 257520, Control_c, 0, 64, 90
1, 257520, Control_c, 0, 67, 84
1, 257535, Note_on_c, 0, 83, 67
1, 257535, Control_c, 0, 64, 74
1, 257535, Control_c, 0, 67, 87
1, 257538, Note_on_c, 0, 55, 40
1, 257541, Note_on_c, 0, 59, 43
1, 257549, Note_on_c, 0, 64, 49
1, 257550, Control_c, 0, 64, 64
1, 257550, Control_c, 0, 67, 89
1, 257565, Control_c, 0, 64, 57
1, 257565, Control_c, 0, 67, 92
1, 257568, Note_off_c, 0, 86, 60
1, 257579, Control_c, 0, 64, 44
1, 257579, Control_c, 0, 67, 94
1, 257594, Control_c, 0, 64, 22
1, 257594, Control_c, 0, 67, 96
1, 257609, Control_c, 0, 64, 0
1, 257609, Control_c, 0, 67, 97
1, 257624, Control_c, 0, 67, 98
1, 257639, Control_c, 0, 67, 99
1, 257645, Note_off_c, 0, 60, 59
1, 257661, Control_c, 0, 67, 100
1, 257676, Control_c, 0, 67, 102
1, 257691, Control_c, 0, 67, 103
1, 257706, Control_c, 0, 67, 103
1, 257735, Control_c, 0, 67, 104
1, 257750, Control_c, 0, 67, 104
1, 257764, Control_c, 0, 67, 106
1, 257779, Control_c, 0, 67, 107
1, 257839, Control_c, 0, 67, 107
1, 257854, Control_c, 0, 67, 108
1, 257884, Control_c, 0, 67, 108
1, 257898, Control_c, 0, 67, 109
1, 257913, Control_c, 0, 67, 110
1, 257928, Control_c, 0, 67, 113
1, 257943, Control_c, 0, 67, 115
1, 257957, Control_c, 0, 67, 117
1, 257972, Control_c, 0, 67, 118
1, 257987, Control_c, 0, 67, 119
1, 258002, Control_c, 0, 67, 119
1, 258017, Control_c, 0, 67, 121
1, 258031, Control_c, 0, 67, 124
1, 258046, Control_c, 0, 67, 127
1, 258120, Control_c, 0, 64, 13
1, 258136, Control_c, 0, 64, 34
1, 258151, Control_c, 0, 64, 50
1, 258166, Control_c, 0, 64, 62
1, 258180, Control_c, 0, 64, 70
1, 258195, Control_c, 0, 64, 73
1, 258210, Control_c, 0, 64, 76
1, 258225, Control_c, 0, 64, 80
1, 258240, Control_c, 0, 64, 84
1, 258254, Control_c, 0, 64, 88
1, 258269, Control_c, 0, 64, 91
1, 258283, Note_off_c, 0, 64, 58
1, 258284, Control_c, 0, 64, 92
1, 258299, Control_c, 0, 64, 93
1, 258312, Note_off_c, 0, 55, 43
1, 258314, Control_c, 0, 64, 95
1, 258328, Control_c, 0, 64, 100
1, 258343, Control_c, 0, 64, 103
1, 258454, Note_off_c, 0, 83, 60
1, 258471, Note_on_c, 0, 81, 49
1, 258504, Note_off_c, 0, 81, 60
1, 258545, Note_on_c, 0, 79, 55
1, 258601, Note_off_c, 0, 79, 51
1, 258608, Note_on_c, 0, 78, 74
1, 258691, Control_c, 0, 64, 103
1, 258693, Note_on_c, 0, 76, 77
1, 258695, Note_off_c, 0, 78, 65
1, 258706, Control_c, 0, 64, 101
1, 258721, Control_c, 0, 64, 99
1, 258736, Control_c, 0, 64, 98
1, 258751, Control_c, 0, 64, 98
1, 258766, Control_c, 0, 64, 97
1, 258781, Control_c, 0, 64, 95
1, 258795, Control_c, 0, 64, 92
1, 258810, Control_c, 0, 64, 89
1, 258825, Control_c, 0, 64, 88
1, 258840, Control_c, 0, 64, 86
1, 258855, Control_c, 0, 64, 83
1, 258869, Control_c, 0, 64, 77
1, 258882, Note_on_c, 0, 81, 71
1, 258884, Control_c, 0, 64, 70
1, 258893, Note_on_c, 0, 66, 37
1, 258899, Control_c, 0, 64, 65
1, 258904, Note_on_c, 0, 62, 50
1, 258905, Note_off_c, 0, 76, 62
1, 258913, Control_c, 0, 64, 61
1, 258915, Note_on_c, 0, 57, 43
1, 258929, Control_c, 0, 64, 55
1, 258932, Note_off_c, 0, 66, 0
1, 258932, Note_on_c, 0, 66, 7
1, 258944, Control_c, 0, 64, 41
1, 258959, Control_c, 0, 64, 11
1, 258974, Control_c, 0, 64, 0
1, 258978, Note_off_c, 0, 59, 55
1, 259589, Control_c, 0, 64, 17
1, 259604, Control_c, 0, 64, 23
1, 259618, Control_c, 0, 64, 27
1, 259633, Control_c, 0, 64, 29
1, 259648, Control_c, 0, 64, 31
1, 259663, Control_c, 0, 64, 32
1, 259693, Control_c, 0, 64, 33
1, 259708, Control_c, 0, 64, 34
1, 259723, Control_c, 0, 64, 35
1, 259738, Control_c, 0, 64, 36
1, 259782, Control_c, 0, 64, 36
1, 259797, Control_c, 0, 64, 37
1, 259812, Control_c, 0, 64, 39
1, 259827, Control_c, 0, 64, 41
1, 259842, Control_c, 0, 64, 43
1, 259857, Control_c, 0, 64, 46
1, 259872, Control_c, 0, 64, 48
1, 259887, Control_c, 0, 64, 52
1, 259908, Control_c, 0, 64, 56
1, 259923, Control_c, 0, 64, 61
1, 259938, Control_c, 0, 64, 65
1, 259953, Control_c, 0, 64, 69
1, 259967, Control_c, 0, 64, 74
1, 259982, Control_c, 0, 64, 79
1, 259997, Control_c, 0, 64, 84
1, 260012, Control_c, 0, 64, 88
1, 260027, Control_c, 0, 64, 92
1, 260042, Control_c, 0, 64, 96
1, 260057, Control_c, 0, 64, 99
1, 260071, Control_c, 0, 64, 100
1, 260131, Control_c, 0, 64, 101
1, 260234, Control_c, 0, 64, 100
1, 260249, Control_c, 0, 64, 100
1, 260264, Control_c, 0, 64, 99
1, 260273, Note_off_c, 0, 66, 41
1, 260278, Control_c, 0, 64, 99
1, 260293, Control_c, 0, 64, 98
1, 260308, Control_c, 0, 64, 97
1, 260323, Control_c, 0, 64, 95
1, 260338, Control_c, 0, 64, 93
1, 260352, Control_c, 0, 64, 92
1, 260367, Control_c, 0, 64, 91
1, 260382, Control_c, 0, 64, 89
1, 260387, Note_off_c, 0, 57, 34
1, 260397, Control_c, 0, 64, 86
1, 260412, Control_c, 0, 64, 82
1, 260426, Control_c, 0, 64, 78
1, 260441, Control_c, 0, 64, 77
1, 260453, Note_off_c, 0, 81, 52
1, 260456, Note_off_c, 0, 62, 27
1, 260456, Control_c, 0, 64, 75
1, 260463, Note_on_c, 0, 79, 52
1, 260471, Control_c, 0, 64, 71
1, 260486, Control_c, 0, 64, 66
1, 260501, Control_c, 0, 64, 61
1, 260516, Control_c, 0, 64, 54
1, 260531, Control_c, 0, 64, 45
1, 260539, Note_off_c, 0, 79, 62
1, 260546, Control_c, 0, 64, 35
1, 260550, Note_on_c, 0, 78, 59
1, 260560, Control_c, 0, 64, 24
1, 260574, Control_c, 0, 64, 0
1, 260620, Note_off_c, 0, 78, 66
1, 260638, Note_on_c, 0, 76, 53
1, 260675, Note_off_c, 0, 76, 56
1, 260732, Note_on_c, 0, 74, 52
1, 260805, Note_off_c, 0, 74, 59
1, 260853, Note_on_c, 0, 73, 55
1, 260865, Note_on_c, 0, 64, 28
1, 260870, Note_on_c, 0, 57, 30
1, 260905, Note_off_c, 0, 73, 55
1, 261331, Note_off_c, 0, 57, 42
1, 261334, Note_on_c, 0, 76, 58
1, 261340, Note_off_c, 0, 64, 43
1, 261346, Note_on_c, 0, 67, 40
1, 261391, Note_off_c, 0, 67, 52
1, 261397, Note_off_c, 0, 76, 64
1, 261878, Control_c, 0, 64, 9
1, 261893, Control_c, 0, 64, 19
1, 261908, Note_on_c, 0, 74, 44
1, 261908, Control_c, 0, 64, 28
1, 261923, Control_c, 0, 64, 36
1, 261927, Note_on_c, 0, 50, 24
1, 261935, Note_on_c, 0, 66, 26
1, 261938, Control_c, 0, 64, 43
1, 261952, Control_c, 0, 64, 51
1, 261967, Control_c, 0, 64, 56
1, 261982, Control_c, 0, 64, 60
1, 261997, Control_c, 0, 64, 62
1, 262012, Control_c, 0, 64, 63
1, 262027, Control_c, 0, 64, 64
1, 262042, Control_c, 0, 64, 66
1, 262057, Control_c, 0, 64, 68
1, 262071, Control_c, 0, 64, 69
1, 262086, Control_c, 0, 64, 70
1, 262101, Control_c, 0, 64, 71
1, 262131, Note_off_c, 0, 50, 36
1, 262131, Control_c, 0, 64, 71
1, 262133, Note_off_c, 0, 66, 41
1, 262177, Note_off_c, 0, 74, 37
1, 262242, Control_c, 0, 64, 71
1, 262257, Control_c, 0, 64, 70
1, 262272, Control_c, 0, 64, 70
1, 262287, Control_c, 0, 64, 69
1, 262301, Control_c, 0, 64, 69
1, 262316, Control_c, 0, 64, 68
1, 262331, Control_c, 0, 64, 66
1, 262346, Control_c, 0, 64, 64
1, 262361, Control_c, 0, 64, 63
1, 262376, Control_c, 0, 64, 62
1, 262391, Control_c, 0, 64, 59
1, 262406, Control_c, 0, 64, 54
1, 262420, Control_c, 0, 64, 44
1, 262435, Control_c, 0, 64, 33
1, 262450, Control_c, 0, 64, 23
1, 262465, Control_c, 0, 64, 15
1, 262480, Control_c, 0, 64, 0
1, 262865, Control_c, 0, 64, 15
1, 262879, Control_c, 0, 64, 22
1, 262901, Control_c, 0, 64, 29
1, 262916, Control_c, 0, 64, 35
1, 262932, Control_c, 0, 64, 42
1, 262947, Control_c, 0, 64, 48
1, 262962, Control_c, 0, 64, 54
1, 262964, Note_on_c, 0, 62, 42
1, 262976, Control_c, 0, 64, 58
1, 262991, Control_c, 0, 64, 59
1, 263006, Control_c, 0, 64, 60
1, 263021, Control_c, 0, 64, 61
1, 263036, Control_c, 0, 64, 62
1, 263050, Control_c, 0, 64, 63
1, 263065, Control_c, 0, 64, 64
1, 263080, Control_c, 0, 64, 65
1, 263167, Note_off_c, 0, 62, 42
1, 263243, Control_c, 0, 64, 64
1, 263288, Control_c, 0, 64, 64
1, 263347, Control_c, 0, 64, 63
1, 263376, Control_c, 0, 64, 63
1, 263421, Control_c, 0, 64, 62
1, 263436, Control_c, 0, 64, 62
1, 263450, Control_c, 0, 64, 61
1, 263480, Control_c, 0, 64, 61
1, 263495, Control_c, 0, 64, 60
1, 263509, Control_c, 0, 64, 60
1, 263524, Control_c, 0, 64, 59
1, 263569, Control_c, 0, 64, 59
1, 263583, Control_c, 0, 64, 58
1, 263598, Control_c, 0, 64, 57
1, 263613, Control_c, 0, 64, 57
1, 263680, Control_c, 0, 64, 56
1, 263695, Control_c, 0, 64, 56
1, 263709, Control_c, 0, 64, 55
1, 263755, Control_c, 0, 64, 55
1, 263770, Control_c, 0, 64, 54
1, 263785, Control_c, 0, 64, 53
1, 263799, Control_c, 0, 64, 52
1, 263814, Control_c, 0, 64, 50
1, 263829, Control_c, 0, 64, 48
1, 263844, Control_c, 0, 64, 45
1, 263859, Control_c, 0, 64, 42
1, 263873, Control_c, 0, 64, 38
1, 263888, Control_c, 0, 64, 31
1, 263903, Control_c, 0, 64, 21
1, 263918, Control_c, 0, 64, 0
1, 264377, Control_c, 0, 64, 16
1, 264392, Control_c, 0, 64, 25
1, 264414, Control_c, 0, 64, 32
1, 264429, Control_c, 0, 64, 39
1, 264444, Control_c, 0, 64, 46
1, 264458, Control_c, 0, 64, 53
1, 264473, Control_c, 0, 64, 58
1, 264488, Control_c, 0, 64, 61
1, 264503, Control_c, 0, 64, 62
1, 264518, Control_c, 0, 64, 63
1, 264534, Control_c, 0, 64, 65
1, 264548, Control_c, 0, 64, 66
1, 264563, Control_c, 0, 64, 68
1, 264578, Control_c, 0, 64, 69
1, 264593, Control_c, 0, 64, 71
1, 264608, Control_c, 0, 64, 72
1, 264622, Control_c, 0, 64, 73
1, 264637, Control_c, 0, 64, 75
1, 264640, Note_on_c, 0, 47, 36
1, 264652, Control_c, 0, 64, 76
1, 264667, Control_c, 0, 64, 76
1, 264682, Control_c, 0, 64, 77
1, 264696, Control_c, 0, 64, 77
1, 264726, Control_c, 0, 64, 78
1, 264780, Note_on_c, 0, 51, 45
1, 264791, Note_off_c, 0, 47, 46
1, 264836, Note_off_c, 0, 51, 60
1, 264859, Note_on_c, 0, 54, 47
1, 264948, Control_c, 0, 64, 77
1, 264963, Control_c, 0, 64, 75
1, 264975, Note_on_c, 0, 59, 47
1, 264978, Control_c, 0, 64, 68
1, 264985, Note_off_c, 0, 54, 57
1, 264993, Control_c, 0, 64, 61
1, 265008, Control_c, 0, 64, 50
1, 265022, Control_c, 0, 64, 28
1, 265037, Control_c, 0, 64, 16
1, 265052, Control_c, 0, 64, 20
1, 265066, Control_c, 0, 64, 29
1, 265069, Note_off_c, 0, 59, 43
1, 265080, Note_on_c, 0, 71, 55
1, 265081, Control_c, 0, 64, 38
1, 265096, Control_c, 0, 64, 47
1, 265111, Control_c, 0, 64, 57
1, 265126, Control_c, 0, 64, 64
1, 265140, Note_off_c, 0, 71, 56
1, 265141, Control_c, 0, 64, 67
1, 265175, Note_on_c, 0, 75, 64
1, 265178, Control_c, 0, 64, 67
1, 265193, Control_c, 0, 64, 68
1, 265208, Control_c, 0, 64, 69
1, 265223, Control_c, 0, 64, 70
1, 265249, Note_off_c, 0, 75, 61
1, 265254, Note_on_c, 0, 78, 70
1, 265281, Control_c, 0, 64, 69
1, 265296, Control_c, 0, 64, 69
1, 265311, Control_c, 0, 64, 67
1, 265327, Control_c, 0, 64, 64
1, 265342, Control_c, 0, 64, 58
1, 265357, Control_c, 0, 64, 44
1, 265371, Control_c, 0, 64, 24
1, 265373, Note_off_c, 0, 78, 64
1, 265379, Note_on_c, 0, 83, 62
1, 265386, Control_c, 0, 64, 0
1, 265475, Control_c, 0, 64, 10
1, 265481, Note_on_c, 0, 59, 43
1, 265490, Control_c, 0, 64, 31
1, 265504, Control_c, 0, 64, 43
1, 265519, Control_c, 0, 64, 55
1, 265534, Control_c, 0, 64, 63
1, 265549, Control_c, 0, 64, 69
1, 265564, Control_c, 0, 64, 71
1, 265572, Note_off_c, 0, 59, 50
1, 265578, Control_c, 0, 64, 74
1, 265579, Note_on_c, 0, 63, 48
1, 265593, Control_c, 0, 64, 79
1, 265608, Control_c, 0, 64, 86
1, 265623, Control_c, 0, 64, 91
1, 265638, Control_c, 0, 64, 95
1, 265652, Note_on_c, 0, 66, 50
1, 265652, Control_c, 0, 64, 96
1, 265657, Note_off_c, 0, 83, 36
1, 265667, Control_c, 0, 64, 97
1, 265667, Control_c, 0, 67, 124
1, 265682, Control_c, 0, 64, 101
1, 265682, Control_c, 0, 67, 113
1, 265696, Control_c, 0, 64, 108
1, 265696, Control_c, 0, 67, 97
1, 265702, Note_off_c, 0, 63, 35
1, 265711, Control_c, 0, 64, 117
1, 265711, Control_c, 0, 67, 79
1, 265726, Control_c, 0, 64, 119
1, 265726, Control_c, 0, 67, 58
1, 265741, Control_c, 0, 67, 34
1, 265748, Note_on_c, 0, 69, 59
1, 265756, Note_off_c, 0, 66, 60
1, 265756, Control_c, 0, 67, 13
1, 265771, Control_c, 0, 64, 122
1, 265771, Control_c, 0, 67, 0
1, 265786, Control_c, 0, 64, 127
1, 265794, Note_off_c, 0, 69, 65
1, 265831, Note_on_c, 0, 71, 63
1, 265914, Note_off_c, 0, 71, 59
1, 265926, Note_on_c, 0, 75, 75
1, 266006, Note_on_c, 0, 78, 76
1, 266009, Note_off_c, 0, 75, 62
1, 266045, Control_c, 0, 64, 119
1, 266060, Control_c, 0, 64, 109
1, 266075, Control_c, 0, 64, 105
1, 266090, Control_c, 0, 64, 101
1, 266105, Control_c, 0, 64, 98
1, 266120, Control_c, 0, 64, 91
1, 266132, Note_on_c, 0, 81, 67
1, 266135, Control_c, 0, 64, 80
1, 266150, Note_off_c, 0, 78, 63
1, 266150, Control_c, 0, 64, 69
1, 266165, Control_c, 0, 64, 60
1, 266180, Control_c, 0, 64, 47
1, 266195, Control_c, 0, 64, 16
1, 266209, Control_c, 0, 64, 0
1, 266249, Note_on_c, 0, 63, 49
1, 266284, Control_c, 0, 64, 13
1, 266299, Control_c, 0, 64, 32
1, 266314, Control_c, 0, 64, 49
1, 266328, Control_c, 0, 64, 61
1, 266328, Note_on_c, 0, 66, 65
1, 266343, Control_c, 0, 64, 69
1, 266357, Note_off_c, 0, 81, 62
1, 266358, Control_c, 0, 64, 74
1, 266373, Control_c, 0, 64, 76
1, 266383, Note_off_c, 0, 63, 53
1, 266388, Control_c, 0, 64, 79
1, 266402, Control_c, 0, 64, 88
1, 266414, Note_on_c, 0, 69, 66
1, 266417, Control_c, 0, 64, 98
1, 266430, Note_off_c, 0, 66, 61
1, 266432, Control_c, 0, 64, 106
1, 266447, Control_c, 0, 64, 113
1, 266462, Control_c, 0, 64, 117
1, 266476, Control_c, 0, 64, 122
1, 266491, Control_c, 0, 64, 127
1, 266520, Control_c, 0, 64, 108
1, 266522, Note_on_c, 0, 72, 66
1, 266535, Control_c, 0, 64, 81
1, 266550, Control_c, 0, 64, 64
1, 266565, Control_c, 0, 64, 49
1, 266566, Note_off_c, 0, 69, 55
1, 266580, Control_c, 0, 64, 30
1, 266594, Control_c, 0, 64, 33
1, 266597, Note_on_c, 0, 75, 65
1, 266609, Control_c, 0, 64, 43
1, 266624, Control_c, 0, 64, 54
1, 266647, Control_c, 0, 64, 64
1, 266660, Note_off_c, 0, 72, 51
1, 266662, Control_c, 0, 64, 72
1, 266676, Note_on_c, 0, 78, 75
1, 266676, Control_c, 0, 64, 78
1, 266679, Note_off_c, 0, 75, 60
1, 266691, Control_c, 0, 64, 80
1, 266706, Control_c, 0, 64, 83
1, 266720, Control_c, 0, 64, 88
1, 266735, Control_c, 0, 64, 91
1, 266759, Note_on_c, 0, 81, 74
1, 266761, Note_off_c, 0, 78, 64
1, 266794, Control_c, 0, 64, 91
1, 266809, Control_c, 0, 64, 89
1, 266824, Control_c, 0, 64, 84
1, 266839, Control_c, 0, 64, 75
1, 266846, Note_off_c, 0, 81, 62
1, 266852, Note_on_c, 0, 84, 73
1, 266853, Control_c, 0, 64, 66
1, 266868, Control_c, 0, 64, 61
1, 266883, Control_c, 0, 64, 56
1, 266898, Control_c, 0, 64, 52
1, 266913, Control_c, 0, 64, 45
1, 266929, Control_c, 0, 64, 32
1, 266944, Control_c, 0, 64, 0
1, 266947, Note_on_c, 0, 81, 65
1, 266947, Note_off_c, 0, 84, 62
1, 267035, Note_off_c, 0, 81, 64
1, 267050, Note_on_c, 0, 79, 71
1, 267127, Note_off_c, 0, 79, 63
1, 267129, Note_on_c, 0, 78, 73
1, 267215, Note_off_c, 0, 78, 65
1, 267253, Note_on_c, 0, 79, 55
1, 267318, Note_on_c, 0, 64, 44
1, 267395, Control_c, 0, 64, 28
1, 267410, Control_c, 0, 64, 40
1, 267424, Control_c, 0, 64, 51
1, 267434, Note_on_c, 0, 67, 56
1, 267439, Control_c, 0, 64, 59
1, 267454, Control_c, 0, 64, 63
1, 267468, Control_c, 0, 64, 66
1, 267476, Note_off_c, 0, 64, 34
1, 267483, Control_c, 0, 64, 69
1, 267498, Control_c, 0, 64, 73
1, 267513, Control_c, 0, 64, 78
1, 267525, Note_on_c, 0, 71, 56
1, 267528, Control_c, 0, 64, 83
1, 267540, Note_off_c, 0, 67, 55
1, 267540, Note_off_c, 0, 79, 34
1, 267542, Control_c, 0, 64, 87
1, 267557, Control_c, 0, 64, 92
1, 267572, Control_c, 0, 64, 96
1, 267587, Control_c, 0, 64, 100
1, 267602, Control_c, 0, 64, 103
1, 267616, Control_c, 0, 64, 107
1, 267627, Note_on_c, 0, 76, 65
1, 267631, Control_c, 0, 64, 117
1, 267646, Control_c, 0, 64, 127
1, 267674, Note_off_c, 0, 71, 49
1, 267706, Note_on_c, 0, 79, 75
1, 267718, Note_off_c, 0, 76, 54
1, 267805, Note_on_c, 0, 83, 76
1, 267805, Note_off_c, 0, 79, 62
1, 267884, Note_on_c, 0, 87, 74
1, 267894, Note_off_c, 0, 83, 63
1, 268003, Control_c, 0, 64, 98
1, 268018, Control_c, 0, 64, 75
1, 268029, Note_on_c, 0, 88, 74
1, 268033, Control_c, 0, 64, 60
1, 268047, Control_c, 0, 64, 42
1, 268048, Note_off_c, 0, 87, 65
1, 268062, Control_c, 0, 64, 0
1, 268121, Control_c, 0, 64, 34
1, 268123, Note_on_c, 0, 83, 68
1, 268144, Control_c, 0, 64, 48
1, 268147, Note_off_c, 0, 88, 57
1, 268159, Control_c, 0, 64, 61
1, 268173, Control_c, 0, 64, 70
1, 268188, Control_c, 0, 64, 76
1, 268203, Control_c, 0, 64, 76
1, 268218, Control_c, 0, 64, 76
1, 268219, Note_off_c, 0, 83, 65
1, 268226, Note_on_c, 0, 84, 76
1, 268233, Control_c, 0, 64, 70
1, 268247, Control_c, 0, 64, 62
1, 268262, Control_c, 0, 64, 54
1, 268292, Control_c, 0, 64, 63
1, 268305, Note_on_c, 0, 81, 81
1, 268306, Note_off_c, 0, 84, 62
1, 268306, Control_c, 0, 64, 74
1, 268321, Control_c, 0, 64, 81
1, 268351, Control_c, 0, 64, 77
1, 268365, Control_c, 0, 64, 66
1, 268378, Note_off_c, 0, 81, 55
1, 268380, Control_c, 0, 64, 54
1, 268395, Control_c, 0, 64, 39
1, 268401, Note_on_c, 0, 83, 72
1, 268425, Control_c, 0, 64, 48
1, 268439, Control_c, 0, 64, 56
1, 268454, Control_c, 0, 64, 58
1, 268469, Control_c, 0, 64, 53
1, 268474, Note_off_c, 0, 83, 65
1, 268484, Control_c, 0, 64, 36
1, 268488, Note_on_c, 0, 79, 79
1, 268499, Control_c, 0, 64, 0
1, 268514, Control_c, 0, 64, 8
1, 268529, Control_c, 0, 64, 31
1, 268544, Control_c, 0, 64, 44
1, 268559, Control_c, 0, 64, 52
1, 268569, Note_on_c, 0, 81, 79
1, 268574, Control_c, 0, 64, 53
1, 268588, Note_off_c, 0, 79, 58
1, 268588, Control_c, 0, 64, 51
1, 268603, Control_c, 0, 64, 43
1, 268618, Control_c, 0, 64, 31
1, 268633, Control_c, 0, 64, 26
1, 268655, Note_off_c, 0, 81, 64
1, 268657, Note_on_c, 0, 78, 79
1, 268692, Control_c, 0, 64, 24
1, 268707, Control_c, 0, 64, 18
1, 268722, Control_c, 0, 64, 0
1, 268731, Note_off_c, 0, 78, 66
1, 268737, Note_on_c, 0, 79, 78
1, 268796, Control_c, 0, 67, 9
1, 268811, Control_c, 0, 67, 12
1, 268814, Note_off_c, 0, 79, 60
1, 268820, Note_on_c, 0, 81, 83
1, 268826, Control_c, 0, 67, 20
1, 268841, Control_c, 0, 67, 27
1, 268856, Control_c, 0, 67, 35
1, 268870, Control_c, 0, 67, 40
1, 268885, Control_c, 0, 67, 43
1, 268907, Control_c, 0, 67, 47
1, 268908, Note_off_c, 0, 81, 64
1, 268915, Note_on_c, 0, 83, 73
1, 268922, Control_c, 0, 67, 53
1, 268937, Control_c, 0, 67, 58
1, 268952, Control_c, 0, 67, 64
1, 268967, Control_c, 0, 67, 69
1, 268981, Control_c, 0, 67, 74
1, 268994, Note_off_c, 0, 83, 66
1, 268996, Control_c, 0, 67, 77
1, 269000, Note_on_c, 0, 81, 79
1, 269011, Control_c, 0, 67, 78
1, 269026, Control_c, 0, 67, 79
1, 269062, Note_off_c, 0, 81, 61
1, 269070, Control_c, 0, 67, 78
1, 269085, Control_c, 0, 67, 78
1, 269087, Note_on_c, 0, 79, 72
1, 269100, Control_c, 0, 67, 77
1, 269115, Control_c, 0, 67, 76
1, 269150, Note_off_c, 0, 79, 57
1, 269166, Note_on_c, 0, 78, 72
1, 269218, Control_c, 0, 67, 76
1, 269241, Note_off_c, 0, 78, 67
1, 269256, Note_on_c, 0, 76, 67
1, 269288, Note_off_c, 0, 76, 60
1, 269307, Control_c, 0, 67, 75
1, 269330, Note_on_c, 0, 74, 66
1, 269416, Note_off_c, 0, 74, 59
1, 269439, Note_on_c, 0, 73, 58
1, 269470, Control_c, 0, 67, 74
1, 269485, Control_c, 0, 67, 73
1, 269500, Control_c, 0, 67, 72
1, 269515, Control_c, 0, 67, 71
1, 269530, Control_c, 0, 67, 69
1, 269545, Control_c, 0, 67, 67
1, 269548, Note_on_c, 0, 57, 41
1, 269560, Control_c, 0, 64, 20
1, 269560, Control_c, 0, 67, 63
1, 269575, Control_c, 0, 64, 33
1, 269575, Control_c, 0, 67, 56
1, 269589, Note_off_c, 0, 73, 62
1, 269590, Control_c, 0, 64, 44
1, 269590, Control_c, 0, 67, 44
1, 269605, Control_c, 0, 64, 53
1, 269605, Control_c, 0, 67, 26
1, 269619, Control_c, 0, 64, 60
1, 269619, Control_c, 0, 67, 0
1, 269634, Control_c, 0, 64, 64
1, 269649, Note_on_c, 0, 61, 56
1, 269657, Control_c, 0, 64, 66
1, 269670, Note_off_c, 0, 57, 37
1, 269671, Control_c, 0, 64, 68
1, 269686, Control_c, 0, 64, 70
1, 269701, Control_c, 0, 64, 72
1, 269713, Note_off_c, 0, 61, 60
1, 269716, Control_c, 0, 64, 75
1, 269718, Note_on_c, 0, 64, 55
1, 269731, Control_c, 0, 64, 77
1, 269745, Control_c, 0, 64, 79
1, 269760, Control_c, 0, 64, 80
1, 269775, Control_c, 0, 64, 82
1, 269790, Control_c, 0, 64, 84
1, 269805, Control_c, 0, 64, 87
1, 269810, Note_on_c, 0, 67, 69
1, 269819, Control_c, 0, 64, 88
1, 269822, Note_off_c, 0, 64, 62
1, 269834, Control_c, 0, 64, 89
1, 269843, Note_off_c, 0, 67, 64
1, 269849, Control_c, 0, 64, 90
1, 269879, Control_c, 0, 64, 91
1, 269887, Note_on_c, 0, 69, 74
1, 269894, Control_c, 0, 64, 93
1, 269908, Control_c, 0, 64, 94
1, 269923, Control_c, 0, 64, 94
1, 269968, Control_c, 0, 64, 95
1, 269977, Note_on_c, 0, 73, 80
1, 269979, Note_off_c, 0, 69, 59
1, 269983, Control_c, 0, 64, 95
1, 270063, Note_on_c, 0, 76, 82
1, 270070, Note_off_c, 0, 73, 64
1, 270101, Control_c, 0, 64, 92
1, 270117, Control_c, 0, 64, 89
1, 270132, Control_c, 0, 64, 86
1, 270147, Control_c, 0, 64, 81
1, 270161, Control_c, 0, 64, 74
1, 270176, Control_c, 0, 64, 65
1, 270178, Note_on_c, 0, 79, 72
1, 270187, Note_off_c, 0, 76, 62
1, 270191, Control_c, 0, 64, 54
1, 270206, Control_c, 0, 64, 30
1, 270221, Control_c, 0, 64, 0
1, 270272, Note_on_c, 0, 57, 60
1, 270294, Control_c, 0, 64, 26
1, 270309, Control_c, 0, 64, 42
1, 270324, Control_c, 0, 64, 60
1, 270339, Control_c, 0, 64, 70
1, 270354, Control_c, 0, 64, 75
1, 270359, Note_on_c, 0, 61, 71
1, 270368, Control_c, 0, 64, 76
1, 270370, Note_off_c, 0, 79, 59
1, 270391, Control_c, 0, 64, 78
1, 270398, Note_off_c, 0, 57, 63
1, 270406, Control_c, 0, 64, 80
1, 270421, Control_c, 0, 64, 82
1, 270436, Control_c, 0, 64, 81
1, 270450, Control_c, 0, 64, 75
1, 270455, Note_on_c, 0, 62, 85
1, 270465, Control_c, 0, 64, 65
1, 270467, Note_off_c, 0, 61, 64
1, 270480, Control_c, 0, 64, 54
1, 270494, Control_c, 0, 64, 25
1, 270509, Control_c, 0, 64, 0
1, 270565, Note_on_c, 0, 66, 83
1, 270568, Control_c, 0, 64, 31
1, 270583, Control_c, 0, 64, 37
1, 270598, Control_c, 0, 64, 33
1, 270600, Note_off_c, 0, 62, 63
1, 270613, Control_c, 0, 64, 0
1, 270658, Note_on_c, 0, 69, 75
1, 270701, Control_c, 0, 64, 19
1, 270716, Control_c, 0, 64, 34
1, 270731, Control_c, 0, 64, 47
1, 270746, Control_c, 0, 64, 60
1, 270748, Note_on_c, 0, 74, 81
1, 270753, Note_off_c, 0, 69, 62
1, 270761, Control_c, 0, 64, 67
1, 270764, Note_off_c, 0, 66, 51
1, 270776, Control_c, 0, 64, 69
1, 270791, Control_c, 0, 64, 68
1, 270806, Control_c, 0, 64, 61
1, 270820, Control_c, 0, 64, 44
1, 270827, Note_on_c, 0, 78, 84
1, 270835, Control_c, 0, 64, 0
1, 270844, Note_off_c, 0, 74, 64
1, 270865, Control_c, 0, 64, 27
1, 270880, Control_c, 0, 64, 46
1, 270894, Control_c, 0, 64, 63
1, 270910, Control_c, 0, 64, 73
1, 270925, Control_c, 0, 64, 75
1, 270926, Note_on_c, 0, 81, 86
1, 270931, Note_off_c, 0, 78, 66
1, 270940, Control_c, 0, 64, 77
1, 270955, Control_c, 0, 64, 79
1, 270970, Control_c, 0, 64, 83
1, 270984, Control_c, 0, 64, 86
1, 270999, Control_c, 0, 64, 87
1, 271010, Note_off_c, 0, 81, 65
1, 271013, Note_on_c, 0, 74, 82
1, 271014, Control_c, 0, 64, 88
1, 271043, Control_c, 0, 64, 86
1, 271057, Control_c, 0, 64, 77
1, 271072, Control_c, 0, 64, 64
1, 271087, Control_c, 0, 64, 45
1, 271102, Control_c, 0, 64, 0
1, 271110, Note_on_c, 0, 78, 84
1, 271116, Control_c, 0, 64, 8
1, 271122, Note_off_c, 0, 74, 62
1, 271139, Control_c, 0, 64, 28
1, 271154, Control_c, 0, 64, 45
1, 271169, Control_c, 0, 64, 58
1, 271184, Control_c, 0, 64, 67
1, 271198, Control_c, 0, 64, 69
1, 271208, Note_on_c, 0, 81, 88
1, 271213, Control_c, 0, 64, 71
1, 271228, Control_c, 0, 64, 72
1, 271236, Note_off_c, 0, 78, 67
1, 271242, Control_c, 0, 64, 75
1, 271257, Control_c, 0, 64, 78
1, 271272, Control_c, 0, 64, 80
1, 271302, Control_c, 0, 64, 81
1, 271331, Control_c, 0, 64, 82
1, 271346, Control_c, 0, 64, 82
1, 271376, Control_c, 0, 64, 81
1, 271390, Control_c, 0, 64, 77
1, 271405, Control_c, 0, 64, 72
1, 271420, Control_c, 0, 64, 68
1, 271421, Note_on_c, 0, 86, 94
1, 271435, Control_c, 0, 64, 61
1, 271447, Note_off_c, 0, 81, 63
1, 271450, Control_c, 0, 64, 48
1, 271465, Control_c, 0, 64, 0
1, 271554, Control_c, 0, 64, 28
1, 271569, Control_c, 0, 64, 52
1, 271584, Control_c, 0, 64, 66
1, 271584, Control_c, 0, 67, 8
1, 271598, Control_c, 0, 64, 80
1, 271598, Control_c, 0, 67, 10
1, 271613, Control_c, 0, 64, 84
1, 271613, Control_c, 0, 67, 13
1, 271628, Control_c, 0, 64, 84
1, 271628, Control_c, 0, 67, 16
1, 271642, Control_c, 0, 64, 87
1, 271642, Control_c, 0, 67, 21
1, 271657, Control_c, 0, 64, 93
1, 271657, Control_c, 0, 67, 25
1, 271672, Control_c, 0, 64, 100
1, 271672, Control_c, 0, 67, 30
1, 271676, Note_off_c, 0, 86, 55
1, 271687, Control_c, 0, 64, 108
1, 271687, Control_c, 0, 67, 34
1, 271702, Control_c, 0, 64, 111
1, 271702, Control_c, 0, 67, 39
1, 271718, Control_c, 0, 64, 115
1, 271718, Control_c, 0, 67, 44
1, 271732, Control_c, 0, 64, 127
1, 271732, Control_c, 0, 67, 48
1, 271747, Control_c, 0, 67, 51
1, 271762, Control_c, 0, 67, 54
1, 271777, Control_c, 0, 67, 55
1, 271792, Control_c, 0, 67, 55
1, 271807, Control_c, 0, 67, 56
1, 271959, Note_on_c, 0, 78, 80
1, 272034, Note_off_c, 0, 78, 68
1, 272065, Control_c, 0, 67, 56
1, 272091, Note_on_c, 0, 78, 66
1, 272125, Control_c, 0, 67, 57
1, 272126, Note_on_c, 0, 57, 46
1, 272139, Control_c, 0, 64, 110
1, 272139, Control_c, 0, 67, 57
1, 272141, Note_on_c, 0, 62, 41
1, 272154, Control_c, 0, 64, 85
1, 272154, Control_c, 0, 67, 59
1, 272169, Control_c, 0, 64, 67
1, 272169, Control_c, 0, 67, 62
1, 272184, Control_c, 0, 64, 53
1, 272184, Control_c, 0, 67, 68
1, 272199, Control_c, 0, 64, 20
1, 272199, Control_c, 0, 67, 74
1, 272213, Control_c, 0, 64, 0
1, 272213, Control_c, 0, 67, 81
1, 272228, Control_c, 0, 67, 86
1, 272234, Note_off_c, 0, 78, 65
1, 272243, Control_c, 0, 64, 28
1, 272243, Control_c, 0, 67, 91
1, 272257, Control_c, 0, 64, 44
1, 272257, Control_c, 0, 67, 95
1, 272261, Note_on_c, 0, 79, 54
1, 272272, Control_c, 0, 64, 57
1, 272272, Control_c, 0, 67, 98
1, 272287, Control_c, 0, 64, 66
1, 272287, Control_c, 0, 67, 101
1, 272302, Control_c, 0, 64, 71
1, 272302, Control_c, 0, 67, 104
1, 272317, Control_c, 0, 64, 73
1, 272317, Control_c, 0, 67, 107
1, 272329, Note_off_c, 0, 79, 61
1, 272332, Control_c, 0, 64, 74
1, 272332, Control_c, 0, 67, 110
1, 272340, Note_on_c, 0, 78, 64
1, 272347, Control_c, 0, 64, 76
1, 272347, Control_c, 0, 67, 115
1, 272362, Control_c, 0, 64, 79
1, 272362, Control_c, 0, 67, 118
1, 272367, Note_off_c, 0, 78, 63
1, 272377, Control_c, 0, 64, 81
1, 272377, Control_c, 0, 67, 121
1, 272384, Note_on_c, 0, 79, 59
1, 272392, Control_c, 0, 64, 82
1, 272392, Control_c, 0, 67, 124
1, 272406, Control_c, 0, 64, 83
1, 272406, Control_c, 0, 67, 126
1, 272421, Control_c, 0, 64, 83
1, 272421, Control_c, 0, 67, 127
1, 272436, Control_c, 0, 64, 84
1, 272445, Note_off_c, 0, 79, 62
1, 272451, Note_on_c, 0, 78, 67
1, 272451, Control_c, 0, 64, 84
1, 272478, Poly_aftertouch_c, 0, 79, 0
1, 272481, Control_c, 0, 64, 84
1, 272486, Note_off_c, 0, 78, 61
1, 272488, Note_on_c, 0, 79, 58
1, 272511, Control_c, 0, 64, 83
1, 272526, Control_c, 0, 64, 80
1, 272542, Control_c, 0, 64, 74
1, 272550, Note_off_c, 0, 79, 62
1, 272557, Control_c, 0, 64, 65
1, 272564, Note_on_c, 0, 78, 58
1, 272571, Control_c, 0, 64, 55
1, 272586, Control_c, 0, 64, 38
1, 272601, Control_c, 0, 64, 11
1, 272616, Control_c, 0, 64, 0
1, 272967, Note_off_c, 0, 78, 61
1, 272988, Note_on_c, 0, 76, 49
1, 273080, Note_off_c, 0, 76, 59
1, 273084, Note_on_c, 0, 78, 69
1, 273246, Note_on_c, 0, 76, 45
1, 273269, Note_on_c, 0, 61, 29
1, 273284, Note_off_c, 0, 78, 64
1, 273349, Note_off_c, 0, 62, 37
1, 273830, Control_c, 0, 64, 11
1, 273844, Control_c, 0, 64, 28
1, 273859, Control_c, 0, 64, 41
1, 273874, Control_c, 0, 64, 50
1, 273889, Control_c, 0, 64, 57
1, 273904, Control_c, 0, 64, 61
1, 273918, Control_c, 0, 64, 63
1, 273933, Control_c, 0, 64, 64
1, 273948, Control_c, 0, 64, 65
1, 273963, Control_c, 0, 64, 67
1, 273977, Control_c, 0, 64, 70
1, 273992, Control_c, 0, 64, 72
1, 274007, Control_c, 0, 64, 73
1, 274022, Control_c, 0, 64, 74
1, 274238, Note_off_c, 0, 57, 35
1, 274327, Control_c, 0, 64, 73
1, 274333, Note_off_c, 0, 61, 38
1, 274341, Control_c, 0, 64, 73
1, 274357, Note_off_c, 0, 76, 29
1, 274386, Control_c, 0, 64, 72
1, 274416, Control_c, 0, 64, 72
1, 274431, Control_c, 0, 64, 71
1, 274460, Control_c, 0, 64, 71
1, 274475, Control_c, 0, 64, 70
1, 274490, Control_c, 0, 64, 69
1, 274505, Control_c, 0, 64, 68
1, 274520, Control_c, 0, 64, 67
1, 274534, Control_c, 0, 64, 66
1, 274549, Control_c, 0, 64, 65
1, 274564, Control_c, 0, 64, 64
1, 274579, Control_c, 0, 64, 63
1, 274594, Control_c, 0, 64, 62
1, 274608, Control_c, 0, 64, 62
1, 274623, Control_c, 0, 64, 61
1, 274638, Control_c, 0, 64, 60
1, 274653, Control_c, 0, 64, 60
1, 274682, Control_c, 0, 64, 59
1, 274697, Control_c, 0, 64, 58
1, 274712, Control_c, 0, 64, 56
1, 274727, Control_c, 0, 64, 55
1, 274756, Control_c, 0, 64, 54
1, 274771, Control_c, 0, 64, 53
1, 274785, Control_c, 0, 64, 51
1, 274800, Control_c, 0, 64, 49
1, 274815, Control_c, 0, 64, 46
1, 274830, Control_c, 0, 64, 43
1, 274845, Control_c, 0, 64, 40
1, 274860, Control_c, 0, 64, 36
1, 274875, Control_c, 0, 64, 30
1, 274897, Control_c, 0, 64, 21
1, 274913, Control_c, 0, 64, 0
1, 275076, Control_c, 0, 64, 21
1, 275090, Control_c, 0, 64, 33
1, 275105, Control_c, 0, 64, 44
1, 275120, Control_c, 0, 64, 52
1, 275135, Control_c, 0, 64, 57
1, 275150, Control_c, 0, 64, 60
1, 275164, Control_c, 0, 64, 62
1, 275179, Control_c, 0, 64, 63
1, 275194, Control_c, 0, 64, 65
1, 275209, Control_c, 0, 64, 66
1, 275224, Control_c, 0, 64, 68
1, 275227, Note_on_c, 0, 69, 49
1, 275238, Control_c, 0, 64, 70
1, 275253, Control_c, 0, 64, 71
1, 275268, Control_c, 0, 64, 72
1, 275298, Control_c, 0, 64, 73
1, 275313, Control_c, 0, 64, 75
1, 275328, Control_c, 0, 64, 76
1, 275343, Control_c, 0, 64, 77
1, 275402, Control_c, 0, 64, 77
1, 275416, Control_c, 0, 64, 78
1, 275606, Note_on_c, 0, 74, 69
1, 275608, Control_c, 0, 64, 77
1, 275623, Control_c, 0, 64, 76
1, 275624, Note_on_c, 0, 66, 35
1, 275645, Note_on_c, 0, 62, 35
1, 275646, Control_c, 0, 64, 75
1, 275661, Control_c, 0, 64, 74
1, 275676, Control_c, 0, 64, 71
1, 275690, Control_c, 0, 64, 66
1, 275706, Control_c, 0, 64, 58
1, 275721, Control_c, 0, 64, 38
1, 275736, Control_c, 0, 64, 0
1, 275744, Note_off_c, 0, 69, 52
1, 275839, Control_c, 0, 67, 120
1, 275854, Control_c, 0, 64, 23
1, 275854, Control_c, 0, 67, 98
1, 275869, Control_c, 0, 64, 45
1, 275869, Control_c, 0, 67, 67
1, 275884, Control_c, 0, 64, 59
1, 275884, Control_c, 0, 67, 22
1, 275899, Control_c, 0, 64, 66
1, 275899, Control_c, 0, 67, 0
1, 275913, Control_c, 0, 64, 70
1, 275928, Control_c, 0, 64, 73
1, 275943, Control_c, 0, 64, 82
1, 275951, Note_off_c, 0, 74, 54
1, 275958, Control_c, 0, 64, 98
1, 275973, Control_c, 0, 64, 127
1, 276180, Control_c, 0, 67, 11
1, 276195, Control_c, 0, 67, 16
1, 276210, Control_c, 0, 67, 25
1, 276225, Control_c, 0, 67, 36
1, 276239, Control_c, 0, 67, 49
1, 276254, Control_c, 0, 67, 62
1, 276269, Control_c, 0, 67, 71
1, 276285, Control_c, 0, 67, 78
1, 276300, Control_c, 0, 67, 85
1, 276314, Control_c, 0, 67, 92
1, 276329, Control_c, 0, 67, 99
1, 276344, Control_c, 0, 67, 106
1, 276359, Control_c, 0, 67, 112
1, 276374, Control_c, 0, 67, 118
1, 276395, Control_c, 0, 67, 123
1, 276410, Control_c, 0, 67, 127
1, 276413, Note_off_c, 0, 66, 41
1, 276427, Note_off_c, 0, 62, 42
1, 276465, Note_on_c, 0, 74, 57
1, 276531, Note_off_c, 0, 74, 61
1, 276701, Note_on_c, 0, 66, 42
1, 276708, Control_c, 0, 64, 85
1, 276717, Note_on_c, 0, 74, 54
1, 276718, Note_on_c, 0, 62, 36
1, 276723, Control_c, 0, 64, 64
1, 276737, Control_c, 0, 64, 50
1, 276737, Control_c, 0, 67, 127
1, 276752, Control_c, 0, 64, 30
1, 276752, Control_c, 0, 67, 126
1, 276767, Control_c, 0, 64, 30
1, 276767, Control_c, 0, 67, 126
1, 276782, Control_c, 0, 64, 39
1, 276782, Control_c, 0, 67, 123
1, 276797, Control_c, 0, 64, 50
1, 276797, Control_c, 0, 67, 120
1, 276811, Note_off_c, 0, 74, 63
1, 276811, Control_c, 0, 64, 62
1, 276811, Control_c, 0, 67, 114
1, 276818, Note_on_c, 0, 78, 68
1, 276826, Control_c, 0, 64, 74
1, 276826, Control_c, 0, 67, 104
1, 276841, Control_c, 0, 64, 82
1, 276841, Control_c, 0, 67, 87
1, 276855, Control_c, 0, 64, 84
1, 276855, Control_c, 0, 67, 63
1, 276870, Control_c, 0, 64, 86
1, 276870, Control_c, 0, 67, 33
1, 276885, Control_c, 0, 64, 91
1, 276885, Control_c, 0, 67, 0
1, 276899, Note_off_c, 0, 78, 66
1, 276900, Control_c, 0, 64, 95
1, 276913, Note_on_c, 0, 76, 78
1, 276915, Control_c, 0, 64, 95
1, 276944, Control_c, 0, 64, 93
1, 276959, Control_c, 0, 64, 89
1, 276973, Control_c, 0, 64, 84
1, 276988, Control_c, 0, 64, 78
1, 276997, Note_on_c, 0, 79, 78
1, 277001, Note_off_c, 0, 76, 63
1, 277003, Control_c, 0, 64, 70
1, 277018, Control_c, 0, 64, 62
1, 277033, Control_c, 0, 64, 53
1, 277048, Control_c, 0, 64, 44
1, 277063, Control_c, 0, 64, 36
1, 277078, Control_c, 0, 64, 25
1, 277092, Control_c, 0, 64, 0
1, 277101, Note_on_c, 0, 78, 79
1, 277103, Note_off_c, 0, 79, 64
1, 277203, Note_on_c, 0, 81, 79
1, 277206, Note_off_c, 0, 78, 65
1, 277265, Note_off_c, 0, 62, 45
1, 277265, Note_off_c, 0, 81, 62
1, 277293, Note_on_c, 0, 79, 81
1, 277298, Note_off_c, 0, 66, 63
1, 277371, Note_off_c, 0, 79, 61
1, 277379, Note_on_c, 0, 83, 72
1, 277450, Note_off_c, 0, 83, 64
1, 277486, Note_on_c, 0, 81, 73
1, 277516, Note_off_c, 0, 81, 65
1, 277694, Note_on_c, 0, 83, 68
1, 277710, Note_off_c, 0, 83, 70
1, 277901, Note_on_c, 0, 85, 78
1, 277922, Note_off_c, 0, 85, 71
1, 278116, Note_on_c, 0, 86, 95
1, 278142, Note_off_c, 0, 86, 66
1, 278368, Control_c, 0, 64, 8
1, 278377, Note_on_c, 0, 88, 95
1, 278382, Control_c, 0, 64, 24
1, 278397, Note_off_c, 0, 88, 70
1, 278397, Control_c, 0, 64, 35
1, 278406, Note_on_c, 0, 62, 44
1, 278407, Note_on_c, 0, 67, 49
1, 278412, Control_c, 0, 64, 45
1, 278426, Control_c, 0, 64, 55
1, 278441, Control_c, 0, 64, 64
1, 278456, Control_c, 0, 64, 68
1, 278471, Control_c, 0, 64, 70
1, 278486, Control_c, 0, 64, 73
1, 278500, Control_c, 0, 64, 79
1, 278515, Control_c, 0, 64, 86
1, 278530, Control_c, 0, 64, 91
1, 278545, Control_c, 0, 64, 94
1, 278560, Control_c, 0, 64, 96
1, 278574, Control_c, 0, 64, 96
1, 278589, Control_c, 0, 64, 97
1, 278604, Control_c, 0, 64, 99
1, 278626, Control_c, 0, 64, 100
1, 278671, Control_c, 0, 64, 100
1, 278686, Control_c, 0, 64, 99
1, 278700, Control_c, 0, 64, 99
1, 278730, Control_c, 0, 64, 98
1, 278745, Control_c, 0, 64, 94
1, 278760, Control_c, 0, 64, 89
1, 278774, Control_c, 0, 64, 85
1, 278786, Note_on_c, 0, 76, 78
1, 278789, Control_c, 0, 64, 81
1, 278804, Control_c, 0, 64, 77
1, 278819, Control_c, 0, 64, 72
1, 278833, Control_c, 0, 64, 64
1, 278848, Control_c, 0, 64, 56
1, 278863, Control_c, 0, 64, 41
1, 278878, Control_c, 0, 64, 11
1, 278878, Control_c, 0, 67, 9
1, 278893, Control_c, 0, 64, 0
1, 278893, Control_c, 0, 67, 14
1, 278909, Control_c, 0, 67, 20
1, 278923, Control_c, 0, 67, 29
1, 278938, Control_c, 0, 67, 38
1, 278953, Control_c, 0, 67, 47
1, 278968, Control_c, 0, 67, 55
1, 278983, Control_c, 0, 67, 64
1, 278997, Control_c, 0, 67, 76
1, 279012, Control_c, 0, 67, 86
1, 279027, Control_c, 0, 67, 94
1, 279042, Control_c, 0, 67, 102
1, 279057, Control_c, 0, 67, 109
1, 279072, Control_c, 0, 67, 116
1, 279087, Control_c, 0, 67, 122
1, 279102, Control_c, 0, 67, 127
1, 279206, Note_off_c, 0, 76, 60
1, 279217, Note_on_c, 0, 79, 65
1, 279318, Note_off_c, 0, 79, 61
1, 279321, Note_on_c, 0, 76, 62
1, 279412, Note_off_c, 0, 76, 65
1, 279423, Note_on_c, 0, 73, 61
1, 279540, Note_off_c, 0, 73, 61
1, 279566, Note_on_c, 0, 74, 52
1, 279567, Note_on_c, 0, 66, 35
1, 279629, Note_off_c, 0, 67, 59
1, 279881, Control_c, 0, 64, 16
1, 279896, Control_c, 0, 64, 30
1, 279911, Control_c, 0, 64, 41
1, 279926, Control_c, 0, 64, 52
1, 279941, Control_c, 0, 64, 59
1, 279955, Control_c, 0, 64, 63
1, 279970, Control_c, 0, 64, 65
1, 279985, Control_c, 0, 64, 67
1, 279999, Control_c, 0, 64, 70
1, 280008, Note_off_c, 0, 62, 33
1, 280014, Control_c, 0, 64, 74
1, 280029, Control_c, 0, 64, 77
1, 280044, Control_c, 0, 64, 80
1, 280059, Control_c, 0, 64, 82
1, 280072, Note_off_c, 0, 74, 59
1, 280073, Control_c, 0, 64, 85
1, 280088, Control_c, 0, 64, 87
1, 280103, Control_c, 0, 64, 89
1, 280118, Control_c, 0, 64, 92
1, 280141, Control_c, 0, 64, 94
1, 280155, Control_c, 0, 64, 95
1, 280167, Note_off_c, 0, 66, 41
1, 280200, Control_c, 0, 64, 96
1, 280214, Control_c, 0, 64, 97
1, 280229, Control_c, 0, 64, 98
1, 280333, Control_c, 0, 64, 97
1, 280340, Note_on_c, 0, 62, 50
1, 280348, Control_c, 0, 64, 96
1, 280363, Control_c, 0, 64, 94
1, 280377, Control_c, 0, 64, 93
1, 280389, Note_off_c, 0, 62, 57
1, 280392, Control_c, 0, 64, 91
1, 280397, Note_on_c, 0, 64, 55
1, 280407, Control_c, 0, 64, 86
1, 280422, Control_c, 0, 64, 78
1, 280437, Control_c, 0, 64, 70
1, 280452, Control_c, 0, 64, 64
1, 280455, Note_on_c, 0, 66, 62
1, 280457, Note_off_c, 0, 64, 56
1, 280467, Control_c, 0, 64, 57
1, 280481, Control_c, 0, 64, 48
1, 280489, Note_off_c, 0, 66, 63
1, 280496, Note_on_c, 0, 67, 65
1, 280497, Control_c, 0, 64, 33
1, 280512, Control_c, 0, 64, 10
1, 280526, Control_c, 0, 64, 0
1, 280536, Note_on_c, 0, 69, 68
1, 280569, Note_off_c, 0, 67, 50
1, 280571, Note_off_c, 0, 69, 64
1, 280585, Note_on_c, 0, 71, 66
1, 280625, Note_off_c, 0, 71, 64
1, 280628, Note_on_c, 0, 73, 73
1, 280651, Note_off_c, 0, 73, 69
1, 280687, Note_on_c, 0, 74, 78
1, 280726, Note_off_c, 0, 74, 66
1, 280738, Note_on_c, 0, 76, 71
1, 280777, Note_off_c, 0, 76, 66
1, 280779, Note_on_c, 0, 78, 72
1, 280803, Note_off_c, 0, 78, 72
1, 280842, Note_on_c, 0, 79, 74
1, 280884, Note_off_c, 0, 79, 63
1, 280908, Note_on_c, 0, 81, 70
1, 280959, Note_off_c, 0, 81, 62
1, 280959, Note_on_c, 0, 83, 73
1, 281015, Note_off_c, 0, 83, 64
1, 281023, Control_c, 0, 67, 108
1, 281032, Note_on_c, 0, 81, 80
1, 281037, Control_c, 0, 67, 75
1, 281052, Control_c, 0, 67, 42
1, 281067, Control_c, 0, 67, 14
1, 281075, Note_off_c, 0, 81, 61
1, 281082, Control_c, 0, 67, 0
1, 281123, Note_on_c, 0, 79, 74
1, 281144, Note_on_c, 0, 74, 50
1, 281144, Note_on_c, 0, 71, 40
1, 281185, Note_off_c, 0, 74, 66
1, 281191, Note_off_c, 0, 71, 66
1, 281200, Note_off_c, 0, 79, 62
1, 281354, Note_on_c, 0, 79, 76
1, 281427, Note_off_c, 0, 79, 56
1, 281439, Note_on_c, 0, 83, 77
1, 281533, Note_off_c, 0, 83, 66
1, 281540, Note_on_c, 0, 86, 82
1, 281629, Note_on_c, 0, 83, 78
1, 281638, Note_off_c, 0, 86, 58
1, 281694, Note_off_c, 0, 83, 64
1, 281724, Note_on_c, 0, 79, 79
1, 281725, Note_on_c, 0, 73, 59
1, 281731, Note_on_c, 0, 69, 53
1, 281748, Note_off_c, 0, 73, 64
1, 281756, Note_off_c, 0, 69, 60
1, 281773, Note_off_c, 0, 79, 65
1, 281800, Control_c, 0, 67, 8
1, 281803, Note_on_c, 0, 78, 80
1, 281815, Control_c, 0, 67, 9
1, 281830, Control_c, 0, 67, 10
1, 281845, Control_c, 0, 67, 11
1, 281859, Control_c, 0, 67, 14
1, 281871, Note_off_c, 0, 78, 63
1, 281874, Control_c, 0, 67, 23
1, 281889, Control_c, 0, 67, 34
1, 281904, Control_c, 0, 67, 42
1, 281919, Control_c, 0, 67, 47
1, 281923, Note_on_c, 0, 76, 72
1, 281933, Control_c, 0, 67, 51
1, 281946, Note_on_c, 0, 67, 49
1, 281948, Control_c, 0, 67, 56
1, 281949, Note_on_c, 0, 71, 47
1, 281963, Control_c, 0, 67, 64
1, 281973, Note_off_c, 0, 76, 61
1, 281976, Note_off_c, 0, 67, 56
1, 281978, Note_off_c, 0, 71, 59
1, 281978, Control_c, 0, 67, 72
1, 281993, Control_c, 0, 67, 82
1, 282008, Control_c, 0, 67, 90
1, 282023, Control_c, 0, 67, 96
1, 282038, Control_c, 0, 67, 98
1, 282052, Control_c, 0, 67, 99
1, 282112, Control_c, 0, 67, 99
1, 282148, Note_on_c, 0, 76, 60
1, 282214, Note_off_c, 0, 76, 58
1, 282241, Note_on_c, 0, 79, 62
1, 282311, Note_off_c, 0, 79, 61
1, 282320, Control_c, 0, 67, 100
1, 282335, Control_c, 0, 67, 101
1, 282337, Note_on_c, 0, 83, 69
1, 282349, Control_c, 0, 67, 102
1, 282372, Control_c, 0, 67, 103
1, 282387, Control_c, 0, 67, 104
1, 282401, Control_c, 0, 67, 105
1, 282412, Note_off_c, 0, 83, 63
1, 282416, Control_c, 0, 67, 107
1, 282425, Note_on_c, 0, 79, 64
1, 282431, Control_c, 0, 67, 108
1, 282482, Note_off_c, 0, 79, 59
1, 282513, Note_on_c, 0, 76, 75
1, 282538, Note_on_c, 0, 69, 46
1, 282540, Note_off_c, 0, 76, 66
1, 282544, Note_on_c, 0, 66, 41
1, 282565, Note_off_c, 0, 69, 56
1, 282583, Note_off_c, 0, 66, 48
1, 282607, Note_on_c, 0, 74, 67
1, 282649, Note_off_c, 0, 74, 67
1, 282751, Note_on_c, 0, 73, 71
1, 282771, Note_on_c, 0, 67, 37
1, 282788, Note_on_c, 0, 64, 16
1, 282790, Note_off_c, 0, 73, 63
1, 282816, Control_c, 0, 67, 108
1, 282816, Note_off_c, 0, 67, 51
1, 282825, Note_off_c, 0, 64, 50
1, 282861, Control_c, 0, 67, 109
1, 282905, Control_c, 0, 67, 109
1, 282935, Control_c, 0, 67, 111
1, 282950, Control_c, 0, 67, 111
1, 282965, Control_c, 0, 67, 112
1, 283235, Note_on_c, 0, 74, 57
1, 283239, Control_c, 0, 67, 113
1, 283254, Control_c, 0, 67, 114
1, 283260, Note_on_c, 0, 62, 38
1, 283263, Note_on_c, 0, 66, 38
1, 283269, Control_c, 0, 67, 118
1, 283284, Control_c, 0, 67, 121
1, 283299, Control_c, 0, 67, 122
1, 283314, Control_c, 0, 67, 123
1, 283323, Note_off_c, 0, 62, 57
1, 283325, Note_off_c, 0, 74, 65
1, 283329, Control_c, 0, 67, 124
1, 283343, Control_c, 0, 67, 126
1, 283346, Note_off_c, 0, 66, 49
1, 283358, Control_c, 0, 67, 127
1, 283624, Control_c, 0, 64, 10
1, 283639, Control_c, 0, 64, 22
1, 283654, Control_c, 0, 64, 30
1, 283669, Control_c, 0, 64, 38
1, 283684, Control_c, 0, 64, 47
1, 283700, Control_c, 0, 64, 54
1, 283715, Control_c, 0, 64, 60
1, 283729, Control_c, 0, 64, 62
1, 283744, Control_c, 0, 64, 63
1, 283759, Control_c, 0, 64, 64
1, 283772, Note_on_c, 0, 57, 38
1, 283773, Control_c, 0, 64, 65
1, 283788, Control_c, 0, 64, 67
1, 283793, Note_on_c, 0, 78, 73
1, 283803, Control_c, 0, 64, 70
1, 283818, Control_c, 0, 64, 71
1, 283825, Note_on_c, 0, 74, 38
1, 283833, Control_c, 0, 64, 72
1, 283847, Control_c, 0, 64, 73
1, 283862, Control_c, 0, 64, 73
1, 283885, Control_c, 0, 64, 74
1, 283915, Control_c, 0, 64, 74
1, 283941, Note_on_c, 0, 59, 41
1, 283959, Note_off_c, 0, 57, 37
1, 284003, Control_c, 0, 64, 74
1, 284017, Note_off_c, 0, 59, 58
1, 284018, Control_c, 0, 64, 72
1, 284029, Note_on_c, 0, 61, 54
1, 284033, Control_c, 0, 64, 70
1, 284047, Control_c, 0, 64, 68
1, 284062, Control_c, 0, 64, 67
1, 284077, Control_c, 0, 64, 65
1, 284092, Control_c, 0, 64, 61
1, 284107, Control_c, 0, 64, 55
1, 284121, Note_off_c, 0, 61, 65
1, 284121, Control_c, 0, 64, 43
1, 284136, Note_on_c, 0, 62, 60
1, 284136, Control_c, 0, 64, 29
1, 284151, Control_c, 0, 64, 19
1, 284166, Control_c, 0, 64, 12
1, 284181, Control_c, 0, 64, 0
1, 284205, Note_off_c, 0, 62, 63
1, 284235, Note_on_c, 0, 64, 65
1, 284314, Note_off_c, 0, 64, 62
1, 284320, Note_on_c, 0, 66, 66
1, 284405, Note_on_c, 0, 68, 70
1, 284410, Note_off_c, 0, 66, 63
1, 284494, Note_on_c, 0, 69, 76
1, 284502, Note_off_c, 0, 68, 62
1, 284595, Note_on_c, 0, 68, 82
1, 284604, Note_off_c, 0, 69, 64
1, 284690, Note_off_c, 0, 68, 61
1, 284701, Note_on_c, 0, 69, 77
1, 284783, Note_off_c, 0, 69, 57
1, 284801, Note_on_c, 0, 68, 61
1, 284869, Note_off_c, 0, 68, 59
1, 284897, Note_on_c, 0, 69, 61
1, 284985, Note_off_c, 0, 69, 55
1, 285004, Note_on_c, 0, 68, 56
1, 285068, Note_off_c, 0, 68, 60
1, 285097, Note_on_c, 0, 69, 62
1, 285161, Note_off_c, 0, 69, 47
1, 285200, Note_on_c, 0, 68, 49
1, 285234, Note_off_c, 0, 68, 55
1, 285294, Note_on_c, 0, 69, 55
1, 285305, Note_off_c, 0, 74, 49
1, 285317, Note_off_c, 0, 69, 59
1, 285386, Note_off_c, 0, 78, 56
1, 285499, Note_on_c, 0, 76, 57
1, 285522, Note_on_c, 0, 57, 39
1, 285550, Note_on_c, 0, 73, 14
1, 285634, Control_c, 0, 64, 23
1, 285649, Control_c, 0, 64, 37
1, 285664, Control_c, 0, 64, 48
1, 285679, Control_c, 0, 64, 58
1, 285693, Control_c, 0, 64, 62
1, 285694, Note_off_c, 0, 76, 67
1, 285708, Control_c, 0, 64, 64
1, 285711, Note_off_c, 0, 57, 41
1, 285713, Note_off_c, 0, 73, 44
1, 285723, Control_c, 0, 64, 65
1, 285738, Control_c, 0, 64, 66
1, 285752, Control_c, 0, 64, 69
1, 285767, Control_c, 0, 64, 72
1, 285782, Control_c, 0, 64, 73
1, 285797, Control_c, 0, 64, 74
1, 285827, Control_c, 0, 64, 75
1, 285856, Control_c, 0, 64, 75
1, 285871, Control_c, 0, 64, 76
1, 286033, Control_c, 0, 64, 75
1, 286063, Control_c, 0, 64, 75
1, 286078, Control_c, 0, 64, 73
1, 286094, Control_c, 0, 64, 71
1, 286116, Control_c, 0, 64, 67
1, 286131, Control_c, 0, 64, 63
1, 286145, Control_c, 0, 64, 57
1, 286160, Control_c, 0, 64, 44
1, 286175, Control_c, 0, 64, 14
1, 286190, Control_c, 0, 64, 0
1, 286264, Control_c, 0, 67, 123
1, 286279, Control_c, 0, 64, 22
1, 286279, Control_c, 0, 67, 95
1, 286294, Control_c, 0, 64, 41
1, 286294, Control_c, 0, 67, 56
1, 286309, Control_c, 0, 64, 54
1, 286309, Control_c, 0, 67, 11
1, 286323, Control_c, 0, 64, 64
1, 286323, Control_c, 0, 67, 0
1, 286338, Control_c, 0, 64, 70
1, 286353, Control_c, 0, 64, 72
1, 286367, Control_c, 0, 64, 73
1, 286382, Control_c, 0, 64, 76
1, 286397, Control_c, 0, 64, 80
1, 286399, Note_on_c, 0, 74, 51
1, 286412, Control_c, 0, 64, 86
1, 286427, Control_c, 0, 64, 91
1, 286441, Control_c, 0, 64, 96
1, 286456, Control_c, 0, 64, 100
1, 286466, Note_off_c, 0, 74, 63
1, 286471, Control_c, 0, 64, 103
1, 286474, Note_on_c, 0, 78, 70
1, 286486, Control_c, 0, 64, 106
1, 286501, Control_c, 0, 64, 109
1, 286515, Control_c, 0, 64, 114
1, 286530, Control_c, 0, 64, 122
1, 286539, Note_on_c, 0, 81, 81
1, 286545, Control_c, 0, 64, 127
1, 286563, Note_off_c, 0, 78, 65
1, 286686, Note_on_c, 0, 54, 47
1, 286687, Note_on_c, 0, 50, 40
1, 286699, Note_on_c, 0, 57, 45
1, 286709, Control_c, 0, 64, 122
1, 286712, Note_on_c, 0, 86, 84
1, 286723, Control_c, 0, 64, 101
1, 286734, Note_off_c, 0, 81, 62
1, 286738, Control_c, 0, 64, 82
1, 286753, Control_c, 0, 64, 66
1, 286767, Control_c, 0, 64, 50
1, 286782, Control_c, 0, 64, 12
1, 286797, Control_c, 0, 64, 0
1, 286841, Control_c, 0, 64, 27
1, 286856, Control_c, 0, 64, 44
1, 286879, Control_c, 0, 64, 58
1, 286894, Control_c, 0, 64, 66
1, 286909, Control_c, 0, 64, 72
1, 286924, Control_c, 0, 64, 72
1, 286938, Control_c, 0, 64, 73
1, 286953, Control_c, 0, 64, 76
1, 286968, Control_c, 0, 64, 80
1, 286983, Control_c, 0, 64, 83
1, 286998, Control_c, 0, 64, 85
1, 287013, Control_c, 0, 64, 86
1, 287028, Note_off_c, 0, 86, 60
1, 287028, Control_c, 0, 64, 87
1, 287043, Control_c, 0, 64, 88
1, 287047, Note_on_c, 0, 88, 67
1, 287058, Control_c, 0, 64, 89
1, 287072, Control_c, 0, 64, 90
1, 287106, Note_off_c, 0, 88, 66
1, 287107, Note_on_c, 0, 86, 64
1, 287176, Control_c, 0, 64, 88
1, 287177, Note_on_c, 0, 85, 83
1, 287177, Note_off_c, 0, 86, 63
1, 287190, Control_c, 0, 64, 88
1, 287205, Control_c, 0, 64, 85
1, 287220, Control_c, 0, 64, 81
1, 287235, Control_c, 0, 64, 74
1, 287240, Note_on_c, 0, 86, 82
1, 287250, Control_c, 0, 64, 64
1, 287264, Control_c, 0, 64, 52
1, 287279, Control_c, 0, 64, 25
1, 287284, Note_off_c, 0, 85, 53
1, 287294, Control_c, 0, 64, 0
1, 287383, Control_c, 0, 64, 28
1, 287397, Control_c, 0, 64, 46
1, 287400, Note_off_c, 0, 54, 57
1, 287412, Control_c, 0, 64, 60
1, 287427, Control_c, 0, 64, 68
1, 287442, Control_c, 0, 64, 71
1, 287457, Control_c, 0, 64, 73
1, 287472, Control_c, 0, 64, 76
1, 287487, Control_c, 0, 64, 81
1, 287502, Control_c, 0, 64, 86
1, 287516, Control_c, 0, 64, 91
1, 287531, Control_c, 0, 64, 95
1, 287546, Control_c, 0, 64, 99
1, 287561, Control_c, 0, 64, 102
1, 287576, Control_c, 0, 64, 105
1, 287590, Control_c, 0, 64, 108
1, 287603, Note_off_c, 0, 57, 35
1, 287605, Control_c, 0, 64, 113
1, 287627, Control_c, 0, 64, 127
1, 287798, Note_on_c, 0, 88, 89
1, 287865, Control_c, 0, 64, 122
1, 287880, Control_c, 0, 64, 117
1, 287886, Note_off_c, 0, 86, 35
1, 287895, Control_c, 0, 64, 109
1, 287910, Control_c, 0, 64, 101
1, 287925, Control_c, 0, 64, 98
1, 287939, Control_c, 0, 64, 96
1, 287954, Control_c, 0, 64, 94
1, 287969, Control_c, 0, 64, 89
1, 287980, Note_on_c, 0, 55, 38
1, 287980, Note_on_c, 0, 85, 72
1, 287983, Note_on_c, 0, 57, 40
1, 287984, Control_c, 0, 64, 80
1, 287992, Note_on_c, 0, 61, 43
1, 287999, Control_c, 0, 64, 71
1, 288008, Note_on_c, 0, 52, 40
1, 288013, Control_c, 0, 64, 66
1, 288028, Control_c, 0, 64, 62
1, 288032, Note_off_c, 0, 88, 63
1, 288043, Control_c, 0, 64, 53
1, 288058, Control_c, 0, 64, 36
1, 288073, Control_c, 0, 64, 0
1, 288176, Control_c, 0, 67, 8
1, 288191, Control_c, 0, 67, 9
1, 288193, Note_off_c, 0, 50, 42
1, 288206, Control_c, 0, 67, 10
1, 288220, Control_c, 0, 67, 12
1, 288235, Control_c, 0, 64, 23
1, 288235, Control_c, 0, 67, 14
1, 288250, Control_c, 0, 64, 40
1, 288250, Control_c, 0, 67, 16
1, 288265, Control_c, 0, 64, 54
1, 288265, Control_c, 0, 67, 17
1, 288279, Control_c, 0, 64, 63
1, 288279, Control_c, 0, 67, 18
1, 288294, Control_c, 0, 64, 69
1, 288294, Control_c, 0, 67, 18
1, 288309, Control_c, 0, 64, 71
1, 288309, Control_c, 0, 67, 19
1, 288324, Control_c, 0, 64, 74
1, 288324, Control_c, 0, 67, 21
1, 288338, Control_c, 0, 64, 79
1, 288338, Control_c, 0, 67, 24
1, 288353, Control_c, 0, 64, 87
1, 288353, Control_c, 0, 67, 26
1, 288375, Control_c, 0, 64, 94
1, 288375, Control_c, 0, 67, 29
1, 288387, Note_off_c, 0, 85, 50
1, 288390, Control_c, 0, 64, 101
1, 288390, Control_c, 0, 67, 33
1, 288405, Control_c, 0, 64, 108
1, 288405, Control_c, 0, 67, 37
1, 288420, Control_c, 0, 64, 117
1, 288420, Control_c, 0, 67, 41
1, 288435, Control_c, 0, 64, 127
1, 288435, Control_c, 0, 67, 45
1, 288450, Control_c, 0, 67, 48
1, 288465, Control_c, 0, 67, 51
1, 288480, Control_c, 0, 67, 56
1, 288495, Control_c, 0, 67, 61
1, 288510, Control_c, 0, 67, 67
1, 288524, Control_c, 0, 67, 72
1, 288539, Control_c, 0, 67, 77
1, 288554, Control_c, 0, 67, 82
1, 288569, Control_c, 0, 67, 86
1, 288584, Control_c, 0, 67, 89
1, 288599, Control_c, 0, 67, 93
1, 288614, Control_c, 0, 67, 97
1, 288629, Control_c, 0, 67, 102
1, 288643, Control_c, 0, 67, 107
1, 288658, Control_c, 0, 67, 112
1, 288673, Control_c, 0, 67, 116
1, 288688, Control_c, 0, 67, 121
1, 288703, Control_c, 0, 67, 126
1, 288717, Control_c, 0, 67, 127
1, 289067, Note_off_c, 0, 52, 40
1, 289147, Note_off_c, 0, 61, 41
1, 289153, Note_off_c, 0, 55, 41
1, 289183, Control_c, 0, 64, 117
1, 289198, Control_c, 0, 64, 114
1, 289205, Note_off_c, 0, 57, 32
1, 289213, Control_c, 0, 64, 111
1, 289228, Control_c, 0, 64, 108
1, 289243, Control_c, 0, 64, 101
1, 289258, Control_c, 0, 64, 85
1, 289263, Note_on_c, 0, 69, 38
1, 289272, Control_c, 0, 64, 71
1, 289288, Control_c, 0, 64, 61
1, 289303, Control_c, 0, 64, 46
1, 289318, Control_c, 0, 64, 12
1, 289333, Control_c, 0, 64, 0
1, 289377, Control_c, 0, 64, 23
1, 289392, Control_c, 0, 64, 36
1, 289392, Note_on_c, 0, 68, 49
1, 289398, Note_off_c, 0, 69, 42
1, 289407, Control_c, 0, 64, 46
1, 289421, Control_c, 0, 64, 55
1, 289436, Control_c, 0, 64, 59
1, 289451, Control_c, 0, 64, 58
1, 289466, Control_c, 0, 64, 54
1, 289481, Control_c, 0, 64, 43
1, 289484, Note_off_c, 0, 68, 59
1, 289496, Control_c, 0, 64, 28
1, 289511, Note_on_c, 0, 71, 49
1, 289511, Control_c, 0, 64, 25
1, 289526, Control_c, 0, 64, 28
1, 289540, Control_c, 0, 64, 34
1, 289555, Control_c, 0, 64, 37
1, 289570, Control_c, 0, 64, 39
1, 289582, Note_off_c, 0, 71, 64
1, 289599, Control_c, 0, 64, 39
1, 289601, Note_on_c, 0, 69, 67
1, 289614, Control_c, 0, 64, 37
1, 289629, Control_c, 0, 64, 36
1, 289659, Control_c, 0, 64, 36
1, 289673, Control_c, 0, 64, 34
1, 289688, Control_c, 0, 64, 32
1, 289693, Note_off_c, 0, 69, 61
1, 289705, Note_on_c, 0, 73, 59
1, 289772, Note_off_c, 0, 73, 63
1, 289794, Note_on_c, 0, 71, 70
1, 289884, Note_off_c, 0, 71, 61
1, 289893, Note_on_c, 0, 74, 66
1, 289918, Control_c, 0, 64, 31
1, 289933, Control_c, 0, 64, 28
1, 289948, Control_c, 0, 64, 18
1, 289963, Control_c, 0, 64, 0
1, 289967, Note_off_c, 0, 74, 64
1, 289979, Note_on_c, 0, 73, 75
1, 290089, Note_off_c, 0, 73, 63
1, 290098, Note_on_c, 0, 76, 67
1, 290109, Note_on_c, 0, 52, 38
1, 290110, Note_on_c, 0, 61, 43
1, 290115, Note_on_c, 0, 55, 38
1, 290179, Note_off_c, 0, 76, 66
1, 290202, Note_on_c, 0, 74, 63
1, 290275, Control_c, 0, 64, 17
1, 290289, Control_c, 0, 64, 30
1, 290290, Note_off_c, 0, 74, 63
1, 290298, Note_on_c, 0, 78, 69
1, 290304, Control_c, 0, 64, 42
1, 290319, Control_c, 0, 64, 50
1, 290334, Control_c, 0, 64, 52
1, 290349, Control_c, 0, 64, 50
1, 290363, Control_c, 0, 64, 43
1, 290372, Note_off_c, 0, 78, 64
1, 290378, Control_c, 0, 64, 26
1, 290391, Note_on_c, 0, 76, 73
1, 290393, Control_c, 0, 64, 0
1, 290453, Control_c, 0, 64, 15
1, 290468, Control_c, 0, 64, 30
1, 290482, Control_c, 0, 64, 45
1, 290483, Note_on_c, 0, 79, 73
1, 290483, Note_off_c, 0, 76, 64
1, 290497, Control_c, 0, 64, 60
1, 290497, Control_c, 0, 67, 109
1, 290512, Control_c, 0, 64, 66
1, 290512, Control_c, 0, 67, 87
1, 290527, Control_c, 0, 64, 66
1, 290527, Control_c, 0, 67, 61
1, 290541, Control_c, 0, 64, 64
1, 290541, Control_c, 0, 67, 34
1, 290546, Note_off_c, 0, 52, 56
1, 290556, Control_c, 0, 64, 60
1, 290556, Control_c, 0, 67, 10
1, 290568, Note_off_c, 0, 79, 64
1, 290571, Control_c, 0, 64, 48
1, 290571, Control_c, 0, 67, 0
1, 290572, Note_on_c, 0, 78, 82
1, 290580, Note_off_c, 0, 55, 63
1, 290586, Control_c, 0, 64, 38
1, 290601, Control_c, 0, 64, 43
1, 290623, Control_c, 0, 64, 56
1, 290638, Control_c, 0, 64, 65
1, 290653, Control_c, 0, 64, 73
1, 290667, Note_off_c, 0, 61, 61
1, 290667, Control_c, 0, 64, 73
1, 290678, Note_on_c, 0, 81, 80
1, 290679, Note_off_c, 0, 78, 65
1, 290682, Control_c, 0, 64, 74
1, 290697, Control_c, 0, 64, 78
1, 290712, Control_c, 0, 64, 81
1, 290727, Control_c, 0, 64, 82
1, 290741, Control_c, 0, 64, 83
1, 290742, Note_off_c, 0, 81, 62
1, 290763, Note_on_c, 0, 79, 83
1, 290801, Control_c, 0, 64, 81
1, 290815, Control_c, 0, 64, 75
1, 290830, Control_c, 0, 64, 67
1, 290845, Control_c, 0, 64, 60
1, 290860, Control_c, 0, 64, 47
1, 290875, Control_c, 0, 64, 16
1, 290882, Note_on_c, 0, 83, 74
1, 290891, Control_c, 0, 64, 0
1, 290894, Note_on_c, 0, 57, 39
1, 290895, Note_off_c, 0, 79, 55
1, 290906, Note_on_c, 0, 54, 37
1, 290909, Note_on_c, 0, 63, 37
1, 290915, Note_on_c, 0, 60, 38
1, 290979, Control_c, 0, 64, 27
1, 290982, Note_on_c, 0, 81, 82
1, 290992, Note_off_c, 0, 83, 63
1, 290994, Control_c, 0, 64, 41
1, 291009, Control_c, 0, 64, 54
1, 291024, Control_c, 0, 64, 61
1, 291038, Control_c, 0, 64, 64
1, 291053, Control_c, 0, 64, 64
1, 291082, Note_on_c, 0, 84, 85
1, 291083, Control_c, 0, 64, 65
1, 291084, Note_off_c, 0, 81, 64
1, 291112, Control_c, 0, 64, 64
1, 291142, Control_c, 0, 64, 63
1, 291156, Control_c, 0, 64, 62
1, 291169, Note_on_c, 0, 83, 82
1, 291171, Control_c, 0, 64, 59
1, 291186, Control_c, 0, 64, 53
1, 291199, Note_off_c, 0, 84, 63
1, 291201, Control_c, 0, 64, 45
1, 291216, Control_c, 0, 64, 40
1, 291231, Control_c, 0, 64, 37
1, 291246, Control_c, 0, 64, 30
1, 291261, Control_c, 0, 64, 0
1, 291276, Control_c, 0, 67, 9
1, 291291, Control_c, 0, 67, 11
1, 291305, Control_c, 0, 67, 14
1, 291311, Note_off_c, 0, 83, 64
1, 291316, Note_on_c, 0, 86, 76
1, 291320, Control_c, 0, 67, 17
1, 291335, Control_c, 0, 67, 22
1, 291350, Control_c, 0, 67, 28
1, 291371, Control_c, 0, 67, 35
1, 291386, Control_c, 0, 64, 16
1, 291386, Control_c, 0, 67, 43
1, 291401, Control_c, 0, 64, 37
1, 291401, Control_c, 0, 67, 51
1, 291416, Control_c, 0, 64, 53
1, 291416, Control_c, 0, 67, 56
1, 291420, Note_off_c, 0, 57, 59
1, 291429, Note_on_c, 0, 84, 77
1, 291431, Note_off_c, 0, 86, 62
1, 291431, Control_c, 0, 64, 63
1, 291431, Control_c, 0, 67, 62
1, 291446, Control_c, 0, 64, 68
1, 291446, Control_c, 0, 67, 71
1, 291460, Control_c, 0, 64, 70
1, 291460, Control_c, 0, 67, 82
1, 291475, Control_c, 0, 64, 72
1, 291475, Control_c, 0, 67, 90
1, 291490, Control_c, 0, 64, 77
1, 291490, Control_c, 0, 67, 96
1, 291493, Note_off_c, 0, 54, 40
1, 291505, Control_c, 0, 64, 83
1, 291505, Control_c, 0, 67, 103
1, 291520, Control_c, 0, 64, 88
1, 291520, Control_c, 0, 67, 108
1, 291521, Note_on_c, 0, 83, 75
1, 291535, Control_c, 0, 64, 90
1, 291535, Control_c, 0, 67, 112
1, 291542, Note_off_c, 0, 84, 61
1, 291550, Control_c, 0, 64, 92
1, 291550, Control_c, 0, 67, 115
1, 291564, Control_c, 0, 64, 93
1, 291564, Control_c, 0, 67, 119
1, 291571, Note_off_c, 0, 60, 47
1, 291579, Control_c, 0, 64, 94
1, 291579, Control_c, 0, 67, 123
1, 291594, Control_c, 0, 64, 97
1, 291594, Control_c, 0, 67, 127
1, 291595, Note_off_c, 0, 63, 40
1, 291609, Control_c, 0, 64, 99
1, 291614, Note_on_c, 0, 81, 81
1, 291614, Note_off_c, 0, 83, 66
1, 291653, Control_c, 0, 64, 98
1, 291660, Note_off_c, 0, 81, 63
1, 291668, Control_c, 0, 64, 97
1, 291684, Control_c, 0, 64, 96
1, 291699, Control_c, 0, 64, 93
1, 291714, Control_c, 0, 64, 84
1, 291728, Control_c, 0, 64, 72
1, 291743, Control_c, 0, 64, 62
1, 291756, Note_on_c, 0, 81, 74
1, 291757, Note_on_c, 0, 55, 35
1, 291758, Control_c, 0, 64, 54
1, 291770, Note_on_c, 0, 59, 45
1, 291773, Control_c, 0, 64, 45
1, 291778, Note_on_c, 0, 64, 40
1, 291787, Control_c, 0, 64, 33
1, 291802, Control_c, 0, 64, 0
1, 291868, Note_off_c, 0, 81, 60
1, 291887, Note_on_c, 0, 79, 68
1, 291920, Control_c, 0, 64, 11
1, 291935, Control_c, 0, 64, 27
1, 291950, Control_c, 0, 64, 34
1, 291965, Control_c, 0, 64, 40
1, 291978, Note_off_c, 0, 79, 59
1, 291979, Control_c, 0, 64, 46
1, 291994, Control_c, 0, 64, 50
1, 291996, Note_on_c, 0, 83, 63
1, 292009, Control_c, 0, 64, 52
1, 292039, Control_c, 0, 64, 50
1, 292053, Control_c, 0, 64, 46
1, 292068, Control_c, 0, 64, 40
1, 292083, Control_c, 0, 64, 37
1, 292085, Note_off_c, 0, 83, 65
1, 292092, Note_on_c, 0, 81, 66
1, 292098, Control_c, 0, 64, 36
1, 292119, Control_c, 0, 64, 33
1, 292134, Control_c, 0, 64, 28
1, 292149, Control_c, 0, 64, 14
1, 292164, Control_c, 0, 64, 0
1, 292215, Note_off_c, 0, 55, 43
1, 292229, Note_off_c, 0, 81, 61
1, 292245, Note_off_c, 0, 64, 37
1, 292247, Note_on_c, 0, 84, 63
1, 292302, Note_off_c, 0, 59, 37
1, 292332, Note_off_c, 0, 84, 64
1, 292341, Note_on_c, 0, 83, 60
1, 292429, Note_off_c, 0, 83, 67
1, 292451, Note_on_c, 0, 81, 63
1, 292509, Note_off_c, 0, 81, 60
1, 292554, Note_on_c, 0, 79, 58
1, 292632, Note_off_c, 0, 79, 61
1, 292726, Note_on_c, 0, 78, 66
1, 292737, Note_on_c, 0, 57, 29
1, 292740, Note_on_c, 0, 66, 35
1, 292741, Note_on_c, 0, 62, 35
1, 292804, Note_off_c, 0, 78, 65
1, 293269, Control_c, 0, 64, 16
1, 293285, Control_c, 0, 64, 25
1, 293300, Control_c, 0, 64, 32
1, 293315, Control_c, 0, 64, 39
1, 293329, Control_c, 0, 64, 47
1, 293344, Control_c, 0, 64, 53
1, 293359, Control_c, 0, 64, 57
1, 293374, Control_c, 0, 64, 59
1, 293389, Control_c, 0, 64, 61
1, 293404, Control_c, 0, 64, 62
1, 293419, Control_c, 0, 64, 63
1, 293431, Note_on_c, 0, 81, 60
1, 293433, Control_c, 0, 64, 64
1, 293448, Control_c, 0, 64, 66
1, 293463, Control_c, 0, 64, 67
1, 293478, Control_c, 0, 64, 69
1, 293493, Control_c, 0, 64, 70
1, 293507, Control_c, 0, 64, 71
1, 293522, Control_c, 0, 64, 73
1, 293537, Control_c, 0, 64, 74
1, 293551, Control_c, 0, 64, 75
1, 293604, Control_c, 0, 64, 75
1, 293613, Note_off_c, 0, 81, 55
1, 293619, Control_c, 0, 64, 76
1, 293691, Note_off_c, 0, 57, 41
1, 293696, Note_off_c, 0, 66, 42
1, 293745, Note_off_c, 0, 62, 42
1, 293826, Control_c, 0, 64, 75
1, 293855, Control_c, 0, 64, 74
1, 293884, Control_c, 0, 64, 73
1, 293899, Control_c, 0, 64, 72
1, 293914, Control_c, 0, 64, 71
1, 293929, Control_c, 0, 64, 69
1, 293944, Control_c, 0, 64, 67
1, 293958, Control_c, 0, 64, 66
1, 293973, Control_c, 0, 64, 64
1, 293988, Control_c, 0, 64, 62
1, 294003, Control_c, 0, 64, 60
1, 294018, Control_c, 0, 64, 56
1, 294033, Control_c, 0, 64, 54
1, 294048, Control_c, 0, 64, 53
1, 294063, Control_c, 0, 64, 52
1, 294078, Control_c, 0, 64, 49
1, 294093, Control_c, 0, 64, 47
1, 294108, Control_c, 0, 64, 46
1, 294123, Control_c, 0, 64, 45
1, 294137, Control_c, 0, 64, 44
1, 294152, Control_c, 0, 64, 42
1, 294167, Control_c, 0, 64, 39
1, 294182, Control_c, 0, 64, 37
1, 294197, Control_c, 0, 64, 37
1, 294212, Control_c, 0, 64, 36
1, 294227, Control_c, 0, 64, 34
1, 294242, Control_c, 0, 64, 32
1, 294256, Control_c, 0, 64, 30
1, 294271, Control_c, 0, 64, 28
1, 294286, Control_c, 0, 64, 27
1, 294300, Control_c, 0, 64, 26
1, 294315, Control_c, 0, 64, 24
1, 294330, Control_c, 0, 64, 22
1, 294345, Control_c, 0, 64, 21
1, 294367, Control_c, 0, 64, 20
1, 294382, Control_c, 0, 64, 19
1, 294397, Control_c, 0, 64, 18
1, 294412, Control_c, 0, 64, 16
1, 294426, Control_c, 0, 64, 14
1, 294441, Control_c, 0, 64, 12
1, 294456, Control_c, 0, 64, 11
1, 294471, Control_c, 0, 64, 8
1, 294486, Control_c, 0, 64, 0
1, 294841, Control_c, 0, 64, 9
1, 294856, Control_c, 0, 64, 21
1, 294871, Control_c, 0, 64, 29
1, 294886, Control_c, 0, 64, 38
1, 294901, Control_c, 0, 64, 46
1, 294916, Control_c, 0, 64, 53
1, 294930, Control_c, 0, 64, 57
1, 294945, Control_c, 0, 64, 59
1, 294960, Control_c, 0, 64, 60
1, 294975, Control_c, 0, 64, 60
1, 294990, Control_c, 0, 64, 61
1, 295005, Control_c, 0, 64, 62
1, 295020, Control_c, 0, 64, 63
1, 295035, Control_c, 0, 64, 64
1, 295088, Note_on_c, 0, 79, 49
1, 295130, Control_c, 0, 64, 63
1, 295145, Note_off_c, 0, 79, 62
1, 295160, Note_on_c, 0, 78, 62
1, 295160, Control_c, 0, 64, 63
1, 295175, Control_c, 0, 64, 62
1, 295190, Control_c, 0, 64, 61
1, 295204, Control_c, 0, 64, 59
1, 295214, Note_off_c, 0, 78, 63
1, 295219, Control_c, 0, 64, 56
1, 295233, Note_on_c, 0, 76, 57
1, 295234, Control_c, 0, 64, 54
1, 295249, Control_c, 0, 64, 53
1, 295253, Note_off_c, 0, 76, 63
1, 295264, Control_c, 0, 64, 51
1, 295279, Control_c, 0, 64, 46
1, 295294, Control_c, 0, 64, 38
1, 295307, Note_on_c, 0, 74, 44
1, 295309, Control_c, 0, 64, 30
1, 295324, Control_c, 0, 64, 25
1, 295338, Control_c, 0, 64, 23
1, 295353, Note_off_c, 0, 74, 56
1, 295353, Control_c, 0, 64, 19
1, 295368, Control_c, 0, 64, 0
1, 295386, Note_on_c, 0, 73, 53
1, 295395, Note_on_c, 0, 57, 29
1, 295397, Note_on_c, 0, 64, 33
1, 295452, Note_off_c, 0, 73, 61
1, 295881, Note_off_c, 0, 64, 42
1, 295890, Note_on_c, 0, 76, 52
1, 295901, Note_on_c, 0, 67, 35
1, 295911, Note_off_c, 0, 57, 42
1, 296027, Note_off_c, 0, 76, 56
1, 296028, Note_off_c, 0, 67, 44
1, 296383, Control_c, 0, 64, 19
1, 296398, Control_c, 0, 64, 28
1, 296413, Control_c, 0, 64, 35
1, 296427, Control_c, 0, 64, 41
1, 296442, Control_c, 0, 64, 47
1, 296444, Note_on_c, 0, 50, 31
1, 296457, Control_c, 0, 64, 52
1, 296473, Control_c, 0, 64, 56
1, 296488, Control_c, 0, 64, 58
1, 296502, Control_c, 0, 64, 60
1, 296517, Control_c, 0, 64, 61
1, 296532, Control_c, 0, 64, 62
1, 296547, Control_c, 0, 64, 62
1, 296654, Note_off_c, 0, 50, 41
1, 296673, Control_c, 0, 64, 62
1, 296702, Control_c, 0, 64, 61
1, 296732, Control_c, 0, 64, 61
1, 296747, Control_c, 0, 64, 60
1, 296762, Control_c, 0, 64, 59
1, 296776, Control_c, 0, 64, 58
1, 296791, Control_c, 0, 64, 58
1, 296821, Control_c, 0, 64, 57
1, 296836, Control_c, 0, 64, 55
1, 296850, Control_c, 0, 64, 55
1, 296865, Control_c, 0, 64, 54
1, 296880, Control_c, 0, 64, 54
1, 296895, Control_c, 0, 64, 52
1, 296910, Control_c, 0, 64, 50
1, 296924, Control_c, 0, 64, 48
1, 296939, Control_c, 0, 64, 47
1, 296954, Control_c, 0, 64, 45
1, 296969, Control_c, 0, 64, 42
1, 296984, Control_c, 0, 64, 36
1, 296999, Control_c, 0, 64, 23
1, 297014, Control_c, 0, 64, 11
1, 297029, Control_c, 0, 64, 0
1, 297437, Control_c, 0, 64, 13
1, 297452, Control_c, 0, 64, 19
1, 297467, Control_c, 0, 64, 25
1, 297481, Control_c, 0, 64, 29
1, 297496, Control_c, 0, 64, 33
1, 297511, Control_c, 0, 64, 37
1, 297525, Control_c, 0, 64, 42
1, 297540, Control_c, 0, 64, 47
1, 297555, Control_c, 0, 64, 51
1, 297570, Control_c, 0, 64, 54
1, 297585, Control_c, 0, 64, 55
1, 297599, Control_c, 0, 64, 56
1, 297614, Control_c, 0, 64, 58
1, 297629, Control_c, 0, 64, 60
1, 297644, Control_c, 0, 64, 61
1, 297659, Control_c, 0, 64, 62
1, 297688, Control_c, 0, 64, 62
1, 297703, Control_c, 0, 64, 63
1, 297714, Note_on_c, 0, 74, 45
1, 297718, Control_c, 0, 64, 63
1, 297732, Control_c, 0, 64, 64
1, 297745, Note_on_c, 0, 62, 25
1, 297745, Note_on_c, 0, 66, 33
1, 297747, Control_c, 0, 64, 64
1, 297762, Control_c, 0, 64, 65
1, 297792, Control_c, 0, 64, 65
1, 297822, Control_c, 0, 64, 66
1, 297837, Control_c, 0, 64, 66
1, 297845, Note_off_c, 0, 66, 0
1, 297845, Note_on_c, 0, 66, 3
1, 297896, Control_c, 0, 64, 67
1, 297954, Note_off_c, 0, 62, 42
1, 297998, Note_off_c, 0, 66, 42
1, 298003, Note_off_c, 0, 74, 36
1, 298289, Control_c, 0, 64, 66
1, 298466, Control_c, 0, 64, 66
1, 298511, Control_c, 0, 64, 65
1, 298541, Control_c, 0, 64, 65
1, 298570, Control_c, 0, 64, 64
1, 298585, Control_c, 0, 64, 64
1, 298600, Control_c, 0, 64, 63
1, 298615, Control_c, 0, 64, 62
1, 298629, Control_c, 0, 64, 62
1, 298644, Control_c, 0, 64, 60
1, 298659, Control_c, 0, 64, 59
1, 298674, Control_c, 0, 64, 58
1, 298689, Control_c, 0, 64, 56
1, 298704, Control_c, 0, 64, 55
1, 298719, Control_c, 0, 64, 54
1, 298734, Control_c, 0, 64, 51
1, 298746, Control_c, 0, 64, 49
1, 298761, Control_c, 0, 64, 48
1, 298776, Control_c, 0, 64, 48
1, 298791, Control_c, 0, 64, 47
1, 298806, Control_c, 0, 64, 44
1, 298820, Control_c, 0, 64, 40
1, 298835, Control_c, 0, 64, 38
1, 298858, Control_c, 0, 64, 38
1, 298874, Control_c, 0, 64, 37
1, 298889, Control_c, 0, 64, 36
1, 298903, Control_c, 0, 64, 32
1, 298918, Control_c, 0, 64, 29
1, 298933, Control_c, 0, 64, 27
1, 298948, Control_c, 0, 64, 27
1, 298963, Control_c, 0, 64, 25
1, 298977, Control_c, 0, 64, 22
1, 298992, Control_c, 0, 64, 15
1, 299007, Control_c, 0, 64, 0
1, 299466, Control_c, 0, 64, 22
1, 299481, Control_c, 0, 64, 36
1, 299496, Control_c, 0, 64, 48
1, 299511, Control_c, 0, 64, 59
1, 299526, Control_c, 0, 64, 65
1, 299541, Control_c, 0, 64, 68
1, 299556, Control_c, 0, 64, 72
1, 299570, Control_c, 0, 64, 80
1, 299585, Control_c, 0, 64, 87
1, 299607, Control_c, 0, 64, 93
1, 299622, Control_c, 0, 64, 99
1, 299637, Control_c, 0, 64, 105
1, 299652, Control_c, 0, 64, 110
1, 299667, Control_c, 0, 64, 113
1, 299712, Control_c, 0, 64, 114
1, 299726, Control_c, 0, 64, 115
1, 299969, Note_on_c, 0, 74, 31
1, 300054, Note_on_c, 0, 78, 48
1, 300062, Note_off_c, 0, 74, 37
1, 300126, Note_on_c, 0, 81, 61
1, 300126, Note_off_c, 0, 78, 61
1, 300302, Note_on_c, 0, 66, 40
1, 300319, Control_c, 0, 64, 114
1, 300321, Note_on_c, 0, 86, 69
1, 300323, Note_on_c, 0, 62, 37
1, 300334, Control_c, 0, 64, 106
1, 300346, Note_off_c, 0, 81, 61
1, 300348, Note_on_c, 0, 69, 31
1, 300356, Control_c, 0, 64, 93
1, 300371, Control_c, 0, 64, 79
1, 300386, Control_c, 0, 64, 67
1, 300400, Control_c, 0, 64, 57
1, 300415, Control_c, 0, 64, 37
1, 300430, Control_c, 0, 64, 0
1, 300475, Control_c, 0, 64, 18
1, 300490, Control_c, 0, 64, 34
1, 300505, Control_c, 0, 64, 47
1, 300520, Control_c, 0, 64, 59
1, 300535, Control_c, 0, 64, 68
1, 300549, Control_c, 0, 64, 72
1, 300564, Control_c, 0, 64, 72
1, 300579, Control_c, 0, 64, 73
1, 300594, Control_c, 0, 64, 75
1, 300609, Control_c, 0, 64, 78
1, 300624, Control_c, 0, 64, 80
1, 300654, Control_c, 0, 64, 81
1, 300683, Control_c, 0, 64, 82
1, 300694, Note_off_c, 0, 86, 60
1, 300698, Control_c, 0, 64, 83
1, 300718, Note_on_c, 0, 88, 61
1, 300728, Control_c, 0, 64, 83
1, 300784, Note_off_c, 0, 88, 65
1, 300793, Note_on_c, 0, 86, 63
1, 300854, Note_off_c, 0, 86, 62
1, 300858, Note_on_c, 0, 85, 78
1, 300861, Control_c, 0, 64, 83
1, 300875, Control_c, 0, 64, 81
1, 300890, Control_c, 0, 64, 77
1, 300905, Control_c, 0, 64, 69
1, 300920, Control_c, 0, 64, 66
1, 300930, Note_on_c, 0, 86, 75
1, 300934, Note_off_c, 0, 85, 60
1, 300934, Control_c, 0, 64, 63
1, 300949, Control_c, 0, 64, 60
1, 300964, Control_c, 0, 64, 51
1, 300979, Control_c, 0, 64, 32
1, 300994, Control_c, 0, 64, 0
1, 301120, Control_c, 0, 64, 19
1, 301135, Control_c, 0, 64, 35
1, 301149, Control_c, 0, 64, 48
1, 301164, Control_c, 0, 64, 60
1, 301169, Note_off_c, 0, 66, 55
1, 301179, Control_c, 0, 64, 68
1, 301194, Control_c, 0, 64, 72
1, 301209, Control_c, 0, 64, 72
1, 301223, Control_c, 0, 64, 75
1, 301238, Control_c, 0, 64, 79
1, 301253, Control_c, 0, 64, 85
1, 301269, Control_c, 0, 64, 91
1, 301284, Control_c, 0, 64, 98
1, 301298, Control_c, 0, 64, 115
1, 301313, Control_c, 0, 64, 127
1, 301343, Control_c, 0, 67, 103
1, 301358, Control_c, 0, 67, 52
1, 301359, Note_off_c, 0, 69, 35
1, 301372, Control_c, 0, 67, 0
1, 301600, Note_on_c, 0, 88, 80
1, 301771, Note_on_c, 0, 85, 65
1, 301805, Note_on_c, 0, 73, 36
1, 301808, Note_on_c, 0, 64, 31
1, 301810, Note_on_c, 0, 69, 37
1, 301816, Control_c, 0, 64, 95
1, 301819, Note_on_c, 0, 67, 25
1, 301831, Control_c, 0, 64, 83
1, 301844, Note_off_c, 0, 86, 16
1, 301854, Control_c, 0, 64, 77
1, 301869, Control_c, 0, 64, 71
1, 301872, Note_off_c, 0, 88, 62
1, 301884, Control_c, 0, 64, 64
1, 301898, Control_c, 0, 64, 56
1, 301913, Control_c, 0, 64, 37
1, 301928, Control_c, 0, 64, 0
1, 302039, Note_off_c, 0, 62, 42
1, 302195, Control_c, 0, 64, 10
1, 302210, Control_c, 0, 64, 22
1, 302225, Control_c, 0, 64, 32
1, 302240, Control_c, 0, 64, 41
1, 302255, Control_c, 0, 64, 51
1, 302269, Control_c, 0, 64, 57
1, 302284, Control_c, 0, 64, 61
1, 302299, Control_c, 0, 64, 64
1, 302314, Control_c, 0, 64, 68
1, 302329, Control_c, 0, 64, 73
1, 302344, Control_c, 0, 64, 80
1, 302359, Control_c, 0, 64, 84
1, 302374, Control_c, 0, 64, 89
1, 302388, Control_c, 0, 64, 93
1, 302403, Control_c, 0, 64, 98
1, 302418, Control_c, 0, 64, 103
1, 302433, Control_c, 0, 64, 107
1, 302447, Control_c, 0, 64, 110
1, 302462, Control_c, 0, 64, 113
1, 302477, Control_c, 0, 64, 117
1, 302491, Control_c, 0, 64, 122
1, 302506, Control_c, 0, 64, 127
1, 302508, Note_off_c, 0, 73, 41
1, 302534, Note_off_c, 0, 69, 38
1, 302567, Note_off_c, 0, 64, 31
1, 302581, Note_off_c, 0, 67, 33
1, 302600, Note_off_c, 0, 85, 41
1, 302602, Control_c, 0, 67, 9
1, 302617, Control_c, 0, 67, 11
1, 302632, Control_c, 0, 67, 14
1, 302646, Control_c, 0, 67, 17
1, 302661, Control_c, 0, 67, 21
1, 302676, Control_c, 0, 67, 27
1, 302691, Control_c, 0, 67, 34
1, 302706, Control_c, 0, 67, 39
1, 302720, Control_c, 0, 64, 119
1, 302720, Control_c, 0, 67, 43
1, 302735, Control_c, 0, 67, 49
1, 302750, Control_c, 0, 67, 56
1, 302765, Control_c, 0, 67, 63
1, 302780, Control_c, 0, 64, 117
1, 302780, Control_c, 0, 67, 69
1, 302794, Control_c, 0, 64, 115
1, 302794, Control_c, 0, 67, 77
1, 302809, Control_c, 0, 64, 114
1, 302809, Control_c, 0, 67, 82
1, 302824, Control_c, 0, 64, 113
1, 302824, Control_c, 0, 67, 87
1, 302839, Control_c, 0, 67, 92
1, 302853, Control_c, 0, 64, 111
1, 302853, Control_c, 0, 67, 97
1, 302869, Control_c, 0, 64, 108
1, 302869, Control_c, 0, 67, 102
1, 302884, Control_c, 0, 64, 106
1, 302884, Control_c, 0, 67, 107
1, 302899, Control_c, 0, 64, 105
1, 302899, Control_c, 0, 67, 112
1, 302914, Control_c, 0, 64, 103
1, 302914, Control_c, 0, 67, 117
1, 302929, Control_c, 0, 64, 100
1, 302929, Control_c, 0, 67, 122
1, 302943, Control_c, 0, 64, 95
1, 302943, Control_c, 0, 67, 127
1, 302958, Control_c, 0, 64, 90
1, 302973, Control_c, 0, 64, 86
1, 302988, Control_c, 0, 64, 83
1, 303003, Control_c, 0, 64, 80
1, 303017, Control_c, 0, 64, 74
1, 303032, Control_c, 0, 64, 69
1, 303047, Control_c, 0, 64, 66
1, 303062, Control_c, 0, 64, 65
1, 303077, Control_c, 0, 64, 63
1, 303092, Control_c, 0, 64, 59
1, 303107, Control_c, 0, 64, 51
1, 303122, Control_c, 0, 64, 44
1, 303136, Control_c, 0, 64, 41
1, 303151, Control_c, 0, 64, 40
1, 303166, Control_c, 0, 64, 37
1, 303181, Control_c, 0, 64, 30
1, 303196, Control_c, 0, 64, 15
1, 303210, Control_c, 0, 64, 0
1, 303530, Control_c, 0, 64, 14
1, 303544, Control_c, 0, 64, 24
1, 303559, Control_c, 0, 64, 31
1, 303574, Control_c, 0, 64, 37
1, 303588, Control_c, 0, 64, 45
1, 303603, Control_c, 0, 64, 52
1, 303618, Control_c, 0, 64, 57
1, 303633, Control_c, 0, 64, 59
1, 303648, Control_c, 0, 64, 61
1, 303664, Control_c, 0, 64, 62
1, 303679, Control_c, 0, 64, 64
1, 303693, Control_c, 0, 64, 67
1, 303700, Note_on_c, 0, 69, 40
1, 303708, Control_c, 0, 64, 69
1, 303723, Control_c, 0, 64, 70
1, 303738, Control_c, 0, 64, 72
1, 303753, Control_c, 0, 64, 74
1, 303767, Control_c, 0, 64, 76
1, 303782, Control_c, 0, 64, 78
1, 303797, Control_c, 0, 64, 78
1, 303812, Control_c, 0, 64, 79
1, 303841, Control_c, 0, 64, 80
1, 303847, Note_on_c, 0, 73, 44
1, 303856, Control_c, 0, 64, 81
1, 303864, Note_off_c, 0, 69, 36
1, 303871, Control_c, 0, 64, 82
1, 303977, Note_on_c, 0, 76, 60
1, 304028, Note_off_c, 0, 73, 35
1, 304145, Control_c, 0, 64, 81
1, 304160, Control_c, 0, 64, 81
1, 304174, Control_c, 0, 64, 80
1, 304204, Control_c, 0, 64, 79
1, 304219, Control_c, 0, 64, 77
1, 304234, Control_c, 0, 64, 76
1, 304244, Note_on_c, 0, 79, 63
1, 304248, Control_c, 0, 64, 74
1, 304256, Note_on_c, 0, 61, 36
1, 304257, Note_off_c, 0, 76, 63
1, 304258, Note_on_c, 0, 52, 35
1, 304263, Control_c, 0, 64, 73
1, 304278, Control_c, 0, 64, 70
1, 304293, Control_c, 0, 64, 65
1, 304308, Control_c, 0, 64, 58
1, 304323, Control_c, 0, 64, 42
1, 304338, Control_c, 0, 64, 0
1, 304441, Control_c, 0, 64, 29
1, 304456, Control_c, 0, 64, 46
1, 304472, Control_c, 0, 64, 59
1, 304480, Note_off_c, 0, 79, 50
1, 304487, Control_c, 0, 64, 66
1, 304502, Control_c, 0, 64, 70
1, 304516, Control_c, 0, 64, 70
1, 304531, Control_c, 0, 64, 72
1, 304546, Control_c, 0, 64, 76
1, 304561, Control_c, 0, 64, 79
1, 304576, Control_c, 0, 64, 81
1, 304590, Control_c, 0, 64, 82
1, 304590, Control_c, 0, 67, 112
1, 304605, Control_c, 0, 67, 84
1, 304620, Control_c, 0, 67, 55
1, 304634, Control_c, 0, 64, 84
1, 304634, Control_c, 0, 67, 24
1, 304649, Control_c, 0, 64, 86
1, 304649, Control_c, 0, 67, 0
1, 304664, Control_c, 0, 64, 86
1, 304753, Control_c, 0, 64, 86
1, 304768, Control_c, 0, 64, 83
1, 304782, Control_c, 0, 64, 83
1, 304797, Control_c, 0, 64, 82
1, 304803, Note_on_c, 0, 76, 57
1, 304812, Control_c, 0, 64, 82
1, 304834, Control_c, 0, 64, 80
1, 304849, Control_c, 0, 64, 76
1, 304864, Control_c, 0, 64, 71
1, 304879, Control_c, 0, 64, 68
1, 304894, Control_c, 0, 64, 67
1, 304908, Control_c, 0, 64, 65
1, 304923, Control_c, 0, 64, 63
1, 304924, Note_off_c, 0, 52, 39
1, 304938, Control_c, 0, 64, 55
1, 304946, Note_on_c, 0, 73, 54
1, 304953, Control_c, 0, 64, 42
1, 304968, Control_c, 0, 64, 29
1, 304974, Note_off_c, 0, 76, 62
1, 304983, Control_c, 0, 64, 20
1, 304997, Control_c, 0, 64, 0
1, 305035, Note_off_c, 0, 61, 41
1, 305069, Note_off_c, 0, 73, 65
1, 305369, Control_c, 0, 64, 18
1, 305384, Control_c, 0, 64, 26
1, 305399, Control_c, 0, 64, 33
1, 305413, Control_c, 0, 64, 39
1, 305428, Control_c, 0, 64, 46
1, 305443, Control_c, 0, 64, 53
1, 305448, Note_on_c, 0, 81, 75
1, 305457, Control_c, 0, 64, 58
1, 305465, Note_on_c, 0, 60, 43
1, 305472, Control_c, 0, 64, 61
1, 305487, Control_c, 0, 64, 62
1, 305492, Note_on_c, 0, 54, 33
1, 305502, Control_c, 0, 64, 64
1, 305517, Control_c, 0, 64, 66
1, 305531, Control_c, 0, 64, 69
1, 305546, Control_c, 0, 64, 72
1, 305561, Control_c, 0, 64, 76
1, 305576, Control_c, 0, 64, 78
1, 305599, Control_c, 0, 64, 80
1, 305609, Note_off_c, 0, 81, 61
1, 305613, Control_c, 0, 64, 83
1, 305628, Control_c, 0, 64, 86
1, 305643, Control_c, 0, 64, 88
1, 305658, Control_c, 0, 64, 90
1, 305672, Control_c, 0, 64, 91
1, 305687, Control_c, 0, 64, 92
1, 305702, Control_c, 0, 64, 92
1, 305717, Control_c, 0, 64, 93
1, 305731, Control_c, 0, 64, 93
1, 305746, Control_c, 0, 64, 94
1, 305835, Control_c, 0, 64, 94
1, 306024, Note_on_c, 0, 78, 70
1, 306028, Control_c, 0, 64, 93
1, 306043, Control_c, 0, 64, 91
1, 306058, Control_c, 0, 64, 90
1, 306073, Control_c, 0, 64, 89
1, 306088, Control_c, 0, 64, 87
1, 306103, Control_c, 0, 64, 82
1, 306118, Control_c, 0, 64, 76
1, 306132, Control_c, 0, 64, 71
1, 306147, Control_c, 0, 64, 67
1, 306162, Control_c, 0, 64, 62
1, 306165, Note_on_c, 0, 75, 63
1, 306177, Control_c, 0, 64, 54
1, 306183, Note_off_c, 0, 78, 64
1, 306192, Control_c, 0, 64, 40
1, 306199, Note_off_c, 0, 54, 42
1, 306207, Control_c, 0, 64, 23
1, 306210, Note_off_c, 0, 60, 53
1, 306222, Control_c, 0, 64, 18
1, 306236, Control_c, 0, 64, 18
1, 306251, Control_c, 0, 64, 17
1, 306266, Control_c, 0, 64, 12
1, 306280, Control_c, 0, 64, 0
1, 306302, Note_off_c, 0, 75, 62
1, 306584, Control_c, 0, 64, 10
1, 306599, Control_c, 0, 64, 23
1, 306613, Control_c, 0, 64, 30
1, 306628, Control_c, 0, 64, 36
1, 306643, Control_c, 0, 64, 44
1, 306658, Control_c, 0, 64, 51
1, 306673, Control_c, 0, 64, 57
1, 306687, Control_c, 0, 64, 61
1, 306702, Control_c, 0, 64, 63
1, 306717, Control_c, 0, 64, 64
1, 306732, Control_c, 0, 64, 66
1, 306747, Control_c, 0, 64, 69
1, 306761, Control_c, 0, 64, 72
1, 306776, Control_c, 0, 64, 74
1, 306791, Control_c, 0, 64, 75
1, 306806, Control_c, 0, 64, 78
1, 306821, Control_c, 0, 64, 81
1, 306836, Control_c, 0, 64, 85
1, 306846, Note_on_c, 0, 83, 80
1, 306851, Control_c, 0, 64, 87
1, 306866, Control_c, 0, 64, 89
1, 306881, Control_c, 0, 64, 90
1, 306896, Control_c, 0, 64, 91
1, 306903, Note_on_c, 0, 59, 23
1, 306905, Note_on_c, 0, 55, 29
1, 306910, Control_c, 0, 64, 95
1, 306925, Control_c, 0, 64, 107
1, 306940, Control_c, 0, 64, 127
1, 307029, Control_c, 0, 67, 8
1, 307033, Note_off_c, 0, 83, 64
1, 307044, Control_c, 0, 67, 11
1, 307059, Control_c, 0, 67, 14
1, 307074, Control_c, 0, 67, 16
1, 307096, Control_c, 0, 67, 20
1, 307110, Control_c, 0, 67, 26
1, 307125, Control_c, 0, 67, 33
1, 307140, Control_c, 0, 67, 40
1, 307155, Control_c, 0, 67, 47
1, 307170, Control_c, 0, 67, 56
1, 307185, Control_c, 0, 67, 65
1, 307200, Control_c, 0, 67, 74
1, 307214, Control_c, 0, 67, 82
1, 307229, Control_c, 0, 67, 90
1, 307244, Control_c, 0, 67, 96
1, 307259, Control_c, 0, 67, 101
1, 307274, Control_c, 0, 67, 108
1, 307289, Control_c, 0, 67, 115
1, 307304, Control_c, 0, 67, 123
1, 307318, Control_c, 0, 67, 127
1, 307495, Note_off_c, 0, 55, 43
1, 307497, Note_off_c, 0, 59, 38
1, 307636, Note_on_c, 0, 79, 64
1, 307704, Control_c, 0, 64, 111
1, 307719, Control_c, 0, 64, 94
1, 307733, Control_c, 0, 64, 81
1, 307748, Control_c, 0, 64, 71
1, 307763, Control_c, 0, 64, 64
1, 307778, Control_c, 0, 64, 58
1, 307793, Control_c, 0, 64, 49
1, 307799, Note_off_c, 0, 79, 59
1, 307808, Control_c, 0, 64, 40
1, 307817, Note_on_c, 0, 76, 53
1, 307830, Control_c, 0, 64, 31
1, 307845, Control_c, 0, 64, 21
1, 307859, Control_c, 0, 64, 0
1, 308006, Note_off_c, 0, 76, 54
1, 308363, Control_c, 0, 64, 12
1, 308377, Control_c, 0, 64, 27
1, 308392, Control_c, 0, 64, 38
1, 308407, Control_c, 0, 64, 48
1, 308422, Control_c, 0, 64, 57
1, 308437, Control_c, 0, 64, 63
1, 308453, Control_c, 0, 64, 67
1, 308468, Control_c, 0, 64, 73
1, 308482, Control_c, 0, 64, 80
1, 308497, Control_c, 0, 64, 88
1, 308512, Control_c, 0, 64, 98
1, 308527, Control_c, 0, 64, 110
1, 308542, Control_c, 0, 64, 127
1, 309273, Note_on_c, 0, 81, 70
1, 309319, Note_on_c, 0, 66, 28
1, 309322, Note_on_c, 0, 62, 30
1, 309350, Note_on_c, 0, 57, 19
1, 310945, Note_on_c, 0, 80, 41
1, 311014, Note_off_c, 0, 81, 55
1, 311117, Note_off_c, 0, 80, 53
1, 311122, Note_on_c, 0, 79, 52
1, 311261, Note_off_c, 0, 79, 61
1, 311278, Note_on_c, 0, 78, 55
1, 311424, Note_off_c, 0, 78, 58
1, 311427, Note_on_c, 0, 77, 54
1, 311543, Note_off_c, 0, 77, 60
1, 311580, Note_on_c, 0, 76, 57
1, 311677, Control_c, 0, 64, 110
1, 311692, Control_c, 0, 64, 102
1, 311707, Control_c, 0, 64, 94
1, 311722, Control_c, 0, 64, 82
1, 311737, Control_c, 0, 64, 71
1, 311739, Note_off_c, 0, 66, 40
1, 311751, Control_c, 0, 64, 63
1, 311754, Note_off_c, 0, 57, 40
1, 311757, Note_off_c, 0, 76, 36
1, 311766, Control_c, 0, 64, 55
1, 311781, Note_on_c, 0, 74, 48
1, 311781, Control_c, 0, 64, 45
1, 311793, Note_off_c, 0, 62, 44
1, 311796, Control_c, 0, 64, 37
1, 311811, Control_c, 0, 64, 24
1, 311825, Control_c, 0, 64, 0
1, 311844, Note_off_c, 0, 74, 65
1, 312303, Note_on_c, 0, 73, 48
1, 312310, Note_on_c, 0, 67, 35
1, 312328, Note_on_c, 0, 57, 26
1, 312348, Note_on_c, 0, 64, 24
1, 312389, Note_off_c, 0, 67, 62
1, 312403, Note_off_c, 0, 64, 54
1, 312403, Note_off_c, 0, 73, 63
1, 312423, Note_off_c, 0, 57, 57
1, 312811, Control_c, 0, 64, 16
1, 312826, Control_c, 0, 64, 22
1, 312841, Control_c, 0, 64, 27
1, 312855, Control_c, 0, 64, 34
1, 312870, Control_c, 0, 64, 43
1, 312885, Control_c, 0, 64, 50
1, 312900, Control_c, 0, 64, 55
1, 312915, Control_c, 0, 64, 58
1, 312929, Control_c, 0, 64, 60
1, 312944, Control_c, 0, 64, 62
1, 312959, Control_c, 0, 64, 64
1, 312974, Control_c, 0, 64, 66
1, 312989, Control_c, 0, 64, 69
1, 313003, Control_c, 0, 64, 72
1, 313005, Note_on_c, 0, 76, 53
1, 313018, Control_c, 0, 64, 74
1, 313024, Note_on_c, 0, 67, 42
1, 313033, Control_c, 0, 64, 77
1, 313048, Control_c, 0, 64, 80
1, 313051, Note_on_c, 0, 50, 22
1, 313063, Control_c, 0, 64, 83
1, 313085, Control_c, 0, 64, 86
1, 313100, Control_c, 0, 64, 90
1, 313115, Control_c, 0, 64, 96
1, 313129, Control_c, 0, 64, 103
1, 313144, Control_c, 0, 64, 111
1, 313159, Control_c, 0, 64, 114
1, 313173, Control_c, 0, 64, 115
1, 313188, Control_c, 0, 64, 127
1, 313513, Note_off_c, 0, 67, 37
1, 314441, Note_on_c, 0, 74, 37
1, 314458, Note_on_c, 0, 62, 28
1, 314464, Note_on_c, 0, 66, 35
1, 314487, Control_c, 0, 64, 122
1, 314501, Control_c, 0, 64, 107
1, 314516, Control_c, 0, 64, 96
1, 314531, Control_c, 0, 64, 88
1, 314545, Control_c, 0, 64, 82
1, 314560, Control_c, 0, 64, 77
1, 314583, Control_c, 0, 64, 69
1, 314598, Control_c, 0, 64, 63
1, 314613, Note_off_c, 0, 50, 32
1, 314613, Control_c, 0, 64, 54
1, 314627, Control_c, 0, 64, 44
1, 314642, Control_c, 0, 64, 39
1, 314657, Control_c, 0, 64, 38
1, 314668, Note_off_c, 0, 76, 39
1, 314672, Control_c, 0, 64, 34
1, 314687, Control_c, 0, 64, 19
1, 314701, Control_c, 0, 64, 0
1, 314895, Control_c, 0, 64, 16
1, 314910, Control_c, 0, 64, 25
1, 314924, Control_c, 0, 64, 32
1, 314939, Control_c, 0, 64, 38
1, 314954, Control_c, 0, 64, 46
1, 314968, Control_c, 0, 64, 54
1, 314983, Control_c, 0, 64, 59
1, 314998, Control_c, 0, 64, 61
1, 315013, Control_c, 0, 64, 62
1, 315028, Control_c, 0, 64, 63
1, 315042, Control_c, 0, 64, 64
1, 315057, Control_c, 0, 64, 66
1, 315072, Control_c, 0, 64, 68
1, 315087, Control_c, 0, 64, 69
1, 315102, Control_c, 0, 64, 69
1, 315117, Control_c, 0, 64, 71
1, 315132, Control_c, 0, 64, 72
1, 315147, Control_c, 0, 64, 73
1, 315162, Control_c, 0, 64, 74
1, 315176, Control_c, 0, 64, 74
1, 315206, Control_c, 0, 64, 75
1, 315221, Control_c, 0, 64, 75
1, 315236, Control_c, 0, 64, 76
1, 315249, Note_off_c, 0, 74, 40
1, 315250, Control_c, 0, 64, 76
1, 315254, Note_off_c, 0, 62, 25
1, 315331, Control_c, 0, 64, 77
1, 315338, Note_off_c, 0, 66, 39
1, 315583, Control_c, 0, 64, 76
1, 315644, Control_c, 0, 64, 76
1, 315673, Control_c, 0, 64, 75
1, 315703, Control_c, 0, 64, 75
1, 315718, Control_c, 0, 64, 74
1, 315733, Control_c, 0, 64, 74
1, 315747, Control_c, 0, 64, 73
1, 315762, Control_c, 0, 64, 73
1, 315777, Control_c, 0, 64, 72
1, 315791, Control_c, 0, 64, 72
1, 315821, Control_c, 0, 64, 71
1, 315836, Control_c, 0, 64, 70
1, 315851, Control_c, 0, 64, 70
1, 315865, Control_c, 0, 64, 69
1, 315880, Control_c, 0, 64, 69
1, 315895, Control_c, 0, 64, 68
1, 315940, Control_c, 0, 64, 68
1, 315954, Control_c, 0, 64, 67
1, 315984, Control_c, 0, 64, 67
1, 315999, Control_c, 0, 64, 66
1, 316014, Control_c, 0, 64, 65
1, 316029, Control_c, 0, 64, 65
1, 316044, Control_c, 0, 64, 64
1, 316065, Control_c, 0, 64, 63
1, 316080, Control_c, 0, 64, 62
1, 316095, Control_c, 0, 64, 61
1, 316110, Control_c, 0, 64, 59
1, 316125, Control_c, 0, 64, 59
1, 316140, Control_c, 0, 64, 58
1, 316154, Control_c, 0, 64, 58
1, 316169, Control_c, 0, 64, 56
1, 316184, Control_c, 0, 64, 55
1, 316199, Control_c, 0, 64, 55
1, 316273, Control_c, 0, 64, 54
1, 316318, Control_c, 0, 64, 54
1, 316332, Control_c, 0, 64, 53
1, 316347, Control_c, 0, 64, 52
1, 316362, Control_c, 0, 64, 51
1, 316421, Control_c, 0, 64, 50
1, 316436, Control_c, 0, 64, 49
1, 316452, Control_c, 0, 64, 49
1, 316467, Control_c, 0, 64, 48
1, 316496, Control_c, 0, 64, 48
1, 316511, Control_c, 0, 64, 47
1, 316526, Control_c, 0, 64, 46
1, 316541, Control_c, 0, 64, 45
1, 316556, Control_c, 0, 64, 44
1, 316570, Control_c, 0, 64, 44
1, 316585, Control_c, 0, 64, 43
1, 316600, Control_c, 0, 64, 42
1, 316614, Control_c, 0, 64, 40
1, 316629, Control_c, 0, 64, 38
1, 316644, Control_c, 0, 64, 38
1, 316659, Control_c, 0, 64, 37
1, 316674, Control_c, 0, 64, 36
1, 316688, Control_c, 0, 64, 34
1, 316703, Control_c, 0, 64, 32
1, 316719, Control_c, 0, 64, 32
1, 316734, Control_c, 0, 64, 31
1, 316793, Control_c, 0, 64, 30
1, 316808, Control_c, 0, 64, 30
1, 316830, Control_c, 0, 64, 29
1, 316845, Control_c, 0, 64, 29
1, 316860, Control_c, 0, 64, 28
1, 316875, Control_c, 0, 64, 28
1, 316890, Control_c, 0, 64, 27
1, 316904, Control_c, 0, 64, 26
1, 316919, Control_c, 0, 64, 25
1, 316934, Control_c, 0, 64, 24
1, 316948, Control_c, 0, 64, 22
1, 316963, Control_c, 0, 64, 21
1, 316978, Control_c, 0, 64, 20
1, 316993, Control_c, 0, 64, 19
1, 317008, Control_c, 0, 64, 18
1, 317022, Control_c, 0, 64, 16
1, 317037, Control_c, 0, 64, 13
1, 317052, Control_c, 0, 64, 11
1, 317067, Control_c, 0, 64, 11
1, 317082, Control_c, 0, 64, 10
1, 317096, Control_c, 0, 64, 9
1, 317111, Control_c, 0, 64, 0
1, 318608, Control_c, 0, 67, 125
1, 318623, Control_c, 0, 67, 119
1, 318638, Control_c, 0, 67, 114
1, 318653, Control_c, 0, 67, 105
1, 318667, Control_c, 0, 67, 89
1, 318682, Control_c, 0, 67, 64
1, 318697, Control_c, 0, 67, 36
1, 318712, Control_c, 0, 67, 11
1, 318727, Control_c, 0, 67, 0
1, 318802, End_track
0, 0, End_of_file
