0, 0, Header, 0, 1, 384
1, 0, Start_track
1, 0, Title_t, "Prelude Op.32/10-Jonathan Floril"
1, 0, Text_t, "2009 Piano-e-Competition audition round"
1, 0, Text_t, "captured January 2009"
1, 0, Text_t, "http://www.piano-e-competition.com/"
1, 0, Text_t, "File processed for distribution by software from Zenph Studios, Inc., http://www.zenph.com"
1, 0, Instrument_name_t, "Yamaha Disklavier Pro Mark IV concert grand piano, model DCFIIISM4PRO"
1, 0, Sequencer_specific, 39, 67, 113, 0, 1, 0, 1, 0, 80, 114, 101, 108, 117, 100, 101, 32, 79, 112, 46, 51, 50, 47, 49, 48, 74, 111, 110, 97, 116, 104, 97, 110, 32, 70, 108, 111, 114, 105, 108, 32
1, 0, Sequencer_specific, 6, 67, 113, 0, 0, 0, 69
1, 0, System_exclusive, 21, 67, 113, 126, 21, 0, 2, 2, 0, 3, 14, 1, 4, 1, 13, 13, 10, 11, 9, 2, 7, 247
1, 0, Sequencer_specific, 5, 67, 123, 12, 2, 1
1, 0, Tempo, 512820
1, 0, Time_signature, 4, 2, 24, 8
1, 0, System_exclusive, 5, 126, 127, 9, 1, 247
1, 1, System_exclusive, 8, 67, 16, 76, 0, 0, 126, 0, 247
1, 2, System_exclusive, 8, 67, 16, 76, 8, 9, 7, 1, 247
1, 3, Control_c, 0, 0, 0
1, 3, Control_c, 1, 0, 0
1, 3, Control_c, 2, 0, 0
1, 3, Control_c, 3, 0, 0
1, 3, Control_c, 4, 0, 0
1, 3, Control_c, 5, 0, 0
1, 3, Control_c, 6, 0, 0
1, 3, Control_c, 7, 0, 0
1, 3, Control_c, 8, 0, 0
1, 3, Control_c, 9, 0, 127
1, 3, Control_c, 10, 0, 0
1, 3, Control_c, 11, 0, 0
1, 3, Control_c, 12, 0, 0
1, 3, Control_c, 13, 0, 0
1, 3, Control_c, 14, 0, 0
1, 3, Control_c, 15, 0, 0
1, 4, Control_c, 0, 32, 0
1, 4, Control_c, 1, 32, 0
1, 4, Control_c, 2, 32, 0
1, 4, Control_c, 3, 32, 0
1, 4, Control_c, 4, 32, 0
1, 4, Control_c, 5, 32, 0
1, 4, Control_c, 6, 32, 0
1, 4, Control_c, 7, 32, 0
1, 4, Control_c, 8, 32, 0
1, 4, Control_c, 9, 32, 0
1, 4, Control_c, 10, 32, 0
1, 4, Control_c, 11, 32, 0
1, 4, Control_c, 12, 32, 0
1, 4, Control_c, 13, 32, 0
1, 4, Control_c, 14, 32, 0
1, 4, Control_c, 15, 32, 0
1, 5, Program_c, 0, 0
1, 5, Program_c, 1, 0
1, 5, Program_c, 2, 0
1, 5, Program_c, 3, 0
1, 5, Program_c, 4, 0
1, 5, Program_c, 5, 0
1, 5, Program_c, 6, 0
1, 5, Program_c, 7, 0
1, 5, Program_c, 8, 0
1, 5, Program_c, 9, 0
1, 5, Program_c, 10, 0
1, 5, Program_c, 11, 0
1, 5, Program_c, 12, 0
1, 5, Program_c, 13, 0
1, 5, Program_c, 14, 0
1, 5, Program_c, 15, 0
1, 6, Control_c, 0, 7, 100
1, 6, Control_c, 1, 7, 100
1, 6, Control_c, 2, 7, 100
1, 6, Control_c, 3, 7, 100
1, 6, Control_c, 4, 7, 100
1, 6, Control_c, 5, 7, 100
1, 6, Control_c, 6, 7, 100
1, 6, Control_c, 7, 7, 100
1, 6, Control_c, 8, 7, 100
1, 6, Control_c, 9, 7, 100
1, 6, Control_c, 10, 7, 100
1, 6, Control_c, 11, 7, 100
1, 6, Control_c, 12, 7, 100
1, 6, Control_c, 13, 7, 100
1, 6, Control_c, 14, 7, 100
1, 6, Control_c, 15, 7, 100
1, 117, Control_c, 0, 67, 15
1, 229, Control_c, 0, 67, 31
1, 341, Control_c, 0, 67, 46
1, 452, Control_c, 0, 67, 63
1, 564, Control_c, 0, 67, 77
1, 676, Control_c, 0, 67, 94
1, 787, Control_c, 0, 67, 108
1, 899, Control_c, 0, 67, 127
1, 1131, Control_c, 0, 64, 98
1, 1131, Note_on_c, 0, 76, 66
1, 1146, Control_c, 0, 64, 106
1, 1161, Control_c, 0, 64, 122
1, 1175, Control_c, 0, 64, 127
1, 1179, Note_on_c, 0, 71, 44
1, 1226, Note_on_c, 0, 59, 34
1, 1230, Note_on_c, 0, 55, 37
1, 1252, Note_on_c, 0, 64, 26
1, 1617, Note_off_c, 0, 59, 34
1, 1617, Note_off_c, 0, 76, 61
1, 1627, Note_off_c, 0, 64, 40
1, 1682, Note_off_c, 0, 55, 41
1, 1783, Note_off_c, 0, 71, 41
1, 1915, Note_on_c, 0, 78, 73
1, 1945, Note_on_c, 0, 59, 42
1, 1948, Note_on_c, 0, 62, 46
1, 1957, Note_on_c, 0, 74, 28
1, 2000, Poly_aftertouch_c, 0, 66, 127
1, 2012, Control_c, 0, 64, 101
1, 2019, Poly_aftertouch_c, 0, 66, 0
1, 2027, Control_c, 0, 64, 83
1, 2041, Control_c, 0, 64, 68
1, 2043, Poly_aftertouch_c, 0, 66, 0
1, 2056, Control_c, 0, 64, 59
1, 2064, Note_on_c, 0, 76, 73
1, 2071, Control_c, 0, 64, 45
1, 2078, Note_on_c, 0, 55, 56
1, 2084, Note_on_c, 0, 71, 46
1, 2086, Control_c, 0, 64, 27
1, 2099, Note_on_c, 0, 64, 45
1, 2101, Control_c, 0, 64, 0
1, 2102, Note_off_c, 0, 74, 41
1, 2112, Note_off_c, 0, 62, 36
1, 2147, Control_c, 0, 64, 10
1, 2162, Control_c, 0, 64, 28
1, 2162, Control_c, 0, 67, 124
1, 2166, Note_off_c, 0, 78, 61
1, 2177, Control_c, 0, 64, 41
1, 2177, Control_c, 0, 67, 121
1, 2199, Control_c, 0, 64, 53
1, 2199, Control_c, 0, 67, 120
1, 2214, Control_c, 0, 64, 62
1, 2214, Control_c, 0, 67, 119
1, 2228, Control_c, 0, 64, 70
1, 2243, Control_c, 0, 64, 86
1, 2256, Note_off_c, 0, 64, 52
1, 2258, Control_c, 0, 64, 107
1, 2273, Control_c, 0, 64, 127
1, 2297, Note_off_c, 0, 59, 49
1, 2320, Note_off_c, 0, 55, 61
1, 2333, Control_c, 0, 67, 120
1, 2347, Control_c, 0, 67, 121
1, 2362, Control_c, 0, 67, 122
1, 2377, Control_c, 0, 67, 123
1, 2392, Control_c, 0, 67, 125
1, 2407, Control_c, 0, 67, 127
1, 2421, Control_c, 0, 67, 127
1, 2436, Control_c, 0, 64, 115
1, 2451, Control_c, 0, 64, 103
1, 2465, Control_c, 0, 64, 95
1, 2480, Control_c, 0, 64, 89
1, 2495, Control_c, 0, 64, 84
1, 2510, Control_c, 0, 64, 79
1, 2525, Control_c, 0, 64, 71
1, 2539, Control_c, 0, 64, 66
1, 2554, Control_c, 0, 64, 61
1, 2560, Note_on_c, 0, 78, 73
1, 2561, Note_on_c, 0, 74, 48
1, 2569, Control_c, 0, 64, 54
1, 2583, Note_off_c, 0, 76, 57
1, 2584, Control_c, 0, 64, 44
1, 2596, Note_on_c, 0, 62, 44
1, 2599, Control_c, 0, 64, 31
1, 2609, Note_on_c, 0, 59, 35
1, 2613, Control_c, 0, 64, 12
1, 2614, Note_on_c, 0, 66, 39
1, 2628, Control_c, 0, 64, 0
1, 2702, Control_c, 0, 64, 22
1, 2717, Control_c, 0, 64, 33
1, 2732, Control_c, 0, 64, 41
1, 2747, Control_c, 0, 64, 50
1, 2762, Control_c, 0, 64, 59
1, 2777, Control_c, 0, 64, 69
1, 2792, Control_c, 0, 64, 92
1, 2807, Control_c, 0, 64, 127
1, 2894, Note_off_c, 0, 66, 40
1, 2917, Note_off_c, 0, 78, 56
1, 2922, Note_off_c, 0, 62, 46
1, 2924, Note_off_c, 0, 71, 47
1, 2965, Note_off_c, 0, 59, 42
1, 2966, Note_off_c, 0, 74, 37
1, 3618, Note_on_c, 0, 66, 39
1, 3621, Note_on_c, 0, 62, 26
1, 3655, Note_on_c, 0, 59, 6
1, 3665, Note_on_c, 0, 54, 32
1, 3699, Note_on_c, 0, 47, 34
1, 4161, Note_off_c, 0, 54, 38
1, 4179, Note_off_c, 0, 47, 32
1, 4228, Note_off_c, 0, 59, 40
1, 4382, Note_off_c, 0, 62, 39
1, 4511, Note_off_c, 0, 66, 41
1, 4979, Control_c, 0, 64, 122
1, 4994, Control_c, 0, 64, 107
1, 5008, Control_c, 0, 64, 94
1, 5023, Control_c, 0, 64, 86
1, 5038, Control_c, 0, 64, 83
1, 5053, Control_c, 0, 64, 82
1, 5082, Control_c, 0, 64, 81
1, 5097, Control_c, 0, 64, 81
1, 5111, Control_c, 0, 64, 79
1, 5126, Control_c, 0, 64, 78
1, 5141, Control_c, 0, 64, 76
1, 5149, Note_on_c, 0, 76, 70
1, 5156, Control_c, 0, 64, 73
1, 5170, Control_c, 0, 64, 69
1, 5193, Control_c, 0, 64, 65
1, 5203, Note_on_c, 0, 67, 37
1, 5208, Control_c, 0, 64, 58
1, 5213, Note_on_c, 0, 59, 45
1, 5222, Control_c, 0, 64, 51
1, 5229, Note_on_c, 0, 64, 40
1, 5237, Control_c, 0, 64, 42
1, 5252, Control_c, 0, 64, 37
1, 5266, Control_c, 0, 64, 34
1, 5296, Control_c, 0, 64, 36
1, 5312, Control_c, 0, 64, 43
1, 5327, Control_c, 0, 64, 52
1, 5342, Control_c, 0, 64, 60
1, 5357, Control_c, 0, 64, 67
1, 5371, Control_c, 0, 64, 77
1, 5386, Control_c, 0, 64, 94
1, 5401, Control_c, 0, 64, 127
1, 5460, Control_c, 0, 67, 124
1, 5475, Control_c, 0, 67, 120
1, 5489, Control_c, 0, 67, 118
1, 5504, Control_c, 0, 67, 116
1, 5519, Control_c, 0, 67, 114
1, 5534, Control_c, 0, 67, 113
1, 5540, Note_off_c, 0, 67, 44
1, 5549, Control_c, 0, 67, 111
1, 5564, Control_c, 0, 64, 95
1, 5564, Control_c, 0, 67, 110
1, 5566, Note_on_c, 0, 74, 76
1, 5579, Control_c, 0, 64, 74
1, 5579, Control_c, 0, 67, 109
1, 5594, Control_c, 0, 64, 64
1, 5599, Note_on_c, 0, 71, 49
1, 5606, Note_off_c, 0, 76, 58
1, 5609, Control_c, 0, 64, 55
1, 5612, Note_on_c, 0, 62, 54
1, 5624, Control_c, 0, 64, 42
1, 5626, Note_on_c, 0, 54, 46
1, 5637, Note_off_c, 0, 64, 37
1, 5638, Control_c, 0, 64, 30
1, 5638, Control_c, 0, 67, 109
1, 5639, Note_off_c, 0, 71, 0
1, 5639, Note_on_c, 0, 71, 7
1, 5653, Control_c, 0, 64, 20
1, 5668, Control_c, 0, 64, 11
1, 5682, Control_c, 0, 64, 8
1, 5697, Control_c, 0, 64, 15
1, 5712, Control_c, 0, 64, 29
1, 5727, Control_c, 0, 64, 40
1, 5742, Control_c, 0, 64, 51
1, 5742, Control_c, 0, 67, 108
1, 5756, Control_c, 0, 64, 60
1, 5756, Control_c, 0, 67, 107
1, 5771, Control_c, 0, 64, 72
1, 5771, Control_c, 0, 67, 103
1, 5786, Control_c, 0, 64, 96
1, 5786, Control_c, 0, 67, 98
1, 5801, Control_c, 0, 64, 127
1, 5801, Control_c, 0, 67, 91
1, 5815, Control_c, 0, 67, 82
1, 5830, Control_c, 0, 67, 75
1, 5844, Note_off_c, 0, 74, 57
1, 5845, Control_c, 0, 67, 72
1, 5846, Note_off_c, 0, 62, 52
1, 5853, Note_off_c, 0, 59, 42
1, 5861, Control_c, 0, 67, 70
1, 5876, Control_c, 0, 67, 67
1, 5877, Note_off_c, 0, 54, 52
1, 5890, Control_c, 0, 67, 64
1, 5905, Control_c, 0, 67, 60
1, 5920, Control_c, 0, 67, 58
1, 5942, Control_c, 0, 67, 59
1, 5946, Note_off_c, 0, 71, 39
1, 5957, Control_c, 0, 67, 60
1, 5972, Control_c, 0, 67, 61
1, 5987, Control_c, 0, 67, 61
1, 6002, Control_c, 0, 67, 62
1, 6016, Control_c, 0, 67, 63
1, 6031, Control_c, 0, 67, 66
1, 6046, Control_c, 0, 67, 69
1, 6061, Control_c, 0, 67, 72
1, 6074, Note_on_c, 0, 76, 65
1, 6076, Control_c, 0, 64, 90
1, 6076, Control_c, 0, 67, 78
1, 6090, Control_c, 0, 64, 73
1, 6090, Control_c, 0, 67, 84
1, 6098, Note_on_c, 0, 67, 38
1, 6105, Control_c, 0, 64, 64
1, 6105, Control_c, 0, 67, 91
1, 6106, Note_on_c, 0, 64, 44
1, 6107, Note_on_c, 0, 59, 42
1, 6121, Control_c, 0, 64, 55
1, 6121, Control_c, 0, 67, 100
1, 6136, Control_c, 0, 64, 43
1, 6136, Control_c, 0, 67, 113
1, 6151, Control_c, 0, 64, 29
1, 6151, Control_c, 0, 67, 127
1, 6160, Note_off_c, 0, 67, 42
1, 6166, Control_c, 0, 64, 22
1, 6181, Control_c, 0, 64, 21
1, 6187, Note_on_c, 0, 74, 68
1, 6195, Control_c, 0, 64, 20
1, 6209, Note_on_c, 0, 71, 53
1, 6210, Control_c, 0, 64, 15
1, 6220, Note_off_c, 0, 76, 63
1, 6223, Note_on_c, 0, 62, 47
1, 6225, Control_c, 0, 64, 0
1, 6232, Note_off_c, 0, 64, 36
1, 6235, Note_on_c, 0, 54, 37
1, 6266, Note_off_c, 0, 71, 0
1, 6266, Note_on_c, 0, 71, 18
1, 6337, Note_off_c, 0, 59, 33
1, 6417, Control_c, 0, 64, 10
1, 6432, Control_c, 0, 64, 31
1, 6446, Control_c, 0, 64, 47
1, 6461, Control_c, 0, 64, 59
1, 6476, Control_c, 0, 64, 68
1, 6491, Control_c, 0, 64, 73
1, 6551, Control_c, 0, 64, 72
1, 6565, Control_c, 0, 64, 68
1, 6580, Control_c, 0, 64, 61
1, 6580, Note_off_c, 0, 62, 58
1, 6586, Note_off_c, 0, 74, 56
1, 6588, Note_on_c, 0, 76, 63
1, 6595, Control_c, 0, 64, 51
1, 6610, Control_c, 0, 64, 35
1, 6621, Note_on_c, 0, 67, 31
1, 6625, Control_c, 0, 64, 14
1, 6633, Note_off_c, 0, 54, 44
1, 6639, Control_c, 0, 64, 0
1, 6644, Note_on_c, 0, 59, 33
1, 6646, Note_on_c, 0, 64, 30
1, 6735, Control_c, 0, 64, 25
1, 6750, Control_c, 0, 64, 38
1, 6765, Control_c, 0, 64, 50
1, 6780, Control_c, 0, 64, 61
1, 6795, Control_c, 0, 64, 71
1, 6810, Control_c, 0, 64, 91
1, 6825, Control_c, 0, 64, 119
1, 6833, Note_off_c, 0, 76, 56
1, 6839, Control_c, 0, 64, 127
1, 6855, Note_off_c, 0, 64, 41
1, 6914, Note_off_c, 0, 59, 40
1, 6914, Note_off_c, 0, 67, 42
1, 6923, Note_off_c, 0, 71, 46
1, 7649, Note_on_c, 0, 64, 39
1, 7665, Note_on_c, 0, 59, 26
1, 7692, Note_on_c, 0, 52, 26
1, 7692, Note_on_c, 0, 55, 21
1, 7698, Note_on_c, 0, 40, 37
1, 7698, Note_on_c, 0, 47, 27
1, 8024, Note_off_c, 0, 55, 36
1, 8132, Note_off_c, 0, 40, 38
1, 8195, Note_off_c, 0, 47, 37
1, 8259, Note_off_c, 0, 59, 40
1, 8288, Note_off_c, 0, 64, 37
1, 8393, Note_off_c, 0, 52, 42
1, 9042, Control_c, 0, 64, 111
1, 9057, Control_c, 0, 64, 96
1, 9072, Control_c, 0, 64, 88
1, 9087, Control_c, 0, 64, 83
1, 9101, Note_on_c, 0, 74, 72
1, 9102, Control_c, 0, 64, 78
1, 9116, Control_c, 0, 64, 70
1, 9131, Control_c, 0, 64, 63
1, 9138, Note_on_c, 0, 71, 39
1, 9146, Control_c, 0, 64, 56
1, 9161, Control_c, 0, 64, 48
1, 9176, Control_c, 0, 64, 42
1, 9186, Note_on_c, 0, 62, 41
1, 9189, Note_on_c, 0, 59, 37
1, 9190, Control_c, 0, 64, 40
1, 9195, Note_on_c, 0, 55, 43
1, 9220, Control_c, 0, 64, 40
1, 9234, Control_c, 0, 64, 41
1, 9249, Control_c, 0, 64, 44
1, 9264, Control_c, 0, 64, 50
1, 9279, Control_c, 0, 64, 57
1, 9294, Control_c, 0, 64, 65
1, 9310, Control_c, 0, 64, 77
1, 9325, Control_c, 0, 64, 104
1, 9339, Control_c, 0, 64, 127
1, 9360, Note_off_c, 0, 62, 57
1, 9533, Note_off_c, 0, 71, 46
1, 9561, Control_c, 0, 64, 104
1, 9576, Control_c, 0, 64, 84
1, 9582, Note_on_c, 0, 73, 87
1, 9591, Control_c, 0, 64, 71
1, 9602, Note_on_c, 0, 67, 59
1, 9605, Control_c, 0, 64, 62
1, 9620, Control_c, 0, 64, 54
1, 9620, Control_c, 0, 67, 127
1, 9632, Note_on_c, 0, 61, 52
1, 9633, Note_on_c, 0, 52, 59
1, 9635, Control_c, 0, 64, 45
1, 9635, Control_c, 0, 67, 126
1, 9649, Control_c, 0, 64, 39
1, 9649, Control_c, 0, 67, 124
1, 9656, Note_off_c, 0, 74, 52
1, 9664, Control_c, 0, 64, 37
1, 9664, Control_c, 0, 67, 122
1, 9686, Control_c, 0, 64, 37
1, 9686, Control_c, 0, 67, 120
1, 9701, Control_c, 0, 64, 39
1, 9701, Control_c, 0, 67, 117
1, 9716, Control_c, 0, 64, 47
1, 9716, Control_c, 0, 67, 114
1, 9731, Control_c, 0, 64, 59
1, 9731, Control_c, 0, 67, 111
1, 9746, Control_c, 0, 64, 74
1, 9746, Control_c, 0, 67, 108
1, 9761, Control_c, 0, 64, 127
1, 9761, Control_c, 0, 67, 104
1, 9776, Control_c, 0, 67, 100
1, 9790, Control_c, 0, 67, 95
1, 9805, Control_c, 0, 67, 89
1, 9820, Control_c, 0, 67, 82
1, 9835, Control_c, 0, 67, 79
1, 9850, Control_c, 0, 67, 78
1, 9864, Control_c, 0, 67, 76
1, 9879, Control_c, 0, 67, 76
1, 9894, Control_c, 0, 67, 75
1, 9909, Control_c, 0, 67, 76
1, 9916, Note_off_c, 0, 61, 59
1, 9924, Control_c, 0, 67, 77
1, 9931, Note_off_c, 0, 55, 41
1, 9935, Note_off_c, 0, 52, 35
1, 9938, Control_c, 0, 67, 77
1, 9942, Note_off_c, 0, 59, 37
1, 9953, Control_c, 0, 67, 78
1, 9968, Control_c, 0, 67, 78
1, 9982, Control_c, 0, 67, 79
1, 9990, Note_off_c, 0, 73, 31
1, 9997, Control_c, 0, 67, 79
1, 9998, Note_off_c, 0, 67, 39
1, 10012, Control_c, 0, 67, 80
1, 10042, Control_c, 0, 67, 80
1, 10056, Control_c, 0, 64, 108
1, 10056, Control_c, 0, 67, 81
1, 10071, Control_c, 0, 64, 68
1, 10071, Control_c, 0, 67, 83
1, 10086, Note_on_c, 0, 74, 77
1, 10086, Control_c, 0, 64, 57
1, 10086, Control_c, 0, 67, 86
1, 10101, Control_c, 0, 64, 44
1, 10101, Control_c, 0, 67, 90
1, 10107, Note_on_c, 0, 55, 54
1, 10108, Note_on_c, 0, 59, 47
1, 10117, Control_c, 0, 64, 32
1, 10117, Control_c, 0, 67, 100
1, 10125, Note_on_c, 0, 71, 28
1, 10132, Control_c, 0, 64, 28
1, 10132, Control_c, 0, 67, 112
1, 10147, Control_c, 0, 64, 33
1, 10147, Control_c, 0, 67, 124
1, 10159, Note_off_c, 0, 71, 55
1, 10161, Control_c, 0, 64, 48
1, 10161, Control_c, 0, 67, 127
1, 10176, Control_c, 0, 64, 67
1, 10191, Control_c, 0, 64, 127
1, 10211, Note_on_c, 0, 73, 83
1, 10231, Note_on_c, 0, 52, 63
1, 10235, Control_c, 0, 64, 99
1, 10240, Note_on_c, 0, 67, 44
1, 10245, Note_off_c, 0, 74, 64
1, 10250, Control_c, 0, 64, 67
1, 10256, Note_on_c, 0, 61, 44
1, 10265, Control_c, 0, 64, 51
1, 10280, Control_c, 0, 64, 29
1, 10295, Note_off_c, 0, 67, 0
1, 10295, Note_on_c, 0, 67, 8
1, 10295, Control_c, 0, 64, 0
1, 10321, Note_off_c, 0, 61, 0
1, 10321, Note_on_c, 0, 61, 25
1, 10368, Control_c, 0, 64, 33
1, 10383, Control_c, 0, 64, 45
1, 10397, Control_c, 0, 64, 57
1, 10412, Control_c, 0, 64, 70
1, 10435, Control_c, 0, 64, 104
1, 10450, Control_c, 0, 64, 127
1, 10482, Note_off_c, 0, 52, 58
1, 10485, Note_off_c, 0, 61, 55
1, 10486, Note_off_c, 0, 55, 38
1, 10514, Note_off_c, 0, 59, 40
1, 10553, Control_c, 0, 64, 119
1, 10568, Control_c, 0, 64, 106
1, 10583, Control_c, 0, 64, 98
1, 10598, Control_c, 0, 64, 90
1, 10612, Control_c, 0, 64, 81
1, 10627, Control_c, 0, 64, 70
1, 10642, Control_c, 0, 64, 61
1, 10649, Note_on_c, 0, 74, 66
1, 10656, Note_off_c, 0, 73, 60
1, 10657, Control_c, 0, 64, 47
1, 10672, Control_c, 0, 64, 26
1, 10680, Note_on_c, 0, 71, 44
1, 10686, Control_c, 0, 64, 0
1, 10690, Note_on_c, 0, 59, 31
1, 10691, Note_on_c, 0, 62, 41
1, 10697, Note_on_c, 0, 55, 44
1, 10775, Control_c, 0, 64, 15
1, 10790, Control_c, 0, 64, 32
1, 10804, Control_c, 0, 64, 43
1, 10819, Control_c, 0, 64, 53
1, 10834, Control_c, 0, 64, 63
1, 10849, Control_c, 0, 64, 73
1, 10864, Control_c, 0, 64, 86
1, 10879, Control_c, 0, 64, 97
1, 10894, Control_c, 0, 64, 113
1, 10909, Control_c, 0, 64, 127
1, 10944, Note_off_c, 0, 62, 41
1, 10957, Note_off_c, 0, 59, 40
1, 10989, Note_off_c, 0, 74, 38
1, 11035, Note_off_c, 0, 67, 43
1, 11055, Note_off_c, 0, 55, 45
1, 11061, Note_off_c, 0, 71, 46
1, 11535, Note_on_c, 0, 62, 49
1, 11541, Note_on_c, 0, 59, 32
1, 11558, Note_on_c, 0, 55, 22
1, 11559, Note_on_c, 0, 43, 47
1, 11573, Note_on_c, 0, 50, 32
1, 11657, Control_c, 0, 67, 126
1, 11672, Control_c, 0, 67, 125
1, 11703, Control_c, 0, 67, 125
1, 11716, Note_off_c, 0, 55, 43
1, 11732, Control_c, 0, 67, 124
1, 11747, Control_c, 0, 67, 124
1, 11762, Control_c, 0, 67, 122
1, 11763, Note_off_c, 0, 43, 34
1, 11771, Note_off_c, 0, 50, 41
1, 11777, Control_c, 0, 67, 119
1, 11792, Control_c, 0, 67, 117
1, 11806, Control_c, 0, 67, 116
1, 11818, Note_off_c, 0, 59, 41
1, 11821, Control_c, 0, 67, 115
1, 11850, Control_c, 0, 67, 115
1, 11858, Note_off_c, 0, 62, 60
1, 11865, Control_c, 0, 67, 114
1, 11976, Control_c, 0, 67, 115
1, 12021, Control_c, 0, 67, 116
1, 12065, Control_c, 0, 67, 116
1, 12080, Control_c, 0, 67, 117
1, 12095, Control_c, 0, 67, 117
1, 12139, Control_c, 0, 67, 118
1, 12169, Control_c, 0, 67, 118
1, 12183, Control_c, 0, 67, 119
1, 12198, Control_c, 0, 67, 119
1, 12213, Control_c, 0, 67, 120
1, 12228, Control_c, 0, 67, 120
1, 12257, Control_c, 0, 67, 121
1, 12272, Control_c, 0, 67, 122
1, 12287, Control_c, 0, 67, 126
1, 12302, Control_c, 0, 67, 127
1, 12375, Control_c, 0, 64, 107
1, 12390, Control_c, 0, 64, 93
1, 12405, Control_c, 0, 64, 87
1, 12418, Note_on_c, 0, 74, 71
1, 12420, Control_c, 0, 64, 84
1, 12435, Control_c, 0, 64, 77
1, 12438, Note_on_c, 0, 66, 57
1, 12439, Note_on_c, 0, 69, 45
1, 12450, Control_c, 0, 64, 67
1, 12465, Control_c, 0, 64, 55
1, 12478, Note_on_c, 0, 57, 45
1, 12480, Control_c, 0, 64, 40
1, 12480, Note_on_c, 0, 62, 51
1, 12495, Control_c, 0, 64, 29
1, 12497, Note_on_c, 0, 54, 48
1, 12510, Control_c, 0, 64, 26
1, 12525, Control_c, 0, 64, 24
1, 12540, Control_c, 0, 64, 23
1, 12554, Control_c, 0, 64, 26
1, 12569, Control_c, 0, 64, 38
1, 12584, Control_c, 0, 64, 52
1, 12599, Control_c, 0, 64, 65
1, 12614, Control_c, 0, 64, 97
1, 12629, Control_c, 0, 64, 127
1, 12712, Note_off_c, 0, 62, 42
1, 12760, Note_off_c, 0, 57, 40
1, 12763, Note_off_c, 0, 74, 48
1, 12830, Note_off_c, 0, 69, 48
1, 12866, Note_off_c, 0, 54, 41
1, 12885, Note_off_c, 0, 66, 51
1, 13469, Note_on_c, 0, 62, 46
1, 13488, Note_on_c, 0, 54, 38
1, 13504, Note_on_c, 0, 57, 28
1, 13534, Note_on_c, 0, 38, 38
1, 13536, Note_on_c, 0, 45, 34
1, 13611, Poly_aftertouch_c, 0, 50, 127
1, 13660, Note_off_c, 0, 54, 42
1, 13694, Note_off_c, 0, 57, 40
1, 13715, Note_off_c, 0, 38, 39
1, 13720, Note_off_c, 0, 45, 42
1, 13738, Note_off_c, 0, 62, 37
1, 13759, Poly_aftertouch_c, 0, 50, 0
1, 14215, Note_on_c, 0, 73, 50
1, 14232, Note_on_c, 0, 61, 38
1, 14238, Control_c, 0, 64, 114
1, 14253, Control_c, 0, 64, 104
1, 14268, Control_c, 0, 64, 100
1, 14283, Control_c, 0, 64, 99
1, 14298, Control_c, 0, 64, 98
1, 14313, Control_c, 0, 64, 97
1, 14327, Control_c, 0, 64, 94
1, 14342, Control_c, 0, 64, 91
1, 14357, Control_c, 0, 64, 89
1, 14371, Control_c, 0, 64, 88
1, 14380, Note_on_c, 0, 72, 52
1, 14386, Control_c, 0, 64, 88
1, 14394, Note_off_c, 0, 73, 31
1, 14401, Control_c, 0, 64, 87
1, 14404, Note_on_c, 0, 60, 39
1, 14416, Control_c, 0, 64, 85
1, 14431, Control_c, 0, 64, 84
1, 14445, Control_c, 0, 64, 83
1, 14460, Control_c, 0, 64, 83
1, 14481, Note_off_c, 0, 61, 22
1, 14505, Control_c, 0, 64, 82
1, 14519, Control_c, 0, 64, 81
1, 14534, Control_c, 0, 64, 81
1, 14549, Control_c, 0, 64, 80
1, 14578, Control_c, 0, 64, 79
1, 14608, Control_c, 0, 64, 79
1, 14623, Control_c, 0, 64, 78
1, 14638, Control_c, 0, 64, 78
1, 14653, Control_c, 0, 64, 77
1, 14668, Control_c, 0, 64, 76
1, 14682, Control_c, 0, 64, 75
1, 14697, Control_c, 0, 64, 75
1, 14712, Control_c, 0, 64, 74
1, 14716, Note_off_c, 0, 60, 41
1, 14727, Control_c, 0, 64, 73
1, 14736, Note_on_c, 0, 54, 42
1, 14742, Control_c, 0, 64, 72
1, 14757, Control_c, 0, 64, 71
1, 14771, Control_c, 0, 64, 70
1, 14786, Control_c, 0, 64, 69
1, 14801, Control_c, 0, 64, 67
1, 14816, Control_c, 0, 64, 65
1, 14831, Control_c, 0, 64, 63
1, 14845, Control_c, 0, 64, 59
1, 14860, Control_c, 0, 64, 52
1, 14865, Note_on_c, 0, 74, 47
1, 14873, Note_off_c, 0, 72, 41
1, 14875, Control_c, 0, 64, 42
1, 14882, Note_on_c, 0, 71, 40
1, 14891, Control_c, 0, 64, 28
1, 14892, Note_on_c, 0, 66, 31
1, 14897, Note_on_c, 0, 62, 39
1, 14906, Control_c, 0, 64, 0
1, 14908, Note_on_c, 0, 59, 37
1, 15016, Control_c, 0, 64, 14
1, 15031, Control_c, 0, 64, 28
1, 15046, Control_c, 0, 64, 44
1, 15061, Control_c, 0, 64, 59
1, 15076, Control_c, 0, 64, 84
1, 15091, Control_c, 0, 64, 127
1, 15134, Note_off_c, 0, 62, 41
1, 15177, Note_off_c, 0, 71, 46
1, 15182, Note_off_c, 0, 59, 40
1, 15188, Note_off_c, 0, 74, 40
1, 15249, Note_off_c, 0, 54, 41
1, 15256, Note_off_c, 0, 66, 41
1, 15898, Note_on_c, 0, 62, 29
1, 15949, Note_on_c, 0, 47, 12
1, 15955, Note_on_c, 0, 35, 29
1, 15955, Note_on_c, 0, 54, 9
1, 16002, Poly_aftertouch_c, 0, 59, 127
1, 16590, Note_off_c, 0, 35, 28
1, 16596, Note_off_c, 0, 54, 37
1, 16733, Poly_aftertouch_c, 0, 59, 0
1, 16802, Note_off_c, 0, 62, 42
1, 16884, Note_off_c, 0, 47, 36
1, 17018, Control_c, 0, 64, 117
1, 17033, Control_c, 0, 64, 109
1, 17047, Control_c, 0, 64, 105
1, 17062, Control_c, 0, 64, 102
1, 17077, Control_c, 0, 64, 100
1, 17092, Control_c, 0, 64, 97
1, 17107, Control_c, 0, 64, 95
1, 17121, Control_c, 0, 64, 93
1, 17136, Control_c, 0, 64, 92
1, 17151, Control_c, 0, 64, 90
1, 17173, Control_c, 0, 64, 88
1, 17188, Control_c, 0, 64, 87
1, 17203, Control_c, 0, 64, 87
1, 17218, Control_c, 0, 64, 86
1, 17233, Control_c, 0, 64, 86
1, 17247, Control_c, 0, 64, 85
1, 17262, Control_c, 0, 64, 84
1, 17277, Control_c, 0, 64, 83
1, 17293, Control_c, 0, 64, 82
1, 17308, Control_c, 0, 64, 81
1, 17323, Control_c, 0, 64, 81
1, 17338, Control_c, 0, 64, 80
1, 17352, Control_c, 0, 64, 80
1, 17396, Control_c, 0, 64, 79
1, 17411, Control_c, 0, 64, 76
1, 17426, Control_c, 0, 64, 71
1, 17441, Control_c, 0, 64, 67
1, 17449, Note_on_c, 0, 74, 68
1, 17456, Control_c, 0, 64, 64
1, 17470, Control_c, 0, 64, 61
1, 17471, Note_on_c, 0, 71, 50
1, 17485, Control_c, 0, 64, 56
1, 17500, Control_c, 0, 64, 50
1, 17515, Control_c, 0, 64, 44
1, 17525, Note_on_c, 0, 62, 37
1, 17526, Note_on_c, 0, 59, 39
1, 17530, Control_c, 0, 64, 37
1, 17544, Control_c, 0, 64, 32
1, 17559, Control_c, 0, 64, 28
1, 17574, Control_c, 0, 64, 25
1, 17589, Control_c, 0, 64, 24
1, 17604, Control_c, 0, 64, 24
1, 17619, Control_c, 0, 64, 25
1, 17634, Control_c, 0, 64, 31
1, 17648, Control_c, 0, 64, 38
1, 17663, Control_c, 0, 64, 45
1, 17663, Control_c, 0, 67, 127
1, 17678, Control_c, 0, 64, 53
1, 17678, Control_c, 0, 67, 122
1, 17693, Control_c, 0, 64, 61
1, 17693, Control_c, 0, 67, 120
1, 17708, Control_c, 0, 64, 72
1, 17708, Control_c, 0, 67, 118
1, 17723, Control_c, 0, 64, 103
1, 17723, Control_c, 0, 67, 117
1, 17738, Control_c, 0, 64, 127
1, 17738, Control_c, 0, 67, 113
1, 17752, Control_c, 0, 67, 108
1, 17767, Control_c, 0, 67, 102
1, 17782, Control_c, 0, 67, 98
1, 17796, Control_c, 0, 67, 96
1, 17811, Control_c, 0, 67, 94
1, 17826, Control_c, 0, 67, 94
1, 17841, Control_c, 0, 67, 92
1, 17848, Note_off_c, 0, 74, 53
1, 17851, Note_off_c, 0, 62, 37
1, 17856, Control_c, 0, 67, 91
1, 17857, Note_off_c, 0, 59, 41
1, 17870, Control_c, 0, 67, 90
1, 17878, Note_off_c, 0, 71, 46
1, 17885, Control_c, 0, 64, 122
1, 17885, Control_c, 0, 67, 89
1, 17900, Control_c, 0, 64, 110
1, 17900, Control_c, 0, 67, 89
1, 17922, Control_c, 0, 64, 105
1, 17922, Control_c, 0, 67, 87
1, 17937, Control_c, 0, 64, 100
1, 17937, Control_c, 0, 67, 85
1, 17952, Control_c, 0, 64, 96
1, 17952, Control_c, 0, 67, 84
1, 17967, Control_c, 0, 64, 90
1, 17967, Control_c, 0, 67, 84
1, 17982, Control_c, 0, 64, 80
1, 17982, Control_c, 0, 67, 83
1, 17985, Note_on_c, 0, 76, 65
1, 17996, Control_c, 0, 64, 70
1, 17996, Control_c, 0, 67, 82
1, 18006, Note_on_c, 0, 67, 50
1, 18011, Control_c, 0, 64, 62
1, 18011, Control_c, 0, 67, 80
1, 18017, Note_on_c, 0, 64, 45
1, 18022, Note_on_c, 0, 55, 26
1, 18026, Control_c, 0, 64, 54
1, 18026, Control_c, 0, 67, 79
1, 18041, Control_c, 0, 64, 46
1, 18041, Control_c, 0, 67, 77
1, 18056, Control_c, 0, 64, 40
1, 18056, Control_c, 0, 67, 75
1, 18066, Note_off_c, 0, 67, 44
1, 18070, Control_c, 0, 64, 36
1, 18070, Control_c, 0, 67, 72
1, 18082, Note_on_c, 0, 74, 76
1, 18085, Control_c, 0, 64, 32
1, 18085, Control_c, 0, 67, 67
1, 18101, Control_c, 0, 64, 29
1, 18101, Control_c, 0, 67, 63
1, 18105, Note_on_c, 0, 59, 55
1, 18111, Note_off_c, 0, 76, 66
1, 18115, Note_on_c, 0, 62, 58
1, 18116, Control_c, 0, 64, 28
1, 18116, Control_c, 0, 67, 59
1, 18121, Note_on_c, 0, 71, 43
1, 18131, Control_c, 0, 64, 35
1, 18131, Control_c, 0, 67, 56
1, 18134, Note_off_c, 0, 64, 35
1, 18146, Control_c, 0, 64, 50
1, 18146, Control_c, 0, 67, 51
1, 18156, Note_off_c, 0, 55, 42
1, 18161, Control_c, 0, 64, 65
1, 18161, Control_c, 0, 67, 48
1, 18175, Control_c, 0, 64, 99
1, 18175, Control_c, 0, 67, 44
1, 18190, Control_c, 0, 64, 127
1, 18190, Control_c, 0, 67, 42
1, 18205, Control_c, 0, 67, 41
1, 18219, Control_c, 0, 67, 40
1, 18234, Control_c, 0, 67, 40
1, 18279, Control_c, 0, 67, 39
1, 18293, Control_c, 0, 67, 39
1, 18323, Control_c, 0, 67, 40
1, 18338, Control_c, 0, 67, 42
1, 18353, Control_c, 0, 67, 43
1, 18367, Control_c, 0, 67, 44
1, 18382, Control_c, 0, 64, 103
1, 18382, Control_c, 0, 67, 45
1, 18397, Control_c, 0, 64, 94
1, 18397, Control_c, 0, 67, 45
1, 18412, Control_c, 0, 64, 91
1, 18412, Control_c, 0, 67, 47
1, 18427, Control_c, 0, 64, 89
1, 18427, Control_c, 0, 67, 50
1, 18441, Control_c, 0, 64, 87
1, 18441, Control_c, 0, 67, 53
1, 18456, Control_c, 0, 64, 81
1, 18456, Control_c, 0, 67, 56
1, 18468, Note_on_c, 0, 76, 78
1, 18471, Control_c, 0, 64, 71
1, 18471, Control_c, 0, 67, 58
1, 18480, Note_on_c, 0, 67, 41
1, 18486, Control_c, 0, 64, 61
1, 18486, Control_c, 0, 67, 60
1, 18497, Note_off_c, 0, 62, 41
1, 18501, Control_c, 0, 64, 53
1, 18501, Control_c, 0, 67, 65
1, 18504, Note_off_c, 0, 74, 61
1, 18516, Control_c, 0, 64, 45
1, 18516, Control_c, 0, 67, 73
1, 18529, Note_on_c, 0, 64, 35
1, 18531, Control_c, 0, 64, 34
1, 18531, Control_c, 0, 67, 82
1, 18539, Note_on_c, 0, 55, 29
1, 18545, Control_c, 0, 64, 17
1, 18545, Control_c, 0, 67, 90
1, 18560, Control_c, 0, 64, 0
1, 18560, Control_c, 0, 67, 97
1, 18575, Control_c, 0, 67, 102
1, 18590, Control_c, 0, 67, 107
1, 18605, Control_c, 0, 67, 115
1, 18619, Control_c, 0, 64, 12
1, 18619, Control_c, 0, 67, 125
1, 18634, Control_c, 0, 64, 27
1, 18634, Control_c, 0, 67, 127
1, 18649, Control_c, 0, 64, 35
1, 18671, Control_c, 0, 64, 45
1, 18686, Control_c, 0, 64, 58
1, 18701, Control_c, 0, 64, 69
1, 18716, Control_c, 0, 64, 89
1, 18731, Control_c, 0, 64, 107
1, 18738, Note_off_c, 0, 64, 43
1, 18745, Control_c, 0, 64, 127
1, 18769, Note_off_c, 0, 76, 58
1, 18823, Note_off_c, 0, 59, 42
1, 18839, Note_off_c, 0, 67, 41
1, 18856, Note_off_c, 0, 71, 41
1, 18862, Note_off_c, 0, 55, 41
1, 19028, Control_c, 0, 64, 119
1, 19042, Control_c, 0, 64, 115
1, 19057, Control_c, 0, 64, 113
1, 19072, Control_c, 0, 64, 110
1, 19087, Control_c, 0, 64, 108
1, 19102, Control_c, 0, 64, 107
1, 19146, Control_c, 0, 64, 106
1, 19279, Control_c, 0, 64, 105
1, 19309, Control_c, 0, 64, 105
1, 19339, Control_c, 0, 64, 104
1, 19354, Control_c, 0, 64, 102
1, 19368, Control_c, 0, 64, 100
1, 19383, Control_c, 0, 64, 98
1, 19398, Control_c, 0, 64, 96
1, 19421, Control_c, 0, 64, 95
1, 19436, Control_c, 0, 64, 95
1, 19450, Control_c, 0, 64, 93
1, 19465, Control_c, 0, 64, 91
1, 19480, Control_c, 0, 64, 88
1, 19488, Note_on_c, 0, 64, 37
1, 19495, Control_c, 0, 64, 87
1, 19509, Note_on_c, 0, 55, 29
1, 19510, Control_c, 0, 64, 85
1, 19518, Note_on_c, 0, 59, 30
1, 19524, Control_c, 0, 64, 84
1, 19534, Note_on_c, 0, 40, 31
1, 19534, Note_on_c, 0, 47, 23
1, 19539, Control_c, 0, 64, 84
1, 19547, Note_on_c, 0, 52, 19
1, 19554, Control_c, 0, 64, 83
1, 19568, Control_c, 0, 64, 83
1, 19960, Note_off_c, 0, 40, 36
1, 19971, Note_off_c, 0, 55, 41
1, 19974, Note_off_c, 0, 47, 39
1, 20110, Note_off_c, 0, 59, 40
1, 20135, Note_off_c, 0, 64, 41
1, 20146, Control_c, 0, 64, 82
1, 20209, Note_off_c, 0, 52, 40
1, 20258, Control_c, 0, 64, 82
1, 20287, Control_c, 0, 64, 81
1, 20331, Control_c, 0, 64, 81
1, 20361, Control_c, 0, 64, 80
1, 20391, Control_c, 0, 64, 80
1, 20406, Control_c, 0, 64, 79
1, 20570, Control_c, 0, 64, 79
1, 20585, Control_c, 0, 64, 76
1, 20600, Control_c, 0, 64, 74
1, 20614, Control_c, 0, 64, 72
1, 20659, Control_c, 0, 64, 72
1, 20674, Control_c, 0, 64, 71
1, 20762, Control_c, 0, 64, 70
1, 20777, Control_c, 0, 64, 67
1, 20792, Control_c, 0, 64, 65
1, 20806, Control_c, 0, 64, 63
1, 20808, Note_on_c, 0, 74, 77
1, 20821, Control_c, 0, 64, 60
1, 20836, Control_c, 0, 64, 55
1, 20848, Note_on_c, 0, 71, 45
1, 20851, Control_c, 0, 64, 48
1, 20863, Note_on_c, 0, 62, 44
1, 20866, Control_c, 0, 64, 41
1, 20877, Note_on_c, 0, 59, 34
1, 20877, Note_on_c, 0, 55, 40
1, 20880, Control_c, 0, 64, 38
1, 20895, Control_c, 0, 64, 37
1, 20918, Control_c, 0, 64, 36
1, 20933, Control_c, 0, 64, 37
1, 20936, Note_off_c, 0, 71, 0
1, 20947, Control_c, 0, 64, 41
1, 20959, Note_on_c, 0, 71, 25
1, 20962, Control_c, 0, 64, 49
1, 20977, Control_c, 0, 64, 58
1, 20992, Control_c, 0, 64, 63
1, 21007, Control_c, 0, 64, 69
1, 21021, Control_c, 0, 64, 80
1, 21036, Control_c, 0, 64, 87
1, 21044, Note_off_c, 0, 62, 55
1, 21081, Control_c, 0, 67, 126
1, 21095, Control_c, 0, 64, 88
1, 21095, Control_c, 0, 67, 121
1, 21110, Control_c, 0, 64, 88
1, 21110, Control_c, 0, 67, 118
1, 21125, Control_c, 0, 67, 116
1, 21139, Control_c, 0, 67, 115
1, 21169, Control_c, 0, 64, 88
1, 21169, Control_c, 0, 67, 114
1, 21184, Control_c, 0, 64, 87
1, 21184, Control_c, 0, 67, 113
1, 21199, Control_c, 0, 64, 87
1, 21214, Control_c, 0, 64, 86
1, 21214, Control_c, 0, 67, 114
1, 21229, Control_c, 0, 64, 85
1, 21229, Control_c, 0, 67, 114
1, 21243, Control_c, 0, 64, 81
1, 21243, Control_c, 0, 67, 115
1, 21258, Control_c, 0, 64, 73
1, 21258, Control_c, 0, 67, 115
1, 21263, Note_on_c, 0, 73, 83
1, 21273, Control_c, 0, 64, 66
1, 21287, Note_on_c, 0, 67, 51
1, 21289, Control_c, 0, 64, 59
1, 21289, Control_c, 0, 67, 116
1, 21301, Note_off_c, 0, 55, 34
1, 21304, Control_c, 0, 64, 51
1, 21309, Note_on_c, 0, 52, 56
1, 21311, Note_on_c, 0, 61, 50
1, 21318, Control_c, 0, 64, 42
1, 21319, Note_off_c, 0, 71, 46
1, 21327, Note_off_c, 0, 74, 61
1, 21333, Control_c, 0, 64, 34
1, 21348, Control_c, 0, 64, 24
1, 21363, Control_c, 0, 64, 19
1, 21368, Note_off_c, 0, 67, 0
1, 21368, Note_on_c, 0, 67, 23
1, 21378, Control_c, 0, 64, 18
1, 21393, Control_c, 0, 64, 22
1, 21407, Control_c, 0, 64, 33
1, 21422, Control_c, 0, 64, 43
1, 21437, Control_c, 0, 64, 55
1, 21452, Control_c, 0, 64, 67
1, 21467, Control_c, 0, 64, 80
1, 21467, Control_c, 0, 67, 115
1, 21482, Control_c, 0, 64, 81
1, 21497, Control_c, 0, 64, 85
1, 21511, Control_c, 0, 64, 87
1, 21526, Control_c, 0, 64, 90
1, 21526, Control_c, 0, 67, 115
1, 21541, Control_c, 0, 64, 93
1, 21541, Control_c, 0, 67, 114
1, 21555, Note_off_c, 0, 52, 57
1, 21556, Control_c, 0, 64, 95
1, 21570, Control_c, 0, 64, 97
1, 21572, Note_off_c, 0, 67, 44
1, 21578, Note_off_c, 0, 61, 63
1, 21583, Note_off_c, 0, 73, 59
1, 21584, Note_off_c, 0, 59, 36
1, 21585, Control_c, 0, 64, 97
1, 21697, Control_c, 0, 64, 96
1, 21697, Control_c, 0, 67, 115
1, 21711, Control_c, 0, 64, 94
1, 21726, Control_c, 0, 64, 93
1, 21741, Control_c, 0, 64, 91
1, 21741, Control_c, 0, 67, 115
1, 21756, Control_c, 0, 64, 89
1, 21756, Control_c, 0, 67, 116
1, 21759, Note_on_c, 0, 74, 76
1, 21770, Control_c, 0, 64, 87
1, 21770, Control_c, 0, 67, 116
1, 21777, Note_on_c, 0, 59, 45
1, 21778, Note_on_c, 0, 55, 42
1, 21780, Note_on_c, 0, 62, 24
1, 21785, Control_c, 0, 64, 85
1, 21785, Control_c, 0, 67, 117
1, 21800, Control_c, 0, 64, 83
1, 21800, Control_c, 0, 67, 117
1, 21815, Control_c, 0, 64, 79
1, 21815, Control_c, 0, 67, 119
1, 21821, Note_off_c, 0, 62, 53
1, 21830, Control_c, 0, 64, 72
1, 21830, Control_c, 0, 67, 121
1, 21834, Note_off_c, 0, 55, 55
1, 21840, Note_off_c, 0, 59, 0
1, 21844, Control_c, 0, 64, 62
1, 21844, Control_c, 0, 67, 123
1, 21859, Control_c, 0, 64, 52
1, 21859, Control_c, 0, 67, 123
1, 21867, Poly_aftertouch_c, 0, 71, 0
1, 21873, Note_on_c, 0, 73, 80
1, 21874, Control_c, 0, 64, 41
1, 21874, Control_c, 0, 67, 124
1, 21878, Poly_aftertouch_c, 0, 59, 127
1, 21888, Control_c, 0, 64, 31
1, 21888, Control_c, 0, 67, 125
1, 21894, Note_on_c, 0, 52, 55
1, 21895, Note_on_c, 0, 67, 54
1, 21902, Note_on_c, 0, 61, 56
1, 21902, Note_off_c, 0, 74, 64
1, 21903, Control_c, 0, 64, 25
1, 21903, Control_c, 0, 67, 126
1, 21918, Control_c, 0, 64, 23
1, 21918, Control_c, 0, 67, 127
1, 21933, Control_c, 0, 64, 23
1, 21933, Control_c, 0, 67, 127
1, 21948, Control_c, 0, 64, 26
1, 21962, Control_c, 0, 64, 34
1, 21968, Note_off_c, 0, 67, 0
1, 21968, Note_on_c, 0, 67, 4
1, 21977, Control_c, 0, 64, 41
1, 21992, Control_c, 0, 64, 47
1, 22007, Control_c, 0, 64, 52
1, 22022, Control_c, 0, 64, 62
1, 22036, Control_c, 0, 64, 72
1, 22051, Control_c, 0, 64, 75
1, 22066, Control_c, 0, 64, 76
1, 22082, Control_c, 0, 64, 77
1, 22112, Control_c, 0, 64, 77
1, 22116, Poly_aftertouch_c, 0, 59, 0
1, 22116, Note_off_c, 0, 61, 61
1, 22119, Note_off_c, 0, 52, 55
1, 22127, Control_c, 0, 64, 78
1, 22156, Control_c, 0, 64, 78
1, 22230, Control_c, 0, 64, 78
1, 22245, Control_c, 0, 64, 77
1, 22260, Control_c, 0, 64, 77
1, 22275, Control_c, 0, 64, 76
1, 22290, Control_c, 0, 64, 75
1, 22305, Control_c, 0, 64, 72
1, 22315, Note_on_c, 0, 74, 66
1, 22319, Control_c, 0, 64, 67
1, 22333, Note_off_c, 0, 73, 56
1, 22334, Control_c, 0, 64, 60
1, 22349, Control_c, 0, 64, 49
1, 22350, Note_on_c, 0, 71, 48
1, 22360, Note_on_c, 0, 62, 36
1, 22364, Control_c, 0, 64, 34
1, 22370, Note_on_c, 0, 59, 37
1, 22376, Note_on_c, 0, 55, 40
1, 22379, Control_c, 0, 64, 16
1, 22393, Control_c, 0, 64, 0
1, 22475, Control_c, 0, 64, 9
1, 22489, Control_c, 0, 64, 20
1, 22504, Control_c, 0, 64, 29
1, 22519, Control_c, 0, 64, 37
1, 22534, Control_c, 0, 64, 47
1, 22549, Control_c, 0, 64, 58
1, 22564, Control_c, 0, 64, 67
1, 22579, Control_c, 0, 64, 87
1, 22593, Control_c, 0, 64, 95
1, 22608, Control_c, 0, 64, 104
1, 22623, Control_c, 0, 64, 119
1, 22638, Control_c, 0, 64, 127
1, 22726, Note_off_c, 0, 62, 34
1, 22843, Note_off_c, 0, 74, 56
1, 22852, Note_off_c, 0, 59, 36
1, 22871, Note_off_c, 0, 71, 57
1, 22911, Note_off_c, 0, 55, 41
1, 22918, Note_off_c, 0, 67, 43
1, 23097, Control_c, 0, 64, 117
1, 23112, Control_c, 0, 64, 106
1, 23127, Control_c, 0, 64, 99
1, 23141, Control_c, 0, 64, 93
1, 23163, Control_c, 0, 64, 90
1, 23178, Control_c, 0, 64, 86
1, 23193, Control_c, 0, 64, 84
1, 23208, Control_c, 0, 64, 81
1, 23223, Control_c, 0, 64, 80
1, 23238, Control_c, 0, 64, 79
1, 23253, Control_c, 0, 64, 79
1, 23267, Control_c, 0, 64, 78
1, 23282, Control_c, 0, 64, 78
1, 23297, Control_c, 0, 64, 77
1, 23312, Control_c, 0, 64, 77
1, 23327, Control_c, 0, 64, 76
1, 23341, Control_c, 0, 64, 75
1, 23356, Control_c, 0, 64, 74
1, 23371, Control_c, 0, 64, 73
1, 23386, Control_c, 0, 64, 71
1, 23401, Control_c, 0, 64, 70
1, 23415, Control_c, 0, 64, 69
1, 23430, Control_c, 0, 64, 67
1, 23431, Note_on_c, 0, 62, 40
1, 23445, Control_c, 0, 64, 64
1, 23446, Note_on_c, 0, 59, 30
1, 23460, Control_c, 0, 64, 61
1, 23461, Note_on_c, 0, 55, 19
1, 23475, Control_c, 0, 64, 57
1, 23477, Note_on_c, 0, 43, 35
1, 23489, Control_c, 0, 64, 50
1, 23496, Note_on_c, 0, 50, 25
1, 23504, Control_c, 0, 64, 42
1, 23519, Control_c, 0, 64, 35
1, 23533, Control_c, 0, 64, 30
1, 23548, Control_c, 0, 64, 28
1, 23578, Control_c, 0, 64, 33
1, 23593, Control_c, 0, 64, 41
1, 23607, Control_c, 0, 64, 49
1, 23622, Control_c, 0, 64, 55
1, 23637, Control_c, 0, 64, 60
1, 23652, Control_c, 0, 64, 64
1, 23667, Control_c, 0, 64, 66
1, 23698, Control_c, 0, 64, 66
1, 23712, Control_c, 0, 64, 67
1, 23727, Control_c, 0, 64, 67
1, 23742, Control_c, 0, 64, 68
1, 23797, Note_off_c, 0, 55, 43
1, 23816, Control_c, 0, 64, 68
1, 23876, Control_c, 0, 64, 69
1, 23927, Control_c, 0, 64, 70
1, 23942, Control_c, 0, 64, 72
1, 23956, Control_c, 0, 64, 73
1, 23971, Control_c, 0, 64, 74
1, 23985, Note_off_c, 0, 50, 41
1, 23986, Control_c, 0, 64, 76
1, 23988, Note_off_c, 0, 59, 38
1, 23992, Note_off_c, 0, 43, 46
1, 24001, Control_c, 0, 64, 77
1, 24016, Control_c, 0, 64, 78
1, 24031, Control_c, 0, 64, 80
1, 24046, Control_c, 0, 64, 82
1, 24047, Note_off_c, 0, 62, 36
1, 24060, Control_c, 0, 64, 83
1, 24075, Control_c, 0, 64, 83
1, 24090, Control_c, 0, 64, 84
1, 24120, Control_c, 0, 64, 84
1, 24297, Control_c, 0, 67, 125
1, 24312, Control_c, 0, 64, 84
1, 24312, Control_c, 0, 67, 123
1, 24327, Control_c, 0, 64, 83
1, 24327, Control_c, 0, 67, 122
1, 24342, Control_c, 0, 64, 83
1, 24342, Control_c, 0, 67, 120
1, 24356, Control_c, 0, 67, 118
1, 24371, Control_c, 0, 64, 82
1, 24371, Control_c, 0, 67, 116
1, 24386, Control_c, 0, 64, 81
1, 24386, Control_c, 0, 67, 113
1, 24401, Control_c, 0, 64, 81
1, 24401, Control_c, 0, 67, 108
1, 24416, Control_c, 0, 64, 80
1, 24416, Control_c, 0, 67, 103
1, 24430, Control_c, 0, 64, 80
1, 24430, Control_c, 0, 67, 96
1, 24445, Control_c, 0, 64, 79
1, 24445, Control_c, 0, 67, 93
1, 24460, Control_c, 0, 64, 78
1, 24460, Control_c, 0, 67, 91
1, 24476, Control_c, 0, 64, 75
1, 24476, Control_c, 0, 67, 89
1, 24491, Control_c, 0, 64, 71
1, 24491, Control_c, 0, 67, 89
1, 24506, Control_c, 0, 64, 68
1, 24506, Control_c, 0, 67, 88
1, 24521, Control_c, 0, 64, 65
1, 24521, Control_c, 0, 67, 87
1, 24535, Control_c, 0, 64, 63
1, 24535, Control_c, 0, 67, 86
1, 24550, Control_c, 0, 64, 61
1, 24550, Control_c, 0, 67, 85
1, 24557, Note_on_c, 0, 73, 83
1, 24565, Control_c, 0, 64, 59
1, 24576, Note_on_c, 0, 69, 51
1, 24579, Control_c, 0, 64, 56
1, 24594, Control_c, 0, 64, 54
1, 24609, Control_c, 0, 64, 52
1, 24610, Note_on_c, 0, 57, 44
1, 24624, Control_c, 0, 64, 51
1, 24624, Control_c, 0, 67, 86
1, 24626, Note_off_c, 0, 69, 0
1, 24626, Note_on_c, 0, 69, 12
1, 24630, Note_on_c, 0, 61, 38
1, 24639, Control_c, 0, 64, 49
1, 24639, Control_c, 0, 67, 86
1, 24661, Control_c, 0, 64, 48
1, 24661, Control_c, 0, 67, 87
1, 24676, Control_c, 0, 67, 88
1, 24691, Control_c, 0, 64, 49
1, 24705, Control_c, 0, 64, 52
1, 24720, Control_c, 0, 64, 56
1, 24735, Control_c, 0, 64, 61
1, 24750, Control_c, 0, 64, 65
1, 24765, Control_c, 0, 64, 73
1, 24765, Control_c, 0, 67, 88
1, 24779, Control_c, 0, 64, 76
1, 24794, Control_c, 0, 64, 77
1, 24809, Control_c, 0, 64, 78
1, 24824, Control_c, 0, 64, 80
1, 24839, Control_c, 0, 64, 81
1, 24854, Control_c, 0, 64, 82
1, 24858, Note_off_c, 0, 61, 47
1, 24928, Control_c, 0, 67, 89
1, 24943, Control_c, 0, 67, 91
1, 24958, Control_c, 0, 67, 92
1, 24959, Note_off_c, 0, 57, 38
1, 24973, Control_c, 0, 67, 93
1, 24987, Control_c, 0, 67, 94
1, 25002, Control_c, 0, 67, 94
1, 25004, Note_off_c, 0, 69, 42
1, 25017, Control_c, 0, 67, 95
1, 25018, Note_off_c, 0, 73, 37
1, 25032, Control_c, 0, 64, 81
1, 25032, Control_c, 0, 67, 96
1, 25047, Control_c, 0, 67, 99
1, 25061, Control_c, 0, 64, 81
1, 25061, Control_c, 0, 67, 103
1, 25076, Control_c, 0, 67, 107
1, 25091, Control_c, 0, 67, 108
1, 25105, Control_c, 0, 64, 80
1, 25105, Control_c, 0, 67, 109
1, 25120, Control_c, 0, 64, 78
1, 25120, Control_c, 0, 67, 112
1, 25135, Control_c, 0, 64, 75
1, 25135, Control_c, 0, 67, 119
1, 25143, Note_on_c, 0, 71, 82
1, 25150, Control_c, 0, 64, 69
1, 25150, Control_c, 0, 67, 127
1, 25165, Control_c, 0, 64, 64
1, 25175, Note_on_c, 0, 67, 52
1, 25179, Control_c, 0, 64, 56
1, 25189, Note_on_c, 0, 59, 48
1, 25194, Control_c, 0, 64, 49
1, 25196, Note_on_c, 0, 55, 47
1, 25209, Control_c, 0, 64, 42
1, 25224, Control_c, 0, 64, 37
1, 25238, Control_c, 0, 64, 32
1, 25244, Note_off_c, 0, 67, 0
1, 25244, Note_on_c, 0, 67, 22
1, 25253, Control_c, 0, 64, 30
1, 25284, Control_c, 0, 64, 34
1, 25299, Control_c, 0, 64, 40
1, 25314, Control_c, 0, 64, 46
1, 25328, Control_c, 0, 64, 52
1, 25343, Control_c, 0, 64, 58
1, 25358, Control_c, 0, 64, 64
1, 25373, Control_c, 0, 64, 72
1, 25388, Control_c, 0, 64, 75
1, 25425, Control_c, 0, 64, 76
1, 25440, Control_c, 0, 64, 77
1, 25455, Control_c, 0, 64, 79
1, 25470, Control_c, 0, 64, 82
1, 25484, Control_c, 0, 64, 83
1, 25528, Control_c, 0, 64, 83
1, 25558, Control_c, 0, 64, 84
1, 25584, Note_off_c, 0, 71, 58
1, 25590, Note_off_c, 0, 59, 26
1, 25602, Note_off_c, 0, 67, 42
1, 25615, Note_off_c, 0, 55, 33
1, 25676, Control_c, 0, 64, 83
1, 25684, Note_on_c, 0, 69, 82
1, 25691, Control_c, 0, 64, 83
1, 25704, Note_on_c, 0, 57, 58
1, 25706, Note_on_c, 0, 50, 53
1, 25706, Control_c, 0, 64, 82
1, 25721, Note_on_c, 0, 62, 47
1, 25721, Control_c, 0, 64, 81
1, 25736, Control_c, 0, 64, 77
1, 25751, Control_c, 0, 64, 68
1, 25758, Note_off_c, 0, 62, 54
1, 25765, Control_c, 0, 64, 60
1, 25780, Control_c, 0, 64, 49
1, 25795, Control_c, 0, 64, 36
1, 25810, Control_c, 0, 64, 22
1, 25815, Note_off_c, 0, 57, 59
1, 25816, Note_off_c, 0, 50, 59
1, 25818, Note_on_c, 0, 71, 84
1, 25825, Control_c, 0, 64, 0
1, 25830, Note_on_c, 0, 67, 70
1, 25832, Note_on_c, 0, 59, 64
1, 25833, Note_on_c, 0, 55, 63
1, 25845, Note_off_c, 0, 69, 62
1, 25899, Control_c, 0, 64, 24
1, 25914, Control_c, 0, 64, 34
1, 25928, Control_c, 0, 64, 45
1, 25943, Control_c, 0, 64, 57
1, 25958, Control_c, 0, 64, 72
1, 25973, Control_c, 0, 64, 85
1, 25973, Control_c, 0, 67, 120
1, 25988, Control_c, 0, 67, 109
1, 26002, Control_c, 0, 64, 88
1, 26002, Control_c, 0, 67, 98
1, 26003, Note_off_c, 0, 67, 59
1, 26017, Control_c, 0, 64, 89
1, 26017, Control_c, 0, 67, 88
1, 26020, Note_off_c, 0, 71, 64
1, 26032, Control_c, 0, 64, 90
1, 26032, Control_c, 0, 67, 80
1, 26047, Control_c, 0, 64, 91
1, 26047, Control_c, 0, 67, 75
1, 26050, Note_off_c, 0, 55, 54
1, 26061, Control_c, 0, 64, 91
1, 26061, Control_c, 0, 67, 70
1, 26078, Control_c, 0, 64, 92
1, 26078, Control_c, 0, 67, 65
1, 26087, Note_off_c, 0, 59, 36
1, 26093, Control_c, 0, 67, 61
1, 26107, Control_c, 0, 67, 59
1, 26122, Control_c, 0, 67, 57
1, 26137, Control_c, 0, 67, 55
1, 26159, Control_c, 0, 67, 54
1, 26174, Control_c, 0, 67, 54
1, 26204, Control_c, 0, 64, 91
1, 26219, Control_c, 0, 64, 89
1, 26233, Control_c, 0, 64, 82
1, 26233, Control_c, 0, 67, 54
1, 26248, Control_c, 0, 64, 70
1, 26260, Note_on_c, 0, 71, 86
1, 26263, Control_c, 0, 64, 60
1, 26278, Control_c, 0, 64, 46
1, 26278, Control_c, 0, 67, 55
1, 26281, Note_on_c, 0, 67, 59
1, 26290, Note_on_c, 0, 55, 65
1, 26293, Control_c, 0, 64, 30
1, 26299, Note_on_c, 0, 59, 58
1, 26300, Note_on_c, 0, 62, 33
1, 26307, Control_c, 0, 64, 21
1, 26322, Control_c, 0, 64, 18
1, 26322, Control_c, 0, 67, 56
1, 26337, Control_c, 0, 64, 18
1, 26337, Control_c, 0, 67, 56
1, 26351, Control_c, 0, 64, 30
1, 26351, Control_c, 0, 67, 57
1, 26352, Note_off_c, 0, 62, 0
1, 26352, Note_on_c, 0, 62, 7
1, 26366, Control_c, 0, 64, 46
1, 26366, Control_c, 0, 67, 58
1, 26381, Control_c, 0, 64, 60
1, 26381, Control_c, 0, 67, 59
1, 26396, Control_c, 0, 64, 79
1, 26396, Control_c, 0, 67, 60
1, 26411, Control_c, 0, 64, 101
1, 26411, Control_c, 0, 67, 60
1, 26425, Control_c, 0, 64, 109
1, 26425, Control_c, 0, 67, 61
1, 26440, Control_c, 0, 64, 127
1, 26440, Control_c, 0, 67, 61
1, 26455, Control_c, 0, 67, 62
1, 26470, Control_c, 0, 67, 63
1, 26499, Control_c, 0, 67, 62
1, 26508, Note_off_c, 0, 59, 36
1, 26529, Control_c, 0, 67, 63
1, 26544, Control_c, 0, 67, 63
1, 26558, Control_c, 0, 67, 64
1, 26573, Control_c, 0, 67, 65
1, 26577, Note_off_c, 0, 55, 59
1, 26648, Control_c, 0, 67, 66
1, 26663, Control_c, 0, 67, 67
1, 26677, Control_c, 0, 67, 68
1, 26692, Control_c, 0, 67, 69
1, 26707, Control_c, 0, 67, 69
1, 26722, Control_c, 0, 67, 70
1, 26736, Note_off_c, 0, 71, 38
1, 26737, Control_c, 0, 67, 73
1, 26751, Control_c, 0, 67, 77
1, 26766, Control_c, 0, 67, 80
1, 26781, Control_c, 0, 67, 81
1, 26796, Control_c, 0, 67, 82
1, 26811, Control_c, 0, 67, 83
1, 26825, Control_c, 0, 67, 85
1, 26840, Control_c, 0, 67, 87
1, 26855, Control_c, 0, 67, 90
1, 26870, Note_off_c, 0, 67, 35
1, 26870, Control_c, 0, 67, 92
1, 26886, Control_c, 0, 67, 94
1, 26907, Control_c, 0, 67, 96
1, 26922, Control_c, 0, 67, 98
1, 26937, Control_c, 0, 67, 102
1, 26952, Control_c, 0, 67, 105
1, 26967, Control_c, 0, 67, 108
1, 26982, Control_c, 0, 67, 111
1, 26997, Control_c, 0, 67, 114
1, 27012, Control_c, 0, 67, 117
1, 27026, Note_off_c, 0, 62, 44
1, 27026, Control_c, 0, 67, 121
1, 27041, Control_c, 0, 67, 125
1, 27056, Control_c, 0, 67, 127
1, 27328, Note_on_c, 0, 62, 51
1, 27336, Note_on_c, 0, 55, 34
1, 27351, Note_on_c, 0, 59, 33
1, 27358, Note_on_c, 0, 40, 51
1, 27360, Note_on_c, 0, 47, 37
1, 27372, Note_on_c, 0, 52, 50
1, 27403, Note_off_c, 0, 52, 66
1, 27452, Note_off_c, 0, 55, 44
1, 27506, Note_off_c, 0, 40, 36
1, 27530, Note_off_c, 0, 47, 46
1, 27551, Note_off_c, 0, 59, 38
1, 27555, Note_off_c, 0, 62, 36
1, 28130, Control_c, 0, 64, 122
1, 28145, Control_c, 0, 64, 105
1, 28160, Control_c, 0, 64, 96
1, 28175, Control_c, 0, 64, 84
1, 28190, Control_c, 0, 64, 71
1, 28204, Control_c, 0, 64, 61
1, 28218, Note_on_c, 0, 66, 81
1, 28219, Control_c, 0, 64, 50
1, 28227, Note_on_c, 0, 71, 69
1, 28234, Control_c, 0, 64, 32
1, 28239, Note_on_c, 0, 62, 55
1, 28249, Control_c, 0, 64, 20
1, 28255, Note_on_c, 0, 54, 61
1, 28263, Control_c, 0, 64, 16
1, 28278, Note_on_c, 0, 59, 32
1, 28278, Control_c, 0, 64, 14
1, 28308, Control_c, 0, 64, 20
1, 28323, Control_c, 0, 64, 27
1, 28338, Control_c, 0, 64, 37
1, 28353, Control_c, 0, 64, 49
1, 28368, Control_c, 0, 64, 61
1, 28383, Control_c, 0, 64, 77
1, 28404, Control_c, 0, 64, 88
1, 28419, Control_c, 0, 64, 92
1, 28434, Control_c, 0, 64, 105
1, 28444, Note_off_c, 0, 59, 38
1, 28449, Control_c, 0, 64, 122
1, 28464, Control_c, 0, 64, 127
1, 28508, Note_off_c, 0, 54, 60
1, 28633, Note_off_c, 0, 71, 37
1, 28658, Note_off_c, 0, 66, 57
1, 28700, Note_off_c, 0, 62, 41
1, 28984, Control_c, 0, 64, 111
1, 28999, Control_c, 0, 64, 105
1, 29014, Control_c, 0, 64, 103
1, 29028, Control_c, 0, 64, 101
1, 29043, Control_c, 0, 64, 101
1, 29058, Control_c, 0, 64, 100
1, 29072, Control_c, 0, 64, 100
1, 29102, Control_c, 0, 64, 99
1, 29169, Control_c, 0, 64, 99
1, 29214, Control_c, 0, 64, 98
1, 29238, Note_on_c, 0, 62, 53
1, 29258, Control_c, 0, 64, 98
1, 29269, Note_on_c, 0, 59, 34
1, 29270, Note_on_c, 0, 54, 29
1, 29289, Note_on_c, 0, 35, 48
1, 29289, Control_c, 0, 64, 97
1, 29292, Note_on_c, 0, 47, 37
1, 29333, Control_c, 0, 64, 97
1, 29379, Note_off_c, 0, 62, 53
1, 29390, Note_off_c, 0, 54, 39
1, 29420, Note_off_c, 0, 35, 35
1, 29438, Note_off_c, 0, 59, 41
1, 29470, Note_off_c, 0, 47, 42
1, 29481, Control_c, 0, 64, 96
1, 29629, Control_c, 0, 64, 96
1, 29673, Control_c, 0, 64, 95
1, 29688, Control_c, 0, 64, 95
1, 29703, Control_c, 0, 64, 94
1, 29718, Control_c, 0, 64, 93
1, 29733, Control_c, 0, 64, 92
1, 29748, Control_c, 0, 64, 91
1, 29763, Control_c, 0, 64, 90
1, 29777, Control_c, 0, 64, 89
1, 29792, Control_c, 0, 64, 89
1, 29807, Control_c, 0, 64, 88
1, 29837, Control_c, 0, 64, 88
1, 29903, Control_c, 0, 64, 87
1, 29948, Control_c, 0, 64, 87
1, 29978, Control_c, 0, 64, 86
1, 29992, Control_c, 0, 64, 85
1, 30007, Control_c, 0, 64, 85
1, 30022, Control_c, 0, 64, 84
1, 30037, Control_c, 0, 64, 83
1, 30052, Control_c, 0, 64, 82
1, 30067, Control_c, 0, 64, 81
1, 30082, Control_c, 0, 64, 80
1, 30097, Control_c, 0, 64, 80
1, 30112, Control_c, 0, 64, 79
1, 30122, Note_on_c, 0, 64, 44
1, 30127, Control_c, 0, 64, 78
1, 30141, Control_c, 0, 64, 77
1, 30153, Note_on_c, 0, 52, 40
1, 30156, Control_c, 0, 64, 77
1, 30171, Control_c, 0, 64, 76
1, 30186, Control_c, 0, 64, 76
1, 30216, Control_c, 0, 64, 75
1, 30231, Control_c, 0, 64, 75
1, 30245, Note_off_c, 0, 64, 39
1, 30246, Control_c, 0, 64, 74
1, 30261, Control_c, 0, 64, 74
1, 30263, Note_off_c, 0, 52, 35
1, 30269, Note_on_c, 0, 63, 54
1, 30273, Note_on_c, 0, 51, 50
1, 30349, Control_c, 0, 64, 73
1, 30438, Control_c, 0, 64, 73
1, 30538, Note_off_c, 0, 51, 34
1, 30615, Control_c, 0, 64, 72
1, 30666, Control_c, 0, 64, 72
1, 30702, Note_off_c, 0, 63, 43
1, 30711, Control_c, 0, 64, 71
1, 30726, Control_c, 0, 64, 71
1, 30741, Control_c, 0, 64, 70
1, 30756, Control_c, 0, 64, 69
1, 30770, Control_c, 0, 64, 68
1, 30779, Note_on_c, 0, 71, 50
1, 30785, Control_c, 0, 64, 65
1, 30800, Control_c, 0, 64, 59
1, 30802, Note_on_c, 0, 62, 37
1, 30815, Control_c, 0, 64, 45
1, 30815, Note_on_c, 0, 67, 45
1, 30821, Note_on_c, 0, 55, 38
1, 30824, Note_on_c, 0, 59, 27
1, 30829, Note_on_c, 0, 50, 37
1, 30830, Control_c, 0, 64, 28
1, 30845, Control_c, 0, 64, 12
1, 30859, Control_c, 0, 64, 0
1, 30919, Control_c, 0, 64, 28
1, 30934, Control_c, 0, 64, 40
1, 30949, Control_c, 0, 64, 53
1, 30964, Control_c, 0, 64, 64
1, 30979, Control_c, 0, 64, 79
1, 30994, Control_c, 0, 64, 98
1, 31009, Control_c, 0, 64, 127
1, 31055, Note_off_c, 0, 59, 42
1, 31096, Note_off_c, 0, 55, 45
1, 31097, Note_off_c, 0, 71, 43
1, 31103, Note_off_c, 0, 67, 44
1, 31121, Note_off_c, 0, 50, 40
1, 31191, Note_off_c, 0, 62, 41
1, 31548, Control_c, 0, 67, 124
1, 31563, Control_c, 0, 67, 118
1, 31578, Control_c, 0, 67, 114
1, 31593, Control_c, 0, 67, 109
1, 31608, Control_c, 0, 67, 103
1, 31623, Control_c, 0, 67, 98
1, 31638, Control_c, 0, 67, 94
1, 31653, Control_c, 0, 67, 92
1, 31668, Control_c, 0, 67, 90
1, 31683, Control_c, 0, 67, 88
1, 31697, Control_c, 0, 67, 84
1, 31712, Control_c, 0, 67, 82
1, 31727, Control_c, 0, 67, 81
1, 31787, Control_c, 0, 67, 82
1, 31832, Control_c, 0, 67, 82
1, 31846, Control_c, 0, 67, 83
1, 31876, Control_c, 0, 67, 84
1, 31890, Control_c, 0, 67, 84
1, 31905, Control_c, 0, 67, 85
1, 31920, Control_c, 0, 67, 85
1, 31935, Control_c, 0, 67, 86
1, 31950, Control_c, 0, 67, 86
1, 31963, Note_on_c, 0, 59, 29
1, 31964, Control_c, 0, 67, 87
1, 31999, Note_on_c, 0, 55, 23
1, 32009, Control_c, 0, 67, 87
1, 32019, Note_off_c, 0, 59, 0
1, 32019, Note_on_c, 0, 59, 6
1, 32024, Control_c, 0, 67, 88
1, 32028, Poly_aftertouch_c, 0, 50, 127
1, 32031, Note_on_c, 0, 43, 18
1, 32036, Note_on_c, 0, 31, 35
1, 32038, Control_c, 0, 67, 88
1, 32053, Control_c, 0, 64, 122
1, 32053, Control_c, 0, 67, 89
1, 32068, Control_c, 0, 64, 119
1, 32083, Control_c, 0, 64, 117
1, 32083, Control_c, 0, 67, 89
1, 32097, Control_c, 0, 64, 115
1, 32097, Control_c, 0, 67, 90
1, 32112, Control_c, 0, 64, 114
1, 32112, Control_c, 0, 67, 90
1, 32127, Control_c, 0, 64, 113
1, 32127, Control_c, 0, 67, 91
1, 32150, Control_c, 0, 64, 111
1, 32150, Control_c, 0, 67, 91
1, 32165, Control_c, 0, 64, 110
1, 32209, Control_c, 0, 64, 109
1, 32238, Control_c, 0, 67, 92
1, 32268, Control_c, 0, 67, 92
1, 32312, Control_c, 0, 64, 108
1, 32314, Poly_aftertouch_c, 0, 50, 0
1, 32342, Control_c, 0, 64, 108
1, 32357, Control_c, 0, 67, 93
1, 32386, Control_c, 0, 64, 107
1, 32431, Control_c, 0, 64, 106
1, 32446, Control_c, 0, 64, 105
1, 32461, Control_c, 0, 64, 105
1, 32461, Control_c, 0, 67, 93
1, 32476, Control_c, 0, 64, 104
1, 32491, Control_c, 0, 64, 103
1, 32506, Control_c, 0, 64, 103
1, 32535, Note_off_c, 0, 31, 29
1, 32535, Control_c, 0, 64, 102
1, 32550, Control_c, 0, 64, 101
1, 32625, Control_c, 0, 64, 101
1, 32654, Control_c, 0, 64, 100
1, 32699, Control_c, 0, 64, 100
1, 32718, Note_off_c, 0, 59, 34
1, 32720, Note_off_c, 0, 43, 21
1, 32738, Note_off_c, 0, 55, 39
1, 32758, Control_c, 0, 64, 99
1, 32833, Control_c, 0, 64, 99
1, 32914, Control_c, 0, 67, 93
1, 32944, Control_c, 0, 64, 98
1, 32944, Control_c, 0, 67, 92
1, 32958, Control_c, 0, 67, 92
1, 32973, Control_c, 0, 64, 97
1, 32988, Control_c, 0, 64, 96
1, 33003, Control_c, 0, 64, 95
1, 33003, Control_c, 0, 67, 91
1, 33018, Control_c, 0, 64, 94
1, 33033, Control_c, 0, 64, 93
1, 33033, Control_c, 0, 67, 91
1, 33047, Control_c, 0, 64, 93
1, 33047, Control_c, 0, 67, 90
1, 33062, Control_c, 0, 64, 92
1, 33062, Control_c, 0, 67, 89
1, 33077, Control_c, 0, 67, 88
1, 33092, Control_c, 0, 67, 87
1, 33107, Control_c, 0, 67, 86
1, 33121, Control_c, 0, 64, 91
1, 33121, Control_c, 0, 67, 85
1, 33136, Control_c, 0, 64, 90
1, 33136, Control_c, 0, 67, 85
1, 33151, Control_c, 0, 67, 84
1, 33166, Control_c, 0, 64, 90
1, 33166, Control_c, 0, 67, 82
1, 33181, Control_c, 0, 67, 81
1, 33195, Control_c, 0, 67, 80
1, 33210, Control_c, 0, 67, 77
1, 33225, Control_c, 0, 67, 72
1, 33239, Control_c, 0, 67, 67
1, 33254, Control_c, 0, 67, 63
1, 33270, Control_c, 0, 67, 61
1, 33285, Control_c, 0, 67, 61
1, 33300, Control_c, 0, 67, 62
1, 33330, Control_c, 0, 67, 61
1, 33344, Control_c, 0, 64, 89
1, 33344, Control_c, 0, 67, 61
1, 33359, Control_c, 0, 64, 88
1, 33359, Control_c, 0, 67, 60
1, 33374, Control_c, 0, 64, 88
1, 33389, Control_c, 0, 64, 87
1, 33389, Control_c, 0, 67, 60
1, 33404, Control_c, 0, 64, 85
1, 33404, Control_c, 0, 67, 59
1, 33418, Control_c, 0, 64, 81
1, 33418, Control_c, 0, 67, 57
1, 33433, Control_c, 0, 64, 77
1, 33433, Control_c, 0, 67, 55
1, 33438, Note_on_c, 0, 69, 79
1, 33448, Control_c, 0, 64, 74
1, 33448, Control_c, 0, 67, 53
1, 33463, Control_c, 0, 64, 71
1, 33463, Control_c, 0, 67, 52
1, 33477, Control_c, 0, 64, 68
1, 33485, Note_on_c, 0, 62, 47
1, 33492, Control_c, 0, 64, 64
1, 33492, Control_c, 0, 67, 50
1, 33503, Note_on_c, 0, 54, 46
1, 33507, Control_c, 0, 64, 62
1, 33507, Control_c, 0, 67, 47
1, 33509, Note_on_c, 0, 57, 41
1, 33522, Control_c, 0, 64, 61
1, 33522, Control_c, 0, 67, 42
1, 33537, Control_c, 0, 67, 38
1, 33552, Control_c, 0, 64, 62
1, 33552, Control_c, 0, 67, 35
1, 33567, Control_c, 0, 64, 63
1, 33567, Control_c, 0, 67, 33
1, 33581, Control_c, 0, 64, 65
1, 33581, Control_c, 0, 67, 31
1, 33596, Control_c, 0, 64, 69
1, 33596, Control_c, 0, 67, 27
1, 33611, Control_c, 0, 64, 78
1, 33611, Control_c, 0, 67, 23
1, 33626, Control_c, 0, 64, 84
1, 33626, Control_c, 0, 67, 21
1, 33648, Control_c, 0, 64, 85
1, 33648, Control_c, 0, 67, 21
1, 33663, Control_c, 0, 64, 89
1, 33663, Control_c, 0, 67, 20
1, 33677, Control_c, 0, 64, 93
1, 33692, Control_c, 0, 64, 97
1, 33707, Control_c, 0, 64, 98
1, 33716, Note_off_c, 0, 57, 42
1, 33751, Control_c, 0, 67, 22
1, 33766, Control_c, 0, 67, 24
1, 33778, Note_off_c, 0, 69, 60
1, 33781, Control_c, 0, 67, 26
1, 33796, Control_c, 0, 67, 28
1, 33811, Control_c, 0, 67, 31
1, 33826, Control_c, 0, 67, 33
1, 33841, Control_c, 0, 67, 37
1, 33856, Control_c, 0, 67, 43
1, 33870, Control_c, 0, 67, 45
1, 33885, Control_c, 0, 64, 97
1, 33900, Control_c, 0, 64, 96
1, 33915, Control_c, 0, 64, 94
1, 33930, Control_c, 0, 64, 91
1, 33930, Control_c, 0, 67, 45
1, 33944, Control_c, 0, 64, 89
1, 33944, Control_c, 0, 67, 46
1, 33945, Note_off_c, 0, 54, 33
1, 33959, Control_c, 0, 64, 88
1, 33959, Control_c, 0, 67, 47
1, 33974, Control_c, 0, 64, 87
1, 33974, Control_c, 0, 67, 51
1, 33988, Control_c, 0, 64, 85
1, 33988, Control_c, 0, 67, 54
1, 34003, Control_c, 0, 64, 81
1, 34003, Control_c, 0, 67, 56
1, 34011, Note_on_c, 0, 67, 76
1, 34018, Control_c, 0, 64, 75
1, 34018, Control_c, 0, 67, 60
1, 34033, Control_c, 0, 64, 68
1, 34033, Control_c, 0, 67, 66
1, 34036, Note_on_c, 0, 59, 42
1, 34048, Control_c, 0, 64, 63
1, 34048, Control_c, 0, 67, 73
1, 34053, Note_off_c, 0, 62, 61
1, 34062, Note_on_c, 0, 55, 48
1, 34063, Control_c, 0, 64, 55
1, 34063, Control_c, 0, 67, 84
1, 34073, Note_on_c, 0, 52, 59
1, 34079, Control_c, 0, 64, 44
1, 34079, Control_c, 0, 67, 98
1, 34093, Control_c, 0, 64, 31
1, 34093, Control_c, 0, 67, 114
1, 34108, Control_c, 0, 64, 12
1, 34108, Control_c, 0, 67, 127
1, 34123, Control_c, 0, 64, 0
1, 34227, Control_c, 0, 64, 18
1, 34241, Control_c, 0, 64, 26
1, 34256, Control_c, 0, 64, 34
1, 34271, Control_c, 0, 64, 42
1, 34286, Control_c, 0, 64, 49
1, 34300, Control_c, 0, 64, 56
1, 34315, Control_c, 0, 64, 61
1, 34330, Control_c, 0, 64, 64
1, 34345, Control_c, 0, 64, 67
1, 34359, Control_c, 0, 64, 69
1, 34396, Control_c, 0, 64, 70
1, 34429, Note_off_c, 0, 67, 57
1, 34483, Note_off_c, 0, 59, 36
1, 34485, Control_c, 0, 64, 70
1, 34508, Note_off_c, 0, 52, 35
1, 34634, Note_on_c, 0, 66, 79
1, 34637, Note_on_c, 0, 47, 55
1, 34649, Note_on_c, 0, 54, 61
1, 34670, Note_on_c, 0, 62, 22
1, 34687, Note_off_c, 0, 55, 21
1, 34692, Control_c, 0, 64, 68
1, 34707, Control_c, 0, 64, 64
1, 34721, Note_off_c, 0, 62, 46
1, 34722, Control_c, 0, 64, 57
1, 34737, Control_c, 0, 64, 40
1, 34741, Note_on_c, 0, 67, 85
1, 34750, Note_on_c, 0, 59, 70
1, 34752, Control_c, 0, 64, 20
1, 34756, Note_off_c, 0, 54, 65
1, 34766, Control_c, 0, 64, 0
1, 34773, Note_on_c, 0, 55, 59
1, 34774, Note_off_c, 0, 66, 62
1, 34774, Note_on_c, 0, 52, 68
1, 34780, Note_off_c, 0, 47, 56
1, 34855, Control_c, 0, 64, 29
1, 34871, Control_c, 0, 64, 43
1, 34886, Control_c, 0, 64, 56
1, 34901, Control_c, 0, 64, 67
1, 34915, Control_c, 0, 64, 77
1, 34915, Control_c, 0, 67, 122
1, 34930, Control_c, 0, 64, 79
1, 34930, Control_c, 0, 67, 117
1, 34945, Control_c, 0, 64, 81
1, 34945, Control_c, 0, 67, 113
1, 34960, Control_c, 0, 64, 83
1, 34960, Control_c, 0, 67, 108
1, 34967, Note_off_c, 0, 52, 52
1, 34975, Control_c, 0, 64, 84
1, 34975, Control_c, 0, 67, 102
1, 34989, Control_c, 0, 67, 97
1, 35003, Note_off_c, 0, 67, 51
1, 35004, Control_c, 0, 64, 84
1, 35004, Control_c, 0, 67, 93
1, 35019, Control_c, 0, 67, 90
1, 35030, Note_off_c, 0, 59, 57
1, 35034, Control_c, 0, 67, 89
1, 35048, Control_c, 0, 67, 87
1, 35059, Note_off_c, 0, 55, 58
1, 35063, Control_c, 0, 67, 84
1, 35078, Control_c, 0, 67, 80
1, 35093, Control_c, 0, 67, 78
1, 35096, Note_on_c, 0, 52, 62
1, 35108, Control_c, 0, 64, 84
1, 35108, Control_c, 0, 67, 75
1, 35123, Control_c, 0, 64, 82
1, 35123, Control_c, 0, 67, 74
1, 35145, Control_c, 0, 64, 78
1, 35160, Control_c, 0, 64, 72
1, 35160, Control_c, 0, 67, 75
1, 35175, Control_c, 0, 64, 65
1, 35187, Note_on_c, 0, 60, 80
1, 35190, Control_c, 0, 64, 59
1, 35193, Note_on_c, 0, 67, 71
1, 35204, Control_c, 0, 64, 49
1, 35204, Control_c, 0, 67, 74
1, 35219, Control_c, 0, 64, 37
1, 35219, Control_c, 0, 67, 74
1, 35230, Note_on_c, 0, 55, 47
1, 35234, Control_c, 0, 64, 29
1, 35234, Control_c, 0, 67, 73
1, 35248, Control_c, 0, 64, 23
1, 35248, Control_c, 0, 67, 72
1, 35263, Control_c, 0, 64, 16
1, 35263, Control_c, 0, 67, 71
1, 35278, Control_c, 0, 64, 10
1, 35278, Control_c, 0, 67, 71
1, 35293, Control_c, 0, 64, 11
1, 35293, Control_c, 0, 67, 70
1, 35308, Control_c, 0, 64, 23
1, 35322, Control_c, 0, 64, 37
1, 35322, Control_c, 0, 67, 69
1, 35337, Control_c, 0, 64, 47
1, 35337, Control_c, 0, 67, 68
1, 35352, Control_c, 0, 64, 57
1, 35367, Control_c, 0, 64, 68
1, 35382, Control_c, 0, 64, 76
1, 35397, Control_c, 0, 64, 79
1, 35397, Control_c, 0, 67, 67
1, 35412, Control_c, 0, 64, 85
1, 35412, Control_c, 0, 67, 65
1, 35426, Note_off_c, 0, 55, 56
1, 35427, Control_c, 0, 64, 88
1, 35427, Control_c, 0, 67, 61
1, 35441, Control_c, 0, 64, 93
1, 35441, Control_c, 0, 67, 58
1, 35456, Control_c, 0, 64, 93
1, 35456, Control_c, 0, 67, 57
1, 35471, Control_c, 0, 64, 94
1, 35471, Control_c, 0, 67, 57
1, 35486, Control_c, 0, 64, 96
1, 35486, Control_c, 0, 67, 56
1, 35495, Note_off_c, 0, 52, 40
1, 35501, Control_c, 0, 64, 99
1, 35501, Control_c, 0, 67, 54
1, 35515, Control_c, 0, 64, 103
1, 35515, Control_c, 0, 67, 51
1, 35530, Control_c, 0, 64, 109
1, 35545, Control_c, 0, 64, 114
1, 35545, Control_c, 0, 67, 52
1, 35560, Control_c, 0, 64, 115
1, 35575, Control_c, 0, 64, 117
1, 35589, Control_c, 0, 64, 119
1, 35589, Control_c, 0, 67, 53
1, 35604, Control_c, 0, 64, 127
1, 35604, Control_c, 0, 67, 54
1, 35619, Control_c, 0, 67, 55
1, 35634, Control_c, 0, 67, 56
1, 35679, Control_c, 0, 67, 57
1, 35694, Control_c, 0, 67, 58
1, 35709, Control_c, 0, 67, 59
1, 35717, Note_off_c, 0, 67, 35
1, 35724, Control_c, 0, 67, 61
1, 35738, Control_c, 0, 67, 62
1, 35753, Control_c, 0, 67, 63
1, 35798, Control_c, 0, 67, 62
1, 35800, Note_off_c, 0, 60, 64
1, 35811, Control_c, 0, 67, 63
1, 35826, Control_c, 0, 67, 64
1, 35841, Control_c, 0, 67, 67
1, 35856, Control_c, 0, 67, 69
1, 35908, Control_c, 0, 67, 70
1, 35923, Control_c, 0, 67, 70
1, 35952, Control_c, 0, 67, 71
1, 35967, Control_c, 0, 67, 73
1, 35982, Control_c, 0, 67, 74
1, 35997, Control_c, 0, 67, 74
1, 36012, Control_c, 0, 67, 75
1, 36026, Control_c, 0, 67, 78
1, 36041, Control_c, 0, 67, 80
1, 36056, Control_c, 0, 67, 83
1, 36070, Control_c, 0, 67, 85
1, 36085, Control_c, 0, 67, 88
1, 36100, Control_c, 0, 67, 90
1, 36107, Note_on_c, 0, 52, 59
1, 36115, Control_c, 0, 67, 94
1, 36124, Note_on_c, 0, 48, 49
1, 36126, Note_on_c, 0, 40, 48
1, 36130, Control_c, 0, 67, 97
1, 36145, Control_c, 0, 67, 100
1, 36160, Control_c, 0, 67, 103
1, 36175, Control_c, 0, 67, 104
1, 36188, Note_off_c, 0, 52, 53
1, 36190, Control_c, 0, 67, 105
1, 36205, Control_c, 0, 67, 106
1, 36219, Control_c, 0, 67, 106
1, 36234, Control_c, 0, 67, 107
1, 36249, Control_c, 0, 67, 107
1, 36278, Note_off_c, 0, 40, 36
1, 36292, Note_off_c, 0, 48, 50
1, 36323, Control_c, 0, 67, 108
1, 36396, Control_c, 0, 67, 108
1, 36441, Control_c, 0, 67, 109
1, 36457, Control_c, 0, 67, 110
1, 36472, Control_c, 0, 67, 111
1, 36486, Control_c, 0, 67, 113
1, 36501, Control_c, 0, 67, 114
1, 36516, Control_c, 0, 67, 115
1, 36531, Control_c, 0, 67, 116
1, 36546, Control_c, 0, 67, 117
1, 36560, Control_c, 0, 67, 117
1, 36575, Control_c, 0, 67, 118
1, 36590, Control_c, 0, 67, 118
1, 36605, Control_c, 0, 67, 119
1, 36620, Control_c, 0, 67, 119
1, 36642, Control_c, 0, 67, 120
1, 36657, Control_c, 0, 67, 120
1, 36672, Control_c, 0, 67, 121
1, 36686, Control_c, 0, 67, 123
1, 36701, Control_c, 0, 67, 125
1, 36716, Control_c, 0, 67, 126
1, 36731, Control_c, 0, 67, 127
1, 36746, Control_c, 0, 67, 127
1, 37057, Control_c, 0, 64, 108
1, 37072, Control_c, 0, 64, 92
1, 37081, Note_on_c, 0, 59, 74
1, 37086, Control_c, 0, 64, 77
1, 37093, Note_on_c, 0, 67, 69
1, 37101, Control_c, 0, 64, 64
1, 37116, Control_c, 0, 64, 54
1, 37131, Control_c, 0, 64, 39
1, 37132, Note_on_c, 0, 55, 48
1, 37135, Note_on_c, 0, 51, 57
1, 37146, Control_c, 0, 64, 30
1, 37160, Control_c, 0, 64, 24
1, 37175, Control_c, 0, 64, 19
1, 37190, Control_c, 0, 64, 17
1, 37205, Control_c, 0, 64, 19
1, 37219, Control_c, 0, 64, 35
1, 37234, Control_c, 0, 64, 51
1, 37249, Control_c, 0, 64, 68
1, 37265, Control_c, 0, 64, 127
1, 37347, Note_off_c, 0, 67, 31
1, 37351, Note_off_c, 0, 55, 35
1, 37410, Note_off_c, 0, 51, 60
1, 37517, Note_off_c, 0, 59, 54
1, 38254, Note_on_c, 0, 47, 43
1, 38261, Note_on_c, 0, 31, 41
1, 38291, Note_on_c, 0, 43, 12
1, 38346, Note_off_c, 0, 47, 51
1, 38425, Note_off_c, 0, 31, 38
1, 38491, Note_off_c, 0, 43, 37
1, 39051, Control_c, 0, 64, 106
1, 39054, Note_on_c, 0, 57, 46
1, 39066, Control_c, 0, 64, 101
1, 39081, Control_c, 0, 64, 97
1, 39082, Note_on_c, 0, 49, 36
1, 39096, Control_c, 0, 64, 93
1, 39111, Control_c, 0, 64, 91
1, 39126, Control_c, 0, 64, 88
1, 39134, Note_off_c, 0, 57, 51
1, 39141, Control_c, 0, 64, 86
1, 39156, Control_c, 0, 64, 85
1, 39170, Control_c, 0, 64, 84
1, 39185, Control_c, 0, 64, 83
1, 39197, Note_on_c, 0, 56, 50
1, 39200, Control_c, 0, 64, 83
1, 39210, Note_off_c, 0, 49, 33
1, 39214, Control_c, 0, 64, 82
1, 39229, Control_c, 0, 64, 82
1, 39241, Note_on_c, 0, 48, 33
1, 39244, Control_c, 0, 64, 81
1, 39372, Note_off_c, 0, 56, 58
1, 39466, Note_off_c, 0, 48, 44
1, 39481, Control_c, 0, 64, 81
1, 39510, Control_c, 0, 64, 80
1, 39540, Control_c, 0, 64, 80
1, 39570, Control_c, 0, 64, 79
1, 39600, Control_c, 0, 64, 79
1, 39615, Control_c, 0, 64, 78
1, 39637, Control_c, 0, 64, 77
1, 39652, Control_c, 0, 64, 77
1, 39668, Control_c, 0, 64, 76
1, 39671, Note_on_c, 0, 47, 44
1, 39683, Control_c, 0, 64, 76
1, 39698, Control_c, 0, 64, 75
1, 39712, Control_c, 0, 64, 73
1, 39727, Control_c, 0, 64, 70
1, 39742, Control_c, 0, 64, 66
1, 39757, Control_c, 0, 64, 62
1, 39770, Note_on_c, 0, 67, 47
1, 39770, Note_on_c, 0, 55, 48
1, 39772, Control_c, 0, 64, 53
1, 39782, Note_on_c, 0, 64, 38
1, 39786, Control_c, 0, 64, 38
1, 39801, Control_c, 0, 64, 0
1, 39806, Note_on_c, 0, 52, 41
1, 39890, Control_c, 0, 64, 24
1, 39905, Control_c, 0, 64, 41
1, 39919, Control_c, 0, 64, 53
1, 39934, Control_c, 0, 64, 63
1, 39949, Control_c, 0, 64, 77
1, 39964, Control_c, 0, 64, 90
1, 39979, Control_c, 0, 64, 96
1, 39993, Control_c, 0, 64, 107
1, 40008, Control_c, 0, 64, 127
1, 40017, Note_off_c, 0, 67, 34
1, 40029, Note_off_c, 0, 52, 42
1, 40046, Note_off_c, 0, 64, 41
1, 40065, Note_off_c, 0, 47, 41
1, 40152, Note_off_c, 0, 55, 45
1, 41034, Note_on_c, 0, 43, 17
1, 41055, Note_on_c, 0, 40, 20
1, 41068, Note_on_c, 0, 28, 33
1, 41964, Note_off_c, 0, 28, 32
1, 42020, Note_off_c, 0, 43, 34
1, 42222, Note_off_c, 0, 40, 37
1, 42691, Control_c, 0, 64, 122
1, 42706, Control_c, 0, 64, 109
1, 42721, Control_c, 0, 64, 104
1, 42736, Control_c, 0, 64, 100
1, 42751, Control_c, 0, 64, 95
1, 42765, Control_c, 0, 64, 91
1, 42780, Control_c, 0, 64, 89
1, 42795, Control_c, 0, 64, 86
1, 42810, Control_c, 0, 64, 83
1, 42820, Note_on_c, 0, 47, 48
1, 42825, Control_c, 0, 64, 79
1, 42828, Note_on_c, 0, 43, 46
1, 42839, Control_c, 0, 64, 77
1, 42855, Control_c, 0, 64, 76
1, 42870, Control_c, 0, 64, 75
1, 43160, Note_off_c, 0, 43, 41
1, 43344, Control_c, 0, 64, 75
1, 43351, Note_off_c, 0, 47, 34
1, 43359, Control_c, 0, 64, 73
1, 43374, Note_on_c, 0, 49, 62
1, 43381, Control_c, 0, 64, 69
1, 43392, Note_on_c, 0, 40, 49
1, 43396, Control_c, 0, 64, 65
1, 43411, Control_c, 0, 64, 59
1, 43426, Control_c, 0, 64, 51
1, 43441, Control_c, 0, 64, 39
1, 43455, Control_c, 0, 64, 29
1, 43455, Control_c, 0, 67, 126
1, 43470, Control_c, 0, 64, 26
1, 43470, Control_c, 0, 67, 123
1, 43485, Control_c, 0, 64, 24
1, 43485, Control_c, 0, 67, 118
1, 43500, Control_c, 0, 64, 24
1, 43500, Control_c, 0, 67, 115
1, 43515, Control_c, 0, 67, 113
1, 43529, Control_c, 0, 64, 30
1, 43529, Control_c, 0, 67, 110
1, 43544, Control_c, 0, 64, 40
1, 43544, Control_c, 0, 67, 106
1, 43559, Control_c, 0, 64, 52
1, 43559, Control_c, 0, 67, 101
1, 43574, Control_c, 0, 64, 63
1, 43574, Control_c, 0, 67, 94
1, 43588, Control_c, 0, 64, 64
1, 43588, Control_c, 0, 67, 89
1, 43603, Control_c, 0, 64, 65
1, 43603, Control_c, 0, 67, 85
1, 43618, Control_c, 0, 64, 66
1, 43618, Control_c, 0, 67, 82
1, 43633, Control_c, 0, 64, 67
1, 43633, Control_c, 0, 67, 79
1, 43638, Note_off_c, 0, 40, 36
1, 43648, Control_c, 0, 64, 68
1, 43648, Control_c, 0, 67, 76
1, 43664, Control_c, 0, 64, 69
1, 43664, Control_c, 0, 67, 73
1, 43678, Control_c, 0, 64, 69
1, 43678, Control_c, 0, 67, 71
1, 43693, Control_c, 0, 64, 70
1, 43693, Control_c, 0, 67, 69
1, 43708, Control_c, 0, 64, 70
1, 43708, Control_c, 0, 67, 68
1, 43723, Control_c, 0, 64, 71
1, 43723, Control_c, 0, 67, 66
1, 43738, Control_c, 0, 64, 72
1, 43738, Control_c, 0, 67, 66
1, 43752, Control_c, 0, 64, 73
1, 43752, Control_c, 0, 67, 65
1, 43767, Control_c, 0, 64, 73
1, 43767, Control_c, 0, 67, 65
1, 43773, Note_off_c, 0, 49, 34
1, 43782, Control_c, 0, 64, 74
1, 43782, Control_c, 0, 67, 64
1, 43797, Control_c, 0, 67, 62
1, 43812, Control_c, 0, 67, 62
1, 43827, Control_c, 0, 64, 74
1, 43827, Control_c, 0, 67, 61
1, 43842, Control_c, 0, 67, 60
1, 43857, Control_c, 0, 67, 59
1, 43872, Control_c, 0, 67, 58
1, 43877, Note_on_c, 0, 50, 68
1, 43880, Note_on_c, 0, 47, 64
1, 43886, Control_c, 0, 67, 57
1, 43901, Control_c, 0, 67, 56
1, 43916, Control_c, 0, 67, 55
1, 43946, Control_c, 0, 64, 74
1, 43946, Control_c, 0, 67, 55
1, 43960, Control_c, 0, 67, 54
1, 43975, Control_c, 0, 64, 72
1, 43990, Control_c, 0, 64, 68
1, 43990, Control_c, 0, 67, 54
1, 43995, Note_on_c, 0, 52, 86
1, 44001, Note_on_c, 0, 43, 77
1, 44004, Control_c, 0, 64, 61
1, 44004, Control_c, 0, 67, 52
1, 44019, Control_c, 0, 64, 52
1, 44019, Control_c, 0, 67, 51
1, 44027, Note_off_c, 0, 50, 62
1, 44029, Note_off_c, 0, 47, 61
1, 44034, Control_c, 0, 64, 42
1, 44034, Control_c, 0, 67, 49
1, 44049, Control_c, 0, 64, 38
1, 44049, Control_c, 0, 67, 47
1, 44064, Control_c, 0, 64, 37
1, 44064, Control_c, 0, 67, 46
1, 44078, Control_c, 0, 64, 38
1, 44078, Control_c, 0, 67, 45
1, 44093, Control_c, 0, 64, 45
1, 44093, Control_c, 0, 67, 44
1, 44108, Control_c, 0, 64, 59
1, 44108, Control_c, 0, 67, 43
1, 44130, Note_off_c, 0, 43, 58
1, 44131, Control_c, 0, 64, 68
1, 44131, Control_c, 0, 67, 42
1, 44146, Control_c, 0, 64, 69
1, 44146, Control_c, 0, 67, 41
1, 44160, Control_c, 0, 64, 71
1, 44160, Control_c, 0, 67, 40
1, 44175, Control_c, 0, 64, 73
1, 44175, Control_c, 0, 67, 39
1, 44190, Control_c, 0, 64, 74
1, 44190, Control_c, 0, 67, 38
1, 44204, Control_c, 0, 64, 75
1, 44204, Control_c, 0, 67, 36
1, 44219, Control_c, 0, 64, 75
1, 44219, Control_c, 0, 67, 34
1, 44234, Control_c, 0, 64, 76
1, 44234, Control_c, 0, 67, 32
1, 44244, Note_off_c, 0, 52, 59
1, 44249, Control_c, 0, 64, 77
1, 44249, Control_c, 0, 67, 30
1, 44264, Control_c, 0, 67, 28
1, 44308, Control_c, 0, 67, 28
1, 44323, Control_c, 0, 64, 75
1, 44323, Control_c, 0, 67, 27
1, 44337, Control_c, 0, 64, 71
1, 44337, Control_c, 0, 67, 26
1, 44352, Control_c, 0, 64, 65
1, 44352, Control_c, 0, 67, 25
1, 44363, Note_on_c, 0, 50, 65
1, 44364, Note_on_c, 0, 54, 78
1, 44367, Control_c, 0, 64, 56
1, 44367, Control_c, 0, 67, 24
1, 44382, Control_c, 0, 64, 42
1, 44397, Control_c, 0, 64, 13
1, 44397, Control_c, 0, 67, 23
1, 44411, Control_c, 0, 64, 0
1, 44426, Control_c, 0, 67, 23
1, 44457, Control_c, 0, 67, 24
1, 44472, Control_c, 0, 67, 25
1, 44487, Control_c, 0, 67, 26
1, 44501, Control_c, 0, 67, 27
1, 44516, Control_c, 0, 64, 25
1, 44516, Control_c, 0, 67, 28
1, 44531, Control_c, 0, 64, 45
1, 44531, Control_c, 0, 67, 30
1, 44546, Control_c, 0, 64, 58
1, 44546, Control_c, 0, 67, 32
1, 44561, Control_c, 0, 64, 66
1, 44561, Control_c, 0, 67, 34
1, 44575, Control_c, 0, 64, 68
1, 44575, Control_c, 0, 67, 34
1, 44590, Control_c, 0, 64, 68
1, 44605, Control_c, 0, 64, 71
1, 44605, Control_c, 0, 67, 34
1, 44620, Control_c, 0, 64, 72
1, 44620, Control_c, 0, 67, 33
1, 44635, Control_c, 0, 64, 73
1, 44635, Control_c, 0, 67, 33
1, 44650, Control_c, 0, 64, 73
1, 44650, Control_c, 0, 67, 32
1, 44664, Control_c, 0, 67, 31
1, 44679, Control_c, 0, 67, 30
1, 44694, Control_c, 0, 64, 73
1, 44694, Control_c, 0, 67, 28
1, 44701, Note_off_c, 0, 50, 55
1, 44709, Control_c, 0, 64, 71
1, 44709, Control_c, 0, 67, 27
1, 44723, Note_off_c, 0, 54, 61
1, 44724, Control_c, 0, 64, 65
1, 44724, Control_c, 0, 67, 26
1, 44739, Control_c, 0, 64, 54
1, 44741, Note_on_c, 0, 55, 68
1, 44749, Note_on_c, 0, 47, 60
1, 44754, Control_c, 0, 64, 29
1, 44769, Control_c, 0, 64, 0
1, 44812, Control_c, 0, 67, 27
1, 44826, Control_c, 0, 64, 14
1, 44826, Control_c, 0, 67, 29
1, 44841, Control_c, 0, 64, 39
1, 44841, Control_c, 0, 67, 32
1, 44853, Note_on_c, 0, 50, 72
1, 44855, Note_on_c, 0, 54, 77
1, 44856, Control_c, 0, 64, 54
1, 44856, Control_c, 0, 67, 35
1, 44879, Control_c, 0, 64, 67
1, 44879, Control_c, 0, 67, 38
1, 44892, Note_off_c, 0, 55, 65
1, 44894, Control_c, 0, 64, 69
1, 44894, Control_c, 0, 67, 44
1, 44908, Control_c, 0, 67, 48
1, 44923, Control_c, 0, 64, 71
1, 44923, Control_c, 0, 67, 49
1, 44927, Note_off_c, 0, 47, 58
1, 44927, Note_off_c, 0, 54, 65
1, 44930, Note_off_c, 0, 50, 65
1, 44938, Control_c, 0, 64, 72
1, 44938, Control_c, 0, 67, 52
1, 44952, Control_c, 0, 64, 73
1, 44952, Control_c, 0, 67, 54
1, 44967, Control_c, 0, 64, 74
1, 44967, Control_c, 0, 67, 56
1, 44982, Control_c, 0, 67, 57
1, 44997, Control_c, 0, 67, 59
1, 45012, Control_c, 0, 67, 60
1, 45026, Control_c, 0, 67, 61
1, 45056, Control_c, 0, 64, 73
1, 45056, Control_c, 0, 67, 62
1, 45071, Control_c, 0, 64, 68
1, 45071, Control_c, 0, 67, 63
1, 45086, Control_c, 0, 64, 58
1, 45086, Control_c, 0, 67, 65
1, 45097, Note_on_c, 0, 40, 81
1, 45100, Control_c, 0, 64, 28
1, 45100, Control_c, 0, 67, 68
1, 45115, Control_c, 0, 64, 0
1, 45115, Control_c, 0, 67, 69
1, 45130, Control_c, 0, 67, 70
1, 45144, Control_c, 0, 67, 71
1, 45174, Control_c, 0, 67, 70
1, 45189, Control_c, 0, 64, 11
1, 45189, Control_c, 0, 67, 70
1, 45204, Control_c, 0, 64, 41
1, 45219, Control_c, 0, 64, 57
1, 45234, Control_c, 0, 64, 68
1, 45249, Control_c, 0, 64, 70
1, 45264, Control_c, 0, 64, 71
1, 45264, Control_c, 0, 67, 69
1, 45279, Control_c, 0, 64, 72
1, 45279, Control_c, 0, 67, 68
1, 45294, Control_c, 0, 64, 73
1, 45294, Control_c, 0, 67, 67
1, 45308, Note_on_c, 0, 47, 52
1, 45309, Control_c, 0, 64, 74
1, 45309, Control_c, 0, 67, 65
1, 45323, Note_off_c, 0, 40, 59
1, 45323, Control_c, 0, 64, 75
1, 45323, Control_c, 0, 67, 64
1, 45338, Control_c, 0, 64, 75
1, 45338, Control_c, 0, 67, 63
1, 45353, Control_c, 0, 67, 62
1, 45368, Control_c, 0, 67, 62
1, 45383, Control_c, 0, 67, 61
1, 45398, Control_c, 0, 67, 61
1, 45422, Note_on_c, 0, 55, 59
1, 45428, Control_c, 0, 64, 75
1, 45428, Control_c, 0, 67, 60
1, 45442, Control_c, 0, 64, 74
1, 45457, Control_c, 0, 64, 72
1, 45472, Control_c, 0, 64, 71
1, 45472, Control_c, 0, 67, 60
1, 45487, Control_c, 0, 64, 70
1, 45487, Control_c, 0, 67, 59
1, 45502, Control_c, 0, 64, 69
1, 45517, Control_c, 0, 67, 59
1, 45520, Note_on_c, 0, 61, 65
1, 45526, Note_on_c, 0, 69, 56
1, 45531, Note_on_c, 0, 66, 43
1, 45531, Control_c, 0, 64, 68
1, 45546, Control_c, 0, 64, 67
1, 45561, Control_c, 0, 64, 65
1, 45575, Control_c, 0, 64, 64
1, 45627, Control_c, 0, 67, 58
1, 45642, Control_c, 0, 67, 58
1, 45657, Control_c, 0, 64, 63
1, 45672, Control_c, 0, 67, 57
1, 45790, Control_c, 0, 64, 64
1, 45849, Control_c, 0, 64, 65
1, 45864, Control_c, 0, 64, 66
1, 45879, Control_c, 0, 67, 58
1, 45938, Control_c, 0, 67, 57
1, 45953, Control_c, 0, 64, 65
1, 45953, Control_c, 0, 67, 57
1, 45982, Control_c, 0, 67, 56
1, 45997, Control_c, 0, 64, 65
1, 46012, Control_c, 0, 64, 64
1, 46012, Control_c, 0, 67, 55
1, 46024, Note_on_c, 0, 62, 62
1, 46027, Note_off_c, 0, 61, 60
1, 46027, Control_c, 0, 64, 63
1, 46027, Control_c, 0, 67, 54
1, 46043, Control_c, 0, 67, 54
1, 46056, Note_off_c, 0, 66, 37
1, 46058, Control_c, 0, 67, 53
1, 46072, Control_c, 0, 67, 53
1, 46087, Control_c, 0, 64, 63
1, 46087, Control_c, 0, 67, 51
1, 46102, Note_off_c, 0, 62, 63
1, 46102, Control_c, 0, 64, 61
1, 46102, Control_c, 0, 67, 50
1, 46104, Note_off_c, 0, 47, 39
1, 46114, Note_on_c, 0, 61, 79
1, 46117, Control_c, 0, 64, 59
1, 46117, Control_c, 0, 67, 49
1, 46132, Control_c, 0, 64, 58
1, 46132, Control_c, 0, 67, 47
1, 46146, Control_c, 0, 64, 61
1, 46146, Control_c, 0, 67, 45
1, 46156, Note_off_c, 0, 55, 55
1, 46161, Control_c, 0, 64, 65
1, 46161, Control_c, 0, 67, 43
1, 46176, Control_c, 0, 64, 66
1, 46176, Control_c, 0, 67, 42
1, 46191, Control_c, 0, 64, 67
1, 46191, Control_c, 0, 67, 40
1, 46206, Control_c, 0, 64, 67
1, 46206, Control_c, 0, 67, 38
1, 46220, Control_c, 0, 64, 68
1, 46220, Control_c, 0, 67, 35
1, 46235, Control_c, 0, 64, 69
1, 46235, Control_c, 0, 67, 32
1, 46250, Control_c, 0, 67, 30
1, 46265, Control_c, 0, 64, 69
1, 46265, Control_c, 0, 67, 28
1, 46280, Control_c, 0, 67, 26
1, 46295, Control_c, 0, 67, 24
1, 46310, Control_c, 0, 67, 21
1, 46325, Control_c, 0, 64, 69
1, 46325, Control_c, 0, 67, 19
1, 46340, Control_c, 0, 67, 18
1, 46355, Control_c, 0, 67, 16
1, 46377, Control_c, 0, 67, 14
1, 46383, Note_on_c, 0, 67, 83
1, 46392, Control_c, 0, 67, 12
1, 46406, Control_c, 0, 67, 9
1, 46421, Control_c, 0, 67, 0
1, 46434, Note_off_c, 0, 69, 56
1, 46644, Control_c, 0, 64, 69
1, 46700, Note_off_c, 0, 67, 60
1, 46706, Note_on_c, 0, 69, 70
1, 46763, Poly_aftertouch_c, 0, 75, 0
1, 46776, Note_on_c, 0, 67, 83
1, 46777, Control_c, 0, 64, 69
1, 46788, Poly_aftertouch_c, 0, 75, 0
1, 46792, Control_c, 0, 64, 68
1, 46806, Control_c, 0, 64, 68
1, 46821, Control_c, 0, 64, 67
1, 46821, Control_c, 0, 67, 11
1, 46832, Note_off_c, 0, 69, 60
1, 46836, Control_c, 0, 64, 66
1, 46836, Control_c, 0, 67, 16
1, 46847, Note_on_c, 0, 71, 75
1, 46852, Control_c, 0, 64, 65
1, 46852, Control_c, 0, 67, 19
1, 46867, Control_c, 0, 64, 63
1, 46882, Control_c, 0, 64, 62
1, 46897, Control_c, 0, 64, 61
1, 46897, Control_c, 0, 67, 20
1, 46911, Control_c, 0, 64, 60
1, 46911, Control_c, 0, 67, 24
1, 46926, Control_c, 0, 64, 60
1, 46926, Control_c, 0, 67, 27
1, 46941, Control_c, 0, 67, 30
1, 46956, Control_c, 0, 67, 32
1, 46970, Control_c, 0, 67, 34
1, 46985, Control_c, 0, 67, 37
1, 47000, Control_c, 0, 64, 59
1, 47000, Control_c, 0, 67, 40
1, 47014, Control_c, 0, 67, 43
1, 47029, Control_c, 0, 64, 59
1, 47029, Control_c, 0, 67, 46
1, 47044, Control_c, 0, 64, 58
1, 47044, Control_c, 0, 67, 49
1, 47059, Control_c, 0, 67, 53
1, 47074, Control_c, 0, 67, 58
1, 47088, Control_c, 0, 67, 66
1, 47103, Control_c, 0, 64, 57
1, 47103, Control_c, 0, 67, 76
1, 47107, Note_on_c, 0, 79, 78
1, 47126, Control_c, 0, 64, 52
1, 47126, Control_c, 0, 67, 84
1, 47141, Control_c, 0, 64, 42
1, 47141, Control_c, 0, 67, 88
1, 47155, Control_c, 0, 64, 30
1, 47155, Control_c, 0, 67, 89
1, 47159, Poly_aftertouch_c, 0, 66, 127
1, 47170, Control_c, 0, 64, 26
1, 47170, Control_c, 0, 67, 91
1, 47185, Control_c, 0, 64, 27
1, 47185, Control_c, 0, 67, 93
1, 47200, Control_c, 0, 64, 30
1, 47200, Control_c, 0, 67, 94
1, 47215, Control_c, 0, 64, 32
1, 47216, Poly_aftertouch_c, 0, 66, 0
1, 47229, Control_c, 0, 64, 33
1, 47229, Control_c, 0, 67, 95
1, 47244, Control_c, 0, 64, 37
1, 47244, Control_c, 0, 67, 97
1, 47259, Control_c, 0, 64, 47
1, 47259, Control_c, 0, 67, 99
1, 47274, Control_c, 0, 64, 56
1, 47274, Control_c, 0, 67, 101
1, 47289, Control_c, 0, 64, 59
1, 47289, Control_c, 0, 67, 106
1, 47303, Control_c, 0, 67, 112
1, 47318, Control_c, 0, 64, 60
1, 47318, Control_c, 0, 67, 122
1, 47333, Control_c, 0, 67, 127
1, 47362, Control_c, 0, 64, 59
1, 47377, Control_c, 0, 64, 59
1, 47392, Control_c, 0, 64, 58
1, 47407, Control_c, 0, 64, 57
1, 47422, Control_c, 0, 64, 57
1, 47437, Control_c, 0, 64, 56
1, 47452, Control_c, 0, 64, 56
1, 47466, Control_c, 0, 64, 54
1, 47481, Control_c, 0, 64, 50
1, 47496, Control_c, 0, 64, 45
1, 47511, Control_c, 0, 64, 42
1, 47526, Control_c, 0, 64, 41
1, 47538, Note_on_c, 0, 81, 70
1, 47547, Note_off_c, 0, 79, 55
1, 47555, Control_c, 0, 64, 42
1, 47570, Control_c, 0, 64, 45
1, 47585, Control_c, 0, 64, 54
1, 47600, Control_c, 0, 64, 61
1, 47615, Control_c, 0, 64, 61
1, 47636, Note_on_c, 0, 79, 74
1, 47642, Note_off_c, 0, 81, 63
1, 47644, Control_c, 0, 64, 62
1, 47657, Poly_aftertouch_c, 0, 74, 127
1, 47660, Control_c, 0, 64, 63
1, 47675, Control_c, 0, 64, 63
1, 47744, Poly_aftertouch_c, 0, 74, 0
1, 47763, Control_c, 0, 64, 64
1, 47903, Note_off_c, 0, 79, 56
1, 47960, Note_off_c, 0, 71, 60
1, 47971, Note_on_c, 0, 57, 56
1, 47978, Control_c, 0, 64, 64
1, 48002, Note_off_c, 0, 61, 58
1, 48082, Control_c, 0, 64, 64
1, 48082, Control_c, 0, 67, 126
1, 48097, Control_c, 0, 67, 123
1, 48112, Control_c, 0, 67, 121
1, 48126, Control_c, 0, 67, 119
1, 48141, Control_c, 0, 67, 118
1, 48170, Control_c, 0, 67, 118
1, 48185, Control_c, 0, 67, 119
1, 48200, Control_c, 0, 67, 120
1, 48215, Control_c, 0, 67, 122
1, 48230, Control_c, 0, 67, 123
1, 48244, Control_c, 0, 64, 64
1, 48244, Control_c, 0, 67, 124
1, 48259, Control_c, 0, 67, 126
1, 48274, Control_c, 0, 67, 127
1, 48283, Note_off_c, 0, 57, 59
1, 48306, Note_on_c, 0, 59, 62
1, 48349, Control_c, 0, 64, 62
1, 48363, Note_off_c, 0, 59, 60
1, 48364, Control_c, 0, 64, 56
1, 48377, Note_on_c, 0, 57, 72
1, 48378, Control_c, 0, 64, 37
1, 48393, Control_c, 0, 64, 0
1, 48468, Control_c, 0, 64, 25
1, 48471, Note_on_c, 0, 40, 55
1, 48483, Control_c, 0, 64, 46
1, 48498, Control_c, 0, 64, 61
1, 48513, Control_c, 0, 64, 63
1, 48542, Control_c, 0, 64, 64
1, 48555, Control_c, 0, 64, 65
1, 48563, Note_off_c, 0, 67, 35
1, 48570, Control_c, 0, 64, 66
1, 48583, Note_off_c, 0, 57, 53
1, 48632, Note_on_c, 0, 47, 57
1, 48632, Note_off_c, 0, 40, 59
1, 48683, Note_on_c, 0, 66, 52
1, 48701, Note_on_c, 0, 69, 60
1, 48705, Note_on_c, 0, 59, 54
1, 48726, Note_on_c, 0, 55, 62
1, 48751, Note_on_c, 0, 67, 11
1, 48755, Control_c, 0, 64, 65
1, 48770, Control_c, 0, 64, 65
1, 48785, Control_c, 0, 64, 64
1, 48795, Note_off_c, 0, 67, 28
1, 48799, Control_c, 0, 64, 64
1, 48962, Note_off_c, 0, 47, 33
1, 48978, Control_c, 0, 67, 127
1, 48987, Note_off_c, 0, 59, 58
1, 48992, Control_c, 0, 67, 126
1, 49007, Control_c, 0, 67, 126
1, 49020, Note_on_c, 0, 61, 70
1, 49022, Note_off_c, 0, 55, 56
1, 49022, Control_c, 0, 67, 125
1, 49037, Control_c, 0, 67, 124
1, 49052, Control_c, 0, 67, 122
1, 49066, Control_c, 0, 67, 119
1, 49075, Note_off_c, 0, 61, 65
1, 49081, Control_c, 0, 67, 117
1, 49090, Note_on_c, 0, 59, 79
1, 49096, Control_c, 0, 67, 114
1, 49111, Control_c, 0, 67, 111
1, 49124, Note_off_c, 0, 66, 36
1, 49125, Control_c, 0, 67, 106
1, 49140, Control_c, 0, 64, 64
1, 49140, Control_c, 0, 67, 101
1, 49155, Control_c, 0, 64, 65
1, 49155, Control_c, 0, 67, 97
1, 49170, Control_c, 0, 64, 65
1, 49170, Control_c, 0, 67, 95
1, 49185, Control_c, 0, 67, 93
1, 49199, Control_c, 0, 67, 90
1, 49214, Control_c, 0, 64, 66
1, 49214, Control_c, 0, 67, 88
1, 49229, Control_c, 0, 64, 67
1, 49229, Control_c, 0, 67, 86
1, 49245, Control_c, 0, 64, 69
1, 49245, Control_c, 0, 67, 85
1, 49275, Control_c, 0, 67, 84
1, 49289, Control_c, 0, 67, 83
1, 49304, Control_c, 0, 67, 82
1, 49314, Note_on_c, 0, 61, 84
1, 49319, Control_c, 0, 67, 81
1, 49334, Control_c, 0, 67, 79
1, 49349, Control_c, 0, 64, 69
1, 49349, Control_c, 0, 67, 78
1, 49371, Control_c, 0, 67, 76
1, 49386, Control_c, 0, 67, 74
1, 49401, Control_c, 0, 67, 73
1, 49416, Control_c, 0, 67, 71
1, 49430, Control_c, 0, 67, 69
1, 49445, Control_c, 0, 67, 66
1, 49460, Control_c, 0, 67, 64
1, 49475, Control_c, 0, 67, 59
1, 49484, Note_off_c, 0, 69, 54
1, 49490, Control_c, 0, 67, 54
1, 49504, Control_c, 0, 67, 52
1, 49534, Control_c, 0, 67, 53
1, 49593, Control_c, 0, 67, 52
1, 49602, Note_on_c, 0, 69, 67
1, 49608, Control_c, 0, 64, 69
1, 49622, Control_c, 0, 64, 68
1, 49637, Control_c, 0, 64, 68
1, 49652, Control_c, 0, 64, 67
1, 49675, Note_on_c, 0, 67, 80
1, 49682, Control_c, 0, 64, 67
1, 49711, Control_c, 0, 64, 66
1, 49738, Note_off_c, 0, 69, 65
1, 49741, Control_c, 0, 67, 52
1, 49756, Control_c, 0, 64, 66
1, 49756, Control_c, 0, 67, 51
1, 49759, Note_on_c, 0, 71, 84
1, 49771, Control_c, 0, 67, 50
1, 49786, Control_c, 0, 64, 65
1, 49786, Control_c, 0, 67, 49
1, 49815, Control_c, 0, 67, 49
1, 49830, Control_c, 0, 64, 65
1, 49830, Control_c, 0, 67, 50
1, 49845, Control_c, 0, 64, 64
1, 49845, Control_c, 0, 67, 50
1, 49860, Control_c, 0, 64, 63
1, 49860, Control_c, 0, 67, 51
1, 49875, Control_c, 0, 64, 62
1, 49875, Control_c, 0, 67, 52
1, 49889, Control_c, 0, 67, 53
1, 49904, Control_c, 0, 67, 55
1, 49919, Control_c, 0, 67, 57
1, 49934, Control_c, 0, 67, 59
1, 49948, Control_c, 0, 64, 62
1, 49948, Control_c, 0, 67, 60
1, 49963, Control_c, 0, 64, 59
1, 49963, Control_c, 0, 67, 61
1, 49964, Note_on_c, 0, 79, 79
1, 49978, Control_c, 0, 64, 52
1, 49978, Control_c, 0, 67, 62
1, 49993, Control_c, 0, 64, 38
1, 49993, Control_c, 0, 67, 64
1, 50008, Control_c, 0, 64, 20
1, 50008, Control_c, 0, 67, 65
1, 50022, Control_c, 0, 64, 0
1, 50022, Control_c, 0, 67, 69
1, 50038, Control_c, 0, 67, 74
1, 50054, Control_c, 0, 67, 77
1, 50069, Control_c, 0, 67, 79
1, 50084, Control_c, 0, 67, 81
1, 50099, Control_c, 0, 64, 32
1, 50099, Control_c, 0, 67, 84
1, 50120, Control_c, 0, 64, 49
1, 50120, Control_c, 0, 67, 92
1, 50135, Control_c, 0, 64, 63
1, 50135, Control_c, 0, 67, 102
1, 50150, Control_c, 0, 64, 64
1, 50150, Control_c, 0, 67, 112
1, 50165, Control_c, 0, 67, 118
1, 50179, Control_c, 0, 67, 121
1, 50194, Control_c, 0, 67, 123
1, 50209, Control_c, 0, 64, 64
1, 50209, Control_c, 0, 67, 125
1, 50239, Control_c, 0, 64, 64
1, 50254, Control_c, 0, 67, 125
1, 50269, Control_c, 0, 64, 63
1, 50269, Control_c, 0, 67, 126
1, 50283, Control_c, 0, 67, 126
1, 50290, Note_off_c, 0, 79, 59
1, 50298, Control_c, 0, 64, 64
1, 50298, Control_c, 0, 67, 127
1, 50306, Note_on_c, 0, 81, 81
1, 50313, Control_c, 0, 64, 63
1, 50313, Control_c, 0, 67, 127
1, 50328, Control_c, 0, 64, 58
1, 50343, Control_c, 0, 64, 44
1, 50358, Control_c, 0, 64, 26
1, 50364, Note_on_c, 0, 79, 83
1, 50372, Control_c, 0, 64, 23
1, 50379, Note_off_c, 0, 81, 63
1, 50387, Control_c, 0, 64, 27
1, 50402, Control_c, 0, 64, 40
1, 50417, Control_c, 0, 64, 55
1, 50432, Control_c, 0, 64, 62
1, 50476, Control_c, 0, 64, 62
1, 50491, Control_c, 0, 64, 63
1, 50506, Control_c, 0, 64, 63
1, 50550, Control_c, 0, 64, 62
1, 50564, Control_c, 0, 64, 58
1, 50579, Control_c, 0, 64, 44
1, 50590, Note_on_c, 0, 78, 89
1, 50590, Note_off_c, 0, 79, 63
1, 50594, Control_c, 0, 64, 20
1, 50609, Control_c, 0, 64, 16
1, 50624, Control_c, 0, 64, 17
1, 50638, Control_c, 0, 64, 26
1, 50653, Control_c, 0, 64, 39
1, 50668, Control_c, 0, 64, 54
1, 50683, Control_c, 0, 64, 65
1, 50698, Control_c, 0, 64, 68
1, 50713, Control_c, 0, 64, 67
1, 50728, Control_c, 0, 64, 68
1, 50757, Control_c, 0, 64, 68
1, 50766, Note_off_c, 0, 78, 56
1, 50772, Control_c, 0, 64, 69
1, 50792, Note_off_c, 0, 59, 58
1, 50795, Note_off_c, 0, 61, 62
1, 50832, Control_c, 0, 64, 69
1, 50847, Control_c, 0, 64, 70
1, 50869, Control_c, 0, 64, 71
1, 50883, Note_on_c, 0, 79, 65
1, 50883, Note_off_c, 0, 67, 38
1, 50914, Control_c, 0, 67, 114
1, 50929, Control_c, 0, 67, 96
1, 50943, Control_c, 0, 64, 71
1, 50943, Control_c, 0, 67, 85
1, 50954, Note_off_c, 0, 79, 65
1, 50957, Note_on_c, 0, 76, 81
1, 50958, Control_c, 0, 64, 72
1, 50958, Control_c, 0, 67, 86
1, 50988, Control_c, 0, 67, 87
1, 50996, Note_off_c, 0, 76, 69
1, 51002, Control_c, 0, 67, 88
1, 51009, Note_off_c, 0, 71, 65
1, 51017, Control_c, 0, 67, 89
1, 51032, Control_c, 0, 67, 91
1, 51047, Control_c, 0, 67, 93
1, 51062, Control_c, 0, 67, 94
1, 51076, Control_c, 0, 67, 96
1, 51091, Control_c, 0, 67, 99
1, 51106, Control_c, 0, 67, 104
1, 51121, Control_c, 0, 67, 109
1, 51136, Control_c, 0, 67, 115
1, 51151, Control_c, 0, 67, 123
1, 51166, Control_c, 0, 67, 127
1, 51225, Control_c, 0, 64, 71
1, 51235, Note_on_c, 0, 59, 49
1, 51240, Control_c, 0, 64, 71
1, 51255, Control_c, 0, 64, 70
1, 51269, Control_c, 0, 64, 69
1, 51284, Control_c, 0, 64, 65
1, 51291, Note_on_c, 0, 74, 67
1, 51299, Control_c, 0, 64, 59
1, 51300, Note_on_c, 0, 69, 53
1, 51313, Control_c, 0, 64, 49
1, 51328, Control_c, 0, 64, 37
1, 51343, Control_c, 0, 64, 25
1, 51346, Note_on_c, 0, 62, 52
1, 51358, Control_c, 0, 64, 18
1, 51373, Control_c, 0, 64, 9
1, 51387, Control_c, 0, 64, 0
1, 51417, Control_c, 0, 64, 18
1, 51432, Control_c, 0, 64, 32
1, 51447, Control_c, 0, 64, 43
1, 51461, Control_c, 0, 64, 56
1, 51476, Control_c, 0, 64, 63
1, 51491, Control_c, 0, 64, 63
1, 51520, Control_c, 0, 64, 64
1, 51536, Note_off_c, 0, 69, 54
1, 51550, Control_c, 0, 64, 64
1, 51565, Control_c, 0, 64, 64
1, 51579, Control_c, 0, 64, 62
1, 51589, Note_on_c, 0, 71, 62
1, 51594, Control_c, 0, 64, 57
1, 51616, Control_c, 0, 64, 47
1, 51631, Control_c, 0, 64, 41
1, 51639, Note_off_c, 0, 71, 63
1, 51646, Note_on_c, 0, 69, 74
1, 51662, Control_c, 0, 64, 46
1, 51677, Control_c, 0, 64, 54
1, 51691, Control_c, 0, 64, 62
1, 51706, Control_c, 0, 64, 64
1, 51750, Control_c, 0, 64, 65
1, 51765, Control_c, 0, 64, 65
1, 51780, Control_c, 0, 64, 66
1, 51825, Control_c, 0, 64, 64
1, 51836, Note_off_c, 0, 69, 64
1, 51837, Note_on_c, 0, 67, 85
1, 51839, Control_c, 0, 64, 59
1, 51854, Control_c, 0, 64, 45
1, 51869, Control_c, 0, 64, 36
1, 51884, Control_c, 0, 67, 125
1, 51899, Control_c, 0, 64, 38
1, 51899, Control_c, 0, 67, 116
1, 51914, Control_c, 0, 64, 44
1, 51914, Control_c, 0, 67, 107
1, 51929, Control_c, 0, 64, 49
1, 51929, Control_c, 0, 67, 98
1, 51943, Control_c, 0, 64, 58
1, 51943, Control_c, 0, 67, 89
1, 51958, Control_c, 0, 64, 65
1, 51958, Control_c, 0, 67, 79
1, 51973, Control_c, 0, 64, 67
1, 51973, Control_c, 0, 67, 77
1, 52003, Control_c, 0, 64, 67
1, 52003, Control_c, 0, 67, 78
1, 52017, Control_c, 0, 67, 78
1, 52032, Control_c, 0, 64, 68
1, 52032, Control_c, 0, 67, 79
1, 52047, Control_c, 0, 67, 79
1, 52054, Note_off_c, 0, 67, 61
1, 52062, Control_c, 0, 67, 80
1, 52077, Control_c, 0, 64, 67
1, 52077, Control_c, 0, 67, 81
1, 52079, Note_on_c, 0, 69, 72
1, 52091, Control_c, 0, 67, 82
1, 52106, Control_c, 0, 67, 84
1, 52121, Control_c, 0, 67, 86
1, 52123, Note_off_c, 0, 69, 65
1, 52125, Note_on_c, 0, 67, 79
1, 52135, Control_c, 0, 67, 89
1, 52150, Control_c, 0, 67, 94
1, 52165, Control_c, 0, 64, 68
1, 52165, Control_c, 0, 67, 98
1, 52174, Note_off_c, 0, 74, 58
1, 52180, Control_c, 0, 67, 103
1, 52195, Control_c, 0, 67, 107
1, 52209, Control_c, 0, 67, 109
1, 52224, Control_c, 0, 67, 111
1, 52239, Control_c, 0, 67, 113
1, 52254, Control_c, 0, 67, 114
1, 52269, Control_c, 0, 67, 114
1, 52291, Note_off_c, 0, 59, 32
1, 52299, Control_c, 0, 64, 67
1, 52299, Control_c, 0, 67, 115
1, 52310, Note_off_c, 0, 67, 62
1, 52313, Control_c, 0, 64, 65
1, 52313, Control_c, 0, 67, 116
1, 52328, Control_c, 0, 64, 59
1, 52328, Control_c, 0, 67, 118
1, 52337, Note_on_c, 0, 71, 88
1, 52337, Note_off_c, 0, 62, 44
1, 52343, Control_c, 0, 64, 46
1, 52362, Note_on_c, 0, 66, 63
1, 52365, Control_c, 0, 64, 30
1, 52380, Control_c, 0, 64, 18
1, 52380, Control_c, 0, 67, 117
1, 52391, Note_on_c, 0, 59, 46
1, 52395, Control_c, 0, 64, 15
1, 52395, Control_c, 0, 67, 116
1, 52398, Note_on_c, 0, 55, 49
1, 52409, Control_c, 0, 64, 15
1, 52424, Control_c, 0, 64, 24
1, 52440, Control_c, 0, 64, 39
1, 52440, Control_c, 0, 67, 115
1, 52455, Control_c, 0, 64, 52
1, 52470, Control_c, 0, 64, 63
1, 52485, Control_c, 0, 64, 65
1, 52514, Control_c, 0, 64, 67
1, 52514, Control_c, 0, 67, 116
1, 52529, Control_c, 0, 67, 117
1, 52544, Control_c, 0, 67, 117
1, 52549, Note_off_c, 0, 66, 62
1, 52558, Control_c, 0, 64, 66
1, 52558, Control_c, 0, 67, 118
1, 52573, Control_c, 0, 64, 65
1, 52573, Control_c, 0, 67, 122
1, 52579, Note_on_c, 0, 67, 60
1, 52588, Control_c, 0, 64, 62
1, 52588, Control_c, 0, 67, 127
1, 52603, Control_c, 0, 64, 54
1, 52618, Control_c, 0, 64, 43
1, 52624, Note_off_c, 0, 67, 58
1, 52633, Control_c, 0, 64, 41
1, 52639, Note_on_c, 0, 66, 75
1, 52647, Control_c, 0, 64, 45
1, 52662, Control_c, 0, 64, 53
1, 52677, Control_c, 0, 64, 63
1, 52692, Control_c, 0, 64, 65
1, 52840, Control_c, 0, 64, 64
1, 52870, Control_c, 0, 64, 63
1, 52885, Control_c, 0, 64, 58
1, 52891, Note_off_c, 0, 66, 61
1, 52900, Control_c, 0, 64, 47
1, 52901, Note_on_c, 0, 76, 73
1, 52914, Control_c, 0, 64, 35
1, 52928, Note_on_c, 0, 64, 50
1, 52929, Control_c, 0, 64, 24
1, 52944, Control_c, 0, 64, 19
1, 52958, Control_c, 0, 64, 18
1, 52973, Control_c, 0, 64, 18
1, 52988, Control_c, 0, 64, 24
1, 53003, Control_c, 0, 64, 33
1, 53014, Note_off_c, 0, 64, 0
1, 53014, Note_on_c, 0, 64, 12
1, 53018, Control_c, 0, 64, 42
1, 53032, Control_c, 0, 64, 51
1, 53048, Control_c, 0, 64, 59
1, 53063, Control_c, 0, 64, 60
1, 53078, Control_c, 0, 64, 61
1, 53092, Control_c, 0, 64, 61
1, 53115, Control_c, 0, 64, 62
1, 53216, Note_off_c, 0, 64, 39
1, 53217, Note_off_c, 0, 76, 57
1, 53245, Note_on_c, 0, 66, 51
1, 53264, Note_off_c, 0, 59, 39
1, 53264, Control_c, 0, 64, 61
1, 53267, Note_off_c, 0, 66, 59
1, 53296, Note_on_c, 0, 64, 46
1, 53341, Note_off_c, 0, 64, 0
1, 53341, Note_on_c, 0, 64, 10
1, 53353, Control_c, 0, 64, 61
1, 53427, Control_c, 0, 64, 60
1, 53486, Note_on_c, 0, 59, 44
1, 53515, Control_c, 0, 64, 59
1, 53530, Control_c, 0, 64, 57
1, 53533, Note_on_c, 0, 74, 68
1, 53539, Note_off_c, 0, 64, 47
1, 53545, Control_c, 0, 64, 51
1, 53547, Note_off_c, 0, 55, 42
1, 53556, Note_on_c, 0, 66, 45
1, 53560, Note_off_c, 0, 71, 59
1, 53560, Control_c, 0, 64, 42
1, 53575, Control_c, 0, 64, 34
1, 53583, Note_on_c, 0, 62, 44
1, 53589, Control_c, 0, 64, 29
1, 53604, Control_c, 0, 64, 25
1, 53619, Control_c, 0, 64, 24
1, 53634, Control_c, 0, 64, 26
1, 53649, Control_c, 0, 64, 36
1, 53664, Control_c, 0, 64, 50
1, 53679, Control_c, 0, 64, 60
1, 53694, Control_c, 0, 64, 62
1, 53723, Control_c, 0, 64, 62
1, 53773, Note_off_c, 0, 66, 63
1, 53801, Note_on_c, 0, 67, 64
1, 53812, Control_c, 0, 64, 62
1, 53828, Note_off_c, 0, 67, 63
1, 53866, Note_on_c, 0, 66, 70
1, 54001, Note_off_c, 0, 59, 34
1, 54012, Control_c, 0, 64, 62
1, 54027, Control_c, 0, 64, 62
1, 54030, Note_off_c, 0, 62, 43
1, 54042, Control_c, 0, 64, 59
1, 54057, Control_c, 0, 64, 50
1, 54066, Note_off_c, 0, 66, 62
1, 54072, Control_c, 0, 64, 39
1, 54072, Control_c, 0, 67, 123
1, 54073, Note_on_c, 0, 64, 63
1, 54087, Note_on_c, 0, 55, 53
1, 54087, Control_c, 0, 64, 36
1, 54087, Control_c, 0, 67, 118
1, 54094, Note_on_c, 0, 59, 48
1, 54102, Control_c, 0, 64, 38
1, 54102, Control_c, 0, 67, 115
1, 54117, Control_c, 0, 64, 46
1, 54117, Control_c, 0, 67, 114
1, 54132, Control_c, 0, 64, 59
1, 54132, Control_c, 0, 67, 113
1, 54146, Control_c, 0, 64, 65
1, 54146, Control_c, 0, 67, 113
1, 54176, Control_c, 0, 64, 66
1, 54191, Control_c, 0, 64, 67
1, 54191, Control_c, 0, 67, 113
1, 54206, Control_c, 0, 64, 68
1, 54220, Control_c, 0, 64, 69
1, 54235, Control_c, 0, 64, 70
1, 54239, Note_off_c, 0, 64, 57
1, 54250, Control_c, 0, 67, 113
1, 54265, Control_c, 0, 67, 112
1, 54266, Note_off_c, 0, 74, 36
1, 54278, Note_on_c, 0, 66, 72
1, 54280, Control_c, 0, 67, 111
1, 54294, Control_c, 0, 67, 110
1, 54309, Control_c, 0, 64, 70
1, 54309, Control_c, 0, 67, 107
1, 54324, Control_c, 0, 64, 71
1, 54324, Control_c, 0, 67, 104
1, 54338, Control_c, 0, 64, 71
1, 54338, Control_c, 0, 67, 100
1, 54339, Note_on_c, 0, 64, 80
1, 54353, Control_c, 0, 67, 95
1, 54368, Control_c, 0, 64, 69
1, 54368, Control_c, 0, 67, 90
1, 54383, Control_c, 0, 64, 67
1, 54383, Control_c, 0, 67, 87
1, 54398, Control_c, 0, 64, 65
1, 54398, Control_c, 0, 67, 85
1, 54412, Control_c, 0, 64, 64
1, 54412, Control_c, 0, 67, 82
1, 54427, Control_c, 0, 67, 79
1, 54442, Control_c, 0, 67, 78
1, 54457, Control_c, 0, 64, 63
1, 54472, Control_c, 0, 64, 61
1, 54472, Control_c, 0, 67, 77
1, 54478, Note_off_c, 0, 59, 40
1, 54479, Note_off_c, 0, 55, 0
1, 54486, Control_c, 0, 64, 55
1, 54486, Control_c, 0, 67, 74
1, 54501, Control_c, 0, 64, 47
1, 54501, Control_c, 0, 67, 67
1, 54515, Note_on_c, 0, 55, 25
1, 54516, Control_c, 0, 64, 44
1, 54516, Control_c, 0, 67, 59
1, 54519, Note_on_c, 0, 71, 83
1, 54523, Note_on_c, 0, 62, 72
1, 54524, Note_off_c, 0, 64, 63
1, 54528, Note_on_c, 0, 52, 74
1, 54531, Control_c, 0, 64, 46
1, 54531, Control_c, 0, 67, 52
1, 54546, Control_c, 0, 64, 53
1, 54546, Control_c, 0, 67, 49
1, 54561, Control_c, 0, 64, 65
1, 54561, Control_c, 0, 67, 45
1, 54576, Control_c, 0, 64, 77
1, 54576, Control_c, 0, 67, 39
1, 54580, Note_off_c, 0, 52, 63
1, 54584, Note_off_c, 0, 55, 64
1, 54591, Control_c, 0, 64, 78
1, 54591, Control_c, 0, 67, 32
1, 54612, Control_c, 0, 64, 81
1, 54612, Control_c, 0, 67, 24
1, 54618, Note_off_c, 0, 66, 0
1, 54627, Control_c, 0, 64, 85
1, 54627, Control_c, 0, 67, 19
1, 54642, Control_c, 0, 64, 90
1, 54642, Control_c, 0, 67, 18
1, 54656, Poly_aftertouch_c, 0, 66, 127
1, 54657, Control_c, 0, 64, 95
1, 54657, Control_c, 0, 67, 18
1, 54672, Control_c, 0, 64, 99
1, 54672, Control_c, 0, 67, 19
1, 54686, Control_c, 0, 64, 101
1, 54686, Control_c, 0, 67, 20
1, 54701, Control_c, 0, 64, 101
1, 54701, Control_c, 0, 67, 21
1, 54715, Note_off_c, 0, 62, 59
1, 54716, Control_c, 0, 64, 104
1, 54716, Control_c, 0, 67, 23
1, 54731, Control_c, 0, 64, 113
1, 54731, Control_c, 0, 67, 24
1, 54746, Control_c, 0, 64, 127
1, 54746, Control_c, 0, 67, 25
1, 54756, Note_on_c, 0, 64, 80
1, 54761, Control_c, 0, 67, 27
1, 54776, Control_c, 0, 67, 29
1, 54791, Control_c, 0, 67, 30
1, 54799, Note_off_c, 0, 71, 56
1, 54805, Control_c, 0, 67, 34
1, 54820, Note_on_c, 0, 62, 90
1, 54820, Control_c, 0, 67, 39
1, 54821, Note_off_c, 0, 64, 64
1, 54825, Poly_aftertouch_c, 0, 66, 0
1, 54835, Control_c, 0, 67, 42
1, 54850, Control_c, 0, 67, 44
1, 54863, Note_off_c, 0, 62, 65
1, 54865, Control_c, 0, 67, 46
1, 54880, Control_c, 0, 67, 47
1, 54895, Control_c, 0, 67, 48
1, 54910, Control_c, 0, 67, 49
1, 54925, Control_c, 0, 67, 50
1, 54940, Control_c, 0, 67, 52
1, 54940, Note_on_c, 0, 40, 82
1, 54955, Control_c, 0, 67, 54
1, 54969, Control_c, 0, 67, 58
1, 54984, Control_c, 0, 64, 114
1, 54984, Control_c, 0, 67, 62
1, 54999, Control_c, 0, 64, 88
1, 54999, Control_c, 0, 67, 64
1, 55014, Control_c, 0, 64, 68
1, 55014, Control_c, 0, 67, 67
1, 55029, Control_c, 0, 64, 54
1, 55029, Control_c, 0, 67, 70
1, 55043, Control_c, 0, 64, 25
1, 55043, Control_c, 0, 67, 74
1, 55045, Note_on_c, 0, 61, 87
1, 55051, Note_on_c, 0, 49, 82
1, 55058, Control_c, 0, 64, 0
1, 55058, Control_c, 0, 67, 79
1, 55059, Note_on_c, 0, 55, 64
1, 55070, Note_on_c, 0, 59, 45
1, 55073, Control_c, 0, 67, 85
1, 55087, Control_c, 0, 67, 92
1, 55102, Control_c, 0, 67, 98
1, 55117, Control_c, 0, 64, 14
1, 55117, Control_c, 0, 67, 104
1, 55132, Control_c, 0, 64, 39
1, 55132, Control_c, 0, 67, 109
1, 55144, Note_off_c, 0, 59, 0
1, 55147, Control_c, 0, 64, 56
1, 55147, Control_c, 0, 67, 115
1, 55161, Control_c, 0, 64, 67
1, 55161, Control_c, 0, 67, 121
1, 55176, Control_c, 0, 64, 69
1, 55176, Control_c, 0, 67, 127
1, 55181, Poly_aftertouch_c, 0, 59, 127
1, 55191, Control_c, 0, 64, 70
1, 55206, Control_c, 0, 64, 71
1, 55221, Control_c, 0, 64, 72
1, 55250, Control_c, 0, 64, 72
1, 55250, Control_c, 0, 67, 127
1, 55260, Note_off_c, 0, 49, 62
1, 55265, Control_c, 0, 67, 124
1, 55279, Poly_aftertouch_c, 0, 59, 0
1, 55279, Control_c, 0, 67, 122
1, 55280, Note_off_c, 0, 61, 62
1, 55294, Control_c, 0, 67, 119
1, 55299, Note_on_c, 0, 50, 53
1, 55305, Note_on_c, 0, 62, 75
1, 55309, Control_c, 0, 64, 73
1, 55309, Control_c, 0, 67, 115
1, 55322, Note_off_c, 0, 55, 62
1, 55324, Control_c, 0, 64, 73
1, 55324, Control_c, 0, 67, 109
1, 55339, Control_c, 0, 64, 74
1, 55339, Control_c, 0, 67, 100
1, 55360, Control_c, 0, 67, 90
1, 55375, Note_off_c, 0, 40, 62
1, 55375, Control_c, 0, 64, 74
1, 55375, Control_c, 0, 67, 77
1, 55378, Note_on_c, 0, 49, 76
1, 55380, Note_on_c, 0, 61, 88
1, 55390, Control_c, 0, 67, 67
1, 55391, Note_off_c, 0, 50, 62
1, 55399, Note_off_c, 0, 62, 64
1, 55405, Control_c, 0, 67, 58
1, 55417, Note_off_c, 0, 61, 69
1, 55420, Control_c, 0, 67, 53
1, 55428, Note_off_c, 0, 49, 62
1, 55434, Control_c, 0, 67, 52
1, 55449, Control_c, 0, 67, 53
1, 55464, Control_c, 0, 67, 54
1, 55479, Control_c, 0, 67, 54
1, 55494, Control_c, 0, 67, 55
1, 55509, Control_c, 0, 67, 56
1, 55518, Note_on_c, 0, 42, 77
1, 55524, Control_c, 0, 67, 57
1, 55539, Control_c, 0, 67, 58
1, 55554, Control_c, 0, 67, 58
1, 55568, Control_c, 0, 64, 73
1, 55568, Control_c, 0, 67, 59
1, 55583, Control_c, 0, 64, 67
1, 55598, Control_c, 0, 64, 59
1, 55598, Control_c, 0, 67, 60
1, 55613, Control_c, 0, 64, 37
1, 55613, Control_c, 0, 67, 61
1, 55613, Note_on_c, 0, 71, 95
1, 55622, Note_on_c, 0, 62, 75
1, 55626, Note_on_c, 0, 59, 74
1, 55628, Control_c, 0, 64, 0
1, 55628, Control_c, 0, 67, 62
1, 55632, Note_on_c, 0, 55, 77
1, 55634, Note_on_c, 0, 50, 65
1, 55643, Control_c, 0, 67, 63
1, 55658, Control_c, 0, 67, 64
1, 55673, Control_c, 0, 67, 66
1, 55688, Control_c, 0, 67, 68
1, 55703, Control_c, 0, 64, 36
1, 55703, Control_c, 0, 67, 70
1, 55717, Control_c, 0, 64, 53
1, 55717, Control_c, 0, 67, 72
1, 55732, Control_c, 0, 64, 65
1, 55732, Control_c, 0, 67, 74
1, 55747, Control_c, 0, 64, 69
1, 55747, Control_c, 0, 67, 75
1, 55760, Note_off_c, 0, 55, 36
1, 55762, Control_c, 0, 67, 76
1, 55777, Control_c, 0, 64, 69
1, 55777, Control_c, 0, 67, 75
1, 55791, Control_c, 0, 67, 74
1, 55806, Control_c, 0, 64, 70
1, 55806, Control_c, 0, 67, 73
1, 55821, Control_c, 0, 67, 73
1, 55842, Note_off_c, 0, 62, 48
1, 55852, Note_off_c, 0, 50, 36
1, 55856, Note_off_c, 0, 59, 57
1, 55891, Note_on_c, 0, 52, 70
1, 55895, Control_c, 0, 67, 73
1, 55898, Note_on_c, 0, 64, 72
1, 55909, Control_c, 0, 67, 74
1, 55924, Control_c, 0, 67, 74
1, 55939, Control_c, 0, 67, 75
1, 55954, Note_on_c, 0, 62, 78
1, 55954, Control_c, 0, 67, 76
1, 55959, Note_on_c, 0, 50, 70
1, 55969, Control_c, 0, 67, 77
1, 55971, Note_off_c, 0, 52, 64
1, 55984, Note_off_c, 0, 64, 63
1, 55989, Note_off_c, 0, 50, 67
1, 56001, Note_off_c, 0, 42, 57
1, 56013, Control_c, 0, 67, 77
1, 56057, Control_c, 0, 67, 78
1, 56109, Control_c, 0, 64, 69
1, 56124, Control_c, 0, 64, 68
1, 56124, Control_c, 0, 67, 78
1, 56139, Control_c, 0, 64, 62
1, 56139, Control_c, 0, 67, 79
1, 56147, Note_on_c, 0, 61, 93
1, 56154, Control_c, 0, 64, 43
1, 56154, Control_c, 0, 67, 82
1, 56159, Note_on_c, 0, 40, 74
1, 56162, Note_off_c, 0, 62, 59
1, 56164, Note_on_c, 0, 49, 73
1, 56169, Control_c, 0, 64, 0
1, 56169, Control_c, 0, 67, 87
1, 56183, Control_c, 0, 67, 94
1, 56198, Control_c, 0, 67, 105
1, 56213, Control_c, 0, 67, 117
1, 56228, Control_c, 0, 67, 127
1, 56243, Control_c, 0, 64, 32
1, 56257, Control_c, 0, 64, 45
1, 56272, Control_c, 0, 64, 56
1, 56287, Control_c, 0, 64, 60
1, 56302, Control_c, 0, 64, 60
1, 56332, Control_c, 0, 64, 61
1, 56345, Note_off_c, 0, 61, 61
1, 56347, Control_c, 0, 64, 61
1, 56361, Control_c, 0, 64, 62
1, 56376, Control_c, 0, 64, 63
1, 56377, Note_off_c, 0, 49, 37
1, 56387, Note_on_c, 0, 62, 77
1, 56390, Note_on_c, 0, 50, 55
1, 56391, Control_c, 0, 64, 63
1, 56406, Control_c, 0, 64, 64
1, 56451, Control_c, 0, 64, 64
1, 56454, Note_off_c, 0, 71, 63
1, 56455, Note_on_c, 0, 61, 83
1, 56457, Note_off_c, 0, 62, 65
1, 56463, Note_off_c, 0, 50, 61
1, 56464, Note_on_c, 0, 49, 56
1, 56478, Note_off_c, 0, 40, 61
1, 56496, Note_off_c, 0, 61, 62
1, 56496, Control_c, 0, 64, 65
1, 56512, Note_off_c, 0, 49, 66
1, 56614, Control_c, 0, 64, 65
1, 56644, Control_c, 0, 64, 65
1, 56659, Control_c, 0, 64, 62
1, 56670, Note_on_c, 0, 67, 71
1, 56672, Note_on_c, 0, 47, 62
1, 56674, Control_c, 0, 64, 53
1, 56681, Note_on_c, 0, 59, 48
1, 56683, Note_on_c, 0, 55, 62
1, 56688, Control_c, 0, 64, 27
1, 56689, Note_on_c, 0, 39, 53
1, 56703, Control_c, 0, 64, 0
1, 56777, Control_c, 0, 64, 26
1, 56793, Control_c, 0, 64, 40
1, 56807, Control_c, 0, 64, 50
1, 56822, Control_c, 0, 64, 58
1, 56837, Control_c, 0, 64, 59
1, 56859, Control_c, 0, 64, 60
1, 56874, Control_c, 0, 64, 60
1, 56889, Control_c, 0, 64, 61
1, 56893, Note_off_c, 0, 59, 61
1, 56910, Note_off_c, 0, 47, 0
1, 56919, Control_c, 0, 64, 61
1, 56929, Note_on_c, 0, 61, 63
1, 56939, Poly_aftertouch_c, 0, 47, 0
1, 56947, Note_off_c, 0, 55, 56
1, 56949, Note_on_c, 0, 49, 46
1, 56963, Control_c, 0, 64, 62
1, 56993, Note_on_c, 0, 59, 62
1, 57007, Note_on_c, 0, 47, 50
1, 57007, Control_c, 0, 64, 62
1, 57008, Note_off_c, 0, 61, 58
1, 57044, Note_off_c, 0, 39, 36
1, 57059, Note_off_c, 0, 47, 52
1, 57060, Note_off_c, 0, 49, 37
1, 57087, Note_off_c, 0, 59, 36
1, 57155, Control_c, 0, 64, 62
1, 57170, Control_c, 0, 64, 60
1, 57185, Control_c, 0, 64, 50
1, 57199, Control_c, 0, 64, 24
1, 57211, Note_on_c, 0, 48, 53
1, 57214, Control_c, 0, 64, 0
1, 57217, Note_on_c, 0, 60, 45
1, 57220, Note_on_c, 0, 55, 46
1, 57221, Note_on_c, 0, 40, 53
1, 57275, Control_c, 0, 64, 19
1, 57290, Control_c, 0, 64, 38
1, 57304, Control_c, 0, 64, 53
1, 57319, Control_c, 0, 64, 59
1, 57334, Control_c, 0, 64, 60
1, 57393, Control_c, 0, 64, 60
1, 57414, Note_off_c, 0, 60, 53
1, 57419, Note_off_c, 0, 48, 34
1, 57458, Note_on_c, 0, 50, 42
1, 57458, Note_off_c, 0, 55, 44
1, 57465, Note_on_c, 0, 62, 52
1, 57482, Control_c, 0, 64, 61
1, 57514, Note_off_c, 0, 67, 39
1, 57524, Note_on_c, 0, 48, 53
1, 57533, Note_off_c, 0, 62, 63
1, 57542, Note_off_c, 0, 50, 51
1, 57550, Note_off_c, 0, 40, 36
1, 57553, Note_off_c, 0, 48, 63
1, 57559, Note_on_c, 0, 60, 31
1, 57592, Note_off_c, 0, 60, 54
1, 57706, Note_on_c, 0, 41, 53
1, 57712, Control_c, 0, 64, 60
1, 57727, Control_c, 0, 64, 60
1, 57742, Control_c, 0, 64, 56
1, 57756, Control_c, 0, 64, 44
1, 57771, Control_c, 0, 64, 17
1, 57786, Control_c, 0, 64, 0
1, 57801, Note_on_c, 0, 71, 58
1, 57803, Note_on_c, 0, 59, 52
1, 57804, Note_on_c, 0, 62, 43
1, 57834, Note_on_c, 0, 50, 47
1, 57841, Note_on_c, 0, 55, 25
1, 57845, Control_c, 0, 64, 14
1, 57860, Control_c, 0, 64, 35
1, 57875, Control_c, 0, 64, 50
1, 57889, Control_c, 0, 64, 56
1, 57893, Note_off_c, 0, 55, 44
1, 57903, Note_off_c, 0, 62, 0
1, 57903, Note_on_c, 0, 62, 15
1, 57904, Control_c, 0, 64, 56
1, 57919, Control_c, 0, 64, 57
1, 57934, Control_c, 0, 64, 57
1, 57995, Note_off_c, 0, 50, 32
1, 58008, Control_c, 0, 64, 58
1, 58039, Control_c, 0, 64, 58
1, 58046, Note_off_c, 0, 62, 44
1, 58058, Note_off_c, 0, 59, 38
1, 58070, Note_on_c, 0, 64, 57
1, 58085, Note_on_c, 0, 52, 52
1, 58132, Note_off_c, 0, 64, 49
1, 58135, Note_on_c, 0, 62, 65
1, 58140, Note_off_c, 0, 52, 57
1, 58149, Note_on_c, 0, 50, 45
1, 58157, Control_c, 0, 64, 58
1, 58158, Poly_aftertouch_c, 0, 66, 127
1, 58177, Note_off_c, 0, 50, 59
1, 58197, Note_off_c, 0, 41, 58
1, 58275, Control_c, 0, 64, 57
1, 58305, Control_c, 0, 64, 56
1, 58320, Control_c, 0, 64, 49
1, 58327, Note_off_c, 0, 62, 62
1, 58335, Control_c, 0, 64, 30
1, 58340, Note_on_c, 0, 60, 62
1, 58357, Control_c, 0, 64, 0
1, 58368, Note_on_c, 0, 40, 53
1, 58376, Note_on_c, 0, 48, 50
1, 58416, Control_c, 0, 64, 19
1, 58431, Control_c, 0, 64, 39
1, 58446, Control_c, 0, 64, 54
1, 58460, Control_c, 0, 64, 59
1, 58475, Control_c, 0, 64, 60
1, 58505, Control_c, 0, 64, 60
1, 58575, Note_off_c, 0, 48, 34
1, 58590, Note_off_c, 0, 60, 42
1, 58606, Note_on_c, 0, 62, 57
1, 58609, Note_on_c, 0, 50, 41
1, 58637, Note_off_c, 0, 71, 41
1, 58658, Note_off_c, 0, 50, 53
1, 58662, Note_off_c, 0, 62, 60
1, 58668, Note_on_c, 0, 48, 61
1, 58675, Poly_aftertouch_c, 0, 66, 0
1, 58680, Note_on_c, 0, 60, 65
1, 58684, Note_off_c, 0, 40, 61
1, 58689, Note_off_c, 0, 48, 64
1, 58699, Note_off_c, 0, 60, 67
1, 58862, Control_c, 0, 64, 60
1, 58891, Control_c, 0, 64, 58
1, 58904, Note_on_c, 0, 67, 60
1, 58906, Control_c, 0, 64, 51
1, 58914, Note_on_c, 0, 59, 44
1, 58920, Note_on_c, 0, 47, 47
1, 58920, Control_c, 0, 64, 30
1, 58922, Note_on_c, 0, 55, 37
1, 58928, Note_on_c, 0, 39, 51
1, 58935, Control_c, 0, 64, 0
1, 59009, Control_c, 0, 64, 24
1, 59024, Control_c, 0, 64, 38
1, 59039, Control_c, 0, 64, 46
1, 59054, Control_c, 0, 64, 52
1, 59106, Control_c, 0, 64, 52
1, 59158, Note_off_c, 0, 59, 46
1, 59165, Control_c, 0, 64, 52
1, 59195, Control_c, 0, 64, 51
1, 59199, Note_off_c, 0, 47, 35
1, 59203, Note_on_c, 0, 60, 47
1, 59207, Note_off_c, 0, 55, 45
1, 59209, Control_c, 0, 64, 51
1, 59219, Note_on_c, 0, 48, 42
1, 59224, Control_c, 0, 64, 50
1, 59239, Control_c, 0, 64, 49
1, 59244, Note_off_c, 0, 60, 62
1, 59253, Control_c, 0, 64, 48
1, 59268, Control_c, 0, 64, 46
1, 59277, Note_on_c, 0, 59, 57
1, 59283, Control_c, 0, 64, 43
1, 59298, Note_off_c, 0, 48, 37
1, 59298, Control_c, 0, 64, 42
1, 59304, Note_on_c, 0, 47, 48
1, 59327, Control_c, 0, 64, 41
1, 59342, Control_c, 0, 64, 41
1, 59357, Control_c, 0, 64, 40
1, 59372, Control_c, 0, 64, 39
1, 59387, Control_c, 0, 64, 39
1, 59461, Control_c, 0, 64, 38
1, 59476, Control_c, 0, 64, 33
1, 59491, Control_c, 0, 64, 18
1, 59506, Control_c, 0, 64, 0
1, 59509, Note_off_c, 0, 59, 55
1, 59526, Note_on_c, 0, 55, 56
1, 59595, Control_c, 0, 64, 29
1, 59609, Control_c, 0, 64, 40
1, 59625, Control_c, 0, 64, 49
1, 59640, Control_c, 0, 64, 53
1, 59655, Control_c, 0, 64, 54
1, 59670, Control_c, 0, 64, 54
1, 59685, Control_c, 0, 64, 55
1, 59773, Control_c, 0, 64, 54
1, 59818, Control_c, 0, 64, 54
1, 59822, Note_off_c, 0, 55, 42
1, 59832, Control_c, 0, 64, 53
1, 59840, Note_on_c, 0, 57, 51
1, 59855, Control_c, 0, 64, 52
1, 59870, Control_c, 0, 64, 51
1, 59884, Control_c, 0, 64, 48
1, 59898, Note_off_c, 0, 57, 53
1, 59899, Control_c, 0, 64, 45
1, 59914, Control_c, 0, 64, 43
1, 59929, Control_c, 0, 64, 41
1, 59939, Note_on_c, 0, 55, 48
1, 59944, Control_c, 0, 64, 39
1, 59958, Control_c, 0, 64, 38
1, 59973, Control_c, 0, 64, 37
1, 59988, Control_c, 0, 64, 36
1, 59996, Note_off_c, 0, 55, 0
1, 59996, Note_on_c, 0, 55, 5
1, 60003, Control_c, 0, 64, 35
1, 60018, Control_c, 0, 64, 35
1, 60032, Control_c, 0, 64, 34
1, 60062, Control_c, 0, 64, 34
1, 60121, Control_c, 0, 64, 33
1, 60136, Control_c, 0, 64, 33
1, 60150, Control_c, 0, 64, 32
1, 60165, Control_c, 0, 64, 31
1, 60180, Control_c, 0, 64, 29
1, 60195, Control_c, 0, 64, 27
1, 60203, Note_off_c, 0, 47, 49
1, 60210, Control_c, 0, 64, 23
1, 60222, Note_on_c, 0, 46, 53
1, 60225, Control_c, 0, 64, 16
1, 60240, Control_c, 0, 64, 0
1, 60433, Control_c, 0, 64, 24
1, 60448, Control_c, 0, 64, 36
1, 60463, Control_c, 0, 64, 44
1, 60478, Control_c, 0, 64, 48
1, 60493, Control_c, 0, 64, 50
1, 60552, Control_c, 0, 64, 49
1, 60567, Control_c, 0, 64, 47
1, 60581, Control_c, 0, 64, 45
1, 60603, Control_c, 0, 64, 42
1, 60618, Control_c, 0, 64, 41
1, 60633, Control_c, 0, 64, 40
1, 60636, Note_on_c, 0, 48, 46
1, 60648, Control_c, 0, 64, 37
1, 60663, Control_c, 0, 64, 35
1, 60678, Control_c, 0, 64, 31
1, 60688, Note_off_c, 0, 46, 32
1, 60693, Control_c, 0, 64, 28
1, 60707, Control_c, 0, 64, 24
1, 60722, Control_c, 0, 64, 19
1, 60737, Control_c, 0, 64, 0
1, 60742, Note_off_c, 0, 48, 58
1, 60752, Note_on_c, 0, 47, 50
1, 60800, Note_off_c, 0, 39, 31
1, 61147, Note_on_c, 0, 39, 57
1, 61397, Control_c, 0, 64, 14
1, 61411, Control_c, 0, 64, 23
1, 61426, Control_c, 0, 64, 30
1, 61441, Control_c, 0, 64, 36
1, 61456, Control_c, 0, 64, 36
1, 61471, Control_c, 0, 64, 37
1, 61486, Control_c, 0, 64, 37
1, 61501, Control_c, 0, 64, 38
1, 61515, Control_c, 0, 64, 39
1, 61530, Control_c, 0, 64, 41
1, 61545, Control_c, 0, 64, 42
1, 61560, Control_c, 0, 64, 42
1, 61575, Control_c, 0, 64, 43
1, 61590, Control_c, 0, 64, 45
1, 61604, Control_c, 0, 64, 47
1, 61619, Control_c, 0, 64, 48
1, 61634, Control_c, 0, 64, 49
1, 61648, Control_c, 0, 64, 50
1, 61663, Control_c, 0, 64, 50
1, 61678, Control_c, 0, 64, 51
1, 61678, Control_c, 0, 67, 126
1, 61693, Control_c, 0, 64, 51
1, 61693, Control_c, 0, 67, 124
1, 61708, Control_c, 0, 64, 52
1, 61708, Control_c, 0, 67, 121
1, 61722, Control_c, 0, 64, 53
1, 61722, Control_c, 0, 67, 116
1, 61737, Control_c, 0, 64, 53
1, 61737, Control_c, 0, 67, 106
1, 61752, Control_c, 0, 64, 54
1, 61752, Control_c, 0, 67, 95
1, 61767, Control_c, 0, 67, 84
1, 61782, Control_c, 0, 67, 74
1, 61796, Control_c, 0, 67, 68
1, 61798, Note_off_c, 0, 39, 38
1, 61811, Control_c, 0, 64, 53
1, 61811, Control_c, 0, 67, 64
1, 61826, Control_c, 0, 67, 61
1, 61840, Control_c, 0, 64, 53
1, 61840, Control_c, 0, 67, 61
1, 61855, Control_c, 0, 64, 52
1, 61855, Control_c, 0, 67, 60
1, 61870, Control_c, 0, 64, 52
1, 61879, Note_on_c, 0, 42, 78
1, 61885, Control_c, 0, 64, 51
1, 61885, Control_c, 0, 67, 61
1, 61900, Control_c, 0, 64, 50
1, 61900, Control_c, 0, 67, 61
1, 61915, Control_c, 0, 64, 49
1, 61915, Control_c, 0, 67, 62
1, 61930, Control_c, 0, 64, 47
1, 61930, Control_c, 0, 67, 62
1, 61945, Control_c, 0, 64, 45
1, 61945, Control_c, 0, 67, 63
1, 61960, Control_c, 0, 64, 43
1, 61960, Control_c, 0, 67, 63
1, 61975, Control_c, 0, 64, 41
1, 61975, Control_c, 0, 67, 64
1, 61989, Control_c, 0, 64, 39
1, 62004, Control_c, 0, 64, 36
1, 62019, Control_c, 0, 64, 32
1, 62033, Control_c, 0, 64, 27
1, 62048, Control_c, 0, 64, 17
1, 62063, Control_c, 0, 64, 0
1, 62070, Note_off_c, 0, 42, 61
1, 62075, Note_on_c, 0, 40, 83
1, 62077, Control_c, 0, 67, 64
1, 62100, Control_c, 0, 67, 64
1, 62130, Control_c, 0, 67, 64
1, 62189, Control_c, 0, 67, 64
1, 62219, Control_c, 0, 64, 18
1, 62219, Control_c, 0, 67, 63
1, 62233, Control_c, 0, 64, 33
1, 62233, Control_c, 0, 67, 63
1, 62248, Control_c, 0, 64, 45
1, 62255, Note_off_c, 0, 55, 45
1, 62263, Control_c, 0, 64, 54
1, 62277, Control_c, 0, 64, 58
1, 62292, Control_c, 0, 64, 58
1, 62305, Note_off_c, 0, 40, 63
1, 62307, Control_c, 0, 64, 59
1, 62322, Control_c, 0, 64, 60
1, 62337, Control_c, 0, 64, 60
1, 62351, Control_c, 0, 64, 61
1, 62366, Control_c, 0, 64, 62
1, 62366, Control_c, 0, 67, 63
1, 62376, Note_off_c, 0, 47, 54
1, 62381, Control_c, 0, 64, 62
1, 62396, Control_c, 0, 64, 63
1, 62411, Control_c, 0, 64, 64
1, 62411, Control_c, 0, 67, 64
1, 62425, Control_c, 0, 64, 65
1, 62440, Control_c, 0, 64, 66
1, 62455, Control_c, 0, 64, 67
1, 62455, Control_c, 0, 67, 64
1, 62469, Control_c, 0, 64, 68
1, 62484, Control_c, 0, 64, 69
1, 62499, Control_c, 0, 64, 71
1, 62499, Control_c, 0, 67, 64
1, 62514, Control_c, 0, 64, 72
1, 62529, Control_c, 0, 64, 73
1, 62529, Control_c, 0, 67, 63
1, 62544, Control_c, 0, 64, 74
1, 62559, Control_c, 0, 64, 74
1, 62574, Control_c, 0, 64, 75
1, 62603, Control_c, 0, 67, 64
1, 62707, Control_c, 0, 64, 75
1, 62722, Control_c, 0, 64, 74
1, 62737, Control_c, 0, 64, 72
1, 62737, Control_c, 0, 67, 64
1, 62738, Note_on_c, 0, 64, 76
1, 62741, Note_off_c, 0, 67, 11
1, 62751, Control_c, 0, 64, 67
1, 62764, Note_on_c, 0, 59, 49
1, 62766, Control_c, 0, 64, 61
1, 62767, Note_on_c, 0, 52, 90
1, 62781, Control_c, 0, 64, 51
1, 62785, Note_on_c, 0, 43, 67
1, 62788, Note_on_c, 0, 47, 68
1, 62795, Control_c, 0, 64, 37
1, 62812, Control_c, 0, 64, 21
1, 62827, Control_c, 0, 64, 11
1, 62848, Control_c, 0, 64, 0
1, 62848, Control_c, 0, 67, 63
1, 62863, Control_c, 0, 67, 63
1, 62878, Control_c, 0, 64, 14
1, 62878, Control_c, 0, 67, 62
1, 62893, Control_c, 0, 64, 29
1, 62908, Control_c, 0, 64, 42
1, 62908, Control_c, 0, 67, 61
1, 62922, Control_c, 0, 64, 54
1, 62937, Control_c, 0, 64, 64
1, 62937, Control_c, 0, 67, 60
1, 62952, Control_c, 0, 64, 69
1, 62952, Control_c, 0, 67, 60
1, 62967, Control_c, 0, 64, 70
1, 62967, Control_c, 0, 67, 59
1, 62982, Control_c, 0, 64, 72
1, 62982, Control_c, 0, 67, 57
1, 62997, Control_c, 0, 64, 74
1, 62997, Control_c, 0, 67, 55
1, 63012, Control_c, 0, 64, 77
1, 63012, Control_c, 0, 67, 54
1, 63027, Control_c, 0, 64, 80
1, 63027, Control_c, 0, 67, 54
1, 63042, Control_c, 0, 64, 84
1, 63042, Control_c, 0, 67, 53
1, 63056, Control_c, 0, 64, 87
1, 63056, Control_c, 0, 67, 53
1, 63071, Control_c, 0, 64, 90
1, 63071, Control_c, 0, 67, 51
1, 63086, Control_c, 0, 64, 93
1, 63086, Control_c, 0, 67, 50
1, 63100, Control_c, 0, 64, 96
1, 63100, Control_c, 0, 67, 48
1, 63107, Note_off_c, 0, 59, 38
1, 63115, Control_c, 0, 64, 100
1, 63115, Control_c, 0, 67, 45
1, 63130, Control_c, 0, 64, 103
1, 63130, Control_c, 0, 67, 43
1, 63145, Control_c, 0, 64, 106
1, 63145, Control_c, 0, 67, 41
1, 63160, Control_c, 0, 64, 107
1, 63160, Control_c, 0, 67, 39
1, 63165, Note_off_c, 0, 64, 60
1, 63174, Control_c, 0, 67, 37
1, 63189, Control_c, 0, 67, 35
1, 63204, Control_c, 0, 67, 33
1, 63218, Control_c, 0, 67, 30
1, 63233, Control_c, 0, 67, 27
1, 63248, Control_c, 0, 67, 24
1, 63263, Control_c, 0, 67, 20
1, 63278, Control_c, 0, 67, 16
1, 63292, Control_c, 0, 67, 10
1, 63298, Note_off_c, 0, 52, 65
1, 63298, Note_off_c, 0, 43, 52
1, 63307, Control_c, 0, 67, 0
1, 63337, Control_c, 0, 64, 106
1, 63352, Control_c, 0, 64, 105
1, 63367, Control_c, 0, 64, 105
1, 63369, Note_off_c, 0, 47, 28
1, 63382, Control_c, 0, 64, 104
1, 63396, Control_c, 0, 64, 103
1, 63500, Control_c, 0, 64, 103
1, 63515, Control_c, 0, 64, 102
1, 63531, Control_c, 0, 64, 101
1, 63545, Control_c, 0, 64, 100
1, 63560, Control_c, 0, 64, 99
1, 63575, Control_c, 0, 64, 98
1, 63597, Control_c, 0, 64, 98
1, 63612, Control_c, 0, 64, 96
1, 63628, Control_c, 0, 64, 96
1, 63643, Control_c, 0, 64, 95
1, 63655, Note_on_c, 0, 66, 81
1, 63658, Control_c, 0, 64, 95
1, 63672, Control_c, 0, 64, 94
1, 63675, Note_on_c, 0, 47, 62
1, 63682, Note_on_c, 0, 54, 64
1, 63683, Note_on_c, 0, 50, 56
1, 63687, Control_c, 0, 64, 94
1, 63692, Note_on_c, 0, 62, 49
1, 63702, Control_c, 0, 64, 93
1, 63761, Control_c, 0, 64, 93
1, 63765, Note_off_c, 0, 54, 63
1, 63776, Control_c, 0, 64, 91
1, 63790, Control_c, 0, 64, 83
1, 63799, Note_off_c, 0, 62, 0
1, 63805, Control_c, 0, 64, 72
1, 63814, Poly_aftertouch_c, 0, 62, 0
1, 63820, Control_c, 0, 64, 63
1, 63825, Note_on_c, 0, 64, 77
1, 63828, Note_on_c, 0, 43, 65
1, 63834, Note_on_c, 0, 59, 65
1, 63835, Control_c, 0, 64, 49
1, 63837, Note_on_c, 0, 52, 80
1, 63850, Control_c, 0, 64, 22
1, 63850, Note_off_c, 0, 50, 36
1, 63863, Note_off_c, 0, 66, 64
1, 63864, Control_c, 0, 64, 0
1, 63870, Poly_aftertouch_c, 0, 62, 0
1, 63924, Control_c, 0, 64, 15
1, 63939, Control_c, 0, 64, 28
1, 63954, Control_c, 0, 64, 37
1, 63969, Control_c, 0, 64, 46
1, 63984, Control_c, 0, 64, 58
1, 63998, Control_c, 0, 64, 65
1, 64013, Control_c, 0, 64, 67
1, 64028, Control_c, 0, 64, 69
1, 64032, Note_off_c, 0, 52, 65
1, 64042, Control_c, 0, 64, 70
1, 64057, Control_c, 0, 64, 72
1, 64072, Control_c, 0, 64, 74
1, 64087, Control_c, 0, 64, 76
1, 64102, Control_c, 0, 64, 78
1, 64116, Control_c, 0, 64, 79
1, 64131, Control_c, 0, 64, 81
1, 64146, Control_c, 0, 64, 83
1, 64150, Note_off_c, 0, 43, 55
1, 64161, Control_c, 0, 64, 84
1, 64176, Control_c, 0, 64, 85
1, 64190, Control_c, 0, 64, 86
1, 64258, Note_off_c, 0, 47, 18
1, 64309, Control_c, 0, 64, 86
1, 64323, Control_c, 0, 64, 84
1, 64346, Control_c, 0, 64, 80
1, 64361, Control_c, 0, 64, 73
1, 64363, Note_on_c, 0, 66, 76
1, 64376, Control_c, 0, 64, 64
1, 64382, Note_on_c, 0, 62, 58
1, 64383, Note_on_c, 0, 47, 69
1, 64383, Note_on_c, 0, 54, 65
1, 64385, Note_on_c, 0, 50, 60
1, 64391, Control_c, 0, 64, 55
1, 64391, Control_c, 0, 67, 9
1, 64405, Control_c, 0, 64, 37
1, 64405, Control_c, 0, 67, 15
1, 64419, Note_off_c, 0, 64, 60
1, 64421, Control_c, 0, 64, 0
1, 64421, Control_c, 0, 67, 23
1, 64436, Control_c, 0, 67, 33
1, 64451, Control_c, 0, 67, 43
1, 64466, Control_c, 0, 67, 48
1, 64480, Control_c, 0, 67, 49
1, 64495, Control_c, 0, 67, 50
1, 64510, Control_c, 0, 67, 50
1, 64525, Control_c, 0, 67, 51
1, 64539, Control_c, 0, 67, 53
1, 64554, Control_c, 0, 64, 34
1, 64554, Control_c, 0, 67, 59
1, 64569, Control_c, 0, 64, 52
1, 64569, Control_c, 0, 67, 64
1, 64584, Control_c, 0, 64, 63
1, 64584, Control_c, 0, 67, 66
1, 64599, Control_c, 0, 64, 68
1, 64599, Control_c, 0, 67, 67
1, 64628, Control_c, 0, 64, 69
1, 64643, Control_c, 0, 64, 72
1, 64658, Control_c, 0, 64, 75
1, 64672, Control_c, 0, 64, 78
1, 64687, Control_c, 0, 64, 80
1, 64702, Control_c, 0, 64, 83
1, 64702, Control_c, 0, 67, 66
1, 64717, Control_c, 0, 64, 85
1, 64732, Control_c, 0, 64, 88
1, 64747, Control_c, 0, 64, 92
1, 64762, Control_c, 0, 64, 97
1, 64777, Control_c, 0, 64, 102
1, 64791, Control_c, 0, 64, 107
1, 64806, Control_c, 0, 64, 110
1, 64821, Control_c, 0, 64, 114
1, 64830, Note_off_c, 0, 54, 63
1, 64836, Control_c, 0, 64, 117
1, 64851, Control_c, 0, 64, 127
1, 64914, Note_off_c, 0, 50, 40
1, 64925, Control_c, 0, 67, 67
1, 64969, Control_c, 0, 67, 67
1, 64971, Note_off_c, 0, 47, 34
1, 65009, Note_off_c, 0, 59, 35
1, 65110, Control_c, 0, 67, 68
1, 65140, Control_c, 0, 67, 68
1, 65154, Control_c, 0, 67, 69
1, 65169, Control_c, 0, 67, 71
1, 65184, Control_c, 0, 67, 74
1, 65198, Control_c, 0, 67, 76
1, 65213, Control_c, 0, 67, 79
1, 65230, Control_c, 0, 67, 82
1, 65244, Control_c, 0, 67, 86
1, 65259, Control_c, 0, 67, 89
1, 65274, Control_c, 0, 67, 93
1, 65289, Control_c, 0, 67, 94
1, 65303, Control_c, 0, 67, 95
1, 65304, Note_on_c, 0, 30, 75
1, 65307, Note_on_c, 0, 42, 73
1, 65333, Control_c, 0, 67, 96
1, 65361, Note_off_c, 0, 62, 37
1, 65377, Control_c, 0, 67, 96
1, 65392, Control_c, 0, 67, 97
1, 65397, Note_off_c, 0, 30, 62
1, 65409, Note_off_c, 0, 42, 59
1, 65437, Control_c, 0, 67, 97
1, 65698, Note_off_c, 0, 66, 28
1, 65718, Control_c, 0, 67, 98
1, 65806, Control_c, 0, 67, 98
1, 66022, Control_c, 0, 67, 99
1, 66056, Note_on_c, 0, 62, 50
1, 66066, Control_c, 0, 67, 99
1, 66078, Note_on_c, 0, 59, 31
1, 66081, Control_c, 0, 67, 100
1, 66096, Control_c, 0, 67, 102
1, 66097, Note_on_c, 0, 54, 47
1, 66111, Control_c, 0, 67, 103
1, 66112, Note_on_c, 0, 47, 31
1, 66125, Control_c, 0, 67, 104
1, 66140, Control_c, 0, 67, 105
1, 66170, Control_c, 0, 67, 105
1, 66222, Note_off_c, 0, 62, 53
1, 66252, Note_off_c, 0, 54, 35
1, 66259, Note_off_c, 0, 47, 42
1, 66259, Note_off_c, 0, 59, 39
1, 66341, Note_on_c, 0, 62, 67
1, 66356, Note_on_c, 0, 54, 61
1, 66362, Note_on_c, 0, 59, 54
1, 66362, Control_c, 0, 67, 105
1, 66376, Note_on_c, 0, 47, 49
1, 66377, Control_c, 0, 67, 104
1, 66392, Control_c, 0, 67, 104
1, 66407, Control_c, 0, 67, 103
1, 66422, Control_c, 0, 67, 102
1, 66436, Control_c, 0, 67, 101
1, 66451, Control_c, 0, 67, 99
1, 66458, Note_off_c, 0, 54, 61
1, 66466, Control_c, 0, 67, 98
1, 66470, Note_off_c, 0, 59, 55
1, 66476, Note_off_c, 0, 62, 62
1, 66481, Control_c, 0, 67, 97
1, 66496, Control_c, 0, 67, 96
1, 66500, Note_off_c, 0, 47, 35
1, 66510, Control_c, 0, 67, 95
1, 66525, Control_c, 0, 67, 94
1, 66540, Control_c, 0, 67, 94
1, 66552, Note_on_c, 0, 62, 69
1, 66555, Control_c, 0, 67, 93
1, 66565, Note_on_c, 0, 47, 54
1, 66566, Note_on_c, 0, 54, 65
1, 66570, Control_c, 0, 67, 92
1, 66571, Note_on_c, 0, 59, 54
1, 66592, Control_c, 0, 67, 92
1, 66622, Control_c, 0, 67, 91
1, 66651, Control_c, 0, 67, 91
1, 66658, Note_off_c, 0, 54, 60
1, 66664, Note_off_c, 0, 47, 58
1, 66666, Control_c, 0, 67, 90
1, 66676, Note_off_c, 0, 59, 59
1, 66681, Control_c, 0, 67, 88
1, 66690, Note_off_c, 0, 62, 56
1, 66696, Control_c, 0, 67, 86
1, 66711, Control_c, 0, 67, 84
1, 66725, Control_c, 0, 67, 83
1, 66740, Control_c, 0, 67, 80
1, 66749, Note_on_c, 0, 71, 74
1, 66751, Note_on_c, 0, 62, 48
1, 66753, Note_on_c, 0, 47, 66
1, 66755, Control_c, 0, 67, 77
1, 66764, Note_on_c, 0, 59, 44
1, 66767, Note_on_c, 0, 54, 62
1, 66770, Control_c, 0, 67, 74
1, 66785, Control_c, 0, 67, 71
1, 66799, Control_c, 0, 67, 67
1, 66806, Note_off_c, 0, 54, 60
1, 66813, Note_off_c, 0, 59, 50
1, 66815, Control_c, 0, 67, 62
1, 66830, Control_c, 0, 67, 56
1, 66841, Note_off_c, 0, 62, 61
1, 66845, Control_c, 0, 67, 49
1, 66860, Control_c, 0, 67, 44
1, 66868, Note_off_c, 0, 71, 62
1, 66874, Control_c, 0, 67, 38
1, 66889, Control_c, 0, 67, 34
1, 66904, Control_c, 0, 67, 30
1, 66919, Control_c, 0, 67, 26
1, 66920, Note_on_c, 0, 54, 79
1, 66929, Note_on_c, 0, 59, 63
1, 66933, Note_on_c, 0, 71, 69
1, 66934, Control_c, 0, 67, 24
1, 66944, Note_on_c, 0, 62, 63
1, 66944, Note_off_c, 0, 47, 63
1, 66948, Control_c, 0, 64, 122
1, 66948, Control_c, 0, 67, 22
1, 66959, Note_off_c, 0, 59, 63
1, 66963, Control_c, 0, 67, 20
1, 66969, Note_off_c, 0, 54, 63
1, 66978, Note_off_c, 0, 62, 64
1, 66978, Control_c, 0, 64, 119
1, 66978, Control_c, 0, 67, 19
1, 66993, Control_c, 0, 67, 18
1, 67008, Control_c, 0, 67, 18
1, 67052, Control_c, 0, 67, 17
1, 67096, Control_c, 0, 67, 17
1, 67111, Control_c, 0, 67, 16
1, 67120, Note_off_c, 0, 71, 38
1, 67126, Control_c, 0, 64, 117
1, 67126, Control_c, 0, 67, 14
1, 67140, Control_c, 0, 64, 107
1, 67140, Control_c, 0, 67, 9
1, 67155, Control_c, 0, 64, 89
1, 67155, Control_c, 0, 67, 0
1, 67164, Note_on_c, 0, 64, 94
1, 67167, Note_on_c, 0, 59, 80
1, 67170, Note_on_c, 0, 52, 92
1, 67170, Control_c, 0, 64, 76
1, 67176, Note_on_c, 0, 62, 78
1, 67181, Note_on_c, 0, 71, 66
1, 67185, Control_c, 0, 64, 68
1, 67200, Control_c, 0, 64, 65
1, 67215, Control_c, 0, 64, 64
1, 67227, Note_off_c, 0, 62, 45
1, 67230, Control_c, 0, 64, 65
1, 67245, Control_c, 0, 64, 73
1, 67259, Control_c, 0, 64, 114
1, 67275, Control_c, 0, 64, 127
1, 67380, Note_off_c, 0, 64, 62
1, 67399, Note_off_c, 0, 71, 61
1, 67420, Note_off_c, 0, 52, 63
1, 67447, Note_off_c, 0, 59, 50
1, 67489, Note_on_c, 0, 71, 76
1, 67498, Note_on_c, 0, 62, 61
1, 67549, Note_off_c, 0, 62, 57
1, 67557, Note_on_c, 0, 66, 88
1, 67559, Note_on_c, 0, 54, 80
1, 67563, Note_on_c, 0, 59, 69
1, 67605, Note_off_c, 0, 66, 63
1, 67607, Note_off_c, 0, 71, 62
1, 67623, Note_off_c, 0, 59, 61
1, 67667, Note_on_c, 0, 59, 72
1, 67678, Note_on_c, 0, 52, 89
1, 67682, Note_on_c, 0, 71, 81
1, 67686, Note_off_c, 0, 54, 0
1, 67686, Note_on_c, 0, 54, 18
1, 67688, Note_on_c, 0, 62, 73
1, 67715, Note_off_c, 0, 54, 56
1, 67725, Note_off_c, 0, 59, 63
1, 67756, Note_off_c, 0, 52, 68
1, 67762, Note_off_c, 0, 62, 53
1, 67771, Note_off_c, 0, 71, 64
1, 67915, Note_on_c, 0, 47, 68
1, 67915, Note_on_c, 0, 45, 61
1, 67942, Note_off_c, 0, 45, 65
1, 67950, Control_c, 0, 67, 9
1, 67964, Control_c, 0, 64, 122
1, 67964, Control_c, 0, 67, 10
1, 67979, Control_c, 0, 64, 91
1, 67979, Control_c, 0, 67, 13
1, 67994, Control_c, 0, 64, 67
1, 67994, Control_c, 0, 67, 15
1, 68008, Control_c, 0, 64, 51
1, 68008, Control_c, 0, 67, 16
1, 68023, Control_c, 0, 64, 0
1, 68023, Control_c, 0, 67, 17
1, 68047, Note_on_c, 0, 66, 89
1, 68056, Note_on_c, 0, 59, 73
1, 68057, Note_on_c, 0, 50, 66
1, 68059, Note_on_c, 0, 54, 84
1, 68061, Note_on_c, 0, 62, 50
1, 68105, Control_c, 0, 67, 17
1, 68120, Control_c, 0, 67, 16
1, 68135, Control_c, 0, 67, 15
1, 68164, Control_c, 0, 64, 29
1, 68179, Control_c, 0, 64, 48
1, 68179, Control_c, 0, 67, 15
1, 68194, Control_c, 0, 64, 66
1, 68194, Control_c, 0, 67, 14
1, 68209, Control_c, 0, 64, 122
1, 68209, Control_c, 0, 67, 13
1, 68223, Control_c, 0, 64, 127
1, 68223, Control_c, 0, 67, 12
1, 68238, Control_c, 0, 67, 12
1, 68253, Control_c, 0, 67, 11
1, 68268, Control_c, 0, 67, 11
1, 68307, Note_off_c, 0, 54, 61
1, 68311, Note_off_c, 0, 50, 64
1, 68312, Control_c, 0, 67, 10
1, 68325, Note_off_c, 0, 47, 37
1, 68372, Control_c, 0, 67, 10
1, 68386, Control_c, 0, 67, 8
1, 68401, Control_c, 0, 67, 0
1, 68494, Note_off_c, 0, 59, 61
1, 68728, Control_c, 0, 64, 82
1, 68743, Control_c, 0, 64, 65
1, 68750, Note_on_c, 0, 28, 83
1, 68750, Note_on_c, 0, 40, 92
1, 68758, Control_c, 0, 64, 56
1, 68773, Control_c, 0, 64, 50
1, 68802, Control_c, 0, 64, 59
1, 68817, Control_c, 0, 64, 100
1, 68837, Note_off_c, 0, 28, 63
1, 68839, Control_c, 0, 64, 127
1, 68848, Note_off_c, 0, 62, 50
1, 68851, Note_off_c, 0, 40, 65
1, 68932, Note_off_c, 0, 66, 44
1, 69212, Note_on_c, 0, 62, 59
1, 69226, Note_on_c, 0, 54, 63
1, 69239, Note_on_c, 0, 47, 52
1, 69241, Note_on_c, 0, 59, 30
1, 69332, Note_off_c, 0, 54, 55
1, 69341, Note_off_c, 0, 59, 0
1, 69352, Note_off_c, 0, 47, 57
1, 69379, Poly_aftertouch_c, 0, 59, 127
1, 69380, Note_off_c, 0, 62, 56
1, 69423, Poly_aftertouch_c, 0, 59, 0
1, 69483, Note_on_c, 0, 54, 62
1, 69484, Note_on_c, 0, 62, 69
1, 69489, Note_on_c, 0, 47, 58
1, 69517, Note_on_c, 0, 59, 35
1, 69588, Note_off_c, 0, 47, 58
1, 69592, Note_off_c, 0, 54, 59
1, 69608, Note_off_c, 0, 62, 62
1, 69633, Note_off_c, 0, 59, 41
1, 69683, Note_on_c, 0, 62, 73
1, 69694, Note_on_c, 0, 59, 63
1, 69695, Note_on_c, 0, 54, 76
1, 69702, Note_on_c, 0, 47, 72
1, 69777, Note_off_c, 0, 59, 56
1, 69781, Note_off_c, 0, 47, 59
1, 69798, Note_off_c, 0, 54, 58
1, 69802, Note_off_c, 0, 62, 59
1, 69861, Note_on_c, 0, 71, 86
1, 69871, Note_on_c, 0, 59, 72
1, 69874, Note_on_c, 0, 54, 70
1, 69874, Note_on_c, 0, 62, 62
1, 69875, Note_on_c, 0, 47, 76
1, 69927, Note_off_c, 0, 59, 60
1, 69941, Note_off_c, 0, 54, 60
1, 69957, Note_off_c, 0, 62, 61
1, 69984, Note_off_c, 0, 71, 62
1, 70008, Note_off_c, 0, 47, 0
1, 70008, Note_on_c, 0, 47, 27
1, 70039, Note_on_c, 0, 54, 84
1, 70041, Note_on_c, 0, 59, 74
1, 70041, Note_on_c, 0, 71, 81
1, 70054, Note_on_c, 0, 62, 79
1, 70074, Note_off_c, 0, 47, 62
1, 70077, Note_off_c, 0, 62, 69
1, 70080, Note_off_c, 0, 54, 64
1, 70133, Note_off_c, 0, 59, 39
1, 70214, Note_on_c, 0, 52, 75
1, 70264, Note_on_c, 0, 59, 63
1, 70279, Note_off_c, 0, 71, 48
1, 70300, Control_c, 0, 64, 91
1, 70315, Control_c, 0, 64, 71
1, 70337, Control_c, 0, 64, 66
1, 70350, Note_on_c, 0, 64, 104
1, 70352, Control_c, 0, 64, 69
1, 70354, Note_on_c, 0, 62, 93
1, 70366, Control_c, 0, 64, 127
1, 70373, Note_on_c, 0, 71, 73
1, 70401, Note_off_c, 0, 62, 41
1, 70514, Note_off_c, 0, 71, 61
1, 70518, Note_off_c, 0, 64, 64
1, 70544, Note_off_c, 0, 52, 65
1, 70624, Note_on_c, 0, 71, 63
1, 70631, Note_on_c, 0, 62, 55
1, 70637, Note_off_c, 0, 59, 25
1, 70691, Note_off_c, 0, 62, 51
1, 70718, Note_on_c, 0, 59, 70
1, 70722, Note_on_c, 0, 66, 92
1, 70724, Note_on_c, 0, 54, 83
1, 70730, Note_off_c, 0, 71, 62
1, 70752, Note_on_c, 0, 56, 49
1, 70763, Note_off_c, 0, 66, 65
1, 70777, Note_off_c, 0, 56, 61
1, 70798, Note_off_c, 0, 59, 0
1, 70816, Note_on_c, 0, 59, 61
1, 70823, Note_on_c, 0, 64, 98
1, 70827, Note_on_c, 0, 52, 92
1, 70829, Note_on_c, 0, 71, 84
1, 70834, Note_on_c, 0, 62, 85
1, 70841, Note_off_c, 0, 54, 58
1, 70859, Note_off_c, 0, 64, 68
1, 70863, Note_off_c, 0, 62, 66
1, 70881, Note_off_c, 0, 59, 62
1, 70901, Note_off_c, 0, 71, 63
1, 70902, Note_off_c, 0, 52, 67
1, 71114, Poly_aftertouch_c, 0, 63, 0
1, 71143, Note_on_c, 0, 38, 100
1, 71144, Note_on_c, 0, 26, 95
1, 71160, Control_c, 0, 64, 62
1, 71175, Control_c, 0, 64, 29
1, 71189, Control_c, 0, 64, 0
1, 71220, Note_on_c, 0, 66, 103
1, 71221, Note_on_c, 0, 54, 101
1, 71227, Note_on_c, 0, 62, 66
1, 71230, Note_on_c, 0, 59, 70
1, 71248, Control_c, 0, 64, 28
1, 71263, Control_c, 0, 64, 68
1, 71278, Control_c, 0, 64, 127
1, 71278, Control_c, 0, 67, 8
1, 71283, Note_off_c, 0, 26, 61
1, 71284, Note_off_c, 0, 38, 62
1, 71291, Note_off_c, 0, 54, 65
1, 71308, Control_c, 0, 67, 0
1, 71308, Poly_aftertouch_c, 0, 63, 127
1, 71318, Note_off_c, 0, 62, 56
1, 71323, Note_off_c, 0, 59, 58
1, 71352, Poly_aftertouch_c, 0, 63, 0
1, 71383, Note_off_c, 0, 66, 56
1, 71471, Control_c, 0, 67, 8
1, 71486, Control_c, 0, 67, 8
1, 71501, Control_c, 0, 67, 8
1, 71530, Control_c, 0, 67, 0
1, 71635, Control_c, 0, 67, 8
1, 71679, Control_c, 0, 67, 8
1, 71709, Control_c, 0, 67, 9
1, 71724, Control_c, 0, 67, 10
1, 71738, Control_c, 0, 67, 10
1, 71753, Control_c, 0, 67, 11
1, 71768, Control_c, 0, 67, 12
1, 71783, Control_c, 0, 67, 15
1, 71791, Note_on_c, 0, 66, 73
1, 71798, Control_c, 0, 67, 17
1, 71812, Control_c, 0, 67, 20
1, 71813, Note_on_c, 0, 62, 54
1, 71819, Note_on_c, 0, 47, 57
1, 71823, Note_on_c, 0, 54, 55
1, 71834, Note_on_c, 0, 59, 43
1, 71835, Control_c, 0, 67, 22
1, 71836, Note_on_c, 0, 42, 56
1, 71850, Control_c, 0, 67, 22
1, 71864, Control_c, 0, 67, 23
1, 71873, Note_off_c, 0, 59, 46
1, 71879, Control_c, 0, 67, 23
1, 71953, Control_c, 0, 67, 23
1, 71972, Note_off_c, 0, 42, 54
1, 71981, Note_off_c, 0, 66, 57
1, 71982, Control_c, 0, 67, 22
1, 71997, Note_off_c, 0, 54, 34
1, 72002, Note_off_c, 0, 62, 49
1, 72027, Control_c, 0, 67, 22
1, 72062, Note_off_c, 0, 47, 0
1, 72092, Note_on_c, 0, 47, 28
1, 72095, Note_on_c, 0, 66, 76
1, 72104, Note_on_c, 0, 62, 51
1, 72107, Note_on_c, 0, 54, 67
1, 72108, Note_on_c, 0, 42, 60
1, 72116, Note_on_c, 0, 59, 61
1, 72205, Control_c, 0, 67, 21
1, 72207, Note_off_c, 0, 54, 58
1, 72228, Note_off_c, 0, 59, 59
1, 72235, Note_off_c, 0, 62, 61
1, 72250, Control_c, 0, 67, 21
1, 72251, Note_off_c, 0, 66, 59
1, 72276, Note_off_c, 0, 42, 36
1, 72278, Note_off_c, 0, 47, 41
1, 72279, Control_c, 0, 67, 20
1, 72309, Control_c, 0, 67, 20
1, 72330, Note_on_c, 0, 71, 73
1, 72331, Note_on_c, 0, 54, 68
1, 72333, Note_on_c, 0, 59, 66
1, 72333, Note_on_c, 0, 66, 56
1, 72336, Note_on_c, 0, 50, 65
1, 72338, Control_c, 0, 67, 19
1, 72396, Note_off_c, 0, 54, 56
1, 72397, Control_c, 0, 67, 19
1, 72417, Note_off_c, 0, 59, 59
1, 72422, Note_off_c, 0, 50, 60
1, 72428, Control_c, 0, 67, 17
1, 72435, Note_off_c, 0, 66, 60
1, 72437, Note_off_c, 0, 71, 62
1, 72443, Control_c, 0, 67, 15
1, 72458, Control_c, 0, 67, 9
1, 72473, Control_c, 0, 67, 0
1, 72519, Note_on_c, 0, 71, 81
1, 72520, Note_on_c, 0, 54, 68
1, 72527, Note_on_c, 0, 59, 71
1, 72533, Note_on_c, 0, 50, 64
1, 72537, Note_on_c, 0, 66, 63
1, 72581, Note_off_c, 0, 59, 60
1, 72582, Note_off_c, 0, 54, 61
1, 72600, Note_off_c, 0, 50, 57
1, 72601, Note_off_c, 0, 66, 58
1, 72611, Note_off_c, 0, 71, 61
1, 72680, Note_on_c, 0, 71, 83
1, 72682, Note_on_c, 0, 50, 57
1, 72687, Note_on_c, 0, 59, 74
1, 72691, Note_on_c, 0, 54, 77
1, 72694, Note_on_c, 0, 66, 78
1, 72709, Note_off_c, 0, 59, 63
1, 72715, Note_off_c, 0, 50, 66
1, 72733, Note_off_c, 0, 66, 60
1, 72735, Note_off_c, 0, 54, 64
1, 72735, Note_off_c, 0, 71, 64
1, 72849, Note_on_c, 0, 78, 84
1, 72849, Note_on_c, 0, 66, 89
1, 72862, Note_on_c, 0, 71, 57
1, 72871, Note_on_c, 0, 62, 59
1, 72879, Note_on_c, 0, 59, 56
1, 72879, Note_off_c, 0, 66, 56
1, 72890, Note_on_c, 0, 75, 18
1, 72892, Note_on_c, 0, 54, 39
1, 72901, Note_off_c, 0, 71, 58
1, 72911, Note_off_c, 0, 78, 64
1, 72920, Note_off_c, 0, 54, 55
1, 72926, Note_off_c, 0, 62, 61
1, 72932, Note_off_c, 0, 59, 54
1, 72935, Note_off_c, 0, 75, 37
1, 73001, Note_on_c, 0, 78, 97
1, 73004, Note_on_c, 0, 71, 78
1, 73007, Note_on_c, 0, 59, 68
1, 73007, Note_on_c, 0, 66, 83
1, 73009, Note_on_c, 0, 54, 68
1, 73013, Note_on_c, 0, 62, 72
1, 73043, Note_off_c, 0, 66, 58
1, 73055, Note_on_c, 0, 75, 17
1, 73071, Note_off_c, 0, 62, 62
1, 73072, Note_off_c, 0, 71, 61
1, 73076, Note_off_c, 0, 59, 61
1, 73076, Note_off_c, 0, 78, 64
1, 73087, Note_off_c, 0, 54, 62
1, 73089, Note_off_c, 0, 75, 0
1, 73110, Poly_aftertouch_c, 0, 75, 0
1, 73141, Note_on_c, 0, 78, 96
1, 73143, Note_on_c, 0, 54, 71
1, 73146, Note_on_c, 0, 62, 83
1, 73147, Note_on_c, 0, 66, 87
1, 73149, Note_on_c, 0, 59, 74
1, 73158, Note_on_c, 0, 71, 68
1, 73171, Note_on_c, 0, 75, 35
1, 73178, Note_off_c, 0, 66, 60
1, 73180, Note_on_c, 0, 72, 43
1, 73187, Note_off_c, 0, 71, 68
1, 73208, Note_off_c, 0, 75, 44
1, 73210, Note_off_c, 0, 72, 58
1, 73212, Note_off_c, 0, 78, 65
1, 73237, Note_off_c, 0, 62, 55
1, 73238, Note_off_c, 0, 54, 63
1, 73248, Note_off_c, 0, 59, 57
1, 73303, Note_on_c, 0, 71, 91
1, 73303, Note_on_c, 0, 83, 97
1, 73305, Note_on_c, 0, 78, 87
1, 73308, Note_on_c, 0, 62, 88
1, 73310, Note_on_c, 0, 66, 88
1, 73311, Note_on_c, 0, 59, 67
1, 73353, Note_off_c, 0, 66, 56
1, 73353, Note_off_c, 0, 71, 64
1, 73365, Note_off_c, 0, 78, 63
1, 73365, Note_on_c, 0, 80, 5
1, 73371, Note_off_c, 0, 83, 64
1, 73382, Note_off_c, 0, 62, 62
1, 73394, Note_off_c, 0, 59, 60
1, 73419, Note_off_c, 0, 80, 51
1, 73445, Note_on_c, 0, 66, 91
1, 73447, Note_on_c, 0, 62, 74
1, 73458, Note_on_c, 0, 83, 100
1, 73459, Note_on_c, 0, 59, 65
1, 73459, Note_on_c, 0, 71, 96
1, 73463, Note_on_c, 0, 78, 87
1, 73470, Note_off_c, 0, 66, 62
1, 73494, Note_off_c, 0, 62, 63
1, 73504, Note_off_c, 0, 59, 63
1, 73591, Note_off_c, 0, 71, 55
1, 73688, Control_c, 0, 64, 62
1, 73702, Note_off_c, 0, 83, 60
1, 73702, Control_c, 0, 64, 41
1, 73717, Control_c, 0, 64, 19
1, 73718, Note_on_c, 0, 25, 88
1, 73720, Note_on_c, 0, 37, 102
1, 73732, Control_c, 0, 64, 20
1, 73737, Note_off_c, 0, 78, 64
1, 73747, Control_c, 0, 64, 36
1, 73761, Control_c, 0, 64, 63
1, 73772, Note_off_c, 0, 37, 64
1, 73776, Control_c, 0, 64, 127
1, 73779, Note_off_c, 0, 25, 63
1, 74039, Note_on_c, 0, 66, 70
1, 74047, Note_on_c, 0, 49, 66
1, 74048, Note_on_c, 0, 54, 63
1, 74058, Note_on_c, 0, 59, 53
1, 74066, Note_on_c, 0, 42, 59
1, 74095, Note_off_c, 0, 59, 55
1, 74095, Note_off_c, 0, 54, 62
1, 74139, Note_off_c, 0, 49, 57
1, 74143, Note_off_c, 0, 66, 56
1, 74156, Note_off_c, 0, 42, 58
1, 74161, Poly_aftertouch_c, 0, 64, 127
1, 74197, Poly_aftertouch_c, 0, 64, 0
1, 74243, Note_on_c, 0, 66, 75
1, 74249, Note_on_c, 0, 64, 43
1, 74253, Note_on_c, 0, 59, 65
1, 74256, Note_on_c, 0, 54, 65
1, 74260, Note_on_c, 0, 49, 67
1, 74271, Note_on_c, 0, 42, 58
1, 74307, Note_off_c, 0, 54, 60
1, 74309, Note_off_c, 0, 59, 60
1, 74314, Note_off_c, 0, 42, 53
1, 74330, Note_off_c, 0, 49, 62
1, 74330, Note_off_c, 0, 66, 61
1, 74343, Note_off_c, 0, 64, 61
1, 74388, Note_on_c, 0, 66, 73
1, 74401, Note_on_c, 0, 64, 46
1, 74405, Note_on_c, 0, 54, 80
1, 74411, Note_on_c, 0, 59, 70
1, 74416, Note_on_c, 0, 49, 66
1, 74421, Note_on_c, 0, 42, 69
1, 74447, Note_off_c, 0, 59, 58
1, 74465, Note_off_c, 0, 54, 62
1, 74478, Note_off_c, 0, 49, 62
1, 74479, Note_off_c, 0, 64, 61
1, 74482, Note_off_c, 0, 66, 63
1, 74545, Note_on_c, 0, 71, 86
1, 74548, Note_on_c, 0, 59, 80
1, 74554, Note_on_c, 0, 64, 61
1, 74555, Note_on_c, 0, 66, 63
1, 74557, Note_on_c, 0, 49, 75
1, 74560, Note_on_c, 0, 54, 76
1, 74588, Note_off_c, 0, 54, 65
1, 74588, Note_off_c, 0, 59, 60
1, 74607, Note_off_c, 0, 66, 54
1, 74619, Note_off_c, 0, 64, 62
1, 74619, Note_off_c, 0, 71, 62
1, 74620, Note_off_c, 0, 49, 65
1, 74653, Note_off_c, 0, 42, 38
1, 74661, Poly_aftertouch_c, 0, 49, 0
1, 74670, Note_on_c, 0, 49, 63
1, 74674, Note_on_c, 0, 71, 86
1, 74679, Note_on_c, 0, 59, 88
1, 74681, Note_on_c, 0, 54, 81
1, 74684, Note_on_c, 0, 64, 58
1, 74692, Note_on_c, 0, 66, 66
1, 74709, Note_off_c, 0, 54, 59
1, 74709, Note_off_c, 0, 59, 60
1, 74713, Note_off_c, 0, 49, 64
1, 74717, Note_off_c, 0, 64, 64
1, 74720, Note_off_c, 0, 66, 66
1, 74736, Note_off_c, 0, 71, 66
1, 74888, Control_c, 0, 64, 70
1, 74896, Note_on_c, 0, 59, 106
1, 74903, Control_c, 0, 64, 57
1, 74904, Note_on_c, 0, 47, 92
1, 74908, Note_on_c, 0, 54, 88
1, 74918, Control_c, 0, 64, 46
1, 74933, Note_on_c, 0, 64, 64
1, 74933, Control_c, 0, 64, 45
1, 74940, Note_on_c, 0, 71, 60
1, 74947, Control_c, 0, 64, 57
1, 74950, Note_off_c, 0, 54, 57
1, 74951, Note_off_c, 0, 64, 64
1, 74962, Control_c, 0, 64, 114
1, 74966, Note_off_c, 0, 47, 65
1, 74969, Note_off_c, 0, 71, 68
1, 74977, Control_c, 0, 64, 127
1, 74978, Note_off_c, 0, 59, 63
1, 75126, Note_on_c, 0, 78, 85
1, 75135, Note_on_c, 0, 66, 73
1, 75135, Note_on_c, 0, 64, 81
1, 75144, Note_on_c, 0, 59, 65
1, 75153, Note_on_c, 0, 54, 68
1, 75160, Note_on_c, 0, 71, 45
1, 75177, Note_off_c, 0, 66, 60
1, 75179, Note_on_c, 0, 76, 16
1, 75188, Note_off_c, 0, 64, 61
1, 75195, Note_off_c, 0, 59, 59
1, 75196, Note_off_c, 0, 71, 51
1, 75204, Note_off_c, 0, 54, 59
1, 75216, Note_off_c, 0, 78, 63
1, 75225, Note_off_c, 0, 76, 52
1, 75300, Note_on_c, 0, 64, 79
1, 75300, Note_on_c, 0, 78, 88
1, 75304, Note_on_c, 0, 66, 92
1, 75307, Note_on_c, 0, 54, 71
1, 75313, Note_on_c, 0, 71, 61
1, 75314, Note_on_c, 0, 59, 63
1, 75320, Note_on_c, 0, 76, 57
1, 75349, Note_off_c, 0, 64, 60
1, 75359, Note_off_c, 0, 66, 61
1, 75368, Note_off_c, 0, 59, 61
1, 75369, Note_off_c, 0, 76, 43
1, 75371, Note_off_c, 0, 54, 58
1, 75388, Note_off_c, 0, 71, 60
1, 75389, Note_off_c, 0, 78, 62
1, 75454, Note_on_c, 0, 64, 78
1, 75454, Note_on_c, 0, 66, 98
1, 75454, Note_on_c, 0, 78, 94
1, 75454, Note_on_c, 0, 54, 71
1, 75457, Note_on_c, 0, 59, 72
1, 75466, Note_on_c, 0, 71, 60
1, 75480, Note_off_c, 0, 59, 66
1, 75483, Note_off_c, 0, 54, 64
1, 75484, Note_off_c, 0, 71, 69
1, 75490, Note_off_c, 0, 66, 62
1, 75492, Note_off_c, 0, 64, 59
1, 75508, Note_off_c, 0, 78, 66
1, 75642, Note_on_c, 0, 76, 45
1, 75647, Note_on_c, 0, 64, 58
1, 75648, Note_on_c, 0, 71, 97
1, 75649, Note_on_c, 0, 78, 71
1, 75651, Note_on_c, 0, 83, 89
1, 75658, Note_on_c, 0, 66, 84
1, 75666, Note_on_c, 0, 59, 63
1, 75692, Note_on_c, 0, 61, 40
1, 75710, Note_off_c, 0, 66, 62
1, 75722, Note_on_c, 0, 54, 15
1, 75723, Note_off_c, 0, 71, 61
1, 75734, Note_off_c, 0, 78, 59
1, 75769, Note_off_c, 0, 54, 52
1, 75778, Note_off_c, 0, 83, 60
1, 75821, Note_off_c, 0, 59, 0
1, 75824, Note_off_c, 0, 64, 0
1, 75831, Note_off_c, 0, 76, 45
1, 75834, Note_on_c, 0, 59, 57
1, 75834, Note_on_c, 0, 64, 67
1, 75839, Note_off_c, 0, 61, 0
1, 75840, Note_on_c, 0, 66, 95
1, 75851, Note_on_c, 0, 71, 95
1, 75853, Note_on_c, 0, 83, 97
1, 75854, Note_on_c, 0, 76, 64
1, 75856, Note_on_c, 0, 61, 44
1, 75860, Note_on_c, 0, 54, 74
1, 75862, Note_on_c, 0, 78, 77
1, 75867, Note_off_c, 0, 66, 67
1, 75883, Note_off_c, 0, 64, 64
1, 75885, Note_off_c, 0, 61, 64
1, 75886, Note_off_c, 0, 76, 67
1, 75886, Note_off_c, 0, 78, 66
1, 75891, Note_off_c, 0, 71, 68
1, 75892, Note_off_c, 0, 83, 70
1, 75897, Note_off_c, 0, 59, 64
1, 75904, Note_off_c, 0, 54, 67
1, 76256, Poly_aftertouch_c, 0, 61, 127
1, 76257, Note_on_c, 0, 35, 102
1, 76260, Note_on_c, 0, 23, 100
1, 76287, Poly_aftertouch_c, 0, 61, 0
1, 76289, Control_c, 0, 64, 101
1, 76303, Control_c, 0, 64, 59
1, 76325, Control_c, 0, 64, 25
1, 76340, Control_c, 0, 64, 0
1, 76346, Note_on_c, 0, 49, 100
1, 76346, Note_on_c, 0, 61, 100
1, 76357, Note_on_c, 0, 54, 72
1, 76366, Note_on_c, 0, 59, 60
1, 76384, Control_c, 0, 64, 44
1, 76394, Note_off_c, 0, 54, 55
1, 76400, Control_c, 0, 64, 81
1, 76415, Control_c, 0, 64, 127
1, 76417, Note_off_c, 0, 23, 64
1, 76435, Note_off_c, 0, 35, 61
1, 76456, Note_off_c, 0, 49, 65
1, 76492, Note_off_c, 0, 59, 37
1, 76527, Note_off_c, 0, 61, 62
1, 76642, Poly_aftertouch_c, 0, 58, 127
1, 76644, Note_on_c, 0, 58, 9
1, 76678, Note_off_c, 0, 58, 46
1, 76755, Note_on_c, 0, 66, 69
1, 76769, Note_on_c, 0, 54, 52
1, 76772, Note_on_c, 0, 61, 52
1, 76822, Note_on_c, 0, 49, 58
1, 76828, Note_on_c, 0, 44, 31
1, 76886, Note_off_c, 0, 49, 61
1, 76894, Note_off_c, 0, 44, 39
1, 76905, Note_off_c, 0, 54, 60
1, 76920, Note_off_c, 0, 66, 57
1, 76921, Note_off_c, 0, 61, 57
1, 76936, Poly_aftertouch_c, 0, 59, 0
1, 77018, Note_on_c, 0, 66, 74
1, 77024, Note_on_c, 0, 49, 53
1, 77026, Note_on_c, 0, 54, 65
1, 77035, Note_on_c, 0, 47, 57
1, 77040, Note_on_c, 0, 59, 57
1, 77044, Note_on_c, 0, 42, 48
1, 77051, Note_on_c, 0, 61, 58
1, 77118, Note_off_c, 0, 54, 58
1, 77131, Note_off_c, 0, 49, 38
1, 77135, Note_off_c, 0, 66, 60
1, 77137, Note_off_c, 0, 42, 53
1, 77150, Note_off_c, 0, 59, 58
1, 77153, Note_off_c, 0, 61, 58
1, 77161, Note_off_c, 0, 47, 35
1, 77231, Note_on_c, 0, 66, 70
1, 77237, Note_on_c, 0, 47, 57
1, 77237, Note_on_c, 0, 54, 69
1, 77238, Note_on_c, 0, 61, 48
1, 77242, Note_on_c, 0, 49, 65
1, 77253, Note_on_c, 0, 59, 46
1, 77263, Note_on_c, 0, 42, 53
1, 77287, Note_off_c, 0, 49, 59
1, 77296, Note_off_c, 0, 54, 62
1, 77311, Note_off_c, 0, 42, 57
1, 77314, Note_off_c, 0, 66, 59
1, 77315, Note_off_c, 0, 47, 56
1, 77320, Note_off_c, 0, 59, 58
1, 77325, Note_off_c, 0, 61, 61
1, 77392, Note_on_c, 0, 59, 45
1, 77392, Note_on_c, 0, 66, 77
1, 77395, Note_on_c, 0, 61, 47
1, 77398, Note_on_c, 0, 54, 69
1, 77401, Note_on_c, 0, 49, 71
1, 77409, Note_on_c, 0, 47, 64
1, 77425, Note_on_c, 0, 42, 56
1, 77442, Note_off_c, 0, 54, 64
1, 77455, Note_off_c, 0, 49, 59
1, 77460, Note_off_c, 0, 66, 60
1, 77464, Note_off_c, 0, 61, 55
1, 77466, Note_off_c, 0, 59, 58
1, 77467, Note_off_c, 0, 47, 59
1, 77470, Note_off_c, 0, 42, 59
1, 77523, Note_on_c, 0, 66, 75
1, 77527, Note_on_c, 0, 54, 82
1, 77527, Note_on_c, 0, 59, 54
1, 77538, Note_on_c, 0, 47, 60
1, 77543, Note_on_c, 0, 49, 74
1, 77549, Note_on_c, 0, 42, 68
1, 77579, Note_off_c, 0, 54, 63
1, 77594, Note_off_c, 0, 59, 62
1, 77595, Note_off_c, 0, 49, 59
1, 77596, Note_off_c, 0, 66, 62
1, 77617, Note_off_c, 0, 47, 62
1, 77633, Note_off_c, 0, 42, 57
1, 77661, Note_on_c, 0, 61, 93
1, 77679, Note_on_c, 0, 49, 95
1, 77762, Note_off_c, 0, 49, 61
1, 77838, Note_on_c, 0, 66, 76
1, 77847, Note_on_c, 0, 59, 49
1, 77848, Note_on_c, 0, 54, 66
1, 77860, Note_on_c, 0, 47, 63
1, 77867, Note_on_c, 0, 49, 56
1, 77869, Note_on_c, 0, 42, 52
1, 77876, Note_off_c, 0, 54, 66
1, 77881, Note_off_c, 0, 61, 62
1, 77883, Note_off_c, 0, 59, 62
1, 77891, Note_off_c, 0, 49, 62
1, 77893, Note_off_c, 0, 66, 60
1, 77902, Note_off_c, 0, 47, 60
1, 77905, Note_off_c, 0, 42, 61
1, 77967, Note_on_c, 0, 54, 80
1, 77967, Note_on_c, 0, 66, 81
1, 77971, Note_on_c, 0, 49, 73
1, 77981, Note_on_c, 0, 61, 70
1, 77983, Note_on_c, 0, 59, 51
1, 77988, Note_on_c, 0, 47, 60
1, 77989, Note_on_c, 0, 42, 59
1, 78008, Note_off_c, 0, 54, 66
1, 78015, Note_off_c, 0, 59, 64
1, 78018, Note_off_c, 0, 49, 57
1, 78018, Note_off_c, 0, 61, 64
1, 78024, Note_off_c, 0, 66, 59
1, 78032, Note_off_c, 0, 47, 62
1, 78044, Note_off_c, 0, 42, 55
1, 78092, Note_on_c, 0, 66, 84
1, 78094, Note_on_c, 0, 61, 81
1, 78095, Note_on_c, 0, 54, 87
1, 78104, Note_on_c, 0, 49, 74
1, 78108, Note_on_c, 0, 42, 56
1, 78112, Note_on_c, 0, 47, 56
1, 78136, Note_off_c, 0, 49, 62
1, 78137, Note_off_c, 0, 54, 62
1, 78149, Note_off_c, 0, 61, 65
1, 78149, Note_off_c, 0, 66, 60
1, 78161, Note_off_c, 0, 47, 60
1, 78165, Note_off_c, 0, 42, 58
1, 78214, Note_on_c, 0, 61, 71
1, 78215, Note_on_c, 0, 66, 82
1, 78218, Note_on_c, 0, 42, 60
1, 78218, Note_on_c, 0, 54, 90
1, 78224, Note_on_c, 0, 49, 81
1, 78267, Note_off_c, 0, 54, 64
1, 78276, Note_off_c, 0, 61, 65
1, 78279, Note_off_c, 0, 66, 62
1, 78288, Note_off_c, 0, 49, 58
1, 78316, Note_off_c, 0, 42, 53
1, 78349, Note_on_c, 0, 59, 99
1, 78356, Note_on_c, 0, 47, 88
1, 78391, Note_off_c, 0, 47, 68
1, 78416, Note_off_c, 0, 59, 63
1, 78599, Note_on_c, 0, 35, 92
1, 78602, Note_on_c, 0, 23, 94
1, 78617, Control_c, 0, 64, 108
1, 78617, Control_c, 0, 67, 8
1, 78632, Control_c, 0, 64, 61
1, 78632, Control_c, 0, 67, 8
1, 78647, Control_c, 0, 64, 36
1, 78647, Control_c, 0, 67, 9
1, 78662, Control_c, 0, 64, 0
1, 78662, Control_c, 0, 67, 10
1, 78676, Note_on_c, 0, 49, 106
1, 78677, Control_c, 0, 67, 11
1, 78677, Note_on_c, 0, 61, 94
1, 78683, Note_on_c, 0, 59, 53
1, 78690, Note_on_c, 0, 54, 71
1, 78691, Control_c, 0, 67, 12
1, 78706, Control_c, 0, 64, 29
1, 78706, Control_c, 0, 67, 13
1, 78712, Note_off_c, 0, 54, 71
1, 78721, Control_c, 0, 64, 53
1, 78735, Note_off_c, 0, 23, 64
1, 78736, Control_c, 0, 64, 101
1, 78738, Note_off_c, 0, 49, 65
1, 78750, Control_c, 0, 64, 127
1, 78754, Note_off_c, 0, 59, 59
1, 78758, Note_off_c, 0, 35, 60
1, 78765, Control_c, 0, 67, 13
1, 78790, Note_off_c, 0, 61, 62
1, 78811, Control_c, 0, 67, 13
1, 78826, Control_c, 0, 67, 12
1, 78840, Control_c, 0, 67, 11
1, 78885, Control_c, 0, 67, 12
1, 78900, Control_c, 0, 67, 13
1, 78915, Control_c, 0, 67, 14
1, 78929, Control_c, 0, 67, 15
1, 78959, Control_c, 0, 67, 15
1, 78973, Note_on_c, 0, 59, 52
1, 78987, Note_on_c, 0, 54, 53
1, 78987, Note_on_c, 0, 65, 55
1, 78988, Control_c, 0, 67, 16
1, 79001, Note_on_c, 0, 61, 31
1, 79013, Note_off_c, 0, 65, 60
1, 79013, Note_off_c, 0, 54, 59
1, 79023, Note_on_c, 0, 49, 31
1, 79025, Note_on_c, 0, 42, 48
1, 79029, Note_off_c, 0, 61, 59
1, 79041, Note_off_c, 0, 59, 59
1, 79051, Note_off_c, 0, 49, 60
1, 79060, Note_off_c, 0, 42, 63
1, 79077, Control_c, 0, 67, 16
1, 79078, Poly_aftertouch_c, 0, 48, 0
1, 79155, Note_on_c, 0, 49, 43
1, 79160, Note_on_c, 0, 66, 70
1, 79165, Note_on_c, 0, 61, 43
1, 79165, Note_on_c, 0, 47, 44
1, 79172, Note_on_c, 0, 59, 49
1, 79174, Note_on_c, 0, 54, 60
1, 79194, Note_on_c, 0, 63, 35
1, 79195, Control_c, 0, 67, 16
1, 79196, Note_on_c, 0, 42, 43
1, 79211, Note_off_c, 0, 54, 64
1, 79219, Note_off_c, 0, 49, 58
1, 79222, Note_off_c, 0, 59, 58
1, 79225, Control_c, 0, 67, 15
1, 79234, Note_off_c, 0, 63, 52
1, 79237, Note_off_c, 0, 61, 61
1, 79237, Note_off_c, 0, 66, 61
1, 79243, Note_off_c, 0, 47, 61
1, 79244, Note_off_c, 0, 42, 56
1, 79255, Control_c, 0, 67, 15
1, 79270, Control_c, 0, 67, 14
1, 79285, Control_c, 0, 67, 14
1, 79299, Control_c, 0, 67, 13
1, 79321, Control_c, 0, 67, 12
1, 79336, Control_c, 0, 67, 12
1, 79344, Note_on_c, 0, 66, 69
1, 79351, Note_on_c, 0, 49, 54
1, 79351, Control_c, 0, 67, 11
1, 79357, Note_on_c, 0, 54, 58
1, 79360, Note_on_c, 0, 42, 49
1, 79362, Note_on_c, 0, 59, 31
1, 79366, Control_c, 0, 67, 10
1, 79378, Note_on_c, 0, 61, 38
1, 79380, Note_on_c, 0, 47, 39
1, 79380, Control_c, 0, 67, 10
1, 79392, Note_off_c, 0, 54, 64
1, 79394, Note_off_c, 0, 49, 61
1, 79407, Note_off_c, 0, 59, 49
1, 79410, Control_c, 0, 67, 9
1, 79411, Note_off_c, 0, 61, 57
1, 79412, Note_off_c, 0, 66, 58
1, 79422, Note_off_c, 0, 47, 53
1, 79424, Note_off_c, 0, 42, 55
1, 79440, Control_c, 0, 67, 8
1, 79484, Control_c, 0, 67, 9
1, 79499, Note_on_c, 0, 59, 50
1, 79499, Control_c, 0, 67, 10
1, 79499, Note_on_c, 0, 66, 70
1, 79501, Note_on_c, 0, 61, 51
1, 79506, Note_on_c, 0, 54, 57
1, 79507, Note_on_c, 0, 49, 51
1, 79520, Note_on_c, 0, 47, 59
1, 79529, Control_c, 0, 67, 10
1, 79535, Note_off_c, 0, 54, 65
1, 79538, Note_off_c, 0, 59, 60
1, 79540, Note_on_c, 0, 42, 33
1, 79544, Note_off_c, 0, 61, 62
1, 79546, Note_off_c, 0, 49, 64
1, 79550, Note_off_c, 0, 66, 53
1, 79555, Note_off_c, 0, 47, 63
1, 79559, Control_c, 0, 67, 11
1, 79567, Note_off_c, 0, 42, 56
1, 79573, Control_c, 0, 67, 11
1, 79631, Note_on_c, 0, 66, 72
1, 79633, Control_c, 0, 67, 10
1, 79634, Note_on_c, 0, 54, 63
1, 79638, Note_on_c, 0, 49, 61
1, 79641, Note_on_c, 0, 47, 55
1, 79645, Note_on_c, 0, 42, 65
1, 79645, Note_on_c, 0, 59, 57
1, 79648, Control_c, 0, 67, 9
1, 79654, Note_on_c, 0, 61, 38
1, 79663, Control_c, 0, 67, 8
1, 79669, Note_off_c, 0, 54, 65
1, 79672, Note_off_c, 0, 49, 65
1, 79677, Note_off_c, 0, 59, 62
1, 79678, Control_c, 0, 67, 0
1, 79685, Note_off_c, 0, 61, 55
1, 79690, Note_off_c, 0, 66, 61
1, 79692, Note_off_c, 0, 47, 58
1, 79701, Note_off_c, 0, 42, 56
1, 79750, Note_on_c, 0, 66, 69
1, 79756, Note_on_c, 0, 59, 66
1, 79759, Note_on_c, 0, 54, 73
1, 79771, Note_on_c, 0, 49, 64
1, 79780, Note_on_c, 0, 47, 62
1, 79782, Note_on_c, 0, 42, 42
1, 79786, Note_on_c, 0, 61, 23
1, 79789, Note_off_c, 0, 54, 66
1, 79806, Note_off_c, 0, 49, 63
1, 79807, Note_off_c, 0, 66, 61
1, 79812, Note_off_c, 0, 59, 60
1, 79816, Note_off_c, 0, 47, 62
1, 79826, Note_off_c, 0, 42, 59
1, 79831, Note_off_c, 0, 61, 55
1, 79875, Note_on_c, 0, 66, 75
1, 79881, Note_on_c, 0, 59, 57
1, 79881, Note_on_c, 0, 54, 72
1, 79890, Note_on_c, 0, 49, 73
1, 79913, Note_off_c, 0, 54, 62
1, 79914, Note_on_c, 0, 42, 54
1, 79921, Note_off_c, 0, 49, 67
1, 79936, Note_off_c, 0, 66, 60
1, 79936, Note_off_c, 0, 59, 60
1, 79943, Note_on_c, 0, 47, 19
1, 79948, Note_off_c, 0, 42, 62
1, 80003, Note_on_c, 0, 66, 68
1, 80003, Note_on_c, 0, 59, 63
1, 80007, Note_on_c, 0, 54, 82
1, 80007, Note_off_c, 0, 47, 0
1, 80020, Note_on_c, 0, 49, 67
1, 80021, Note_on_c, 0, 47, 58
1, 80030, Note_on_c, 0, 42, 53
1, 80047, Note_off_c, 0, 49, 65
1, 80051, Note_off_c, 0, 54, 62
1, 80070, Note_off_c, 0, 66, 62
1, 80074, Note_off_c, 0, 59, 61
1, 80080, Note_off_c, 0, 47, 61
1, 80090, Note_off_c, 0, 42, 58
1, 80140, Note_on_c, 0, 61, 103
1, 80155, Note_on_c, 0, 49, 88
1, 80233, Note_off_c, 0, 49, 61
1, 80242, Poly_aftertouch_c, 0, 54, 127
1, 80268, Poly_aftertouch_c, 0, 54, 0
1, 80293, Note_on_c, 0, 66, 78
1, 80307, Note_on_c, 0, 54, 55
1, 80316, Note_on_c, 0, 49, 60
1, 80319, Note_on_c, 0, 47, 61
1, 80322, Note_on_c, 0, 42, 34
1, 80339, Note_off_c, 0, 54, 66
1, 80343, Note_off_c, 0, 49, 70
1, 80349, Note_off_c, 0, 47, 66
1, 80350, Note_off_c, 0, 61, 58
1, 80359, Note_off_c, 0, 66, 61
1, 80363, Poly_aftertouch_c, 0, 63, 127
1, 80367, Note_off_c, 0, 42, 59
1, 80371, Poly_aftertouch_c, 0, 59, 127
1, 80404, Poly_aftertouch_c, 0, 59, 0
1, 80421, Poly_aftertouch_c, 0, 63, 0
1, 80422, Note_on_c, 0, 47, 73
1, 80423, Note_on_c, 0, 49, 69
1, 80423, Note_on_c, 0, 66, 82
1, 80424, Note_on_c, 0, 59, 49
1, 80432, Note_on_c, 0, 54, 79
1, 80435, Note_on_c, 0, 42, 58
1, 80444, Note_on_c, 0, 61, 59
1, 80447, Note_off_c, 0, 47, 68
1, 80448, Note_off_c, 0, 49, 63
1, 80470, Note_off_c, 0, 61, 67
1, 80471, Control_c, 0, 67, 8
1, 80473, Note_off_c, 0, 42, 61
1, 80473, Note_off_c, 0, 59, 60
1, 80486, Control_c, 0, 67, 10
1, 80487, Note_off_c, 0, 54, 62
1, 80491, Note_off_c, 0, 66, 61
1, 80501, Control_c, 0, 67, 9
1, 80516, Control_c, 0, 67, 9
1, 80619, Control_c, 0, 67, 8
1, 80651, Note_on_c, 0, 35, 94
1, 80653, Note_on_c, 0, 23, 97
1, 80664, Control_c, 0, 64, 88
1, 80679, Control_c, 0, 64, 60
1, 80679, Control_c, 0, 67, 9
1, 80693, Control_c, 0, 64, 40
1, 80708, Control_c, 0, 64, 17
1, 80723, Control_c, 0, 64, 20
1, 80727, Note_on_c, 0, 49, 101
1, 80727, Note_on_c, 0, 61, 95
1, 80737, Control_c, 0, 64, 38
1, 80737, Control_c, 0, 67, 9
1, 80738, Note_on_c, 0, 54, 75
1, 80744, Note_on_c, 0, 59, 62
1, 80752, Control_c, 0, 64, 60
1, 80767, Control_c, 0, 64, 127
1, 80767, Control_c, 0, 67, 9
1, 80769, Note_off_c, 0, 54, 63
1, 80774, Note_off_c, 0, 23, 56
1, 80781, Note_off_c, 0, 49, 67
1, 80782, Note_off_c, 0, 35, 60
1, 80782, Control_c, 0, 67, 9
1, 80791, Note_off_c, 0, 59, 54
1, 80819, Control_c, 0, 67, 9
1, 80831, Note_off_c, 0, 61, 65
1, 80849, Control_c, 0, 67, 8
1, 80879, Control_c, 0, 67, 0
1, 80923, Control_c, 0, 67, 8
1, 80938, Control_c, 0, 67, 8
1, 80952, Control_c, 0, 67, 9
1, 80967, Control_c, 0, 67, 10
1, 80982, Control_c, 0, 67, 10
1, 80997, Control_c, 0, 67, 11
1, 81005, Note_on_c, 0, 66, 71
1, 81017, Note_on_c, 0, 61, 44
1, 81019, Note_on_c, 0, 59, 35
1, 81020, Note_on_c, 0, 47, 49
1, 81020, Note_on_c, 0, 54, 49
1, 81034, Note_on_c, 0, 49, 44
1, 81045, Note_off_c, 0, 54, 59
1, 81051, Note_off_c, 0, 59, 57
1, 81052, Note_off_c, 0, 61, 66
1, 81053, Note_off_c, 0, 66, 49
1, 81055, Note_on_c, 0, 42, 41
1, 81065, Note_off_c, 0, 49, 57
1, 81070, Control_c, 0, 67, 10
1, 81079, Note_off_c, 0, 47, 58
1, 81090, Note_off_c, 0, 42, 53
1, 81115, Control_c, 0, 67, 11
1, 81130, Control_c, 0, 67, 11
1, 81158, Note_on_c, 0, 66, 73
1, 81164, Note_on_c, 0, 49, 57
1, 81166, Note_on_c, 0, 61, 56
1, 81167, Note_on_c, 0, 54, 58
1, 81175, Control_c, 0, 67, 12
1, 81192, Note_on_c, 0, 42, 44
1, 81193, Note_on_c, 0, 59, 20
1, 81201, Note_off_c, 0, 49, 55
1, 81201, Note_off_c, 0, 54, 65
1, 81217, Note_off_c, 0, 61, 60
1, 81219, Note_off_c, 0, 66, 51
1, 81227, Note_off_c, 0, 59, 49
1, 81234, Note_off_c, 0, 42, 49
1, 81236, Poly_aftertouch_c, 0, 47, 127
1, 81249, Control_c, 0, 67, 12
1, 81296, Poly_aftertouch_c, 0, 47, 0
1, 81302, Note_on_c, 0, 66, 73
1, 81308, Note_on_c, 0, 54, 64
1, 81311, Note_on_c, 0, 49, 66
1, 81313, Note_on_c, 0, 61, 59
1, 81321, Note_on_c, 0, 42, 57
1, 81324, Control_c, 0, 67, 13
1, 81324, Note_on_c, 0, 47, 19
1, 81339, Note_off_c, 0, 54, 65
1, 81344, Note_off_c, 0, 61, 66
1, 81345, Note_off_c, 0, 49, 64
1, 81356, Note_off_c, 0, 66, 60
1, 81365, Note_off_c, 0, 42, 58
1, 81367, Note_off_c, 0, 47, 59
1, 81428, Note_on_c, 0, 66, 75
1, 81429, Note_on_c, 0, 61, 64
1, 81432, Note_on_c, 0, 49, 71
1, 81432, Note_on_c, 0, 54, 77
1, 81442, Control_c, 0, 67, 13
1, 81449, Note_on_c, 0, 42, 63
1, 81457, Control_c, 0, 67, 14
1, 81472, Note_off_c, 0, 54, 65
1, 81482, Note_off_c, 0, 49, 58
1, 81488, Note_off_c, 0, 61, 64
1, 81492, Note_off_c, 0, 42, 56
1, 81498, Note_off_c, 0, 66, 62
1, 81514, Poly_aftertouch_c, 0, 47, 127
1, 81531, Control_c, 0, 67, 13
1, 81532, Poly_aftertouch_c, 0, 47, 0
1, 81546, Note_on_c, 0, 47, 62
1, 81546, Note_on_c, 0, 59, 101
1, 81561, Control_c, 0, 64, 98
1, 81561, Control_c, 0, 67, 13
1, 81583, Control_c, 0, 64, 86
1, 81592, Note_on_c, 0, 58, 28
1, 81593, Note_off_c, 0, 58, 127
1, 81598, Control_c, 0, 64, 88
1, 81613, Control_c, 0, 64, 127
1, 81637, Note_off_c, 0, 47, 63
1, 81657, Note_off_c, 0, 59, 59
1, 81716, Control_c, 0, 64, 92
1, 81723, Note_on_c, 0, 61, 100
1, 81731, Note_on_c, 0, 49, 98
1, 81731, Control_c, 0, 64, 70
1, 81746, Control_c, 0, 64, 66
1, 81746, Control_c, 0, 67, 12
1, 81750, Note_on_c, 0, 59, 63
1, 81756, Note_on_c, 0, 60, 82
1, 81761, Control_c, 0, 64, 70
1, 81761, Control_c, 0, 67, 13
1, 81775, Control_c, 0, 64, 127
1, 81778, Note_off_c, 0, 59, 49
1, 81803, Note_off_c, 0, 49, 61
1, 81805, Control_c, 0, 67, 13
1, 81818, Note_off_c, 0, 60, 64
1, 81820, Control_c, 0, 67, 14
1, 81822, Note_off_c, 0, 61, 64
1, 81866, Note_on_c, 0, 54, 86
1, 81881, Note_on_c, 0, 47, 74
1, 81893, Note_on_c, 0, 49, 68
1, 81908, Control_c, 0, 67, 13
1, 81911, Note_off_c, 0, 54, 65
1, 81911, Note_on_c, 0, 42, 43
1, 81922, Note_off_c, 0, 49, 67
1, 81941, Note_off_c, 0, 47, 63
1, 81948, Note_off_c, 0, 42, 52
1, 81954, Poly_aftertouch_c, 0, 53, 127
1, 81967, Control_c, 0, 67, 13
1, 81973, Poly_aftertouch_c, 0, 63, 0
1, 81991, Poly_aftertouch_c, 0, 53, 0
1, 81994, Note_on_c, 0, 54, 89
1, 81996, Note_on_c, 0, 49, 86
1, 81998, Control_c, 0, 67, 13
1, 82009, Note_on_c, 0, 47, 64
1, 82018, Note_on_c, 0, 42, 57
1, 82028, Control_c, 0, 67, 14
1, 82058, Note_off_c, 0, 54, 60
1, 82060, Note_off_c, 0, 47, 60
1, 82063, Note_off_c, 0, 49, 58
1, 82066, Note_off_c, 0, 42, 57
1, 82115, Note_on_c, 0, 62, 98
1, 82122, Note_on_c, 0, 50, 95
1, 82132, Control_c, 0, 67, 13
1, 82166, Note_on_c, 0, 42, 42
1, 82189, Note_off_c, 0, 50, 61
1, 82191, Control_c, 0, 67, 13
1, 82192, Note_off_c, 0, 42, 54
1, 82202, Note_off_c, 0, 62, 64
1, 82206, Control_c, 0, 67, 12
1, 82221, Control_c, 0, 67, 9
1, 82236, Control_c, 0, 67, 0
1, 82259, Note_on_c, 0, 54, 95
1, 82266, Note_on_c, 0, 50, 78
1, 82267, Note_on_c, 0, 42, 68
1, 82270, Note_on_c, 0, 47, 74
1, 82323, Note_on_c, 0, 45, 8
1, 82328, Note_off_c, 0, 50, 59
1, 82331, Note_off_c, 0, 54, 61
1, 82347, Note_off_c, 0, 42, 57
1, 82354, Note_off_c, 0, 47, 59
1, 82369, Note_off_c, 0, 45, 54
1, 82400, Note_on_c, 0, 47, 68
1, 82400, Note_on_c, 0, 52, 97
1, 82406, Note_on_c, 0, 54, 106
1, 82407, Note_on_c, 0, 42, 68
1, 82407, Note_on_c, 0, 64, 95
1, 82415, Note_on_c, 0, 59, 71
1, 82418, Note_on_c, 0, 63, 74
1, 82420, Note_off_c, 0, 52, 73
1, 82445, Note_off_c, 0, 59, 59
1, 82447, Note_off_c, 0, 47, 65
1, 82468, Note_off_c, 0, 42, 61
1, 82477, Note_off_c, 0, 64, 60
1, 82485, Poly_aftertouch_c, 0, 44, 127
1, 82487, Note_off_c, 0, 54, 59
1, 82525, Poly_aftertouch_c, 0, 44, 0
1, 82586, Note_off_c, 0, 63, 0
1, 82638, Poly_aftertouch_c, 0, 63, 0
1, 82643, Note_on_c, 0, 38, 98
1, 82643, Control_c, 0, 64, 61
1, 82646, Note_on_c, 0, 26, 98
1, 82658, Control_c, 0, 64, 20
1, 82672, Control_c, 0, 64, 0
1, 82702, Control_c, 0, 67, 8
1, 82720, Note_on_c, 0, 52, 104
1, 82721, Note_on_c, 0, 64, 94
1, 82729, Note_on_c, 0, 62, 73
1, 82731, Control_c, 0, 67, 9
1, 82733, Note_on_c, 0, 57, 73
1, 82746, Control_c, 0, 64, 36
1, 82760, Note_off_c, 0, 57, 66
1, 82761, Control_c, 0, 64, 59
1, 82769, Note_off_c, 0, 26, 61
1, 82772, Note_off_c, 0, 52, 67
1, 82776, Control_c, 0, 64, 127
1, 82784, Note_off_c, 0, 38, 60
1, 82792, Control_c, 0, 67, 9
1, 82798, Note_off_c, 0, 62, 60
1, 82808, Note_off_c, 0, 64, 64
1, 82836, Control_c, 0, 67, 9
1, 82866, Control_c, 0, 67, 8
1, 82895, Control_c, 0, 67, 0
1, 83024, Note_on_c, 0, 57, 72
1, 83029, Note_on_c, 0, 69, 67
1, 83035, Note_on_c, 0, 64, 59
1, 83041, Note_on_c, 0, 50, 51
1, 83044, Note_on_c, 0, 62, 46
1, 83055, Note_on_c, 0, 45, 48
1, 83070, Note_on_c, 0, 52, 32
1, 83083, Note_off_c, 0, 57, 60
1, 83091, Note_off_c, 0, 50, 46
1, 83094, Note_off_c, 0, 62, 57
1, 83097, Note_off_c, 0, 52, 57
1, 83100, Note_off_c, 0, 64, 56
1, 83102, Note_off_c, 0, 69, 63
1, 83184, Note_off_c, 0, 45, 37
1, 83185, Note_on_c, 0, 52, 62
1, 83190, Note_on_c, 0, 50, 58
1, 83201, Note_on_c, 0, 57, 74
1, 83202, Note_on_c, 0, 69, 73
1, 83204, Note_on_c, 0, 64, 60
1, 83222, Note_on_c, 0, 62, 42
1, 83278, Note_on_c, 0, 45, 75
1, 83296, Note_off_c, 0, 57, 42
1, 83300, Note_off_c, 0, 52, 36
1, 83300, Note_off_c, 0, 69, 62
1, 83313, Note_off_c, 0, 64, 60
1, 83320, Note_off_c, 0, 62, 31
1, 83351, Note_off_c, 0, 50, 37
1, 83362, Control_c, 0, 64, 79
1, 83377, Control_c, 0, 64, 64
1, 83381, Note_on_c, 0, 66, 90
1, 83392, Note_on_c, 0, 65, 95
1, 83392, Control_c, 0, 64, 57
1, 83397, Note_on_c, 0, 61, 69
1, 83400, Note_on_c, 0, 54, 85
1, 83407, Control_c, 0, 64, 58
1, 83408, Note_off_c, 0, 66, 0
1, 83421, Control_c, 0, 64, 64
1, 83421, Control_c, 0, 67, 8
1, 83426, Note_off_c, 0, 61, 64
1, 83427, Note_on_c, 0, 64, 52
1, 83431, Note_on_c, 0, 66, 25
1, 83436, Control_c, 0, 64, 83
1, 83436, Control_c, 0, 67, 8
1, 83449, Note_off_c, 0, 64, 60
1, 83451, Control_c, 0, 64, 127
1, 83451, Control_c, 0, 67, 9
1, 83491, Note_off_c, 0, 54, 54
1, 83511, Note_off_c, 0, 65, 62
1, 83513, Note_off_c, 0, 66, 45
1, 83523, Note_off_c, 0, 45, 60
1, 83554, Control_c, 0, 67, 8
1, 83569, Control_c, 0, 67, 8
1, 83585, Control_c, 0, 67, 0
1, 83603, Note_on_c, 0, 69, 91
1, 83608, Note_on_c, 0, 57, 75
1, 83609, Note_on_c, 0, 54, 78
1, 83619, Note_on_c, 0, 62, 70
1, 83622, Note_on_c, 0, 45, 66
1, 83622, Note_on_c, 0, 66, 59
1, 83640, Note_off_c, 0, 57, 61
1, 83644, Control_c, 0, 67, 8
1, 83646, Note_off_c, 0, 66, 58
1, 83664, Note_off_c, 0, 62, 54
1, 83673, Note_off_c, 0, 69, 55
1, 83678, Note_off_c, 0, 54, 58
1, 83699, Note_off_c, 0, 45, 61
1, 83749, Control_c, 0, 64, 110
1, 83763, Control_c, 0, 64, 93
1, 83768, Note_on_c, 0, 69, 80
1, 83771, Note_on_c, 0, 57, 74
1, 83777, Note_on_c, 0, 62, 60
1, 83778, Control_c, 0, 64, 91
1, 83778, Control_c, 0, 67, 0
1, 83786, Note_on_c, 0, 54, 70
1, 83792, Note_on_c, 0, 45, 57
1, 83793, Control_c, 0, 64, 105
1, 83813, Note_off_c, 0, 57, 64
1, 83816, Control_c, 0, 64, 127
1, 83823, Note_off_c, 0, 62, 61
1, 83831, Note_off_c, 0, 54, 61
1, 83832, Note_on_c, 0, 50, 22
1, 83844, Note_off_c, 0, 69, 62
1, 83857, Note_off_c, 0, 45, 62
1, 83874, Note_off_c, 0, 50, 41
1, 83875, Control_c, 0, 64, 99
1, 83890, Control_c, 0, 64, 89
1, 83905, Control_c, 0, 64, 90
1, 83919, Note_on_c, 0, 69, 77
1, 83919, Control_c, 0, 64, 127
1, 83922, Note_on_c, 0, 57, 73
1, 83928, Note_on_c, 0, 54, 66
1, 83937, Note_on_c, 0, 45, 58
1, 83941, Note_on_c, 0, 62, 44
1, 83947, Note_off_c, 0, 57, 64
1, 83948, Note_on_c, 0, 50, 42
1, 83962, Note_off_c, 0, 54, 63
1, 83968, Note_off_c, 0, 69, 63
1, 83971, Note_off_c, 0, 62, 57
1, 83974, Note_on_c, 0, 66, 18
1, 83979, Note_off_c, 0, 45, 53
1, 83983, Note_off_c, 0, 50, 55
1, 84012, Note_off_c, 0, 66, 51
1, 84050, Note_on_c, 0, 57, 77
1, 84051, Note_on_c, 0, 69, 78
1, 84062, Note_on_c, 0, 54, 69
1, 84066, Note_on_c, 0, 66, 56
1, 84067, Note_on_c, 0, 45, 59
1, 84081, Note_on_c, 0, 50, 54
1, 84093, Note_off_c, 0, 57, 61
1, 84093, Note_off_c, 0, 54, 65
1, 84096, Note_off_c, 0, 45, 62
1, 84102, Note_off_c, 0, 66, 62
1, 84102, Note_off_c, 0, 69, 62
1, 84113, Note_off_c, 0, 50, 64
1, 84141, Control_c, 0, 64, 119
1, 84156, Control_c, 0, 64, 122
1, 84170, Control_c, 0, 64, 127
1, 84182, Note_on_c, 0, 54, 75
1, 84182, Note_on_c, 0, 69, 80
1, 84184, Note_on_c, 0, 57, 85
1, 84185, Note_on_c, 0, 45, 69
1, 84190, Note_on_c, 0, 66, 70
1, 84223, Note_off_c, 0, 66, 64
1, 84224, Note_off_c, 0, 57, 60
1, 84230, Note_off_c, 0, 69, 66
1, 84236, Note_off_c, 0, 54, 59
1, 84255, Note_off_c, 0, 45, 59
1, 84311, Note_on_c, 0, 62, 99
1, 84320, Note_on_c, 0, 50, 81
1, 84409, Note_off_c, 0, 50, 52
1, 84415, Note_off_c, 0, 62, 52
1, 84448, Poly_aftertouch_c, 0, 49, 0
1, 84464, Note_on_c, 0, 57, 80
1, 84465, Note_on_c, 0, 69, 77
1, 84469, Note_on_c, 0, 66, 65
1, 84474, Note_on_c, 0, 54, 70
1, 84480, Note_on_c, 0, 45, 62
1, 84499, Note_on_c, 0, 50, 5
1, 84501, Note_off_c, 0, 57, 61
1, 84502, Note_off_c, 0, 54, 66
1, 84517, Note_off_c, 0, 66, 48
1, 84518, Note_off_c, 0, 69, 62
1, 84529, Note_off_c, 0, 45, 60
1, 84534, Note_off_c, 0, 50, 50
1, 84539, Poly_aftertouch_c, 0, 49, 127
1, 84597, Note_on_c, 0, 54, 77
1, 84606, Note_on_c, 0, 57, 87
1, 84608, Note_on_c, 0, 45, 66
1, 84609, Note_on_c, 0, 69, 83
1, 84618, Poly_aftertouch_c, 0, 49, 0
1, 84619, Note_on_c, 0, 62, 61
1, 84623, Note_off_c, 0, 54, 67
1, 84647, Note_on_c, 0, 66, 27
1, 84647, Note_off_c, 0, 62, 64
1, 84649, Note_off_c, 0, 45, 61
1, 84649, Note_off_c, 0, 69, 65
1, 84659, Note_off_c, 0, 57, 61
1, 84679, Note_off_c, 0, 66, 53
1, 84682, Control_c, 0, 67, 8
1, 84697, Control_c, 0, 67, 9
1, 84741, Control_c, 0, 67, 8
1, 84756, Control_c, 0, 67, 8
1, 84842, Note_on_c, 0, 38, 93
1, 84843, Note_on_c, 0, 26, 88
1, 84845, Control_c, 0, 64, 95
1, 84859, Control_c, 0, 64, 62
1, 84874, Control_c, 0, 64, 39
1, 84889, Control_c, 0, 64, 0
1, 84889, Control_c, 0, 67, 8
1, 84904, Control_c, 0, 67, 9
1, 84913, Note_on_c, 0, 64, 95
1, 84915, Note_on_c, 0, 52, 101
1, 84919, Control_c, 0, 67, 10
1, 84922, Note_on_c, 0, 62, 79
1, 84930, Note_on_c, 0, 57, 72
1, 84952, Note_off_c, 0, 57, 69
1, 84963, Control_c, 0, 64, 42
1, 84971, Note_off_c, 0, 26, 60
1, 84974, Note_off_c, 0, 52, 66
1, 84978, Control_c, 0, 64, 64
1, 84987, Note_off_c, 0, 38, 60
1, 84993, Control_c, 0, 64, 127
1, 85002, Note_off_c, 0, 62, 62
1, 85015, Note_off_c, 0, 64, 64
1, 85023, Control_c, 0, 67, 8
1, 85038, Control_c, 0, 67, 0
1, 85226, Note_on_c, 0, 57, 66
1, 85228, Note_on_c, 0, 64, 56
1, 85228, Note_on_c, 0, 69, 64
1, 85238, Note_on_c, 0, 50, 36
1, 85252, Note_on_c, 0, 62, 37
1, 85266, Note_off_c, 0, 57, 61
1, 85269, Note_on_c, 0, 52, 20
1, 85276, Note_on_c, 0, 45, 23
1, 85279, Note_off_c, 0, 69, 58
1, 85294, Note_off_c, 0, 52, 58
1, 85297, Note_off_c, 0, 62, 47
1, 85305, Note_off_c, 0, 64, 42
1, 85330, Note_off_c, 0, 50, 37
1, 85333, Note_off_c, 0, 45, 47
1, 85408, Note_on_c, 0, 52, 46
1, 85425, Note_on_c, 0, 69, 62
1, 85426, Note_on_c, 0, 45, 53
1, 85427, Note_on_c, 0, 57, 57
1, 85431, Note_on_c, 0, 64, 58
1, 85431, Control_c, 0, 67, 8
1, 85432, Note_on_c, 0, 62, 39
1, 85434, Note_on_c, 0, 50, 35
1, 85446, Control_c, 0, 67, 9
1, 85460, Note_off_c, 0, 52, 61
1, 85461, Note_off_c, 0, 57, 61
1, 85461, Control_c, 0, 67, 9
1, 85462, Note_off_c, 0, 69, 58
1, 85470, Note_off_c, 0, 64, 57
1, 85470, Note_off_c, 0, 50, 53
1, 85476, Note_off_c, 0, 45, 58
1, 85476, Control_c, 0, 67, 10
1, 85478, Note_off_c, 0, 62, 60
1, 85505, Control_c, 0, 67, 11
1, 85520, Control_c, 0, 67, 11
1, 85549, Control_c, 0, 67, 12
1, 85571, Note_on_c, 0, 50, 52
1, 85573, Note_on_c, 0, 52, 63
1, 85573, Note_on_c, 0, 57, 67
1, 85574, Note_on_c, 0, 69, 69
1, 85577, Note_on_c, 0, 45, 51
1, 85577, Note_on_c, 0, 64, 64
1, 85586, Note_on_c, 0, 62, 48
1, 85601, Note_off_c, 0, 52, 66
1, 85606, Note_off_c, 0, 69, 58
1, 85607, Note_off_c, 0, 57, 62
1, 85611, Note_off_c, 0, 64, 61
1, 85619, Note_off_c, 0, 50, 62
1, 85622, Note_off_c, 0, 62, 63
1, 85625, Note_off_c, 0, 45, 58
1, 85653, Control_c, 0, 67, 12
1, 85697, Control_c, 0, 67, 13
1, 85703, Note_on_c, 0, 57, 64
1, 85703, Note_on_c, 0, 69, 70
1, 85706, Note_on_c, 0, 64, 64
1, 85708, Note_on_c, 0, 52, 61
1, 85713, Note_on_c, 0, 45, 56
1, 85715, Note_on_c, 0, 50, 54
1, 85724, Note_on_c, 0, 62, 44
1, 85732, Note_off_c, 0, 57, 63
1, 85737, Note_off_c, 0, 69, 62
1, 85741, Note_off_c, 0, 52, 66
1, 85748, Note_off_c, 0, 45, 61
1, 85750, Note_off_c, 0, 50, 64
1, 85754, Note_off_c, 0, 62, 54
1, 85755, Note_off_c, 0, 64, 60
1, 85816, Note_on_c, 0, 57, 80
1, 85822, Note_on_c, 0, 69, 81
1, 85822, Note_on_c, 0, 52, 74
1, 85822, Note_on_c, 0, 64, 65
1, 85834, Note_on_c, 0, 45, 64
1, 85834, Note_on_c, 0, 50, 57
1, 85846, Control_c, 0, 67, 12
1, 85853, Note_off_c, 0, 52, 64
1, 85854, Note_off_c, 0, 57, 57
1, 85860, Control_c, 0, 67, 12
1, 85864, Note_off_c, 0, 64, 63
1, 85865, Note_off_c, 0, 50, 64
1, 85865, Note_off_c, 0, 69, 64
1, 85875, Note_off_c, 0, 45, 62
1, 85875, Control_c, 0, 67, 11
1, 85890, Control_c, 0, 67, 10
1, 85920, Control_c, 0, 64, 96
1, 85920, Control_c, 0, 67, 10
1, 85934, Control_c, 0, 64, 82
1, 85942, Note_on_c, 0, 64, 102
1, 85949, Control_c, 0, 64, 80
1, 85949, Control_c, 0, 67, 9
1, 85956, Note_on_c, 0, 52, 88
1, 85964, Control_c, 0, 64, 92
1, 85980, Control_c, 0, 64, 127
1, 85989, Note_on_c, 0, 45, 38
1, 86010, Control_c, 0, 67, 10
1, 86011, Note_off_c, 0, 52, 65
1, 86027, Note_off_c, 0, 45, 49
1, 86041, Note_off_c, 0, 64, 48
1, 86061, Control_c, 0, 67, 10
1, 86100, Note_on_c, 0, 69, 78
1, 86105, Note_on_c, 0, 57, 77
1, 86107, Note_on_c, 0, 45, 68
1, 86110, Note_on_c, 0, 64, 35
1, 86117, Note_on_c, 0, 52, 64
1, 86120, Control_c, 0, 67, 11
1, 86127, Note_on_c, 0, 50, 48
1, 86128, Note_off_c, 0, 57, 67
1, 86129, Note_off_c, 0, 64, 65
1, 86135, Control_c, 0, 67, 10
1, 86142, Note_off_c, 0, 45, 61
1, 86147, Note_off_c, 0, 69, 63
1, 86148, Note_off_c, 0, 52, 67
1, 86153, Note_off_c, 0, 50, 61
1, 86172, Poly_aftertouch_c, 0, 62, 127
1, 86208, Poly_aftertouch_c, 0, 62, 0
1, 86224, Control_c, 0, 67, 11
1, 86228, Note_on_c, 0, 52, 74
1, 86228, Note_on_c, 0, 64, 61
1, 86231, Note_on_c, 0, 57, 67
1, 86233, Note_on_c, 0, 50, 58
1, 86235, Note_on_c, 0, 69, 72
1, 86236, Note_on_c, 0, 45, 66
1, 86244, Note_on_c, 0, 62, 21
1, 86251, Note_off_c, 0, 52, 67
1, 86251, Note_off_c, 0, 57, 70
1, 86257, Note_off_c, 0, 69, 68
1, 86266, Note_off_c, 0, 64, 60
1, 86266, Note_off_c, 0, 45, 64
1, 86269, Note_off_c, 0, 50, 64
1, 86270, Note_on_c, 0, 66, 19
1, 86283, Control_c, 0, 67, 10
1, 86292, Note_off_c, 0, 62, 43
1, 86315, Note_off_c, 0, 66, 50
1, 86346, Note_on_c, 0, 52, 79
1, 86349, Note_on_c, 0, 57, 78
1, 86349, Note_on_c, 0, 64, 76
1, 86349, Note_on_c, 0, 69, 79
1, 86351, Note_on_c, 0, 50, 66
1, 86355, Note_on_c, 0, 45, 66
1, 86377, Note_off_c, 0, 52, 65
1, 86379, Note_off_c, 0, 57, 64
1, 86382, Note_off_c, 0, 50, 62
1, 86391, Note_off_c, 0, 45, 63
1, 86393, Note_off_c, 0, 69, 63
1, 86402, Note_off_c, 0, 64, 61
1, 86417, Control_c, 0, 67, 10
1, 86446, Control_c, 0, 67, 9
1, 86461, Note_on_c, 0, 45, 75
1, 86461, Control_c, 0, 67, 0
1, 86463, Note_on_c, 0, 57, 93
1, 86463, Note_on_c, 0, 69, 83
1, 86466, Note_on_c, 0, 64, 73
1, 86467, Note_on_c, 0, 52, 77
1, 86498, Note_off_c, 0, 52, 62
1, 86504, Note_off_c, 0, 57, 63
1, 86516, Note_off_c, 0, 69, 65
1, 86518, Note_off_c, 0, 64, 63
1, 86525, Note_off_c, 0, 45, 59
1, 86580, Note_on_c, 0, 62, 108
1, 86591, Note_on_c, 0, 50, 80
1, 86618, Note_off_c, 0, 50, 67
1, 86644, Note_off_c, 0, 62, 66
1, 86820, Note_on_c, 0, 38, 96
1, 86824, Note_on_c, 0, 26, 93
1, 86840, Control_c, 0, 64, 64
1, 86855, Control_c, 0, 64, 36
1, 86869, Control_c, 0, 64, 0
1, 86893, Note_on_c, 0, 52, 104
1, 86895, Note_on_c, 0, 64, 96
1, 86899, Note_on_c, 0, 62, 83
1, 86910, Note_on_c, 0, 57, 61
1, 86928, Control_c, 0, 64, 11
1, 86931, Note_off_c, 0, 57, 64
1, 86942, Note_off_c, 0, 26, 62
1, 86943, Control_c, 0, 64, 49
1, 86944, Note_off_c, 0, 52, 67
1, 86958, Control_c, 0, 64, 89
1, 86963, Note_off_c, 0, 38, 62
1, 86963, Note_off_c, 0, 62, 62
1, 86973, Control_c, 0, 64, 127
1, 86978, Note_off_c, 0, 64, 66
1, 87156, Poly_aftertouch_c, 0, 66, 0
1, 87174, Note_on_c, 0, 57, 60
1, 87175, Note_on_c, 0, 69, 64
1, 87185, Note_on_c, 0, 64, 41
1, 87193, Note_on_c, 0, 50, 35
1, 87206, Note_on_c, 0, 45, 34
1, 87208, Note_on_c, 0, 62, 34
1, 87209, Note_off_c, 0, 57, 60
1, 87211, Note_on_c, 0, 52, 40
1, 87221, Note_off_c, 0, 64, 54
1, 87224, Note_off_c, 0, 50, 54
1, 87232, Note_off_c, 0, 69, 55
1, 87235, Note_off_c, 0, 62, 57
1, 87248, Note_off_c, 0, 52, 46
1, 87252, Note_off_c, 0, 45, 50
1, 87269, Control_c, 0, 67, 8
1, 87284, Control_c, 0, 67, 8
1, 87299, Control_c, 0, 67, 9
1, 87313, Control_c, 0, 67, 10
1, 87328, Note_on_c, 0, 50, 46
1, 87330, Note_on_c, 0, 57, 64
1, 87330, Note_on_c, 0, 62, 43
1, 87335, Note_on_c, 0, 52, 62
1, 87336, Note_on_c, 0, 69, 61
1, 87342, Note_on_c, 0, 64, 38
1, 87344, Note_on_c, 0, 45, 40
1, 87353, Note_off_c, 0, 57, 68
1, 87359, Note_off_c, 0, 69, 62
1, 87363, Note_off_c, 0, 52, 68
1, 87371, Note_off_c, 0, 64, 58
1, 87373, Note_off_c, 0, 50, 61
1, 87373, Note_off_c, 0, 62, 62
1, 87374, Note_off_c, 0, 45, 57
1, 87387, Control_c, 0, 67, 9
1, 87402, Control_c, 0, 67, 9
1, 87446, Control_c, 0, 67, 8
1, 87462, Note_on_c, 0, 64, 61
1, 87463, Note_on_c, 0, 69, 61
1, 87464, Note_on_c, 0, 52, 54
1, 87467, Note_on_c, 0, 45, 51
1, 87470, Note_on_c, 0, 57, 66
1, 87480, Note_on_c, 0, 50, 50
1, 87484, Note_on_c, 0, 62, 43
1, 87491, Control_c, 0, 67, 8
1, 87494, Note_off_c, 0, 69, 63
1, 87496, Note_off_c, 0, 57, 65
1, 87501, Note_off_c, 0, 52, 65
1, 87502, Note_off_c, 0, 64, 60
1, 87504, Note_off_c, 0, 50, 63
1, 87512, Note_off_c, 0, 62, 56
1, 87513, Note_off_c, 0, 45, 58
1, 87604, Note_on_c, 0, 69, 69
1, 87605, Note_on_c, 0, 57, 61
1, 87606, Note_on_c, 0, 50, 52
1, 87607, Note_on_c, 0, 52, 63
1, 87613, Note_on_c, 0, 45, 54
1, 87615, Note_on_c, 0, 64, 56
1, 87616, Note_on_c, 0, 62, 46
1, 87617, Control_c, 0, 67, 9
1, 87624, Note_off_c, 0, 57, 64
1, 87628, Note_off_c, 0, 69, 66
1, 87639, Note_off_c, 0, 52, 65
1, 87639, Note_off_c, 0, 64, 64
1, 87640, Note_off_c, 0, 62, 61
1, 87643, Note_off_c, 0, 50, 59
1, 87645, Note_off_c, 0, 45, 64
1, 87677, Control_c, 0, 67, 9
1, 87723, Note_on_c, 0, 57, 59
1, 87723, Note_on_c, 0, 69, 68
1, 87724, Note_on_c, 0, 45, 55
1, 87727, Note_on_c, 0, 64, 59
1, 87730, Note_on_c, 0, 52, 61
1, 87730, Note_on_c, 0, 62, 53
1, 87744, Note_off_c, 0, 57, 63
1, 87751, Note_on_c, 0, 50, 37
1, 87754, Note_off_c, 0, 69, 64
1, 87758, Note_off_c, 0, 64, 65
1, 87759, Note_off_c, 0, 52, 68
1, 87762, Note_off_c, 0, 62, 64
1, 87774, Note_off_c, 0, 45, 58
1, 87780, Control_c, 0, 67, 10
1, 87783, Note_off_c, 0, 50, 51
1, 87838, Note_on_c, 0, 69, 68
1, 87843, Note_on_c, 0, 57, 60
1, 87848, Note_on_c, 0, 64, 58
1, 87852, Note_on_c, 0, 52, 57
1, 87855, Note_on_c, 0, 45, 57
1, 87855, Note_on_c, 0, 62, 51
1, 87863, Note_off_c, 0, 69, 62
1, 87870, Control_c, 0, 67, 9
1, 87873, Note_off_c, 0, 57, 62
1, 87880, Note_off_c, 0, 62, 64
1, 87880, Note_off_c, 0, 52, 66
1, 87880, Note_off_c, 0, 64, 62
1, 87883, Note_on_c, 0, 50, 35
1, 87884, Control_c, 0, 67, 8
1, 87895, Note_off_c, 0, 45, 59
1, 87899, Control_c, 0, 67, 0
1, 87922, Note_off_c, 0, 50, 43
1, 87960, Note_on_c, 0, 57, 60
1, 87960, Note_on_c, 0, 69, 66
1, 87970, Note_on_c, 0, 62, 47
1, 87970, Note_on_c, 0, 64, 55
1, 87975, Note_on_c, 0, 45, 60
1, 87975, Note_on_c, 0, 52, 56
1, 87987, Note_off_c, 0, 57, 65
1, 87999, Note_off_c, 0, 52, 63
1, 88004, Note_on_c, 0, 50, 25
1, 88004, Note_off_c, 0, 62, 61
1, 88006, Note_off_c, 0, 69, 55
1, 88010, Note_off_c, 0, 64, 61
1, 88023, Note_off_c, 0, 45, 58
1, 88043, Note_off_c, 0, 50, 44
1, 88090, Note_on_c, 0, 57, 68
1, 88094, Note_on_c, 0, 69, 71
1, 88099, Note_on_c, 0, 52, 62
1, 88102, Note_on_c, 0, 64, 57
1, 88109, Note_on_c, 0, 62, 40
1, 88112, Note_on_c, 0, 45, 61
1, 88132, Note_on_c, 0, 50, 39
1, 88135, Note_off_c, 0, 57, 55
1, 88145, Note_off_c, 0, 69, 62
1, 88150, Note_off_c, 0, 62, 53
1, 88153, Note_off_c, 0, 52, 63
1, 88159, Note_off_c, 0, 45, 61
1, 88166, Note_off_c, 0, 64, 60
1, 88174, Note_off_c, 0, 50, 51
1, 88243, Note_on_c, 0, 66, 104
1, 88262, Note_on_c, 0, 54, 97
1, 88332, Note_on_c, 0, 49, 5
1, 88338, Note_off_c, 0, 54, 62
1, 88389, Note_off_c, 0, 49, 49
1, 88429, Note_off_c, 0, 66, 0
1, 88457, Note_on_c, 0, 69, 87
1, 88458, Note_on_c, 0, 57, 86
1, 88459, Note_on_c, 0, 45, 69
1, 88459, Note_on_c, 0, 50, 68
1, 88459, Note_on_c, 0, 54, 76
1, 88467, Poly_aftertouch_c, 0, 66, 127
1, 88473, Note_on_c, 0, 62, 65
1, 88498, Note_off_c, 0, 54, 59
1, 88509, Note_off_c, 0, 57, 62
1, 88516, Note_off_c, 0, 50, 59
1, 88523, Note_off_c, 0, 62, 50
1, 88529, Note_off_c, 0, 45, 61
1, 88537, Note_off_c, 0, 69, 62
1, 88543, Poly_aftertouch_c, 0, 66, 0
1, 88609, Note_on_c, 0, 54, 77
1, 88618, Note_on_c, 0, 57, 88
1, 88618, Note_on_c, 0, 69, 87
1, 88621, Note_on_c, 0, 45, 64
1, 88624, Note_on_c, 0, 50, 69
1, 88630, Note_on_c, 0, 62, 70
1, 88632, Note_on_c, 0, 66, 72
1, 88637, Note_off_c, 0, 54, 59
1, 88653, Note_off_c, 0, 50, 65
1, 88654, Note_off_c, 0, 62, 70
1, 88668, Note_off_c, 0, 69, 66
1, 88669, Note_off_c, 0, 45, 62
1, 88670, Note_off_c, 0, 57, 63
1, 88675, Note_off_c, 0, 66, 45
1, 88869, Note_on_c, 0, 28, 102
1, 88869, Note_on_c, 0, 40, 101
1, 88870, Control_c, 0, 64, 79
1, 88884, Control_c, 0, 64, 51
1, 88899, Control_c, 0, 64, 0
1, 88929, Note_on_c, 0, 54, 104
1, 88931, Note_on_c, 0, 66, 94
1, 88937, Note_on_c, 0, 64, 77
1, 88940, Note_on_c, 0, 59, 69
1, 88958, Control_c, 0, 64, 39
1, 88973, Control_c, 0, 64, 83
1, 88979, Note_off_c, 0, 59, 58
1, 88980, Note_off_c, 0, 28, 64
1, 88988, Control_c, 0, 64, 127
1, 88996, Note_off_c, 0, 54, 66
1, 89001, Note_off_c, 0, 40, 65
1, 89014, Note_off_c, 0, 64, 61
1, 89042, Note_off_c, 0, 66, 59
1, 89246, Note_on_c, 0, 59, 71
1, 89247, Note_on_c, 0, 71, 73
1, 89260, Note_on_c, 0, 51, 27
1, 89260, Note_on_c, 0, 66, 52
1, 89269, Note_on_c, 0, 64, 37
1, 89306, Note_off_c, 0, 59, 60
1, 89313, Note_off_c, 0, 51, 46
1, 89321, Note_off_c, 0, 66, 49
1, 89321, Note_off_c, 0, 71, 61
1, 89338, Note_off_c, 0, 64, 46
1, 89338, Poly_aftertouch_c, 0, 47, 127
1, 89423, Poly_aftertouch_c, 0, 47, 0
1, 89425, Note_on_c, 0, 71, 76
1, 89428, Note_on_c, 0, 52, 57
1, 89430, Note_on_c, 0, 59, 71
1, 89440, Note_on_c, 0, 47, 38
1, 89444, Note_on_c, 0, 66, 60
1, 89446, Note_on_c, 0, 54, 52
1, 89458, Note_on_c, 0, 64, 48
1, 89470, Note_off_c, 0, 59, 55
1, 89482, Note_off_c, 0, 54, 64
1, 89485, Note_off_c, 0, 64, 58
1, 89488, Note_off_c, 0, 66, 58
1, 89493, Note_off_c, 0, 52, 60
1, 89497, Note_off_c, 0, 71, 61
1, 89497, Note_off_c, 0, 47, 54
1, 89580, Note_on_c, 0, 66, 74
1, 89581, Note_on_c, 0, 59, 71
1, 89581, Note_on_c, 0, 71, 76
1, 89585, Note_on_c, 0, 52, 69
1, 89590, Note_on_c, 0, 64, 46
1, 89593, Note_on_c, 0, 54, 55
1, 89609, Note_on_c, 0, 47, 54
1, 89622, Note_off_c, 0, 59, 62
1, 89628, Note_off_c, 0, 54, 64
1, 89628, Note_off_c, 0, 64, 61
1, 89634, Note_off_c, 0, 71, 62
1, 89640, Note_off_c, 0, 47, 64
1, 89643, Note_off_c, 0, 52, 62
1, 89647, Note_off_c, 0, 66, 60
1, 89706, Note_on_c, 0, 66, 69
1, 89710, Note_on_c, 0, 71, 78
1, 89711, Note_on_c, 0, 59, 84
1, 89719, Note_on_c, 0, 47, 69
1, 89721, Note_on_c, 0, 52, 71
1, 89723, Note_on_c, 0, 54, 62
1, 89754, Note_off_c, 0, 59, 61
1, 89762, Note_off_c, 0, 54, 60
1, 89764, Note_off_c, 0, 66, 62
1, 89772, Note_off_c, 0, 71, 64
1, 89773, Note_off_c, 0, 52, 63
1, 89783, Note_off_c, 0, 47, 63
1, 89833, Control_c, 0, 64, 111
1, 89844, Note_on_c, 0, 64, 102
1, 89848, Control_c, 0, 64, 86
1, 89856, Note_on_c, 0, 52, 97
1, 89863, Control_c, 0, 64, 86
1, 89878, Control_c, 0, 64, 127
1, 89892, Note_on_c, 0, 71, 36
1, 89907, Control_c, 0, 67, 10
1, 89911, Note_off_c, 0, 52, 66
1, 89918, Note_off_c, 0, 71, 61
1, 89919, Note_off_c, 0, 64, 64
1, 89922, Control_c, 0, 67, 12
1, 89952, Control_c, 0, 67, 11
1, 89967, Control_c, 0, 67, 10
1, 89983, Control_c, 0, 67, 10
1, 89987, Note_on_c, 0, 66, 105
1, 89991, Note_on_c, 0, 54, 90
1, 89998, Control_c, 0, 67, 0
1, 90049, Note_off_c, 0, 54, 64
1, 90100, Note_off_c, 0, 66, 0
1, 90103, Poly_aftertouch_c, 0, 68, 0
1, 90115, Note_on_c, 0, 59, 93
1, 90119, Note_on_c, 0, 52, 74
1, 90130, Note_on_c, 0, 47, 71
1, 90137, Poly_aftertouch_c, 0, 66, 127
1, 90154, Poly_aftertouch_c, 0, 66, 0
1, 90162, Note_off_c, 0, 59, 65
1, 90171, Note_on_c, 0, 54, 4
1, 90177, Note_off_c, 0, 52, 66
1, 90177, Note_off_c, 0, 47, 61
1, 90207, Note_off_c, 0, 54, 54
1, 90242, Note_on_c, 0, 59, 93
1, 90247, Note_on_c, 0, 47, 67
1, 90248, Note_on_c, 0, 54, 76
1, 90249, Note_on_c, 0, 52, 76
1, 90296, Note_off_c, 0, 59, 62
1, 90303, Note_off_c, 0, 54, 62
1, 90304, Note_off_c, 0, 52, 63
1, 90307, Note_off_c, 0, 47, 64
1, 90368, Note_on_c, 0, 67, 104
1, 90371, Note_on_c, 0, 55, 94
1, 90391, Note_on_c, 0, 47, 68
1, 90412, Note_on_c, 0, 66, 46
1, 90417, Note_off_c, 0, 47, 68
1, 90421, Note_on_c, 0, 52, 38
1, 90425, Note_off_c, 0, 55, 67
1, 90437, Note_off_c, 0, 66, 58
1, 90442, Note_off_c, 0, 52, 64
1, 90457, Note_off_c, 0, 67, 60
1, 90499, Note_on_c, 0, 59, 98
1, 90500, Note_on_c, 0, 52, 87
1, 90505, Note_on_c, 0, 55, 89
1, 90513, Note_on_c, 0, 47, 69
1, 90558, Note_off_c, 0, 55, 65
1, 90562, Note_off_c, 0, 59, 63
1, 90577, Note_off_c, 0, 47, 62
1, 90588, Note_off_c, 0, 52, 63
1, 90636, Note_on_c, 0, 57, 92
1, 90643, Note_on_c, 0, 69, 102
1, 90645, Note_on_c, 0, 47, 74
1, 90650, Note_on_c, 0, 52, 66
1, 90660, Note_on_c, 0, 51, 61
1, 90660, Note_off_c, 0, 57, 63
1, 90678, Note_off_c, 0, 52, 68
1, 90687, Note_off_c, 0, 51, 65
1, 90696, Note_off_c, 0, 47, 65
1, 90724, Note_off_c, 0, 69, 59
1, 90776, Control_c, 0, 64, 107
1, 90791, Control_c, 0, 64, 56
1, 90806, Control_c, 0, 64, 0
1, 90812, Note_on_c, 0, 31, 98
1, 90815, Note_on_c, 0, 43, 101
1, 90865, Control_c, 0, 64, 39
1, 90873, Note_off_c, 0, 31, 65
1, 90880, Control_c, 0, 64, 73
1, 90888, Note_off_c, 0, 43, 58
1, 90895, Control_c, 0, 64, 127
1, 90973, Note_on_c, 0, 69, 93
1, 90975, Note_on_c, 0, 57, 92
1, 90979, Note_on_c, 0, 67, 91
1, 90980, Note_on_c, 0, 50, 95
1, 90981, Note_on_c, 0, 48, 88
1, 90983, Note_on_c, 0, 55, 78
1, 90985, Note_on_c, 0, 62, 78
1, 91002, Note_off_c, 0, 55, 41
1, 91009, Note_off_c, 0, 62, 69
1, 91010, Note_off_c, 0, 50, 65
1, 91012, Note_off_c, 0, 48, 66
1, 91012, Note_off_c, 0, 57, 66
1, 91028, Note_off_c, 0, 67, 64
1, 91035, Note_off_c, 0, 69, 67
1, 91247, Note_on_c, 0, 74, 79
1, 91249, Note_on_c, 0, 62, 88
1, 91251, Note_on_c, 0, 55, 76
1, 91254, Note_on_c, 0, 57, 74
1, 91264, Note_on_c, 0, 50, 67
1, 91265, Note_on_c, 0, 70, 18
1, 91273, Note_on_c, 0, 69, 53
1, 91279, Note_on_c, 0, 68, 6
1, 91281, Note_off_c, 0, 55, 66
1, 91286, Note_off_c, 0, 57, 58
1, 91301, Note_off_c, 0, 69, 63
1, 91311, Note_off_c, 0, 62, 61
1, 91315, Note_off_c, 0, 50, 48
1, 91316, Note_off_c, 0, 70, 45
1, 91329, Note_off_c, 0, 74, 61
1, 91330, Note_off_c, 0, 68, 50
1, 91354, Poly_aftertouch_c, 0, 67, 127
1, 91391, Note_on_c, 0, 57, 80
1, 91395, Note_on_c, 0, 55, 83
1, 91401, Poly_aftertouch_c, 0, 67, 0
1, 91407, Note_on_c, 0, 62, 90
1, 91408, Note_on_c, 0, 74, 89
1, 91411, Note_on_c, 0, 69, 57
1, 91419, Note_on_c, 0, 67, 39
1, 91461, Note_off_c, 0, 57, 57
1, 91483, Note_off_c, 0, 62, 51
1, 91490, Note_on_c, 0, 50, 87
1, 91493, Note_off_c, 0, 74, 61
1, 91509, Control_c, 0, 64, 65
1, 91510, Note_off_c, 0, 69, 62
1, 91516, Note_off_c, 0, 67, 56
1, 91524, Control_c, 0, 64, 24
1, 91525, Note_off_c, 0, 55, 62
1, 91539, Control_c, 0, 64, 0
1, 91571, Note_on_c, 0, 71, 101
1, 91578, Note_on_c, 0, 59, 100
1, 91584, Control_c, 0, 64, 30
1, 91599, Control_c, 0, 64, 61
1, 91605, Note_on_c, 0, 70, 52
1, 91614, Control_c, 0, 64, 127
1, 91629, Note_off_c, 0, 70, 58
1, 91637, Note_off_c, 0, 59, 63
1, 91669, Note_off_c, 0, 50, 59
1, 91688, Poly_aftertouch_c, 0, 68, 0
1, 91719, Note_off_c, 0, 71, 0
1, 91756, Note_on_c, 0, 74, 75
1, 91757, Note_on_c, 0, 62, 71
1, 91757, Poly_aftertouch_c, 0, 71, 127
1, 91760, Note_on_c, 0, 67, 68
1, 91770, Note_on_c, 0, 50, 66
1, 91771, Note_on_c, 0, 55, 61
1, 91774, Note_on_c, 0, 59, 50
1, 91780, Note_on_c, 0, 54, 34
1, 91782, Note_off_c, 0, 62, 68
1, 91788, Poly_aftertouch_c, 0, 71, 0
1, 91789, Note_off_c, 0, 67, 66
1, 91790, Note_off_c, 0, 59, 66
1, 91798, Note_off_c, 0, 55, 66
1, 91807, Note_off_c, 0, 74, 63
1, 91808, Note_off_c, 0, 50, 58
1, 91822, Note_off_c, 0, 54, 54
1, 91878, Note_on_c, 0, 59, 46
1, 91891, Note_on_c, 0, 62, 84
1, 91893, Note_on_c, 0, 55, 54
1, 91894, Note_on_c, 0, 50, 69
1, 91894, Note_on_c, 0, 71, 75
1, 91897, Note_on_c, 0, 74, 79
1, 91906, Note_on_c, 0, 67, 59
1, 91919, Note_off_c, 0, 62, 67
1, 91923, Note_off_c, 0, 74, 60
1, 91927, Note_off_c, 0, 67, 67
1, 91933, Note_off_c, 0, 71, 61
1, 91937, Note_off_c, 0, 59, 61
1, 91939, Note_off_c, 0, 55, 62
1, 91949, Note_off_c, 0, 50, 59
1, 92014, Note_on_c, 0, 59, 72
1, 92014, Note_on_c, 0, 62, 85
1, 92014, Note_on_c, 0, 74, 79
1, 92018, Note_on_c, 0, 71, 80
1, 92019, Note_on_c, 0, 50, 72
1, 92020, Note_on_c, 0, 67, 59
1, 92021, Note_on_c, 0, 55, 69
1, 92058, Note_off_c, 0, 62, 59
1, 92058, Note_off_c, 0, 67, 65
1, 92060, Note_off_c, 0, 59, 61
1, 92066, Note_off_c, 0, 74, 66
1, 92070, Note_off_c, 0, 50, 60
1, 92070, Note_off_c, 0, 55, 64
1, 92076, Note_off_c, 0, 71, 64
1, 92142, Note_on_c, 0, 59, 80
1, 92146, Note_on_c, 0, 55, 71
1, 92146, Note_on_c, 0, 62, 88
1, 92147, Note_on_c, 0, 50, 78
1, 92147, Note_on_c, 0, 74, 81
1, 92149, Note_on_c, 0, 71, 78
1, 92153, Note_on_c, 0, 67, 70
1, 92181, Note_off_c, 0, 62, 60
1, 92185, Note_off_c, 0, 59, 58
1, 92189, Note_off_c, 0, 67, 62
1, 92196, Note_off_c, 0, 50, 62
1, 92198, Note_off_c, 0, 55, 65
1, 92204, Note_off_c, 0, 71, 63
1, 92208, Note_off_c, 0, 74, 63
1, 92264, Note_on_c, 0, 74, 84
1, 92266, Note_on_c, 0, 62, 98
1, 92266, Note_on_c, 0, 50, 84
1, 92266, Note_on_c, 0, 59, 86
1, 92267, Note_on_c, 0, 55, 70
1, 92271, Note_on_c, 0, 71, 78
1, 92284, Note_on_c, 0, 67, 66
1, 92300, Note_off_c, 0, 67, 70
1, 92302, Note_off_c, 0, 62, 66
1, 92309, Note_off_c, 0, 59, 64
1, 92321, Note_off_c, 0, 71, 68
1, 92325, Note_off_c, 0, 50, 61
1, 92325, Note_off_c, 0, 55, 64
1, 92325, Note_off_c, 0, 74, 66
1, 92400, Note_on_c, 0, 71, 107
1, 92405, Note_on_c, 0, 59, 100
1, 92463, Note_off_c, 0, 59, 62
1, 92501, Note_off_c, 0, 71, 58
1, 92548, Note_on_c, 0, 64, 101
1, 92551, Note_on_c, 0, 59, 86
1, 92551, Note_on_c, 0, 76, 92
1, 92553, Note_on_c, 0, 67, 79
1, 92560, Note_on_c, 0, 52, 80
1, 92563, Note_on_c, 0, 55, 73
1, 92563, Note_on_c, 0, 71, 60
1, 92582, Note_off_c, 0, 71, 70
1, 92590, Note_off_c, 0, 64, 65
1, 92591, Note_off_c, 0, 67, 60
1, 92607, Note_off_c, 0, 59, 61
1, 92615, Note_off_c, 0, 52, 66
1, 92615, Note_off_c, 0, 55, 64
1, 92615, Note_off_c, 0, 76, 66
1, 92637, Poly_aftertouch_c, 0, 72, 127
1, 92650, Poly_aftertouch_c, 0, 69, 0
1, 92672, Poly_aftertouch_c, 0, 72, 0
1, 92684, Note_on_c, 0, 76, 100
1, 92686, Note_on_c, 0, 64, 97
1, 92689, Note_on_c, 0, 67, 89
1, 92690, Note_on_c, 0, 59, 82
1, 92694, Note_on_c, 0, 55, 72
1, 92696, Note_on_c, 0, 52, 80
1, 92707, Note_off_c, 0, 59, 73
1, 92723, Note_off_c, 0, 55, 66
1, 92731, Note_off_c, 0, 64, 62
1, 92733, Note_off_c, 0, 67, 61
1, 92743, Note_off_c, 0, 52, 68
1, 92743, Note_off_c, 0, 76, 60
1, 92888, Control_c, 0, 67, 10
1, 92903, Control_c, 0, 67, 22
1, 92918, Control_c, 0, 64, 90
1, 92918, Control_c, 0, 67, 31
1, 92932, Control_c, 0, 64, 56
1, 92932, Control_c, 0, 67, 32
1, 92946, Note_on_c, 0, 42, 110
1, 92946, Note_on_c, 0, 30, 107
1, 92947, Control_c, 0, 64, 29
1, 92962, Control_c, 0, 64, 0
1, 92977, Control_c, 0, 64, 15
1, 92977, Control_c, 0, 67, 29
1, 92990, Note_on_c, 0, 41, 35
1, 92992, Control_c, 0, 64, 40
1, 92992, Control_c, 0, 67, 26
1, 93004, Note_off_c, 0, 30, 66
1, 93006, Control_c, 0, 64, 71
1, 93011, Note_on_c, 0, 61, 105
1, 93011, Note_on_c, 0, 73, 108
1, 93012, Note_off_c, 0, 42, 55
1, 93018, Note_on_c, 0, 66, 97
1, 93021, Control_c, 0, 64, 127
1, 93027, Note_off_c, 0, 41, 58
1, 93036, Control_c, 0, 67, 25
1, 93044, Note_off_c, 0, 66, 62
1, 93044, Note_off_c, 0, 61, 69
1, 93050, Control_c, 0, 67, 24
1, 93065, Control_c, 0, 67, 22
1, 93068, Note_off_c, 0, 73, 65
1, 93080, Control_c, 0, 67, 21
1, 93125, Control_c, 0, 67, 22
1, 93140, Control_c, 0, 67, 23
1, 93155, Control_c, 0, 67, 24
1, 93185, Control_c, 0, 67, 24
1, 93215, Control_c, 0, 67, 25
1, 93229, Control_c, 0, 67, 25
1, 93274, Control_c, 0, 67, 25
1, 93289, Control_c, 0, 67, 24
1, 93297, Note_on_c, 0, 78, 88
1, 93299, Note_on_c, 0, 66, 85
1, 93302, Note_on_c, 0, 71, 58
1, 93304, Note_on_c, 0, 59, 71
1, 93304, Control_c, 0, 67, 23
1, 93304, Note_on_c, 0, 61, 76
1, 93307, Note_on_c, 0, 54, 70
1, 93311, Note_on_c, 0, 73, 51
1, 93328, Note_on_c, 0, 49, 53
1, 93329, Note_off_c, 0, 66, 66
1, 93334, Control_c, 0, 67, 24
1, 93334, Note_on_c, 0, 56, 37
1, 93337, Note_off_c, 0, 71, 66
1, 93338, Note_off_c, 0, 73, 63
1, 93341, Note_off_c, 0, 61, 54
1, 93352, Note_off_c, 0, 78, 64
1, 93357, Note_off_c, 0, 49, 58
1, 93363, Control_c, 0, 67, 25
1, 93367, Note_off_c, 0, 56, 51
1, 93372, Note_off_c, 0, 59, 53
1, 93380, Note_off_c, 0, 54, 59
1, 93393, Control_c, 0, 67, 25
1, 93499, Note_on_c, 0, 78, 97
1, 93502, Note_on_c, 0, 59, 68
1, 93503, Note_on_c, 0, 54, 72
1, 93503, Note_on_c, 0, 61, 76
1, 93509, Note_on_c, 0, 66, 81
1, 93511, Control_c, 0, 67, 26
1, 93515, Note_on_c, 0, 73, 67
1, 93526, Note_on_c, 0, 71, 48
1, 93526, Control_c, 0, 67, 26
1, 93535, Note_on_c, 0, 56, 41
1, 93540, Note_off_c, 0, 66, 66
1, 93541, Control_c, 0, 67, 27
1, 93552, Note_on_c, 0, 49, 26
1, 93558, Note_off_c, 0, 61, 54
1, 93559, Note_off_c, 0, 71, 60
1, 93563, Note_off_c, 0, 73, 60
1, 93571, Note_off_c, 0, 78, 64
1, 93575, Note_off_c, 0, 56, 55
1, 93581, Note_off_c, 0, 59, 58
1, 93591, Note_off_c, 0, 49, 55
1, 93592, Note_off_c, 0, 54, 63
1, 93670, Note_on_c, 0, 78, 93
1, 93673, Note_on_c, 0, 61, 76
1, 93674, Note_on_c, 0, 66, 90
1, 93678, Note_on_c, 0, 71, 56
1, 93679, Note_on_c, 0, 73, 73
1, 93681, Note_on_c, 0, 59, 70
1, 93682, Control_c, 0, 67, 28
1, 93685, Note_on_c, 0, 54, 72
1, 93686, Note_on_c, 0, 49, 58
1, 93692, Note_on_c, 0, 56, 39
1, 93706, Note_off_c, 0, 66, 59
1, 93712, Control_c, 0, 67, 28
1, 93713, Note_off_c, 0, 71, 67
1, 93718, Note_off_c, 0, 73, 62
1, 93721, Note_off_c, 0, 61, 61
1, 93724, Note_off_c, 0, 56, 58
1, 93728, Note_off_c, 0, 49, 62
1, 93730, Note_off_c, 0, 78, 63
1, 93733, Note_off_c, 0, 59, 58
1, 93751, Note_off_c, 0, 54, 62
1, 93806, Note_on_c, 0, 78, 88
1, 93809, Note_on_c, 0, 61, 85
1, 93811, Note_on_c, 0, 66, 87
1, 93818, Note_on_c, 0, 59, 66
1, 93821, Note_on_c, 0, 54, 57
1, 93821, Note_on_c, 0, 71, 63
1, 93830, Control_c, 0, 67, 29
1, 93831, Note_on_c, 0, 49, 45
1, 93831, Note_on_c, 0, 73, 56
1, 93834, Note_on_c, 0, 56, 37
1, 93851, Note_off_c, 0, 66, 60
1, 93853, Note_off_c, 0, 73, 65
1, 93855, Note_off_c, 0, 61, 64
1, 93860, Note_off_c, 0, 71, 65
1, 93861, Note_off_c, 0, 56, 60
1, 93867, Note_off_c, 0, 49, 53
1, 93870, Note_off_c, 0, 54, 59
1, 93870, Note_off_c, 0, 59, 62
1, 93870, Note_off_c, 0, 78, 63
1, 93936, Note_on_c, 0, 61, 89
1, 93939, Note_on_c, 0, 78, 86
1, 93941, Note_on_c, 0, 66, 93
1, 93944, Note_on_c, 0, 71, 76
1, 93945, Note_on_c, 0, 59, 68
1, 93951, Note_on_c, 0, 49, 60
1, 93960, Note_on_c, 0, 56, 38
1, 93980, Note_off_c, 0, 66, 63
1, 93983, Note_on_c, 0, 54, 42
1, 93983, Note_off_c, 0, 49, 67
1, 93985, Note_off_c, 0, 61, 64
1, 93986, Note_off_c, 0, 78, 67
1, 93990, Note_off_c, 0, 56, 52
1, 93991, Note_off_c, 0, 71, 66
1, 93997, Note_off_c, 0, 59, 60
1, 94007, Note_off_c, 0, 54, 59
1, 94055, Note_on_c, 0, 73, 108
1, 94057, Note_on_c, 0, 61, 104
1, 94060, Note_on_c, 0, 59, 86
1, 94061, Note_on_c, 0, 66, 102
1, 94061, Note_on_c, 0, 54, 89
1, 94071, Note_on_c, 0, 56, 52
1, 94078, Note_on_c, 0, 49, 77
1, 94083, Control_c, 0, 67, 29
1, 94091, Note_on_c, 0, 78, 46
1, 94097, Control_c, 0, 67, 30
1, 94102, Note_off_c, 0, 66, 58
1, 94103, Note_off_c, 0, 56, 56
1, 94110, Note_on_c, 0, 51, 38
1, 94119, Note_off_c, 0, 61, 64
1, 94120, Note_off_c, 0, 78, 56
1, 94124, Note_off_c, 0, 49, 62
1, 94127, Note_off_c, 0, 59, 60
1, 94128, Note_off_c, 0, 73, 62
1, 94135, Note_off_c, 0, 54, 64
1, 94142, Control_c, 0, 67, 29
1, 94145, Note_off_c, 0, 51, 52
1, 94193, Note_on_c, 0, 66, 84
1, 94193, Note_on_c, 0, 73, 69
1, 94194, Note_on_c, 0, 78, 77
1, 94196, Note_on_c, 0, 61, 84
1, 94199, Note_on_c, 0, 59, 74
1, 94205, Note_on_c, 0, 54, 69
1, 94215, Note_on_c, 0, 56, 42
1, 94217, Note_off_c, 0, 66, 61
1, 94222, Note_on_c, 0, 49, 65
1, 94228, Note_off_c, 0, 73, 56
1, 94234, Note_off_c, 0, 61, 53
1, 94239, Note_off_c, 0, 56, 61
1, 94249, Note_off_c, 0, 59, 58
1, 94253, Note_off_c, 0, 49, 67
1, 94258, Note_off_c, 0, 78, 64
1, 94265, Note_off_c, 0, 54, 62
1, 94321, Note_on_c, 0, 78, 83
1, 94323, Note_on_c, 0, 66, 87
1, 94324, Note_on_c, 0, 59, 66
1, 94325, Note_on_c, 0, 54, 64
1, 94326, Note_on_c, 0, 61, 77
1, 94332, Note_on_c, 0, 73, 72
1, 94335, Note_on_c, 0, 49, 65
1, 94345, Note_on_c, 0, 56, 33
1, 94350, Note_off_c, 0, 66, 65
1, 94355, Note_off_c, 0, 61, 65
1, 94356, Note_on_c, 0, 75, 44
1, 94358, Control_c, 0, 67, 30
1, 94361, Note_off_c, 0, 73, 64
1, 94368, Note_off_c, 0, 49, 63
1, 94373, Note_off_c, 0, 56, 54
1, 94378, Note_off_c, 0, 78, 64
1, 94379, Note_off_c, 0, 59, 60
1, 94387, Note_off_c, 0, 75, 48
1, 94389, Note_off_c, 0, 54, 63
1, 94438, Note_on_c, 0, 61, 83
1, 94440, Note_on_c, 0, 78, 85
1, 94440, Note_on_c, 0, 66, 94
1, 94446, Note_on_c, 0, 59, 67
1, 94449, Note_on_c, 0, 73, 72
1, 94454, Note_on_c, 0, 54, 62
1, 94463, Note_on_c, 0, 56, 47
1, 94466, Note_on_c, 0, 75, 50
1, 94472, Note_on_c, 0, 49, 54
1, 94484, Note_off_c, 0, 61, 65
1, 94484, Note_off_c, 0, 66, 62
1, 94489, Note_off_c, 0, 75, 58
1, 94490, Note_off_c, 0, 56, 59
1, 94493, Note_off_c, 0, 49, 64
1, 94496, Note_off_c, 0, 73, 57
1, 94499, Note_off_c, 0, 59, 62
1, 94504, Note_off_c, 0, 78, 63
1, 94511, Note_off_c, 0, 54, 64
1, 94535, Control_c, 0, 67, 29
1, 94550, Control_c, 0, 67, 27
1, 94562, Note_on_c, 0, 61, 84
1, 94562, Note_on_c, 0, 59, 67
1, 94565, Control_c, 0, 67, 23
1, 94568, Note_on_c, 0, 66, 103
1, 94568, Note_on_c, 0, 78, 93
1, 94569, Note_on_c, 0, 49, 63
1, 94571, Note_on_c, 0, 73, 87
1, 94572, Note_on_c, 0, 54, 66
1, 94579, Note_on_c, 0, 56, 48
1, 94580, Control_c, 0, 67, 18
1, 94586, Note_off_c, 0, 59, 66
1, 94589, Note_off_c, 0, 61, 66
1, 94595, Control_c, 0, 67, 8
1, 94601, Note_off_c, 0, 56, 66
1, 94609, Control_c, 0, 67, 0
1, 94613, Note_off_c, 0, 54, 61
1, 94621, Note_off_c, 0, 49, 63
1, 94654, Note_off_c, 0, 66, 56
1, 94663, Note_off_c, 0, 78, 61
1, 94695, Note_off_c, 0, 73, 61
1, 94717, Note_on_c, 0, 59, 86
1, 94718, Note_on_c, 0, 66, 101
1, 94719, Note_on_c, 0, 57, 94
1, 94720, Note_on_c, 0, 71, 95
1, 94726, Note_on_c, 0, 45, 73
1, 94736, Note_off_c, 0, 59, 70
1, 94738, Note_off_c, 0, 57, 71
1, 94741, Note_on_c, 0, 52, 65
1, 94747, Note_on_c, 0, 47, 54
1, 94747, Note_on_c, 0, 49, 44
1, 94765, Note_off_c, 0, 52, 64
1, 94777, Note_off_c, 0, 49, 56
1, 94779, Note_off_c, 0, 47, 57
1, 94779, Note_off_c, 0, 45, 63
1, 94791, Note_off_c, 0, 71, 65
1, 94807, Poly_aftertouch_c, 0, 51, 127
1, 94816, Note_off_c, 0, 66, 60
1, 94831, Poly_aftertouch_c, 0, 51, 0
1, 94994, Control_c, 0, 64, 79
1, 95009, Control_c, 0, 64, 48
1, 95017, Note_on_c, 0, 35, 102
1, 95023, Note_on_c, 0, 23, 96
1, 95024, Control_c, 0, 64, 0
1, 95030, Note_on_c, 0, 21, 80
1, 95072, Note_off_c, 0, 21, 35
1, 95082, Note_on_c, 0, 61, 106
1, 95084, Note_on_c, 0, 73, 101
1, 95091, Control_c, 0, 64, 37
1, 95093, Note_on_c, 0, 66, 84
1, 95101, Note_off_c, 0, 23, 65
1, 95106, Control_c, 0, 64, 78
1, 95117, Note_off_c, 0, 61, 71
1, 95120, Note_off_c, 0, 66, 62
1, 95120, Control_c, 0, 64, 127
1, 95122, Note_off_c, 0, 35, 66
1, 95138, Note_on_c, 0, 71, 4
1, 95152, Note_off_c, 0, 73, 66
1, 95187, Note_off_c, 0, 71, 54
1, 95337, Poly_aftertouch_c, 0, 73, 127
1, 95361, Poly_aftertouch_c, 0, 78, 127
1, 95373, Poly_aftertouch_c, 0, 78, 0
1, 95382, Poly_aftertouch_c, 0, 73, 0
1, 95396, Note_on_c, 0, 71, 97
1, 95396, Note_on_c, 0, 83, 95
1, 95399, Note_on_c, 0, 73, 61
1, 95405, Note_on_c, 0, 67, 85
1, 95406, Note_on_c, 0, 76, 60
1, 95407, Note_on_c, 0, 78, 26
1, 95411, Note_on_c, 0, 64, 73
1, 95418, Note_on_c, 0, 55, 68
1, 95418, Note_on_c, 0, 61, 74
1, 95420, Note_on_c, 0, 59, 67
1, 95425, Note_off_c, 0, 76, 68
1, 95426, Note_off_c, 0, 71, 68
1, 95426, Note_off_c, 0, 73, 70
1, 95432, Note_off_c, 0, 83, 72
1, 95441, Note_off_c, 0, 78, 47
1, 95449, Note_off_c, 0, 67, 59
1, 95480, Note_off_c, 0, 64, 53
1, 95489, Note_off_c, 0, 59, 56
1, 95526, Note_off_c, 0, 55, 39
1, 95587, Note_off_c, 0, 61, 29
1, 95671, Note_on_c, 0, 83, 99
1, 95674, Note_on_c, 0, 71, 92
1, 95677, Note_on_c, 0, 67, 82
1, 95682, Note_on_c, 0, 73, 74
1, 95683, Note_on_c, 0, 61, 69
1, 95684, Note_on_c, 0, 72, 72
1, 95685, Note_on_c, 0, 59, 61
1, 95686, Note_on_c, 0, 64, 63
1, 95691, Note_on_c, 0, 55, 72
1, 95691, Note_off_c, 0, 71, 75
1, 95697, Note_off_c, 0, 73, 71
1, 95698, Note_off_c, 0, 72, 69
1, 95717, Note_off_c, 0, 83, 63
1, 95730, Note_off_c, 0, 67, 60
1, 95747, Note_off_c, 0, 64, 61
1, 95752, Note_off_c, 0, 55, 48
1, 95756, Note_off_c, 0, 59, 61
1, 95762, Note_off_c, 0, 61, 62
1, 95771, Poly_aftertouch_c, 0, 80, 0
1, 95873, Note_on_c, 0, 83, 93
1, 95879, Note_on_c, 0, 71, 88
1, 95880, Note_on_c, 0, 73, 85
1, 95882, Note_on_c, 0, 67, 82
1, 95884, Note_on_c, 0, 61, 69
1, 95884, Note_on_c, 0, 64, 67
1, 95890, Note_on_c, 0, 55, 60
1, 95894, Note_on_c, 0, 59, 50
1, 95899, Note_off_c, 0, 73, 72
1, 95900, Note_off_c, 0, 71, 70
1, 95906, Note_on_c, 0, 60, 58
1, 95915, Note_off_c, 0, 67, 56
1, 95918, Note_off_c, 0, 83, 65
1, 95926, Note_off_c, 0, 60, 62
1, 95930, Note_off_c, 0, 55, 50
1, 95939, Note_off_c, 0, 64, 60
1, 95940, Note_off_c, 0, 59, 56
1, 95941, Note_off_c, 0, 61, 62
1, 96023, Note_on_c, 0, 83, 94
1, 96026, Note_on_c, 0, 67, 82
1, 96028, Note_on_c, 0, 71, 91
1, 96031, Note_on_c, 0, 73, 86
1, 96037, Note_on_c, 0, 59, 71
1, 96037, Note_on_c, 0, 64, 63
1, 96042, Note_on_c, 0, 61, 68
1, 96048, Note_off_c, 0, 71, 71
1, 96048, Note_off_c, 0, 73, 73
1, 96055, Note_on_c, 0, 55, 54
1, 96064, Note_off_c, 0, 83, 66
1, 96067, Note_off_c, 0, 67, 59
1, 96076, Note_off_c, 0, 61, 60
1, 96079, Note_off_c, 0, 55, 58
1, 96082, Note_off_c, 0, 64, 60
1, 96088, Note_off_c, 0, 59, 62
1, 96155, Note_on_c, 0, 83, 98
1, 96156, Note_on_c, 0, 67, 83
1, 96159, Note_on_c, 0, 71, 95
1, 96161, Note_on_c, 0, 64, 68
1, 96162, Note_on_c, 0, 59, 66
1, 96163, Note_on_c, 0, 55, 62
1, 96165, Note_on_c, 0, 73, 81
1, 96170, Note_on_c, 0, 61, 60
1, 96180, Note_off_c, 0, 71, 69
1, 96183, Note_off_c, 0, 73, 73
1, 96190, Note_off_c, 0, 67, 61
1, 96196, Note_off_c, 0, 61, 66
1, 96198, Note_off_c, 0, 83, 68
1, 96198, Note_off_c, 0, 55, 61
1, 96217, Note_off_c, 0, 59, 61
1, 96219, Note_off_c, 0, 64, 58
1, 96273, Note_on_c, 0, 64, 58
1, 96275, Note_on_c, 0, 83, 89
1, 96276, Note_on_c, 0, 67, 86
1, 96279, Note_on_c, 0, 71, 88
1, 96283, Note_on_c, 0, 59, 59
1, 96284, Note_on_c, 0, 55, 66
1, 96288, Note_on_c, 0, 73, 69
1, 96300, Note_off_c, 0, 71, 70
1, 96309, Note_off_c, 0, 73, 70
1, 96310, Note_off_c, 0, 67, 58
1, 96312, Note_on_c, 0, 61, 17
1, 96316, Note_off_c, 0, 55, 64
1, 96318, Note_off_c, 0, 83, 66
1, 96333, Note_off_c, 0, 59, 61
1, 96333, Note_off_c, 0, 64, 61
1, 96356, Note_off_c, 0, 61, 55
1, 96387, Note_on_c, 0, 83, 94
1, 96390, Note_on_c, 0, 71, 92
1, 96391, Note_on_c, 0, 64, 69
1, 96391, Note_on_c, 0, 67, 83
1, 96396, Note_on_c, 0, 59, 60
1, 96401, Note_on_c, 0, 55, 69
1, 96421, Note_off_c, 0, 67, 54
1, 96421, Note_off_c, 0, 71, 64
1, 96423, Note_off_c, 0, 55, 71
1, 96437, Note_off_c, 0, 83, 63
1, 96449, Note_off_c, 0, 59, 60
1, 96452, Note_off_c, 0, 64, 61
1, 96492, Note_on_c, 0, 83, 86
1, 96493, Note_on_c, 0, 71, 98
1, 96496, Note_on_c, 0, 64, 63
1, 96497, Note_on_c, 0, 59, 64
1, 96497, Note_on_c, 0, 67, 86
1, 96506, Note_on_c, 0, 55, 72
1, 96529, Note_off_c, 0, 71, 69
1, 96545, Note_off_c, 0, 55, 64
1, 96551, Note_off_c, 0, 83, 66
1, 96552, Note_off_c, 0, 67, 61
1, 96559, Note_off_c, 0, 64, 60
1, 96571, Note_off_c, 0, 59, 62
1, 96613, Note_on_c, 0, 73, 104
1, 96621, Note_on_c, 0, 61, 95
1, 96625, Note_on_c, 0, 64, 65
1, 96651, Note_on_c, 0, 78, 36
1, 96653, Note_on_c, 0, 55, 27
1, 96660, Note_off_c, 0, 64, 62
1, 96684, Note_off_c, 0, 78, 51
1, 96695, Note_off_c, 0, 55, 53
1, 96705, Note_off_c, 0, 73, 59
1, 96746, Note_on_c, 0, 71, 99
1, 96747, Note_on_c, 0, 83, 94
1, 96751, Note_on_c, 0, 73, 68
1, 96754, Note_on_c, 0, 67, 86
1, 96765, Note_on_c, 0, 78, 58
1, 96770, Note_on_c, 0, 64, 56
1, 96782, Note_off_c, 0, 67, 66
1, 96783, Note_off_c, 0, 71, 68
1, 96789, Note_off_c, 0, 64, 64
1, 96790, Note_off_c, 0, 78, 59
1, 96797, Note_off_c, 0, 73, 62
1, 96800, Note_off_c, 0, 83, 62
1, 96805, Note_on_c, 0, 55, 28
1, 96821, Note_off_c, 0, 61, 59
1, 96845, Note_off_c, 0, 55, 0
1, 96856, Note_on_c, 0, 64, 68
1, 96860, Note_on_c, 0, 67, 72
1, 96863, Note_on_c, 0, 59, 62
1, 96867, Note_on_c, 0, 55, 42
1, 96869, Note_on_c, 0, 61, 56
1, 96869, Note_on_c, 0, 71, 98
1, 96875, Note_on_c, 0, 83, 88
1, 96878, Note_off_c, 0, 67, 68
1, 96885, Note_on_c, 0, 73, 76
1, 96890, Note_off_c, 0, 64, 64
1, 96904, Note_off_c, 0, 83, 65
1, 96905, Note_off_c, 0, 59, 65
1, 96906, Note_off_c, 0, 61, 68
1, 96911, Note_off_c, 0, 71, 68
1, 96911, Note_off_c, 0, 73, 64
1, 96920, Note_off_c, 0, 55, 65
1, 96959, Control_c, 0, 67, 12
1, 96973, Control_c, 0, 67, 13
1, 97078, Control_c, 0, 64, 113
1, 97092, Control_c, 0, 64, 59
1, 97103, Note_on_c, 0, 30, 99
1, 97105, Note_on_c, 0, 42, 106
1, 97107, Control_c, 0, 64, 12
1, 97122, Control_c, 0, 64, 0
1, 97137, Control_c, 0, 67, 12
1, 97152, Control_c, 0, 67, 11
1, 97167, Control_c, 0, 67, 10
1, 97171, Note_on_c, 0, 61, 101
1, 97172, Note_on_c, 0, 73, 102
1, 97182, Control_c, 0, 64, 37
1, 97183, Note_off_c, 0, 30, 65
1, 97186, Note_on_c, 0, 66, 73
1, 97197, Control_c, 0, 64, 69
1, 97209, Note_off_c, 0, 61, 70
1, 97211, Note_off_c, 0, 66, 67
1, 97212, Control_c, 0, 64, 127
1, 97212, Note_off_c, 0, 42, 60
1, 97227, Control_c, 0, 67, 8
1, 97239, Note_off_c, 0, 73, 64
1, 97280, Poly_aftertouch_c, 0, 70, 0
1, 97294, Control_c, 0, 67, 8
1, 97309, Control_c, 0, 67, 9
1, 97353, Control_c, 0, 67, 8
1, 97383, Control_c, 0, 67, 8
1, 97427, Control_c, 0, 67, 0
1, 97441, Note_on_c, 0, 78, 85
1, 97445, Note_on_c, 0, 66, 77
1, 97447, Note_on_c, 0, 59, 61
1, 97448, Note_on_c, 0, 61, 59
1, 97450, Note_on_c, 0, 54, 66
1, 97456, Note_on_c, 0, 71, 56
1, 97456, Note_on_c, 0, 73, 47
1, 97471, Note_off_c, 0, 66, 64
1, 97472, Note_on_c, 0, 49, 52
1, 97480, Note_off_c, 0, 61, 66
1, 97483, Note_off_c, 0, 73, 63
1, 97485, Note_on_c, 0, 56, 26
1, 97485, Note_off_c, 0, 71, 67
1, 97497, Note_off_c, 0, 78, 63
1, 97497, Note_off_c, 0, 59, 52
1, 97501, Note_off_c, 0, 49, 58
1, 97517, Note_off_c, 0, 54, 60
1, 97522, Note_off_c, 0, 56, 42
1, 97595, Note_on_c, 0, 78, 83
1, 97598, Note_on_c, 0, 61, 70
1, 97599, Note_on_c, 0, 59, 59
1, 97601, Note_on_c, 0, 66, 79
1, 97603, Note_on_c, 0, 54, 58
1, 97608, Note_on_c, 0, 73, 54
1, 97626, Note_on_c, 0, 56, 40
1, 97626, Note_off_c, 0, 66, 65
1, 97635, Note_off_c, 0, 61, 64
1, 97639, Note_off_c, 0, 73, 65
1, 97647, Poly_aftertouch_c, 0, 49, 127
1, 97650, Note_off_c, 0, 78, 63
1, 97651, Note_off_c, 0, 59, 56
1, 97657, Note_off_c, 0, 56, 49
1, 97663, Note_off_c, 0, 54, 62
1, 97690, Poly_aftertouch_c, 0, 49, 0
1, 97730, Note_on_c, 0, 61, 74
1, 97737, Note_on_c, 0, 78, 81
1, 97741, Note_on_c, 0, 66, 82
1, 97743, Note_on_c, 0, 54, 61
1, 97745, Note_on_c, 0, 73, 62
1, 97747, Note_on_c, 0, 56, 43
1, 97751, Note_on_c, 0, 59, 32
1, 97767, Note_off_c, 0, 61, 60
1, 97772, Note_off_c, 0, 66, 63
1, 97775, Note_off_c, 0, 56, 59
1, 97775, Note_off_c, 0, 73, 66
1, 97788, Note_off_c, 0, 78, 65
1, 97792, Note_off_c, 0, 59, 49
1, 97798, Note_off_c, 0, 54, 63
1, 97852, Note_on_c, 0, 61, 71
1, 97857, Note_on_c, 0, 54, 63
1, 97859, Note_on_c, 0, 78, 79
1, 97862, Note_on_c, 0, 66, 85
1, 97865, Note_on_c, 0, 73, 75
1, 97867, Note_on_c, 0, 49, 43
1, 97872, Note_off_c, 0, 61, 73
1, 97873, Note_on_c, 0, 59, 37
1, 97884, Note_on_c, 0, 56, 23
1, 97888, Note_off_c, 0, 54, 66
1, 97897, Note_off_c, 0, 59, 58
1, 97899, Note_off_c, 0, 66, 62
1, 97899, Note_off_c, 0, 49, 60
1, 97909, Note_off_c, 0, 78, 64
1, 97909, Note_off_c, 0, 73, 61
1, 97918, Note_off_c, 0, 56, 51
1, 97930, Control_c, 0, 64, 86
1, 97945, Control_c, 0, 64, 79
1, 97957, Note_on_c, 0, 59, 88
1, 97960, Note_on_c, 0, 47, 100
1, 97960, Control_c, 0, 64, 83
1, 97971, Note_on_c, 0, 71, 91
1, 97975, Note_on_c, 0, 66, 92
1, 97976, Control_c, 0, 64, 127
1, 97993, Note_off_c, 0, 59, 62
1, 97998, Note_off_c, 0, 47, 66
1, 98017, Note_off_c, 0, 66, 61
1, 98034, Note_off_c, 0, 71, 64
1, 98072, Control_c, 0, 64, 100
1, 98087, Control_c, 0, 64, 72
1, 98096, Note_on_c, 0, 61, 104
1, 98100, Note_on_c, 0, 58, 70
1, 98100, Note_on_c, 0, 73, 96
1, 98102, Control_c, 0, 64, 75
1, 98103, Note_on_c, 0, 66, 99
1, 98110, Note_on_c, 0, 54, 77
1, 98115, Note_on_c, 0, 59, 71
1, 98117, Control_c, 0, 64, 127
1, 98124, Note_on_c, 0, 56, 59
1, 98130, Note_off_c, 0, 58, 49
1, 98139, Note_off_c, 0, 61, 63
1, 98141, Note_on_c, 0, 49, 36
1, 98146, Note_off_c, 0, 59, 61
1, 98147, Note_off_c, 0, 66, 59
1, 98151, Note_off_c, 0, 56, 67
1, 98168, Note_off_c, 0, 54, 63
1, 98168, Note_off_c, 0, 73, 61
1, 98187, Note_off_c, 0, 49, 53
1, 98222, Note_on_c, 0, 61, 87
1, 98225, Note_on_c, 0, 54, 68
1, 98231, Note_on_c, 0, 66, 96
1, 98232, Note_on_c, 0, 59, 73
1, 98247, Note_on_c, 0, 56, 50
1, 98256, Note_on_c, 0, 49, 38
1, 98263, Note_off_c, 0, 61, 64
1, 98273, Note_on_c, 0, 78, 41
1, 98276, Note_off_c, 0, 56, 57
1, 98280, Note_off_c, 0, 59, 61
1, 98285, Note_off_c, 0, 66, 63
1, 98288, Note_off_c, 0, 49, 55
1, 98291, Note_off_c, 0, 54, 63
1, 98304, Note_off_c, 0, 78, 54
1, 98342, Note_on_c, 0, 61, 87
1, 98343, Note_on_c, 0, 54, 67
1, 98343, Note_on_c, 0, 59, 63
1, 98350, Note_on_c, 0, 66, 93
1, 98356, Note_on_c, 0, 49, 73
1, 98368, Note_on_c, 0, 56, 49
1, 98392, Note_off_c, 0, 56, 62
1, 98392, Note_off_c, 0, 61, 63
1, 98404, Note_off_c, 0, 49, 62
1, 98405, Note_off_c, 0, 59, 58
1, 98406, Note_off_c, 0, 66, 62
1, 98413, Note_off_c, 0, 54, 63
1, 98443, Control_c, 0, 64, 74
1, 98458, Control_c, 0, 64, 62
1, 98461, Note_on_c, 0, 62, 105
1, 98469, Note_on_c, 0, 74, 103
1, 98472, Control_c, 0, 64, 61
1, 98481, Note_on_c, 0, 50, 75
1, 98482, Note_on_c, 0, 58, 52
1, 98483, Note_off_c, 0, 58, 127
1, 98484, Note_on_c, 0, 54, 62
1, 98487, Control_c, 0, 64, 81
1, 98502, Control_c, 0, 64, 127
1, 98510, Note_off_c, 0, 50, 66
1, 98517, Note_off_c, 0, 62, 64
1, 98523, Note_off_c, 0, 54, 62
1, 98538, Poly_aftertouch_c, 0, 56, 127
1, 98567, Poly_aftertouch_c, 0, 56, 0
1, 98587, Note_off_c, 0, 74, 0
1, 98601, Note_on_c, 0, 66, 97
1, 98603, Note_on_c, 0, 54, 84
1, 98603, Note_on_c, 0, 62, 87
1, 98604, Note_on_c, 0, 59, 78
1, 98610, Note_on_c, 0, 50, 71
1, 98617, Note_on_c, 0, 74, 37
1, 98643, Note_off_c, 0, 62, 57
1, 98655, Note_off_c, 0, 50, 57
1, 98655, Note_off_c, 0, 66, 62
1, 98672, Note_off_c, 0, 54, 60
1, 98681, Note_off_c, 0, 59, 59
1, 98706, Note_off_c, 0, 74, 61
1, 98738, Note_on_c, 0, 64, 97
1, 98744, Note_on_c, 0, 66, 112
1, 98745, Note_on_c, 0, 59, 74
1, 98745, Note_on_c, 0, 76, 97
1, 98750, Note_on_c, 0, 52, 82
1, 98750, Note_on_c, 0, 54, 81
1, 98764, Note_on_c, 0, 71, 65
1, 98773, Note_off_c, 0, 64, 64
1, 98795, Note_off_c, 0, 59, 62
1, 98801, Note_off_c, 0, 71, 50
1, 98815, Note_off_c, 0, 52, 66
1, 98824, Note_off_c, 0, 54, 63
1, 98827, Poly_aftertouch_c, 0, 74, 127
1, 98860, Poly_aftertouch_c, 0, 74, 0
1, 98862, Note_off_c, 0, 76, 63
1, 98896, Note_off_c, 0, 66, 31
1, 99102, Control_c, 0, 64, 59
1, 99106, Note_on_c, 0, 38, 100
1, 99112, Note_on_c, 0, 26, 98
1, 99115, Note_on_c, 0, 24, 84
1, 99117, Control_c, 0, 64, 19
1, 99132, Control_c, 0, 64, 0
1, 99145, Note_on_c, 0, 36, 31
1, 99146, Note_off_c, 0, 36, 127
1, 99164, Note_off_c, 0, 24, 61
1, 99181, Note_on_c, 0, 76, 96
1, 99183, Note_on_c, 0, 64, 100
1, 99191, Control_c, 0, 64, 42
1, 99195, Note_off_c, 0, 26, 60
1, 99200, Note_on_c, 0, 71, 58
1, 99206, Control_c, 0, 64, 101
1, 99218, Note_off_c, 0, 38, 62
1, 99221, Note_off_c, 0, 71, 65
1, 99221, Control_c, 0, 64, 127
1, 99223, Note_off_c, 0, 64, 67
1, 99236, Note_on_c, 0, 70, 23
1, 99237, Note_off_c, 0, 70, 127
1, 99251, Note_off_c, 0, 76, 70
1, 99284, Poly_aftertouch_c, 0, 74, 127
1, 99304, Poly_aftertouch_c, 0, 74, 0
1, 99413, Poly_aftertouch_c, 0, 78, 127
1, 99422, Poly_aftertouch_c, 0, 76, 127
1, 99443, Poly_aftertouch_c, 0, 78, 0
1, 99447, Poly_aftertouch_c, 0, 76, 0
1, 99468, Note_on_c, 0, 76, 46
1, 99469, Note_on_c, 0, 57, 88
1, 99473, Note_on_c, 0, 50, 73
1, 99476, Note_on_c, 0, 83, 86
1, 99477, Note_on_c, 0, 71, 82
1, 99477, Note_on_c, 0, 45, 73
1, 99491, Note_on_c, 0, 74, 54
1, 99516, Note_off_c, 0, 57, 61
1, 99519, Note_off_c, 0, 74, 60
1, 99525, Note_off_c, 0, 71, 63
1, 99544, Note_off_c, 0, 50, 60
1, 99549, Note_off_c, 0, 83, 61
1, 99555, Note_off_c, 0, 45, 57
1, 99582, Note_off_c, 0, 76, 38
1, 99615, Note_on_c, 0, 50, 73
1, 99621, Note_on_c, 0, 57, 80
1, 99628, Note_on_c, 0, 45, 22
1, 99633, Note_on_c, 0, 71, 88
1, 99634, Note_on_c, 0, 76, 73
1, 99634, Note_on_c, 0, 83, 85
1, 99644, Note_on_c, 0, 74, 64
1, 99650, Note_off_c, 0, 50, 63
1, 99657, Note_off_c, 0, 45, 59
1, 99663, Note_off_c, 0, 57, 61
1, 99686, Note_off_c, 0, 74, 52
1, 99695, Note_off_c, 0, 76, 61
1, 99721, Note_off_c, 0, 83, 56
1, 99761, Note_off_c, 0, 71, 62
1, 99762, Note_on_c, 0, 54, 91
1, 99762, Control_c, 0, 64, 95
1, 99777, Control_c, 0, 64, 57
1, 99778, Note_on_c, 0, 61, 49
1, 99791, Control_c, 0, 64, 22
1, 99802, Note_off_c, 0, 61, 62
1, 99806, Control_c, 0, 64, 0
1, 99825, Note_on_c, 0, 53, 8
1, 99834, Note_on_c, 0, 78, 103
1, 99835, Control_c, 0, 64, 22
1, 99835, Control_c, 0, 67, 20
1, 99844, Note_on_c, 0, 71, 86
1, 99847, Note_on_c, 0, 66, 97
1, 99850, Control_c, 0, 64, 53
1, 99850, Control_c, 0, 67, 22
1, 99852, Note_on_c, 0, 62, 80
1, 99860, Note_on_c, 0, 79, 66
1, 99861, Note_on_c, 0, 58, 66
1, 99865, Note_on_c, 0, 74, 57
1, 99865, Control_c, 0, 64, 127
1, 99865, Control_c, 0, 67, 23
1, 99871, Note_on_c, 0, 57, 75
1, 99880, Note_off_c, 0, 53, 27
1, 99889, Note_off_c, 0, 79, 49
1, 99891, Note_off_c, 0, 74, 55
1, 99895, Control_c, 0, 67, 22
1, 99901, Note_off_c, 0, 71, 59
1, 99910, Note_off_c, 0, 66, 60
1, 99910, Control_c, 0, 67, 21
1, 99946, Note_off_c, 0, 78, 62
1, 99952, Note_off_c, 0, 58, 36
1, 99955, Note_off_c, 0, 54, 62
1, 99963, Poly_aftertouch_c, 0, 64, 0
1, 99982, Note_off_c, 0, 57, 39
1, 100013, Note_off_c, 0, 62, 0
1, 100026, Note_on_c, 0, 62, 53
1, 100028, Note_on_c, 0, 57, 68
1, 100029, Control_c, 0, 67, 20
1, 100030, Note_on_c, 0, 71, 88
1, 100032, Note_on_c, 0, 66, 91
1, 100032, Note_on_c, 0, 83, 85
1, 100043, Control_c, 0, 64, 108
1, 100050, Note_on_c, 0, 78, 62
1, 100053, Note_on_c, 0, 74, 48
1, 100058, Control_c, 0, 64, 100
1, 100060, Note_on_c, 0, 54, 35
1, 100068, Note_off_c, 0, 71, 62
1, 100073, Control_c, 0, 64, 97
1, 100073, Note_off_c, 0, 78, 67
1, 100074, Note_off_c, 0, 74, 64
1, 100079, Note_off_c, 0, 66, 63
1, 100083, Note_off_c, 0, 83, 64
1, 100088, Control_c, 0, 64, 83
1, 100088, Control_c, 0, 67, 20
1, 100094, Note_off_c, 0, 62, 64
1, 100096, Note_off_c, 0, 54, 53
1, 100097, Note_off_c, 0, 57, 63
1, 100103, Control_c, 0, 64, 71
1, 100103, Control_c, 0, 67, 19
1, 100117, Control_c, 0, 64, 66
1, 100117, Control_c, 0, 67, 17
1, 100132, Control_c, 0, 64, 69
1, 100132, Control_c, 0, 67, 16
1, 100147, Control_c, 0, 64, 100
1, 100147, Control_c, 0, 67, 15
1, 100161, Control_c, 0, 64, 127
1, 100161, Control_c, 0, 67, 15
1, 100170, Note_on_c, 0, 56, 54
1, 100171, Note_on_c, 0, 59, 49
1, 100175, Note_on_c, 0, 66, 82
1, 100176, Note_on_c, 0, 83, 96
1, 100177, Note_on_c, 0, 71, 90
1, 100180, Note_on_c, 0, 74, 63
1, 100184, Note_on_c, 0, 62, 58
1, 100191, Control_c, 0, 67, 14
1, 100192, Note_on_c, 0, 78, 60
1, 100196, Note_off_c, 0, 56, 59
1, 100198, Note_on_c, 0, 54, 52
1, 100206, Control_c, 0, 67, 13
1, 100215, Note_off_c, 0, 71, 66
1, 100220, Note_off_c, 0, 78, 68
1, 100220, Control_c, 0, 67, 9
1, 100222, Note_off_c, 0, 74, 63
1, 100223, Note_off_c, 0, 66, 60
1, 100226, Note_off_c, 0, 83, 64
1, 100234, Control_c, 0, 67, 0
1, 100243, Note_off_c, 0, 62, 61
1, 100246, Note_off_c, 0, 54, 56
1, 100262, Note_off_c, 0, 59, 59
1, 100306, Note_on_c, 0, 59, 56
1, 100306, Note_on_c, 0, 66, 91
1, 100312, Note_on_c, 0, 62, 70
1, 100312, Note_on_c, 0, 83, 91
1, 100313, Note_on_c, 0, 71, 91
1, 100317, Note_on_c, 0, 78, 72
1, 100321, Note_on_c, 0, 54, 58
1, 100321, Note_on_c, 0, 74, 70
1, 100351, Note_off_c, 0, 71, 67
1, 100353, Note_off_c, 0, 66, 62
1, 100355, Note_off_c, 0, 74, 59
1, 100361, Note_off_c, 0, 78, 58
1, 100365, Note_off_c, 0, 83, 63
1, 100373, Note_off_c, 0, 62, 60
1, 100380, Note_off_c, 0, 54, 57
1, 100391, Note_off_c, 0, 59, 60
1, 100437, Note_on_c, 0, 59, 60
1, 100438, Note_on_c, 0, 66, 92
1, 100440, Note_on_c, 0, 54, 58
1, 100443, Note_on_c, 0, 71, 96
1, 100443, Note_on_c, 0, 83, 94
1, 100449, Note_on_c, 0, 74, 76
1, 100452, Note_on_c, 0, 62, 62
1, 100454, Note_on_c, 0, 78, 78
1, 100483, Note_off_c, 0, 71, 69
1, 100486, Note_on_c, 0, 80, 36
1, 100488, Note_off_c, 0, 66, 62
1, 100491, Note_off_c, 0, 78, 55
1, 100497, Note_off_c, 0, 74, 66
1, 100500, Note_off_c, 0, 83, 63
1, 100515, Note_off_c, 0, 62, 61
1, 100517, Note_off_c, 0, 80, 54
1, 100524, Note_off_c, 0, 54, 58
1, 100525, Note_off_c, 0, 59, 61
1, 100568, Note_on_c, 0, 71, 98
1, 100570, Note_on_c, 0, 83, 93
1, 100571, Note_on_c, 0, 66, 97
1, 100576, Note_on_c, 0, 54, 56
1, 100580, Note_on_c, 0, 74, 71
1, 100580, Note_on_c, 0, 59, 64
1, 100583, Note_on_c, 0, 62, 64
1, 100585, Note_on_c, 0, 78, 70
1, 100604, Note_on_c, 0, 80, 47
1, 100607, Note_off_c, 0, 83, 68
1, 100617, Note_off_c, 0, 71, 67
1, 100629, Note_off_c, 0, 80, 56
1, 100630, Note_off_c, 0, 66, 57
1, 100630, Note_off_c, 0, 74, 64
1, 100634, Note_off_c, 0, 78, 64
1, 100649, Note_off_c, 0, 62, 59
1, 100664, Note_off_c, 0, 54, 61
1, 100664, Note_off_c, 0, 59, 58
1, 100722, Note_on_c, 0, 66, 111
1, 100724, Note_on_c, 0, 78, 116
1, 100732, Note_on_c, 0, 62, 97
1, 100732, Note_on_c, 0, 71, 73
1, 100735, Note_on_c, 0, 59, 80
1, 100741, Note_on_c, 0, 54, 73
1, 100755, Note_off_c, 0, 71, 71
1, 100759, Note_off_c, 0, 66, 68
1, 100767, Note_on_c, 0, 75, 23
1, 100782, Note_off_c, 0, 78, 65
1, 100812, Note_off_c, 0, 75, 46
1, 100813, Note_off_c, 0, 62, 60
1, 100818, Note_off_c, 0, 54, 62
1, 100822, Note_off_c, 0, 59, 61
1, 100906, Note_on_c, 0, 71, 99
1, 100907, Note_on_c, 0, 83, 99
1, 100910, Note_on_c, 0, 62, 81
1, 100916, Note_on_c, 0, 66, 87
1, 100916, Note_on_c, 0, 74, 73
1, 100917, Note_on_c, 0, 59, 70
1, 100923, Note_on_c, 0, 78, 63
1, 100926, Note_on_c, 0, 54, 76
1, 100943, Note_on_c, 0, 75, 13
1, 100949, Note_off_c, 0, 71, 66
1, 100953, Note_off_c, 0, 78, 61
1, 100961, Note_off_c, 0, 74, 56
1, 100962, Note_off_c, 0, 66, 59
1, 100978, Note_off_c, 0, 83, 63
1, 100990, Note_off_c, 0, 75, 28
1, 100992, Note_off_c, 0, 54, 61
1, 100998, Note_off_c, 0, 62, 57
1, 101013, Note_off_c, 0, 59, 59
1, 101080, Note_on_c, 0, 71, 103
1, 101081, Note_on_c, 0, 83, 99
1, 101085, Note_on_c, 0, 74, 85
1, 101086, Note_on_c, 0, 66, 96
1, 101089, Note_on_c, 0, 62, 83
1, 101092, Note_on_c, 0, 59, 71
1, 101102, Note_on_c, 0, 54, 82
1, 101122, Note_off_c, 0, 66, 64
1, 101134, Note_off_c, 0, 62, 63
1, 101141, Note_off_c, 0, 83, 64
1, 101142, Note_off_c, 0, 59, 64
1, 101158, Note_off_c, 0, 54, 66
1, 101167, Note_off_c, 0, 74, 61
1, 101168, Note_off_c, 0, 71, 61
1, 101393, Control_c, 0, 64, 60
1, 101407, Control_c, 0, 64, 32
1, 101415, Note_on_c, 0, 24, 103
1, 101415, Note_on_c, 0, 36, 110
1, 101422, Control_c, 0, 64, 0
1, 101452, Control_c, 0, 64, 17
1, 101467, Control_c, 0, 64, 58
1, 101475, Note_on_c, 0, 66, 113
1, 101477, Note_on_c, 0, 78, 110
1, 101481, Control_c, 0, 64, 127
1, 101484, Note_on_c, 0, 74, 87
1, 101485, Note_off_c, 0, 24, 61
1, 101502, Note_off_c, 0, 36, 64
1, 101502, Note_off_c, 0, 74, 73
1, 101506, Note_off_c, 0, 66, 69
1, 101519, Note_off_c, 0, 78, 72
1, 101983, Note_on_c, 0, 55, 76
1, 101988, Note_on_c, 0, 84, 94
1, 101993, Note_on_c, 0, 50, 67
1, 101996, Note_on_c, 0, 72, 81
1, 101996, Note_on_c, 0, 54, 67
1, 101997, Note_on_c, 0, 74, 70
1, 101999, Note_on_c, 0, 43, 60
1, 101999, Note_on_c, 0, 78, 70
1, 102015, Note_off_c, 0, 55, 61
1, 102017, Note_off_c, 0, 74, 68
1, 102017, Note_off_c, 0, 78, 69
1, 102020, Note_off_c, 0, 72, 66
1, 102031, Note_off_c, 0, 54, 62
1, 102062, Note_off_c, 0, 84, 52
1, 102091, Note_off_c, 0, 50, 58
1, 102116, Note_off_c, 0, 43, 31
1, 102196, Note_on_c, 0, 50, 56
1, 102196, Note_on_c, 0, 84, 98
1, 102200, Note_on_c, 0, 72, 88
1, 102201, Note_on_c, 0, 78, 76
1, 102202, Note_on_c, 0, 74, 80
1, 102205, Note_on_c, 0, 55, 65
1, 102216, Note_on_c, 0, 54, 58
1, 102220, Poly_aftertouch_c, 0, 43, 127
1, 102223, Note_off_c, 0, 50, 67
1, 102229, Note_off_c, 0, 55, 71
1, 102238, Note_off_c, 0, 54, 66
1, 102244, Note_off_c, 0, 78, 53
1, 102249, Note_off_c, 0, 74, 61
1, 102257, Note_off_c, 0, 72, 60
1, 102272, Poly_aftertouch_c, 0, 43, 0
1, 102363, Note_off_c, 0, 84, 53
1, 102422, Control_c, 0, 64, 90
1, 102437, Control_c, 0, 64, 66
1, 102452, Control_c, 0, 64, 59
1, 102456, Note_on_c, 0, 55, 63
1, 102457, Note_on_c, 0, 67, 111
1, 102458, Note_on_c, 0, 64, 92
1, 102458, Note_on_c, 0, 72, 100
1, 102458, Note_on_c, 0, 79, 101
1, 102464, Note_on_c, 0, 60, 87
1, 102467, Control_c, 0, 64, 59
1, 102469, Note_on_c, 0, 76, 85
1, 102482, Control_c, 0, 64, 68
1, 102497, Control_c, 0, 64, 127
1, 102509, Note_on_c, 0, 61, 15
1, 102510, Note_off_c, 0, 61, 127
1, 102551, Note_off_c, 0, 76, 0
1, 102587, Poly_aftertouch_c, 0, 76, 127
1, 102599, Note_off_c, 0, 72, 55
1, 102600, Note_off_c, 0, 67, 58
1, 102648, Poly_aftertouch_c, 0, 76, 0
1, 102657, Note_off_c, 0, 55, 62
1, 102669, Note_off_c, 0, 79, 52
1, 102702, Note_off_c, 0, 64, 25
1, 102738, Note_off_c, 0, 60, 0
1, 102756, Note_on_c, 0, 72, 88
1, 102757, Note_on_c, 0, 84, 90
1, 102758, Note_on_c, 0, 60, 43
1, 102761, Note_on_c, 0, 64, 60
1, 102763, Note_on_c, 0, 79, 69
1, 102764, Note_on_c, 0, 76, 66
1, 102766, Note_on_c, 0, 67, 77
1, 102778, Note_on_c, 0, 55, 63
1, 102792, Note_off_c, 0, 67, 56
1, 102797, Note_off_c, 0, 72, 64
1, 102811, Note_off_c, 0, 76, 62
1, 102817, Note_off_c, 0, 79, 58
1, 102817, Note_off_c, 0, 84, 61
1, 102852, Note_off_c, 0, 55, 62
1, 102852, Note_off_c, 0, 64, 54
1, 102861, Note_off_c, 0, 60, 56
1, 102952, Note_on_c, 0, 84, 87
1, 102954, Note_on_c, 0, 72, 83
1, 102957, Note_on_c, 0, 76, 68
1, 102959, Note_on_c, 0, 67, 76
1, 102963, Note_on_c, 0, 60, 69
1, 102964, Note_on_c, 0, 79, 57
1, 102967, Note_on_c, 0, 64, 75
1, 102972, Note_on_c, 0, 55, 61
1, 103006, Note_off_c, 0, 72, 63
1, 103012, Note_off_c, 0, 67, 59
1, 103016, Note_off_c, 0, 79, 54
1, 103019, Note_off_c, 0, 76, 64
1, 103020, Note_off_c, 0, 84, 61
1, 103028, Note_off_c, 0, 64, 57
1, 103031, Note_off_c, 0, 55, 55
1, 103047, Note_off_c, 0, 60, 59
1, 103114, Note_on_c, 0, 84, 93
1, 103117, Note_on_c, 0, 60, 59
1, 103118, Note_on_c, 0, 67, 77
1, 103118, Note_on_c, 0, 72, 85
1, 103119, Note_on_c, 0, 76, 76
1, 103123, Note_on_c, 0, 64, 73
1, 103123, Note_on_c, 0, 79, 73
1, 103131, Note_on_c, 0, 55, 67
1, 103162, Note_off_c, 0, 72, 62
1, 103167, Note_off_c, 0, 67, 60
1, 103180, Note_off_c, 0, 76, 65
1, 103183, Note_off_c, 0, 79, 57
1, 103184, Note_off_c, 0, 84, 60
1, 103189, Note_off_c, 0, 64, 58
1, 103192, Note_off_c, 0, 55, 58
1, 103207, Note_off_c, 0, 60, 58
1, 103250, Note_on_c, 0, 60, 55
1, 103254, Note_on_c, 0, 72, 96
1, 103255, Note_on_c, 0, 67, 84
1, 103258, Note_on_c, 0, 76, 75
1, 103258, Note_on_c, 0, 84, 89
1, 103260, Note_on_c, 0, 64, 67
1, 103261, Note_on_c, 0, 55, 58
1, 103266, Note_on_c, 0, 79, 68
1, 103307, Note_off_c, 0, 72, 65
1, 103311, Note_off_c, 0, 67, 62
1, 103323, Note_off_c, 0, 76, 66
1, 103324, Note_off_c, 0, 84, 62
1, 103325, Note_off_c, 0, 55, 60
1, 103327, Note_off_c, 0, 64, 60
1, 103332, Note_off_c, 0, 79, 61
1, 103341, Note_off_c, 0, 60, 63
1, 103383, Note_on_c, 0, 60, 65
1, 103387, Note_on_c, 0, 64, 69
1, 103389, Note_on_c, 0, 67, 86
1, 103394, Note_on_c, 0, 72, 100
1, 103397, Note_on_c, 0, 84, 93
1, 103398, Note_on_c, 0, 76, 80
1, 103408, Note_off_c, 0, 67, 66
1, 103412, Note_on_c, 0, 55, 60
1, 103418, Note_on_c, 0, 79, 54
1, 103429, Note_off_c, 0, 64, 61
1, 103437, Note_off_c, 0, 84, 59
1, 103439, Note_off_c, 0, 79, 60
1, 103442, Note_off_c, 0, 60, 65
1, 103445, Note_off_c, 0, 76, 66
1, 103445, Note_off_c, 0, 72, 64
1, 103447, Note_off_c, 0, 55, 62
1, 103580, Control_c, 0, 64, 67
1, 103595, Control_c, 0, 64, 51
1, 103609, Control_c, 0, 64, 38
1, 103610, Note_on_c, 0, 67, 103
1, 103610, Note_on_c, 0, 79, 81
1, 103611, Note_on_c, 0, 62, 101
1, 103613, Note_on_c, 0, 55, 91
1, 103613, Note_on_c, 0, 60, 97
1, 103615, Note_on_c, 0, 50, 90
1, 103615, Note_on_c, 0, 76, 83
1, 103619, Note_on_c, 0, 72, 66
1, 103624, Control_c, 0, 64, 43
1, 103636, Note_off_c, 0, 67, 64
1, 103639, Control_c, 0, 64, 59
1, 103645, Note_off_c, 0, 72, 68
1, 103652, Note_off_c, 0, 76, 63
1, 103654, Note_off_c, 0, 79, 65
1, 103654, Control_c, 0, 64, 127
1, 103677, Note_off_c, 0, 62, 57
1, 103678, Note_off_c, 0, 50, 65
1, 103758, Note_off_c, 0, 60, 55
1, 103778, Note_off_c, 0, 55, 59
1, 103857, Note_on_c, 0, 64, 71
1, 103858, Note_on_c, 0, 55, 63
1, 103863, Note_on_c, 0, 60, 68
1, 103871, Note_on_c, 0, 52, 68
1, 103875, Note_off_c, 0, 64, 68
1, 103885, Note_off_c, 0, 60, 71
1, 103886, Note_on_c, 0, 67, 81
1, 103886, Note_on_c, 0, 79, 85
1, 103893, Note_on_c, 0, 72, 66
1, 103895, Note_off_c, 0, 55, 62
1, 103903, Note_off_c, 0, 52, 69
1, 103912, Note_off_c, 0, 72, 65
1, 103918, Note_off_c, 0, 67, 58
1, 103938, Note_off_c, 0, 79, 52
1, 104038, Note_on_c, 0, 57, 83
1, 104040, Note_on_c, 0, 52, 81
1, 104041, Note_on_c, 0, 67, 87
1, 104043, Note_on_c, 0, 45, 79
1, 104044, Note_on_c, 0, 79, 77
1, 104064, Note_off_c, 0, 79, 69
1, 104079, Note_off_c, 0, 52, 68
1, 104082, Note_off_c, 0, 57, 60
1, 104084, Note_off_c, 0, 67, 62
1, 104087, Note_off_c, 0, 45, 62
1, 104106, Control_c, 0, 67, 8
1, 104121, Control_c, 0, 64, 85
1, 104121, Control_c, 0, 67, 8
1, 104135, Control_c, 0, 64, 48
1, 104135, Control_c, 0, 67, 9
1, 104150, Control_c, 0, 64, 0
1, 104188, Note_on_c, 0, 55, 66
1, 104194, Note_on_c, 0, 59, 98
1, 104197, Note_on_c, 0, 52, 88
1, 104197, Note_on_c, 0, 64, 93
1, 104198, Note_on_c, 0, 67, 73
1, 104200, Note_on_c, 0, 76, 90
1, 104201, Note_on_c, 0, 47, 83
1, 104209, Control_c, 0, 64, 27
1, 104224, Control_c, 0, 64, 65
1, 104224, Control_c, 0, 67, 8
1, 104238, Note_off_c, 0, 67, 59
1, 104239, Note_off_c, 0, 64, 64
1, 104239, Control_c, 0, 64, 127
1, 104239, Control_c, 0, 67, 0
1, 104250, Note_off_c, 0, 59, 62
1, 104265, Note_off_c, 0, 76, 63
1, 104265, Note_off_c, 0, 47, 63
1, 104277, Note_off_c, 0, 52, 66
1, 104278, Note_off_c, 0, 55, 63
1, 104334, Note_on_c, 0, 60, 92
1, 104336, Note_on_c, 0, 52, 89
1, 104336, Note_on_c, 0, 55, 71
1, 104351, Note_on_c, 0, 67, 73
1, 104355, Note_on_c, 0, 76, 82
1, 104356, Note_on_c, 0, 64, 83
1, 104358, Note_off_c, 0, 60, 68
1, 104372, Note_on_c, 0, 48, 48
1, 104375, Note_off_c, 0, 55, 65
1, 104383, Note_off_c, 0, 52, 67
1, 104387, Note_off_c, 0, 64, 59
1, 104402, Note_off_c, 0, 48, 58
1, 104403, Note_off_c, 0, 67, 58
1, 104404, Note_off_c, 0, 76, 65
1, 104418, Poly_aftertouch_c, 0, 72, 127
1, 104455, Poly_aftertouch_c, 0, 72, 0
1, 104474, Note_on_c, 0, 48, 80
1, 104478, Note_on_c, 0, 52, 99
1, 104479, Note_on_c, 0, 64, 92
1, 104482, Note_on_c, 0, 40, 89
1, 104482, Note_on_c, 0, 76, 81
1, 104495, Note_on_c, 0, 67, 60
1, 104501, Note_on_c, 0, 74, 65
1, 104511, Note_off_c, 0, 67, 67
1, 104517, Note_off_c, 0, 40, 65
1, 104517, Note_off_c, 0, 52, 65
1, 104518, Note_off_c, 0, 48, 63
1, 104518, Note_off_c, 0, 74, 69
1, 104519, Note_off_c, 0, 76, 65
1, 104524, Note_off_c, 0, 64, 64
1, 104581, Control_c, 0, 64, 61
1, 104595, Control_c, 0, 64, 25
1, 104610, Control_c, 0, 64, 0
1, 104622, Note_on_c, 0, 52, 94
1, 104623, Note_on_c, 0, 54, 107
1, 104627, Note_on_c, 0, 48, 81
1, 104632, Note_on_c, 0, 42, 76
1, 104632, Note_on_c, 0, 60, 103
1, 104634, Note_on_c, 0, 72, 97
1, 104635, Note_on_c, 0, 64, 81
1, 104640, Control_c, 0, 64, 8
1, 104650, Note_on_c, 0, 46, 56
1, 104653, Poly_aftertouch_c, 0, 66, 0
1, 104655, Control_c, 0, 64, 48
1, 104667, Note_on_c, 0, 44, 36
1, 104670, Control_c, 0, 64, 93
1, 104673, Note_off_c, 0, 60, 66
1, 104679, Note_off_c, 0, 54, 63
1, 104682, Note_off_c, 0, 52, 61
1, 104685, Note_off_c, 0, 64, 59
1, 104685, Control_c, 0, 64, 127
1, 104685, Control_c, 0, 67, 8
1, 104689, Note_off_c, 0, 72, 64
1, 104690, Note_off_c, 0, 46, 62
1, 104700, Note_off_c, 0, 42, 62
1, 104703, Note_off_c, 0, 44, 53
1, 104711, Note_off_c, 0, 48, 60
1, 104715, Control_c, 0, 67, 0
1, 104762, Note_on_c, 0, 48, 68
1, 104771, Note_on_c, 0, 55, 95
1, 104796, Note_on_c, 0, 64, 67
1, 104797, Note_on_c, 0, 60, 84
1, 104798, Note_on_c, 0, 72, 82
1, 104805, Note_on_c, 0, 43, 60
1, 104811, Note_on_c, 0, 46, 29
1, 104812, Note_off_c, 0, 55, 69
1, 104820, Note_on_c, 0, 69, 20
1, 104828, Note_off_c, 0, 60, 60
1, 104830, Note_off_c, 0, 48, 64
1, 104840, Note_off_c, 0, 43, 63
1, 104855, Note_off_c, 0, 64, 54
1, 104861, Note_off_c, 0, 46, 52
1, 104861, Note_off_c, 0, 72, 54
1, 104864, Poly_aftertouch_c, 0, 67, 127
1, 104865, Note_off_c, 0, 69, 55
1, 104898, Poly_aftertouch_c, 0, 67, 0
1, 104917, Note_on_c, 0, 43, 84
1, 104921, Note_on_c, 0, 60, 95
1, 104922, Note_on_c, 0, 50, 93
1, 104923, Note_on_c, 0, 72, 74
1, 104929, Note_on_c, 0, 38, 77
1, 104930, Note_on_c, 0, 64, 54
1, 104947, Note_off_c, 0, 72, 64
1, 104952, Note_off_c, 0, 64, 64
1, 104965, Note_off_c, 0, 43, 63
1, 104966, Note_off_c, 0, 50, 65
1, 104970, Note_off_c, 0, 60, 65
1, 104976, Note_off_c, 0, 38, 61
1, 104978, Note_on_c, 0, 71, 9
1, 104979, Note_off_c, 0, 71, 127
1, 105025, Poly_aftertouch_c, 0, 71, 0
1, 105033, Control_c, 0, 67, 8
1, 105048, Control_c, 0, 67, 9
1, 105063, Control_c, 0, 67, 9
1, 105073, Note_on_c, 0, 40, 89
1, 105078, Control_c, 0, 67, 10
1, 105089, Note_on_c, 0, 48, 51
1, 105091, Note_on_c, 0, 63, 9
1, 105104, Poly_aftertouch_c, 0, 61, 127
1, 105115, Note_off_c, 0, 48, 57
1, 105118, Note_on_c, 0, 43, 46
1, 105122, Control_c, 0, 64, 77
1, 105137, Control_c, 0, 64, 53
1, 105137, Control_c, 0, 67, 11
1, 105138, Note_off_c, 0, 43, 64
1, 105150, Poly_aftertouch_c, 0, 61, 0
1, 105150, Note_off_c, 0, 63, 58
1, 105153, Control_c, 0, 64, 0
1, 105153, Control_c, 0, 67, 13
1, 105168, Control_c, 0, 67, 15
1, 105171, Note_on_c, 0, 55, 100
1, 105173, Note_on_c, 0, 48, 87
1, 105174, Note_on_c, 0, 67, 97
1, 105174, Note_on_c, 0, 43, 87
1, 105175, Note_on_c, 0, 52, 106
1, 105175, Note_on_c, 0, 64, 82
1, 105178, Note_on_c, 0, 60, 80
1, 105182, Control_c, 0, 67, 19
1, 105197, Control_c, 0, 67, 21
1, 105227, Control_c, 0, 67, 20
1, 105242, Control_c, 0, 67, 19
1, 105256, Control_c, 0, 67, 19
1, 105271, Control_c, 0, 64, 14
1, 105271, Control_c, 0, 67, 18
1, 105286, Control_c, 0, 64, 40
1, 105286, Control_c, 0, 67, 18
1, 105301, Control_c, 0, 64, 58
1, 105311, Note_off_c, 0, 67, 58
1, 105316, Control_c, 0, 64, 89
1, 105316, Control_c, 0, 67, 17
1, 105321, Note_off_c, 0, 55, 53
1, 105330, Control_c, 0, 64, 127
1, 105335, Note_off_c, 0, 52, 25
1, 105345, Control_c, 0, 67, 16
1, 105358, Note_off_c, 0, 48, 59
1, 105360, Control_c, 0, 67, 15
1, 105365, Note_off_c, 0, 40, 58
1, 105365, Note_off_c, 0, 60, 28
1, 105370, Note_off_c, 0, 43, 56
1, 105374, Control_c, 0, 67, 14
1, 105377, Note_off_c, 0, 64, 36
1, 105389, Control_c, 0, 67, 10
1, 105404, Control_c, 0, 67, 0
1, 105459, Note_on_c, 0, 55, 89
1, 105465, Note_on_c, 0, 67, 82
1, 105468, Note_on_c, 0, 52, 71
1, 105473, Note_on_c, 0, 48, 66
1, 105475, Note_on_c, 0, 43, 61
1, 105476, Note_on_c, 0, 64, 63
1, 105484, Note_on_c, 0, 60, 58
1, 105490, Note_on_c, 0, 40, 62
1, 105509, Note_off_c, 0, 52, 58
1, 105516, Note_off_c, 0, 55, 63
1, 105532, Note_off_c, 0, 60, 54
1, 105538, Note_off_c, 0, 48, 57
1, 105543, Note_off_c, 0, 40, 59
1, 105545, Note_off_c, 0, 43, 60
1, 105555, Note_off_c, 0, 67, 54
1, 105580, Note_off_c, 0, 64, 52
1, 105641, Note_on_c, 0, 55, 100
1, 105641, Note_on_c, 0, 67, 95
1, 105643, Note_on_c, 0, 64, 68
1, 105644, Note_on_c, 0, 52, 80
1, 105647, Note_on_c, 0, 48, 73
1, 105649, Note_on_c, 0, 43, 73
1, 105651, Note_on_c, 0, 40, 63
1, 105663, Note_on_c, 0, 60, 42
1, 105687, Note_off_c, 0, 60, 59
1, 105698, Note_off_c, 0, 55, 65
1, 105703, Note_off_c, 0, 52, 57
1, 105709, Note_off_c, 0, 43, 57
1, 105713, Note_off_c, 0, 48, 60
1, 105722, Note_off_c, 0, 67, 58
1, 105724, Note_off_c, 0, 40, 56
1, 105725, Note_off_c, 0, 64, 60
1, 105767, Control_c, 0, 67, 8
1, 105781, Control_c, 0, 67, 14
1, 105796, Control_c, 0, 67, 19
1, 105811, Control_c, 0, 67, 22
1, 105826, Control_c, 0, 67, 25
1, 105841, Control_c, 0, 67, 31
1, 105855, Control_c, 0, 64, 96
1, 105855, Control_c, 0, 67, 39
1, 105870, Control_c, 0, 64, 64
1, 105870, Control_c, 0, 67, 47
1, 105883, Note_on_c, 0, 59, 112
1, 105885, Control_c, 0, 64, 45
1, 105885, Control_c, 0, 67, 56
1, 105899, Note_on_c, 0, 47, 93
1, 105900, Control_c, 0, 64, 0
1, 105900, Control_c, 0, 67, 64
1, 105914, Control_c, 0, 67, 79
1, 105929, Control_c, 0, 67, 98
1, 105944, Control_c, 0, 67, 121
1, 105960, Control_c, 0, 67, 127
1, 105975, Control_c, 0, 64, 17
1, 105990, Control_c, 0, 64, 35
1, 106004, Control_c, 0, 64, 48
1, 106019, Control_c, 0, 64, 60
1, 106034, Control_c, 0, 64, 75
1, 106049, Control_c, 0, 64, 127
1, 106123, Control_c, 0, 64, 97
1, 106138, Control_c, 0, 64, 74
1, 106152, Control_c, 0, 64, 68
1, 106152, Control_c, 0, 67, 123
1, 106157, Note_on_c, 0, 67, 86
1, 106162, Note_on_c, 0, 55, 85
1, 106167, Control_c, 0, 67, 115
1, 106168, Note_on_c, 0, 52, 79
1, 106169, Note_on_c, 0, 64, 71
1, 106176, Note_on_c, 0, 43, 61
1, 106178, Note_on_c, 0, 40, 65
1, 106182, Control_c, 0, 64, 72
1, 106182, Control_c, 0, 67, 104
1, 106196, Note_off_c, 0, 59, 57
1, 106196, Control_c, 0, 64, 80
1, 106196, Control_c, 0, 67, 91
1, 106211, Control_c, 0, 64, 86
1, 106211, Control_c, 0, 67, 82
1, 106226, Control_c, 0, 64, 86
1, 106226, Control_c, 0, 67, 76
1, 106241, Control_c, 0, 64, 88
1, 106241, Control_c, 0, 67, 75
1, 106256, Control_c, 0, 64, 92
1, 106256, Control_c, 0, 67, 76
1, 106277, Note_on_c, 0, 59, 17
1, 106278, Control_c, 0, 64, 99
1, 106293, Control_c, 0, 64, 106
1, 106308, Control_c, 0, 64, 111
1, 106308, Control_c, 0, 67, 77
1, 106321, Note_off_c, 0, 59, 42
1, 106323, Note_off_c, 0, 67, 52
1, 106323, Control_c, 0, 64, 114
1, 106323, Control_c, 0, 67, 78
1, 106329, Note_off_c, 0, 55, 63
1, 106337, Control_c, 0, 67, 79
1, 106345, Note_off_c, 0, 47, 60
1, 106345, Note_off_c, 0, 64, 61
1, 106352, Control_c, 0, 64, 115
1, 106357, Note_off_c, 0, 40, 60
1, 106368, Note_off_c, 0, 43, 59
1, 106368, Note_off_c, 0, 52, 36
1, 106382, Control_c, 0, 64, 109
1, 106397, Control_c, 0, 64, 83
1, 106397, Control_c, 0, 67, 80
1, 106411, Control_c, 0, 64, 65
1, 106411, Control_c, 0, 67, 81
1, 106426, Control_c, 0, 64, 53
1, 106430, Note_on_c, 0, 60, 98
1, 106441, Control_c, 0, 64, 38
1, 106441, Control_c, 0, 67, 84
1, 106442, Note_on_c, 0, 48, 86
1, 106443, Note_on_c, 0, 55, 83
1, 106456, Control_c, 0, 64, 37
1, 106456, Control_c, 0, 67, 89
1, 106467, Note_on_c, 0, 52, 67
1, 106471, Control_c, 0, 64, 44
1, 106471, Control_c, 0, 67, 100
1, 106485, Control_c, 0, 64, 57
1, 106485, Control_c, 0, 67, 116
1, 106494, Note_on_c, 0, 43, 42
1, 106500, Note_on_c, 0, 40, 25
1, 106500, Control_c, 0, 64, 71
1, 106500, Control_c, 0, 67, 127
1, 106506, Note_off_c, 0, 55, 0
1, 106506, Note_off_c, 0, 52, 53
1, 106515, Control_c, 0, 64, 108
1, 106526, Note_on_c, 0, 55, 39
1, 106530, Control_c, 0, 64, 127
1, 106572, Note_off_c, 0, 40, 39
1, 106589, Poly_aftertouch_c, 0, 46, 0
1, 106621, Note_off_c, 0, 55, 36
1, 106666, Note_off_c, 0, 60, 62
1, 106672, Note_off_c, 0, 43, 56
1, 106679, Note_off_c, 0, 48, 39
1, 106754, Control_c, 0, 64, 93
1, 106769, Control_c, 0, 64, 67
1, 106779, Note_on_c, 0, 60, 109
1, 106783, Control_c, 0, 64, 52
1, 106789, Note_on_c, 0, 48, 89
1, 106798, Control_c, 0, 64, 24
1, 106813, Control_c, 0, 64, 0
1, 106872, Control_c, 0, 64, 21
1, 106887, Control_c, 0, 64, 35
1, 106901, Control_c, 0, 64, 46
1, 106916, Control_c, 0, 64, 55
1, 106931, Control_c, 0, 64, 63
1, 106945, Control_c, 0, 64, 68
1, 106960, Control_c, 0, 64, 72
1, 106975, Control_c, 0, 64, 74
1, 106990, Control_c, 0, 64, 75
1, 107005, Control_c, 0, 64, 76
1, 107057, Control_c, 0, 64, 76
1, 107072, Control_c, 0, 64, 77
1, 107087, Control_c, 0, 64, 77
1, 107116, Control_c, 0, 64, 76
1, 107131, Control_c, 0, 64, 69
1, 107146, Control_c, 0, 64, 61
1, 107157, Note_on_c, 0, 67, 67
1, 107160, Control_c, 0, 64, 52
1, 107161, Note_on_c, 0, 55, 56
1, 107168, Note_on_c, 0, 52, 61
1, 107171, Note_on_c, 0, 64, 53
1, 107172, Note_on_c, 0, 40, 58
1, 107175, Control_c, 0, 64, 46
1, 107182, Note_on_c, 0, 43, 52
1, 107190, Control_c, 0, 64, 47
1, 107205, Control_c, 0, 64, 55
1, 107219, Note_off_c, 0, 55, 0
1, 107219, Note_on_c, 0, 55, 22
1, 107220, Control_c, 0, 64, 65
1, 107234, Control_c, 0, 64, 81
1, 107249, Control_c, 0, 64, 92
1, 107308, Control_c, 0, 64, 91
1, 107323, Control_c, 0, 64, 91
1, 107338, Control_c, 0, 64, 90
1, 107351, Note_off_c, 0, 52, 40
1, 107353, Control_c, 0, 64, 87
1, 107356, Note_off_c, 0, 43, 49
1, 107368, Control_c, 0, 64, 85
1, 107371, Note_off_c, 0, 67, 51
1, 107381, Note_off_c, 0, 64, 54
1, 107383, Control_c, 0, 64, 83
1, 107388, Note_off_c, 0, 55, 44
1, 107404, Note_off_c, 0, 40, 29
1, 107412, Control_c, 0, 64, 83
1, 107427, Control_c, 0, 64, 82
1, 107442, Control_c, 0, 64, 80
1, 107457, Control_c, 0, 64, 79
1, 107472, Control_c, 0, 64, 78
1, 107489, Note_on_c, 0, 67, 67
1, 107494, Note_on_c, 0, 52, 49
1, 107496, Note_on_c, 0, 55, 55
1, 107498, Note_on_c, 0, 64, 48
1, 107502, Note_on_c, 0, 43, 46
1, 107517, Note_on_c, 0, 40, 39
1, 107531, Control_c, 0, 64, 77
1, 107590, Note_off_c, 0, 67, 56
1, 107604, Note_off_c, 0, 52, 28
1, 107606, Control_c, 0, 64, 77
1, 107612, Note_off_c, 0, 40, 51
1, 107614, Note_off_c, 0, 43, 50
1, 107614, Note_off_c, 0, 64, 55
1, 107629, Note_off_c, 0, 55, 36
1, 107650, Control_c, 0, 64, 76
1, 107680, Control_c, 0, 64, 76
1, 107706, Note_on_c, 0, 67, 76
1, 107711, Control_c, 0, 64, 75
1, 107719, Note_on_c, 0, 55, 65
1, 107722, Note_on_c, 0, 64, 67
1, 107725, Control_c, 0, 64, 75
1, 107743, Note_on_c, 0, 52, 51
1, 107746, Note_on_c, 0, 43, 54
1, 107755, Control_c, 0, 64, 74
1, 107773, Note_on_c, 0, 40, 44
1, 107788, Note_off_c, 0, 52, 63
1, 107796, Note_off_c, 0, 55, 63
1, 107809, Note_off_c, 0, 67, 60
1, 107821, Note_off_c, 0, 43, 58
1, 107827, Note_off_c, 0, 64, 58
1, 107830, Note_off_c, 0, 40, 45
1, 107836, Control_c, 0, 64, 74
1, 107851, Note_off_c, 0, 60, 57
1, 107851, Control_c, 0, 64, 73
1, 107866, Control_c, 0, 64, 73
1, 107886, Note_on_c, 0, 60, 53
1, 107893, Note_on_c, 0, 64, 75
1, 107895, Note_on_c, 0, 55, 83
1, 107897, Note_on_c, 0, 67, 83
1, 107913, Note_on_c, 0, 52, 65
1, 107926, Note_on_c, 0, 40, 56
1, 107931, Note_on_c, 0, 43, 53
1, 107957, Note_off_c, 0, 52, 52
1, 107997, Note_off_c, 0, 55, 59
1, 108000, Note_off_c, 0, 48, 52
1, 108009, Note_off_c, 0, 43, 50
1, 108017, Note_off_c, 0, 67, 54
1, 108028, Note_off_c, 0, 60, 31
1, 108045, Note_off_c, 0, 64, 62
1, 108053, Note_off_c, 0, 40, 34
1, 108103, Control_c, 0, 64, 72
1, 108118, Control_c, 0, 64, 66
1, 108127, Note_on_c, 0, 59, 105
1, 108132, Control_c, 0, 64, 56
1, 108146, Note_on_c, 0, 47, 75
1, 108147, Control_c, 0, 64, 32
1, 108162, Control_c, 0, 64, 0
1, 108221, Control_c, 0, 64, 10
1, 108236, Control_c, 0, 64, 28
1, 108250, Control_c, 0, 64, 39
1, 108265, Control_c, 0, 64, 49
1, 108280, Control_c, 0, 64, 58
1, 108295, Control_c, 0, 64, 65
1, 108310, Control_c, 0, 64, 69
1, 108325, Control_c, 0, 64, 70
1, 108459, Control_c, 0, 64, 69
1, 108474, Control_c, 0, 64, 65
1, 108489, Control_c, 0, 64, 56
1, 108490, Note_on_c, 0, 60, 99
1, 108503, Control_c, 0, 64, 39
1, 108509, Note_off_c, 0, 47, 32
1, 108518, Note_on_c, 0, 48, 64
1, 108518, Control_c, 0, 64, 18
1, 108527, Note_off_c, 0, 59, 59
1, 108540, Control_c, 0, 64, 0
1, 108585, Control_c, 0, 64, 11
1, 108600, Control_c, 0, 64, 25
1, 108614, Control_c, 0, 64, 35
1, 108629, Control_c, 0, 64, 45
1, 108644, Control_c, 0, 64, 53
1, 108659, Control_c, 0, 64, 59
1, 108674, Control_c, 0, 64, 63
1, 108688, Control_c, 0, 64, 64
1, 108703, Control_c, 0, 64, 65
1, 108822, Control_c, 0, 64, 64
1, 108837, Control_c, 0, 64, 62
1, 108852, Control_c, 0, 64, 55
1, 108867, Control_c, 0, 64, 45
1, 108879, Note_on_c, 0, 67, 51
1, 108881, Control_c, 0, 64, 35
1, 108882, Note_on_c, 0, 64, 45
1, 108889, Note_on_c, 0, 55, 47
1, 108896, Control_c, 0, 64, 28
1, 108903, Note_on_c, 0, 52, 40
1, 108904, Note_on_c, 0, 40, 44
1, 108911, Control_c, 0, 64, 22
1, 108920, Note_off_c, 0, 67, 0
1, 108920, Note_on_c, 0, 67, 23
1, 108924, Note_on_c, 0, 43, 32
1, 108925, Control_c, 0, 64, 19
1, 108955, Control_c, 0, 64, 24
1, 108970, Control_c, 0, 64, 34
1, 108985, Control_c, 0, 64, 43
1, 108999, Control_c, 0, 64, 52
1, 109014, Control_c, 0, 64, 59
1, 109029, Control_c, 0, 64, 62
1, 109044, Control_c, 0, 64, 64
1, 109059, Control_c, 0, 64, 65
1, 109118, Control_c, 0, 64, 65
1, 109208, Control_c, 0, 64, 64
1, 109222, Control_c, 0, 64, 64
1, 109237, Control_c, 0, 64, 63
1, 109252, Control_c, 0, 64, 63
1, 109290, Control_c, 0, 64, 62
1, 109304, Control_c, 0, 64, 61
1, 109319, Control_c, 0, 64, 60
1, 109334, Control_c, 0, 64, 60
1, 109348, Control_c, 0, 64, 59
1, 109363, Control_c, 0, 64, 58
1, 109378, Control_c, 0, 64, 56
1, 109393, Control_c, 0, 64, 54
1, 109405, Note_off_c, 0, 60, 62
1, 109406, Note_on_c, 0, 59, 77
1, 109408, Control_c, 0, 64, 52
1, 109423, Control_c, 0, 64, 50
1, 109424, Note_off_c, 0, 64, 57
1, 109425, Note_off_c, 0, 48, 33
1, 109437, Control_c, 0, 64, 46
1, 109439, Note_on_c, 0, 47, 57
1, 109452, Control_c, 0, 64, 42
1, 109467, Control_c, 0, 64, 37
1, 109482, Control_c, 0, 64, 31
1, 109497, Control_c, 0, 64, 24
1, 109511, Control_c, 0, 64, 19
1, 109526, Control_c, 0, 64, 18
1, 109541, Control_c, 0, 64, 19
1, 109556, Control_c, 0, 64, 20
1, 109571, Control_c, 0, 64, 24
1, 109586, Control_c, 0, 64, 31
1, 109600, Control_c, 0, 64, 35
1, 109615, Control_c, 0, 64, 39
1, 109630, Control_c, 0, 64, 43
1, 109645, Control_c, 0, 64, 46
1, 109660, Control_c, 0, 64, 48
1, 109675, Control_c, 0, 64, 47
1, 109690, Control_c, 0, 64, 46
1, 109704, Control_c, 0, 64, 46
1, 109719, Control_c, 0, 64, 45
1, 109734, Control_c, 0, 64, 43
1, 109748, Control_c, 0, 64, 40
1, 109763, Control_c, 0, 64, 37
1, 109778, Control_c, 0, 64, 36
1, 109808, Control_c, 0, 64, 35
1, 109822, Control_c, 0, 64, 35
1, 109837, Control_c, 0, 64, 34
1, 109852, Control_c, 0, 64, 33
1, 109926, Control_c, 0, 64, 32
1, 110082, Control_c, 0, 64, 31
1, 110097, Control_c, 0, 64, 30
1, 110112, Control_c, 0, 64, 30
1, 110156, Control_c, 0, 64, 29
1, 110170, Control_c, 0, 64, 28
1, 110185, Control_c, 0, 64, 27
1, 110200, Control_c, 0, 64, 26
1, 110215, Control_c, 0, 64, 25
1, 110230, Control_c, 0, 64, 25
1, 110244, Control_c, 0, 64, 23
1, 110259, Control_c, 0, 64, 21
1, 110270, Note_on_c, 0, 60, 53
1, 110274, Control_c, 0, 64, 18
1, 110289, Control_c, 0, 64, 15
1, 110294, Note_on_c, 0, 48, 31
1, 110298, Note_off_c, 0, 59, 59
1, 110304, Control_c, 0, 64, 12
1, 110319, Control_c, 0, 64, 0
1, 110376, Note_off_c, 0, 47, 35
1, 110644, Control_c, 0, 64, 10
1, 110659, Control_c, 0, 64, 18
1, 110674, Control_c, 0, 64, 24
1, 110688, Control_c, 0, 64, 28
1, 110703, Control_c, 0, 64, 30
1, 110718, Control_c, 0, 64, 30
1, 110733, Control_c, 0, 64, 31
1, 110749, Control_c, 0, 64, 33
1, 110772, Control_c, 0, 64, 36
1, 110787, Control_c, 0, 64, 38
1, 110801, Control_c, 0, 64, 40
1, 110816, Control_c, 0, 64, 42
1, 110831, Control_c, 0, 64, 45
1, 110846, Control_c, 0, 64, 49
1, 110861, Control_c, 0, 64, 52
1, 110875, Control_c, 0, 64, 54
1, 110890, Control_c, 0, 64, 57
1, 110905, Control_c, 0, 64, 58
1, 110919, Control_c, 0, 64, 59
1, 110934, Control_c, 0, 64, 60
1, 110949, Control_c, 0, 64, 60
1, 110964, Control_c, 0, 64, 61
1, 110979, Control_c, 0, 64, 62
1, 110993, Control_c, 0, 64, 62
1, 111008, Control_c, 0, 64, 63
1, 111023, Control_c, 0, 64, 64
1, 111053, Control_c, 0, 64, 64
1, 111082, Control_c, 0, 64, 65
1, 111127, Control_c, 0, 64, 65
1, 111156, Control_c, 0, 64, 66
1, 111171, Control_c, 0, 64, 66
1, 111201, Control_c, 0, 64, 67
1, 111216, Control_c, 0, 64, 67
1, 111261, Control_c, 0, 64, 68
1, 111290, Control_c, 0, 64, 68
1, 111305, Control_c, 0, 64, 69
1, 111319, Control_c, 0, 64, 69
1, 111349, Control_c, 0, 64, 70
1, 111379, Control_c, 0, 64, 70
1, 111423, Control_c, 0, 64, 71
1, 111565, Control_c, 0, 64, 71
1, 111733, Note_off_c, 0, 55, 38
1, 111806, Note_off_c, 0, 40, 2
1, 111840, Note_off_c, 0, 67, 37
1, 111851, Note_off_c, 0, 60, 34
1, 111860, Note_off_c, 0, 43, 37
1, 111898, Note_off_c, 0, 48, 38
1, 112082, Note_off_c, 0, 52, 8
1, 112522, Control_c, 0, 64, 71
1, 112552, Control_c, 0, 64, 70
1, 112566, Control_c, 0, 64, 70
1, 112581, Control_c, 0, 64, 69
1, 112596, Control_c, 0, 64, 68
1, 112611, Control_c, 0, 64, 67
1, 112626, Control_c, 0, 64, 66
1, 112640, Control_c, 0, 64, 64
1, 112655, Control_c, 0, 64, 62
1, 112670, Control_c, 0, 64, 61
1, 112685, Control_c, 0, 64, 60
1, 112691, Note_on_c, 0, 50, 38
1, 112699, Control_c, 0, 64, 58
1, 112704, Note_on_c, 0, 62, 40
1, 112706, Note_on_c, 0, 42, 43
1, 112714, Control_c, 0, 64, 57
1, 112721, Note_on_c, 0, 54, 26
1, 112729, Control_c, 0, 64, 56
1, 112744, Control_c, 0, 64, 54
1, 112759, Control_c, 0, 64, 51
1, 112773, Control_c, 0, 64, 48
1, 112788, Control_c, 0, 64, 44
1, 112803, Control_c, 0, 64, 40
1, 112818, Control_c, 0, 64, 35
1, 112833, Control_c, 0, 64, 22
1, 112834, Note_off_c, 0, 50, 46
1, 112845, Note_off_c, 0, 62, 51
1, 112847, Control_c, 0, 64, 0
1, 112862, Note_on_c, 0, 64, 48
1, 112873, Note_on_c, 0, 59, 37
1, 112887, Note_on_c, 0, 52, 39
1, 112894, Note_on_c, 0, 47, 44
1, 113017, Control_c, 0, 64, 21
1, 113031, Control_c, 0, 64, 32
1, 113046, Control_c, 0, 64, 42
1, 113061, Control_c, 0, 64, 51
1, 113076, Control_c, 0, 64, 59
1, 113090, Control_c, 0, 64, 65
1, 113105, Control_c, 0, 64, 70
1, 113120, Control_c, 0, 64, 74
1, 113135, Control_c, 0, 64, 78
1, 113151, Control_c, 0, 64, 84
1, 113166, Control_c, 0, 64, 94
1, 113180, Control_c, 0, 64, 109
1, 113183, Note_off_c, 0, 52, 42
1, 113195, Control_c, 0, 64, 127
1, 113225, Note_off_c, 0, 47, 42
1, 113231, Note_off_c, 0, 54, 43
1, 113234, Note_off_c, 0, 64, 46
1, 113313, Note_off_c, 0, 42, 39
1, 113333, Note_off_c, 0, 59, 37
1, 113890, Note_on_c, 0, 71, 33
1, 113911, Note_on_c, 0, 59, 18
1, 113949, Note_on_c, 0, 30, 39
1, 113950, Note_on_c, 0, 42, 17
1, 114133, Note_off_c, 0, 30, 38
1, 114221, Note_off_c, 0, 42, 32
1, 114676, Note_off_c, 0, 59, 39
1, 114787, Note_off_c, 0, 71, 45
1, 114796, Note_on_c, 0, 66, 56
1, 114812, Control_c, 0, 64, 119
1, 114820, Note_on_c, 0, 54, 43
1, 114822, Note_on_c, 0, 59, 13
1, 114827, Control_c, 0, 64, 98
1, 114830, Note_on_c, 0, 47, 43
1, 114841, Control_c, 0, 64, 82
1, 114856, Control_c, 0, 64, 72
1, 114871, Control_c, 0, 64, 64
1, 114886, Control_c, 0, 64, 58
1, 114901, Control_c, 0, 64, 46
1, 114907, Note_off_c, 0, 54, 59
1, 114915, Control_c, 0, 64, 22
1, 114930, Control_c, 0, 64, 0
1, 114932, Note_on_c, 0, 67, 62
1, 114936, Note_on_c, 0, 55, 49
1, 114939, Note_on_c, 0, 62, 50
1, 114947, Note_off_c, 0, 66, 42
1, 114964, Note_on_c, 0, 50, 36
1, 115020, Control_c, 0, 64, 18
1, 115035, Control_c, 0, 64, 30
1, 115049, Control_c, 0, 64, 40
1, 115064, Control_c, 0, 64, 52
1, 115071, Note_off_c, 0, 55, 52
1, 115079, Control_c, 0, 64, 63
1, 115093, Control_c, 0, 64, 86
1, 115108, Control_c, 0, 64, 127
1, 115166, Note_off_c, 0, 50, 39
1, 115183, Note_off_c, 0, 59, 35
1, 115205, Note_off_c, 0, 47, 43
1, 115296, Note_off_c, 0, 67, 55
1, 115318, Note_off_c, 0, 62, 37
1, 115712, Note_on_c, 0, 74, 49
1, 115744, Note_on_c, 0, 62, 16
1, 115750, Note_on_c, 0, 30, 38
1, 115750, Note_on_c, 0, 42, 30
1, 115860, Note_off_c, 0, 30, 51
1, 115884, Note_off_c, 0, 42, 0
1, 115924, Poly_aftertouch_c, 0, 42, 0
1, 116070, Note_off_c, 0, 74, 35
1, 116266, Note_off_c, 0, 62, 41
1, 116442, Note_on_c, 0, 69, 52
1, 116448, Note_on_c, 0, 57, 47
1, 116453, Note_on_c, 0, 62, 37
1, 116457, Control_c, 0, 64, 100
1, 116459, Note_on_c, 0, 50, 39
1, 116472, Control_c, 0, 64, 86
1, 116486, Control_c, 0, 64, 78
1, 116501, Control_c, 0, 64, 70
1, 116516, Control_c, 0, 64, 62
1, 116531, Control_c, 0, 64, 49
1, 116533, Note_off_c, 0, 57, 56
1, 116546, Control_c, 0, 64, 24
1, 116561, Control_c, 0, 64, 0
1, 116566, Note_off_c, 0, 69, 60
1, 116579, Note_on_c, 0, 71, 51
1, 116584, Note_on_c, 0, 54, 50
1, 116595, Note_on_c, 0, 59, 40
1, 116628, Note_on_c, 0, 66, 41
1, 116694, Control_c, 0, 64, 15
1, 116709, Control_c, 0, 64, 33
1, 116724, Control_c, 0, 64, 47
1, 116738, Control_c, 0, 64, 60
1, 116761, Control_c, 0, 64, 76
1, 116775, Control_c, 0, 64, 105
1, 116776, Note_off_c, 0, 59, 42
1, 116790, Control_c, 0, 64, 127
1, 116838, Note_off_c, 0, 54, 36
1, 116866, Note_off_c, 0, 50, 39
1, 116883, Note_off_c, 0, 71, 60
1, 116884, Note_off_c, 0, 62, 44
1, 116975, Note_off_c, 0, 66, 41
1, 117482, Note_on_c, 0, 78, 43
1, 117495, Note_on_c, 0, 66, 33
1, 117558, Note_on_c, 0, 42, 17
1, 117562, Note_on_c, 0, 30, 33
1, 117837, Note_off_c, 0, 30, 36
1, 117951, Note_off_c, 0, 78, 45
1, 117971, Note_off_c, 0, 42, 36
1, 118184, Note_off_c, 0, 66, 40
1, 118530, Note_on_c, 0, 67, 54
1, 118531, Note_on_c, 0, 55, 50
1, 118542, Note_on_c, 0, 59, 45
1, 118555, Control_c, 0, 64, 113
1, 118570, Control_c, 0, 64, 75
1, 118585, Control_c, 0, 64, 62
1, 118587, Note_on_c, 0, 47, 45
1, 118600, Control_c, 0, 64, 48
1, 118615, Control_c, 0, 64, 23
1, 118627, Note_off_c, 0, 55, 63
1, 118630, Control_c, 0, 64, 0
1, 118642, Note_off_c, 0, 67, 61
1, 118646, Note_on_c, 0, 69, 58
1, 118659, Note_on_c, 0, 57, 49
1, 118665, Note_off_c, 0, 59, 45
1, 118674, Note_on_c, 0, 62, 55
1, 118677, Note_on_c, 0, 50, 47
1, 118704, Control_c, 0, 64, 11
1, 118718, Control_c, 0, 64, 38
1, 118734, Control_c, 0, 64, 56
1, 118749, Note_off_c, 0, 57, 38
1, 118749, Control_c, 0, 64, 91
1, 118764, Control_c, 0, 64, 127
1, 118769, Note_off_c, 0, 62, 57
1, 118782, Note_off_c, 0, 50, 62
1, 118783, Note_off_c, 0, 69, 54
1, 118796, Note_off_c, 0, 47, 61
1, 119110, Note_on_c, 0, 78, 61
1, 119130, Note_on_c, 0, 66, 51
1, 119139, Note_on_c, 0, 30, 50
1, 119144, Note_on_c, 0, 42, 46
1, 119178, Note_off_c, 0, 66, 62
1, 119183, Note_off_c, 0, 78, 64
1, 119192, Note_off_c, 0, 42, 60
1, 119205, Note_off_c, 0, 30, 61
1, 119634, Note_on_c, 0, 66, 60
1, 119646, Note_on_c, 0, 59, 35
1, 119652, Note_on_c, 0, 47, 50
1, 119652, Note_on_c, 0, 54, 52
1, 119661, Control_c, 0, 64, 79
1, 119676, Control_c, 0, 64, 62
1, 119690, Control_c, 0, 64, 45
1, 119705, Control_c, 0, 64, 0
1, 119722, Note_off_c, 0, 54, 57
1, 119734, Note_on_c, 0, 67, 59
1, 119749, Note_off_c, 0, 66, 56
1, 119765, Note_on_c, 0, 55, 44
1, 119788, Note_on_c, 0, 50, 46
1, 119788, Note_on_c, 0, 62, 41
1, 119831, Control_c, 0, 64, 22
1, 119846, Control_c, 0, 64, 38
1, 119861, Control_c, 0, 64, 53
1, 119876, Control_c, 0, 64, 67
1, 119890, Control_c, 0, 64, 127
1, 119935, Note_off_c, 0, 55, 40
1, 119950, Note_off_c, 0, 50, 54
1, 119989, Note_off_c, 0, 59, 41
1, 120007, Note_off_c, 0, 62, 59
1, 120008, Note_off_c, 0, 47, 43
1, 120035, Note_off_c, 0, 67, 35
1, 120517, Note_on_c, 0, 74, 50
1, 120533, Note_on_c, 0, 62, 37
1, 120567, Note_on_c, 0, 30, 49
1, 120594, Note_on_c, 0, 42, 15
1, 120609, Note_off_c, 0, 62, 0
1, 120646, Poly_aftertouch_c, 0, 62, 127
1, 120663, Note_off_c, 0, 30, 59
1, 120685, Note_off_c, 0, 42, 37
1, 120696, Note_off_c, 0, 74, 31
1, 121018, Poly_aftertouch_c, 0, 62, 0
1, 121164, Note_on_c, 0, 50, 57
1, 121170, Note_on_c, 0, 57, 51
1, 121172, Control_c, 0, 67, 125
1, 121178, Note_on_c, 0, 69, 70
1, 121188, Note_on_c, 0, 62, 61
1, 121188, Control_c, 0, 67, 120
1, 121202, Control_c, 0, 67, 117
1, 121217, Control_c, 0, 67, 114
1, 121221, Note_off_c, 0, 62, 58
1, 121228, Note_off_c, 0, 57, 57
1, 121232, Control_c, 0, 64, 98
1, 121232, Control_c, 0, 67, 113
1, 121255, Control_c, 0, 64, 83
1, 121258, Note_off_c, 0, 69, 62
1, 121268, Note_on_c, 0, 71, 67
1, 121270, Control_c, 0, 64, 75
1, 121273, Note_on_c, 0, 59, 47
1, 121274, Note_on_c, 0, 54, 69
1, 121274, Note_on_c, 0, 66, 62
1, 121274, Note_off_c, 0, 50, 63
1, 121284, Control_c, 0, 64, 67
1, 121299, Control_c, 0, 64, 60
1, 121299, Control_c, 0, 67, 113
1, 121314, Control_c, 0, 64, 46
1, 121320, Note_off_c, 0, 66, 57
1, 121329, Control_c, 0, 64, 16
1, 121329, Control_c, 0, 67, 114
1, 121331, Note_on_c, 0, 62, 62
1, 121336, Note_off_c, 0, 71, 66
1, 121339, Note_on_c, 0, 57, 70
1, 121341, Note_off_c, 0, 54, 64
1, 121343, Note_on_c, 0, 69, 74
1, 121343, Control_c, 0, 64, 0
1, 121355, Note_off_c, 0, 59, 55
1, 121358, Control_c, 0, 67, 113
1, 121372, Note_off_c, 0, 62, 63
1, 121377, Note_on_c, 0, 50, 49
1, 121388, Control_c, 0, 67, 112
1, 121403, Control_c, 0, 67, 112
1, 121410, Note_off_c, 0, 57, 57
1, 121413, Note_off_c, 0, 69, 65
1, 121415, Note_on_c, 0, 71, 83
1, 121417, Note_on_c, 0, 66, 78
1, 121417, Control_c, 0, 67, 110
1, 121432, Control_c, 0, 67, 109
1, 121439, Note_on_c, 0, 59, 72
1, 121447, Control_c, 0, 67, 108
1, 121452, Note_on_c, 0, 54, 59
1, 121461, Control_c, 0, 67, 107
1, 121476, Control_c, 0, 64, 18
1, 121476, Control_c, 0, 67, 106
1, 121491, Control_c, 0, 64, 38
1, 121491, Control_c, 0, 67, 106
1, 121506, Control_c, 0, 64, 55
1, 121521, Control_c, 0, 64, 73
1, 121536, Control_c, 0, 64, 127
1, 121540, Note_off_c, 0, 59, 37
1, 121596, Control_c, 0, 67, 105
1, 121605, Note_off_c, 0, 50, 48
1, 121610, Control_c, 0, 67, 105
1, 121622, Note_off_c, 0, 54, 58
1, 121625, Control_c, 0, 67, 103
1, 121640, Control_c, 0, 67, 102
1, 121649, Note_off_c, 0, 71, 60
1, 121654, Control_c, 0, 67, 102
1, 121669, Control_c, 0, 67, 101
1, 121684, Control_c, 0, 67, 101
1, 121699, Control_c, 0, 67, 100
1, 121714, Control_c, 0, 67, 98
1, 121728, Control_c, 0, 67, 95
1, 121743, Control_c, 0, 67, 91
1, 121754, Note_off_c, 0, 66, 59
1, 121758, Control_c, 0, 67, 88
1, 121773, Control_c, 0, 67, 85
1, 121788, Control_c, 0, 67, 84
1, 121802, Control_c, 0, 67, 83
1, 121817, Control_c, 0, 67, 82
1, 121832, Control_c, 0, 67, 80
1, 121876, Control_c, 0, 67, 81
1, 121891, Control_c, 0, 67, 82
1, 121906, Control_c, 0, 67, 83
1, 121922, Control_c, 0, 67, 83
1, 122033, Control_c, 0, 67, 83
1, 122048, Control_c, 0, 67, 82
1, 122063, Control_c, 0, 67, 82
1, 122077, Control_c, 0, 67, 81
1, 122092, Control_c, 0, 67, 80
1, 122099, Note_on_c, 0, 78, 82
1, 122107, Control_c, 0, 67, 79
1, 122110, Note_on_c, 0, 66, 72
1, 122122, Control_c, 0, 67, 76
1, 122129, Note_on_c, 0, 30, 72
1, 122135, Note_on_c, 0, 42, 60
1, 122137, Control_c, 0, 67, 74
1, 122138, Note_off_c, 0, 66, 65
1, 122151, Control_c, 0, 67, 72
1, 122162, Note_off_c, 0, 78, 68
1, 122166, Control_c, 0, 67, 70
1, 122168, Note_off_c, 0, 30, 62
1, 122170, Note_off_c, 0, 42, 62
1, 122181, Control_c, 0, 67, 67
1, 122196, Control_c, 0, 67, 64
1, 122211, Control_c, 0, 67, 61
1, 122225, Control_c, 0, 67, 57
1, 122240, Control_c, 0, 67, 54
1, 122255, Control_c, 0, 67, 52
1, 122270, Control_c, 0, 67, 50
1, 122284, Control_c, 0, 67, 49
1, 122314, Control_c, 0, 67, 51
1, 122329, Control_c, 0, 67, 53
1, 122344, Control_c, 0, 67, 53
1, 122374, Control_c, 0, 67, 54
1, 122403, Control_c, 0, 67, 54
1, 122463, Control_c, 0, 67, 54
1, 122522, Control_c, 0, 67, 54
1, 122551, Control_c, 0, 67, 55
1, 122566, Control_c, 0, 67, 55
1, 122581, Control_c, 0, 67, 56
1, 122596, Control_c, 0, 67, 57
1, 122620, Note_on_c, 0, 73, 78
1, 122625, Control_c, 0, 67, 57
1, 122627, Note_on_c, 0, 66, 67
1, 122632, Note_on_c, 0, 54, 62
1, 122638, Note_on_c, 0, 61, 58
1, 122640, Control_c, 0, 67, 58
1, 122704, Note_on_c, 0, 74, 79
1, 122709, Note_off_c, 0, 73, 65
1, 122710, Note_off_c, 0, 61, 62
1, 122721, Note_off_c, 0, 66, 0
1, 122722, Note_on_c, 0, 62, 64
1, 122727, Note_on_c, 0, 69, 65
1, 122730, Note_on_c, 0, 57, 70
1, 122742, Note_off_c, 0, 54, 60
1, 122744, Note_on_c, 0, 66, 8
1, 122745, Control_c, 0, 67, 58
1, 122782, Control_c, 0, 64, 93
1, 122782, Control_c, 0, 67, 59
1, 122791, Note_on_c, 0, 73, 84
1, 122797, Control_c, 0, 64, 66
1, 122800, Note_off_c, 0, 62, 61
1, 122811, Note_on_c, 0, 61, 74
1, 122812, Control_c, 0, 64, 47
1, 122812, Control_c, 0, 67, 59
1, 122812, Note_off_c, 0, 57, 61
1, 122813, Note_off_c, 0, 74, 64
1, 122814, Note_off_c, 0, 69, 63
1, 122816, Note_off_c, 0, 66, 41
1, 122827, Control_c, 0, 64, 0
1, 122827, Control_c, 0, 67, 60
1, 122841, Note_on_c, 0, 54, 56
1, 122874, Note_off_c, 0, 61, 66
1, 122880, Note_on_c, 0, 74, 94
1, 122885, Note_on_c, 0, 69, 68
1, 122893, Note_on_c, 0, 57, 76
1, 122900, Note_on_c, 0, 62, 81
1, 122914, Note_off_c, 0, 73, 64
1, 122915, Control_c, 0, 64, 8
1, 122915, Control_c, 0, 67, 60
1, 122918, Note_off_c, 0, 69, 63
1, 122919, Note_off_c, 0, 54, 62
1, 122930, Control_c, 0, 64, 35
1, 122930, Control_c, 0, 67, 60
1, 122945, Control_c, 0, 64, 51
1, 122960, Control_c, 0, 64, 68
1, 122960, Control_c, 0, 67, 60
1, 122961, Note_off_c, 0, 62, 61
1, 122970, Note_on_c, 0, 69, 57
1, 122974, Control_c, 0, 64, 127
1, 122988, Note_off_c, 0, 57, 62
1, 122989, Control_c, 0, 67, 61
1, 123004, Control_c, 0, 67, 62
1, 123019, Control_c, 0, 67, 63
1, 123033, Control_c, 0, 67, 64
1, 123093, Control_c, 0, 67, 64
1, 123107, Control_c, 0, 67, 65
1, 123122, Control_c, 0, 67, 67
1, 123137, Control_c, 0, 67, 70
1, 123152, Control_c, 0, 67, 72
1, 123167, Control_c, 0, 67, 73
1, 123171, Note_off_c, 0, 74, 56
1, 123181, Control_c, 0, 67, 75
1, 123196, Control_c, 0, 67, 79
1, 123211, Control_c, 0, 67, 82
1, 123226, Control_c, 0, 67, 86
1, 123241, Control_c, 0, 67, 90
1, 123256, Control_c, 0, 67, 94
1, 123271, Control_c, 0, 67, 98
1, 123286, Control_c, 0, 67, 103
1, 123300, Control_c, 0, 67, 109
1, 123315, Control_c, 0, 67, 115
1, 123330, Control_c, 0, 67, 123
1, 123345, Control_c, 0, 67, 127
1, 123414, Note_off_c, 0, 69, 44
1, 123478, Control_c, 0, 64, 114
1, 123500, Control_c, 0, 64, 108
1, 123515, Control_c, 0, 64, 105
1, 123530, Control_c, 0, 64, 100
1, 123545, Control_c, 0, 64, 89
1, 123560, Control_c, 0, 64, 79
1, 123575, Control_c, 0, 64, 69
1, 123577, Note_on_c, 0, 81, 82
1, 123590, Control_c, 0, 64, 63
1, 123605, Control_c, 0, 64, 55
1, 123607, Note_on_c, 0, 69, 44
1, 123620, Control_c, 0, 64, 43
1, 123632, Note_on_c, 0, 30, 42
1, 123632, Note_on_c, 0, 42, 36
1, 123635, Control_c, 0, 64, 25
1, 123649, Control_c, 0, 64, 14
1, 123664, Control_c, 0, 64, 11
1, 123679, Control_c, 0, 64, 12
1, 123694, Control_c, 0, 64, 22
1, 123709, Control_c, 0, 64, 35
1, 123724, Control_c, 0, 64, 47
1, 123738, Control_c, 0, 64, 61
1, 123753, Control_c, 0, 64, 72
1, 123768, Control_c, 0, 64, 95
1, 123783, Control_c, 0, 64, 105
1, 123797, Control_c, 0, 64, 108
1, 123812, Control_c, 0, 64, 111
1, 123827, Control_c, 0, 64, 113
1, 123854, Note_off_c, 0, 30, 38
1, 123857, Note_off_c, 0, 42, 39
1, 123916, Control_c, 0, 64, 111
1, 123919, Note_off_c, 0, 81, 38
1, 123945, Control_c, 0, 64, 110
1, 123960, Control_c, 0, 64, 108
1, 123975, Control_c, 0, 64, 106
1, 123990, Control_c, 0, 64, 105
1, 124004, Control_c, 0, 64, 103
1, 124019, Control_c, 0, 64, 101
1, 124034, Control_c, 0, 64, 101
1, 124060, Note_off_c, 0, 69, 44
1, 124123, Control_c, 0, 64, 100
1, 124168, Control_c, 0, 64, 100
1, 124211, Control_c, 0, 64, 99
1, 124241, Control_c, 0, 64, 98
1, 124263, Control_c, 0, 64, 83
1, 124278, Control_c, 0, 64, 65
1, 124286, Note_on_c, 0, 50, 57
1, 124286, Note_on_c, 0, 71, 68
1, 124293, Control_c, 0, 64, 48
1, 124299, Note_on_c, 0, 62, 59
1, 124305, Note_on_c, 0, 59, 44
1, 124308, Control_c, 0, 64, 8
1, 124323, Control_c, 0, 64, 0
1, 124349, Note_off_c, 0, 62, 57
1, 124365, Note_off_c, 0, 50, 63
1, 124375, Note_off_c, 0, 59, 53
1, 124378, Note_on_c, 0, 73, 83
1, 124383, Note_off_c, 0, 71, 66
1, 124383, Control_c, 0, 64, 24
1, 124383, Note_on_c, 0, 66, 65
1, 124398, Control_c, 0, 64, 48
1, 124406, Note_on_c, 0, 61, 67
1, 124408, Note_on_c, 0, 54, 66
1, 124413, Control_c, 0, 64, 64
1, 124423, Note_off_c, 0, 66, 54
1, 124427, Control_c, 0, 64, 83
1, 124435, Note_off_c, 0, 61, 67
1, 124442, Control_c, 0, 64, 84
1, 124444, Note_off_c, 0, 73, 65
1, 124463, Note_off_c, 0, 54, 62
1, 124516, Control_c, 0, 64, 84
1, 124531, Control_c, 0, 64, 83
1, 124546, Control_c, 0, 64, 82
1, 124560, Control_c, 0, 64, 82
1, 124634, Control_c, 0, 64, 81
1, 124649, Control_c, 0, 64, 80
1, 124660, Poly_aftertouch_c, 0, 78, 127
1, 124664, Control_c, 0, 64, 78
1, 124678, Control_c, 0, 64, 75
1, 124693, Control_c, 0, 64, 68
1, 124708, Control_c, 0, 64, 62
1, 124718, Poly_aftertouch_c, 0, 78, 0
1, 124723, Control_c, 0, 64, 58
1, 124731, Note_on_c, 0, 81, 82
1, 124738, Control_c, 0, 64, 59
1, 124743, Note_on_c, 0, 69, 63
1, 124746, Note_on_c, 0, 30, 69
1, 124752, Control_c, 0, 64, 66
1, 124755, Poly_aftertouch_c, 0, 78, 127
1, 124759, Note_on_c, 0, 42, 53
1, 124767, Control_c, 0, 64, 92
1, 124769, Note_off_c, 0, 69, 66
1, 124775, Note_off_c, 0, 81, 64
1, 124777, Note_off_c, 0, 30, 63
1, 124782, Control_c, 0, 64, 107
1, 124785, Note_off_c, 0, 42, 57
1, 124805, Poly_aftertouch_c, 0, 78, 0
1, 124827, Control_c, 0, 64, 106
1, 124842, Control_c, 0, 64, 105
1, 124871, Control_c, 0, 67, 120
1, 124886, Control_c, 0, 67, 112
1, 124901, Control_c, 0, 67, 104
1, 124916, Control_c, 0, 64, 104
1, 124916, Control_c, 0, 67, 98
1, 124931, Control_c, 0, 64, 103
1, 124931, Control_c, 0, 67, 95
1, 124961, Control_c, 0, 67, 96
1, 124976, Control_c, 0, 67, 97
1, 124997, Control_c, 0, 64, 103
1, 124997, Control_c, 0, 67, 97
1, 125012, Control_c, 0, 64, 100
1, 125012, Control_c, 0, 67, 98
1, 125027, Control_c, 0, 64, 98
1, 125027, Control_c, 0, 67, 99
1, 125042, Control_c, 0, 64, 98
1, 125042, Control_c, 0, 67, 100
1, 125057, Control_c, 0, 64, 97
1, 125057, Control_c, 0, 67, 100
1, 125072, Control_c, 0, 64, 97
1, 125072, Control_c, 0, 67, 101
1, 125076, Note_on_c, 0, 57, 59
1, 125081, Note_on_c, 0, 50, 53
1, 125081, Note_on_c, 0, 62, 67
1, 125081, Note_on_c, 0, 69, 74
1, 125086, Control_c, 0, 64, 96
1, 125086, Control_c, 0, 67, 102
1, 125101, Control_c, 0, 64, 96
1, 125113, Note_off_c, 0, 62, 65
1, 125114, Note_off_c, 0, 57, 56
1, 125116, Control_c, 0, 64, 95
1, 125116, Control_c, 0, 67, 102
1, 125132, Control_c, 0, 64, 93
1, 125132, Control_c, 0, 67, 103
1, 125146, Note_off_c, 0, 50, 62
1, 125147, Control_c, 0, 64, 92
1, 125152, Note_off_c, 0, 69, 63
1, 125155, Note_on_c, 0, 71, 77
1, 125160, Note_on_c, 0, 66, 68
1, 125161, Note_on_c, 0, 59, 58
1, 125162, Note_on_c, 0, 54, 67
1, 125162, Control_c, 0, 64, 90
1, 125176, Control_c, 0, 64, 87
1, 125191, Control_c, 0, 64, 76
1, 125191, Control_c, 0, 67, 102
1, 125206, Control_c, 0, 64, 62
1, 125206, Control_c, 0, 67, 102
1, 125208, Note_on_c, 0, 62, 69
1, 125208, Note_off_c, 0, 66, 53
1, 125220, Note_on_c, 0, 57, 70
1, 125221, Control_c, 0, 64, 39
1, 125221, Control_c, 0, 67, 100
1, 125225, Note_off_c, 0, 54, 64
1, 125225, Note_off_c, 0, 59, 61
1, 125228, Note_off_c, 0, 71, 67
1, 125233, Note_on_c, 0, 69, 75
1, 125236, Control_c, 0, 64, 0
1, 125236, Control_c, 0, 67, 99
1, 125238, Note_on_c, 0, 50, 57
1, 125250, Control_c, 0, 67, 97
1, 125257, Note_off_c, 0, 57, 57
1, 125262, Note_off_c, 0, 62, 63
1, 125265, Control_c, 0, 67, 97
1, 125292, Note_on_c, 0, 66, 84
1, 125293, Note_on_c, 0, 71, 88
1, 125295, Control_c, 0, 67, 98
1, 125300, Note_off_c, 0, 69, 62
1, 125308, Note_on_c, 0, 54, 78
1, 125310, Control_c, 0, 64, 29
1, 125310, Control_c, 0, 67, 99
1, 125310, Note_on_c, 0, 59, 80
1, 125322, Note_off_c, 0, 50, 65
1, 125325, Control_c, 0, 64, 55
1, 125325, Control_c, 0, 67, 99
1, 125339, Note_off_c, 0, 66, 62
1, 125340, Control_c, 0, 64, 95
1, 125340, Control_c, 0, 67, 100
1, 125340, Note_off_c, 0, 59, 64
1, 125349, Note_off_c, 0, 54, 65
1, 125355, Control_c, 0, 64, 127
1, 125355, Control_c, 0, 67, 101
1, 125369, Control_c, 0, 67, 102
1, 125384, Control_c, 0, 67, 103
1, 125399, Control_c, 0, 67, 103
1, 125474, Note_off_c, 0, 71, 59
1, 125488, Control_c, 0, 67, 104
1, 125502, Control_c, 0, 67, 104
1, 125517, Control_c, 0, 67, 105
1, 125709, Control_c, 0, 67, 105
1, 125724, Control_c, 0, 67, 104
1, 125739, Control_c, 0, 67, 104
1, 125762, Control_c, 0, 67, 103
1, 125776, Control_c, 0, 67, 102
1, 125791, Control_c, 0, 67, 101
1, 125806, Control_c, 0, 67, 99
1, 125820, Control_c, 0, 67, 96
1, 125824, Note_on_c, 0, 78, 99
1, 125830, Note_on_c, 0, 66, 84
1, 125835, Control_c, 0, 67, 91
1, 125837, Note_on_c, 0, 30, 88
1, 125846, Note_on_c, 0, 42, 73
1, 125848, Note_off_c, 0, 66, 72
1, 125850, Control_c, 0, 67, 80
1, 125861, Note_off_c, 0, 78, 67
1, 125864, Note_off_c, 0, 30, 64
1, 125865, Control_c, 0, 67, 67
1, 125876, Note_off_c, 0, 42, 66
1, 125880, Control_c, 0, 67, 55
1, 125894, Control_c, 0, 67, 50
1, 125909, Control_c, 0, 67, 50
1, 125925, Control_c, 0, 67, 50
1, 125940, Control_c, 0, 67, 52
1, 125970, Control_c, 0, 67, 53
1, 125985, Control_c, 0, 67, 54
1, 125999, Control_c, 0, 67, 55
1, 126014, Control_c, 0, 67, 55
1, 126029, Control_c, 0, 67, 56
1, 126058, Control_c, 0, 67, 56
1, 126088, Control_c, 0, 67, 56
1, 126177, Control_c, 0, 67, 55
1, 126178, Note_on_c, 0, 73, 83
1, 126188, Note_on_c, 0, 66, 63
1, 126190, Note_on_c, 0, 61, 71
1, 126193, Note_on_c, 0, 54, 65
1, 126237, Control_c, 0, 67, 56
1, 126251, Control_c, 0, 67, 56
1, 126255, Note_on_c, 0, 74, 72
1, 126258, Note_on_c, 0, 69, 70
1, 126260, Note_on_c, 0, 62, 79
1, 126260, Note_off_c, 0, 61, 65
1, 126266, Note_off_c, 0, 66, 59
1, 126266, Control_c, 0, 64, 81
1, 126266, Control_c, 0, 67, 57
1, 126269, Note_on_c, 0, 57, 78
1, 126281, Control_c, 0, 64, 60
1, 126281, Control_c, 0, 67, 58
1, 126296, Control_c, 0, 64, 30
1, 126296, Control_c, 0, 67, 58
1, 126296, Note_off_c, 0, 54, 63
1, 126311, Control_c, 0, 64, 0
1, 126311, Control_c, 0, 67, 58
1, 126325, Control_c, 0, 67, 57
1, 126330, Note_off_c, 0, 69, 65
1, 126332, Note_off_c, 0, 74, 64
1, 126337, Note_off_c, 0, 62, 61
1, 126340, Control_c, 0, 67, 56
1, 126353, Note_on_c, 0, 61, 75
1, 126355, Control_c, 0, 67, 53
1, 126367, Note_off_c, 0, 57, 59
1, 126370, Control_c, 0, 67, 49
1, 126385, Control_c, 0, 67, 43
1, 126389, Note_on_c, 0, 69, 79
1, 126394, Note_on_c, 0, 54, 72
1, 126399, Control_c, 0, 67, 32
1, 126402, Note_on_c, 0, 74, 97
1, 126404, Note_on_c, 0, 62, 96
1, 126410, Note_on_c, 0, 57, 72
1, 126414, Control_c, 0, 64, 61
1, 126414, Control_c, 0, 67, 21
1, 126421, Note_off_c, 0, 61, 65
1, 126428, Control_c, 0, 64, 127
1, 126428, Control_c, 0, 67, 17
1, 126431, Note_off_c, 0, 73, 66
1, 126436, Note_off_c, 0, 69, 67
1, 126442, Note_off_c, 0, 62, 68
1, 126442, Control_c, 0, 67, 10
1, 126457, Control_c, 0, 67, 0
1, 126461, Note_off_c, 0, 57, 65
1, 126465, Note_off_c, 0, 54, 65
1, 126486, Note_off_c, 0, 74, 60
1, 126946, Note_on_c, 0, 81, 103
1, 126947, Note_on_c, 0, 69, 102
1, 126958, Note_on_c, 0, 30, 99
1, 126959, Note_on_c, 0, 42, 107
1, 126970, Note_off_c, 0, 69, 69
1, 126979, Note_off_c, 0, 81, 69
1, 126983, Note_off_c, 0, 42, 66
1, 126985, Note_off_c, 0, 30, 64
1, 127302, Control_c, 0, 64, 96
1, 127317, Control_c, 0, 64, 62
1, 127328, Note_on_c, 0, 57, 69
1, 127331, Note_on_c, 0, 64, 77
1, 127332, Note_on_c, 0, 76, 96
1, 127332, Control_c, 0, 64, 36
1, 127339, Note_on_c, 0, 69, 83
1, 127346, Control_c, 0, 64, 0
1, 127363, Note_off_c, 0, 69, 68
1, 127382, Note_off_c, 0, 76, 56
1, 127417, Note_on_c, 0, 66, 89
1, 127417, Note_on_c, 0, 74, 80
1, 127418, Note_on_c, 0, 78, 86
1, 127423, Note_on_c, 0, 62, 78
1, 127426, Note_off_c, 0, 64, 60
1, 127435, Note_off_c, 0, 57, 57
1, 127467, Note_off_c, 0, 74, 66
1, 127498, Note_on_c, 0, 69, 85
1, 127501, Note_off_c, 0, 66, 61
1, 127502, Note_on_c, 0, 64, 76
1, 127508, Note_on_c, 0, 76, 74
1, 127516, Note_off_c, 0, 78, 68
1, 127531, Note_off_c, 0, 62, 61
1, 127536, Note_on_c, 0, 57, 47
1, 127547, Note_off_c, 0, 76, 65
1, 127548, Note_off_c, 0, 69, 65
1, 127555, Control_c, 0, 64, 38
1, 127558, Note_off_c, 0, 64, 56
1, 127569, Control_c, 0, 64, 66
1, 127572, Note_on_c, 0, 74, 99
1, 127581, Note_on_c, 0, 78, 102
1, 127584, Control_c, 0, 64, 127
1, 127585, Note_on_c, 0, 66, 106
1, 127587, Note_on_c, 0, 62, 84
1, 127595, Note_on_c, 0, 77, 74
1, 127608, Note_on_c, 0, 76, 42
1, 127609, Note_off_c, 0, 74, 71
1, 127614, Note_off_c, 0, 77, 66
1, 127619, Note_off_c, 0, 66, 69
1, 127632, Note_off_c, 0, 57, 54
1, 127634, Note_off_c, 0, 76, 58
1, 127637, Note_off_c, 0, 62, 68
1, 127641, Note_off_c, 0, 78, 68
1, 127940, Note_on_c, 0, 86, 96
1, 127945, Note_on_c, 0, 30, 98
1, 127945, Note_on_c, 0, 74, 97
1, 127945, Note_on_c, 0, 42, 97
1, 127964, Note_off_c, 0, 74, 70
1, 127966, Note_off_c, 0, 30, 67
1, 127970, Note_off_c, 0, 42, 66
1, 127970, Note_off_c, 0, 86, 68
1, 128037, Control_c, 0, 67, 14
1, 128052, Control_c, 0, 67, 30
1, 128067, Control_c, 0, 67, 46
1, 128082, Control_c, 0, 67, 51
1, 128096, Control_c, 0, 67, 52
1, 128111, Control_c, 0, 67, 53
1, 128126, Control_c, 0, 67, 54
1, 128200, Control_c, 0, 64, 75
1, 128205, Note_on_c, 0, 55, 65
1, 128209, Note_on_c, 0, 67, 76
1, 128209, Note_on_c, 0, 76, 81
1, 128214, Control_c, 0, 64, 48
1, 128214, Control_c, 0, 67, 53
1, 128216, Note_on_c, 0, 64, 50
1, 128229, Control_c, 0, 64, 0
1, 128229, Control_c, 0, 67, 53
1, 128244, Control_c, 0, 67, 52
1, 128259, Control_c, 0, 67, 51
1, 128260, Note_off_c, 0, 67, 61
1, 128280, Note_on_c, 0, 71, 88
1, 128282, Note_on_c, 0, 78, 105
1, 128289, Control_c, 0, 67, 53
1, 128291, Note_on_c, 0, 66, 102
1, 128291, Note_on_c, 0, 59, 85
1, 128303, Note_off_c, 0, 64, 45
1, 128303, Control_c, 0, 64, 17
1, 128303, Control_c, 0, 67, 54
1, 128309, Note_off_c, 0, 76, 67
1, 128319, Control_c, 0, 64, 48
1, 128319, Control_c, 0, 67, 55
1, 128320, Note_off_c, 0, 71, 70
1, 128330, Note_off_c, 0, 66, 68
1, 128334, Control_c, 0, 64, 66
1, 128334, Control_c, 0, 67, 56
1, 128337, Note_off_c, 0, 78, 67
1, 128338, Note_off_c, 0, 55, 66
1, 128349, Control_c, 0, 64, 127
1, 128349, Control_c, 0, 67, 57
1, 128352, Note_off_c, 0, 59, 65
1, 128364, Control_c, 0, 67, 58
1, 128379, Control_c, 0, 67, 60
1, 128393, Control_c, 0, 67, 62
1, 128408, Control_c, 0, 67, 64
1, 128423, Control_c, 0, 67, 64
1, 128482, Control_c, 0, 67, 63
1, 128497, Control_c, 0, 67, 61
1, 128511, Control_c, 0, 67, 60
1, 128556, Control_c, 0, 67, 60
1, 128571, Control_c, 0, 67, 61
1, 128586, Control_c, 0, 67, 62
1, 128601, Control_c, 0, 67, 63
1, 128616, Control_c, 0, 67, 64
1, 128625, Note_on_c, 0, 85, 87
1, 128627, Note_on_c, 0, 42, 93
1, 128627, Note_on_c, 0, 73, 95
1, 128631, Control_c, 0, 67, 66
1, 128645, Control_c, 0, 67, 71
1, 128654, Note_off_c, 0, 85, 69
1, 128660, Control_c, 0, 67, 75
1, 128661, Note_off_c, 0, 73, 65
1, 128664, Note_on_c, 0, 82, 26
1, 128669, Note_off_c, 0, 42, 60
1, 128675, Control_c, 0, 67, 77
1, 128705, Note_off_c, 0, 82, 33
1, 128741, Control_c, 0, 67, 78
1, 128771, Control_c, 0, 67, 78
1, 128837, Note_on_c, 0, 55, 57
1, 128848, Note_on_c, 0, 74, 62
1, 128853, Note_on_c, 0, 67, 60
1, 128859, Note_on_c, 0, 62, 65
1, 128896, Note_off_c, 0, 55, 64
1, 128899, Note_on_c, 0, 59, 58
1, 128911, Note_off_c, 0, 62, 62
1, 128920, Note_off_c, 0, 74, 66
1, 128924, Note_on_c, 0, 64, 56
1, 128926, Note_on_c, 0, 71, 58
1, 128928, Note_off_c, 0, 67, 0
1, 128932, Note_on_c, 0, 76, 63
1, 128942, Note_on_c, 0, 67, 56
1, 128949, Control_c, 0, 64, 92
1, 128958, Note_off_c, 0, 71, 54
1, 128962, Note_off_c, 0, 59, 62
1, 128964, Control_c, 0, 64, 65
1, 128970, Note_off_c, 0, 76, 55
1, 128976, Note_on_c, 0, 55, 67
1, 128978, Control_c, 0, 64, 46
1, 128985, Note_off_c, 0, 64, 64
1, 128988, Note_on_c, 0, 62, 45
1, 128993, Control_c, 0, 64, 0
1, 129008, Control_c, 0, 67, 78
1, 129012, Note_off_c, 0, 67, 63
1, 129023, Note_on_c, 0, 74, 76
1, 129023, Control_c, 0, 67, 77
1, 129027, Note_on_c, 0, 71, 80
1, 129036, Note_on_c, 0, 76, 104
1, 129038, Control_c, 0, 67, 77
1, 129040, Note_on_c, 0, 59, 81
1, 129044, Note_on_c, 0, 64, 82
1, 129048, Note_off_c, 0, 71, 71
1, 129053, Note_off_c, 0, 62, 62
1, 129066, Note_off_c, 0, 74, 68
1, 129067, Control_c, 0, 64, 37
1, 129080, Note_off_c, 0, 55, 66
1, 129080, Note_off_c, 0, 64, 65
1, 129080, Note_off_c, 0, 76, 71
1, 129082, Control_c, 0, 64, 68
1, 129093, Note_off_c, 0, 59, 65
1, 129097, Control_c, 0, 64, 127
1, 129112, Control_c, 0, 67, 77
1, 129142, Control_c, 0, 67, 78
1, 129231, Control_c, 0, 67, 77
1, 129246, Control_c, 0, 67, 75
1, 129260, Control_c, 0, 67, 72
1, 129275, Control_c, 0, 67, 67
1, 129290, Control_c, 0, 67, 55
1, 129305, Control_c, 0, 67, 35
1, 129320, Control_c, 0, 67, 14
1, 129335, Control_c, 0, 67, 0
1, 129351, Note_on_c, 0, 30, 90
1, 129352, Note_on_c, 0, 85, 87
1, 129354, Note_on_c, 0, 42, 88
1, 129357, Note_on_c, 0, 73, 91
1, 129368, Note_off_c, 0, 30, 69
1, 129379, Control_c, 0, 67, 8
1, 129382, Note_off_c, 0, 73, 63
1, 129385, Note_off_c, 0, 85, 68
1, 129387, Note_off_c, 0, 42, 63
1, 129394, Control_c, 0, 67, 10
1, 129409, Control_c, 0, 67, 11
1, 129423, Control_c, 0, 67, 13
1, 129438, Control_c, 0, 67, 15
1, 129453, Control_c, 0, 67, 18
1, 129468, Control_c, 0, 67, 20
1, 129490, Control_c, 0, 67, 21
1, 129505, Control_c, 0, 67, 22
1, 129520, Control_c, 0, 67, 24
1, 129535, Control_c, 0, 67, 25
1, 129549, Control_c, 0, 67, 27
1, 129564, Control_c, 0, 67, 30
1, 129579, Control_c, 0, 67, 31
1, 129593, Control_c, 0, 67, 34
1, 129601, Note_on_c, 0, 73, 77
1, 129602, Note_on_c, 0, 64, 76
1, 129607, Note_on_c, 0, 52, 69
1, 129608, Control_c, 0, 64, 70
1, 129608, Control_c, 0, 67, 35
1, 129613, Note_on_c, 0, 61, 67
1, 129623, Control_c, 0, 64, 47
1, 129623, Control_c, 0, 67, 36
1, 129638, Control_c, 0, 64, 0
1, 129638, Control_c, 0, 67, 38
1, 129645, Note_off_c, 0, 64, 62
1, 129653, Control_c, 0, 67, 39
1, 129668, Control_c, 0, 67, 40
1, 129671, Note_on_c, 0, 74, 94
1, 129677, Note_on_c, 0, 67, 86
1, 129680, Note_on_c, 0, 62, 91
1, 129683, Control_c, 0, 67, 40
1, 129690, Note_on_c, 0, 55, 76
1, 129698, Control_c, 0, 67, 41
1, 129702, Note_off_c, 0, 61, 66
1, 129703, Note_off_c, 0, 73, 66
1, 129713, Control_c, 0, 64, 17
1, 129713, Control_c, 0, 67, 42
1, 129724, Note_off_c, 0, 67, 66
1, 129727, Note_off_c, 0, 62, 64
1, 129727, Control_c, 0, 64, 47
1, 129727, Control_c, 0, 67, 42
1, 129739, Note_off_c, 0, 74, 69
1, 129742, Control_c, 0, 64, 67
1, 129742, Control_c, 0, 67, 43
1, 129750, Note_off_c, 0, 55, 67
1, 129751, Note_off_c, 0, 52, 65
1, 129757, Control_c, 0, 64, 127
1, 129757, Control_c, 0, 67, 46
1, 129772, Control_c, 0, 67, 49
1, 129787, Control_c, 0, 67, 52
1, 129801, Control_c, 0, 67, 53
1, 129816, Control_c, 0, 67, 53
1, 129831, Control_c, 0, 67, 53
1, 129846, Control_c, 0, 67, 52
1, 129861, Control_c, 0, 67, 51
1, 129875, Control_c, 0, 67, 50
1, 129905, Control_c, 0, 67, 49
1, 129921, Control_c, 0, 67, 48
1, 129936, Control_c, 0, 67, 46
1, 129951, Control_c, 0, 67, 44
1, 129965, Control_c, 0, 67, 43
1, 129980, Note_on_c, 0, 83, 90
1, 129984, Note_on_c, 0, 42, 86
1, 129984, Note_on_c, 0, 71, 86
1, 129995, Control_c, 0, 67, 44
1, 130007, Note_off_c, 0, 71, 71
1, 130010, Control_c, 0, 67, 45
1, 130011, Note_off_c, 0, 83, 72
1, 130023, Note_off_c, 0, 42, 60
1, 130024, Control_c, 0, 67, 45
1, 130039, Control_c, 0, 67, 46
1, 130054, Control_c, 0, 67, 47
1, 130069, Control_c, 0, 67, 49
1, 130084, Control_c, 0, 67, 50
1, 130098, Control_c, 0, 67, 51
1, 130128, Control_c, 0, 67, 51
1, 130190, Note_on_c, 0, 54, 67
1, 130191, Note_on_c, 0, 66, 68
1, 130193, Note_on_c, 0, 73, 79
1, 130203, Note_on_c, 0, 61, 68
1, 130216, Control_c, 0, 67, 52
1, 130236, Note_off_c, 0, 66, 58
1, 130239, Control_c, 0, 67, 52
1, 130254, Control_c, 0, 67, 53
1, 130275, Note_on_c, 0, 74, 70
1, 130278, Note_off_c, 0, 61, 64
1, 130279, Note_off_c, 0, 73, 63
1, 130280, Note_on_c, 0, 62, 79
1, 130282, Note_on_c, 0, 69, 58
1, 130284, Control_c, 0, 64, 84
1, 130284, Control_c, 0, 67, 54
1, 130288, Note_on_c, 0, 66, 60
1, 130290, Note_on_c, 0, 57, 70
1, 130298, Control_c, 0, 64, 63
1, 130298, Control_c, 0, 67, 55
1, 130313, Control_c, 0, 64, 45
1, 130318, Note_off_c, 0, 69, 50
1, 130324, Note_off_c, 0, 54, 64
1, 130328, Control_c, 0, 64, 0
1, 130328, Control_c, 0, 67, 56
1, 130330, Note_on_c, 0, 73, 74
1, 130337, Note_off_c, 0, 74, 64
1, 130342, Note_off_c, 0, 62, 62
1, 130362, Note_on_c, 0, 61, 73
1, 130362, Note_off_c, 0, 66, 63
1, 130368, Note_off_c, 0, 57, 62
1, 130398, Note_on_c, 0, 69, 77
1, 130403, Note_on_c, 0, 74, 70
1, 130411, Note_on_c, 0, 54, 82
1, 130416, Note_on_c, 0, 62, 92
1, 130416, Control_c, 0, 67, 55
1, 130427, Note_off_c, 0, 61, 64
1, 130431, Note_on_c, 0, 57, 71
1, 130431, Control_c, 0, 64, 47
1, 130431, Control_c, 0, 67, 54
1, 130437, Note_off_c, 0, 73, 48
1, 130441, Note_off_c, 0, 69, 65
1, 130446, Control_c, 0, 64, 80
1, 130446, Control_c, 0, 67, 54
1, 130449, Note_off_c, 0, 62, 66
1, 130461, Note_off_c, 0, 57, 66
1, 130461, Control_c, 0, 64, 127
1, 130461, Control_c, 0, 67, 53
1, 130467, Note_off_c, 0, 54, 68
1, 130472, Note_off_c, 0, 74, 67
1, 130476, Control_c, 0, 67, 53
1, 130565, Control_c, 0, 67, 53
1, 130580, Control_c, 0, 67, 54
1, 130595, Control_c, 0, 67, 54
1, 130609, Control_c, 0, 67, 55
1, 130698, Control_c, 0, 67, 56
1, 130714, Control_c, 0, 67, 57
1, 130725, Note_on_c, 0, 83, 92
1, 130726, Note_on_c, 0, 30, 86
1, 130729, Control_c, 0, 67, 58
1, 130731, Note_on_c, 0, 42, 84
1, 130731, Note_on_c, 0, 71, 87
1, 130744, Control_c, 0, 67, 61
1, 130752, Note_off_c, 0, 71, 72
1, 130754, Note_off_c, 0, 30, 64
1, 130756, Note_off_c, 0, 42, 65
1, 130756, Note_off_c, 0, 83, 69
1, 130759, Control_c, 0, 67, 65
1, 130774, Control_c, 0, 67, 68
1, 130788, Control_c, 0, 67, 71
1, 130803, Control_c, 0, 67, 75
1, 130818, Control_c, 0, 67, 79
1, 130833, Control_c, 0, 67, 81
1, 130847, Control_c, 0, 67, 81
1, 130862, Control_c, 0, 67, 82
1, 130877, Control_c, 0, 67, 83
1, 130892, Control_c, 0, 67, 83
1, 130907, Control_c, 0, 67, 84
1, 130920, Control_c, 0, 67, 85
1, 130935, Control_c, 0, 64, 103
1, 130935, Control_c, 0, 67, 85
1, 130950, Control_c, 0, 64, 69
1, 130962, Note_on_c, 0, 59, 60
1, 130965, Note_on_c, 0, 64, 47
1, 130965, Control_c, 0, 64, 47
1, 130965, Control_c, 0, 67, 87
1, 130969, Note_on_c, 0, 52, 55
1, 130980, Control_c, 0, 64, 0
1, 130980, Control_c, 0, 67, 89
1, 131000, Note_on_c, 0, 71, 53
1, 131002, Control_c, 0, 67, 91
1, 131009, Note_on_c, 0, 72, 56
1, 131017, Control_c, 0, 67, 93
1, 131031, Note_off_c, 0, 72, 59
1, 131032, Control_c, 0, 67, 95
1, 131036, Note_on_c, 0, 73, 92
1, 131037, Note_on_c, 0, 67, 77
1, 131044, Note_on_c, 0, 55, 77
1, 131046, Control_c, 0, 67, 99
1, 131048, Note_on_c, 0, 61, 83
1, 131051, Note_off_c, 0, 59, 63
1, 131061, Control_c, 0, 67, 103
1, 131073, Note_off_c, 0, 71, 66
1, 131074, Note_off_c, 0, 67, 64
1, 131076, Note_off_c, 0, 64, 25
1, 131076, Control_c, 0, 64, 33
1, 131076, Control_c, 0, 67, 105
1, 131090, Note_off_c, 0, 61, 65
1, 131091, Control_c, 0, 64, 57
1, 131091, Control_c, 0, 67, 106
1, 131104, Note_off_c, 0, 73, 67
1, 131106, Control_c, 0, 64, 80
1, 131108, Note_off_c, 0, 55, 67
1, 131111, Note_off_c, 0, 52, 65
1, 131120, Control_c, 0, 64, 127
1, 131134, Poly_aftertouch_c, 0, 66, 0
1, 131164, Control_c, 0, 67, 105
1, 131179, Control_c, 0, 67, 103
1, 131194, Control_c, 0, 67, 101
1, 131209, Control_c, 0, 67, 98
1, 131224, Control_c, 0, 67, 95
1, 131239, Control_c, 0, 67, 92
1, 131254, Control_c, 0, 67, 87
1, 131269, Control_c, 0, 67, 80
1, 131284, Control_c, 0, 67, 72
1, 131292, Poly_aftertouch_c, 0, 78, 127
1, 131298, Control_c, 0, 67, 61
1, 131313, Control_c, 0, 67, 54
1, 131336, Note_on_c, 0, 42, 79
1, 131338, Note_on_c, 0, 81, 87
1, 131343, Control_c, 0, 67, 56
1, 131343, Note_on_c, 0, 69, 85
1, 131345, Poly_aftertouch_c, 0, 78, 0
1, 131357, Control_c, 0, 67, 57
1, 131364, Note_off_c, 0, 81, 65
1, 131366, Note_off_c, 0, 69, 69
1, 131372, Control_c, 0, 67, 58
1, 131385, Note_off_c, 0, 42, 60
1, 131387, Control_c, 0, 67, 60
1, 131402, Control_c, 0, 67, 61
1, 131417, Control_c, 0, 67, 63
1, 131431, Control_c, 0, 67, 65
1, 131446, Control_c, 0, 67, 67
1, 131461, Control_c, 0, 67, 67
1, 131507, Control_c, 0, 67, 68
1, 131549, Note_on_c, 0, 50, 50
1, 131551, Control_c, 0, 64, 100
1, 131564, Note_on_c, 0, 62, 39
1, 131566, Note_on_c, 0, 59, 47
1, 131566, Control_c, 0, 64, 60
1, 131568, Note_on_c, 0, 71, 58
1, 131580, Control_c, 0, 64, 27
1, 131580, Control_c, 0, 67, 69
1, 131595, Control_c, 0, 64, 0
1, 131595, Control_c, 0, 67, 70
1, 131610, Control_c, 0, 67, 71
1, 131619, Note_on_c, 0, 66, 81
1, 131620, Note_off_c, 0, 62, 60
1, 131625, Control_c, 0, 67, 75
1, 131627, Note_on_c, 0, 73, 87
1, 131629, Note_off_c, 0, 50, 62
1, 131635, Note_on_c, 0, 61, 83
1, 131640, Control_c, 0, 67, 79
1, 131643, Note_on_c, 0, 54, 76
1, 131644, Note_off_c, 0, 59, 61
1, 131655, Control_c, 0, 64, 14
1, 131655, Control_c, 0, 67, 80
1, 131658, Note_off_c, 0, 71, 66
1, 131663, Note_off_c, 0, 66, 64
1, 131670, Control_c, 0, 64, 43
1, 131670, Control_c, 0, 67, 81
1, 131677, Note_off_c, 0, 61, 66
1, 131685, Control_c, 0, 64, 62
1, 131686, Note_off_c, 0, 73, 67
1, 131700, Control_c, 0, 64, 127
1, 131704, Note_off_c, 0, 54, 65
1, 131715, Control_c, 0, 67, 82
1, 131752, Control_c, 0, 67, 82
1, 131781, Control_c, 0, 67, 83
1, 131796, Control_c, 0, 67, 82
1, 131811, Control_c, 0, 67, 79
1, 131826, Control_c, 0, 67, 76
1, 131841, Note_on_c, 0, 78, 22
1, 131841, Control_c, 0, 67, 73
1, 131856, Control_c, 0, 67, 69
1, 131870, Control_c, 0, 67, 63
1, 131885, Control_c, 0, 67, 54
1, 131893, Note_off_c, 0, 78, 46
1, 131900, Control_c, 0, 67, 45
1, 131915, Control_c, 0, 67, 46
1, 131930, Control_c, 0, 67, 49
1, 131933, Note_on_c, 0, 81, 81
1, 131934, Note_on_c, 0, 30, 76
1, 131936, Note_on_c, 0, 69, 78
1, 131945, Control_c, 0, 67, 52
1, 131946, Note_on_c, 0, 42, 64
1, 131957, Note_off_c, 0, 30, 66
1, 131959, Note_off_c, 0, 81, 67
1, 131960, Note_off_c, 0, 69, 69
1, 131960, Control_c, 0, 67, 54
1, 131974, Note_off_c, 0, 42, 60
1, 131975, Control_c, 0, 67, 55
1, 131989, Control_c, 0, 67, 58
1, 132004, Control_c, 0, 67, 62
1, 132019, Control_c, 0, 67, 65
1, 132034, Control_c, 0, 67, 68
1, 132049, Control_c, 0, 67, 70
1, 132063, Control_c, 0, 67, 71
1, 132078, Control_c, 0, 67, 71
1, 132123, Control_c, 0, 67, 72
1, 132137, Control_c, 0, 64, 110
1, 132152, Control_c, 0, 64, 74
1, 132152, Control_c, 0, 67, 74
1, 132157, Note_on_c, 0, 57, 43
1, 132165, Note_on_c, 0, 62, 57
1, 132167, Control_c, 0, 64, 54
1, 132167, Control_c, 0, 67, 77
1, 132170, Note_on_c, 0, 69, 68
1, 132178, Note_on_c, 0, 50, 55
1, 132181, Control_c, 0, 64, 0
1, 132181, Control_c, 0, 67, 81
1, 132196, Control_c, 0, 67, 85
1, 132211, Control_c, 0, 67, 91
1, 132217, Note_on_c, 0, 71, 82
1, 132217, Note_on_c, 0, 64, 70
1, 132221, Note_on_c, 0, 59, 71
1, 132223, Note_off_c, 0, 57, 56
1, 132226, Control_c, 0, 67, 96
1, 132234, Note_on_c, 0, 55, 72
1, 132234, Note_off_c, 0, 62, 63
1, 132241, Control_c, 0, 67, 101
1, 132256, Control_c, 0, 67, 105
1, 132258, Note_off_c, 0, 69, 63
1, 132267, Note_off_c, 0, 64, 63
1, 132269, Note_off_c, 0, 59, 61
1, 132270, Control_c, 0, 64, 23
1, 132270, Control_c, 0, 67, 107
1, 132283, Note_on_c, 0, 53, 4
1, 132285, Note_off_c, 0, 55, 65
1, 132285, Note_off_c, 0, 71, 68
1, 132285, Control_c, 0, 64, 46
1, 132285, Control_c, 0, 67, 107
1, 132300, Note_off_c, 0, 50, 64
1, 132300, Control_c, 0, 64, 63
1, 132300, Control_c, 0, 67, 108
1, 132316, Control_c, 0, 64, 89
1, 132316, Control_c, 0, 67, 109
1, 132331, Control_c, 0, 64, 99
1, 132331, Control_c, 0, 67, 110
1, 132335, Note_off_c, 0, 53, 54
1, 132346, Control_c, 0, 64, 103
1, 132346, Control_c, 0, 67, 110
1, 132360, Control_c, 0, 64, 107
1, 132404, Control_c, 0, 67, 108
1, 132419, Control_c, 0, 67, 106
1, 132434, Control_c, 0, 67, 102
1, 132449, Control_c, 0, 67, 97
1, 132464, Control_c, 0, 67, 88
1, 132486, Control_c, 0, 67, 77
1, 132501, Control_c, 0, 67, 72
1, 132505, Note_on_c, 0, 79, 76
1, 132510, Note_on_c, 0, 42, 70
1, 132510, Note_on_c, 0, 67, 75
1, 132516, Control_c, 0, 67, 75
1, 132530, Note_off_c, 0, 79, 64
1, 132531, Control_c, 0, 67, 81
1, 132533, Note_off_c, 0, 67, 70
1, 132546, Control_c, 0, 64, 106
1, 132546, Control_c, 0, 67, 85
1, 132549, Note_off_c, 0, 42, 62
1, 132560, Control_c, 0, 67, 88
1, 132575, Control_c, 0, 64, 105
1, 132575, Control_c, 0, 67, 92
1, 132590, Control_c, 0, 64, 104
1, 132590, Control_c, 0, 67, 98
1, 132605, Control_c, 0, 64, 103
1, 132605, Control_c, 0, 67, 106
1, 132619, Control_c, 0, 64, 102
1, 132619, Control_c, 0, 67, 110
1, 132634, Control_c, 0, 64, 101
1, 132634, Control_c, 0, 67, 112
1, 132679, Control_c, 0, 64, 101
1, 132679, Control_c, 0, 67, 112
1, 132693, Control_c, 0, 64, 100
1, 132693, Control_c, 0, 67, 113
1, 132700, Note_on_c, 0, 50, 48
1, 132708, Control_c, 0, 64, 96
1, 132708, Control_c, 0, 67, 115
1, 132723, Note_on_c, 0, 62, 48
1, 132723, Control_c, 0, 64, 76
1, 132723, Control_c, 0, 67, 118
1, 132732, Note_on_c, 0, 69, 61
1, 132738, Control_c, 0, 64, 58
1, 132738, Control_c, 0, 67, 123
1, 132753, Control_c, 0, 64, 28
1, 132753, Control_c, 0, 67, 127
1, 132754, Note_on_c, 0, 57, 10
1, 132768, Control_c, 0, 64, 0
1, 132780, Note_on_c, 0, 59, 59
1, 132789, Note_on_c, 0, 54, 59
1, 132792, Note_on_c, 0, 71, 72
1, 132800, Note_off_c, 0, 57, 38
1, 132809, Note_on_c, 0, 66, 72
1, 132819, Note_off_c, 0, 62, 61
1, 132830, Note_off_c, 0, 69, 57
1, 132837, Note_off_c, 0, 59, 61
1, 132842, Note_off_c, 0, 66, 64
1, 132842, Control_c, 0, 64, 37
1, 132856, Note_off_c, 0, 50, 63
1, 132857, Control_c, 0, 64, 54
1, 132857, Note_off_c, 0, 71, 67
1, 132860, Note_off_c, 0, 54, 64
1, 132872, Control_c, 0, 64, 70
1, 132886, Control_c, 0, 64, 101
1, 132901, Control_c, 0, 64, 101
1, 133090, Note_on_c, 0, 78, 68
1, 133091, Note_on_c, 0, 30, 61
1, 133093, Control_c, 0, 64, 101
1, 133096, Note_on_c, 0, 66, 67
1, 133100, Note_on_c, 0, 42, 54
1, 133109, Control_c, 0, 64, 100
1, 133121, Note_off_c, 0, 78, 67
1, 133123, Note_off_c, 0, 30, 62
1, 133124, Control_c, 0, 64, 98
1, 133129, Note_off_c, 0, 66, 64
1, 133137, Note_off_c, 0, 42, 62
1, 133139, Control_c, 0, 64, 95
1, 133154, Control_c, 0, 64, 93
1, 133169, Control_c, 0, 64, 92
1, 133183, Control_c, 0, 64, 91
1, 133198, Control_c, 0, 64, 91
1, 133213, Control_c, 0, 64, 90
1, 133235, Control_c, 0, 64, 89
1, 133250, Control_c, 0, 64, 88
1, 133265, Control_c, 0, 64, 86
1, 133280, Control_c, 0, 64, 85
1, 133295, Control_c, 0, 64, 84
1, 133324, Control_c, 0, 64, 81
1, 133326, Note_on_c, 0, 55, 48
1, 133339, Control_c, 0, 64, 69
1, 133344, Note_on_c, 0, 48, 42
1, 133349, Note_on_c, 0, 67, 60
1, 133354, Note_on_c, 0, 60, 43
1, 133354, Control_c, 0, 64, 53
1, 133369, Control_c, 0, 64, 16
1, 133383, Control_c, 0, 64, 0
1, 133388, Note_off_c, 0, 55, 58
1, 133397, Note_on_c, 0, 69, 63
1, 133408, Note_off_c, 0, 60, 45
1, 133416, Note_on_c, 0, 57, 49
1, 133432, Note_on_c, 0, 52, 56
1, 133439, Note_on_c, 0, 64, 56
1, 133442, Note_off_c, 0, 67, 55
1, 133457, Control_c, 0, 64, 17
1, 133466, Note_off_c, 0, 57, 56
1, 133472, Control_c, 0, 64, 38
1, 133479, Note_off_c, 0, 64, 64
1, 133487, Control_c, 0, 64, 56
1, 133492, Note_off_c, 0, 52, 65
1, 133492, Note_off_c, 0, 69, 65
1, 133502, Control_c, 0, 64, 68
1, 133516, Control_c, 0, 64, 80
1, 133525, Note_off_c, 0, 48, 40
1, 133546, Control_c, 0, 64, 81
1, 133561, Control_c, 0, 64, 81
1, 133707, Note_on_c, 0, 42, 64
1, 133714, Note_on_c, 0, 76, 67
1, 133721, Note_on_c, 0, 64, 60
1, 133738, Note_off_c, 0, 76, 68
1, 133749, Note_off_c, 0, 42, 60
1, 133752, Note_off_c, 0, 64, 65
1, 133754, Control_c, 0, 64, 81
1, 133768, Control_c, 0, 64, 80
1, 133783, Control_c, 0, 64, 80
1, 133813, Control_c, 0, 64, 79
1, 133857, Control_c, 0, 64, 79
1, 133902, Control_c, 0, 64, 78
1, 133918, Control_c, 0, 64, 78
1, 133932, Control_c, 0, 64, 77
1, 133941, Note_on_c, 0, 55, 46
1, 133947, Control_c, 0, 64, 70
1, 133962, Control_c, 0, 64, 58
1, 133984, Control_c, 0, 64, 35
1, 133984, Note_on_c, 0, 67, 57
1, 133986, Note_on_c, 0, 59, 37
1, 133999, Control_c, 0, 64, 0
1, 134004, Note_on_c, 0, 47, 43
1, 134029, Note_on_c, 0, 57, 45
1, 134038, Note_on_c, 0, 69, 55
1, 134040, Note_off_c, 0, 55, 63
1, 134067, Note_on_c, 0, 62, 59
1, 134075, Note_on_c, 0, 50, 52
1, 134077, Note_off_c, 0, 59, 28
1, 134088, Control_c, 0, 64, 32
1, 134100, Note_off_c, 0, 57, 61
1, 134103, Control_c, 0, 64, 49
1, 134104, Note_off_c, 0, 62, 63
1, 134115, Note_off_c, 0, 67, 35
1, 134116, Note_off_c, 0, 69, 64
1, 134118, Control_c, 0, 64, 63
1, 134132, Control_c, 0, 64, 79
1, 134134, Note_off_c, 0, 50, 62
1, 134135, Note_off_c, 0, 47, 60
1, 134147, Control_c, 0, 64, 81
1, 134162, Control_c, 0, 64, 82
1, 134177, Control_c, 0, 64, 83
1, 134354, Control_c, 0, 64, 82
1, 134369, Control_c, 0, 64, 82
1, 134384, Control_c, 0, 64, 81
1, 134391, Note_on_c, 0, 74, 54
1, 134399, Control_c, 0, 64, 81
1, 134413, Control_c, 0, 64, 80
1, 134414, Note_on_c, 0, 30, 43
1, 134416, Note_on_c, 0, 42, 44
1, 134423, Note_off_c, 0, 74, 65
1, 134449, Note_off_c, 0, 30, 60
1, 134452, Note_off_c, 0, 42, 51
1, 134473, Poly_aftertouch_c, 0, 62, 127
1, 134503, Control_c, 0, 64, 80
1, 134506, Poly_aftertouch_c, 0, 62, 0
1, 134532, Control_c, 0, 64, 79
1, 134562, Control_c, 0, 64, 79
1, 134591, Control_c, 0, 64, 78
1, 134665, Control_c, 0, 64, 78
1, 134680, Control_c, 0, 64, 76
1, 134695, Control_c, 0, 64, 69
1, 134706, Note_on_c, 0, 66, 55
1, 134711, Control_c, 0, 64, 59
1, 134720, Note_on_c, 0, 59, 37
1, 134726, Note_on_c, 0, 47, 44
1, 134726, Control_c, 0, 64, 44
1, 134726, Note_on_c, 0, 54, 43
1, 134748, Control_c, 0, 64, 18
1, 134763, Control_c, 0, 64, 0
1, 134792, Note_on_c, 0, 67, 48
1, 134800, Note_off_c, 0, 54, 42
1, 134814, Note_off_c, 0, 66, 51
1, 134837, Note_on_c, 0, 55, 42
1, 134852, Control_c, 0, 64, 23
1, 134858, Note_on_c, 0, 62, 51
1, 134859, Note_on_c, 0, 50, 35
1, 134867, Control_c, 0, 64, 34
1, 134881, Control_c, 0, 64, 43
1, 134896, Control_c, 0, 64, 52
1, 134911, Control_c, 0, 64, 60
1, 134926, Control_c, 0, 64, 67
1, 134941, Control_c, 0, 64, 67
1, 134956, Control_c, 0, 64, 68
1, 134965, Note_off_c, 0, 67, 57
1, 134967, Note_off_c, 0, 55, 37
1, 134970, Control_c, 0, 64, 70
1, 134972, Note_off_c, 0, 62, 0
1, 134972, Note_on_c, 0, 62, 16
1, 134985, Control_c, 0, 64, 72
1, 134993, Note_off_c, 0, 50, 52
1, 134999, Note_off_c, 0, 47, 44
1, 135000, Control_c, 0, 64, 73
1, 135014, Control_c, 0, 64, 74
1, 135029, Control_c, 0, 64, 75
1, 135236, Control_c, 0, 64, 74
1, 135251, Control_c, 0, 64, 74
1, 135266, Control_c, 0, 64, 73
1, 135281, Control_c, 0, 64, 72
1, 135314, Note_on_c, 0, 42, 41
1, 135337, Poly_aftertouch_c, 0, 71, 127
1, 135385, Poly_aftertouch_c, 0, 71, 0
1, 135468, Note_off_c, 0, 59, 40
1, 135526, Control_c, 0, 67, 123
1, 135541, Control_c, 0, 67, 110
1, 135556, Control_c, 0, 67, 102
1, 135570, Control_c, 0, 67, 98
1, 135600, Control_c, 0, 67, 98
1, 135615, Control_c, 0, 67, 99
1, 135630, Control_c, 0, 67, 101
1, 135645, Control_c, 0, 67, 103
1, 135659, Control_c, 0, 67, 104
1, 135674, Control_c, 0, 67, 105
1, 135683, Note_off_c, 0, 62, 43
1, 135689, Control_c, 0, 67, 106
1, 135704, Control_c, 0, 67, 108
1, 135719, Control_c, 0, 67, 111
1, 135734, Control_c, 0, 67, 118
1, 135749, Control_c, 0, 64, 72
1, 135749, Control_c, 0, 67, 127
1, 135758, Note_on_c, 0, 55, 42
1, 135763, Control_c, 0, 64, 68
1, 135764, Note_on_c, 0, 64, 43
1, 135778, Control_c, 0, 64, 60
1, 135793, Control_c, 0, 64, 47
1, 135808, Control_c, 0, 64, 29
1, 135815, Note_off_c, 0, 64, 54
1, 135823, Control_c, 0, 64, 0
1, 135826, Note_on_c, 0, 66, 54
1, 135853, Note_on_c, 0, 62, 35
1, 135896, Note_off_c, 0, 42, 40
1, 135915, Note_off_c, 0, 55, 42
1, 135941, Control_c, 0, 64, 19
1, 135955, Control_c, 0, 64, 29
1, 135970, Control_c, 0, 64, 39
1, 135985, Control_c, 0, 64, 49
1, 136000, Control_c, 0, 64, 58
1, 136015, Control_c, 0, 64, 62
1, 136029, Control_c, 0, 64, 63
1, 136059, Control_c, 0, 64, 63
1, 136074, Control_c, 0, 64, 64
1, 136082, Note_on_c, 0, 54, 40
1, 136089, Control_c, 0, 64, 65
1, 136119, Control_c, 0, 64, 65
1, 136163, Control_c, 0, 64, 66
1, 136178, Control_c, 0, 64, 66
1, 136193, Control_c, 0, 64, 67
1, 136205, Note_on_c, 0, 47, 46
1, 136213, Note_off_c, 0, 54, 35
1, 136229, Control_c, 0, 64, 67
1, 136280, Note_off_c, 0, 47, 56
1, 136285, Note_on_c, 0, 71, 58
1, 136331, Note_on_c, 0, 55, 35
1, 136339, Note_off_c, 0, 71, 61
1, 136368, Note_off_c, 0, 55, 53
1, 136404, Note_off_c, 0, 66, 37
1, 136408, Control_c, 0, 64, 68
1, 136423, Control_c, 0, 64, 68
1, 136429, Note_on_c, 0, 47, 48
1, 136467, Control_c, 0, 64, 69
1, 136482, Control_c, 0, 64, 69
1, 136538, Note_off_c, 0, 62, 44
1, 136554, Note_on_c, 0, 40, 51
1, 136584, Note_off_c, 0, 47, 44
1, 136608, Note_on_c, 0, 55, 42
1, 136629, Note_on_c, 0, 64, 59
1, 136631, Control_c, 0, 67, 127
1, 136646, Control_c, 0, 67, 114
1, 136652, Note_on_c, 0, 66, 72
1, 136660, Control_c, 0, 67, 104
1, 136661, Note_off_c, 0, 55, 64
1, 136665, Note_on_c, 0, 62, 62
1, 136675, Control_c, 0, 67, 93
1, 136684, Note_off_c, 0, 40, 56
1, 136687, Note_off_c, 0, 64, 62
1, 136690, Control_c, 0, 67, 84
1, 136691, Note_off_c, 0, 62, 67
1, 136703, Note_off_c, 0, 66, 65
1, 136705, Control_c, 0, 67, 78
1, 136720, Control_c, 0, 67, 74
1, 136734, Control_c, 0, 64, 69
1, 136734, Control_c, 0, 67, 73
1, 136749, Control_c, 0, 64, 68
1, 136764, Control_c, 0, 64, 68
1, 136778, Control_c, 0, 64, 67
1, 136806, Note_on_c, 0, 54, 65
1, 136808, Control_c, 0, 67, 72
1, 136823, Control_c, 0, 67, 73
1, 136885, Note_off_c, 0, 54, 53
1, 136888, Note_on_c, 0, 47, 60
1, 136911, Control_c, 0, 67, 72
1, 136926, Control_c, 0, 67, 71
1, 136941, Control_c, 0, 64, 67
1, 136941, Control_c, 0, 67, 65
1, 136956, Control_c, 0, 64, 65
1, 136956, Control_c, 0, 67, 58
1, 136967, Note_on_c, 0, 74, 80
1, 136978, Note_on_c, 0, 71, 72
1, 136978, Control_c, 0, 64, 63
1, 136978, Control_c, 0, 67, 51
1, 136979, Note_off_c, 0, 47, 60
1, 136993, Control_c, 0, 64, 60
1, 136993, Control_c, 0, 67, 49
1, 136998, Note_on_c, 0, 55, 73
1, 137004, Note_off_c, 0, 71, 70
1, 137008, Control_c, 0, 64, 61
1, 137022, Note_off_c, 0, 74, 65
1, 137023, Control_c, 0, 64, 65
1, 137023, Control_c, 0, 67, 48
1, 137038, Control_c, 0, 64, 67
1, 137041, Note_off_c, 0, 55, 61
1, 137052, Control_c, 0, 64, 69
1, 137052, Control_c, 0, 67, 48
1, 137067, Control_c, 0, 64, 70
1, 137067, Control_c, 0, 67, 49
1, 137081, Note_on_c, 0, 47, 69
1, 137082, Control_c, 0, 64, 71
1, 137082, Control_c, 0, 67, 50
1, 137097, Control_c, 0, 64, 72
1, 137097, Control_c, 0, 67, 51
1, 137113, Control_c, 0, 64, 72
1, 137128, Control_c, 0, 67, 50
1, 137172, Control_c, 0, 67, 50
1, 137186, Note_on_c, 0, 40, 71
1, 137187, Control_c, 0, 67, 49
1, 137189, Note_off_c, 0, 47, 62
1, 137202, Control_c, 0, 67, 49
1, 137216, Control_c, 0, 67, 48
1, 137231, Control_c, 0, 67, 45
1, 137245, Note_on_c, 0, 64, 55
1, 137246, Control_c, 0, 67, 40
1, 137261, Control_c, 0, 67, 28
1, 137270, Note_on_c, 0, 55, 13
1, 137276, Control_c, 0, 67, 19
1, 137288, Note_on_c, 0, 66, 87
1, 137290, Note_off_c, 0, 40, 61
1, 137290, Control_c, 0, 67, 15
1, 137296, Note_on_c, 0, 62, 72
1, 137307, Note_off_c, 0, 55, 65
1, 137320, Note_off_c, 0, 62, 67
1, 137323, Note_off_c, 0, 64, 63
1, 137338, Note_off_c, 0, 66, 68
1, 137350, Control_c, 0, 67, 16
1, 137365, Control_c, 0, 67, 17
1, 137379, Control_c, 0, 67, 18
1, 137394, Control_c, 0, 67, 19
1, 137409, Control_c, 0, 67, 20
1, 137411, Note_on_c, 0, 54, 63
1, 137424, Control_c, 0, 67, 20
1, 137486, Note_on_c, 0, 47, 65
1, 137498, Control_c, 0, 67, 21
1, 137517, Note_off_c, 0, 54, 59
1, 137527, Control_c, 0, 67, 21
1, 137572, Control_c, 0, 67, 22
1, 137587, Control_c, 0, 67, 22
1, 137589, Note_off_c, 0, 47, 60
1, 137595, Note_on_c, 0, 78, 99
1, 137597, Note_on_c, 0, 71, 79
1, 137609, Note_on_c, 0, 55, 79
1, 137620, Note_off_c, 0, 71, 70
1, 137636, Note_off_c, 0, 78, 65
1, 137646, Control_c, 0, 67, 23
1, 137653, Note_off_c, 0, 55, 60
1, 137675, Control_c, 0, 67, 23
1, 137690, Poly_aftertouch_c, 0, 75, 0
1, 137690, Control_c, 0, 67, 24
1, 137709, Note_on_c, 0, 47, 72
1, 137810, Note_on_c, 0, 40, 80
1, 137849, Note_off_c, 0, 47, 61
1, 137867, Note_off_c, 0, 40, 63
1, 137882, Note_on_c, 0, 64, 77
1, 137884, Note_on_c, 0, 55, 67
1, 137925, Note_on_c, 0, 62, 65
1, 137934, Note_off_c, 0, 55, 64
1, 137938, Note_on_c, 0, 66, 92
1, 137950, Control_c, 0, 64, 73
1, 137950, Control_c, 0, 67, 23
1, 137955, Note_off_c, 0, 62, 66
1, 137958, Note_off_c, 0, 64, 64
1, 137978, Note_off_c, 0, 66, 66
1, 137980, Control_c, 0, 64, 73
1, 137980, Control_c, 0, 67, 23
1, 138010, Control_c, 0, 67, 22
1, 138024, Control_c, 0, 67, 21
1, 138039, Control_c, 0, 67, 20
1, 138040, Note_on_c, 0, 59, 79
1, 138054, Control_c, 0, 67, 18
1, 138069, Control_c, 0, 67, 17
1, 138084, Control_c, 0, 64, 73
1, 138084, Control_c, 0, 67, 15
1, 138098, Control_c, 0, 67, 11
1, 138113, Note_off_c, 0, 59, 58
1, 138113, Control_c, 0, 67, 0
1, 138118, Note_on_c, 0, 47, 82
1, 138128, Control_c, 0, 64, 72
1, 138143, Control_c, 0, 64, 71
1, 138157, Control_c, 0, 64, 68
1, 138169, Note_off_c, 0, 47, 64
1, 138172, Control_c, 0, 64, 67
1, 138202, Control_c, 0, 64, 67
1, 138206, Note_on_c, 0, 71, 106
1, 138208, Note_on_c, 0, 83, 102
1, 138217, Note_on_c, 0, 55, 83
1, 138217, Control_c, 0, 64, 71
1, 138222, Note_on_c, 0, 74, 59
1, 138232, Control_c, 0, 64, 72
1, 138233, Note_off_c, 0, 83, 67
1, 138238, Note_off_c, 0, 71, 72
1, 138240, Note_off_c, 0, 74, 66
1, 138247, Control_c, 0, 64, 73
1, 138262, Control_c, 0, 64, 73
1, 138277, Control_c, 0, 64, 74
1, 138283, Note_off_c, 0, 55, 63
1, 138292, Control_c, 0, 64, 74
1, 138306, Control_c, 0, 64, 75
1, 138313, Note_on_c, 0, 47, 71
1, 138336, Control_c, 0, 64, 75
1, 138352, Poly_aftertouch_c, 0, 46, 127
1, 138381, Note_on_c, 0, 44, 20
1, 138395, Note_on_c, 0, 40, 83
1, 138415, Note_off_c, 0, 47, 59
1, 138432, Note_off_c, 0, 44, 45
1, 138452, Note_off_c, 0, 40, 63
1, 138460, Poly_aftertouch_c, 0, 46, 0
1, 138468, Note_on_c, 0, 55, 41
1, 138470, Note_on_c, 0, 64, 48
1, 138485, Note_on_c, 0, 62, 83
1, 138499, Note_on_c, 0, 66, 90
1, 138503, Note_off_c, 0, 55, 59
1, 138527, Note_off_c, 0, 62, 67
1, 138527, Note_off_c, 0, 64, 62
1, 138536, Control_c, 0, 64, 75
1, 138544, Note_off_c, 0, 66, 69
1, 138604, Note_on_c, 0, 62, 93
1, 138611, Note_on_c, 0, 60, 71
1, 138649, Note_off_c, 0, 62, 63
1, 138652, Note_off_c, 0, 60, 47
1, 138667, Note_on_c, 0, 80, 52
1, 138678, Note_on_c, 0, 82, 39
1, 138700, Note_on_c, 0, 47, 84
1, 138713, Note_on_c, 0, 48, 70
1, 138733, Note_off_c, 0, 80, 48
1, 138738, Note_off_c, 0, 82, 59
1, 138744, Note_off_c, 0, 48, 52
1, 138745, Control_c, 0, 64, 75
1, 138751, Note_off_c, 0, 47, 63
1, 138760, Control_c, 0, 64, 76
1, 138774, Control_c, 0, 64, 77
1, 138789, Control_c, 0, 64, 78
1, 138794, Note_on_c, 0, 74, 97
1, 138797, Note_on_c, 0, 88, 87
1, 138800, Note_on_c, 0, 86, 94
1, 138806, Note_on_c, 0, 55, 93
1, 138813, Note_off_c, 0, 88, 77
1, 138814, Note_off_c, 0, 74, 68
1, 138819, Note_on_c, 0, 78, 54
1, 138820, Note_off_c, 0, 78, 127
1, 138820, Note_off_c, 0, 86, 68
1, 138834, Control_c, 0, 64, 79
1, 138848, Control_c, 0, 64, 79
1, 138863, Control_c, 0, 64, 81
1, 138864, Note_off_c, 0, 55, 65
1, 138878, Control_c, 0, 64, 82
1, 138904, Note_on_c, 0, 47, 79
1, 138937, Control_c, 0, 64, 83
1, 138952, Control_c, 0, 64, 83
1, 138967, Control_c, 0, 64, 85
1, 138981, Control_c, 0, 64, 87
1, 138983, Note_on_c, 0, 40, 83
1, 138998, Note_off_c, 0, 47, 61
1, 139011, Control_c, 0, 64, 88
1, 139026, Control_c, 0, 64, 90
1, 139039, Note_off_c, 0, 40, 64
1, 139041, Control_c, 0, 64, 95
1, 139055, Control_c, 0, 64, 102
1, 139065, Note_on_c, 0, 55, 71
1, 139070, Control_c, 0, 64, 106
1, 139075, Note_on_c, 0, 64, 69
1, 139085, Control_c, 0, 64, 107
1, 139112, Note_on_c, 0, 62, 79
1, 139123, Note_off_c, 0, 55, 62
1, 139132, Note_on_c, 0, 66, 92
1, 139158, Control_c, 0, 64, 92
1, 139165, Note_off_c, 0, 64, 63
1, 139168, Note_off_c, 0, 62, 62
1, 139172, Control_c, 0, 64, 68
1, 139187, Control_c, 0, 64, 44
1, 139202, Control_c, 0, 64, 0
1, 139206, Note_off_c, 0, 66, 68
1, 139253, Note_on_c, 0, 47, 101
1, 139328, Control_c, 0, 64, 27
1, 139343, Control_c, 0, 64, 51
1, 139358, Control_c, 0, 64, 72
1, 139373, Control_c, 0, 64, 127
1, 139473, Note_on_c, 0, 55, 87
1, 139497, Note_off_c, 0, 47, 62
1, 139544, Note_off_c, 0, 55, 65
1, 139612, Note_on_c, 0, 74, 111
1, 139613, Note_on_c, 0, 62, 85
1, 139636, Note_on_c, 0, 82, 73
1, 139637, Note_off_c, 0, 82, 127
1, 139649, Note_off_c, 0, 62, 60
1, 139651, Note_on_c, 0, 80, 47
1, 139652, Note_off_c, 0, 80, 127
1, 139791, Note_on_c, 0, 55, 85
1, 139797, Poly_aftertouch_c, 0, 82, 0
1, 139866, Note_on_c, 0, 78, 98
1, 139902, Note_off_c, 0, 74, 59
1, 139950, Note_off_c, 0, 78, 67
1, 139958, Note_on_c, 0, 85, 90
1, 139964, Note_on_c, 0, 64, 64
1, 140002, Note_off_c, 0, 85, 68
1, 140053, Note_on_c, 0, 83, 92
1, 140087, Note_off_c, 0, 64, 61
1, 140089, Note_on_c, 0, 62, 72
1, 140107, Control_c, 0, 64, 99
1, 140122, Control_c, 0, 64, 61
1, 140124, Note_on_c, 0, 90, 92
1, 140136, Control_c, 0, 64, 16
1, 140144, Note_off_c, 0, 83, 66
1, 140151, Control_c, 0, 64, 0
1, 140197, Note_off_c, 0, 90, 68
1, 140197, Note_on_c, 0, 66, 104
1, 140200, Note_on_c, 0, 95, 102
1, 140225, Control_c, 0, 64, 53
1, 140236, Note_off_c, 0, 66, 68
1, 140237, Note_on_c, 0, 92, 31
1, 140240, Control_c, 0, 64, 127
1, 140243, Note_off_c, 0, 62, 64
1, 140247, Note_off_c, 0, 55, 64
1, 140292, Note_on_c, 0, 90, 82
1, 140299, Note_off_c, 0, 95, 60
1, 140303, Note_off_c, 0, 92, 0
1, 140303, Note_on_c, 0, 92, 27
1, 140333, Note_off_c, 0, 92, 56
1, 140354, Note_off_c, 0, 90, 67
1, 140364, Note_on_c, 0, 88, 80
1, 140421, Note_on_c, 0, 90, 69
1, 140426, Note_off_c, 0, 88, 65
1, 140484, Note_on_c, 0, 88, 56
1, 140488, Note_off_c, 0, 90, 66
1, 140515, Note_off_c, 0, 88, 68
1, 140524, Note_on_c, 0, 85, 74
1, 140545, Note_off_c, 0, 85, 70
1, 140572, Note_on_c, 0, 53, 64
1, 140598, Note_on_c, 0, 88, 82
1, 140628, Note_off_c, 0, 53, 52
1, 140643, Note_on_c, 0, 85, 67
1, 140660, Note_off_c, 0, 88, 53
1, 140670, Control_c, 0, 64, 122
1, 140685, Control_c, 0, 64, 114
1, 140693, Note_off_c, 0, 85, 65
1, 140700, Control_c, 0, 64, 108
1, 140706, Note_on_c, 0, 83, 68
1, 140722, Control_c, 0, 64, 103
1, 140737, Control_c, 0, 64, 101
1, 140751, Control_c, 0, 64, 99
1, 140752, Note_on_c, 0, 85, 67
1, 140761, Note_off_c, 0, 83, 65
1, 140766, Control_c, 0, 64, 99
1, 140781, Control_c, 0, 64, 98
1, 140802, Note_off_c, 0, 85, 65
1, 140811, Control_c, 0, 64, 97
1, 140811, Control_c, 0, 67, 9
1, 140816, Note_on_c, 0, 83, 57
1, 140825, Control_c, 0, 64, 95
1, 140825, Control_c, 0, 67, 12
1, 140840, Note_off_c, 0, 83, 68
1, 140840, Control_c, 0, 64, 93
1, 140840, Control_c, 0, 67, 12
1, 140849, Note_on_c, 0, 78, 78
1, 140849, Note_on_c, 0, 82, 34
1, 140855, Control_c, 0, 64, 92
1, 140858, Note_on_c, 0, 47, 64
1, 140870, Control_c, 0, 64, 89
1, 140870, Control_c, 0, 67, 11
1, 140883, Note_off_c, 0, 82, 31
1, 140885, Control_c, 0, 64, 86
1, 140885, Control_c, 0, 67, 10
1, 140894, Note_off_c, 0, 78, 65
1, 140900, Control_c, 0, 64, 83
1, 140915, Control_c, 0, 64, 82
1, 140915, Control_c, 0, 67, 11
1, 140915, Note_on_c, 0, 83, 73
1, 140930, Control_c, 0, 67, 12
1, 140959, Control_c, 0, 64, 80
1, 140959, Control_c, 0, 67, 13
1, 140963, Note_on_c, 0, 78, 69
1, 140974, Note_off_c, 0, 83, 60
1, 140974, Control_c, 0, 64, 78
1, 140989, Control_c, 0, 64, 76
1, 140989, Control_c, 0, 67, 13
1, 141004, Control_c, 0, 64, 75
1, 141004, Control_c, 0, 67, 14
1, 141013, Note_off_c, 0, 78, 67
1, 141019, Control_c, 0, 67, 15
1, 141033, Note_on_c, 0, 76, 65
1, 141067, Note_off_c, 0, 76, 67
1, 141068, Note_on_c, 0, 78, 77
1, 141077, Control_c, 0, 67, 15
1, 141092, Control_c, 0, 67, 16
1, 141109, Control_c, 0, 67, 16
1, 141115, Note_off_c, 0, 78, 66
1, 141115, Note_off_c, 0, 47, 37
1, 141123, Control_c, 0, 64, 76
1, 141135, Note_on_c, 0, 75, 75
1, 141138, Control_c, 0, 67, 17
1, 141160, Note_off_c, 0, 75, 66
1, 141165, Note_on_c, 0, 73, 56
1, 141182, Control_c, 0, 67, 16
1, 141185, Note_off_c, 0, 73, 62
1, 141197, Control_c, 0, 67, 14
1, 141212, Control_c, 0, 67, 13
1, 141227, Control_c, 0, 67, 12
1, 141228, Note_on_c, 0, 76, 72
1, 141238, Note_on_c, 0, 40, 92
1, 141242, Control_c, 0, 67, 11
1, 141256, Control_c, 0, 67, 13
1, 141270, Note_on_c, 0, 73, 63
1, 141271, Control_c, 0, 67, 14
1, 141278, Note_on_c, 0, 33, 35
1, 141284, Note_off_c, 0, 76, 63
1, 141286, Control_c, 0, 67, 16
1, 141301, Control_c, 0, 67, 18
1, 141316, Control_c, 0, 67, 22
1, 141320, Note_off_c, 0, 33, 45
1, 141330, Control_c, 0, 67, 30
1, 141338, Note_off_c, 0, 73, 63
1, 141345, Control_c, 0, 64, 75
1, 141345, Control_c, 0, 67, 39
1, 141347, Note_on_c, 0, 71, 66
1, 141360, Control_c, 0, 67, 52
1, 141374, Control_c, 0, 64, 75
1, 141374, Control_c, 0, 67, 73
1, 141382, Poly_aftertouch_c, 0, 73, 0
1, 141389, Control_c, 0, 67, 86
1, 141392, Note_on_c, 0, 73, 58
1, 141393, Note_off_c, 0, 71, 63
1, 141404, Control_c, 0, 64, 74
1, 141404, Control_c, 0, 67, 89
1, 141419, Control_c, 0, 64, 73
1, 141434, Control_c, 0, 64, 72
1, 141446, Note_on_c, 0, 71, 59
1, 141446, Note_off_c, 0, 73, 64
1, 141448, Control_c, 0, 64, 71
1, 141463, Control_c, 0, 64, 70
1, 141484, Note_off_c, 0, 71, 67
1, 141486, Control_c, 0, 64, 69
1, 141486, Control_c, 0, 67, 89
1, 141497, Note_on_c, 0, 66, 60
1, 141500, Control_c, 0, 64, 69
1, 141515, Control_c, 0, 64, 68
1, 141515, Control_c, 0, 67, 90
1, 141530, Control_c, 0, 64, 67
1, 141545, Note_off_c, 0, 66, 59
1, 141545, Control_c, 0, 64, 64
1, 141560, Control_c, 0, 64, 61
1, 141574, Control_c, 0, 64, 55
1, 141589, Control_c, 0, 64, 43
1, 141589, Control_c, 0, 67, 91
1, 141591, Note_on_c, 0, 28, 81
1, 141593, Note_on_c, 0, 71, 25
1, 141604, Control_c, 0, 64, 20
1, 141604, Control_c, 0, 67, 92
1, 141615, Note_on_c, 0, 66, 66
1, 141619, Control_c, 0, 64, 0
1, 141619, Control_c, 0, 67, 93
1, 141630, Note_off_c, 0, 71, 53
1, 141634, Control_c, 0, 67, 95
1, 141648, Control_c, 0, 67, 99
1, 141660, Note_off_c, 0, 66, 63
1, 141663, Control_c, 0, 67, 104
1, 141678, Control_c, 0, 67, 111
1, 141693, Control_c, 0, 67, 118
1, 141708, Control_c, 0, 67, 127
1, 141719, Note_on_c, 0, 64, 47
1, 141731, Note_on_c, 0, 66, 67
1, 141745, Note_off_c, 0, 64, 54
1, 141752, Control_c, 0, 64, 24
1, 141767, Control_c, 0, 64, 40
1, 141782, Control_c, 0, 64, 50
1, 141783, Note_off_c, 0, 66, 52
1, 141797, Control_c, 0, 64, 56
1, 141801, Note_on_c, 0, 64, 77
1, 141812, Control_c, 0, 64, 55
1, 141827, Control_c, 0, 64, 54
1, 141830, Note_off_c, 0, 64, 65
1, 141842, Control_c, 0, 64, 52
1, 141848, Note_on_c, 0, 61, 65
1, 141856, Control_c, 0, 64, 42
1, 141871, Control_c, 0, 64, 20
1, 141879, Note_off_c, 0, 61, 69
1, 141886, Control_c, 0, 64, 0
1, 141922, Note_on_c, 0, 64, 53
1, 141956, Note_off_c, 0, 64, 62
1, 141961, Control_c, 0, 64, 29
1, 141964, Note_on_c, 0, 61, 59
1, 141976, Control_c, 0, 64, 46
1, 141991, Control_c, 0, 64, 62
1, 141994, Note_off_c, 0, 61, 68
1, 142005, Control_c, 0, 64, 67
1, 142008, Note_on_c, 0, 59, 61
1, 142010, Note_off_c, 0, 28, 61
1, 142020, Control_c, 0, 64, 68
1, 142030, Note_off_c, 0, 40, 62
1, 142035, Control_c, 0, 64, 69
1, 142060, Note_on_c, 0, 61, 75
1, 142065, Note_off_c, 0, 59, 61
1, 142116, Note_on_c, 0, 55, 73
1, 142123, Control_c, 0, 64, 68
1, 142137, Note_off_c, 0, 61, 62
1, 142138, Control_c, 0, 64, 63
1, 142143, Note_off_c, 0, 55, 69
1, 142153, Control_c, 0, 64, 44
1, 142168, Control_c, 0, 64, 0
1, 142206, Note_on_c, 0, 40, 86
1, 142214, Note_on_c, 0, 54, 90
1, 142235, Control_c, 0, 64, 37
1, 142250, Control_c, 0, 64, 60
1, 142256, Note_off_c, 0, 40, 64
1, 142265, Control_c, 0, 64, 76
1, 142273, Note_off_c, 0, 54, 61
1, 142279, Control_c, 0, 64, 77
1, 142294, Control_c, 0, 64, 76
1, 142298, Note_on_c, 0, 59, 70
1, 142309, Control_c, 0, 64, 75
1, 142323, Control_c, 0, 64, 74
1, 142338, Control_c, 0, 64, 72
1, 142352, Note_off_c, 0, 59, 62
1, 142353, Control_c, 0, 64, 69
1, 142368, Control_c, 0, 64, 67
1, 142368, Control_c, 0, 67, 124
1, 142374, Note_on_c, 0, 64, 65
1, 142383, Control_c, 0, 64, 67
1, 142383, Control_c, 0, 67, 119
1, 142397, Control_c, 0, 64, 66
1, 142397, Control_c, 0, 67, 115
1, 142399, Note_off_c, 0, 64, 66
1, 142412, Control_c, 0, 64, 65
1, 142412, Control_c, 0, 67, 112
1, 142427, Control_c, 0, 64, 64
1, 142427, Control_c, 0, 67, 110
1, 142442, Control_c, 0, 64, 62
1, 142442, Control_c, 0, 67, 109
1, 142453, Note_on_c, 0, 59, 56
1, 142457, Control_c, 0, 64, 59
1, 142457, Control_c, 0, 67, 108
1, 142471, Control_c, 0, 64, 57
1, 142486, Control_c, 0, 64, 57
1, 142495, Note_on_c, 0, 64, 56
1, 142505, Note_off_c, 0, 59, 44
1, 142516, Control_c, 0, 64, 56
1, 142530, Control_c, 0, 64, 55
1, 142533, Note_on_c, 0, 66, 70
1, 142537, Note_off_c, 0, 64, 62
1, 142545, Control_c, 0, 64, 53
1, 142560, Note_off_c, 0, 66, 65
1, 142560, Control_c, 0, 64, 50
1, 142575, Control_c, 0, 64, 47
1, 142588, Note_on_c, 0, 47, 65
1, 142590, Control_c, 0, 64, 44
1, 142604, Note_on_c, 0, 64, 61
1, 142605, Control_c, 0, 64, 39
1, 142605, Control_c, 0, 67, 108
1, 142620, Control_c, 0, 64, 29
1, 142635, Control_c, 0, 64, 11
1, 142635, Control_c, 0, 67, 109
1, 142649, Control_c, 0, 64, 0
1, 142649, Control_c, 0, 67, 109
1, 142659, Note_on_c, 0, 52, 68
1, 142674, Note_on_c, 0, 66, 61
1, 142691, Note_off_c, 0, 64, 61
1, 142697, Note_on_c, 0, 70, 50
1, 142707, Note_off_c, 0, 66, 66
1, 142711, Note_off_c, 0, 47, 60
1, 142719, Note_on_c, 0, 71, 71
1, 142722, Note_off_c, 0, 70, 56
1, 142728, Note_on_c, 0, 55, 64
1, 142754, Control_c, 0, 67, 109
1, 142763, Note_off_c, 0, 52, 64
1, 142769, Control_c, 0, 67, 108
1, 142784, Control_c, 0, 64, 39
1, 142784, Control_c, 0, 67, 105
1, 142786, Note_on_c, 0, 73, 43
1, 142787, Note_on_c, 0, 78, 86
1, 142792, Note_on_c, 0, 62, 103
1, 142793, Note_off_c, 0, 71, 66
1, 142799, Control_c, 0, 64, 60
1, 142799, Control_c, 0, 67, 100
1, 142814, Control_c, 0, 64, 69
1, 142814, Control_c, 0, 67, 93
1, 142819, Note_off_c, 0, 55, 35
1, 142820, Note_off_c, 0, 62, 66
1, 142828, Control_c, 0, 64, 69
1, 142828, Control_c, 0, 67, 79
1, 142829, Note_off_c, 0, 78, 67
1, 142843, Control_c, 0, 67, 61
1, 142858, Control_c, 0, 64, 70
1, 142858, Control_c, 0, 67, 49
1, 142872, Note_on_c, 0, 71, 61
1, 142873, Control_c, 0, 67, 45
1, 142888, Control_c, 0, 64, 68
1, 142902, Control_c, 0, 64, 67
1, 142902, Control_c, 0, 67, 45
1, 142908, Note_on_c, 0, 66, 74
1, 142917, Control_c, 0, 64, 66
1, 142917, Control_c, 0, 67, 44
1, 142932, Control_c, 0, 64, 65
1, 142932, Control_c, 0, 67, 43
1, 142946, Control_c, 0, 64, 65
1, 142946, Control_c, 0, 67, 43
1, 142956, Note_off_c, 0, 66, 61
1, 142961, Control_c, 0, 64, 64
1, 142961, Control_c, 0, 67, 45
1, 142984, Control_c, 0, 64, 63
1, 142984, Control_c, 0, 67, 46
1, 142998, Control_c, 0, 64, 62
1, 142998, Control_c, 0, 67, 49
1, 143000, Note_off_c, 0, 73, 26
1, 143013, Control_c, 0, 64, 61
1, 143013, Control_c, 0, 67, 50
1, 143021, Note_off_c, 0, 71, 66
1, 143028, Control_c, 0, 64, 60
1, 143028, Control_c, 0, 67, 50
1, 143028, Note_on_c, 0, 64, 58
1, 143043, Control_c, 0, 64, 60
1, 143043, Control_c, 0, 67, 51
1, 143058, Control_c, 0, 67, 52
1, 143072, Poly_aftertouch_c, 0, 66, 127
1, 143073, Control_c, 0, 64, 59
1, 143073, Control_c, 0, 67, 53
1, 143084, Note_off_c, 0, 64, 63
1, 143088, Control_c, 0, 64, 58
1, 143088, Control_c, 0, 67, 54
1, 143098, Poly_aftertouch_c, 0, 66, 0
1, 143101, Note_on_c, 0, 55, 35
1, 143102, Control_c, 0, 64, 56
1, 143102, Control_c, 0, 67, 54
1, 143117, Control_c, 0, 64, 56
1, 143117, Control_c, 0, 67, 55
1, 143124, Note_on_c, 0, 66, 40
1, 143127, Note_on_c, 0, 52, 70
1, 143132, Control_c, 0, 64, 56
1, 143132, Control_c, 0, 67, 55
1, 143143, Note_off_c, 0, 55, 54
1, 143146, Control_c, 0, 64, 57
1, 143146, Control_c, 0, 67, 56
1, 143160, Note_on_c, 0, 64, 48
1, 143161, Control_c, 0, 64, 58
1, 143161, Control_c, 0, 67, 58
1, 143175, Note_off_c, 0, 52, 63
1, 143176, Control_c, 0, 64, 57
1, 143176, Control_c, 0, 67, 61
1, 143191, Control_c, 0, 64, 54
1, 143191, Control_c, 0, 67, 66
1, 143192, Note_on_c, 0, 47, 64
1, 143206, Control_c, 0, 64, 39
1, 143206, Control_c, 0, 67, 73
1, 143220, Control_c, 0, 64, 0
1, 143220, Control_c, 0, 67, 81
1, 143221, Note_off_c, 0, 47, 66
1, 143224, Note_off_c, 0, 66, 61
1, 143235, Control_c, 0, 67, 90
1, 143240, Note_on_c, 0, 59, 56
1, 143250, Control_c, 0, 67, 103
1, 143265, Control_c, 0, 67, 117
1, 143270, Note_off_c, 0, 64, 55
1, 143273, Poly_aftertouch_c, 0, 62, 127
1, 143279, Control_c, 0, 67, 127
1, 143288, Note_on_c, 0, 40, 93
1, 143294, Control_c, 0, 67, 127
1, 143295, Note_on_c, 0, 54, 82
1, 143308, Note_off_c, 0, 59, 62
1, 143309, Control_c, 0, 64, 39
1, 143316, Note_off_c, 0, 40, 69
1, 143324, Control_c, 0, 64, 60
1, 143326, Poly_aftertouch_c, 0, 62, 0
1, 143338, Note_off_c, 0, 54, 63
1, 143339, Control_c, 0, 64, 64
1, 143368, Note_on_c, 0, 59, 58
1, 143383, Control_c, 0, 64, 65
1, 143383, Control_c, 0, 67, 127
1, 143398, Control_c, 0, 64, 64
1, 143398, Control_c, 0, 67, 126
1, 143413, Note_off_c, 0, 59, 63
1, 143413, Control_c, 0, 64, 63
1, 143413, Control_c, 0, 67, 124
1, 143428, Control_c, 0, 64, 60
1, 143428, Control_c, 0, 67, 123
1, 143431, Note_on_c, 0, 64, 62
1, 143443, Control_c, 0, 64, 56
1, 143443, Control_c, 0, 67, 123
1, 143458, Control_c, 0, 64, 53
1, 143458, Control_c, 0, 67, 122
1, 143463, Note_off_c, 0, 64, 64
1, 143472, Control_c, 0, 64, 53
1, 143472, Control_c, 0, 67, 121
1, 143488, Control_c, 0, 64, 52
1, 143503, Control_c, 0, 64, 51
1, 143509, Note_on_c, 0, 59, 68
1, 143517, Control_c, 0, 64, 47
1, 143532, Control_c, 0, 64, 43
1, 143546, Note_off_c, 0, 59, 58
1, 143547, Control_c, 0, 64, 40
1, 143547, Control_c, 0, 67, 121
1, 143557, Note_on_c, 0, 64, 54
1, 143562, Control_c, 0, 64, 37
1, 143577, Control_c, 0, 64, 28
1, 143585, Note_on_c, 0, 66, 67
1, 143586, Note_off_c, 0, 64, 65
1, 143592, Control_c, 0, 64, 0
1, 143592, Control_c, 0, 67, 120
1, 143614, Note_off_c, 0, 66, 65
1, 143636, Note_on_c, 0, 47, 62
1, 143645, Note_on_c, 0, 64, 71
1, 143666, Control_c, 0, 67, 120
1, 143707, Note_on_c, 0, 52, 69
1, 143711, Control_c, 0, 67, 119
1, 143725, Note_on_c, 0, 66, 65
1, 143732, Control_c, 0, 67, 118
1, 143747, Note_on_c, 0, 70, 50
1, 143747, Control_c, 0, 67, 117
1, 143750, Note_off_c, 0, 47, 63
1, 143751, Note_off_c, 0, 64, 60
1, 143753, Note_off_c, 0, 66, 66
1, 143762, Control_c, 0, 67, 112
1, 143763, Note_on_c, 0, 55, 66
1, 143768, Note_on_c, 0, 71, 62
1, 143771, Note_off_c, 0, 70, 57
1, 143776, Control_c, 0, 67, 105
1, 143791, Control_c, 0, 67, 95
1, 143801, Note_off_c, 0, 52, 65
1, 143806, Note_off_c, 0, 55, 66
1, 143806, Control_c, 0, 64, 47
1, 143806, Control_c, 0, 67, 80
1, 143821, Control_c, 0, 64, 64
1, 143821, Control_c, 0, 67, 73
1, 143823, Note_on_c, 0, 78, 96
1, 143831, Note_on_c, 0, 62, 97
1, 143831, Note_off_c, 0, 71, 65
1, 143836, Control_c, 0, 64, 67
1, 143836, Control_c, 0, 67, 71
1, 143842, Note_on_c, 0, 73, 40
1, 143851, Control_c, 0, 67, 66
1, 143859, Note_off_c, 0, 62, 64
1, 143866, Control_c, 0, 64, 67
1, 143866, Control_c, 0, 67, 59
1, 143881, Control_c, 0, 64, 68
1, 143881, Control_c, 0, 67, 54
1, 143890, Note_off_c, 0, 73, 0
1, 143890, Note_on_c, 0, 73, 4
1, 143895, Control_c, 0, 64, 67
1, 143895, Control_c, 0, 67, 50
1, 143897, Note_off_c, 0, 78, 64
1, 143898, Note_on_c, 0, 71, 63
1, 143910, Control_c, 0, 64, 66
1, 143910, Control_c, 0, 67, 49
1, 143925, Control_c, 0, 64, 64
1, 143925, Control_c, 0, 67, 50
1, 143934, Note_off_c, 0, 73, 52
1, 143940, Control_c, 0, 64, 64
1, 143940, Control_c, 0, 67, 51
1, 143951, Note_on_c, 0, 66, 69
1, 143952, Note_off_c, 0, 71, 63
1, 143955, Control_c, 0, 64, 63
1, 143955, Control_c, 0, 67, 52
1, 143969, Control_c, 0, 64, 62
1, 143969, Control_c, 0, 67, 53
1, 143976, Note_off_c, 0, 66, 67
1, 143984, Control_c, 0, 67, 54
1, 143988, Note_on_c, 0, 71, 52
1, 143999, Control_c, 0, 64, 62
1, 143999, Control_c, 0, 67, 55
1, 144014, Control_c, 0, 64, 61
1, 144014, Control_c, 0, 67, 57
1, 144029, Control_c, 0, 64, 60
1, 144029, Control_c, 0, 67, 59
1, 144043, Control_c, 0, 64, 58
1, 144043, Control_c, 0, 67, 60
1, 144054, Note_off_c, 0, 71, 64
1, 144058, Control_c, 0, 64, 56
1, 144060, Note_on_c, 0, 66, 71
1, 144073, Control_c, 0, 64, 56
1, 144084, Note_off_c, 0, 66, 69
1, 144088, Control_c, 0, 64, 55
1, 144089, Note_on_c, 0, 64, 75
1, 144102, Control_c, 0, 64, 52
1, 144102, Control_c, 0, 67, 61
1, 144117, Control_c, 0, 64, 47
1, 144117, Control_c, 0, 67, 61
1, 144118, Note_off_c, 0, 64, 64
1, 144131, Note_on_c, 0, 55, 70
1, 144132, Control_c, 0, 64, 42
1, 144132, Control_c, 0, 67, 62
1, 144147, Control_c, 0, 64, 40
1, 144147, Control_c, 0, 67, 63
1, 144162, Control_c, 0, 64, 38
1, 144162, Control_c, 0, 67, 64
1, 144165, Note_on_c, 0, 66, 75
1, 144176, Control_c, 0, 64, 33
1, 144176, Control_c, 0, 67, 67
1, 144179, Note_off_c, 0, 55, 57
1, 144187, Note_on_c, 0, 52, 52
1, 144187, Note_on_c, 0, 64, 52
1, 144191, Control_c, 0, 64, 12
1, 144191, Control_c, 0, 67, 70
1, 144206, Control_c, 0, 64, 0
1, 144206, Control_c, 0, 67, 75
1, 144221, Control_c, 0, 67, 79
1, 144227, Note_off_c, 0, 52, 65
1, 144230, Note_on_c, 0, 47, 70
1, 144236, Control_c, 0, 67, 82
1, 144241, Note_off_c, 0, 66, 62
1, 144250, Control_c, 0, 67, 85
1, 144262, Note_off_c, 0, 47, 67
1, 144265, Note_on_c, 0, 59, 63
1, 144265, Control_c, 0, 67, 88
1, 144279, Note_on_c, 0, 62, 17
1, 144280, Control_c, 0, 67, 92
1, 144296, Control_c, 0, 67, 97
1, 144300, Note_off_c, 0, 64, 61
1, 144310, Control_c, 0, 67, 103
1, 144325, Note_on_c, 0, 40, 100
1, 144325, Note_on_c, 0, 54, 87
1, 144325, Control_c, 0, 64, 44
1, 144325, Control_c, 0, 67, 104
1, 144328, Note_off_c, 0, 62, 39
1, 144340, Note_off_c, 0, 59, 63
1, 144340, Control_c, 0, 64, 64
1, 144340, Control_c, 0, 67, 106
1, 144352, Note_off_c, 0, 40, 68
1, 144355, Control_c, 0, 64, 73
1, 144355, Control_c, 0, 67, 109
1, 144370, Control_c, 0, 64, 72
1, 144370, Control_c, 0, 67, 110
1, 144371, Note_off_c, 0, 54, 65
1, 144385, Control_c, 0, 64, 71
1, 144399, Control_c, 0, 64, 70
1, 144399, Control_c, 0, 67, 109
1, 144412, Note_on_c, 0, 59, 54
1, 144414, Control_c, 0, 64, 68
1, 144429, Control_c, 0, 64, 65
1, 144444, Control_c, 0, 64, 62
1, 144457, Note_off_c, 0, 59, 64
1, 144466, Control_c, 0, 64, 58
1, 144481, Control_c, 0, 64, 53
1, 144496, Control_c, 0, 64, 49
1, 144499, Note_on_c, 0, 64, 45
1, 144511, Control_c, 0, 64, 47
1, 144525, Note_off_c, 0, 64, 56
1, 144525, Control_c, 0, 64, 44
1, 144540, Control_c, 0, 64, 40
1, 144540, Control_c, 0, 67, 110
1, 144552, Note_on_c, 0, 59, 56
1, 144555, Control_c, 0, 64, 34
1, 144570, Control_c, 0, 64, 26
1, 144570, Control_c, 0, 67, 111
1, 144578, Note_off_c, 0, 59, 55
1, 144585, Control_c, 0, 64, 21
1, 144599, Control_c, 0, 64, 13
1, 144599, Control_c, 0, 67, 110
1, 144608, Note_on_c, 0, 64, 55
1, 144608, Note_on_c, 0, 65, 55
1, 144614, Control_c, 0, 64, 0
1, 144614, Control_c, 0, 67, 109
1, 144629, Control_c, 0, 67, 109
1, 144635, Note_off_c, 0, 65, 64
1, 144638, Note_off_c, 0, 64, 65
1, 144644, Control_c, 0, 67, 108
1, 144645, Note_on_c, 0, 66, 52
1, 144667, Note_off_c, 0, 66, 58
1, 144692, Note_on_c, 0, 47, 65
1, 144701, Note_on_c, 0, 64, 70
1, 144751, Note_on_c, 0, 52, 67
1, 144765, Note_on_c, 0, 66, 62
1, 144778, Control_c, 0, 67, 108
1, 144785, Note_off_c, 0, 47, 62
1, 144790, Note_off_c, 0, 64, 57
1, 144792, Control_c, 0, 67, 107
1, 144796, Note_on_c, 0, 55, 67
1, 144799, Note_off_c, 0, 66, 65
1, 144807, Control_c, 0, 67, 105
1, 144811, Note_on_c, 0, 71, 63
1, 144822, Control_c, 0, 67, 103
1, 144837, Control_c, 0, 64, 19
1, 144837, Control_c, 0, 67, 99
1, 144845, Note_off_c, 0, 52, 64
1, 144852, Control_c, 0, 64, 48
1, 144852, Control_c, 0, 67, 91
1, 144857, Note_off_c, 0, 55, 62
1, 144866, Control_c, 0, 64, 64
1, 144866, Control_c, 0, 67, 77
1, 144867, Note_on_c, 0, 78, 92
1, 144868, Note_on_c, 0, 62, 97
1, 144872, Note_off_c, 0, 71, 67
1, 144879, Note_on_c, 0, 73, 53
1, 144881, Control_c, 0, 64, 66
1, 144881, Control_c, 0, 67, 64
1, 144888, Note_off_c, 0, 62, 71
1, 144896, Control_c, 0, 64, 67
1, 144896, Control_c, 0, 67, 52
1, 144911, Control_c, 0, 64, 67
1, 144911, Control_c, 0, 67, 49
1, 144919, Note_off_c, 0, 73, 0
1, 144919, Note_on_c, 0, 73, 37
1, 144925, Control_c, 0, 64, 68
1, 144925, Control_c, 0, 67, 50
1, 144927, Note_off_c, 0, 78, 66
1, 144940, Control_c, 0, 67, 52
1, 144943, Note_on_c, 0, 71, 55
1, 144955, Control_c, 0, 67, 54
1, 144970, Control_c, 0, 64, 67
1, 144970, Control_c, 0, 67, 56
1, 144979, Note_off_c, 0, 73, 58
1, 144985, Control_c, 0, 64, 67
1, 144985, Control_c, 0, 67, 58
1, 144991, Note_on_c, 0, 66, 79
1, 144996, Note_off_c, 0, 71, 57
1, 144999, Control_c, 0, 64, 66
1, 144999, Control_c, 0, 67, 62
1, 145014, Control_c, 0, 64, 66
1, 145014, Control_c, 0, 67, 69
1, 145029, Control_c, 0, 67, 75
1, 145033, Note_on_c, 0, 71, 40
1, 145034, Note_off_c, 0, 66, 61
1, 145043, Control_c, 0, 64, 65
1, 145043, Control_c, 0, 67, 81
1, 145058, Control_c, 0, 64, 65
1, 145058, Control_c, 0, 67, 89
1, 145073, Control_c, 0, 64, 64
1, 145073, Control_c, 0, 67, 99
1, 145086, Note_on_c, 0, 66, 70
1, 145089, Control_c, 0, 67, 110
1, 145100, Note_off_c, 0, 71, 64
1, 145104, Control_c, 0, 64, 64
1, 145104, Control_c, 0, 67, 122
1, 145119, Control_c, 0, 64, 63
1, 145119, Control_c, 0, 67, 127
1, 145127, Note_off_c, 0, 66, 63
1, 145134, Control_c, 0, 64, 62
1, 145138, Note_on_c, 0, 64, 59
1, 145148, Control_c, 0, 64, 62
1, 145163, Control_c, 0, 64, 61
1, 145178, Control_c, 0, 64, 60
1, 145192, Note_off_c, 0, 64, 61
1, 145193, Control_c, 0, 64, 59
1, 145243, Note_on_c, 0, 64, 51
1, 145244, Note_on_c, 0, 66, 42
1, 145260, Control_c, 0, 64, 59
1, 145282, Note_off_c, 0, 66, 48
1, 145289, Control_c, 0, 64, 58
1, 145308, Note_on_c, 0, 59, 72
1, 145316, Note_off_c, 0, 64, 62
1, 145319, Control_c, 0, 64, 57
1, 145334, Control_c, 0, 64, 54
1, 145344, Note_off_c, 0, 59, 64
1, 145348, Control_c, 0, 64, 47
1, 145358, Poly_aftertouch_c, 0, 62, 127
1, 145363, Control_c, 0, 64, 28
1, 145378, Control_c, 0, 64, 0
1, 145387, Note_on_c, 0, 55, 57
1, 145390, Poly_aftertouch_c, 0, 62, 0
1, 145453, Note_on_c, 0, 62, 59
1, 145467, Control_c, 0, 64, 37
1, 145482, Control_c, 0, 64, 53
1, 145496, Note_on_c, 0, 64, 61
1, 145496, Control_c, 0, 64, 62
1, 145511, Note_off_c, 0, 55, 56
1, 145511, Control_c, 0, 64, 62
1, 145518, Note_off_c, 0, 62, 64
1, 145541, Control_c, 0, 64, 63
1, 145551, Note_on_c, 0, 67, 64
1, 145552, Note_off_c, 0, 64, 62
1, 145571, Note_off_c, 0, 67, 65
1, 145586, Control_c, 0, 64, 62
1, 145592, Note_on_c, 0, 66, 64
1, 145601, Control_c, 0, 64, 62
1, 145615, Control_c, 0, 64, 61
1, 145630, Control_c, 0, 64, 61
1, 145630, Control_c, 0, 67, 117
1, 145645, Control_c, 0, 67, 103
1, 145648, Note_on_c, 0, 71, 53
1, 145660, Control_c, 0, 64, 60
1, 145660, Control_c, 0, 67, 91
1, 145662, Note_off_c, 0, 66, 58
1, 145674, Control_c, 0, 64, 59
1, 145674, Control_c, 0, 67, 84
1, 145689, Note_on_c, 0, 76, 64
1, 145689, Control_c, 0, 64, 58
1, 145689, Control_c, 0, 67, 83
1, 145690, Note_off_c, 0, 71, 64
1, 145704, Control_c, 0, 64, 57
1, 145704, Control_c, 0, 67, 84
1, 145719, Control_c, 0, 67, 85
1, 145739, Note_on_c, 0, 78, 77
1, 145748, Control_c, 0, 64, 57
1, 145748, Control_c, 0, 67, 86
1, 145763, Control_c, 0, 67, 87
1, 145808, Control_c, 0, 67, 87
1, 145812, Note_on_c, 0, 71, 56
1, 145834, Note_off_c, 0, 78, 63
1, 145843, Note_off_c, 0, 71, 67
1, 145857, Note_off_c, 0, 76, 49
1, 145861, Note_on_c, 0, 66, 59
1, 145866, Control_c, 0, 64, 57
1, 145866, Control_c, 0, 67, 87
1, 145881, Note_off_c, 0, 66, 61
1, 145907, Note_on_c, 0, 67, 65
1, 145927, Control_c, 0, 67, 88
1, 145942, Control_c, 0, 67, 89
1, 145957, Control_c, 0, 64, 57
1, 145957, Control_c, 0, 67, 91
1, 145969, Note_on_c, 0, 64, 62
1, 145976, Note_off_c, 0, 67, 59
1, 145979, Control_c, 0, 64, 53
1, 145979, Control_c, 0, 67, 93
1, 145994, Control_c, 0, 64, 39
1, 145994, Control_c, 0, 67, 96
1, 146009, Control_c, 0, 64, 0
1, 146009, Control_c, 0, 67, 102
1, 146024, Control_c, 0, 67, 106
1, 146032, Note_off_c, 0, 64, 63
1, 146039, Control_c, 0, 67, 107
1, 146043, Note_on_c, 0, 62, 70
1, 146083, Control_c, 0, 64, 15
1, 146097, Control_c, 0, 64, 41
1, 146097, Control_c, 0, 67, 105
1, 146112, Control_c, 0, 64, 55
1, 146112, Control_c, 0, 67, 104
1, 146122, Note_on_c, 0, 64, 54
1, 146127, Control_c, 0, 64, 64
1, 146127, Control_c, 0, 67, 103
1, 146142, Control_c, 0, 64, 65
1, 146142, Control_c, 0, 67, 102
1, 146146, Note_on_c, 0, 67, 59
1, 146157, Control_c, 0, 64, 66
1, 146157, Control_c, 0, 67, 101
1, 146162, Note_off_c, 0, 62, 62
1, 146171, Control_c, 0, 64, 67
1, 146171, Control_c, 0, 67, 99
1, 146186, Control_c, 0, 64, 67
1, 146186, Control_c, 0, 67, 97
1, 146201, Control_c, 0, 67, 93
1, 146206, Note_on_c, 0, 74, 59
1, 146212, Note_off_c, 0, 67, 63
1, 146216, Note_off_c, 0, 64, 56
1, 146216, Control_c, 0, 67, 86
1, 146224, Note_off_c, 0, 74, 66
1, 146231, Control_c, 0, 64, 67
1, 146231, Control_c, 0, 67, 70
1, 146245, Control_c, 0, 64, 66
1, 146245, Control_c, 0, 67, 56
1, 146260, Note_on_c, 0, 71, 49
1, 146260, Control_c, 0, 67, 44
1, 146275, Control_c, 0, 67, 34
1, 146289, Control_c, 0, 67, 27
1, 146303, Note_off_c, 0, 71, 54
1, 146304, Note_on_c, 0, 76, 59
1, 146304, Control_c, 0, 67, 22
1, 146319, Control_c, 0, 64, 66
1, 146319, Control_c, 0, 67, 16
1, 146334, Control_c, 0, 64, 65
1, 146334, Control_c, 0, 67, 15
1, 146348, Note_on_c, 0, 78, 57
1, 146349, Control_c, 0, 67, 16
1, 146364, Control_c, 0, 67, 16
1, 146370, Note_off_c, 0, 76, 61
1, 146377, Note_off_c, 0, 78, 64
1, 146379, Control_c, 0, 67, 17
1, 146391, Note_on_c, 0, 83, 66
1, 146394, Control_c, 0, 67, 18
1, 146409, Control_c, 0, 64, 65
1, 146409, Control_c, 0, 67, 19
1, 146424, Control_c, 0, 67, 21
1, 146438, Control_c, 0, 67, 23
1, 146447, Note_on_c, 0, 78, 72
1, 146447, Note_on_c, 0, 80, 14
1, 146453, Control_c, 0, 67, 24
1, 146462, Note_off_c, 0, 83, 61
1, 146468, Control_c, 0, 67, 25
1, 146482, Control_c, 0, 67, 26
1, 146497, Control_c, 0, 64, 64
1, 146501, Note_off_c, 0, 80, 46
1, 146506, Note_on_c, 0, 76, 50
1, 146512, Control_c, 0, 64, 64
1, 146512, Control_c, 0, 67, 27
1, 146527, Control_c, 0, 64, 63
1, 146527, Control_c, 0, 67, 28
1, 146529, Note_off_c, 0, 76, 62
1, 146536, Note_on_c, 0, 71, 65
1, 146542, Control_c, 0, 64, 63
1, 146542, Control_c, 0, 67, 29
1, 146555, Note_off_c, 0, 71, 69
1, 146571, Control_c, 0, 67, 29
1, 146586, Control_c, 0, 64, 62
1, 146586, Control_c, 0, 67, 30
1, 146597, Note_off_c, 0, 78, 42
1, 146601, Control_c, 0, 67, 32
1, 146607, Note_on_c, 0, 74, 52
1, 146616, Control_c, 0, 64, 62
1, 146616, Control_c, 0, 67, 37
1, 146631, Control_c, 0, 67, 41
1, 146645, Control_c, 0, 67, 44
1, 146655, Note_on_c, 0, 71, 51
1, 146660, Control_c, 0, 67, 48
1, 146675, Control_c, 0, 64, 61
1, 146675, Control_c, 0, 67, 54
1, 146691, Control_c, 0, 64, 59
1, 146691, Control_c, 0, 67, 61
1, 146706, Control_c, 0, 64, 56
1, 146706, Control_c, 0, 67, 69
1, 146716, Note_off_c, 0, 74, 37
1, 146728, Control_c, 0, 64, 46
1, 146728, Control_c, 0, 67, 79
1, 146742, Control_c, 0, 64, 23
1, 146742, Control_c, 0, 67, 90
1, 146745, Note_off_c, 0, 71, 63
1, 146747, Note_on_c, 0, 67, 68
1, 146757, Control_c, 0, 64, 0
1, 146757, Control_c, 0, 67, 100
1, 146772, Control_c, 0, 67, 108
1, 146787, Control_c, 0, 67, 114
1, 146802, Control_c, 0, 67, 119
1, 146817, Control_c, 0, 67, 122
1, 146832, Control_c, 0, 64, 20
1, 146832, Control_c, 0, 67, 124
1, 146847, Control_c, 0, 64, 38
1, 146847, Control_c, 0, 67, 124
1, 146862, Control_c, 0, 64, 52
1, 146862, Control_c, 0, 67, 125
1, 146876, Control_c, 0, 64, 61
1, 146879, Note_on_c, 0, 71, 54
1, 146891, Control_c, 0, 64, 62
1, 146906, Control_c, 0, 64, 63
1, 146920, Control_c, 0, 64, 65
1, 146921, Note_on_c, 0, 74, 52
1, 146935, Control_c, 0, 64, 67
1, 146950, Control_c, 0, 64, 67
1, 146950, Control_c, 0, 67, 125
1, 146965, Control_c, 0, 67, 123
1, 146973, Note_off_c, 0, 67, 61
1, 146980, Control_c, 0, 67, 120
1, 146987, Note_on_c, 0, 79, 38
1, 146994, Control_c, 0, 64, 67
1, 146994, Control_c, 0, 67, 118
1, 146997, Note_off_c, 0, 74, 63
1, 147005, Note_off_c, 0, 71, 62
1, 147009, Control_c, 0, 67, 115
1, 147017, Note_off_c, 0, 79, 52
1, 147024, Control_c, 0, 67, 111
1, 147026, Note_on_c, 0, 76, 58
1, 147039, Control_c, 0, 67, 103
1, 147054, Control_c, 0, 64, 67
1, 147054, Control_c, 0, 67, 92
1, 147068, Control_c, 0, 67, 81
1, 147083, Control_c, 0, 67, 74
1, 147089, Note_on_c, 0, 78, 60
1, 147098, Control_c, 0, 67, 68
1, 147112, Control_c, 0, 67, 63
1, 147127, Note_off_c, 0, 78, 65
1, 147127, Control_c, 0, 67, 57
1, 147136, Note_off_c, 0, 76, 45
1, 147137, Note_on_c, 0, 83, 54
1, 147142, Control_c, 0, 67, 53
1, 147157, Control_c, 0, 67, 50
1, 147172, Control_c, 0, 67, 49
1, 147202, Control_c, 0, 67, 49
1, 147202, Note_off_c, 0, 83, 65
1, 147213, Note_on_c, 0, 90, 67
1, 147216, Control_c, 0, 67, 50
1, 147231, Control_c, 0, 67, 51
1, 147246, Control_c, 0, 67, 53
1, 147261, Control_c, 0, 67, 54
1, 147276, Control_c, 0, 67, 55
1, 147278, Note_off_c, 0, 90, 66
1, 147284, Note_on_c, 0, 83, 49
1, 147291, Control_c, 0, 67, 56
1, 147305, Control_c, 0, 67, 57
1, 147320, Control_c, 0, 67, 59
1, 147335, Control_c, 0, 67, 60
1, 147350, Control_c, 0, 67, 62
1, 147361, Note_on_c, 0, 78, 67
1, 147365, Control_c, 0, 67, 64
1, 147380, Control_c, 0, 67, 67
1, 147388, Note_off_c, 0, 83, 51
1, 147394, Control_c, 0, 67, 70
1, 147409, Control_c, 0, 67, 74
1, 147424, Control_c, 0, 67, 79
1, 147428, Note_off_c, 0, 78, 56
1, 147438, Control_c, 0, 67, 82
1, 147453, Control_c, 0, 64, 67
1, 147453, Control_c, 0, 67, 85
1, 147476, Control_c, 0, 67, 89
1, 147491, Control_c, 0, 67, 93
1, 147506, Control_c, 0, 67, 97
1, 147507, Poly_aftertouch_c, 0, 76, 127
1, 147521, Control_c, 0, 67, 100
1, 147536, Control_c, 0, 64, 66
1, 147536, Control_c, 0, 67, 103
1, 147549, Poly_aftertouch_c, 0, 76, 0
1, 147550, Control_c, 0, 67, 106
1, 147565, Control_c, 0, 67, 109
1, 147575, Note_on_c, 0, 74, 51
1, 147580, Control_c, 0, 64, 66
1, 147580, Control_c, 0, 67, 112
1, 147595, Control_c, 0, 64, 65
1, 147595, Control_c, 0, 67, 117
1, 147610, Control_c, 0, 64, 64
1, 147610, Control_c, 0, 67, 122
1, 147625, Control_c, 0, 64, 62
1, 147625, Control_c, 0, 67, 127
1, 147640, Control_c, 0, 64, 57
1, 147655, Control_c, 0, 64, 47
1, 147669, Note_off_c, 0, 74, 59
1, 147670, Control_c, 0, 64, 31
1, 147684, Control_c, 0, 64, 0
1, 147723, Note_on_c, 0, 71, 45
1, 147743, Control_c, 0, 64, 14
1, 147758, Control_c, 0, 64, 29
1, 147773, Control_c, 0, 64, 39
1, 147788, Control_c, 0, 64, 47
1, 147803, Control_c, 0, 64, 55
1, 147817, Control_c, 0, 64, 63
1, 147832, Control_c, 0, 64, 68
1, 147847, Control_c, 0, 64, 71
1, 147861, Control_c, 0, 64, 75
1, 147876, Control_c, 0, 64, 78
1, 147891, Control_c, 0, 64, 79
1, 147906, Control_c, 0, 64, 80
1, 147921, Control_c, 0, 64, 81
1, 147935, Control_c, 0, 64, 82
1, 147950, Control_c, 0, 64, 83
1, 147965, Control_c, 0, 64, 85
1, 147980, Control_c, 0, 64, 86
1, 147995, Control_c, 0, 64, 87
1, 148051, Note_on_c, 0, 74, 39
1, 148138, Note_on_c, 0, 79, 50
1, 148179, Note_off_c, 0, 79, 56
1, 148196, Note_on_c, 0, 83, 37
1, 148269, Note_on_c, 0, 86, 51
1, 148304, Note_off_c, 0, 83, 43
1, 148346, Note_off_c, 0, 86, 45
1, 148349, Note_on_c, 0, 88, 45
1, 148403, Note_off_c, 0, 88, 62
1, 148409, Note_on_c, 0, 90, 53
1, 148438, Note_off_c, 0, 90, 69
1, 148558, Note_on_c, 0, 95, 61
1, 148695, Note_off_c, 0, 95, 28
1, 148714, Control_c, 0, 64, 86
1, 148744, Control_c, 0, 67, 126
1, 148758, Control_c, 0, 67, 125
1, 148773, Control_c, 0, 67, 124
1, 148788, Control_c, 0, 67, 123
1, 148803, Control_c, 0, 64, 86
1, 148803, Control_c, 0, 67, 122
1, 148832, Control_c, 0, 64, 85
1, 148832, Control_c, 0, 67, 121
1, 148847, Control_c, 0, 67, 121
1, 148862, Control_c, 0, 64, 85
1, 148862, Control_c, 0, 67, 120
1, 148877, Control_c, 0, 67, 120
1, 148892, Control_c, 0, 64, 84
1, 148892, Control_c, 0, 67, 119
1, 148922, Control_c, 0, 64, 84
1, 148937, Control_c, 0, 64, 83
1, 148937, Control_c, 0, 67, 119
1, 148952, Control_c, 0, 64, 83
1, 148974, Control_c, 0, 64, 82
1, 148974, Control_c, 0, 67, 118
1, 148989, Control_c, 0, 64, 82
1, 149004, Control_c, 0, 64, 81
1, 149018, Control_c, 0, 64, 81
1, 149033, Control_c, 0, 64, 80
1, 149063, Control_c, 0, 64, 79
1, 149078, Control_c, 0, 64, 78
1, 149094, Control_c, 0, 64, 77
1, 149123, Control_c, 0, 64, 77
1, 149160, Note_on_c, 0, 102, 59
1, 149168, Control_c, 0, 64, 76
1, 149182, Control_c, 0, 64, 76
1, 149182, Control_c, 0, 67, 118
1, 149197, Control_c, 0, 64, 75
1, 149242, Control_c, 0, 64, 75
1, 149257, Control_c, 0, 64, 74
1, 149271, Control_c, 0, 64, 73
1, 149286, Control_c, 0, 64, 73
1, 149315, Control_c, 0, 64, 72
1, 149360, Control_c, 0, 64, 72
1, 149360, Control_c, 0, 67, 118
1, 149375, Control_c, 0, 64, 71
1, 149404, Control_c, 0, 67, 119
1, 149415, Note_off_c, 0, 102, 46
1, 149449, Control_c, 0, 64, 71
1, 149464, Control_c, 0, 67, 119
1, 149508, Control_c, 0, 67, 120
1, 149523, Control_c, 0, 67, 120
1, 149597, Control_c, 0, 67, 121
1, 149627, Control_c, 0, 64, 70
1, 149627, Control_c, 0, 67, 121
1, 149646, Note_off_c, 0, 74, 27
1, 149685, Control_c, 0, 64, 70
1, 149685, Control_c, 0, 67, 122
1, 149700, Control_c, 0, 64, 69
1, 149722, Control_c, 0, 67, 122
1, 149760, Note_off_c, 0, 71, 39
1, 149767, Control_c, 0, 67, 123
1, 149811, Control_c, 0, 64, 69
1, 149811, Control_c, 0, 67, 123
1, 149826, Control_c, 0, 64, 68
1, 149840, Control_c, 0, 67, 124
1, 149870, Control_c, 0, 67, 124
1, 149886, Control_c, 0, 64, 68
1, 149930, Control_c, 0, 67, 125
1, 149945, Control_c, 0, 67, 125
1, 150034, Control_c, 0, 67, 126
1, 150049, Control_c, 0, 64, 67
1, 150078, Control_c, 0, 67, 126
1, 150093, Control_c, 0, 67, 127
1, 150138, Control_c, 0, 64, 67
1, 150153, Control_c, 0, 64, 66
1, 150197, Control_c, 0, 64, 66
1, 150227, Control_c, 0, 64, 65
1, 150242, Control_c, 0, 64, 64
1, 150256, Control_c, 0, 64, 64
1, 150301, Control_c, 0, 64, 63
1, 150316, Control_c, 0, 64, 63
1, 150330, Control_c, 0, 64, 62
1, 150345, Control_c, 0, 64, 61
1, 150360, Control_c, 0, 64, 61
1, 150419, Control_c, 0, 64, 60
1, 150449, Control_c, 0, 64, 60
1, 150516, Control_c, 0, 64, 59
1, 150575, Control_c, 0, 64, 59
1, 150590, Control_c, 0, 64, 58
1, 150605, Control_c, 0, 64, 57
1, 150619, Control_c, 0, 64, 57
1, 150663, Control_c, 0, 64, 56
1, 150678, Control_c, 0, 64, 55
1, 150694, Control_c, 0, 64, 53
1, 150709, Control_c, 0, 64, 52
1, 150724, Control_c, 0, 64, 52
1, 150739, Control_c, 0, 64, 51
1, 150754, Control_c, 0, 64, 50
1, 150768, Control_c, 0, 64, 48
1, 150768, Control_c, 0, 67, 126
1, 150783, Control_c, 0, 64, 45
1, 150798, Control_c, 0, 64, 45
1, 150798, Control_c, 0, 67, 125
1, 150828, Control_c, 0, 67, 124
1, 150842, Control_c, 0, 64, 44
1, 150842, Control_c, 0, 67, 124
1, 150857, Control_c, 0, 64, 42
1, 150857, Control_c, 0, 67, 123
1, 150872, Control_c, 0, 64, 41
1, 150872, Control_c, 0, 67, 122
1, 150886, Control_c, 0, 64, 41
1, 150901, Control_c, 0, 64, 39
1, 150916, Control_c, 0, 64, 38
1, 150916, Control_c, 0, 67, 121
1, 150931, Control_c, 0, 64, 37
1, 150931, Control_c, 0, 67, 119
1, 150946, Control_c, 0, 64, 37
1, 150946, Control_c, 0, 67, 119
1, 150960, Control_c, 0, 64, 36
1, 150960, Control_c, 0, 67, 118
1, 150975, Control_c, 0, 64, 34
1, 150990, Control_c, 0, 64, 32
1, 151005, Control_c, 0, 64, 32
1, 151035, Control_c, 0, 64, 31
1, 151050, Control_c, 0, 64, 30
1, 151065, Control_c, 0, 64, 29
1, 151065, Control_c, 0, 67, 117
1, 151079, Control_c, 0, 64, 29
1, 151079, Control_c, 0, 67, 114
1, 151094, Control_c, 0, 64, 28
1, 151094, Control_c, 0, 67, 111
1, 151109, Control_c, 0, 64, 27
1, 151109, Control_c, 0, 67, 108
1, 151124, Control_c, 0, 64, 26
1, 151124, Control_c, 0, 67, 105
1, 151139, Control_c, 0, 64, 24
1, 151139, Control_c, 0, 67, 102
1, 151153, Control_c, 0, 64, 19
1, 151153, Control_c, 0, 67, 99
1, 151168, Control_c, 0, 64, 11
1, 151168, Control_c, 0, 67, 98
1, 151183, Control_c, 0, 64, 0
1, 151183, Control_c, 0, 67, 97
1, 151198, Control_c, 0, 67, 95
1, 151220, Control_c, 0, 67, 91
1, 151227, Note_on_c, 0, 76, 76
1, 151235, Control_c, 0, 67, 85
1, 151250, Control_c, 0, 67, 79
1, 151258, Note_on_c, 0, 71, 48
1, 151265, Control_c, 0, 67, 77
1, 151279, Control_c, 0, 67, 76
1, 151289, Note_on_c, 0, 64, 38
1, 151303, Note_on_c, 0, 59, 40
1, 151307, Note_on_c, 0, 55, 35
1, 151309, Control_c, 0, 67, 75
1, 151324, Control_c, 0, 67, 74
1, 151339, Control_c, 0, 67, 71
1, 151354, Control_c, 0, 67, 69
1, 151368, Control_c, 0, 64, 24
1, 151383, Control_c, 0, 64, 40
1, 151398, Control_c, 0, 64, 49
1, 151412, Control_c, 0, 64, 55
1, 151427, Control_c, 0, 64, 58
1, 151427, Control_c, 0, 67, 68
1, 151442, Control_c, 0, 64, 63
1, 151442, Control_c, 0, 67, 68
1, 151457, Control_c, 0, 64, 71
1, 151472, Control_c, 0, 64, 75
1, 151488, Control_c, 0, 64, 76
1, 151502, Control_c, 0, 64, 77
1, 151502, Control_c, 0, 67, 66
1, 151517, Control_c, 0, 64, 79
1, 151517, Control_c, 0, 67, 63
1, 151532, Control_c, 0, 64, 81
1, 151532, Control_c, 0, 67, 59
1, 151547, Control_c, 0, 64, 84
1, 151547, Control_c, 0, 67, 56
1, 151562, Control_c, 0, 64, 87
1, 151562, Control_c, 0, 67, 53
1, 151577, Control_c, 0, 64, 91
1, 151577, Control_c, 0, 67, 52
1, 151591, Control_c, 0, 64, 93
1, 151591, Control_c, 0, 67, 49
1, 151606, Control_c, 0, 64, 97
1, 151606, Control_c, 0, 67, 44
1, 151613, Note_off_c, 0, 64, 40
1, 151621, Control_c, 0, 64, 101
1, 151621, Control_c, 0, 67, 36
1, 151636, Control_c, 0, 64, 108
1, 151636, Control_c, 0, 67, 28
1, 151651, Control_c, 0, 64, 127
1, 151651, Control_c, 0, 67, 23
1, 151663, Note_off_c, 0, 76, 66
1, 151665, Control_c, 0, 67, 20
1, 151673, Note_off_c, 0, 59, 41
1, 151680, Control_c, 0, 67, 18
1, 151695, Control_c, 0, 67, 15
1, 151709, Control_c, 0, 67, 8
1, 151721, Note_off_c, 0, 55, 44
1, 151724, Control_c, 0, 67, 0
1, 151859, Note_off_c, 0, 71, 40
1, 151968, Control_c, 0, 64, 113
1, 151983, Control_c, 0, 64, 108
1, 151986, Note_on_c, 0, 78, 82
1, 151998, Control_c, 0, 64, 102
1, 152010, Note_on_c, 0, 66, 46
1, 152013, Control_c, 0, 64, 96
1, 152014, Note_on_c, 0, 62, 47
1, 152016, Note_on_c, 0, 74, 44
1, 152028, Control_c, 0, 64, 88
1, 152028, Control_c, 0, 67, 8
1, 152029, Note_on_c, 0, 59, 40
1, 152042, Control_c, 0, 64, 78
1, 152042, Control_c, 0, 67, 10
1, 152057, Control_c, 0, 64, 70
1, 152057, Control_c, 0, 67, 10
1, 152071, Note_off_c, 0, 66, 62
1, 152072, Control_c, 0, 64, 64
1, 152072, Control_c, 0, 67, 9
1, 152087, Control_c, 0, 64, 58
1, 152087, Control_c, 0, 67, 8
1, 152102, Control_c, 0, 64, 52
1, 152102, Control_c, 0, 67, 0
1, 152102, Note_off_c, 0, 62, 53
1, 152116, Control_c, 0, 64, 45
1, 152131, Control_c, 0, 64, 37
1, 152145, Note_on_c, 0, 76, 80
1, 152146, Control_c, 0, 64, 25
1, 152152, Note_on_c, 0, 55, 55
1, 152161, Note_off_c, 0, 74, 45
1, 152161, Control_c, 0, 64, 9
1, 152170, Note_on_c, 0, 64, 49
1, 152171, Note_on_c, 0, 71, 51
1, 152176, Control_c, 0, 64, 0
1, 152238, Note_off_c, 0, 78, 64
1, 152280, Control_c, 0, 64, 30
1, 152295, Control_c, 0, 64, 47
1, 152310, Control_c, 0, 64, 62
1, 152325, Control_c, 0, 64, 84
1, 152339, Control_c, 0, 64, 103
1, 152369, Control_c, 0, 64, 107
1, 152384, Control_c, 0, 64, 109
1, 152394, Note_off_c, 0, 64, 35
1, 152399, Control_c, 0, 64, 113
1, 152413, Control_c, 0, 64, 122
1, 152428, Control_c, 0, 64, 127
1, 152434, Note_off_c, 0, 55, 57
1, 152445, Note_off_c, 0, 59, 42
1, 152460, Note_off_c, 0, 76, 62
1, 152531, Control_c, 0, 67, 8
1, 152546, Control_c, 0, 67, 10
1, 152561, Control_c, 0, 67, 13
1, 152576, Control_c, 0, 64, 111
1, 152576, Control_c, 0, 67, 15
1, 152591, Control_c, 0, 64, 105
1, 152591, Control_c, 0, 67, 19
1, 152606, Control_c, 0, 64, 101
1, 152606, Control_c, 0, 67, 24
1, 152621, Control_c, 0, 64, 94
1, 152621, Control_c, 0, 67, 29
1, 152636, Control_c, 0, 64, 87
1, 152636, Control_c, 0, 67, 36
1, 152650, Control_c, 0, 64, 78
1, 152650, Control_c, 0, 67, 43
1, 152665, Control_c, 0, 64, 69
1, 152665, Control_c, 0, 67, 52
1, 152666, Note_on_c, 0, 78, 88
1, 152677, Note_on_c, 0, 74, 64
1, 152680, Control_c, 0, 64, 61
1, 152680, Control_c, 0, 67, 61
1, 152695, Control_c, 0, 64, 49
1, 152695, Control_c, 0, 67, 69
1, 152717, Control_c, 0, 64, 37
1, 152717, Control_c, 0, 67, 74
1, 152730, Note_on_c, 0, 59, 47
1, 152731, Control_c, 0, 64, 26
1, 152731, Control_c, 0, 67, 77
1, 152736, Note_on_c, 0, 62, 45
1, 152743, Note_on_c, 0, 66, 38
1, 152746, Control_c, 0, 64, 9
1, 152746, Control_c, 0, 67, 81
1, 152761, Control_c, 0, 64, 0
1, 152761, Control_c, 0, 67, 85
1, 152776, Control_c, 0, 67, 91
1, 152791, Control_c, 0, 67, 96
1, 152806, Control_c, 0, 67, 101
1, 152821, Control_c, 0, 67, 106
1, 152835, Control_c, 0, 64, 18
1, 152835, Control_c, 0, 67, 112
1, 152850, Control_c, 0, 64, 28
1, 152850, Control_c, 0, 67, 117
1, 152865, Control_c, 0, 64, 36
1, 152865, Control_c, 0, 67, 123
1, 152880, Control_c, 0, 64, 46
1, 152880, Control_c, 0, 67, 126
1, 152895, Control_c, 0, 64, 60
1, 152895, Control_c, 0, 67, 127
1, 152910, Control_c, 0, 64, 71
1, 152924, Control_c, 0, 64, 82
1, 152939, Note_off_c, 0, 66, 36
1, 152969, Control_c, 0, 64, 82
1, 152984, Control_c, 0, 64, 85
1, 152993, Note_off_c, 0, 71, 48
1, 152999, Control_c, 0, 64, 90
1, 153013, Control_c, 0, 64, 98
1, 153026, Note_off_c, 0, 62, 30
1, 153028, Control_c, 0, 64, 105
1, 153043, Control_c, 0, 64, 108
1, 153057, Control_c, 0, 64, 110
1, 153072, Control_c, 0, 64, 117
1, 153088, Control_c, 0, 64, 127
1, 153110, Note_off_c, 0, 78, 60
1, 153111, Note_off_c, 0, 59, 30
1, 153141, Note_off_c, 0, 74, 61
1, 153847, Note_on_c, 0, 66, 45
1, 153885, Note_on_c, 0, 62, 37
1, 153891, Note_on_c, 0, 54, 26
1, 153898, Note_on_c, 0, 47, 11
1, 153904, Note_on_c, 0, 35, 37
1, 153912, Note_on_c, 0, 59, 24
1, 154236, Note_off_c, 0, 54, 42
1, 154268, Note_off_c, 0, 47, 28
1, 154272, Note_off_c, 0, 35, 37
1, 154508, Note_off_c, 0, 59, 38
1, 154520, Note_off_c, 0, 66, 38
1, 154597, Note_off_c, 0, 62, 43
1, 154704, Control_c, 0, 64, 122
1, 154719, Control_c, 0, 64, 115
1, 154734, Control_c, 0, 64, 109
1, 154749, Control_c, 0, 64, 105
1, 154764, Control_c, 0, 64, 103
1, 154779, Control_c, 0, 64, 102
1, 154794, Control_c, 0, 64, 101
1, 154823, Control_c, 0, 64, 100
1, 154838, Control_c, 0, 64, 100
1, 154852, Control_c, 0, 64, 99
1, 154867, Control_c, 0, 64, 97
1, 154882, Control_c, 0, 64, 95
1, 154897, Control_c, 0, 64, 93
1, 154912, Control_c, 0, 64, 92
1, 154926, Control_c, 0, 64, 91
1, 154941, Control_c, 0, 64, 90
1, 154964, Control_c, 0, 64, 89
1, 154979, Control_c, 0, 64, 88
1, 154994, Control_c, 0, 64, 87
1, 155008, Control_c, 0, 64, 85
1, 155023, Control_c, 0, 64, 84
1, 155038, Control_c, 0, 64, 83
1, 155052, Control_c, 0, 64, 82
1, 155067, Control_c, 0, 64, 80
1, 155082, Control_c, 0, 64, 78
1, 155097, Control_c, 0, 64, 76
1, 155112, Control_c, 0, 64, 74
1, 155126, Control_c, 0, 64, 73
1, 155141, Control_c, 0, 64, 73
1, 155156, Control_c, 0, 64, 72
1, 155185, Control_c, 0, 64, 71
1, 155200, Control_c, 0, 64, 70
1, 155215, Control_c, 0, 64, 68
1, 155230, Control_c, 0, 64, 67
1, 155245, Control_c, 0, 64, 66
1, 155259, Control_c, 0, 64, 66
1, 155274, Control_c, 0, 64, 65
1, 155289, Control_c, 0, 64, 63
1, 155304, Control_c, 0, 64, 62
1, 155319, Control_c, 0, 64, 61
1, 155333, Control_c, 0, 64, 58
1, 155342, Note_on_c, 0, 76, 76
1, 155348, Control_c, 0, 64, 55
1, 155363, Control_c, 0, 64, 52
1, 155378, Control_c, 0, 64, 48
1, 155393, Control_c, 0, 64, 45
1, 155408, Control_c, 0, 64, 42
1, 155411, Note_on_c, 0, 67, 9
1, 155423, Control_c, 0, 64, 39
1, 155429, Note_on_c, 0, 64, 38
1, 155432, Note_on_c, 0, 59, 40
1, 155438, Control_c, 0, 64, 36
1, 155452, Control_c, 0, 64, 35
1, 155467, Control_c, 0, 64, 35
1, 155481, Note_off_c, 0, 67, 0
1, 155481, Note_on_c, 0, 67, 20
1, 155482, Control_c, 0, 64, 39
1, 155497, Control_c, 0, 64, 44
1, 155512, Control_c, 0, 64, 50
1, 155527, Control_c, 0, 64, 56
1, 155542, Control_c, 0, 64, 61
1, 155557, Control_c, 0, 64, 70
1, 155572, Control_c, 0, 64, 74
1, 155602, Control_c, 0, 64, 75
1, 155646, Control_c, 0, 67, 125
1, 155661, Control_c, 0, 67, 122
1, 155675, Control_c, 0, 67, 121
1, 155697, Control_c, 0, 67, 120
1, 155712, Control_c, 0, 64, 74
1, 155712, Control_c, 0, 67, 119
1, 155727, Control_c, 0, 67, 117
1, 155742, Control_c, 0, 67, 114
1, 155757, Control_c, 0, 67, 111
1, 155772, Control_c, 0, 64, 74
1, 155772, Control_c, 0, 67, 109
1, 155787, Control_c, 0, 64, 73
1, 155787, Control_c, 0, 67, 106
1, 155790, Note_on_c, 0, 74, 81
1, 155801, Control_c, 0, 64, 70
1, 155801, Control_c, 0, 67, 102
1, 155809, Note_off_c, 0, 76, 61
1, 155810, Note_on_c, 0, 71, 61
1, 155816, Control_c, 0, 64, 65
1, 155816, Control_c, 0, 67, 96
1, 155828, Note_off_c, 0, 67, 43
1, 155831, Control_c, 0, 64, 60
1, 155831, Control_c, 0, 67, 90
1, 155834, Note_on_c, 0, 62, 51
1, 155844, Note_on_c, 0, 54, 51
1, 155846, Control_c, 0, 64, 51
1, 155846, Control_c, 0, 67, 84
1, 155861, Control_c, 0, 64, 44
1, 155861, Control_c, 0, 67, 79
1, 155875, Control_c, 0, 64, 39
1, 155875, Control_c, 0, 67, 75
1, 155879, Note_off_c, 0, 64, 42
1, 155890, Control_c, 0, 64, 34
1, 155890, Control_c, 0, 67, 70
1, 155905, Control_c, 0, 64, 29
1, 155905, Control_c, 0, 67, 64
1, 155920, Control_c, 0, 64, 29
1, 155920, Control_c, 0, 67, 59
1, 155935, Control_c, 0, 64, 30
1, 155935, Control_c, 0, 67, 54
1, 155949, Control_c, 0, 64, 41
1, 155949, Control_c, 0, 67, 48
1, 155964, Control_c, 0, 64, 52
1, 155964, Control_c, 0, 67, 43
1, 155979, Control_c, 0, 64, 57
1, 155979, Control_c, 0, 67, 38
1, 155994, Control_c, 0, 64, 58
1, 155994, Control_c, 0, 67, 33
1, 156008, Control_c, 0, 64, 61
1, 156008, Control_c, 0, 67, 28
1, 156023, Control_c, 0, 64, 66
1, 156023, Control_c, 0, 67, 25
1, 156038, Control_c, 0, 64, 70
1, 156038, Control_c, 0, 67, 23
1, 156053, Control_c, 0, 67, 20
1, 156061, Note_off_c, 0, 62, 58
1, 156068, Control_c, 0, 67, 18
1, 156075, Note_off_c, 0, 54, 52
1, 156082, Control_c, 0, 64, 70
1, 156082, Control_c, 0, 67, 15
1, 156097, Control_c, 0, 64, 72
1, 156097, Control_c, 0, 67, 11
1, 156102, Note_off_c, 0, 59, 41
1, 156112, Control_c, 0, 64, 73
1, 156112, Control_c, 0, 67, 10
1, 156127, Control_c, 0, 64, 74
1, 156127, Control_c, 0, 67, 9
1, 156133, Note_off_c, 0, 74, 61
1, 156142, Control_c, 0, 67, 8
1, 156156, Control_c, 0, 64, 74
1, 156156, Control_c, 0, 67, 0
1, 156162, Note_off_c, 0, 71, 38
1, 156171, Control_c, 0, 64, 75
1, 156186, Control_c, 0, 64, 76
1, 156201, Control_c, 0, 64, 78
1, 156311, Note_on_c, 0, 76, 82
1, 156320, Control_c, 0, 64, 77
1, 156332, Note_on_c, 0, 67, 57
1, 156335, Control_c, 0, 64, 75
1, 156341, Note_on_c, 0, 64, 45
1, 156345, Note_on_c, 0, 59, 43
1, 156350, Control_c, 0, 64, 72
1, 156365, Control_c, 0, 64, 69
1, 156365, Control_c, 0, 67, 8
1, 156380, Control_c, 0, 64, 68
1, 156380, Control_c, 0, 67, 12
1, 156387, Note_off_c, 0, 67, 0
1, 156387, Note_on_c, 0, 67, 22
1, 156395, Control_c, 0, 64, 67
1, 156395, Control_c, 0, 67, 16
1, 156410, Control_c, 0, 64, 66
1, 156410, Control_c, 0, 67, 26
1, 156421, Note_off_c, 0, 67, 51
1, 156424, Control_c, 0, 64, 63
1, 156424, Control_c, 0, 67, 36
1, 156439, Control_c, 0, 64, 57
1, 156439, Control_c, 0, 67, 45
1, 156441, Note_on_c, 0, 74, 83
1, 156443, Note_off_c, 0, 64, 35
1, 156456, Note_on_c, 0, 71, 71
1, 156459, Note_on_c, 0, 62, 66
1, 156461, Control_c, 0, 64, 48
1, 156461, Control_c, 0, 67, 54
1, 156474, Note_on_c, 0, 54, 57
1, 156476, Control_c, 0, 64, 36
1, 156476, Control_c, 0, 67, 65
1, 156491, Control_c, 0, 64, 22
1, 156491, Control_c, 0, 67, 75
1, 156505, Control_c, 0, 64, 0
1, 156505, Control_c, 0, 67, 86
1, 156511, Note_off_c, 0, 76, 63
1, 156520, Control_c, 0, 67, 98
1, 156535, Control_c, 0, 67, 112
1, 156550, Control_c, 0, 67, 127
1, 156565, Control_c, 0, 67, 127
1, 156594, Control_c, 0, 64, 22
1, 156609, Control_c, 0, 64, 31
1, 156624, Control_c, 0, 64, 42
1, 156639, Control_c, 0, 64, 53
1, 156654, Control_c, 0, 64, 61
1, 156669, Control_c, 0, 64, 66
1, 156684, Control_c, 0, 64, 67
1, 156698, Control_c, 0, 64, 67
1, 156713, Control_c, 0, 64, 68
1, 156743, Control_c, 0, 64, 68
1, 156757, Note_off_c, 0, 62, 52
1, 156765, Note_off_c, 0, 59, 36
1, 156772, Control_c, 0, 64, 67
1, 156817, Control_c, 0, 64, 67
1, 156831, Control_c, 0, 64, 66
1, 156846, Control_c, 0, 64, 65
1, 156861, Control_c, 0, 64, 63
1, 156876, Control_c, 0, 64, 62
1, 156878, Note_off_c, 0, 54, 28
1, 156891, Control_c, 0, 64, 60
1, 156905, Control_c, 0, 64, 58
1, 156915, Note_on_c, 0, 76, 78
1, 156920, Control_c, 0, 64, 57
1, 156935, Control_c, 0, 64, 56
1, 156946, Note_off_c, 0, 74, 61
1, 156950, Control_c, 0, 64, 52
1, 156955, Note_on_c, 0, 67, 45
1, 156961, Note_on_c, 0, 64, 45
1, 156965, Control_c, 0, 64, 46
1, 156979, Control_c, 0, 64, 37
1, 156985, Note_on_c, 0, 59, 46
1, 156994, Control_c, 0, 64, 25
1, 157009, Control_c, 0, 64, 8
1, 157024, Control_c, 0, 64, 0
1, 157099, Control_c, 0, 64, 16
1, 157114, Control_c, 0, 64, 22
1, 157128, Control_c, 0, 64, 25
1, 157143, Control_c, 0, 64, 31
1, 157158, Control_c, 0, 64, 38
1, 157173, Control_c, 0, 64, 47
1, 157185, Note_off_c, 0, 64, 35
1, 157188, Control_c, 0, 64, 57
1, 157210, Control_c, 0, 64, 63
1, 157225, Control_c, 0, 64, 67
1, 157240, Control_c, 0, 64, 71
1, 157242, Note_off_c, 0, 76, 40
1, 157254, Control_c, 0, 64, 77
1, 157269, Control_c, 0, 64, 83
1, 157284, Control_c, 0, 64, 86
1, 157299, Control_c, 0, 64, 89
1, 157309, Note_off_c, 0, 59, 33
1, 157314, Control_c, 0, 64, 91
1, 157319, Note_off_c, 0, 67, 40
1, 157328, Note_off_c, 0, 71, 39
1, 157328, Control_c, 0, 64, 92
1, 157343, Control_c, 0, 64, 93
1, 157358, Control_c, 0, 64, 95
1, 157373, Control_c, 0, 64, 95
1, 157714, Control_c, 0, 64, 94
1, 157728, Control_c, 0, 64, 93
1, 157758, Control_c, 0, 64, 92
1, 157772, Control_c, 0, 64, 90
1, 157787, Control_c, 0, 64, 88
1, 157802, Control_c, 0, 64, 87
1, 157817, Control_c, 0, 64, 86
1, 157846, Control_c, 0, 64, 85
1, 157877, Control_c, 0, 64, 85
1, 157892, Control_c, 0, 64, 84
1, 157907, Control_c, 0, 64, 83
1, 157974, Control_c, 0, 64, 83
1, 158033, Control_c, 0, 64, 82
1, 158085, Note_on_c, 0, 64, 44
1, 158094, Note_on_c, 0, 55, 31
1, 158102, Note_on_c, 0, 59, 26
1, 158119, Note_on_c, 0, 40, 40
1, 158122, Control_c, 0, 64, 82
1, 158124, Note_on_c, 0, 47, 28
1, 158135, Note_on_c, 0, 52, 27
1, 158210, Control_c, 0, 64, 81
1, 158503, Note_off_c, 0, 47, 29
1, 158504, Note_off_c, 0, 55, 42
1, 158508, Note_off_c, 0, 40, 38
1, 158565, Note_off_c, 0, 59, 39
1, 158568, Note_off_c, 0, 64, 51
1, 158672, Control_c, 0, 64, 81
1, 158715, Note_off_c, 0, 52, 38
1, 158738, Control_c, 0, 64, 80
1, 158782, Control_c, 0, 64, 80
1, 158812, Control_c, 0, 64, 79
1, 158827, Control_c, 0, 64, 79
1, 158857, Control_c, 0, 64, 78
1, 158887, Control_c, 0, 64, 78
1, 158961, Control_c, 0, 64, 77
1, 159034, Control_c, 0, 64, 77
1, 159079, Control_c, 0, 64, 76
1, 159093, Control_c, 0, 64, 76
1, 159123, Control_c, 0, 64, 75
1, 159138, Control_c, 0, 64, 74
1, 159197, Control_c, 0, 64, 74
1, 159212, Control_c, 0, 64, 73
1, 159286, Control_c, 0, 64, 73
1, 159331, Control_c, 0, 64, 72
1, 159390, Control_c, 0, 64, 72
1, 159405, Control_c, 0, 64, 71
1, 159419, Control_c, 0, 64, 70
1, 159434, Control_c, 0, 64, 69
1, 159456, Control_c, 0, 64, 69
1, 159472, Control_c, 0, 64, 68
1, 159487, Control_c, 0, 64, 67
1, 159489, Note_on_c, 0, 74, 50
1, 159502, Control_c, 0, 64, 65
1, 159517, Control_c, 0, 64, 64
1, 159531, Control_c, 0, 64, 62
1, 159542, Note_on_c, 0, 71, 18
1, 159546, Control_c, 0, 64, 62
1, 159554, Note_on_c, 0, 62, 33
1, 159555, Note_on_c, 0, 59, 36
1, 159574, Note_on_c, 0, 55, 39
1, 159650, Control_c, 0, 64, 62
1, 159665, Control_c, 0, 64, 63
1, 159680, Control_c, 0, 64, 63
1, 159695, Control_c, 0, 64, 64
1, 159709, Control_c, 0, 64, 64
1, 159724, Control_c, 0, 64, 65
1, 159739, Control_c, 0, 64, 66
1, 159754, Control_c, 0, 64, 66
1, 159757, Note_off_c, 0, 62, 40
1, 159902, Control_c, 0, 64, 66
1, 159916, Control_c, 0, 64, 65
1, 159931, Control_c, 0, 64, 64
1, 159946, Control_c, 0, 64, 61
1, 159950, Note_on_c, 0, 73, 64
1, 159961, Control_c, 0, 64, 55
1, 159972, Note_on_c, 0, 67, 32
1, 159975, Control_c, 0, 64, 48
1, 159986, Note_on_c, 0, 52, 43
1, 159986, Note_on_c, 0, 61, 45
1, 159990, Control_c, 0, 64, 39
1, 160005, Control_c, 0, 64, 27
1, 160020, Control_c, 0, 64, 17
1, 160035, Control_c, 0, 64, 12
1, 160058, Note_off_c, 0, 74, 36
1, 160064, Control_c, 0, 64, 18
1, 160079, Control_c, 0, 64, 30
1, 160094, Control_c, 0, 64, 39
1, 160109, Control_c, 0, 64, 48
1, 160113, Note_off_c, 0, 71, 31
1, 160123, Control_c, 0, 64, 56
1, 160138, Control_c, 0, 64, 63
1, 160153, Control_c, 0, 64, 67
1, 160167, Control_c, 0, 64, 68
1, 160182, Control_c, 0, 64, 69
1, 160204, Control_c, 0, 64, 70
1, 160219, Control_c, 0, 64, 71
1, 160234, Control_c, 0, 64, 71
1, 160234, Control_c, 0, 67, 127
1, 160248, Note_off_c, 0, 55, 5
1, 160249, Control_c, 0, 67, 122
1, 160254, Note_off_c, 0, 61, 58
1, 160264, Control_c, 0, 67, 118
1, 160273, Note_off_c, 0, 52, 36
1, 160278, Note_off_c, 0, 59, 38
1, 160279, Control_c, 0, 67, 115
1, 160294, Control_c, 0, 67, 113
1, 160309, Control_c, 0, 67, 111
1, 160324, Control_c, 0, 67, 109
1, 160327, Note_off_c, 0, 73, 35
1, 160338, Control_c, 0, 67, 107
1, 160342, Note_off_c, 0, 67, 40
1, 160353, Control_c, 0, 67, 106
1, 160413, Control_c, 0, 64, 71
1, 160413, Control_c, 0, 67, 105
1, 160423, Note_on_c, 0, 59, 45
1, 160425, Note_on_c, 0, 74, 62
1, 160428, Control_c, 0, 64, 70
1, 160437, Note_on_c, 0, 55, 45
1, 160443, Note_on_c, 0, 62, 21
1, 160443, Control_c, 0, 64, 70
1, 160460, Note_on_c, 0, 71, 21
1, 160485, Note_off_c, 0, 62, 52
1, 160510, Note_off_c, 0, 55, 54
1, 160510, Note_off_c, 0, 71, 46
1, 160532, Control_c, 0, 64, 67
1, 160541, Note_on_c, 0, 73, 75
1, 160546, Control_c, 0, 64, 62
1, 160557, Note_on_c, 0, 67, 52
1, 160561, Note_off_c, 0, 59, 0
1, 160561, Note_on_c, 0, 59, 3
1, 160561, Control_c, 0, 64, 52
1, 160567, Note_on_c, 0, 52, 62
1, 160576, Control_c, 0, 64, 39
1, 160578, Note_on_c, 0, 61, 55
1, 160580, Note_off_c, 0, 74, 48
1, 160590, Control_c, 0, 64, 32
1, 160590, Control_c, 0, 67, 104
1, 160605, Control_c, 0, 64, 31
1, 160613, Note_off_c, 0, 67, 0
1, 160613, Note_on_c, 0, 67, 18
1, 160620, Control_c, 0, 64, 30
1, 160620, Control_c, 0, 67, 103
1, 160635, Control_c, 0, 64, 30
1, 160635, Control_c, 0, 67, 102
1, 160650, Control_c, 0, 64, 36
1, 160664, Control_c, 0, 64, 47
1, 160679, Control_c, 0, 64, 59
1, 160694, Control_c, 0, 64, 69
1, 160709, Control_c, 0, 64, 72
1, 160724, Control_c, 0, 64, 73
1, 160738, Control_c, 0, 64, 74
1, 160738, Control_c, 0, 67, 101
1, 160753, Control_c, 0, 64, 75
1, 160753, Control_c, 0, 67, 98
1, 160759, Note_off_c, 0, 61, 63
1, 160768, Control_c, 0, 67, 93
1, 160783, Control_c, 0, 67, 85
1, 160797, Control_c, 0, 67, 76
1, 160812, Control_c, 0, 67, 70
1, 160816, Note_off_c, 0, 52, 54
1, 160827, Control_c, 0, 67, 65
1, 160830, Note_off_c, 0, 59, 42
1, 160842, Control_c, 0, 67, 62
1, 160857, Control_c, 0, 67, 59
1, 160872, Control_c, 0, 64, 74
1, 160872, Control_c, 0, 67, 58
1, 160887, Control_c, 0, 64, 72
1, 160887, Control_c, 0, 67, 57
1, 160902, Control_c, 0, 64, 65
1, 160902, Control_c, 0, 67, 56
1, 160908, Note_on_c, 0, 74, 77
1, 160917, Control_c, 0, 64, 56
1, 160932, Note_on_c, 0, 71, 49
1, 160932, Control_c, 0, 64, 42
1, 160932, Control_c, 0, 67, 57
1, 160944, Note_on_c, 0, 62, 49
1, 160946, Note_off_c, 0, 73, 37
1, 160947, Note_on_c, 0, 55, 53
1, 160952, Note_on_c, 0, 59, 52
1, 160953, Control_c, 0, 64, 29
1, 160968, Control_c, 0, 64, 24
1, 160983, Control_c, 0, 64, 19
1, 160997, Control_c, 0, 64, 14
1, 161027, Control_c, 0, 64, 23
1, 161027, Control_c, 0, 67, 58
1, 161042, Control_c, 0, 64, 35
1, 161042, Control_c, 0, 67, 58
1, 161057, Control_c, 0, 64, 45
1, 161057, Control_c, 0, 67, 58
1, 161073, Control_c, 0, 64, 53
1, 161073, Control_c, 0, 67, 57
1, 161088, Control_c, 0, 64, 60
1, 161088, Control_c, 0, 67, 56
1, 161102, Control_c, 0, 64, 69
1, 161117, Control_c, 0, 64, 73
1, 161132, Control_c, 0, 64, 74
1, 161132, Control_c, 0, 67, 56
1, 161147, Control_c, 0, 64, 76
1, 161147, Control_c, 0, 67, 54
1, 161161, Control_c, 0, 64, 78
1, 161161, Control_c, 0, 67, 51
1, 161176, Control_c, 0, 64, 82
1, 161176, Control_c, 0, 67, 47
1, 161191, Control_c, 0, 64, 87
1, 161191, Control_c, 0, 67, 45
1, 161206, Note_off_c, 0, 62, 35
1, 161206, Control_c, 0, 64, 95
1, 161206, Control_c, 0, 67, 44
1, 161221, Control_c, 0, 64, 101
1, 161221, Control_c, 0, 67, 42
1, 161236, Control_c, 0, 64, 106
1, 161236, Control_c, 0, 67, 40
1, 161251, Control_c, 0, 64, 109
1, 161265, Control_c, 0, 64, 119
1, 161265, Control_c, 0, 67, 42
1, 161280, Control_c, 0, 64, 127
1, 161280, Control_c, 0, 67, 45
1, 161284, Note_off_c, 0, 74, 62
1, 161289, Note_off_c, 0, 59, 35
1, 161295, Control_c, 0, 67, 46
1, 161298, Note_off_c, 0, 67, 43
1, 161301, Note_off_c, 0, 55, 61
1, 161310, Control_c, 0, 67, 46
1, 161322, Note_off_c, 0, 71, 66
1, 161325, Control_c, 0, 67, 47
1, 161355, Control_c, 0, 67, 48
1, 161369, Control_c, 0, 67, 49
1, 161384, Control_c, 0, 67, 51
1, 161399, Control_c, 0, 67, 52
1, 161413, Control_c, 0, 67, 54
1, 161428, Control_c, 0, 67, 57
1, 161443, Control_c, 0, 67, 61
1, 161458, Control_c, 0, 67, 65
1, 161473, Control_c, 0, 67, 70
1, 161487, Control_c, 0, 67, 74
1, 161502, Control_c, 0, 67, 79
1, 161517, Control_c, 0, 64, 119
1, 161517, Control_c, 0, 67, 85
1, 161532, Control_c, 0, 64, 107
1, 161532, Control_c, 0, 67, 92
1, 161547, Control_c, 0, 64, 99
1, 161547, Control_c, 0, 67, 98
1, 161561, Control_c, 0, 64, 93
1, 161561, Control_c, 0, 67, 102
1, 161576, Control_c, 0, 64, 88
1, 161576, Control_c, 0, 67, 105
1, 161591, Control_c, 0, 64, 86
1, 161591, Control_c, 0, 67, 110
1, 161606, Control_c, 0, 64, 85
1, 161606, Control_c, 0, 67, 116
1, 161620, Control_c, 0, 64, 83
1, 161620, Control_c, 0, 67, 123
1, 161635, Control_c, 0, 64, 83
1, 161635, Control_c, 0, 67, 127
1, 161675, Note_on_c, 0, 59, 53
1, 161679, Note_on_c, 0, 62, 69
1, 161694, Note_on_c, 0, 55, 54
1, 161702, Control_c, 0, 64, 83
1, 161717, Control_c, 0, 64, 84
1, 161722, Note_on_c, 0, 50, 47
1, 161723, Note_on_c, 0, 43, 53
1, 161732, Control_c, 0, 64, 84
1, 161746, Control_c, 0, 64, 85
1, 161758, Note_off_c, 0, 50, 65
1, 161761, Control_c, 0, 64, 86
1, 161766, Note_off_c, 0, 43, 64
1, 161769, Note_off_c, 0, 55, 63
1, 161776, Control_c, 0, 64, 87
1, 161791, Control_c, 0, 64, 89
1, 161806, Control_c, 0, 64, 92
1, 161820, Control_c, 0, 64, 93
1, 161835, Control_c, 0, 64, 94
1, 161847, Note_off_c, 0, 59, 54
1, 161850, Control_c, 0, 64, 95
1, 161862, Note_off_c, 0, 62, 64
1, 161925, Control_c, 0, 64, 96
1, 161999, Control_c, 0, 64, 96
1, 162266, Control_c, 0, 64, 96
1, 162296, Control_c, 0, 64, 95
1, 162340, Control_c, 0, 64, 95
1, 162355, Control_c, 0, 64, 94
1, 162370, Control_c, 0, 64, 93
1, 162415, Control_c, 0, 64, 93
1, 162452, Control_c, 0, 64, 92
1, 162497, Control_c, 0, 64, 92
1, 162511, Control_c, 0, 64, 90
1, 162526, Control_c, 0, 64, 89
1, 162541, Control_c, 0, 64, 88
1, 162556, Control_c, 0, 64, 86
1, 162570, Control_c, 0, 64, 81
1, 162585, Control_c, 0, 64, 73
1, 162594, Note_on_c, 0, 74, 80
1, 162600, Control_c, 0, 64, 64
1, 162610, Note_on_c, 0, 69, 55
1, 162615, Control_c, 0, 64, 55
1, 162619, Note_on_c, 0, 66, 50
1, 162630, Control_c, 0, 64, 41
1, 162632, Note_on_c, 0, 62, 50
1, 162640, Note_on_c, 0, 57, 45
1, 162644, Control_c, 0, 64, 27
1, 162655, Note_on_c, 0, 54, 50
1, 162659, Control_c, 0, 64, 13
1, 162675, Control_c, 0, 64, 0
1, 162735, Control_c, 0, 64, 14
1, 162749, Control_c, 0, 64, 33
1, 162764, Control_c, 0, 64, 46
1, 162779, Control_c, 0, 64, 57
1, 162793, Control_c, 0, 64, 66
1, 162808, Control_c, 0, 64, 71
1, 162838, Control_c, 0, 64, 72
1, 162853, Control_c, 0, 64, 74
1, 162854, Note_off_c, 0, 62, 36
1, 162867, Control_c, 0, 64, 76
1, 162882, Control_c, 0, 64, 79
1, 162897, Control_c, 0, 64, 81
1, 162912, Control_c, 0, 64, 82
1, 162927, Control_c, 0, 64, 83
1, 162933, Note_off_c, 0, 74, 60
1, 162935, Note_off_c, 0, 57, 39
1, 162941, Control_c, 0, 64, 84
1, 162956, Control_c, 0, 64, 86
1, 162959, Note_off_c, 0, 66, 35
1, 162971, Control_c, 0, 64, 88
1, 162983, Note_off_c, 0, 54, 55
1, 162985, Control_c, 0, 64, 90
1, 163000, Control_c, 0, 64, 91
1, 163003, Note_off_c, 0, 69, 59
1, 163015, Control_c, 0, 64, 93
1, 163030, Control_c, 0, 64, 94
1, 163045, Control_c, 0, 64, 96
1, 163060, Control_c, 0, 64, 97
1, 163075, Control_c, 0, 64, 99
1, 163090, Control_c, 0, 64, 99
1, 163105, Control_c, 0, 64, 100
1, 163334, Control_c, 0, 64, 99
1, 163364, Control_c, 0, 64, 99
1, 163393, Control_c, 0, 64, 98
1, 163408, Control_c, 0, 64, 98
1, 163438, Control_c, 0, 64, 97
1, 163468, Control_c, 0, 64, 97
1, 163483, Control_c, 0, 64, 96
1, 163498, Control_c, 0, 64, 95
1, 163513, Control_c, 0, 64, 95
1, 163528, Control_c, 0, 64, 94
1, 163543, Control_c, 0, 64, 93
1, 163549, Note_on_c, 0, 62, 49
1, 163558, Control_c, 0, 64, 93
1, 163568, Note_on_c, 0, 57, 36
1, 163572, Control_c, 0, 64, 92
1, 163587, Control_c, 0, 64, 92
1, 163589, Note_on_c, 0, 54, 46
1, 163597, Note_on_c, 0, 38, 46
1, 163605, Note_on_c, 0, 45, 31
1, 163661, Control_c, 0, 64, 91
1, 163667, Poly_aftertouch_c, 0, 50, 127
1, 163719, Note_off_c, 0, 54, 55
1, 163750, Control_c, 0, 64, 91
1, 163767, Note_off_c, 0, 57, 40
1, 163775, Poly_aftertouch_c, 0, 50, 0
1, 163778, Note_off_c, 0, 45, 43
1, 163794, Control_c, 0, 64, 90
1, 163804, Note_off_c, 0, 38, 39
1, 163808, Control_c, 0, 64, 90
1, 163810, Note_off_c, 0, 62, 33
1, 163823, Control_c, 0, 64, 89
1, 163853, Control_c, 0, 64, 89
1, 163868, Control_c, 0, 64, 88
1, 163927, Control_c, 0, 64, 88
1, 163978, Control_c, 0, 64, 87
1, 163993, Control_c, 0, 64, 86
1, 164008, Control_c, 0, 64, 85
1, 164023, Control_c, 0, 64, 84
1, 164038, Control_c, 0, 64, 83
1, 164053, Control_c, 0, 64, 83
1, 164082, Control_c, 0, 64, 82
1, 164097, Control_c, 0, 64, 81
1, 164127, Control_c, 0, 64, 81
1, 164141, Control_c, 0, 64, 80
1, 164171, Control_c, 0, 64, 79
1, 164186, Control_c, 0, 64, 78
1, 164201, Control_c, 0, 64, 77
1, 164215, Control_c, 0, 64, 76
1, 164230, Control_c, 0, 64, 74
1, 164245, Control_c, 0, 64, 74
1, 164261, Control_c, 0, 64, 72
1, 164276, Control_c, 0, 64, 71
1, 164291, Control_c, 0, 64, 70
1, 164306, Control_c, 0, 64, 69
1, 164314, Note_on_c, 0, 73, 45
1, 164320, Control_c, 0, 64, 69
1, 164335, Control_c, 0, 64, 68
1, 164350, Control_c, 0, 64, 67
1, 164363, Note_on_c, 0, 61, 28
1, 164364, Control_c, 0, 64, 67
1, 164379, Control_c, 0, 64, 66
1, 164394, Control_c, 0, 64, 66
1, 164424, Control_c, 0, 64, 65
1, 164453, Control_c, 0, 64, 65
1, 164467, Note_off_c, 0, 73, 42
1, 164468, Control_c, 0, 64, 64
1, 164470, Note_on_c, 0, 72, 46
1, 164479, Note_on_c, 0, 60, 49
1, 164512, Control_c, 0, 64, 64
1, 164542, Control_c, 0, 64, 63
1, 164547, Note_off_c, 0, 61, 35
1, 164616, Control_c, 0, 64, 63
1, 164726, Control_c, 0, 64, 62
1, 164756, Note_off_c, 0, 60, 37
1, 164768, Note_on_c, 0, 54, 49
1, 164771, Control_c, 0, 64, 62
1, 164786, Control_c, 0, 64, 61
1, 164801, Control_c, 0, 64, 60
1, 164816, Control_c, 0, 64, 58
1, 164831, Control_c, 0, 64, 56
1, 164845, Control_c, 0, 64, 55
1, 164860, Control_c, 0, 64, 54
1, 164875, Control_c, 0, 64, 53
1, 164890, Control_c, 0, 64, 51
1, 164905, Control_c, 0, 64, 49
1, 164919, Control_c, 0, 64, 47
1, 164934, Control_c, 0, 64, 44
1, 164935, Note_on_c, 0, 74, 44
1, 164938, Note_on_c, 0, 66, 48
1, 164946, Note_off_c, 0, 72, 39
1, 164949, Control_c, 0, 64, 40
1, 164952, Note_on_c, 0, 71, 51
1, 164957, Note_on_c, 0, 62, 30
1, 164963, Control_c, 0, 64, 32
1, 164972, Note_on_c, 0, 59, 35
1, 164978, Control_c, 0, 64, 17
1, 164993, Control_c, 0, 64, 0
1, 165083, Control_c, 0, 64, 21
1, 165098, Control_c, 0, 64, 41
1, 165113, Control_c, 0, 64, 58
1, 165128, Control_c, 0, 64, 73
1, 165142, Control_c, 0, 64, 83
1, 165157, Control_c, 0, 64, 84
1, 165172, Control_c, 0, 64, 92
1, 165186, Control_c, 0, 64, 101
1, 165201, Control_c, 0, 64, 127
1, 165206, Note_off_c, 0, 62, 46
1, 165245, Note_off_c, 0, 59, 41
1, 165253, Note_off_c, 0, 74, 42
1, 165254, Note_off_c, 0, 71, 47
1, 165286, Note_off_c, 0, 54, 42
1, 165333, Note_off_c, 0, 66, 40
1, 165379, Control_c, 0, 64, 119
1, 165394, Control_c, 0, 64, 109
1, 165409, Control_c, 0, 64, 104
1, 165424, Control_c, 0, 64, 101
1, 165447, Control_c, 0, 64, 99
1, 165461, Control_c, 0, 64, 97
1, 165476, Control_c, 0, 64, 95
1, 165491, Control_c, 0, 64, 93
1, 165506, Control_c, 0, 64, 92
1, 165521, Control_c, 0, 64, 91
1, 165535, Control_c, 0, 64, 91
1, 165550, Control_c, 0, 64, 90
1, 165565, Control_c, 0, 64, 89
1, 165580, Control_c, 0, 64, 88
1, 165594, Control_c, 0, 64, 88
1, 165609, Control_c, 0, 64, 87
1, 165639, Control_c, 0, 64, 87
1, 165668, Control_c, 0, 64, 86
1, 165683, Control_c, 0, 64, 86
1, 165698, Control_c, 0, 64, 85
1, 165728, Control_c, 0, 64, 85
1, 165743, Control_c, 0, 64, 84
1, 165758, Control_c, 0, 64, 84
1, 165773, Control_c, 0, 64, 83
1, 165787, Control_c, 0, 64, 83
1, 165802, Control_c, 0, 64, 82
1, 165817, Control_c, 0, 64, 82
1, 165832, Control_c, 0, 64, 81
1, 165847, Control_c, 0, 64, 81
1, 165862, Control_c, 0, 64, 80
1, 165877, Control_c, 0, 64, 79
1, 165892, Control_c, 0, 64, 77
1, 165907, Control_c, 0, 64, 77
1, 165922, Control_c, 0, 64, 76
1, 165937, Control_c, 0, 64, 76
1, 165951, Control_c, 0, 64, 75
1, 165966, Control_c, 0, 64, 75
1, 165981, Control_c, 0, 64, 73
1, 165996, Control_c, 0, 64, 72
1, 166010, Control_c, 0, 64, 71
1, 166040, Note_on_c, 0, 62, 36
1, 166040, Control_c, 0, 64, 70
1, 166055, Control_c, 0, 64, 69
1, 166065, Note_on_c, 0, 47, 24
1, 166066, Note_on_c, 0, 54, 29
1, 166070, Control_c, 0, 64, 68
1, 166078, Note_on_c, 0, 35, 33
1, 166084, Control_c, 0, 64, 67
1, 166115, Poly_aftertouch_c, 0, 59, 127
1, 166172, Control_c, 0, 64, 67
1, 166342, Control_c, 0, 64, 67
1, 166387, Control_c, 0, 64, 68
1, 166431, Control_c, 0, 64, 68
1, 166446, Control_c, 0, 64, 69
1, 166476, Control_c, 0, 64, 69
1, 166580, Control_c, 0, 64, 70
1, 166600, Note_off_c, 0, 54, 43
1, 166714, Control_c, 0, 64, 70
1, 166739, Note_off_c, 0, 35, 40
1, 166742, Poly_aftertouch_c, 0, 59, 0
1, 166807, Note_off_c, 0, 47, 43
1, 166828, Note_off_c, 0, 62, 44
1, 167210, Control_c, 0, 67, 122
1, 167225, Control_c, 0, 67, 113
1, 167239, Control_c, 0, 67, 103
1, 167254, Control_c, 0, 67, 94
1, 167269, Control_c, 0, 67, 85
1, 167284, Control_c, 0, 67, 81
1, 167299, Control_c, 0, 67, 79
1, 167314, Control_c, 0, 64, 69
1, 167314, Control_c, 0, 67, 78
1, 167329, Control_c, 0, 64, 67
1, 167329, Control_c, 0, 67, 76
1, 167344, Control_c, 0, 64, 65
1, 167344, Control_c, 0, 67, 74
1, 167358, Control_c, 0, 64, 62
1, 167358, Control_c, 0, 67, 72
1, 167373, Control_c, 0, 64, 59
1, 167373, Control_c, 0, 67, 70
1, 167379, Note_on_c, 0, 71, 90
1, 167388, Control_c, 0, 64, 55
1, 167388, Control_c, 0, 67, 69
1, 167403, Control_c, 0, 64, 49
1, 167403, Control_c, 0, 67, 69
1, 167415, Note_on_c, 0, 55, 51
1, 167418, Control_c, 0, 64, 42
1, 167419, Note_on_c, 0, 67, 33
1, 167432, Control_c, 0, 64, 36
1, 167435, Note_on_c, 0, 59, 45
1, 167447, Control_c, 0, 64, 31
1, 167447, Control_c, 0, 67, 68
1, 167463, Control_c, 0, 64, 28
1, 167463, Control_c, 0, 67, 68
1, 167466, Note_off_c, 0, 67, 0
1, 167466, Note_on_c, 0, 67, 23
1, 167478, Control_c, 0, 64, 27
1, 167478, Control_c, 0, 67, 67
1, 167493, Control_c, 0, 64, 28
1, 167493, Control_c, 0, 67, 66
1, 167507, Control_c, 0, 64, 35
1, 167522, Control_c, 0, 64, 41
1, 167537, Control_c, 0, 64, 49
1, 167552, Control_c, 0, 64, 58
1, 167552, Control_c, 0, 67, 65
1, 167567, Control_c, 0, 64, 67
1, 167567, Control_c, 0, 67, 64
1, 167581, Control_c, 0, 64, 71
1, 167581, Control_c, 0, 67, 59
1, 167596, Control_c, 0, 64, 72
1, 167596, Control_c, 0, 67, 54
1, 167611, Control_c, 0, 64, 76
1, 167611, Control_c, 0, 67, 52
1, 167626, Control_c, 0, 64, 79
1, 167626, Control_c, 0, 67, 50
1, 167641, Control_c, 0, 64, 81
1, 167641, Control_c, 0, 67, 48
1, 167655, Control_c, 0, 64, 83
1, 167655, Control_c, 0, 67, 45
1, 167670, Control_c, 0, 64, 86
1, 167670, Control_c, 0, 67, 41
1, 167692, Control_c, 0, 64, 89
1, 167692, Control_c, 0, 67, 37
1, 167707, Control_c, 0, 64, 92
1, 167707, Control_c, 0, 67, 36
1, 167722, Control_c, 0, 64, 94
1, 167722, Control_c, 0, 67, 35
1, 167737, Control_c, 0, 64, 96
1, 167752, Control_c, 0, 64, 97
1, 167765, Note_off_c, 0, 71, 60
1, 167767, Control_c, 0, 64, 98
1, 167781, Control_c, 0, 64, 99
1, 167796, Control_c, 0, 64, 99
1, 167814, Note_off_c, 0, 59, 34
1, 167840, Note_off_c, 0, 55, 43
1, 167841, Control_c, 0, 64, 98
1, 167851, Note_off_c, 0, 67, 44
1, 167856, Control_c, 0, 64, 97
1, 167870, Control_c, 0, 64, 97
1, 167885, Control_c, 0, 64, 96
1, 167900, Control_c, 0, 64, 94
1, 167914, Control_c, 0, 64, 92
1, 167929, Control_c, 0, 64, 90
1, 167944, Control_c, 0, 64, 86
1, 167959, Control_c, 0, 64, 81
1, 167967, Note_on_c, 0, 72, 90
1, 167974, Control_c, 0, 64, 75
1, 167979, Note_on_c, 0, 64, 72
1, 167982, Note_on_c, 0, 52, 70
1, 167984, Note_on_c, 0, 60, 61
1, 167989, Control_c, 0, 64, 67
1, 167989, Control_c, 0, 67, 35
1, 168004, Control_c, 0, 64, 61
1, 168019, Control_c, 0, 64, 55
1, 168019, Control_c, 0, 67, 34
1, 168034, Control_c, 0, 64, 49
1, 168034, Control_c, 0, 67, 33
1, 168041, Note_off_c, 0, 64, 44
1, 168049, Control_c, 0, 64, 46
1, 168049, Control_c, 0, 67, 32
1, 168063, Control_c, 0, 64, 43
1, 168063, Control_c, 0, 67, 31
1, 168076, Note_off_c, 0, 60, 36
1, 168078, Control_c, 0, 64, 38
1, 168078, Control_c, 0, 67, 30
1, 168093, Control_c, 0, 64, 30
1, 168093, Control_c, 0, 67, 29
1, 168098, Note_on_c, 0, 71, 87
1, 168100, Note_on_c, 0, 59, 73
1, 168103, Note_on_c, 0, 55, 72
1, 168105, Note_on_c, 0, 67, 81
1, 168107, Control_c, 0, 64, 13
1, 168107, Control_c, 0, 67, 26
1, 168122, Control_c, 0, 64, 0
1, 168122, Control_c, 0, 67, 23
1, 168137, Control_c, 0, 67, 19
1, 168152, Note_off_c, 0, 72, 52
1, 168152, Control_c, 0, 67, 15
1, 168167, Control_c, 0, 67, 13
1, 168177, Note_off_c, 0, 52, 52
1, 168181, Control_c, 0, 67, 11
1, 168196, Control_c, 0, 67, 0
1, 168211, Control_c, 0, 64, 16
1, 168226, Control_c, 0, 64, 43
1, 168241, Control_c, 0, 64, 61
1, 168257, Control_c, 0, 64, 77
1, 168272, Control_c, 0, 64, 78
1, 168286, Control_c, 0, 64, 80
1, 168301, Control_c, 0, 64, 82
1, 168316, Control_c, 0, 64, 84
1, 168331, Control_c, 0, 64, 84
1, 168346, Control_c, 0, 64, 84
1, 168358, Note_on_c, 0, 52, 81
1, 168360, Control_c, 0, 64, 79
1, 168375, Control_c, 0, 64, 74
1, 168390, Control_c, 0, 64, 66
1, 168405, Control_c, 0, 64, 57
1, 168420, Control_c, 0, 64, 39
1, 168437, Note_off_c, 0, 59, 59
1, 168442, Control_c, 0, 64, 0
1, 168482, Note_on_c, 0, 72, 89
1, 168490, Note_on_c, 0, 64, 71
1, 168498, Note_off_c, 0, 71, 63
1, 168504, Note_on_c, 0, 60, 82
1, 168530, Control_c, 0, 64, 18
1, 168545, Control_c, 0, 64, 45
1, 168560, Control_c, 0, 64, 65
1, 168575, Control_c, 0, 64, 76
1, 168604, Control_c, 0, 64, 80
1, 168608, Note_off_c, 0, 52, 61
1, 168610, Note_off_c, 0, 60, 64
1, 168619, Control_c, 0, 64, 86
1, 168628, Note_off_c, 0, 55, 65
1, 168634, Control_c, 0, 64, 91
1, 168649, Control_c, 0, 64, 101
1, 168664, Control_c, 0, 64, 122
1, 168679, Control_c, 0, 64, 127
1, 168771, Note_off_c, 0, 72, 57
1, 168830, Note_off_c, 0, 67, 59
1, 168841, Note_off_c, 0, 64, 61
1, 168930, Control_c, 0, 67, 8
1, 168945, Control_c, 0, 67, 8
1, 168960, Control_c, 0, 67, 9
1, 169056, Note_on_c, 0, 36, 78
1, 169065, Control_c, 0, 67, 9
1, 169078, Note_on_c, 0, 43, 82
1, 169080, Control_c, 0, 67, 10
1, 169095, Control_c, 0, 67, 10
1, 169110, Control_c, 0, 67, 12
1, 169123, Note_off_c, 0, 36, 66
1, 169125, Control_c, 0, 67, 13
1, 169134, Note_off_c, 0, 43, 65
1, 169140, Control_c, 0, 67, 14
1, 169145, Note_on_c, 0, 52, 82
1, 169154, Control_c, 0, 67, 15
1, 169192, Control_c, 0, 67, 15
1, 169217, Note_on_c, 0, 60, 73
1, 169221, Control_c, 0, 67, 15
1, 169251, Control_c, 0, 67, 14
1, 169266, Control_c, 0, 67, 14
1, 169304, Note_on_c, 0, 64, 86
1, 169310, Control_c, 0, 67, 15
1, 169325, Control_c, 0, 67, 15
1, 169340, Control_c, 0, 67, 16
1, 169354, Control_c, 0, 67, 17
1, 169369, Control_c, 0, 67, 17
1, 169399, Control_c, 0, 67, 18
1, 169428, Control_c, 0, 67, 18
1, 169443, Control_c, 0, 67, 19
1, 169458, Control_c, 0, 67, 20
1, 169473, Control_c, 0, 67, 20
1, 169488, Control_c, 0, 67, 21
1, 169502, Control_c, 0, 67, 21
1, 169517, Control_c, 0, 67, 22
1, 169532, Control_c, 0, 67, 23
1, 169547, Control_c, 0, 67, 25
1, 169561, Control_c, 0, 67, 26
1, 169576, Control_c, 0, 67, 27
1, 169591, Control_c, 0, 67, 29
1, 169606, Control_c, 0, 67, 30
1, 169621, Control_c, 0, 67, 31
1, 169636, Control_c, 0, 67, 33
1, 169651, Control_c, 0, 67, 35
1, 169666, Control_c, 0, 67, 36
1, 169680, Control_c, 0, 67, 37
1, 169695, Control_c, 0, 67, 38
1, 169710, Control_c, 0, 67, 39
1, 169725, Control_c, 0, 67, 40
1, 169740, Control_c, 0, 67, 41
1, 169754, Control_c, 0, 67, 42
1, 169769, Control_c, 0, 67, 44
1, 169784, Control_c, 0, 67, 45
1, 169799, Control_c, 0, 67, 45
1, 169814, Control_c, 0, 67, 46
1, 169828, Control_c, 0, 67, 46
1, 169843, Control_c, 0, 67, 47
1, 169859, Control_c, 0, 67, 49
1, 169874, Control_c, 0, 67, 49
1, 169889, Control_c, 0, 67, 50
1, 169902, Note_off_c, 0, 52, 52
1, 169904, Control_c, 0, 67, 51
1, 169919, Control_c, 0, 67, 52
1, 169970, Control_c, 0, 67, 52
1, 169985, Control_c, 0, 67, 53
1, 170014, Control_c, 0, 67, 53
1, 170074, Control_c, 0, 67, 53
1, 170100, Note_off_c, 0, 60, 57
1, 170148, Control_c, 0, 67, 53
1, 170187, Note_off_c, 0, 64, 57
1, 170207, Control_c, 0, 67, 54
1, 170237, Control_c, 0, 67, 54
1, 170251, Control_c, 0, 67, 56
1, 170266, Control_c, 0, 67, 59
1, 170281, Control_c, 0, 67, 60
1, 170310, Control_c, 0, 67, 61
1, 170325, Control_c, 0, 64, 114
1, 170325, Control_c, 0, 67, 63
1, 170340, Control_c, 0, 64, 108
1, 170340, Control_c, 0, 67, 66
1, 170355, Control_c, 0, 64, 105
1, 170355, Control_c, 0, 67, 70
1, 170370, Control_c, 0, 64, 101
1, 170370, Control_c, 0, 67, 75
1, 170384, Control_c, 0, 64, 98
1, 170384, Control_c, 0, 67, 79
1, 170399, Control_c, 0, 64, 95
1, 170399, Control_c, 0, 67, 83
1, 170414, Control_c, 0, 64, 92
1, 170414, Control_c, 0, 67, 88
1, 170429, Control_c, 0, 64, 91
1, 170429, Control_c, 0, 67, 91
1, 170444, Control_c, 0, 67, 94
1, 170459, Control_c, 0, 67, 97
1, 170473, Control_c, 0, 67, 99
1, 170488, Control_c, 0, 64, 90
1, 170488, Control_c, 0, 67, 101
1, 170503, Control_c, 0, 64, 90
1, 170503, Control_c, 0, 67, 102
1, 170518, Control_c, 0, 67, 104
1, 170533, Control_c, 0, 64, 89
1, 170533, Control_c, 0, 67, 105
1, 170548, Control_c, 0, 67, 108
1, 170563, Control_c, 0, 67, 110
1, 170577, Control_c, 0, 64, 88
1, 170577, Control_c, 0, 67, 113
1, 170592, Control_c, 0, 64, 87
1, 170592, Control_c, 0, 67, 117
1, 170606, Control_c, 0, 64, 85
1, 170606, Control_c, 0, 67, 121
1, 170621, Control_c, 0, 64, 83
1, 170621, Control_c, 0, 67, 127
1, 170636, Control_c, 0, 64, 82
1, 170636, Control_c, 0, 67, 127
1, 170652, Control_c, 0, 64, 81
1, 170667, Control_c, 0, 64, 80
1, 170688, Control_c, 0, 64, 79
1, 170703, Control_c, 0, 64, 78
1, 170718, Control_c, 0, 64, 76
1, 170733, Control_c, 0, 64, 75
1, 170739, Note_on_c, 0, 71, 88
1, 170748, Control_c, 0, 64, 75
1, 170763, Control_c, 0, 64, 74
1, 170775, Note_on_c, 0, 67, 52
1, 170778, Control_c, 0, 64, 73
1, 170792, Control_c, 0, 64, 72
1, 170793, Note_on_c, 0, 59, 50
1, 170798, Note_on_c, 0, 52, 57
1, 170804, Note_on_c, 0, 55, 46
1, 170807, Control_c, 0, 64, 71
1, 170822, Control_c, 0, 64, 70
1, 170896, Control_c, 0, 64, 70
1, 170925, Control_c, 0, 64, 69
1, 170970, Control_c, 0, 64, 69
1, 170999, Control_c, 0, 64, 68
1, 171023, Note_off_c, 0, 59, 33
1, 171029, Control_c, 0, 64, 68
1, 171073, Control_c, 0, 64, 67
1, 171088, Control_c, 0, 64, 67
1, 171118, Control_c, 0, 64, 66
1, 171147, Control_c, 0, 64, 66
1, 171162, Control_c, 0, 64, 65
1, 171177, Control_c, 0, 64, 64
1, 171192, Control_c, 0, 64, 63
1, 171207, Control_c, 0, 64, 63
1, 171222, Control_c, 0, 64, 62
1, 171237, Control_c, 0, 64, 61
1, 171251, Control_c, 0, 64, 59
1, 171266, Control_c, 0, 64, 57
1, 171281, Control_c, 0, 64, 54
1, 171296, Control_c, 0, 64, 52
1, 171301, Note_on_c, 0, 69, 69
1, 171311, Control_c, 0, 64, 49
1, 171314, Note_off_c, 0, 71, 63
1, 171325, Note_on_c, 0, 64, 29
1, 171326, Control_c, 0, 64, 41
1, 171329, Note_on_c, 0, 57, 44
1, 171335, Note_on_c, 0, 48, 43
1, 171341, Control_c, 0, 64, 25
1, 171356, Control_c, 0, 64, 0
1, 171407, Note_off_c, 0, 67, 54
1, 171483, Control_c, 0, 64, 21
1, 171498, Control_c, 0, 64, 33
1, 171512, Control_c, 0, 64, 42
1, 171527, Control_c, 0, 64, 54
1, 171542, Control_c, 0, 64, 61
1, 171556, Control_c, 0, 64, 64
1, 171571, Control_c, 0, 64, 64
1, 171601, Control_c, 0, 64, 65
1, 171616, Control_c, 0, 64, 65
1, 171630, Control_c, 0, 64, 66
1, 171645, Control_c, 0, 64, 66
1, 171651, Note_off_c, 0, 57, 36
1, 171653, Note_off_c, 0, 64, 41
1, 171654, Note_off_c, 0, 69, 62
1, 171660, Note_off_c, 0, 55, 39
1, 171662, Note_off_c, 0, 52, 43
1, 171667, Note_off_c, 0, 48, 44
1, 171675, Control_c, 0, 64, 67
1, 171690, Control_c, 0, 64, 67
1, 171719, Control_c, 0, 64, 68
1, 171764, Control_c, 0, 64, 68
1, 171839, Note_on_c, 0, 59, 50
1, 171841, Note_on_c, 0, 71, 59
1, 171853, Control_c, 0, 64, 68
1, 171863, Note_on_c, 0, 52, 52
1, 171868, Control_c, 0, 64, 67
1, 171870, Note_on_c, 0, 55, 35
1, 171873, Note_off_c, 0, 59, 62
1, 171883, Control_c, 0, 64, 64
1, 171897, Control_c, 0, 64, 59
1, 171912, Control_c, 0, 64, 47
1, 171919, Note_on_c, 0, 67, 4
1, 171927, Control_c, 0, 64, 34
1, 171942, Control_c, 0, 64, 21
1, 171952, Note_off_c, 0, 52, 0
1, 171954, Note_off_c, 0, 71, 58
1, 171955, Note_on_c, 0, 69, 67
1, 171956, Control_c, 0, 64, 0
1, 171967, Note_on_c, 0, 48, 47
1, 171971, Note_on_c, 0, 64, 51
1, 171972, Note_off_c, 0, 67, 41
1, 171984, Note_on_c, 0, 57, 44
1, 171990, Poly_aftertouch_c, 0, 52, 127
1, 171995, Note_on_c, 0, 52, 7
1, 172030, Control_c, 0, 64, 27
1, 172045, Control_c, 0, 64, 41
1, 172047, Note_off_c, 0, 64, 0
1, 172047, Note_on_c, 0, 64, 12
1, 172060, Control_c, 0, 64, 52
1, 172074, Control_c, 0, 64, 62
1, 172089, Control_c, 0, 64, 69
1, 172105, Control_c, 0, 64, 70
1, 172120, Control_c, 0, 64, 71
1, 172135, Control_c, 0, 64, 72
1, 172149, Control_c, 0, 64, 72
1, 172159, Note_off_c, 0, 57, 49
1, 172164, Control_c, 0, 64, 73
1, 172177, Note_off_c, 0, 48, 57
1, 172198, Note_off_c, 0, 55, 44
1, 172205, Note_off_c, 0, 52, 41
1, 172307, Control_c, 0, 64, 72
1, 172322, Control_c, 0, 64, 72
1, 172336, Control_c, 0, 64, 71
1, 172341, Note_off_c, 0, 69, 60
1, 172351, Control_c, 0, 64, 69
1, 172363, Note_on_c, 0, 71, 61
1, 172366, Control_c, 0, 64, 67
1, 172380, Control_c, 0, 64, 60
1, 172391, Note_on_c, 0, 67, 45
1, 172395, Control_c, 0, 64, 49
1, 172410, Control_c, 0, 64, 30
1, 172413, Note_on_c, 0, 55, 33
1, 172415, Note_on_c, 0, 52, 46
1, 172417, Note_on_c, 0, 59, 32
1, 172425, Control_c, 0, 64, 0
1, 172513, Control_c, 0, 64, 20
1, 172528, Control_c, 0, 64, 36
1, 172543, Control_c, 0, 64, 48
1, 172558, Control_c, 0, 64, 60
1, 172572, Control_c, 0, 64, 70
1, 172587, Control_c, 0, 64, 72
1, 172602, Control_c, 0, 64, 73
1, 172617, Control_c, 0, 64, 75
1, 172632, Control_c, 0, 64, 76
1, 172634, Note_off_c, 0, 71, 39
1, 172639, Note_off_c, 0, 59, 42
1, 172647, Control_c, 0, 64, 78
1, 172661, Note_off_c, 0, 55, 43
1, 172661, Control_c, 0, 64, 80
1, 172676, Control_c, 0, 64, 81
1, 172691, Control_c, 0, 64, 82
1, 172694, Note_off_c, 0, 52, 54
1, 172706, Control_c, 0, 64, 83
1, 172712, Note_off_c, 0, 67, 43
1, 172721, Control_c, 0, 64, 84
1, 172736, Control_c, 0, 64, 84
1, 172751, Control_c, 0, 64, 85
1, 172752, Note_off_c, 0, 64, 48
1, 172951, Control_c, 0, 64, 84
1, 172965, Control_c, 0, 64, 84
1, 172995, Control_c, 0, 64, 83
1, 173115, Control_c, 0, 64, 83
1, 173144, Control_c, 0, 64, 82
1, 173159, Control_c, 0, 64, 82
1, 173189, Control_c, 0, 64, 81
1, 173233, Control_c, 0, 64, 81
1, 173248, Control_c, 0, 64, 80
1, 173263, Control_c, 0, 64, 80
1, 173277, Control_c, 0, 64, 79
1, 173292, Control_c, 0, 64, 79
1, 173303, Note_on_c, 0, 64, 45
1, 173307, Control_c, 0, 64, 78
1, 173321, Control_c, 0, 64, 78
1, 173336, Note_on_c, 0, 55, 28
1, 173336, Control_c, 0, 64, 77
1, 173341, Note_on_c, 0, 59, 35
1, 173351, Control_c, 0, 64, 77
1, 173353, Note_on_c, 0, 40, 37
1, 173364, Note_on_c, 0, 47, 32
1, 173365, Note_on_c, 0, 52, 17
1, 173381, Control_c, 0, 64, 76
1, 173410, Control_c, 0, 64, 76
1, 173425, Control_c, 0, 64, 75
1, 173440, Control_c, 0, 64, 75
1, 173529, Control_c, 0, 64, 74
1, 173723, Note_off_c, 0, 40, 38
1, 173738, Note_off_c, 0, 47, 39
1, 173788, Control_c, 0, 64, 74
1, 173800, Note_off_c, 0, 64, 36
1, 173851, Note_off_c, 0, 55, 33
1, 173988, Note_off_c, 0, 59, 22
1, 174030, Note_off_c, 0, 52, 37
1, 174396, Control_c, 0, 64, 73
1, 174462, Control_c, 0, 64, 72
1, 174477, Control_c, 0, 64, 72
1, 174492, Control_c, 0, 64, 71
1, 174507, Control_c, 0, 64, 70
1, 174522, Control_c, 0, 64, 69
1, 174536, Control_c, 0, 64, 68
1, 174551, Control_c, 0, 64, 66
1, 174566, Control_c, 0, 64, 64
1, 174581, Control_c, 0, 64, 62
1, 174596, Control_c, 0, 64, 60
1, 174611, Note_on_c, 0, 69, 54
1, 174611, Control_c, 0, 64, 57
1, 174620, Note_on_c, 0, 64, 42
1, 174625, Control_c, 0, 64, 53
1, 174640, Control_c, 0, 64, 48
1, 174656, Control_c, 0, 64, 43
1, 174660, Note_on_c, 0, 57, 31
1, 174663, Note_on_c, 0, 48, 40
1, 174671, Control_c, 0, 64, 38
1, 174685, Control_c, 0, 64, 35
1, 174700, Control_c, 0, 64, 34
1, 174730, Control_c, 0, 64, 39
1, 174745, Control_c, 0, 64, 46
1, 174760, Control_c, 0, 64, 55
1, 174774, Control_c, 0, 64, 64
1, 174789, Control_c, 0, 64, 67
1, 174804, Control_c, 0, 64, 67
1, 174819, Control_c, 0, 64, 69
1, 174834, Control_c, 0, 64, 71
1, 174848, Control_c, 0, 64, 72
1, 174863, Control_c, 0, 64, 73
1, 174878, Control_c, 0, 64, 74
1, 174878, Control_c, 0, 67, 122
1, 174892, Control_c, 0, 64, 75
1, 174892, Control_c, 0, 67, 113
1, 174894, Note_off_c, 0, 57, 40
1, 174900, Note_off_c, 0, 69, 38
1, 174907, Control_c, 0, 64, 75
1, 174907, Control_c, 0, 67, 103
1, 174922, Control_c, 0, 64, 76
1, 174922, Control_c, 0, 67, 96
1, 174934, Poly_aftertouch_c, 0, 62, 127
1, 174937, Control_c, 0, 67, 92
1, 174952, Control_c, 0, 64, 76
1, 174952, Control_c, 0, 67, 91
1, 174981, Control_c, 0, 67, 91
1, 174996, Control_c, 0, 67, 90
1, 175011, Control_c, 0, 67, 89
1, 175026, Control_c, 0, 67, 87
1, 175035, Note_off_c, 0, 48, 33
1, 175040, Control_c, 0, 64, 76
1, 175040, Control_c, 0, 67, 85
1, 175055, Control_c, 0, 64, 74
1, 175055, Control_c, 0, 67, 84
1, 175066, Poly_aftertouch_c, 0, 62, 0
1, 175070, Control_c, 0, 64, 72
1, 175070, Control_c, 0, 67, 82
1, 175083, Note_on_c, 0, 67, 70
1, 175085, Control_c, 0, 64, 68
1, 175085, Control_c, 0, 67, 82
1, 175100, Control_c, 0, 64, 62
1, 175100, Note_on_c, 0, 59, 49
1, 175115, Control_c, 0, 64, 54
1, 175115, Control_c, 0, 67, 81
1, 175117, Note_on_c, 0, 55, 52
1, 175121, Note_on_c, 0, 52, 58
1, 175130, Control_c, 0, 64, 46
1, 175145, Control_c, 0, 64, 41
1, 175159, Control_c, 0, 64, 36
1, 175159, Control_c, 0, 67, 80
1, 175181, Control_c, 0, 64, 32
1, 175181, Control_c, 0, 67, 79
1, 175196, Control_c, 0, 64, 30
1, 175196, Control_c, 0, 67, 77
1, 175211, Control_c, 0, 64, 31
1, 175211, Control_c, 0, 67, 73
1, 175226, Control_c, 0, 64, 38
1, 175226, Control_c, 0, 67, 69
1, 175241, Control_c, 0, 64, 51
1, 175241, Control_c, 0, 67, 63
1, 175255, Control_c, 0, 64, 65
1, 175255, Control_c, 0, 67, 55
1, 175270, Control_c, 0, 64, 71
1, 175270, Control_c, 0, 67, 45
1, 175285, Control_c, 0, 67, 39
1, 175300, Control_c, 0, 64, 73
1, 175300, Control_c, 0, 67, 35
1, 175314, Control_c, 0, 64, 77
1, 175314, Control_c, 0, 67, 32
1, 175318, Note_off_c, 0, 64, 40
1, 175329, Control_c, 0, 64, 80
1, 175329, Control_c, 0, 67, 29
1, 175344, Control_c, 0, 64, 83
1, 175344, Control_c, 0, 67, 26
1, 175359, Control_c, 0, 64, 87
1, 175359, Control_c, 0, 67, 23
1, 175371, Note_off_c, 0, 52, 63
1, 175374, Control_c, 0, 64, 91
1, 175374, Control_c, 0, 67, 21
1, 175389, Control_c, 0, 64, 94
1, 175389, Control_c, 0, 67, 20
1, 175404, Control_c, 0, 64, 98
1, 175404, Control_c, 0, 67, 19
1, 175418, Control_c, 0, 64, 103
1, 175418, Control_c, 0, 67, 18
1, 175433, Control_c, 0, 64, 111
1, 175437, Note_off_c, 0, 67, 52
1, 175449, Control_c, 0, 64, 127
1, 175491, Note_off_c, 0, 59, 40
1, 175572, Note_off_c, 0, 55, 33
1, 175597, Control_c, 0, 64, 113
1, 175612, Control_c, 0, 64, 105
1, 175621, Note_on_c, 0, 66, 83
1, 175627, Control_c, 0, 64, 96
1, 175633, Note_on_c, 0, 54, 65
1, 175642, Control_c, 0, 64, 84
1, 175645, Note_on_c, 0, 47, 55
1, 175657, Control_c, 0, 64, 73
1, 175671, Control_c, 0, 64, 64
1, 175671, Control_c, 0, 67, 18
1, 175686, Control_c, 0, 64, 55
1, 175686, Control_c, 0, 67, 19
1, 175701, Control_c, 0, 64, 44
1, 175715, Control_c, 0, 64, 36
1, 175715, Control_c, 0, 67, 19
1, 175730, Control_c, 0, 64, 31
1, 175744, Note_on_c, 0, 67, 88
1, 175745, Control_c, 0, 64, 24
1, 175760, Control_c, 0, 64, 15
1, 175760, Control_c, 0, 67, 20
1, 175762, Note_on_c, 0, 59, 60
1, 175765, Note_on_c, 0, 55, 67
1, 175770, Note_on_c, 0, 52, 75
1, 175770, Note_off_c, 0, 66, 64
1, 175771, Note_off_c, 0, 54, 61
1, 175775, Control_c, 0, 64, 0
1, 175792, Note_off_c, 0, 47, 57
1, 175819, Control_c, 0, 64, 18
1, 175834, Control_c, 0, 64, 26
1, 175850, Control_c, 0, 64, 36
1, 175864, Control_c, 0, 64, 49
1, 175879, Control_c, 0, 64, 64
1, 175879, Control_c, 0, 67, 19
1, 175894, Control_c, 0, 64, 75
1, 175894, Control_c, 0, 67, 19
1, 175931, Control_c, 0, 64, 77
1, 175931, Control_c, 0, 67, 18
1, 175946, Control_c, 0, 64, 79
1, 175946, Control_c, 0, 67, 18
1, 175961, Control_c, 0, 64, 81
1, 175976, Control_c, 0, 64, 83
1, 175976, Control_c, 0, 67, 17
1, 175991, Control_c, 0, 64, 84
1, 175991, Control_c, 0, 67, 16
1, 176005, Control_c, 0, 64, 86
1, 176005, Control_c, 0, 67, 15
1, 176009, Note_off_c, 0, 59, 50
1, 176013, Note_off_c, 0, 52, 58
1, 176020, Control_c, 0, 67, 14
1, 176025, Note_off_c, 0, 67, 57
1, 176035, Control_c, 0, 64, 86
1, 176094, Control_c, 0, 67, 15
1, 176095, Note_off_c, 0, 55, 34
1, 176109, Control_c, 0, 67, 15
1, 176123, Control_c, 0, 67, 16
1, 176138, Control_c, 0, 64, 86
1, 176138, Control_c, 0, 67, 16
1, 176153, Control_c, 0, 64, 85
1, 176161, Note_on_c, 0, 52, 58
1, 176168, Control_c, 0, 64, 83
1, 176168, Control_c, 0, 67, 17
1, 176183, Control_c, 0, 64, 82
1, 176197, Control_c, 0, 64, 81
1, 176197, Control_c, 0, 67, 18
1, 176212, Control_c, 0, 64, 80
1, 176212, Control_c, 0, 67, 19
1, 176227, Control_c, 0, 64, 79
1, 176227, Control_c, 0, 67, 20
1, 176243, Control_c, 0, 64, 79
1, 176243, Control_c, 0, 67, 20
1, 176258, Control_c, 0, 64, 78
1, 176273, Control_c, 0, 64, 75
1, 176273, Control_c, 0, 67, 21
1, 176287, Note_on_c, 0, 64, 89
1, 176288, Control_c, 0, 64, 71
1, 176302, Control_c, 0, 64, 65
1, 176302, Control_c, 0, 67, 21
1, 176314, Note_on_c, 0, 67, 70
1, 176317, Control_c, 0, 64, 58
1, 176324, Note_on_c, 0, 55, 50
1, 176332, Control_c, 0, 64, 47
1, 176346, Control_c, 0, 64, 37
1, 176361, Control_c, 0, 64, 29
1, 176361, Control_c, 0, 67, 22
1, 176376, Control_c, 0, 64, 25
1, 176376, Control_c, 0, 67, 22
1, 176391, Control_c, 0, 64, 24
1, 176406, Control_c, 0, 67, 23
1, 176420, Control_c, 0, 64, 27
1, 176420, Control_c, 0, 67, 23
1, 176435, Control_c, 0, 64, 34
1, 176435, Control_c, 0, 67, 24
1, 176450, Control_c, 0, 64, 44
1, 176450, Control_c, 0, 67, 24
1, 176465, Control_c, 0, 64, 57
1, 176465, Control_c, 0, 67, 25
1, 176480, Control_c, 0, 64, 70
1, 176495, Control_c, 0, 64, 77
1, 176495, Control_c, 0, 67, 25
1, 176510, Control_c, 0, 67, 26
1, 176525, Control_c, 0, 64, 79
1, 176525, Control_c, 0, 67, 26
1, 176539, Control_c, 0, 64, 82
1, 176539, Control_c, 0, 67, 27
1, 176554, Control_c, 0, 64, 87
1, 176554, Control_c, 0, 67, 30
1, 176565, Note_off_c, 0, 55, 30
1, 176569, Control_c, 0, 64, 92
1, 176569, Control_c, 0, 67, 32
1, 176584, Control_c, 0, 64, 99
1, 176584, Control_c, 0, 67, 33
1, 176599, Control_c, 0, 64, 105
1, 176599, Control_c, 0, 67, 35
1, 176613, Control_c, 0, 64, 113
1, 176613, Control_c, 0, 67, 38
1, 176628, Control_c, 0, 64, 127
1, 176628, Control_c, 0, 67, 43
1, 176641, Note_off_c, 0, 52, 42
1, 176643, Control_c, 0, 67, 49
1, 176658, Control_c, 0, 67, 54
1, 176680, Control_c, 0, 67, 61
1, 176695, Control_c, 0, 67, 65
1, 176710, Control_c, 0, 67, 70
1, 176724, Control_c, 0, 67, 76
1, 176739, Control_c, 0, 67, 81
1, 176754, Control_c, 0, 67, 86
1, 176769, Control_c, 0, 67, 93
1, 176784, Control_c, 0, 67, 98
1, 176799, Control_c, 0, 67, 103
1, 176814, Control_c, 0, 67, 108
1, 176828, Control_c, 0, 67, 114
1, 176843, Control_c, 0, 67, 120
1, 176858, Control_c, 0, 67, 126
1, 176872, Control_c, 0, 67, 127
1, 176991, Control_c, 0, 64, 122
1, 177006, Control_c, 0, 64, 114
1, 177020, Control_c, 0, 64, 109
1, 177035, Control_c, 0, 64, 105
1, 177051, Control_c, 0, 64, 103
1, 177066, Control_c, 0, 64, 100
1, 177081, Control_c, 0, 64, 99
1, 177095, Control_c, 0, 64, 97
1, 177110, Control_c, 0, 64, 95
1, 177125, Control_c, 0, 64, 93
1, 177140, Control_c, 0, 64, 92
1, 177169, Control_c, 0, 64, 91
1, 177199, Control_c, 0, 64, 90
1, 177214, Control_c, 0, 64, 90
1, 177229, Control_c, 0, 64, 89
1, 177288, Control_c, 0, 64, 89
1, 177303, Control_c, 0, 64, 88
1, 177347, Control_c, 0, 64, 88
1, 177377, Control_c, 0, 64, 87
1, 177380, Note_on_c, 0, 59, 37
1, 177392, Control_c, 0, 64, 87
1, 177392, Note_on_c, 0, 35, 41
1, 177400, Note_on_c, 0, 47, 33
1, 177502, Note_off_c, 0, 64, 34
1, 177502, Control_c, 0, 64, 86
1, 177579, Note_off_c, 0, 67, 31
1, 177595, Note_off_c, 0, 35, 42
1, 177641, Note_off_c, 0, 59, 38
1, 177689, Note_off_c, 0, 47, 38
1, 177828, Control_c, 0, 64, 86
1, 178052, Control_c, 0, 64, 85
1, 178398, Control_c, 0, 64, 85
1, 178413, Control_c, 0, 64, 84
1, 178442, Control_c, 0, 64, 84
1, 178457, Control_c, 0, 64, 83
1, 178472, Control_c, 0, 64, 82
1, 178487, Control_c, 0, 64, 81
1, 178502, Control_c, 0, 64, 77
1, 178513, Note_on_c, 0, 63, 55
1, 178516, Control_c, 0, 64, 72
1, 178519, Note_on_c, 0, 67, 58
1, 178531, Control_c, 0, 64, 66
1, 178546, Control_c, 0, 64, 60
1, 178561, Note_on_c, 0, 51, 34
1, 178561, Control_c, 0, 64, 51
1, 178569, Note_on_c, 0, 55, 23
1, 178576, Control_c, 0, 64, 35
1, 178590, Control_c, 0, 64, 0
1, 178666, Control_c, 0, 64, 18
1, 178681, Control_c, 0, 64, 32
1, 178695, Control_c, 0, 64, 44
1, 178710, Control_c, 0, 64, 54
1, 178725, Control_c, 0, 64, 64
1, 178740, Control_c, 0, 64, 70
1, 178754, Control_c, 0, 64, 71
1, 178769, Control_c, 0, 64, 72
1, 178784, Control_c, 0, 64, 75
1, 178792, Note_off_c, 0, 55, 45
1, 178799, Control_c, 0, 64, 78
1, 178814, Control_c, 0, 64, 80
1, 178829, Control_c, 0, 64, 82
1, 178844, Control_c, 0, 64, 84
1, 178853, Note_off_c, 0, 51, 48
1, 178859, Control_c, 0, 64, 87
1, 178874, Control_c, 0, 64, 90
1, 178889, Control_c, 0, 64, 97
1, 178903, Control_c, 0, 64, 103
1, 178926, Control_c, 0, 64, 108
1, 178940, Control_c, 0, 64, 114
1, 178955, Control_c, 0, 64, 117
1, 178970, Control_c, 0, 64, 119
1, 179118, Control_c, 0, 64, 115
1, 179133, Control_c, 0, 64, 113
1, 179148, Control_c, 0, 64, 109
1, 179163, Control_c, 0, 64, 107
1, 179178, Control_c, 0, 64, 105
1, 179193, Control_c, 0, 64, 103
1, 179208, Control_c, 0, 64, 101
1, 179222, Control_c, 0, 64, 100
1, 179237, Control_c, 0, 64, 99
1, 179252, Control_c, 0, 64, 98
1, 179266, Control_c, 0, 64, 96
1, 179281, Control_c, 0, 64, 95
1, 179296, Control_c, 0, 64, 94
1, 179311, Control_c, 0, 64, 93
1, 179326, Control_c, 0, 64, 92
1, 179339, Note_on_c, 0, 55, 34
1, 179340, Control_c, 0, 64, 92
1, 179370, Control_c, 0, 64, 91
1, 179385, Control_c, 0, 64, 91
1, 179389, Note_on_c, 0, 31, 35
1, 179423, Poly_aftertouch_c, 0, 43, 127
1, 179429, Control_c, 0, 64, 90
1, 179445, Control_c, 0, 64, 90
1, 179450, Note_off_c, 0, 31, 55
1, 179460, Control_c, 0, 64, 89
1, 179475, Control_c, 0, 64, 89
1, 179484, Poly_aftertouch_c, 0, 43, 0
1, 179489, Control_c, 0, 64, 88
1, 179549, Control_c, 0, 64, 88
1, 179593, Control_c, 0, 64, 87
1, 179608, Control_c, 0, 64, 87
1, 179652, Control_c, 0, 64, 86
1, 179687, Note_off_c, 0, 55, 37
1, 179695, Note_off_c, 0, 63, 38
1, 179700, Note_off_c, 0, 67, 22
1, 179763, Control_c, 0, 64, 86
1, 179882, Control_c, 0, 64, 85
1, 180060, Control_c, 0, 64, 85
1, 180061, Note_on_c, 0, 62, 42
1, 180106, Note_on_c, 0, 50, 25
1, 180119, Control_c, 0, 64, 84
1, 180163, Control_c, 0, 64, 84
1, 180178, Control_c, 0, 64, 83
1, 180193, Control_c, 0, 64, 83
1, 180207, Control_c, 0, 64, 82
1, 180222, Control_c, 0, 64, 81
1, 180254, Control_c, 0, 64, 81
1, 180261, Note_off_c, 0, 62, 35
1, 180268, Control_c, 0, 64, 80
1, 180298, Control_c, 0, 64, 80
1, 180312, Control_c, 0, 64, 79
1, 180316, Note_off_c, 0, 50, 31
1, 180353, Note_on_c, 0, 61, 58
1, 180372, Control_c, 0, 64, 79
1, 180388, Note_on_c, 0, 49, 37
1, 180469, Note_off_c, 0, 61, 33
1, 180498, Control_c, 0, 64, 78
1, 180510, Note_off_c, 0, 49, 30
1, 180531, Note_on_c, 0, 60, 66
1, 180542, Control_c, 0, 64, 78
1, 180555, Note_on_c, 0, 48, 48
1, 180557, Control_c, 0, 64, 77
1, 180572, Control_c, 0, 64, 76
1, 180586, Control_c, 0, 64, 75
1, 180601, Control_c, 0, 64, 75
1, 180616, Control_c, 0, 64, 74
1, 180631, Control_c, 0, 64, 73
1, 180645, Control_c, 0, 64, 71
1, 180660, Control_c, 0, 64, 69
1, 180675, Control_c, 0, 64, 68
1, 180689, Note_off_c, 0, 48, 48
1, 180690, Control_c, 0, 64, 68
1, 180719, Control_c, 0, 64, 67
1, 180725, Note_on_c, 0, 47, 45
1, 180734, Control_c, 0, 64, 66
1, 180749, Control_c, 0, 64, 65
1, 180764, Control_c, 0, 64, 64
1, 180793, Control_c, 0, 64, 64
1, 180808, Control_c, 0, 64, 62
1, 180823, Control_c, 0, 64, 58
1, 180829, Note_off_c, 0, 60, 60
1, 180838, Control_c, 0, 64, 52
1, 180853, Control_c, 0, 64, 45
1, 180865, Note_on_c, 0, 67, 54
1, 180868, Control_c, 0, 64, 35
1, 180880, Note_on_c, 0, 59, 41
1, 180883, Control_c, 0, 64, 13
1, 180898, Control_c, 0, 64, 0
1, 180899, Note_on_c, 0, 64, 34
1, 180910, Note_on_c, 0, 52, 35
1, 180916, Note_on_c, 0, 55, 27
1, 180972, Control_c, 0, 64, 16
1, 180986, Control_c, 0, 64, 46
1, 181001, Control_c, 0, 64, 62
1, 181016, Control_c, 0, 64, 84
1, 181061, Control_c, 0, 64, 86
1, 181076, Control_c, 0, 64, 91
1, 181077, Note_off_c, 0, 55, 47
1, 181090, Control_c, 0, 64, 95
1, 181103, Note_off_c, 0, 67, 40
1, 181105, Control_c, 0, 64, 96
1, 181120, Control_c, 0, 64, 97
1, 181121, Note_off_c, 0, 52, 45
1, 181187, Control_c, 0, 64, 98
1, 181199, Note_off_c, 0, 47, 42
1, 181199, Note_off_c, 0, 59, 40
1, 181199, Note_off_c, 0, 64, 40
1, 181202, Control_c, 0, 64, 99
1, 181408, Control_c, 0, 64, 99
1, 181423, Control_c, 0, 64, 98
1, 181438, Control_c, 0, 64, 98
1, 181453, Control_c, 0, 64, 97
1, 181467, Control_c, 0, 64, 97
1, 181601, Control_c, 0, 64, 96
1, 181764, Control_c, 0, 64, 96
1, 181854, Control_c, 0, 64, 95
1, 181950, Control_c, 0, 64, 95
1, 181995, Control_c, 0, 64, 94
1, 182039, Control_c, 0, 64, 94
1, 182057, Note_on_c, 0, 55, 39
1, 182097, Note_on_c, 0, 28, 37
1, 182103, Note_on_c, 0, 40, 23
1, 182172, Control_c, 0, 64, 93
1, 182506, Note_off_c, 0, 40, 29
1, 182602, Control_c, 0, 64, 93
1, 182658, Note_off_c, 0, 28, 37
1, 182922, Control_c, 0, 64, 92
1, 182954, Note_off_c, 0, 55, 35
1, 183040, Control_c, 0, 64, 92
1, 183070, Control_c, 0, 64, 91
1, 183085, Control_c, 0, 64, 91
1, 183100, Control_c, 0, 64, 90
1, 183114, Control_c, 0, 64, 90
1, 183129, Control_c, 0, 64, 89
1, 183144, Control_c, 0, 64, 89
1, 183159, Control_c, 0, 64, 88
1, 183174, Control_c, 0, 64, 88
1, 183203, Control_c, 0, 64, 87
1, 183232, Control_c, 0, 64, 87
1, 183277, Control_c, 0, 64, 86
1, 183292, Control_c, 0, 64, 86
1, 183321, Control_c, 0, 64, 85
1, 183336, Control_c, 0, 64, 85
1, 183351, Control_c, 0, 64, 84
1, 183366, Control_c, 0, 64, 83
1, 183381, Control_c, 0, 64, 82
1, 183396, Control_c, 0, 64, 81
1, 183418, Control_c, 0, 64, 80
1, 183434, Control_c, 0, 64, 79
1, 183449, Control_c, 0, 64, 78
1, 183478, Control_c, 0, 64, 78
1, 183715, Control_c, 0, 64, 77
1, 183744, Control_c, 0, 64, 77
1, 183759, Control_c, 0, 64, 76
1, 183774, Control_c, 0, 64, 75
1, 183783, Note_on_c, 0, 59, 46
1, 183783, Note_on_c, 0, 55, 34
1, 183789, Control_c, 0, 64, 74
1, 183804, Control_c, 0, 64, 72
1, 183809, Note_on_c, 0, 40, 39
1, 183813, Note_on_c, 0, 47, 40
1, 183819, Control_c, 0, 64, 69
1, 183834, Control_c, 0, 64, 66
1, 183849, Control_c, 0, 64, 64
1, 183863, Control_c, 0, 64, 62
1, 183878, Control_c, 0, 64, 61
1, 183893, Control_c, 0, 64, 60
1, 183923, Control_c, 0, 64, 61
1, 183937, Control_c, 0, 64, 63
1, 183952, Control_c, 0, 64, 65
1, 183967, Control_c, 0, 64, 67
1, 183997, Control_c, 0, 64, 68
1, 184011, Control_c, 0, 64, 68
1, 184026, Control_c, 0, 64, 69
1, 184041, Control_c, 0, 64, 70
1, 184055, Control_c, 0, 64, 71
1, 184070, Control_c, 0, 64, 72
1, 184085, Control_c, 0, 64, 72
1, 184100, Control_c, 0, 64, 73
1, 184115, Control_c, 0, 64, 73
1, 184211, Control_c, 0, 64, 73
1, 184226, Control_c, 0, 64, 72
1, 184242, Control_c, 0, 64, 71
1, 184257, Control_c, 0, 64, 69
1, 184272, Control_c, 0, 64, 66
1, 184278, Note_on_c, 0, 61, 60
1, 184286, Control_c, 0, 64, 61
1, 184301, Control_c, 0, 64, 52
1, 184306, Note_on_c, 0, 52, 55
1, 184316, Control_c, 0, 64, 39
1, 184326, Note_on_c, 0, 49, 49
1, 184331, Control_c, 0, 64, 29
1, 184335, Note_on_c, 0, 43, 47
1, 184341, Note_off_c, 0, 47, 43
1, 184346, Control_c, 0, 64, 23
1, 184360, Control_c, 0, 64, 16
1, 184375, Control_c, 0, 64, 13
1, 184390, Control_c, 0, 64, 14
1, 184390, Control_c, 0, 67, 127
1, 184405, Control_c, 0, 64, 22
1, 184405, Control_c, 0, 67, 121
1, 184420, Control_c, 0, 64, 34
1, 184420, Control_c, 0, 67, 114
1, 184434, Control_c, 0, 64, 47
1, 184434, Control_c, 0, 67, 106
1, 184449, Control_c, 0, 64, 57
1, 184449, Control_c, 0, 67, 99
1, 184464, Control_c, 0, 64, 60
1, 184464, Control_c, 0, 67, 94
1, 184478, Control_c, 0, 64, 61
1, 184493, Control_c, 0, 64, 62
1, 184508, Control_c, 0, 64, 64
1, 184523, Control_c, 0, 64, 66
1, 184538, Control_c, 0, 64, 67
1, 184540, Note_off_c, 0, 40, 32
1, 184552, Control_c, 0, 64, 69
1, 184563, Note_off_c, 0, 55, 40
1, 184564, Note_off_c, 0, 43, 55
1, 184567, Note_off_c, 0, 59, 19
1, 184567, Control_c, 0, 64, 70
1, 184567, Control_c, 0, 67, 94
1, 184576, Note_off_c, 0, 52, 45
1, 184582, Control_c, 0, 64, 72
1, 184597, Control_c, 0, 64, 74
1, 184605, Note_off_c, 0, 61, 64
1, 184612, Control_c, 0, 64, 76
1, 184627, Control_c, 0, 64, 79
1, 184642, Control_c, 0, 64, 82
1, 184642, Control_c, 0, 67, 93
1, 184645, Note_off_c, 0, 49, 63
1, 184657, Control_c, 0, 64, 83
1, 184657, Control_c, 0, 67, 92
1, 184672, Control_c, 0, 64, 83
1, 184672, Control_c, 0, 67, 88
1, 184686, Control_c, 0, 67, 85
1, 184701, Control_c, 0, 67, 82
1, 184716, Control_c, 0, 67, 81
1, 184731, Control_c, 0, 67, 80
1, 184746, Control_c, 0, 67, 80
1, 184775, Control_c, 0, 64, 83
1, 184775, Control_c, 0, 67, 80
1, 184790, Control_c, 0, 64, 81
1, 184790, Control_c, 0, 67, 81
1, 184804, Control_c, 0, 64, 77
1, 184804, Control_c, 0, 67, 83
1, 184819, Control_c, 0, 64, 71
1, 184819, Control_c, 0, 67, 85
1, 184824, Note_on_c, 0, 43, 46
1, 184827, Note_on_c, 0, 59, 49
1, 184827, Note_on_c, 0, 62, 64
1, 184827, Note_on_c, 0, 50, 46
1, 184833, Control_c, 0, 64, 64
1, 184833, Control_c, 0, 67, 88
1, 184848, Control_c, 0, 64, 55
1, 184848, Control_c, 0, 67, 91
1, 184863, Control_c, 0, 64, 39
1, 184863, Control_c, 0, 67, 97
1, 184877, Control_c, 0, 64, 11
1, 184877, Control_c, 0, 67, 108
1, 184892, Control_c, 0, 64, 0
1, 184892, Control_c, 0, 67, 126
1, 184915, Control_c, 0, 67, 127
1, 184937, Note_on_c, 0, 64, 60
1, 184955, Note_on_c, 0, 52, 56
1, 184958, Note_off_c, 0, 50, 51
1, 184962, Note_on_c, 0, 55, 47
1, 184964, Note_off_c, 0, 62, 62
1, 184981, Note_on_c, 0, 47, 52
1, 184989, Control_c, 0, 64, 17
1, 185003, Control_c, 0, 64, 34
1, 185018, Control_c, 0, 64, 46
1, 185034, Control_c, 0, 64, 56
1, 185049, Control_c, 0, 64, 61
1, 185064, Control_c, 0, 64, 61
1, 185079, Control_c, 0, 64, 63
1, 185094, Control_c, 0, 64, 65
1, 185108, Control_c, 0, 64, 67
1, 185123, Control_c, 0, 64, 68
1, 185138, Control_c, 0, 64, 68
1, 185153, Control_c, 0, 64, 69
1, 185163, Note_off_c, 0, 52, 60
1, 185168, Note_off_c, 0, 64, 62
1, 185168, Control_c, 0, 64, 71
1, 185180, Note_off_c, 0, 43, 53
1, 185182, Control_c, 0, 64, 73
1, 185197, Control_c, 0, 64, 75
1, 185202, Note_off_c, 0, 59, 55
1, 185212, Control_c, 0, 64, 76
1, 185217, Note_off_c, 0, 55, 52
1, 185226, Control_c, 0, 64, 77
1, 185229, Note_off_c, 0, 47, 31
1, 185241, Control_c, 0, 64, 78
1, 185271, Control_c, 0, 64, 78
1, 185286, Control_c, 0, 64, 79
1, 185345, Control_c, 0, 64, 78
1, 185360, Control_c, 0, 64, 77
1, 185375, Control_c, 0, 64, 77
1, 185390, Control_c, 0, 64, 75
1, 185405, Control_c, 0, 64, 74
1, 185420, Control_c, 0, 64, 73
1, 185434, Control_c, 0, 64, 71
1, 185449, Control_c, 0, 64, 67
1, 185464, Control_c, 0, 64, 62
1, 185464, Note_on_c, 0, 66, 65
1, 185470, Note_on_c, 0, 62, 62
1, 185479, Control_c, 0, 64, 55
1, 185494, Control_c, 0, 64, 46
1, 185500, Note_on_c, 0, 59, 37
1, 185508, Control_c, 0, 64, 37
1, 185512, Note_on_c, 0, 50, 36
1, 185514, Note_on_c, 0, 54, 46
1, 185523, Control_c, 0, 64, 27
1, 185526, Note_on_c, 0, 47, 42
1, 185538, Control_c, 0, 64, 14
1, 185553, Control_c, 0, 64, 0
1, 185626, Control_c, 0, 64, 18
1, 185641, Control_c, 0, 64, 34
1, 185664, Control_c, 0, 64, 46
1, 185679, Control_c, 0, 64, 59
1, 185694, Control_c, 0, 64, 65
1, 185708, Control_c, 0, 64, 66
1, 185723, Control_c, 0, 64, 66
1, 185738, Control_c, 0, 64, 68
1, 185752, Control_c, 0, 64, 69
1, 185767, Control_c, 0, 64, 70
1, 185782, Control_c, 0, 64, 71
1, 185792, Note_off_c, 0, 54, 35
1, 185797, Control_c, 0, 64, 72
1, 185812, Control_c, 0, 64, 72
1, 185827, Control_c, 0, 64, 73
1, 185849, Note_off_c, 0, 50, 38
1, 185857, Control_c, 0, 64, 73
1, 185866, Note_off_c, 0, 47, 43
1, 185902, Control_c, 0, 64, 74
1, 186005, Control_c, 0, 64, 73
1, 186094, Control_c, 0, 64, 73
1, 186123, Control_c, 0, 64, 72
1, 186153, Control_c, 0, 64, 72
1, 186168, Control_c, 0, 64, 71
1, 186198, Control_c, 0, 64, 71
1, 186228, Control_c, 0, 64, 70
1, 186391, Control_c, 0, 64, 70
1, 186433, Note_on_c, 0, 54, 37
1, 186472, Control_c, 0, 64, 69
1, 186474, Note_on_c, 0, 30, 46
1, 186486, Note_on_c, 0, 42, 25
1, 186722, Note_off_c, 0, 30, 40
1, 186730, Note_off_c, 0, 54, 42
1, 186740, Control_c, 0, 64, 69
1, 186763, Note_off_c, 0, 42, 36
1, 186802, Note_off_c, 0, 62, 29
1, 186812, Note_off_c, 0, 66, 35
1, 186874, Note_off_c, 0, 59, 41
1, 187325, Control_c, 0, 64, 68
1, 187384, Control_c, 0, 64, 68
1, 187399, Control_c, 0, 64, 67
1, 187414, Control_c, 0, 64, 67
1, 187429, Control_c, 0, 64, 65
1, 187438, Note_on_c, 0, 62, 79
1, 187444, Control_c, 0, 64, 63
1, 187456, Note_on_c, 0, 66, 62
1, 187459, Control_c, 0, 64, 58
1, 187474, Control_c, 0, 64, 51
1, 187489, Control_c, 0, 64, 38
1, 187500, Note_on_c, 0, 58, 40
1, 187501, Note_on_c, 0, 46, 51
1, 187503, Note_on_c, 0, 50, 40
1, 187503, Control_c, 0, 64, 28
1, 187506, Note_on_c, 0, 54, 49
1, 187506, Note_off_c, 0, 66, 0
1, 187506, Note_on_c, 0, 66, 35
1, 187518, Control_c, 0, 64, 20
1, 187533, Control_c, 0, 64, 8
1, 187548, Control_c, 0, 64, 0
1, 187608, Control_c, 0, 64, 26
1, 187622, Control_c, 0, 64, 37
1, 187637, Control_c, 0, 64, 47
1, 187652, Control_c, 0, 64, 56
1, 187667, Control_c, 0, 64, 62
1, 187696, Control_c, 0, 64, 62
1, 187711, Control_c, 0, 64, 63
1, 187726, Control_c, 0, 64, 64
1, 187741, Control_c, 0, 64, 64
1, 187769, Note_off_c, 0, 54, 41
1, 187770, Control_c, 0, 64, 65
1, 187785, Control_c, 0, 64, 65
1, 187800, Control_c, 0, 64, 66
1, 187815, Control_c, 0, 64, 67
1, 187829, Control_c, 0, 64, 67
1, 187844, Control_c, 0, 64, 68
1, 187852, Note_off_c, 0, 50, 40
1, 187859, Control_c, 0, 64, 68
1, 187874, Control_c, 0, 64, 69
1, 187929, Note_off_c, 0, 46, 40
1, 187935, Note_off_c, 0, 66, 47
1, 188029, Control_c, 0, 64, 69
1, 188086, Note_off_c, 0, 62, 62
1, 188267, Control_c, 0, 64, 69
1, 188297, Control_c, 0, 64, 68
1, 188326, Control_c, 0, 64, 68
1, 188356, Control_c, 0, 64, 67
1, 188386, Control_c, 0, 64, 67
1, 188420, Note_off_c, 0, 58, 42
1, 188445, Control_c, 0, 64, 66
1, 188534, Control_c, 0, 64, 66
1, 188705, Control_c, 0, 64, 65
1, 188739, Note_on_c, 0, 50, 36
1, 188766, Note_on_c, 0, 26, 36
1, 188794, Note_on_c, 0, 38, 23
1, 188848, Note_off_c, 0, 50, 43
1, 188892, Note_off_c, 0, 38, 36
1, 188939, Note_off_c, 0, 26, 40
1, 189372, Control_c, 0, 64, 65
1, 189468, Control_c, 0, 64, 64
1, 189527, Control_c, 0, 64, 64
1, 189557, Control_c, 0, 64, 63
1, 189616, Control_c, 0, 64, 63
1, 189631, Control_c, 0, 64, 62
1, 189646, Control_c, 0, 64, 62
1, 189675, Control_c, 0, 64, 61
1, 189677, Note_on_c, 0, 61, 47
1, 189690, Control_c, 0, 64, 61
1, 189699, Note_on_c, 0, 49, 45
1, 189720, Control_c, 0, 64, 60
1, 189735, Control_c, 0, 64, 60
1, 189749, Control_c, 0, 64, 59
1, 189764, Control_c, 0, 64, 58
1, 189824, Control_c, 0, 64, 58
1, 189834, Note_off_c, 0, 61, 42
1, 189839, Control_c, 0, 64, 57
1, 189852, Note_on_c, 0, 60, 51
1, 189854, Control_c, 0, 64, 57
1, 189872, Note_on_c, 0, 48, 52
1, 189897, Note_off_c, 0, 49, 41
1, 189972, Control_c, 0, 64, 57
1, 190076, Control_c, 0, 64, 57
1, 190125, Note_off_c, 0, 48, 44
1, 190135, Control_c, 0, 64, 56
1, 190136, Note_on_c, 0, 42, 48
1, 190158, Control_c, 0, 64, 56
1, 190172, Control_c, 0, 64, 55
1, 190187, Control_c, 0, 64, 54
1, 190202, Control_c, 0, 64, 53
1, 190246, Control_c, 0, 64, 52
1, 190261, Control_c, 0, 64, 50
1, 190276, Control_c, 0, 64, 49
1, 190291, Control_c, 0, 64, 48
1, 190335, Control_c, 0, 64, 47
1, 190340, Note_on_c, 0, 66, 43
1, 190350, Control_c, 0, 64, 44
1, 190363, Note_off_c, 0, 60, 33
1, 190365, Control_c, 0, 64, 39
1, 190368, Note_on_c, 0, 62, 40
1, 190368, Note_on_c, 0, 59, 40
1, 190380, Control_c, 0, 64, 31
1, 190384, Note_on_c, 0, 54, 41
1, 190395, Control_c, 0, 64, 19
1, 190410, Control_c, 0, 64, 0
1, 190416, Note_on_c, 0, 47, 19
1, 190420, Note_on_c, 0, 50, 28
1, 190513, Control_c, 0, 64, 11
1, 190528, Control_c, 0, 64, 34
1, 190542, Control_c, 0, 64, 51
1, 190557, Control_c, 0, 64, 61
1, 190572, Control_c, 0, 64, 62
1, 190602, Control_c, 0, 64, 63
1, 190618, Control_c, 0, 64, 65
1, 190633, Control_c, 0, 64, 66
1, 190634, Note_off_c, 0, 54, 44
1, 190647, Control_c, 0, 64, 67
1, 190659, Note_off_c, 0, 66, 39
1, 190662, Control_c, 0, 64, 67
1, 190677, Control_c, 0, 64, 68
1, 190681, Note_off_c, 0, 62, 43
1, 190687, Note_off_c, 0, 50, 38
1, 190721, Control_c, 0, 64, 68
1, 190725, Note_off_c, 0, 47, 45
1, 190751, Control_c, 0, 64, 69
1, 190758, Note_off_c, 0, 59, 40
1, 190806, Note_off_c, 0, 42, 39
1, 191261, Control_c, 0, 64, 68
1, 191529, Control_c, 0, 64, 68
1, 191700, Note_on_c, 0, 47, 34
1, 191731, Note_on_c, 0, 23, 30
1, 191760, Poly_aftertouch_c, 0, 35, 127
1, 191923, Poly_aftertouch_c, 0, 35, 0
1, 191991, Note_off_c, 0, 23, 36
1, 192344, Note_off_c, 0, 47, 15
1, 193212, Control_c, 0, 64, 65
1, 193227, Control_c, 0, 64, 53
1, 193241, Control_c, 0, 64, 26
1, 193242, Note_on_c, 0, 42, 99
1, 193256, Control_c, 0, 64, 0
1, 193256, Control_c, 0, 67, 105
1, 193271, Control_c, 0, 67, 63
1, 193286, Control_c, 0, 67, 28
1, 193301, Control_c, 0, 64, 24
1, 193301, Control_c, 0, 67, 8
1, 193315, Control_c, 0, 64, 56
1, 193315, Control_c, 0, 67, 0
1, 193330, Control_c, 0, 64, 127
1, 193452, Note_off_c, 0, 42, 55
1, 193569, Note_on_c, 0, 47, 50
1, 193632, Note_on_c, 0, 51, 67
1, 193658, Note_off_c, 0, 47, 54
1, 193669, Note_on_c, 0, 54, 63
1, 193727, Note_on_c, 0, 59, 64
1, 193739, Note_off_c, 0, 51, 54
1, 193742, Note_on_c, 0, 63, 61
1, 193748, Note_off_c, 0, 54, 58
1, 193758, Note_off_c, 0, 59, 64
1, 193782, Note_on_c, 0, 66, 63
1, 193839, Note_on_c, 0, 71, 61
1, 193908, Note_on_c, 0, 75, 72
1, 193990, Note_on_c, 0, 78, 118
1, 194017, Note_on_c, 0, 79, 59
1, 194030, Note_off_c, 0, 78, 68
1, 194038, Note_off_c, 0, 79, 65
1, 194526, Note_off_c, 0, 63, 35
1, 194601, Note_off_c, 0, 71, 35
1, 194687, Note_off_c, 0, 66, 36
1, 194729, Note_off_c, 0, 75, 37
1, 195292, Note_on_c, 0, 77, 101
1, 195317, Note_on_c, 0, 74, 55
1, 195351, Note_off_c, 0, 74, 48
1, 195414, Note_on_c, 0, 74, 36
1, 195587, Note_off_c, 0, 74, 0
1, 195587, Note_on_c, 0, 74, 34
1, 195990, Note_on_c, 0, 35, 46
1, 195990, Control_c, 0, 64, 103
1, 196005, Control_c, 0, 64, 88
1, 196020, Control_c, 0, 64, 76
1, 196035, Control_c, 0, 64, 65
1, 196050, Control_c, 0, 64, 56
1, 196065, Control_c, 0, 64, 41
1, 196067, Note_off_c, 0, 77, 49
1, 196080, Control_c, 0, 64, 24
1, 196091, Note_on_c, 0, 76, 69
1, 196095, Control_c, 0, 64, 11
1, 196101, Note_on_c, 0, 73, 52
1, 196109, Control_c, 0, 64, 0
1, 196124, Note_off_c, 0, 74, 36
1, 196161, Control_c, 0, 64, 15
1, 196176, Control_c, 0, 64, 37
1, 196191, Control_c, 0, 64, 55
1, 196206, Control_c, 0, 64, 67
1, 196222, Control_c, 0, 64, 71
1, 196237, Control_c, 0, 64, 72
1, 196252, Control_c, 0, 64, 76
1, 196266, Control_c, 0, 64, 79
1, 196281, Control_c, 0, 64, 81
1, 196296, Control_c, 0, 64, 83
1, 196311, Control_c, 0, 64, 84
1, 196326, Control_c, 0, 64, 86
1, 196332, Note_off_c, 0, 35, 38
1, 196340, Control_c, 0, 64, 88
1, 196355, Control_c, 0, 64, 91
1, 196370, Control_c, 0, 64, 94
1, 196384, Control_c, 0, 64, 99
1, 196399, Control_c, 0, 64, 105
1, 196414, Control_c, 0, 64, 113
1, 196425, Note_off_c, 0, 76, 49
1, 196429, Control_c, 0, 64, 127
1, 196484, Note_on_c, 0, 75, 57
1, 196503, Control_c, 0, 64, 101
1, 196509, Note_off_c, 0, 73, 46
1, 196518, Control_c, 0, 64, 83
1, 196533, Control_c, 0, 64, 71
1, 196544, Note_on_c, 0, 72, 12
1, 196547, Control_c, 0, 64, 63
1, 196562, Control_c, 0, 64, 51
1, 196577, Control_c, 0, 64, 33
1, 196592, Control_c, 0, 64, 0
1, 196639, Note_on_c, 0, 42, 40
1, 196666, Control_c, 0, 64, 45
1, 196681, Control_c, 0, 64, 61
1, 196696, Control_c, 0, 64, 69
1, 196698, Note_off_c, 0, 75, 56
1, 196705, Note_off_c, 0, 72, 50
1, 196710, Control_c, 0, 64, 71
1, 196712, Note_off_c, 0, 42, 60
1, 196725, Control_c, 0, 64, 78
1, 196740, Control_c, 0, 64, 90
1, 196753, Note_on_c, 0, 47, 36
1, 196755, Control_c, 0, 64, 104
1, 196770, Control_c, 0, 64, 127
1, 196799, Note_on_c, 0, 50, 41
1, 196809, Note_off_c, 0, 47, 43
1, 196847, Note_on_c, 0, 54, 57
1, 196851, Note_off_c, 0, 50, 58
1, 196912, Note_off_c, 0, 54, 57
1, 196941, Note_on_c, 0, 59, 45
1, 196984, Note_off_c, 0, 59, 60
1, 196992, Note_on_c, 0, 62, 52
1, 197051, Note_on_c, 0, 66, 41
1, 197109, Note_on_c, 0, 71, 44
1, 197196, Note_on_c, 0, 74, 53
1, 197384, Note_on_c, 0, 78, 53
1, 197435, Note_off_c, 0, 78, 43
1, 197981, Note_off_c, 0, 62, 35
1, 198211, Note_off_c, 0, 74, 41
1, 198216, Note_off_c, 0, 71, 41
1, 198222, Note_off_c, 0, 66, 37
1, 198447, Note_on_c, 0, 35, 21
1, 198756, Note_off_c, 0, 35, 37
1, 199617, Control_c, 0, 64, 122
1, 199632, Control_c, 0, 64, 119
1, 199647, Control_c, 0, 64, 117
1, 199662, Control_c, 0, 64, 115
1, 199721, Control_c, 0, 64, 114
1, 199765, Control_c, 0, 64, 113
1, 199795, Control_c, 0, 64, 111
1, 199809, Control_c, 0, 64, 110
1, 199824, Control_c, 0, 64, 109
1, 199839, Control_c, 0, 64, 108
1, 199854, Control_c, 0, 64, 106
1, 199869, Control_c, 0, 64, 104
1, 199891, Control_c, 0, 64, 102
1, 199906, Control_c, 0, 64, 99
1, 199921, Control_c, 0, 64, 96
1, 199935, Control_c, 0, 64, 94
1, 199950, Control_c, 0, 64, 90
1, 199953, Note_on_c, 0, 66, 49
1, 199965, Control_c, 0, 64, 85
1, 199970, Note_on_c, 0, 59, 33
1, 199980, Control_c, 0, 64, 81
1, 199985, Note_on_c, 0, 63, 42
1, 199995, Control_c, 0, 64, 77
1, 200006, Note_on_c, 0, 47, 25
1, 200009, Control_c, 0, 64, 72
1, 200013, Note_on_c, 0, 54, 26
1, 200017, Note_on_c, 0, 51, 29
1, 200024, Control_c, 0, 64, 67
1, 200032, Note_on_c, 0, 42, 39
1, 200039, Control_c, 0, 64, 62
1, 200054, Control_c, 0, 64, 57
1, 200069, Control_c, 0, 64, 49
1, 200083, Control_c, 0, 64, 39
1, 200098, Control_c, 0, 64, 29
1, 200113, Control_c, 0, 64, 20
1, 200127, Control_c, 0, 64, 12
1, 200142, Control_c, 0, 64, 0
1, 200187, Control_c, 0, 64, 14
1, 200203, Control_c, 0, 64, 32
1, 200218, Control_c, 0, 64, 44
1, 200232, Control_c, 0, 64, 56
1, 200247, Control_c, 0, 64, 65
1, 200262, Control_c, 0, 64, 67
1, 200277, Control_c, 0, 64, 68
1, 200292, Control_c, 0, 64, 71
1, 200306, Control_c, 0, 64, 72
1, 200321, Control_c, 0, 64, 75
1, 200336, Control_c, 0, 64, 78
1, 200351, Control_c, 0, 64, 81
1, 200366, Control_c, 0, 64, 83
1, 200381, Control_c, 0, 64, 86
1, 200396, Control_c, 0, 64, 90
1, 200411, Control_c, 0, 64, 95
1, 200425, Control_c, 0, 64, 100
1, 200440, Control_c, 0, 64, 105
1, 200455, Control_c, 0, 64, 108
1, 200470, Control_c, 0, 64, 111
1, 200485, Control_c, 0, 64, 114
1, 200569, Note_off_c, 0, 54, 37
1, 200714, Control_c, 0, 64, 117
1, 200729, Control_c, 0, 64, 122
1, 200730, Note_off_c, 0, 47, 39
1, 200739, Note_off_c, 0, 51, 43
1, 200744, Control_c, 0, 64, 127
1, 200779, Note_off_c, 0, 66, 40
1, 200870, Note_off_c, 0, 42, 38
1, 201278, Control_c, 0, 64, 122
1, 201293, Control_c, 0, 64, 119
1, 201307, Control_c, 0, 64, 115
1, 201322, Control_c, 0, 64, 113
1, 201337, Control_c, 0, 64, 111
1, 201352, Control_c, 0, 64, 109
1, 201367, Control_c, 0, 64, 108
1, 201418, Control_c, 0, 64, 108
1, 201430, Note_on_c, 0, 65, 43
1, 201448, Control_c, 0, 64, 107
1, 201460, Note_off_c, 0, 59, 37
1, 201472, Note_on_c, 0, 62, 31
1, 201478, Control_c, 0, 64, 106
1, 201487, Note_off_c, 0, 63, 39
1, 201493, Control_c, 0, 64, 105
1, 201507, Control_c, 0, 64, 105
1, 201522, Control_c, 0, 64, 104
1, 201537, Control_c, 0, 64, 103
1, 201596, Control_c, 0, 64, 103
1, 201611, Control_c, 0, 64, 102
1, 201626, Control_c, 0, 64, 101
1, 201641, Control_c, 0, 64, 100
1, 201655, Control_c, 0, 64, 99
1, 201670, Control_c, 0, 64, 99
1, 201685, Control_c, 0, 64, 98
1, 201700, Control_c, 0, 64, 97
1, 201714, Control_c, 0, 64, 96
1, 201729, Control_c, 0, 64, 95
1, 201759, Control_c, 0, 64, 94
1, 201773, Control_c, 0, 64, 93
1, 201773, Control_c, 0, 67, 9
1, 201788, Control_c, 0, 64, 92
1, 201788, Control_c, 0, 67, 10
1, 201804, Control_c, 0, 64, 92
1, 201804, Control_c, 0, 67, 11
1, 201819, Control_c, 0, 64, 91
1, 201819, Control_c, 0, 67, 14
1, 201834, Control_c, 0, 64, 91
1, 201834, Control_c, 0, 67, 18
1, 201849, Control_c, 0, 64, 90
1, 201849, Control_c, 0, 67, 25
1, 201862, Note_off_c, 0, 65, 41
1, 201864, Control_c, 0, 64, 89
1, 201864, Control_c, 0, 67, 35
1, 201878, Control_c, 0, 64, 89
1, 201878, Control_c, 0, 67, 46
1, 201893, Control_c, 0, 64, 88
1, 201893, Control_c, 0, 67, 53
1, 201908, Control_c, 0, 64, 86
1, 201908, Control_c, 0, 67, 55
1, 201922, Control_c, 0, 64, 84
1, 201937, Control_c, 0, 64, 82
1, 201937, Control_c, 0, 67, 56
1, 201952, Control_c, 0, 64, 79
1, 201952, Control_c, 0, 67, 57
1, 201967, Control_c, 0, 64, 76
1, 201967, Control_c, 0, 67, 59
1, 201982, Control_c, 0, 64, 73
1, 201982, Control_c, 0, 67, 61
1, 201989, Note_on_c, 0, 35, 31
1, 201990, Note_off_c, 0, 62, 39
1, 201997, Control_c, 0, 64, 68
1, 201997, Control_c, 0, 67, 63
1, 202011, Control_c, 0, 64, 60
1, 202011, Control_c, 0, 67, 65
1, 202026, Control_c, 0, 64, 49
1, 202026, Control_c, 0, 67, 67
1, 202041, Control_c, 0, 64, 34
1, 202041, Control_c, 0, 67, 68
1, 202056, Control_c, 0, 64, 18
1, 202056, Control_c, 0, 67, 68
1, 202071, Control_c, 0, 64, 0
1, 202071, Control_c, 0, 67, 69
1, 202077, Note_on_c, 0, 61, 25
1, 202082, Note_on_c, 0, 64, 35
1, 202086, Control_c, 0, 67, 71
1, 202101, Control_c, 0, 67, 74
1, 202116, Control_c, 0, 64, 14
1, 202116, Control_c, 0, 67, 76
1, 202137, Control_c, 0, 64, 30
1, 202137, Control_c, 0, 67, 77
1, 202152, Control_c, 0, 64, 42
1, 202152, Control_c, 0, 67, 79
1, 202167, Control_c, 0, 64, 53
1, 202167, Control_c, 0, 67, 83
1, 202182, Control_c, 0, 64, 61
1, 202182, Control_c, 0, 67, 89
1, 202197, Control_c, 0, 64, 63
1, 202197, Control_c, 0, 67, 96
1, 202211, Control_c, 0, 64, 63
1, 202211, Control_c, 0, 67, 104
1, 202226, Control_c, 0, 64, 64
1, 202226, Control_c, 0, 67, 112
1, 202241, Control_c, 0, 64, 64
1, 202241, Control_c, 0, 67, 119
1, 202256, Control_c, 0, 64, 65
1, 202256, Control_c, 0, 67, 125
1, 202271, Control_c, 0, 64, 65
1, 202271, Control_c, 0, 67, 127
1, 202286, Control_c, 0, 64, 66
1, 202301, Control_c, 0, 64, 67
1, 202315, Control_c, 0, 64, 67
1, 202318, Note_off_c, 0, 35, 40
1, 202330, Control_c, 0, 64, 69
1, 202345, Control_c, 0, 64, 70
1, 202360, Control_c, 0, 64, 71
1, 202360, Note_off_c, 0, 61, 46
1, 202361, Note_off_c, 0, 64, 41
1, 202375, Control_c, 0, 64, 72
1, 202390, Control_c, 0, 64, 73
1, 202404, Control_c, 0, 64, 74
1, 202419, Control_c, 0, 64, 75
1, 202489, Note_on_c, 0, 63, 40
1, 202491, Note_on_c, 0, 60, 36
1, 202567, Control_c, 0, 64, 74
1, 202582, Control_c, 0, 64, 74
1, 202598, Control_c, 0, 64, 73
1, 202613, Control_c, 0, 64, 72
1, 202627, Control_c, 0, 64, 71
1, 202642, Control_c, 0, 64, 70
1, 202657, Control_c, 0, 64, 69
1, 202672, Control_c, 0, 64, 67
1, 202678, Note_off_c, 0, 60, 41
1, 202687, Control_c, 0, 64, 65
1, 202697, Note_on_c, 0, 42, 32
1, 202701, Control_c, 0, 64, 64
1, 202716, Control_c, 0, 64, 62
1, 202731, Control_c, 0, 64, 60
1, 202745, Control_c, 0, 64, 57
1, 202760, Control_c, 0, 64, 50
1, 202775, Control_c, 0, 64, 39
1, 202787, Note_on_c, 0, 47, 25
1, 202790, Control_c, 0, 64, 29
1, 202806, Control_c, 0, 64, 18
1, 202820, Control_c, 0, 64, 0
1, 202834, Note_on_c, 0, 50, 36
1, 202917, Control_c, 0, 64, 19
1, 202932, Control_c, 0, 64, 23
1, 202938, Note_on_c, 0, 54, 33
1, 202947, Control_c, 0, 64, 25
1, 202961, Control_c, 0, 64, 31
1, 202976, Control_c, 0, 64, 42
1, 202991, Control_c, 0, 64, 48
1, 203006, Control_c, 0, 64, 47
1, 203021, Control_c, 0, 64, 41
1, 203028, Note_on_c, 0, 62, 40
1, 203035, Note_on_c, 0, 59, 26
1, 203035, Control_c, 0, 64, 35
1, 203047, Note_off_c, 0, 63, 39
1, 203050, Control_c, 0, 64, 34
1, 203065, Control_c, 0, 64, 33
1, 203079, Control_c, 0, 64, 26
1, 203094, Control_c, 0, 64, 10
1, 203109, Control_c, 0, 64, 0
1, 203153, Control_c, 0, 64, 33
1, 203168, Control_c, 0, 64, 52
1, 203183, Control_c, 0, 64, 59
1, 203198, Control_c, 0, 64, 60
1, 203213, Control_c, 0, 64, 61
1, 203228, Control_c, 0, 64, 63
1, 203243, Control_c, 0, 64, 64
1, 203257, Control_c, 0, 64, 65
1, 203272, Control_c, 0, 64, 66
1, 203287, Control_c, 0, 64, 66
1, 203299, Note_off_c, 0, 54, 40
1, 203302, Control_c, 0, 64, 67
1, 203317, Control_c, 0, 64, 68
1, 203332, Note_off_c, 0, 50, 39
1, 203332, Control_c, 0, 64, 69
1, 203347, Control_c, 0, 64, 71
1, 203361, Control_c, 0, 64, 72
1, 203376, Control_c, 0, 64, 73
1, 203380, Note_off_c, 0, 47, 42
1, 203391, Control_c, 0, 64, 74
1, 203406, Control_c, 0, 64, 74
1, 203433, Note_off_c, 0, 42, 40
1, 203436, Control_c, 0, 64, 75
1, 203451, Control_c, 0, 64, 75
1, 203466, Control_c, 0, 64, 76
1, 203469, Note_on_c, 0, 66, 41
1, 203481, Control_c, 0, 64, 77
1, 203495, Control_c, 0, 64, 77
1, 203510, Control_c, 0, 64, 78
1, 203540, Control_c, 0, 64, 78
1, 203975, Note_off_c, 0, 59, 32
1, 204049, Control_c, 0, 64, 78
1, 204079, Control_c, 0, 64, 77
1, 204123, Control_c, 0, 64, 77
1, 204153, Control_c, 0, 64, 76
1, 204168, Control_c, 0, 64, 76
1, 204198, Control_c, 0, 64, 75
1, 204213, Control_c, 0, 64, 75
1, 204243, Control_c, 0, 64, 74
1, 204287, Control_c, 0, 64, 74
1, 204361, Control_c, 0, 64, 73
1, 204458, Control_c, 0, 64, 73
1, 204546, Control_c, 0, 64, 72
1, 204686, Note_on_c, 0, 35, 28
1, 204694, Control_c, 0, 64, 72
1, 204697, Note_on_c, 0, 23, 34
1, 204739, Control_c, 0, 64, 71
1, 204798, Control_c, 0, 64, 71
1, 204828, Control_c, 0, 64, 70
1, 204902, Control_c, 0, 64, 70
1, 205177, Control_c, 0, 64, 69
1, 205409, Note_off_c, 0, 35, 26
1, 205518, Note_off_c, 0, 23, 31
1, 205940, Control_c, 0, 64, 69
1, 206250, Control_c, 0, 64, 68
1, 206325, Control_c, 0, 64, 68
1, 206399, Control_c, 0, 64, 67
1, 206443, Control_c, 0, 64, 67
1, 206487, Control_c, 0, 64, 66
1, 206532, Control_c, 0, 64, 66
1, 206577, Control_c, 0, 64, 65
1, 206645, Control_c, 0, 64, 65
1, 206689, Control_c, 0, 64, 64
1, 206882, Control_c, 0, 64, 64
1, 206971, Control_c, 0, 64, 63
1, 207082, Note_off_c, 0, 66, 32
1, 207104, Control_c, 0, 64, 63
1, 207110, Note_off_c, 0, 62, 38
1, 207115, Note_on_c, 0, 35, 10
1, 207136, Note_on_c, 0, 23, 17
1, 207163, Control_c, 0, 64, 62
1, 207207, Control_c, 0, 64, 62
1, 207252, Control_c, 0, 64, 61
1, 207267, Control_c, 0, 64, 61
1, 207282, Control_c, 0, 64, 60
1, 207556, Control_c, 0, 64, 60
1, 207586, Control_c, 0, 64, 59
1, 207660, Control_c, 0, 64, 59
1, 207690, Control_c, 0, 64, 58
1, 207735, Control_c, 0, 64, 58
1, 207779, Control_c, 0, 64, 57
1, 207912, Control_c, 0, 64, 57
1, 208424, Control_c, 0, 64, 56
1, 208602, Control_c, 0, 64, 56
1, 208764, Control_c, 0, 64, 55
1, 208809, Control_c, 0, 64, 55
1, 208935, Control_c, 0, 64, 54
1, 209073, Note_off_c, 0, 35, 1
1, 209113, Control_c, 0, 64, 54
1, 209350, Control_c, 0, 64, 53
1, 209454, Control_c, 0, 64, 53
1, 209863, Control_c, 0, 64, 52
1, 209908, Control_c, 0, 64, 52
1, 209952, Control_c, 0, 64, 51
1, 209982, Control_c, 0, 64, 51
1, 210026, Control_c, 0, 64, 50
1, 210056, Control_c, 0, 64, 50
1, 210218, Control_c, 0, 64, 49
1, 210233, Control_c, 0, 64, 49
1, 210248, Control_c, 0, 64, 48
1, 210292, Control_c, 0, 64, 48
1, 210307, Control_c, 0, 64, 47
1, 210322, Control_c, 0, 64, 47
1, 210336, Control_c, 0, 64, 46
1, 210388, Control_c, 0, 64, 46
1, 210403, Control_c, 0, 64, 45
1, 210418, Control_c, 0, 64, 44
1, 210432, Control_c, 0, 64, 44
1, 210459, Note_off_c, 0, 23, 1
1, 210492, Control_c, 0, 64, 43
1, 210507, Control_c, 0, 64, 42
1, 210522, Control_c, 0, 64, 41
1, 210581, Control_c, 0, 64, 40
1, 210596, Control_c, 0, 64, 39
1, 210611, Control_c, 0, 64, 38
1, 210626, Control_c, 0, 64, 38
1, 210656, Control_c, 0, 64, 37
1, 210671, Control_c, 0, 64, 36
1, 210686, Control_c, 0, 64, 34
1, 210700, Control_c, 0, 64, 32
1, 210715, Control_c, 0, 64, 31
1, 210745, Control_c, 0, 64, 29
1, 210760, Control_c, 0, 64, 27
1, 210774, Control_c, 0, 64, 24
1, 210789, Control_c, 0, 64, 22
1, 210804, Control_c, 0, 64, 22
1, 210834, Control_c, 0, 64, 21
1, 210848, Control_c, 0, 64, 19
1, 210863, Control_c, 0, 64, 17
1, 210878, Control_c, 0, 64, 16
1, 210892, Control_c, 0, 64, 15
1, 210922, Control_c, 0, 64, 15
1, 210937, Control_c, 0, 64, 14
1, 210952, Control_c, 0, 64, 12
1, 210966, Control_c, 0, 64, 11
1, 210981, Control_c, 0, 64, 11
1, 210996, Control_c, 0, 64, 9
1, 211011, Control_c, 0, 64, 0
1, 212435, Control_c, 0, 67, 127
1, 212450, Control_c, 0, 67, 120
1, 212464, Control_c, 0, 67, 117
1, 212479, Control_c, 0, 67, 114
1, 212494, Control_c, 0, 67, 110
1, 212509, Control_c, 0, 67, 104
1, 212524, Control_c, 0, 67, 97
1, 212538, Control_c, 0, 67, 90
1, 212553, Control_c, 0, 67, 86
1, 212568, Control_c, 0, 67, 84
1, 212583, Control_c, 0, 67, 80
1, 212598, Control_c, 0, 67, 77
1, 212620, Control_c, 0, 67, 73
1, 212635, Control_c, 0, 67, 68
1, 212650, Control_c, 0, 67, 63
1, 212664, Control_c, 0, 67, 58
1, 212679, Control_c, 0, 67, 54
1, 212694, Control_c, 0, 67, 51
1, 212709, Control_c, 0, 67, 49
1, 212724, Control_c, 0, 67, 46
1, 212738, Control_c, 0, 67, 43
1, 212753, Control_c, 0, 67, 39
1, 212768, Control_c, 0, 67, 35
1, 212783, Control_c, 0, 67, 33
1, 212798, Control_c, 0, 67, 30
1, 212812, Control_c, 0, 67, 25
1, 212827, Control_c, 0, 67, 19
1, 212842, Control_c, 0, 67, 14
1, 212857, Control_c, 0, 67, 10
1, 212871, Control_c, 0, 67, 0
1, 212946, End_track
0, 0, End_of_file
