0, 0, Header, 0, 1, 384
1, 0, Start_track
1, 0, Title_t, "Wild Jadg--Lindsay Garritson    "
1, 0, Text_t, "2009 Piano-e-Competition audition round"
1, 0, Text_t, "captured January 2009"
1, 0, Text_t, "http://www.piano-e-competition.com/"
1, 0, Text_t, "File processed for distribution by software from Zenph Studios, Inc., http://www.zenph.com"
1, 0, Instrument_name_t, "Yamaha Disklavier Pro Mark IV concert grand piano, model DCFIIISM4PRO"
1, 0, Sequencer_specific, 39, 67, 113, 0, 1, 0, 1, 0, 87, 105, 108, 100, 32, 74, 97, 100, 103, 32, 32, 32, 32, 32, 32, 32, 76, 105, 110, 100, 115, 97, 121, 71, 97, 114, 114, 105, 116, 115, 111, 110
1, 0, Sequencer_specific, 6, 67, 113, 0, 0, 0, 69
1, 0, System_exclusive, 21, 67, 113, 126, 21, 0, 2, 2, 0, 3, 14, 1, 4, 1, 13, 13, 10, 11, 9, 2, 7, 247
1, 0, Sequencer_specific, 5, 67, 123, 12, 2, 1
1, 0, Tempo, 512820
1, 0, Time_signature, 4, 2, 24, 8
1, 0, System_exclusive, 5, 126, 127, 9, 1, 247
1, 1, System_exclusive, 8, 67, 16, 76, 0, 0, 126, 0, 247
1, 2, System_exclusive, 8, 67, 16, 76, 8, 9, 7, 1, 247
1, 3, Control_c, 0, 0, 0
1, 3, Control_c, 1, 0, 0
1, 3, Control_c, 2, 0, 0
1, 3, Control_c, 3, 0, 0
1, 3, Control_c, 4, 0, 0
1, 3, Control_c, 5, 0, 0
1, 3, Control_c, 6, 0, 0
1, 3, Control_c, 7, 0, 0
1, 3, Control_c, 8, 0, 0
1, 3, Control_c, 9, 0, 127
1, 3, Control_c, 10, 0, 0
1, 3, Control_c, 11, 0, 0
1, 3, Control_c, 12, 0, 0
1, 3, Control_c, 13, 0, 0
1, 3, Control_c, 14, 0, 0
1, 3, Control_c, 15, 0, 0
1, 4, Control_c, 0, 32, 0
1, 4, Control_c, 1, 32, 0
1, 4, Control_c, 2, 32, 0
1, 4, Control_c, 3, 32, 0
1, 4, Control_c, 4, 32, 0
1, 4, Control_c, 5, 32, 0
1, 4, Control_c, 6, 32, 0
1, 4, Control_c, 7, 32, 0
1, 4, Control_c, 8, 32, 0
1, 4, Control_c, 9, 32, 0
1, 4, Control_c, 10, 32, 0
1, 4, Control_c, 11, 32, 0
1, 4, Control_c, 12, 32, 0
1, 4, Control_c, 13, 32, 0
1, 4, Control_c, 14, 32, 0
1, 4, Control_c, 15, 32, 0
1, 5, Program_c, 0, 0
1, 5, Program_c, 1, 0
1, 5, Program_c, 2, 0
1, 5, Program_c, 3, 0
1, 5, Program_c, 4, 0
1, 5, Program_c, 5, 0
1, 5, Program_c, 6, 0
1, 5, Program_c, 7, 0
1, 5, Program_c, 8, 0
1, 5, Program_c, 9, 0
1, 5, Program_c, 10, 0
1, 5, Program_c, 11, 0
1, 5, Program_c, 12, 0
1, 5, Program_c, 13, 0
1, 5, Program_c, 14, 0
1, 5, Program_c, 15, 0
1, 6, Control_c, 0, 7, 100
1, 6, Control_c, 1, 7, 100
1, 6, Control_c, 2, 7, 100
1, 6, Control_c, 3, 7, 100
1, 6, Control_c, 4, 7, 100
1, 6, Control_c, 5, 7, 100
1, 6, Control_c, 6, 7, 100
1, 6, Control_c, 7, 7, 100
1, 6, Control_c, 8, 7, 100
1, 6, Control_c, 9, 7, 100
1, 6, Control_c, 10, 7, 100
1, 6, Control_c, 11, 7, 100
1, 6, Control_c, 12, 7, 100
1, 6, Control_c, 13, 7, 100
1, 6, Control_c, 14, 7, 100
1, 6, Control_c, 15, 7, 100
1, 117, Control_c, 0, 64, 5
1, 229, Control_c, 0, 64, 10
1, 341, Control_c, 0, 64, 15
1, 452, Control_c, 0, 64, 21
1, 564, Control_c, 0, 64, 25
1, 676, Control_c, 0, 64, 31
1, 787, Control_c, 0, 64, 35
1, 899, Control_c, 0, 64, 42
1, 1129, Note_on_c, 0, 36, 85
1, 1130, Note_on_c, 0, 24, 85
1, 1133, Control_c, 0, 64, 58
1, 1148, Control_c, 0, 64, 73
1, 1162, Control_c, 0, 64, 105
1, 1170, Note_off_c, 0, 36, 60
1, 1172, Note_off_c, 0, 24, 64
1, 1177, Control_c, 0, 64, 127
1, 1257, Note_on_c, 0, 48, 86
1, 1295, Note_off_c, 0, 48, 65
1, 1353, Note_on_c, 0, 31, 86
1, 1353, Note_on_c, 0, 43, 86
1, 1389, Note_off_c, 0, 43, 66
1, 1400, Note_off_c, 0, 31, 65
1, 1420, Note_on_c, 0, 55, 83
1, 1468, Note_off_c, 0, 55, 65
1, 1490, Note_on_c, 0, 41, 94
1, 1491, Note_on_c, 0, 29, 88
1, 1514, Note_off_c, 0, 41, 68
1, 1525, Note_off_c, 0, 29, 64
1, 1537, Note_on_c, 0, 53, 88
1, 1579, Note_off_c, 0, 53, 67
1, 1593, Note_on_c, 0, 39, 92
1, 1595, Note_on_c, 0, 27, 99
1, 1630, Note_off_c, 0, 39, 62
1, 1649, Note_on_c, 0, 40, 20
1, 1653, Note_on_c, 0, 51, 105
1, 1661, Note_off_c, 0, 27, 58
1, 1670, Note_on_c, 0, 34, 3
1, 1689, Note_off_c, 0, 34, 47
1, 1697, Note_off_c, 0, 40, 52
1, 1703, Note_on_c, 0, 38, 93
1, 1706, Note_off_c, 0, 51, 66
1, 1708, Note_on_c, 0, 26, 83
1, 1722, Note_on_c, 0, 27, 43
1, 1740, Note_off_c, 0, 27, 57
1, 1742, Note_off_c, 0, 38, 62
1, 1747, Note_off_c, 0, 26, 63
1, 1767, Note_on_c, 0, 50, 94
1, 1791, Poly_aftertouch_c, 0, 32, 0
1, 1803, Note_off_c, 0, 50, 62
1, 1817, Note_on_c, 0, 36, 106
1, 1821, Note_on_c, 0, 24, 101
1, 1824, Poly_aftertouch_c, 0, 32, 0
1, 1833, Note_on_c, 0, 25, 75
1, 1852, Note_off_c, 0, 24, 68
1, 1860, Note_off_c, 0, 36, 61
1, 1862, Note_off_c, 0, 25, 59
1, 1868, Note_on_c, 0, 48, 94
1, 1883, Poly_aftertouch_c, 0, 27, 0
1, 1898, Note_off_c, 0, 48, 67
1, 2009, Note_on_c, 0, 54, 35
1, 2058, Note_off_c, 0, 54, 44
1, 2074, Control_c, 0, 64, 50
1, 2089, Control_c, 0, 64, 0
1, 2101, Note_on_c, 0, 72, 98
1, 2102, Note_on_c, 0, 84, 99
1, 2103, Note_on_c, 0, 60, 110
1, 2104, Note_on_c, 0, 75, 98
1, 2105, Note_on_c, 0, 55, 87
1, 2113, Note_on_c, 0, 51, 88
1, 2115, Note_on_c, 0, 48, 98
1, 2139, Note_on_c, 0, 74, 55
1, 2140, Note_off_c, 0, 74, 127
1, 2140, Note_on_c, 0, 80, 53
1, 2142, Note_off_c, 0, 72, 65
1, 2148, Note_off_c, 0, 75, 63
1, 2151, Note_off_c, 0, 84, 68
1, 2154, Note_off_c, 0, 80, 44
1, 2156, Control_c, 0, 64, 43
1, 2157, Note_off_c, 0, 60, 58
1, 2171, Control_c, 0, 64, 67
1, 2172, Note_off_c, 0, 55, 65
1, 2179, Note_off_c, 0, 48, 60
1, 2182, Note_off_c, 0, 51, 63
1, 2186, Control_c, 0, 64, 127
1, 2375, Note_on_c, 0, 75, 79
1, 2375, Note_on_c, 0, 72, 86
1, 2376, Note_on_c, 0, 55, 76
1, 2378, Note_on_c, 0, 60, 72
1, 2380, Note_on_c, 0, 67, 77
1, 2382, Note_on_c, 0, 79, 71
1, 2391, Note_on_c, 0, 51, 51
1, 2392, Note_off_c, 0, 60, 73
1, 2393, Note_off_c, 0, 72, 73
1, 2393, Note_off_c, 0, 75, 70
1, 2399, Note_off_c, 0, 79, 68
1, 2400, Note_off_c, 0, 67, 74
1, 2401, Note_off_c, 0, 55, 67
1, 2408, Note_off_c, 0, 51, 66
1, 2428, Note_on_c, 0, 60, 104
1, 2431, Note_on_c, 0, 48, 97
1, 2431, Note_on_c, 0, 67, 93
1, 2431, Note_on_c, 0, 72, 92
1, 2434, Note_on_c, 0, 55, 77
1, 2439, Note_on_c, 0, 79, 83
1, 2442, Note_on_c, 0, 75, 77
1, 2443, Note_on_c, 0, 51, 74
1, 2444, Note_off_c, 0, 60, 72
1, 2449, Note_off_c, 0, 67, 73
1, 2453, Note_off_c, 0, 55, 74
1, 2455, Note_off_c, 0, 72, 64
1, 2461, Note_off_c, 0, 75, 70
1, 2463, Note_off_c, 0, 79, 66
1, 2467, Note_off_c, 0, 51, 68
1, 2470, Note_off_c, 0, 48, 63
1, 2713, Note_on_c, 0, 56, 83
1, 2713, Note_on_c, 0, 68, 93
1, 2722, Note_on_c, 0, 60, 83
1, 2735, Note_on_c, 0, 63, 62
1, 2737, Note_off_c, 0, 60, 77
1, 2738, Note_on_c, 0, 75, 54
1, 2739, Note_off_c, 0, 56, 64
1, 2742, Note_on_c, 0, 48, 46
1, 2765, Note_off_c, 0, 63, 0
1, 2765, Note_on_c, 0, 63, 77
1, 2769, Note_on_c, 0, 55, 21
1, 2771, Note_off_c, 0, 75, 0
1, 2771, Note_on_c, 0, 75, 73
1, 2774, Note_on_c, 0, 67, 93
1, 2779, Note_off_c, 0, 48, 0
1, 2779, Note_on_c, 0, 48, 75
1, 2780, Note_on_c, 0, 60, 95
1, 2783, Note_on_c, 0, 52, 20
1, 2810, Note_off_c, 0, 67, 68
1, 2812, Note_off_c, 0, 60, 52
1, 2819, Note_off_c, 0, 68, 27
1, 2821, Note_off_c, 0, 52, 64
1, 2822, Note_off_c, 0, 63, 61
1, 2822, Note_off_c, 0, 75, 65
1, 2831, Note_off_c, 0, 55, 66
1, 2837, Note_off_c, 0, 48, 65
1, 2931, Note_on_c, 0, 54, 60
1, 2955, Note_off_c, 0, 54, 66
1, 3032, Note_on_c, 0, 60, 96
1, 3033, Note_on_c, 0, 67, 89
1, 3036, Note_on_c, 0, 55, 80
1, 3036, Note_on_c, 0, 72, 82
1, 3036, Poly_aftertouch_c, 0, 66, 0
1, 3039, Note_on_c, 0, 63, 75
1, 3040, Note_on_c, 0, 51, 73
1, 3046, Note_on_c, 0, 48, 66
1, 3048, Note_off_c, 0, 60, 75
1, 3054, Note_off_c, 0, 67, 73
1, 3055, Note_off_c, 0, 72, 69
1, 3056, Note_off_c, 0, 63, 69
1, 3062, Note_off_c, 0, 51, 69
1, 3063, Note_off_c, 0, 55, 69
1, 3066, Note_off_c, 0, 48, 65
1, 3097, Note_on_c, 0, 63, 98
1, 3098, Note_on_c, 0, 60, 101
1, 3099, Note_on_c, 0, 55, 81
1, 3099, Note_on_c, 0, 72, 86
1, 3101, Note_on_c, 0, 67, 91
1, 3102, Note_on_c, 0, 48, 88
1, 3108, Note_on_c, 0, 51, 76
1, 3134, Note_off_c, 0, 60, 66
1, 3150, Note_off_c, 0, 63, 59
1, 3150, Note_off_c, 0, 72, 62
1, 3153, Note_off_c, 0, 48, 65
1, 3163, Note_off_c, 0, 51, 61
1, 3168, Note_off_c, 0, 67, 61
1, 3169, Note_off_c, 0, 55, 65
1, 3201, Control_c, 0, 64, 110
1, 3215, Control_c, 0, 64, 54
1, 3221, Note_on_c, 0, 55, 83
1, 3221, Note_on_c, 0, 59, 98
1, 3222, Note_on_c, 0, 63, 104
1, 3222, Note_on_c, 0, 67, 89
1, 3225, Note_on_c, 0, 51, 83
1, 3227, Note_on_c, 0, 71, 87
1, 3230, Control_c, 0, 64, 0
1, 3233, Note_on_c, 0, 48, 70
1, 3251, Note_off_c, 0, 59, 68
1, 3257, Note_off_c, 0, 63, 63
1, 3260, Note_off_c, 0, 67, 67
1, 3263, Note_off_c, 0, 48, 64
1, 3273, Note_off_c, 0, 71, 58
1, 3275, Note_off_c, 0, 51, 65
1, 3288, Note_off_c, 0, 55, 64
1, 3382, Note_on_c, 0, 63, 103
1, 3382, Note_on_c, 0, 67, 92
1, 3384, Note_on_c, 0, 72, 93
1, 3385, Note_on_c, 0, 60, 99
1, 3385, Note_on_c, 0, 55, 92
1, 3389, Note_on_c, 0, 48, 89
1, 3390, Note_on_c, 0, 51, 83
1, 3411, Note_off_c, 0, 63, 62
1, 3413, Note_off_c, 0, 60, 73
1, 3413, Note_off_c, 0, 67, 72
1, 3415, Note_off_c, 0, 72, 68
1, 3422, Note_off_c, 0, 55, 69
1, 3433, Note_off_c, 0, 51, 67
1, 3438, Note_off_c, 0, 48, 69
1, 3736, Note_on_c, 0, 35, 85
1, 3738, Note_on_c, 0, 38, 93
1, 3758, Control_c, 0, 64, 33
1, 3765, Note_off_c, 0, 35, 69
1, 3767, Note_off_c, 0, 38, 67
1, 3772, Control_c, 0, 64, 56
1, 3787, Control_c, 0, 64, 76
1, 3802, Control_c, 0, 64, 127
1, 3825, Note_on_c, 0, 47, 79
1, 3829, Note_on_c, 0, 50, 77
1, 3859, Note_off_c, 0, 50, 63
1, 3863, Note_off_c, 0, 47, 64
1, 3898, Note_on_c, 0, 44, 98
1, 3943, Note_off_c, 0, 44, 63
1, 3960, Note_on_c, 0, 56, 81
1, 4008, Note_off_c, 0, 56, 66
1, 4019, Note_on_c, 0, 43, 98
1, 4063, Note_off_c, 0, 43, 64
1, 4074, Note_on_c, 0, 55, 83
1, 4108, Note_on_c, 0, 53, 36
1, 4120, Note_off_c, 0, 55, 65
1, 4131, Note_on_c, 0, 41, 105
1, 4141, Note_off_c, 0, 53, 56
1, 4172, Note_on_c, 0, 53, 92
1, 4177, Note_off_c, 0, 41, 65
1, 4223, Note_off_c, 0, 53, 67
1, 4246, Note_on_c, 0, 39, 89
1, 4268, Note_on_c, 0, 51, 103
1, 4300, Note_off_c, 0, 39, 64
1, 4308, Note_off_c, 0, 51, 67
1, 4329, Note_on_c, 0, 38, 78
1, 4377, Note_on_c, 0, 50, 106
1, 4384, Note_off_c, 0, 38, 62
1, 4399, Note_off_c, 0, 50, 70
1, 4505, Note_on_c, 0, 47, 75
1, 4551, Control_c, 0, 64, 72
1, 4557, Note_on_c, 0, 53, 57
1, 4563, Note_off_c, 0, 47, 62
1, 4566, Control_c, 0, 64, 0
1, 4575, Note_on_c, 0, 56, 86
1, 4590, Note_on_c, 0, 62, 98
1, 4593, Note_on_c, 0, 77, 97
1, 4594, Note_on_c, 0, 74, 93
1, 4595, Note_on_c, 0, 86, 104
1, 4610, Control_c, 0, 64, 25
1, 4621, Note_on_c, 0, 51, 25
1, 4622, Note_off_c, 0, 86, 68
1, 4625, Note_off_c, 0, 77, 69
1, 4625, Control_c, 0, 64, 54
1, 4628, Note_off_c, 0, 53, 64
1, 4630, Note_off_c, 0, 56, 66
1, 4632, Note_off_c, 0, 74, 67
1, 4639, Control_c, 0, 64, 127
1, 4651, Note_off_c, 0, 62, 55
1, 4661, Note_off_c, 0, 51, 30
1, 4813, Note_on_c, 0, 53, 73
1, 4816, Note_on_c, 0, 68, 84
1, 4818, Note_on_c, 0, 80, 81
1, 4819, Note_on_c, 0, 56, 68
1, 4819, Note_on_c, 0, 74, 74
1, 4834, Note_off_c, 0, 68, 70
1, 4836, Note_off_c, 0, 80, 71
1, 4837, Note_off_c, 0, 56, 68
1, 4837, Note_off_c, 0, 74, 74
1, 4839, Note_off_c, 0, 53, 69
1, 4860, Note_on_c, 0, 47, 64
1, 4867, Note_on_c, 0, 68, 95
1, 4867, Poly_aftertouch_c, 0, 74, 0
1, 4870, Note_on_c, 0, 80, 95
1, 4872, Note_on_c, 0, 56, 107
1, 4873, Note_on_c, 0, 74, 77
1, 4875, Note_on_c, 0, 53, 83
1, 4894, Note_off_c, 0, 74, 72
1, 4896, Note_off_c, 0, 53, 72
1, 4896, Note_off_c, 0, 56, 67
1, 4906, Note_off_c, 0, 47, 64
1, 4907, Note_off_c, 0, 80, 66
1, 4908, Note_off_c, 0, 68, 63
1, 5171, Note_on_c, 0, 56, 76
1, 5174, Note_on_c, 0, 62, 78
1, 5176, Note_on_c, 0, 53, 68
1, 5176, Note_on_c, 0, 68, 96
1, 5179, Note_on_c, 0, 65, 84
1, 5180, Note_on_c, 0, 77, 86
1, 5189, Note_off_c, 0, 68, 74
1, 5191, Note_off_c, 0, 56, 71
1, 5198, Note_off_c, 0, 65, 74
1, 5198, Note_off_c, 0, 77, 72
1, 5198, Note_off_c, 0, 62, 69
1, 5204, Note_off_c, 0, 53, 69
1, 5227, Note_on_c, 0, 62, 97
1, 5229, Note_on_c, 0, 68, 103
1, 5231, Note_on_c, 0, 56, 94
1, 5231, Note_on_c, 0, 77, 94
1, 5232, Note_on_c, 0, 65, 87
1, 5238, Note_on_c, 0, 53, 71
1, 5254, Note_off_c, 0, 62, 66
1, 5254, Note_off_c, 0, 56, 66
1, 5254, Note_off_c, 0, 65, 66
1, 5257, Note_off_c, 0, 53, 74
1, 5258, Note_off_c, 0, 77, 61
1, 5262, Note_off_c, 0, 68, 65
1, 5481, Note_on_c, 0, 53, 67
1, 5482, Note_on_c, 0, 56, 77
1, 5486, Note_on_c, 0, 62, 65
1, 5487, Note_on_c, 0, 68, 87
1, 5489, Note_on_c, 0, 47, 67
1, 5505, Note_off_c, 0, 56, 68
1, 5508, Note_on_c, 0, 74, 52
1, 5509, Note_off_c, 0, 68, 68
1, 5510, Note_off_c, 0, 47, 67
1, 5512, Note_off_c, 0, 53, 66
1, 5515, Note_off_c, 0, 62, 64
1, 5544, Note_on_c, 0, 56, 96
1, 5544, Note_off_c, 0, 74, 0
1, 5544, Note_on_c, 0, 74, 65
1, 5545, Note_on_c, 0, 62, 90
1, 5547, Note_on_c, 0, 53, 72
1, 5548, Note_on_c, 0, 68, 95
1, 5553, Note_on_c, 0, 47, 81
1, 5568, Note_off_c, 0, 68, 61
1, 5574, Note_off_c, 0, 74, 67
1, 5581, Note_off_c, 0, 62, 63
1, 5581, Note_off_c, 0, 56, 66
1, 5588, Note_off_c, 0, 47, 62
1, 5599, Note_off_c, 0, 53, 66
1, 5640, Control_c, 0, 64, 111
1, 5654, Control_c, 0, 64, 64
1, 5666, Note_on_c, 0, 61, 104
1, 5666, Note_on_c, 0, 73, 98
1, 5668, Note_on_c, 0, 56, 105
1, 5669, Note_on_c, 0, 68, 95
1, 5669, Control_c, 0, 64, 32
1, 5672, Note_on_c, 0, 52, 86
1, 5675, Note_on_c, 0, 47, 88
1, 5684, Note_off_c, 0, 61, 72
1, 5684, Control_c, 0, 64, 0
1, 5685, Note_off_c, 0, 68, 72
1, 5701, Note_on_c, 0, 60, 45
1, 5702, Note_off_c, 0, 60, 127
1, 5702, Note_off_c, 0, 56, 66
1, 5707, Note_off_c, 0, 73, 67
1, 5713, Note_off_c, 0, 52, 70
1, 5722, Note_off_c, 0, 47, 65
1, 5836, Note_on_c, 0, 74, 97
1, 5838, Note_on_c, 0, 62, 94
1, 5839, Note_on_c, 0, 56, 90
1, 5839, Note_on_c, 0, 47, 84
1, 5839, Note_on_c, 0, 53, 74
1, 5842, Note_on_c, 0, 68, 92
1, 5871, Note_off_c, 0, 62, 65
1, 5874, Note_off_c, 0, 56, 67
1, 5879, Note_off_c, 0, 68, 63
1, 5880, Note_off_c, 0, 53, 68
1, 5886, Note_off_c, 0, 74, 70
1, 5893, Note_off_c, 0, 47, 69
1, 6315, Control_c, 0, 64, 11
1, 6328, Note_on_c, 0, 75, 79
1, 6330, Control_c, 0, 64, 31
1, 6334, Note_on_c, 0, 63, 72
1, 6338, Note_on_c, 0, 36, 67
1, 6342, Note_on_c, 0, 48, 75
1, 6345, Control_c, 0, 64, 41
1, 6345, Note_on_c, 0, 66, 37
1, 6346, Note_off_c, 0, 66, 127
1, 6349, Note_off_c, 0, 75, 70
1, 6356, Note_off_c, 0, 63, 66
1, 6359, Control_c, 0, 64, 54
1, 6367, Note_off_c, 0, 36, 62
1, 6369, Note_on_c, 0, 43, 20
1, 6369, Note_off_c, 0, 48, 67
1, 6374, Control_c, 0, 64, 65
1, 6389, Control_c, 0, 64, 72
1, 6403, Control_c, 0, 64, 75
1, 6417, Note_off_c, 0, 43, 51
1, 6463, Control_c, 0, 64, 76
1, 6477, Control_c, 0, 64, 78
1, 6492, Control_c, 0, 64, 80
1, 6497, Note_on_c, 0, 48, 60
1, 6500, Note_on_c, 0, 60, 68
1, 6507, Control_c, 0, 64, 81
1, 6522, Control_c, 0, 64, 81
1, 6537, Note_on_c, 0, 50, 66
1, 6542, Note_on_c, 0, 62, 82
1, 6561, Note_off_c, 0, 48, 62
1, 6566, Note_on_c, 0, 63, 74
1, 6568, Note_off_c, 0, 60, 64
1, 6577, Note_on_c, 0, 51, 62
1, 6582, Control_c, 0, 64, 81
1, 6597, Control_c, 0, 64, 75
1, 6599, Note_on_c, 0, 53, 57
1, 6602, Note_on_c, 0, 65, 72
1, 6615, Note_on_c, 0, 55, 70
1, 6620, Control_c, 0, 64, 65
1, 6622, Note_off_c, 0, 62, 63
1, 6623, Note_off_c, 0, 50, 62
1, 6626, Note_off_c, 0, 63, 65
1, 6629, Note_on_c, 0, 67, 84
1, 6634, Note_off_c, 0, 65, 70
1, 6634, Note_off_c, 0, 53, 68
1, 6634, Control_c, 0, 64, 54
1, 6637, Note_off_c, 0, 51, 64
1, 6638, Note_off_c, 0, 55, 69
1, 6646, Note_off_c, 0, 67, 74
1, 6649, Control_c, 0, 64, 29
1, 6664, Control_c, 0, 64, 0
1, 6765, Note_on_c, 0, 77, 94
1, 6771, Note_on_c, 0, 44, 77
1, 6774, Note_on_c, 0, 72, 71
1, 6776, Note_on_c, 0, 32, 63
1, 6785, Note_on_c, 0, 65, 49
1, 6786, Note_off_c, 0, 65, 127
1, 6786, Note_off_c, 0, 77, 67
1, 6789, Note_off_c, 0, 72, 68
1, 6798, Note_off_c, 0, 44, 65
1, 6801, Note_on_c, 0, 41, 24
1, 6808, Note_off_c, 0, 32, 63
1, 6846, Note_off_c, 0, 41, 51
1, 6897, Note_on_c, 0, 44, 69
1, 6898, Note_on_c, 0, 84, 92
1, 6901, Note_on_c, 0, 72, 75
1, 6906, Note_on_c, 0, 75, 73
1, 6909, Note_on_c, 0, 32, 53
1, 6916, Note_off_c, 0, 72, 68
1, 6923, Note_off_c, 0, 75, 68
1, 6930, Note_off_c, 0, 44, 64
1, 6932, Note_off_c, 0, 84, 64
1, 6938, Note_off_c, 0, 32, 59
1, 6984, Poly_aftertouch_c, 0, 41, 127
1, 7028, Poly_aftertouch_c, 0, 41, 0
1, 7038, Note_on_c, 0, 84, 92
1, 7040, Note_on_c, 0, 46, 87
1, 7041, Note_on_c, 0, 74, 87
1, 7049, Control_c, 0, 64, 23
1, 7053, Note_on_c, 0, 41, 19
1, 7054, Note_off_c, 0, 74, 77
1, 7054, Note_off_c, 0, 84, 75
1, 7056, Note_on_c, 0, 34, 56
1, 7064, Control_c, 0, 64, 44
1, 7067, Note_on_c, 0, 72, 43
1, 7067, Note_off_c, 0, 46, 67
1, 7079, Control_c, 0, 64, 60
1, 7086, Note_off_c, 0, 34, 53
1, 7094, Control_c, 0, 64, 75
1, 7094, Note_off_c, 0, 72, 60
1, 7102, Note_off_c, 0, 41, 37
1, 7108, Control_c, 0, 64, 94
1, 7123, Control_c, 0, 64, 97
1, 7138, Control_c, 0, 64, 100
1, 7153, Control_c, 0, 64, 107
1, 7168, Control_c, 0, 64, 127
1, 7197, Note_on_c, 0, 53, 64
1, 7202, Note_on_c, 0, 65, 71
1, 7237, Note_on_c, 0, 51, 63
1, 7240, Note_on_c, 0, 63, 89
1, 7258, Note_off_c, 0, 65, 64
1, 7259, Note_off_c, 0, 53, 62
1, 7263, Note_on_c, 0, 50, 81
1, 7272, Note_on_c, 0, 62, 68
1, 7275, Note_off_c, 0, 51, 65
1, 7294, Note_on_c, 0, 60, 80
1, 7308, Note_on_c, 0, 48, 63
1, 7317, Note_on_c, 0, 46, 80
1, 7328, Note_off_c, 0, 62, 63
1, 7330, Note_on_c, 0, 58, 78
1, 7330, Note_off_c, 0, 50, 64
1, 7334, Note_off_c, 0, 48, 67
1, 7341, Note_off_c, 0, 46, 71
1, 7343, Note_off_c, 0, 63, 60
1, 7349, Note_off_c, 0, 60, 65
1, 7361, Note_off_c, 0, 58, 69
1, 7413, Control_c, 0, 64, 93
1, 7427, Control_c, 0, 64, 63
1, 7442, Control_c, 0, 64, 33
1, 7457, Control_c, 0, 64, 0
1, 7486, Note_on_c, 0, 73, 88
1, 7487, Note_on_c, 0, 82, 93
1, 7494, Note_on_c, 0, 70, 70
1, 7496, Note_on_c, 0, 43, 60
1, 7499, Note_on_c, 0, 31, 61
1, 7499, Note_on_c, 0, 39, 57
1, 7502, Note_off_c, 0, 73, 75
1, 7504, Note_off_c, 0, 82, 74
1, 7510, Note_off_c, 0, 70, 68
1, 7524, Note_off_c, 0, 43, 57
1, 7526, Note_off_c, 0, 39, 55
1, 7530, Note_off_c, 0, 31, 63
1, 7532, Note_on_c, 0, 80, 14
1, 7533, Note_off_c, 0, 80, 127
1, 7618, Note_on_c, 0, 43, 72
1, 7618, Note_on_c, 0, 74, 87
1, 7620, Note_on_c, 0, 87, 88
1, 7621, Note_on_c, 0, 31, 72
1, 7622, Note_on_c, 0, 82, 86
1, 7638, Note_off_c, 0, 74, 68
1, 7651, Note_on_c, 0, 85, 40
1, 7652, Note_off_c, 0, 85, 127
1, 7657, Note_off_c, 0, 43, 61
1, 7660, Note_on_c, 0, 40, 25
1, 7663, Note_off_c, 0, 87, 64
1, 7663, Note_off_c, 0, 31, 65
1, 7693, Note_off_c, 0, 82, 56
1, 7705, Note_off_c, 0, 40, 50
1, 7761, Note_on_c, 0, 39, 77
1, 7761, Note_on_c, 0, 44, 95
1, 7761, Note_on_c, 0, 87, 88
1, 7763, Note_on_c, 0, 80, 90
1, 7767, Note_on_c, 0, 32, 74
1, 7767, Note_on_c, 0, 72, 84
1, 7777, Note_off_c, 0, 87, 75
1, 7779, Note_off_c, 0, 80, 74
1, 7782, Control_c, 0, 64, 27
1, 7783, Note_off_c, 0, 39, 68
1, 7784, Note_off_c, 0, 72, 74
1, 7796, Note_off_c, 0, 44, 66
1, 7797, Note_off_c, 0, 32, 65
1, 7797, Control_c, 0, 64, 48
1, 7812, Control_c, 0, 64, 67
1, 7827, Control_c, 0, 64, 101
1, 7842, Control_c, 0, 64, 127
1, 7920, Note_on_c, 0, 44, 63
1, 7948, Note_on_c, 0, 47, 75
1, 7948, Note_on_c, 0, 56, 74
1, 7963, Note_off_c, 0, 44, 51
1, 7971, Note_on_c, 0, 58, 81
1, 7990, Note_off_c, 0, 56, 63
1, 8000, Note_on_c, 0, 60, 66
1, 8019, Note_on_c, 0, 50, 72
1, 8021, Note_on_c, 0, 48, 48
1, 8032, Note_off_c, 0, 47, 63
1, 8033, Note_on_c, 0, 62, 92
1, 8035, Note_on_c, 0, 51, 87
1, 8042, Note_on_c, 0, 63, 98
1, 8043, Note_off_c, 0, 58, 65
1, 8046, Note_off_c, 0, 60, 67
1, 8052, Note_off_c, 0, 48, 65
1, 8059, Note_off_c, 0, 62, 67
1, 8065, Note_off_c, 0, 51, 62
1, 8065, Note_off_c, 0, 50, 63
1, 8074, Note_off_c, 0, 63, 68
1, 8161, Control_c, 0, 64, 101
1, 8176, Control_c, 0, 64, 64
1, 8191, Control_c, 0, 64, 41
1, 8194, Note_on_c, 0, 80, 92
1, 8194, Note_on_c, 0, 86, 99
1, 8197, Note_on_c, 0, 29, 82
1, 8197, Note_on_c, 0, 74, 83
1, 8199, Note_on_c, 0, 41, 81
1, 8203, Note_on_c, 0, 84, 67
1, 8204, Note_on_c, 0, 38, 68
1, 8206, Control_c, 0, 64, 0
1, 8210, Note_off_c, 0, 80, 75
1, 8211, Note_off_c, 0, 74, 71
1, 8219, Note_off_c, 0, 84, 70
1, 8219, Note_off_c, 0, 86, 66
1, 8220, Note_on_c, 0, 37, 44
1, 8221, Note_off_c, 0, 37, 127
1, 8223, Note_off_c, 0, 29, 63
1, 8226, Note_off_c, 0, 41, 67
1, 8238, Note_off_c, 0, 38, 67
1, 8320, Note_on_c, 0, 84, 88
1, 8320, Note_on_c, 0, 92, 105
1, 8322, Note_on_c, 0, 41, 71
1, 8324, Note_on_c, 0, 38, 74
1, 8325, Note_on_c, 0, 80, 102
1, 8328, Note_on_c, 0, 29, 68
1, 8352, Note_on_c, 0, 90, 44
1, 8360, Note_on_c, 0, 31, 47
1, 8367, Note_off_c, 0, 31, 47
1, 8367, Note_off_c, 0, 41, 62
1, 8372, Note_off_c, 0, 84, 63
1, 8375, Note_off_c, 0, 92, 62
1, 8376, Note_off_c, 0, 29, 61
1, 8376, Note_off_c, 0, 80, 59
1, 8381, Note_off_c, 0, 90, 35
1, 8399, Note_off_c, 0, 38, 59
1, 8461, Note_on_c, 0, 92, 108
1, 8462, Note_on_c, 0, 80, 103
1, 8469, Note_on_c, 0, 31, 85
1, 8471, Note_on_c, 0, 43, 93
1, 8474, Note_off_c, 0, 92, 78
1, 8477, Note_on_c, 0, 38, 64
1, 8481, Note_on_c, 0, 84, 53
1, 8487, Control_c, 0, 64, 53
1, 8489, Note_off_c, 0, 31, 69
1, 8489, Note_off_c, 0, 80, 70
1, 8502, Control_c, 0, 64, 81
1, 8504, Note_off_c, 0, 43, 62
1, 8504, Note_off_c, 0, 38, 57
1, 8505, Note_off_c, 0, 84, 39
1, 8510, Note_on_c, 0, 83, 11
1, 8511, Note_off_c, 0, 83, 127
1, 8517, Control_c, 0, 64, 127
1, 8558, Poly_aftertouch_c, 0, 83, 0
1, 8628, Note_on_c, 0, 50, 83
1, 8632, Note_on_c, 0, 62, 72
1, 8662, Note_on_c, 0, 60, 86
1, 8681, Note_on_c, 0, 48, 69
1, 8681, Note_off_c, 0, 50, 63
1, 8693, Note_off_c, 0, 62, 63
1, 8694, Note_on_c, 0, 59, 74
1, 8699, Note_on_c, 0, 47, 80
1, 8718, Note_on_c, 0, 56, 83
1, 8724, Note_off_c, 0, 59, 0
1, 8729, Note_off_c, 0, 48, 62
1, 8731, Note_on_c, 0, 55, 81
1, 8733, Note_on_c, 0, 44, 72
1, 8739, Note_off_c, 0, 60, 61
1, 8749, Poly_aftertouch_c, 0, 59, 0
1, 8750, Note_on_c, 0, 43, 76
1, 8760, Note_off_c, 0, 56, 67
1, 8766, Note_off_c, 0, 47, 66
1, 8769, Note_off_c, 0, 55, 62
1, 8788, Note_off_c, 0, 43, 62
1, 8789, Note_off_c, 0, 44, 62
1, 8828, Control_c, 0, 64, 69
1, 8843, Control_c, 0, 64, 47
1, 8865, Control_c, 0, 64, 0
1, 8887, Note_on_c, 0, 91, 102
1, 8896, Note_on_c, 0, 83, 83
1, 8897, Note_on_c, 0, 79, 80
1, 8897, Note_on_c, 0, 81, 79
1, 8897, Note_on_c, 0, 52, 91
1, 8901, Note_on_c, 0, 49, 79
1, 8905, Note_on_c, 0, 86, 61
1, 8909, Note_off_c, 0, 83, 73
1, 8911, Note_on_c, 0, 40, 64
1, 8912, Note_off_c, 0, 79, 71
1, 8916, Note_off_c, 0, 81, 73
1, 8921, Note_off_c, 0, 52, 70
1, 8921, Note_off_c, 0, 91, 59
1, 8922, Note_off_c, 0, 86, 64
1, 8926, Note_off_c, 0, 49, 68
1, 8933, Note_on_c, 0, 90, 26
1, 8937, Note_off_c, 0, 40, 60
1, 8981, Note_off_c, 0, 90, 32
1, 9023, Note_on_c, 0, 94, 101
1, 9024, Note_on_c, 0, 96, 103
1, 9025, Note_on_c, 0, 84, 106
1, 9027, Note_on_c, 0, 91, 95
1, 9029, Note_on_c, 0, 40, 77
1, 9033, Note_on_c, 0, 52, 81
1, 9058, Note_on_c, 0, 48, 55
1, 9058, Note_off_c, 0, 91, 61
1, 9060, Note_off_c, 0, 84, 56
1, 9076, Note_off_c, 0, 96, 57
1, 9079, Note_off_c, 0, 52, 58
1, 9083, Note_off_c, 0, 40, 67
1, 9104, Note_off_c, 0, 94, 66
1, 9118, Note_off_c, 0, 48, 59
1, 9170, Note_on_c, 0, 96, 103
1, 9174, Note_on_c, 0, 92, 95
1, 9174, Note_on_c, 0, 48, 84
1, 9174, Note_on_c, 0, 84, 108
1, 9175, Note_on_c, 0, 53, 97
1, 9178, Note_on_c, 0, 41, 90
1, 9186, Note_off_c, 0, 92, 79
1, 9189, Note_off_c, 0, 96, 67
1, 9192, Control_c, 0, 64, 58
1, 9193, Note_off_c, 0, 84, 70
1, 9194, Note_on_c, 0, 44, 59
1, 9197, Note_on_c, 0, 94, 46
1, 9201, Note_off_c, 0, 48, 70
1, 9206, Note_on_c, 0, 90, 46
1, 9207, Note_off_c, 0, 90, 127
1, 9207, Note_off_c, 0, 41, 66
1, 9207, Control_c, 0, 64, 127
1, 9213, Note_off_c, 0, 53, 64
1, 9219, Note_off_c, 0, 44, 58
1, 9225, Note_off_c, 0, 94, 41
1, 9365, Note_on_c, 0, 47, 69
1, 9392, Note_on_c, 0, 59, 78
1, 9407, Note_on_c, 0, 48, 74
1, 9419, Note_on_c, 0, 60, 80
1, 9437, Note_on_c, 0, 62, 85
1, 9437, Note_on_c, 0, 50, 78
1, 9448, Note_off_c, 0, 59, 58
1, 9453, Note_on_c, 0, 64, 88
1, 9455, Note_on_c, 0, 52, 82
1, 9455, Note_off_c, 0, 47, 64
1, 9457, Note_on_c, 0, 53, 109
1, 9466, Note_on_c, 0, 65, 103
1, 9472, Note_off_c, 0, 60, 70
1, 9478, Note_off_c, 0, 62, 68
1, 9487, Note_off_c, 0, 48, 66
1, 9490, Note_off_c, 0, 64, 69
1, 9490, Note_off_c, 0, 50, 65
1, 9496, Note_off_c, 0, 65, 72
1, 9497, Note_off_c, 0, 52, 69
1, 9502, Note_off_c, 0, 53, 66
1, 9628, Control_c, 0, 64, 56
1, 9643, Control_c, 0, 64, 0
1, 9714, Note_on_c, 0, 49, 113
1, 9717, Control_c, 0, 64, 41
1, 9718, Note_on_c, 0, 44, 94
1, 9718, Note_on_c, 0, 101, 111
1, 9723, Note_on_c, 0, 37, 90
1, 9725, Note_on_c, 0, 91, 97
1, 9726, Note_on_c, 0, 93, 99
1, 9730, Note_on_c, 0, 89, 78
1, 9731, Note_off_c, 0, 89, 127
1, 9732, Control_c, 0, 64, 127
1, 9737, Note_off_c, 0, 93, 76
1, 9741, Note_off_c, 0, 91, 69
1, 9742, Note_off_c, 0, 44, 68
1, 9745, Note_off_c, 0, 101, 73
1, 9747, Note_on_c, 0, 94, 53
1, 9748, Note_off_c, 0, 94, 127
1, 9750, Note_off_c, 0, 37, 67
1, 9754, Note_off_c, 0, 49, 63
1, 9759, Note_on_c, 0, 97, 31
1, 9760, Note_off_c, 0, 97, 127
1, 9767, Note_on_c, 0, 100, 20
1, 9768, Note_off_c, 0, 100, 127
1, 9782, Note_on_c, 0, 48, 20
1, 9828, Note_off_c, 0, 48, 52
1, 9965, Note_on_c, 0, 49, 62
1, 9969, Note_on_c, 0, 61, 71
1, 9985, Note_on_c, 0, 51, 63
1, 9998, Note_on_c, 0, 63, 70
1, 10014, Note_off_c, 0, 49, 55
1, 10015, Note_on_c, 0, 54, 78
1, 10024, Note_on_c, 0, 53, 47
1, 10027, Note_on_c, 0, 65, 66
1, 10033, Note_on_c, 0, 56, 86
1, 10036, Note_off_c, 0, 61, 58
1, 10044, Note_on_c, 0, 66, 80
1, 10046, Note_on_c, 0, 52, 40
1, 10046, Note_on_c, 0, 64, 64
1, 10051, Note_off_c, 0, 51, 63
1, 10051, Note_off_c, 0, 63, 65
1, 10052, Note_off_c, 0, 53, 68
1, 10053, Note_on_c, 0, 68, 86
1, 10056, Note_off_c, 0, 56, 69
1, 10057, Note_off_c, 0, 54, 61
1, 10061, Note_off_c, 0, 65, 68
1, 10065, Note_off_c, 0, 64, 64
1, 10065, Note_off_c, 0, 66, 68
1, 10072, Note_off_c, 0, 68, 70
1, 10080, Note_off_c, 0, 52, 52
1, 10230, Note_on_c, 0, 73, 68
1, 10232, Note_on_c, 0, 61, 55
1, 10250, Note_on_c, 0, 63, 76
1, 10259, Note_on_c, 0, 75, 78
1, 10277, Note_on_c, 0, 77, 76
1, 10281, Note_on_c, 0, 65, 77
1, 10281, Note_on_c, 0, 66, 87
1, 10292, Note_on_c, 0, 68, 106
1, 10297, Note_on_c, 0, 78, 86
1, 10298, Note_off_c, 0, 73, 63
1, 10301, Note_off_c, 0, 61, 62
1, 10312, Note_on_c, 0, 80, 98
1, 10318, Note_off_c, 0, 75, 64
1, 10319, Note_off_c, 0, 65, 61
1, 10323, Note_off_c, 0, 63, 61
1, 10328, Note_off_c, 0, 66, 67
1, 10331, Note_off_c, 0, 77, 64
1, 10331, Note_off_c, 0, 68, 60
1, 10332, Note_on_c, 0, 76, 18
1, 10333, Note_off_c, 0, 76, 127
1, 10334, Note_off_c, 0, 78, 66
1, 10343, Note_off_c, 0, 80, 66
1, 10388, Poly_aftertouch_c, 0, 76, 0
1, 10522, Note_on_c, 0, 73, 49
1, 10533, Note_on_c, 0, 85, 74
1, 10549, Note_on_c, 0, 75, 66
1, 10560, Note_on_c, 0, 87, 77
1, 10564, Note_on_c, 0, 77, 74
1, 10578, Note_on_c, 0, 89, 71
1, 10580, Note_on_c, 0, 78, 89
1, 10599, Note_on_c, 0, 80, 112
1, 10600, Note_on_c, 0, 88, 68
1, 10602, Note_on_c, 0, 90, 93
1, 10603, Note_off_c, 0, 85, 65
1, 10614, Note_on_c, 0, 92, 104
1, 10618, Note_off_c, 0, 88, 40
1, 10620, Note_off_c, 0, 87, 68
1, 10629, Note_off_c, 0, 80, 67
1, 10631, Note_off_c, 0, 77, 65
1, 10632, Note_off_c, 0, 89, 67
1, 10633, Note_off_c, 0, 90, 70
1, 10639, Note_off_c, 0, 73, 44
1, 10640, Note_off_c, 0, 78, 68
1, 10641, Note_off_c, 0, 92, 72
1, 10648, Note_off_c, 0, 75, 63
1, 10867, Control_c, 0, 64, 103
1, 10882, Control_c, 0, 64, 57
1, 10897, Control_c, 0, 64, 0
1, 10936, Note_on_c, 0, 89, 81
1, 10943, Note_on_c, 0, 49, 60
1, 10945, Note_on_c, 0, 85, 66
1, 10948, Note_on_c, 0, 97, 60
1, 10956, Note_off_c, 0, 89, 72
1, 10956, Control_c, 0, 64, 22
1, 10961, Note_off_c, 0, 85, 66
1, 10965, Note_off_c, 0, 49, 62
1, 10967, Note_off_c, 0, 97, 60
1, 10971, Control_c, 0, 64, 51
1, 10986, Control_c, 0, 64, 73
1, 10991, Note_on_c, 0, 53, 24
1, 10995, Note_on_c, 0, 97, 82
1, 10996, Note_on_c, 0, 89, 94
1, 11000, Note_on_c, 0, 43, 76
1, 11001, Note_on_c, 0, 49, 80
1, 11001, Control_c, 0, 64, 127
1, 11002, Note_on_c, 0, 85, 74
1, 11004, Note_on_c, 0, 41, 56
1, 11016, Note_off_c, 0, 89, 70
1, 11016, Note_off_c, 0, 97, 68
1, 11022, Note_off_c, 0, 85, 68
1, 11025, Note_off_c, 0, 49, 68
1, 11029, Note_off_c, 0, 43, 66
1, 11030, Note_off_c, 0, 53, 66
1, 11031, Note_off_c, 0, 41, 64
1, 11153, Note_on_c, 0, 56, 95
1, 11154, Note_on_c, 0, 92, 95
1, 11154, Note_on_c, 0, 85, 91
1, 11156, Note_on_c, 0, 80, 90
1, 11157, Note_on_c, 0, 53, 68
1, 11162, Note_on_c, 0, 44, 67
1, 11168, Note_off_c, 0, 85, 75
1, 11171, Note_off_c, 0, 56, 70
1, 11173, Note_off_c, 0, 92, 64
1, 11174, Note_off_c, 0, 80, 72
1, 11186, Note_off_c, 0, 53, 67
1, 11195, Note_off_c, 0, 44, 62
1, 11217, Note_on_c, 0, 93, 9
1, 11218, Note_off_c, 0, 93, 127
1, 11349, Note_on_c, 0, 61, 74
1, 11352, Note_on_c, 0, 80, 84
1, 11355, Note_on_c, 0, 89, 81
1, 11356, Note_on_c, 0, 77, 84
1, 11365, Note_off_c, 0, 61, 70
1, 11367, Note_on_c, 0, 49, 44
1, 11368, Note_on_c, 0, 57, 40
1, 11371, Note_off_c, 0, 80, 70
1, 11374, Note_on_c, 0, 63, 46
1, 11376, Note_off_c, 0, 89, 72
1, 11377, Note_off_c, 0, 77, 70
1, 11396, Note_off_c, 0, 57, 55
1, 11403, Note_off_c, 0, 49, 0
1, 11403, Note_off_c, 0, 63, 55
1, 11410, Note_on_c, 0, 61, 108
1, 11410, Note_on_c, 0, 80, 97
1, 11411, Note_on_c, 0, 77, 84
1, 11411, Note_on_c, 0, 89, 101
1, 11416, Note_on_c, 0, 56, 90
1, 11417, Note_on_c, 0, 49, 73
1, 11434, Note_off_c, 0, 77, 63
1, 11437, Note_off_c, 0, 61, 62
1, 11442, Note_off_c, 0, 80, 67
1, 11443, Note_off_c, 0, 56, 65
1, 11444, Note_off_c, 0, 89, 67
1, 11455, Note_off_c, 0, 49, 63
1, 11723, Note_on_c, 0, 65, 80
1, 11726, Note_on_c, 0, 77, 89
1, 11729, Note_on_c, 0, 73, 85
1, 11729, Note_on_c, 0, 80, 86
1, 11732, Note_on_c, 0, 56, 63
1, 11735, Note_on_c, 0, 61, 61
1, 11744, Note_on_c, 0, 85, 50
1, 11746, Note_off_c, 0, 65, 72
1, 11747, Note_off_c, 0, 77, 69
1, 11747, Note_off_c, 0, 80, 71
1, 11748, Note_off_c, 0, 73, 72
1, 11757, Note_off_c, 0, 61, 64
1, 11761, Note_off_c, 0, 56, 55
1, 11765, Note_off_c, 0, 85, 0
1, 11779, Note_on_c, 0, 65, 93
1, 11781, Note_on_c, 0, 85, 73
1, 11782, Note_on_c, 0, 77, 85
1, 11783, Note_on_c, 0, 56, 84
1, 11783, Note_on_c, 0, 73, 97
1, 11785, Note_on_c, 0, 53, 10
1, 11785, Note_on_c, 0, 61, 86
1, 11793, Note_on_c, 0, 80, 83
1, 11812, Note_on_c, 0, 57, 39
1, 11813, Note_off_c, 0, 57, 127
1, 11820, Note_off_c, 0, 65, 66
1, 11835, Note_off_c, 0, 53, 64
1, 11838, Note_off_c, 0, 73, 59
1, 11840, Note_off_c, 0, 77, 61
1, 11841, Poly_aftertouch_c, 0, 57, 0
1, 11842, Note_off_c, 0, 56, 64
1, 11851, Note_off_c, 0, 61, 60
1, 11858, Note_off_c, 0, 80, 59
1, 11858, Note_off_c, 0, 85, 63
1, 11920, Control_c, 0, 64, 68
1, 11926, Note_on_c, 0, 76, 94
1, 11926, Note_on_c, 0, 84, 94
1, 11927, Note_on_c, 0, 56, 90
1, 11927, Note_on_c, 0, 64, 94
1, 11929, Note_on_c, 0, 72, 91
1, 11930, Note_on_c, 0, 60, 87
1, 11932, Note_on_c, 0, 52, 94
1, 11935, Note_on_c, 0, 80, 84
1, 11935, Control_c, 0, 64, 31
1, 11947, Note_off_c, 0, 64, 68
1, 11948, Note_off_c, 0, 60, 73
1, 11948, Note_off_c, 0, 72, 69
1, 11949, Control_c, 0, 64, 0
1, 11949, Note_on_c, 0, 77, 52
1, 11950, Note_off_c, 0, 77, 127
1, 11956, Note_off_c, 0, 76, 66
1, 11957, Note_off_c, 0, 56, 62
1, 11962, Note_off_c, 0, 52, 63
1, 11962, Note_off_c, 0, 84, 65
1, 11966, Note_off_c, 0, 80, 57
1, 12085, Note_on_c, 0, 85, 96
1, 12087, Note_on_c, 0, 65, 105
1, 12089, Note_on_c, 0, 56, 89
1, 12089, Note_on_c, 0, 77, 88
1, 12090, Note_on_c, 0, 73, 94
1, 12092, Note_on_c, 0, 61, 86
1, 12094, Note_on_c, 0, 53, 78
1, 12096, Note_on_c, 0, 80, 72
1, 12102, Note_off_c, 0, 65, 77
1, 12104, Note_off_c, 0, 73, 76
1, 12107, Note_off_c, 0, 77, 72
1, 12111, Note_off_c, 0, 61, 70
1, 12113, Note_off_c, 0, 80, 68
1, 12117, Note_off_c, 0, 53, 72
1, 12119, Note_off_c, 0, 56, 66
1, 12124, Note_off_c, 0, 85, 69
1, 12394, Note_on_c, 0, 89, 92
1, 12397, Note_on_c, 0, 80, 92
1, 12398, Note_on_c, 0, 77, 85
1, 12401, Note_on_c, 0, 59, 80
1, 12403, Note_on_c, 0, 47, 74
1, 12403, Note_on_c, 0, 56, 73
1, 12403, Note_on_c, 0, 86, 84
1, 12410, Control_c, 0, 64, 39
1, 12411, Note_on_c, 0, 53, 60
1, 12419, Note_off_c, 0, 77, 70
1, 12421, Note_off_c, 0, 86, 70
1, 12422, Note_off_c, 0, 59, 71
1, 12425, Note_off_c, 0, 56, 69
1, 12425, Control_c, 0, 64, 54
1, 12426, Note_off_c, 0, 47, 69
1, 12428, Note_off_c, 0, 89, 69
1, 12429, Note_off_c, 0, 80, 62
1, 12432, Note_off_c, 0, 53, 62
1, 12440, Control_c, 0, 64, 68
1, 12454, Control_c, 0, 64, 84
1, 12469, Control_c, 0, 64, 95
1, 12484, Control_c, 0, 64, 97
1, 12499, Control_c, 0, 64, 104
1, 12514, Control_c, 0, 64, 117
1, 12528, Control_c, 0, 64, 127
1, 12626, Note_on_c, 0, 61, 83
1, 12632, Note_on_c, 0, 49, 72
1, 12634, Note_on_c, 0, 73, 84
1, 12640, Control_c, 0, 64, 103
1, 12641, Note_on_c, 0, 85, 74
1, 12642, Note_off_c, 0, 61, 71
1, 12650, Note_off_c, 0, 73, 73
1, 12653, Note_off_c, 0, 49, 66
1, 12654, Control_c, 0, 64, 62
1, 12656, Note_off_c, 0, 85, 69
1, 12669, Control_c, 0, 64, 26
1, 12684, Control_c, 0, 64, 0
1, 12685, Note_on_c, 0, 62, 77
1, 12687, Note_on_c, 0, 86, 95
1, 12688, Note_on_c, 0, 74, 92
1, 12695, Note_on_c, 0, 50, 76
1, 12719, Note_off_c, 0, 50, 66
1, 12719, Note_off_c, 0, 74, 64
1, 12722, Note_off_c, 0, 86, 61
1, 12724, Note_off_c, 0, 62, 62
1, 12856, Note_on_c, 0, 54, 79
1, 12857, Note_on_c, 0, 78, 97
1, 12857, Note_on_c, 0, 87, 95
1, 12859, Note_on_c, 0, 63, 87
1, 12859, Note_on_c, 0, 75, 95
1, 12862, Note_on_c, 0, 60, 77
1, 12862, Control_c, 0, 64, 29
1, 12863, Note_on_c, 0, 81, 73
1, 12867, Note_on_c, 0, 51, 72
1, 12877, Control_c, 0, 64, 57
1, 12880, Note_off_c, 0, 63, 69
1, 12883, Note_off_c, 0, 60, 70
1, 12885, Note_off_c, 0, 81, 71
1, 12891, Control_c, 0, 64, 82
1, 12895, Note_off_c, 0, 78, 66
1, 12896, Note_off_c, 0, 51, 66
1, 12900, Note_off_c, 0, 87, 69
1, 12901, Note_off_c, 0, 54, 66
1, 12903, Note_off_c, 0, 75, 52
1, 12906, Control_c, 0, 64, 127
1, 13062, Note_on_c, 0, 59, 82
1, 13062, Note_on_c, 0, 71, 89
1, 13062, Note_on_c, 0, 83, 93
1, 13070, Control_c, 0, 64, 85
1, 13072, Note_on_c, 0, 45, 57
1, 13077, Note_off_c, 0, 59, 70
1, 13077, Note_off_c, 0, 83, 75
1, 13079, Note_off_c, 0, 71, 75
1, 13084, Note_on_c, 0, 47, 49
1, 13085, Control_c, 0, 64, 58
1, 13097, Note_off_c, 0, 45, 61
1, 13100, Control_c, 0, 64, 10
1, 13114, Note_off_c, 0, 47, 54
1, 13115, Control_c, 0, 64, 0
1, 13127, Note_on_c, 0, 84, 95
1, 13129, Note_on_c, 0, 72, 80
1, 13139, Note_on_c, 0, 62, 83
1, 13146, Note_on_c, 0, 83, 53
1, 13147, Note_off_c, 0, 83, 127
1, 13147, Note_off_c, 0, 72, 72
1, 13152, Note_off_c, 0, 84, 60
1, 13160, Note_off_c, 0, 62, 72
1, 13163, Note_on_c, 0, 50, 38
1, 13164, Note_off_c, 0, 50, 127
1, 13288, Note_on_c, 0, 62, 50
1, 13291, Note_on_c, 0, 91, 116
1, 13292, Note_on_c, 0, 67, 103
1, 13292, Note_on_c, 0, 83, 94
1, 13293, Note_on_c, 0, 79, 100
1, 13298, Note_on_c, 0, 55, 87
1, 13303, Note_on_c, 0, 59, 63
1, 13306, Note_off_c, 0, 83, 75
1, 13307, Control_c, 0, 64, 55
1, 13308, Note_off_c, 0, 67, 75
1, 13308, Note_off_c, 0, 79, 75
1, 13313, Note_off_c, 0, 91, 67
1, 13322, Control_c, 0, 64, 109
1, 13327, Note_off_c, 0, 62, 65
1, 13333, Note_off_c, 0, 59, 65
1, 13337, Control_c, 0, 64, 127
1, 13352, Note_off_c, 0, 55, 65
1, 13528, Note_on_c, 0, 38, 80
1, 13580, Note_off_c, 0, 38, 61
1, 13593, Note_on_c, 0, 50, 73
1, 13638, Note_off_c, 0, 50, 58
1, 13665, Note_on_c, 0, 36, 90
1, 13710, Note_on_c, 0, 48, 83
1, 13713, Note_off_c, 0, 36, 63
1, 13739, Note_off_c, 0, 48, 67
1, 13775, Note_on_c, 0, 35, 96
1, 13817, Note_on_c, 0, 47, 95
1, 13824, Note_off_c, 0, 35, 66
1, 13859, Note_off_c, 0, 47, 65
1, 13885, Note_on_c, 0, 32, 98
1, 13924, Note_on_c, 0, 44, 98
1, 13926, Note_off_c, 0, 32, 67
1, 13972, Note_off_c, 0, 44, 62
1, 13985, Note_on_c, 0, 31, 104
1, 14024, Note_off_c, 0, 31, 65
1, 14030, Note_on_c, 0, 43, 95
1, 14066, Note_off_c, 0, 43, 62
1, 14242, Control_c, 0, 64, 56
1, 14255, Control_c, 0, 64, 0
1, 14272, Note_on_c, 0, 87, 103
1, 14272, Note_on_c, 0, 78, 103
1, 14273, Note_on_c, 0, 75, 103
1, 14274, Note_on_c, 0, 51, 98
1, 14275, Note_on_c, 0, 54, 98
1, 14279, Note_on_c, 0, 48, 89
1, 14281, Note_on_c, 0, 43, 79
1, 14282, Note_on_c, 0, 45, 80
1, 14307, Note_on_c, 0, 85, 50
1, 14308, Note_off_c, 0, 85, 127
1, 14312, Note_off_c, 0, 78, 70
1, 14313, Note_on_c, 0, 88, 37
1, 14314, Control_c, 0, 64, 41
1, 14315, Note_off_c, 0, 87, 68
1, 14320, Note_off_c, 0, 75, 64
1, 14328, Note_off_c, 0, 54, 61
1, 14329, Control_c, 0, 64, 63
1, 14331, Note_off_c, 0, 43, 65
1, 14334, Note_off_c, 0, 48, 65
1, 14337, Note_off_c, 0, 51, 63
1, 14344, Control_c, 0, 64, 127
1, 14345, Note_off_c, 0, 88, 35
1, 14346, Note_off_c, 0, 45, 61
1, 14559, Note_on_c, 0, 51, 70
1, 14565, Note_on_c, 0, 54, 62
1, 14566, Note_on_c, 0, 48, 62
1, 14567, Control_c, 0, 64, 71
1, 14568, Note_on_c, 0, 75, 81
1, 14574, Note_on_c, 0, 72, 71
1, 14574, Note_on_c, 0, 84, 71
1, 14580, Note_off_c, 0, 54, 71
1, 14582, Control_c, 0, 64, 55
1, 14582, Note_off_c, 0, 75, 72
1, 14585, Note_off_c, 0, 51, 70
1, 14589, Note_off_c, 0, 84, 67
1, 14590, Note_off_c, 0, 72, 67
1, 14591, Note_off_c, 0, 48, 66
1, 14597, Control_c, 0, 64, 25
1, 14611, Control_c, 0, 64, 0
1, 14619, Note_on_c, 0, 45, 15
1, 14619, Note_on_c, 0, 75, 94
1, 14620, Note_on_c, 0, 84, 84
1, 14620, Note_on_c, 0, 54, 97
1, 14621, Note_on_c, 0, 72, 73
1, 14623, Note_on_c, 0, 43, 60
1, 14624, Note_on_c, 0, 51, 82
1, 14630, Note_on_c, 0, 48, 74
1, 14638, Note_off_c, 0, 54, 73
1, 14641, Control_c, 0, 64, 25
1, 14644, Note_off_c, 0, 72, 69
1, 14647, Note_off_c, 0, 51, 66
1, 14651, Note_off_c, 0, 75, 69
1, 14653, Note_off_c, 0, 43, 65
1, 14654, Note_off_c, 0, 84, 61
1, 14656, Control_c, 0, 64, 34
1, 14658, Note_off_c, 0, 48, 66
1, 14663, Note_off_c, 0, 45, 66
1, 14671, Control_c, 0, 64, 41
1, 14686, Control_c, 0, 64, 50
1, 14701, Control_c, 0, 64, 64
1, 14715, Control_c, 0, 64, 76
1, 14730, Control_c, 0, 64, 83
1, 14745, Control_c, 0, 64, 83
1, 14774, Control_c, 0, 64, 85
1, 14789, Control_c, 0, 64, 92
1, 14804, Control_c, 0, 64, 103
1, 14819, Control_c, 0, 64, 117
1, 14834, Control_c, 0, 64, 127
1, 14944, Note_on_c, 0, 54, 84
1, 14949, Note_on_c, 0, 51, 76
1, 14953, Note_on_c, 0, 48, 71
1, 14953, Note_on_c, 0, 72, 82
1, 14955, Note_on_c, 0, 69, 75
1, 14962, Note_on_c, 0, 81, 70
1, 14965, Note_off_c, 0, 54, 70
1, 14971, Note_off_c, 0, 72, 73
1, 14972, Note_off_c, 0, 51, 73
1, 14976, Note_off_c, 0, 69, 73
1, 14976, Note_off_c, 0, 48, 68
1, 14977, Note_on_c, 0, 43, 32
1, 14977, Note_off_c, 0, 81, 68
1, 14992, Note_on_c, 0, 45, 4
1, 15010, Note_on_c, 0, 69, 86
1, 15012, Note_on_c, 0, 72, 92
1, 15014, Note_on_c, 0, 81, 97
1, 15016, Note_on_c, 0, 54, 99
1, 15018, Note_off_c, 0, 43, 0
1, 15018, Note_on_c, 0, 43, 43
1, 15018, Note_on_c, 0, 48, 89
1, 15020, Note_on_c, 0, 51, 92
1, 15035, Note_off_c, 0, 81, 68
1, 15038, Note_off_c, 0, 72, 64
1, 15044, Note_off_c, 0, 69, 64
1, 15047, Note_off_c, 0, 51, 59
1, 15050, Note_off_c, 0, 54, 66
1, 15062, Note_off_c, 0, 48, 61
1, 15064, Note_off_c, 0, 43, 62
1, 15074, Note_off_c, 0, 45, 57
1, 15282, Note_on_c, 0, 54, 82
1, 15285, Note_on_c, 0, 78, 95
1, 15285, Note_on_c, 0, 66, 87
1, 15288, Note_on_c, 0, 51, 69
1, 15291, Note_on_c, 0, 45, 60
1, 15295, Note_on_c, 0, 48, 59
1, 15300, Note_off_c, 0, 54, 74
1, 15301, Note_off_c, 0, 78, 72
1, 15303, Note_off_c, 0, 66, 72
1, 15309, Note_on_c, 0, 43, 34
1, 15315, Control_c, 0, 64, 103
1, 15315, Note_off_c, 0, 51, 69
1, 15321, Note_off_c, 0, 45, 66
1, 15327, Note_off_c, 0, 48, 62
1, 15330, Control_c, 0, 64, 61
1, 15345, Control_c, 0, 64, 29
1, 15360, Control_c, 0, 64, 0
1, 15365, Note_on_c, 0, 54, 91
1, 15366, Note_on_c, 0, 75, 90
1, 15370, Note_on_c, 0, 63, 92
1, 15381, Note_on_c, 0, 48, 55
1, 15389, Note_on_c, 0, 51, 51
1, 15391, Note_off_c, 0, 63, 70
1, 15391, Note_off_c, 0, 54, 68
1, 15397, Note_on_c, 0, 45, 49
1, 15400, Note_off_c, 0, 75, 63
1, 15411, Note_off_c, 0, 48, 65
1, 15414, Note_off_c, 0, 51, 54
1, 15425, Note_off_c, 0, 45, 56
1, 15440, Note_off_c, 0, 43, 0
1, 15449, Note_on_c, 0, 62, 93
1, 15450, Note_on_c, 0, 74, 92
1, 15452, Note_on_c, 0, 54, 92
1, 15468, Note_on_c, 0, 45, 58
1, 15469, Note_on_c, 0, 43, 32
1, 15469, Note_on_c, 0, 51, 70
1, 15470, Note_off_c, 0, 62, 68
1, 15470, Note_off_c, 0, 74, 65
1, 15475, Note_on_c, 0, 48, 49
1, 15487, Note_off_c, 0, 54, 68
1, 15500, Note_off_c, 0, 51, 66
1, 15501, Note_off_c, 0, 43, 58
1, 15504, Note_off_c, 0, 48, 59
1, 15507, Note_off_c, 0, 45, 62
1, 15536, Note_on_c, 0, 60, 96
1, 15536, Note_on_c, 0, 72, 98
1, 15537, Note_on_c, 0, 54, 83
1, 15556, Note_on_c, 0, 43, 62
1, 15556, Note_off_c, 0, 60, 71
1, 15571, Note_off_c, 0, 72, 67
1, 15581, Note_on_c, 0, 50, 31
1, 15581, Note_off_c, 0, 54, 66
1, 15598, Note_off_c, 0, 43, 63
1, 15641, Note_off_c, 0, 50, 0
1, 15641, Note_on_c, 0, 50, 61
1, 15644, Note_on_c, 0, 47, 51
1, 15646, Note_on_c, 0, 55, 89
1, 15649, Control_c, 0, 64, 54
1, 15650, Note_on_c, 0, 67, 100
1, 15652, Note_on_c, 0, 79, 103
1, 15655, Note_on_c, 0, 43, 85
1, 15656, Note_on_c, 0, 71, 81
1, 15664, Note_off_c, 0, 55, 75
1, 15664, Control_c, 0, 64, 127
1, 15666, Note_off_c, 0, 67, 77
1, 15666, Note_off_c, 0, 79, 75
1, 15672, Note_off_c, 0, 71, 72
1, 15676, Note_off_c, 0, 50, 68
1, 15679, Note_on_c, 0, 77, 49
1, 15680, Note_off_c, 0, 77, 127
1, 15685, Note_off_c, 0, 47, 66
1, 15705, Note_off_c, 0, 43, 59
1, 15788, Poly_aftertouch_c, 0, 71, 127
1, 15816, Poly_aftertouch_c, 0, 71, 0
1, 15849, Note_on_c, 0, 38, 79
1, 15871, Control_c, 0, 64, 93
1, 15886, Control_c, 0, 64, 89
1, 15893, Note_off_c, 0, 38, 63
1, 15901, Control_c, 0, 64, 92
1, 15902, Note_on_c, 0, 50, 80
1, 15915, Control_c, 0, 64, 113
1, 15930, Control_c, 0, 64, 127
1, 15954, Note_off_c, 0, 50, 62
1, 15965, Note_on_c, 0, 36, 94
1, 16009, Note_off_c, 0, 36, 65
1, 16020, Note_on_c, 0, 48, 88
1, 16055, Note_off_c, 0, 48, 64
1, 16072, Note_on_c, 0, 35, 98
1, 16123, Note_on_c, 0, 47, 89
1, 16123, Note_off_c, 0, 35, 66
1, 16172, Note_off_c, 0, 47, 65
1, 16178, Note_on_c, 0, 32, 99
1, 16191, Note_on_c, 0, 45, 2
1, 16224, Note_on_c, 0, 44, 95
1, 16227, Note_off_c, 0, 32, 66
1, 16239, Note_off_c, 0, 45, 46
1, 16269, Note_off_c, 0, 44, 62
1, 16279, Note_on_c, 0, 31, 100
1, 16284, Note_on_c, 0, 33, 80
1, 16309, Note_off_c, 0, 31, 67
1, 16314, Note_off_c, 0, 33, 69
1, 16315, Note_on_c, 0, 43, 96
1, 16357, Note_on_c, 0, 48, 44
1, 16358, Note_off_c, 0, 48, 127
1, 16362, Note_off_c, 0, 43, 63
1, 16367, Note_on_c, 0, 42, 21
1, 16384, Poly_aftertouch_c, 0, 48, 0
1, 16403, Note_off_c, 0, 42, 49
1, 16517, Control_c, 0, 64, 73
1, 16532, Control_c, 0, 64, 28
1, 16546, Control_c, 0, 64, 0
1, 16550, Note_on_c, 0, 51, 96
1, 16551, Note_on_c, 0, 54, 101
1, 16551, Note_on_c, 0, 87, 101
1, 16552, Note_on_c, 0, 78, 101
1, 16552, Note_on_c, 0, 75, 105
1, 16553, Note_on_c, 0, 48, 85
1, 16555, Note_on_c, 0, 45, 83
1, 16557, Note_on_c, 0, 43, 81
1, 16591, Control_c, 0, 64, 40
1, 16606, Control_c, 0, 64, 70
1, 16615, Note_off_c, 0, 78, 64
1, 16617, Note_off_c, 0, 87, 68
1, 16618, Note_off_c, 0, 75, 62
1, 16621, Control_c, 0, 64, 127
1, 16626, Note_off_c, 0, 54, 64
1, 16635, Note_off_c, 0, 43, 59
1, 16635, Note_off_c, 0, 51, 64
1, 16641, Note_off_c, 0, 45, 62
1, 16642, Note_off_c, 0, 48, 62
1, 16832, Note_on_c, 0, 51, 77
1, 16833, Note_on_c, 0, 75, 95
1, 16835, Note_on_c, 0, 54, 78
1, 16838, Note_on_c, 0, 72, 81
1, 16838, Note_on_c, 0, 84, 84
1, 16840, Note_on_c, 0, 48, 67
1, 16844, Note_on_c, 0, 45, 55
1, 16851, Note_off_c, 0, 75, 71
1, 16855, Note_off_c, 0, 72, 74
1, 16856, Note_off_c, 0, 84, 72
1, 16857, Note_off_c, 0, 51, 68
1, 16858, Control_c, 0, 64, 64
1, 16862, Note_on_c, 0, 43, 28
1, 16862, Note_off_c, 0, 48, 73
1, 16864, Note_off_c, 0, 54, 66
1, 16873, Note_off_c, 0, 45, 62
1, 16873, Control_c, 0, 64, 34
1, 16887, Control_c, 0, 64, 0
1, 16894, Note_off_c, 0, 43, 0
1, 16895, Note_on_c, 0, 72, 87
1, 16895, Note_on_c, 0, 51, 97
1, 16895, Note_on_c, 0, 75, 96
1, 16896, Note_on_c, 0, 54, 94
1, 16896, Note_on_c, 0, 84, 98
1, 16901, Note_on_c, 0, 48, 78
1, 16905, Note_on_c, 0, 45, 56
1, 16907, Note_on_c, 0, 43, 53
1, 16917, Control_c, 0, 64, 18
1, 16922, Note_off_c, 0, 54, 66
1, 16931, Note_off_c, 0, 84, 66
1, 16932, Control_c, 0, 64, 44
1, 16933, Note_off_c, 0, 51, 66
1, 16934, Note_off_c, 0, 48, 67
1, 16935, Note_off_c, 0, 72, 65
1, 16938, Note_off_c, 0, 75, 62
1, 16939, Note_off_c, 0, 43, 62
1, 16946, Control_c, 0, 64, 62
1, 16947, Note_off_c, 0, 45, 66
1, 16962, Control_c, 0, 64, 85
1, 16977, Control_c, 0, 64, 127
1, 17225, Note_on_c, 0, 54, 84
1, 17229, Note_on_c, 0, 51, 71
1, 17230, Note_on_c, 0, 72, 87
1, 17233, Note_on_c, 0, 48, 64
1, 17233, Note_on_c, 0, 69, 75
1, 17235, Note_on_c, 0, 81, 82
1, 17246, Note_off_c, 0, 54, 68
1, 17247, Note_off_c, 0, 72, 74
1, 17253, Note_on_c, 0, 45, 35
1, 17253, Note_off_c, 0, 81, 72
1, 17253, Note_off_c, 0, 51, 67
1, 17253, Note_off_c, 0, 69, 73
1, 17259, Note_off_c, 0, 48, 68
1, 17283, Note_on_c, 0, 69, 84
1, 17289, Note_on_c, 0, 72, 96
1, 17290, Note_off_c, 0, 45, 0
1, 17290, Note_on_c, 0, 45, 38
1, 17290, Note_on_c, 0, 81, 96
1, 17291, Note_on_c, 0, 51, 93
1, 17295, Note_on_c, 0, 48, 78
1, 17295, Note_on_c, 0, 54, 87
1, 17298, Note_on_c, 0, 43, 2
1, 17310, Note_off_c, 0, 72, 68
1, 17314, Note_off_c, 0, 54, 71
1, 17315, Note_off_c, 0, 81, 62
1, 17319, Note_off_c, 0, 69, 71
1, 17327, Note_off_c, 0, 51, 57
1, 17330, Note_off_c, 0, 48, 65
1, 17336, Note_off_c, 0, 45, 65
1, 17342, Note_off_c, 0, 43, 48
1, 17404, Poly_aftertouch_c, 0, 79, 0
1, 17477, Note_on_c, 0, 66, 26
1, 17513, Note_off_c, 0, 66, 51
1, 17561, Note_on_c, 0, 54, 81
1, 17568, Note_on_c, 0, 66, 103
1, 17568, Note_on_c, 0, 78, 99
1, 17571, Note_on_c, 0, 48, 67
1, 17574, Note_on_c, 0, 51, 65
1, 17577, Note_on_c, 0, 45, 55
1, 17581, Note_off_c, 0, 54, 73
1, 17586, Note_off_c, 0, 66, 73
1, 17587, Note_off_c, 0, 78, 71
1, 17591, Control_c, 0, 64, 96
1, 17596, Note_off_c, 0, 51, 67
1, 17598, Note_on_c, 0, 43, 21
1, 17600, Note_off_c, 0, 45, 66
1, 17601, Note_off_c, 0, 48, 65
1, 17606, Control_c, 0, 64, 58
1, 17621, Control_c, 0, 64, 0
1, 17647, Note_on_c, 0, 54, 88
1, 17647, Note_on_c, 0, 75, 86
1, 17650, Note_on_c, 0, 63, 92
1, 17654, Note_on_c, 0, 51, 64
1, 17664, Note_off_c, 0, 43, 0
1, 17664, Note_on_c, 0, 48, 58
1, 17668, Note_off_c, 0, 54, 71
1, 17670, Note_on_c, 0, 45, 56
1, 17673, Note_off_c, 0, 63, 67
1, 17679, Note_off_c, 0, 51, 68
1, 17683, Note_off_c, 0, 75, 62
1, 17691, Note_off_c, 0, 48, 65
1, 17696, Note_off_c, 0, 45, 63
1, 17732, Note_on_c, 0, 62, 97
1, 17733, Note_on_c, 0, 54, 92
1, 17734, Note_on_c, 0, 74, 94
1, 17735, Note_on_c, 0, 51, 82
1, 17761, Note_off_c, 0, 62, 65
1, 17762, Note_on_c, 0, 45, 48
1, 17764, Poly_aftertouch_c, 0, 43, 0
1, 17769, Note_on_c, 0, 48, 48
1, 17770, Note_off_c, 0, 54, 65
1, 17770, Note_off_c, 0, 74, 59
1, 17778, Note_on_c, 0, 73, 14
1, 17789, Note_off_c, 0, 51, 56
1, 17793, Note_off_c, 0, 45, 55
1, 17801, Poly_aftertouch_c, 0, 43, 127
1, 17803, Note_off_c, 0, 48, 54
1, 17808, Note_off_c, 0, 73, 33
1, 17820, Note_on_c, 0, 54, 79
1, 17822, Note_on_c, 0, 60, 97
1, 17823, Note_on_c, 0, 72, 102
1, 17829, Note_on_c, 0, 43, 12
1, 17848, Note_on_c, 0, 50, 62
1, 17853, Note_on_c, 0, 53, 59
1, 17854, Note_off_c, 0, 53, 127
1, 17861, Note_off_c, 0, 60, 65
1, 17873, Note_off_c, 0, 54, 66
1, 17876, Note_off_c, 0, 72, 64
1, 17878, Note_off_c, 0, 43, 58
1, 17880, Note_off_c, 0, 50, 62
1, 17967, Note_on_c, 0, 79, 102
1, 17970, Note_on_c, 0, 67, 94
1, 17971, Note_on_c, 0, 50, 82
1, 17971, Note_on_c, 0, 55, 94
1, 17972, Note_on_c, 0, 43, 79
1, 17973, Note_on_c, 0, 71, 84
1, 17980, Note_on_c, 0, 47, 65
1, 17983, Note_off_c, 0, 67, 76
1, 17985, Control_c, 0, 64, 43
1, 17986, Note_off_c, 0, 79, 64
1, 17992, Note_off_c, 0, 55, 74
1, 17993, Note_off_c, 0, 71, 73
1, 17998, Note_off_c, 0, 50, 70
1, 17999, Control_c, 0, 64, 62
1, 18002, Note_on_c, 0, 69, 35
1, 18003, Note_off_c, 0, 69, 127
1, 18007, Note_off_c, 0, 47, 67
1, 18014, Control_c, 0, 64, 91
1, 18016, Note_off_c, 0, 43, 61
1, 18029, Control_c, 0, 64, 127
1, 18095, Poly_aftertouch_c, 0, 67, 127
1, 18119, Poly_aftertouch_c, 0, 67, 0
1, 18147, Control_c, 0, 64, 110
1, 18162, Control_c, 0, 64, 73
1, 18177, Control_c, 0, 64, 64
1, 18191, Note_on_c, 0, 38, 68
1, 18192, Control_c, 0, 64, 62
1, 18192, Note_on_c, 0, 50, 64
1, 18206, Control_c, 0, 64, 63
1, 18219, Note_off_c, 0, 50, 59
1, 18221, Control_c, 0, 64, 67
1, 18223, Note_off_c, 0, 38, 65
1, 18236, Control_c, 0, 64, 73
1, 18251, Control_c, 0, 64, 82
1, 18253, Note_on_c, 0, 62, 60
1, 18266, Control_c, 0, 64, 95
1, 18275, Note_on_c, 0, 60, 45
1, 18281, Control_c, 0, 64, 127
1, 18292, Note_off_c, 0, 62, 57
1, 18304, Note_off_c, 0, 60, 35
1, 18318, Note_on_c, 0, 48, 74
1, 18319, Note_on_c, 0, 36, 79
1, 18339, Note_off_c, 0, 48, 67
1, 18345, Note_off_c, 0, 36, 64
1, 18370, Note_on_c, 0, 60, 83
1, 18398, Note_off_c, 0, 60, 64
1, 18432, Note_on_c, 0, 47, 77
1, 18438, Note_on_c, 0, 35, 85
1, 18465, Note_off_c, 0, 47, 65
1, 18472, Note_off_c, 0, 35, 67
1, 18478, Note_on_c, 0, 59, 76
1, 18486, Note_on_c, 0, 37, 9
1, 18518, Note_off_c, 0, 59, 65
1, 18537, Note_off_c, 0, 37, 37
1, 18540, Note_on_c, 0, 45, 98
1, 18543, Note_on_c, 0, 33, 89
1, 18567, Note_on_c, 0, 34, 52
1, 18569, Note_off_c, 0, 45, 65
1, 18581, Note_off_c, 0, 33, 65
1, 18603, Note_on_c, 0, 57, 88
1, 18606, Note_off_c, 0, 34, 54
1, 18623, Note_off_c, 0, 57, 71
1, 18652, Note_on_c, 0, 43, 100
1, 18662, Note_on_c, 0, 32, 82
1, 18665, Note_on_c, 0, 31, 71
1, 18672, Note_on_c, 0, 29, 61
1, 18677, Note_off_c, 0, 43, 64
1, 18686, Note_off_c, 0, 32, 63
1, 18698, Note_off_c, 0, 31, 64
1, 18704, Control_c, 0, 64, 86
1, 18704, Note_off_c, 0, 29, 52
1, 18715, Note_on_c, 0, 55, 85
1, 18719, Control_c, 0, 64, 47
1, 18734, Control_c, 0, 64, 0
1, 18758, Note_off_c, 0, 55, 69
1, 18778, Control_c, 0, 64, 32
1, 18782, Note_on_c, 0, 56, 97
1, 18786, Note_on_c, 0, 44, 89
1, 18793, Control_c, 0, 64, 53
1, 18808, Control_c, 0, 64, 88
1, 18809, Note_off_c, 0, 56, 62
1, 18815, Note_off_c, 0, 44, 63
1, 18822, Control_c, 0, 64, 127
1, 18840, Note_on_c, 0, 68, 89
1, 18883, Note_off_c, 0, 68, 62
1, 18891, Note_on_c, 0, 54, 91
1, 18892, Note_on_c, 0, 42, 88
1, 18914, Note_off_c, 0, 54, 69
1, 18925, Note_off_c, 0, 42, 64
1, 18925, Note_on_c, 0, 44, 40
1, 18944, Note_off_c, 0, 44, 62
1, 18952, Note_on_c, 0, 41, 9
1, 18953, Note_on_c, 0, 66, 98
1, 18999, Note_off_c, 0, 41, 0
1, 18999, Note_on_c, 0, 41, 44
1, 19002, Note_off_c, 0, 66, 65
1, 19004, Note_on_c, 0, 53, 95
1, 19005, Note_on_c, 0, 44, 73
1, 19025, Note_off_c, 0, 53, 71
1, 19029, Note_on_c, 0, 42, 45
1, 19031, Note_off_c, 0, 44, 65
1, 19047, Note_off_c, 0, 41, 63
1, 19053, Note_off_c, 0, 42, 59
1, 19059, Note_on_c, 0, 65, 88
1, 19105, Note_on_c, 0, 51, 97
1, 19110, Note_on_c, 0, 39, 89
1, 19119, Note_off_c, 0, 65, 61
1, 19120, Note_on_c, 0, 42, 62
1, 19128, Note_off_c, 0, 51, 68
1, 19147, Note_off_c, 0, 39, 59
1, 19151, Note_off_c, 0, 42, 62
1, 19160, Note_on_c, 0, 63, 92
1, 19199, Note_off_c, 0, 63, 65
1, 19210, Note_on_c, 0, 49, 100
1, 19219, Note_on_c, 0, 37, 82
1, 19233, Note_off_c, 0, 49, 65
1, 19244, Note_off_c, 0, 37, 68
1, 19249, Note_on_c, 0, 42, 30
1, 19261, Note_on_c, 0, 61, 66
1, 19270, Note_off_c, 0, 42, 61
1, 19279, Note_off_c, 0, 61, 66
1, 19311, Control_c, 0, 64, 75
1, 19326, Control_c, 0, 64, 42
1, 19348, Control_c, 0, 64, 0
1, 19380, Note_on_c, 0, 61, 77
1, 19380, Note_on_c, 0, 77, 109
1, 19381, Note_on_c, 0, 56, 86
1, 19381, Note_on_c, 0, 85, 102
1, 19382, Note_on_c, 0, 53, 64
1, 19382, Note_on_c, 0, 89, 106
1, 19385, Note_on_c, 0, 80, 91
1, 19390, Note_on_c, 0, 49, 67
1, 19399, Note_off_c, 0, 80, 76
1, 19400, Note_off_c, 0, 61, 69
1, 19401, Note_off_c, 0, 77, 64
1, 19403, Note_off_c, 0, 56, 71
1, 19404, Note_off_c, 0, 89, 63
1, 19405, Note_off_c, 0, 85, 67
1, 19408, Note_off_c, 0, 53, 70
1, 19411, Note_off_c, 0, 49, 66
1, 19550, Note_on_c, 0, 91, 104
1, 19551, Note_on_c, 0, 83, 97
1, 19551, Note_on_c, 0, 55, 96
1, 19552, Note_on_c, 0, 79, 109
1, 19554, Note_on_c, 0, 50, 81
1, 19554, Note_on_c, 0, 86, 91
1, 19558, Note_on_c, 0, 43, 82
1, 19562, Note_on_c, 0, 47, 81
1, 19568, Note_off_c, 0, 79, 71
1, 19569, Note_off_c, 0, 83, 70
1, 19570, Note_off_c, 0, 86, 72
1, 19571, Control_c, 0, 64, 59
1, 19575, Note_off_c, 0, 91, 67
1, 19581, Note_off_c, 0, 55, 66
1, 19586, Control_c, 0, 64, 127
1, 19587, Note_on_c, 0, 89, 32
1, 19588, Note_off_c, 0, 89, 127
1, 19589, Note_off_c, 0, 50, 64
1, 19590, Note_off_c, 0, 47, 69
1, 19596, Note_off_c, 0, 43, 62
1, 19739, Note_on_c, 0, 50, 80
1, 19745, Note_on_c, 0, 38, 77
1, 19749, Control_c, 0, 64, 102
1, 19758, Note_off_c, 0, 50, 71
1, 19763, Control_c, 0, 64, 62
1, 19769, Note_off_c, 0, 38, 67
1, 19778, Control_c, 0, 64, 51
1, 19792, Note_on_c, 0, 62, 85
1, 19793, Control_c, 0, 64, 49
1, 19808, Control_c, 0, 64, 55
1, 19823, Control_c, 0, 64, 64
1, 19837, Control_c, 0, 64, 81
1, 19840, Note_off_c, 0, 62, 63
1, 19852, Control_c, 0, 64, 127
1, 19859, Note_on_c, 0, 48, 85
1, 19866, Note_on_c, 0, 36, 75
1, 19882, Note_off_c, 0, 48, 71
1, 19892, Note_off_c, 0, 36, 64
1, 19903, Note_on_c, 0, 60, 82
1, 19938, Note_off_c, 0, 60, 62
1, 19962, Note_on_c, 0, 47, 98
1, 19968, Note_on_c, 0, 35, 86
1, 20001, Note_off_c, 0, 47, 63
1, 20007, Note_on_c, 0, 37, 32
1, 20009, Note_on_c, 0, 59, 91
1, 20011, Note_off_c, 0, 35, 63
1, 20045, Note_off_c, 0, 37, 48
1, 20048, Note_off_c, 0, 59, 63
1, 20069, Note_on_c, 0, 45, 99
1, 20072, Note_on_c, 0, 33, 93
1, 20094, Note_on_c, 0, 34, 63
1, 20102, Note_off_c, 0, 45, 67
1, 20114, Note_off_c, 0, 33, 65
1, 20120, Note_off_c, 0, 34, 58
1, 20121, Note_on_c, 0, 57, 91
1, 20147, Note_off_c, 0, 57, 66
1, 20168, Note_on_c, 0, 43, 101
1, 20177, Note_on_c, 0, 31, 83
1, 20183, Note_on_c, 0, 32, 74
1, 20185, Note_on_c, 0, 34, 73
1, 20196, Note_off_c, 0, 43, 64
1, 20208, Note_off_c, 0, 32, 59
1, 20210, Note_off_c, 0, 31, 65
1, 20210, Note_off_c, 0, 34, 58
1, 20222, Note_on_c, 0, 55, 94
1, 20261, Control_c, 0, 64, 59
1, 20272, Note_off_c, 0, 55, 66
1, 20276, Control_c, 0, 64, 0
1, 20302, Note_on_c, 0, 56, 97
1, 20308, Note_on_c, 0, 44, 83
1, 20332, Note_off_c, 0, 56, 60
1, 20335, Control_c, 0, 64, 26
1, 20350, Note_on_c, 0, 68, 86
1, 20350, Control_c, 0, 64, 47
1, 20351, Note_off_c, 0, 44, 60
1, 20365, Control_c, 0, 64, 64
1, 20380, Control_c, 0, 64, 111
1, 20394, Control_c, 0, 64, 127
1, 20415, Note_on_c, 0, 54, 90
1, 20417, Note_on_c, 0, 42, 87
1, 20418, Note_off_c, 0, 68, 57
1, 20445, Note_on_c, 0, 44, 43
1, 20448, Note_off_c, 0, 54, 61
1, 20450, Note_on_c, 0, 41, 51
1, 20457, Note_off_c, 0, 42, 61
1, 20463, Note_on_c, 0, 66, 96
1, 20474, Note_off_c, 0, 44, 52
1, 20481, Note_off_c, 0, 41, 59
1, 20511, Note_off_c, 0, 66, 66
1, 20517, Note_on_c, 0, 53, 89
1, 20528, Note_on_c, 0, 41, 83
1, 20534, Note_on_c, 0, 44, 74
1, 20551, Note_on_c, 0, 42, 43
1, 20553, Note_off_c, 0, 53, 69
1, 20562, Note_off_c, 0, 41, 63
1, 20564, Note_off_c, 0, 44, 65
1, 20567, Note_off_c, 0, 42, 67
1, 20567, Note_on_c, 0, 65, 85
1, 20624, Note_on_c, 0, 51, 101
1, 20627, Note_off_c, 0, 65, 65
1, 20630, Note_on_c, 0, 39, 91
1, 20660, Note_on_c, 0, 44, 30
1, 20661, Note_off_c, 0, 51, 58
1, 20664, Note_on_c, 0, 63, 98
1, 20680, Note_off_c, 0, 39, 58
1, 20680, Note_off_c, 0, 44, 66
1, 20707, Note_off_c, 0, 63, 64
1, 20724, Poly_aftertouch_c, 0, 42, 0
1, 20737, Note_on_c, 0, 49, 100
1, 20746, Note_on_c, 0, 37, 84
1, 20763, Note_on_c, 0, 61, 84
1, 20764, Note_off_c, 0, 49, 65
1, 20770, Note_off_c, 0, 37, 67
1, 20781, Note_on_c, 0, 39, 12
1, 20782, Note_off_c, 0, 39, 127
1, 20782, Note_off_c, 0, 61, 70
1, 20825, Poly_aftertouch_c, 0, 44, 0
1, 20891, Control_c, 0, 64, 61
1, 20900, Note_on_c, 0, 53, 62
1, 20901, Note_on_c, 0, 61, 87
1, 20905, Note_on_c, 0, 89, 99
1, 20906, Control_c, 0, 64, 0
1, 20907, Note_on_c, 0, 77, 103
1, 20907, Note_on_c, 0, 56, 91
1, 20909, Note_on_c, 0, 80, 89
1, 20910, Note_on_c, 0, 49, 79
1, 20912, Note_on_c, 0, 84, 86
1, 20921, Note_on_c, 0, 76, 61
1, 20922, Note_off_c, 0, 76, 127
1, 20922, Note_on_c, 0, 88, 68
1, 20922, Note_off_c, 0, 80, 71
1, 20922, Note_off_c, 0, 77, 75
1, 20923, Note_off_c, 0, 89, 69
1, 20925, Note_off_c, 0, 61, 68
1, 20928, Note_off_c, 0, 56, 71
1, 20928, Note_off_c, 0, 88, 47
1, 20933, Note_off_c, 0, 84, 70
1, 20937, Note_off_c, 0, 53, 66
1, 20940, Note_off_c, 0, 49, 67
1, 21101, Note_on_c, 0, 95, 107
1, 21105, Note_on_c, 0, 55, 92
1, 21107, Note_on_c, 0, 83, 98
1, 21108, Note_on_c, 0, 86, 91
1, 21109, Note_on_c, 0, 50, 86
1, 21109, Note_on_c, 0, 88, 91
1, 21113, Note_on_c, 0, 43, 84
1, 21113, Note_on_c, 0, 47, 81
1, 21113, Note_on_c, 0, 93, 86
1, 21115, Note_on_c, 0, 91, 83
1, 21143, Control_c, 0, 64, 25
1, 21158, Control_c, 0, 64, 57
1, 21173, Control_c, 0, 64, 93
1, 21188, Control_c, 0, 64, 127
1, 21205, Note_off_c, 0, 83, 60
1, 21218, Note_off_c, 0, 55, 58
1, 21242, Note_off_c, 0, 50, 61
1, 21251, Note_off_c, 0, 86, 54
1, 21253, Note_off_c, 0, 88, 55
1, 21256, Note_off_c, 0, 47, 61
1, 21256, Note_off_c, 0, 95, 44
1, 21268, Note_off_c, 0, 93, 33
1, 21272, Note_off_c, 0, 43, 58
1, 21282, Note_off_c, 0, 91, 53
1, 21492, Note_on_c, 0, 96, 101
1, 21494, Note_on_c, 0, 92, 92
1, 21497, Note_on_c, 0, 84, 96
1, 21500, Note_on_c, 0, 53, 97
1, 21500, Note_on_c, 0, 89, 87
1, 21501, Note_on_c, 0, 48, 89
1, 21504, Note_on_c, 0, 44, 80
1, 21505, Note_on_c, 0, 41, 83
1, 21514, Control_c, 0, 64, 74
1, 21528, Control_c, 0, 64, 53
1, 21543, Control_c, 0, 64, 14
1, 21558, Control_c, 0, 64, 0
1, 21573, Control_c, 0, 64, 30
1, 21595, Poly_aftertouch_c, 0, 94, 127
1, 21596, Control_c, 0, 64, 54
1, 21610, Control_c, 0, 64, 91
1, 21625, Control_c, 0, 64, 127
1, 21663, Note_off_c, 0, 53, 60
1, 21678, Note_off_c, 0, 41, 60
1, 21688, Note_off_c, 0, 96, 61
1, 21697, Note_off_c, 0, 48, 65
1, 21701, Note_off_c, 0, 84, 56
1, 21721, Note_off_c, 0, 44, 62
1, 21745, Poly_aftertouch_c, 0, 94, 0
1, 21751, Note_off_c, 0, 89, 54
1, 21761, Note_off_c, 0, 92, 56
1, 21861, Note_on_c, 0, 89, 94
1, 21861, Note_on_c, 0, 97, 103
1, 21861, Note_on_c, 0, 49, 104
1, 21862, Note_on_c, 0, 85, 102
1, 21865, Note_on_c, 0, 92, 92
1, 21867, Note_on_c, 0, 44, 98
1, 21869, Note_on_c, 0, 37, 82
1, 21871, Note_on_c, 0, 41, 90
1, 21878, Control_c, 0, 64, 97
1, 21893, Control_c, 0, 64, 53
1, 21908, Control_c, 0, 64, 0
1, 21922, Control_c, 0, 64, 13
1, 21937, Control_c, 0, 64, 37
1, 21952, Control_c, 0, 64, 53
1, 21966, Control_c, 0, 64, 86
1, 21981, Control_c, 0, 64, 127
1, 22040, Poly_aftertouch_c, 0, 94, 127
1, 22075, Note_off_c, 0, 89, 56
1, 22081, Note_off_c, 0, 41, 59
1, 22085, Note_off_c, 0, 92, 62
1, 22093, Note_off_c, 0, 44, 56
1, 22093, Note_off_c, 0, 97, 64
1, 22095, Note_off_c, 0, 85, 62
1, 22098, Note_off_c, 0, 49, 58
1, 22099, Note_off_c, 0, 37, 61
1, 22147, Poly_aftertouch_c, 0, 94, 0
1, 22217, Note_on_c, 0, 44, 89
1, 22217, Note_on_c, 0, 98, 105
1, 22218, Note_on_c, 0, 89, 101
1, 22219, Control_c, 0, 64, 52
1, 22219, Note_on_c, 0, 92, 95
1, 22220, Note_on_c, 0, 48, 109
1, 22220, Note_on_c, 0, 86, 102
1, 22221, Note_on_c, 0, 41, 96
1, 22231, Note_on_c, 0, 35, 70
1, 22233, Control_c, 0, 64, 0
1, 22235, Note_on_c, 0, 36, 81
1, 22263, Control_c, 0, 64, 35
1, 22277, Control_c, 0, 64, 56
1, 22292, Control_c, 0, 64, 127
1, 22293, Note_on_c, 0, 37, 6
1, 22340, Note_off_c, 0, 37, 40
1, 22342, Note_off_c, 0, 35, 63
1, 22356, Note_off_c, 0, 48, 60
1, 22372, Note_off_c, 0, 86, 57
1, 22387, Note_off_c, 0, 36, 61
1, 22396, Note_off_c, 0, 44, 59
1, 22401, Note_off_c, 0, 41, 62
1, 22406, Note_off_c, 0, 89, 63
1, 22410, Note_off_c, 0, 98, 56
1, 22433, Note_off_c, 0, 92, 66
1, 22627, Note_on_c, 0, 89, 110
1, 22627, Note_on_c, 0, 101, 102
1, 22628, Note_on_c, 0, 96, 100
1, 22628, Note_on_c, 0, 98, 94
1, 22630, Note_on_c, 0, 44, 109
1, 22634, Note_on_c, 0, 32, 89
1, 22635, Note_on_c, 0, 38, 92
1, 22637, Note_on_c, 0, 36, 85
1, 22657, Control_c, 0, 64, 92
1, 22668, Note_on_c, 0, 100, 48
1, 22671, Control_c, 0, 64, 48
1, 22686, Control_c, 0, 64, 0
1, 22687, Note_on_c, 0, 34, 14
1, 22735, Note_off_c, 0, 34, 49
1, 22745, Control_c, 0, 64, 27
1, 22760, Control_c, 0, 64, 58
1, 22775, Control_c, 0, 64, 127
1, 22797, Note_off_c, 0, 100, 0
1, 22834, Poly_aftertouch_c, 0, 100, 127
1, 22880, Note_off_c, 0, 44, 53
1, 22881, Note_off_c, 0, 32, 58
1, 22881, Note_off_c, 0, 101, 59
1, 22885, Note_off_c, 0, 89, 58
1, 22900, Note_off_c, 0, 38, 58
1, 22903, Note_off_c, 0, 36, 59
1, 22904, Note_off_c, 0, 96, 54
1, 22912, Note_off_c, 0, 98, 53
1, 22912, Poly_aftertouch_c, 0, 100, 0
1, 22990, Note_on_c, 0, 101, 91
1, 22994, Note_on_c, 0, 98, 97
1, 22995, Note_on_c, 0, 89, 105
1, 22995, Note_on_c, 0, 96, 87
1, 23000, Note_on_c, 0, 44, 94
1, 23001, Note_on_c, 0, 32, 80
1, 23007, Note_on_c, 0, 38, 85
1, 23008, Note_on_c, 0, 36, 77
1, 23018, Note_on_c, 0, 100, 49
1, 23086, Poly_aftertouch_c, 0, 43, 127
1, 23088, Note_on_c, 0, 43, 3
1, 23088, Note_off_c, 0, 100, 0
1, 23125, Poly_aftertouch_c, 0, 100, 127
1, 23134, Note_off_c, 0, 43, 46
1, 23137, Note_off_c, 0, 32, 59
1, 23143, Note_off_c, 0, 44, 57
1, 23147, Note_off_c, 0, 89, 60
1, 23152, Note_off_c, 0, 101, 63
1, 23160, Poly_aftertouch_c, 0, 100, 0
1, 23162, Note_off_c, 0, 36, 53
1, 23164, Note_off_c, 0, 38, 61
1, 23172, Note_off_c, 0, 96, 60
1, 23177, Note_off_c, 0, 98, 59
1, 23226, Note_on_c, 0, 44, 113
1, 23231, Note_on_c, 0, 101, 101
1, 23232, Note_on_c, 0, 89, 107
1, 23234, Note_on_c, 0, 38, 81
1, 23234, Note_on_c, 0, 96, 88
1, 23234, Note_on_c, 0, 98, 92
1, 23235, Note_on_c, 0, 32, 88
1, 23238, Note_on_c, 0, 36, 73
1, 23260, Note_on_c, 0, 100, 49
1, 23268, Note_on_c, 0, 34, 38
1, 23301, Note_off_c, 0, 100, 47
1, 23304, Note_off_c, 0, 34, 53
1, 23312, Note_off_c, 0, 44, 60
1, 23316, Note_off_c, 0, 89, 61
1, 23320, Note_off_c, 0, 101, 63
1, 23333, Note_off_c, 0, 32, 60
1, 23340, Note_off_c, 0, 38, 60
1, 23348, Note_off_c, 0, 36, 57
1, 23354, Note_off_c, 0, 96, 58
1, 23366, Note_off_c, 0, 98, 62
1, 23411, Note_on_c, 0, 44, 110
1, 23414, Note_on_c, 0, 89, 108
1, 23415, Note_on_c, 0, 96, 94
1, 23417, Note_on_c, 0, 32, 80
1, 23417, Note_on_c, 0, 98, 82
1, 23417, Note_on_c, 0, 101, 82
1, 23420, Note_on_c, 0, 38, 88
1, 23421, Note_on_c, 0, 36, 77
1, 23434, Note_off_c, 0, 98, 74
1, 23438, Note_off_c, 0, 101, 72
1, 23439, Note_on_c, 0, 34, 45
1, 23440, Note_off_c, 0, 96, 65
1, 23450, Note_off_c, 0, 89, 68
1, 23477, Note_off_c, 0, 34, 55
1, 23498, Note_off_c, 0, 44, 60
1, 23507, Note_off_c, 0, 36, 59
1, 23509, Note_off_c, 0, 38, 58
1, 23519, Note_off_c, 0, 32, 58
1, 23599, Control_c, 0, 64, 62
1, 23613, Control_c, 0, 64, 0
1, 23643, Note_on_c, 0, 43, 107
1, 23644, Note_on_c, 0, 38, 94
1, 23644, Note_on_c, 0, 53, 97
1, 23645, Note_on_c, 0, 31, 92
1, 23646, Note_on_c, 0, 59, 90
1, 23647, Note_on_c, 0, 50, 96
1, 23650, Note_on_c, 0, 35, 87
1, 23664, Note_on_c, 0, 32, 69
1, 23666, Note_off_c, 0, 50, 73
1, 23673, Control_c, 0, 64, 30
1, 23674, Note_off_c, 0, 31, 69
1, 23675, Note_off_c, 0, 53, 71
1, 23676, Note_off_c, 0, 35, 66
1, 23679, Note_on_c, 0, 58, 56
1, 23679, Note_off_c, 0, 38, 67
1, 23684, Note_off_c, 0, 32, 62
1, 23685, Note_off_c, 0, 59, 67
1, 23687, Control_c, 0, 64, 50
1, 23691, Note_off_c, 0, 43, 62
1, 23702, Control_c, 0, 64, 68
1, 23704, Note_off_c, 0, 58, 55
1, 23717, Control_c, 0, 64, 127
1, 23909, Note_on_c, 0, 80, 76
1, 23920, Note_on_c, 0, 92, 47
1, 23942, Note_on_c, 0, 93, 56
1, 23963, Note_on_c, 0, 91, 81
1, 23964, Note_on_c, 0, 79, 68
1, 23989, Note_off_c, 0, 93, 61
1, 23993, Note_on_c, 0, 78, 57
1, 23993, Note_on_c, 0, 90, 81
1, 23998, Note_off_c, 0, 80, 33
1, 24026, Note_off_c, 0, 91, 60
1, 24028, Note_on_c, 0, 89, 74
1, 24032, Note_off_c, 0, 79, 63
1, 24036, Note_off_c, 0, 92, 60
1, 24042, Note_off_c, 0, 90, 68
1, 24051, Note_on_c, 0, 88, 77
1, 24051, Note_off_c, 0, 78, 66
1, 24061, Note_off_c, 0, 89, 65
1, 24067, Note_on_c, 0, 76, 28
1, 24095, Note_off_c, 0, 88, 63
1, 24105, Note_off_c, 0, 76, 50
1, 24112, Note_on_c, 0, 75, 83
1, 24121, Note_on_c, 0, 87, 76
1, 24124, Note_on_c, 0, 86, 72
1, 24132, Note_off_c, 0, 75, 70
1, 24135, Note_on_c, 0, 74, 76
1, 24153, Note_on_c, 0, 85, 67
1, 24154, Note_on_c, 0, 73, 75
1, 24154, Control_c, 0, 64, 58
1, 24164, Note_on_c, 0, 84, 70
1, 24169, Control_c, 0, 64, 0
1, 24186, Note_on_c, 0, 83, 87
1, 24189, Note_on_c, 0, 71, 88
1, 24192, Note_on_c, 0, 72, 80
1, 24193, Note_off_c, 0, 85, 50
1, 24205, Note_off_c, 0, 86, 61
1, 24205, Note_off_c, 0, 87, 66
1, 24207, Note_off_c, 0, 84, 63
1, 24207, Note_off_c, 0, 74, 67
1, 24210, Note_off_c, 0, 73, 67
1, 24210, Note_off_c, 0, 72, 72
1, 24214, Control_c, 0, 64, 35
1, 24222, Note_off_c, 0, 71, 72
1, 24222, Note_off_c, 0, 83, 68
1, 24228, Control_c, 0, 64, 53
1, 24243, Control_c, 0, 64, 68
1, 24258, Control_c, 0, 64, 100
1, 24273, Control_c, 0, 64, 115
1, 24317, Control_c, 0, 64, 127
1, 24381, Note_on_c, 0, 68, 81
1, 24383, Note_on_c, 0, 80, 85
1, 24403, Note_off_c, 0, 68, 66
1, 24422, Note_on_c, 0, 67, 72
1, 24426, Note_on_c, 0, 79, 73
1, 24453, Note_on_c, 0, 78, 83
1, 24463, Note_on_c, 0, 66, 79
1, 24479, Note_on_c, 0, 77, 76
1, 24487, Note_off_c, 0, 79, 61
1, 24492, Note_off_c, 0, 67, 68
1, 24496, Note_on_c, 0, 65, 57
1, 24505, Note_off_c, 0, 66, 66
1, 24508, Note_off_c, 0, 80, 56
1, 24510, Note_on_c, 0, 63, 58
1, 24511, Note_off_c, 0, 78, 62
1, 24518, Note_off_c, 0, 65, 64
1, 24521, Note_on_c, 0, 76, 78
1, 24529, Note_off_c, 0, 77, 63
1, 24535, Note_off_c, 0, 63, 37
1, 24565, Note_on_c, 0, 63, 81
1, 24577, Note_off_c, 0, 76, 62
1, 24588, Note_on_c, 0, 75, 76
1, 24599, Note_on_c, 0, 62, 64
1, 24600, Note_on_c, 0, 74, 69
1, 24612, Note_on_c, 0, 61, 73
1, 24630, Note_on_c, 0, 73, 75
1, 24636, Note_on_c, 0, 72, 73
1, 24636, Control_c, 0, 64, 87
1, 24651, Control_c, 0, 64, 52
1, 24654, Note_off_c, 0, 63, 49
1, 24655, Note_on_c, 0, 60, 75
1, 24662, Note_on_c, 0, 59, 89
1, 24662, Note_on_c, 0, 71, 86
1, 24666, Control_c, 0, 64, 0
1, 24675, Note_off_c, 0, 61, 69
1, 24678, Note_off_c, 0, 75, 62
1, 24680, Note_off_c, 0, 62, 64
1, 24680, Note_off_c, 0, 74, 62
1, 24680, Note_off_c, 0, 72, 66
1, 24685, Note_off_c, 0, 73, 51
1, 24688, Note_off_c, 0, 60, 63
1, 24695, Control_c, 0, 64, 11
1, 24696, Note_off_c, 0, 59, 71
1, 24703, Note_off_c, 0, 71, 65
1, 24710, Control_c, 0, 64, 36
1, 24725, Control_c, 0, 64, 53
1, 24740, Control_c, 0, 64, 73
1, 24755, Control_c, 0, 64, 115
1, 24769, Control_c, 0, 64, 127
1, 24799, Control_c, 0, 64, 88
1, 24814, Control_c, 0, 64, 67
1, 24829, Control_c, 0, 64, 53
1, 24838, Note_on_c, 0, 56, 84
1, 24843, Control_c, 0, 64, 36
1, 24845, Note_on_c, 0, 68, 89
1, 24858, Control_c, 0, 64, 18
1, 24863, Note_off_c, 0, 56, 68
1, 24869, Note_on_c, 0, 55, 73
1, 24873, Control_c, 0, 64, 20
1, 24884, Note_on_c, 0, 67, 73
1, 24887, Control_c, 0, 64, 33
1, 24902, Control_c, 0, 64, 47
1, 24908, Note_on_c, 0, 66, 85
1, 24913, Note_on_c, 0, 54, 74
1, 24915, Note_off_c, 0, 68, 62
1, 24917, Control_c, 0, 64, 64
1, 24932, Control_c, 0, 64, 80
1, 24946, Note_on_c, 0, 65, 71
1, 24947, Control_c, 0, 64, 84
1, 24951, Note_off_c, 0, 55, 67
1, 24953, Note_off_c, 0, 67, 65
1, 24958, Note_on_c, 0, 53, 56
1, 24963, Control_c, 0, 64, 83
1, 24969, Note_off_c, 0, 66, 64
1, 24974, Note_off_c, 0, 54, 66
1, 24977, Control_c, 0, 64, 81
1, 24982, Note_off_c, 0, 53, 60
1, 24983, Note_on_c, 0, 52, 55
1, 24984, Note_on_c, 0, 64, 80
1, 24992, Control_c, 0, 64, 80
1, 25002, Note_off_c, 0, 65, 65
1, 25007, Control_c, 0, 64, 79
1, 25009, Note_off_c, 0, 52, 60
1, 25019, Note_off_c, 0, 64, 60
1, 25022, Control_c, 0, 64, 75
1, 25028, Note_on_c, 0, 51, 82
1, 25037, Control_c, 0, 64, 72
1, 25043, Note_on_c, 0, 49, 83
1, 25051, Note_off_c, 0, 51, 69
1, 25051, Control_c, 0, 64, 71
1, 25062, Note_on_c, 0, 63, 68
1, 25069, Note_on_c, 0, 62, 57
1, 25093, Note_on_c, 0, 50, 62
1, 25098, Note_on_c, 0, 61, 68
1, 25104, Note_on_c, 0, 60, 56
1, 25110, Control_c, 0, 64, 66
1, 25123, Note_on_c, 0, 59, 88
1, 25125, Control_c, 0, 64, 52
1, 25131, Note_on_c, 0, 47, 90
1, 25131, Note_on_c, 0, 48, 67
1, 25132, Note_off_c, 0, 61, 61
1, 25134, Note_off_c, 0, 60, 66
1, 25137, Note_off_c, 0, 49, 62
1, 25140, Control_c, 0, 64, 0
1, 25143, Note_off_c, 0, 62, 59
1, 25146, Note_off_c, 0, 63, 63
1, 25149, Note_off_c, 0, 50, 65
1, 25161, Note_off_c, 0, 48, 67
1, 25161, Note_off_c, 0, 59, 69
1, 25163, Note_off_c, 0, 47, 68
1, 25200, Control_c, 0, 64, 32
1, 25215, Control_c, 0, 64, 47
1, 25229, Control_c, 0, 64, 60
1, 25244, Control_c, 0, 64, 66
1, 25259, Control_c, 0, 64, 65
1, 25274, Control_c, 0, 64, 58
1, 25289, Control_c, 0, 64, 42
1, 25301, Note_on_c, 0, 44, 73
1, 25301, Note_on_c, 0, 56, 81
1, 25303, Control_c, 0, 64, 0
1, 25340, Note_off_c, 0, 44, 63
1, 25340, Control_c, 0, 64, 19
1, 25345, Note_on_c, 0, 43, 67
1, 25353, Note_on_c, 0, 55, 61
1, 25355, Control_c, 0, 64, 37
1, 25370, Control_c, 0, 64, 50
1, 25384, Note_on_c, 0, 54, 77
1, 25384, Control_c, 0, 64, 61
1, 25393, Note_on_c, 0, 42, 75
1, 25393, Note_off_c, 0, 56, 62
1, 25399, Control_c, 0, 64, 66
1, 25408, Poly_aftertouch_c, 0, 45, 127
1, 25414, Control_c, 0, 64, 67
1, 25417, Note_on_c, 0, 53, 71
1, 25417, Note_off_c, 0, 55, 67
1, 25426, Note_off_c, 0, 43, 62
1, 25429, Control_c, 0, 64, 65
1, 25432, Note_on_c, 0, 41, 56
1, 25433, Poly_aftertouch_c, 0, 45, 0
1, 25438, Note_off_c, 0, 42, 64
1, 25438, Poly_aftertouch_c, 0, 57, 127
1, 25444, Control_c, 0, 64, 64
1, 25448, Note_off_c, 0, 54, 64
1, 25459, Control_c, 0, 64, 63
1, 25461, Note_off_c, 0, 53, 64
1, 25462, Note_off_c, 0, 41, 56
1, 25467, Note_on_c, 0, 52, 62
1, 25469, Poly_aftertouch_c, 0, 57, 0
1, 25474, Control_c, 0, 64, 62
1, 25495, Note_on_c, 0, 39, 79
1, 25503, Control_c, 0, 64, 62
1, 25505, Poly_aftertouch_c, 0, 40, 127
1, 25517, Control_c, 0, 64, 60
1, 25521, Note_off_c, 0, 39, 67
1, 25523, Note_on_c, 0, 51, 62
1, 25525, Note_off_c, 0, 52, 65
1, 25532, Control_c, 0, 64, 56
1, 25533, Note_on_c, 0, 38, 64
1, 25547, Poly_aftertouch_c, 0, 40, 0
1, 25547, Control_c, 0, 64, 46
1, 25548, Note_on_c, 0, 50, 49
1, 25562, Control_c, 0, 64, 30
1, 25572, Note_on_c, 0, 37, 64
1, 25577, Note_on_c, 0, 49, 66
1, 25577, Control_c, 0, 64, 0
1, 25581, Note_off_c, 0, 50, 52
1, 25589, Note_on_c, 0, 48, 70
1, 25596, Note_off_c, 0, 51, 56
1, 25604, Note_off_c, 0, 38, 63
1, 25611, Note_off_c, 0, 49, 65
1, 25611, Note_on_c, 0, 36, 48
1, 25624, Note_off_c, 0, 37, 67
1, 25637, Note_off_c, 0, 48, 66
1, 25638, Note_on_c, 0, 47, 66
1, 25661, Note_off_c, 0, 36, 63
1, 25668, Note_on_c, 0, 35, 63
1, 25711, Note_on_c, 0, 48, 67
1, 25721, Note_off_c, 0, 47, 62
1, 25725, Note_on_c, 0, 36, 65
1, 25732, Note_off_c, 0, 35, 56
1, 25755, Control_c, 0, 64, 20
1, 25760, Note_on_c, 0, 49, 73
1, 25770, Control_c, 0, 64, 32
1, 25781, Note_on_c, 0, 39, 60
1, 25781, Note_on_c, 0, 37, 62
1, 25785, Note_off_c, 0, 48, 65
1, 25785, Control_c, 0, 64, 45
1, 25798, Note_off_c, 0, 36, 64
1, 25799, Control_c, 0, 64, 56
1, 25800, Note_on_c, 0, 50, 65
1, 25814, Control_c, 0, 64, 63
1, 25829, Note_off_c, 0, 37, 61
1, 25829, Control_c, 0, 64, 68
1, 25830, Note_on_c, 0, 51, 76
1, 25830, Note_off_c, 0, 49, 66
1, 25836, Note_off_c, 0, 50, 66
1, 25838, Note_on_c, 0, 38, 45
1, 25844, Control_c, 0, 64, 70
1, 25856, Note_off_c, 0, 51, 63
1, 25870, Note_off_c, 0, 39, 58
1, 25872, Note_off_c, 0, 38, 52
1, 25881, Note_on_c, 0, 52, 79
1, 25919, Control_c, 0, 64, 70
1, 25923, Note_on_c, 0, 41, 67
1, 25930, Note_on_c, 0, 40, 54
1, 25933, Control_c, 0, 64, 71
1, 25939, Note_on_c, 0, 53, 77
1, 25948, Control_c, 0, 64, 71
1, 25960, Note_off_c, 0, 40, 56
1, 25963, Control_c, 0, 64, 72
1, 25984, Note_on_c, 0, 54, 81
1, 25993, Control_c, 0, 64, 68
1, 26002, Note_on_c, 0, 42, 71
1, 26005, Note_off_c, 0, 52, 55
1, 26007, Note_on_c, 0, 44, 66
1, 26007, Control_c, 0, 64, 60
1, 26012, Note_off_c, 0, 41, 61
1, 26015, Note_off_c, 0, 53, 65
1, 26022, Control_c, 0, 64, 43
1, 26037, Control_c, 0, 64, 0
1, 26046, Note_on_c, 0, 55, 49
1, 26056, Note_off_c, 0, 42, 64
1, 26069, Note_off_c, 0, 44, 62
1, 26085, Note_on_c, 0, 43, 60
1, 26089, Note_off_c, 0, 54, 64
1, 26100, Note_on_c, 0, 56, 74
1, 26108, Note_off_c, 0, 55, 65
1, 26112, Note_on_c, 0, 44, 45
1, 26118, Note_off_c, 0, 43, 61
1, 26119, Control_c, 0, 64, 16
1, 26133, Control_c, 0, 64, 28
1, 26148, Control_c, 0, 64, 33
1, 26163, Control_c, 0, 64, 34
1, 26169, Note_on_c, 0, 55, 52
1, 26171, Note_off_c, 0, 44, 61
1, 26172, Note_off_c, 0, 56, 59
1, 26201, Note_on_c, 0, 54, 70
1, 26201, Note_on_c, 0, 43, 62
1, 26222, Note_off_c, 0, 55, 64
1, 26222, Control_c, 0, 64, 33
1, 26229, Note_on_c, 0, 42, 66
1, 26237, Control_c, 0, 64, 32
1, 26243, Note_off_c, 0, 43, 60
1, 26252, Note_off_c, 0, 54, 57
1, 26252, Control_c, 0, 64, 31
1, 26255, Note_on_c, 0, 53, 52
1, 26279, Note_off_c, 0, 53, 61
1, 26282, Note_off_c, 0, 42, 65
1, 26284, Note_on_c, 0, 41, 59
1, 26293, Note_on_c, 0, 52, 65
1, 26297, Control_c, 0, 64, 30
1, 26306, Note_on_c, 0, 40, 57
1, 26311, Control_c, 0, 64, 28
1, 26312, Note_off_c, 0, 41, 57
1, 26326, Control_c, 0, 64, 26
1, 26334, Note_off_c, 0, 40, 57
1, 26341, Control_c, 0, 64, 23
1, 26356, Control_c, 0, 64, 19
1, 26357, Note_on_c, 0, 51, 58
1, 26358, Note_off_c, 0, 52, 66
1, 26359, Note_on_c, 0, 39, 58
1, 26371, Control_c, 0, 64, 11
1, 26386, Note_off_c, 0, 39, 38
1, 26386, Control_c, 0, 64, 0
1, 26394, Note_on_c, 0, 50, 59
1, 26398, Note_off_c, 0, 51, 57
1, 26408, Note_on_c, 0, 38, 60
1, 26438, Note_on_c, 0, 37, 66
1, 26442, Note_on_c, 0, 49, 63
1, 26448, Note_off_c, 0, 38, 61
1, 26469, Note_off_c, 0, 50, 65
1, 26475, Note_off_c, 0, 49, 66
1, 26476, Note_off_c, 0, 37, 66
1, 26481, Note_on_c, 0, 48, 67
1, 26508, Note_on_c, 0, 36, 56
1, 26520, Note_off_c, 0, 48, 67
1, 26532, Note_on_c, 0, 47, 67
1, 26533, Control_c, 0, 64, 20
1, 26536, Note_off_c, 0, 36, 60
1, 26537, Note_on_c, 0, 35, 72
1, 26548, Control_c, 0, 64, 29
1, 26562, Note_off_c, 0, 47, 67
1, 26564, Control_c, 0, 64, 30
1, 26568, Note_off_c, 0, 35, 65
1, 26594, Control_c, 0, 64, 28
1, 26609, Control_c, 0, 64, 24
1, 26623, Control_c, 0, 64, 19
1, 26638, Control_c, 0, 64, 11
1, 26653, Control_c, 0, 64, 0
1, 27182, Note_on_c, 0, 55, 51
1, 27210, Note_on_c, 0, 43, 34
1, 27283, Note_off_c, 0, 55, 65
1, 27285, Note_off_c, 0, 43, 59
1, 28134, Control_c, 0, 64, 34
1, 28150, Control_c, 0, 64, 53
1, 28165, Control_c, 0, 64, 74
1, 28180, Control_c, 0, 64, 127
1, 28214, Note_on_c, 0, 36, 97
1, 28243, Note_off_c, 0, 36, 66
1, 28295, Note_on_c, 0, 48, 91
1, 28339, Note_off_c, 0, 48, 65
1, 28386, Note_on_c, 0, 43, 96
1, 28428, Note_off_c, 0, 43, 64
1, 28435, Note_on_c, 0, 55, 96
1, 28475, Note_off_c, 0, 55, 67
1, 28496, Note_on_c, 0, 41, 109
1, 28540, Note_off_c, 0, 41, 66
1, 28549, Note_on_c, 0, 53, 91
1, 28588, Note_off_c, 0, 53, 68
1, 28607, Note_on_c, 0, 39, 98
1, 28648, Note_off_c, 0, 39, 69
1, 28649, Note_on_c, 0, 51, 99
1, 28652, Note_on_c, 0, 37, 33
1, 28687, Note_off_c, 0, 51, 69
1, 28691, Note_off_c, 0, 37, 44
1, 28709, Note_on_c, 0, 38, 102
1, 28747, Note_on_c, 0, 50, 97
1, 28761, Note_off_c, 0, 38, 62
1, 28781, Note_off_c, 0, 50, 62
1, 28807, Note_on_c, 0, 36, 98
1, 28839, Note_on_c, 0, 48, 95
1, 28844, Note_off_c, 0, 36, 65
1, 28871, Note_off_c, 0, 48, 69
1, 28956, Poly_aftertouch_c, 0, 53, 0
1, 28973, Control_c, 0, 64, 68
1, 28979, Poly_aftertouch_c, 0, 55, 0
1, 28988, Control_c, 0, 64, 13
1, 29003, Control_c, 0, 64, 0
1, 29050, Note_on_c, 0, 55, 94
1, 29050, Note_on_c, 0, 60, 106
1, 29052, Note_on_c, 0, 75, 101
1, 29052, Note_on_c, 0, 84, 102
1, 29053, Note_on_c, 0, 51, 88
1, 29055, Note_on_c, 0, 72, 91
1, 29061, Note_on_c, 0, 48, 82
1, 29062, Control_c, 0, 64, 43
1, 29078, Note_off_c, 0, 72, 74
1, 29079, Note_off_c, 0, 60, 67
1, 29084, Note_off_c, 0, 75, 66
1, 29084, Control_c, 0, 64, 68
1, 29090, Note_off_c, 0, 84, 66
1, 29091, Note_on_c, 0, 82, 45
1, 29092, Note_off_c, 0, 82, 127
1, 29096, Note_off_c, 0, 55, 66
1, 29098, Note_off_c, 0, 48, 62
1, 29099, Control_c, 0, 64, 127
1, 29105, Note_off_c, 0, 51, 65
1, 29301, Note_on_c, 0, 55, 76
1, 29301, Note_on_c, 0, 60, 81
1, 29309, Note_on_c, 0, 51, 68
1, 29312, Note_on_c, 0, 72, 68
1, 29317, Note_off_c, 0, 60, 77
1, 29319, Note_on_c, 0, 67, 60
1, 29319, Note_off_c, 0, 55, 75
1, 29327, Note_off_c, 0, 72, 69
1, 29330, Note_off_c, 0, 51, 65
1, 29333, Note_on_c, 0, 76, 38
1, 29339, Note_off_c, 0, 67, 66
1, 29358, Note_on_c, 0, 67, 78
1, 29358, Note_on_c, 0, 79, 76
1, 29360, Note_on_c, 0, 48, 9
1, 29364, Note_off_c, 0, 76, 57
1, 29364, Note_on_c, 0, 75, 77
1, 29366, Note_on_c, 0, 60, 97
1, 29370, Note_on_c, 0, 55, 82
1, 29373, Note_on_c, 0, 51, 75
1, 29373, Note_on_c, 0, 72, 75
1, 29385, Note_off_c, 0, 60, 75
1, 29391, Note_off_c, 0, 75, 67
1, 29393, Note_off_c, 0, 55, 73
1, 29393, Note_off_c, 0, 72, 72
1, 29397, Note_off_c, 0, 51, 67
1, 29397, Note_off_c, 0, 67, 66
1, 29400, Note_off_c, 0, 79, 63
1, 29406, Note_off_c, 0, 48, 66
1, 29662, Note_on_c, 0, 60, 91
1, 29666, Note_on_c, 0, 55, 78
1, 29666, Note_on_c, 0, 63, 82
1, 29668, Note_on_c, 0, 67, 82
1, 29668, Note_on_c, 0, 75, 77
1, 29677, Note_off_c, 0, 60, 76
1, 29681, Note_on_c, 0, 51, 58
1, 29686, Note_off_c, 0, 67, 75
1, 29686, Note_on_c, 0, 48, 50
1, 29686, Note_off_c, 0, 63, 71
1, 29688, Note_off_c, 0, 55, 69
1, 29692, Note_off_c, 0, 75, 68
1, 29700, Note_on_c, 0, 68, 14
1, 29710, Note_off_c, 0, 51, 0
1, 29716, Note_on_c, 0, 63, 86
1, 29717, Note_on_c, 0, 67, 90
1, 29722, Note_on_c, 0, 75, 90
1, 29722, Note_off_c, 0, 48, 0
1, 29722, Note_on_c, 0, 48, 67
1, 29725, Note_on_c, 0, 60, 104
1, 29726, Note_on_c, 0, 51, 63
1, 29728, Note_on_c, 0, 55, 94
1, 29744, Note_off_c, 0, 60, 69
1, 29751, Note_off_c, 0, 67, 70
1, 29753, Note_off_c, 0, 68, 48
1, 29757, Note_off_c, 0, 75, 63
1, 29763, Note_off_c, 0, 63, 62
1, 29766, Note_off_c, 0, 55, 59
1, 29770, Note_off_c, 0, 48, 65
1, 29777, Note_off_c, 0, 51, 63
1, 29987, Note_on_c, 0, 54, 65
1, 29988, Note_off_c, 0, 54, 127
1, 29988, Note_on_c, 0, 60, 87
1, 29993, Note_on_c, 0, 67, 87
1, 29993, Note_on_c, 0, 63, 86
1, 29993, Note_on_c, 0, 72, 85
1, 29999, Note_on_c, 0, 51, 64
1, 29999, Note_on_c, 0, 55, 63
1, 30005, Note_off_c, 0, 60, 77
1, 30008, Note_off_c, 0, 67, 77
1, 30011, Note_on_c, 0, 48, 48
1, 30011, Note_off_c, 0, 63, 71
1, 30017, Note_off_c, 0, 72, 62
1, 30020, Note_off_c, 0, 51, 62
1, 30032, Note_off_c, 0, 55, 0
1, 30044, Note_on_c, 0, 63, 93
1, 30044, Note_on_c, 0, 72, 75
1, 30047, Note_off_c, 0, 48, 0
1, 30047, Note_on_c, 0, 48, 60
1, 30047, Note_on_c, 0, 60, 98
1, 30048, Note_on_c, 0, 55, 70
1, 30049, Note_on_c, 0, 67, 96
1, 30054, Note_on_c, 0, 51, 80
1, 30083, Note_off_c, 0, 60, 65
1, 30090, Note_off_c, 0, 72, 63
1, 30093, Note_off_c, 0, 63, 61
1, 30095, Note_off_c, 0, 48, 66
1, 30106, Note_off_c, 0, 51, 62
1, 30106, Note_off_c, 0, 67, 62
1, 30114, Note_off_c, 0, 55, 65
1, 30171, Note_on_c, 0, 55, 84
1, 30171, Note_on_c, 0, 63, 100
1, 30172, Note_on_c, 0, 59, 97
1, 30173, Control_c, 0, 64, 65
1, 30174, Note_on_c, 0, 71, 91
1, 30177, Note_on_c, 0, 48, 89
1, 30178, Note_on_c, 0, 67, 82
1, 30179, Note_on_c, 0, 51, 77
1, 30188, Control_c, 0, 64, 30
1, 30196, Note_off_c, 0, 67, 70
1, 30202, Note_off_c, 0, 59, 65
1, 30203, Control_c, 0, 64, 0
1, 30210, Note_off_c, 0, 63, 62
1, 30212, Note_off_c, 0, 48, 60
1, 30231, Note_off_c, 0, 51, 60
1, 30231, Note_off_c, 0, 71, 0
1, 30231, Note_off_c, 0, 55, 65
1, 30262, Poly_aftertouch_c, 0, 71, 0
1, 30345, Note_on_c, 0, 55, 91
1, 30345, Note_on_c, 0, 60, 104
1, 30345, Note_on_c, 0, 72, 93
1, 30347, Note_on_c, 0, 63, 93
1, 30347, Note_on_c, 0, 67, 99
1, 30350, Note_on_c, 0, 48, 94
1, 30350, Note_on_c, 0, 51, 78
1, 30372, Note_off_c, 0, 63, 67
1, 30376, Note_off_c, 0, 60, 73
1, 30376, Note_off_c, 0, 67, 70
1, 30376, Note_off_c, 0, 72, 69
1, 30377, Note_on_c, 0, 64, 51
1, 30378, Note_off_c, 0, 64, 127
1, 30393, Note_off_c, 0, 55, 67
1, 30410, Note_off_c, 0, 48, 64
1, 30413, Note_off_c, 0, 51, 63
1, 30670, Control_c, 0, 64, 20
1, 30673, Note_on_c, 0, 35, 76
1, 30677, Note_on_c, 0, 37, 95
1, 30685, Control_c, 0, 64, 51
1, 30700, Control_c, 0, 64, 68
1, 30711, Note_off_c, 0, 35, 65
1, 30715, Control_c, 0, 64, 127
1, 30717, Note_off_c, 0, 37, 66
1, 30778, Note_on_c, 0, 49, 84
1, 30818, Note_off_c, 0, 49, 61
1, 30846, Note_on_c, 0, 44, 93
1, 30896, Note_off_c, 0, 44, 62
1, 30902, Note_on_c, 0, 56, 81
1, 30946, Note_off_c, 0, 56, 61
1, 30962, Note_on_c, 0, 42, 90
1, 31005, Note_on_c, 0, 54, 90
1, 31013, Note_off_c, 0, 42, 62
1, 31059, Note_off_c, 0, 54, 64
1, 31070, Note_on_c, 0, 41, 92
1, 31110, Note_on_c, 0, 53, 93
1, 31118, Note_off_c, 0, 41, 64
1, 31166, Note_on_c, 0, 39, 97
1, 31175, Note_off_c, 0, 53, 62
1, 31206, Note_off_c, 0, 39, 66
1, 31207, Note_on_c, 0, 51, 97
1, 31254, Note_on_c, 0, 37, 101
1, 31260, Note_off_c, 0, 51, 59
1, 31297, Note_on_c, 0, 49, 97
1, 31300, Note_off_c, 0, 37, 60
1, 31334, Note_off_c, 0, 49, 65
1, 31439, Note_on_c, 0, 47, 81
1, 31450, Control_c, 0, 64, 54
1, 31465, Control_c, 0, 64, 0
1, 31482, Note_on_c, 0, 53, 49
1, 31501, Note_on_c, 0, 56, 84
1, 31502, Note_off_c, 0, 47, 57
1, 31514, Note_on_c, 0, 73, 97
1, 31517, Note_on_c, 0, 61, 97
1, 31519, Note_on_c, 0, 77, 93
1, 31519, Note_on_c, 0, 85, 94
1, 31523, Control_c, 0, 64, 46
1, 31530, Note_on_c, 0, 50, 3
1, 31538, Control_c, 0, 64, 69
1, 31543, Note_off_c, 0, 56, 67
1, 31544, Note_off_c, 0, 77, 64
1, 31549, Note_on_c, 0, 54, 35
1, 31550, Note_off_c, 0, 54, 127
1, 31550, Note_off_c, 0, 85, 65
1, 31552, Control_c, 0, 64, 127
1, 31553, Note_off_c, 0, 53, 64
1, 31555, Note_on_c, 0, 49, 24
1, 31555, Note_off_c, 0, 73, 62
1, 31567, Note_off_c, 0, 61, 65
1, 31573, Note_off_c, 0, 50, 33
1, 31591, Note_off_c, 0, 49, 52
1, 31735, Note_on_c, 0, 53, 80
1, 31737, Note_on_c, 0, 56, 88
1, 31739, Note_on_c, 0, 68, 95
1, 31739, Note_on_c, 0, 80, 89
1, 31740, Note_on_c, 0, 73, 90
1, 31752, Note_on_c, 0, 47, 56
1, 31753, Note_off_c, 0, 56, 73
1, 31755, Note_off_c, 0, 73, 74
1, 31755, Note_off_c, 0, 80, 71
1, 31756, Note_off_c, 0, 53, 70
1, 31757, Note_off_c, 0, 68, 70
1, 31778, Note_off_c, 0, 47, 58
1, 31799, Note_on_c, 0, 68, 95
1, 31802, Note_on_c, 0, 80, 99
1, 31804, Note_on_c, 0, 73, 94
1, 31806, Note_on_c, 0, 56, 104
1, 31813, Note_on_c, 0, 53, 76
1, 31815, Note_on_c, 0, 47, 67
1, 31823, Note_off_c, 0, 73, 62
1, 31830, Note_off_c, 0, 56, 64
1, 31834, Note_off_c, 0, 53, 73
1, 31835, Note_on_c, 0, 48, 43
1, 31842, Note_off_c, 0, 68, 59
1, 31842, Note_off_c, 0, 80, 65
1, 31847, Note_off_c, 0, 47, 64
1, 31870, Note_off_c, 0, 48, 54
1, 32119, Note_on_c, 0, 61, 81
1, 32124, Note_on_c, 0, 68, 93
1, 32124, Note_on_c, 0, 65, 90
1, 32125, Note_on_c, 0, 56, 75
1, 32126, Note_on_c, 0, 53, 68
1, 32142, Note_off_c, 0, 61, 70
1, 32142, Note_off_c, 0, 68, 71
1, 32142, Note_off_c, 0, 65, 75
1, 32143, Note_on_c, 0, 77, 57
1, 32150, Note_off_c, 0, 56, 67
1, 32153, Note_on_c, 0, 76, 42
1, 32154, Note_off_c, 0, 76, 127
1, 32154, Note_off_c, 0, 53, 67
1, 32169, Note_off_c, 0, 77, 0
1, 32176, Note_on_c, 0, 61, 99
1, 32179, Note_on_c, 0, 68, 108
1, 32180, Note_on_c, 0, 77, 80
1, 32181, Note_on_c, 0, 65, 97
1, 32183, Note_on_c, 0, 53, 69
1, 32186, Note_on_c, 0, 56, 96
1, 32211, Note_off_c, 0, 56, 62
1, 32211, Note_off_c, 0, 77, 62
1, 32215, Note_off_c, 0, 68, 66
1, 32216, Note_off_c, 0, 65, 60
1, 32219, Note_off_c, 0, 61, 63
1, 32226, Note_off_c, 0, 53, 65
1, 32446, Note_on_c, 0, 53, 71
1, 32446, Note_on_c, 0, 56, 83
1, 32447, Note_on_c, 0, 61, 82
1, 32448, Note_on_c, 0, 68, 85
1, 32460, Note_on_c, 0, 47, 61
1, 32463, Note_on_c, 0, 73, 64
1, 32467, Note_off_c, 0, 56, 70
1, 32467, Note_off_c, 0, 61, 71
1, 32467, Note_off_c, 0, 68, 69
1, 32481, Note_off_c, 0, 47, 63
1, 32482, Note_off_c, 0, 53, 65
1, 32494, Note_off_c, 0, 73, 0
1, 32505, Note_on_c, 0, 73, 82
1, 32506, Note_on_c, 0, 56, 96
1, 32507, Note_on_c, 0, 61, 98
1, 32509, Note_on_c, 0, 68, 96
1, 32512, Note_on_c, 0, 47, 83
1, 32515, Note_on_c, 0, 53, 77
1, 32539, Control_c, 0, 64, 83
1, 32551, Note_off_c, 0, 61, 63
1, 32553, Control_c, 0, 64, 61
1, 32554, Note_off_c, 0, 56, 63
1, 32554, Note_off_c, 0, 68, 61
1, 32562, Note_off_c, 0, 47, 64
1, 32565, Note_off_c, 0, 73, 65
1, 32568, Note_off_c, 0, 53, 62
1, 32568, Control_c, 0, 64, 34
1, 32583, Control_c, 0, 64, 0
1, 32634, Note_on_c, 0, 52, 80
1, 32634, Note_on_c, 0, 60, 101
1, 32635, Note_on_c, 0, 56, 92
1, 32637, Note_on_c, 0, 47, 80
1, 32640, Note_on_c, 0, 68, 98
1, 32640, Note_on_c, 0, 72, 91
1, 32656, Note_off_c, 0, 60, 70
1, 32656, Note_off_c, 0, 68, 73
1, 32659, Note_off_c, 0, 56, 67
1, 32660, Note_off_c, 0, 72, 68
1, 32669, Note_off_c, 0, 47, 67
1, 32685, Note_off_c, 0, 52, 68
1, 32793, Note_on_c, 0, 56, 97
1, 32793, Note_on_c, 0, 61, 103
1, 32794, Note_on_c, 0, 47, 86
1, 32794, Note_on_c, 0, 73, 105
1, 32798, Note_on_c, 0, 53, 84
1, 32800, Note_on_c, 0, 68, 91
1, 32822, Note_off_c, 0, 68, 73
1, 32823, Note_off_c, 0, 61, 65
1, 32830, Note_on_c, 0, 74, 53
1, 32831, Note_off_c, 0, 74, 127
1, 32831, Note_off_c, 0, 56, 65
1, 32834, Note_off_c, 0, 53, 68
1, 32840, Note_off_c, 0, 73, 68
1, 32851, Note_off_c, 0, 47, 67
1, 32853, Note_on_c, 0, 49, 21
1, 32854, Note_off_c, 0, 49, 127
1, 33219, Note_on_c, 0, 74, 78
1, 33226, Note_on_c, 0, 68, 74
1, 33227, Note_on_c, 0, 62, 73
1, 33228, Control_c, 0, 64, 20
1, 33238, Note_on_c, 0, 46, 75
1, 33242, Control_c, 0, 64, 45
1, 33243, Note_off_c, 0, 74, 69
1, 33244, Note_off_c, 0, 62, 67
1, 33247, Note_on_c, 0, 34, 44
1, 33248, Note_off_c, 0, 68, 65
1, 33257, Control_c, 0, 64, 60
1, 33260, Note_on_c, 0, 41, 27
1, 33265, Note_off_c, 0, 46, 66
1, 33272, Control_c, 0, 64, 77
1, 33283, Note_off_c, 0, 34, 45
1, 33287, Control_c, 0, 64, 106
1, 33302, Control_c, 0, 64, 127
1, 33305, Note_off_c, 0, 41, 45
1, 33391, Note_on_c, 0, 58, 69
1, 33393, Note_on_c, 0, 46, 58
1, 33421, Note_on_c, 0, 48, 69
1, 33425, Note_on_c, 0, 60, 65
1, 33427, Note_off_c, 0, 58, 63
1, 33443, Note_on_c, 0, 62, 59
1, 33450, Control_c, 0, 64, 98
1, 33454, Note_on_c, 0, 63, 80
1, 33459, Note_off_c, 0, 46, 49
1, 33464, Note_off_c, 0, 60, 62
1, 33465, Control_c, 0, 64, 66
1, 33473, Note_on_c, 0, 65, 74
1, 33476, Note_on_c, 0, 53, 70
1, 33480, Note_on_c, 0, 51, 58
1, 33480, Control_c, 0, 64, 51
1, 33481, Note_off_c, 0, 62, 65
1, 33491, Note_off_c, 0, 48, 66
1, 33491, Note_off_c, 0, 63, 63
1, 33495, Control_c, 0, 64, 18
1, 33497, Note_off_c, 0, 65, 71
1, 33497, Note_off_c, 0, 53, 68
1, 33500, Note_on_c, 0, 50, 11
1, 33504, Note_off_c, 0, 51, 54
1, 33509, Control_c, 0, 64, 0
1, 33555, Note_off_c, 0, 50, 26
1, 33629, Note_on_c, 0, 63, 69
1, 33629, Note_on_c, 0, 66, 71
1, 33634, Note_on_c, 0, 75, 55
1, 33635, Note_off_c, 0, 75, 127
1, 33637, Note_on_c, 0, 46, 69
1, 33645, Note_off_c, 0, 63, 65
1, 33645, Note_off_c, 0, 66, 66
1, 33650, Note_on_c, 0, 34, 40
1, 33651, Note_off_c, 0, 34, 127
1, 33659, Note_off_c, 0, 46, 61
1, 33755, Note_on_c, 0, 66, 75
1, 33757, Note_on_c, 0, 78, 91
1, 33761, Note_on_c, 0, 46, 63
1, 33763, Note_on_c, 0, 70, 71
1, 33766, Note_on_c, 0, 39, 67
1, 33770, Note_on_c, 0, 34, 57
1, 33773, Note_off_c, 0, 66, 67
1, 33774, Note_off_c, 0, 78, 72
1, 33788, Note_off_c, 0, 70, 65
1, 33794, Note_off_c, 0, 46, 65
1, 33797, Note_off_c, 0, 34, 54
1, 33798, Note_off_c, 0, 39, 65
1, 33898, Note_on_c, 0, 70, 81
1, 33899, Note_on_c, 0, 82, 86
1, 33906, Note_on_c, 0, 34, 54
1, 33908, Note_on_c, 0, 46, 77
1, 33908, Note_on_c, 0, 74, 61
1, 33915, Note_off_c, 0, 82, 74
1, 33919, Control_c, 0, 64, 31
1, 33927, Note_off_c, 0, 74, 67
1, 33933, Note_off_c, 0, 46, 66
1, 33934, Control_c, 0, 64, 52
1, 33934, Note_off_c, 0, 34, 58
1, 33934, Note_off_c, 0, 70, 62
1, 33948, Control_c, 0, 64, 70
1, 33963, Control_c, 0, 64, 127
1, 34005, Poly_aftertouch_c, 0, 41, 0
1, 34071, Note_on_c, 0, 65, 75
1, 34076, Note_on_c, 0, 53, 65
1, 34115, Note_on_c, 0, 51, 66
1, 34115, Note_on_c, 0, 63, 91
1, 34124, Note_off_c, 0, 65, 64
1, 34133, Note_off_c, 0, 53, 65
1, 34143, Note_on_c, 0, 50, 78
1, 34145, Note_on_c, 0, 62, 70
1, 34152, Note_off_c, 0, 51, 62
1, 34172, Note_on_c, 0, 60, 75
1, 34194, Note_on_c, 0, 46, 84
1, 34196, Note_off_c, 0, 62, 56
1, 34197, Note_on_c, 0, 58, 78
1, 34199, Note_on_c, 0, 48, 53
1, 34204, Note_off_c, 0, 60, 63
1, 34206, Note_off_c, 0, 50, 64
1, 34214, Control_c, 0, 64, 103
1, 34215, Note_off_c, 0, 63, 64
1, 34219, Note_off_c, 0, 46, 64
1, 34222, Note_off_c, 0, 58, 69
1, 34226, Note_off_c, 0, 48, 58
1, 34229, Control_c, 0, 64, 67
1, 34244, Control_c, 0, 64, 48
1, 34259, Control_c, 0, 64, 0
1, 34345, Note_on_c, 0, 75, 93
1, 34345, Note_on_c, 0, 83, 96
1, 34354, Note_on_c, 0, 42, 75
1, 34354, Note_on_c, 0, 71, 66
1, 34358, Note_on_c, 0, 33, 66
1, 34361, Note_on_c, 0, 45, 66
1, 34362, Note_off_c, 0, 75, 73
1, 34363, Note_off_c, 0, 83, 70
1, 34372, Note_off_c, 0, 71, 70
1, 34384, Note_off_c, 0, 33, 61
1, 34384, Note_off_c, 0, 42, 65
1, 34385, Note_off_c, 0, 45, 63
1, 34468, Note_on_c, 0, 45, 80
1, 34472, Note_on_c, 0, 82, 94
1, 34476, Note_on_c, 0, 75, 87
1, 34486, Note_on_c, 0, 42, 59
1, 34487, Note_on_c, 0, 87, 53
1, 34488, Note_off_c, 0, 87, 127
1, 34488, Note_on_c, 0, 33, 55
1, 34491, Note_off_c, 0, 75, 66
1, 34492, Note_on_c, 0, 35, 48
1, 34494, Note_on_c, 0, 85, 56
1, 34495, Note_off_c, 0, 85, 127
1, 34497, Note_on_c, 0, 86, 60
1, 34515, Note_off_c, 0, 45, 63
1, 34517, Note_off_c, 0, 86, 62
1, 34519, Note_off_c, 0, 33, 65
1, 34522, Note_off_c, 0, 35, 62
1, 34530, Note_off_c, 0, 42, 44
1, 34551, Note_off_c, 0, 82, 55
1, 34619, Note_on_c, 0, 88, 94
1, 34622, Note_on_c, 0, 76, 107
1, 34623, Note_on_c, 0, 82, 66
1, 34623, Control_c, 0, 64, 23
1, 34627, Note_on_c, 0, 44, 90
1, 34629, Note_on_c, 0, 40, 71
1, 34633, Note_on_c, 0, 32, 59
1, 34637, Control_c, 0, 64, 48
1, 34643, Note_off_c, 0, 82, 39
1, 34644, Note_off_c, 0, 88, 67
1, 34652, Note_off_c, 0, 76, 69
1, 34652, Control_c, 0, 64, 69
1, 34654, Note_on_c, 0, 83, 35
1, 34655, Note_off_c, 0, 83, 127
1, 34655, Note_off_c, 0, 44, 63
1, 34661, Note_off_c, 0, 32, 60
1, 34661, Note_off_c, 0, 40, 65
1, 34667, Control_c, 0, 64, 127
1, 34676, Note_on_c, 0, 77, 4
1, 34677, Note_off_c, 0, 77, 127
1, 34734, Poly_aftertouch_c, 0, 77, 0
1, 34784, Note_on_c, 0, 64, 81
1, 34803, Note_on_c, 0, 52, 62
1, 34826, Note_on_c, 0, 54, 79
1, 34837, Note_on_c, 0, 66, 82
1, 34852, Note_on_c, 0, 68, 80
1, 34854, Note_on_c, 0, 56, 78
1, 34855, Note_off_c, 0, 52, 59
1, 34869, Note_off_c, 0, 64, 62
1, 34879, Note_on_c, 0, 57, 65
1, 34881, Note_on_c, 0, 69, 77
1, 34888, Note_on_c, 0, 59, 86
1, 34894, Note_on_c, 0, 71, 87
1, 34904, Note_off_c, 0, 66, 64
1, 34908, Note_off_c, 0, 68, 63
1, 34915, Note_off_c, 0, 69, 70
1, 34916, Note_off_c, 0, 57, 63
1, 34917, Note_off_c, 0, 54, 63
1, 34920, Note_off_c, 0, 56, 64
1, 34921, Note_off_c, 0, 59, 63
1, 34926, Note_off_c, 0, 71, 63
1, 34963, Control_c, 0, 64, 72
1, 34978, Control_c, 0, 64, 54
1, 34993, Control_c, 0, 64, 20
1, 35008, Control_c, 0, 64, 0
1, 35035, Note_on_c, 0, 87, 101
1, 35037, Note_on_c, 0, 75, 102
1, 35037, Note_on_c, 0, 78, 98
1, 35051, Note_on_c, 0, 45, 83
1, 35052, Note_off_c, 0, 75, 74
1, 35053, Note_off_c, 0, 78, 76
1, 35067, Note_on_c, 0, 33, 56
1, 35067, Note_on_c, 0, 42, 57
1, 35071, Note_off_c, 0, 87, 69
1, 35084, Note_off_c, 0, 45, 69
1, 35092, Note_off_c, 0, 42, 58
1, 35094, Note_off_c, 0, 33, 58
1, 35171, Note_on_c, 0, 84, 103
1, 35175, Note_on_c, 0, 96, 97
1, 35177, Note_on_c, 0, 95, 99
1, 35181, Note_on_c, 0, 86, 85
1, 35183, Note_on_c, 0, 31, 73
1, 35183, Note_on_c, 0, 43, 65
1, 35185, Note_on_c, 0, 45, 68
1, 35186, Note_on_c, 0, 87, 65
1, 35200, Note_off_c, 0, 86, 72
1, 35204, Note_off_c, 0, 87, 66
1, 35204, Note_off_c, 0, 96, 56
1, 35207, Note_off_c, 0, 84, 61
1, 35211, Note_off_c, 0, 45, 66
1, 35215, Note_off_c, 0, 43, 63
1, 35215, Note_off_c, 0, 31, 66
1, 35222, Note_on_c, 0, 33, 8
1, 35229, Note_off_c, 0, 95, 62
1, 35241, Note_on_c, 0, 41, 3
1, 35242, Note_off_c, 0, 41, 127
1, 35269, Note_off_c, 0, 33, 27
1, 35314, Note_on_c, 0, 44, 102
1, 35315, Note_on_c, 0, 40, 42
1, 35318, Note_on_c, 0, 95, 96
1, 35320, Note_on_c, 0, 32, 72
1, 35320, Note_on_c, 0, 83, 107
1, 35326, Control_c, 0, 64, 39
1, 35331, Note_on_c, 0, 88, 57
1, 35335, Note_off_c, 0, 95, 76
1, 35341, Note_on_c, 0, 92, 56
1, 35341, Note_on_c, 0, 93, 63
1, 35342, Control_c, 0, 64, 66
1, 35344, Note_off_c, 0, 40, 64
1, 35349, Note_off_c, 0, 32, 62
1, 35349, Note_off_c, 0, 83, 70
1, 35351, Note_off_c, 0, 44, 67
1, 35353, Note_off_c, 0, 88, 63
1, 35357, Control_c, 0, 64, 127
1, 35361, Note_off_c, 0, 93, 63
1, 35365, Note_off_c, 0, 92, 37
1, 35425, Poly_aftertouch_c, 0, 34, 0
1, 35495, Note_on_c, 0, 71, 75
1, 35496, Note_on_c, 0, 59, 80
1, 35525, Note_on_c, 0, 69, 83
1, 35538, Note_on_c, 0, 57, 75
1, 35549, Note_on_c, 0, 68, 82
1, 35558, Note_on_c, 0, 56, 87
1, 35558, Note_off_c, 0, 71, 65
1, 35562, Note_off_c, 0, 59, 59
1, 35586, Note_on_c, 0, 54, 75
1, 35588, Note_on_c, 0, 66, 82
1, 35601, Note_on_c, 0, 64, 81
1, 35601, Note_off_c, 0, 68, 62
1, 35604, Note_on_c, 0, 52, 83
1, 35609, Note_off_c, 0, 57, 63
1, 35615, Note_off_c, 0, 69, 67
1, 35622, Note_off_c, 0, 56, 67
1, 35624, Note_off_c, 0, 64, 69
1, 35627, Note_off_c, 0, 66, 64
1, 35633, Note_off_c, 0, 54, 63
1, 35638, Note_off_c, 0, 52, 70
1, 35712, Control_c, 0, 64, 100
1, 35727, Control_c, 0, 64, 58
1, 35742, Control_c, 0, 64, 16
1, 35747, Note_on_c, 0, 82, 106
1, 35747, Note_on_c, 0, 94, 105
1, 35749, Note_on_c, 0, 85, 98
1, 35752, Note_on_c, 0, 43, 89
1, 35755, Note_on_c, 0, 40, 81
1, 35757, Control_c, 0, 64, 0
1, 35760, Note_on_c, 0, 31, 75
1, 35764, Note_off_c, 0, 85, 76
1, 35773, Note_off_c, 0, 82, 70
1, 35776, Note_off_c, 0, 43, 68
1, 35779, Note_off_c, 0, 40, 69
1, 35781, Note_off_c, 0, 94, 63
1, 35793, Note_on_c, 0, 92, 27
1, 35794, Note_off_c, 0, 92, 127
1, 35794, Note_off_c, 0, 31, 65
1, 35887, Note_on_c, 0, 85, 110
1, 35891, Note_on_c, 0, 97, 106
1, 35892, Note_on_c, 0, 43, 81
1, 35892, Note_on_c, 0, 94, 104
1, 35895, Note_on_c, 0, 40, 43
1, 35905, Note_on_c, 0, 31, 62
1, 35909, Note_on_c, 0, 41, 59
1, 35910, Note_on_c, 0, 29, 61
1, 35910, Note_on_c, 0, 90, 61
1, 35916, Note_off_c, 0, 85, 68
1, 35927, Note_off_c, 0, 97, 64
1, 35930, Note_off_c, 0, 40, 55
1, 35930, Note_off_c, 0, 94, 66
1, 35931, Note_off_c, 0, 43, 61
1, 35935, Note_off_c, 0, 90, 39
1, 35939, Note_off_c, 0, 41, 35
1, 35940, Note_off_c, 0, 31, 64
1, 35942, Note_off_c, 0, 29, 54
1, 36038, Note_on_c, 0, 98, 100
1, 36039, Note_on_c, 0, 30, 84
1, 36040, Note_on_c, 0, 42, 105
1, 36041, Note_on_c, 0, 86, 99
1, 36041, Note_on_c, 0, 38, 82
1, 36043, Note_on_c, 0, 93, 97
1, 36044, Control_c, 0, 64, 57
1, 36052, Note_off_c, 0, 98, 77
1, 36057, Note_on_c, 0, 92, 64
1, 36058, Note_off_c, 0, 92, 127
1, 36059, Note_off_c, 0, 93, 72
1, 36059, Control_c, 0, 64, 127
1, 36067, Note_on_c, 0, 96, 40
1, 36071, Note_off_c, 0, 38, 65
1, 36074, Note_off_c, 0, 86, 67
1, 36075, Note_off_c, 0, 30, 65
1, 36091, Note_off_c, 0, 42, 63
1, 36100, Note_off_c, 0, 96, 39
1, 36107, Note_on_c, 0, 43, 4
1, 36173, Note_off_c, 0, 43, 43
1, 36254, Note_on_c, 0, 50, 60
1, 36281, Note_on_c, 0, 62, 73
1, 36289, Note_on_c, 0, 52, 62
1, 36304, Note_on_c, 0, 53, 66
1, 36305, Note_on_c, 0, 64, 83
1, 36315, Note_on_c, 0, 54, 80
1, 36327, Note_on_c, 0, 66, 81
1, 36332, Note_on_c, 0, 55, 79
1, 36334, Note_on_c, 0, 67, 91
1, 36336, Note_on_c, 0, 57, 101
1, 36336, Note_off_c, 0, 50, 62
1, 36345, Note_on_c, 0, 69, 96
1, 36354, Note_off_c, 0, 62, 64
1, 36355, Note_off_c, 0, 53, 0
1, 36355, Note_on_c, 0, 53, 20
1, 36359, Note_off_c, 0, 64, 66
1, 36369, Note_off_c, 0, 66, 66
1, 36369, Note_off_c, 0, 67, 71
1, 36372, Note_off_c, 0, 57, 66
1, 36375, Note_off_c, 0, 69, 73
1, 36380, Note_off_c, 0, 53, 59
1, 36381, Note_off_c, 0, 52, 65
1, 36385, Note_off_c, 0, 55, 66
1, 36394, Note_off_c, 0, 54, 63
1, 36534, Control_c, 0, 64, 61
1, 36549, Control_c, 0, 64, 0
1, 36552, Note_on_c, 0, 37, 41
1, 36613, Note_off_c, 0, 37, 52
1, 36644, Note_on_c, 0, 96, 112
1, 36646, Control_c, 0, 64, 30
1, 36646, Note_on_c, 0, 41, 101
1, 36647, Note_on_c, 0, 94, 97
1, 36649, Note_on_c, 0, 86, 107
1, 36650, Note_on_c, 0, 92, 103
1, 36651, Note_on_c, 0, 29, 87
1, 36652, Note_on_c, 0, 38, 86
1, 36661, Control_c, 0, 64, 68
1, 36662, Note_off_c, 0, 92, 79
1, 36664, Note_off_c, 0, 94, 70
1, 36670, Note_on_c, 0, 37, 25
1, 36671, Note_on_c, 0, 97, 53
1, 36672, Note_off_c, 0, 97, 127
1, 36672, Note_off_c, 0, 38, 67
1, 36672, Note_off_c, 0, 29, 65
1, 36672, Note_off_c, 0, 96, 67
1, 36675, Control_c, 0, 64, 127
1, 36682, Note_off_c, 0, 86, 69
1, 36687, Note_on_c, 0, 32, 32
1, 36688, Note_off_c, 0, 32, 127
1, 36689, Note_off_c, 0, 41, 65
1, 36710, Note_off_c, 0, 37, 53
1, 36727, Poly_aftertouch_c, 0, 32, 0
1, 36896, Note_on_c, 0, 62, 70
1, 36916, Note_on_c, 0, 65, 68
1, 36929, Note_on_c, 0, 68, 74
1, 36933, Note_on_c, 0, 57, 84
1, 36938, Note_on_c, 0, 56, 55
1, 36943, Note_on_c, 0, 70, 84
1, 36945, Note_on_c, 0, 53, 59
1, 36947, Note_on_c, 0, 52, 61
1, 36953, Note_on_c, 0, 50, 36
1, 36959, Note_on_c, 0, 71, 68
1, 36961, Note_off_c, 0, 62, 64
1, 36963, Note_off_c, 0, 56, 57
1, 36968, Note_off_c, 0, 65, 67
1, 36969, Note_off_c, 0, 52, 66
1, 36971, Note_on_c, 0, 55, 36
1, 36973, Note_off_c, 0, 53, 67
1, 36974, Note_off_c, 0, 57, 66
1, 36975, Poly_aftertouch_c, 0, 48, 127
1, 36976, Note_off_c, 0, 68, 63
1, 36983, Note_off_c, 0, 50, 55
1, 36984, Note_off_c, 0, 71, 70
1, 36989, Note_off_c, 0, 70, 66
1, 37004, Note_off_c, 0, 55, 53
1, 37019, Poly_aftertouch_c, 0, 48, 0
1, 37159, Note_on_c, 0, 74, 75
1, 37163, Note_on_c, 0, 62, 59
1, 37173, Note_on_c, 0, 65, 71
1, 37182, Note_on_c, 0, 77, 80
1, 37195, Note_on_c, 0, 68, 63
1, 37205, Note_on_c, 0, 70, 79
1, 37207, Note_on_c, 0, 80, 80
1, 37214, Note_on_c, 0, 82, 88
1, 37222, Note_on_c, 0, 71, 91
1, 37226, Note_on_c, 0, 83, 87
1, 37232, Note_off_c, 0, 77, 66
1, 37235, Note_off_c, 0, 74, 66
1, 37247, Note_on_c, 0, 81, 52
1, 37253, Note_off_c, 0, 65, 63
1, 37253, Note_off_c, 0, 80, 62
1, 37256, Note_off_c, 0, 70, 65
1, 37257, Note_off_c, 0, 62, 56
1, 37260, Note_off_c, 0, 71, 69
1, 37261, Note_off_c, 0, 68, 62
1, 37261, Note_off_c, 0, 83, 68
1, 37264, Note_off_c, 0, 82, 66
1, 37270, Note_off_c, 0, 81, 61
1, 37496, Note_on_c, 0, 74, 48
1, 37506, Note_on_c, 0, 86, 74
1, 37521, Note_on_c, 0, 77, 69
1, 37526, Note_on_c, 0, 89, 86
1, 37543, Note_on_c, 0, 80, 76
1, 37548, Note_on_c, 0, 82, 83
1, 37549, Note_on_c, 0, 92, 80
1, 37557, Note_on_c, 0, 94, 94
1, 37558, Note_on_c, 0, 83, 98
1, 37567, Note_on_c, 0, 95, 96
1, 37580, Note_off_c, 0, 89, 67
1, 37582, Note_off_c, 0, 86, 64
1, 37591, Note_off_c, 0, 74, 51
1, 37591, Note_off_c, 0, 83, 67
1, 37594, Note_off_c, 0, 92, 66
1, 37603, Note_off_c, 0, 95, 69
1, 37605, Note_off_c, 0, 94, 68
1, 37612, Note_off_c, 0, 82, 65
1, 37616, Note_off_c, 0, 77, 65
1, 37616, Note_off_c, 0, 80, 65
1, 37826, Control_c, 0, 64, 74
1, 37840, Control_c, 0, 64, 44
1, 37855, Control_c, 0, 64, 0
1, 37915, Note_on_c, 0, 95, 87
1, 37918, Note_on_c, 0, 42, 81
1, 37919, Note_on_c, 0, 87, 77
1, 37925, Note_on_c, 0, 99, 62
1, 37927, Note_on_c, 0, 39, 65
1, 37929, Control_c, 0, 64, 40
1, 37934, Note_off_c, 0, 95, 72
1, 37936, Note_on_c, 0, 30, 46
1, 37943, Note_off_c, 0, 99, 64
1, 37944, Control_c, 0, 64, 60
1, 37946, Note_off_c, 0, 42, 66
1, 37949, Note_off_c, 0, 87, 0
1, 37951, Note_off_c, 0, 39, 61
1, 37959, Control_c, 0, 64, 127
1, 37964, Note_on_c, 0, 99, 88
1, 37971, Note_on_c, 0, 95, 90
1, 37978, Note_off_c, 0, 30, 0
1, 37978, Note_on_c, 0, 30, 33
1, 37986, Note_on_c, 0, 39, 61
1, 37986, Poly_aftertouch_c, 0, 87, 127
1, 37988, Note_on_c, 0, 32, 13
1, 37988, Note_on_c, 0, 42, 77
1, 37990, Note_off_c, 0, 95, 72
1, 38000, Poly_aftertouch_c, 0, 87, 0
1, 38006, Note_off_c, 0, 99, 66
1, 38019, Note_off_c, 0, 39, 65
1, 38025, Note_off_c, 0, 42, 57
1, 38031, Note_off_c, 0, 30, 62
1, 38035, Note_off_c, 0, 32, 33
1, 38098, Poly_aftertouch_c, 0, 34, 0
1, 38131, Note_on_c, 0, 88, 90
1, 38135, Note_on_c, 0, 47, 80
1, 38135, Note_on_c, 0, 96, 75
1, 38137, Note_on_c, 0, 83, 72
1, 38138, Note_on_c, 0, 35, 73
1, 38141, Note_on_c, 0, 84, 70
1, 38141, Note_on_c, 0, 95, 74
1, 38142, Note_on_c, 0, 42, 58
1, 38148, Note_off_c, 0, 88, 75
1, 38150, Note_off_c, 0, 96, 67
1, 38157, Note_off_c, 0, 84, 68
1, 38158, Note_off_c, 0, 95, 67
1, 38158, Note_off_c, 0, 35, 63
1, 38161, Note_off_c, 0, 83, 70
1, 38163, Note_off_c, 0, 47, 69
1, 38168, Note_off_c, 0, 42, 57
1, 38336, Note_on_c, 0, 51, 87
1, 38339, Note_on_c, 0, 90, 91
1, 38339, Note_on_c, 0, 47, 82
1, 38339, Note_on_c, 0, 83, 82
1, 38342, Note_on_c, 0, 78, 79
1, 38356, Note_off_c, 0, 90, 74
1, 38357, Note_off_c, 0, 83, 73
1, 38360, Note_off_c, 0, 51, 69
1, 38360, Note_on_c, 0, 39, 44
1, 38360, Note_off_c, 0, 47, 70
1, 38361, Note_off_c, 0, 78, 73
1, 38392, Note_on_c, 0, 78, 92
1, 38393, Note_on_c, 0, 90, 108
1, 38394, Note_off_c, 0, 39, 0
1, 38394, Note_on_c, 0, 39, 36
1, 38394, Note_on_c, 0, 51, 89
1, 38395, Note_on_c, 0, 47, 102
1, 38395, Note_on_c, 0, 83, 99
1, 38423, Note_off_c, 0, 51, 63
1, 38427, Note_off_c, 0, 83, 64
1, 38429, Note_off_c, 0, 78, 64
1, 38430, Note_off_c, 0, 47, 67
1, 38431, Note_off_c, 0, 90, 70
1, 38441, Note_off_c, 0, 39, 63
1, 38688, Note_on_c, 0, 46, 83
1, 38696, Note_on_c, 0, 83, 86
1, 38697, Note_on_c, 0, 75, 83
1, 38700, Note_on_c, 0, 87, 80
1, 38701, Note_on_c, 0, 54, 73
1, 38717, Note_off_c, 0, 75, 71
1, 38722, Note_off_c, 0, 54, 63
1, 38722, Note_off_c, 0, 87, 71
1, 38732, Note_off_c, 0, 83, 0
1, 38746, Note_on_c, 0, 75, 96
1, 38749, Note_on_c, 0, 87, 90
1, 38755, Note_on_c, 0, 42, 74
1, 38757, Note_on_c, 0, 54, 92
1, 38769, Poly_aftertouch_c, 0, 83, 127
1, 38795, Note_off_c, 0, 75, 62
1, 38800, Note_on_c, 0, 47, 51
1, 38809, Note_off_c, 0, 46, 62
1, 38815, Note_off_c, 0, 87, 67
1, 38822, Note_off_c, 0, 54, 64
1, 38824, Note_off_c, 0, 42, 61
1, 38825, Poly_aftertouch_c, 0, 83, 0
1, 38831, Note_off_c, 0, 47, 59
1, 38893, Control_c, 0, 64, 66
1, 38896, Note_on_c, 0, 53, 97
1, 38897, Note_on_c, 0, 86, 95
1, 38898, Note_on_c, 0, 74, 99
1, 38903, Note_on_c, 0, 47, 89
1, 38908, Control_c, 0, 64, 40
1, 38910, Note_on_c, 0, 83, 72
1, 38914, Note_on_c, 0, 40, 73
1, 38914, Note_on_c, 0, 41, 64
1, 38923, Control_c, 0, 64, 0
1, 38926, Note_off_c, 0, 74, 66
1, 38931, Note_off_c, 0, 53, 66
1, 38931, Note_off_c, 0, 86, 67
1, 38943, Note_off_c, 0, 41, 66
1, 38943, Note_off_c, 0, 83, 61
1, 38947, Note_on_c, 0, 84, 9
1, 38948, Note_off_c, 0, 84, 127
1, 38948, Note_off_c, 0, 40, 65
1, 38956, Note_off_c, 0, 47, 64
1, 39050, Note_on_c, 0, 54, 95
1, 39051, Note_on_c, 0, 87, 95
1, 39054, Note_on_c, 0, 47, 76
1, 39055, Note_on_c, 0, 42, 86
1, 39055, Note_on_c, 0, 76, 86
1, 39067, Note_off_c, 0, 76, 77
1, 39073, Note_on_c, 0, 84, 53
1, 39074, Note_off_c, 0, 84, 127
1, 39077, Note_off_c, 0, 54, 66
1, 39082, Note_off_c, 0, 42, 66
1, 39082, Note_off_c, 0, 47, 68
1, 39085, Note_off_c, 0, 87, 67
1, 39117, Note_on_c, 0, 44, 3
1, 39118, Note_off_c, 0, 44, 127
1, 39335, Note_on_c, 0, 56, 89
1, 39335, Note_on_c, 0, 78, 98
1, 39338, Note_on_c, 0, 90, 87
1, 39338, Control_c, 0, 64, 39
1, 39340, Note_on_c, 0, 83, 90
1, 39344, Note_on_c, 0, 51, 72
1, 39347, Note_on_c, 0, 44, 67
1, 39353, Control_c, 0, 64, 62
1, 39359, Note_off_c, 0, 83, 72
1, 39361, Note_off_c, 0, 56, 64
1, 39368, Control_c, 0, 64, 127
1, 39369, Note_off_c, 0, 51, 67
1, 39375, Note_off_c, 0, 78, 64
1, 39377, Note_off_c, 0, 90, 68
1, 39380, Note_off_c, 0, 44, 64
1, 39571, Note_on_c, 0, 86, 90
1, 39573, Note_on_c, 0, 50, 71
1, 39574, Note_on_c, 0, 74, 88
1, 39590, Note_off_c, 0, 86, 71
1, 39591, Note_off_c, 0, 74, 76
1, 39592, Note_on_c, 0, 62, 34
1, 39594, Note_off_c, 0, 50, 66
1, 39612, Control_c, 0, 64, 67
1, 39624, Note_on_c, 0, 63, 96
1, 39627, Control_c, 0, 64, 47
1, 39627, Note_off_c, 0, 62, 51
1, 39628, Note_on_c, 0, 51, 83
1, 39635, Note_on_c, 0, 87, 87
1, 39636, Note_on_c, 0, 75, 90
1, 39642, Control_c, 0, 64, 0
1, 39654, Note_off_c, 0, 87, 72
1, 39656, Note_off_c, 0, 75, 71
1, 39660, Note_on_c, 0, 54, 24
1, 39663, Note_off_c, 0, 63, 62
1, 39678, Note_off_c, 0, 51, 65
1, 39699, Note_off_c, 0, 54, 29
1, 39807, Note_on_c, 0, 78, 102
1, 39808, Note_on_c, 0, 84, 70
1, 39809, Note_on_c, 0, 90, 101
1, 39815, Note_on_c, 0, 57, 95
1, 39818, Control_c, 0, 64, 30
1, 39818, Note_on_c, 0, 54, 86
1, 39821, Note_on_c, 0, 51, 79
1, 39825, Note_on_c, 0, 45, 78
1, 39833, Control_c, 0, 64, 55
1, 39843, Note_off_c, 0, 54, 68
1, 39844, Note_off_c, 0, 51, 68
1, 39845, Note_off_c, 0, 84, 63
1, 39848, Control_c, 0, 64, 82
1, 39848, Note_off_c, 0, 45, 67
1, 39851, Note_off_c, 0, 78, 62
1, 39854, Note_on_c, 0, 85, 18
1, 39855, Note_off_c, 0, 85, 127
1, 39855, Note_off_c, 0, 90, 67
1, 39864, Note_off_c, 0, 57, 58
1, 39864, Control_c, 0, 64, 127
1, 40034, Note_on_c, 0, 62, 82
1, 40035, Note_on_c, 0, 86, 89
1, 40037, Note_on_c, 0, 50, 74
1, 40041, Note_on_c, 0, 74, 79
1, 40054, Note_off_c, 0, 86, 69
1, 40054, Note_off_c, 0, 62, 70
1, 40056, Control_c, 0, 64, 77
1, 40060, Note_off_c, 0, 50, 67
1, 40060, Note_off_c, 0, 74, 74
1, 40071, Control_c, 0, 64, 55
1, 40085, Control_c, 0, 64, 0
1, 40090, Note_on_c, 0, 75, 92
1, 40098, Note_on_c, 0, 63, 103
1, 40098, Note_on_c, 0, 87, 92
1, 40100, Note_on_c, 0, 51, 92
1, 40117, Note_off_c, 0, 75, 71
1, 40127, Note_off_c, 0, 63, 64
1, 40136, Note_off_c, 0, 87, 65
1, 40153, Note_off_c, 0, 51, 61
1, 40256, Note_on_c, 0, 86, 38
1, 40287, Note_off_c, 0, 86, 48
1, 40316, Note_on_c, 0, 82, 94
1, 40319, Note_on_c, 0, 94, 99
1, 40320, Note_on_c, 0, 86, 89
1, 40323, Note_on_c, 0, 58, 95
1, 40328, Note_on_c, 0, 46, 86
1, 40331, Control_c, 0, 64, 49
1, 40335, Note_on_c, 0, 52, 68
1, 40338, Note_on_c, 0, 53, 71
1, 40346, Note_on_c, 0, 92, 60
1, 40346, Note_off_c, 0, 58, 66
1, 40346, Control_c, 0, 64, 81
1, 40350, Note_off_c, 0, 94, 64
1, 40351, Note_off_c, 0, 86, 62
1, 40356, Note_off_c, 0, 82, 64
1, 40361, Control_c, 0, 64, 127
1, 40362, Note_off_c, 0, 52, 68
1, 40365, Note_off_c, 0, 53, 69
1, 40368, Note_off_c, 0, 92, 61
1, 40372, Note_on_c, 0, 45, 35
1, 40383, Note_off_c, 0, 46, 61
1, 40408, Note_off_c, 0, 45, 52
1, 40433, Poly_aftertouch_c, 0, 49, 0
1, 40518, Note_on_c, 0, 41, 91
1, 40567, Note_off_c, 0, 41, 64
1, 40582, Note_on_c, 0, 53, 83
1, 40636, Note_off_c, 0, 53, 65
1, 40648, Note_on_c, 0, 39, 94
1, 40691, Note_on_c, 0, 51, 95
1, 40699, Note_off_c, 0, 39, 64
1, 40739, Note_off_c, 0, 51, 62
1, 40755, Note_on_c, 0, 38, 97
1, 40801, Note_on_c, 0, 50, 97
1, 40809, Note_off_c, 0, 38, 64
1, 40842, Note_off_c, 0, 50, 64
1, 40859, Note_on_c, 0, 35, 86
1, 40908, Note_on_c, 0, 47, 102
1, 40916, Note_off_c, 0, 35, 63
1, 40951, Note_off_c, 0, 47, 67
1, 40970, Note_on_c, 0, 34, 102
1, 40998, Note_on_c, 0, 46, 102
1, 41014, Note_off_c, 0, 34, 62
1, 41034, Note_off_c, 0, 46, 66
1, 41199, Control_c, 0, 64, 78
1, 41214, Control_c, 0, 64, 42
1, 41229, Control_c, 0, 64, 0
1, 41253, Note_on_c, 0, 57, 101
1, 41258, Note_on_c, 0, 90, 104
1, 41259, Note_on_c, 0, 54, 89
1, 41259, Note_on_c, 0, 78, 99
1, 41261, Note_on_c, 0, 51, 80
1, 41262, Note_on_c, 0, 81, 91
1, 41262, Note_on_c, 0, 46, 81
1, 41265, Note_on_c, 0, 48, 78
1, 41273, Control_c, 0, 64, 22
1, 41277, Note_on_c, 0, 89, 75
1, 41281, Note_on_c, 0, 87, 57
1, 41283, Note_on_c, 0, 82, 59
1, 41284, Note_off_c, 0, 82, 127
1, 41286, Note_off_c, 0, 90, 73
1, 41287, Note_off_c, 0, 57, 68
1, 41288, Control_c, 0, 64, 47
1, 41290, Note_off_c, 0, 81, 63
1, 41294, Note_off_c, 0, 89, 69
1, 41301, Note_off_c, 0, 87, 62
1, 41303, Control_c, 0, 64, 66
1, 41311, Note_off_c, 0, 78, 62
1, 41317, Note_off_c, 0, 46, 59
1, 41318, Control_c, 0, 64, 111
1, 41318, Note_off_c, 0, 54, 55
1, 41325, Note_off_c, 0, 48, 64
1, 41330, Note_off_c, 0, 51, 58
1, 41332, Control_c, 0, 64, 127
1, 41525, Control_c, 0, 64, 79
1, 41529, Note_on_c, 0, 78, 87
1, 41530, Note_on_c, 0, 87, 86
1, 41531, Note_on_c, 0, 57, 66
1, 41532, Note_on_c, 0, 54, 64
1, 41534, Note_on_c, 0, 51, 62
1, 41538, Note_on_c, 0, 75, 72
1, 41539, Control_c, 0, 64, 59
1, 41545, Note_off_c, 0, 78, 76
1, 41546, Note_off_c, 0, 57, 69
1, 41547, Note_on_c, 0, 48, 42
1, 41548, Note_off_c, 0, 87, 72
1, 41553, Note_off_c, 0, 54, 67
1, 41554, Control_c, 0, 64, 31
1, 41555, Note_off_c, 0, 75, 66
1, 41557, Note_off_c, 0, 51, 64
1, 41569, Control_c, 0, 64, 0
1, 41574, Note_off_c, 0, 48, 0
1, 41591, Note_on_c, 0, 57, 87
1, 41595, Note_on_c, 0, 87, 89
1, 41596, Note_on_c, 0, 78, 97
1, 41597, Note_on_c, 0, 46, 25
1, 41599, Note_on_c, 0, 48, 55
1, 41599, Control_c, 0, 64, 29
1, 41600, Note_on_c, 0, 75, 80
1, 41603, Note_on_c, 0, 54, 75
1, 41608, Note_on_c, 0, 51, 70
1, 41613, Note_off_c, 0, 57, 68
1, 41613, Control_c, 0, 64, 45
1, 41622, Note_off_c, 0, 75, 63
1, 41627, Note_off_c, 0, 54, 68
1, 41628, Note_off_c, 0, 78, 63
1, 41628, Control_c, 0, 64, 59
1, 41629, Note_off_c, 0, 87, 63
1, 41632, Note_off_c, 0, 46, 59
1, 41636, Note_off_c, 0, 51, 67
1, 41640, Note_off_c, 0, 48, 66
1, 41643, Control_c, 0, 64, 67
1, 41658, Control_c, 0, 64, 70
1, 41673, Control_c, 0, 64, 70
1, 41688, Control_c, 0, 64, 72
1, 41703, Control_c, 0, 64, 74
1, 41718, Control_c, 0, 64, 77
1, 41733, Control_c, 0, 64, 80
1, 41748, Control_c, 0, 64, 84
1, 41763, Control_c, 0, 64, 85
1, 41792, Control_c, 0, 64, 86
1, 41829, Control_c, 0, 64, 87
1, 41844, Control_c, 0, 64, 89
1, 41859, Control_c, 0, 64, 91
1, 41874, Control_c, 0, 64, 92
1, 41888, Control_c, 0, 64, 94
1, 41903, Control_c, 0, 64, 95
1, 41918, Note_on_c, 0, 57, 76
1, 41918, Control_c, 0, 64, 99
1, 41925, Note_on_c, 0, 54, 62
1, 41926, Note_on_c, 0, 51, 58
1, 41927, Note_on_c, 0, 75, 80
1, 41928, Note_on_c, 0, 72, 73
1, 41933, Control_c, 0, 64, 108
1, 41938, Note_on_c, 0, 84, 65
1, 41939, Note_on_c, 0, 48, 43
1, 41942, Note_off_c, 0, 54, 69
1, 41942, Note_off_c, 0, 75, 71
1, 41946, Note_off_c, 0, 57, 64
1, 41948, Note_off_c, 0, 72, 71
1, 41948, Control_c, 0, 64, 127
1, 41955, Note_off_c, 0, 84, 64
1, 41955, Note_off_c, 0, 51, 58
1, 41965, Note_off_c, 0, 48, 57
1, 41971, Note_on_c, 0, 46, 3
1, 41983, Note_on_c, 0, 75, 101
1, 41986, Note_on_c, 0, 84, 82
1, 41986, Note_on_c, 0, 72, 71
1, 41995, Note_on_c, 0, 54, 86
1, 42004, Note_off_c, 0, 46, 0
1, 42004, Note_on_c, 0, 46, 12
1, 42005, Note_on_c, 0, 51, 64
1, 42006, Note_on_c, 0, 48, 60
1, 42008, Note_on_c, 0, 57, 70
1, 42016, Note_off_c, 0, 72, 60
1, 42018, Note_off_c, 0, 84, 57
1, 42020, Note_off_c, 0, 75, 65
1, 42028, Note_off_c, 0, 51, 67
1, 42031, Note_off_c, 0, 57, 64
1, 42031, Note_on_c, 0, 59, 31
1, 42037, Note_off_c, 0, 48, 65
1, 42039, Note_off_c, 0, 46, 58
1, 42042, Note_off_c, 0, 54, 59
1, 42069, Note_off_c, 0, 59, 48
1, 42271, Note_on_c, 0, 57, 72
1, 42275, Note_on_c, 0, 72, 81
1, 42277, Note_on_c, 0, 69, 79
1, 42277, Note_on_c, 0, 81, 86
1, 42278, Note_on_c, 0, 54, 59
1, 42281, Note_on_c, 0, 51, 49
1, 42282, Note_on_c, 0, 48, 54
1, 42288, Note_off_c, 0, 57, 67
1, 42292, Note_off_c, 0, 72, 74
1, 42294, Note_off_c, 0, 81, 73
1, 42296, Note_off_c, 0, 69, 75
1, 42300, Note_off_c, 0, 54, 59
1, 42306, Note_off_c, 0, 51, 56
1, 42321, Note_off_c, 0, 48, 49
1, 42338, Poly_aftertouch_c, 0, 46, 127
1, 42347, Control_c, 0, 64, 79
1, 42353, Note_on_c, 0, 57, 74
1, 42362, Control_c, 0, 64, 60
1, 42362, Note_on_c, 0, 54, 77
1, 42363, Note_on_c, 0, 66, 96
1, 42365, Note_on_c, 0, 48, 60
1, 42374, Note_off_c, 0, 57, 69
1, 42374, Note_on_c, 0, 51, 65
1, 42377, Control_c, 0, 64, 39
1, 42381, Note_on_c, 0, 77, 60
1, 42381, Note_off_c, 0, 66, 73
1, 42387, Note_on_c, 0, 75, 47
1, 42390, Note_off_c, 0, 54, 67
1, 42391, Control_c, 0, 64, 0
1, 42393, Note_off_c, 0, 51, 64
1, 42394, Poly_aftertouch_c, 0, 46, 0
1, 42398, Note_off_c, 0, 48, 66
1, 42402, Note_off_c, 0, 77, 61
1, 42414, Note_off_c, 0, 75, 38
1, 42439, Note_on_c, 0, 65, 21
1, 42443, Note_on_c, 0, 57, 87
1, 42448, Note_on_c, 0, 48, 67
1, 42449, Note_on_c, 0, 77, 83
1, 42451, Note_on_c, 0, 54, 71
1, 42455, Note_on_c, 0, 51, 68
1, 42465, Note_off_c, 0, 65, 68
1, 42466, Note_off_c, 0, 57, 67
1, 42469, Note_off_c, 0, 77, 72
1, 42481, Note_off_c, 0, 54, 60
1, 42481, Note_on_c, 0, 46, 23
1, 42486, Note_off_c, 0, 51, 67
1, 42510, Note_off_c, 0, 48, 0
1, 42524, Note_on_c, 0, 75, 95
1, 42526, Note_on_c, 0, 63, 92
1, 42527, Note_on_c, 0, 57, 85
1, 42528, Note_on_c, 0, 48, 56
1, 42542, Note_off_c, 0, 46, 0
1, 42545, Note_off_c, 0, 63, 70
1, 42566, Note_on_c, 0, 46, 36
1, 42571, Note_off_c, 0, 75, 66
1, 42577, Note_off_c, 0, 57, 64
1, 42594, Note_off_c, 0, 48, 65
1, 42594, Note_off_c, 0, 46, 48
1, 42645, Note_on_c, 0, 58, 100
1, 42645, Note_on_c, 0, 70, 90
1, 42648, Note_on_c, 0, 53, 17
1, 42648, Note_on_c, 0, 82, 92
1, 42651, Note_on_c, 0, 75, 59
1, 42651, Control_c, 0, 64, 47
1, 42656, Note_on_c, 0, 46, 86
1, 42656, Note_on_c, 0, 50, 66
1, 42664, Note_off_c, 0, 58, 68
1, 42664, Note_off_c, 0, 70, 71
1, 42664, Note_off_c, 0, 82, 76
1, 42666, Control_c, 0, 64, 63
1, 42672, Note_on_c, 0, 74, 52
1, 42674, Note_off_c, 0, 75, 41
1, 42681, Control_c, 0, 64, 91
1, 42686, Note_off_c, 0, 50, 65
1, 42690, Note_off_c, 0, 53, 63
1, 42693, Note_off_c, 0, 74, 63
1, 42696, Control_c, 0, 64, 122
1, 42704, Note_off_c, 0, 46, 64
1, 42710, Control_c, 0, 64, 127
1, 42815, Control_c, 0, 64, 79
1, 42829, Control_c, 0, 64, 61
1, 42842, Note_on_c, 0, 53, 70
1, 42844, Control_c, 0, 64, 45
1, 42848, Note_on_c, 0, 41, 67
1, 42859, Control_c, 0, 64, 22
1, 42862, Note_off_c, 0, 53, 69
1, 42874, Control_c, 0, 64, 19
1, 42879, Note_off_c, 0, 41, 65
1, 42889, Control_c, 0, 64, 33
1, 42901, Note_on_c, 0, 65, 68
1, 42903, Control_c, 0, 64, 44
1, 42918, Control_c, 0, 64, 57
1, 42933, Control_c, 0, 64, 67
1, 42948, Control_c, 0, 64, 77
1, 42957, Note_off_c, 0, 65, 63
1, 42962, Control_c, 0, 64, 83
1, 42967, Note_on_c, 0, 51, 86
1, 42969, Note_on_c, 0, 39, 83
1, 42977, Control_c, 0, 64, 88
1, 42992, Note_off_c, 0, 51, 68
1, 42992, Control_c, 0, 64, 97
1, 43005, Note_off_c, 0, 39, 59
1, 43007, Control_c, 0, 64, 115
1, 43014, Note_on_c, 0, 63, 93
1, 43022, Control_c, 0, 64, 127
1, 43067, Note_off_c, 0, 63, 61
1, 43080, Note_on_c, 0, 50, 96
1, 43084, Note_on_c, 0, 38, 87
1, 43100, Note_off_c, 0, 50, 70
1, 43117, Note_off_c, 0, 38, 66
1, 43119, Note_on_c, 0, 39, 32
1, 43126, Note_on_c, 0, 62, 96
1, 43140, Note_off_c, 0, 39, 57
1, 43167, Note_off_c, 0, 62, 64
1, 43187, Note_on_c, 0, 47, 100
1, 43192, Note_on_c, 0, 35, 93
1, 43198, Note_on_c, 0, 37, 78
1, 43211, Note_off_c, 0, 47, 68
1, 43217, Note_off_c, 0, 35, 66
1, 43227, Note_off_c, 0, 37, 65
1, 43237, Note_on_c, 0, 59, 88
1, 43246, Note_on_c, 0, 60, 77
1, 43261, Note_off_c, 0, 60, 70
1, 43262, Note_off_c, 0, 59, 67
1, 43282, Note_on_c, 0, 46, 111
1, 43292, Note_on_c, 0, 34, 89
1, 43316, Note_on_c, 0, 37, 40
1, 43317, Note_off_c, 0, 37, 127
1, 43326, Note_off_c, 0, 34, 66
1, 43330, Note_on_c, 0, 58, 97
1, 43343, Note_off_c, 0, 46, 65
1, 43367, Note_off_c, 0, 58, 64
1, 43390, Poly_aftertouch_c, 0, 35, 0
1, 43474, Control_c, 0, 64, 68
1, 43489, Control_c, 0, 64, 8
1, 43504, Control_c, 0, 64, 0
1, 43541, Note_on_c, 0, 87, 105
1, 43542, Note_on_c, 0, 57, 101
1, 43542, Note_on_c, 0, 99, 110
1, 43544, Note_on_c, 0, 90, 104
1, 43547, Note_on_c, 0, 54, 95
1, 43548, Control_c, 0, 64, 37
1, 43551, Note_on_c, 0, 51, 84
1, 43551, Note_on_c, 0, 48, 82
1, 43556, Note_on_c, 0, 46, 75
1, 43561, Note_off_c, 0, 90, 73
1, 43563, Control_c, 0, 64, 69
1, 43570, Note_off_c, 0, 99, 69
1, 43573, Note_off_c, 0, 87, 67
1, 43575, Note_off_c, 0, 57, 66
1, 43578, Control_c, 0, 64, 127
1, 43598, Note_off_c, 0, 46, 62
1, 43598, Note_off_c, 0, 54, 62
1, 43602, Note_off_c, 0, 51, 59
1, 43602, Note_off_c, 0, 48, 65
1, 43830, Note_on_c, 0, 54, 80
1, 43833, Note_on_c, 0, 87, 92
1, 43833, Note_on_c, 0, 96, 91
1, 43834, Note_on_c, 0, 57, 75
1, 43836, Note_on_c, 0, 51, 63
1, 43836, Note_on_c, 0, 84, 84
1, 43843, Note_on_c, 0, 48, 58
1, 43845, Control_c, 0, 64, 62
1, 43846, Note_off_c, 0, 54, 75
1, 43849, Note_off_c, 0, 87, 74
1, 43849, Note_off_c, 0, 96, 71
1, 43855, Note_off_c, 0, 84, 68
1, 43858, Note_off_c, 0, 57, 60
1, 43859, Control_c, 0, 64, 43
1, 43864, Note_off_c, 0, 48, 61
1, 43864, Note_off_c, 0, 51, 66
1, 43874, Control_c, 0, 64, 43
1, 43884, Note_on_c, 0, 96, 92
1, 43886, Note_on_c, 0, 87, 101
1, 43889, Note_on_c, 0, 84, 86
1, 43889, Control_c, 0, 64, 57
1, 43891, Note_on_c, 0, 57, 90
1, 43894, Note_on_c, 0, 54, 98
1, 43899, Note_on_c, 0, 46, 75
1, 43900, Note_on_c, 0, 51, 82
1, 43903, Note_on_c, 0, 48, 70
1, 43904, Control_c, 0, 64, 70
1, 43919, Control_c, 0, 64, 101
1, 43920, Note_off_c, 0, 57, 58
1, 43924, Note_off_c, 0, 84, 60
1, 43931, Note_off_c, 0, 96, 64
1, 43933, Control_c, 0, 64, 127
1, 43938, Note_off_c, 0, 46, 66
1, 43939, Note_off_c, 0, 51, 61
1, 43942, Note_off_c, 0, 48, 63
1, 43943, Note_off_c, 0, 54, 64
1, 43943, Note_off_c, 0, 87, 68
1, 44249, Note_on_c, 0, 57, 84
1, 44252, Note_on_c, 0, 84, 89
1, 44253, Note_on_c, 0, 51, 69
1, 44253, Note_on_c, 0, 54, 72
1, 44254, Note_on_c, 0, 81, 84
1, 44261, Note_on_c, 0, 93, 79
1, 44270, Note_off_c, 0, 57, 69
1, 44271, Note_off_c, 0, 54, 75
1, 44271, Note_off_c, 0, 84, 71
1, 44272, Note_off_c, 0, 81, 73
1, 44276, Note_off_c, 0, 51, 71
1, 44279, Note_off_c, 0, 93, 70
1, 44281, Note_on_c, 0, 48, 23
1, 44308, Note_on_c, 0, 46, 3
1, 44309, Note_on_c, 0, 81, 98
1, 44309, Note_on_c, 0, 84, 91
1, 44314, Note_on_c, 0, 93, 96
1, 44319, Note_on_c, 0, 57, 93
1, 44322, Note_off_c, 0, 48, 0
1, 44322, Note_on_c, 0, 48, 62
1, 44322, Note_on_c, 0, 54, 88
1, 44323, Note_on_c, 0, 51, 81
1, 44341, Note_off_c, 0, 57, 67
1, 44347, Note_off_c, 0, 93, 63
1, 44348, Note_on_c, 0, 91, 35
1, 44349, Note_off_c, 0, 91, 127
1, 44349, Note_off_c, 0, 51, 61
1, 44350, Note_off_c, 0, 54, 61
1, 44351, Note_off_c, 0, 81, 62
1, 44353, Note_off_c, 0, 84, 66
1, 44358, Note_off_c, 0, 46, 61
1, 44362, Note_off_c, 0, 48, 66
1, 44608, Note_on_c, 0, 81, 87
1, 44609, Note_on_c, 0, 54, 75
1, 44609, Note_on_c, 0, 57, 74
1, 44612, Note_on_c, 0, 90, 87
1, 44612, Note_on_c, 0, 78, 79
1, 44618, Note_on_c, 0, 51, 67
1, 44619, Note_on_c, 0, 48, 67
1, 44627, Note_on_c, 0, 46, 52
1, 44630, Note_off_c, 0, 57, 70
1, 44632, Note_off_c, 0, 81, 68
1, 44633, Note_off_c, 0, 78, 72
1, 44633, Note_off_c, 0, 90, 69
1, 44636, Note_off_c, 0, 54, 65
1, 44639, Control_c, 0, 64, 70
1, 44646, Note_off_c, 0, 48, 67
1, 44646, Note_off_c, 0, 51, 66
1, 44654, Control_c, 0, 64, 46
1, 44656, Note_off_c, 0, 46, 54
1, 44668, Control_c, 0, 64, 0
1, 44691, Note_on_c, 0, 77, 94
1, 44695, Note_on_c, 0, 57, 80
1, 44700, Note_on_c, 0, 89, 80
1, 44702, Note_on_c, 0, 54, 77
1, 44704, Note_on_c, 0, 88, 78
1, 44706, Note_on_c, 0, 48, 75
1, 44711, Note_on_c, 0, 51, 64
1, 44715, Note_off_c, 0, 57, 70
1, 44718, Note_on_c, 0, 82, 6
1, 44720, Note_off_c, 0, 89, 73
1, 44723, Note_off_c, 0, 88, 73
1, 44724, Note_off_c, 0, 77, 61
1, 44727, Note_off_c, 0, 54, 67
1, 44735, Note_off_c, 0, 48, 66
1, 44735, Note_off_c, 0, 51, 69
1, 44741, Note_off_c, 0, 82, 54
1, 44785, Note_on_c, 0, 88, 95
1, 44786, Note_on_c, 0, 54, 83
1, 44788, Note_on_c, 0, 57, 85
1, 44788, Note_on_c, 0, 76, 96
1, 44795, Note_on_c, 0, 48, 77
1, 44812, Note_on_c, 0, 87, 70
1, 44814, Note_on_c, 0, 51, 55
1, 44814, Note_off_c, 0, 76, 74
1, 44819, Note_on_c, 0, 46, 6
1, 44823, Note_off_c, 0, 57, 64
1, 44829, Note_off_c, 0, 88, 67
1, 44830, Note_off_c, 0, 87, 64
1, 44837, Note_off_c, 0, 46, 56
1, 44842, Note_off_c, 0, 51, 63
1, 44843, Note_off_c, 0, 54, 65
1, 44877, Note_on_c, 0, 75, 98
1, 44878, Note_on_c, 0, 87, 100
1, 44884, Note_on_c, 0, 57, 87
1, 44886, Note_on_c, 0, 54, 51
1, 44907, Note_off_c, 0, 75, 66
1, 44925, Note_off_c, 0, 54, 64
1, 44931, Note_on_c, 0, 46, 26
1, 44934, Note_off_c, 0, 87, 66
1, 44935, Note_off_c, 0, 57, 61
1, 44951, Note_off_c, 0, 48, 65
1, 44974, Note_off_c, 0, 46, 36
1, 45013, Note_on_c, 0, 58, 106
1, 45015, Note_on_c, 0, 86, 99
1, 45015, Note_on_c, 0, 94, 104
1, 45018, Note_on_c, 0, 82, 93
1, 45018, Control_c, 0, 64, 34
1, 45021, Note_on_c, 0, 53, 73
1, 45023, Note_on_c, 0, 46, 83
1, 45030, Note_off_c, 0, 86, 71
1, 45031, Note_on_c, 0, 50, 59
1, 45032, Control_c, 0, 64, 61
1, 45033, Note_off_c, 0, 94, 68
1, 45037, Note_off_c, 0, 82, 69
1, 45044, Note_off_c, 0, 58, 65
1, 45046, Note_off_c, 0, 53, 68
1, 45047, Note_off_c, 0, 46, 67
1, 45047, Control_c, 0, 64, 127
1, 45050, Note_on_c, 0, 92, 34
1, 45051, Note_off_c, 0, 92, 127
1, 45056, Note_off_c, 0, 50, 58
1, 45224, Control_c, 0, 64, 81
1, 45239, Control_c, 0, 64, 62
1, 45243, Note_on_c, 0, 65, 72
1, 45254, Control_c, 0, 64, 49
1, 45269, Control_c, 0, 64, 32
1, 45284, Control_c, 0, 64, 32
1, 45297, Note_off_c, 0, 65, 63
1, 45298, Control_c, 0, 64, 42
1, 45306, Note_on_c, 0, 68, 73
1, 45307, Note_on_c, 0, 70, 65
1, 45313, Control_c, 0, 64, 53
1, 45328, Control_c, 0, 64, 63
1, 45342, Note_off_c, 0, 70, 61
1, 45343, Control_c, 0, 64, 70
1, 45346, Note_off_c, 0, 68, 58
1, 45357, Control_c, 0, 64, 72
1, 45384, Note_on_c, 0, 63, 80
1, 45402, Control_c, 0, 64, 71
1, 45417, Control_c, 0, 64, 68
1, 45429, Note_off_c, 0, 63, 64
1, 45432, Control_c, 0, 64, 63
1, 45435, Note_on_c, 0, 68, 82
1, 45435, Note_on_c, 0, 70, 80
1, 45447, Control_c, 0, 64, 57
1, 45462, Control_c, 0, 64, 44
1, 45466, Note_off_c, 0, 68, 57
1, 45469, Note_off_c, 0, 70, 58
1, 45477, Control_c, 0, 64, 24
1, 45492, Control_c, 0, 64, 0
1, 45513, Note_on_c, 0, 62, 88
1, 45565, Note_off_c, 0, 62, 65
1, 45569, Note_on_c, 0, 70, 83
1, 45569, Note_on_c, 0, 68, 81
1, 45607, Note_off_c, 0, 68, 58
1, 45613, Note_off_c, 0, 70, 63
1, 45640, Note_on_c, 0, 60, 85
1, 45686, Note_off_c, 0, 60, 67
1, 45688, Note_on_c, 0, 68, 80
1, 45698, Note_on_c, 0, 70, 62
1, 45719, Note_off_c, 0, 70, 65
1, 45724, Note_off_c, 0, 68, 58
1, 45766, Note_on_c, 0, 58, 72
1, 45792, Note_off_c, 0, 58, 67
1, 45799, Note_on_c, 0, 70, 71
1, 45818, Note_on_c, 0, 68, 56
1, 45825, Note_off_c, 0, 70, 64
1, 45843, Note_off_c, 0, 68, 57
1, 45870, Control_c, 0, 64, 14
1, 45885, Control_c, 0, 64, 39
1, 45894, Note_on_c, 0, 59, 73
1, 45898, Note_on_c, 0, 56, 73
1, 45899, Note_on_c, 0, 71, 66
1, 45900, Control_c, 0, 64, 55
1, 45903, Note_on_c, 0, 44, 69
1, 45910, Note_on_c, 0, 52, 53
1, 45915, Control_c, 0, 64, 70
1, 45925, Note_off_c, 0, 56, 67
1, 45929, Control_c, 0, 64, 87
1, 45933, Note_off_c, 0, 44, 65
1, 45935, Note_off_c, 0, 52, 59
1, 45944, Control_c, 0, 64, 93
1, 45959, Control_c, 0, 64, 95
1, 45960, Note_off_c, 0, 59, 62
1, 45963, Note_on_c, 0, 64, 76
1, 45973, Control_c, 0, 64, 96
1, 45974, Note_off_c, 0, 71, 64
1, 46003, Control_c, 0, 64, 97
1, 46007, Note_off_c, 0, 64, 60
1, 46022, Note_on_c, 0, 54, 74
1, 46022, Note_on_c, 0, 68, 74
1, 46024, Note_on_c, 0, 42, 75
1, 46033, Control_c, 0, 64, 97
1, 46041, Note_off_c, 0, 68, 64
1, 46047, Control_c, 0, 64, 98
1, 46049, Note_off_c, 0, 54, 68
1, 46058, Note_off_c, 0, 42, 62
1, 46062, Control_c, 0, 64, 99
1, 46077, Control_c, 0, 64, 99
1, 46082, Note_on_c, 0, 71, 81
1, 46121, Control_c, 0, 64, 100
1, 46139, Note_on_c, 0, 76, 79
1, 46141, Note_off_c, 0, 71, 63
1, 46147, Note_on_c, 0, 52, 84
1, 46151, Control_c, 0, 64, 101
1, 46153, Note_on_c, 0, 40, 79
1, 46166, Control_c, 0, 64, 101
1, 46167, Note_off_c, 0, 52, 75
1, 46177, Note_off_c, 0, 40, 68
1, 46191, Note_on_c, 0, 42, 17
1, 46191, Note_off_c, 0, 76, 65
1, 46193, Note_on_c, 0, 80, 87
1, 46223, Note_off_c, 0, 80, 63
1, 46225, Control_c, 0, 64, 100
1, 46240, Control_c, 0, 64, 94
1, 46243, Note_off_c, 0, 42, 36
1, 46255, Control_c, 0, 64, 85
1, 46266, Note_on_c, 0, 37, 89
1, 46267, Note_on_c, 0, 49, 87
1, 46267, Note_on_c, 0, 83, 85
1, 46270, Control_c, 0, 64, 76
1, 46285, Control_c, 0, 64, 67
1, 46288, Note_off_c, 0, 49, 72
1, 46307, Control_c, 0, 64, 60
1, 46309, Note_off_c, 0, 37, 62
1, 46322, Control_c, 0, 64, 48
1, 46332, Note_on_c, 0, 88, 89
1, 46336, Control_c, 0, 64, 22
1, 46338, Note_off_c, 0, 83, 63
1, 46351, Control_c, 0, 64, 0
1, 46395, Note_on_c, 0, 92, 81
1, 46403, Note_on_c, 0, 47, 92
1, 46405, Note_off_c, 0, 88, 61
1, 46413, Note_on_c, 0, 35, 72
1, 46428, Note_off_c, 0, 47, 69
1, 46438, Note_off_c, 0, 35, 69
1, 46439, Note_on_c, 0, 36, 39
1, 46440, Note_on_c, 0, 94, 90
1, 46440, Note_off_c, 0, 92, 70
1, 46443, Note_on_c, 0, 37, 29
1, 46444, Note_off_c, 0, 37, 127
1, 46478, Note_off_c, 0, 36, 32
1, 46483, Note_off_c, 0, 94, 68
1, 46505, Note_on_c, 0, 95, 97
1, 46508, Note_on_c, 0, 83, 88
1, 46508, Note_on_c, 0, 88, 88
1, 46511, Note_on_c, 0, 44, 100
1, 46517, Note_on_c, 0, 93, 63
1, 46530, Note_off_c, 0, 83, 71
1, 46535, Note_on_c, 0, 32, 55
1, 46535, Note_on_c, 0, 34, 56
1, 46537, Note_off_c, 0, 93, 63
1, 46541, Note_off_c, 0, 44, 67
1, 46543, Note_off_c, 0, 88, 66
1, 46543, Note_off_c, 0, 95, 69
1, 46562, Note_off_c, 0, 32, 54
1, 46565, Note_off_c, 0, 34, 40
1, 46648, Note_on_c, 0, 46, 113
1, 46651, Note_on_c, 0, 86, 100
1, 46653, Note_on_c, 0, 98, 97
1, 46657, Note_on_c, 0, 34, 66
1, 46657, Note_on_c, 0, 89, 86
1, 46663, Control_c, 0, 64, 38
1, 46663, Note_on_c, 0, 96, 75
1, 46666, Note_off_c, 0, 98, 78
1, 46671, Note_off_c, 0, 89, 72
1, 46672, Note_off_c, 0, 86, 67
1, 46675, Note_off_c, 0, 46, 63
1, 46677, Note_off_c, 0, 96, 67
1, 46677, Control_c, 0, 64, 61
1, 46681, Note_on_c, 0, 41, 30
1, 46689, Note_on_c, 0, 37, 24
1, 46690, Note_off_c, 0, 37, 127
1, 46690, Note_on_c, 0, 88, 32
1, 46691, Note_off_c, 0, 88, 127
1, 46691, Note_off_c, 0, 34, 65
1, 46692, Control_c, 0, 64, 87
1, 46707, Control_c, 0, 64, 127
1, 46726, Note_off_c, 0, 41, 50
1, 46732, Poly_aftertouch_c, 0, 37, 0
1, 46837, Note_on_c, 0, 65, 71
1, 46840, Control_c, 0, 64, 101
1, 46855, Control_c, 0, 64, 87
1, 46866, Note_off_c, 0, 65, 66
1, 46869, Control_c, 0, 64, 78
1, 46884, Control_c, 0, 64, 71
1, 46896, Note_on_c, 0, 70, 72
1, 46899, Control_c, 0, 64, 66
1, 46901, Note_on_c, 0, 68, 68
1, 46914, Control_c, 0, 64, 62
1, 46924, Note_off_c, 0, 68, 63
1, 46925, Note_off_c, 0, 70, 62
1, 46928, Control_c, 0, 64, 58
1, 46943, Control_c, 0, 64, 53
1, 46955, Note_on_c, 0, 63, 87
1, 46958, Control_c, 0, 64, 46
1, 46973, Control_c, 0, 64, 42
1, 46988, Control_c, 0, 64, 42
1, 47003, Control_c, 0, 64, 41
1, 47006, Note_off_c, 0, 63, 61
1, 47015, Note_on_c, 0, 68, 73
1, 47015, Note_on_c, 0, 70, 81
1, 47018, Control_c, 0, 64, 39
1, 47033, Control_c, 0, 64, 36
1, 47055, Note_off_c, 0, 68, 60
1, 47055, Control_c, 0, 64, 31
1, 47057, Note_off_c, 0, 70, 64
1, 47070, Control_c, 0, 64, 24
1, 47084, Control_c, 0, 64, 16
1, 47086, Note_on_c, 0, 62, 85
1, 47099, Control_c, 0, 64, 0
1, 47132, Note_off_c, 0, 62, 67
1, 47144, Note_on_c, 0, 68, 89
1, 47147, Note_on_c, 0, 70, 81
1, 47181, Note_off_c, 0, 68, 57
1, 47185, Note_off_c, 0, 70, 53
1, 47203, Note_on_c, 0, 60, 85
1, 47252, Note_off_c, 0, 60, 66
1, 47264, Note_on_c, 0, 68, 81
1, 47268, Note_on_c, 0, 70, 70
1, 47292, Note_off_c, 0, 70, 66
1, 47297, Note_off_c, 0, 68, 58
1, 47331, Note_on_c, 0, 58, 75
1, 47355, Note_off_c, 0, 58, 69
1, 47370, Note_on_c, 0, 70, 78
1, 47392, Note_on_c, 0, 68, 50
1, 47393, Note_off_c, 0, 70, 69
1, 47419, Note_off_c, 0, 68, 36
1, 47441, Control_c, 0, 64, 29
1, 47456, Control_c, 0, 64, 55
1, 47459, Note_on_c, 0, 59, 83
1, 47460, Note_on_c, 0, 71, 77
1, 47466, Note_on_c, 0, 56, 68
1, 47468, Note_on_c, 0, 44, 75
1, 47471, Control_c, 0, 64, 77
1, 47486, Control_c, 0, 64, 127
1, 47487, Note_off_c, 0, 56, 63
1, 47499, Note_off_c, 0, 44, 65
1, 47521, Note_off_c, 0, 59, 62
1, 47528, Note_on_c, 0, 64, 80
1, 47547, Note_off_c, 0, 71, 62
1, 47574, Note_off_c, 0, 64, 65
1, 47578, Poly_aftertouch_c, 0, 57, 0
1, 47591, Note_on_c, 0, 54, 86
1, 47593, Note_on_c, 0, 42, 83
1, 47594, Note_on_c, 0, 68, 66
1, 47614, Note_off_c, 0, 68, 62
1, 47618, Note_off_c, 0, 54, 66
1, 47637, Note_off_c, 0, 42, 59
1, 47652, Note_on_c, 0, 71, 82
1, 47706, Note_off_c, 0, 71, 64
1, 47707, Note_on_c, 0, 76, 77
1, 47714, Note_on_c, 0, 52, 94
1, 47719, Note_on_c, 0, 40, 86
1, 47735, Note_off_c, 0, 52, 74
1, 47744, Note_on_c, 0, 42, 47
1, 47748, Note_off_c, 0, 40, 65
1, 47759, Note_on_c, 0, 80, 85
1, 47759, Note_off_c, 0, 76, 67
1, 47766, Note_off_c, 0, 42, 59
1, 47787, Note_off_c, 0, 80, 63
1, 47838, Note_on_c, 0, 83, 87
1, 47840, Note_on_c, 0, 37, 92
1, 47841, Note_on_c, 0, 49, 93
1, 47861, Note_off_c, 0, 49, 71
1, 47885, Note_off_c, 0, 37, 60
1, 47897, Note_on_c, 0, 88, 93
1, 47912, Note_off_c, 0, 83, 63
1, 47938, Control_c, 0, 64, 93
1, 47952, Control_c, 0, 64, 73
1, 47957, Note_on_c, 0, 92, 88
1, 47967, Control_c, 0, 64, 61
1, 47969, Note_on_c, 0, 47, 95
1, 47978, Note_on_c, 0, 35, 78
1, 47978, Note_off_c, 0, 88, 62
1, 47982, Control_c, 0, 64, 41
1, 47996, Note_off_c, 0, 47, 67
1, 47997, Control_c, 0, 64, 0
1, 47999, Note_on_c, 0, 36, 50
1, 48001, Note_on_c, 0, 37, 44
1, 48002, Note_off_c, 0, 37, 127
1, 48005, Note_off_c, 0, 35, 67
1, 48006, Note_off_c, 0, 92, 70
1, 48015, Note_on_c, 0, 94, 80
1, 48031, Note_off_c, 0, 36, 34
1, 48064, Note_on_c, 0, 83, 73
1, 48067, Note_on_c, 0, 96, 70
1, 48070, Note_on_c, 0, 88, 75
1, 48071, Note_on_c, 0, 89, 68
1, 48073, Note_on_c, 0, 44, 104
1, 48077, Note_on_c, 0, 84, 57
1, 48078, Note_on_c, 0, 95, 70
1, 48081, Note_on_c, 0, 32, 87
1, 48085, Note_off_c, 0, 83, 63
1, 48086, Note_off_c, 0, 94, 66
1, 48090, Note_off_c, 0, 96, 64
1, 48094, Note_off_c, 0, 88, 70
1, 48095, Note_off_c, 0, 95, 64
1, 48096, Note_off_c, 0, 89, 68
1, 48098, Note_off_c, 0, 84, 61
1, 48107, Note_off_c, 0, 44, 68
1, 48114, Note_off_c, 0, 32, 63
1, 48130, Note_on_c, 0, 43, 14
1, 48131, Note_off_c, 0, 43, 127
1, 48224, Note_on_c, 0, 46, 120
1, 48224, Note_on_c, 0, 98, 102
1, 48225, Note_on_c, 0, 89, 95
1, 48227, Note_on_c, 0, 86, 91
1, 48233, Note_on_c, 0, 34, 79
1, 48235, Control_c, 0, 64, 31
1, 48238, Note_off_c, 0, 98, 75
1, 48240, Note_off_c, 0, 89, 76
1, 48242, Note_off_c, 0, 86, 72
1, 48249, Control_c, 0, 64, 58
1, 48252, Note_off_c, 0, 46, 66
1, 48261, Note_on_c, 0, 37, 33
1, 48262, Note_off_c, 0, 37, 127
1, 48262, Note_on_c, 0, 41, 29
1, 48263, Note_off_c, 0, 34, 64
1, 48264, Control_c, 0, 64, 84
1, 48279, Control_c, 0, 64, 127
1, 48297, Poly_aftertouch_c, 0, 37, 0
1, 48305, Note_off_c, 0, 41, 46
1, 48457, Control_c, 0, 64, 114
1, 48463, Note_on_c, 0, 68, 79
1, 48468, Note_on_c, 0, 65, 70
1, 48472, Control_c, 0, 64, 71
1, 48477, Note_on_c, 0, 58, 57
1, 48484, Note_on_c, 0, 82, 71
1, 48484, Note_off_c, 0, 68, 69
1, 48484, Note_on_c, 0, 70, 65
1, 48484, Note_on_c, 0, 74, 68
1, 48487, Control_c, 0, 64, 53
1, 48492, Note_off_c, 0, 65, 69
1, 48497, Note_off_c, 0, 58, 60
1, 48499, Note_off_c, 0, 82, 70
1, 48500, Note_off_c, 0, 74, 68
1, 48501, Control_c, 0, 64, 0
1, 48502, Note_off_c, 0, 70, 65
1, 48547, Note_on_c, 0, 65, 81
1, 48549, Note_on_c, 0, 68, 87
1, 48550, Note_on_c, 0, 82, 82
1, 48551, Note_on_c, 0, 70, 70
1, 48560, Note_on_c, 0, 58, 70
1, 48562, Note_on_c, 0, 74, 59
1, 48569, Note_off_c, 0, 68, 67
1, 48571, Note_off_c, 0, 82, 63
1, 48573, Note_off_c, 0, 70, 69
1, 48581, Note_off_c, 0, 74, 67
1, 48588, Note_off_c, 0, 58, 67
1, 48597, Note_off_c, 0, 65, 63
1, 48701, Control_c, 0, 64, 26
1, 48709, Note_on_c, 0, 82, 66
1, 48710, Note_on_c, 0, 58, 51
1, 48712, Note_on_c, 0, 65, 56
1, 48715, Note_on_c, 0, 68, 55
1, 48716, Control_c, 0, 64, 40
1, 48721, Note_on_c, 0, 70, 49
1, 48731, Control_c, 0, 64, 52
1, 48735, Note_off_c, 0, 58, 60
1, 48736, Note_off_c, 0, 65, 66
1, 48736, Note_off_c, 0, 82, 67
1, 48738, Note_off_c, 0, 68, 58
1, 48745, Note_off_c, 0, 70, 59
1, 48746, Control_c, 0, 64, 61
1, 48761, Control_c, 0, 64, 64
1, 48775, Control_c, 0, 64, 65
1, 48849, Control_c, 0, 64, 64
1, 48864, Control_c, 0, 64, 63
1, 48879, Control_c, 0, 64, 60
1, 48893, Control_c, 0, 64, 52
1, 48894, Note_on_c, 0, 66, 72
1, 48903, Note_on_c, 0, 57, 61
1, 48908, Note_on_c, 0, 71, 61
1, 48908, Note_on_c, 0, 63, 49
1, 48908, Control_c, 0, 64, 28
1, 48915, Note_off_c, 0, 66, 66
1, 48917, Note_on_c, 0, 83, 49
1, 48925, Control_c, 0, 64, 0
1, 48928, Note_off_c, 0, 71, 66
1, 48938, Note_on_c, 0, 75, 12
1, 48945, Note_off_c, 0, 57, 0
1, 48952, Note_off_c, 0, 83, 0
1, 48952, Note_on_c, 0, 83, 59
1, 48958, Note_on_c, 0, 66, 86
1, 48958, Note_on_c, 0, 71, 67
1, 48958, Note_off_c, 0, 63, 0
1, 48959, Note_on_c, 0, 57, 59
1, 48967, Note_on_c, 0, 63, 61
1, 48983, Note_off_c, 0, 66, 65
1, 48984, Note_off_c, 0, 71, 68
1, 48985, Note_off_c, 0, 75, 60
1, 48992, Note_off_c, 0, 83, 60
1, 48994, Note_off_c, 0, 63, 66
1, 48995, Note_off_c, 0, 57, 62
1, 49114, Note_on_c, 0, 83, 84
1, 49115, Note_on_c, 0, 75, 81
1, 49115, Note_on_c, 0, 57, 67
1, 49115, Note_on_c, 0, 66, 76
1, 49116, Control_c, 0, 64, 8
1, 49118, Note_on_c, 0, 71, 68
1, 49119, Note_on_c, 0, 63, 60
1, 49131, Control_c, 0, 64, 30
1, 49134, Note_off_c, 0, 71, 70
1, 49134, Note_off_c, 0, 75, 70
1, 49138, Note_off_c, 0, 66, 69
1, 49143, Note_off_c, 0, 57, 65
1, 49143, Note_off_c, 0, 63, 65
1, 49143, Note_off_c, 0, 83, 61
1, 49146, Control_c, 0, 64, 44
1, 49161, Control_c, 0, 64, 57
1, 49176, Control_c, 0, 64, 64
1, 49191, Control_c, 0, 64, 68
1, 49302, Control_c, 0, 64, 66
1, 49306, Note_on_c, 0, 58, 73
1, 49308, Note_on_c, 0, 64, 73
1, 49310, Note_on_c, 0, 55, 73
1, 49315, Note_on_c, 0, 76, 84
1, 49316, Note_on_c, 0, 72, 75
1, 49316, Control_c, 0, 64, 61
1, 49323, Note_on_c, 0, 84, 73
1, 49330, Note_off_c, 0, 55, 68
1, 49331, Note_off_c, 0, 58, 68
1, 49331, Note_off_c, 0, 76, 75
1, 49331, Control_c, 0, 64, 50
1, 49333, Note_off_c, 0, 64, 67
1, 49335, Note_off_c, 0, 72, 72
1, 49338, Note_off_c, 0, 84, 67
1, 49346, Control_c, 0, 64, 16
1, 49361, Control_c, 0, 64, 0
1, 49373, Note_on_c, 0, 76, 92
1, 49374, Note_on_c, 0, 72, 77
1, 49376, Note_on_c, 0, 64, 89
1, 49379, Note_on_c, 0, 58, 76
1, 49379, Note_on_c, 0, 84, 84
1, 49382, Note_on_c, 0, 55, 78
1, 49394, Note_off_c, 0, 76, 69
1, 49394, Note_off_c, 0, 64, 68
1, 49394, Note_off_c, 0, 72, 66
1, 49406, Note_off_c, 0, 84, 59
1, 49413, Note_off_c, 0, 55, 65
1, 49420, Note_off_c, 0, 58, 62
1, 49528, Note_on_c, 0, 76, 89
1, 49530, Note_on_c, 0, 84, 95
1, 49531, Note_on_c, 0, 64, 80
1, 49531, Note_on_c, 0, 72, 86
1, 49532, Note_on_c, 0, 55, 77
1, 49532, Note_on_c, 0, 58, 79
1, 49539, Control_c, 0, 64, 12
1, 49549, Note_off_c, 0, 72, 73
1, 49550, Note_off_c, 0, 76, 69
1, 49552, Note_off_c, 0, 64, 70
1, 49554, Control_c, 0, 64, 34
1, 49555, Note_off_c, 0, 84, 61
1, 49557, Note_off_c, 0, 55, 69
1, 49558, Note_off_c, 0, 58, 67
1, 49569, Control_c, 0, 64, 50
1, 49584, Control_c, 0, 64, 63
1, 49598, Control_c, 0, 64, 72
1, 49613, Control_c, 0, 64, 75
1, 49687, Control_c, 0, 64, 73
1, 49702, Control_c, 0, 64, 68
1, 49714, Note_on_c, 0, 61, 82
1, 49716, Note_on_c, 0, 53, 74
1, 49718, Control_c, 0, 64, 61
1, 49719, Note_on_c, 0, 77, 87
1, 49721, Note_on_c, 0, 56, 67
1, 49722, Note_on_c, 0, 73, 84
1, 49723, Note_on_c, 0, 85, 81
1, 49733, Control_c, 0, 64, 46
1, 49734, Note_off_c, 0, 61, 73
1, 49737, Note_off_c, 0, 77, 73
1, 49742, Note_off_c, 0, 85, 72
1, 49742, Note_off_c, 0, 73, 70
1, 49746, Note_off_c, 0, 56, 66
1, 49747, Control_c, 0, 64, 0
1, 49766, Note_off_c, 0, 53, 0
1, 49775, Note_on_c, 0, 77, 83
1, 49776, Note_on_c, 0, 85, 83
1, 49779, Note_on_c, 0, 73, 79
1, 49782, Note_on_c, 0, 61, 91
1, 49792, Note_on_c, 0, 56, 73
1, 49804, Poly_aftertouch_c, 0, 53, 127
1, 49811, Note_off_c, 0, 73, 58
1, 49815, Note_off_c, 0, 77, 67
1, 49819, Note_on_c, 0, 62, 42
1, 49820, Note_off_c, 0, 62, 127
1, 49824, Note_off_c, 0, 61, 63
1, 49829, Note_off_c, 0, 56, 62
1, 49830, Note_off_c, 0, 85, 64
1, 49856, Poly_aftertouch_c, 0, 53, 0
1, 49935, Note_on_c, 0, 73, 92
1, 49935, Note_on_c, 0, 77, 97
1, 49936, Note_on_c, 0, 61, 88
1, 49936, Note_on_c, 0, 85, 89
1, 49939, Note_on_c, 0, 56, 77
1, 49954, Control_c, 0, 64, 38
1, 49957, Note_off_c, 0, 61, 70
1, 49960, Note_on_c, 0, 53, 48
1, 49961, Note_off_c, 0, 73, 64
1, 49962, Note_off_c, 0, 77, 61
1, 49966, Note_off_c, 0, 56, 69
1, 49969, Control_c, 0, 64, 56
1, 49970, Note_on_c, 0, 52, 40
1, 49984, Control_c, 0, 64, 72
1, 49986, Note_off_c, 0, 53, 59
1, 49987, Note_off_c, 0, 85, 62
1, 49999, Control_c, 0, 64, 98
1, 50004, Note_off_c, 0, 52, 56
1, 50014, Control_c, 0, 64, 110
1, 50125, Control_c, 0, 64, 99
1, 50136, Note_on_c, 0, 59, 79
1, 50139, Note_on_c, 0, 53, 72
1, 50139, Note_on_c, 0, 80, 92
1, 50140, Control_c, 0, 64, 78
1, 50141, Note_on_c, 0, 47, 78
1, 50141, Note_on_c, 0, 77, 89
1, 50141, Note_on_c, 0, 85, 87
1, 50146, Note_on_c, 0, 89, 78
1, 50154, Note_off_c, 0, 80, 75
1, 50155, Control_c, 0, 64, 61
1, 50157, Note_off_c, 0, 59, 71
1, 50157, Note_off_c, 0, 85, 74
1, 50159, Note_off_c, 0, 77, 71
1, 50164, Note_off_c, 0, 53, 70
1, 50166, Note_off_c, 0, 89, 72
1, 50168, Note_off_c, 0, 47, 67
1, 50170, Control_c, 0, 64, 41
1, 50185, Control_c, 0, 64, 0
1, 50198, Note_on_c, 0, 77, 80
1, 50202, Note_on_c, 0, 89, 93
1, 50203, Note_on_c, 0, 80, 93
1, 50203, Note_on_c, 0, 85, 90
1, 50209, Note_on_c, 0, 59, 86
1, 50213, Note_on_c, 0, 53, 84
1, 50213, Note_on_c, 0, 47, 88
1, 50228, Note_off_c, 0, 59, 69
1, 50243, Note_off_c, 0, 80, 62
1, 50244, Note_off_c, 0, 47, 63
1, 50247, Note_off_c, 0, 77, 63
1, 50248, Note_off_c, 0, 85, 58
1, 50254, Note_off_c, 0, 89, 63
1, 50264, Note_off_c, 0, 53, 67
1, 50362, Note_on_c, 0, 77, 93
1, 50362, Control_c, 0, 64, 12
1, 50362, Note_on_c, 0, 80, 95
1, 50362, Note_on_c, 0, 85, 93
1, 50362, Note_on_c, 0, 89, 97
1, 50363, Note_on_c, 0, 59, 88
1, 50365, Note_on_c, 0, 47, 81
1, 50371, Note_on_c, 0, 53, 69
1, 50377, Control_c, 0, 64, 37
1, 50380, Note_off_c, 0, 77, 70
1, 50386, Note_off_c, 0, 59, 68
1, 50391, Note_off_c, 0, 80, 67
1, 50392, Note_off_c, 0, 47, 69
1, 50392, Control_c, 0, 64, 56
1, 50395, Note_off_c, 0, 53, 69
1, 50395, Note_off_c, 0, 85, 67
1, 50399, Note_off_c, 0, 89, 66
1, 50401, Note_on_c, 0, 49, 33
1, 50407, Control_c, 0, 64, 78
1, 50421, Control_c, 0, 64, 127
1, 50435, Note_off_c, 0, 49, 52
1, 50570, Control_c, 0, 64, 108
1, 50575, Note_on_c, 0, 58, 91
1, 50577, Note_on_c, 0, 86, 90
1, 50578, Note_on_c, 0, 80, 96
1, 50582, Note_on_c, 0, 46, 79
1, 50582, Note_on_c, 0, 53, 71
1, 50584, Note_on_c, 0, 94, 82
1, 50585, Control_c, 0, 64, 71
1, 50594, Note_off_c, 0, 58, 71
1, 50595, Note_off_c, 0, 80, 70
1, 50600, Control_c, 0, 64, 55
1, 50601, Note_off_c, 0, 86, 64
1, 50601, Note_off_c, 0, 94, 74
1, 50601, Note_on_c, 0, 87, 54
1, 50602, Note_off_c, 0, 87, 127
1, 50603, Note_off_c, 0, 53, 72
1, 50608, Note_off_c, 0, 46, 67
1, 50615, Control_c, 0, 64, 23
1, 50630, Control_c, 0, 64, 0
1, 50643, Note_on_c, 0, 80, 90
1, 50643, Note_on_c, 0, 86, 95
1, 50646, Note_on_c, 0, 58, 93
1, 50646, Note_on_c, 0, 94, 97
1, 50655, Note_on_c, 0, 46, 83
1, 50655, Note_on_c, 0, 53, 83
1, 50687, Note_off_c, 0, 80, 60
1, 50689, Note_off_c, 0, 58, 63
1, 50699, Note_off_c, 0, 46, 60
1, 50706, Note_off_c, 0, 94, 65
1, 50708, Note_off_c, 0, 53, 62
1, 50711, Note_off_c, 0, 86, 54
1, 50835, Note_on_c, 0, 94, 92
1, 50839, Note_on_c, 0, 58, 90
1, 50839, Note_on_c, 0, 86, 83
1, 50841, Note_on_c, 0, 80, 84
1, 50842, Note_on_c, 0, 46, 74
1, 50844, Control_c, 0, 64, 24
1, 50846, Note_on_c, 0, 53, 62
1, 50852, Note_off_c, 0, 94, 72
1, 50855, Note_off_c, 0, 86, 71
1, 50859, Control_c, 0, 64, 44
1, 50860, Note_off_c, 0, 80, 68
1, 50861, Note_off_c, 0, 58, 66
1, 50868, Note_off_c, 0, 46, 67
1, 50869, Note_off_c, 0, 53, 67
1, 50874, Control_c, 0, 64, 60
1, 50889, Control_c, 0, 64, 74
1, 50903, Control_c, 0, 64, 86
1, 51038, Control_c, 0, 64, 85
1, 51052, Control_c, 0, 64, 81
1, 51067, Control_c, 0, 64, 72
1, 51078, Note_on_c, 0, 70, 82
1, 51082, Control_c, 0, 64, 62
1, 51084, Note_on_c, 0, 58, 69
1, 51096, Note_off_c, 0, 70, 72
1, 51096, Control_c, 0, 64, 48
1, 51105, Note_off_c, 0, 58, 65
1, 51111, Control_c, 0, 64, 0
1, 51148, Note_on_c, 0, 58, 95
1, 51149, Note_on_c, 0, 70, 87
1, 51165, Note_off_c, 0, 70, 73
1, 51187, Note_off_c, 0, 58, 61
1, 51367, Note_on_c, 0, 70, 75
1, 51370, Note_on_c, 0, 58, 68
1, 51379, Control_c, 0, 64, 28
1, 51388, Note_off_c, 0, 70, 69
1, 51394, Control_c, 0, 64, 43
1, 51397, Note_off_c, 0, 58, 66
1, 51409, Control_c, 0, 64, 54
1, 51424, Control_c, 0, 64, 61
1, 51439, Control_c, 0, 64, 63
1, 51623, Control_c, 0, 64, 63
1, 51653, Control_c, 0, 64, 62
1, 51668, Control_c, 0, 64, 60
1, 51683, Control_c, 0, 64, 53
1, 51696, Note_on_c, 0, 70, 73
1, 51698, Control_c, 0, 64, 42
1, 51707, Note_on_c, 0, 58, 53
1, 51713, Control_c, 0, 64, 16
1, 51716, Note_off_c, 0, 70, 70
1, 51727, Control_c, 0, 64, 0
1, 51734, Note_off_c, 0, 58, 50
1, 51769, Note_on_c, 0, 58, 58
1, 51778, Note_on_c, 0, 70, 70
1, 51792, Note_off_c, 0, 70, 70
1, 51799, Note_off_c, 0, 58, 65
1, 52037, Note_on_c, 0, 79, 69
1, 52053, Control_c, 0, 64, 21
1, 52054, Note_on_c, 0, 67, 41
1, 52055, Note_on_c, 0, 51, 52
1, 52057, Note_on_c, 0, 70, 42
1, 52061, Note_on_c, 0, 58, 33
1, 52067, Note_off_c, 0, 79, 58
1, 52067, Control_c, 0, 64, 35
1, 52081, Note_off_c, 0, 51, 60
1, 52082, Note_off_c, 0, 67, 56
1, 52082, Control_c, 0, 64, 45
1, 52085, Note_off_c, 0, 70, 54
1, 52091, Note_off_c, 0, 58, 49
1, 52097, Control_c, 0, 64, 55
1, 52110, Poly_aftertouch_c, 0, 63, 127
1, 52113, Control_c, 0, 64, 60
1, 52128, Control_c, 0, 64, 61
1, 52148, Poly_aftertouch_c, 0, 63, 0
1, 52261, Control_c, 0, 64, 60
1, 52276, Control_c, 0, 64, 59
1, 52298, Control_c, 0, 64, 57
1, 52313, Control_c, 0, 64, 54
1, 52316, Note_on_c, 0, 75, 69
1, 52320, Note_on_c, 0, 63, 63
1, 52324, Note_on_c, 0, 67, 55
1, 52324, Note_on_c, 0, 70, 58
1, 52328, Control_c, 0, 64, 48
1, 52336, Note_off_c, 0, 75, 67
1, 52340, Note_off_c, 0, 63, 65
1, 52342, Control_c, 0, 64, 37
1, 52343, Note_off_c, 0, 70, 62
1, 52346, Note_off_c, 0, 67, 62
1, 52357, Control_c, 0, 64, 10
1, 52372, Control_c, 0, 64, 0
1, 52387, Note_on_c, 0, 67, 61
1, 52389, Note_on_c, 0, 63, 65
1, 52389, Note_on_c, 0, 75, 76
1, 52392, Note_on_c, 0, 70, 69
1, 52409, Note_off_c, 0, 67, 65
1, 52410, Note_off_c, 0, 70, 66
1, 52410, Note_off_c, 0, 75, 70
1, 52410, Note_off_c, 0, 63, 64
1, 52548, Note_on_c, 0, 75, 74
1, 52549, Note_on_c, 0, 70, 70
1, 52550, Note_on_c, 0, 63, 53
1, 52553, Note_on_c, 0, 67, 58
1, 52565, Control_c, 0, 64, 20
1, 52580, Control_c, 0, 64, 31
1, 52580, Note_off_c, 0, 70, 63
1, 52583, Note_off_c, 0, 67, 67
1, 52585, Note_off_c, 0, 63, 64
1, 52592, Note_off_c, 0, 75, 59
1, 52595, Control_c, 0, 64, 39
1, 52610, Control_c, 0, 64, 46
1, 52624, Control_c, 0, 64, 53
1, 52639, Control_c, 0, 64, 57
1, 52654, Control_c, 0, 64, 58
1, 52728, Control_c, 0, 64, 57
1, 52739, Note_on_c, 0, 63, 80
1, 52742, Control_c, 0, 64, 57
1, 52744, Note_on_c, 0, 70, 81
1, 52749, Note_on_c, 0, 58, 63
1, 52757, Control_c, 0, 64, 56
1, 52762, Note_off_c, 0, 63, 70
1, 52762, Note_off_c, 0, 70, 73
1, 52768, Note_on_c, 0, 67, 52
1, 52768, Note_off_c, 0, 58, 65
1, 52772, Control_c, 0, 64, 55
1, 52787, Control_c, 0, 64, 51
1, 52798, Note_off_c, 0, 67, 0
1, 52802, Control_c, 0, 64, 45
1, 52815, Note_on_c, 0, 70, 84
1, 52816, Control_c, 0, 64, 31
1, 52818, Note_on_c, 0, 63, 68
1, 52822, Note_on_c, 0, 67, 45
1, 52828, Note_on_c, 0, 58, 63
1, 52831, Control_c, 0, 64, 0
1, 52834, Note_off_c, 0, 63, 70
1, 52835, Note_off_c, 0, 70, 70
1, 52844, Note_off_c, 0, 67, 62
1, 52853, Note_off_c, 0, 58, 59
1, 52980, Note_on_c, 0, 67, 72
1, 52980, Control_c, 0, 64, 16
1, 52992, Note_on_c, 0, 60, 62
1, 52995, Control_c, 0, 64, 27
1, 53000, Note_on_c, 0, 63, 61
1, 53010, Control_c, 0, 64, 35
1, 53012, Note_off_c, 0, 60, 65
1, 53021, Note_off_c, 0, 63, 62
1, 53025, Control_c, 0, 64, 42
1, 53026, Note_off_c, 0, 67, 68
1, 53047, Control_c, 0, 64, 49
1, 53062, Control_c, 0, 64, 53
1, 53077, Control_c, 0, 64, 54
1, 53136, Control_c, 0, 64, 54
1, 53165, Control_c, 0, 64, 53
1, 53180, Control_c, 0, 64, 51
1, 53191, Note_on_c, 0, 55, 66
1, 53191, Note_on_c, 0, 63, 77
1, 53192, Note_on_c, 0, 48, 67
1, 53194, Control_c, 0, 64, 48
1, 53201, Note_on_c, 0, 60, 67
1, 53209, Control_c, 0, 64, 41
1, 53212, Note_off_c, 0, 55, 67
1, 53214, Note_off_c, 0, 63, 71
1, 53221, Note_off_c, 0, 60, 65
1, 53224, Control_c, 0, 64, 25
1, 53225, Note_off_c, 0, 48, 60
1, 53238, Control_c, 0, 64, 0
1, 53261, Note_on_c, 0, 63, 76
1, 53263, Note_on_c, 0, 55, 75
1, 53267, Note_on_c, 0, 48, 59
1, 53276, Note_on_c, 0, 60, 41
1, 53283, Note_off_c, 0, 55, 68
1, 53284, Note_off_c, 0, 63, 71
1, 53291, Note_off_c, 0, 48, 63
1, 53296, Note_off_c, 0, 60, 61
1, 53451, Note_on_c, 0, 63, 63
1, 53459, Note_on_c, 0, 48, 38
1, 53465, Note_on_c, 0, 60, 38
1, 53473, Note_on_c, 0, 55, 31
1, 53519, Control_c, 0, 64, 20
1, 53534, Control_c, 0, 64, 32
1, 53549, Control_c, 0, 64, 41
1, 53564, Control_c, 0, 64, 50
1, 53579, Control_c, 0, 64, 58
1, 53594, Control_c, 0, 64, 62
1, 53609, Control_c, 0, 64, 63
1, 53621, Note_off_c, 0, 48, 47
1, 53622, Note_off_c, 0, 55, 49
1, 53624, Control_c, 0, 64, 64
1, 53639, Note_off_c, 0, 60, 36
1, 53682, Control_c, 0, 64, 64
1, 53697, Control_c, 0, 64, 65
1, 53710, Note_off_c, 0, 63, 56
1, 53713, Control_c, 0, 64, 65
1, 53728, Control_c, 0, 64, 66
1, 53758, Control_c, 0, 64, 66
1, 53868, Control_c, 0, 64, 66
1, 53883, Control_c, 0, 64, 63
1, 53898, Control_c, 0, 64, 58
1, 53913, Control_c, 0, 64, 46
1, 53928, Control_c, 0, 64, 22
1, 53943, Control_c, 0, 64, 0
1, 53982, Note_on_c, 0, 70, 66
1, 53987, Control_c, 0, 64, 26
1, 53992, Note_on_c, 0, 62, 56
1, 54000, Note_on_c, 0, 46, 44
1, 54002, Note_on_c, 0, 58, 49
1, 54002, Control_c, 0, 64, 37
1, 54005, Note_on_c, 0, 53, 37
1, 54005, Note_on_c, 0, 56, 43
1, 54017, Control_c, 0, 64, 48
1, 54031, Note_off_c, 0, 62, 63
1, 54032, Control_c, 0, 64, 56
1, 54041, Note_off_c, 0, 58, 57
1, 54045, Note_off_c, 0, 56, 57
1, 54047, Control_c, 0, 64, 61
1, 54050, Note_off_c, 0, 53, 49
1, 54052, Note_off_c, 0, 46, 54
1, 54054, Note_off_c, 0, 70, 52
1, 54062, Control_c, 0, 64, 63
1, 54092, Control_c, 0, 64, 63
1, 54121, Control_c, 0, 64, 64
1, 54136, Control_c, 0, 64, 65
1, 54151, Control_c, 0, 64, 65
1, 54166, Control_c, 0, 64, 66
1, 54190, Note_on_c, 0, 65, 72
1, 54191, Note_on_c, 0, 56, 72
1, 54196, Note_on_c, 0, 46, 63
1, 54197, Note_on_c, 0, 58, 60
1, 54199, Note_on_c, 0, 50, 64
1, 54210, Control_c, 0, 64, 64
1, 54216, Note_off_c, 0, 65, 70
1, 54217, Note_off_c, 0, 56, 68
1, 54222, Note_off_c, 0, 58, 60
1, 54225, Control_c, 0, 64, 60
1, 54239, Control_c, 0, 64, 50
1, 54254, Control_c, 0, 64, 22
1, 54259, Note_on_c, 0, 56, 80
1, 54260, Note_on_c, 0, 65, 75
1, 54263, Note_on_c, 0, 58, 52
1, 54269, Control_c, 0, 64, 0
1, 54286, Note_off_c, 0, 56, 66
1, 54295, Note_off_c, 0, 50, 56
1, 54295, Note_off_c, 0, 58, 56
1, 54297, Note_off_c, 0, 65, 65
1, 54306, Note_off_c, 0, 46, 59
1, 54408, Note_on_c, 0, 64, 77
1, 54410, Note_on_c, 0, 58, 68
1, 54414, Note_on_c, 0, 56, 62
1, 54417, Note_on_c, 0, 49, 58
1, 54440, Note_off_c, 0, 58, 67
1, 54445, Note_off_c, 0, 56, 67
1, 54453, Note_off_c, 0, 64, 61
1, 54461, Note_off_c, 0, 49, 64
1, 54549, Note_on_c, 0, 65, 76
1, 54555, Note_on_c, 0, 58, 52
1, 54558, Note_on_c, 0, 56, 63
1, 54561, Note_on_c, 0, 50, 56
1, 54576, Note_off_c, 0, 65, 69
1, 54578, Note_off_c, 0, 58, 58
1, 54588, Note_off_c, 0, 50, 63
1, 54592, Note_off_c, 0, 56, 62
1, 54696, Note_on_c, 0, 70, 80
1, 54697, Note_on_c, 0, 58, 60
1, 54710, Note_on_c, 0, 66, 51
1, 54719, Note_off_c, 0, 58, 61
1, 54729, Note_on_c, 0, 51, 50
1, 54732, Note_off_c, 0, 70, 55
1, 54733, Note_on_c, 0, 55, 45
1, 54734, Note_off_c, 0, 66, 57
1, 54763, Note_off_c, 0, 51, 61
1, 54764, Note_off_c, 0, 55, 56
1, 54881, Note_on_c, 0, 70, 65
1, 54890, Note_on_c, 0, 55, 44
1, 54903, Note_on_c, 0, 58, 40
1, 54911, Note_on_c, 0, 51, 35
1, 54914, Note_on_c, 0, 67, 42
1, 54989, Control_c, 0, 64, 24
1, 55003, Control_c, 0, 64, 38
1, 55018, Control_c, 0, 64, 49
1, 55033, Control_c, 0, 64, 60
1, 55048, Control_c, 0, 64, 64
1, 55054, Note_off_c, 0, 67, 60
1, 55055, Note_off_c, 0, 55, 52
1, 55061, Note_off_c, 0, 51, 48
1, 55062, Control_c, 0, 64, 65
1, 55083, Note_off_c, 0, 58, 45
1, 55307, Control_c, 0, 64, 64
1, 55323, Control_c, 0, 64, 63
1, 55338, Control_c, 0, 64, 61
1, 55352, Control_c, 0, 64, 57
1, 55367, Control_c, 0, 64, 49
1, 55380, Note_off_c, 0, 70, 58
1, 55382, Control_c, 0, 64, 36
1, 55391, Note_on_c, 0, 67, 58
1, 55397, Control_c, 0, 64, 20
1, 55398, Note_on_c, 0, 51, 26
1, 55406, Note_on_c, 0, 58, 44
1, 55412, Control_c, 0, 64, 20
1, 55421, Note_on_c, 0, 63, 30
1, 55427, Control_c, 0, 64, 30
1, 55441, Control_c, 0, 64, 39
1, 55454, Note_off_c, 0, 63, 53
1, 55456, Control_c, 0, 64, 49
1, 55459, Note_off_c, 0, 58, 62
1, 55464, Note_off_c, 0, 67, 65
1, 55466, Note_off_c, 0, 51, 58
1, 55471, Control_c, 0, 64, 58
1, 55485, Control_c, 0, 64, 63
1, 55500, Control_c, 0, 64, 64
1, 55619, Control_c, 0, 64, 63
1, 55633, Control_c, 0, 64, 63
1, 55663, Control_c, 0, 64, 62
1, 55678, Control_c, 0, 64, 62
1, 55692, Control_c, 0, 64, 61
1, 55707, Control_c, 0, 64, 58
1, 55722, Control_c, 0, 64, 53
1, 55737, Control_c, 0, 64, 44
1, 55752, Control_c, 0, 64, 27
1, 55767, Control_c, 0, 64, 0
1, 55782, Control_c, 0, 67, 8
1, 55797, Control_c, 0, 67, 9
1, 55812, Control_c, 0, 67, 11
1, 55826, Control_c, 0, 67, 13
1, 55841, Control_c, 0, 67, 14
1, 55852, Note_on_c, 0, 67, 57
1, 55853, Note_on_c, 0, 79, 62
1, 55856, Control_c, 0, 64, 18
1, 55856, Control_c, 0, 67, 15
1, 55856, Note_on_c, 0, 75, 53
1, 55862, Note_on_c, 0, 63, 46
1, 55862, Note_on_c, 0, 70, 44
1, 55871, Control_c, 0, 64, 30
1, 55871, Control_c, 0, 67, 16
1, 55874, Note_off_c, 0, 67, 65
1, 55877, Note_off_c, 0, 79, 65
1, 55879, Note_off_c, 0, 75, 60
1, 55885, Control_c, 0, 64, 40
1, 55885, Control_c, 0, 67, 16
1, 55889, Note_off_c, 0, 63, 55
1, 55889, Note_off_c, 0, 70, 56
1, 55900, Control_c, 0, 64, 47
1, 55915, Control_c, 0, 64, 54
1, 55930, Control_c, 0, 64, 57
1, 55945, Control_c, 0, 64, 58
1, 55989, Control_c, 0, 64, 57
1, 56004, Control_c, 0, 64, 57
1, 56004, Control_c, 0, 67, 16
1, 56019, Control_c, 0, 64, 56
1, 56019, Control_c, 0, 67, 15
1, 56041, Control_c, 0, 64, 54
1, 56041, Control_c, 0, 67, 14
1, 56056, Control_c, 0, 64, 50
1, 56056, Control_c, 0, 67, 13
1, 56058, Note_on_c, 0, 63, 65
1, 56060, Note_on_c, 0, 58, 59
1, 56063, Note_on_c, 0, 67, 59
1, 56063, Note_on_c, 0, 75, 65
1, 56064, Note_on_c, 0, 70, 54
1, 56071, Control_c, 0, 64, 44
1, 56071, Control_c, 0, 67, 12
1, 56077, Note_off_c, 0, 63, 65
1, 56081, Note_off_c, 0, 58, 62
1, 56081, Note_off_c, 0, 67, 68
1, 56082, Note_off_c, 0, 75, 61
1, 56085, Control_c, 0, 64, 32
1, 56085, Control_c, 0, 67, 11
1, 56086, Note_off_c, 0, 70, 60
1, 56100, Control_c, 0, 64, 0
1, 56116, Control_c, 0, 67, 10
1, 56125, Note_on_c, 0, 75, 81
1, 56126, Note_on_c, 0, 58, 67
1, 56130, Control_c, 0, 67, 10
1, 56131, Note_on_c, 0, 63, 71
1, 56143, Note_on_c, 0, 67, 54
1, 56145, Note_off_c, 0, 75, 68
1, 56145, Control_c, 0, 67, 9
1, 56151, Note_off_c, 0, 58, 67
1, 56151, Note_off_c, 0, 63, 68
1, 56160, Control_c, 0, 67, 8
1, 56166, Note_off_c, 0, 67, 62
1, 56175, Control_c, 0, 67, 0
1, 56275, Note_on_c, 0, 75, 74
1, 56276, Note_on_c, 0, 67, 68
1, 56282, Note_on_c, 0, 58, 53
1, 56282, Note_on_c, 0, 63, 47
1, 56288, Note_on_c, 0, 70, 59
1, 56294, Note_off_c, 0, 67, 68
1, 56294, Control_c, 0, 64, 19
1, 56298, Note_off_c, 0, 75, 68
1, 56304, Note_off_c, 0, 58, 59
1, 56307, Note_off_c, 0, 63, 55
1, 56308, Control_c, 0, 64, 33
1, 56310, Note_off_c, 0, 70, 41
1, 56323, Control_c, 0, 64, 42
1, 56338, Control_c, 0, 64, 51
1, 56353, Control_c, 0, 64, 58
1, 56368, Control_c, 0, 64, 61
1, 56382, Control_c, 0, 64, 61
1, 56450, Note_on_c, 0, 63, 76
1, 56456, Note_on_c, 0, 55, 71
1, 56456, Note_on_c, 0, 58, 65
1, 56456, Control_c, 0, 64, 60
1, 56459, Note_on_c, 0, 70, 59
1, 56460, Note_on_c, 0, 67, 61
1, 56471, Control_c, 0, 64, 55
1, 56473, Note_off_c, 0, 63, 70
1, 56477, Note_off_c, 0, 70, 65
1, 56482, Note_off_c, 0, 55, 68
1, 56484, Note_off_c, 0, 67, 67
1, 56486, Control_c, 0, 64, 44
1, 56487, Note_off_c, 0, 58, 65
1, 56501, Control_c, 0, 64, 15
1, 56515, Control_c, 0, 64, 0
1, 56517, Note_on_c, 0, 70, 82
1, 56522, Note_on_c, 0, 63, 74
1, 56527, Note_on_c, 0, 58, 75
1, 56530, Note_on_c, 0, 67, 60
1, 56532, Note_on_c, 0, 55, 73
1, 56542, Note_off_c, 0, 63, 72
1, 56551, Note_off_c, 0, 58, 69
1, 56557, Note_off_c, 0, 70, 51
1, 56562, Note_off_c, 0, 55, 64
1, 56572, Note_off_c, 0, 67, 52
1, 56679, Note_on_c, 0, 60, 71
1, 56680, Note_on_c, 0, 55, 54
1, 56681, Note_on_c, 0, 67, 76
1, 56684, Note_on_c, 0, 63, 78
1, 56694, Control_c, 0, 64, 17
1, 56704, Note_off_c, 0, 60, 70
1, 56706, Note_off_c, 0, 63, 69
1, 56708, Control_c, 0, 64, 34
1, 56711, Note_off_c, 0, 55, 67
1, 56711, Note_off_c, 0, 67, 65
1, 56723, Control_c, 0, 64, 46
1, 56738, Control_c, 0, 64, 56
1, 56753, Control_c, 0, 64, 63
1, 56768, Control_c, 0, 64, 64
1, 56878, Note_on_c, 0, 55, 58
1, 56878, Note_on_c, 0, 60, 75
1, 56879, Control_c, 0, 64, 62
1, 56881, Note_on_c, 0, 63, 68
1, 56888, Note_on_c, 0, 48, 45
1, 56894, Control_c, 0, 64, 58
1, 56897, Note_off_c, 0, 55, 64
1, 56900, Note_off_c, 0, 60, 68
1, 56901, Note_off_c, 0, 63, 63
1, 56909, Control_c, 0, 64, 50
1, 56924, Control_c, 0, 64, 37
1, 56938, Control_c, 0, 64, 0
1, 56942, Note_on_c, 0, 60, 65
1, 56942, Note_off_c, 0, 48, 0
1, 56945, Note_on_c, 0, 63, 68
1, 56957, Note_on_c, 0, 55, 63
1, 56958, Note_on_c, 0, 48, 43
1, 56959, Note_off_c, 0, 60, 68
1, 56965, Note_off_c, 0, 63, 67
1, 56979, Note_off_c, 0, 55, 64
1, 56989, Note_off_c, 0, 48, 54
1, 57137, Note_on_c, 0, 63, 73
1, 57140, Note_on_c, 0, 48, 44
1, 57145, Note_on_c, 0, 55, 34
1, 57175, Note_on_c, 0, 60, 37
1, 57175, Control_c, 0, 64, 11
1, 57186, Note_off_c, 0, 55, 65
1, 57190, Control_c, 0, 64, 27
1, 57204, Control_c, 0, 64, 41
1, 57218, Note_off_c, 0, 48, 63
1, 57219, Control_c, 0, 64, 57
1, 57234, Control_c, 0, 64, 68
1, 57249, Control_c, 0, 64, 79
1, 57263, Control_c, 0, 64, 83
1, 57278, Control_c, 0, 64, 84
1, 57293, Control_c, 0, 64, 86
1, 57308, Control_c, 0, 64, 92
1, 57316, Note_off_c, 0, 60, 61
1, 57323, Control_c, 0, 64, 117
1, 57337, Note_off_c, 0, 63, 61
1, 57338, Control_c, 0, 64, 127
1, 57597, Control_c, 0, 64, 73
1, 57612, Control_c, 0, 64, 56
1, 57627, Control_c, 0, 64, 40
1, 57642, Control_c, 0, 64, 34
1, 57647, Note_on_c, 0, 71, 72
1, 57656, Control_c, 0, 64, 41
1, 57663, Note_on_c, 0, 55, 50
1, 57663, Note_on_c, 0, 62, 58
1, 57667, Note_on_c, 0, 43, 35
1, 57670, Note_on_c, 0, 50, 38
1, 57671, Control_c, 0, 64, 50
1, 57678, Note_on_c, 0, 59, 49
1, 57686, Control_c, 0, 64, 61
1, 57702, Note_off_c, 0, 55, 65
1, 57702, Control_c, 0, 64, 71
1, 57703, Note_off_c, 0, 62, 64
1, 57706, Note_off_c, 0, 50, 55
1, 57708, Note_off_c, 0, 59, 60
1, 57717, Note_off_c, 0, 71, 63
1, 57717, Control_c, 0, 64, 80
1, 57732, Control_c, 0, 64, 81
1, 57743, Note_off_c, 0, 43, 39
1, 57791, Control_c, 0, 64, 81
1, 57806, Control_c, 0, 64, 82
1, 57821, Control_c, 0, 64, 82
1, 57848, Note_on_c, 0, 62, 72
1, 57850, Note_on_c, 0, 43, 56
1, 57850, Control_c, 0, 64, 81
1, 57852, Note_on_c, 0, 50, 49
1, 57857, Note_on_c, 0, 55, 52
1, 57857, Note_on_c, 0, 59, 60
1, 57865, Control_c, 0, 64, 75
1, 57871, Note_off_c, 0, 62, 70
1, 57880, Control_c, 0, 64, 65
1, 57880, Note_off_c, 0, 50, 52
1, 57880, Note_off_c, 0, 59, 61
1, 57886, Note_off_c, 0, 55, 0
1, 57895, Control_c, 0, 64, 50
1, 57897, Note_off_c, 0, 43, 0
1, 57910, Control_c, 0, 64, 17
1, 57910, Note_on_c, 0, 55, 41
1, 57913, Note_on_c, 0, 43, 48
1, 57913, Note_on_c, 0, 62, 89
1, 57913, Note_on_c, 0, 59, 64
1, 57916, Note_on_c, 0, 50, 59
1, 57925, Control_c, 0, 64, 0
1, 57933, Note_off_c, 0, 62, 69
1, 57939, Note_off_c, 0, 55, 66
1, 57944, Note_off_c, 0, 50, 66
1, 57946, Note_off_c, 0, 59, 66
1, 57948, Note_off_c, 0, 43, 61
1, 58051, Note_on_c, 0, 61, 87
1, 58058, Note_on_c, 0, 59, 70
1, 58060, Note_on_c, 0, 55, 58
1, 58067, Note_on_c, 0, 43, 54
1, 58071, Note_on_c, 0, 50, 42
1, 58072, Note_off_c, 0, 61, 70
1, 58083, Note_off_c, 0, 59, 66
1, 58086, Note_off_c, 0, 55, 66
1, 58095, Note_off_c, 0, 43, 57
1, 58101, Note_off_c, 0, 50, 46
1, 58178, Note_on_c, 0, 62, 89
1, 58179, Note_on_c, 0, 59, 70
1, 58181, Note_on_c, 0, 43, 64
1, 58184, Note_on_c, 0, 50, 67
1, 58184, Note_on_c, 0, 55, 61
1, 58198, Note_off_c, 0, 62, 72
1, 58207, Note_off_c, 0, 59, 66
1, 58212, Note_off_c, 0, 50, 66
1, 58213, Note_off_c, 0, 55, 67
1, 58220, Note_off_c, 0, 43, 61
1, 58319, Note_on_c, 0, 67, 90
1, 58327, Note_on_c, 0, 55, 57
1, 58329, Note_on_c, 0, 59, 58
1, 58330, Note_on_c, 0, 50, 51
1, 58332, Note_on_c, 0, 43, 57
1, 58335, Note_on_c, 0, 62, 62
1, 58348, Note_off_c, 0, 59, 62
1, 58356, Note_off_c, 0, 55, 67
1, 58356, Note_off_c, 0, 62, 62
1, 58360, Note_off_c, 0, 67, 68
1, 58363, Note_off_c, 0, 43, 62
1, 58363, Note_off_c, 0, 50, 64
1, 58492, Note_on_c, 0, 71, 92
1, 58502, Note_on_c, 0, 62, 74
1, 58511, Note_on_c, 0, 55, 62
1, 58512, Note_on_c, 0, 43, 60
1, 58512, Note_on_c, 0, 59, 57
1, 58514, Note_on_c, 0, 50, 61
1, 58570, Control_c, 0, 64, 38
1, 58584, Control_c, 0, 64, 56
1, 58599, Control_c, 0, 64, 77
1, 58614, Control_c, 0, 64, 127
1, 58676, Note_off_c, 0, 43, 55
1, 58689, Note_off_c, 0, 50, 46
1, 58692, Note_off_c, 0, 71, 60
1, 58703, Note_off_c, 0, 55, 49
1, 58731, Note_off_c, 0, 59, 40
1, 58744, Note_off_c, 0, 62, 54
1, 59058, Note_on_c, 0, 70, 91
1, 59066, Note_on_c, 0, 62, 85
1, 59068, Note_on_c, 0, 58, 83
1, 59072, Note_on_c, 0, 56, 77
1, 59074, Note_on_c, 0, 46, 72
1, 59080, Note_on_c, 0, 53, 67
1, 59110, Control_c, 0, 64, 76
1, 59125, Control_c, 0, 64, 59
1, 59140, Control_c, 0, 64, 27
1, 59155, Control_c, 0, 64, 0
1, 59228, Control_c, 0, 64, 25
1, 59236, Note_off_c, 0, 58, 63
1, 59243, Control_c, 0, 64, 46
1, 59258, Control_c, 0, 64, 63
1, 59263, Note_off_c, 0, 56, 60
1, 59273, Control_c, 0, 64, 89
1, 59284, Note_off_c, 0, 53, 59
1, 59288, Control_c, 0, 64, 127
1, 59301, Note_off_c, 0, 62, 62
1, 59328, Note_off_c, 0, 46, 36
1, 59350, Note_off_c, 0, 70, 60
1, 59600, Control_c, 0, 64, 82
1, 59615, Control_c, 0, 64, 55
1, 59630, Control_c, 0, 64, 0
1, 59670, Note_on_c, 0, 91, 92
1, 59673, Note_on_c, 0, 39, 67
1, 59673, Note_on_c, 0, 51, 75
1, 59674, Note_on_c, 0, 79, 83
1, 59675, Note_on_c, 0, 82, 82
1, 59678, Note_on_c, 0, 46, 72
1, 59689, Control_c, 0, 64, 38
1, 59704, Control_c, 0, 64, 57
1, 59706, Note_off_c, 0, 91, 64
1, 59708, Note_off_c, 0, 39, 64
1, 59709, Note_off_c, 0, 46, 64
1, 59709, Note_off_c, 0, 79, 61
1, 59711, Note_off_c, 0, 51, 60
1, 59716, Note_off_c, 0, 82, 67
1, 59719, Control_c, 0, 64, 84
1, 59733, Control_c, 0, 64, 127
1, 59906, Note_on_c, 0, 87, 79
1, 59907, Note_on_c, 0, 55, 76
1, 59913, Note_on_c, 0, 75, 65
1, 59913, Note_on_c, 0, 79, 66
1, 59916, Note_on_c, 0, 43, 58
1, 59918, Note_on_c, 0, 51, 57
1, 59926, Note_off_c, 0, 87, 72
1, 59927, Note_off_c, 0, 55, 69
1, 59930, Note_off_c, 0, 79, 66
1, 59931, Note_off_c, 0, 75, 65
1, 59943, Note_off_c, 0, 43, 55
1, 59946, Note_off_c, 0, 51, 53
1, 59973, Note_on_c, 0, 79, 84
1, 59975, Note_on_c, 0, 87, 88
1, 59978, Note_on_c, 0, 75, 77
1, 59991, Note_on_c, 0, 55, 72
1, 59999, Note_on_c, 0, 43, 55
1, 60001, Note_on_c, 0, 51, 55
1, 60007, Note_off_c, 0, 55, 69
1, 60013, Note_off_c, 0, 75, 52
1, 60021, Note_off_c, 0, 87, 61
1, 60023, Note_off_c, 0, 51, 59
1, 60038, Note_off_c, 0, 79, 44
1, 60042, Note_off_c, 0, 43, 47
1, 60120, Note_on_c, 0, 43, 72
1, 60122, Note_on_c, 0, 55, 64
1, 60122, Note_on_c, 0, 87, 86
1, 60127, Note_on_c, 0, 75, 82
1, 60128, Note_on_c, 0, 51, 50
1, 60131, Note_on_c, 0, 79, 69
1, 60149, Note_off_c, 0, 55, 67
1, 60150, Note_off_c, 0, 43, 62
1, 60152, Note_off_c, 0, 79, 68
1, 60153, Note_off_c, 0, 75, 63
1, 60155, Note_off_c, 0, 87, 61
1, 60162, Note_off_c, 0, 51, 62
1, 60287, Note_on_c, 0, 55, 70
1, 60292, Note_on_c, 0, 46, 65
1, 60295, Note_on_c, 0, 70, 83
1, 60296, Note_on_c, 0, 75, 86
1, 60304, Note_on_c, 0, 82, 73
1, 60308, Note_off_c, 0, 55, 72
1, 60315, Note_off_c, 0, 70, 71
1, 60315, Note_off_c, 0, 75, 72
1, 60316, Note_off_c, 0, 46, 59
1, 60320, Note_off_c, 0, 82, 70
1, 60355, Note_on_c, 0, 58, 84
1, 60359, Note_on_c, 0, 46, 79
1, 60359, Note_on_c, 0, 70, 88
1, 60360, Note_on_c, 0, 75, 95
1, 60362, Note_on_c, 0, 55, 73
1, 60362, Note_on_c, 0, 82, 93
1, 60399, Note_off_c, 0, 75, 57
1, 60405, Note_off_c, 0, 55, 64
1, 60406, Note_off_c, 0, 82, 63
1, 60408, Note_off_c, 0, 58, 58
1, 60409, Note_off_c, 0, 70, 60
1, 60430, Note_off_c, 0, 46, 61
1, 60467, Control_c, 0, 64, 77
1, 60482, Control_c, 0, 64, 53
1, 60497, Control_c, 0, 64, 0
1, 60512, Note_on_c, 0, 67, 93
1, 60516, Note_on_c, 0, 79, 87
1, 60517, Note_on_c, 0, 75, 88
1, 60518, Note_on_c, 0, 60, 88
1, 60528, Note_on_c, 0, 48, 80
1, 60528, Note_on_c, 0, 55, 71
1, 60549, Control_c, 0, 64, 34
1, 60556, Note_off_c, 0, 55, 67
1, 60557, Note_off_c, 0, 67, 68
1, 60557, Note_off_c, 0, 48, 66
1, 60563, Note_off_c, 0, 60, 59
1, 60563, Control_c, 0, 64, 55
1, 60566, Note_off_c, 0, 79, 63
1, 60569, Note_off_c, 0, 75, 59
1, 60578, Control_c, 0, 64, 87
1, 60593, Control_c, 0, 64, 127
1, 60700, Note_on_c, 0, 60, 71
1, 60703, Note_on_c, 0, 63, 76
1, 60703, Note_on_c, 0, 67, 84
1, 60703, Note_on_c, 0, 75, 80
1, 60704, Note_on_c, 0, 72, 78
1, 60709, Note_on_c, 0, 55, 64
1, 60722, Note_off_c, 0, 63, 69
1, 60723, Note_off_c, 0, 72, 72
1, 60724, Note_off_c, 0, 67, 67
1, 60727, Note_off_c, 0, 75, 68
1, 60727, Note_off_c, 0, 60, 67
1, 60761, Note_on_c, 0, 67, 77
1, 60764, Note_on_c, 0, 63, 97
1, 60765, Note_on_c, 0, 75, 99
1, 60769, Note_on_c, 0, 60, 85
1, 60771, Note_on_c, 0, 72, 82
1, 60797, Note_off_c, 0, 72, 62
1, 60802, Note_off_c, 0, 63, 56
1, 60813, Note_off_c, 0, 67, 61
1, 60826, Note_off_c, 0, 75, 57
1, 60840, Note_off_c, 0, 60, 59
1, 60884, Note_off_c, 0, 55, 37
1, 60948, Note_on_c, 0, 67, 88
1, 60948, Note_on_c, 0, 75, 90
1, 60950, Control_c, 0, 64, 69
1, 60953, Note_on_c, 0, 72, 86
1, 60955, Note_on_c, 0, 60, 73
1, 60956, Note_on_c, 0, 63, 85
1, 60958, Note_on_c, 0, 55, 74
1, 60965, Control_c, 0, 64, 47
1, 60979, Control_c, 0, 64, 0
1, 61024, Control_c, 0, 64, 16
1, 61039, Control_c, 0, 64, 42
1, 61053, Control_c, 0, 64, 65
1, 61067, Note_off_c, 0, 60, 61
1, 61067, Note_off_c, 0, 63, 60
1, 61068, Control_c, 0, 64, 127
1, 61086, Note_off_c, 0, 67, 62
1, 61093, Note_off_c, 0, 55, 63
1, 61101, Note_off_c, 0, 72, 62
1, 61131, Note_off_c, 0, 75, 61
1, 61292, Note_on_c, 0, 46, 66
1, 61327, Control_c, 0, 64, 86
1, 61342, Control_c, 0, 64, 55
1, 61357, Control_c, 0, 64, 18
1, 61360, Note_on_c, 0, 53, 51
1, 61372, Control_c, 0, 64, 0
1, 61386, Note_on_c, 0, 82, 87
1, 61386, Control_c, 0, 64, 18
1, 61388, Note_on_c, 0, 58, 78
1, 61389, Note_on_c, 0, 74, 80
1, 61390, Note_on_c, 0, 68, 77
1, 61400, Note_on_c, 0, 70, 65
1, 61401, Control_c, 0, 64, 39
1, 61404, Note_off_c, 0, 53, 67
1, 61407, Note_off_c, 0, 46, 64
1, 61409, Note_off_c, 0, 74, 73
1, 61416, Note_off_c, 0, 68, 63
1, 61416, Control_c, 0, 64, 55
1, 61417, Note_off_c, 0, 70, 65
1, 61419, Note_off_c, 0, 58, 63
1, 61422, Note_off_c, 0, 82, 69
1, 61431, Control_c, 0, 64, 75
1, 61445, Control_c, 0, 64, 103
1, 61460, Control_c, 0, 64, 108
1, 61550, Control_c, 0, 64, 108
1, 61565, Control_c, 0, 64, 109
1, 61579, Control_c, 0, 64, 113
1, 61583, Note_on_c, 0, 77, 87
1, 61585, Note_on_c, 0, 65, 68
1, 61586, Note_on_c, 0, 70, 80
1, 61588, Note_on_c, 0, 68, 74
1, 61591, Note_on_c, 0, 62, 58
1, 61594, Control_c, 0, 64, 122
1, 61597, Note_on_c, 0, 58, 46
1, 61602, Note_off_c, 0, 77, 68
1, 61603, Note_off_c, 0, 70, 69
1, 61607, Note_off_c, 0, 68, 62
1, 61609, Control_c, 0, 64, 127
1, 61611, Note_off_c, 0, 65, 68
1, 61612, Note_off_c, 0, 62, 63
1, 61623, Note_off_c, 0, 58, 57
1, 61649, Note_on_c, 0, 70, 90
1, 61651, Note_on_c, 0, 77, 84
1, 61656, Note_on_c, 0, 65, 77
1, 61658, Note_on_c, 0, 68, 75
1, 61660, Note_on_c, 0, 62, 73
1, 61663, Note_on_c, 0, 58, 64
1, 61676, Note_off_c, 0, 65, 73
1, 61678, Note_off_c, 0, 68, 66
1, 61685, Note_off_c, 0, 62, 66
1, 61687, Note_off_c, 0, 70, 61
1, 61689, Note_off_c, 0, 58, 64
1, 61698, Note_off_c, 0, 77, 59
1, 61714, Control_c, 0, 64, 96
1, 61728, Control_c, 0, 64, 68
1, 61743, Control_c, 0, 64, 53
1, 61758, Control_c, 0, 64, 16
1, 61773, Control_c, 0, 64, 0
1, 61786, Note_on_c, 0, 70, 86
1, 61788, Note_on_c, 0, 68, 74
1, 61788, Note_on_c, 0, 76, 82
1, 61796, Note_on_c, 0, 61, 66
1, 61803, Note_on_c, 0, 65, 58
1, 61803, Note_off_c, 0, 70, 70
1, 61806, Note_on_c, 0, 64, 56
1, 61807, Note_off_c, 0, 68, 63
1, 61812, Note_on_c, 0, 58, 37
1, 61822, Note_off_c, 0, 61, 67
1, 61825, Note_off_c, 0, 65, 62
1, 61827, Note_off_c, 0, 76, 59
1, 61827, Note_off_c, 0, 64, 61
1, 61840, Note_off_c, 0, 58, 52
1, 61894, Note_on_c, 0, 70, 88
1, 61895, Note_on_c, 0, 77, 82
1, 61898, Note_on_c, 0, 68, 73
1, 61907, Note_on_c, 0, 58, 76
1, 61911, Note_on_c, 0, 65, 67
1, 61914, Note_off_c, 0, 70, 68
1, 61915, Note_on_c, 0, 62, 44
1, 61916, Note_off_c, 0, 68, 63
1, 61927, Note_off_c, 0, 77, 62
1, 61934, Note_off_c, 0, 58, 65
1, 61940, Note_off_c, 0, 65, 68
1, 61957, Note_off_c, 0, 62, 64
1, 62033, Note_on_c, 0, 68, 76
1, 62037, Note_on_c, 0, 58, 72
1, 62038, Note_on_c, 0, 82, 81
1, 62042, Note_on_c, 0, 66, 58
1, 62054, Note_on_c, 0, 70, 46
1, 62055, Note_off_c, 0, 70, 127
1, 62057, Note_off_c, 0, 82, 72
1, 62057, Note_off_c, 0, 58, 66
1, 62058, Note_off_c, 0, 68, 66
1, 62062, Note_off_c, 0, 66, 60
1, 62128, Note_on_c, 0, 51, 69
1, 62162, Note_on_c, 0, 58, 56
1, 62173, Note_off_c, 0, 51, 63
1, 62212, Note_on_c, 0, 82, 92
1, 62217, Note_on_c, 0, 79, 77
1, 62218, Note_on_c, 0, 67, 86
1, 62218, Note_on_c, 0, 70, 86
1, 62224, Control_c, 0, 64, 16
1, 62239, Control_c, 0, 64, 37
1, 62247, Note_off_c, 0, 67, 65
1, 62253, Control_c, 0, 64, 54
1, 62268, Control_c, 0, 64, 72
1, 62279, Note_off_c, 0, 58, 64
1, 62283, Control_c, 0, 64, 127
1, 62313, Note_off_c, 0, 79, 58
1, 62349, Note_off_c, 0, 82, 62
1, 62366, Note_off_c, 0, 70, 60
1, 62719, Note_on_c, 0, 79, 67
1, 62736, Note_on_c, 0, 70, 60
1, 62744, Note_on_c, 0, 63, 43
1, 62745, Note_on_c, 0, 58, 50
1, 62745, Note_on_c, 0, 67, 40
1, 62753, Note_on_c, 0, 51, 49
1, 62766, Note_off_c, 0, 70, 65
1, 62780, Note_off_c, 0, 63, 61
1, 62784, Note_off_c, 0, 67, 54
1, 62787, Note_off_c, 0, 58, 65
1, 62796, Note_off_c, 0, 51, 62
1, 62798, Note_off_c, 0, 79, 63
1, 63032, Control_c, 0, 64, 77
1, 63047, Control_c, 0, 64, 58
1, 63062, Control_c, 0, 64, 0
1, 63136, Control_c, 0, 64, 16
1, 63150, Control_c, 0, 64, 42
1, 63156, Note_on_c, 0, 51, 62
1, 63156, Note_on_c, 0, 39, 60
1, 63158, Note_on_c, 0, 87, 76
1, 63158, Note_on_c, 0, 99, 82
1, 63161, Note_on_c, 0, 91, 78
1, 63165, Control_c, 0, 64, 59
1, 63170, Note_on_c, 0, 46, 53
1, 63180, Note_off_c, 0, 99, 69
1, 63180, Control_c, 0, 64, 82
1, 63183, Note_off_c, 0, 91, 67
1, 63186, Note_off_c, 0, 87, 66
1, 63187, Note_off_c, 0, 51, 66
1, 63192, Note_off_c, 0, 39, 63
1, 63195, Control_c, 0, 64, 127
1, 63198, Note_off_c, 0, 46, 55
1, 63350, Note_on_c, 0, 43, 65
1, 63354, Note_on_c, 0, 51, 60
1, 63354, Note_on_c, 0, 94, 73
1, 63355, Note_on_c, 0, 87, 68
1, 63356, Note_on_c, 0, 82, 66
1, 63358, Note_on_c, 0, 55, 51
1, 63368, Note_off_c, 0, 94, 69
1, 63371, Note_off_c, 0, 87, 68
1, 63373, Note_off_c, 0, 82, 67
1, 63374, Note_off_c, 0, 43, 59
1, 63377, Note_off_c, 0, 51, 60
1, 63383, Note_off_c, 0, 55, 59
1, 63404, Note_on_c, 0, 94, 94
1, 63406, Note_on_c, 0, 82, 76
1, 63407, Note_on_c, 0, 87, 85
1, 63419, Note_on_c, 0, 55, 69
1, 63422, Note_on_c, 0, 43, 71
1, 63434, Note_on_c, 0, 51, 56
1, 63446, Note_off_c, 0, 55, 67
1, 63448, Note_off_c, 0, 94, 65
1, 63449, Note_off_c, 0, 87, 64
1, 63453, Note_off_c, 0, 82, 63
1, 63454, Note_off_c, 0, 43, 60
1, 63459, Note_off_c, 0, 51, 57
1, 63559, Note_on_c, 0, 87, 88
1, 63561, Note_on_c, 0, 94, 92
1, 63562, Note_on_c, 0, 82, 81
1, 63564, Note_on_c, 0, 55, 71
1, 63566, Note_on_c, 0, 51, 60
1, 63567, Note_on_c, 0, 43, 62
1, 63578, Note_off_c, 0, 87, 68
1, 63585, Note_off_c, 0, 82, 66
1, 63586, Note_off_c, 0, 55, 71
1, 63591, Note_off_c, 0, 94, 63
1, 63593, Note_off_c, 0, 43, 65
1, 63598, Note_off_c, 0, 51, 64
1, 63720, Note_on_c, 0, 55, 65
1, 63726, Note_on_c, 0, 46, 63
1, 63727, Note_on_c, 0, 87, 90
1, 63730, Note_on_c, 0, 79, 86
1, 63733, Note_on_c, 0, 91, 80
1, 63745, Note_off_c, 0, 87, 73
1, 63750, Note_off_c, 0, 79, 70
1, 63753, Note_off_c, 0, 91, 67
1, 63756, Note_off_c, 0, 55, 62
1, 63785, Note_on_c, 0, 58, 78
1, 63788, Note_on_c, 0, 79, 92
1, 63790, Note_on_c, 0, 55, 68
1, 63791, Note_on_c, 0, 91, 99
1, 63791, Note_on_c, 0, 87, 95
1, 63821, Note_on_c, 0, 49, 30
1, 63831, Note_off_c, 0, 79, 58
1, 63842, Note_off_c, 0, 87, 59
1, 63843, Note_off_c, 0, 91, 57
1, 63851, Note_off_c, 0, 55, 56
1, 63860, Note_off_c, 0, 49, 44
1, 63860, Note_off_c, 0, 58, 61
1, 63863, Note_off_c, 0, 46, 62
1, 63885, Control_c, 0, 64, 92
1, 63899, Control_c, 0, 64, 57
1, 63914, Control_c, 0, 64, 0
1, 63940, Note_on_c, 0, 87, 92
1, 63941, Note_on_c, 0, 79, 92
1, 63943, Note_on_c, 0, 91, 95
1, 63944, Control_c, 0, 64, 22
1, 63949, Note_on_c, 0, 60, 85
1, 63952, Note_on_c, 0, 48, 81
1, 63954, Note_on_c, 0, 55, 73
1, 63959, Control_c, 0, 64, 44
1, 63971, Note_off_c, 0, 87, 68
1, 63973, Note_off_c, 0, 79, 62
1, 63973, Control_c, 0, 64, 64
1, 63979, Note_off_c, 0, 48, 68
1, 63980, Note_off_c, 0, 55, 68
1, 63981, Note_off_c, 0, 60, 55
1, 63981, Note_off_c, 0, 91, 56
1, 63988, Control_c, 0, 64, 127
1, 64119, Note_on_c, 0, 75, 96
1, 64119, Note_on_c, 0, 60, 72
1, 64120, Note_on_c, 0, 84, 84
1, 64122, Note_on_c, 0, 55, 62
1, 64123, Note_on_c, 0, 87, 81
1, 64124, Note_on_c, 0, 63, 78
1, 64136, Note_off_c, 0, 75, 71
1, 64143, Note_off_c, 0, 87, 73
1, 64144, Note_off_c, 0, 84, 66
1, 64145, Note_off_c, 0, 63, 71
1, 64147, Note_off_c, 0, 60, 68
1, 64152, Note_off_c, 0, 55, 65
1, 64179, Note_on_c, 0, 87, 91
1, 64183, Note_on_c, 0, 75, 93
1, 64184, Note_on_c, 0, 84, 85
1, 64185, Note_on_c, 0, 63, 99
1, 64186, Note_on_c, 0, 55, 79
1, 64188, Note_on_c, 0, 60, 84
1, 64242, Note_off_c, 0, 63, 55
1, 64256, Note_off_c, 0, 75, 57
1, 64260, Note_off_c, 0, 87, 60
1, 64281, Note_off_c, 0, 55, 55
1, 64283, Note_off_c, 0, 84, 56
1, 64289, Note_off_c, 0, 60, 62
1, 64367, Control_c, 0, 64, 91
1, 64370, Note_on_c, 0, 87, 91
1, 64374, Note_on_c, 0, 75, 99
1, 64376, Note_on_c, 0, 63, 93
1, 64378, Note_on_c, 0, 84, 87
1, 64379, Note_on_c, 0, 55, 75
1, 64379, Note_on_c, 0, 60, 83
1, 64382, Control_c, 0, 64, 55
1, 64397, Control_c, 0, 64, 0
1, 64442, Control_c, 0, 64, 38
1, 64456, Control_c, 0, 64, 60
1, 64471, Control_c, 0, 64, 127
1, 64491, Note_off_c, 0, 75, 65
1, 64500, Note_off_c, 0, 60, 64
1, 64500, Note_off_c, 0, 63, 60
1, 64514, Note_off_c, 0, 84, 61
1, 64525, Note_off_c, 0, 55, 64
1, 64548, Note_off_c, 0, 87, 64
1, 64753, Control_c, 0, 64, 83
1, 64767, Control_c, 0, 64, 57
1, 64782, Control_c, 0, 64, 21
1, 64797, Control_c, 0, 64, 14
1, 64800, Note_on_c, 0, 95, 96
1, 64801, Note_on_c, 0, 83, 87
1, 64802, Note_on_c, 0, 86, 92
1, 64805, Note_on_c, 0, 43, 74
1, 64805, Note_on_c, 0, 50, 80
1, 64805, Note_on_c, 0, 55, 81
1, 64812, Control_c, 0, 64, 36
1, 64827, Control_c, 0, 64, 53
1, 64828, Note_off_c, 0, 50, 67
1, 64834, Note_off_c, 0, 86, 67
1, 64835, Note_off_c, 0, 43, 64
1, 64837, Note_off_c, 0, 95, 67
1, 64838, Note_off_c, 0, 55, 62
1, 64840, Note_off_c, 0, 83, 65
1, 64841, Control_c, 0, 64, 72
1, 64856, Control_c, 0, 64, 127
1, 64986, Note_on_c, 0, 74, 76
1, 64987, Note_on_c, 0, 83, 80
1, 64995, Note_on_c, 0, 86, 69
1, 64996, Note_on_c, 0, 59, 66
1, 65005, Note_on_c, 0, 62, 55
1, 65006, Note_off_c, 0, 74, 73
1, 65006, Note_off_c, 0, 83, 73
1, 65011, Note_off_c, 0, 86, 65
1, 65024, Note_off_c, 0, 59, 66
1, 65031, Note_on_c, 0, 55, 24
1, 65035, Note_off_c, 0, 62, 60
1, 65063, Note_on_c, 0, 62, 83
1, 65063, Note_on_c, 0, 74, 83
1, 65064, Note_off_c, 0, 55, 0
1, 65064, Note_on_c, 0, 55, 37
1, 65066, Note_on_c, 0, 83, 81
1, 65067, Note_on_c, 0, 59, 79
1, 65070, Note_on_c, 0, 86, 83
1, 65085, Note_off_c, 0, 83, 71
1, 65085, Note_off_c, 0, 74, 69
1, 65088, Note_off_c, 0, 86, 70
1, 65097, Note_off_c, 0, 59, 67
1, 65105, Note_off_c, 0, 55, 67
1, 65105, Note_off_c, 0, 62, 56
1, 65194, Note_on_c, 0, 82, 85
1, 65195, Note_on_c, 0, 73, 88
1, 65197, Note_on_c, 0, 85, 83
1, 65201, Note_on_c, 0, 61, 76
1, 65207, Note_on_c, 0, 58, 74
1, 65213, Note_off_c, 0, 73, 74
1, 65215, Note_off_c, 0, 85, 69
1, 65221, Note_on_c, 0, 62, 51
1, 65222, Note_off_c, 0, 82, 59
1, 65231, Note_off_c, 0, 61, 62
1, 65235, Note_off_c, 0, 58, 67
1, 65240, Note_off_c, 0, 62, 66
1, 65264, Control_c, 0, 64, 78
1, 65279, Control_c, 0, 64, 59
1, 65294, Control_c, 0, 64, 38
1, 65309, Control_c, 0, 64, 0
1, 65316, Note_on_c, 0, 59, 76
1, 65318, Note_on_c, 0, 86, 91
1, 65321, Note_on_c, 0, 74, 81
1, 65330, Note_on_c, 0, 62, 38
1, 65330, Note_on_c, 0, 83, 67
1, 65336, Note_off_c, 0, 86, 71
1, 65337, Note_off_c, 0, 59, 69
1, 65339, Note_off_c, 0, 74, 74
1, 65346, Note_off_c, 0, 83, 67
1, 65361, Note_off_c, 0, 62, 33
1, 65427, Note_on_c, 0, 62, 78
1, 65431, Note_on_c, 0, 89, 92
1, 65434, Note_on_c, 0, 83, 71
1, 65436, Note_on_c, 0, 67, 67
1, 65440, Note_on_c, 0, 55, 64
1, 65443, Note_on_c, 0, 77, 60
1, 65446, Note_off_c, 0, 89, 75
1, 65450, Note_on_c, 0, 79, 51
1, 65451, Note_off_c, 0, 79, 127
1, 65451, Note_off_c, 0, 62, 68
1, 65451, Note_off_c, 0, 83, 69
1, 65454, Note_off_c, 0, 67, 68
1, 65461, Note_off_c, 0, 55, 67
1, 65464, Note_off_c, 0, 77, 62
1, 65485, Note_on_c, 0, 91, 12
1, 65486, Note_off_c, 0, 91, 127
1, 65571, Note_on_c, 0, 83, 77
1, 65573, Note_on_c, 0, 86, 86
1, 65573, Note_on_c, 0, 95, 98
1, 65574, Note_on_c, 0, 59, 81
1, 65575, Note_on_c, 0, 47, 83
1, 65575, Control_c, 0, 64, 26
1, 65587, Note_off_c, 0, 95, 75
1, 65589, Note_off_c, 0, 86, 73
1, 65589, Control_c, 0, 64, 46
1, 65591, Note_off_c, 0, 83, 71
1, 65592, Note_on_c, 0, 54, 48
1, 65594, Note_off_c, 0, 59, 69
1, 65597, Note_off_c, 0, 47, 69
1, 65604, Control_c, 0, 64, 63
1, 65619, Note_off_c, 0, 54, 60
1, 65619, Control_c, 0, 64, 89
1, 65634, Control_c, 0, 64, 127
1, 65752, Note_on_c, 0, 78, 86
1, 65754, Note_on_c, 0, 66, 82
1, 65756, Note_on_c, 0, 90, 82
1, 65768, Note_on_c, 0, 59, 69
1, 65768, Note_on_c, 0, 62, 68
1, 65768, Note_on_c, 0, 86, 73
1, 65772, Note_on_c, 0, 85, 38
1, 65776, Note_off_c, 0, 78, 75
1, 65782, Note_off_c, 0, 66, 69
1, 65783, Note_off_c, 0, 90, 71
1, 65784, Note_off_c, 0, 86, 68
1, 65795, Note_off_c, 0, 62, 66
1, 65798, Note_off_c, 0, 59, 60
1, 65802, Note_off_c, 0, 85, 39
1, 65823, Note_on_c, 0, 90, 90
1, 65824, Note_on_c, 0, 78, 87
1, 65827, Note_on_c, 0, 66, 90
1, 65835, Note_on_c, 0, 86, 79
1, 65836, Note_on_c, 0, 59, 68
1, 65846, Note_off_c, 0, 66, 65
1, 65848, Note_on_c, 0, 62, 69
1, 65854, Note_off_c, 0, 78, 56
1, 65865, Note_off_c, 0, 86, 55
1, 65867, Note_off_c, 0, 90, 62
1, 65868, Note_off_c, 0, 59, 64
1, 65870, Note_off_c, 0, 62, 64
1, 65923, Control_c, 0, 64, 86
1, 65938, Control_c, 0, 64, 64
1, 65953, Control_c, 0, 64, 47
1, 65967, Control_c, 0, 64, 14
1, 65982, Control_c, 0, 64, 0
1, 65998, Note_on_c, 0, 62, 48
1, 66000, Note_on_c, 0, 59, 53
1, 66000, Note_on_c, 0, 90, 86
1, 66001, Note_on_c, 0, 78, 86
1, 66001, Note_on_c, 0, 86, 70
1, 66007, Note_on_c, 0, 66, 77
1, 66012, Control_c, 0, 64, 9
1, 66027, Control_c, 0, 64, 31
1, 66042, Control_c, 0, 64, 47
1, 66057, Control_c, 0, 64, 63
1, 66072, Control_c, 0, 64, 87
1, 66086, Control_c, 0, 64, 127
1, 66091, Note_off_c, 0, 66, 62
1, 66104, Note_off_c, 0, 62, 62
1, 66108, Note_off_c, 0, 78, 65
1, 66115, Note_off_c, 0, 59, 63
1, 66132, Note_off_c, 0, 86, 62
1, 66146, Note_off_c, 0, 90, 66
1, 66367, Control_c, 0, 64, 75
1, 66382, Control_c, 0, 64, 57
1, 66397, Control_c, 0, 64, 33
1, 66408, Note_on_c, 0, 94, 88
1, 66409, Note_on_c, 0, 82, 80
1, 66409, Note_on_c, 0, 85, 84
1, 66412, Note_on_c, 0, 54, 73
1, 66412, Control_c, 0, 64, 29
1, 66414, Note_on_c, 0, 49, 69
1, 66415, Note_on_c, 0, 42, 58
1, 66427, Note_off_c, 0, 94, 73
1, 66427, Control_c, 0, 64, 41
1, 66429, Note_off_c, 0, 85, 69
1, 66435, Note_off_c, 0, 49, 65
1, 66435, Note_off_c, 0, 82, 67
1, 66437, Note_off_c, 0, 54, 67
1, 66441, Control_c, 0, 64, 54
1, 66448, Note_off_c, 0, 42, 62
1, 66456, Control_c, 0, 64, 67
1, 66471, Control_c, 0, 64, 92
1, 66487, Control_c, 0, 64, 127
1, 66595, Note_on_c, 0, 58, 70
1, 66596, Note_on_c, 0, 73, 74
1, 66597, Note_on_c, 0, 85, 70
1, 66599, Note_on_c, 0, 82, 68
1, 66612, Note_off_c, 0, 73, 69
1, 66612, Note_off_c, 0, 85, 67
1, 66615, Note_on_c, 0, 61, 47
1, 66617, Note_off_c, 0, 82, 66
1, 66623, Note_on_c, 0, 54, 31
1, 66625, Note_off_c, 0, 58, 64
1, 66642, Note_off_c, 0, 61, 0
1, 66654, Note_on_c, 0, 61, 76
1, 66659, Note_on_c, 0, 73, 85
1, 66659, Note_on_c, 0, 82, 80
1, 66660, Note_on_c, 0, 85, 87
1, 66662, Note_off_c, 0, 54, 0
1, 66662, Note_on_c, 0, 54, 28
1, 66662, Note_on_c, 0, 58, 76
1, 66683, Note_off_c, 0, 61, 63
1, 66700, Note_off_c, 0, 73, 57
1, 66704, Note_off_c, 0, 58, 58
1, 66706, Note_off_c, 0, 54, 63
1, 66707, Note_off_c, 0, 85, 59
1, 66716, Note_off_c, 0, 82, 63
1, 66776, Control_c, 0, 64, 76
1, 66789, Note_on_c, 0, 60, 65
1, 66790, Control_c, 0, 64, 53
1, 66793, Note_on_c, 0, 84, 89
1, 66794, Note_on_c, 0, 57, 66
1, 66795, Note_on_c, 0, 72, 81
1, 66800, Note_on_c, 0, 81, 75
1, 66805, Control_c, 0, 64, 21
1, 66814, Note_off_c, 0, 72, 72
1, 66820, Control_c, 0, 64, 0
1, 66821, Note_off_c, 0, 84, 61
1, 66823, Note_off_c, 0, 60, 65
1, 66825, Note_off_c, 0, 81, 69
1, 66826, Note_off_c, 0, 57, 64
1, 66904, Note_on_c, 0, 85, 90
1, 66910, Note_on_c, 0, 73, 73
1, 66914, Note_on_c, 0, 82, 65
1, 66918, Note_on_c, 0, 58, 66
1, 66925, Note_off_c, 0, 85, 63
1, 66926, Note_off_c, 0, 73, 70
1, 66933, Note_off_c, 0, 82, 65
1, 66942, Note_off_c, 0, 58, 65
1, 66945, Note_on_c, 0, 54, 22
1, 66946, Note_off_c, 0, 54, 127
1, 66951, Note_on_c, 0, 63, 18
1, 66952, Note_off_c, 0, 63, 127
1, 67026, Note_on_c, 0, 78, 89
1, 67026, Note_on_c, 0, 90, 95
1, 67027, Note_on_c, 0, 82, 75
1, 67034, Note_on_c, 0, 61, 66
1, 67035, Note_on_c, 0, 66, 66
1, 67042, Note_off_c, 0, 90, 74
1, 67043, Note_off_c, 0, 78, 76
1, 67050, Note_off_c, 0, 82, 69
1, 67052, Note_off_c, 0, 66, 64
1, 67057, Note_on_c, 0, 54, 45
1, 67061, Note_off_c, 0, 61, 67
1, 67078, Note_off_c, 0, 54, 37
1, 67146, Control_c, 0, 64, 17
1, 67161, Note_on_c, 0, 82, 84
1, 67161, Control_c, 0, 64, 38
1, 67163, Note_on_c, 0, 94, 90
1, 67164, Note_on_c, 0, 58, 87
1, 67172, Note_on_c, 0, 46, 75
1, 67175, Control_c, 0, 64, 54
1, 67182, Note_off_c, 0, 94, 73
1, 67183, Note_off_c, 0, 82, 70
1, 67185, Note_on_c, 0, 85, 43
1, 67185, Note_off_c, 0, 58, 71
1, 67190, Control_c, 0, 64, 69
1, 67191, Note_off_c, 0, 46, 65
1, 67196, Note_on_c, 0, 53, 32
1, 67205, Control_c, 0, 64, 90
1, 67211, Note_off_c, 0, 85, 57
1, 67220, Control_c, 0, 64, 96
1, 67234, Note_off_c, 0, 53, 54
1, 67347, Control_c, 0, 64, 95
1, 67355, Note_on_c, 0, 58, 73
1, 67358, Note_on_c, 0, 65, 70
1, 67361, Note_on_c, 0, 77, 87
1, 67365, Note_on_c, 0, 85, 75
1, 67366, Note_on_c, 0, 89, 75
1, 67374, Note_on_c, 0, 61, 46
1, 67377, Note_off_c, 0, 65, 70
1, 67378, Note_off_c, 0, 58, 70
1, 67378, Note_off_c, 0, 85, 69
1, 67379, Note_off_c, 0, 77, 73
1, 67380, Note_off_c, 0, 89, 71
1, 67421, Note_off_c, 0, 61, 0
1, 67423, Note_on_c, 0, 77, 91
1, 67425, Note_on_c, 0, 58, 80
1, 67425, Note_on_c, 0, 65, 86
1, 67425, Note_on_c, 0, 85, 90
1, 67430, Note_on_c, 0, 89, 91
1, 67434, Note_on_c, 0, 61, 54
1, 67449, Note_off_c, 0, 77, 63
1, 67451, Note_off_c, 0, 65, 64
1, 67451, Note_off_c, 0, 89, 69
1, 67458, Note_off_c, 0, 85, 54
1, 67465, Note_off_c, 0, 58, 56
1, 67465, Note_off_c, 0, 61, 66
1, 67465, Control_c, 0, 64, 95
1, 67495, Control_c, 0, 64, 94
1, 67510, Control_c, 0, 64, 92
1, 67525, Control_c, 0, 64, 85
1, 67539, Control_c, 0, 64, 71
1, 67554, Control_c, 0, 64, 59
1, 67569, Control_c, 0, 64, 43
1, 67584, Control_c, 0, 64, 19
1, 67586, Note_on_c, 0, 89, 90
1, 67587, Note_on_c, 0, 77, 87
1, 67588, Note_on_c, 0, 65, 74
1, 67589, Note_on_c, 0, 58, 65
1, 67589, Note_on_c, 0, 85, 81
1, 67594, Note_on_c, 0, 61, 58
1, 67598, Control_c, 0, 64, 8
1, 67613, Control_c, 0, 64, 22
1, 67628, Control_c, 0, 64, 34
1, 67643, Control_c, 0, 64, 48
1, 67658, Control_c, 0, 64, 60
1, 67665, Note_off_c, 0, 65, 63
1, 67673, Control_c, 0, 64, 70
1, 67687, Control_c, 0, 64, 77
1, 67689, Note_off_c, 0, 61, 64
1, 67699, Note_off_c, 0, 77, 58
1, 67701, Note_off_c, 0, 58, 63
1, 67720, Note_off_c, 0, 89, 64
1, 67728, Note_off_c, 0, 85, 62
1, 67732, Control_c, 0, 64, 77
1, 67747, Control_c, 0, 64, 78
1, 67762, Control_c, 0, 64, 79
1, 67777, Control_c, 0, 64, 80
1, 67791, Control_c, 0, 64, 82
1, 67806, Control_c, 0, 64, 84
1, 67821, Control_c, 0, 64, 88
1, 67836, Control_c, 0, 64, 93
1, 67851, Control_c, 0, 64, 97
1, 67865, Control_c, 0, 64, 100
1, 67880, Control_c, 0, 64, 103
1, 67895, Control_c, 0, 64, 103
1, 67925, Control_c, 0, 64, 86
1, 67939, Control_c, 0, 64, 66
1, 67954, Control_c, 0, 64, 51
1, 67969, Control_c, 0, 64, 27
1, 67979, Note_on_c, 0, 81, 79
1, 67979, Note_on_c, 0, 84, 80
1, 67979, Note_on_c, 0, 93, 83
1, 67984, Control_c, 0, 64, 27
1, 67986, Note_on_c, 0, 53, 65
1, 67989, Note_on_c, 0, 41, 59
1, 67998, Note_off_c, 0, 84, 72
1, 67998, Note_off_c, 0, 93, 71
1, 67999, Control_c, 0, 64, 39
1, 68002, Note_off_c, 0, 81, 69
1, 68016, Note_on_c, 0, 48, 33
1, 68021, Note_off_c, 0, 53, 67
1, 68021, Control_c, 0, 64, 54
1, 68026, Note_off_c, 0, 41, 56
1, 68036, Control_c, 0, 64, 65
1, 68051, Control_c, 0, 64, 72
1, 68052, Note_off_c, 0, 48, 55
1, 68081, Control_c, 0, 64, 70
1, 68096, Control_c, 0, 64, 66
1, 68111, Control_c, 0, 64, 60
1, 68126, Control_c, 0, 64, 46
1, 68141, Control_c, 0, 64, 19
1, 68156, Control_c, 0, 64, 0
1, 68167, Note_on_c, 0, 81, 68
1, 68168, Note_on_c, 0, 57, 67
1, 68170, Note_on_c, 0, 72, 68
1, 68171, Note_on_c, 0, 84, 65
1, 68181, Note_on_c, 0, 60, 45
1, 68184, Note_off_c, 0, 81, 68
1, 68186, Note_off_c, 0, 72, 67
1, 68189, Note_off_c, 0, 84, 64
1, 68195, Note_off_c, 0, 57, 66
1, 68201, Note_off_c, 0, 60, 0
1, 68221, Note_on_c, 0, 60, 55
1, 68226, Note_on_c, 0, 84, 74
1, 68229, Note_on_c, 0, 81, 73
1, 68230, Note_on_c, 0, 57, 76
1, 68230, Note_on_c, 0, 72, 65
1, 68245, Note_off_c, 0, 81, 71
1, 68247, Note_off_c, 0, 72, 65
1, 68249, Note_off_c, 0, 84, 68
1, 68252, Note_off_c, 0, 57, 68
1, 68252, Note_off_c, 0, 60, 66
1, 68378, Control_c, 0, 64, 27
1, 68389, Note_on_c, 0, 76, 83
1, 68390, Note_on_c, 0, 88, 81
1, 68393, Control_c, 0, 64, 41
1, 68394, Note_on_c, 0, 45, 62
1, 68400, Note_on_c, 0, 57, 41
1, 68403, Note_on_c, 0, 84, 50
1, 68407, Note_off_c, 0, 76, 74
1, 68408, Control_c, 0, 64, 57
1, 68409, Note_off_c, 0, 88, 73
1, 68418, Note_off_c, 0, 45, 60
1, 68422, Control_c, 0, 64, 69
1, 68427, Note_off_c, 0, 84, 60
1, 68432, Note_off_c, 0, 57, 56
1, 68437, Control_c, 0, 64, 82
1, 68451, Poly_aftertouch_c, 0, 52, 127
1, 68452, Control_c, 0, 64, 84
1, 68481, Poly_aftertouch_c, 0, 52, 0
1, 68482, Control_c, 0, 64, 86
1, 68496, Control_c, 0, 64, 91
1, 68511, Control_c, 0, 64, 98
1, 68526, Control_c, 0, 64, 99
1, 68541, Control_c, 0, 64, 93
1, 68542, Note_on_c, 0, 75, 82
1, 68543, Note_on_c, 0, 87, 78
1, 68544, Note_on_c, 0, 59, 78
1, 68556, Control_c, 0, 64, 74
1, 68560, Note_off_c, 0, 75, 70
1, 68564, Note_off_c, 0, 87, 72
1, 68565, Note_on_c, 0, 64, 64
1, 68570, Control_c, 0, 64, 60
1, 68572, Note_on_c, 0, 63, 23
1, 68582, Note_on_c, 0, 57, 38
1, 68585, Control_c, 0, 64, 38
1, 68588, Note_on_c, 0, 83, 12
1, 68600, Control_c, 0, 64, 0
1, 68602, Note_on_c, 0, 76, 85
1, 68603, Note_on_c, 0, 60, 75
1, 68605, Note_on_c, 0, 88, 75
1, 68609, Note_on_c, 0, 86, 74
1, 68610, Note_off_c, 0, 63, 36
1, 68616, Note_off_c, 0, 59, 67
1, 68617, Note_off_c, 0, 64, 65
1, 68621, Note_off_c, 0, 76, 70
1, 68625, Note_off_c, 0, 60, 70
1, 68627, Note_off_c, 0, 88, 70
1, 68628, Note_off_c, 0, 57, 66
1, 68630, Note_off_c, 0, 86, 68
1, 68639, Note_off_c, 0, 83, 52
1, 68770, Control_c, 0, 64, 25
1, 68772, Note_on_c, 0, 92, 91
1, 68772, Note_on_c, 0, 83, 71
1, 68774, Note_on_c, 0, 80, 84
1, 68777, Note_on_c, 0, 40, 73
1, 68785, Control_c, 0, 64, 36
1, 68790, Note_on_c, 0, 52, 63
1, 68795, Note_off_c, 0, 83, 70
1, 68800, Control_c, 0, 64, 50
1, 68802, Note_off_c, 0, 80, 63
1, 68804, Note_off_c, 0, 40, 68
1, 68810, Note_off_c, 0, 92, 65
1, 68811, Note_off_c, 0, 52, 64
1, 68814, Control_c, 0, 64, 61
1, 68820, Note_on_c, 0, 84, 21
1, 68821, Note_off_c, 0, 84, 127
1, 68829, Control_c, 0, 64, 67
1, 68844, Control_c, 0, 64, 72
1, 68859, Control_c, 0, 64, 74
1, 68874, Control_c, 0, 64, 76
1, 68890, Control_c, 0, 64, 80
1, 68905, Control_c, 0, 64, 85
1, 68919, Control_c, 0, 64, 87
1, 68934, Control_c, 0, 64, 86
1, 68939, Note_on_c, 0, 56, 71
1, 68942, Note_on_c, 0, 59, 64
1, 68949, Control_c, 0, 64, 71
1, 68954, Note_on_c, 0, 80, 55
1, 68955, Note_on_c, 0, 71, 53
1, 68957, Note_off_c, 0, 56, 67
1, 68957, Note_on_c, 0, 83, 53
1, 68960, Note_off_c, 0, 59, 64
1, 68964, Control_c, 0, 64, 57
1, 68974, Note_off_c, 0, 80, 63
1, 68976, Note_off_c, 0, 71, 0
1, 68979, Control_c, 0, 64, 20
1, 68984, Note_off_c, 0, 83, 0
1, 68993, Note_on_c, 0, 71, 69
1, 68993, Control_c, 0, 64, 0
1, 68998, Note_on_c, 0, 80, 80
1, 68999, Note_on_c, 0, 83, 64
1, 69001, Note_on_c, 0, 56, 91
1, 69008, Note_on_c, 0, 59, 73
1, 69020, Note_off_c, 0, 56, 72
1, 69020, Note_off_c, 0, 71, 68
1, 69023, Note_off_c, 0, 80, 64
1, 69024, Note_off_c, 0, 83, 70
1, 69026, Note_off_c, 0, 59, 67
1, 69154, Note_on_c, 0, 75, 95
1, 69156, Note_on_c, 0, 87, 88
1, 69157, Note_on_c, 0, 51, 77
1, 69157, Control_c, 0, 64, 38
1, 69158, Note_on_c, 0, 44, 64
1, 69158, Note_on_c, 0, 56, 78
1, 69164, Note_on_c, 0, 83, 67
1, 69172, Control_c, 0, 64, 58
1, 69179, Note_off_c, 0, 51, 65
1, 69181, Note_off_c, 0, 44, 62
1, 69181, Note_off_c, 0, 56, 71
1, 69184, Note_on_c, 0, 85, 54
1, 69186, Control_c, 0, 64, 80
1, 69199, Note_off_c, 0, 75, 60
1, 69201, Control_c, 0, 64, 127
1, 69205, Note_off_c, 0, 85, 61
1, 69218, Note_off_c, 0, 83, 63
1, 69221, Note_off_c, 0, 87, 64
1, 69310, Note_on_c, 0, 62, 77
1, 69315, Note_on_c, 0, 59, 64
1, 69316, Note_on_c, 0, 56, 76
1, 69320, Note_on_c, 0, 83, 91
1, 69321, Note_on_c, 0, 86, 85
1, 69321, Note_on_c, 0, 74, 85
1, 69333, Note_off_c, 0, 62, 70
1, 69334, Control_c, 0, 64, 89
1, 69337, Note_off_c, 0, 56, 72
1, 69337, Note_off_c, 0, 83, 73
1, 69338, Note_off_c, 0, 86, 71
1, 69339, Note_off_c, 0, 74, 75
1, 69345, Note_off_c, 0, 59, 65
1, 69349, Note_on_c, 0, 82, 4
1, 69349, Control_c, 0, 64, 61
1, 69363, Control_c, 0, 64, 0
1, 69369, Note_off_c, 0, 82, 32
1, 69375, Note_on_c, 0, 63, 99
1, 69375, Note_on_c, 0, 75, 93
1, 69377, Note_on_c, 0, 56, 94
1, 69378, Note_on_c, 0, 87, 97
1, 69378, Poly_aftertouch_c, 0, 59, 0
1, 69387, Note_on_c, 0, 59, 58
1, 69389, Note_off_c, 0, 63, 75
1, 69404, Note_off_c, 0, 75, 65
1, 69407, Note_off_c, 0, 56, 62
1, 69411, Note_off_c, 0, 59, 64
1, 69413, Note_off_c, 0, 87, 68
1, 69416, Note_on_c, 0, 83, 31
1, 69438, Note_off_c, 0, 83, 41
1, 69560, Note_on_c, 0, 51, 94
1, 69562, Note_on_c, 0, 79, 93
1, 69562, Note_on_c, 0, 82, 100
1, 69563, Note_on_c, 0, 91, 105
1, 69574, Note_on_c, 0, 39, 63
1, 69577, Note_off_c, 0, 82, 74
1, 69577, Note_off_c, 0, 51, 68
1, 69577, Note_off_c, 0, 91, 73
1, 69578, Control_c, 0, 64, 27
1, 69580, Note_off_c, 0, 79, 70
1, 69593, Control_c, 0, 64, 49
1, 69597, Note_off_c, 0, 39, 59
1, 69608, Control_c, 0, 64, 64
1, 69623, Control_c, 0, 64, 91
1, 69637, Control_c, 0, 64, 127
1, 69735, Note_on_c, 0, 63, 69
1, 69735, Note_on_c, 0, 70, 79
1, 69736, Note_on_c, 0, 67, 66
1, 69740, Note_on_c, 0, 79, 69
1, 69742, Note_on_c, 0, 58, 59
1, 69748, Note_on_c, 0, 75, 55
1, 69753, Note_off_c, 0, 63, 66
1, 69753, Note_off_c, 0, 67, 70
1, 69754, Note_off_c, 0, 70, 71
1, 69757, Control_c, 0, 64, 74
1, 69764, Note_off_c, 0, 58, 61
1, 69764, Note_off_c, 0, 79, 66
1, 69770, Note_off_c, 0, 75, 62
1, 69772, Control_c, 0, 64, 55
1, 69786, Control_c, 0, 64, 0
1, 69789, Poly_aftertouch_c, 0, 75, 0
1, 69792, Note_on_c, 0, 70, 81
1, 69792, Note_on_c, 0, 67, 90
1, 69795, Note_on_c, 0, 79, 87
1, 69797, Note_on_c, 0, 58, 78
1, 69799, Note_on_c, 0, 75, 60
1, 69808, Note_on_c, 0, 63, 65
1, 69814, Note_off_c, 0, 67, 73
1, 69815, Note_off_c, 0, 70, 69
1, 69817, Note_off_c, 0, 79, 67
1, 69819, Note_off_c, 0, 58, 70
1, 69819, Note_off_c, 0, 75, 62
1, 69834, Note_off_c, 0, 63, 39
1, 69950, Control_c, 0, 64, 23
1, 69960, Note_on_c, 0, 90, 104
1, 69962, Note_on_c, 0, 78, 96
1, 69962, Note_on_c, 0, 82, 96
1, 69962, Note_on_c, 0, 51, 96
1, 69965, Control_c, 0, 64, 38
1, 69977, Note_off_c, 0, 82, 75
1, 69979, Note_off_c, 0, 78, 71
1, 69980, Note_on_c, 0, 39, 62
1, 69980, Control_c, 0, 64, 55
1, 69980, Note_off_c, 0, 51, 72
1, 69993, Note_on_c, 0, 42, 35
1, 69994, Note_off_c, 0, 90, 65
1, 69994, Control_c, 0, 64, 71
1, 70001, Note_off_c, 0, 39, 61
1, 70009, Control_c, 0, 64, 104
1, 70024, Control_c, 0, 64, 127
1, 70027, Note_off_c, 0, 42, 54
1, 70072, Poly_aftertouch_c, 0, 44, 0
1, 70140, Note_on_c, 0, 70, 85
1, 70142, Control_c, 0, 64, 93
1, 70148, Note_on_c, 0, 66, 76
1, 70150, Note_on_c, 0, 78, 66
1, 70150, Note_on_c, 0, 63, 66
1, 70150, Note_on_c, 0, 75, 63
1, 70157, Control_c, 0, 64, 68
1, 70159, Note_off_c, 0, 70, 70
1, 70165, Note_off_c, 0, 78, 69
1, 70168, Note_off_c, 0, 66, 67
1, 70169, Note_off_c, 0, 75, 63
1, 70170, Note_off_c, 0, 63, 67
1, 70172, Control_c, 0, 64, 52
1, 70186, Control_c, 0, 64, 0
1, 70205, Note_on_c, 0, 78, 93
1, 70206, Note_on_c, 0, 70, 77
1, 70211, Note_on_c, 0, 66, 70
1, 70220, Note_on_c, 0, 63, 64
1, 70221, Note_on_c, 0, 75, 66
1, 70227, Note_off_c, 0, 70, 69
1, 70229, Note_off_c, 0, 66, 64
1, 70233, Note_off_c, 0, 78, 62
1, 70238, Note_off_c, 0, 63, 65
1, 70239, Note_off_c, 0, 75, 64
1, 70372, Control_c, 0, 64, 27
1, 70378, Note_on_c, 0, 88, 89
1, 70379, Note_on_c, 0, 76, 84
1, 70379, Note_on_c, 0, 80, 89
1, 70386, Note_on_c, 0, 35, 76
1, 70386, Control_c, 0, 64, 39
1, 70394, Note_off_c, 0, 80, 74
1, 70396, Note_on_c, 0, 48, 67
1, 70396, Note_off_c, 0, 76, 75
1, 70397, Note_off_c, 0, 88, 69
1, 70399, Note_on_c, 0, 47, 59
1, 70401, Control_c, 0, 64, 52
1, 70406, Note_off_c, 0, 35, 64
1, 70416, Control_c, 0, 64, 64
1, 70418, Note_off_c, 0, 48, 63
1, 70427, Note_off_c, 0, 47, 58
1, 70431, Control_c, 0, 64, 70
1, 70446, Control_c, 0, 64, 72
1, 70460, Control_c, 0, 64, 73
1, 70475, Control_c, 0, 64, 74
1, 70491, Control_c, 0, 64, 75
1, 70506, Control_c, 0, 64, 79
1, 70521, Control_c, 0, 64, 84
1, 70536, Control_c, 0, 64, 85
1, 70565, Control_c, 0, 64, 81
1, 70566, Note_on_c, 0, 59, 67
1, 70567, Note_on_c, 0, 64, 69
1, 70567, Note_on_c, 0, 68, 79
1, 70568, Note_on_c, 0, 71, 76
1, 70570, Note_on_c, 0, 56, 59
1, 70576, Note_on_c, 0, 76, 65
1, 70580, Control_c, 0, 64, 69
1, 70585, Note_off_c, 0, 71, 73
1, 70588, Note_off_c, 0, 68, 68
1, 70591, Note_off_c, 0, 56, 63
1, 70592, Note_off_c, 0, 59, 65
1, 70594, Note_off_c, 0, 64, 67
1, 70594, Note_off_c, 0, 76, 68
1, 70595, Control_c, 0, 64, 56
1, 70609, Control_c, 0, 64, 0
1, 70624, Note_on_c, 0, 56, 83
1, 70629, Note_on_c, 0, 68, 67
1, 70630, Note_on_c, 0, 71, 81
1, 70638, Note_on_c, 0, 77, 69
1, 70639, Note_on_c, 0, 64, 54
1, 70644, Note_off_c, 0, 68, 67
1, 70644, Note_off_c, 0, 71, 74
1, 70648, Note_off_c, 0, 56, 69
1, 70650, Note_on_c, 0, 59, 35
1, 70651, Note_off_c, 0, 59, 127
1, 70656, Note_off_c, 0, 77, 66
1, 70668, Note_off_c, 0, 64, 35
1, 70804, Note_on_c, 0, 87, 94
1, 70805, Note_on_c, 0, 78, 89
1, 70808, Note_on_c, 0, 75, 82
1, 70813, Note_on_c, 0, 48, 81
1, 70817, Control_c, 0, 64, 28
1, 70820, Note_on_c, 0, 36, 60
1, 70821, Note_off_c, 0, 78, 76
1, 70823, Note_off_c, 0, 87, 70
1, 70827, Note_off_c, 0, 75, 68
1, 70832, Control_c, 0, 64, 42
1, 70838, Note_off_c, 0, 48, 69
1, 70847, Control_c, 0, 64, 56
1, 70847, Note_off_c, 0, 36, 57
1, 70862, Control_c, 0, 64, 66
1, 70877, Control_c, 0, 64, 75
1, 70891, Control_c, 0, 64, 77
1, 70921, Control_c, 0, 64, 78
1, 70936, Control_c, 0, 64, 81
1, 70951, Control_c, 0, 64, 86
1, 70965, Control_c, 0, 64, 91
1, 70980, Control_c, 0, 64, 91
1, 70995, Control_c, 0, 64, 91
1, 71000, Note_on_c, 0, 57, 60
1, 71011, Note_on_c, 0, 75, 79
1, 71013, Note_on_c, 0, 63, 67
1, 71013, Note_on_c, 0, 69, 71
1, 71014, Note_on_c, 0, 66, 75
1, 71016, Note_on_c, 0, 54, 52
1, 71017, Control_c, 0, 64, 79
1, 71032, Control_c, 0, 64, 63
1, 71032, Note_off_c, 0, 75, 67
1, 71034, Note_off_c, 0, 63, 66
1, 71034, Note_off_c, 0, 69, 73
1, 71040, Note_off_c, 0, 57, 63
1, 71040, Note_off_c, 0, 66, 68
1, 71041, Note_off_c, 0, 54, 57
1, 71047, Control_c, 0, 64, 40
1, 71062, Control_c, 0, 64, 0
1, 71068, Note_on_c, 0, 63, 79
1, 71071, Note_on_c, 0, 54, 74
1, 71077, Note_on_c, 0, 66, 78
1, 71079, Note_on_c, 0, 75, 89
1, 71086, Note_off_c, 0, 63, 77
1, 71089, Note_on_c, 0, 69, 54
1, 71092, Note_on_c, 0, 57, 46
1, 71094, Note_off_c, 0, 54, 70
1, 71095, Note_off_c, 0, 66, 67
1, 71101, Note_off_c, 0, 75, 64
1, 71113, Note_off_c, 0, 69, 39
1, 71123, Note_off_c, 0, 57, 54
1, 71278, Note_on_c, 0, 87, 84
1, 71297, Note_on_c, 0, 85, 75
1, 71300, Control_c, 0, 64, 26
1, 71304, Note_on_c, 0, 49, 99
1, 71306, Note_on_c, 0, 73, 94
1, 71312, Note_on_c, 0, 37, 68
1, 71312, Note_on_c, 0, 86, 71
1, 71314, Control_c, 0, 64, 43
1, 71324, Note_off_c, 0, 49, 73
1, 71328, Note_off_c, 0, 86, 67
1, 71329, Control_c, 0, 64, 59
1, 71330, Note_off_c, 0, 87, 67
1, 71330, Note_on_c, 0, 75, 32
1, 71333, Note_off_c, 0, 73, 67
1, 71341, Note_off_c, 0, 85, 68
1, 71344, Control_c, 0, 64, 75
1, 71345, Note_off_c, 0, 37, 65
1, 71359, Control_c, 0, 64, 108
1, 71361, Note_off_c, 0, 75, 56
1, 71374, Control_c, 0, 64, 127
1, 71516, Note_on_c, 0, 66, 77
1, 71521, Note_on_c, 0, 61, 75
1, 71521, Note_on_c, 0, 73, 71
1, 71528, Note_on_c, 0, 70, 55
1, 71536, Note_on_c, 0, 54, 61
1, 71536, Control_c, 0, 64, 93
1, 71537, Note_off_c, 0, 73, 71
1, 71538, Note_off_c, 0, 66, 69
1, 71545, Note_off_c, 0, 61, 66
1, 71549, Note_off_c, 0, 70, 62
1, 71551, Control_c, 0, 64, 69
1, 71557, Note_off_c, 0, 54, 63
1, 71566, Control_c, 0, 64, 48
1, 71572, Note_on_c, 0, 67, 82
1, 71577, Note_on_c, 0, 73, 80
1, 71579, Note_on_c, 0, 70, 55
1, 71580, Control_c, 0, 64, 0
1, 71581, Note_on_c, 0, 61, 77
1, 71592, Note_off_c, 0, 67, 74
1, 71598, Note_off_c, 0, 70, 64
1, 71598, Note_off_c, 0, 73, 70
1, 71602, Note_off_c, 0, 61, 71
1, 71609, Note_on_c, 0, 55, 45
1, 71635, Note_off_c, 0, 55, 57
1, 71721, Note_on_c, 0, 55, 59
1, 71724, Note_on_c, 0, 70, 72
1, 71729, Note_on_c, 0, 67, 78
1, 71729, Control_c, 0, 64, 25
1, 71733, Note_on_c, 0, 58, 51
1, 71737, Note_on_c, 0, 73, 71
1, 71738, Note_on_c, 0, 61, 60
1, 71744, Control_c, 0, 64, 41
1, 71758, Note_off_c, 0, 67, 71
1, 71763, Note_off_c, 0, 70, 63
1, 71765, Control_c, 0, 64, 54
1, 71767, Note_off_c, 0, 61, 64
1, 71771, Note_off_c, 0, 73, 67
1, 71777, Note_off_c, 0, 58, 63
1, 71778, Note_off_c, 0, 55, 63
1, 71780, Control_c, 0, 64, 64
1, 71795, Control_c, 0, 64, 68
1, 71810, Control_c, 0, 64, 69
1, 71840, Control_c, 0, 64, 70
1, 71855, Control_c, 0, 64, 73
1, 71870, Control_c, 0, 64, 78
1, 71885, Control_c, 0, 64, 82
1, 71899, Control_c, 0, 64, 83
1, 71905, Note_on_c, 0, 56, 73
1, 71905, Note_on_c, 0, 68, 95
1, 71907, Note_on_c, 0, 61, 72
1, 71914, Control_c, 0, 64, 82
1, 71916, Note_on_c, 0, 59, 61
1, 71918, Note_on_c, 0, 73, 69
1, 71922, Note_off_c, 0, 68, 72
1, 71928, Note_off_c, 0, 61, 71
1, 71929, Control_c, 0, 64, 71
1, 71932, Note_off_c, 0, 56, 64
1, 71937, Note_off_c, 0, 59, 65
1, 71937, Note_off_c, 0, 73, 69
1, 71941, Note_on_c, 0, 71, 29
1, 71944, Control_c, 0, 64, 53
1, 71958, Control_c, 0, 64, 0
1, 71968, Note_on_c, 0, 65, 15
1, 71974, Note_on_c, 0, 56, 95
1, 71974, Note_on_c, 0, 61, 88
1, 71976, Note_off_c, 0, 71, 0
1, 71976, Note_on_c, 0, 71, 53
1, 71986, Note_on_c, 0, 53, 59
1, 71987, Note_on_c, 0, 73, 77
1, 71988, Poly_aftertouch_c, 0, 72, 127
1, 71994, Note_off_c, 0, 61, 74
1, 71995, Note_off_c, 0, 65, 63
1, 72006, Note_off_c, 0, 56, 63
1, 72006, Note_off_c, 0, 71, 67
1, 72007, Note_off_c, 0, 73, 69
1, 72013, Poly_aftertouch_c, 0, 72, 0
1, 72016, Note_off_c, 0, 53, 67
1, 72152, Note_on_c, 0, 87, 86
1, 72165, Note_on_c, 0, 85, 88
1, 72167, Control_c, 0, 64, 32
1, 72170, Note_on_c, 0, 49, 89
1, 72171, Note_on_c, 0, 37, 71
1, 72178, Note_on_c, 0, 73, 90
1, 72181, Control_c, 0, 64, 49
1, 72189, Note_off_c, 0, 87, 67
1, 72189, Note_off_c, 0, 49, 72
1, 72196, Note_off_c, 0, 85, 70
1, 72196, Control_c, 0, 64, 65
1, 72199, Note_off_c, 0, 73, 66
1, 72203, Note_off_c, 0, 37, 64
1, 72211, Control_c, 0, 64, 94
1, 72226, Control_c, 0, 64, 127
1, 72359, Control_c, 0, 64, 97
1, 72367, Note_on_c, 0, 66, 72
1, 72374, Control_c, 0, 64, 70
1, 72376, Note_on_c, 0, 73, 64
1, 72379, Note_on_c, 0, 61, 73
1, 72383, Note_off_c, 0, 66, 66
1, 72388, Control_c, 0, 64, 56
1, 72391, Note_on_c, 0, 58, 65
1, 72393, Note_off_c, 0, 73, 67
1, 72397, Note_on_c, 0, 54, 56
1, 72403, Control_c, 0, 64, 32
1, 72418, Control_c, 0, 64, 0
1, 72424, Note_on_c, 0, 73, 74
1, 72433, Note_on_c, 0, 67, 68
1, 72440, Note_off_c, 0, 61, 63
1, 72447, Note_off_c, 0, 58, 64
1, 72450, Note_off_c, 0, 73, 66
1, 72450, Note_off_c, 0, 67, 68
1, 72464, Note_off_c, 0, 54, 65
1, 72576, Note_on_c, 0, 70, 81
1, 72583, Note_on_c, 0, 55, 63
1, 72584, Note_on_c, 0, 73, 71
1, 72588, Note_on_c, 0, 67, 60
1, 72590, Note_on_c, 0, 61, 58
1, 72593, Note_on_c, 0, 58, 54
1, 72603, Note_off_c, 0, 70, 61
1, 72618, Control_c, 0, 64, 25
1, 72621, Note_off_c, 0, 61, 66
1, 72621, Note_off_c, 0, 67, 65
1, 72621, Note_off_c, 0, 73, 57
1, 72627, Note_off_c, 0, 58, 65
1, 72633, Control_c, 0, 64, 38
1, 72634, Note_off_c, 0, 55, 62
1, 72648, Control_c, 0, 64, 50
1, 72663, Control_c, 0, 64, 60
1, 72677, Control_c, 0, 64, 66
1, 72692, Control_c, 0, 64, 67
1, 72752, Note_on_c, 0, 56, 66
1, 72752, Note_on_c, 0, 68, 78
1, 72759, Note_on_c, 0, 61, 60
1, 72762, Note_on_c, 0, 71, 61
1, 72767, Control_c, 0, 64, 66
1, 72768, Note_on_c, 0, 73, 53
1, 72770, Note_on_c, 0, 59, 45
1, 72775, Note_off_c, 0, 68, 68
1, 72779, Note_off_c, 0, 61, 66
1, 72779, Note_off_c, 0, 56, 65
1, 72781, Note_off_c, 0, 71, 67
1, 72782, Control_c, 0, 64, 62
1, 72796, Control_c, 0, 64, 50
1, 72797, Note_off_c, 0, 59, 53
1, 72806, Note_off_c, 0, 73, 0
1, 72811, Control_c, 0, 64, 0
1, 72815, Note_on_c, 0, 65, 77
1, 72818, Note_on_c, 0, 73, 73
1, 72821, Note_on_c, 0, 53, 72
1, 72823, Note_on_c, 0, 56, 76
1, 72823, Note_on_c, 0, 61, 63
1, 72825, Note_on_c, 0, 71, 75
1, 72835, Note_off_c, 0, 65, 71
1, 72844, Note_off_c, 0, 73, 69
1, 72845, Note_off_c, 0, 61, 62
1, 72846, Note_off_c, 0, 71, 69
1, 72847, Note_off_c, 0, 56, 68
1, 72848, Note_off_c, 0, 53, 68
1, 73009, Note_on_c, 0, 83, 74
1, 73017, Note_on_c, 0, 82, 91
1, 73023, Note_on_c, 0, 70, 88
1, 73030, Note_on_c, 0, 46, 81
1, 73033, Note_off_c, 0, 83, 70
1, 73034, Control_c, 0, 64, 30
1, 73042, Note_on_c, 0, 34, 50
1, 73047, Note_off_c, 0, 70, 64
1, 73049, Control_c, 0, 64, 46
1, 73052, Note_off_c, 0, 82, 68
1, 73056, Note_off_c, 0, 46, 67
1, 73064, Control_c, 0, 64, 61
1, 73074, Note_off_c, 0, 34, 54
1, 73078, Control_c, 0, 64, 73
1, 73093, Control_c, 0, 64, 81
1, 73119, Poly_aftertouch_c, 0, 81, 0
1, 73138, Control_c, 0, 64, 82
1, 73152, Control_c, 0, 64, 83
1, 73211, Control_c, 0, 64, 80
1, 73221, Note_on_c, 0, 63, 76
1, 73226, Control_c, 0, 64, 70
1, 73229, Note_on_c, 0, 58, 63
1, 73229, Note_on_c, 0, 66, 65
1, 73230, Note_on_c, 0, 54, 60
1, 73232, Note_on_c, 0, 70, 64
1, 73241, Note_on_c, 0, 51, 39
1, 73241, Note_off_c, 0, 63, 69
1, 73241, Control_c, 0, 64, 59
1, 73256, Note_off_c, 0, 66, 64
1, 73256, Note_off_c, 0, 70, 68
1, 73257, Note_off_c, 0, 58, 62
1, 73262, Note_off_c, 0, 54, 65
1, 73264, Control_c, 0, 64, 41
1, 73278, Note_off_c, 0, 51, 48
1, 73279, Control_c, 0, 64, 0
1, 73295, Note_on_c, 0, 70, 72
1, 73300, Note_on_c, 0, 64, 70
1, 73303, Note_on_c, 0, 55, 70
1, 73306, Note_on_c, 0, 52, 64
1, 73317, Note_off_c, 0, 70, 69
1, 73319, Note_on_c, 0, 58, 55
1, 73320, Note_off_c, 0, 58, 127
1, 73321, Note_off_c, 0, 64, 66
1, 73328, Note_off_c, 0, 52, 64
1, 73331, Note_off_c, 0, 55, 68
1, 73470, Note_on_c, 0, 52, 54
1, 73470, Note_on_c, 0, 64, 72
1, 73470, Note_on_c, 0, 67, 70
1, 73470, Note_on_c, 0, 70, 76
1, 73479, Note_on_c, 0, 58, 53
1, 73485, Control_c, 0, 64, 29
1, 73489, Note_on_c, 0, 55, 39
1, 73494, Note_off_c, 0, 67, 69
1, 73495, Note_off_c, 0, 64, 67
1, 73500, Control_c, 0, 64, 43
1, 73503, Note_off_c, 0, 58, 61
1, 73512, Note_off_c, 0, 70, 64
1, 73515, Note_off_c, 0, 52, 66
1, 73515, Control_c, 0, 64, 55
1, 73519, Note_off_c, 0, 55, 57
1, 73530, Control_c, 0, 64, 62
1, 73545, Control_c, 0, 64, 64
1, 73590, Control_c, 0, 64, 65
1, 73604, Control_c, 0, 64, 66
1, 73619, Control_c, 0, 64, 69
1, 73634, Control_c, 0, 64, 72
1, 73649, Control_c, 0, 64, 74
1, 73661, Note_on_c, 0, 68, 76
1, 73663, Note_on_c, 0, 58, 73
1, 73664, Note_on_c, 0, 65, 73
1, 73664, Note_on_c, 0, 53, 70
1, 73673, Note_on_c, 0, 56, 56
1, 73679, Control_c, 0, 64, 68
1, 73682, Note_on_c, 0, 70, 43
1, 73685, Note_on_c, 0, 62, 44
1, 73685, Note_off_c, 0, 68, 67
1, 73688, Note_off_c, 0, 58, 69
1, 73689, Note_off_c, 0, 65, 70
1, 73694, Control_c, 0, 64, 60
1, 73697, Note_off_c, 0, 56, 59
1, 73699, Note_off_c, 0, 53, 64
1, 73709, Control_c, 0, 64, 42
1, 73711, Note_off_c, 0, 70, 0
1, 73722, Note_off_c, 0, 62, 0
1, 73722, Note_on_c, 0, 62, 48
1, 73724, Control_c, 0, 64, 0
1, 73724, Note_on_c, 0, 70, 68
1, 73732, Note_on_c, 0, 50, 56
1, 73733, Note_on_c, 0, 53, 66
1, 73735, Note_on_c, 0, 58, 77
1, 73751, Note_off_c, 0, 62, 64
1, 73751, Note_off_c, 0, 58, 68
1, 73762, Note_off_c, 0, 53, 69
1, 73763, Note_off_c, 0, 50, 64
1, 73767, Note_off_c, 0, 70, 65
1, 73918, Note_on_c, 0, 83, 77
1, 73940, Note_on_c, 0, 70, 88
1, 73941, Note_on_c, 0, 82, 87
1, 73950, Note_on_c, 0, 46, 81
1, 73953, Note_on_c, 0, 34, 66
1, 73962, Note_off_c, 0, 83, 67
1, 73968, Note_off_c, 0, 46, 67
1, 73969, Note_off_c, 0, 70, 61
1, 73975, Control_c, 0, 64, 31
1, 73978, Note_off_c, 0, 34, 61
1, 73978, Note_off_c, 0, 82, 66
1, 73990, Control_c, 0, 64, 45
1, 74013, Control_c, 0, 64, 58
1, 74028, Control_c, 0, 64, 67
1, 74042, Control_c, 0, 64, 71
1, 74102, Control_c, 0, 64, 71
1, 74116, Control_c, 0, 64, 72
1, 74160, Control_c, 0, 64, 71
1, 74171, Note_on_c, 0, 54, 62
1, 74171, Note_on_c, 0, 63, 63
1, 74173, Note_on_c, 0, 66, 65
1, 74175, Control_c, 0, 64, 67
1, 74176, Note_on_c, 0, 58, 64
1, 74176, Note_on_c, 0, 70, 62
1, 74190, Control_c, 0, 64, 61
1, 74191, Note_off_c, 0, 63, 64
1, 74192, Note_off_c, 0, 70, 69
1, 74192, Note_off_c, 0, 66, 63
1, 74195, Note_on_c, 0, 51, 46
1, 74196, Note_off_c, 0, 58, 65
1, 74197, Note_off_c, 0, 54, 67
1, 74205, Control_c, 0, 64, 52
1, 74220, Control_c, 0, 64, 32
1, 74222, Note_off_c, 0, 51, 53
1, 74234, Control_c, 0, 64, 0
1, 74235, Note_on_c, 0, 64, 72
1, 74242, Note_on_c, 0, 70, 78
1, 74242, Note_on_c, 0, 58, 63
1, 74245, Note_on_c, 0, 55, 66
1, 74251, Note_on_c, 0, 52, 61
1, 74260, Note_off_c, 0, 64, 68
1, 74263, Note_off_c, 0, 70, 70
1, 74264, Note_on_c, 0, 67, 41
1, 74271, Note_off_c, 0, 58, 60
1, 74275, Note_off_c, 0, 55, 67
1, 74283, Note_off_c, 0, 52, 68
1, 74284, Note_off_c, 0, 67, 39
1, 74437, Note_on_c, 0, 70, 72
1, 74442, Note_on_c, 0, 52, 31
1, 74447, Note_on_c, 0, 67, 57
1, 74448, Note_on_c, 0, 64, 57
1, 74469, Note_off_c, 0, 67, 67
1, 74470, Note_on_c, 0, 55, 24
1, 74470, Note_off_c, 0, 64, 64
1, 74472, Control_c, 0, 64, 26
1, 74472, Note_on_c, 0, 58, 35
1, 74478, Note_off_c, 0, 70, 61
1, 74480, Note_off_c, 0, 52, 64
1, 74487, Control_c, 0, 64, 37
1, 74502, Control_c, 0, 64, 46
1, 74508, Note_off_c, 0, 58, 49
1, 74517, Note_off_c, 0, 55, 38
1, 74517, Control_c, 0, 64, 54
1, 74532, Control_c, 0, 64, 59
1, 74546, Control_c, 0, 64, 59
1, 74591, Control_c, 0, 64, 59
1, 74621, Control_c, 0, 64, 58
1, 74636, Control_c, 0, 64, 57
1, 74650, Control_c, 0, 64, 57
1, 74665, Control_c, 0, 64, 56
1, 74680, Control_c, 0, 64, 55
1, 74695, Control_c, 0, 64, 54
1, 74710, Control_c, 0, 64, 52
1, 74724, Control_c, 0, 64, 51
1, 74739, Control_c, 0, 64, 50
1, 74761, Control_c, 0, 64, 48
1, 74768, Note_on_c, 0, 70, 60
1, 74773, Note_on_c, 0, 68, 54
1, 74776, Control_c, 0, 64, 45
1, 74788, Note_on_c, 0, 53, 47
1, 74789, Note_on_c, 0, 65, 39
1, 74791, Control_c, 0, 64, 40
1, 74791, Note_on_c, 0, 56, 44
1, 74798, Note_off_c, 0, 68, 58
1, 74800, Note_on_c, 0, 58, 36
1, 74803, Note_off_c, 0, 70, 62
1, 74806, Control_c, 0, 64, 32
1, 74819, Note_off_c, 0, 65, 54
1, 74820, Note_off_c, 0, 56, 50
1, 74821, Control_c, 0, 64, 12
1, 74825, Note_off_c, 0, 53, 50
1, 74831, Note_off_c, 0, 58, 48
1, 74836, Control_c, 0, 64, 0
1, 74888, Note_on_c, 0, 70, 59
1, 74928, Note_on_c, 0, 50, 38
1, 74928, Note_on_c, 0, 65, 27
1, 74932, Note_on_c, 0, 58, 34
1, 74935, Note_on_c, 0, 53, 22
1, 74970, Control_c, 0, 64, 19
1, 74975, Note_off_c, 0, 65, 48
1, 74976, Note_off_c, 0, 58, 49
1, 74984, Note_off_c, 0, 50, 58
1, 74984, Control_c, 0, 64, 33
1, 74990, Note_off_c, 0, 70, 61
1, 74991, Note_off_c, 0, 53, 48
1, 74999, Control_c, 0, 64, 46
1, 75014, Control_c, 0, 64, 56
1, 75029, Control_c, 0, 64, 62
1, 75044, Control_c, 0, 64, 64
1, 75221, Control_c, 0, 64, 64
1, 75250, Control_c, 0, 64, 63
1, 75265, Control_c, 0, 64, 63
1, 75281, Control_c, 0, 64, 62
1, 75296, Control_c, 0, 64, 61
1, 75311, Control_c, 0, 64, 59
1, 75326, Control_c, 0, 64, 58
1, 75341, Control_c, 0, 64, 57
1, 75355, Control_c, 0, 64, 55
1, 75370, Control_c, 0, 64, 52
1, 75385, Control_c, 0, 64, 49
1, 75399, Note_on_c, 0, 67, 72
1, 75399, Control_c, 0, 64, 46
1, 75414, Control_c, 0, 64, 44
1, 75429, Control_c, 0, 64, 42
1, 75434, Note_on_c, 0, 46, 36
1, 75434, Note_on_c, 0, 51, 38
1, 75435, Note_on_c, 0, 39, 33
1, 75444, Control_c, 0, 64, 41
1, 75459, Control_c, 0, 64, 39
1, 75474, Control_c, 0, 64, 35
1, 75488, Control_c, 0, 64, 31
1, 75511, Control_c, 0, 64, 26
1, 75526, Control_c, 0, 64, 22
1, 75540, Control_c, 0, 64, 17
1, 75541, Note_off_c, 0, 51, 48
1, 75554, Note_off_c, 0, 39, 53
1, 75555, Control_c, 0, 64, 11
1, 75557, Note_off_c, 0, 46, 41
1, 75570, Control_c, 0, 64, 0
1, 75617, Note_on_c, 0, 55, 39
1, 75708, Note_on_c, 0, 58, 53
1, 75742, Note_off_c, 0, 55, 41
1, 75798, Note_off_c, 0, 58, 59
1, 75810, Note_on_c, 0, 65, 68
1, 75811, Note_on_c, 0, 46, 50
1, 75812, Note_on_c, 0, 39, 44
1, 75816, Note_on_c, 0, 51, 38
1, 75837, Note_off_c, 0, 46, 59
1, 75840, Note_off_c, 0, 39, 52
1, 75848, Note_off_c, 0, 51, 47
1, 75898, Note_on_c, 0, 55, 50
1, 75903, Note_on_c, 0, 39, 45
1, 75909, Note_on_c, 0, 51, 29
1, 75911, Note_on_c, 0, 46, 39
1, 75932, Note_off_c, 0, 39, 50
1, 75942, Note_off_c, 0, 46, 50
1, 75946, Note_off_c, 0, 51, 41
1, 75980, Note_on_c, 0, 58, 63
1, 75982, Note_off_c, 0, 55, 56
1, 76025, Note_off_c, 0, 65, 56
1, 76053, Note_on_c, 0, 63, 70
1, 76074, Note_off_c, 0, 58, 62
1, 76089, Control_c, 0, 64, 9
1, 76103, Control_c, 0, 64, 18
1, 76118, Control_c, 0, 64, 21
1, 76133, Control_c, 0, 64, 24
1, 76147, Control_c, 0, 64, 28
1, 76156, Note_on_c, 0, 55, 23
1, 76162, Control_c, 0, 64, 32
1, 76177, Control_c, 0, 64, 35
1, 76192, Control_c, 0, 64, 37
1, 76203, Note_off_c, 0, 63, 57
1, 76205, Note_off_c, 0, 55, 47
1, 76207, Control_c, 0, 64, 37
1, 76223, Note_on_c, 0, 58, 46
1, 76259, Control_c, 0, 64, 38
1, 76274, Control_c, 0, 64, 38
1, 76275, Note_off_c, 0, 58, 61
1, 76276, Note_on_c, 0, 62, 73
1, 76289, Control_c, 0, 64, 40
1, 76303, Control_c, 0, 64, 43
1, 76318, Control_c, 0, 64, 47
1, 76333, Control_c, 0, 64, 51
1, 76348, Control_c, 0, 64, 53
1, 76362, Control_c, 0, 64, 54
1, 76366, Note_off_c, 0, 67, 39
1, 76388, Note_on_c, 0, 55, 21
1, 76392, Control_c, 0, 64, 54
1, 76422, Control_c, 0, 64, 53
1, 76436, Control_c, 0, 64, 53
1, 76437, Note_off_c, 0, 55, 47
1, 76451, Control_c, 0, 64, 52
1, 76457, Note_on_c, 0, 58, 31
1, 76481, Control_c, 0, 64, 52
1, 76493, Note_off_c, 0, 58, 50
1, 76496, Control_c, 0, 64, 51
1, 76511, Control_c, 0, 64, 50
1, 76526, Control_c, 0, 64, 48
1, 76533, Note_on_c, 0, 67, 66
1, 76541, Control_c, 0, 64, 46
1, 76555, Control_c, 0, 64, 44
1, 76560, Note_off_c, 0, 62, 49
1, 76570, Note_on_c, 0, 51, 35
1, 76570, Control_c, 0, 64, 41
1, 76571, Note_on_c, 0, 46, 31
1, 76574, Note_on_c, 0, 39, 31
1, 76585, Control_c, 0, 64, 39
1, 76600, Control_c, 0, 64, 36
1, 76604, Note_off_c, 0, 51, 52
1, 76609, Note_off_c, 0, 39, 55
1, 76609, Note_off_c, 0, 46, 57
1, 76615, Control_c, 0, 64, 31
1, 76629, Control_c, 0, 64, 21
1, 76644, Control_c, 0, 64, 9
1, 76658, Note_on_c, 0, 55, 28
1, 76659, Control_c, 0, 64, 0
1, 76701, Note_on_c, 0, 58, 50
1, 76702, Note_off_c, 0, 55, 49
1, 76748, Note_on_c, 0, 51, 41
1, 76748, Note_off_c, 0, 58, 62
1, 76749, Note_on_c, 0, 46, 46
1, 76754, Note_on_c, 0, 39, 35
1, 76773, Note_on_c, 0, 60, 62
1, 76777, Note_off_c, 0, 51, 58
1, 76779, Note_off_c, 0, 46, 61
1, 76783, Note_off_c, 0, 39, 48
1, 76844, Note_on_c, 0, 55, 43
1, 76845, Note_off_c, 0, 67, 38
1, 76848, Note_on_c, 0, 39, 36
1, 76853, Note_on_c, 0, 51, 39
1, 76877, Note_on_c, 0, 46, 7
1, 76879, Note_off_c, 0, 39, 48
1, 76886, Note_off_c, 0, 51, 46
1, 76892, Note_off_c, 0, 55, 61
1, 76922, Note_on_c, 0, 57, 38
1, 76925, Note_off_c, 0, 46, 37
1, 76975, Note_off_c, 0, 60, 58
1, 76980, Note_on_c, 0, 67, 62
1, 76983, Note_off_c, 0, 57, 50
1, 77056, Note_on_c, 0, 55, 40
1, 77125, Note_off_c, 0, 55, 58
1, 77141, Note_on_c, 0, 58, 55
1, 77171, Control_c, 0, 64, 13
1, 77185, Control_c, 0, 64, 21
1, 77200, Control_c, 0, 64, 27
1, 77210, Note_off_c, 0, 58, 56
1, 77215, Control_c, 0, 64, 30
1, 77230, Control_c, 0, 64, 33
1, 77231, Note_on_c, 0, 63, 51
1, 77245, Control_c, 0, 64, 36
1, 77259, Control_c, 0, 64, 38
1, 77274, Control_c, 0, 64, 41
1, 77289, Control_c, 0, 64, 44
1, 77295, Note_on_c, 0, 55, 37
1, 77304, Control_c, 0, 64, 46
1, 77307, Note_off_c, 0, 67, 29
1, 77319, Control_c, 0, 64, 47
1, 77371, Note_on_c, 0, 58, 44
1, 77400, Note_off_c, 0, 55, 39
1, 77408, Control_c, 0, 64, 47
1, 77423, Control_c, 0, 64, 46
1, 77445, Note_off_c, 0, 58, 46
1, 77467, Control_c, 0, 64, 45
1, 77470, Note_on_c, 0, 67, 38
1, 77482, Control_c, 0, 64, 44
1, 77497, Control_c, 0, 64, 42
1, 77505, Note_on_c, 0, 50, 37
1, 77507, Note_on_c, 0, 39, 35
1, 77509, Note_on_c, 0, 47, 35
1, 77509, Note_off_c, 0, 63, 24
1, 77511, Control_c, 0, 64, 40
1, 77526, Control_c, 0, 64, 37
1, 77541, Note_off_c, 0, 50, 52
1, 77541, Control_c, 0, 64, 32
1, 77544, Note_off_c, 0, 39, 52
1, 77547, Note_off_c, 0, 47, 55
1, 77556, Control_c, 0, 64, 24
1, 77570, Control_c, 0, 64, 12
1, 77585, Control_c, 0, 64, 0
1, 77597, Note_on_c, 0, 56, 46
1, 77660, Note_off_c, 0, 56, 58
1, 77665, Note_on_c, 0, 59, 52
1, 77701, Note_on_c, 0, 47, 48
1, 77706, Note_on_c, 0, 50, 38
1, 77712, Note_on_c, 0, 39, 22
1, 77727, Note_on_c, 0, 64, 65
1, 77730, Note_off_c, 0, 47, 58
1, 77730, Note_off_c, 0, 59, 55
1, 77739, Note_off_c, 0, 50, 45
1, 77769, Note_off_c, 0, 67, 54
1, 77786, Note_off_c, 0, 39, 0
1, 77786, Note_on_c, 0, 39, 33
1, 77801, Control_c, 0, 64, 10
1, 77802, Note_on_c, 0, 47, 49
1, 77803, Note_on_c, 0, 50, 36
1, 77808, Note_on_c, 0, 56, 53
1, 77816, Control_c, 0, 64, 24
1, 77827, Note_off_c, 0, 39, 62
1, 77829, Note_off_c, 0, 47, 59
1, 77831, Control_c, 0, 64, 32
1, 77840, Note_off_c, 0, 50, 42
1, 77846, Control_c, 0, 64, 38
1, 77861, Control_c, 0, 64, 44
1, 77872, Note_on_c, 0, 59, 49
1, 77875, Control_c, 0, 64, 49
1, 77885, Note_off_c, 0, 56, 57
1, 77890, Control_c, 0, 64, 50
1, 77891, Note_off_c, 0, 64, 35
1, 77906, Control_c, 0, 64, 45
1, 77921, Note_on_c, 0, 65, 76
1, 77921, Control_c, 0, 64, 36
1, 77935, Control_c, 0, 64, 20
1, 77950, Control_c, 0, 64, 0
1, 77954, Note_off_c, 0, 59, 60
1, 78009, Control_c, 0, 64, 21
1, 78010, Note_on_c, 0, 56, 58
1, 78024, Control_c, 0, 64, 29
1, 78038, Note_off_c, 0, 65, 63
1, 78039, Control_c, 0, 64, 34
1, 78054, Control_c, 0, 64, 41
1, 78069, Control_c, 0, 64, 49
1, 78071, Note_on_c, 0, 59, 58
1, 78083, Note_off_c, 0, 56, 62
1, 78083, Control_c, 0, 64, 55
1, 78098, Control_c, 0, 64, 59
1, 78113, Control_c, 0, 64, 61
1, 78125, Note_on_c, 0, 67, 80
1, 78143, Note_off_c, 0, 59, 60
1, 78187, Control_c, 0, 64, 61
1, 78198, Note_on_c, 0, 56, 68
1, 78201, Control_c, 0, 64, 62
1, 78216, Control_c, 0, 64, 62
1, 78219, Note_off_c, 0, 67, 63
1, 78227, Note_on_c, 0, 59, 60
1, 78231, Control_c, 0, 64, 63
1, 78234, Note_off_c, 0, 56, 57
1, 78254, Note_off_c, 0, 59, 66
1, 78320, Control_c, 0, 64, 62
1, 78330, Note_on_c, 0, 68, 82
1, 78335, Control_c, 0, 64, 60
1, 78350, Control_c, 0, 64, 58
1, 78357, Note_on_c, 0, 39, 52
1, 78359, Note_on_c, 0, 50, 48
1, 78365, Control_c, 0, 64, 54
1, 78365, Note_on_c, 0, 46, 49
1, 78380, Control_c, 0, 64, 48
1, 78389, Note_off_c, 0, 50, 54
1, 78393, Note_off_c, 0, 39, 56
1, 78394, Control_c, 0, 64, 42
1, 78396, Note_off_c, 0, 46, 57
1, 78409, Control_c, 0, 64, 32
1, 78424, Control_c, 0, 64, 16
1, 78425, Note_on_c, 0, 56, 59
1, 78439, Control_c, 0, 64, 0
1, 78479, Note_on_c, 0, 62, 70
1, 78492, Note_off_c, 0, 68, 59
1, 78513, Note_off_c, 0, 56, 62
1, 78520, Note_on_c, 0, 46, 50
1, 78528, Note_on_c, 0, 39, 43
1, 78531, Note_on_c, 0, 50, 36
1, 78547, Note_off_c, 0, 46, 59
1, 78552, Note_on_c, 0, 69, 81
1, 78556, Note_off_c, 0, 39, 50
1, 78564, Note_off_c, 0, 50, 44
1, 78571, Note_off_c, 0, 62, 59
1, 78595, Control_c, 0, 64, 20
1, 78604, Note_on_c, 0, 50, 44
1, 78607, Note_on_c, 0, 39, 46
1, 78610, Control_c, 0, 64, 32
1, 78621, Note_on_c, 0, 46, 37
1, 78621, Note_on_c, 0, 56, 66
1, 78624, Control_c, 0, 64, 42
1, 78633, Note_off_c, 0, 50, 51
1, 78636, Note_off_c, 0, 39, 57
1, 78639, Control_c, 0, 64, 54
1, 78653, Control_c, 0, 64, 61
1, 78656, Note_off_c, 0, 46, 48
1, 78661, Note_off_c, 0, 56, 65
1, 78668, Control_c, 0, 64, 64
1, 78670, Note_off_c, 0, 69, 65
1, 78682, Note_on_c, 0, 62, 66
1, 78683, Control_c, 0, 64, 65
1, 78727, Control_c, 0, 64, 65
1, 78748, Note_off_c, 0, 62, 57
1, 78756, Control_c, 0, 64, 65
1, 78771, Control_c, 0, 64, 62
1, 78786, Control_c, 0, 64, 54
1, 78801, Control_c, 0, 64, 40
1, 78816, Control_c, 0, 64, 15
1, 78826, Note_on_c, 0, 72, 69
1, 78830, Control_c, 0, 64, 0
1, 78875, Control_c, 0, 64, 19
1, 78886, Note_off_c, 0, 72, 62
1, 78890, Control_c, 0, 64, 30
1, 78905, Control_c, 0, 64, 38
1, 78919, Control_c, 0, 64, 48
1, 78934, Control_c, 0, 64, 56
1, 78949, Control_c, 0, 64, 62
1, 78963, Note_on_c, 0, 56, 62
1, 78964, Control_c, 0, 64, 64
1, 79036, Note_off_c, 0, 56, 59
1, 79038, Control_c, 0, 64, 64
1, 79039, Note_on_c, 0, 62, 53
1, 79053, Control_c, 0, 64, 61
1, 79067, Control_c, 0, 64, 54
1, 79082, Control_c, 0, 64, 41
1, 79097, Control_c, 0, 64, 22
1, 79106, Note_on_c, 0, 70, 70
1, 79112, Control_c, 0, 64, 0
1, 79124, Note_off_c, 0, 62, 55
1, 79141, Control_c, 0, 64, 19
1, 79156, Control_c, 0, 64, 27
1, 79171, Control_c, 0, 64, 33
1, 79186, Control_c, 0, 64, 39
1, 79191, Note_on_c, 0, 56, 54
1, 79201, Control_c, 0, 64, 48
1, 79215, Control_c, 0, 64, 55
1, 79229, Note_off_c, 0, 70, 63
1, 79230, Control_c, 0, 64, 59
1, 79253, Control_c, 0, 64, 61
1, 79265, Note_off_c, 0, 56, 58
1, 79277, Note_on_c, 0, 62, 49
1, 79328, Control_c, 0, 64, 61
1, 79343, Control_c, 0, 64, 60
1, 79358, Control_c, 0, 64, 60
1, 79372, Control_c, 0, 64, 59
1, 79387, Control_c, 0, 64, 58
1, 79402, Control_c, 0, 64, 55
1, 79412, Note_off_c, 0, 62, 54
1, 79417, Control_c, 0, 64, 51
1, 79420, Note_on_c, 0, 67, 73
1, 79432, Control_c, 0, 64, 45
1, 79440, Note_on_c, 0, 51, 36
1, 79441, Note_on_c, 0, 46, 42
1, 79445, Note_on_c, 0, 39, 36
1, 79446, Control_c, 0, 64, 38
1, 79461, Control_c, 0, 64, 27
1, 79476, Control_c, 0, 64, 0
1, 79485, Note_off_c, 0, 51, 49
1, 79489, Note_off_c, 0, 46, 61
1, 79493, Note_off_c, 0, 39, 60
1, 79535, Note_on_c, 0, 55, 55
1, 79617, Note_on_c, 0, 58, 57
1, 79620, Note_off_c, 0, 55, 59
1, 79658, Note_off_c, 0, 58, 61
1, 79681, Note_on_c, 0, 39, 51
1, 79681, Note_on_c, 0, 46, 54
1, 79686, Note_on_c, 0, 65, 70
1, 79689, Note_on_c, 0, 51, 39
1, 79706, Note_off_c, 0, 46, 59
1, 79707, Note_off_c, 0, 39, 58
1, 79722, Note_off_c, 0, 51, 47
1, 79754, Note_on_c, 0, 55, 61
1, 79784, Note_on_c, 0, 46, 48
1, 79788, Note_on_c, 0, 51, 21
1, 79798, Note_on_c, 0, 39, 22
1, 79817, Note_off_c, 0, 46, 34
1, 79826, Note_on_c, 0, 58, 68
1, 79832, Note_off_c, 0, 51, 28
1, 79840, Note_off_c, 0, 39, 32
1, 79844, Note_off_c, 0, 55, 54
1, 79852, Note_off_c, 0, 65, 62
1, 79885, Note_on_c, 0, 63, 72
1, 79907, Note_off_c, 0, 58, 64
1, 79969, Note_on_c, 0, 55, 58
1, 80013, Note_off_c, 0, 63, 62
1, 80033, Note_on_c, 0, 58, 65
1, 80046, Control_c, 0, 64, 11
1, 80061, Control_c, 0, 64, 20
1, 80069, Note_off_c, 0, 55, 52
1, 80076, Control_c, 0, 64, 30
1, 80091, Control_c, 0, 64, 38
1, 80100, Note_on_c, 0, 62, 66
1, 80101, Note_off_c, 0, 58, 60
1, 80106, Control_c, 0, 64, 45
1, 80121, Control_c, 0, 64, 51
1, 80130, Note_off_c, 0, 67, 49
1, 80136, Control_c, 0, 64, 55
1, 80151, Control_c, 0, 64, 56
1, 80184, Note_on_c, 0, 55, 41
1, 80210, Control_c, 0, 64, 56
1, 80234, Note_on_c, 0, 58, 46
1, 80238, Note_off_c, 0, 55, 44
1, 80264, Note_off_c, 0, 58, 53
1, 80269, Control_c, 0, 64, 55
1, 80284, Control_c, 0, 64, 54
1, 80299, Control_c, 0, 64, 53
1, 80310, Note_off_c, 0, 62, 37
1, 80314, Control_c, 0, 64, 51
1, 80328, Control_c, 0, 64, 49
1, 80333, Note_on_c, 0, 67, 63
1, 80343, Control_c, 0, 64, 46
1, 80358, Control_c, 0, 64, 43
1, 80362, Note_on_c, 0, 51, 42
1, 80371, Note_on_c, 0, 39, 33
1, 80373, Control_c, 0, 64, 40
1, 80383, Note_on_c, 0, 46, 23
1, 80388, Control_c, 0, 64, 37
1, 80397, Note_off_c, 0, 51, 56
1, 80402, Control_c, 0, 64, 33
1, 80406, Note_off_c, 0, 39, 54
1, 80417, Note_off_c, 0, 46, 51
1, 80417, Control_c, 0, 64, 29
1, 80425, Note_on_c, 0, 55, 49
1, 80432, Control_c, 0, 64, 24
1, 80447, Control_c, 0, 64, 20
1, 80462, Control_c, 0, 64, 19
1, 80476, Control_c, 0, 64, 17
1, 80479, Note_on_c, 0, 58, 56
1, 80491, Control_c, 0, 64, 14
1, 80493, Note_off_c, 0, 55, 52
1, 80506, Control_c, 0, 64, 9
1, 80520, Control_c, 0, 64, 0
1, 80534, Note_off_c, 0, 58, 61
1, 80538, Note_on_c, 0, 46, 50
1, 80543, Note_on_c, 0, 51, 50
1, 80545, Note_on_c, 0, 39, 44
1, 80549, Note_on_c, 0, 60, 63
1, 80572, Note_off_c, 0, 51, 59
1, 80575, Note_off_c, 0, 39, 57
1, 80577, Note_off_c, 0, 46, 63
1, 80604, Note_off_c, 0, 67, 40
1, 80623, Note_on_c, 0, 55, 58
1, 80660, Note_on_c, 0, 51, 38
1, 80669, Note_on_c, 0, 39, 19
1, 80669, Note_on_c, 0, 46, 22
1, 80670, Note_off_c, 0, 60, 60
1, 80672, Note_off_c, 0, 55, 60
1, 80676, Note_on_c, 0, 57, 54
1, 80693, Note_off_c, 0, 51, 33
1, 80710, Note_off_c, 0, 46, 43
1, 80712, Note_off_c, 0, 39, 30
1, 80723, Note_off_c, 0, 57, 54
1, 80768, Note_on_c, 0, 67, 51
1, 80812, Note_off_c, 0, 67, 0
1, 80812, Note_on_c, 0, 67, 15
1, 80827, Note_on_c, 0, 55, 42
1, 80891, Note_off_c, 0, 55, 59
1, 80895, Note_on_c, 0, 58, 52
1, 80949, Note_off_c, 0, 58, 59
1, 80970, Note_on_c, 0, 63, 56
1, 80983, Note_off_c, 0, 67, 43
1, 81003, Control_c, 0, 64, 16
1, 81018, Control_c, 0, 64, 23
1, 81030, Note_on_c, 0, 55, 46
1, 81033, Control_c, 0, 64, 31
1, 81048, Control_c, 0, 64, 37
1, 81063, Control_c, 0, 64, 42
1, 81078, Control_c, 0, 64, 46
1, 81093, Control_c, 0, 64, 49
1, 81095, Note_on_c, 0, 58, 60
1, 81107, Control_c, 0, 64, 50
1, 81110, Note_off_c, 0, 55, 55
1, 81128, Note_off_c, 0, 63, 36
1, 81150, Note_off_c, 0, 58, 62
1, 81151, Control_c, 0, 64, 50
1, 81181, Control_c, 0, 64, 49
1, 81196, Control_c, 0, 64, 48
1, 81211, Control_c, 0, 64, 47
1, 81225, Control_c, 0, 64, 45
1, 81240, Control_c, 0, 64, 44
1, 81248, Note_on_c, 0, 67, 59
1, 81255, Control_c, 0, 64, 41
1, 81265, Note_on_c, 0, 38, 44
1, 81270, Control_c, 0, 64, 38
1, 81273, Note_on_c, 0, 50, 31
1, 81277, Note_on_c, 0, 48, 36
1, 81285, Control_c, 0, 64, 35
1, 81299, Control_c, 0, 64, 31
1, 81313, Note_off_c, 0, 48, 54
1, 81314, Control_c, 0, 64, 24
1, 81317, Note_off_c, 0, 50, 50
1, 81322, Note_off_c, 0, 38, 58
1, 81329, Control_c, 0, 64, 12
1, 81343, Control_c, 0, 64, 0
1, 81358, Note_on_c, 0, 57, 50
1, 81435, Note_on_c, 0, 60, 54
1, 81443, Note_off_c, 0, 57, 55
1, 81463, Note_on_c, 0, 38, 50
1, 81474, Note_off_c, 0, 67, 54
1, 81502, Note_off_c, 0, 38, 56
1, 81504, Note_on_c, 0, 66, 71
1, 81509, Note_off_c, 0, 60, 63
1, 81514, Control_c, 0, 64, 13
1, 81519, Poly_aftertouch_c, 0, 48, 127
1, 81522, Poly_aftertouch_c, 0, 50, 0
1, 81529, Control_c, 0, 64, 22
1, 81543, Control_c, 0, 64, 28
1, 81558, Control_c, 0, 64, 33
1, 81562, Note_on_c, 0, 38, 37
1, 81573, Control_c, 0, 64, 38
1, 81574, Note_on_c, 0, 57, 63
1, 81574, Poly_aftertouch_c, 0, 48, 0
1, 81574, Poly_aftertouch_c, 0, 50, 0
1, 81588, Control_c, 0, 64, 43
1, 81602, Note_off_c, 0, 38, 51
1, 81603, Note_off_c, 0, 66, 60
1, 81603, Control_c, 0, 64, 48
1, 81605, Note_on_c, 0, 60, 74
1, 81617, Control_c, 0, 64, 52
1, 81621, Note_off_c, 0, 57, 59
1, 81632, Control_c, 0, 64, 53
1, 81645, Note_off_c, 0, 60, 57
1, 81647, Control_c, 0, 64, 54
1, 81662, Control_c, 0, 64, 53
1, 81678, Control_c, 0, 64, 49
1, 81693, Control_c, 0, 64, 33
1, 81708, Control_c, 0, 64, 0
1, 81713, Note_on_c, 0, 70, 85
1, 81796, Control_c, 0, 64, 11
1, 81811, Control_c, 0, 64, 30
1, 81816, Note_on_c, 0, 60, 65
1, 81826, Control_c, 0, 64, 44
1, 81841, Control_c, 0, 64, 59
1, 81844, Note_off_c, 0, 70, 64
1, 81856, Control_c, 0, 64, 75
1, 81871, Control_c, 0, 64, 104
1, 81873, Note_on_c, 0, 62, 68
1, 81885, Control_c, 0, 64, 111
1, 81888, Note_off_c, 0, 60, 63
1, 81894, Note_on_c, 0, 50, 63
1, 81897, Note_on_c, 0, 54, 64
1, 81900, Control_c, 0, 64, 113
1, 81915, Control_c, 0, 64, 122
1, 81921, Note_on_c, 0, 69, 84
1, 81925, Note_off_c, 0, 50, 65
1, 81927, Note_off_c, 0, 54, 67
1, 81930, Control_c, 0, 64, 127
1, 81938, Note_off_c, 0, 62, 63
1, 81984, Note_on_c, 0, 60, 77
1, 81993, Note_on_c, 0, 50, 47
1, 82019, Note_off_c, 0, 50, 60
1, 82026, Note_off_c, 0, 69, 62
1, 82029, Note_on_c, 0, 62, 76
1, 82052, Poly_aftertouch_c, 0, 54, 127
1, 82058, Note_off_c, 0, 60, 64
1, 82075, Poly_aftertouch_c, 0, 54, 0
1, 82135, Note_off_c, 0, 62, 55
1, 82137, Control_c, 0, 64, 70
1, 82151, Note_on_c, 0, 72, 84
1, 82152, Control_c, 0, 64, 48
1, 82166, Control_c, 0, 64, 0
1, 82211, Control_c, 0, 64, 23
1, 82226, Control_c, 0, 64, 43
1, 82231, Note_off_c, 0, 72, 64
1, 82248, Control_c, 0, 64, 61
1, 82263, Control_c, 0, 64, 92
1, 82274, Note_on_c, 0, 58, 76
1, 82278, Control_c, 0, 64, 127
1, 82339, Note_on_c, 0, 50, 55
1, 82342, Note_off_c, 0, 58, 65
1, 82346, Note_on_c, 0, 62, 74
1, 82351, Note_on_c, 0, 43, 32
1, 82351, Note_on_c, 0, 55, 29
1, 82362, Note_off_c, 0, 50, 61
1, 82394, Note_off_c, 0, 55, 0
1, 82394, Note_on_c, 0, 55, 33
1, 82395, Note_off_c, 0, 43, 0
1, 82395, Note_on_c, 0, 43, 28
1, 82397, Note_on_c, 0, 70, 85
1, 82403, Note_on_c, 0, 50, 61
1, 82419, Note_off_c, 0, 62, 64
1, 82427, Note_off_c, 0, 55, 63
1, 82437, Note_off_c, 0, 50, 51
1, 82443, Note_off_c, 0, 43, 59
1, 82460, Note_on_c, 0, 58, 77
1, 82477, Note_on_c, 0, 62, 62
1, 82486, Note_off_c, 0, 58, 63
1, 82502, Note_off_c, 0, 62, 69
1, 82506, Note_off_c, 0, 70, 63
1, 82604, Control_c, 0, 64, 111
1, 82617, Note_on_c, 0, 74, 81
1, 82619, Control_c, 0, 64, 72
1, 82634, Control_c, 0, 64, 58
1, 82649, Control_c, 0, 64, 32
1, 82663, Control_c, 0, 64, 0
1, 82704, Note_on_c, 0, 62, 71
1, 82738, Control_c, 0, 64, 16
1, 82753, Control_c, 0, 64, 30
1, 82768, Control_c, 0, 64, 40
1, 82773, Note_on_c, 0, 46, 46
1, 82778, Note_on_c, 0, 56, 43
1, 82783, Control_c, 0, 64, 52
1, 82787, Note_on_c, 0, 58, 42
1, 82797, Control_c, 0, 64, 63
1, 82798, Note_off_c, 0, 62, 58
1, 82803, Note_on_c, 0, 65, 58
1, 82812, Control_c, 0, 64, 70
1, 82827, Control_c, 0, 64, 73
1, 82836, Note_off_c, 0, 65, 65
1, 82838, Note_off_c, 0, 58, 46
1, 82853, Note_off_c, 0, 46, 57
1, 82863, Note_off_c, 0, 56, 37
1, 82871, Control_c, 0, 64, 74
1, 82890, Note_on_c, 0, 72, 71
1, 82901, Control_c, 0, 64, 73
1, 82915, Control_c, 0, 64, 67
1, 82930, Control_c, 0, 64, 59
1, 82932, Note_off_c, 0, 74, 61
1, 82945, Control_c, 0, 64, 47
1, 82960, Control_c, 0, 64, 34
1, 82975, Control_c, 0, 64, 31
1, 82997, Control_c, 0, 64, 38
1, 83012, Control_c, 0, 64, 47
1, 83027, Control_c, 0, 64, 58
1, 83033, Note_on_c, 0, 46, 47
1, 83042, Control_c, 0, 64, 66
1, 83042, Note_on_c, 0, 58, 35
1, 83044, Note_on_c, 0, 56, 41
1, 83054, Note_on_c, 0, 62, 50
1, 83056, Control_c, 0, 64, 76
1, 83071, Control_c, 0, 64, 78
1, 83086, Control_c, 0, 64, 78
1, 83091, Note_off_c, 0, 58, 59
1, 83101, Control_c, 0, 64, 80
1, 83106, Note_off_c, 0, 56, 42
1, 83116, Control_c, 0, 64, 83
1, 83121, Note_off_c, 0, 46, 62
1, 83130, Control_c, 0, 64, 89
1, 83145, Control_c, 0, 64, 95
1, 83160, Control_c, 0, 64, 103
1, 83168, Note_off_c, 0, 62, 54
1, 83175, Control_c, 0, 64, 110
1, 83176, Note_on_c, 0, 70, 81
1, 83189, Control_c, 0, 64, 114
1, 83199, Note_off_c, 0, 72, 62
1, 83204, Control_c, 0, 64, 119
1, 83210, Note_off_c, 0, 70, 66
1, 83219, Control_c, 0, 64, 127
1, 83412, Control_c, 0, 64, 108
1, 83427, Control_c, 0, 64, 89
1, 83437, Note_on_c, 0, 39, 44
1, 83442, Control_c, 0, 64, 72
1, 83457, Control_c, 0, 64, 60
1, 83472, Control_c, 0, 64, 40
1, 83486, Control_c, 0, 64, 0
1, 83528, Note_on_c, 0, 79, 77
1, 83591, Control_c, 0, 64, 26
1, 83605, Control_c, 0, 64, 41
1, 83617, Note_off_c, 0, 39, 58
1, 83620, Control_c, 0, 64, 53
1, 83635, Control_c, 0, 64, 63
1, 83650, Control_c, 0, 64, 68
1, 83664, Control_c, 0, 64, 68
1, 83740, Note_on_c, 0, 67, 44
1, 83746, Control_c, 0, 64, 68
1, 83760, Control_c, 0, 64, 67
1, 83775, Control_c, 0, 64, 66
1, 83790, Control_c, 0, 64, 64
1, 83805, Control_c, 0, 64, 62
1, 83820, Control_c, 0, 64, 60
1, 83831, Note_off_c, 0, 67, 56
1, 83835, Control_c, 0, 64, 59
1, 83837, Note_on_c, 0, 70, 51
1, 83850, Control_c, 0, 64, 58
1, 83862, Note_on_c, 0, 65, 37
1, 83864, Control_c, 0, 64, 57
1, 83879, Note_on_c, 0, 58, 35
1, 83879, Control_c, 0, 64, 55
1, 83885, Note_off_c, 0, 70, 43
1, 83894, Control_c, 0, 64, 50
1, 83895, Note_off_c, 0, 65, 53
1, 83909, Control_c, 0, 64, 46
1, 83912, Note_off_c, 0, 58, 46
1, 83924, Control_c, 0, 64, 44
1, 83929, Note_on_c, 0, 77, 71
1, 83938, Control_c, 0, 64, 43
1, 84029, Note_on_c, 0, 67, 56
1, 84035, Note_off_c, 0, 77, 53
1, 84042, Control_c, 0, 64, 43
1, 84057, Control_c, 0, 64, 42
1, 84073, Control_c, 0, 64, 41
1, 84079, Note_on_c, 0, 43, 3
1, 84111, Note_on_c, 0, 70, 56
1, 84118, Note_off_c, 0, 43, 39
1, 84125, Note_off_c, 0, 67, 56
1, 84132, Control_c, 0, 64, 40
1, 84147, Control_c, 0, 64, 39
1, 84161, Control_c, 0, 64, 38
1, 84167, Note_on_c, 0, 75, 78
1, 84176, Control_c, 0, 64, 35
1, 84180, Note_off_c, 0, 70, 59
1, 84191, Control_c, 0, 64, 33
1, 84201, Note_on_c, 0, 63, 48
1, 84206, Control_c, 0, 64, 31
1, 84221, Control_c, 0, 64, 28
1, 84225, Note_off_c, 0, 63, 60
1, 84226, Note_on_c, 0, 55, 35
1, 84234, Note_on_c, 0, 67, 65
1, 84235, Control_c, 0, 64, 24
1, 84250, Control_c, 0, 64, 19
1, 84260, Note_off_c, 0, 55, 46
1, 84265, Control_c, 0, 64, 12
1, 84280, Control_c, 0, 64, 0
1, 84293, Note_on_c, 0, 70, 65
1, 84294, Note_off_c, 0, 75, 62
1, 84308, Note_on_c, 0, 46, 63
1, 84321, Note_off_c, 0, 67, 57
1, 84339, Note_off_c, 0, 46, 66
1, 84357, Note_on_c, 0, 74, 80
1, 84368, Note_off_c, 0, 79, 36
1, 84373, Note_off_c, 0, 70, 63
1, 84428, Note_on_c, 0, 55, 56
1, 84434, Note_on_c, 0, 67, 62
1, 84440, Note_on_c, 0, 62, 52
1, 84460, Note_on_c, 0, 58, 13
1, 84464, Note_off_c, 0, 55, 65
1, 84467, Note_off_c, 0, 62, 58
1, 84494, Note_off_c, 0, 74, 63
1, 84500, Note_off_c, 0, 58, 42
1, 84503, Note_on_c, 0, 70, 62
1, 84512, Note_off_c, 0, 67, 58
1, 84559, Note_off_c, 0, 70, 59
1, 84574, Note_on_c, 0, 79, 62
1, 84592, Note_on_c, 0, 51, 50
1, 84649, Note_off_c, 0, 51, 55
1, 84651, Note_on_c, 0, 67, 59
1, 84714, Note_on_c, 0, 70, 61
1, 84727, Note_off_c, 0, 67, 58
1, 84746, Note_on_c, 0, 60, 39
1, 84765, Note_on_c, 0, 55, 33
1, 84765, Note_off_c, 0, 70, 63
1, 84776, Note_off_c, 0, 60, 49
1, 84780, Note_on_c, 0, 72, 64
1, 84801, Note_off_c, 0, 55, 52
1, 84821, Control_c, 0, 64, 8
1, 84836, Control_c, 0, 64, 11
1, 84848, Note_on_c, 0, 67, 59
1, 84848, Note_off_c, 0, 79, 31
1, 84851, Control_c, 0, 64, 12
1, 84857, Note_on_c, 0, 46, 48
1, 84866, Control_c, 0, 64, 13
1, 84881, Control_c, 0, 64, 14
1, 84893, Note_off_c, 0, 72, 60
1, 84894, Note_off_c, 0, 46, 54
1, 84908, Note_off_c, 0, 67, 62
1, 84911, Note_on_c, 0, 69, 54
1, 84962, Note_off_c, 0, 69, 60
1, 84968, Note_on_c, 0, 79, 71
1, 84974, Note_on_c, 0, 55, 38
1, 84976, Note_on_c, 0, 58, 48
1, 85001, Note_off_c, 0, 58, 58
1, 85007, Note_off_c, 0, 55, 45
1, 85051, Note_on_c, 0, 67, 52
1, 85098, Note_on_c, 0, 70, 64
1, 85108, Note_off_c, 0, 67, 58
1, 85116, Note_on_c, 0, 43, 44
1, 85148, Note_off_c, 0, 79, 55
1, 85148, Control_c, 0, 64, 14
1, 85150, Note_off_c, 0, 43, 49
1, 85158, Note_off_c, 0, 70, 58
1, 85163, Control_c, 0, 64, 15
1, 85177, Note_on_c, 0, 75, 67
1, 85178, Control_c, 0, 64, 17
1, 85192, Control_c, 0, 64, 19
1, 85207, Control_c, 0, 64, 21
1, 85222, Control_c, 0, 64, 22
1, 85251, Note_on_c, 0, 67, 55
1, 85255, Note_on_c, 0, 58, 53
1, 85261, Note_on_c, 0, 55, 44
1, 85277, Note_off_c, 0, 58, 61
1, 85292, Note_off_c, 0, 55, 52
1, 85306, Note_off_c, 0, 67, 56
1, 85308, Note_on_c, 0, 70, 60
1, 85314, Note_off_c, 0, 75, 54
1, 85333, Control_c, 0, 64, 20
1, 85348, Control_c, 0, 64, 8
1, 85355, Note_off_c, 0, 70, 57
1, 85363, Control_c, 0, 64, 0
1, 85411, Note_on_c, 0, 39, 52
1, 85421, Note_on_c, 0, 79, 63
1, 85446, Note_off_c, 0, 39, 65
1, 85456, Note_on_c, 0, 67, 28
1, 85466, Control_c, 0, 64, 20
1, 85481, Control_c, 0, 64, 31
1, 85496, Control_c, 0, 64, 38
1, 85509, Note_off_c, 0, 79, 57
1, 85510, Control_c, 0, 64, 44
1, 85522, Note_off_c, 0, 67, 45
1, 85525, Control_c, 0, 64, 50
1, 85540, Control_c, 0, 64, 53
1, 85541, Note_on_c, 0, 68, 55
1, 85555, Control_c, 0, 64, 54
1, 85570, Control_c, 0, 64, 54
1, 85585, Control_c, 0, 64, 54
1, 85590, Note_off_c, 0, 68, 59
1, 85607, Note_on_c, 0, 56, 60
1, 85607, Note_on_c, 0, 71, 47
1, 85610, Note_on_c, 0, 62, 45
1, 85629, Control_c, 0, 64, 54
1, 85630, Note_off_c, 0, 56, 65
1, 85638, Note_off_c, 0, 62, 55
1, 85668, Note_on_c, 0, 76, 71
1, 85675, Control_c, 0, 64, 54
1, 85689, Control_c, 0, 64, 53
1, 85690, Note_on_c, 0, 64, 50
1, 85710, Note_off_c, 0, 71, 35
1, 85734, Control_c, 0, 64, 53
1, 85740, Note_on_c, 0, 44, 59
1, 85749, Control_c, 0, 64, 52
1, 85751, Note_on_c, 0, 68, 62
1, 85760, Note_off_c, 0, 76, 61
1, 85764, Control_c, 0, 64, 51
1, 85766, Note_off_c, 0, 44, 60
1, 85778, Note_off_c, 0, 64, 37
1, 85779, Control_c, 0, 64, 50
1, 85793, Control_c, 0, 64, 48
1, 85797, Note_off_c, 0, 68, 59
1, 85806, Note_on_c, 0, 71, 55
1, 85808, Control_c, 0, 64, 47
1, 85823, Control_c, 0, 64, 47
1, 85838, Control_c, 0, 64, 46
1, 85853, Control_c, 0, 64, 45
1, 85856, Note_on_c, 0, 77, 87
1, 85860, Note_off_c, 0, 71, 65
1, 85868, Control_c, 0, 64, 44
1, 85870, Note_on_c, 0, 62, 68
1, 85870, Note_on_c, 0, 65, 70
1, 85871, Note_on_c, 0, 56, 67
1, 85898, Note_off_c, 0, 62, 66
1, 85900, Note_off_c, 0, 56, 67
1, 85942, Note_on_c, 0, 68, 74
1, 85956, Control_c, 0, 64, 45
1, 85959, Note_off_c, 0, 77, 57
1, 85963, Note_off_c, 0, 65, 62
1, 85971, Control_c, 0, 64, 45
1, 85993, Control_c, 0, 64, 46
1, 85994, Note_on_c, 0, 71, 67
1, 85997, Note_off_c, 0, 68, 62
1, 86008, Control_c, 0, 64, 47
1, 86011, Note_on_c, 0, 47, 71
1, 86023, Control_c, 0, 64, 48
1, 86036, Note_off_c, 0, 47, 67
1, 86038, Control_c, 0, 64, 48
1, 86046, Note_on_c, 0, 79, 82
1, 86053, Control_c, 0, 64, 49
1, 86056, Note_on_c, 0, 67, 81
1, 86062, Note_off_c, 0, 71, 65
1, 86067, Control_c, 0, 64, 49
1, 86082, Control_c, 0, 64, 50
1, 86097, Control_c, 0, 64, 51
1, 86112, Control_c, 0, 64, 51
1, 86116, Note_on_c, 0, 62, 65
1, 86121, Note_on_c, 0, 56, 68
1, 86125, Note_off_c, 0, 79, 56
1, 86126, Note_on_c, 0, 68, 74
1, 86127, Control_c, 0, 64, 52
1, 86138, Note_off_c, 0, 62, 61
1, 86140, Control_c, 0, 64, 53
1, 86148, Note_off_c, 0, 56, 68
1, 86148, Note_off_c, 0, 68, 67
1, 86150, Note_off_c, 0, 67, 65
1, 86155, Control_c, 0, 64, 54
1, 86169, Note_on_c, 0, 71, 57
1, 86170, Control_c, 0, 64, 55
1, 86185, Control_c, 0, 64, 54
1, 86187, Note_off_c, 0, 71, 66
1, 86200, Control_c, 0, 64, 47
1, 86214, Control_c, 0, 64, 28
1, 86229, Control_c, 0, 64, 0
1, 86241, Note_on_c, 0, 39, 74
1, 86255, Note_on_c, 0, 80, 81
1, 86257, Note_on_c, 0, 68, 74
1, 86268, Note_off_c, 0, 39, 67
1, 86303, Control_c, 0, 64, 18
1, 86318, Control_c, 0, 64, 29
1, 86332, Note_on_c, 0, 74, 73
1, 86333, Control_c, 0, 64, 36
1, 86342, Note_off_c, 0, 68, 60
1, 86348, Control_c, 0, 64, 40
1, 86351, Note_off_c, 0, 80, 64
1, 86363, Control_c, 0, 64, 43
1, 86378, Control_c, 0, 64, 43
1, 86390, Note_on_c, 0, 77, 76
1, 86394, Note_on_c, 0, 65, 69
1, 86398, Note_on_c, 0, 56, 61
1, 86406, Note_on_c, 0, 58, 59
1, 86413, Note_off_c, 0, 65, 70
1, 86414, Note_off_c, 0, 74, 62
1, 86422, Control_c, 0, 64, 43
1, 86430, Note_off_c, 0, 56, 65
1, 86437, Note_off_c, 0, 58, 65
1, 86437, Control_c, 0, 64, 42
1, 86448, Note_on_c, 0, 81, 89
1, 86452, Control_c, 0, 64, 41
1, 86454, Note_on_c, 0, 69, 73
1, 86467, Control_c, 0, 64, 40
1, 86482, Control_c, 0, 64, 39
1, 86482, Note_off_c, 0, 77, 60
1, 86497, Control_c, 0, 64, 39
1, 86512, Control_c, 0, 64, 38
1, 86520, Note_on_c, 0, 46, 76
1, 86530, Note_on_c, 0, 74, 69
1, 86542, Control_c, 0, 64, 37
1, 86548, Note_off_c, 0, 69, 62
1, 86551, Note_off_c, 0, 46, 67
1, 86563, Note_off_c, 0, 81, 61
1, 86586, Control_c, 0, 64, 37
1, 86589, Note_off_c, 0, 74, 64
1, 86602, Note_on_c, 0, 77, 63
1, 86616, Control_c, 0, 64, 36
1, 86630, Control_c, 0, 64, 35
1, 86657, Note_off_c, 0, 77, 61
1, 86661, Note_on_c, 0, 65, 59
1, 86667, Note_on_c, 0, 84, 78
1, 86686, Note_on_c, 0, 72, 50
1, 86699, Note_on_c, 0, 56, 28
1, 86701, Note_off_c, 0, 65, 60
1, 86741, Control_c, 0, 64, 35
1, 86753, Note_off_c, 0, 56, 47
1, 86764, Poly_aftertouch_c, 0, 58, 127
1, 86777, Note_off_c, 0, 72, 63
1, 86784, Note_on_c, 0, 74, 60
1, 86786, Control_c, 0, 64, 34
1, 86798, Poly_aftertouch_c, 0, 58, 0
1, 86801, Control_c, 0, 64, 31
1, 86812, Note_off_c, 0, 84, 61
1, 86816, Control_c, 0, 64, 23
1, 86831, Control_c, 0, 64, 0
1, 86841, Note_on_c, 0, 50, 52
1, 86865, Note_on_c, 0, 77, 64
1, 86867, Note_off_c, 0, 74, 59
1, 86896, Note_off_c, 0, 50, 55
1, 86921, Note_on_c, 0, 82, 72
1, 86923, Note_off_c, 0, 77, 60
1, 86947, Note_on_c, 0, 70, 55
1, 86949, Control_c, 0, 64, 16
1, 86963, Control_c, 0, 64, 23
1, 86978, Control_c, 0, 64, 29
1, 86993, Control_c, 0, 64, 34
1, 86997, Note_on_c, 0, 56, 37
1, 87008, Control_c, 0, 64, 38
1, 87019, Note_off_c, 0, 70, 49
1, 87023, Control_c, 0, 64, 43
1, 87030, Note_off_c, 0, 82, 65
1, 87033, Note_on_c, 0, 74, 49
1, 87037, Control_c, 0, 64, 46
1, 87041, Note_on_c, 0, 58, 38
1, 87052, Control_c, 0, 64, 50
1, 87063, Note_off_c, 0, 56, 63
1, 87067, Control_c, 0, 64, 51
1, 87069, Note_off_c, 0, 58, 58
1, 87081, Control_c, 0, 64, 51
1, 87114, Note_on_c, 0, 77, 55
1, 87128, Note_off_c, 0, 74, 55
1, 87156, Control_c, 0, 64, 52
1, 87200, Control_c, 0, 64, 50
1, 87215, Control_c, 0, 64, 45
1, 87230, Control_c, 0, 64, 31
1, 87239, Note_on_c, 0, 39, 49
1, 87245, Control_c, 0, 64, 0
1, 87267, Note_on_c, 0, 79, 69
1, 87289, Note_off_c, 0, 77, 39
1, 87296, Note_off_c, 0, 39, 63
1, 87305, Control_c, 0, 64, 17
1, 87320, Control_c, 0, 64, 25
1, 87335, Control_c, 0, 64, 31
1, 87349, Control_c, 0, 64, 35
1, 87364, Control_c, 0, 64, 37
1, 87379, Control_c, 0, 64, 38
1, 87394, Note_on_c, 0, 67, 58
1, 87453, Control_c, 0, 64, 37
1, 87468, Control_c, 0, 64, 36
1, 87483, Note_off_c, 0, 67, 60
1, 87486, Note_on_c, 0, 70, 54
1, 87490, Control_c, 0, 64, 36
1, 87504, Note_on_c, 0, 55, 49
1, 87505, Control_c, 0, 64, 35
1, 87509, Note_on_c, 0, 65, 31
1, 87519, Control_c, 0, 64, 34
1, 87528, Note_off_c, 0, 70, 60
1, 87531, Note_on_c, 0, 58, 30
1, 87534, Control_c, 0, 64, 33
1, 87536, Note_off_c, 0, 55, 66
1, 87543, Note_off_c, 0, 65, 53
1, 87549, Control_c, 0, 64, 31
1, 87562, Note_off_c, 0, 58, 45
1, 87563, Note_on_c, 0, 77, 66
1, 87564, Control_c, 0, 64, 30
1, 87579, Control_c, 0, 64, 29
1, 87594, Control_c, 0, 64, 29
1, 87649, Note_off_c, 0, 77, 60
1, 87653, Control_c, 0, 64, 28
1, 87657, Note_on_c, 0, 43, 52
1, 87657, Note_on_c, 0, 67, 64
1, 87687, Note_off_c, 0, 43, 55
1, 87726, Note_off_c, 0, 67, 60
1, 87737, Note_on_c, 0, 70, 50
1, 87742, Control_c, 0, 64, 28
1, 87757, Control_c, 0, 64, 27
1, 87772, Control_c, 0, 64, 25
1, 87775, Note_on_c, 0, 75, 78
1, 87785, Note_off_c, 0, 70, 57
1, 87786, Control_c, 0, 64, 22
1, 87789, Note_on_c, 0, 63, 63
1, 87801, Control_c, 0, 64, 18
1, 87814, Note_off_c, 0, 63, 67
1, 87816, Control_c, 0, 64, 0
1, 87821, Note_on_c, 0, 58, 39
1, 87828, Note_on_c, 0, 55, 30
1, 87838, Note_on_c, 0, 67, 64
1, 87850, Note_off_c, 0, 58, 51
1, 87862, Note_off_c, 0, 55, 46
1, 87893, Note_on_c, 0, 70, 70
1, 87911, Note_on_c, 0, 46, 61
1, 87911, Note_off_c, 0, 75, 62
1, 87924, Note_off_c, 0, 67, 53
1, 87944, Note_off_c, 0, 46, 65
1, 87955, Note_on_c, 0, 74, 81
1, 87964, Control_c, 0, 64, 19
1, 87973, Note_off_c, 0, 70, 63
1, 87975, Note_off_c, 0, 79, 60
1, 87978, Control_c, 0, 64, 25
1, 87993, Control_c, 0, 64, 31
1, 88008, Control_c, 0, 64, 35
1, 88023, Control_c, 0, 64, 39
1, 88026, Note_on_c, 0, 62, 49
1, 88027, Note_on_c, 0, 67, 60
1, 88038, Control_c, 0, 64, 42
1, 88044, Poly_aftertouch_c, 0, 55, 127
1, 88048, Note_on_c, 0, 58, 18
1, 88053, Note_off_c, 0, 62, 57
1, 88054, Control_c, 0, 64, 44
1, 88069, Control_c, 0, 64, 45
1, 88077, Poly_aftertouch_c, 0, 55, 0
1, 88083, Control_c, 0, 64, 46
1, 88085, Note_off_c, 0, 74, 58
1, 88091, Note_on_c, 0, 70, 58
1, 88092, Poly_aftertouch_c, 0, 55, 0
1, 88095, Note_off_c, 0, 67, 60
1, 88098, Note_off_c, 0, 58, 36
1, 88098, Control_c, 0, 64, 47
1, 88142, Control_c, 0, 64, 46
1, 88151, Note_off_c, 0, 70, 55
1, 88157, Control_c, 0, 64, 43
1, 88172, Control_c, 0, 64, 37
1, 88177, Note_on_c, 0, 79, 71
1, 88182, Note_on_c, 0, 51, 46
1, 88187, Control_c, 0, 64, 23
1, 88202, Control_c, 0, 64, 0
1, 88294, Note_on_c, 0, 67, 57
1, 88298, Control_c, 0, 64, 12
1, 88313, Control_c, 0, 64, 16
1, 88328, Control_c, 0, 64, 18
1, 88333, Note_off_c, 0, 51, 35
1, 88338, Note_on_c, 0, 70, 56
1, 88342, Control_c, 0, 64, 19
1, 88348, Note_off_c, 0, 67, 51
1, 88357, Control_c, 0, 64, 20
1, 88363, Note_on_c, 0, 55, 42
1, 88372, Control_c, 0, 64, 20
1, 88387, Note_off_c, 0, 70, 60
1, 88402, Note_on_c, 0, 72, 63
1, 88408, Note_off_c, 0, 55, 52
1, 88444, Note_off_c, 0, 79, 27
1, 88458, Note_on_c, 0, 46, 52
1, 88471, Note_on_c, 0, 67, 56
1, 88499, Note_off_c, 0, 46, 60
1, 88512, Note_off_c, 0, 67, 64
1, 88517, Note_off_c, 0, 72, 60
1, 88521, Control_c, 0, 64, 20
1, 88527, Note_on_c, 0, 69, 56
1, 88536, Control_c, 0, 64, 19
1, 88551, Control_c, 0, 64, 17
1, 88563, Note_on_c, 0, 55, 45
1, 88566, Control_c, 0, 64, 14
1, 88575, Note_on_c, 0, 58, 46
1, 88577, Note_off_c, 0, 69, 62
1, 88581, Control_c, 0, 64, 8
1, 88582, Note_on_c, 0, 79, 69
1, 88592, Note_off_c, 0, 55, 64
1, 88595, Control_c, 0, 64, 0
1, 88600, Note_off_c, 0, 58, 59
1, 88667, Note_on_c, 0, 67, 57
1, 88684, Control_c, 0, 64, 11
1, 88699, Control_c, 0, 64, 14
1, 88714, Control_c, 0, 64, 16
1, 88715, Note_on_c, 0, 43, 48
1, 88721, Note_on_c, 0, 70, 58
1, 88729, Control_c, 0, 64, 19
1, 88734, Note_off_c, 0, 67, 58
1, 88743, Control_c, 0, 64, 23
1, 88747, Note_off_c, 0, 43, 51
1, 88758, Control_c, 0, 64, 26
1, 88773, Control_c, 0, 64, 28
1, 88777, Note_off_c, 0, 70, 55
1, 88783, Note_on_c, 0, 75, 70
1, 88788, Control_c, 0, 64, 31
1, 88803, Control_c, 0, 64, 34
1, 88811, Note_off_c, 0, 79, 30
1, 88818, Control_c, 0, 64, 36
1, 88833, Control_c, 0, 64, 38
1, 88848, Control_c, 0, 64, 40
1, 88850, Note_on_c, 0, 58, 55
1, 88855, Note_on_c, 0, 67, 58
1, 88864, Control_c, 0, 64, 42
1, 88870, Note_on_c, 0, 55, 19
1, 88873, Note_off_c, 0, 58, 62
1, 88878, Control_c, 0, 64, 43
1, 88893, Control_c, 0, 64, 43
1, 88911, Note_off_c, 0, 55, 54
1, 88911, Note_off_c, 0, 67, 57
1, 88918, Note_off_c, 0, 75, 51
1, 88923, Note_on_c, 0, 70, 50
1, 89004, Control_c, 0, 64, 40
1, 89019, Control_c, 0, 64, 25
1, 89022, Note_on_c, 0, 38, 63
1, 89034, Control_c, 0, 64, 0
1, 89036, Note_off_c, 0, 70, 41
1, 89071, Note_off_c, 0, 38, 67
1, 89072, Note_on_c, 0, 79, 73
1, 89092, Note_on_c, 0, 67, 58
1, 89108, Control_c, 0, 64, 20
1, 89123, Control_c, 0, 64, 36
1, 89138, Control_c, 0, 64, 49
1, 89153, Control_c, 0, 64, 62
1, 89165, Note_off_c, 0, 67, 64
1, 89167, Control_c, 0, 64, 69
1, 89176, Note_on_c, 0, 69, 67
1, 89177, Note_off_c, 0, 79, 54
1, 89182, Control_c, 0, 64, 71
1, 89224, Note_on_c, 0, 72, 70
1, 89233, Note_on_c, 0, 62, 63
1, 89235, Note_on_c, 0, 57, 60
1, 89235, Note_off_c, 0, 69, 62
1, 89241, Control_c, 0, 64, 71
1, 89257, Note_on_c, 0, 60, 30
1, 89262, Note_off_c, 0, 57, 65
1, 89263, Note_off_c, 0, 62, 66
1, 89271, Control_c, 0, 64, 72
1, 89274, Note_on_c, 0, 78, 89
1, 89275, Note_on_c, 0, 66, 89
1, 89285, Control_c, 0, 64, 72
1, 89287, Note_off_c, 0, 72, 60
1, 89292, Note_off_c, 0, 60, 54
1, 89300, Control_c, 0, 64, 75
1, 89315, Control_c, 0, 64, 78
1, 89330, Control_c, 0, 64, 85
1, 89338, Note_off_c, 0, 78, 68
1, 89345, Control_c, 0, 64, 98
1, 89352, Note_on_c, 0, 69, 66
1, 89352, Note_off_c, 0, 66, 65
1, 89359, Control_c, 0, 64, 122
1, 89360, Note_on_c, 0, 45, 69
1, 89374, Control_c, 0, 64, 127
1, 89384, Note_off_c, 0, 69, 68
1, 89389, Note_off_c, 0, 45, 66
1, 89391, Note_on_c, 0, 72, 80
1, 89409, Note_off_c, 0, 72, 72
1, 89500, Note_on_c, 0, 87, 89
1, 89505, Note_on_c, 0, 75, 82
1, 89510, Note_on_c, 0, 63, 66
1, 89514, Note_on_c, 0, 54, 57
1, 89536, Note_on_c, 0, 60, 31
1, 89542, Note_off_c, 0, 63, 65
1, 89571, Note_off_c, 0, 60, 50
1, 89576, Note_off_c, 0, 87, 65
1, 89580, Note_on_c, 0, 78, 80
1, 89593, Note_off_c, 0, 75, 59
1, 89631, Note_on_c, 0, 81, 75
1, 89644, Note_off_c, 0, 78, 65
1, 89669, Note_on_c, 0, 50, 51
1, 89696, Note_off_c, 0, 50, 55
1, 89698, Note_on_c, 0, 74, 88
1, 89698, Note_on_c, 0, 86, 94
1, 89721, Note_off_c, 0, 54, 20
1, 89722, Note_off_c, 0, 81, 62
1, 89749, Note_on_c, 0, 62, 67
1, 89751, Note_on_c, 0, 60, 39
1, 89760, Note_on_c, 0, 57, 56
1, 89779, Note_on_c, 0, 78, 82
1, 89779, Note_off_c, 0, 62, 65
1, 89779, Note_off_c, 0, 57, 64
1, 89780, Note_off_c, 0, 60, 54
1, 89819, Note_off_c, 0, 86, 59
1, 89830, Note_off_c, 0, 74, 61
1, 89840, Note_on_c, 0, 81, 74
1, 89847, Note_off_c, 0, 78, 65
1, 89871, Control_c, 0, 64, 82
1, 89886, Control_c, 0, 64, 62
1, 89895, Note_off_c, 0, 81, 59
1, 89901, Control_c, 0, 64, 41
1, 89913, Note_on_c, 0, 43, 65
1, 89915, Control_c, 0, 64, 0
1, 89926, Note_on_c, 0, 86, 83
1, 89931, Note_on_c, 0, 74, 70
1, 89954, Note_off_c, 0, 43, 62
1, 89960, Control_c, 0, 64, 18
1, 89975, Control_c, 0, 64, 35
1, 89989, Control_c, 0, 64, 48
1, 90002, Note_on_c, 0, 79, 75
1, 90004, Control_c, 0, 64, 61
1, 90006, Note_off_c, 0, 86, 59
1, 90019, Control_c, 0, 64, 66
1, 90035, Note_off_c, 0, 74, 62
1, 90058, Note_off_c, 0, 79, 63
1, 90071, Note_on_c, 0, 83, 50
1, 90090, Note_on_c, 0, 59, 47
1, 90093, Note_off_c, 0, 83, 62
1, 90094, Note_on_c, 0, 62, 45
1, 90128, Note_off_c, 0, 59, 60
1, 90129, Note_off_c, 0, 62, 49
1, 90137, Control_c, 0, 64, 65
1, 90153, Note_on_c, 0, 71, 67
1, 90153, Note_on_c, 0, 83, 67
1, 90192, Note_on_c, 0, 50, 53
1, 90219, Note_on_c, 0, 74, 67
1, 90225, Note_off_c, 0, 71, 54
1, 90249, Note_off_c, 0, 83, 61
1, 90267, Note_off_c, 0, 74, 66
1, 90268, Note_on_c, 0, 79, 62
1, 90286, Control_c, 0, 64, 65
1, 90294, Note_off_c, 0, 79, 65
1, 90345, Note_on_c, 0, 59, 40
1, 90350, Note_on_c, 0, 62, 42
1, 90354, Note_on_c, 0, 79, 85
1, 90378, Note_on_c, 0, 67, 43
1, 90389, Control_c, 0, 64, 64
1, 90390, Note_off_c, 0, 59, 45
1, 90404, Control_c, 0, 64, 63
1, 90416, Note_off_c, 0, 62, 39
1, 90419, Control_c, 0, 64, 62
1, 90433, Control_c, 0, 64, 62
1, 90438, Note_off_c, 0, 67, 38
1, 90448, Control_c, 0, 64, 61
1, 90453, Note_on_c, 0, 71, 60
1, 90464, Control_c, 0, 64, 60
1, 90486, Control_c, 0, 64, 58
1, 90491, Note_off_c, 0, 79, 57
1, 90501, Control_c, 0, 64, 56
1, 90516, Control_c, 0, 64, 51
1, 90527, Note_off_c, 0, 71, 64
1, 90528, Note_on_c, 0, 55, 45
1, 90530, Control_c, 0, 64, 41
1, 90532, Note_on_c, 0, 74, 61
1, 90545, Control_c, 0, 64, 25
1, 90560, Control_c, 0, 64, 0
1, 90606, Note_off_c, 0, 74, 67
1, 90607, Note_on_c, 0, 79, 72
1, 90639, Note_on_c, 0, 67, 50
1, 90646, Note_off_c, 0, 50, 28
1, 90649, Control_c, 0, 64, 13
1, 90664, Control_c, 0, 64, 23
1, 90679, Control_c, 0, 64, 30
1, 90694, Control_c, 0, 64, 36
1, 90698, Note_on_c, 0, 62, 37
1, 90709, Control_c, 0, 64, 41
1, 90713, Note_on_c, 0, 59, 32
1, 90724, Control_c, 0, 64, 47
1, 90731, Note_off_c, 0, 62, 49
1, 90734, Note_off_c, 0, 55, 42
1, 90738, Control_c, 0, 64, 51
1, 90739, Note_on_c, 0, 71, 51
1, 90748, Note_off_c, 0, 59, 43
1, 90753, Control_c, 0, 64, 55
1, 90768, Control_c, 0, 64, 56
1, 90778, Note_off_c, 0, 79, 38
1, 90780, Note_off_c, 0, 67, 45
1, 90783, Control_c, 0, 64, 56
1, 90826, Note_on_c, 0, 74, 53
1, 90827, Control_c, 0, 64, 57
1, 90828, Note_off_c, 0, 71, 58
1, 90856, Control_c, 0, 64, 57
1, 90901, Control_c, 0, 64, 58
1, 90930, Control_c, 0, 64, 58
1, 90958, Note_on_c, 0, 40, 44
1, 90960, Control_c, 0, 64, 57
1, 90975, Control_c, 0, 64, 53
1, 90990, Control_c, 0, 64, 40
1, 91004, Control_c, 0, 64, 0
1, 91037, Note_on_c, 0, 79, 73
1, 91073, Note_off_c, 0, 74, 61
1, 91089, Note_off_c, 0, 40, 58
1, 91093, Control_c, 0, 64, 8
1, 91108, Control_c, 0, 64, 23
1, 91123, Control_c, 0, 64, 29
1, 91138, Control_c, 0, 64, 32
1, 91153, Control_c, 0, 64, 36
1, 91168, Control_c, 0, 64, 41
1, 91183, Control_c, 0, 64, 46
1, 91197, Control_c, 0, 64, 51
1, 91212, Control_c, 0, 64, 54
1, 91234, Control_c, 0, 64, 54
1, 91237, Note_on_c, 0, 67, 39
1, 91294, Control_c, 0, 64, 54
1, 91321, Note_on_c, 0, 55, 43
1, 91323, Note_on_c, 0, 71, 42
1, 91324, Control_c, 0, 64, 53
1, 91331, Note_off_c, 0, 67, 39
1, 91335, Note_on_c, 0, 66, 43
1, 91344, Note_on_c, 0, 59, 26
1, 91353, Control_c, 0, 64, 53
1, 91355, Note_off_c, 0, 55, 61
1, 91363, Note_off_c, 0, 66, 54
1, 91368, Control_c, 0, 64, 52
1, 91377, Note_off_c, 0, 71, 45
1, 91381, Note_off_c, 0, 59, 42
1, 91383, Control_c, 0, 64, 51
1, 91398, Control_c, 0, 64, 51
1, 91401, Note_on_c, 0, 78, 72
1, 91413, Control_c, 0, 64, 50
1, 91428, Control_c, 0, 64, 49
1, 91442, Control_c, 0, 64, 48
1, 91457, Control_c, 0, 64, 46
1, 91472, Control_c, 0, 64, 46
1, 91487, Control_c, 0, 64, 45
1, 91500, Note_on_c, 0, 43, 46
1, 91502, Control_c, 0, 64, 44
1, 91510, Note_off_c, 0, 78, 64
1, 91517, Control_c, 0, 64, 43
1, 91524, Note_on_c, 0, 67, 48
1, 91532, Control_c, 0, 64, 41
1, 91535, Note_off_c, 0, 43, 52
1, 91547, Control_c, 0, 64, 40
1, 91561, Control_c, 0, 64, 38
1, 91569, Note_off_c, 0, 67, 62
1, 91573, Note_on_c, 0, 71, 52
1, 91576, Control_c, 0, 64, 37
1, 91591, Control_c, 0, 64, 36
1, 91605, Control_c, 0, 64, 35
1, 91618, Note_off_c, 0, 71, 56
1, 91620, Control_c, 0, 64, 32
1, 91627, Note_on_c, 0, 76, 65
1, 91635, Control_c, 0, 64, 28
1, 91648, Note_on_c, 0, 64, 47
1, 91650, Control_c, 0, 64, 27
1, 91661, Note_on_c, 0, 55, 45
1, 91673, Note_off_c, 0, 64, 58
1, 91696, Note_off_c, 0, 55, 56
1, 91711, Note_off_c, 0, 79, 40
1, 91721, Note_on_c, 0, 67, 50
1, 91764, Note_on_c, 0, 47, 54
1, 91764, Note_off_c, 0, 67, 62
1, 91768, Note_on_c, 0, 71, 59
1, 91783, Control_c, 0, 64, 25
1, 91790, Note_off_c, 0, 47, 61
1, 91795, Note_off_c, 0, 76, 62
1, 91797, Control_c, 0, 64, 24
1, 91812, Control_c, 0, 64, 23
1, 91826, Note_on_c, 0, 74, 70
1, 91836, Note_off_c, 0, 71, 62
1, 91857, Control_c, 0, 64, 22
1, 91880, Note_on_c, 0, 55, 44
1, 91897, Note_on_c, 0, 67, 56
1, 91898, Note_on_c, 0, 62, 53
1, 91926, Note_off_c, 0, 62, 56
1, 91927, Note_off_c, 0, 55, 63
1, 91971, Note_off_c, 0, 67, 55
1, 91985, Note_on_c, 0, 71, 45
1, 91998, Control_c, 0, 64, 23
1, 92020, Note_off_c, 0, 74, 58
1, 92042, Control_c, 0, 64, 22
1, 92047, Note_on_c, 0, 79, 69
1, 92048, Note_on_c, 0, 52, 53
1, 92056, Note_off_c, 0, 71, 53
1, 92058, Control_c, 0, 64, 19
1, 92101, Note_off_c, 0, 52, 57
1, 92102, Control_c, 0, 64, 22
1, 92117, Control_c, 0, 64, 26
1, 92125, Note_on_c, 0, 67, 51
1, 92131, Control_c, 0, 64, 28
1, 92146, Control_c, 0, 64, 29
1, 92190, Note_on_c, 0, 71, 52
1, 92196, Note_on_c, 0, 60, 34
1, 92198, Note_off_c, 0, 67, 57
1, 92205, Note_on_c, 0, 55, 36
1, 92205, Control_c, 0, 64, 29
1, 92220, Control_c, 0, 64, 28
1, 92223, Note_off_c, 0, 60, 51
1, 92235, Control_c, 0, 64, 27
1, 92239, Note_off_c, 0, 79, 57
1, 92245, Note_off_c, 0, 55, 51
1, 92250, Control_c, 0, 64, 27
1, 92253, Note_off_c, 0, 71, 63
1, 92266, Note_on_c, 0, 72, 60
1, 92306, Note_on_c, 0, 47, 45
1, 92328, Note_on_c, 0, 67, 49
1, 92345, Note_off_c, 0, 47, 60
1, 92364, Note_off_c, 0, 72, 53
1, 92380, Note_off_c, 0, 67, 60
1, 92382, Note_on_c, 0, 71, 56
1, 92420, Note_off_c, 0, 71, 58
1, 92425, Note_on_c, 0, 55, 29
1, 92427, Control_c, 0, 64, 27
1, 92442, Control_c, 0, 64, 28
1, 92447, Note_on_c, 0, 79, 64
1, 92457, Control_c, 0, 64, 30
1, 92463, Note_off_c, 0, 55, 44
1, 92472, Control_c, 0, 64, 32
1, 92487, Control_c, 0, 64, 34
1, 92501, Control_c, 0, 64, 36
1, 92510, Note_on_c, 0, 67, 55
1, 92516, Control_c, 0, 64, 37
1, 92531, Control_c, 0, 64, 37
1, 92546, Control_c, 0, 64, 38
1, 92554, Note_on_c, 0, 40, 49
1, 92561, Control_c, 0, 64, 38
1, 92571, Note_off_c, 0, 79, 51
1, 92575, Control_c, 0, 64, 39
1, 92576, Note_off_c, 0, 67, 56
1, 92578, Note_on_c, 0, 71, 50
1, 92587, Note_off_c, 0, 40, 54
1, 92590, Control_c, 0, 64, 40
1, 92605, Control_c, 0, 64, 41
1, 92620, Control_c, 0, 64, 41
1, 92624, Note_off_c, 0, 71, 62
1, 92650, Note_on_c, 0, 76, 58
1, 92650, Control_c, 0, 64, 42
1, 92712, Note_on_c, 0, 59, 21
1, 92730, Note_on_c, 0, 67, 38
1, 92758, Poly_aftertouch_c, 0, 55, 127
1, 92760, Note_off_c, 0, 59, 48
1, 92787, Poly_aftertouch_c, 0, 55, 0
1, 92793, Note_off_c, 0, 67, 43
1, 92800, Note_on_c, 0, 71, 42
1, 92820, Control_c, 0, 64, 41
1, 92834, Control_c, 0, 64, 36
1, 92840, Note_off_c, 0, 76, 33
1, 92850, Control_c, 0, 64, 24
1, 92861, Note_off_c, 0, 71, 44
1, 92865, Control_c, 0, 64, 0
1, 92883, Note_on_c, 0, 36, 44
1, 92917, Note_off_c, 0, 36, 61
1, 92922, Note_on_c, 0, 79, 54
1, 92939, Control_c, 0, 64, 8
1, 92946, Note_on_c, 0, 67, 34
1, 92954, Control_c, 0, 64, 28
1, 92969, Control_c, 0, 64, 42
1, 92984, Control_c, 0, 64, 54
1, 92998, Control_c, 0, 64, 63
1, 93013, Control_c, 0, 64, 69
1, 93028, Control_c, 0, 64, 71
1, 93045, Note_on_c, 0, 69, 57
1, 93050, Note_off_c, 0, 67, 43
1, 93076, Note_off_c, 0, 79, 35
1, 93100, Note_on_c, 0, 63, 51
1, 93103, Control_c, 0, 64, 71
1, 93103, Note_off_c, 0, 69, 61
1, 93107, Note_on_c, 0, 55, 50
1, 93115, Note_on_c, 0, 75, 45
1, 93117, Note_on_c, 0, 57, 29
1, 93124, Note_off_c, 0, 63, 63
1, 93134, Note_off_c, 0, 55, 55
1, 93153, Note_off_c, 0, 57, 44
1, 93173, Note_on_c, 0, 65, 52
1, 93173, Note_on_c, 0, 77, 69
1, 93187, Note_off_c, 0, 75, 55
1, 93238, Note_off_c, 0, 65, 62
1, 93240, Note_on_c, 0, 47, 65
1, 93250, Note_on_c, 0, 69, 53
1, 93250, Note_off_c, 0, 77, 61
1, 93267, Note_off_c, 0, 47, 67
1, 93290, Note_on_c, 0, 75, 54
1, 93302, Note_off_c, 0, 69, 58
1, 93310, Control_c, 0, 64, 71
1, 93339, Control_c, 0, 64, 69
1, 93347, Note_on_c, 0, 78, 85
1, 93351, Note_on_c, 0, 66, 74
1, 93354, Control_c, 0, 64, 67
1, 93368, Note_off_c, 0, 75, 56
1, 93369, Control_c, 0, 64, 65
1, 93371, Note_on_c, 0, 63, 68
1, 93383, Control_c, 0, 64, 63
1, 93396, Note_off_c, 0, 63, 67
1, 93398, Control_c, 0, 64, 62
1, 93403, Note_on_c, 0, 54, 41
1, 93415, Note_on_c, 0, 57, 21
1, 93416, Note_off_c, 0, 66, 63
1, 93426, Note_on_c, 0, 69, 65
1, 93432, Note_off_c, 0, 78, 63
1, 93445, Note_off_c, 0, 54, 46
1, 93453, Note_off_c, 0, 57, 50
1, 93491, Note_off_c, 0, 69, 63
1, 93494, Note_on_c, 0, 75, 76
1, 93511, Note_on_c, 0, 48, 49
1, 93524, Control_c, 0, 64, 62
1, 93543, Note_off_c, 0, 48, 54
1, 93550, Note_on_c, 0, 67, 84
1, 93550, Note_on_c, 0, 79, 79
1, 93573, Note_on_c, 0, 63, 75
1, 93583, Control_c, 0, 64, 63
1, 93584, Note_off_c, 0, 75, 58
1, 93588, Note_on_c, 0, 57, 47
1, 93592, Note_on_c, 0, 54, 46
1, 93594, Note_off_c, 0, 63, 72
1, 93618, Note_off_c, 0, 57, 54
1, 93620, Note_off_c, 0, 54, 56
1, 93625, Note_on_c, 0, 69, 67
1, 93627, Note_off_c, 0, 79, 54
1, 93628, Control_c, 0, 64, 63
1, 93643, Control_c, 0, 64, 64
1, 93650, Note_off_c, 0, 67, 65
1, 93659, Control_c, 0, 64, 66
1, 93673, Control_c, 0, 64, 66
1, 93678, Note_off_c, 0, 69, 65
1, 93681, Note_on_c, 0, 75, 83
1, 93688, Control_c, 0, 64, 67
1, 93703, Control_c, 0, 64, 64
1, 93711, Note_off_c, 0, 75, 61
1, 93718, Control_c, 0, 64, 56
1, 93733, Control_c, 0, 64, 24
1, 93740, Note_on_c, 0, 35, 66
1, 93747, Control_c, 0, 64, 0
1, 93763, Note_off_c, 0, 35, 63
1, 93798, Note_on_c, 0, 80, 88
1, 93805, Note_on_c, 0, 68, 81
1, 93807, Control_c, 0, 64, 13
1, 93821, Control_c, 0, 64, 32
1, 93836, Control_c, 0, 64, 44
1, 93851, Control_c, 0, 64, 52
1, 93866, Control_c, 0, 64, 57
1, 93881, Control_c, 0, 64, 58
1, 93881, Note_off_c, 0, 80, 63
1, 93887, Note_on_c, 0, 75, 74
1, 93895, Note_off_c, 0, 68, 60
1, 93896, Control_c, 0, 64, 58
1, 93916, Note_on_c, 0, 63, 62
1, 93916, Note_on_c, 0, 54, 67
1, 93926, Note_on_c, 0, 57, 44
1, 93928, Note_on_c, 0, 78, 79
1, 93934, Note_off_c, 0, 75, 63
1, 93938, Note_off_c, 0, 63, 60
1, 93948, Note_off_c, 0, 54, 67
1, 93952, Note_off_c, 0, 57, 58
1, 93994, Note_on_c, 0, 69, 80
1, 94005, Note_on_c, 0, 81, 70
1, 94006, Note_on_c, 0, 83, 71
1, 94007, Note_off_c, 0, 78, 53
1, 94027, Note_on_c, 0, 71, 49
1, 94028, Note_off_c, 0, 71, 127
1, 94043, Note_on_c, 0, 45, 62
1, 94066, Note_off_c, 0, 45, 61
1, 94073, Note_off_c, 0, 83, 48
1, 94077, Note_on_c, 0, 75, 72
1, 94080, Note_off_c, 0, 81, 62
1, 94087, Note_off_c, 0, 69, 59
1, 94110, Note_on_c, 0, 78, 74
1, 94116, Note_off_c, 0, 75, 62
1, 94118, Control_c, 0, 64, 57
1, 94132, Note_off_c, 0, 78, 72
1, 94133, Control_c, 0, 64, 57
1, 94177, Control_c, 0, 64, 56
1, 94193, Note_on_c, 0, 57, 46
1, 94197, Note_on_c, 0, 66, 63
1, 94203, Note_on_c, 0, 84, 82
1, 94206, Control_c, 0, 64, 56
1, 94208, Note_on_c, 0, 60, 42
1, 94241, Note_off_c, 0, 66, 49
1, 94249, Note_on_c, 0, 72, 32
1, 94259, Control_c, 0, 64, 55
1, 94261, Note_off_c, 0, 60, 45
1, 94274, Control_c, 0, 64, 54
1, 94288, Control_c, 0, 64, 53
1, 94295, Note_off_c, 0, 57, 31
1, 94303, Control_c, 0, 64, 52
1, 94318, Control_c, 0, 64, 52
1, 94325, Note_on_c, 0, 75, 59
1, 94333, Control_c, 0, 64, 51
1, 94347, Control_c, 0, 64, 51
1, 94355, Note_off_c, 0, 72, 43
1, 94358, Note_off_c, 0, 84, 61
1, 94360, Note_on_c, 0, 51, 53
1, 94362, Control_c, 0, 64, 50
1, 94377, Control_c, 0, 64, 49
1, 94378, Note_off_c, 0, 75, 52
1, 94385, Note_on_c, 0, 78, 55
1, 94392, Control_c, 0, 64, 47
1, 94406, Control_c, 0, 64, 43
1, 94421, Control_c, 0, 64, 34
1, 94436, Control_c, 0, 64, 0
1, 94463, Note_on_c, 0, 83, 70
1, 94464, Note_off_c, 0, 78, 65
1, 94519, Note_on_c, 0, 71, 23
1, 94521, Note_off_c, 0, 51, 53
1, 94526, Control_c, 0, 64, 22
1, 94541, Control_c, 0, 64, 35
1, 94542, Note_on_c, 0, 57, 50
1, 94550, Note_on_c, 0, 66, 39
1, 94556, Control_c, 0, 64, 47
1, 94570, Control_c, 0, 64, 58
1, 94574, Note_on_c, 0, 59, 29
1, 94579, Note_off_c, 0, 57, 62
1, 94580, Note_off_c, 0, 66, 50
1, 94585, Control_c, 0, 64, 65
1, 94599, Note_on_c, 0, 75, 60
1, 94600, Control_c, 0, 64, 67
1, 94611, Note_off_c, 0, 59, 53
1, 94675, Note_on_c, 0, 78, 70
1, 94694, Note_off_c, 0, 83, 51
1, 94704, Note_off_c, 0, 75, 55
1, 94707, Note_off_c, 0, 71, 46
1, 94748, Note_off_c, 0, 78, 64
1, 94808, Control_c, 0, 64, 66
1, 94822, Control_c, 0, 64, 62
1, 94824, Note_on_c, 0, 40, 46
1, 94837, Control_c, 0, 64, 55
1, 94852, Control_c, 0, 64, 39
1, 94867, Control_c, 0, 64, 0
1, 94885, Note_on_c, 0, 79, 69
1, 94904, Note_off_c, 0, 40, 64
1, 94911, Control_c, 0, 64, 14
1, 94926, Control_c, 0, 64, 25
1, 94930, Note_on_c, 0, 77, 14
1, 94941, Control_c, 0, 64, 33
1, 94956, Control_c, 0, 64, 40
1, 94978, Control_c, 0, 64, 47
1, 94993, Control_c, 0, 64, 52
1, 95007, Control_c, 0, 64, 56
1, 95022, Note_on_c, 0, 67, 56
1, 95022, Control_c, 0, 64, 58
1, 95037, Control_c, 0, 64, 59
1, 95111, Control_c, 0, 64, 58
1, 95127, Control_c, 0, 64, 58
1, 95129, Note_off_c, 0, 77, 17
1, 95139, Note_on_c, 0, 55, 42
1, 95139, Note_off_c, 0, 67, 53
1, 95142, Control_c, 0, 64, 57
1, 95142, Note_on_c, 0, 71, 43
1, 95143, Note_on_c, 0, 66, 52
1, 95156, Control_c, 0, 64, 56
1, 95165, Note_off_c, 0, 66, 58
1, 95169, Note_off_c, 0, 55, 62
1, 95171, Note_on_c, 0, 59, 10
1, 95171, Control_c, 0, 64, 55
1, 95183, Note_off_c, 0, 71, 49
1, 95186, Control_c, 0, 64, 54
1, 95205, Note_on_c, 0, 78, 75
1, 95215, Note_off_c, 0, 59, 53
1, 95216, Control_c, 0, 64, 53
1, 95230, Control_c, 0, 64, 52
1, 95246, Control_c, 0, 64, 51
1, 95261, Control_c, 0, 64, 51
1, 95291, Control_c, 0, 64, 50
1, 95294, Note_on_c, 0, 67, 58
1, 95300, Note_on_c, 0, 43, 58
1, 95300, Note_off_c, 0, 78, 64
1, 95305, Control_c, 0, 64, 48
1, 95320, Control_c, 0, 64, 47
1, 95329, Note_off_c, 0, 43, 55
1, 95335, Control_c, 0, 64, 45
1, 95350, Control_c, 0, 64, 44
1, 95360, Note_on_c, 0, 71, 53
1, 95365, Control_c, 0, 64, 43
1, 95369, Note_off_c, 0, 67, 57
1, 95380, Control_c, 0, 64, 43
1, 95394, Control_c, 0, 64, 41
1, 95401, Note_on_c, 0, 76, 76
1, 95409, Note_off_c, 0, 71, 59
1, 95409, Control_c, 0, 64, 39
1, 95424, Control_c, 0, 64, 36
1, 95428, Note_on_c, 0, 64, 59
1, 95439, Control_c, 0, 64, 32
1, 95451, Note_on_c, 0, 55, 52
1, 95453, Control_c, 0, 64, 28
1, 95455, Note_off_c, 0, 64, 65
1, 95468, Control_c, 0, 64, 23
1, 95477, Note_on_c, 0, 67, 71
1, 95483, Control_c, 0, 64, 18
1, 95495, Note_off_c, 0, 55, 64
1, 95498, Control_c, 0, 64, 12
1, 95513, Control_c, 0, 64, 0
1, 95522, Note_off_c, 0, 79, 32
1, 95530, Note_on_c, 0, 71, 65
1, 95550, Note_off_c, 0, 67, 55
1, 95552, Note_off_c, 0, 76, 58
1, 95556, Note_on_c, 0, 47, 52
1, 95584, Note_off_c, 0, 47, 57
1, 95587, Control_c, 0, 64, 11
1, 95591, Note_on_c, 0, 74, 76
1, 95601, Control_c, 0, 64, 18
1, 95610, Note_off_c, 0, 71, 64
1, 95616, Control_c, 0, 64, 23
1, 95631, Control_c, 0, 64, 27
1, 95645, Control_c, 0, 64, 29
1, 95657, Note_on_c, 0, 67, 69
1, 95660, Control_c, 0, 64, 30
1, 95675, Control_c, 0, 64, 32
1, 95676, Note_on_c, 0, 55, 42
1, 95690, Control_c, 0, 64, 34
1, 95696, Note_on_c, 0, 62, 33
1, 95705, Control_c, 0, 64, 36
1, 95723, Note_on_c, 0, 71, 65
1, 95727, Control_c, 0, 64, 38
1, 95728, Note_off_c, 0, 55, 61
1, 95735, Note_off_c, 0, 62, 52
1, 95738, Note_off_c, 0, 74, 55
1, 95742, Control_c, 0, 64, 40
1, 95745, Note_off_c, 0, 67, 58
1, 95786, Control_c, 0, 64, 39
1, 95794, Note_off_c, 0, 71, 62
1, 95801, Control_c, 0, 64, 38
1, 95816, Control_c, 0, 64, 32
1, 95817, Note_on_c, 0, 79, 69
1, 95831, Control_c, 0, 64, 22
1, 95833, Note_on_c, 0, 52, 40
1, 95845, Control_c, 0, 64, 0
1, 95889, Note_off_c, 0, 52, 58
1, 95909, Note_on_c, 0, 67, 55
1, 95934, Control_c, 0, 64, 19
1, 95949, Control_c, 0, 64, 22
1, 95960, Note_off_c, 0, 67, 59
1, 95964, Control_c, 0, 64, 24
1, 95972, Note_on_c, 0, 71, 53
1, 95976, Note_on_c, 0, 60, 39
1, 95979, Control_c, 0, 64, 25
1, 96003, Note_off_c, 0, 60, 59
1, 96027, Poly_aftertouch_c, 0, 55, 127
1, 96028, Note_off_c, 0, 71, 64
1, 96042, Note_on_c, 0, 72, 59
1, 96056, Note_off_c, 0, 79, 25
1, 96061, Poly_aftertouch_c, 0, 55, 0
1, 96102, Note_on_c, 0, 47, 41
1, 96106, Note_on_c, 0, 67, 47
1, 96128, Note_off_c, 0, 72, 57
1, 96134, Note_off_c, 0, 47, 58
1, 96151, Note_on_c, 0, 71, 57
1, 96157, Note_off_c, 0, 67, 59
1, 96194, Note_off_c, 0, 71, 59
1, 96214, Note_on_c, 0, 55, 50
1, 96218, Note_on_c, 0, 79, 68
1, 96220, Note_on_c, 0, 59, 50
1, 96244, Note_off_c, 0, 55, 66
1, 96244, Note_off_c, 0, 59, 59
1, 96276, Control_c, 0, 64, 26
1, 96289, Note_on_c, 0, 67, 57
1, 96306, Control_c, 0, 64, 27
1, 96307, Note_off_c, 0, 79, 52
1, 96321, Control_c, 0, 64, 28
1, 96331, Note_on_c, 0, 71, 50
1, 96336, Control_c, 0, 64, 28
1, 96350, Control_c, 0, 64, 29
1, 96358, Note_off_c, 0, 67, 51
1, 96365, Control_c, 0, 64, 29
1, 96368, Note_on_c, 0, 40, 44
1, 96380, Control_c, 0, 64, 31
1, 96394, Control_c, 0, 64, 33
1, 96395, Note_off_c, 0, 71, 59
1, 96402, Note_off_c, 0, 40, 54
1, 96405, Note_on_c, 0, 76, 61
1, 96409, Control_c, 0, 64, 37
1, 96424, Control_c, 0, 64, 40
1, 96439, Control_c, 0, 64, 42
1, 96454, Control_c, 0, 64, 44
1, 96476, Control_c, 0, 64, 45
1, 96489, Note_on_c, 0, 67, 55
1, 96491, Control_c, 0, 64, 46
1, 96524, Note_on_c, 0, 59, 33
1, 96542, Note_off_c, 0, 67, 54
1, 96555, Note_off_c, 0, 76, 52
1, 96557, Note_off_c, 0, 59, 49
1, 96562, Note_on_c, 0, 71, 48
1, 96569, Poly_aftertouch_c, 0, 55, 127
1, 96594, Control_c, 0, 64, 46
1, 96599, Poly_aftertouch_c, 0, 55, 0
1, 96609, Control_c, 0, 64, 45
1, 96623, Control_c, 0, 64, 40
1, 96625, Note_off_c, 0, 71, 53
1, 96638, Control_c, 0, 64, 31
1, 96653, Control_c, 0, 64, 15
1, 96665, Note_on_c, 0, 39, 50
1, 96668, Control_c, 0, 64, 0
1, 96704, Note_on_c, 0, 79, 62
1, 96704, Note_off_c, 0, 39, 64
1, 96712, Control_c, 0, 64, 16
1, 96727, Control_c, 0, 64, 27
1, 96735, Note_on_c, 0, 67, 50
1, 96742, Control_c, 0, 64, 34
1, 96757, Control_c, 0, 64, 41
1, 96772, Control_c, 0, 64, 46
1, 96787, Control_c, 0, 64, 51
1, 96801, Control_c, 0, 64, 55
1, 96812, Note_off_c, 0, 67, 62
1, 96816, Control_c, 0, 64, 56
1, 96823, Note_on_c, 0, 69, 53
1, 96831, Control_c, 0, 64, 56
1, 96832, Note_off_c, 0, 79, 55
1, 96862, Control_c, 0, 64, 56
1, 96876, Control_c, 0, 64, 55
1, 96881, Note_on_c, 0, 55, 46
1, 96885, Note_off_c, 0, 69, 63
1, 96891, Control_c, 0, 64, 54
1, 96905, Note_on_c, 0, 72, 43
1, 96906, Control_c, 0, 64, 53
1, 96906, Note_on_c, 0, 60, 5
1, 96909, Note_off_c, 0, 55, 53
1, 96921, Control_c, 0, 64, 52
1, 96930, Poly_aftertouch_c, 0, 57, 127
1, 96936, Control_c, 0, 64, 49
1, 96946, Note_on_c, 0, 77, 76
1, 96951, Control_c, 0, 64, 46
1, 96955, Note_off_c, 0, 60, 51
1, 96959, Note_on_c, 0, 65, 58
1, 96966, Control_c, 0, 64, 42
1, 96968, Poly_aftertouch_c, 0, 57, 0
1, 96972, Note_off_c, 0, 72, 40
1, 96980, Control_c, 0, 64, 38
1, 96995, Control_c, 0, 64, 38
1, 97010, Control_c, 0, 64, 38
1, 97022, Note_on_c, 0, 45, 55
1, 97024, Control_c, 0, 64, 39
1, 97025, Note_on_c, 0, 69, 63
1, 97037, Note_off_c, 0, 77, 62
1, 97039, Control_c, 0, 64, 40
1, 97040, Note_off_c, 0, 65, 46
1, 97048, Note_off_c, 0, 45, 58
1, 97054, Control_c, 0, 64, 41
1, 97069, Note_on_c, 0, 72, 66
1, 97069, Control_c, 0, 64, 42
1, 97076, Note_off_c, 0, 69, 61
1, 97084, Control_c, 0, 64, 45
1, 97098, Control_c, 0, 64, 47
1, 97113, Control_c, 0, 64, 49
1, 97124, Note_on_c, 0, 78, 83
1, 97127, Note_on_c, 0, 66, 79
1, 97128, Control_c, 0, 64, 50
1, 97130, Note_off_c, 0, 72, 62
1, 97143, Control_c, 0, 64, 52
1, 97144, Note_on_c, 0, 60, 62
1, 97158, Control_c, 0, 64, 53
1, 97160, Note_on_c, 0, 54, 46
1, 97171, Note_off_c, 0, 60, 64
1, 97172, Control_c, 0, 64, 54
1, 97187, Control_c, 0, 64, 55
1, 97192, Note_off_c, 0, 54, 50
1, 97196, Note_off_c, 0, 78, 66
1, 97201, Note_off_c, 0, 66, 63
1, 97202, Control_c, 0, 64, 56
1, 97207, Note_on_c, 0, 69, 71
1, 97224, Control_c, 0, 64, 58
1, 97239, Control_c, 0, 64, 59
1, 97254, Control_c, 0, 64, 61
1, 97256, Note_on_c, 0, 72, 75
1, 97260, Note_off_c, 0, 69, 63
1, 97269, Note_on_c, 0, 48, 46
1, 97269, Control_c, 0, 64, 61
1, 97284, Control_c, 0, 64, 62
1, 97299, Note_off_c, 0, 48, 57
1, 97313, Control_c, 0, 64, 62
1, 97324, Note_off_c, 0, 72, 39
1, 97324, Note_on_c, 0, 79, 90
1, 97327, Note_on_c, 0, 67, 85
1, 97328, Control_c, 0, 64, 63
1, 97343, Control_c, 0, 64, 63
1, 97351, Note_on_c, 0, 63, 69
1, 97358, Control_c, 0, 64, 64
1, 97359, Note_on_c, 0, 54, 50
1, 97370, Note_off_c, 0, 63, 66
1, 97373, Control_c, 0, 64, 64
1, 97387, Control_c, 0, 64, 65
1, 97390, Note_off_c, 0, 54, 51
1, 97402, Control_c, 0, 64, 65
1, 97407, Note_on_c, 0, 69, 78
1, 97411, Note_off_c, 0, 79, 59
1, 97416, Control_c, 0, 64, 66
1, 97419, Note_off_c, 0, 67, 65
1, 97431, Control_c, 0, 64, 68
1, 97446, Control_c, 0, 64, 70
1, 97448, Note_on_c, 0, 72, 71
1, 97454, Note_off_c, 0, 69, 66
1, 97461, Control_c, 0, 64, 71
1, 97477, Note_off_c, 0, 72, 64
1, 97491, Control_c, 0, 64, 66
1, 97505, Control_c, 0, 64, 54
1, 97508, Note_on_c, 0, 38, 76
1, 97520, Control_c, 0, 64, 0
1, 97536, Note_off_c, 0, 38, 66
1, 97546, Note_on_c, 0, 68, 80
1, 97546, Note_on_c, 0, 80, 74
1, 97574, Note_on_c, 0, 81, 53
1, 97577, Note_off_c, 0, 80, 0
1, 97577, Note_on_c, 0, 80, 38
1, 97595, Control_c, 0, 64, 24
1, 97599, Note_off_c, 0, 81, 59
1, 97607, Note_on_c, 0, 72, 78
1, 97610, Control_c, 0, 64, 41
1, 97615, Note_off_c, 0, 68, 59
1, 97623, Note_off_c, 0, 80, 59
1, 97624, Control_c, 0, 64, 54
1, 97640, Control_c, 0, 64, 63
1, 97654, Control_c, 0, 64, 67
1, 97663, Note_on_c, 0, 78, 80
1, 97669, Control_c, 0, 64, 68
1, 97672, Note_on_c, 0, 63, 68
1, 97678, Note_on_c, 0, 54, 61
1, 97679, Note_off_c, 0, 72, 64
1, 97685, Note_on_c, 0, 75, 47
1, 97690, Note_on_c, 0, 60, 35
1, 97699, Note_off_c, 0, 63, 67
1, 97707, Note_off_c, 0, 54, 67
1, 97713, Note_off_c, 0, 75, 52
1, 97714, Control_c, 0, 64, 69
1, 97721, Note_off_c, 0, 60, 53
1, 97726, Note_on_c, 0, 69, 90
1, 97729, Control_c, 0, 64, 72
1, 97741, Note_on_c, 0, 81, 81
1, 97744, Control_c, 0, 64, 74
1, 97759, Control_c, 0, 64, 76
1, 97768, Note_off_c, 0, 78, 62
1, 97774, Control_c, 0, 64, 76
1, 97803, Note_on_c, 0, 72, 80
1, 97817, Note_off_c, 0, 81, 59
1, 97822, Note_on_c, 0, 45, 43
1, 97833, Note_off_c, 0, 69, 64
1, 97848, Note_off_c, 0, 72, 65
1, 97855, Note_off_c, 0, 45, 54
1, 97861, Note_on_c, 0, 78, 78
1, 97884, Note_off_c, 0, 78, 72
1, 97896, Poly_aftertouch_c, 0, 43, 0
1, 97936, Control_c, 0, 64, 77
1, 97953, Note_on_c, 0, 60, 50
1, 97955, Note_on_c, 0, 63, 62
1, 97959, Note_on_c, 0, 87, 88
1, 97971, Note_on_c, 0, 54, 50
1, 97978, Note_on_c, 0, 75, 75
1, 98004, Note_off_c, 0, 63, 62
1, 98018, Note_off_c, 0, 60, 59
1, 98019, Note_off_c, 0, 54, 53
1, 98033, Control_c, 0, 64, 76
1, 98047, Control_c, 0, 64, 76
1, 98062, Control_c, 0, 64, 75
1, 98063, Note_on_c, 0, 78, 69
1, 98064, Note_off_c, 0, 75, 59
1, 98077, Control_c, 0, 64, 74
1, 98080, Note_off_c, 0, 87, 64
1, 98092, Control_c, 0, 64, 73
1, 98107, Control_c, 0, 64, 72
1, 98122, Control_c, 0, 64, 71
1, 98123, Note_off_c, 0, 78, 65
1, 98128, Note_on_c, 0, 81, 67
1, 98137, Control_c, 0, 64, 70
1, 98137, Note_on_c, 0, 50, 63
1, 98152, Control_c, 0, 64, 67
1, 98166, Control_c, 0, 64, 64
1, 98181, Control_c, 0, 64, 59
1, 98196, Control_c, 0, 64, 46
1, 98211, Control_c, 0, 64, 16
1, 98215, Note_on_c, 0, 86, 83
1, 98226, Control_c, 0, 64, 0
1, 98231, Note_off_c, 0, 81, 61
1, 98233, Note_on_c, 0, 74, 60
1, 98257, Note_off_c, 0, 50, 35
1, 98285, Control_c, 0, 64, 26
1, 98300, Control_c, 0, 64, 40
1, 98314, Control_c, 0, 64, 54
1, 98315, Note_on_c, 0, 62, 59
1, 98319, Note_on_c, 0, 57, 52
1, 98323, Note_on_c, 0, 60, 48
1, 98328, Note_on_c, 0, 78, 73
1, 98329, Control_c, 0, 64, 68
1, 98337, Note_off_c, 0, 62, 63
1, 98343, Note_off_c, 0, 57, 63
1, 98344, Control_c, 0, 64, 88
1, 98349, Note_off_c, 0, 60, 57
1, 98359, Control_c, 0, 64, 105
1, 98373, Control_c, 0, 64, 105
1, 98403, Control_c, 0, 64, 108
1, 98406, Note_off_c, 0, 74, 52
1, 98417, Note_off_c, 0, 86, 54
1, 98418, Control_c, 0, 64, 117
1, 98433, Control_c, 0, 64, 127
1, 98446, Note_on_c, 0, 81, 90
1, 98455, Note_off_c, 0, 78, 63
1, 98499, Note_off_c, 0, 81, 65
1, 98605, Note_on_c, 0, 43, 44
1, 98626, Control_c, 0, 64, 115
1, 98641, Control_c, 0, 64, 90
1, 98656, Control_c, 0, 64, 69
1, 98671, Control_c, 0, 64, 56
1, 98686, Control_c, 0, 64, 33
1, 98701, Control_c, 0, 64, 0
1, 98707, Note_on_c, 0, 82, 88
1, 98738, Control_c, 0, 64, 15
1, 98752, Control_c, 0, 64, 28
1, 98767, Control_c, 0, 64, 39
1, 98782, Control_c, 0, 64, 50
1, 98790, Note_off_c, 0, 43, 58
1, 98796, Control_c, 0, 64, 61
1, 98811, Control_c, 0, 64, 70
1, 98826, Control_c, 0, 64, 72
1, 98871, Control_c, 0, 64, 73
1, 98886, Control_c, 0, 64, 74
1, 98900, Control_c, 0, 64, 78
1, 98915, Control_c, 0, 64, 81
1, 98930, Control_c, 0, 64, 82
1, 98938, Note_off_c, 0, 82, 62
1, 98942, Note_on_c, 0, 70, 54
1, 99003, Note_off_c, 0, 70, 49
1, 99014, Note_on_c, 0, 58, 52
1, 99017, Note_on_c, 0, 62, 9
1, 99019, Control_c, 0, 64, 81
1, 99027, Note_on_c, 0, 69, 16
1, 99030, Note_on_c, 0, 74, 56
1, 99034, Control_c, 0, 64, 80
1, 99057, Note_off_c, 0, 58, 63
1, 99064, Control_c, 0, 64, 79
1, 99067, Note_off_c, 0, 62, 46
1, 99068, Note_off_c, 0, 69, 56
1, 99078, Control_c, 0, 64, 79
1, 99093, Control_c, 0, 64, 78
1, 99106, Note_off_c, 0, 74, 55
1, 99108, Control_c, 0, 64, 78
1, 99109, Note_on_c, 0, 81, 85
1, 99123, Control_c, 0, 64, 77
1, 99137, Control_c, 0, 64, 77
1, 99152, Control_c, 0, 64, 76
1, 99182, Control_c, 0, 64, 76
1, 99208, Note_on_c, 0, 46, 59
1, 99211, Control_c, 0, 64, 75
1, 99221, Note_on_c, 0, 70, 58
1, 99226, Control_c, 0, 64, 73
1, 99242, Control_c, 0, 64, 71
1, 99249, Note_off_c, 0, 46, 65
1, 99257, Control_c, 0, 64, 69
1, 99272, Control_c, 0, 64, 68
1, 99277, Note_off_c, 0, 81, 56
1, 99286, Control_c, 0, 64, 67
1, 99297, Note_on_c, 0, 74, 64
1, 99299, Note_off_c, 0, 70, 59
1, 99301, Control_c, 0, 64, 66
1, 99316, Control_c, 0, 64, 64
1, 99331, Control_c, 0, 64, 63
1, 99346, Control_c, 0, 64, 63
1, 99349, Note_on_c, 0, 79, 89
1, 99377, Note_on_c, 0, 58, 60
1, 99379, Note_on_c, 0, 67, 46
1, 99384, Note_off_c, 0, 74, 59
1, 99404, Note_off_c, 0, 67, 60
1, 99407, Note_off_c, 0, 58, 64
1, 99424, Note_on_c, 0, 70, 73
1, 99487, Control_c, 0, 64, 63
1, 99493, Note_off_c, 0, 79, 57
1, 99497, Note_off_c, 0, 70, 61
1, 99501, Note_on_c, 0, 50, 63
1, 99501, Note_on_c, 0, 74, 81
1, 99532, Note_off_c, 0, 50, 64
1, 99538, Note_on_c, 0, 77, 89
1, 99546, Control_c, 0, 64, 64
1, 99563, Note_off_c, 0, 74, 64
1, 99590, Control_c, 0, 64, 64
1, 99604, Note_on_c, 0, 70, 86
1, 99608, Note_on_c, 0, 63, 65
1, 99619, Note_on_c, 0, 58, 56
1, 99619, Control_c, 0, 64, 65
1, 99620, Note_off_c, 0, 77, 64
1, 99623, Note_on_c, 0, 55, 39
1, 99634, Note_off_c, 0, 63, 66
1, 99646, Note_off_c, 0, 58, 57
1, 99649, Control_c, 0, 64, 65
1, 99656, Note_off_c, 0, 55, 56
1, 99664, Control_c, 0, 64, 66
1, 99679, Control_c, 0, 64, 67
1, 99681, Note_on_c, 0, 75, 91
1, 99693, Note_off_c, 0, 70, 63
1, 99693, Control_c, 0, 64, 67
1, 99723, Control_c, 0, 64, 64
1, 99738, Control_c, 0, 64, 55
1, 99738, Note_off_c, 0, 75, 62
1, 99753, Control_c, 0, 64, 17
1, 99768, Control_c, 0, 64, 0
1, 99770, Note_on_c, 0, 42, 71
1, 99789, Note_on_c, 0, 84, 88
1, 99811, Note_off_c, 0, 42, 62
1, 99827, Control_c, 0, 64, 29
1, 99842, Control_c, 0, 64, 44
1, 99857, Control_c, 0, 64, 60
1, 99872, Control_c, 0, 64, 68
1, 99877, Note_on_c, 0, 72, 75
1, 99887, Control_c, 0, 64, 72
1, 99901, Control_c, 0, 64, 72
1, 99916, Control_c, 0, 64, 71
1, 99931, Control_c, 0, 64, 67
1, 99945, Control_c, 0, 64, 59
1, 99947, Note_on_c, 0, 70, 67
1, 99950, Note_on_c, 0, 60, 65
1, 99950, Note_on_c, 0, 75, 80
1, 99960, Note_on_c, 0, 63, 56
1, 99960, Control_c, 0, 64, 48
1, 99963, Note_off_c, 0, 70, 66
1, 99964, Note_off_c, 0, 72, 61
1, 99971, Note_off_c, 0, 60, 66
1, 99973, Note_off_c, 0, 84, 60
1, 99975, Control_c, 0, 64, 26
1, 99983, Note_off_c, 0, 63, 60
1, 99990, Control_c, 0, 64, 0
1, 100003, Note_on_c, 0, 82, 87
1, 100015, Note_off_c, 0, 75, 64
1, 100060, Note_on_c, 0, 41, 81
1, 100072, Note_on_c, 0, 72, 80
1, 100084, Note_off_c, 0, 41, 67
1, 100093, Note_off_c, 0, 82, 68
1, 100141, Note_on_c, 0, 75, 77
1, 100159, Note_off_c, 0, 72, 62
1, 100180, Note_on_c, 0, 69, 66
1, 100194, Note_on_c, 0, 60, 44
1, 100199, Note_on_c, 0, 81, 70
1, 100201, Note_on_c, 0, 84, 73
1, 100212, Note_off_c, 0, 75, 61
1, 100212, Note_off_c, 0, 69, 68
1, 100224, Note_on_c, 0, 63, 26
1, 100226, Note_off_c, 0, 60, 58
1, 100263, Note_off_c, 0, 63, 39
1, 100273, Note_on_c, 0, 72, 70
1, 100333, Note_on_c, 0, 45, 55
1, 100354, Note_on_c, 0, 75, 71
1, 100359, Note_off_c, 0, 45, 59
1, 100363, Note_off_c, 0, 72, 60
1, 100374, Note_off_c, 0, 81, 62
1, 100397, Control_c, 0, 64, 24
1, 100400, Note_off_c, 0, 84, 63
1, 100407, Note_on_c, 0, 78, 76
1, 100412, Control_c, 0, 64, 35
1, 100413, Note_off_c, 0, 75, 60
1, 100427, Control_c, 0, 64, 47
1, 100442, Control_c, 0, 64, 57
1, 100457, Control_c, 0, 64, 62
1, 100468, Note_on_c, 0, 66, 58
1, 100471, Control_c, 0, 64, 64
1, 100477, Note_on_c, 0, 60, 39
1, 100488, Note_off_c, 0, 66, 63
1, 100495, Note_on_c, 0, 72, 52
1, 100508, Note_off_c, 0, 60, 50
1, 100510, Note_off_c, 0, 78, 63
1, 100540, Poly_aftertouch_c, 0, 63, 127
1, 100541, Note_on_c, 0, 75, 72
1, 100567, Poly_aftertouch_c, 0, 63, 0
1, 100590, Note_off_c, 0, 72, 35
1, 100597, Note_off_c, 0, 75, 60
1, 100620, Control_c, 0, 64, 60
1, 100635, Control_c, 0, 64, 49
1, 100649, Control_c, 0, 64, 24
1, 100664, Control_c, 0, 64, 0
1, 100683, Note_on_c, 0, 46, 41
1, 100686, Note_on_c, 0, 85, 73
1, 100709, Control_c, 0, 64, 9
1, 100710, Note_on_c, 0, 86, 61
1, 100723, Control_c, 0, 64, 27
1, 100731, Note_off_c, 0, 46, 65
1, 100738, Control_c, 0, 64, 37
1, 100739, Note_off_c, 0, 86, 49
1, 100753, Control_c, 0, 64, 46
1, 100767, Control_c, 0, 64, 56
1, 100782, Control_c, 0, 64, 63
1, 100797, Control_c, 0, 64, 66
1, 100809, Note_on_c, 0, 73, 71
1, 100812, Control_c, 0, 64, 66
1, 100837, Note_off_c, 0, 85, 62
1, 100889, Note_off_c, 0, 73, 62
1, 100895, Note_on_c, 0, 77, 69
1, 100896, Note_on_c, 0, 61, 59
1, 100904, Note_on_c, 0, 65, 36
1, 100906, Note_on_c, 0, 72, 14
1, 100927, Note_off_c, 0, 61, 65
1, 100935, Note_on_c, 0, 84, 86
1, 100938, Note_off_c, 0, 65, 53
1, 100948, Note_off_c, 0, 72, 50
1, 100990, Note_off_c, 0, 77, 54
1, 101016, Note_on_c, 0, 73, 81
1, 101037, Note_on_c, 0, 49, 63
1, 101060, Note_off_c, 0, 49, 65
1, 101087, Control_c, 0, 64, 66
1, 101091, Note_off_c, 0, 84, 61
1, 101092, Note_on_c, 0, 77, 78
1, 101097, Note_off_c, 0, 73, 61
1, 101142, Note_on_c, 0, 82, 91
1, 101146, Control_c, 0, 64, 66
1, 101148, Note_on_c, 0, 70, 82
1, 101161, Note_on_c, 0, 61, 66
1, 101168, Note_off_c, 0, 70, 72
1, 101169, Note_on_c, 0, 65, 40
1, 101181, Note_off_c, 0, 77, 57
1, 101187, Note_off_c, 0, 61, 67
1, 101190, Control_c, 0, 64, 67
1, 101199, Note_on_c, 0, 73, 83
1, 101203, Note_off_c, 0, 65, 53
1, 101205, Control_c, 0, 64, 68
1, 101220, Control_c, 0, 64, 68
1, 101235, Control_c, 0, 64, 69
1, 101264, Control_c, 0, 64, 70
1, 101268, Note_on_c, 0, 53, 72
1, 101270, Note_on_c, 0, 77, 85
1, 101272, Note_off_c, 0, 82, 63
1, 101292, Note_off_c, 0, 53, 69
1, 101293, Note_off_c, 0, 73, 58
1, 101309, Control_c, 0, 64, 70
1, 101318, Note_on_c, 0, 80, 92
1, 101324, Control_c, 0, 64, 71
1, 101336, Note_off_c, 0, 77, 62
1, 101339, Control_c, 0, 64, 71
1, 101354, Control_c, 0, 64, 72
1, 101369, Control_c, 0, 64, 72
1, 101380, Note_on_c, 0, 58, 68
1, 101381, Note_on_c, 0, 73, 82
1, 101384, Control_c, 0, 64, 73
1, 101384, Note_on_c, 0, 61, 52
1, 101387, Note_on_c, 0, 66, 48
1, 101398, Control_c, 0, 64, 75
1, 101398, Note_off_c, 0, 80, 63
1, 101410, Note_off_c, 0, 58, 61
1, 101410, Note_off_c, 0, 61, 61
1, 101412, Note_off_c, 0, 66, 57
1, 101413, Control_c, 0, 64, 78
1, 101428, Control_c, 0, 64, 81
1, 101442, Note_on_c, 0, 78, 92
1, 101443, Control_c, 0, 64, 84
1, 101457, Control_c, 0, 64, 84
1, 101464, Note_off_c, 0, 73, 65
1, 101472, Control_c, 0, 64, 79
1, 101487, Control_c, 0, 64, 64
1, 101497, Note_off_c, 0, 78, 67
1, 101502, Control_c, 0, 64, 44
1, 101516, Control_c, 0, 64, 0
1, 101536, Note_on_c, 0, 45, 72
1, 101548, Note_on_c, 0, 87, 92
1, 101558, Note_off_c, 0, 45, 68
1, 101561, Control_c, 0, 64, 29
1, 101576, Control_c, 0, 64, 51
1, 101590, Control_c, 0, 64, 69
1, 101605, Control_c, 0, 64, 127
1, 101625, Note_on_c, 0, 75, 81
1, 101677, Note_on_c, 0, 73, 73
1, 101677, Note_off_c, 0, 87, 63
1, 101682, Note_on_c, 0, 78, 84
1, 101684, Note_on_c, 0, 63, 75
1, 101684, Note_on_c, 0, 66, 66
1, 101695, Control_c, 0, 64, 78
1, 101696, Note_off_c, 0, 73, 70
1, 101696, Note_off_c, 0, 75, 61
1, 101712, Note_off_c, 0, 66, 66
1, 101717, Control_c, 0, 64, 61
1, 101719, Note_off_c, 0, 63, 67
1, 101732, Control_c, 0, 64, 40
1, 101739, Note_on_c, 0, 85, 85
1, 101747, Control_c, 0, 64, 0
1, 101753, Note_off_c, 0, 78, 65
1, 101810, Note_on_c, 0, 75, 86
1, 101814, Note_on_c, 0, 44, 76
1, 101825, Note_off_c, 0, 85, 67
1, 101835, Note_off_c, 0, 44, 62
1, 101872, Note_on_c, 0, 78, 85
1, 101900, Note_off_c, 0, 75, 59
1, 101932, Note_on_c, 0, 87, 72
1, 101935, Note_on_c, 0, 63, 77
1, 101937, Note_on_c, 0, 72, 76
1, 101939, Note_on_c, 0, 84, 80
1, 101949, Note_on_c, 0, 66, 59
1, 101951, Note_off_c, 0, 72, 69
1, 101954, Note_off_c, 0, 78, 67
1, 101956, Control_c, 0, 64, 30
1, 101957, Note_off_c, 0, 63, 70
1, 101970, Control_c, 0, 64, 45
1, 101971, Note_off_c, 0, 66, 59
1, 101985, Control_c, 0, 64, 61
1, 101998, Note_on_c, 0, 75, 89
1, 102000, Control_c, 0, 64, 88
1, 102014, Control_c, 0, 64, 127
1, 102052, Note_on_c, 0, 48, 90
1, 102067, Note_on_c, 0, 78, 88
1, 102077, Note_off_c, 0, 48, 71
1, 102077, Note_off_c, 0, 84, 59
1, 102078, Note_off_c, 0, 87, 60
1, 102113, Note_off_c, 0, 75, 60
1, 102129, Note_on_c, 0, 81, 89
1, 102146, Note_off_c, 0, 78, 68
1, 102178, Note_on_c, 0, 66, 70
1, 102193, Note_on_c, 0, 75, 88
1, 102194, Note_on_c, 0, 62, 54
1, 102197, Note_off_c, 0, 66, 63
1, 102215, Note_off_c, 0, 81, 62
1, 102216, Note_off_c, 0, 62, 61
1, 102248, Poly_aftertouch_c, 0, 67, 127
1, 102250, Note_on_c, 0, 80, 91
1, 102274, Note_off_c, 0, 75, 64
1, 102283, Note_on_c, 0, 79, 71
1, 102286, Poly_aftertouch_c, 0, 67, 0
1, 102301, Note_off_c, 0, 79, 68
1, 102307, Note_off_c, 0, 80, 53
1, 102355, Control_c, 0, 64, 82
1, 102360, Note_on_c, 0, 46, 69
1, 102369, Note_on_c, 0, 49, 55
1, 102370, Control_c, 0, 64, 48
1, 102385, Control_c, 0, 64, 0
1, 102419, Note_off_c, 0, 46, 61
1, 102425, Note_on_c, 0, 89, 99
1, 102445, Control_c, 0, 64, 36
1, 102467, Control_c, 0, 64, 56
1, 102482, Control_c, 0, 64, 84
1, 102490, Note_off_c, 0, 49, 38
1, 102497, Control_c, 0, 64, 127
1, 102541, Note_on_c, 0, 77, 73
1, 102614, Note_on_c, 0, 80, 82
1, 102615, Note_on_c, 0, 75, 72
1, 102618, Note_on_c, 0, 65, 56
1, 102629, Note_off_c, 0, 77, 59
1, 102633, Note_on_c, 0, 68, 60
1, 102638, Note_off_c, 0, 75, 68
1, 102646, Note_off_c, 0, 89, 60
1, 102648, Note_off_c, 0, 65, 67
1, 102654, Note_off_c, 0, 68, 60
1, 102670, Note_on_c, 0, 87, 90
1, 102671, Note_off_c, 0, 80, 60
1, 102701, Note_on_c, 0, 89, 27
1, 102743, Note_on_c, 0, 77, 88
1, 102747, Note_off_c, 0, 89, 0
1, 102747, Note_on_c, 0, 89, 11
1, 102750, Note_on_c, 0, 53, 77
1, 102770, Note_off_c, 0, 87, 65
1, 102771, Note_off_c, 0, 53, 70
1, 102806, Note_off_c, 0, 89, 0
1, 102806, Note_on_c, 0, 89, 14
1, 102811, Note_on_c, 0, 80, 85
1, 102823, Control_c, 0, 64, 73
1, 102836, Note_off_c, 0, 77, 60
1, 102837, Control_c, 0, 64, 53
1, 102852, Control_c, 0, 64, 23
1, 102866, Note_on_c, 0, 85, 81
1, 102867, Control_c, 0, 64, 0
1, 102871, Note_on_c, 0, 73, 89
1, 102882, Note_on_c, 0, 65, 65
1, 102886, Note_off_c, 0, 80, 63
1, 102890, Note_on_c, 0, 68, 71
1, 102897, Control_c, 0, 64, 25
1, 102901, Note_off_c, 0, 73, 67
1, 102911, Control_c, 0, 64, 48
1, 102922, Note_off_c, 0, 68, 57
1, 102924, Note_on_c, 0, 77, 74
1, 102926, Control_c, 0, 64, 69
1, 102941, Control_c, 0, 64, 127
1, 102943, Note_off_c, 0, 65, 61
1, 102990, Note_on_c, 0, 56, 80
1, 102999, Note_on_c, 0, 80, 85
1, 103002, Note_off_c, 0, 85, 63
1, 103030, Note_off_c, 0, 89, 31
1, 103037, Note_off_c, 0, 56, 65
1, 103054, Note_on_c, 0, 84, 86
1, 103057, Note_off_c, 0, 77, 59
1, 103080, Note_off_c, 0, 80, 65
1, 103098, Note_on_c, 0, 72, 89
1, 103101, Note_on_c, 0, 68, 80
1, 103102, Note_on_c, 0, 65, 56
1, 103115, Note_on_c, 0, 77, 90
1, 103116, Note_off_c, 0, 72, 70
1, 103124, Note_off_c, 0, 68, 67
1, 103133, Note_off_c, 0, 65, 66
1, 103148, Note_off_c, 0, 84, 63
1, 103189, Note_on_c, 0, 80, 92
1, 103208, Note_on_c, 0, 88, 25
1, 103220, Note_on_c, 0, 89, 10
1, 103241, Note_off_c, 0, 77, 61
1, 103249, Note_off_c, 0, 88, 54
1, 103275, Note_off_c, 0, 89, 50
1, 103290, Control_c, 0, 64, 65
1, 103292, Note_on_c, 0, 47, 84
1, 103305, Control_c, 0, 64, 8
1, 103320, Control_c, 0, 64, 0
1, 103324, Note_off_c, 0, 80, 60
1, 103341, Note_on_c, 0, 89, 94
1, 103364, Control_c, 0, 64, 19
1, 103378, Note_off_c, 0, 47, 66
1, 103379, Control_c, 0, 64, 43
1, 103393, Control_c, 0, 64, 64
1, 103408, Control_c, 0, 64, 127
1, 103449, Note_on_c, 0, 75, 79
1, 103454, Note_off_c, 0, 89, 38
1, 103458, Note_on_c, 0, 86, 12
1, 103510, Note_off_c, 0, 86, 50
1, 103510, Poly_aftertouch_c, 0, 88, 127
1, 103524, Note_off_c, 0, 75, 61
1, 103530, Note_on_c, 0, 66, 46
1, 103540, Note_on_c, 0, 63, 56
1, 103540, Poly_aftertouch_c, 0, 88, 0
1, 103548, Note_on_c, 0, 71, 39
1, 103559, Note_off_c, 0, 66, 57
1, 103562, Note_on_c, 0, 80, 40
1, 103578, Note_off_c, 0, 63, 64
1, 103579, Note_off_c, 0, 71, 56
1, 103587, Note_on_c, 0, 83, 80
1, 103589, Note_off_c, 0, 80, 55
1, 103636, Poly_aftertouch_c, 0, 68, 0
1, 103668, Note_on_c, 0, 75, 83
1, 103687, Note_off_c, 0, 83, 62
1, 103694, Note_on_c, 0, 53, 75
1, 103699, Note_on_c, 0, 85, 28
1, 103722, Note_off_c, 0, 53, 69
1, 103736, Note_on_c, 0, 80, 83
1, 103739, Note_off_c, 0, 75, 62
1, 103743, Note_off_c, 0, 85, 47
1, 103795, Note_on_c, 0, 89, 92
1, 103804, Note_off_c, 0, 80, 64
1, 103819, Note_on_c, 0, 71, 77
1, 103829, Note_on_c, 0, 65, 59
1, 103829, Note_on_c, 0, 68, 61
1, 103846, Note_on_c, 0, 63, 53
1, 103851, Note_off_c, 0, 89, 58
1, 103855, Note_on_c, 0, 75, 92
1, 103859, Note_off_c, 0, 71, 63
1, 103874, Note_off_c, 0, 68, 52
1, 103892, Note_off_c, 0, 63, 56
1, 103936, Note_on_c, 0, 80, 82
1, 103940, Note_off_c, 0, 75, 64
1, 103944, Note_on_c, 0, 59, 80
1, 103996, Note_on_c, 0, 83, 82
1, 104010, Note_off_c, 0, 80, 65
1, 104053, Note_off_c, 0, 65, 0
1, 104054, Note_off_c, 0, 59, 57
1, 104058, Note_on_c, 0, 75, 89
1, 104072, Note_on_c, 0, 65, 35
1, 104075, Note_on_c, 0, 68, 73
1, 104075, Note_on_c, 0, 71, 71
1, 104076, Note_off_c, 0, 83, 62
1, 104083, Note_on_c, 0, 63, 72
1, 104099, Note_off_c, 0, 71, 67
1, 104100, Note_off_c, 0, 68, 65
1, 104107, Note_off_c, 0, 65, 65
1, 104129, Note_on_c, 0, 80, 91
1, 104129, Note_off_c, 0, 63, 62
1, 104156, Note_off_c, 0, 75, 63
1, 104163, Poly_aftertouch_c, 0, 85, 0
1, 104177, Poly_aftertouch_c, 0, 87, 0
1, 104188, Note_off_c, 0, 80, 65
1, 104202, Control_c, 0, 64, 61
1, 104216, Control_c, 0, 64, 0
1, 104233, Note_on_c, 0, 46, 95
1, 104241, Note_on_c, 0, 89, 104
1, 104246, Control_c, 0, 64, 26
1, 104261, Control_c, 0, 64, 51
1, 104270, Note_off_c, 0, 46, 62
1, 104276, Control_c, 0, 64, 83
1, 104290, Control_c, 0, 64, 127
1, 104294, Note_off_c, 0, 89, 65
1, 104336, Note_on_c, 0, 74, 86
1, 104361, Note_on_c, 0, 86, 39
1, 104392, Note_off_c, 0, 86, 56
1, 104407, Note_on_c, 0, 70, 81
1, 104410, Note_on_c, 0, 65, 56
1, 104421, Note_on_c, 0, 62, 77
1, 104427, Note_on_c, 0, 82, 90
1, 104430, Note_on_c, 0, 80, 80
1, 104430, Note_off_c, 0, 70, 69
1, 104435, Note_on_c, 0, 68, 53
1, 104442, Note_off_c, 0, 74, 62
1, 104449, Note_off_c, 0, 80, 71
1, 104456, Note_off_c, 0, 65, 65
1, 104460, Note_off_c, 0, 68, 57
1, 104466, Note_off_c, 0, 82, 67
1, 104469, Note_off_c, 0, 62, 62
1, 104508, Note_on_c, 0, 89, 96
1, 104558, Note_off_c, 0, 89, 62
1, 104582, Note_on_c, 0, 46, 92
1, 104600, Note_on_c, 0, 74, 93
1, 104612, Note_off_c, 0, 46, 66
1, 104680, Note_on_c, 0, 82, 83
1, 104683, Note_on_c, 0, 80, 87
1, 104689, Note_off_c, 0, 74, 62
1, 104731, Note_off_c, 0, 80, 60
1, 104732, Note_off_c, 0, 82, 65
1, 104788, Note_on_c, 0, 66, 34
1, 104795, Note_on_c, 0, 70, 95
1, 104800, Note_on_c, 0, 90, 110
1, 104811, Note_on_c, 0, 62, 74
1, 104820, Note_on_c, 0, 68, 53
1, 104830, Note_off_c, 0, 70, 66
1, 104842, Note_off_c, 0, 90, 72
1, 104847, Note_off_c, 0, 68, 41
1, 104851, Note_off_c, 0, 66, 63
1, 104857, Note_off_c, 0, 62, 66
1, 104881, Poly_aftertouch_c, 0, 67, 127
1, 104914, Poly_aftertouch_c, 0, 67, 0
1, 104927, Note_on_c, 0, 74, 90
1, 104970, Note_on_c, 0, 85, 27
1, 105003, Note_off_c, 0, 85, 47
1, 105030, Note_off_c, 0, 74, 49
1, 105037, Note_on_c, 0, 46, 101
1, 105047, Note_on_c, 0, 44, 81
1, 105047, Note_on_c, 0, 82, 95
1, 105047, Note_on_c, 0, 80, 91
1, 105068, Note_off_c, 0, 44, 68
1, 105080, Note_off_c, 0, 46, 58
1, 105090, Note_off_c, 0, 80, 65
1, 105101, Note_off_c, 0, 82, 64
1, 105185, Note_on_c, 0, 90, 107
1, 105235, Note_off_c, 0, 90, 72
1, 105347, Note_on_c, 0, 70, 103
1, 105348, Note_on_c, 0, 74, 93
1, 105351, Note_on_c, 0, 62, 84
1, 105351, Note_on_c, 0, 66, 94
1, 105351, Note_on_c, 0, 68, 93
1, 105369, Note_on_c, 0, 63, 66
1, 105376, Note_off_c, 0, 70, 68
1, 105392, Note_off_c, 0, 63, 39
1, 105393, Note_off_c, 0, 68, 63
1, 105402, Note_off_c, 0, 66, 67
1, 105412, Note_off_c, 0, 62, 63
1, 105426, Note_off_c, 0, 74, 68
1, 105433, Poly_aftertouch_c, 0, 82, 127
1, 105437, Poly_aftertouch_c, 0, 84, 127
1, 105444, Poly_aftertouch_c, 0, 85, 127
1, 105470, Poly_aftertouch_c, 0, 84, 0
1, 105520, Poly_aftertouch_c, 0, 82, 0
1, 105527, Poly_aftertouch_c, 0, 85, 0
1, 105581, Note_on_c, 0, 80, 99
1, 105582, Note_on_c, 0, 82, 101
1, 105640, Note_off_c, 0, 80, 64
1, 105649, Note_off_c, 0, 82, 66
1, 105951, Note_on_c, 0, 91, 99
1, 105957, Note_on_c, 0, 51, 113
1, 105957, Note_on_c, 0, 79, 101
1, 105966, Note_on_c, 0, 39, 94
1, 105995, Control_c, 0, 64, 56
1, 106004, Note_on_c, 0, 42, 29
1, 106010, Control_c, 0, 64, 0
1, 106042, Note_off_c, 0, 42, 33
1, 106069, Control_c, 0, 64, 52
1, 106084, Control_c, 0, 64, 127
1, 106108, Note_off_c, 0, 39, 65
1, 106136, Note_off_c, 0, 51, 63
1, 106257, Note_off_c, 0, 91, 49
1, 106285, Note_on_c, 0, 82, 95
1, 106382, Note_on_c, 0, 67, 100
1, 106384, Note_off_c, 0, 79, 57
1, 106389, Note_on_c, 0, 55, 82
1, 106391, Note_on_c, 0, 58, 84
1, 106444, Note_on_c, 0, 87, 97
1, 106453, Note_off_c, 0, 82, 64
1, 106529, Note_off_c, 0, 67, 54
1, 106555, Note_off_c, 0, 87, 61
1, 106564, Note_off_c, 0, 55, 59
1, 106591, Note_on_c, 0, 89, 90
1, 106594, Note_on_c, 0, 77, 94
1, 106594, Note_off_c, 0, 58, 59
1, 106668, Note_off_c, 0, 89, 56
1, 106715, Note_on_c, 0, 79, 82
1, 106738, Note_off_c, 0, 77, 55
1, 106742, Note_on_c, 0, 65, 92
1, 106746, Note_on_c, 0, 58, 78
1, 106749, Note_on_c, 0, 55, 76
1, 106794, Note_on_c, 0, 82, 91
1, 106818, Note_off_c, 0, 79, 61
1, 106851, Note_off_c, 0, 65, 63
1, 106865, Note_off_c, 0, 55, 56
1, 106878, Note_on_c, 0, 87, 92
1, 106880, Note_off_c, 0, 58, 60
1, 106882, Note_on_c, 0, 75, 98
1, 106898, Note_off_c, 0, 82, 60
1, 106964, Note_off_c, 0, 87, 67
1, 106973, Note_on_c, 0, 79, 78
1, 106985, Note_on_c, 0, 63, 79
1, 106996, Note_on_c, 0, 58, 70
1, 106999, Note_off_c, 0, 75, 60
1, 107008, Note_on_c, 0, 55, 64
1, 107028, Note_on_c, 0, 82, 80
1, 107046, Note_off_c, 0, 63, 61
1, 107065, Note_off_c, 0, 58, 60
1, 107073, Note_off_c, 0, 79, 40
1, 107095, Note_on_c, 0, 74, 86
1, 107098, Note_on_c, 0, 86, 85
1, 107116, Note_off_c, 0, 55, 0
1, 107127, Note_on_c, 0, 58, 84
1, 107130, Note_off_c, 0, 82, 63
1, 107134, Note_on_c, 0, 55, 34
1, 107143, Note_on_c, 0, 62, 56
1, 107162, Note_off_c, 0, 58, 65
1, 107164, Note_on_c, 0, 79, 71
1, 107166, Note_off_c, 0, 62, 62
1, 107174, Note_off_c, 0, 55, 52
1, 107203, Note_off_c, 0, 86, 53
1, 107217, Note_on_c, 0, 82, 92
1, 107228, Note_off_c, 0, 74, 61
1, 107236, Note_off_c, 0, 79, 63
1, 107272, Note_off_c, 0, 82, 67
1, 107300, Note_on_c, 0, 39, 71
1, 107300, Control_c, 0, 64, 71
1, 107305, Note_on_c, 0, 51, 65
1, 107314, Control_c, 0, 64, 54
1, 107328, Note_off_c, 0, 39, 67
1, 107328, Note_off_c, 0, 51, 58
1, 107329, Control_c, 0, 64, 47
1, 107336, Note_on_c, 0, 84, 93
1, 107337, Note_on_c, 0, 72, 87
1, 107344, Control_c, 0, 64, 54
1, 107358, Control_c, 0, 64, 66
1, 107373, Control_c, 0, 64, 127
1, 107426, Note_on_c, 0, 75, 77
1, 107429, Note_off_c, 0, 72, 64
1, 107447, Note_off_c, 0, 84, 62
1, 107460, Note_on_c, 0, 51, 59
1, 107463, Note_on_c, 0, 60, 87
1, 107477, Note_on_c, 0, 79, 79
1, 107491, Note_off_c, 0, 75, 63
1, 107497, Note_off_c, 0, 60, 60
1, 107512, Note_on_c, 0, 55, 23
1, 107521, Note_off_c, 0, 51, 54
1, 107545, Note_off_c, 0, 55, 53
1, 107549, Note_on_c, 0, 69, 82
1, 107551, Note_on_c, 0, 81, 85
1, 107572, Note_on_c, 0, 80, 45
1, 107578, Note_off_c, 0, 79, 62
1, 107614, Note_on_c, 0, 59, 75
1, 107617, Note_off_c, 0, 80, 43
1, 107625, Note_on_c, 0, 75, 86
1, 107637, Note_off_c, 0, 81, 65
1, 107639, Note_on_c, 0, 51, 56
1, 107639, Note_off_c, 0, 59, 66
1, 107643, Note_on_c, 0, 55, 50
1, 107652, Note_off_c, 0, 69, 62
1, 107658, Note_off_c, 0, 51, 66
1, 107681, Note_off_c, 0, 55, 62
1, 107688, Note_on_c, 0, 79, 86
1, 107715, Note_off_c, 0, 75, 66
1, 107741, Note_on_c, 0, 58, 81
1, 107743, Note_on_c, 0, 51, 67
1, 107754, Note_on_c, 0, 55, 60
1, 107764, Note_on_c, 0, 82, 78
1, 107778, Note_off_c, 0, 79, 60
1, 107782, Note_on_c, 0, 83, 71
1, 107791, Note_off_c, 0, 55, 65
1, 107796, Note_off_c, 0, 58, 62
1, 107806, Note_off_c, 0, 51, 63
1, 107806, Note_off_c, 0, 83, 54
1, 107808, Note_off_c, 0, 82, 60
1, 107813, Note_on_c, 0, 72, 8
1, 107814, Note_on_c, 0, 71, 7
1, 107855, Note_off_c, 0, 72, 53
1, 107863, Note_off_c, 0, 71, 55
1, 107870, Poly_aftertouch_c, 0, 73, 0
1, 107918, Note_on_c, 0, 91, 96
1, 107926, Note_on_c, 0, 77, 86
1, 107928, Note_on_c, 0, 79, 79
1, 107945, Note_on_c, 0, 67, 78
1, 107945, Note_on_c, 0, 89, 52
1, 107946, Note_off_c, 0, 89, 127
1, 107949, Note_on_c, 0, 58, 73
1, 107949, Note_on_c, 0, 63, 71
1, 107964, Note_off_c, 0, 67, 74
1, 107971, Note_off_c, 0, 63, 71
1, 107974, Note_off_c, 0, 58, 66
1, 107986, Note_on_c, 0, 55, 23
1, 107995, Note_on_c, 0, 82, 87
1, 107999, Note_off_c, 0, 77, 56
1, 108013, Note_off_c, 0, 79, 63
1, 108016, Note_on_c, 0, 87, 78
1, 108026, Note_off_c, 0, 55, 56
1, 108042, Note_off_c, 0, 91, 53
1, 108061, Note_off_c, 0, 82, 65
1, 108082, Note_on_c, 0, 85, 31
1, 108117, Note_off_c, 0, 85, 43
1, 108123, Note_off_c, 0, 87, 65
1, 108136, Note_on_c, 0, 51, 82
1, 108137, Control_c, 0, 64, 77
1, 108149, Note_on_c, 0, 39, 65
1, 108152, Control_c, 0, 64, 50
1, 108167, Control_c, 0, 64, 0
1, 108180, Note_on_c, 0, 91, 91
1, 108180, Note_off_c, 0, 39, 64
1, 108181, Control_c, 0, 64, 12
1, 108183, Note_off_c, 0, 51, 61
1, 108195, Note_on_c, 0, 79, 71
1, 108196, Control_c, 0, 64, 34
1, 108211, Control_c, 0, 64, 53
1, 108226, Control_c, 0, 64, 74
1, 108241, Control_c, 0, 64, 127
1, 108290, Note_on_c, 0, 83, 71
1, 108290, Note_off_c, 0, 91, 48
1, 108333, Note_off_c, 0, 79, 56
1, 108341, Note_on_c, 0, 67, 78
1, 108346, Note_on_c, 0, 86, 80
1, 108354, Note_off_c, 0, 83, 64
1, 108356, Note_on_c, 0, 62, 56
1, 108359, Note_on_c, 0, 59, 59
1, 108359, Note_on_c, 0, 56, 55
1, 108389, Note_off_c, 0, 67, 64
1, 108409, Note_off_c, 0, 56, 61
1, 108418, Note_on_c, 0, 76, 88
1, 108420, Note_on_c, 0, 88, 88
1, 108427, Note_off_c, 0, 62, 57
1, 108430, Note_off_c, 0, 59, 54
1, 108495, Note_on_c, 0, 83, 70
1, 108506, Note_off_c, 0, 86, 31
1, 108517, Note_off_c, 0, 88, 62
1, 108532, Note_on_c, 0, 64, 82
1, 108538, Note_off_c, 0, 76, 59
1, 108539, Note_on_c, 0, 86, 69
1, 108540, Note_on_c, 0, 59, 57
1, 108541, Note_on_c, 0, 56, 65
1, 108547, Note_on_c, 0, 62, 72
1, 108563, Note_off_c, 0, 83, 65
1, 108577, Note_off_c, 0, 56, 60
1, 108585, Note_off_c, 0, 64, 60
1, 108586, Note_off_c, 0, 62, 54
1, 108608, Note_on_c, 0, 77, 92
1, 108609, Note_on_c, 0, 89, 93
1, 108614, Note_off_c, 0, 59, 61
1, 108640, Note_on_c, 0, 79, 44
1, 108642, Note_off_c, 0, 86, 61
1, 108680, Note_on_c, 0, 83, 83
1, 108705, Note_on_c, 0, 56, 62
1, 108706, Note_on_c, 0, 67, 81
1, 108708, Note_on_c, 0, 62, 70
1, 108708, Note_off_c, 0, 89, 63
1, 108725, Note_off_c, 0, 77, 60
1, 108729, Note_on_c, 0, 59, 50
1, 108729, Note_on_c, 0, 86, 84
1, 108733, Note_off_c, 0, 67, 65
1, 108737, Note_off_c, 0, 56, 63
1, 108749, Note_off_c, 0, 83, 65
1, 108752, Note_off_c, 0, 79, 25
1, 108775, Note_off_c, 0, 62, 56
1, 108778, Note_off_c, 0, 59, 42
1, 108790, Note_on_c, 0, 79, 93
1, 108792, Note_on_c, 0, 91, 96
1, 108815, Note_on_c, 0, 62, 56
1, 108815, Note_on_c, 0, 67, 83
1, 108817, Note_off_c, 0, 86, 63
1, 108823, Note_on_c, 0, 56, 69
1, 108823, Note_on_c, 0, 59, 49
1, 108831, Note_off_c, 0, 67, 74
1, 108843, Note_off_c, 0, 62, 63
1, 108849, Note_off_c, 0, 59, 57
1, 108854, Note_off_c, 0, 56, 66
1, 108874, Note_on_c, 0, 83, 75
1, 108878, Note_on_c, 0, 84, 74
1, 108883, Note_off_c, 0, 91, 57
1, 108892, Note_on_c, 0, 67, 30
1, 108897, Note_on_c, 0, 87, 90
1, 108910, Note_off_c, 0, 67, 60
1, 108918, Note_off_c, 0, 79, 60
1, 108924, Note_off_c, 0, 83, 67
1, 108927, Note_off_c, 0, 84, 63
1, 108943, Note_on_c, 0, 51, 104
1, 108955, Note_on_c, 0, 39, 66
1, 108956, Note_off_c, 0, 39, 127
1, 108956, Note_off_c, 0, 87, 67
1, 108960, Note_off_c, 0, 51, 75
1, 108976, Control_c, 0, 64, 67
1, 108982, Note_on_c, 0, 42, 27
1, 108983, Note_off_c, 0, 42, 127
1, 108991, Control_c, 0, 64, 36
1, 109005, Control_c, 0, 64, 0
1, 109018, Note_on_c, 0, 80, 98
1, 109020, Note_on_c, 0, 92, 96
1, 109020, Control_c, 0, 64, 31
1, 109035, Control_c, 0, 64, 50
1, 109050, Control_c, 0, 64, 74
1, 109065, Control_c, 0, 64, 127
1, 109071, Note_on_c, 0, 90, 13
1, 109072, Note_off_c, 0, 90, 127
1, 109086, Note_off_c, 0, 92, 67
1, 109090, Note_off_c, 0, 80, 65
1, 109095, Note_on_c, 0, 86, 79
1, 109110, Note_on_c, 0, 68, 93
1, 109124, Note_on_c, 0, 65, 67
1, 109126, Note_on_c, 0, 62, 60
1, 109129, Note_on_c, 0, 81, 45
1, 109131, Note_on_c, 0, 59, 58
1, 109140, Note_on_c, 0, 58, 47
1, 109143, Note_on_c, 0, 89, 81
1, 109143, Note_on_c, 0, 66, 40
1, 109158, Note_off_c, 0, 81, 56
1, 109167, Note_off_c, 0, 86, 63
1, 109169, Note_off_c, 0, 58, 54
1, 109177, Note_off_c, 0, 66, 32
1, 109189, Note_off_c, 0, 68, 55
1, 109202, Note_off_c, 0, 59, 62
1, 109217, Note_on_c, 0, 81, 101
1, 109218, Note_on_c, 0, 93, 99
1, 109219, Note_off_c, 0, 62, 61
1, 109223, Note_off_c, 0, 65, 60
1, 109252, Note_off_c, 0, 89, 65
1, 109292, Note_on_c, 0, 69, 97
1, 109297, Note_on_c, 0, 86, 88
1, 109298, Note_on_c, 0, 65, 73
1, 109301, Note_on_c, 0, 59, 85
1, 109304, Note_on_c, 0, 62, 66
1, 109314, Note_off_c, 0, 81, 69
1, 109314, Note_off_c, 0, 93, 59
1, 109328, Note_off_c, 0, 69, 69
1, 109330, Note_off_c, 0, 62, 65
1, 109340, Note_off_c, 0, 65, 64
1, 109348, Note_off_c, 0, 59, 60
1, 109362, Note_on_c, 0, 89, 87
1, 109367, Note_off_c, 0, 86, 64
1, 109379, Note_on_c, 0, 90, 37
1, 109400, Note_off_c, 0, 89, 66
1, 109417, Note_off_c, 0, 90, 57
1, 109444, Note_on_c, 0, 84, 93
1, 109444, Note_on_c, 0, 98, 90
1, 109447, Note_on_c, 0, 96, 88
1, 109465, Note_on_c, 0, 86, 61
1, 109481, Note_off_c, 0, 98, 66
1, 109486, Note_off_c, 0, 86, 42
1, 109516, Control_c, 0, 64, 84
1, 109530, Control_c, 0, 64, 61
1, 109543, Note_on_c, 0, 86, 88
1, 109545, Control_c, 0, 64, 44
1, 109549, Note_off_c, 0, 96, 48
1, 109559, Note_on_c, 0, 72, 94
1, 109560, Note_on_c, 0, 68, 83
1, 109560, Control_c, 0, 64, 29
1, 109565, Note_on_c, 0, 65, 75
1, 109565, Note_off_c, 0, 84, 64
1, 109568, Note_on_c, 0, 62, 59
1, 109574, Note_on_c, 0, 58, 68
1, 109575, Control_c, 0, 64, 34
1, 109590, Control_c, 0, 64, 50
1, 109598, Note_on_c, 0, 61, 30
1, 109605, Control_c, 0, 64, 73
1, 109611, Note_on_c, 0, 89, 91
1, 109620, Control_c, 0, 64, 127
1, 109633, Note_off_c, 0, 61, 55
1, 109658, Note_off_c, 0, 86, 58
1, 109659, Note_off_c, 0, 72, 60
1, 109697, Note_on_c, 0, 94, 99
1, 109701, Note_on_c, 0, 82, 98
1, 109712, Note_off_c, 0, 89, 62
1, 109715, Note_off_c, 0, 58, 60
1, 109717, Note_off_c, 0, 68, 55
1, 109729, Note_off_c, 0, 65, 60
1, 109733, Note_off_c, 0, 62, 50
1, 109744, Note_on_c, 0, 83, 36
1, 109774, Note_off_c, 0, 83, 61
1, 109809, Note_off_c, 0, 94, 68
1, 109811, Note_on_c, 0, 86, 78
1, 109822, Note_on_c, 0, 70, 84
1, 109823, Note_on_c, 0, 68, 81
1, 109828, Note_off_c, 0, 82, 59
1, 109832, Note_on_c, 0, 58, 67
1, 109840, Note_on_c, 0, 65, 61
1, 109840, Note_off_c, 0, 70, 72
1, 109843, Note_on_c, 0, 62, 56
1, 109849, Note_off_c, 0, 68, 66
1, 109864, Note_off_c, 0, 65, 63
1, 109870, Note_off_c, 0, 62, 66
1, 109880, Note_on_c, 0, 59, 38
1, 109881, Note_off_c, 0, 58, 60
1, 109904, Note_off_c, 0, 59, 59
1, 109916, Note_on_c, 0, 89, 93
1, 109949, Note_off_c, 0, 86, 63
1, 109992, Note_off_c, 0, 89, 61
1, 110061, Note_on_c, 0, 51, 56
1, 110074, Note_on_c, 0, 39, 82
1, 110102, Control_c, 0, 64, 64
1, 110117, Control_c, 0, 64, 42
1, 110132, Control_c, 0, 64, 0
1, 110147, Note_on_c, 0, 91, 94
1, 110152, Note_on_c, 0, 79, 87
1, 110161, Control_c, 0, 64, 16
1, 110162, Note_off_c, 0, 39, 63
1, 110176, Control_c, 0, 64, 45
1, 110191, Control_c, 0, 64, 64
1, 110195, Note_off_c, 0, 51, 62
1, 110206, Control_c, 0, 64, 127
1, 110291, Note_off_c, 0, 91, 36
1, 110301, Note_on_c, 0, 82, 72
1, 110336, Note_off_c, 0, 79, 57
1, 110341, Note_on_c, 0, 67, 80
1, 110353, Note_on_c, 0, 58, 57
1, 110366, Note_on_c, 0, 57, 50
1, 110367, Note_on_c, 0, 55, 53
1, 110381, Note_on_c, 0, 87, 82
1, 110390, Note_off_c, 0, 82, 65
1, 110419, Note_off_c, 0, 57, 53
1, 110423, Note_off_c, 0, 55, 55
1, 110437, Note_off_c, 0, 67, 59
1, 110443, Note_off_c, 0, 87, 64
1, 110463, Note_on_c, 0, 77, 84
1, 110464, Note_on_c, 0, 89, 73
1, 110465, Note_off_c, 0, 58, 56
1, 110483, Note_on_c, 0, 88, 68
1, 110513, Note_off_c, 0, 89, 63
1, 110516, Note_off_c, 0, 88, 47
1, 110547, Note_on_c, 0, 79, 77
1, 110575, Note_on_c, 0, 65, 79
1, 110576, Note_on_c, 0, 55, 66
1, 110578, Note_off_c, 0, 77, 62
1, 110586, Note_on_c, 0, 58, 62
1, 110589, Note_on_c, 0, 82, 80
1, 110611, Note_off_c, 0, 79, 61
1, 110632, Note_off_c, 0, 65, 64
1, 110640, Note_off_c, 0, 55, 60
1, 110657, Note_on_c, 0, 87, 85
1, 110661, Note_off_c, 0, 58, 59
1, 110662, Note_on_c, 0, 75, 91
1, 110705, Note_off_c, 0, 82, 61
1, 110734, Note_off_c, 0, 87, 68
1, 110744, Note_on_c, 0, 79, 74
1, 110761, Note_on_c, 0, 63, 77
1, 110767, Note_off_c, 0, 75, 62
1, 110773, Note_on_c, 0, 58, 68
1, 110777, Note_on_c, 0, 55, 54
1, 110790, Note_on_c, 0, 82, 88
1, 110812, Note_off_c, 0, 79, 62
1, 110812, Note_off_c, 0, 55, 65
1, 110820, Note_off_c, 0, 63, 61
1, 110831, Note_off_c, 0, 58, 53
1, 110840, Note_off_c, 0, 82, 70
1, 110851, Note_on_c, 0, 86, 94
1, 110852, Note_on_c, 0, 74, 89
1, 110892, Note_on_c, 0, 62, 76
1, 110894, Note_on_c, 0, 58, 73
1, 110903, Note_on_c, 0, 55, 58
1, 110916, Note_off_c, 0, 58, 70
1, 110916, Note_off_c, 0, 62, 68
1, 110923, Note_on_c, 0, 79, 73
1, 110924, Note_off_c, 0, 55, 63
1, 110969, Note_on_c, 0, 82, 88
1, 110972, Note_off_c, 0, 86, 59
1, 110976, Note_off_c, 0, 74, 63
1, 110988, Note_off_c, 0, 79, 63
1, 111009, Note_off_c, 0, 82, 68
1, 111033, Note_on_c, 0, 51, 79
1, 111039, Note_on_c, 0, 39, 71
1, 111043, Control_c, 0, 64, 66
1, 111057, Control_c, 0, 64, 47
1, 111059, Note_off_c, 0, 51, 66
1, 111068, Note_off_c, 0, 39, 66
1, 111072, Control_c, 0, 64, 19
1, 111087, Note_on_c, 0, 84, 83
1, 111087, Control_c, 0, 64, 22
1, 111091, Note_on_c, 0, 72, 70
1, 111101, Control_c, 0, 64, 38
1, 111116, Control_c, 0, 64, 54
1, 111131, Control_c, 0, 64, 80
1, 111146, Control_c, 0, 64, 127
1, 111166, Note_on_c, 0, 75, 82
1, 111191, Note_off_c, 0, 72, 60
1, 111194, Note_off_c, 0, 84, 63
1, 111200, Note_on_c, 0, 60, 82
1, 111205, Note_on_c, 0, 51, 69
1, 111207, Note_on_c, 0, 55, 65
1, 111208, Note_on_c, 0, 79, 75
1, 111235, Note_off_c, 0, 75, 60
1, 111261, Note_off_c, 0, 60, 59
1, 111274, Note_on_c, 0, 81, 91
1, 111274, Note_on_c, 0, 69, 88
1, 111291, Note_off_c, 0, 55, 63
1, 111294, Note_on_c, 0, 80, 47
1, 111298, Note_off_c, 0, 51, 58
1, 111301, Note_off_c, 0, 79, 58
1, 111337, Note_off_c, 0, 80, 55
1, 111340, Note_on_c, 0, 75, 83
1, 111364, Note_off_c, 0, 81, 65
1, 111382, Note_on_c, 0, 57, 83
1, 111388, Note_on_c, 0, 79, 68
1, 111389, Note_off_c, 0, 69, 62
1, 111391, Note_on_c, 0, 55, 67
1, 111396, Note_on_c, 0, 51, 76
1, 111426, Note_off_c, 0, 75, 61
1, 111434, Note_off_c, 0, 57, 62
1, 111446, Note_on_c, 0, 82, 84
1, 111452, Note_off_c, 0, 51, 64
1, 111459, Note_on_c, 0, 70, 93
1, 111467, Note_off_c, 0, 55, 59
1, 111491, Note_off_c, 0, 79, 60
1, 111522, Note_on_c, 0, 58, 98
1, 111523, Note_off_c, 0, 70, 66
1, 111530, Note_on_c, 0, 51, 81
1, 111537, Note_on_c, 0, 75, 76
1, 111540, Note_off_c, 0, 82, 63
1, 111546, Note_on_c, 0, 55, 39
1, 111548, Poly_aftertouch_c, 0, 80, 0
1, 111554, Note_off_c, 0, 51, 60
1, 111560, Note_off_c, 0, 75, 66
1, 111561, Note_on_c, 0, 79, 72
1, 111566, Note_off_c, 0, 58, 59
1, 111579, Note_off_c, 0, 79, 66
1, 111586, Note_off_c, 0, 55, 55
1, 111641, Note_on_c, 0, 79, 96
1, 111644, Note_on_c, 0, 91, 98
1, 111716, Note_on_c, 0, 82, 90
1, 111723, Note_on_c, 0, 67, 83
1, 111724, Note_on_c, 0, 63, 69
1, 111727, Note_on_c, 0, 58, 82
1, 111727, Note_off_c, 0, 91, 57
1, 111729, Note_on_c, 0, 55, 59
1, 111741, Note_off_c, 0, 67, 75
1, 111752, Note_off_c, 0, 63, 67
1, 111760, Note_off_c, 0, 58, 66
1, 111763, Note_off_c, 0, 55, 66
1, 111765, Note_off_c, 0, 79, 57
1, 111780, Note_on_c, 0, 87, 101
1, 111793, Note_off_c, 0, 82, 68
1, 111843, Note_off_c, 0, 87, 67
1, 111866, Control_c, 0, 64, 59
1, 111881, Control_c, 0, 64, 22
1, 111885, Note_on_c, 0, 50, 87
1, 111888, Note_on_c, 0, 38, 79
1, 111894, Note_on_c, 0, 48, 64
1, 111896, Control_c, 0, 64, 0
1, 111906, Note_off_c, 0, 50, 70
1, 111911, Control_c, 0, 64, 30
1, 111914, Note_off_c, 0, 38, 68
1, 111914, Note_off_c, 0, 48, 64
1, 111920, Note_on_c, 0, 91, 95
1, 111925, Control_c, 0, 64, 48
1, 111929, Note_on_c, 0, 79, 81
1, 111940, Control_c, 0, 64, 69
1, 111955, Control_c, 0, 64, 127
1, 111968, Note_on_c, 0, 81, 31
1, 111989, Poly_aftertouch_c, 0, 36, 0
1, 111990, Note_off_c, 0, 91, 55
1, 111991, Note_off_c, 0, 81, 0
1, 111991, Note_on_c, 0, 81, 29
1, 112023, Note_off_c, 0, 79, 62
1, 112057, Note_on_c, 0, 84, 80
1, 112058, Note_on_c, 0, 60, 58
1, 112064, Note_on_c, 0, 67, 95
1, 112068, Note_on_c, 0, 57, 77
1, 112089, Note_off_c, 0, 81, 0
1, 112109, Note_on_c, 0, 78, 99
1, 112111, Note_on_c, 0, 90, 89
1, 112112, Note_off_c, 0, 67, 65
1, 112127, Poly_aftertouch_c, 0, 81, 127
1, 112130, Note_off_c, 0, 57, 61
1, 112148, Note_off_c, 0, 84, 62
1, 112155, Note_off_c, 0, 60, 62
1, 112158, Note_off_c, 0, 90, 70
1, 112177, Note_on_c, 0, 81, 29
1, 112183, Note_off_c, 0, 78, 68
1, 112200, Poly_aftertouch_c, 0, 87, 127
1, 112222, Note_on_c, 0, 84, 78
1, 112223, Note_on_c, 0, 79, 36
1, 112231, Note_on_c, 0, 60, 67
1, 112233, Note_on_c, 0, 66, 96
1, 112235, Note_off_c, 0, 81, 64
1, 112237, Poly_aftertouch_c, 0, 77, 0
1, 112238, Poly_aftertouch_c, 0, 87, 0
1, 112243, Note_on_c, 0, 57, 73
1, 112246, Note_off_c, 0, 84, 69
1, 112258, Note_off_c, 0, 79, 53
1, 112264, Note_off_c, 0, 57, 69
1, 112266, Note_off_c, 0, 60, 65
1, 112276, Note_off_c, 0, 66, 61
1, 112329, Note_on_c, 0, 99, 100
1, 112331, Note_on_c, 0, 87, 95
1, 112410, Note_on_c, 0, 90, 85
1, 112416, Note_off_c, 0, 99, 66
1, 112420, Note_off_c, 0, 87, 61
1, 112451, Note_on_c, 0, 69, 68
1, 112453, Note_on_c, 0, 75, 101
1, 112456, Note_on_c, 0, 66, 90
1, 112459, Note_on_c, 0, 93, 76
1, 112480, Note_off_c, 0, 90, 67
1, 112499, Note_on_c, 0, 92, 6
1, 112514, Note_off_c, 0, 75, 58
1, 112544, Note_on_c, 0, 86, 102
1, 112544, Note_off_c, 0, 66, 55
1, 112546, Note_off_c, 0, 69, 61
1, 112547, Note_on_c, 0, 98, 92
1, 112559, Note_off_c, 0, 92, 37
1, 112571, Note_on_c, 0, 96, 59
1, 112580, Note_off_c, 0, 93, 33
1, 112602, Note_on_c, 0, 69, 60
1, 112604, Note_on_c, 0, 66, 82
1, 112606, Note_on_c, 0, 74, 85
1, 112622, Note_off_c, 0, 74, 76
1, 112630, Note_on_c, 0, 90, 87
1, 112637, Note_off_c, 0, 69, 66
1, 112642, Note_off_c, 0, 66, 66
1, 112654, Note_off_c, 0, 98, 63
1, 112688, Poly_aftertouch_c, 0, 94, 0
1, 112690, Note_on_c, 0, 94, 17
1, 112691, Note_off_c, 0, 94, 127
1, 112694, Note_on_c, 0, 93, 93
1, 112694, Note_off_c, 0, 96, 38
1, 112715, Note_off_c, 0, 86, 55
1, 112720, Note_off_c, 0, 90, 69
1, 112749, Control_c, 0, 64, 74
1, 112758, Note_off_c, 0, 93, 62
1, 112764, Control_c, 0, 64, 39
1, 112775, Note_on_c, 0, 55, 87
1, 112779, Control_c, 0, 64, 0
1, 112789, Note_on_c, 0, 43, 64
1, 112798, Note_on_c, 0, 41, 50
1, 112800, Note_on_c, 0, 53, 49
1, 112801, Note_off_c, 0, 53, 127
1, 112824, Control_c, 0, 64, 29
1, 112827, Note_off_c, 0, 43, 64
1, 112833, Note_off_c, 0, 41, 55
1, 112839, Control_c, 0, 64, 51
1, 112841, Note_on_c, 0, 98, 93
1, 112845, Note_on_c, 0, 86, 78
1, 112845, Note_off_c, 0, 55, 64
1, 112854, Control_c, 0, 64, 93
1, 112869, Control_c, 0, 64, 127
1, 112891, Note_on_c, 0, 88, 17
1, 112923, Note_on_c, 0, 91, 80
1, 112932, Note_off_c, 0, 98, 64
1, 112945, Note_off_c, 0, 88, 29
1, 112985, Note_off_c, 0, 86, 50
1, 112988, Note_on_c, 0, 95, 82
1, 112993, Note_off_c, 0, 91, 61
1, 112998, Note_on_c, 0, 74, 78
1, 112999, Note_on_c, 0, 71, 66
1, 113001, Note_on_c, 0, 67, 64
1, 113010, Note_off_c, 0, 95, 70
1, 113055, Note_off_c, 0, 74, 64
1, 113066, Note_on_c, 0, 95, 98
1, 113069, Note_on_c, 0, 83, 91
1, 113073, Note_off_c, 0, 71, 61
1, 113081, Note_off_c, 0, 67, 58
1, 113144, Note_on_c, 0, 86, 79
1, 113167, Note_on_c, 0, 62, 87
1, 113167, Note_on_c, 0, 71, 85
1, 113169, Note_off_c, 0, 95, 46
1, 113171, Note_on_c, 0, 67, 74
1, 113180, Note_off_c, 0, 83, 63
1, 113185, Note_on_c, 0, 91, 77
1, 113185, Note_off_c, 0, 71, 75
1, 113191, Note_off_c, 0, 67, 73
1, 113197, Note_off_c, 0, 86, 63
1, 113206, Note_off_c, 0, 91, 67
1, 113207, Note_off_c, 0, 62, 65
1, 113262, Note_on_c, 0, 91, 96
1, 113264, Note_on_c, 0, 79, 99
1, 113297, Note_on_c, 0, 89, 26
1, 113337, Note_on_c, 0, 83, 82
1, 113337, Note_off_c, 0, 89, 53
1, 113374, Note_on_c, 0, 67, 86
1, 113375, Note_on_c, 0, 59, 81
1, 113379, Note_on_c, 0, 62, 75
1, 113380, Note_off_c, 0, 91, 56
1, 113399, Note_off_c, 0, 79, 59
1, 113400, Note_on_c, 0, 86, 88
1, 113423, Note_off_c, 0, 83, 65
1, 113446, Note_off_c, 0, 67, 61
1, 113450, Note_off_c, 0, 59, 57
1, 113453, Note_off_c, 0, 62, 55
1, 113477, Note_on_c, 0, 91, 96
1, 113480, Note_on_c, 0, 79, 98
1, 113504, Note_off_c, 0, 86, 62
1, 113552, Note_on_c, 0, 67, 83
1, 113559, Note_on_c, 0, 59, 66
1, 113561, Note_on_c, 0, 55, 76
1, 113561, Note_on_c, 0, 62, 76
1, 113561, Note_on_c, 0, 83, 80
1, 113573, Note_off_c, 0, 67, 72
1, 113580, Note_off_c, 0, 59, 71
1, 113581, Note_off_c, 0, 62, 68
1, 113599, Note_off_c, 0, 55, 63
1, 113600, Note_off_c, 0, 91, 56
1, 113631, Note_on_c, 0, 86, 88
1, 113636, Note_off_c, 0, 79, 60
1, 113665, Note_off_c, 0, 83, 66
1, 113759, Note_on_c, 0, 43, 68
1, 113760, Note_on_c, 0, 41, 71
1, 113802, Control_c, 0, 64, 74
1, 113817, Control_c, 0, 64, 41
1, 113822, Note_off_c, 0, 86, 55
1, 113826, Note_on_c, 0, 92, 88
1, 113829, Note_off_c, 0, 41, 61
1, 113830, Note_on_c, 0, 80, 85
1, 113832, Control_c, 0, 64, 0
1, 113871, Note_off_c, 0, 43, 63
1, 113877, Control_c, 0, 64, 38
1, 113891, Control_c, 0, 64, 59
1, 113906, Control_c, 0, 64, 127
1, 113968, Note_off_c, 0, 92, 67
1, 113971, Note_on_c, 0, 84, 70
1, 113989, Note_off_c, 0, 80, 61
1, 114023, Note_on_c, 0, 68, 76
1, 114030, Note_on_c, 0, 60, 62
1, 114035, Note_on_c, 0, 87, 80
1, 114037, Note_on_c, 0, 63, 62
1, 114070, Note_off_c, 0, 84, 58
1, 114100, Note_off_c, 0, 68, 58
1, 114106, Note_on_c, 0, 91, 80
1, 114112, Note_on_c, 0, 79, 77
1, 114120, Note_off_c, 0, 63, 57
1, 114123, Note_off_c, 0, 60, 54
1, 114141, Note_off_c, 0, 87, 62
1, 114181, Note_on_c, 0, 84, 71
1, 114193, Note_off_c, 0, 91, 55
1, 114218, Note_on_c, 0, 67, 75
1, 114219, Note_on_c, 0, 60, 56
1, 114221, Note_on_c, 0, 63, 63
1, 114226, Note_on_c, 0, 87, 79
1, 114227, Note_off_c, 0, 79, 60
1, 114230, Note_off_c, 0, 84, 65
1, 114246, Note_off_c, 0, 87, 72
1, 114258, Note_off_c, 0, 67, 61
1, 114276, Note_off_c, 0, 60, 61
1, 114280, Note_off_c, 0, 63, 61
1, 114296, Note_on_c, 0, 77, 85
1, 114296, Note_on_c, 0, 89, 88
1, 114365, Note_on_c, 0, 79, 77
1, 114374, Note_off_c, 0, 89, 62
1, 114389, Note_off_c, 0, 77, 60
1, 114394, Note_on_c, 0, 65, 76
1, 114395, Note_on_c, 0, 60, 71
1, 114401, Note_on_c, 0, 55, 67
1, 114412, Note_on_c, 0, 84, 71
1, 114422, Note_off_c, 0, 65, 66
1, 114425, Note_on_c, 0, 82, 56
1, 114432, Note_off_c, 0, 55, 67
1, 114455, Note_off_c, 0, 82, 62
1, 114456, Note_off_c, 0, 60, 55
1, 114482, Note_on_c, 0, 75, 97
1, 114486, Note_on_c, 0, 87, 83
1, 114493, Note_off_c, 0, 79, 34
1, 114521, Note_off_c, 0, 84, 63
1, 114525, Note_on_c, 0, 63, 80
1, 114530, Note_on_c, 0, 55, 67
1, 114547, Note_off_c, 0, 63, 69
1, 114553, Note_off_c, 0, 55, 71
1, 114560, Note_on_c, 0, 60, 4
1, 114561, Note_on_c, 0, 79, 79
1, 114595, Note_on_c, 0, 84, 79
1, 114598, Note_off_c, 0, 87, 63
1, 114605, Note_off_c, 0, 60, 52
1, 114616, Note_off_c, 0, 75, 54
1, 114637, Note_off_c, 0, 79, 61
1, 114684, Control_c, 0, 64, 63
1, 114687, Note_on_c, 0, 41, 75
1, 114699, Control_c, 0, 64, 34
1, 114714, Control_c, 0, 64, 0
1, 114733, Note_on_c, 0, 87, 79
1, 114746, Note_on_c, 0, 75, 71
1, 114757, Note_off_c, 0, 41, 62
1, 114759, Note_off_c, 0, 84, 56
1, 114759, Control_c, 0, 64, 27
1, 114774, Control_c, 0, 64, 44
1, 114789, Control_c, 0, 64, 59
1, 114804, Control_c, 0, 64, 72
1, 114818, Control_c, 0, 64, 83
1, 114824, Note_off_c, 0, 87, 66
1, 114833, Control_c, 0, 64, 84
1, 114839, Note_on_c, 0, 80, 75
1, 114843, Note_off_c, 0, 75, 61
1, 114892, Control_c, 0, 64, 85
1, 114895, Note_on_c, 0, 56, 53
1, 114902, Note_on_c, 0, 63, 62
1, 114906, Note_on_c, 0, 53, 58
1, 114907, Control_c, 0, 64, 85
1, 114908, Note_on_c, 0, 84, 60
1, 114908, Note_off_c, 0, 80, 61
1, 114909, Note_on_c, 0, 60, 51
1, 114941, Note_off_c, 0, 63, 62
1, 114957, Note_off_c, 0, 53, 58
1, 114959, Note_on_c, 0, 86, 82
1, 114964, Note_off_c, 0, 60, 55
1, 114968, Note_on_c, 0, 74, 73
1, 114970, Note_off_c, 0, 56, 61
1, 114996, Note_off_c, 0, 84, 58
1, 114996, Control_c, 0, 64, 86
1, 115010, Control_c, 0, 64, 86
1, 115025, Control_c, 0, 64, 87
1, 115036, Note_on_c, 0, 80, 68
1, 115040, Control_c, 0, 64, 88
1, 115054, Note_off_c, 0, 86, 57
1, 115055, Control_c, 0, 64, 88
1, 115069, Note_off_c, 0, 74, 55
1, 115077, Note_on_c, 0, 53, 62
1, 115077, Note_on_c, 0, 62, 60
1, 115084, Control_c, 0, 64, 87
1, 115087, Note_on_c, 0, 84, 70
1, 115090, Note_on_c, 0, 60, 49
1, 115091, Note_on_c, 0, 56, 51
1, 115099, Control_c, 0, 64, 80
1, 115105, Note_off_c, 0, 80, 61
1, 115107, Note_off_c, 0, 53, 68
1, 115111, Note_off_c, 0, 62, 64
1, 115114, Control_c, 0, 64, 72
1, 115120, Note_off_c, 0, 60, 59
1, 115124, Note_off_c, 0, 56, 66
1, 115129, Control_c, 0, 64, 65
1, 115143, Control_c, 0, 64, 60
1, 115156, Note_on_c, 0, 86, 79
1, 115158, Control_c, 0, 64, 58
1, 115168, Note_on_c, 0, 74, 73
1, 115173, Control_c, 0, 64, 59
1, 115178, Note_off_c, 0, 84, 57
1, 115196, Control_c, 0, 64, 62
1, 115211, Control_c, 0, 64, 65
1, 115227, Control_c, 0, 64, 67
1, 115241, Control_c, 0, 64, 69
1, 115247, Note_on_c, 0, 80, 67
1, 115256, Control_c, 0, 64, 73
1, 115263, Note_on_c, 0, 56, 58
1, 115269, Note_off_c, 0, 86, 58
1, 115271, Control_c, 0, 64, 80
1, 115272, Note_on_c, 0, 60, 41
1, 115272, Note_on_c, 0, 62, 55
1, 115286, Control_c, 0, 64, 89
1, 115289, Note_on_c, 0, 84, 73
1, 115291, Note_off_c, 0, 74, 58
1, 115298, Note_off_c, 0, 60, 57
1, 115300, Control_c, 0, 64, 96
1, 115305, Note_off_c, 0, 62, 63
1, 115307, Note_off_c, 0, 56, 58
1, 115315, Control_c, 0, 64, 100
1, 115330, Control_c, 0, 64, 101
1, 115333, Note_off_c, 0, 80, 51
1, 115361, Note_on_c, 0, 86, 76
1, 115365, Note_on_c, 0, 74, 57
1, 115385, Note_off_c, 0, 84, 52
1, 115397, Note_on_c, 0, 62, 53
1, 115403, Note_on_c, 0, 60, 40
1, 115411, Note_on_c, 0, 53, 40
1, 115412, Note_on_c, 0, 56, 41
1, 115427, Note_off_c, 0, 62, 55
1, 115431, Note_off_c, 0, 60, 57
1, 115437, Note_off_c, 0, 53, 56
1, 115439, Note_on_c, 0, 80, 76
1, 115444, Note_off_c, 0, 56, 49
1, 115456, Note_off_c, 0, 74, 61
1, 115463, Control_c, 0, 64, 102
1, 115464, Note_off_c, 0, 86, 60
1, 115478, Control_c, 0, 64, 105
1, 115492, Control_c, 0, 64, 111
1, 115493, Note_on_c, 0, 84, 69
1, 115507, Control_c, 0, 64, 127
1, 115510, Note_off_c, 0, 80, 59
1, 115537, Control_c, 0, 64, 119
1, 115552, Control_c, 0, 64, 81
1, 115567, Control_c, 0, 64, 61
1, 115570, Note_on_c, 0, 43, 57
1, 115582, Control_c, 0, 64, 37
1, 115593, Note_off_c, 0, 84, 60
1, 115594, Note_on_c, 0, 87, 73
1, 115597, Control_c, 0, 64, 0
1, 115600, Note_on_c, 0, 75, 55
1, 115610, Note_off_c, 0, 43, 65
1, 115641, Control_c, 0, 64, 28
1, 115656, Control_c, 0, 64, 46
1, 115666, Note_off_c, 0, 87, 69
1, 115671, Control_c, 0, 64, 63
1, 115680, Note_on_c, 0, 79, 67
1, 115683, Note_off_c, 0, 75, 61
1, 115685, Control_c, 0, 64, 93
1, 115700, Control_c, 0, 64, 127
1, 115730, Note_on_c, 0, 83, 61
1, 115751, Note_off_c, 0, 79, 59
1, 115754, Note_on_c, 0, 63, 64
1, 115768, Note_on_c, 0, 59, 56
1, 115790, Note_on_c, 0, 55, 30
1, 115798, Note_on_c, 0, 86, 77
1, 115802, Note_off_c, 0, 63, 57
1, 115805, Note_on_c, 0, 74, 69
1, 115808, Note_off_c, 0, 59, 60
1, 115809, Note_off_c, 0, 83, 63
1, 115815, Poly_aftertouch_c, 0, 58, 0
1, 115828, Note_off_c, 0, 55, 45
1, 115867, Note_on_c, 0, 79, 72
1, 115874, Note_off_c, 0, 86, 59
1, 115901, Note_on_c, 0, 62, 59
1, 115904, Note_on_c, 0, 59, 55
1, 115911, Note_on_c, 0, 55, 52
1, 115914, Note_off_c, 0, 74, 62
1, 115916, Note_off_c, 0, 79, 64
1, 115922, Note_off_c, 0, 62, 65
1, 115927, Note_off_c, 0, 59, 58
1, 115927, Note_on_c, 0, 83, 41
1, 115948, Note_off_c, 0, 55, 54
1, 115961, Note_off_c, 0, 83, 58
1, 115993, Note_on_c, 0, 84, 91
1, 116004, Note_on_c, 0, 72, 76
1, 116072, Note_on_c, 0, 74, 72
1, 116084, Note_off_c, 0, 72, 60
1, 116099, Note_off_c, 0, 84, 59
1, 116113, Note_on_c, 0, 60, 60
1, 116115, Note_on_c, 0, 50, 63
1, 116115, Note_on_c, 0, 79, 65
1, 116124, Note_off_c, 0, 74, 66
1, 116133, Note_on_c, 0, 55, 39
1, 116136, Note_off_c, 0, 79, 67
1, 116149, Note_off_c, 0, 60, 61
1, 116151, Note_off_c, 0, 50, 61
1, 116160, Note_off_c, 0, 55, 59
1, 116186, Note_on_c, 0, 83, 95
1, 116194, Note_on_c, 0, 71, 86
1, 116259, Note_on_c, 0, 55, 57
1, 116259, Note_on_c, 0, 74, 75
1, 116261, Note_on_c, 0, 50, 64
1, 116262, Note_on_c, 0, 59, 59
1, 116282, Note_off_c, 0, 55, 66
1, 116286, Note_off_c, 0, 71, 64
1, 116288, Note_off_c, 0, 50, 66
1, 116290, Note_off_c, 0, 59, 66
1, 116294, Note_off_c, 0, 83, 61
1, 116305, Note_off_c, 0, 74, 65
1, 116306, Note_on_c, 0, 79, 68
1, 116324, Note_off_c, 0, 79, 67
1, 116410, Note_on_c, 0, 80, 88
1, 116425, Note_on_c, 0, 68, 74
1, 116434, Control_c, 0, 64, 70
1, 116449, Control_c, 0, 64, 55
1, 116464, Control_c, 0, 64, 34
1, 116479, Control_c, 0, 64, 23
1, 116494, Control_c, 0, 64, 32
1, 116509, Control_c, 0, 64, 43
1, 116512, Note_on_c, 0, 56, 48
1, 116518, Note_on_c, 0, 71, 64
1, 116523, Control_c, 0, 64, 55
1, 116532, Note_on_c, 0, 47, 49
1, 116538, Control_c, 0, 64, 65
1, 116540, Note_on_c, 0, 50, 36
1, 116550, Note_off_c, 0, 80, 63
1, 116553, Control_c, 0, 64, 75
1, 116554, Note_off_c, 0, 68, 59
1, 116568, Control_c, 0, 64, 79
1, 116581, Note_on_c, 0, 74, 66
1, 116583, Control_c, 0, 64, 80
1, 116588, Note_off_c, 0, 56, 64
1, 116597, Note_off_c, 0, 71, 58
1, 116597, Control_c, 0, 64, 82
1, 116599, Note_off_c, 0, 47, 58
1, 116604, Note_off_c, 0, 50, 56
1, 116612, Control_c, 0, 64, 88
1, 116627, Control_c, 0, 64, 98
1, 116641, Control_c, 0, 64, 109
1, 116643, Note_on_c, 0, 79, 84
1, 116656, Control_c, 0, 64, 110
1, 116661, Note_on_c, 0, 67, 68
1, 116666, Note_off_c, 0, 74, 58
1, 116671, Control_c, 0, 64, 98
1, 116693, Control_c, 0, 64, 80
1, 116708, Control_c, 0, 64, 68
1, 116723, Control_c, 0, 64, 61
1, 116736, Note_on_c, 0, 71, 67
1, 116738, Control_c, 0, 64, 55
1, 116739, Note_on_c, 0, 47, 55
1, 116744, Note_on_c, 0, 55, 52
1, 116753, Control_c, 0, 64, 53
1, 116762, Note_off_c, 0, 79, 57
1, 116765, Note_on_c, 0, 50, 34
1, 116768, Control_c, 0, 64, 58
1, 116777, Note_off_c, 0, 67, 60
1, 116777, Note_off_c, 0, 55, 58
1, 116783, Control_c, 0, 64, 65
1, 116784, Note_on_c, 0, 74, 73
1, 116785, Note_off_c, 0, 47, 59
1, 116797, Control_c, 0, 64, 74
1, 116804, Note_off_c, 0, 50, 49
1, 116804, Note_off_c, 0, 71, 62
1, 116813, Control_c, 0, 64, 86
1, 116828, Control_c, 0, 64, 94
1, 116843, Control_c, 0, 64, 96
1, 116849, Note_on_c, 0, 79, 86
1, 116857, Control_c, 0, 64, 101
1, 116872, Control_c, 0, 64, 119
1, 116874, Note_on_c, 0, 67, 63
1, 116883, Note_off_c, 0, 74, 62
1, 116887, Control_c, 0, 64, 127
1, 116910, Note_on_c, 0, 55, 45
1, 116917, Note_on_c, 0, 47, 43
1, 116921, Note_on_c, 0, 50, 38
1, 116934, Note_on_c, 0, 71, 69
1, 116938, Note_off_c, 0, 55, 57
1, 116944, Note_off_c, 0, 47, 59
1, 116951, Note_off_c, 0, 79, 57
1, 116957, Note_off_c, 0, 50, 50
1, 116971, Note_off_c, 0, 67, 60
1, 116993, Note_on_c, 0, 74, 64
1, 117003, Note_off_c, 0, 71, 62
1, 117040, Note_on_c, 0, 47, 50
1, 117042, Note_on_c, 0, 79, 81
1, 117063, Note_on_c, 0, 67, 57
1, 117072, Note_off_c, 0, 47, 53
1, 117072, Note_off_c, 0, 74, 63
1, 117086, Poly_aftertouch_c, 0, 55, 127
1, 117122, Poly_aftertouch_c, 0, 55, 0
1, 117123, Note_on_c, 0, 71, 60
1, 117150, Note_off_c, 0, 79, 60
1, 117161, Note_off_c, 0, 67, 63
1, 117166, Note_on_c, 0, 74, 64
1, 117197, Note_off_c, 0, 71, 58
1, 117246, Note_off_c, 0, 74, 60
1, 117250, Note_on_c, 0, 31, 57
1, 117272, Control_c, 0, 64, 71
1, 117287, Control_c, 0, 64, 55
1, 117302, Control_c, 0, 64, 28
1, 117316, Control_c, 0, 64, 0
1, 117328, Note_off_c, 0, 31, 64
1, 117336, Note_on_c, 0, 82, 74
1, 117346, Control_c, 0, 64, 20
1, 117361, Control_c, 0, 64, 35
1, 117364, Note_on_c, 0, 70, 50
1, 117376, Control_c, 0, 64, 49
1, 117391, Control_c, 0, 64, 62
1, 117406, Control_c, 0, 64, 78
1, 117420, Control_c, 0, 64, 106
1, 117442, Control_c, 0, 64, 119
1, 117465, Note_on_c, 0, 72, 54
1, 117471, Note_off_c, 0, 82, 61
1, 117471, Control_c, 0, 64, 127
1, 117495, Note_off_c, 0, 70, 38
1, 117503, Note_on_c, 0, 75, 61
1, 117521, Note_on_c, 0, 58, 60
1, 117529, Note_on_c, 0, 48, 54
1, 117536, Note_on_c, 0, 51, 49
1, 117558, Note_off_c, 0, 72, 46
1, 117566, Note_on_c, 0, 80, 80
1, 117570, Note_off_c, 0, 58, 56
1, 117575, Note_on_c, 0, 68, 71
1, 117581, Note_off_c, 0, 51, 60
1, 117584, Note_off_c, 0, 75, 53
1, 117589, Note_off_c, 0, 48, 62
1, 117638, Note_on_c, 0, 72, 67
1, 117650, Note_off_c, 0, 80, 64
1, 117659, Note_off_c, 0, 68, 59
1, 117683, Note_on_c, 0, 75, 78
1, 117696, Note_on_c, 0, 56, 65
1, 117700, Note_on_c, 0, 51, 60
1, 117701, Note_off_c, 0, 72, 62
1, 117705, Note_on_c, 0, 48, 47
1, 117731, Note_off_c, 0, 56, 64
1, 117740, Note_on_c, 0, 79, 85
1, 117745, Note_on_c, 0, 67, 84
1, 117751, Note_off_c, 0, 48, 60
1, 117762, Note_off_c, 0, 51, 52
1, 117774, Note_off_c, 0, 75, 60
1, 117798, Note_on_c, 0, 72, 67
1, 117820, Note_off_c, 0, 79, 56
1, 117843, Note_on_c, 0, 75, 76
1, 117850, Note_off_c, 0, 67, 64
1, 117853, Note_on_c, 0, 55, 60
1, 117856, Note_off_c, 0, 72, 64
1, 117859, Note_on_c, 0, 48, 54
1, 117860, Note_on_c, 0, 43, 50
1, 117864, Note_on_c, 0, 51, 52
1, 117871, Note_off_c, 0, 75, 67
1, 117877, Note_off_c, 0, 55, 61
1, 117903, Note_off_c, 0, 43, 47
1, 117903, Note_off_c, 0, 48, 58
1, 117904, Note_off_c, 0, 51, 63
1, 117918, Note_on_c, 0, 77, 93
1, 117927, Note_on_c, 0, 65, 72
1, 117966, Note_on_c, 0, 43, 48
1, 117976, Note_off_c, 0, 65, 0
1, 117976, Note_on_c, 0, 65, 51
1, 117980, Note_on_c, 0, 48, 23
1, 117980, Note_on_c, 0, 53, 23
1, 117981, Note_on_c, 0, 55, 13
1, 117982, Note_on_c, 0, 67, 66
1, 117998, Note_off_c, 0, 77, 55
1, 117998, Note_off_c, 0, 43, 58
1, 118007, Note_off_c, 0, 65, 67
1, 118016, Note_off_c, 0, 55, 0
1, 118019, Note_off_c, 0, 53, 55
1, 118020, Note_off_c, 0, 48, 55
1, 118036, Poly_aftertouch_c, 0, 55, 0
1, 118053, Note_on_c, 0, 72, 68
1, 118058, Note_off_c, 0, 67, 65
1, 118119, Note_on_c, 0, 29, 72
1, 118152, Control_c, 0, 64, 68
1, 118167, Control_c, 0, 64, 48
1, 118190, Control_c, 0, 64, 0
1, 118193, Note_on_c, 0, 75, 82
1, 118205, Note_on_c, 0, 63, 68
1, 118209, Note_off_c, 0, 29, 63
1, 118212, Note_off_c, 0, 72, 55
1, 118234, Control_c, 0, 64, 18
1, 118249, Control_c, 0, 64, 33
1, 118264, Control_c, 0, 64, 44
1, 118279, Control_c, 0, 64, 54
1, 118293, Control_c, 0, 64, 62
1, 118306, Note_on_c, 0, 68, 66
1, 118308, Control_c, 0, 64, 65
1, 118315, Note_off_c, 0, 75, 62
1, 118323, Control_c, 0, 64, 66
1, 118336, Note_off_c, 0, 63, 58
1, 118376, Note_on_c, 0, 51, 48
1, 118378, Note_on_c, 0, 44, 38
1, 118381, Note_on_c, 0, 48, 42
1, 118381, Note_off_c, 0, 68, 59
1, 118383, Note_on_c, 0, 72, 68
1, 118405, Note_on_c, 0, 41, 32
1, 118409, Note_off_c, 0, 51, 64
1, 118424, Note_off_c, 0, 44, 58
1, 118426, Note_off_c, 0, 48, 62
1, 118449, Note_off_c, 0, 41, 54
1, 118455, Note_on_c, 0, 74, 75
1, 118458, Control_c, 0, 64, 66
1, 118463, Note_on_c, 0, 62, 59
1, 118485, Note_off_c, 0, 72, 57
1, 118516, Control_c, 0, 64, 66
1, 118529, Note_on_c, 0, 68, 62
1, 118531, Control_c, 0, 64, 65
1, 118537, Note_on_c, 0, 41, 45
1, 118538, Note_on_c, 0, 50, 43
1, 118546, Control_c, 0, 64, 63
1, 118549, Note_off_c, 0, 74, 64
1, 118554, Note_off_c, 0, 62, 57
1, 118554, Note_on_c, 0, 72, 60
1, 118557, Note_on_c, 0, 44, 34
1, 118561, Control_c, 0, 64, 60
1, 118563, Note_on_c, 0, 48, 17
1, 118570, Note_off_c, 0, 41, 58
1, 118573, Note_off_c, 0, 50, 53
1, 118576, Control_c, 0, 64, 54
1, 118589, Note_off_c, 0, 68, 55
1, 118590, Control_c, 0, 64, 42
1, 118603, Note_off_c, 0, 44, 40
1, 118605, Control_c, 0, 64, 30
1, 118612, Note_off_c, 0, 48, 52
1, 118620, Control_c, 0, 64, 21
1, 118634, Note_on_c, 0, 74, 75
1, 118643, Note_off_c, 0, 72, 55
1, 118649, Control_c, 0, 64, 25
1, 118655, Note_on_c, 0, 62, 60
1, 118664, Control_c, 0, 64, 32
1, 118679, Control_c, 0, 64, 39
1, 118691, Note_on_c, 0, 44, 52
1, 118694, Control_c, 0, 64, 46
1, 118699, Note_on_c, 0, 50, 42
1, 118707, Note_on_c, 0, 68, 66
1, 118709, Control_c, 0, 64, 54
1, 118721, Note_on_c, 0, 48, 37
1, 118723, Control_c, 0, 64, 60
1, 118729, Note_off_c, 0, 74, 64
1, 118735, Note_off_c, 0, 44, 59
1, 118738, Control_c, 0, 64, 64
1, 118739, Note_off_c, 0, 50, 50
1, 118746, Note_off_c, 0, 62, 55
1, 118749, Note_on_c, 0, 72, 47
1, 118753, Control_c, 0, 64, 66
1, 118761, Note_off_c, 0, 48, 52
1, 118789, Note_off_c, 0, 68, 52
1, 118825, Note_on_c, 0, 74, 72
1, 118837, Note_on_c, 0, 41, 37
1, 118846, Note_on_c, 0, 62, 47
1, 118857, Control_c, 0, 64, 67
1, 118867, Note_off_c, 0, 72, 45
1, 118872, Control_c, 0, 64, 67
1, 118876, Note_off_c, 0, 41, 54
1, 118901, Control_c, 0, 64, 68
1, 118904, Note_on_c, 0, 68, 67
1, 118908, Note_off_c, 0, 74, 66
1, 118911, Note_off_c, 0, 62, 61
1, 118916, Control_c, 0, 64, 68
1, 118934, Note_on_c, 0, 72, 57
1, 118968, Control_c, 0, 64, 67
1, 118983, Control_c, 0, 64, 63
1, 118985, Note_off_c, 0, 68, 56
1, 118998, Control_c, 0, 64, 55
1, 119013, Control_c, 0, 64, 37
1, 119014, Note_on_c, 0, 31, 57
1, 119028, Control_c, 0, 64, 0
1, 119049, Note_off_c, 0, 31, 63
1, 119054, Note_on_c, 0, 75, 76
1, 119061, Note_off_c, 0, 72, 61
1, 119067, Note_on_c, 0, 63, 48
1, 119072, Control_c, 0, 64, 13
1, 119087, Control_c, 0, 64, 24
1, 119102, Control_c, 0, 64, 31
1, 119117, Control_c, 0, 64, 37
1, 119132, Control_c, 0, 64, 43
1, 119135, Note_off_c, 0, 63, 64
1, 119137, Note_off_c, 0, 75, 64
1, 119147, Control_c, 0, 64, 51
1, 119156, Note_on_c, 0, 67, 54
1, 119162, Control_c, 0, 64, 58
1, 119177, Control_c, 0, 64, 62
1, 119188, Note_off_c, 0, 67, 63
1, 119189, Note_on_c, 0, 71, 63
1, 119191, Control_c, 0, 64, 65
1, 119206, Control_c, 0, 64, 67
1, 119218, Note_on_c, 0, 51, 41
1, 119221, Control_c, 0, 64, 67
1, 119224, Note_on_c, 0, 47, 43
1, 119233, Note_on_c, 0, 43, 43
1, 119248, Note_off_c, 0, 51, 55
1, 119250, Note_on_c, 0, 74, 80
1, 119262, Note_on_c, 0, 62, 65
1, 119272, Note_off_c, 0, 71, 61
1, 119275, Note_off_c, 0, 43, 55
1, 119281, Control_c, 0, 64, 68
1, 119281, Note_off_c, 0, 47, 45
1, 119296, Control_c, 0, 64, 68
1, 119323, Note_on_c, 0, 67, 67
1, 119338, Note_off_c, 0, 74, 63
1, 119352, Note_on_c, 0, 50, 55
1, 119355, Control_c, 0, 64, 68
1, 119361, Note_off_c, 0, 67, 66
1, 119363, Note_off_c, 0, 62, 60
1, 119370, Control_c, 0, 64, 66
1, 119375, Note_on_c, 0, 71, 37
1, 119378, Note_on_c, 0, 47, 38
1, 119382, Note_on_c, 0, 43, 21
1, 119382, Note_off_c, 0, 50, 64
1, 119385, Control_c, 0, 64, 61
1, 119400, Control_c, 0, 64, 54
1, 119403, Note_off_c, 0, 71, 57
1, 119408, Note_off_c, 0, 47, 57
1, 119414, Control_c, 0, 64, 44
1, 119415, Note_off_c, 0, 43, 54
1, 119429, Control_c, 0, 64, 37
1, 119434, Note_on_c, 0, 72, 88
1, 119444, Control_c, 0, 64, 37
1, 119454, Note_on_c, 0, 60, 54
1, 119458, Control_c, 0, 64, 41
1, 119473, Control_c, 0, 64, 47
1, 119488, Control_c, 0, 64, 54
1, 119503, Control_c, 0, 64, 59
1, 119518, Control_c, 0, 64, 63
1, 119520, Note_on_c, 0, 63, 74
1, 119532, Control_c, 0, 64, 66
1, 119539, Note_on_c, 0, 51, 47
1, 119539, Note_on_c, 0, 55, 53
1, 119547, Control_c, 0, 64, 68
1, 119554, Note_off_c, 0, 72, 62
1, 119562, Control_c, 0, 64, 69
1, 119567, Note_on_c, 0, 67, 61
1, 119570, Note_off_c, 0, 63, 63
1, 119576, Note_off_c, 0, 55, 63
1, 119577, Control_c, 0, 64, 70
1, 119579, Note_off_c, 0, 60, 42
1, 119585, Note_off_c, 0, 51, 60
1, 119587, Note_off_c, 0, 67, 68
1, 119592, Control_c, 0, 64, 70
1, 119606, Control_c, 0, 64, 71
1, 119621, Control_c, 0, 64, 72
1, 119636, Note_on_c, 0, 71, 82
1, 119648, Note_on_c, 0, 59, 64
1, 119695, Note_on_c, 0, 50, 23
1, 119725, Note_on_c, 0, 62, 64
1, 119726, Note_off_c, 0, 59, 53
1, 119743, Note_off_c, 0, 50, 40
1, 119766, Note_off_c, 0, 71, 62
1, 119782, Note_on_c, 0, 67, 61
1, 119786, Note_off_c, 0, 62, 61
1, 119792, Control_c, 0, 64, 71
1, 119806, Control_c, 0, 64, 71
1, 119821, Control_c, 0, 64, 69
1, 119836, Control_c, 0, 64, 66
1, 119841, Note_on_c, 0, 37, 54
1, 119851, Control_c, 0, 64, 62
1, 119865, Control_c, 0, 64, 56
1, 119880, Control_c, 0, 64, 44
1, 119895, Control_c, 0, 64, 27
1, 119910, Control_c, 0, 64, 10
1, 119914, Note_on_c, 0, 70, 68
1, 119922, Note_off_c, 0, 67, 65
1, 119925, Control_c, 0, 64, 8
1, 119940, Note_on_c, 0, 58, 54
1, 119940, Control_c, 0, 64, 10
1, 119950, Note_off_c, 0, 37, 63
1, 119955, Control_c, 0, 64, 15
1, 119969, Control_c, 0, 64, 20
1, 119984, Control_c, 0, 64, 24
1, 119999, Control_c, 0, 64, 30
1, 120015, Control_c, 0, 64, 35
1, 120029, Control_c, 0, 64, 41
1, 120029, Control_c, 0, 67, 9
1, 120038, Note_off_c, 0, 58, 57
1, 120044, Control_c, 0, 64, 46
1, 120044, Control_c, 0, 67, 10
1, 120047, Note_on_c, 0, 61, 52
1, 120059, Control_c, 0, 64, 51
1, 120059, Control_c, 0, 67, 11
1, 120063, Note_off_c, 0, 70, 62
1, 120074, Control_c, 0, 64, 55
1, 120074, Control_c, 0, 67, 12
1, 120089, Control_c, 0, 64, 58
1, 120093, Note_off_c, 0, 61, 60
1, 120098, Note_on_c, 0, 53, 45
1, 120104, Control_c, 0, 64, 59
1, 120112, Note_on_c, 0, 65, 49
1, 120116, Note_on_c, 0, 49, 36
1, 120119, Control_c, 0, 67, 13
1, 120133, Control_c, 0, 67, 14
1, 120140, Note_off_c, 0, 53, 57
1, 120148, Control_c, 0, 67, 16
1, 120157, Note_off_c, 0, 49, 49
1, 120163, Control_c, 0, 67, 19
1, 120165, Note_on_c, 0, 68, 71
1, 120175, Note_on_c, 0, 56, 52
1, 120178, Control_c, 0, 67, 22
1, 120193, Control_c, 0, 67, 25
1, 120208, Control_c, 0, 67, 26
1, 120223, Control_c, 0, 67, 27
1, 120224, Note_off_c, 0, 65, 42
1, 120235, Note_off_c, 0, 56, 61
1, 120237, Control_c, 0, 64, 58
1, 120237, Control_c, 0, 67, 29
1, 120244, Note_on_c, 0, 61, 52
1, 120252, Control_c, 0, 67, 30
1, 120267, Control_c, 0, 64, 57
1, 120267, Control_c, 0, 67, 32
1, 120268, Note_off_c, 0, 68, 60
1, 120273, Note_on_c, 0, 49, 48
1, 120281, Control_c, 0, 64, 56
1, 120281, Control_c, 0, 67, 35
1, 120283, Note_on_c, 0, 65, 51
1, 120285, Note_on_c, 0, 53, 30
1, 120285, Note_off_c, 0, 61, 61
1, 120296, Control_c, 0, 64, 54
1, 120296, Control_c, 0, 67, 39
1, 120311, Control_c, 0, 64, 50
1, 120311, Control_c, 0, 67, 44
1, 120312, Note_off_c, 0, 49, 66
1, 120320, Note_off_c, 0, 53, 49
1, 120326, Control_c, 0, 64, 46
1, 120326, Control_c, 0, 67, 48
1, 120332, Note_off_c, 0, 65, 52
1, 120341, Control_c, 0, 64, 41
1, 120341, Control_c, 0, 67, 52
1, 120353, Note_on_c, 0, 67, 78
1, 120355, Control_c, 0, 64, 35
1, 120355, Control_c, 0, 67, 56
1, 120370, Control_c, 0, 64, 27
1, 120370, Control_c, 0, 67, 60
1, 120375, Note_on_c, 0, 55, 55
1, 120385, Control_c, 0, 64, 19
1, 120385, Control_c, 0, 67, 63
1, 120400, Control_c, 0, 64, 12
1, 120400, Control_c, 0, 67, 65
1, 120414, Control_c, 0, 64, 11
1, 120414, Control_c, 0, 67, 66
1, 120437, Control_c, 0, 64, 10
1, 120467, Control_c, 0, 64, 12
1, 120476, Note_off_c, 0, 55, 61
1, 120481, Note_on_c, 0, 40, 43
1, 120481, Control_c, 0, 64, 16
1, 120481, Control_c, 0, 67, 67
1, 120485, Note_on_c, 0, 56, 58
1, 120496, Control_c, 0, 64, 22
1, 120499, Note_off_c, 0, 67, 59
1, 120506, Note_on_c, 0, 44, 18
1, 120511, Control_c, 0, 64, 27
1, 120511, Control_c, 0, 67, 68
1, 120516, Note_on_c, 0, 49, 15
1, 120521, Note_on_c, 0, 61, 57
1, 120524, Note_off_c, 0, 40, 50
1, 120526, Control_c, 0, 64, 32
1, 120526, Control_c, 0, 67, 68
1, 120532, Note_off_c, 0, 56, 63
1, 120541, Control_c, 0, 64, 36
1, 120549, Note_off_c, 0, 44, 46
1, 120556, Control_c, 0, 64, 40
1, 120560, Note_off_c, 0, 49, 38
1, 120570, Control_c, 0, 64, 46
1, 120585, Control_c, 0, 64, 51
1, 120595, Note_on_c, 0, 65, 73
1, 120600, Control_c, 0, 64, 57
1, 120600, Control_c, 0, 67, 69
1, 120604, Note_off_c, 0, 61, 60
1, 120605, Note_on_c, 0, 53, 55
1, 120614, Control_c, 0, 64, 60
1, 120629, Control_c, 0, 64, 61
1, 120697, Note_off_c, 0, 65, 61
1, 120700, Poly_aftertouch_c, 0, 41, 127
1, 120705, Poly_aftertouch_c, 0, 44, 127
1, 120706, Note_on_c, 0, 56, 45
1, 120709, Note_off_c, 0, 53, 36
1, 120731, Poly_aftertouch_c, 0, 44, 0
1, 120733, Note_off_c, 0, 56, 59
1, 120742, Poly_aftertouch_c, 0, 41, 0
1, 120748, Note_on_c, 0, 61, 56
1, 120771, Note_off_c, 0, 61, 67
1, 120777, Control_c, 0, 67, 69
1, 120792, Control_c, 0, 67, 70
1, 120808, Control_c, 0, 67, 72
1, 120823, Control_c, 0, 64, 61
1, 120823, Control_c, 0, 67, 74
1, 120838, Control_c, 0, 64, 59
1, 120838, Control_c, 0, 67, 77
1, 120852, Control_c, 0, 64, 57
1, 120852, Control_c, 0, 67, 79
1, 120863, Note_on_c, 0, 31, 53
1, 120867, Control_c, 0, 64, 52
1, 120867, Control_c, 0, 67, 82
1, 120882, Control_c, 0, 64, 43
1, 120882, Control_c, 0, 67, 85
1, 120897, Control_c, 0, 64, 34
1, 120897, Control_c, 0, 67, 89
1, 120911, Control_c, 0, 64, 29
1, 120911, Control_c, 0, 67, 94
1, 120918, Note_off_c, 0, 31, 61
1, 120926, Control_c, 0, 64, 28
1, 120926, Control_c, 0, 67, 98
1, 120932, Note_on_c, 0, 75, 68
1, 120941, Control_c, 0, 64, 29
1, 120941, Control_c, 0, 67, 102
1, 120947, Note_on_c, 0, 63, 48
1, 120956, Control_c, 0, 64, 30
1, 120956, Control_c, 0, 67, 103
1, 120971, Control_c, 0, 64, 33
1, 120986, Control_c, 0, 64, 36
1, 121001, Control_c, 0, 64, 39
1, 121016, Control_c, 0, 64, 43
1, 121030, Control_c, 0, 64, 47
1, 121033, Note_off_c, 0, 75, 62
1, 121045, Control_c, 0, 64, 50
1, 121046, Note_on_c, 0, 67, 54
1, 121060, Control_c, 0, 64, 53
1, 121075, Control_c, 0, 64, 54
1, 121078, Note_off_c, 0, 63, 41
1, 121090, Control_c, 0, 64, 55
1, 121106, Note_off_c, 0, 67, 58
1, 121120, Note_on_c, 0, 71, 47
1, 121132, Note_on_c, 0, 47, 36
1, 121134, Note_on_c, 0, 51, 42
1, 121153, Note_on_c, 0, 43, 32
1, 121164, Control_c, 0, 64, 54
1, 121172, Note_on_c, 0, 74, 73
1, 121182, Note_off_c, 0, 51, 49
1, 121186, Control_c, 0, 64, 54
1, 121197, Note_off_c, 0, 47, 45
1, 121200, Note_on_c, 0, 62, 58
1, 121200, Note_off_c, 0, 43, 50
1, 121201, Control_c, 0, 64, 52
1, 121216, Control_c, 0, 64, 47
1, 121230, Control_c, 0, 64, 39
1, 121237, Note_off_c, 0, 71, 37
1, 121245, Control_c, 0, 64, 26
1, 121260, Control_c, 0, 64, 14
1, 121260, Control_c, 0, 67, 102
1, 121262, Note_on_c, 0, 67, 56
1, 121285, Note_off_c, 0, 74, 60
1, 121290, Control_c, 0, 64, 18
1, 121302, Note_on_c, 0, 43, 41
1, 121305, Control_c, 0, 64, 24
1, 121315, Note_off_c, 0, 67, 66
1, 121319, Control_c, 0, 64, 30
1, 121323, Note_on_c, 0, 50, 38
1, 121327, Note_on_c, 0, 47, 42
1, 121328, Note_on_c, 0, 71, 46
1, 121329, Note_off_c, 0, 62, 42
1, 121333, Control_c, 0, 64, 35
1, 121348, Control_c, 0, 64, 37
1, 121353, Note_off_c, 0, 71, 60
1, 121365, Note_off_c, 0, 47, 57
1, 121365, Note_off_c, 0, 43, 50
1, 121371, Note_off_c, 0, 50, 46
1, 121378, Control_c, 0, 64, 32
1, 121378, Control_c, 0, 67, 102
1, 121391, Note_on_c, 0, 72, 73
1, 121392, Control_c, 0, 64, 27
1, 121392, Control_c, 0, 67, 101
1, 121407, Control_c, 0, 67, 99
1, 121422, Control_c, 0, 64, 29
1, 121422, Control_c, 0, 67, 97
1, 121428, Note_on_c, 0, 60, 29
1, 121436, Control_c, 0, 64, 32
1, 121436, Control_c, 0, 67, 95
1, 121451, Control_c, 0, 64, 36
1, 121451, Control_c, 0, 67, 93
1, 121466, Control_c, 0, 64, 40
1, 121466, Control_c, 0, 67, 91
1, 121481, Control_c, 0, 64, 46
1, 121481, Control_c, 0, 67, 89
1, 121492, Note_on_c, 0, 63, 61
1, 121496, Control_c, 0, 64, 53
1, 121496, Control_c, 0, 67, 88
1, 121511, Control_c, 0, 64, 57
1, 121526, Control_c, 0, 64, 58
1, 121526, Control_c, 0, 67, 90
1, 121537, Note_off_c, 0, 72, 60
1, 121540, Control_c, 0, 64, 57
1, 121540, Control_c, 0, 67, 92
1, 121546, Note_off_c, 0, 60, 41
1, 121546, Note_off_c, 0, 63, 62
1, 121555, Control_c, 0, 64, 54
1, 121555, Control_c, 0, 67, 93
1, 121559, Note_on_c, 0, 55, 42
1, 121560, Note_on_c, 0, 51, 37
1, 121564, Note_on_c, 0, 67, 50
1, 121570, Control_c, 0, 64, 51
1, 121570, Control_c, 0, 67, 94
1, 121585, Control_c, 0, 64, 46
1, 121590, Note_off_c, 0, 67, 56
1, 121600, Control_c, 0, 64, 36
1, 121606, Note_off_c, 0, 55, 47
1, 121612, Note_off_c, 0, 51, 44
1, 121615, Control_c, 0, 64, 19
1, 121630, Control_c, 0, 64, 0
1, 121630, Control_c, 0, 67, 95
1, 121636, Note_on_c, 0, 71, 74
1, 121645, Control_c, 0, 67, 96
1, 121656, Note_on_c, 0, 59, 38
1, 121660, Control_c, 0, 67, 96
1, 121689, Control_c, 0, 64, 14
1, 121704, Control_c, 0, 64, 23
1, 121719, Control_c, 0, 64, 28
1, 121734, Control_c, 0, 64, 31
1, 121743, Note_on_c, 0, 62, 56
1, 121749, Control_c, 0, 64, 32
1, 121750, Note_on_c, 0, 55, 27
1, 121761, Note_on_c, 0, 50, 37
1, 121764, Control_c, 0, 64, 34
1, 121779, Control_c, 0, 64, 36
1, 121782, Note_off_c, 0, 59, 45
1, 121789, Note_off_c, 0, 62, 58
1, 121791, Note_off_c, 0, 55, 42
1, 121794, Note_off_c, 0, 50, 44
1, 121794, Control_c, 0, 64, 38
1, 121798, Note_off_c, 0, 71, 62
1, 121808, Control_c, 0, 64, 40
1, 121821, Note_on_c, 0, 67, 51
1, 121823, Control_c, 0, 64, 42
1, 121838, Control_c, 0, 64, 42
1, 121852, Control_c, 0, 64, 43
1, 121867, Control_c, 0, 64, 43
1, 121882, Control_c, 0, 64, 44
1, 121882, Control_c, 0, 67, 97
1, 121934, Control_c, 0, 64, 42
1, 121949, Control_c, 0, 64, 39
1, 121954, Note_off_c, 0, 67, 64
1, 121956, Note_on_c, 0, 37, 46
1, 121964, Control_c, 0, 64, 33
1, 121979, Control_c, 0, 64, 26
1, 121981, Note_on_c, 0, 70, 62
1, 121994, Control_c, 0, 64, 20
1, 122008, Control_c, 0, 64, 18
1, 122012, Note_on_c, 0, 58, 44
1, 122023, Control_c, 0, 64, 19
1, 122038, Control_c, 0, 64, 22
1, 122053, Control_c, 0, 64, 27
1, 122063, Note_off_c, 0, 37, 60
1, 122067, Control_c, 0, 64, 32
1, 122083, Control_c, 0, 64, 35
1, 122098, Control_c, 0, 64, 39
1, 122113, Control_c, 0, 64, 42
1, 122128, Control_c, 0, 64, 44
1, 122144, Note_off_c, 0, 58, 46
1, 122147, Note_on_c, 0, 61, 44
1, 122157, Control_c, 0, 64, 43
1, 122163, Note_off_c, 0, 70, 63
1, 122172, Control_c, 0, 64, 42
1, 122186, Control_c, 0, 64, 42
1, 122201, Control_c, 0, 64, 41
1, 122216, Control_c, 0, 64, 40
1, 122219, Note_on_c, 0, 65, 55
1, 122219, Note_off_c, 0, 61, 55
1, 122240, Note_on_c, 0, 53, 32
1, 122249, Note_on_c, 0, 49, 33
1, 122290, Control_c, 0, 67, 97
1, 122292, Note_off_c, 0, 49, 47
1, 122305, Note_off_c, 0, 65, 56
1, 122305, Control_c, 0, 67, 98
1, 122307, Note_off_c, 0, 53, 40
1, 122318, Note_on_c, 0, 68, 56
1, 122320, Control_c, 0, 64, 40
1, 122334, Control_c, 0, 67, 98
1, 122342, Note_on_c, 0, 56, 39
1, 122349, Control_c, 0, 64, 39
1, 122349, Control_c, 0, 67, 99
1, 122364, Control_c, 0, 64, 37
1, 122364, Control_c, 0, 67, 99
1, 122378, Control_c, 0, 64, 33
1, 122378, Control_c, 0, 67, 100
1, 122393, Control_c, 0, 64, 29
1, 122410, Control_c, 0, 64, 24
1, 122424, Control_c, 0, 64, 19
1, 122439, Control_c, 0, 64, 14
1, 122439, Control_c, 0, 67, 101
1, 122445, Note_on_c, 0, 61, 45
1, 122454, Control_c, 0, 64, 8
1, 122454, Control_c, 0, 67, 101
1, 122469, Control_c, 0, 64, 0
1, 122469, Control_c, 0, 67, 103
1, 122483, Control_c, 0, 67, 103
1, 122496, Note_on_c, 0, 49, 38
1, 122498, Control_c, 0, 64, 10
1, 122498, Control_c, 0, 67, 105
1, 122511, Note_off_c, 0, 56, 44
1, 122513, Control_c, 0, 64, 15
1, 122513, Control_c, 0, 67, 106
1, 122515, Note_on_c, 0, 53, 20
1, 122524, Note_off_c, 0, 68, 59
1, 122528, Note_on_c, 0, 65, 46
1, 122528, Control_c, 0, 64, 19
1, 122528, Control_c, 0, 67, 108
1, 122543, Control_c, 0, 64, 23
1, 122543, Control_c, 0, 67, 111
1, 122557, Note_off_c, 0, 61, 57
1, 122557, Control_c, 0, 64, 26
1, 122557, Control_c, 0, 67, 113
1, 122572, Control_c, 0, 64, 29
1, 122587, Control_c, 0, 64, 31
1, 122602, Control_c, 0, 64, 32
1, 122603, Note_off_c, 0, 65, 51
1, 122617, Note_off_c, 0, 53, 39
1, 122617, Control_c, 0, 64, 34
1, 122617, Control_c, 0, 67, 113
1, 122617, Note_off_c, 0, 49, 57
1, 122631, Control_c, 0, 64, 35
1, 122644, Note_on_c, 0, 67, 63
1, 122646, Control_c, 0, 64, 36
1, 122704, Note_on_c, 0, 55, 36
1, 122713, Control_c, 0, 64, 35
1, 122728, Control_c, 0, 64, 34
1, 122728, Control_c, 0, 67, 114
1, 122743, Control_c, 0, 64, 30
1, 122743, Control_c, 0, 67, 114
1, 122757, Control_c, 0, 64, 27
1, 122772, Control_c, 0, 64, 23
1, 122787, Control_c, 0, 64, 22
1, 122787, Control_c, 0, 67, 115
1, 122801, Control_c, 0, 64, 21
1, 122801, Control_c, 0, 67, 115
1, 122831, Control_c, 0, 64, 22
1, 122831, Control_c, 0, 67, 116
1, 122840, Note_on_c, 0, 56, 41
1, 122846, Control_c, 0, 64, 24
1, 122846, Control_c, 0, 67, 118
1, 122861, Control_c, 0, 64, 28
1, 122861, Control_c, 0, 67, 121
1, 122876, Control_c, 0, 64, 31
1, 122876, Control_c, 0, 67, 122
1, 122891, Control_c, 0, 64, 34
1, 122891, Control_c, 0, 67, 123
1, 122906, Control_c, 0, 64, 35
1, 122921, Control_c, 0, 64, 37
1, 122921, Control_c, 0, 67, 124
1, 122933, Note_on_c, 0, 40, 33
1, 122935, Control_c, 0, 64, 38
1, 122935, Control_c, 0, 67, 125
1, 122938, Note_on_c, 0, 49, 37
1, 122942, Note_on_c, 0, 61, 43
1, 122943, Note_off_c, 0, 55, 39
1, 122944, Note_on_c, 0, 44, 28
1, 122944, Note_off_c, 0, 67, 38
1, 122950, Control_c, 0, 64, 38
1, 122950, Control_c, 0, 67, 127
1, 122965, Control_c, 0, 64, 39
1, 122965, Control_c, 0, 67, 127
1, 122980, Control_c, 0, 64, 39
1, 122995, Control_c, 0, 64, 40
1, 123009, Control_c, 0, 64, 41
1, 123024, Control_c, 0, 64, 42
1, 123033, Note_off_c, 0, 56, 37
1, 123039, Control_c, 0, 64, 42
1, 123054, Control_c, 0, 64, 43
1, 123096, Note_off_c, 0, 44, 37
1, 123117, Note_off_c, 0, 49, 26
1, 123123, Note_on_c, 0, 65, 53
1, 123129, Note_off_c, 0, 40, 33
1, 123140, Note_off_c, 0, 61, 36
1, 123152, Note_on_c, 0, 53, 38
1, 123203, Control_c, 0, 64, 42
1, 123232, Control_c, 0, 64, 41
1, 123247, Control_c, 0, 64, 40
1, 123262, Control_c, 0, 64, 39
1, 123277, Control_c, 0, 64, 38
1, 123292, Control_c, 0, 64, 37
1, 123306, Control_c, 0, 64, 37
1, 123321, Control_c, 0, 64, 36
1, 123336, Control_c, 0, 64, 36
1, 123351, Control_c, 0, 64, 34
1, 123363, Note_on_c, 0, 56, 39
1, 123366, Control_c, 0, 64, 34
1, 123380, Control_c, 0, 64, 33
1, 123395, Control_c, 0, 64, 33
1, 123410, Control_c, 0, 64, 32
1, 123432, Control_c, 0, 64, 32
1, 123447, Control_c, 0, 64, 30
1, 123462, Control_c, 0, 64, 27
1, 123477, Control_c, 0, 64, 24
1, 123492, Control_c, 0, 64, 18
1, 123502, Note_on_c, 0, 41, 24
1, 123505, Note_on_c, 0, 49, 24
1, 123506, Control_c, 0, 64, 12
1, 123521, Control_c, 0, 64, 0
1, 123523, Note_on_c, 0, 44, 14
1, 123610, Control_c, 0, 64, 12
1, 123624, Control_c, 0, 64, 19
1, 123639, Control_c, 0, 64, 24
1, 123651, Note_on_c, 0, 61, 49
1, 123654, Control_c, 0, 64, 28
1, 123669, Control_c, 0, 64, 30
1, 123678, Note_off_c, 0, 65, 49
1, 123684, Control_c, 0, 64, 33
1, 123698, Note_off_c, 0, 49, 45
1, 123699, Control_c, 0, 64, 35
1, 123699, Control_c, 0, 67, 127
1, 123705, Note_off_c, 0, 53, 38
1, 123712, Note_off_c, 0, 44, 39
1, 123714, Control_c, 0, 64, 37
1, 123714, Control_c, 0, 67, 126
1, 123722, Note_off_c, 0, 56, 42
1, 123728, Note_off_c, 0, 61, 48
1, 123728, Control_c, 0, 64, 39
1, 123728, Control_c, 0, 67, 125
1, 123743, Control_c, 0, 64, 40
1, 123743, Control_c, 0, 67, 124
1, 123758, Note_off_c, 0, 41, 40
1, 123758, Control_c, 0, 64, 41
1, 123758, Control_c, 0, 67, 124
1, 123773, Control_c, 0, 64, 42
1, 123773, Control_c, 0, 67, 123
1, 123788, Control_c, 0, 64, 42
1, 123803, Control_c, 0, 64, 43
1, 123803, Control_c, 0, 67, 121
1, 123818, Control_c, 0, 64, 43
1, 123818, Control_c, 0, 67, 119
1, 123832, Control_c, 0, 64, 44
1, 123832, Control_c, 0, 67, 118
1, 123847, Control_c, 0, 67, 117
1, 123862, Control_c, 0, 64, 44
1, 123877, Control_c, 0, 64, 45
1, 123892, Control_c, 0, 64, 46
1, 123906, Control_c, 0, 64, 48
1, 123906, Control_c, 0, 67, 118
1, 123921, Control_c, 0, 64, 50
1, 123936, Control_c, 0, 64, 53
1, 123936, Control_c, 0, 67, 118
1, 123950, Control_c, 0, 64, 55
1, 123950, Control_c, 0, 67, 119
1, 123965, Control_c, 0, 64, 55
1, 123965, Control_c, 0, 67, 120
1, 123980, Control_c, 0, 64, 52
1, 123980, Control_c, 0, 67, 121
1, 123995, Control_c, 0, 64, 43
1, 123995, Control_c, 0, 67, 122
1, 124011, Control_c, 0, 64, 22
1, 124011, Control_c, 0, 67, 124
1, 124026, Control_c, 0, 64, 0
1, 124026, Control_c, 0, 67, 126
1, 124041, Control_c, 0, 67, 127
1, 124050, Note_on_c, 0, 62, 60
1, 124056, Note_on_c, 0, 43, 39
1, 124059, Note_on_c, 0, 59, 43
1, 124071, Note_on_c, 0, 50, 9
1, 124074, Note_off_c, 0, 62, 64
1, 124087, Note_off_c, 0, 59, 53
1, 124092, Note_off_c, 0, 43, 48
1, 124100, Control_c, 0, 64, 14
1, 124115, Control_c, 0, 64, 19
1, 124122, Note_off_c, 0, 50, 34
1, 124129, Control_c, 0, 64, 22
1, 124226, Control_c, 0, 64, 21
1, 124241, Control_c, 0, 64, 19
1, 124255, Control_c, 0, 64, 16
1, 124270, Control_c, 0, 64, 12
1, 124285, Control_c, 0, 64, 0
1, 124303, Note_on_c, 0, 38, 41
1, 124336, Note_off_c, 0, 38, 54
1, 124363, Note_on_c, 0, 50, 43
1, 124397, Note_off_c, 0, 50, 52
1, 124439, Note_on_c, 0, 36, 47
1, 124470, Note_off_c, 0, 36, 58
1, 124497, Note_on_c, 0, 48, 50
1, 124524, Note_off_c, 0, 48, 60
1, 124560, Note_on_c, 0, 35, 49
1, 124596, Note_off_c, 0, 35, 61
1, 124599, Note_on_c, 0, 47, 63
1, 124623, Note_off_c, 0, 47, 64
1, 124656, Note_on_c, 0, 32, 69
1, 124707, Note_off_c, 0, 32, 66
1, 124715, Note_on_c, 0, 44, 67
1, 124744, Note_off_c, 0, 44, 62
1, 124769, Note_on_c, 0, 31, 73
1, 124793, Note_off_c, 0, 31, 67
1, 124830, Note_on_c, 0, 43, 73
1, 124853, Note_off_c, 0, 43, 65
1, 124903, Note_on_c, 0, 44, 75
1, 124957, Note_off_c, 0, 44, 55
1, 124965, Note_on_c, 0, 56, 56
1, 125007, Note_off_c, 0, 56, 62
1, 125032, Note_on_c, 0, 43, 63
1, 125078, Note_off_c, 0, 43, 61
1, 125080, Note_on_c, 0, 55, 62
1, 125123, Note_off_c, 0, 55, 63
1, 125156, Note_on_c, 0, 41, 57
1, 125192, Note_on_c, 0, 53, 58
1, 125201, Note_off_c, 0, 41, 61
1, 125227, Note_off_c, 0, 53, 65
1, 125270, Note_on_c, 0, 39, 45
1, 125300, Note_on_c, 0, 51, 52
1, 125308, Note_off_c, 0, 39, 56
1, 125325, Note_off_c, 0, 51, 58
1, 125374, Note_on_c, 0, 37, 49
1, 125401, Note_off_c, 0, 37, 57
1, 125418, Note_on_c, 0, 49, 42
1, 125448, Note_off_c, 0, 49, 55
1, 125517, Note_on_c, 0, 65, 76
1, 125521, Note_on_c, 0, 56, 62
1, 125530, Note_on_c, 0, 61, 51
1, 125534, Note_on_c, 0, 53, 54
1, 125540, Note_off_c, 0, 65, 72
1, 125541, Note_on_c, 0, 49, 41
1, 125541, Note_off_c, 0, 56, 64
1, 125556, Note_off_c, 0, 61, 36
1, 125563, Note_off_c, 0, 53, 67
1, 125569, Note_off_c, 0, 49, 53
1, 125679, Note_on_c, 0, 67, 71
1, 125679, Control_c, 0, 64, 14
1, 125684, Note_on_c, 0, 55, 61
1, 125690, Note_on_c, 0, 43, 58
1, 125694, Control_c, 0, 64, 27
1, 125696, Note_off_c, 0, 67, 71
1, 125706, Note_on_c, 0, 59, 24
1, 125707, Note_off_c, 0, 59, 127
1, 125707, Note_off_c, 0, 55, 38
1, 125708, Control_c, 0, 64, 36
1, 125718, Note_off_c, 0, 43, 61
1, 125723, Control_c, 0, 64, 42
1, 125738, Control_c, 0, 64, 48
1, 125753, Control_c, 0, 64, 53
1, 125768, Control_c, 0, 64, 55
1, 125827, Control_c, 0, 64, 55
1, 125842, Control_c, 0, 64, 54
1, 125843, Note_on_c, 0, 38, 64
1, 125857, Control_c, 0, 64, 52
1, 125872, Control_c, 0, 64, 49
1, 125875, Note_off_c, 0, 38, 65
1, 125887, Control_c, 0, 64, 43
1, 125890, Note_on_c, 0, 50, 56
1, 125901, Control_c, 0, 64, 33
1, 125916, Control_c, 0, 64, 19
1, 125922, Note_off_c, 0, 50, 62
1, 125931, Control_c, 0, 64, 0
1, 125960, Note_on_c, 0, 36, 68
1, 125999, Note_on_c, 0, 48, 67
1, 126000, Note_off_c, 0, 36, 61
1, 126025, Note_off_c, 0, 48, 67
1, 126068, Note_on_c, 0, 35, 67
1, 126107, Note_on_c, 0, 47, 68
1, 126112, Note_off_c, 0, 35, 65
1, 126136, Note_off_c, 0, 47, 67
1, 126182, Note_on_c, 0, 32, 65
1, 126182, Control_c, 0, 67, 125
1, 126197, Control_c, 0, 67, 120
1, 126212, Control_c, 0, 67, 113
1, 126216, Note_on_c, 0, 44, 71
1, 126223, Note_off_c, 0, 32, 61
1, 126226, Control_c, 0, 67, 109
1, 126241, Control_c, 0, 67, 110
1, 126247, Note_off_c, 0, 44, 64
1, 126256, Control_c, 0, 67, 111
1, 126271, Control_c, 0, 67, 113
1, 126283, Note_on_c, 0, 31, 72
1, 126286, Control_c, 0, 67, 115
1, 126301, Control_c, 0, 67, 116
1, 126307, Note_off_c, 0, 31, 67
1, 126316, Control_c, 0, 67, 118
1, 126331, Control_c, 0, 67, 118
1, 126337, Note_on_c, 0, 43, 68
1, 126345, Control_c, 0, 67, 119
1, 126362, Note_off_c, 0, 43, 64
1, 126410, Note_on_c, 0, 44, 77
1, 126465, Note_on_c, 0, 56, 62
1, 126465, Note_off_c, 0, 44, 62
1, 126487, Control_c, 0, 67, 118
1, 126526, Note_off_c, 0, 56, 56
1, 126538, Note_on_c, 0, 43, 61
1, 126579, Note_on_c, 0, 55, 62
1, 126591, Note_off_c, 0, 43, 56
1, 126632, Note_off_c, 0, 55, 61
1, 126635, Control_c, 0, 67, 118
1, 126656, Note_on_c, 0, 41, 62
1, 126697, Note_on_c, 0, 53, 56
1, 126711, Note_off_c, 0, 41, 58
1, 126734, Note_off_c, 0, 53, 64
1, 126769, Note_on_c, 0, 39, 55
1, 126804, Note_on_c, 0, 51, 46
1, 126807, Note_off_c, 0, 39, 63
1, 126832, Note_off_c, 0, 51, 51
1, 126888, Note_on_c, 0, 37, 40
1, 126910, Note_on_c, 0, 49, 51
1, 126916, Note_off_c, 0, 37, 57
1, 126931, Control_c, 0, 67, 117
1, 126936, Note_off_c, 0, 49, 55
1, 126946, Control_c, 0, 67, 117
1, 126961, Control_c, 0, 67, 116
1, 126975, Control_c, 0, 67, 116
1, 127005, Control_c, 0, 67, 115
1, 127011, Note_on_c, 0, 65, 71
1, 127015, Note_on_c, 0, 56, 64
1, 127022, Note_on_c, 0, 61, 52
1, 127026, Note_on_c, 0, 53, 57
1, 127029, Note_off_c, 0, 65, 70
1, 127034, Note_off_c, 0, 56, 64
1, 127035, Control_c, 0, 67, 115
1, 127036, Note_on_c, 0, 49, 27
1, 127047, Note_off_c, 0, 53, 65
1, 127048, Note_off_c, 0, 61, 35
1, 127049, Control_c, 0, 67, 114
1, 127072, Note_off_c, 0, 49, 49
1, 127079, Control_c, 0, 67, 113
1, 127109, Control_c, 0, 67, 113
1, 127139, Control_c, 0, 67, 112
1, 127159, Note_on_c, 0, 44, 70
1, 127162, Note_on_c, 0, 56, 63
1, 127163, Note_on_c, 0, 68, 67
1, 127175, Control_c, 0, 64, 23
1, 127175, Control_c, 0, 67, 112
1, 127176, Note_on_c, 0, 60, 58
1, 127180, Note_on_c, 0, 51, 45
1, 127189, Note_off_c, 0, 68, 65
1, 127190, Control_c, 0, 64, 36
1, 127191, Note_off_c, 0, 56, 65
1, 127198, Note_off_c, 0, 60, 62
1, 127198, Note_off_c, 0, 44, 65
1, 127206, Control_c, 0, 64, 44
1, 127206, Control_c, 0, 67, 111
1, 127214, Note_off_c, 0, 51, 33
1, 127221, Control_c, 0, 64, 50
1, 127236, Control_c, 0, 64, 55
1, 127251, Control_c, 0, 64, 57
1, 127266, Control_c, 0, 64, 59
1, 127310, Control_c, 0, 64, 58
1, 127322, Note_on_c, 0, 39, 64
1, 127325, Control_c, 0, 64, 56
1, 127325, Control_c, 0, 67, 112
1, 127340, Control_c, 0, 64, 53
1, 127354, Control_c, 0, 64, 48
1, 127356, Note_off_c, 0, 39, 64
1, 127369, Control_c, 0, 64, 41
1, 127371, Note_on_c, 0, 51, 59
1, 127384, Control_c, 0, 64, 28
1, 127398, Control_c, 0, 64, 18
1, 127404, Note_off_c, 0, 51, 64
1, 127413, Control_c, 0, 64, 9
1, 127428, Control_c, 0, 64, 0
1, 127428, Control_c, 0, 67, 111
1, 127437, Note_on_c, 0, 37, 69
1, 127443, Control_c, 0, 67, 111
1, 127458, Control_c, 0, 67, 110
1, 127472, Control_c, 0, 67, 109
1, 127483, Note_on_c, 0, 49, 65
1, 127484, Note_off_c, 0, 37, 60
1, 127487, Control_c, 0, 67, 109
1, 127502, Control_c, 0, 67, 108
1, 127517, Control_c, 0, 67, 107
1, 127521, Note_off_c, 0, 49, 60
1, 127532, Control_c, 0, 67, 105
1, 127546, Note_on_c, 0, 36, 69
1, 127547, Control_c, 0, 67, 103
1, 127562, Control_c, 0, 67, 99
1, 127577, Control_c, 0, 67, 95
1, 127592, Control_c, 0, 67, 92
1, 127593, Note_off_c, 0, 36, 64
1, 127596, Note_on_c, 0, 48, 70
1, 127606, Control_c, 0, 67, 89
1, 127621, Control_c, 0, 67, 86
1, 127636, Control_c, 0, 67, 84
1, 127636, Note_off_c, 0, 48, 65
1, 127651, Control_c, 0, 67, 83
1, 127652, Note_on_c, 0, 34, 72
1, 127666, Control_c, 0, 67, 82
1, 127680, Control_c, 0, 67, 81
1, 127695, Control_c, 0, 67, 81
1, 127700, Note_off_c, 0, 34, 62
1, 127702, Note_on_c, 0, 46, 70
1, 127730, Note_off_c, 0, 46, 66
1, 127753, Note_on_c, 0, 32, 71
1, 127788, Note_off_c, 0, 32, 64
1, 127818, Note_on_c, 0, 44, 65
1, 127843, Control_c, 0, 67, 80
1, 127850, Note_off_c, 0, 44, 64
1, 127892, Note_on_c, 0, 44, 66
1, 127902, Control_c, 0, 67, 80
1, 127924, Control_c, 0, 67, 79
1, 127932, Note_off_c, 0, 44, 63
1, 127939, Control_c, 0, 67, 79
1, 127953, Note_on_c, 0, 56, 60
1, 127954, Control_c, 0, 67, 77
1, 127969, Control_c, 0, 67, 76
1, 127984, Control_c, 0, 67, 75
1, 127995, Note_off_c, 0, 56, 61
1, 128000, Control_c, 0, 67, 74
1, 128009, Note_on_c, 0, 42, 62
1, 128015, Control_c, 0, 67, 72
1, 128029, Control_c, 0, 67, 69
1, 128044, Control_c, 0, 67, 67
1, 128059, Control_c, 0, 67, 65
1, 128067, Note_off_c, 0, 42, 57
1, 128074, Control_c, 0, 67, 64
1, 128075, Note_on_c, 0, 54, 58
1, 128089, Control_c, 0, 67, 63
1, 128103, Control_c, 0, 67, 63
1, 128113, Note_on_c, 0, 41, 63
1, 128118, Control_c, 0, 67, 62
1, 128127, Note_off_c, 0, 54, 55
1, 128133, Control_c, 0, 67, 62
1, 128148, Control_c, 0, 67, 60
1, 128159, Note_off_c, 0, 41, 61
1, 128163, Control_c, 0, 67, 59
1, 128177, Control_c, 0, 67, 58
1, 128184, Note_on_c, 0, 53, 49
1, 128192, Control_c, 0, 67, 57
1, 128207, Control_c, 0, 67, 56
1, 128214, Note_off_c, 0, 53, 58
1, 128221, Control_c, 0, 67, 56
1, 128223, Note_on_c, 0, 39, 65
1, 128236, Control_c, 0, 67, 55
1, 128251, Control_c, 0, 67, 54
1, 128265, Note_off_c, 0, 39, 61
1, 128266, Control_c, 0, 67, 53
1, 128281, Control_c, 0, 67, 52
1, 128284, Note_on_c, 0, 51, 42
1, 128295, Control_c, 0, 67, 51
1, 128310, Control_c, 0, 67, 50
1, 128313, Note_off_c, 0, 51, 49
1, 128325, Control_c, 0, 67, 49
1, 128339, Note_on_c, 0, 37, 57
1, 128340, Control_c, 0, 67, 48
1, 128355, Control_c, 0, 67, 44
1, 128366, Note_off_c, 0, 37, 59
1, 128370, Control_c, 0, 67, 40
1, 128381, Note_on_c, 0, 49, 49
1, 128385, Control_c, 0, 67, 40
1, 128408, Note_off_c, 0, 49, 55
1, 128481, Note_on_c, 0, 64, 75
1, 128489, Control_c, 0, 67, 39
1, 128489, Note_on_c, 0, 49, 49
1, 128495, Note_on_c, 0, 52, 54
1, 128503, Control_c, 0, 67, 34
1, 128504, Note_off_c, 0, 64, 70
1, 128511, Note_on_c, 0, 56, 27
1, 128512, Note_off_c, 0, 56, 127
1, 128517, Note_on_c, 0, 61, 13
1, 128517, Note_off_c, 0, 49, 57
1, 128518, Control_c, 0, 67, 22
1, 128520, Note_off_c, 0, 52, 63
1, 128533, Control_c, 0, 67, 0
1, 128563, Note_off_c, 0, 61, 29
1, 128607, Control_c, 0, 64, 19
1, 128618, Note_on_c, 0, 69, 78
1, 128619, Note_on_c, 0, 52, 50
1, 128621, Control_c, 0, 64, 33
1, 128623, Note_on_c, 0, 57, 68
1, 128629, Note_on_c, 0, 61, 66
1, 128636, Control_c, 0, 64, 42
1, 128638, Note_off_c, 0, 69, 74
1, 128639, Note_on_c, 0, 45, 55
1, 128643, Note_off_c, 0, 57, 64
1, 128645, Note_off_c, 0, 52, 65
1, 128651, Note_off_c, 0, 61, 39
1, 128651, Control_c, 0, 64, 51
1, 128674, Control_c, 0, 64, 58
1, 128677, Note_off_c, 0, 45, 63
1, 128689, Control_c, 0, 64, 61
1, 128703, Control_c, 0, 64, 62
1, 128762, Control_c, 0, 64, 62
1, 128787, Note_on_c, 0, 40, 64
1, 128808, Control_c, 0, 64, 61
1, 128823, Control_c, 0, 64, 60
1, 128829, Note_off_c, 0, 40, 65
1, 128835, Note_on_c, 0, 52, 69
1, 128838, Control_c, 0, 64, 57
1, 128853, Control_c, 0, 64, 49
1, 128867, Control_c, 0, 64, 32
1, 128871, Note_off_c, 0, 52, 64
1, 128882, Control_c, 0, 64, 0
1, 128898, Note_on_c, 0, 38, 71
1, 128940, Note_off_c, 0, 38, 63
1, 128951, Note_on_c, 0, 50, 66
1, 128980, Note_off_c, 0, 50, 65
1, 129005, Note_on_c, 0, 37, 74
1, 129061, Note_off_c, 0, 37, 66
1, 129061, Note_on_c, 0, 49, 65
1, 129092, Note_off_c, 0, 49, 67
1, 129117, Note_on_c, 0, 34, 72
1, 129163, Note_on_c, 0, 46, 70
1, 129163, Note_off_c, 0, 34, 65
1, 129190, Note_off_c, 0, 46, 67
1, 129220, Note_on_c, 0, 33, 73
1, 129248, Note_off_c, 0, 33, 65
1, 129273, Note_on_c, 0, 45, 71
1, 129299, Note_off_c, 0, 45, 66
1, 129354, Note_on_c, 0, 45, 80
1, 129392, Note_off_c, 0, 45, 64
1, 129409, Note_on_c, 0, 57, 62
1, 129454, Note_off_c, 0, 57, 59
1, 129483, Note_on_c, 0, 43, 72
1, 129531, Note_off_c, 0, 43, 62
1, 129535, Note_on_c, 0, 55, 58
1, 129560, Note_off_c, 0, 55, 62
1, 129586, Note_on_c, 0, 41, 74
1, 129638, Note_on_c, 0, 53, 55
1, 129641, Note_off_c, 0, 41, 58
1, 129667, Note_off_c, 0, 53, 64
1, 129708, Note_on_c, 0, 40, 70
1, 129750, Note_off_c, 0, 40, 62
1, 129750, Note_on_c, 0, 52, 42
1, 129781, Note_off_c, 0, 52, 55
1, 129819, Note_on_c, 0, 38, 68
1, 129849, Note_off_c, 0, 38, 65
1, 129860, Note_on_c, 0, 50, 44
1, 129891, Note_off_c, 0, 50, 50
1, 129959, Note_on_c, 0, 57, 64
1, 129964, Note_on_c, 0, 65, 59
1, 129967, Note_on_c, 0, 53, 61
1, 129973, Note_on_c, 0, 50, 47
1, 129979, Note_off_c, 0, 57, 63
1, 129985, Note_off_c, 0, 65, 64
1, 129997, Note_off_c, 0, 53, 68
1, 130000, Note_off_c, 0, 50, 54
1, 130104, Note_on_c, 0, 46, 70
1, 130108, Note_on_c, 0, 53, 45
1, 130108, Note_on_c, 0, 58, 71
1, 130109, Note_on_c, 0, 70, 68
1, 130122, Note_on_c, 0, 62, 53
1, 130133, Note_off_c, 0, 46, 65
1, 130134, Control_c, 0, 64, 30
1, 130135, Note_off_c, 0, 53, 56
1, 130135, Note_off_c, 0, 70, 66
1, 130136, Note_off_c, 0, 58, 68
1, 130149, Note_off_c, 0, 62, 38
1, 130149, Control_c, 0, 64, 45
1, 130172, Control_c, 0, 64, 55
1, 130187, Control_c, 0, 64, 61
1, 130201, Control_c, 0, 64, 63
1, 130270, Note_on_c, 0, 41, 70
1, 130275, Control_c, 0, 64, 62
1, 130290, Control_c, 0, 64, 59
1, 130305, Note_off_c, 0, 41, 66
1, 130305, Control_c, 0, 64, 52
1, 130313, Note_on_c, 0, 53, 64
1, 130319, Control_c, 0, 64, 37
1, 130334, Control_c, 0, 64, 0
1, 130348, Note_off_c, 0, 53, 62
1, 130377, Note_on_c, 0, 39, 69
1, 130423, Note_on_c, 0, 51, 66
1, 130429, Note_off_c, 0, 39, 59
1, 130455, Note_off_c, 0, 51, 65
1, 130490, Note_on_c, 0, 38, 62
1, 130534, Note_off_c, 0, 38, 65
1, 130540, Note_on_c, 0, 50, 59
1, 130564, Note_off_c, 0, 50, 63
1, 130602, Note_on_c, 0, 35, 60
1, 130641, Note_on_c, 0, 47, 70
1, 130645, Note_off_c, 0, 35, 65
1, 130671, Note_off_c, 0, 47, 66
1, 130726, Note_on_c, 0, 34, 43
1, 130748, Note_on_c, 0, 46, 60
1, 130760, Note_off_c, 0, 34, 46
1, 130773, Note_off_c, 0, 46, 58
1, 130863, Note_on_c, 0, 70, 82
1, 130867, Note_on_c, 0, 46, 60
1, 130868, Control_c, 0, 64, 19
1, 130874, Note_on_c, 0, 58, 63
1, 130881, Note_on_c, 0, 54, 45
1, 130882, Note_off_c, 0, 70, 72
1, 130883, Control_c, 0, 64, 35
1, 130892, Note_off_c, 0, 46, 62
1, 130894, Note_off_c, 0, 58, 63
1, 130897, Note_on_c, 0, 63, 17
1, 130897, Control_c, 0, 64, 47
1, 130919, Note_off_c, 0, 54, 35
1, 130920, Control_c, 0, 64, 59
1, 130935, Control_c, 0, 64, 65
1, 130948, Note_off_c, 0, 63, 51
1, 130949, Control_c, 0, 64, 69
1, 130964, Control_c, 0, 64, 70
1, 130994, Control_c, 0, 64, 71
1, 131026, Note_on_c, 0, 42, 71
1, 131053, Control_c, 0, 64, 67
1, 131054, Note_on_c, 0, 54, 64
1, 131068, Control_c, 0, 64, 61
1, 131075, Note_off_c, 0, 42, 58
1, 131083, Control_c, 0, 64, 50
1, 131097, Control_c, 0, 64, 19
1, 131112, Control_c, 0, 64, 0
1, 131122, Note_off_c, 0, 54, 48
1, 131133, Note_on_c, 0, 41, 70
1, 131179, Note_on_c, 0, 53, 62
1, 131183, Note_off_c, 0, 41, 64
1, 131219, Note_off_c, 0, 53, 62
1, 131241, Note_on_c, 0, 39, 71
1, 131290, Note_on_c, 0, 51, 57
1, 131301, Note_off_c, 0, 39, 65
1, 131325, Note_off_c, 0, 51, 64
1, 131349, Note_on_c, 0, 35, 63
1, 131382, Note_on_c, 0, 47, 72
1, 131395, Note_off_c, 0, 35, 67
1, 131409, Note_off_c, 0, 47, 66
1, 131474, Note_on_c, 0, 34, 40
1, 131485, Note_on_c, 0, 46, 54
1, 131512, Note_off_c, 0, 34, 32
1, 131514, Note_off_c, 0, 46, 35
1, 131604, Note_on_c, 0, 74, 87
1, 131610, Note_on_c, 0, 62, 67
1, 131617, Control_c, 0, 64, 28
1, 131620, Note_off_c, 0, 74, 77
1, 131627, Note_on_c, 0, 59, 45
1, 131629, Note_off_c, 0, 62, 66
1, 131632, Control_c, 0, 64, 42
1, 131634, Note_on_c, 0, 56, 39
1, 131646, Control_c, 0, 64, 55
1, 131654, Note_off_c, 0, 59, 56
1, 131667, Note_on_c, 0, 47, 13
1, 131669, Control_c, 0, 64, 64
1, 131672, Note_off_c, 0, 56, 57
1, 131684, Control_c, 0, 64, 69
1, 131699, Control_c, 0, 64, 69
1, 131714, Poly_aftertouch_c, 0, 65, 0
1, 131716, Note_off_c, 0, 47, 54
1, 131743, Control_c, 0, 64, 70
1, 131758, Control_c, 0, 64, 72
1, 131772, Control_c, 0, 64, 75
1, 131783, Note_on_c, 0, 44, 71
1, 131787, Control_c, 0, 64, 77
1, 131802, Control_c, 0, 64, 78
1, 131816, Control_c, 0, 64, 76
1, 131822, Note_on_c, 0, 56, 65
1, 131829, Note_off_c, 0, 44, 61
1, 131831, Control_c, 0, 64, 67
1, 131845, Control_c, 0, 64, 54
1, 131859, Note_off_c, 0, 56, 59
1, 131860, Control_c, 0, 64, 20
1, 131875, Control_c, 0, 64, 0
1, 131892, Note_on_c, 0, 41, 70
1, 131935, Note_on_c, 0, 53, 64
1, 131943, Note_off_c, 0, 41, 62
1, 131980, Note_off_c, 0, 53, 62
1, 132001, Note_on_c, 0, 38, 72
1, 132049, Note_on_c, 0, 50, 73
1, 132058, Note_off_c, 0, 38, 66
1, 132081, Note_off_c, 0, 50, 64
1, 132118, Note_on_c, 0, 37, 77
1, 132151, Note_on_c, 0, 49, 76
1, 132155, Note_off_c, 0, 37, 65
1, 132179, Note_off_c, 0, 49, 68
1, 132242, Note_on_c, 0, 34, 54
1, 132268, Note_off_c, 0, 34, 57
1, 132270, Note_on_c, 0, 46, 48
1, 132287, Note_off_c, 0, 46, 40
1, 132432, Control_c, 0, 64, 11
1, 132439, Note_on_c, 0, 78, 87
1, 132439, Note_on_c, 0, 60, 67
1, 132445, Note_on_c, 0, 63, 69
1, 132447, Control_c, 0, 64, 36
1, 132449, Note_on_c, 0, 66, 66
1, 132458, Note_off_c, 0, 78, 74
1, 132460, Note_on_c, 0, 51, 59
1, 132462, Control_c, 0, 64, 52
1, 132462, Note_off_c, 0, 63, 69
1, 132465, Note_off_c, 0, 60, 66
1, 132469, Note_off_c, 0, 66, 41
1, 132476, Control_c, 0, 64, 65
1, 132483, Note_off_c, 0, 51, 63
1, 132491, Control_c, 0, 64, 86
1, 132506, Control_c, 0, 64, 113
1, 132520, Control_c, 0, 64, 115
1, 132535, Control_c, 0, 64, 119
1, 132550, Control_c, 0, 64, 127
1, 132634, Note_on_c, 0, 45, 74
1, 132667, Note_off_c, 0, 45, 65
1, 132674, Note_on_c, 0, 57, 75
1, 132699, Control_c, 0, 64, 63
1, 132713, Control_c, 0, 64, 27
1, 132719, Note_off_c, 0, 57, 60
1, 132728, Control_c, 0, 64, 0
1, 132746, Note_on_c, 0, 44, 78
1, 132790, Note_off_c, 0, 44, 65
1, 132800, Note_on_c, 0, 56, 76
1, 132828, Note_off_c, 0, 56, 64
1, 132866, Note_on_c, 0, 42, 82
1, 132918, Note_on_c, 0, 54, 65
1, 132919, Note_off_c, 0, 42, 61
1, 132948, Note_off_c, 0, 54, 67
1, 132999, Note_on_c, 0, 39, 71
1, 133041, Note_on_c, 0, 51, 65
1, 133044, Note_off_c, 0, 39, 62
1, 133075, Note_off_c, 0, 51, 63
1, 133149, Note_on_c, 0, 36, 62
1, 133190, Note_off_c, 0, 36, 64
1, 133196, Note_on_c, 0, 48, 67
1, 133215, Note_off_c, 0, 48, 65
1, 133493, Note_on_c, 0, 61, 54
1, 133493, Note_on_c, 0, 81, 64
1, 133496, Note_on_c, 0, 78, 59
1, 133498, Note_on_c, 0, 69, 50
1, 133501, Note_on_c, 0, 73, 47
1, 133512, Note_off_c, 0, 81, 67
1, 133515, Note_off_c, 0, 78, 63
1, 133516, Note_on_c, 0, 66, 31
1, 133520, Note_off_c, 0, 69, 62
1, 133522, Note_off_c, 0, 61, 66
1, 133529, Note_off_c, 0, 73, 59
1, 133551, Note_off_c, 0, 66, 31
1, 133671, Control_c, 0, 67, 8
1, 133686, Control_c, 0, 67, 8
1, 133697, Note_on_c, 0, 61, 67
1, 133705, Note_on_c, 0, 78, 72
1, 133709, Note_on_c, 0, 66, 51
1, 133715, Note_on_c, 0, 73, 55
1, 133716, Note_on_c, 0, 69, 56
1, 133721, Note_off_c, 0, 61, 68
1, 133721, Note_off_c, 0, 78, 70
1, 133734, Note_off_c, 0, 66, 57
1, 133738, Note_off_c, 0, 73, 63
1, 133749, Note_off_c, 0, 69, 0
1, 133759, Control_c, 0, 67, 10
1, 133761, Note_on_c, 0, 69, 67
1, 133765, Note_on_c, 0, 61, 86
1, 133765, Note_on_c, 0, 78, 86
1, 133769, Note_on_c, 0, 57, 3
1, 133774, Control_c, 0, 67, 10
1, 133784, Note_on_c, 0, 66, 52
1, 133785, Note_off_c, 0, 69, 70
1, 133785, Note_off_c, 0, 78, 74
1, 133786, Note_off_c, 0, 61, 71
1, 133788, Note_off_c, 0, 66, 45
1, 133792, Note_on_c, 0, 73, 21
1, 133793, Note_off_c, 0, 73, 35
1, 133801, Note_off_c, 0, 57, 60
1, 133819, Control_c, 0, 67, 11
1, 133863, Control_c, 0, 67, 10
1, 133878, Control_c, 0, 67, 8
1, 133893, Control_c, 0, 67, 0
1, 133930, Note_on_c, 0, 73, 71
1, 133938, Note_on_c, 0, 69, 59
1, 133946, Note_on_c, 0, 54, 56
1, 133950, Note_on_c, 0, 61, 52
1, 133968, Note_off_c, 0, 73, 60
1, 133969, Note_off_c, 0, 54, 60
1, 133970, Note_off_c, 0, 69, 67
1, 133971, Note_off_c, 0, 61, 61
1, 134033, Poly_aftertouch_c, 0, 57, 0
1, 134093, Control_c, 0, 67, 13
1, 134096, Note_on_c, 0, 54, 50
1, 134096, Note_on_c, 0, 66, 76
1, 134098, Note_on_c, 0, 69, 71
1, 134100, Note_on_c, 0, 61, 55
1, 134108, Control_c, 0, 67, 21
1, 134111, Note_on_c, 0, 49, 47
1, 134116, Note_on_c, 0, 57, 44
1, 134118, Note_off_c, 0, 66, 69
1, 134120, Note_off_c, 0, 69, 71
1, 134123, Control_c, 0, 67, 39
1, 134135, Note_off_c, 0, 61, 0
1, 134138, Control_c, 0, 67, 65
1, 134141, Note_off_c, 0, 54, 0
1, 134147, Note_off_c, 0, 49, 0
1, 134147, Note_on_c, 0, 49, 38
1, 134150, Note_off_c, 0, 57, 0
1, 134150, Note_on_c, 0, 57, 25
1, 134151, Note_on_c, 0, 61, 71
1, 134153, Control_c, 0, 67, 95
1, 134155, Note_on_c, 0, 54, 52
1, 134163, Note_on_c, 0, 69, 64
1, 134167, Control_c, 0, 67, 121
1, 134179, Note_off_c, 0, 54, 59
1, 134179, Note_off_c, 0, 57, 56
1, 134179, Note_off_c, 0, 61, 65
1, 134179, Note_off_c, 0, 69, 68
1, 134182, Control_c, 0, 67, 127
1, 134182, Note_on_c, 0, 66, 42
1, 134183, Note_off_c, 0, 66, 127
1, 134191, Note_off_c, 0, 49, 64
1, 134358, Note_on_c, 0, 38, 26
1, 134398, Note_on_c, 0, 50, 63
1, 134419, Note_off_c, 0, 38, 60
1, 134433, Note_off_c, 0, 50, 61
1, 134457, Note_on_c, 0, 45, 64
1, 134494, Note_off_c, 0, 45, 63
1, 134508, Note_on_c, 0, 57, 63
1, 134544, Note_off_c, 0, 57, 59
1, 134566, Note_on_c, 0, 43, 77
1, 134611, Note_off_c, 0, 43, 59
1, 134620, Note_on_c, 0, 55, 67
1, 134647, Note_off_c, 0, 55, 68
1, 134686, Note_on_c, 0, 42, 77
1, 134731, Note_off_c, 0, 42, 62
1, 134740, Note_on_c, 0, 54, 60
1, 134772, Note_off_c, 0, 54, 65
1, 134799, Note_on_c, 0, 40, 74
1, 134841, Note_off_c, 0, 40, 64
1, 134847, Note_on_c, 0, 52, 62
1, 134868, Note_off_c, 0, 52, 66
1, 134937, Note_on_c, 0, 38, 47
1, 134960, Note_on_c, 0, 50, 52
1, 134969, Note_off_c, 0, 38, 51
1, 134986, Note_off_c, 0, 50, 55
1, 135181, Note_on_c, 0, 62, 60
1, 135184, Note_on_c, 0, 82, 70
1, 135185, Note_on_c, 0, 70, 73
1, 135196, Note_on_c, 0, 79, 49
1, 135196, Note_on_c, 0, 67, 49
1, 135202, Note_off_c, 0, 70, 68
1, 135203, Note_on_c, 0, 74, 33
1, 135205, Note_off_c, 0, 82, 59
1, 135211, Note_off_c, 0, 62, 65
1, 135218, Note_off_c, 0, 79, 57
1, 135220, Note_off_c, 0, 67, 60
1, 135237, Note_off_c, 0, 74, 34
1, 135366, Note_on_c, 0, 67, 59
1, 135368, Note_on_c, 0, 79, 71
1, 135371, Note_on_c, 0, 74, 61
1, 135375, Note_on_c, 0, 62, 56
1, 135378, Note_on_c, 0, 70, 64
1, 135390, Note_off_c, 0, 74, 67
1, 135394, Note_off_c, 0, 67, 64
1, 135396, Note_on_c, 0, 58, 25
1, 135396, Note_off_c, 0, 79, 62
1, 135410, Note_off_c, 0, 70, 0
1, 135429, Note_off_c, 0, 62, 0
1, 135431, Note_on_c, 0, 79, 74
1, 135432, Note_on_c, 0, 70, 62
1, 135437, Poly_aftertouch_c, 0, 67, 0
1, 135441, Note_on_c, 0, 62, 52
1, 135452, Note_off_c, 0, 70, 66
1, 135453, Note_off_c, 0, 79, 69
1, 135461, Note_off_c, 0, 62, 62
1, 135478, Note_on_c, 0, 74, 15
1, 135479, Note_off_c, 0, 74, 127
1, 135479, Note_off_c, 0, 58, 63
1, 135582, Note_on_c, 0, 62, 60
1, 135586, Note_on_c, 0, 74, 80
1, 135593, Note_on_c, 0, 70, 55
1, 135600, Note_on_c, 0, 55, 57
1, 135601, Note_on_c, 0, 67, 58
1, 135608, Note_off_c, 0, 74, 64
1, 135609, Note_on_c, 0, 58, 42
1, 135611, Note_off_c, 0, 62, 65
1, 135613, Note_off_c, 0, 70, 63
1, 135621, Note_off_c, 0, 67, 64
1, 135622, Note_off_c, 0, 55, 60
1, 135638, Note_off_c, 0, 58, 53
1, 135732, Note_on_c, 0, 55, 61
1, 135736, Note_on_c, 0, 58, 58
1, 135746, Note_on_c, 0, 67, 51
1, 135746, Note_on_c, 0, 70, 52
1, 135756, Note_on_c, 0, 62, 57
1, 135759, Note_off_c, 0, 58, 63
1, 135760, Note_off_c, 0, 55, 68
1, 135767, Note_off_c, 0, 70, 62
1, 135768, Note_off_c, 0, 67, 64
1, 135777, Note_off_c, 0, 62, 0
1, 135796, Note_on_c, 0, 50, 69
1, 135798, Note_on_c, 0, 62, 60
1, 135801, Note_on_c, 0, 70, 69
1, 135804, Note_on_c, 0, 58, 65
1, 135816, Note_on_c, 0, 55, 61
1, 135817, Note_off_c, 0, 55, 127
1, 135820, Note_off_c, 0, 58, 67
1, 135825, Note_off_c, 0, 62, 66
1, 135826, Note_off_c, 0, 70, 66
1, 135834, Note_off_c, 0, 50, 63
1, 135983, Note_on_c, 0, 39, 54
1, 136035, Note_off_c, 0, 39, 52
1, 136041, Note_on_c, 0, 51, 63
1, 136072, Note_off_c, 0, 51, 64
1, 136108, Note_on_c, 0, 46, 62
1, 136149, Note_off_c, 0, 46, 63
1, 136160, Note_on_c, 0, 58, 73
1, 136198, Note_off_c, 0, 58, 56
1, 136221, Note_on_c, 0, 44, 80
1, 136251, Control_c, 0, 67, 124
1, 136266, Note_on_c, 0, 56, 76
1, 136266, Control_c, 0, 67, 121
1, 136281, Note_off_c, 0, 44, 60
1, 136310, Control_c, 0, 67, 122
1, 136315, Note_off_c, 0, 56, 63
1, 136325, Control_c, 0, 67, 122
1, 136329, Note_on_c, 0, 43, 78
1, 136340, Control_c, 0, 67, 123
1, 136369, Control_c, 0, 67, 123
1, 136380, Note_on_c, 0, 55, 70
1, 136384, Control_c, 0, 67, 124
1, 136391, Note_off_c, 0, 43, 57
1, 136399, Control_c, 0, 67, 124
1, 136414, Control_c, 0, 67, 125
1, 136421, Note_off_c, 0, 55, 64
1, 136428, Control_c, 0, 67, 126
1, 136442, Note_on_c, 0, 41, 71
1, 136443, Control_c, 0, 67, 127
1, 136473, Control_c, 0, 67, 127
1, 136474, Note_on_c, 0, 53, 67
1, 136481, Note_off_c, 0, 41, 64
1, 136502, Note_off_c, 0, 53, 68
1, 136561, Note_on_c, 0, 39, 60
1, 136575, Note_on_c, 0, 51, 56
1, 136583, Note_off_c, 0, 39, 61
1, 136600, Note_off_c, 0, 51, 57
1, 136785, Note_on_c, 0, 83, 73
1, 136797, Note_on_c, 0, 63, 62
1, 136800, Note_on_c, 0, 80, 54
1, 136803, Note_on_c, 0, 75, 50
1, 136809, Note_on_c, 0, 68, 49
1, 136809, Note_on_c, 0, 71, 44
1, 136821, Note_off_c, 0, 83, 61
1, 136821, Note_off_c, 0, 63, 65
1, 136821, Note_off_c, 0, 80, 60
1, 136828, Note_off_c, 0, 75, 56
1, 136835, Note_off_c, 0, 71, 60
1, 136836, Note_off_c, 0, 68, 54
1, 136979, Note_on_c, 0, 63, 69
1, 136988, Note_on_c, 0, 68, 51
1, 136994, Note_on_c, 0, 80, 57
1, 136995, Note_on_c, 0, 75, 53
1, 136998, Note_on_c, 0, 71, 54
1, 137005, Note_off_c, 0, 63, 68
1, 137014, Note_off_c, 0, 68, 55
1, 137014, Note_off_c, 0, 80, 62
1, 137020, Note_off_c, 0, 71, 63
1, 137020, Note_off_c, 0, 75, 56
1, 137038, Note_on_c, 0, 59, 51
1, 137044, Note_on_c, 0, 63, 78
1, 137055, Note_on_c, 0, 71, 54
1, 137057, Note_on_c, 0, 80, 65
1, 137059, Note_on_c, 0, 68, 61
1, 137065, Note_off_c, 0, 63, 72
1, 137074, Note_off_c, 0, 80, 64
1, 137074, Note_off_c, 0, 71, 62
1, 137076, Note_off_c, 0, 59, 65
1, 137080, Note_off_c, 0, 68, 59
1, 137205, Note_on_c, 0, 68, 60
1, 137205, Note_on_c, 0, 56, 63
1, 137206, Note_on_c, 0, 71, 43
1, 137208, Note_on_c, 0, 75, 71
1, 137209, Note_on_c, 0, 59, 52
1, 137212, Note_on_c, 0, 63, 63
1, 137233, Note_off_c, 0, 63, 65
1, 137233, Note_off_c, 0, 59, 61
1, 137235, Note_off_c, 0, 68, 63
1, 137235, Note_off_c, 0, 56, 65
1, 137235, Note_off_c, 0, 75, 63
1, 137241, Note_off_c, 0, 71, 58
1, 137369, Note_on_c, 0, 56, 57
1, 137370, Note_on_c, 0, 71, 53
1, 137372, Note_on_c, 0, 63, 61
1, 137376, Note_on_c, 0, 59, 45
1, 137390, Note_on_c, 0, 68, 31
1, 137391, Note_off_c, 0, 68, 127
1, 137391, Note_off_c, 0, 56, 63
1, 137392, Note_off_c, 0, 63, 64
1, 137393, Note_off_c, 0, 71, 62
1, 137403, Note_off_c, 0, 59, 53
1, 137427, Note_on_c, 0, 63, 73
1, 137429, Note_on_c, 0, 68, 50
1, 137435, Note_on_c, 0, 51, 51
1, 137436, Note_on_c, 0, 71, 59
1, 137440, Note_on_c, 0, 56, 69
1, 137441, Note_on_c, 0, 59, 54
1, 137452, Note_off_c, 0, 68, 65
1, 137453, Note_off_c, 0, 63, 67
1, 137454, Note_off_c, 0, 71, 69
1, 137459, Note_off_c, 0, 56, 65
1, 137463, Note_off_c, 0, 59, 60
1, 137473, Note_off_c, 0, 51, 65
1, 137620, Note_on_c, 0, 88, 69
1, 137622, Control_c, 0, 64, 13
1, 137625, Note_on_c, 0, 64, 57
1, 137626, Note_on_c, 0, 76, 61
1, 137631, Note_on_c, 0, 80, 54
1, 137636, Note_on_c, 0, 52, 45
1, 137637, Control_c, 0, 64, 28
1, 137653, Note_off_c, 0, 76, 67
1, 137653, Note_off_c, 0, 88, 68
1, 137660, Control_c, 0, 64, 37
1, 137661, Note_off_c, 0, 80, 60
1, 137664, Note_off_c, 0, 64, 63
1, 137671, Note_off_c, 0, 52, 57
1, 137675, Control_c, 0, 64, 46
1, 137689, Control_c, 0, 64, 53
1, 137704, Control_c, 0, 64, 58
1, 137719, Control_c, 0, 64, 59
1, 137778, Control_c, 0, 64, 58
1, 137793, Control_c, 0, 64, 54
1, 137807, Control_c, 0, 64, 47
1, 137809, Note_on_c, 0, 56, 62
1, 137813, Note_on_c, 0, 71, 63
1, 137822, Control_c, 0, 64, 32
1, 137829, Note_off_c, 0, 56, 63
1, 137832, Note_off_c, 0, 71, 67
1, 137837, Control_c, 0, 64, 0
1, 137868, Note_on_c, 0, 59, 26
1, 137871, Note_on_c, 0, 76, 53
1, 137877, Note_on_c, 0, 56, 71
1, 137882, Note_on_c, 0, 71, 61
1, 137894, Note_off_c, 0, 76, 63
1, 137897, Poly_aftertouch_c, 0, 83, 0
1, 137900, Note_off_c, 0, 59, 64
1, 137901, Note_off_c, 0, 71, 66
1, 137903, Note_off_c, 0, 56, 67
1, 138020, Note_on_c, 0, 80, 81
1, 138024, Note_on_c, 0, 64, 67
1, 138025, Note_on_c, 0, 68, 74
1, 138025, Note_on_c, 0, 71, 57
1, 138031, Control_c, 0, 64, 24
1, 138031, Control_c, 0, 67, 127
1, 138043, Note_on_c, 0, 59, 52
1, 138046, Control_c, 0, 64, 34
1, 138046, Control_c, 0, 67, 125
1, 138051, Note_off_c, 0, 68, 64
1, 138051, Note_off_c, 0, 71, 66
1, 138055, Note_off_c, 0, 64, 65
1, 138055, Note_off_c, 0, 80, 53
1, 138061, Control_c, 0, 64, 42
1, 138061, Control_c, 0, 67, 123
1, 138068, Note_off_c, 0, 59, 61
1, 138076, Control_c, 0, 64, 48
1, 138076, Control_c, 0, 67, 118
1, 138090, Control_c, 0, 64, 53
1, 138090, Control_c, 0, 67, 113
1, 138105, Control_c, 0, 64, 54
1, 138105, Control_c, 0, 67, 107
1, 138120, Control_c, 0, 67, 100
1, 138134, Control_c, 0, 64, 53
1, 138134, Control_c, 0, 67, 94
1, 138149, Control_c, 0, 64, 52
1, 138149, Control_c, 0, 67, 87
1, 138161, Note_on_c, 0, 59, 61
1, 138164, Control_c, 0, 64, 47
1, 138164, Control_c, 0, 67, 82
1, 138165, Note_on_c, 0, 56, 66
1, 138176, Note_on_c, 0, 68, 76
1, 138179, Note_on_c, 0, 64, 71
1, 138179, Control_c, 0, 64, 36
1, 138179, Control_c, 0, 67, 76
1, 138186, Note_off_c, 0, 56, 67
1, 138189, Note_off_c, 0, 59, 67
1, 138190, Note_off_c, 0, 68, 69
1, 138194, Control_c, 0, 64, 0
1, 138194, Control_c, 0, 67, 68
1, 138198, Note_off_c, 0, 64, 64
1, 138208, Note_on_c, 0, 76, 24
1, 138208, Control_c, 0, 67, 60
1, 138223, Control_c, 0, 67, 52
1, 138233, Note_off_c, 0, 76, 0
1, 138233, Note_on_c, 0, 76, 28
1, 138236, Note_on_c, 0, 68, 87
1, 138238, Note_on_c, 0, 59, 68
1, 138238, Control_c, 0, 67, 48
1, 138240, Note_on_c, 0, 64, 64
1, 138242, Note_on_c, 0, 56, 79
1, 138252, Control_c, 0, 67, 47
1, 138254, Note_off_c, 0, 68, 72
1, 138257, Note_off_c, 0, 64, 65
1, 138259, Note_off_c, 0, 59, 66
1, 138265, Note_off_c, 0, 56, 68
1, 138267, Control_c, 0, 67, 46
1, 138269, Note_off_c, 0, 76, 69
1, 138282, Control_c, 0, 67, 44
1, 138297, Control_c, 0, 67, 42
1, 138312, Control_c, 0, 67, 40
1, 138356, Note_on_c, 0, 45, 78
1, 138386, Note_off_c, 0, 45, 66
1, 138387, Control_c, 0, 64, 21
1, 138388, Note_on_c, 0, 52, 70
1, 138409, Control_c, 0, 64, 37
1, 138411, Note_on_c, 0, 81, 93
1, 138415, Note_on_c, 0, 88, 81
1, 138424, Control_c, 0, 64, 49
1, 138425, Note_on_c, 0, 76, 65
1, 138428, Note_off_c, 0, 81, 75
1, 138429, Note_on_c, 0, 60, 77
1, 138433, Note_off_c, 0, 88, 71
1, 138437, Note_off_c, 0, 52, 66
1, 138439, Control_c, 0, 64, 59
1, 138442, Note_off_c, 0, 76, 67
1, 138454, Control_c, 0, 64, 62
1, 138454, Control_c, 0, 67, 40
1, 138454, Note_off_c, 0, 60, 69
1, 138484, Control_c, 0, 64, 61
1, 138499, Control_c, 0, 64, 61
1, 138513, Control_c, 0, 64, 60
1, 138528, Control_c, 0, 64, 57
1, 138543, Control_c, 0, 64, 53
1, 138557, Control_c, 0, 64, 42
1, 138572, Control_c, 0, 64, 22
1, 138572, Control_c, 0, 67, 39
1, 138576, Note_on_c, 0, 57, 70
1, 138578, Note_on_c, 0, 60, 68
1, 138580, Note_on_c, 0, 76, 64
1, 138582, Note_on_c, 0, 72, 62
1, 138587, Control_c, 0, 64, 0
1, 138587, Control_c, 0, 67, 38
1, 138591, Note_on_c, 0, 84, 59
1, 138598, Note_off_c, 0, 76, 66
1, 138600, Note_off_c, 0, 72, 65
1, 138602, Control_c, 0, 67, 36
1, 138603, Note_off_c, 0, 57, 66
1, 138609, Note_off_c, 0, 60, 66
1, 138617, Control_c, 0, 67, 33
1, 138624, Note_off_c, 0, 84, 0
1, 138631, Control_c, 0, 67, 27
1, 138634, Note_on_c, 0, 72, 76
1, 138636, Note_on_c, 0, 76, 84
1, 138636, Note_on_c, 0, 84, 72
1, 138642, Note_on_c, 0, 57, 75
1, 138645, Note_on_c, 0, 60, 67
1, 138646, Control_c, 0, 67, 20
1, 138653, Note_off_c, 0, 76, 75
1, 138656, Note_off_c, 0, 72, 70
1, 138661, Note_off_c, 0, 84, 66
1, 138661, Control_c, 0, 67, 13
1, 138666, Note_off_c, 0, 57, 68
1, 138673, Note_off_c, 0, 60, 67
1, 138676, Control_c, 0, 67, 0
1, 138764, Control_c, 0, 64, 31
1, 138779, Control_c, 0, 64, 45
1, 138787, Note_on_c, 0, 60, 65
1, 138791, Note_on_c, 0, 81, 84
1, 138792, Note_on_c, 0, 64, 64
1, 138793, Note_on_c, 0, 69, 74
1, 138793, Note_on_c, 0, 72, 71
1, 138794, Control_c, 0, 64, 57
1, 138809, Control_c, 0, 64, 65
1, 138813, Note_off_c, 0, 72, 68
1, 138815, Note_off_c, 0, 81, 65
1, 138818, Note_off_c, 0, 69, 70
1, 138821, Note_off_c, 0, 64, 66
1, 138824, Control_c, 0, 64, 68
1, 138827, Note_off_c, 0, 60, 62
1, 138913, Control_c, 0, 64, 67
1, 138928, Control_c, 0, 64, 65
1, 138929, Note_on_c, 0, 69, 71
1, 138931, Note_on_c, 0, 64, 70
1, 138938, Note_on_c, 0, 60, 52
1, 138943, Control_c, 0, 64, 56
1, 138944, Note_on_c, 0, 57, 35
1, 138948, Note_on_c, 0, 76, 48
1, 138949, Note_off_c, 0, 69, 68
1, 138954, Note_off_c, 0, 64, 66
1, 138956, Note_off_c, 0, 60, 65
1, 138957, Control_c, 0, 64, 33
1, 138972, Control_c, 0, 64, 0
1, 138980, Note_off_c, 0, 57, 0
1, 138980, Note_on_c, 0, 57, 42
1, 138982, Note_on_c, 0, 60, 71
1, 138985, Note_off_c, 0, 76, 0
1, 138985, Note_on_c, 0, 76, 65
1, 138994, Note_on_c, 0, 69, 73
1, 139007, Note_off_c, 0, 60, 66
1, 139009, Note_off_c, 0, 57, 64
1, 139011, Note_on_c, 0, 64, 12
1, 139012, Note_off_c, 0, 64, 127
1, 139012, Note_off_c, 0, 69, 67
1, 139015, Note_off_c, 0, 76, 70
1, 139112, Note_on_c, 0, 41, 78
1, 139120, Control_c, 0, 64, 26
1, 139135, Control_c, 0, 64, 44
1, 139140, Note_on_c, 0, 48, 65
1, 139143, Note_off_c, 0, 41, 68
1, 139157, Control_c, 0, 64, 59
1, 139161, Note_on_c, 0, 81, 88
1, 139161, Note_on_c, 0, 89, 96
1, 139162, Note_on_c, 0, 77, 87
1, 139171, Note_on_c, 0, 57, 90
1, 139172, Control_c, 0, 64, 70
1, 139178, Note_off_c, 0, 81, 74
1, 139182, Note_off_c, 0, 77, 70
1, 139183, Note_off_c, 0, 48, 69
1, 139184, Note_off_c, 0, 89, 65
1, 139187, Control_c, 0, 64, 77
1, 139209, Note_off_c, 0, 57, 60
1, 139292, Control_c, 0, 64, 75
1, 139307, Control_c, 0, 64, 70
1, 139322, Control_c, 0, 64, 62
1, 139325, Note_on_c, 0, 77, 83
1, 139327, Note_on_c, 0, 60, 72
1, 139330, Note_on_c, 0, 72, 78
1, 139330, Note_on_c, 0, 57, 55
1, 139334, Note_on_c, 0, 53, 63
1, 139336, Control_c, 0, 64, 50
1, 139342, Note_off_c, 0, 77, 72
1, 139347, Note_off_c, 0, 72, 68
1, 139350, Note_off_c, 0, 57, 64
1, 139351, Note_off_c, 0, 60, 66
1, 139351, Control_c, 0, 64, 20
1, 139366, Control_c, 0, 64, 0
1, 139384, Note_on_c, 0, 77, 92
1, 139384, Note_on_c, 0, 84, 62
1, 139392, Note_on_c, 0, 72, 72
1, 139393, Note_on_c, 0, 60, 83
1, 139401, Note_off_c, 0, 77, 71
1, 139405, Note_on_c, 0, 57, 62
1, 139408, Note_off_c, 0, 72, 67
1, 139413, Note_off_c, 0, 60, 73
1, 139415, Note_off_c, 0, 84, 66
1, 139420, Note_off_c, 0, 53, 62
1, 139426, Note_off_c, 0, 57, 62
1, 139544, Control_c, 0, 64, 24
1, 139549, Note_on_c, 0, 57, 50
1, 139555, Note_on_c, 0, 81, 81
1, 139557, Note_on_c, 0, 69, 74
1, 139558, Note_on_c, 0, 72, 68
1, 139559, Control_c, 0, 64, 41
1, 139560, Note_on_c, 0, 65, 66
1, 139573, Control_c, 0, 64, 55
1, 139575, Note_on_c, 0, 60, 44
1, 139578, Note_off_c, 0, 69, 72
1, 139581, Note_off_c, 0, 81, 63
1, 139582, Note_off_c, 0, 72, 68
1, 139587, Note_off_c, 0, 65, 69
1, 139588, Control_c, 0, 64, 66
1, 139593, Note_off_c, 0, 57, 61
1, 139599, Note_off_c, 0, 60, 59
1, 139603, Control_c, 0, 64, 74
1, 139618, Control_c, 0, 64, 75
1, 139692, Control_c, 0, 64, 74
1, 139706, Control_c, 0, 64, 71
1, 139720, Note_on_c, 0, 60, 54
1, 139721, Control_c, 0, 64, 63
1, 139727, Note_on_c, 0, 57, 49
1, 139729, Note_on_c, 0, 69, 75
1, 139733, Note_on_c, 0, 65, 69
1, 139736, Control_c, 0, 64, 50
1, 139737, Note_on_c, 0, 77, 67
1, 139742, Note_off_c, 0, 60, 63
1, 139742, Note_off_c, 0, 69, 74
1, 139750, Note_off_c, 0, 65, 70
1, 139751, Control_c, 0, 64, 11
1, 139755, Note_off_c, 0, 57, 52
1, 139756, Note_off_c, 0, 77, 64
1, 139766, Control_c, 0, 64, 0
1, 139793, Note_on_c, 0, 69, 74
1, 139795, Note_on_c, 0, 60, 68
1, 139801, Note_on_c, 0, 77, 79
1, 139807, Note_off_c, 0, 69, 72
1, 139813, Note_on_c, 0, 53, 29
1, 139813, Note_on_c, 0, 57, 26
1, 139813, Note_off_c, 0, 60, 66
1, 139817, Note_on_c, 0, 52, 26
1, 139822, Note_off_c, 0, 77, 69
1, 139850, Note_off_c, 0, 53, 45
1, 139852, Note_off_c, 0, 57, 30
1, 139856, Note_off_c, 0, 52, 30
1, 139966, Control_c, 0, 64, 22
1, 139982, Control_c, 0, 64, 35
1, 139995, Note_on_c, 0, 89, 78
1, 139997, Note_on_c, 0, 80, 78
1, 139997, Control_c, 0, 64, 51
1, 139999, Note_on_c, 0, 77, 71
1, 140001, Note_on_c, 0, 61, 70
1, 140011, Note_on_c, 0, 49, 57
1, 140011, Control_c, 0, 64, 62
1, 140017, Note_off_c, 0, 80, 69
1, 140017, Note_off_c, 0, 89, 67
1, 140020, Note_off_c, 0, 77, 65
1, 140026, Control_c, 0, 64, 71
1, 140029, Note_off_c, 0, 61, 68
1, 140038, Note_off_c, 0, 49, 64
1, 140041, Control_c, 0, 64, 73
1, 140085, Control_c, 0, 64, 73
1, 140100, Control_c, 0, 64, 74
1, 140144, Control_c, 0, 64, 72
1, 140159, Control_c, 0, 64, 65
1, 140165, Note_on_c, 0, 65, 66
1, 140174, Control_c, 0, 64, 56
1, 140178, Note_on_c, 0, 85, 66
1, 140180, Note_on_c, 0, 73, 66
1, 140183, Note_on_c, 0, 53, 39
1, 140184, Note_off_c, 0, 65, 66
1, 140189, Control_c, 0, 64, 30
1, 140195, Note_off_c, 0, 85, 64
1, 140203, Control_c, 0, 64, 0
1, 140212, Note_off_c, 0, 73, 0
1, 140217, Note_off_c, 0, 53, 0
1, 140217, Note_on_c, 0, 53, 35
1, 140224, Note_on_c, 0, 73, 72
1, 140226, Note_on_c, 0, 65, 77
1, 140231, Note_on_c, 0, 85, 85
1, 140243, Note_off_c, 0, 65, 71
1, 140244, Note_off_c, 0, 73, 72
1, 140251, Note_off_c, 0, 85, 67
1, 140255, Note_off_c, 0, 53, 66
1, 140351, Control_c, 0, 64, 13
1, 140366, Control_c, 0, 64, 35
1, 140374, Note_on_c, 0, 58, 88
1, 140376, Note_on_c, 0, 89, 93
1, 140377, Note_on_c, 0, 77, 88
1, 140378, Note_on_c, 0, 46, 83
1, 140380, Note_on_c, 0, 85, 77
1, 140381, Control_c, 0, 64, 53
1, 140382, Note_on_c, 0, 82, 74
1, 140395, Note_off_c, 0, 58, 71
1, 140396, Control_c, 0, 64, 66
1, 140403, Note_off_c, 0, 77, 63
1, 140403, Note_off_c, 0, 82, 71
1, 140404, Note_off_c, 0, 46, 69
1, 140404, Note_off_c, 0, 85, 64
1, 140407, Note_off_c, 0, 89, 59
1, 140410, Control_c, 0, 64, 78
1, 140425, Control_c, 0, 64, 80
1, 140527, Note_on_c, 0, 61, 84
1, 140529, Control_c, 0, 64, 76
1, 140532, Note_on_c, 0, 49, 75
1, 140536, Note_on_c, 0, 85, 84
1, 140537, Note_on_c, 0, 73, 84
1, 140544, Control_c, 0, 64, 67
1, 140547, Note_off_c, 0, 61, 72
1, 140552, Note_off_c, 0, 49, 68
1, 140553, Note_off_c, 0, 85, 75
1, 140555, Note_off_c, 0, 73, 73
1, 140559, Control_c, 0, 64, 52
1, 140574, Control_c, 0, 64, 0
1, 140592, Note_on_c, 0, 61, 99
1, 140594, Note_on_c, 0, 85, 93
1, 140596, Note_on_c, 0, 73, 88
1, 140606, Note_on_c, 0, 49, 81
1, 140612, Note_off_c, 0, 61, 68
1, 140615, Note_off_c, 0, 73, 72
1, 140630, Note_off_c, 0, 49, 68
1, 140630, Note_off_c, 0, 85, 64
1, 140631, Note_on_c, 0, 51, 29
1, 140632, Note_off_c, 0, 51, 127
1, 140743, Control_c, 0, 64, 33
1, 140754, Note_on_c, 0, 90, 103
1, 140755, Note_on_c, 0, 78, 102
1, 140757, Note_on_c, 0, 54, 106
1, 140758, Note_on_c, 0, 82, 88
1, 140758, Control_c, 0, 64, 49
1, 140760, Note_on_c, 0, 85, 82
1, 140764, Note_on_c, 0, 42, 88
1, 140773, Control_c, 0, 64, 63
1, 140777, Note_off_c, 0, 82, 70
1, 140780, Note_off_c, 0, 54, 70
1, 140781, Note_off_c, 0, 85, 69
1, 140789, Note_off_c, 0, 42, 67
1, 140789, Control_c, 0, 64, 81
1, 140797, Note_off_c, 0, 78, 62
1, 140800, Note_off_c, 0, 90, 66
1, 140804, Control_c, 0, 64, 101
1, 140819, Control_c, 0, 64, 104
1, 140833, Control_c, 0, 64, 105
1, 140863, Control_c, 0, 64, 107
1, 140878, Control_c, 0, 64, 110
1, 140893, Control_c, 0, 64, 122
1, 140907, Control_c, 0, 64, 127
1, 140919, Note_on_c, 0, 58, 85
1, 140922, Note_on_c, 0, 85, 82
1, 140922, Note_on_c, 0, 46, 81
1, 140925, Note_on_c, 0, 73, 76
1, 140937, Note_off_c, 0, 58, 71
1, 140938, Note_off_c, 0, 85, 74
1, 140940, Note_off_c, 0, 46, 68
1, 140943, Note_off_c, 0, 73, 71
1, 140978, Note_on_c, 0, 85, 97
1, 140979, Note_on_c, 0, 73, 98
1, 140982, Note_on_c, 0, 58, 95
1, 140988, Note_on_c, 0, 46, 97
1, 141007, Note_off_c, 0, 58, 66
1, 141014, Note_off_c, 0, 73, 67
1, 141015, Note_on_c, 0, 56, 39
1, 141016, Note_off_c, 0, 56, 127
1, 141018, Note_off_c, 0, 46, 59
1, 141023, Note_off_c, 0, 85, 61
1, 141044, Poly_aftertouch_c, 0, 56, 0
1, 141130, Control_c, 0, 64, 73
1, 141144, Control_c, 0, 64, 27
1, 141146, Note_on_c, 0, 51, 102
1, 141146, Note_on_c, 0, 90, 96
1, 141149, Note_on_c, 0, 39, 94
1, 141149, Note_on_c, 0, 78, 95
1, 141158, Note_on_c, 0, 82, 63
1, 141159, Note_off_c, 0, 82, 127
1, 141159, Control_c, 0, 64, 0
1, 141161, Note_on_c, 0, 88, 68
1, 141174, Note_on_c, 0, 87, 54
1, 141176, Note_on_c, 0, 83, 53
1, 141179, Note_on_c, 0, 91, 49
1, 141189, Control_c, 0, 64, 16
1, 141204, Note_off_c, 0, 83, 55
1, 141204, Control_c, 0, 64, 46
1, 141205, Note_off_c, 0, 91, 53
1, 141208, Note_off_c, 0, 87, 49
1, 141218, Control_c, 0, 64, 71
1, 141221, Note_off_c, 0, 51, 57
1, 141225, Note_off_c, 0, 88, 63
1, 141229, Note_off_c, 0, 90, 59
1, 141230, Note_off_c, 0, 39, 60
1, 141233, Control_c, 0, 64, 127
1, 141237, Note_off_c, 0, 78, 62
1, 141346, Note_on_c, 0, 54, 96
1, 141350, Note_on_c, 0, 75, 85
1, 141351, Note_on_c, 0, 42, 82
1, 141352, Note_on_c, 0, 87, 82
1, 141370, Note_off_c, 0, 75, 69
1, 141371, Note_off_c, 0, 87, 73
1, 141374, Note_off_c, 0, 54, 65
1, 141382, Note_off_c, 0, 42, 63
1, 141420, Note_on_c, 0, 87, 97
1, 141421, Note_on_c, 0, 75, 95
1, 141426, Note_on_c, 0, 54, 97
1, 141430, Note_on_c, 0, 42, 101
1, 141468, Note_off_c, 0, 75, 60
1, 141469, Note_off_c, 0, 54, 64
1, 141489, Note_off_c, 0, 42, 61
1, 141504, Note_off_c, 0, 87, 64
1, 141686, Control_c, 0, 64, 98
1, 141700, Control_c, 0, 64, 48
1, 141706, Note_on_c, 0, 47, 107
1, 141707, Note_on_c, 0, 87, 71
1, 141709, Note_on_c, 0, 35, 90
1, 141711, Note_on_c, 0, 78, 77
1, 141715, Control_c, 0, 64, 0
1, 141750, Note_on_c, 0, 37, 33
1, 141751, Note_off_c, 0, 37, 127
1, 141760, Control_c, 0, 64, 18
1, 141775, Control_c, 0, 64, 53
1, 141790, Control_c, 0, 64, 127
1, 141819, Note_off_c, 0, 78, 40
1, 141820, Note_off_c, 0, 87, 62
1, 141822, Note_off_c, 0, 35, 63
1, 141834, Note_on_c, 0, 90, 69
1, 141835, Note_off_c, 0, 47, 65
1, 141920, Note_off_c, 0, 90, 60
1, 141933, Note_on_c, 0, 78, 75
1, 141933, Note_on_c, 0, 87, 76
1, 141953, Note_on_c, 0, 54, 89
1, 141987, Note_off_c, 0, 78, 63
1, 141998, Note_off_c, 0, 87, 56
1, 142013, Note_on_c, 0, 90, 86
1, 142017, Note_off_c, 0, 54, 58
1, 142061, Note_off_c, 0, 90, 66
1, 142088, Note_on_c, 0, 78, 87
1, 142090, Note_on_c, 0, 52, 91
1, 142094, Note_on_c, 0, 87, 76
1, 142130, Note_off_c, 0, 87, 50
1, 142133, Note_off_c, 0, 78, 64
1, 142142, Note_on_c, 0, 90, 83
1, 142154, Note_off_c, 0, 52, 66
1, 142195, Note_off_c, 0, 90, 66
1, 142213, Note_on_c, 0, 78, 92
1, 142222, Note_on_c, 0, 87, 79
1, 142225, Note_on_c, 0, 51, 96
1, 142260, Note_off_c, 0, 78, 64
1, 142267, Note_off_c, 0, 87, 42
1, 142273, Note_on_c, 0, 90, 88
1, 142274, Note_on_c, 0, 49, 23
1, 142302, Note_off_c, 0, 51, 59
1, 142314, Note_off_c, 0, 49, 54
1, 142320, Note_off_c, 0, 90, 65
1, 142333, Note_on_c, 0, 78, 90
1, 142336, Note_on_c, 0, 87, 78
1, 142337, Note_on_c, 0, 49, 70
1, 142378, Note_off_c, 0, 78, 67
1, 142392, Note_on_c, 0, 90, 89
1, 142394, Note_off_c, 0, 87, 65
1, 142398, Note_off_c, 0, 49, 66
1, 142440, Note_on_c, 0, 47, 81
1, 142447, Note_on_c, 0, 78, 96
1, 142449, Note_on_c, 0, 87, 78
1, 142451, Note_off_c, 0, 90, 64
1, 142471, Note_off_c, 0, 47, 68
1, 142503, Note_off_c, 0, 78, 63
1, 142507, Note_on_c, 0, 90, 85
1, 142516, Note_off_c, 0, 87, 65
1, 142571, Note_off_c, 0, 90, 62
1, 142598, Control_c, 0, 64, 63
1, 142605, Note_on_c, 0, 63, 96
1, 142605, Note_on_c, 0, 71, 94
1, 142606, Note_on_c, 0, 80, 86
1, 142613, Control_c, 0, 64, 22
1, 142620, Note_on_c, 0, 87, 67
1, 142628, Control_c, 0, 64, 0
1, 142651, Note_off_c, 0, 87, 50
1, 142657, Note_off_c, 0, 80, 59
1, 142658, Control_c, 0, 64, 19
1, 142672, Control_c, 0, 64, 47
1, 142681, Note_off_c, 0, 71, 54
1, 142687, Control_c, 0, 64, 66
1, 142691, Note_on_c, 0, 92, 77
1, 142702, Control_c, 0, 64, 127
1, 142716, Note_off_c, 0, 63, 60
1, 142753, Note_off_c, 0, 92, 64
1, 142774, Note_on_c, 0, 80, 79
1, 142776, Note_on_c, 0, 87, 62
1, 142805, Note_on_c, 0, 68, 93
1, 142809, Note_off_c, 0, 87, 65
1, 142819, Note_on_c, 0, 59, 60
1, 142819, Note_off_c, 0, 80, 58
1, 142827, Note_off_c, 0, 68, 63
1, 142833, Note_on_c, 0, 92, 84
1, 142840, Note_off_c, 0, 59, 63
1, 142873, Note_off_c, 0, 92, 63
1, 142876, Note_on_c, 0, 68, 92
1, 142878, Note_on_c, 0, 59, 81
1, 142884, Note_on_c, 0, 80, 85
1, 142885, Note_on_c, 0, 87, 74
1, 142904, Note_off_c, 0, 68, 69
1, 142905, Note_off_c, 0, 59, 70
1, 142940, Note_off_c, 0, 87, 44
1, 142943, Note_off_c, 0, 80, 58
1, 142947, Note_on_c, 0, 92, 84
1, 143000, Note_off_c, 0, 92, 66
1, 143018, Note_on_c, 0, 63, 98
1, 143019, Note_on_c, 0, 56, 97
1, 143019, Note_on_c, 0, 87, 82
1, 143021, Note_on_c, 0, 80, 88
1, 143045, Note_off_c, 0, 87, 62
1, 143046, Note_off_c, 0, 56, 62
1, 143049, Note_off_c, 0, 63, 61
1, 143066, Note_off_c, 0, 80, 62
1, 143081, Note_on_c, 0, 92, 87
1, 143108, Control_c, 0, 64, 74
1, 143122, Control_c, 0, 64, 60
1, 143132, Note_off_c, 0, 92, 66
1, 143137, Control_c, 0, 64, 44
1, 143152, Control_c, 0, 64, 22
1, 143158, Note_on_c, 0, 87, 72
1, 143162, Note_on_c, 0, 80, 77
1, 143168, Control_c, 0, 64, 21
1, 143183, Control_c, 0, 64, 26
1, 143185, Note_off_c, 0, 87, 67
1, 143198, Control_c, 0, 64, 29
1, 143206, Note_on_c, 0, 51, 79
1, 143206, Note_off_c, 0, 80, 61
1, 143212, Note_on_c, 0, 59, 78
1, 143220, Note_on_c, 0, 58, 43
1, 143224, Note_on_c, 0, 92, 83
1, 143233, Note_off_c, 0, 51, 64
1, 143233, Note_off_c, 0, 59, 69
1, 143242, Control_c, 0, 64, 25
1, 143245, Note_on_c, 0, 90, 34
1, 143247, Note_off_c, 0, 58, 53
1, 143256, Note_off_c, 0, 92, 64
1, 143257, Control_c, 0, 64, 0
1, 143259, Note_off_c, 0, 90, 37
1, 143275, Note_on_c, 0, 59, 87
1, 143278, Note_on_c, 0, 80, 84
1, 143278, Note_on_c, 0, 87, 75
1, 143282, Note_on_c, 0, 51, 73
1, 143292, Note_off_c, 0, 59, 74
1, 143320, Note_off_c, 0, 51, 65
1, 143327, Note_off_c, 0, 87, 61
1, 143335, Note_on_c, 0, 92, 93
1, 143336, Note_off_c, 0, 80, 52
1, 143414, Note_off_c, 0, 92, 64
1, 143437, Note_on_c, 0, 44, 98
1, 143439, Note_on_c, 0, 87, 78
1, 143444, Note_on_c, 0, 83, 75
1, 143449, Note_on_c, 0, 32, 69
1, 143450, Control_c, 0, 64, 46
1, 143461, Note_off_c, 0, 44, 68
1, 143465, Control_c, 0, 64, 65
1, 143472, Note_off_c, 0, 32, 62
1, 143479, Control_c, 0, 64, 127
1, 143481, Note_off_c, 0, 87, 61
1, 143496, Note_off_c, 0, 83, 63
1, 143518, Note_on_c, 0, 95, 77
1, 143542, Note_on_c, 0, 93, 61
1, 143566, Note_off_c, 0, 93, 38
1, 143571, Note_off_c, 0, 95, 63
1, 143596, Note_on_c, 0, 87, 77
1, 143602, Note_on_c, 0, 83, 71
1, 143605, Note_on_c, 0, 51, 94
1, 143622, Note_off_c, 0, 87, 65
1, 143651, Note_off_c, 0, 83, 66
1, 143658, Note_off_c, 0, 51, 64
1, 143669, Note_on_c, 0, 95, 88
1, 143709, Note_off_c, 0, 95, 67
1, 143727, Note_on_c, 0, 87, 82
1, 143735, Note_on_c, 0, 49, 88
1, 143735, Note_on_c, 0, 83, 77
1, 143760, Note_off_c, 0, 87, 63
1, 143778, Note_off_c, 0, 83, 64
1, 143786, Note_off_c, 0, 49, 66
1, 143787, Note_on_c, 0, 95, 89
1, 143836, Note_on_c, 0, 47, 63
1, 143844, Note_on_c, 0, 87, 97
1, 143847, Note_off_c, 0, 95, 53
1, 143854, Note_on_c, 0, 83, 81
1, 143886, Note_off_c, 0, 87, 64
1, 143894, Note_off_c, 0, 83, 61
1, 143900, Note_on_c, 0, 95, 87
1, 143901, Note_off_c, 0, 47, 64
1, 143952, Note_on_c, 0, 46, 100
1, 143958, Note_on_c, 0, 87, 98
1, 143969, Note_on_c, 0, 83, 78
1, 143970, Note_off_c, 0, 95, 63
1, 144007, Note_off_c, 0, 46, 64
1, 144010, Note_off_c, 0, 83, 63
1, 144012, Note_off_c, 0, 87, 63
1, 144022, Note_on_c, 0, 95, 82
1, 144058, Note_on_c, 0, 44, 96
1, 144076, Note_on_c, 0, 87, 94
1, 144079, Note_on_c, 0, 42, 61
1, 144082, Note_on_c, 0, 83, 87
1, 144088, Note_off_c, 0, 95, 63
1, 144090, Note_off_c, 0, 44, 64
1, 144102, Note_off_c, 0, 42, 60
1, 144135, Note_off_c, 0, 83, 62
1, 144142, Note_on_c, 0, 95, 84
1, 144145, Note_off_c, 0, 87, 65
1, 144183, Control_c, 0, 64, 63
1, 144198, Control_c, 0, 64, 38
1, 144206, Note_off_c, 0, 95, 54
1, 144213, Control_c, 0, 64, 29
1, 144217, Note_on_c, 0, 62, 92
1, 144217, Note_on_c, 0, 71, 99
1, 144225, Note_on_c, 0, 86, 83
1, 144226, Note_on_c, 0, 83, 83
1, 144228, Control_c, 0, 64, 36
1, 144243, Control_c, 0, 64, 45
1, 144258, Control_c, 0, 64, 57
1, 144264, Note_off_c, 0, 86, 59
1, 144266, Note_off_c, 0, 71, 65
1, 144273, Control_c, 0, 64, 66
1, 144279, Note_off_c, 0, 83, 64
1, 144286, Note_off_c, 0, 62, 59
1, 144288, Control_c, 0, 64, 68
1, 144293, Note_on_c, 0, 95, 84
1, 144302, Control_c, 0, 64, 66
1, 144317, Control_c, 0, 64, 63
1, 144332, Control_c, 0, 64, 60
1, 144347, Control_c, 0, 64, 59
1, 144353, Note_off_c, 0, 95, 64
1, 144374, Note_on_c, 0, 86, 78
1, 144376, Control_c, 0, 64, 59
1, 144381, Note_on_c, 0, 83, 76
1, 144398, Control_c, 0, 64, 57
1, 144405, Note_off_c, 0, 86, 63
1, 144410, Note_on_c, 0, 65, 81
1, 144412, Note_on_c, 0, 59, 78
1, 144413, Control_c, 0, 64, 53
1, 144418, Note_off_c, 0, 83, 65
1, 144428, Control_c, 0, 64, 45
1, 144431, Note_off_c, 0, 65, 74
1, 144434, Note_off_c, 0, 59, 68
1, 144442, Note_on_c, 0, 95, 89
1, 144443, Control_c, 0, 64, 35
1, 144458, Control_c, 0, 64, 21
1, 144473, Control_c, 0, 64, 0
1, 144478, Note_off_c, 0, 95, 54
1, 144490, Note_on_c, 0, 59, 70
1, 144496, Note_on_c, 0, 86, 74
1, 144498, Note_on_c, 0, 65, 61
1, 144499, Note_on_c, 0, 83, 75
1, 144505, Note_off_c, 0, 59, 70
1, 144516, Note_off_c, 0, 65, 45
1, 144532, Note_off_c, 0, 86, 54
1, 144543, Note_on_c, 0, 95, 77
1, 144549, Note_off_c, 0, 83, 64
1, 144606, Control_c, 0, 64, 26
1, 144620, Control_c, 0, 64, 37
1, 144622, Note_on_c, 0, 62, 85
1, 144623, Note_off_c, 0, 95, 53
1, 144625, Note_on_c, 0, 86, 76
1, 144626, Note_on_c, 0, 83, 72
1, 144633, Note_on_c, 0, 52, 80
1, 144635, Control_c, 0, 64, 45
1, 144645, Note_on_c, 0, 53, 64
1, 144645, Note_off_c, 0, 86, 68
1, 144650, Control_c, 0, 64, 53
1, 144652, Note_off_c, 0, 62, 62
1, 144661, Note_off_c, 0, 52, 69
1, 144664, Note_off_c, 0, 53, 65
1, 144665, Control_c, 0, 64, 56
1, 144673, Note_off_c, 0, 83, 63
1, 144680, Control_c, 0, 64, 55
1, 144688, Note_on_c, 0, 95, 78
1, 144694, Control_c, 0, 64, 53
1, 144701, Note_on_c, 0, 60, 9
1, 144709, Control_c, 0, 64, 51
1, 144724, Control_c, 0, 64, 48
1, 144730, Note_off_c, 0, 60, 39
1, 144732, Note_off_c, 0, 95, 65
1, 144739, Control_c, 0, 64, 45
1, 144754, Control_c, 0, 64, 42
1, 144760, Note_on_c, 0, 86, 69
1, 144765, Note_on_c, 0, 83, 72
1, 144770, Control_c, 0, 64, 39
1, 144785, Control_c, 0, 64, 36
1, 144788, Note_off_c, 0, 86, 64
1, 144799, Control_c, 0, 64, 31
1, 144805, Note_on_c, 0, 59, 82
1, 144811, Note_off_c, 0, 83, 65
1, 144814, Note_on_c, 0, 50, 72
1, 144814, Control_c, 0, 64, 24
1, 144818, Note_on_c, 0, 95, 79
1, 144826, Note_off_c, 0, 59, 71
1, 144829, Control_c, 0, 64, 0
1, 144836, Note_off_c, 0, 50, 66
1, 144863, Note_off_c, 0, 95, 61
1, 144881, Note_on_c, 0, 83, 67
1, 144882, Note_on_c, 0, 86, 73
1, 144902, Note_on_c, 0, 50, 72
1, 144915, Note_off_c, 0, 86, 53
1, 144917, Note_off_c, 0, 83, 62
1, 144920, Note_off_c, 0, 50, 66
1, 144939, Note_on_c, 0, 95, 81
1, 144988, Note_off_c, 0, 95, 66
1, 145021, Control_c, 0, 64, 11
1, 145036, Control_c, 0, 64, 28
1, 145051, Control_c, 0, 64, 40
1, 145066, Control_c, 0, 64, 51
1, 145081, Control_c, 0, 64, 60
1, 145086, Note_on_c, 0, 87, 62
1, 145087, Note_on_c, 0, 84, 61
1, 145090, Note_on_c, 0, 44, 50
1, 145090, Note_on_c, 0, 56, 49
1, 145096, Control_c, 0, 64, 64
1, 145110, Note_off_c, 0, 87, 65
1, 145110, Control_c, 0, 64, 64
1, 145114, Note_off_c, 0, 56, 55
1, 145118, Note_off_c, 0, 44, 58
1, 145125, Note_off_c, 0, 84, 59
1, 145147, Control_c, 0, 64, 65
1, 145162, Control_c, 0, 64, 65
1, 145165, Note_on_c, 0, 96, 71
1, 145177, Control_c, 0, 64, 66
1, 145192, Control_c, 0, 64, 67
1, 145206, Control_c, 0, 64, 68
1, 145211, Note_off_c, 0, 96, 62
1, 145221, Control_c, 0, 64, 69
1, 145233, Note_on_c, 0, 84, 68
1, 145234, Note_on_c, 0, 87, 68
1, 145251, Control_c, 0, 64, 69
1, 145262, Note_off_c, 0, 87, 66
1, 145265, Control_c, 0, 64, 70
1, 145274, Note_off_c, 0, 84, 63
1, 145276, Note_on_c, 0, 39, 51
1, 145276, Note_on_c, 0, 51, 54
1, 145280, Control_c, 0, 64, 71
1, 145288, Note_on_c, 0, 96, 77
1, 145295, Control_c, 0, 64, 72
1, 145302, Note_off_c, 0, 51, 56
1, 145305, Note_off_c, 0, 39, 50
1, 145310, Control_c, 0, 64, 73
1, 145324, Note_off_c, 0, 96, 62
1, 145325, Control_c, 0, 64, 74
1, 145340, Control_c, 0, 64, 75
1, 145350, Note_on_c, 0, 84, 73
1, 145353, Note_on_c, 0, 87, 71
1, 145355, Control_c, 0, 64, 76
1, 145367, Note_on_c, 0, 51, 60
1, 145370, Control_c, 0, 64, 75
1, 145373, Note_on_c, 0, 39, 42
1, 145385, Note_off_c, 0, 84, 64
1, 145385, Control_c, 0, 64, 66
1, 145389, Note_off_c, 0, 51, 62
1, 145399, Control_c, 0, 64, 53
1, 145405, Note_off_c, 0, 39, 46
1, 145407, Note_on_c, 0, 96, 60
1, 145412, Note_off_c, 0, 87, 60
1, 145414, Control_c, 0, 64, 19
1, 145426, Note_off_c, 0, 96, 63
1, 145429, Control_c, 0, 64, 0
1, 145458, Control_c, 0, 64, 17
1, 145467, Note_on_c, 0, 56, 87
1, 145471, Note_on_c, 0, 85, 73
1, 145473, Note_on_c, 0, 88, 71
1, 145473, Control_c, 0, 64, 32
1, 145478, Note_on_c, 0, 44, 71
1, 145488, Control_c, 0, 64, 47
1, 145495, Note_off_c, 0, 56, 64
1, 145503, Control_c, 0, 64, 62
1, 145515, Note_off_c, 0, 44, 63
1, 145517, Control_c, 0, 64, 78
1, 145521, Note_off_c, 0, 85, 61
1, 145532, Control_c, 0, 64, 92
1, 145544, Note_on_c, 0, 97, 80
1, 145546, Note_off_c, 0, 88, 65
1, 145591, Note_off_c, 0, 97, 64
1, 145605, Note_on_c, 0, 88, 67
1, 145608, Control_c, 0, 64, 92
1, 145615, Note_on_c, 0, 85, 72
1, 145635, Note_on_c, 0, 49, 79
1, 145641, Note_off_c, 0, 85, 63
1, 145644, Note_on_c, 0, 37, 63
1, 145647, Note_off_c, 0, 88, 64
1, 145659, Note_off_c, 0, 49, 70
1, 145671, Note_off_c, 0, 37, 63
1, 145674, Note_on_c, 0, 97, 70
1, 145681, Control_c, 0, 64, 93
1, 145691, Note_off_c, 0, 97, 67
1, 145696, Control_c, 0, 64, 96
1, 145711, Control_c, 0, 64, 107
1, 145713, Note_on_c, 0, 49, 95
1, 145719, Note_on_c, 0, 88, 71
1, 145723, Note_on_c, 0, 85, 65
1, 145726, Control_c, 0, 64, 127
1, 145730, Note_on_c, 0, 37, 57
1, 145733, Note_off_c, 0, 49, 71
1, 145765, Note_on_c, 0, 97, 80
1, 145766, Note_off_c, 0, 37, 49
1, 145772, Note_off_c, 0, 88, 64
1, 145775, Note_off_c, 0, 85, 59
1, 145800, Control_c, 0, 64, 69
1, 145814, Control_c, 0, 64, 46
1, 145824, Note_off_c, 0, 97, 65
1, 145829, Control_c, 0, 64, 0
1, 145840, Note_on_c, 0, 56, 95
1, 145844, Note_on_c, 0, 44, 91
1, 145854, Note_on_c, 0, 89, 78
1, 145855, Note_on_c, 0, 86, 75
1, 145859, Control_c, 0, 64, 30
1, 145867, Note_off_c, 0, 56, 66
1, 145874, Control_c, 0, 64, 45
1, 145886, Note_off_c, 0, 89, 60
1, 145896, Control_c, 0, 64, 62
1, 145897, Note_off_c, 0, 44, 66
1, 145911, Control_c, 0, 64, 90
1, 145912, Note_off_c, 0, 86, 61
1, 145926, Control_c, 0, 64, 127
1, 145933, Note_on_c, 0, 98, 84
1, 145981, Note_off_c, 0, 98, 63
1, 146002, Note_on_c, 0, 89, 73
1, 146010, Note_on_c, 0, 86, 78
1, 146022, Note_on_c, 0, 47, 83
1, 146026, Note_on_c, 0, 35, 72
1, 146026, Note_off_c, 0, 89, 67
1, 146038, Note_off_c, 0, 86, 63
1, 146045, Note_off_c, 0, 47, 69
1, 146059, Note_off_c, 0, 35, 65
1, 146065, Note_on_c, 0, 98, 83
1, 146089, Note_on_c, 0, 47, 94
1, 146103, Note_on_c, 0, 37, 37
1, 146104, Note_on_c, 0, 35, 66
1, 146108, Note_off_c, 0, 98, 44
1, 146110, Note_off_c, 0, 47, 72
1, 146113, Note_on_c, 0, 89, 79
1, 146121, Note_on_c, 0, 86, 72
1, 146127, Note_off_c, 0, 35, 60
1, 146135, Note_off_c, 0, 37, 36
1, 146145, Note_off_c, 0, 89, 58
1, 146148, Note_off_c, 0, 86, 63
1, 146167, Note_on_c, 0, 98, 79
1, 146178, Control_c, 0, 64, 72
1, 146193, Control_c, 0, 64, 49
1, 146198, Poly_aftertouch_c, 0, 34, 0
1, 146208, Control_c, 0, 64, 0
1, 146217, Note_off_c, 0, 98, 64
1, 146226, Note_on_c, 0, 56, 104
1, 146234, Note_on_c, 0, 44, 94
1, 146237, Control_c, 0, 64, 19
1, 146239, Note_on_c, 0, 89, 80
1, 146250, Note_on_c, 0, 86, 75
1, 146252, Control_c, 0, 64, 37
1, 146259, Note_off_c, 0, 56, 66
1, 146267, Control_c, 0, 64, 55
1, 146276, Note_off_c, 0, 86, 60
1, 146276, Note_off_c, 0, 44, 65
1, 146281, Note_off_c, 0, 89, 63
1, 146282, Control_c, 0, 64, 72
1, 146297, Control_c, 0, 64, 127
1, 146304, Note_on_c, 0, 98, 86
1, 146358, Note_off_c, 0, 98, 62
1, 146374, Note_on_c, 0, 89, 72
1, 146382, Note_on_c, 0, 86, 71
1, 146398, Note_on_c, 0, 46, 95
1, 146399, Note_off_c, 0, 89, 68
1, 146404, Note_on_c, 0, 34, 79
1, 146407, Note_off_c, 0, 86, 65
1, 146419, Note_off_c, 0, 46, 71
1, 146430, Note_on_c, 0, 37, 38
1, 146435, Note_on_c, 0, 98, 79
1, 146435, Note_off_c, 0, 34, 66
1, 146464, Note_off_c, 0, 37, 52
1, 146472, Note_off_c, 0, 98, 50
1, 146474, Note_on_c, 0, 46, 103
1, 146476, Note_on_c, 0, 89, 81
1, 146479, Note_on_c, 0, 34, 97
1, 146490, Note_on_c, 0, 86, 77
1, 146500, Note_off_c, 0, 46, 70
1, 146501, Note_off_c, 0, 34, 69
1, 146523, Note_off_c, 0, 89, 65
1, 146537, Note_off_c, 0, 86, 51
1, 146542, Note_on_c, 0, 98, 82
1, 146564, Control_c, 0, 64, 93
1, 146579, Control_c, 0, 64, 61
1, 146594, Control_c, 0, 64, 23
1, 146596, Note_off_c, 0, 98, 63
1, 146609, Control_c, 0, 64, 0
1, 146617, Note_on_c, 0, 57, 102
1, 146622, Note_on_c, 0, 89, 79
1, 146623, Note_on_c, 0, 45, 92
1, 146624, Control_c, 0, 64, 23
1, 146626, Note_on_c, 0, 86, 79
1, 146635, Note_on_c, 0, 46, 69
1, 146636, Note_off_c, 0, 57, 69
1, 146646, Control_c, 0, 64, 42
1, 146660, Note_off_c, 0, 46, 67
1, 146661, Control_c, 0, 64, 60
1, 146663, Note_off_c, 0, 89, 62
1, 146672, Note_off_c, 0, 45, 61
1, 146675, Control_c, 0, 64, 88
1, 146678, Note_off_c, 0, 86, 60
1, 146690, Control_c, 0, 64, 127
1, 146694, Note_on_c, 0, 98, 85
1, 146745, Note_off_c, 0, 98, 65
1, 146764, Note_on_c, 0, 89, 75
1, 146771, Note_on_c, 0, 86, 76
1, 146791, Note_off_c, 0, 89, 66
1, 146798, Note_on_c, 0, 45, 93
1, 146801, Note_on_c, 0, 33, 86
1, 146805, Note_off_c, 0, 86, 60
1, 146819, Note_on_c, 0, 98, 86
1, 146823, Note_off_c, 0, 33, 67
1, 146824, Note_on_c, 0, 34, 40
1, 146826, Note_off_c, 0, 45, 65
1, 146845, Note_off_c, 0, 34, 64
1, 146863, Note_on_c, 0, 45, 86
1, 146865, Note_off_c, 0, 98, 61
1, 146871, Note_on_c, 0, 33, 80
1, 146874, Note_on_c, 0, 89, 82
1, 146882, Note_on_c, 0, 86, 77
1, 146887, Note_off_c, 0, 45, 66
1, 146887, Poly_aftertouch_c, 0, 32, 0
1, 146892, Note_off_c, 0, 33, 64
1, 146925, Poly_aftertouch_c, 0, 32, 127
1, 146931, Note_off_c, 0, 89, 63
1, 146936, Note_off_c, 0, 86, 56
1, 146937, Note_on_c, 0, 98, 84
1, 146947, Poly_aftertouch_c, 0, 32, 0
1, 146956, Control_c, 0, 64, 106
1, 146971, Control_c, 0, 64, 58
1, 146985, Control_c, 0, 64, 13
1, 146992, Note_off_c, 0, 98, 61
1, 147000, Control_c, 0, 64, 0
1, 147001, Note_on_c, 0, 58, 110
1, 147007, Note_on_c, 0, 46, 100
1, 147011, Note_on_c, 0, 89, 85
1, 147013, Note_on_c, 0, 86, 81
1, 147015, Control_c, 0, 64, 9
1, 147025, Note_on_c, 0, 49, 63
1, 147029, Note_off_c, 0, 58, 71
1, 147030, Control_c, 0, 64, 38
1, 147045, Control_c, 0, 64, 58
1, 147052, Note_off_c, 0, 49, 37
1, 147053, Note_off_c, 0, 89, 65
1, 147053, Note_off_c, 0, 46, 62
1, 147060, Control_c, 0, 64, 113
1, 147066, Note_off_c, 0, 86, 60
1, 147075, Control_c, 0, 64, 127
1, 147084, Note_on_c, 0, 98, 86
1, 147137, Note_off_c, 0, 98, 58
1, 147149, Note_on_c, 0, 89, 73
1, 147153, Note_on_c, 0, 86, 78
1, 147179, Note_on_c, 0, 44, 99
1, 147179, Note_off_c, 0, 89, 64
1, 147182, Note_on_c, 0, 32, 90
1, 147199, Note_off_c, 0, 86, 61
1, 147204, Note_off_c, 0, 44, 66
1, 147208, Note_on_c, 0, 98, 80
1, 147208, Note_off_c, 0, 32, 65
1, 147228, Note_on_c, 0, 34, 9
1, 147254, Note_off_c, 0, 98, 61
1, 147257, Note_off_c, 0, 34, 0
1, 147261, Note_on_c, 0, 44, 101
1, 147262, Note_on_c, 0, 32, 90
1, 147263, Note_on_c, 0, 89, 85
1, 147272, Poly_aftertouch_c, 0, 34, 0
1, 147275, Note_on_c, 0, 86, 73
1, 147289, Note_off_c, 0, 32, 69
1, 147294, Note_off_c, 0, 44, 62
1, 147319, Note_off_c, 0, 89, 60
1, 147330, Note_on_c, 0, 98, 87
1, 147336, Note_off_c, 0, 86, 61
1, 147401, Note_off_c, 0, 98, 65
1, 147409, Control_c, 0, 64, 60
1, 147424, Control_c, 0, 64, 0
1, 147433, Note_on_c, 0, 59, 103
1, 147434, Note_on_c, 0, 89, 86
1, 147438, Note_on_c, 0, 86, 82
1, 147442, Note_on_c, 0, 47, 89
1, 147445, Note_on_c, 0, 48, 79
1, 147452, Note_on_c, 0, 49, 64
1, 147453, Control_c, 0, 64, 28
1, 147457, Note_off_c, 0, 59, 69
1, 147468, Control_c, 0, 64, 52
1, 147469, Note_off_c, 0, 48, 68
1, 147471, Note_off_c, 0, 47, 65
1, 147475, Note_off_c, 0, 49, 39
1, 147483, Control_c, 0, 64, 83
1, 147486, Note_off_c, 0, 89, 65
1, 147498, Control_c, 0, 64, 127
1, 147504, Note_off_c, 0, 86, 61
1, 147516, Note_on_c, 0, 98, 89
1, 147586, Note_off_c, 0, 98, 56
1, 147591, Note_on_c, 0, 89, 91
1, 147602, Note_on_c, 0, 86, 84
1, 147630, Note_on_c, 0, 44, 88
1, 147635, Note_on_c, 0, 32, 85
1, 147647, Note_on_c, 0, 42, 65
1, 147652, Note_off_c, 0, 86, 61
1, 147652, Note_off_c, 0, 89, 61
1, 147655, Note_off_c, 0, 32, 71
1, 147659, Note_off_c, 0, 44, 63
1, 147670, Note_off_c, 0, 42, 60
1, 147671, Note_on_c, 0, 98, 86
1, 147683, Note_on_c, 0, 34, 7
1, 147710, Note_off_c, 0, 34, 0
1, 147712, Note_on_c, 0, 32, 64
1, 147716, Note_on_c, 0, 44, 107
1, 147723, Note_off_c, 0, 98, 58
1, 147728, Poly_aftertouch_c, 0, 34, 0
1, 147731, Note_on_c, 0, 89, 84
1, 147735, Note_on_c, 0, 86, 78
1, 147749, Note_on_c, 0, 34, 2
1, 147750, Note_off_c, 0, 34, 127
1, 147754, Note_off_c, 0, 44, 64
1, 147760, Note_off_c, 0, 32, 62
1, 147790, Note_off_c, 0, 89, 59
1, 147799, Note_on_c, 0, 98, 91
1, 147802, Note_off_c, 0, 86, 44
1, 147870, Note_off_c, 0, 98, 64
1, 147912, Control_c, 0, 64, 87
1, 147921, Note_on_c, 0, 59, 111
1, 147925, Note_on_c, 0, 47, 108
1, 147927, Control_c, 0, 64, 40
1, 147931, Note_on_c, 0, 91, 91
1, 147939, Note_on_c, 0, 49, 70
1, 147942, Control_c, 0, 64, 0
1, 147947, Note_on_c, 0, 88, 70
1, 147950, Note_on_c, 0, 89, 62
1, 147957, Note_on_c, 0, 94, 48
1, 147957, Note_off_c, 0, 49, 69
1, 147959, Note_on_c, 0, 87, 16
1, 147960, Note_off_c, 0, 87, 127
1, 147972, Control_c, 0, 64, 30
1, 147984, Note_off_c, 0, 89, 48
1, 147987, Control_c, 0, 64, 52
1, 147988, Note_off_c, 0, 59, 53
1, 148001, Note_off_c, 0, 88, 58
1, 148002, Control_c, 0, 64, 90
1, 148015, Note_off_c, 0, 91, 58
1, 148017, Control_c, 0, 64, 127
1, 148031, Note_off_c, 0, 94, 32
1, 148051, Note_on_c, 0, 99, 88
1, 148056, Note_off_c, 0, 47, 61
1, 148082, Note_on_c, 0, 97, 7
1, 148126, Note_off_c, 0, 97, 40
1, 148161, Note_on_c, 0, 90, 93
1, 148163, Note_on_c, 0, 87, 92
1, 148197, Note_off_c, 0, 99, 61
1, 148236, Note_off_c, 0, 87, 62
1, 148252, Note_on_c, 0, 43, 99
1, 148255, Note_on_c, 0, 31, 97
1, 148264, Note_on_c, 0, 99, 88
1, 148271, Note_on_c, 0, 32, 63
1, 148276, Note_off_c, 0, 90, 54
1, 148292, Note_off_c, 0, 43, 62
1, 148296, Note_on_c, 0, 97, 58
1, 148298, Note_off_c, 0, 31, 62
1, 148303, Note_off_c, 0, 32, 55
1, 148339, Note_off_c, 0, 97, 59
1, 148375, Note_off_c, 0, 99, 63
1, 148399, Note_on_c, 0, 31, 95
1, 148402, Note_on_c, 0, 43, 91
1, 148402, Note_on_c, 0, 45, 93
1, 148402, Note_on_c, 0, 90, 94
1, 148405, Note_on_c, 0, 87, 89
1, 148415, Note_on_c, 0, 32, 60
1, 148423, Note_off_c, 0, 45, 70
1, 148429, Note_on_c, 0, 34, 42
1, 148438, Note_off_c, 0, 31, 60
1, 148439, Note_off_c, 0, 43, 58
1, 148441, Note_off_c, 0, 32, 57
1, 148470, Note_off_c, 0, 34, 50
1, 148479, Note_off_c, 0, 87, 64
1, 148518, Note_off_c, 0, 90, 62
1, 148553, Note_on_c, 0, 99, 96
1, 148568, Note_on_c, 0, 100, 93
1, 148585, Note_off_c, 0, 100, 73
1, 148594, Note_on_c, 0, 97, 40
1, 148601, Note_off_c, 0, 99, 67
1, 148624, Note_off_c, 0, 97, 33
1, 148854, Control_c, 0, 64, 78
1, 148858, Note_on_c, 0, 91, 103
1, 148858, Note_on_c, 0, 100, 107
1, 148861, Note_on_c, 0, 96, 98
1, 148862, Note_on_c, 0, 88, 99
1, 148863, Note_on_c, 0, 48, 103
1, 148863, Note_on_c, 0, 36, 88
1, 148863, Note_on_c, 0, 43, 89
1, 148866, Note_on_c, 0, 40, 87
1, 148869, Control_c, 0, 64, 37
1, 148891, Control_c, 0, 64, 0
1, 148951, Control_c, 0, 64, 43
1, 148959, Note_off_c, 0, 43, 63
1, 148962, Note_off_c, 0, 40, 64
1, 148965, Control_c, 0, 64, 63
1, 148966, Note_off_c, 0, 36, 62
1, 148972, Note_off_c, 0, 48, 64
1, 148980, Control_c, 0, 64, 127
1, 149033, Note_off_c, 0, 100, 62
1, 149034, Note_off_c, 0, 88, 59
1, 149034, Note_off_c, 0, 91, 55
1, 149046, Note_off_c, 0, 96, 62
1, 149184, Note_on_c, 0, 52, 79
1, 149185, Note_on_c, 0, 43, 75
1, 149187, Note_on_c, 0, 88, 80
1, 149188, Note_on_c, 0, 91, 83
1, 149190, Note_on_c, 0, 96, 81
1, 149197, Note_on_c, 0, 48, 58
1, 149203, Note_on_c, 0, 84, 57
1, 149206, Note_off_c, 0, 43, 72
1, 149206, Note_off_c, 0, 88, 69
1, 149207, Note_off_c, 0, 52, 73
1, 149207, Note_off_c, 0, 91, 68
1, 149208, Note_off_c, 0, 96, 72
1, 149213, Note_off_c, 0, 48, 67
1, 149215, Note_on_c, 0, 40, 34
1, 149217, Control_c, 0, 64, 79
1, 149221, Note_off_c, 0, 84, 64
1, 149232, Control_c, 0, 64, 60
1, 149242, Note_on_c, 0, 88, 96
1, 149242, Note_on_c, 0, 96, 96
1, 149247, Control_c, 0, 64, 45
1, 149248, Note_on_c, 0, 84, 74
1, 149248, Note_on_c, 0, 91, 90
1, 149249, Note_on_c, 0, 52, 78
1, 149253, Note_on_c, 0, 43, 82
1, 149257, Note_off_c, 0, 40, 0
1, 149257, Note_on_c, 0, 40, 23
1, 149257, Note_on_c, 0, 48, 84
1, 149262, Control_c, 0, 64, 37
1, 149277, Control_c, 0, 64, 45
1, 149291, Control_c, 0, 64, 57
1, 149299, Note_off_c, 0, 84, 59
1, 149299, Note_off_c, 0, 48, 54
1, 149299, Note_off_c, 0, 96, 61
1, 149302, Note_off_c, 0, 52, 63
1, 149305, Note_off_c, 0, 43, 61
1, 149306, Control_c, 0, 64, 68
1, 149308, Note_off_c, 0, 91, 56
1, 149309, Note_off_c, 0, 88, 63
1, 149315, Note_off_c, 0, 40, 62
1, 149321, Control_c, 0, 64, 93
1, 149336, Control_c, 0, 64, 127
1, 149389, Note_on_c, 0, 96, 102
1, 149390, Note_on_c, 0, 88, 97
1, 149393, Note_on_c, 0, 52, 86
1, 149393, Note_on_c, 0, 91, 93
1, 149395, Note_on_c, 0, 84, 86
1, 149400, Note_on_c, 0, 43, 73
1, 149400, Note_on_c, 0, 48, 68
1, 149407, Note_on_c, 0, 40, 61
1, 149411, Note_off_c, 0, 91, 66
1, 149413, Note_off_c, 0, 84, 71
1, 149416, Note_off_c, 0, 52, 69
1, 149419, Note_off_c, 0, 88, 63
1, 149420, Note_off_c, 0, 48, 69
1, 149426, Note_off_c, 0, 96, 60
1, 149431, Note_off_c, 0, 40, 61
1, 149432, Note_off_c, 0, 43, 63
1, 149567, Note_on_c, 0, 52, 77
1, 149570, Note_on_c, 0, 55, 75
1, 149572, Note_on_c, 0, 84, 82
1, 149573, Note_on_c, 0, 48, 62
1, 149573, Note_on_c, 0, 88, 82
1, 149576, Note_on_c, 0, 79, 79
1, 149579, Note_on_c, 0, 91, 76
1, 149581, Note_on_c, 0, 43, 61
1, 149588, Note_off_c, 0, 52, 72
1, 149589, Note_off_c, 0, 48, 72
1, 149591, Note_off_c, 0, 84, 72
1, 149592, Note_off_c, 0, 88, 74
1, 149594, Note_off_c, 0, 91, 67
1, 149596, Note_off_c, 0, 79, 70
1, 149597, Note_off_c, 0, 55, 68
1, 149626, Note_off_c, 0, 43, 0
1, 149627, Note_on_c, 0, 84, 90
1, 149629, Note_on_c, 0, 79, 93
1, 149630, Note_on_c, 0, 88, 84
1, 149631, Note_on_c, 0, 91, 90
1, 149644, Note_on_c, 0, 52, 92
1, 149644, Note_on_c, 0, 48, 83
1, 149647, Note_on_c, 0, 43, 68
1, 149647, Note_on_c, 0, 55, 90
1, 149676, Note_off_c, 0, 84, 65
1, 149677, Note_off_c, 0, 91, 61
1, 149678, Note_off_c, 0, 79, 61
1, 149680, Note_off_c, 0, 88, 65
1, 149693, Note_off_c, 0, 55, 59
1, 149701, Note_off_c, 0, 52, 53
1, 149710, Note_off_c, 0, 43, 59
1, 149712, Note_off_c, 0, 48, 58
1, 149759, Control_c, 0, 64, 97
1, 149774, Control_c, 0, 64, 59
1, 149786, Note_on_c, 0, 57, 94
1, 149787, Note_on_c, 0, 76, 94
1, 149787, Note_on_c, 0, 88, 96
1, 149788, Note_on_c, 0, 81, 91
1, 149789, Control_c, 0, 64, 29
1, 149790, Note_on_c, 0, 84, 91
1, 149793, Note_on_c, 0, 52, 84
1, 149796, Note_on_c, 0, 48, 65
1, 149804, Control_c, 0, 64, 23
1, 149806, Note_off_c, 0, 57, 68
1, 149807, Note_off_c, 0, 81, 71
1, 149808, Note_off_c, 0, 76, 69
1, 149808, Note_on_c, 0, 43, 61
1, 149810, Note_on_c, 0, 45, 55
1, 149811, Note_off_c, 0, 84, 67
1, 149815, Note_on_c, 0, 86, 49
1, 149816, Note_off_c, 0, 86, 127
1, 149818, Note_off_c, 0, 52, 72
1, 149819, Note_off_c, 0, 48, 69
1, 149819, Control_c, 0, 64, 43
1, 149823, Note_off_c, 0, 88, 68
1, 149834, Control_c, 0, 64, 60
1, 149838, Note_off_c, 0, 45, 57
1, 149841, Note_off_c, 0, 43, 53
1, 149848, Control_c, 0, 64, 127
1, 149963, Note_on_c, 0, 57, 88
1, 149963, Note_on_c, 0, 76, 96
1, 149966, Note_on_c, 0, 52, 87
1, 149968, Note_on_c, 0, 81, 90
1, 149969, Note_on_c, 0, 72, 89
1, 149969, Note_on_c, 0, 60, 80
1, 149978, Note_on_c, 0, 84, 70
1, 149982, Note_off_c, 0, 76, 73
1, 149983, Note_off_c, 0, 57, 71
1, 149984, Note_off_c, 0, 52, 76
1, 149984, Note_off_c, 0, 72, 73
1, 149984, Note_off_c, 0, 81, 73
1, 149992, Note_off_c, 0, 60, 71
1, 149994, Note_off_c, 0, 84, 67
1, 150023, Note_on_c, 0, 60, 93
1, 150023, Note_on_c, 0, 76, 98
1, 150026, Note_on_c, 0, 72, 96
1, 150028, Note_on_c, 0, 48, 78
1, 150029, Note_on_c, 0, 52, 89
1, 150029, Note_on_c, 0, 84, 92
1, 150030, Note_on_c, 0, 57, 87
1, 150031, Note_on_c, 0, 81, 98
1, 150053, Note_on_c, 0, 56, 46
1, 150054, Note_off_c, 0, 56, 127
1, 150084, Note_off_c, 0, 72, 55
1, 150091, Note_off_c, 0, 76, 62
1, 150097, Note_off_c, 0, 84, 58
1, 150103, Note_off_c, 0, 81, 61
1, 150110, Note_off_c, 0, 52, 66
1, 150110, Note_off_c, 0, 57, 58
1, 150112, Note_off_c, 0, 60, 61
1, 150113, Note_off_c, 0, 48, 63
1, 150203, Note_on_c, 0, 60, 100
1, 150203, Note_on_c, 0, 84, 99
1, 150205, Note_on_c, 0, 76, 102
1, 150205, Note_on_c, 0, 57, 90
1, 150206, Note_on_c, 0, 81, 102
1, 150207, Note_on_c, 0, 72, 93
1, 150212, Note_on_c, 0, 52, 92
1, 150214, Note_on_c, 0, 48, 89
1, 150233, Control_c, 0, 64, 56
1, 150248, Control_c, 0, 64, 0
1, 150293, Control_c, 0, 64, 16
1, 150307, Control_c, 0, 64, 48
1, 150322, Control_c, 0, 64, 71
1, 150324, Note_off_c, 0, 60, 57
1, 150337, Control_c, 0, 64, 127
1, 150354, Note_off_c, 0, 57, 60
1, 150362, Note_off_c, 0, 72, 60
1, 150375, Note_off_c, 0, 52, 64
1, 150392, Note_off_c, 0, 76, 63
1, 150395, Note_off_c, 0, 48, 62
1, 150402, Note_off_c, 0, 81, 62
1, 150433, Note_off_c, 0, 84, 57
1, 150540, Note_on_c, 0, 87, 24
1, 150581, Note_off_c, 0, 87, 34
1, 150592, Note_on_c, 0, 43, 64
1, 150611, Control_c, 0, 64, 108
1, 150626, Control_c, 0, 64, 61
1, 150641, Control_c, 0, 64, 36
1, 150646, Note_on_c, 0, 50, 70
1, 150655, Control_c, 0, 64, 29
1, 150670, Control_c, 0, 64, 45
1, 150674, Note_on_c, 0, 83, 91
1, 150676, Note_on_c, 0, 91, 97
1, 150677, Note_on_c, 0, 55, 94
1, 150680, Note_on_c, 0, 79, 86
1, 150682, Note_on_c, 0, 77, 85
1, 150685, Control_c, 0, 64, 62
1, 150700, Control_c, 0, 64, 127
1, 150703, Note_off_c, 0, 43, 61
1, 150707, Note_off_c, 0, 50, 62
1, 150719, Note_off_c, 0, 79, 54
1, 150724, Note_off_c, 0, 91, 63
1, 150725, Note_off_c, 0, 77, 51
1, 150727, Note_off_c, 0, 55, 66
1, 150729, Note_off_c, 0, 83, 63
1, 150873, Note_on_c, 0, 65, 80
1, 150873, Note_on_c, 0, 79, 85
1, 150878, Note_on_c, 0, 74, 75
1, 150878, Note_on_c, 0, 59, 67
1, 150883, Note_on_c, 0, 55, 63
1, 150890, Note_off_c, 0, 79, 72
1, 150894, Note_off_c, 0, 65, 73
1, 150897, Note_off_c, 0, 55, 73
1, 150898, Note_off_c, 0, 59, 65
1, 150899, Note_off_c, 0, 74, 73
1, 150935, Note_on_c, 0, 86, 5
1, 150940, Note_on_c, 0, 74, 84
1, 150940, Note_on_c, 0, 79, 97
1, 150941, Note_on_c, 0, 65, 89
1, 150942, Note_on_c, 0, 55, 94
1, 150953, Note_on_c, 0, 59, 70
1, 150954, Note_on_c, 0, 58, 53
1, 150965, Note_off_c, 0, 65, 64
1, 150973, Note_off_c, 0, 59, 70
1, 150977, Note_off_c, 0, 58, 59
1, 150978, Note_off_c, 0, 74, 64
1, 150981, Note_off_c, 0, 55, 56
1, 150982, Note_off_c, 0, 86, 59
1, 150983, Note_off_c, 0, 79, 59
1, 151071, Control_c, 0, 64, 79
1, 151072, Note_on_c, 0, 58, 66
1, 151073, Note_on_c, 0, 85, 98
1, 151076, Note_on_c, 0, 73, 90
1, 151076, Note_on_c, 0, 79, 95
1, 151078, Note_on_c, 0, 65, 86
1, 151086, Control_c, 0, 64, 48
1, 151098, Note_on_c, 0, 55, 54
1, 151100, Note_off_c, 0, 73, 65
1, 151101, Control_c, 0, 64, 0
1, 151116, Note_off_c, 0, 65, 65
1, 151116, Note_off_c, 0, 79, 61
1, 151117, Note_off_c, 0, 85, 65
1, 151120, Note_off_c, 0, 55, 63
1, 151126, Note_off_c, 0, 58, 66
1, 151203, Note_on_c, 0, 59, 54
1, 151205, Note_on_c, 0, 74, 95
1, 151206, Note_on_c, 0, 55, 73
1, 151206, Note_on_c, 0, 65, 84
1, 151209, Note_on_c, 0, 79, 96
1, 151209, Note_on_c, 0, 86, 92
1, 151231, Note_off_c, 0, 86, 65
1, 151232, Note_off_c, 0, 65, 68
1, 151233, Note_off_c, 0, 74, 64
1, 151236, Note_off_c, 0, 55, 68
1, 151238, Note_off_c, 0, 79, 61
1, 151245, Note_off_c, 0, 59, 63
1, 151320, Note_on_c, 0, 65, 96
1, 151320, Note_on_c, 0, 87, 101
1, 151320, Note_on_c, 0, 75, 94
1, 151320, Note_on_c, 0, 79, 91
1, 151327, Note_on_c, 0, 59, 74
1, 151331, Note_on_c, 0, 55, 73
1, 151341, Note_off_c, 0, 79, 67
1, 151344, Note_off_c, 0, 65, 66
1, 151344, Note_off_c, 0, 75, 64
1, 151351, Note_off_c, 0, 59, 69
1, 151355, Note_off_c, 0, 55, 70
1, 151362, Note_off_c, 0, 87, 68
1, 151480, Note_on_c, 0, 88, 103
1, 151481, Note_on_c, 0, 79, 99
1, 151482, Note_on_c, 0, 64, 100
1, 151483, Note_on_c, 0, 60, 95
1, 151485, Note_on_c, 0, 76, 96
1, 151509, Control_c, 0, 64, 12
1, 151524, Control_c, 0, 64, 59
1, 151539, Control_c, 0, 64, 127
1, 151671, Note_off_c, 0, 88, 59
1, 151686, Note_off_c, 0, 64, 53
1, 151701, Note_off_c, 0, 79, 59
1, 151703, Note_off_c, 0, 76, 39
1, 151745, Poly_aftertouch_c, 0, 85, 0
1, 151886, Note_off_c, 0, 60, 54
1, 151977, Note_on_c, 0, 84, 90
1, 151981, Note_on_c, 0, 72, 87
1, 151983, Note_on_c, 0, 64, 82
1, 151983, Note_on_c, 0, 67, 81
1, 151985, Note_on_c, 0, 79, 88
1, 151997, Note_off_c, 0, 72, 74
1, 152002, Note_off_c, 0, 67, 74
1, 152004, Note_off_c, 0, 79, 71
1, 152014, Note_off_c, 0, 64, 63
1, 152016, Note_off_c, 0, 84, 66
1, 152376, Control_c, 0, 64, 82
1, 152391, Control_c, 0, 64, 53
1, 152406, Control_c, 0, 64, 0
1, 152450, Control_c, 0, 64, 11
1, 152455, Note_on_c, 0, 91, 95
1, 152456, Note_on_c, 0, 100, 102
1, 152457, Note_on_c, 0, 88, 85
1, 152458, Note_on_c, 0, 96, 86
1, 152459, Note_on_c, 0, 48, 81
1, 152461, Note_on_c, 0, 43, 74
1, 152464, Note_on_c, 0, 40, 70
1, 152465, Note_on_c, 0, 36, 62
1, 152465, Control_c, 0, 64, 42
1, 152475, Note_off_c, 0, 91, 65
1, 152476, Note_off_c, 0, 88, 72
1, 152480, Control_c, 0, 64, 64
1, 152481, Note_off_c, 0, 96, 66
1, 152485, Note_off_c, 0, 43, 65
1, 152488, Note_off_c, 0, 48, 66
1, 152492, Note_off_c, 0, 36, 61
1, 152492, Note_off_c, 0, 100, 63
1, 152495, Control_c, 0, 64, 127
1, 152497, Note_off_c, 0, 40, 66
1, 152498, Note_on_c, 0, 98, 29
1, 152499, Note_off_c, 0, 98, 127
1, 152699, Note_on_c, 0, 43, 63
1, 152700, Note_on_c, 0, 52, 64
1, 152701, Note_on_c, 0, 88, 69
1, 152702, Note_on_c, 0, 48, 61
1, 152702, Note_on_c, 0, 91, 72
1, 152709, Note_on_c, 0, 84, 58
1, 152711, Note_on_c, 0, 89, 62
1, 152712, Note_on_c, 0, 96, 55
1, 152714, Note_on_c, 0, 40, 45
1, 152716, Note_off_c, 0, 91, 66
1, 152717, Note_off_c, 0, 88, 69
1, 152718, Note_off_c, 0, 48, 69
1, 152721, Note_off_c, 0, 52, 65
1, 152721, Note_on_c, 0, 98, 42
1, 152724, Note_off_c, 0, 43, 59
1, 152728, Note_off_c, 0, 84, 63
1, 152730, Note_off_c, 0, 89, 65
1, 152736, Note_off_c, 0, 96, 59
1, 152736, Note_off_c, 0, 98, 45
1, 152748, Note_off_c, 0, 40, 0
1, 152756, Note_on_c, 0, 96, 82
1, 152759, Note_on_c, 0, 88, 95
1, 152762, Note_on_c, 0, 84, 83
1, 152767, Note_on_c, 0, 52, 80
1, 152768, Note_on_c, 0, 91, 82
1, 152769, Note_on_c, 0, 48, 81
1, 152772, Note_on_c, 0, 40, 49
1, 152774, Note_on_c, 0, 43, 70
1, 152795, Note_off_c, 0, 52, 59
1, 152798, Note_off_c, 0, 48, 61
1, 152810, Note_off_c, 0, 43, 60
1, 152810, Note_off_c, 0, 91, 47
1, 152810, Note_off_c, 0, 96, 61
1, 152816, Note_off_c, 0, 88, 60
1, 152819, Note_off_c, 0, 40, 63
1, 152819, Note_off_c, 0, 84, 58
1, 152902, Note_on_c, 0, 96, 96
1, 152905, Note_on_c, 0, 43, 72
1, 152905, Note_on_c, 0, 88, 86
1, 152908, Note_on_c, 0, 52, 74
1, 152908, Note_on_c, 0, 84, 84
1, 152908, Note_on_c, 0, 91, 78
1, 152911, Note_on_c, 0, 48, 62
1, 152914, Note_on_c, 0, 40, 65
1, 152929, Note_off_c, 0, 88, 65
1, 152929, Note_off_c, 0, 91, 66
1, 152932, Note_off_c, 0, 52, 71
1, 152932, Note_off_c, 0, 84, 66
1, 152936, Note_off_c, 0, 96, 59
1, 152939, Note_off_c, 0, 40, 64
1, 152940, Note_off_c, 0, 48, 66
1, 152944, Note_off_c, 0, 43, 60
1, 153069, Note_on_c, 0, 52, 81
1, 153070, Note_on_c, 0, 55, 82
1, 153074, Note_on_c, 0, 84, 77
1, 153074, Note_on_c, 0, 88, 80
1, 153078, Note_on_c, 0, 43, 65
1, 153079, Note_on_c, 0, 79, 74
1, 153081, Note_on_c, 0, 91, 73
1, 153091, Note_off_c, 0, 84, 69
1, 153092, Note_off_c, 0, 55, 72
1, 153092, Note_off_c, 0, 88, 74
1, 153094, Note_off_c, 0, 52, 70
1, 153096, Note_off_c, 0, 91, 65
1, 153098, Note_off_c, 0, 79, 68
1, 153104, Note_off_c, 0, 43, 59
1, 153106, Note_on_c, 0, 48, 29
1, 153111, Note_on_c, 0, 47, 8
1, 153130, Note_on_c, 0, 84, 102
1, 153135, Note_on_c, 0, 88, 92
1, 153135, Note_on_c, 0, 79, 90
1, 153136, Note_on_c, 0, 91, 94
1, 153144, Note_on_c, 0, 52, 94
1, 153144, Note_on_c, 0, 55, 89
1, 153147, Note_off_c, 0, 48, 0
1, 153147, Note_on_c, 0, 48, 65
1, 153158, Note_on_c, 0, 43, 70
1, 153159, Note_off_c, 0, 47, 56
1, 153170, Note_off_c, 0, 84, 64
1, 153171, Note_off_c, 0, 79, 53
1, 153177, Note_off_c, 0, 88, 65
1, 153179, Note_off_c, 0, 91, 57
1, 153193, Note_off_c, 0, 43, 50
1, 153195, Note_off_c, 0, 52, 59
1, 153197, Note_off_c, 0, 55, 55
1, 153198, Note_off_c, 0, 48, 57
1, 153259, Control_c, 0, 64, 62
1, 153274, Control_c, 0, 64, 28
1, 153281, Note_on_c, 0, 57, 91
1, 153281, Note_on_c, 0, 76, 97
1, 153281, Note_on_c, 0, 81, 93
1, 153281, Note_on_c, 0, 88, 100
1, 153282, Note_on_c, 0, 84, 89
1, 153286, Note_on_c, 0, 52, 82
1, 153289, Control_c, 0, 64, 25
1, 153291, Note_on_c, 0, 43, 63
1, 153291, Note_on_c, 0, 48, 70
1, 153299, Note_off_c, 0, 81, 72
1, 153300, Note_off_c, 0, 76, 71
1, 153301, Note_off_c, 0, 84, 71
1, 153302, Note_off_c, 0, 57, 70
1, 153304, Note_off_c, 0, 52, 77
1, 153304, Control_c, 0, 64, 42
1, 153309, Note_off_c, 0, 43, 66
1, 153318, Note_off_c, 0, 48, 68
1, 153319, Control_c, 0, 64, 58
1, 153320, Note_off_c, 0, 88, 65
1, 153327, Note_on_c, 0, 45, 18
1, 153332, Note_on_c, 0, 55, 21
1, 153333, Control_c, 0, 64, 89
1, 153348, Control_c, 0, 64, 127
1, 153359, Note_off_c, 0, 55, 63
1, 153373, Note_off_c, 0, 45, 52
1, 153461, Note_on_c, 0, 76, 93
1, 153465, Note_on_c, 0, 72, 86
1, 153466, Note_on_c, 0, 60, 80
1, 153466, Note_on_c, 0, 81, 85
1, 153466, Note_on_c, 0, 57, 78
1, 153469, Note_on_c, 0, 52, 72
1, 153475, Note_on_c, 0, 84, 72
1, 153481, Note_off_c, 0, 76, 72
1, 153482, Note_off_c, 0, 72, 73
1, 153484, Note_off_c, 0, 81, 73
1, 153487, Note_off_c, 0, 60, 73
1, 153489, Note_off_c, 0, 57, 68
1, 153493, Note_off_c, 0, 52, 69
1, 153496, Note_off_c, 0, 84, 66
1, 153521, Note_on_c, 0, 76, 90
1, 153523, Note_on_c, 0, 72, 89
1, 153524, Note_on_c, 0, 60, 96
1, 153526, Note_on_c, 0, 48, 19
1, 153526, Note_on_c, 0, 57, 94
1, 153526, Note_on_c, 0, 84, 85
1, 153528, Note_on_c, 0, 81, 95
1, 153529, Note_on_c, 0, 52, 83
1, 153577, Note_off_c, 0, 72, 57
1, 153582, Note_off_c, 0, 76, 64
1, 153585, Note_on_c, 0, 50, 4
1, 153591, Note_off_c, 0, 84, 61
1, 153592, Note_off_c, 0, 81, 62
1, 153597, Note_off_c, 0, 57, 57
1, 153597, Note_off_c, 0, 60, 58
1, 153607, Note_off_c, 0, 52, 61
1, 153615, Note_off_c, 0, 50, 0
1, 153618, Note_off_c, 0, 48, 59
1, 153638, Poly_aftertouch_c, 0, 50, 0
1, 153709, Note_on_c, 0, 60, 97
1, 153709, Note_on_c, 0, 76, 99
1, 153709, Note_on_c, 0, 84, 99
1, 153710, Note_on_c, 0, 57, 92
1, 153712, Note_on_c, 0, 72, 94
1, 153712, Note_on_c, 0, 81, 91
1, 153714, Note_on_c, 0, 52, 87
1, 153723, Note_on_c, 0, 48, 86
1, 153756, Control_c, 0, 64, 66
1, 153771, Control_c, 0, 64, 23
1, 153786, Control_c, 0, 64, 0
1, 153845, Control_c, 0, 64, 41
1, 153860, Control_c, 0, 64, 63
1, 153875, Control_c, 0, 64, 127
1, 153877, Note_off_c, 0, 60, 53
1, 153880, Note_off_c, 0, 72, 63
1, 153898, Note_off_c, 0, 57, 61
1, 153901, Note_off_c, 0, 84, 58
1, 153904, Note_off_c, 0, 76, 64
1, 153907, Note_off_c, 0, 52, 65
1, 153923, Note_off_c, 0, 48, 61
1, 153924, Note_off_c, 0, 81, 60
1, 154134, Control_c, 0, 64, 75
1, 154149, Control_c, 0, 64, 43
1, 154163, Note_on_c, 0, 78, 97
1, 154163, Control_c, 0, 64, 22
1, 154164, Note_on_c, 0, 87, 89
1, 154166, Note_on_c, 0, 75, 98
1, 154169, Note_on_c, 0, 47, 78
1, 154169, Note_on_c, 0, 59, 85
1, 154169, Note_on_c, 0, 54, 85
1, 154174, Note_on_c, 0, 51, 76
1, 154178, Control_c, 0, 64, 40
1, 154193, Control_c, 0, 64, 56
1, 154196, Note_off_c, 0, 47, 66
1, 154196, Note_off_c, 0, 54, 69
1, 154196, Note_off_c, 0, 59, 64
1, 154202, Note_off_c, 0, 51, 68
1, 154205, Note_off_c, 0, 78, 65
1, 154207, Note_off_c, 0, 75, 58
1, 154208, Control_c, 0, 64, 77
1, 154212, Note_off_c, 0, 87, 66
1, 154223, Control_c, 0, 64, 127
1, 154348, Note_on_c, 0, 71, 80
1, 154351, Note_on_c, 0, 75, 85
1, 154354, Note_on_c, 0, 78, 75
1, 154354, Note_on_c, 0, 63, 61
1, 154360, Note_on_c, 0, 59, 49
1, 154360, Note_on_c, 0, 66, 62
1, 154370, Note_off_c, 0, 71, 72
1, 154370, Note_off_c, 0, 78, 70
1, 154373, Note_off_c, 0, 75, 67
1, 154377, Note_off_c, 0, 63, 64
1, 154378, Note_off_c, 0, 59, 63
1, 154379, Note_off_c, 0, 66, 63
1, 154409, Note_on_c, 0, 66, 80
1, 154416, Note_on_c, 0, 75, 95
1, 154417, Note_on_c, 0, 71, 82
1, 154417, Note_on_c, 0, 78, 101
1, 154419, Note_on_c, 0, 63, 78
1, 154421, Note_on_c, 0, 59, 73
1, 154447, Note_off_c, 0, 63, 64
1, 154451, Note_off_c, 0, 59, 60
1, 154452, Note_off_c, 0, 66, 57
1, 154462, Note_off_c, 0, 71, 62
1, 154462, Note_off_c, 0, 78, 59
1, 154467, Note_off_c, 0, 75, 54
1, 154535, Control_c, 0, 64, 70
1, 154547, Note_on_c, 0, 77, 88
1, 154550, Control_c, 0, 64, 34
1, 154551, Note_on_c, 0, 65, 88
1, 154551, Note_on_c, 0, 59, 75
1, 154552, Note_on_c, 0, 71, 89
1, 154552, Note_on_c, 0, 75, 87
1, 154555, Note_on_c, 0, 63, 79
1, 154565, Control_c, 0, 64, 0
1, 154578, Note_off_c, 0, 75, 64
1, 154578, Note_off_c, 0, 71, 62
1, 154584, Note_off_c, 0, 77, 67
1, 154587, Note_off_c, 0, 65, 69
1, 154593, Note_off_c, 0, 59, 57
1, 154594, Note_off_c, 0, 63, 64
1, 154678, Note_on_c, 0, 66, 82
1, 154678, Note_on_c, 0, 71, 87
1, 154679, Note_on_c, 0, 78, 87
1, 154679, Note_on_c, 0, 75, 88
1, 154684, Note_on_c, 0, 59, 61
1, 154690, Note_on_c, 0, 63, 63
1, 154699, Note_off_c, 0, 71, 70
1, 154700, Note_off_c, 0, 75, 68
1, 154701, Note_off_c, 0, 66, 65
1, 154708, Note_off_c, 0, 78, 59
1, 154720, Note_off_c, 0, 63, 65
1, 154727, Note_off_c, 0, 59, 59
1, 154801, Note_on_c, 0, 66, 86
1, 154803, Note_on_c, 0, 63, 78
1, 154804, Note_on_c, 0, 71, 93
1, 154804, Note_on_c, 0, 83, 94
1, 154807, Note_on_c, 0, 59, 68
1, 154808, Note_on_c, 0, 75, 87
1, 154821, Note_off_c, 0, 71, 75
1, 154822, Note_off_c, 0, 66, 68
1, 154825, Note_off_c, 0, 63, 71
1, 154825, Note_off_c, 0, 75, 72
1, 154831, Note_off_c, 0, 59, 66
1, 154831, Note_off_c, 0, 83, 61
1, 154978, Note_on_c, 0, 71, 98
1, 154979, Note_on_c, 0, 63, 90
1, 154980, Note_on_c, 0, 87, 102
1, 154981, Note_on_c, 0, 75, 96
1, 154984, Note_on_c, 0, 59, 84
1, 154984, Note_on_c, 0, 66, 90
1, 154994, Note_on_c, 0, 78, 68
1, 155001, Control_c, 0, 64, 54
1, 155002, Note_on_c, 0, 77, 69
1, 155003, Note_off_c, 0, 66, 71
1, 155007, Note_off_c, 0, 71, 70
1, 155013, Note_on_c, 0, 74, 58
1, 155016, Control_c, 0, 64, 127
1, 155018, Note_off_c, 0, 63, 65
1, 155029, Note_off_c, 0, 59, 65
1, 155033, Note_off_c, 0, 74, 64
1, 155043, Note_off_c, 0, 77, 40
1, 155044, Note_on_c, 0, 86, 54
1, 155056, Note_off_c, 0, 78, 0
1, 155056, Note_on_c, 0, 78, 2
1, 155134, Note_off_c, 0, 87, 59
1, 155208, Note_off_c, 0, 86, 29
1, 155213, Note_off_c, 0, 75, 58
1, 155237, Note_off_c, 0, 78, 44
1, 155525, Note_on_c, 0, 71, 88
1, 155527, Note_on_c, 0, 86, 95
1, 155529, Note_on_c, 0, 77, 99
1, 155529, Note_on_c, 0, 74, 95
1, 155529, Note_on_c, 0, 79, 99
1, 155534, Note_on_c, 0, 55, 79
1, 155537, Note_on_c, 0, 65, 78
1, 155540, Note_on_c, 0, 62, 87
1, 155594, Control_c, 0, 64, 80
1, 155609, Control_c, 0, 64, 40
1, 155611, Note_on_c, 0, 64, 2
1, 155631, Control_c, 0, 64, 0
1, 155664, Note_off_c, 0, 64, 26
1, 155675, Control_c, 0, 64, 21
1, 155690, Control_c, 0, 64, 57
1, 155705, Control_c, 0, 64, 127
1, 155779, Note_off_c, 0, 55, 62
1, 155796, Note_off_c, 0, 71, 63
1, 155822, Note_off_c, 0, 62, 59
1, 155827, Note_off_c, 0, 65, 64
1, 155845, Note_off_c, 0, 86, 52
1, 155851, Note_off_c, 0, 74, 60
1, 155871, Note_off_c, 0, 79, 49
1, 155892, Note_off_c, 0, 77, 57
1, 156136, Control_c, 0, 64, 74
1, 156150, Control_c, 0, 64, 46
1, 156154, Note_on_c, 0, 88, 98
1, 156155, Note_on_c, 0, 79, 97
1, 156158, Note_on_c, 0, 76, 90
1, 156161, Note_on_c, 0, 72, 91
1, 156161, Note_on_c, 0, 84, 88
1, 156161, Note_on_c, 0, 67, 86
1, 156163, Note_on_c, 0, 60, 85
1, 156165, Control_c, 0, 64, 0
1, 156167, Note_on_c, 0, 64, 74
1, 156180, Control_c, 0, 64, 13
1, 156194, Control_c, 0, 64, 37
1, 156209, Control_c, 0, 64, 56
1, 156211, Note_off_c, 0, 72, 62
1, 156222, Note_off_c, 0, 64, 65
1, 156224, Control_c, 0, 64, 84
1, 156225, Note_off_c, 0, 67, 65
1, 156239, Control_c, 0, 64, 127
1, 156240, Note_off_c, 0, 60, 64
1, 156258, Note_off_c, 0, 79, 61
1, 156259, Note_off_c, 0, 88, 63
1, 156262, Note_off_c, 0, 84, 62
1, 156266, Note_off_c, 0, 76, 61
1, 156420, Note_on_c, 0, 64, 80
1, 156421, Note_on_c, 0, 67, 81
1, 156425, Note_on_c, 0, 60, 74
1, 156439, Control_c, 0, 64, 106
1, 156440, Note_off_c, 0, 64, 71
1, 156444, Note_off_c, 0, 67, 70
1, 156449, Note_on_c, 0, 55, 37
1, 156453, Note_off_c, 0, 60, 65
1, 156454, Control_c, 0, 64, 64
1, 156459, Note_on_c, 0, 76, 93
1, 156461, Note_on_c, 0, 84, 91
1, 156462, Note_on_c, 0, 72, 85
1, 156463, Note_on_c, 0, 79, 82
1, 156469, Control_c, 0, 64, 49
1, 156479, Note_off_c, 0, 55, 0
1, 156479, Note_on_c, 0, 55, 29
1, 156483, Control_c, 0, 64, 45
1, 156485, Note_on_c, 0, 67, 91
1, 156485, Note_off_c, 0, 79, 66
1, 156485, Note_off_c, 0, 72, 60
1, 156486, Note_on_c, 0, 64, 85
1, 156492, Note_on_c, 0, 60, 63
1, 156492, Note_off_c, 0, 76, 67
1, 156498, Control_c, 0, 64, 52
1, 156503, Note_off_c, 0, 84, 60
1, 156513, Control_c, 0, 64, 62
1, 156526, Note_off_c, 0, 60, 63
1, 156528, Control_c, 0, 64, 96
1, 156532, Note_off_c, 0, 64, 62
1, 156538, Note_off_c, 0, 67, 63
1, 156543, Control_c, 0, 64, 127
1, 156560, Note_off_c, 0, 55, 63
1, 156632, Note_on_c, 0, 76, 76
1, 156638, Note_on_c, 0, 67, 74
1, 156638, Note_on_c, 0, 72, 67
1, 156647, Control_c, 0, 64, 82
1, 156651, Note_off_c, 0, 67, 75
1, 156652, Note_on_c, 0, 79, 48
1, 156652, Note_off_c, 0, 76, 72
1, 156655, Note_off_c, 0, 72, 66
1, 156661, Control_c, 0, 64, 63
1, 156673, Note_off_c, 0, 79, 0
1, 156676, Control_c, 0, 64, 54
1, 156683, Note_on_c, 0, 55, 76
1, 156689, Note_on_c, 0, 60, 77
1, 156689, Note_on_c, 0, 64, 75
1, 156689, Note_on_c, 0, 79, 69
1, 156691, Note_on_c, 0, 67, 93
1, 156691, Control_c, 0, 64, 51
1, 156693, Note_on_c, 0, 76, 88
1, 156699, Note_on_c, 0, 72, 83
1, 156703, Note_on_c, 0, 52, 62
1, 156706, Control_c, 0, 64, 59
1, 156712, Note_off_c, 0, 60, 72
1, 156717, Note_off_c, 0, 64, 65
1, 156720, Note_off_c, 0, 72, 62
1, 156721, Control_c, 0, 64, 75
1, 156727, Note_off_c, 0, 55, 62
1, 156733, Note_off_c, 0, 52, 69
1, 156735, Control_c, 0, 64, 127
1, 156737, Note_off_c, 0, 76, 65
1, 156743, Note_off_c, 0, 67, 65
1, 156769, Note_off_c, 0, 79, 60
1, 156843, Note_on_c, 0, 55, 75
1, 156845, Note_on_c, 0, 60, 71
1, 156849, Note_on_c, 0, 52, 61
1, 156855, Control_c, 0, 64, 95
1, 156861, Note_off_c, 0, 55, 71
1, 156867, Note_off_c, 0, 60, 72
1, 156870, Control_c, 0, 64, 64
1, 156872, Note_off_c, 0, 52, 61
1, 156873, Note_on_c, 0, 48, 34
1, 156885, Control_c, 0, 64, 55
1, 156899, Note_on_c, 0, 60, 87
1, 156901, Note_off_c, 0, 48, 0
1, 156901, Note_on_c, 0, 48, 15
1, 156902, Note_on_c, 0, 67, 85
1, 156903, Note_on_c, 0, 72, 81
1, 156906, Note_on_c, 0, 64, 76
1, 156906, Note_on_c, 0, 76, 80
1, 156909, Note_on_c, 0, 55, 82
1, 156911, Note_on_c, 0, 52, 66
1, 156914, Control_c, 0, 64, 64
1, 156927, Note_off_c, 0, 64, 72
1, 156927, Note_off_c, 0, 67, 71
1, 156928, Note_off_c, 0, 55, 72
1, 156929, Control_c, 0, 64, 85
1, 156930, Note_off_c, 0, 76, 70
1, 156935, Note_off_c, 0, 60, 62
1, 156938, Note_off_c, 0, 52, 68
1, 156944, Control_c, 0, 64, 127
1, 156954, Note_off_c, 0, 72, 60
1, 156960, Note_off_c, 0, 48, 63
1, 157053, Note_on_c, 0, 64, 93
1, 157058, Note_on_c, 0, 69, 78
1, 157062, Control_c, 0, 64, 71
1, 157063, Note_on_c, 0, 72, 66
1, 157067, Note_on_c, 0, 60, 64
1, 157072, Note_off_c, 0, 64, 72
1, 157077, Control_c, 0, 64, 58
1, 157079, Note_off_c, 0, 69, 73
1, 157084, Note_off_c, 0, 60, 67
1, 157092, Control_c, 0, 64, 52
1, 157096, Note_off_c, 0, 72, 0
1, 157098, Note_on_c, 0, 52, 74
1, 157100, Note_on_c, 0, 48, 69
1, 157100, Note_on_c, 0, 57, 73
1, 157104, Note_on_c, 0, 45, 73
1, 157107, Control_c, 0, 64, 57
1, 157111, Note_on_c, 0, 64, 94
1, 157113, Note_on_c, 0, 60, 86
1, 157129, Note_on_c, 0, 69, 83
1, 157129, Control_c, 0, 64, 66
1, 157132, Note_off_c, 0, 52, 66
1, 157133, Note_off_c, 0, 57, 66
1, 157138, Note_off_c, 0, 48, 67
1, 157141, Poly_aftertouch_c, 0, 72, 127
1, 157144, Control_c, 0, 64, 93
1, 157151, Note_off_c, 0, 45, 65
1, 157159, Control_c, 0, 64, 127
1, 157173, Note_off_c, 0, 60, 57
1, 157174, Note_off_c, 0, 64, 59
1, 157186, Note_off_c, 0, 69, 64
1, 157186, Poly_aftertouch_c, 0, 72, 0
1, 157264, Note_on_c, 0, 48, 89
1, 157267, Note_on_c, 0, 52, 83
1, 157270, Note_on_c, 0, 45, 74
1, 157277, Control_c, 0, 64, 83
1, 157283, Note_on_c, 0, 40, 59
1, 157283, Note_off_c, 0, 48, 74
1, 157286, Note_off_c, 0, 52, 75
1, 157292, Control_c, 0, 64, 60
1, 157296, Note_off_c, 0, 45, 67
1, 157306, Control_c, 0, 64, 47
1, 157316, Note_on_c, 0, 60, 83
1, 157317, Note_on_c, 0, 69, 83
1, 157318, Note_on_c, 0, 57, 86
1, 157321, Note_on_c, 0, 64, 75
1, 157321, Control_c, 0, 64, 45
1, 157323, Note_on_c, 0, 48, 94
1, 157323, Note_on_c, 0, 52, 96
1, 157336, Control_c, 0, 64, 55
1, 157338, Note_on_c, 0, 45, 84
1, 157345, Note_off_c, 0, 60, 62
1, 157347, Note_off_c, 0, 64, 68
1, 157350, Control_c, 0, 64, 68
1, 157354, Note_off_c, 0, 57, 63
1, 157358, Note_off_c, 0, 45, 69
1, 157359, Note_off_c, 0, 69, 61
1, 157365, Control_c, 0, 64, 127
1, 157375, Note_off_c, 0, 48, 65
1, 157378, Note_off_c, 0, 52, 65
1, 157398, Note_off_c, 0, 40, 64
1, 157476, Note_on_c, 0, 57, 76
1, 157478, Note_on_c, 0, 60, 71
1, 157481, Note_on_c, 0, 52, 77
1, 157484, Control_c, 0, 64, 74
1, 157494, Note_off_c, 0, 57, 68
1, 157497, Note_off_c, 0, 60, 74
1, 157499, Control_c, 0, 64, 63
1, 157500, Note_on_c, 0, 64, 40
1, 157508, Note_off_c, 0, 52, 67
1, 157514, Control_c, 0, 64, 62
1, 157523, Note_on_c, 0, 45, 85
1, 157527, Note_on_c, 0, 40, 77
1, 157527, Note_on_c, 0, 48, 83
1, 157529, Control_c, 0, 64, 67
1, 157535, Note_on_c, 0, 36, 71
1, 157536, Note_off_c, 0, 64, 0
1, 157536, Note_on_c, 0, 64, 73
1, 157538, Note_on_c, 0, 57, 95
1, 157539, Note_on_c, 0, 52, 91
1, 157543, Note_on_c, 0, 60, 87
1, 157544, Control_c, 0, 64, 82
1, 157550, Note_off_c, 0, 48, 70
1, 157556, Note_off_c, 0, 45, 66
1, 157559, Control_c, 0, 64, 127
1, 157568, Note_off_c, 0, 40, 66
1, 157574, Note_off_c, 0, 36, 63
1, 157594, Note_off_c, 0, 60, 60
1, 157600, Note_off_c, 0, 52, 63
1, 157603, Note_off_c, 0, 57, 57
1, 157620, Note_off_c, 0, 64, 63
1, 157703, Note_on_c, 0, 45, 86
1, 157705, Note_on_c, 0, 40, 78
1, 157714, Note_on_c, 0, 33, 71
1, 157717, Note_on_c, 0, 36, 59
1, 157723, Note_off_c, 0, 45, 72
1, 157725, Note_off_c, 0, 40, 73
1, 157736, Note_off_c, 0, 33, 64
1, 157767, Note_off_c, 0, 36, 0
1, 157773, Note_on_c, 0, 45, 99
1, 157774, Note_on_c, 0, 40, 92
1, 157774, Note_on_c, 0, 52, 98
1, 157776, Note_on_c, 0, 48, 102
1, 157779, Note_on_c, 0, 60, 88
1, 157780, Note_on_c, 0, 33, 84
1, 157782, Note_on_c, 0, 57, 77
1, 157785, Note_on_c, 0, 36, 47
1, 157812, Note_on_c, 0, 38, 39
1, 157819, Note_off_c, 0, 52, 69
1, 157823, Note_off_c, 0, 48, 63
1, 157827, Note_off_c, 0, 36, 62
1, 157829, Note_off_c, 0, 40, 61
1, 157833, Note_off_c, 0, 57, 61
1, 157836, Note_off_c, 0, 60, 62
1, 157844, Note_off_c, 0, 45, 57
1, 157852, Note_off_c, 0, 38, 51
1, 157856, Note_off_c, 0, 33, 63
1, 157893, Poly_aftertouch_c, 0, 56, 0
1, 157997, Note_on_c, 0, 52, 97
1, 158000, Note_on_c, 0, 64, 98
1, 158034, Note_on_c, 0, 31, 69
1, 158044, Note_off_c, 0, 52, 67
1, 158048, Note_off_c, 0, 64, 62
1, 158100, Control_c, 0, 64, 76
1, 158108, Note_on_c, 0, 38, 81
1, 158115, Control_c, 0, 64, 50
1, 158128, Note_on_c, 0, 43, 95
1, 158129, Control_c, 0, 64, 25
1, 158131, Note_on_c, 0, 59, 94
1, 158131, Note_on_c, 0, 67, 96
1, 158131, Note_on_c, 0, 53, 100
1, 158144, Control_c, 0, 64, 34
1, 158157, Note_off_c, 0, 38, 66
1, 158159, Control_c, 0, 64, 51
1, 158162, Note_off_c, 0, 31, 65
1, 158167, Note_off_c, 0, 53, 66
1, 158170, Note_off_c, 0, 59, 67
1, 158173, Control_c, 0, 64, 67
1, 158179, Note_off_c, 0, 43, 62
1, 158180, Note_off_c, 0, 67, 68
1, 158188, Control_c, 0, 64, 127
1, 158331, Note_on_c, 0, 53, 80
1, 158338, Note_on_c, 0, 59, 69
1, 158340, Note_on_c, 0, 47, 63
1, 158340, Note_on_c, 0, 50, 68
1, 158348, Note_on_c, 0, 62, 58
1, 158353, Note_off_c, 0, 53, 72
1, 158356, Note_on_c, 0, 43, 44
1, 158357, Note_off_c, 0, 59, 69
1, 158364, Note_off_c, 0, 50, 61
1, 158367, Note_off_c, 0, 47, 59
1, 158369, Note_off_c, 0, 62, 62
1, 158390, Note_off_c, 0, 43, 0
1, 158401, Note_on_c, 0, 59, 94
1, 158405, Note_on_c, 0, 50, 97
1, 158406, Note_on_c, 0, 53, 87
1, 158408, Note_on_c, 0, 43, 63
1, 158408, Note_on_c, 0, 47, 82
1, 158408, Note_on_c, 0, 62, 80
1, 158411, Control_c, 0, 64, 75
1, 158426, Control_c, 0, 64, 61
1, 158436, Note_off_c, 0, 50, 57
1, 158436, Note_off_c, 0, 53, 64
1, 158438, Note_off_c, 0, 62, 63
1, 158438, Note_off_c, 0, 47, 66
1, 158441, Note_off_c, 0, 59, 65
1, 158441, Control_c, 0, 64, 43
1, 158449, Note_off_c, 0, 43, 63
1, 158456, Control_c, 0, 64, 17
1, 158471, Control_c, 0, 64, 0
1, 158530, Control_c, 0, 64, 8
1, 158535, Note_on_c, 0, 58, 94
1, 158538, Note_on_c, 0, 61, 88
1, 158539, Note_on_c, 0, 49, 87
1, 158541, Note_on_c, 0, 46, 76
1, 158545, Control_c, 0, 64, 11
1, 158551, Note_on_c, 0, 53, 64
1, 158557, Note_on_c, 0, 52, 55
1, 158560, Control_c, 0, 64, 14
1, 158575, Control_c, 0, 64, 21
1, 158575, Note_off_c, 0, 58, 66
1, 158576, Note_off_c, 0, 53, 61
1, 158580, Note_off_c, 0, 49, 66
1, 158581, Note_off_c, 0, 52, 61
1, 158581, Note_off_c, 0, 61, 64
1, 158588, Note_off_c, 0, 46, 66
1, 158590, Control_c, 0, 64, 27
1, 158604, Control_c, 0, 64, 31
1, 158626, Control_c, 0, 64, 32
1, 158662, Note_on_c, 0, 53, 82
1, 158663, Note_on_c, 0, 59, 85
1, 158665, Note_on_c, 0, 47, 71
1, 158665, Note_on_c, 0, 50, 77
1, 158665, Note_on_c, 0, 62, 83
1, 158669, Note_on_c, 0, 43, 54
1, 158685, Control_c, 0, 64, 31
1, 158693, Note_off_c, 0, 50, 67
1, 158698, Note_off_c, 0, 53, 66
1, 158700, Note_off_c, 0, 62, 62
1, 158700, Control_c, 0, 64, 31
1, 158701, Note_off_c, 0, 43, 62
1, 158702, Note_off_c, 0, 59, 63
1, 158703, Note_off_c, 0, 47, 64
1, 158715, Control_c, 0, 64, 27
1, 158730, Control_c, 0, 64, 21
1, 158745, Control_c, 0, 64, 9
1, 158760, Control_c, 0, 64, 0
1, 158770, Note_on_c, 0, 59, 77
1, 158772, Note_on_c, 0, 53, 78
1, 158772, Note_on_c, 0, 63, 84
1, 158774, Note_on_c, 0, 51, 89
1, 158783, Note_on_c, 0, 47, 70
1, 158795, Note_off_c, 0, 53, 70
1, 158806, Note_off_c, 0, 59, 64
1, 158817, Note_off_c, 0, 51, 64
1, 158818, Note_off_c, 0, 63, 66
1, 158828, Note_off_c, 0, 47, 66
1, 158888, Note_on_c, 0, 48, 86
1, 158891, Note_on_c, 0, 52, 102
1, 158900, Note_on_c, 0, 64, 82
1, 158906, Note_on_c, 0, 60, 84
1, 158908, Note_on_c, 0, 46, 78
1, 158908, Control_c, 0, 64, 50
1, 158921, Note_off_c, 0, 52, 73
1, 158922, Control_c, 0, 64, 71
1, 158927, Note_off_c, 0, 46, 67
1, 158933, Note_off_c, 0, 48, 66
1, 158937, Control_c, 0, 64, 127
1, 158957, Note_off_c, 0, 64, 60
1, 158971, Note_on_c, 0, 55, 81
1, 158981, Note_off_c, 0, 60, 60
1, 159018, Note_off_c, 0, 55, 63
1, 159021, Note_on_c, 0, 52, 76
1, 159075, Note_off_c, 0, 52, 66
1, 159090, Note_on_c, 0, 55, 73
1, 159112, Note_off_c, 0, 55, 72
1, 159118, Note_on_c, 0, 60, 75
1, 159138, Note_off_c, 0, 60, 74
1, 159186, Note_on_c, 0, 64, 83
1, 159244, Note_on_c, 0, 67, 82
1, 159244, Note_off_c, 0, 64, 61
1, 159292, Note_on_c, 0, 43, 94
1, 159293, Note_on_c, 0, 48, 99
1, 159296, Note_on_c, 0, 36, 88
1, 159297, Note_on_c, 0, 72, 87
1, 159299, Note_on_c, 0, 40, 88
1, 159303, Note_off_c, 0, 67, 66
1, 159320, Note_off_c, 0, 48, 67
1, 159326, Note_off_c, 0, 36, 68
1, 159326, Note_off_c, 0, 40, 69
1, 159329, Note_off_c, 0, 43, 64
1, 159332, Note_off_c, 0, 72, 66
1, 159386, Note_on_c, 0, 76, 86
1, 159411, Poly_aftertouch_c, 0, 39, 0
1, 159441, Note_off_c, 0, 76, 64
1, 159460, Note_on_c, 0, 79, 79
1, 159461, Note_on_c, 0, 81, 81
1, 159511, Note_off_c, 0, 79, 63
1, 159516, Note_off_c, 0, 81, 67
1, 159523, Note_on_c, 0, 84, 68
1, 159523, Note_on_c, 0, 86, 73
1, 159544, Note_off_c, 0, 86, 66
1, 159549, Note_off_c, 0, 84, 67
1, 159599, Note_on_c, 0, 88, 75
1, 159616, Note_on_c, 0, 89, 64
1, 159634, Note_off_c, 0, 89, 64
1, 159646, Note_on_c, 0, 91, 90
1, 159660, Note_off_c, 0, 88, 59
1, 159680, Note_on_c, 0, 96, 84
1, 159687, Control_c, 0, 64, 68
1, 159696, Note_off_c, 0, 91, 64
1, 159702, Control_c, 0, 64, 46
1, 159717, Control_c, 0, 64, 35
1, 159729, Note_on_c, 0, 91, 74
1, 159731, Note_on_c, 0, 84, 99
1, 159732, Control_c, 0, 64, 47
1, 159732, Note_on_c, 0, 79, 93
1, 159734, Note_on_c, 0, 101, 78
1, 159735, Note_on_c, 0, 88, 88
1, 159738, Note_on_c, 0, 76, 83
1, 159738, Note_on_c, 0, 100, 77
1, 159739, Note_on_c, 0, 72, 80
1, 159746, Control_c, 0, 64, 60
1, 159750, Note_off_c, 0, 91, 67
1, 159752, Note_off_c, 0, 88, 73
1, 159753, Note_on_c, 0, 93, 50
1, 159753, Note_off_c, 0, 101, 67
1, 159756, Note_off_c, 0, 84, 63
1, 159758, Note_off_c, 0, 100, 72
1, 159760, Note_off_c, 0, 96, 63
1, 159761, Control_c, 0, 64, 79
1, 159769, Note_off_c, 0, 79, 65
1, 159776, Note_off_c, 0, 76, 68
1, 159776, Control_c, 0, 64, 127
1, 159783, Note_off_c, 0, 93, 37
1, 159785, Note_off_c, 0, 72, 60
1, 159908, Note_on_c, 0, 76, 78
1, 159909, Control_c, 0, 64, 79
1, 159911, Note_on_c, 0, 79, 76
1, 159914, Note_on_c, 0, 72, 69
1, 159924, Control_c, 0, 64, 68
1, 159927, Note_off_c, 0, 76, 73
1, 159930, Note_off_c, 0, 79, 69
1, 159932, Note_on_c, 0, 67, 52
1, 159939, Control_c, 0, 64, 70
1, 159945, Note_off_c, 0, 72, 60
1, 159955, Control_c, 0, 64, 82
1, 159964, Note_on_c, 0, 88, 83
1, 159966, Note_off_c, 0, 67, 0
1, 159966, Note_on_c, 0, 67, 36
1, 159967, Note_on_c, 0, 91, 81
1, 159967, Note_on_c, 0, 96, 83
1, 159969, Control_c, 0, 64, 127
1, 159970, Note_on_c, 0, 79, 99
1, 159970, Note_on_c, 0, 84, 83
1, 159976, Note_on_c, 0, 72, 66
1, 159977, Note_on_c, 0, 76, 83
1, 159987, Note_off_c, 0, 88, 68
1, 159991, Note_off_c, 0, 91, 62
1, 159994, Note_off_c, 0, 96, 58
1, 159995, Note_off_c, 0, 76, 73
1, 159996, Note_off_c, 0, 84, 62
1, 160001, Note_off_c, 0, 72, 67
1, 160003, Note_off_c, 0, 79, 50
1, 160026, Note_off_c, 0, 67, 65
1, 160125, Control_c, 0, 64, 78
1, 160140, Control_c, 0, 64, 62
1, 160144, Note_on_c, 0, 79, 73
1, 160145, Note_on_c, 0, 84, 70
1, 160149, Note_on_c, 0, 88, 63
1, 160155, Control_c, 0, 64, 54
1, 160161, Note_off_c, 0, 79, 69
1, 160161, Note_off_c, 0, 84, 66
1, 160167, Note_off_c, 0, 88, 65
1, 160173, Note_on_c, 0, 72, 75
1, 160174, Note_on_c, 0, 67, 73
1, 160176, Note_on_c, 0, 76, 74
1, 160179, Note_on_c, 0, 64, 71
1, 160185, Control_c, 0, 64, 59
1, 160185, Note_on_c, 0, 91, 68
1, 160196, Note_on_c, 0, 79, 91
1, 160198, Note_on_c, 0, 88, 80
1, 160200, Control_c, 0, 64, 66
1, 160201, Note_on_c, 0, 84, 86
1, 160203, Note_off_c, 0, 76, 69
1, 160215, Note_off_c, 0, 67, 64
1, 160215, Note_off_c, 0, 72, 62
1, 160215, Control_c, 0, 64, 90
1, 160228, Note_off_c, 0, 64, 63
1, 160230, Control_c, 0, 64, 127
1, 160241, Note_off_c, 0, 88, 61
1, 160244, Note_off_c, 0, 84, 56
1, 160245, Note_off_c, 0, 79, 58
1, 160256, Note_off_c, 0, 91, 60
1, 160346, Note_on_c, 0, 67, 71
1, 160348, Note_on_c, 0, 72, 70
1, 160348, Control_c, 0, 64, 97
1, 160349, Note_on_c, 0, 64, 65
1, 160363, Control_c, 0, 64, 65
1, 160364, Note_off_c, 0, 72, 68
1, 160368, Note_off_c, 0, 64, 64
1, 160368, Note_off_c, 0, 67, 65
1, 160377, Control_c, 0, 64, 55
1, 160392, Control_c, 0, 64, 52
1, 160397, Note_on_c, 0, 60, 68
1, 160397, Note_on_c, 0, 76, 86
1, 160397, Note_on_c, 0, 79, 86
1, 160400, Note_on_c, 0, 84, 85
1, 160401, Note_on_c, 0, 88, 82
1, 160403, Note_on_c, 0, 72, 91
1, 160406, Note_on_c, 0, 67, 75
1, 160407, Control_c, 0, 64, 58
1, 160408, Note_on_c, 0, 64, 73
1, 160418, Note_off_c, 0, 79, 69
1, 160419, Note_off_c, 0, 76, 67
1, 160422, Control_c, 0, 64, 71
1, 160425, Note_off_c, 0, 72, 65
1, 160427, Note_off_c, 0, 88, 63
1, 160428, Note_off_c, 0, 67, 72
1, 160430, Note_off_c, 0, 84, 59
1, 160435, Note_off_c, 0, 64, 66
1, 160437, Control_c, 0, 64, 127
1, 160460, Note_off_c, 0, 60, 64
1, 160539, Note_on_c, 0, 76, 89
1, 160544, Note_on_c, 0, 81, 76
1, 160551, Note_on_c, 0, 72, 66
1, 160555, Control_c, 0, 64, 69
1, 160557, Note_off_c, 0, 76, 74
1, 160560, Note_off_c, 0, 81, 72
1, 160569, Note_off_c, 0, 72, 63
1, 160569, Control_c, 0, 64, 55
1, 160584, Note_on_c, 0, 84, 20
1, 160584, Control_c, 0, 64, 47
1, 160593, Note_on_c, 0, 72, 75
1, 160593, Note_on_c, 0, 69, 71
1, 160593, Note_on_c, 0, 76, 98
1, 160599, Note_on_c, 0, 64, 71
1, 160599, Control_c, 0, 64, 53
1, 160600, Note_on_c, 0, 57, 68
1, 160602, Note_on_c, 0, 81, 86
1, 160604, Note_on_c, 0, 60, 44
1, 160614, Control_c, 0, 64, 65
1, 160618, Note_off_c, 0, 69, 70
1, 160626, Note_on_c, 0, 62, 48
1, 160627, Note_off_c, 0, 60, 62
1, 160628, Note_off_c, 0, 64, 66
1, 160629, Control_c, 0, 64, 127
1, 160643, Note_off_c, 0, 76, 65
1, 160650, Note_off_c, 0, 57, 62
1, 160654, Note_off_c, 0, 62, 59
1, 160656, Note_off_c, 0, 72, 60
1, 160662, Note_off_c, 0, 84, 63
1, 160669, Note_off_c, 0, 81, 62
1, 160748, Note_on_c, 0, 60, 75
1, 160748, Control_c, 0, 64, 100
1, 160753, Note_on_c, 0, 57, 74
1, 160760, Note_on_c, 0, 65, 68
1, 160763, Control_c, 0, 64, 63
1, 160766, Note_on_c, 0, 64, 63
1, 160773, Note_off_c, 0, 60, 69
1, 160774, Note_off_c, 0, 57, 70
1, 160778, Note_off_c, 0, 65, 68
1, 160778, Control_c, 0, 64, 54
1, 160785, Note_off_c, 0, 64, 63
1, 160793, Control_c, 0, 64, 56
1, 160796, Note_on_c, 0, 72, 87
1, 160796, Note_on_c, 0, 52, 43
1, 160798, Note_on_c, 0, 69, 94
1, 160798, Note_on_c, 0, 81, 85
1, 160803, Note_on_c, 0, 76, 72
1, 160808, Control_c, 0, 64, 64
1, 160811, Note_on_c, 0, 64, 85
1, 160814, Note_on_c, 0, 60, 93
1, 160821, Note_on_c, 0, 57, 73
1, 160823, Control_c, 0, 64, 89
1, 160825, Note_off_c, 0, 76, 71
1, 160834, Note_off_c, 0, 69, 57
1, 160838, Control_c, 0, 64, 127
1, 160838, Note_off_c, 0, 72, 60
1, 160838, Note_off_c, 0, 81, 60
1, 160840, Note_off_c, 0, 57, 64
1, 160856, Note_off_c, 0, 64, 62
1, 160858, Note_off_c, 0, 60, 63
1, 160892, Note_off_c, 0, 52, 65
1, 160966, Note_on_c, 0, 72, 75
1, 160968, Note_on_c, 0, 64, 83
1, 160969, Note_on_c, 0, 69, 71
1, 160978, Control_c, 0, 64, 94
1, 160984, Note_off_c, 0, 69, 71
1, 160985, Note_off_c, 0, 64, 73
1, 160988, Note_off_c, 0, 72, 69
1, 160992, Note_on_c, 0, 76, 42
1, 160993, Control_c, 0, 64, 60
1, 161008, Control_c, 0, 64, 47
1, 161021, Note_off_c, 0, 76, 0
1, 161021, Note_on_c, 0, 76, 47
1, 161022, Control_c, 0, 64, 53
1, 161024, Note_on_c, 0, 57, 73
1, 161025, Note_on_c, 0, 52, 87
1, 161025, Note_on_c, 0, 60, 93
1, 161025, Note_on_c, 0, 64, 94
1, 161025, Note_on_c, 0, 69, 98
1, 161031, Note_on_c, 0, 72, 70
1, 161036, Note_on_c, 0, 48, 77
1, 161037, Control_c, 0, 64, 65
1, 161052, Control_c, 0, 64, 100
1, 161058, Note_off_c, 0, 60, 54
1, 161065, Note_off_c, 0, 57, 62
1, 161067, Control_c, 0, 64, 127
1, 161073, Note_off_c, 0, 52, 66
1, 161079, Note_off_c, 0, 48, 62
1, 161092, Note_off_c, 0, 72, 62
1, 161102, Note_off_c, 0, 64, 59
1, 161104, Note_off_c, 0, 69, 62
1, 161111, Note_off_c, 0, 76, 65
1, 161219, Note_on_c, 0, 57, 84
1, 161220, Note_on_c, 0, 52, 84
1, 161229, Note_on_c, 0, 45, 69
1, 161229, Note_on_c, 0, 48, 67
1, 161238, Note_off_c, 0, 57, 69
1, 161239, Note_off_c, 0, 52, 75
1, 161255, Note_off_c, 0, 48, 66
1, 161259, Note_off_c, 0, 45, 64
1, 161259, Control_c, 0, 64, 61
1, 161272, Note_on_c, 0, 64, 93
1, 161273, Control_c, 0, 64, 30
1, 161274, Note_on_c, 0, 60, 91
1, 161277, Note_on_c, 0, 72, 86
1, 161281, Note_on_c, 0, 57, 92
1, 161282, Note_on_c, 0, 69, 73
1, 161288, Control_c, 0, 64, 25
1, 161291, Note_on_c, 0, 52, 83
1, 161303, Note_on_c, 0, 48, 67
1, 161303, Control_c, 0, 64, 44
1, 161314, Poly_aftertouch_c, 0, 45, 127
1, 161318, Control_c, 0, 64, 60
1, 161319, Note_on_c, 0, 51, 49
1, 161320, Note_off_c, 0, 51, 127
1, 161322, Note_off_c, 0, 57, 60
1, 161330, Note_off_c, 0, 48, 68
1, 161333, Control_c, 0, 64, 110
1, 161335, Note_off_c, 0, 52, 63
1, 161340, Note_off_c, 0, 60, 63
1, 161341, Poly_aftertouch_c, 0, 45, 0
1, 161347, Control_c, 0, 64, 127
1, 161350, Poly_aftertouch_c, 0, 51, 0
1, 161353, Note_off_c, 0, 64, 63
1, 161370, Note_on_c, 0, 68, 18
1, 161377, Note_off_c, 0, 69, 66
1, 161388, Note_off_c, 0, 72, 66
1, 161413, Note_off_c, 0, 68, 50
1, 161525, Note_on_c, 0, 40, 72
1, 161556, Note_on_c, 0, 44, 64
1, 161596, Note_on_c, 0, 47, 72
1, 161601, Control_c, 0, 64, 52
1, 161622, Control_c, 0, 64, 0
1, 161634, Note_on_c, 0, 92, 100
1, 161636, Note_on_c, 0, 80, 99
1, 161637, Note_on_c, 0, 83, 97
1, 161640, Note_on_c, 0, 52, 96
1, 161667, Control_c, 0, 64, 25
1, 161669, Note_off_c, 0, 40, 65
1, 161669, Note_off_c, 0, 83, 70
1, 161671, Note_on_c, 0, 90, 52
1, 161673, Note_off_c, 0, 92, 70
1, 161674, Note_off_c, 0, 47, 63
1, 161675, Note_off_c, 0, 44, 62
1, 161679, Note_off_c, 0, 52, 70
1, 161679, Note_off_c, 0, 80, 60
1, 161682, Control_c, 0, 64, 47
1, 161696, Control_c, 0, 64, 69
1, 161699, Note_off_c, 0, 90, 36
1, 161711, Control_c, 0, 64, 127
1, 161830, Note_on_c, 0, 71, 83
1, 161833, Note_on_c, 0, 83, 83
1, 161836, Note_on_c, 0, 59, 74
1, 161844, Note_on_c, 0, 47, 69
1, 161849, Note_off_c, 0, 71, 75
1, 161853, Note_off_c, 0, 83, 72
1, 161859, Note_off_c, 0, 59, 68
1, 161865, Note_off_c, 0, 47, 67
1, 161898, Note_on_c, 0, 71, 91
1, 161900, Note_on_c, 0, 83, 92
1, 161904, Note_on_c, 0, 47, 80
1, 161904, Note_on_c, 0, 59, 84
1, 161918, Note_off_c, 0, 83, 73
1, 161919, Note_off_c, 0, 71, 73
1, 161921, Note_on_c, 0, 49, 26
1, 161923, Note_off_c, 0, 59, 72
1, 161926, Note_off_c, 0, 47, 69
1, 161958, Note_off_c, 0, 49, 53
1, 162026, Note_on_c, 0, 82, 90
1, 162027, Note_on_c, 0, 70, 93
1, 162028, Note_on_c, 0, 46, 88
1, 162029, Note_on_c, 0, 58, 85
1, 162047, Note_off_c, 0, 70, 67
1, 162051, Note_off_c, 0, 58, 70
1, 162051, Note_off_c, 0, 82, 60
1, 162052, Control_c, 0, 64, 73
1, 162057, Note_off_c, 0, 46, 63
1, 162067, Control_c, 0, 64, 48
1, 162082, Control_c, 0, 64, 0
1, 162144, Note_on_c, 0, 59, 80
1, 162146, Note_on_c, 0, 47, 85
1, 162152, Note_on_c, 0, 71, 70
1, 162154, Note_on_c, 0, 83, 76
1, 162163, Note_off_c, 0, 59, 67
1, 162167, Note_off_c, 0, 71, 71
1, 162169, Note_off_c, 0, 47, 71
1, 162170, Note_on_c, 0, 81, 56
1, 162176, Note_off_c, 0, 83, 72
1, 162192, Note_off_c, 0, 81, 39
1, 162265, Note_on_c, 0, 52, 81
1, 162265, Note_on_c, 0, 64, 67
1, 162265, Note_on_c, 0, 76, 82
1, 162265, Note_on_c, 0, 88, 86
1, 162282, Note_off_c, 0, 88, 73
1, 162283, Note_off_c, 0, 64, 64
1, 162283, Note_off_c, 0, 76, 75
1, 162286, Note_on_c, 0, 54, 44
1, 162287, Note_off_c, 0, 54, 127
1, 162287, Note_off_c, 0, 52, 72
1, 162401, Control_c, 0, 64, 12
1, 162408, Note_on_c, 0, 56, 90
1, 162408, Note_on_c, 0, 92, 90
1, 162413, Note_on_c, 0, 83, 79
1, 162414, Note_on_c, 0, 80, 81
1, 162415, Note_on_c, 0, 44, 76
1, 162416, Control_c, 0, 64, 41
1, 162427, Note_off_c, 0, 56, 72
1, 162431, Control_c, 0, 64, 56
1, 162432, Note_off_c, 0, 83, 72
1, 162434, Note_off_c, 0, 80, 70
1, 162435, Note_on_c, 0, 51, 38
1, 162438, Note_off_c, 0, 44, 64
1, 162439, Note_off_c, 0, 92, 63
1, 162445, Control_c, 0, 64, 71
1, 162460, Control_c, 0, 64, 94
1, 162464, Note_off_c, 0, 51, 56
1, 162475, Control_c, 0, 64, 98
1, 162490, Control_c, 0, 64, 98
1, 162505, Control_c, 0, 64, 100
1, 162519, Control_c, 0, 64, 104
1, 162534, Control_c, 0, 64, 115
1, 162549, Control_c, 0, 64, 127
1, 162570, Note_on_c, 0, 87, 83
1, 162572, Note_on_c, 0, 51, 72
1, 162572, Note_on_c, 0, 75, 85
1, 162575, Note_on_c, 0, 63, 82
1, 162588, Note_off_c, 0, 87, 73
1, 162591, Note_off_c, 0, 75, 70
1, 162595, Note_off_c, 0, 63, 72
1, 162607, Note_off_c, 0, 51, 62
1, 162631, Note_on_c, 0, 87, 93
1, 162635, Note_on_c, 0, 75, 86
1, 162636, Note_on_c, 0, 63, 91
1, 162647, Note_on_c, 0, 54, 32
1, 162661, Note_off_c, 0, 63, 63
1, 162669, Note_off_c, 0, 75, 60
1, 162673, Note_off_c, 0, 87, 65
1, 162682, Poly_aftertouch_c, 0, 51, 0
1, 162687, Note_off_c, 0, 54, 44
1, 162763, Note_on_c, 0, 86, 96
1, 162764, Note_on_c, 0, 74, 87
1, 162770, Note_on_c, 0, 62, 87
1, 162772, Control_c, 0, 64, 108
1, 162775, Note_on_c, 0, 50, 78
1, 162786, Note_off_c, 0, 74, 70
1, 162787, Control_c, 0, 64, 64
1, 162789, Note_off_c, 0, 62, 72
1, 162795, Note_off_c, 0, 86, 59
1, 162799, Note_off_c, 0, 50, 67
1, 162802, Control_c, 0, 64, 38
1, 162817, Control_c, 0, 64, 0
1, 162888, Note_on_c, 0, 63, 85
1, 162888, Note_on_c, 0, 87, 94
1, 162889, Note_on_c, 0, 75, 91
1, 162889, Note_on_c, 0, 51, 63
1, 162908, Note_off_c, 0, 63, 70
1, 162908, Note_off_c, 0, 75, 67
1, 162909, Note_off_c, 0, 87, 65
1, 162918, Note_off_c, 0, 51, 67
1, 163001, Note_on_c, 0, 87, 98
1, 163002, Note_on_c, 0, 63, 64
1, 163004, Note_on_c, 0, 75, 81
1, 163005, Note_on_c, 0, 51, 70
1, 163021, Note_off_c, 0, 63, 63
1, 163022, Note_off_c, 0, 87, 64
1, 163023, Note_off_c, 0, 75, 69
1, 163025, Note_off_c, 0, 51, 64
1, 163134, Note_on_c, 0, 42, 75
1, 163142, Note_on_c, 0, 91, 99
1, 163145, Note_on_c, 0, 79, 92
1, 163151, Control_c, 0, 64, 9
1, 163155, Note_on_c, 0, 51, 48
1, 163157, Note_on_c, 0, 39, 42
1, 163164, Note_off_c, 0, 79, 70
1, 163164, Note_off_c, 0, 91, 60
1, 163166, Control_c, 0, 64, 36
1, 163168, Note_off_c, 0, 42, 64
1, 163173, Note_on_c, 0, 83, 36
1, 163181, Control_c, 0, 64, 53
1, 163181, Note_off_c, 0, 51, 58
1, 163191, Note_off_c, 0, 39, 34
1, 163195, Control_c, 0, 64, 65
1, 163200, Note_off_c, 0, 83, 61
1, 163210, Control_c, 0, 64, 79
1, 163225, Control_c, 0, 64, 83
1, 163285, Control_c, 0, 64, 85
1, 163300, Control_c, 0, 64, 89
1, 163312, Note_on_c, 0, 58, 85
1, 163315, Control_c, 0, 64, 98
1, 163316, Note_on_c, 0, 46, 76
1, 163321, Note_on_c, 0, 70, 83
1, 163324, Note_on_c, 0, 82, 77
1, 163329, Control_c, 0, 64, 122
1, 163331, Note_off_c, 0, 58, 71
1, 163337, Note_off_c, 0, 46, 61
1, 163338, Note_off_c, 0, 70, 73
1, 163344, Control_c, 0, 64, 127
1, 163345, Note_off_c, 0, 82, 71
1, 163345, Note_on_c, 0, 49, 30
1, 163347, Note_on_c, 0, 78, 41
1, 163348, Note_off_c, 0, 78, 127
1, 163376, Note_off_c, 0, 49, 0
1, 163383, Note_on_c, 0, 70, 102
1, 163385, Note_on_c, 0, 58, 93
1, 163391, Note_on_c, 0, 82, 82
1, 163393, Note_on_c, 0, 46, 87
1, 163404, Note_off_c, 0, 70, 59
1, 163410, Note_on_c, 0, 81, 54
1, 163412, Note_off_c, 0, 58, 66
1, 163418, Note_off_c, 0, 82, 63
1, 163423, Note_off_c, 0, 46, 62
1, 163431, Note_off_c, 0, 81, 62
1, 163443, Poly_aftertouch_c, 0, 49, 0
1, 163512, Note_on_c, 0, 57, 92
1, 163514, Note_on_c, 0, 81, 86
1, 163517, Note_on_c, 0, 45, 81
1, 163519, Note_on_c, 0, 69, 85
1, 163521, Control_c, 0, 64, 71
1, 163533, Note_off_c, 0, 57, 69
1, 163536, Note_off_c, 0, 69, 76
1, 163536, Control_c, 0, 64, 49
1, 163540, Note_off_c, 0, 45, 68
1, 163543, Note_off_c, 0, 81, 64
1, 163548, Note_on_c, 0, 46, 26
1, 163551, Control_c, 0, 64, 0
1, 163568, Note_off_c, 0, 46, 36
1, 163631, Note_on_c, 0, 46, 71
1, 163631, Note_on_c, 0, 58, 80
1, 163634, Note_on_c, 0, 82, 88
1, 163635, Note_on_c, 0, 70, 81
1, 163651, Note_off_c, 0, 82, 74
1, 163653, Note_off_c, 0, 58, 71
1, 163655, Note_off_c, 0, 70, 71
1, 163658, Note_off_c, 0, 46, 67
1, 163739, Note_on_c, 0, 87, 102
1, 163740, Note_on_c, 0, 75, 93
1, 163747, Note_on_c, 0, 51, 75
1, 163748, Note_on_c, 0, 63, 69
1, 163759, Note_off_c, 0, 75, 72
1, 163766, Note_off_c, 0, 63, 66
1, 163768, Note_off_c, 0, 87, 67
1, 163774, Note_off_c, 0, 51, 69
1, 163884, Control_c, 0, 64, 22
1, 163887, Note_on_c, 0, 91, 97
1, 163888, Note_on_c, 0, 82, 91
1, 163890, Note_on_c, 0, 79, 84
1, 163896, Note_on_c, 0, 43, 81
1, 163897, Note_on_c, 0, 55, 76
1, 163899, Note_on_c, 0, 50, 64
1, 163899, Control_c, 0, 64, 40
1, 163905, Note_off_c, 0, 82, 74
1, 163909, Note_off_c, 0, 79, 71
1, 163914, Control_c, 0, 64, 55
1, 163916, Note_off_c, 0, 91, 59
1, 163919, Note_off_c, 0, 50, 62
1, 163920, Note_off_c, 0, 43, 65
1, 163920, Note_off_c, 0, 55, 70
1, 163929, Control_c, 0, 64, 66
1, 163944, Control_c, 0, 64, 77
1, 163959, Control_c, 0, 64, 79
1, 164033, Control_c, 0, 64, 79
1, 164048, Control_c, 0, 64, 80
1, 164057, Note_on_c, 0, 74, 78
1, 164061, Note_on_c, 0, 86, 79
1, 164063, Note_on_c, 0, 62, 73
1, 164063, Control_c, 0, 64, 81
1, 164064, Note_on_c, 0, 50, 68
1, 164076, Note_off_c, 0, 74, 74
1, 164078, Control_c, 0, 64, 82
1, 164080, Note_off_c, 0, 62, 68
1, 164081, Note_off_c, 0, 86, 70
1, 164083, Note_off_c, 0, 50, 67
1, 164093, Control_c, 0, 64, 83
1, 164108, Control_c, 0, 64, 86
1, 164123, Control_c, 0, 64, 91
1, 164126, Note_on_c, 0, 74, 88
1, 164129, Note_on_c, 0, 62, 85
1, 164129, Note_on_c, 0, 86, 90
1, 164131, Note_on_c, 0, 50, 81
1, 164138, Control_c, 0, 64, 98
1, 164147, Note_off_c, 0, 62, 73
1, 164147, Note_off_c, 0, 86, 68
1, 164152, Control_c, 0, 64, 107
1, 164152, Note_off_c, 0, 50, 67
1, 164154, Note_off_c, 0, 74, 66
1, 164167, Control_c, 0, 64, 113
1, 164226, Control_c, 0, 64, 109
1, 164241, Control_c, 0, 64, 88
1, 164256, Control_c, 0, 64, 67
1, 164258, Note_on_c, 0, 85, 91
1, 164260, Note_on_c, 0, 61, 81
1, 164263, Note_on_c, 0, 49, 77
1, 164264, Note_on_c, 0, 73, 83
1, 164271, Control_c, 0, 64, 47
1, 164280, Note_off_c, 0, 61, 72
1, 164282, Note_off_c, 0, 73, 72
1, 164282, Note_off_c, 0, 85, 60
1, 164286, Control_c, 0, 64, 0
1, 164290, Note_off_c, 0, 49, 69
1, 164385, Note_on_c, 0, 86, 91
1, 164386, Note_on_c, 0, 74, 81
1, 164389, Note_on_c, 0, 62, 67
1, 164394, Note_on_c, 0, 50, 61
1, 164403, Note_off_c, 0, 74, 75
1, 164404, Note_off_c, 0, 86, 68
1, 164410, Note_off_c, 0, 62, 66
1, 164417, Note_off_c, 0, 50, 63
1, 164503, Note_on_c, 0, 50, 67
1, 164505, Note_on_c, 0, 62, 44
1, 164510, Note_on_c, 0, 74, 67
1, 164513, Note_on_c, 0, 86, 76
1, 164528, Note_off_c, 0, 74, 70
1, 164528, Note_off_c, 0, 50, 66
1, 164533, Note_off_c, 0, 62, 55
1, 164536, Note_off_c, 0, 86, 69
1, 164648, Control_c, 0, 64, 26
1, 164649, Note_on_c, 0, 81, 61
1, 164650, Note_on_c, 0, 90, 77
1, 164655, Note_on_c, 0, 78, 68
1, 164659, Note_on_c, 0, 50, 71
1, 164663, Control_c, 0, 64, 55
1, 164671, Note_off_c, 0, 78, 69
1, 164671, Note_off_c, 0, 90, 70
1, 164673, Note_off_c, 0, 81, 67
1, 164678, Control_c, 0, 64, 82
1, 164686, Note_off_c, 0, 50, 66
1, 164692, Control_c, 0, 64, 127
1, 164719, Poly_aftertouch_c, 0, 38, 127
1, 164737, Control_c, 0, 64, 81
1, 164753, Control_c, 0, 64, 59
1, 164765, Poly_aftertouch_c, 0, 38, 0
1, 164767, Control_c, 0, 64, 37
1, 164782, Control_c, 0, 64, 0
1, 164792, Note_on_c, 0, 69, 79
1, 164793, Note_on_c, 0, 81, 78
1, 164795, Note_on_c, 0, 78, 66
1, 164796, Note_on_c, 0, 57, 61
1, 164802, Note_on_c, 0, 50, 57
1, 164802, Note_on_c, 0, 54, 57
1, 164810, Note_off_c, 0, 69, 74
1, 164813, Note_off_c, 0, 81, 72
1, 164814, Note_off_c, 0, 78, 69
1, 164826, Note_off_c, 0, 50, 61
1, 164826, Note_off_c, 0, 57, 64
1, 164831, Note_off_c, 0, 54, 64
1, 164901, Note_on_c, 0, 78, 80
1, 164907, Note_on_c, 0, 83, 78
1, 164909, Note_on_c, 0, 54, 73
1, 164909, Note_on_c, 0, 71, 70
1, 164917, Note_on_c, 0, 50, 54
1, 164920, Note_off_c, 0, 78, 73
1, 164921, Note_on_c, 0, 59, 54
1, 164924, Note_off_c, 0, 71, 70
1, 164927, Note_off_c, 0, 83, 71
1, 164932, Note_off_c, 0, 54, 68
1, 164942, Note_off_c, 0, 50, 54
1, 164947, Note_off_c, 0, 59, 57
1, 165020, Control_c, 0, 64, 26
1, 165021, Note_on_c, 0, 73, 80
1, 165023, Note_on_c, 0, 85, 77
1, 165025, Note_on_c, 0, 81, 80
1, 165026, Note_on_c, 0, 54, 74
1, 165035, Note_on_c, 0, 44, 67
1, 165035, Control_c, 0, 64, 59
1, 165041, Note_off_c, 0, 73, 67
1, 165044, Note_on_c, 0, 56, 69
1, 165048, Note_off_c, 0, 54, 68
1, 165048, Note_off_c, 0, 81, 67
1, 165049, Control_c, 0, 64, 127
1, 165051, Note_off_c, 0, 85, 59
1, 165063, Note_off_c, 0, 56, 67
1, 165066, Note_off_c, 0, 44, 65
1, 165109, Control_c, 0, 64, 71
1, 165123, Control_c, 0, 64, 48
1, 165137, Note_on_c, 0, 84, 89
1, 165138, Note_on_c, 0, 72, 87
1, 165138, Note_on_c, 0, 80, 83
1, 165138, Control_c, 0, 64, 0
1, 165146, Note_on_c, 0, 54, 68
1, 165148, Note_on_c, 0, 56, 63
1, 165150, Note_on_c, 0, 60, 74
1, 165155, Note_off_c, 0, 72, 71
1, 165163, Note_off_c, 0, 84, 64
1, 165174, Note_off_c, 0, 60, 70
1, 165177, Note_off_c, 0, 80, 59
1, 165178, Note_off_c, 0, 56, 65
1, 165183, Note_off_c, 0, 54, 64
1, 165197, Note_on_c, 0, 57, 16
1, 165223, Note_off_c, 0, 57, 0
1, 165240, Note_on_c, 0, 73, 90
1, 165242, Note_on_c, 0, 85, 88
1, 165247, Note_on_c, 0, 81, 79
1, 165251, Note_on_c, 0, 57, 32
1, 165252, Note_on_c, 0, 61, 78
1, 165253, Note_on_c, 0, 54, 75
1, 165258, Note_off_c, 0, 73, 71
1, 165272, Note_off_c, 0, 81, 68
1, 165276, Note_off_c, 0, 61, 71
1, 165279, Note_off_c, 0, 54, 67
1, 165279, Note_off_c, 0, 85, 67
1, 165285, Note_off_c, 0, 57, 61
1, 165381, Note_on_c, 0, 89, 90
1, 165382, Control_c, 0, 64, 30
1, 165383, Note_on_c, 0, 49, 96
1, 165390, Note_on_c, 0, 77, 73
1, 165397, Control_c, 0, 64, 53
1, 165399, Note_on_c, 0, 39, 57
1, 165399, Note_off_c, 0, 89, 73
1, 165401, Note_off_c, 0, 49, 75
1, 165402, Note_on_c, 0, 37, 54
1, 165407, Note_off_c, 0, 77, 67
1, 165412, Control_c, 0, 64, 83
1, 165426, Note_off_c, 0, 39, 41
1, 165427, Control_c, 0, 64, 127
1, 165431, Note_off_c, 0, 37, 55
1, 165500, Control_c, 0, 64, 101
1, 165510, Note_on_c, 0, 56, 87
1, 165511, Note_on_c, 0, 80, 92
1, 165514, Note_on_c, 0, 68, 93
1, 165515, Control_c, 0, 64, 60
1, 165520, Note_on_c, 0, 49, 69
1, 165530, Control_c, 0, 64, 27
1, 165530, Note_on_c, 0, 53, 52
1, 165535, Note_off_c, 0, 56, 68
1, 165535, Note_off_c, 0, 68, 65
1, 165542, Note_on_c, 0, 77, 32
1, 165545, Control_c, 0, 64, 0
1, 165550, Note_off_c, 0, 49, 65
1, 165556, Note_off_c, 0, 53, 60
1, 165559, Note_off_c, 0, 80, 60
1, 165580, Note_off_c, 0, 77, 43
1, 165616, Note_on_c, 0, 49, 75
1, 165616, Note_on_c, 0, 58, 76
1, 165619, Note_on_c, 0, 70, 87
1, 165619, Note_on_c, 0, 77, 82
1, 165621, Note_on_c, 0, 82, 88
1, 165640, Note_off_c, 0, 58, 69
1, 165640, Note_off_c, 0, 70, 69
1, 165643, Note_on_c, 0, 53, 43
1, 165649, Note_off_c, 0, 77, 59
1, 165655, Note_off_c, 0, 49, 65
1, 165664, Note_off_c, 0, 82, 64
1, 165673, Note_off_c, 0, 53, 35
1, 165723, Control_c, 0, 64, 18
1, 165735, Note_on_c, 0, 53, 86
1, 165738, Control_c, 0, 64, 50
1, 165743, Note_on_c, 0, 41, 75
1, 165744, Note_on_c, 0, 80, 86
1, 165745, Note_on_c, 0, 72, 87
1, 165745, Note_on_c, 0, 84, 91
1, 165753, Control_c, 0, 64, 76
1, 165761, Note_off_c, 0, 53, 68
1, 165762, Note_off_c, 0, 72, 72
1, 165766, Note_off_c, 0, 84, 66
1, 165768, Control_c, 0, 64, 127
1, 165769, Note_off_c, 0, 80, 62
1, 165772, Note_off_c, 0, 41, 66
1, 165812, Control_c, 0, 64, 90
1, 165827, Control_c, 0, 64, 58
1, 165842, Control_c, 0, 64, 0
1, 165859, Note_on_c, 0, 59, 80
1, 165862, Note_on_c, 0, 83, 87
1, 165863, Note_on_c, 0, 71, 84
1, 165867, Note_on_c, 0, 53, 66
1, 165868, Note_on_c, 0, 79, 71
1, 165869, Note_on_c, 0, 55, 63
1, 165882, Note_off_c, 0, 71, 73
1, 165887, Note_off_c, 0, 79, 64
1, 165889, Note_off_c, 0, 59, 61
1, 165896, Note_off_c, 0, 53, 69
1, 165898, Note_on_c, 0, 81, 39
1, 165899, Note_off_c, 0, 81, 127
1, 165900, Note_off_c, 0, 55, 67
1, 165900, Note_off_c, 0, 83, 64
1, 165978, Note_on_c, 0, 53, 70
1, 165980, Note_on_c, 0, 72, 85
1, 165980, Note_on_c, 0, 84, 86
1, 165982, Note_on_c, 0, 80, 81
1, 165985, Note_on_c, 0, 56, 59
1, 165989, Note_on_c, 0, 60, 52
1, 165997, Note_off_c, 0, 72, 70
1, 166000, Note_off_c, 0, 80, 72
1, 166004, Note_off_c, 0, 53, 69
1, 166006, Note_off_c, 0, 84, 66
1, 166013, Note_off_c, 0, 60, 60
1, 166013, Note_off_c, 0, 56, 66
1, 166129, Note_on_c, 0, 88, 93
1, 166130, Note_on_c, 0, 79, 82
1, 166130, Control_c, 0, 64, 28
1, 166131, Note_on_c, 0, 76, 81
1, 166134, Note_on_c, 0, 48, 85
1, 166145, Control_c, 0, 64, 51
1, 166147, Note_off_c, 0, 88, 70
1, 166148, Note_on_c, 0, 36, 55
1, 166149, Note_off_c, 0, 79, 71
1, 166149, Note_off_c, 0, 76, 75
1, 166156, Note_off_c, 0, 48, 69
1, 166160, Control_c, 0, 64, 69
1, 166175, Control_c, 0, 64, 127
1, 166177, Note_off_c, 0, 36, 58
1, 166279, Control_c, 0, 64, 89
1, 166294, Control_c, 0, 64, 65
1, 166296, Note_on_c, 0, 67, 85
1, 166302, Note_on_c, 0, 60, 67
1, 166303, Note_on_c, 0, 64, 70
1, 166304, Note_on_c, 0, 72, 67
1, 166306, Note_on_c, 0, 76, 67
1, 166309, Control_c, 0, 64, 42
1, 166317, Note_on_c, 0, 55, 37
1, 166318, Note_off_c, 0, 67, 71
1, 166319, Note_off_c, 0, 60, 67
1, 166320, Note_off_c, 0, 64, 66
1, 166320, Note_off_c, 0, 72, 66
1, 166321, Note_off_c, 0, 76, 68
1, 166323, Control_c, 0, 64, 0
1, 166354, Note_off_c, 0, 55, 0
1, 166354, Note_on_c, 0, 55, 54
1, 166361, Note_on_c, 0, 67, 69
1, 166365, Note_on_c, 0, 76, 84
1, 166367, Note_on_c, 0, 64, 70
1, 166370, Note_on_c, 0, 60, 72
1, 166377, Note_off_c, 0, 67, 72
1, 166382, Note_on_c, 0, 72, 55
1, 166384, Note_off_c, 0, 64, 68
1, 166386, Note_off_c, 0, 76, 69
1, 166388, Note_off_c, 0, 60, 68
1, 166394, Note_off_c, 0, 55, 67
1, 166403, Note_off_c, 0, 72, 63
1, 166502, Control_c, 0, 64, 27
1, 166513, Note_on_c, 0, 87, 97
1, 166517, Control_c, 0, 64, 44
1, 166518, Note_on_c, 0, 48, 92
1, 166519, Note_on_c, 0, 75, 91
1, 166522, Note_on_c, 0, 36, 81
1, 166522, Note_on_c, 0, 79, 83
1, 166532, Control_c, 0, 64, 61
1, 166537, Note_off_c, 0, 48, 72
1, 166538, Note_off_c, 0, 75, 68
1, 166542, Note_off_c, 0, 79, 70
1, 166543, Note_off_c, 0, 36, 65
1, 166546, Control_c, 0, 64, 86
1, 166552, Note_off_c, 0, 87, 66
1, 166561, Control_c, 0, 64, 127
1, 166680, Control_c, 0, 64, 106
1, 166688, Note_on_c, 0, 67, 83
1, 166689, Note_on_c, 0, 60, 70
1, 166692, Note_on_c, 0, 63, 81
1, 166694, Note_on_c, 0, 72, 71
1, 166695, Control_c, 0, 64, 67
1, 166696, Note_on_c, 0, 56, 30
1, 166697, Note_on_c, 0, 75, 63
1, 166708, Note_on_c, 0, 55, 57
1, 166710, Control_c, 0, 64, 46
1, 166710, Note_off_c, 0, 67, 69
1, 166711, Note_off_c, 0, 72, 68
1, 166712, Note_off_c, 0, 63, 72
1, 166713, Note_off_c, 0, 60, 70
1, 166715, Note_off_c, 0, 75, 64
1, 166725, Control_c, 0, 64, 0
1, 166747, Note_off_c, 0, 55, 0
1, 166747, Note_on_c, 0, 55, 64
1, 166749, Note_on_c, 0, 63, 82
1, 166749, Note_on_c, 0, 67, 68
1, 166757, Note_on_c, 0, 75, 76
1, 166764, Note_on_c, 0, 60, 67
1, 166767, Note_off_c, 0, 63, 69
1, 166770, Note_off_c, 0, 67, 67
1, 166771, Note_on_c, 0, 73, 51
1, 166777, Note_off_c, 0, 75, 71
1, 166779, Note_off_c, 0, 56, 30
1, 166784, Note_off_c, 0, 60, 64
1, 166785, Note_off_c, 0, 55, 66
1, 166787, Note_on_c, 0, 72, 29
1, 166797, Note_off_c, 0, 73, 37
1, 166820, Note_off_c, 0, 72, 54
1, 166910, Control_c, 0, 64, 10
1, 166919, Note_on_c, 0, 85, 92
1, 166922, Note_on_c, 0, 73, 86
1, 166925, Note_on_c, 0, 44, 96
1, 166925, Note_on_c, 0, 77, 79
1, 166925, Control_c, 0, 64, 39
1, 166937, Note_on_c, 0, 32, 63
1, 166940, Control_c, 0, 64, 55
1, 166946, Note_off_c, 0, 44, 67
1, 166946, Note_off_c, 0, 77, 70
1, 166952, Note_off_c, 0, 85, 68
1, 166953, Note_off_c, 0, 73, 63
1, 166954, Control_c, 0, 64, 74
1, 166963, Note_off_c, 0, 32, 56
1, 166969, Control_c, 0, 64, 96
1, 166984, Control_c, 0, 64, 103
1, 166999, Control_c, 0, 64, 103
1, 167014, Control_c, 0, 64, 104
1, 167029, Control_c, 0, 64, 106
1, 167044, Control_c, 0, 64, 115
1, 167059, Control_c, 0, 64, 127
1, 167103, Control_c, 0, 64, 110
1, 167117, Note_on_c, 0, 65, 78
1, 167118, Note_on_c, 0, 61, 72
1, 167118, Control_c, 0, 64, 74
1, 167119, Note_on_c, 0, 73, 72
1, 167121, Note_on_c, 0, 68, 73
1, 167128, Note_on_c, 0, 56, 56
1, 167133, Control_c, 0, 64, 54
1, 167138, Note_on_c, 0, 53, 37
1, 167138, Note_off_c, 0, 73, 71
1, 167139, Note_off_c, 0, 65, 72
1, 167139, Note_off_c, 0, 68, 65
1, 167143, Note_off_c, 0, 61, 67
1, 167148, Control_c, 0, 64, 0
1, 167151, Note_off_c, 0, 56, 61
1, 167181, Note_on_c, 0, 73, 92
1, 167184, Note_off_c, 0, 53, 0
1, 167184, Note_on_c, 0, 53, 42
1, 167185, Note_on_c, 0, 61, 75
1, 167189, Note_on_c, 0, 68, 81
1, 167192, Note_on_c, 0, 65, 69
1, 167199, Note_off_c, 0, 73, 74
1, 167202, Note_off_c, 0, 61, 70
1, 167204, Note_off_c, 0, 68, 67
1, 167210, Note_off_c, 0, 65, 68
1, 167214, Note_on_c, 0, 56, 25
1, 167216, Note_off_c, 0, 53, 63
1, 167234, Note_off_c, 0, 56, 35
1, 167370, Control_c, 0, 64, 25
1, 167375, Note_on_c, 0, 84, 84
1, 167378, Note_on_c, 0, 75, 78
1, 167378, Note_on_c, 0, 72, 67
1, 167385, Control_c, 0, 64, 45
1, 167393, Note_off_c, 0, 84, 72
1, 167393, Note_off_c, 0, 75, 69
1, 167395, Note_off_c, 0, 72, 69
1, 167399, Note_on_c, 0, 45, 51
1, 167400, Control_c, 0, 64, 59
1, 167415, Control_c, 0, 64, 72
1, 167428, Note_off_c, 0, 45, 56
1, 167430, Control_c, 0, 64, 94
1, 167444, Control_c, 0, 64, 101
1, 167459, Control_c, 0, 64, 109
1, 167474, Control_c, 0, 64, 127
1, 167630, Control_c, 0, 64, 117
1, 167634, Note_on_c, 0, 63, 74
1, 167635, Note_on_c, 0, 66, 68
1, 167643, Note_on_c, 0, 60, 69
1, 167644, Control_c, 0, 64, 65
1, 167651, Note_on_c, 0, 51, 54
1, 167652, Note_on_c, 0, 54, 56
1, 167652, Note_off_c, 0, 66, 64
1, 167655, Note_off_c, 0, 63, 68
1, 167659, Control_c, 0, 64, 44
1, 167667, Note_off_c, 0, 60, 66
1, 167673, Note_on_c, 0, 72, 18
1, 167674, Control_c, 0, 64, 0
1, 167675, Note_off_c, 0, 54, 59
1, 167676, Note_off_c, 0, 51, 53
1, 167710, Note_off_c, 0, 72, 0
1, 167710, Note_on_c, 0, 72, 14
1, 167715, Note_on_c, 0, 63, 66
1, 167722, Note_on_c, 0, 66, 61
1, 167723, Note_on_c, 0, 60, 65
1, 167733, Note_on_c, 0, 51, 51
1, 167733, Note_off_c, 0, 63, 67
1, 167743, Note_off_c, 0, 72, 60
1, 167744, Note_off_c, 0, 60, 42
1, 167746, Note_off_c, 0, 66, 38
1, 167759, Note_off_c, 0, 51, 36
1, 167917, Note_on_c, 0, 82, 79
1, 167920, Note_on_c, 0, 70, 69
1, 167926, Control_c, 0, 64, 20
1, 167936, Note_on_c, 0, 46, 62
1, 167938, Note_off_c, 0, 82, 72
1, 167941, Control_c, 0, 64, 40
1, 167947, Note_off_c, 0, 70, 66
1, 167956, Control_c, 0, 64, 56
1, 167961, Note_off_c, 0, 46, 59
1, 167971, Control_c, 0, 64, 69
1, 167986, Control_c, 0, 64, 83
1, 168001, Control_c, 0, 64, 85
1, 168019, Poly_aftertouch_c, 0, 34, 0
1, 168046, Control_c, 0, 64, 86
1, 168060, Control_c, 0, 64, 86
1, 168090, Control_c, 0, 64, 81
1, 168105, Control_c, 0, 64, 68
1, 168111, Note_on_c, 0, 58, 66
1, 168113, Note_on_c, 0, 70, 73
1, 168119, Control_c, 0, 64, 56
1, 168129, Note_off_c, 0, 70, 69
1, 168129, Note_off_c, 0, 58, 64
1, 168134, Control_c, 0, 64, 31
1, 168149, Control_c, 0, 64, 0
1, 168178, Note_on_c, 0, 54, 70
1, 168182, Note_on_c, 0, 51, 65
1, 168203, Note_off_c, 0, 54, 68
1, 168212, Note_off_c, 0, 51, 66
1, 168251, Note_on_c, 0, 70, 61
1, 168251, Note_on_c, 0, 82, 86
1, 168261, Note_on_c, 0, 55, 69
1, 168265, Note_on_c, 0, 52, 68
1, 168269, Note_off_c, 0, 82, 73
1, 168276, Note_off_c, 0, 70, 65
1, 168286, Note_off_c, 0, 52, 66
1, 168287, Note_off_c, 0, 55, 68
1, 168420, Note_on_c, 0, 94, 72
1, 168425, Note_on_c, 0, 52, 53
1, 168430, Note_on_c, 0, 82, 52
1, 168438, Note_off_c, 0, 94, 68
1, 168438, Control_c, 0, 64, 25
1, 168445, Note_on_c, 0, 55, 32
1, 168453, Control_c, 0, 64, 41
1, 168456, Note_off_c, 0, 82, 59
1, 168462, Note_off_c, 0, 52, 63
1, 168467, Control_c, 0, 64, 56
1, 168482, Control_c, 0, 64, 73
1, 168487, Note_off_c, 0, 55, 56
1, 168497, Control_c, 0, 64, 98
1, 168511, Control_c, 0, 64, 107
1, 168556, Control_c, 0, 64, 95
1, 168568, Note_on_c, 0, 82, 55
1, 168571, Control_c, 0, 64, 74
1, 168574, Note_on_c, 0, 70, 61
1, 168585, Control_c, 0, 64, 61
1, 168588, Note_off_c, 0, 82, 63
1, 168593, Note_off_c, 0, 70, 63
1, 168600, Control_c, 0, 64, 46
1, 168615, Control_c, 0, 64, 10
1, 168630, Note_on_c, 0, 56, 74
1, 168630, Control_c, 0, 64, 0
1, 168637, Note_on_c, 0, 53, 72
1, 168654, Note_off_c, 0, 56, 68
1, 168674, Note_off_c, 0, 53, 0
1, 168693, Note_on_c, 0, 50, 74
1, 168694, Poly_aftertouch_c, 0, 53, 0
1, 168695, Note_on_c, 0, 70, 79
1, 168707, Note_on_c, 0, 58, 65
1, 168715, Note_off_c, 0, 50, 67
1, 168715, Note_off_c, 0, 70, 71
1, 168726, Note_off_c, 0, 58, 63
1, 168841, Note_on_c, 0, 46, 87
1, 168848, Note_on_c, 0, 82, 72
1, 168853, Note_on_c, 0, 70, 69
1, 168853, Control_c, 0, 64, 17
1, 168857, Note_on_c, 0, 34, 53
1, 168865, Note_off_c, 0, 82, 68
1, 168866, Note_off_c, 0, 46, 65
1, 168868, Control_c, 0, 64, 28
1, 168871, Note_off_c, 0, 70, 68
1, 168883, Control_c, 0, 64, 36
1, 168886, Note_off_c, 0, 34, 53
1, 168898, Control_c, 0, 64, 42
1, 168913, Control_c, 0, 64, 50
1, 168928, Control_c, 0, 64, 55
1, 168942, Control_c, 0, 64, 56
1, 168957, Control_c, 0, 64, 56
1, 168972, Control_c, 0, 64, 54
1, 168987, Control_c, 0, 64, 49
1, 169001, Note_on_c, 0, 70, 69
1, 169002, Control_c, 0, 64, 37
1, 169003, Note_on_c, 0, 58, 60
1, 169016, Control_c, 0, 64, 0
1, 169023, Note_off_c, 0, 58, 62
1, 169026, Note_off_c, 0, 70, 66
1, 169053, Note_on_c, 0, 51, 73
1, 169054, Note_on_c, 0, 54, 73
1, 169075, Note_off_c, 0, 51, 68
1, 169080, Note_off_c, 0, 54, 68
1, 169122, Note_on_c, 0, 52, 85
1, 169133, Note_on_c, 0, 55, 78
1, 169134, Note_on_c, 0, 70, 73
1, 169134, Note_on_c, 0, 82, 84
1, 169149, Note_off_c, 0, 52, 70
1, 169152, Note_off_c, 0, 82, 68
1, 169155, Note_off_c, 0, 70, 69
1, 169157, Note_off_c, 0, 55, 71
1, 169246, Control_c, 0, 64, 16
1, 169259, Control_c, 0, 64, 28
1, 169272, Note_on_c, 0, 82, 56
1, 169273, Note_on_c, 0, 52, 67
1, 169274, Control_c, 0, 64, 40
1, 169277, Note_on_c, 0, 55, 64
1, 169277, Note_on_c, 0, 94, 86
1, 169289, Control_c, 0, 64, 55
1, 169292, Note_off_c, 0, 94, 70
1, 169293, Note_off_c, 0, 82, 71
1, 169299, Note_off_c, 0, 55, 65
1, 169303, Note_off_c, 0, 52, 70
1, 169303, Control_c, 0, 64, 66
1, 169318, Control_c, 0, 64, 78
1, 169333, Control_c, 0, 64, 81
1, 169378, Control_c, 0, 64, 80
1, 169393, Control_c, 0, 64, 77
1, 169408, Control_c, 0, 64, 72
1, 169411, Note_on_c, 0, 70, 77
1, 169421, Note_on_c, 0, 82, 55
1, 169422, Control_c, 0, 64, 64
1, 169432, Note_off_c, 0, 70, 70
1, 169437, Control_c, 0, 64, 51
1, 169443, Note_off_c, 0, 82, 62
1, 169452, Control_c, 0, 64, 25
1, 169466, Control_c, 0, 64, 0
1, 169470, Note_on_c, 0, 56, 76
1, 169473, Note_on_c, 0, 53, 77
1, 169496, Note_off_c, 0, 56, 69
1, 169507, Note_off_c, 0, 53, 64
1, 169535, Note_on_c, 0, 50, 80
1, 169537, Note_on_c, 0, 70, 83
1, 169539, Note_on_c, 0, 58, 85
1, 169555, Note_off_c, 0, 50, 68
1, 169557, Note_off_c, 0, 70, 71
1, 169560, Note_off_c, 0, 58, 70
1, 169645, Control_c, 0, 64, 8
1, 169660, Control_c, 0, 64, 27
1, 169674, Note_on_c, 0, 49, 87
1, 169675, Control_c, 0, 64, 40
1, 169679, Note_on_c, 0, 85, 82
1, 169679, Note_on_c, 0, 73, 78
1, 169689, Control_c, 0, 64, 50
1, 169695, Note_on_c, 0, 37, 46
1, 169695, Note_off_c, 0, 49, 71
1, 169695, Note_off_c, 0, 85, 72
1, 169699, Note_off_c, 0, 73, 70
1, 169704, Control_c, 0, 64, 59
1, 169719, Control_c, 0, 64, 64
1, 169727, Note_off_c, 0, 37, 52
1, 169734, Control_c, 0, 64, 66
1, 169749, Control_c, 0, 64, 67
1, 169793, Control_c, 0, 64, 67
1, 169808, Control_c, 0, 64, 64
1, 169816, Note_on_c, 0, 73, 69
1, 169823, Note_on_c, 0, 61, 70
1, 169823, Control_c, 0, 64, 58
1, 169827, Note_on_c, 0, 56, 41
1, 169837, Control_c, 0, 64, 43
1, 169840, Note_off_c, 0, 61, 65
1, 169840, Note_off_c, 0, 73, 69
1, 169860, Control_c, 0, 64, 0
1, 169870, Note_off_c, 0, 56, 42
1, 169880, Note_on_c, 0, 54, 75
1, 169887, Note_on_c, 0, 57, 80
1, 169946, Note_on_c, 0, 55, 72
1, 169947, Note_off_c, 0, 54, 62
1, 169950, Note_on_c, 0, 85, 90
1, 169953, Note_on_c, 0, 73, 79
1, 169954, Note_on_c, 0, 58, 79
1, 169966, Note_off_c, 0, 57, 63
1, 169966, Note_off_c, 0, 85, 71
1, 169970, Note_off_c, 0, 73, 72
1, 169974, Note_off_c, 0, 55, 67
1, 169976, Note_off_c, 0, 58, 69
1, 170097, Note_on_c, 0, 97, 81
1, 170097, Control_c, 0, 64, 32
1, 170098, Note_on_c, 0, 85, 72
1, 170099, Note_on_c, 0, 58, 65
1, 170100, Note_on_c, 0, 55, 62
1, 170112, Control_c, 0, 64, 47
1, 170113, Note_off_c, 0, 85, 69
1, 170116, Note_off_c, 0, 97, 72
1, 170127, Control_c, 0, 64, 61
1, 170133, Note_off_c, 0, 58, 65
1, 170134, Note_off_c, 0, 55, 66
1, 170142, Control_c, 0, 64, 72
1, 170156, Control_c, 0, 64, 77
1, 170216, Control_c, 0, 64, 76
1, 170228, Note_on_c, 0, 85, 65
1, 170231, Note_on_c, 0, 73, 66
1, 170231, Control_c, 0, 64, 74
1, 170245, Control_c, 0, 64, 69
1, 170248, Note_off_c, 0, 73, 67
1, 170250, Note_off_c, 0, 85, 66
1, 170260, Control_c, 0, 64, 63
1, 170273, Note_on_c, 0, 56, 77
1, 170275, Control_c, 0, 64, 55
1, 170277, Note_on_c, 0, 59, 69
1, 170290, Control_c, 0, 64, 33
1, 170296, Note_off_c, 0, 59, 66
1, 170305, Control_c, 0, 64, 0
1, 170336, Note_on_c, 0, 53, 73
1, 170347, Note_on_c, 0, 73, 79
1, 170348, Note_off_c, 0, 56, 66
1, 170355, Note_on_c, 0, 61, 76
1, 170361, Note_off_c, 0, 53, 71
1, 170371, Note_off_c, 0, 61, 69
1, 170371, Note_off_c, 0, 73, 69
1, 170454, Control_c, 0, 64, 19
1, 170469, Control_c, 0, 64, 34
1, 170472, Note_on_c, 0, 49, 87
1, 170475, Note_on_c, 0, 37, 72
1, 170484, Control_c, 0, 64, 45
1, 170487, Note_on_c, 0, 85, 83
1, 170493, Note_off_c, 0, 49, 72
1, 170494, Note_on_c, 0, 73, 66
1, 170499, Control_c, 0, 64, 55
1, 170503, Note_off_c, 0, 85, 66
1, 170506, Note_off_c, 0, 37, 63
1, 170511, Note_off_c, 0, 73, 66
1, 170513, Control_c, 0, 64, 62
1, 170528, Control_c, 0, 64, 65
1, 170543, Control_c, 0, 64, 66
1, 170558, Control_c, 0, 64, 66
1, 170573, Control_c, 0, 64, 64
1, 170587, Control_c, 0, 64, 62
1, 170609, Control_c, 0, 64, 56
1, 170624, Control_c, 0, 64, 42
1, 170627, Note_on_c, 0, 73, 68
1, 170630, Note_on_c, 0, 61, 81
1, 170639, Control_c, 0, 64, 0
1, 170645, Note_off_c, 0, 61, 70
1, 170651, Note_off_c, 0, 73, 69
1, 170652, Note_on_c, 0, 70, 42
1, 170653, Note_off_c, 0, 70, 127
1, 170678, Note_on_c, 0, 57, 70
1, 170688, Note_on_c, 0, 54, 65
1, 170719, Note_off_c, 0, 54, 66
1, 170736, Note_on_c, 0, 55, 68
1, 170747, Note_on_c, 0, 58, 84
1, 170750, Note_on_c, 0, 85, 87
1, 170752, Note_on_c, 0, 73, 81
1, 170759, Note_off_c, 0, 57, 63
1, 170767, Note_off_c, 0, 85, 72
1, 170770, Note_off_c, 0, 55, 67
1, 170770, Note_off_c, 0, 58, 67
1, 170772, Note_off_c, 0, 73, 71
1, 170861, Control_c, 0, 64, 28
1, 170876, Control_c, 0, 64, 47
1, 170889, Note_on_c, 0, 58, 65
1, 170889, Note_on_c, 0, 55, 68
1, 170889, Note_on_c, 0, 97, 82
1, 170891, Control_c, 0, 64, 61
1, 170898, Note_on_c, 0, 85, 64
1, 170905, Control_c, 0, 64, 73
1, 170907, Note_off_c, 0, 97, 73
1, 170914, Note_off_c, 0, 58, 62
1, 170916, Note_off_c, 0, 85, 63
1, 170918, Note_off_c, 0, 55, 68
1, 170920, Control_c, 0, 64, 80
1, 170950, Control_c, 0, 64, 79
1, 170965, Control_c, 0, 64, 72
1, 170979, Control_c, 0, 64, 64
1, 170994, Control_c, 0, 64, 53
1, 171009, Control_c, 0, 64, 27
1, 171024, Control_c, 0, 64, 0
1, 171029, Note_on_c, 0, 85, 38
1, 171032, Note_on_c, 0, 73, 49
1, 171056, Note_off_c, 0, 85, 50
1, 171059, Note_off_c, 0, 73, 60
1, 171075, Note_on_c, 0, 56, 82
1, 171077, Note_on_c, 0, 59, 68
1, 171100, Note_off_c, 0, 56, 65
1, 171101, Note_off_c, 0, 59, 65
1, 171135, Note_on_c, 0, 53, 78
1, 171136, Note_on_c, 0, 73, 66
1, 171139, Note_on_c, 0, 61, 72
1, 171155, Note_off_c, 0, 61, 68
1, 171156, Note_off_c, 0, 73, 69
1, 171159, Note_off_c, 0, 53, 72
1, 171161, Note_on_c, 0, 70, 38
1, 171162, Note_off_c, 0, 70, 127
1, 171247, Control_c, 0, 64, 36
1, 171262, Control_c, 0, 64, 49
1, 171272, Note_on_c, 0, 52, 84
1, 171277, Control_c, 0, 64, 60
1, 171277, Note_on_c, 0, 76, 77
1, 171279, Note_on_c, 0, 88, 74
1, 171283, Note_on_c, 0, 40, 57
1, 171292, Control_c, 0, 64, 66
1, 171292, Note_off_c, 0, 52, 74
1, 171293, Note_off_c, 0, 76, 72
1, 171294, Note_off_c, 0, 88, 71
1, 171307, Control_c, 0, 64, 71
1, 171312, Note_off_c, 0, 40, 58
1, 171322, Control_c, 0, 64, 73
1, 171324, Note_on_c, 0, 41, 10
1, 171336, Control_c, 0, 64, 76
1, 171358, Control_c, 0, 64, 79
1, 171373, Control_c, 0, 64, 82
1, 171388, Control_c, 0, 64, 85
1, 171390, Note_off_c, 0, 41, 48
1, 171403, Control_c, 0, 64, 87
1, 171410, Note_on_c, 0, 76, 79
1, 171418, Note_on_c, 0, 64, 61
1, 171431, Note_off_c, 0, 76, 72
1, 171432, Control_c, 0, 64, 80
1, 171436, Note_off_c, 0, 64, 65
1, 171447, Control_c, 0, 64, 64
1, 171462, Note_on_c, 0, 60, 77
1, 171462, Control_c, 0, 64, 49
1, 171465, Note_on_c, 0, 57, 68
1, 171477, Control_c, 0, 64, 0
1, 171524, Note_off_c, 0, 57, 0
1, 171529, Note_on_c, 0, 58, 81
1, 171533, Note_on_c, 0, 61, 80
1, 171537, Note_on_c, 0, 88, 92
1, 171538, Note_off_c, 0, 60, 64
1, 171541, Note_on_c, 0, 76, 72
1, 171544, Poly_aftertouch_c, 0, 57, 0
1, 171550, Note_off_c, 0, 58, 70
1, 171552, Note_off_c, 0, 88, 76
1, 171554, Note_off_c, 0, 61, 71
1, 171557, Note_off_c, 0, 76, 70
1, 171640, Control_c, 0, 64, 25
1, 171654, Control_c, 0, 64, 50
1, 171669, Control_c, 0, 64, 71
1, 171676, Note_on_c, 0, 58, 60
1, 171677, Note_on_c, 0, 61, 72
1, 171684, Control_c, 0, 64, 127
1, 171686, Note_on_c, 0, 100, 52
1, 171688, Note_on_c, 0, 98, 54
1, 171696, Note_on_c, 0, 86, 30
1, 171703, Note_off_c, 0, 61, 69
1, 171708, Note_off_c, 0, 58, 65
1, 171714, Note_off_c, 0, 100, 38
1, 171715, Note_off_c, 0, 98, 38
1, 171727, Note_off_c, 0, 86, 54
1, 171793, Note_on_c, 0, 88, 82
1, 171799, Note_on_c, 0, 76, 62
1, 171811, Note_off_c, 0, 88, 73
1, 171817, Note_off_c, 0, 76, 65
1, 171822, Note_on_c, 0, 77, 23
1, 171840, Note_on_c, 0, 59, 78
1, 171847, Control_c, 0, 64, 103
1, 171853, Note_on_c, 0, 62, 68
1, 171861, Control_c, 0, 64, 66
1, 171874, Note_off_c, 0, 77, 45
1, 171876, Control_c, 0, 64, 39
1, 171879, Note_off_c, 0, 62, 66
1, 171891, Control_c, 0, 64, 0
1, 171897, Note_on_c, 0, 76, 82
1, 171900, Note_on_c, 0, 56, 85
1, 171900, Note_on_c, 0, 64, 85
1, 171912, Note_off_c, 0, 59, 63
1, 171915, Note_on_c, 0, 72, 60
1, 171916, Note_off_c, 0, 72, 127
1, 171920, Note_off_c, 0, 64, 72
1, 171921, Note_off_c, 0, 76, 69
1, 171925, Note_off_c, 0, 56, 69
1, 172011, Control_c, 0, 64, 37
1, 172025, Control_c, 0, 64, 52
1, 172038, Note_on_c, 0, 79, 88
1, 172040, Note_on_c, 0, 55, 79
1, 172040, Note_on_c, 0, 91, 89
1, 172040, Control_c, 0, 64, 64
1, 172055, Note_on_c, 0, 43, 43
1, 172055, Note_off_c, 0, 79, 71
1, 172055, Control_c, 0, 64, 81
1, 172056, Note_off_c, 0, 55, 69
1, 172056, Note_off_c, 0, 91, 71
1, 172070, Control_c, 0, 64, 127
1, 172090, Note_off_c, 0, 43, 54
1, 172173, Note_on_c, 0, 81, 81
1, 172181, Control_c, 0, 64, 99
1, 172184, Note_on_c, 0, 69, 52
1, 172192, Note_off_c, 0, 81, 73
1, 172196, Control_c, 0, 64, 62
1, 172206, Note_off_c, 0, 69, 62
1, 172211, Control_c, 0, 64, 20
1, 172222, Note_on_c, 0, 63, 88
1, 172226, Control_c, 0, 64, 0
1, 172234, Note_on_c, 0, 60, 64
1, 172263, Note_off_c, 0, 60, 67
1, 172291, Note_on_c, 0, 91, 97
1, 172293, Note_on_c, 0, 61, 80
1, 172293, Note_on_c, 0, 79, 74
1, 172294, Note_on_c, 0, 64, 89
1, 172307, Note_off_c, 0, 91, 70
1, 172309, Note_off_c, 0, 79, 69
1, 172316, Note_off_c, 0, 63, 63
1, 172328, Note_off_c, 0, 61, 63
1, 172335, Note_off_c, 0, 64, 62
1, 172359, Control_c, 0, 64, 30
1, 172374, Control_c, 0, 64, 58
1, 172389, Control_c, 0, 64, 127
1, 172423, Note_on_c, 0, 89, 94
1, 172426, Note_on_c, 0, 101, 94
1, 172429, Note_on_c, 0, 61, 81
1, 172440, Note_off_c, 0, 89, 73
1, 172442, Note_on_c, 0, 103, 56
1, 172443, Note_off_c, 0, 103, 127
1, 172443, Note_off_c, 0, 101, 72
1, 172445, Note_on_c, 0, 65, 56
1, 172446, Note_on_c, 0, 64, 52
1, 172448, Note_on_c, 0, 63, 49
1, 172461, Note_on_c, 0, 91, 40
1, 172462, Note_off_c, 0, 91, 127
1, 172466, Note_off_c, 0, 65, 66
1, 172467, Note_off_c, 0, 61, 60
1, 172470, Note_off_c, 0, 64, 61
1, 172474, Note_off_c, 0, 63, 57
1, 172548, Note_on_c, 0, 79, 94
1, 172552, Note_on_c, 0, 91, 96
1, 172566, Note_off_c, 0, 79, 71
1, 172567, Note_off_c, 0, 91, 71
1, 172582, Control_c, 0, 64, 95
1, 172589, Note_on_c, 0, 65, 78
1, 172592, Note_on_c, 0, 62, 85
1, 172597, Control_c, 0, 64, 59
1, 172609, Note_off_c, 0, 65, 73
1, 172612, Control_c, 0, 64, 0
1, 172643, Note_on_c, 0, 59, 83
1, 172661, Note_off_c, 0, 62, 68
1, 172670, Note_on_c, 0, 67, 78
1, 172670, Note_on_c, 0, 79, 79
1, 172674, Note_off_c, 0, 59, 68
1, 172675, Note_on_c, 0, 65, 71
1, 172686, Note_on_c, 0, 57, 31
1, 172687, Note_off_c, 0, 57, 127
1, 172688, Note_off_c, 0, 67, 73
1, 172689, Note_off_c, 0, 79, 69
1, 172691, Note_off_c, 0, 65, 68
1, 172693, Note_on_c, 0, 77, 45
1, 172694, Note_off_c, 0, 77, 127
1, 172761, Control_c, 0, 64, 42
1, 172775, Control_c, 0, 64, 62
1, 172790, Control_c, 0, 64, 108
1, 172792, Note_on_c, 0, 55, 88
1, 172794, Note_on_c, 0, 43, 80
1, 172798, Note_on_c, 0, 80, 94
1, 172802, Note_on_c, 0, 94, 83
1, 172805, Control_c, 0, 64, 127
1, 172813, Note_on_c, 0, 92, 61
1, 172814, Note_off_c, 0, 92, 127
1, 172814, Note_off_c, 0, 55, 73
1, 172814, Note_off_c, 0, 80, 75
1, 172822, Note_off_c, 0, 94, 73
1, 172822, Note_off_c, 0, 43, 67
1, 172903, Poly_aftertouch_c, 0, 87, 0
1, 172935, Note_on_c, 0, 82, 89
1, 172937, Note_on_c, 0, 70, 80
1, 172953, Note_off_c, 0, 82, 73
1, 172959, Note_off_c, 0, 70, 69
1, 172969, Note_on_c, 0, 60, 82
1, 172969, Note_on_c, 0, 63, 82
1, 172971, Note_on_c, 0, 67, 90
1, 172976, Control_c, 0, 64, 73
1, 172990, Note_off_c, 0, 67, 72
1, 172990, Control_c, 0, 64, 47
1, 172994, Note_off_c, 0, 60, 67
1, 172996, Note_off_c, 0, 63, 65
1, 173006, Control_c, 0, 64, 0
1, 173045, Note_on_c, 0, 67, 90
1, 173048, Note_on_c, 0, 61, 92
1, 173049, Note_on_c, 0, 82, 99
1, 173049, Note_on_c, 0, 94, 105
1, 173051, Note_on_c, 0, 64, 81
1, 173064, Note_off_c, 0, 82, 74
1, 173065, Note_off_c, 0, 94, 69
1, 173068, Note_off_c, 0, 67, 68
1, 173072, Note_off_c, 0, 64, 67
1, 173075, Note_on_c, 0, 95, 58
1, 173076, Note_off_c, 0, 95, 127
1, 173090, Note_off_c, 0, 61, 63
1, 173169, Control_c, 0, 64, 14
1, 173183, Control_c, 0, 64, 60
1, 173189, Note_on_c, 0, 106, 104
1, 173191, Note_on_c, 0, 94, 101
1, 173198, Control_c, 0, 64, 127
1, 173203, Note_on_c, 0, 61, 78
1, 173204, Note_off_c, 0, 94, 76
1, 173205, Note_on_c, 0, 67, 79
1, 173210, Note_on_c, 0, 104, 58
1, 173211, Note_off_c, 0, 104, 127
1, 173211, Note_on_c, 0, 64, 65
1, 173223, Note_off_c, 0, 106, 66
1, 173236, Note_off_c, 0, 67, 63
1, 173239, Note_off_c, 0, 64, 64
1, 173249, Note_off_c, 0, 61, 60
1, 173322, Note_on_c, 0, 82, 90
1, 173322, Note_on_c, 0, 94, 94
1, 173337, Note_off_c, 0, 82, 76
1, 173338, Note_off_c, 0, 94, 74
1, 173361, Note_on_c, 0, 62, 93
1, 173362, Note_on_c, 0, 67, 92
1, 173391, Note_on_c, 0, 65, 34
1, 173398, Note_off_c, 0, 67, 65
1, 173406, Control_c, 0, 64, 72
1, 173416, Note_off_c, 0, 62, 49
1, 173421, Note_on_c, 0, 55, 88
1, 173421, Control_c, 0, 64, 42
1, 173423, Note_off_c, 0, 65, 57
1, 173435, Control_c, 0, 64, 0
1, 173440, Note_on_c, 0, 70, 99
1, 173442, Note_on_c, 0, 82, 96
1, 173457, Note_off_c, 0, 70, 74
1, 173459, Note_off_c, 0, 55, 68
1, 173472, Note_on_c, 0, 80, 39
1, 173473, Note_off_c, 0, 80, 127
1, 173475, Note_off_c, 0, 82, 58
1, 173540, Control_c, 0, 64, 31
1, 173555, Control_c, 0, 64, 47
1, 173570, Control_c, 0, 64, 60
1, 173572, Note_on_c, 0, 55, 96
1, 173578, Note_on_c, 0, 83, 100
1, 173578, Note_on_c, 0, 95, 108
1, 173579, Note_on_c, 0, 43, 85
1, 173585, Control_c, 0, 64, 71
1, 173596, Note_off_c, 0, 55, 68
1, 173597, Note_off_c, 0, 83, 69
1, 173606, Note_on_c, 0, 94, 60
1, 173607, Note_off_c, 0, 94, 127
1, 173607, Control_c, 0, 64, 82
1, 173612, Note_off_c, 0, 43, 67
1, 173614, Note_off_c, 0, 95, 62
1, 173622, Control_c, 0, 64, 96
1, 173633, Note_on_c, 0, 46, 13
1, 173637, Control_c, 0, 64, 127
1, 173680, Note_off_c, 0, 46, 48
1, 173729, Note_on_c, 0, 83, 91
1, 173732, Note_on_c, 0, 71, 78
1, 173747, Note_off_c, 0, 71, 73
1, 173750, Note_off_c, 0, 83, 66
1, 173768, Note_on_c, 0, 61, 83
1, 173773, Note_on_c, 0, 67, 92
1, 173778, Note_on_c, 0, 64, 75
1, 173792, Note_off_c, 0, 67, 72
1, 173800, Note_off_c, 0, 61, 63
1, 173802, Note_off_c, 0, 64, 69
1, 173842, Note_on_c, 0, 67, 94
1, 173846, Note_on_c, 0, 65, 87
1, 173848, Note_on_c, 0, 62, 91
1, 173851, Note_on_c, 0, 64, 84
1, 173854, Note_on_c, 0, 95, 105
1, 173854, Note_on_c, 0, 83, 88
1, 173870, Note_off_c, 0, 64, 70
1, 173871, Note_off_c, 0, 83, 71
1, 173883, Note_off_c, 0, 95, 68
1, 173893, Note_off_c, 0, 65, 61
1, 173900, Note_off_c, 0, 67, 63
1, 173911, Note_off_c, 0, 62, 63
1, 173948, Control_c, 0, 64, 77
1, 173963, Control_c, 0, 64, 58
1, 173969, Poly_aftertouch_c, 0, 84, 0
1, 173978, Control_c, 0, 64, 27
1, 173993, Control_c, 0, 64, 0
1, 174018, Note_on_c, 0, 107, 112
1, 174018, Note_on_c, 0, 65, 94
1, 174020, Note_on_c, 0, 95, 113
1, 174021, Note_on_c, 0, 67, 95
1, 174027, Note_on_c, 0, 62, 85
1, 174037, Control_c, 0, 64, 31
1, 174048, Note_off_c, 0, 95, 71
1, 174052, Control_c, 0, 64, 53
1, 174052, Note_off_c, 0, 107, 65
1, 174057, Note_on_c, 0, 106, 41
1, 174058, Note_off_c, 0, 106, 127
1, 174066, Control_c, 0, 64, 75
1, 174081, Control_c, 0, 64, 127
1, 174108, Note_off_c, 0, 67, 60
1, 174118, Note_off_c, 0, 62, 59
1, 174121, Note_off_c, 0, 65, 60
1, 174191, Note_on_c, 0, 83, 98
1, 174191, Note_on_c, 0, 95, 101
1, 174214, Note_off_c, 0, 83, 68
1, 174221, Note_off_c, 0, 95, 67
1, 174275, Note_on_c, 0, 65, 84
1, 174275, Note_on_c, 0, 68, 101
1, 174276, Note_on_c, 0, 62, 80
1, 174281, Note_on_c, 0, 56, 78
1, 174318, Note_off_c, 0, 68, 64
1, 174334, Note_off_c, 0, 56, 62
1, 174354, Note_off_c, 0, 65, 59
1, 174366, Note_off_c, 0, 62, 57
1, 174401, Control_c, 0, 64, 77
1, 174407, Note_on_c, 0, 83, 105
1, 174409, Note_on_c, 0, 71, 100
1, 174415, Note_on_c, 0, 62, 66
1, 174416, Control_c, 0, 64, 49
1, 174418, Note_on_c, 0, 65, 82
1, 174419, Note_on_c, 0, 67, 95
1, 174424, Note_on_c, 0, 55, 91
1, 174430, Control_c, 0, 64, 0
1, 174449, Note_off_c, 0, 67, 71
1, 174456, Note_on_c, 0, 72, 29
1, 174457, Note_off_c, 0, 72, 127
1, 174460, Control_c, 0, 64, 13
1, 174461, Note_off_c, 0, 65, 67
1, 174473, Note_off_c, 0, 62, 66
1, 174475, Control_c, 0, 64, 43
1, 174489, Control_c, 0, 64, 63
1, 174504, Control_c, 0, 64, 127
1, 174505, Note_off_c, 0, 55, 66
1, 174526, Note_off_c, 0, 71, 63
1, 174561, Note_off_c, 0, 83, 60
1, 174839, Note_on_c, 0, 36, 46
1, 174850, Note_on_c, 0, 48, 46
1, 174860, Control_c, 0, 64, 68
1, 174874, Control_c, 0, 64, 49
1, 174875, Note_on_c, 0, 88, 73
1, 174889, Control_c, 0, 64, 0
1, 174903, Note_on_c, 0, 76, 46
1, 174939, Note_off_c, 0, 36, 60
1, 174963, Control_c, 0, 64, 20
1, 174973, Note_off_c, 0, 48, 65
1, 174978, Control_c, 0, 64, 40
1, 174993, Control_c, 0, 64, 55
1, 175008, Control_c, 0, 64, 66
1, 175023, Control_c, 0, 64, 95
1, 175038, Control_c, 0, 64, 127
1, 175079, Note_on_c, 0, 79, 50
1, 175130, Note_off_c, 0, 76, 54
1, 175138, Note_off_c, 0, 88, 45
1, 175161, Note_off_c, 0, 79, 58
1, 175188, Note_on_c, 0, 84, 48
1, 175190, Note_on_c, 0, 52, 34
1, 175217, Note_on_c, 0, 55, 4
1, 175246, Note_off_c, 0, 52, 56
1, 175268, Note_on_c, 0, 86, 68
1, 175282, Note_off_c, 0, 55, 43
1, 175292, Note_on_c, 0, 74, 46
1, 175353, Note_off_c, 0, 84, 18
1, 175381, Note_off_c, 0, 74, 55
1, 175384, Note_on_c, 0, 76, 51
1, 175391, Poly_aftertouch_c, 0, 48, 127
1, 175395, Note_off_c, 0, 86, 53
1, 175424, Poly_aftertouch_c, 0, 48, 0
1, 175425, Note_off_c, 0, 76, 63
1, 175427, Note_on_c, 0, 79, 62
1, 175490, Note_on_c, 0, 84, 83
1, 175506, Note_on_c, 0, 72, 67
1, 175509, Note_on_c, 0, 60, 28
1, 175510, Note_off_c, 0, 79, 60
1, 175515, Note_on_c, 0, 52, 30
1, 175547, Note_off_c, 0, 60, 47
1, 175550, Note_off_c, 0, 52, 54
1, 175577, Note_on_c, 0, 76, 71
1, 175602, Note_off_c, 0, 72, 56
1, 175613, Note_off_c, 0, 84, 61
1, 175639, Note_on_c, 0, 79, 65
1, 175640, Note_on_c, 0, 48, 41
1, 175642, Note_off_c, 0, 76, 65
1, 175685, Note_on_c, 0, 83, 86
1, 175687, Note_off_c, 0, 48, 59
1, 175699, Note_on_c, 0, 71, 63
1, 175701, Note_off_c, 0, 79, 62
1, 175705, Note_on_c, 0, 55, 36
1, 175740, Note_off_c, 0, 55, 54
1, 175741, Poly_aftertouch_c, 0, 52, 127
1, 175768, Note_on_c, 0, 76, 70
1, 175772, Poly_aftertouch_c, 0, 52, 0
1, 175792, Note_on_c, 0, 79, 70
1, 175795, Note_off_c, 0, 83, 64
1, 175797, Note_off_c, 0, 76, 65
1, 175801, Control_c, 0, 64, 68
1, 175816, Note_off_c, 0, 79, 68
1, 175816, Control_c, 0, 64, 52
1, 175823, Note_off_c, 0, 71, 53
1, 175831, Control_c, 0, 64, 17
1, 175853, Control_c, 0, 64, 0
1, 175854, Note_on_c, 0, 36, 61
1, 175883, Control_c, 0, 64, 20
1, 175885, Note_off_c, 0, 36, 64
1, 175889, Note_on_c, 0, 81, 87
1, 175898, Control_c, 0, 64, 29
1, 175912, Control_c, 0, 64, 36
1, 175928, Note_on_c, 0, 69, 40
1, 175928, Control_c, 0, 64, 43
1, 175943, Control_c, 0, 64, 47
1, 175958, Control_c, 0, 64, 50
1, 175973, Control_c, 0, 64, 51
1, 175978, Note_off_c, 0, 69, 47
1, 175994, Note_on_c, 0, 72, 56
1, 175998, Note_off_c, 0, 81, 62
1, 176001, Control_c, 0, 64, 50
1, 176018, Note_on_c, 0, 76, 64
1, 176027, Note_on_c, 0, 57, 54
1, 176031, Control_c, 0, 64, 49
1, 176042, Note_on_c, 0, 54, 46
1, 176046, Control_c, 0, 64, 49
1, 176049, Note_on_c, 0, 52, 42
1, 176060, Control_c, 0, 64, 48
1, 176069, Note_off_c, 0, 57, 60
1, 176072, Note_off_c, 0, 72, 38
1, 176075, Control_c, 0, 64, 47
1, 176081, Note_off_c, 0, 52, 54
1, 176084, Note_on_c, 0, 78, 82
1, 176085, Note_off_c, 0, 54, 62
1, 176090, Control_c, 0, 64, 45
1, 176099, Note_on_c, 0, 66, 63
1, 176105, Control_c, 0, 64, 43
1, 176117, Note_off_c, 0, 76, 57
1, 176120, Control_c, 0, 64, 38
1, 176135, Control_c, 0, 64, 32
1, 176150, Control_c, 0, 64, 25
1, 176153, Note_off_c, 0, 66, 64
1, 176165, Control_c, 0, 64, 16
1, 176166, Note_on_c, 0, 48, 47
1, 176176, Note_on_c, 0, 72, 61
1, 176179, Control_c, 0, 64, 0
1, 176192, Note_off_c, 0, 78, 66
1, 176210, Note_on_c, 0, 76, 60
1, 176225, Note_off_c, 0, 48, 58
1, 176227, Note_off_c, 0, 72, 61
1, 176272, Note_on_c, 0, 52, 48
1, 176287, Note_on_c, 0, 79, 65
1, 176296, Note_on_c, 0, 67, 59
1, 176298, Control_c, 0, 64, 10
1, 176299, Note_on_c, 0, 55, 25
1, 176299, Note_off_c, 0, 76, 61
1, 176305, Note_off_c, 0, 52, 67
1, 176313, Control_c, 0, 64, 11
1, 176327, Control_c, 0, 64, 13
1, 176328, Note_off_c, 0, 67, 69
1, 176338, Note_off_c, 0, 55, 42
1, 176342, Control_c, 0, 64, 15
1, 176349, Note_off_c, 0, 79, 63
1, 176352, Note_on_c, 0, 72, 64
1, 176357, Control_c, 0, 64, 18
1, 176370, Note_off_c, 0, 72, 66
1, 176372, Control_c, 0, 64, 22
1, 176387, Control_c, 0, 64, 24
1, 176400, Note_on_c, 0, 48, 36
1, 176401, Control_c, 0, 64, 24
1, 176416, Control_c, 0, 64, 25
1, 176431, Control_c, 0, 64, 25
1, 176436, Note_off_c, 0, 48, 52
1, 176445, Control_c, 0, 64, 27
1, 176453, Note_on_c, 0, 88, 74
1, 176460, Control_c, 0, 64, 28
1, 176475, Control_c, 0, 64, 30
1, 176490, Control_c, 0, 64, 32
1, 176492, Note_on_c, 0, 76, 17
1, 176505, Control_c, 0, 64, 35
1, 176519, Control_c, 0, 64, 38
1, 176521, Note_on_c, 0, 55, 52
1, 176528, Note_on_c, 0, 64, 15
1, 176534, Control_c, 0, 64, 42
1, 176543, Note_off_c, 0, 76, 51
1, 176546, Note_off_c, 0, 55, 60
1, 176549, Note_off_c, 0, 88, 64
1, 176549, Control_c, 0, 64, 44
1, 176557, Note_on_c, 0, 79, 50
1, 176566, Note_on_c, 0, 60, 3
1, 176568, Note_off_c, 0, 64, 30
1, 176579, Control_c, 0, 64, 44
1, 176589, Note_off_c, 0, 79, 53
1, 176592, Note_on_c, 0, 84, 59
1, 176601, Control_c, 0, 64, 41
1, 176609, Note_off_c, 0, 60, 26
1, 176616, Control_c, 0, 64, 37
1, 176631, Control_c, 0, 64, 34
1, 176646, Control_c, 0, 64, 34
1, 176660, Control_c, 0, 64, 35
1, 176675, Control_c, 0, 64, 36
1, 176684, Note_off_c, 0, 84, 56
1, 176690, Control_c, 0, 64, 39
1, 176695, Note_on_c, 0, 88, 71
1, 176705, Control_c, 0, 64, 43
1, 176715, Note_on_c, 0, 76, 53
1, 176720, Control_c, 0, 64, 46
1, 176736, Control_c, 0, 64, 50
1, 176752, Control_c, 0, 64, 52
1, 176766, Control_c, 0, 64, 52
1, 176796, Control_c, 0, 64, 52
1, 176797, Poly_aftertouch_c, 0, 38, 0
1, 176805, Note_off_c, 0, 88, 62
1, 176811, Control_c, 0, 64, 51
1, 176816, Note_on_c, 0, 78, 53
1, 176822, Note_off_c, 0, 76, 37
1, 176825, Control_c, 0, 64, 49
1, 176839, Note_on_c, 0, 81, 67
1, 176840, Control_c, 0, 64, 48
1, 176841, Note_off_c, 0, 78, 57
1, 176855, Control_c, 0, 64, 47
1, 176860, Note_on_c, 0, 64, 49
1, 176864, Note_on_c, 0, 54, 49
1, 176870, Control_c, 0, 64, 45
1, 176871, Note_on_c, 0, 57, 38
1, 176883, Note_off_c, 0, 64, 59
1, 176884, Control_c, 0, 64, 44
1, 176906, Note_on_c, 0, 85, 76
1, 176908, Note_off_c, 0, 57, 57
1, 176913, Note_off_c, 0, 54, 57
1, 176915, Note_off_c, 0, 81, 58
1, 176921, Note_on_c, 0, 73, 67
1, 176929, Control_c, 0, 64, 44
1, 176958, Control_c, 0, 64, 43
1, 176973, Control_c, 0, 64, 42
1, 176978, Note_on_c, 0, 48, 61
1, 176981, Note_off_c, 0, 73, 64
1, 176982, Note_on_c, 0, 78, 70
1, 176988, Control_c, 0, 64, 40
1, 176992, Note_off_c, 0, 85, 64
1, 177003, Control_c, 0, 64, 38
1, 177005, Note_off_c, 0, 48, 65
1, 177018, Control_c, 0, 64, 36
1, 177032, Control_c, 0, 64, 33
1, 177033, Note_on_c, 0, 81, 66
1, 177038, Note_off_c, 0, 78, 64
1, 177047, Control_c, 0, 64, 30
1, 177062, Control_c, 0, 64, 27
1, 177077, Control_c, 0, 64, 24
1, 177083, Note_on_c, 0, 86, 82
1, 177086, Note_on_c, 0, 62, 65
1, 177092, Control_c, 0, 64, 23
1, 177092, Note_on_c, 0, 54, 57
1, 177094, Note_on_c, 0, 74, 67
1, 177101, Note_on_c, 0, 57, 45
1, 177106, Note_off_c, 0, 81, 64
1, 177118, Note_off_c, 0, 62, 64
1, 177133, Note_off_c, 0, 54, 61
1, 177134, Note_off_c, 0, 57, 56
1, 177136, Control_c, 0, 64, 24
1, 177151, Control_c, 0, 64, 25
1, 177156, Note_on_c, 0, 78, 77
1, 177166, Control_c, 0, 64, 26
1, 177174, Note_off_c, 0, 74, 59
1, 177175, Note_off_c, 0, 86, 61
1, 177181, Control_c, 0, 64, 27
1, 177195, Control_c, 0, 64, 28
1, 177198, Note_off_c, 0, 78, 65
1, 177201, Note_on_c, 0, 48, 67
1, 177205, Note_on_c, 0, 81, 71
1, 177229, Note_off_c, 0, 48, 68
1, 177240, Control_c, 0, 64, 28
1, 177255, Note_on_c, 0, 88, 89
1, 177255, Control_c, 0, 64, 29
1, 177259, Note_off_c, 0, 81, 64
1, 177263, Note_on_c, 0, 76, 82
1, 177269, Control_c, 0, 64, 30
1, 177284, Control_c, 0, 64, 31
1, 177294, Note_on_c, 0, 64, 68
1, 177295, Note_on_c, 0, 57, 47
1, 177299, Control_c, 0, 64, 33
1, 177308, Note_on_c, 0, 54, 58
1, 177314, Control_c, 0, 64, 34
1, 177324, Note_off_c, 0, 64, 66
1, 177332, Note_on_c, 0, 78, 70
1, 177333, Note_off_c, 0, 57, 63
1, 177340, Note_off_c, 0, 54, 66
1, 177358, Note_off_c, 0, 88, 61
1, 177364, Note_off_c, 0, 78, 70
1, 177366, Control_c, 0, 64, 33
1, 177366, Note_off_c, 0, 76, 64
1, 177378, Note_on_c, 0, 81, 69
1, 177381, Control_c, 0, 64, 25
1, 177396, Control_c, 0, 64, 0
1, 177398, Note_off_c, 0, 81, 69
1, 177433, Note_on_c, 0, 48, 69
1, 177452, Note_on_c, 0, 89, 87
1, 177458, Note_off_c, 0, 48, 67
1, 177462, Note_on_c, 0, 77, 70
1, 177499, Control_c, 0, 64, 9
1, 177514, Control_c, 0, 64, 25
1, 177530, Control_c, 0, 64, 33
1, 177531, Note_on_c, 0, 83, 73
1, 177535, Note_off_c, 0, 77, 55
1, 177545, Control_c, 0, 64, 39
1, 177554, Note_off_c, 0, 89, 64
1, 177560, Control_c, 0, 64, 46
1, 177574, Control_c, 0, 64, 50
1, 177575, Note_on_c, 0, 86, 77
1, 177579, Note_on_c, 0, 55, 66
1, 177580, Note_on_c, 0, 65, 54
1, 177589, Control_c, 0, 64, 52
1, 177593, Note_off_c, 0, 83, 62
1, 177602, Note_off_c, 0, 65, 63
1, 177604, Control_c, 0, 64, 53
1, 177610, Note_off_c, 0, 55, 66
1, 177619, Control_c, 0, 64, 54
1, 177634, Note_on_c, 0, 90, 88
1, 177634, Control_c, 0, 64, 53
1, 177637, Note_on_c, 0, 78, 80
1, 177646, Note_off_c, 0, 86, 60
1, 177685, Note_off_c, 0, 78, 67
1, 177701, Note_on_c, 0, 48, 43
1, 177710, Note_on_c, 0, 83, 71
1, 177716, Note_off_c, 0, 90, 68
1, 177733, Note_off_c, 0, 48, 55
1, 177753, Control_c, 0, 64, 54
1, 177768, Note_off_c, 0, 83, 63
1, 177784, Note_on_c, 0, 86, 55
1, 177797, Control_c, 0, 64, 53
1, 177812, Control_c, 0, 64, 50
1, 177827, Control_c, 0, 64, 43
1, 177839, Note_on_c, 0, 69, 52
1, 177840, Note_on_c, 0, 65, 41
1, 177842, Control_c, 0, 64, 31
1, 177844, Note_on_c, 0, 93, 78
1, 177846, Note_on_c, 0, 59, 52
1, 177854, Note_off_c, 0, 86, 50
1, 177856, Control_c, 0, 64, 19
1, 177860, Note_off_c, 0, 69, 67
1, 177870, Note_off_c, 0, 65, 59
1, 177871, Control_c, 0, 64, 15
1, 177876, Note_on_c, 0, 81, 47
1, 177886, Control_c, 0, 64, 16
1, 177895, Note_off_c, 0, 59, 63
1, 177900, Control_c, 0, 64, 22
1, 177915, Control_c, 0, 64, 27
1, 177930, Control_c, 0, 64, 31
1, 177945, Note_off_c, 0, 81, 55
1, 177945, Control_c, 0, 64, 37
1, 177946, Note_off_c, 0, 93, 56
1, 177947, Note_on_c, 0, 83, 54
1, 177960, Control_c, 0, 64, 43
1, 177974, Control_c, 0, 64, 49
1, 177989, Control_c, 0, 64, 53
1, 177998, Note_on_c, 0, 48, 68
1, 178004, Control_c, 0, 64, 55
1, 178005, Note_off_c, 0, 83, 65
1, 178011, Note_on_c, 0, 86, 56
1, 178022, Note_off_c, 0, 48, 66
1, 178068, Note_on_c, 0, 91, 74
1, 178071, Note_off_c, 0, 86, 54
1, 178096, Note_on_c, 0, 79, 57
1, 178100, Control_c, 0, 64, 56
1, 178115, Control_c, 0, 64, 56
1, 178130, Control_c, 0, 64, 57
1, 178148, Note_on_c, 0, 67, 51
1, 178162, Note_on_c, 0, 83, 54
1, 178164, Note_off_c, 0, 91, 37
1, 178166, Note_on_c, 0, 59, 45
1, 178171, Note_off_c, 0, 67, 60
1, 178174, Control_c, 0, 64, 57
1, 178189, Control_c, 0, 64, 58
1, 178192, Note_off_c, 0, 59, 53
1, 178204, Control_c, 0, 64, 58
1, 178217, Note_off_c, 0, 83, 63
1, 178219, Control_c, 0, 64, 59
1, 178220, Note_off_c, 0, 79, 44
1, 178233, Control_c, 0, 64, 60
1, 178236, Note_on_c, 0, 86, 58
1, 178248, Control_c, 0, 64, 60
1, 178263, Control_c, 0, 64, 61
1, 178268, Note_off_c, 0, 86, 61
1, 178278, Control_c, 0, 64, 62
1, 178293, Control_c, 0, 64, 63
1, 178308, Control_c, 0, 64, 63
1, 178323, Control_c, 0, 64, 63
1, 178338, Control_c, 0, 64, 60
1, 178346, Note_on_c, 0, 48, 57
1, 178353, Control_c, 0, 64, 49
1, 178355, Note_on_c, 0, 36, 50
1, 178368, Control_c, 0, 64, 24
1, 178383, Control_c, 0, 64, 0
1, 178387, Note_off_c, 0, 36, 54
1, 178400, Note_on_c, 0, 88, 68
1, 178409, Note_off_c, 0, 48, 60
1, 178415, Note_on_c, 0, 76, 57
1, 178457, Control_c, 0, 64, 20
1, 178472, Control_c, 0, 64, 28
1, 178487, Control_c, 0, 64, 36
1, 178502, Control_c, 0, 64, 44
1, 178502, Note_off_c, 0, 88, 59
1, 178506, Note_on_c, 0, 79, 60
1, 178516, Control_c, 0, 64, 51
1, 178531, Control_c, 0, 64, 54
1, 178532, Note_off_c, 0, 76, 48
1, 178546, Control_c, 0, 64, 55
1, 178564, Note_off_c, 0, 79, 59
1, 178591, Control_c, 0, 64, 55
1, 178599, Note_on_c, 0, 84, 38
1, 178605, Control_c, 0, 64, 54
1, 178607, Note_on_c, 0, 52, 48
1, 178618, Note_on_c, 0, 62, 22
1, 178623, Note_on_c, 0, 55, 31
1, 178629, Note_off_c, 0, 84, 54
1, 178642, Note_on_c, 0, 86, 83
1, 178658, Note_off_c, 0, 62, 52
1, 178659, Note_off_c, 0, 55, 52
1, 178664, Note_off_c, 0, 52, 53
1, 178664, Control_c, 0, 64, 54
1, 178668, Note_on_c, 0, 74, 45
1, 178694, Control_c, 0, 64, 53
1, 178702, Note_off_c, 0, 74, 50
1, 178709, Control_c, 0, 64, 53
1, 178719, Note_on_c, 0, 48, 51
1, 178723, Control_c, 0, 64, 52
1, 178729, Note_on_c, 0, 76, 76
1, 178746, Note_off_c, 0, 86, 53
1, 178753, Control_c, 0, 64, 51
1, 178755, Note_off_c, 0, 48, 52
1, 178768, Control_c, 0, 64, 50
1, 178780, Note_off_c, 0, 76, 67
1, 178783, Control_c, 0, 64, 50
1, 178785, Note_on_c, 0, 79, 67
1, 178841, Note_on_c, 0, 84, 84
1, 178860, Note_on_c, 0, 52, 52
1, 178862, Note_on_c, 0, 60, 47
1, 178863, Note_off_c, 0, 79, 59
1, 178868, Note_on_c, 0, 72, 60
1, 178869, Note_on_c, 0, 55, 39
1, 178879, Control_c, 0, 64, 50
1, 178888, Note_off_c, 0, 60, 57
1, 178901, Note_off_c, 0, 52, 63
1, 178906, Note_off_c, 0, 55, 53
1, 178909, Control_c, 0, 64, 51
1, 178922, Note_on_c, 0, 76, 75
1, 178946, Note_off_c, 0, 84, 61
1, 178953, Control_c, 0, 64, 51
1, 178976, Note_off_c, 0, 76, 67
1, 178978, Note_on_c, 0, 48, 61
1, 178980, Note_off_c, 0, 72, 34
1, 178981, Note_on_c, 0, 79, 56
1, 178997, Control_c, 0, 64, 52
1, 179026, Note_on_c, 0, 83, 88
1, 179029, Note_off_c, 0, 48, 55
1, 179041, Note_on_c, 0, 71, 68
1, 179042, Control_c, 0, 64, 52
1, 179056, Control_c, 0, 64, 53
1, 179071, Control_c, 0, 64, 53
1, 179078, Note_off_c, 0, 79, 33
1, 179086, Control_c, 0, 64, 54
1, 179098, Note_on_c, 0, 76, 71
1, 179100, Note_on_c, 0, 55, 46
1, 179101, Control_c, 0, 64, 54
1, 179110, Note_on_c, 0, 52, 45
1, 179116, Note_on_c, 0, 59, 19
1, 179116, Control_c, 0, 64, 55
1, 179125, Note_off_c, 0, 71, 62
1, 179125, Note_off_c, 0, 83, 63
1, 179134, Note_off_c, 0, 55, 53
1, 179140, Note_off_c, 0, 76, 65
1, 179146, Note_off_c, 0, 52, 52
1, 179146, Control_c, 0, 64, 53
1, 179151, Note_on_c, 0, 79, 28
1, 179157, Note_off_c, 0, 59, 53
1, 179161, Control_c, 0, 64, 47
1, 179176, Control_c, 0, 64, 38
1, 179187, Note_off_c, 0, 79, 45
1, 179191, Control_c, 0, 64, 25
1, 179206, Control_c, 0, 64, 22
1, 179213, Note_on_c, 0, 81, 88
1, 179226, Note_on_c, 0, 48, 55
1, 179231, Note_on_c, 0, 69, 55
1, 179235, Control_c, 0, 64, 25
1, 179250, Control_c, 0, 64, 29
1, 179265, Control_c, 0, 64, 34
1, 179274, Note_off_c, 0, 69, 52
1, 179280, Control_c, 0, 64, 38
1, 179294, Control_c, 0, 64, 44
1, 179300, Note_on_c, 0, 72, 68
1, 179309, Control_c, 0, 64, 49
1, 179318, Note_off_c, 0, 81, 62
1, 179324, Control_c, 0, 64, 55
1, 179339, Note_on_c, 0, 76, 64
1, 179339, Control_c, 0, 64, 58
1, 179354, Control_c, 0, 64, 60
1, 179369, Control_c, 0, 64, 60
1, 179376, Note_on_c, 0, 54, 47
1, 179380, Note_off_c, 0, 48, 32
1, 179384, Control_c, 0, 64, 60
1, 179394, Note_on_c, 0, 57, 36
1, 179395, Note_off_c, 0, 72, 49
1, 179399, Control_c, 0, 64, 58
1, 179399, Note_on_c, 0, 78, 89
1, 179401, Note_on_c, 0, 52, 25
1, 179401, Note_off_c, 0, 76, 0
1, 179401, Note_on_c, 0, 76, 21
1, 179410, Note_on_c, 0, 66, 67
1, 179414, Control_c, 0, 64, 51
1, 179423, Note_off_c, 0, 54, 60
1, 179428, Control_c, 0, 64, 37
1, 179429, Note_off_c, 0, 57, 50
1, 179430, Note_off_c, 0, 76, 57
1, 179438, Note_off_c, 0, 52, 53
1, 179443, Control_c, 0, 64, 0
1, 179455, Note_off_c, 0, 66, 64
1, 179473, Note_on_c, 0, 72, 66
1, 179491, Note_off_c, 0, 78, 65
1, 179502, Control_c, 0, 64, 25
1, 179506, Note_on_c, 0, 48, 51
1, 179515, Note_on_c, 0, 76, 68
1, 179517, Control_c, 0, 64, 38
1, 179532, Control_c, 0, 64, 51
1, 179546, Control_c, 0, 64, 63
1, 179561, Control_c, 0, 64, 81
1, 179571, Note_off_c, 0, 72, 37
1, 179572, Note_on_c, 0, 79, 80
1, 179574, Note_off_c, 0, 48, 61
1, 179576, Control_c, 0, 64, 98
1, 179585, Note_on_c, 0, 67, 82
1, 179591, Control_c, 0, 64, 115
1, 179592, Note_on_c, 0, 52, 67
1, 179603, Note_on_c, 0, 55, 63
1, 179609, Note_off_c, 0, 76, 61
1, 179613, Control_c, 0, 64, 127
1, 179633, Note_off_c, 0, 55, 66
1, 179637, Note_off_c, 0, 52, 62
1, 179658, Note_off_c, 0, 79, 58
1, 179667, Note_off_c, 0, 67, 66
1, 179667, Note_on_c, 0, 72, 69
1, 179692, Note_off_c, 0, 72, 68
1, 179698, Note_on_c, 0, 76, 64
1, 179717, Note_off_c, 0, 76, 66
1, 179726, Note_on_c, 0, 48, 71
1, 179754, Note_off_c, 0, 48, 66
1, 179772, Note_on_c, 0, 76, 98
1, 179774, Note_on_c, 0, 88, 93
1, 179852, Note_on_c, 0, 79, 86
1, 179867, Note_off_c, 0, 88, 64
1, 179868, Note_on_c, 0, 55, 76
1, 179868, Note_on_c, 0, 64, 67
1, 179870, Note_on_c, 0, 60, 64
1, 179886, Note_off_c, 0, 64, 66
1, 179887, Note_off_c, 0, 60, 67
1, 179893, Note_off_c, 0, 55, 69
1, 179905, Note_off_c, 0, 76, 50
1, 179931, Note_on_c, 0, 84, 81
1, 179953, Note_off_c, 0, 79, 62
1, 180033, Note_off_c, 0, 84, 56
1, 180052, Note_on_c, 0, 35, 88
1, 180058, Control_c, 0, 64, 76
1, 180073, Control_c, 0, 64, 48
1, 180088, Control_c, 0, 64, 0
1, 180111, Note_off_c, 0, 35, 65
1, 180112, Note_on_c, 0, 88, 95
1, 180114, Note_on_c, 0, 76, 87
1, 180147, Control_c, 0, 64, 34
1, 180162, Control_c, 0, 64, 50
1, 180177, Control_c, 0, 64, 62
1, 180192, Control_c, 0, 64, 67
1, 180207, Control_c, 0, 64, 67
1, 180221, Control_c, 0, 64, 66
1, 180223, Note_on_c, 0, 78, 79
1, 180230, Note_off_c, 0, 88, 61
1, 180236, Control_c, 0, 64, 65
1, 180242, Note_off_c, 0, 76, 61
1, 180266, Control_c, 0, 64, 65
1, 180272, Note_on_c, 0, 81, 70
1, 180281, Control_c, 0, 64, 64
1, 180282, Note_on_c, 0, 57, 53
1, 180283, Note_off_c, 0, 78, 67
1, 180289, Note_on_c, 0, 63, 72
1, 180290, Note_on_c, 0, 54, 73
1, 180295, Control_c, 0, 64, 62
1, 180310, Control_c, 0, 64, 59
1, 180317, Note_off_c, 0, 63, 69
1, 180323, Note_off_c, 0, 54, 66
1, 180323, Note_off_c, 0, 57, 64
1, 180325, Control_c, 0, 64, 54
1, 180332, Note_on_c, 0, 75, 98
1, 180333, Note_on_c, 0, 87, 85
1, 180347, Note_off_c, 0, 81, 61
1, 180347, Control_c, 0, 64, 48
1, 180362, Control_c, 0, 64, 44
1, 180377, Control_c, 0, 64, 43
1, 180408, Note_off_c, 0, 87, 67
1, 180409, Note_on_c, 0, 78, 79
1, 180415, Note_off_c, 0, 75, 66
1, 180426, Note_on_c, 0, 47, 83
1, 180449, Note_off_c, 0, 47, 69
1, 180451, Control_c, 0, 64, 44
1, 180454, Note_on_c, 0, 81, 79
1, 180463, Note_off_c, 0, 78, 66
1, 180466, Control_c, 0, 64, 45
1, 180481, Note_off_c, 0, 81, 68
1, 180481, Control_c, 0, 64, 47
1, 180496, Control_c, 0, 64, 50
1, 180510, Control_c, 0, 64, 54
1, 180525, Control_c, 0, 64, 59
1, 180537, Note_on_c, 0, 91, 101
1, 180540, Control_c, 0, 64, 62
1, 180545, Note_on_c, 0, 79, 91
1, 180547, Note_on_c, 0, 67, 90
1, 180549, Note_on_c, 0, 57, 78
1, 180552, Note_on_c, 0, 63, 75
1, 180555, Control_c, 0, 64, 65
1, 180565, Note_off_c, 0, 67, 75
1, 180570, Control_c, 0, 64, 67
1, 180574, Note_off_c, 0, 63, 70
1, 180584, Control_c, 0, 64, 69
1, 180587, Note_off_c, 0, 57, 62
1, 180599, Control_c, 0, 64, 71
1, 180614, Control_c, 0, 64, 78
1, 180617, Note_on_c, 0, 81, 86
1, 180627, Note_off_c, 0, 91, 56
1, 180628, Control_c, 0, 64, 94
1, 180640, Note_off_c, 0, 79, 62
1, 180643, Control_c, 0, 64, 127
1, 180669, Note_on_c, 0, 87, 87
1, 180679, Note_on_c, 0, 47, 88
1, 180683, Note_off_c, 0, 81, 67
1, 180714, Note_off_c, 0, 47, 65
1, 180734, Note_on_c, 0, 90, 81
1, 180734, Note_on_c, 0, 78, 98
1, 180778, Note_off_c, 0, 87, 61
1, 180784, Note_off_c, 0, 90, 68
1, 180803, Note_on_c, 0, 81, 87
1, 180812, Note_on_c, 0, 63, 85
1, 180814, Note_on_c, 0, 66, 91
1, 180815, Note_off_c, 0, 78, 65
1, 180818, Note_on_c, 0, 57, 77
1, 180835, Note_off_c, 0, 66, 68
1, 180847, Note_off_c, 0, 63, 60
1, 180854, Note_off_c, 0, 57, 61
1, 180859, Note_on_c, 0, 87, 94
1, 180872, Note_off_c, 0, 81, 67
1, 180917, Note_off_c, 0, 87, 67
1, 180925, Control_c, 0, 64, 59
1, 180940, Control_c, 0, 64, 0
1, 180978, Note_on_c, 0, 52, 101
1, 180981, Note_on_c, 0, 40, 89
1, 180985, Note_on_c, 0, 93, 105
1, 180985, Control_c, 0, 64, 28
1, 180990, Note_on_c, 0, 81, 90
1, 181000, Control_c, 0, 64, 51
1, 181002, Note_on_c, 0, 83, 77
1, 181003, Note_off_c, 0, 52, 64
1, 181004, Note_off_c, 0, 40, 67
1, 181014, Control_c, 0, 64, 73
1, 181018, Note_off_c, 0, 83, 64
1, 181029, Control_c, 0, 64, 127
1, 181056, Note_off_c, 0, 93, 57
1, 181072, Note_on_c, 0, 83, 82
1, 181097, Poly_aftertouch_c, 0, 39, 0
1, 181107, Note_off_c, 0, 81, 62
1, 181148, Note_on_c, 0, 88, 73
1, 181149, Note_off_c, 0, 83, 65
1, 181152, Note_on_c, 0, 69, 93
1, 181165, Note_on_c, 0, 64, 68
1, 181166, Note_on_c, 0, 60, 70
1, 181169, Note_on_c, 0, 59, 62
1, 181181, Note_on_c, 0, 61, 53
1, 181199, Note_off_c, 0, 69, 68
1, 181208, Note_on_c, 0, 79, 92
1, 181211, Note_off_c, 0, 60, 59
1, 181213, Note_off_c, 0, 59, 50
1, 181214, Note_off_c, 0, 61, 66
1, 181214, Note_on_c, 0, 91, 83
1, 181238, Note_off_c, 0, 64, 59
1, 181256, Note_off_c, 0, 88, 64
1, 181289, Note_on_c, 0, 83, 89
1, 181308, Note_off_c, 0, 91, 60
1, 181312, Note_on_c, 0, 64, 93
1, 181312, Note_on_c, 0, 67, 100
1, 181313, Note_on_c, 0, 59, 85
1, 181321, Note_off_c, 0, 79, 59
1, 181339, Note_off_c, 0, 67, 65
1, 181347, Note_off_c, 0, 64, 66
1, 181358, Note_off_c, 0, 59, 66
1, 181362, Note_on_c, 0, 88, 95
1, 181375, Note_off_c, 0, 83, 62
1, 181414, Note_off_c, 0, 88, 68
1, 181485, Note_on_c, 0, 95, 102
1, 181488, Note_on_c, 0, 83, 94
1, 181490, Note_on_c, 0, 55, 107
1, 181496, Note_on_c, 0, 43, 92
1, 181496, Control_c, 0, 64, 60
1, 181511, Control_c, 0, 64, 26
1, 181515, Note_on_c, 0, 44, 59
1, 181517, Note_off_c, 0, 44, 56
1, 181527, Control_c, 0, 64, 15
1, 181541, Control_c, 0, 64, 38
1, 181543, Note_off_c, 0, 43, 65
1, 181556, Control_c, 0, 64, 55
1, 181569, Note_off_c, 0, 55, 65
1, 181571, Control_c, 0, 64, 127
1, 181608, Note_on_c, 0, 86, 80
1, 181620, Note_off_c, 0, 95, 54
1, 181654, Note_off_c, 0, 83, 56
1, 181696, Note_on_c, 0, 89, 75
1, 181720, Note_on_c, 0, 69, 103
1, 181721, Note_on_c, 0, 65, 84
1, 181724, Note_off_c, 0, 86, 63
1, 181724, Note_on_c, 0, 62, 77
1, 181725, Note_on_c, 0, 59, 85
1, 181810, Note_off_c, 0, 89, 66
1, 181828, Note_on_c, 0, 93, 100
1, 181831, Note_on_c, 0, 81, 101
1, 181849, Note_off_c, 0, 69, 54
1, 181864, Note_off_c, 0, 59, 56
1, 181912, Note_off_c, 0, 65, 37
1, 181917, Note_off_c, 0, 62, 55
1, 181991, Note_on_c, 0, 65, 91
1, 181991, Note_on_c, 0, 67, 103
1, 181994, Note_on_c, 0, 59, 79
1, 181995, Note_on_c, 0, 86, 82
1, 181997, Note_on_c, 0, 62, 81
1, 181997, Note_on_c, 0, 89, 86
1, 182019, Note_off_c, 0, 67, 65
1, 182021, Note_off_c, 0, 93, 51
1, 182034, Note_off_c, 0, 65, 66
1, 182040, Note_off_c, 0, 81, 58
1, 182047, Note_off_c, 0, 62, 66
1, 182061, Note_off_c, 0, 59, 68
1, 182102, Note_off_c, 0, 89, 51
1, 182126, Note_off_c, 0, 86, 53
1, 182177, Note_on_c, 0, 91, 103
1, 182180, Note_on_c, 0, 79, 98
1, 182206, Note_off_c, 0, 79, 69
1, 182217, Note_off_c, 0, 91, 66
1, 182519, Note_on_c, 0, 100, 108
1, 182521, Note_on_c, 0, 91, 97
1, 182526, Note_on_c, 0, 88, 89
1, 182531, Note_on_c, 0, 48, 104
1, 182535, Note_on_c, 0, 36, 98
1, 182541, Control_c, 0, 64, 76
1, 182556, Control_c, 0, 64, 31
1, 182560, Note_on_c, 0, 89, 45
1, 182562, Note_on_c, 0, 47, 52
1, 182563, Note_off_c, 0, 47, 127
1, 182570, Control_c, 0, 64, 0
1, 182597, Note_off_c, 0, 89, 38
1, 182622, Note_off_c, 0, 36, 64
1, 182622, Control_c, 0, 64, 57
1, 182637, Control_c, 0, 64, 127
1, 182642, Note_off_c, 0, 48, 66
1, 182776, Note_off_c, 0, 100, 58
1, 182825, Note_off_c, 0, 91, 54
1, 182845, Note_off_c, 0, 88, 30
1, 182869, Note_on_c, 0, 76, 102
1, 182875, Note_on_c, 0, 67, 78
1, 182878, Note_on_c, 0, 64, 86
1, 182991, Note_off_c, 0, 76, 56
1, 183030, Note_off_c, 0, 67, 63
1, 183054, Note_off_c, 0, 64, 60
1, 183067, Note_on_c, 0, 98, 90
1, 183073, Note_on_c, 0, 91, 72
1, 183074, Note_on_c, 0, 88, 94
1, 183074, Note_on_c, 0, 86, 78
1, 183168, Note_off_c, 0, 91, 59
1, 183218, Note_off_c, 0, 98, 57
1, 183250, Note_on_c, 0, 74, 88
1, 183253, Note_on_c, 0, 67, 70
1, 183256, Note_on_c, 0, 64, 66
1, 183256, Note_on_c, 0, 62, 75
1, 183276, Note_off_c, 0, 86, 49
1, 183280, Note_off_c, 0, 88, 55
1, 183356, Note_off_c, 0, 74, 59
1, 183365, Note_off_c, 0, 62, 57
1, 183389, Note_on_c, 0, 96, 90
1, 183396, Note_on_c, 0, 88, 76
1, 183397, Note_on_c, 0, 91, 73
1, 183400, Note_on_c, 0, 84, 81
1, 183405, Note_off_c, 0, 64, 55
1, 183409, Note_off_c, 0, 67, 56
1, 183501, Poly_aftertouch_c, 0, 94, 127
1, 183518, Note_off_c, 0, 96, 61
1, 183521, Note_on_c, 0, 60, 76
1, 183521, Note_on_c, 0, 72, 82
1, 183526, Note_on_c, 0, 64, 65
1, 183528, Note_on_c, 0, 67, 66
1, 183528, Note_off_c, 0, 84, 60
1, 183533, Note_off_c, 0, 88, 63
1, 183538, Note_off_c, 0, 91, 59
1, 183544, Poly_aftertouch_c, 0, 94, 0
1, 183596, Note_off_c, 0, 72, 60
1, 183599, Note_off_c, 0, 60, 59
1, 183615, Note_off_c, 0, 67, 59
1, 183620, Note_on_c, 0, 95, 87
1, 183626, Note_off_c, 0, 64, 52
1, 183632, Note_on_c, 0, 83, 81
1, 183632, Note_on_c, 0, 91, 72
1, 183633, Note_on_c, 0, 88, 77
1, 183700, Note_off_c, 0, 91, 58
1, 183707, Note_off_c, 0, 88, 63
1, 183710, Note_off_c, 0, 83, 63
1, 183712, Note_off_c, 0, 95, 64
1, 183724, Note_on_c, 0, 71, 87
1, 183726, Note_on_c, 0, 64, 57
1, 183730, Note_on_c, 0, 67, 78
1, 183732, Note_on_c, 0, 59, 72
1, 183767, Note_off_c, 0, 71, 62
1, 183773, Note_off_c, 0, 64, 62
1, 183778, Note_off_c, 0, 67, 61
1, 183793, Note_off_c, 0, 59, 64
1, 183823, Note_on_c, 0, 93, 90
1, 183831, Note_on_c, 0, 87, 60
1, 183832, Note_on_c, 0, 81, 77
1, 183834, Note_on_c, 0, 84, 69
1, 183852, Note_on_c, 0, 88, 57
1, 183858, Note_on_c, 0, 91, 38
1, 183859, Note_off_c, 0, 91, 127
1, 183891, Note_off_c, 0, 81, 60
1, 183901, Note_off_c, 0, 93, 60
1, 183906, Note_off_c, 0, 88, 0
1, 183906, Note_on_c, 0, 88, 27
1, 183910, Note_off_c, 0, 87, 34
1, 183921, Note_on_c, 0, 69, 82
1, 183925, Note_on_c, 0, 64, 72
1, 183926, Note_on_c, 0, 57, 74
1, 183928, Note_on_c, 0, 60, 58
1, 183951, Note_off_c, 0, 84, 56
1, 183971, Note_off_c, 0, 69, 65
1, 183987, Note_off_c, 0, 57, 61
1, 183994, Note_off_c, 0, 88, 0
1, 184001, Note_on_c, 0, 90, 95
1, 184004, Note_on_c, 0, 78, 96
1, 184005, Note_on_c, 0, 88, 63
1, 184006, Note_off_c, 0, 64, 59
1, 184012, Note_on_c, 0, 84, 73
1, 184013, Note_off_c, 0, 60, 60
1, 184064, Note_off_c, 0, 78, 65
1, 184107, Note_on_c, 0, 66, 95
1, 184108, Note_on_c, 0, 64, 73
1, 184109, Note_off_c, 0, 90, 62
1, 184111, Note_on_c, 0, 54, 74
1, 184112, Note_off_c, 0, 84, 55
1, 184117, Note_on_c, 0, 60, 58
1, 184127, Note_off_c, 0, 88, 54
1, 184164, Note_off_c, 0, 66, 64
1, 184180, Note_off_c, 0, 64, 51
1, 184185, Note_off_c, 0, 54, 62
1, 184186, Note_on_c, 0, 91, 98
1, 184189, Note_on_c, 0, 79, 90
1, 184191, Note_on_c, 0, 84, 90
1, 184193, Note_on_c, 0, 88, 72
1, 184217, Note_off_c, 0, 60, 52
1, 184220, Note_off_c, 0, 79, 63
1, 184228, Note_off_c, 0, 84, 60
1, 184232, Note_off_c, 0, 88, 63
1, 184249, Note_off_c, 0, 91, 63
1, 184274, Note_on_c, 0, 64, 83
1, 184275, Note_on_c, 0, 60, 50
1, 184277, Note_on_c, 0, 67, 96
1, 184284, Note_on_c, 0, 55, 78
1, 184294, Note_off_c, 0, 67, 74
1, 184305, Note_off_c, 0, 64, 65
1, 184319, Note_off_c, 0, 60, 66
1, 184333, Note_off_c, 0, 55, 65
1, 184371, Note_on_c, 0, 100, 101
1, 184374, Note_on_c, 0, 91, 98
1, 184375, Note_on_c, 0, 88, 93
1, 184375, Note_on_c, 0, 96, 94
1, 184408, Note_off_c, 0, 91, 59
1, 184422, Note_off_c, 0, 88, 59
1, 184437, Note_off_c, 0, 96, 61
1, 184439, Note_off_c, 0, 100, 62
1, 184465, Note_on_c, 0, 36, 94
1, 184582, Control_c, 0, 64, 67
1, 184595, Note_on_c, 0, 48, 84
1, 184596, Control_c, 0, 64, 38
1, 184603, Note_off_c, 0, 36, 63
1, 184611, Control_c, 0, 64, 0
1, 184621, Note_off_c, 0, 48, 69
1, 184626, Control_c, 0, 64, 23
1, 184639, Note_on_c, 0, 100, 97
1, 184641, Control_c, 0, 64, 44
1, 184643, Note_on_c, 0, 88, 92
1, 184644, Note_on_c, 0, 93, 78
1, 184656, Control_c, 0, 64, 63
1, 184657, Note_on_c, 0, 90, 73
1, 184670, Control_c, 0, 64, 127
1, 184732, Note_off_c, 0, 100, 61
1, 184742, Note_off_c, 0, 88, 62
1, 184765, Note_off_c, 0, 93, 57
1, 184773, Note_on_c, 0, 76, 90
1, 184775, Note_on_c, 0, 69, 63
1, 184778, Note_on_c, 0, 64, 77
1, 184782, Note_on_c, 0, 66, 69
1, 184794, Note_off_c, 0, 90, 66
1, 184845, Note_off_c, 0, 76, 63
1, 184857, Note_off_c, 0, 64, 61
1, 184868, Note_on_c, 0, 97, 88
1, 184872, Note_on_c, 0, 85, 93
1, 184873, Note_on_c, 0, 90, 85
1, 184880, Note_on_c, 0, 93, 83
1, 184880, Note_off_c, 0, 66, 58
1, 184889, Note_off_c, 0, 69, 62
1, 184948, Note_off_c, 0, 85, 63
1, 184963, Note_on_c, 0, 73, 95
1, 184964, Note_on_c, 0, 69, 70
1, 184967, Note_on_c, 0, 61, 82
1, 184967, Note_on_c, 0, 66, 77
1, 184972, Note_off_c, 0, 97, 65
1, 184979, Note_off_c, 0, 90, 60
1, 184997, Note_off_c, 0, 93, 48
1, 185029, Note_off_c, 0, 73, 64
1, 185033, Note_off_c, 0, 61, 65
1, 185051, Note_on_c, 0, 98, 98
1, 185053, Note_on_c, 0, 93, 79
1, 185054, Note_on_c, 0, 90, 95
1, 185055, Note_on_c, 0, 86, 100
1, 185060, Note_off_c, 0, 66, 60
1, 185065, Note_off_c, 0, 69, 60
1, 185115, Note_off_c, 0, 86, 56
1, 185132, Note_on_c, 0, 69, 77
1, 185133, Note_on_c, 0, 74, 97
1, 185133, Note_off_c, 0, 90, 65
1, 185134, Note_on_c, 0, 62, 85
1, 185135, Note_on_c, 0, 66, 80
1, 185136, Note_off_c, 0, 93, 62
1, 185139, Note_off_c, 0, 98, 63
1, 185194, Note_off_c, 0, 74, 54
1, 185199, Note_off_c, 0, 62, 61
1, 185212, Note_off_c, 0, 69, 65
1, 185215, Note_off_c, 0, 66, 60
1, 185218, Note_on_c, 0, 100, 105
1, 185218, Note_on_c, 0, 93, 99
1, 185222, Note_on_c, 0, 88, 95
1, 185226, Note_on_c, 0, 90, 88
1, 185301, Note_on_c, 0, 76, 95
1, 185301, Note_off_c, 0, 88, 64
1, 185304, Note_on_c, 0, 69, 77
1, 185304, Note_off_c, 0, 90, 64
1, 185306, Note_off_c, 0, 93, 59
1, 185307, Note_on_c, 0, 66, 81
1, 185307, Note_off_c, 0, 100, 64
1, 185308, Note_on_c, 0, 64, 77
1, 185346, Control_c, 0, 64, 88
1, 185352, Note_off_c, 0, 76, 58
1, 185355, Note_off_c, 0, 64, 59
1, 185360, Control_c, 0, 64, 60
1, 185366, Note_off_c, 0, 66, 63
1, 185370, Note_off_c, 0, 69, 62
1, 185375, Control_c, 0, 64, 44
1, 185390, Control_c, 0, 64, 40
1, 185401, Note_on_c, 0, 101, 98
1, 185402, Note_on_c, 0, 92, 98
1, 185405, Control_c, 0, 64, 47
1, 185405, Note_on_c, 0, 89, 91
1, 185419, Control_c, 0, 64, 56
1, 185424, Note_on_c, 0, 100, 56
1, 185425, Note_off_c, 0, 100, 127
1, 185434, Control_c, 0, 64, 69
1, 185449, Control_c, 0, 64, 127
1, 185453, Note_off_c, 0, 101, 65
1, 185456, Note_off_c, 0, 89, 64
1, 185462, Note_off_c, 0, 92, 63
1, 185476, Note_on_c, 0, 77, 97
1, 185483, Note_on_c, 0, 65, 78
1, 185497, Note_on_c, 0, 69, 42
1, 185498, Note_off_c, 0, 77, 63
1, 185511, Note_off_c, 0, 65, 65
1, 185517, Note_off_c, 0, 69, 66
1, 185569, Note_on_c, 0, 86, 87
1, 185569, Note_on_c, 0, 98, 90
1, 185569, Poly_aftertouch_c, 0, 71, 127
1, 185570, Note_on_c, 0, 89, 83
1, 185590, Note_off_c, 0, 89, 72
1, 185591, Note_off_c, 0, 98, 76
1, 185594, Note_off_c, 0, 86, 71
1, 185602, Poly_aftertouch_c, 0, 71, 0
1, 185652, Note_on_c, 0, 74, 85
1, 185662, Note_on_c, 0, 62, 77
1, 185671, Note_off_c, 0, 74, 70
1, 185684, Note_on_c, 0, 65, 41
1, 185700, Note_off_c, 0, 62, 62
1, 185709, Note_off_c, 0, 65, 61
1, 185751, Note_on_c, 0, 92, 89
1, 185754, Control_c, 0, 64, 71
1, 185757, Note_on_c, 0, 80, 96
1, 185763, Note_on_c, 0, 86, 75
1, 185768, Note_on_c, 0, 83, 66
1, 185768, Note_on_c, 0, 84, 70
1, 185769, Control_c, 0, 64, 52
1, 185784, Control_c, 0, 64, 14
1, 185798, Control_c, 0, 64, 0
1, 185800, Note_on_c, 0, 93, 23
1, 185813, Control_c, 0, 64, 24
1, 185826, Note_off_c, 0, 84, 56
1, 185828, Control_c, 0, 64, 43
1, 185841, Note_on_c, 0, 71, 84
1, 185842, Control_c, 0, 64, 60
1, 185843, Note_off_c, 0, 93, 48
1, 185844, Note_on_c, 0, 65, 62
1, 185853, Note_off_c, 0, 80, 62
1, 185857, Control_c, 0, 64, 88
1, 185858, Note_off_c, 0, 92, 66
1, 185859, Note_off_c, 0, 71, 75
1, 185861, Note_on_c, 0, 62, 45
1, 185871, Note_off_c, 0, 65, 69
1, 185872, Control_c, 0, 64, 127
1, 185873, Note_on_c, 0, 59, 40
1, 185889, Note_off_c, 0, 62, 57
1, 185903, Note_off_c, 0, 59, 52
1, 185909, Note_off_c, 0, 83, 34
1, 185945, Note_off_c, 0, 86, 0
1, 185954, Poly_aftertouch_c, 0, 57, 0
1, 185955, Note_on_c, 0, 86, 63
1, 185957, Note_on_c, 0, 91, 96
1, 185960, Note_on_c, 0, 83, 79
1, 185969, Note_on_c, 0, 79, 73
1, 185981, Note_off_c, 0, 83, 72
1, 185989, Note_off_c, 0, 79, 63
1, 185989, Note_off_c, 0, 86, 63
1, 185998, Note_off_c, 0, 91, 60
1, 186061, Note_on_c, 0, 36, 66
1, 186213, Control_c, 0, 64, 80
1, 186228, Control_c, 0, 64, 61
1, 186231, Note_on_c, 0, 48, 53
1, 186242, Control_c, 0, 64, 41
1, 186251, Note_off_c, 0, 36, 60
1, 186252, Note_on_c, 0, 88, 74
1, 186257, Control_c, 0, 64, 0
1, 186264, Note_on_c, 0, 79, 56
1, 186267, Note_on_c, 0, 76, 61
1, 186300, Note_off_c, 0, 48, 64
1, 186302, Control_c, 0, 64, 25
1, 186317, Control_c, 0, 64, 40
1, 186339, Control_c, 0, 64, 55
1, 186354, Control_c, 0, 64, 74
1, 186369, Control_c, 0, 64, 127
1, 186422, Note_off_c, 0, 88, 57
1, 186447, Note_off_c, 0, 76, 64
1, 186449, Note_on_c, 0, 64, 63
1, 186452, Note_off_c, 0, 79, 59
1, 186461, Note_on_c, 0, 55, 54
1, 186464, Note_on_c, 0, 52, 53
1, 186511, Note_off_c, 0, 55, 60
1, 186512, Note_off_c, 0, 52, 62
1, 186514, Note_off_c, 0, 64, 49
1, 186546, Note_on_c, 0, 86, 77
1, 186563, Note_on_c, 0, 74, 43
1, 186563, Note_on_c, 0, 76, 67
1, 186574, Note_on_c, 0, 79, 53
1, 186609, Note_off_c, 0, 79, 60
1, 186616, Note_off_c, 0, 76, 52
1, 186627, Note_off_c, 0, 74, 59
1, 186638, Note_off_c, 0, 86, 60
1, 186660, Note_on_c, 0, 52, 52
1, 186660, Note_on_c, 0, 62, 58
1, 186663, Note_on_c, 0, 55, 49
1, 186697, Note_off_c, 0, 52, 61
1, 186702, Note_off_c, 0, 62, 59
1, 186713, Note_off_c, 0, 55, 63
1, 186741, Note_on_c, 0, 84, 80
1, 186753, Note_on_c, 0, 79, 64
1, 186756, Note_on_c, 0, 72, 62
1, 186758, Note_on_c, 0, 76, 57
1, 186786, Note_off_c, 0, 72, 64
1, 186791, Note_off_c, 0, 76, 64
1, 186792, Note_off_c, 0, 79, 57
1, 186808, Note_off_c, 0, 84, 62
1, 186838, Note_on_c, 0, 60, 63
1, 186841, Note_on_c, 0, 52, 59
1, 186841, Note_on_c, 0, 55, 57
1, 186869, Note_off_c, 0, 60, 64
1, 186872, Note_off_c, 0, 55, 66
1, 186878, Note_off_c, 0, 52, 66
1, 186907, Note_on_c, 0, 83, 81
1, 186917, Note_on_c, 0, 79, 65
1, 186919, Note_on_c, 0, 76, 64
1, 186921, Note_on_c, 0, 71, 69
1, 186947, Note_off_c, 0, 76, 66
1, 186949, Note_off_c, 0, 79, 63
1, 186952, Note_off_c, 0, 71, 62
1, 186964, Note_off_c, 0, 83, 63
1, 186991, Note_on_c, 0, 59, 65
1, 186994, Note_on_c, 0, 55, 59
1, 186994, Note_on_c, 0, 52, 64
1, 187020, Note_off_c, 0, 59, 65
1, 187022, Note_off_c, 0, 55, 68
1, 187029, Note_off_c, 0, 52, 68
1, 187051, Control_c, 0, 64, 105
1, 187063, Note_on_c, 0, 81, 92
1, 187065, Control_c, 0, 64, 69
1, 187076, Note_on_c, 0, 72, 71
1, 187078, Note_on_c, 0, 69, 62
1, 187080, Control_c, 0, 64, 58
1, 187095, Note_on_c, 0, 76, 59
1, 187102, Control_c, 0, 64, 50
1, 187110, Note_off_c, 0, 69, 64
1, 187118, Control_c, 0, 64, 53
1, 187131, Note_off_c, 0, 81, 63
1, 187133, Control_c, 0, 64, 61
1, 187143, Note_on_c, 0, 73, 35
1, 187147, Note_on_c, 0, 57, 78
1, 187148, Control_c, 0, 64, 76
1, 187151, Note_on_c, 0, 52, 76
1, 187157, Note_on_c, 0, 48, 71
1, 187162, Control_c, 0, 64, 127
1, 187171, Note_off_c, 0, 72, 52
1, 187176, Note_off_c, 0, 73, 52
1, 187198, Note_off_c, 0, 48, 59
1, 187205, Note_off_c, 0, 57, 59
1, 187214, Note_off_c, 0, 52, 57
1, 187225, Note_on_c, 0, 78, 91
1, 187228, Note_on_c, 0, 66, 93
1, 187229, Note_off_c, 0, 76, 0
1, 187229, Note_on_c, 0, 76, 11
1, 187233, Note_on_c, 0, 72, 53
1, 187275, Note_off_c, 0, 66, 64
1, 187295, Note_off_c, 0, 78, 64
1, 187298, Note_on_c, 0, 54, 80
1, 187306, Note_off_c, 0, 72, 60
1, 187311, Note_on_c, 0, 48, 70
1, 187314, Note_on_c, 0, 52, 78
1, 187319, Note_off_c, 0, 76, 58
1, 187342, Note_off_c, 0, 48, 64
1, 187352, Note_off_c, 0, 52, 54
1, 187359, Note_off_c, 0, 54, 62
1, 187371, Note_on_c, 0, 79, 97
1, 187373, Note_on_c, 0, 67, 86
1, 187377, Note_on_c, 0, 76, 61
1, 187379, Note_on_c, 0, 72, 74
1, 187390, Note_off_c, 0, 67, 75
1, 187402, Note_off_c, 0, 72, 70
1, 187405, Note_off_c, 0, 76, 67
1, 187417, Note_off_c, 0, 79, 68
1, 187441, Note_on_c, 0, 55, 83
1, 187442, Note_on_c, 0, 52, 79
1, 187452, Note_on_c, 0, 48, 70
1, 187465, Note_off_c, 0, 55, 70
1, 187467, Note_off_c, 0, 52, 71
1, 187478, Note_off_c, 0, 48, 67
1, 187522, Note_on_c, 0, 88, 104
1, 187528, Note_on_c, 0, 76, 85
1, 187528, Note_on_c, 0, 84, 84
1, 187529, Note_on_c, 0, 79, 82
1, 187549, Note_off_c, 0, 79, 70
1, 187549, Note_off_c, 0, 76, 68
1, 187574, Note_off_c, 0, 84, 60
1, 187576, Note_off_c, 0, 88, 64
1, 187593, Note_on_c, 0, 36, 89
1, 187695, Control_c, 0, 64, 68
1, 187710, Control_c, 0, 64, 35
1, 187714, Note_on_c, 0, 48, 76
1, 187725, Control_c, 0, 64, 0
1, 187729, Note_off_c, 0, 36, 64
1, 187749, Note_off_c, 0, 48, 66
1, 187757, Note_on_c, 0, 89, 90
1, 187762, Note_on_c, 0, 80, 86
1, 187766, Note_on_c, 0, 77, 82
1, 187769, Control_c, 0, 64, 30
1, 187784, Control_c, 0, 64, 52
1, 187799, Control_c, 0, 64, 71
1, 187814, Control_c, 0, 64, 127
1, 187847, Note_off_c, 0, 77, 60
1, 187847, Note_off_c, 0, 89, 64
1, 187874, Note_off_c, 0, 80, 61
1, 187885, Note_on_c, 0, 65, 79
1, 187895, Note_on_c, 0, 53, 65
1, 187898, Note_on_c, 0, 56, 61
1, 187946, Note_off_c, 0, 65, 63
1, 187960, Note_off_c, 0, 53, 63
1, 187961, Note_off_c, 0, 56, 50
1, 187977, Note_on_c, 0, 87, 87
1, 187978, Note_on_c, 0, 80, 84
1, 187981, Note_on_c, 0, 75, 81
1, 188034, Note_off_c, 0, 75, 59
1, 188037, Note_off_c, 0, 87, 64
1, 188046, Note_off_c, 0, 80, 59
1, 188058, Note_on_c, 0, 63, 81
1, 188070, Note_on_c, 0, 56, 64
1, 188071, Note_on_c, 0, 53, 70
1, 188112, Note_off_c, 0, 53, 57
1, 188112, Note_off_c, 0, 56, 56
1, 188116, Note_off_c, 0, 63, 62
1, 188132, Note_on_c, 0, 85, 84
1, 188139, Note_on_c, 0, 73, 84
1, 188144, Note_on_c, 0, 80, 79
1, 188186, Note_off_c, 0, 73, 60
1, 188196, Note_off_c, 0, 80, 61
1, 188197, Note_off_c, 0, 85, 60
1, 188205, Note_on_c, 0, 61, 83
1, 188217, Note_on_c, 0, 53, 73
1, 188219, Note_on_c, 0, 56, 74
1, 188252, Note_off_c, 0, 61, 60
1, 188261, Note_off_c, 0, 53, 50
1, 188275, Note_off_c, 0, 56, 57
1, 188282, Note_on_c, 0, 84, 88
1, 188285, Note_on_c, 0, 72, 85
1, 188294, Note_on_c, 0, 80, 79
1, 188312, Note_off_c, 0, 72, 64
1, 188313, Note_off_c, 0, 80, 71
1, 188330, Note_off_c, 0, 84, 62
1, 188340, Note_on_c, 0, 56, 71
1, 188340, Note_on_c, 0, 60, 82
1, 188353, Note_on_c, 0, 53, 51
1, 188365, Note_off_c, 0, 60, 67
1, 188373, Note_off_c, 0, 53, 66
1, 188377, Note_off_c, 0, 56, 65
1, 188426, Note_on_c, 0, 82, 88
1, 188428, Note_on_c, 0, 73, 79
1, 188431, Note_on_c, 0, 77, 73
1, 188434, Note_on_c, 0, 70, 77
1, 188444, Control_c, 0, 64, 74
1, 188459, Control_c, 0, 64, 53
1, 188474, Control_c, 0, 64, 45
1, 188476, Note_off_c, 0, 70, 55
1, 188476, Note_off_c, 0, 82, 68
1, 188489, Control_c, 0, 64, 49
1, 188496, Note_off_c, 0, 73, 54
1, 188501, Note_on_c, 0, 58, 81
1, 188503, Control_c, 0, 64, 59
1, 188505, Note_off_c, 0, 77, 58
1, 188510, Note_on_c, 0, 53, 58
1, 188518, Control_c, 0, 64, 72
1, 188533, Control_c, 0, 64, 127
1, 188541, Note_on_c, 0, 48, 45
1, 188542, Note_off_c, 0, 58, 62
1, 188553, Note_off_c, 0, 53, 65
1, 188558, Note_on_c, 0, 47, 14
1, 188565, Note_on_c, 0, 77, 76
1, 188567, Note_on_c, 0, 79, 84
1, 188569, Note_on_c, 0, 67, 87
1, 188570, Note_off_c, 0, 48, 60
1, 188572, Note_on_c, 0, 73, 81
1, 188607, Note_off_c, 0, 67, 65
1, 188616, Note_off_c, 0, 47, 52
1, 188616, Note_off_c, 0, 79, 63
1, 188626, Note_off_c, 0, 73, 58
1, 188651, Note_off_c, 0, 77, 60
1, 188655, Note_on_c, 0, 55, 84
1, 188657, Note_on_c, 0, 48, 80
1, 188660, Note_on_c, 0, 53, 77
1, 188695, Note_off_c, 0, 55, 64
1, 188699, Note_on_c, 0, 80, 97
1, 188701, Note_on_c, 0, 68, 88
1, 188703, Note_off_c, 0, 48, 62
1, 188709, Note_on_c, 0, 73, 76
1, 188711, Note_off_c, 0, 53, 59
1, 188721, Note_off_c, 0, 68, 69
1, 188731, Note_off_c, 0, 73, 69
1, 188750, Note_off_c, 0, 80, 65
1, 188771, Note_on_c, 0, 56, 102
1, 188783, Note_on_c, 0, 53, 61
1, 188806, Note_off_c, 0, 56, 66
1, 188813, Note_off_c, 0, 53, 63
1, 188827, Note_on_c, 0, 47, 18
1, 188847, Note_on_c, 0, 89, 97
1, 188848, Note_on_c, 0, 77, 91
1, 188853, Note_on_c, 0, 79, 87
1, 188859, Note_on_c, 0, 86, 78
1, 188866, Note_off_c, 0, 89, 68
1, 188872, Note_off_c, 0, 79, 72
1, 188872, Note_off_c, 0, 77, 67
1, 188874, Note_off_c, 0, 47, 52
1, 188875, Note_off_c, 0, 86, 68
1, 188877, Note_on_c, 0, 82, 40
1, 188907, Note_off_c, 0, 82, 57
1, 188910, Note_on_c, 0, 36, 95
1, 188986, Control_c, 0, 64, 71
1, 188993, Note_off_c, 0, 36, 59
1, 188997, Note_on_c, 0, 48, 91
1, 189001, Control_c, 0, 64, 33
1, 189014, Note_off_c, 0, 48, 74
1, 189016, Control_c, 0, 64, 0
1, 189021, Note_on_c, 0, 90, 103
1, 189022, Note_on_c, 0, 81, 94
1, 189024, Note_on_c, 0, 78, 103
1, 189031, Control_c, 0, 64, 20
1, 189046, Control_c, 0, 64, 46
1, 189047, Note_on_c, 0, 87, 58
1, 189060, Control_c, 0, 64, 71
1, 189068, Note_off_c, 0, 87, 63
1, 189075, Control_c, 0, 64, 127
1, 189084, Note_off_c, 0, 78, 64
1, 189090, Note_off_c, 0, 90, 68
1, 189117, Note_off_c, 0, 81, 59
1, 189131, Note_on_c, 0, 66, 97
1, 189133, Note_on_c, 0, 57, 70
1, 189143, Note_on_c, 0, 54, 66
1, 189143, Poly_aftertouch_c, 0, 77, 0
1, 189155, Note_on_c, 0, 61, 56
1, 189156, Note_off_c, 0, 61, 127
1, 189179, Poly_aftertouch_c, 0, 61, 0
1, 189181, Note_off_c, 0, 66, 59
1, 189187, Note_off_c, 0, 54, 63
1, 189193, Note_on_c, 0, 88, 93
1, 189197, Note_on_c, 0, 81, 95
1, 189198, Note_on_c, 0, 76, 92
1, 189212, Note_off_c, 0, 57, 53
1, 189226, Note_off_c, 0, 76, 66
1, 189227, Note_off_c, 0, 81, 62
1, 189235, Note_off_c, 0, 88, 67
1, 189272, Note_on_c, 0, 64, 95
1, 189276, Note_on_c, 0, 57, 55
1, 189285, Note_on_c, 0, 54, 84
1, 189310, Note_off_c, 0, 64, 62
1, 189310, Note_off_c, 0, 54, 66
1, 189323, Note_on_c, 0, 74, 96
1, 189333, Note_on_c, 0, 81, 85
1, 189335, Note_on_c, 0, 86, 88
1, 189355, Note_on_c, 0, 56, 3
1, 189356, Note_off_c, 0, 86, 64
1, 189358, Note_off_c, 0, 57, 52
1, 189358, Note_off_c, 0, 81, 64
1, 189366, Note_off_c, 0, 74, 68
1, 189385, Note_off_c, 0, 56, 0
1, 189389, Note_on_c, 0, 62, 96
1, 189391, Note_on_c, 0, 57, 56
1, 189397, Note_on_c, 0, 54, 81
1, 189409, Note_off_c, 0, 62, 70
1, 189433, Note_off_c, 0, 57, 63
1, 189441, Note_off_c, 0, 54, 66
1, 189446, Poly_aftertouch_c, 0, 84, 0
1, 189448, Poly_aftertouch_c, 0, 56, 0
1, 189457, Note_on_c, 0, 81, 99
1, 189459, Note_on_c, 0, 69, 94
1, 189474, Note_off_c, 0, 69, 76
1, 189477, Note_on_c, 0, 80, 62
1, 189493, Note_off_c, 0, 81, 68
1, 189496, Note_off_c, 0, 80, 64
1, 189537, Note_on_c, 0, 36, 91
1, 189573, Control_c, 0, 64, 63
1, 189576, Note_on_c, 0, 37, 41
1, 189588, Control_c, 0, 64, 0
1, 189619, Note_off_c, 0, 37, 37
1, 189620, Note_on_c, 0, 48, 91
1, 189626, Note_on_c, 0, 82, 103
1, 189627, Note_on_c, 0, 91, 107
1, 189630, Note_on_c, 0, 79, 102
1, 189631, Note_off_c, 0, 36, 64
1, 189632, Control_c, 0, 64, 45
1, 189641, Note_off_c, 0, 48, 73
1, 189647, Control_c, 0, 64, 72
1, 189662, Control_c, 0, 64, 127
1, 189725, Note_off_c, 0, 79, 56
1, 189734, Note_off_c, 0, 91, 53
1, 189749, Note_on_c, 0, 67, 106
1, 189750, Note_off_c, 0, 82, 60
1, 189751, Note_on_c, 0, 55, 89
1, 189755, Note_on_c, 0, 58, 79
1, 189796, Note_off_c, 0, 67, 53
1, 189816, Note_on_c, 0, 56, 15
1, 189841, Note_on_c, 0, 89, 101
1, 189844, Note_on_c, 0, 82, 101
1, 189844, Note_on_c, 0, 77, 102
1, 189847, Note_off_c, 0, 55, 62
1, 189857, Note_off_c, 0, 56, 48
1, 189857, Note_off_c, 0, 58, 53
1, 189916, Note_off_c, 0, 77, 59
1, 189923, Note_off_c, 0, 89, 63
1, 189929, Note_on_c, 0, 65, 100
1, 189932, Note_off_c, 0, 82, 60
1, 189934, Note_on_c, 0, 55, 88
1, 189934, Note_on_c, 0, 58, 81
1, 189979, Note_off_c, 0, 65, 61
1, 190009, Note_off_c, 0, 55, 58
1, 190022, Note_on_c, 0, 88, 98
1, 190024, Note_off_c, 0, 58, 59
1, 190026, Note_on_c, 0, 82, 96
1, 190029, Note_on_c, 0, 76, 98
1, 190056, Note_off_c, 0, 76, 67
1, 190062, Note_off_c, 0, 88, 68
1, 190064, Note_off_c, 0, 82, 64
1, 190065, Note_on_c, 0, 77, 36
1, 190066, Note_off_c, 0, 77, 127
1, 190086, Note_on_c, 0, 87, 7
1, 190087, Note_off_c, 0, 87, 127
1, 190126, Note_on_c, 0, 64, 98
1, 190127, Note_on_c, 0, 58, 94
1, 190129, Note_on_c, 0, 55, 89
1, 190145, Note_off_c, 0, 64, 68
1, 190168, Note_off_c, 0, 58, 66
1, 190175, Note_off_c, 0, 55, 66
1, 190213, Poly_aftertouch_c, 0, 61, 127
1, 190233, Poly_aftertouch_c, 0, 56, 0
1, 190235, Poly_aftertouch_c, 0, 61, 0
1, 190257, Note_on_c, 0, 70, 103
1, 190258, Note_on_c, 0, 82, 104
1, 190258, Note_on_c, 0, 76, 97
1, 190284, Note_off_c, 0, 70, 65
1, 190288, Note_off_c, 0, 76, 71
1, 190304, Note_off_c, 0, 82, 71
1, 190398, Note_on_c, 0, 36, 97
1, 190544, Control_c, 0, 64, 61
1, 190558, Control_c, 0, 64, 0
1, 190571, Note_on_c, 0, 83, 96
1, 190571, Note_on_c, 0, 92, 101
1, 190574, Note_on_c, 0, 86, 94
1, 190574, Note_on_c, 0, 80, 102
1, 190577, Note_on_c, 0, 48, 112
1, 190603, Control_c, 0, 64, 46
1, 190611, Note_off_c, 0, 36, 64
1, 190618, Control_c, 0, 64, 83
1, 190624, Note_on_c, 0, 39, 18
1, 190625, Note_on_c, 0, 37, 25
1, 190625, Note_off_c, 0, 48, 68
1, 190632, Control_c, 0, 64, 127
1, 190667, Note_off_c, 0, 37, 46
1, 190670, Note_off_c, 0, 39, 39
1, 190696, Poly_aftertouch_c, 0, 42, 0
1, 190742, Note_off_c, 0, 92, 64
1, 190769, Note_off_c, 0, 80, 60
1, 190783, Note_off_c, 0, 83, 52
1, 190789, Note_off_c, 0, 86, 52
1, 190822, Note_on_c, 0, 68, 98
1, 190822, Note_on_c, 0, 62, 82
1, 190836, Note_on_c, 0, 59, 73
1, 190932, Note_off_c, 0, 68, 58
1, 190942, Note_off_c, 0, 59, 59
1, 190968, Note_on_c, 0, 91, 96
1, 190973, Note_on_c, 0, 83, 84
1, 190975, Note_on_c, 0, 79, 87
1, 190975, Note_on_c, 0, 86, 86
1, 190991, Note_off_c, 0, 62, 47
1, 191033, Note_off_c, 0, 83, 61
1, 191033, Note_off_c, 0, 86, 61
1, 191038, Note_off_c, 0, 79, 61
1, 191047, Note_off_c, 0, 91, 58
1, 191065, Note_on_c, 0, 62, 63
1, 191067, Note_on_c, 0, 59, 72
1, 191069, Note_on_c, 0, 67, 85
1, 191120, Note_off_c, 0, 67, 62
1, 191152, Note_on_c, 0, 89, 93
1, 191155, Note_on_c, 0, 80, 90
1, 191158, Note_on_c, 0, 77, 82
1, 191158, Note_on_c, 0, 83, 78
1, 191161, Note_off_c, 0, 59, 56
1, 191163, Note_off_c, 0, 62, 62
1, 191194, Note_off_c, 0, 83, 61
1, 191196, Note_off_c, 0, 77, 52
1, 191206, Note_off_c, 0, 89, 63
1, 191209, Note_off_c, 0, 80, 60
1, 191239, Note_on_c, 0, 59, 54
1, 191242, Note_on_c, 0, 65, 76
1, 191243, Note_on_c, 0, 56, 83
1, 191258, Note_off_c, 0, 65, 71
1, 191262, Note_off_c, 0, 59, 69
1, 191292, Note_off_c, 0, 56, 65
1, 191318, Note_on_c, 0, 80, 88
1, 191322, Note_on_c, 0, 86, 89
1, 191322, Note_on_c, 0, 77, 78
1, 191325, Note_on_c, 0, 74, 77
1, 191346, Note_off_c, 0, 77, 64
1, 191358, Note_off_c, 0, 74, 62
1, 191362, Note_off_c, 0, 80, 62
1, 191366, Note_off_c, 0, 86, 61
1, 191391, Note_on_c, 0, 62, 80
1, 191392, Note_on_c, 0, 56, 74
1, 191397, Note_on_c, 0, 53, 71
1, 191421, Note_off_c, 0, 62, 62
1, 191442, Note_off_c, 0, 53, 64
1, 191445, Note_off_c, 0, 56, 64
1, 191472, Note_on_c, 0, 83, 87
1, 191476, Note_on_c, 0, 74, 78
1, 191478, Note_on_c, 0, 71, 79
1, 191498, Note_off_c, 0, 74, 71
1, 191499, Note_on_c, 0, 77, 37
1, 191501, Note_off_c, 0, 71, 69
1, 191519, Note_off_c, 0, 83, 63
1, 191530, Note_off_c, 0, 77, 57
1, 191549, Note_on_c, 0, 50, 76
1, 191550, Note_on_c, 0, 59, 75
1, 191584, Note_off_c, 0, 59, 66
1, 191585, Note_off_c, 0, 50, 64
1, 191612, Note_on_c, 0, 80, 91
1, 191617, Note_on_c, 0, 71, 77
1, 191618, Note_on_c, 0, 68, 85
1, 191627, Note_on_c, 0, 74, 58
1, 191645, Note_on_c, 0, 75, 50
1, 191656, Note_off_c, 0, 68, 55
1, 191665, Note_off_c, 0, 80, 66
1, 191668, Note_off_c, 0, 71, 61
1, 191671, Note_off_c, 0, 75, 54
1, 191681, Note_off_c, 0, 74, 62
1, 191688, Note_on_c, 0, 51, 63
1, 191696, Note_on_c, 0, 56, 74
1, 191713, Note_on_c, 0, 47, 54
1, 191714, Note_on_c, 0, 57, 61
1, 191716, Note_on_c, 0, 48, 62
1, 191733, Note_off_c, 0, 56, 62
1, 191737, Note_off_c, 0, 57, 62
1, 191752, Note_off_c, 0, 48, 58
1, 191755, Note_off_c, 0, 47, 65
1, 191764, Note_on_c, 0, 71, 81
1, 191765, Note_on_c, 0, 79, 87
1, 191770, Note_on_c, 0, 67, 81
1, 191772, Note_on_c, 0, 74, 73
1, 191787, Note_off_c, 0, 71, 67
1, 191793, Note_off_c, 0, 74, 72
1, 191793, Note_off_c, 0, 67, 67
1, 191795, Note_off_c, 0, 51, 40
1, 191799, Poly_aftertouch_c, 0, 52, 0
1, 191808, Note_off_c, 0, 79, 60
1, 191832, Note_on_c, 0, 55, 86
1, 191835, Note_on_c, 0, 47, 66
1, 191856, Note_on_c, 0, 48, 55
1, 191865, Note_on_c, 0, 51, 27
1, 191876, Note_off_c, 0, 48, 63
1, 191876, Note_off_c, 0, 55, 64
1, 191889, Note_on_c, 0, 77, 90
1, 191892, Note_on_c, 0, 68, 85
1, 191893, Note_off_c, 0, 51, 57
1, 191898, Note_on_c, 0, 65, 75
1, 191900, Note_on_c, 0, 71, 67
1, 191906, Note_off_c, 0, 47, 61
1, 191913, Note_on_c, 0, 76, 60
1, 191921, Note_off_c, 0, 71, 70
1, 191925, Note_on_c, 0, 44, 52
1, 191928, Note_off_c, 0, 65, 66
1, 191930, Note_off_c, 0, 77, 63
1, 191935, Note_off_c, 0, 76, 43
1, 191939, Note_off_c, 0, 68, 59
1, 192000, Note_off_c, 0, 44, 62
1, 192019, Note_on_c, 0, 74, 86
1, 192029, Note_on_c, 0, 60, 78
1, 192030, Note_on_c, 0, 62, 71
1, 192033, Note_on_c, 0, 65, 66
1, 192035, Note_on_c, 0, 64, 65
1, 192042, Note_on_c, 0, 67, 59
1, 192046, Note_on_c, 0, 72, 57
1, 192047, Note_off_c, 0, 72, 127
1, 192055, Note_off_c, 0, 64, 66
1, 192057, Note_off_c, 0, 60, 65
1, 192058, Note_off_c, 0, 62, 66
1, 192058, Note_off_c, 0, 65, 69
1, 192058, Note_off_c, 0, 67, 71
1, 192065, Note_off_c, 0, 74, 62
1, 192091, Note_on_c, 0, 50, 89
1, 192105, Note_on_c, 0, 41, 68
1, 192121, Note_off_c, 0, 50, 63
1, 192139, Note_on_c, 0, 43, 13
1, 192147, Note_off_c, 0, 41, 64
1, 192154, Note_on_c, 0, 62, 81
1, 192157, Note_on_c, 0, 59, 90
1, 192162, Note_on_c, 0, 71, 76
1, 192166, Note_on_c, 0, 42, 2
1, 192173, Note_off_c, 0, 42, 0
1, 192181, Note_off_c, 0, 62, 62
1, 192184, Note_off_c, 0, 43, 50
1, 192186, Note_off_c, 0, 59, 64
1, 192195, Note_off_c, 0, 71, 61
1, 192208, Poly_aftertouch_c, 0, 42, 0
1, 192218, Note_on_c, 0, 47, 90
1, 192220, Note_on_c, 0, 38, 85
1, 192249, Note_off_c, 0, 47, 65
1, 192252, Poly_aftertouch_c, 0, 65, 0
1, 192258, Note_off_c, 0, 38, 65
1, 192279, Note_on_c, 0, 68, 90
1, 192282, Note_on_c, 0, 59, 83
1, 192284, Note_on_c, 0, 56, 87
1, 192293, Note_on_c, 0, 62, 70
1, 192319, Note_on_c, 0, 66, 27
1, 192338, Note_off_c, 0, 56, 64
1, 192348, Note_off_c, 0, 68, 62
1, 192355, Note_off_c, 0, 59, 54
1, 192360, Note_on_c, 0, 34, 81
1, 192360, Note_off_c, 0, 66, 54
1, 192367, Note_on_c, 0, 44, 77
1, 192375, Note_on_c, 0, 42, 66
1, 192381, Note_on_c, 0, 38, 69
1, 192383, Note_off_c, 0, 62, 57
1, 192398, Note_off_c, 0, 42, 59
1, 192403, Note_off_c, 0, 44, 58
1, 192413, Note_off_c, 0, 38, 62
1, 192425, Note_on_c, 0, 62, 63
1, 192425, Note_on_c, 0, 67, 91
1, 192426, Note_on_c, 0, 59, 83
1, 192431, Note_on_c, 0, 55, 89
1, 192433, Note_off_c, 0, 34, 65
1, 192455, Note_on_c, 0, 65, 55
1, 192456, Note_off_c, 0, 65, 127
1, 192478, Note_off_c, 0, 55, 59
1, 192478, Poly_aftertouch_c, 0, 65, 0
1, 192479, Note_off_c, 0, 67, 64
1, 192493, Note_on_c, 0, 43, 96
1, 192494, Note_on_c, 0, 38, 77
1, 192498, Note_on_c, 0, 35, 75
1, 192509, Note_off_c, 0, 59, 56
1, 192518, Note_off_c, 0, 62, 59
1, 192542, Note_off_c, 0, 43, 59
1, 192563, Poly_aftertouch_c, 0, 62, 0
1, 192566, Note_on_c, 0, 65, 95
1, 192569, Note_on_c, 0, 53, 102
1, 192571, Note_on_c, 0, 62, 75
1, 192574, Note_on_c, 0, 59, 84
1, 192584, Note_off_c, 0, 38, 60
1, 192586, Note_off_c, 0, 35, 61
1, 192630, Note_off_c, 0, 53, 62
1, 192633, Note_off_c, 0, 65, 64
1, 192646, Note_on_c, 0, 38, 79
1, 192649, Note_on_c, 0, 35, 71
1, 192650, Note_on_c, 0, 41, 91
1, 192663, Note_off_c, 0, 59, 58
1, 192694, Note_off_c, 0, 62, 54
1, 192702, Poly_aftertouch_c, 0, 64, 0
1, 192727, Note_off_c, 0, 41, 57
1, 192748, Note_on_c, 0, 68, 100
1, 192750, Note_on_c, 0, 62, 83
1, 192751, Note_on_c, 0, 56, 102
1, 192752, Note_on_c, 0, 59, 99
1, 192764, Note_off_c, 0, 35, 59
1, 192764, Note_off_c, 0, 38, 58
1, 192790, Control_c, 0, 64, 106
1, 192805, Control_c, 0, 64, 64
1, 192820, Control_c, 0, 64, 57
1, 192834, Control_c, 0, 64, 58
1, 192848, Note_on_c, 0, 44, 99
1, 192849, Control_c, 0, 64, 65
1, 192851, Note_off_c, 0, 56, 62
1, 192852, Note_on_c, 0, 35, 51
1, 192857, Note_on_c, 0, 38, 80
1, 192859, Note_on_c, 0, 32, 75
1, 192864, Control_c, 0, 64, 84
1, 192866, Note_off_c, 0, 68, 61
1, 192870, Note_on_c, 0, 39, 64
1, 192879, Control_c, 0, 64, 127
1, 192895, Note_off_c, 0, 59, 53
1, 192898, Note_off_c, 0, 39, 39
1, 192902, Note_on_c, 0, 34, 28
1, 192923, Note_off_c, 0, 62, 53
1, 192926, Note_off_c, 0, 34, 61
1, 192965, Note_on_c, 0, 67, 98
1, 192970, Note_on_c, 0, 59, 91
1, 192971, Note_on_c, 0, 55, 96
1, 192971, Note_on_c, 0, 62, 75
1, 192972, Note_off_c, 0, 44, 60
1, 193001, Note_off_c, 0, 32, 58
1, 193016, Note_on_c, 0, 60, 22
1, 193017, Note_off_c, 0, 60, 127
1, 193027, Note_off_c, 0, 38, 33
1, 193040, Note_off_c, 0, 35, 38
1, 193100, Note_on_c, 0, 38, 79
1, 193102, Note_on_c, 0, 43, 99
1, 193102, Note_on_c, 0, 35, 61
1, 193103, Note_on_c, 0, 31, 85
1, 193119, Note_off_c, 0, 67, 54
1, 193129, Note_off_c, 0, 55, 51
1, 193147, Note_off_c, 0, 59, 54
1, 193190, Note_off_c, 0, 43, 52
1, 193233, Note_off_c, 0, 35, 53
1, 193235, Note_off_c, 0, 38, 58
1, 193235, Note_off_c, 0, 31, 50
1, 193244, Note_off_c, 0, 62, 0
1, 193251, Note_on_c, 0, 53, 101
1, 193254, Note_on_c, 0, 65, 95
1, 193254, Note_on_c, 0, 62, 68
1, 193256, Note_on_c, 0, 59, 92
1, 193291, Note_off_c, 0, 53, 67
1, 193302, Note_on_c, 0, 64, 59
1, 193306, Note_off_c, 0, 65, 66
1, 193323, Note_off_c, 0, 64, 63
1, 193323, Note_off_c, 0, 59, 63
1, 193333, Note_off_c, 0, 62, 62
1, 193432, Note_on_c, 0, 35, 74
1, 193432, Note_on_c, 0, 38, 99
1, 193435, Note_on_c, 0, 41, 103
1, 193438, Note_on_c, 0, 29, 85
1, 193464, Note_on_c, 0, 32, 55
1, 193480, Note_off_c, 0, 41, 62
1, 193507, Note_off_c, 0, 32, 59
1, 193507, Note_off_c, 0, 38, 62
1, 193512, Note_off_c, 0, 35, 64
1, 193549, Note_off_c, 0, 29, 61
1, 193751, Note_on_c, 0, 48, 105
1, 193752, Note_on_c, 0, 60, 100
1, 193755, Note_on_c, 0, 31, 93
1, 193755, Note_on_c, 0, 36, 104
1, 193758, Note_on_c, 0, 24, 95
1, 193758, Note_on_c, 0, 28, 95
1, 193761, Control_c, 0, 64, 90
1, 193776, Control_c, 0, 64, 50
1, 193777, Note_on_c, 0, 29, 60
1, 193778, Note_off_c, 0, 29, 127
1, 193791, Note_on_c, 0, 56, 27
1, 193791, Control_c, 0, 64, 0
1, 193815, Note_on_c, 0, 58, 3
1, 193828, Control_c, 0, 64, 14
1, 193829, Note_off_c, 0, 56, 34
1, 193843, Control_c, 0, 64, 49
1, 193857, Control_c, 0, 64, 92
1, 193870, Note_off_c, 0, 24, 61
1, 193872, Control_c, 0, 64, 127
1, 193873, Note_off_c, 0, 48, 55
1, 193876, Note_off_c, 0, 58, 41
1, 193883, Note_off_c, 0, 28, 63
1, 193886, Note_off_c, 0, 31, 61
1, 193886, Note_off_c, 0, 36, 59
1, 193896, Note_off_c, 0, 60, 52
1, 193926, Note_on_c, 0, 52, 72
1, 193928, Note_on_c, 0, 55, 74
1, 193955, Note_off_c, 0, 52, 67
1, 194006, Note_off_c, 0, 55, 65
1, 194014, Note_on_c, 0, 60, 79
1, 194032, Note_off_c, 0, 60, 74
1, 194091, Note_on_c, 0, 60, 83
1, 194152, Note_off_c, 0, 60, 63
1, 194156, Note_on_c, 0, 64, 74
1, 194167, Note_on_c, 0, 67, 71
1, 194186, Note_off_c, 0, 64, 62
1, 194223, Note_on_c, 0, 72, 80
1, 194232, Note_off_c, 0, 67, 67
1, 194243, Note_off_c, 0, 72, 71
1, 194294, Note_on_c, 0, 72, 89
1, 194307, Note_on_c, 0, 60, 95
1, 194309, Note_on_c, 0, 52, 81
1, 194310, Note_on_c, 0, 55, 85
1, 194348, Note_off_c, 0, 72, 65
1, 194349, Note_off_c, 0, 60, 65
1, 194355, Note_on_c, 0, 76, 84
1, 194368, Note_off_c, 0, 55, 60
1, 194372, Note_on_c, 0, 79, 79
1, 194374, Note_off_c, 0, 52, 65
1, 194393, Note_off_c, 0, 76, 68
1, 194423, Note_off_c, 0, 79, 63
1, 194424, Note_on_c, 0, 84, 67
1, 194440, Note_off_c, 0, 84, 67
1, 194473, Note_on_c, 0, 52, 76
1, 194476, Note_on_c, 0, 55, 73
1, 194476, Note_on_c, 0, 84, 97
1, 194494, Note_off_c, 0, 52, 71
1, 194497, Note_off_c, 0, 55, 73
1, 194533, Note_on_c, 0, 48, 59
1, 194536, Note_on_c, 0, 55, 95
1, 194536, Note_off_c, 0, 84, 68
1, 194538, Note_on_c, 0, 88, 71
1, 194539, Note_on_c, 0, 52, 87
1, 194541, Note_on_c, 0, 89, 74
1, 194544, Note_on_c, 0, 96, 101
1, 194556, Note_off_c, 0, 89, 70
1, 194557, Note_off_c, 0, 96, 76
1, 194559, Note_off_c, 0, 55, 71
1, 194560, Note_off_c, 0, 88, 71
1, 194571, Note_on_c, 0, 94, 42
1, 194581, Note_off_c, 0, 52, 65
1, 194596, Note_off_c, 0, 48, 67
1, 194609, Note_off_c, 0, 94, 48
1, 194637, Control_c, 0, 64, 109
1, 194652, Control_c, 0, 64, 108
1, 194711, Control_c, 0, 64, 109
1, 194724, Control_c, 0, 64, 110
1, 194739, Control_c, 0, 64, 108
1, 194753, Control_c, 0, 64, 79
1, 194768, Control_c, 0, 64, 45
1, 194783, Control_c, 0, 64, 0
1, 194818, Note_on_c, 0, 43, 103
1, 194818, Note_on_c, 0, 49, 101
1, 194819, Note_on_c, 0, 61, 91
1, 194822, Note_on_c, 0, 37, 95
1, 194822, Note_on_c, 0, 34, 91
1, 194823, Note_on_c, 0, 31, 90
1, 194846, Note_on_c, 0, 58, 48
1, 194853, Note_on_c, 0, 32, 33
1, 194864, Note_off_c, 0, 43, 61
1, 194867, Note_off_c, 0, 31, 67
1, 194872, Control_c, 0, 64, 25
1, 194879, Note_off_c, 0, 58, 51
1, 194885, Note_off_c, 0, 37, 62
1, 194887, Note_off_c, 0, 34, 66
1, 194887, Control_c, 0, 64, 61
1, 194895, Note_off_c, 0, 32, 42
1, 194902, Control_c, 0, 64, 127
1, 194922, Note_on_c, 0, 53, 41
1, 194932, Note_off_c, 0, 61, 62
1, 194940, Note_off_c, 0, 49, 60
1, 195012, Note_off_c, 0, 53, 64
1, 195031, Note_on_c, 0, 58, 66
1, 195038, Note_on_c, 0, 61, 63
1, 195061, Note_off_c, 0, 58, 65
1, 195063, Note_off_c, 0, 61, 59
1, 195102, Note_on_c, 0, 61, 84
1, 195150, Note_off_c, 0, 61, 65
1, 195157, Note_on_c, 0, 65, 72
1, 195222, Note_on_c, 0, 70, 79
1, 195223, Note_off_c, 0, 65, 65
1, 195232, Note_on_c, 0, 73, 73
1, 195245, Note_off_c, 0, 70, 69
1, 195254, Note_off_c, 0, 73, 69
1, 195282, Note_on_c, 0, 61, 99
1, 195284, Note_on_c, 0, 53, 81
1, 195287, Note_on_c, 0, 58, 87
1, 195295, Note_on_c, 0, 73, 94
1, 195342, Note_off_c, 0, 61, 64
1, 195359, Note_off_c, 0, 58, 56
1, 195361, Note_on_c, 0, 77, 74
1, 195367, Note_off_c, 0, 73, 63
1, 195380, Note_off_c, 0, 53, 61
1, 195384, Control_c, 0, 64, 87
1, 195399, Control_c, 0, 64, 64
1, 195414, Control_c, 0, 64, 51
1, 195422, Note_off_c, 0, 77, 64
1, 195428, Control_c, 0, 64, 40
1, 195432, Note_on_c, 0, 82, 74
1, 195442, Note_on_c, 0, 85, 60
1, 195443, Control_c, 0, 64, 39
1, 195455, Note_off_c, 0, 82, 70
1, 195458, Control_c, 0, 64, 42
1, 195461, Note_off_c, 0, 85, 60
1, 195466, Note_on_c, 0, 58, 82
1, 195473, Control_c, 0, 64, 45
1, 195484, Note_on_c, 0, 53, 66
1, 195488, Control_c, 0, 64, 48
1, 195499, Note_on_c, 0, 85, 95
1, 195502, Control_c, 0, 64, 55
1, 195507, Note_off_c, 0, 58, 67
1, 195508, Note_off_c, 0, 53, 70
1, 195517, Control_c, 0, 64, 65
1, 195532, Control_c, 0, 64, 78
1, 195533, Note_on_c, 0, 89, 72
1, 195545, Note_on_c, 0, 49, 17
1, 195547, Control_c, 0, 64, 80
1, 195552, Note_on_c, 0, 58, 78
1, 195560, Note_on_c, 0, 97, 92
1, 195561, Note_off_c, 0, 85, 64
1, 195561, Control_c, 0, 64, 79
1, 195563, Note_on_c, 0, 94, 86
1, 195566, Note_on_c, 0, 53, 53
1, 195568, Note_off_c, 0, 58, 75
1, 195574, Note_on_c, 0, 90, 30
1, 195576, Control_c, 0, 64, 77
1, 195577, Note_off_c, 0, 97, 72
1, 195579, Note_off_c, 0, 89, 67
1, 195582, Note_on_c, 0, 92, 48
1, 195585, Note_off_c, 0, 94, 62
1, 195591, Control_c, 0, 64, 75
1, 195600, Note_off_c, 0, 53, 53
1, 195606, Note_off_c, 0, 49, 63
1, 195611, Note_off_c, 0, 92, 38
1, 195621, Note_off_c, 0, 90, 29
1, 195636, Control_c, 0, 64, 74
1, 195651, Control_c, 0, 64, 71
1, 195666, Control_c, 0, 64, 65
1, 195680, Control_c, 0, 64, 58
1, 195695, Control_c, 0, 64, 41
1, 195710, Control_c, 0, 64, 0
1, 195797, Note_on_c, 0, 36, 96
1, 195798, Note_on_c, 0, 31, 93
1, 195800, Note_on_c, 0, 60, 94
1, 195801, Note_on_c, 0, 48, 104
1, 195802, Note_on_c, 0, 24, 92
1, 195802, Note_on_c, 0, 28, 87
1, 195828, Control_c, 0, 64, 40
1, 195830, Note_off_c, 0, 36, 63
1, 195830, Note_on_c, 0, 58, 45
1, 195835, Note_off_c, 0, 31, 69
1, 195841, Note_off_c, 0, 24, 67
1, 195841, Note_off_c, 0, 28, 65
1, 195843, Control_c, 0, 64, 63
1, 195845, Note_on_c, 0, 27, 16
1, 195846, Note_off_c, 0, 27, 127
1, 195858, Control_c, 0, 64, 127
1, 195865, Note_off_c, 0, 58, 49
1, 195894, Poly_aftertouch_c, 0, 27, 0
1, 195904, Poly_aftertouch_c, 0, 30, 0
1, 195906, Note_off_c, 0, 60, 53
1, 195910, Note_off_c, 0, 48, 59
1, 195931, Note_on_c, 0, 52, 68
1, 195943, Note_on_c, 0, 55, 65
1, 195964, Note_off_c, 0, 52, 67
1, 196003, Note_off_c, 0, 55, 66
1, 196005, Note_on_c, 0, 60, 73
1, 196017, Note_off_c, 0, 60, 74
1, 196074, Note_on_c, 0, 60, 80
1, 196134, Note_off_c, 0, 60, 65
1, 196138, Note_on_c, 0, 64, 69
1, 196147, Note_on_c, 0, 67, 74
1, 196175, Note_off_c, 0, 64, 62
1, 196190, Note_on_c, 0, 72, 85
1, 196202, Note_off_c, 0, 67, 67
1, 196211, Note_off_c, 0, 72, 70
1, 196257, Note_on_c, 0, 52, 85
1, 196259, Note_on_c, 0, 55, 87
1, 196262, Note_on_c, 0, 60, 93
1, 196265, Note_on_c, 0, 72, 89
1, 196304, Note_off_c, 0, 60, 60
1, 196324, Note_off_c, 0, 72, 65
1, 196327, Note_on_c, 0, 76, 70
1, 196331, Note_off_c, 0, 55, 61
1, 196336, Note_off_c, 0, 52, 60
1, 196339, Note_on_c, 0, 79, 82
1, 196371, Poly_aftertouch_c, 0, 53, 0
1, 196373, Note_on_c, 0, 84, 82
1, 196373, Note_off_c, 0, 76, 68
1, 196387, Note_off_c, 0, 79, 65
1, 196403, Note_off_c, 0, 84, 65
1, 196437, Note_on_c, 0, 55, 80
1, 196439, Note_on_c, 0, 52, 80
1, 196441, Note_on_c, 0, 84, 88
1, 196451, Note_on_c, 0, 48, 63
1, 196466, Note_off_c, 0, 55, 66
1, 196473, Note_off_c, 0, 52, 61
1, 196479, Note_off_c, 0, 48, 66
1, 196500, Note_on_c, 0, 88, 72
1, 196503, Note_on_c, 0, 55, 90
1, 196506, Note_on_c, 0, 91, 91
1, 196506, Note_on_c, 0, 52, 83
1, 196508, Note_off_c, 0, 84, 65
1, 196509, Note_on_c, 0, 96, 102
1, 196510, Note_on_c, 0, 48, 81
1, 196521, Note_off_c, 0, 88, 72
1, 196521, Note_off_c, 0, 91, 71
1, 196529, Note_off_c, 0, 96, 65
1, 196532, Note_off_c, 0, 55, 70
1, 196533, Note_on_c, 0, 94, 53
1, 196540, Note_off_c, 0, 52, 72
1, 196558, Note_off_c, 0, 48, 68
1, 196558, Note_off_c, 0, 94, 56
1, 196712, Control_c, 0, 64, 77
1, 196726, Control_c, 0, 64, 42
1, 196741, Control_c, 0, 64, 0
1, 196771, Note_on_c, 0, 65, 95
1, 196772, Note_on_c, 0, 53, 108
1, 196773, Note_on_c, 0, 38, 99
1, 196774, Note_on_c, 0, 41, 106
1, 196777, Note_on_c, 0, 29, 89
1, 196777, Note_on_c, 0, 32, 86
1, 196778, Note_on_c, 0, 35, 84
1, 196800, Control_c, 0, 64, 15
1, 196807, Note_on_c, 0, 64, 40
1, 196808, Note_off_c, 0, 64, 127
1, 196822, Control_c, 0, 64, 57
1, 196825, Note_off_c, 0, 41, 66
1, 196832, Note_on_c, 0, 63, 9
1, 196834, Note_off_c, 0, 29, 65
1, 196837, Control_c, 0, 64, 127
1, 196840, Note_off_c, 0, 38, 61
1, 196846, Note_off_c, 0, 35, 62
1, 196852, Note_off_c, 0, 32, 63
1, 196873, Note_off_c, 0, 63, 54
1, 196903, Poly_aftertouch_c, 0, 62, 0
1, 196912, Note_on_c, 0, 58, 7
1, 196915, Note_off_c, 0, 65, 59
1, 196919, Note_off_c, 0, 53, 57
1, 196929, Note_on_c, 0, 56, 71
1, 196932, Note_on_c, 0, 59, 76
1, 196952, Note_off_c, 0, 56, 68
1, 196965, Note_off_c, 0, 58, 51
1, 197001, Note_off_c, 0, 59, 63
1, 197012, Note_on_c, 0, 65, 77
1, 197030, Note_off_c, 0, 65, 76
1, 197090, Note_on_c, 0, 65, 86
1, 197165, Note_off_c, 0, 65, 59
1, 197165, Note_on_c, 0, 68, 71
1, 197176, Note_on_c, 0, 71, 70
1, 197213, Note_off_c, 0, 68, 59
1, 197221, Note_on_c, 0, 77, 88
1, 197231, Note_off_c, 0, 71, 67
1, 197255, Note_off_c, 0, 77, 65
1, 197284, Note_on_c, 0, 68, 107
1, 197291, Note_on_c, 0, 62, 83
1, 197292, Note_on_c, 0, 59, 79
1, 197304, Note_on_c, 0, 77, 96
1, 197322, Note_off_c, 0, 68, 60
1, 197338, Note_off_c, 0, 59, 63
1, 197339, Note_off_c, 0, 62, 62
1, 197383, Note_on_c, 0, 80, 79
1, 197388, Note_on_c, 0, 83, 73
1, 197406, Note_off_c, 0, 77, 55
1, 197445, Note_off_c, 0, 80, 64
1, 197460, Note_off_c, 0, 83, 67
1, 197464, Note_on_c, 0, 89, 82
1, 197484, Note_off_c, 0, 89, 72
1, 197537, Note_on_c, 0, 65, 91
1, 197539, Note_on_c, 0, 59, 80
1, 197542, Note_on_c, 0, 56, 81
1, 197542, Note_on_c, 0, 89, 98
1, 197580, Note_off_c, 0, 56, 65
1, 197585, Note_off_c, 0, 65, 65
1, 197597, Note_off_c, 0, 59, 63
1, 197608, Note_on_c, 0, 98, 19
1, 197609, Note_off_c, 0, 98, 127
1, 197629, Note_on_c, 0, 59, 81
1, 197629, Note_on_c, 0, 92, 105
1, 197631, Note_on_c, 0, 65, 92
1, 197633, Note_on_c, 0, 56, 103
1, 197634, Note_on_c, 0, 101, 99
1, 197636, Note_on_c, 0, 95, 99
1, 197642, Note_off_c, 0, 89, 64
1, 197656, Note_off_c, 0, 65, 68
1, 197656, Note_off_c, 0, 95, 67
1, 197659, Note_off_c, 0, 92, 71
1, 197663, Note_off_c, 0, 101, 69
1, 197669, Note_off_c, 0, 59, 67
1, 197675, Note_on_c, 0, 100, 33
1, 197676, Note_off_c, 0, 100, 127
1, 197679, Note_off_c, 0, 56, 66
1, 197809, Control_c, 0, 64, 119
1, 197823, Control_c, 0, 64, 79
1, 197838, Control_c, 0, 64, 65
1, 197853, Control_c, 0, 64, 53
1, 197868, Control_c, 0, 64, 20
1, 197883, Control_c, 0, 64, 0
1, 197986, Note_on_c, 0, 64, 74
1, 197986, Control_c, 0, 64, 11
1, 197990, Note_on_c, 0, 48, 76
1, 197992, Note_on_c, 0, 36, 70
1, 197992, Note_on_c, 0, 43, 73
1, 197994, Note_on_c, 0, 40, 72
1, 197994, Note_on_c, 0, 52, 68
1, 198001, Control_c, 0, 64, 34
1, 198011, Note_on_c, 0, 53, 55
1, 198014, Note_off_c, 0, 48, 68
1, 198015, Control_c, 0, 64, 52
1, 198018, Note_off_c, 0, 43, 65
1, 198020, Note_off_c, 0, 36, 64
1, 198026, Note_off_c, 0, 40, 66
1, 198030, Control_c, 0, 64, 65
1, 198045, Control_c, 0, 64, 82
1, 198047, Note_off_c, 0, 53, 47
1, 198054, Note_off_c, 0, 52, 57
1, 198060, Control_c, 0, 64, 127
1, 198077, Note_off_c, 0, 64, 61
1, 198081, Note_on_c, 0, 55, 74
1, 198121, Note_off_c, 0, 55, 65
1, 198149, Note_on_c, 0, 60, 72
1, 198176, Note_off_c, 0, 60, 69
1, 198182, Note_on_c, 0, 64, 34
1, 198220, Note_off_c, 0, 64, 0
1, 198220, Note_on_c, 0, 64, 48
1, 198292, Note_on_c, 0, 55, 80
1, 198293, Note_off_c, 0, 64, 62
1, 198295, Note_on_c, 0, 60, 70
1, 198298, Note_on_c, 0, 76, 83
1, 198303, Note_on_c, 0, 67, 63
1, 198307, Note_on_c, 0, 72, 70
1, 198319, Note_off_c, 0, 55, 73
1, 198325, Note_off_c, 0, 60, 61
1, 198325, Note_off_c, 0, 76, 72
1, 198329, Note_off_c, 0, 67, 66
1, 198330, Note_off_c, 0, 72, 67
1, 198483, Control_c, 0, 64, 62
1, 198497, Control_c, 0, 64, 0
1, 198509, Note_on_c, 0, 34, 74
1, 198510, Note_on_c, 0, 43, 95
1, 198512, Note_on_c, 0, 73, 79
1, 198513, Note_on_c, 0, 37, 84
1, 198513, Note_on_c, 0, 61, 88
1, 198517, Note_on_c, 0, 31, 82
1, 198533, Note_off_c, 0, 43, 65
1, 198534, Note_off_c, 0, 37, 68
1, 198537, Note_off_c, 0, 31, 65
1, 198542, Control_c, 0, 64, 28
1, 198545, Note_off_c, 0, 34, 65
1, 198557, Control_c, 0, 64, 52
1, 198572, Control_c, 0, 64, 77
1, 198587, Control_c, 0, 64, 127
1, 198593, Note_on_c, 0, 65, 76
1, 198593, Note_off_c, 0, 61, 64
1, 198593, Note_off_c, 0, 73, 63
1, 198642, Note_off_c, 0, 65, 67
1, 198648, Note_on_c, 0, 70, 81
1, 198663, Note_on_c, 0, 73, 53
1, 198667, Note_off_c, 0, 70, 71
1, 198689, Note_off_c, 0, 73, 35
1, 198718, Note_on_c, 0, 73, 87
1, 198766, Note_on_c, 0, 61, 84
1, 198770, Note_on_c, 0, 58, 82
1, 198772, Note_on_c, 0, 53, 69
1, 198780, Note_on_c, 0, 77, 63
1, 198781, Note_on_c, 0, 85, 96
1, 198781, Note_off_c, 0, 73, 64
1, 198786, Note_on_c, 0, 82, 89
1, 198791, Note_off_c, 0, 61, 68
1, 198792, Note_off_c, 0, 58, 69
1, 198799, Note_on_c, 0, 78, 48
1, 198800, Note_off_c, 0, 78, 127
1, 198800, Note_off_c, 0, 53, 68
1, 198801, Note_off_c, 0, 77, 64
1, 198815, Note_off_c, 0, 85, 63
1, 198820, Note_off_c, 0, 82, 55
1, 198864, Poly_aftertouch_c, 0, 80, 127
1, 198889, Poly_aftertouch_c, 0, 80, 0
1, 198957, Control_c, 0, 64, 60
1, 198963, Note_on_c, 0, 48, 104
1, 198965, Note_on_c, 0, 43, 85
1, 198968, Note_on_c, 0, 36, 88
1, 198970, Note_on_c, 0, 40, 82
1, 198971, Note_on_c, 0, 60, 101
1, 198971, Control_c, 0, 64, 0
1, 198972, Note_on_c, 0, 72, 91
1, 198994, Note_off_c, 0, 43, 66
1, 199000, Note_off_c, 0, 40, 67
1, 199000, Note_off_c, 0, 48, 66
1, 199004, Note_off_c, 0, 36, 63
1, 199007, Note_on_c, 0, 68, 44
1, 199011, Note_on_c, 0, 71, 40
1, 199012, Note_off_c, 0, 71, 127
1, 199016, Control_c, 0, 64, 38
1, 199031, Control_c, 0, 64, 61
1, 199041, Note_off_c, 0, 68, 32
1, 199046, Control_c, 0, 64, 127
1, 199058, Note_on_c, 0, 64, 74
1, 199070, Note_off_c, 0, 60, 59
1, 199071, Note_off_c, 0, 72, 59
1, 199081, Note_on_c, 0, 67, 78
1, 199112, Note_off_c, 0, 64, 64
1, 199141, Note_off_c, 0, 67, 65
1, 199149, Note_on_c, 0, 72, 62
1, 199166, Note_off_c, 0, 72, 67
1, 199206, Note_on_c, 0, 72, 91
1, 199255, Note_off_c, 0, 72, 67
1, 199271, Note_on_c, 0, 55, 91
1, 199271, Note_on_c, 0, 60, 95
1, 199272, Note_on_c, 0, 52, 91
1, 199274, Note_on_c, 0, 76, 81
1, 199275, Note_on_c, 0, 79, 85
1, 199279, Note_on_c, 0, 84, 95
1, 199290, Note_off_c, 0, 60, 73
1, 199294, Note_off_c, 0, 76, 73
1, 199295, Note_off_c, 0, 79, 70
1, 199298, Note_on_c, 0, 53, 59
1, 199308, Note_off_c, 0, 55, 67
1, 199309, Note_on_c, 0, 82, 42
1, 199309, Note_off_c, 0, 84, 69
1, 199314, Note_off_c, 0, 52, 69
1, 199320, Note_off_c, 0, 53, 62
1, 199338, Note_off_c, 0, 82, 34
1, 199513, Control_c, 0, 64, 60
1, 199528, Control_c, 0, 64, 0
1, 199529, Note_on_c, 0, 41, 105
1, 199533, Note_on_c, 0, 29, 87
1, 199533, Note_on_c, 0, 38, 84
1, 199535, Note_on_c, 0, 89, 98
1, 199536, Note_on_c, 0, 32, 83
1, 199538, Note_on_c, 0, 77, 101
1, 199541, Note_on_c, 0, 79, 83
1, 199542, Note_on_c, 0, 35, 74
1, 199548, Note_on_c, 0, 91, 70
1, 199549, Note_off_c, 0, 91, 127
1, 199558, Control_c, 0, 64, 43
1, 199560, Note_on_c, 0, 37, 48
1, 199561, Note_off_c, 0, 37, 127
1, 199568, Note_on_c, 0, 88, 52
1, 199569, Note_off_c, 0, 88, 127
1, 199569, Note_on_c, 0, 34, 41
1, 199570, Note_off_c, 0, 34, 127
1, 199574, Control_c, 0, 64, 66
1, 199575, Note_on_c, 0, 85, 36
1, 199588, Note_off_c, 0, 29, 60
1, 199588, Control_c, 0, 64, 127
1, 199590, Note_off_c, 0, 41, 60
1, 199597, Note_off_c, 0, 35, 62
1, 199597, Note_off_c, 0, 38, 62
1, 199603, Note_off_c, 0, 32, 63
1, 199604, Note_off_c, 0, 85, 55
1, 199610, Note_off_c, 0, 77, 57
1, 199643, Poly_aftertouch_c, 0, 87, 127
1, 199672, Note_on_c, 0, 80, 88
1, 199676, Note_off_c, 0, 89, 56
1, 199679, Note_on_c, 0, 83, 79
1, 199685, Note_off_c, 0, 79, 53
1, 199706, Note_on_c, 0, 84, 36
1, 199707, Note_off_c, 0, 84, 127
1, 199719, Note_off_c, 0, 80, 59
1, 199727, Poly_aftertouch_c, 0, 87, 0
1, 199766, Note_off_c, 0, 83, 67
1, 199776, Note_on_c, 0, 89, 94
1, 199787, Poly_aftertouch_c, 0, 81, 0
1, 199817, Note_off_c, 0, 89, 69
1, 199886, Note_on_c, 0, 89, 101
1, 199916, Note_on_c, 0, 98, 63
1, 199935, Note_off_c, 0, 98, 65
1, 199939, Note_on_c, 0, 99, 21
1, 199962, Note_off_c, 0, 89, 59
1, 199983, Note_off_c, 0, 99, 46
1, 200012, Note_on_c, 0, 56, 96
1, 200012, Note_on_c, 0, 62, 99
1, 200012, Note_on_c, 0, 65, 102
1, 200012, Note_on_c, 0, 92, 107
1, 200013, Note_on_c, 0, 101, 105
1, 200013, Note_on_c, 0, 95, 99
1, 200019, Note_on_c, 0, 59, 87
1, 200031, Note_off_c, 0, 65, 69
1, 200040, Note_on_c, 0, 99, 68
1, 200044, Note_off_c, 0, 62, 67
1, 200053, Note_off_c, 0, 59, 64
1, 200053, Note_off_c, 0, 95, 66
1, 200054, Note_off_c, 0, 101, 67
1, 200058, Note_off_c, 0, 92, 62
1, 200064, Note_off_c, 0, 99, 66
1, 200070, Note_off_c, 0, 56, 65
1, 200278, Control_c, 0, 64, 103
1, 200293, Control_c, 0, 64, 55
1, 200308, Control_c, 0, 64, 0
1, 200314, Note_on_c, 0, 100, 100
1, 200317, Note_on_c, 0, 50, 85
1, 200317, Note_on_c, 0, 96, 93
1, 200318, Note_on_c, 0, 91, 92
1, 200323, Note_on_c, 0, 36, 74
1, 200327, Note_on_c, 0, 48, 73
1, 200329, Note_on_c, 0, 38, 75
1, 200339, Note_off_c, 0, 50, 69
1, 200345, Note_on_c, 0, 39, 45
1, 200346, Note_off_c, 0, 39, 127
1, 200346, Note_off_c, 0, 48, 69
1, 200350, Note_off_c, 0, 96, 67
1, 200352, Control_c, 0, 64, 20
1, 200357, Note_off_c, 0, 91, 57
1, 200359, Note_off_c, 0, 38, 64
1, 200361, Note_off_c, 0, 36, 65
1, 200364, Note_off_c, 0, 100, 64
1, 200367, Control_c, 0, 64, 41
1, 200382, Control_c, 0, 64, 56
1, 200397, Control_c, 0, 64, 67
1, 200411, Control_c, 0, 64, 71
1, 200426, Control_c, 0, 64, 70
1, 200441, Control_c, 0, 64, 69
1, 200456, Control_c, 0, 64, 68
1, 200485, Control_c, 0, 64, 69
1, 200511, Note_on_c, 0, 31, 77
1, 200511, Note_on_c, 0, 43, 82
1, 200511, Note_on_c, 0, 94, 91
1, 200513, Note_on_c, 0, 89, 87
1, 200513, Note_on_c, 0, 97, 86
1, 200535, Note_off_c, 0, 43, 65
1, 200538, Note_off_c, 0, 31, 65
1, 200546, Note_off_c, 0, 89, 63
1, 200549, Note_off_c, 0, 94, 62
1, 200550, Note_on_c, 0, 96, 30
1, 200551, Note_off_c, 0, 96, 127
1, 200555, Note_on_c, 0, 98, 29
1, 200556, Note_off_c, 0, 98, 127
1, 200556, Note_off_c, 0, 97, 63
1, 200598, Control_c, 0, 64, 68
1, 200642, Control_c, 0, 64, 68
1, 200657, Control_c, 0, 64, 67
1, 200673, Note_on_c, 0, 48, 77
1, 200674, Note_on_c, 0, 96, 84
1, 200676, Note_on_c, 0, 36, 76
1, 200682, Note_on_c, 0, 89, 66
1, 200690, Note_on_c, 0, 88, 59
1, 200699, Note_off_c, 0, 48, 68
1, 200699, Note_off_c, 0, 89, 67
1, 200701, Note_on_c, 0, 91, 51
1, 200702, Note_off_c, 0, 96, 65
1, 200706, Note_off_c, 0, 36, 64
1, 200709, Note_off_c, 0, 88, 66
1, 200726, Note_off_c, 0, 91, 55
1, 200747, Control_c, 0, 64, 65
1, 200762, Control_c, 0, 64, 62
1, 200776, Control_c, 0, 64, 56
1, 200791, Control_c, 0, 64, 45
1, 200806, Control_c, 0, 64, 34
1, 200813, Note_on_c, 0, 94, 94
1, 200814, Note_on_c, 0, 85, 79
1, 200815, Note_on_c, 0, 89, 72
1, 200819, Note_on_c, 0, 31, 76
1, 200821, Control_c, 0, 64, 21
1, 200822, Note_on_c, 0, 43, 72
1, 200836, Control_c, 0, 64, 14
1, 200840, Note_off_c, 0, 89, 69
1, 200842, Note_off_c, 0, 31, 71
1, 200845, Note_off_c, 0, 85, 58
1, 200850, Control_c, 0, 64, 14
1, 200853, Note_off_c, 0, 94, 66
1, 200855, Note_off_c, 0, 43, 60
1, 200865, Control_c, 0, 64, 12
1, 200880, Control_c, 0, 64, 9
1, 200894, Control_c, 0, 64, 0
1, 200944, Note_on_c, 0, 48, 81
1, 200949, Note_on_c, 0, 88, 76
1, 200950, Note_on_c, 0, 84, 81
1, 200950, Note_on_c, 0, 91, 82
1, 200951, Note_on_c, 0, 36, 71
1, 200965, Note_off_c, 0, 48, 69
1, 200968, Note_off_c, 0, 84, 72
1, 200968, Note_off_c, 0, 91, 67
1, 200972, Note_off_c, 0, 88, 65
1, 200977, Note_off_c, 0, 36, 65
1, 201070, Note_on_c, 0, 80, 87
1, 201072, Note_on_c, 0, 41, 82
1, 201072, Note_on_c, 0, 89, 83
1, 201073, Note_on_c, 0, 29, 77
1, 201074, Note_on_c, 0, 82, 43
1, 201075, Note_off_c, 0, 82, 127
1, 201077, Note_on_c, 0, 83, 71
1, 201084, Note_on_c, 0, 85, 39
1, 201085, Note_off_c, 0, 85, 127
1, 201085, Note_on_c, 0, 86, 71
1, 201090, Note_off_c, 0, 80, 68
1, 201094, Note_off_c, 0, 83, 71
1, 201096, Note_off_c, 0, 41, 67
1, 201097, Note_off_c, 0, 29, 65
1, 201108, Note_off_c, 0, 86, 66
1, 201112, Note_off_c, 0, 89, 61
1, 201194, Note_on_c, 0, 48, 71
1, 201198, Note_on_c, 0, 88, 84
1, 201202, Note_on_c, 0, 79, 76
1, 201203, Note_on_c, 0, 84, 79
1, 201205, Note_on_c, 0, 36, 64
1, 201217, Note_off_c, 0, 88, 73
1, 201219, Note_off_c, 0, 48, 68
1, 201224, Note_off_c, 0, 84, 70
1, 201228, Note_off_c, 0, 79, 64
1, 201236, Note_off_c, 0, 36, 64
1, 201307, Note_on_c, 0, 31, 79
1, 201310, Note_on_c, 0, 43, 69
1, 201312, Note_on_c, 0, 82, 75
1, 201319, Note_on_c, 0, 85, 81
1, 201325, Note_on_c, 0, 77, 73
1, 201340, Note_off_c, 0, 82, 71
1, 201340, Note_off_c, 0, 85, 68
1, 201341, Note_off_c, 0, 31, 66
1, 201347, Note_off_c, 0, 43, 63
1, 201348, Note_off_c, 0, 77, 69
1, 201438, Note_on_c, 0, 84, 75
1, 201439, Note_on_c, 0, 36, 72
1, 201439, Note_on_c, 0, 76, 62
1, 201442, Note_on_c, 0, 48, 58
1, 201446, Note_on_c, 0, 77, 51
1, 201448, Note_on_c, 0, 79, 55
1, 201453, Note_off_c, 0, 84, 69
1, 201456, Note_off_c, 0, 76, 66
1, 201462, Note_off_c, 0, 36, 66
1, 201468, Note_off_c, 0, 48, 60
1, 201468, Note_off_c, 0, 79, 59
1, 201472, Note_off_c, 0, 77, 56
1, 201536, Note_on_c, 0, 77, 88
1, 201541, Note_on_c, 0, 73, 80
1, 201541, Note_on_c, 0, 82, 83
1, 201543, Note_on_c, 0, 31, 75
1, 201554, Note_on_c, 0, 43, 52
1, 201561, Note_off_c, 0, 73, 72
1, 201562, Note_off_c, 0, 82, 70
1, 201563, Note_off_c, 0, 77, 62
1, 201578, Note_off_c, 0, 31, 65
1, 201585, Note_off_c, 0, 43, 34
1, 201647, Note_on_c, 0, 72, 83
1, 201647, Note_on_c, 0, 77, 81
1, 201650, Note_on_c, 0, 48, 65
1, 201652, Note_on_c, 0, 36, 71
1, 201665, Note_off_c, 0, 72, 72
1, 201665, Note_off_c, 0, 77, 67
1, 201665, Note_on_c, 0, 81, 48
1, 201666, Note_on_c, 0, 79, 53
1, 201671, Note_off_c, 0, 48, 63
1, 201676, Note_off_c, 0, 36, 66
1, 201689, Note_off_c, 0, 79, 58
1, 201690, Note_off_c, 0, 81, 60
1, 201754, Note_on_c, 0, 77, 65
1, 201755, Note_on_c, 0, 41, 74
1, 201756, Note_on_c, 0, 74, 75
1, 201757, Note_on_c, 0, 29, 72
1, 201758, Note_on_c, 0, 68, 84
1, 201766, Note_on_c, 0, 71, 58
1, 201778, Note_off_c, 0, 68, 68
1, 201778, Note_off_c, 0, 41, 65
1, 201778, Note_off_c, 0, 74, 68
1, 201781, Note_on_c, 0, 72, 44
1, 201781, Note_off_c, 0, 77, 65
1, 201785, Note_off_c, 0, 29, 58
1, 201785, Note_off_c, 0, 71, 66
1, 201806, Note_off_c, 0, 72, 57
1, 201856, Note_on_c, 0, 76, 92
1, 201859, Note_on_c, 0, 72, 86
1, 201863, Note_on_c, 0, 67, 78
1, 201871, Note_on_c, 0, 35, 61
1, 201876, Note_on_c, 0, 48, 47
1, 201877, Note_off_c, 0, 48, 127
1, 201877, Note_off_c, 0, 72, 72
1, 201877, Note_off_c, 0, 76, 69
1, 201886, Note_off_c, 0, 67, 71
1, 201896, Note_off_c, 0, 35, 58
1, 201904, Note_on_c, 0, 47, 5
1, 201905, Note_off_c, 0, 47, 127
1, 201957, Note_on_c, 0, 70, 88
1, 201962, Note_on_c, 0, 73, 84
1, 201963, Note_on_c, 0, 29, 70
1, 201964, Note_on_c, 0, 41, 72
1, 201965, Note_on_c, 0, 65, 76
1, 201981, Note_off_c, 0, 70, 62
1, 201981, Note_off_c, 0, 73, 72
1, 201985, Note_off_c, 0, 41, 65
1, 201987, Note_off_c, 0, 65, 71
1, 201993, Note_off_c, 0, 29, 55
1, 202054, Note_on_c, 0, 48, 81
1, 202059, Note_on_c, 0, 67, 84
1, 202072, Note_on_c, 0, 72, 70
1, 202084, Note_off_c, 0, 48, 69
1, 202085, Note_off_c, 0, 67, 74
1, 202087, Note_on_c, 0, 65, 42
1, 202088, Note_on_c, 0, 36, 37
1, 202088, Note_off_c, 0, 72, 68
1, 202088, Note_on_c, 0, 35, 48
1, 202089, Note_on_c, 0, 71, 44
1, 202094, Note_on_c, 0, 64, 26
1, 202116, Note_off_c, 0, 71, 61
1, 202119, Note_off_c, 0, 35, 54
1, 202121, Note_off_c, 0, 65, 31
1, 202125, Note_off_c, 0, 36, 46
1, 202127, Note_off_c, 0, 64, 37
1, 202165, Note_on_c, 0, 31, 84
1, 202166, Note_on_c, 0, 61, 90
1, 202166, Note_on_c, 0, 70, 87
1, 202172, Note_on_c, 0, 43, 66
1, 202176, Note_on_c, 0, 65, 70
1, 202184, Note_off_c, 0, 61, 72
1, 202187, Note_off_c, 0, 31, 68
1, 202187, Note_off_c, 0, 70, 68
1, 202188, Note_on_c, 0, 64, 64
1, 202193, Note_off_c, 0, 65, 70
1, 202196, Note_off_c, 0, 43, 57
1, 202205, Note_off_c, 0, 64, 64
1, 202207, Note_on_c, 0, 41, 13
1, 202208, Note_off_c, 0, 41, 127
1, 202257, Note_on_c, 0, 48, 90
1, 202258, Note_on_c, 0, 60, 92
1, 202258, Note_on_c, 0, 36, 77
1, 202260, Note_on_c, 0, 65, 87
1, 202269, Note_on_c, 0, 69, 63
1, 202278, Note_off_c, 0, 48, 72
1, 202284, Note_off_c, 0, 65, 68
1, 202286, Note_off_c, 0, 60, 65
1, 202288, Note_off_c, 0, 36, 64
1, 202288, Note_off_c, 0, 69, 67
1, 202300, Note_on_c, 0, 67, 20
1, 202301, Note_off_c, 0, 67, 127
1, 202357, Note_on_c, 0, 41, 90
1, 202360, Note_on_c, 0, 29, 89
1, 202362, Note_on_c, 0, 59, 84
1, 202365, Note_on_c, 0, 56, 86
1, 202366, Note_on_c, 0, 65, 72
1, 202372, Note_on_c, 0, 61, 42
1, 202372, Note_on_c, 0, 62, 70
1, 202375, Note_on_c, 0, 30, 57
1, 202376, Note_off_c, 0, 30, 127
1, 202376, Note_on_c, 0, 40, 56
1, 202382, Note_off_c, 0, 41, 68
1, 202385, Note_off_c, 0, 29, 65
1, 202387, Note_off_c, 0, 56, 69
1, 202387, Note_off_c, 0, 65, 59
1, 202390, Note_off_c, 0, 62, 67
1, 202392, Note_on_c, 0, 64, 38
1, 202398, Note_off_c, 0, 61, 58
1, 202398, Note_off_c, 0, 59, 64
1, 202410, Note_off_c, 0, 40, 58
1, 202421, Note_off_c, 0, 64, 53
1, 202454, Note_on_c, 0, 48, 94
1, 202460, Note_on_c, 0, 36, 83
1, 202461, Note_on_c, 0, 64, 84
1, 202463, Note_on_c, 0, 60, 84
1, 202465, Note_on_c, 0, 55, 81
1, 202474, Note_off_c, 0, 48, 74
1, 202480, Note_off_c, 0, 64, 71
1, 202483, Note_off_c, 0, 60, 72
1, 202487, Note_off_c, 0, 36, 63
1, 202488, Note_off_c, 0, 55, 71
1, 202549, Note_on_c, 0, 58, 90
1, 202550, Note_on_c, 0, 61, 90
1, 202553, Note_on_c, 0, 43, 91
1, 202554, Note_on_c, 0, 31, 89
1, 202575, Note_off_c, 0, 31, 68
1, 202577, Note_off_c, 0, 43, 67
1, 202583, Note_on_c, 0, 41, 45
1, 202584, Note_off_c, 0, 41, 127
1, 202584, Note_on_c, 0, 53, 47
1, 202589, Note_off_c, 0, 58, 63
1, 202593, Note_off_c, 0, 61, 62
1, 202615, Note_off_c, 0, 53, 35
1, 202646, Note_on_c, 0, 55, 93
1, 202649, Note_on_c, 0, 60, 89
1, 202652, Note_on_c, 0, 48, 78
1, 202652, Note_on_c, 0, 50, 73
1, 202658, Note_on_c, 0, 36, 70
1, 202658, Note_on_c, 0, 38, 62
1, 202667, Note_off_c, 0, 60, 73
1, 202669, Note_on_c, 0, 40, 51
1, 202670, Note_off_c, 0, 40, 127
1, 202670, Note_off_c, 0, 50, 66
1, 202670, Note_off_c, 0, 55, 68
1, 202679, Note_off_c, 0, 48, 68
1, 202688, Note_off_c, 0, 36, 65
1, 202692, Note_off_c, 0, 38, 64
1, 202706, Poly_aftertouch_c, 0, 40, 0
1, 202741, Note_on_c, 0, 58, 95
1, 202742, Note_on_c, 0, 43, 94
1, 202744, Note_on_c, 0, 53, 81
1, 202745, Note_on_c, 0, 49, 84
1, 202748, Note_on_c, 0, 31, 85
1, 202766, Note_off_c, 0, 49, 69
1, 202768, Note_off_c, 0, 53, 71
1, 202768, Note_off_c, 0, 43, 67
1, 202774, Note_on_c, 0, 32, 26
1, 202774, Note_off_c, 0, 31, 65
1, 202780, Note_off_c, 0, 58, 66
1, 202823, Note_off_c, 0, 32, 32
1, 202846, Note_on_c, 0, 52, 97
1, 202846, Note_on_c, 0, 55, 99
1, 202848, Note_on_c, 0, 48, 101
1, 202858, Note_on_c, 0, 36, 75
1, 202869, Note_on_c, 0, 39, 42
1, 202870, Note_off_c, 0, 39, 127
1, 202870, Note_off_c, 0, 55, 67
1, 202871, Note_off_c, 0, 48, 70
1, 202871, Note_off_c, 0, 52, 69
1, 202877, Note_on_c, 0, 54, 37
1, 202878, Note_off_c, 0, 54, 127
1, 202880, Note_off_c, 0, 36, 66
1, 202944, Poly_aftertouch_c, 0, 59, 0
1, 202959, Note_on_c, 0, 47, 117
1, 202962, Note_on_c, 0, 53, 95
1, 202963, Note_on_c, 0, 38, 101
1, 202963, Note_on_c, 0, 41, 100
1, 202964, Note_on_c, 0, 44, 95
1, 202967, Note_on_c, 0, 35, 83
1, 202971, Note_on_c, 0, 29, 93
1, 202977, Control_c, 0, 64, 43
1, 202983, Note_off_c, 0, 44, 68
1, 202984, Note_on_c, 0, 54, 67
1, 202985, Note_off_c, 0, 54, 127
1, 202985, Note_off_c, 0, 41, 72
1, 202987, Note_off_c, 0, 38, 70
1, 202989, Note_off_c, 0, 47, 67
1, 202989, Note_off_c, 0, 35, 68
1, 202992, Control_c, 0, 64, 127
1, 203001, Note_off_c, 0, 29, 62
1, 203009, Note_off_c, 0, 53, 67
1, 203017, Note_on_c, 0, 31, 26
1, 203018, Note_off_c, 0, 31, 127
1, 203063, Poly_aftertouch_c, 0, 31, 0
1, 203096, Control_c, 0, 64, 65
1, 203111, Control_c, 0, 64, 36
1, 203126, Control_c, 0, 64, 0
1, 203407, Note_on_c, 0, 44, 103
1, 203408, Note_on_c, 0, 41, 110
1, 203408, Note_on_c, 0, 47, 101
1, 203409, Note_on_c, 0, 38, 103
1, 203410, Note_on_c, 0, 50, 92
1, 203413, Note_on_c, 0, 35, 94
1, 203415, Note_on_c, 0, 29, 89
1, 203427, Note_on_c, 0, 32, 73
1, 203429, Note_off_c, 0, 44, 69
1, 203434, Note_off_c, 0, 41, 67
1, 203435, Note_off_c, 0, 38, 69
1, 203436, Note_off_c, 0, 47, 67
1, 203437, Control_c, 0, 64, 46
1, 203438, Note_off_c, 0, 35, 70
1, 203445, Note_off_c, 0, 50, 63
1, 203451, Note_off_c, 0, 29, 63
1, 203452, Control_c, 0, 64, 97
1, 203454, Note_off_c, 0, 32, 59
1, 203467, Control_c, 0, 64, 127
1, 203483, Note_on_c, 0, 34, 33
1, 203525, Note_off_c, 0, 34, 32
1, 203608, Control_c, 0, 64, 67
1, 203623, Control_c, 0, 64, 46
1, 203637, Control_c, 0, 64, 0
1, 203926, Note_on_c, 0, 47, 95
1, 203928, Note_on_c, 0, 44, 93
1, 203933, Note_on_c, 0, 41, 97
1, 203934, Note_on_c, 0, 38, 93
1, 203937, Note_on_c, 0, 29, 84
1, 203938, Note_on_c, 0, 35, 83
1, 203961, Note_off_c, 0, 41, 67
1, 203964, Note_off_c, 0, 38, 68
1, 203966, Note_on_c, 0, 40, 45
1, 203967, Note_off_c, 0, 44, 62
1, 203972, Note_off_c, 0, 35, 65
1, 203982, Note_off_c, 0, 29, 66
1, 203989, Note_off_c, 0, 47, 62
1, 204008, Note_off_c, 0, 40, 53
1, 204099, Note_on_c, 0, 47, 99
1, 204100, Note_on_c, 0, 56, 87
1, 204101, Note_on_c, 0, 41, 106
1, 204104, Note_on_c, 0, 38, 99
1, 204105, Note_on_c, 0, 44, 95
1, 204106, Note_on_c, 0, 29, 93
1, 204108, Note_on_c, 0, 35, 87
1, 204121, Note_on_c, 0, 54, 68
1, 204122, Note_off_c, 0, 54, 127
1, 204173, Note_off_c, 0, 44, 61
1, 204173, Note_off_c, 0, 56, 65
1, 204178, Note_off_c, 0, 41, 60
1, 204187, Note_off_c, 0, 38, 63
1, 204191, Note_off_c, 0, 35, 63
1, 204193, Note_off_c, 0, 47, 61
1, 204205, Note_off_c, 0, 29, 61
1, 204263, Note_on_c, 0, 47, 99
1, 204263, Note_on_c, 0, 53, 86
1, 204267, Note_on_c, 0, 44, 98
1, 204269, Note_on_c, 0, 43, 91
1, 204270, Note_on_c, 0, 38, 84
1, 204270, Note_on_c, 0, 41, 91
1, 204270, Note_on_c, 0, 29, 80
1, 204276, Control_c, 0, 64, 20
1, 204278, Note_on_c, 0, 40, 74
1, 204279, Note_on_c, 0, 35, 64
1, 204280, Note_on_c, 0, 36, 68
1, 204285, Note_off_c, 0, 44, 70
1, 204291, Note_off_c, 0, 43, 69
1, 204291, Control_c, 0, 64, 45
1, 204299, Note_on_c, 0, 31, 38
1, 204299, Note_off_c, 0, 47, 69
1, 204299, Note_off_c, 0, 53, 67
1, 204299, Note_off_c, 0, 38, 69
1, 204299, Note_off_c, 0, 40, 64
1, 204301, Note_on_c, 0, 32, 28
1, 204301, Note_off_c, 0, 41, 66
1, 204312, Control_c, 0, 64, 63
1, 204314, Note_off_c, 0, 35, 67
1, 204314, Note_off_c, 0, 36, 65
1, 204327, Control_c, 0, 64, 85
1, 204330, Note_off_c, 0, 29, 63
1, 204342, Control_c, 0, 64, 127
1, 204343, Note_off_c, 0, 31, 53
1, 204350, Note_off_c, 0, 32, 45
1, 204520, Control_c, 0, 64, 86
1, 204535, Control_c, 0, 64, 62
1, 204550, Control_c, 0, 64, 24
1, 204565, Control_c, 0, 64, 0
1, 205047, Note_on_c, 0, 32, 88
1, 205048, Note_on_c, 0, 44, 97
1, 205061, Control_c, 0, 64, 33
1, 205076, Control_c, 0, 64, 49
1, 205091, Control_c, 0, 64, 68
1, 205093, Note_off_c, 0, 32, 66
1, 205106, Note_off_c, 0, 44, 62
1, 205106, Control_c, 0, 64, 127
1, 205147, Note_on_c, 0, 31, 98
1, 205154, Note_on_c, 0, 43, 99
1, 205195, Note_off_c, 0, 31, 64
1, 205205, Note_off_c, 0, 43, 62
1, 205251, Note_on_c, 0, 30, 104
1, 205251, Note_on_c, 0, 42, 106
1, 205272, Poly_aftertouch_c, 0, 46, 0
1, 205290, Note_off_c, 0, 30, 66
1, 205290, Note_off_c, 0, 42, 66
1, 205345, Note_on_c, 0, 29, 85
1, 205353, Note_on_c, 0, 41, 99
1, 205407, Note_off_c, 0, 29, 61
1, 205413, Note_off_c, 0, 41, 62
1, 205525, Note_on_c, 0, 40, 103
1, 205525, Note_on_c, 0, 48, 98
1, 205527, Note_on_c, 0, 31, 100
1, 205527, Note_on_c, 0, 36, 107
1, 205530, Note_on_c, 0, 28, 95
1, 205532, Note_on_c, 0, 43, 96
1, 205534, Note_on_c, 0, 24, 98
1, 205559, Note_on_c, 0, 44, 31
1, 205565, Control_c, 0, 64, 92
1, 205580, Control_c, 0, 64, 59
1, 205582, Note_on_c, 0, 47, 34
1, 205590, Note_off_c, 0, 44, 53
1, 205595, Control_c, 0, 64, 20
1, 205610, Control_c, 0, 64, 0
1, 205618, Note_off_c, 0, 47, 54
1, 206017, Control_c, 0, 64, 13
1, 206032, Control_c, 0, 64, 22
1, 206047, Control_c, 0, 64, 34
1, 206062, Control_c, 0, 64, 46
1, 206077, Control_c, 0, 64, 58
1, 206091, Control_c, 0, 64, 66
1, 206106, Control_c, 0, 64, 71
1, 206121, Control_c, 0, 64, 73
1, 206136, Control_c, 0, 64, 74
1, 206151, Control_c, 0, 64, 76
1, 206165, Control_c, 0, 64, 79
1, 206180, Control_c, 0, 64, 85
1, 206195, Control_c, 0, 64, 95
1, 206209, Control_c, 0, 64, 107
1, 206224, Control_c, 0, 64, 127
1, 206261, Poly_aftertouch_c, 0, 47, 127
1, 206275, Poly_aftertouch_c, 0, 44, 127
1, 206834, Poly_aftertouch_c, 0, 26, 127
1, 206835, Poly_aftertouch_c, 0, 45, 0
1, 206983, Note_off_c, 0, 40, 66
1, 206990, Note_off_c, 0, 36, 60
1, 206998, Note_off_c, 0, 24, 60
1, 206998, Note_off_c, 0, 48, 62
1, 207000, Note_off_c, 0, 31, 61
1, 207006, Note_off_c, 0, 28, 65
1, 207015, Note_off_c, 0, 43, 60
1, 207022, Poly_aftertouch_c, 0, 47, 0
1, 207026, Poly_aftertouch_c, 0, 26, 0
1, 207039, Poly_aftertouch_c, 0, 44, 0
1, 207093, Control_c, 0, 64, 91
1, 207108, Control_c, 0, 64, 56
1, 207123, Control_c, 0, 64, 0
1, 207198, End_track
0, 0, End_of_file
