0, 0, Header, 0, 1, 384
1, 0, Start_track
1, 0, Title_t, "Valse-Caprice#6--Gasanov        "
1, 0, Text_t, "2009 International Piano-e-Competition finals"
1, 0, Text_t, "captured June-July 2009"
1, 0, Text_t, "http://www.piano-e-competition.com/"
1, 0, Text_t, "standard-resolution version"
1, 0, Text_t, "File processed for distribution by software from Zenph Studios, Inc., http://www.zenph.com"
1, 0, Instrument_name_t, "Yamaha Disklavier Pro Mark IV concert grand piano, model DCFIIISM4PRO"
1, 0, Sequencer_specific, 39, 67, 113, 0, 1, 0, 1, 0, 86, 97, 108, 115, 101, 45, 67, 97, 112, 114, 105, 99, 101, 35, 54, 32, 69, 108, 109, 97, 114, 32, 71, 97, 115, 97, 110, 111, 118, 32, 32, 32
1, 0, Sequencer_specific, 6, 67, 113, 0, 0, 0, 69
1, 0, System_exclusive, 21, 67, 113, 126, 21, 0, 2, 2, 2, 3, 12, 8, 4, 10, 4, 11, 14, 3, 9, 8, 0, 247
1, 0, Sequencer_specific, 5, 67, 123, 12, 2, 1
1, 0, Tempo, 512820
1, 0, Time_signature, 4, 2, 24, 8
1, 0, System_exclusive, 5, 126, 127, 9, 1, 247
1, 1, System_exclusive, 8, 67, 16, 76, 0, 0, 126, 0, 247
1, 2, System_exclusive, 8, 67, 16, 76, 8, 9, 7, 1, 247
1, 3, Control_c, 0, 0, 0
1, 3, Control_c, 1, 0, 0
1, 3, Control_c, 2, 0, 0
1, 3, Control_c, 3, 0, 0
1, 3, Control_c, 4, 0, 0
1, 3, Control_c, 5, 0, 0
1, 3, Control_c, 6, 0, 0
1, 3, Control_c, 7, 0, 0
1, 3, Control_c, 8, 0, 0
1, 3, Control_c, 9, 0, 127
1, 3, Control_c, 10, 0, 0
1, 3, Control_c, 11, 0, 0
1, 3, Control_c, 12, 0, 0
1, 3, Control_c, 13, 0, 0
1, 3, Control_c, 14, 0, 0
1, 3, Control_c, 15, 0, 0
1, 4, Control_c, 0, 32, 0
1, 4, Control_c, 1, 32, 0
1, 4, Control_c, 2, 32, 0
1, 4, Control_c, 3, 32, 0
1, 4, Control_c, 4, 32, 0
1, 4, Control_c, 5, 32, 0
1, 4, Control_c, 6, 32, 0
1, 4, Control_c, 7, 32, 0
1, 4, Control_c, 8, 32, 0
1, 4, Control_c, 9, 32, 0
1, 4, Control_c, 10, 32, 0
1, 4, Control_c, 11, 32, 0
1, 4, Control_c, 12, 32, 0
1, 4, Control_c, 13, 32, 0
1, 4, Control_c, 14, 32, 0
1, 4, Control_c, 15, 32, 0
1, 5, Program_c, 0, 0
1, 5, Program_c, 1, 0
1, 5, Program_c, 2, 0
1, 5, Program_c, 3, 0
1, 5, Program_c, 4, 0
1, 5, Program_c, 5, 0
1, 5, Program_c, 6, 0
1, 5, Program_c, 7, 0
1, 5, Program_c, 8, 0
1, 5, Program_c, 9, 0
1, 5, Program_c, 10, 0
1, 5, Program_c, 11, 0
1, 5, Program_c, 12, 0
1, 5, Program_c, 13, 0
1, 5, Program_c, 14, 0
1, 5, Program_c, 15, 0
1, 6, Control_c, 0, 7, 100
1, 6, Control_c, 1, 7, 100
1, 6, Control_c, 2, 7, 100
1, 6, Control_c, 3, 7, 100
1, 6, Control_c, 4, 7, 100
1, 6, Control_c, 5, 7, 100
1, 6, Control_c, 6, 7, 100
1, 6, Control_c, 7, 7, 100
1, 6, Control_c, 8, 7, 100
1, 6, Control_c, 9, 7, 100
1, 6, Control_c, 10, 7, 100
1, 6, Control_c, 11, 7, 100
1, 6, Control_c, 12, 7, 100
1, 6, Control_c, 13, 7, 100
1, 6, Control_c, 14, 7, 100
1, 6, Control_c, 15, 7, 100
1, 1129, Note_on_c, 0, 63, 92
1, 1133, Note_on_c, 0, 39, 77
1, 1134, Note_on_c, 0, 51, 79
1, 1196, Note_off_c, 0, 39, 62
1, 1199, Note_off_c, 0, 51, 63
1, 1233, Note_off_c, 0, 63, 58
1, 1498, Note_on_c, 0, 66, 97
1, 1502, Control_c, 0, 64, 57
1, 1507, Note_on_c, 0, 42, 85
1, 1509, Note_on_c, 0, 54, 81
1, 1516, Control_c, 0, 64, 84
1, 1531, Control_c, 0, 64, 127
1, 1549, Note_off_c, 0, 54, 62
1, 1574, Note_off_c, 0, 42, 60
1, 1615, Note_off_c, 0, 66, 54
1, 2022, Note_on_c, 0, 64, 95
1, 2030, Note_on_c, 0, 52, 76
1, 2031, Note_on_c, 0, 40, 76
1, 2065, Control_c, 0, 64, 95
1, 2066, Note_off_c, 0, 52, 61
1, 2068, Note_off_c, 0, 40, 64
1, 2079, Note_off_c, 0, 64, 65
1, 2080, Control_c, 0, 64, 74
1, 2095, Control_c, 0, 64, 0
1, 2125, Note_on_c, 0, 64, 90
1, 2128, Note_on_c, 0, 52, 70
1, 2131, Note_on_c, 0, 40, 75
1, 2157, Note_off_c, 0, 52, 66
1, 2166, Note_off_c, 0, 40, 68
1, 2183, Note_off_c, 0, 64, 66
1, 2229, Note_on_c, 0, 63, 91
1, 2243, Note_on_c, 0, 39, 84
1, 2244, Note_on_c, 0, 51, 77
1, 2271, Note_off_c, 0, 39, 62
1, 2272, Note_off_c, 0, 51, 68
1, 2280, Note_off_c, 0, 63, 64
1, 2325, Control_c, 0, 64, 76
1, 2326, Note_on_c, 0, 63, 98
1, 2330, Note_on_c, 0, 51, 90
1, 2333, Note_on_c, 0, 39, 91
1, 2340, Control_c, 0, 64, 127
1, 2362, Note_off_c, 0, 51, 64
1, 2365, Note_off_c, 0, 39, 61
1, 2372, Note_off_c, 0, 63, 62
1, 2577, Control_c, 0, 64, 89
1, 2592, Note_on_c, 0, 63, 99
1, 2592, Control_c, 0, 64, 45
1, 2596, Note_on_c, 0, 51, 90
1, 2597, Note_on_c, 0, 39, 83
1, 2607, Control_c, 0, 64, 0
1, 2640, Note_off_c, 0, 51, 62
1, 2649, Note_off_c, 0, 63, 62
1, 2650, Note_off_c, 0, 39, 59
1, 2867, Note_on_c, 0, 63, 103
1, 2872, Note_on_c, 0, 51, 91
1, 2873, Note_on_c, 0, 39, 75
1, 2888, Control_c, 0, 64, 82
1, 2899, Note_off_c, 0, 39, 66
1, 2900, Note_off_c, 0, 51, 65
1, 2903, Note_off_c, 0, 63, 67
1, 2903, Control_c, 0, 64, 127
1, 3197, Note_on_c, 0, 54, 86
1, 3201, Note_on_c, 0, 66, 96
1, 3205, Note_on_c, 0, 81, 96
1, 3207, Note_on_c, 0, 75, 96
1, 3210, Note_on_c, 0, 60, 85
1, 3210, Note_on_c, 0, 69, 99
1, 3221, Note_off_c, 0, 66, 70
1, 3228, Note_off_c, 0, 60, 74
1, 3229, Note_off_c, 0, 54, 67
1, 3232, Note_off_c, 0, 69, 68
1, 3234, Note_off_c, 0, 81, 63
1, 3236, Note_off_c, 0, 75, 68
1, 3896, Control_c, 0, 64, 109
1, 3911, Control_c, 0, 64, 73
1, 3925, Control_c, 0, 64, 0
1, 4468, Note_on_c, 0, 60, 100
1, 4470, Note_on_c, 0, 36, 80
1, 4471, Note_on_c, 0, 48, 85
1, 4525, Note_off_c, 0, 48, 63
1, 4525, Note_off_c, 0, 36, 60
1, 4565, Note_off_c, 0, 60, 57
1, 4817, Note_on_c, 0, 63, 104
1, 4823, Note_on_c, 0, 39, 89
1, 4823, Control_c, 0, 64, 67
1, 4824, Note_on_c, 0, 51, 89
1, 4838, Control_c, 0, 64, 90
1, 4853, Control_c, 0, 64, 127
1, 4873, Note_off_c, 0, 51, 63
1, 4875, Note_off_c, 0, 63, 68
1, 4908, Note_off_c, 0, 39, 49
1, 5294, Note_on_c, 0, 62, 93
1, 5302, Note_on_c, 0, 50, 74
1, 5303, Note_on_c, 0, 38, 74
1, 5335, Control_c, 0, 64, 110
1, 5338, Note_off_c, 0, 50, 64
1, 5345, Note_off_c, 0, 62, 65
1, 5349, Note_off_c, 0, 38, 62
1, 5350, Control_c, 0, 64, 85
1, 5365, Control_c, 0, 64, 66
1, 5380, Control_c, 0, 64, 0
1, 5401, Note_on_c, 0, 50, 70
1, 5403, Note_on_c, 0, 38, 75
1, 5404, Note_on_c, 0, 62, 95
1, 5435, Note_off_c, 0, 50, 64
1, 5447, Note_off_c, 0, 38, 64
1, 5457, Note_off_c, 0, 62, 63
1, 5493, Note_on_c, 0, 60, 96
1, 5503, Note_on_c, 0, 48, 85
1, 5505, Note_on_c, 0, 36, 88
1, 5539, Note_off_c, 0, 48, 63
1, 5545, Note_off_c, 0, 36, 62
1, 5547, Note_off_c, 0, 60, 67
1, 5587, Control_c, 0, 64, 34
1, 5599, Note_on_c, 0, 60, 99
1, 5602, Note_on_c, 0, 48, 92
1, 5602, Control_c, 0, 64, 86
1, 5603, Note_on_c, 0, 36, 91
1, 5617, Control_c, 0, 64, 127
1, 5639, Note_off_c, 0, 60, 69
1, 5642, Note_off_c, 0, 48, 65
1, 5646, Note_off_c, 0, 36, 64
1, 5839, Control_c, 0, 64, 111
1, 5854, Note_on_c, 0, 60, 108
1, 5854, Control_c, 0, 64, 72
1, 5860, Note_on_c, 0, 48, 92
1, 5861, Note_on_c, 0, 36, 84
1, 5869, Control_c, 0, 64, 0
1, 5898, Note_off_c, 0, 60, 66
1, 5913, Note_off_c, 0, 36, 56
1, 5919, Note_off_c, 0, 48, 56
1, 6137, Note_on_c, 0, 60, 109
1, 6144, Note_on_c, 0, 48, 98
1, 6145, Note_on_c, 0, 36, 79
1, 6158, Control_c, 0, 64, 85
1, 6164, Note_off_c, 0, 60, 71
1, 6171, Note_off_c, 0, 36, 64
1, 6173, Control_c, 0, 64, 127
1, 6182, Note_off_c, 0, 48, 65
1, 6464, Note_on_c, 0, 57, 84
1, 6466, Note_on_c, 0, 84, 99
1, 6469, Note_on_c, 0, 78, 98
1, 6470, Note_on_c, 0, 69, 97
1, 6472, Note_on_c, 0, 72, 101
1, 6474, Note_on_c, 0, 63, 96
1, 6495, Note_off_c, 0, 84, 69
1, 6496, Note_off_c, 0, 72, 66
1, 6497, Note_off_c, 0, 69, 66
1, 6499, Note_off_c, 0, 78, 69
1, 6500, Note_off_c, 0, 57, 65
1, 6509, Note_off_c, 0, 63, 68
1, 7173, Control_c, 0, 64, 104
1, 7188, Control_c, 0, 64, 68
1, 7203, Control_c, 0, 64, 0
1, 7726, Note_on_c, 0, 33, 79
1, 7726, Note_on_c, 0, 57, 94
1, 7730, Note_on_c, 0, 45, 83
1, 7781, Note_off_c, 0, 45, 65
1, 7782, Note_off_c, 0, 33, 60
1, 7823, Note_off_c, 0, 57, 58
1, 8083, Note_on_c, 0, 60, 97
1, 8095, Note_on_c, 0, 48, 86
1, 8097, Note_on_c, 0, 36, 84
1, 8100, Control_c, 0, 64, 49
1, 8115, Control_c, 0, 64, 76
1, 8130, Control_c, 0, 64, 121
1, 8145, Control_c, 0, 64, 127
1, 8197, Poly_aftertouch_c, 0, 62, 0
1, 8303, Note_off_c, 0, 60, 60
1, 8311, Note_off_c, 0, 48, 56
1, 8325, Note_off_c, 0, 36, 53
1, 8592, Note_on_c, 0, 59, 96
1, 8595, Note_on_c, 0, 47, 78
1, 8598, Note_on_c, 0, 35, 77
1, 8641, Control_c, 0, 64, 92
1, 8642, Note_off_c, 0, 35, 62
1, 8645, Note_off_c, 0, 59, 63
1, 8647, Note_off_c, 0, 47, 63
1, 8656, Control_c, 0, 64, 69
1, 8671, Control_c, 0, 64, 0
1, 8700, Note_on_c, 0, 47, 69
1, 8700, Note_on_c, 0, 59, 96
1, 8701, Note_on_c, 0, 35, 76
1, 8734, Note_off_c, 0, 47, 66
1, 8742, Note_off_c, 0, 35, 63
1, 8751, Note_off_c, 0, 59, 65
1, 8798, Note_on_c, 0, 57, 96
1, 8800, Note_on_c, 0, 45, 80
1, 8802, Note_on_c, 0, 33, 83
1, 8839, Note_off_c, 0, 45, 64
1, 8844, Note_off_c, 0, 57, 67
1, 8846, Note_off_c, 0, 33, 59
1, 8900, Note_on_c, 0, 33, 83
1, 8900, Note_on_c, 0, 57, 98
1, 8904, Note_on_c, 0, 45, 80
1, 8908, Control_c, 0, 64, 71
1, 8923, Control_c, 0, 64, 97
1, 8937, Note_off_c, 0, 45, 67
1, 8938, Control_c, 0, 64, 127
1, 8939, Note_off_c, 0, 57, 68
1, 8948, Note_off_c, 0, 33, 61
1, 9150, Note_on_c, 0, 57, 94
1, 9153, Control_c, 0, 64, 83
1, 9160, Note_on_c, 0, 45, 80
1, 9160, Note_on_c, 0, 33, 79
1, 9168, Control_c, 0, 64, 0
1, 9190, Note_off_c, 0, 57, 67
1, 9205, Note_off_c, 0, 45, 62
1, 9207, Note_off_c, 0, 33, 58
1, 9407, Note_on_c, 0, 57, 93
1, 9412, Note_on_c, 0, 33, 82
1, 9414, Note_on_c, 0, 45, 81
1, 9444, Note_off_c, 0, 45, 68
1, 9455, Note_off_c, 0, 33, 59
1, 9467, Note_off_c, 0, 57, 59
1, 9666, Note_on_c, 0, 65, 100
1, 9668, Note_on_c, 0, 60, 94
1, 9672, Note_on_c, 0, 57, 86
1, 9683, Note_on_c, 0, 41, 90
1, 9684, Note_on_c, 0, 29, 83
1, 9687, Control_c, 0, 64, 75
1, 9709, Control_c, 0, 64, 108
1, 9722, Note_off_c, 0, 57, 61
1, 9724, Control_c, 0, 64, 127
1, 9726, Note_off_c, 0, 29, 67
1, 9726, Note_off_c, 0, 60, 64
1, 9729, Note_off_c, 0, 65, 60
1, 9741, Note_off_c, 0, 41, 62
1, 9961, Control_c, 0, 64, 85
1, 9961, Note_on_c, 0, 65, 97
1, 9962, Note_on_c, 0, 60, 92
1, 9964, Note_on_c, 0, 33, 81
1, 9966, Note_on_c, 0, 45, 83
1, 9966, Note_on_c, 0, 57, 82
1, 9976, Control_c, 0, 64, 0
1, 9995, Note_off_c, 0, 45, 67
1, 10000, Note_off_c, 0, 60, 64
1, 10000, Note_off_c, 0, 65, 61
1, 10003, Note_off_c, 0, 57, 60
1, 10005, Note_off_c, 0, 33, 61
1, 10265, Note_on_c, 0, 65, 86
1, 10268, Note_on_c, 0, 57, 75
1, 10268, Note_on_c, 0, 60, 81
1, 10274, Note_on_c, 0, 29, 81
1, 10274, Note_on_c, 0, 41, 79
1, 10310, Note_off_c, 0, 29, 67
1, 10310, Note_off_c, 0, 65, 62
1, 10312, Note_off_c, 0, 41, 64
1, 10321, Note_off_c, 0, 60, 57
1, 10334, Note_off_c, 0, 57, 55
1, 10623, Note_on_c, 0, 64, 76
1, 10626, Note_on_c, 0, 60, 72
1, 10628, Note_on_c, 0, 55, 70
1, 10645, Note_on_c, 0, 36, 66
1, 10650, Control_c, 0, 64, 42
1, 10654, Note_on_c, 0, 48, 58
1, 10665, Control_c, 0, 64, 68
1, 10674, Note_off_c, 0, 36, 62
1, 10680, Control_c, 0, 64, 83
1, 10680, Note_off_c, 0, 48, 60
1, 10695, Control_c, 0, 64, 127
1, 10706, Note_off_c, 0, 55, 60
1, 10733, Note_off_c, 0, 60, 59
1, 10749, Note_off_c, 0, 64, 64
1, 11250, Note_on_c, 0, 76, 81
1, 11251, Control_c, 0, 64, 88
1, 11265, Note_on_c, 0, 64, 68
1, 11266, Control_c, 0, 64, 65
1, 11269, Note_on_c, 0, 72, 66
1, 11274, Note_on_c, 0, 52, 55
1, 11274, Note_on_c, 0, 60, 43
1, 11281, Control_c, 0, 64, 0
1, 11302, Note_off_c, 0, 60, 58
1, 11307, Note_on_c, 0, 55, 7
1, 11308, Note_off_c, 0, 64, 58
1, 11320, Note_off_c, 0, 72, 59
1, 11326, Note_off_c, 0, 52, 61
1, 11359, Note_off_c, 0, 55, 34
1, 11361, Note_off_c, 0, 76, 53
1, 11626, Note_on_c, 0, 76, 80
1, 11643, Note_on_c, 0, 65, 64
1, 11649, Note_on_c, 0, 72, 61
1, 11651, Note_on_c, 0, 38, 55
1, 11651, Control_c, 0, 64, 66
1, 11657, Note_on_c, 0, 50, 49
1, 11666, Control_c, 0, 64, 83
1, 11681, Note_off_c, 0, 38, 58
1, 11681, Control_c, 0, 64, 127
1, 11694, Note_off_c, 0, 50, 66
1, 11697, Note_off_c, 0, 65, 57
1, 11724, Note_off_c, 0, 76, 62
1, 11739, Note_off_c, 0, 72, 59
1, 12036, Note_on_c, 0, 50, 60
1, 12049, Note_on_c, 0, 59, 40
1, 12051, Note_on_c, 0, 53, 48
1, 12063, Note_off_c, 0, 50, 67
1, 12078, Note_off_c, 0, 53, 64
1, 12081, Note_off_c, 0, 59, 52
1, 12143, Note_on_c, 0, 74, 75
1, 12150, Note_on_c, 0, 71, 70
1, 12153, Note_on_c, 0, 65, 70
1, 12178, Note_off_c, 0, 74, 61
1, 12185, Note_off_c, 0, 71, 61
1, 12191, Note_off_c, 0, 65, 60
1, 12192, Control_c, 0, 64, 90
1, 12207, Control_c, 0, 64, 65
1, 12222, Control_c, 0, 64, 0
1, 12248, Note_on_c, 0, 74, 74
1, 12256, Note_on_c, 0, 71, 62
1, 12261, Note_on_c, 0, 65, 60
1, 12283, Note_off_c, 0, 71, 68
1, 12287, Note_off_c, 0, 74, 62
1, 12299, Note_off_c, 0, 65, 58
1, 12334, Note_on_c, 0, 72, 80
1, 12343, Note_on_c, 0, 69, 72
1, 12353, Note_on_c, 0, 65, 44
1, 12370, Note_off_c, 0, 69, 67
1, 12379, Note_off_c, 0, 72, 63
1, 12383, Note_off_c, 0, 65, 64
1, 12438, Note_on_c, 0, 72, 79
1, 12452, Note_on_c, 0, 69, 77
1, 12454, Note_on_c, 0, 40, 67
1, 12456, Note_on_c, 0, 64, 70
1, 12459, Control_c, 0, 64, 60
1, 12459, Note_on_c, 0, 52, 67
1, 12474, Control_c, 0, 64, 79
1, 12480, Note_off_c, 0, 69, 59
1, 12482, Note_off_c, 0, 64, 69
1, 12487, Note_off_c, 0, 40, 64
1, 12488, Note_off_c, 0, 52, 65
1, 12489, Control_c, 0, 64, 127
1, 12491, Note_off_c, 0, 72, 62
1, 12704, Control_c, 0, 64, 93
1, 12708, Note_on_c, 0, 72, 77
1, 12710, Note_on_c, 0, 69, 74
1, 12711, Note_on_c, 0, 52, 64
1, 12716, Note_on_c, 0, 64, 67
1, 12719, Control_c, 0, 64, 61
1, 12724, Note_on_c, 0, 57, 58
1, 12726, Note_on_c, 0, 60, 52
1, 12734, Note_off_c, 0, 69, 66
1, 12734, Control_c, 0, 64, 0
1, 12740, Note_off_c, 0, 72, 65
1, 12745, Note_off_c, 0, 64, 68
1, 12747, Note_off_c, 0, 52, 61
1, 12754, Note_off_c, 0, 57, 63
1, 12754, Note_off_c, 0, 60, 66
1, 12964, Note_on_c, 0, 72, 76
1, 12972, Note_on_c, 0, 69, 73
1, 12973, Note_on_c, 0, 52, 59
1, 12984, Note_on_c, 0, 64, 58
1, 12986, Note_on_c, 0, 57, 45
1, 12988, Note_on_c, 0, 60, 24
1, 13000, Note_off_c, 0, 69, 65
1, 13001, Note_off_c, 0, 72, 56
1, 13010, Note_off_c, 0, 52, 62
1, 13014, Note_off_c, 0, 57, 55
1, 13016, Note_off_c, 0, 64, 64
1, 13026, Note_off_c, 0, 60, 49
1, 13216, Note_on_c, 0, 71, 73
1, 13223, Control_c, 0, 64, 26
1, 13223, Note_on_c, 0, 68, 64
1, 13225, Note_on_c, 0, 64, 62
1, 13233, Note_on_c, 0, 40, 65
1, 13237, Control_c, 0, 64, 68
1, 13243, Note_on_c, 0, 52, 56
1, 13252, Note_off_c, 0, 68, 66
1, 13252, Control_c, 0, 64, 84
1, 13253, Note_off_c, 0, 64, 68
1, 13259, Note_off_c, 0, 71, 64
1, 13265, Note_off_c, 0, 40, 64
1, 13267, Control_c, 0, 64, 127
1, 13273, Note_off_c, 0, 52, 59
1, 13515, Note_on_c, 0, 52, 61
1, 13523, Note_on_c, 0, 71, 74
1, 13528, Note_on_c, 0, 68, 68
1, 13533, Note_on_c, 0, 59, 55
1, 13535, Note_on_c, 0, 64, 63
1, 13536, Note_on_c, 0, 62, 41
1, 13541, Control_c, 0, 64, 93
1, 13556, Control_c, 0, 64, 71
1, 13556, Note_off_c, 0, 52, 58
1, 13559, Note_off_c, 0, 71, 61
1, 13561, Note_off_c, 0, 68, 58
1, 13568, Note_off_c, 0, 59, 61
1, 13570, Note_off_c, 0, 62, 54
1, 13570, Note_off_c, 0, 64, 64
1, 13571, Control_c, 0, 64, 0
1, 13612, Note_on_c, 0, 72, 75
1, 13622, Note_on_c, 0, 69, 64
1, 13628, Note_on_c, 0, 64, 53
1, 13653, Note_off_c, 0, 69, 63
1, 13660, Note_off_c, 0, 64, 66
1, 13661, Note_off_c, 0, 72, 61
1, 13718, Note_on_c, 0, 71, 68
1, 13732, Note_on_c, 0, 52, 59
1, 13737, Note_on_c, 0, 59, 54
1, 13737, Note_on_c, 0, 68, 55
1, 13740, Note_on_c, 0, 64, 61
1, 13762, Note_off_c, 0, 59, 59
1, 13763, Note_off_c, 0, 71, 62
1, 13769, Note_off_c, 0, 68, 63
1, 13775, Note_off_c, 0, 64, 62
1, 13777, Note_off_c, 0, 52, 62
1, 14020, Note_on_c, 0, 69, 54
1, 14026, Note_on_c, 0, 64, 53
1, 14033, Note_on_c, 0, 60, 44
1, 14043, Note_on_c, 0, 45, 38
1, 14051, Note_on_c, 0, 57, 39
1, 14059, Control_c, 0, 64, 65
1, 14067, Note_on_c, 0, 52, 37
1, 14074, Control_c, 0, 64, 77
1, 14089, Control_c, 0, 64, 103
1, 14103, Control_c, 0, 64, 127
1, 14130, Note_off_c, 0, 57, 53
1, 14172, Note_off_c, 0, 52, 0
1, 14201, Note_off_c, 0, 60, 54
1, 14215, Note_off_c, 0, 69, 60
1, 14248, Poly_aftertouch_c, 0, 52, 0
1, 14249, Note_off_c, 0, 64, 63
1, 14279, Note_off_c, 0, 45, 42
1, 14498, Control_c, 0, 64, 91
1, 14513, Control_c, 0, 64, 66
1, 14527, Control_c, 0, 64, 0
1, 14624, Note_on_c, 0, 57, 99
1, 14630, Note_on_c, 0, 33, 80
1, 14631, Note_on_c, 0, 45, 90
1, 14684, Note_off_c, 0, 45, 65
1, 14686, Note_off_c, 0, 33, 60
1, 14741, Note_off_c, 0, 57, 57
1, 14993, Note_on_c, 0, 60, 100
1, 15006, Note_on_c, 0, 48, 88
1, 15010, Note_on_c, 0, 36, 83
1, 15024, Control_c, 0, 64, 71
1, 15039, Control_c, 0, 64, 97
1, 15054, Control_c, 0, 64, 127
1, 15118, Poly_aftertouch_c, 0, 62, 0
1, 15195, Note_off_c, 0, 60, 61
1, 15241, Note_off_c, 0, 48, 57
1, 15253, Note_off_c, 0, 36, 53
1, 15467, Note_on_c, 0, 59, 101
1, 15479, Note_on_c, 0, 35, 73
1, 15480, Note_on_c, 0, 47, 75
1, 15521, Note_off_c, 0, 35, 63
1, 15523, Note_off_c, 0, 59, 63
1, 15524, Note_off_c, 0, 47, 63
1, 15528, Control_c, 0, 64, 86
1, 15542, Control_c, 0, 64, 59
1, 15557, Control_c, 0, 64, 0
1, 15573, Note_on_c, 0, 59, 99
1, 15583, Note_on_c, 0, 47, 65
1, 15585, Note_on_c, 0, 35, 74
1, 15613, Note_off_c, 0, 47, 66
1, 15617, Note_off_c, 0, 35, 68
1, 15625, Note_off_c, 0, 59, 65
1, 15668, Note_on_c, 0, 57, 92
1, 15677, Note_on_c, 0, 45, 81
1, 15680, Note_on_c, 0, 33, 84
1, 15727, Note_off_c, 0, 45, 62
1, 15728, Note_off_c, 0, 33, 61
1, 15732, Note_off_c, 0, 57, 64
1, 15777, Note_on_c, 0, 57, 95
1, 15788, Control_c, 0, 64, 72
1, 15790, Note_on_c, 0, 33, 90
1, 15793, Note_on_c, 0, 45, 82
1, 15803, Control_c, 0, 64, 103
1, 15818, Control_c, 0, 64, 127
1, 15822, Note_off_c, 0, 57, 68
1, 15826, Note_off_c, 0, 45, 65
1, 15837, Note_off_c, 0, 33, 61
1, 16028, Note_on_c, 0, 57, 93
1, 16037, Note_on_c, 0, 33, 77
1, 16037, Note_on_c, 0, 45, 82
1, 16039, Control_c, 0, 64, 84
1, 16054, Control_c, 0, 64, 38
1, 16067, Note_off_c, 0, 57, 68
1, 16069, Control_c, 0, 64, 0
1, 16084, Note_off_c, 0, 45, 60
1, 16098, Note_off_c, 0, 33, 59
1, 16275, Note_on_c, 0, 57, 91
1, 16283, Note_on_c, 0, 45, 89
1, 16285, Note_on_c, 0, 33, 79
1, 16326, Note_off_c, 0, 33, 60
1, 16329, Note_off_c, 0, 45, 64
1, 16395, Note_off_c, 0, 57, 52
1, 16548, Note_on_c, 0, 69, 95
1, 16551, Note_on_c, 0, 57, 99
1, 16552, Note_on_c, 0, 60, 96
1, 16552, Control_c, 0, 64, 23
1, 16552, Note_on_c, 0, 65, 92
1, 16559, Note_on_c, 0, 29, 88
1, 16559, Note_on_c, 0, 41, 93
1, 16567, Control_c, 0, 64, 83
1, 16582, Control_c, 0, 64, 127
1, 16593, Note_off_c, 0, 29, 68
1, 16599, Note_off_c, 0, 57, 62
1, 16607, Note_off_c, 0, 41, 63
1, 16609, Note_off_c, 0, 69, 59
1, 16622, Note_off_c, 0, 60, 55
1, 16624, Note_off_c, 0, 65, 59
1, 16834, Note_on_c, 0, 69, 92
1, 16837, Note_on_c, 0, 57, 86
1, 16837, Note_on_c, 0, 60, 88
1, 16839, Note_on_c, 0, 65, 85
1, 16841, Note_on_c, 0, 33, 82
1, 16841, Note_on_c, 0, 45, 90
1, 16847, Control_c, 0, 64, 90
1, 16862, Control_c, 0, 64, 54
1, 16874, Note_off_c, 0, 45, 65
1, 16877, Control_c, 0, 64, 0
1, 16883, Note_off_c, 0, 33, 60
1, 16890, Note_off_c, 0, 57, 57
1, 16894, Note_off_c, 0, 69, 56
1, 16901, Note_off_c, 0, 65, 60
1, 16904, Note_off_c, 0, 60, 58
1, 17129, Note_on_c, 0, 69, 92
1, 17133, Note_on_c, 0, 60, 89
1, 17135, Note_on_c, 0, 57, 91
1, 17136, Note_on_c, 0, 65, 84
1, 17145, Note_on_c, 0, 41, 88
1, 17146, Note_on_c, 0, 29, 88
1, 17177, Note_off_c, 0, 29, 69
1, 17178, Note_off_c, 0, 69, 63
1, 17184, Note_off_c, 0, 41, 64
1, 17203, Note_off_c, 0, 65, 63
1, 17207, Note_off_c, 0, 57, 59
1, 17235, Note_off_c, 0, 60, 52
1, 17494, Note_on_c, 0, 67, 83
1, 17497, Note_on_c, 0, 64, 75
1, 17500, Note_on_c, 0, 60, 69
1, 17501, Note_on_c, 0, 55, 71
1, 17514, Note_on_c, 0, 36, 59
1, 17516, Note_on_c, 0, 48, 59
1, 17537, Control_c, 0, 64, 43
1, 17552, Control_c, 0, 64, 67
1, 17567, Control_c, 0, 64, 85
1, 17582, Control_c, 0, 64, 127
1, 17614, Note_off_c, 0, 55, 60
1, 17615, Note_off_c, 0, 36, 55
1, 17627, Note_off_c, 0, 48, 53
1, 17652, Note_off_c, 0, 60, 52
1, 17667, Note_off_c, 0, 67, 60
1, 17677, Note_off_c, 0, 64, 62
1, 18198, Control_c, 0, 64, 105
1, 18213, Control_c, 0, 64, 80
1, 18227, Control_c, 0, 64, 37
1, 18242, Control_c, 0, 64, 0
1, 18242, Note_on_c, 0, 79, 72
1, 18263, Note_on_c, 0, 67, 57
1, 18269, Note_on_c, 0, 52, 37
1, 18277, Note_on_c, 0, 60, 27
1, 18287, Note_on_c, 0, 76, 47
1, 18301, Control_c, 0, 64, 54
1, 18306, Note_on_c, 0, 55, 16
1, 18313, Note_off_c, 0, 60, 56
1, 18316, Control_c, 0, 64, 74
1, 18327, Note_off_c, 0, 67, 55
1, 18331, Control_c, 0, 64, 94
1, 18345, Note_off_c, 0, 76, 51
1, 18346, Control_c, 0, 64, 127
1, 18353, Note_off_c, 0, 55, 50
1, 18368, Note_off_c, 0, 79, 60
1, 18371, Note_off_c, 0, 52, 55
1, 18657, Control_c, 0, 64, 93
1, 18672, Control_c, 0, 64, 69
1, 18681, Note_on_c, 0, 79, 73
1, 18687, Control_c, 0, 64, 0
1, 18714, Note_on_c, 0, 67, 54
1, 18725, Note_on_c, 0, 38, 45
1, 18728, Note_on_c, 0, 50, 36
1, 18731, Note_on_c, 0, 76, 48
1, 18738, Control_c, 0, 64, 45
1, 18752, Control_c, 0, 64, 67
1, 18762, Note_off_c, 0, 38, 61
1, 18764, Note_off_c, 0, 50, 62
1, 18767, Control_c, 0, 64, 79
1, 18782, Control_c, 0, 64, 102
1, 18797, Control_c, 0, 64, 127
1, 18844, Note_off_c, 0, 67, 54
1, 18870, Note_off_c, 0, 79, 60
1, 18894, Note_off_c, 0, 76, 61
1, 19117, Note_on_c, 0, 53, 45
1, 19134, Note_on_c, 0, 50, 50
1, 19135, Note_on_c, 0, 59, 39
1, 19167, Note_off_c, 0, 50, 65
1, 19168, Note_off_c, 0, 59, 61
1, 19178, Note_off_c, 0, 53, 65
1, 19233, Note_on_c, 0, 77, 69
1, 19241, Note_on_c, 0, 74, 66
1, 19243, Note_on_c, 0, 65, 64
1, 19271, Note_off_c, 0, 77, 55
1, 19273, Note_off_c, 0, 74, 63
1, 19274, Note_off_c, 0, 65, 64
1, 19331, Control_c, 0, 64, 112
1, 19342, Note_on_c, 0, 77, 70
1, 19346, Control_c, 0, 64, 84
1, 19358, Note_on_c, 0, 65, 63
1, 19361, Control_c, 0, 64, 57
1, 19366, Note_off_c, 0, 77, 66
1, 19375, Note_off_c, 0, 65, 68
1, 19375, Control_c, 0, 64, 0
1, 19381, Note_on_c, 0, 74, 33
1, 19385, Note_off_c, 0, 74, 49
1, 19445, Note_on_c, 0, 76, 74
1, 19453, Note_on_c, 0, 72, 65
1, 19465, Note_on_c, 0, 64, 63
1, 19479, Note_off_c, 0, 72, 65
1, 19483, Note_off_c, 0, 76, 56
1, 19498, Note_off_c, 0, 64, 63
1, 19554, Note_on_c, 0, 76, 71
1, 19561, Control_c, 0, 64, 46
1, 19566, Note_on_c, 0, 64, 71
1, 19569, Note_on_c, 0, 72, 68
1, 19575, Note_on_c, 0, 40, 55
1, 19575, Control_c, 0, 64, 72
1, 19578, Note_on_c, 0, 52, 60
1, 19581, Note_off_c, 0, 76, 66
1, 19590, Control_c, 0, 64, 99
1, 19592, Note_off_c, 0, 64, 69
1, 19593, Note_off_c, 0, 72, 69
1, 19604, Note_off_c, 0, 52, 61
1, 19605, Note_off_c, 0, 40, 55
1, 19605, Control_c, 0, 64, 127
1, 19813, Control_c, 0, 64, 118
1, 19828, Note_on_c, 0, 52, 60
1, 19828, Note_on_c, 0, 76, 63
1, 19828, Control_c, 0, 64, 78
1, 19833, Note_on_c, 0, 64, 60
1, 19836, Note_on_c, 0, 69, 58
1, 19837, Note_on_c, 0, 72, 56
1, 19839, Note_on_c, 0, 57, 53
1, 19842, Note_on_c, 0, 60, 45
1, 19843, Control_c, 0, 64, 0
1, 19863, Note_off_c, 0, 64, 64
1, 19866, Note_off_c, 0, 72, 67
1, 19867, Note_off_c, 0, 52, 62
1, 19868, Note_off_c, 0, 69, 64
1, 19869, Note_off_c, 0, 76, 56
1, 19873, Note_off_c, 0, 57, 63
1, 19873, Note_off_c, 0, 60, 65
1, 20102, Note_on_c, 0, 76, 61
1, 20107, Note_on_c, 0, 64, 57
1, 20114, Note_on_c, 0, 69, 54
1, 20119, Note_on_c, 0, 52, 45
1, 20122, Note_on_c, 0, 72, 53
1, 20140, Note_off_c, 0, 64, 64
1, 20143, Note_off_c, 0, 76, 61
1, 20153, Note_off_c, 0, 69, 64
1, 20156, Poly_aftertouch_c, 0, 60, 127
1, 20165, Note_off_c, 0, 52, 63
1, 20165, Note_off_c, 0, 72, 63
1, 20193, Poly_aftertouch_c, 0, 60, 0
1, 20392, Note_on_c, 0, 80, 63
1, 20399, Control_c, 0, 64, 52
1, 20402, Note_on_c, 0, 68, 62
1, 20404, Note_on_c, 0, 76, 53
1, 20406, Note_on_c, 0, 40, 45
1, 20412, Note_on_c, 0, 71, 53
1, 20414, Control_c, 0, 64, 71
1, 20429, Control_c, 0, 64, 87
1, 20436, Note_off_c, 0, 68, 62
1, 20441, Note_off_c, 0, 40, 58
1, 20442, Note_off_c, 0, 71, 66
1, 20442, Note_off_c, 0, 76, 63
1, 20444, Control_c, 0, 64, 127
1, 20449, Note_off_c, 0, 80, 61
1, 20457, Poly_aftertouch_c, 0, 52, 127
1, 20492, Poly_aftertouch_c, 0, 52, 0
1, 20679, Note_on_c, 0, 80, 57
1, 20684, Note_on_c, 0, 68, 61
1, 20687, Note_on_c, 0, 52, 51
1, 20696, Note_on_c, 0, 62, 42
1, 20696, Note_on_c, 0, 71, 46
1, 20698, Note_off_c, 0, 80, 64
1, 20701, Note_on_c, 0, 59, 47
1, 20714, Note_off_c, 0, 68, 62
1, 20714, Note_on_c, 0, 76, 17
1, 20738, Note_off_c, 0, 71, 43
1, 20741, Note_off_c, 0, 62, 58
1, 20743, Note_off_c, 0, 52, 56
1, 20743, Note_off_c, 0, 59, 57
1, 20770, Control_c, 0, 64, 103
1, 20771, Note_on_c, 0, 71, 54
1, 20771, Note_on_c, 0, 80, 64
1, 20785, Control_c, 0, 64, 80
1, 20786, Note_on_c, 0, 68, 49
1, 20792, Note_off_c, 0, 80, 61
1, 20800, Control_c, 0, 64, 61
1, 20809, Note_off_c, 0, 68, 60
1, 20809, Note_off_c, 0, 71, 64
1, 20815, Control_c, 0, 64, 0
1, 20822, Note_off_c, 0, 76, 53
1, 20858, Note_on_c, 0, 52, 62
1, 20863, Note_on_c, 0, 80, 70
1, 20870, Note_on_c, 0, 68, 74
1, 20878, Note_on_c, 0, 71, 53
1, 20879, Note_on_c, 0, 76, 31
1, 20898, Note_off_c, 0, 52, 64
1, 20907, Note_off_c, 0, 71, 67
1, 20910, Note_off_c, 0, 76, 56
1, 20940, Note_off_c, 0, 68, 58
1, 20944, Note_off_c, 0, 80, 54
1, 21134, Control_c, 0, 64, 53
1, 21140, Note_on_c, 0, 81, 57
1, 21146, Note_on_c, 0, 69, 51
1, 21148, Control_c, 0, 64, 67
1, 21154, Note_on_c, 0, 76, 49
1, 21158, Note_on_c, 0, 72, 46
1, 21160, Note_on_c, 0, 45, 49
1, 21163, Control_c, 0, 64, 78
1, 21178, Control_c, 0, 64, 97
1, 21188, Note_off_c, 0, 69, 62
1, 21190, Note_off_c, 0, 72, 53
1, 21193, Control_c, 0, 64, 127
1, 21196, Note_off_c, 0, 76, 58
1, 21202, Note_off_c, 0, 45, 63
1, 21202, Note_off_c, 0, 81, 62
1, 21566, Note_on_c, 0, 52, 37
1, 21572, Note_on_c, 0, 60, 32
1, 21605, Note_on_c, 0, 57, 20
1, 21632, Note_off_c, 0, 60, 62
1, 21632, Note_off_c, 0, 52, 60
1, 21645, Note_off_c, 0, 57, 47
1, 21882, Control_c, 0, 64, 92
1, 21897, Control_c, 0, 64, 69
1, 21911, Control_c, 0, 64, 0
1, 21914, Note_on_c, 0, 81, 69
1, 21942, Note_on_c, 0, 69, 49
1, 21956, Control_c, 0, 64, 63
1, 21970, Control_c, 0, 64, 75
1, 21985, Control_c, 0, 64, 93
1, 22000, Note_off_c, 0, 69, 62
1, 22000, Control_c, 0, 64, 127
1, 22040, Note_off_c, 0, 81, 63
1, 22253, Control_c, 0, 64, 97
1, 22262, Note_on_c, 0, 84, 76
1, 22267, Control_c, 0, 64, 72
1, 22282, Control_c, 0, 64, 0
1, 22293, Note_on_c, 0, 72, 47
1, 22305, Note_on_c, 0, 50, 33
1, 22305, Note_on_c, 0, 38, 37
1, 22327, Control_c, 0, 64, 64
1, 22341, Control_c, 0, 64, 77
1, 22353, Note_off_c, 0, 38, 60
1, 22356, Control_c, 0, 64, 99
1, 22357, Note_off_c, 0, 50, 58
1, 22371, Control_c, 0, 64, 127
1, 22508, Note_off_c, 0, 84, 56
1, 22535, Note_off_c, 0, 72, 52
1, 22709, Note_on_c, 0, 50, 35
1, 22712, Note_on_c, 0, 60, 33
1, 22720, Note_on_c, 0, 57, 33
1, 22754, Note_off_c, 0, 60, 60
1, 22781, Note_off_c, 0, 57, 59
1, 22797, Note_off_c, 0, 50, 55
1, 22821, Note_on_c, 0, 83, 69
1, 22830, Note_on_c, 0, 71, 64
1, 22845, Note_off_c, 0, 83, 70
1, 22856, Note_off_c, 0, 71, 68
1, 22924, Note_on_c, 0, 83, 79
1, 22931, Note_on_c, 0, 71, 75
1, 22947, Note_off_c, 0, 83, 68
1, 22955, Note_off_c, 0, 71, 68
1, 23019, Note_on_c, 0, 81, 79
1, 23030, Note_on_c, 0, 69, 78
1, 23038, Note_off_c, 0, 81, 71
1, 23051, Note_off_c, 0, 69, 72
1, 23061, Control_c, 0, 64, 88
1, 23076, Control_c, 0, 64, 61
1, 23090, Control_c, 0, 64, 0
1, 23140, Note_on_c, 0, 39, 68
1, 23142, Note_on_c, 0, 75, 80
1, 23149, Note_on_c, 0, 63, 80
1, 23149, Control_c, 0, 64, 68
1, 23151, Note_on_c, 0, 51, 63
1, 23164, Control_c, 0, 64, 97
1, 23171, Note_off_c, 0, 63, 69
1, 23171, Note_off_c, 0, 75, 62
1, 23173, Note_off_c, 0, 39, 66
1, 23187, Control_c, 0, 64, 127
1, 23188, Note_off_c, 0, 51, 65
1, 23406, Note_on_c, 0, 75, 81
1, 23414, Note_on_c, 0, 63, 79
1, 23423, Control_c, 0, 64, 111
1, 23427, Note_on_c, 0, 57, 53
1, 23428, Note_on_c, 0, 60, 54
1, 23431, Note_on_c, 0, 51, 53
1, 23438, Control_c, 0, 64, 80
1, 23447, Note_off_c, 0, 63, 62
1, 23453, Control_c, 0, 64, 0
1, 23460, Note_off_c, 0, 75, 62
1, 23647, Note_on_c, 0, 75, 89
1, 23657, Note_on_c, 0, 63, 65
1, 23679, Note_off_c, 0, 63, 38
1, 23686, Note_off_c, 0, 60, 62
1, 23697, Note_off_c, 0, 75, 63
1, 23698, Note_off_c, 0, 57, 60
1, 23754, Note_off_c, 0, 51, 63
1, 23879, Note_on_c, 0, 84, 95
1, 23884, Control_c, 0, 64, 65
1, 23885, Note_on_c, 0, 72, 87
1, 23888, Note_on_c, 0, 52, 82
1, 23889, Note_on_c, 0, 40, 76
1, 23899, Control_c, 0, 64, 85
1, 23913, Control_c, 0, 64, 127
1, 23915, Note_off_c, 0, 52, 68
1, 23919, Note_off_c, 0, 40, 66
1, 24018, Poly_aftertouch_c, 0, 41, 0
1, 24058, Note_off_c, 0, 84, 61
1, 24061, Note_off_c, 0, 72, 61
1, 24210, Note_on_c, 0, 52, 70
1, 24210, Note_on_c, 0, 60, 65
1, 24216, Note_on_c, 0, 57, 67
1, 24243, Note_off_c, 0, 60, 63
1, 24276, Note_off_c, 0, 57, 62
1, 24300, Note_off_c, 0, 52, 61
1, 24307, Note_on_c, 0, 83, 84
1, 24314, Note_on_c, 0, 71, 80
1, 24344, Note_off_c, 0, 71, 63
1, 24348, Note_off_c, 0, 83, 65
1, 24399, Note_on_c, 0, 83, 89
1, 24411, Note_on_c, 0, 71, 87
1, 24441, Note_off_c, 0, 83, 67
1, 24450, Note_off_c, 0, 71, 66
1, 24492, Note_on_c, 0, 81, 96
1, 24499, Control_c, 0, 64, 126
1, 24502, Note_on_c, 0, 69, 92
1, 24515, Control_c, 0, 64, 81
1, 24529, Control_c, 0, 64, 0
1, 24532, Note_off_c, 0, 81, 65
1, 24544, Note_off_c, 0, 69, 66
1, 24596, Note_on_c, 0, 77, 96
1, 24601, Note_on_c, 0, 41, 79
1, 24604, Control_c, 0, 64, 43
1, 24604, Note_on_c, 0, 53, 93
1, 24604, Note_on_c, 0, 65, 94
1, 24619, Control_c, 0, 64, 75
1, 24630, Note_off_c, 0, 65, 66
1, 24633, Control_c, 0, 64, 127
1, 24638, Note_off_c, 0, 41, 65
1, 24638, Note_off_c, 0, 77, 63
1, 24649, Note_on_c, 0, 70, 9
1, 24650, Note_off_c, 0, 70, 127
1, 24650, Note_off_c, 0, 53, 66
1, 24699, Poly_aftertouch_c, 0, 70, 0
1, 24874, Note_on_c, 0, 77, 96
1, 24877, Note_on_c, 0, 65, 86
1, 24879, Note_on_c, 0, 60, 69
1, 24881, Note_on_c, 0, 57, 71
1, 24886, Note_on_c, 0, 53, 72
1, 24893, Control_c, 0, 64, 90
1, 24907, Control_c, 0, 64, 63
1, 24922, Control_c, 0, 64, 0
1, 24936, Note_off_c, 0, 65, 59
1, 24943, Note_off_c, 0, 77, 60
1, 24954, Poly_aftertouch_c, 0, 73, 127
1, 24979, Poly_aftertouch_c, 0, 73, 0
1, 25107, Note_on_c, 0, 77, 96
1, 25110, Note_on_c, 0, 65, 91
1, 25146, Note_off_c, 0, 60, 63
1, 25155, Note_off_c, 0, 57, 60
1, 25159, Note_off_c, 0, 65, 64
1, 25191, Note_off_c, 0, 53, 63
1, 25199, Note_off_c, 0, 77, 60
1, 25329, Note_on_c, 0, 84, 98
1, 25332, Note_on_c, 0, 72, 97
1, 25333, Note_on_c, 0, 54, 93
1, 25334, Note_on_c, 0, 42, 78
1, 25337, Control_c, 0, 64, 64
1, 25352, Control_c, 0, 64, 98
1, 25355, Note_off_c, 0, 54, 70
1, 25360, Note_off_c, 0, 42, 68
1, 25367, Control_c, 0, 64, 127
1, 25370, Note_on_c, 0, 78, 35
1, 25403, Note_off_c, 0, 78, 53
1, 25510, Note_off_c, 0, 72, 60
1, 25514, Note_off_c, 0, 84, 62
1, 25650, Note_on_c, 0, 54, 83
1, 25653, Note_on_c, 0, 63, 84
1, 25656, Note_on_c, 0, 60, 81
1, 25677, Note_off_c, 0, 63, 65
1, 25697, Note_off_c, 0, 60, 67
1, 25728, Note_off_c, 0, 54, 65
1, 25772, Note_on_c, 0, 83, 91
1, 25776, Note_on_c, 0, 71, 90
1, 25812, Note_off_c, 0, 83, 66
1, 25813, Note_on_c, 0, 78, 28
1, 25814, Note_off_c, 0, 78, 127
1, 25816, Note_off_c, 0, 71, 66
1, 25870, Note_on_c, 0, 83, 93
1, 25877, Note_on_c, 0, 71, 95
1, 25911, Note_off_c, 0, 83, 68
1, 25919, Note_off_c, 0, 71, 68
1, 25951, Control_c, 0, 64, 85
1, 25958, Note_on_c, 0, 81, 102
1, 25965, Note_on_c, 0, 69, 96
1, 25966, Control_c, 0, 64, 56
1, 25981, Control_c, 0, 64, 0
1, 26004, Note_off_c, 0, 81, 67
1, 26010, Note_off_c, 0, 69, 66
1, 26052, Note_on_c, 0, 79, 98
1, 26057, Note_on_c, 0, 67, 96
1, 26058, Note_on_c, 0, 43, 81
1, 26059, Note_on_c, 0, 55, 98
1, 26070, Control_c, 0, 64, 72
1, 26085, Control_c, 0, 64, 106
1, 26094, Note_off_c, 0, 43, 65
1, 26100, Control_c, 0, 64, 127
1, 26105, Note_off_c, 0, 55, 67
1, 26114, Note_off_c, 0, 67, 62
1, 26114, Note_off_c, 0, 79, 54
1, 26321, Note_on_c, 0, 79, 100
1, 26325, Note_on_c, 0, 67, 98
1, 26334, Note_on_c, 0, 55, 75
1, 26335, Note_on_c, 0, 64, 84
1, 26336, Note_on_c, 0, 60, 85
1, 26354, Note_off_c, 0, 64, 72
1, 26365, Note_off_c, 0, 60, 68
1, 26368, Note_on_c, 0, 75, 25
1, 26368, Note_off_c, 0, 55, 65
1, 26410, Note_off_c, 0, 75, 49
1, 26428, Poly_aftertouch_c, 0, 57, 0
1, 26458, Note_off_c, 0, 67, 49
1, 26480, Note_off_c, 0, 79, 54
1, 26560, Note_on_c, 0, 79, 103
1, 26561, Note_on_c, 0, 67, 100
1, 26598, Note_off_c, 0, 67, 66
1, 26616, Note_off_c, 0, 79, 69
1, 26774, Control_c, 0, 64, 119
1, 26789, Control_c, 0, 64, 78
1, 26804, Control_c, 0, 64, 0
1, 26828, Note_on_c, 0, 43, 80
1, 26830, Note_on_c, 0, 89, 105
1, 26830, Note_on_c, 0, 55, 95
1, 26830, Note_on_c, 0, 77, 102
1, 26848, Control_c, 0, 64, 54
1, 26863, Control_c, 0, 64, 81
1, 26867, Note_off_c, 0, 43, 64
1, 26877, Note_off_c, 0, 55, 66
1, 26877, Control_c, 0, 64, 127
1, 26883, Note_off_c, 0, 77, 62
1, 26897, Note_on_c, 0, 85, 3
1, 26898, Note_off_c, 0, 85, 127
1, 26946, Poly_aftertouch_c, 0, 85, 0
1, 26979, Note_off_c, 0, 89, 51
1, 27108, Note_on_c, 0, 89, 103
1, 27108, Note_on_c, 0, 83, 107
1, 27111, Note_on_c, 0, 77, 98
1, 27112, Note_on_c, 0, 55, 77
1, 27115, Note_on_c, 0, 65, 83
1, 27119, Note_on_c, 0, 59, 72
1, 27122, Note_on_c, 0, 62, 75
1, 27155, Note_off_c, 0, 65, 61
1, 27156, Note_off_c, 0, 62, 60
1, 27157, Note_off_c, 0, 77, 62
1, 27159, Note_off_c, 0, 55, 63
1, 27166, Note_off_c, 0, 59, 55
1, 27180, Note_off_c, 0, 89, 59
1, 27183, Note_off_c, 0, 83, 53
1, 27400, Note_on_c, 0, 83, 105
1, 27400, Note_on_c, 0, 89, 109
1, 27401, Note_on_c, 0, 55, 80
1, 27403, Note_on_c, 0, 77, 96
1, 27408, Note_on_c, 0, 65, 84
1, 27412, Note_on_c, 0, 59, 73
1, 27417, Note_on_c, 0, 62, 76
1, 27420, Control_c, 0, 64, 76
1, 27435, Control_c, 0, 64, 0
1, 27441, Note_off_c, 0, 55, 61
1, 27443, Note_off_c, 0, 65, 61
1, 27450, Note_off_c, 0, 59, 58
1, 27450, Note_off_c, 0, 89, 64
1, 27455, Note_off_c, 0, 62, 59
1, 27472, Note_off_c, 0, 77, 59
1, 27480, Note_off_c, 0, 83, 61
1, 27752, Note_on_c, 0, 88, 101
1, 27755, Note_on_c, 0, 76, 104
1, 27756, Note_on_c, 0, 83, 102
1, 27763, Note_on_c, 0, 56, 78
1, 27764, Note_on_c, 0, 64, 88
1, 27770, Note_on_c, 0, 59, 78
1, 27773, Note_on_c, 0, 62, 74
1, 27783, Control_c, 0, 64, 70
1, 27797, Control_c, 0, 64, 90
1, 27812, Control_c, 0, 64, 127
1, 28054, Note_off_c, 0, 64, 59
1, 28064, Note_off_c, 0, 62, 52
1, 28097, Note_off_c, 0, 59, 57
1, 28118, Note_off_c, 0, 56, 61
1, 28171, Note_off_c, 0, 88, 47
1, 28191, Note_off_c, 0, 83, 57
1, 28197, Note_off_c, 0, 76, 59
1, 28257, Control_c, 0, 64, 120
1, 28271, Control_c, 0, 64, 81
1, 28286, Control_c, 0, 64, 0
1, 28455, Note_on_c, 0, 86, 99
1, 28457, Note_on_c, 0, 76, 98
1, 28458, Note_on_c, 0, 83, 93
1, 28459, Note_on_c, 0, 74, 98
1, 28462, Note_on_c, 0, 44, 94
1, 28464, Note_on_c, 0, 32, 86
1, 28472, Control_c, 0, 64, 75
1, 28486, Control_c, 0, 64, 127
1, 28490, Note_off_c, 0, 83, 66
1, 28502, Note_off_c, 0, 86, 66
1, 28506, Note_off_c, 0, 44, 62
1, 28515, Note_off_c, 0, 32, 60
1, 28527, Note_off_c, 0, 76, 58
1, 28529, Note_off_c, 0, 74, 62
1, 28852, Note_on_c, 0, 84, 99
1, 28855, Note_on_c, 0, 72, 97
1, 28855, Note_on_c, 0, 76, 101
1, 28856, Note_on_c, 0, 81, 97
1, 28857, Control_c, 0, 64, 86
1, 28863, Note_on_c, 0, 33, 83
1, 28863, Note_on_c, 0, 45, 88
1, 28869, Note_on_c, 0, 40, 81
1, 28872, Control_c, 0, 64, 0
1, 29050, Control_c, 0, 64, 74
1, 29065, Control_c, 0, 64, 102
1, 29079, Control_c, 0, 64, 127
1, 29212, Note_off_c, 0, 72, 56
1, 29214, Note_off_c, 0, 84, 55
1, 29229, Note_off_c, 0, 81, 59
1, 29242, Note_off_c, 0, 76, 51
1, 29252, Note_off_c, 0, 33, 54
1, 29263, Note_off_c, 0, 45, 60
1, 29273, Note_off_c, 0, 40, 60
1, 29442, Note_on_c, 0, 83, 93
1, 29444, Note_on_c, 0, 47, 77
1, 29445, Note_on_c, 0, 35, 77
1, 29448, Note_on_c, 0, 71, 89
1, 29488, Note_off_c, 0, 83, 66
1, 29491, Note_off_c, 0, 35, 61
1, 29491, Note_off_c, 0, 71, 65
1, 29494, Note_off_c, 0, 47, 65
1, 29561, Note_on_c, 0, 83, 94
1, 29565, Note_on_c, 0, 35, 79
1, 29565, Note_on_c, 0, 47, 75
1, 29568, Note_on_c, 0, 71, 92
1, 29597, Note_off_c, 0, 35, 67
1, 29602, Note_off_c, 0, 83, 67
1, 29609, Note_off_c, 0, 47, 65
1, 29612, Note_off_c, 0, 71, 66
1, 29636, Control_c, 0, 64, 87
1, 29650, Control_c, 0, 64, 64
1, 29656, Note_on_c, 0, 81, 94
1, 29662, Note_on_c, 0, 69, 91
1, 29665, Control_c, 0, 64, 0
1, 29668, Note_on_c, 0, 48, 84
1, 29682, Note_on_c, 0, 36, 70
1, 29682, Note_on_c, 0, 38, 69
1, 29698, Note_off_c, 0, 69, 66
1, 29705, Note_off_c, 0, 81, 65
1, 29706, Note_off_c, 0, 36, 64
1, 29711, Note_off_c, 0, 38, 63
1, 29713, Note_off_c, 0, 48, 62
1, 29770, Control_c, 0, 64, 54
1, 29773, Note_on_c, 0, 86, 100
1, 29776, Note_on_c, 0, 74, 103
1, 29779, Note_on_c, 0, 38, 84
1, 29784, Note_on_c, 0, 50, 85
1, 29784, Control_c, 0, 64, 78
1, 29790, Note_on_c, 0, 80, 70
1, 29797, Note_on_c, 0, 82, 61
1, 29798, Note_off_c, 0, 82, 127
1, 29799, Control_c, 0, 64, 127
1, 29802, Note_off_c, 0, 86, 71
1, 29803, Note_off_c, 0, 74, 67
1, 29807, Note_off_c, 0, 80, 67
1, 29825, Note_off_c, 0, 50, 65
1, 29826, Note_off_c, 0, 38, 64
1, 30050, Note_on_c, 0, 86, 99
1, 30052, Note_on_c, 0, 74, 96
1, 30056, Note_on_c, 0, 38, 76
1, 30056, Note_on_c, 0, 50, 80
1, 30059, Control_c, 0, 64, 82
1, 30074, Control_c, 0, 64, 0
1, 30091, Note_off_c, 0, 74, 67
1, 30091, Note_off_c, 0, 86, 67
1, 30100, Note_off_c, 0, 38, 58
1, 30106, Note_off_c, 0, 50, 64
1, 30297, Note_on_c, 0, 86, 95
1, 30297, Note_on_c, 0, 74, 97
1, 30298, Note_on_c, 0, 38, 75
1, 30300, Note_on_c, 0, 50, 85
1, 30335, Note_off_c, 0, 38, 64
1, 30342, Note_off_c, 0, 74, 65
1, 30349, Note_off_c, 0, 86, 62
1, 30355, Note_off_c, 0, 50, 65
1, 30548, Note_on_c, 0, 88, 100
1, 30548, Control_c, 0, 64, 74
1, 30549, Note_on_c, 0, 83, 99
1, 30550, Note_on_c, 0, 80, 97
1, 30551, Note_on_c, 0, 76, 103
1, 30552, Note_on_c, 0, 40, 79
1, 30552, Note_on_c, 0, 52, 87
1, 30558, Note_on_c, 0, 47, 77
1, 30559, Note_on_c, 0, 44, 80
1, 30563, Control_c, 0, 64, 127
1, 30578, Note_off_c, 0, 52, 68
1, 30584, Note_off_c, 0, 40, 67
1, 30589, Note_off_c, 0, 47, 69
1, 30592, Note_off_c, 0, 44, 66
1, 30596, Note_off_c, 0, 83, 58
1, 30610, Note_off_c, 0, 76, 53
1, 30632, Note_off_c, 0, 88, 53
1, 30744, Note_off_c, 0, 80, 23
1, 30822, Note_on_c, 0, 83, 94
1, 30822, Control_c, 0, 64, 106
1, 30825, Note_on_c, 0, 80, 96
1, 30825, Note_on_c, 0, 88, 98
1, 30827, Note_on_c, 0, 76, 100
1, 30832, Note_on_c, 0, 40, 81
1, 30833, Note_on_c, 0, 52, 84
1, 30835, Note_on_c, 0, 44, 83
1, 30836, Note_on_c, 0, 47, 82
1, 30837, Control_c, 0, 64, 69
1, 30852, Control_c, 0, 64, 0
1, 30858, Note_off_c, 0, 52, 64
1, 30866, Note_off_c, 0, 40, 65
1, 30868, Note_on_c, 0, 85, 23
1, 30871, Note_off_c, 0, 76, 60
1, 30872, Note_off_c, 0, 83, 63
1, 30875, Note_off_c, 0, 47, 65
1, 30876, Note_off_c, 0, 88, 59
1, 30880, Note_off_c, 0, 44, 62
1, 30883, Note_off_c, 0, 80, 60
1, 30908, Note_off_c, 0, 85, 32
1, 31115, Note_on_c, 0, 83, 99
1, 31117, Note_on_c, 0, 88, 100
1, 31118, Note_on_c, 0, 76, 101
1, 31119, Note_on_c, 0, 80, 99
1, 31120, Note_on_c, 0, 52, 89
1, 31122, Note_on_c, 0, 40, 80
1, 31123, Note_on_c, 0, 44, 85
1, 31125, Note_on_c, 0, 47, 80
1, 31142, Note_off_c, 0, 52, 70
1, 31148, Note_off_c, 0, 76, 66
1, 31150, Note_on_c, 0, 85, 41
1, 31153, Note_off_c, 0, 47, 70
1, 31169, Note_off_c, 0, 83, 62
1, 31174, Note_off_c, 0, 44, 65
1, 31181, Note_off_c, 0, 85, 36
1, 31185, Note_off_c, 0, 80, 57
1, 31187, Note_off_c, 0, 88, 59
1, 31192, Note_off_c, 0, 40, 63
1, 31450, Note_on_c, 0, 93, 96
1, 31452, Note_on_c, 0, 81, 103
1, 31453, Note_on_c, 0, 84, 97
1, 31453, Note_on_c, 0, 88, 98
1, 31454, Note_on_c, 0, 33, 85
1, 31459, Note_on_c, 0, 45, 91
1, 31465, Note_on_c, 0, 40, 81
1, 31468, Control_c, 0, 64, 69
1, 31482, Control_c, 0, 64, 100
1, 31484, Note_off_c, 0, 33, 67
1, 31492, Note_off_c, 0, 40, 68
1, 31497, Control_c, 0, 64, 127
1, 31501, Note_off_c, 0, 45, 64
1, 31618, Note_off_c, 0, 93, 60
1, 31656, Note_off_c, 0, 88, 60
1, 31677, Note_off_c, 0, 81, 58
1, 31686, Note_off_c, 0, 84, 56
1, 32038, Note_on_c, 0, 64, 93
1, 32061, Control_c, 0, 64, 115
1, 32076, Control_c, 0, 64, 75
1, 32090, Control_c, 0, 64, 0
1, 32098, Note_off_c, 0, 64, 60
1, 32328, Note_on_c, 0, 76, 93
1, 32330, Note_on_c, 0, 68, 99
1, 32331, Note_on_c, 0, 74, 94
1, 32334, Note_on_c, 0, 33, 79
1, 32339, Note_on_c, 0, 45, 76
1, 32342, Note_on_c, 0, 47, 85
1, 32346, Note_on_c, 0, 40, 77
1, 32349, Control_c, 0, 64, 68
1, 32364, Control_c, 0, 64, 127
1, 32370, Note_off_c, 0, 76, 62
1, 32378, Note_off_c, 0, 74, 64
1, 32384, Note_on_c, 0, 64, 93
1, 32405, Note_off_c, 0, 68, 61
1, 32423, Note_off_c, 0, 64, 68
1, 32622, Note_on_c, 0, 64, 77
1, 32625, Note_on_c, 0, 62, 78
1, 32628, Note_on_c, 0, 56, 85
1, 32631, Control_c, 0, 64, 95
1, 32646, Control_c, 0, 64, 71
1, 32661, Control_c, 0, 64, 0
1, 32675, Note_off_c, 0, 56, 65
1, 32678, Note_off_c, 0, 64, 64
1, 32685, Note_off_c, 0, 62, 59
1, 32724, Note_on_c, 0, 65, 81
1, 32735, Note_on_c, 0, 56, 71
1, 32736, Note_on_c, 0, 62, 53
1, 32769, Note_off_c, 0, 56, 63
1, 32774, Note_off_c, 0, 62, 62
1, 32791, Note_off_c, 0, 65, 62
1, 32833, Note_on_c, 0, 64, 88
1, 32840, Note_on_c, 0, 62, 84
1, 32841, Note_on_c, 0, 56, 83
1, 32852, Note_off_c, 0, 45, 57
1, 32852, Note_off_c, 0, 47, 62
1, 32856, Note_off_c, 0, 33, 53
1, 32856, Note_off_c, 0, 40, 60
1, 32864, Note_off_c, 0, 56, 72
1, 32880, Note_off_c, 0, 62, 53
1, 32888, Note_off_c, 0, 64, 66
1, 33094, Note_on_c, 0, 76, 92
1, 33098, Note_on_c, 0, 72, 83
1, 33099, Note_on_c, 0, 69, 91
1, 33111, Note_on_c, 0, 33, 78
1, 33112, Note_on_c, 0, 45, 89
1, 33114, Control_c, 0, 64, 61
1, 33117, Note_on_c, 0, 40, 76
1, 33121, Note_on_c, 0, 68, 52
1, 33125, Note_on_c, 0, 64, 91
1, 33128, Note_on_c, 0, 71, 48
1, 33128, Control_c, 0, 64, 91
1, 33143, Control_c, 0, 64, 127
1, 33149, Note_off_c, 0, 76, 63
1, 33150, Note_off_c, 0, 68, 36
1, 33150, Note_off_c, 0, 72, 67
1, 33152, Note_off_c, 0, 69, 68
1, 33156, Note_off_c, 0, 71, 60
1, 33173, Note_off_c, 0, 64, 67
1, 33384, Note_on_c, 0, 60, 78
1, 33384, Note_on_c, 0, 64, 78
1, 33388, Note_on_c, 0, 57, 74
1, 33422, Note_off_c, 0, 57, 61
1, 33423, Note_off_c, 0, 60, 55
1, 33424, Note_off_c, 0, 64, 55
1, 33425, Control_c, 0, 64, 93
1, 33440, Control_c, 0, 64, 71
1, 33455, Control_c, 0, 64, 0
1, 33471, Note_on_c, 0, 65, 81
1, 33472, Note_on_c, 0, 60, 63
1, 33487, Note_on_c, 0, 57, 62
1, 33516, Note_off_c, 0, 57, 62
1, 33521, Note_off_c, 0, 60, 62
1, 33526, Note_off_c, 0, 65, 64
1, 33570, Note_on_c, 0, 57, 80
1, 33570, Note_on_c, 0, 64, 86
1, 33571, Note_on_c, 0, 60, 73
1, 33572, Note_off_c, 0, 33, 60
1, 33581, Note_off_c, 0, 40, 62
1, 33603, Note_off_c, 0, 57, 64
1, 33610, Note_off_c, 0, 45, 65
1, 33610, Note_off_c, 0, 60, 66
1, 33625, Note_off_c, 0, 64, 66
1, 33822, Note_on_c, 0, 71, 93
1, 33828, Note_on_c, 0, 45, 63
1, 33828, Note_on_c, 0, 64, 82
1, 33831, Note_on_c, 0, 62, 78
1, 33833, Note_on_c, 0, 56, 75
1, 33839, Note_on_c, 0, 52, 70
1, 33847, Control_c, 0, 64, 73
1, 33851, Note_off_c, 0, 64, 70
1, 33856, Note_off_c, 0, 62, 67
1, 33862, Control_c, 0, 64, 104
1, 33863, Note_off_c, 0, 56, 67
1, 33865, Note_off_c, 0, 45, 62
1, 33866, Note_off_c, 0, 71, 64
1, 33874, Note_off_c, 0, 52, 65
1, 33877, Control_c, 0, 64, 127
1, 34055, Control_c, 0, 64, 101
1, 34062, Note_on_c, 0, 45, 64
1, 34069, Note_on_c, 0, 71, 92
1, 34069, Control_c, 0, 64, 74
1, 34074, Note_on_c, 0, 64, 88
1, 34077, Note_on_c, 0, 56, 65
1, 34079, Note_on_c, 0, 52, 72
1, 34080, Note_on_c, 0, 62, 74
1, 34084, Control_c, 0, 64, 0
1, 34106, Note_off_c, 0, 62, 65
1, 34108, Note_off_c, 0, 64, 63
1, 34110, Note_off_c, 0, 45, 62
1, 34111, Note_off_c, 0, 56, 63
1, 34117, Note_off_c, 0, 71, 63
1, 34118, Note_off_c, 0, 52, 61
1, 34315, Note_on_c, 0, 45, 69
1, 34320, Note_on_c, 0, 71, 85
1, 34321, Note_on_c, 0, 56, 72
1, 34324, Note_on_c, 0, 64, 79
1, 34327, Note_on_c, 0, 52, 70
1, 34329, Note_on_c, 0, 62, 77
1, 34359, Note_off_c, 0, 45, 63
1, 34359, Note_off_c, 0, 64, 65
1, 34369, Note_off_c, 0, 56, 57
1, 34372, Note_off_c, 0, 71, 62
1, 34375, Note_off_c, 0, 62, 57
1, 34384, Note_off_c, 0, 52, 59
1, 34584, Note_on_c, 0, 72, 89
1, 34590, Note_on_c, 0, 45, 67
1, 34590, Note_on_c, 0, 64, 82
1, 34591, Note_on_c, 0, 60, 78
1, 34596, Note_on_c, 0, 57, 69
1, 34602, Note_on_c, 0, 52, 65
1, 34611, Control_c, 0, 64, 62
1, 34626, Control_c, 0, 64, 79
1, 34640, Control_c, 0, 64, 127
1, 34702, Note_off_c, 0, 45, 60
1, 34706, Note_off_c, 0, 52, 62
1, 34724, Note_off_c, 0, 57, 62
1, 34760, Note_off_c, 0, 60, 57
1, 34812, Note_off_c, 0, 64, 58
1, 34821, Note_off_c, 0, 72, 59
1, 35130, Control_c, 0, 64, 107
1, 35137, Note_on_c, 0, 64, 91
1, 35145, Control_c, 0, 64, 70
1, 35168, Control_c, 0, 64, 0
1, 35225, Note_off_c, 0, 64, 47
1, 35403, Note_on_c, 0, 76, 94
1, 35404, Note_on_c, 0, 68, 101
1, 35406, Note_on_c, 0, 74, 92
1, 35411, Note_on_c, 0, 33, 79
1, 35415, Note_on_c, 0, 45, 76
1, 35418, Note_on_c, 0, 47, 79
1, 35423, Note_on_c, 0, 40, 76
1, 35434, Control_c, 0, 64, 81
1, 35442, Note_on_c, 0, 67, 72
1, 35448, Control_c, 0, 64, 127
1, 35449, Note_off_c, 0, 76, 63
1, 35455, Note_on_c, 0, 64, 89
1, 35460, Note_off_c, 0, 74, 65
1, 35472, Note_off_c, 0, 68, 64
1, 35475, Note_off_c, 0, 67, 62
1, 35493, Note_off_c, 0, 64, 69
1, 35690, Note_on_c, 0, 64, 80
1, 35692, Note_on_c, 0, 62, 74
1, 35696, Note_on_c, 0, 56, 80
1, 35701, Control_c, 0, 64, 89
1, 35716, Control_c, 0, 64, 55
1, 35731, Control_c, 0, 64, 0
1, 35740, Note_off_c, 0, 64, 63
1, 35744, Note_off_c, 0, 56, 64
1, 35744, Note_off_c, 0, 62, 58
1, 35787, Note_on_c, 0, 65, 85
1, 35792, Note_on_c, 0, 62, 60
1, 35794, Note_on_c, 0, 56, 66
1, 35834, Note_off_c, 0, 56, 62
1, 35842, Note_off_c, 0, 62, 58
1, 35854, Note_off_c, 0, 65, 61
1, 35886, Note_on_c, 0, 64, 92
1, 35889, Note_on_c, 0, 62, 73
1, 35891, Note_on_c, 0, 56, 82
1, 35905, Note_off_c, 0, 40, 60
1, 35905, Note_off_c, 0, 47, 62
1, 35914, Note_off_c, 0, 33, 54
1, 35915, Note_off_c, 0, 45, 58
1, 35925, Note_off_c, 0, 56, 69
1, 35945, Note_off_c, 0, 62, 63
1, 35947, Note_off_c, 0, 64, 67
1, 36141, Note_on_c, 0, 72, 88
1, 36141, Note_on_c, 0, 76, 91
1, 36143, Note_on_c, 0, 69, 89
1, 36161, Note_on_c, 0, 33, 77
1, 36161, Note_on_c, 0, 45, 89
1, 36167, Note_on_c, 0, 40, 78
1, 36167, Control_c, 0, 64, 75
1, 36175, Note_on_c, 0, 64, 86
1, 36182, Control_c, 0, 64, 127
1, 36195, Note_off_c, 0, 69, 68
1, 36196, Note_off_c, 0, 72, 65
1, 36202, Note_off_c, 0, 76, 63
1, 36219, Note_off_c, 0, 64, 67
1, 36427, Note_on_c, 0, 64, 74
1, 36430, Note_on_c, 0, 60, 71
1, 36435, Note_on_c, 0, 57, 72
1, 36449, Control_c, 0, 64, 101
1, 36463, Control_c, 0, 64, 76
1, 36465, Note_off_c, 0, 57, 63
1, 36473, Note_off_c, 0, 60, 59
1, 36478, Control_c, 0, 64, 0
1, 36480, Note_off_c, 0, 64, 54
1, 36524, Note_on_c, 0, 60, 53
1, 36524, Note_on_c, 0, 65, 78
1, 36533, Note_on_c, 0, 57, 68
1, 36562, Note_off_c, 0, 60, 65
1, 36572, Note_off_c, 0, 57, 58
1, 36578, Note_off_c, 0, 65, 61
1, 36596, Note_off_c, 0, 33, 59
1, 36606, Note_off_c, 0, 40, 62
1, 36625, Note_on_c, 0, 57, 65
1, 36625, Note_on_c, 0, 64, 86
1, 36629, Note_on_c, 0, 60, 75
1, 36639, Note_off_c, 0, 45, 64
1, 36669, Note_off_c, 0, 57, 65
1, 36670, Note_off_c, 0, 60, 65
1, 36688, Note_off_c, 0, 64, 66
1, 36890, Note_on_c, 0, 71, 88
1, 36893, Note_on_c, 0, 45, 57
1, 36900, Note_on_c, 0, 62, 73
1, 36901, Note_on_c, 0, 64, 76
1, 36902, Control_c, 0, 64, 65
1, 36904, Note_on_c, 0, 52, 60
1, 36909, Note_on_c, 0, 56, 60
1, 36917, Control_c, 0, 64, 77
1, 36924, Note_off_c, 0, 64, 70
1, 36928, Note_off_c, 0, 62, 67
1, 36932, Control_c, 0, 64, 104
1, 36936, Note_off_c, 0, 45, 61
1, 36945, Note_off_c, 0, 71, 65
1, 36947, Control_c, 0, 64, 127
1, 36952, Note_off_c, 0, 52, 60
1, 36952, Note_off_c, 0, 56, 57
1, 37162, Note_on_c, 0, 45, 57
1, 37168, Note_on_c, 0, 71, 84
1, 37170, Note_on_c, 0, 56, 60
1, 37179, Note_on_c, 0, 62, 69
1, 37182, Note_on_c, 0, 52, 59
1, 37182, Note_on_c, 0, 64, 71
1, 37183, Control_c, 0, 64, 100
1, 37198, Control_c, 0, 64, 79
1, 37200, Note_off_c, 0, 45, 60
1, 37203, Note_off_c, 0, 64, 68
1, 37210, Note_off_c, 0, 56, 63
1, 37210, Note_off_c, 0, 62, 62
1, 37213, Control_c, 0, 64, 56
1, 37214, Note_off_c, 0, 71, 61
1, 37216, Note_off_c, 0, 52, 63
1, 37228, Control_c, 0, 64, 0
1, 37266, Note_on_c, 0, 69, 83
1, 37287, Note_on_c, 0, 62, 55
1, 37293, Note_on_c, 0, 64, 35
1, 37323, Note_off_c, 0, 62, 62
1, 37328, Note_off_c, 0, 64, 48
1, 37329, Note_off_c, 0, 69, 61
1, 37371, Note_on_c, 0, 68, 82
1, 37378, Note_on_c, 0, 59, 66
1, 37383, Note_on_c, 0, 62, 65
1, 37385, Note_on_c, 0, 45, 47
1, 37386, Note_on_c, 0, 52, 60
1, 37416, Note_off_c, 0, 59, 60
1, 37423, Note_off_c, 0, 62, 62
1, 37427, Note_off_c, 0, 45, 60
1, 37432, Note_off_c, 0, 52, 62
1, 37432, Note_off_c, 0, 68, 63
1, 37674, Note_on_c, 0, 69, 68
1, 37696, Note_on_c, 0, 64, 55
1, 37705, Note_on_c, 0, 60, 40
1, 37705, Note_on_c, 0, 45, 34
1, 37707, Note_on_c, 0, 57, 34
1, 37709, Note_on_c, 0, 52, 38
1, 37740, Control_c, 0, 64, 38
1, 37755, Control_c, 0, 64, 65
1, 37770, Control_c, 0, 64, 79
1, 37784, Control_c, 0, 64, 110
1, 37799, Control_c, 0, 64, 127
1, 37863, Note_off_c, 0, 60, 54
1, 37889, Note_off_c, 0, 64, 63
1, 37902, Note_off_c, 0, 69, 63
1, 37970, Note_off_c, 0, 57, 52
1, 38000, Note_off_c, 0, 52, 43
1, 38004, Note_off_c, 0, 45, 43
1, 38111, Control_c, 0, 64, 101
1, 38126, Control_c, 0, 64, 75
1, 38140, Control_c, 0, 64, 31
1, 38163, Control_c, 0, 64, 0
1, 38340, Control_c, 0, 64, 59
1, 38344, Note_on_c, 0, 81, 51
1, 38355, Control_c, 0, 64, 69
1, 38370, Control_c, 0, 64, 82
1, 38383, Note_on_c, 0, 69, 23
1, 38385, Control_c, 0, 64, 102
1, 38400, Control_c, 0, 64, 127
1, 38423, Note_off_c, 0, 69, 53
1, 38426, Note_off_c, 0, 81, 63
1, 38652, Control_c, 0, 64, 85
1, 38666, Control_c, 0, 64, 67
1, 38680, Note_on_c, 0, 84, 64
1, 38681, Control_c, 0, 64, 23
1, 38696, Control_c, 0, 64, 33
1, 38704, Note_on_c, 0, 38, 42
1, 38704, Note_on_c, 0, 72, 50
1, 38711, Control_c, 0, 64, 63
1, 38713, Note_on_c, 0, 50, 39
1, 38726, Control_c, 0, 64, 72
1, 38736, Note_off_c, 0, 38, 61
1, 38740, Control_c, 0, 64, 86
1, 38745, Note_off_c, 0, 50, 58
1, 38755, Control_c, 0, 64, 127
1, 38787, Note_off_c, 0, 72, 59
1, 38792, Note_off_c, 0, 84, 63
1, 39073, Note_on_c, 0, 50, 45
1, 39076, Note_on_c, 0, 60, 43
1, 39079, Note_on_c, 0, 57, 44
1, 39106, Note_off_c, 0, 60, 61
1, 39116, Note_off_c, 0, 57, 64
1, 39132, Note_off_c, 0, 50, 65
1, 39180, Note_on_c, 0, 83, 70
1, 39185, Note_on_c, 0, 71, 66
1, 39207, Note_off_c, 0, 83, 66
1, 39212, Note_off_c, 0, 71, 68
1, 39283, Note_on_c, 0, 83, 77
1, 39291, Note_on_c, 0, 71, 77
1, 39305, Note_off_c, 0, 83, 68
1, 39315, Note_off_c, 0, 71, 71
1, 39374, Note_on_c, 0, 81, 86
1, 39384, Control_c, 0, 64, 89
1, 39386, Note_on_c, 0, 69, 78
1, 39399, Control_c, 0, 64, 68
1, 39401, Note_off_c, 0, 81, 67
1, 39407, Note_off_c, 0, 69, 69
1, 39414, Control_c, 0, 64, 0
1, 39487, Control_c, 0, 64, 43
1, 39500, Note_on_c, 0, 75, 81
1, 39502, Control_c, 0, 64, 73
1, 39507, Note_on_c, 0, 39, 67
1, 39508, Note_on_c, 0, 63, 82
1, 39514, Note_on_c, 0, 51, 63
1, 39517, Control_c, 0, 64, 106
1, 39530, Note_off_c, 0, 63, 68
1, 39532, Note_off_c, 0, 75, 60
1, 39532, Control_c, 0, 64, 127
1, 39538, Note_off_c, 0, 39, 62
1, 39542, Note_off_c, 0, 51, 65
1, 39773, Note_on_c, 0, 75, 81
1, 39783, Note_on_c, 0, 63, 79
1, 39785, Note_on_c, 0, 51, 61
1, 39788, Note_on_c, 0, 57, 60
1, 39789, Note_on_c, 0, 60, 60
1, 39793, Control_c, 0, 64, 97
1, 39808, Control_c, 0, 64, 67
1, 39818, Note_off_c, 0, 63, 57
1, 39823, Control_c, 0, 64, 0
1, 39833, Note_off_c, 0, 75, 62
1, 40009, Note_on_c, 0, 75, 88
1, 40015, Note_on_c, 0, 63, 80
1, 40036, Note_off_c, 0, 60, 60
1, 40036, Note_off_c, 0, 63, 69
1, 40050, Note_off_c, 0, 57, 60
1, 40069, Note_off_c, 0, 75, 64
1, 40108, Note_off_c, 0, 51, 63
1, 40255, Note_on_c, 0, 84, 94
1, 40258, Note_on_c, 0, 72, 94
1, 40262, Note_on_c, 0, 40, 80
1, 40265, Note_on_c, 0, 52, 79
1, 40267, Control_c, 0, 64, 74
1, 40282, Control_c, 0, 64, 109
1, 40293, Note_off_c, 0, 40, 65
1, 40297, Control_c, 0, 64, 127
1, 40298, Note_off_c, 0, 52, 63
1, 40408, Note_off_c, 0, 84, 60
1, 40419, Note_off_c, 0, 72, 58
1, 40610, Note_on_c, 0, 60, 72
1, 40611, Note_on_c, 0, 52, 72
1, 40617, Note_on_c, 0, 57, 70
1, 40649, Note_off_c, 0, 60, 60
1, 40682, Note_off_c, 0, 57, 63
1, 40695, Note_on_c, 0, 83, 86
1, 40698, Note_on_c, 0, 71, 83
1, 40706, Note_off_c, 0, 52, 59
1, 40739, Note_off_c, 0, 83, 65
1, 40741, Note_off_c, 0, 71, 64
1, 40796, Note_on_c, 0, 83, 89
1, 40803, Note_on_c, 0, 71, 86
1, 40839, Note_off_c, 0, 83, 66
1, 40847, Note_off_c, 0, 71, 68
1, 40853, Control_c, 0, 64, 98
1, 40867, Control_c, 0, 64, 74
1, 40882, Control_c, 0, 64, 0
1, 40888, Note_on_c, 0, 81, 95
1, 40894, Note_on_c, 0, 69, 88
1, 40933, Note_off_c, 0, 81, 64
1, 40943, Note_off_c, 0, 69, 65
1, 40993, Note_on_c, 0, 77, 91
1, 41002, Control_c, 0, 64, 65
1, 41003, Note_on_c, 0, 65, 91
1, 41005, Note_on_c, 0, 41, 77
1, 41006, Note_on_c, 0, 53, 88
1, 41016, Control_c, 0, 64, 92
1, 41031, Control_c, 0, 64, 127
1, 41039, Note_off_c, 0, 41, 65
1, 41049, Note_off_c, 0, 77, 64
1, 41049, Note_off_c, 0, 65, 64
1, 41052, Note_off_c, 0, 53, 67
1, 41273, Note_on_c, 0, 77, 94
1, 41277, Note_on_c, 0, 65, 91
1, 41289, Note_on_c, 0, 60, 74
1, 41291, Note_on_c, 0, 57, 72
1, 41294, Note_on_c, 0, 53, 70
1, 41306, Control_c, 0, 64, 98
1, 41319, Note_on_c, 0, 73, 34
1, 41321, Control_c, 0, 64, 62
1, 41327, Note_on_c, 0, 70, 15
1, 41335, Control_c, 0, 64, 0
1, 41340, Note_off_c, 0, 65, 62
1, 41344, Note_off_c, 0, 77, 60
1, 41353, Note_off_c, 0, 73, 54
1, 41373, Note_off_c, 0, 70, 28
1, 41515, Note_on_c, 0, 77, 94
1, 41517, Note_on_c, 0, 65, 89
1, 41548, Note_off_c, 0, 60, 63
1, 41559, Note_on_c, 0, 73, 33
1, 41560, Note_off_c, 0, 73, 127
1, 41565, Note_off_c, 0, 65, 63
1, 41570, Note_off_c, 0, 57, 60
1, 41587, Note_off_c, 0, 77, 63
1, 41604, Note_off_c, 0, 53, 63
1, 41752, Note_on_c, 0, 84, 94
1, 41754, Note_on_c, 0, 72, 96
1, 41760, Note_on_c, 0, 54, 85
1, 41762, Note_on_c, 0, 42, 77
1, 41765, Control_c, 0, 64, 65
1, 41780, Control_c, 0, 64, 91
1, 41784, Note_off_c, 0, 54, 70
1, 41790, Note_off_c, 0, 42, 66
1, 41794, Control_c, 0, 64, 127
1, 41841, Poly_aftertouch_c, 0, 77, 127
1, 41869, Poly_aftertouch_c, 0, 77, 0
1, 41936, Note_off_c, 0, 84, 60
1, 41939, Note_off_c, 0, 72, 58
1, 42108, Note_on_c, 0, 54, 78
1, 42110, Note_on_c, 0, 63, 80
1, 42118, Note_on_c, 0, 60, 72
1, 42137, Note_off_c, 0, 63, 64
1, 42166, Note_off_c, 0, 60, 64
1, 42208, Note_off_c, 0, 54, 61
1, 42216, Note_on_c, 0, 83, 90
1, 42220, Note_on_c, 0, 71, 88
1, 42258, Note_off_c, 0, 83, 66
1, 42259, Note_off_c, 0, 71, 67
1, 42313, Note_on_c, 0, 83, 92
1, 42322, Note_on_c, 0, 71, 94
1, 42355, Note_on_c, 0, 75, 36
1, 42357, Note_off_c, 0, 83, 67
1, 42368, Note_off_c, 0, 71, 66
1, 42385, Poly_aftertouch_c, 0, 78, 0
1, 42388, Note_off_c, 0, 75, 58
1, 42395, Control_c, 0, 64, 110
1, 42405, Note_on_c, 0, 81, 96
1, 42409, Note_on_c, 0, 69, 94
1, 42410, Control_c, 0, 64, 76
1, 42424, Control_c, 0, 64, 0
1, 42450, Note_off_c, 0, 81, 65
1, 42458, Note_off_c, 0, 69, 65
1, 42504, Note_on_c, 0, 79, 98
1, 42510, Note_on_c, 0, 67, 95
1, 42513, Note_on_c, 0, 43, 82
1, 42515, Note_on_c, 0, 55, 96
1, 42528, Control_c, 0, 64, 69
1, 42543, Control_c, 0, 64, 92
1, 42544, Note_on_c, 0, 72, 44
1, 42553, Note_off_c, 0, 43, 64
1, 42558, Control_c, 0, 64, 127
1, 42570, Note_off_c, 0, 55, 66
1, 42571, Note_off_c, 0, 72, 60
1, 42581, Note_off_c, 0, 67, 62
1, 42590, Note_off_c, 0, 79, 57
1, 42784, Note_on_c, 0, 79, 98
1, 42788, Note_on_c, 0, 67, 97
1, 42790, Note_on_c, 0, 55, 80
1, 42792, Note_on_c, 0, 64, 80
1, 42801, Note_on_c, 0, 60, 77
1, 42815, Note_off_c, 0, 64, 71
1, 42836, Note_off_c, 0, 60, 67
1, 42838, Note_off_c, 0, 55, 63
1, 42898, Poly_aftertouch_c, 0, 74, 0
1, 42920, Note_off_c, 0, 67, 48
1, 42938, Note_off_c, 0, 79, 53
1, 43029, Note_on_c, 0, 79, 101
1, 43030, Note_on_c, 0, 67, 96
1, 43068, Note_off_c, 0, 67, 65
1, 43091, Note_off_c, 0, 79, 67
1, 43233, Control_c, 0, 64, 116
1, 43247, Control_c, 0, 64, 81
1, 43262, Control_c, 0, 64, 31
1, 43277, Control_c, 0, 64, 0
1, 43310, Note_on_c, 0, 43, 82
1, 43314, Note_on_c, 0, 55, 86
1, 43314, Note_on_c, 0, 89, 102
1, 43316, Note_on_c, 0, 77, 101
1, 43322, Control_c, 0, 64, 37
1, 43336, Control_c, 0, 64, 70
1, 43351, Note_on_c, 0, 85, 42
1, 43351, Control_c, 0, 64, 102
1, 43356, Note_off_c, 0, 43, 64
1, 43366, Note_off_c, 0, 55, 65
1, 43366, Control_c, 0, 64, 127
1, 43380, Note_off_c, 0, 85, 59
1, 43435, Note_off_c, 0, 77, 54
1, 43475, Note_off_c, 0, 89, 47
1, 43604, Note_on_c, 0, 83, 103
1, 43604, Note_on_c, 0, 89, 104
1, 43607, Note_on_c, 0, 77, 96
1, 43608, Note_on_c, 0, 55, 75
1, 43608, Note_on_c, 0, 65, 77
1, 43614, Note_on_c, 0, 59, 73
1, 43616, Note_on_c, 0, 62, 69
1, 43644, Note_off_c, 0, 65, 62
1, 43652, Note_off_c, 0, 62, 59
1, 43654, Note_off_c, 0, 77, 64
1, 43655, Note_off_c, 0, 59, 56
1, 43668, Note_off_c, 0, 55, 57
1, 43672, Note_off_c, 0, 83, 55
1, 43683, Note_off_c, 0, 89, 60
1, 43893, Control_c, 0, 64, 116
1, 43894, Note_on_c, 0, 55, 76
1, 43895, Note_on_c, 0, 83, 97
1, 43896, Note_on_c, 0, 89, 101
1, 43900, Note_on_c, 0, 77, 92
1, 43901, Note_on_c, 0, 65, 77
1, 43905, Note_on_c, 0, 59, 71
1, 43908, Control_c, 0, 64, 77
1, 43909, Note_on_c, 0, 62, 73
1, 43923, Control_c, 0, 64, 0
1, 43939, Note_off_c, 0, 65, 59
1, 43943, Note_off_c, 0, 55, 62
1, 43963, Note_off_c, 0, 59, 56
1, 43963, Note_off_c, 0, 89, 57
1, 43967, Note_off_c, 0, 62, 59
1, 43991, Note_off_c, 0, 83, 60
1, 43997, Note_off_c, 0, 77, 52
1, 44237, Note_on_c, 0, 88, 99
1, 44239, Note_on_c, 0, 76, 106
1, 44239, Note_on_c, 0, 83, 98
1, 44244, Note_on_c, 0, 56, 82
1, 44246, Note_on_c, 0, 64, 86
1, 44250, Note_on_c, 0, 59, 76
1, 44254, Note_on_c, 0, 62, 75
1, 44256, Control_c, 0, 64, 63
1, 44271, Control_c, 0, 64, 83
1, 44285, Control_c, 0, 64, 127
1, 44557, Note_off_c, 0, 64, 60
1, 44573, Note_off_c, 0, 62, 38
1, 44591, Note_off_c, 0, 59, 58
1, 44617, Note_off_c, 0, 56, 62
1, 44629, Note_off_c, 0, 88, 53
1, 44635, Note_off_c, 0, 83, 56
1, 44645, Note_off_c, 0, 76, 60
1, 44686, Control_c, 0, 64, 89
1, 44701, Control_c, 0, 64, 57
1, 44716, Control_c, 0, 64, 0
1, 44930, Note_on_c, 0, 86, 99
1, 44930, Control_c, 0, 64, 51
1, 44932, Note_on_c, 0, 83, 97
1, 44933, Note_on_c, 0, 76, 99
1, 44936, Note_on_c, 0, 74, 99
1, 44943, Note_on_c, 0, 44, 87
1, 44945, Note_on_c, 0, 32, 82
1, 44945, Control_c, 0, 64, 78
1, 44960, Control_c, 0, 64, 127
1, 44977, Note_off_c, 0, 83, 62
1, 44984, Note_off_c, 0, 86, 61
1, 44993, Note_off_c, 0, 32, 60
1, 44993, Note_off_c, 0, 44, 62
1, 45020, Note_off_c, 0, 76, 57
1, 45027, Note_off_c, 0, 74, 62
1, 45331, Note_on_c, 0, 84, 98
1, 45331, Control_c, 0, 64, 98
1, 45333, Note_on_c, 0, 76, 103
1, 45333, Note_on_c, 0, 72, 98
1, 45336, Note_on_c, 0, 81, 99
1, 45340, Note_on_c, 0, 33, 83
1, 45342, Note_on_c, 0, 45, 91
1, 45346, Control_c, 0, 64, 66
1, 45348, Note_on_c, 0, 40, 81
1, 45361, Control_c, 0, 64, 0
1, 45369, Note_on_c, 0, 80, 36
1, 45370, Note_off_c, 0, 80, 127
1, 45479, Control_c, 0, 64, 65
1, 45494, Control_c, 0, 64, 87
1, 45509, Control_c, 0, 64, 127
1, 45688, Note_off_c, 0, 72, 52
1, 45690, Note_off_c, 0, 84, 54
1, 45710, Note_off_c, 0, 81, 59
1, 45714, Note_off_c, 0, 33, 56
1, 45721, Note_off_c, 0, 76, 52
1, 45723, Note_off_c, 0, 45, 62
1, 45729, Note_off_c, 0, 40, 62
1, 45892, Note_on_c, 0, 83, 90
1, 45897, Note_on_c, 0, 71, 89
1, 45901, Note_on_c, 0, 35, 75
1, 45902, Note_on_c, 0, 47, 72
1, 45944, Note_off_c, 0, 47, 63
1, 45945, Note_off_c, 0, 35, 62
1, 45945, Note_off_c, 0, 71, 63
1, 45946, Note_off_c, 0, 83, 64
1, 45962, Control_c, 0, 64, 90
1, 45976, Control_c, 0, 64, 65
1, 45991, Control_c, 0, 64, 0
1, 46018, Note_on_c, 0, 83, 98
1, 46019, Note_on_c, 0, 47, 75
1, 46020, Note_on_c, 0, 35, 75
1, 46024, Note_on_c, 0, 71, 90
1, 46061, Note_off_c, 0, 83, 67
1, 46064, Note_off_c, 0, 35, 61
1, 46068, Note_off_c, 0, 47, 65
1, 46069, Note_off_c, 0, 71, 65
1, 46123, Note_on_c, 0, 81, 94
1, 46129, Note_on_c, 0, 69, 92
1, 46132, Note_on_c, 0, 48, 87
1, 46132, Note_on_c, 0, 36, 87
1, 46173, Note_off_c, 0, 69, 64
1, 46174, Note_off_c, 0, 36, 61
1, 46174, Note_off_c, 0, 81, 66
1, 46176, Note_off_c, 0, 48, 62
1, 46245, Note_on_c, 0, 86, 96
1, 46250, Note_on_c, 0, 74, 107
1, 46251, Note_on_c, 0, 38, 80
1, 46256, Note_on_c, 0, 50, 86
1, 46259, Control_c, 0, 64, 69
1, 46265, Note_on_c, 0, 80, 65
1, 46273, Control_c, 0, 64, 115
1, 46277, Note_on_c, 0, 82, 47
1, 46278, Note_off_c, 0, 82, 127
1, 46281, Note_off_c, 0, 74, 66
1, 46281, Note_off_c, 0, 86, 71
1, 46281, Note_off_c, 0, 80, 67
1, 46288, Control_c, 0, 64, 127
1, 46291, Note_off_c, 0, 50, 63
1, 46293, Note_off_c, 0, 38, 64
1, 46517, Control_c, 0, 64, 93
1, 46520, Note_on_c, 0, 86, 97
1, 46522, Note_on_c, 0, 74, 99
1, 46522, Note_on_c, 0, 50, 80
1, 46525, Note_on_c, 0, 38, 75
1, 46532, Control_c, 0, 64, 66
1, 46547, Control_c, 0, 64, 0
1, 46558, Note_on_c, 0, 80, 34
1, 46564, Note_off_c, 0, 74, 66
1, 46565, Note_off_c, 0, 86, 67
1, 46574, Note_off_c, 0, 50, 65
1, 46574, Note_off_c, 0, 80, 43
1, 46576, Note_off_c, 0, 38, 61
1, 46774, Note_on_c, 0, 74, 99
1, 46774, Note_on_c, 0, 86, 97
1, 46777, Note_on_c, 0, 38, 76
1, 46778, Note_on_c, 0, 50, 87
1, 46813, Note_off_c, 0, 38, 64
1, 46823, Note_off_c, 0, 74, 64
1, 46829, Note_off_c, 0, 50, 67
1, 46835, Note_off_c, 0, 86, 57
1, 47035, Note_on_c, 0, 88, 103
1, 47035, Note_on_c, 0, 80, 97
1, 47035, Note_on_c, 0, 83, 98
1, 47037, Note_on_c, 0, 76, 99
1, 47038, Note_on_c, 0, 40, 79
1, 47039, Note_on_c, 0, 52, 90
1, 47044, Note_on_c, 0, 44, 82
1, 47045, Note_on_c, 0, 47, 78
1, 47051, Control_c, 0, 64, 72
1, 47066, Note_off_c, 0, 52, 68
1, 47066, Control_c, 0, 64, 114
1, 47073, Note_off_c, 0, 40, 66
1, 47077, Note_off_c, 0, 47, 68
1, 47079, Note_off_c, 0, 44, 65
1, 47081, Control_c, 0, 64, 127
1, 47116, Note_off_c, 0, 76, 51
1, 47117, Note_off_c, 0, 83, 53
1, 47118, Note_off_c, 0, 88, 60
1, 47128, Note_off_c, 0, 80, 58
1, 47315, Note_on_c, 0, 83, 97
1, 47316, Note_on_c, 0, 88, 101
1, 47317, Note_on_c, 0, 80, 98
1, 47318, Note_on_c, 0, 76, 100
1, 47320, Note_on_c, 0, 40, 82
1, 47323, Note_on_c, 0, 52, 87
1, 47325, Control_c, 0, 64, 97
1, 47327, Note_on_c, 0, 44, 85
1, 47327, Note_on_c, 0, 47, 81
1, 47340, Control_c, 0, 64, 67
1, 47355, Control_c, 0, 64, 0
1, 47357, Note_off_c, 0, 52, 58
1, 47363, Note_off_c, 0, 40, 62
1, 47364, Note_off_c, 0, 44, 61
1, 47369, Note_off_c, 0, 47, 64
1, 47376, Note_off_c, 0, 83, 59
1, 47388, Note_off_c, 0, 76, 51
1, 47390, Note_off_c, 0, 88, 57
1, 47404, Note_off_c, 0, 80, 56
1, 47604, Note_on_c, 0, 83, 100
1, 47605, Note_on_c, 0, 88, 104
1, 47606, Note_on_c, 0, 80, 101
1, 47607, Note_on_c, 0, 76, 103
1, 47607, Note_on_c, 0, 52, 83
1, 47611, Note_on_c, 0, 40, 78
1, 47612, Note_on_c, 0, 44, 84
1, 47612, Note_on_c, 0, 47, 82
1, 47632, Note_off_c, 0, 52, 68
1, 47640, Note_off_c, 0, 76, 62
1, 47641, Note_off_c, 0, 47, 69
1, 47664, Note_off_c, 0, 44, 64
1, 47665, Note_off_c, 0, 83, 61
1, 47672, Note_off_c, 0, 80, 63
1, 47679, Note_off_c, 0, 40, 64
1, 47687, Note_off_c, 0, 88, 62
1, 47950, Note_on_c, 0, 93, 100
1, 47951, Note_on_c, 0, 81, 101
1, 47951, Note_on_c, 0, 84, 94
1, 47951, Note_on_c, 0, 88, 97
1, 47955, Note_on_c, 0, 33, 81
1, 47960, Note_on_c, 0, 45, 87
1, 47967, Note_on_c, 0, 40, 80
1, 47970, Control_c, 0, 64, 70
1, 47985, Control_c, 0, 64, 102
1, 47986, Note_off_c, 0, 33, 66
1, 47994, Note_off_c, 0, 45, 66
1, 47995, Note_off_c, 0, 40, 67
1, 48000, Control_c, 0, 64, 127
1, 48069, Note_off_c, 0, 93, 60
1, 48126, Note_off_c, 0, 88, 62
1, 48134, Note_off_c, 0, 81, 59
1, 48150, Note_off_c, 0, 84, 60
1, 48554, Note_on_c, 0, 64, 92
1, 48564, Control_c, 0, 64, 103
1, 48579, Control_c, 0, 64, 73
1, 48591, Note_on_c, 0, 68, 38
1, 48594, Control_c, 0, 64, 0
1, 48621, Note_off_c, 0, 68, 33
1, 48624, Note_off_c, 0, 64, 56
1, 48831, Note_on_c, 0, 76, 89
1, 48832, Note_on_c, 0, 68, 103
1, 48837, Note_on_c, 0, 33, 77
1, 48838, Note_on_c, 0, 74, 86
1, 48844, Note_on_c, 0, 45, 72
1, 48846, Note_on_c, 0, 47, 78
1, 48848, Note_on_c, 0, 40, 74
1, 48853, Control_c, 0, 64, 70
1, 48865, Note_off_c, 0, 76, 66
1, 48867, Control_c, 0, 64, 98
1, 48874, Note_off_c, 0, 74, 63
1, 48882, Control_c, 0, 64, 127
1, 48884, Note_on_c, 0, 64, 89
1, 48905, Note_off_c, 0, 68, 62
1, 48922, Note_off_c, 0, 64, 69
1, 49133, Note_on_c, 0, 64, 78
1, 49140, Note_on_c, 0, 62, 72
1, 49144, Note_on_c, 0, 56, 79
1, 49163, Control_c, 0, 64, 94
1, 49178, Control_c, 0, 64, 71
1, 49184, Note_off_c, 0, 64, 65
1, 49192, Note_off_c, 0, 56, 62
1, 49192, Note_off_c, 0, 62, 59
1, 49193, Control_c, 0, 64, 0
1, 49235, Note_on_c, 0, 65, 79
1, 49245, Note_on_c, 0, 56, 59
1, 49268, Note_on_c, 0, 62, 32
1, 49288, Note_off_c, 0, 56, 62
1, 49300, Note_off_c, 0, 62, 54
1, 49307, Note_off_c, 0, 65, 62
1, 49352, Note_on_c, 0, 64, 83
1, 49360, Note_on_c, 0, 56, 77
1, 49360, Note_on_c, 0, 62, 80
1, 49375, Note_off_c, 0, 33, 56
1, 49383, Note_off_c, 0, 47, 62
1, 49384, Note_off_c, 0, 45, 58
1, 49387, Note_off_c, 0, 56, 70
1, 49398, Note_off_c, 0, 40, 58
1, 49415, Note_off_c, 0, 62, 58
1, 49417, Note_off_c, 0, 64, 67
1, 49619, Note_on_c, 0, 72, 88
1, 49620, Note_on_c, 0, 69, 91
1, 49621, Note_on_c, 0, 76, 92
1, 49634, Note_on_c, 0, 33, 78
1, 49637, Note_on_c, 0, 45, 87
1, 49643, Note_on_c, 0, 40, 77
1, 49646, Control_c, 0, 64, 68
1, 49660, Note_on_c, 0, 64, 91
1, 49661, Control_c, 0, 64, 101
1, 49676, Note_off_c, 0, 72, 64
1, 49676, Control_c, 0, 64, 127
1, 49679, Note_off_c, 0, 69, 67
1, 49681, Note_off_c, 0, 76, 64
1, 49698, Note_off_c, 0, 64, 69
1, 49913, Control_c, 0, 64, 110
1, 49915, Note_on_c, 0, 60, 72
1, 49916, Note_on_c, 0, 64, 74
1, 49920, Note_on_c, 0, 57, 73
1, 49928, Control_c, 0, 64, 83
1, 49942, Control_c, 0, 64, 61
1, 49948, Note_off_c, 0, 57, 64
1, 49953, Note_off_c, 0, 60, 60
1, 49954, Note_off_c, 0, 64, 56
1, 49957, Control_c, 0, 64, 0
1, 50009, Note_on_c, 0, 60, 59
1, 50010, Note_on_c, 0, 65, 75
1, 50025, Note_on_c, 0, 57, 63
1, 50061, Note_off_c, 0, 57, 63
1, 50061, Note_off_c, 0, 60, 63
1, 50063, Note_off_c, 0, 65, 63
1, 50112, Note_off_c, 0, 33, 60
1, 50115, Note_on_c, 0, 64, 79
1, 50119, Note_off_c, 0, 40, 63
1, 50120, Note_on_c, 0, 57, 75
1, 50121, Note_on_c, 0, 60, 70
1, 50156, Note_off_c, 0, 45, 64
1, 50159, Note_off_c, 0, 57, 64
1, 50173, Note_off_c, 0, 60, 62
1, 50183, Note_off_c, 0, 64, 66
1, 50369, Note_on_c, 0, 71, 84
1, 50376, Note_on_c, 0, 64, 80
1, 50379, Note_on_c, 0, 45, 65
1, 50381, Control_c, 0, 64, 64
1, 50382, Note_on_c, 0, 62, 72
1, 50390, Note_on_c, 0, 52, 61
1, 50391, Note_on_c, 0, 56, 54
1, 50395, Control_c, 0, 64, 81
1, 50406, Note_off_c, 0, 62, 67
1, 50408, Note_off_c, 0, 64, 66
1, 50410, Control_c, 0, 64, 127
1, 50420, Note_off_c, 0, 56, 64
1, 50421, Note_off_c, 0, 71, 64
1, 50424, Note_off_c, 0, 45, 61
1, 50429, Note_off_c, 0, 52, 63
1, 50588, Control_c, 0, 64, 109
1, 50603, Control_c, 0, 64, 83
1, 50613, Note_on_c, 0, 45, 61
1, 50618, Control_c, 0, 64, 62
1, 50620, Note_on_c, 0, 71, 90
1, 50623, Note_on_c, 0, 56, 62
1, 50625, Note_on_c, 0, 64, 79
1, 50626, Note_on_c, 0, 52, 61
1, 50630, Note_on_c, 0, 62, 72
1, 50633, Control_c, 0, 64, 0
1, 50651, Note_off_c, 0, 64, 67
1, 50655, Note_off_c, 0, 62, 67
1, 50657, Note_off_c, 0, 45, 61
1, 50658, Note_off_c, 0, 56, 64
1, 50666, Note_off_c, 0, 71, 63
1, 50667, Note_off_c, 0, 52, 63
1, 50868, Note_on_c, 0, 71, 87
1, 50871, Note_on_c, 0, 45, 63
1, 50876, Note_on_c, 0, 62, 76
1, 50876, Note_on_c, 0, 64, 77
1, 50877, Note_on_c, 0, 56, 65
1, 50892, Note_on_c, 0, 52, 63
1, 50919, Note_off_c, 0, 45, 63
1, 50919, Note_off_c, 0, 64, 62
1, 50922, Note_off_c, 0, 56, 63
1, 50926, Note_off_c, 0, 71, 63
1, 50937, Note_off_c, 0, 52, 61
1, 50938, Note_off_c, 0, 62, 62
1, 51146, Note_on_c, 0, 72, 88
1, 51151, Note_on_c, 0, 64, 80
1, 51154, Note_on_c, 0, 60, 80
1, 51160, Note_on_c, 0, 45, 57
1, 51169, Note_on_c, 0, 57, 58
1, 51172, Note_on_c, 0, 52, 56
1, 51172, Control_c, 0, 64, 64
1, 51187, Control_c, 0, 64, 77
1, 51202, Control_c, 0, 64, 127
1, 51375, Note_off_c, 0, 60, 49
1, 51380, Note_off_c, 0, 57, 57
1, 51411, Note_off_c, 0, 52, 61
1, 51415, Note_off_c, 0, 45, 62
1, 51424, Note_off_c, 0, 64, 59
1, 51432, Note_off_c, 0, 72, 63
1, 51699, Control_c, 0, 64, 90
1, 51702, Note_on_c, 0, 64, 84
1, 51714, Control_c, 0, 64, 68
1, 51729, Control_c, 0, 64, 0
1, 51778, Note_off_c, 0, 64, 47
1, 51954, Note_on_c, 0, 76, 81
1, 51956, Note_on_c, 0, 68, 95
1, 51958, Note_on_c, 0, 74, 81
1, 51961, Note_on_c, 0, 33, 74
1, 51965, Control_c, 0, 64, 57
1, 51971, Note_on_c, 0, 40, 71
1, 51972, Note_on_c, 0, 45, 60
1, 51974, Note_on_c, 0, 47, 67
1, 51980, Control_c, 0, 64, 78
1, 51983, Note_off_c, 0, 76, 63
1, 51989, Note_off_c, 0, 74, 66
1, 51995, Control_c, 0, 64, 124
1, 52007, Note_on_c, 0, 64, 76
1, 52010, Control_c, 0, 64, 127
1, 52021, Note_off_c, 0, 68, 62
1, 52033, Note_off_c, 0, 64, 68
1, 52232, Control_c, 0, 64, 101
1, 52244, Note_on_c, 0, 64, 70
1, 52247, Control_c, 0, 64, 75
1, 52248, Note_on_c, 0, 56, 70
1, 52252, Note_on_c, 0, 62, 59
1, 52262, Control_c, 0, 64, 31
1, 52277, Control_c, 0, 64, 0
1, 52287, Note_off_c, 0, 62, 62
1, 52290, Note_off_c, 0, 64, 62
1, 52290, Note_off_c, 0, 56, 60
1, 52347, Note_on_c, 0, 65, 69
1, 52355, Note_on_c, 0, 56, 53
1, 52375, Note_on_c, 0, 62, 29
1, 52398, Note_off_c, 0, 56, 64
1, 52418, Note_off_c, 0, 62, 47
1, 52422, Note_off_c, 0, 65, 60
1, 52458, Note_on_c, 0, 64, 75
1, 52466, Note_off_c, 0, 33, 54
1, 52468, Note_on_c, 0, 56, 74
1, 52469, Note_on_c, 0, 62, 62
1, 52482, Note_off_c, 0, 47, 61
1, 52484, Note_off_c, 0, 45, 59
1, 52490, Note_off_c, 0, 40, 58
1, 52496, Note_off_c, 0, 56, 69
1, 52503, Note_off_c, 0, 62, 63
1, 52517, Note_off_c, 0, 64, 65
1, 52722, Note_on_c, 0, 76, 79
1, 52724, Note_on_c, 0, 69, 76
1, 52725, Note_on_c, 0, 72, 73
1, 52743, Note_on_c, 0, 33, 58
1, 52745, Control_c, 0, 64, 58
1, 52749, Note_on_c, 0, 45, 56
1, 52753, Note_on_c, 0, 40, 55
1, 52759, Control_c, 0, 64, 78
1, 52764, Note_on_c, 0, 64, 84
1, 52774, Control_c, 0, 64, 127
1, 52779, Note_off_c, 0, 76, 63
1, 52783, Note_off_c, 0, 69, 65
1, 52783, Note_off_c, 0, 72, 62
1, 52800, Note_off_c, 0, 64, 62
1, 53012, Control_c, 0, 64, 108
1, 53019, Note_on_c, 0, 60, 71
1, 53021, Note_on_c, 0, 64, 67
1, 53027, Control_c, 0, 64, 84
1, 53027, Note_on_c, 0, 57, 56
1, 53041, Control_c, 0, 64, 66
1, 53050, Note_off_c, 0, 60, 63
1, 53054, Note_off_c, 0, 64, 61
1, 53056, Control_c, 0, 64, 0
1, 53057, Note_off_c, 0, 57, 64
1, 53124, Note_on_c, 0, 65, 64
1, 53129, Note_on_c, 0, 57, 60
1, 53145, Note_on_c, 0, 60, 42
1, 53171, Note_off_c, 0, 57, 62
1, 53171, Note_off_c, 0, 60, 61
1, 53179, Note_off_c, 0, 65, 59
1, 53213, Note_off_c, 0, 33, 58
1, 53231, Note_off_c, 0, 40, 62
1, 53235, Note_on_c, 0, 64, 66
1, 53248, Note_on_c, 0, 60, 62
1, 53250, Note_on_c, 0, 57, 59
1, 53261, Note_off_c, 0, 45, 64
1, 53281, Note_off_c, 0, 57, 65
1, 53289, Note_off_c, 0, 60, 64
1, 53295, Note_off_c, 0, 64, 63
1, 53331, Control_c, 0, 67, 8
1, 53345, Control_c, 0, 67, 8
1, 53360, Control_c, 0, 67, 9
1, 53375, Control_c, 0, 67, 10
1, 53389, Control_c, 0, 67, 11
1, 53404, Control_c, 0, 67, 12
1, 53419, Control_c, 0, 67, 13
1, 53434, Control_c, 0, 67, 15
1, 53449, Control_c, 0, 67, 16
1, 53463, Control_c, 0, 67, 16
1, 53478, Control_c, 0, 67, 17
1, 53521, Note_on_c, 0, 71, 74
1, 53523, Control_c, 0, 64, 61
1, 53523, Control_c, 0, 67, 16
1, 53526, Note_on_c, 0, 45, 55
1, 53536, Note_on_c, 0, 62, 53
1, 53537, Control_c, 0, 64, 74
1, 53538, Note_on_c, 0, 64, 55
1, 53542, Note_on_c, 0, 52, 49
1, 53552, Control_c, 0, 64, 94
1, 53552, Control_c, 0, 67, 16
1, 53562, Note_off_c, 0, 64, 60
1, 53565, Note_on_c, 0, 56, 43
1, 53567, Note_off_c, 0, 62, 63
1, 53567, Control_c, 0, 64, 127
1, 53567, Control_c, 0, 67, 15
1, 53569, Note_off_c, 0, 71, 59
1, 53574, Note_off_c, 0, 45, 58
1, 53596, Control_c, 0, 67, 15
1, 53598, Note_off_c, 0, 52, 51
1, 53608, Note_off_c, 0, 56, 58
1, 53626, Control_c, 0, 67, 14
1, 53655, Control_c, 0, 67, 14
1, 53789, Control_c, 0, 67, 14
1, 53804, Control_c, 0, 67, 15
1, 53819, Control_c, 0, 64, 119
1, 53823, Note_on_c, 0, 71, 73
1, 53827, Note_on_c, 0, 45, 46
1, 53832, Note_on_c, 0, 56, 45
1, 53834, Control_c, 0, 64, 94
1, 53834, Control_c, 0, 67, 15
1, 53840, Note_on_c, 0, 62, 56
1, 53849, Control_c, 0, 64, 76
1, 53849, Note_on_c, 0, 52, 45
1, 53863, Control_c, 0, 64, 35
1, 53864, Note_off_c, 0, 45, 56
1, 53864, Note_off_c, 0, 71, 58
1, 53866, Note_off_c, 0, 62, 58
1, 53875, Note_off_c, 0, 56, 62
1, 53878, Control_c, 0, 64, 0
1, 53878, Control_c, 0, 67, 16
1, 53897, Note_off_c, 0, 52, 59
1, 53930, Control_c, 0, 67, 16
1, 53939, Note_on_c, 0, 69, 71
1, 53960, Note_on_c, 0, 62, 48
1, 53974, Control_c, 0, 67, 17
1, 53989, Note_off_c, 0, 62, 58
1, 53989, Note_off_c, 0, 69, 57
1, 54049, Control_c, 0, 67, 17
1, 54062, Note_on_c, 0, 68, 67
1, 54064, Control_c, 0, 67, 18
1, 54079, Control_c, 0, 67, 18
1, 54082, Note_on_c, 0, 45, 41
1, 54082, Note_on_c, 0, 62, 52
1, 54084, Note_on_c, 0, 59, 39
1, 54094, Control_c, 0, 67, 19
1, 54100, Note_on_c, 0, 52, 40
1, 54109, Control_c, 0, 67, 21
1, 54118, Note_off_c, 0, 62, 61
1, 54120, Note_off_c, 0, 68, 61
1, 54123, Control_c, 0, 67, 23
1, 54132, Note_off_c, 0, 59, 47
1, 54133, Note_off_c, 0, 45, 48
1, 54138, Control_c, 0, 67, 24
1, 54148, Note_off_c, 0, 52, 58
1, 54153, Control_c, 0, 67, 25
1, 54168, Control_c, 0, 67, 26
1, 54183, Control_c, 0, 67, 26
1, 54272, Control_c, 0, 67, 26
1, 54286, Control_c, 0, 67, 25
1, 54331, Control_c, 0, 67, 25
1, 54346, Control_c, 0, 67, 24
1, 54360, Control_c, 0, 67, 24
1, 54375, Control_c, 0, 67, 23
1, 54390, Control_c, 0, 67, 22
1, 54404, Control_c, 0, 67, 21
1, 54419, Control_c, 0, 67, 20
1, 54425, Note_on_c, 0, 69, 51
1, 54434, Control_c, 0, 67, 19
1, 54449, Control_c, 0, 67, 17
1, 54462, Note_on_c, 0, 57, 25
1, 54463, Note_on_c, 0, 60, 22
1, 54464, Control_c, 0, 67, 16
1, 54466, Note_on_c, 0, 52, 20
1, 54466, Note_on_c, 0, 64, 23
1, 54471, Note_on_c, 0, 45, 22
1, 54478, Control_c, 0, 64, 53
1, 54478, Control_c, 0, 67, 15
1, 54493, Control_c, 0, 64, 66
1, 54493, Control_c, 0, 67, 13
1, 54508, Control_c, 0, 64, 72
1, 54508, Control_c, 0, 67, 11
1, 54523, Control_c, 0, 64, 80
1, 54523, Control_c, 0, 67, 0
1, 54538, Control_c, 0, 64, 96
1, 54553, Control_c, 0, 64, 127
1, 54751, Note_off_c, 0, 60, 42
1, 54753, Note_off_c, 0, 69, 62
1, 54761, Note_off_c, 0, 64, 42
1, 54824, Note_off_c, 0, 45, 43
1, 54841, Note_off_c, 0, 52, 41
1, 54906, Note_off_c, 0, 57, 41
1, 55124, Control_c, 0, 67, 8
1, 55139, Control_c, 0, 67, 9
1, 55153, Control_c, 0, 67, 10
1, 55168, Control_c, 0, 67, 11
1, 55183, Control_c, 0, 67, 12
1, 55198, Control_c, 0, 64, 120
1, 55198, Control_c, 0, 67, 13
1, 55213, Control_c, 0, 64, 96
1, 55213, Control_c, 0, 67, 15
1, 55227, Control_c, 0, 64, 81
1, 55227, Control_c, 0, 67, 17
1, 55242, Control_c, 0, 64, 67
1, 55242, Control_c, 0, 67, 19
1, 55257, Control_c, 0, 64, 0
1, 55257, Control_c, 0, 67, 21
1, 55272, Control_c, 0, 67, 22
1, 55287, Control_c, 0, 67, 24
1, 55301, Control_c, 0, 67, 25
1, 55316, Control_c, 0, 67, 28
1, 55331, Control_c, 0, 67, 30
1, 55346, Control_c, 0, 67, 32
1, 55361, Control_c, 0, 67, 33
1, 55384, Control_c, 0, 67, 35
1, 55399, Control_c, 0, 67, 36
1, 55414, Control_c, 0, 67, 38
1, 55429, Control_c, 0, 67, 39
1, 55443, Control_c, 0, 67, 40
1, 55458, Control_c, 0, 67, 41
1, 55473, Control_c, 0, 67, 42
1, 55488, Control_c, 0, 67, 44
1, 55503, Control_c, 0, 67, 45
1, 55517, Control_c, 0, 67, 47
1, 55532, Control_c, 0, 67, 49
1, 55547, Control_c, 0, 67, 51
1, 55561, Control_c, 0, 67, 53
1, 55576, Control_c, 0, 67, 54
1, 55591, Control_c, 0, 67, 56
1, 55606, Control_c, 0, 67, 58
1, 55621, Control_c, 0, 67, 61
1, 55635, Control_c, 0, 67, 63
1, 55650, Control_c, 0, 67, 64
1, 55666, Control_c, 0, 67, 66
1, 55681, Control_c, 0, 64, 48
1, 55681, Control_c, 0, 67, 67
1, 55696, Control_c, 0, 64, 63
1, 55696, Control_c, 0, 67, 69
1, 55710, Note_on_c, 0, 72, 49
1, 55711, Control_c, 0, 64, 68
1, 55711, Control_c, 0, 67, 70
1, 55726, Control_c, 0, 64, 75
1, 55726, Control_c, 0, 67, 72
1, 55740, Control_c, 0, 64, 85
1, 55740, Control_c, 0, 67, 73
1, 55755, Control_c, 0, 64, 103
1, 55755, Control_c, 0, 67, 74
1, 55770, Control_c, 0, 64, 127
1, 55770, Control_c, 0, 67, 75
1, 55776, Note_off_c, 0, 72, 63
1, 55784, Control_c, 0, 67, 76
1, 55799, Control_c, 0, 67, 77
1, 55814, Control_c, 0, 67, 78
1, 55829, Control_c, 0, 67, 79
1, 55844, Control_c, 0, 67, 80
1, 55858, Control_c, 0, 67, 80
1, 55873, Control_c, 0, 67, 81
1, 55888, Control_c, 0, 67, 82
1, 55903, Control_c, 0, 67, 83
1, 55918, Control_c, 0, 67, 83
1, 55933, Control_c, 0, 67, 84
1, 55948, Control_c, 0, 67, 85
1, 55963, Control_c, 0, 67, 85
1, 55977, Control_c, 0, 67, 86
1, 55992, Control_c, 0, 67, 86
1, 56007, Control_c, 0, 67, 87
1, 56022, Control_c, 0, 67, 88
1, 56037, Control_c, 0, 67, 89
1, 56052, Control_c, 0, 67, 90
1, 56066, Control_c, 0, 64, 100
1, 56066, Control_c, 0, 67, 91
1, 56081, Control_c, 0, 64, 82
1, 56081, Control_c, 0, 67, 92
1, 56094, Note_on_c, 0, 72, 56
1, 56096, Control_c, 0, 64, 68
1, 56096, Control_c, 0, 67, 93
1, 56111, Control_c, 0, 64, 38
1, 56111, Control_c, 0, 67, 94
1, 56123, Note_on_c, 0, 69, 35
1, 56126, Control_c, 0, 64, 0
1, 56126, Control_c, 0, 67, 96
1, 56148, Note_on_c, 0, 53, 28
1, 56148, Control_c, 0, 64, 43
1, 56148, Control_c, 0, 67, 97
1, 56162, Control_c, 0, 64, 60
1, 56162, Control_c, 0, 67, 98
1, 56177, Control_c, 0, 64, 68
1, 56177, Control_c, 0, 67, 99
1, 56189, Note_off_c, 0, 72, 59
1, 56192, Control_c, 0, 64, 78
1, 56192, Control_c, 0, 67, 100
1, 56204, Note_off_c, 0, 53, 59
1, 56207, Control_c, 0, 64, 92
1, 56207, Control_c, 0, 67, 100
1, 56222, Control_c, 0, 64, 116
1, 56222, Control_c, 0, 67, 101
1, 56237, Control_c, 0, 64, 127
1, 56237, Control_c, 0, 67, 101
1, 56296, Control_c, 0, 67, 102
1, 56414, Control_c, 0, 67, 102
1, 56444, Control_c, 0, 64, 115
1, 56460, Control_c, 0, 64, 95
1, 56460, Control_c, 0, 67, 103
1, 56475, Control_c, 0, 64, 80
1, 56488, Note_on_c, 0, 74, 51
1, 56489, Control_c, 0, 64, 66
1, 56497, Note_on_c, 0, 57, 37
1, 56502, Note_on_c, 0, 65, 33
1, 56504, Control_c, 0, 64, 0
1, 56519, Control_c, 0, 67, 103
1, 56534, Control_c, 0, 67, 105
1, 56536, Note_off_c, 0, 57, 62
1, 56549, Control_c, 0, 67, 106
1, 56562, Note_off_c, 0, 65, 52
1, 56563, Control_c, 0, 67, 107
1, 56578, Control_c, 0, 67, 108
1, 56593, Control_c, 0, 67, 109
1, 56600, Note_on_c, 0, 72, 59
1, 56606, Note_off_c, 0, 74, 63
1, 56607, Control_c, 0, 67, 110
1, 56622, Control_c, 0, 67, 111
1, 56634, Note_off_c, 0, 72, 63
1, 56637, Control_c, 0, 67, 111
1, 56652, Control_c, 0, 67, 112
1, 56667, Control_c, 0, 67, 112
1, 56721, Note_on_c, 0, 72, 61
1, 56732, Note_on_c, 0, 60, 47
1, 56752, Note_off_c, 0, 72, 63
1, 56762, Note_off_c, 0, 60, 66
1, 56817, Note_on_c, 0, 77, 66
1, 56847, Note_off_c, 0, 69, 53
1, 56859, Note_off_c, 0, 77, 57
1, 56963, Note_on_c, 0, 76, 63
1, 56985, Note_on_c, 0, 48, 46
1, 56997, Note_on_c, 0, 67, 45
1, 57000, Control_c, 0, 64, 54
1, 57014, Control_c, 0, 64, 68
1, 57026, Note_off_c, 0, 48, 62
1, 57029, Control_c, 0, 64, 80
1, 57029, Control_c, 0, 67, 112
1, 57044, Control_c, 0, 64, 99
1, 57044, Control_c, 0, 67, 111
1, 57059, Control_c, 0, 64, 127
1, 57103, Control_c, 0, 67, 111
1, 57267, Control_c, 0, 64, 108
1, 57267, Control_c, 0, 67, 110
1, 57282, Control_c, 0, 64, 86
1, 57282, Control_c, 0, 67, 109
1, 57290, Note_on_c, 0, 72, 60
1, 57297, Control_c, 0, 64, 71
1, 57297, Control_c, 0, 67, 107
1, 57301, Note_on_c, 0, 55, 45
1, 57309, Note_on_c, 0, 64, 44
1, 57310, Note_off_c, 0, 76, 60
1, 57311, Control_c, 0, 64, 46
1, 57311, Control_c, 0, 67, 104
1, 57326, Control_c, 0, 64, 0
1, 57326, Control_c, 0, 67, 100
1, 57338, Note_off_c, 0, 55, 65
1, 57341, Control_c, 0, 67, 92
1, 57349, Note_off_c, 0, 64, 64
1, 57352, Note_off_c, 0, 72, 64
1, 57355, Control_c, 0, 67, 77
1, 57370, Control_c, 0, 67, 52
1, 57385, Control_c, 0, 67, 26
1, 57400, Control_c, 0, 67, 0
1, 57556, Note_on_c, 0, 72, 61
1, 57563, Control_c, 0, 64, 33
1, 57574, Note_on_c, 0, 60, 46
1, 57578, Control_c, 0, 64, 68
1, 57589, Note_on_c, 0, 64, 14
1, 57591, Note_off_c, 0, 72, 61
1, 57592, Note_off_c, 0, 67, 58
1, 57593, Control_c, 0, 64, 79
1, 57608, Control_c, 0, 64, 94
1, 57610, Note_off_c, 0, 60, 66
1, 57629, Control_c, 0, 64, 118
1, 57644, Control_c, 0, 64, 127
1, 57646, Note_off_c, 0, 64, 37
1, 57705, Note_on_c, 0, 70, 64
1, 57718, Control_c, 0, 64, 107
1, 57733, Control_c, 0, 64, 93
1, 57736, Note_off_c, 0, 70, 65
1, 57748, Control_c, 0, 64, 81
1, 57754, Note_on_c, 0, 72, 62
1, 57763, Control_c, 0, 64, 66
1, 57778, Control_c, 0, 64, 0
1, 57811, Note_on_c, 0, 70, 65
1, 57814, Note_off_c, 0, 72, 62
1, 57815, Note_on_c, 0, 43, 60
1, 57823, Note_on_c, 0, 67, 54
1, 57844, Note_off_c, 0, 70, 61
1, 57856, Note_off_c, 0, 43, 61
1, 57950, Note_on_c, 0, 69, 63
1, 57987, Note_off_c, 0, 69, 57
1, 58063, Note_on_c, 0, 70, 65
1, 58075, Note_on_c, 0, 55, 46
1, 58093, Note_on_c, 0, 62, 38
1, 58094, Note_off_c, 0, 70, 64
1, 58109, Note_off_c, 0, 55, 64
1, 58124, Note_off_c, 0, 62, 56
1, 58180, Note_on_c, 0, 74, 61
1, 58222, Note_off_c, 0, 74, 61
1, 58288, Note_on_c, 0, 72, 66
1, 58301, Note_on_c, 0, 58, 55
1, 58305, Note_off_c, 0, 67, 31
1, 58331, Note_off_c, 0, 58, 64
1, 58347, Note_off_c, 0, 72, 51
1, 58386, Poly_aftertouch_c, 0, 62, 0
1, 58402, Note_on_c, 0, 70, 59
1, 58409, Control_c, 0, 67, 8
1, 58424, Control_c, 0, 67, 9
1, 58437, Note_off_c, 0, 70, 63
1, 58439, Control_c, 0, 67, 9
1, 58453, Control_c, 0, 67, 10
1, 58468, Control_c, 0, 67, 12
1, 58483, Control_c, 0, 67, 13
1, 58498, Control_c, 0, 67, 16
1, 58513, Control_c, 0, 67, 18
1, 58527, Control_c, 0, 67, 19
1, 58531, Note_on_c, 0, 74, 56
1, 58552, Note_on_c, 0, 50, 34
1, 58565, Note_on_c, 0, 65, 41
1, 58572, Control_c, 0, 64, 60
1, 58586, Control_c, 0, 64, 70
1, 58593, Note_off_c, 0, 50, 57
1, 58601, Control_c, 0, 64, 83
1, 58616, Control_c, 0, 64, 105
1, 58631, Control_c, 0, 64, 127
1, 58809, Control_c, 0, 64, 101
1, 58824, Control_c, 0, 64, 80
1, 58824, Control_c, 0, 67, 20
1, 58839, Note_on_c, 0, 69, 51
1, 58839, Control_c, 0, 64, 64
1, 58846, Note_on_c, 0, 62, 32
1, 58848, Note_on_c, 0, 53, 41
1, 58854, Control_c, 0, 64, 0
1, 58854, Control_c, 0, 67, 20
1, 58863, Note_off_c, 0, 74, 54
1, 58880, Note_off_c, 0, 69, 62
1, 58884, Control_c, 0, 67, 21
1, 58887, Note_off_c, 0, 65, 54
1, 58890, Note_off_c, 0, 53, 64
1, 58898, Note_off_c, 0, 62, 58
1, 58914, Control_c, 0, 67, 23
1, 58929, Control_c, 0, 67, 25
1, 58944, Control_c, 0, 67, 25
1, 58958, Control_c, 0, 67, 26
1, 58973, Control_c, 0, 67, 27
1, 58988, Control_c, 0, 67, 27
1, 59002, Control_c, 0, 67, 28
1, 59017, Control_c, 0, 67, 29
1, 59032, Control_c, 0, 67, 29
1, 59047, Control_c, 0, 67, 30
1, 59062, Control_c, 0, 67, 31
1, 59076, Control_c, 0, 67, 31
1, 59091, Control_c, 0, 67, 32
1, 59095, Note_on_c, 0, 69, 54
1, 59106, Control_c, 0, 67, 32
1, 59113, Note_on_c, 0, 57, 40
1, 59116, Note_on_c, 0, 65, 42
1, 59128, Control_c, 0, 67, 33
1, 59132, Note_on_c, 0, 62, 35
1, 59143, Control_c, 0, 67, 35
1, 59152, Note_off_c, 0, 69, 62
1, 59158, Control_c, 0, 67, 37
1, 59159, Note_off_c, 0, 65, 63
1, 59161, Note_off_c, 0, 57, 63
1, 59164, Note_off_c, 0, 62, 56
1, 59173, Control_c, 0, 67, 39
1, 59188, Control_c, 0, 67, 42
1, 59202, Control_c, 0, 67, 44
1, 59217, Control_c, 0, 67, 45
1, 59232, Control_c, 0, 67, 46
1, 59247, Control_c, 0, 67, 46
1, 59276, Control_c, 0, 67, 47
1, 59306, Control_c, 0, 67, 48
1, 59335, Control_c, 0, 67, 48
1, 59350, Control_c, 0, 67, 49
1, 59376, Note_on_c, 0, 70, 61
1, 59398, Note_on_c, 0, 50, 40
1, 59409, Control_c, 0, 64, 60
1, 59420, Note_on_c, 0, 65, 43
1, 59424, Control_c, 0, 64, 72
1, 59439, Control_c, 0, 64, 87
1, 59454, Control_c, 0, 64, 127
1, 59478, Note_off_c, 0, 50, 52
1, 59508, Note_off_c, 0, 70, 63
1, 59528, Control_c, 0, 67, 48
1, 59632, Control_c, 0, 64, 108
1, 59638, Note_on_c, 0, 72, 63
1, 59647, Control_c, 0, 64, 86
1, 59659, Note_on_c, 0, 53, 49
1, 59662, Control_c, 0, 64, 65
1, 59669, Note_on_c, 0, 62, 36
1, 59677, Control_c, 0, 64, 0
1, 59677, Control_c, 0, 67, 49
1, 59689, Note_off_c, 0, 53, 64
1, 59701, Note_off_c, 0, 62, 55
1, 59707, Control_c, 0, 67, 49
1, 59722, Control_c, 0, 67, 50
1, 59737, Control_c, 0, 67, 50
1, 59746, Note_on_c, 0, 70, 73
1, 59756, Note_off_c, 0, 72, 52
1, 59766, Control_c, 0, 67, 52
1, 59781, Control_c, 0, 67, 53
1, 59784, Note_off_c, 0, 70, 63
1, 59796, Control_c, 0, 67, 54
1, 59811, Control_c, 0, 67, 55
1, 59825, Control_c, 0, 67, 57
1, 59840, Control_c, 0, 67, 58
1, 59855, Control_c, 0, 67, 60
1, 59863, Note_on_c, 0, 70, 73
1, 59875, Note_on_c, 0, 58, 55
1, 59877, Control_c, 0, 67, 61
1, 59892, Control_c, 0, 67, 62
1, 59906, Control_c, 0, 67, 63
1, 59909, Note_off_c, 0, 58, 64
1, 59913, Note_off_c, 0, 70, 58
1, 59921, Control_c, 0, 67, 64
1, 59936, Control_c, 0, 67, 64
1, 59951, Control_c, 0, 67, 65
1, 59966, Control_c, 0, 67, 65
1, 59976, Note_on_c, 0, 74, 72
1, 59981, Control_c, 0, 67, 66
1, 59996, Control_c, 0, 67, 68
1, 60001, Note_off_c, 0, 65, 63
1, 60011, Control_c, 0, 67, 69
1, 60013, Note_off_c, 0, 74, 61
1, 60025, Control_c, 0, 67, 69
1, 60099, Note_on_c, 0, 74, 69
1, 60109, Note_on_c, 0, 48, 50
1, 60129, Control_c, 0, 64, 63
1, 60135, Note_on_c, 0, 65, 46
1, 60144, Control_c, 0, 64, 77
1, 60150, Note_off_c, 0, 48, 62
1, 60158, Control_c, 0, 64, 98
1, 60173, Control_c, 0, 64, 127
1, 60351, Control_c, 0, 64, 100
1, 60365, Note_on_c, 0, 69, 60
1, 60365, Control_c, 0, 64, 79
1, 60365, Control_c, 0, 67, 70
1, 60380, Control_c, 0, 64, 57
1, 60387, Note_on_c, 0, 53, 44
1, 60392, Note_on_c, 0, 60, 42
1, 60395, Control_c, 0, 64, 0
1, 60395, Control_c, 0, 67, 70
1, 60399, Note_off_c, 0, 74, 57
1, 60410, Control_c, 0, 67, 71
1, 60413, Note_off_c, 0, 65, 59
1, 60420, Note_off_c, 0, 53, 66
1, 60423, Note_off_c, 0, 69, 61
1, 60425, Control_c, 0, 67, 72
1, 60427, Note_off_c, 0, 60, 65
1, 60440, Control_c, 0, 67, 74
1, 60455, Control_c, 0, 67, 76
1, 60470, Control_c, 0, 67, 78
1, 60485, Control_c, 0, 67, 79
1, 60500, Control_c, 0, 67, 79
1, 60515, Control_c, 0, 67, 80
1, 60529, Control_c, 0, 67, 80
1, 60559, Control_c, 0, 67, 81
1, 60574, Control_c, 0, 67, 82
1, 60589, Control_c, 0, 67, 82
1, 60603, Note_on_c, 0, 69, 62
1, 60604, Control_c, 0, 67, 83
1, 60616, Note_on_c, 0, 57, 55
1, 60637, Note_off_c, 0, 69, 68
1, 60638, Note_on_c, 0, 65, 30
1, 60641, Control_c, 0, 67, 83
1, 60643, Note_on_c, 0, 60, 32
1, 60655, Control_c, 0, 67, 84
1, 60658, Note_off_c, 0, 57, 64
1, 60668, Note_off_c, 0, 65, 50
1, 60676, Note_off_c, 0, 60, 52
1, 60685, Control_c, 0, 67, 84
1, 60700, Control_c, 0, 67, 85
1, 60747, Note_on_c, 0, 70, 65
1, 60777, Note_off_c, 0, 70, 64
1, 60804, Control_c, 0, 67, 85
1, 60804, Note_on_c, 0, 72, 59
1, 60833, Control_c, 0, 67, 86
1, 60863, Control_c, 0, 67, 86
1, 60865, Note_on_c, 0, 48, 51
1, 60868, Note_on_c, 0, 70, 62
1, 60868, Note_off_c, 0, 72, 62
1, 60878, Note_on_c, 0, 64, 53
1, 60896, Note_off_c, 0, 70, 66
1, 60907, Note_off_c, 0, 48, 60
1, 60908, Control_c, 0, 67, 87
1, 60937, Control_c, 0, 67, 88
1, 60952, Control_c, 0, 67, 88
1, 60981, Control_c, 0, 67, 89
1, 60985, Note_on_c, 0, 69, 65
1, 61019, Note_off_c, 0, 69, 62
1, 61070, Control_c, 0, 67, 89
1, 61099, Note_on_c, 0, 70, 66
1, 61104, Note_on_c, 0, 55, 52
1, 61112, Note_on_c, 0, 60, 44
1, 61127, Note_off_c, 0, 70, 67
1, 61135, Note_off_c, 0, 55, 65
1, 61146, Note_off_c, 0, 60, 59
1, 61220, Note_on_c, 0, 74, 69
1, 61255, Note_off_c, 0, 64, 61
1, 61263, Note_off_c, 0, 74, 62
1, 61338, Note_on_c, 0, 72, 62
1, 61340, Note_on_c, 0, 48, 49
1, 61352, Control_c, 0, 67, 89
1, 61367, Control_c, 0, 67, 87
1, 61376, Note_off_c, 0, 72, 61
1, 61381, Note_off_c, 0, 48, 64
1, 61389, Control_c, 0, 67, 86
1, 61403, Control_c, 0, 67, 86
1, 61418, Control_c, 0, 67, 84
1, 61433, Control_c, 0, 67, 83
1, 61448, Control_c, 0, 67, 82
1, 61459, Note_on_c, 0, 70, 59
1, 61463, Control_c, 0, 67, 80
1, 61477, Control_c, 0, 67, 79
1, 61492, Control_c, 0, 67, 78
1, 61495, Note_off_c, 0, 70, 61
1, 61507, Control_c, 0, 67, 77
1, 61522, Control_c, 0, 67, 76
1, 61537, Control_c, 0, 67, 74
1, 61552, Control_c, 0, 67, 71
1, 61567, Control_c, 0, 67, 69
1, 61582, Control_c, 0, 67, 66
1, 61597, Control_c, 0, 67, 61
1, 61611, Control_c, 0, 67, 54
1, 61626, Control_c, 0, 67, 48
1, 61636, Note_on_c, 0, 69, 44
1, 61641, Control_c, 0, 67, 41
1, 61656, Control_c, 0, 67, 34
1, 61661, Note_on_c, 0, 65, 31
1, 61665, Note_on_c, 0, 53, 27
1, 61668, Note_on_c, 0, 60, 21
1, 61671, Control_c, 0, 64, 39
1, 61671, Control_c, 0, 67, 26
1, 61685, Control_c, 0, 64, 63
1, 61685, Control_c, 0, 67, 17
1, 61700, Control_c, 0, 64, 69
1, 61700, Control_c, 0, 67, 8
1, 61715, Control_c, 0, 64, 75
1, 61715, Control_c, 0, 67, 0
1, 61729, Control_c, 0, 64, 84
1, 61744, Control_c, 0, 64, 99
1, 61752, Note_off_c, 0, 53, 54
1, 61755, Note_off_c, 0, 60, 53
1, 61759, Control_c, 0, 64, 127
1, 61814, Note_off_c, 0, 65, 39
1, 61816, Note_off_c, 0, 69, 56
1, 62168, Control_c, 0, 64, 106
1, 62183, Control_c, 0, 64, 85
1, 62198, Control_c, 0, 64, 69
1, 62213, Control_c, 0, 64, 0
1, 62213, Control_c, 0, 67, 10
1, 62224, Note_on_c, 0, 72, 58
1, 62227, Control_c, 0, 67, 12
1, 62242, Control_c, 0, 67, 15
1, 62257, Control_c, 0, 64, 42
1, 62257, Control_c, 0, 67, 18
1, 62272, Control_c, 0, 64, 63
1, 62272, Control_c, 0, 67, 21
1, 62287, Control_c, 0, 64, 70
1, 62287, Control_c, 0, 67, 24
1, 62301, Control_c, 0, 64, 80
1, 62301, Control_c, 0, 67, 28
1, 62316, Control_c, 0, 64, 93
1, 62316, Control_c, 0, 67, 32
1, 62331, Control_c, 0, 64, 114
1, 62331, Control_c, 0, 67, 34
1, 62340, Note_off_c, 0, 72, 63
1, 62345, Control_c, 0, 64, 127
1, 62345, Control_c, 0, 67, 36
1, 62360, Control_c, 0, 67, 39
1, 62375, Control_c, 0, 67, 41
1, 62390, Control_c, 0, 67, 43
1, 62405, Control_c, 0, 67, 45
1, 62420, Control_c, 0, 67, 47
1, 62434, Control_c, 0, 67, 48
1, 62449, Control_c, 0, 67, 49
1, 62464, Control_c, 0, 67, 51
1, 62479, Control_c, 0, 67, 53
1, 62494, Control_c, 0, 67, 55
1, 62509, Control_c, 0, 67, 57
1, 62524, Control_c, 0, 67, 60
1, 62539, Control_c, 0, 67, 62
1, 62553, Control_c, 0, 64, 109
1, 62553, Control_c, 0, 67, 64
1, 62557, Note_on_c, 0, 72, 71
1, 62568, Control_c, 0, 64, 87
1, 62568, Control_c, 0, 67, 66
1, 62583, Control_c, 0, 64, 71
1, 62583, Control_c, 0, 67, 68
1, 62592, Note_on_c, 0, 53, 40
1, 62595, Note_on_c, 0, 69, 46
1, 62598, Control_c, 0, 64, 50
1, 62598, Control_c, 0, 67, 70
1, 62613, Control_c, 0, 64, 0
1, 62613, Control_c, 0, 67, 72
1, 62627, Control_c, 0, 64, 46
1, 62627, Control_c, 0, 67, 73
1, 62642, Control_c, 0, 64, 63
1, 62642, Control_c, 0, 67, 74
1, 62652, Note_off_c, 0, 53, 57
1, 62657, Control_c, 0, 64, 71
1, 62657, Control_c, 0, 67, 76
1, 62671, Control_c, 0, 64, 82
1, 62671, Control_c, 0, 67, 77
1, 62686, Control_c, 0, 64, 102
1, 62686, Control_c, 0, 67, 78
1, 62701, Control_c, 0, 64, 127
1, 62701, Control_c, 0, 67, 79
1, 62716, Control_c, 0, 67, 80
1, 62717, Note_off_c, 0, 72, 59
1, 62760, Control_c, 0, 67, 80
1, 62805, Control_c, 0, 67, 81
1, 62880, Note_on_c, 0, 74, 66
1, 62884, Note_on_c, 0, 57, 50
1, 62902, Control_c, 0, 64, 103
1, 62903, Note_on_c, 0, 65, 32
1, 62917, Control_c, 0, 64, 86
1, 62917, Control_c, 0, 67, 81
1, 62923, Note_off_c, 0, 57, 62
1, 62932, Control_c, 0, 64, 72
1, 62947, Note_off_c, 0, 65, 49
1, 62947, Control_c, 0, 64, 48
1, 62947, Control_c, 0, 67, 82
1, 62962, Control_c, 0, 64, 0
1, 62962, Control_c, 0, 67, 82
1, 62976, Control_c, 0, 67, 83
1, 62980, Note_on_c, 0, 72, 71
1, 62988, Note_off_c, 0, 74, 63
1, 62991, Control_c, 0, 67, 84
1, 63006, Control_c, 0, 67, 84
1, 63017, Note_off_c, 0, 72, 62
1, 63021, Control_c, 0, 67, 85
1, 63036, Control_c, 0, 67, 85
1, 63065, Control_c, 0, 67, 86
1, 63080, Control_c, 0, 67, 86
1, 63095, Control_c, 0, 67, 87
1, 63101, Note_on_c, 0, 72, 68
1, 63110, Control_c, 0, 67, 88
1, 63114, Note_on_c, 0, 60, 51
1, 63124, Control_c, 0, 67, 88
1, 63139, Control_c, 0, 67, 89
1, 63144, Note_off_c, 0, 72, 62
1, 63150, Note_off_c, 0, 60, 66
1, 63154, Control_c, 0, 67, 90
1, 63168, Control_c, 0, 67, 91
1, 63183, Control_c, 0, 67, 92
1, 63198, Control_c, 0, 67, 93
1, 63208, Note_on_c, 0, 77, 69
1, 63213, Control_c, 0, 67, 95
1, 63228, Note_off_c, 0, 69, 58
1, 63228, Control_c, 0, 67, 97
1, 63242, Control_c, 0, 67, 100
1, 63254, Note_off_c, 0, 77, 60
1, 63257, Control_c, 0, 67, 102
1, 63272, Control_c, 0, 67, 105
1, 63287, Control_c, 0, 67, 107
1, 63302, Control_c, 0, 67, 110
1, 63317, Control_c, 0, 67, 113
1, 63331, Control_c, 0, 67, 116
1, 63346, Control_c, 0, 67, 120
1, 63347, Note_on_c, 0, 76, 58
1, 63358, Note_on_c, 0, 67, 52
1, 63361, Control_c, 0, 67, 124
1, 63373, Note_on_c, 0, 48, 27
1, 63376, Control_c, 0, 64, 14
1, 63376, Control_c, 0, 67, 127
1, 63391, Control_c, 0, 64, 62
1, 63406, Control_c, 0, 64, 71
1, 63421, Control_c, 0, 64, 80
1, 63426, Note_off_c, 0, 48, 59
1, 63436, Control_c, 0, 64, 93
1, 63450, Control_c, 0, 64, 119
1, 63465, Control_c, 0, 64, 127
1, 63656, Note_on_c, 0, 72, 56
1, 63681, Note_off_c, 0, 76, 60
1, 63686, Note_on_c, 0, 55, 38
1, 63690, Note_on_c, 0, 64, 35
1, 63705, Note_off_c, 0, 67, 57
1, 63721, Note_off_c, 0, 72, 62
1, 63731, Note_off_c, 0, 55, 59
1, 63747, Note_off_c, 0, 64, 59
1, 63960, Control_c, 0, 64, 101
1, 63975, Control_c, 0, 64, 81
1, 63981, Note_on_c, 0, 67, 53
1, 63983, Note_on_c, 0, 72, 50
1, 63990, Control_c, 0, 64, 65
1, 64005, Control_c, 0, 64, 31
1, 64005, Note_on_c, 0, 60, 36
1, 64020, Control_c, 0, 64, 32
1, 64021, Note_on_c, 0, 64, 29
1, 64024, Note_off_c, 0, 72, 59
1, 64035, Control_c, 0, 64, 57
1, 64050, Control_c, 0, 64, 65
1, 64064, Note_off_c, 0, 64, 56
1, 64064, Control_c, 0, 64, 73
1, 64079, Control_c, 0, 64, 84
1, 64080, Note_off_c, 0, 67, 56
1, 64081, Note_off_c, 0, 60, 62
1, 64094, Control_c, 0, 64, 101
1, 64109, Control_c, 0, 64, 127
1, 64246, Note_on_c, 0, 70, 56
1, 64271, Control_c, 0, 64, 114
1, 64280, Note_off_c, 0, 70, 63
1, 64286, Control_c, 0, 64, 93
1, 64296, Note_on_c, 0, 72, 54
1, 64301, Control_c, 0, 64, 77
1, 64315, Control_c, 0, 64, 60
1, 64330, Control_c, 0, 64, 0
1, 64345, Note_off_c, 0, 72, 58
1, 64359, Note_on_c, 0, 70, 53
1, 64361, Note_on_c, 0, 43, 41
1, 64372, Note_on_c, 0, 67, 49
1, 64399, Note_off_c, 0, 70, 66
1, 64402, Note_off_c, 0, 43, 59
1, 64530, Note_on_c, 0, 69, 61
1, 64572, Note_off_c, 0, 69, 53
1, 64672, Note_on_c, 0, 70, 58
1, 64679, Note_on_c, 0, 55, 45
1, 64693, Note_on_c, 0, 62, 41
1, 64702, Note_off_c, 0, 70, 66
1, 64707, Note_off_c, 0, 55, 62
1, 64727, Note_off_c, 0, 62, 55
1, 64783, Note_on_c, 0, 74, 61
1, 64816, Note_off_c, 0, 74, 63
1, 64896, Note_on_c, 0, 72, 61
1, 64907, Note_on_c, 0, 58, 52
1, 64917, Note_off_c, 0, 67, 26
1, 64930, Note_on_c, 0, 62, 11
1, 64941, Note_off_c, 0, 72, 57
1, 64947, Note_off_c, 0, 58, 60
1, 64966, Note_off_c, 0, 62, 42
1, 64999, Note_on_c, 0, 70, 63
1, 65033, Note_off_c, 0, 70, 62
1, 65147, Note_on_c, 0, 74, 53
1, 65162, Note_on_c, 0, 50, 36
1, 65163, Note_on_c, 0, 65, 39
1, 65177, Control_c, 0, 64, 11
1, 65192, Control_c, 0, 64, 58
1, 65206, Control_c, 0, 64, 67
1, 65209, Note_off_c, 0, 50, 61
1, 65221, Control_c, 0, 64, 76
1, 65236, Control_c, 0, 64, 86
1, 65251, Control_c, 0, 64, 98
1, 65266, Control_c, 0, 64, 109
1, 65281, Control_c, 0, 64, 127
1, 65430, Control_c, 0, 64, 100
1, 65444, Control_c, 0, 64, 81
1, 65453, Note_on_c, 0, 69, 50
1, 65454, Note_on_c, 0, 53, 44
1, 65454, Note_on_c, 0, 62, 41
1, 65459, Control_c, 0, 64, 67
1, 65474, Control_c, 0, 64, 0
1, 65488, Note_off_c, 0, 53, 66
1, 65489, Note_off_c, 0, 74, 58
1, 65493, Note_off_c, 0, 62, 64
1, 65494, Note_off_c, 0, 69, 62
1, 65495, Note_off_c, 0, 65, 61
1, 65636, Control_c, 0, 67, 126
1, 65651, Control_c, 0, 67, 119
1, 65666, Control_c, 0, 67, 110
1, 65681, Control_c, 0, 67, 101
1, 65695, Control_c, 0, 67, 92
1, 65710, Control_c, 0, 67, 84
1, 65713, Note_on_c, 0, 69, 57
1, 65725, Control_c, 0, 67, 77
1, 65729, Note_on_c, 0, 65, 42
1, 65731, Note_on_c, 0, 57, 45
1, 65740, Control_c, 0, 67, 70
1, 65755, Control_c, 0, 67, 62
1, 65769, Note_off_c, 0, 65, 64
1, 65770, Control_c, 0, 67, 54
1, 65778, Note_off_c, 0, 69, 64
1, 65782, Note_off_c, 0, 57, 57
1, 65785, Control_c, 0, 67, 46
1, 65800, Control_c, 0, 67, 37
1, 65812, Poly_aftertouch_c, 0, 62, 0
1, 65815, Control_c, 0, 67, 29
1, 65829, Control_c, 0, 67, 20
1, 65844, Control_c, 0, 67, 10
1, 65866, Control_c, 0, 67, 0
1, 65881, Control_c, 0, 64, 28
1, 65895, Control_c, 0, 64, 47
1, 65910, Control_c, 0, 64, 55
1, 65925, Control_c, 0, 64, 59
1, 65940, Control_c, 0, 64, 63
1, 65955, Control_c, 0, 64, 65
1, 65970, Control_c, 0, 64, 68
1, 65984, Note_on_c, 0, 70, 67
1, 65984, Control_c, 0, 64, 72
1, 65994, Note_on_c, 0, 50, 48
1, 65999, Control_c, 0, 64, 76
1, 66014, Control_c, 0, 64, 83
1, 66025, Note_on_c, 0, 65, 43
1, 66029, Control_c, 0, 64, 96
1, 66045, Control_c, 0, 64, 127
1, 66075, Note_off_c, 0, 50, 54
1, 66131, Note_off_c, 0, 70, 63
1, 66238, Note_on_c, 0, 72, 66
1, 66253, Control_c, 0, 64, 105
1, 66259, Note_on_c, 0, 53, 53
1, 66266, Note_on_c, 0, 62, 46
1, 66267, Control_c, 0, 64, 89
1, 66282, Control_c, 0, 64, 75
1, 66288, Note_off_c, 0, 53, 65
1, 66296, Note_off_c, 0, 62, 57
1, 66297, Control_c, 0, 64, 60
1, 66312, Control_c, 0, 64, 0
1, 66348, Note_on_c, 0, 70, 74
1, 66372, Note_off_c, 0, 72, 56
1, 66388, Note_off_c, 0, 70, 62
1, 66461, Note_on_c, 0, 70, 72
1, 66471, Note_on_c, 0, 58, 58
1, 66510, Note_off_c, 0, 58, 58
1, 66528, Note_off_c, 0, 70, 60
1, 66566, Note_on_c, 0, 74, 71
1, 66602, Note_off_c, 0, 65, 63
1, 66615, Note_off_c, 0, 74, 63
1, 66660, Control_c, 0, 67, 8
1, 66674, Control_c, 0, 67, 9
1, 66689, Control_c, 0, 67, 10
1, 66704, Control_c, 0, 67, 11
1, 66709, Note_on_c, 0, 74, 65
1, 66718, Control_c, 0, 67, 13
1, 66721, Note_on_c, 0, 48, 54
1, 66733, Control_c, 0, 64, 62
1, 66733, Control_c, 0, 67, 15
1, 66742, Note_on_c, 0, 65, 48
1, 66748, Control_c, 0, 64, 71
1, 66748, Control_c, 0, 67, 17
1, 66763, Control_c, 0, 64, 84
1, 66763, Control_c, 0, 67, 20
1, 66774, Note_off_c, 0, 48, 62
1, 66778, Control_c, 0, 64, 108
1, 66778, Control_c, 0, 67, 22
1, 66792, Control_c, 0, 64, 127
1, 66792, Control_c, 0, 67, 24
1, 66807, Control_c, 0, 67, 26
1, 66822, Control_c, 0, 67, 27
1, 66838, Control_c, 0, 67, 29
1, 66853, Control_c, 0, 67, 31
1, 66868, Control_c, 0, 67, 33
1, 66883, Control_c, 0, 67, 35
1, 66897, Control_c, 0, 67, 38
1, 66912, Control_c, 0, 67, 40
1, 66927, Control_c, 0, 67, 41
1, 66941, Control_c, 0, 67, 44
1, 66956, Control_c, 0, 67, 46
1, 66971, Control_c, 0, 64, 119
1, 66971, Control_c, 0, 67, 48
1, 66976, Note_on_c, 0, 69, 64
1, 66986, Note_on_c, 0, 53, 53
1, 66986, Control_c, 0, 64, 91
1, 66986, Control_c, 0, 67, 51
1, 67001, Control_c, 0, 64, 74
1, 67001, Control_c, 0, 67, 53
1, 67005, Note_on_c, 0, 60, 42
1, 67016, Control_c, 0, 64, 53
1, 67016, Control_c, 0, 67, 56
1, 67017, Note_off_c, 0, 65, 62
1, 67021, Note_off_c, 0, 74, 60
1, 67025, Note_off_c, 0, 53, 65
1, 67029, Note_off_c, 0, 69, 59
1, 67031, Control_c, 0, 64, 0
1, 67031, Control_c, 0, 67, 58
1, 67039, Note_off_c, 0, 60, 64
1, 67046, Control_c, 0, 67, 61
1, 67061, Control_c, 0, 67, 63
1, 67076, Control_c, 0, 67, 65
1, 67090, Control_c, 0, 67, 66
1, 67105, Control_c, 0, 67, 68
1, 67120, Control_c, 0, 67, 69
1, 67135, Control_c, 0, 67, 70
1, 67149, Control_c, 0, 67, 72
1, 67164, Control_c, 0, 67, 73
1, 67179, Control_c, 0, 67, 75
1, 67194, Control_c, 0, 67, 77
1, 67209, Note_on_c, 0, 69, 68
1, 67209, Control_c, 0, 67, 78
1, 67223, Control_c, 0, 67, 78
1, 67226, Note_on_c, 0, 57, 53
1, 67227, Note_on_c, 0, 65, 46
1, 67236, Note_off_c, 0, 69, 65
1, 67238, Control_c, 0, 67, 79
1, 67251, Note_on_c, 0, 60, 17
1, 67253, Control_c, 0, 67, 80
1, 67256, Note_off_c, 0, 65, 60
1, 67259, Note_off_c, 0, 57, 64
1, 67267, Control_c, 0, 67, 81
1, 67282, Control_c, 0, 67, 82
1, 67290, Note_off_c, 0, 60, 43
1, 67297, Control_c, 0, 67, 83
1, 67327, Control_c, 0, 67, 83
1, 67335, Note_on_c, 0, 70, 66
1, 67374, Note_off_c, 0, 70, 64
1, 67397, Note_on_c, 0, 72, 62
1, 67448, Note_on_c, 0, 70, 67
1, 67464, Note_off_c, 0, 72, 62
1, 67466, Note_on_c, 0, 48, 54
1, 67466, Control_c, 0, 64, 61
1, 67474, Note_on_c, 0, 64, 52
1, 67481, Control_c, 0, 64, 67
1, 67493, Note_off_c, 0, 70, 61
1, 67496, Control_c, 0, 64, 71
1, 67507, Note_off_c, 0, 48, 60
1, 67511, Control_c, 0, 64, 72
1, 67541, Control_c, 0, 64, 71
1, 67555, Control_c, 0, 64, 68
1, 67570, Control_c, 0, 64, 65
1, 67579, Note_on_c, 0, 69, 69
1, 67585, Control_c, 0, 64, 61
1, 67600, Control_c, 0, 64, 50
1, 67615, Control_c, 0, 64, 0
1, 67615, Note_off_c, 0, 69, 61
1, 67699, Note_on_c, 0, 70, 66
1, 67703, Note_on_c, 0, 55, 53
1, 67710, Note_on_c, 0, 60, 46
1, 67728, Note_off_c, 0, 70, 65
1, 67737, Note_off_c, 0, 55, 62
1, 67747, Note_off_c, 0, 60, 64
1, 67820, Note_on_c, 0, 74, 62
1, 67858, Note_off_c, 0, 64, 54
1, 67861, Note_off_c, 0, 74, 60
1, 67936, Note_on_c, 0, 72, 58
1, 67948, Note_on_c, 0, 48, 47
1, 67962, Note_on_c, 0, 60, 34
1, 67984, Note_off_c, 0, 48, 61
1, 67997, Note_off_c, 0, 60, 54
1, 68003, Note_off_c, 0, 72, 49
1, 68014, Poly_aftertouch_c, 0, 64, 0
1, 68057, Note_on_c, 0, 70, 55
1, 68098, Note_off_c, 0, 70, 62
1, 68172, Control_c, 0, 67, 83
1, 68202, Control_c, 0, 67, 82
1, 68217, Control_c, 0, 67, 82
1, 68232, Control_c, 0, 67, 81
1, 68240, Note_on_c, 0, 69, 44
1, 68246, Control_c, 0, 67, 81
1, 68261, Control_c, 0, 67, 80
1, 68265, Note_on_c, 0, 65, 36
1, 68275, Note_on_c, 0, 53, 32
1, 68275, Note_on_c, 0, 60, 24
1, 68276, Control_c, 0, 67, 79
1, 68290, Control_c, 0, 67, 78
1, 68305, Control_c, 0, 67, 76
1, 68320, Control_c, 0, 64, 57
1, 68320, Control_c, 0, 67, 75
1, 68335, Control_c, 0, 64, 68
1, 68335, Control_c, 0, 67, 73
1, 68350, Control_c, 0, 64, 78
1, 68350, Control_c, 0, 67, 72
1, 68358, Note_off_c, 0, 60, 50
1, 68364, Control_c, 0, 64, 94
1, 68364, Control_c, 0, 67, 70
1, 68379, Control_c, 0, 64, 127
1, 68379, Control_c, 0, 67, 68
1, 68394, Control_c, 0, 67, 63
1, 68409, Control_c, 0, 67, 60
1, 68424, Note_off_c, 0, 53, 36
1, 68424, Control_c, 0, 67, 56
1, 68440, Control_c, 0, 67, 52
1, 68455, Control_c, 0, 67, 48
1, 68469, Control_c, 0, 67, 43
1, 68484, Control_c, 0, 67, 38
1, 68485, Note_off_c, 0, 65, 36
1, 68499, Control_c, 0, 67, 29
1, 68513, Control_c, 0, 67, 20
1, 68528, Control_c, 0, 67, 11
1, 68543, Control_c, 0, 67, 0
1, 68566, Note_off_c, 0, 69, 52
1, 68855, Control_c, 0, 64, 103
1, 68876, Control_c, 0, 64, 83
1, 68886, Note_on_c, 0, 72, 60
1, 68891, Control_c, 0, 64, 64
1, 68906, Control_c, 0, 64, 0
1, 68936, Control_c, 0, 64, 34
1, 68950, Control_c, 0, 64, 62
1, 68965, Control_c, 0, 64, 69
1, 68980, Control_c, 0, 64, 81
1, 68995, Control_c, 0, 64, 99
1, 69010, Control_c, 0, 64, 127
1, 69040, Note_off_c, 0, 72, 63
1, 69243, Note_on_c, 0, 72, 72
1, 69278, Control_c, 0, 64, 117
1, 69278, Note_on_c, 0, 69, 51
1, 69280, Note_on_c, 0, 53, 45
1, 69292, Control_c, 0, 64, 92
1, 69307, Control_c, 0, 64, 77
1, 69322, Control_c, 0, 64, 65
1, 69336, Control_c, 0, 64, 59
1, 69351, Control_c, 0, 64, 65
1, 69366, Control_c, 0, 64, 71
1, 69381, Control_c, 0, 64, 80
1, 69396, Control_c, 0, 64, 95
1, 69410, Control_c, 0, 64, 127
1, 69487, Note_off_c, 0, 53, 25
1, 69562, Note_off_c, 0, 72, 62
1, 69668, Note_on_c, 0, 74, 70
1, 69687, Note_on_c, 0, 57, 39
1, 69702, Note_on_c, 0, 65, 34
1, 69741, Note_off_c, 0, 57, 58
1, 69759, Note_off_c, 0, 65, 55
1, 69762, Note_off_c, 0, 69, 49
1, 69794, Note_on_c, 0, 72, 77
1, 69824, Note_off_c, 0, 74, 65
1, 69849, Note_off_c, 0, 72, 64
1, 69877, Control_c, 0, 64, 108
1, 69892, Control_c, 0, 64, 83
1, 69907, Control_c, 0, 64, 65
1, 69911, Note_on_c, 0, 72, 71
1, 69922, Control_c, 0, 64, 0
1, 69927, Note_on_c, 0, 69, 57
1, 69934, Note_on_c, 0, 60, 46
1, 69957, Note_off_c, 0, 72, 64
1, 69970, Note_off_c, 0, 60, 65
1, 69981, Control_c, 0, 64, 61
1, 69996, Control_c, 0, 64, 71
1, 70006, Poly_aftertouch_c, 0, 65, 0
1, 70010, Control_c, 0, 64, 82
1, 70025, Note_on_c, 0, 81, 79
1, 70025, Control_c, 0, 64, 100
1, 70041, Control_c, 0, 64, 121
1, 70056, Control_c, 0, 64, 127
1, 70064, Note_off_c, 0, 69, 58
1, 70083, Note_off_c, 0, 81, 62
1, 70145, Control_c, 0, 64, 105
1, 70159, Control_c, 0, 64, 85
1, 70174, Control_c, 0, 64, 67
1, 70189, Control_c, 0, 64, 0
1, 70196, Note_on_c, 0, 79, 73
1, 70223, Note_on_c, 0, 52, 39
1, 70224, Note_on_c, 0, 70, 52
1, 70292, Control_c, 0, 64, 52
1, 70307, Control_c, 0, 64, 70
1, 70320, Note_off_c, 0, 52, 51
1, 70322, Control_c, 0, 64, 84
1, 70337, Control_c, 0, 64, 119
1, 70359, Control_c, 0, 64, 127
1, 70526, Note_off_c, 0, 79, 36
1, 70540, Note_on_c, 0, 72, 61
1, 70552, Control_c, 0, 64, 98
1, 70561, Note_on_c, 0, 58, 46
1, 70566, Control_c, 0, 64, 77
1, 70569, Note_off_c, 0, 70, 53
1, 70581, Control_c, 0, 64, 49
1, 70583, Note_on_c, 0, 67, 28
1, 70596, Control_c, 0, 64, 0
1, 70607, Note_off_c, 0, 58, 60
1, 70613, Note_off_c, 0, 72, 63
1, 70626, Note_off_c, 0, 67, 52
1, 70641, Control_c, 0, 67, 8
1, 70816, Note_on_c, 0, 72, 54
1, 70829, Note_on_c, 0, 70, 48
1, 70837, Note_on_c, 0, 67, 29
1, 70838, Note_on_c, 0, 60, 45
1, 70866, Note_off_c, 0, 60, 62
1, 70873, Note_off_c, 0, 67, 49
1, 70873, Note_off_c, 0, 72, 61
1, 70879, Control_c, 0, 67, 8
1, 70880, Note_off_c, 0, 70, 56
1, 70894, Control_c, 0, 67, 9
1, 70908, Control_c, 0, 67, 9
1, 70953, Control_c, 0, 67, 10
1, 70968, Control_c, 0, 67, 11
1, 70982, Control_c, 0, 67, 12
1, 70997, Control_c, 0, 67, 13
1, 71012, Control_c, 0, 67, 14
1, 71027, Control_c, 0, 67, 15
1, 71042, Control_c, 0, 67, 17
1, 71056, Control_c, 0, 67, 19
1, 71071, Control_c, 0, 67, 21
1, 71077, Note_on_c, 0, 72, 59
1, 71086, Control_c, 0, 67, 22
1, 71091, Note_on_c, 0, 69, 51
1, 71093, Note_on_c, 0, 53, 41
1, 71108, Control_c, 0, 67, 23
1, 71123, Control_c, 0, 64, 60
1, 71123, Control_c, 0, 67, 24
1, 71138, Control_c, 0, 64, 73
1, 71138, Control_c, 0, 67, 25
1, 71153, Control_c, 0, 64, 92
1, 71153, Control_c, 0, 67, 26
1, 71162, Note_off_c, 0, 53, 57
1, 71168, Control_c, 0, 64, 127
1, 71168, Control_c, 0, 67, 28
1, 71182, Control_c, 0, 67, 30
1, 71197, Control_c, 0, 67, 32
1, 71212, Control_c, 0, 67, 32
1, 71227, Control_c, 0, 67, 33
1, 71242, Control_c, 0, 67, 33
1, 71243, Note_off_c, 0, 72, 59
1, 71256, Control_c, 0, 67, 35
1, 71271, Control_c, 0, 67, 37
1, 71286, Control_c, 0, 67, 40
1, 71301, Control_c, 0, 67, 43
1, 71315, Control_c, 0, 67, 46
1, 71330, Control_c, 0, 67, 49
1, 71344, Note_on_c, 0, 74, 67
1, 71345, Control_c, 0, 64, 106
1, 71345, Control_c, 0, 67, 53
1, 71360, Control_c, 0, 64, 83
1, 71360, Control_c, 0, 67, 57
1, 71361, Note_on_c, 0, 57, 43
1, 71368, Note_on_c, 0, 65, 44
1, 71375, Control_c, 0, 64, 68
1, 71375, Control_c, 0, 67, 61
1, 71389, Control_c, 0, 64, 0
1, 71389, Control_c, 0, 67, 67
1, 71404, Control_c, 0, 67, 72
1, 71407, Note_off_c, 0, 57, 60
1, 71419, Control_c, 0, 67, 76
1, 71428, Note_off_c, 0, 65, 53
1, 71434, Control_c, 0, 67, 80
1, 71448, Control_c, 0, 67, 84
1, 71459, Note_on_c, 0, 72, 65
1, 71463, Note_off_c, 0, 74, 63
1, 71463, Control_c, 0, 67, 88
1, 71478, Control_c, 0, 67, 92
1, 71493, Control_c, 0, 67, 96
1, 71495, Note_off_c, 0, 72, 62
1, 71508, Control_c, 0, 67, 100
1, 71523, Control_c, 0, 67, 103
1, 71538, Control_c, 0, 67, 106
1, 71553, Control_c, 0, 67, 110
1, 71568, Control_c, 0, 67, 115
1, 71582, Control_c, 0, 67, 120
1, 71585, Note_on_c, 0, 72, 63
1, 71591, Note_on_c, 0, 60, 44
1, 71597, Control_c, 0, 67, 124
1, 71612, Control_c, 0, 67, 127
1, 71625, Note_off_c, 0, 72, 57
1, 71641, Note_off_c, 0, 60, 62
1, 71700, Note_on_c, 0, 81, 60
1, 71731, Note_off_c, 0, 81, 62
1, 71732, Note_off_c, 0, 69, 47
1, 71848, Note_on_c, 0, 77, 58
1, 71872, Note_on_c, 0, 69, 41
1, 71875, Note_on_c, 0, 50, 40
1, 71887, Control_c, 0, 64, 56
1, 71902, Control_c, 0, 64, 67
1, 71916, Control_c, 0, 64, 75
1, 71931, Note_off_c, 0, 50, 64
1, 71931, Control_c, 0, 64, 88
1, 71946, Control_c, 0, 64, 107
1, 71961, Control_c, 0, 64, 127
1, 72138, Control_c, 0, 64, 111
1, 72153, Control_c, 0, 64, 86
1, 72161, Note_on_c, 0, 74, 55
1, 72168, Control_c, 0, 64, 68
1, 72181, Note_off_c, 0, 77, 54
1, 72183, Note_on_c, 0, 57, 40
1, 72183, Control_c, 0, 64, 0
1, 72193, Note_on_c, 0, 65, 35
1, 72224, Note_off_c, 0, 57, 61
1, 72224, Note_off_c, 0, 74, 61
1, 72229, Note_off_c, 0, 65, 58
1, 72229, Note_off_c, 0, 69, 58
1, 72423, Note_on_c, 0, 74, 61
1, 72442, Note_on_c, 0, 62, 44
1, 72447, Note_on_c, 0, 69, 43
1, 72454, Note_on_c, 0, 65, 27
1, 72480, Note_off_c, 0, 62, 63
1, 72484, Note_off_c, 0, 74, 62
1, 72487, Note_off_c, 0, 65, 52
1, 72495, Note_off_c, 0, 69, 57
1, 72695, Note_on_c, 0, 72, 65
1, 72730, Note_on_c, 0, 53, 37
1, 72739, Control_c, 0, 64, 54
1, 72747, Note_on_c, 0, 69, 27
1, 72754, Control_c, 0, 64, 66
1, 72769, Control_c, 0, 64, 74
1, 72784, Control_c, 0, 64, 89
1, 72793, Note_off_c, 0, 53, 57
1, 72799, Control_c, 0, 64, 124
1, 72814, Control_c, 0, 64, 127
1, 72829, Control_c, 0, 67, 118
1, 72843, Control_c, 0, 67, 108
1, 72858, Control_c, 0, 67, 98
1, 72873, Control_c, 0, 67, 88
1, 72879, Note_off_c, 0, 72, 62
1, 72887, Control_c, 0, 67, 75
1, 72902, Control_c, 0, 67, 65
1, 72917, Control_c, 0, 67, 56
1, 72932, Control_c, 0, 67, 49
1, 72947, Control_c, 0, 67, 42
1, 72961, Control_c, 0, 67, 35
1, 72976, Control_c, 0, 67, 28
1, 72991, Control_c, 0, 67, 20
1, 73006, Control_c, 0, 67, 11
1, 73020, Note_on_c, 0, 74, 64
1, 73021, Control_c, 0, 64, 112
1, 73021, Control_c, 0, 67, 0
1, 73023, Note_on_c, 0, 57, 37
1, 73035, Control_c, 0, 64, 87
1, 73050, Control_c, 0, 64, 71
1, 73060, Note_on_c, 0, 65, 11
1, 73065, Control_c, 0, 64, 55
1, 73079, Control_c, 0, 64, 60
1, 73094, Control_c, 0, 64, 68
1, 73109, Control_c, 0, 64, 77
1, 73124, Note_off_c, 0, 57, 56
1, 73124, Control_c, 0, 64, 91
1, 73138, Note_on_c, 0, 72, 66
1, 73139, Control_c, 0, 64, 127
1, 73150, Note_off_c, 0, 74, 63
1, 73151, Note_off_c, 0, 65, 40
1, 73189, Note_off_c, 0, 72, 63
1, 73229, Control_c, 0, 64, 98
1, 73244, Control_c, 0, 64, 78
1, 73258, Control_c, 0, 64, 62
1, 73273, Control_c, 0, 64, 36
1, 73275, Note_on_c, 0, 72, 70
1, 73287, Note_on_c, 0, 60, 35
1, 73288, Control_c, 0, 64, 49
1, 73303, Control_c, 0, 64, 63
1, 73308, Note_on_c, 0, 65, 14
1, 73309, Note_off_c, 0, 72, 62
1, 73318, Control_c, 0, 64, 69
1, 73320, Note_off_c, 0, 60, 62
1, 73332, Control_c, 0, 64, 78
1, 73347, Control_c, 0, 64, 95
1, 73370, Control_c, 0, 64, 127
1, 73404, Note_on_c, 0, 81, 70
1, 73407, Note_off_c, 0, 65, 38
1, 73437, Note_off_c, 0, 69, 43
1, 73443, Note_off_c, 0, 81, 58
1, 73532, Control_c, 0, 64, 108
1, 73547, Control_c, 0, 64, 87
1, 73562, Control_c, 0, 64, 73
1, 73577, Control_c, 0, 64, 59
1, 73592, Control_c, 0, 64, 0
1, 73633, Note_on_c, 0, 84, 55
1, 73642, Note_on_c, 0, 57, 38
1, 73671, Note_on_c, 0, 72, 28
1, 73710, Control_c, 0, 64, 56
1, 73723, Note_off_c, 0, 57, 54
1, 73725, Control_c, 0, 64, 70
1, 73740, Control_c, 0, 64, 85
1, 73742, Note_off_c, 0, 72, 0
1, 73742, Note_on_c, 0, 72, 3
1, 73755, Control_c, 0, 64, 107
1, 73770, Control_c, 0, 64, 127
1, 73873, Control_c, 0, 64, 104
1, 73888, Control_c, 0, 64, 84
1, 73902, Control_c, 0, 64, 68
1, 73902, Control_c, 0, 67, 9
1, 73917, Control_c, 0, 64, 0
1, 73917, Control_c, 0, 67, 12
1, 73932, Control_c, 0, 67, 15
1, 73938, Note_on_c, 0, 77, 51
1, 73947, Control_c, 0, 67, 19
1, 73949, Note_on_c, 0, 60, 40
1, 73953, Note_on_c, 0, 69, 33
1, 73958, Note_off_c, 0, 84, 51
1, 73962, Control_c, 0, 67, 24
1, 73976, Control_c, 0, 67, 32
1, 73977, Note_off_c, 0, 60, 60
1, 73991, Control_c, 0, 67, 39
1, 73992, Note_off_c, 0, 72, 50
1, 73992, Note_off_c, 0, 77, 57
1, 73997, Note_off_c, 0, 69, 50
1, 74006, Control_c, 0, 67, 46
1, 74022, Control_c, 0, 67, 55
1, 74037, Control_c, 0, 67, 63
1, 74052, Control_c, 0, 67, 70
1, 74067, Control_c, 0, 67, 76
1, 74081, Control_c, 0, 67, 83
1, 74104, Control_c, 0, 67, 89
1, 74119, Control_c, 0, 67, 95
1, 74133, Control_c, 0, 67, 101
1, 74148, Control_c, 0, 67, 107
1, 74163, Control_c, 0, 67, 113
1, 74178, Control_c, 0, 67, 120
1, 74193, Control_c, 0, 67, 127
1, 74203, Note_on_c, 0, 77, 52
1, 74215, Note_on_c, 0, 65, 46
1, 74221, Note_on_c, 0, 69, 23
1, 74222, Note_on_c, 0, 72, 37
1, 74248, Note_off_c, 0, 72, 58
1, 74251, Note_off_c, 0, 65, 65
1, 74255, Note_off_c, 0, 69, 49
1, 74295, Note_off_c, 0, 77, 51
1, 74449, Note_on_c, 0, 82, 66
1, 74461, Note_on_c, 0, 48, 50
1, 74474, Control_c, 0, 64, 56
1, 74482, Note_on_c, 0, 70, 44
1, 74489, Control_c, 0, 64, 69
1, 74495, Note_off_c, 0, 48, 64
1, 74504, Control_c, 0, 64, 81
1, 74519, Control_c, 0, 64, 96
1, 74533, Control_c, 0, 64, 116
1, 74548, Control_c, 0, 64, 127
1, 74622, Control_c, 0, 64, 118
1, 74637, Control_c, 0, 64, 104
1, 74651, Control_c, 0, 64, 91
1, 74666, Control_c, 0, 64, 77
1, 74681, Control_c, 0, 64, 59
1, 74696, Control_c, 0, 64, 0
1, 74726, Note_on_c, 0, 76, 57
1, 74746, Note_on_c, 0, 58, 43
1, 74753, Note_on_c, 0, 67, 40
1, 74763, Note_off_c, 0, 82, 61
1, 74777, Note_off_c, 0, 70, 53
1, 74782, Note_off_c, 0, 58, 59
1, 74782, Note_off_c, 0, 67, 58
1, 74784, Note_off_c, 0, 76, 61
1, 75039, Note_on_c, 0, 76, 52
1, 75054, Note_on_c, 0, 60, 42
1, 75054, Note_on_c, 0, 70, 43
1, 75056, Note_on_c, 0, 67, 33
1, 75107, Note_off_c, 0, 67, 59
1, 75112, Note_off_c, 0, 76, 60
1, 75114, Note_off_c, 0, 70, 55
1, 75124, Note_off_c, 0, 60, 62
1, 75401, Control_c, 0, 64, 40
1, 75416, Control_c, 0, 64, 55
1, 75419, Note_on_c, 0, 77, 44
1, 75428, Note_on_c, 0, 53, 31
1, 75431, Control_c, 0, 64, 62
1, 75432, Note_on_c, 0, 60, 28
1, 75437, Note_on_c, 0, 69, 30
1, 75444, Note_on_c, 0, 65, 23
1, 75446, Control_c, 0, 64, 65
1, 75461, Control_c, 0, 64, 69
1, 75475, Control_c, 0, 64, 73
1, 75490, Control_c, 0, 64, 79
1, 75505, Control_c, 0, 64, 87
1, 75517, Note_off_c, 0, 69, 51
1, 75520, Control_c, 0, 64, 96
1, 75535, Control_c, 0, 64, 112
1, 75543, Note_off_c, 0, 77, 62
1, 75549, Control_c, 0, 64, 127
1, 76000, Note_off_c, 0, 53, 44
1, 76012, Note_off_c, 0, 65, 42
1, 76037, Note_off_c, 0, 60, 43
1, 76194, Control_c, 0, 64, 92
1, 76209, Control_c, 0, 64, 72
1, 76221, Note_on_c, 0, 72, 44
1, 76223, Control_c, 0, 64, 62
1, 76238, Control_c, 0, 64, 59
1, 76253, Control_c, 0, 64, 63
1, 76268, Control_c, 0, 64, 66
1, 76283, Control_c, 0, 64, 72
1, 76297, Control_c, 0, 64, 84
1, 76312, Control_c, 0, 64, 99
1, 76325, Note_off_c, 0, 72, 63
1, 76327, Control_c, 0, 64, 123
1, 76341, Control_c, 0, 64, 127
1, 76474, Note_on_c, 0, 53, 43
1, 76498, Control_c, 0, 64, 119
1, 76513, Control_c, 0, 64, 97
1, 76527, Control_c, 0, 64, 80
1, 76542, Control_c, 0, 64, 65
1, 76552, Note_on_c, 0, 72, 55
1, 76557, Control_c, 0, 64, 0
1, 76587, Note_on_c, 0, 69, 41
1, 76616, Control_c, 0, 64, 55
1, 76631, Control_c, 0, 64, 67
1, 76645, Control_c, 0, 64, 77
1, 76660, Control_c, 0, 64, 91
1, 76664, Note_off_c, 0, 53, 46
1, 76675, Control_c, 0, 64, 113
1, 76677, Note_off_c, 0, 72, 60
1, 76690, Control_c, 0, 64, 127
1, 76853, Control_c, 0, 64, 93
1, 76868, Control_c, 0, 64, 72
1, 76869, Note_on_c, 0, 74, 59
1, 76874, Note_on_c, 0, 57, 42
1, 76883, Control_c, 0, 64, 43
1, 76892, Note_on_c, 0, 65, 32
1, 76898, Control_c, 0, 64, 0
1, 76930, Note_off_c, 0, 57, 58
1, 76951, Note_off_c, 0, 65, 55
1, 76983, Note_on_c, 0, 72, 69
1, 76991, Note_off_c, 0, 69, 34
1, 76996, Note_off_c, 0, 74, 63
1, 77030, Note_off_c, 0, 72, 63
1, 77104, Note_on_c, 0, 72, 68
1, 77127, Note_on_c, 0, 60, 46
1, 77133, Note_on_c, 0, 69, 38
1, 77143, Note_off_c, 0, 72, 65
1, 77168, Note_off_c, 0, 60, 61
1, 77221, Note_on_c, 0, 81, 71
1, 77268, Note_off_c, 0, 69, 43
1, 77276, Note_off_c, 0, 81, 61
1, 77376, Note_on_c, 0, 79, 69
1, 77388, Note_on_c, 0, 52, 44
1, 77408, Note_on_c, 0, 70, 47
1, 77439, Control_c, 0, 64, 64
1, 77454, Control_c, 0, 64, 73
1, 77458, Note_off_c, 0, 52, 58
1, 77469, Control_c, 0, 64, 85
1, 77483, Control_c, 0, 64, 107
1, 77498, Control_c, 0, 64, 127
1, 77639, Note_off_c, 0, 79, 38
1, 77646, Control_c, 0, 64, 113
1, 77661, Control_c, 0, 64, 86
1, 77670, Note_on_c, 0, 72, 57
1, 77676, Control_c, 0, 64, 66
1, 77686, Note_off_c, 0, 70, 56
1, 77687, Note_on_c, 0, 58, 46
1, 77691, Control_c, 0, 64, 0
1, 77706, Note_on_c, 0, 67, 36
1, 77729, Note_off_c, 0, 58, 60
1, 77730, Note_off_c, 0, 72, 64
1, 77739, Note_off_c, 0, 67, 56
1, 77932, Note_on_c, 0, 72, 61
1, 77946, Note_on_c, 0, 60, 49
1, 77948, Note_on_c, 0, 70, 44
1, 77957, Note_on_c, 0, 67, 19
1, 77989, Note_off_c, 0, 60, 59
1, 77993, Note_off_c, 0, 67, 47
1, 77995, Note_off_c, 0, 70, 60
1, 77999, Note_off_c, 0, 72, 59
1, 78191, Note_on_c, 0, 72, 65
1, 78199, Note_on_c, 0, 53, 44
1, 78218, Control_c, 0, 64, 64
1, 78221, Note_on_c, 0, 69, 44
1, 78233, Control_c, 0, 64, 77
1, 78241, Note_off_c, 0, 53, 61
1, 78247, Control_c, 0, 64, 99
1, 78262, Control_c, 0, 64, 127
1, 78305, Note_off_c, 0, 72, 61
1, 78424, Control_c, 0, 64, 104
1, 78439, Control_c, 0, 64, 87
1, 78448, Note_on_c, 0, 57, 46
1, 78453, Note_on_c, 0, 74, 63
1, 78454, Control_c, 0, 64, 71
1, 78460, Note_on_c, 0, 65, 39
1, 78469, Control_c, 0, 64, 0
1, 78491, Note_off_c, 0, 57, 60
1, 78514, Note_off_c, 0, 65, 57
1, 78558, Note_on_c, 0, 72, 68
1, 78567, Note_off_c, 0, 74, 63
1, 78611, Note_off_c, 0, 72, 64
1, 78681, Note_on_c, 0, 72, 75
1, 78687, Note_on_c, 0, 60, 49
1, 78722, Note_off_c, 0, 60, 65
1, 78723, Note_off_c, 0, 72, 63
1, 78784, Note_on_c, 0, 81, 70
1, 78837, Note_off_c, 0, 81, 61
1, 78845, Note_off_c, 0, 69, 43
1, 78930, Note_on_c, 0, 77, 60
1, 78939, Note_on_c, 0, 69, 55
1, 78942, Note_on_c, 0, 50, 46
1, 78981, Control_c, 0, 64, 60
1, 78996, Control_c, 0, 64, 71
1, 78998, Note_off_c, 0, 50, 64
1, 79011, Control_c, 0, 64, 83
1, 79026, Control_c, 0, 64, 106
1, 79041, Control_c, 0, 64, 127
1, 79189, Control_c, 0, 64, 102
1, 79203, Control_c, 0, 64, 81
1, 79218, Control_c, 0, 64, 61
1, 79223, Note_on_c, 0, 74, 59
1, 79233, Control_c, 0, 64, 0
1, 79240, Note_on_c, 0, 57, 21
1, 79247, Note_on_c, 0, 65, 34
1, 79248, Note_off_c, 0, 77, 52
1, 79269, Note_off_c, 0, 74, 61
1, 79279, Note_off_c, 0, 57, 53
1, 79285, Note_off_c, 0, 65, 62
1, 79288, Note_off_c, 0, 69, 50
1, 79521, Note_on_c, 0, 74, 53
1, 79539, Note_on_c, 0, 69, 34
1, 79541, Note_on_c, 0, 65, 29
1, 79542, Note_on_c, 0, 62, 34
1, 79579, Note_off_c, 0, 65, 55
1, 79582, Note_off_c, 0, 62, 62
1, 79588, Note_off_c, 0, 69, 57
1, 79600, Note_off_c, 0, 74, 59
1, 79821, Note_on_c, 0, 72, 52
1, 79845, Note_on_c, 0, 53, 38
1, 79846, Note_on_c, 0, 69, 35
1, 79878, Control_c, 0, 64, 55
1, 79893, Control_c, 0, 64, 68
1, 79908, Control_c, 0, 64, 79
1, 79923, Control_c, 0, 64, 94
1, 79937, Control_c, 0, 64, 127
1, 79950, Note_off_c, 0, 53, 49
1, 79984, Note_off_c, 0, 72, 59
1, 80123, Control_c, 0, 64, 105
1, 80129, Note_on_c, 0, 74, 65
1, 80138, Control_c, 0, 64, 82
1, 80143, Note_on_c, 0, 65, 41
1, 80144, Note_on_c, 0, 57, 38
1, 80152, Control_c, 0, 64, 65
1, 80167, Control_c, 0, 64, 0
1, 80180, Note_off_c, 0, 57, 56
1, 80215, Note_off_c, 0, 65, 53
1, 80237, Note_on_c, 0, 72, 70
1, 80250, Note_off_c, 0, 74, 63
1, 80284, Note_off_c, 0, 72, 63
1, 80361, Note_on_c, 0, 72, 73
1, 80384, Note_on_c, 0, 60, 45
1, 80396, Note_off_c, 0, 72, 63
1, 80410, Note_off_c, 0, 60, 63
1, 80412, Note_on_c, 0, 65, 21
1, 80461, Note_off_c, 0, 65, 48
1, 80478, Note_on_c, 0, 81, 69
1, 80499, Note_off_c, 0, 69, 39
1, 80512, Note_off_c, 0, 81, 61
1, 80621, Note_on_c, 0, 84, 64
1, 80644, Note_on_c, 0, 57, 50
1, 80649, Note_on_c, 0, 72, 42
1, 80671, Control_c, 0, 64, 56
1, 80686, Control_c, 0, 64, 69
1, 80698, Note_off_c, 0, 57, 56
1, 80701, Control_c, 0, 64, 81
1, 80716, Control_c, 0, 64, 101
1, 80731, Control_c, 0, 64, 127
1, 80901, Control_c, 0, 64, 101
1, 80916, Control_c, 0, 64, 82
1, 80931, Control_c, 0, 64, 67
1, 80945, Note_on_c, 0, 77, 53
1, 80946, Control_c, 0, 64, 0
1, 80959, Note_on_c, 0, 60, 39
1, 80972, Note_on_c, 0, 69, 41
1, 80992, Note_off_c, 0, 60, 65
1, 80997, Note_off_c, 0, 72, 59
1, 80997, Note_off_c, 0, 84, 58
1, 81002, Note_off_c, 0, 77, 61
1, 81006, Note_off_c, 0, 69, 63
1, 81217, Note_on_c, 0, 77, 52
1, 81223, Note_on_c, 0, 72, 44
1, 81232, Note_on_c, 0, 69, 30
1, 81232, Note_on_c, 0, 65, 47
1, 81247, Note_off_c, 0, 72, 62
1, 81262, Note_off_c, 0, 77, 60
1, 81265, Note_off_c, 0, 65, 65
1, 81265, Note_off_c, 0, 69, 51
1, 81480, Note_on_c, 0, 82, 67
1, 81495, Control_c, 0, 64, 23
1, 81496, Note_on_c, 0, 48, 43
1, 81507, Note_on_c, 0, 70, 38
1, 81509, Control_c, 0, 64, 62
1, 81524, Control_c, 0, 64, 70
1, 81539, Control_c, 0, 64, 76
1, 81545, Note_off_c, 0, 48, 60
1, 81554, Control_c, 0, 64, 87
1, 81569, Control_c, 0, 64, 106
1, 81591, Control_c, 0, 64, 127
1, 81783, Control_c, 0, 64, 94
1, 81798, Control_c, 0, 64, 75
1, 81807, Note_on_c, 0, 76, 57
1, 81813, Control_c, 0, 64, 36
1, 81816, Note_on_c, 0, 58, 46
1, 81828, Control_c, 0, 64, 0
1, 81837, Note_on_c, 0, 67, 33
1, 81852, Note_off_c, 0, 82, 61
1, 81853, Note_off_c, 0, 58, 63
1, 81862, Note_off_c, 0, 70, 51
1, 81865, Note_off_c, 0, 76, 60
1, 81872, Note_off_c, 0, 67, 55
1, 82124, Note_on_c, 0, 76, 55
1, 82142, Note_on_c, 0, 60, 36
1, 82142, Note_on_c, 0, 70, 40
1, 82167, Note_on_c, 0, 67, 31
1, 82200, Note_off_c, 0, 76, 60
1, 82201, Note_off_c, 0, 70, 54
1, 82202, Note_off_c, 0, 60, 63
1, 82204, Note_off_c, 0, 67, 60
1, 82546, Control_c, 0, 64, 21
1, 82551, Note_on_c, 0, 77, 44
1, 82561, Control_c, 0, 64, 51
1, 82576, Control_c, 0, 64, 62
1, 82579, Note_on_c, 0, 60, 27
1, 82584, Note_on_c, 0, 65, 15
1, 82587, Note_on_c, 0, 53, 22
1, 82587, Note_on_c, 0, 69, 21
1, 82591, Control_c, 0, 64, 65
1, 82606, Control_c, 0, 64, 68
1, 82621, Control_c, 0, 64, 72
1, 82636, Control_c, 0, 64, 77
1, 82651, Control_c, 0, 64, 85
1, 82665, Control_c, 0, 64, 99
1, 82680, Control_c, 0, 64, 127
1, 82710, Note_off_c, 0, 69, 33
1, 82793, Note_off_c, 0, 77, 56
1, 82962, Control_c, 0, 67, 122
1, 82977, Control_c, 0, 67, 116
1, 82992, Control_c, 0, 67, 110
1, 83007, Control_c, 0, 67, 104
1, 83021, Control_c, 0, 67, 96
1, 83026, Note_off_c, 0, 53, 43
1, 83032, Note_off_c, 0, 65, 41
1, 83036, Control_c, 0, 67, 89
1, 83051, Control_c, 0, 67, 81
1, 83066, Control_c, 0, 67, 75
1, 83069, Note_off_c, 0, 60, 43
1, 83081, Control_c, 0, 67, 67
1, 83103, Control_c, 0, 67, 60
1, 83118, Control_c, 0, 67, 53
1, 83133, Control_c, 0, 67, 47
1, 83148, Control_c, 0, 67, 41
1, 83163, Control_c, 0, 67, 32
1, 83177, Control_c, 0, 67, 22
1, 83192, Control_c, 0, 67, 11
1, 83207, Control_c, 0, 67, 0
1, 83355, Control_c, 0, 64, 117
1, 83369, Control_c, 0, 64, 86
1, 83384, Control_c, 0, 64, 66
1, 83399, Control_c, 0, 64, 0
1, 83488, Control_c, 0, 64, 59
1, 83491, Note_on_c, 0, 81, 85
1, 83503, Control_c, 0, 64, 71
1, 83506, Note_on_c, 0, 69, 70
1, 83518, Control_c, 0, 64, 87
1, 83533, Control_c, 0, 64, 127
1, 83571, Note_off_c, 0, 69, 59
1, 83601, Note_off_c, 0, 81, 64
1, 83815, Control_c, 0, 64, 109
1, 83830, Control_c, 0, 64, 79
1, 83849, Note_on_c, 0, 84, 88
1, 83852, Control_c, 0, 64, 44
1, 83857, Note_on_c, 0, 72, 80
1, 83867, Control_c, 0, 64, 0
1, 83873, Note_on_c, 0, 38, 66
1, 83875, Note_on_c, 0, 50, 68
1, 83897, Control_c, 0, 64, 56
1, 83912, Control_c, 0, 64, 74
1, 83926, Control_c, 0, 64, 103
1, 83936, Note_off_c, 0, 38, 64
1, 83941, Control_c, 0, 64, 127
1, 83962, Note_off_c, 0, 50, 64
1, 84037, Note_off_c, 0, 84, 57
1, 84042, Note_on_c, 0, 76, 25
1, 84057, Note_off_c, 0, 72, 53
1, 84092, Note_off_c, 0, 76, 46
1, 84260, Note_on_c, 0, 50, 58
1, 84264, Note_on_c, 0, 60, 61
1, 84284, Note_on_c, 0, 57, 59
1, 84297, Note_off_c, 0, 60, 65
1, 84342, Note_off_c, 0, 57, 62
1, 84354, Note_off_c, 0, 50, 64
1, 84366, Note_on_c, 0, 83, 79
1, 84374, Note_on_c, 0, 71, 74
1, 84410, Note_off_c, 0, 71, 62
1, 84410, Note_off_c, 0, 83, 64
1, 84477, Note_on_c, 0, 83, 84
1, 84490, Note_on_c, 0, 71, 81
1, 84510, Note_off_c, 0, 71, 69
1, 84514, Note_off_c, 0, 83, 63
1, 84570, Note_on_c, 0, 81, 90
1, 84579, Note_on_c, 0, 69, 88
1, 84604, Note_off_c, 0, 81, 63
1, 84608, Note_off_c, 0, 69, 69
1, 84616, Control_c, 0, 64, 87
1, 84631, Control_c, 0, 64, 64
1, 84646, Control_c, 0, 64, 0
1, 84700, Note_on_c, 0, 75, 85
1, 84703, Note_on_c, 0, 39, 75
1, 84705, Note_on_c, 0, 63, 89
1, 84705, Control_c, 0, 64, 61
1, 84706, Note_on_c, 0, 51, 82
1, 84720, Control_c, 0, 64, 82
1, 84725, Note_off_c, 0, 63, 69
1, 84734, Note_off_c, 0, 75, 62
1, 84735, Control_c, 0, 64, 127
1, 84740, Note_off_c, 0, 39, 62
1, 84743, Note_off_c, 0, 51, 62
1, 84967, Note_on_c, 0, 75, 90
1, 84973, Note_on_c, 0, 63, 85
1, 84979, Note_on_c, 0, 60, 68
1, 84981, Note_on_c, 0, 51, 67
1, 84985, Note_on_c, 0, 57, 68
1, 84986, Control_c, 0, 64, 100
1, 85001, Control_c, 0, 64, 72
1, 85016, Control_c, 0, 64, 0
1, 85043, Note_off_c, 0, 63, 58
1, 85046, Note_off_c, 0, 75, 60
1, 85205, Note_on_c, 0, 75, 91
1, 85209, Note_on_c, 0, 63, 89
1, 85246, Note_off_c, 0, 63, 61
1, 85258, Note_off_c, 0, 60, 62
1, 85266, Note_off_c, 0, 57, 61
1, 85273, Note_off_c, 0, 75, 62
1, 85325, Note_off_c, 0, 51, 63
1, 85454, Note_on_c, 0, 84, 96
1, 85458, Note_on_c, 0, 72, 96
1, 85464, Note_on_c, 0, 40, 84
1, 85464, Note_on_c, 0, 52, 86
1, 85469, Control_c, 0, 64, 69
1, 85483, Control_c, 0, 64, 98
1, 85493, Note_off_c, 0, 40, 68
1, 85498, Control_c, 0, 64, 127
1, 85503, Note_off_c, 0, 52, 61
1, 85631, Note_off_c, 0, 72, 57
1, 85635, Note_off_c, 0, 84, 62
1, 85770, Note_on_c, 0, 52, 80
1, 85771, Note_on_c, 0, 60, 77
1, 85778, Note_on_c, 0, 57, 75
1, 85805, Note_off_c, 0, 60, 62
1, 85834, Note_off_c, 0, 57, 63
1, 85859, Note_off_c, 0, 52, 61
1, 85870, Note_on_c, 0, 83, 89
1, 85873, Note_on_c, 0, 71, 88
1, 85910, Note_off_c, 0, 83, 66
1, 85914, Note_off_c, 0, 71, 67
1, 85963, Note_on_c, 0, 83, 91
1, 85973, Note_on_c, 0, 71, 95
1, 86007, Note_off_c, 0, 83, 68
1, 86010, Note_off_c, 0, 71, 69
1, 86062, Control_c, 0, 64, 87
1, 86063, Note_on_c, 0, 81, 96
1, 86069, Note_on_c, 0, 69, 92
1, 86084, Control_c, 0, 64, 63
1, 86099, Control_c, 0, 64, 0
1, 86114, Note_off_c, 0, 81, 64
1, 86122, Note_off_c, 0, 69, 66
1, 86177, Note_on_c, 0, 77, 102
1, 86180, Note_on_c, 0, 41, 82
1, 86180, Note_on_c, 0, 53, 96
1, 86183, Note_on_c, 0, 65, 94
1, 86187, Control_c, 0, 64, 72
1, 86202, Control_c, 0, 64, 115
1, 86217, Note_off_c, 0, 41, 64
1, 86217, Control_c, 0, 64, 127
1, 86226, Note_off_c, 0, 53, 67
1, 86226, Note_off_c, 0, 65, 66
1, 86234, Note_off_c, 0, 77, 62
1, 86264, Poly_aftertouch_c, 0, 70, 127
1, 86286, Poly_aftertouch_c, 0, 70, 0
1, 86433, Note_on_c, 0, 77, 95
1, 86439, Note_on_c, 0, 65, 92
1, 86448, Note_on_c, 0, 60, 87
1, 86451, Note_on_c, 0, 57, 77
1, 86454, Control_c, 0, 64, 112
1, 86454, Note_on_c, 0, 53, 75
1, 86469, Control_c, 0, 64, 73
1, 86484, Control_c, 0, 64, 0
1, 86514, Note_off_c, 0, 65, 55
1, 86515, Note_off_c, 0, 77, 59
1, 86675, Note_on_c, 0, 77, 94
1, 86681, Note_on_c, 0, 65, 90
1, 86719, Note_off_c, 0, 65, 65
1, 86723, Note_off_c, 0, 60, 61
1, 86740, Note_off_c, 0, 57, 59
1, 86744, Note_off_c, 0, 77, 62
1, 86783, Note_off_c, 0, 53, 64
1, 86928, Note_on_c, 0, 84, 98
1, 86930, Note_on_c, 0, 72, 100
1, 86933, Note_on_c, 0, 42, 76
1, 86933, Note_on_c, 0, 54, 84
1, 86951, Control_c, 0, 64, 72
1, 86964, Note_off_c, 0, 54, 67
1, 86965, Note_off_c, 0, 42, 67
1, 86966, Control_c, 0, 64, 105
1, 86981, Control_c, 0, 64, 127
1, 87092, Note_off_c, 0, 84, 59
1, 87092, Note_off_c, 0, 72, 58
1, 87260, Note_on_c, 0, 54, 74
1, 87261, Note_on_c, 0, 63, 79
1, 87264, Note_on_c, 0, 60, 69
1, 87325, Note_off_c, 0, 63, 60
1, 87346, Note_off_c, 0, 60, 64
1, 87374, Note_on_c, 0, 83, 92
1, 87379, Note_on_c, 0, 71, 88
1, 87384, Note_off_c, 0, 54, 63
1, 87418, Note_off_c, 0, 83, 66
1, 87423, Note_off_c, 0, 71, 66
1, 87474, Poly_aftertouch_c, 0, 78, 0
1, 87476, Note_on_c, 0, 83, 92
1, 87484, Note_on_c, 0, 71, 96
1, 87498, Poly_aftertouch_c, 0, 78, 0
1, 87521, Note_off_c, 0, 83, 67
1, 87527, Poly_aftertouch_c, 0, 75, 127
1, 87528, Note_off_c, 0, 71, 67
1, 87569, Note_on_c, 0, 81, 102
1, 87574, Control_c, 0, 64, 110
1, 87584, Note_on_c, 0, 69, 95
1, 87591, Poly_aftertouch_c, 0, 75, 0
1, 87596, Control_c, 0, 64, 76
1, 87611, Control_c, 0, 64, 0
1, 87622, Note_off_c, 0, 81, 65
1, 87635, Note_off_c, 0, 69, 66
1, 87637, Note_on_c, 0, 73, 12
1, 87638, Note_off_c, 0, 73, 127
1, 87680, Note_on_c, 0, 79, 100
1, 87682, Note_on_c, 0, 43, 80
1, 87685, Note_on_c, 0, 55, 94
1, 87685, Note_on_c, 0, 67, 97
1, 87700, Control_c, 0, 64, 32
1, 87715, Control_c, 0, 64, 77
1, 87727, Note_off_c, 0, 43, 64
1, 87730, Control_c, 0, 64, 112
1, 87740, Note_off_c, 0, 55, 66
1, 87745, Control_c, 0, 64, 127
1, 87753, Note_off_c, 0, 67, 61
1, 87766, Note_off_c, 0, 79, 58
1, 87939, Note_on_c, 0, 79, 101
1, 87944, Note_on_c, 0, 67, 102
1, 87945, Note_on_c, 0, 55, 79
1, 87949, Note_on_c, 0, 64, 76
1, 87953, Note_on_c, 0, 60, 77
1, 87971, Note_off_c, 0, 64, 72
1, 87987, Note_off_c, 0, 60, 66
1, 87992, Note_off_c, 0, 55, 65
1, 88054, Note_off_c, 0, 67, 49
1, 88077, Note_off_c, 0, 79, 53
1, 88168, Note_on_c, 0, 79, 100
1, 88169, Note_on_c, 0, 67, 100
1, 88203, Note_off_c, 0, 67, 65
1, 88225, Note_off_c, 0, 79, 69
1, 88389, Control_c, 0, 64, 90
1, 88404, Control_c, 0, 64, 61
1, 88420, Control_c, 0, 64, 0
1, 88438, Note_on_c, 0, 89, 105
1, 88440, Note_on_c, 0, 43, 76
1, 88440, Note_on_c, 0, 77, 105
1, 88443, Note_on_c, 0, 55, 86
1, 88464, Control_c, 0, 64, 63
1, 88478, Note_off_c, 0, 43, 64
1, 88479, Control_c, 0, 64, 83
1, 88487, Note_on_c, 0, 85, 25
1, 88488, Note_off_c, 0, 85, 127
1, 88492, Note_off_c, 0, 55, 64
1, 88494, Control_c, 0, 64, 127
1, 88539, Note_off_c, 0, 77, 34
1, 88555, Note_off_c, 0, 89, 53
1, 88711, Note_on_c, 0, 89, 101
1, 88714, Note_on_c, 0, 83, 94
1, 88714, Note_on_c, 0, 77, 95
1, 88715, Note_on_c, 0, 55, 74
1, 88719, Note_on_c, 0, 65, 76
1, 88723, Note_on_c, 0, 62, 70
1, 88723, Note_on_c, 0, 59, 68
1, 88750, Note_off_c, 0, 65, 63
1, 88759, Note_off_c, 0, 77, 66
1, 88759, Note_off_c, 0, 55, 56
1, 88759, Note_off_c, 0, 83, 64
1, 88762, Note_off_c, 0, 59, 57
1, 88765, Note_off_c, 0, 62, 57
1, 88771, Note_off_c, 0, 89, 60
1, 88991, Note_on_c, 0, 83, 96
1, 88991, Note_on_c, 0, 89, 103
1, 88993, Note_on_c, 0, 55, 72
1, 88996, Note_on_c, 0, 77, 96
1, 88997, Control_c, 0, 64, 101
1, 89002, Note_on_c, 0, 65, 77
1, 89005, Note_on_c, 0, 59, 69
1, 89008, Note_on_c, 0, 62, 73
1, 89012, Control_c, 0, 64, 69
1, 89027, Control_c, 0, 64, 0
1, 89033, Note_off_c, 0, 65, 64
1, 89033, Note_off_c, 0, 55, 59
1, 89053, Note_off_c, 0, 89, 62
1, 89060, Note_off_c, 0, 59, 56
1, 89061, Note_off_c, 0, 83, 64
1, 89064, Note_off_c, 0, 62, 60
1, 89078, Note_off_c, 0, 77, 61
1, 89323, Note_on_c, 0, 88, 99
1, 89324, Note_on_c, 0, 76, 97
1, 89325, Note_on_c, 0, 83, 92
1, 89334, Note_on_c, 0, 56, 76
1, 89334, Note_on_c, 0, 64, 85
1, 89340, Note_on_c, 0, 59, 75
1, 89341, Note_on_c, 0, 62, 72
1, 89345, Control_c, 0, 64, 47
1, 89360, Control_c, 0, 64, 78
1, 89375, Control_c, 0, 64, 127
1, 89543, Note_off_c, 0, 64, 60
1, 89553, Note_off_c, 0, 62, 58
1, 89590, Note_off_c, 0, 59, 57
1, 89604, Note_off_c, 0, 56, 60
1, 89635, Note_off_c, 0, 88, 51
1, 89687, Note_off_c, 0, 83, 55
1, 89696, Note_off_c, 0, 76, 55
1, 89856, Control_c, 0, 64, 95
1, 89870, Control_c, 0, 64, 75
1, 89885, Control_c, 0, 64, 40
1, 89900, Control_c, 0, 64, 0
1, 89978, Note_on_c, 0, 86, 96
1, 89980, Note_on_c, 0, 76, 104
1, 89981, Note_on_c, 0, 74, 98
1, 89981, Note_on_c, 0, 83, 88
1, 89983, Note_on_c, 0, 32, 86
1, 89983, Note_on_c, 0, 44, 89
1, 90005, Control_c, 0, 64, 62
1, 90020, Control_c, 0, 64, 80
1, 90028, Note_off_c, 0, 83, 61
1, 90029, Note_off_c, 0, 86, 65
1, 90032, Note_off_c, 0, 44, 64
1, 90034, Control_c, 0, 64, 127
1, 90036, Note_off_c, 0, 32, 61
1, 90053, Note_off_c, 0, 76, 53
1, 90058, Note_off_c, 0, 74, 61
1, 90375, Control_c, 0, 64, 112
1, 90376, Note_on_c, 0, 84, 93
1, 90377, Note_on_c, 0, 76, 104
1, 90379, Note_on_c, 0, 72, 101
1, 90379, Note_on_c, 0, 81, 93
1, 90385, Note_on_c, 0, 33, 79
1, 90386, Note_on_c, 0, 45, 89
1, 90390, Control_c, 0, 64, 73
1, 90392, Note_on_c, 0, 40, 80
1, 90404, Control_c, 0, 64, 0
1, 90508, Control_c, 0, 64, 45
1, 90523, Control_c, 0, 64, 73
1, 90538, Control_c, 0, 64, 92
1, 90553, Control_c, 0, 64, 127
1, 90705, Note_off_c, 0, 84, 57
1, 90706, Note_off_c, 0, 72, 57
1, 90715, Note_off_c, 0, 81, 58
1, 90734, Note_off_c, 0, 76, 52
1, 90736, Note_off_c, 0, 33, 55
1, 90744, Note_off_c, 0, 45, 61
1, 90752, Note_off_c, 0, 40, 62
1, 90905, Note_on_c, 0, 83, 92
1, 90908, Note_on_c, 0, 71, 91
1, 90911, Note_on_c, 0, 47, 74
1, 90913, Note_on_c, 0, 35, 74
1, 90956, Note_off_c, 0, 83, 64
1, 90959, Note_off_c, 0, 71, 64
1, 90961, Note_off_c, 0, 35, 61
1, 90965, Note_off_c, 0, 47, 64
1, 91032, Note_on_c, 0, 83, 97
1, 91034, Note_on_c, 0, 47, 71
1, 91035, Note_on_c, 0, 35, 78
1, 91038, Note_on_c, 0, 71, 94
1, 91066, Control_c, 0, 64, 120
1, 91077, Note_off_c, 0, 83, 66
1, 91078, Note_off_c, 0, 35, 60
1, 91081, Control_c, 0, 64, 88
1, 91085, Note_off_c, 0, 47, 65
1, 91089, Note_off_c, 0, 71, 61
1, 91095, Control_c, 0, 64, 67
1, 91110, Control_c, 0, 64, 0
1, 91138, Note_on_c, 0, 81, 97
1, 91143, Note_on_c, 0, 69, 93
1, 91147, Note_on_c, 0, 48, 82
1, 91152, Note_on_c, 0, 36, 77
1, 91171, Note_on_c, 0, 38, 59
1, 91188, Note_off_c, 0, 69, 61
1, 91195, Note_off_c, 0, 81, 64
1, 91197, Note_off_c, 0, 48, 63
1, 91200, Note_off_c, 0, 38, 53
1, 91203, Note_off_c, 0, 36, 59
1, 91266, Note_on_c, 0, 86, 98
1, 91269, Note_on_c, 0, 74, 99
1, 91271, Note_on_c, 0, 38, 86
1, 91273, Note_on_c, 0, 50, 89
1, 91274, Control_c, 0, 64, 68
1, 91289, Note_on_c, 0, 80, 61
1, 91289, Control_c, 0, 64, 98
1, 91292, Note_on_c, 0, 82, 58
1, 91293, Note_off_c, 0, 82, 127
1, 91303, Control_c, 0, 64, 127
1, 91307, Note_off_c, 0, 80, 64
1, 91307, Note_off_c, 0, 74, 67
1, 91313, Note_off_c, 0, 86, 67
1, 91319, Note_off_c, 0, 38, 62
1, 91319, Note_off_c, 0, 50, 66
1, 91538, Note_on_c, 0, 86, 95
1, 91541, Note_on_c, 0, 74, 97
1, 91546, Note_on_c, 0, 50, 75
1, 91547, Note_on_c, 0, 38, 73
1, 91548, Control_c, 0, 64, 84
1, 91562, Control_c, 0, 64, 53
1, 91574, Note_on_c, 0, 80, 43
1, 91575, Note_off_c, 0, 80, 127
1, 91577, Control_c, 0, 64, 0
1, 91590, Note_off_c, 0, 74, 62
1, 91598, Note_off_c, 0, 86, 63
1, 91599, Note_off_c, 0, 38, 56
1, 91609, Note_off_c, 0, 50, 61
1, 91799, Note_on_c, 0, 38, 71
1, 91799, Note_on_c, 0, 86, 98
1, 91800, Note_on_c, 0, 50, 82
1, 91801, Note_on_c, 0, 74, 94
1, 91844, Note_off_c, 0, 38, 62
1, 91847, Note_on_c, 0, 80, 23
1, 91848, Note_off_c, 0, 80, 127
1, 91853, Note_off_c, 0, 74, 64
1, 91872, Note_off_c, 0, 50, 61
1, 91876, Note_off_c, 0, 86, 57
1, 92056, Note_on_c, 0, 83, 96
1, 92057, Note_on_c, 0, 88, 101
1, 92059, Note_on_c, 0, 76, 102
1, 92061, Note_on_c, 0, 80, 100
1, 92065, Note_on_c, 0, 40, 75
1, 92067, Note_on_c, 0, 52, 83
1, 92067, Control_c, 0, 64, 66
1, 92076, Note_on_c, 0, 44, 80
1, 92077, Note_on_c, 0, 47, 79
1, 92089, Control_c, 0, 64, 101
1, 92103, Note_off_c, 0, 52, 65
1, 92104, Control_c, 0, 64, 127
1, 92109, Note_off_c, 0, 40, 66
1, 92121, Note_off_c, 0, 47, 64
1, 92124, Note_off_c, 0, 44, 61
1, 92124, Note_off_c, 0, 76, 57
1, 92142, Note_off_c, 0, 83, 56
1, 92151, Note_off_c, 0, 88, 57
1, 92163, Note_off_c, 0, 80, 55
1, 92341, Control_c, 0, 64, 106
1, 92342, Note_on_c, 0, 83, 97
1, 92344, Note_on_c, 0, 88, 100
1, 92345, Note_on_c, 0, 80, 96
1, 92347, Note_on_c, 0, 76, 96
1, 92350, Note_on_c, 0, 52, 86
1, 92354, Note_on_c, 0, 44, 81
1, 92356, Control_c, 0, 64, 74
1, 92357, Note_on_c, 0, 40, 65
1, 92357, Note_on_c, 0, 47, 76
1, 92371, Control_c, 0, 64, 0
1, 92386, Note_off_c, 0, 47, 69
1, 92388, Note_off_c, 0, 52, 58
1, 92389, Note_off_c, 0, 40, 54
1, 92404, Note_off_c, 0, 44, 61
1, 92407, Note_off_c, 0, 76, 52
1, 92410, Note_off_c, 0, 83, 59
1, 92425, Note_off_c, 0, 88, 59
1, 92439, Note_off_c, 0, 80, 58
1, 92632, Note_on_c, 0, 88, 99
1, 92633, Note_on_c, 0, 80, 99
1, 92633, Note_on_c, 0, 83, 93
1, 92635, Note_on_c, 0, 76, 100
1, 92639, Note_on_c, 0, 52, 78
1, 92641, Note_on_c, 0, 40, 74
1, 92643, Note_on_c, 0, 44, 82
1, 92646, Note_on_c, 0, 47, 75
1, 92665, Note_off_c, 0, 52, 69
1, 92676, Note_off_c, 0, 76, 61
1, 92678, Note_off_c, 0, 47, 68
1, 92696, Note_off_c, 0, 44, 65
1, 92703, Note_off_c, 0, 83, 61
1, 92705, Note_off_c, 0, 80, 63
1, 92717, Note_off_c, 0, 40, 64
1, 92721, Note_off_c, 0, 88, 62
1, 92980, Note_on_c, 0, 93, 99
1, 92981, Note_on_c, 0, 81, 94
1, 92981, Note_on_c, 0, 84, 97
1, 92981, Note_on_c, 0, 88, 97
1, 92984, Note_on_c, 0, 33, 82
1, 92990, Note_on_c, 0, 45, 83
1, 92993, Note_on_c, 0, 40, 84
1, 93000, Control_c, 0, 64, 68
1, 93015, Note_off_c, 0, 33, 66
1, 93015, Control_c, 0, 64, 104
1, 93022, Note_off_c, 0, 40, 69
1, 93025, Note_off_c, 0, 45, 64
1, 93030, Control_c, 0, 64, 127
1, 93127, Note_off_c, 0, 93, 59
1, 93157, Note_off_c, 0, 88, 62
1, 93179, Note_off_c, 0, 81, 61
1, 93182, Note_off_c, 0, 84, 59
1, 93623, Note_on_c, 0, 64, 87
1, 93646, Control_c, 0, 64, 107
1, 93661, Control_c, 0, 64, 77
1, 93676, Control_c, 0, 64, 0
1, 93677, Note_off_c, 0, 64, 62
1, 93883, Note_on_c, 0, 76, 93
1, 93885, Note_on_c, 0, 68, 100
1, 93887, Note_on_c, 0, 74, 89
1, 93888, Note_on_c, 0, 33, 79
1, 93893, Note_on_c, 0, 45, 78
1, 93894, Note_on_c, 0, 47, 81
1, 93895, Note_on_c, 0, 40, 78
1, 93898, Control_c, 0, 64, 59
1, 93913, Control_c, 0, 64, 87
1, 93919, Note_off_c, 0, 76, 65
1, 93927, Control_c, 0, 64, 127
1, 93929, Note_off_c, 0, 74, 67
1, 93932, Note_on_c, 0, 64, 80
1, 93952, Note_off_c, 0, 68, 63
1, 93972, Note_off_c, 0, 64, 67
1, 94047, Poly_aftertouch_c, 0, 65, 0
1, 94172, Note_on_c, 0, 64, 74
1, 94181, Note_on_c, 0, 62, 73
1, 94183, Note_on_c, 0, 56, 80
1, 94195, Control_c, 0, 64, 100
1, 94210, Control_c, 0, 64, 74
1, 94225, Control_c, 0, 64, 0
1, 94229, Note_off_c, 0, 64, 64
1, 94231, Note_off_c, 0, 56, 64
1, 94238, Note_off_c, 0, 62, 60
1, 94279, Note_on_c, 0, 65, 80
1, 94287, Note_on_c, 0, 56, 69
1, 94291, Note_on_c, 0, 62, 50
1, 94337, Note_off_c, 0, 62, 60
1, 94339, Note_off_c, 0, 56, 61
1, 94351, Note_off_c, 0, 65, 62
1, 94393, Note_on_c, 0, 64, 84
1, 94395, Note_on_c, 0, 56, 74
1, 94400, Note_on_c, 0, 62, 82
1, 94411, Note_off_c, 0, 47, 61
1, 94412, Note_off_c, 0, 33, 55
1, 94413, Note_off_c, 0, 45, 59
1, 94420, Note_off_c, 0, 40, 56
1, 94428, Note_off_c, 0, 56, 67
1, 94449, Note_off_c, 0, 62, 59
1, 94452, Note_off_c, 0, 64, 65
1, 94646, Note_on_c, 0, 76, 92
1, 94647, Note_on_c, 0, 72, 88
1, 94649, Note_on_c, 0, 69, 94
1, 94664, Note_on_c, 0, 33, 81
1, 94665, Note_on_c, 0, 45, 95
1, 94670, Note_on_c, 0, 40, 78
1, 94676, Control_c, 0, 64, 77
1, 94691, Control_c, 0, 64, 127
1, 94691, Note_on_c, 0, 64, 93
1, 94708, Note_off_c, 0, 76, 65
1, 94710, Note_off_c, 0, 72, 64
1, 94715, Note_off_c, 0, 69, 69
1, 94736, Note_off_c, 0, 64, 67
1, 94935, Note_on_c, 0, 64, 81
1, 94936, Note_on_c, 0, 60, 75
1, 94944, Note_on_c, 0, 57, 71
1, 94974, Control_c, 0, 64, 98
1, 94978, Note_off_c, 0, 57, 62
1, 94980, Note_off_c, 0, 60, 58
1, 94987, Note_off_c, 0, 64, 62
1, 94989, Control_c, 0, 64, 75
1, 95003, Control_c, 0, 64, 0
1, 95033, Note_on_c, 0, 65, 84
1, 95039, Note_on_c, 0, 60, 65
1, 95045, Note_on_c, 0, 57, 71
1, 95089, Note_off_c, 0, 57, 61
1, 95093, Note_off_c, 0, 60, 63
1, 95098, Note_off_c, 0, 65, 64
1, 95112, Note_off_c, 0, 33, 59
1, 95127, Note_off_c, 0, 40, 62
1, 95149, Note_on_c, 0, 57, 72
1, 95149, Note_on_c, 0, 64, 86
1, 95151, Note_on_c, 0, 60, 75
1, 95151, Note_off_c, 0, 45, 64
1, 95188, Note_off_c, 0, 57, 62
1, 95200, Note_off_c, 0, 60, 62
1, 95212, Note_off_c, 0, 64, 64
1, 95393, Note_on_c, 0, 71, 92
1, 95395, Note_on_c, 0, 45, 67
1, 95399, Note_on_c, 0, 64, 88
1, 95404, Note_on_c, 0, 56, 67
1, 95404, Note_on_c, 0, 62, 76
1, 95406, Note_on_c, 0, 52, 68
1, 95410, Control_c, 0, 64, 72
1, 95425, Control_c, 0, 64, 104
1, 95427, Note_off_c, 0, 64, 68
1, 95429, Note_off_c, 0, 62, 67
1, 95434, Note_off_c, 0, 56, 67
1, 95436, Note_off_c, 0, 45, 60
1, 95440, Control_c, 0, 64, 127
1, 95441, Note_off_c, 0, 71, 64
1, 95442, Note_off_c, 0, 52, 64
1, 95618, Control_c, 0, 64, 94
1, 95633, Control_c, 0, 64, 69
1, 95641, Note_on_c, 0, 45, 63
1, 95642, Note_on_c, 0, 71, 89
1, 95647, Note_on_c, 0, 64, 85
1, 95648, Control_c, 0, 64, 0
1, 95651, Note_on_c, 0, 52, 69
1, 95652, Note_on_c, 0, 62, 73
1, 95655, Note_on_c, 0, 56, 63
1, 95679, Note_off_c, 0, 64, 67
1, 95683, Note_off_c, 0, 62, 66
1, 95686, Note_off_c, 0, 45, 65
1, 95689, Note_off_c, 0, 56, 63
1, 95692, Note_off_c, 0, 71, 64
1, 95692, Note_off_c, 0, 52, 61
1, 95904, Note_on_c, 0, 71, 90
1, 95904, Note_on_c, 0, 45, 64
1, 95906, Note_on_c, 0, 56, 69
1, 95906, Note_on_c, 0, 64, 87
1, 95911, Note_on_c, 0, 62, 77
1, 95916, Note_on_c, 0, 52, 74
1, 95939, Note_off_c, 0, 56, 66
1, 95939, Note_off_c, 0, 64, 65
1, 95941, Note_off_c, 0, 45, 64
1, 95954, Note_off_c, 0, 62, 54
1, 95955, Note_off_c, 0, 52, 63
1, 95956, Note_off_c, 0, 71, 62
1, 96169, Note_on_c, 0, 72, 90
1, 96173, Note_on_c, 0, 64, 89
1, 96176, Note_on_c, 0, 60, 84
1, 96182, Note_on_c, 0, 45, 62
1, 96187, Note_on_c, 0, 57, 66
1, 96192, Note_on_c, 0, 52, 69
1, 96218, Control_c, 0, 64, 63
1, 96233, Control_c, 0, 64, 83
1, 96248, Control_c, 0, 64, 127
1, 96535, Note_off_c, 0, 60, 62
1, 96551, Note_off_c, 0, 64, 62
1, 96553, Note_off_c, 0, 57, 61
1, 96554, Note_off_c, 0, 72, 66
1, 96575, Note_off_c, 0, 52, 62
1, 96581, Note_off_c, 0, 45, 64
1, 96685, Control_c, 0, 64, 112
1, 96700, Control_c, 0, 64, 81
1, 96715, Control_c, 0, 64, 38
1, 96724, Note_on_c, 0, 64, 91
1, 96730, Control_c, 0, 64, 0
1, 96796, Note_off_c, 0, 64, 60
1, 96966, Note_on_c, 0, 76, 87
1, 96973, Note_on_c, 0, 68, 96
1, 96974, Note_on_c, 0, 74, 86
1, 96980, Note_on_c, 0, 33, 75
1, 96989, Note_on_c, 0, 45, 68
1, 96989, Note_on_c, 0, 47, 72
1, 96989, Note_on_c, 0, 40, 72
1, 96996, Control_c, 0, 64, 61
1, 97007, Note_off_c, 0, 76, 62
1, 97011, Control_c, 0, 64, 87
1, 97013, Note_off_c, 0, 74, 64
1, 97020, Note_on_c, 0, 64, 87
1, 97026, Control_c, 0, 64, 127
1, 97036, Note_off_c, 0, 68, 62
1, 97059, Note_off_c, 0, 64, 67
1, 97253, Note_on_c, 0, 64, 76
1, 97256, Note_on_c, 0, 62, 72
1, 97257, Note_on_c, 0, 56, 81
1, 97278, Control_c, 0, 64, 95
1, 97293, Control_c, 0, 64, 74
1, 97300, Note_off_c, 0, 56, 60
1, 97305, Note_off_c, 0, 64, 62
1, 97317, Control_c, 0, 64, 0
1, 97319, Note_off_c, 0, 62, 59
1, 97363, Note_on_c, 0, 65, 81
1, 97373, Note_on_c, 0, 56, 65
1, 97380, Note_on_c, 0, 62, 51
1, 97409, Note_off_c, 0, 56, 64
1, 97413, Note_off_c, 0, 62, 56
1, 97427, Note_off_c, 0, 65, 61
1, 97446, Note_off_c, 0, 33, 44
1, 97458, Note_off_c, 0, 40, 58
1, 97469, Note_on_c, 0, 64, 81
1, 97473, Note_on_c, 0, 56, 82
1, 97475, Note_off_c, 0, 47, 57
1, 97476, Note_on_c, 0, 62, 76
1, 97480, Note_off_c, 0, 45, 55
1, 97502, Note_off_c, 0, 56, 68
1, 97514, Note_off_c, 0, 62, 59
1, 97518, Note_off_c, 0, 64, 67
1, 97710, Note_on_c, 0, 76, 95
1, 97712, Note_on_c, 0, 72, 90
1, 97714, Note_on_c, 0, 69, 90
1, 97728, Note_on_c, 0, 33, 78
1, 97731, Note_on_c, 0, 45, 89
1, 97737, Note_on_c, 0, 40, 76
1, 97746, Note_on_c, 0, 64, 90
1, 97746, Control_c, 0, 64, 79
1, 97761, Control_c, 0, 64, 127
1, 97770, Note_off_c, 0, 76, 63
1, 97772, Note_off_c, 0, 72, 65
1, 97776, Note_off_c, 0, 69, 65
1, 97794, Note_off_c, 0, 64, 68
1, 98008, Note_on_c, 0, 64, 76
1, 98011, Note_on_c, 0, 60, 74
1, 98015, Note_on_c, 0, 57, 75
1, 98046, Note_off_c, 0, 57, 62
1, 98056, Note_off_c, 0, 60, 62
1, 98072, Note_off_c, 0, 64, 61
1, 98080, Control_c, 0, 64, 119
1, 98095, Control_c, 0, 64, 91
1, 98110, Control_c, 0, 64, 72
1, 98118, Note_on_c, 0, 65, 79
1, 98119, Note_on_c, 0, 60, 61
1, 98122, Note_on_c, 0, 57, 74
1, 98125, Control_c, 0, 64, 0
1, 98155, Note_off_c, 0, 60, 65
1, 98162, Note_off_c, 0, 33, 58
1, 98172, Note_off_c, 0, 57, 61
1, 98172, Note_off_c, 0, 65, 62
1, 98181, Note_off_c, 0, 40, 63
1, 98211, Note_off_c, 0, 45, 65
1, 98217, Note_on_c, 0, 57, 62
1, 98220, Note_on_c, 0, 64, 85
1, 98225, Note_on_c, 0, 60, 79
1, 98264, Note_off_c, 0, 57, 61
1, 98276, Note_off_c, 0, 60, 62
1, 98286, Note_off_c, 0, 64, 65
1, 98476, Note_on_c, 0, 71, 92
1, 98482, Note_on_c, 0, 64, 85
1, 98484, Note_on_c, 0, 62, 76
1, 98485, Note_on_c, 0, 45, 56
1, 98485, Note_on_c, 0, 52, 64
1, 98487, Note_on_c, 0, 56, 66
1, 98494, Control_c, 0, 64, 72
1, 98509, Control_c, 0, 64, 92
1, 98514, Note_off_c, 0, 64, 65
1, 98516, Note_off_c, 0, 62, 59
1, 98519, Note_off_c, 0, 56, 63
1, 98521, Note_off_c, 0, 45, 62
1, 98524, Control_c, 0, 64, 127
1, 98531, Note_off_c, 0, 71, 64
1, 98533, Note_off_c, 0, 52, 58
1, 98747, Note_on_c, 0, 45, 55
1, 98750, Note_on_c, 0, 56, 67
1, 98752, Note_on_c, 0, 71, 90
1, 98759, Note_on_c, 0, 62, 77
1, 98761, Control_c, 0, 64, 101
1, 98764, Note_on_c, 0, 64, 78
1, 98765, Note_on_c, 0, 52, 63
1, 98776, Control_c, 0, 64, 79
1, 98788, Note_off_c, 0, 64, 68
1, 98789, Note_off_c, 0, 45, 59
1, 98792, Control_c, 0, 64, 60
1, 98800, Note_off_c, 0, 56, 63
1, 98800, Note_off_c, 0, 71, 64
1, 98805, Note_off_c, 0, 52, 61
1, 98807, Control_c, 0, 64, 0
1, 98807, Note_off_c, 0, 62, 60
1, 98861, Note_on_c, 0, 69, 83
1, 98872, Note_on_c, 0, 62, 60
1, 98877, Note_on_c, 0, 64, 70
1, 98904, Note_off_c, 0, 64, 65
1, 98918, Note_off_c, 0, 62, 61
1, 98919, Note_off_c, 0, 69, 64
1, 98969, Note_on_c, 0, 62, 68
1, 98972, Note_on_c, 0, 68, 84
1, 98977, Note_on_c, 0, 45, 68
1, 98978, Note_on_c, 0, 59, 62
1, 98990, Note_on_c, 0, 52, 61
1, 99007, Note_off_c, 0, 59, 64
1, 99020, Note_off_c, 0, 62, 62
1, 99021, Note_off_c, 0, 52, 64
1, 99031, Note_off_c, 0, 68, 63
1, 99037, Note_off_c, 0, 45, 65
1, 99412, Note_on_c, 0, 77, 53
1, 99435, Note_on_c, 0, 65, 42
1, 99436, Control_c, 0, 64, 52
1, 99436, Note_on_c, 0, 53, 37
1, 99439, Note_on_c, 0, 41, 34
1, 99451, Control_c, 0, 64, 67
1, 99466, Control_c, 0, 64, 77
1, 99480, Control_c, 0, 64, 93
1, 99484, Note_off_c, 0, 77, 61
1, 99488, Note_off_c, 0, 65, 59
1, 99495, Control_c, 0, 64, 127
1, 99496, Note_off_c, 0, 41, 59
1, 99499, Note_off_c, 0, 53, 62
1, 99765, Note_on_c, 0, 40, 52
1, 99772, Note_on_c, 0, 76, 64
1, 99775, Note_on_c, 0, 64, 61
1, 99778, Note_on_c, 0, 52, 28
1, 99795, Note_off_c, 0, 40, 57
1, 99797, Note_off_c, 0, 76, 63
1, 99801, Note_off_c, 0, 64, 66
1, 99821, Note_off_c, 0, 52, 48
1, 99872, Note_on_c, 0, 76, 71
1, 99876, Note_on_c, 0, 64, 73
1, 99882, Note_on_c, 0, 40, 53
1, 99895, Note_off_c, 0, 76, 68
1, 99907, Note_off_c, 0, 64, 67
1, 99909, Note_off_c, 0, 40, 57
1, 99968, Note_on_c, 0, 38, 68
1, 99970, Note_on_c, 0, 74, 81
1, 99978, Control_c, 0, 64, 90
1, 99980, Note_on_c, 0, 62, 76
1, 99989, Note_off_c, 0, 74, 72
1, 99992, Control_c, 0, 64, 69
1, 99997, Note_off_c, 0, 38, 64
1, 100003, Note_off_c, 0, 62, 68
1, 100007, Control_c, 0, 64, 0
1, 100081, Control_c, 0, 64, 58
1, 100084, Note_on_c, 0, 68, 85
1, 100089, Note_on_c, 0, 32, 71
1, 100092, Note_on_c, 0, 44, 71
1, 100092, Note_on_c, 0, 56, 86
1, 100096, Control_c, 0, 64, 77
1, 100110, Control_c, 0, 64, 127
1, 100114, Note_off_c, 0, 56, 71
1, 100119, Note_off_c, 0, 44, 65
1, 100125, Note_off_c, 0, 32, 64
1, 100131, Note_off_c, 0, 68, 59
1, 100348, Note_on_c, 0, 68, 83
1, 100351, Note_on_c, 0, 32, 70
1, 100353, Note_on_c, 0, 56, 82
1, 100356, Control_c, 0, 64, 88
1, 100358, Note_on_c, 0, 44, 67
1, 100371, Control_c, 0, 64, 66
1, 100387, Control_c, 0, 64, 0
1, 100390, Note_off_c, 0, 44, 64
1, 100392, Note_off_c, 0, 32, 61
1, 100393, Note_off_c, 0, 56, 64
1, 100402, Note_off_c, 0, 68, 62
1, 100590, Note_on_c, 0, 68, 90
1, 100593, Note_on_c, 0, 56, 85
1, 100601, Note_on_c, 0, 32, 72
1, 100603, Note_on_c, 0, 44, 75
1, 100615, Note_off_c, 0, 56, 72
1, 100632, Note_off_c, 0, 32, 66
1, 100638, Note_off_c, 0, 44, 65
1, 100647, Note_off_c, 0, 68, 61
1, 100852, Note_on_c, 0, 77, 97
1, 100856, Note_on_c, 0, 65, 95
1, 100859, Note_on_c, 0, 41, 84
1, 100859, Note_on_c, 0, 53, 83
1, 100861, Control_c, 0, 64, 72
1, 100876, Control_c, 0, 64, 102
1, 100890, Control_c, 0, 64, 127
1, 100913, Note_off_c, 0, 53, 65
1, 100919, Note_off_c, 0, 41, 63
1, 100924, Note_off_c, 0, 77, 59
1, 100924, Note_off_c, 0, 65, 59
1, 101254, Note_on_c, 0, 76, 81
1, 101258, Note_on_c, 0, 64, 81
1, 101266, Note_on_c, 0, 52, 71
1, 101268, Note_on_c, 0, 40, 72
1, 101298, Note_off_c, 0, 52, 64
1, 101298, Note_off_c, 0, 76, 64
1, 101303, Note_off_c, 0, 64, 63
1, 101305, Note_off_c, 0, 40, 63
1, 101330, Poly_aftertouch_c, 0, 70, 127
1, 101355, Poly_aftertouch_c, 0, 70, 0
1, 101357, Note_on_c, 0, 52, 72
1, 101358, Note_on_c, 0, 76, 85
1, 101363, Note_on_c, 0, 64, 88
1, 101365, Note_on_c, 0, 40, 84
1, 101371, Control_c, 0, 64, 100
1, 101386, Control_c, 0, 64, 75
1, 101392, Note_off_c, 0, 52, 62
1, 101398, Poly_aftertouch_c, 0, 70, 0
1, 101400, Note_off_c, 0, 76, 66
1, 101401, Control_c, 0, 64, 0
1, 101406, Note_off_c, 0, 40, 61
1, 101412, Note_off_c, 0, 64, 66
1, 101455, Note_on_c, 0, 74, 97
1, 101460, Note_on_c, 0, 50, 79
1, 101462, Note_on_c, 0, 38, 86
1, 101462, Note_on_c, 0, 62, 92
1, 101488, Note_off_c, 0, 50, 68
1, 101496, Note_off_c, 0, 74, 65
1, 101505, Note_off_c, 0, 38, 64
1, 101507, Note_off_c, 0, 62, 64
1, 101563, Poly_aftertouch_c, 0, 39, 0
1, 101567, Note_on_c, 0, 69, 98
1, 101573, Note_on_c, 0, 57, 98
1, 101576, Note_on_c, 0, 33, 89
1, 101579, Note_on_c, 0, 45, 85
1, 101594, Control_c, 0, 64, 72
1, 101606, Note_off_c, 0, 45, 69
1, 101608, Note_off_c, 0, 57, 67
1, 101609, Control_c, 0, 64, 107
1, 101609, Note_off_c, 0, 33, 64
1, 101615, Note_off_c, 0, 69, 66
1, 101624, Control_c, 0, 64, 127
1, 101671, Poly_aftertouch_c, 0, 34, 127
1, 101704, Poly_aftertouch_c, 0, 34, 0
1, 101827, Note_on_c, 0, 69, 93
1, 101830, Note_on_c, 0, 57, 88
1, 101835, Note_on_c, 0, 33, 82
1, 101836, Note_on_c, 0, 45, 81
1, 101837, Control_c, 0, 64, 88
1, 101852, Control_c, 0, 64, 63
1, 101866, Note_on_c, 0, 63, 37
1, 101867, Control_c, 0, 64, 0
1, 101873, Note_off_c, 0, 57, 63
1, 101882, Note_off_c, 0, 69, 60
1, 101885, Note_off_c, 0, 45, 63
1, 101888, Note_off_c, 0, 33, 62
1, 101899, Note_off_c, 0, 63, 32
1, 102068, Note_on_c, 0, 69, 95
1, 102072, Note_on_c, 0, 57, 89
1, 102083, Note_on_c, 0, 45, 93
1, 102084, Note_on_c, 0, 33, 81
1, 102104, Note_off_c, 0, 57, 63
1, 102120, Note_off_c, 0, 33, 64
1, 102129, Note_off_c, 0, 45, 64
1, 102133, Note_off_c, 0, 69, 65
1, 102360, Note_on_c, 0, 77, 98
1, 102361, Note_on_c, 0, 65, 101
1, 102372, Note_on_c, 0, 53, 93
1, 102374, Note_on_c, 0, 41, 83
1, 102386, Control_c, 0, 64, 72
1, 102401, Control_c, 0, 64, 112
1, 102416, Control_c, 0, 64, 127
1, 102441, Note_on_c, 0, 73, 19
1, 102471, Note_off_c, 0, 73, 48
1, 102539, Note_off_c, 0, 77, 55
1, 102542, Note_off_c, 0, 65, 57
1, 102578, Note_off_c, 0, 53, 60
1, 102586, Note_off_c, 0, 41, 58
1, 102836, Note_on_c, 0, 76, 78
1, 102841, Note_on_c, 0, 64, 75
1, 102846, Note_on_c, 0, 52, 72
1, 102848, Note_on_c, 0, 40, 72
1, 102873, Note_off_c, 0, 64, 62
1, 102879, Note_off_c, 0, 52, 62
1, 102880, Note_off_c, 0, 76, 58
1, 102884, Note_off_c, 0, 40, 63
1, 102952, Note_on_c, 0, 52, 65
1, 102954, Note_on_c, 0, 40, 78
1, 102959, Note_on_c, 0, 76, 84
1, 102961, Note_on_c, 0, 64, 85
1, 102972, Control_c, 0, 64, 94
1, 102983, Note_off_c, 0, 52, 65
1, 102986, Note_off_c, 0, 76, 63
1, 102987, Control_c, 0, 64, 70
1, 102990, Note_off_c, 0, 40, 64
1, 103001, Note_off_c, 0, 64, 62
1, 103001, Control_c, 0, 64, 0
1, 103053, Note_on_c, 0, 74, 93
1, 103055, Note_on_c, 0, 38, 76
1, 103061, Note_on_c, 0, 62, 86
1, 103066, Note_on_c, 0, 50, 46
1, 103090, Note_off_c, 0, 38, 66
1, 103091, Note_off_c, 0, 74, 66
1, 103094, Note_off_c, 0, 62, 62
1, 103096, Note_off_c, 0, 50, 57
1, 103165, Control_c, 0, 64, 40
1, 103167, Note_on_c, 0, 70, 94
1, 103168, Note_on_c, 0, 34, 91
1, 103172, Note_on_c, 0, 46, 85
1, 103172, Note_on_c, 0, 58, 102
1, 103180, Control_c, 0, 64, 89
1, 103192, Note_on_c, 0, 68, 48
1, 103195, Control_c, 0, 64, 127
1, 103203, Note_on_c, 0, 66, 35
1, 103203, Note_off_c, 0, 46, 64
1, 103206, Note_off_c, 0, 34, 59
1, 103212, Note_off_c, 0, 58, 66
1, 103216, Note_off_c, 0, 68, 59
1, 103233, Note_off_c, 0, 66, 52
1, 103258, Note_off_c, 0, 70, 62
1, 103407, Note_on_c, 0, 74, 100
1, 103407, Note_on_c, 0, 62, 94
1, 103419, Note_on_c, 0, 38, 77
1, 103420, Note_on_c, 0, 50, 85
1, 103435, Note_on_c, 0, 68, 54
1, 103454, Note_on_c, 0, 70, 25
1, 103455, Note_off_c, 0, 70, 127
1, 103459, Note_off_c, 0, 62, 61
1, 103460, Note_off_c, 0, 68, 58
1, 103477, Note_off_c, 0, 38, 62
1, 103482, Note_off_c, 0, 50, 63
1, 103484, Poly_aftertouch_c, 0, 70, 0
1, 103484, Note_off_c, 0, 74, 63
1, 103634, Note_on_c, 0, 77, 99
1, 103638, Note_on_c, 0, 65, 98
1, 103640, Note_on_c, 0, 41, 91
1, 103642, Note_on_c, 0, 53, 92
1, 103673, Note_off_c, 0, 65, 68
1, 103677, Note_off_c, 0, 53, 65
1, 103679, Note_off_c, 0, 41, 63
1, 103690, Note_off_c, 0, 77, 62
1, 103795, Control_c, 0, 64, 104
1, 103810, Control_c, 0, 64, 71
1, 103825, Control_c, 0, 64, 0
1, 103874, Note_on_c, 0, 82, 99
1, 103875, Note_on_c, 0, 70, 102
1, 103877, Note_on_c, 0, 46, 87
1, 103879, Note_on_c, 0, 58, 96
1, 103891, Note_on_c, 0, 80, 69
1, 103899, Control_c, 0, 64, 64
1, 103903, Note_on_c, 0, 78, 45
1, 103904, Note_off_c, 0, 78, 127
1, 103908, Note_off_c, 0, 80, 67
1, 103914, Control_c, 0, 64, 89
1, 103922, Note_off_c, 0, 58, 64
1, 103926, Note_off_c, 0, 46, 63
1, 103928, Control_c, 0, 64, 127
1, 103929, Note_off_c, 0, 70, 62
1, 103936, Note_off_c, 0, 82, 70
1, 104136, Note_on_c, 0, 86, 102
1, 104138, Note_on_c, 0, 74, 100
1, 104140, Note_on_c, 0, 50, 86
1, 104141, Note_on_c, 0, 62, 90
1, 104178, Note_off_c, 0, 62, 65
1, 104183, Note_off_c, 0, 74, 69
1, 104196, Note_off_c, 0, 50, 66
1, 104200, Note_off_c, 0, 86, 57
1, 104396, Control_c, 0, 64, 100
1, 104411, Note_on_c, 0, 86, 96
1, 104411, Note_on_c, 0, 89, 100
1, 104411, Control_c, 0, 64, 65
1, 104415, Note_on_c, 0, 77, 98
1, 104417, Note_on_c, 0, 45, 94
1, 104417, Note_on_c, 0, 57, 90
1, 104426, Control_c, 0, 64, 0
1, 104459, Note_off_c, 0, 57, 65
1, 104465, Note_off_c, 0, 45, 65
1, 104507, Note_off_c, 0, 89, 59
1, 104510, Note_off_c, 0, 77, 56
1, 104516, Note_off_c, 0, 86, 55
1, 104702, Note_on_c, 0, 83, 98
1, 104703, Note_on_c, 0, 88, 96
1, 104718, Note_on_c, 0, 56, 93
1, 104727, Note_on_c, 0, 46, 72
1, 104736, Control_c, 0, 64, 81
1, 104742, Note_on_c, 0, 57, 64
1, 104749, Note_on_c, 0, 45, 46
1, 104750, Note_off_c, 0, 56, 62
1, 104751, Control_c, 0, 64, 127
1, 104760, Note_off_c, 0, 46, 64
1, 104763, Note_off_c, 0, 57, 64
1, 104782, Note_on_c, 0, 76, 96
1, 104782, Note_off_c, 0, 45, 55
1, 104796, Note_off_c, 0, 88, 58
1, 104813, Note_off_c, 0, 83, 63
1, 104826, Note_off_c, 0, 76, 67
1, 105005, Note_on_c, 0, 56, 77
1, 105007, Note_on_c, 0, 64, 79
1, 105010, Note_on_c, 0, 76, 88
1, 105016, Note_on_c, 0, 71, 80
1, 105019, Note_on_c, 0, 59, 72
1, 105051, Note_off_c, 0, 76, 65
1, 105052, Note_off_c, 0, 64, 61
1, 105056, Note_off_c, 0, 59, 57
1, 105058, Note_off_c, 0, 56, 63
1, 105061, Note_off_c, 0, 71, 64
1, 105070, Control_c, 0, 64, 103
1, 105085, Control_c, 0, 64, 72
1, 105099, Control_c, 0, 64, 0
1, 105113, Note_on_c, 0, 56, 67
1, 105113, Note_on_c, 0, 59, 65
1, 105114, Note_on_c, 0, 77, 91
1, 105118, Note_on_c, 0, 64, 63
1, 105130, Note_on_c, 0, 71, 71
1, 105145, Note_off_c, 0, 64, 68
1, 105154, Note_off_c, 0, 56, 59
1, 105157, Note_off_c, 0, 71, 64
1, 105160, Note_off_c, 0, 59, 58
1, 105176, Note_off_c, 0, 77, 62
1, 105220, Note_on_c, 0, 64, 80
1, 105225, Note_on_c, 0, 76, 93
1, 105226, Note_on_c, 0, 59, 84
1, 105227, Note_on_c, 0, 71, 82
1, 105231, Note_on_c, 0, 56, 82
1, 105244, Note_off_c, 0, 64, 69
1, 105252, Note_off_c, 0, 71, 67
1, 105261, Note_off_c, 0, 76, 67
1, 105268, Note_off_c, 0, 59, 65
1, 105285, Note_off_c, 0, 56, 66
1, 105447, Note_on_c, 0, 81, 105
1, 105447, Note_on_c, 0, 88, 103
1, 105455, Note_on_c, 0, 53, 99
1, 105455, Note_on_c, 0, 41, 93
1, 105471, Control_c, 0, 64, 88
1, 105484, Note_off_c, 0, 41, 66
1, 105485, Control_c, 0, 64, 127
1, 105491, Note_off_c, 0, 53, 68
1, 105506, Note_off_c, 0, 81, 68
1, 105506, Note_off_c, 0, 88, 60
1, 105512, Note_on_c, 0, 76, 99
1, 105547, Note_off_c, 0, 76, 68
1, 105741, Note_on_c, 0, 53, 74
1, 105743, Note_on_c, 0, 57, 72
1, 105744, Note_on_c, 0, 76, 93
1, 105745, Note_on_c, 0, 64, 72
1, 105755, Note_on_c, 0, 69, 78
1, 105787, Note_off_c, 0, 64, 62
1, 105787, Note_off_c, 0, 69, 61
1, 105789, Note_off_c, 0, 76, 63
1, 105794, Note_off_c, 0, 57, 61
1, 105796, Note_off_c, 0, 53, 65
1, 105848, Note_on_c, 0, 57, 63
1, 105848, Note_on_c, 0, 64, 65
1, 105851, Note_on_c, 0, 53, 67
1, 105852, Note_on_c, 0, 77, 95
1, 105858, Note_on_c, 0, 69, 87
1, 105887, Note_off_c, 0, 64, 62
1, 105896, Note_off_c, 0, 53, 61
1, 105898, Note_off_c, 0, 69, 66
1, 105906, Note_off_c, 0, 77, 64
1, 105908, Control_c, 0, 64, 93
1, 105911, Note_off_c, 0, 57, 58
1, 105922, Control_c, 0, 64, 67
1, 105937, Control_c, 0, 64, 0
1, 105969, Note_on_c, 0, 76, 94
1, 105970, Note_on_c, 0, 57, 73
1, 105971, Note_on_c, 0, 64, 74
1, 105973, Note_on_c, 0, 69, 90
1, 105981, Note_on_c, 0, 53, 79
1, 105995, Note_off_c, 0, 64, 71
1, 106008, Note_off_c, 0, 69, 67
1, 106023, Note_off_c, 0, 57, 64
1, 106025, Note_off_c, 0, 76, 67
1, 106034, Note_off_c, 0, 53, 66
1, 106239, Note_on_c, 0, 88, 100
1, 106242, Note_on_c, 0, 80, 102
1, 106247, Note_on_c, 0, 52, 97
1, 106249, Control_c, 0, 64, 67
1, 106250, Note_on_c, 0, 40, 89
1, 106264, Control_c, 0, 64, 127
1, 106275, Note_off_c, 0, 40, 69
1, 106284, Note_off_c, 0, 52, 65
1, 106310, Note_off_c, 0, 88, 63
1, 106333, Note_on_c, 0, 76, 93
1, 106338, Note_off_c, 0, 80, 64
1, 106363, Note_off_c, 0, 76, 63
1, 106549, Note_on_c, 0, 76, 94
1, 106549, Note_on_c, 0, 52, 79
1, 106555, Note_on_c, 0, 64, 81
1, 106556, Note_on_c, 0, 68, 84
1, 106561, Note_on_c, 0, 59, 75
1, 106586, Note_off_c, 0, 64, 62
1, 106599, Note_off_c, 0, 59, 56
1, 106599, Note_off_c, 0, 52, 55
1, 106632, Note_off_c, 0, 68, 58
1, 106635, Note_off_c, 0, 76, 59
1, 106682, Note_on_c, 0, 77, 83
1, 106689, Note_on_c, 0, 64, 76
1, 106692, Note_on_c, 0, 52, 74
1, 106692, Note_on_c, 0, 59, 70
1, 106695, Note_on_c, 0, 68, 75
1, 106721, Note_off_c, 0, 64, 62
1, 106722, Note_off_c, 0, 52, 58
1, 106742, Note_off_c, 0, 59, 60
1, 106746, Note_off_c, 0, 68, 59
1, 106772, Note_off_c, 0, 77, 58
1, 106814, Note_on_c, 0, 76, 91
1, 106828, Note_on_c, 0, 52, 73
1, 106829, Note_on_c, 0, 59, 77
1, 106829, Note_on_c, 0, 64, 59
1, 106831, Note_on_c, 0, 68, 76
1, 106849, Note_off_c, 0, 76, 58
1, 106850, Note_off_c, 0, 59, 70
1, 106853, Note_off_c, 0, 52, 67
1, 106853, Note_off_c, 0, 64, 62
1, 106856, Note_off_c, 0, 68, 66
1, 106954, Control_c, 0, 64, 94
1, 106968, Control_c, 0, 64, 65
1, 106983, Control_c, 0, 64, 0
1, 107658, Control_c, 0, 67, 9
1, 107672, Control_c, 0, 67, 11
1, 107687, Control_c, 0, 67, 13
1, 107702, Control_c, 0, 67, 15
1, 107717, Control_c, 0, 67, 18
1, 107732, Control_c, 0, 67, 22
1, 107747, Control_c, 0, 67, 26
1, 107762, Control_c, 0, 67, 28
1, 107765, Note_on_c, 0, 59, 58
1, 107767, Note_on_c, 0, 52, 59
1, 107767, Note_on_c, 0, 56, 55
1, 107771, Note_on_c, 0, 64, 65
1, 107777, Control_c, 0, 67, 31
1, 107792, Control_c, 0, 67, 33
1, 107813, Control_c, 0, 67, 36
1, 107828, Control_c, 0, 67, 37
1, 107833, Note_off_c, 0, 52, 57
1, 107843, Control_c, 0, 67, 38
1, 107873, Control_c, 0, 67, 39
1, 107887, Control_c, 0, 67, 38
1, 107902, Note_on_c, 0, 38, 61
1, 107902, Control_c, 0, 67, 37
1, 107947, Control_c, 0, 67, 38
1, 107954, Note_off_c, 0, 38, 60
1, 108054, Note_on_c, 0, 40, 62
1, 108065, Control_c, 0, 67, 38
1, 108110, Control_c, 0, 67, 38
1, 108129, Note_off_c, 0, 40, 55
1, 108198, Control_c, 0, 67, 37
1, 108200, Note_on_c, 0, 42, 60
1, 108243, Control_c, 0, 67, 38
1, 108249, Note_off_c, 0, 42, 58
1, 108272, Control_c, 0, 67, 38
1, 108317, Control_c, 0, 67, 39
1, 108331, Control_c, 0, 67, 39
1, 108346, Control_c, 0, 67, 40
1, 108357, Note_on_c, 0, 40, 55
1, 108392, Control_c, 0, 67, 41
1, 108407, Control_c, 0, 67, 42
1, 108421, Note_off_c, 0, 40, 60
1, 108421, Control_c, 0, 64, 64
1, 108421, Control_c, 0, 67, 43
1, 108436, Control_c, 0, 64, 75
1, 108436, Control_c, 0, 67, 44
1, 108451, Control_c, 0, 64, 88
1, 108451, Control_c, 0, 67, 46
1, 108466, Control_c, 0, 64, 115
1, 108466, Control_c, 0, 67, 47
1, 108480, Control_c, 0, 64, 127
1, 108480, Control_c, 0, 67, 48
1, 108495, Note_off_c, 0, 64, 37
1, 108505, Note_off_c, 0, 59, 37
1, 108510, Note_off_c, 0, 56, 47
1, 108510, Control_c, 0, 67, 48
1, 108577, Control_c, 0, 67, 49
1, 108592, Control_c, 0, 67, 49
1, 108607, Control_c, 0, 67, 50
1, 108621, Control_c, 0, 67, 52
1, 108636, Control_c, 0, 67, 54
1, 108651, Control_c, 0, 67, 58
1, 108666, Control_c, 0, 67, 64
1, 108680, Control_c, 0, 64, 90
1, 108680, Control_c, 0, 67, 70
1, 108695, Control_c, 0, 64, 70
1, 108695, Control_c, 0, 67, 77
1, 108700, Note_on_c, 0, 52, 61
1, 108704, Note_on_c, 0, 61, 56
1, 108708, Note_on_c, 0, 64, 61
1, 108710, Control_c, 0, 64, 0
1, 108710, Control_c, 0, 67, 84
1, 108713, Note_on_c, 0, 57, 45
1, 108725, Control_c, 0, 67, 90
1, 108728, Note_off_c, 0, 52, 64
1, 108740, Control_c, 0, 67, 97
1, 108755, Control_c, 0, 67, 104
1, 108769, Control_c, 0, 67, 110
1, 108784, Control_c, 0, 67, 114
1, 108799, Control_c, 0, 67, 118
1, 108814, Control_c, 0, 67, 121
1, 108829, Control_c, 0, 67, 122
1, 108844, Control_c, 0, 67, 122
1, 108859, Control_c, 0, 67, 123
1, 108873, Control_c, 0, 67, 123
1, 108876, Note_on_c, 0, 37, 66
1, 108888, Control_c, 0, 67, 124
1, 108916, Note_off_c, 0, 37, 63
1, 108918, Control_c, 0, 67, 125
1, 109060, Note_on_c, 0, 40, 60
1, 109095, Control_c, 0, 67, 125
1, 109104, Note_off_c, 0, 40, 62
1, 109125, Control_c, 0, 67, 126
1, 109140, Control_c, 0, 67, 126
1, 109154, Control_c, 0, 67, 127
1, 109222, Note_on_c, 0, 42, 56
1, 109263, Note_off_c, 0, 42, 59
1, 109428, Note_on_c, 0, 40, 50
1, 109489, Control_c, 0, 64, 44
1, 109503, Control_c, 0, 64, 65
1, 109505, Note_off_c, 0, 40, 61
1, 109507, Note_off_c, 0, 57, 61
1, 109518, Control_c, 0, 64, 73
1, 109533, Control_c, 0, 64, 84
1, 109542, Note_off_c, 0, 64, 59
1, 109548, Control_c, 0, 64, 104
1, 109563, Control_c, 0, 64, 127
1, 109604, Note_off_c, 0, 61, 59
1, 109829, Control_c, 0, 64, 113
1, 109835, Note_on_c, 0, 52, 57
1, 109838, Note_on_c, 0, 64, 53
1, 109844, Control_c, 0, 64, 95
1, 109846, Note_on_c, 0, 56, 43
1, 109849, Note_on_c, 0, 62, 52
1, 109859, Control_c, 0, 64, 82
1, 109874, Control_c, 0, 64, 70
1, 109879, Note_off_c, 0, 52, 60
1, 109889, Control_c, 0, 64, 48
1, 109903, Control_c, 0, 64, 0
1, 110058, Note_on_c, 0, 35, 53
1, 110114, Note_off_c, 0, 35, 63
1, 110290, Note_on_c, 0, 40, 50
1, 110355, Note_off_c, 0, 40, 59
1, 110549, Note_on_c, 0, 42, 50
1, 110617, Note_off_c, 0, 42, 60
1, 110854, Control_c, 0, 64, 24
1, 110869, Control_c, 0, 64, 56
1, 110883, Control_c, 0, 64, 64
1, 110898, Control_c, 0, 64, 69
1, 110904, Note_on_c, 0, 40, 42
1, 110913, Control_c, 0, 64, 75
1, 110928, Control_c, 0, 64, 82
1, 110943, Control_c, 0, 64, 90
1, 110957, Control_c, 0, 64, 101
1, 110964, Note_off_c, 0, 40, 62
1, 110972, Control_c, 0, 64, 123
1, 110987, Control_c, 0, 64, 127
1, 111334, Note_off_c, 0, 56, 38
1, 111372, Note_off_c, 0, 62, 47
1, 111401, Note_off_c, 0, 64, 52
1, 111972, Control_c, 0, 64, 105
1, 111987, Control_c, 0, 64, 93
1, 112002, Control_c, 0, 64, 82
1, 112016, Control_c, 0, 64, 72
1, 112031, Control_c, 0, 64, 63
1, 112046, Control_c, 0, 64, 0
1, 112603, Control_c, 0, 64, 19
1, 112618, Control_c, 0, 64, 43
1, 112633, Control_c, 0, 64, 53
1, 112647, Control_c, 0, 64, 60
1, 112662, Control_c, 0, 64, 64
1, 112677, Control_c, 0, 64, 65
1, 112692, Control_c, 0, 64, 67
1, 112707, Control_c, 0, 64, 70
1, 112721, Control_c, 0, 64, 74
1, 112736, Control_c, 0, 64, 79
1, 112750, Note_on_c, 0, 33, 38
1, 112751, Control_c, 0, 64, 86
1, 112766, Control_c, 0, 64, 98
1, 112781, Control_c, 0, 64, 127
1, 112792, Note_off_c, 0, 33, 59
1, 113219, Control_c, 0, 64, 96
1, 113226, Note_on_c, 0, 52, 40
1, 113234, Control_c, 0, 64, 79
1, 113241, Note_on_c, 0, 64, 23
1, 113244, Note_on_c, 0, 61, 41
1, 113249, Control_c, 0, 64, 62
1, 113263, Control_c, 0, 64, 0
1, 113277, Note_off_c, 0, 61, 63
1, 113280, Note_off_c, 0, 52, 62
1, 113281, Note_off_c, 0, 64, 57
1, 113568, Note_on_c, 0, 57, 40
1, 113569, Note_on_c, 0, 64, 38
1, 113575, Note_on_c, 0, 61, 9
1, 113603, Note_off_c, 0, 64, 64
1, 113608, Note_off_c, 0, 61, 52
1, 113613, Note_off_c, 0, 57, 63
1, 113819, Control_c, 0, 64, 43
1, 113834, Control_c, 0, 64, 64
1, 113836, Note_on_c, 0, 45, 50
1, 113849, Control_c, 0, 64, 75
1, 113864, Control_c, 0, 64, 91
1, 113866, Note_off_c, 0, 45, 62
1, 113878, Control_c, 0, 64, 127
1, 114101, Control_c, 0, 64, 117
1, 114116, Control_c, 0, 64, 92
1, 114127, Note_on_c, 0, 52, 54
1, 114131, Control_c, 0, 64, 77
1, 114134, Note_on_c, 0, 61, 44
1, 114146, Control_c, 0, 64, 59
1, 114150, Note_on_c, 0, 64, 44
1, 114160, Control_c, 0, 64, 0
1, 114172, Note_off_c, 0, 52, 61
1, 114177, Note_off_c, 0, 61, 60
1, 114186, Note_off_c, 0, 64, 66
1, 114418, Note_on_c, 0, 57, 50
1, 114418, Note_on_c, 0, 64, 41
1, 114446, Note_off_c, 0, 64, 59
1, 114454, Note_off_c, 0, 57, 64
1, 114655, Control_c, 0, 64, 42
1, 114666, Note_on_c, 0, 45, 50
1, 114670, Control_c, 0, 64, 63
1, 114685, Control_c, 0, 64, 71
1, 114697, Note_off_c, 0, 45, 64
1, 114699, Control_c, 0, 64, 84
1, 114714, Control_c, 0, 64, 127
1, 114952, Control_c, 0, 64, 113
1, 114967, Note_on_c, 0, 52, 45
1, 114967, Control_c, 0, 64, 94
1, 114973, Note_on_c, 0, 61, 43
1, 114979, Note_on_c, 0, 64, 47
1, 114982, Control_c, 0, 64, 81
1, 114997, Control_c, 0, 64, 66
1, 115004, Note_off_c, 0, 52, 53
1, 115011, Control_c, 0, 64, 0
1, 115020, Note_off_c, 0, 64, 64
1, 115022, Note_off_c, 0, 61, 59
1, 115262, Note_on_c, 0, 57, 44
1, 115272, Note_on_c, 0, 64, 32
1, 115311, Note_off_c, 0, 64, 51
1, 115340, Note_off_c, 0, 57, 61
1, 115448, Control_c, 0, 64, 21
1, 115463, Control_c, 0, 64, 42
1, 115478, Control_c, 0, 64, 51
1, 115493, Control_c, 0, 64, 59
1, 115508, Control_c, 0, 64, 63
1, 115522, Control_c, 0, 64, 67
1, 115537, Control_c, 0, 64, 71
1, 115544, Note_on_c, 0, 45, 42
1, 115552, Control_c, 0, 64, 77
1, 115568, Control_c, 0, 64, 89
1, 115583, Control_c, 0, 64, 105
1, 115592, Note_off_c, 0, 45, 61
1, 115598, Control_c, 0, 64, 127
1, 115881, Note_on_c, 0, 73, 56
1, 115891, Note_on_c, 0, 52, 41
1, 115918, Note_on_c, 0, 64, 30
1, 115937, Note_off_c, 0, 52, 47
1, 115959, Note_off_c, 0, 64, 49
1, 115965, Poly_aftertouch_c, 0, 61, 127
1, 116000, Note_on_c, 0, 76, 60
1, 116001, Note_off_c, 0, 73, 61
1, 116005, Poly_aftertouch_c, 0, 61, 0
1, 116012, Control_c, 0, 64, 116
1, 116028, Control_c, 0, 64, 97
1, 116050, Control_c, 0, 64, 81
1, 116064, Control_c, 0, 64, 70
1, 116079, Control_c, 0, 64, 58
1, 116094, Control_c, 0, 64, 0
1, 116139, Note_on_c, 0, 74, 61
1, 116142, Note_on_c, 0, 57, 49
1, 116186, Note_off_c, 0, 57, 62
1, 116207, Note_off_c, 0, 76, 38
1, 116222, Poly_aftertouch_c, 0, 64, 0
1, 116267, Note_on_c, 0, 73, 59
1, 116287, Note_off_c, 0, 74, 61
1, 116367, Note_off_c, 0, 73, 61
1, 116419, Note_on_c, 0, 50, 43
1, 116421, Control_c, 0, 64, 48
1, 116436, Control_c, 0, 64, 60
1, 116451, Control_c, 0, 64, 65
1, 116466, Control_c, 0, 64, 68
1, 116475, Note_on_c, 0, 78, 57
1, 116481, Control_c, 0, 64, 72
1, 116495, Control_c, 0, 64, 77
1, 116500, Note_on_c, 0, 73, 49
1, 116510, Control_c, 0, 64, 86
1, 116525, Control_c, 0, 64, 98
1, 116526, Note_off_c, 0, 50, 62
1, 116540, Control_c, 0, 64, 127
1, 116546, Note_off_c, 0, 73, 64
1, 116558, Note_off_c, 0, 78, 62
1, 116858, Control_c, 0, 64, 121
1, 116873, Control_c, 0, 64, 93
1, 116886, Note_on_c, 0, 66, 43
1, 116887, Control_c, 0, 64, 77
1, 116892, Note_on_c, 0, 62, 40
1, 116902, Control_c, 0, 64, 61
1, 116917, Control_c, 0, 64, 0
1, 116933, Note_off_c, 0, 66, 60
1, 116933, Note_off_c, 0, 62, 62
1, 117152, Note_on_c, 0, 78, 54
1, 117177, Note_on_c, 0, 71, 41
1, 117184, Note_on_c, 0, 66, 17
1, 117186, Note_on_c, 0, 62, 40
1, 117214, Note_off_c, 0, 62, 59
1, 117217, Note_off_c, 0, 66, 45
1, 117417, Note_on_c, 0, 50, 45
1, 117422, Control_c, 0, 64, 59
1, 117436, Control_c, 0, 64, 71
1, 117451, Control_c, 0, 64, 82
1, 117454, Note_off_c, 0, 50, 66
1, 117465, Note_off_c, 0, 78, 61
1, 117466, Control_c, 0, 64, 105
1, 117481, Control_c, 0, 64, 127
1, 117545, Note_off_c, 0, 71, 38
1, 117712, Note_on_c, 0, 78, 63
1, 117732, Note_on_c, 0, 66, 34
1, 117736, Note_on_c, 0, 71, 47
1, 117748, Note_on_c, 0, 62, 39
1, 117769, Control_c, 0, 64, 95
1, 117781, Note_off_c, 0, 66, 48
1, 117784, Control_c, 0, 64, 78
1, 117787, Note_off_c, 0, 62, 61
1, 117799, Control_c, 0, 64, 64
1, 117813, Control_c, 0, 64, 0
1, 117828, Note_on_c, 0, 81, 64
1, 117834, Note_off_c, 0, 78, 61
1, 117936, Note_on_c, 0, 80, 64
1, 117953, Note_on_c, 0, 62, 44
1, 117965, Note_on_c, 0, 66, 20
1, 117974, Note_off_c, 0, 81, 58
1, 117981, Note_off_c, 0, 62, 59
1, 118006, Note_off_c, 0, 66, 42
1, 118009, Note_off_c, 0, 71, 51
1, 118047, Note_on_c, 0, 78, 66
1, 118070, Note_off_c, 0, 80, 58
1, 118112, Note_off_c, 0, 78, 61
1, 118185, Control_c, 0, 64, 55
1, 118196, Note_on_c, 0, 76, 59
1, 118200, Control_c, 0, 64, 65
1, 118207, Note_on_c, 0, 52, 34
1, 118214, Control_c, 0, 64, 74
1, 118215, Note_on_c, 0, 71, 42
1, 118229, Control_c, 0, 64, 83
1, 118244, Control_c, 0, 64, 100
1, 118258, Control_c, 0, 64, 127
1, 118261, Note_off_c, 0, 71, 63
1, 118270, Note_off_c, 0, 76, 62
1, 118344, Note_off_c, 0, 52, 34
1, 118532, Control_c, 0, 64, 99
1, 118541, Note_on_c, 0, 61, 46
1, 118546, Note_on_c, 0, 64, 44
1, 118547, Control_c, 0, 64, 81
1, 118562, Control_c, 0, 64, 65
1, 118577, Control_c, 0, 64, 0
1, 118579, Note_off_c, 0, 61, 63
1, 118586, Note_off_c, 0, 64, 65
1, 118811, Note_on_c, 0, 76, 55
1, 118818, Note_on_c, 0, 61, 48
1, 118827, Note_on_c, 0, 69, 44
1, 118828, Note_on_c, 0, 64, 35
1, 118866, Note_off_c, 0, 64, 54
1, 118897, Note_off_c, 0, 61, 52
1, 119055, Note_on_c, 0, 52, 43
1, 119075, Control_c, 0, 64, 60
1, 119089, Control_c, 0, 64, 71
1, 119104, Control_c, 0, 64, 81
1, 119119, Control_c, 0, 64, 98
1, 119124, Note_off_c, 0, 52, 58
1, 119134, Note_off_c, 0, 69, 56
1, 119134, Control_c, 0, 64, 127
1, 119137, Note_off_c, 0, 76, 60
1, 119329, Note_on_c, 0, 76, 64
1, 119346, Note_on_c, 0, 69, 53
1, 119349, Note_on_c, 0, 64, 43
1, 119358, Note_on_c, 0, 61, 32
1, 119371, Control_c, 0, 64, 105
1, 119386, Control_c, 0, 64, 88
1, 119396, Note_off_c, 0, 64, 57
1, 119399, Note_off_c, 0, 61, 50
1, 119401, Control_c, 0, 64, 74
1, 119415, Control_c, 0, 64, 61
1, 119430, Control_c, 0, 64, 0
1, 119441, Note_on_c, 0, 73, 65
1, 119477, Note_off_c, 0, 69, 57
1, 119535, Note_off_c, 0, 76, 54
1, 119558, Note_on_c, 0, 71, 65
1, 119575, Note_on_c, 0, 61, 49
1, 119594, Note_off_c, 0, 73, 58
1, 119615, Poly_aftertouch_c, 0, 64, 127
1, 119630, Note_off_c, 0, 61, 50
1, 119656, Poly_aftertouch_c, 0, 64, 0
1, 119668, Note_on_c, 0, 69, 65
1, 119701, Note_off_c, 0, 71, 64
1, 119733, Note_off_c, 0, 69, 57
1, 119815, Note_on_c, 0, 76, 58
1, 119832, Note_on_c, 0, 52, 37
1, 119836, Note_on_c, 0, 69, 52
1, 119838, Control_c, 0, 64, 21
1, 119853, Control_c, 0, 64, 62
1, 119868, Control_c, 0, 64, 69
1, 119883, Control_c, 0, 64, 78
1, 119896, Note_off_c, 0, 76, 62
1, 119898, Control_c, 0, 64, 91
1, 119902, Note_off_c, 0, 69, 62
1, 119903, Note_off_c, 0, 52, 50
1, 119912, Control_c, 0, 64, 127
1, 120135, Control_c, 0, 64, 95
1, 120141, Note_on_c, 0, 59, 45
1, 120150, Control_c, 0, 64, 78
1, 120159, Note_on_c, 0, 64, 37
1, 120162, Note_on_c, 0, 62, 27
1, 120164, Control_c, 0, 64, 63
1, 120179, Control_c, 0, 64, 0
1, 120181, Note_off_c, 0, 59, 62
1, 120197, Note_off_c, 0, 64, 57
1, 120198, Note_off_c, 0, 62, 54
1, 120406, Note_on_c, 0, 76, 52
1, 120416, Note_on_c, 0, 68, 43
1, 120425, Note_on_c, 0, 59, 42
1, 120445, Note_on_c, 0, 64, 18
1, 120469, Poly_aftertouch_c, 0, 62, 127
1, 120470, Note_on_c, 0, 62, 3
1, 120484, Note_off_c, 0, 59, 55
1, 120488, Note_off_c, 0, 64, 52
1, 120509, Note_off_c, 0, 62, 45
1, 120671, Note_on_c, 0, 52, 42
1, 120676, Control_c, 0, 64, 52
1, 120691, Control_c, 0, 64, 69
1, 120706, Control_c, 0, 64, 80
1, 120721, Control_c, 0, 64, 99
1, 120727, Note_off_c, 0, 52, 59
1, 120735, Control_c, 0, 64, 127
1, 120753, Note_off_c, 0, 76, 61
1, 120771, Note_off_c, 0, 68, 38
1, 120934, Note_on_c, 0, 76, 68
1, 120950, Note_on_c, 0, 59, 45
1, 120958, Control_c, 0, 64, 117
1, 120963, Note_on_c, 0, 68, 44
1, 120973, Control_c, 0, 64, 92
1, 120979, Note_on_c, 0, 64, 32
1, 120987, Note_on_c, 0, 62, 17
1, 120987, Control_c, 0, 64, 78
1, 121002, Control_c, 0, 64, 65
1, 121005, Note_off_c, 0, 59, 54
1, 121017, Control_c, 0, 64, 0
1, 121035, Note_off_c, 0, 64, 47
1, 121037, Note_off_c, 0, 62, 46
1, 121053, Note_on_c, 0, 80, 65
1, 121083, Note_off_c, 0, 76, 59
1, 121168, Note_on_c, 0, 78, 70
1, 121181, Note_on_c, 0, 59, 53
1, 121211, Note_off_c, 0, 59, 64
1, 121236, Note_off_c, 0, 68, 53
1, 121284, Note_off_c, 0, 80, 41
1, 121292, Note_on_c, 0, 76, 69
1, 121315, Note_off_c, 0, 78, 58
1, 121352, Note_off_c, 0, 76, 60
1, 121431, Note_on_c, 0, 78, 62
1, 121438, Note_on_c, 0, 45, 40
1, 121450, Note_on_c, 0, 69, 46
1, 121455, Control_c, 0, 64, 26
1, 121470, Control_c, 0, 64, 63
1, 121477, Note_off_c, 0, 45, 62
1, 121484, Control_c, 0, 64, 72
1, 121499, Control_c, 0, 64, 84
1, 121508, Note_off_c, 0, 69, 56
1, 121514, Control_c, 0, 64, 107
1, 121529, Control_c, 0, 64, 127
1, 121530, Note_off_c, 0, 78, 60
1, 121765, Note_on_c, 0, 61, 41
1, 121766, Control_c, 0, 64, 97
1, 121766, Note_on_c, 0, 64, 43
1, 121778, Note_on_c, 0, 57, 39
1, 121781, Control_c, 0, 64, 78
1, 121795, Control_c, 0, 64, 63
1, 121810, Control_c, 0, 64, 0
1, 121813, Note_off_c, 0, 57, 63
1, 121820, Note_off_c, 0, 64, 63
1, 121825, Note_off_c, 0, 61, 58
1, 122043, Note_on_c, 0, 76, 53
1, 122064, Note_on_c, 0, 69, 36
1, 122069, Note_on_c, 0, 64, 44
1, 122073, Note_on_c, 0, 61, 47
1, 122098, Note_off_c, 0, 64, 62
1, 122115, Note_off_c, 0, 61, 61
1, 122286, Note_off_c, 0, 76, 61
1, 122292, Control_c, 0, 64, 29
1, 122296, Note_on_c, 0, 45, 54
1, 122306, Control_c, 0, 64, 65
1, 122321, Control_c, 0, 64, 73
1, 122336, Note_off_c, 0, 45, 61
1, 122336, Control_c, 0, 64, 84
1, 122351, Control_c, 0, 64, 100
1, 122366, Control_c, 0, 64, 127
1, 122447, Note_off_c, 0, 69, 62
1, 122561, Note_on_c, 0, 76, 59
1, 122564, Note_on_c, 0, 73, 70
1, 122565, Note_on_c, 0, 64, 43
1, 122573, Note_on_c, 0, 57, 36
1, 122589, Note_on_c, 0, 61, 40
1, 122634, Note_off_c, 0, 57, 58
1, 122655, Note_off_c, 0, 61, 51
1, 122657, Note_off_c, 0, 64, 51
1, 122680, Note_on_c, 0, 71, 68
1, 122725, Note_off_c, 0, 76, 35
1, 122780, Note_off_c, 0, 73, 53
1, 122805, Note_on_c, 0, 69, 64
1, 122818, Note_on_c, 0, 61, 52
1, 122819, Note_on_c, 0, 64, 38
1, 122827, Note_off_c, 0, 71, 60
1, 122846, Note_off_c, 0, 64, 59
1, 122857, Note_off_c, 0, 61, 60
1, 122908, Note_off_c, 0, 69, 64
1, 122924, Note_on_c, 0, 67, 68
1, 122962, Note_off_c, 0, 67, 57
1, 123061, Note_on_c, 0, 50, 49
1, 123071, Control_c, 0, 64, 121
1, 123086, Control_c, 0, 64, 92
1, 123101, Control_c, 0, 64, 75
1, 123116, Control_c, 0, 64, 59
1, 123130, Control_c, 0, 64, 0
1, 123149, Note_on_c, 0, 78, 64
1, 123171, Note_on_c, 0, 66, 49
1, 123173, Note_on_c, 0, 73, 43
1, 123189, Control_c, 0, 64, 56
1, 123204, Control_c, 0, 64, 67
1, 123206, Note_off_c, 0, 50, 61
1, 123219, Control_c, 0, 64, 75
1, 123224, Note_off_c, 0, 66, 60
1, 123234, Control_c, 0, 64, 87
1, 123245, Note_off_c, 0, 78, 61
1, 123248, Control_c, 0, 64, 107
1, 123253, Note_off_c, 0, 73, 62
1, 123263, Control_c, 0, 64, 127
1, 123471, Control_c, 0, 64, 113
1, 123486, Control_c, 0, 64, 90
1, 123501, Control_c, 0, 64, 74
1, 123516, Control_c, 0, 64, 52
1, 123530, Note_on_c, 0, 62, 43
1, 123531, Note_on_c, 0, 66, 44
1, 123537, Control_c, 0, 64, 0
1, 123572, Note_off_c, 0, 66, 61
1, 123580, Note_off_c, 0, 62, 61
1, 123790, Note_on_c, 0, 78, 60
1, 123803, Note_on_c, 0, 71, 51
1, 123827, Note_on_c, 0, 62, 38
1, 123856, Note_off_c, 0, 62, 55
1, 123879, Poly_aftertouch_c, 0, 66, 0
1, 124042, Control_c, 0, 64, 26
1, 124044, Note_on_c, 0, 50, 53
1, 124057, Control_c, 0, 64, 63
1, 124071, Control_c, 0, 64, 72
1, 124086, Control_c, 0, 64, 83
1, 124089, Note_off_c, 0, 50, 66
1, 124101, Control_c, 0, 64, 103
1, 124116, Control_c, 0, 64, 127
1, 124145, Note_off_c, 0, 71, 32
1, 124171, Note_off_c, 0, 78, 60
1, 124304, Note_on_c, 0, 83, 65
1, 124332, Note_off_c, 0, 83, 65
1, 124333, Note_on_c, 0, 71, 51
1, 124336, Note_on_c, 0, 66, 35
1, 124362, Note_on_c, 0, 62, 25
1, 124375, Note_off_c, 0, 66, 49
1, 124410, Note_off_c, 0, 62, 45
1, 124411, Note_on_c, 0, 81, 71
1, 124463, Note_off_c, 0, 81, 61
1, 124529, Note_on_c, 0, 80, 68
1, 124553, Note_on_c, 0, 62, 50
1, 124581, Note_off_c, 0, 62, 63
1, 124583, Note_off_c, 0, 71, 38
1, 124589, Note_off_c, 0, 80, 61
1, 124633, Note_on_c, 0, 78, 65
1, 124689, Note_off_c, 0, 78, 58
1, 124702, Control_c, 0, 64, 107
1, 124717, Control_c, 0, 64, 85
1, 124732, Control_c, 0, 64, 67
1, 124746, Control_c, 0, 64, 0
1, 124772, Note_on_c, 0, 76, 65
1, 124788, Note_on_c, 0, 71, 44
1, 124795, Note_on_c, 0, 52, 45
1, 124820, Control_c, 0, 64, 52
1, 124828, Note_off_c, 0, 71, 66
1, 124828, Note_off_c, 0, 76, 62
1, 124835, Control_c, 0, 64, 68
1, 124850, Control_c, 0, 64, 79
1, 124865, Control_c, 0, 64, 94
1, 124880, Control_c, 0, 64, 127
1, 124899, Note_off_c, 0, 52, 52
1, 125078, Note_on_c, 0, 61, 51
1, 125080, Control_c, 0, 64, 105
1, 125088, Note_on_c, 0, 64, 46
1, 125095, Control_c, 0, 64, 86
1, 125109, Control_c, 0, 64, 70
1, 125113, Note_off_c, 0, 64, 60
1, 125114, Note_off_c, 0, 61, 61
1, 125124, Control_c, 0, 64, 45
1, 125139, Control_c, 0, 64, 0
1, 125322, Note_on_c, 0, 76, 47
1, 125340, Note_on_c, 0, 69, 43
1, 125351, Note_on_c, 0, 61, 39
1, 125357, Note_on_c, 0, 64, 29
1, 125395, Note_off_c, 0, 64, 52
1, 125398, Note_off_c, 0, 61, 53
1, 125571, Note_off_c, 0, 76, 57
1, 125574, Note_on_c, 0, 52, 43
1, 125599, Control_c, 0, 64, 59
1, 125614, Control_c, 0, 64, 70
1, 125629, Control_c, 0, 64, 84
1, 125643, Control_c, 0, 64, 108
1, 125644, Note_off_c, 0, 52, 47
1, 125658, Control_c, 0, 64, 127
1, 125832, Note_on_c, 0, 76, 42
1, 125832, Note_on_c, 0, 74, 60
1, 125847, Note_on_c, 0, 61, 52
1, 125862, Note_off_c, 0, 69, 49
1, 125873, Note_on_c, 0, 64, 22
1, 125893, Note_off_c, 0, 61, 55
1, 125903, Control_c, 0, 64, 121
1, 125913, Note_off_c, 0, 64, 50
1, 125918, Control_c, 0, 64, 97
1, 125932, Control_c, 0, 64, 80
1, 125937, Note_on_c, 0, 73, 60
1, 125942, Note_off_c, 0, 74, 59
1, 125948, Control_c, 0, 64, 66
1, 125950, Note_off_c, 0, 76, 28
1, 125963, Control_c, 0, 64, 0
1, 126051, Note_off_c, 0, 73, 59
1, 126057, Note_on_c, 0, 71, 56
1, 126069, Note_on_c, 0, 61, 51
1, 126092, Note_on_c, 0, 64, 15
1, 126106, Note_off_c, 0, 61, 61
1, 126131, Note_off_c, 0, 71, 60
1, 126136, Note_off_c, 0, 64, 43
1, 126165, Note_on_c, 0, 69, 50
1, 126198, Note_off_c, 0, 69, 63
1, 126309, Note_on_c, 0, 78, 55
1, 126309, Note_on_c, 0, 69, 45
1, 126322, Note_on_c, 0, 52, 37
1, 126333, Control_c, 0, 64, 57
1, 126348, Control_c, 0, 64, 68
1, 126348, Note_off_c, 0, 69, 65
1, 126359, Note_off_c, 0, 78, 57
1, 126363, Control_c, 0, 64, 77
1, 126378, Control_c, 0, 64, 90
1, 126380, Note_off_c, 0, 52, 53
1, 126392, Control_c, 0, 64, 127
1, 126622, Control_c, 0, 64, 105
1, 126637, Control_c, 0, 64, 86
1, 126637, Note_on_c, 0, 59, 45
1, 126652, Control_c, 0, 64, 71
1, 126658, Note_on_c, 0, 64, 36
1, 126661, Note_on_c, 0, 62, 23
1, 126667, Control_c, 0, 64, 35
1, 126676, Note_off_c, 0, 59, 63
1, 126681, Control_c, 0, 64, 0
1, 126691, Note_off_c, 0, 64, 60
1, 126697, Note_off_c, 0, 62, 53
1, 126904, Note_on_c, 0, 76, 61
1, 126923, Note_on_c, 0, 68, 47
1, 126927, Note_on_c, 0, 59, 43
1, 126983, Note_off_c, 0, 59, 54
1, 127001, Poly_aftertouch_c, 0, 64, 0
1, 127003, Poly_aftertouch_c, 0, 62, 0
1, 127151, Note_on_c, 0, 52, 47
1, 127156, Control_c, 0, 64, 64
1, 127171, Control_c, 0, 64, 76
1, 127185, Control_c, 0, 64, 94
1, 127192, Note_off_c, 0, 52, 61
1, 127200, Control_c, 0, 64, 127
1, 127220, Note_off_c, 0, 76, 51
1, 127225, Note_off_c, 0, 68, 52
1, 127414, Control_c, 0, 64, 108
1, 127415, Note_on_c, 0, 78, 67
1, 127429, Control_c, 0, 64, 84
1, 127433, Note_on_c, 0, 59, 47
1, 127439, Note_on_c, 0, 69, 47
1, 127444, Control_c, 0, 64, 64
1, 127459, Control_c, 0, 64, 0
1, 127460, Note_on_c, 0, 64, 36
1, 127471, Note_on_c, 0, 62, 17
1, 127471, Note_off_c, 0, 78, 60
1, 127475, Note_off_c, 0, 59, 62
1, 127476, Note_off_c, 0, 69, 62
1, 127492, Note_off_c, 0, 64, 56
1, 127504, Note_off_c, 0, 62, 46
1, 127716, Note_on_c, 0, 80, 54
1, 127728, Note_on_c, 0, 71, 52
1, 127741, Note_on_c, 0, 59, 41
1, 127771, Note_off_c, 0, 71, 60
1, 127773, Poly_aftertouch_c, 0, 62, 127
1, 127782, Note_off_c, 0, 59, 62
1, 127785, Note_off_c, 0, 80, 52
1, 127788, Poly_aftertouch_c, 0, 64, 0
1, 127794, Poly_aftertouch_c, 0, 62, 0
1, 128048, Note_on_c, 0, 81, 50
1, 128068, Note_on_c, 0, 73, 46
1, 128072, Note_on_c, 0, 45, 41
1, 128074, Control_c, 0, 64, 34
1, 128089, Control_c, 0, 64, 59
1, 128104, Control_c, 0, 64, 67
1, 128118, Control_c, 0, 64, 74
1, 128122, Note_off_c, 0, 81, 62
1, 128132, Note_off_c, 0, 73, 62
1, 128133, Control_c, 0, 64, 84
1, 128148, Control_c, 0, 64, 96
1, 128148, Note_off_c, 0, 45, 53
1, 128163, Control_c, 0, 64, 118
1, 128177, Control_c, 0, 64, 127
1, 128467, Note_on_c, 0, 61, 37
1, 128467, Note_on_c, 0, 57, 38
1, 128518, Note_off_c, 0, 57, 59
1, 128572, Note_off_c, 0, 61, 37
1, 128592, Control_c, 0, 67, 126
1, 128607, Control_c, 0, 67, 123
1, 128622, Control_c, 0, 67, 121
1, 128637, Control_c, 0, 67, 117
1, 128652, Control_c, 0, 67, 111
1, 128667, Control_c, 0, 67, 105
1, 128682, Control_c, 0, 67, 99
1, 128697, Control_c, 0, 67, 93
1, 128712, Control_c, 0, 67, 88
1, 128727, Control_c, 0, 67, 82
1, 128741, Control_c, 0, 67, 77
1, 128756, Control_c, 0, 67, 73
1, 128779, Control_c, 0, 67, 69
1, 128794, Note_on_c, 0, 61, 30
1, 128794, Control_c, 0, 67, 66
1, 128800, Note_on_c, 0, 64, 20
1, 128808, Control_c, 0, 67, 63
1, 128822, Note_on_c, 0, 76, 51
1, 128823, Control_c, 0, 67, 59
1, 128834, Note_on_c, 0, 69, 38
1, 128834, Note_off_c, 0, 61, 57
1, 128838, Control_c, 0, 67, 54
1, 128843, Note_off_c, 0, 64, 46
1, 128853, Control_c, 0, 67, 48
1, 128860, Note_on_c, 0, 73, 31
1, 128867, Control_c, 0, 67, 43
1, 128882, Control_c, 0, 67, 38
1, 128897, Control_c, 0, 67, 33
1, 128912, Control_c, 0, 67, 27
1, 128926, Control_c, 0, 67, 23
1, 128941, Control_c, 0, 67, 19
1, 128956, Control_c, 0, 67, 14
1, 128971, Control_c, 0, 67, 10
1, 128986, Control_c, 0, 67, 0
1, 129001, Control_c, 0, 64, 103
1, 129016, Control_c, 0, 64, 80
1, 129031, Control_c, 0, 64, 63
1, 129046, Control_c, 0, 64, 0
1, 129075, Control_c, 0, 64, 55
1, 129078, Note_on_c, 0, 45, 46
1, 129090, Control_c, 0, 64, 66
1, 129105, Control_c, 0, 64, 74
1, 129118, Note_off_c, 0, 69, 55
1, 129119, Control_c, 0, 64, 86
1, 129135, Control_c, 0, 64, 106
1, 129136, Note_off_c, 0, 45, 57
1, 129150, Control_c, 0, 64, 127
1, 129190, Note_off_c, 0, 76, 57
1, 129250, Note_off_c, 0, 73, 45
1, 129382, Note_on_c, 0, 57, 34
1, 129383, Note_on_c, 0, 64, 33
1, 129394, Note_on_c, 0, 61, 32
1, 129421, Note_on_c, 0, 73, 68
1, 129525, Note_off_c, 0, 57, 35
1, 129537, Note_off_c, 0, 64, 44
1, 129543, Note_off_c, 0, 61, 43
1, 129555, Note_on_c, 0, 76, 74
1, 129588, Note_off_c, 0, 73, 62
1, 129670, Note_on_c, 0, 75, 72
1, 129697, Note_on_c, 0, 61, 37
1, 129708, Note_on_c, 0, 64, 8
1, 129711, Note_on_c, 0, 57, 37
1, 129728, Note_off_c, 0, 76, 54
1, 129740, Note_off_c, 0, 64, 0
1, 129746, Note_off_c, 0, 61, 55
1, 129750, Note_off_c, 0, 57, 62
1, 129763, Poly_aftertouch_c, 0, 64, 0
1, 129785, Note_on_c, 0, 73, 77
1, 129818, Note_off_c, 0, 75, 60
1, 129887, Note_off_c, 0, 73, 61
1, 129940, Note_on_c, 0, 49, 57
1, 129959, Control_c, 0, 64, 90
1, 129973, Control_c, 0, 64, 68
1, 129988, Control_c, 0, 64, 0
1, 129999, Note_on_c, 0, 73, 78
1, 130047, Control_c, 0, 64, 52
1, 130062, Control_c, 0, 64, 68
1, 130077, Control_c, 0, 64, 79
1, 130092, Control_c, 0, 64, 97
1, 130107, Note_off_c, 0, 49, 61
1, 130107, Control_c, 0, 64, 127
1, 130221, Note_off_c, 0, 73, 54
1, 130357, Note_on_c, 0, 56, 42
1, 130363, Note_on_c, 0, 61, 42
1, 130378, Note_on_c, 0, 65, 41
1, 130425, Note_off_c, 0, 56, 58
1, 130429, Note_off_c, 0, 65, 60
1, 130441, Note_off_c, 0, 61, 49
1, 130647, Note_on_c, 0, 73, 66
1, 130655, Note_on_c, 0, 56, 48
1, 130718, Note_off_c, 0, 56, 62
1, 130841, Control_c, 0, 64, 103
1, 130856, Control_c, 0, 64, 79
1, 130870, Control_c, 0, 64, 61
1, 130885, Control_c, 0, 64, 52
1, 130888, Note_on_c, 0, 49, 56
1, 130900, Control_c, 0, 64, 65
1, 130915, Control_c, 0, 64, 76
1, 130930, Control_c, 0, 64, 95
1, 130944, Control_c, 0, 64, 127
1, 130945, Note_off_c, 0, 49, 59
1, 131071, Note_off_c, 0, 73, 35
1, 131132, Note_on_c, 0, 80, 71
1, 131147, Note_on_c, 0, 73, 72
1, 131167, Note_on_c, 0, 56, 42
1, 131185, Note_on_c, 0, 61, 34
1, 131185, Note_on_c, 0, 65, 27
1, 131223, Note_off_c, 0, 56, 54
1, 131243, Note_off_c, 0, 65, 44
1, 131249, Note_on_c, 0, 77, 76
1, 131250, Note_off_c, 0, 61, 41
1, 131278, Note_off_c, 0, 73, 54
1, 131353, Note_on_c, 0, 75, 78
1, 131355, Note_off_c, 0, 80, 37
1, 131371, Note_on_c, 0, 56, 51
1, 131392, Note_off_c, 0, 77, 60
1, 131396, Note_on_c, 0, 61, 25
1, 131412, Note_off_c, 0, 56, 63
1, 131441, Note_off_c, 0, 61, 53
1, 131453, Note_on_c, 0, 73, 82
1, 131490, Note_off_c, 0, 75, 61
1, 131517, Note_off_c, 0, 73, 60
1, 131560, Control_c, 0, 64, 86
1, 131575, Control_c, 0, 64, 64
1, 131590, Control_c, 0, 64, 0
1, 131604, Note_on_c, 0, 80, 73
1, 131619, Note_on_c, 0, 73, 73
1, 131619, Note_on_c, 0, 78, 70
1, 131632, Note_on_c, 0, 44, 55
1, 131649, Control_c, 0, 64, 59
1, 131664, Control_c, 0, 64, 73
1, 131675, Note_off_c, 0, 44, 61
1, 131679, Control_c, 0, 64, 95
1, 131693, Control_c, 0, 64, 127
1, 131764, Note_off_c, 0, 73, 47
1, 131787, Note_off_c, 0, 80, 59
1, 131797, Note_off_c, 0, 78, 61
1, 131960, Note_on_c, 0, 56, 39
1, 131960, Note_on_c, 0, 63, 45
1, 131978, Note_on_c, 0, 66, 38
1, 132006, Note_off_c, 0, 56, 60
1, 132022, Note_off_c, 0, 66, 57
1, 132038, Note_off_c, 0, 63, 58
1, 132219, Note_on_c, 0, 80, 72
1, 132234, Control_c, 0, 64, 92
1, 132238, Note_on_c, 0, 72, 61
1, 132238, Note_on_c, 0, 78, 64
1, 132241, Note_on_c, 0, 56, 49
1, 132249, Control_c, 0, 64, 68
1, 132250, Note_on_c, 0, 66, 34
1, 132264, Control_c, 0, 64, 0
1, 132276, Note_on_c, 0, 63, 6
1, 132284, Note_off_c, 0, 66, 47
1, 132289, Note_off_c, 0, 56, 64
1, 132316, Note_off_c, 0, 63, 41
1, 132435, Note_off_c, 0, 72, 61
1, 132442, Control_c, 0, 64, 61
1, 132450, Note_on_c, 0, 44, 61
1, 132457, Control_c, 0, 64, 75
1, 132472, Control_c, 0, 64, 102
1, 132481, Note_off_c, 0, 44, 64
1, 132487, Control_c, 0, 64, 127
1, 132525, Note_off_c, 0, 78, 36
1, 132610, Note_off_c, 0, 80, 25
1, 132694, Note_on_c, 0, 82, 81
1, 132709, Note_on_c, 0, 73, 66
1, 132714, Note_on_c, 0, 56, 57
1, 132715, Note_on_c, 0, 78, 66
1, 132731, Note_on_c, 0, 63, 47
1, 132736, Note_on_c, 0, 66, 37
1, 132741, Note_off_c, 0, 73, 64
1, 132741, Note_off_c, 0, 78, 67
1, 132753, Note_off_c, 0, 56, 60
1, 132770, Note_off_c, 0, 66, 52
1, 132771, Note_off_c, 0, 63, 60
1, 132793, Note_off_c, 0, 82, 41
1, 132909, Control_c, 0, 64, 98
1, 132924, Control_c, 0, 64, 73
1, 132939, Control_c, 0, 64, 0
1, 132945, Note_on_c, 0, 84, 83
1, 132961, Note_on_c, 0, 75, 71
1, 132962, Note_on_c, 0, 56, 44
1, 132965, Note_on_c, 0, 78, 66
1, 132968, Control_c, 0, 64, 28
1, 132976, Note_on_c, 0, 63, 43
1, 132983, Control_c, 0, 64, 67
1, 132989, Note_off_c, 0, 78, 69
1, 132998, Control_c, 0, 64, 85
1, 132998, Note_off_c, 0, 75, 58
1, 133005, Note_off_c, 0, 63, 58
1, 133013, Control_c, 0, 64, 127
1, 133034, Note_off_c, 0, 56, 60
1, 133037, Note_off_c, 0, 84, 64
1, 133206, Control_c, 0, 64, 106
1, 133221, Control_c, 0, 64, 79
1, 133230, Note_on_c, 0, 85, 74
1, 133236, Control_c, 0, 64, 52
1, 133251, Control_c, 0, 64, 0
1, 133264, Note_on_c, 0, 73, 58
1, 133275, Note_on_c, 0, 77, 44
1, 133279, Note_on_c, 0, 49, 49
1, 133317, Control_c, 0, 64, 64
1, 133332, Control_c, 0, 64, 76
1, 133343, Note_off_c, 0, 49, 58
1, 133347, Control_c, 0, 64, 104
1, 133362, Control_c, 0, 64, 127
1, 133368, Note_off_c, 0, 85, 64
1, 133370, Note_off_c, 0, 73, 60
1, 133395, Note_off_c, 0, 77, 61
1, 133569, Control_c, 0, 67, 8
1, 133583, Control_c, 0, 67, 9
1, 133597, Note_on_c, 0, 56, 39
1, 133598, Control_c, 0, 67, 12
1, 133609, Note_on_c, 0, 65, 37
1, 133612, Note_on_c, 0, 61, 38
1, 133613, Control_c, 0, 67, 13
1, 133628, Control_c, 0, 64, 89
1, 133628, Control_c, 0, 67, 16
1, 133643, Control_c, 0, 64, 65
1, 133643, Control_c, 0, 67, 18
1, 133657, Note_off_c, 0, 56, 59
1, 133657, Control_c, 0, 64, 0
1, 133657, Control_c, 0, 67, 20
1, 133665, Note_off_c, 0, 65, 61
1, 133666, Note_off_c, 0, 61, 58
1, 133672, Control_c, 0, 67, 20
1, 133687, Control_c, 0, 67, 21
1, 133702, Control_c, 0, 67, 22
1, 133717, Control_c, 0, 67, 23
1, 133731, Control_c, 0, 67, 24
1, 133746, Control_c, 0, 67, 25
1, 133761, Control_c, 0, 67, 26
1, 133776, Control_c, 0, 67, 27
1, 133791, Control_c, 0, 67, 28
1, 133806, Control_c, 0, 67, 30
1, 133821, Control_c, 0, 67, 33
1, 133836, Control_c, 0, 67, 35
1, 133851, Control_c, 0, 67, 37
1, 133865, Control_c, 0, 67, 39
1, 133880, Control_c, 0, 67, 41
1, 133895, Control_c, 0, 67, 44
1, 133901, Note_on_c, 0, 80, 49
1, 133909, Control_c, 0, 67, 47
1, 133917, Note_on_c, 0, 56, 38
1, 133917, Note_on_c, 0, 77, 44
1, 133919, Note_on_c, 0, 73, 42
1, 133924, Control_c, 0, 67, 50
1, 133940, Control_c, 0, 67, 54
1, 133952, Note_off_c, 0, 56, 62
1, 133955, Control_c, 0, 67, 59
1, 133970, Control_c, 0, 67, 64
1, 133981, Poly_aftertouch_c, 0, 65, 0
1, 133985, Control_c, 0, 67, 68
1, 134000, Control_c, 0, 67, 72
1, 134021, Control_c, 0, 67, 76
1, 134036, Control_c, 0, 67, 81
1, 134051, Control_c, 0, 67, 87
1, 134066, Control_c, 0, 67, 93
1, 134081, Control_c, 0, 67, 99
1, 134095, Control_c, 0, 67, 105
1, 134110, Control_c, 0, 67, 112
1, 134125, Control_c, 0, 67, 119
1, 134140, Control_c, 0, 67, 125
1, 134155, Control_c, 0, 64, 29
1, 134155, Control_c, 0, 67, 127
1, 134164, Note_on_c, 0, 49, 48
1, 134170, Control_c, 0, 64, 66
1, 134185, Control_c, 0, 64, 81
1, 134188, Note_off_c, 0, 80, 60
1, 134189, Note_off_c, 0, 77, 62
1, 134199, Control_c, 0, 64, 127
1, 134209, Note_off_c, 0, 49, 60
1, 134214, Note_off_c, 0, 73, 58
1, 134406, Control_c, 0, 64, 92
1, 134413, Note_on_c, 0, 80, 56
1, 134421, Control_c, 0, 64, 72
1, 134426, Note_on_c, 0, 73, 52
1, 134428, Note_on_c, 0, 56, 41
1, 134436, Control_c, 0, 64, 0
1, 134438, Note_on_c, 0, 65, 25
1, 134441, Note_on_c, 0, 61, 21
1, 134472, Note_off_c, 0, 56, 60
1, 134483, Note_off_c, 0, 61, 51
1, 134490, Note_off_c, 0, 65, 47
1, 134528, Note_on_c, 0, 77, 56
1, 134534, Note_off_c, 0, 73, 53
1, 134581, Note_off_c, 0, 80, 48
1, 134638, Note_on_c, 0, 75, 59
1, 134648, Note_on_c, 0, 56, 52
1, 134659, Note_off_c, 0, 77, 54
1, 134685, Note_off_c, 0, 56, 65
1, 134728, Poly_aftertouch_c, 0, 61, 0
1, 134733, Note_on_c, 0, 73, 67
1, 134766, Note_off_c, 0, 75, 58
1, 134787, Note_off_c, 0, 73, 58
1, 134865, Note_on_c, 0, 80, 59
1, 134889, Control_c, 0, 64, 56
1, 134891, Note_on_c, 0, 44, 50
1, 134897, Note_on_c, 0, 78, 53
1, 134899, Note_on_c, 0, 73, 54
1, 134904, Control_c, 0, 64, 71
1, 134918, Control_c, 0, 64, 87
1, 134927, Note_off_c, 0, 44, 63
1, 134930, Note_off_c, 0, 73, 63
1, 134933, Note_off_c, 0, 80, 62
1, 134933, Control_c, 0, 64, 127
1, 134943, Note_off_c, 0, 78, 59
1, 135168, Note_on_c, 0, 56, 49
1, 135171, Note_on_c, 0, 66, 46
1, 135185, Note_on_c, 0, 63, 42
1, 135185, Control_c, 0, 64, 99
1, 135200, Control_c, 0, 64, 81
1, 135208, Note_off_c, 0, 56, 62
1, 135215, Control_c, 0, 64, 65
1, 135220, Note_off_c, 0, 66, 59
1, 135225, Note_off_c, 0, 63, 63
1, 135229, Control_c, 0, 64, 0
1, 135409, Note_on_c, 0, 80, 56
1, 135417, Note_on_c, 0, 56, 49
1, 135425, Note_on_c, 0, 78, 52
1, 135428, Note_on_c, 0, 72, 48
1, 135454, Note_off_c, 0, 56, 65
1, 135620, Note_off_c, 0, 72, 60
1, 135639, Control_c, 0, 64, 56
1, 135651, Note_on_c, 0, 44, 56
1, 135653, Control_c, 0, 64, 71
1, 135668, Control_c, 0, 64, 89
1, 135672, Note_off_c, 0, 78, 53
1, 135683, Control_c, 0, 64, 127
1, 135689, Note_off_c, 0, 44, 63
1, 135890, Control_c, 0, 64, 97
1, 135893, Note_on_c, 0, 82, 72
1, 135905, Control_c, 0, 64, 76
1, 135910, Note_on_c, 0, 56, 51
1, 135911, Note_on_c, 0, 73, 59
1, 135914, Note_on_c, 0, 66, 44
1, 135919, Control_c, 0, 64, 60
1, 135924, Note_off_c, 0, 80, 62
1, 135929, Note_on_c, 0, 78, 34
1, 135930, Note_on_c, 0, 63, 40
1, 135934, Control_c, 0, 64, 0
1, 135947, Note_off_c, 0, 56, 63
1, 135947, Note_off_c, 0, 73, 63
1, 135958, Note_off_c, 0, 66, 60
1, 135961, Note_off_c, 0, 82, 61
1, 135961, Note_off_c, 0, 78, 51
1, 135965, Note_off_c, 0, 63, 61
1, 136158, Note_on_c, 0, 84, 67
1, 136171, Note_on_c, 0, 56, 47
1, 136175, Note_on_c, 0, 75, 57
1, 136179, Note_on_c, 0, 78, 49
1, 136194, Note_on_c, 0, 63, 33
1, 136212, Note_off_c, 0, 78, 53
1, 136224, Note_off_c, 0, 75, 60
1, 136224, Note_off_c, 0, 56, 61
1, 136227, Note_off_c, 0, 84, 63
1, 136227, Note_off_c, 0, 63, 50
1, 136443, Note_on_c, 0, 85, 63
1, 136446, Control_c, 0, 64, 40
1, 136461, Control_c, 0, 64, 63
1, 136470, Note_on_c, 0, 73, 45
1, 136474, Note_on_c, 0, 49, 46
1, 136475, Control_c, 0, 64, 70
1, 136476, Note_on_c, 0, 77, 46
1, 136490, Control_c, 0, 64, 77
1, 136505, Control_c, 0, 64, 87
1, 136520, Control_c, 0, 64, 106
1, 136531, Note_off_c, 0, 49, 58
1, 136534, Control_c, 0, 64, 127
1, 136558, Note_off_c, 0, 73, 45
1, 136579, Note_off_c, 0, 85, 61
1, 136638, Note_off_c, 0, 77, 43
1, 136668, Control_c, 0, 67, 127
1, 136683, Control_c, 0, 67, 123
1, 136697, Control_c, 0, 67, 120
1, 136712, Control_c, 0, 67, 117
1, 136727, Control_c, 0, 67, 113
1, 136742, Control_c, 0, 67, 110
1, 136757, Control_c, 0, 67, 107
1, 136772, Control_c, 0, 67, 104
1, 136787, Control_c, 0, 67, 101
1, 136801, Note_on_c, 0, 56, 33
1, 136801, Control_c, 0, 67, 96
1, 136806, Note_on_c, 0, 65, 33
1, 136814, Note_on_c, 0, 61, 41
1, 136816, Control_c, 0, 67, 91
1, 136831, Control_c, 0, 67, 84
1, 136846, Control_c, 0, 67, 77
1, 136858, Note_off_c, 0, 56, 55
1, 136861, Control_c, 0, 67, 71
1, 136867, Note_off_c, 0, 61, 54
1, 136873, Note_off_c, 0, 65, 40
1, 136875, Control_c, 0, 67, 66
1, 136890, Control_c, 0, 67, 61
1, 136905, Control_c, 0, 67, 56
1, 136920, Control_c, 0, 67, 50
1, 136934, Control_c, 0, 67, 42
1, 136949, Control_c, 0, 67, 33
1, 136964, Control_c, 0, 67, 22
1, 136979, Control_c, 0, 67, 11
1, 136994, Control_c, 0, 67, 0
1, 137042, Note_on_c, 0, 80, 67
1, 137074, Note_on_c, 0, 56, 50
1, 137074, Note_on_c, 0, 73, 48
1, 137092, Note_on_c, 0, 77, 35
1, 137129, Note_off_c, 0, 56, 62
1, 137269, Control_c, 0, 64, 115
1, 137284, Control_c, 0, 64, 87
1, 137299, Control_c, 0, 64, 69
1, 137309, Note_on_c, 0, 49, 54
1, 137313, Control_c, 0, 64, 42
1, 137343, Control_c, 0, 64, 65
1, 137357, Control_c, 0, 64, 74
1, 137372, Control_c, 0, 64, 89
1, 137382, Note_off_c, 0, 73, 50
1, 137387, Control_c, 0, 64, 127
1, 137389, Note_off_c, 0, 77, 50
1, 137411, Note_off_c, 0, 49, 61
1, 137594, Note_on_c, 0, 85, 80
1, 137622, Note_on_c, 0, 73, 56
1, 137622, Note_on_c, 0, 77, 51
1, 137628, Note_off_c, 0, 80, 57
1, 137640, Note_on_c, 0, 56, 37
1, 137654, Note_on_c, 0, 65, 28
1, 137654, Note_on_c, 0, 61, 30
1, 137762, Note_off_c, 0, 56, 36
1, 137803, Note_off_c, 0, 65, 33
1, 137812, Note_off_c, 0, 61, 31
1, 137813, Note_off_c, 0, 73, 53
1, 137819, Note_off_c, 0, 77, 56
1, 137842, Note_off_c, 0, 85, 59
1, 137929, Control_c, 0, 67, 8
1, 137944, Control_c, 0, 67, 11
1, 137945, Note_on_c, 0, 85, 80
1, 137956, Note_on_c, 0, 77, 56
1, 137958, Note_on_c, 0, 73, 59
1, 137958, Control_c, 0, 67, 14
1, 137973, Control_c, 0, 67, 18
1, 137979, Note_on_c, 0, 56, 37
1, 137988, Control_c, 0, 67, 23
1, 138002, Note_off_c, 0, 77, 55
1, 138003, Control_c, 0, 67, 27
1, 138006, Poly_aftertouch_c, 0, 61, 127
1, 138018, Note_off_c, 0, 56, 62
1, 138018, Control_c, 0, 67, 32
1, 138033, Control_c, 0, 67, 37
1, 138048, Control_c, 0, 67, 42
1, 138054, Poly_aftertouch_c, 0, 61, 0
1, 138062, Control_c, 0, 67, 47
1, 138077, Control_c, 0, 67, 52
1, 138092, Control_c, 0, 67, 57
1, 138106, Control_c, 0, 67, 62
1, 138109, Note_off_c, 0, 73, 37
1, 138119, Note_off_c, 0, 85, 50
1, 138121, Control_c, 0, 67, 69
1, 138136, Control_c, 0, 67, 75
1, 138151, Control_c, 0, 67, 81
1, 138166, Control_c, 0, 67, 86
1, 138180, Control_c, 0, 67, 92
1, 138195, Control_c, 0, 67, 96
1, 138210, Control_c, 0, 67, 101
1, 138225, Control_c, 0, 67, 105
1, 138240, Control_c, 0, 67, 108
1, 138254, Control_c, 0, 67, 112
1, 138269, Control_c, 0, 67, 117
1, 138284, Control_c, 0, 67, 122
1, 138298, Control_c, 0, 67, 127
1, 138328, Control_c, 0, 64, 92
1, 138343, Control_c, 0, 64, 74
1, 138349, Note_on_c, 0, 85, 63
1, 138358, Control_c, 0, 64, 51
1, 138368, Note_on_c, 0, 73, 43
1, 138368, Note_on_c, 0, 79, 49
1, 138373, Control_c, 0, 64, 0
1, 138378, Note_on_c, 0, 45, 42
1, 138417, Control_c, 0, 64, 59
1, 138432, Control_c, 0, 64, 69
1, 138447, Control_c, 0, 64, 81
1, 138462, Control_c, 0, 64, 103
1, 138469, Note_off_c, 0, 45, 59
1, 138477, Control_c, 0, 64, 127
1, 138642, Note_off_c, 0, 73, 38
1, 138642, Note_off_c, 0, 79, 52
1, 138662, Note_off_c, 0, 85, 38
1, 138804, Note_on_c, 0, 64, 30
1, 138805, Note_on_c, 0, 55, 30
1, 138811, Note_on_c, 0, 61, 28
1, 138858, Note_off_c, 0, 55, 58
1, 138865, Note_off_c, 0, 61, 53
1, 138869, Note_off_c, 0, 64, 58
1, 139108, Control_c, 0, 64, 99
1, 139122, Note_on_c, 0, 85, 52
1, 139122, Control_c, 0, 64, 82
1, 139137, Control_c, 0, 64, 66
1, 139139, Note_on_c, 0, 79, 46
1, 139140, Note_on_c, 0, 55, 42
1, 139140, Note_on_c, 0, 73, 40
1, 139152, Note_on_c, 0, 64, 31
1, 139152, Control_c, 0, 64, 0
1, 139182, Note_off_c, 0, 64, 51
1, 139197, Note_off_c, 0, 55, 63
1, 139411, Control_c, 0, 64, 62
1, 139413, Note_on_c, 0, 45, 49
1, 139426, Control_c, 0, 64, 75
1, 139441, Control_c, 0, 64, 91
1, 139446, Note_off_c, 0, 45, 64
1, 139455, Control_c, 0, 64, 127
1, 139467, Note_off_c, 0, 73, 54
1, 139494, Note_off_c, 0, 79, 37
1, 139518, Note_off_c, 0, 85, 48
1, 139682, Note_on_c, 0, 85, 52
1, 139699, Note_on_c, 0, 55, 45
1, 139701, Note_on_c, 0, 79, 51
1, 139710, Note_on_c, 0, 64, 40
1, 139728, Note_on_c, 0, 61, 40
1, 139759, Note_off_c, 0, 55, 55
1, 139768, Note_off_c, 0, 64, 59
1, 139773, Note_off_c, 0, 61, 56
1, 139798, Note_off_c, 0, 79, 48
1, 139807, Note_on_c, 0, 83, 54
1, 139866, Note_off_c, 0, 85, 47
1, 139935, Note_on_c, 0, 81, 55
1, 139937, Note_off_c, 0, 83, 57
1, 139949, Note_on_c, 0, 55, 47
1, 139986, Note_off_c, 0, 55, 62
1, 140025, Note_off_c, 0, 81, 62
1, 140037, Note_on_c, 0, 79, 58
1, 140066, Note_off_c, 0, 79, 65
1, 140131, Note_on_c, 0, 78, 49
1, 140206, Note_off_c, 0, 78, 45
1, 140207, Note_on_c, 0, 85, 50
1, 140218, Control_c, 0, 64, 111
1, 140233, Control_c, 0, 64, 88
1, 140248, Control_c, 0, 64, 72
1, 140263, Control_c, 0, 64, 54
1, 140277, Control_c, 0, 64, 0
1, 140307, Note_on_c, 0, 90, 62
1, 140307, Control_c, 0, 64, 40
1, 140322, Note_on_c, 0, 38, 41
1, 140322, Control_c, 0, 64, 62
1, 140328, Note_off_c, 0, 85, 61
1, 140337, Control_c, 0, 64, 71
1, 140348, Note_off_c, 0, 90, 64
1, 140352, Control_c, 0, 64, 83
1, 140367, Control_c, 0, 64, 108
1, 140381, Note_off_c, 0, 38, 54
1, 140382, Control_c, 0, 64, 127
1, 140648, Control_c, 0, 64, 117
1, 140663, Control_c, 0, 64, 86
1, 140674, Note_on_c, 0, 54, 49
1, 140678, Control_c, 0, 64, 67
1, 140688, Note_on_c, 0, 66, 39
1, 140692, Note_on_c, 0, 62, 42
1, 140692, Control_c, 0, 64, 0
1, 140707, Note_off_c, 0, 54, 64
1, 140720, Note_off_c, 0, 66, 59
1, 140737, Note_off_c, 0, 62, 59
1, 140940, Note_on_c, 0, 90, 65
1, 140953, Note_on_c, 0, 59, 55
1, 140962, Note_on_c, 0, 83, 43
1, 140966, Note_on_c, 0, 78, 42
1, 140968, Note_on_c, 0, 66, 22
1, 140990, Note_off_c, 0, 59, 62
1, 140998, Note_off_c, 0, 66, 46
1, 141175, Control_c, 0, 64, 59
1, 141190, Control_c, 0, 64, 73
1, 141196, Note_off_c, 0, 83, 64
1, 141196, Note_on_c, 0, 50, 48
1, 141203, Note_off_c, 0, 78, 62
1, 141205, Control_c, 0, 64, 91
1, 141220, Control_c, 0, 64, 127
1, 141226, Note_off_c, 0, 50, 65
1, 141228, Note_off_c, 0, 90, 64
1, 141451, Note_on_c, 0, 90, 65
1, 141455, Note_on_c, 0, 83, 56
1, 141464, Note_on_c, 0, 66, 44
1, 141471, Control_c, 0, 64, 96
1, 141477, Note_on_c, 0, 62, 44
1, 141487, Control_c, 0, 64, 80
1, 141509, Control_c, 0, 64, 65
1, 141518, Note_off_c, 0, 66, 47
1, 141524, Control_c, 0, 64, 0
1, 141528, Note_off_c, 0, 62, 60
1, 141559, Note_off_c, 0, 90, 64
1, 141560, Note_on_c, 0, 93, 72
1, 141661, Note_on_c, 0, 92, 72
1, 141690, Note_on_c, 0, 62, 46
1, 141713, Note_off_c, 0, 83, 58
1, 141713, Note_off_c, 0, 93, 56
1, 141716, Note_off_c, 0, 62, 59
1, 141759, Note_on_c, 0, 90, 69
1, 141800, Note_off_c, 0, 92, 56
1, 141846, Note_off_c, 0, 90, 57
1, 141888, Note_on_c, 0, 88, 67
1, 141905, Note_on_c, 0, 83, 56
1, 141906, Note_on_c, 0, 52, 44
1, 141909, Control_c, 0, 64, 59
1, 141925, Control_c, 0, 64, 70
1, 141935, Note_off_c, 0, 83, 67
1, 141940, Control_c, 0, 64, 82
1, 141944, Note_off_c, 0, 88, 65
1, 141954, Control_c, 0, 64, 100
1, 141969, Control_c, 0, 64, 127
1, 141970, Note_off_c, 0, 52, 52
1, 142172, Note_on_c, 0, 61, 54
1, 142176, Control_c, 0, 64, 102
1, 142179, Note_on_c, 0, 64, 53
1, 142191, Control_c, 0, 64, 79
1, 142206, Control_c, 0, 64, 59
1, 142207, Note_off_c, 0, 61, 63
1, 142212, Note_off_c, 0, 64, 66
1, 142221, Control_c, 0, 64, 0
1, 142429, Note_on_c, 0, 88, 60
1, 142439, Note_on_c, 0, 61, 52
1, 142442, Note_on_c, 0, 81, 53
1, 142449, Note_on_c, 0, 64, 31
1, 142471, Note_off_c, 0, 61, 64
1, 142485, Note_off_c, 0, 64, 46
1, 142658, Control_c, 0, 64, 54
1, 142661, Note_on_c, 0, 40, 56
1, 142667, Note_off_c, 0, 88, 64
1, 142670, Note_off_c, 0, 81, 62
1, 142672, Control_c, 0, 64, 69
1, 142687, Control_c, 0, 64, 80
1, 142702, Control_c, 0, 64, 101
1, 142707, Note_off_c, 0, 40, 63
1, 142718, Control_c, 0, 64, 127
1, 142940, Note_on_c, 0, 76, 71
1, 142966, Note_on_c, 0, 69, 55
1, 142975, Note_on_c, 0, 61, 46
1, 142984, Note_on_c, 0, 64, 41
1, 143035, Note_off_c, 0, 61, 52
1, 143044, Note_off_c, 0, 64, 55
1, 143067, Note_on_c, 0, 73, 73
1, 143100, Note_off_c, 0, 69, 60
1, 143142, Note_off_c, 0, 76, 60
1, 143175, Note_on_c, 0, 71, 74
1, 143189, Note_on_c, 0, 61, 45
1, 143211, Note_on_c, 0, 64, 16
1, 143214, Note_off_c, 0, 73, 60
1, 143231, Note_off_c, 0, 61, 56
1, 143258, Note_off_c, 0, 64, 55
1, 143279, Note_on_c, 0, 69, 68
1, 143284, Note_off_c, 0, 71, 62
1, 143326, Note_off_c, 0, 69, 60
1, 143406, Control_c, 0, 64, 95
1, 143420, Control_c, 0, 64, 74
1, 143421, Note_on_c, 0, 52, 42
1, 143435, Control_c, 0, 64, 51
1, 143450, Control_c, 0, 64, 0
1, 143469, Note_on_c, 0, 78, 61
1, 143492, Note_on_c, 0, 69, 55
1, 143509, Control_c, 0, 64, 64
1, 143525, Control_c, 0, 64, 74
1, 143534, Note_off_c, 0, 69, 61
1, 143540, Control_c, 0, 64, 87
1, 143555, Note_off_c, 0, 78, 63
1, 143555, Control_c, 0, 64, 116
1, 143570, Control_c, 0, 64, 127
1, 143591, Note_off_c, 0, 52, 33
1, 143770, Control_c, 0, 64, 108
1, 143777, Note_on_c, 0, 59, 52
1, 143785, Control_c, 0, 64, 84
1, 143791, Note_on_c, 0, 64, 43
1, 143799, Control_c, 0, 64, 63
1, 143805, Note_on_c, 0, 62, 39
1, 143814, Control_c, 0, 64, 0
1, 143825, Note_off_c, 0, 59, 59
1, 143836, Note_off_c, 0, 62, 55
1, 143836, Note_off_c, 0, 64, 62
1, 144036, Note_on_c, 0, 76, 61
1, 144037, Note_on_c, 0, 59, 56
1, 144043, Note_on_c, 0, 68, 50
1, 144072, Note_off_c, 0, 59, 64
1, 144265, Note_on_c, 0, 40, 52
1, 144273, Control_c, 0, 64, 63
1, 144288, Control_c, 0, 64, 75
1, 144300, Note_off_c, 0, 40, 64
1, 144303, Control_c, 0, 64, 97
1, 144319, Control_c, 0, 64, 127
1, 144351, Note_off_c, 0, 76, 44
1, 144401, Note_off_c, 0, 68, 36
1, 144504, Control_c, 0, 64, 106
1, 144519, Control_c, 0, 64, 84
1, 144534, Control_c, 0, 64, 67
1, 144540, Note_on_c, 0, 78, 64
1, 144548, Control_c, 0, 64, 0
1, 144550, Note_on_c, 0, 59, 51
1, 144555, Note_on_c, 0, 69, 53
1, 144579, Note_on_c, 0, 64, 30
1, 144591, Note_off_c, 0, 59, 61
1, 144597, Note_off_c, 0, 69, 58
1, 144606, Note_off_c, 0, 78, 60
1, 144612, Note_off_c, 0, 64, 51
1, 144628, Poly_aftertouch_c, 0, 62, 0
1, 144814, Control_c, 0, 67, 124
1, 144823, Note_on_c, 0, 80, 50
1, 144829, Control_c, 0, 67, 118
1, 144832, Note_on_c, 0, 71, 54
1, 144844, Control_c, 0, 67, 113
1, 144845, Note_on_c, 0, 59, 42
1, 144850, Note_on_c, 0, 64, 31
1, 144851, Note_on_c, 0, 62, 21
1, 144859, Control_c, 0, 67, 109
1, 144871, Note_off_c, 0, 71, 61
1, 144874, Control_c, 0, 67, 104
1, 144883, Note_off_c, 0, 64, 57
1, 144886, Note_off_c, 0, 59, 62
1, 144888, Note_off_c, 0, 62, 54
1, 144889, Control_c, 0, 67, 97
1, 144904, Control_c, 0, 67, 88
1, 144904, Note_off_c, 0, 80, 56
1, 144919, Control_c, 0, 67, 78
1, 144934, Control_c, 0, 67, 68
1, 144948, Control_c, 0, 67, 59
1, 144963, Control_c, 0, 67, 50
1, 144978, Control_c, 0, 67, 41
1, 144993, Control_c, 0, 67, 33
1, 145008, Control_c, 0, 64, 36
1, 145008, Control_c, 0, 67, 24
1, 145022, Control_c, 0, 64, 52
1, 145022, Control_c, 0, 67, 18
1, 145037, Control_c, 0, 64, 60
1, 145037, Control_c, 0, 67, 12
1, 145052, Control_c, 0, 64, 63
1, 145052, Control_c, 0, 67, 0
1, 145066, Control_c, 0, 64, 65
1, 145081, Control_c, 0, 64, 67
1, 145096, Control_c, 0, 64, 70
1, 145112, Control_c, 0, 64, 72
1, 145127, Control_c, 0, 64, 75
1, 145139, Note_on_c, 0, 81, 51
1, 145142, Control_c, 0, 64, 80
1, 145154, Note_on_c, 0, 73, 45
1, 145157, Control_c, 0, 64, 88
1, 145166, Note_on_c, 0, 45, 43
1, 145171, Control_c, 0, 64, 99
1, 145186, Control_c, 0, 64, 123
1, 145201, Control_c, 0, 64, 127
1, 145207, Note_off_c, 0, 81, 62
1, 145228, Note_off_c, 0, 45, 61
1, 145231, Note_off_c, 0, 73, 63
1, 145554, Note_on_c, 0, 57, 37
1, 145560, Note_on_c, 0, 61, 36
1, 145607, Note_off_c, 0, 57, 57
1, 145662, Note_off_c, 0, 61, 37
1, 145831, Note_on_c, 0, 61, 30
1, 145845, Note_on_c, 0, 64, 20
1, 145855, Note_on_c, 0, 76, 58
1, 145864, Note_on_c, 0, 69, 46
1, 145881, Note_on_c, 0, 73, 43
1, 145889, Note_off_c, 0, 64, 44
1, 145892, Note_off_c, 0, 61, 56
1, 146047, Control_c, 0, 64, 101
1, 146062, Control_c, 0, 64, 78
1, 146076, Control_c, 0, 64, 60
1, 146091, Control_c, 0, 64, 47
1, 146105, Note_on_c, 0, 45, 43
1, 146106, Control_c, 0, 64, 62
1, 146120, Control_c, 0, 64, 68
1, 146135, Control_c, 0, 64, 78
1, 146143, Note_off_c, 0, 69, 58
1, 146150, Control_c, 0, 64, 94
1, 146165, Control_c, 0, 64, 127
1, 146180, Note_off_c, 0, 45, 63
1, 146205, Note_off_c, 0, 76, 56
1, 146245, Note_off_c, 0, 73, 44
1, 146396, Note_on_c, 0, 73, 70
1, 146408, Note_on_c, 0, 61, 41
1, 146412, Note_on_c, 0, 57, 36
1, 146415, Note_on_c, 0, 64, 23
1, 146512, Note_off_c, 0, 57, 51
1, 146524, Note_on_c, 0, 76, 76
1, 146537, Note_off_c, 0, 64, 48
1, 146558, Note_off_c, 0, 73, 63
1, 146565, Note_off_c, 0, 61, 40
1, 146639, Note_on_c, 0, 75, 72
1, 146661, Note_on_c, 0, 64, 45
1, 146673, Note_on_c, 0, 57, 41
1, 146684, Note_on_c, 0, 61, 45
1, 146702, Note_off_c, 0, 64, 63
1, 146723, Note_off_c, 0, 61, 61
1, 146733, Note_off_c, 0, 57, 58
1, 146757, Note_off_c, 0, 76, 54
1, 146759, Note_on_c, 0, 73, 81
1, 146811, Note_off_c, 0, 75, 60
1, 146877, Note_off_c, 0, 73, 60
1, 146921, Note_on_c, 0, 49, 57
1, 146943, Control_c, 0, 64, 89
1, 146958, Control_c, 0, 64, 68
1, 146973, Control_c, 0, 64, 0
1, 146979, Note_on_c, 0, 73, 80
1, 147032, Control_c, 0, 64, 43
1, 147047, Control_c, 0, 64, 66
1, 147062, Control_c, 0, 64, 78
1, 147076, Control_c, 0, 64, 98
1, 147089, Note_off_c, 0, 49, 63
1, 147091, Control_c, 0, 64, 127
1, 147240, Note_off_c, 0, 73, 53
1, 147333, Note_on_c, 0, 56, 40
1, 147345, Note_on_c, 0, 65, 39
1, 147349, Note_on_c, 0, 61, 37
1, 147403, Note_off_c, 0, 56, 54
1, 147411, Note_off_c, 0, 65, 54
1, 147442, Note_off_c, 0, 61, 36
1, 147651, Note_on_c, 0, 73, 66
1, 147661, Note_on_c, 0, 56, 47
1, 147666, Note_on_c, 0, 65, 26
1, 147694, Note_on_c, 0, 61, 31
1, 147706, Note_off_c, 0, 65, 44
1, 147730, Note_off_c, 0, 61, 57
1, 147744, Note_off_c, 0, 56, 63
1, 147855, Control_c, 0, 64, 121
1, 147870, Control_c, 0, 64, 84
1, 147884, Control_c, 0, 64, 64
1, 147885, Note_on_c, 0, 49, 64
1, 147899, Control_c, 0, 64, 46
1, 147914, Control_c, 0, 64, 59
1, 147922, Note_off_c, 0, 73, 61
1, 147929, Control_c, 0, 64, 66
1, 147944, Control_c, 0, 64, 76
1, 147958, Control_c, 0, 64, 98
1, 147973, Control_c, 0, 64, 127
1, 147984, Note_off_c, 0, 49, 61
1, 148007, Note_on_c, 0, 73, 6
1, 148067, Note_off_c, 0, 73, 49
1, 148126, Note_on_c, 0, 80, 74
1, 148141, Note_on_c, 0, 73, 77
1, 148156, Note_on_c, 0, 56, 48
1, 148168, Note_on_c, 0, 61, 41
1, 148177, Note_on_c, 0, 65, 37
1, 148246, Note_on_c, 0, 77, 75
1, 148252, Note_off_c, 0, 56, 48
1, 148260, Note_off_c, 0, 65, 49
1, 148283, Note_off_c, 0, 73, 57
1, 148291, Note_off_c, 0, 61, 34
1, 148347, Note_off_c, 0, 80, 39
1, 148356, Note_on_c, 0, 75, 79
1, 148384, Note_on_c, 0, 56, 55
1, 148387, Note_on_c, 0, 61, 36
1, 148392, Note_off_c, 0, 77, 61
1, 148420, Note_off_c, 0, 61, 57
1, 148441, Note_off_c, 0, 56, 61
1, 148461, Note_on_c, 0, 73, 83
1, 148498, Note_off_c, 0, 75, 60
1, 148527, Note_off_c, 0, 73, 61
1, 148589, Control_c, 0, 64, 107
1, 148604, Control_c, 0, 64, 79
1, 148619, Control_c, 0, 64, 55
1, 148627, Note_on_c, 0, 80, 74
1, 148633, Note_on_c, 0, 73, 76
1, 148633, Control_c, 0, 64, 0
1, 148635, Note_on_c, 0, 78, 77
1, 148645, Note_on_c, 0, 44, 60
1, 148663, Control_c, 0, 64, 42
1, 148678, Control_c, 0, 64, 67
1, 148693, Control_c, 0, 64, 85
1, 148706, Note_off_c, 0, 44, 59
1, 148708, Control_c, 0, 64, 127
1, 148722, Note_off_c, 0, 73, 61
1, 148738, Note_off_c, 0, 80, 62
1, 148750, Note_off_c, 0, 78, 61
1, 148988, Note_on_c, 0, 66, 50
1, 148993, Note_on_c, 0, 56, 51
1, 148996, Note_on_c, 0, 63, 51
1, 149034, Note_off_c, 0, 56, 60
1, 149040, Note_off_c, 0, 66, 59
1, 149042, Note_off_c, 0, 63, 60
1, 149101, Control_c, 0, 64, 101
1, 149116, Control_c, 0, 64, 81
1, 149131, Control_c, 0, 64, 67
1, 149146, Control_c, 0, 64, 29
1, 149161, Control_c, 0, 64, 0
1, 149242, Note_on_c, 0, 80, 75
1, 149246, Note_on_c, 0, 78, 75
1, 149252, Note_on_c, 0, 72, 69
1, 149259, Note_on_c, 0, 56, 56
1, 149260, Note_on_c, 0, 66, 45
1, 149266, Note_on_c, 0, 63, 48
1, 149287, Note_off_c, 0, 66, 55
1, 149299, Note_off_c, 0, 63, 64
1, 149319, Note_off_c, 0, 56, 63
1, 149475, Note_off_c, 0, 72, 61
1, 149484, Note_on_c, 0, 44, 60
1, 149486, Control_c, 0, 64, 65
1, 149501, Control_c, 0, 64, 88
1, 149516, Control_c, 0, 64, 127
1, 149524, Note_off_c, 0, 44, 63
1, 149533, Note_off_c, 0, 78, 55
1, 149728, Note_on_c, 0, 82, 86
1, 149742, Note_on_c, 0, 73, 77
1, 149744, Note_on_c, 0, 56, 64
1, 149745, Control_c, 0, 64, 112
1, 149751, Note_on_c, 0, 66, 55
1, 149754, Note_on_c, 0, 78, 72
1, 149758, Note_on_c, 0, 63, 56
1, 149760, Control_c, 0, 64, 81
1, 149775, Control_c, 0, 64, 55
1, 149787, Note_off_c, 0, 80, 63
1, 149789, Note_off_c, 0, 56, 57
1, 149790, Control_c, 0, 64, 0
1, 149793, Note_off_c, 0, 73, 63
1, 149802, Note_off_c, 0, 78, 59
1, 149810, Note_off_c, 0, 66, 54
1, 149820, Note_off_c, 0, 82, 62
1, 149825, Note_off_c, 0, 63, 56
1, 150004, Note_on_c, 0, 84, 83
1, 150013, Note_on_c, 0, 56, 62
1, 150015, Note_on_c, 0, 78, 78
1, 150016, Note_on_c, 0, 75, 74
1, 150028, Note_on_c, 0, 63, 56
1, 150035, Note_on_c, 0, 66, 23
1, 150049, Note_off_c, 0, 78, 63
1, 150060, Note_off_c, 0, 63, 64
1, 150074, Note_off_c, 0, 66, 44
1, 150080, Note_off_c, 0, 84, 63
1, 150081, Note_off_c, 0, 56, 63
1, 150082, Note_off_c, 0, 75, 52
1, 150269, Note_on_c, 0, 85, 81
1, 150279, Control_c, 0, 64, 63
1, 150283, Note_on_c, 0, 77, 68
1, 150284, Note_on_c, 0, 73, 67
1, 150290, Note_on_c, 0, 49, 54
1, 150294, Control_c, 0, 64, 77
1, 150309, Control_c, 0, 64, 127
1, 150328, Note_off_c, 0, 49, 60
1, 150333, Note_off_c, 0, 73, 58
1, 150348, Note_off_c, 0, 85, 63
1, 150350, Note_off_c, 0, 77, 61
1, 150609, Note_on_c, 0, 65, 46
1, 150613, Note_on_c, 0, 56, 48
1, 150623, Note_on_c, 0, 61, 48
1, 150681, Note_off_c, 0, 56, 58
1, 150690, Note_off_c, 0, 61, 51
1, 150693, Note_off_c, 0, 65, 55
1, 150840, Note_on_c, 0, 80, 75
1, 150854, Note_on_c, 0, 73, 66
1, 150855, Note_on_c, 0, 77, 68
1, 150863, Note_on_c, 0, 56, 56
1, 150866, Control_c, 0, 64, 102
1, 150872, Note_on_c, 0, 61, 41
1, 150879, Note_on_c, 0, 65, 12
1, 150881, Control_c, 0, 64, 80
1, 150896, Control_c, 0, 64, 59
1, 150909, Note_off_c, 0, 61, 56
1, 150910, Control_c, 0, 64, 0
1, 150910, Note_off_c, 0, 65, 43
1, 150928, Note_off_c, 0, 56, 62
1, 151073, Control_c, 0, 64, 47
1, 151080, Note_on_c, 0, 49, 69
1, 151088, Control_c, 0, 64, 70
1, 151101, Note_off_c, 0, 77, 61
1, 151102, Control_c, 0, 64, 91
1, 151106, Note_off_c, 0, 73, 59
1, 151107, Note_off_c, 0, 80, 59
1, 151117, Control_c, 0, 64, 127
1, 151119, Note_off_c, 0, 49, 61
1, 151331, Note_on_c, 0, 80, 78
1, 151342, Note_on_c, 0, 73, 73
1, 151350, Note_on_c, 0, 56, 46
1, 151367, Note_on_c, 0, 65, 38
1, 151374, Note_on_c, 0, 61, 38
1, 151440, Note_on_c, 0, 77, 74
1, 151443, Note_off_c, 0, 56, 52
1, 151444, Note_off_c, 0, 65, 50
1, 151469, Note_off_c, 0, 73, 57
1, 151488, Note_off_c, 0, 61, 33
1, 151545, Note_on_c, 0, 75, 81
1, 151567, Note_on_c, 0, 56, 59
1, 151580, Note_on_c, 0, 61, 26
1, 151590, Note_off_c, 0, 77, 59
1, 151597, Note_off_c, 0, 80, 47
1, 151613, Note_off_c, 0, 56, 61
1, 151625, Note_off_c, 0, 61, 40
1, 151647, Note_on_c, 0, 73, 85
1, 151680, Note_off_c, 0, 75, 61
1, 151711, Note_off_c, 0, 73, 59
1, 151733, Control_c, 0, 64, 87
1, 151748, Control_c, 0, 64, 65
1, 151763, Control_c, 0, 64, 0
1, 151787, Note_on_c, 0, 80, 74
1, 151799, Note_on_c, 0, 78, 71
1, 151802, Note_on_c, 0, 73, 75
1, 151803, Note_on_c, 0, 44, 64
1, 151807, Control_c, 0, 64, 32
1, 151822, Control_c, 0, 64, 67
1, 151837, Control_c, 0, 64, 86
1, 151838, Note_off_c, 0, 44, 63
1, 151851, Control_c, 0, 64, 127
1, 151879, Note_off_c, 0, 73, 61
1, 151910, Note_off_c, 0, 80, 59
1, 151930, Note_off_c, 0, 78, 61
1, 152103, Note_on_c, 0, 56, 49
1, 152111, Note_on_c, 0, 63, 47
1, 152113, Note_on_c, 0, 66, 53
1, 152146, Note_off_c, 0, 56, 61
1, 152156, Note_off_c, 0, 66, 59
1, 152168, Note_off_c, 0, 63, 54
1, 152319, Control_c, 0, 64, 113
1, 152334, Control_c, 0, 64, 85
1, 152338, Note_on_c, 0, 80, 78
1, 152348, Control_c, 0, 64, 63
1, 152350, Note_on_c, 0, 78, 70
1, 152351, Note_on_c, 0, 72, 67
1, 152359, Note_on_c, 0, 56, 52
1, 152363, Control_c, 0, 64, 0
1, 152368, Note_on_c, 0, 66, 31
1, 152370, Note_on_c, 0, 63, 46
1, 152396, Note_off_c, 0, 63, 61
1, 152401, Note_off_c, 0, 66, 54
1, 152417, Note_off_c, 0, 56, 63
1, 152550, Note_off_c, 0, 72, 60
1, 152571, Control_c, 0, 64, 67
1, 152574, Note_on_c, 0, 44, 60
1, 152586, Control_c, 0, 64, 83
1, 152600, Control_c, 0, 64, 127
1, 152612, Note_off_c, 0, 78, 56
1, 152613, Note_off_c, 0, 44, 60
1, 152649, Note_off_c, 0, 80, 61
1, 152829, Control_c, 0, 64, 102
1, 152837, Note_on_c, 0, 82, 82
1, 152844, Control_c, 0, 64, 77
1, 152855, Note_on_c, 0, 73, 64
1, 152859, Control_c, 0, 64, 54
1, 152866, Note_on_c, 0, 56, 41
1, 152872, Note_on_c, 0, 78, 54
1, 152874, Control_c, 0, 64, 0
1, 152878, Note_on_c, 0, 66, 34
1, 152887, Note_on_c, 0, 63, 38
1, 152888, Control_c, 0, 64, 43
1, 152903, Control_c, 0, 64, 65
1, 152918, Control_c, 0, 64, 81
1, 152920, Note_off_c, 0, 56, 54
1, 152933, Control_c, 0, 64, 110
1, 152948, Control_c, 0, 64, 127
1, 152970, Note_off_c, 0, 73, 55
1, 152994, Note_off_c, 0, 78, 54
1, 153012, Note_off_c, 0, 82, 61
1, 153018, Note_off_c, 0, 63, 34
1, 153058, Note_off_c, 0, 66, 33
1, 153095, Control_c, 0, 64, 90
1, 153097, Note_on_c, 0, 84, 87
1, 153111, Control_c, 0, 64, 64
1, 153112, Note_on_c, 0, 75, 76
1, 153119, Note_on_c, 0, 78, 62
1, 153126, Control_c, 0, 64, 0
1, 153137, Note_on_c, 0, 56, 45
1, 153150, Note_on_c, 0, 63, 44
1, 153156, Control_c, 0, 64, 57
1, 153171, Control_c, 0, 64, 70
1, 153185, Control_c, 0, 64, 88
1, 153187, Note_off_c, 0, 78, 50
1, 153189, Note_off_c, 0, 63, 61
1, 153200, Control_c, 0, 64, 127
1, 153224, Note_off_c, 0, 75, 53
1, 153227, Note_off_c, 0, 84, 66
1, 153231, Note_off_c, 0, 56, 59
1, 153393, Control_c, 0, 64, 106
1, 153405, Note_on_c, 0, 85, 80
1, 153408, Control_c, 0, 64, 78
1, 153422, Control_c, 0, 64, 34
1, 153427, Note_on_c, 0, 73, 61
1, 153432, Note_on_c, 0, 77, 56
1, 153437, Control_c, 0, 64, 0
1, 153446, Note_on_c, 0, 49, 50
1, 153518, Control_c, 0, 64, 17
1, 153533, Control_c, 0, 64, 64
1, 153548, Control_c, 0, 64, 78
1, 153563, Control_c, 0, 64, 102
1, 153563, Note_off_c, 0, 49, 59
1, 153577, Control_c, 0, 64, 127
1, 153705, Note_off_c, 0, 85, 63
1, 153720, Note_off_c, 0, 73, 51
1, 153748, Note_off_c, 0, 77, 48
1, 153796, Note_on_c, 0, 56, 43
1, 153808, Note_on_c, 0, 61, 35
1, 153810, Note_on_c, 0, 65, 39
1, 153894, Note_off_c, 0, 56, 57
1, 153912, Note_off_c, 0, 65, 48
1, 153942, Note_off_c, 0, 61, 37
1, 154060, Note_on_c, 0, 80, 73
1, 154082, Note_on_c, 0, 56, 44
1, 154086, Note_on_c, 0, 73, 53
1, 154097, Note_on_c, 0, 77, 44
1, 154118, Poly_aftertouch_c, 0, 61, 127
1, 154124, Note_off_c, 0, 56, 63
1, 154167, Poly_aftertouch_c, 0, 61, 0
1, 154267, Control_c, 0, 64, 105
1, 154267, Control_c, 0, 67, 8
1, 154282, Control_c, 0, 64, 80
1, 154282, Control_c, 0, 67, 9
1, 154297, Control_c, 0, 64, 59
1, 154297, Control_c, 0, 67, 11
1, 154312, Control_c, 0, 64, 0
1, 154312, Control_c, 0, 67, 13
1, 154327, Control_c, 0, 67, 14
1, 154330, Note_on_c, 0, 49, 58
1, 154341, Control_c, 0, 67, 14
1, 154356, Control_c, 0, 67, 15
1, 154369, Note_off_c, 0, 77, 52
1, 154371, Control_c, 0, 64, 50
1, 154371, Control_c, 0, 67, 16
1, 154386, Control_c, 0, 64, 68
1, 154386, Control_c, 0, 67, 18
1, 154401, Control_c, 0, 64, 83
1, 154401, Control_c, 0, 67, 19
1, 154416, Control_c, 0, 64, 121
1, 154416, Control_c, 0, 67, 21
1, 154419, Note_off_c, 0, 49, 61
1, 154431, Control_c, 0, 64, 127
1, 154431, Control_c, 0, 67, 23
1, 154446, Control_c, 0, 67, 24
1, 154454, Note_off_c, 0, 73, 35
1, 154460, Control_c, 0, 67, 25
1, 154475, Control_c, 0, 67, 26
1, 154490, Control_c, 0, 67, 27
1, 154505, Control_c, 0, 67, 29
1, 154520, Control_c, 0, 67, 31
1, 154534, Control_c, 0, 67, 33
1, 154549, Control_c, 0, 67, 35
1, 154564, Control_c, 0, 67, 37
1, 154578, Control_c, 0, 67, 39
1, 154593, Control_c, 0, 67, 42
1, 154608, Control_c, 0, 67, 44
1, 154612, Note_off_c, 0, 80, 60
1, 154623, Control_c, 0, 67, 46
1, 154637, Note_on_c, 0, 61, 32
1, 154638, Control_c, 0, 67, 49
1, 154639, Note_on_c, 0, 65, 29
1, 154640, Note_on_c, 0, 56, 33
1, 154652, Note_on_c, 0, 85, 75
1, 154652, Control_c, 0, 67, 52
1, 154667, Control_c, 0, 67, 55
1, 154682, Control_c, 0, 67, 58
1, 154684, Note_on_c, 0, 77, 52
1, 154689, Note_on_c, 0, 73, 47
1, 154698, Control_c, 0, 67, 61
1, 154708, Note_off_c, 0, 56, 49
1, 154713, Control_c, 0, 67, 63
1, 154728, Control_c, 0, 67, 65
1, 154743, Control_c, 0, 67, 68
1, 154757, Control_c, 0, 67, 70
1, 154758, Note_off_c, 0, 61, 31
1, 154772, Control_c, 0, 67, 73
1, 154777, Note_off_c, 0, 65, 34
1, 154787, Control_c, 0, 67, 77
1, 154802, Control_c, 0, 67, 80
1, 154817, Control_c, 0, 67, 83
1, 154831, Control_c, 0, 67, 85
1, 154841, Note_off_c, 0, 73, 54
1, 154846, Control_c, 0, 67, 88
1, 154857, Note_off_c, 0, 77, 57
1, 154861, Control_c, 0, 67, 91
1, 154863, Note_off_c, 0, 85, 57
1, 154875, Control_c, 0, 67, 93
1, 154890, Control_c, 0, 67, 96
1, 154905, Control_c, 0, 67, 98
1, 154920, Control_c, 0, 67, 101
1, 154935, Control_c, 0, 67, 103
1, 154950, Control_c, 0, 67, 105
1, 154953, Note_on_c, 0, 56, 43
1, 154964, Control_c, 0, 67, 107
1, 154987, Control_c, 0, 67, 111
1, 154999, Note_on_c, 0, 85, 68
1, 155001, Control_c, 0, 67, 113
1, 155016, Poly_aftertouch_c, 0, 61, 127
1, 155016, Control_c, 0, 67, 116
1, 155021, Note_off_c, 0, 56, 51
1, 155027, Note_on_c, 0, 73, 52
1, 155031, Control_c, 0, 67, 119
1, 155036, Note_on_c, 0, 77, 44
1, 155046, Control_c, 0, 67, 122
1, 155061, Control_c, 0, 67, 125
1, 155062, Poly_aftertouch_c, 0, 61, 0
1, 155075, Control_c, 0, 67, 127
1, 155090, Control_c, 0, 67, 127
1, 155146, Note_off_c, 0, 77, 44
1, 155158, Note_off_c, 0, 85, 56
1, 155172, Note_off_c, 0, 73, 32
1, 155416, Control_c, 0, 64, 100
1, 155431, Note_on_c, 0, 85, 72
1, 155431, Control_c, 0, 64, 82
1, 155446, Control_c, 0, 64, 66
1, 155457, Note_on_c, 0, 79, 50
1, 155461, Note_on_c, 0, 73, 46
1, 155461, Control_c, 0, 64, 0
1, 155469, Note_on_c, 0, 45, 41
1, 155521, Control_c, 0, 64, 61
1, 155536, Control_c, 0, 64, 73
1, 155551, Control_c, 0, 64, 90
1, 155560, Note_off_c, 0, 45, 59
1, 155566, Control_c, 0, 64, 127
1, 155775, Note_off_c, 0, 73, 34
1, 155796, Note_off_c, 0, 79, 36
1, 155801, Note_off_c, 0, 85, 39
1, 155889, Note_on_c, 0, 55, 41
1, 155892, Note_on_c, 0, 61, 34
1, 155906, Note_on_c, 0, 64, 36
1, 155934, Note_off_c, 0, 55, 59
1, 155947, Note_off_c, 0, 61, 57
1, 155948, Note_off_c, 0, 64, 63
1, 156150, Control_c, 0, 64, 101
1, 156165, Control_c, 0, 64, 82
1, 156180, Control_c, 0, 64, 65
1, 156183, Note_on_c, 0, 85, 54
1, 156195, Control_c, 0, 64, 0
1, 156201, Note_on_c, 0, 73, 41
1, 156202, Note_on_c, 0, 79, 47
1, 156205, Note_on_c, 0, 55, 35
1, 156210, Note_on_c, 0, 64, 18
1, 156242, Note_off_c, 0, 64, 46
1, 156244, Note_off_c, 0, 55, 63
1, 156276, Poly_aftertouch_c, 0, 61, 0
1, 156433, Control_c, 0, 64, 55
1, 156446, Note_on_c, 0, 45, 50
1, 156447, Control_c, 0, 64, 70
1, 156462, Control_c, 0, 64, 86
1, 156485, Control_c, 0, 64, 127
1, 156487, Note_off_c, 0, 45, 64
1, 156506, Note_off_c, 0, 73, 54
1, 156506, Note_off_c, 0, 79, 49
1, 156527, Note_off_c, 0, 85, 45
1, 156708, Note_on_c, 0, 85, 59
1, 156718, Note_on_c, 0, 79, 56
1, 156729, Note_on_c, 0, 55, 38
1, 156742, Note_on_c, 0, 61, 36
1, 156753, Note_on_c, 0, 64, 24
1, 156766, Control_c, 0, 64, 96
1, 156780, Control_c, 0, 64, 82
1, 156788, Note_off_c, 0, 55, 55
1, 156795, Control_c, 0, 64, 77
1, 156799, Note_off_c, 0, 61, 49
1, 156800, Note_off_c, 0, 64, 49
1, 156810, Control_c, 0, 64, 79
1, 156825, Control_c, 0, 64, 87
1, 156831, Note_off_c, 0, 79, 54
1, 156839, Note_on_c, 0, 83, 57
1, 156840, Control_c, 0, 64, 96
1, 156854, Control_c, 0, 64, 113
1, 156869, Control_c, 0, 64, 127
1, 156892, Note_off_c, 0, 85, 53
1, 156944, Note_on_c, 0, 55, 49
1, 156945, Note_off_c, 0, 83, 61
1, 156951, Note_on_c, 0, 81, 57
1, 156960, Note_on_c, 0, 61, 28
1, 156989, Note_off_c, 0, 55, 59
1, 157000, Note_off_c, 0, 61, 43
1, 157021, Note_off_c, 0, 81, 64
1, 157038, Note_on_c, 0, 79, 63
1, 157063, Note_off_c, 0, 79, 67
1, 157119, Note_on_c, 0, 78, 56
1, 157195, Note_on_c, 0, 85, 59
1, 157210, Note_off_c, 0, 78, 47
1, 157211, Control_c, 0, 64, 101
1, 157233, Control_c, 0, 64, 85
1, 157248, Control_c, 0, 64, 70
1, 157263, Control_c, 0, 64, 47
1, 157277, Control_c, 0, 64, 0
1, 157313, Note_on_c, 0, 90, 58
1, 157329, Note_on_c, 0, 38, 42
1, 157335, Note_off_c, 0, 85, 63
1, 157337, Control_c, 0, 64, 31
1, 157351, Control_c, 0, 64, 64
1, 157360, Note_off_c, 0, 90, 64
1, 157366, Control_c, 0, 64, 74
1, 157381, Control_c, 0, 64, 90
1, 157385, Note_off_c, 0, 38, 57
1, 157395, Control_c, 0, 64, 127
1, 157662, Control_c, 0, 64, 126
1, 157677, Control_c, 0, 64, 88
1, 157680, Note_on_c, 0, 54, 46
1, 157692, Control_c, 0, 64, 68
1, 157707, Control_c, 0, 64, 0
1, 157716, Note_on_c, 0, 62, 41
1, 157717, Note_on_c, 0, 66, 40
1, 157726, Note_off_c, 0, 54, 61
1, 157749, Note_off_c, 0, 66, 59
1, 157763, Note_off_c, 0, 62, 59
1, 157954, Note_on_c, 0, 90, 64
1, 157979, Note_on_c, 0, 59, 48
1, 157981, Note_on_c, 0, 83, 47
1, 157990, Note_on_c, 0, 66, 27
1, 157993, Note_on_c, 0, 78, 42
1, 158020, Note_off_c, 0, 59, 62
1, 158023, Note_off_c, 0, 66, 46
1, 158205, Note_off_c, 0, 83, 64
1, 158205, Control_c, 0, 64, 62
1, 158211, Note_on_c, 0, 50, 54
1, 158217, Note_off_c, 0, 78, 62
1, 158220, Control_c, 0, 64, 75
1, 158234, Control_c, 0, 64, 97
1, 158236, Note_off_c, 0, 90, 63
1, 158240, Note_off_c, 0, 50, 67
1, 158249, Control_c, 0, 64, 127
1, 158456, Control_c, 0, 64, 108
1, 158460, Note_on_c, 0, 90, 68
1, 158471, Control_c, 0, 64, 84
1, 158475, Note_on_c, 0, 83, 52
1, 158480, Note_on_c, 0, 66, 36
1, 158486, Control_c, 0, 64, 65
1, 158491, Note_on_c, 0, 62, 37
1, 158500, Control_c, 0, 64, 0
1, 158513, Note_off_c, 0, 66, 54
1, 158537, Note_off_c, 0, 62, 57
1, 158567, Note_on_c, 0, 93, 70
1, 158568, Note_off_c, 0, 90, 64
1, 158670, Note_on_c, 0, 92, 73
1, 158696, Note_on_c, 0, 66, 34
1, 158697, Note_on_c, 0, 62, 41
1, 158733, Note_off_c, 0, 62, 61
1, 158735, Note_off_c, 0, 66, 49
1, 158738, Note_off_c, 0, 83, 58
1, 158743, Note_off_c, 0, 93, 56
1, 158783, Note_on_c, 0, 90, 70
1, 158822, Note_off_c, 0, 92, 62
1, 158857, Note_off_c, 0, 90, 62
1, 158906, Note_on_c, 0, 88, 69
1, 158926, Note_on_c, 0, 83, 52
1, 158936, Note_on_c, 0, 52, 38
1, 158938, Control_c, 0, 64, 61
1, 158953, Note_off_c, 0, 83, 62
1, 158953, Control_c, 0, 64, 72
1, 158968, Control_c, 0, 64, 86
1, 158969, Note_off_c, 0, 88, 64
1, 158983, Control_c, 0, 64, 127
1, 159014, Note_off_c, 0, 52, 52
1, 159175, Control_c, 0, 64, 95
1, 159187, Note_on_c, 0, 61, 49
1, 159190, Control_c, 0, 64, 70
1, 159199, Note_on_c, 0, 64, 43
1, 159205, Control_c, 0, 64, 0
1, 159224, Note_off_c, 0, 61, 62
1, 159238, Note_off_c, 0, 64, 64
1, 159436, Note_on_c, 0, 88, 57
1, 159444, Note_on_c, 0, 81, 52
1, 159451, Note_on_c, 0, 61, 54
1, 159456, Note_on_c, 0, 64, 25
1, 159489, Note_off_c, 0, 61, 64
1, 159504, Note_off_c, 0, 64, 43
1, 159677, Note_on_c, 0, 40, 57
1, 159687, Control_c, 0, 64, 58
1, 159698, Note_off_c, 0, 81, 62
1, 159698, Note_off_c, 0, 88, 64
1, 159702, Control_c, 0, 64, 71
1, 159716, Note_off_c, 0, 40, 63
1, 159717, Control_c, 0, 64, 87
1, 159732, Control_c, 0, 64, 127
1, 159960, Note_on_c, 0, 76, 73
1, 159981, Note_on_c, 0, 69, 56
1, 159988, Note_on_c, 0, 61, 44
1, 159988, Note_on_c, 0, 64, 42
1, 160038, Note_off_c, 0, 61, 53
1, 160058, Note_off_c, 0, 64, 50
1, 160073, Note_on_c, 0, 73, 71
1, 160107, Note_off_c, 0, 69, 59
1, 160151, Note_off_c, 0, 76, 56
1, 160161, Control_c, 0, 67, 119
1, 160176, Note_on_c, 0, 61, 55
1, 160176, Control_c, 0, 67, 108
1, 160184, Note_on_c, 0, 71, 73
1, 160190, Control_c, 0, 67, 94
1, 160205, Control_c, 0, 67, 80
1, 160223, Note_off_c, 0, 61, 58
1, 160224, Note_off_c, 0, 73, 59
1, 160228, Control_c, 0, 67, 68
1, 160243, Control_c, 0, 67, 57
1, 160258, Control_c, 0, 67, 46
1, 160272, Control_c, 0, 67, 36
1, 160287, Control_c, 0, 67, 29
1, 160300, Note_on_c, 0, 69, 63
1, 160303, Control_c, 0, 67, 23
1, 160310, Note_off_c, 0, 71, 59
1, 160318, Control_c, 0, 67, 16
1, 160333, Control_c, 0, 67, 9
1, 160348, Control_c, 0, 67, 0
1, 160358, Note_off_c, 0, 69, 60
1, 160428, Note_on_c, 0, 52, 44
1, 160451, Control_c, 0, 64, 113
1, 160466, Control_c, 0, 64, 87
1, 160481, Control_c, 0, 64, 69
1, 160495, Note_on_c, 0, 78, 58
1, 160495, Control_c, 0, 64, 0
1, 160517, Note_on_c, 0, 69, 44
1, 160540, Control_c, 0, 64, 42
1, 160555, Control_c, 0, 64, 64
1, 160569, Control_c, 0, 64, 73
1, 160578, Note_off_c, 0, 52, 49
1, 160580, Note_off_c, 0, 69, 60
1, 160584, Control_c, 0, 64, 85
1, 160597, Note_off_c, 0, 78, 62
1, 160599, Control_c, 0, 64, 107
1, 160613, Control_c, 0, 64, 127
1, 160807, Note_on_c, 0, 59, 46
1, 160828, Note_on_c, 0, 62, 35
1, 160828, Note_on_c, 0, 64, 40
1, 160836, Control_c, 0, 64, 102
1, 160847, Note_off_c, 0, 59, 60
1, 160851, Control_c, 0, 64, 78
1, 160860, Note_off_c, 0, 64, 59
1, 160863, Note_off_c, 0, 62, 55
1, 160866, Control_c, 0, 64, 47
1, 160881, Control_c, 0, 64, 0
1, 161072, Note_on_c, 0, 76, 54
1, 161075, Note_on_c, 0, 59, 50
1, 161087, Note_on_c, 0, 68, 50
1, 161111, Note_off_c, 0, 59, 63
1, 161315, Note_on_c, 0, 40, 54
1, 161334, Control_c, 0, 64, 65
1, 161349, Control_c, 0, 64, 79
1, 161350, Note_off_c, 0, 40, 64
1, 161363, Control_c, 0, 64, 104
1, 161378, Control_c, 0, 64, 127
1, 161380, Note_off_c, 0, 76, 53
1, 161409, Note_off_c, 0, 68, 48
1, 161570, Control_c, 0, 64, 103
1, 161585, Control_c, 0, 64, 81
1, 161591, Note_on_c, 0, 78, 56
1, 161600, Control_c, 0, 64, 63
1, 161604, Note_on_c, 0, 69, 53
1, 161611, Note_on_c, 0, 59, 47
1, 161615, Control_c, 0, 64, 0
1, 161621, Note_on_c, 0, 64, 41
1, 161624, Note_on_c, 0, 62, 27
1, 161648, Note_off_c, 0, 59, 62
1, 161651, Note_off_c, 0, 69, 58
1, 161651, Note_off_c, 0, 78, 61
1, 161660, Note_off_c, 0, 64, 57
1, 161660, Note_off_c, 0, 62, 54
1, 161880, Note_on_c, 0, 80, 54
1, 161893, Note_on_c, 0, 71, 50
1, 161904, Note_on_c, 0, 59, 45
1, 161906, Note_on_c, 0, 64, 33
1, 161918, Note_on_c, 0, 62, 4
1, 161934, Note_off_c, 0, 71, 60
1, 161938, Note_off_c, 0, 64, 56
1, 161945, Note_off_c, 0, 59, 62
1, 161955, Note_off_c, 0, 62, 43
1, 162026, Note_off_c, 0, 80, 40
1, 162175, Note_on_c, 0, 81, 48
1, 162197, Note_on_c, 0, 73, 52
1, 162200, Control_c, 0, 64, 43
1, 162206, Note_on_c, 0, 45, 43
1, 162215, Control_c, 0, 64, 65
1, 162230, Control_c, 0, 64, 76
1, 162241, Note_off_c, 0, 73, 61
1, 162241, Note_off_c, 0, 81, 63
1, 162245, Control_c, 0, 64, 90
1, 162259, Control_c, 0, 64, 127
1, 162260, Note_off_c, 0, 45, 50
1, 162579, Note_on_c, 0, 64, 38
1, 162590, Note_on_c, 0, 57, 23
1, 162594, Note_on_c, 0, 61, 37
1, 162643, Note_off_c, 0, 64, 56
1, 162649, Note_off_c, 0, 57, 46
1, 162652, Note_off_c, 0, 61, 51
1, 162912, Note_on_c, 0, 81, 65
1, 162930, Note_on_c, 0, 73, 51
1, 162945, Note_on_c, 0, 64, 14
1, 162949, Note_on_c, 0, 57, 40
1, 162985, Note_off_c, 0, 57, 64
1, 162991, Poly_aftertouch_c, 0, 61, 127
1, 162998, Note_off_c, 0, 64, 54
1, 163026, Poly_aftertouch_c, 0, 61, 0
1, 163141, Control_c, 0, 64, 91
1, 163156, Control_c, 0, 64, 71
1, 163171, Control_c, 0, 64, 60
1, 163178, Note_on_c, 0, 45, 75
1, 163186, Control_c, 0, 64, 63
1, 163201, Control_c, 0, 64, 71
1, 163223, Control_c, 0, 64, 86
1, 163238, Control_c, 0, 64, 127
1, 163241, Note_off_c, 0, 45, 64
1, 163278, Note_off_c, 0, 81, 38
1, 163293, Note_off_c, 0, 73, 60
1, 163565, Note_on_c, 0, 81, 100
1, 163578, Note_on_c, 0, 72, 84
1, 163588, Note_on_c, 0, 57, 59
1, 163593, Note_on_c, 0, 60, 59
1, 163593, Note_on_c, 0, 65, 60
1, 163594, Control_c, 0, 64, 112
1, 163609, Control_c, 0, 64, 92
1, 163624, Control_c, 0, 64, 84
1, 163639, Control_c, 0, 64, 86
1, 163654, Control_c, 0, 64, 100
1, 163669, Control_c, 0, 64, 127
1, 163690, Note_off_c, 0, 72, 58
1, 163720, Note_off_c, 0, 81, 59
1, 163761, Note_off_c, 0, 65, 48
1, 163766, Note_off_c, 0, 57, 50
1, 163842, Note_off_c, 0, 60, 29
1, 163934, Note_on_c, 0, 65, 51
1, 163934, Note_on_c, 0, 57, 55
1, 163934, Note_on_c, 0, 60, 60
1, 163984, Note_off_c, 0, 65, 62
1, 164022, Note_off_c, 0, 57, 61
1, 164022, Note_off_c, 0, 60, 62
1, 164080, Note_on_c, 0, 81, 89
1, 164088, Note_on_c, 0, 72, 82
1, 164130, Note_off_c, 0, 81, 65
1, 164136, Note_off_c, 0, 72, 63
1, 164165, Control_c, 0, 64, 98
1, 164180, Control_c, 0, 64, 69
1, 164184, Note_on_c, 0, 81, 95
1, 164192, Note_on_c, 0, 46, 77
1, 164192, Note_on_c, 0, 72, 85
1, 164195, Control_c, 0, 64, 0
1, 164239, Control_c, 0, 64, 59
1, 164254, Control_c, 0, 64, 76
1, 164261, Note_off_c, 0, 46, 62
1, 164269, Control_c, 0, 64, 127
1, 164485, Note_off_c, 0, 81, 55
1, 164500, Note_off_c, 0, 72, 56
1, 164604, Note_on_c, 0, 55, 52
1, 164612, Note_on_c, 0, 62, 50
1, 164617, Note_on_c, 0, 65, 48
1, 164743, Note_off_c, 0, 55, 58
1, 164757, Note_off_c, 0, 65, 59
1, 164807, Note_off_c, 0, 62, 37
1, 164885, Note_on_c, 0, 79, 93
1, 164892, Note_on_c, 0, 55, 59
1, 164895, Note_on_c, 0, 70, 80
1, 164897, Note_on_c, 0, 65, 37
1, 164906, Note_on_c, 0, 62, 59
1, 164933, Note_off_c, 0, 65, 50
1, 164934, Note_off_c, 0, 62, 64
1, 164967, Note_off_c, 0, 55, 63
1, 165062, Control_c, 0, 64, 113
1, 165077, Control_c, 0, 64, 77
1, 165093, Control_c, 0, 64, 0
1, 165129, Note_on_c, 0, 48, 78
1, 165153, Control_c, 0, 64, 59
1, 165167, Control_c, 0, 64, 77
1, 165182, Control_c, 0, 64, 127
1, 165195, Note_off_c, 0, 48, 63
1, 165218, Note_off_c, 0, 79, 50
1, 165290, Note_off_c, 0, 70, 37
1, 165389, Note_on_c, 0, 79, 94
1, 165389, Note_on_c, 0, 70, 86
1, 165406, Note_on_c, 0, 55, 63
1, 165421, Note_on_c, 0, 58, 54
1, 165426, Note_on_c, 0, 64, 50
1, 165472, Note_off_c, 0, 70, 59
1, 165499, Note_off_c, 0, 79, 59
1, 165541, Note_off_c, 0, 64, 52
1, 165544, Note_on_c, 0, 82, 88
1, 165547, Note_on_c, 0, 74, 91
1, 165585, Note_off_c, 0, 55, 37
1, 165602, Note_off_c, 0, 58, 56
1, 165609, Note_off_c, 0, 82, 61
1, 165609, Note_off_c, 0, 74, 60
1, 165655, Note_on_c, 0, 81, 88
1, 165663, Note_on_c, 0, 72, 88
1, 165678, Note_on_c, 0, 58, 52
1, 165681, Note_on_c, 0, 55, 71
1, 165702, Note_off_c, 0, 72, 66
1, 165705, Note_off_c, 0, 81, 62
1, 165707, Note_off_c, 0, 58, 63
1, 165713, Note_off_c, 0, 55, 66
1, 165726, Poly_aftertouch_c, 0, 64, 127
1, 165757, Note_on_c, 0, 79, 85
1, 165758, Poly_aftertouch_c, 0, 64, 0
1, 165770, Note_on_c, 0, 70, 90
1, 165809, Note_off_c, 0, 79, 61
1, 165809, Control_c, 0, 64, 99
1, 165816, Note_off_c, 0, 70, 63
1, 165824, Control_c, 0, 64, 69
1, 165839, Control_c, 0, 64, 0
1, 165869, Note_on_c, 0, 79, 92
1, 165873, Note_on_c, 0, 70, 86
1, 165878, Note_on_c, 0, 41, 78
1, 165885, Control_c, 0, 64, 41
1, 165900, Control_c, 0, 64, 71
1, 165910, Note_off_c, 0, 41, 66
1, 165914, Control_c, 0, 64, 110
1, 165929, Control_c, 0, 64, 127
1, 166218, Control_c, 0, 64, 106
1, 166223, Note_on_c, 0, 57, 70
1, 166223, Note_on_c, 0, 60, 64
1, 166223, Note_on_c, 0, 65, 74
1, 166232, Control_c, 0, 64, 66
1, 166247, Control_c, 0, 64, 0
1, 166274, Note_off_c, 0, 57, 61
1, 166275, Note_off_c, 0, 65, 62
1, 166305, Note_off_c, 0, 60, 60
1, 166468, Note_off_c, 0, 70, 61
1, 166501, Note_on_c, 0, 77, 86
1, 166509, Note_on_c, 0, 69, 82
1, 166512, Note_on_c, 0, 65, 70
1, 166516, Note_on_c, 0, 60, 71
1, 166518, Note_on_c, 0, 57, 63
1, 166536, Note_off_c, 0, 65, 69
1, 166551, Note_off_c, 0, 79, 49
1, 166571, Note_off_c, 0, 60, 65
1, 166585, Note_off_c, 0, 57, 61
1, 166723, Control_c, 0, 64, 66
1, 166735, Note_on_c, 0, 41, 81
1, 166735, Note_off_c, 0, 69, 62
1, 166737, Control_c, 0, 64, 89
1, 166752, Control_c, 0, 64, 127
1, 166765, Note_off_c, 0, 77, 56
1, 166766, Note_off_c, 0, 41, 65
1, 166975, Note_on_c, 0, 77, 92
1, 166978, Note_on_c, 0, 68, 98
1, 166981, Control_c, 0, 64, 97
1, 166991, Note_on_c, 0, 61, 71
1, 166996, Control_c, 0, 64, 71
1, 166997, Note_on_c, 0, 53, 60
1, 167000, Note_on_c, 0, 56, 64
1, 167011, Control_c, 0, 64, 58
1, 167026, Control_c, 0, 64, 64
1, 167041, Control_c, 0, 64, 74
1, 167052, Note_off_c, 0, 68, 61
1, 167055, Control_c, 0, 64, 97
1, 167060, Note_off_c, 0, 77, 65
1, 167070, Control_c, 0, 64, 127
1, 167093, Note_off_c, 0, 53, 57
1, 167124, Note_off_c, 0, 61, 38
1, 167130, Note_off_c, 0, 56, 48
1, 167235, Note_on_c, 0, 61, 64
1, 167245, Note_on_c, 0, 53, 61
1, 167250, Note_on_c, 0, 56, 73
1, 167267, Note_off_c, 0, 61, 63
1, 167308, Note_off_c, 0, 56, 62
1, 167311, Note_off_c, 0, 53, 65
1, 167376, Note_on_c, 0, 77, 91
1, 167378, Note_on_c, 0, 68, 88
1, 167416, Note_off_c, 0, 77, 66
1, 167428, Note_off_c, 0, 68, 62
1, 167441, Control_c, 0, 64, 103
1, 167455, Control_c, 0, 64, 69
1, 167468, Note_on_c, 0, 77, 97
1, 167470, Note_on_c, 0, 68, 86
1, 167470, Control_c, 0, 64, 0
1, 167482, Note_on_c, 0, 42, 77
1, 167531, Control_c, 0, 64, 54
1, 167546, Note_off_c, 0, 42, 62
1, 167546, Control_c, 0, 64, 71
1, 167560, Control_c, 0, 64, 103
1, 167575, Control_c, 0, 64, 127
1, 167690, Note_off_c, 0, 77, 53
1, 167734, Note_off_c, 0, 68, 56
1, 167833, Note_on_c, 0, 51, 56
1, 167839, Note_on_c, 0, 61, 58
1, 167842, Note_on_c, 0, 58, 56
1, 167946, Note_off_c, 0, 51, 58
1, 167961, Note_off_c, 0, 61, 53
1, 167987, Note_off_c, 0, 58, 53
1, 168059, Note_on_c, 0, 75, 87
1, 168066, Note_on_c, 0, 51, 65
1, 168072, Note_on_c, 0, 66, 79
1, 168077, Note_on_c, 0, 58, 57
1, 168077, Note_on_c, 0, 61, 54
1, 168101, Note_off_c, 0, 61, 60
1, 168116, Note_off_c, 0, 58, 60
1, 168137, Note_off_c, 0, 51, 63
1, 168280, Control_c, 0, 64, 91
1, 168295, Control_c, 0, 64, 61
1, 168309, Control_c, 0, 64, 0
1, 168319, Note_on_c, 0, 44, 82
1, 168335, Note_off_c, 0, 66, 58
1, 168353, Control_c, 0, 64, 61
1, 168363, Note_off_c, 0, 75, 62
1, 168368, Control_c, 0, 64, 80
1, 168383, Control_c, 0, 64, 127
1, 168417, Note_off_c, 0, 44, 62
1, 168534, Note_on_c, 0, 75, 83
1, 168549, Note_on_c, 0, 66, 68
1, 168581, Note_off_c, 0, 66, 62
1, 168582, Note_off_c, 0, 75, 63
1, 168634, Note_on_c, 0, 75, 88
1, 168644, Note_on_c, 0, 66, 80
1, 168659, Note_on_c, 0, 54, 57
1, 168670, Note_on_c, 0, 60, 48
1, 168678, Note_on_c, 0, 56, 51
1, 168706, Note_off_c, 0, 66, 57
1, 168737, Note_off_c, 0, 75, 61
1, 168789, Note_on_c, 0, 78, 85
1, 168797, Note_on_c, 0, 70, 86
1, 168826, Note_off_c, 0, 60, 37
1, 168851, Note_off_c, 0, 54, 60
1, 168851, Note_off_c, 0, 78, 64
1, 168856, Note_off_c, 0, 70, 63
1, 168861, Note_off_c, 0, 56, 36
1, 168907, Note_on_c, 0, 77, 85
1, 168917, Note_on_c, 0, 68, 87
1, 168935, Note_on_c, 0, 54, 63
1, 168945, Note_on_c, 0, 56, 47
1, 168955, Note_off_c, 0, 77, 62
1, 168962, Note_off_c, 0, 68, 63
1, 168971, Note_off_c, 0, 56, 63
1, 168979, Note_off_c, 0, 54, 63
1, 169013, Note_on_c, 0, 75, 84
1, 169023, Note_on_c, 0, 66, 82
1, 169068, Note_off_c, 0, 75, 63
1, 169069, Note_off_c, 0, 66, 61
1, 169073, Control_c, 0, 64, 88
1, 169088, Control_c, 0, 64, 51
1, 169103, Control_c, 0, 64, 0
1, 169126, Note_on_c, 0, 75, 84
1, 169134, Note_on_c, 0, 66, 78
1, 169147, Note_on_c, 0, 37, 75
1, 169147, Control_c, 0, 64, 26
1, 169162, Control_c, 0, 64, 67
1, 169175, Note_off_c, 0, 37, 65
1, 169176, Control_c, 0, 64, 97
1, 169191, Control_c, 0, 64, 127
1, 169434, Note_on_c, 0, 56, 66
1, 169434, Note_on_c, 0, 61, 62
1, 169445, Note_on_c, 0, 53, 59
1, 169451, Control_c, 0, 64, 82
1, 169465, Control_c, 0, 64, 0
1, 169473, Note_off_c, 0, 61, 61
1, 169478, Note_off_c, 0, 53, 66
1, 169490, Note_off_c, 0, 56, 59
1, 169658, Note_off_c, 0, 66, 49
1, 169681, Note_on_c, 0, 73, 74
1, 169693, Note_on_c, 0, 65, 65
1, 169699, Note_on_c, 0, 53, 54
1, 169702, Note_on_c, 0, 61, 44
1, 169702, Control_c, 0, 67, 8
1, 169705, Note_on_c, 0, 56, 54
1, 169717, Control_c, 0, 67, 10
1, 169732, Control_c, 0, 67, 12
1, 169734, Note_off_c, 0, 61, 51
1, 169738, Note_off_c, 0, 56, 65
1, 169742, Note_off_c, 0, 53, 67
1, 169747, Control_c, 0, 67, 13
1, 169757, Note_off_c, 0, 75, 55
1, 169762, Control_c, 0, 67, 16
1, 169776, Control_c, 0, 67, 18
1, 169791, Control_c, 0, 67, 21
1, 169806, Control_c, 0, 67, 24
1, 169821, Control_c, 0, 67, 29
1, 169836, Control_c, 0, 67, 34
1, 169850, Control_c, 0, 67, 40
1, 169865, Control_c, 0, 67, 45
1, 169881, Control_c, 0, 67, 50
1, 169896, Control_c, 0, 67, 54
1, 169911, Control_c, 0, 64, 61
1, 169911, Control_c, 0, 67, 59
1, 169923, Note_on_c, 0, 37, 55
1, 169925, Control_c, 0, 64, 75
1, 169925, Control_c, 0, 67, 64
1, 169940, Control_c, 0, 64, 112
1, 169940, Control_c, 0, 67, 69
1, 169941, Note_off_c, 0, 65, 59
1, 169959, Note_off_c, 0, 37, 59
1, 169962, Control_c, 0, 64, 127
1, 169962, Control_c, 0, 67, 73
1, 169969, Note_off_c, 0, 73, 59
1, 169977, Control_c, 0, 67, 77
1, 169992, Control_c, 0, 67, 80
1, 170006, Control_c, 0, 67, 82
1, 170021, Control_c, 0, 67, 85
1, 170036, Control_c, 0, 67, 87
1, 170051, Control_c, 0, 67, 90
1, 170066, Control_c, 0, 67, 93
1, 170081, Control_c, 0, 67, 95
1, 170096, Control_c, 0, 67, 96
1, 170110, Control_c, 0, 67, 97
1, 170125, Control_c, 0, 67, 98
1, 170140, Control_c, 0, 67, 100
1, 170155, Control_c, 0, 67, 101
1, 170170, Control_c, 0, 67, 102
1, 170176, Note_on_c, 0, 73, 82
1, 170185, Control_c, 0, 64, 102
1, 170185, Control_c, 0, 67, 104
1, 170191, Note_on_c, 0, 64, 65
1, 170197, Note_on_c, 0, 52, 55
1, 170198, Note_on_c, 0, 61, 46
1, 170199, Control_c, 0, 64, 79
1, 170199, Control_c, 0, 67, 106
1, 170214, Note_on_c, 0, 57, 40
1, 170214, Control_c, 0, 64, 59
1, 170214, Control_c, 0, 67, 107
1, 170229, Control_c, 0, 64, 0
1, 170229, Control_c, 0, 67, 109
1, 170244, Control_c, 0, 64, 48
1, 170244, Control_c, 0, 67, 110
1, 170259, Control_c, 0, 64, 65
1, 170259, Control_c, 0, 67, 111
1, 170265, Note_off_c, 0, 64, 61
1, 170273, Control_c, 0, 64, 76
1, 170273, Control_c, 0, 67, 111
1, 170288, Control_c, 0, 64, 97
1, 170293, Note_off_c, 0, 73, 61
1, 170303, Control_c, 0, 64, 127
1, 170303, Control_c, 0, 67, 112
1, 170304, Note_off_c, 0, 61, 52
1, 170306, Note_off_c, 0, 52, 54
1, 170318, Control_c, 0, 67, 112
1, 170361, Note_off_c, 0, 57, 37
1, 170362, Control_c, 0, 67, 113
1, 170421, Control_c, 0, 67, 113
1, 170441, Note_on_c, 0, 52, 51
1, 170441, Note_on_c, 0, 61, 49
1, 170451, Note_on_c, 0, 57, 43
1, 170451, Control_c, 0, 67, 114
1, 170474, Note_off_c, 0, 61, 52
1, 170480, Control_c, 0, 67, 114
1, 170482, Note_off_c, 0, 57, 62
1, 170487, Note_off_c, 0, 52, 58
1, 170495, Control_c, 0, 67, 115
1, 170510, Control_c, 0, 67, 116
1, 170525, Control_c, 0, 67, 117
1, 170540, Control_c, 0, 67, 118
1, 170555, Control_c, 0, 67, 119
1, 170555, Note_on_c, 0, 73, 76
1, 170570, Control_c, 0, 67, 120
1, 170583, Note_on_c, 0, 64, 50
1, 170583, Note_off_c, 0, 73, 64
1, 170584, Control_c, 0, 67, 122
1, 170599, Control_c, 0, 67, 124
1, 170608, Note_off_c, 0, 64, 58
1, 170614, Control_c, 0, 64, 97
1, 170614, Control_c, 0, 67, 127
1, 170629, Control_c, 0, 64, 73
1, 170629, Control_c, 0, 67, 127
1, 170644, Control_c, 0, 64, 0
1, 170651, Note_on_c, 0, 73, 71
1, 170677, Note_on_c, 0, 42, 59
1, 170685, Note_on_c, 0, 64, 58
1, 170690, Control_c, 0, 64, 35
1, 170712, Control_c, 0, 64, 67
1, 170714, Note_off_c, 0, 42, 59
1, 170727, Control_c, 0, 64, 83
1, 170742, Control_c, 0, 64, 127
1, 170862, Note_off_c, 0, 64, 61
1, 170931, Note_on_c, 0, 54, 55
1, 170934, Control_c, 0, 64, 99
1, 170942, Note_on_c, 0, 59, 47
1, 170945, Note_on_c, 0, 57, 53
1, 170948, Control_c, 0, 64, 75
1, 170963, Control_c, 0, 64, 0
1, 170982, Note_off_c, 0, 57, 64
1, 170982, Note_off_c, 0, 59, 62
1, 170984, Note_off_c, 0, 54, 61
1, 171188, Note_on_c, 0, 71, 66
1, 171198, Note_on_c, 0, 63, 50
1, 171201, Note_on_c, 0, 54, 50
1, 171214, Note_on_c, 0, 59, 26
1, 171218, Note_on_c, 0, 57, 20
1, 171228, Note_off_c, 0, 73, 55
1, 171251, Note_off_c, 0, 59, 43
1, 171252, Note_off_c, 0, 57, 45
1, 171254, Note_off_c, 0, 54, 63
1, 171422, Control_c, 0, 64, 59
1, 171431, Note_on_c, 0, 42, 52
1, 171437, Control_c, 0, 64, 71
1, 171460, Control_c, 0, 64, 89
1, 171473, Note_off_c, 0, 42, 62
1, 171476, Control_c, 0, 64, 127
1, 171476, Note_off_c, 0, 71, 59
1, 171551, Note_off_c, 0, 63, 35
1, 171698, Control_c, 0, 64, 108
1, 171703, Note_on_c, 0, 71, 65
1, 171713, Control_c, 0, 64, 84
1, 171716, Note_on_c, 0, 63, 52
1, 171726, Note_on_c, 0, 54, 37
1, 171727, Control_c, 0, 64, 68
1, 171742, Control_c, 0, 64, 35
1, 171744, Note_on_c, 0, 59, 35
1, 171755, Note_on_c, 0, 57, 26
1, 171757, Control_c, 0, 64, 46
1, 171771, Control_c, 0, 64, 65
1, 171786, Control_c, 0, 64, 75
1, 171795, Note_off_c, 0, 63, 58
1, 171801, Control_c, 0, 64, 91
1, 171805, Note_off_c, 0, 71, 63
1, 171816, Control_c, 0, 64, 127
1, 171826, Note_off_c, 0, 57, 53
1, 171848, Note_off_c, 0, 59, 38
1, 171862, Note_off_c, 0, 54, 36
1, 171976, Note_on_c, 0, 54, 48
1, 172012, Poly_aftertouch_c, 0, 57, 127
1, 172024, Note_off_c, 0, 54, 61
1, 172057, Poly_aftertouch_c, 0, 57, 0
1, 172104, Note_on_c, 0, 73, 68
1, 172133, Note_on_c, 0, 63, 50
1, 172156, Note_off_c, 0, 73, 58
1, 172166, Note_off_c, 0, 63, 64
1, 172171, Control_c, 0, 64, 106
1, 172185, Control_c, 0, 64, 79
1, 172208, Control_c, 0, 64, 46
1, 172222, Note_on_c, 0, 73, 54
1, 172223, Control_c, 0, 64, 0
1, 172236, Note_on_c, 0, 40, 55
1, 172249, Note_on_c, 0, 64, 53
1, 172267, Control_c, 0, 64, 57
1, 172274, Note_off_c, 0, 40, 64
1, 172283, Control_c, 0, 64, 71
1, 172298, Control_c, 0, 64, 88
1, 172313, Control_c, 0, 64, 127
1, 172431, Control_c, 0, 64, 116
1, 172446, Control_c, 0, 64, 89
1, 172461, Control_c, 0, 64, 70
1, 172475, Control_c, 0, 64, 0
1, 172509, Note_on_c, 0, 52, 54
1, 172509, Note_on_c, 0, 56, 50
1, 172516, Note_off_c, 0, 64, 62
1, 172544, Note_off_c, 0, 56, 62
1, 172549, Note_off_c, 0, 52, 61
1, 172743, Note_on_c, 0, 71, 65
1, 172757, Note_on_c, 0, 56, 31
1, 172763, Note_on_c, 0, 52, 46
1, 172766, Note_on_c, 0, 62, 51
1, 172781, Note_off_c, 0, 73, 52
1, 172790, Note_off_c, 0, 56, 48
1, 172797, Note_off_c, 0, 52, 63
1, 173016, Control_c, 0, 64, 51
1, 173031, Control_c, 0, 64, 67
1, 173037, Note_off_c, 0, 62, 56
1, 173037, Note_off_c, 0, 71, 59
1, 173038, Note_on_c, 0, 40, 49
1, 173045, Control_c, 0, 64, 79
1, 173060, Control_c, 0, 64, 99
1, 173076, Control_c, 0, 64, 127
1, 173080, Note_off_c, 0, 40, 59
1, 173226, Note_on_c, 0, 71, 67
1, 173250, Note_on_c, 0, 62, 40
1, 173253, Note_off_c, 0, 71, 64
1, 173285, Note_off_c, 0, 62, 50
1, 173342, Note_on_c, 0, 62, 54
1, 173354, Note_on_c, 0, 71, 62
1, 173366, Note_on_c, 0, 56, 36
1, 173369, Note_on_c, 0, 52, 41
1, 173389, Note_off_c, 0, 62, 52
1, 173421, Note_off_c, 0, 56, 54
1, 173425, Note_off_c, 0, 52, 54
1, 173479, Note_off_c, 0, 71, 49
1, 173506, Note_on_c, 0, 74, 67
1, 173518, Note_on_c, 0, 66, 53
1, 173541, Note_off_c, 0, 66, 60
1, 173597, Note_off_c, 0, 74, 59
1, 173622, Note_on_c, 0, 73, 64
1, 173626, Note_on_c, 0, 52, 54
1, 173631, Note_on_c, 0, 64, 63
1, 173659, Note_off_c, 0, 64, 67
1, 173664, Note_off_c, 0, 52, 60
1, 173677, Note_off_c, 0, 73, 59
1, 173742, Note_on_c, 0, 71, 62
1, 173747, Note_on_c, 0, 62, 46
1, 173771, Note_off_c, 0, 62, 58
1, 173780, Control_c, 0, 64, 97
1, 173787, Note_off_c, 0, 71, 60
1, 173795, Control_c, 0, 64, 71
1, 173810, Control_c, 0, 64, 0
1, 173851, Note_on_c, 0, 69, 65
1, 173863, Note_on_c, 0, 61, 62
1, 173875, Note_on_c, 0, 45, 57
1, 173900, Control_c, 0, 64, 56
1, 173915, Control_c, 0, 64, 72
1, 173920, Note_off_c, 0, 61, 58
1, 173929, Control_c, 0, 64, 99
1, 173932, Note_off_c, 0, 45, 62
1, 173944, Control_c, 0, 64, 127
1, 173954, Note_off_c, 0, 69, 60
1, 174004, Control_c, 0, 67, 126
1, 174018, Control_c, 0, 67, 120
1, 174033, Control_c, 0, 67, 112
1, 174048, Control_c, 0, 67, 103
1, 174063, Control_c, 0, 67, 94
1, 174078, Control_c, 0, 67, 87
1, 174093, Control_c, 0, 67, 80
1, 174107, Control_c, 0, 67, 75
1, 174122, Control_c, 0, 67, 71
1, 174137, Control_c, 0, 67, 67
1, 174152, Control_c, 0, 67, 64
1, 174167, Control_c, 0, 67, 59
1, 174181, Control_c, 0, 67, 54
1, 174196, Control_c, 0, 67, 48
1, 174211, Control_c, 0, 67, 42
1, 174226, Control_c, 0, 67, 36
1, 174241, Control_c, 0, 67, 28
1, 174245, Note_on_c, 0, 61, 51
1, 174247, Note_on_c, 0, 57, 53
1, 174256, Control_c, 0, 67, 21
1, 174258, Note_on_c, 0, 52, 38
1, 174271, Control_c, 0, 67, 13
1, 174286, Control_c, 0, 67, 0
1, 174356, Note_off_c, 0, 52, 40
1, 174391, Note_off_c, 0, 57, 50
1, 174480, Note_off_c, 0, 61, 0
1, 174495, Note_on_c, 0, 61, 37
1, 174496, Note_on_c, 0, 64, 62
1, 174505, Note_on_c, 0, 57, 55
1, 174530, Note_off_c, 0, 64, 63
1, 174541, Note_on_c, 0, 81, 97
1, 174549, Note_on_c, 0, 73, 88
1, 174566, Note_off_c, 0, 61, 60
1, 174594, Note_off_c, 0, 57, 59
1, 174723, Control_c, 0, 64, 107
1, 174738, Control_c, 0, 64, 77
1, 174753, Control_c, 0, 64, 40
1, 174768, Control_c, 0, 64, 0
1, 174772, Note_on_c, 0, 45, 77
1, 174783, Control_c, 0, 64, 51
1, 174797, Control_c, 0, 64, 69
1, 174812, Control_c, 0, 64, 86
1, 174827, Control_c, 0, 64, 127
1, 174838, Note_off_c, 0, 45, 64
1, 174998, Note_off_c, 0, 73, 56
1, 175029, Note_off_c, 0, 81, 47
1, 175096, Note_on_c, 0, 57, 62
1, 175098, Note_on_c, 0, 60, 61
1, 175100, Note_on_c, 0, 65, 59
1, 175138, Note_on_c, 0, 81, 95
1, 175138, Control_c, 0, 64, 106
1, 175151, Note_on_c, 0, 72, 89
1, 175153, Control_c, 0, 64, 82
1, 175168, Control_c, 0, 64, 67
1, 175183, Control_c, 0, 64, 65
1, 175205, Control_c, 0, 64, 72
1, 175220, Control_c, 0, 64, 88
1, 175235, Control_c, 0, 64, 127
1, 175261, Note_off_c, 0, 72, 55
1, 175294, Note_off_c, 0, 65, 54
1, 175307, Note_off_c, 0, 57, 50
1, 175313, Note_off_c, 0, 81, 58
1, 175360, Note_off_c, 0, 60, 37
1, 175457, Note_on_c, 0, 57, 55
1, 175460, Note_on_c, 0, 65, 50
1, 175476, Note_on_c, 0, 60, 60
1, 175500, Note_off_c, 0, 65, 62
1, 175541, Note_off_c, 0, 60, 60
1, 175548, Note_on_c, 0, 81, 96
1, 175557, Note_on_c, 0, 72, 86
1, 175566, Note_off_c, 0, 57, 60
1, 175703, Note_off_c, 0, 72, 55
1, 175705, Note_off_c, 0, 81, 54
1, 175753, Control_c, 0, 64, 85
1, 175768, Control_c, 0, 64, 28
1, 175782, Note_on_c, 0, 81, 98
1, 175783, Control_c, 0, 64, 0
1, 175788, Note_on_c, 0, 46, 77
1, 175790, Note_on_c, 0, 72, 89
1, 175843, Control_c, 0, 64, 63
1, 175858, Control_c, 0, 64, 80
1, 175864, Note_off_c, 0, 46, 62
1, 175872, Control_c, 0, 64, 127
1, 176104, Note_off_c, 0, 81, 53
1, 176105, Note_off_c, 0, 72, 50
1, 176164, Note_on_c, 0, 65, 50
1, 176167, Note_on_c, 0, 55, 50
1, 176170, Note_on_c, 0, 62, 50
1, 176273, Note_off_c, 0, 55, 57
1, 176281, Note_off_c, 0, 65, 57
1, 176299, Note_off_c, 0, 62, 51
1, 176397, Note_on_c, 0, 79, 87
1, 176406, Note_on_c, 0, 55, 60
1, 176412, Note_on_c, 0, 70, 79
1, 176435, Note_on_c, 0, 62, 34
1, 176468, Note_off_c, 0, 62, 52
1, 176479, Note_off_c, 0, 55, 64
1, 176486, Note_off_c, 0, 70, 62
1, 176606, Control_c, 0, 64, 92
1, 176621, Control_c, 0, 64, 64
1, 176635, Control_c, 0, 64, 0
1, 176651, Note_on_c, 0, 48, 84
1, 176680, Control_c, 0, 64, 60
1, 176702, Control_c, 0, 64, 78
1, 176710, Note_off_c, 0, 79, 62
1, 176717, Control_c, 0, 64, 127
1, 176737, Note_off_c, 0, 48, 62
1, 176820, Note_on_c, 0, 86, 89
1, 176826, Note_on_c, 0, 77, 90
1, 176889, Note_off_c, 0, 86, 62
1, 176914, Note_off_c, 0, 77, 58
1, 177014, Note_on_c, 0, 55, 57
1, 177014, Note_on_c, 0, 84, 88
1, 177017, Note_on_c, 0, 58, 60
1, 177019, Note_on_c, 0, 76, 89
1, 177020, Note_on_c, 0, 64, 58
1, 177072, Note_off_c, 0, 76, 64
1, 177080, Note_off_c, 0, 84, 61
1, 177133, Note_off_c, 0, 55, 55
1, 177134, Note_on_c, 0, 82, 90
1, 177145, Note_off_c, 0, 64, 46
1, 177149, Note_on_c, 0, 74, 91
1, 177190, Note_off_c, 0, 74, 66
1, 177199, Note_off_c, 0, 82, 65
1, 177199, Note_off_c, 0, 58, 38
1, 177234, Poly_aftertouch_c, 0, 80, 127
1, 177241, Note_on_c, 0, 81, 98
1, 177251, Note_on_c, 0, 72, 89
1, 177265, Note_on_c, 0, 55, 60
1, 177272, Note_on_c, 0, 58, 52
1, 177279, Poly_aftertouch_c, 0, 80, 0
1, 177285, Note_off_c, 0, 81, 62
1, 177290, Note_off_c, 0, 72, 66
1, 177308, Note_off_c, 0, 58, 63
1, 177333, Note_off_c, 0, 55, 63
1, 177483, Note_on_c, 0, 79, 86
1, 177484, Note_on_c, 0, 70, 85
1, 177525, Note_off_c, 0, 79, 60
1, 177530, Note_off_c, 0, 70, 64
1, 177540, Control_c, 0, 64, 86
1, 177555, Control_c, 0, 64, 14
1, 177570, Control_c, 0, 64, 0
1, 177572, Note_on_c, 0, 79, 84
1, 177578, Note_on_c, 0, 70, 83
1, 177590, Note_on_c, 0, 41, 74
1, 177614, Control_c, 0, 64, 63
1, 177627, Note_off_c, 0, 41, 64
1, 177629, Control_c, 0, 64, 81
1, 177643, Control_c, 0, 64, 127
1, 177916, Note_on_c, 0, 65, 58
1, 177917, Note_on_c, 0, 57, 63
1, 177921, Note_on_c, 0, 60, 59
1, 177926, Control_c, 0, 64, 104
1, 177941, Control_c, 0, 64, 76
1, 177956, Control_c, 0, 64, 0
1, 177959, Note_off_c, 0, 57, 57
1, 177968, Note_off_c, 0, 65, 60
1, 177988, Note_off_c, 0, 60, 61
1, 178150, Note_off_c, 0, 70, 55
1, 178177, Note_on_c, 0, 77, 79
1, 178194, Note_on_c, 0, 69, 73
1, 178199, Note_on_c, 0, 57, 58
1, 178201, Note_on_c, 0, 65, 54
1, 178203, Note_on_c, 0, 60, 62
1, 178216, Note_off_c, 0, 79, 54
1, 178224, Note_off_c, 0, 65, 62
1, 178249, Note_off_c, 0, 60, 63
1, 178271, Note_off_c, 0, 57, 61
1, 178406, Control_c, 0, 64, 66
1, 178412, Note_off_c, 0, 69, 61
1, 178418, Note_on_c, 0, 41, 76
1, 178421, Control_c, 0, 64, 88
1, 178436, Control_c, 0, 64, 127
1, 178438, Note_off_c, 0, 77, 61
1, 178449, Note_off_c, 0, 41, 63
1, 178657, Note_on_c, 0, 77, 89
1, 178658, Control_c, 0, 64, 95
1, 178660, Note_on_c, 0, 68, 86
1, 178674, Control_c, 0, 64, 67
1, 178687, Note_on_c, 0, 61, 60
1, 178688, Control_c, 0, 64, 0
1, 178699, Note_on_c, 0, 56, 58
1, 178700, Note_on_c, 0, 53, 53
1, 178733, Control_c, 0, 64, 63
1, 178748, Control_c, 0, 64, 80
1, 178749, Note_off_c, 0, 68, 61
1, 178762, Control_c, 0, 64, 127
1, 178764, Note_off_c, 0, 77, 62
1, 178809, Note_off_c, 0, 61, 51
1, 178840, Note_off_c, 0, 56, 57
1, 178847, Note_off_c, 0, 53, 32
1, 178947, Note_on_c, 0, 53, 55
1, 178948, Note_on_c, 0, 56, 53
1, 178949, Note_on_c, 0, 61, 42
1, 178979, Note_off_c, 0, 61, 54
1, 178989, Note_off_c, 0, 56, 63
1, 178998, Note_off_c, 0, 53, 64
1, 179059, Note_on_c, 0, 77, 85
1, 179062, Note_on_c, 0, 68, 79
1, 179089, Note_off_c, 0, 77, 60
1, 179110, Control_c, 0, 64, 109
1, 179113, Note_off_c, 0, 68, 60
1, 179125, Control_c, 0, 64, 77
1, 179140, Control_c, 0, 64, 0
1, 179155, Note_on_c, 0, 77, 86
1, 179159, Note_on_c, 0, 68, 72
1, 179174, Note_on_c, 0, 42, 70
1, 179199, Control_c, 0, 64, 53
1, 179214, Control_c, 0, 64, 72
1, 179215, Note_off_c, 0, 42, 62
1, 179229, Control_c, 0, 64, 96
1, 179244, Control_c, 0, 64, 127
1, 179390, Note_off_c, 0, 77, 59
1, 179410, Note_off_c, 0, 68, 56
1, 179453, Note_on_c, 0, 51, 45
1, 179462, Note_on_c, 0, 58, 48
1, 179469, Note_on_c, 0, 61, 39
1, 179508, Note_off_c, 0, 51, 53
1, 179530, Note_off_c, 0, 61, 50
1, 179548, Note_off_c, 0, 58, 38
1, 179659, Control_c, 0, 67, 8
1, 179674, Control_c, 0, 67, 9
1, 179697, Control_c, 0, 67, 11
1, 179711, Note_on_c, 0, 75, 61
1, 179712, Note_on_c, 0, 51, 52
1, 179712, Control_c, 0, 67, 13
1, 179718, Note_on_c, 0, 66, 60
1, 179726, Control_c, 0, 67, 17
1, 179741, Control_c, 0, 67, 20
1, 179756, Control_c, 0, 67, 25
1, 179758, Note_on_c, 0, 76, 39
1, 179760, Poly_aftertouch_c, 0, 58, 127
1, 179765, Note_off_c, 0, 51, 62
1, 179771, Control_c, 0, 67, 29
1, 179786, Control_c, 0, 67, 34
1, 179787, Poly_aftertouch_c, 0, 61, 0
1, 179800, Note_off_c, 0, 76, 45
1, 179800, Control_c, 0, 67, 38
1, 179804, Poly_aftertouch_c, 0, 58, 0
1, 179815, Control_c, 0, 67, 42
1, 179830, Control_c, 0, 67, 46
1, 179845, Control_c, 0, 67, 50
1, 179859, Control_c, 0, 67, 54
1, 179874, Control_c, 0, 67, 59
1, 179889, Control_c, 0, 67, 64
1, 179904, Control_c, 0, 67, 69
1, 179918, Control_c, 0, 64, 104
1, 179918, Control_c, 0, 67, 74
1, 179933, Control_c, 0, 64, 78
1, 179933, Control_c, 0, 67, 81
1, 179948, Control_c, 0, 64, 48
1, 179948, Control_c, 0, 67, 87
1, 179963, Control_c, 0, 64, 0
1, 179963, Control_c, 0, 67, 92
1, 179970, Note_on_c, 0, 44, 66
1, 179978, Control_c, 0, 67, 96
1, 179992, Control_c, 0, 67, 100
1, 179995, Note_off_c, 0, 66, 57
1, 180005, Note_off_c, 0, 75, 58
1, 180007, Control_c, 0, 64, 62
1, 180007, Control_c, 0, 67, 104
1, 180022, Control_c, 0, 64, 73
1, 180022, Control_c, 0, 67, 107
1, 180037, Control_c, 0, 64, 89
1, 180037, Control_c, 0, 67, 109
1, 180052, Control_c, 0, 64, 127
1, 180052, Control_c, 0, 67, 110
1, 180067, Control_c, 0, 67, 111
1, 180079, Note_off_c, 0, 44, 60
1, 180082, Control_c, 0, 67, 111
1, 180096, Control_c, 0, 67, 113
1, 180111, Control_c, 0, 67, 113
1, 180117, Note_on_c, 0, 75, 77
1, 180126, Control_c, 0, 67, 114
1, 180132, Note_on_c, 0, 66, 63
1, 180141, Control_c, 0, 67, 114
1, 180156, Control_c, 0, 67, 115
1, 180171, Control_c, 0, 67, 116
1, 180185, Control_c, 0, 67, 118
1, 180200, Control_c, 0, 67, 119
1, 180202, Note_off_c, 0, 66, 59
1, 180215, Control_c, 0, 67, 121
1, 180223, Note_off_c, 0, 75, 57
1, 180229, Control_c, 0, 67, 124
1, 180244, Control_c, 0, 67, 126
1, 180260, Control_c, 0, 67, 127
1, 180266, Note_on_c, 0, 76, 79
1, 180275, Control_c, 0, 64, 109
1, 180281, Note_on_c, 0, 67, 64
1, 180284, Note_on_c, 0, 54, 53
1, 180288, Note_on_c, 0, 60, 41
1, 180290, Control_c, 0, 64, 91
1, 180300, Note_on_c, 0, 56, 46
1, 180305, Control_c, 0, 64, 78
1, 180317, Note_off_c, 0, 67, 63
1, 180320, Control_c, 0, 64, 64
1, 180326, Note_off_c, 0, 76, 63
1, 180332, Note_off_c, 0, 54, 58
1, 180334, Control_c, 0, 64, 0
1, 180338, Note_off_c, 0, 60, 61
1, 180341, Note_off_c, 0, 56, 60
1, 180415, Note_on_c, 0, 77, 68
1, 180419, Note_on_c, 0, 68, 58
1, 180492, Note_off_c, 0, 77, 61
1, 180535, Note_off_c, 0, 68, 32
1, 180618, Note_on_c, 0, 78, 59
1, 180641, Note_on_c, 0, 69, 54
1, 180651, Note_on_c, 0, 54, 35
1, 180660, Note_on_c, 0, 60, 30
1, 180661, Note_on_c, 0, 56, 25
1, 180668, Control_c, 0, 64, 59
1, 180683, Control_c, 0, 64, 72
1, 180686, Note_off_c, 0, 69, 60
1, 180698, Control_c, 0, 64, 86
1, 180699, Note_off_c, 0, 78, 60
1, 180706, Note_off_c, 0, 60, 60
1, 180713, Control_c, 0, 64, 117
1, 180728, Control_c, 0, 64, 127
1, 180731, Note_off_c, 0, 56, 53
1, 180766, Note_off_c, 0, 54, 48
1, 180967, Note_on_c, 0, 77, 60
1, 180976, Note_on_c, 0, 68, 52
1, 181003, Note_off_c, 0, 77, 53
1, 181006, Note_off_c, 0, 68, 63
1, 181038, Control_c, 0, 64, 97
1, 181054, Control_c, 0, 64, 72
1, 181069, Control_c, 0, 64, 0
1, 181083, Note_on_c, 0, 75, 59
1, 181088, Note_on_c, 0, 66, 61
1, 181116, Note_on_c, 0, 37, 46
1, 181128, Control_c, 0, 64, 59
1, 181143, Control_c, 0, 64, 70
1, 181152, Note_off_c, 0, 37, 63
1, 181158, Control_c, 0, 64, 88
1, 181173, Control_c, 0, 64, 127
1, 181357, Control_c, 0, 64, 105
1, 181372, Control_c, 0, 64, 81
1, 181387, Control_c, 0, 64, 61
1, 181402, Control_c, 0, 64, 0
1, 181421, Note_on_c, 0, 56, 53
1, 181429, Note_on_c, 0, 61, 46
1, 181432, Note_on_c, 0, 53, 48
1, 181461, Note_off_c, 0, 56, 63
1, 181462, Note_off_c, 0, 53, 66
1, 181462, Note_off_c, 0, 61, 63
1, 181672, Note_on_c, 0, 73, 60
1, 181688, Note_on_c, 0, 53, 46
1, 181689, Note_off_c, 0, 75, 57
1, 181697, Note_on_c, 0, 65, 54
1, 181701, Note_on_c, 0, 61, 20
1, 181705, Note_off_c, 0, 66, 35
1, 181708, Note_on_c, 0, 56, 33
1, 181723, Note_off_c, 0, 53, 67
1, 181736, Note_off_c, 0, 56, 50
1, 181747, Note_off_c, 0, 61, 41
1, 181906, Control_c, 0, 64, 65
1, 181912, Note_on_c, 0, 37, 56
1, 181921, Control_c, 0, 64, 81
1, 181944, Control_c, 0, 64, 108
1, 181949, Note_off_c, 0, 65, 62
1, 181952, Note_off_c, 0, 37, 63
1, 181958, Note_off_c, 0, 73, 63
1, 181959, Control_c, 0, 64, 127
1, 182151, Control_c, 0, 64, 106
1, 182166, Control_c, 0, 64, 81
1, 182180, Control_c, 0, 64, 64
1, 182183, Note_on_c, 0, 73, 81
1, 182195, Control_c, 0, 64, 0
1, 182200, Note_on_c, 0, 61, 49
1, 182205, Note_on_c, 0, 52, 43
1, 182210, Note_on_c, 0, 64, 57
1, 182225, Control_c, 0, 64, 62
1, 182231, Note_on_c, 0, 57, 23
1, 182240, Control_c, 0, 64, 72
1, 182246, Note_off_c, 0, 64, 66
1, 182255, Control_c, 0, 64, 88
1, 182259, Note_off_c, 0, 52, 55
1, 182270, Control_c, 0, 64, 127
1, 182272, Note_off_c, 0, 73, 62
1, 182278, Note_off_c, 0, 61, 49
1, 182282, Note_off_c, 0, 57, 46
1, 182425, Note_on_c, 0, 52, 53
1, 182428, Note_on_c, 0, 61, 38
1, 182466, Note_off_c, 0, 61, 49
1, 182484, Note_off_c, 0, 52, 61
1, 182487, Poly_aftertouch_c, 0, 57, 127
1, 182514, Poly_aftertouch_c, 0, 57, 0
1, 182538, Note_on_c, 0, 73, 72
1, 182561, Note_on_c, 0, 64, 52
1, 182567, Note_off_c, 0, 73, 65
1, 182580, Control_c, 0, 64, 101
1, 182586, Note_off_c, 0, 64, 63
1, 182595, Control_c, 0, 64, 78
1, 182610, Control_c, 0, 64, 58
1, 182625, Control_c, 0, 64, 0
1, 182639, Note_on_c, 0, 73, 68
1, 182659, Note_on_c, 0, 42, 53
1, 182669, Note_on_c, 0, 64, 61
1, 182669, Control_c, 0, 64, 63
1, 182692, Control_c, 0, 64, 74
1, 182697, Note_off_c, 0, 42, 63
1, 182707, Control_c, 0, 64, 93
1, 182722, Control_c, 0, 64, 127
1, 182834, Note_off_c, 0, 64, 59
1, 182869, Control_c, 0, 64, 119
1, 182884, Control_c, 0, 64, 88
1, 182899, Control_c, 0, 64, 67
1, 182904, Note_on_c, 0, 54, 56
1, 182914, Control_c, 0, 64, 0
1, 182925, Note_on_c, 0, 57, 40
1, 182925, Note_on_c, 0, 59, 42
1, 182942, Note_off_c, 0, 54, 65
1, 182953, Note_off_c, 0, 59, 58
1, 182955, Note_off_c, 0, 57, 55
1, 183172, Note_on_c, 0, 71, 52
1, 183173, Note_off_c, 0, 73, 60
1, 183185, Note_on_c, 0, 59, 41
1, 183188, Note_on_c, 0, 54, 51
1, 183188, Note_on_c, 0, 63, 51
1, 183212, Note_off_c, 0, 59, 57
1, 183232, Note_off_c, 0, 54, 65
1, 183269, Control_c, 0, 64, 42
1, 183284, Control_c, 0, 64, 68
1, 183299, Control_c, 0, 64, 83
1, 183307, Note_off_c, 0, 71, 65
1, 183314, Control_c, 0, 64, 127
1, 183321, Note_off_c, 0, 63, 59
1, 183481, Note_on_c, 0, 42, 61
1, 183522, Note_off_c, 0, 42, 60
1, 183593, Note_on_c, 0, 81, 63
1, 183604, Note_on_c, 0, 73, 61
1, 183650, Note_off_c, 0, 81, 60
1, 183711, Note_on_c, 0, 78, 61
1, 183717, Note_off_c, 0, 73, 61
1, 183718, Note_on_c, 0, 69, 58
1, 183737, Note_off_c, 0, 78, 68
1, 183745, Note_on_c, 0, 59, 48
1, 183749, Note_off_c, 0, 69, 66
1, 183750, Note_on_c, 0, 54, 43
1, 183782, Note_off_c, 0, 59, 60
1, 183785, Note_off_c, 0, 54, 58
1, 183808, Poly_aftertouch_c, 0, 57, 127
1, 183832, Note_on_c, 0, 75, 65
1, 183843, Note_on_c, 0, 66, 56
1, 183846, Poly_aftertouch_c, 0, 57, 0
1, 183877, Note_off_c, 0, 66, 60
1, 183990, Control_c, 0, 64, 103
1, 184004, Control_c, 0, 64, 79
1, 184006, Note_on_c, 0, 71, 66
1, 184019, Control_c, 0, 64, 64
1, 184034, Note_off_c, 0, 75, 53
1, 184034, Control_c, 0, 64, 46
1, 184034, Note_on_c, 0, 63, 57
1, 184042, Note_on_c, 0, 54, 43
1, 184049, Control_c, 0, 64, 59
1, 184064, Control_c, 0, 64, 65
1, 184067, Note_off_c, 0, 63, 66
1, 184075, Note_off_c, 0, 71, 65
1, 184078, Control_c, 0, 64, 71
1, 184093, Control_c, 0, 64, 77
1, 184108, Control_c, 0, 64, 90
1, 184115, Note_off_c, 0, 54, 61
1, 184123, Control_c, 0, 64, 111
1, 184138, Control_c, 0, 64, 127
1, 184332, Note_on_c, 0, 73, 64
1, 184361, Note_on_c, 0, 63, 42
1, 184364, Note_off_c, 0, 73, 64
1, 184394, Note_off_c, 0, 63, 57
1, 184398, Control_c, 0, 64, 93
1, 184413, Control_c, 0, 64, 74
1, 184428, Control_c, 0, 64, 38
1, 184442, Control_c, 0, 64, 0
1, 184445, Note_on_c, 0, 73, 62
1, 184464, Note_on_c, 0, 40, 48
1, 184469, Note_on_c, 0, 64, 43
1, 184487, Control_c, 0, 64, 55
1, 184501, Control_c, 0, 64, 70
1, 184503, Note_off_c, 0, 40, 62
1, 184516, Control_c, 0, 64, 86
1, 184531, Control_c, 0, 64, 127
1, 184562, Note_off_c, 0, 64, 0
1, 184562, Note_on_c, 0, 64, 11
1, 184664, Control_c, 0, 64, 91
1, 184679, Control_c, 0, 64, 71
1, 184694, Control_c, 0, 64, 0
1, 184739, Note_on_c, 0, 56, 50
1, 184742, Note_on_c, 0, 52, 54
1, 184746, Note_off_c, 0, 64, 54
1, 184771, Note_off_c, 0, 56, 64
1, 184774, Note_off_c, 0, 52, 63
1, 184991, Note_off_c, 0, 73, 54
1, 185004, Note_on_c, 0, 71, 51
1, 185026, Note_on_c, 0, 56, 18
1, 185028, Note_on_c, 0, 52, 37
1, 185036, Note_on_c, 0, 62, 40
1, 185057, Note_off_c, 0, 56, 47
1, 185061, Note_off_c, 0, 52, 57
1, 185072, Control_c, 0, 64, 62
1, 185087, Control_c, 0, 64, 74
1, 185102, Control_c, 0, 64, 89
1, 185116, Note_off_c, 0, 62, 62
1, 185117, Control_c, 0, 64, 127
1, 185146, Note_off_c, 0, 71, 64
1, 185306, Note_on_c, 0, 40, 45
1, 185353, Note_off_c, 0, 40, 60
1, 185431, Note_on_c, 0, 78, 55
1, 185431, Note_on_c, 0, 86, 58
1, 185522, Note_off_c, 0, 86, 60
1, 185557, Note_on_c, 0, 83, 62
1, 185563, Note_off_c, 0, 78, 56
1, 185566, Note_on_c, 0, 74, 65
1, 185580, Note_on_c, 0, 56, 45
1, 185582, Note_off_c, 0, 83, 69
1, 185594, Note_off_c, 0, 74, 67
1, 185597, Note_on_c, 0, 52, 43
1, 185621, Note_off_c, 0, 56, 57
1, 185634, Note_off_c, 0, 52, 57
1, 185690, Note_on_c, 0, 80, 70
1, 185702, Note_on_c, 0, 71, 63
1, 185821, Note_on_c, 0, 76, 70
1, 185835, Note_on_c, 0, 68, 68
1, 185836, Note_on_c, 0, 56, 41
1, 185846, Note_off_c, 0, 71, 61
1, 185847, Note_off_c, 0, 80, 62
1, 185865, Note_on_c, 0, 52, 35
1, 185868, Note_off_c, 0, 76, 61
1, 185870, Note_off_c, 0, 68, 61
1, 185876, Note_off_c, 0, 56, 52
1, 185904, Note_off_c, 0, 52, 51
1, 185973, Note_on_c, 0, 74, 76
1, 185991, Note_on_c, 0, 66, 58
1, 186031, Note_off_c, 0, 74, 63
1, 186037, Note_off_c, 0, 66, 52
1, 186216, Note_on_c, 0, 71, 71
1, 186238, Note_on_c, 0, 62, 54
1, 186251, Control_c, 0, 64, 93
1, 186266, Control_c, 0, 64, 73
1, 186280, Control_c, 0, 64, 35
1, 186295, Control_c, 0, 64, 0
1, 186398, Control_c, 0, 64, 41
1, 186413, Control_c, 0, 64, 65
1, 186436, Control_c, 0, 64, 75
1, 186451, Control_c, 0, 64, 88
1, 186466, Control_c, 0, 64, 113
1, 186480, Control_c, 0, 64, 127
1, 186502, Note_off_c, 0, 62, 53
1, 186792, Control_c, 0, 64, 115
1, 186806, Note_on_c, 0, 74, 60
1, 186807, Control_c, 0, 64, 90
1, 186810, Note_on_c, 0, 66, 46
1, 186822, Control_c, 0, 64, 74
1, 186837, Control_c, 0, 64, 56
1, 186840, Note_off_c, 0, 71, 54
1, 186851, Control_c, 0, 64, 0
1, 186956, Control_c, 0, 64, 29
1, 186970, Control_c, 0, 64, 62
1, 186985, Control_c, 0, 64, 70
1, 187000, Control_c, 0, 64, 80
1, 187015, Control_c, 0, 64, 96
1, 187029, Control_c, 0, 64, 127
1, 187114, Note_off_c, 0, 74, 62
1, 187385, Note_off_c, 0, 66, 48
1, 187497, Control_c, 0, 64, 100
1, 187512, Control_c, 0, 64, 80
1, 187526, Control_c, 0, 64, 61
1, 187532, Note_on_c, 0, 73, 49
1, 187541, Control_c, 0, 64, 0
1, 187552, Note_on_c, 0, 64, 39
1, 187571, Control_c, 0, 64, 24
1, 187586, Control_c, 0, 64, 60
1, 187600, Control_c, 0, 64, 70
1, 187615, Control_c, 0, 64, 85
1, 187630, Control_c, 0, 64, 113
1, 187633, Note_off_c, 0, 64, 58
1, 187644, Control_c, 0, 64, 127
1, 187649, Note_off_c, 0, 73, 54
1, 187823, Control_c, 0, 64, 106
1, 187838, Control_c, 0, 64, 83
1, 187852, Control_c, 0, 64, 66
1, 187864, Note_on_c, 0, 71, 45
1, 187867, Control_c, 0, 64, 0
1, 187892, Note_on_c, 0, 62, 24
1, 187912, Control_c, 0, 64, 58
1, 187933, Control_c, 0, 64, 68
1, 187948, Control_c, 0, 64, 77
1, 187963, Control_c, 0, 64, 89
1, 187978, Control_c, 0, 64, 104
1, 187981, Note_off_c, 0, 62, 56
1, 187983, Note_off_c, 0, 71, 64
1, 187993, Control_c, 0, 64, 127
1, 188156, Control_c, 0, 64, 96
1, 188171, Control_c, 0, 64, 80
1, 188185, Control_c, 0, 64, 68
1, 188200, Control_c, 0, 64, 19
1, 188215, Control_c, 0, 64, 0
1, 189030, Note_on_c, 0, 72, 43
1, 189057, Note_on_c, 0, 63, 39
1, 189748, Note_on_c, 0, 75, 42
1, 189770, Note_off_c, 0, 72, 56
1, 189776, Note_on_c, 0, 66, 32
1, 189817, Note_off_c, 0, 63, 37
1, 190070, Control_c, 0, 64, 40
1, 190085, Control_c, 0, 64, 60
1, 190100, Control_c, 0, 64, 65
1, 190114, Control_c, 0, 64, 68
1, 190129, Control_c, 0, 64, 72
1, 190144, Control_c, 0, 64, 76
1, 190159, Control_c, 0, 64, 82
1, 190181, Control_c, 0, 64, 88
1, 190196, Control_c, 0, 64, 97
1, 190211, Control_c, 0, 64, 107
1, 190226, Control_c, 0, 64, 127
1, 190309, Note_off_c, 0, 66, 43
1, 190625, Control_c, 0, 64, 119
1, 190640, Control_c, 0, 64, 95
1, 190651, Note_on_c, 0, 73, 46
1, 190656, Control_c, 0, 64, 78
1, 190670, Control_c, 0, 64, 60
1, 190682, Note_on_c, 0, 64, 29
1, 190685, Control_c, 0, 64, 0
1, 190720, Note_off_c, 0, 75, 35
1, 190759, Control_c, 0, 64, 42
1, 190774, Control_c, 0, 64, 64
1, 190789, Control_c, 0, 64, 72
1, 190804, Control_c, 0, 64, 82
1, 190819, Control_c, 0, 64, 93
1, 190825, Note_off_c, 0, 64, 44
1, 190834, Control_c, 0, 64, 106
1, 190849, Control_c, 0, 64, 127
1, 190855, Note_off_c, 0, 73, 57
1, 191091, Control_c, 0, 64, 108
1, 191106, Control_c, 0, 64, 91
1, 191115, Note_on_c, 0, 72, 38
1, 191121, Control_c, 0, 64, 77
1, 191132, Note_on_c, 0, 63, 33
1, 191136, Control_c, 0, 64, 62
1, 191150, Control_c, 0, 64, 0
1, 191194, Control_c, 0, 64, 42
1, 191209, Control_c, 0, 64, 61
1, 191224, Control_c, 0, 64, 68
1, 191239, Control_c, 0, 64, 78
1, 191254, Control_c, 0, 64, 90
1, 191265, Note_off_c, 0, 72, 56
1, 191269, Control_c, 0, 64, 108
1, 191284, Control_c, 0, 64, 127
1, 191298, Note_off_c, 0, 63, 37
1, 191596, Control_c, 0, 64, 116
1, 191610, Control_c, 0, 64, 100
1, 191625, Control_c, 0, 64, 88
1, 191640, Control_c, 0, 64, 77
1, 191655, Control_c, 0, 64, 67
1, 191677, Control_c, 0, 64, 52
1, 191692, Control_c, 0, 64, 0
1, 192300, Control_c, 0, 64, 19
1, 192315, Control_c, 0, 64, 41
1, 192330, Control_c, 0, 64, 50
1, 192345, Control_c, 0, 64, 56
1, 192360, Control_c, 0, 64, 60
1, 192375, Control_c, 0, 64, 63
1, 192389, Control_c, 0, 64, 65
1, 192404, Control_c, 0, 64, 66
1, 192426, Control_c, 0, 64, 67
1, 192440, Control_c, 0, 64, 68
1, 192455, Control_c, 0, 64, 70
1, 192470, Control_c, 0, 64, 71
1, 192485, Control_c, 0, 64, 72
1, 192500, Control_c, 0, 64, 73
1, 192515, Control_c, 0, 64, 74
1, 192530, Control_c, 0, 64, 77
1, 192545, Control_c, 0, 64, 80
1, 192560, Control_c, 0, 64, 85
1, 192575, Control_c, 0, 64, 90
1, 192589, Control_c, 0, 64, 95
1, 192604, Control_c, 0, 64, 101
1, 192619, Control_c, 0, 64, 114
1, 192625, Note_on_c, 0, 45, 47
1, 192634, Control_c, 0, 64, 127
1, 192658, Note_off_c, 0, 45, 64
1, 193019, Control_c, 0, 64, 98
1, 193034, Note_on_c, 0, 57, 40
1, 193034, Control_c, 0, 64, 81
1, 193040, Note_on_c, 0, 61, 40
1, 193040, Note_on_c, 0, 64, 37
1, 193049, Control_c, 0, 64, 68
1, 193063, Control_c, 0, 64, 35
1, 193070, Note_off_c, 0, 57, 64
1, 193075, Note_off_c, 0, 61, 63
1, 193077, Note_off_c, 0, 64, 65
1, 193078, Control_c, 0, 64, 0
1, 193351, Note_on_c, 0, 64, 26
1, 193355, Note_on_c, 0, 61, 27
1, 193356, Note_on_c, 0, 57, 31
1, 193383, Note_off_c, 0, 64, 48
1, 193387, Note_off_c, 0, 61, 50
1, 193388, Note_off_c, 0, 57, 58
1, 193603, Note_on_c, 0, 45, 48
1, 193604, Control_c, 0, 64, 64
1, 193607, Note_on_c, 0, 73, 51
1, 193619, Control_c, 0, 64, 73
1, 193634, Control_c, 0, 64, 84
1, 193636, Note_off_c, 0, 45, 64
1, 193649, Note_off_c, 0, 73, 64
1, 193649, Control_c, 0, 64, 98
1, 193663, Control_c, 0, 64, 115
1, 193678, Control_c, 0, 64, 127
1, 193685, Note_on_c, 0, 72, 54
1, 193752, Control_c, 0, 64, 126
1, 193761, Note_on_c, 0, 73, 60
1, 193767, Note_off_c, 0, 72, 54
1, 193767, Control_c, 0, 64, 107
1, 193782, Control_c, 0, 64, 94
1, 193797, Control_c, 0, 64, 78
1, 193802, Note_off_c, 0, 73, 62
1, 193812, Control_c, 0, 64, 61
1, 193827, Control_c, 0, 64, 0
1, 193832, Note_on_c, 0, 76, 55
1, 193850, Note_on_c, 0, 57, 42
1, 193856, Note_on_c, 0, 61, 43
1, 193858, Note_on_c, 0, 64, 35
1, 193883, Note_off_c, 0, 57, 64
1, 193885, Note_off_c, 0, 76, 62
1, 193886, Note_off_c, 0, 61, 56
1, 193887, Note_off_c, 0, 64, 58
1, 193897, Note_on_c, 0, 78, 59
1, 193984, Note_on_c, 0, 76, 47
1, 193998, Note_off_c, 0, 78, 51
1, 194055, Note_off_c, 0, 76, 62
1, 194057, Note_on_c, 0, 75, 58
1, 194079, Note_on_c, 0, 61, 30
1, 194080, Note_on_c, 0, 57, 42
1, 194109, Note_off_c, 0, 57, 53
1, 194113, Note_off_c, 0, 75, 61
1, 194117, Note_off_c, 0, 61, 43
1, 194131, Note_on_c, 0, 74, 63
1, 194176, Note_off_c, 0, 74, 47
1, 194199, Note_on_c, 0, 73, 62
1, 194230, Note_off_c, 0, 73, 63
1, 194271, Note_on_c, 0, 78, 62
1, 194296, Note_on_c, 0, 50, 57
1, 194309, Control_c, 0, 64, 64
1, 194315, Note_on_c, 0, 73, 30
1, 194324, Control_c, 0, 64, 75
1, 194324, Note_off_c, 0, 50, 67
1, 194339, Control_c, 0, 64, 88
1, 194354, Note_off_c, 0, 73, 49
1, 194354, Control_c, 0, 64, 104
1, 194360, Note_on_c, 0, 74, 59
1, 194368, Control_c, 0, 64, 118
1, 194383, Control_c, 0, 64, 122
1, 194412, Control_c, 0, 64, 121
1, 194420, Note_off_c, 0, 74, 64
1, 194427, Control_c, 0, 64, 119
1, 194438, Note_on_c, 0, 73, 65
1, 194442, Control_c, 0, 64, 109
1, 194457, Control_c, 0, 64, 95
1, 194472, Control_c, 0, 64, 81
1, 194482, Note_off_c, 0, 73, 61
1, 194486, Control_c, 0, 64, 66
1, 194501, Control_c, 0, 64, 0
1, 194506, Note_on_c, 0, 72, 58
1, 194530, Note_on_c, 0, 66, 40
1, 194534, Note_on_c, 0, 62, 48
1, 194560, Note_off_c, 0, 62, 58
1, 194560, Note_off_c, 0, 66, 51
1, 194563, Note_off_c, 0, 72, 52
1, 194578, Note_on_c, 0, 73, 58
1, 194661, Note_off_c, 0, 73, 62
1, 194681, Note_on_c, 0, 72, 53
1, 194748, Note_off_c, 0, 72, 64
1, 194786, Note_on_c, 0, 71, 53
1, 194809, Note_on_c, 0, 62, 42
1, 194810, Note_on_c, 0, 66, 28
1, 194840, Note_off_c, 0, 66, 50
1, 194846, Note_off_c, 0, 62, 64
1, 195078, Note_on_c, 0, 50, 50
1, 195102, Control_c, 0, 64, 61
1, 195110, Note_off_c, 0, 50, 66
1, 195117, Control_c, 0, 64, 74
1, 195132, Control_c, 0, 64, 93
1, 195138, Note_off_c, 0, 78, 61
1, 195147, Control_c, 0, 64, 127
1, 195159, Note_on_c, 0, 77, 55
1, 195175, Note_off_c, 0, 71, 48
1, 195232, Note_off_c, 0, 77, 61
1, 195242, Note_on_c, 0, 78, 60
1, 195295, Control_c, 0, 64, 108
1, 195307, Note_off_c, 0, 78, 61
1, 195309, Control_c, 0, 64, 80
1, 195311, Note_on_c, 0, 81, 65
1, 195324, Control_c, 0, 64, 39
1, 195329, Note_on_c, 0, 71, 45
1, 195331, Note_on_c, 0, 66, 46
1, 195335, Note_on_c, 0, 62, 51
1, 195339, Control_c, 0, 64, 0
1, 195356, Note_off_c, 0, 66, 59
1, 195370, Note_off_c, 0, 62, 62
1, 195383, Note_off_c, 0, 81, 64
1, 195388, Note_on_c, 0, 83, 67
1, 195466, Note_on_c, 0, 81, 70
1, 195497, Note_off_c, 0, 83, 59
1, 195535, Note_off_c, 0, 81, 64
1, 195540, Control_c, 0, 64, 51
1, 195541, Note_on_c, 0, 80, 69
1, 195545, Note_on_c, 0, 62, 54
1, 195555, Control_c, 0, 64, 68
1, 195570, Control_c, 0, 64, 80
1, 195574, Note_off_c, 0, 62, 64
1, 195579, Note_off_c, 0, 80, 63
1, 195585, Control_c, 0, 64, 98
1, 195599, Control_c, 0, 64, 127
1, 195614, Note_on_c, 0, 79, 75
1, 195648, Note_off_c, 0, 71, 46
1, 195681, Note_on_c, 0, 78, 74
1, 195684, Note_off_c, 0, 79, 61
1, 195701, Note_off_c, 0, 78, 71
1, 195718, Control_c, 0, 64, 103
1, 195732, Control_c, 0, 64, 83
1, 195747, Control_c, 0, 64, 65
1, 195762, Control_c, 0, 64, 0
1, 195765, Note_on_c, 0, 71, 67
1, 195769, Note_on_c, 0, 76, 70
1, 195781, Note_on_c, 0, 52, 52
1, 195813, Note_off_c, 0, 52, 60
1, 195820, Note_off_c, 0, 71, 57
1, 195846, Note_on_c, 0, 73, 65
1, 195892, Note_off_c, 0, 73, 64
1, 195918, Note_on_c, 0, 71, 59
1, 195971, Note_off_c, 0, 71, 60
1, 195991, Note_on_c, 0, 61, 58
1, 195993, Note_on_c, 0, 70, 53
1, 196007, Note_on_c, 0, 64, 34
1, 196017, Note_off_c, 0, 61, 62
1, 196039, Note_off_c, 0, 70, 62
1, 196041, Note_off_c, 0, 64, 48
1, 196059, Note_on_c, 0, 71, 53
1, 196091, Note_off_c, 0, 76, 57
1, 196119, Note_off_c, 0, 71, 65
1, 196146, Note_on_c, 0, 70, 57
1, 196221, Note_off_c, 0, 70, 57
1, 196251, Note_on_c, 0, 76, 52
1, 196260, Note_on_c, 0, 69, 56
1, 196277, Note_on_c, 0, 61, 41
1, 196289, Note_on_c, 0, 64, 27
1, 196327, Note_off_c, 0, 64, 53
1, 196346, Note_off_c, 0, 61, 50
1, 196521, Note_on_c, 0, 52, 41
1, 196557, Control_c, 0, 64, 63
1, 196571, Control_c, 0, 64, 73
1, 196574, Note_off_c, 0, 52, 57
1, 196574, Note_off_c, 0, 69, 51
1, 196586, Control_c, 0, 64, 87
1, 196601, Control_c, 0, 64, 115
1, 196606, Note_on_c, 0, 68, 56
1, 196615, Control_c, 0, 64, 127
1, 196638, Note_off_c, 0, 76, 60
1, 196644, Note_off_c, 0, 68, 63
1, 196683, Note_on_c, 0, 69, 61
1, 196734, Control_c, 0, 64, 109
1, 196749, Control_c, 0, 64, 81
1, 196756, Note_off_c, 0, 69, 48
1, 196760, Note_on_c, 0, 73, 56
1, 196760, Note_on_c, 0, 76, 60
1, 196761, Note_on_c, 0, 61, 53
1, 196763, Control_c, 0, 64, 61
1, 196778, Control_c, 0, 64, 0
1, 196799, Note_on_c, 0, 64, 4
1, 196800, Note_off_c, 0, 61, 59
1, 196807, Note_off_c, 0, 73, 61
1, 196831, Note_off_c, 0, 64, 42
1, 196833, Note_on_c, 0, 74, 61
1, 196862, Note_off_c, 0, 76, 52
1, 196897, Note_on_c, 0, 73, 72
1, 196939, Note_off_c, 0, 74, 61
1, 196979, Note_on_c, 0, 72, 65
1, 196981, Note_off_c, 0, 73, 64
1, 196986, Note_on_c, 0, 61, 51
1, 196998, Note_on_c, 0, 64, 29
1, 197017, Note_off_c, 0, 61, 62
1, 197034, Note_off_c, 0, 64, 47
1, 197035, Note_off_c, 0, 72, 63
1, 197047, Note_on_c, 0, 71, 69
1, 197103, Note_off_c, 0, 71, 62
1, 197110, Note_on_c, 0, 70, 73
1, 197171, Note_off_c, 0, 70, 63
1, 197192, Note_on_c, 0, 76, 64
1, 197195, Note_on_c, 0, 69, 68
1, 197198, Note_on_c, 0, 52, 48
1, 197216, Control_c, 0, 64, 28
1, 197230, Control_c, 0, 64, 67
1, 197237, Note_off_c, 0, 52, 59
1, 197240, Note_off_c, 0, 69, 63
1, 197245, Control_c, 0, 64, 79
1, 197260, Control_c, 0, 64, 94
1, 197270, Note_on_c, 0, 71, 64
1, 197272, Note_off_c, 0, 76, 60
1, 197275, Control_c, 0, 64, 113
1, 197290, Control_c, 0, 64, 127
1, 197320, Note_off_c, 0, 71, 66
1, 197346, Note_on_c, 0, 69, 67
1, 197363, Control_c, 0, 64, 109
1, 197374, Note_off_c, 0, 69, 60
1, 197378, Control_c, 0, 64, 91
1, 197393, Control_c, 0, 64, 75
1, 197408, Control_c, 0, 64, 40
1, 197415, Note_on_c, 0, 66, 67
1, 197422, Note_on_c, 0, 59, 55
1, 197423, Control_c, 0, 64, 0
1, 197454, Note_off_c, 0, 59, 64
1, 197474, Note_off_c, 0, 66, 61
1, 197494, Note_on_c, 0, 65, 67
1, 197556, Note_on_c, 0, 66, 63
1, 197559, Note_off_c, 0, 65, 50
1, 197585, Note_off_c, 0, 66, 66
1, 197669, Note_on_c, 0, 76, 63
1, 197684, Note_on_c, 0, 68, 58
1, 197694, Note_on_c, 0, 59, 44
1, 197738, Note_off_c, 0, 59, 57
1, 197905, Control_c, 0, 64, 45
1, 197919, Note_on_c, 0, 52, 43
1, 197920, Control_c, 0, 64, 65
1, 197934, Control_c, 0, 64, 73
1, 197949, Control_c, 0, 64, 83
1, 197964, Control_c, 0, 64, 98
1, 197970, Note_off_c, 0, 76, 59
1, 197975, Note_off_c, 0, 52, 56
1, 197979, Control_c, 0, 64, 127
1, 197982, Note_on_c, 0, 75, 61
1, 197985, Note_off_c, 0, 68, 34
1, 198068, Note_on_c, 0, 76, 66
1, 198069, Note_off_c, 0, 75, 53
1, 198096, Note_off_c, 0, 76, 65
1, 198173, Note_on_c, 0, 80, 68
1, 198190, Note_on_c, 0, 59, 51
1, 198196, Note_on_c, 0, 68, 56
1, 198201, Control_c, 0, 64, 98
1, 198216, Control_c, 0, 64, 84
1, 198229, Note_off_c, 0, 59, 59
1, 198231, Control_c, 0, 64, 71
1, 198241, Poly_aftertouch_c, 0, 64, 127
1, 198244, Note_off_c, 0, 80, 63
1, 198246, Control_c, 0, 64, 45
1, 198259, Note_on_c, 0, 81, 67
1, 198260, Control_c, 0, 64, 0
1, 198276, Poly_aftertouch_c, 0, 64, 0
1, 198316, Note_on_c, 0, 80, 70
1, 198348, Note_off_c, 0, 81, 61
1, 198393, Note_on_c, 0, 59, 49
1, 198396, Note_on_c, 0, 78, 74
1, 198428, Note_off_c, 0, 59, 63
1, 198438, Note_off_c, 0, 80, 61
1, 198480, Note_on_c, 0, 75, 72
1, 198480, Note_off_c, 0, 78, 64
1, 198511, Note_off_c, 0, 68, 31
1, 198556, Note_on_c, 0, 76, 68
1, 198560, Note_off_c, 0, 75, 56
1, 198622, Note_on_c, 0, 45, 54
1, 198623, Note_on_c, 0, 78, 67
1, 198623, Control_c, 0, 64, 56
1, 198639, Control_c, 0, 64, 71
1, 198641, Note_off_c, 0, 76, 58
1, 198653, Note_off_c, 0, 45, 64
1, 198654, Control_c, 0, 64, 90
1, 198655, Note_on_c, 0, 69, 58
1, 198669, Control_c, 0, 64, 127
1, 198703, Note_off_c, 0, 78, 62
1, 198712, Note_on_c, 0, 80, 68
1, 198774, Note_on_c, 0, 78, 63
1, 198802, Control_c, 0, 64, 120
1, 198817, Control_c, 0, 64, 92
1, 198827, Note_off_c, 0, 69, 32
1, 198831, Control_c, 0, 64, 71
1, 198834, Note_off_c, 0, 80, 52
1, 198846, Control_c, 0, 64, 0
1, 198852, Note_on_c, 0, 77, 69
1, 198867, Note_on_c, 0, 57, 41
1, 198867, Note_on_c, 0, 61, 50
1, 198870, Note_off_c, 0, 78, 58
1, 198895, Note_off_c, 0, 57, 58
1, 198897, Note_off_c, 0, 61, 57
1, 198925, Note_off_c, 0, 77, 64
1, 198929, Note_on_c, 0, 78, 60
1, 199010, Note_on_c, 0, 77, 56
1, 199021, Note_off_c, 0, 78, 55
1, 199106, Note_off_c, 0, 77, 59
1, 199115, Note_on_c, 0, 76, 54
1, 199135, Note_on_c, 0, 69, 45
1, 199137, Note_on_c, 0, 61, 41
1, 199147, Note_on_c, 0, 64, 21
1, 199187, Note_off_c, 0, 64, 50
1, 199190, Note_off_c, 0, 61, 60
1, 199380, Note_off_c, 0, 76, 61
1, 199388, Control_c, 0, 64, 33
1, 199391, Note_on_c, 0, 45, 51
1, 199403, Control_c, 0, 64, 65
1, 199417, Control_c, 0, 64, 73
1, 199433, Control_c, 0, 64, 83
1, 199440, Note_off_c, 0, 45, 63
1, 199448, Control_c, 0, 64, 105
1, 199463, Control_c, 0, 64, 127
1, 199549, Note_off_c, 0, 69, 61
1, 199647, Note_on_c, 0, 76, 68
1, 199653, Note_on_c, 0, 73, 69
1, 199686, Note_on_c, 0, 57, 41
1, 199705, Note_on_c, 0, 61, 37
1, 199717, Note_off_c, 0, 73, 62
1, 199737, Note_on_c, 0, 71, 67
1, 199744, Note_off_c, 0, 57, 57
1, 199756, Note_off_c, 0, 61, 52
1, 199791, Note_off_c, 0, 71, 62
1, 199803, Note_on_c, 0, 70, 65
1, 199877, Note_off_c, 0, 70, 64
1, 199883, Note_off_c, 0, 76, 60
1, 199885, Note_on_c, 0, 69, 68
1, 199919, Note_on_c, 0, 64, 39
1, 199920, Note_on_c, 0, 61, 47
1, 199949, Note_off_c, 0, 64, 57
1, 199959, Note_off_c, 0, 61, 60
1, 199968, Note_off_c, 0, 69, 58
1, 199979, Note_on_c, 0, 68, 71
1, 200049, Note_off_c, 0, 68, 63
1, 200061, Note_on_c, 0, 67, 72
1, 200087, Note_off_c, 0, 67, 64
1, 200166, Control_c, 0, 64, 101
1, 200181, Control_c, 0, 64, 78
1, 200196, Control_c, 0, 64, 52
1, 200200, Note_on_c, 0, 78, 68
1, 200211, Control_c, 0, 64, 0
1, 200212, Note_on_c, 0, 50, 51
1, 200217, Note_on_c, 0, 73, 63
1, 200256, Control_c, 0, 64, 34
1, 200271, Control_c, 0, 64, 68
1, 200271, Note_off_c, 0, 50, 62
1, 200286, Control_c, 0, 64, 82
1, 200289, Note_off_c, 0, 73, 61
1, 200301, Control_c, 0, 64, 108
1, 200306, Note_on_c, 0, 74, 67
1, 200316, Control_c, 0, 64, 127
1, 200384, Note_on_c, 0, 73, 67
1, 200393, Note_off_c, 0, 74, 62
1, 200404, Control_c, 0, 64, 114
1, 200419, Control_c, 0, 64, 85
1, 200434, Control_c, 0, 64, 65
1, 200440, Note_off_c, 0, 73, 64
1, 200448, Control_c, 0, 64, 0
1, 200453, Note_on_c, 0, 72, 67
1, 200474, Note_on_c, 0, 66, 44
1, 200474, Note_on_c, 0, 62, 44
1, 200504, Note_off_c, 0, 66, 56
1, 200511, Note_off_c, 0, 62, 61
1, 200518, Note_on_c, 0, 73, 68
1, 200519, Note_off_c, 0, 72, 53
1, 200519, Note_off_c, 0, 78, 38
1, 200591, Note_off_c, 0, 73, 65
1, 200603, Note_on_c, 0, 72, 59
1, 200680, Note_off_c, 0, 72, 64
1, 200697, Note_on_c, 0, 78, 63
1, 200705, Note_on_c, 0, 71, 63
1, 200720, Note_on_c, 0, 66, 34
1, 200724, Note_on_c, 0, 62, 51
1, 200751, Note_off_c, 0, 66, 49
1, 200758, Note_off_c, 0, 62, 63
1, 200945, Control_c, 0, 64, 30
1, 200951, Note_on_c, 0, 50, 53
1, 200960, Control_c, 0, 64, 65
1, 200974, Control_c, 0, 64, 78
1, 200989, Control_c, 0, 64, 95
1, 200990, Note_off_c, 0, 50, 65
1, 201004, Control_c, 0, 64, 127
1, 201032, Note_off_c, 0, 78, 59
1, 201037, Note_on_c, 0, 77, 64
1, 201078, Note_off_c, 0, 71, 22
1, 201132, Note_on_c, 0, 78, 78
1, 201146, Note_off_c, 0, 77, 40
1, 201157, Note_off_c, 0, 78, 64
1, 201242, Control_c, 0, 64, 95
1, 201257, Control_c, 0, 64, 76
1, 201269, Note_on_c, 0, 83, 65
1, 201272, Control_c, 0, 64, 64
1, 201275, Note_on_c, 0, 71, 57
1, 201286, Control_c, 0, 64, 46
1, 201293, Note_on_c, 0, 66, 38
1, 201294, Note_on_c, 0, 62, 35
1, 201301, Control_c, 0, 64, 59
1, 201316, Control_c, 0, 64, 67
1, 201324, Note_off_c, 0, 83, 49
1, 201331, Control_c, 0, 64, 76
1, 201345, Note_off_c, 0, 66, 45
1, 201345, Control_c, 0, 64, 90
1, 201360, Control_c, 0, 64, 127
1, 201368, Note_on_c, 0, 82, 65
1, 201403, Note_off_c, 0, 82, 66
1, 201428, Note_off_c, 0, 62, 27
1, 201452, Note_on_c, 0, 81, 67
1, 201509, Note_off_c, 0, 71, 55
1, 201523, Note_on_c, 0, 80, 65
1, 201532, Note_on_c, 0, 62, 42
1, 201535, Note_off_c, 0, 81, 53
1, 201578, Note_off_c, 0, 62, 62
1, 201579, Poly_aftertouch_c, 0, 66, 127
1, 201604, Note_on_c, 0, 79, 65
1, 201618, Poly_aftertouch_c, 0, 66, 0
1, 201622, Note_off_c, 0, 80, 52
1, 201675, Note_off_c, 0, 79, 62
1, 201676, Note_on_c, 0, 78, 74
1, 201700, Note_off_c, 0, 78, 68
1, 201737, Control_c, 0, 64, 94
1, 201752, Control_c, 0, 64, 71
1, 201767, Control_c, 0, 64, 0
1, 201779, Note_on_c, 0, 71, 66
1, 201783, Note_on_c, 0, 52, 49
1, 201791, Note_on_c, 0, 76, 52
1, 201817, Note_off_c, 0, 52, 59
1, 201839, Note_off_c, 0, 71, 59
1, 201864, Note_on_c, 0, 73, 59
1, 201902, Note_off_c, 0, 73, 63
1, 201929, Note_on_c, 0, 71, 61
1, 201983, Note_off_c, 0, 71, 63
1, 201995, Note_on_c, 0, 70, 63
1, 202011, Note_on_c, 0, 61, 53
1, 202026, Note_on_c, 0, 64, 37
1, 202040, Note_off_c, 0, 61, 62
1, 202055, Note_off_c, 0, 70, 59
1, 202057, Note_off_c, 0, 64, 52
1, 202077, Note_on_c, 0, 71, 52
1, 202135, Note_off_c, 0, 71, 64
1, 202135, Note_off_c, 0, 76, 52
1, 202159, Note_on_c, 0, 70, 54
1, 202235, Note_off_c, 0, 70, 62
1, 202268, Note_on_c, 0, 76, 58
1, 202273, Note_on_c, 0, 69, 50
1, 202284, Note_on_c, 0, 61, 41
1, 202301, Note_on_c, 0, 64, 32
1, 202334, Note_off_c, 0, 61, 54
1, 202345, Note_off_c, 0, 64, 49
1, 202539, Note_on_c, 0, 52, 46
1, 202561, Control_c, 0, 64, 43
1, 202575, Control_c, 0, 64, 68
1, 202590, Control_c, 0, 64, 82
1, 202598, Note_off_c, 0, 52, 53
1, 202605, Control_c, 0, 64, 108
1, 202616, Note_off_c, 0, 76, 58
1, 202618, Note_off_c, 0, 69, 61
1, 202621, Control_c, 0, 64, 127
1, 202798, Note_on_c, 0, 76, 66
1, 202811, Note_on_c, 0, 74, 69
1, 202818, Note_on_c, 0, 61, 52
1, 202845, Note_on_c, 0, 64, 11
1, 202856, Note_off_c, 0, 61, 58
1, 202874, Note_on_c, 0, 73, 73
1, 202907, Note_off_c, 0, 64, 54
1, 202908, Note_off_c, 0, 74, 60
1, 202912, Note_off_c, 0, 76, 35
1, 202955, Note_on_c, 0, 72, 71
1, 202959, Note_off_c, 0, 73, 65
1, 203016, Note_off_c, 0, 72, 63
1, 203026, Note_on_c, 0, 71, 76
1, 203045, Note_on_c, 0, 61, 62
1, 203055, Note_on_c, 0, 64, 5
1, 203070, Note_off_c, 0, 61, 65
1, 203091, Note_off_c, 0, 71, 59
1, 203104, Note_on_c, 0, 70, 75
1, 203117, Note_off_c, 0, 64, 52
1, 203169, Note_off_c, 0, 70, 64
1, 203181, Note_on_c, 0, 69, 76
1, 203212, Note_off_c, 0, 69, 62
1, 203294, Control_c, 0, 64, 117
1, 203309, Control_c, 0, 64, 86
1, 203324, Control_c, 0, 64, 69
1, 203332, Note_on_c, 0, 40, 50
1, 203339, Control_c, 0, 64, 0
1, 203348, Note_on_c, 0, 78, 74
1, 203363, Note_on_c, 0, 69, 62
1, 203383, Control_c, 0, 64, 63
1, 203392, Note_off_c, 0, 40, 59
1, 203398, Control_c, 0, 64, 75
1, 203413, Control_c, 0, 64, 91
1, 203428, Control_c, 0, 64, 127
1, 203437, Note_off_c, 0, 78, 61
1, 203448, Note_on_c, 0, 80, 66
1, 203531, Note_on_c, 0, 78, 62
1, 203562, Control_c, 0, 64, 101
1, 203566, Note_off_c, 0, 69, 38
1, 203577, Control_c, 0, 64, 79
1, 203591, Note_off_c, 0, 80, 58
1, 203591, Control_c, 0, 64, 40
1, 203600, Note_on_c, 0, 77, 65
1, 203606, Control_c, 0, 64, 0
1, 203619, Note_on_c, 0, 59, 49
1, 203639, Note_off_c, 0, 78, 51
1, 203640, Note_on_c, 0, 64, 21
1, 203663, Note_off_c, 0, 59, 60
1, 203681, Note_off_c, 0, 77, 62
1, 203684, Note_on_c, 0, 79, 65
1, 203687, Note_off_c, 0, 64, 44
1, 203758, Note_off_c, 0, 79, 61
1, 203776, Note_on_c, 0, 77, 52
1, 203810, Note_off_c, 0, 77, 65
1, 203887, Note_on_c, 0, 76, 50
1, 203899, Note_on_c, 0, 68, 46
1, 203928, Note_on_c, 0, 59, 36
1, 203938, Control_c, 0, 64, 57
1, 203940, Note_off_c, 0, 68, 64
1, 203952, Note_off_c, 0, 76, 62
1, 203953, Control_c, 0, 64, 69
1, 203968, Poly_aftertouch_c, 0, 62, 127
1, 203968, Control_c, 0, 64, 83
1, 203971, Poly_aftertouch_c, 0, 64, 127
1, 203978, Note_off_c, 0, 59, 56
1, 203983, Control_c, 0, 64, 105
1, 203997, Control_c, 0, 64, 127
1, 204014, Poly_aftertouch_c, 0, 64, 0
1, 204026, Poly_aftertouch_c, 0, 62, 0
1, 204214, Note_on_c, 0, 52, 40
1, 204251, Note_off_c, 0, 52, 54
1, 204341, Note_on_c, 0, 88, 50
1, 204342, Note_on_c, 0, 80, 48
1, 204375, Note_off_c, 0, 88, 61
1, 204382, Note_off_c, 0, 80, 58
1, 204406, Control_c, 0, 64, 94
1, 204421, Control_c, 0, 64, 76
1, 204436, Control_c, 0, 64, 53
1, 204450, Control_c, 0, 64, 0
1, 204462, Note_on_c, 0, 89, 69
1, 204466, Note_on_c, 0, 81, 60
1, 204478, Note_on_c, 0, 59, 45
1, 204486, Note_off_c, 0, 81, 66
1, 204491, Note_off_c, 0, 89, 65
1, 204512, Note_off_c, 0, 59, 61
1, 204571, Note_on_c, 0, 90, 69
1, 204578, Note_on_c, 0, 82, 64
1, 204599, Note_off_c, 0, 90, 65
1, 204607, Note_off_c, 0, 82, 65
1, 204675, Note_on_c, 0, 91, 73
1, 204683, Note_on_c, 0, 83, 66
1, 204695, Note_on_c, 0, 59, 51
1, 204705, Note_off_c, 0, 91, 62
1, 204708, Note_off_c, 0, 83, 68
1, 204719, Note_off_c, 0, 59, 61
1, 204791, Note_on_c, 0, 92, 72
1, 204804, Note_on_c, 0, 84, 55
1, 204823, Note_off_c, 0, 84, 63
1, 204836, Note_off_c, 0, 92, 67
1, 204937, Note_on_c, 0, 93, 72
1, 204939, Control_c, 0, 64, 29
1, 204951, Note_on_c, 0, 85, 60
1, 204953, Note_on_c, 0, 45, 40
1, 204954, Control_c, 0, 64, 61
1, 204960, Note_off_c, 0, 93, 68
1, 204968, Note_off_c, 0, 85, 66
1, 204969, Control_c, 0, 64, 68
1, 204984, Control_c, 0, 64, 75
1, 204996, Note_off_c, 0, 45, 62
1, 204999, Control_c, 0, 64, 85
1, 205014, Control_c, 0, 64, 109
1, 205029, Control_c, 0, 64, 127
1, 205313, Note_on_c, 0, 57, 38
1, 205327, Note_on_c, 0, 61, 34
1, 205355, Note_off_c, 0, 57, 61
1, 205379, Note_off_c, 0, 61, 53
1, 205422, Control_c, 0, 67, 127
1, 205437, Control_c, 0, 67, 123
1, 205451, Control_c, 0, 67, 117
1, 205466, Control_c, 0, 67, 107
1, 205481, Control_c, 0, 67, 97
1, 205495, Control_c, 0, 67, 86
1, 205510, Control_c, 0, 67, 77
1, 205525, Control_c, 0, 67, 68
1, 205540, Control_c, 0, 67, 58
1, 205555, Control_c, 0, 67, 49
1, 205569, Control_c, 0, 67, 38
1, 205584, Control_c, 0, 67, 28
1, 205599, Control_c, 0, 67, 18
1, 205600, Note_on_c, 0, 64, 41
1, 205614, Control_c, 0, 67, 8
1, 205619, Note_on_c, 0, 61, 38
1, 205629, Control_c, 0, 67, 0
1, 205636, Note_off_c, 0, 64, 54
1, 205656, Note_off_c, 0, 61, 61
1, 205665, Note_on_c, 0, 69, 55
1, 205822, Control_c, 0, 64, 103
1, 205837, Control_c, 0, 64, 80
1, 205852, Control_c, 0, 64, 64
1, 205866, Control_c, 0, 64, 53
1, 205875, Note_on_c, 0, 45, 51
1, 205881, Control_c, 0, 64, 65
1, 205905, Control_c, 0, 64, 73
1, 205920, Control_c, 0, 64, 86
1, 205934, Control_c, 0, 64, 127
1, 205935, Note_off_c, 0, 45, 62
1, 206021, Note_off_c, 0, 69, 58
1, 206168, Note_on_c, 0, 61, 35
1, 206171, Note_on_c, 0, 57, 30
1, 206184, Note_on_c, 0, 73, 66
1, 206185, Note_on_c, 0, 64, 36
1, 206259, Note_off_c, 0, 64, 50
1, 206274, Note_off_c, 0, 57, 38
1, 206280, Note_off_c, 0, 73, 63
1, 206281, Note_on_c, 0, 72, 67
1, 206316, Note_off_c, 0, 61, 42
1, 206367, Note_on_c, 0, 73, 81
1, 206402, Note_off_c, 0, 72, 62
1, 206454, Note_on_c, 0, 76, 75
1, 206456, Note_on_c, 0, 61, 39
1, 206460, Note_off_c, 0, 73, 62
1, 206475, Note_on_c, 0, 57, 38
1, 206484, Poly_aftertouch_c, 0, 64, 127
1, 206502, Note_off_c, 0, 61, 57
1, 206514, Note_off_c, 0, 57, 63
1, 206529, Poly_aftertouch_c, 0, 64, 0
1, 206540, Note_on_c, 0, 75, 71
1, 206570, Note_off_c, 0, 76, 58
1, 206630, Note_on_c, 0, 73, 75
1, 206656, Note_off_c, 0, 75, 60
1, 206707, Note_off_c, 0, 73, 62
1, 206744, Note_on_c, 0, 49, 53
1, 206772, Control_c, 0, 64, 92
1, 206787, Control_c, 0, 64, 70
1, 206802, Control_c, 0, 64, 0
1, 206820, Note_on_c, 0, 73, 75
1, 206876, Control_c, 0, 64, 56
1, 206891, Control_c, 0, 64, 68
1, 206905, Control_c, 0, 64, 78
1, 206912, Note_off_c, 0, 49, 62
1, 206920, Control_c, 0, 64, 97
1, 206935, Control_c, 0, 64, 127
1, 207126, Note_off_c, 0, 73, 51
1, 207156, Note_on_c, 0, 61, 36
1, 207163, Note_on_c, 0, 56, 40
1, 207176, Note_on_c, 0, 65, 35
1, 207229, Note_off_c, 0, 56, 56
1, 207238, Note_off_c, 0, 65, 54
1, 207275, Note_off_c, 0, 61, 36
1, 207479, Note_on_c, 0, 73, 64
1, 207482, Note_on_c, 0, 56, 44
1, 207533, Note_off_c, 0, 56, 63
1, 207683, Control_c, 0, 64, 98
1, 207698, Control_c, 0, 64, 78
1, 207712, Control_c, 0, 64, 63
1, 207727, Control_c, 0, 64, 0
1, 207729, Note_on_c, 0, 80, 69
1, 207746, Note_on_c, 0, 49, 54
1, 207757, Control_c, 0, 64, 42
1, 207771, Control_c, 0, 64, 65
1, 207786, Control_c, 0, 64, 75
1, 207792, Note_off_c, 0, 49, 60
1, 207794, Note_off_c, 0, 73, 61
1, 207801, Control_c, 0, 64, 92
1, 207816, Control_c, 0, 64, 127
1, 207818, Note_on_c, 0, 72, 67
1, 207894, Note_on_c, 0, 73, 67
1, 207919, Note_off_c, 0, 72, 60
1, 207962, Note_on_c, 0, 77, 67
1, 207964, Control_c, 0, 64, 95
1, 207973, Note_on_c, 0, 56, 50
1, 207973, Note_on_c, 0, 61, 51
1, 207978, Note_off_c, 0, 73, 59
1, 207979, Control_c, 0, 64, 76
1, 207980, Note_on_c, 0, 65, 46
1, 207994, Control_c, 0, 64, 49
1, 208009, Control_c, 0, 64, 0
1, 208010, Note_off_c, 0, 56, 64
1, 208015, Note_off_c, 0, 61, 59
1, 208021, Note_off_c, 0, 65, 63
1, 208039, Note_off_c, 0, 77, 64
1, 208041, Note_on_c, 0, 78, 69
1, 208082, Control_c, 0, 67, 8
1, 208097, Control_c, 0, 67, 9
1, 208112, Control_c, 0, 67, 9
1, 208116, Note_on_c, 0, 77, 66
1, 208150, Control_c, 0, 67, 10
1, 208153, Note_off_c, 0, 80, 55
1, 208164, Control_c, 0, 67, 11
1, 208179, Control_c, 0, 67, 12
1, 208194, Note_off_c, 0, 78, 57
1, 208194, Control_c, 0, 67, 13
1, 208199, Note_on_c, 0, 56, 52
1, 208204, Note_on_c, 0, 75, 70
1, 208209, Control_c, 0, 67, 16
1, 208210, Note_on_c, 0, 61, 28
1, 208214, Note_off_c, 0, 77, 62
1, 208224, Control_c, 0, 67, 19
1, 208236, Note_off_c, 0, 56, 65
1, 208239, Control_c, 0, 67, 21
1, 208251, Note_off_c, 0, 61, 43
1, 208254, Control_c, 0, 67, 23
1, 208265, Note_off_c, 0, 75, 64
1, 208269, Control_c, 0, 67, 25
1, 208273, Note_on_c, 0, 74, 76
1, 208284, Control_c, 0, 67, 26
1, 208299, Control_c, 0, 67, 28
1, 208313, Control_c, 0, 67, 30
1, 208316, Note_off_c, 0, 74, 50
1, 208328, Control_c, 0, 67, 33
1, 208343, Control_c, 0, 67, 36
1, 208344, Note_on_c, 0, 73, 83
1, 208358, Control_c, 0, 67, 39
1, 208373, Control_c, 0, 67, 41
1, 208387, Control_c, 0, 67, 42
1, 208392, Note_off_c, 0, 73, 64
1, 208402, Control_c, 0, 67, 42
1, 208417, Control_c, 0, 64, 64
1, 208417, Control_c, 0, 67, 43
1, 208420, Note_on_c, 0, 80, 70
1, 208422, Note_on_c, 0, 44, 59
1, 208426, Note_on_c, 0, 73, 65
1, 208432, Control_c, 0, 64, 81
1, 208447, Control_c, 0, 64, 117
1, 208447, Control_c, 0, 67, 43
1, 208453, Note_off_c, 0, 44, 64
1, 208461, Control_c, 0, 64, 127
1, 208487, Note_off_c, 0, 73, 58
1, 208495, Note_on_c, 0, 75, 72
1, 208521, Note_off_c, 0, 80, 60
1, 208558, Note_off_c, 0, 75, 64
1, 208569, Note_on_c, 0, 73, 73
1, 208594, Control_c, 0, 67, 44
1, 208599, Note_off_c, 0, 73, 58
1, 208639, Control_c, 0, 64, 95
1, 208652, Note_on_c, 0, 70, 67
1, 208654, Control_c, 0, 64, 76
1, 208657, Note_on_c, 0, 56, 56
1, 208665, Note_on_c, 0, 66, 48
1, 208668, Control_c, 0, 64, 56
1, 208683, Note_on_c, 0, 63, 35
1, 208683, Control_c, 0, 64, 0
1, 208691, Note_off_c, 0, 56, 64
1, 208699, Note_off_c, 0, 66, 57
1, 208708, Note_off_c, 0, 70, 63
1, 208717, Note_off_c, 0, 63, 55
1, 208728, Note_on_c, 0, 69, 64
1, 208728, Control_c, 0, 67, 44
1, 208763, Note_off_c, 0, 69, 57
1, 208793, Note_on_c, 0, 70, 64
1, 208824, Note_off_c, 0, 70, 65
1, 208892, Note_on_c, 0, 80, 65
1, 208905, Note_on_c, 0, 72, 62
1, 208906, Note_on_c, 0, 56, 46
1, 208913, Control_c, 0, 64, 66
1, 208928, Control_c, 0, 64, 83
1, 208943, Control_c, 0, 64, 127
1, 208950, Note_off_c, 0, 72, 60
1, 208954, Poly_aftertouch_c, 0, 63, 127
1, 208958, Control_c, 0, 67, 45
1, 208964, Note_off_c, 0, 56, 61
1, 208973, Control_c, 0, 67, 45
1, 208981, Note_off_c, 0, 80, 61
1, 208988, Control_c, 0, 67, 47
1, 208996, Poly_aftertouch_c, 0, 63, 0
1, 209002, Control_c, 0, 67, 49
1, 209018, Control_c, 0, 67, 50
1, 209033, Control_c, 0, 67, 51
1, 209048, Control_c, 0, 67, 52
1, 209063, Control_c, 0, 67, 53
1, 209078, Control_c, 0, 67, 54
1, 209092, Control_c, 0, 67, 55
1, 209107, Control_c, 0, 67, 55
1, 209122, Control_c, 0, 67, 56
1, 209138, Note_on_c, 0, 44, 66
1, 209164, Note_off_c, 0, 44, 65
1, 209250, Note_on_c, 0, 92, 70
1, 209254, Note_on_c, 0, 84, 56
1, 209271, Control_c, 0, 67, 56
1, 209285, Note_off_c, 0, 84, 65
1, 209285, Note_off_c, 0, 92, 63
1, 209365, Note_on_c, 0, 93, 75
1, 209366, Note_on_c, 0, 56, 56
1, 209370, Note_on_c, 0, 66, 54
1, 209374, Control_c, 0, 67, 57
1, 209389, Note_on_c, 0, 63, 49
1, 209389, Control_c, 0, 64, 108
1, 209404, Note_off_c, 0, 56, 61
1, 209404, Control_c, 0, 64, 86
1, 209409, Note_off_c, 0, 66, 59
1, 209412, Note_off_c, 0, 93, 63
1, 209418, Control_c, 0, 64, 68
1, 209420, Note_off_c, 0, 63, 58
1, 209433, Control_c, 0, 64, 0
1, 209433, Control_c, 0, 67, 57
1, 209455, Note_on_c, 0, 94, 80
1, 209462, Control_c, 0, 67, 58
1, 209470, Note_on_c, 0, 86, 51
1, 209477, Control_c, 0, 67, 58
1, 209491, Note_off_c, 0, 86, 62
1, 209492, Control_c, 0, 67, 59
1, 209506, Note_off_c, 0, 94, 65
1, 209507, Control_c, 0, 67, 60
1, 209536, Control_c, 0, 67, 60
1, 209564, Note_on_c, 0, 95, 89
1, 209571, Note_on_c, 0, 56, 68
1, 209580, Note_on_c, 0, 87, 69
1, 209590, Note_on_c, 0, 63, 42
1, 209601, Note_off_c, 0, 87, 61
1, 209608, Note_off_c, 0, 95, 65
1, 209610, Control_c, 0, 67, 61
1, 209613, Note_off_c, 0, 56, 61
1, 209619, Note_off_c, 0, 63, 53
1, 209670, Note_on_c, 0, 96, 82
1, 209688, Note_on_c, 0, 88, 68
1, 209712, Note_off_c, 0, 88, 68
1, 209729, Note_off_c, 0, 96, 65
1, 209751, Control_c, 0, 67, 60
1, 209781, Control_c, 0, 67, 60
1, 209786, Note_on_c, 0, 97, 93
1, 209792, Note_on_c, 0, 89, 85
1, 209796, Control_c, 0, 64, 59
1, 209796, Control_c, 0, 67, 59
1, 209812, Note_off_c, 0, 89, 70
1, 209812, Control_c, 0, 64, 74
1, 209812, Control_c, 0, 67, 57
1, 209813, Note_on_c, 0, 49, 57
1, 209816, Note_off_c, 0, 97, 65
1, 209827, Control_c, 0, 64, 99
1, 209827, Control_c, 0, 67, 55
1, 209841, Control_c, 0, 64, 127
1, 209841, Control_c, 0, 67, 54
1, 209843, Note_off_c, 0, 49, 64
1, 209856, Control_c, 0, 67, 51
1, 209871, Control_c, 0, 67, 49
1, 209886, Control_c, 0, 67, 46
1, 209901, Control_c, 0, 67, 40
1, 209915, Control_c, 0, 67, 29
1, 209930, Control_c, 0, 67, 17
1, 209945, Control_c, 0, 67, 0
1, 210059, Note_on_c, 0, 56, 46
1, 210080, Note_on_c, 0, 65, 36
1, 210087, Note_on_c, 0, 61, 26
1, 210099, Note_off_c, 0, 56, 61
1, 210114, Note_off_c, 0, 65, 56
1, 210129, Note_off_c, 0, 61, 49
1, 210312, Note_on_c, 0, 73, 66
1, 210331, Note_on_c, 0, 56, 48
1, 210377, Note_off_c, 0, 56, 63
1, 210486, Control_c, 0, 67, 8
1, 210500, Control_c, 0, 67, 9
1, 210515, Control_c, 0, 67, 11
1, 210530, Control_c, 0, 67, 13
1, 210545, Control_c, 0, 67, 15
1, 210560, Control_c, 0, 67, 16
1, 210574, Control_c, 0, 64, 91
1, 210574, Control_c, 0, 67, 17
1, 210585, Note_on_c, 0, 80, 70
1, 210589, Control_c, 0, 64, 71
1, 210589, Control_c, 0, 67, 18
1, 210604, Control_c, 0, 64, 0
1, 210604, Control_c, 0, 67, 20
1, 210609, Note_on_c, 0, 49, 53
1, 210620, Control_c, 0, 67, 23
1, 210635, Control_c, 0, 67, 25
1, 210650, Control_c, 0, 67, 27
1, 210661, Note_off_c, 0, 73, 63
1, 210664, Control_c, 0, 64, 55
1, 210664, Control_c, 0, 67, 29
1, 210676, Note_off_c, 0, 49, 61
1, 210679, Control_c, 0, 64, 70
1, 210679, Control_c, 0, 67, 30
1, 210689, Note_on_c, 0, 72, 63
1, 210694, Control_c, 0, 64, 84
1, 210694, Control_c, 0, 67, 32
1, 210709, Control_c, 0, 64, 113
1, 210709, Control_c, 0, 67, 33
1, 210723, Control_c, 0, 64, 127
1, 210723, Control_c, 0, 67, 34
1, 210738, Control_c, 0, 67, 35
1, 210753, Control_c, 0, 67, 35
1, 210764, Note_on_c, 0, 73, 70
1, 210782, Control_c, 0, 67, 36
1, 210783, Note_off_c, 0, 72, 56
1, 210812, Control_c, 0, 67, 36
1, 210834, Note_on_c, 0, 77, 66
1, 210849, Note_on_c, 0, 56, 49
1, 210850, Note_on_c, 0, 65, 48
1, 210853, Note_on_c, 0, 61, 48
1, 210855, Note_off_c, 0, 73, 55
1, 210856, Control_c, 0, 64, 104
1, 210871, Control_c, 0, 64, 81
1, 210883, Note_off_c, 0, 65, 60
1, 210886, Control_c, 0, 64, 62
1, 210887, Note_off_c, 0, 56, 62
1, 210891, Note_off_c, 0, 61, 60
1, 210901, Control_c, 0, 64, 0
1, 210907, Note_on_c, 0, 78, 72
1, 210907, Note_off_c, 0, 77, 64
1, 210916, Control_c, 0, 67, 37
1, 210946, Control_c, 0, 67, 38
1, 210961, Control_c, 0, 67, 39
1, 210976, Control_c, 0, 67, 41
1, 210984, Note_on_c, 0, 77, 64
1, 210990, Control_c, 0, 67, 42
1, 211005, Control_c, 0, 67, 44
1, 211005, Note_off_c, 0, 80, 56
1, 211020, Control_c, 0, 67, 44
1, 211035, Control_c, 0, 67, 45
1, 211041, Note_off_c, 0, 78, 61
1, 211050, Control_c, 0, 67, 45
1, 211057, Note_on_c, 0, 75, 72
1, 211058, Note_on_c, 0, 56, 56
1, 211064, Control_c, 0, 67, 46
1, 211065, Note_off_c, 0, 77, 64
1, 211072, Note_on_c, 0, 61, 31
1, 211079, Control_c, 0, 67, 47
1, 211092, Note_off_c, 0, 56, 65
1, 211094, Control_c, 0, 67, 48
1, 211108, Control_c, 0, 67, 49
1, 211112, Note_off_c, 0, 61, 43
1, 211114, Note_off_c, 0, 75, 64
1, 211123, Control_c, 0, 67, 50
1, 211126, Note_on_c, 0, 74, 75
1, 211146, Control_c, 0, 67, 52
1, 211160, Control_c, 0, 67, 53
1, 211166, Note_off_c, 0, 74, 54
1, 211175, Control_c, 0, 67, 54
1, 211190, Control_c, 0, 67, 56
1, 211201, Note_on_c, 0, 73, 78
1, 211205, Control_c, 0, 67, 58
1, 211220, Control_c, 0, 67, 61
1, 211235, Control_c, 0, 67, 65
1, 211240, Note_off_c, 0, 73, 63
1, 211250, Control_c, 0, 67, 69
1, 211264, Control_c, 0, 67, 72
1, 211279, Control_c, 0, 64, 56
1, 211279, Control_c, 0, 67, 74
1, 211280, Note_on_c, 0, 73, 69
1, 211284, Note_on_c, 0, 80, 70
1, 211291, Note_on_c, 0, 44, 51
1, 211294, Control_c, 0, 64, 73
1, 211294, Control_c, 0, 67, 77
1, 211309, Control_c, 0, 64, 91
1, 211309, Control_c, 0, 67, 80
1, 211318, Note_off_c, 0, 73, 61
1, 211323, Note_off_c, 0, 44, 63
1, 211323, Control_c, 0, 64, 127
1, 211323, Control_c, 0, 67, 84
1, 211338, Control_c, 0, 67, 86
1, 211353, Control_c, 0, 67, 90
1, 211354, Note_on_c, 0, 75, 71
1, 211367, Note_off_c, 0, 80, 55
1, 211368, Control_c, 0, 67, 93
1, 211383, Control_c, 0, 67, 95
1, 211397, Control_c, 0, 67, 97
1, 211405, Note_off_c, 0, 75, 63
1, 211413, Control_c, 0, 67, 100
1, 211418, Note_on_c, 0, 73, 81
1, 211428, Control_c, 0, 67, 103
1, 211443, Control_c, 0, 67, 106
1, 211458, Note_off_c, 0, 73, 60
1, 211458, Control_c, 0, 67, 109
1, 211473, Control_c, 0, 67, 112
1, 211487, Control_c, 0, 67, 114
1, 211502, Control_c, 0, 64, 99
1, 211502, Control_c, 0, 67, 116
1, 211503, Note_on_c, 0, 70, 73
1, 211515, Note_on_c, 0, 56, 54
1, 211517, Control_c, 0, 64, 80
1, 211517, Control_c, 0, 67, 119
1, 211528, Note_on_c, 0, 63, 48
1, 211529, Note_on_c, 0, 66, 45
1, 211532, Control_c, 0, 64, 63
1, 211532, Control_c, 0, 67, 121
1, 211542, Note_off_c, 0, 56, 59
1, 211546, Control_c, 0, 64, 0
1, 211546, Control_c, 0, 67, 124
1, 211556, Note_off_c, 0, 66, 56
1, 211558, Note_off_c, 0, 70, 63
1, 211561, Control_c, 0, 67, 126
1, 211562, Note_off_c, 0, 63, 64
1, 211576, Control_c, 0, 67, 127
1, 211579, Note_on_c, 0, 69, 61
1, 211609, Note_off_c, 0, 69, 57
1, 211648, Note_on_c, 0, 70, 66
1, 211687, Note_off_c, 0, 70, 64
1, 211732, Note_on_c, 0, 56, 49
1, 211739, Note_on_c, 0, 80, 65
1, 211739, Control_c, 0, 64, 40
1, 211748, Note_on_c, 0, 72, 55
1, 211754, Control_c, 0, 64, 67
1, 211769, Control_c, 0, 64, 85
1, 211780, Note_off_c, 0, 72, 64
1, 211783, Control_c, 0, 64, 127
1, 211786, Note_off_c, 0, 56, 63
1, 211819, Note_off_c, 0, 80, 63
1, 211984, Note_on_c, 0, 44, 58
1, 212015, Note_off_c, 0, 44, 64
1, 212083, Note_on_c, 0, 92, 71
1, 212099, Note_on_c, 0, 84, 48
1, 212123, Note_off_c, 0, 84, 60
1, 212137, Note_off_c, 0, 92, 64
1, 212210, Note_on_c, 0, 93, 76
1, 212217, Note_on_c, 0, 56, 54
1, 212217, Note_on_c, 0, 66, 55
1, 212240, Note_on_c, 0, 63, 44
1, 212257, Note_off_c, 0, 56, 59
1, 212257, Note_off_c, 0, 66, 57
1, 212258, Note_off_c, 0, 93, 63
1, 212280, Note_off_c, 0, 63, 59
1, 212281, Control_c, 0, 64, 110
1, 212296, Control_c, 0, 64, 92
1, 212304, Note_on_c, 0, 94, 80
1, 212305, Note_on_c, 0, 86, 62
1, 212310, Control_c, 0, 64, 77
1, 212325, Control_c, 0, 64, 63
1, 212338, Note_off_c, 0, 86, 66
1, 212340, Control_c, 0, 64, 0
1, 212351, Note_off_c, 0, 94, 64
1, 212410, Note_on_c, 0, 95, 85
1, 212421, Note_on_c, 0, 87, 70
1, 212423, Note_on_c, 0, 56, 61
1, 212432, Note_on_c, 0, 63, 43
1, 212450, Note_off_c, 0, 87, 63
1, 212454, Note_off_c, 0, 95, 66
1, 212460, Note_off_c, 0, 63, 57
1, 212464, Note_off_c, 0, 56, 63
1, 212509, Note_on_c, 0, 96, 89
1, 212522, Note_on_c, 0, 88, 76
1, 212545, Note_off_c, 0, 88, 68
1, 212560, Note_off_c, 0, 96, 66
1, 212634, Note_on_c, 0, 97, 95
1, 212640, Note_on_c, 0, 89, 85
1, 212643, Control_c, 0, 64, 23
1, 212658, Note_off_c, 0, 89, 71
1, 212658, Control_c, 0, 64, 66
1, 212663, Note_on_c, 0, 49, 53
1, 212672, Note_off_c, 0, 97, 64
1, 212673, Control_c, 0, 64, 82
1, 212687, Control_c, 0, 64, 127
1, 212696, Note_off_c, 0, 49, 64
1, 212791, Control_c, 0, 67, 125
1, 212806, Control_c, 0, 67, 114
1, 212821, Control_c, 0, 67, 100
1, 212836, Control_c, 0, 67, 82
1, 212851, Control_c, 0, 67, 61
1, 212866, Control_c, 0, 67, 46
1, 212880, Control_c, 0, 67, 34
1, 212895, Control_c, 0, 67, 24
1, 212910, Control_c, 0, 67, 13
1, 212925, Control_c, 0, 67, 0
1, 212929, Note_on_c, 0, 56, 37
1, 212937, Note_on_c, 0, 65, 37
1, 212944, Note_on_c, 0, 61, 28
1, 212975, Note_off_c, 0, 56, 57
1, 212988, Note_off_c, 0, 65, 58
1, 213008, Note_off_c, 0, 61, 42
1, 213179, Note_on_c, 0, 73, 72
1, 213186, Note_on_c, 0, 56, 49
1, 213238, Note_off_c, 0, 56, 60
1, 213340, Control_c, 0, 67, 8
1, 213355, Control_c, 0, 67, 11
1, 213370, Control_c, 0, 67, 14
1, 213392, Control_c, 0, 67, 19
1, 213407, Control_c, 0, 67, 24
1, 213422, Control_c, 0, 64, 114
1, 213422, Control_c, 0, 67, 29
1, 213437, Control_c, 0, 64, 87
1, 213437, Control_c, 0, 67, 34
1, 213452, Control_c, 0, 64, 70
1, 213452, Control_c, 0, 67, 39
1, 213465, Note_on_c, 0, 49, 59
1, 213466, Control_c, 0, 64, 50
1, 213466, Control_c, 0, 67, 44
1, 213481, Control_c, 0, 67, 49
1, 213496, Control_c, 0, 64, 65
1, 213496, Control_c, 0, 67, 56
1, 213499, Note_off_c, 0, 73, 61
1, 213510, Control_c, 0, 64, 75
1, 213510, Control_c, 0, 67, 63
1, 213525, Control_c, 0, 64, 92
1, 213525, Control_c, 0, 67, 70
1, 213540, Control_c, 0, 64, 127
1, 213540, Control_c, 0, 67, 77
1, 213555, Control_c, 0, 67, 84
1, 213570, Control_c, 0, 67, 90
1, 213584, Control_c, 0, 67, 97
1, 213593, Note_off_c, 0, 49, 62
1, 213596, Note_on_c, 0, 85, 65
1, 213597, Note_on_c, 0, 76, 75
1, 213599, Control_c, 0, 67, 104
1, 213614, Control_c, 0, 67, 111
1, 213629, Control_c, 0, 67, 118
1, 213644, Control_c, 0, 67, 126
1, 213657, Note_off_c, 0, 76, 61
1, 213658, Control_c, 0, 67, 127
1, 213676, Note_off_c, 0, 85, 60
1, 213774, Note_on_c, 0, 77, 70
1, 213777, Note_on_c, 0, 85, 70
1, 213793, Note_on_c, 0, 56, 36
1, 213805, Note_on_c, 0, 61, 35
1, 213815, Note_off_c, 0, 85, 59
1, 213820, Note_off_c, 0, 77, 59
1, 213834, Poly_aftertouch_c, 0, 65, 127
1, 213896, Note_off_c, 0, 56, 36
1, 213909, Note_on_c, 0, 78, 70
1, 213914, Note_on_c, 0, 85, 70
1, 213929, Note_off_c, 0, 61, 34
1, 213933, Poly_aftertouch_c, 0, 65, 0
1, 213951, Note_off_c, 0, 85, 55
1, 213958, Note_off_c, 0, 78, 56
1, 214030, Control_c, 0, 64, 102
1, 214043, Note_on_c, 0, 56, 38
1, 214045, Control_c, 0, 64, 84
1, 214050, Note_on_c, 0, 79, 71
1, 214060, Control_c, 0, 64, 76
1, 214066, Note_on_c, 0, 85, 50
1, 214075, Control_c, 0, 64, 75
1, 214089, Control_c, 0, 64, 79
1, 214097, Note_off_c, 0, 85, 64
1, 214103, Poly_aftertouch_c, 0, 61, 127
1, 214104, Control_c, 0, 64, 85
1, 214105, Note_off_c, 0, 79, 59
1, 214119, Control_c, 0, 64, 93
1, 214141, Note_off_c, 0, 56, 55
1, 214141, Control_c, 0, 64, 103
1, 214156, Control_c, 0, 64, 127
1, 214157, Poly_aftertouch_c, 0, 61, 0
1, 214205, Note_on_c, 0, 85, 56
1, 214206, Note_on_c, 0, 80, 69
1, 214284, Note_off_c, 0, 85, 50
1, 214316, Note_off_c, 0, 80, 37
1, 214393, Control_c, 0, 64, 116
1, 214407, Control_c, 0, 64, 93
1, 214413, Note_on_c, 0, 45, 41
1, 214422, Control_c, 0, 64, 76
1, 214437, Control_c, 0, 64, 52
1, 214452, Control_c, 0, 64, 0
1, 214466, Note_on_c, 0, 85, 56
1, 214472, Note_on_c, 0, 79, 56
1, 214526, Control_c, 0, 64, 48
1, 214541, Control_c, 0, 64, 66
1, 214556, Control_c, 0, 64, 77
1, 214556, Note_off_c, 0, 85, 63
1, 214559, Note_off_c, 0, 45, 53
1, 214566, Note_off_c, 0, 79, 63
1, 214571, Control_c, 0, 64, 92
1, 214586, Control_c, 0, 64, 127
1, 214884, Note_on_c, 0, 55, 35
1, 214901, Note_on_c, 0, 64, 34
1, 214918, Note_on_c, 0, 61, 22
1, 214949, Note_off_c, 0, 55, 57
1, 214973, Note_off_c, 0, 64, 54
1, 214979, Note_off_c, 0, 61, 44
1, 215142, Control_c, 0, 64, 120
1, 215156, Control_c, 0, 64, 89
1, 215171, Control_c, 0, 64, 70
1, 215172, Note_on_c, 0, 85, 54
1, 215180, Note_on_c, 0, 73, 49
1, 215182, Note_on_c, 0, 55, 43
1, 215186, Control_c, 0, 64, 0
1, 215225, Note_off_c, 0, 55, 64
1, 215409, Control_c, 0, 64, 62
1, 215424, Control_c, 0, 64, 70
1, 215437, Note_off_c, 0, 73, 61
1, 215439, Control_c, 0, 64, 78
1, 215453, Control_c, 0, 64, 88
1, 215456, Note_on_c, 0, 45, 43
1, 215458, Note_off_c, 0, 85, 62
1, 215468, Control_c, 0, 64, 110
1, 215483, Control_c, 0, 64, 127
1, 215492, Note_off_c, 0, 45, 63
1, 215578, Note_on_c, 0, 85, 59
1, 215580, Note_on_c, 0, 76, 57
1, 215634, Note_off_c, 0, 76, 57
1, 215647, Note_off_c, 0, 85, 58
1, 215767, Note_on_c, 0, 85, 60
1, 215781, Note_on_c, 0, 55, 43
1, 215787, Note_on_c, 0, 79, 49
1, 215804, Note_on_c, 0, 64, 32
1, 215819, Note_on_c, 0, 61, 30
1, 215841, Note_off_c, 0, 79, 44
1, 215846, Note_off_c, 0, 55, 54
1, 215865, Note_on_c, 0, 83, 62
1, 215865, Note_off_c, 0, 64, 54
1, 215882, Note_off_c, 0, 61, 42
1, 215928, Note_off_c, 0, 85, 41
1, 215951, Note_on_c, 0, 82, 72
1, 215961, Note_off_c, 0, 83, 64
1, 216038, Note_off_c, 0, 82, 65
1, 216047, Note_on_c, 0, 85, 70
1, 216049, Note_on_c, 0, 81, 70
1, 216055, Note_on_c, 0, 55, 39
1, 216078, Poly_aftertouch_c, 0, 61, 127
1, 216091, Note_off_c, 0, 55, 64
1, 216097, Note_off_c, 0, 81, 63
1, 216122, Poly_aftertouch_c, 0, 61, 0
1, 216137, Note_on_c, 0, 80, 74
1, 216167, Note_off_c, 0, 85, 63
1, 216218, Note_off_c, 0, 80, 63
1, 216225, Note_on_c, 0, 79, 75
1, 216251, Note_off_c, 0, 79, 65
1, 216350, Control_c, 0, 64, 100
1, 216361, Note_on_c, 0, 38, 50
1, 216365, Control_c, 0, 64, 78
1, 216387, Control_c, 0, 64, 58
1, 216401, Control_c, 0, 64, 0
1, 216433, Note_on_c, 0, 90, 58
1, 216446, Control_c, 0, 64, 30
1, 216448, Note_on_c, 0, 78, 47
1, 216455, Note_off_c, 0, 38, 57
1, 216461, Control_c, 0, 64, 65
1, 216475, Control_c, 0, 64, 77
1, 216487, Note_off_c, 0, 78, 56
1, 216490, Control_c, 0, 64, 97
1, 216505, Control_c, 0, 64, 127
1, 216520, Note_off_c, 0, 90, 60
1, 216538, Note_on_c, 0, 85, 58
1, 216606, Note_off_c, 0, 85, 62
1, 216622, Note_on_c, 0, 86, 59
1, 216624, Control_c, 0, 64, 100
1, 216639, Control_c, 0, 64, 77
1, 216653, Control_c, 0, 64, 42
1, 216668, Control_c, 0, 64, 0
1, 216684, Note_on_c, 0, 84, 60
1, 216687, Note_off_c, 0, 86, 62
1, 216693, Note_on_c, 0, 54, 44
1, 216693, Note_on_c, 0, 66, 43
1, 216722, Note_off_c, 0, 54, 56
1, 216723, Note_off_c, 0, 66, 55
1, 216738, Note_on_c, 0, 62, 3
1, 216762, Note_off_c, 0, 84, 64
1, 216763, Note_off_c, 0, 62, 45
1, 216769, Note_on_c, 0, 85, 63
1, 216847, Note_off_c, 0, 85, 63
1, 216852, Note_on_c, 0, 82, 63
1, 216914, Note_off_c, 0, 82, 63
1, 216946, Note_on_c, 0, 90, 63
1, 216949, Note_on_c, 0, 59, 52
1, 216955, Note_on_c, 0, 66, 40
1, 216955, Note_on_c, 0, 83, 59
1, 216982, Note_off_c, 0, 66, 59
1, 216988, Note_off_c, 0, 59, 63
1, 217207, Note_on_c, 0, 50, 50
1, 217210, Control_c, 0, 64, 56
1, 217225, Control_c, 0, 64, 71
1, 217237, Note_off_c, 0, 50, 65
1, 217239, Control_c, 0, 64, 86
1, 217254, Control_c, 0, 64, 127
1, 217264, Note_off_c, 0, 90, 64
1, 217292, Note_on_c, 0, 89, 56
1, 217331, Note_off_c, 0, 83, 39
1, 217367, Note_on_c, 0, 90, 66
1, 217402, Note_off_c, 0, 89, 39
1, 217432, Control_c, 0, 64, 101
1, 217434, Note_off_c, 0, 90, 63
1, 217445, Note_on_c, 0, 93, 71
1, 217447, Control_c, 0, 64, 77
1, 217457, Note_on_c, 0, 66, 51
1, 217459, Note_on_c, 0, 83, 49
1, 217462, Control_c, 0, 64, 0
1, 217466, Note_on_c, 0, 62, 54
1, 217489, Note_off_c, 0, 66, 61
1, 217501, Note_off_c, 0, 62, 62
1, 217516, Note_off_c, 0, 93, 65
1, 217517, Note_on_c, 0, 95, 78
1, 217593, Note_on_c, 0, 93, 71
1, 217628, Note_off_c, 0, 95, 62
1, 217667, Note_off_c, 0, 93, 65
1, 217668, Note_on_c, 0, 62, 46
1, 217668, Note_on_c, 0, 92, 78
1, 217694, Note_off_c, 0, 62, 60
1, 217697, Note_off_c, 0, 83, 34
1, 217728, Note_off_c, 0, 92, 66
1, 217737, Poly_aftertouch_c, 0, 66, 0
1, 217739, Note_on_c, 0, 91, 82
1, 217811, Note_on_c, 0, 90, 77
1, 217816, Note_off_c, 0, 91, 65
1, 217848, Note_off_c, 0, 90, 65
1, 217903, Note_on_c, 0, 88, 75
1, 217910, Note_on_c, 0, 83, 66
1, 217911, Note_on_c, 0, 52, 49
1, 217913, Control_c, 0, 64, 45
1, 217928, Control_c, 0, 64, 68
1, 217943, Control_c, 0, 64, 84
1, 217946, Note_off_c, 0, 52, 58
1, 217958, Control_c, 0, 64, 105
1, 217960, Note_off_c, 0, 83, 56
1, 217969, Note_on_c, 0, 85, 70
1, 217973, Control_c, 0, 64, 127
1, 218034, Note_off_c, 0, 85, 64
1, 218052, Note_on_c, 0, 83, 69
1, 218076, Control_c, 0, 64, 113
1, 218091, Control_c, 0, 64, 91
1, 218106, Control_c, 0, 64, 73
1, 218112, Note_off_c, 0, 83, 59
1, 218121, Control_c, 0, 64, 33
1, 218123, Note_on_c, 0, 82, 65
1, 218127, Note_on_c, 0, 61, 54
1, 218136, Control_c, 0, 64, 0
1, 218153, Note_on_c, 0, 64, 14
1, 218160, Note_off_c, 0, 61, 62
1, 218177, Note_off_c, 0, 82, 62
1, 218179, Note_on_c, 0, 83, 52
1, 218195, Note_off_c, 0, 64, 39
1, 218205, Note_off_c, 0, 88, 54
1, 218258, Note_off_c, 0, 83, 65
1, 218279, Note_on_c, 0, 82, 56
1, 218333, Note_off_c, 0, 82, 56
1, 218362, Note_on_c, 0, 88, 63
1, 218377, Note_on_c, 0, 81, 54
1, 218395, Note_on_c, 0, 61, 45
1, 218422, Note_off_c, 0, 61, 58
1, 218644, Note_on_c, 0, 40, 52
1, 218648, Note_off_c, 0, 88, 63
1, 218648, Control_c, 0, 64, 61
1, 218657, Note_off_c, 0, 81, 64
1, 218663, Control_c, 0, 64, 72
1, 218678, Control_c, 0, 64, 85
1, 218680, Note_off_c, 0, 40, 64
1, 218693, Control_c, 0, 64, 109
1, 218708, Control_c, 0, 64, 127
1, 218904, Note_on_c, 0, 76, 76
1, 218928, Note_on_c, 0, 69, 55
1, 218948, Note_on_c, 0, 61, 44
1, 218959, Note_on_c, 0, 64, 33
1, 218976, Note_off_c, 0, 69, 54
1, 218984, Note_on_c, 0, 73, 75
1, 219000, Note_off_c, 0, 61, 54
1, 219004, Note_off_c, 0, 64, 46
1, 219045, Note_off_c, 0, 76, 49
1, 219058, Note_on_c, 0, 72, 72
1, 219080, Note_off_c, 0, 73, 63
1, 219128, Note_off_c, 0, 72, 65
1, 219130, Note_on_c, 0, 71, 77
1, 219152, Note_on_c, 0, 61, 46
1, 219191, Note_off_c, 0, 61, 57
1, 219209, Note_off_c, 0, 71, 62
1, 219213, Note_on_c, 0, 70, 79
1, 219277, Note_off_c, 0, 70, 65
1, 219290, Note_on_c, 0, 69, 80
1, 219337, Note_off_c, 0, 69, 63
1, 219397, Control_c, 0, 64, 99
1, 219412, Control_c, 0, 64, 77
1, 219418, Note_on_c, 0, 52, 51
1, 219427, Control_c, 0, 64, 47
1, 219441, Control_c, 0, 64, 0
1, 219447, Note_on_c, 0, 78, 72
1, 219454, Note_on_c, 0, 69, 69
1, 219501, Control_c, 0, 64, 63
1, 219516, Control_c, 0, 64, 74
1, 219531, Control_c, 0, 64, 88
1, 219541, Note_off_c, 0, 78, 63
1, 219546, Control_c, 0, 64, 105
1, 219550, Note_on_c, 0, 80, 66
1, 219560, Control_c, 0, 64, 114
1, 219575, Control_c, 0, 64, 114
1, 219584, Note_off_c, 0, 52, 31
1, 219590, Control_c, 0, 64, 113
1, 219605, Control_c, 0, 64, 106
1, 219620, Control_c, 0, 64, 97
1, 219626, Note_on_c, 0, 78, 68
1, 219634, Control_c, 0, 64, 85
1, 219649, Control_c, 0, 64, 71
1, 219656, Note_off_c, 0, 69, 47
1, 219664, Control_c, 0, 64, 0
1, 219692, Note_off_c, 0, 80, 48
1, 219695, Note_on_c, 0, 59, 58
1, 219698, Note_off_c, 0, 78, 61
1, 219710, Note_on_c, 0, 77, 62
1, 219732, Note_off_c, 0, 59, 60
1, 219778, Note_off_c, 0, 77, 64
1, 219785, Note_on_c, 0, 79, 65
1, 219870, Note_off_c, 0, 79, 59
1, 219878, Note_on_c, 0, 77, 52
1, 219923, Note_off_c, 0, 77, 57
1, 219975, Note_on_c, 0, 76, 57
1, 219992, Note_on_c, 0, 59, 45
1, 219993, Note_on_c, 0, 68, 50
1, 220004, Control_c, 0, 64, 46
1, 220019, Control_c, 0, 64, 68
1, 220024, Note_off_c, 0, 59, 63
1, 220034, Control_c, 0, 64, 84
1, 220049, Control_c, 0, 64, 116
1, 220056, Note_off_c, 0, 68, 61
1, 220061, Note_off_c, 0, 76, 57
1, 220064, Control_c, 0, 64, 127
1, 220285, Note_on_c, 0, 40, 50
1, 220315, Note_off_c, 0, 40, 60
1, 220400, Note_on_c, 0, 88, 62
1, 220406, Note_on_c, 0, 80, 53
1, 220441, Note_off_c, 0, 88, 57
1, 220449, Note_off_c, 0, 80, 58
1, 220501, Control_c, 0, 64, 90
1, 220516, Control_c, 0, 64, 73
1, 220529, Note_on_c, 0, 89, 67
1, 220531, Control_c, 0, 64, 26
1, 220542, Note_on_c, 0, 81, 59
1, 220546, Control_c, 0, 64, 0
1, 220555, Note_on_c, 0, 59, 45
1, 220562, Note_off_c, 0, 89, 63
1, 220568, Note_on_c, 0, 64, 34
1, 220568, Note_off_c, 0, 81, 68
1, 220583, Note_off_c, 0, 59, 57
1, 220602, Note_off_c, 0, 64, 52
1, 220622, Poly_aftertouch_c, 0, 62, 0
1, 220640, Note_on_c, 0, 90, 70
1, 220655, Note_on_c, 0, 82, 60
1, 220686, Note_off_c, 0, 82, 63
1, 220687, Note_off_c, 0, 90, 54
1, 220757, Note_on_c, 0, 59, 53
1, 220758, Note_on_c, 0, 91, 70
1, 220764, Note_on_c, 0, 83, 61
1, 220783, Note_off_c, 0, 83, 67
1, 220786, Note_off_c, 0, 59, 64
1, 220794, Note_off_c, 0, 91, 64
1, 220872, Note_on_c, 0, 92, 66
1, 220881, Note_on_c, 0, 84, 57
1, 220899, Note_off_c, 0, 84, 64
1, 220922, Note_off_c, 0, 92, 62
1, 220983, Control_c, 0, 64, 14
1, 220997, Note_on_c, 0, 93, 71
1, 220998, Control_c, 0, 64, 64
1, 221004, Note_on_c, 0, 85, 64
1, 221013, Control_c, 0, 64, 72
1, 221015, Note_on_c, 0, 45, 41
1, 221018, Note_off_c, 0, 93, 71
1, 221021, Note_off_c, 0, 85, 67
1, 221028, Control_c, 0, 64, 84
1, 221043, Control_c, 0, 64, 108
1, 221049, Note_off_c, 0, 45, 56
1, 221058, Control_c, 0, 64, 127
1, 221221, Control_c, 0, 67, 122
1, 221236, Control_c, 0, 67, 114
1, 221250, Control_c, 0, 67, 104
1, 221265, Control_c, 0, 67, 92
1, 221280, Control_c, 0, 67, 81
1, 221295, Control_c, 0, 67, 72
1, 221310, Control_c, 0, 67, 64
1, 221324, Control_c, 0, 67, 56
1, 221326, Note_on_c, 0, 57, 37
1, 221334, Note_on_c, 0, 61, 45
1, 221339, Control_c, 0, 67, 47
1, 221354, Control_c, 0, 67, 38
1, 221369, Control_c, 0, 67, 29
1, 221384, Note_off_c, 0, 57, 61
1, 221384, Control_c, 0, 67, 21
1, 221394, Note_off_c, 0, 61, 55
1, 221398, Control_c, 0, 67, 11
1, 221413, Control_c, 0, 67, 0
1, 221573, Note_on_c, 0, 64, 44
1, 221586, Note_on_c, 0, 61, 47
1, 221608, Note_off_c, 0, 64, 65
1, 221623, Note_off_c, 0, 61, 64
1, 221638, Note_on_c, 0, 69, 64
1, 221777, Control_c, 0, 64, 111
1, 221792, Control_c, 0, 64, 83
1, 221808, Control_c, 0, 64, 64
1, 221822, Control_c, 0, 64, 0
1, 221852, Note_on_c, 0, 45, 56
1, 221852, Control_c, 0, 64, 56
1, 221867, Control_c, 0, 64, 67
1, 221881, Control_c, 0, 64, 78
1, 221896, Control_c, 0, 64, 95
1, 221911, Control_c, 0, 64, 127
1, 221914, Note_off_c, 0, 45, 63
1, 222074, Note_off_c, 0, 69, 60
1, 222142, Note_on_c, 0, 64, 46
1, 222155, Note_on_c, 0, 57, 43
1, 222200, Note_on_c, 0, 73, 77
1, 222273, Note_off_c, 0, 57, 50
1, 222300, Note_off_c, 0, 73, 64
1, 222303, Note_on_c, 0, 72, 73
1, 222309, Note_off_c, 0, 64, 38
1, 222395, Note_on_c, 0, 73, 83
1, 222440, Note_off_c, 0, 72, 58
1, 222462, Note_on_c, 0, 64, 32
1, 222463, Note_on_c, 0, 57, 41
1, 222483, Note_on_c, 0, 76, 76
1, 222485, Note_on_c, 0, 61, 39
1, 222491, Note_off_c, 0, 73, 62
1, 222495, Note_off_c, 0, 64, 55
1, 222522, Note_off_c, 0, 61, 57
1, 222537, Note_off_c, 0, 57, 60
1, 222571, Note_on_c, 0, 75, 73
1, 222618, Note_off_c, 0, 76, 53
1, 222660, Note_on_c, 0, 73, 75
1, 222682, Note_off_c, 0, 75, 61
1, 222739, Note_off_c, 0, 73, 62
1, 222763, Control_c, 0, 64, 119
1, 222768, Note_on_c, 0, 49, 58
1, 222777, Control_c, 0, 64, 90
1, 222792, Control_c, 0, 64, 68
1, 222807, Control_c, 0, 64, 0
1, 222837, Note_on_c, 0, 73, 80
1, 222896, Control_c, 0, 64, 59
1, 222911, Control_c, 0, 64, 72
1, 222924, Note_off_c, 0, 49, 62
1, 222926, Control_c, 0, 64, 88
1, 222941, Control_c, 0, 64, 127
1, 223135, Note_off_c, 0, 73, 48
1, 223176, Note_on_c, 0, 56, 42
1, 223191, Note_on_c, 0, 61, 38
1, 223195, Note_on_c, 0, 65, 21
1, 223254, Note_off_c, 0, 56, 53
1, 223290, Note_off_c, 0, 61, 36
1, 223325, Note_off_c, 0, 65, 38
1, 223497, Control_c, 0, 67, 8
1, 223504, Note_on_c, 0, 73, 61
1, 223511, Note_on_c, 0, 56, 45
1, 223512, Control_c, 0, 67, 10
1, 223526, Control_c, 0, 67, 11
1, 223541, Control_c, 0, 67, 13
1, 223556, Control_c, 0, 67, 15
1, 223567, Note_off_c, 0, 56, 59
1, 223571, Control_c, 0, 67, 18
1, 223573, Poly_aftertouch_c, 0, 61, 127
1, 223575, Poly_aftertouch_c, 0, 65, 0
1, 223586, Control_c, 0, 67, 20
1, 223600, Control_c, 0, 67, 22
1, 223611, Poly_aftertouch_c, 0, 61, 0
1, 223615, Control_c, 0, 67, 25
1, 223630, Control_c, 0, 67, 28
1, 223644, Control_c, 0, 67, 32
1, 223659, Control_c, 0, 67, 36
1, 223674, Control_c, 0, 67, 38
1, 223689, Control_c, 0, 67, 40
1, 223704, Control_c, 0, 64, 114
1, 223704, Control_c, 0, 67, 43
1, 223719, Control_c, 0, 64, 87
1, 223719, Control_c, 0, 67, 46
1, 223734, Control_c, 0, 64, 67
1, 223734, Control_c, 0, 67, 49
1, 223749, Control_c, 0, 64, 0
1, 223749, Control_c, 0, 67, 52
1, 223756, Note_on_c, 0, 80, 70
1, 223764, Control_c, 0, 67, 54
1, 223779, Control_c, 0, 67, 57
1, 223779, Note_on_c, 0, 49, 57
1, 223793, Control_c, 0, 67, 61
1, 223808, Control_c, 0, 64, 59
1, 223808, Control_c, 0, 67, 65
1, 223823, Control_c, 0, 64, 72
1, 223823, Control_c, 0, 67, 68
1, 223825, Note_off_c, 0, 73, 62
1, 223837, Note_off_c, 0, 49, 61
1, 223837, Control_c, 0, 64, 91
1, 223837, Control_c, 0, 67, 70
1, 223852, Control_c, 0, 64, 127
1, 223852, Control_c, 0, 67, 72
1, 223855, Note_on_c, 0, 72, 63
1, 223874, Control_c, 0, 67, 73
1, 223889, Control_c, 0, 67, 74
1, 223904, Control_c, 0, 67, 75
1, 223919, Control_c, 0, 67, 76
1, 223942, Note_on_c, 0, 73, 67
1, 223949, Control_c, 0, 67, 76
1, 223964, Note_off_c, 0, 72, 60
1, 223978, Control_c, 0, 64, 113
1, 223993, Control_c, 0, 64, 85
1, 224005, Note_on_c, 0, 77, 63
1, 224008, Control_c, 0, 64, 65
1, 224013, Note_on_c, 0, 56, 51
1, 224022, Note_off_c, 0, 73, 61
1, 224023, Control_c, 0, 64, 0
1, 224023, Control_c, 0, 67, 77
1, 224029, Note_on_c, 0, 65, 37
1, 224031, Note_on_c, 0, 61, 38
1, 224046, Note_off_c, 0, 56, 63
1, 224052, Control_c, 0, 67, 77
1, 224057, Note_off_c, 0, 65, 57
1, 224064, Note_off_c, 0, 61, 54
1, 224084, Note_on_c, 0, 78, 73
1, 224085, Note_off_c, 0, 77, 64
1, 224097, Control_c, 0, 67, 78
1, 224111, Control_c, 0, 67, 78
1, 224126, Control_c, 0, 67, 79
1, 224141, Control_c, 0, 67, 79
1, 224156, Control_c, 0, 67, 80
1, 224159, Note_on_c, 0, 77, 69
1, 224170, Control_c, 0, 67, 80
1, 224187, Control_c, 0, 67, 81
1, 224188, Note_off_c, 0, 80, 54
1, 224216, Control_c, 0, 67, 81
1, 224227, Note_off_c, 0, 78, 57
1, 224228, Note_on_c, 0, 56, 59
1, 224236, Note_on_c, 0, 75, 75
1, 224239, Note_on_c, 0, 61, 26
1, 224248, Note_off_c, 0, 77, 63
1, 224260, Note_off_c, 0, 56, 65
1, 224279, Note_off_c, 0, 61, 42
1, 224295, Note_off_c, 0, 75, 64
1, 224309, Note_on_c, 0, 74, 76
1, 224363, Note_off_c, 0, 74, 46
1, 224376, Note_on_c, 0, 73, 79
1, 224420, Note_off_c, 0, 73, 63
1, 224423, Control_c, 0, 67, 81
1, 224438, Control_c, 0, 64, 48
1, 224450, Note_on_c, 0, 44, 58
1, 224451, Note_on_c, 0, 80, 65
1, 224453, Control_c, 0, 64, 65
1, 224455, Note_on_c, 0, 73, 65
1, 224467, Control_c, 0, 64, 78
1, 224479, Note_off_c, 0, 44, 64
1, 224482, Control_c, 0, 64, 104
1, 224497, Note_off_c, 0, 73, 60
1, 224497, Control_c, 0, 64, 127
1, 224512, Control_c, 0, 67, 80
1, 224523, Note_on_c, 0, 75, 72
1, 224527, Control_c, 0, 67, 80
1, 224539, Note_off_c, 0, 80, 59
1, 224542, Control_c, 0, 67, 79
1, 224572, Control_c, 0, 67, 79
1, 224579, Note_off_c, 0, 75, 63
1, 224591, Note_on_c, 0, 73, 82
1, 224630, Note_off_c, 0, 73, 61
1, 224654, Control_c, 0, 64, 93
1, 224668, Control_c, 0, 64, 74
1, 224681, Note_on_c, 0, 56, 57
1, 224682, Note_on_c, 0, 70, 67
1, 224683, Control_c, 0, 64, 31
1, 224694, Note_on_c, 0, 66, 42
1, 224698, Control_c, 0, 64, 0
1, 224700, Note_on_c, 0, 63, 43
1, 224712, Note_off_c, 0, 56, 65
1, 224721, Note_off_c, 0, 66, 54
1, 224728, Note_off_c, 0, 63, 57
1, 224736, Note_off_c, 0, 70, 62
1, 224742, Control_c, 0, 67, 79
1, 224750, Note_on_c, 0, 69, 65
1, 224777, Note_off_c, 0, 69, 52
1, 224786, Control_c, 0, 67, 80
1, 224825, Note_on_c, 0, 70, 66
1, 224853, Note_off_c, 0, 70, 67
1, 224905, Control_c, 0, 67, 79
1, 224910, Note_on_c, 0, 56, 55
1, 224910, Note_on_c, 0, 80, 67
1, 224916, Note_on_c, 0, 72, 62
1, 224920, Control_c, 0, 64, 64
1, 224920, Control_c, 0, 67, 79
1, 224935, Control_c, 0, 64, 75
1, 224935, Control_c, 0, 67, 78
1, 224949, Note_off_c, 0, 72, 61
1, 224950, Control_c, 0, 64, 99
1, 224965, Control_c, 0, 64, 127
1, 224976, Note_off_c, 0, 56, 62
1, 224980, Note_off_c, 0, 80, 59
1, 225007, Poly_aftertouch_c, 0, 63, 0
1, 225084, Control_c, 0, 67, 79
1, 225099, Control_c, 0, 67, 79
1, 225114, Control_c, 0, 67, 80
1, 225129, Control_c, 0, 67, 80
1, 225155, Note_on_c, 0, 44, 65
1, 225173, Control_c, 0, 67, 81
1, 225183, Note_off_c, 0, 44, 64
1, 225217, Control_c, 0, 67, 81
1, 225262, Control_c, 0, 67, 82
1, 225271, Note_on_c, 0, 92, 72
1, 225281, Note_on_c, 0, 84, 54
1, 225300, Note_off_c, 0, 84, 63
1, 225304, Note_off_c, 0, 92, 64
1, 225388, Control_c, 0, 67, 82
1, 225391, Note_on_c, 0, 93, 77
1, 225395, Note_on_c, 0, 56, 57
1, 225396, Note_on_c, 0, 66, 55
1, 225406, Note_on_c, 0, 85, 65
1, 225412, Note_on_c, 0, 63, 46
1, 225417, Control_c, 0, 64, 120
1, 225427, Note_off_c, 0, 56, 63
1, 225429, Note_off_c, 0, 66, 61
1, 225432, Control_c, 0, 64, 91
1, 225435, Note_off_c, 0, 93, 61
1, 225436, Note_off_c, 0, 85, 65
1, 225442, Note_off_c, 0, 63, 61
1, 225447, Control_c, 0, 64, 72
1, 225462, Control_c, 0, 64, 0
1, 225487, Note_on_c, 0, 94, 84
1, 225508, Note_on_c, 0, 86, 57
1, 225526, Note_off_c, 0, 86, 65
1, 225534, Note_off_c, 0, 94, 65
1, 225594, Note_on_c, 0, 95, 87
1, 225599, Note_on_c, 0, 56, 62
1, 225603, Note_on_c, 0, 87, 76
1, 225612, Note_on_c, 0, 63, 36
1, 225624, Control_c, 0, 67, 82
1, 225632, Note_off_c, 0, 87, 62
1, 225634, Note_off_c, 0, 56, 66
1, 225635, Note_off_c, 0, 95, 67
1, 225639, Control_c, 0, 67, 81
1, 225645, Note_off_c, 0, 63, 49
1, 225654, Control_c, 0, 67, 80
1, 225669, Control_c, 0, 67, 79
1, 225684, Control_c, 0, 67, 78
1, 225687, Note_on_c, 0, 96, 87
1, 225698, Control_c, 0, 67, 76
1, 225701, Note_on_c, 0, 88, 77
1, 225713, Control_c, 0, 67, 75
1, 225727, Note_off_c, 0, 88, 65
1, 225728, Control_c, 0, 67, 73
1, 225735, Note_off_c, 0, 96, 66
1, 225743, Control_c, 0, 67, 71
1, 225758, Control_c, 0, 67, 69
1, 225773, Control_c, 0, 67, 65
1, 225788, Control_c, 0, 67, 60
1, 225803, Control_c, 0, 67, 52
1, 225808, Note_on_c, 0, 97, 90
1, 225815, Note_on_c, 0, 89, 78
1, 225818, Control_c, 0, 64, 64
1, 225818, Control_c, 0, 67, 36
1, 225827, Note_off_c, 0, 97, 71
1, 225832, Note_off_c, 0, 89, 66
1, 225832, Control_c, 0, 64, 81
1, 225832, Control_c, 0, 67, 14
1, 225841, Note_on_c, 0, 49, 32
1, 225847, Control_c, 0, 64, 127
1, 225847, Control_c, 0, 67, 0
1, 225882, Note_off_c, 0, 49, 54
1, 226055, Control_c, 0, 64, 107
1, 226070, Control_c, 0, 64, 82
1, 226071, Note_on_c, 0, 56, 47
1, 226071, Note_on_c, 0, 65, 44
1, 226085, Control_c, 0, 64, 62
1, 226085, Control_c, 0, 67, 9
1, 226086, Note_on_c, 0, 61, 31
1, 226100, Control_c, 0, 64, 0
1, 226100, Control_c, 0, 67, 14
1, 226103, Note_off_c, 0, 56, 63
1, 226106, Note_off_c, 0, 65, 65
1, 226121, Control_c, 0, 67, 22
1, 226124, Note_off_c, 0, 61, 53
1, 226136, Control_c, 0, 67, 30
1, 226151, Control_c, 0, 67, 39
1, 226166, Control_c, 0, 67, 49
1, 226181, Control_c, 0, 67, 58
1, 226195, Control_c, 0, 67, 66
1, 226210, Control_c, 0, 67, 74
1, 226225, Control_c, 0, 67, 82
1, 226239, Control_c, 0, 67, 90
1, 226254, Control_c, 0, 67, 98
1, 226269, Control_c, 0, 67, 106
1, 226284, Control_c, 0, 67, 112
1, 226299, Control_c, 0, 67, 119
1, 226313, Control_c, 0, 67, 127
1, 226326, Note_on_c, 0, 73, 52
1, 226328, Control_c, 0, 67, 127
1, 226336, Note_on_c, 0, 56, 47
1, 226377, Note_off_c, 0, 56, 64
1, 226386, Poly_aftertouch_c, 0, 61, 127
1, 226408, Poly_aftertouch_c, 0, 65, 0
1, 226416, Poly_aftertouch_c, 0, 61, 0
1, 226566, Note_on_c, 0, 80, 52
1, 226588, Note_on_c, 0, 49, 49
1, 226596, Control_c, 0, 64, 63
1, 226610, Control_c, 0, 64, 74
1, 226611, Note_off_c, 0, 73, 60
1, 226625, Control_c, 0, 64, 86
1, 226630, Note_off_c, 0, 49, 62
1, 226640, Control_c, 0, 64, 100
1, 226655, Control_c, 0, 64, 113
1, 226661, Note_on_c, 0, 72, 50
1, 226670, Control_c, 0, 64, 127
1, 226728, Note_off_c, 0, 72, 56
1, 226729, Control_c, 0, 64, 117
1, 226735, Note_on_c, 0, 73, 58
1, 226744, Control_c, 0, 64, 101
1, 226759, Control_c, 0, 64, 88
1, 226774, Control_c, 0, 64, 76
1, 226789, Control_c, 0, 64, 57
1, 226796, Note_off_c, 0, 73, 61
1, 226803, Control_c, 0, 64, 0
1, 226805, Note_on_c, 0, 77, 60
1, 226812, Note_on_c, 0, 56, 46
1, 226824, Note_on_c, 0, 61, 41
1, 226826, Note_on_c, 0, 65, 32
1, 226847, Note_off_c, 0, 56, 64
1, 226863, Note_off_c, 0, 61, 57
1, 226863, Note_off_c, 0, 77, 63
1, 226864, Note_off_c, 0, 65, 57
1, 226882, Note_on_c, 0, 78, 64
1, 226948, Note_off_c, 0, 80, 56
1, 226956, Note_on_c, 0, 77, 57
1, 226994, Note_off_c, 0, 78, 58
1, 227019, Note_on_c, 0, 75, 65
1, 227023, Note_off_c, 0, 77, 63
1, 227040, Note_on_c, 0, 56, 48
1, 227043, Note_on_c, 0, 61, 27
1, 227065, Note_off_c, 0, 56, 61
1, 227077, Note_off_c, 0, 75, 63
1, 227078, Note_off_c, 0, 61, 43
1, 227096, Note_on_c, 0, 74, 63
1, 227126, Note_off_c, 0, 74, 60
1, 227167, Note_on_c, 0, 73, 68
1, 227198, Note_off_c, 0, 73, 63
1, 227231, Note_on_c, 0, 80, 58
1, 227240, Control_c, 0, 64, 55
1, 227241, Note_on_c, 0, 73, 50
1, 227253, Note_on_c, 0, 44, 52
1, 227255, Control_c, 0, 64, 71
1, 227269, Control_c, 0, 64, 85
1, 227284, Note_off_c, 0, 73, 57
1, 227284, Control_c, 0, 64, 106
1, 227287, Note_off_c, 0, 44, 63
1, 227299, Control_c, 0, 64, 127
1, 227308, Note_on_c, 0, 75, 61
1, 227314, Note_off_c, 0, 80, 55
1, 227369, Note_off_c, 0, 75, 62
1, 227380, Note_on_c, 0, 73, 66
1, 227414, Note_off_c, 0, 73, 61
1, 227419, Control_c, 0, 64, 113
1, 227433, Control_c, 0, 64, 88
1, 227448, Control_c, 0, 64, 66
1, 227461, Note_on_c, 0, 70, 65
1, 227463, Control_c, 0, 64, 0
1, 227493, Note_on_c, 0, 56, 45
1, 227496, Note_on_c, 0, 66, 41
1, 227503, Note_on_c, 0, 63, 38
1, 227514, Note_off_c, 0, 70, 60
1, 227521, Note_off_c, 0, 56, 58
1, 227526, Note_off_c, 0, 66, 55
1, 227535, Note_off_c, 0, 63, 57
1, 227539, Note_on_c, 0, 69, 65
1, 227569, Note_off_c, 0, 69, 59
1, 227617, Note_on_c, 0, 70, 59
1, 227657, Note_off_c, 0, 70, 62
1, 227712, Note_on_c, 0, 80, 62
1, 227719, Note_on_c, 0, 72, 55
1, 227740, Note_on_c, 0, 56, 36
1, 227752, Control_c, 0, 64, 58
1, 227767, Control_c, 0, 64, 71
1, 227778, Note_off_c, 0, 56, 62
1, 227782, Control_c, 0, 64, 88
1, 227783, Note_off_c, 0, 72, 62
1, 227795, Poly_aftertouch_c, 0, 63, 0
1, 227797, Control_c, 0, 64, 127
1, 227826, Note_off_c, 0, 80, 62
1, 227986, Note_on_c, 0, 44, 57
1, 228016, Note_off_c, 0, 44, 63
1, 228103, Note_on_c, 0, 92, 63
1, 228116, Note_on_c, 0, 84, 49
1, 228137, Note_off_c, 0, 84, 62
1, 228151, Note_off_c, 0, 92, 62
1, 228233, Note_on_c, 0, 93, 71
1, 228249, Note_on_c, 0, 85, 55
1, 228250, Note_on_c, 0, 56, 51
1, 228256, Control_c, 0, 64, 111
1, 228259, Note_on_c, 0, 66, 44
1, 228262, Note_on_c, 0, 63, 49
1, 228269, Note_off_c, 0, 85, 64
1, 228271, Control_c, 0, 64, 91
1, 228283, Note_off_c, 0, 93, 62
1, 228286, Control_c, 0, 64, 76
1, 228290, Note_off_c, 0, 56, 61
1, 228296, Note_off_c, 0, 66, 51
1, 228301, Control_c, 0, 64, 57
1, 228304, Note_off_c, 0, 63, 61
1, 228316, Control_c, 0, 64, 0
1, 228335, Note_on_c, 0, 94, 75
1, 228361, Note_on_c, 0, 86, 57
1, 228383, Note_off_c, 0, 86, 62
1, 228384, Note_off_c, 0, 94, 61
1, 228453, Note_on_c, 0, 95, 75
1, 228463, Note_on_c, 0, 56, 50
1, 228473, Note_on_c, 0, 87, 53
1, 228495, Note_off_c, 0, 87, 62
1, 228503, Note_off_c, 0, 56, 64
1, 228503, Note_off_c, 0, 95, 65
1, 228554, Note_on_c, 0, 96, 78
1, 228576, Note_on_c, 0, 88, 60
1, 228597, Note_off_c, 0, 88, 58
1, 228609, Note_off_c, 0, 96, 65
1, 228698, Note_on_c, 0, 97, 72
1, 228707, Control_c, 0, 64, 55
1, 228709, Note_on_c, 0, 89, 69
1, 228722, Control_c, 0, 64, 66
1, 228724, Note_on_c, 0, 49, 47
1, 228737, Control_c, 0, 64, 74
1, 228739, Note_off_c, 0, 89, 63
1, 228748, Note_off_c, 0, 97, 66
1, 228752, Control_c, 0, 64, 83
1, 228766, Control_c, 0, 64, 96
1, 228776, Note_off_c, 0, 49, 56
1, 228781, Control_c, 0, 64, 127
1, 229025, Note_on_c, 0, 56, 46
1, 229041, Note_on_c, 0, 61, 34
1, 229044, Note_on_c, 0, 65, 32
1, 229131, Control_c, 0, 67, 125
1, 229143, Note_off_c, 0, 56, 38
1, 229145, Control_c, 0, 67, 121
1, 229160, Control_c, 0, 67, 116
1, 229162, Note_off_c, 0, 65, 48
1, 229175, Control_c, 0, 67, 109
1, 229189, Control_c, 0, 67, 101
1, 229192, Note_off_c, 0, 61, 41
1, 229204, Control_c, 0, 67, 88
1, 229219, Control_c, 0, 67, 77
1, 229234, Control_c, 0, 67, 66
1, 229249, Control_c, 0, 67, 55
1, 229263, Control_c, 0, 67, 46
1, 229278, Control_c, 0, 67, 38
1, 229293, Control_c, 0, 67, 30
1, 229308, Control_c, 0, 67, 20
1, 229323, Control_c, 0, 67, 11
1, 229331, Note_on_c, 0, 73, 68
1, 229334, Note_on_c, 0, 56, 40
1, 229335, Note_on_c, 0, 61, 14
1, 229338, Control_c, 0, 67, 0
1, 229388, Note_off_c, 0, 61, 50
1, 229398, Note_off_c, 0, 56, 61
1, 229530, Control_c, 0, 64, 96
1, 229545, Control_c, 0, 64, 79
1, 229560, Control_c, 0, 64, 72
1, 229574, Note_on_c, 0, 49, 54
1, 229589, Control_c, 0, 64, 79
1, 229604, Control_c, 0, 64, 92
1, 229619, Control_c, 0, 64, 127
1, 229632, Note_off_c, 0, 73, 61
1, 229675, Note_off_c, 0, 49, 62
1, 229706, Note_on_c, 0, 85, 66
1, 229722, Note_on_c, 0, 76, 71
1, 229797, Note_off_c, 0, 76, 59
1, 229821, Note_off_c, 0, 85, 61
1, 229914, Note_on_c, 0, 85, 75
1, 229919, Note_on_c, 0, 77, 72
1, 229925, Note_on_c, 0, 56, 40
1, 229947, Note_on_c, 0, 61, 35
1, 229952, Note_on_c, 0, 65, 28
1, 229982, Note_off_c, 0, 77, 58
1, 229986, Note_off_c, 0, 85, 62
1, 230034, Note_off_c, 0, 56, 54
1, 230053, Note_on_c, 0, 85, 66
1, 230055, Note_on_c, 0, 78, 78
1, 230083, Note_off_c, 0, 65, 35
1, 230101, Note_off_c, 0, 61, 40
1, 230123, Note_off_c, 0, 85, 60
1, 230134, Note_off_c, 0, 78, 59
1, 230199, Note_on_c, 0, 56, 40
1, 230205, Note_on_c, 0, 85, 61
1, 230205, Note_on_c, 0, 79, 68
1, 230230, Note_on_c, 0, 61, 3
1, 230251, Note_off_c, 0, 61, 0
1, 230254, Note_off_c, 0, 56, 59
1, 230259, Note_off_c, 0, 79, 60
1, 230268, Note_off_c, 0, 85, 58
1, 230274, Poly_aftertouch_c, 0, 61, 0
1, 230294, Control_c, 0, 67, 8
1, 230309, Control_c, 0, 67, 9
1, 230324, Control_c, 0, 67, 11
1, 230339, Control_c, 0, 67, 12
1, 230349, Note_on_c, 0, 85, 62
1, 230350, Note_on_c, 0, 80, 65
1, 230353, Control_c, 0, 67, 14
1, 230368, Control_c, 0, 67, 16
1, 230383, Control_c, 0, 67, 19
1, 230398, Control_c, 0, 67, 24
1, 230412, Control_c, 0, 67, 28
1, 230420, Note_off_c, 0, 85, 57
1, 230422, Note_off_c, 0, 80, 57
1, 230427, Control_c, 0, 67, 31
1, 230442, Control_c, 0, 67, 33
1, 230457, Control_c, 0, 67, 35
1, 230472, Control_c, 0, 67, 36
1, 230486, Control_c, 0, 67, 38
1, 230501, Control_c, 0, 67, 41
1, 230516, Control_c, 0, 67, 44
1, 230531, Control_c, 0, 67, 46
1, 230545, Control_c, 0, 64, 103
1, 230545, Control_c, 0, 67, 49
1, 230560, Note_on_c, 0, 45, 46
1, 230560, Control_c, 0, 64, 81
1, 230560, Control_c, 0, 67, 52
1, 230576, Control_c, 0, 64, 61
1, 230576, Control_c, 0, 67, 55
1, 230591, Control_c, 0, 64, 0
1, 230591, Control_c, 0, 67, 58
1, 230594, Note_on_c, 0, 85, 66
1, 230614, Control_c, 0, 67, 59
1, 230628, Control_c, 0, 67, 61
1, 230641, Note_on_c, 0, 79, 34
1, 230643, Control_c, 0, 67, 62
1, 230658, Control_c, 0, 64, 37
1, 230658, Control_c, 0, 67, 63
1, 230673, Control_c, 0, 64, 64
1, 230673, Control_c, 0, 67, 65
1, 230688, Control_c, 0, 64, 74
1, 230688, Control_c, 0, 67, 66
1, 230702, Control_c, 0, 64, 86
1, 230702, Control_c, 0, 67, 67
1, 230717, Control_c, 0, 64, 106
1, 230717, Control_c, 0, 67, 68
1, 230726, Note_off_c, 0, 45, 53
1, 230732, Control_c, 0, 64, 127
1, 230732, Control_c, 0, 67, 70
1, 230740, Note_off_c, 0, 79, 43
1, 230747, Control_c, 0, 67, 72
1, 230762, Note_off_c, 0, 85, 63
1, 230762, Control_c, 0, 67, 74
1, 230777, Control_c, 0, 67, 76
1, 230791, Control_c, 0, 67, 78
1, 230806, Control_c, 0, 67, 80
1, 230821, Control_c, 0, 67, 81
1, 230835, Control_c, 0, 67, 84
1, 230850, Control_c, 0, 67, 86
1, 230865, Control_c, 0, 67, 89
1, 230880, Control_c, 0, 67, 91
1, 230895, Control_c, 0, 67, 93
1, 230909, Control_c, 0, 67, 96
1, 230924, Control_c, 0, 67, 98
1, 230939, Control_c, 0, 67, 101
1, 230954, Control_c, 0, 67, 103
1, 230969, Control_c, 0, 67, 104
1, 230983, Control_c, 0, 67, 106
1, 230998, Control_c, 0, 67, 107
1, 231013, Control_c, 0, 67, 109
1, 231028, Control_c, 0, 67, 111
1, 231033, Note_on_c, 0, 55, 33
1, 231043, Note_on_c, 0, 61, 29
1, 231043, Control_c, 0, 67, 113
1, 231058, Control_c, 0, 67, 114
1, 231059, Note_on_c, 0, 64, 27
1, 231073, Control_c, 0, 67, 116
1, 231086, Note_off_c, 0, 55, 57
1, 231088, Control_c, 0, 67, 118
1, 231102, Control_c, 0, 67, 120
1, 231117, Control_c, 0, 67, 122
1, 231132, Control_c, 0, 67, 124
1, 231140, Note_off_c, 0, 64, 39
1, 231141, Note_off_c, 0, 61, 34
1, 231147, Control_c, 0, 67, 126
1, 231161, Control_c, 0, 67, 127
1, 231316, Note_on_c, 0, 85, 72
1, 231334, Note_on_c, 0, 73, 61
1, 231339, Note_on_c, 0, 55, 45
1, 231389, Note_off_c, 0, 55, 62
1, 231541, Control_c, 0, 64, 88
1, 231556, Control_c, 0, 64, 74
1, 231571, Control_c, 0, 64, 66
1, 231585, Control_c, 0, 64, 67
1, 231597, Note_off_c, 0, 73, 54
1, 231600, Control_c, 0, 64, 73
1, 231604, Note_on_c, 0, 45, 52
1, 231615, Control_c, 0, 64, 84
1, 231630, Control_c, 0, 64, 127
1, 231630, Note_off_c, 0, 85, 63
1, 231654, Note_off_c, 0, 45, 61
1, 231704, Control_c, 0, 67, 125
1, 231719, Control_c, 0, 67, 119
1, 231726, Note_on_c, 0, 85, 73
1, 231733, Control_c, 0, 67, 111
1, 231748, Control_c, 0, 67, 100
1, 231763, Control_c, 0, 67, 88
1, 231777, Control_c, 0, 67, 76
1, 231785, Note_on_c, 0, 76, 24
1, 231792, Control_c, 0, 67, 62
1, 231807, Control_c, 0, 67, 52
1, 231822, Control_c, 0, 67, 42
1, 231828, Note_off_c, 0, 76, 45
1, 231837, Control_c, 0, 67, 33
1, 231839, Note_off_c, 0, 85, 63
1, 231851, Control_c, 0, 67, 24
1, 231866, Control_c, 0, 67, 16
1, 231881, Control_c, 0, 67, 8
1, 231896, Control_c, 0, 67, 0
1, 231918, Note_on_c, 0, 85, 71
1, 231934, Note_on_c, 0, 55, 41
1, 231940, Note_on_c, 0, 79, 53
1, 231952, Note_on_c, 0, 61, 33
1, 231954, Note_on_c, 0, 64, 37
1, 231980, Note_off_c, 0, 79, 49
1, 232004, Note_off_c, 0, 55, 49
1, 232012, Note_on_c, 0, 83, 66
1, 232063, Note_off_c, 0, 61, 34
1, 232064, Note_off_c, 0, 64, 37
1, 232083, Note_off_c, 0, 85, 60
1, 232108, Note_on_c, 0, 82, 71
1, 232120, Note_off_c, 0, 83, 63
1, 232196, Note_off_c, 0, 82, 63
1, 232207, Note_on_c, 0, 55, 50
1, 232207, Note_on_c, 0, 85, 73
1, 232208, Note_on_c, 0, 81, 66
1, 232260, Note_off_c, 0, 55, 59
1, 232262, Note_off_c, 0, 81, 59
1, 232294, Note_on_c, 0, 80, 67
1, 232320, Note_off_c, 0, 85, 61
1, 232384, Note_off_c, 0, 80, 63
1, 232389, Note_on_c, 0, 79, 70
1, 232427, Note_off_c, 0, 79, 60
1, 232510, Note_on_c, 0, 38, 53
1, 232527, Control_c, 0, 64, 90
1, 232542, Control_c, 0, 64, 72
1, 232556, Control_c, 0, 64, 55
1, 232571, Control_c, 0, 64, 41
1, 232578, Note_on_c, 0, 90, 63
1, 232586, Control_c, 0, 64, 62
1, 232591, Note_on_c, 0, 78, 56
1, 232600, Control_c, 0, 64, 68
1, 232614, Note_off_c, 0, 38, 58
1, 232615, Control_c, 0, 64, 77
1, 232615, Control_c, 0, 67, 8
1, 232630, Control_c, 0, 64, 95
1, 232630, Control_c, 0, 67, 9
1, 232642, Note_off_c, 0, 78, 55
1, 232645, Control_c, 0, 64, 127
1, 232645, Control_c, 0, 67, 12
1, 232660, Control_c, 0, 67, 16
1, 232672, Note_off_c, 0, 90, 64
1, 232674, Control_c, 0, 67, 19
1, 232685, Note_on_c, 0, 85, 55
1, 232689, Control_c, 0, 67, 23
1, 232704, Control_c, 0, 67, 26
1, 232719, Control_c, 0, 67, 29
1, 232734, Control_c, 0, 67, 33
1, 232748, Control_c, 0, 67, 35
1, 232752, Note_off_c, 0, 85, 62
1, 232762, Note_on_c, 0, 86, 62
1, 232763, Control_c, 0, 67, 37
1, 232778, Control_c, 0, 67, 39
1, 232793, Control_c, 0, 67, 41
1, 232808, Control_c, 0, 64, 121
1, 232808, Control_c, 0, 67, 42
1, 232823, Control_c, 0, 64, 83
1, 232823, Control_c, 0, 67, 45
1, 232838, Control_c, 0, 64, 56
1, 232838, Control_c, 0, 67, 47
1, 232838, Note_on_c, 0, 84, 62
1, 232839, Note_off_c, 0, 86, 61
1, 232842, Note_on_c, 0, 54, 47
1, 232859, Control_c, 0, 64, 0
1, 232859, Control_c, 0, 67, 50
1, 232861, Note_on_c, 0, 66, 45
1, 232867, Note_on_c, 0, 62, 39
1, 232874, Control_c, 0, 67, 52
1, 232881, Note_off_c, 0, 54, 64
1, 232888, Note_off_c, 0, 66, 57
1, 232888, Control_c, 0, 67, 53
1, 232903, Control_c, 0, 67, 54
1, 232907, Note_off_c, 0, 62, 58
1, 232918, Control_c, 0, 67, 54
1, 232920, Note_off_c, 0, 84, 65
1, 232933, Note_on_c, 0, 85, 61
1, 233007, Note_on_c, 0, 82, 64
1, 233008, Control_c, 0, 67, 55
1, 233016, Note_off_c, 0, 85, 62
1, 233023, Control_c, 0, 67, 56
1, 233037, Control_c, 0, 67, 58
1, 233052, Control_c, 0, 67, 62
1, 233067, Control_c, 0, 67, 66
1, 233081, Note_off_c, 0, 82, 63
1, 233082, Control_c, 0, 67, 69
1, 233097, Control_c, 0, 67, 73
1, 233106, Note_on_c, 0, 90, 58
1, 233112, Control_c, 0, 67, 76
1, 233119, Note_on_c, 0, 83, 58
1, 233122, Note_on_c, 0, 59, 49
1, 233126, Note_on_c, 0, 66, 34
1, 233127, Control_c, 0, 67, 80
1, 233142, Control_c, 0, 67, 84
1, 233157, Control_c, 0, 67, 87
1, 233158, Note_off_c, 0, 66, 48
1, 233160, Note_off_c, 0, 59, 63
1, 233171, Control_c, 0, 67, 89
1, 233186, Control_c, 0, 67, 91
1, 233201, Control_c, 0, 67, 93
1, 233216, Control_c, 0, 67, 95
1, 233230, Control_c, 0, 67, 97
1, 233245, Control_c, 0, 67, 97
1, 233275, Control_c, 0, 67, 98
1, 233290, Control_c, 0, 67, 98
1, 233304, Control_c, 0, 67, 99
1, 233319, Control_c, 0, 67, 100
1, 233334, Control_c, 0, 67, 100
1, 233363, Control_c, 0, 64, 49
1, 233363, Control_c, 0, 67, 101
1, 233366, Note_on_c, 0, 50, 52
1, 233378, Control_c, 0, 64, 67
1, 233393, Control_c, 0, 64, 81
1, 233396, Note_off_c, 0, 50, 67
1, 233408, Control_c, 0, 64, 103
1, 233416, Note_off_c, 0, 90, 63
1, 233422, Control_c, 0, 64, 127
1, 233440, Note_on_c, 0, 89, 60
1, 233467, Control_c, 0, 67, 101
1, 233499, Note_off_c, 0, 83, 41
1, 233517, Note_on_c, 0, 90, 72
1, 233541, Control_c, 0, 67, 102
1, 233568, Note_off_c, 0, 89, 37
1, 233571, Control_c, 0, 67, 102
1, 233586, Control_c, 0, 67, 104
1, 233603, Note_off_c, 0, 90, 64
1, 233607, Note_on_c, 0, 93, 71
1, 233608, Control_c, 0, 64, 94
1, 233608, Control_c, 0, 67, 105
1, 233620, Note_on_c, 0, 83, 54
1, 233623, Control_c, 0, 64, 74
1, 233623, Control_c, 0, 67, 105
1, 233627, Note_on_c, 0, 66, 50
1, 233632, Note_on_c, 0, 62, 50
1, 233637, Control_c, 0, 64, 0
1, 233652, Control_c, 0, 67, 106
1, 233655, Note_off_c, 0, 66, 58
1, 233667, Control_c, 0, 67, 106
1, 233673, Note_off_c, 0, 62, 60
1, 233682, Control_c, 0, 67, 107
1, 233692, Note_on_c, 0, 95, 77
1, 233692, Note_off_c, 0, 93, 65
1, 233697, Control_c, 0, 67, 107
1, 233711, Control_c, 0, 67, 109
1, 233726, Control_c, 0, 67, 109
1, 233741, Control_c, 0, 67, 110
1, 233762, Note_on_c, 0, 93, 71
1, 233799, Note_off_c, 0, 95, 64
1, 233816, Control_c, 0, 64, 61
1, 233831, Control_c, 0, 64, 70
1, 233833, Note_on_c, 0, 62, 53
1, 233836, Note_on_c, 0, 92, 77
1, 233839, Note_off_c, 0, 93, 64
1, 233846, Control_c, 0, 64, 81
1, 233860, Control_c, 0, 64, 100
1, 233863, Note_off_c, 0, 62, 63
1, 233866, Poly_aftertouch_c, 0, 66, 127
1, 233875, Control_c, 0, 64, 127
1, 233887, Note_off_c, 0, 83, 48
1, 233892, Note_off_c, 0, 92, 66
1, 233910, Poly_aftertouch_c, 0, 66, 0
1, 233911, Note_on_c, 0, 91, 81
1, 233978, Note_on_c, 0, 90, 81
1, 233985, Note_off_c, 0, 91, 66
1, 233994, Control_c, 0, 67, 110
1, 234019, Note_off_c, 0, 90, 65
1, 234039, Control_c, 0, 64, 100
1, 234053, Control_c, 0, 64, 78
1, 234062, Note_on_c, 0, 52, 56
1, 234068, Note_on_c, 0, 83, 76
1, 234068, Note_on_c, 0, 88, 74
1, 234068, Control_c, 0, 64, 50
1, 234068, Control_c, 0, 67, 111
1, 234083, Control_c, 0, 64, 0
1, 234098, Control_c, 0, 67, 111
1, 234103, Note_off_c, 0, 52, 60
1, 234103, Note_off_c, 0, 83, 55
1, 234113, Control_c, 0, 67, 113
1, 234127, Control_c, 0, 67, 114
1, 234132, Note_on_c, 0, 85, 73
1, 234142, Control_c, 0, 67, 116
1, 234157, Control_c, 0, 67, 118
1, 234171, Control_c, 0, 67, 119
1, 234186, Control_c, 0, 67, 120
1, 234191, Note_off_c, 0, 85, 65
1, 234201, Control_c, 0, 67, 121
1, 234208, Note_on_c, 0, 83, 70
1, 234216, Control_c, 0, 67, 122
1, 234231, Control_c, 0, 67, 123
1, 234245, Control_c, 0, 67, 124
1, 234260, Control_c, 0, 67, 125
1, 234264, Note_off_c, 0, 83, 57
1, 234275, Control_c, 0, 67, 126
1, 234283, Note_on_c, 0, 82, 67
1, 234290, Control_c, 0, 67, 127
1, 234298, Note_on_c, 0, 61, 53
1, 234331, Note_off_c, 0, 61, 61
1, 234352, Note_off_c, 0, 82, 61
1, 234356, Note_on_c, 0, 83, 60
1, 234373, Note_off_c, 0, 88, 39
1, 234399, Poly_aftertouch_c, 0, 64, 0
1, 234428, Note_off_c, 0, 83, 65
1, 234448, Note_on_c, 0, 82, 61
1, 234509, Note_off_c, 0, 82, 62
1, 234528, Note_on_c, 0, 88, 58
1, 234542, Note_on_c, 0, 81, 54
1, 234550, Note_on_c, 0, 61, 56
1, 234581, Note_off_c, 0, 61, 64
1, 234624, Poly_aftertouch_c, 0, 64, 0
1, 234773, Control_c, 0, 64, 61
1, 234788, Control_c, 0, 64, 68
1, 234796, Note_on_c, 0, 40, 50
1, 234802, Control_c, 0, 64, 77
1, 234808, Note_off_c, 0, 88, 63
1, 234817, Control_c, 0, 64, 91
1, 234822, Note_off_c, 0, 81, 63
1, 234832, Note_off_c, 0, 40, 63
1, 234832, Control_c, 0, 64, 127
1, 235066, Note_on_c, 0, 76, 73
1, 235103, Note_on_c, 0, 69, 52
1, 235120, Note_on_c, 0, 64, 45
1, 235124, Note_on_c, 0, 61, 46
1, 235154, Note_off_c, 0, 69, 51
1, 235158, Note_on_c, 0, 73, 70
1, 235179, Note_off_c, 0, 61, 54
1, 235209, Note_off_c, 0, 76, 51
1, 235210, Note_off_c, 0, 64, 39
1, 235235, Note_on_c, 0, 72, 67
1, 235251, Note_off_c, 0, 73, 61
1, 235300, Note_off_c, 0, 72, 65
1, 235312, Note_on_c, 0, 71, 70
1, 235353, Note_on_c, 0, 61, 47
1, 235374, Note_off_c, 0, 71, 58
1, 235389, Note_off_c, 0, 61, 56
1, 235389, Note_on_c, 0, 70, 70
1, 235443, Note_off_c, 0, 70, 63
1, 235471, Note_on_c, 0, 69, 71
1, 235508, Note_off_c, 0, 69, 59
1, 235552, Control_c, 0, 64, 94
1, 235567, Control_c, 0, 64, 74
1, 235581, Control_c, 0, 64, 40
1, 235596, Control_c, 0, 64, 0
1, 235603, Note_on_c, 0, 78, 66
1, 235604, Note_on_c, 0, 52, 45
1, 235613, Note_on_c, 0, 69, 63
1, 235670, Control_c, 0, 64, 62
1, 235680, Note_off_c, 0, 78, 62
1, 235685, Control_c, 0, 64, 71
1, 235687, Note_off_c, 0, 52, 48
1, 235688, Note_on_c, 0, 80, 64
1, 235699, Control_c, 0, 64, 79
1, 235714, Control_c, 0, 64, 86
1, 235729, Control_c, 0, 64, 87
1, 235744, Control_c, 0, 64, 86
1, 235759, Control_c, 0, 64, 84
1, 235768, Note_off_c, 0, 80, 63
1, 235771, Note_on_c, 0, 78, 65
1, 235774, Note_off_c, 0, 69, 38
1, 235774, Control_c, 0, 64, 79
1, 235789, Control_c, 0, 64, 72
1, 235804, Control_c, 0, 64, 62
1, 235818, Control_c, 0, 64, 0
1, 235847, Note_off_c, 0, 78, 61
1, 235860, Note_on_c, 0, 59, 51
1, 235863, Note_on_c, 0, 77, 50
1, 235898, Note_off_c, 0, 59, 61
1, 235929, Note_off_c, 0, 77, 62
1, 235932, Note_on_c, 0, 79, 58
1, 235944, Poly_aftertouch_c, 0, 64, 0
1, 235947, Poly_aftertouch_c, 0, 62, 0
1, 236010, Note_on_c, 0, 77, 53
1, 236015, Note_off_c, 0, 79, 59
1, 236058, Note_off_c, 0, 77, 61
1, 236138, Note_on_c, 0, 76, 52
1, 236151, Control_c, 0, 64, 54
1, 236155, Note_on_c, 0, 59, 47
1, 236155, Note_on_c, 0, 68, 50
1, 236167, Control_c, 0, 64, 69
1, 236182, Control_c, 0, 64, 81
1, 236191, Note_off_c, 0, 59, 63
1, 236197, Control_c, 0, 64, 106
1, 236203, Note_off_c, 0, 76, 57
1, 236212, Control_c, 0, 64, 127
1, 236224, Note_off_c, 0, 68, 62
1, 236474, Note_on_c, 0, 40, 54
1, 236506, Note_off_c, 0, 40, 62
1, 236603, Note_on_c, 0, 88, 63
1, 236616, Note_on_c, 0, 80, 57
1, 236647, Control_c, 0, 64, 119
1, 236657, Note_off_c, 0, 88, 63
1, 236662, Note_off_c, 0, 80, 56
1, 236662, Control_c, 0, 64, 91
1, 236677, Control_c, 0, 64, 70
1, 236692, Control_c, 0, 64, 0
1, 236740, Note_on_c, 0, 89, 68
1, 236742, Note_on_c, 0, 81, 64
1, 236754, Note_on_c, 0, 59, 58
1, 236766, Note_off_c, 0, 81, 68
1, 236768, Note_on_c, 0, 64, 47
1, 236768, Note_off_c, 0, 89, 65
1, 236776, Note_on_c, 0, 62, 11
1, 236786, Note_off_c, 0, 59, 62
1, 236798, Note_off_c, 0, 64, 55
1, 236808, Note_off_c, 0, 62, 48
1, 236853, Note_on_c, 0, 90, 67
1, 236857, Note_on_c, 0, 82, 64
1, 236886, Note_off_c, 0, 90, 60
1, 236895, Note_off_c, 0, 82, 56
1, 236960, Note_on_c, 0, 91, 73
1, 236966, Note_on_c, 0, 83, 69
1, 236969, Note_on_c, 0, 59, 60
1, 236990, Note_off_c, 0, 83, 67
1, 236994, Note_off_c, 0, 91, 66
1, 236996, Note_off_c, 0, 59, 65
1, 237066, Note_on_c, 0, 92, 74
1, 237077, Note_on_c, 0, 84, 63
1, 237097, Note_off_c, 0, 84, 67
1, 237118, Note_off_c, 0, 92, 65
1, 237198, Note_on_c, 0, 93, 73
1, 237211, Note_on_c, 0, 85, 62
1, 237211, Control_c, 0, 64, 33
1, 237220, Note_on_c, 0, 45, 50
1, 237225, Note_off_c, 0, 93, 65
1, 237226, Control_c, 0, 64, 65
1, 237227, Note_off_c, 0, 85, 67
1, 237241, Control_c, 0, 64, 77
1, 237252, Note_off_c, 0, 45, 64
1, 237256, Control_c, 0, 64, 93
1, 237270, Control_c, 0, 64, 127
1, 237501, Control_c, 0, 67, 123
1, 237516, Control_c, 0, 67, 120
1, 237530, Control_c, 0, 67, 116
1, 237545, Control_c, 0, 67, 110
1, 237560, Control_c, 0, 67, 104
1, 237575, Control_c, 0, 67, 96
1, 237579, Note_on_c, 0, 61, 38
1, 237583, Note_on_c, 0, 57, 35
1, 237590, Control_c, 0, 67, 87
1, 237604, Control_c, 0, 67, 80
1, 237619, Control_c, 0, 67, 73
1, 237630, Note_off_c, 0, 57, 59
1, 237634, Control_c, 0, 67, 67
1, 237649, Control_c, 0, 67, 60
1, 237664, Control_c, 0, 67, 54
1, 237679, Control_c, 0, 67, 50
1, 237687, Note_off_c, 0, 61, 37
1, 237693, Control_c, 0, 67, 47
1, 237708, Control_c, 0, 67, 45
1, 237723, Control_c, 0, 67, 44
1, 237738, Control_c, 0, 67, 41
1, 237753, Control_c, 0, 67, 35
1, 237768, Control_c, 0, 67, 26
1, 237783, Control_c, 0, 67, 13
1, 237798, Control_c, 0, 67, 0
1, 237873, Note_on_c, 0, 61, 38
1, 237892, Note_on_c, 0, 64, 18
1, 237927, Note_on_c, 0, 69, 52
1, 237937, Note_off_c, 0, 61, 59
1, 237937, Note_off_c, 0, 64, 43
1, 238191, Control_c, 0, 64, 100
1, 238206, Control_c, 0, 64, 90
1, 238220, Control_c, 0, 64, 89
1, 238235, Control_c, 0, 64, 93
1, 238238, Note_on_c, 0, 45, 52
1, 238250, Control_c, 0, 64, 110
1, 238265, Control_c, 0, 64, 127
1, 238296, Note_off_c, 0, 69, 63
1, 238317, Note_off_c, 0, 45, 63
1, 238650, Note_on_c, 0, 81, 94
1, 238662, Note_on_c, 0, 72, 78
1, 238665, Control_c, 0, 64, 118
1, 238680, Note_on_c, 0, 57, 55
1, 238680, Control_c, 0, 64, 85
1, 238682, Note_on_c, 0, 60, 58
1, 238686, Note_on_c, 0, 65, 54
1, 238695, Control_c, 0, 64, 66
1, 238710, Control_c, 0, 64, 0
1, 238725, Control_c, 0, 64, 46
1, 238740, Control_c, 0, 64, 66
1, 238755, Control_c, 0, 64, 77
1, 238769, Control_c, 0, 64, 114
1, 238775, Note_off_c, 0, 72, 51
1, 238784, Control_c, 0, 64, 127
1, 238815, Note_off_c, 0, 81, 54
1, 238883, Note_off_c, 0, 65, 37
1, 238907, Note_off_c, 0, 57, 37
1, 238937, Note_off_c, 0, 60, 37
1, 239046, Note_on_c, 0, 65, 56
1, 239048, Note_on_c, 0, 57, 60
1, 239059, Note_on_c, 0, 60, 61
1, 239083, Note_off_c, 0, 65, 63
1, 239121, Note_off_c, 0, 57, 60
1, 239124, Note_off_c, 0, 60, 61
1, 239174, Note_on_c, 0, 81, 92
1, 239184, Note_on_c, 0, 72, 83
1, 239226, Note_off_c, 0, 81, 65
1, 239236, Note_off_c, 0, 72, 63
1, 239250, Control_c, 0, 64, 103
1, 239265, Control_c, 0, 64, 72
1, 239280, Control_c, 0, 64, 0
1, 239283, Note_on_c, 0, 81, 101
1, 239291, Note_on_c, 0, 72, 82
1, 239297, Note_on_c, 0, 46, 76
1, 239339, Control_c, 0, 64, 67
1, 239354, Control_c, 0, 64, 87
1, 239360, Note_off_c, 0, 46, 61
1, 239370, Control_c, 0, 64, 127
1, 239590, Note_off_c, 0, 81, 55
1, 239607, Note_off_c, 0, 72, 56
1, 239692, Note_on_c, 0, 55, 46
1, 239701, Note_on_c, 0, 62, 48
1, 239703, Note_on_c, 0, 65, 51
1, 239796, Note_off_c, 0, 55, 58
1, 239848, Note_off_c, 0, 62, 54
1, 239875, Note_off_c, 0, 65, 37
1, 239932, Note_on_c, 0, 79, 86
1, 239946, Note_on_c, 0, 70, 79
1, 239951, Note_on_c, 0, 55, 61
1, 239979, Note_on_c, 0, 62, 50
1, 240006, Note_off_c, 0, 62, 60
1, 240025, Note_off_c, 0, 55, 60
1, 240147, Control_c, 0, 64, 105
1, 240163, Control_c, 0, 64, 74
1, 240178, Control_c, 0, 64, 0
1, 240206, Note_on_c, 0, 48, 73
1, 240222, Control_c, 0, 64, 23
1, 240237, Control_c, 0, 64, 65
1, 240252, Control_c, 0, 64, 82
1, 240256, Note_off_c, 0, 70, 51
1, 240267, Control_c, 0, 64, 127
1, 240274, Note_off_c, 0, 48, 63
1, 240287, Note_off_c, 0, 79, 47
1, 240449, Note_on_c, 0, 79, 89
1, 240461, Note_on_c, 0, 70, 85
1, 240484, Note_on_c, 0, 55, 56
1, 240496, Note_on_c, 0, 64, 50
1, 240497, Note_on_c, 0, 58, 49
1, 240532, Note_off_c, 0, 70, 59
1, 240606, Note_on_c, 0, 82, 86
1, 240608, Note_on_c, 0, 74, 89
1, 240621, Note_off_c, 0, 55, 56
1, 240629, Note_off_c, 0, 64, 38
1, 240639, Note_off_c, 0, 79, 57
1, 240663, Note_off_c, 0, 82, 64
1, 240667, Note_off_c, 0, 58, 59
1, 240668, Note_off_c, 0, 74, 63
1, 240713, Note_on_c, 0, 81, 89
1, 240724, Note_on_c, 0, 72, 82
1, 240731, Note_on_c, 0, 58, 57
1, 240737, Note_on_c, 0, 55, 71
1, 240761, Note_off_c, 0, 72, 62
1, 240763, Note_off_c, 0, 81, 65
1, 240767, Note_off_c, 0, 58, 64
1, 240782, Note_off_c, 0, 55, 63
1, 240803, Poly_aftertouch_c, 0, 64, 127
1, 240820, Note_on_c, 0, 79, 86
1, 240827, Note_on_c, 0, 70, 85
1, 240829, Poly_aftertouch_c, 0, 64, 0
1, 240874, Note_off_c, 0, 79, 61
1, 240875, Note_off_c, 0, 70, 62
1, 240881, Control_c, 0, 64, 91
1, 240896, Control_c, 0, 64, 64
1, 240911, Control_c, 0, 64, 0
1, 240928, Note_on_c, 0, 79, 89
1, 240932, Note_on_c, 0, 70, 88
1, 240944, Note_on_c, 0, 41, 80
1, 240956, Control_c, 0, 64, 31
1, 240971, Control_c, 0, 64, 66
1, 240981, Note_off_c, 0, 41, 65
1, 240986, Control_c, 0, 64, 85
1, 241001, Control_c, 0, 64, 127
1, 241259, Control_c, 0, 64, 101
1, 241274, Control_c, 0, 64, 72
1, 241275, Note_on_c, 0, 60, 65
1, 241277, Note_on_c, 0, 65, 65
1, 241278, Note_on_c, 0, 57, 64
1, 241289, Control_c, 0, 64, 0
1, 241321, Note_off_c, 0, 57, 60
1, 241327, Note_off_c, 0, 65, 62
1, 241354, Note_off_c, 0, 60, 60
1, 241527, Note_off_c, 0, 70, 61
1, 241543, Note_on_c, 0, 77, 84
1, 241551, Note_on_c, 0, 69, 80
1, 241557, Note_on_c, 0, 65, 70
1, 241559, Note_on_c, 0, 57, 61
1, 241568, Note_on_c, 0, 60, 60
1, 241584, Note_off_c, 0, 65, 68
1, 241590, Note_off_c, 0, 79, 52
1, 241624, Note_off_c, 0, 60, 64
1, 241628, Note_off_c, 0, 57, 61
1, 241748, Control_c, 0, 64, 65
1, 241764, Control_c, 0, 64, 86
1, 241774, Note_off_c, 0, 69, 61
1, 241775, Note_on_c, 0, 41, 76
1, 241779, Control_c, 0, 64, 127
1, 241806, Note_off_c, 0, 41, 63
1, 241806, Note_off_c, 0, 77, 57
1, 242008, Control_c, 0, 64, 120
1, 242014, Note_on_c, 0, 77, 92
1, 242019, Note_on_c, 0, 68, 88
1, 242023, Control_c, 0, 64, 81
1, 242029, Note_on_c, 0, 61, 68
1, 242038, Note_on_c, 0, 56, 67
1, 242038, Control_c, 0, 64, 59
1, 242041, Note_on_c, 0, 53, 57
1, 242053, Control_c, 0, 64, 0
1, 242067, Control_c, 0, 64, 23
1, 242082, Control_c, 0, 64, 65
1, 242097, Control_c, 0, 64, 86
1, 242105, Note_off_c, 0, 68, 62
1, 242111, Note_off_c, 0, 77, 61
1, 242111, Control_c, 0, 64, 127
1, 242128, Note_off_c, 0, 53, 61
1, 242152, Note_off_c, 0, 61, 51
1, 242178, Note_off_c, 0, 56, 53
1, 242272, Note_on_c, 0, 61, 66
1, 242276, Note_on_c, 0, 56, 69
1, 242278, Note_on_c, 0, 53, 66
1, 242301, Note_off_c, 0, 61, 64
1, 242339, Note_off_c, 0, 56, 63
1, 242347, Note_off_c, 0, 53, 64
1, 242386, Note_on_c, 0, 77, 91
1, 242388, Note_on_c, 0, 68, 85
1, 242430, Note_off_c, 0, 77, 64
1, 242438, Note_off_c, 0, 68, 60
1, 242453, Control_c, 0, 64, 92
1, 242467, Control_c, 0, 64, 40
1, 242482, Note_on_c, 0, 77, 93
1, 242482, Control_c, 0, 64, 0
1, 242484, Note_on_c, 0, 68, 87
1, 242499, Note_on_c, 0, 42, 72
1, 242541, Control_c, 0, 64, 63
1, 242555, Note_off_c, 0, 42, 63
1, 242557, Control_c, 0, 64, 78
1, 242572, Control_c, 0, 64, 127
1, 242740, Note_off_c, 0, 77, 54
1, 242760, Note_off_c, 0, 68, 58
1, 242788, Note_on_c, 0, 51, 58
1, 242797, Note_on_c, 0, 61, 60
1, 242803, Note_on_c, 0, 58, 59
1, 242910, Note_off_c, 0, 51, 52
1, 242913, Note_off_c, 0, 61, 54
1, 242931, Note_off_c, 0, 58, 52
1, 243019, Note_on_c, 0, 75, 88
1, 243030, Note_on_c, 0, 66, 79
1, 243031, Note_on_c, 0, 51, 62
1, 243053, Note_on_c, 0, 58, 49
1, 243054, Note_on_c, 0, 61, 34
1, 243086, Note_off_c, 0, 58, 62
1, 243093, Note_off_c, 0, 61, 48
1, 243117, Note_off_c, 0, 51, 62
1, 243202, Control_c, 0, 64, 101
1, 243216, Control_c, 0, 64, 72
1, 243231, Control_c, 0, 64, 0
1, 243291, Note_on_c, 0, 44, 76
1, 243303, Note_off_c, 0, 66, 58
1, 243305, Control_c, 0, 64, 55
1, 243320, Control_c, 0, 64, 76
1, 243338, Note_off_c, 0, 75, 63
1, 243341, Control_c, 0, 64, 112
1, 243356, Control_c, 0, 64, 127
1, 243392, Note_off_c, 0, 44, 63
1, 243469, Note_on_c, 0, 75, 84
1, 243482, Note_on_c, 0, 66, 74
1, 243522, Note_off_c, 0, 75, 64
1, 243525, Note_off_c, 0, 66, 59
1, 243572, Note_on_c, 0, 75, 83
1, 243579, Control_c, 0, 64, 101
1, 243584, Note_on_c, 0, 66, 77
1, 243587, Note_on_c, 0, 54, 58
1, 243594, Control_c, 0, 64, 82
1, 243596, Note_on_c, 0, 56, 54
1, 243604, Note_on_c, 0, 60, 45
1, 243609, Control_c, 0, 64, 74
1, 243624, Control_c, 0, 64, 79
1, 243638, Control_c, 0, 64, 94
1, 243652, Note_off_c, 0, 66, 59
1, 243653, Control_c, 0, 64, 127
1, 243691, Note_off_c, 0, 75, 62
1, 243736, Note_on_c, 0, 78, 83
1, 243742, Note_on_c, 0, 70, 85
1, 243775, Note_off_c, 0, 56, 53
1, 243788, Note_off_c, 0, 54, 57
1, 243789, Note_off_c, 0, 60, 38
1, 243800, Note_off_c, 0, 78, 65
1, 243807, Note_off_c, 0, 70, 63
1, 243858, Note_on_c, 0, 77, 86
1, 243866, Note_on_c, 0, 68, 88
1, 243879, Note_on_c, 0, 54, 59
1, 243914, Note_on_c, 0, 56, 31
1, 243914, Note_off_c, 0, 77, 62
1, 243920, Note_off_c, 0, 68, 60
1, 243928, Note_off_c, 0, 54, 64
1, 243950, Poly_aftertouch_c, 0, 60, 0
1, 243951, Note_off_c, 0, 56, 54
1, 243966, Note_on_c, 0, 75, 88
1, 243974, Note_on_c, 0, 66, 87
1, 243994, Control_c, 0, 64, 94
1, 244009, Control_c, 0, 64, 73
1, 244024, Control_c, 0, 64, 0
1, 244025, Note_off_c, 0, 66, 61
1, 244031, Note_off_c, 0, 75, 63
1, 244093, Note_on_c, 0, 75, 83
1, 244099, Note_on_c, 0, 66, 85
1, 244109, Note_on_c, 0, 37, 74
1, 244120, Control_c, 0, 64, 60
1, 244135, Control_c, 0, 64, 75
1, 244141, Note_off_c, 0, 37, 66
1, 244150, Control_c, 0, 64, 105
1, 244166, Control_c, 0, 64, 127
1, 244421, Note_on_c, 0, 61, 57
1, 244431, Note_on_c, 0, 56, 57
1, 244433, Note_on_c, 0, 53, 59
1, 244448, Control_c, 0, 64, 115
1, 244462, Control_c, 0, 64, 80
1, 244477, Control_c, 0, 64, 56
1, 244492, Control_c, 0, 64, 0
1, 244501, Note_off_c, 0, 53, 61
1, 244505, Note_off_c, 0, 61, 60
1, 244523, Note_off_c, 0, 56, 61
1, 244681, Note_off_c, 0, 66, 57
1, 244691, Note_on_c, 0, 73, 74
1, 244703, Note_on_c, 0, 65, 67
1, 244712, Note_on_c, 0, 61, 50
1, 244715, Note_on_c, 0, 53, 52
1, 244726, Note_on_c, 0, 56, 41
1, 244744, Note_off_c, 0, 61, 63
1, 244766, Note_off_c, 0, 56, 63
1, 244770, Note_off_c, 0, 53, 65
1, 244792, Note_off_c, 0, 75, 44
1, 244928, Control_c, 0, 64, 55
1, 244943, Control_c, 0, 64, 72
1, 244945, Note_on_c, 0, 37, 64
1, 244959, Control_c, 0, 64, 91
1, 244959, Control_c, 0, 67, 8
1, 244967, Note_off_c, 0, 65, 58
1, 244974, Control_c, 0, 64, 127
1, 244974, Control_c, 0, 67, 9
1, 244976, Note_off_c, 0, 37, 64
1, 244989, Control_c, 0, 67, 10
1, 244992, Note_off_c, 0, 73, 58
1, 245004, Control_c, 0, 67, 11
1, 245018, Control_c, 0, 67, 11
1, 245033, Control_c, 0, 67, 12
1, 245048, Control_c, 0, 67, 13
1, 245063, Control_c, 0, 67, 15
1, 245078, Control_c, 0, 67, 17
1, 245092, Control_c, 0, 67, 20
1, 245107, Control_c, 0, 67, 23
1, 245122, Control_c, 0, 67, 26
1, 245137, Control_c, 0, 67, 28
1, 245152, Control_c, 0, 67, 30
1, 245167, Control_c, 0, 67, 33
1, 245182, Control_c, 0, 67, 34
1, 245196, Control_c, 0, 67, 36
1, 245211, Control_c, 0, 67, 38
1, 245226, Control_c, 0, 67, 38
1, 245241, Control_c, 0, 67, 39
1, 245246, Note_on_c, 0, 73, 83
1, 245256, Control_c, 0, 67, 40
1, 245263, Note_on_c, 0, 64, 63
1, 245271, Control_c, 0, 64, 102
1, 245271, Control_c, 0, 67, 41
1, 245283, Note_on_c, 0, 52, 40
1, 245285, Control_c, 0, 64, 79
1, 245285, Control_c, 0, 67, 41
1, 245293, Note_on_c, 0, 57, 42
1, 245295, Note_on_c, 0, 61, 41
1, 245300, Control_c, 0, 64, 59
1, 245300, Control_c, 0, 67, 42
1, 245315, Control_c, 0, 64, 0
1, 245315, Control_c, 0, 67, 43
1, 245329, Control_c, 0, 67, 44
1, 245344, Control_c, 0, 64, 39
1, 245344, Control_c, 0, 67, 45
1, 245359, Control_c, 0, 64, 66
1, 245359, Control_c, 0, 67, 48
1, 245374, Control_c, 0, 64, 79
1, 245374, Control_c, 0, 67, 50
1, 245389, Control_c, 0, 64, 107
1, 245389, Control_c, 0, 67, 52
1, 245403, Control_c, 0, 64, 127
1, 245403, Control_c, 0, 67, 54
1, 245418, Control_c, 0, 67, 54
1, 245420, Note_off_c, 0, 64, 59
1, 245433, Control_c, 0, 67, 55
1, 245444, Note_off_c, 0, 73, 60
1, 245448, Note_off_c, 0, 52, 35
1, 245448, Control_c, 0, 67, 56
1, 245463, Control_c, 0, 67, 57
1, 245465, Note_off_c, 0, 61, 40
1, 245475, Note_off_c, 0, 57, 35
1, 245477, Control_c, 0, 67, 59
1, 245492, Control_c, 0, 67, 61
1, 245507, Control_c, 0, 67, 63
1, 245521, Control_c, 0, 67, 65
1, 245536, Control_c, 0, 67, 67
1, 245551, Control_c, 0, 67, 68
1, 245566, Control_c, 0, 67, 70
1, 245586, Note_on_c, 0, 52, 40
1, 245589, Control_c, 0, 67, 72
1, 245596, Note_on_c, 0, 61, 42
1, 245603, Control_c, 0, 67, 74
1, 245618, Control_c, 0, 67, 76
1, 245622, Note_on_c, 0, 57, 32
1, 245628, Note_off_c, 0, 61, 60
1, 245633, Control_c, 0, 67, 77
1, 245648, Control_c, 0, 67, 78
1, 245655, Note_off_c, 0, 57, 50
1, 245657, Note_off_c, 0, 52, 61
1, 245662, Control_c, 0, 67, 80
1, 245677, Control_c, 0, 67, 80
1, 245692, Control_c, 0, 67, 81
1, 245707, Control_c, 0, 67, 82
1, 245722, Control_c, 0, 67, 82
1, 245726, Note_on_c, 0, 73, 69
1, 245736, Control_c, 0, 67, 83
1, 245748, Note_on_c, 0, 64, 55
1, 245751, Control_c, 0, 67, 84
1, 245760, Note_off_c, 0, 73, 61
1, 245767, Control_c, 0, 67, 86
1, 245782, Control_c, 0, 67, 88
1, 245787, Note_off_c, 0, 64, 62
1, 245797, Control_c, 0, 67, 90
1, 245812, Control_c, 0, 64, 88
1, 245812, Control_c, 0, 67, 93
1, 245827, Control_c, 0, 64, 67
1, 245827, Control_c, 0, 67, 94
1, 245831, Note_on_c, 0, 73, 67
1, 245841, Control_c, 0, 64, 0
1, 245841, Control_c, 0, 67, 96
1, 245852, Note_on_c, 0, 64, 58
1, 245855, Note_on_c, 0, 42, 55
1, 245856, Control_c, 0, 67, 97
1, 245871, Control_c, 0, 67, 98
1, 245886, Control_c, 0, 67, 99
1, 245895, Note_off_c, 0, 42, 59
1, 245901, Control_c, 0, 64, 57
1, 245901, Control_c, 0, 67, 100
1, 245915, Control_c, 0, 64, 70
1, 245915, Control_c, 0, 67, 101
1, 245930, Control_c, 0, 64, 84
1, 245930, Control_c, 0, 67, 102
1, 245945, Control_c, 0, 64, 116
1, 245945, Control_c, 0, 67, 103
1, 245960, Control_c, 0, 64, 127
1, 245960, Control_c, 0, 67, 103
1, 245989, Control_c, 0, 67, 104
1, 246049, Control_c, 0, 67, 104
1, 246064, Control_c, 0, 67, 105
1, 246079, Note_off_c, 0, 64, 59
1, 246138, Control_c, 0, 67, 105
1, 246152, Control_c, 0, 67, 106
1, 246160, Note_on_c, 0, 57, 44
1, 246163, Note_on_c, 0, 59, 46
1, 246167, Control_c, 0, 67, 107
1, 246171, Note_on_c, 0, 54, 44
1, 246182, Control_c, 0, 64, 95
1, 246182, Control_c, 0, 67, 109
1, 246197, Control_c, 0, 64, 74
1, 246197, Control_c, 0, 67, 111
1, 246212, Control_c, 0, 64, 0
1, 246212, Control_c, 0, 67, 112
1, 246222, Note_off_c, 0, 57, 60
1, 246223, Note_off_c, 0, 54, 61
1, 246224, Note_off_c, 0, 59, 58
1, 246226, Control_c, 0, 67, 113
1, 246241, Control_c, 0, 67, 114
1, 246256, Control_c, 0, 67, 115
1, 246271, Control_c, 0, 67, 116
1, 246285, Control_c, 0, 67, 117
1, 246300, Control_c, 0, 67, 118
1, 246315, Control_c, 0, 67, 119
1, 246338, Control_c, 0, 67, 120
1, 246353, Control_c, 0, 67, 120
1, 246367, Control_c, 0, 67, 121
1, 246382, Control_c, 0, 67, 121
1, 246397, Control_c, 0, 67, 122
1, 246412, Control_c, 0, 67, 122
1, 246427, Control_c, 0, 67, 123
1, 246431, Note_on_c, 0, 71, 63
1, 246441, Control_c, 0, 67, 123
1, 246445, Note_on_c, 0, 63, 46
1, 246445, Note_on_c, 0, 54, 50
1, 246446, Note_off_c, 0, 73, 61
1, 246456, Control_c, 0, 67, 124
1, 246463, Note_on_c, 0, 59, 26
1, 246471, Control_c, 0, 67, 125
1, 246485, Control_c, 0, 67, 125
1, 246493, Note_off_c, 0, 59, 47
1, 246500, Control_c, 0, 67, 126
1, 246503, Note_off_c, 0, 54, 61
1, 246515, Control_c, 0, 67, 126
1, 246530, Control_c, 0, 67, 127
1, 246545, Control_c, 0, 67, 127
1, 246650, Control_c, 0, 64, 62
1, 246661, Note_on_c, 0, 42, 55
1, 246664, Control_c, 0, 64, 73
1, 246678, Note_off_c, 0, 71, 63
1, 246679, Control_c, 0, 64, 89
1, 246694, Note_off_c, 0, 42, 61
1, 246694, Control_c, 0, 64, 127
1, 246747, Note_off_c, 0, 63, 37
1, 246895, Note_on_c, 0, 71, 69
1, 246901, Control_c, 0, 64, 93
1, 246913, Note_on_c, 0, 63, 50
1, 246916, Control_c, 0, 64, 80
1, 246925, Note_on_c, 0, 59, 41
1, 246927, Note_on_c, 0, 54, 41
1, 246931, Control_c, 0, 64, 74
1, 246934, Note_on_c, 0, 57, 41
1, 246946, Control_c, 0, 64, 76
1, 246955, Note_off_c, 0, 63, 59
1, 246957, Note_off_c, 0, 71, 64
1, 246961, Control_c, 0, 64, 83
1, 246975, Control_c, 0, 64, 95
1, 246982, Note_off_c, 0, 54, 55
1, 246988, Note_off_c, 0, 57, 57
1, 246988, Note_off_c, 0, 59, 52
1, 246990, Control_c, 0, 64, 127
1, 247136, Note_on_c, 0, 54, 50
1, 247152, Note_on_c, 0, 59, 15
1, 247179, Poly_aftertouch_c, 0, 57, 127
1, 247195, Note_off_c, 0, 54, 61
1, 247198, Note_off_c, 0, 59, 53
1, 247225, Poly_aftertouch_c, 0, 57, 0
1, 247260, Note_on_c, 0, 73, 67
1, 247285, Note_on_c, 0, 63, 48
1, 247294, Control_c, 0, 64, 109
1, 247297, Note_off_c, 0, 73, 58
1, 247308, Control_c, 0, 64, 83
1, 247316, Note_off_c, 0, 63, 62
1, 247323, Control_c, 0, 64, 59
1, 247338, Control_c, 0, 64, 0
1, 247368, Note_on_c, 0, 73, 59
1, 247369, Control_c, 0, 64, 27
1, 247384, Note_on_c, 0, 40, 52
1, 247384, Control_c, 0, 64, 64
1, 247389, Note_on_c, 0, 64, 58
1, 247399, Control_c, 0, 64, 75
1, 247412, Note_off_c, 0, 40, 60
1, 247413, Control_c, 0, 64, 97
1, 247428, Control_c, 0, 64, 127
1, 247531, Control_c, 0, 64, 113
1, 247546, Control_c, 0, 64, 89
1, 247561, Control_c, 0, 64, 72
1, 247576, Control_c, 0, 64, 23
1, 247591, Control_c, 0, 64, 0
1, 247633, Note_on_c, 0, 52, 53
1, 247639, Note_on_c, 0, 56, 49
1, 247644, Note_off_c, 0, 64, 62
1, 247666, Note_off_c, 0, 56, 61
1, 247671, Note_off_c, 0, 52, 62
1, 247909, Note_on_c, 0, 71, 56
1, 247921, Note_on_c, 0, 62, 45
1, 247929, Note_on_c, 0, 52, 50
1, 247942, Note_off_c, 0, 73, 38
1, 247961, Note_off_c, 0, 52, 63
1, 248192, Control_c, 0, 64, 34
1, 248207, Control_c, 0, 64, 64
1, 248216, Note_on_c, 0, 40, 56
1, 248217, Note_off_c, 0, 62, 46
1, 248221, Note_off_c, 0, 71, 62
1, 248221, Control_c, 0, 64, 73
1, 248236, Control_c, 0, 64, 85
1, 248251, Note_off_c, 0, 40, 62
1, 248251, Control_c, 0, 64, 108
1, 248266, Control_c, 0, 64, 127
1, 248417, Note_on_c, 0, 71, 66
1, 248431, Note_on_c, 0, 62, 53
1, 248451, Note_off_c, 0, 71, 61
1, 248472, Note_off_c, 0, 62, 58
1, 248548, Note_on_c, 0, 71, 71
1, 248560, Note_on_c, 0, 62, 50
1, 248566, Note_on_c, 0, 56, 52
1, 248587, Note_on_c, 0, 52, 45
1, 248609, Note_off_c, 0, 62, 57
1, 248645, Note_off_c, 0, 52, 52
1, 248670, Note_off_c, 0, 56, 38
1, 248690, Note_off_c, 0, 71, 60
1, 248706, Note_on_c, 0, 74, 66
1, 248718, Note_on_c, 0, 66, 62
1, 248765, Note_off_c, 0, 66, 57
1, 248818, Note_off_c, 0, 74, 57
1, 248828, Note_on_c, 0, 73, 70
1, 248842, Note_on_c, 0, 52, 54
1, 248848, Note_on_c, 0, 64, 60
1, 248876, Note_off_c, 0, 52, 62
1, 248876, Note_off_c, 0, 64, 67
1, 248890, Note_off_c, 0, 73, 62
1, 248937, Note_on_c, 0, 71, 71
1, 248955, Note_on_c, 0, 62, 56
1, 248979, Note_off_c, 0, 62, 60
1, 248985, Control_c, 0, 64, 102
1, 248994, Note_off_c, 0, 71, 64
1, 249000, Control_c, 0, 64, 75
1, 249015, Control_c, 0, 64, 0
1, 249052, Note_on_c, 0, 69, 71
1, 249065, Note_on_c, 0, 45, 66
1, 249066, Note_on_c, 0, 61, 69
1, 249101, Note_off_c, 0, 45, 62
1, 249103, Control_c, 0, 64, 64
1, 249118, Control_c, 0, 64, 83
1, 249133, Control_c, 0, 64, 127
1, 249170, Note_off_c, 0, 61, 60
1, 249232, Note_off_c, 0, 69, 55
1, 249251, Control_c, 0, 67, 124
1, 249266, Control_c, 0, 67, 119
1, 249281, Control_c, 0, 67, 113
1, 249295, Control_c, 0, 67, 105
1, 249310, Control_c, 0, 67, 97
1, 249333, Control_c, 0, 67, 87
1, 249348, Control_c, 0, 67, 78
1, 249363, Control_c, 0, 67, 69
1, 249377, Control_c, 0, 67, 61
1, 249392, Control_c, 0, 67, 54
1, 249404, Note_on_c, 0, 61, 63
1, 249407, Control_c, 0, 67, 46
1, 249408, Note_on_c, 0, 52, 49
1, 249414, Note_on_c, 0, 57, 55
1, 249422, Control_c, 0, 67, 39
1, 249437, Control_c, 0, 67, 32
1, 249451, Control_c, 0, 67, 24
1, 249466, Control_c, 0, 67, 13
1, 249481, Control_c, 0, 67, 0
1, 249510, Note_off_c, 0, 52, 55
1, 249599, Note_off_c, 0, 61, 38
1, 249601, Note_off_c, 0, 57, 36
1, 249681, Note_on_c, 0, 64, 63
1, 249684, Note_on_c, 0, 93, 100
1, 249686, Note_on_c, 0, 85, 96
1, 249688, Note_on_c, 0, 81, 90
1, 249689, Note_on_c, 0, 61, 60
1, 249695, Note_on_c, 0, 57, 68
1, 249709, Note_off_c, 0, 64, 67
1, 249732, Note_off_c, 0, 61, 62
1, 249758, Note_off_c, 0, 57, 61
1, 249897, Control_c, 0, 64, 94
1, 249912, Control_c, 0, 64, 78
1, 249923, Note_on_c, 0, 45, 83
1, 249926, Control_c, 0, 64, 72
1, 249941, Control_c, 0, 64, 76
1, 249956, Control_c, 0, 64, 89
1, 249971, Control_c, 0, 64, 127
1, 249975, Note_off_c, 0, 45, 65
1, 250093, Note_off_c, 0, 85, 60
1, 250152, Note_off_c, 0, 81, 47
1, 250165, Note_off_c, 0, 93, 29
1, 250253, Note_on_c, 0, 93, 103
1, 250254, Note_on_c, 0, 81, 96
1, 250257, Note_on_c, 0, 84, 96
1, 250260, Control_c, 0, 64, 99
1, 250262, Note_on_c, 0, 57, 70
1, 250263, Note_on_c, 0, 65, 75
1, 250264, Note_on_c, 0, 60, 73
1, 250275, Control_c, 0, 64, 76
1, 250290, Control_c, 0, 64, 66
1, 250305, Control_c, 0, 64, 68
1, 250319, Control_c, 0, 64, 79
1, 250330, Note_off_c, 0, 81, 62
1, 250334, Control_c, 0, 64, 105
1, 250349, Control_c, 0, 64, 127
1, 250351, Note_off_c, 0, 93, 60
1, 250378, Note_off_c, 0, 57, 55
1, 250393, Note_off_c, 0, 84, 56
1, 250398, Note_off_c, 0, 65, 48
1, 250523, Note_off_c, 0, 60, 30
1, 250574, Note_on_c, 0, 65, 64
1, 250574, Note_on_c, 0, 60, 55
1, 250579, Note_on_c, 0, 57, 69
1, 250604, Note_off_c, 0, 65, 65
1, 250636, Note_off_c, 0, 60, 64
1, 250640, Note_off_c, 0, 57, 61
1, 250695, Note_on_c, 0, 93, 94
1, 250696, Note_on_c, 0, 81, 90
1, 250700, Note_on_c, 0, 84, 83
1, 250750, Note_off_c, 0, 93, 64
1, 250751, Note_off_c, 0, 81, 63
1, 250753, Note_off_c, 0, 84, 64
1, 250780, Control_c, 0, 64, 83
1, 250795, Control_c, 0, 64, 0
1, 250797, Note_on_c, 0, 93, 92
1, 250799, Note_on_c, 0, 84, 89
1, 250803, Note_on_c, 0, 81, 92
1, 250812, Note_on_c, 0, 46, 83
1, 250852, Note_off_c, 0, 46, 61
1, 250861, Control_c, 0, 64, 47
1, 250875, Control_c, 0, 64, 70
1, 250890, Control_c, 0, 64, 95
1, 250905, Control_c, 0, 64, 127
1, 250992, Note_off_c, 0, 93, 55
1, 251054, Note_off_c, 0, 81, 48
1, 251138, Note_off_c, 0, 84, 50
1, 251196, Note_on_c, 0, 55, 56
1, 251197, Note_on_c, 0, 65, 54
1, 251202, Note_on_c, 0, 62, 57
1, 251342, Note_off_c, 0, 65, 55
1, 251347, Note_off_c, 0, 55, 36
1, 251365, Note_off_c, 0, 62, 52
1, 251451, Note_on_c, 0, 91, 98
1, 251456, Note_on_c, 0, 82, 96
1, 251457, Note_on_c, 0, 79, 92
1, 251463, Note_on_c, 0, 55, 63
1, 251474, Note_on_c, 0, 65, 39
1, 251480, Note_on_c, 0, 62, 56
1, 251500, Note_off_c, 0, 65, 58
1, 251507, Note_off_c, 0, 62, 64
1, 251531, Note_off_c, 0, 55, 62
1, 251653, Control_c, 0, 64, 96
1, 251668, Control_c, 0, 64, 67
1, 251683, Control_c, 0, 64, 0
1, 251709, Note_on_c, 0, 48, 88
1, 251717, Note_off_c, 0, 79, 54
1, 251724, Note_off_c, 0, 91, 59
1, 251728, Control_c, 0, 64, 66
1, 251741, Note_off_c, 0, 82, 59
1, 251742, Control_c, 0, 64, 88
1, 251757, Control_c, 0, 64, 127
1, 251760, Note_off_c, 0, 48, 64
1, 251916, Note_on_c, 0, 82, 97
1, 251917, Note_on_c, 0, 91, 85
1, 251920, Note_on_c, 0, 79, 81
1, 251952, Note_off_c, 0, 91, 62
1, 251957, Note_off_c, 0, 82, 63
1, 251960, Note_off_c, 0, 79, 61
1, 252003, Note_on_c, 0, 91, 90
1, 252010, Note_on_c, 0, 82, 95
1, 252011, Note_on_c, 0, 79, 86
1, 252016, Note_on_c, 0, 55, 64
1, 252017, Note_on_c, 0, 64, 67
1, 252020, Note_on_c, 0, 58, 66
1, 252053, Note_off_c, 0, 79, 64
1, 252074, Note_off_c, 0, 91, 64
1, 252076, Note_off_c, 0, 82, 64
1, 252187, Note_on_c, 0, 94, 91
1, 252188, Note_on_c, 0, 82, 91
1, 252192, Note_on_c, 0, 86, 80
1, 252208, Note_off_c, 0, 55, 59
1, 252219, Note_off_c, 0, 64, 50
1, 252227, Note_off_c, 0, 86, 61
1, 252230, Note_off_c, 0, 82, 65
1, 252231, Note_off_c, 0, 94, 67
1, 252252, Note_off_c, 0, 58, 58
1, 252306, Note_on_c, 0, 93, 96
1, 252309, Note_on_c, 0, 81, 93
1, 252314, Note_on_c, 0, 84, 77
1, 252333, Note_on_c, 0, 55, 68
1, 252339, Note_on_c, 0, 58, 56
1, 252340, Note_off_c, 0, 84, 72
1, 252353, Note_on_c, 0, 64, 21
1, 252357, Note_off_c, 0, 93, 67
1, 252358, Note_off_c, 0, 81, 68
1, 252366, Note_off_c, 0, 58, 66
1, 252378, Note_off_c, 0, 55, 65
1, 252393, Note_off_c, 0, 64, 50
1, 252418, Note_on_c, 0, 91, 96
1, 252420, Note_on_c, 0, 79, 95
1, 252423, Note_on_c, 0, 82, 96
1, 252458, Note_off_c, 0, 91, 67
1, 252461, Control_c, 0, 64, 91
1, 252462, Note_off_c, 0, 79, 63
1, 252465, Note_off_c, 0, 82, 64
1, 252476, Control_c, 0, 64, 62
1, 252491, Control_c, 0, 64, 0
1, 252518, Note_on_c, 0, 91, 97
1, 252518, Note_on_c, 0, 82, 92
1, 252525, Note_on_c, 0, 79, 86
1, 252541, Note_on_c, 0, 41, 78
1, 252550, Control_c, 0, 64, 67
1, 252565, Control_c, 0, 64, 90
1, 252569, Note_off_c, 0, 41, 65
1, 252580, Control_c, 0, 64, 127
1, 252707, Note_off_c, 0, 91, 54
1, 252827, Note_on_c, 0, 65, 69
1, 252831, Note_on_c, 0, 57, 66
1, 252834, Note_on_c, 0, 60, 67
1, 252838, Note_off_c, 0, 79, 52
1, 252842, Note_off_c, 0, 82, 64
1, 252866, Note_off_c, 0, 65, 60
1, 252868, Note_off_c, 0, 57, 61
1, 252890, Note_off_c, 0, 60, 55
1, 253040, Control_c, 0, 64, 121
1, 253055, Control_c, 0, 64, 78
1, 253071, Note_on_c, 0, 89, 86
1, 253073, Note_on_c, 0, 81, 81
1, 253074, Note_on_c, 0, 77, 78
1, 253077, Control_c, 0, 64, 0
1, 253078, Note_on_c, 0, 65, 58
1, 253085, Note_on_c, 0, 57, 65
1, 253088, Note_on_c, 0, 60, 69
1, 253097, Note_off_c, 0, 65, 66
1, 253123, Note_off_c, 0, 60, 67
1, 253148, Note_off_c, 0, 57, 59
1, 253284, Control_c, 0, 64, 60
1, 253294, Note_on_c, 0, 41, 81
1, 253299, Control_c, 0, 64, 82
1, 253314, Control_c, 0, 64, 127
1, 253325, Note_off_c, 0, 41, 66
1, 253355, Note_off_c, 0, 81, 61
1, 253356, Note_off_c, 0, 77, 58
1, 253436, Note_off_c, 0, 89, 27
1, 253537, Control_c, 0, 64, 92
1, 253539, Note_on_c, 0, 89, 104
1, 253540, Note_on_c, 0, 80, 97
1, 253540, Note_on_c, 0, 77, 99
1, 253549, Note_on_c, 0, 65, 68
1, 253551, Note_on_c, 0, 56, 68
1, 253551, Control_c, 0, 64, 65
1, 253555, Note_on_c, 0, 61, 70
1, 253557, Note_on_c, 0, 53, 62
1, 253566, Control_c, 0, 64, 0
1, 253596, Control_c, 0, 64, 64
1, 253607, Note_off_c, 0, 77, 63
1, 253611, Control_c, 0, 64, 83
1, 253624, Note_off_c, 0, 89, 63
1, 253625, Control_c, 0, 64, 127
1, 253632, Note_off_c, 0, 80, 62
1, 253651, Note_off_c, 0, 53, 59
1, 253662, Note_off_c, 0, 65, 57
1, 253673, Note_off_c, 0, 56, 60
1, 253685, Note_off_c, 0, 61, 55
1, 253780, Note_on_c, 0, 65, 66
1, 253784, Note_on_c, 0, 56, 66
1, 253784, Note_on_c, 0, 53, 63
1, 253797, Note_on_c, 0, 61, 65
1, 253805, Note_off_c, 0, 65, 69
1, 253834, Note_off_c, 0, 61, 64
1, 253859, Note_off_c, 0, 53, 64
1, 253866, Note_off_c, 0, 56, 63
1, 253913, Note_on_c, 0, 89, 86
1, 253915, Note_on_c, 0, 77, 90
1, 253915, Note_on_c, 0, 80, 86
1, 253931, Note_on_c, 0, 88, 69
1, 253944, Note_off_c, 0, 80, 59
1, 253948, Note_off_c, 0, 88, 65
1, 253954, Note_off_c, 0, 89, 61
1, 253956, Note_on_c, 0, 79, 37
1, 253957, Note_off_c, 0, 79, 127
1, 253961, Note_off_c, 0, 77, 64
1, 253973, Control_c, 0, 64, 77
1, 253986, Poly_aftertouch_c, 0, 79, 0
1, 253988, Control_c, 0, 64, 0
1, 253996, Note_on_c, 0, 89, 89
1, 254002, Note_on_c, 0, 80, 101
1, 254004, Note_on_c, 0, 77, 87
1, 254009, Note_on_c, 0, 42, 89
1, 254047, Control_c, 0, 64, 55
1, 254050, Note_off_c, 0, 42, 62
1, 254062, Control_c, 0, 64, 79
1, 254077, Control_c, 0, 64, 127
1, 254103, Note_off_c, 0, 89, 61
1, 254131, Note_off_c, 0, 77, 59
1, 254233, Note_off_c, 0, 80, 49
1, 254296, Note_on_c, 0, 63, 62
1, 254300, Note_on_c, 0, 54, 53
1, 254308, Note_on_c, 0, 61, 57
1, 254310, Note_on_c, 0, 58, 56
1, 254393, Note_off_c, 0, 54, 57
1, 254414, Note_off_c, 0, 63, 54
1, 254433, Note_off_c, 0, 61, 56
1, 254446, Note_off_c, 0, 58, 56
1, 254517, Note_on_c, 0, 87, 95
1, 254518, Note_on_c, 0, 54, 64
1, 254519, Note_on_c, 0, 78, 91
1, 254522, Note_on_c, 0, 75, 84
1, 254527, Note_on_c, 0, 58, 57
1, 254537, Note_on_c, 0, 63, 40
1, 254577, Note_off_c, 0, 63, 53
1, 254587, Note_off_c, 0, 58, 59
1, 254603, Note_off_c, 0, 54, 63
1, 254722, Control_c, 0, 64, 113
1, 254737, Control_c, 0, 64, 70
1, 254752, Control_c, 0, 64, 0
1, 254785, Note_on_c, 0, 44, 85
1, 254796, Control_c, 0, 64, 53
1, 254804, Note_off_c, 0, 75, 55
1, 254811, Control_c, 0, 64, 74
1, 254821, Note_off_c, 0, 87, 59
1, 254826, Control_c, 0, 64, 127
1, 254838, Note_off_c, 0, 78, 58
1, 254842, Note_off_c, 0, 44, 63
1, 254966, Note_on_c, 0, 78, 90
1, 254969, Note_on_c, 0, 87, 85
1, 254972, Note_on_c, 0, 75, 81
1, 255006, Note_off_c, 0, 87, 62
1, 255007, Note_off_c, 0, 78, 65
1, 255015, Note_off_c, 0, 75, 62
1, 255057, Note_on_c, 0, 87, 95
1, 255062, Note_on_c, 0, 75, 77
1, 255062, Note_on_c, 0, 78, 94
1, 255074, Note_on_c, 0, 63, 67
1, 255077, Note_on_c, 0, 54, 58
1, 255083, Note_on_c, 0, 60, 62
1, 255090, Note_on_c, 0, 56, 53
1, 255111, Note_off_c, 0, 75, 62
1, 255133, Note_off_c, 0, 78, 65
1, 255140, Note_off_c, 0, 87, 63
1, 255236, Note_on_c, 0, 78, 90
1, 255236, Note_on_c, 0, 90, 90
1, 255239, Note_on_c, 0, 82, 89
1, 255255, Note_off_c, 0, 82, 74
1, 255260, Note_off_c, 0, 54, 38
1, 255266, Note_off_c, 0, 56, 53
1, 255275, Note_off_c, 0, 78, 65
1, 255278, Note_off_c, 0, 63, 51
1, 255279, Note_off_c, 0, 60, 39
1, 255280, Note_off_c, 0, 90, 65
1, 255364, Note_on_c, 0, 89, 97
1, 255368, Note_on_c, 0, 80, 92
1, 255369, Note_on_c, 0, 77, 81
1, 255378, Note_on_c, 0, 54, 60
1, 255391, Note_on_c, 0, 56, 59
1, 255392, Note_off_c, 0, 77, 68
1, 255402, Note_off_c, 0, 80, 66
1, 255404, Note_off_c, 0, 89, 61
1, 255421, Note_off_c, 0, 56, 64
1, 255426, Note_off_c, 0, 54, 60
1, 255475, Note_on_c, 0, 87, 93
1, 255478, Note_on_c, 0, 78, 95
1, 255481, Note_on_c, 0, 75, 85
1, 255516, Control_c, 0, 64, 111
1, 255518, Note_off_c, 0, 87, 64
1, 255520, Note_off_c, 0, 78, 62
1, 255525, Note_off_c, 0, 75, 61
1, 255531, Control_c, 0, 64, 75
1, 255545, Control_c, 0, 64, 0
1, 255573, Poly_aftertouch_c, 0, 75, 0
1, 255574, Note_on_c, 0, 87, 94
1, 255581, Note_on_c, 0, 75, 83
1, 255581, Note_on_c, 0, 78, 96
1, 255588, Note_on_c, 0, 37, 77
1, 255605, Control_c, 0, 64, 63
1, 255618, Note_off_c, 0, 37, 67
1, 255619, Control_c, 0, 64, 80
1, 255634, Control_c, 0, 64, 127
1, 255754, Note_off_c, 0, 87, 62
1, 255827, Note_off_c, 0, 75, 62
1, 255857, Note_off_c, 0, 78, 56
1, 255864, Note_on_c, 0, 56, 61
1, 255865, Note_on_c, 0, 65, 60
1, 255877, Note_on_c, 0, 53, 52
1, 255877, Note_on_c, 0, 61, 58
1, 255912, Note_off_c, 0, 53, 65
1, 255918, Note_off_c, 0, 61, 58
1, 255919, Note_off_c, 0, 65, 59
1, 255921, Note_off_c, 0, 56, 61
1, 256110, Note_on_c, 0, 85, 77
1, 256119, Note_on_c, 0, 73, 74
1, 256124, Note_on_c, 0, 77, 69
1, 256131, Note_on_c, 0, 53, 53
1, 256131, Note_on_c, 0, 56, 57
1, 256139, Note_on_c, 0, 65, 32
1, 256146, Control_c, 0, 64, 113
1, 256161, Control_c, 0, 64, 79
1, 256165, Note_off_c, 0, 56, 64
1, 256167, Note_off_c, 0, 65, 56
1, 256175, Control_c, 0, 64, 42
1, 256175, Control_c, 0, 67, 8
1, 256181, Note_off_c, 0, 53, 66
1, 256190, Control_c, 0, 64, 0
1, 256190, Control_c, 0, 67, 9
1, 256199, Poly_aftertouch_c, 0, 61, 0
1, 256205, Control_c, 0, 67, 10
1, 256220, Control_c, 0, 67, 11
1, 256235, Control_c, 0, 67, 11
1, 256250, Control_c, 0, 67, 12
1, 256265, Control_c, 0, 67, 12
1, 256279, Control_c, 0, 67, 14
1, 256294, Control_c, 0, 67, 16
1, 256309, Control_c, 0, 67, 19
1, 256324, Control_c, 0, 67, 23
1, 256339, Control_c, 0, 67, 28
1, 256354, Control_c, 0, 67, 34
1, 256368, Control_c, 0, 67, 40
1, 256383, Control_c, 0, 67, 45
1, 256393, Note_on_c, 0, 37, 63
1, 256398, Control_c, 0, 64, 56
1, 256398, Control_c, 0, 67, 50
1, 256413, Control_c, 0, 64, 70
1, 256413, Control_c, 0, 67, 54
1, 256427, Note_off_c, 0, 37, 64
1, 256428, Control_c, 0, 64, 88
1, 256428, Control_c, 0, 67, 58
1, 256442, Control_c, 0, 64, 127
1, 256442, Control_c, 0, 67, 63
1, 256457, Control_c, 0, 67, 68
1, 256462, Note_off_c, 0, 85, 56
1, 256465, Note_off_c, 0, 77, 58
1, 256472, Control_c, 0, 67, 72
1, 256483, Note_off_c, 0, 73, 45
1, 256486, Control_c, 0, 67, 75
1, 256501, Control_c, 0, 67, 78
1, 256516, Control_c, 0, 67, 81
1, 256531, Control_c, 0, 67, 86
1, 256546, Control_c, 0, 67, 91
1, 256560, Control_c, 0, 67, 96
1, 256575, Control_c, 0, 67, 100
1, 256590, Control_c, 0, 67, 103
1, 256605, Control_c, 0, 67, 105
1, 256619, Control_c, 0, 67, 107
1, 256634, Control_c, 0, 67, 110
1, 256649, Control_c, 0, 67, 114
1, 256664, Control_c, 0, 67, 117
1, 256679, Control_c, 0, 67, 120
1, 256694, Control_c, 0, 67, 122
1, 256709, Control_c, 0, 67, 124
1, 256719, Note_on_c, 0, 85, 74
1, 256724, Control_c, 0, 64, 120
1, 256724, Control_c, 0, 67, 127
1, 256733, Note_on_c, 0, 73, 58
1, 256737, Note_on_c, 0, 76, 63
1, 256738, Control_c, 0, 64, 89
1, 256738, Control_c, 0, 67, 127
1, 256747, Note_on_c, 0, 57, 43
1, 256750, Note_on_c, 0, 61, 45
1, 256753, Note_on_c, 0, 52, 42
1, 256753, Control_c, 0, 64, 70
1, 256768, Control_c, 0, 64, 0
1, 256820, Control_c, 0, 64, 47
1, 256835, Control_c, 0, 64, 67
1, 256850, Control_c, 0, 64, 80
1, 256865, Control_c, 0, 64, 108
1, 256880, Control_c, 0, 64, 127
1, 256917, Note_off_c, 0, 52, 34
1, 256929, Note_off_c, 0, 57, 36
1, 256929, Note_off_c, 0, 61, 41
1, 256958, Note_off_c, 0, 73, 47
1, 256965, Note_off_c, 0, 76, 56
1, 256969, Note_off_c, 0, 85, 55
1, 257083, Note_on_c, 0, 52, 41
1, 257096, Note_on_c, 0, 61, 29
1, 257102, Note_on_c, 0, 57, 21
1, 257136, Note_off_c, 0, 61, 47
1, 257147, Note_off_c, 0, 57, 42
1, 257150, Note_off_c, 0, 52, 61
1, 257220, Note_on_c, 0, 85, 67
1, 257228, Note_on_c, 0, 76, 64
1, 257236, Note_on_c, 0, 73, 52
1, 257255, Note_off_c, 0, 85, 59
1, 257271, Note_off_c, 0, 76, 59
1, 257276, Note_off_c, 0, 73, 58
1, 257281, Control_c, 0, 64, 109
1, 257296, Control_c, 0, 64, 78
1, 257310, Control_c, 0, 64, 48
1, 257325, Control_c, 0, 64, 0
1, 257333, Note_on_c, 0, 85, 68
1, 257346, Note_on_c, 0, 73, 59
1, 257350, Note_on_c, 0, 76, 52
1, 257365, Note_on_c, 0, 42, 55
1, 257398, Note_off_c, 0, 42, 64
1, 257399, Control_c, 0, 64, 37
1, 257414, Control_c, 0, 64, 68
1, 257429, Control_c, 0, 64, 86
1, 257443, Control_c, 0, 64, 127
1, 257621, Note_off_c, 0, 85, 62
1, 257677, Note_off_c, 0, 76, 38
1, 257682, Note_off_c, 0, 73, 61
1, 257714, Note_on_c, 0, 54, 33
1, 257723, Note_on_c, 0, 59, 37
1, 257728, Note_on_c, 0, 57, 31
1, 257760, Note_off_c, 0, 54, 56
1, 257772, Note_off_c, 0, 57, 50
1, 257774, Note_off_c, 0, 59, 55
1, 257939, Note_on_c, 0, 83, 57
1, 257955, Note_on_c, 0, 71, 45
1, 257959, Note_on_c, 0, 75, 54
1, 257972, Note_on_c, 0, 59, 37
1, 257981, Note_on_c, 0, 54, 32
1, 257987, Note_on_c, 0, 57, 24
1, 257987, Note_off_c, 0, 71, 67
1, 258008, Note_off_c, 0, 75, 57
1, 258012, Note_off_c, 0, 83, 63
1, 258021, Note_off_c, 0, 54, 58
1, 258025, Note_off_c, 0, 59, 53
1, 258037, Note_off_c, 0, 57, 47
1, 258327, Note_on_c, 0, 59, 35
1, 258332, Note_on_c, 0, 57, 31
1, 258337, Note_on_c, 0, 54, 32
1, 258406, Control_c, 0, 64, 103
1, 258421, Control_c, 0, 64, 80
1, 258436, Control_c, 0, 64, 63
1, 258451, Control_c, 0, 64, 0
1, 258457, Note_on_c, 0, 93, 62
1, 258473, Note_on_c, 0, 85, 46
1, 258480, Control_c, 0, 64, 11
1, 258495, Control_c, 0, 64, 59
1, 258510, Control_c, 0, 64, 69
1, 258525, Control_c, 0, 64, 82
1, 258541, Control_c, 0, 64, 119
1, 258555, Control_c, 0, 64, 127
1, 258625, Note_off_c, 0, 93, 49
1, 258653, Note_off_c, 0, 85, 62
1, 258655, Note_on_c, 0, 90, 59
1, 258660, Note_on_c, 0, 81, 63
1, 258683, Note_off_c, 0, 90, 68
1, 258708, Note_off_c, 0, 81, 63
1, 258791, Note_on_c, 0, 87, 65
1, 258797, Note_on_c, 0, 78, 67
1, 258870, Note_off_c, 0, 87, 64
1, 258875, Note_off_c, 0, 78, 60
1, 258897, Note_on_c, 0, 83, 56
1, 258906, Note_on_c, 0, 75, 64
1, 258916, Note_off_c, 0, 83, 65
1, 258933, Note_off_c, 0, 75, 67
1, 259016, Note_on_c, 0, 81, 41
1, 259019, Note_on_c, 0, 72, 52
1, 259044, Note_off_c, 0, 59, 36
1, 259047, Note_on_c, 0, 79, 26
1, 259058, Note_off_c, 0, 57, 34
1, 259063, Note_off_c, 0, 72, 47
1, 259064, Note_off_c, 0, 81, 46
1, 259091, Note_off_c, 0, 79, 52
1, 259107, Note_on_c, 0, 69, 64
1, 259114, Note_on_c, 0, 77, 31
1, 259131, Note_off_c, 0, 54, 36
1, 259132, Note_off_c, 0, 69, 68
1, 259148, Note_off_c, 0, 77, 53
1, 259204, Note_on_c, 0, 66, 65
1, 259213, Note_on_c, 0, 75, 44
1, 259239, Note_off_c, 0, 75, 59
1, 259240, Note_off_c, 0, 66, 60
1, 259305, Note_on_c, 0, 71, 63
1, 259326, Note_on_c, 0, 63, 64
1, 259362, Note_off_c, 0, 63, 61
1, 259368, Note_off_c, 0, 71, 64
1, 259660, Control_c, 0, 64, 113
1, 259675, Control_c, 0, 64, 83
1, 259680, Note_on_c, 0, 73, 65
1, 259690, Control_c, 0, 64, 64
1, 259695, Note_on_c, 0, 63, 55
1, 259704, Control_c, 0, 64, 0
1, 259711, Note_off_c, 0, 73, 63
1, 259728, Note_off_c, 0, 63, 65
1, 259801, Note_on_c, 0, 73, 67
1, 259819, Note_on_c, 0, 64, 56
1, 259832, Note_on_c, 0, 40, 37
1, 259860, Control_c, 0, 64, 60
1, 259875, Control_c, 0, 64, 76
1, 259890, Control_c, 0, 64, 97
1, 259905, Control_c, 0, 64, 127
1, 259908, Note_off_c, 0, 40, 58
1, 260070, Note_off_c, 0, 64, 53
1, 260188, Note_on_c, 0, 56, 45
1, 260198, Note_on_c, 0, 52, 42
1, 260239, Note_off_c, 0, 52, 59
1, 260244, Note_off_c, 0, 56, 57
1, 260413, Note_off_c, 0, 73, 60
1, 260432, Note_on_c, 0, 71, 51
1, 260444, Note_on_c, 0, 62, 45
1, 260458, Note_on_c, 0, 52, 38
1, 260459, Note_on_c, 0, 56, 28
1, 260480, Note_off_c, 0, 62, 62
1, 260494, Note_off_c, 0, 71, 62
1, 260515, Note_off_c, 0, 52, 53
1, 260517, Note_off_c, 0, 56, 52
1, 260780, Note_on_c, 0, 56, 39
1, 260781, Note_on_c, 0, 52, 46
1, 260787, Control_c, 0, 64, 106
1, 260801, Control_c, 0, 64, 85
1, 260816, Control_c, 0, 64, 65
1, 260831, Control_c, 0, 64, 0
1, 260921, Control_c, 0, 64, 27
1, 260936, Control_c, 0, 64, 64
1, 260938, Note_on_c, 0, 98, 52
1, 260951, Note_on_c, 0, 90, 47
1, 260951, Control_c, 0, 64, 73
1, 260965, Control_c, 0, 64, 85
1, 260980, Control_c, 0, 64, 104
1, 260995, Control_c, 0, 64, 127
1, 261074, Note_off_c, 0, 98, 55
1, 261132, Note_on_c, 0, 95, 64
1, 261144, Note_on_c, 0, 86, 57
1, 261150, Note_off_c, 0, 90, 32
1, 261158, Note_off_c, 0, 95, 69
1, 261176, Note_off_c, 0, 86, 66
1, 261269, Note_on_c, 0, 92, 65
1, 261284, Note_on_c, 0, 83, 63
1, 261353, Note_off_c, 0, 92, 61
1, 261388, Note_on_c, 0, 88, 59
1, 261395, Note_on_c, 0, 80, 67
1, 261397, Note_off_c, 0, 83, 64
1, 261405, Note_off_c, 0, 88, 64
1, 261421, Note_off_c, 0, 80, 64
1, 261475, Note_off_c, 0, 56, 44
1, 261490, Note_on_c, 0, 86, 72
1, 261499, Note_on_c, 0, 78, 73
1, 261550, Note_off_c, 0, 86, 48
1, 261591, Note_off_c, 0, 78, 56
1, 261591, Note_on_c, 0, 83, 60
1, 261614, Note_on_c, 0, 74, 68
1, 261617, Note_off_c, 0, 83, 66
1, 261618, Note_off_c, 0, 52, 41
1, 261640, Note_off_c, 0, 74, 68
1, 261713, Note_on_c, 0, 80, 71
1, 261734, Note_on_c, 0, 71, 56
1, 261799, Note_off_c, 0, 80, 60
1, 261822, Note_on_c, 0, 76, 55
1, 261832, Note_on_c, 0, 68, 66
1, 261836, Note_off_c, 0, 71, 64
1, 261847, Note_off_c, 0, 76, 64
1, 261865, Note_off_c, 0, 68, 62
1, 261953, Note_on_c, 0, 74, 66
1, 261965, Note_on_c, 0, 66, 59
1, 262014, Note_off_c, 0, 74, 61
1, 262035, Note_off_c, 0, 66, 56
1, 262184, Note_on_c, 0, 71, 69
1, 262210, Control_c, 0, 64, 99
1, 262224, Control_c, 0, 64, 80
1, 262226, Note_on_c, 0, 62, 40
1, 262239, Control_c, 0, 64, 64
1, 262254, Control_c, 0, 64, 0
1, 262372, Control_c, 0, 64, 56
1, 262387, Control_c, 0, 64, 68
1, 262402, Control_c, 0, 64, 79
1, 262417, Control_c, 0, 64, 95
1, 262432, Control_c, 0, 64, 127
1, 262490, Note_off_c, 0, 62, 35
1, 262759, Control_c, 0, 64, 105
1, 262768, Note_on_c, 0, 74, 60
1, 262774, Control_c, 0, 64, 85
1, 262789, Control_c, 0, 64, 69
1, 262805, Note_on_c, 0, 66, 44
1, 262807, Note_off_c, 0, 71, 52
1, 262811, Control_c, 0, 64, 23
1, 262826, Control_c, 0, 64, 0
1, 262900, Control_c, 0, 64, 42
1, 262915, Control_c, 0, 64, 64
1, 262930, Control_c, 0, 64, 72
1, 262945, Control_c, 0, 64, 81
1, 262960, Control_c, 0, 64, 94
1, 262975, Control_c, 0, 64, 114
1, 262989, Control_c, 0, 64, 127
1, 263060, Note_off_c, 0, 74, 63
1, 263207, Note_off_c, 0, 66, 55
1, 263478, Control_c, 0, 64, 93
1, 263493, Control_c, 0, 64, 79
1, 263508, Control_c, 0, 64, 69
1, 263512, Note_on_c, 0, 73, 46
1, 263523, Control_c, 0, 64, 65
1, 263526, Note_on_c, 0, 64, 39
1, 263538, Control_c, 0, 64, 67
1, 263560, Control_c, 0, 64, 71
1, 263575, Control_c, 0, 64, 79
1, 263590, Control_c, 0, 64, 93
1, 263604, Control_c, 0, 64, 127
1, 263622, Note_off_c, 0, 64, 60
1, 263622, Note_off_c, 0, 73, 54
1, 263827, Control_c, 0, 64, 94
1, 263842, Control_c, 0, 64, 76
1, 263845, Note_on_c, 0, 71, 43
1, 263857, Control_c, 0, 64, 59
1, 263872, Control_c, 0, 64, 26
1, 263886, Control_c, 0, 64, 42
1, 263890, Note_on_c, 0, 62, 17
1, 263901, Control_c, 0, 64, 59
1, 263916, Control_c, 0, 64, 65
1, 263931, Control_c, 0, 64, 73
1, 263946, Control_c, 0, 64, 85
1, 263951, Note_off_c, 0, 62, 57
1, 263960, Control_c, 0, 64, 112
1, 263966, Note_off_c, 0, 71, 59
1, 263975, Control_c, 0, 64, 127
1, 264154, Control_c, 0, 64, 113
1, 264168, Control_c, 0, 64, 92
1, 264183, Control_c, 0, 64, 78
1, 264198, Control_c, 0, 64, 67
1, 264213, Control_c, 0, 64, 49
1, 264227, Control_c, 0, 64, 0
1, 265020, Note_on_c, 0, 72, 37
1, 265041, Note_on_c, 0, 63, 27
1, 265132, Control_c, 0, 64, 40
1, 265147, Control_c, 0, 64, 62
1, 265162, Control_c, 0, 64, 67
1, 265176, Control_c, 0, 64, 72
1, 265191, Control_c, 0, 64, 79
1, 265206, Control_c, 0, 64, 87
1, 265221, Control_c, 0, 64, 97
1, 265236, Control_c, 0, 64, 113
1, 265250, Control_c, 0, 64, 127
1, 265287, Note_off_c, 0, 63, 43
1, 265755, Control_c, 0, 64, 107
1, 265770, Control_c, 0, 64, 91
1, 265774, Note_on_c, 0, 74, 41
1, 265785, Control_c, 0, 64, 78
1, 265786, Note_on_c, 0, 66, 34
1, 265806, Control_c, 0, 64, 66
1, 265806, Note_off_c, 0, 72, 41
1, 265821, Control_c, 0, 64, 0
1, 265969, Control_c, 0, 64, 59
1, 265984, Control_c, 0, 64, 68
1, 265998, Control_c, 0, 64, 76
1, 266013, Control_c, 0, 64, 87
1, 266028, Control_c, 0, 64, 100
1, 266043, Control_c, 0, 64, 127
1, 266100, Note_off_c, 0, 74, 47
1, 266227, Note_off_c, 0, 66, 41
1, 266584, Control_c, 0, 64, 110
1, 266599, Control_c, 0, 64, 89
1, 266614, Control_c, 0, 64, 75
1, 266625, Note_on_c, 0, 73, 49
1, 266629, Control_c, 0, 64, 62
1, 266644, Control_c, 0, 64, 54
1, 266646, Note_on_c, 0, 64, 37
1, 266659, Control_c, 0, 64, 61
1, 266674, Control_c, 0, 64, 66
1, 266689, Control_c, 0, 64, 72
1, 266703, Control_c, 0, 64, 80
1, 266716, Note_off_c, 0, 73, 58
1, 266718, Control_c, 0, 64, 96
1, 266733, Control_c, 0, 64, 120
1, 266748, Control_c, 0, 64, 127
1, 266910, Control_c, 0, 64, 119
1, 266925, Control_c, 0, 64, 90
1, 266940, Control_c, 0, 64, 72
1, 266947, Note_on_c, 0, 71, 48
1, 266949, Note_off_c, 0, 64, 55
1, 266955, Control_c, 0, 64, 56
1, 266966, Note_on_c, 0, 62, 36
1, 266969, Control_c, 0, 64, 38
1, 266984, Control_c, 0, 64, 54
1, 266999, Control_c, 0, 64, 64
1, 267014, Control_c, 0, 64, 70
1, 267016, Note_off_c, 0, 71, 55
1, 267021, Note_off_c, 0, 62, 55
1, 267029, Control_c, 0, 64, 78
1, 267043, Control_c, 0, 64, 91
1, 267058, Control_c, 0, 64, 109
1, 267073, Control_c, 0, 64, 127
1, 267303, Control_c, 0, 64, 103
1, 267318, Control_c, 0, 64, 85
1, 267333, Control_c, 0, 64, 71
1, 267348, Control_c, 0, 64, 53
1, 267363, Control_c, 0, 64, 0
1, 267365, Note_on_c, 0, 69, 42
1, 267379, Note_on_c, 0, 61, 37
1, 267380, Note_on_c, 0, 45, 37
1, 267393, Control_c, 0, 64, 52
1, 267407, Control_c, 0, 64, 64
1, 267422, Control_c, 0, 64, 72
1, 267428, Note_off_c, 0, 45, 60
1, 267437, Control_c, 0, 64, 84
1, 267438, Note_off_c, 0, 61, 60
1, 267443, Note_off_c, 0, 69, 62
1, 267452, Control_c, 0, 64, 106
1, 267467, Control_c, 0, 64, 127
1, 267763, Control_c, 0, 64, 119
1, 267777, Control_c, 0, 64, 93
1, 267792, Control_c, 0, 64, 76
1, 267807, Control_c, 0, 64, 57
1, 267808, Note_on_c, 0, 57, 38
1, 267817, Note_on_c, 0, 52, 42
1, 267818, Note_on_c, 0, 61, 38
1, 267822, Control_c, 0, 64, 0
1, 267854, Note_off_c, 0, 52, 62
1, 267856, Note_off_c, 0, 57, 62
1, 267859, Note_off_c, 0, 61, 60
1, 268146, Note_on_c, 0, 61, 34
1, 268148, Note_on_c, 0, 52, 34
1, 268150, Note_on_c, 0, 57, 34
1, 268180, Note_off_c, 0, 61, 58
1, 268182, Note_off_c, 0, 57, 57
1, 268195, Note_off_c, 0, 52, 60
1, 268407, Control_c, 0, 64, 38
1, 268419, Note_on_c, 0, 45, 45
1, 268421, Note_on_c, 0, 85, 42
1, 268422, Control_c, 0, 64, 69
1, 268437, Control_c, 0, 64, 82
1, 268451, Note_off_c, 0, 45, 54
1, 268452, Control_c, 0, 64, 106
1, 268459, Note_off_c, 0, 85, 56
1, 268466, Control_c, 0, 64, 127
1, 268500, Note_on_c, 0, 84, 47
1, 268558, Note_on_c, 0, 85, 55
1, 268564, Note_off_c, 0, 84, 51
1, 268614, Control_c, 0, 64, 91
1, 268626, Note_off_c, 0, 85, 60
1, 268629, Control_c, 0, 64, 71
1, 268644, Note_on_c, 0, 88, 54
1, 268644, Control_c, 0, 64, 0
1, 268648, Note_on_c, 0, 55, 50
1, 268664, Note_on_c, 0, 61, 46
1, 268686, Note_on_c, 0, 64, 15
1, 268687, Note_off_c, 0, 55, 63
1, 268697, Note_off_c, 0, 61, 63
1, 268710, Note_off_c, 0, 88, 64
1, 268718, Note_off_c, 0, 64, 45
1, 268723, Note_on_c, 0, 90, 57
1, 268811, Note_on_c, 0, 88, 49
1, 268815, Note_off_c, 0, 90, 54
1, 268881, Note_off_c, 0, 88, 64
1, 268886, Note_on_c, 0, 87, 60
1, 268889, Note_on_c, 0, 55, 55
1, 268901, Note_on_c, 0, 61, 33
1, 268930, Note_off_c, 0, 55, 65
1, 268938, Note_off_c, 0, 61, 45
1, 268945, Note_off_c, 0, 87, 65
1, 268965, Note_on_c, 0, 86, 57
1, 269014, Note_off_c, 0, 86, 41
1, 269021, Note_on_c, 0, 85, 66
1, 269059, Note_off_c, 0, 85, 63
1, 269109, Note_on_c, 0, 90, 68
1, 269124, Note_on_c, 0, 85, 48
1, 269127, Control_c, 0, 64, 56
1, 269135, Note_on_c, 0, 45, 40
1, 269142, Control_c, 0, 64, 70
1, 269157, Control_c, 0, 64, 83
1, 269166, Note_off_c, 0, 85, 64
1, 269171, Note_off_c, 0, 45, 47
1, 269171, Control_c, 0, 64, 101
1, 269181, Note_on_c, 0, 86, 57
1, 269186, Control_c, 0, 64, 127
1, 269261, Note_off_c, 0, 86, 65
1, 269264, Note_on_c, 0, 85, 59
1, 269304, Control_c, 0, 64, 98
1, 269319, Control_c, 0, 64, 78
1, 269321, Note_off_c, 0, 85, 63
1, 269334, Control_c, 0, 64, 55
1, 269343, Note_on_c, 0, 84, 57
1, 269349, Control_c, 0, 64, 0
1, 269357, Note_on_c, 0, 54, 53
1, 269366, Note_on_c, 0, 63, 39
1, 269384, Note_off_c, 0, 54, 65
1, 269391, Note_off_c, 0, 84, 47
1, 269396, Note_off_c, 0, 63, 53
1, 269418, Note_on_c, 0, 85, 54
1, 269485, Note_off_c, 0, 85, 63
1, 269498, Note_on_c, 0, 84, 54
1, 269571, Note_off_c, 0, 84, 65
1, 269604, Note_on_c, 0, 83, 54
1, 269625, Note_on_c, 0, 54, 50
1, 269631, Note_on_c, 0, 63, 26
1, 269661, Note_off_c, 0, 54, 64
1, 269667, Note_off_c, 0, 63, 46
1, 269871, Note_on_c, 0, 45, 52
1, 269891, Control_c, 0, 64, 64
1, 269900, Note_off_c, 0, 45, 60
1, 269906, Control_c, 0, 64, 76
1, 269919, Note_off_c, 0, 90, 60
1, 269920, Control_c, 0, 64, 95
1, 269935, Control_c, 0, 64, 127
1, 269947, Note_on_c, 0, 89, 59
1, 269997, Note_off_c, 0, 83, 36
1, 270020, Note_on_c, 0, 90, 70
1, 270027, Note_off_c, 0, 89, 49
1, 270069, Control_c, 0, 64, 96
1, 270084, Control_c, 0, 64, 76
1, 270084, Note_off_c, 0, 90, 63
1, 270097, Note_on_c, 0, 93, 70
1, 270099, Control_c, 0, 64, 54
1, 270103, Note_on_c, 0, 54, 52
1, 270105, Note_on_c, 0, 62, 39
1, 270108, Note_on_c, 0, 83, 52
1, 270113, Control_c, 0, 64, 0
1, 270127, Note_on_c, 0, 57, 23
1, 270132, Note_off_c, 0, 54, 64
1, 270137, Note_off_c, 0, 62, 59
1, 270167, Note_off_c, 0, 57, 41
1, 270169, Note_off_c, 0, 93, 65
1, 270176, Note_on_c, 0, 95, 69
1, 270236, Note_on_c, 0, 93, 68
1, 270276, Note_off_c, 0, 95, 61
1, 270317, Note_on_c, 0, 92, 78
1, 270318, Note_off_c, 0, 93, 64
1, 270331, Note_on_c, 0, 54, 53
1, 270360, Note_off_c, 0, 54, 65
1, 270368, Note_off_c, 0, 83, 60
1, 270369, Note_off_c, 0, 92, 67
1, 270389, Note_on_c, 0, 91, 80
1, 270400, Poly_aftertouch_c, 0, 57, 0
1, 270459, Note_on_c, 0, 90, 79
1, 270463, Note_off_c, 0, 91, 65
1, 270507, Note_off_c, 0, 90, 65
1, 270540, Note_on_c, 0, 45, 58
1, 270550, Note_on_c, 0, 83, 68
1, 270555, Note_on_c, 0, 88, 66
1, 270566, Control_c, 0, 64, 62
1, 270578, Note_off_c, 0, 83, 60
1, 270581, Control_c, 0, 64, 73
1, 270586, Note_off_c, 0, 45, 62
1, 270595, Control_c, 0, 64, 84
1, 270610, Control_c, 0, 64, 100
1, 270620, Note_on_c, 0, 85, 66
1, 270625, Control_c, 0, 64, 106
1, 270669, Control_c, 0, 64, 105
1, 270674, Note_off_c, 0, 85, 64
1, 270683, Note_on_c, 0, 83, 66
1, 270684, Control_c, 0, 64, 99
1, 270699, Control_c, 0, 64, 88
1, 270714, Control_c, 0, 64, 76
1, 270729, Control_c, 0, 64, 63
1, 270737, Note_off_c, 0, 83, 60
1, 270743, Control_c, 0, 64, 0
1, 270758, Note_on_c, 0, 82, 64
1, 270779, Note_on_c, 0, 52, 53
1, 270779, Note_on_c, 0, 61, 50
1, 270807, Note_off_c, 0, 61, 57
1, 270812, Note_off_c, 0, 52, 63
1, 270813, Note_off_c, 0, 82, 62
1, 270829, Note_on_c, 0, 83, 57
1, 270895, Note_off_c, 0, 83, 65
1, 270921, Note_on_c, 0, 82, 55
1, 270978, Note_off_c, 0, 82, 63
1, 270999, Note_on_c, 0, 81, 62
1, 271013, Note_on_c, 0, 52, 55
1, 271056, Note_off_c, 0, 52, 63
1, 271092, Poly_aftertouch_c, 0, 61, 0
1, 271233, Note_off_c, 0, 88, 63
1, 271255, Control_c, 0, 64, 59
1, 271258, Note_off_c, 0, 81, 65
1, 271259, Note_on_c, 0, 42, 46
1, 271269, Control_c, 0, 64, 73
1, 271284, Control_c, 0, 64, 98
1, 271291, Note_off_c, 0, 42, 55
1, 271299, Control_c, 0, 64, 127
1, 271478, Control_c, 0, 64, 100
1, 271492, Control_c, 0, 64, 77
1, 271504, Note_on_c, 0, 51, 47
1, 271505, Note_on_c, 0, 69, 57
1, 271507, Control_c, 0, 64, 51
1, 271515, Note_on_c, 0, 57, 41
1, 271518, Note_on_c, 0, 60, 43
1, 271522, Control_c, 0, 64, 0
1, 271541, Note_off_c, 0, 51, 63
1, 271546, Note_off_c, 0, 60, 60
1, 271547, Note_off_c, 0, 57, 61
1, 271569, Note_on_c, 0, 72, 53
1, 271571, Note_off_c, 0, 69, 47
1, 271626, Note_off_c, 0, 72, 63
1, 271633, Note_on_c, 0, 71, 59
1, 271683, Note_off_c, 0, 71, 65
1, 271697, Note_on_c, 0, 69, 64
1, 271722, Note_on_c, 0, 51, 55
1, 271758, Note_off_c, 0, 51, 64
1, 271765, Note_off_c, 0, 69, 46
1, 271771, Note_on_c, 0, 68, 60
1, 271850, Note_on_c, 0, 66, 55
1, 271857, Note_off_c, 0, 68, 54
1, 271911, Note_off_c, 0, 66, 62
1, 271938, Note_on_c, 0, 41, 57
1, 271940, Note_on_c, 0, 62, 53
1, 271944, Control_c, 0, 64, 65
1, 271959, Control_c, 0, 64, 78
1, 271968, Note_off_c, 0, 41, 63
1, 271974, Note_off_c, 0, 62, 50
1, 271974, Control_c, 0, 64, 98
1, 271989, Control_c, 0, 64, 127
1, 272013, Note_on_c, 0, 64, 55
1, 272070, Note_on_c, 0, 65, 61
1, 272096, Note_off_c, 0, 64, 38
1, 272123, Control_c, 0, 64, 104
1, 272131, Note_off_c, 0, 65, 60
1, 272138, Control_c, 0, 64, 84
1, 272141, Note_on_c, 0, 68, 73
1, 272153, Control_c, 0, 64, 68
1, 272159, Note_on_c, 0, 50, 56
1, 272167, Control_c, 0, 64, 0
1, 272175, Note_on_c, 0, 57, 41
1, 272175, Note_on_c, 0, 59, 40
1, 272193, Note_off_c, 0, 68, 62
1, 272194, Note_off_c, 0, 50, 65
1, 272204, Note_off_c, 0, 57, 54
1, 272205, Note_off_c, 0, 59, 50
1, 272219, Note_on_c, 0, 69, 67
1, 272262, Note_off_c, 0, 69, 46
1, 272290, Note_on_c, 0, 71, 65
1, 272349, Note_off_c, 0, 71, 62
1, 272365, Note_on_c, 0, 73, 64
1, 272372, Note_on_c, 0, 50, 57
1, 272381, Note_on_c, 0, 57, 18
1, 272403, Note_off_c, 0, 50, 67
1, 272414, Note_off_c, 0, 73, 63
1, 272423, Note_off_c, 0, 57, 28
1, 272443, Note_on_c, 0, 74, 66
1, 272510, Note_off_c, 0, 74, 37
1, 272537, Note_on_c, 0, 76, 52
1, 272589, Control_c, 0, 64, 56
1, 272594, Note_on_c, 0, 40, 55
1, 272594, Note_on_c, 0, 77, 59
1, 272604, Control_c, 0, 64, 71
1, 272609, Note_off_c, 0, 76, 59
1, 272619, Control_c, 0, 64, 84
1, 272622, Note_off_c, 0, 40, 57
1, 272634, Control_c, 0, 64, 112
1, 272648, Control_c, 0, 64, 127
1, 272650, Note_off_c, 0, 77, 62
1, 272661, Note_on_c, 0, 80, 69
1, 272710, Note_off_c, 0, 80, 62
1, 272729, Note_on_c, 0, 81, 72
1, 272789, Note_off_c, 0, 81, 38
1, 272797, Control_c, 0, 64, 101
1, 272799, Note_on_c, 0, 83, 67
1, 272808, Note_on_c, 0, 52, 55
1, 272809, Note_on_c, 0, 56, 58
1, 272812, Control_c, 0, 64, 80
1, 272825, Note_on_c, 0, 62, 35
1, 272826, Control_c, 0, 64, 62
1, 272834, Note_off_c, 0, 56, 61
1, 272839, Note_off_c, 0, 52, 61
1, 272841, Control_c, 0, 64, 0
1, 272855, Note_off_c, 0, 83, 65
1, 272858, Note_off_c, 0, 62, 48
1, 272868, Note_on_c, 0, 85, 68
1, 272918, Note_off_c, 0, 85, 64
1, 272944, Note_on_c, 0, 86, 71
1, 273009, Note_off_c, 0, 86, 50
1, 273021, Note_on_c, 0, 95, 82
1, 273023, Note_on_c, 0, 89, 76
1, 273031, Note_on_c, 0, 52, 60
1, 273041, Note_on_c, 0, 56, 41
1, 273063, Note_off_c, 0, 52, 63
1, 273071, Note_off_c, 0, 56, 53
1, 273084, Note_off_c, 0, 89, 58
1, 273095, Note_on_c, 0, 92, 77
1, 273099, Note_off_c, 0, 95, 66
1, 273157, Note_off_c, 0, 92, 67
1, 273175, Note_on_c, 0, 88, 72
1, 273256, Note_off_c, 0, 88, 41
1, 273264, Note_on_c, 0, 93, 72
1, 273264, Note_on_c, 0, 97, 67
1, 273277, Note_on_c, 0, 45, 54
1, 273294, Control_c, 0, 64, 63
1, 273309, Control_c, 0, 64, 72
1, 273315, Note_off_c, 0, 45, 65
1, 273324, Control_c, 0, 64, 85
1, 273338, Control_c, 0, 64, 106
1, 273339, Note_off_c, 0, 97, 60
1, 273348, Note_off_c, 0, 93, 63
1, 273353, Control_c, 0, 64, 127
1, 273357, Note_on_c, 0, 90, 59
1, 273412, Note_off_c, 0, 90, 65
1, 273441, Note_on_c, 0, 88, 55
1, 273550, Note_off_c, 0, 88, 41
1, 273556, Note_on_c, 0, 100, 61
1, 273563, Note_on_c, 0, 97, 59
1, 273582, Note_off_c, 0, 100, 68
1, 273587, Note_on_c, 0, 52, 43
1, 273589, Note_off_c, 0, 97, 66
1, 273590, Note_on_c, 0, 61, 44
1, 273608, Note_on_c, 0, 57, 31
1, 273635, Note_off_c, 0, 52, 60
1, 273639, Note_off_c, 0, 61, 57
1, 273650, Note_off_c, 0, 57, 58
1, 273895, Note_on_c, 0, 61, 39
1, 273898, Note_on_c, 0, 52, 43
1, 273929, Note_off_c, 0, 61, 50
1, 273937, Note_off_c, 0, 52, 60
1, 273950, Poly_aftertouch_c, 0, 57, 127
1, 273978, Poly_aftertouch_c, 0, 57, 0
1, 274102, Control_c, 0, 64, 100
1, 274117, Control_c, 0, 64, 77
1, 274132, Control_c, 0, 64, 23
1, 274146, Control_c, 0, 64, 0
1, 274176, Control_c, 0, 64, 42
1, 274178, Note_on_c, 0, 73, 59
1, 274191, Control_c, 0, 64, 66
1, 274192, Note_on_c, 0, 45, 44
1, 274206, Control_c, 0, 64, 78
1, 274220, Control_c, 0, 64, 102
1, 274221, Note_off_c, 0, 45, 56
1, 274233, Note_off_c, 0, 73, 61
1, 274235, Control_c, 0, 64, 127
1, 274254, Note_on_c, 0, 72, 61
1, 274324, Control_c, 0, 64, 112
1, 274329, Note_on_c, 0, 73, 64
1, 274338, Control_c, 0, 64, 89
1, 274344, Note_off_c, 0, 72, 54
1, 274353, Control_c, 0, 64, 68
1, 274368, Control_c, 0, 64, 0
1, 274391, Note_on_c, 0, 76, 73
1, 274391, Note_off_c, 0, 73, 62
1, 274399, Note_on_c, 0, 55, 57
1, 274406, Note_on_c, 0, 64, 42
1, 274410, Note_on_c, 0, 61, 50
1, 274429, Note_off_c, 0, 55, 64
1, 274433, Note_off_c, 0, 64, 60
1, 274438, Note_off_c, 0, 61, 62
1, 274463, Note_on_c, 0, 78, 73
1, 274469, Note_off_c, 0, 76, 61
1, 274532, Note_on_c, 0, 76, 63
1, 274579, Note_off_c, 0, 78, 54
1, 274609, Note_on_c, 0, 75, 73
1, 274621, Note_off_c, 0, 76, 62
1, 274622, Note_on_c, 0, 55, 62
1, 274631, Note_on_c, 0, 61, 47
1, 274654, Note_off_c, 0, 55, 64
1, 274663, Note_off_c, 0, 61, 51
1, 274668, Note_off_c, 0, 75, 63
1, 274677, Note_on_c, 0, 74, 72
1, 274734, Note_off_c, 0, 74, 46
1, 274743, Note_on_c, 0, 73, 75
1, 274774, Note_off_c, 0, 73, 62
1, 274829, Note_on_c, 0, 78, 73
1, 274836, Control_c, 0, 64, 47
1, 274836, Note_on_c, 0, 73, 67
1, 274847, Note_on_c, 0, 45, 55
1, 274850, Control_c, 0, 64, 67
1, 274865, Control_c, 0, 64, 79
1, 274875, Note_off_c, 0, 45, 56
1, 274880, Control_c, 0, 64, 97
1, 274895, Control_c, 0, 64, 127
1, 274899, Note_off_c, 0, 73, 57
1, 274910, Note_on_c, 0, 74, 69
1, 274976, Note_off_c, 0, 74, 66
1, 274988, Note_on_c, 0, 73, 66
1, 275014, Control_c, 0, 64, 98
1, 275029, Control_c, 0, 64, 77
1, 275043, Note_off_c, 0, 73, 63
1, 275043, Control_c, 0, 64, 45
1, 275054, Note_on_c, 0, 72, 67
1, 275058, Control_c, 0, 64, 0
1, 275061, Note_on_c, 0, 63, 53
1, 275062, Note_on_c, 0, 54, 53
1, 275089, Note_off_c, 0, 63, 63
1, 275090, Note_off_c, 0, 54, 64
1, 275099, Note_off_c, 0, 72, 48
1, 275118, Note_on_c, 0, 73, 62
1, 275152, Poly_aftertouch_c, 0, 57, 0
1, 275201, Note_off_c, 0, 73, 64
1, 275211, Note_on_c, 0, 72, 57
1, 275266, Note_off_c, 0, 72, 65
1, 275291, Note_on_c, 0, 71, 59
1, 275313, Note_on_c, 0, 54, 53
1, 275329, Note_on_c, 0, 63, 5
1, 275355, Note_off_c, 0, 54, 65
1, 275380, Note_off_c, 0, 63, 37
1, 275569, Note_on_c, 0, 45, 55
1, 275570, Control_c, 0, 64, 61
1, 275584, Control_c, 0, 64, 71
1, 275599, Control_c, 0, 64, 81
1, 275603, Note_off_c, 0, 45, 64
1, 275614, Control_c, 0, 64, 97
1, 275629, Control_c, 0, 64, 127
1, 275636, Note_on_c, 0, 77, 60
1, 275644, Note_off_c, 0, 78, 37
1, 275646, Note_off_c, 0, 71, 24
1, 275729, Note_off_c, 0, 77, 49
1, 275742, Note_on_c, 0, 78, 65
1, 275768, Note_off_c, 0, 78, 68
1, 275837, Control_c, 0, 64, 106
1, 275852, Control_c, 0, 64, 85
1, 275864, Note_on_c, 0, 83, 60
1, 275866, Control_c, 0, 64, 68
1, 275881, Note_on_c, 0, 54, 37
1, 275881, Control_c, 0, 64, 0
1, 275882, Note_on_c, 0, 71, 48
1, 275888, Note_on_c, 0, 62, 34
1, 275909, Note_off_c, 0, 83, 57
1, 275910, Control_c, 0, 64, 19
1, 275925, Control_c, 0, 64, 63
1, 275937, Poly_aftertouch_c, 0, 57, 127
1, 275940, Control_c, 0, 64, 72
1, 275943, Note_on_c, 0, 57, 3
1, 275943, Note_off_c, 0, 71, 0
1, 275955, Control_c, 0, 64, 82
1, 275960, Note_on_c, 0, 82, 60
1, 275970, Control_c, 0, 64, 96
1, 275979, Note_on_c, 0, 71, 19
1, 275981, Note_off_c, 0, 54, 39
1, 275984, Control_c, 0, 64, 112
1, 275989, Note_off_c, 0, 82, 67
1, 275996, Note_off_c, 0, 57, 44
1, 275999, Control_c, 0, 64, 127
1, 276028, Note_off_c, 0, 62, 34
1, 276041, Note_on_c, 0, 81, 64
1, 276109, Note_off_c, 0, 71, 48
1, 276115, Note_on_c, 0, 80, 67
1, 276118, Note_off_c, 0, 81, 52
1, 276129, Note_on_c, 0, 54, 49
1, 276147, Note_on_c, 0, 62, 18
1, 276167, Note_off_c, 0, 54, 61
1, 276173, Poly_aftertouch_c, 0, 57, 127
1, 276190, Note_off_c, 0, 62, 43
1, 276198, Note_on_c, 0, 79, 63
1, 276218, Poly_aftertouch_c, 0, 57, 0
1, 276219, Note_off_c, 0, 80, 38
1, 276264, Note_off_c, 0, 79, 62
1, 276266, Note_on_c, 0, 78, 75
1, 276295, Note_off_c, 0, 78, 70
1, 276319, Control_c, 0, 64, 110
1, 276333, Control_c, 0, 64, 84
1, 276348, Control_c, 0, 64, 63
1, 276363, Control_c, 0, 64, 0
1, 276365, Note_on_c, 0, 45, 56
1, 276373, Note_on_c, 0, 71, 67
1, 276383, Note_on_c, 0, 76, 54
1, 276406, Note_off_c, 0, 45, 62
1, 276423, Note_off_c, 0, 71, 57
1, 276450, Note_on_c, 0, 73, 63
1, 276506, Note_off_c, 0, 73, 63
1, 276532, Note_on_c, 0, 71, 56
1, 276568, Note_off_c, 0, 71, 62
1, 276588, Note_on_c, 0, 70, 57
1, 276612, Note_on_c, 0, 61, 45
1, 276612, Note_on_c, 0, 52, 54
1, 276640, Note_off_c, 0, 61, 57
1, 276646, Note_off_c, 0, 52, 64
1, 276647, Note_off_c, 0, 70, 64
1, 276677, Note_on_c, 0, 71, 59
1, 276729, Note_off_c, 0, 71, 65
1, 276749, Note_on_c, 0, 70, 58
1, 276806, Note_off_c, 0, 70, 63
1, 276843, Note_on_c, 0, 69, 54
1, 276852, Control_c, 0, 64, 32
1, 276857, Note_on_c, 0, 52, 49
1, 276867, Control_c, 0, 64, 64
1, 276881, Control_c, 0, 64, 75
1, 276892, Note_off_c, 0, 52, 63
1, 276896, Control_c, 0, 64, 89
1, 276912, Control_c, 0, 64, 127
1, 276925, Note_off_c, 0, 69, 63
1, 276971, Note_off_c, 0, 76, 62
1, 277098, Control_c, 0, 64, 91
1, 277112, Control_c, 0, 64, 70
1, 277127, Control_c, 0, 64, 51
1, 277137, Note_on_c, 0, 42, 55
1, 277142, Control_c, 0, 64, 51
1, 277156, Control_c, 0, 64, 64
1, 277171, Control_c, 0, 64, 74
1, 277186, Control_c, 0, 64, 89
1, 277201, Control_c, 0, 64, 127
1, 277221, Note_off_c, 0, 42, 60
1, 277263, Note_on_c, 0, 93, 76
1, 277283, Note_on_c, 0, 84, 53
1, 277316, Note_off_c, 0, 84, 66
1, 277335, Note_off_c, 0, 93, 63
1, 277424, Note_on_c, 0, 94, 78
1, 277441, Note_on_c, 0, 85, 69
1, 277451, Note_on_c, 0, 51, 50
1, 277454, Note_on_c, 0, 60, 46
1, 277466, Note_on_c, 0, 57, 43
1, 277495, Note_off_c, 0, 85, 61
1, 277498, Note_off_c, 0, 94, 64
1, 277507, Note_off_c, 0, 60, 58
1, 277517, Note_off_c, 0, 51, 56
1, 277524, Note_off_c, 0, 57, 52
1, 277550, Note_on_c, 0, 95, 87
1, 277560, Note_on_c, 0, 86, 74
1, 277571, Control_c, 0, 67, 126
1, 277585, Note_off_c, 0, 86, 68
1, 277586, Control_c, 0, 67, 121
1, 277601, Control_c, 0, 67, 114
1, 277612, Note_off_c, 0, 95, 65
1, 277616, Control_c, 0, 67, 105
1, 277630, Control_c, 0, 67, 96
1, 277645, Control_c, 0, 67, 88
1, 277660, Control_c, 0, 67, 80
1, 277674, Control_c, 0, 67, 71
1, 277676, Note_on_c, 0, 96, 83
1, 277682, Note_on_c, 0, 51, 53
1, 277685, Note_on_c, 0, 87, 80
1, 277689, Control_c, 0, 67, 63
1, 277706, Control_c, 0, 67, 58
1, 277721, Control_c, 0, 67, 51
1, 277735, Note_off_c, 0, 51, 61
1, 277735, Control_c, 0, 67, 42
1, 277742, Note_off_c, 0, 87, 59
1, 277746, Note_off_c, 0, 96, 64
1, 277750, Control_c, 0, 67, 34
1, 277765, Control_c, 0, 67, 27
1, 277787, Control_c, 0, 67, 20
1, 277802, Control_c, 0, 67, 13
1, 277810, Note_on_c, 0, 97, 73
1, 277816, Control_c, 0, 67, 8
1, 277828, Note_on_c, 0, 88, 73
1, 277831, Control_c, 0, 67, 0
1, 277864, Note_off_c, 0, 88, 58
1, 277911, Note_off_c, 0, 97, 62
1, 277965, Control_c, 0, 64, 101
1, 277979, Control_c, 0, 64, 78
1, 277994, Control_c, 0, 64, 60
1, 278000, Note_on_c, 0, 98, 71
1, 278007, Note_on_c, 0, 89, 62
1, 278009, Control_c, 0, 64, 0
1, 278024, Note_on_c, 0, 41, 48
1, 278039, Control_c, 0, 64, 52
1, 278053, Control_c, 0, 64, 66
1, 278068, Control_c, 0, 64, 76
1, 278076, Note_off_c, 0, 89, 60
1, 278082, Note_off_c, 0, 98, 63
1, 278083, Control_c, 0, 64, 91
1, 278098, Control_c, 0, 64, 127
1, 278114, Note_off_c, 0, 41, 53
1, 278246, Note_on_c, 0, 94, 60
1, 278254, Note_on_c, 0, 85, 59
1, 278326, Note_off_c, 0, 85, 60
1, 278335, Note_off_c, 0, 94, 62
1, 278404, Note_on_c, 0, 86, 67
1, 278404, Note_on_c, 0, 95, 70
1, 278414, Note_on_c, 0, 50, 42
1, 278424, Note_on_c, 0, 59, 46
1, 278428, Note_on_c, 0, 57, 39
1, 278445, Note_off_c, 0, 86, 63
1, 278460, Note_off_c, 0, 95, 64
1, 278487, Note_off_c, 0, 57, 54
1, 278491, Note_off_c, 0, 50, 57
1, 278498, Note_off_c, 0, 59, 49
1, 278547, Note_on_c, 0, 96, 74
1, 278548, Note_on_c, 0, 87, 71
1, 278598, Note_off_c, 0, 87, 52
1, 278604, Note_off_c, 0, 96, 61
1, 278660, Note_on_c, 0, 97, 76
1, 278666, Note_on_c, 0, 50, 51
1, 278670, Note_on_c, 0, 88, 67
1, 278672, Note_on_c, 0, 59, 44
1, 278683, Note_on_c, 0, 57, 44
1, 278697, Note_off_c, 0, 88, 65
1, 278709, Note_off_c, 0, 59, 56
1, 278709, Note_off_c, 0, 97, 63
1, 278711, Note_off_c, 0, 50, 63
1, 278717, Note_off_c, 0, 57, 63
1, 278763, Note_on_c, 0, 98, 77
1, 278767, Note_on_c, 0, 89, 76
1, 278795, Note_off_c, 0, 89, 65
1, 278803, Note_off_c, 0, 98, 65
1, 278842, Note_on_c, 0, 59, 45
1, 278846, Note_on_c, 0, 50, 49
1, 278860, Note_on_c, 0, 57, 43
1, 278863, Note_on_c, 0, 99, 75
1, 278872, Note_on_c, 0, 90, 75
1, 278889, Note_off_c, 0, 99, 65
1, 278917, Note_off_c, 0, 90, 64
1, 278958, Note_on_c, 0, 91, 77
1, 278958, Note_on_c, 0, 100, 75
1, 278990, Note_off_c, 0, 91, 66
1, 278991, Note_off_c, 0, 100, 62
1, 279043, Note_on_c, 0, 101, 83
1, 279048, Note_on_c, 0, 92, 84
1, 279076, Note_off_c, 0, 101, 64
1, 279099, Note_off_c, 0, 92, 66
1, 279133, Note_on_c, 0, 101, 87
1, 279145, Note_on_c, 0, 93, 84
1, 279179, Note_off_c, 0, 93, 63
1, 279179, Note_off_c, 0, 101, 66
1, 279230, Note_on_c, 0, 101, 78
1, 279234, Note_on_c, 0, 94, 88
1, 279283, Note_off_c, 0, 101, 65
1, 279298, Note_off_c, 0, 94, 65
1, 279336, Note_on_c, 0, 101, 80
1, 279341, Note_on_c, 0, 95, 88
1, 279384, Note_off_c, 0, 95, 67
1, 279387, Note_off_c, 0, 101, 65
1, 279447, Control_c, 0, 64, 111
1, 279447, Note_on_c, 0, 96, 82
1, 279449, Note_on_c, 0, 101, 74
1, 279462, Control_c, 0, 64, 118
1, 279477, Control_c, 0, 64, 127
1, 279488, Note_off_c, 0, 96, 65
1, 279492, Note_off_c, 0, 101, 65
1, 279562, Note_on_c, 0, 97, 82
1, 279566, Note_on_c, 0, 101, 73
1, 279606, Note_off_c, 0, 101, 63
1, 279611, Note_off_c, 0, 97, 63
1, 279659, Note_off_c, 0, 59, 55
1, 279682, Note_off_c, 0, 57, 49
1, 279700, Note_off_c, 0, 50, 58
1, 279706, Note_on_c, 0, 101, 71
1, 279721, Note_on_c, 0, 98, 72
1, 279751, Note_off_c, 0, 101, 63
1, 279787, Note_off_c, 0, 98, 59
1, 279838, Note_on_c, 0, 97, 66
1, 279930, Note_on_c, 0, 98, 54
1, 279945, Note_off_c, 0, 97, 38
1, 280007, Note_on_c, 0, 100, 58
1, 280028, Note_off_c, 0, 98, 57
1, 280077, Note_off_c, 0, 100, 62
1, 280089, Note_on_c, 0, 101, 59
1, 280144, Note_off_c, 0, 101, 63
1, 280150, Note_on_c, 0, 97, 65
1, 280216, Note_on_c, 0, 98, 56
1, 280228, Note_off_c, 0, 97, 40
1, 280261, Note_on_c, 0, 100, 62
1, 280278, Note_off_c, 0, 98, 59
1, 280299, Control_c, 0, 64, 106
1, 280314, Control_c, 0, 64, 87
1, 280318, Note_on_c, 0, 101, 72
1, 280328, Note_off_c, 0, 100, 58
1, 280329, Control_c, 0, 64, 86
1, 280344, Control_c, 0, 64, 99
1, 280359, Control_c, 0, 64, 127
1, 280368, Note_on_c, 0, 97, 62
1, 280388, Note_off_c, 0, 101, 63
1, 280407, Note_on_c, 0, 98, 65
1, 280439, Note_off_c, 0, 97, 61
1, 280456, Note_on_c, 0, 100, 60
1, 280496, Note_off_c, 0, 98, 65
1, 280506, Note_on_c, 0, 101, 76
1, 280526, Note_off_c, 0, 100, 60
1, 280556, Note_on_c, 0, 97, 68
1, 280589, Note_off_c, 0, 101, 64
1, 280602, Note_on_c, 0, 98, 76
1, 280625, Control_c, 0, 64, 88
1, 280628, Note_off_c, 0, 97, 64
1, 280639, Note_on_c, 0, 100, 69
1, 280640, Control_c, 0, 64, 76
1, 280654, Control_c, 0, 64, 75
1, 280669, Control_c, 0, 64, 80
1, 280684, Control_c, 0, 64, 90
1, 280689, Note_off_c, 0, 98, 65
1, 280693, Note_on_c, 0, 101, 79
1, 280699, Control_c, 0, 64, 122
1, 280714, Control_c, 0, 64, 127
1, 280725, Note_off_c, 0, 100, 62
1, 280748, Note_on_c, 0, 97, 69
1, 280791, Note_off_c, 0, 101, 65
1, 280795, Control_c, 0, 64, 104
1, 280800, Note_on_c, 0, 98, 79
1, 280810, Control_c, 0, 64, 101
1, 280825, Control_c, 0, 64, 106
1, 280836, Note_off_c, 0, 97, 50
1, 280840, Control_c, 0, 64, 127
1, 280848, Note_on_c, 0, 100, 72
1, 280890, Note_off_c, 0, 98, 64
1, 280896, Note_on_c, 0, 101, 80
1, 280926, Note_off_c, 0, 100, 64
1, 280944, Control_c, 0, 64, 92
1, 280950, Note_on_c, 0, 97, 75
1, 280959, Control_c, 0, 64, 81
1, 280974, Control_c, 0, 64, 82
1, 280989, Control_c, 0, 64, 91
1, 280996, Note_on_c, 0, 98, 83
1, 281003, Note_off_c, 0, 101, 62
1, 281003, Control_c, 0, 64, 113
1, 281018, Control_c, 0, 64, 127
1, 281023, Note_off_c, 0, 97, 57
1, 281060, Note_on_c, 0, 100, 74
1, 281094, Note_off_c, 0, 98, 63
1, 281112, Note_on_c, 0, 101, 82
1, 281137, Note_off_c, 0, 100, 64
1, 281137, Control_c, 0, 64, 101
1, 281152, Control_c, 0, 64, 78
1, 281159, Note_on_c, 0, 97, 74
1, 281167, Control_c, 0, 64, 64
1, 281182, Control_c, 0, 64, 57
1, 281196, Control_c, 0, 64, 67
1, 281211, Control_c, 0, 64, 80
1, 281214, Note_on_c, 0, 98, 74
1, 281226, Control_c, 0, 64, 105
1, 281227, Note_off_c, 0, 101, 62
1, 281241, Control_c, 0, 64, 127
1, 281285, Note_on_c, 0, 100, 69
1, 281313, Note_off_c, 0, 97, 42
1, 281318, Note_off_c, 0, 98, 65
1, 281329, Control_c, 0, 67, 8
1, 281343, Note_on_c, 0, 101, 71
1, 281344, Control_c, 0, 67, 8
1, 281359, Control_c, 0, 67, 9
1, 281374, Control_c, 0, 67, 12
1, 281378, Note_off_c, 0, 100, 62
1, 281389, Control_c, 0, 67, 14
1, 281402, Note_on_c, 0, 97, 66
1, 281403, Control_c, 0, 67, 18
1, 281418, Control_c, 0, 67, 21
1, 281433, Control_c, 0, 67, 26
1, 281448, Control_c, 0, 67, 32
1, 281463, Control_c, 0, 67, 37
1, 281477, Control_c, 0, 67, 42
1, 281481, Note_on_c, 0, 98, 68
1, 281492, Control_c, 0, 67, 46
1, 281507, Control_c, 0, 67, 50
1, 281516, Note_off_c, 0, 101, 38
1, 281529, Control_c, 0, 67, 54
1, 281544, Control_c, 0, 67, 59
1, 281559, Control_c, 0, 67, 63
1, 281574, Note_off_c, 0, 97, 34
1, 281574, Control_c, 0, 67, 68
1, 281575, Note_on_c, 0, 100, 62
1, 281589, Control_c, 0, 67, 72
1, 281603, Control_c, 0, 67, 76
1, 281618, Control_c, 0, 67, 80
1, 281628, Note_off_c, 0, 98, 58
1, 281633, Control_c, 0, 67, 84
1, 281648, Control_c, 0, 67, 88
1, 281663, Control_c, 0, 67, 92
1, 281677, Control_c, 0, 67, 96
1, 281692, Control_c, 0, 67, 99
1, 281708, Control_c, 0, 67, 102
1, 281723, Control_c, 0, 67, 105
1, 281730, Note_on_c, 0, 101, 55
1, 281730, Note_on_c, 0, 40, 44
1, 281738, Control_c, 0, 67, 108
1, 281752, Note_off_c, 0, 100, 60
1, 281752, Control_c, 0, 67, 111
1, 281767, Control_c, 0, 67, 115
1, 281782, Control_c, 0, 64, 117
1, 281782, Control_c, 0, 67, 119
1, 281797, Control_c, 0, 64, 90
1, 281797, Control_c, 0, 67, 123
1, 281812, Control_c, 0, 64, 72
1, 281812, Control_c, 0, 67, 127
1, 281826, Control_c, 0, 64, 24
1, 281841, Control_c, 0, 64, 0
1, 281871, Control_c, 0, 64, 51
1, 281886, Control_c, 0, 64, 65
1, 281900, Control_c, 0, 64, 73
1, 281915, Control_c, 0, 64, 86
1, 281930, Control_c, 0, 64, 107
1, 281944, Note_on_c, 0, 97, 51
1, 281945, Control_c, 0, 64, 127
1, 281996, Note_off_c, 0, 40, 41
1, 282062, Note_on_c, 0, 98, 62
1, 282076, Note_off_c, 0, 101, 57
1, 282147, Note_off_c, 0, 97, 33
1, 282177, Note_on_c, 0, 99, 68
1, 282199, Note_off_c, 0, 98, 57
1, 282318, Note_off_c, 0, 99, 63
1, 282320, Note_on_c, 0, 100, 63
1, 282356, Note_on_c, 0, 64, 38
1, 282359, Note_on_c, 0, 56, 41
1, 282366, Note_on_c, 0, 62, 34
1, 282403, Note_off_c, 0, 100, 59
1, 282423, Note_on_c, 0, 96, 55
1, 282436, Note_off_c, 0, 56, 55
1, 282442, Note_off_c, 0, 64, 57
1, 282476, Note_off_c, 0, 62, 33
1, 282504, Note_on_c, 0, 97, 61
1, 282508, Note_off_c, 0, 96, 55
1, 282591, Note_on_c, 0, 98, 56
1, 282602, Note_off_c, 0, 97, 62
1, 282650, Note_on_c, 0, 99, 64
1, 282658, Note_off_c, 0, 98, 63
1, 282685, Note_on_c, 0, 56, 35
1, 282694, Note_on_c, 0, 62, 27
1, 282694, Note_on_c, 0, 64, 35
1, 282729, Note_off_c, 0, 99, 64
1, 282734, Note_on_c, 0, 95, 62
1, 282734, Note_off_c, 0, 56, 57
1, 282740, Note_off_c, 0, 62, 54
1, 282741, Note_off_c, 0, 64, 60
1, 282800, Note_off_c, 0, 95, 51
1, 282808, Note_on_c, 0, 96, 59
1, 282869, Note_on_c, 0, 97, 55
1, 282886, Note_off_c, 0, 96, 58
1, 282923, Note_off_c, 0, 97, 64
1, 282929, Note_on_c, 0, 98, 70
1, 282952, Note_on_c, 0, 56, 43
1, 282961, Note_on_c, 0, 64, 35
1, 282976, Note_on_c, 0, 62, 35
1, 282980, Note_off_c, 0, 98, 65
1, 282996, Note_on_c, 0, 94, 57
1, 283062, Note_on_c, 0, 95, 61
1, 283119, Note_on_c, 0, 96, 66
1, 283119, Note_off_c, 0, 94, 37
1, 283127, Note_off_c, 0, 95, 56
1, 283156, Note_on_c, 0, 97, 72
1, 283169, Note_off_c, 0, 96, 65
1, 283228, Note_off_c, 0, 97, 65
1, 283231, Note_on_c, 0, 93, 57
1, 283263, Note_off_c, 0, 93, 62
1, 283270, Note_on_c, 0, 94, 70
1, 283362, Note_on_c, 0, 95, 43
1, 283366, Note_off_c, 0, 94, 63
1, 283372, Note_on_c, 0, 96, 73
1, 283388, Note_off_c, 0, 95, 58
1, 283418, Note_on_c, 0, 92, 72
1, 283421, Note_off_c, 0, 96, 65
1, 283440, Note_off_c, 0, 64, 40
1, 283470, Note_on_c, 0, 93, 75
1, 283475, Note_off_c, 0, 56, 50
1, 283504, Note_off_c, 0, 92, 37
1, 283507, Note_off_c, 0, 62, 37
1, 283520, Note_on_c, 0, 94, 66
1, 283532, Note_off_c, 0, 93, 56
1, 283557, Note_on_c, 0, 95, 75
1, 283570, Note_off_c, 0, 94, 63
1, 283611, Note_off_c, 0, 95, 67
1, 283617, Note_on_c, 0, 91, 70
1, 283648, Note_off_c, 0, 91, 63
1, 283660, Note_on_c, 0, 92, 73
1, 283714, Note_on_c, 0, 93, 72
1, 283725, Note_off_c, 0, 92, 58
1, 283751, Note_on_c, 0, 94, 79
1, 283769, Note_off_c, 0, 93, 64
1, 283808, Note_on_c, 0, 90, 71
1, 283820, Note_off_c, 0, 94, 65
1, 283862, Note_on_c, 0, 91, 79
1, 283903, Note_off_c, 0, 90, 35
1, 283917, Note_on_c, 0, 92, 78
1, 283936, Note_off_c, 0, 91, 59
1, 283952, Note_on_c, 0, 93, 74
1, 283981, Note_off_c, 0, 92, 61
1, 284004, Note_on_c, 0, 89, 76
1, 284015, Note_off_c, 0, 93, 63
1, 284050, Note_on_c, 0, 90, 75
1, 284056, Note_off_c, 0, 89, 60
1, 284107, Note_on_c, 0, 91, 77
1, 284122, Note_off_c, 0, 90, 57
1, 284147, Note_on_c, 0, 92, 82
1, 284160, Note_off_c, 0, 91, 65
1, 284196, Note_on_c, 0, 87, 77
1, 284211, Note_off_c, 0, 92, 66
1, 284240, Note_on_c, 0, 88, 79
1, 284276, Note_off_c, 0, 87, 57
1, 284299, Note_on_c, 0, 89, 77
1, 284323, Note_off_c, 0, 88, 64
1, 284338, Note_on_c, 0, 90, 80
1, 284357, Note_off_c, 0, 89, 63
1, 284401, Note_on_c, 0, 86, 71
1, 284403, Note_off_c, 0, 90, 65
1, 284444, Note_on_c, 0, 87, 75
1, 284447, Note_off_c, 0, 86, 62
1, 284497, Note_on_c, 0, 88, 73
1, 284520, Note_off_c, 0, 87, 64
1, 284539, Note_on_c, 0, 89, 81
1, 284540, Note_off_c, 0, 88, 64
1, 284585, Note_off_c, 0, 89, 62
1, 284586, Note_on_c, 0, 85, 71
1, 284626, Note_off_c, 0, 85, 60
1, 284632, Note_on_c, 0, 86, 78
1, 284684, Note_on_c, 0, 87, 74
1, 284688, Note_off_c, 0, 86, 58
1, 284710, Note_on_c, 0, 88, 79
1, 284737, Note_off_c, 0, 87, 64
1, 284768, Note_off_c, 0, 88, 64
1, 284775, Note_on_c, 0, 84, 71
1, 284813, Note_on_c, 0, 85, 79
1, 284815, Note_off_c, 0, 84, 62
1, 284861, Note_on_c, 0, 86, 77
1, 284875, Note_off_c, 0, 85, 63
1, 284905, Note_on_c, 0, 87, 77
1, 284923, Note_off_c, 0, 86, 65
1, 284926, Control_c, 0, 64, 122
1, 284941, Control_c, 0, 64, 116
1, 284956, Control_c, 0, 64, 112
1, 284958, Note_on_c, 0, 83, 74
1, 284970, Control_c, 0, 64, 107
1, 284975, Note_off_c, 0, 87, 66
1, 284985, Control_c, 0, 64, 102
1, 285000, Control_c, 0, 64, 96
1, 285005, Note_on_c, 0, 84, 77
1, 285015, Control_c, 0, 64, 89
1, 285018, Note_off_c, 0, 83, 61
1, 285030, Control_c, 0, 64, 81
1, 285044, Control_c, 0, 64, 72
1, 285049, Note_on_c, 0, 85, 76
1, 285059, Control_c, 0, 64, 59
1, 285074, Control_c, 0, 64, 0
1, 285081, Note_off_c, 0, 84, 64
1, 285088, Note_on_c, 0, 86, 80
1, 285098, Note_off_c, 0, 85, 64
1, 285140, Note_off_c, 0, 86, 66
1, 285141, Note_on_c, 0, 82, 72
1, 285192, Note_on_c, 0, 83, 76
1, 285239, Note_on_c, 0, 84, 69
1, 285245, Note_off_c, 0, 82, 33
1, 285278, Note_off_c, 0, 83, 65
1, 285281, Note_on_c, 0, 85, 76
1, 285296, Note_off_c, 0, 84, 62
1, 285346, Note_on_c, 0, 81, 66
1, 285365, Note_off_c, 0, 85, 64
1, 285389, Note_off_c, 0, 81, 60
1, 285392, Note_on_c, 0, 82, 70
1, 285452, Note_on_c, 0, 83, 55
1, 285465, Note_off_c, 0, 82, 63
1, 285479, Note_on_c, 0, 84, 74
1, 285484, Note_off_c, 0, 83, 67
1, 285534, Note_off_c, 0, 84, 64
1, 285543, Note_on_c, 0, 80, 55
1, 285582, Note_off_c, 0, 80, 59
1, 285591, Note_on_c, 0, 81, 70
1, 285638, Note_on_c, 0, 82, 67
1, 285656, Note_off_c, 0, 81, 52
1, 285677, Note_on_c, 0, 83, 68
1, 285697, Note_off_c, 0, 82, 57
1, 285738, Note_off_c, 0, 83, 64
1, 285746, Note_on_c, 0, 79, 60
1, 285783, Note_off_c, 0, 79, 58
1, 285788, Note_on_c, 0, 80, 69
1, 285853, Note_on_c, 0, 81, 60
1, 285876, Note_off_c, 0, 80, 51
1, 285888, Note_on_c, 0, 82, 71
1, 285901, Note_off_c, 0, 81, 63
1, 285965, Note_on_c, 0, 78, 58
1, 285967, Note_off_c, 0, 82, 61
1, 286023, Note_off_c, 0, 78, 57
1, 286026, Note_on_c, 0, 79, 58
1, 286102, Note_on_c, 0, 80, 51
1, 286111, Note_off_c, 0, 79, 52
1, 286142, Note_on_c, 0, 81, 60
1, 286156, Note_off_c, 0, 80, 59
1, 286215, Note_off_c, 0, 81, 60
1, 286227, Note_on_c, 0, 77, 45
1, 286283, Note_on_c, 0, 78, 61
1, 286296, Note_off_c, 0, 77, 63
1, 286377, Note_off_c, 0, 78, 61
1, 286378, Note_on_c, 0, 79, 61
1, 286440, Note_on_c, 0, 80, 60
1, 286441, Note_off_c, 0, 79, 60
1, 286539, Note_off_c, 0, 80, 61
1, 286548, Note_on_c, 0, 75, 57
1, 286640, Note_on_c, 0, 76, 57
1, 286643, Note_off_c, 0, 75, 55
1, 286749, Note_on_c, 0, 77, 55
1, 286774, Note_off_c, 0, 76, 50
1, 286872, Note_off_c, 0, 77, 56
1, 286874, Note_on_c, 0, 78, 57
1, 286890, Control_c, 0, 67, 126
1, 286905, Control_c, 0, 67, 123
1, 286920, Control_c, 0, 67, 119
1, 286935, Control_c, 0, 67, 115
1, 286949, Control_c, 0, 67, 110
1, 286964, Control_c, 0, 67, 103
1, 286979, Control_c, 0, 67, 96
1, 286987, Note_off_c, 0, 78, 53
1, 286992, Note_on_c, 0, 74, 49
1, 286994, Control_c, 0, 67, 90
1, 287009, Control_c, 0, 67, 84
1, 287023, Control_c, 0, 67, 79
1, 287038, Control_c, 0, 67, 72
1, 287053, Control_c, 0, 67, 64
1, 287067, Control_c, 0, 67, 53
1, 287082, Control_c, 0, 67, 45
1, 287097, Control_c, 0, 67, 37
1, 287112, Control_c, 0, 67, 30
1, 287120, Note_on_c, 0, 75, 55
1, 287127, Control_c, 0, 67, 23
1, 287138, Note_off_c, 0, 74, 57
1, 287141, Control_c, 0, 67, 15
1, 287156, Control_c, 0, 67, 0
1, 287257, Note_off_c, 0, 75, 54
1, 287260, Note_on_c, 0, 76, 50
1, 287421, Note_on_c, 0, 77, 45
1, 287431, Note_off_c, 0, 76, 51
1, 287609, Note_on_c, 0, 73, 48
1, 287653, Note_off_c, 0, 77, 38
1, 287835, Note_on_c, 0, 74, 42
1, 287838, Note_off_c, 0, 73, 53
1, 288107, Note_off_c, 0, 74, 58
1, 288118, Note_on_c, 0, 75, 48
1, 288247, Control_c, 0, 64, 28
1, 288269, Control_c, 0, 64, 57
1, 288284, Control_c, 0, 64, 65
1, 288299, Control_c, 0, 64, 71
1, 288313, Control_c, 0, 64, 75
1, 288328, Control_c, 0, 64, 80
1, 288339, Note_on_c, 0, 45, 32
1, 288343, Control_c, 0, 64, 86
1, 288358, Control_c, 0, 64, 92
1, 288373, Control_c, 0, 64, 101
1, 288387, Control_c, 0, 64, 127
1, 288461, Note_off_c, 0, 45, 36
1, 288561, Note_off_c, 0, 75, 31
1, 288601, Note_on_c, 0, 61, 31
1, 288685, Note_on_c, 0, 64, 41
1, 288750, Note_on_c, 0, 69, 44
1, 288933, Note_on_c, 0, 76, 63
1, 289198, Note_off_c, 0, 64, 36
1, 289233, Note_off_c, 0, 69, 60
1, 289299, Note_off_c, 0, 76, 57
1, 289518, Note_off_c, 0, 61, 42
1, 289533, Note_on_c, 0, 78, 63
1, 289692, Note_on_c, 0, 76, 69
1, 289737, Note_off_c, 0, 78, 62
1, 289778, Note_off_c, 0, 76, 61
1, 289847, Note_on_c, 0, 76, 74
1, 289856, Control_c, 0, 64, 92
1, 289871, Control_c, 0, 64, 72
1, 289886, Control_c, 0, 64, 0
1, 289931, Control_c, 0, 64, 44
1, 289946, Control_c, 0, 64, 64
1, 289960, Control_c, 0, 64, 73
1, 289968, Note_on_c, 0, 45, 40
1, 289975, Control_c, 0, 64, 85
1, 289990, Control_c, 0, 64, 103
1, 289996, Note_on_c, 0, 81, 73
1, 290005, Control_c, 0, 64, 127
1, 290042, Note_off_c, 0, 45, 58
1, 290084, Note_off_c, 0, 81, 63
1, 290098, Note_off_c, 0, 76, 60
1, 290101, Note_on_c, 0, 59, 38
1, 290144, Note_off_c, 0, 59, 58
1, 290239, Note_on_c, 0, 80, 70
1, 290271, Note_on_c, 0, 68, 49
1, 290309, Note_on_c, 0, 64, 46
1, 290353, Note_off_c, 0, 64, 64
1, 290731, Note_on_c, 0, 76, 60
1, 290739, Control_c, 0, 67, 8
1, 290754, Control_c, 0, 67, 10
1, 290768, Control_c, 0, 67, 11
1, 290777, Note_off_c, 0, 80, 59
1, 290783, Control_c, 0, 67, 13
1, 290798, Control_c, 0, 67, 14
1, 290813, Control_c, 0, 67, 16
1, 290820, Note_off_c, 0, 76, 62
1, 290828, Control_c, 0, 67, 18
1, 290842, Control_c, 0, 67, 20
1, 290857, Control_c, 0, 67, 23
1, 290872, Control_c, 0, 67, 25
1, 290887, Control_c, 0, 67, 27
1, 290902, Control_c, 0, 67, 29
1, 290916, Control_c, 0, 67, 31
1, 290931, Control_c, 0, 67, 34
1, 290946, Control_c, 0, 67, 37
1, 290961, Control_c, 0, 67, 40
1, 290976, Control_c, 0, 67, 43
1, 290990, Control_c, 0, 67, 46
1, 291005, Control_c, 0, 67, 49
1, 291020, Control_c, 0, 67, 52
1, 291034, Control_c, 0, 67, 54
1, 291049, Control_c, 0, 67, 57
1, 291064, Control_c, 0, 67, 60
1, 291079, Control_c, 0, 67, 63
1, 291094, Control_c, 0, 67, 65
1, 291108, Control_c, 0, 67, 66
1, 291123, Control_c, 0, 67, 67
1, 291138, Control_c, 0, 67, 68
1, 291178, Note_on_c, 0, 76, 55
1, 291261, Note_off_c, 0, 68, 59
1, 291278, Note_off_c, 0, 76, 56
1, 291353, Control_c, 0, 67, 67
1, 291368, Control_c, 0, 67, 67
1, 291412, Control_c, 0, 67, 66
1, 291442, Control_c, 0, 67, 66
1, 291487, Control_c, 0, 67, 65
1, 291502, Note_on_c, 0, 45, 39
1, 291502, Control_c, 0, 67, 64
1, 291517, Control_c, 0, 67, 64
1, 291565, Note_on_c, 0, 64, 44
1, 291576, Control_c, 0, 67, 63
1, 291591, Control_c, 0, 67, 62
1, 291605, Control_c, 0, 67, 62
1, 291620, Control_c, 0, 67, 61
1, 291634, Note_on_c, 0, 69, 52
1, 291635, Control_c, 0, 67, 60
1, 291650, Control_c, 0, 67, 59
1, 291664, Control_c, 0, 67, 58
1, 291679, Control_c, 0, 67, 57
1, 291694, Control_c, 0, 67, 57
1, 291709, Control_c, 0, 67, 56
1, 291724, Control_c, 0, 64, 100
1, 291724, Control_c, 0, 67, 54
1, 291738, Note_on_c, 0, 74, 69
1, 291738, Control_c, 0, 64, 81
1, 291738, Control_c, 0, 67, 52
1, 291753, Control_c, 0, 64, 65
1, 291753, Control_c, 0, 67, 49
1, 291768, Control_c, 0, 64, 0
1, 291768, Control_c, 0, 67, 48
1, 291783, Control_c, 0, 67, 45
1, 291791, Note_on_c, 0, 54, 38
1, 291798, Control_c, 0, 67, 42
1, 291812, Control_c, 0, 67, 38
1, 291827, Control_c, 0, 64, 59
1, 291827, Control_c, 0, 67, 33
1, 291842, Control_c, 0, 64, 69
1, 291842, Control_c, 0, 67, 25
1, 291857, Control_c, 0, 64, 82
1, 291857, Control_c, 0, 67, 15
1, 291871, Control_c, 0, 64, 104
1, 291871, Control_c, 0, 67, 0
1, 291877, Note_off_c, 0, 64, 41
1, 291883, Note_off_c, 0, 69, 52
1, 291886, Control_c, 0, 64, 127
1, 291957, Note_off_c, 0, 74, 62
1, 292133, Note_on_c, 0, 76, 61
1, 292183, Note_on_c, 0, 74, 75
1, 292221, Note_off_c, 0, 76, 56
1, 292353, Note_off_c, 0, 45, 37
1, 292357, Note_on_c, 0, 73, 76
1, 292367, Note_off_c, 0, 74, 61
1, 292402, Note_off_c, 0, 54, 47
1, 292515, Note_on_c, 0, 74, 78
1, 292537, Note_off_c, 0, 73, 61
1, 292655, Note_on_c, 0, 78, 75
1, 292663, Note_off_c, 0, 74, 62
1, 292718, Note_off_c, 0, 78, 57
1, 292728, Note_on_c, 0, 45, 49
1, 292896, Control_c, 0, 64, 108
1, 292910, Control_c, 0, 64, 89
1, 292915, Note_on_c, 0, 78, 67
1, 292925, Control_c, 0, 64, 73
1, 292940, Control_c, 0, 64, 41
1, 292942, Note_on_c, 0, 69, 48
1, 292942, Note_on_c, 0, 64, 41
1, 292955, Control_c, 0, 64, 0
1, 292982, Note_on_c, 0, 61, 38
1, 293281, Control_c, 0, 64, 43
1, 293296, Control_c, 0, 64, 63
1, 293310, Control_c, 0, 64, 69
1, 293325, Control_c, 0, 64, 77
1, 293340, Control_c, 0, 64, 87
1, 293355, Control_c, 0, 64, 101
1, 293370, Control_c, 0, 64, 127
1, 293449, Note_on_c, 0, 73, 57
1, 293506, Note_off_c, 0, 78, 60
1, 293574, Note_off_c, 0, 61, 41
1, 293594, Note_off_c, 0, 73, 63
1, 293621, Note_off_c, 0, 45, 43
1, 293642, Control_c, 0, 67, 8
1, 293657, Control_c, 0, 67, 9
1, 293672, Control_c, 0, 67, 11
1, 293688, Control_c, 0, 67, 12
1, 293703, Control_c, 0, 67, 14
1, 293718, Control_c, 0, 67, 16
1, 293732, Control_c, 0, 67, 17
1, 293747, Control_c, 0, 67, 20
1, 293762, Control_c, 0, 67, 22
1, 293777, Control_c, 0, 67, 25
1, 293792, Control_c, 0, 67, 28
1, 293806, Control_c, 0, 67, 31
1, 293821, Control_c, 0, 67, 34
1, 293836, Control_c, 0, 67, 38
1, 293851, Control_c, 0, 67, 41
1, 293866, Control_c, 0, 67, 45
1, 293875, Note_on_c, 0, 73, 57
1, 293881, Control_c, 0, 67, 48
1, 293895, Control_c, 0, 67, 50
1, 293910, Control_c, 0, 67, 52
1, 293925, Control_c, 0, 67, 54
1, 293940, Control_c, 0, 67, 57
1, 293955, Control_c, 0, 67, 60
1, 293970, Control_c, 0, 67, 63
1, 293981, Note_off_c, 0, 73, 57
1, 293984, Note_off_c, 0, 64, 43
1, 293985, Control_c, 0, 67, 65
1, 293999, Control_c, 0, 67, 66
1, 294014, Control_c, 0, 67, 68
1, 294018, Note_off_c, 0, 69, 31
1, 294029, Control_c, 0, 67, 69
1, 294044, Control_c, 0, 67, 70
1, 294058, Control_c, 0, 67, 71
1, 294073, Control_c, 0, 67, 72
1, 294088, Control_c, 0, 67, 73
1, 294103, Control_c, 0, 67, 75
1, 294118, Control_c, 0, 67, 76
1, 294132, Control_c, 0, 67, 78
1, 294147, Control_c, 0, 67, 79
1, 294162, Control_c, 0, 67, 80
1, 294177, Control_c, 0, 67, 81
1, 294192, Control_c, 0, 67, 82
1, 294206, Control_c, 0, 67, 82
1, 294208, Note_on_c, 0, 42, 34
1, 294221, Control_c, 0, 67, 83
1, 294236, Control_c, 0, 67, 84
1, 294258, Control_c, 0, 67, 84
1, 294273, Control_c, 0, 67, 85
1, 294303, Control_c, 0, 67, 85
1, 294318, Control_c, 0, 67, 86
1, 294332, Control_c, 0, 67, 86
1, 294347, Control_c, 0, 67, 87
1, 294362, Control_c, 0, 64, 97
1, 294376, Control_c, 0, 64, 75
1, 294376, Control_c, 0, 67, 87
1, 294377, Note_on_c, 0, 74, 60
1, 294391, Control_c, 0, 64, 49
1, 294391, Control_c, 0, 67, 88
1, 294395, Note_on_c, 0, 64, 42
1, 294405, Note_on_c, 0, 69, 43
1, 294406, Control_c, 0, 64, 0
1, 294432, Note_on_c, 0, 57, 41
1, 294465, Control_c, 0, 64, 54
1, 294481, Control_c, 0, 64, 68
1, 294489, Note_off_c, 0, 64, 60
1, 294496, Control_c, 0, 64, 81
1, 294511, Control_c, 0, 64, 104
1, 294512, Note_off_c, 0, 69, 61
1, 294526, Control_c, 0, 64, 127
1, 294548, Note_off_c, 0, 74, 63
1, 294733, Note_off_c, 0, 57, 38
1, 294775, Note_on_c, 0, 76, 67
1, 294896, Control_c, 0, 67, 88
1, 294930, Note_off_c, 0, 42, 41
1, 294939, Note_on_c, 0, 74, 72
1, 294978, Note_off_c, 0, 76, 59
1, 295017, Note_off_c, 0, 74, 61
1, 295091, Note_on_c, 0, 74, 73
1, 295112, Control_c, 0, 67, 89
1, 295156, Control_c, 0, 67, 89
1, 295171, Control_c, 0, 64, 111
1, 295186, Control_c, 0, 64, 80
1, 295201, Control_c, 0, 64, 51
1, 295215, Control_c, 0, 64, 0
1, 295232, Note_on_c, 0, 78, 72
1, 295260, Control_c, 0, 64, 50
1, 295260, Control_c, 0, 67, 90
1, 295267, Note_off_c, 0, 74, 61
1, 295276, Control_c, 0, 64, 68
1, 295276, Control_c, 0, 67, 91
1, 295288, Note_on_c, 0, 40, 42
1, 295291, Control_c, 0, 64, 80
1, 295291, Control_c, 0, 67, 92
1, 295305, Control_c, 0, 64, 101
1, 295305, Control_c, 0, 67, 93
1, 295320, Control_c, 0, 64, 127
1, 295320, Control_c, 0, 67, 94
1, 295326, Note_off_c, 0, 40, 62
1, 295329, Note_off_c, 0, 78, 56
1, 295335, Control_c, 0, 67, 94
1, 295350, Control_c, 0, 67, 95
1, 295365, Control_c, 0, 67, 96
1, 295379, Control_c, 0, 67, 97
1, 295394, Control_c, 0, 67, 98
1, 295409, Control_c, 0, 67, 100
1, 295423, Control_c, 0, 67, 101
1, 295438, Control_c, 0, 67, 102
1, 295446, Note_on_c, 0, 78, 71
1, 295453, Control_c, 0, 67, 103
1, 295468, Control_c, 0, 67, 103
1, 295472, Note_on_c, 0, 69, 48
1, 295482, Note_on_c, 0, 64, 38
1, 295483, Control_c, 0, 67, 104
1, 295497, Control_c, 0, 67, 104
1, 295508, Note_on_c, 0, 61, 50
1, 295512, Control_c, 0, 67, 105
1, 295527, Control_c, 0, 67, 105
1, 295542, Control_c, 0, 67, 106
1, 295545, Note_off_c, 0, 61, 63
1, 295557, Control_c, 0, 67, 107
1, 295571, Control_c, 0, 67, 108
1, 295586, Control_c, 0, 67, 109
1, 295601, Control_c, 0, 67, 109
1, 295616, Control_c, 0, 67, 110
1, 295630, Control_c, 0, 67, 111
1, 295645, Control_c, 0, 67, 112
1, 295660, Control_c, 0, 67, 113
1, 295675, Control_c, 0, 67, 115
1, 295690, Control_c, 0, 67, 116
1, 295705, Control_c, 0, 67, 117
1, 295720, Control_c, 0, 67, 118
1, 295735, Control_c, 0, 67, 119
1, 295757, Control_c, 0, 67, 119
1, 295772, Control_c, 0, 67, 121
1, 295786, Control_c, 0, 67, 122
1, 295801, Control_c, 0, 67, 123
1, 295816, Control_c, 0, 67, 125
1, 295830, Control_c, 0, 67, 126
1, 295845, Control_c, 0, 67, 127
1, 295943, Note_on_c, 0, 73, 66
1, 295967, Note_off_c, 0, 64, 43
1, 295970, Note_off_c, 0, 69, 60
1, 296017, Note_off_c, 0, 78, 60
1, 296059, Note_off_c, 0, 73, 58
1, 296253, Note_on_c, 0, 73, 70
1, 296313, Note_off_c, 0, 73, 56
1, 296370, Note_on_c, 0, 52, 45
1, 296468, Note_on_c, 0, 74, 59
1, 296476, Note_on_c, 0, 59, 47
1, 296507, Note_off_c, 0, 74, 67
1, 296522, Note_on_c, 0, 76, 59
1, 296565, Control_c, 0, 64, 104
1, 296580, Control_c, 0, 64, 85
1, 296584, Note_on_c, 0, 74, 71
1, 296595, Control_c, 0, 64, 70
1, 296599, Note_on_c, 0, 68, 44
1, 296608, Note_off_c, 0, 76, 60
1, 296609, Control_c, 0, 64, 0
1, 296652, Note_on_c, 0, 64, 42
1, 296900, Note_on_c, 0, 73, 73
1, 296911, Note_off_c, 0, 74, 63
1, 297109, Note_on_c, 0, 74, 68
1, 297130, Note_off_c, 0, 73, 58
1, 297232, Control_c, 0, 64, 56
1, 297254, Control_c, 0, 64, 66
1, 297269, Control_c, 0, 64, 73
1, 297272, Note_on_c, 0, 78, 58
1, 297272, Note_off_c, 0, 74, 60
1, 297283, Control_c, 0, 64, 83
1, 297298, Control_c, 0, 64, 97
1, 297305, Note_off_c, 0, 64, 50
1, 297313, Control_c, 0, 64, 127
1, 297353, Note_off_c, 0, 59, 34
1, 297387, Note_off_c, 0, 52, 55
1, 297434, Note_on_c, 0, 76, 61
1, 297447, Note_off_c, 0, 78, 57
1, 297463, Note_off_c, 0, 68, 52
1, 297592, Note_on_c, 0, 74, 55
1, 297614, Note_off_c, 0, 74, 64
1, 297626, Note_off_c, 0, 76, 33
1, 297791, Note_on_c, 0, 45, 26
1, 297832, Control_c, 0, 64, 99
1, 297847, Control_c, 0, 64, 83
1, 297862, Control_c, 0, 64, 69
1, 297863, Note_on_c, 0, 73, 49
1, 297872, Note_on_c, 0, 69, 39
1, 297877, Control_c, 0, 64, 0
1, 297888, Note_on_c, 0, 64, 34
1, 298018, Control_c, 0, 64, 56
1, 298033, Control_c, 0, 64, 68
1, 298048, Control_c, 0, 64, 77
1, 298063, Control_c, 0, 64, 89
1, 298078, Control_c, 0, 64, 109
1, 298093, Control_c, 0, 64, 127
1, 298193, Note_off_c, 0, 45, 43
1, 298237, Note_off_c, 0, 64, 42
1, 298315, Note_off_c, 0, 73, 55
1, 298334, Note_off_c, 0, 69, 36
1, 298686, Control_c, 0, 64, 103
1, 298701, Control_c, 0, 64, 87
1, 298715, Control_c, 0, 64, 72
1, 298730, Control_c, 0, 64, 52
1, 298752, Control_c, 0, 64, 0
1, 298797, Control_c, 0, 64, 34
1, 298811, Control_c, 0, 64, 61
1, 298826, Control_c, 0, 64, 68
1, 298829, Note_on_c, 0, 45, 34
1, 298841, Control_c, 0, 64, 76
1, 298856, Control_c, 0, 64, 85
1, 298871, Control_c, 0, 64, 96
1, 298885, Control_c, 0, 64, 108
1, 298900, Control_c, 0, 64, 127
1, 298916, Note_on_c, 0, 64, 39
1, 298951, Note_off_c, 0, 45, 33
1, 298998, Note_on_c, 0, 69, 45
1, 299190, Note_off_c, 0, 64, 41
1, 299205, Note_on_c, 0, 76, 50
1, 299232, Note_off_c, 0, 69, 54
1, 299262, Note_off_c, 0, 76, 58
1, 299264, Note_on_c, 0, 61, 39
1, 299747, Note_off_c, 0, 61, 40
1, 299762, Note_on_c, 0, 78, 48
1, 299933, Note_on_c, 0, 76, 55
1, 299956, Note_off_c, 0, 78, 52
1, 299994, Note_off_c, 0, 76, 57
1, 300084, Note_on_c, 0, 76, 55
1, 300109, Control_c, 0, 64, 97
1, 300124, Control_c, 0, 64, 77
1, 300139, Control_c, 0, 64, 62
1, 300154, Control_c, 0, 64, 40
1, 300168, Control_c, 0, 64, 57
1, 300183, Control_c, 0, 64, 65
1, 300198, Control_c, 0, 64, 70
1, 300212, Control_c, 0, 64, 79
1, 300227, Note_on_c, 0, 81, 55
1, 300227, Control_c, 0, 64, 92
1, 300250, Note_on_c, 0, 45, 43
1, 300250, Control_c, 0, 64, 115
1, 300265, Control_c, 0, 64, 127
1, 300297, Note_off_c, 0, 81, 63
1, 300311, Note_off_c, 0, 76, 59
1, 300316, Note_off_c, 0, 45, 56
1, 300355, Note_on_c, 0, 59, 48
1, 300395, Note_off_c, 0, 59, 59
1, 300518, Note_on_c, 0, 80, 48
1, 300543, Note_on_c, 0, 68, 40
1, 300644, Note_on_c, 0, 64, 53
1, 300719, Note_off_c, 0, 64, 64
1, 301101, Note_on_c, 0, 76, 50
1, 301129, Note_off_c, 0, 80, 59
1, 301154, Note_off_c, 0, 76, 60
1, 301542, Note_on_c, 0, 76, 49
1, 301597, Note_off_c, 0, 68, 55
1, 301631, Note_off_c, 0, 76, 56
1, 301884, Note_on_c, 0, 45, 37
1, 301957, Note_on_c, 0, 64, 41
1, 302019, Note_on_c, 0, 69, 40
1, 302059, Control_c, 0, 64, 96
1, 302073, Control_c, 0, 64, 76
1, 302088, Control_c, 0, 64, 61
1, 302103, Control_c, 0, 64, 0
1, 302110, Note_on_c, 0, 74, 55
1, 302153, Note_on_c, 0, 54, 36
1, 302177, Control_c, 0, 64, 60
1, 302178, Note_off_c, 0, 64, 39
1, 302191, Control_c, 0, 64, 70
1, 302195, Note_off_c, 0, 69, 60
1, 302206, Control_c, 0, 64, 81
1, 302221, Control_c, 0, 64, 97
1, 302236, Control_c, 0, 64, 127
1, 302242, Note_off_c, 0, 74, 63
1, 302469, Note_on_c, 0, 76, 52
1, 302526, Note_on_c, 0, 74, 59
1, 302541, Note_off_c, 0, 76, 57
1, 302632, Note_off_c, 0, 45, 39
1, 302666, Note_off_c, 0, 54, 45
1, 302692, Note_on_c, 0, 73, 67
1, 302696, Note_off_c, 0, 74, 62
1, 302856, Note_on_c, 0, 74, 65
1, 302873, Note_off_c, 0, 73, 55
1, 303003, Note_off_c, 0, 74, 64
1, 303005, Note_on_c, 0, 78, 61
1, 303045, Note_off_c, 0, 78, 58
1, 303053, Note_on_c, 0, 45, 44
1, 303290, Control_c, 0, 64, 107
1, 303293, Note_on_c, 0, 78, 54
1, 303303, Note_on_c, 0, 69, 44
1, 303305, Control_c, 0, 64, 86
1, 303319, Control_c, 0, 64, 71
1, 303334, Note_on_c, 0, 64, 21
1, 303334, Control_c, 0, 64, 11
1, 303349, Control_c, 0, 64, 0
1, 303350, Note_on_c, 0, 61, 27
1, 303808, Control_c, 0, 64, 21
1, 303823, Control_c, 0, 64, 61
1, 303837, Control_c, 0, 64, 70
1, 303842, Note_on_c, 0, 73, 50
1, 303852, Control_c, 0, 64, 79
1, 303867, Control_c, 0, 64, 93
1, 303882, Control_c, 0, 64, 127
1, 303887, Note_off_c, 0, 78, 56
1, 303971, Note_off_c, 0, 61, 42
1, 303971, Note_off_c, 0, 73, 63
1, 304007, Note_off_c, 0, 45, 40
1, 304289, Note_on_c, 0, 73, 55
1, 304364, Note_off_c, 0, 73, 58
1, 304376, Note_off_c, 0, 64, 43
1, 304390, Note_off_c, 0, 69, 34
1, 304668, Note_on_c, 0, 42, 35
1, 304785, Control_c, 0, 64, 113
1, 304800, Control_c, 0, 64, 91
1, 304815, Control_c, 0, 64, 74
1, 304830, Control_c, 0, 64, 49
1, 304839, Note_on_c, 0, 74, 51
1, 304845, Control_c, 0, 64, 0
1, 304867, Note_on_c, 0, 69, 38
1, 304869, Note_on_c, 0, 64, 27
1, 304876, Control_c, 0, 64, 36
1, 304889, Note_on_c, 0, 57, 38
1, 304890, Control_c, 0, 64, 59
1, 304905, Control_c, 0, 64, 67
1, 304920, Control_c, 0, 64, 77
1, 304928, Note_off_c, 0, 64, 47
1, 304935, Control_c, 0, 64, 96
1, 304943, Note_off_c, 0, 69, 58
1, 304950, Control_c, 0, 64, 127
1, 304966, Note_off_c, 0, 74, 63
1, 305049, Note_off_c, 0, 57, 37
1, 305181, Note_off_c, 0, 42, 41
1, 305218, Note_on_c, 0, 76, 57
1, 305378, Note_on_c, 0, 74, 63
1, 305400, Note_off_c, 0, 76, 48
1, 305433, Note_off_c, 0, 74, 57
1, 305547, Note_on_c, 0, 74, 68
1, 305549, Control_c, 0, 64, 112
1, 305564, Control_c, 0, 64, 81
1, 305579, Control_c, 0, 64, 59
1, 305594, Control_c, 0, 64, 0
1, 305638, Control_c, 0, 64, 30
1, 305653, Control_c, 0, 64, 64
1, 305669, Control_c, 0, 64, 73
1, 305670, Note_on_c, 0, 78, 59
1, 305676, Note_on_c, 0, 40, 42
1, 305678, Note_off_c, 0, 74, 60
1, 305684, Control_c, 0, 64, 86
1, 305699, Control_c, 0, 64, 101
1, 305712, Note_off_c, 0, 40, 62
1, 305713, Control_c, 0, 64, 127
1, 305730, Note_off_c, 0, 78, 55
1, 305849, Note_on_c, 0, 78, 61
1, 305876, Note_on_c, 0, 69, 50
1, 305880, Note_on_c, 0, 64, 41
1, 305894, Note_on_c, 0, 61, 49
1, 305928, Note_off_c, 0, 61, 63
1, 306202, Note_off_c, 0, 69, 58
1, 306203, Note_off_c, 0, 64, 39
1, 306204, Note_on_c, 0, 73, 62
1, 306251, Note_off_c, 0, 78, 51
1, 306274, Note_off_c, 0, 73, 62
1, 306534, Note_on_c, 0, 73, 62
1, 306597, Note_off_c, 0, 73, 57
1, 306611, Note_on_c, 0, 52, 38
1, 306723, Note_on_c, 0, 59, 39
1, 306790, Note_on_c, 0, 74, 49
1, 306819, Note_off_c, 0, 74, 62
1, 306842, Note_on_c, 0, 76, 51
1, 306847, Control_c, 0, 64, 114
1, 306862, Control_c, 0, 64, 93
1, 306877, Control_c, 0, 64, 77
1, 306892, Control_c, 0, 64, 63
1, 306904, Note_off_c, 0, 76, 46
1, 306907, Control_c, 0, 64, 0
1, 306919, Note_on_c, 0, 64, 36
1, 306922, Note_on_c, 0, 74, 57
1, 306937, Note_on_c, 0, 68, 34
1, 306960, Note_off_c, 0, 74, 61
1, 307171, Note_on_c, 0, 73, 53
1, 307225, Note_off_c, 0, 73, 55
1, 307376, Note_on_c, 0, 74, 48
1, 307421, Note_off_c, 0, 74, 62
1, 307463, Control_c, 0, 64, 46
1, 307477, Control_c, 0, 64, 65
1, 307492, Control_c, 0, 64, 75
1, 307507, Control_c, 0, 64, 86
1, 307522, Control_c, 0, 64, 100
1, 307530, Note_on_c, 0, 78, 56
1, 307537, Control_c, 0, 64, 121
1, 307551, Control_c, 0, 64, 127
1, 307611, Note_off_c, 0, 64, 53
1, 307652, Note_off_c, 0, 59, 55
1, 307674, Note_off_c, 0, 78, 34
1, 307682, Note_on_c, 0, 76, 56
1, 307709, Note_off_c, 0, 52, 48
1, 307733, Note_off_c, 0, 68, 37
1, 307840, Note_off_c, 0, 76, 36
1, 307840, Note_on_c, 0, 74, 65
1, 307867, Note_off_c, 0, 74, 68
1, 308033, Control_c, 0, 64, 105
1, 308048, Control_c, 0, 64, 86
1, 308064, Control_c, 0, 64, 68
1, 308079, Control_c, 0, 64, 0
1, 308079, Note_on_c, 0, 73, 50
1, 308100, Note_on_c, 0, 69, 33
1, 308104, Note_on_c, 0, 64, 14
1, 308113, Note_on_c, 0, 52, 29
1, 308118, Note_on_c, 0, 57, 25
1, 308118, Poly_aftertouch_c, 0, 45, 127
1, 308182, Control_c, 0, 64, 61
1, 308197, Control_c, 0, 64, 72
1, 308212, Control_c, 0, 64, 85
1, 308226, Control_c, 0, 64, 107
1, 308241, Control_c, 0, 64, 127
1, 308329, Note_off_c, 0, 64, 43
1, 308371, Note_off_c, 0, 73, 56
1, 308382, Note_off_c, 0, 57, 42
1, 308386, Note_off_c, 0, 69, 36
1, 308409, Poly_aftertouch_c, 0, 45, 0
1, 308414, Note_off_c, 0, 52, 40
1, 308886, Control_c, 0, 64, 103
1, 308901, Control_c, 0, 64, 89
1, 308901, Control_c, 0, 67, 125
1, 308916, Control_c, 0, 64, 75
1, 308916, Control_c, 0, 67, 119
1, 308931, Control_c, 0, 64, 64
1, 308931, Control_c, 0, 67, 111
1, 308946, Control_c, 0, 64, 0
1, 308946, Control_c, 0, 67, 101
1, 308961, Control_c, 0, 67, 89
1, 308975, Control_c, 0, 67, 77
1, 308990, Control_c, 0, 67, 64
1, 309005, Control_c, 0, 67, 51
1, 309020, Control_c, 0, 67, 40
1, 309035, Control_c, 0, 67, 27
1, 309050, Control_c, 0, 67, 11
1, 309064, Control_c, 0, 67, 0
1, 309184, Note_on_c, 0, 64, 63
1, 309212, Control_c, 0, 64, 42
1, 309216, Note_on_c, 0, 45, 39
1, 309232, Note_on_c, 0, 52, 31
1, 309235, Control_c, 0, 64, 56
1, 309243, Note_on_c, 0, 61, 40
1, 309250, Control_c, 0, 64, 62
1, 309264, Control_c, 0, 64, 65
1, 309279, Control_c, 0, 64, 69
1, 309294, Control_c, 0, 64, 76
1, 309309, Control_c, 0, 64, 90
1, 309324, Control_c, 0, 64, 127
1, 309553, Note_off_c, 0, 64, 58
1, 309690, Note_on_c, 0, 66, 65
1, 309842, Note_on_c, 0, 64, 73
1, 309872, Note_off_c, 0, 66, 61
1, 309904, Note_off_c, 0, 64, 64
1, 309947, Note_off_c, 0, 45, 41
1, 309951, Note_off_c, 0, 52, 40
1, 309983, Control_c, 0, 64, 108
1, 309998, Note_on_c, 0, 64, 73
1, 309998, Control_c, 0, 64, 93
1, 310013, Control_c, 0, 64, 85
1, 310028, Control_c, 0, 64, 84
1, 310043, Control_c, 0, 64, 88
1, 310058, Control_c, 0, 64, 101
1, 310067, Note_off_c, 0, 64, 63
1, 310073, Control_c, 0, 64, 127
1, 310087, Control_c, 0, 67, 8
1, 310102, Control_c, 0, 67, 9
1, 310117, Control_c, 0, 67, 10
1, 310118, Note_on_c, 0, 73, 78
1, 310131, Control_c, 0, 67, 10
1, 310146, Control_c, 0, 67, 11
1, 310161, Control_c, 0, 67, 11
1, 310176, Control_c, 0, 67, 12
1, 310191, Control_c, 0, 67, 13
1, 310194, Note_off_c, 0, 73, 61
1, 310195, Note_off_c, 0, 61, 50
1, 310205, Control_c, 0, 67, 15
1, 310220, Control_c, 0, 67, 17
1, 310235, Control_c, 0, 67, 19
1, 310250, Control_c, 0, 64, 93
1, 310250, Control_c, 0, 67, 20
1, 310265, Control_c, 0, 64, 74
1, 310265, Control_c, 0, 67, 20
1, 310279, Control_c, 0, 64, 38
1, 310290, Note_on_c, 0, 71, 71
1, 310294, Control_c, 0, 64, 0
1, 310294, Control_c, 0, 67, 21
1, 310309, Control_c, 0, 67, 21
1, 310310, Note_on_c, 0, 62, 51
1, 310316, Note_on_c, 0, 44, 45
1, 310323, Control_c, 0, 67, 22
1, 310334, Note_on_c, 0, 52, 34
1, 310338, Control_c, 0, 67, 24
1, 310353, Control_c, 0, 67, 27
1, 310368, Control_c, 0, 67, 29
1, 310383, Control_c, 0, 67, 31
1, 310398, Control_c, 0, 67, 33
1, 310413, Control_c, 0, 67, 36
1, 310428, Control_c, 0, 67, 39
1, 310442, Control_c, 0, 67, 41
1, 310458, Control_c, 0, 67, 43
1, 310473, Control_c, 0, 67, 45
1, 310488, Control_c, 0, 67, 48
1, 310502, Control_c, 0, 67, 50
1, 310517, Control_c, 0, 67, 52
1, 310532, Control_c, 0, 67, 52
1, 310547, Control_c, 0, 67, 53
1, 310562, Control_c, 0, 67, 54
1, 310577, Control_c, 0, 67, 55
1, 310591, Control_c, 0, 67, 57
1, 310606, Control_c, 0, 67, 60
1, 310621, Control_c, 0, 67, 62
1, 310636, Control_c, 0, 67, 64
1, 310651, Control_c, 0, 67, 66
1, 310666, Control_c, 0, 67, 68
1, 310681, Control_c, 0, 67, 70
1, 310695, Control_c, 0, 67, 72
1, 310701, Note_on_c, 0, 64, 51
1, 310710, Control_c, 0, 67, 74
1, 310733, Control_c, 0, 67, 76
1, 310748, Control_c, 0, 67, 78
1, 310752, Note_off_c, 0, 71, 60
1, 310762, Control_c, 0, 67, 81
1, 310777, Control_c, 0, 67, 84
1, 310792, Control_c, 0, 67, 86
1, 310807, Control_c, 0, 67, 89
1, 310819, Note_off_c, 0, 64, 60
1, 310822, Control_c, 0, 67, 91
1, 310836, Control_c, 0, 64, 38
1, 310836, Control_c, 0, 67, 94
1, 310851, Control_c, 0, 64, 49
1, 310851, Control_c, 0, 67, 96
1, 310866, Control_c, 0, 64, 53
1, 310866, Control_c, 0, 67, 99
1, 310881, Control_c, 0, 67, 102
1, 310896, Control_c, 0, 64, 48
1, 310896, Control_c, 0, 67, 105
1, 310910, Control_c, 0, 64, 36
1, 310910, Control_c, 0, 67, 108
1, 310925, Control_c, 0, 64, 0
1, 310925, Control_c, 0, 67, 111
1, 310940, Control_c, 0, 67, 114
1, 310955, Control_c, 0, 67, 117
1, 310970, Control_c, 0, 67, 121
1, 310985, Control_c, 0, 67, 125
1, 311000, Control_c, 0, 67, 127
1, 311044, Control_c, 0, 64, 52
1, 311051, Note_on_c, 0, 64, 52
1, 311059, Control_c, 0, 64, 65
1, 311069, Note_off_c, 0, 62, 57
1, 311074, Control_c, 0, 64, 72
1, 311089, Control_c, 0, 64, 80
1, 311103, Control_c, 0, 64, 93
1, 311118, Note_off_c, 0, 44, 50
1, 311118, Control_c, 0, 64, 104
1, 311119, Note_off_c, 0, 64, 63
1, 311133, Control_c, 0, 64, 119
1, 311147, Control_c, 0, 64, 127
1, 311163, Note_off_c, 0, 52, 42
1, 311356, Control_c, 0, 64, 98
1, 311367, Note_on_c, 0, 64, 56
1, 311370, Control_c, 0, 64, 81
1, 311385, Control_c, 0, 64, 64
1, 311395, Note_on_c, 0, 61, 42
1, 311400, Control_c, 0, 64, 0
1, 311401, Note_on_c, 0, 52, 35
1, 311402, Note_on_c, 0, 45, 41
1, 311526, Control_c, 0, 64, 17
1, 311541, Control_c, 0, 64, 63
1, 311556, Control_c, 0, 64, 71
1, 311571, Control_c, 0, 64, 79
1, 311585, Control_c, 0, 64, 92
1, 311600, Control_c, 0, 64, 103
1, 311615, Control_c, 0, 64, 120
1, 311619, Note_off_c, 0, 64, 55
1, 311630, Control_c, 0, 64, 127
1, 311754, Note_on_c, 0, 66, 53
1, 311891, Note_off_c, 0, 52, 41
1, 311893, Note_off_c, 0, 45, 42
1, 311900, Note_on_c, 0, 64, 51
1, 311906, Note_off_c, 0, 66, 55
1, 311940, Note_off_c, 0, 64, 64
1, 312046, Note_on_c, 0, 64, 52
1, 312071, Note_off_c, 0, 64, 64
1, 312165, Note_off_c, 0, 61, 37
1, 312188, Note_on_c, 0, 73, 59
1, 312288, Note_off_c, 0, 73, 48
1, 312437, Control_c, 0, 64, 102
1, 312452, Control_c, 0, 64, 90
1, 312455, Note_on_c, 0, 69, 46
1, 312467, Control_c, 0, 64, 79
1, 312477, Note_on_c, 0, 61, 29
1, 312481, Control_c, 0, 64, 67
1, 312496, Control_c, 0, 64, 0
1, 312505, Note_on_c, 0, 42, 40
1, 312508, Note_on_c, 0, 57, 32
1, 312994, Note_on_c, 0, 66, 37
1, 313029, Note_off_c, 0, 69, 59
1, 313053, Control_c, 0, 64, 14
1, 313068, Control_c, 0, 64, 60
1, 313083, Control_c, 0, 64, 67
1, 313097, Control_c, 0, 64, 71
1, 313111, Note_off_c, 0, 66, 56
1, 313112, Control_c, 0, 64, 76
1, 313127, Control_c, 0, 64, 82
1, 313142, Control_c, 0, 64, 89
1, 313156, Control_c, 0, 64, 97
1, 313171, Control_c, 0, 64, 108
1, 313186, Control_c, 0, 64, 127
1, 313496, Note_on_c, 0, 66, 40
1, 313560, Note_off_c, 0, 61, 40
1, 313560, Note_off_c, 0, 66, 58
1, 313590, Note_off_c, 0, 57, 42
1, 313599, Note_off_c, 0, 42, 42
1, 313935, Control_c, 0, 64, 100
1, 313950, Control_c, 0, 64, 83
1, 313965, Control_c, 0, 64, 66
1, 313979, Control_c, 0, 64, 0
1, 314771, Note_on_c, 0, 64, 42
1, 314789, Control_c, 0, 64, 47
1, 314791, Note_on_c, 0, 61, 26
1, 314798, Note_on_c, 0, 45, 28
1, 314803, Control_c, 0, 64, 64
1, 314815, Note_on_c, 0, 52, 26
1, 314818, Control_c, 0, 64, 72
1, 314833, Control_c, 0, 64, 83
1, 314848, Control_c, 0, 64, 100
1, 314863, Control_c, 0, 64, 127
1, 314906, Note_off_c, 0, 64, 55
1, 314917, Note_off_c, 0, 52, 47
1, 314932, Note_off_c, 0, 45, 35
1, 315196, Note_on_c, 0, 66, 46
1, 315341, Note_on_c, 0, 64, 53
1, 315348, Note_off_c, 0, 66, 50
1, 315359, Control_c, 0, 64, 113
1, 315374, Control_c, 0, 64, 100
1, 315382, Note_off_c, 0, 64, 63
1, 315389, Control_c, 0, 64, 88
1, 315404, Control_c, 0, 64, 78
1, 315418, Control_c, 0, 64, 66
1, 315433, Control_c, 0, 64, 0
1, 315498, Note_on_c, 0, 64, 51
1, 315522, Note_off_c, 0, 64, 60
1, 315611, Note_on_c, 0, 73, 57
1, 315629, Note_off_c, 0, 61, 46
1, 315644, Note_off_c, 0, 73, 65
1, 315744, Control_c, 0, 64, 56
1, 315759, Control_c, 0, 64, 73
1, 315761, Note_on_c, 0, 76, 57
1, 315772, Note_on_c, 0, 64, 51
1, 315773, Note_on_c, 0, 37, 42
1, 315774, Control_c, 0, 64, 92
1, 315776, Note_on_c, 0, 69, 46
1, 315784, Note_on_c, 0, 49, 39
1, 315789, Control_c, 0, 64, 127
1, 315791, Note_off_c, 0, 76, 65
1, 315802, Note_off_c, 0, 69, 60
1, 315808, Note_off_c, 0, 64, 65
1, 315811, Note_off_c, 0, 37, 51
1, 315818, Note_off_c, 0, 49, 52
1, 316017, Control_c, 0, 64, 116
1, 316032, Control_c, 0, 64, 89
1, 316048, Control_c, 0, 64, 66
1, 316063, Control_c, 0, 64, 0
1, 316076, Note_on_c, 0, 69, 54
1, 316082, Note_on_c, 0, 66, 54
1, 316084, Note_on_c, 0, 42, 53
1, 316088, Note_on_c, 0, 54, 50
1, 316094, Note_on_c, 0, 61, 42
1, 316117, Note_off_c, 0, 66, 62
1, 316120, Note_off_c, 0, 69, 60
1, 316121, Note_off_c, 0, 42, 62
1, 316122, Note_off_c, 0, 54, 63
1, 316133, Note_off_c, 0, 61, 60
1, 316392, Note_on_c, 0, 69, 43
1, 316395, Note_on_c, 0, 42, 39
1, 316397, Note_on_c, 0, 54, 36
1, 316397, Note_on_c, 0, 66, 42
1, 316404, Note_on_c, 0, 61, 38
1, 316428, Note_off_c, 0, 54, 60
1, 316428, Note_off_c, 0, 69, 64
1, 316458, Note_off_c, 0, 66, 55
1, 316458, Note_off_c, 0, 42, 60
1, 316471, Note_off_c, 0, 61, 48
1, 316722, Control_c, 0, 64, 49
1, 316737, Control_c, 0, 64, 63
1, 316752, Control_c, 0, 64, 69
1, 316756, Note_on_c, 0, 74, 46
1, 316762, Note_on_c, 0, 66, 39
1, 316766, Control_c, 0, 64, 78
1, 316768, Note_on_c, 0, 35, 33
1, 316770, Note_on_c, 0, 47, 35
1, 316779, Note_on_c, 0, 62, 27
1, 316781, Control_c, 0, 64, 95
1, 316795, Note_off_c, 0, 74, 64
1, 316796, Control_c, 0, 64, 127
1, 316807, Note_off_c, 0, 66, 58
1, 316819, Note_off_c, 0, 35, 59
1, 316820, Note_off_c, 0, 47, 61
1, 316822, Note_off_c, 0, 62, 56
1, 317152, Control_c, 0, 64, 98
1, 317167, Control_c, 0, 64, 81
1, 317179, Note_on_c, 0, 68, 42
1, 317182, Control_c, 0, 64, 64
1, 317189, Note_on_c, 0, 62, 38
1, 317191, Note_on_c, 0, 59, 37
1, 317197, Control_c, 0, 64, 0
1, 317202, Note_on_c, 0, 52, 34
1, 317203, Note_on_c, 0, 40, 13
1, 317236, Note_off_c, 0, 62, 59
1, 317242, Note_off_c, 0, 68, 55
1, 317244, Note_off_c, 0, 59, 56
1, 317256, Note_off_c, 0, 52, 60
1, 317270, Note_off_c, 0, 40, 48
1, 317653, Note_on_c, 0, 68, 38
1, 317660, Note_on_c, 0, 40, 29
1, 317669, Note_on_c, 0, 59, 28
1, 317674, Note_on_c, 0, 62, 25
1, 317677, Note_on_c, 0, 52, 32
1, 317680, Control_c, 0, 64, 55
1, 317694, Control_c, 0, 64, 67
1, 317709, Control_c, 0, 64, 75
1, 317716, Note_off_c, 0, 62, 61
1, 317724, Control_c, 0, 64, 86
1, 317725, Note_off_c, 0, 59, 53
1, 317735, Note_off_c, 0, 52, 58
1, 317735, Note_off_c, 0, 40, 57
1, 317738, Control_c, 0, 64, 100
1, 317753, Control_c, 0, 64, 127
1, 317761, Note_off_c, 0, 68, 38
1, 318308, Control_c, 0, 64, 97
1, 318323, Control_c, 0, 64, 78
1, 318327, Note_on_c, 0, 45, 37
1, 318328, Note_on_c, 0, 69, 40
1, 318337, Control_c, 0, 64, 57
1, 318342, Note_on_c, 0, 52, 27
1, 318342, Note_on_c, 0, 61, 32
1, 318352, Control_c, 0, 64, 0
1, 318516, Control_c, 0, 64, 35
1, 318531, Control_c, 0, 64, 65
1, 318546, Control_c, 0, 64, 73
1, 318552, Note_off_c, 0, 61, 41
1, 318560, Control_c, 0, 64, 82
1, 318575, Control_c, 0, 64, 93
1, 318577, Note_on_c, 0, 64, 43
1, 318590, Control_c, 0, 64, 103
1, 318605, Control_c, 0, 64, 110
1, 318620, Control_c, 0, 64, 113
1, 318633, Note_off_c, 0, 69, 52
1, 318679, Control_c, 0, 64, 114
1, 318716, Note_off_c, 0, 64, 51
1, 318738, Control_c, 0, 64, 113
1, 318751, Note_on_c, 0, 62, 42
1, 318790, Note_off_c, 0, 62, 57
1, 318828, Control_c, 0, 64, 113
1, 318842, Control_c, 0, 64, 110
1, 318857, Control_c, 0, 64, 105
1, 318864, Note_on_c, 0, 61, 47
1, 318872, Control_c, 0, 64, 98
1, 318886, Control_c, 0, 64, 89
1, 318901, Control_c, 0, 64, 78
1, 318916, Control_c, 0, 64, 68
1, 318931, Control_c, 0, 64, 50
1, 318946, Control_c, 0, 64, 0
1, 318974, Note_off_c, 0, 61, 54
1, 318992, Note_on_c, 0, 64, 51
1, 319045, Note_off_c, 0, 64, 58
1, 319075, Note_on_c, 0, 68, 47
1, 319148, Note_off_c, 0, 68, 54
1, 319156, Note_on_c, 0, 66, 46
1, 319185, Note_off_c, 0, 66, 64
1, 319236, Note_on_c, 0, 64, 38
1, 319288, Note_off_c, 0, 64, 50
1, 319311, Note_on_c, 0, 69, 53
1, 319362, Note_off_c, 0, 69, 54
1, 319369, Note_on_c, 0, 73, 52
1, 319413, Control_c, 0, 64, 26
1, 319428, Control_c, 0, 64, 61
1, 319443, Control_c, 0, 64, 68
1, 319454, Note_off_c, 0, 73, 58
1, 319457, Control_c, 0, 64, 75
1, 319465, Note_on_c, 0, 71, 35
1, 319472, Control_c, 0, 64, 87
1, 319487, Control_c, 0, 64, 101
1, 319497, Note_off_c, 0, 71, 56
1, 319502, Control_c, 0, 64, 127
1, 319512, Note_on_c, 0, 69, 58
1, 319537, Note_off_c, 0, 52, 45
1, 319546, Note_off_c, 0, 69, 57
1, 319549, Note_off_c, 0, 45, 40
1, 319573, Note_on_c, 0, 73, 62
1, 319630, Note_on_c, 0, 76, 56
1, 319643, Note_off_c, 0, 73, 59
1, 319687, Note_off_c, 0, 76, 59
1, 319722, Note_on_c, 0, 74, 35
1, 319752, Note_off_c, 0, 74, 56
1, 319773, Note_on_c, 0, 73, 62
1, 319809, Note_off_c, 0, 73, 58
1, 319840, Note_on_c, 0, 76, 54
1, 319854, Note_on_c, 0, 57, 51
1, 319880, Note_on_c, 0, 80, 61
1, 319880, Control_c, 0, 64, 106
1, 319881, Note_off_c, 0, 76, 58
1, 319895, Control_c, 0, 64, 100
1, 319897, Note_off_c, 0, 57, 62
1, 319924, Control_c, 0, 64, 102
1, 319928, Note_on_c, 0, 64, 49
1, 319939, Control_c, 0, 64, 115
1, 319954, Control_c, 0, 64, 127
1, 319962, Note_on_c, 0, 78, 62
1, 319966, Note_off_c, 0, 80, 56
1, 319993, Note_off_c, 0, 78, 65
1, 320006, Note_on_c, 0, 73, 59
1, 320011, Note_off_c, 0, 64, 63
1, 320026, Note_off_c, 0, 73, 66
1, 320036, Note_on_c, 0, 76, 61
1, 320059, Note_off_c, 0, 76, 54
1, 320095, Note_on_c, 0, 81, 61
1, 320138, Note_on_c, 0, 85, 62
1, 320151, Note_off_c, 0, 81, 55
1, 320195, Note_on_c, 0, 83, 60
1, 320210, Note_off_c, 0, 85, 62
1, 320220, Note_off_c, 0, 83, 68
1, 320258, Note_on_c, 0, 81, 69
1, 320300, Note_off_c, 0, 81, 45
1, 320317, Note_on_c, 0, 85, 76
1, 320367, Note_on_c, 0, 88, 64
1, 320378, Note_off_c, 0, 85, 56
1, 320407, Note_on_c, 0, 86, 73
1, 320422, Note_off_c, 0, 88, 63
1, 320438, Note_off_c, 0, 86, 64
1, 320483, Note_on_c, 0, 85, 82
1, 320517, Note_off_c, 0, 85, 54
1, 320536, Note_on_c, 0, 88, 81
1, 320589, Note_on_c, 0, 92, 79
1, 320592, Note_off_c, 0, 88, 62
1, 320655, Note_on_c, 0, 90, 84
1, 320671, Note_off_c, 0, 92, 65
1, 320695, Note_off_c, 0, 90, 67
1, 320712, Note_on_c, 0, 88, 77
1, 320774, Note_off_c, 0, 88, 61
1, 320775, Note_on_c, 0, 93, 78
1, 320850, Note_off_c, 0, 93, 64
1, 320874, Note_on_c, 0, 97, 61
1, 320956, Note_off_c, 0, 97, 66
1, 320972, Note_on_c, 0, 100, 60
1, 321063, Note_on_c, 0, 98, 66
1, 321083, Note_off_c, 0, 100, 58
1, 321178, Control_c, 0, 64, 111
1, 321193, Control_c, 0, 64, 85
1, 321201, Note_on_c, 0, 97, 66
1, 321215, Control_c, 0, 64, 70
1, 321217, Note_on_c, 0, 88, 58
1, 321227, Note_off_c, 0, 98, 62
1, 321230, Control_c, 0, 64, 63
1, 321235, Note_on_c, 0, 69, 41
1, 321244, Note_on_c, 0, 76, 32
1, 321251, Note_on_c, 0, 81, 20
1, 321260, Control_c, 0, 64, 66
1, 321275, Control_c, 0, 64, 71
1, 321281, Note_off_c, 0, 69, 62
1, 321289, Control_c, 0, 64, 78
1, 321291, Note_off_c, 0, 88, 41
1, 321298, Note_off_c, 0, 76, 60
1, 321304, Control_c, 0, 64, 90
1, 321307, Note_off_c, 0, 81, 50
1, 321311, Note_off_c, 0, 97, 55
1, 321319, Control_c, 0, 64, 114
1, 321334, Control_c, 0, 64, 127
1, 321364, Note_on_c, 0, 100, 58
1, 321440, Note_off_c, 0, 100, 57
1, 321451, Note_on_c, 0, 98, 55
1, 321518, Note_off_c, 0, 98, 65
1, 321533, Note_on_c, 0, 97, 58
1, 321543, Note_on_c, 0, 81, 36
1, 321552, Note_on_c, 0, 88, 38
1, 321576, Note_on_c, 0, 93, 32
1, 321597, Note_off_c, 0, 97, 61
1, 321615, Note_off_c, 0, 81, 46
1, 321621, Note_on_c, 0, 100, 61
1, 321627, Note_off_c, 0, 93, 43
1, 321650, Note_off_c, 0, 88, 49
1, 321651, Note_on_c, 0, 90, 43
1, 321702, Note_off_c, 0, 100, 57
1, 321704, Note_on_c, 0, 98, 61
1, 321707, Note_off_c, 0, 90, 48
1, 321740, Note_on_c, 0, 81, 44
1, 321748, Note_on_c, 0, 97, 57
1, 321753, Note_off_c, 0, 98, 63
1, 321761, Note_on_c, 0, 88, 52
1, 321803, Note_off_c, 0, 81, 59
1, 321813, Note_off_c, 0, 97, 46
1, 321816, Note_on_c, 0, 100, 64
1, 321816, Note_off_c, 0, 88, 55
1, 321836, Note_on_c, 0, 90, 41
1, 321879, Note_on_c, 0, 98, 59
1, 321900, Note_off_c, 0, 100, 62
1, 321905, Note_off_c, 0, 90, 47
1, 321922, Note_on_c, 0, 81, 56
1, 321923, Note_on_c, 0, 97, 65
1, 321928, Note_off_c, 0, 98, 66
1, 321934, Note_on_c, 0, 88, 59
1, 321988, Note_off_c, 0, 81, 62
1, 322000, Note_off_c, 0, 97, 64
1, 322002, Note_off_c, 0, 88, 60
1, 322005, Note_on_c, 0, 100, 67
1, 322024, Note_on_c, 0, 90, 48
1, 322029, Poly_aftertouch_c, 0, 93, 127
1, 322050, Note_on_c, 0, 98, 71
1, 322054, Poly_aftertouch_c, 0, 93, 0
1, 322068, Note_off_c, 0, 100, 61
1, 322070, Note_off_c, 0, 90, 42
1, 322102, Note_off_c, 0, 98, 67
1, 322107, Note_on_c, 0, 81, 64
1, 322108, Note_on_c, 0, 97, 69
1, 322113, Note_on_c, 0, 88, 64
1, 322150, Note_on_c, 0, 100, 70
1, 322154, Note_on_c, 0, 93, 28
1, 322166, Note_off_c, 0, 97, 63
1, 322166, Note_off_c, 0, 81, 62
1, 322180, Note_off_c, 0, 88, 57
1, 322184, Note_on_c, 0, 90, 59
1, 322190, Note_off_c, 0, 93, 51
1, 322208, Note_on_c, 0, 98, 76
1, 322232, Note_off_c, 0, 100, 63
1, 322259, Note_on_c, 0, 97, 81
1, 322260, Note_off_c, 0, 98, 66
1, 322269, Note_off_c, 0, 90, 59
1, 322275, Note_on_c, 0, 81, 72
1, 322279, Note_on_c, 0, 93, 54
1, 322282, Note_on_c, 0, 88, 67
1, 322305, Note_on_c, 0, 100, 68
1, 322311, Note_off_c, 0, 93, 50
1, 322312, Note_off_c, 0, 97, 65
1, 322329, Note_off_c, 0, 81, 62
1, 322350, Note_off_c, 0, 88, 63
1, 322361, Note_on_c, 0, 90, 57
1, 322363, Note_on_c, 0, 98, 74
1, 322400, Note_off_c, 0, 100, 63
1, 322416, Note_on_c, 0, 97, 76
1, 322429, Note_off_c, 0, 98, 66
1, 322438, Note_off_c, 0, 90, 47
1, 322445, Note_on_c, 0, 88, 69
1, 322447, Note_on_c, 0, 81, 59
1, 322457, Note_on_c, 0, 93, 35
1, 322479, Note_on_c, 0, 100, 65
1, 322481, Note_off_c, 0, 97, 64
1, 322489, Note_off_c, 0, 93, 53
1, 322507, Note_off_c, 0, 81, 62
1, 322515, Note_off_c, 0, 88, 62
1, 322540, Note_on_c, 0, 98, 67
1, 322548, Note_on_c, 0, 90, 47
1, 322562, Note_off_c, 0, 100, 61
1, 322590, Note_on_c, 0, 97, 71
1, 322592, Note_off_c, 0, 98, 66
1, 322602, Note_off_c, 0, 90, 44
1, 322640, Note_off_c, 0, 97, 62
1, 322640, Note_on_c, 0, 81, 47
1, 322643, Note_on_c, 0, 88, 43
1, 322659, Note_on_c, 0, 100, 67
1, 322673, Note_off_c, 0, 81, 57
1, 322688, Note_off_c, 0, 88, 52
1, 322718, Note_on_c, 0, 90, 50
1, 322721, Note_on_c, 0, 98, 59
1, 322751, Note_off_c, 0, 100, 62
1, 322765, Note_off_c, 0, 90, 44
1, 322772, Note_on_c, 0, 97, 63
1, 322778, Note_off_c, 0, 98, 65
1, 322798, Note_on_c, 0, 81, 46
1, 322799, Note_on_c, 0, 88, 53
1, 322843, Note_on_c, 0, 100, 54
1, 322847, Note_off_c, 0, 97, 63
1, 322855, Note_off_c, 0, 81, 62
1, 322864, Note_off_c, 0, 88, 57
1, 322879, Note_on_c, 0, 90, 47
1, 322914, Note_on_c, 0, 98, 54
1, 322933, Note_off_c, 0, 100, 58
1, 322962, Note_off_c, 0, 90, 49
1, 322970, Note_on_c, 0, 97, 52
1, 322972, Note_off_c, 0, 98, 66
1, 322994, Note_on_c, 0, 81, 48
1, 322995, Note_on_c, 0, 88, 51
1, 323034, Note_off_c, 0, 81, 58
1, 323039, Note_on_c, 0, 100, 50
1, 323040, Poly_aftertouch_c, 0, 93, 127
1, 323043, Note_off_c, 0, 97, 62
1, 323048, Note_off_c, 0, 88, 58
1, 323067, Poly_aftertouch_c, 0, 93, 0
1, 323078, Note_on_c, 0, 90, 46
1, 323110, Note_on_c, 0, 98, 58
1, 323127, Note_off_c, 0, 100, 60
1, 323139, Note_off_c, 0, 90, 45
1, 323175, Note_off_c, 0, 98, 60
1, 323179, Note_on_c, 0, 97, 48
1, 323180, Note_on_c, 0, 81, 43
1, 323189, Note_on_c, 0, 88, 40
1, 323237, Poly_aftertouch_c, 0, 93, 127
1, 323250, Note_off_c, 0, 97, 64
1, 323261, Note_on_c, 0, 100, 55
1, 323269, Note_off_c, 0, 81, 44
1, 323289, Note_on_c, 0, 90, 38
1, 323291, Note_off_c, 0, 88, 38
1, 323317, Poly_aftertouch_c, 0, 93, 0
1, 323348, Note_on_c, 0, 98, 49
1, 323371, Note_off_c, 0, 100, 57
1, 323397, Note_off_c, 0, 90, 39
1, 323403, Note_off_c, 0, 98, 63
1, 323411, Note_on_c, 0, 97, 49
1, 323420, Note_on_c, 0, 81, 37
1, 323424, Note_on_c, 0, 88, 40
1, 323480, Note_off_c, 0, 97, 64
1, 323500, Note_on_c, 0, 100, 49
1, 323516, Note_off_c, 0, 81, 39
1, 323541, Note_off_c, 0, 88, 38
1, 323566, Note_on_c, 0, 90, 33
1, 323584, Note_on_c, 0, 98, 52
1, 323585, Note_off_c, 0, 100, 56
1, 323607, Note_off_c, 0, 90, 47
1, 323758, Note_on_c, 0, 97, 50
1, 323760, Note_off_c, 0, 98, 59
1, 323764, Note_on_c, 0, 81, 37
1, 323783, Note_on_c, 0, 93, 35
1, 323806, Note_on_c, 0, 88, 40
1, 323839, Note_off_c, 0, 97, 64
1, 323864, Note_off_c, 0, 81, 53
1, 323892, Note_off_c, 0, 93, 41
1, 323953, Note_off_c, 0, 88, 44
1, 324239, Note_on_c, 0, 100, 32
1, 324277, Note_off_c, 0, 100, 49
1, 324302, Note_on_c, 0, 102, 43
1, 324363, Note_off_c, 0, 102, 58
1, 324393, Note_on_c, 0, 93, 69
1, 324428, Note_off_c, 0, 93, 62
1, 324490, Note_on_c, 0, 88, 55
1, 324531, Note_off_c, 0, 88, 57
1, 324543, Note_on_c, 0, 85, 56
1, 324602, Note_on_c, 0, 81, 50
1, 324620, Note_off_c, 0, 85, 62
1, 324636, Note_off_c, 0, 81, 65
1, 324678, Note_on_c, 0, 90, 59
1, 324729, Note_off_c, 0, 90, 48
1, 324730, Note_on_c, 0, 97, 51
1, 324771, Note_on_c, 0, 88, 43
1, 324781, Note_off_c, 0, 97, 52
1, 324795, Note_off_c, 0, 88, 62
1, 324806, Note_on_c, 0, 85, 62
1, 324836, Note_off_c, 0, 85, 66
1, 324844, Note_on_c, 0, 81, 39
1, 324871, Note_off_c, 0, 81, 56
1, 324879, Note_on_c, 0, 80, 53
1, 324913, Note_on_c, 0, 78, 56
1, 324919, Note_off_c, 0, 80, 57
1, 324980, Note_off_c, 0, 78, 54
1, 324986, Note_on_c, 0, 76, 50
1, 325014, Note_off_c, 0, 76, 64
1, 325037, Note_on_c, 0, 88, 53
1, 325066, Note_off_c, 0, 88, 57
1, 325087, Note_on_c, 0, 90, 56
1, 325117, Note_on_c, 0, 85, 55
1, 325127, Note_off_c, 0, 90, 60
1, 325147, Note_off_c, 0, 85, 66
1, 325162, Note_on_c, 0, 81, 62
1, 325168, Note_on_c, 0, 78, 54
1, 325188, Note_off_c, 0, 81, 64
1, 325189, Note_off_c, 0, 78, 63
1, 325216, Note_on_c, 0, 76, 52
1, 325245, Note_on_c, 0, 73, 61
1, 325253, Note_off_c, 0, 76, 58
1, 325291, Note_on_c, 0, 69, 57
1, 325321, Note_off_c, 0, 73, 61
1, 325332, Note_off_c, 0, 69, 64
1, 325359, Note_on_c, 0, 78, 62
1, 325407, Note_on_c, 0, 85, 52
1, 325427, Note_off_c, 0, 78, 56
1, 325446, Note_off_c, 0, 85, 64
1, 325450, Note_on_c, 0, 76, 54
1, 325474, Note_on_c, 0, 73, 69
1, 325477, Note_off_c, 0, 76, 64
1, 325504, Note_off_c, 0, 73, 64
1, 325539, Note_on_c, 0, 68, 63
1, 325546, Poly_aftertouch_c, 0, 69, 127
1, 325578, Note_off_c, 0, 68, 53
1, 325580, Note_on_c, 0, 66, 47
1, 325588, Poly_aftertouch_c, 0, 69, 0
1, 325626, Note_off_c, 0, 66, 60
1, 325632, Note_on_c, 0, 64, 55
1, 325664, Note_off_c, 0, 64, 67
1, 325675, Note_on_c, 0, 76, 64
1, 325720, Note_off_c, 0, 76, 61
1, 325736, Note_on_c, 0, 78, 59
1, 325753, Note_on_c, 0, 73, 62
1, 325775, Note_off_c, 0, 78, 59
1, 325794, Note_off_c, 0, 73, 63
1, 325804, Note_on_c, 0, 69, 69
1, 325815, Note_on_c, 0, 66, 58
1, 325833, Note_off_c, 0, 69, 64
1, 325844, Note_off_c, 0, 66, 66
1, 325864, Note_on_c, 0, 64, 55
1, 325896, Note_on_c, 0, 61, 66
1, 325901, Note_off_c, 0, 64, 62
1, 325937, Note_on_c, 0, 57, 61
1, 325965, Note_off_c, 0, 61, 62
1, 325985, Note_off_c, 0, 57, 61
1, 325988, Note_on_c, 0, 66, 63
1, 325990, Control_c, 0, 64, 92
1, 326005, Control_c, 0, 64, 74
1, 326020, Control_c, 0, 64, 68
1, 326034, Control_c, 0, 64, 70
1, 326038, Note_on_c, 0, 73, 67
1, 326049, Note_off_c, 0, 66, 59
1, 326049, Control_c, 0, 64, 75
1, 326064, Control_c, 0, 64, 83
1, 326072, Note_on_c, 0, 64, 63
1, 326078, Control_c, 0, 64, 99
1, 326092, Note_off_c, 0, 73, 60
1, 326093, Control_c, 0, 64, 127
1, 326104, Note_off_c, 0, 64, 66
1, 326107, Note_on_c, 0, 61, 72
1, 326144, Note_off_c, 0, 61, 57
1, 326148, Note_on_c, 0, 57, 45
1, 326176, Note_off_c, 0, 57, 59
1, 326177, Note_on_c, 0, 56, 68
1, 326220, Note_on_c, 0, 54, 53
1, 326240, Note_off_c, 0, 56, 44
1, 326254, Note_on_c, 0, 52, 68
1, 326264, Note_off_c, 0, 54, 64
1, 326286, Control_c, 0, 64, 94
1, 326286, Note_off_c, 0, 52, 65
1, 326294, Note_on_c, 0, 64, 73
1, 326301, Control_c, 0, 64, 72
1, 326316, Control_c, 0, 64, 44
1, 326331, Control_c, 0, 64, 44
1, 326343, Note_on_c, 0, 66, 72
1, 326345, Control_c, 0, 64, 61
1, 326346, Note_off_c, 0, 64, 65
1, 326360, Control_c, 0, 64, 69
1, 326360, Note_on_c, 0, 61, 67
1, 326375, Control_c, 0, 64, 80
1, 326390, Control_c, 0, 64, 100
1, 326397, Note_off_c, 0, 66, 61
1, 326404, Control_c, 0, 64, 127
1, 326408, Note_on_c, 0, 57, 66
1, 326412, Note_off_c, 0, 61, 61
1, 326414, Note_on_c, 0, 54, 63
1, 326441, Note_off_c, 0, 57, 63
1, 326459, Note_off_c, 0, 54, 65
1, 326477, Note_on_c, 0, 52, 57
1, 326500, Note_on_c, 0, 49, 72
1, 326514, Note_off_c, 0, 52, 59
1, 326536, Note_on_c, 0, 45, 66
1, 326571, Note_off_c, 0, 49, 63
1, 326577, Note_off_c, 0, 45, 65
1, 326603, Note_on_c, 0, 54, 73
1, 326605, Control_c, 0, 64, 95
1, 326620, Control_c, 0, 64, 72
1, 326635, Control_c, 0, 64, 47
1, 326650, Control_c, 0, 64, 0
1, 326656, Note_on_c, 0, 61, 66
1, 326664, Note_off_c, 0, 54, 64
1, 326664, Control_c, 0, 64, 54
1, 326679, Control_c, 0, 64, 66
1, 326685, Note_on_c, 0, 52, 70
1, 326694, Control_c, 0, 64, 81
1, 326708, Control_c, 0, 64, 106
1, 326717, Note_off_c, 0, 61, 61
1, 326723, Control_c, 0, 64, 127
1, 326729, Note_on_c, 0, 49, 68
1, 326733, Note_off_c, 0, 52, 62
1, 326733, Note_on_c, 0, 45, 60
1, 326771, Note_off_c, 0, 49, 58
1, 326772, Note_off_c, 0, 45, 64
1, 326785, Note_on_c, 0, 44, 63
1, 326823, Note_on_c, 0, 42, 62
1, 326863, Note_off_c, 0, 44, 60
1, 326870, Note_on_c, 0, 40, 63
1, 326874, Note_off_c, 0, 42, 61
1, 326915, Control_c, 0, 64, 124
1, 326927, Note_off_c, 0, 40, 61
1, 326930, Control_c, 0, 64, 90
1, 326935, Note_on_c, 0, 52, 71
1, 326945, Control_c, 0, 64, 69
1, 326960, Control_c, 0, 64, 0
1, 326996, Note_on_c, 0, 54, 65
1, 327001, Note_off_c, 0, 52, 62
1, 327006, Note_on_c, 0, 49, 73
1, 327067, Note_on_c, 0, 45, 62
1, 327075, Note_off_c, 0, 49, 59
1, 327100, Note_on_c, 0, 42, 59
1, 327115, Note_off_c, 0, 45, 59
1, 327148, Note_off_c, 0, 42, 61
1, 327159, Note_on_c, 0, 40, 63
1, 327174, Note_off_c, 0, 54, 36
1, 327226, Note_on_c, 0, 37, 65
1, 327237, Note_off_c, 0, 40, 60
1, 327291, Note_on_c, 0, 33, 62
1, 327307, Note_off_c, 0, 37, 60
1, 327337, Note_off_c, 0, 33, 61
1, 327457, Control_c, 0, 64, 59
1, 327461, Note_on_c, 0, 21, 65
1, 327472, Control_c, 0, 64, 74
1, 327487, Control_c, 0, 64, 104
1, 327499, Note_off_c, 0, 21, 57
1, 327502, Control_c, 0, 64, 127
1, 327839, Note_on_c, 0, 45, 66
1, 327844, Note_on_c, 0, 37, 44
1, 327869, Note_off_c, 0, 45, 63
1, 327884, Note_off_c, 0, 37, 50
1, 327890, Note_on_c, 0, 38, 46
1, 327894, Note_on_c, 0, 47, 65
1, 327925, Note_off_c, 0, 38, 50
1, 327931, Note_off_c, 0, 47, 63
1, 327962, Note_on_c, 0, 40, 40
1, 327974, Note_on_c, 0, 49, 60
1, 328000, Note_off_c, 0, 40, 52
1, 328003, Note_off_c, 0, 49, 64
1, 328003, Note_on_c, 0, 42, 59
1, 328028, Note_on_c, 0, 50, 53
1, 328048, Note_off_c, 0, 42, 59
1, 328055, Note_off_c, 0, 50, 58
1, 328076, Note_on_c, 0, 52, 64
1, 328096, Note_on_c, 0, 45, 53
1, 328108, Note_off_c, 0, 52, 63
1, 328110, Poly_aftertouch_c, 0, 44, 127
1, 328121, Note_off_c, 0, 45, 60
1, 328139, Note_on_c, 0, 56, 65
1, 328153, Poly_aftertouch_c, 0, 44, 0
1, 328167, Note_on_c, 0, 47, 39
1, 328179, Note_off_c, 0, 56, 63
1, 328185, Poly_aftertouch_c, 0, 54, 127
1, 328207, Note_off_c, 0, 47, 63
1, 328212, Note_on_c, 0, 49, 71
1, 328212, Note_on_c, 0, 57, 67
1, 328227, Poly_aftertouch_c, 0, 54, 0
1, 328250, Note_off_c, 0, 49, 61
1, 328256, Note_off_c, 0, 57, 56
1, 328264, Note_on_c, 0, 50, 64
1, 328271, Note_on_c, 0, 59, 62
1, 328280, Control_c, 0, 64, 124
1, 328284, Note_off_c, 0, 50, 65
1, 328295, Control_c, 0, 64, 108
1, 328301, Note_off_c, 0, 59, 64
1, 328310, Control_c, 0, 64, 96
1, 328315, Note_on_c, 0, 52, 52
1, 328325, Control_c, 0, 64, 88
1, 328337, Note_on_c, 0, 61, 58
1, 328340, Control_c, 0, 64, 80
1, 328347, Note_off_c, 0, 52, 54
1, 328355, Control_c, 0, 64, 72
1, 328357, Note_on_c, 0, 54, 60
1, 328358, Note_off_c, 0, 61, 61
1, 328370, Control_c, 0, 64, 64
1, 328383, Note_on_c, 0, 62, 53
1, 328384, Control_c, 0, 64, 33
1, 328397, Note_off_c, 0, 54, 62
1, 328399, Control_c, 0, 64, 0
1, 328406, Note_on_c, 0, 56, 69
1, 328408, Note_off_c, 0, 62, 55
1, 328428, Note_on_c, 0, 64, 66
1, 328432, Note_off_c, 0, 56, 66
1, 328462, Note_on_c, 0, 57, 39
1, 328467, Note_off_c, 0, 64, 64
1, 328473, Note_on_c, 0, 66, 55
1, 328491, Note_on_c, 0, 68, 68
1, 328493, Note_off_c, 0, 57, 51
1, 328505, Note_off_c, 0, 66, 65
1, 328506, Note_on_c, 0, 59, 62
1, 328531, Note_off_c, 0, 68, 62
1, 328544, Note_off_c, 0, 59, 60
1, 328555, Note_on_c, 0, 69, 71
1, 328559, Note_on_c, 0, 61, 70
1, 328589, Note_off_c, 0, 69, 57
1, 328595, Note_off_c, 0, 61, 62
1, 328609, Note_on_c, 0, 71, 70
1, 328611, Note_on_c, 0, 62, 63
1, 328639, Note_off_c, 0, 62, 64
1, 328645, Note_off_c, 0, 71, 62
1, 328669, Note_on_c, 0, 73, 63
1, 328688, Note_off_c, 0, 73, 65
1, 328718, Note_on_c, 0, 74, 68
1, 328721, Note_on_c, 0, 66, 61
1, 328741, Note_off_c, 0, 74, 62
1, 328763, Note_off_c, 0, 66, 59
1, 328767, Note_on_c, 0, 68, 67
1, 328770, Note_on_c, 0, 76, 68
1, 328786, Note_off_c, 0, 68, 65
1, 328811, Note_off_c, 0, 76, 61
1, 328823, Note_on_c, 0, 78, 53
1, 328826, Note_on_c, 0, 69, 35
1, 328837, Note_on_c, 0, 80, 66
1, 328844, Note_off_c, 0, 78, 64
1, 328859, Note_off_c, 0, 69, 33
1, 328867, Note_off_c, 0, 80, 63
1, 328872, Note_on_c, 0, 71, 59
1, 328894, Note_on_c, 0, 81, 71
1, 328909, Note_off_c, 0, 71, 64
1, 328924, Note_on_c, 0, 73, 64
1, 328935, Note_off_c, 0, 81, 62
1, 328948, Note_on_c, 0, 83, 70
1, 328953, Note_off_c, 0, 73, 65
1, 328977, Note_on_c, 0, 74, 67
1, 328987, Note_off_c, 0, 83, 65
1, 329002, Note_off_c, 0, 74, 69
1, 329010, Note_on_c, 0, 85, 64
1, 329028, Note_off_c, 0, 85, 67
1, 329045, Note_on_c, 0, 76, 30
1, 329055, Note_on_c, 0, 86, 66
1, 329082, Note_off_c, 0, 76, 31
1, 329083, Note_on_c, 0, 78, 61
1, 329085, Note_off_c, 0, 86, 60
1, 329100, Note_on_c, 0, 88, 72
1, 329123, Note_off_c, 0, 78, 60
1, 329124, Note_on_c, 0, 80, 59
1, 329142, Note_off_c, 0, 80, 66
1, 329143, Note_off_c, 0, 88, 64
1, 329165, Note_on_c, 0, 90, 54
1, 329176, Note_on_c, 0, 81, 46
1, 329177, Note_on_c, 0, 92, 68
1, 329186, Note_off_c, 0, 90, 62
1, 329198, Note_off_c, 0, 81, 59
1, 329220, Note_off_c, 0, 92, 65
1, 329237, Note_on_c, 0, 93, 76
1, 329238, Note_on_c, 0, 83, 57
1, 329267, Note_off_c, 0, 83, 67
1, 329273, Note_on_c, 0, 85, 70
1, 329287, Note_off_c, 0, 93, 60
1, 329291, Note_on_c, 0, 95, 74
1, 329315, Note_off_c, 0, 85, 60
1, 329329, Note_on_c, 0, 86, 66
1, 329338, Note_off_c, 0, 95, 65
1, 329348, Note_on_c, 0, 97, 77
1, 329351, Note_off_c, 0, 86, 71
1, 329373, Note_off_c, 0, 97, 67
1, 329395, Note_on_c, 0, 88, 45
1, 329405, Note_on_c, 0, 98, 62
1, 329419, Note_off_c, 0, 88, 55
1, 329433, Note_off_c, 0, 98, 57
1, 329452, Note_on_c, 0, 100, 77
1, 329503, Note_off_c, 0, 100, 66
1, 329508, Note_on_c, 0, 102, 77
1, 329548, Note_on_c, 0, 104, 71
1, 329572, Note_off_c, 0, 102, 62
1, 329612, Note_on_c, 0, 105, 82
1, 329616, Control_c, 0, 64, 47
1, 329624, Note_off_c, 0, 104, 65
1, 329629, Note_on_c, 0, 96, 70
1, 329631, Control_c, 0, 64, 65
1, 329637, Note_off_c, 0, 105, 68
1, 329646, Control_c, 0, 64, 77
1, 329650, Note_off_c, 0, 96, 71
1, 329660, Control_c, 0, 64, 96
1, 329675, Control_c, 0, 64, 127
1, 329853, Control_c, 0, 64, 109
1, 329868, Control_c, 0, 64, 83
1, 329883, Control_c, 0, 64, 65
1, 329898, Control_c, 0, 64, 0
1, 330090, Control_c, 0, 64, 48
1, 330095, Note_on_c, 0, 54, 41
1, 330098, Note_on_c, 0, 81, 53
1, 330105, Control_c, 0, 64, 62
1, 330113, Note_on_c, 0, 61, 39
1, 330119, Control_c, 0, 64, 69
1, 330125, Note_on_c, 0, 66, 24
1, 330125, Note_on_c, 0, 73, 43
1, 330134, Control_c, 0, 64, 76
1, 330149, Control_c, 0, 64, 86
1, 330164, Control_c, 0, 64, 103
1, 330167, Note_off_c, 0, 73, 62
1, 330172, Note_off_c, 0, 81, 62
1, 330179, Control_c, 0, 64, 127
1, 330204, Note_off_c, 0, 66, 50
1, 330256, Note_off_c, 0, 61, 32
1, 330267, Note_off_c, 0, 54, 34
1, 330557, Control_c, 0, 64, 109
1, 330572, Control_c, 0, 64, 82
1, 330587, Control_c, 0, 64, 62
1, 330602, Control_c, 0, 64, 0
1, 330613, Note_on_c, 0, 93, 63
1, 330631, Note_on_c, 0, 81, 37
1, 330633, Note_on_c, 0, 52, 46
1, 330635, Note_on_c, 0, 85, 46
1, 330636, Note_on_c, 0, 64, 39
1, 330638, Note_on_c, 0, 61, 41
1, 330661, Control_c, 0, 64, 53
1, 330670, Note_off_c, 0, 81, 65
1, 330675, Control_c, 0, 64, 68
1, 330690, Control_c, 0, 64, 83
1, 330691, Note_off_c, 0, 64, 64
1, 330701, Note_off_c, 0, 85, 64
1, 330705, Control_c, 0, 64, 104
1, 330717, Note_off_c, 0, 93, 63
1, 330720, Control_c, 0, 64, 127
1, 330723, Note_off_c, 0, 61, 56
1, 330783, Note_off_c, 0, 52, 61
1, 331422, Note_on_c, 0, 21, 34
1, 331430, Note_on_c, 0, 105, 50
1, 331487, Note_off_c, 0, 105, 63
1, 331557, Note_off_c, 0, 21, 33
1, 331743, Control_c, 0, 67, 122
1, 331758, Control_c, 0, 67, 114
1, 331772, Control_c, 0, 67, 107
1, 331787, Control_c, 0, 67, 101
1, 331802, Control_c, 0, 67, 94
1, 331816, Control_c, 0, 67, 88
1, 331831, Control_c, 0, 67, 81
1, 331846, Control_c, 0, 67, 72
1, 331861, Control_c, 0, 67, 62
1, 331876, Control_c, 0, 67, 53
1, 331890, Control_c, 0, 67, 44
1, 331905, Control_c, 0, 67, 36
1, 331920, Control_c, 0, 67, 28
1, 331935, Control_c, 0, 67, 18
1, 331950, Control_c, 0, 67, 0
1, 332292, Control_c, 0, 64, 123
1, 332307, Control_c, 0, 64, 113
1, 332321, Control_c, 0, 64, 108
1, 332336, Control_c, 0, 64, 103
1, 332351, Control_c, 0, 64, 98
1, 332366, Control_c, 0, 64, 94
1, 332381, Control_c, 0, 64, 89
1, 332395, Control_c, 0, 64, 83
1, 332410, Control_c, 0, 64, 78
1, 332425, Control_c, 0, 64, 72
1, 332447, Control_c, 0, 64, 67
1, 332462, Control_c, 0, 64, 63
1, 332477, Control_c, 0, 64, 62
1, 332536, Control_c, 0, 64, 61
1, 332551, Control_c, 0, 64, 59
1, 332566, Control_c, 0, 64, 55
1, 332581, Control_c, 0, 64, 52
1, 332595, Control_c, 0, 64, 40
1, 332610, Control_c, 0, 64, 0
1, 332685, End_track
0, 0, End_of_file
