0, 0, Header, 0, 1, 384
1, 0, Start_track
1, 0, Title_t, "Fairy Tale in d--Gasanov        "
1, 0, Text_t, "2009 International Piano-e-Competition finals"
1, 0, Text_t, "captured June-July 2009"
1, 0, Text_t, "http://www.piano-e-competition.com/"
1, 0, Text_t, "standard-resolution version"
1, 0, Text_t, "File processed for distribution by software from Zenph Studios, Inc., http://www.zenph.com"
1, 0, Instrument_name_t, "Yamaha Disklavier Pro Mark IV concert grand piano, model DCFIIISM4PRO"
1, 0, Sequencer_specific, 39, 67, 113, 0, 1, 0, 1, 0, 70, 97, 105, 114, 121, 84, 97, 108, 101, 32, 105, 110, 32, 68, 109, 32, 69, 108, 109, 97, 114, 32, 71, 97, 115, 97, 110, 111, 118, 32, 32, 32
1, 0, Sequencer_specific, 6, 67, 113, 0, 0, 0, 69
1, 0, System_exclusive, 21, 67, 113, 126, 21, 0, 2, 2, 2, 3, 12, 8, 4, 10, 4, 11, 14, 3, 9, 8, 0, 247
1, 0, Sequencer_specific, 5, 67, 123, 12, 2, 1
1, 0, Tempo, 512820
1, 0, Time_signature, 4, 2, 24, 8
1, 0, System_exclusive, 5, 126, 127, 9, 1, 247
1, 1, System_exclusive, 8, 67, 16, 76, 0, 0, 126, 0, 247
1, 2, System_exclusive, 8, 67, 16, 76, 8, 9, 7, 1, 247
1, 3, Control_c, 0, 0, 0
1, 3, Control_c, 1, 0, 0
1, 3, Control_c, 2, 0, 0
1, 3, Control_c, 3, 0, 0
1, 3, Control_c, 4, 0, 0
1, 3, Control_c, 5, 0, 0
1, 3, Control_c, 6, 0, 0
1, 3, Control_c, 7, 0, 0
1, 3, Control_c, 8, 0, 0
1, 3, Control_c, 9, 0, 127
1, 3, Control_c, 10, 0, 0
1, 3, Control_c, 11, 0, 0
1, 3, Control_c, 12, 0, 0
1, 3, Control_c, 13, 0, 0
1, 3, Control_c, 14, 0, 0
1, 3, Control_c, 15, 0, 0
1, 4, Control_c, 0, 32, 0
1, 4, Control_c, 1, 32, 0
1, 4, Control_c, 2, 32, 0
1, 4, Control_c, 3, 32, 0
1, 4, Control_c, 4, 32, 0
1, 4, Control_c, 5, 32, 0
1, 4, Control_c, 6, 32, 0
1, 4, Control_c, 7, 32, 0
1, 4, Control_c, 8, 32, 0
1, 4, Control_c, 9, 32, 0
1, 4, Control_c, 10, 32, 0
1, 4, Control_c, 11, 32, 0
1, 4, Control_c, 12, 32, 0
1, 4, Control_c, 13, 32, 0
1, 4, Control_c, 14, 32, 0
1, 4, Control_c, 15, 32, 0
1, 5, Program_c, 0, 0
1, 5, Program_c, 1, 0
1, 5, Program_c, 2, 0
1, 5, Program_c, 3, 0
1, 5, Program_c, 4, 0
1, 5, Program_c, 5, 0
1, 5, Program_c, 6, 0
1, 5, Program_c, 7, 0
1, 5, Program_c, 8, 0
1, 5, Program_c, 9, 0
1, 5, Program_c, 10, 0
1, 5, Program_c, 11, 0
1, 5, Program_c, 12, 0
1, 5, Program_c, 13, 0
1, 5, Program_c, 14, 0
1, 5, Program_c, 15, 0
1, 6, Control_c, 0, 7, 100
1, 6, Control_c, 1, 7, 100
1, 6, Control_c, 2, 7, 100
1, 6, Control_c, 3, 7, 100
1, 6, Control_c, 4, 7, 100
1, 6, Control_c, 5, 7, 100
1, 6, Control_c, 6, 7, 100
1, 6, Control_c, 7, 7, 100
1, 6, Control_c, 8, 7, 100
1, 6, Control_c, 9, 7, 100
1, 6, Control_c, 10, 7, 100
1, 6, Control_c, 11, 7, 100
1, 6, Control_c, 12, 7, 100
1, 6, Control_c, 13, 7, 100
1, 6, Control_c, 14, 7, 100
1, 6, Control_c, 15, 7, 100
1, 117, Control_c, 0, 64, 15
1, 229, Control_c, 0, 64, 31
1, 341, Control_c, 0, 64, 46
1, 452, Control_c, 0, 64, 63
1, 564, Control_c, 0, 64, 77
1, 676, Control_c, 0, 64, 94
1, 787, Control_c, 0, 64, 108
1, 899, Control_c, 0, 64, 127
1, 1125, Control_c, 0, 67, 119
1, 1135, Note_on_c, 0, 69, 51
1, 1140, Control_c, 0, 64, 112
1, 1140, Control_c, 0, 67, 120
1, 1154, Control_c, 0, 64, 98
1, 1154, Control_c, 0, 67, 121
1, 1169, Control_c, 0, 64, 84
1, 1169, Control_c, 0, 67, 121
1, 1181, Note_on_c, 0, 61, 31
1, 1184, Control_c, 0, 64, 74
1, 1184, Control_c, 0, 67, 122
1, 1187, Note_on_c, 0, 57, 29
1, 1199, Control_c, 0, 64, 64
1, 1199, Control_c, 0, 67, 123
1, 1214, Control_c, 0, 64, 47
1, 1228, Control_c, 0, 64, 36
1, 1228, Control_c, 0, 67, 123
1, 1243, Control_c, 0, 64, 41
1, 1258, Control_c, 0, 64, 54
1, 1273, Control_c, 0, 64, 62
1, 1288, Control_c, 0, 64, 66
1, 1288, Control_c, 0, 67, 124
1, 1302, Control_c, 0, 64, 70
1, 1317, Control_c, 0, 64, 74
1, 1332, Control_c, 0, 64, 80
1, 1346, Control_c, 0, 64, 87
1, 1346, Control_c, 0, 67, 124
1, 1361, Control_c, 0, 64, 93
1, 1376, Control_c, 0, 64, 99
1, 1391, Control_c, 0, 64, 105
1, 1406, Control_c, 0, 64, 113
1, 1406, Control_c, 0, 67, 125
1, 1422, Control_c, 0, 64, 127
1, 1437, Control_c, 0, 67, 125
1, 1451, Control_c, 0, 67, 127
1, 1466, Control_c, 0, 67, 127
1, 1471, Note_off_c, 0, 69, 47
1, 1510, Note_on_c, 0, 70, 41
1, 1619, Note_on_c, 0, 69, 44
1, 1643, Note_off_c, 0, 70, 37
1, 1680, Control_c, 0, 64, 112
1, 1695, Control_c, 0, 64, 94
1, 1706, Note_off_c, 0, 69, 62
1, 1710, Control_c, 0, 64, 81
1, 1724, Control_c, 0, 64, 69
1, 1727, Note_on_c, 0, 67, 50
1, 1731, Note_off_c, 0, 61, 43
1, 1736, Note_off_c, 0, 57, 42
1, 1739, Note_on_c, 0, 58, 33
1, 1739, Control_c, 0, 64, 48
1, 1750, Note_on_c, 0, 62, 35
1, 1754, Control_c, 0, 64, 0
1, 1769, Control_c, 0, 64, 19
1, 1784, Control_c, 0, 64, 40
1, 1798, Control_c, 0, 64, 55
1, 1813, Control_c, 0, 64, 64
1, 1828, Control_c, 0, 64, 69
1, 1843, Control_c, 0, 64, 74
1, 1858, Control_c, 0, 64, 80
1, 1873, Control_c, 0, 64, 86
1, 1888, Control_c, 0, 64, 91
1, 1903, Control_c, 0, 64, 97
1, 1917, Control_c, 0, 64, 103
1, 1932, Control_c, 0, 64, 107
1, 1947, Control_c, 0, 64, 113
1, 1951, Note_off_c, 0, 67, 37
1, 1957, Note_on_c, 0, 70, 47
1, 1962, Control_c, 0, 64, 122
1, 1976, Control_c, 0, 64, 127
1, 2040, Note_on_c, 0, 69, 51
1, 2042, Note_off_c, 0, 70, 36
1, 2095, Control_c, 0, 64, 109
1, 2110, Control_c, 0, 64, 93
1, 2114, Note_off_c, 0, 69, 60
1, 2124, Note_on_c, 0, 65, 57
1, 2124, Control_c, 0, 64, 81
1, 2139, Control_c, 0, 64, 70
1, 2144, Note_off_c, 0, 62, 46
1, 2153, Note_on_c, 0, 57, 37
1, 2154, Control_c, 0, 64, 60
1, 2158, Note_on_c, 0, 61, 34
1, 2166, Note_off_c, 0, 58, 43
1, 2168, Control_c, 0, 64, 51
1, 2183, Control_c, 0, 64, 57
1, 2198, Control_c, 0, 64, 64
1, 2214, Control_c, 0, 64, 67
1, 2229, Control_c, 0, 64, 72
1, 2252, Control_c, 0, 64, 79
1, 2267, Control_c, 0, 64, 87
1, 2281, Control_c, 0, 64, 95
1, 2296, Control_c, 0, 64, 102
1, 2311, Control_c, 0, 64, 109
1, 2313, Note_off_c, 0, 65, 50
1, 2319, Note_on_c, 0, 70, 44
1, 2326, Control_c, 0, 64, 114
1, 2341, Control_c, 0, 64, 127
1, 2375, Note_off_c, 0, 70, 54
1, 2398, Note_on_c, 0, 69, 50
1, 2460, Control_c, 0, 64, 106
1, 2467, Note_off_c, 0, 61, 38
1, 2470, Note_off_c, 0, 69, 59
1, 2474, Control_c, 0, 64, 91
1, 2478, Note_on_c, 0, 64, 66
1, 2479, Note_off_c, 0, 57, 35
1, 2489, Control_c, 0, 64, 76
1, 2504, Note_on_c, 0, 55, 42
1, 2504, Control_c, 0, 64, 66
1, 2510, Note_on_c, 0, 62, 39
1, 2514, Note_on_c, 0, 58, 41
1, 2519, Control_c, 0, 64, 57
1, 2534, Control_c, 0, 64, 58
1, 2548, Control_c, 0, 64, 63
1, 2563, Control_c, 0, 64, 67
1, 2578, Control_c, 0, 64, 72
1, 2592, Control_c, 0, 64, 81
1, 2607, Control_c, 0, 64, 91
1, 2622, Control_c, 0, 64, 101
1, 2637, Control_c, 0, 64, 109
1, 2652, Control_c, 0, 64, 116
1, 2666, Note_on_c, 0, 70, 51
1, 2666, Control_c, 0, 64, 127
1, 2670, Note_off_c, 0, 64, 48
1, 2740, Note_on_c, 0, 69, 58
1, 2766, Note_off_c, 0, 62, 32
1, 2770, Control_c, 0, 64, 101
1, 2785, Control_c, 0, 64, 85
1, 2800, Control_c, 0, 64, 71
1, 2802, Note_off_c, 0, 70, 34
1, 2814, Note_off_c, 0, 55, 51
1, 2815, Control_c, 0, 64, 44
1, 2820, Note_off_c, 0, 58, 46
1, 2821, Note_on_c, 0, 65, 67
1, 2823, Note_off_c, 0, 69, 62
1, 2830, Note_on_c, 0, 57, 44
1, 2830, Control_c, 0, 64, 0
1, 2845, Note_on_c, 0, 61, 38
1, 2874, Control_c, 0, 64, 28
1, 2889, Control_c, 0, 64, 62
1, 2904, Control_c, 0, 64, 70
1, 2918, Control_c, 0, 64, 78
1, 2933, Control_c, 0, 64, 89
1, 2948, Control_c, 0, 64, 101
1, 2963, Control_c, 0, 64, 119
1, 2978, Control_c, 0, 64, 127
1, 2981, Note_off_c, 0, 57, 37
1, 2997, Note_off_c, 0, 61, 39
1, 3022, Note_on_c, 0, 70, 53
1, 3072, Note_off_c, 0, 65, 39
1, 3108, Note_on_c, 0, 69, 58
1, 3149, Control_c, 0, 64, 96
1, 3164, Control_c, 0, 64, 76
1, 3172, Note_off_c, 0, 70, 40
1, 3178, Control_c, 0, 64, 58
1, 3180, Note_on_c, 0, 66, 66
1, 3191, Note_on_c, 0, 58, 45
1, 3193, Control_c, 0, 64, 0
1, 3203, Note_on_c, 0, 62, 37
1, 3204, Note_off_c, 0, 69, 59
1, 3252, Control_c, 0, 64, 36
1, 3267, Control_c, 0, 64, 63
1, 3282, Control_c, 0, 64, 71
1, 3296, Control_c, 0, 64, 79
1, 3304, Note_off_c, 0, 58, 56
1, 3311, Control_c, 0, 64, 89
1, 3314, Note_off_c, 0, 62, 50
1, 3326, Control_c, 0, 64, 100
1, 3341, Control_c, 0, 64, 112
1, 3356, Control_c, 0, 64, 127
1, 3369, Note_on_c, 0, 70, 52
1, 3412, Note_off_c, 0, 66, 35
1, 3438, Note_on_c, 0, 69, 53
1, 3484, Note_off_c, 0, 70, 33
1, 3518, Control_c, 0, 64, 121
1, 3533, Control_c, 0, 64, 92
1, 3534, Note_off_c, 0, 69, 58
1, 3537, Note_on_c, 0, 67, 57
1, 3542, Note_on_c, 0, 57, 36
1, 3548, Control_c, 0, 64, 75
1, 3555, Note_on_c, 0, 61, 35
1, 3563, Control_c, 0, 64, 60
1, 3578, Control_c, 0, 64, 0
1, 3622, Control_c, 0, 64, 19
1, 3637, Control_c, 0, 64, 62
1, 3652, Control_c, 0, 64, 69
1, 3662, Note_off_c, 0, 57, 59
1, 3667, Control_c, 0, 64, 77
1, 3682, Note_off_c, 0, 61, 54
1, 3682, Control_c, 0, 64, 86
1, 3696, Control_c, 0, 64, 97
1, 3711, Control_c, 0, 64, 107
1, 3726, Control_c, 0, 64, 124
1, 3748, Control_c, 0, 64, 127
1, 3751, Note_on_c, 0, 70, 48
1, 3813, Note_off_c, 0, 67, 35
1, 3821, Note_off_c, 0, 70, 51
1, 3834, Note_on_c, 0, 69, 46
1, 3937, Note_off_c, 0, 69, 50
1, 3945, Note_on_c, 0, 68, 53
1, 3957, Control_c, 0, 64, 100
1, 3971, Control_c, 0, 64, 84
1, 3978, Note_on_c, 0, 52, 39
1, 3986, Control_c, 0, 64, 70
1, 3989, Note_on_c, 0, 62, 24
1, 3996, Note_on_c, 0, 58, 26
1, 4001, Control_c, 0, 64, 47
1, 4016, Control_c, 0, 64, 0
1, 4119, Control_c, 0, 64, 57
1, 4134, Control_c, 0, 64, 66
1, 4149, Control_c, 0, 64, 73
1, 4150, Note_off_c, 0, 52, 43
1, 4159, Note_off_c, 0, 58, 49
1, 4164, Control_c, 0, 64, 80
1, 4178, Control_c, 0, 64, 89
1, 4183, Note_on_c, 0, 69, 40
1, 4184, Note_off_c, 0, 68, 50
1, 4193, Control_c, 0, 64, 99
1, 4208, Control_c, 0, 64, 112
1, 4223, Control_c, 0, 64, 127
1, 4249, Note_off_c, 0, 62, 39
1, 4276, Note_on_c, 0, 70, 50
1, 4287, Note_off_c, 0, 69, 37
1, 4434, Note_on_c, 0, 69, 51
1, 4442, Note_off_c, 0, 70, 38
1, 4460, Control_c, 0, 64, 107
1, 4475, Note_on_c, 0, 57, 37
1, 4475, Control_c, 0, 64, 88
1, 4480, Note_on_c, 0, 61, 36
1, 4497, Control_c, 0, 64, 74
1, 4512, Control_c, 0, 64, 61
1, 4526, Control_c, 0, 64, 0
1, 4586, Control_c, 0, 64, 23
1, 4600, Control_c, 0, 64, 60
1, 4616, Control_c, 0, 64, 68
1, 4631, Control_c, 0, 64, 75
1, 4646, Control_c, 0, 64, 84
1, 4661, Control_c, 0, 64, 95
1, 4675, Control_c, 0, 64, 109
1, 4690, Control_c, 0, 64, 127
1, 4699, Note_off_c, 0, 69, 38
1, 4701, Note_on_c, 0, 70, 49
1, 4705, Control_c, 0, 67, 127
1, 4720, Control_c, 0, 67, 123
1, 4735, Control_c, 0, 67, 119
1, 4750, Control_c, 0, 67, 115
1, 4764, Control_c, 0, 67, 112
1, 4779, Control_c, 0, 67, 109
1, 4792, Note_off_c, 0, 70, 52
1, 4794, Control_c, 0, 67, 106
1, 4798, Note_on_c, 0, 69, 50
1, 4809, Control_c, 0, 67, 102
1, 4824, Control_c, 0, 67, 99
1, 4839, Control_c, 0, 67, 96
1, 4854, Control_c, 0, 67, 93
1, 4868, Control_c, 0, 67, 91
1, 4878, Note_off_c, 0, 69, 60
1, 4883, Control_c, 0, 64, 109
1, 4883, Control_c, 0, 67, 89
1, 4896, Note_on_c, 0, 67, 59
1, 4898, Control_c, 0, 64, 92
1, 4898, Control_c, 0, 67, 85
1, 4913, Control_c, 0, 64, 79
1, 4913, Control_c, 0, 67, 81
1, 4928, Note_off_c, 0, 61, 44
1, 4928, Control_c, 0, 64, 68
1, 4928, Control_c, 0, 67, 76
1, 4934, Note_on_c, 0, 58, 34
1, 4940, Note_off_c, 0, 57, 43
1, 4942, Control_c, 0, 64, 57
1, 4942, Control_c, 0, 67, 70
1, 4955, Note_on_c, 0, 62, 28
1, 4957, Control_c, 0, 64, 52
1, 4957, Control_c, 0, 67, 65
1, 4972, Control_c, 0, 64, 61
1, 4972, Control_c, 0, 67, 58
1, 4986, Control_c, 0, 64, 65
1, 4986, Control_c, 0, 67, 52
1, 5001, Control_c, 0, 64, 71
1, 5001, Control_c, 0, 67, 46
1, 5016, Control_c, 0, 64, 78
1, 5016, Control_c, 0, 67, 39
1, 5031, Control_c, 0, 64, 87
1, 5031, Control_c, 0, 67, 33
1, 5046, Control_c, 0, 64, 98
1, 5046, Control_c, 0, 67, 25
1, 5060, Control_c, 0, 64, 112
1, 5060, Control_c, 0, 67, 17
1, 5075, Control_c, 0, 64, 127
1, 5075, Control_c, 0, 67, 8
1, 5090, Control_c, 0, 67, 0
1, 5095, Note_on_c, 0, 70, 49
1, 5097, Note_off_c, 0, 67, 38
1, 5171, Note_off_c, 0, 70, 47
1, 5176, Note_on_c, 0, 69, 50
1, 5247, Control_c, 0, 64, 106
1, 5261, Note_off_c, 0, 69, 60
1, 5262, Control_c, 0, 64, 83
1, 5265, Note_on_c, 0, 65, 60
1, 5276, Control_c, 0, 64, 69
1, 5286, Note_off_c, 0, 62, 42
1, 5291, Control_c, 0, 64, 49
1, 5300, Note_on_c, 0, 57, 34
1, 5306, Control_c, 0, 64, 21
1, 5312, Note_on_c, 0, 61, 35
1, 5320, Control_c, 0, 64, 42
1, 5329, Note_off_c, 0, 58, 42
1, 5335, Control_c, 0, 64, 59
1, 5350, Control_c, 0, 64, 68
1, 5365, Control_c, 0, 64, 76
1, 5380, Control_c, 0, 64, 88
1, 5394, Control_c, 0, 64, 103
1, 5409, Control_c, 0, 64, 127
1, 5447, Note_on_c, 0, 70, 44
1, 5447, Note_off_c, 0, 65, 47
1, 5447, Note_off_c, 0, 61, 42
1, 5498, Note_off_c, 0, 70, 56
1, 5509, Note_on_c, 0, 69, 49
1, 5543, Note_off_c, 0, 57, 39
1, 5588, Control_c, 0, 64, 101
1, 5602, Note_off_c, 0, 69, 60
1, 5603, Control_c, 0, 64, 82
1, 5608, Note_on_c, 0, 64, 64
1, 5617, Control_c, 0, 64, 66
1, 5632, Control_c, 0, 64, 0
1, 5633, Note_on_c, 0, 58, 37
1, 5640, Note_on_c, 0, 55, 28
1, 5648, Note_on_c, 0, 62, 35
1, 5677, Control_c, 0, 64, 51
1, 5691, Control_c, 0, 64, 65
1, 5706, Control_c, 0, 64, 74
1, 5721, Control_c, 0, 64, 87
1, 5736, Control_c, 0, 64, 104
1, 5751, Control_c, 0, 64, 127
1, 5762, Note_off_c, 0, 58, 36
1, 5771, Note_off_c, 0, 55, 35
1, 5782, Note_off_c, 0, 62, 34
1, 5793, Note_off_c, 0, 64, 51
1, 5793, Note_on_c, 0, 70, 49
1, 5858, Note_off_c, 0, 70, 50
1, 5872, Note_on_c, 0, 69, 51
1, 5929, Control_c, 0, 64, 104
1, 5943, Control_c, 0, 64, 84
1, 5951, Note_off_c, 0, 69, 60
1, 5954, Note_on_c, 0, 65, 57
1, 5958, Control_c, 0, 64, 68
1, 5973, Control_c, 0, 64, 14
1, 5989, Note_on_c, 0, 57, 36
1, 5996, Control_c, 0, 64, 0
1, 6003, Note_on_c, 0, 61, 32
1, 6040, Control_c, 0, 64, 58
1, 6055, Control_c, 0, 64, 68
1, 6070, Control_c, 0, 64, 77
1, 6082, Note_off_c, 0, 57, 60
1, 6085, Control_c, 0, 64, 89
1, 6099, Control_c, 0, 64, 105
1, 6105, Note_off_c, 0, 61, 51
1, 6114, Control_c, 0, 64, 127
1, 6129, Control_c, 0, 67, 8
1, 6143, Control_c, 0, 67, 10
1, 6158, Control_c, 0, 67, 11
1, 6168, Note_on_c, 0, 70, 50
1, 6173, Control_c, 0, 67, 13
1, 6188, Control_c, 0, 67, 15
1, 6203, Control_c, 0, 67, 17
1, 6219, Control_c, 0, 67, 20
1, 6227, Note_off_c, 0, 65, 36
1, 6234, Control_c, 0, 67, 23
1, 6248, Control_c, 0, 67, 27
1, 6251, Note_on_c, 0, 69, 48
1, 6263, Control_c, 0, 67, 30
1, 6278, Control_c, 0, 67, 34
1, 6293, Control_c, 0, 67, 37
1, 6297, Note_off_c, 0, 70, 34
1, 6308, Control_c, 0, 67, 40
1, 6322, Control_c, 0, 64, 112
1, 6322, Control_c, 0, 67, 44
1, 6337, Control_c, 0, 64, 93
1, 6337, Control_c, 0, 67, 48
1, 6347, Note_on_c, 0, 66, 54
1, 6352, Control_c, 0, 64, 80
1, 6352, Control_c, 0, 67, 52
1, 6362, Note_on_c, 0, 52, 34
1, 6366, Control_c, 0, 64, 67
1, 6366, Control_c, 0, 67, 56
1, 6369, Note_off_c, 0, 69, 39
1, 6379, Note_on_c, 0, 58, 31
1, 6379, Note_on_c, 0, 62, 25
1, 6381, Control_c, 0, 64, 34
1, 6381, Control_c, 0, 67, 59
1, 6396, Control_c, 0, 64, 0
1, 6396, Control_c, 0, 67, 62
1, 6411, Control_c, 0, 67, 65
1, 6426, Control_c, 0, 67, 68
1, 6440, Control_c, 0, 67, 72
1, 6455, Control_c, 0, 64, 49
1, 6455, Control_c, 0, 67, 74
1, 6470, Control_c, 0, 64, 63
1, 6470, Control_c, 0, 67, 77
1, 6485, Control_c, 0, 64, 70
1, 6485, Control_c, 0, 67, 79
1, 6500, Control_c, 0, 64, 76
1, 6500, Control_c, 0, 67, 81
1, 6514, Control_c, 0, 64, 84
1, 6514, Control_c, 0, 67, 83
1, 6529, Note_off_c, 0, 52, 42
1, 6529, Control_c, 0, 64, 93
1, 6529, Control_c, 0, 67, 85
1, 6538, Note_off_c, 0, 58, 41
1, 6544, Control_c, 0, 64, 103
1, 6544, Control_c, 0, 67, 87
1, 6553, Note_off_c, 0, 62, 40
1, 6559, Control_c, 0, 64, 111
1, 6559, Control_c, 0, 67, 89
1, 6563, Note_on_c, 0, 70, 50
1, 6574, Control_c, 0, 64, 127
1, 6574, Control_c, 0, 67, 90
1, 6589, Control_c, 0, 67, 93
1, 6604, Control_c, 0, 67, 95
1, 6613, Note_off_c, 0, 66, 33
1, 6619, Control_c, 0, 67, 97
1, 6633, Control_c, 0, 67, 99
1, 6645, Note_on_c, 0, 69, 52
1, 6648, Control_c, 0, 67, 101
1, 6651, Note_off_c, 0, 70, 38
1, 6663, Control_c, 0, 67, 104
1, 6678, Control_c, 0, 67, 106
1, 6693, Control_c, 0, 67, 107
1, 6707, Control_c, 0, 67, 110
1, 6722, Control_c, 0, 67, 111
1, 6744, Control_c, 0, 67, 113
1, 6759, Control_c, 0, 67, 115
1, 6774, Control_c, 0, 64, 120
1, 6774, Control_c, 0, 67, 118
1, 6777, Note_off_c, 0, 69, 57
1, 6779, Note_on_c, 0, 67, 51
1, 6788, Control_c, 0, 64, 100
1, 6788, Control_c, 0, 67, 120
1, 6803, Control_c, 0, 64, 86
1, 6803, Control_c, 0, 67, 122
1, 6818, Control_c, 0, 64, 72
1, 6818, Control_c, 0, 67, 124
1, 6833, Control_c, 0, 64, 56
1, 6833, Control_c, 0, 67, 126
1, 6848, Control_c, 0, 64, 0
1, 6848, Control_c, 0, 67, 127
1, 6922, Control_c, 0, 64, 23
1, 6937, Control_c, 0, 64, 59
1, 6952, Control_c, 0, 64, 67
1, 6966, Control_c, 0, 64, 74
1, 6981, Control_c, 0, 64, 82
1, 6996, Control_c, 0, 64, 91
1, 7012, Control_c, 0, 64, 100
1, 7027, Control_c, 0, 64, 107
1, 7041, Note_on_c, 0, 70, 48
1, 7042, Control_c, 0, 64, 112
1, 7057, Control_c, 0, 64, 126
1, 7071, Control_c, 0, 64, 127
1, 7148, Note_on_c, 0, 69, 47
1, 7173, Note_off_c, 0, 67, 32
1, 7179, Note_off_c, 0, 70, 35
1, 7263, Control_c, 0, 64, 114
1, 7278, Control_c, 0, 64, 99
1, 7293, Control_c, 0, 64, 88
1, 7308, Control_c, 0, 64, 77
1, 7323, Control_c, 0, 64, 67
1, 7325, Note_off_c, 0, 69, 53
1, 7326, Note_on_c, 0, 68, 48
1, 7337, Control_c, 0, 64, 38
1, 7352, Control_c, 0, 64, 0
1, 7372, Note_on_c, 0, 61, 29
1, 7377, Note_on_c, 0, 57, 19
1, 7776, Note_on_c, 0, 70, 40
1, 7790, Note_off_c, 0, 68, 51
1, 8010, Note_off_c, 0, 70, 52
1, 8020, Note_on_c, 0, 69, 40
1, 8442, Note_on_c, 0, 50, 33
1, 8454, Note_off_c, 0, 57, 42
1, 8464, Note_off_c, 0, 61, 42
1, 8494, Control_c, 0, 64, 35
1, 8508, Control_c, 0, 64, 59
1, 8523, Control_c, 0, 64, 65
1, 8538, Control_c, 0, 64, 71
1, 8553, Control_c, 0, 64, 79
1, 8568, Control_c, 0, 64, 91
1, 8583, Control_c, 0, 64, 111
1, 8583, Control_c, 0, 67, 125
1, 8598, Control_c, 0, 64, 127
1, 8598, Control_c, 0, 67, 119
1, 8613, Control_c, 0, 67, 113
1, 8628, Control_c, 0, 67, 104
1, 8643, Control_c, 0, 67, 95
1, 8657, Control_c, 0, 67, 84
1, 8661, Note_off_c, 0, 50, 36
1, 8672, Control_c, 0, 67, 73
1, 8687, Control_c, 0, 67, 64
1, 8702, Control_c, 0, 67, 55
1, 8717, Control_c, 0, 67, 49
1, 8732, Control_c, 0, 67, 42
1, 8747, Control_c, 0, 67, 37
1, 8761, Control_c, 0, 67, 31
1, 8776, Control_c, 0, 67, 25
1, 8791, Control_c, 0, 67, 19
1, 8806, Control_c, 0, 67, 12
1, 8821, Control_c, 0, 67, 0
1, 8872, Note_on_c, 0, 70, 46
1, 8890, Note_off_c, 0, 69, 44
1, 9160, Note_on_c, 0, 69, 55
1, 9194, Note_on_c, 0, 65, 28
1, 9204, Note_off_c, 0, 70, 36
1, 9205, Note_on_c, 0, 57, 26
1, 9210, Note_on_c, 0, 62, 12
1, 9263, Note_off_c, 0, 65, 55
1, 9313, Note_off_c, 0, 62, 34
1, 9336, Note_off_c, 0, 57, 36
1, 9434, Note_on_c, 0, 67, 49
1, 9435, Note_off_c, 0, 69, 55
1, 9629, Control_c, 0, 64, 101
1, 9644, Control_c, 0, 64, 84
1, 9658, Control_c, 0, 64, 69
1, 9673, Control_c, 0, 64, 29
1, 9688, Control_c, 0, 64, 0
1, 9696, Note_on_c, 0, 45, 38
1, 9769, Control_c, 0, 64, 21
1, 9784, Control_c, 0, 64, 61
1, 9799, Control_c, 0, 64, 69
1, 9814, Control_c, 0, 64, 78
1, 9829, Control_c, 0, 64, 88
1, 9838, Note_off_c, 0, 45, 52
1, 9844, Control_c, 0, 64, 102
1, 9858, Control_c, 0, 64, 127
1, 9940, Note_on_c, 0, 65, 53
1, 9960, Note_off_c, 0, 67, 56
1, 10145, Note_on_c, 0, 57, 32
1, 10166, Note_on_c, 0, 64, 37
1, 10174, Note_on_c, 0, 60, 30
1, 10231, Note_off_c, 0, 64, 58
1, 10251, Note_off_c, 0, 60, 54
1, 10254, Note_off_c, 0, 57, 53
1, 10368, Note_on_c, 0, 67, 60
1, 10418, Note_off_c, 0, 65, 48
1, 10547, Control_c, 0, 64, 117
1, 10562, Control_c, 0, 64, 91
1, 10577, Control_c, 0, 64, 71
1, 10590, Note_on_c, 0, 69, 61
1, 10592, Control_c, 0, 64, 39
1, 10607, Control_c, 0, 64, 0
1, 10613, Note_on_c, 0, 48, 45
1, 10637, Note_off_c, 0, 67, 56
1, 10711, Control_c, 0, 64, 21
1, 10726, Control_c, 0, 64, 62
1, 10740, Control_c, 0, 64, 70
1, 10751, Note_off_c, 0, 48, 55
1, 10755, Control_c, 0, 64, 79
1, 10770, Control_c, 0, 64, 94
1, 10785, Control_c, 0, 64, 113
1, 10796, Note_on_c, 0, 70, 64
1, 10800, Note_off_c, 0, 69, 55
1, 10800, Control_c, 0, 64, 127
1, 11000, Note_on_c, 0, 69, 66
1, 11024, Note_on_c, 0, 62, 38
1, 11036, Note_on_c, 0, 58, 34
1, 11044, Note_on_c, 0, 52, 17
1, 11094, Note_off_c, 0, 70, 36
1, 11099, Note_off_c, 0, 58, 52
1, 11101, Note_off_c, 0, 62, 54
1, 11126, Control_c, 0, 67, 8
1, 11141, Control_c, 0, 67, 9
1, 11153, Note_off_c, 0, 52, 46
1, 11155, Control_c, 0, 67, 9
1, 11170, Control_c, 0, 67, 10
1, 11185, Control_c, 0, 67, 11
1, 11212, Note_on_c, 0, 67, 61
1, 11215, Control_c, 0, 67, 11
1, 11223, Note_off_c, 0, 69, 58
1, 11237, Control_c, 0, 67, 12
1, 11267, Control_c, 0, 67, 12
1, 11282, Control_c, 0, 67, 13
1, 11297, Control_c, 0, 64, 102
1, 11297, Control_c, 0, 67, 14
1, 11311, Control_c, 0, 64, 85
1, 11311, Control_c, 0, 67, 15
1, 11326, Control_c, 0, 64, 72
1, 11326, Control_c, 0, 67, 16
1, 11341, Control_c, 0, 64, 36
1, 11355, Control_c, 0, 64, 0
1, 11355, Control_c, 0, 67, 16
1, 11441, Note_on_c, 0, 41, 41
1, 11474, Control_c, 0, 67, 16
1, 11504, Control_c, 0, 67, 15
1, 11519, Control_c, 0, 64, 50
1, 11519, Control_c, 0, 67, 14
1, 11534, Control_c, 0, 64, 65
1, 11534, Control_c, 0, 67, 14
1, 11549, Control_c, 0, 64, 72
1, 11549, Control_c, 0, 67, 13
1, 11563, Control_c, 0, 64, 80
1, 11563, Control_c, 0, 67, 13
1, 11576, Note_off_c, 0, 41, 47
1, 11578, Control_c, 0, 64, 89
1, 11578, Control_c, 0, 67, 12
1, 11593, Control_c, 0, 64, 100
1, 11593, Control_c, 0, 67, 12
1, 11608, Control_c, 0, 64, 116
1, 11608, Control_c, 0, 67, 11
1, 11623, Control_c, 0, 64, 127
1, 11623, Control_c, 0, 67, 10
1, 11637, Control_c, 0, 67, 9
1, 11652, Control_c, 0, 67, 9
1, 11667, Control_c, 0, 67, 8
1, 11670, Note_on_c, 0, 65, 53
1, 11681, Control_c, 0, 67, 8
1, 11694, Note_off_c, 0, 67, 59
1, 11696, Control_c, 0, 67, 0
1, 11911, Note_on_c, 0, 53, 31
1, 11914, Note_on_c, 0, 60, 31
1, 11922, Note_on_c, 0, 57, 31
1, 11996, Note_off_c, 0, 60, 59
1, 11997, Note_off_c, 0, 57, 55
1, 12014, Note_off_c, 0, 53, 56
1, 12132, Note_on_c, 0, 67, 51
1, 12171, Note_off_c, 0, 65, 51
1, 12372, Control_c, 0, 64, 118
1, 12386, Control_c, 0, 64, 91
1, 12393, Note_on_c, 0, 69, 57
1, 12401, Control_c, 0, 64, 75
1, 12408, Note_off_c, 0, 67, 49
1, 12416, Control_c, 0, 64, 61
1, 12430, Note_on_c, 0, 43, 39
1, 12431, Control_c, 0, 64, 0
1, 12490, Control_c, 0, 67, 8
1, 12519, Control_c, 0, 64, 47
1, 12534, Control_c, 0, 64, 66
1, 12549, Control_c, 0, 64, 75
1, 12564, Control_c, 0, 64, 89
1, 12578, Control_c, 0, 64, 106
1, 12580, Note_off_c, 0, 43, 47
1, 12593, Control_c, 0, 64, 127
1, 12593, Control_c, 0, 67, 8
1, 12615, Note_off_c, 0, 69, 62
1, 12624, Note_on_c, 0, 72, 62
1, 12654, Control_c, 0, 67, 9
1, 12683, Control_c, 0, 67, 10
1, 12698, Control_c, 0, 67, 11
1, 12713, Control_c, 0, 67, 12
1, 12735, Control_c, 0, 67, 14
1, 12750, Control_c, 0, 67, 15
1, 12765, Control_c, 0, 67, 16
1, 12780, Control_c, 0, 67, 17
1, 12795, Control_c, 0, 67, 18
1, 12809, Control_c, 0, 67, 19
1, 12824, Control_c, 0, 67, 21
1, 12839, Control_c, 0, 64, 101
1, 12839, Control_c, 0, 67, 22
1, 12851, Note_on_c, 0, 74, 70
1, 12854, Control_c, 0, 64, 79
1, 12854, Control_c, 0, 67, 24
1, 12869, Control_c, 0, 64, 65
1, 12869, Control_c, 0, 67, 26
1, 12871, Note_off_c, 0, 72, 51
1, 12883, Note_on_c, 0, 65, 44
1, 12883, Control_c, 0, 64, 0
1, 12883, Control_c, 0, 67, 29
1, 12888, Note_on_c, 0, 69, 33
1, 12892, Note_on_c, 0, 59, 38
1, 12897, Note_on_c, 0, 55, 22
1, 12898, Control_c, 0, 67, 31
1, 12913, Control_c, 0, 67, 33
1, 12927, Control_c, 0, 64, 29
1, 12927, Control_c, 0, 67, 36
1, 12942, Control_c, 0, 64, 61
1, 12942, Control_c, 0, 67, 37
1, 12957, Control_c, 0, 64, 70
1, 12957, Control_c, 0, 67, 40
1, 12965, Note_off_c, 0, 59, 52
1, 12972, Control_c, 0, 64, 80
1, 12972, Control_c, 0, 67, 42
1, 12987, Control_c, 0, 64, 93
1, 12987, Control_c, 0, 67, 45
1, 13001, Control_c, 0, 64, 111
1, 13001, Control_c, 0, 67, 47
1, 13016, Control_c, 0, 64, 127
1, 13016, Control_c, 0, 67, 50
1, 13031, Control_c, 0, 67, 52
1, 13036, Note_off_c, 0, 55, 34
1, 13046, Control_c, 0, 67, 54
1, 13048, Note_off_c, 0, 74, 50
1, 13061, Control_c, 0, 67, 57
1, 13075, Control_c, 0, 67, 60
1, 13087, Note_off_c, 0, 65, 38
1, 13090, Control_c, 0, 67, 63
1, 13105, Control_c, 0, 67, 65
1, 13119, Note_off_c, 0, 69, 33
1, 13120, Control_c, 0, 67, 68
1, 13135, Control_c, 0, 67, 71
1, 13150, Control_c, 0, 67, 72
1, 13165, Control_c, 0, 67, 74
1, 13180, Control_c, 0, 67, 75
1, 13194, Control_c, 0, 67, 77
1, 13209, Control_c, 0, 67, 79
1, 13224, Control_c, 0, 67, 80
1, 13239, Control_c, 0, 67, 82
1, 13254, Control_c, 0, 67, 83
1, 13269, Control_c, 0, 67, 85
1, 13283, Control_c, 0, 67, 87
1, 13298, Control_c, 0, 67, 90
1, 13313, Note_on_c, 0, 74, 72
1, 13313, Control_c, 0, 64, 102
1, 13313, Control_c, 0, 67, 94
1, 13327, Control_c, 0, 64, 81
1, 13327, Control_c, 0, 67, 96
1, 13342, Control_c, 0, 64, 67
1, 13342, Control_c, 0, 67, 98
1, 13345, Note_on_c, 0, 65, 43
1, 13346, Note_on_c, 0, 45, 41
1, 13357, Control_c, 0, 64, 11
1, 13357, Control_c, 0, 67, 100
1, 13358, Note_on_c, 0, 69, 31
1, 13372, Control_c, 0, 64, 0
1, 13372, Control_c, 0, 67, 102
1, 13387, Control_c, 0, 67, 104
1, 13403, Control_c, 0, 64, 46
1, 13403, Control_c, 0, 67, 106
1, 13418, Control_c, 0, 64, 63
1, 13418, Control_c, 0, 67, 108
1, 13432, Control_c, 0, 64, 72
1, 13432, Control_c, 0, 67, 109
1, 13447, Note_off_c, 0, 45, 57
1, 13447, Control_c, 0, 64, 81
1, 13447, Control_c, 0, 67, 110
1, 13462, Control_c, 0, 64, 94
1, 13462, Control_c, 0, 67, 112
1, 13484, Control_c, 0, 64, 113
1, 13484, Control_c, 0, 67, 113
1, 13499, Control_c, 0, 64, 127
1, 13499, Control_c, 0, 67, 115
1, 13513, Control_c, 0, 67, 116
1, 13528, Control_c, 0, 67, 118
1, 13543, Control_c, 0, 67, 121
1, 13555, Note_off_c, 0, 65, 39
1, 13558, Control_c, 0, 67, 123
1, 13558, Note_off_c, 0, 69, 44
1, 13573, Control_c, 0, 67, 126
1, 13576, Note_off_c, 0, 74, 55
1, 13588, Control_c, 0, 67, 127
1, 13780, Control_c, 0, 64, 111
1, 13795, Control_c, 0, 64, 91
1, 13797, Note_on_c, 0, 73, 66
1, 13810, Control_c, 0, 64, 75
1, 13824, Note_on_c, 0, 64, 42
1, 13825, Control_c, 0, 64, 62
1, 13826, Note_on_c, 0, 69, 39
1, 13835, Note_on_c, 0, 61, 40
1, 13835, Note_on_c, 0, 57, 34
1, 13840, Control_c, 0, 64, 0
1, 13900, Control_c, 0, 64, 29
1, 13914, Control_c, 0, 64, 60
1, 13929, Control_c, 0, 64, 68
1, 13940, Note_off_c, 0, 61, 52
1, 13944, Control_c, 0, 64, 76
1, 13958, Control_c, 0, 64, 86
1, 13968, Note_off_c, 0, 57, 58
1, 13973, Control_c, 0, 64, 100
1, 13988, Control_c, 0, 64, 122
1, 14003, Control_c, 0, 64, 127
1, 14020, Note_off_c, 0, 64, 37
1, 14028, Note_off_c, 0, 69, 34
1, 14071, Note_off_c, 0, 73, 55
1, 14350, Note_on_c, 0, 74, 55
1, 14366, Control_c, 0, 64, 107
1, 14373, Note_on_c, 0, 69, 43
1, 14375, Note_on_c, 0, 65, 39
1, 14380, Note_on_c, 0, 45, 41
1, 14380, Control_c, 0, 64, 86
1, 14383, Note_on_c, 0, 38, 38
1, 14395, Control_c, 0, 64, 71
1, 14410, Control_c, 0, 64, 40
1, 14425, Control_c, 0, 64, 0
1, 14498, Control_c, 0, 64, 39
1, 14513, Control_c, 0, 64, 64
1, 14528, Control_c, 0, 64, 71
1, 14543, Control_c, 0, 64, 80
1, 14552, Note_off_c, 0, 38, 52
1, 14558, Control_c, 0, 64, 92
1, 14569, Note_off_c, 0, 45, 40
1, 14573, Control_c, 0, 64, 113
1, 14587, Control_c, 0, 64, 127
1, 14806, Note_off_c, 0, 69, 37
1, 14809, Note_off_c, 0, 65, 35
1, 14923, Note_on_c, 0, 62, 35
1, 14924, Note_on_c, 0, 53, 36
1, 14924, Note_on_c, 0, 57, 35
1, 15168, Note_on_c, 0, 72, 47
1, 15274, Note_on_c, 0, 70, 51
1, 15274, Note_off_c, 0, 72, 46
1, 15281, Note_off_c, 0, 74, 31
1, 15371, Note_off_c, 0, 62, 36
1, 15372, Note_off_c, 0, 70, 57
1, 15400, Note_on_c, 0, 69, 56
1, 15482, Note_off_c, 0, 57, 60
1, 15512, Note_off_c, 0, 53, 55
1, 15635, Note_on_c, 0, 67, 67
1, 15648, Control_c, 0, 67, 125
1, 15654, Note_off_c, 0, 69, 52
1, 15663, Control_c, 0, 67, 122
1, 15678, Control_c, 0, 67, 119
1, 15692, Control_c, 0, 67, 115
1, 15707, Control_c, 0, 67, 111
1, 15729, Control_c, 0, 67, 109
1, 15737, Note_on_c, 0, 65, 66
1, 15744, Control_c, 0, 67, 106
1, 15759, Control_c, 0, 67, 102
1, 15774, Control_c, 0, 67, 97
1, 15789, Control_c, 0, 67, 91
1, 15805, Control_c, 0, 67, 85
1, 15820, Control_c, 0, 67, 75
1, 15834, Control_c, 0, 64, 104
1, 15834, Control_c, 0, 67, 65
1, 15841, Note_off_c, 0, 67, 38
1, 15849, Control_c, 0, 64, 88
1, 15849, Control_c, 0, 67, 53
1, 15864, Control_c, 0, 64, 74
1, 15864, Control_c, 0, 67, 43
1, 15866, Note_on_c, 0, 64, 66
1, 15879, Control_c, 0, 64, 59
1, 15879, Control_c, 0, 67, 34
1, 15892, Note_on_c, 0, 45, 49
1, 15894, Control_c, 0, 64, 0
1, 15894, Control_c, 0, 67, 24
1, 15902, Note_off_c, 0, 65, 61
1, 15908, Control_c, 0, 67, 12
1, 15923, Control_c, 0, 67, 0
1, 16136, Note_on_c, 0, 65, 65
1, 16151, Note_off_c, 0, 64, 64
1, 16266, Note_on_c, 0, 64, 62
1, 16348, Note_off_c, 0, 65, 46
1, 16451, Note_on_c, 0, 62, 59
1, 16475, Note_off_c, 0, 45, 58
1, 16483, Note_off_c, 0, 64, 61
1, 16501, Note_on_c, 0, 38, 38
1, 16582, Control_c, 0, 64, 11
1, 16598, Control_c, 0, 64, 60
1, 16613, Control_c, 0, 64, 67
1, 16628, Control_c, 0, 64, 73
1, 16643, Control_c, 0, 64, 79
1, 16657, Control_c, 0, 64, 92
1, 16672, Control_c, 0, 64, 114
1, 16687, Control_c, 0, 64, 127
1, 16736, Note_off_c, 0, 38, 41
1, 16760, Note_on_c, 0, 64, 60
1, 16792, Note_off_c, 0, 62, 58
1, 16976, Note_on_c, 0, 62, 59
1, 17000, Note_on_c, 0, 50, 41
1, 17004, Note_on_c, 0, 53, 44
1, 17040, Note_off_c, 0, 64, 49
1, 17091, Note_off_c, 0, 53, 53
1, 17131, Note_off_c, 0, 50, 60
1, 17192, Note_on_c, 0, 60, 58
1, 17210, Note_off_c, 0, 62, 52
1, 17361, Control_c, 0, 64, 92
1, 17375, Control_c, 0, 64, 72
1, 17390, Control_c, 0, 64, 0
1, 17415, Note_on_c, 0, 40, 50
1, 17495, Control_c, 0, 64, 50
1, 17510, Control_c, 0, 64, 68
1, 17524, Control_c, 0, 64, 77
1, 17539, Control_c, 0, 64, 92
1, 17550, Note_off_c, 0, 40, 60
1, 17554, Control_c, 0, 64, 127
1, 17630, Note_on_c, 0, 58, 71
1, 17683, Note_off_c, 0, 60, 61
1, 17824, Note_on_c, 0, 50, 54
1, 17830, Note_on_c, 0, 55, 51
1, 17920, Note_off_c, 0, 55, 58
1, 17939, Note_off_c, 0, 50, 61
1, 18035, Note_on_c, 0, 60, 72
1, 18075, Note_off_c, 0, 58, 54
1, 18229, Control_c, 0, 64, 91
1, 18235, Note_on_c, 0, 62, 68
1, 18244, Control_c, 0, 64, 69
1, 18248, Note_on_c, 0, 41, 53
1, 18259, Control_c, 0, 64, 0
1, 18306, Note_off_c, 0, 60, 56
1, 18432, Note_on_c, 0, 64, 69
1, 18451, Note_off_c, 0, 62, 59
1, 18638, Note_on_c, 0, 62, 63
1, 18659, Note_on_c, 0, 50, 42
1, 18663, Note_on_c, 0, 57, 38
1, 18692, Note_off_c, 0, 64, 57
1, 18784, Control_c, 0, 64, 57
1, 18799, Control_c, 0, 64, 68
1, 18814, Control_c, 0, 64, 79
1, 18828, Control_c, 0, 64, 107
1, 18834, Note_off_c, 0, 57, 53
1, 18843, Control_c, 0, 64, 127
1, 18845, Note_off_c, 0, 41, 52
1, 18861, Note_on_c, 0, 61, 70
1, 18864, Note_off_c, 0, 62, 54
1, 18905, Note_off_c, 0, 50, 33
1, 19052, Control_c, 0, 64, 99
1, 19067, Control_c, 0, 64, 82
1, 19082, Control_c, 0, 64, 67
1, 19085, Note_on_c, 0, 43, 43
1, 19096, Control_c, 0, 64, 0
1, 19343, Note_on_c, 0, 62, 54
1, 19381, Note_off_c, 0, 61, 61
1, 19632, Note_on_c, 0, 50, 34
1, 19639, Note_on_c, 0, 58, 35
1, 19830, Control_c, 0, 64, 58
1, 19845, Control_c, 0, 64, 66
1, 19860, Control_c, 0, 64, 71
1, 19875, Control_c, 0, 64, 77
1, 19890, Control_c, 0, 64, 88
1, 19890, Note_on_c, 0, 64, 51
1, 19904, Control_c, 0, 64, 102
1, 19919, Control_c, 0, 64, 127
1, 19946, Note_off_c, 0, 43, 38
1, 19955, Note_off_c, 0, 62, 43
1, 19997, Note_off_c, 0, 50, 59
1, 20028, Note_off_c, 0, 58, 46
1, 20111, Note_on_c, 0, 65, 63
1, 20112, Control_c, 0, 64, 112
1, 20126, Control_c, 0, 64, 85
1, 20141, Control_c, 0, 64, 66
1, 20156, Control_c, 0, 64, 0
1, 20160, Note_off_c, 0, 64, 61
1, 20268, Control_c, 0, 64, 59
1, 20282, Control_c, 0, 64, 68
1, 20297, Control_c, 0, 64, 77
1, 20312, Control_c, 0, 64, 90
1, 20323, Note_on_c, 0, 69, 67
1, 20326, Control_c, 0, 64, 118
1, 20337, Note_off_c, 0, 65, 58
1, 20341, Control_c, 0, 64, 127
1, 20399, Note_off_c, 0, 69, 63
1, 20563, Control_c, 0, 64, 107
1, 20572, Note_on_c, 0, 70, 71
1, 20578, Control_c, 0, 64, 85
1, 20594, Control_c, 0, 64, 68
1, 20605, Note_on_c, 0, 55, 41
1, 20609, Control_c, 0, 64, 0
1, 20612, Note_on_c, 0, 62, 38
1, 20613, Note_on_c, 0, 65, 35
1, 20683, Control_c, 0, 64, 55
1, 20697, Control_c, 0, 64, 67
1, 20712, Control_c, 0, 64, 76
1, 20727, Control_c, 0, 64, 86
1, 20742, Control_c, 0, 64, 104
1, 20757, Control_c, 0, 64, 127
1, 20788, Note_off_c, 0, 70, 58
1, 20797, Note_off_c, 0, 65, 53
1, 20823, Note_off_c, 0, 62, 40
1, 20863, Note_off_c, 0, 55, 40
1, 21031, Control_c, 0, 64, 106
1, 21045, Note_on_c, 0, 70, 54
1, 21046, Control_c, 0, 64, 86
1, 21061, Control_c, 0, 64, 70
1, 21067, Note_on_c, 0, 62, 35
1, 21067, Note_on_c, 0, 64, 44
1, 21073, Note_on_c, 0, 48, 36
1, 21076, Control_c, 0, 64, 0
1, 21150, Control_c, 0, 64, 45
1, 21165, Control_c, 0, 64, 64
1, 21180, Control_c, 0, 64, 72
1, 21195, Control_c, 0, 64, 79
1, 21210, Control_c, 0, 64, 89
1, 21224, Control_c, 0, 64, 104
1, 21239, Control_c, 0, 64, 127
1, 21260, Note_off_c, 0, 48, 38
1, 21264, Note_off_c, 0, 62, 40
1, 21271, Note_off_c, 0, 64, 36
1, 21298, Note_off_c, 0, 70, 37
1, 21536, Control_c, 0, 64, 107
1, 21547, Note_on_c, 0, 69, 47
1, 21551, Control_c, 0, 64, 88
1, 21565, Control_c, 0, 64, 73
1, 21568, Note_on_c, 0, 60, 34
1, 21568, Note_on_c, 0, 66, 41
1, 21572, Note_on_c, 0, 50, 30
1, 21580, Control_c, 0, 64, 56
1, 21595, Control_c, 0, 64, 0
1, 21684, Control_c, 0, 64, 35
1, 21699, Control_c, 0, 64, 63
1, 21720, Control_c, 0, 64, 70
1, 21735, Control_c, 0, 64, 76
1, 21750, Control_c, 0, 64, 84
1, 21765, Control_c, 0, 64, 95
1, 21779, Control_c, 0, 64, 109
1, 21794, Control_c, 0, 64, 127
1, 21806, Note_off_c, 0, 50, 46
1, 21874, Note_off_c, 0, 66, 40
1, 21934, Note_off_c, 0, 60, 40
1, 22179, Note_on_c, 0, 67, 48
1, 22179, Control_c, 0, 64, 123
1, 22195, Control_c, 0, 64, 96
1, 22210, Control_c, 0, 64, 79
1, 22218, Note_on_c, 0, 43, 34
1, 22225, Control_c, 0, 64, 63
1, 22240, Control_c, 0, 64, 0
1, 22246, Note_off_c, 0, 69, 38
1, 22299, Control_c, 0, 67, 8
1, 22313, Control_c, 0, 67, 10
1, 22328, Control_c, 0, 67, 12
1, 22343, Control_c, 0, 67, 15
1, 22358, Control_c, 0, 67, 17
1, 22373, Control_c, 0, 67, 20
1, 22388, Control_c, 0, 67, 24
1, 22402, Control_c, 0, 67, 29
1, 22417, Control_c, 0, 67, 33
1, 22432, Control_c, 0, 67, 37
1, 22447, Control_c, 0, 67, 41
1, 22469, Control_c, 0, 64, 38
1, 22469, Control_c, 0, 67, 45
1, 22484, Control_c, 0, 64, 59
1, 22484, Control_c, 0, 67, 49
1, 22499, Control_c, 0, 64, 65
1, 22499, Control_c, 0, 67, 52
1, 22513, Control_c, 0, 64, 69
1, 22513, Control_c, 0, 67, 56
1, 22528, Control_c, 0, 64, 74
1, 22528, Control_c, 0, 67, 60
1, 22543, Control_c, 0, 64, 80
1, 22543, Control_c, 0, 67, 63
1, 22558, Control_c, 0, 64, 87
1, 22558, Control_c, 0, 67, 66
1, 22573, Control_c, 0, 64, 95
1, 22573, Control_c, 0, 67, 69
1, 22587, Control_c, 0, 64, 107
1, 22587, Control_c, 0, 67, 72
1, 22602, Control_c, 0, 64, 127
1, 22602, Control_c, 0, 67, 76
1, 22617, Control_c, 0, 67, 79
1, 22632, Control_c, 0, 67, 82
1, 22647, Control_c, 0, 67, 85
1, 22662, Control_c, 0, 67, 89
1, 22677, Control_c, 0, 67, 92
1, 22692, Control_c, 0, 67, 94
1, 22706, Control_c, 0, 67, 98
1, 22721, Control_c, 0, 67, 102
1, 22736, Control_c, 0, 67, 105
1, 22751, Control_c, 0, 67, 109
1, 22766, Control_c, 0, 67, 112
1, 22781, Control_c, 0, 67, 116
1, 22795, Control_c, 0, 67, 120
1, 22810, Control_c, 0, 67, 124
1, 22825, Control_c, 0, 67, 127
1, 22837, Note_on_c, 0, 58, 34
1, 22838, Note_on_c, 0, 50, 33
1, 22936, Note_off_c, 0, 43, 40
1, 22965, Note_off_c, 0, 50, 52
1, 22990, Note_off_c, 0, 58, 36
1, 23170, Note_on_c, 0, 65, 39
1, 23256, Note_off_c, 0, 67, 36
1, 23291, Note_on_c, 0, 64, 46
1, 23325, Note_off_c, 0, 65, 48
1, 23336, Control_c, 0, 64, 118
1, 23351, Control_c, 0, 64, 97
1, 23366, Control_c, 0, 64, 82
1, 23381, Control_c, 0, 64, 69
1, 23396, Control_c, 0, 64, 44
1, 23407, Note_off_c, 0, 64, 60
1, 23410, Control_c, 0, 64, 0
1, 23416, Note_on_c, 0, 62, 44
1, 23636, Note_on_c, 0, 64, 48
1, 23636, Note_off_c, 0, 62, 51
1, 23718, Note_off_c, 0, 64, 64
1, 23723, Note_on_c, 0, 65, 55
1, 23789, Note_off_c, 0, 65, 64
1, 23815, Note_on_c, 0, 64, 58
1, 23830, Note_on_c, 0, 50, 39
1, 23831, Note_on_c, 0, 60, 38
1, 23900, Control_c, 0, 64, 57
1, 23905, Note_off_c, 0, 50, 63
1, 23915, Control_c, 0, 64, 67
1, 23930, Control_c, 0, 64, 74
1, 23945, Control_c, 0, 64, 84
1, 23967, Control_c, 0, 64, 100
1, 23982, Control_c, 0, 64, 127
1, 24045, Note_on_c, 0, 66, 55
1, 24082, Note_off_c, 0, 64, 52
1, 24122, Note_on_c, 0, 69, 57
1, 24122, Note_off_c, 0, 66, 60
1, 24175, Control_c, 0, 64, 88
1, 24190, Control_c, 0, 64, 68
1, 24200, Note_off_c, 0, 60, 51
1, 24205, Control_c, 0, 64, 0
1, 24222, Note_on_c, 0, 55, 41
1, 24227, Note_on_c, 0, 58, 44
1, 24231, Note_on_c, 0, 67, 55
1, 24245, Note_off_c, 0, 69, 49
1, 24288, Note_off_c, 0, 55, 62
1, 24298, Note_off_c, 0, 58, 62
1, 24308, Control_c, 0, 64, 54
1, 24323, Control_c, 0, 64, 69
1, 24338, Control_c, 0, 64, 80
1, 24353, Control_c, 0, 64, 95
1, 24367, Control_c, 0, 64, 127
1, 24429, Note_on_c, 0, 65, 54
1, 24452, Note_off_c, 0, 67, 56
1, 24499, Note_off_c, 0, 65, 62
1, 24504, Note_on_c, 0, 64, 59
1, 24531, Control_c, 0, 64, 106
1, 24546, Control_c, 0, 64, 81
1, 24558, Note_off_c, 0, 64, 61
1, 24560, Control_c, 0, 64, 64
1, 24575, Control_c, 0, 64, 0
1, 24576, Note_on_c, 0, 62, 65
1, 24770, Note_on_c, 0, 64, 59
1, 24850, Note_on_c, 0, 65, 62
1, 24851, Note_off_c, 0, 64, 64
1, 24890, Note_off_c, 0, 65, 63
1, 24932, Note_on_c, 0, 61, 64
1, 24940, Note_on_c, 0, 64, 61
1, 24959, Note_off_c, 0, 62, 60
1, 25112, Note_on_c, 0, 66, 53
1, 25163, Note_off_c, 0, 66, 61
1, 25189, Note_on_c, 0, 67, 55
1, 25237, Note_off_c, 0, 67, 57
1, 25282, Note_off_c, 0, 61, 57
1, 25287, Note_on_c, 0, 60, 56
1, 25287, Note_on_c, 0, 66, 58
1, 25288, Note_off_c, 0, 64, 50
1, 25479, Note_on_c, 0, 67, 48
1, 25559, Note_on_c, 0, 69, 58
1, 25569, Note_off_c, 0, 67, 57
1, 25631, Note_off_c, 0, 69, 62
1, 25653, Note_off_c, 0, 66, 58
1, 25670, Note_on_c, 0, 58, 46
1, 25689, Note_on_c, 0, 67, 55
1, 25710, Note_off_c, 0, 60, 58
1, 25777, Control_c, 0, 64, 53
1, 25792, Control_c, 0, 64, 69
1, 25807, Control_c, 0, 64, 78
1, 25808, Note_off_c, 0, 67, 58
1, 25821, Control_c, 0, 64, 92
1, 25836, Control_c, 0, 64, 113
1, 25851, Control_c, 0, 64, 127
1, 25856, Note_off_c, 0, 58, 38
1, 25906, Note_on_c, 0, 65, 59
1, 25962, Note_off_c, 0, 65, 58
1, 25982, Note_on_c, 0, 64, 61
1, 26028, Control_c, 0, 64, 97
1, 26042, Note_off_c, 0, 64, 62
1, 26043, Control_c, 0, 64, 80
1, 26057, Control_c, 0, 64, 65
1, 26066, Note_on_c, 0, 62, 68
1, 26072, Control_c, 0, 64, 0
1, 26255, Note_on_c, 0, 64, 66
1, 26338, Note_on_c, 0, 65, 66
1, 26340, Note_off_c, 0, 64, 64
1, 26378, Note_off_c, 0, 65, 63
1, 26408, Note_on_c, 0, 61, 71
1, 26415, Note_on_c, 0, 64, 66
1, 26453, Note_off_c, 0, 62, 61
1, 26579, Note_on_c, 0, 66, 56
1, 26652, Note_off_c, 0, 66, 62
1, 26653, Note_on_c, 0, 67, 66
1, 26717, Note_off_c, 0, 67, 59
1, 26734, Note_on_c, 0, 60, 60
1, 26743, Note_on_c, 0, 66, 64
1, 26744, Note_off_c, 0, 61, 57
1, 26748, Note_off_c, 0, 64, 52
1, 26865, Control_c, 0, 67, 125
1, 26880, Control_c, 0, 67, 120
1, 26895, Control_c, 0, 67, 115
1, 26910, Control_c, 0, 67, 109
1, 26924, Control_c, 0, 64, 37
1, 26924, Control_c, 0, 67, 102
1, 26930, Note_on_c, 0, 67, 56
1, 26939, Control_c, 0, 64, 63
1, 26939, Control_c, 0, 67, 95
1, 26960, Control_c, 0, 64, 69
1, 26960, Control_c, 0, 67, 88
1, 26975, Control_c, 0, 64, 75
1, 26975, Control_c, 0, 67, 81
1, 26991, Control_c, 0, 64, 83
1, 26991, Control_c, 0, 67, 75
1, 27006, Control_c, 0, 64, 92
1, 27006, Control_c, 0, 67, 71
1, 27021, Control_c, 0, 64, 101
1, 27021, Control_c, 0, 67, 68
1, 27025, Note_off_c, 0, 67, 60
1, 27026, Note_on_c, 0, 69, 56
1, 27035, Control_c, 0, 64, 103
1, 27035, Control_c, 0, 67, 64
1, 27050, Control_c, 0, 64, 104
1, 27050, Control_c, 0, 67, 61
1, 27058, Note_off_c, 0, 69, 65
1, 27065, Control_c, 0, 67, 59
1, 27080, Control_c, 0, 67, 57
1, 27095, Control_c, 0, 67, 54
1, 27109, Control_c, 0, 67, 52
1, 27124, Control_c, 0, 64, 103
1, 27124, Control_c, 0, 67, 49
1, 27139, Control_c, 0, 64, 98
1, 27139, Control_c, 0, 67, 46
1, 27154, Control_c, 0, 64, 90
1, 27154, Control_c, 0, 67, 43
1, 27169, Control_c, 0, 64, 79
1, 27169, Control_c, 0, 67, 40
1, 27181, Note_off_c, 0, 66, 57
1, 27184, Control_c, 0, 64, 67
1, 27184, Control_c, 0, 67, 36
1, 27197, Note_on_c, 0, 58, 54
1, 27199, Control_c, 0, 64, 0
1, 27199, Control_c, 0, 67, 32
1, 27199, Note_off_c, 0, 60, 57
1, 27200, Note_on_c, 0, 67, 52
1, 27214, Control_c, 0, 67, 28
1, 27229, Control_c, 0, 67, 23
1, 27243, Control_c, 0, 67, 18
1, 27258, Control_c, 0, 67, 12
1, 27273, Control_c, 0, 67, 0
1, 27317, Control_c, 0, 64, 46
1, 27332, Control_c, 0, 64, 64
1, 27347, Control_c, 0, 64, 71
1, 27362, Control_c, 0, 64, 78
1, 27376, Control_c, 0, 64, 88
1, 27391, Control_c, 0, 64, 102
1, 27392, Note_off_c, 0, 58, 62
1, 27406, Control_c, 0, 64, 127
1, 27446, Note_off_c, 0, 67, 58
1, 27450, Note_on_c, 0, 81, 61
1, 27527, Note_on_c, 0, 79, 66
1, 27544, Note_off_c, 0, 81, 64
1, 27588, Note_off_c, 0, 79, 60
1, 27598, Control_c, 0, 64, 105
1, 27613, Control_c, 0, 64, 80
1, 27628, Control_c, 0, 64, 60
1, 27631, Note_on_c, 0, 70, 66
1, 27640, Note_on_c, 0, 64, 57
1, 27643, Control_c, 0, 64, 0
1, 27647, Note_on_c, 0, 60, 50
1, 27710, Control_c, 0, 64, 55
1, 27725, Control_c, 0, 64, 68
1, 27740, Control_c, 0, 64, 77
1, 27755, Control_c, 0, 64, 88
1, 27770, Control_c, 0, 64, 103
1, 27786, Control_c, 0, 64, 127
1, 27815, Note_on_c, 0, 74, 67
1, 27845, Note_off_c, 0, 60, 38
1, 27856, Note_off_c, 0, 74, 60
1, 27870, Note_off_c, 0, 70, 60
1, 27881, Note_on_c, 0, 72, 65
1, 27887, Note_off_c, 0, 64, 38
1, 27948, Control_c, 0, 64, 93
1, 27958, Note_off_c, 0, 72, 61
1, 27963, Control_c, 0, 64, 71
1, 27965, Note_on_c, 0, 69, 67
1, 27978, Note_on_c, 0, 65, 59
1, 27978, Control_c, 0, 64, 0
1, 28007, Control_c, 0, 64, 33
1, 28022, Control_c, 0, 64, 64
1, 28037, Control_c, 0, 64, 75
1, 28051, Control_c, 0, 64, 92
1, 28063, Note_off_c, 0, 65, 63
1, 28066, Control_c, 0, 64, 127
1, 28113, Note_off_c, 0, 69, 60
1, 28120, Note_on_c, 0, 82, 81
1, 28190, Note_on_c, 0, 81, 75
1, 28239, Note_off_c, 0, 82, 63
1, 28250, Note_off_c, 0, 81, 58
1, 28259, Control_c, 0, 64, 98
1, 28274, Control_c, 0, 64, 73
1, 28278, Note_on_c, 0, 72, 69
1, 28288, Note_on_c, 0, 66, 64
1, 28289, Control_c, 0, 64, 0
1, 28291, Note_on_c, 0, 62, 52
1, 28348, Control_c, 0, 64, 60
1, 28363, Control_c, 0, 64, 72
1, 28378, Control_c, 0, 64, 88
1, 28393, Control_c, 0, 64, 126
1, 28395, Note_off_c, 0, 62, 60
1, 28401, Note_off_c, 0, 66, 60
1, 28407, Control_c, 0, 64, 127
1, 28443, Note_on_c, 0, 75, 70
1, 28505, Note_off_c, 0, 72, 59
1, 28512, Note_off_c, 0, 75, 62
1, 28518, Note_on_c, 0, 74, 79
1, 28597, Note_off_c, 0, 74, 54
1, 28608, Control_c, 0, 64, 108
1, 28622, Note_on_c, 0, 67, 68
1, 28623, Note_on_c, 0, 70, 69
1, 28623, Control_c, 0, 64, 81
1, 28637, Control_c, 0, 64, 47
1, 28652, Control_c, 0, 64, 0
1, 28711, Control_c, 0, 64, 62
1, 28726, Control_c, 0, 64, 72
1, 28741, Control_c, 0, 64, 89
1, 28755, Control_c, 0, 64, 127
1, 28776, Note_off_c, 0, 67, 56
1, 28785, Note_on_c, 0, 84, 76
1, 28798, Note_off_c, 0, 70, 59
1, 28858, Note_on_c, 0, 82, 73
1, 28877, Note_off_c, 0, 84, 61
1, 28935, Note_off_c, 0, 82, 59
1, 29020, Note_on_c, 0, 74, 71
1, 29022, Control_c, 0, 64, 99
1, 29025, Note_on_c, 0, 68, 57
1, 29031, Note_on_c, 0, 64, 55
1, 29037, Control_c, 0, 64, 80
1, 29052, Control_c, 0, 64, 65
1, 29067, Control_c, 0, 64, 0
1, 29141, Control_c, 0, 64, 54
1, 29155, Control_c, 0, 64, 66
1, 29170, Control_c, 0, 64, 74
1, 29185, Control_c, 0, 64, 84
1, 29207, Control_c, 0, 64, 102
1, 29222, Control_c, 0, 64, 127
1, 29267, Note_on_c, 0, 77, 50
1, 29285, Note_off_c, 0, 74, 61
1, 29340, Note_off_c, 0, 77, 58
1, 29357, Note_on_c, 0, 76, 56
1, 29403, Note_off_c, 0, 76, 59
1, 29431, Control_c, 0, 64, 111
1, 29441, Note_on_c, 0, 72, 65
1, 29446, Control_c, 0, 64, 87
1, 29460, Control_c, 0, 64, 69
1, 29475, Control_c, 0, 64, 0
1, 29534, Control_c, 0, 67, 8
1, 29549, Control_c, 0, 64, 44
1, 29549, Control_c, 0, 67, 10
1, 29564, Control_c, 0, 64, 64
1, 29564, Control_c, 0, 67, 12
1, 29578, Control_c, 0, 64, 70
1, 29578, Control_c, 0, 67, 15
1, 29593, Control_c, 0, 64, 79
1, 29593, Control_c, 0, 67, 18
1, 29608, Control_c, 0, 64, 88
1, 29608, Control_c, 0, 67, 22
1, 29623, Control_c, 0, 64, 99
1, 29623, Control_c, 0, 67, 25
1, 29637, Note_on_c, 0, 76, 50
1, 29637, Control_c, 0, 64, 111
1, 29637, Control_c, 0, 67, 28
1, 29652, Control_c, 0, 64, 127
1, 29652, Control_c, 0, 67, 32
1, 29667, Control_c, 0, 67, 36
1, 29682, Control_c, 0, 67, 39
1, 29697, Control_c, 0, 67, 43
1, 29712, Control_c, 0, 67, 47
1, 29727, Control_c, 0, 67, 50
1, 29732, Note_on_c, 0, 74, 51
1, 29739, Note_off_c, 0, 76, 55
1, 29741, Control_c, 0, 67, 53
1, 29756, Control_c, 0, 67, 56
1, 29771, Control_c, 0, 67, 59
1, 29786, Control_c, 0, 67, 62
1, 29789, Note_off_c, 0, 74, 63
1, 29801, Control_c, 0, 67, 65
1, 29816, Control_c, 0, 67, 68
1, 29830, Control_c, 0, 67, 70
1, 29845, Control_c, 0, 67, 72
1, 29855, Note_off_c, 0, 72, 56
1, 29859, Note_on_c, 0, 70, 57
1, 29860, Control_c, 0, 64, 111
1, 29860, Control_c, 0, 67, 74
1, 29875, Control_c, 0, 64, 87
1, 29875, Control_c, 0, 67, 75
1, 29890, Control_c, 0, 64, 71
1, 29890, Control_c, 0, 67, 76
1, 29904, Control_c, 0, 64, 47
1, 29904, Control_c, 0, 67, 77
1, 29919, Control_c, 0, 64, 0
1, 29919, Control_c, 0, 67, 78
1, 29934, Control_c, 0, 67, 78
1, 29956, Control_c, 0, 67, 79
1, 29986, Control_c, 0, 64, 54
1, 29986, Control_c, 0, 67, 79
1, 30001, Control_c, 0, 64, 65
1, 30001, Control_c, 0, 67, 80
1, 30016, Control_c, 0, 64, 71
1, 30030, Control_c, 0, 64, 78
1, 30030, Control_c, 0, 67, 80
1, 30045, Control_c, 0, 64, 87
1, 30060, Control_c, 0, 64, 99
1, 30069, Note_on_c, 0, 74, 49
1, 30075, Control_c, 0, 64, 111
1, 30078, Note_off_c, 0, 70, 60
1, 30088, Note_off_c, 0, 68, 54
1, 30090, Control_c, 0, 64, 127
1, 30104, Note_off_c, 0, 64, 53
1, 30171, Note_off_c, 0, 74, 58
1, 30189, Note_on_c, 0, 73, 51
1, 30267, Note_off_c, 0, 73, 61
1, 30298, Control_c, 0, 67, 81
1, 30372, Control_c, 0, 67, 81
1, 30416, Control_c, 0, 67, 82
1, 30439, Note_on_c, 0, 69, 50
1, 30446, Control_c, 0, 64, 118
1, 30460, Control_c, 0, 64, 96
1, 30475, Control_c, 0, 64, 83
1, 30490, Control_c, 0, 64, 71
1, 30490, Control_c, 0, 67, 82
1, 30495, Note_on_c, 0, 57, 30
1, 30505, Control_c, 0, 64, 57
1, 30505, Control_c, 0, 67, 84
1, 30512, Note_on_c, 0, 61, 20
1, 30520, Control_c, 0, 64, 0
1, 30520, Control_c, 0, 67, 85
1, 30534, Control_c, 0, 67, 86
1, 30549, Control_c, 0, 67, 87
1, 30564, Control_c, 0, 67, 88
1, 30579, Control_c, 0, 67, 88
1, 30594, Control_c, 0, 67, 89
1, 30609, Control_c, 0, 67, 89
1, 30624, Control_c, 0, 64, 33
1, 30624, Control_c, 0, 67, 90
1, 30639, Control_c, 0, 64, 60
1, 30653, Control_c, 0, 64, 67
1, 30653, Control_c, 0, 67, 90
1, 30668, Control_c, 0, 64, 73
1, 30668, Control_c, 0, 67, 91
1, 30683, Control_c, 0, 64, 79
1, 30683, Control_c, 0, 67, 92
1, 30706, Control_c, 0, 64, 86
1, 30706, Control_c, 0, 67, 92
1, 30721, Control_c, 0, 64, 92
1, 30735, Control_c, 0, 64, 98
1, 30735, Control_c, 0, 67, 93
1, 30750, Control_c, 0, 64, 104
1, 30750, Control_c, 0, 67, 93
1, 30755, Note_off_c, 0, 69, 37
1, 30760, Note_on_c, 0, 70, 40
1, 30765, Control_c, 0, 64, 114
1, 30765, Control_c, 0, 67, 94
1, 30780, Control_c, 0, 64, 127
1, 30780, Control_c, 0, 67, 94
1, 30795, Control_c, 0, 67, 95
1, 30809, Control_c, 0, 67, 95
1, 30824, Control_c, 0, 67, 96
1, 30839, Control_c, 0, 67, 96
1, 30853, Control_c, 0, 67, 97
1, 30868, Control_c, 0, 67, 97
1, 30877, Note_on_c, 0, 69, 50
1, 30892, Note_off_c, 0, 70, 51
1, 30898, Control_c, 0, 67, 98
1, 30928, Control_c, 0, 67, 98
1, 30957, Note_off_c, 0, 69, 60
1, 30958, Control_c, 0, 67, 99
1, 30973, Control_c, 0, 64, 103
1, 30988, Control_c, 0, 64, 86
1, 30988, Control_c, 0, 67, 99
1, 30992, Note_on_c, 0, 67, 55
1, 31003, Control_c, 0, 64, 73
1, 31003, Control_c, 0, 67, 100
1, 31005, Note_off_c, 0, 57, 41
1, 31010, Note_on_c, 0, 58, 34
1, 31017, Note_on_c, 0, 62, 33
1, 31018, Control_c, 0, 64, 57
1, 31020, Note_off_c, 0, 61, 41
1, 31032, Control_c, 0, 64, 0
1, 31062, Control_c, 0, 64, 40
1, 31077, Control_c, 0, 64, 57
1, 31092, Control_c, 0, 64, 64
1, 31092, Control_c, 0, 67, 100
1, 31107, Control_c, 0, 64, 71
1, 31122, Control_c, 0, 64, 78
1, 31136, Control_c, 0, 64, 87
1, 31151, Control_c, 0, 64, 98
1, 31166, Control_c, 0, 64, 110
1, 31181, Control_c, 0, 64, 127
1, 31189, Note_off_c, 0, 67, 52
1, 31196, Note_on_c, 0, 70, 48
1, 31262, Note_off_c, 0, 70, 46
1, 31280, Note_on_c, 0, 69, 52
1, 31284, Control_c, 0, 67, 101
1, 31358, Control_c, 0, 64, 98
1, 31363, Note_on_c, 0, 65, 61
1, 31363, Note_off_c, 0, 69, 59
1, 31373, Control_c, 0, 64, 81
1, 31381, Note_off_c, 0, 62, 40
1, 31381, Note_on_c, 0, 57, 43
1, 31388, Control_c, 0, 64, 66
1, 31393, Note_on_c, 0, 61, 38
1, 31402, Control_c, 0, 64, 29
1, 31417, Control_c, 0, 64, 0
1, 31421, Note_off_c, 0, 58, 37
1, 31432, Control_c, 0, 64, 31
1, 31455, Control_c, 0, 64, 56
1, 31470, Control_c, 0, 64, 65
1, 31484, Control_c, 0, 64, 72
1, 31484, Control_c, 0, 67, 101
1, 31499, Control_c, 0, 64, 84
1, 31514, Control_c, 0, 64, 98
1, 31529, Control_c, 0, 64, 124
1, 31539, Note_off_c, 0, 65, 53
1, 31542, Note_on_c, 0, 70, 51
1, 31544, Control_c, 0, 64, 127
1, 31562, Note_off_c, 0, 61, 40
1, 31602, Control_c, 0, 67, 102
1, 31617, Control_c, 0, 67, 102
1, 31622, Note_on_c, 0, 69, 54
1, 31625, Note_off_c, 0, 57, 36
1, 31632, Control_c, 0, 67, 103
1, 31647, Control_c, 0, 67, 104
1, 31651, Note_off_c, 0, 70, 36
1, 31662, Control_c, 0, 67, 104
1, 31676, Control_c, 0, 67, 105
1, 31700, Note_on_c, 0, 64, 70
1, 31706, Control_c, 0, 64, 100
1, 31706, Control_c, 0, 67, 105
1, 31712, Note_off_c, 0, 69, 55
1, 31718, Note_on_c, 0, 62, 48
1, 31721, Control_c, 0, 64, 81
1, 31721, Control_c, 0, 67, 106
1, 31733, Note_on_c, 0, 58, 40
1, 31736, Control_c, 0, 64, 66
1, 31736, Control_c, 0, 67, 106
1, 31748, Note_on_c, 0, 55, 38
1, 31751, Control_c, 0, 64, 29
1, 31765, Control_c, 0, 64, 0
1, 31765, Control_c, 0, 67, 107
1, 31781, Control_c, 0, 64, 51
1, 31796, Control_c, 0, 64, 63
1, 31811, Control_c, 0, 64, 70
1, 31811, Control_c, 0, 67, 107
1, 31825, Control_c, 0, 64, 79
1, 31840, Control_c, 0, 64, 94
1, 31855, Control_c, 0, 64, 127
1, 31855, Control_c, 0, 67, 108
1, 31864, Note_off_c, 0, 62, 53
1, 31870, Control_c, 0, 67, 108
1, 31886, Note_on_c, 0, 70, 57
1, 31895, Note_off_c, 0, 64, 55
1, 31905, Note_off_c, 0, 55, 39
1, 31909, Note_off_c, 0, 58, 37
1, 31914, Control_c, 0, 67, 109
1, 31944, Control_c, 0, 67, 109
1, 31965, Note_on_c, 0, 69, 61
1, 31974, Control_c, 0, 67, 110
1, 31989, Control_c, 0, 67, 110
1, 32004, Control_c, 0, 67, 111
1, 32018, Control_c, 0, 67, 111
1, 32033, Control_c, 0, 64, 93
1, 32033, Control_c, 0, 67, 112
1, 32038, Note_off_c, 0, 70, 39
1, 32046, Note_on_c, 0, 65, 70
1, 32048, Control_c, 0, 64, 72
1, 32048, Control_c, 0, 67, 112
1, 32058, Note_off_c, 0, 69, 62
1, 32062, Note_on_c, 0, 57, 43
1, 32063, Control_c, 0, 64, 46
1, 32063, Control_c, 0, 67, 113
1, 32067, Note_on_c, 0, 61, 47
1, 32078, Control_c, 0, 64, 0
1, 32078, Control_c, 0, 67, 114
1, 32107, Control_c, 0, 67, 114
1, 32122, Control_c, 0, 64, 40
1, 32137, Control_c, 0, 64, 64
1, 32137, Control_c, 0, 67, 115
1, 32152, Control_c, 0, 64, 74
1, 32152, Control_c, 0, 67, 115
1, 32159, Note_off_c, 0, 57, 59
1, 32167, Control_c, 0, 64, 86
1, 32167, Control_c, 0, 67, 116
1, 32178, Note_off_c, 0, 61, 56
1, 32181, Control_c, 0, 64, 105
1, 32181, Control_c, 0, 67, 117
1, 32203, Control_c, 0, 64, 127
1, 32203, Control_c, 0, 67, 117
1, 32218, Control_c, 0, 67, 118
1, 32232, Control_c, 0, 67, 119
1, 32244, Note_on_c, 0, 70, 54
1, 32247, Control_c, 0, 67, 119
1, 32262, Control_c, 0, 67, 120
1, 32277, Control_c, 0, 67, 121
1, 32278, Note_off_c, 0, 65, 50
1, 32292, Control_c, 0, 67, 122
1, 32306, Control_c, 0, 67, 123
1, 32317, Note_on_c, 0, 69, 54
1, 32321, Control_c, 0, 67, 124
1, 32336, Control_c, 0, 67, 125
1, 32351, Control_c, 0, 67, 126
1, 32366, Control_c, 0, 67, 127
1, 32380, Note_off_c, 0, 70, 37
1, 32380, Control_c, 0, 64, 99
1, 32395, Control_c, 0, 64, 81
1, 32408, Note_on_c, 0, 66, 52
1, 32410, Control_c, 0, 64, 67
1, 32413, Note_off_c, 0, 69, 57
1, 32421, Note_on_c, 0, 58, 40
1, 32421, Note_on_c, 0, 62, 43
1, 32424, Control_c, 0, 64, 0
1, 32484, Control_c, 0, 64, 24
1, 32499, Control_c, 0, 64, 60
1, 32514, Control_c, 0, 64, 68
1, 32529, Control_c, 0, 64, 79
1, 32543, Control_c, 0, 64, 91
1, 32558, Control_c, 0, 64, 108
1, 32559, Note_off_c, 0, 58, 45
1, 32561, Note_off_c, 0, 62, 47
1, 32574, Control_c, 0, 64, 127
1, 32594, Note_on_c, 0, 70, 48
1, 32678, Note_off_c, 0, 66, 33
1, 32684, Note_on_c, 0, 69, 51
1, 32708, Note_off_c, 0, 70, 36
1, 32752, Control_c, 0, 64, 101
1, 32767, Control_c, 0, 64, 83
1, 32773, Note_on_c, 0, 67, 51
1, 32779, Note_off_c, 0, 69, 53
1, 32782, Control_c, 0, 64, 67
1, 32789, Note_on_c, 0, 57, 34
1, 32795, Note_on_c, 0, 61, 32
1, 32796, Control_c, 0, 64, 0
1, 32855, Control_c, 0, 64, 35
1, 32870, Control_c, 0, 64, 60
1, 32885, Control_c, 0, 64, 68
1, 32900, Control_c, 0, 64, 75
1, 32901, Note_off_c, 0, 57, 57
1, 32914, Control_c, 0, 64, 85
1, 32919, Note_off_c, 0, 61, 53
1, 32929, Control_c, 0, 64, 97
1, 32952, Control_c, 0, 64, 109
1, 32967, Control_c, 0, 64, 127
1, 32982, Note_on_c, 0, 70, 44
1, 33046, Note_off_c, 0, 70, 49
1, 33065, Note_off_c, 0, 67, 36
1, 33067, Note_on_c, 0, 69, 42
1, 33176, Note_off_c, 0, 69, 50
1, 33180, Note_on_c, 0, 68, 51
1, 33188, Control_c, 0, 64, 110
1, 33203, Note_on_c, 0, 52, 40
1, 33203, Control_c, 0, 64, 89
1, 33212, Note_on_c, 0, 58, 31
1, 33213, Note_on_c, 0, 62, 30
1, 33218, Control_c, 0, 64, 75
1, 33233, Control_c, 0, 64, 63
1, 33247, Control_c, 0, 64, 0
1, 33307, Control_c, 0, 64, 49
1, 33321, Control_c, 0, 64, 64
1, 33336, Control_c, 0, 64, 70
1, 33351, Control_c, 0, 64, 78
1, 33366, Note_off_c, 0, 58, 50
1, 33367, Control_c, 0, 64, 88
1, 33382, Control_c, 0, 64, 101
1, 33384, Note_off_c, 0, 52, 38
1, 33397, Control_c, 0, 64, 127
1, 33411, Note_on_c, 0, 69, 43
1, 33426, Note_off_c, 0, 62, 39
1, 33442, Note_off_c, 0, 68, 36
1, 33493, Note_off_c, 0, 69, 48
1, 33502, Note_on_c, 0, 70, 55
1, 33627, Note_off_c, 0, 70, 60
1, 33649, Control_c, 0, 64, 101
1, 33656, Note_on_c, 0, 69, 53
1, 33663, Control_c, 0, 64, 87
1, 33678, Control_c, 0, 64, 73
1, 33679, Note_on_c, 0, 57, 32
1, 33701, Control_c, 0, 64, 62
1, 33709, Note_on_c, 0, 61, 32
1, 33716, Control_c, 0, 64, 0
1, 33790, Control_c, 0, 64, 19
1, 33804, Control_c, 0, 64, 58
1, 33819, Control_c, 0, 64, 67
1, 33834, Control_c, 0, 64, 74
1, 33849, Control_c, 0, 64, 83
1, 33864, Control_c, 0, 64, 97
1, 33878, Note_off_c, 0, 69, 53
1, 33879, Control_c, 0, 64, 114
1, 33891, Note_on_c, 0, 70, 47
1, 33894, Control_c, 0, 64, 127
1, 33972, Note_on_c, 0, 69, 48
1, 34031, Note_off_c, 0, 70, 33
1, 34057, Control_c, 0, 64, 95
1, 34069, Note_on_c, 0, 67, 63
1, 34070, Note_off_c, 0, 69, 59
1, 34071, Control_c, 0, 64, 78
1, 34086, Control_c, 0, 64, 64
1, 34090, Note_on_c, 0, 58, 41
1, 34095, Note_off_c, 0, 57, 38
1, 34097, Note_on_c, 0, 62, 39
1, 34101, Control_c, 0, 64, 0
1, 34115, Note_off_c, 0, 61, 41
1, 34131, Control_c, 0, 64, 38
1, 34145, Control_c, 0, 64, 60
1, 34160, Control_c, 0, 64, 67
1, 34176, Control_c, 0, 64, 75
1, 34191, Control_c, 0, 64, 87
1, 34206, Control_c, 0, 64, 105
1, 34220, Control_c, 0, 64, 127
1, 34255, Note_on_c, 0, 70, 53
1, 34270, Note_off_c, 0, 67, 51
1, 34332, Note_on_c, 0, 69, 56
1, 34383, Control_c, 0, 64, 110
1, 34389, Note_off_c, 0, 70, 43
1, 34398, Control_c, 0, 64, 88
1, 34412, Note_on_c, 0, 65, 71
1, 34413, Control_c, 0, 64, 71
1, 34427, Control_c, 0, 64, 40
1, 34428, Note_on_c, 0, 57, 47
1, 34430, Note_off_c, 0, 69, 57
1, 34436, Note_on_c, 0, 61, 47
1, 34450, Control_c, 0, 64, 0
1, 34462, Note_off_c, 0, 62, 36
1, 34466, Note_off_c, 0, 58, 37
1, 34480, Control_c, 0, 64, 46
1, 34494, Control_c, 0, 64, 63
1, 34509, Control_c, 0, 64, 70
1, 34524, Control_c, 0, 64, 80
1, 34539, Control_c, 0, 64, 97
1, 34554, Control_c, 0, 64, 127
1, 34573, Note_off_c, 0, 61, 53
1, 34584, Note_on_c, 0, 70, 53
1, 34585, Note_off_c, 0, 65, 53
1, 34654, Note_off_c, 0, 57, 35
1, 34666, Note_on_c, 0, 69, 58
1, 34704, Note_off_c, 0, 70, 37
1, 34731, Control_c, 0, 64, 106
1, 34746, Control_c, 0, 64, 86
1, 34754, Note_on_c, 0, 64, 65
1, 34761, Control_c, 0, 64, 70
1, 34766, Note_off_c, 0, 69, 56
1, 34776, Control_c, 0, 64, 31
1, 34780, Note_on_c, 0, 62, 39
1, 34785, Note_on_c, 0, 58, 42
1, 34788, Note_on_c, 0, 55, 36
1, 34791, Control_c, 0, 64, 0
1, 34820, Control_c, 0, 64, 43
1, 34835, Control_c, 0, 64, 63
1, 34850, Control_c, 0, 64, 71
1, 34865, Control_c, 0, 64, 82
1, 34880, Control_c, 0, 64, 99
1, 34894, Control_c, 0, 64, 127
1, 34898, Note_off_c, 0, 58, 51
1, 34904, Note_off_c, 0, 62, 50
1, 34932, Note_off_c, 0, 55, 33
1, 34946, Note_off_c, 0, 64, 48
1, 34949, Note_on_c, 0, 70, 50
1, 35042, Note_on_c, 0, 69, 52
1, 35063, Note_off_c, 0, 70, 37
1, 35103, Control_c, 0, 64, 93
1, 35117, Control_c, 0, 64, 77
1, 35129, Note_on_c, 0, 65, 54
1, 35129, Note_off_c, 0, 69, 57
1, 35132, Control_c, 0, 64, 63
1, 35147, Control_c, 0, 64, 0
1, 35158, Note_on_c, 0, 61, 35
1, 35161, Note_on_c, 0, 57, 32
1, 35199, Control_c, 0, 64, 56
1, 35214, Control_c, 0, 64, 66
1, 35229, Control_c, 0, 64, 75
1, 35244, Control_c, 0, 64, 87
1, 35247, Note_off_c, 0, 57, 57
1, 35258, Control_c, 0, 64, 103
1, 35273, Control_c, 0, 64, 127
1, 35279, Note_off_c, 0, 61, 50
1, 35346, Note_on_c, 0, 70, 42
1, 35413, Note_off_c, 0, 65, 35
1, 35424, Note_on_c, 0, 69, 45
1, 35483, Note_off_c, 0, 70, 35
1, 35510, Control_c, 0, 64, 109
1, 35524, Control_c, 0, 64, 88
1, 35527, Note_on_c, 0, 66, 50
1, 35539, Control_c, 0, 64, 71
1, 35543, Note_off_c, 0, 69, 48
1, 35551, Note_on_c, 0, 52, 32
1, 35554, Control_c, 0, 64, 42
1, 35560, Note_on_c, 0, 58, 30
1, 35563, Note_on_c, 0, 62, 22
1, 35569, Control_c, 0, 64, 0
1, 35614, Control_c, 0, 64, 40
1, 35629, Control_c, 0, 64, 63
1, 35643, Control_c, 0, 64, 70
1, 35658, Control_c, 0, 64, 79
1, 35673, Control_c, 0, 64, 93
1, 35688, Control_c, 0, 64, 108
1, 35697, Note_off_c, 0, 62, 41
1, 35703, Control_c, 0, 64, 127
1, 35703, Note_off_c, 0, 58, 42
1, 35705, Note_off_c, 0, 52, 36
1, 35756, Note_on_c, 0, 70, 46
1, 35832, Note_off_c, 0, 66, 39
1, 35859, Note_on_c, 0, 69, 44
1, 35890, Note_off_c, 0, 70, 33
1, 35977, Control_c, 0, 64, 102
1, 35992, Control_c, 0, 64, 88
1, 35996, Note_off_c, 0, 69, 56
1, 36001, Note_on_c, 0, 67, 46
1, 36007, Control_c, 0, 64, 76
1, 36022, Control_c, 0, 64, 64
1, 36037, Control_c, 0, 64, 19
1, 36052, Control_c, 0, 64, 0
1, 36111, Control_c, 0, 64, 24
1, 36126, Control_c, 0, 64, 55
1, 36141, Control_c, 0, 64, 65
1, 36155, Control_c, 0, 64, 73
1, 36170, Control_c, 0, 64, 81
1, 36185, Control_c, 0, 64, 91
1, 36199, Control_c, 0, 64, 104
1, 36214, Control_c, 0, 64, 127
1, 36250, Note_on_c, 0, 70, 48
1, 36369, Note_on_c, 0, 69, 51
1, 36416, Note_off_c, 0, 67, 34
1, 36460, Note_off_c, 0, 70, 36
1, 36555, Control_c, 0, 64, 110
1, 36559, Note_on_c, 0, 68, 51
1, 36564, Note_off_c, 0, 69, 56
1, 36571, Control_c, 0, 64, 95
1, 36586, Control_c, 0, 64, 82
1, 36600, Control_c, 0, 64, 69
1, 36615, Control_c, 0, 64, 14
1, 36630, Control_c, 0, 64, 0
1, 36988, Note_on_c, 0, 70, 44
1, 36998, Note_off_c, 0, 68, 54
1, 37239, Note_off_c, 0, 70, 62
1, 37245, Note_on_c, 0, 69, 46
1, 37647, Note_on_c, 0, 34, 38
1, 37668, Control_c, 0, 64, 41
1, 37683, Control_c, 0, 64, 59
1, 37697, Control_c, 0, 64, 64
1, 37712, Control_c, 0, 64, 68
1, 37727, Control_c, 0, 64, 73
1, 37742, Control_c, 0, 64, 80
1, 37757, Control_c, 0, 64, 89
1, 37771, Control_c, 0, 64, 102
1, 37786, Control_c, 0, 64, 120
1, 37801, Control_c, 0, 64, 127
1, 37820, Note_off_c, 0, 34, 39
1, 38076, Note_on_c, 0, 70, 52
1, 38082, Control_c, 0, 67, 126
1, 38097, Control_c, 0, 67, 121
1, 38111, Note_off_c, 0, 69, 56
1, 38112, Control_c, 0, 67, 115
1, 38127, Control_c, 0, 67, 109
1, 38142, Control_c, 0, 67, 101
1, 38157, Control_c, 0, 67, 89
1, 38172, Control_c, 0, 67, 77
1, 38194, Control_c, 0, 67, 66
1, 38209, Control_c, 0, 67, 56
1, 38224, Control_c, 0, 67, 46
1, 38239, Control_c, 0, 67, 34
1, 38254, Control_c, 0, 67, 21
1, 38268, Control_c, 0, 67, 0
1, 38355, Note_on_c, 0, 69, 54
1, 38380, Note_on_c, 0, 58, 32
1, 38384, Note_on_c, 0, 52, 31
1, 38386, Note_on_c, 0, 62, 28
1, 38406, Note_off_c, 0, 70, 54
1, 38485, Note_off_c, 0, 62, 45
1, 38518, Note_off_c, 0, 58, 38
1, 38521, Note_off_c, 0, 52, 45
1, 38605, Note_on_c, 0, 68, 54
1, 38650, Note_off_c, 0, 69, 37
1, 38816, Control_c, 0, 64, 109
1, 38831, Control_c, 0, 64, 83
1, 38846, Control_c, 0, 64, 63
1, 38860, Control_c, 0, 64, 0
1, 38888, Note_on_c, 0, 39, 36
1, 38957, Control_c, 0, 64, 40
1, 38973, Control_c, 0, 64, 64
1, 38988, Control_c, 0, 64, 72
1, 38993, Note_off_c, 0, 39, 53
1, 39003, Control_c, 0, 64, 85
1, 39017, Control_c, 0, 64, 104
1, 39032, Control_c, 0, 64, 127
1, 39128, Note_on_c, 0, 67, 59
1, 39156, Note_off_c, 0, 68, 55
1, 39353, Note_on_c, 0, 58, 37
1, 39356, Note_on_c, 0, 63, 44
1, 39364, Note_on_c, 0, 51, 39
1, 39416, Note_off_c, 0, 63, 57
1, 39461, Note_off_c, 0, 58, 58
1, 39523, Note_off_c, 0, 51, 36
1, 39544, Note_on_c, 0, 68, 64
1, 39596, Note_off_c, 0, 67, 54
1, 39734, Control_c, 0, 64, 106
1, 39748, Control_c, 0, 64, 81
1, 39765, Control_c, 0, 64, 56
1, 39770, Note_on_c, 0, 69, 64
1, 39780, Note_off_c, 0, 68, 59
1, 39780, Control_c, 0, 64, 0
1, 39787, Note_on_c, 0, 45, 44
1, 39868, Control_c, 0, 64, 39
1, 39883, Control_c, 0, 64, 65
1, 39898, Control_c, 0, 64, 75
1, 39900, Note_off_c, 0, 45, 58
1, 39912, Control_c, 0, 64, 88
1, 39927, Control_c, 0, 64, 116
1, 39942, Control_c, 0, 64, 127
1, 39975, Note_off_c, 0, 69, 62
1, 39978, Note_on_c, 0, 70, 62
1, 40176, Note_on_c, 0, 69, 64
1, 40192, Note_on_c, 0, 61, 44
1, 40215, Note_on_c, 0, 57, 43
1, 40251, Note_off_c, 0, 70, 37
1, 40271, Note_off_c, 0, 61, 47
1, 40274, Note_off_c, 0, 57, 57
1, 40393, Note_on_c, 0, 67, 59
1, 40421, Note_off_c, 0, 69, 51
1, 40513, Control_c, 0, 64, 98
1, 40528, Control_c, 0, 64, 77
1, 40543, Control_c, 0, 64, 60
1, 40558, Control_c, 0, 64, 0
1, 40625, Note_on_c, 0, 50, 43
1, 40866, Note_on_c, 0, 66, 51
1, 40881, Note_off_c, 0, 67, 56
1, 41112, Note_on_c, 0, 62, 33
1, 41131, Note_on_c, 0, 57, 33
1, 41136, Control_c, 0, 64, 35
1, 41151, Control_c, 0, 64, 61
1, 41166, Control_c, 0, 64, 67
1, 41188, Control_c, 0, 64, 74
1, 41203, Control_c, 0, 64, 81
1, 41218, Control_c, 0, 64, 92
1, 41233, Control_c, 0, 64, 106
1, 41248, Control_c, 0, 64, 127
1, 41273, Note_off_c, 0, 62, 42
1, 41277, Note_off_c, 0, 57, 51
1, 41321, Note_off_c, 0, 50, 49
1, 41385, Note_on_c, 0, 67, 51
1, 41466, Note_off_c, 0, 66, 37
1, 41636, Note_on_c, 0, 69, 59
1, 41648, Control_c, 0, 64, 99
1, 41663, Control_c, 0, 64, 76
1, 41670, Note_off_c, 0, 67, 51
1, 41671, Note_on_c, 0, 43, 42
1, 41678, Control_c, 0, 64, 51
1, 41692, Control_c, 0, 64, 0
1, 41766, Control_c, 0, 64, 51
1, 41781, Control_c, 0, 64, 66
1, 41796, Control_c, 0, 64, 75
1, 41811, Control_c, 0, 64, 88
1, 41826, Control_c, 0, 64, 114
1, 41828, Note_off_c, 0, 43, 52
1, 41841, Control_c, 0, 64, 127
1, 41861, Note_on_c, 0, 72, 68
1, 41871, Note_off_c, 0, 69, 61
1, 42100, Control_c, 0, 64, 98
1, 42102, Note_on_c, 0, 74, 74
1, 42115, Control_c, 0, 64, 79
1, 42128, Note_off_c, 0, 72, 57
1, 42129, Control_c, 0, 64, 62
1, 42133, Note_on_c, 0, 59, 34
1, 42135, Note_on_c, 0, 65, 43
1, 42138, Note_on_c, 0, 69, 39
1, 42144, Control_c, 0, 64, 0
1, 42148, Note_on_c, 0, 55, 30
1, 42219, Control_c, 0, 64, 49
1, 42227, Note_off_c, 0, 59, 46
1, 42234, Control_c, 0, 64, 67
1, 42249, Control_c, 0, 64, 75
1, 42264, Control_c, 0, 64, 86
1, 42279, Control_c, 0, 64, 100
1, 42291, Note_off_c, 0, 55, 34
1, 42294, Control_c, 0, 64, 127
1, 42352, Note_off_c, 0, 74, 57
1, 42360, Note_off_c, 0, 65, 43
1, 42385, Note_off_c, 0, 69, 44
1, 42559, Control_c, 0, 64, 113
1, 42564, Note_on_c, 0, 74, 74
1, 42574, Control_c, 0, 64, 90
1, 42586, Note_on_c, 0, 65, 48
1, 42589, Note_on_c, 0, 45, 42
1, 42589, Control_c, 0, 64, 73
1, 42604, Note_on_c, 0, 69, 30
1, 42604, Control_c, 0, 64, 19
1, 42619, Control_c, 0, 64, 0
1, 42685, Control_c, 0, 64, 24
1, 42700, Control_c, 0, 64, 63
1, 42714, Control_c, 0, 64, 71
1, 42719, Note_off_c, 0, 45, 54
1, 42729, Control_c, 0, 64, 80
1, 42744, Control_c, 0, 64, 93
1, 42759, Control_c, 0, 64, 109
1, 42774, Control_c, 0, 64, 127
1, 42815, Note_off_c, 0, 65, 51
1, 42855, Note_off_c, 0, 69, 44
1, 43042, Control_c, 0, 64, 114
1, 43056, Control_c, 0, 64, 91
1, 43071, Note_on_c, 0, 73, 64
1, 43071, Control_c, 0, 64, 76
1, 43086, Control_c, 0, 64, 56
1, 43090, Note_on_c, 0, 61, 34
1, 43101, Note_on_c, 0, 69, 38
1, 43101, Control_c, 0, 64, 0
1, 43104, Note_on_c, 0, 64, 38
1, 43109, Note_off_c, 0, 74, 56
1, 43112, Note_on_c, 0, 57, 33
1, 43145, Control_c, 0, 67, 9
1, 43160, Control_c, 0, 67, 11
1, 43174, Control_c, 0, 67, 12
1, 43189, Control_c, 0, 64, 23
1, 43189, Control_c, 0, 67, 14
1, 43204, Control_c, 0, 64, 62
1, 43204, Control_c, 0, 67, 16
1, 43219, Control_c, 0, 64, 70
1, 43219, Control_c, 0, 67, 19
1, 43234, Control_c, 0, 64, 78
1, 43234, Control_c, 0, 67, 21
1, 43240, Note_off_c, 0, 61, 42
1, 43245, Note_off_c, 0, 57, 52
1, 43249, Control_c, 0, 64, 90
1, 43249, Control_c, 0, 67, 26
1, 43263, Control_c, 0, 64, 107
1, 43263, Control_c, 0, 67, 30
1, 43278, Control_c, 0, 64, 127
1, 43278, Control_c, 0, 67, 34
1, 43293, Control_c, 0, 67, 37
1, 43308, Control_c, 0, 67, 40
1, 43322, Control_c, 0, 67, 44
1, 43337, Control_c, 0, 67, 47
1, 43350, Note_off_c, 0, 64, 35
1, 43352, Control_c, 0, 67, 50
1, 43367, Note_off_c, 0, 69, 40
1, 43367, Control_c, 0, 67, 53
1, 43382, Control_c, 0, 67, 55
1, 43397, Control_c, 0, 67, 57
1, 43405, Note_off_c, 0, 73, 56
1, 43412, Control_c, 0, 67, 58
1, 43435, Control_c, 0, 67, 60
1, 43450, Control_c, 0, 67, 63
1, 43464, Control_c, 0, 67, 65
1, 43479, Control_c, 0, 67, 68
1, 43494, Control_c, 0, 67, 70
1, 43509, Control_c, 0, 67, 71
1, 43524, Control_c, 0, 67, 72
1, 43538, Control_c, 0, 67, 73
1, 43553, Control_c, 0, 67, 74
1, 43568, Control_c, 0, 67, 74
1, 43582, Control_c, 0, 67, 75
1, 43597, Control_c, 0, 67, 75
1, 43612, Control_c, 0, 67, 76
1, 43627, Control_c, 0, 67, 76
1, 43640, Note_on_c, 0, 74, 58
1, 43642, Control_c, 0, 64, 109
1, 43642, Control_c, 0, 67, 77
1, 43656, Control_c, 0, 64, 88
1, 43656, Control_c, 0, 67, 77
1, 43659, Note_on_c, 0, 69, 45
1, 43660, Note_on_c, 0, 65, 41
1, 43670, Note_on_c, 0, 38, 34
1, 43671, Control_c, 0, 64, 73
1, 43671, Control_c, 0, 67, 78
1, 43676, Note_on_c, 0, 45, 35
1, 43686, Control_c, 0, 64, 57
1, 43701, Control_c, 0, 64, 0
1, 43701, Control_c, 0, 67, 78
1, 43791, Control_c, 0, 64, 50
1, 43805, Control_c, 0, 64, 66
1, 43820, Control_c, 0, 64, 74
1, 43835, Control_c, 0, 64, 84
1, 43850, Note_off_c, 0, 38, 52
1, 43850, Control_c, 0, 64, 98
1, 43865, Control_c, 0, 64, 113
1, 43877, Note_off_c, 0, 45, 39
1, 43880, Control_c, 0, 64, 127
1, 43880, Control_c, 0, 67, 78
1, 43895, Control_c, 0, 67, 77
1, 43910, Control_c, 0, 67, 77
1, 43954, Control_c, 0, 67, 76
1, 43969, Control_c, 0, 67, 76
1, 43998, Control_c, 0, 67, 75
1, 44013, Control_c, 0, 67, 75
1, 44028, Control_c, 0, 67, 74
1, 44058, Control_c, 0, 67, 74
1, 44102, Control_c, 0, 67, 73
1, 44117, Control_c, 0, 67, 73
1, 44131, Control_c, 0, 67, 72
1, 44146, Control_c, 0, 67, 71
1, 44148, Note_off_c, 0, 69, 59
1, 44161, Control_c, 0, 67, 71
1, 44184, Control_c, 0, 67, 70
1, 44199, Control_c, 0, 67, 69
1, 44202, Note_off_c, 0, 65, 36
1, 44213, Control_c, 0, 67, 69
1, 44228, Control_c, 0, 67, 68
1, 44243, Control_c, 0, 67, 67
1, 44258, Control_c, 0, 67, 66
1, 44273, Control_c, 0, 67, 65
1, 44287, Control_c, 0, 67, 64
1, 44302, Control_c, 0, 67, 62
1, 44315, Note_on_c, 0, 53, 37
1, 44317, Control_c, 0, 67, 60
1, 44324, Note_on_c, 0, 57, 31
1, 44327, Note_on_c, 0, 62, 35
1, 44331, Control_c, 0, 67, 58
1, 44346, Control_c, 0, 67, 56
1, 44361, Control_c, 0, 67, 53
1, 44376, Control_c, 0, 67, 50
1, 44391, Control_c, 0, 67, 46
1, 44405, Control_c, 0, 67, 42
1, 44420, Control_c, 0, 67, 37
1, 44435, Control_c, 0, 67, 30
1, 44450, Control_c, 0, 67, 22
1, 44465, Control_c, 0, 67, 14
1, 44479, Control_c, 0, 67, 0
1, 44559, Note_on_c, 0, 72, 52
1, 44650, Note_off_c, 0, 62, 38
1, 44677, Note_on_c, 0, 70, 62
1, 44738, Note_off_c, 0, 74, 51
1, 44754, Note_off_c, 0, 72, 56
1, 44758, Note_off_c, 0, 57, 36
1, 44774, Note_off_c, 0, 53, 45
1, 44804, Note_off_c, 0, 70, 64
1, 44806, Note_on_c, 0, 69, 69
1, 45020, Note_on_c, 0, 67, 70
1, 45036, Control_c, 0, 64, 110
1, 45046, Note_off_c, 0, 69, 57
1, 45051, Control_c, 0, 64, 98
1, 45066, Control_c, 0, 64, 89
1, 45081, Control_c, 0, 64, 80
1, 45096, Control_c, 0, 64, 71
1, 45110, Control_c, 0, 64, 59
1, 45121, Note_on_c, 0, 66, 70
1, 45125, Control_c, 0, 64, 0
1, 45177, Note_off_c, 0, 67, 54
1, 45257, Note_on_c, 0, 65, 72
1, 45265, Note_on_c, 0, 62, 60
1, 45270, Note_on_c, 0, 53, 55
1, 45275, Note_on_c, 0, 43, 51
1, 45279, Note_on_c, 0, 59, 46
1, 45312, Note_off_c, 0, 66, 50
1, 45363, Control_c, 0, 64, 39
1, 45377, Control_c, 0, 64, 65
1, 45392, Control_c, 0, 64, 75
1, 45407, Control_c, 0, 64, 89
1, 45421, Note_off_c, 0, 59, 57
1, 45422, Control_c, 0, 64, 127
1, 45473, Note_off_c, 0, 53, 39
1, 45523, Note_on_c, 0, 67, 68
1, 45553, Note_off_c, 0, 65, 57
1, 45588, Note_off_c, 0, 43, 39
1, 45655, Note_on_c, 0, 65, 76
1, 45680, Note_off_c, 0, 62, 52
1, 45844, Control_c, 0, 64, 103
1, 45849, Note_on_c, 0, 63, 72
1, 45850, Note_off_c, 0, 67, 28
1, 45859, Control_c, 0, 64, 81
1, 45874, Control_c, 0, 64, 63
1, 45875, Note_on_c, 0, 36, 51
1, 45889, Control_c, 0, 64, 0
1, 45890, Note_off_c, 0, 65, 63
1, 45977, Control_c, 0, 64, 26
1, 45992, Control_c, 0, 64, 63
1, 46007, Control_c, 0, 64, 72
1, 46022, Control_c, 0, 64, 84
1, 46034, Note_off_c, 0, 36, 60
1, 46037, Control_c, 0, 64, 118
1, 46051, Control_c, 0, 64, 127
1, 46114, Note_on_c, 0, 65, 70
1, 46181, Note_off_c, 0, 63, 56
1, 46317, Note_on_c, 0, 63, 67
1, 46322, Note_on_c, 0, 60, 43
1, 46326, Note_on_c, 0, 51, 44
1, 46343, Note_on_c, 0, 55, 40
1, 46433, Note_off_c, 0, 60, 38
1, 46480, Note_off_c, 0, 65, 38
1, 46504, Note_off_c, 0, 55, 34
1, 46518, Note_off_c, 0, 51, 36
1, 46534, Note_on_c, 0, 62, 67
1, 46612, Note_off_c, 0, 63, 50
1, 46727, Control_c, 0, 64, 107
1, 46742, Control_c, 0, 64, 80
1, 46753, Note_on_c, 0, 41, 59
1, 46756, Control_c, 0, 64, 54
1, 46771, Control_c, 0, 64, 0
1, 46875, Control_c, 0, 64, 31
1, 46890, Control_c, 0, 64, 65
1, 46905, Control_c, 0, 64, 74
1, 46919, Control_c, 0, 64, 88
1, 46934, Control_c, 0, 64, 123
1, 46943, Note_off_c, 0, 41, 55
1, 46950, Control_c, 0, 64, 127
1, 46978, Note_on_c, 0, 60, 64
1, 47004, Note_off_c, 0, 62, 60
1, 47186, Note_on_c, 0, 53, 51
1, 47187, Note_on_c, 0, 57, 47
1, 47275, Note_off_c, 0, 57, 58
1, 47293, Note_off_c, 0, 53, 63
1, 47378, Note_on_c, 0, 62, 67
1, 47490, Note_off_c, 0, 60, 39
1, 47564, Control_c, 0, 64, 97
1, 47579, Control_c, 0, 64, 76
1, 47594, Control_c, 0, 64, 46
1, 47603, Note_on_c, 0, 63, 67
1, 47609, Control_c, 0, 64, 0
1, 47643, Note_off_c, 0, 62, 58
1, 47738, Poly_aftertouch_c, 0, 40, 127
1, 47742, Poly_aftertouch_c, 0, 39, 0
1, 47782, Poly_aftertouch_c, 0, 40, 0
1, 47787, Control_c, 0, 64, 65
1, 47802, Control_c, 0, 64, 80
1, 47817, Control_c, 0, 64, 113
1, 47824, Note_on_c, 0, 65, 72
1, 47832, Control_c, 0, 64, 127
1, 47859, Note_off_c, 0, 63, 59
1, 48009, Note_on_c, 0, 63, 67
1, 48018, Note_on_c, 0, 58, 43
1, 48040, Note_on_c, 0, 54, 39
1, 48110, Note_off_c, 0, 58, 57
1, 48133, Note_off_c, 0, 65, 40
1, 48138, Note_off_c, 0, 54, 59
1, 48218, Note_on_c, 0, 62, 64
1, 48295, Note_off_c, 0, 63, 39
1, 48446, Control_c, 0, 64, 96
1, 48449, Note_on_c, 0, 44, 53
1, 48461, Control_c, 0, 64, 78
1, 48476, Control_c, 0, 64, 62
1, 48491, Control_c, 0, 64, 0
1, 48696, Note_on_c, 0, 60, 56
1, 48727, Note_off_c, 0, 62, 61
1, 48930, Note_on_c, 0, 54, 40
1, 48939, Note_on_c, 0, 50, 29
1, 48988, Control_c, 0, 64, 36
1, 49002, Control_c, 0, 64, 63
1, 49017, Control_c, 0, 64, 69
1, 49032, Control_c, 0, 64, 76
1, 49047, Control_c, 0, 64, 86
1, 49062, Control_c, 0, 64, 99
1, 49076, Control_c, 0, 64, 127
1, 49119, Note_off_c, 0, 54, 46
1, 49162, Note_off_c, 0, 44, 41
1, 49165, Note_on_c, 0, 62, 55
1, 49244, Note_off_c, 0, 60, 52
1, 49264, Note_off_c, 0, 50, 45
1, 49389, Control_c, 0, 64, 117
1, 49401, Note_on_c, 0, 63, 64
1, 49403, Control_c, 0, 64, 89
1, 49425, Control_c, 0, 64, 71
1, 49433, Note_on_c, 0, 43, 46
1, 49440, Control_c, 0, 64, 0
1, 49469, Note_off_c, 0, 62, 53
1, 49544, Control_c, 0, 64, 48
1, 49558, Control_c, 0, 64, 68
1, 49559, Note_off_c, 0, 43, 62
1, 49573, Control_c, 0, 64, 79
1, 49588, Control_c, 0, 64, 95
1, 49603, Control_c, 0, 64, 127
1, 49618, Control_c, 0, 67, 8
1, 49621, Note_on_c, 0, 67, 68
1, 49633, Control_c, 0, 67, 9
1, 49648, Control_c, 0, 67, 9
1, 49651, Note_off_c, 0, 63, 57
1, 49663, Control_c, 0, 67, 10
1, 49678, Control_c, 0, 67, 11
1, 49692, Control_c, 0, 67, 12
1, 49707, Control_c, 0, 67, 14
1, 49722, Control_c, 0, 67, 15
1, 49737, Control_c, 0, 67, 17
1, 49751, Control_c, 0, 67, 19
1, 49766, Control_c, 0, 67, 20
1, 49781, Control_c, 0, 67, 21
1, 49796, Control_c, 0, 67, 23
1, 49811, Control_c, 0, 67, 24
1, 49825, Control_c, 0, 67, 26
1, 49840, Control_c, 0, 64, 96
1, 49840, Control_c, 0, 67, 28
1, 49846, Note_on_c, 0, 69, 70
1, 49855, Control_c, 0, 64, 78
1, 49855, Control_c, 0, 67, 29
1, 49870, Control_c, 0, 64, 64
1, 49870, Control_c, 0, 67, 32
1, 49871, Note_on_c, 0, 63, 53
1, 49880, Note_on_c, 0, 60, 38
1, 49884, Note_on_c, 0, 51, 35
1, 49885, Control_c, 0, 64, 0
1, 49885, Control_c, 0, 67, 33
1, 49886, Note_off_c, 0, 67, 60
1, 49896, Note_on_c, 0, 55, 30
1, 49899, Control_c, 0, 67, 35
1, 49914, Control_c, 0, 67, 37
1, 49929, Control_c, 0, 67, 38
1, 49943, Control_c, 0, 67, 40
1, 49958, Control_c, 0, 64, 54
1, 49958, Control_c, 0, 67, 41
1, 49973, Control_c, 0, 64, 68
1, 49973, Control_c, 0, 67, 42
1, 49988, Control_c, 0, 64, 77
1, 49988, Control_c, 0, 67, 44
1, 49996, Note_off_c, 0, 51, 52
1, 49996, Note_off_c, 0, 55, 55
1, 50003, Control_c, 0, 64, 91
1, 50003, Control_c, 0, 67, 45
1, 50018, Control_c, 0, 64, 124
1, 50018, Control_c, 0, 67, 46
1, 50032, Control_c, 0, 64, 127
1, 50032, Control_c, 0, 67, 48
1, 50036, Note_off_c, 0, 69, 60
1, 50041, Note_off_c, 0, 63, 46
1, 50044, Note_off_c, 0, 60, 38
1, 50047, Control_c, 0, 67, 48
1, 50062, Control_c, 0, 67, 49
1, 50077, Control_c, 0, 67, 50
1, 50092, Control_c, 0, 67, 51
1, 50107, Control_c, 0, 67, 52
1, 50122, Control_c, 0, 67, 53
1, 50137, Control_c, 0, 67, 53
1, 50152, Control_c, 0, 67, 54
1, 50190, Control_c, 0, 67, 54
1, 50220, Control_c, 0, 67, 55
1, 50235, Control_c, 0, 67, 56
1, 50249, Control_c, 0, 67, 57
1, 50264, Control_c, 0, 67, 57
1, 50279, Control_c, 0, 67, 58
1, 50294, Control_c, 0, 67, 58
1, 50309, Control_c, 0, 67, 59
1, 50323, Control_c, 0, 64, 94
1, 50328, Note_on_c, 0, 69, 64
1, 50338, Control_c, 0, 64, 77
1, 50338, Control_c, 0, 67, 60
1, 50346, Note_on_c, 0, 63, 50
1, 50353, Control_c, 0, 64, 61
1, 50353, Control_c, 0, 67, 61
1, 50366, Note_on_c, 0, 60, 30
1, 50367, Control_c, 0, 64, 0
1, 50367, Control_c, 0, 67, 62
1, 50372, Note_on_c, 0, 53, 35
1, 50382, Control_c, 0, 67, 63
1, 50384, Note_on_c, 0, 57, 19
1, 50397, Control_c, 0, 67, 64
1, 50412, Control_c, 0, 67, 65
1, 50427, Control_c, 0, 67, 66
1, 50441, Control_c, 0, 64, 24
1, 50441, Control_c, 0, 67, 66
1, 50456, Control_c, 0, 64, 63
1, 50456, Control_c, 0, 67, 67
1, 50471, Control_c, 0, 64, 71
1, 50471, Control_c, 0, 67, 68
1, 50486, Control_c, 0, 64, 81
1, 50486, Control_c, 0, 67, 69
1, 50500, Control_c, 0, 64, 98
1, 50500, Control_c, 0, 67, 69
1, 50515, Control_c, 0, 64, 121
1, 50515, Control_c, 0, 67, 70
1, 50524, Note_off_c, 0, 60, 41
1, 50530, Control_c, 0, 64, 127
1, 50530, Control_c, 0, 67, 71
1, 50536, Note_off_c, 0, 53, 40
1, 50545, Note_off_c, 0, 57, 41
1, 50545, Control_c, 0, 67, 71
1, 50560, Note_off_c, 0, 69, 52
1, 50560, Control_c, 0, 67, 72
1, 50575, Control_c, 0, 67, 73
1, 50590, Control_c, 0, 67, 74
1, 50605, Control_c, 0, 67, 75
1, 50617, Note_off_c, 0, 63, 32
1, 50620, Control_c, 0, 67, 76
1, 50635, Control_c, 0, 67, 77
1, 50649, Control_c, 0, 67, 77
1, 50664, Control_c, 0, 67, 78
1, 50679, Control_c, 0, 67, 78
1, 50693, Control_c, 0, 67, 79
1, 50708, Control_c, 0, 67, 80
1, 50723, Control_c, 0, 67, 81
1, 50738, Control_c, 0, 67, 82
1, 50753, Control_c, 0, 67, 83
1, 50767, Control_c, 0, 67, 84
1, 50782, Control_c, 0, 67, 85
1, 50797, Control_c, 0, 67, 86
1, 50812, Control_c, 0, 67, 88
1, 50827, Control_c, 0, 64, 100
1, 50827, Control_c, 0, 67, 89
1, 50834, Note_on_c, 0, 71, 61
1, 50841, Control_c, 0, 64, 83
1, 50841, Control_c, 0, 67, 91
1, 50856, Control_c, 0, 64, 67
1, 50856, Control_c, 0, 67, 93
1, 50864, Note_on_c, 0, 55, 37
1, 50864, Note_on_c, 0, 62, 33
1, 50871, Control_c, 0, 64, 0
1, 50871, Control_c, 0, 67, 94
1, 50878, Note_on_c, 0, 59, 33
1, 50886, Control_c, 0, 67, 96
1, 50900, Control_c, 0, 67, 97
1, 50909, Poly_aftertouch_c, 0, 67, 127
1, 50922, Control_c, 0, 67, 99
1, 50937, Control_c, 0, 67, 101
1, 50948, Poly_aftertouch_c, 0, 65, 127
1, 50953, Control_c, 0, 67, 102
1, 50968, Control_c, 0, 64, 60
1, 50968, Control_c, 0, 67, 104
1, 50983, Control_c, 0, 64, 70
1, 50983, Control_c, 0, 67, 105
1, 50992, Note_off_c, 0, 59, 55
1, 50997, Control_c, 0, 64, 80
1, 50997, Control_c, 0, 67, 107
1, 51012, Control_c, 0, 64, 96
1, 51012, Control_c, 0, 67, 109
1, 51027, Control_c, 0, 64, 127
1, 51027, Control_c, 0, 67, 112
1, 51035, Note_off_c, 0, 55, 44
1, 51042, Control_c, 0, 67, 115
1, 51049, Poly_aftertouch_c, 0, 67, 0
1, 51057, Control_c, 0, 67, 117
1, 51059, Note_off_c, 0, 71, 62
1, 51067, Poly_aftertouch_c, 0, 65, 0
1, 51071, Control_c, 0, 67, 119
1, 51082, Note_off_c, 0, 62, 39
1, 51086, Control_c, 0, 67, 122
1, 51101, Control_c, 0, 67, 125
1, 51116, Control_c, 0, 67, 127
1, 51442, Control_c, 0, 64, 114
1, 51457, Control_c, 0, 64, 88
1, 51461, Note_on_c, 0, 72, 55
1, 51471, Control_c, 0, 64, 71
1, 51486, Control_c, 0, 64, 30
1, 51495, Note_on_c, 0, 36, 36
1, 51501, Control_c, 0, 64, 0
1, 51589, Control_c, 0, 64, 62
1, 51604, Control_c, 0, 64, 71
1, 51619, Control_c, 0, 64, 82
1, 51634, Control_c, 0, 64, 104
1, 51649, Control_c, 0, 64, 127
1, 51654, Note_off_c, 0, 36, 38
1, 52170, Note_on_c, 0, 67, 32
1, 52185, Note_on_c, 0, 60, 27
1, 52185, Note_on_c, 0, 63, 29
1, 52186, Note_on_c, 0, 55, 20
1, 52194, Note_on_c, 0, 51, 30
1, 52229, Note_off_c, 0, 67, 57
1, 52286, Note_off_c, 0, 60, 48
1, 52292, Note_off_c, 0, 51, 49
1, 52295, Note_off_c, 0, 55, 46
1, 52352, Note_off_c, 0, 63, 39
1, 52551, Note_on_c, 0, 70, 39
1, 52658, Note_on_c, 0, 69, 46
1, 52687, Control_c, 0, 64, 113
1, 52702, Control_c, 0, 64, 97
1, 52716, Control_c, 0, 64, 84
1, 52730, Note_off_c, 0, 70, 37
1, 52731, Control_c, 0, 64, 72
1, 52744, Note_off_c, 0, 72, 30
1, 52746, Control_c, 0, 64, 54
1, 52761, Control_c, 0, 64, 0
1, 52792, Note_off_c, 0, 69, 58
1, 52806, Note_on_c, 0, 67, 52
1, 53036, Note_on_c, 0, 69, 49
1, 53044, Note_off_c, 0, 67, 54
1, 53136, Note_on_c, 0, 70, 51
1, 53142, Note_off_c, 0, 69, 60
1, 53222, Note_off_c, 0, 70, 63
1, 53241, Note_on_c, 0, 69, 52
1, 53254, Note_on_c, 0, 55, 39
1, 53264, Note_on_c, 0, 65, 36
1, 53347, Control_c, 0, 64, 40
1, 53351, Note_off_c, 0, 55, 62
1, 53362, Control_c, 0, 64, 64
1, 53377, Control_c, 0, 64, 71
1, 53391, Control_c, 0, 64, 79
1, 53406, Control_c, 0, 64, 91
1, 53421, Control_c, 0, 64, 106
1, 53436, Control_c, 0, 64, 127
1, 53470, Note_on_c, 0, 71, 63
1, 53498, Note_off_c, 0, 69, 53
1, 53541, Note_off_c, 0, 71, 63
1, 53554, Note_on_c, 0, 74, 62
1, 53598, Control_c, 0, 64, 106
1, 53613, Control_c, 0, 64, 82
1, 53628, Control_c, 0, 64, 65
1, 53643, Control_c, 0, 64, 0
1, 53654, Note_on_c, 0, 72, 63
1, 53663, Note_on_c, 0, 60, 42
1, 53664, Note_on_c, 0, 63, 39
1, 53669, Note_off_c, 0, 74, 53
1, 53698, Note_off_c, 0, 65, 34
1, 53747, Note_off_c, 0, 60, 62
1, 53747, Control_c, 0, 64, 62
1, 53762, Control_c, 0, 64, 72
1, 53771, Note_off_c, 0, 63, 61
1, 53776, Control_c, 0, 64, 83
1, 53791, Control_c, 0, 64, 100
1, 53806, Control_c, 0, 64, 127
1, 53855, Note_on_c, 0, 70, 58
1, 53875, Note_off_c, 0, 72, 58
1, 53931, Note_off_c, 0, 70, 61
1, 53937, Note_on_c, 0, 69, 62
1, 54000, Note_off_c, 0, 69, 61
1, 54006, Control_c, 0, 64, 97
1, 54021, Control_c, 0, 64, 72
1, 54021, Note_on_c, 0, 67, 66
1, 54036, Control_c, 0, 64, 40
1, 54051, Control_c, 0, 64, 0
1, 54095, Control_c, 0, 64, 60
1, 54110, Control_c, 0, 64, 71
1, 54124, Control_c, 0, 64, 82
1, 54140, Control_c, 0, 64, 97
1, 54155, Control_c, 0, 64, 127
1, 54155, Control_c, 0, 67, 126
1, 54170, Control_c, 0, 67, 121
1, 54185, Control_c, 0, 67, 114
1, 54200, Control_c, 0, 67, 105
1, 54209, Note_on_c, 0, 69, 57
1, 54215, Control_c, 0, 67, 96
1, 54229, Control_c, 0, 67, 85
1, 54244, Control_c, 0, 67, 78
1, 54259, Control_c, 0, 67, 71
1, 54274, Control_c, 0, 67, 64
1, 54280, Note_on_c, 0, 70, 64
1, 54288, Control_c, 0, 67, 59
1, 54299, Note_off_c, 0, 69, 60
1, 54303, Control_c, 0, 67, 55
1, 54318, Control_c, 0, 64, 93
1, 54318, Control_c, 0, 67, 50
1, 54332, Control_c, 0, 64, 74
1, 54332, Control_c, 0, 67, 44
1, 54347, Control_c, 0, 64, 52
1, 54347, Control_c, 0, 67, 37
1, 54355, Note_off_c, 0, 70, 61
1, 54362, Control_c, 0, 64, 0
1, 54362, Control_c, 0, 67, 29
1, 54368, Note_on_c, 0, 66, 61
1, 54373, Note_on_c, 0, 69, 49
1, 54377, Control_c, 0, 67, 17
1, 54387, Note_off_c, 0, 67, 56
1, 54392, Control_c, 0, 64, 52
1, 54392, Control_c, 0, 67, 0
1, 54406, Control_c, 0, 64, 66
1, 54421, Control_c, 0, 64, 77
1, 54436, Control_c, 0, 64, 91
1, 54451, Control_c, 0, 64, 109
1, 54466, Control_c, 0, 64, 119
1, 54510, Control_c, 0, 64, 119
1, 54525, Control_c, 0, 64, 118
1, 54540, Control_c, 0, 64, 110
1, 54554, Control_c, 0, 64, 98
1, 54558, Note_on_c, 0, 71, 58
1, 54569, Control_c, 0, 64, 85
1, 54584, Control_c, 0, 64, 70
1, 54599, Control_c, 0, 64, 34
1, 54614, Control_c, 0, 64, 0
1, 54635, Note_on_c, 0, 72, 56
1, 54638, Note_off_c, 0, 71, 63
1, 54701, Note_off_c, 0, 72, 61
1, 54727, Note_off_c, 0, 66, 59
1, 54731, Note_off_c, 0, 69, 52
1, 54735, Note_on_c, 0, 65, 54
1, 54735, Note_on_c, 0, 71, 54
1, 54769, Control_c, 0, 64, 59
1, 54784, Control_c, 0, 64, 69
1, 54799, Control_c, 0, 64, 77
1, 54814, Control_c, 0, 64, 87
1, 54829, Control_c, 0, 64, 96
1, 54844, Control_c, 0, 64, 100
1, 54859, Control_c, 0, 64, 101
1, 54873, Control_c, 0, 64, 102
1, 54934, Note_on_c, 0, 72, 54
1, 55011, Note_off_c, 0, 72, 61
1, 55031, Note_on_c, 0, 74, 53
1, 55037, Control_c, 0, 64, 101
1, 55052, Control_c, 0, 64, 98
1, 55055, Note_off_c, 0, 74, 62
1, 55067, Control_c, 0, 64, 92
1, 55081, Control_c, 0, 64, 84
1, 55096, Control_c, 0, 64, 73
1, 55111, Control_c, 0, 64, 60
1, 55126, Control_c, 0, 64, 0
1, 55152, Note_off_c, 0, 71, 39
1, 55153, Note_on_c, 0, 63, 47
1, 55159, Note_off_c, 0, 65, 43
1, 55164, Note_on_c, 0, 72, 44
1, 55215, Control_c, 0, 64, 62
1, 55229, Control_c, 0, 64, 71
1, 55244, Control_c, 0, 64, 82
1, 55259, Control_c, 0, 64, 104
1, 55274, Control_c, 0, 64, 127
1, 55314, Note_off_c, 0, 63, 58
1, 55365, Note_off_c, 0, 72, 59
1, 55415, Note_on_c, 0, 86, 58
1, 55487, Note_on_c, 0, 84, 65
1, 55505, Note_off_c, 0, 86, 64
1, 55542, Note_off_c, 0, 84, 63
1, 55562, Control_c, 0, 64, 100
1, 55577, Control_c, 0, 64, 79
1, 55592, Control_c, 0, 64, 63
1, 55607, Note_on_c, 0, 69, 48
1, 55607, Control_c, 0, 64, 0
1, 55615, Note_on_c, 0, 75, 61
1, 55619, Note_on_c, 0, 65, 46
1, 55637, Control_c, 0, 64, 53
1, 55651, Control_c, 0, 64, 65
1, 55666, Control_c, 0, 64, 72
1, 55681, Control_c, 0, 64, 80
1, 55696, Control_c, 0, 64, 93
1, 55711, Control_c, 0, 64, 117
1, 55726, Control_c, 0, 64, 127
1, 55782, Note_on_c, 0, 79, 61
1, 55789, Note_off_c, 0, 65, 37
1, 55819, Note_off_c, 0, 75, 53
1, 55821, Note_off_c, 0, 79, 62
1, 55849, Note_on_c, 0, 77, 70
1, 55852, Note_off_c, 0, 69, 36
1, 55890, Control_c, 0, 64, 91
1, 55896, Note_off_c, 0, 77, 57
1, 55904, Control_c, 0, 64, 69
1, 55919, Control_c, 0, 64, 0
1, 55935, Note_on_c, 0, 70, 61
1, 55938, Note_on_c, 0, 74, 63
1, 55964, Control_c, 0, 64, 55
1, 55978, Control_c, 0, 64, 71
1, 55993, Control_c, 0, 64, 87
1, 56008, Control_c, 0, 64, 127
1, 56020, Note_off_c, 0, 70, 63
1, 56041, Note_off_c, 0, 74, 61
1, 56093, Note_on_c, 0, 87, 81
1, 56170, Note_on_c, 0, 86, 73
1, 56204, Note_off_c, 0, 87, 63
1, 56221, Note_off_c, 0, 86, 64
1, 56224, Control_c, 0, 64, 88
1, 56239, Control_c, 0, 64, 65
1, 56254, Control_c, 0, 64, 0
1, 56258, Note_on_c, 0, 77, 69
1, 56265, Note_on_c, 0, 71, 64
1, 56267, Note_on_c, 0, 67, 59
1, 56312, Control_c, 0, 64, 26
1, 56327, Control_c, 0, 64, 65
1, 56342, Control_c, 0, 64, 78
1, 56357, Control_c, 0, 64, 99
1, 56372, Control_c, 0, 64, 127
1, 56374, Note_off_c, 0, 71, 63
1, 56375, Note_off_c, 0, 67, 59
1, 56428, Note_on_c, 0, 80, 69
1, 56479, Note_off_c, 0, 80, 63
1, 56488, Note_on_c, 0, 79, 76
1, 56510, Note_off_c, 0, 77, 56
1, 56553, Note_off_c, 0, 79, 56
1, 56565, Control_c, 0, 64, 92
1, 56580, Control_c, 0, 64, 66
1, 56584, Note_on_c, 0, 72, 69
1, 56584, Note_on_c, 0, 75, 69
1, 56595, Control_c, 0, 64, 0
1, 56639, Control_c, 0, 64, 42
1, 56654, Control_c, 0, 64, 69
1, 56669, Control_c, 0, 64, 85
1, 56683, Control_c, 0, 64, 127
1, 56695, Note_off_c, 0, 72, 55
1, 56734, Note_on_c, 0, 89, 85
1, 56739, Note_off_c, 0, 75, 54
1, 56808, Note_on_c, 0, 87, 75
1, 56838, Note_off_c, 0, 89, 61
1, 56868, Note_off_c, 0, 87, 65
1, 56980, Note_on_c, 0, 79, 78
1, 56987, Control_c, 0, 64, 110
1, 56988, Note_on_c, 0, 73, 66
1, 56990, Note_on_c, 0, 69, 61
1, 57002, Control_c, 0, 64, 86
1, 57017, Control_c, 0, 64, 69
1, 57032, Control_c, 0, 64, 0
1, 57121, Control_c, 0, 64, 50
1, 57135, Control_c, 0, 64, 67
1, 57150, Control_c, 0, 64, 78
1, 57165, Control_c, 0, 64, 100
1, 57180, Control_c, 0, 64, 127
1, 57210, Note_on_c, 0, 82, 60
1, 57281, Note_off_c, 0, 79, 59
1, 57311, Note_off_c, 0, 82, 62
1, 57315, Note_on_c, 0, 81, 64
1, 57380, Note_off_c, 0, 81, 47
1, 57414, Note_on_c, 0, 77, 77
1, 57418, Control_c, 0, 64, 114
1, 57432, Control_c, 0, 64, 84
1, 57447, Control_c, 0, 64, 67
1, 57462, Control_c, 0, 64, 0
1, 57506, Control_c, 0, 64, 30
1, 57521, Control_c, 0, 64, 63
1, 57536, Control_c, 0, 64, 75
1, 57551, Control_c, 0, 64, 90
1, 57565, Control_c, 0, 64, 127
1, 57589, Note_on_c, 0, 81, 63
1, 57678, Note_on_c, 0, 79, 65
1, 57689, Note_off_c, 0, 81, 59
1, 57735, Control_c, 0, 64, 93
1, 57739, Note_off_c, 0, 79, 61
1, 57747, Note_on_c, 0, 75, 74
1, 57750, Note_off_c, 0, 77, 58
1, 57750, Control_c, 0, 64, 71
1, 57765, Control_c, 0, 64, 23
1, 57780, Control_c, 0, 64, 0
1, 57810, Control_c, 0, 64, 57
1, 57825, Control_c, 0, 64, 72
1, 57839, Control_c, 0, 64, 88
1, 57852, Note_off_c, 0, 69, 59
1, 57854, Control_c, 0, 64, 127
1, 57869, Note_off_c, 0, 73, 56
1, 57889, Note_on_c, 0, 79, 63
1, 57974, Note_on_c, 0, 77, 63
1, 57978, Note_off_c, 0, 79, 56
1, 58018, Note_off_c, 0, 77, 60
1, 58046, Note_off_c, 0, 75, 60
1, 58057, Note_on_c, 0, 74, 72
1, 58061, Note_on_c, 0, 70, 61
1, 58061, Control_c, 0, 64, 91
1, 58075, Control_c, 0, 64, 71
1, 58090, Control_c, 0, 64, 0
1, 58195, Control_c, 0, 64, 55
1, 58210, Control_c, 0, 64, 68
1, 58218, Note_on_c, 0, 77, 56
1, 58225, Control_c, 0, 64, 79
1, 58240, Control_c, 0, 64, 96
1, 58254, Control_c, 0, 64, 127
1, 58292, Note_on_c, 0, 75, 62
1, 58293, Note_off_c, 0, 77, 60
1, 58350, Note_off_c, 0, 75, 61
1, 58358, Control_c, 0, 64, 95
1, 58373, Note_off_c, 0, 74, 60
1, 58373, Control_c, 0, 64, 73
1, 58376, Note_on_c, 0, 72, 63
1, 58388, Control_c, 0, 64, 0
1, 58455, Control_c, 0, 64, 57
1, 58461, Note_off_c, 0, 70, 62
1, 58469, Control_c, 0, 64, 71
1, 58484, Control_c, 0, 64, 88
1, 58487, Note_off_c, 0, 72, 65
1, 58499, Control_c, 0, 64, 121
1, 58513, Control_c, 0, 64, 127
1, 58536, Note_on_c, 0, 75, 50
1, 58607, Note_on_c, 0, 74, 56
1, 58622, Note_off_c, 0, 75, 54
1, 58650, Note_off_c, 0, 74, 62
1, 58677, Control_c, 0, 64, 94
1, 58692, Control_c, 0, 64, 75
1, 58706, Control_c, 0, 64, 57
1, 58712, Note_on_c, 0, 70, 50
1, 58713, Note_on_c, 0, 62, 42
1, 58721, Note_on_c, 0, 66, 43
1, 58721, Control_c, 0, 64, 0
1, 58766, Control_c, 0, 64, 42
1, 58780, Control_c, 0, 64, 64
1, 58795, Control_c, 0, 64, 72
1, 58810, Control_c, 0, 64, 82
1, 58825, Control_c, 0, 64, 96
1, 58839, Control_c, 0, 64, 117
1, 58854, Control_c, 0, 64, 127
1, 58881, Note_on_c, 0, 74, 51
1, 58942, Note_off_c, 0, 70, 45
1, 58957, Note_on_c, 0, 72, 42
1, 58982, Note_off_c, 0, 74, 56
1, 59033, Control_c, 0, 64, 103
1, 59037, Note_off_c, 0, 72, 56
1, 59047, Note_on_c, 0, 69, 53
1, 59048, Control_c, 0, 64, 84
1, 59063, Control_c, 0, 64, 65
1, 59077, Control_c, 0, 64, 0
1, 59121, Control_c, 0, 64, 26
1, 59136, Control_c, 0, 64, 63
1, 59160, Control_c, 0, 64, 74
1, 59175, Control_c, 0, 64, 86
1, 59190, Control_c, 0, 64, 107
1, 59205, Control_c, 0, 64, 127
1, 59223, Note_on_c, 0, 72, 49
1, 59282, Note_off_c, 0, 72, 61
1, 59310, Note_on_c, 0, 70, 56
1, 59387, Note_off_c, 0, 66, 57
1, 59397, Control_c, 0, 64, 103
1, 59411, Control_c, 0, 64, 80
1, 59419, Note_on_c, 0, 63, 56
1, 59423, Note_off_c, 0, 70, 54
1, 59424, Note_on_c, 0, 67, 59
1, 59426, Control_c, 0, 64, 49
1, 59434, Note_off_c, 0, 69, 51
1, 59441, Control_c, 0, 64, 0
1, 59462, Note_off_c, 0, 62, 58
1, 59585, Note_on_c, 0, 82, 80
1, 59598, Note_on_c, 0, 79, 68
1, 59604, Control_c, 0, 64, 61
1, 59619, Control_c, 0, 64, 71
1, 59634, Control_c, 0, 64, 87
1, 59649, Control_c, 0, 64, 115
1, 59663, Control_c, 0, 64, 127
1, 59687, Note_off_c, 0, 79, 59
1, 59705, Note_on_c, 0, 70, 68
1, 59819, Note_on_c, 0, 65, 73
1, 59854, Note_off_c, 0, 70, 62
1, 59855, Note_off_c, 0, 82, 64
1, 59859, Note_off_c, 0, 67, 62
1, 59877, Note_off_c, 0, 63, 59
1, 59914, Note_off_c, 0, 65, 60
1, 59938, Control_c, 0, 64, 111
1, 59943, Note_on_c, 0, 81, 84
1, 59953, Control_c, 0, 64, 107
1, 59964, Note_on_c, 0, 77, 63
1, 59983, Control_c, 0, 64, 111
1, 59998, Control_c, 0, 64, 127
1, 60025, Note_on_c, 0, 69, 73
1, 60101, Control_c, 0, 64, 124
1, 60111, Note_on_c, 0, 63, 72
1, 60111, Note_off_c, 0, 77, 45
1, 60116, Note_on_c, 0, 55, 55
1, 60116, Control_c, 0, 64, 87
1, 60123, Note_off_c, 0, 69, 59
1, 60123, Note_off_c, 0, 81, 58
1, 60130, Note_on_c, 0, 59, 57
1, 60131, Control_c, 0, 64, 68
1, 60146, Control_c, 0, 64, 42
1, 60160, Control_c, 0, 64, 49
1, 60175, Control_c, 0, 64, 65
1, 60190, Control_c, 0, 64, 76
1, 60205, Control_c, 0, 64, 103
1, 60220, Control_c, 0, 64, 127
1, 60239, Note_on_c, 0, 79, 85
1, 60254, Note_on_c, 0, 75, 66
1, 60318, Note_off_c, 0, 63, 52
1, 60326, Note_off_c, 0, 75, 61
1, 60332, Note_on_c, 0, 67, 66
1, 60367, Control_c, 0, 64, 95
1, 60382, Control_c, 0, 64, 68
1, 60397, Control_c, 0, 64, 0
1, 60403, Note_on_c, 0, 62, 73
1, 60412, Note_off_c, 0, 67, 55
1, 60422, Note_off_c, 0, 79, 58
1, 60427, Control_c, 0, 64, 53
1, 60442, Control_c, 0, 64, 69
1, 60457, Control_c, 0, 64, 89
1, 60470, Note_off_c, 0, 55, 60
1, 60472, Control_c, 0, 64, 127
1, 60475, Note_off_c, 0, 59, 59
1, 60510, Note_off_c, 0, 62, 61
1, 60524, Note_on_c, 0, 77, 74
1, 60545, Note_on_c, 0, 74, 58
1, 60603, Note_on_c, 0, 65, 66
1, 60657, Control_c, 0, 64, 121
1, 60659, Note_off_c, 0, 65, 61
1, 60659, Note_off_c, 0, 77, 55
1, 60672, Control_c, 0, 64, 85
1, 60687, Control_c, 0, 64, 65
1, 60692, Note_off_c, 0, 74, 48
1, 60701, Control_c, 0, 64, 0
1, 60707, Note_on_c, 0, 56, 49
1, 60713, Note_on_c, 0, 60, 45
1, 60840, Note_on_c, 0, 77, 39
1, 60871, Note_on_c, 0, 72, 26
1, 60880, Control_c, 0, 67, 9
1, 60895, Control_c, 0, 67, 12
1, 60906, Note_off_c, 0, 77, 54
1, 60909, Control_c, 0, 67, 17
1, 60913, Note_on_c, 0, 75, 54
1, 60924, Control_c, 0, 67, 21
1, 60939, Control_c, 0, 67, 26
1, 60954, Control_c, 0, 67, 30
1, 60965, Note_off_c, 0, 72, 43
1, 60969, Control_c, 0, 67, 34
1, 60983, Control_c, 0, 67, 38
1, 60998, Control_c, 0, 67, 41
1, 61011, Note_off_c, 0, 75, 45
1, 61013, Control_c, 0, 67, 45
1, 61027, Control_c, 0, 67, 49
1, 61038, Note_on_c, 0, 70, 61
1, 61042, Control_c, 0, 67, 52
1, 61057, Control_c, 0, 67, 54
1, 61072, Control_c, 0, 64, 52
1, 61072, Control_c, 0, 67, 56
1, 61087, Control_c, 0, 64, 66
1, 61087, Control_c, 0, 67, 59
1, 61101, Control_c, 0, 64, 74
1, 61101, Control_c, 0, 67, 62
1, 61116, Control_c, 0, 64, 84
1, 61116, Control_c, 0, 67, 65
1, 61131, Control_c, 0, 64, 97
1, 61131, Control_c, 0, 67, 68
1, 61136, Note_off_c, 0, 60, 59
1, 61142, Note_off_c, 0, 56, 58
1, 61146, Control_c, 0, 64, 122
1, 61146, Control_c, 0, 67, 71
1, 61161, Control_c, 0, 64, 127
1, 61161, Control_c, 0, 67, 74
1, 61175, Control_c, 0, 67, 77
1, 61190, Control_c, 0, 67, 78
1, 61199, Note_off_c, 0, 70, 59
1, 61199, Note_on_c, 0, 75, 47
1, 61205, Control_c, 0, 67, 80
1, 61220, Control_c, 0, 67, 81
1, 61235, Control_c, 0, 67, 83
1, 61250, Control_c, 0, 67, 85
1, 61264, Control_c, 0, 67, 88
1, 61279, Control_c, 0, 67, 90
1, 61280, Note_on_c, 0, 74, 52
1, 61294, Control_c, 0, 67, 92
1, 61309, Control_c, 0, 67, 94
1, 61312, Note_off_c, 0, 75, 36
1, 61324, Control_c, 0, 67, 94
1, 61333, Note_off_c, 0, 74, 52
1, 61339, Control_c, 0, 67, 95
1, 61354, Control_c, 0, 67, 97
1, 61364, Note_on_c, 0, 60, 50
1, 61369, Control_c, 0, 67, 98
1, 61375, Note_on_c, 0, 68, 61
1, 61376, Note_on_c, 0, 63, 46
1, 61384, Control_c, 0, 64, 94
1, 61384, Control_c, 0, 67, 100
1, 61405, Control_c, 0, 64, 75
1, 61405, Control_c, 0, 67, 103
1, 61420, Control_c, 0, 64, 61
1, 61420, Control_c, 0, 67, 105
1, 61435, Control_c, 0, 64, 35
1, 61435, Control_c, 0, 67, 106
1, 61450, Control_c, 0, 64, 56
1, 61450, Control_c, 0, 67, 107
1, 61464, Control_c, 0, 64, 65
1, 61464, Control_c, 0, 67, 107
1, 61479, Control_c, 0, 64, 71
1, 61494, Control_c, 0, 64, 81
1, 61494, Control_c, 0, 67, 108
1, 61509, Control_c, 0, 64, 95
1, 61524, Control_c, 0, 64, 127
1, 61556, Note_on_c, 0, 74, 52
1, 61609, Note_off_c, 0, 74, 57
1, 61629, Note_on_c, 0, 72, 47
1, 61643, Note_off_c, 0, 68, 31
1, 61687, Control_c, 0, 64, 113
1, 61702, Control_c, 0, 64, 87
1, 61707, Note_on_c, 0, 67, 58
1, 61716, Note_off_c, 0, 72, 53
1, 61717, Control_c, 0, 64, 68
1, 61731, Control_c, 0, 64, 46
1, 61746, Control_c, 0, 64, 47
1, 61761, Control_c, 0, 64, 62
1, 61776, Control_c, 0, 64, 69
1, 61776, Control_c, 0, 67, 107
1, 61791, Control_c, 0, 64, 78
1, 61805, Control_c, 0, 64, 96
1, 61820, Control_c, 0, 64, 127
1, 61820, Control_c, 0, 67, 107
1, 61825, Note_off_c, 0, 60, 59
1, 61835, Control_c, 0, 67, 106
1, 61858, Note_off_c, 0, 63, 58
1, 61864, Control_c, 0, 67, 106
1, 61874, Note_on_c, 0, 72, 45
1, 61879, Control_c, 0, 67, 105
1, 61909, Control_c, 0, 67, 105
1, 61923, Control_c, 0, 67, 104
1, 61938, Control_c, 0, 67, 103
1, 61953, Note_on_c, 0, 70, 56
1, 61953, Note_off_c, 0, 72, 62
1, 61953, Control_c, 0, 67, 102
1, 61968, Control_c, 0, 67, 101
1, 61983, Control_c, 0, 67, 99
1, 61998, Control_c, 0, 67, 97
1, 62007, Note_off_c, 0, 67, 46
1, 62013, Control_c, 0, 64, 106
1, 62013, Control_c, 0, 67, 96
1, 62028, Control_c, 0, 64, 83
1, 62028, Control_c, 0, 67, 94
1, 62042, Control_c, 0, 64, 65
1, 62042, Control_c, 0, 67, 88
1, 62057, Control_c, 0, 64, 0
1, 62057, Control_c, 0, 67, 77
1, 62061, Note_on_c, 0, 66, 67
1, 62062, Note_on_c, 0, 62, 63
1, 62072, Control_c, 0, 67, 61
1, 62087, Control_c, 0, 67, 40
1, 62096, Note_off_c, 0, 70, 62
1, 62102, Control_c, 0, 67, 13
1, 62117, Control_c, 0, 67, 0
1, 62212, Note_on_c, 0, 81, 85
1, 62227, Note_on_c, 0, 78, 69
1, 62273, Control_c, 0, 64, 14
1, 62287, Control_c, 0, 64, 65
1, 62302, Control_c, 0, 64, 76
1, 62312, Note_on_c, 0, 69, 71
1, 62317, Control_c, 0, 64, 98
1, 62332, Control_c, 0, 64, 127
1, 62397, Note_on_c, 0, 63, 80
1, 62418, Note_off_c, 0, 78, 60
1, 62430, Note_off_c, 0, 62, 55
1, 62430, Note_off_c, 0, 81, 61
1, 62434, Note_off_c, 0, 69, 59
1, 62464, Note_off_c, 0, 66, 61
1, 62497, Note_off_c, 0, 63, 60
1, 62511, Note_on_c, 0, 79, 90
1, 62525, Control_c, 0, 64, 100
1, 62525, Note_on_c, 0, 75, 75
1, 62540, Control_c, 0, 64, 83
1, 62554, Control_c, 0, 64, 74
1, 62569, Control_c, 0, 64, 75
1, 62584, Control_c, 0, 64, 84
1, 62595, Note_on_c, 0, 67, 79
1, 62599, Control_c, 0, 64, 104
1, 62614, Control_c, 0, 64, 127
1, 62623, Note_off_c, 0, 75, 61
1, 62630, Note_off_c, 0, 79, 59
1, 62669, Note_on_c, 0, 54, 72
1, 62671, Note_off_c, 0, 67, 61
1, 62673, Note_on_c, 0, 62, 68
1, 62717, Control_c, 0, 64, 93
1, 62732, Control_c, 0, 64, 70
1, 62746, Control_c, 0, 64, 0
1, 62788, Note_on_c, 0, 78, 81
1, 62791, Control_c, 0, 64, 58
1, 62793, Note_on_c, 0, 74, 80
1, 62806, Control_c, 0, 64, 71
1, 62820, Control_c, 0, 64, 89
1, 62835, Control_c, 0, 64, 127
1, 62870, Note_on_c, 0, 66, 77
1, 62934, Control_c, 0, 64, 93
1, 62949, Control_c, 0, 64, 68
1, 62958, Note_off_c, 0, 66, 51
1, 62961, Note_off_c, 0, 78, 60
1, 62964, Note_on_c, 0, 60, 69
1, 62964, Control_c, 0, 64, 0
1, 62982, Note_off_c, 0, 74, 58
1, 63014, Note_off_c, 0, 62, 35
1, 63023, Control_c, 0, 64, 59
1, 63038, Control_c, 0, 64, 72
1, 63052, Control_c, 0, 64, 92
1, 63059, Note_off_c, 0, 54, 58
1, 63067, Control_c, 0, 64, 127
1, 63077, Note_on_c, 0, 72, 69
1, 63078, Note_on_c, 0, 75, 68
1, 63122, Note_off_c, 0, 60, 56
1, 63151, Note_off_c, 0, 72, 60
1, 63152, Note_on_c, 0, 63, 65
1, 63170, Note_off_c, 0, 75, 55
1, 63250, Note_off_c, 0, 63, 39
1, 63259, Control_c, 0, 64, 97
1, 63274, Control_c, 0, 64, 77
1, 63275, Note_on_c, 0, 58, 50
1, 63277, Note_on_c, 0, 55, 46
1, 63289, Control_c, 0, 64, 55
1, 63303, Control_c, 0, 64, 0
1, 63426, Note_on_c, 0, 74, 50
1, 63449, Note_on_c, 0, 70, 42
1, 63482, Control_c, 0, 64, 56
1, 63496, Control_c, 0, 64, 68
1, 63511, Control_c, 0, 64, 80
1, 63526, Control_c, 0, 64, 104
1, 63539, Note_on_c, 0, 62, 44
1, 63541, Control_c, 0, 64, 127
1, 63575, Note_off_c, 0, 62, 60
1, 63588, Note_off_c, 0, 74, 57
1, 63628, Note_off_c, 0, 70, 60
1, 63662, Note_off_c, 0, 55, 41
1, 63677, Note_on_c, 0, 56, 47
1, 63690, Note_on_c, 0, 62, 51
1, 63696, Control_c, 0, 64, 109
1, 63711, Control_c, 0, 64, 85
1, 63727, Control_c, 0, 64, 65
1, 63742, Control_c, 0, 64, 0
1, 63779, Note_off_c, 0, 58, 29
1, 63786, Control_c, 0, 64, 61
1, 63801, Control_c, 0, 64, 70
1, 63816, Control_c, 0, 64, 84
1, 63831, Control_c, 0, 64, 105
1, 63837, Note_on_c, 0, 76, 57
1, 63838, Note_off_c, 0, 56, 56
1, 63846, Control_c, 0, 64, 127
1, 63928, Note_on_c, 0, 64, 54
1, 63975, Note_off_c, 0, 64, 60
1, 63979, Control_c, 0, 64, 99
1, 63994, Control_c, 0, 64, 76
1, 64001, Note_off_c, 0, 62, 36
1, 64003, Note_off_c, 0, 76, 57
1, 64008, Control_c, 0, 64, 27
1, 64019, Note_on_c, 0, 57, 46
1, 64023, Control_c, 0, 64, 0
1, 64024, Note_on_c, 0, 61, 54
1, 64052, Control_c, 0, 64, 54
1, 64067, Control_c, 0, 64, 68
1, 64082, Control_c, 0, 64, 81
1, 64097, Control_c, 0, 64, 112
1, 64112, Control_c, 0, 64, 127
1, 64125, Note_off_c, 0, 57, 58
1, 64141, Note_on_c, 0, 77, 66
1, 64171, Note_off_c, 0, 61, 60
1, 64212, Note_on_c, 0, 65, 62
1, 64260, Control_c, 0, 64, 90
1, 64275, Control_c, 0, 64, 67
1, 64281, Note_off_c, 0, 65, 59
1, 64290, Control_c, 0, 64, 0
1, 64301, Note_on_c, 0, 64, 63
1, 64305, Note_off_c, 0, 77, 57
1, 64306, Note_on_c, 0, 58, 54
1, 64334, Control_c, 0, 64, 62
1, 64349, Control_c, 0, 64, 75
1, 64364, Control_c, 0, 64, 95
1, 64379, Control_c, 0, 64, 127
1, 64438, Note_on_c, 0, 79, 69
1, 64452, Note_off_c, 0, 58, 56
1, 64509, Note_on_c, 0, 67, 62
1, 64535, Control_c, 0, 64, 111
1, 64549, Control_c, 0, 64, 81
1, 64550, Note_off_c, 0, 64, 57
1, 64564, Control_c, 0, 64, 55
1, 64566, Note_off_c, 0, 79, 62
1, 64579, Control_c, 0, 64, 0
1, 64582, Note_off_c, 0, 67, 62
1, 64588, Note_on_c, 0, 62, 60
1, 64597, Note_on_c, 0, 59, 55
1, 64624, Control_c, 0, 64, 55
1, 64639, Control_c, 0, 64, 71
1, 64654, Control_c, 0, 64, 85
1, 64668, Control_c, 0, 64, 120
1, 64683, Control_c, 0, 64, 127
1, 64689, Note_off_c, 0, 59, 60
1, 64697, Note_off_c, 0, 62, 61
1, 64707, Note_on_c, 0, 80, 75
1, 64775, Note_on_c, 0, 68, 72
1, 64817, Control_c, 0, 64, 103
1, 64831, Control_c, 0, 64, 75
1, 64845, Note_on_c, 0, 60, 62
1, 64846, Control_c, 0, 64, 0
1, 64848, Note_on_c, 0, 65, 63
1, 64857, Note_off_c, 0, 68, 60
1, 64869, Note_off_c, 0, 80, 60
1, 64920, Control_c, 0, 64, 56
1, 64935, Control_c, 0, 64, 66
1, 64949, Control_c, 0, 64, 65
1, 64953, Note_on_c, 0, 81, 84
1, 64964, Control_c, 0, 64, 57
1, 64979, Control_c, 0, 64, 0
1, 65021, Note_on_c, 0, 69, 76
1, 65081, Note_off_c, 0, 69, 64
1, 65103, Note_off_c, 0, 81, 64
1, 65115, Note_on_c, 0, 61, 63
1, 65116, Note_on_c, 0, 64, 68
1, 65123, Note_off_c, 0, 65, 57
1, 65160, Note_off_c, 0, 60, 60
1, 65193, Control_c, 0, 64, 65
1, 65207, Control_c, 0, 64, 81
1, 65222, Control_c, 0, 64, 118
1, 65237, Control_c, 0, 64, 127
1, 65241, Note_on_c, 0, 84, 76
1, 65265, Note_off_c, 0, 64, 62
1, 65291, Note_off_c, 0, 61, 59
1, 65332, Note_on_c, 0, 72, 69
1, 65405, Note_off_c, 0, 72, 62
1, 65406, Note_off_c, 0, 84, 62
1, 65408, Note_on_c, 0, 67, 66
1, 65416, Note_on_c, 0, 62, 60
1, 65416, Control_c, 0, 64, 99
1, 65431, Control_c, 0, 64, 76
1, 65445, Control_c, 0, 64, 51
1, 65460, Control_c, 0, 64, 0
1, 65489, Control_c, 0, 64, 60
1, 65504, Control_c, 0, 64, 69
1, 65512, Note_on_c, 0, 82, 85
1, 65519, Control_c, 0, 64, 84
1, 65534, Control_c, 0, 64, 106
1, 65549, Control_c, 0, 64, 127
1, 65584, Note_on_c, 0, 70, 80
1, 65637, Control_c, 0, 64, 109
1, 65643, Note_off_c, 0, 82, 63
1, 65652, Control_c, 0, 64, 79
1, 65657, Note_on_c, 0, 66, 73
1, 65658, Note_on_c, 0, 63, 67
1, 65667, Control_c, 0, 64, 38
1, 65668, Note_off_c, 0, 70, 58
1, 65670, Note_off_c, 0, 67, 55
1, 65681, Note_off_c, 0, 62, 58
1, 65682, Control_c, 0, 64, 0
1, 65727, Control_c, 0, 64, 62
1, 65742, Control_c, 0, 64, 78
1, 65755, Note_off_c, 0, 63, 58
1, 65757, Control_c, 0, 64, 109
1, 65763, Note_on_c, 0, 81, 89
1, 65765, Note_off_c, 0, 66, 61
1, 65771, Control_c, 0, 64, 127
1, 65827, Note_on_c, 0, 69, 82
1, 65871, Note_on_c, 0, 75, 9
1, 65871, Note_off_c, 0, 69, 66
1, 65897, Note_off_c, 0, 81, 64
1, 65897, Control_c, 0, 64, 92
1, 65912, Control_c, 0, 64, 66
1, 65913, Note_on_c, 0, 69, 63
1, 65918, Note_on_c, 0, 64, 75
1, 65924, Note_off_c, 0, 75, 50
1, 65927, Control_c, 0, 64, 0
1, 65986, Control_c, 0, 64, 34
1, 66001, Control_c, 0, 64, 69
1, 66014, Note_on_c, 0, 84, 91
1, 66016, Control_c, 0, 64, 84
1, 66031, Control_c, 0, 64, 114
1, 66046, Control_c, 0, 64, 127
1, 66076, Note_on_c, 0, 72, 79
1, 66120, Control_c, 0, 64, 112
1, 66121, Note_off_c, 0, 72, 63
1, 66135, Control_c, 0, 64, 79
1, 66140, Note_off_c, 0, 84, 65
1, 66150, Control_c, 0, 64, 0
1, 66162, Note_on_c, 0, 65, 76
1, 66163, Note_on_c, 0, 68, 77
1, 66174, Note_off_c, 0, 69, 60
1, 66187, Note_off_c, 0, 64, 63
1, 66210, Control_c, 0, 64, 24
1, 66225, Control_c, 0, 64, 66
1, 66239, Control_c, 0, 64, 79
1, 66254, Control_c, 0, 64, 104
1, 66263, Note_off_c, 0, 65, 63
1, 66269, Control_c, 0, 64, 127
1, 66271, Note_on_c, 0, 87, 93
1, 66293, Note_off_c, 0, 68, 61
1, 66339, Note_on_c, 0, 75, 82
1, 66413, Note_off_c, 0, 87, 64
1, 66414, Note_on_c, 0, 72, 82
1, 66415, Note_on_c, 0, 66, 77
1, 66417, Control_c, 0, 64, 99
1, 66422, Note_off_c, 0, 75, 59
1, 66432, Control_c, 0, 64, 73
1, 66446, Control_c, 0, 64, 0
1, 66491, Control_c, 0, 64, 62
1, 66506, Control_c, 0, 64, 74
1, 66520, Control_c, 0, 64, 94
1, 66523, Note_on_c, 0, 86, 92
1, 66535, Control_c, 0, 64, 127
1, 66553, Note_off_c, 0, 66, 55
1, 66557, Note_off_c, 0, 72, 59
1, 66585, Note_on_c, 0, 74, 81
1, 66624, Control_c, 0, 64, 121
1, 66630, Note_off_c, 0, 74, 66
1, 66646, Control_c, 0, 64, 80
1, 66661, Control_c, 0, 64, 0
1, 66662, Note_off_c, 0, 86, 67
1, 66673, Note_on_c, 0, 67, 82
1, 66673, Note_on_c, 0, 71, 79
1, 66720, Control_c, 0, 64, 53
1, 66735, Control_c, 0, 64, 72
1, 66750, Control_c, 0, 64, 93
1, 66765, Control_c, 0, 64, 127
1, 66782, Note_on_c, 0, 89, 102
1, 66806, Note_off_c, 0, 67, 59
1, 66820, Note_off_c, 0, 71, 64
1, 66851, Note_on_c, 0, 77, 78
1, 66913, Control_c, 0, 64, 103
1, 66927, Note_on_c, 0, 68, 78
1, 66927, Note_on_c, 0, 74, 83
1, 66929, Control_c, 0, 64, 75
1, 66931, Note_off_c, 0, 89, 56
1, 66943, Control_c, 0, 64, 0
1, 66945, Note_off_c, 0, 77, 58
1, 66973, Control_c, 0, 64, 56
1, 66988, Control_c, 0, 64, 70
1, 67003, Control_c, 0, 64, 87
1, 67018, Control_c, 0, 64, 127
1, 67041, Note_on_c, 0, 88, 99
1, 67067, Note_off_c, 0, 74, 63
1, 67074, Note_off_c, 0, 68, 58
1, 67117, Note_on_c, 0, 76, 87
1, 67149, Poly_aftertouch_c, 0, 82, 127
1, 67179, Note_off_c, 0, 76, 64
1, 67181, Control_c, 0, 64, 101
1, 67196, Note_on_c, 0, 73, 84
1, 67196, Control_c, 0, 64, 75
1, 67196, Note_on_c, 0, 69, 82
1, 67198, Note_off_c, 0, 88, 64
1, 67210, Control_c, 0, 64, 31
1, 67211, Poly_aftertouch_c, 0, 82, 0
1, 67225, Control_c, 0, 64, 0
1, 67240, Control_c, 0, 64, 26
1, 67255, Control_c, 0, 64, 66
1, 67269, Control_c, 0, 64, 81
1, 67284, Control_c, 0, 64, 118
1, 67299, Control_c, 0, 64, 127
1, 67313, Note_on_c, 0, 91, 105
1, 67355, Note_off_c, 0, 69, 55
1, 67386, Note_off_c, 0, 73, 61
1, 67410, Note_on_c, 0, 79, 85
1, 67488, Note_off_c, 0, 79, 57
1, 67495, Note_off_c, 0, 91, 61
1, 67499, Note_on_c, 0, 74, 89
1, 67499, Control_c, 0, 64, 99
1, 67502, Note_on_c, 0, 70, 83
1, 67514, Control_c, 0, 64, 70
1, 67529, Control_c, 0, 64, 0
1, 67573, Control_c, 0, 64, 21
1, 67588, Control_c, 0, 64, 65
1, 67602, Control_c, 0, 64, 79
1, 67617, Control_c, 0, 64, 109
1, 67623, Note_on_c, 0, 90, 96
1, 67632, Control_c, 0, 64, 127
1, 67639, Note_off_c, 0, 74, 62
1, 67654, Note_off_c, 0, 70, 62
1, 67729, Note_on_c, 0, 78, 84
1, 67796, Note_off_c, 0, 78, 63
1, 67819, Note_off_c, 0, 90, 63
1, 67866, Note_on_c, 0, 63, 72
1, 67870, Note_on_c, 0, 75, 81
1, 67872, Note_on_c, 0, 71, 75
1, 67900, Control_c, 0, 64, 87
1, 67915, Control_c, 0, 64, 66
1, 67930, Control_c, 0, 64, 0
1, 68018, Control_c, 0, 64, 54
1, 68033, Control_c, 0, 64, 71
1, 68048, Control_c, 0, 64, 90
1, 68063, Note_on_c, 0, 93, 98
1, 68063, Control_c, 0, 64, 127
1, 68106, Note_off_c, 0, 71, 61
1, 68160, Note_off_c, 0, 75, 58
1, 68182, Note_off_c, 0, 63, 38
1, 68195, Note_on_c, 0, 81, 76
1, 68311, Note_on_c, 0, 70, 74
1, 68314, Note_on_c, 0, 64, 73
1, 68314, Note_on_c, 0, 74, 77
1, 68316, Note_off_c, 0, 93, 56
1, 68320, Note_off_c, 0, 81, 62
1, 68321, Control_c, 0, 64, 88
1, 68336, Control_c, 0, 64, 67
1, 68351, Control_c, 0, 64, 0
1, 68380, Control_c, 0, 64, 56
1, 68395, Control_c, 0, 64, 68
1, 68410, Control_c, 0, 64, 80
1, 68425, Control_c, 0, 64, 105
1, 68440, Control_c, 0, 64, 127
1, 68454, Note_on_c, 0, 91, 95
1, 68458, Note_off_c, 0, 74, 63
1, 68488, Note_off_c, 0, 70, 59
1, 68505, Note_off_c, 0, 64, 57
1, 68533, Note_on_c, 0, 79, 77
1, 68603, Control_c, 0, 64, 93
1, 68618, Note_on_c, 0, 73, 77
1, 68618, Control_c, 0, 64, 71
1, 68620, Note_on_c, 0, 69, 69
1, 68621, Note_on_c, 0, 65, 66
1, 68624, Note_off_c, 0, 91, 61
1, 68633, Note_off_c, 0, 79, 58
1, 68633, Control_c, 0, 64, 0
1, 68663, Control_c, 0, 64, 61
1, 68678, Control_c, 0, 64, 73
1, 68693, Control_c, 0, 64, 97
1, 68708, Control_c, 0, 64, 127
1, 68733, Note_on_c, 0, 89, 97
1, 68735, Note_off_c, 0, 69, 61
1, 68738, Note_off_c, 0, 65, 58
1, 68785, Note_off_c, 0, 73, 60
1, 68805, Note_on_c, 0, 77, 81
1, 68855, Control_c, 0, 64, 88
1, 68870, Control_c, 0, 64, 64
1, 68878, Note_off_c, 0, 77, 63
1, 68881, Note_on_c, 0, 72, 72
1, 68891, Note_on_c, 0, 66, 63
1, 68893, Control_c, 0, 64, 0
1, 68896, Note_off_c, 0, 89, 64
1, 68903, Note_on_c, 0, 68, 62
1, 68937, Control_c, 0, 64, 58
1, 68952, Control_c, 0, 64, 75
1, 68967, Control_c, 0, 64, 94
1, 68982, Control_c, 0, 64, 127
1, 68999, Note_on_c, 0, 87, 92
1, 69003, Note_off_c, 0, 72, 62
1, 69003, Note_off_c, 0, 66, 57
1, 69030, Note_off_c, 0, 68, 53
1, 69068, Note_on_c, 0, 75, 81
1, 69122, Poly_aftertouch_c, 0, 82, 127
1, 69130, Control_c, 0, 64, 120
1, 69136, Note_off_c, 0, 75, 61
1, 69141, Note_on_c, 0, 71, 71
1, 69145, Control_c, 0, 64, 87
1, 69149, Note_on_c, 0, 67, 65
1, 69151, Note_off_c, 0, 87, 62
1, 69155, Poly_aftertouch_c, 0, 82, 0
1, 69159, Control_c, 0, 64, 67
1, 69174, Control_c, 0, 64, 0
1, 69255, Note_on_c, 0, 87, 82
1, 69263, Control_c, 0, 64, 21
1, 69278, Control_c, 0, 64, 63
1, 69293, Control_c, 0, 64, 72
1, 69309, Control_c, 0, 64, 83
1, 69324, Control_c, 0, 64, 109
1, 69327, Note_on_c, 0, 75, 70
1, 69338, Control_c, 0, 64, 127
1, 69399, Note_off_c, 0, 87, 64
1, 69405, Note_off_c, 0, 71, 61
1, 69410, Note_off_c, 0, 67, 57
1, 69414, Note_on_c, 0, 70, 61
1, 69416, Note_on_c, 0, 68, 60
1, 69427, Control_c, 0, 64, 107
1, 69431, Note_off_c, 0, 75, 58
1, 69442, Control_c, 0, 64, 86
1, 69457, Control_c, 0, 64, 69
1, 69457, Control_c, 0, 67, 8
1, 69471, Control_c, 0, 64, 0
1, 69471, Control_c, 0, 67, 10
1, 69486, Control_c, 0, 67, 12
1, 69501, Control_c, 0, 67, 15
1, 69516, Control_c, 0, 67, 19
1, 69531, Control_c, 0, 67, 23
1, 69537, Note_on_c, 0, 86, 68
1, 69545, Control_c, 0, 67, 26
1, 69560, Control_c, 0, 67, 28
1, 69575, Control_c, 0, 67, 29
1, 69590, Control_c, 0, 67, 31
1, 69605, Control_c, 0, 67, 32
1, 69609, Note_on_c, 0, 74, 58
1, 69620, Control_c, 0, 64, 57
1, 69620, Control_c, 0, 67, 35
1, 69642, Control_c, 0, 64, 66
1, 69642, Control_c, 0, 67, 38
1, 69653, Note_off_c, 0, 70, 51
1, 69657, Control_c, 0, 64, 71
1, 69657, Control_c, 0, 67, 42
1, 69671, Control_c, 0, 64, 75
1, 69671, Control_c, 0, 67, 45
1, 69679, Note_off_c, 0, 86, 49
1, 69686, Control_c, 0, 64, 80
1, 69686, Control_c, 0, 67, 48
1, 69697, Note_on_c, 0, 69, 61
1, 69701, Control_c, 0, 64, 83
1, 69701, Control_c, 0, 67, 49
1, 69716, Control_c, 0, 67, 50
1, 69719, Note_off_c, 0, 74, 56
1, 69731, Control_c, 0, 64, 83
1, 69731, Control_c, 0, 67, 52
1, 69745, Control_c, 0, 64, 82
1, 69745, Control_c, 0, 67, 54
1, 69758, Note_off_c, 0, 68, 39
1, 69760, Control_c, 0, 67, 57
1, 69775, Control_c, 0, 64, 85
1, 69775, Control_c, 0, 67, 61
1, 69790, Control_c, 0, 64, 91
1, 69790, Control_c, 0, 67, 65
1, 69805, Control_c, 0, 64, 102
1, 69805, Control_c, 0, 67, 70
1, 69820, Control_c, 0, 64, 126
1, 69820, Control_c, 0, 67, 74
1, 69821, Note_on_c, 0, 84, 65
1, 69829, Note_off_c, 0, 69, 59
1, 69835, Control_c, 0, 64, 127
1, 69835, Control_c, 0, 67, 78
1, 69849, Control_c, 0, 67, 82
1, 69864, Control_c, 0, 67, 86
1, 69879, Control_c, 0, 67, 93
1, 69894, Control_c, 0, 67, 98
1, 69898, Note_on_c, 0, 72, 58
1, 69909, Control_c, 0, 67, 105
1, 69924, Control_c, 0, 67, 111
1, 69938, Control_c, 0, 67, 117
1, 69942, Note_off_c, 0, 84, 59
1, 69953, Control_c, 0, 67, 123
1, 69957, Note_off_c, 0, 72, 60
1, 69968, Control_c, 0, 64, 113
1, 69968, Control_c, 0, 67, 127
1, 69983, Control_c, 0, 64, 87
1, 69993, Note_on_c, 0, 67, 51
1, 69996, Note_on_c, 0, 61, 44
1, 69997, Control_c, 0, 64, 66
1, 70012, Control_c, 0, 64, 0
1, 70117, Control_c, 0, 64, 61
1, 70129, Note_on_c, 0, 82, 58
1, 70132, Control_c, 0, 64, 70
1, 70147, Control_c, 0, 64, 79
1, 70161, Control_c, 0, 64, 94
1, 70174, Note_off_c, 0, 61, 43
1, 70176, Control_c, 0, 64, 127
1, 70205, Note_on_c, 0, 70, 54
1, 70291, Note_off_c, 0, 67, 55
1, 70315, Note_on_c, 0, 62, 50
1, 70317, Note_off_c, 0, 82, 38
1, 70324, Control_c, 0, 64, 103
1, 70333, Note_on_c, 0, 65, 45
1, 70339, Control_c, 0, 64, 81
1, 70346, Note_off_c, 0, 70, 50
1, 70354, Control_c, 0, 64, 63
1, 70368, Control_c, 0, 64, 0
1, 70450, Control_c, 0, 64, 60
1, 70465, Control_c, 0, 64, 74
1, 70467, Note_on_c, 0, 81, 61
1, 70480, Control_c, 0, 64, 88
1, 70487, Note_off_c, 0, 62, 58
1, 70488, Note_off_c, 0, 65, 62
1, 70494, Control_c, 0, 64, 126
1, 70509, Control_c, 0, 64, 127
1, 70524, Control_c, 0, 67, 123
1, 70539, Control_c, 0, 67, 116
1, 70554, Control_c, 0, 67, 107
1, 70557, Note_on_c, 0, 69, 66
1, 70568, Control_c, 0, 67, 96
1, 70583, Control_c, 0, 67, 82
1, 70590, Note_off_c, 0, 69, 62
1, 70598, Control_c, 0, 67, 69
1, 70613, Control_c, 0, 67, 56
1, 70623, Note_off_c, 0, 81, 64
1, 70627, Control_c, 0, 67, 43
1, 70642, Control_c, 0, 67, 31
1, 70657, Control_c, 0, 67, 20
1, 70667, Note_on_c, 0, 65, 67
1, 70672, Control_c, 0, 67, 0
1, 70673, Note_on_c, 0, 69, 68
1, 70702, Control_c, 0, 64, 105
1, 70717, Control_c, 0, 64, 82
1, 70732, Control_c, 0, 64, 64
1, 70747, Control_c, 0, 64, 0
1, 70811, Note_on_c, 0, 86, 77
1, 70813, Note_on_c, 0, 81, 76
1, 70835, Control_c, 0, 64, 58
1, 70850, Control_c, 0, 64, 69
1, 70865, Control_c, 0, 64, 78
1, 70880, Control_c, 0, 64, 86
1, 70894, Control_c, 0, 64, 91
1, 70907, Note_on_c, 0, 77, 72
1, 70910, Control_c, 0, 64, 92
1, 70958, Note_off_c, 0, 81, 59
1, 70970, Control_c, 0, 64, 90
1, 70983, Note_off_c, 0, 77, 65
1, 70984, Control_c, 0, 64, 81
1, 70988, Note_on_c, 0, 70, 79
1, 70990, Note_off_c, 0, 86, 65
1, 70991, Note_on_c, 0, 67, 71
1, 70997, Note_off_c, 0, 69, 58
1, 70999, Control_c, 0, 64, 67
1, 71014, Control_c, 0, 64, 0
1, 71074, Note_off_c, 0, 65, 39
1, 71101, Note_on_c, 0, 86, 81
1, 71109, Note_on_c, 0, 79, 78
1, 71177, Note_on_c, 0, 77, 77
1, 71236, Note_off_c, 0, 79, 59
1, 71256, Note_on_c, 0, 69, 73
1, 71258, Note_off_c, 0, 86, 64
1, 71259, Note_on_c, 0, 72, 73
1, 71262, Note_off_c, 0, 77, 63
1, 71269, Note_off_c, 0, 67, 54
1, 71277, Note_off_c, 0, 70, 59
1, 71370, Note_on_c, 0, 84, 69
1, 71379, Note_on_c, 0, 79, 68
1, 71382, Note_off_c, 0, 72, 62
1, 71445, Note_on_c, 0, 76, 63
1, 71465, Note_off_c, 0, 79, 57
1, 71486, Note_off_c, 0, 84, 59
1, 71516, Note_off_c, 0, 76, 60
1, 71523, Note_off_c, 0, 69, 56
1, 71535, Note_on_c, 0, 70, 57
1, 71548, Note_on_c, 0, 74, 65
1, 71584, Control_c, 0, 64, 61
1, 71599, Control_c, 0, 64, 77
1, 71614, Control_c, 0, 64, 104
1, 71626, Note_off_c, 0, 70, 63
1, 71629, Control_c, 0, 64, 127
1, 71648, Note_on_c, 0, 86, 72
1, 71653, Note_off_c, 0, 74, 63
1, 71663, Note_on_c, 0, 77, 68
1, 71738, Note_on_c, 0, 74, 79
1, 71738, Note_off_c, 0, 86, 55
1, 71764, Note_off_c, 0, 77, 60
1, 71777, Note_off_c, 0, 74, 62
1, 71805, Note_on_c, 0, 60, 71
1, 71808, Note_on_c, 0, 64, 74
1, 71822, Control_c, 0, 64, 87
1, 71837, Control_c, 0, 64, 65
1, 71851, Control_c, 0, 64, 0
1, 71912, Note_on_c, 0, 81, 84
1, 71918, Note_on_c, 0, 76, 83
1, 71991, Note_on_c, 0, 72, 79
1, 72036, Note_off_c, 0, 76, 61
1, 72060, Note_off_c, 0, 72, 64
1, 72069, Note_off_c, 0, 81, 62
1, 72071, Note_on_c, 0, 65, 73
1, 72073, Note_on_c, 0, 62, 69
1, 72074, Note_off_c, 0, 64, 59
1, 72122, Note_off_c, 0, 60, 54
1, 72163, Note_on_c, 0, 81, 88
1, 72174, Note_on_c, 0, 74, 81
1, 72244, Note_on_c, 0, 72, 76
1, 72265, Note_off_c, 0, 74, 53
1, 72311, Note_off_c, 0, 72, 63
1, 72314, Note_off_c, 0, 81, 61
1, 72325, Note_on_c, 0, 67, 73
1, 72325, Note_off_c, 0, 65, 62
1, 72328, Note_on_c, 0, 64, 70
1, 72329, Note_off_c, 0, 62, 58
1, 72392, Control_c, 0, 64, 17
1, 72407, Control_c, 0, 64, 50
1, 72422, Control_c, 0, 64, 55
1, 72428, Note_on_c, 0, 79, 74
1, 72437, Control_c, 0, 64, 56
1, 72438, Note_on_c, 0, 74, 69
1, 72438, Note_off_c, 0, 67, 56
1, 72452, Control_c, 0, 64, 55
1, 72466, Control_c, 0, 64, 52
1, 72481, Control_c, 0, 64, 45
1, 72496, Control_c, 0, 64, 33
1, 72506, Note_on_c, 0, 70, 67
1, 72511, Control_c, 0, 64, 0
1, 72514, Note_off_c, 0, 74, 63
1, 72549, Note_off_c, 0, 79, 60
1, 72566, Note_off_c, 0, 70, 63
1, 72591, Note_off_c, 0, 64, 58
1, 72594, Note_on_c, 0, 69, 68
1, 72595, Note_on_c, 0, 65, 69
1, 72683, Note_off_c, 0, 69, 63
1, 72696, Control_c, 0, 64, 63
1, 72702, Note_on_c, 0, 81, 73
1, 72703, Note_off_c, 0, 65, 63
1, 72711, Control_c, 0, 64, 75
1, 72717, Note_on_c, 0, 72, 69
1, 72726, Control_c, 0, 64, 95
1, 72741, Control_c, 0, 64, 127
1, 72790, Note_on_c, 0, 69, 79
1, 72824, Note_off_c, 0, 81, 53
1, 72860, Control_c, 0, 64, 115
1, 72863, Note_on_c, 0, 60, 78
1, 72863, Note_on_c, 0, 57, 75
1, 72875, Control_c, 0, 64, 84
1, 72876, Note_off_c, 0, 69, 59
1, 72876, Note_off_c, 0, 72, 56
1, 72889, Control_c, 0, 64, 62
1, 72904, Control_c, 0, 64, 0
1, 72998, Note_on_c, 0, 77, 82
1, 73000, Note_on_c, 0, 72, 76
1, 73090, Note_on_c, 0, 69, 74
1, 73119, Note_off_c, 0, 72, 63
1, 73173, Note_off_c, 0, 57, 54
1, 73188, Note_on_c, 0, 62, 72
1, 73193, Note_on_c, 0, 58, 70
1, 73209, Note_off_c, 0, 69, 58
1, 73210, Note_off_c, 0, 60, 57
1, 73210, Note_off_c, 0, 77, 57
1, 73245, Control_c, 0, 64, 65
1, 73260, Control_c, 0, 64, 77
1, 73275, Control_c, 0, 64, 98
1, 73289, Control_c, 0, 64, 127
1, 73313, Note_off_c, 0, 62, 60
1, 73324, Note_on_c, 0, 77, 79
1, 73326, Note_off_c, 0, 58, 61
1, 73335, Note_on_c, 0, 70, 74
1, 73412, Note_on_c, 0, 69, 81
1, 73459, Note_off_c, 0, 77, 60
1, 73460, Control_c, 0, 64, 87
1, 73475, Control_c, 0, 64, 64
1, 73483, Note_on_c, 0, 55, 80
1, 73483, Note_on_c, 0, 58, 80
1, 73484, Note_off_c, 0, 70, 58
1, 73486, Note_off_c, 0, 69, 64
1, 73490, Control_c, 0, 64, 0
1, 73592, Note_on_c, 0, 76, 85
1, 73593, Note_on_c, 0, 70, 82
1, 73673, Note_on_c, 0, 67, 81
1, 73692, Note_off_c, 0, 55, 62
1, 73711, Note_off_c, 0, 70, 62
1, 73712, Control_c, 0, 64, 40
1, 73727, Control_c, 0, 64, 68
1, 73735, Note_on_c, 0, 57, 78
1, 73735, Note_on_c, 0, 60, 77
1, 73738, Note_off_c, 0, 76, 61
1, 73742, Control_c, 0, 64, 87
1, 73743, Note_off_c, 0, 58, 62
1, 73751, Note_off_c, 0, 67, 62
1, 73756, Control_c, 0, 64, 127
1, 73790, Note_off_c, 0, 60, 62
1, 73792, Note_off_c, 0, 57, 64
1, 73836, Note_on_c, 0, 76, 89
1, 73841, Note_on_c, 0, 69, 79
1, 73915, Note_on_c, 0, 67, 85
1, 73963, Control_c, 0, 64, 115
1, 73965, Note_off_c, 0, 69, 60
1, 73978, Control_c, 0, 64, 76
1, 73987, Note_off_c, 0, 76, 60
1, 73988, Note_on_c, 0, 45, 77
1, 73990, Note_off_c, 0, 67, 62
1, 73991, Note_on_c, 0, 41, 71
1, 73993, Note_on_c, 0, 53, 79
1, 73993, Control_c, 0, 64, 0
1, 74053, Control_c, 0, 64, 64
1, 74067, Control_c, 0, 64, 82
1, 74082, Control_c, 0, 64, 127
1, 74107, Note_on_c, 0, 74, 91
1, 74109, Note_on_c, 0, 69, 85
1, 74114, Note_off_c, 0, 41, 60
1, 74138, Note_off_c, 0, 45, 64
1, 74143, Note_off_c, 0, 53, 63
1, 74189, Note_on_c, 0, 65, 79
1, 74237, Note_off_c, 0, 69, 61
1, 74254, Control_c, 0, 64, 99
1, 74263, Note_on_c, 0, 43, 80
1, 74263, Note_on_c, 0, 46, 77
1, 74264, Note_on_c, 0, 55, 83
1, 74268, Control_c, 0, 64, 70
1, 74270, Note_off_c, 0, 65, 64
1, 74276, Note_off_c, 0, 74, 60
1, 74283, Control_c, 0, 64, 0
1, 74313, Control_c, 0, 64, 49
1, 74328, Control_c, 0, 64, 69
1, 74342, Control_c, 0, 64, 87
1, 74357, Control_c, 0, 64, 127
1, 74385, Note_off_c, 0, 46, 60
1, 74386, Note_on_c, 0, 74, 94
1, 74386, Note_off_c, 0, 43, 62
1, 74393, Note_on_c, 0, 67, 84
1, 74407, Note_off_c, 0, 55, 61
1, 74473, Note_on_c, 0, 65, 83
1, 74480, Note_off_c, 0, 67, 59
1, 74559, Note_on_c, 0, 45, 75
1, 74559, Note_on_c, 0, 57, 84
1, 74561, Note_off_c, 0, 65, 61
1, 74562, Note_on_c, 0, 48, 80
1, 74565, Control_c, 0, 64, 88
1, 74572, Note_off_c, 0, 74, 59
1, 74579, Control_c, 0, 64, 66
1, 74594, Control_c, 0, 64, 0
1, 74624, Control_c, 0, 64, 21
1, 74639, Control_c, 0, 64, 65
1, 74653, Control_c, 0, 64, 86
1, 74668, Control_c, 0, 64, 127
1, 74679, Note_off_c, 0, 57, 62
1, 74693, Note_on_c, 0, 72, 86
1, 74698, Note_on_c, 0, 67, 83
1, 74708, Note_off_c, 0, 48, 62
1, 74717, Note_off_c, 0, 45, 63
1, 74796, Note_on_c, 0, 64, 84
1, 74804, Note_off_c, 0, 67, 60
1, 74911, Note_off_c, 0, 72, 55
1, 74929, Control_c, 0, 64, 101
1, 74938, Note_on_c, 0, 34, 77
1, 74944, Control_c, 0, 64, 68
1, 74944, Note_off_c, 0, 64, 60
1, 74945, Note_on_c, 0, 41, 82
1, 74958, Control_c, 0, 64, 0
1, 75077, Control_c, 0, 64, 70
1, 75091, Control_c, 0, 64, 89
1, 75106, Control_c, 0, 64, 127
1, 75110, Note_on_c, 0, 62, 75
1, 75112, Note_off_c, 0, 34, 58
1, 75129, Note_off_c, 0, 41, 61
1, 75187, Note_on_c, 0, 65, 72
1, 75283, Note_off_c, 0, 62, 55
1, 75284, Note_on_c, 0, 74, 93
1, 75343, Note_off_c, 0, 65, 61
1, 75500, Note_on_c, 0, 58, 74
1, 75501, Note_on_c, 0, 53, 67
1, 75505, Note_on_c, 0, 50, 68
1, 75685, Note_on_c, 0, 72, 77
1, 75761, Note_on_c, 0, 70, 83
1, 75796, Note_off_c, 0, 58, 60
1, 75811, Note_off_c, 0, 74, 52
1, 75826, Note_off_c, 0, 53, 64
1, 75837, Note_off_c, 0, 50, 63
1, 75847, Note_on_c, 0, 69, 83
1, 75850, Note_off_c, 0, 72, 61
1, 75879, Note_off_c, 0, 70, 65
1, 75904, Note_off_c, 0, 69, 67
1, 76002, Note_on_c, 0, 67, 86
1, 76078, Note_on_c, 0, 65, 77
1, 76151, Control_c, 0, 64, 121
1, 76154, Note_on_c, 0, 64, 81
1, 76155, Note_on_c, 0, 41, 77
1, 76158, Note_on_c, 0, 61, 80
1, 76166, Control_c, 0, 64, 80
1, 76178, Note_off_c, 0, 67, 34
1, 76179, Note_off_c, 0, 65, 56
1, 76181, Control_c, 0, 64, 0
1, 76329, Note_on_c, 0, 65, 75
1, 76353, Note_off_c, 0, 64, 61
1, 76365, Note_off_c, 0, 61, 62
1, 76429, Note_on_c, 0, 64, 79
1, 76485, Note_off_c, 0, 65, 60
1, 76559, Note_on_c, 0, 34, 80
1, 76567, Note_off_c, 0, 64, 65
1, 76619, Control_c, 0, 64, 55
1, 76634, Control_c, 0, 64, 72
1, 76648, Control_c, 0, 64, 101
1, 76663, Control_c, 0, 64, 127
1, 76735, Note_off_c, 0, 41, 60
1, 76753, Note_off_c, 0, 34, 59
1, 76806, Note_on_c, 0, 62, 82
1, 77015, Note_on_c, 0, 50, 69
1, 77015, Note_on_c, 0, 53, 70
1, 77189, Note_on_c, 0, 60, 74
1, 77269, Note_on_c, 0, 58, 77
1, 77296, Note_off_c, 0, 62, 47
1, 77326, Note_off_c, 0, 53, 59
1, 77351, Note_on_c, 0, 57, 81
1, 77355, Note_off_c, 0, 60, 61
1, 77367, Note_off_c, 0, 50, 64
1, 77412, Control_c, 0, 64, 92
1, 77427, Control_c, 0, 64, 69
1, 77442, Control_c, 0, 64, 0
1, 77445, Note_off_c, 0, 58, 36
1, 77534, Note_off_c, 0, 57, 63
1, 77540, Note_on_c, 0, 55, 70
1, 77636, Note_on_c, 0, 53, 68
1, 77666, Note_off_c, 0, 55, 63
1, 77728, Note_on_c, 0, 52, 71
1, 77748, Note_on_c, 0, 49, 55
1, 77748, Note_off_c, 0, 53, 64
1, 77752, Note_on_c, 0, 41, 46
1, 77754, Note_on_c, 0, 45, 50
1, 77965, Note_on_c, 0, 53, 62
1, 77975, Note_off_c, 0, 52, 61
1, 78076, Note_on_c, 0, 52, 63
1, 78085, Control_c, 0, 67, 8
1, 78088, Note_off_c, 0, 53, 62
1, 78101, Control_c, 0, 67, 9
1, 78116, Control_c, 0, 67, 10
1, 78130, Control_c, 0, 67, 11
1, 78145, Control_c, 0, 67, 12
1, 78160, Control_c, 0, 67, 14
1, 78175, Control_c, 0, 67, 15
1, 78190, Control_c, 0, 67, 16
1, 78193, Note_off_c, 0, 52, 59
1, 78205, Control_c, 0, 67, 17
1, 78211, Note_on_c, 0, 50, 58
1, 78219, Note_on_c, 0, 46, 55
1, 78220, Control_c, 0, 67, 18
1, 78223, Note_off_c, 0, 49, 59
1, 78226, Note_off_c, 0, 45, 47
1, 78234, Control_c, 0, 67, 19
1, 78245, Note_off_c, 0, 41, 42
1, 78249, Control_c, 0, 67, 19
1, 78264, Control_c, 0, 67, 20
1, 78279, Control_c, 0, 64, 60
1, 78294, Control_c, 0, 64, 71
1, 78308, Control_c, 0, 64, 85
1, 78308, Control_c, 0, 67, 20
1, 78323, Control_c, 0, 64, 110
1, 78323, Control_c, 0, 67, 21
1, 78338, Control_c, 0, 64, 127
1, 78338, Control_c, 0, 67, 22
1, 78352, Control_c, 0, 67, 24
1, 78367, Control_c, 0, 67, 27
1, 78382, Control_c, 0, 67, 29
1, 78397, Control_c, 0, 67, 30
1, 78412, Note_off_c, 0, 46, 61
1, 78412, Control_c, 0, 67, 32
1, 78426, Control_c, 0, 67, 33
1, 78431, Note_off_c, 0, 50, 65
1, 78441, Control_c, 0, 67, 34
1, 78452, Note_on_c, 0, 52, 63
1, 78456, Control_c, 0, 67, 34
1, 78471, Control_c, 0, 67, 35
1, 78486, Control_c, 0, 67, 35
1, 78500, Control_c, 0, 67, 36
1, 78515, Control_c, 0, 67, 36
1, 78530, Control_c, 0, 67, 38
1, 78533, Note_on_c, 0, 53, 69
1, 78545, Control_c, 0, 67, 40
1, 78552, Note_off_c, 0, 52, 62
1, 78560, Control_c, 0, 67, 43
1, 78575, Control_c, 0, 67, 45
1, 78583, Note_off_c, 0, 53, 66
1, 78589, Control_c, 0, 67, 46
1, 78604, Control_c, 0, 64, 98
1, 78604, Control_c, 0, 67, 48
1, 78626, Control_c, 0, 64, 74
1, 78626, Control_c, 0, 67, 49
1, 78639, Note_on_c, 0, 55, 72
1, 78641, Control_c, 0, 64, 0
1, 78652, Note_on_c, 0, 52, 57
1, 78656, Control_c, 0, 67, 49
1, 78700, Control_c, 0, 67, 50
1, 78730, Control_c, 0, 67, 50
1, 78745, Control_c, 0, 67, 51
1, 78759, Control_c, 0, 67, 52
1, 78774, Control_c, 0, 67, 53
1, 78789, Control_c, 0, 67, 54
1, 78804, Control_c, 0, 67, 55
1, 78819, Control_c, 0, 67, 57
1, 78834, Note_on_c, 0, 57, 60
1, 78834, Control_c, 0, 67, 59
1, 78849, Control_c, 0, 67, 61
1, 78864, Control_c, 0, 67, 62
1, 78879, Control_c, 0, 67, 64
1, 78894, Control_c, 0, 67, 64
1, 78909, Control_c, 0, 67, 65
1, 78910, Note_on_c, 0, 58, 67
1, 78923, Control_c, 0, 67, 66
1, 78929, Note_off_c, 0, 57, 62
1, 78938, Control_c, 0, 67, 68
1, 78953, Control_c, 0, 67, 69
1, 78968, Control_c, 0, 67, 72
1, 78970, Note_off_c, 0, 58, 64
1, 78983, Control_c, 0, 67, 75
1, 78998, Control_c, 0, 67, 77
1, 79002, Note_off_c, 0, 55, 60
1, 79004, Note_off_c, 0, 52, 59
1, 79013, Control_c, 0, 67, 79
1, 79025, Note_on_c, 0, 53, 50
1, 79028, Control_c, 0, 67, 81
1, 79029, Note_on_c, 0, 57, 56
1, 79043, Control_c, 0, 67, 83
1, 79057, Control_c, 0, 67, 84
1, 79072, Control_c, 0, 67, 85
1, 79087, Control_c, 0, 67, 86
1, 79102, Control_c, 0, 67, 87
1, 79117, Control_c, 0, 67, 88
1, 79131, Control_c, 0, 67, 89
1, 79146, Control_c, 0, 64, 19
1, 79146, Control_c, 0, 67, 89
1, 79161, Control_c, 0, 64, 59
1, 79161, Control_c, 0, 67, 90
1, 79175, Control_c, 0, 64, 68
1, 79175, Control_c, 0, 67, 90
1, 79190, Control_c, 0, 64, 76
1, 79205, Control_c, 0, 64, 89
1, 79205, Control_c, 0, 67, 91
1, 79220, Control_c, 0, 64, 103
1, 79235, Control_c, 0, 64, 127
1, 79235, Control_c, 0, 67, 91
1, 79248, Note_off_c, 0, 53, 64
1, 79263, Note_on_c, 0, 61, 55
1, 79264, Control_c, 0, 67, 92
1, 79276, Note_off_c, 0, 57, 58
1, 79353, Control_c, 0, 67, 92
1, 79375, Control_c, 0, 67, 93
1, 79385, Note_on_c, 0, 64, 54
1, 79390, Control_c, 0, 67, 93
1, 79405, Control_c, 0, 67, 94
1, 79413, Note_off_c, 0, 61, 47
1, 79420, Control_c, 0, 67, 96
1, 79435, Control_c, 0, 67, 96
1, 79450, Note_off_c, 0, 64, 63
1, 79464, Control_c, 0, 67, 97
1, 79494, Control_c, 0, 67, 97
1, 79538, Control_c, 0, 64, 101
1, 79538, Control_c, 0, 67, 98
1, 79541, Note_on_c, 0, 55, 47
1, 79543, Note_on_c, 0, 62, 44
1, 79546, Note_on_c, 0, 58, 48
1, 79553, Control_c, 0, 64, 83
1, 79567, Control_c, 0, 64, 68
1, 79582, Control_c, 0, 64, 0
1, 79582, Control_c, 0, 67, 98
1, 79642, Control_c, 0, 67, 99
1, 79815, Note_on_c, 0, 64, 46
1, 79880, Control_c, 0, 67, 98
1, 79910, Control_c, 0, 67, 97
1, 79925, Control_c, 0, 67, 96
1, 79940, Control_c, 0, 67, 95
1, 79954, Control_c, 0, 67, 94
1, 79966, Note_on_c, 0, 67, 48
1, 79969, Control_c, 0, 67, 93
1, 79984, Control_c, 0, 67, 92
1, 79998, Control_c, 0, 67, 90
1, 80005, Note_off_c, 0, 64, 49
1, 80013, Control_c, 0, 67, 90
1, 80028, Control_c, 0, 67, 89
1, 80043, Control_c, 0, 67, 88
1, 80058, Control_c, 0, 67, 86
1, 80072, Control_c, 0, 67, 85
1, 80087, Control_c, 0, 67, 84
1, 80102, Control_c, 0, 67, 82
1, 80124, Control_c, 0, 67, 80
1, 80139, Control_c, 0, 67, 77
1, 80154, Control_c, 0, 67, 74
1, 80166, Note_on_c, 0, 65, 46
1, 80169, Control_c, 0, 67, 69
1, 80184, Control_c, 0, 67, 65
1, 80192, Note_on_c, 0, 57, 32
1, 80193, Note_off_c, 0, 55, 53
1, 80198, Control_c, 0, 67, 61
1, 80199, Note_off_c, 0, 67, 56
1, 80213, Control_c, 0, 67, 56
1, 80221, Note_off_c, 0, 58, 38
1, 80228, Control_c, 0, 67, 49
1, 80243, Control_c, 0, 67, 39
1, 80258, Control_c, 0, 67, 27
1, 80272, Control_c, 0, 67, 18
1, 80287, Control_c, 0, 67, 11
1, 80302, Control_c, 0, 67, 0
1, 80644, Note_on_c, 0, 67, 38
1, 80844, Note_on_c, 0, 70, 44
1, 80850, Note_off_c, 0, 67, 49
1, 81098, Note_off_c, 0, 70, 55
1, 81106, Note_on_c, 0, 69, 35
1, 81729, Note_off_c, 0, 62, 61
1, 81742, Note_off_c, 0, 65, 60
1, 81742, Note_off_c, 0, 69, 62
1, 81744, Note_off_c, 0, 57, 62
1, 82037, Note_on_c, 0, 73, 89
1, 82038, Note_on_c, 0, 69, 86
1, 82043, Note_on_c, 0, 64, 81
1, 82047, Note_on_c, 0, 45, 67
1, 82051, Note_on_c, 0, 57, 63
1, 82170, Note_off_c, 0, 64, 48
1, 82264, Note_on_c, 0, 74, 84
1, 82271, Note_off_c, 0, 45, 63
1, 82278, Note_on_c, 0, 50, 61
1, 82280, Note_on_c, 0, 65, 65
1, 82286, Note_off_c, 0, 73, 62
1, 83445, Control_c, 0, 64, 29
1, 83460, Control_c, 0, 64, 40
1, 83475, Control_c, 0, 64, 47
1, 83490, Control_c, 0, 64, 55
1, 83505, Control_c, 0, 64, 61
1, 83520, Control_c, 0, 64, 64
1, 83535, Control_c, 0, 64, 66
1, 83549, Control_c, 0, 64, 68
1, 83564, Control_c, 0, 64, 69
1, 83579, Control_c, 0, 64, 71
1, 83594, Control_c, 0, 64, 73
1, 83609, Control_c, 0, 64, 75
1, 83623, Control_c, 0, 64, 79
1, 83638, Control_c, 0, 64, 82
1, 83653, Control_c, 0, 64, 86
1, 83668, Control_c, 0, 64, 88
1, 83683, Control_c, 0, 64, 91
1, 83699, Control_c, 0, 64, 93
1, 83713, Control_c, 0, 64, 96
1, 83728, Control_c, 0, 64, 100
1, 83743, Control_c, 0, 64, 106
1, 83758, Control_c, 0, 64, 114
1, 83772, Control_c, 0, 64, 127
1, 83972, Control_c, 0, 67, 8
1, 83987, Control_c, 0, 67, 9
1, 84002, Control_c, 0, 67, 9
1, 84017, Control_c, 0, 67, 10
1, 84032, Control_c, 0, 67, 11
1, 84046, Control_c, 0, 67, 13
1, 84061, Control_c, 0, 67, 15
1, 84076, Control_c, 0, 67, 17
1, 84091, Control_c, 0, 67, 19
1, 84106, Control_c, 0, 67, 21
1, 84120, Control_c, 0, 67, 23
1, 84135, Control_c, 0, 67, 26
1, 84150, Control_c, 0, 67, 30
1, 84164, Control_c, 0, 67, 33
1, 84179, Control_c, 0, 67, 36
1, 84194, Control_c, 0, 67, 39
1, 84209, Control_c, 0, 67, 42
1, 84224, Control_c, 0, 67, 45
1, 84238, Control_c, 0, 67, 47
1, 84253, Control_c, 0, 67, 50
1, 84268, Control_c, 0, 67, 54
1, 84283, Control_c, 0, 67, 57
1, 84288, Note_off_c, 0, 57, 27
1, 84298, Control_c, 0, 67, 61
1, 84305, Note_off_c, 0, 50, 29
1, 84313, Control_c, 0, 67, 64
1, 84328, Control_c, 0, 67, 68
1, 84343, Control_c, 0, 67, 73
1, 84358, Control_c, 0, 67, 78
1, 84372, Control_c, 0, 67, 81
1, 84387, Control_c, 0, 67, 85
1, 84402, Control_c, 0, 67, 89
1, 84417, Control_c, 0, 67, 93
1, 84427, Note_off_c, 0, 65, 33
1, 84432, Control_c, 0, 67, 96
1, 84446, Control_c, 0, 67, 100
1, 84461, Control_c, 0, 67, 104
1, 84476, Control_c, 0, 67, 108
1, 84480, Note_off_c, 0, 74, 25
1, 84492, Control_c, 0, 67, 112
1, 84498, Note_off_c, 0, 69, 29
1, 84507, Control_c, 0, 67, 116
1, 84521, Control_c, 0, 67, 121
1, 84536, Control_c, 0, 67, 127
1, 84551, Control_c, 0, 67, 127
1, 84987, Control_c, 0, 64, 119
1, 85002, Control_c, 0, 64, 113
1, 85017, Control_c, 0, 64, 107
1, 85032, Control_c, 0, 64, 101
1, 85047, Control_c, 0, 64, 97
1, 85061, Control_c, 0, 64, 93
1, 85076, Control_c, 0, 64, 90
1, 85091, Control_c, 0, 64, 87
1, 85106, Control_c, 0, 64, 83
1, 85121, Control_c, 0, 64, 78
1, 85136, Control_c, 0, 64, 74
1, 85150, Control_c, 0, 64, 69
1, 85165, Control_c, 0, 64, 65
1, 85180, Control_c, 0, 64, 62
1, 85195, Control_c, 0, 64, 56
1, 85210, Control_c, 0, 64, 52
1, 85225, Control_c, 0, 64, 50
1, 85240, Control_c, 0, 64, 46
1, 85255, Control_c, 0, 64, 36
1, 85269, Control_c, 0, 64, 21
1, 85285, Control_c, 0, 64, 0
1, 85618, Control_c, 0, 64, 29
1, 85633, Control_c, 0, 64, 40
1, 85648, Control_c, 0, 64, 48
1, 85663, Control_c, 0, 64, 54
1, 85678, Control_c, 0, 64, 58
1, 85693, Control_c, 0, 64, 61
1, 85708, Control_c, 0, 64, 62
1, 85723, Control_c, 0, 64, 64
1, 85737, Control_c, 0, 64, 65
1, 85752, Control_c, 0, 64, 66
1, 85767, Control_c, 0, 64, 68
1, 85782, Control_c, 0, 64, 70
1, 85797, Control_c, 0, 64, 71
1, 85811, Control_c, 0, 64, 73
1, 85826, Control_c, 0, 64, 75
1, 85841, Control_c, 0, 64, 77
1, 85856, Control_c, 0, 64, 80
1, 85871, Control_c, 0, 64, 83
1, 85885, Control_c, 0, 64, 86
1, 85900, Control_c, 0, 64, 88
1, 85915, Control_c, 0, 64, 91
1, 85930, Control_c, 0, 64, 94
1, 85944, Control_c, 0, 64, 97
1, 85959, Control_c, 0, 64, 102
1, 85974, Control_c, 0, 64, 107
1, 85989, Control_c, 0, 64, 115
1, 86003, Control_c, 0, 64, 127
1, 86185, Note_on_c, 0, 72, 39
1, 86231, Note_on_c, 0, 45, 32
1, 86289, Note_off_c, 0, 45, 52
1, 86674, Note_on_c, 0, 69, 41
1, 86749, Note_off_c, 0, 72, 37
1, 87020, Note_on_c, 0, 60, 36
1, 87037, Note_on_c, 0, 64, 24
1, 87081, Note_off_c, 0, 60, 59
1, 87102, Note_off_c, 0, 64, 55
1, 87575, Control_c, 0, 64, 91
1, 87589, Control_c, 0, 64, 74
1, 87611, Note_off_c, 0, 69, 48
1, 87612, Control_c, 0, 64, 58
1, 87615, Note_on_c, 0, 68, 45
1, 87622, Note_on_c, 0, 40, 36
1, 87627, Control_c, 0, 64, 0
1, 87687, Control_c, 0, 64, 40
1, 87702, Control_c, 0, 64, 63
1, 87717, Control_c, 0, 64, 70
1, 87731, Control_c, 0, 64, 80
1, 87743, Note_off_c, 0, 40, 53
1, 87746, Control_c, 0, 64, 94
1, 87761, Control_c, 0, 64, 121
1, 87776, Control_c, 0, 64, 127
1, 87938, Note_on_c, 0, 71, 52
1, 87956, Note_off_c, 0, 68, 51
1, 88231, Note_on_c, 0, 64, 33
1, 88248, Note_on_c, 0, 59, 24
1, 88319, Note_off_c, 0, 59, 52
1, 88376, Note_off_c, 0, 64, 34
1, 88662, Note_off_c, 0, 71, 57
1, 88984, Control_c, 0, 64, 112
1, 88999, Control_c, 0, 64, 91
1, 89014, Note_on_c, 0, 43, 42
1, 89014, Control_c, 0, 64, 76
1, 89029, Control_c, 0, 64, 61
1, 89044, Control_c, 0, 64, 0
1, 89110, Control_c, 0, 64, 53
1, 89125, Control_c, 0, 64, 66
1, 89140, Control_c, 0, 64, 74
1, 89155, Control_c, 0, 64, 84
1, 89169, Control_c, 0, 64, 98
1, 89184, Control_c, 0, 64, 114
1, 89199, Control_c, 0, 64, 127
1, 89228, Note_off_c, 0, 43, 38
1, 89339, Note_on_c, 0, 67, 51
1, 89583, Note_on_c, 0, 71, 64
1, 89603, Note_off_c, 0, 67, 59
1, 89622, Note_on_c, 0, 62, 38
1, 89640, Note_on_c, 0, 59, 23
1, 89672, Note_off_c, 0, 62, 56
1, 89691, Note_off_c, 0, 59, 56
1, 89816, Note_on_c, 0, 67, 59
1, 89848, Note_off_c, 0, 71, 54
1, 90052, Control_c, 0, 64, 110
1, 90066, Control_c, 0, 64, 89
1, 90072, Note_on_c, 0, 66, 51
1, 90072, Note_off_c, 0, 67, 54
1, 90082, Control_c, 0, 64, 72
1, 90097, Control_c, 0, 64, 45
1, 90112, Control_c, 0, 64, 0
1, 90121, Note_on_c, 0, 38, 35
1, 90201, Control_c, 0, 64, 32
1, 90215, Control_c, 0, 64, 63
1, 90230, Control_c, 0, 64, 71
1, 90245, Control_c, 0, 64, 79
1, 90260, Control_c, 0, 64, 90
1, 90261, Note_off_c, 0, 38, 36
1, 90275, Control_c, 0, 64, 103
1, 90290, Control_c, 0, 64, 127
1, 90415, Note_on_c, 0, 69, 44
1, 90463, Note_off_c, 0, 66, 37
1, 90671, Note_on_c, 0, 62, 33
1, 90705, Note_on_c, 0, 57, 29
1, 90759, Note_off_c, 0, 57, 53
1, 90811, Note_off_c, 0, 62, 35
1, 91273, Control_c, 0, 64, 101
1, 91288, Note_on_c, 0, 65, 43
1, 91288, Control_c, 0, 64, 85
1, 91303, Control_c, 0, 64, 72
1, 91315, Note_off_c, 0, 69, 42
1, 91318, Control_c, 0, 64, 61
1, 91333, Control_c, 0, 64, 0
1, 91343, Note_on_c, 0, 41, 23
1, 91445, Control_c, 0, 64, 38
1, 91460, Control_c, 0, 64, 62
1, 91475, Control_c, 0, 64, 70
1, 91489, Control_c, 0, 64, 77
1, 91504, Control_c, 0, 64, 87
1, 91519, Control_c, 0, 64, 99
1, 91534, Control_c, 0, 64, 114
1, 91549, Control_c, 0, 64, 127
1, 91561, Note_off_c, 0, 41, 40
1, 91701, Note_on_c, 0, 69, 53
1, 91744, Note_off_c, 0, 65, 54
1, 91918, Note_on_c, 0, 60, 34
1, 91940, Note_on_c, 0, 57, 33
1, 91999, Note_off_c, 0, 60, 59
1, 92008, Note_off_c, 0, 57, 55
1, 92159, Note_on_c, 0, 65, 58
1, 92202, Note_off_c, 0, 69, 50
1, 92401, Control_c, 0, 64, 120
1, 92416, Control_c, 0, 64, 93
1, 92430, Control_c, 0, 64, 73
1, 92444, Note_off_c, 0, 65, 59
1, 92445, Control_c, 0, 64, 52
1, 92447, Note_on_c, 0, 64, 51
1, 92451, Note_on_c, 0, 36, 42
1, 92460, Control_c, 0, 64, 0
1, 92535, Control_c, 0, 64, 14
1, 92550, Control_c, 0, 64, 61
1, 92565, Control_c, 0, 64, 70
1, 92580, Control_c, 0, 64, 79
1, 92594, Control_c, 0, 64, 91
1, 92609, Control_c, 0, 64, 113
1, 92618, Note_off_c, 0, 36, 36
1, 92624, Control_c, 0, 64, 127
1, 92960, Note_on_c, 0, 69, 58
1, 92992, Note_on_c, 0, 60, 34
1, 92996, Note_on_c, 0, 52, 29
1, 93028, Note_on_c, 0, 57, 17
1, 93071, Note_off_c, 0, 60, 58
1, 93079, Note_off_c, 0, 57, 47
1, 93152, Note_off_c, 0, 52, 43
1, 93226, Note_off_c, 0, 64, 28
1, 93526, Note_on_c, 0, 71, 57
1, 93536, Control_c, 0, 64, 101
1, 93550, Control_c, 0, 64, 83
1, 93555, Note_on_c, 0, 38, 40
1, 93565, Control_c, 0, 64, 63
1, 93568, Note_off_c, 0, 69, 52
1, 93580, Control_c, 0, 64, 0
1, 93676, Control_c, 0, 64, 53
1, 93691, Control_c, 0, 64, 68
1, 93706, Control_c, 0, 64, 80
1, 93721, Control_c, 0, 64, 96
1, 93735, Control_c, 0, 64, 127
1, 93745, Note_off_c, 0, 38, 39
1, 94089, Note_on_c, 0, 74, 23
1, 94124, Note_off_c, 0, 71, 55
1, 94132, Note_off_c, 0, 74, 49
1, 94135, Note_on_c, 0, 72, 50
1, 94140, Note_on_c, 0, 69, 40
1, 94168, Note_on_c, 0, 64, 29
1, 94177, Note_on_c, 0, 60, 25
1, 94184, Note_on_c, 0, 54, 25
1, 94270, Note_off_c, 0, 60, 52
1, 94303, Note_off_c, 0, 64, 35
1, 94357, Note_off_c, 0, 54, 41
1, 94781, Control_c, 0, 64, 104
1, 94782, Note_on_c, 0, 71, 48
1, 94796, Control_c, 0, 64, 85
1, 94800, Note_on_c, 0, 40, 38
1, 94809, Note_off_c, 0, 72, 45
1, 94811, Control_c, 0, 64, 71
1, 94825, Note_off_c, 0, 69, 42
1, 94825, Control_c, 0, 64, 53
1, 94840, Control_c, 0, 64, 0
1, 94960, Control_c, 0, 64, 61
1, 94975, Control_c, 0, 64, 70
1, 94990, Control_c, 0, 64, 81
1, 95004, Control_c, 0, 64, 95
1, 95019, Control_c, 0, 64, 123
1, 95034, Control_c, 0, 64, 127
1, 95074, Note_off_c, 0, 40, 41
1, 95578, Note_on_c, 0, 68, 32
1, 95590, Note_on_c, 0, 56, 25
1, 95602, Note_on_c, 0, 64, 30
1, 95616, Note_on_c, 0, 47, 14
1, 95760, Note_off_c, 0, 64, 42
1, 95779, Note_off_c, 0, 68, 34
1, 95851, Note_off_c, 0, 47, 43
1, 95855, Note_off_c, 0, 56, 39
1, 96114, Note_off_c, 0, 71, 54
1, 96657, Control_c, 0, 64, 108
1, 96659, Note_on_c, 0, 74, 49
1, 96672, Control_c, 0, 64, 92
1, 96683, Note_on_c, 0, 47, 35
1, 96687, Control_c, 0, 64, 79
1, 96701, Control_c, 0, 64, 65
1, 96716, Control_c, 0, 64, 0
1, 96806, Control_c, 0, 64, 50
1, 96821, Control_c, 0, 64, 64
1, 96836, Control_c, 0, 64, 71
1, 96850, Control_c, 0, 64, 79
1, 96865, Control_c, 0, 64, 90
1, 96880, Control_c, 0, 64, 108
1, 96894, Control_c, 0, 64, 127
1, 97074, Note_off_c, 0, 47, 38
1, 97075, Note_on_c, 0, 71, 56
1, 97111, Note_on_c, 0, 54, 33
1, 97211, Note_off_c, 0, 54, 47
1, 97211, Note_off_c, 0, 74, 36
1, 97386, Note_on_c, 0, 62, 41
1, 97555, Note_off_c, 0, 62, 36
1, 97617, Note_on_c, 0, 59, 45
1, 97650, Note_off_c, 0, 59, 62
1, 97864, Control_c, 0, 64, 94
1, 97865, Note_on_c, 0, 70, 59
1, 97879, Control_c, 0, 64, 75
1, 97884, Note_off_c, 0, 71, 51
1, 97894, Note_on_c, 0, 42, 36
1, 97894, Control_c, 0, 64, 40
1, 97909, Control_c, 0, 64, 0
1, 98042, Control_c, 0, 64, 56
1, 98058, Control_c, 0, 64, 65
1, 98073, Control_c, 0, 64, 70
1, 98096, Control_c, 0, 64, 75
1, 98111, Control_c, 0, 64, 81
1, 98126, Control_c, 0, 64, 88
1, 98140, Control_c, 0, 64, 93
1, 98155, Control_c, 0, 64, 101
1, 98164, Note_on_c, 0, 73, 57
1, 98170, Control_c, 0, 64, 113
1, 98182, Note_on_c, 0, 49, 47
1, 98185, Control_c, 0, 64, 127
1, 98214, Note_off_c, 0, 70, 60
1, 98215, Note_off_c, 0, 42, 43
1, 98398, Note_on_c, 0, 58, 39
1, 98441, Note_off_c, 0, 49, 0
1, 98478, Poly_aftertouch_c, 0, 49, 127
1, 98563, Note_off_c, 0, 58, 42
1, 98672, Note_on_c, 0, 61, 36
1, 98772, Note_off_c, 0, 73, 54
1, 98800, Note_off_c, 0, 61, 34
1, 99010, Note_on_c, 0, 45, 43
1, 99023, Control_c, 0, 64, 99
1, 99037, Control_c, 0, 64, 84
1, 99052, Control_c, 0, 64, 70
1, 99067, Control_c, 0, 64, 28
1, 99082, Control_c, 0, 64, 0
1, 99104, Poly_aftertouch_c, 0, 49, 0
1, 99230, Control_c, 0, 64, 57
1, 99244, Control_c, 0, 64, 65
1, 99259, Control_c, 0, 64, 70
1, 99274, Control_c, 0, 64, 76
1, 99276, Note_on_c, 0, 69, 48
1, 99289, Control_c, 0, 64, 81
1, 99291, Note_on_c, 0, 52, 39
1, 99304, Control_c, 0, 64, 88
1, 99319, Control_c, 0, 64, 94
1, 99334, Control_c, 0, 64, 103
1, 99348, Control_c, 0, 64, 116
1, 99363, Control_c, 0, 64, 127
1, 99511, Note_on_c, 0, 73, 68
1, 99518, Note_off_c, 0, 45, 39
1, 99552, Note_on_c, 0, 57, 38
1, 99576, Note_off_c, 0, 69, 58
1, 99672, Note_off_c, 0, 57, 54
1, 99699, Note_off_c, 0, 52, 41
1, 99732, Note_on_c, 0, 69, 66
1, 99769, Note_on_c, 0, 61, 44
1, 99808, Note_off_c, 0, 61, 57
1, 99949, Control_c, 0, 64, 123
1, 99964, Control_c, 0, 64, 90
1, 99977, Note_on_c, 0, 68, 62
1, 99979, Control_c, 0, 64, 71
1, 99980, Note_on_c, 0, 40, 40
1, 99980, Note_off_c, 0, 73, 30
1, 99993, Control_c, 0, 64, 0
1, 100003, Note_off_c, 0, 69, 57
1, 100212, Note_on_c, 0, 71, 58
1, 100235, Note_on_c, 0, 47, 36
1, 100258, Note_off_c, 0, 68, 57
1, 100260, Control_c, 0, 64, 29
1, 100275, Control_c, 0, 64, 63
1, 100290, Note_off_c, 0, 40, 49
1, 100290, Control_c, 0, 64, 71
1, 100305, Control_c, 0, 64, 81
1, 100319, Control_c, 0, 64, 94
1, 100341, Control_c, 0, 64, 118
1, 100356, Control_c, 0, 64, 127
1, 100444, Note_on_c, 0, 56, 44
1, 100493, Note_off_c, 0, 47, 43
1, 100583, Note_off_c, 0, 56, 36
1, 100678, Note_on_c, 0, 59, 53
1, 100763, Note_off_c, 0, 59, 51
1, 101006, Note_on_c, 0, 67, 62
1, 101024, Control_c, 0, 64, 101
1, 101032, Note_on_c, 0, 43, 42
1, 101039, Control_c, 0, 64, 87
1, 101054, Control_c, 0, 64, 74
1, 101068, Control_c, 0, 64, 46
1, 101074, Note_off_c, 0, 71, 60
1, 101090, Control_c, 0, 64, 0
1, 101238, Control_c, 0, 64, 46
1, 101253, Control_c, 0, 64, 66
1, 101269, Control_c, 0, 64, 77
1, 101284, Control_c, 0, 64, 91
1, 101298, Control_c, 0, 64, 112
1, 101313, Control_c, 0, 64, 127
1, 101367, Note_on_c, 0, 71, 71
1, 101420, Note_on_c, 0, 50, 43
1, 101492, Note_off_c, 0, 67, 56
1, 101622, Note_off_c, 0, 43, 40
1, 101632, Note_on_c, 0, 55, 51
1, 101687, Note_off_c, 0, 50, 63
1, 101775, Note_off_c, 0, 55, 53
1, 101824, Note_on_c, 0, 67, 65
1, 101862, Note_on_c, 0, 59, 39
1, 101903, Note_off_c, 0, 59, 49
1, 101918, Note_off_c, 0, 71, 54
1, 102077, Control_c, 0, 64, 92
1, 102090, Note_on_c, 0, 66, 64
1, 102092, Control_c, 0, 64, 73
1, 102107, Note_on_c, 0, 50, 42
1, 102107, Control_c, 0, 64, 43
1, 102112, Note_off_c, 0, 67, 59
1, 102121, Control_c, 0, 64, 0
1, 102314, Control_c, 0, 64, 61
1, 102323, Note_on_c, 0, 54, 45
1, 102329, Control_c, 0, 64, 72
1, 102344, Control_c, 0, 64, 83
1, 102359, Control_c, 0, 64, 102
1, 102374, Control_c, 0, 64, 127
1, 102542, Note_on_c, 0, 71, 67
1, 102590, Note_on_c, 0, 62, 37
1, 102619, Note_off_c, 0, 66, 57
1, 102676, Note_off_c, 0, 50, 35
1, 102806, Note_on_c, 0, 66, 49
1, 102807, Note_off_c, 0, 71, 57
1, 102868, Note_off_c, 0, 62, 34
1, 102868, Note_off_c, 0, 66, 56
1, 102945, Note_off_c, 0, 54, 27
1, 103048, Control_c, 0, 64, 109
1, 103063, Control_c, 0, 64, 88
1, 103078, Control_c, 0, 64, 71
1, 103085, Note_on_c, 0, 73, 64
1, 103093, Control_c, 0, 64, 36
1, 103107, Control_c, 0, 64, 0
1, 103119, Note_on_c, 0, 52, 36
1, 103197, Control_c, 0, 64, 56
1, 103211, Control_c, 0, 64, 69
1, 103226, Control_c, 0, 64, 80
1, 103241, Control_c, 0, 64, 98
1, 103248, Note_off_c, 0, 52, 54
1, 103255, Control_c, 0, 64, 127
1, 103433, Note_on_c, 0, 62, 37
1, 103632, Note_on_c, 0, 76, 42
1, 103667, Note_on_c, 0, 74, 61
1, 103671, Note_on_c, 0, 68, 36
1, 103677, Note_off_c, 0, 73, 52
1, 103677, Note_off_c, 0, 76, 46
1, 103760, Note_off_c, 0, 68, 54
1, 103796, Note_off_c, 0, 62, 35
1, 103913, Note_on_c, 0, 71, 50
1, 104162, Note_off_c, 0, 71, 38
1, 104181, Note_on_c, 0, 73, 57
1, 104189, Control_c, 0, 64, 106
1, 104192, Note_on_c, 0, 70, 46
1, 104204, Control_c, 0, 64, 88
1, 104207, Note_off_c, 0, 74, 55
1, 104218, Control_c, 0, 64, 72
1, 104233, Control_c, 0, 64, 51
1, 104248, Control_c, 0, 64, 0
1, 104454, Note_on_c, 0, 66, 39
1, 104589, Control_c, 0, 64, 21
1, 104604, Control_c, 0, 64, 53
1, 104619, Control_c, 0, 64, 61
1, 104634, Control_c, 0, 64, 64
1, 104649, Control_c, 0, 64, 66
1, 104663, Control_c, 0, 64, 69
1, 104678, Control_c, 0, 64, 73
1, 104693, Control_c, 0, 64, 77
1, 104703, Note_on_c, 0, 61, 36
1, 104708, Control_c, 0, 64, 82
1, 104723, Control_c, 0, 64, 87
1, 104738, Control_c, 0, 64, 92
1, 104753, Control_c, 0, 64, 97
1, 104768, Control_c, 0, 64, 103
1, 104782, Control_c, 0, 64, 117
1, 104797, Control_c, 0, 64, 127
1, 105000, Note_on_c, 0, 54, 34
1, 105002, Note_off_c, 0, 73, 53
1, 105033, Note_off_c, 0, 70, 37
1, 105048, Note_off_c, 0, 61, 37
1, 105164, Note_off_c, 0, 66, 36
1, 105248, Control_c, 0, 67, 126
1, 105264, Control_c, 0, 67, 123
1, 105279, Control_c, 0, 67, 118
1, 105294, Control_c, 0, 67, 111
1, 105309, Control_c, 0, 67, 105
1, 105324, Control_c, 0, 67, 98
1, 105338, Control_c, 0, 67, 91
1, 105353, Control_c, 0, 67, 84
1, 105368, Control_c, 0, 67, 79
1, 105383, Control_c, 0, 67, 74
1, 105398, Control_c, 0, 64, 99
1, 105398, Control_c, 0, 67, 70
1, 105411, Note_on_c, 0, 52, 43
1, 105412, Control_c, 0, 64, 79
1, 105412, Control_c, 0, 67, 67
1, 105427, Control_c, 0, 64, 63
1, 105427, Control_c, 0, 67, 63
1, 105442, Control_c, 0, 64, 0
1, 105442, Control_c, 0, 67, 59
1, 105452, Note_off_c, 0, 54, 44
1, 105456, Control_c, 0, 67, 54
1, 105471, Control_c, 0, 67, 50
1, 105486, Control_c, 0, 67, 45
1, 105501, Control_c, 0, 67, 37
1, 105516, Control_c, 0, 67, 30
1, 105531, Control_c, 0, 64, 47
1, 105531, Control_c, 0, 67, 22
1, 105546, Control_c, 0, 64, 66
1, 105546, Control_c, 0, 67, 13
1, 105561, Control_c, 0, 64, 73
1, 105561, Control_c, 0, 67, 0
1, 105583, Control_c, 0, 64, 82
1, 105598, Control_c, 0, 64, 96
1, 105612, Control_c, 0, 64, 127
1, 105758, Note_off_c, 0, 52, 36
1, 105802, Note_on_c, 0, 69, 46
1, 106101, Note_on_c, 0, 73, 64
1, 106148, Note_on_c, 0, 61, 32
1, 106151, Note_on_c, 0, 57, 21
1, 106159, Note_on_c, 0, 64, 32
1, 106193, Note_off_c, 0, 69, 55
1, 106299, Note_off_c, 0, 57, 52
1, 106306, Note_off_c, 0, 64, 47
1, 106333, Note_off_c, 0, 61, 47
1, 106351, Note_on_c, 0, 69, 59
1, 106559, Note_on_c, 0, 68, 65
1, 106583, Control_c, 0, 64, 110
1, 106590, Note_on_c, 0, 51, 45
1, 106595, Note_off_c, 0, 73, 30
1, 106598, Control_c, 0, 64, 84
1, 106610, Note_off_c, 0, 69, 56
1, 106613, Control_c, 0, 64, 66
1, 106628, Control_c, 0, 64, 0
1, 106732, Control_c, 0, 64, 45
1, 106747, Control_c, 0, 64, 65
1, 106761, Control_c, 0, 64, 73
1, 106775, Note_on_c, 0, 71, 68
1, 106776, Control_c, 0, 64, 84
1, 106791, Control_c, 0, 64, 100
1, 106805, Control_c, 0, 64, 127
1, 106892, Note_off_c, 0, 68, 39
1, 106977, Note_on_c, 0, 66, 65
1, 107007, Note_on_c, 0, 61, 42
1, 107011, Note_on_c, 0, 57, 39
1, 107161, Note_off_c, 0, 61, 37
1, 107163, Note_off_c, 0, 51, 33
1, 107167, Note_on_c, 0, 69, 73
1, 107202, Note_off_c, 0, 71, 61
1, 107296, Note_off_c, 0, 66, 33
1, 107348, Control_c, 0, 64, 116
1, 107363, Control_c, 0, 64, 87
1, 107364, Note_on_c, 0, 73, 75
1, 107376, Note_off_c, 0, 57, 33
1, 107377, Control_c, 0, 64, 67
1, 107380, Note_on_c, 0, 50, 53
1, 107392, Control_c, 0, 64, 0
1, 107400, Note_off_c, 0, 69, 62
1, 107496, Control_c, 0, 64, 56
1, 107510, Control_c, 0, 64, 69
1, 107525, Control_c, 0, 64, 80
1, 107535, Note_on_c, 0, 64, 71
1, 107540, Control_c, 0, 64, 108
1, 107555, Control_c, 0, 64, 127
1, 107717, Note_on_c, 0, 68, 78
1, 107721, Note_off_c, 0, 64, 56
1, 107727, Note_on_c, 0, 52, 50
1, 107752, Note_on_c, 0, 59, 40
1, 107753, Note_off_c, 0, 50, 38
1, 107765, Note_on_c, 0, 56, 35
1, 107811, Note_off_c, 0, 73, 58
1, 107854, Note_off_c, 0, 52, 55
1, 107904, Note_on_c, 0, 71, 79
1, 107904, Note_off_c, 0, 59, 37
1, 107905, Note_off_c, 0, 68, 62
1, 107940, Note_off_c, 0, 56, 40
1, 108125, Control_c, 0, 64, 101
1, 108140, Note_on_c, 0, 75, 73
1, 108140, Control_c, 0, 64, 80
1, 108155, Control_c, 0, 64, 63
1, 108167, Note_on_c, 0, 49, 50
1, 108170, Control_c, 0, 64, 0
1, 108181, Note_off_c, 0, 71, 59
1, 108288, Control_c, 0, 64, 43
1, 108303, Control_c, 0, 64, 69
1, 108318, Control_c, 0, 64, 85
1, 108333, Control_c, 0, 64, 127
1, 108335, Note_off_c, 0, 49, 62
1, 108460, Note_on_c, 0, 78, 75
1, 108579, Note_on_c, 0, 52, 45
1, 108583, Note_off_c, 0, 75, 58
1, 108661, Note_on_c, 0, 57, 47
1, 108730, Note_off_c, 0, 52, 37
1, 108786, Note_on_c, 0, 64, 50
1, 108876, Note_off_c, 0, 64, 57
1, 108967, Note_off_c, 0, 57, 36
1, 109082, Note_on_c, 0, 76, 59
1, 109232, Note_off_c, 0, 78, 38
1, 109233, Note_off_c, 0, 76, 60
1, 109342, Control_c, 0, 64, 117
1, 109347, Note_on_c, 0, 48, 54
1, 109357, Control_c, 0, 64, 83
1, 109372, Control_c, 0, 64, 59
1, 109386, Control_c, 0, 64, 0
1, 109430, Control_c, 0, 64, 11
1, 109445, Control_c, 0, 64, 66
1, 109460, Control_c, 0, 64, 81
1, 109475, Control_c, 0, 64, 108
1, 109490, Control_c, 0, 64, 127
1, 109507, Note_on_c, 0, 77, 71
1, 109529, Note_off_c, 0, 48, 61
1, 109666, Note_on_c, 0, 81, 79
1, 109686, Note_off_c, 0, 77, 60
1, 109812, Note_on_c, 0, 77, 76
1, 109838, Note_on_c, 0, 65, 50
1, 109842, Note_on_c, 0, 57, 54
1, 109846, Note_on_c, 0, 60, 51
1, 109897, Note_off_c, 0, 81, 53
1, 109905, Note_off_c, 0, 65, 60
1, 109948, Note_on_c, 0, 76, 84
1, 109963, Note_off_c, 0, 60, 62
1, 109984, Note_off_c, 0, 57, 59
1, 109984, Note_off_c, 0, 77, 63
1, 110064, Note_on_c, 0, 79, 83
1, 110086, Note_off_c, 0, 76, 64
1, 110135, Control_c, 0, 64, 123
1, 110150, Control_c, 0, 64, 84
1, 110165, Control_c, 0, 64, 59
1, 110180, Control_c, 0, 64, 0
1, 110188, Note_on_c, 0, 76, 84
1, 110191, Note_on_c, 0, 47, 69
1, 110239, Control_c, 0, 64, 65
1, 110243, Note_off_c, 0, 79, 53
1, 110253, Control_c, 0, 64, 81
1, 110268, Control_c, 0, 64, 127
1, 110288, Note_off_c, 0, 47, 63
1, 110307, Note_on_c, 0, 74, 83
1, 110309, Note_off_c, 0, 76, 64
1, 110405, Note_on_c, 0, 77, 85
1, 110413, Note_off_c, 0, 74, 51
1, 110514, Note_on_c, 0, 65, 65
1, 110517, Note_on_c, 0, 62, 59
1, 110518, Note_on_c, 0, 69, 81
1, 110521, Note_off_c, 0, 77, 60
1, 110524, Note_on_c, 0, 55, 63
1, 110598, Note_off_c, 0, 65, 58
1, 110612, Note_on_c, 0, 74, 91
1, 110625, Note_off_c, 0, 62, 61
1, 110646, Note_off_c, 0, 69, 56
1, 110668, Note_off_c, 0, 55, 62
1, 110708, Note_on_c, 0, 77, 85
1, 110739, Note_off_c, 0, 74, 62
1, 110771, Control_c, 0, 64, 87
1, 110786, Control_c, 0, 64, 56
1, 110801, Control_c, 0, 64, 0
1, 110811, Note_on_c, 0, 81, 90
1, 110814, Note_on_c, 0, 46, 80
1, 110835, Note_off_c, 0, 77, 63
1, 110870, Control_c, 0, 64, 68
1, 110885, Control_c, 0, 64, 92
1, 110894, Note_off_c, 0, 46, 61
1, 110899, Control_c, 0, 64, 127
1, 110926, Note_on_c, 0, 72, 88
1, 110960, Note_off_c, 0, 81, 63
1, 111013, Note_on_c, 0, 76, 91
1, 111022, Note_off_c, 0, 72, 60
1, 111069, Note_off_c, 0, 76, 66
1, 111115, Note_on_c, 0, 55, 70
1, 111117, Note_on_c, 0, 64, 70
1, 111120, Note_on_c, 0, 60, 66
1, 111120, Note_on_c, 0, 79, 93
1, 111181, Note_off_c, 0, 64, 61
1, 111215, Note_off_c, 0, 60, 62
1, 111227, Note_on_c, 0, 82, 97
1, 111244, Note_off_c, 0, 55, 61
1, 111285, Note_off_c, 0, 79, 60
1, 111324, Note_on_c, 0, 83, 94
1, 111331, Note_off_c, 0, 82, 65
1, 111453, Note_on_c, 0, 86, 94
1, 111463, Control_c, 0, 64, 84
1, 111468, Note_on_c, 0, 45, 79
1, 111470, Note_off_c, 0, 83, 64
1, 111477, Control_c, 0, 64, 41
1, 111492, Control_c, 0, 64, 0
1, 111537, Control_c, 0, 64, 62
1, 111551, Control_c, 0, 64, 81
1, 111573, Control_c, 0, 64, 127
1, 111584, Note_off_c, 0, 45, 63
1, 111586, Note_on_c, 0, 84, 87
1, 111687, Note_off_c, 0, 86, 58
1, 111695, Note_on_c, 0, 81, 94
1, 111740, Note_off_c, 0, 84, 59
1, 111810, Note_off_c, 0, 81, 63
1, 111824, Note_on_c, 0, 77, 88
1, 111832, Note_on_c, 0, 60, 64
1, 111835, Note_on_c, 0, 53, 67
1, 111838, Note_on_c, 0, 63, 63
1, 111934, Note_off_c, 0, 63, 55
1, 111943, Note_on_c, 0, 76, 88
1, 111960, Note_off_c, 0, 60, 61
1, 111984, Note_off_c, 0, 77, 57
1, 111996, Note_off_c, 0, 53, 59
1, 112068, Note_on_c, 0, 75, 93
1, 112070, Note_off_c, 0, 76, 65
1, 112303, Note_on_c, 0, 83, 94
1, 112330, Note_on_c, 0, 44, 80
1, 112332, Note_off_c, 0, 75, 59
1, 112336, Control_c, 0, 64, 99
1, 112351, Control_c, 0, 64, 72
1, 112366, Control_c, 0, 64, 0
1, 112440, Control_c, 0, 64, 62
1, 112456, Control_c, 0, 64, 75
1, 112470, Control_c, 0, 64, 100
1, 112485, Control_c, 0, 64, 127
1, 112684, Note_on_c, 0, 51, 68
1, 112789, Note_off_c, 0, 44, 59
1, 112861, Note_off_c, 0, 83, 60
1, 112915, Note_on_c, 0, 59, 69
1, 112983, Note_off_c, 0, 51, 60
1, 113105, Note_on_c, 0, 52, 69
1, 113123, Note_off_c, 0, 59, 60
1, 113273, Note_on_c, 0, 76, 92
1, 113292, Note_on_c, 0, 45, 64
1, 113293, Control_c, 0, 64, 83
1, 113308, Control_c, 0, 64, 48
1, 113323, Control_c, 0, 64, 0
1, 113332, Note_off_c, 0, 52, 57
1, 113397, Control_c, 0, 64, 64
1, 113412, Control_c, 0, 64, 77
1, 113427, Control_c, 0, 64, 101
1, 113442, Control_c, 0, 64, 127
1, 113511, Note_on_c, 0, 53, 65
1, 113515, Note_off_c, 0, 45, 57
1, 113694, Note_off_c, 0, 53, 59
1, 113704, Note_on_c, 0, 60, 63
1, 113877, Note_on_c, 0, 74, 66
1, 113892, Note_on_c, 0, 54, 59
1, 113892, Note_off_c, 0, 60, 55
1, 113948, Note_on_c, 0, 72, 74
1, 113979, Note_off_c, 0, 76, 54
1, 113997, Control_c, 0, 64, 98
1, 114012, Control_c, 0, 64, 69
1, 114027, Control_c, 0, 64, 0
1, 114028, Note_on_c, 0, 71, 76
1, 114032, Note_off_c, 0, 74, 63
1, 114052, Note_on_c, 0, 47, 52
1, 114056, Note_off_c, 0, 54, 54
1, 114069, Note_off_c, 0, 72, 59
1, 114102, Control_c, 0, 64, 50
1, 114117, Control_c, 0, 64, 71
1, 114132, Control_c, 0, 64, 93
1, 114147, Control_c, 0, 64, 127
1, 114169, Note_off_c, 0, 71, 62
1, 114205, Note_off_c, 0, 47, 57
1, 114217, Note_on_c, 0, 55, 55
1, 114369, Note_on_c, 0, 64, 80
1, 114380, Note_on_c, 0, 62, 63
1, 114387, Note_off_c, 0, 55, 50
1, 114513, Note_on_c, 0, 56, 73
1, 114515, Note_off_c, 0, 62, 57
1, 114628, Control_c, 0, 64, 100
1, 114643, Control_c, 0, 64, 70
1, 114658, Control_c, 0, 64, 0
1, 114670, Note_on_c, 0, 48, 74
1, 114706, Note_off_c, 0, 56, 59
1, 114710, Note_off_c, 0, 64, 65
1, 114717, Control_c, 0, 64, 55
1, 114732, Control_c, 0, 64, 74
1, 114746, Control_c, 0, 64, 106
1, 114761, Control_c, 0, 64, 127
1, 114801, Note_on_c, 0, 65, 86
1, 114860, Note_on_c, 0, 57, 63
1, 114866, Note_off_c, 0, 48, 53
1, 114973, Note_on_c, 0, 69, 85
1, 115002, Note_on_c, 0, 63, 70
1, 115051, Note_off_c, 0, 65, 39
1, 115108, Note_off_c, 0, 63, 55
1, 115114, Note_on_c, 0, 75, 87
1, 115126, Note_off_c, 0, 69, 62
1, 115163, Note_on_c, 0, 53, 73
1, 115171, Note_off_c, 0, 57, 59
1, 115180, Note_off_c, 0, 75, 64
1, 115240, Note_off_c, 0, 53, 65
1, 115246, Note_on_c, 0, 75, 85
1, 115388, Note_on_c, 0, 44, 74
1, 115470, Note_on_c, 0, 83, 94
1, 115481, Control_c, 0, 64, 86
1, 115496, Control_c, 0, 64, 62
1, 115506, Note_off_c, 0, 75, 60
1, 115511, Control_c, 0, 64, 0
1, 115599, Control_c, 0, 64, 63
1, 115614, Control_c, 0, 64, 79
1, 115629, Control_c, 0, 64, 117
1, 115645, Control_c, 0, 64, 127
1, 115740, Note_on_c, 0, 51, 66
1, 115812, Note_off_c, 0, 44, 52
1, 115871, Note_off_c, 0, 83, 62
1, 115945, Note_on_c, 0, 59, 65
1, 116107, Note_on_c, 0, 52, 70
1, 116116, Note_off_c, 0, 59, 58
1, 116207, Note_off_c, 0, 51, 20
1, 116257, Note_on_c, 0, 76, 88
1, 116272, Control_c, 0, 64, 116
1, 116281, Note_on_c, 0, 45, 61
1, 116287, Control_c, 0, 64, 79
1, 116302, Control_c, 0, 64, 21
1, 116316, Control_c, 0, 64, 0
1, 116334, Note_off_c, 0, 52, 53
1, 116390, Control_c, 0, 64, 53
1, 116405, Control_c, 0, 64, 72
1, 116420, Control_c, 0, 64, 95
1, 116436, Control_c, 0, 64, 127
1, 116482, Note_off_c, 0, 45, 58
1, 116485, Note_on_c, 0, 53, 67
1, 116646, Note_off_c, 0, 53, 54
1, 116651, Note_on_c, 0, 60, 66
1, 116707, Note_off_c, 0, 76, 60
1, 116710, Note_on_c, 0, 77, 76
1, 116781, Note_on_c, 0, 76, 76
1, 116831, Note_off_c, 0, 77, 59
1, 116850, Note_on_c, 0, 54, 61
1, 116864, Note_on_c, 0, 75, 76
1, 116885, Note_off_c, 0, 60, 37
1, 116908, Note_off_c, 0, 76, 55
1, 116932, Note_on_c, 0, 74, 81
1, 116958, Note_off_c, 0, 75, 62
1, 116994, Note_off_c, 0, 74, 67
1, 117006, Note_on_c, 0, 72, 77
1, 117082, Control_c, 0, 64, 98
1, 117084, Note_on_c, 0, 71, 77
1, 117096, Control_c, 0, 64, 73
1, 117106, Note_off_c, 0, 72, 58
1, 117106, Note_on_c, 0, 47, 54
1, 117111, Control_c, 0, 64, 0
1, 117112, Note_off_c, 0, 54, 49
1, 117200, Control_c, 0, 64, 55
1, 117214, Control_c, 0, 64, 72
1, 117229, Control_c, 0, 64, 99
1, 117245, Control_c, 0, 64, 127
1, 117323, Note_off_c, 0, 71, 63
1, 117331, Note_on_c, 0, 55, 53
1, 117332, Note_off_c, 0, 47, 38
1, 117496, Note_on_c, 0, 64, 70
1, 117531, Note_on_c, 0, 62, 51
1, 117550, Note_off_c, 0, 55, 36
1, 117668, Note_off_c, 0, 62, 57
1, 117672, Note_on_c, 0, 56, 68
1, 117756, Control_c, 0, 64, 126
1, 117770, Control_c, 0, 64, 83
1, 117785, Control_c, 0, 64, 55
1, 117800, Control_c, 0, 64, 0
1, 117814, Note_on_c, 0, 48, 70
1, 117852, Note_off_c, 0, 56, 60
1, 117860, Control_c, 0, 64, 64
1, 117875, Control_c, 0, 64, 77
1, 117890, Control_c, 0, 64, 100
1, 117905, Control_c, 0, 64, 127
1, 117923, Note_on_c, 0, 65, 77
1, 117973, Note_off_c, 0, 64, 57
1, 118017, Note_on_c, 0, 57, 67
1, 118057, Note_off_c, 0, 48, 57
1, 118068, Note_on_c, 0, 68, 80
1, 118097, Note_off_c, 0, 65, 64
1, 118176, Note_off_c, 0, 68, 61
1, 118186, Control_c, 0, 64, 83
1, 118201, Control_c, 0, 64, 57
1, 118206, Note_on_c, 0, 69, 77
1, 118216, Control_c, 0, 64, 0
1, 118226, Note_on_c, 0, 63, 67
1, 118275, Control_c, 0, 64, 65
1, 118290, Control_c, 0, 64, 79
1, 118312, Control_c, 0, 64, 105
1, 118327, Control_c, 0, 64, 127
1, 118362, Note_on_c, 0, 74, 78
1, 118388, Note_off_c, 0, 63, 52
1, 118396, Note_off_c, 0, 69, 56
1, 118450, Note_on_c, 0, 53, 62
1, 118464, Note_off_c, 0, 57, 55
1, 118519, Note_on_c, 0, 75, 76
1, 118527, Note_off_c, 0, 53, 65
1, 118567, Note_off_c, 0, 74, 61
1, 118611, Note_off_c, 0, 75, 63
1, 118719, Note_on_c, 0, 83, 82
1, 118736, Note_on_c, 0, 44, 65
1, 118756, Control_c, 0, 64, 85
1, 118771, Control_c, 0, 64, 64
1, 118785, Control_c, 0, 64, 0
1, 118846, Control_c, 0, 64, 64
1, 118861, Control_c, 0, 64, 79
1, 118876, Control_c, 0, 64, 108
1, 118890, Control_c, 0, 64, 127
1, 118976, Note_on_c, 0, 76, 82
1, 118999, Note_off_c, 0, 44, 53
1, 119089, Note_off_c, 0, 83, 55
1, 119160, Note_off_c, 0, 76, 62
1, 119165, Note_on_c, 0, 71, 81
1, 119177, Note_on_c, 0, 59, 63
1, 119181, Note_on_c, 0, 52, 61
1, 119219, Note_off_c, 0, 71, 64
1, 119336, Note_on_c, 0, 64, 83
1, 119346, Note_off_c, 0, 52, 58
1, 119375, Note_off_c, 0, 59, 53
1, 119461, Control_c, 0, 64, 104
1, 119476, Control_c, 0, 64, 74
1, 119490, Control_c, 0, 64, 0
1, 119502, Note_on_c, 0, 48, 77
1, 119534, Control_c, 0, 64, 57
1, 119549, Control_c, 0, 64, 73
1, 119552, Note_off_c, 0, 64, 63
1, 119564, Control_c, 0, 64, 103
1, 119568, Note_off_c, 0, 48, 63
1, 119579, Control_c, 0, 64, 127
1, 119639, Note_on_c, 0, 65, 83
1, 119788, Note_on_c, 0, 69, 84
1, 119795, Note_on_c, 0, 63, 74
1, 119807, Note_on_c, 0, 57, 70
1, 119814, Note_on_c, 0, 53, 70
1, 119852, Note_off_c, 0, 65, 54
1, 119861, Note_off_c, 0, 63, 61
1, 119887, Note_off_c, 0, 57, 59
1, 119895, Note_off_c, 0, 53, 65
1, 119928, Note_on_c, 0, 75, 88
1, 119950, Note_off_c, 0, 69, 64
1, 119992, Note_off_c, 0, 75, 65
1, 120062, Control_c, 0, 64, 89
1, 120071, Note_on_c, 0, 83, 95
1, 120077, Control_c, 0, 64, 54
1, 120079, Note_on_c, 0, 47, 83
1, 120092, Control_c, 0, 64, 0
1, 120136, Control_c, 0, 64, 67
1, 120151, Control_c, 0, 64, 93
1, 120165, Control_c, 0, 64, 127
1, 120212, Note_on_c, 0, 76, 94
1, 120220, Note_off_c, 0, 47, 60
1, 120286, Note_off_c, 0, 83, 59
1, 120334, Note_off_c, 0, 76, 62
1, 120349, Note_on_c, 0, 71, 92
1, 120350, Note_on_c, 0, 62, 79
1, 120356, Note_on_c, 0, 52, 71
1, 120356, Note_on_c, 0, 56, 75
1, 120398, Note_off_c, 0, 71, 65
1, 120413, Note_off_c, 0, 62, 60
1, 120429, Note_off_c, 0, 56, 63
1, 120430, Note_off_c, 0, 52, 62
1, 120482, Note_on_c, 0, 64, 94
1, 120588, Control_c, 0, 64, 85
1, 120603, Control_c, 0, 64, 51
1, 120617, Note_on_c, 0, 45, 90
1, 120618, Control_c, 0, 64, 0
1, 120662, Control_c, 0, 64, 71
1, 120674, Note_off_c, 0, 64, 65
1, 120677, Control_c, 0, 64, 102
1, 120692, Control_c, 0, 64, 127
1, 120741, Note_off_c, 0, 45, 61
1, 120747, Note_on_c, 0, 65, 92
1, 120899, Note_on_c, 0, 69, 94
1, 120900, Note_on_c, 0, 60, 87
1, 120908, Note_on_c, 0, 53, 83
1, 120948, Note_off_c, 0, 60, 65
1, 120952, Note_off_c, 0, 65, 50
1, 120987, Note_off_c, 0, 53, 67
1, 121052, Note_on_c, 0, 75, 95
1, 121077, Note_off_c, 0, 69, 65
1, 121127, Note_off_c, 0, 75, 65
1, 121241, Control_c, 0, 64, 87
1, 121251, Note_on_c, 0, 83, 95
1, 121256, Control_c, 0, 64, 55
1, 121264, Note_on_c, 0, 40, 77
1, 121267, Note_on_c, 0, 47, 82
1, 121271, Control_c, 0, 64, 0
1, 121323, Control_c, 0, 64, 65
1, 121337, Control_c, 0, 64, 91
1, 121352, Control_c, 0, 64, 127
1, 121362, Note_off_c, 0, 40, 64
1, 121377, Note_off_c, 0, 47, 65
1, 121464, Note_on_c, 0, 76, 93
1, 121553, Note_off_c, 0, 83, 58
1, 121619, Note_on_c, 0, 71, 85
1, 121619, Note_off_c, 0, 76, 61
1, 121631, Note_on_c, 0, 52, 69
1, 121634, Note_on_c, 0, 59, 69
1, 121660, Note_off_c, 0, 71, 67
1, 121771, Note_on_c, 0, 64, 87
1, 121932, Note_on_c, 0, 71, 78
1, 122099, Note_on_c, 0, 65, 82
1, 122117, Note_off_c, 0, 64, 63
1, 122130, Control_c, 0, 64, 92
1, 122140, Note_off_c, 0, 71, 60
1, 122145, Control_c, 0, 64, 66
1, 122159, Control_c, 0, 64, 0
1, 122204, Control_c, 0, 64, 63
1, 122219, Control_c, 0, 64, 80
1, 122233, Control_c, 0, 64, 127
1, 122284, Note_on_c, 0, 71, 67
1, 122370, Note_off_c, 0, 65, 51
1, 122451, Note_on_c, 0, 66, 74
1, 122456, Control_c, 0, 64, 106
1, 122471, Control_c, 0, 64, 75
1, 122486, Control_c, 0, 64, 0
1, 122491, Note_off_c, 0, 71, 60
1, 122559, Control_c, 0, 64, 62
1, 122574, Control_c, 0, 64, 76
1, 122589, Control_c, 0, 64, 98
1, 122604, Control_c, 0, 64, 127
1, 122641, Note_on_c, 0, 71, 68
1, 122707, Control_c, 0, 67, 8
1, 122722, Control_c, 0, 67, 8
1, 122737, Control_c, 0, 67, 9
1, 122752, Control_c, 0, 67, 11
1, 122766, Control_c, 0, 67, 13
1, 122781, Control_c, 0, 67, 16
1, 122804, Control_c, 0, 67, 19
1, 122819, Control_c, 0, 67, 23
1, 122823, Note_off_c, 0, 71, 61
1, 122835, Note_on_c, 0, 67, 63
1, 122835, Control_c, 0, 67, 28
1, 122850, Control_c, 0, 64, 97
1, 122850, Control_c, 0, 67, 33
1, 122859, Note_off_c, 0, 66, 59
1, 122864, Control_c, 0, 64, 68
1, 122864, Control_c, 0, 67, 38
1, 122879, Control_c, 0, 64, 0
1, 122879, Control_c, 0, 67, 42
1, 122894, Control_c, 0, 67, 46
1, 122909, Control_c, 0, 67, 52
1, 122924, Control_c, 0, 67, 57
1, 122938, Control_c, 0, 64, 17
1, 122938, Control_c, 0, 67, 64
1, 122953, Control_c, 0, 64, 66
1, 122953, Control_c, 0, 67, 71
1, 122968, Control_c, 0, 64, 80
1, 122968, Control_c, 0, 67, 78
1, 122982, Control_c, 0, 64, 103
1, 122982, Control_c, 0, 67, 83
1, 122997, Control_c, 0, 64, 127
1, 122997, Control_c, 0, 67, 89
1, 123012, Control_c, 0, 67, 94
1, 123027, Control_c, 0, 67, 100
1, 123039, Note_on_c, 0, 71, 56
1, 123042, Control_c, 0, 67, 106
1, 123056, Control_c, 0, 67, 111
1, 123071, Control_c, 0, 67, 115
1, 123072, Note_off_c, 0, 52, 54
1, 123072, Note_off_c, 0, 59, 57
1, 123086, Control_c, 0, 67, 119
1, 123096, Note_off_c, 0, 67, 55
1, 123100, Control_c, 0, 67, 123
1, 123115, Control_c, 0, 67, 127
1, 123243, Note_on_c, 0, 68, 59
1, 123249, Note_off_c, 0, 71, 63
1, 123249, Control_c, 0, 64, 117
1, 123264, Control_c, 0, 64, 82
1, 123279, Control_c, 0, 64, 62
1, 123294, Control_c, 0, 64, 0
1, 123323, Control_c, 0, 64, 47
1, 123338, Control_c, 0, 64, 66
1, 123353, Control_c, 0, 64, 79
1, 123368, Control_c, 0, 64, 98
1, 123382, Control_c, 0, 64, 127
1, 123492, Note_on_c, 0, 71, 51
1, 123598, Note_off_c, 0, 68, 39
1, 123759, Note_off_c, 0, 71, 60
1, 123762, Control_c, 0, 64, 103
1, 123771, Note_on_c, 0, 69, 48
1, 123777, Control_c, 0, 64, 79
1, 123792, Control_c, 0, 64, 50
1, 123806, Control_c, 0, 64, 0
1, 123836, Control_c, 0, 64, 28
1, 123851, Control_c, 0, 64, 63
1, 123866, Control_c, 0, 64, 72
1, 123880, Control_c, 0, 64, 87
1, 123895, Control_c, 0, 64, 127
1, 124083, Note_on_c, 0, 71, 42
1, 124163, Note_off_c, 0, 69, 34
1, 124492, Note_off_c, 0, 71, 54
1, 124496, Control_c, 0, 64, 98
1, 124510, Note_on_c, 0, 70, 35
1, 124510, Control_c, 0, 64, 79
1, 124525, Control_c, 0, 64, 64
1, 124540, Control_c, 0, 64, 0
1, 124585, Control_c, 0, 64, 43
1, 124600, Control_c, 0, 64, 63
1, 124615, Control_c, 0, 64, 71
1, 124629, Control_c, 0, 64, 80
1, 124644, Control_c, 0, 64, 95
1, 124659, Control_c, 0, 64, 114
1, 124674, Control_c, 0, 64, 127
1, 125154, Control_c, 0, 64, 96
1, 125169, Control_c, 0, 64, 78
1, 125179, Note_on_c, 0, 71, 47
1, 125184, Note_off_c, 0, 70, 50
1, 125184, Control_c, 0, 64, 64
1, 125199, Control_c, 0, 64, 0
1, 125214, Note_on_c, 0, 44, 30
1, 125259, Control_c, 0, 64, 36
1, 125274, Control_c, 0, 64, 62
1, 125289, Control_c, 0, 64, 70
1, 125303, Control_c, 0, 64, 80
1, 125318, Control_c, 0, 64, 97
1, 125333, Control_c, 0, 64, 127
1, 125379, Note_off_c, 0, 44, 41
1, 125687, Note_on_c, 0, 68, 43
1, 125724, Note_off_c, 0, 71, 59
1, 126011, Note_on_c, 0, 63, 32
1, 126021, Note_on_c, 0, 59, 34
1, 126096, Note_off_c, 0, 59, 57
1, 126116, Note_off_c, 0, 63, 49
1, 126512, Control_c, 0, 64, 94
1, 126526, Control_c, 0, 64, 75
1, 126546, Note_off_c, 0, 68, 53
1, 126549, Control_c, 0, 64, 53
1, 126552, Note_on_c, 0, 67, 46
1, 126562, Note_on_c, 0, 39, 34
1, 126564, Control_c, 0, 64, 0
1, 126653, Control_c, 0, 64, 57
1, 126668, Control_c, 0, 64, 68
1, 126682, Control_c, 0, 64, 76
1, 126697, Control_c, 0, 64, 88
1, 126712, Control_c, 0, 64, 106
1, 126724, Note_off_c, 0, 39, 41
1, 126726, Control_c, 0, 64, 127
1, 126877, Note_on_c, 0, 70, 46
1, 126888, Note_off_c, 0, 67, 53
1, 127181, Note_on_c, 0, 63, 33
1, 127196, Note_on_c, 0, 58, 30
1, 127335, Note_off_c, 0, 58, 36
1, 127348, Note_off_c, 0, 63, 43
1, 127590, Note_off_c, 0, 70, 53
1, 127920, Control_c, 0, 64, 97
1, 127923, Note_on_c, 0, 42, 40
1, 127935, Control_c, 0, 64, 80
1, 127950, Control_c, 0, 64, 65
1, 127965, Control_c, 0, 64, 0
1, 128046, Control_c, 0, 64, 53
1, 128061, Control_c, 0, 64, 67
1, 128076, Control_c, 0, 64, 77
1, 128091, Control_c, 0, 64, 89
1, 128105, Control_c, 0, 64, 107
1, 128120, Control_c, 0, 64, 127
1, 128144, Note_off_c, 0, 42, 41
1, 128218, Note_on_c, 0, 66, 50
1, 128466, Note_on_c, 0, 70, 65
1, 128489, Note_on_c, 0, 58, 41
1, 128507, Note_on_c, 0, 61, 32
1, 128511, Note_off_c, 0, 66, 56
1, 128591, Note_off_c, 0, 61, 35
1, 128612, Note_off_c, 0, 58, 36
1, 128699, Note_on_c, 0, 66, 61
1, 128848, Note_off_c, 0, 70, 29
1, 128927, Control_c, 0, 64, 93
1, 128942, Control_c, 0, 64, 76
1, 128950, Note_off_c, 0, 66, 57
1, 128954, Note_on_c, 0, 65, 46
1, 128957, Control_c, 0, 64, 55
1, 128972, Control_c, 0, 64, 0
1, 128988, Note_on_c, 0, 37, 34
1, 129090, Control_c, 0, 64, 52
1, 129105, Control_c, 0, 64, 66
1, 129119, Control_c, 0, 64, 77
1, 129134, Control_c, 0, 64, 90
1, 129149, Control_c, 0, 64, 111
1, 129164, Control_c, 0, 64, 127
1, 129168, Note_off_c, 0, 37, 39
1, 129287, Note_on_c, 0, 68, 49
1, 129316, Note_off_c, 0, 65, 54
1, 129531, Note_on_c, 0, 56, 37
1, 129547, Note_on_c, 0, 61, 31
1, 129646, Note_off_c, 0, 56, 48
1, 129680, Note_off_c, 0, 61, 36
1, 130161, Note_on_c, 0, 64, 44
1, 130166, Control_c, 0, 64, 103
1, 130178, Note_off_c, 0, 68, 47
1, 130181, Control_c, 0, 64, 86
1, 130194, Note_on_c, 0, 40, 26
1, 130196, Control_c, 0, 64, 73
1, 130211, Control_c, 0, 64, 60
1, 130226, Control_c, 0, 64, 0
1, 130337, Control_c, 0, 64, 23
1, 130352, Control_c, 0, 64, 64
1, 130366, Control_c, 0, 64, 73
1, 130381, Control_c, 0, 64, 82
1, 130396, Control_c, 0, 64, 95
1, 130411, Control_c, 0, 64, 112
1, 130426, Control_c, 0, 64, 127
1, 130451, Note_off_c, 0, 40, 42
1, 130588, Note_on_c, 0, 68, 51
1, 130628, Note_off_c, 0, 64, 56
1, 130835, Note_on_c, 0, 56, 38
1, 130839, Note_on_c, 0, 59, 32
1, 130913, Note_off_c, 0, 56, 53
1, 130924, Note_off_c, 0, 59, 55
1, 131058, Note_on_c, 0, 64, 55
1, 131125, Note_off_c, 0, 68, 46
1, 131322, Control_c, 0, 64, 116
1, 131333, Note_on_c, 0, 63, 55
1, 131337, Control_c, 0, 64, 89
1, 131348, Note_off_c, 0, 64, 56
1, 131352, Control_c, 0, 64, 72
1, 131367, Control_c, 0, 64, 43
1, 131369, Note_on_c, 0, 35, 30
1, 131382, Control_c, 0, 64, 0
1, 131456, Control_c, 0, 64, 21
1, 131471, Control_c, 0, 64, 62
1, 131486, Control_c, 0, 64, 73
1, 131494, Note_off_c, 0, 35, 56
1, 131501, Control_c, 0, 64, 85
1, 131515, Control_c, 0, 64, 105
1, 131530, Control_c, 0, 64, 127
1, 131859, Note_on_c, 0, 68, 60
1, 131885, Note_on_c, 0, 56, 29
1, 131893, Note_on_c, 0, 51, 42
1, 131900, Note_on_c, 0, 59, 38
1, 131933, Note_off_c, 0, 63, 52
1, 131958, Note_off_c, 0, 59, 56
1, 131982, Note_off_c, 0, 56, 39
1, 132038, Note_off_c, 0, 51, 35
1, 132428, Control_c, 0, 64, 111
1, 132434, Note_on_c, 0, 70, 53
1, 132442, Control_c, 0, 64, 85
1, 132451, Note_off_c, 0, 68, 56
1, 132457, Control_c, 0, 64, 67
1, 132469, Note_on_c, 0, 37, 33
1, 132472, Control_c, 0, 64, 0
1, 132583, Control_c, 0, 64, 30
1, 132598, Control_c, 0, 64, 63
1, 132613, Control_c, 0, 64, 73
1, 132628, Control_c, 0, 64, 86
1, 132642, Control_c, 0, 64, 127
1, 132687, Note_off_c, 0, 37, 39
1, 132981, Note_on_c, 0, 73, 45
1, 133045, Note_on_c, 0, 63, 43
1, 133049, Note_off_c, 0, 73, 59
1, 133054, Note_on_c, 0, 53, 41
1, 133055, Note_on_c, 0, 59, 27
1, 133056, Note_on_c, 0, 71, 44
1, 133077, Note_off_c, 0, 70, 53
1, 133083, Note_on_c, 0, 68, 41
1, 133146, Note_off_c, 0, 63, 51
1, 133208, Note_off_c, 0, 59, 36
1, 133233, Note_off_c, 0, 53, 43
1, 133710, Note_on_c, 0, 70, 52
1, 133717, Control_c, 0, 64, 105
1, 133727, Note_off_c, 0, 71, 39
1, 133732, Control_c, 0, 64, 87
1, 133739, Note_on_c, 0, 39, 34
1, 133747, Control_c, 0, 64, 71
1, 133752, Note_off_c, 0, 68, 43
1, 133762, Control_c, 0, 64, 42
1, 133777, Control_c, 0, 64, 0
1, 133880, Control_c, 0, 64, 36
1, 133895, Control_c, 0, 64, 65
1, 133909, Control_c, 0, 64, 75
1, 133924, Control_c, 0, 64, 89
1, 133939, Control_c, 0, 64, 117
1, 133954, Control_c, 0, 64, 127
1, 134043, Note_off_c, 0, 39, 39
1, 134531, Note_on_c, 0, 67, 22
1, 134534, Note_on_c, 0, 63, 32
1, 134575, Note_on_c, 0, 46, 14
1, 134584, Note_on_c, 0, 55, 24
1, 134693, Note_off_c, 0, 63, 46
1, 134708, Note_off_c, 0, 67, 41
1, 134729, Note_off_c, 0, 70, 37
1, 134745, Note_off_c, 0, 46, 40
1, 134774, Note_off_c, 0, 55, 35
1, 135185, Control_c, 0, 67, 126
1, 135200, Control_c, 0, 67, 124
1, 135215, Control_c, 0, 67, 122
1, 135230, Control_c, 0, 67, 118
1, 135245, Control_c, 0, 67, 113
1, 135259, Control_c, 0, 67, 108
1, 135274, Control_c, 0, 67, 105
1, 135289, Control_c, 0, 67, 104
1, 135304, Control_c, 0, 67, 103
1, 135319, Control_c, 0, 67, 102
1, 135334, Control_c, 0, 67, 101
1, 135407, Control_c, 0, 67, 101
1, 135467, Control_c, 0, 67, 102
1, 135481, Control_c, 0, 67, 102
1, 135496, Control_c, 0, 67, 103
1, 135511, Control_c, 0, 67, 103
1, 135563, Control_c, 0, 67, 104
1, 135593, Control_c, 0, 67, 104
1, 135623, Control_c, 0, 67, 105
1, 135653, Control_c, 0, 67, 105
1, 135665, Note_on_c, 0, 82, 51
1, 135668, Control_c, 0, 67, 106
1, 135683, Control_c, 0, 64, 119
1, 135698, Control_c, 0, 64, 95
1, 135698, Control_c, 0, 67, 106
1, 135701, Note_on_c, 0, 43, 34
1, 135712, Control_c, 0, 64, 80
1, 135712, Control_c, 0, 67, 107
1, 135727, Control_c, 0, 64, 67
1, 135742, Control_c, 0, 64, 38
1, 135742, Control_c, 0, 67, 107
1, 135757, Control_c, 0, 64, 0
1, 135801, Control_c, 0, 64, 56
1, 135816, Control_c, 0, 64, 66
1, 135816, Control_c, 0, 67, 108
1, 135830, Control_c, 0, 64, 75
1, 135830, Control_c, 0, 67, 109
1, 135845, Control_c, 0, 64, 87
1, 135860, Control_c, 0, 64, 116
1, 135860, Control_c, 0, 67, 109
1, 135875, Control_c, 0, 64, 127
1, 135875, Control_c, 0, 67, 110
1, 135890, Control_c, 0, 67, 111
1, 135904, Control_c, 0, 67, 112
1, 135919, Control_c, 0, 67, 113
1, 135934, Control_c, 0, 67, 114
1, 135949, Control_c, 0, 67, 116
1, 135964, Control_c, 0, 67, 117
1, 135969, Note_off_c, 0, 43, 41
1, 135978, Control_c, 0, 67, 119
1, 135993, Control_c, 0, 67, 122
1, 136008, Control_c, 0, 67, 126
1, 136023, Control_c, 0, 67, 127
1, 136163, Note_on_c, 0, 79, 51
1, 136176, Note_on_c, 0, 70, 27
1, 136221, Note_off_c, 0, 82, 56
1, 136382, Note_off_c, 0, 70, 38
1, 136526, Note_on_c, 0, 58, 33
1, 136545, Note_on_c, 0, 67, 35
1, 136565, Note_on_c, 0, 62, 25
1, 136620, Note_off_c, 0, 67, 56
1, 136622, Note_off_c, 0, 62, 53
1, 136674, Note_off_c, 0, 58, 43
1, 136839, Note_on_c, 0, 70, 34
1, 136908, Note_off_c, 0, 70, 50
1, 137075, Control_c, 0, 64, 96
1, 137090, Control_c, 0, 64, 76
1, 137094, Note_on_c, 0, 78, 55
1, 137105, Control_c, 0, 64, 43
1, 137115, Note_off_c, 0, 79, 57
1, 137120, Control_c, 0, 64, 0
1, 137132, Note_on_c, 0, 38, 28
1, 137194, Control_c, 0, 64, 42
1, 137210, Control_c, 0, 64, 66
1, 137225, Control_c, 0, 64, 76
1, 137239, Control_c, 0, 64, 88
1, 137254, Control_c, 0, 64, 107
1, 137269, Control_c, 0, 64, 127
1, 137283, Note_off_c, 0, 38, 40
1, 137376, Note_on_c, 0, 81, 55
1, 137403, Note_on_c, 0, 69, 41
1, 137421, Note_off_c, 0, 78, 58
1, 137457, Note_off_c, 0, 69, 56
1, 137635, Note_on_c, 0, 66, 36
1, 137651, Note_on_c, 0, 57, 38
1, 137653, Note_on_c, 0, 62, 26
1, 137701, Note_off_c, 0, 66, 59
1, 137718, Note_off_c, 0, 62, 42
1, 137737, Note_off_c, 0, 57, 44
1, 137900, Note_on_c, 0, 69, 38
1, 137930, Note_off_c, 0, 69, 55
1, 138092, Control_c, 0, 64, 105
1, 138106, Control_c, 0, 64, 82
1, 138121, Control_c, 0, 64, 65
1, 138136, Control_c, 0, 64, 0
1, 138145, Note_on_c, 0, 41, 43
1, 138181, Control_c, 0, 64, 51
1, 138196, Control_c, 0, 64, 66
1, 138211, Control_c, 0, 64, 75
1, 138225, Control_c, 0, 64, 86
1, 138240, Control_c, 0, 64, 106
1, 138255, Control_c, 0, 64, 127
1, 138258, Note_off_c, 0, 41, 53
1, 138363, Note_on_c, 0, 77, 58
1, 138389, Note_on_c, 0, 69, 43
1, 138403, Note_off_c, 0, 81, 61
1, 138588, Note_on_c, 0, 81, 64
1, 138604, Note_on_c, 0, 65, 37
1, 138607, Note_on_c, 0, 57, 38
1, 138615, Note_on_c, 0, 60, 30
1, 138646, Note_off_c, 0, 77, 62
1, 138649, Note_off_c, 0, 69, 35
1, 138651, Note_off_c, 0, 65, 61
1, 138697, Note_off_c, 0, 60, 52
1, 138706, Note_off_c, 0, 57, 59
1, 138790, Note_on_c, 0, 77, 65
1, 138808, Note_on_c, 0, 69, 59
1, 138868, Note_off_c, 0, 69, 52
1, 138965, Note_off_c, 0, 81, 32
1, 138989, Control_c, 0, 64, 124
1, 139003, Control_c, 0, 64, 87
1, 139018, Control_c, 0, 64, 68
1, 139030, Note_on_c, 0, 76, 59
1, 139033, Control_c, 0, 64, 0
1, 139044, Note_on_c, 0, 36, 39
1, 139048, Note_off_c, 0, 77, 54
1, 139122, Control_c, 0, 64, 51
1, 139137, Control_c, 0, 64, 68
1, 139152, Control_c, 0, 64, 80
1, 139167, Control_c, 0, 64, 98
1, 139182, Control_c, 0, 64, 127
1, 139203, Note_off_c, 0, 36, 34
1, 139296, Note_on_c, 0, 79, 56
1, 139324, Note_on_c, 0, 67, 38
1, 139361, Note_off_c, 0, 76, 38
1, 139376, Note_off_c, 0, 67, 59
1, 139527, Note_on_c, 0, 55, 39
1, 139537, Note_on_c, 0, 60, 33
1, 139540, Note_on_c, 0, 64, 38
1, 139605, Note_off_c, 0, 60, 57
1, 139607, Note_off_c, 0, 64, 58
1, 139673, Note_off_c, 0, 55, 33
1, 139776, Note_on_c, 0, 67, 41
1, 139876, Note_off_c, 0, 67, 37
1, 140089, Note_on_c, 0, 75, 59
1, 140116, Control_c, 0, 64, 118
1, 140131, Control_c, 0, 64, 92
1, 140135, Note_on_c, 0, 51, 40
1, 140140, Note_on_c, 0, 39, 39
1, 140146, Control_c, 0, 64, 73
1, 140160, Control_c, 0, 64, 54
1, 140166, Note_off_c, 0, 79, 59
1, 140175, Control_c, 0, 64, 0
1, 140264, Control_c, 0, 64, 61
1, 140279, Control_c, 0, 64, 70
1, 140294, Control_c, 0, 64, 80
1, 140309, Control_c, 0, 64, 94
1, 140324, Control_c, 0, 64, 123
1, 140339, Control_c, 0, 64, 127
1, 140366, Note_off_c, 0, 39, 39
1, 140406, Note_off_c, 0, 51, 45
1, 140487, Note_on_c, 0, 79, 65
1, 140522, Note_on_c, 0, 67, 40
1, 140580, Note_off_c, 0, 67, 52
1, 140613, Note_off_c, 0, 75, 36
1, 140722, Note_on_c, 0, 63, 44
1, 140729, Note_on_c, 0, 55, 41
1, 140756, Note_on_c, 0, 58, 35
1, 140804, Note_off_c, 0, 63, 52
1, 140822, Note_off_c, 0, 58, 46
1, 140881, Note_off_c, 0, 55, 36
1, 140941, Note_on_c, 0, 75, 66
1, 140974, Note_on_c, 0, 67, 50
1, 141054, Note_off_c, 0, 67, 52
1, 141161, Control_c, 0, 64, 92
1, 141175, Control_c, 0, 64, 72
1, 141177, Note_off_c, 0, 79, 37
1, 141190, Note_on_c, 0, 74, 64
1, 141190, Control_c, 0, 64, 0
1, 141208, Note_on_c, 0, 46, 43
1, 141209, Note_on_c, 0, 34, 43
1, 141220, Note_off_c, 0, 75, 59
1, 141295, Control_c, 0, 64, 41
1, 141310, Control_c, 0, 64, 66
1, 141314, Note_off_c, 0, 34, 60
1, 141320, Note_off_c, 0, 46, 60
1, 141324, Control_c, 0, 64, 77
1, 141339, Control_c, 0, 64, 95
1, 141354, Control_c, 0, 64, 127
1, 141424, Note_on_c, 0, 67, 50
1, 141523, Control_c, 0, 67, 122
1, 141538, Control_c, 0, 67, 115
1, 141553, Control_c, 0, 67, 107
1, 141568, Control_c, 0, 67, 98
1, 141583, Control_c, 0, 67, 89
1, 141597, Control_c, 0, 67, 78
1, 141612, Control_c, 0, 67, 65
1, 141627, Control_c, 0, 67, 54
1, 141639, Note_on_c, 0, 79, 72
1, 141642, Control_c, 0, 67, 44
1, 141656, Control_c, 0, 67, 31
1, 141666, Note_on_c, 0, 62, 30
1, 141670, Note_on_c, 0, 55, 36
1, 141671, Control_c, 0, 67, 15
1, 141677, Note_on_c, 0, 58, 35
1, 141683, Note_off_c, 0, 67, 33
1, 141686, Control_c, 0, 67, 0
1, 141734, Note_off_c, 0, 62, 56
1, 141765, Note_off_c, 0, 58, 48
1, 141782, Note_off_c, 0, 55, 52
1, 141904, Note_off_c, 0, 74, 34
1, 141907, Note_on_c, 0, 67, 37
1, 141939, Note_off_c, 0, 67, 55
1, 141961, Note_off_c, 0, 79, 59
1, 142058, Control_c, 0, 67, 8
1, 142072, Control_c, 0, 67, 9
1, 142087, Control_c, 0, 67, 11
1, 142102, Control_c, 0, 67, 12
1, 142117, Control_c, 0, 67, 15
1, 142132, Control_c, 0, 67, 18
1, 142146, Control_c, 0, 67, 23
1, 142161, Control_c, 0, 67, 29
1, 142175, Note_on_c, 0, 81, 63
1, 142176, Control_c, 0, 67, 35
1, 142190, Control_c, 0, 64, 92
1, 142190, Control_c, 0, 67, 42
1, 142205, Control_c, 0, 64, 74
1, 142205, Control_c, 0, 67, 49
1, 142208, Note_on_c, 0, 36, 37
1, 142208, Note_on_c, 0, 48, 32
1, 142220, Control_c, 0, 64, 53
1, 142220, Control_c, 0, 67, 55
1, 142235, Control_c, 0, 64, 0
1, 142235, Control_c, 0, 67, 60
1, 142250, Control_c, 0, 67, 65
1, 142273, Control_c, 0, 64, 38
1, 142273, Control_c, 0, 67, 69
1, 142288, Control_c, 0, 64, 61
1, 142288, Control_c, 0, 67, 73
1, 142303, Control_c, 0, 64, 69
1, 142303, Control_c, 0, 67, 78
1, 142318, Control_c, 0, 64, 79
1, 142318, Control_c, 0, 67, 82
1, 142333, Control_c, 0, 64, 98
1, 142333, Control_c, 0, 67, 87
1, 142347, Control_c, 0, 64, 127
1, 142347, Control_c, 0, 67, 91
1, 142362, Control_c, 0, 67, 95
1, 142372, Note_off_c, 0, 48, 43
1, 142375, Note_off_c, 0, 36, 38
1, 142377, Control_c, 0, 67, 99
1, 142392, Control_c, 0, 67, 104
1, 142406, Control_c, 0, 67, 108
1, 142421, Control_c, 0, 67, 112
1, 142436, Control_c, 0, 67, 117
1, 142451, Control_c, 0, 67, 122
1, 142466, Control_c, 0, 67, 127
1, 142480, Note_off_c, 0, 81, 59
1, 142488, Note_on_c, 0, 79, 40
1, 142494, Note_on_c, 0, 76, 38
1, 142551, Note_off_c, 0, 79, 56
1, 142593, Note_off_c, 0, 76, 37
1, 142683, Note_on_c, 0, 84, 51
1, 142745, Note_on_c, 0, 82, 63
1, 142769, Note_on_c, 0, 64, 23
1, 142771, Note_on_c, 0, 58, 28
1, 142792, Note_on_c, 0, 67, 21
1, 142798, Note_off_c, 0, 84, 39
1, 142837, Note_off_c, 0, 67, 56
1, 142908, Note_off_c, 0, 64, 42
1, 142932, Note_off_c, 0, 58, 49
1, 143033, Note_on_c, 0, 79, 32
1, 143034, Note_on_c, 0, 76, 29
1, 143078, Note_off_c, 0, 76, 49
1, 143081, Note_off_c, 0, 79, 46
1, 143302, Control_c, 0, 64, 109
1, 143317, Control_c, 0, 64, 90
1, 143327, Note_on_c, 0, 81, 49
1, 143332, Control_c, 0, 64, 74
1, 143347, Control_c, 0, 64, 60
1, 143362, Control_c, 0, 64, 0
1, 143365, Note_off_c, 0, 82, 59
1, 143369, Note_on_c, 0, 38, 27
1, 143373, Note_on_c, 0, 50, 24
1, 143436, Control_c, 0, 64, 44
1, 143451, Control_c, 0, 64, 64
1, 143466, Control_c, 0, 64, 72
1, 143481, Control_c, 0, 64, 82
1, 143495, Control_c, 0, 64, 96
1, 143510, Control_c, 0, 64, 122
1, 143525, Control_c, 0, 64, 127
1, 143555, Note_off_c, 0, 38, 41
1, 143555, Note_off_c, 0, 50, 42
1, 143686, Note_on_c, 0, 78, 33
1, 143701, Note_on_c, 0, 69, 32
1, 143771, Note_off_c, 0, 69, 50
1, 143803, Note_off_c, 0, 78, 39
1, 143993, Note_on_c, 0, 66, 34
1, 144009, Note_on_c, 0, 57, 30
1, 144131, Note_off_c, 0, 66, 44
1, 144145, Note_off_c, 0, 57, 54
1, 144359, Note_on_c, 0, 78, 26
1, 144369, Note_on_c, 0, 69, 26
1, 144439, Note_off_c, 0, 81, 39
1, 144491, Note_off_c, 0, 69, 37
1, 144527, Note_off_c, 0, 78, 40
1, 144849, Note_on_c, 0, 49, 43
1, 144889, Control_c, 0, 64, 102
1, 144904, Control_c, 0, 64, 90
1, 144919, Control_c, 0, 64, 79
1, 144934, Control_c, 0, 64, 69
1, 144948, Control_c, 0, 64, 53
1, 144963, Control_c, 0, 64, 0
1, 145126, Control_c, 0, 64, 49
1, 145141, Control_c, 0, 64, 61
1, 145156, Control_c, 0, 64, 65
1, 145171, Control_c, 0, 64, 68
1, 145186, Control_c, 0, 64, 72
1, 145201, Control_c, 0, 64, 75
1, 145216, Control_c, 0, 64, 80
1, 145220, Note_on_c, 0, 66, 53
1, 145231, Control_c, 0, 64, 86
1, 145245, Control_c, 0, 64, 93
1, 145268, Control_c, 0, 64, 101
1, 145283, Control_c, 0, 64, 119
1, 145297, Control_c, 0, 64, 127
1, 145530, Note_on_c, 0, 69, 61
1, 145575, Note_on_c, 0, 54, 34
1, 145579, Note_on_c, 0, 61, 38
1, 145597, Note_on_c, 0, 57, 29
1, 145606, Note_off_c, 0, 66, 50
1, 145724, Note_off_c, 0, 61, 41
1, 145727, Control_c, 0, 67, 126
1, 145742, Control_c, 0, 67, 122
1, 145757, Control_c, 0, 67, 117
1, 145764, Note_on_c, 0, 66, 67
1, 145771, Control_c, 0, 67, 110
1, 145786, Control_c, 0, 67, 102
1, 145801, Control_c, 0, 67, 94
1, 145815, Control_c, 0, 67, 86
1, 145824, Note_off_c, 0, 49, 42
1, 145830, Control_c, 0, 67, 80
1, 145845, Control_c, 0, 67, 74
1, 145860, Control_c, 0, 67, 69
1, 145875, Control_c, 0, 67, 64
1, 145883, Note_off_c, 0, 69, 49
1, 145889, Control_c, 0, 67, 59
1, 145904, Control_c, 0, 67, 54
1, 145919, Control_c, 0, 67, 50
1, 145934, Control_c, 0, 67, 46
1, 145949, Control_c, 0, 67, 42
1, 145964, Control_c, 0, 67, 37
1, 145976, Note_on_c, 0, 65, 67
1, 145979, Control_c, 0, 67, 32
1, 145988, Note_off_c, 0, 57, 32
1, 145994, Control_c, 0, 64, 109
1, 145994, Control_c, 0, 67, 26
1, 146007, Note_on_c, 0, 48, 48
1, 146018, Control_c, 0, 64, 86
1, 146018, Control_c, 0, 67, 21
1, 146032, Control_c, 0, 64, 68
1, 146032, Control_c, 0, 67, 17
1, 146037, Note_off_c, 0, 66, 53
1, 146047, Control_c, 0, 64, 0
1, 146047, Control_c, 0, 67, 13
1, 146062, Control_c, 0, 67, 9
1, 146077, Control_c, 0, 67, 0
1, 146084, Note_off_c, 0, 54, 42
1, 146121, Control_c, 0, 64, 38
1, 146136, Control_c, 0, 64, 64
1, 146151, Control_c, 0, 64, 72
1, 146166, Control_c, 0, 64, 82
1, 146181, Control_c, 0, 64, 97
1, 146182, Note_on_c, 0, 68, 69
1, 146195, Control_c, 0, 64, 127
1, 146310, Note_off_c, 0, 65, 40
1, 146366, Note_on_c, 0, 63, 61
1, 146390, Note_on_c, 0, 57, 40
1, 146414, Note_on_c, 0, 54, 43
1, 146432, Note_off_c, 0, 68, 57
1, 146459, Note_off_c, 0, 48, 47
1, 146545, Note_on_c, 0, 66, 71
1, 146549, Note_off_c, 0, 54, 56
1, 146580, Note_off_c, 0, 57, 36
1, 146699, Control_c, 0, 64, 105
1, 146713, Control_c, 0, 64, 82
1, 146728, Control_c, 0, 64, 63
1, 146734, Note_on_c, 0, 69, 69
1, 146743, Control_c, 0, 64, 0
1, 146751, Note_on_c, 0, 47, 54
1, 146767, Note_off_c, 0, 63, 34
1, 146863, Note_off_c, 0, 66, 34
1, 146926, Note_on_c, 0, 62, 69
1, 147117, Note_on_c, 0, 65, 64
1, 147136, Note_off_c, 0, 69, 59
1, 147146, Note_on_c, 0, 56, 45
1, 147155, Note_on_c, 0, 53, 46
1, 147317, Note_on_c, 0, 68, 73
1, 147436, Note_off_c, 0, 65, 59
1, 147553, Note_on_c, 0, 71, 79
1, 147603, Control_c, 0, 64, 47
1, 147618, Control_c, 0, 64, 66
1, 147633, Control_c, 0, 64, 76
1, 147638, Note_off_c, 0, 68, 55
1, 147648, Control_c, 0, 64, 89
1, 147663, Control_c, 0, 64, 127
1, 147775, Note_off_c, 0, 47, 59
1, 147782, Note_off_c, 0, 53, 58
1, 147805, Note_off_c, 0, 62, 35
1, 147814, Note_on_c, 0, 74, 74
1, 147828, Note_off_c, 0, 56, 57
1, 147875, Note_off_c, 0, 71, 61
1, 148098, Note_on_c, 0, 67, 52
1, 148104, Note_on_c, 0, 46, 41
1, 148107, Control_c, 0, 64, 114
1, 148109, Note_on_c, 0, 64, 46
1, 148116, Note_on_c, 0, 52, 41
1, 148118, Note_on_c, 0, 55, 42
1, 148122, Control_c, 0, 64, 85
1, 148136, Control_c, 0, 64, 69
1, 148151, Control_c, 0, 64, 0
1, 148277, Control_c, 0, 64, 44
1, 148292, Control_c, 0, 64, 66
1, 148307, Control_c, 0, 64, 77
1, 148322, Control_c, 0, 64, 99
1, 148336, Control_c, 0, 64, 127
1, 148478, Note_off_c, 0, 46, 41
1, 148518, Note_on_c, 0, 73, 59
1, 148559, Note_off_c, 0, 67, 59
1, 148565, Note_off_c, 0, 64, 36
1, 148573, Note_off_c, 0, 74, 59
1, 148576, Note_off_c, 0, 55, 0
1, 148629, Note_off_c, 0, 52, 30
1, 148635, Poly_aftertouch_c, 0, 55, 0
1, 148662, Note_off_c, 0, 73, 60
1, 148801, Note_on_c, 0, 45, 56
1, 148811, Control_c, 0, 64, 94
1, 148826, Control_c, 0, 64, 73
1, 148840, Control_c, 0, 64, 24
1, 148855, Control_c, 0, 64, 0
1, 148885, Control_c, 0, 64, 31
1, 148900, Control_c, 0, 64, 65
1, 148915, Control_c, 0, 64, 77
1, 148930, Control_c, 0, 64, 97
1, 148945, Control_c, 0, 64, 127
1, 148966, Note_off_c, 0, 45, 62
1, 148982, Note_on_c, 0, 74, 76
1, 149153, Note_on_c, 0, 78, 80
1, 149176, Note_off_c, 0, 74, 61
1, 149306, Note_on_c, 0, 74, 76
1, 149325, Note_on_c, 0, 66, 55
1, 149327, Note_on_c, 0, 62, 46
1, 149333, Note_on_c, 0, 57, 45
1, 149337, Note_on_c, 0, 54, 50
1, 149416, Note_off_c, 0, 62, 55
1, 149442, Note_off_c, 0, 78, 37
1, 149443, Note_off_c, 0, 66, 37
1, 149447, Note_on_c, 0, 73, 83
1, 149452, Note_off_c, 0, 57, 59
1, 149475, Note_off_c, 0, 74, 62
1, 149517, Note_off_c, 0, 54, 63
1, 149562, Note_on_c, 0, 76, 88
1, 149584, Note_off_c, 0, 73, 61
1, 149650, Control_c, 0, 64, 106
1, 149664, Control_c, 0, 64, 78
1, 149679, Control_c, 0, 64, 36
1, 149683, Note_on_c, 0, 73, 85
1, 149694, Note_on_c, 0, 44, 74
1, 149694, Control_c, 0, 64, 0
1, 149738, Control_c, 0, 64, 50
1, 149761, Control_c, 0, 64, 70
1, 149776, Control_c, 0, 64, 89
1, 149781, Note_off_c, 0, 76, 56
1, 149786, Note_off_c, 0, 44, 63
1, 149790, Control_c, 0, 64, 127
1, 149819, Note_on_c, 0, 71, 83
1, 149860, Note_off_c, 0, 73, 58
1, 149923, Note_on_c, 0, 74, 84
1, 149949, Note_off_c, 0, 71, 59
1, 150030, Note_on_c, 0, 66, 82
1, 150035, Note_off_c, 0, 74, 64
1, 150040, Note_on_c, 0, 62, 65
1, 150042, Note_on_c, 0, 54, 64
1, 150046, Note_on_c, 0, 59, 63
1, 150090, Note_off_c, 0, 62, 56
1, 150110, Note_off_c, 0, 59, 58
1, 150129, Note_on_c, 0, 71, 59
1, 150161, Note_off_c, 0, 54, 63
1, 150191, Note_off_c, 0, 66, 50
1, 150237, Note_on_c, 0, 74, 88
1, 150286, Note_off_c, 0, 71, 58
1, 150310, Control_c, 0, 64, 79
1, 150325, Control_c, 0, 64, 0
1, 150343, Note_on_c, 0, 78, 88
1, 150351, Note_on_c, 0, 43, 82
1, 150377, Note_off_c, 0, 74, 56
1, 150384, Control_c, 0, 64, 31
1, 150399, Control_c, 0, 64, 69
1, 150406, Note_off_c, 0, 43, 64
1, 150413, Control_c, 0, 64, 101
1, 150428, Control_c, 0, 64, 127
1, 150453, Note_on_c, 0, 69, 84
1, 150557, Note_on_c, 0, 73, 90
1, 150557, Note_off_c, 0, 69, 49
1, 150580, Note_off_c, 0, 78, 61
1, 150617, Note_off_c, 0, 73, 65
1, 150657, Note_on_c, 0, 52, 77
1, 150665, Note_on_c, 0, 61, 68
1, 150666, Note_on_c, 0, 76, 91
1, 150671, Note_on_c, 0, 57, 65
1, 150686, Note_on_c, 0, 74, 49
1, 150724, Note_off_c, 0, 74, 47
1, 150736, Note_off_c, 0, 61, 61
1, 150754, Note_off_c, 0, 57, 61
1, 150769, Note_on_c, 0, 79, 92
1, 150784, Note_off_c, 0, 52, 61
1, 150827, Note_off_c, 0, 76, 59
1, 150867, Note_on_c, 0, 80, 92
1, 150891, Note_off_c, 0, 79, 61
1, 150954, Control_c, 0, 64, 95
1, 150969, Control_c, 0, 64, 65
1, 150984, Control_c, 0, 64, 0
1, 150986, Note_on_c, 0, 83, 97
1, 150990, Note_on_c, 0, 42, 88
1, 151009, Note_off_c, 0, 80, 61
1, 151028, Control_c, 0, 64, 52
1, 151043, Control_c, 0, 64, 75
1, 151052, Note_off_c, 0, 42, 62
1, 151058, Control_c, 0, 64, 127
1, 151111, Note_on_c, 0, 81, 89
1, 151167, Note_off_c, 0, 83, 59
1, 151218, Note_on_c, 0, 78, 92
1, 151248, Note_off_c, 0, 81, 57
1, 151344, Note_on_c, 0, 74, 87
1, 151353, Note_off_c, 0, 78, 62
1, 151360, Note_on_c, 0, 50, 72
1, 151362, Note_on_c, 0, 60, 66
1, 151365, Note_on_c, 0, 57, 67
1, 151414, Note_off_c, 0, 60, 58
1, 151446, Note_off_c, 0, 57, 61
1, 151472, Note_on_c, 0, 73, 89
1, 151498, Note_off_c, 0, 50, 64
1, 151499, Note_off_c, 0, 74, 67
1, 151596, Note_on_c, 0, 72, 85
1, 151612, Note_off_c, 0, 73, 63
1, 151805, Note_on_c, 0, 81, 91
1, 151806, Control_c, 0, 64, 107
1, 151818, Note_on_c, 0, 31, 78
1, 151820, Note_on_c, 0, 43, 82
1, 151821, Control_c, 0, 64, 75
1, 151836, Control_c, 0, 64, 0
1, 151868, Note_off_c, 0, 72, 49
1, 151925, Control_c, 0, 64, 31
1, 151940, Control_c, 0, 64, 67
1, 151955, Control_c, 0, 64, 87
1, 151970, Control_c, 0, 64, 127
1, 152037, Note_off_c, 0, 31, 61
1, 152043, Note_on_c, 0, 79, 87
1, 152087, Note_off_c, 0, 43, 63
1, 152149, Note_off_c, 0, 81, 52
1, 152195, Note_on_c, 0, 75, 90
1, 152248, Note_off_c, 0, 79, 55
1, 152337, Note_on_c, 0, 72, 83
1, 152340, Note_off_c, 0, 75, 63
1, 152348, Note_on_c, 0, 51, 63
1, 152351, Note_on_c, 0, 58, 71
1, 152462, Note_on_c, 0, 70, 82
1, 152465, Note_off_c, 0, 72, 60
1, 152510, Note_off_c, 0, 51, 63
1, 152546, Note_off_c, 0, 58, 62
1, 152567, Note_on_c, 0, 69, 82
1, 152582, Note_off_c, 0, 70, 63
1, 152689, Note_on_c, 0, 77, 88
1, 152773, Note_off_c, 0, 69, 57
1, 152804, Note_on_c, 0, 75, 82
1, 152876, Note_off_c, 0, 77, 53
1, 152900, Note_on_c, 0, 70, 81
1, 152953, Note_off_c, 0, 75, 62
1, 152991, Note_on_c, 0, 67, 79
1, 152993, Control_c, 0, 64, 111
1, 152999, Note_off_c, 0, 70, 63
1, 153008, Control_c, 0, 64, 81
1, 153023, Control_c, 0, 64, 49
1, 153038, Control_c, 0, 64, 0
1, 153084, Note_on_c, 0, 66, 69
1, 153110, Note_off_c, 0, 67, 60
1, 153161, Note_on_c, 0, 65, 78
1, 153195, Note_off_c, 0, 66, 61
1, 153238, Note_on_c, 0, 72, 81
1, 153248, Note_off_c, 0, 65, 63
1, 153305, Control_c, 0, 64, 50
1, 153318, Note_on_c, 0, 70, 81
1, 153320, Control_c, 0, 64, 69
1, 153335, Control_c, 0, 64, 85
1, 153350, Control_c, 0, 64, 127
1, 153361, Note_off_c, 0, 72, 55
1, 153392, Note_on_c, 0, 67, 82
1, 153426, Note_off_c, 0, 70, 61
1, 153453, Note_off_c, 0, 67, 64
1, 153467, Note_on_c, 0, 63, 77
1, 153529, Note_on_c, 0, 62, 74
1, 153532, Note_off_c, 0, 63, 56
1, 153590, Note_on_c, 0, 61, 82
1, 153621, Note_off_c, 0, 62, 62
1, 153649, Note_off_c, 0, 61, 65
1, 153672, Note_on_c, 0, 69, 82
1, 153740, Note_on_c, 0, 67, 82
1, 153768, Note_off_c, 0, 69, 63
1, 153785, Control_c, 0, 64, 117
1, 153800, Control_c, 0, 64, 85
1, 153813, Note_on_c, 0, 63, 81
1, 153815, Control_c, 0, 64, 63
1, 153820, Note_off_c, 0, 67, 63
1, 153829, Control_c, 0, 64, 0
1, 153881, Note_off_c, 0, 63, 62
1, 153887, Note_on_c, 0, 60, 78
1, 153943, Note_off_c, 0, 60, 63
1, 153953, Note_on_c, 0, 58, 79
1, 154026, Note_on_c, 0, 57, 80
1, 154030, Note_off_c, 0, 58, 65
1, 154082, Note_on_c, 0, 31, 89
1, 154093, Note_on_c, 0, 65, 82
1, 154112, Control_c, 0, 64, 67
1, 154113, Note_off_c, 0, 57, 57
1, 154126, Control_c, 0, 64, 90
1, 154141, Control_c, 0, 64, 127
1, 154167, Note_on_c, 0, 63, 82
1, 154176, Note_off_c, 0, 31, 61
1, 154197, Note_off_c, 0, 65, 61
1, 154253, Note_on_c, 0, 58, 79
1, 154261, Note_off_c, 0, 63, 61
1, 154307, Note_off_c, 0, 58, 64
1, 154329, Note_on_c, 0, 46, 61
1, 154332, Note_on_c, 0, 39, 68
1, 154332, Note_on_c, 0, 55, 65
1, 154360, Note_off_c, 0, 46, 63
1, 154363, Note_off_c, 0, 55, 65
1, 154376, Note_off_c, 0, 39, 62
1, 154385, Control_c, 0, 64, 103
1, 154400, Control_c, 0, 64, 77
1, 154401, Note_on_c, 0, 51, 74
1, 154415, Control_c, 0, 64, 43
1, 154430, Control_c, 0, 64, 0
1, 154467, Note_off_c, 0, 51, 65
1, 154474, Note_on_c, 0, 50, 74
1, 154534, Note_off_c, 0, 50, 53
1, 154540, Note_on_c, 0, 49, 86
1, 154606, Note_off_c, 0, 49, 64
1, 154617, Note_on_c, 0, 50, 81
1, 154650, Note_off_c, 0, 50, 64
1, 154671, Note_on_c, 0, 53, 83
1, 154700, Note_off_c, 0, 53, 69
1, 154733, Note_on_c, 0, 32, 86
1, 154734, Note_on_c, 0, 44, 89
1, 154750, Note_on_c, 0, 57, 84
1, 154808, Note_on_c, 0, 58, 85
1, 154838, Note_off_c, 0, 44, 61
1, 154844, Note_off_c, 0, 57, 59
1, 154865, Note_off_c, 0, 32, 56
1, 154876, Note_on_c, 0, 62, 74
1, 154889, Note_off_c, 0, 58, 62
1, 154948, Note_on_c, 0, 31, 94
1, 154949, Control_c, 0, 64, 36
1, 154951, Note_on_c, 0, 65, 88
1, 154963, Note_off_c, 0, 62, 63
1, 154964, Control_c, 0, 64, 83
1, 154979, Control_c, 0, 64, 127
1, 155034, Note_on_c, 0, 63, 81
1, 155038, Note_off_c, 0, 31, 60
1, 155070, Note_off_c, 0, 65, 63
1, 155109, Note_on_c, 0, 58, 85
1, 155131, Note_off_c, 0, 63, 62
1, 155169, Note_off_c, 0, 58, 63
1, 155190, Note_on_c, 0, 55, 77
1, 155196, Note_on_c, 0, 46, 72
1, 155202, Note_on_c, 0, 39, 71
1, 155230, Note_off_c, 0, 46, 64
1, 155231, Note_off_c, 0, 55, 64
1, 155251, Note_off_c, 0, 39, 60
1, 155254, Control_c, 0, 64, 90
1, 155269, Control_c, 0, 64, 70
1, 155282, Note_on_c, 0, 52, 63
1, 155283, Control_c, 0, 64, 0
1, 155329, Note_off_c, 0, 52, 63
1, 155333, Note_on_c, 0, 50, 83
1, 155383, Note_off_c, 0, 50, 64
1, 155402, Note_on_c, 0, 49, 87
1, 155431, Control_c, 0, 64, 68
1, 155446, Control_c, 0, 64, 85
1, 155461, Control_c, 0, 64, 124
1, 155471, Note_off_c, 0, 49, 63
1, 155476, Control_c, 0, 64, 127
1, 155478, Note_on_c, 0, 50, 82
1, 155525, Note_off_c, 0, 50, 65
1, 155547, Note_on_c, 0, 53, 84
1, 155595, Note_off_c, 0, 53, 67
1, 155610, Control_c, 0, 64, 86
1, 155625, Control_c, 0, 64, 61
1, 155637, Note_on_c, 0, 32, 89
1, 155637, Note_on_c, 0, 44, 94
1, 155640, Control_c, 0, 64, 0
1, 155649, Note_on_c, 0, 57, 90
1, 155670, Control_c, 0, 64, 62
1, 155685, Control_c, 0, 64, 75
1, 155699, Control_c, 0, 64, 100
1, 155714, Control_c, 0, 64, 127
1, 155726, Note_on_c, 0, 58, 74
1, 155763, Note_off_c, 0, 32, 54
1, 155771, Note_off_c, 0, 44, 54
1, 155771, Note_off_c, 0, 57, 60
1, 155807, Note_on_c, 0, 62, 73
1, 155839, Note_off_c, 0, 58, 60
1, 155899, Note_off_c, 0, 62, 60
1, 155899, Control_c, 0, 64, 86
1, 155914, Control_c, 0, 64, 50
1, 155929, Control_c, 0, 64, 0
1, 155941, Note_on_c, 0, 43, 95
1, 155973, Control_c, 0, 64, 45
1, 155988, Control_c, 0, 64, 71
1, 156003, Control_c, 0, 64, 93
1, 156017, Note_on_c, 0, 51, 73
1, 156018, Control_c, 0, 64, 127
1, 156029, Note_off_c, 0, 43, 54
1, 156063, Note_off_c, 0, 51, 57
1, 156098, Note_on_c, 0, 63, 60
1, 156104, Note_on_c, 0, 58, 62
1, 156125, Note_on_c, 0, 31, 59
1, 156162, Note_off_c, 0, 31, 60
1, 156162, Note_off_c, 0, 63, 56
1, 156165, Control_c, 0, 64, 110
1, 156180, Control_c, 0, 64, 85
1, 156181, Note_on_c, 0, 51, 74
1, 156191, Note_off_c, 0, 58, 58
1, 156195, Control_c, 0, 64, 67
1, 156210, Control_c, 0, 64, 0
1, 156211, Note_off_c, 0, 51, 66
1, 156255, Note_on_c, 0, 41, 72
1, 156303, Note_off_c, 0, 41, 57
1, 156333, Note_on_c, 0, 49, 67
1, 156373, Control_c, 0, 67, 8
1, 156380, Note_off_c, 0, 49, 56
1, 156388, Control_c, 0, 67, 9
1, 156396, Note_on_c, 0, 31, 62
1, 156403, Control_c, 0, 67, 12
1, 156404, Note_on_c, 0, 58, 54
1, 156418, Control_c, 0, 67, 15
1, 156433, Control_c, 0, 67, 17
1, 156448, Control_c, 0, 67, 19
1, 156463, Control_c, 0, 67, 21
1, 156468, Note_on_c, 0, 49, 57
1, 156478, Control_c, 0, 67, 21
1, 156481, Note_off_c, 0, 58, 50
1, 156487, Note_off_c, 0, 31, 51
1, 156500, Control_c, 0, 67, 22
1, 156507, Note_off_c, 0, 49, 64
1, 156529, Control_c, 0, 67, 22
1, 156543, Note_on_c, 0, 39, 67
1, 156544, Control_c, 0, 67, 23
1, 156603, Control_c, 0, 67, 22
1, 156608, Note_on_c, 0, 47, 58
1, 156630, Note_off_c, 0, 39, 55
1, 156633, Control_c, 0, 67, 23
1, 156644, Note_off_c, 0, 47, 61
1, 156662, Control_c, 0, 67, 23
1, 156668, Note_on_c, 0, 31, 59
1, 156668, Note_on_c, 0, 58, 62
1, 156677, Control_c, 0, 67, 24
1, 156692, Control_c, 0, 67, 25
1, 156707, Control_c, 0, 67, 25
1, 156737, Note_on_c, 0, 47, 61
1, 156767, Control_c, 0, 67, 24
1, 156769, Note_off_c, 0, 47, 64
1, 156776, Note_off_c, 0, 31, 35
1, 156781, Control_c, 0, 67, 24
1, 156792, Note_on_c, 0, 41, 69
1, 156796, Control_c, 0, 67, 23
1, 156811, Control_c, 0, 67, 23
1, 156826, Control_c, 0, 67, 21
1, 156839, Note_off_c, 0, 58, 53
1, 156841, Control_c, 0, 67, 21
1, 156846, Note_off_c, 0, 41, 58
1, 156865, Note_on_c, 0, 49, 69
1, 156870, Control_c, 0, 67, 20
1, 156899, Control_c, 0, 67, 21
1, 156908, Note_off_c, 0, 49, 58
1, 156914, Control_c, 0, 67, 21
1, 156918, Note_on_c, 0, 31, 63
1, 156925, Note_on_c, 0, 58, 68
1, 156929, Control_c, 0, 67, 22
1, 156944, Control_c, 0, 67, 22
1, 156973, Control_c, 0, 67, 23
1, 156990, Note_off_c, 0, 58, 57
1, 156993, Note_on_c, 0, 49, 61
1, 157003, Control_c, 0, 67, 22
1, 157018, Control_c, 0, 67, 22
1, 157033, Control_c, 0, 67, 21
1, 157036, Note_off_c, 0, 49, 62
1, 157047, Note_on_c, 0, 38, 66
1, 157047, Control_c, 0, 67, 21
1, 157062, Control_c, 0, 67, 20
1, 157065, Note_off_c, 0, 31, 36
1, 157077, Control_c, 0, 67, 19
1, 157092, Control_c, 0, 67, 19
1, 157106, Control_c, 0, 67, 18
1, 157115, Note_on_c, 0, 46, 69
1, 157121, Control_c, 0, 67, 18
1, 157138, Note_off_c, 0, 38, 58
1, 157152, Note_off_c, 0, 46, 61
1, 157174, Note_on_c, 0, 31, 67
1, 157179, Note_on_c, 0, 58, 67
1, 157182, Control_c, 0, 67, 19
1, 157196, Control_c, 0, 67, 19
1, 157211, Control_c, 0, 67, 20
1, 157235, Note_on_c, 0, 46, 64
1, 157278, Control_c, 0, 67, 19
1, 157291, Note_off_c, 0, 46, 59
1, 157293, Control_c, 0, 67, 19
1, 157303, Note_on_c, 0, 39, 76
1, 157308, Control_c, 0, 67, 18
1, 157322, Control_c, 0, 67, 17
1, 157331, Note_off_c, 0, 31, 51
1, 157337, Control_c, 0, 67, 16
1, 157342, Note_off_c, 0, 58, 58
1, 157352, Control_c, 0, 67, 16
1, 157360, Note_on_c, 0, 47, 77
1, 157367, Control_c, 0, 67, 14
1, 157382, Control_c, 0, 67, 13
1, 157396, Control_c, 0, 67, 13
1, 157408, Note_off_c, 0, 39, 57
1, 157414, Note_off_c, 0, 47, 62
1, 157428, Note_on_c, 0, 58, 70
1, 157436, Note_on_c, 0, 31, 85
1, 157441, Control_c, 0, 67, 13
1, 157456, Control_c, 0, 67, 14
1, 157498, Note_on_c, 0, 47, 77
1, 157530, Control_c, 0, 67, 13
1, 157535, Note_off_c, 0, 47, 63
1, 157545, Control_c, 0, 67, 13
1, 157551, Note_on_c, 0, 41, 89
1, 157574, Control_c, 0, 67, 12
1, 157594, Note_off_c, 0, 31, 60
1, 157604, Note_off_c, 0, 58, 56
1, 157612, Note_on_c, 0, 49, 91
1, 157666, Note_off_c, 0, 41, 61
1, 157690, Note_off_c, 0, 49, 64
1, 157697, Note_on_c, 0, 58, 81
1, 157700, Note_on_c, 0, 31, 90
1, 157750, Note_on_c, 0, 49, 83
1, 157778, Note_off_c, 0, 58, 60
1, 157796, Control_c, 0, 67, 12
1, 157811, Control_c, 0, 67, 11
1, 157818, Note_on_c, 0, 43, 89
1, 157820, Note_off_c, 0, 49, 65
1, 157826, Control_c, 0, 67, 11
1, 157841, Control_c, 0, 67, 10
1, 157851, Note_on_c, 0, 58, 38
1, 157856, Control_c, 0, 67, 8
1, 157866, Note_off_c, 0, 31, 60
1, 157870, Control_c, 0, 67, 0
1, 157883, Note_on_c, 0, 51, 89
1, 157885, Control_c, 0, 64, 61
1, 157889, Note_off_c, 0, 58, 62
1, 157900, Control_c, 0, 64, 65
1, 157915, Control_c, 0, 64, 71
1, 157929, Control_c, 0, 64, 77
1, 157944, Control_c, 0, 64, 85
1, 157959, Control_c, 0, 64, 95
1, 157960, Note_on_c, 0, 31, 86
1, 157961, Note_on_c, 0, 58, 89
1, 157968, Note_off_c, 0, 51, 62
1, 157975, Control_c, 0, 64, 107
1, 157980, Note_off_c, 0, 43, 57
1, 157989, Control_c, 0, 64, 123
1, 158012, Control_c, 0, 64, 127
1, 158034, Note_off_c, 0, 31, 61
1, 158037, Note_on_c, 0, 51, 81
1, 158056, Control_c, 0, 64, 119
1, 158071, Control_c, 0, 64, 97
1, 158081, Note_off_c, 0, 58, 59
1, 158086, Control_c, 0, 64, 76
1, 158100, Control_c, 0, 64, 0
1, 158103, Note_off_c, 0, 51, 65
1, 158120, Note_on_c, 0, 44, 94
1, 158174, Control_c, 0, 64, 63
1, 158189, Control_c, 0, 64, 77
1, 158198, Note_on_c, 0, 53, 83
1, 158204, Control_c, 0, 64, 113
1, 158218, Control_c, 0, 64, 127
1, 158248, Note_off_c, 0, 44, 60
1, 158275, Note_on_c, 0, 62, 75
1, 158281, Note_on_c, 0, 58, 73
1, 158295, Note_on_c, 0, 32, 71
1, 158298, Note_on_c, 0, 34, 71
1, 158305, Note_off_c, 0, 53, 61
1, 158323, Control_c, 0, 64, 109
1, 158338, Control_c, 0, 64, 83
1, 158342, Note_off_c, 0, 32, 58
1, 158352, Control_c, 0, 64, 63
1, 158360, Note_on_c, 0, 53, 78
1, 158361, Note_off_c, 0, 62, 59
1, 158367, Control_c, 0, 64, 0
1, 158370, Note_off_c, 0, 58, 62
1, 158391, Note_off_c, 0, 34, 49
1, 158409, Note_off_c, 0, 53, 67
1, 158436, Note_on_c, 0, 43, 80
1, 158502, Note_off_c, 0, 43, 59
1, 158504, Note_on_c, 0, 52, 76
1, 158546, Note_off_c, 0, 52, 57
1, 158567, Note_on_c, 0, 58, 65
1, 158590, Note_on_c, 0, 32, 61
1, 158600, Note_on_c, 0, 34, 52
1, 158644, Note_on_c, 0, 52, 71
1, 158644, Note_off_c, 0, 32, 59
1, 158645, Note_off_c, 0, 58, 62
1, 158647, Note_off_c, 0, 34, 54
1, 158673, Note_off_c, 0, 52, 62
1, 158705, Note_on_c, 0, 41, 74
1, 158767, Note_on_c, 0, 50, 70
1, 158801, Note_off_c, 0, 41, 56
1, 158829, Note_off_c, 0, 50, 62
1, 158842, Note_on_c, 0, 58, 65
1, 158849, Note_on_c, 0, 32, 70
1, 158853, Note_on_c, 0, 34, 63
1, 158905, Note_on_c, 0, 50, 70
1, 158939, Note_off_c, 0, 50, 67
1, 158968, Note_on_c, 0, 43, 83
1, 158976, Note_off_c, 0, 32, 33
1, 159005, Note_off_c, 0, 58, 25
1, 159013, Note_off_c, 0, 34, 56
1, 159024, Note_on_c, 0, 52, 74
1, 159047, Note_off_c, 0, 43, 59
1, 159092, Note_on_c, 0, 58, 71
1, 159098, Note_off_c, 0, 52, 62
1, 159102, Note_on_c, 0, 32, 72
1, 159119, Note_on_c, 0, 34, 65
1, 159147, Note_on_c, 0, 52, 62
1, 159161, Note_off_c, 0, 58, 63
1, 159183, Note_off_c, 0, 52, 65
1, 159232, Note_on_c, 0, 40, 71
1, 159262, Note_off_c, 0, 32, 56
1, 159285, Note_on_c, 0, 46, 65
1, 159296, Note_off_c, 0, 34, 37
1, 159348, Note_off_c, 0, 46, 57
1, 159351, Note_on_c, 0, 49, 61
1, 159360, Note_off_c, 0, 40, 53
1, 159375, Note_on_c, 0, 32, 64
1, 159399, Note_on_c, 0, 34, 49
1, 159423, Note_on_c, 0, 46, 51
1, 159431, Note_off_c, 0, 49, 61
1, 159464, Note_off_c, 0, 46, 58
1, 159494, Note_on_c, 0, 41, 71
1, 159521, Note_off_c, 0, 32, 53
1, 159554, Note_on_c, 0, 46, 70
1, 159555, Note_off_c, 0, 34, 44
1, 159613, Control_c, 0, 64, 47
1, 159628, Control_c, 0, 64, 65
1, 159630, Note_on_c, 0, 50, 58
1, 159634, Note_off_c, 0, 41, 61
1, 159635, Note_on_c, 0, 32, 68
1, 159640, Note_off_c, 0, 46, 60
1, 159643, Control_c, 0, 64, 72
1, 159657, Note_on_c, 0, 34, 64
1, 159658, Control_c, 0, 64, 78
1, 159673, Control_c, 0, 64, 86
1, 159681, Note_off_c, 0, 50, 64
1, 159688, Control_c, 0, 64, 93
1, 159703, Control_c, 0, 64, 99
1, 159706, Note_on_c, 0, 46, 73
1, 159718, Control_c, 0, 64, 105
1, 159732, Control_c, 0, 64, 110
1, 159752, Note_on_c, 0, 54, 12
1, 159759, Note_off_c, 0, 46, 63
1, 159762, Control_c, 0, 64, 108
1, 159765, Note_on_c, 0, 43, 83
1, 159777, Control_c, 0, 64, 93
1, 159792, Control_c, 0, 64, 75
1, 159806, Control_c, 0, 64, 42
1, 159814, Note_off_c, 0, 32, 61
1, 159819, Note_off_c, 0, 34, 59
1, 159821, Control_c, 0, 64, 0
1, 159838, Note_on_c, 0, 52, 80
1, 159851, Control_c, 0, 64, 40
1, 159866, Control_c, 0, 64, 65
1, 159880, Control_c, 0, 64, 77
1, 159895, Control_c, 0, 64, 94
1, 159910, Control_c, 0, 64, 127
1, 159914, Note_off_c, 0, 54, 0
1, 159915, Note_on_c, 0, 32, 74
1, 159920, Note_off_c, 0, 43, 64
1, 159921, Note_on_c, 0, 49, 80
1, 159924, Note_on_c, 0, 34, 71
1, 159932, Note_off_c, 0, 52, 61
1, 159937, Note_on_c, 0, 54, 27
1, 159988, Note_on_c, 0, 52, 75
1, 160007, Note_off_c, 0, 49, 61
1, 160025, Poly_aftertouch_c, 0, 38, 127
1, 160033, Note_off_c, 0, 54, 45
1, 160072, Note_on_c, 0, 44, 90
1, 160073, Control_c, 0, 64, 105
1, 160088, Control_c, 0, 64, 80
1, 160102, Note_off_c, 0, 52, 56
1, 160103, Control_c, 0, 64, 0
1, 160144, Note_off_c, 0, 32, 58
1, 160149, Note_on_c, 0, 50, 80
1, 160149, Note_off_c, 0, 34, 58
1, 160180, Poly_aftertouch_c, 0, 38, 0
1, 160192, Control_c, 0, 64, 46
1, 160207, Control_c, 0, 64, 70
1, 160222, Control_c, 0, 64, 86
1, 160244, Control_c, 0, 64, 127
1, 160260, Note_on_c, 0, 53, 84
1, 160263, Poly_aftertouch_c, 0, 48, 0
1, 160263, Note_on_c, 0, 32, 73
1, 160270, Note_on_c, 0, 34, 67
1, 160278, Note_off_c, 0, 50, 65
1, 160362, Note_on_c, 0, 50, 86
1, 160395, Note_off_c, 0, 53, 63
1, 160409, Note_off_c, 0, 32, 57
1, 160410, Note_off_c, 0, 44, 59
1, 160432, Note_off_c, 0, 50, 67
1, 160496, Note_off_c, 0, 34, 49
1, 160523, Note_on_c, 0, 33, 76
1, 160585, Control_c, 0, 64, 100
1, 160600, Control_c, 0, 64, 76
1, 160610, Note_on_c, 0, 61, 80
1, 160615, Control_c, 0, 64, 0
1, 160748, Control_c, 0, 64, 52
1, 160763, Control_c, 0, 64, 71
1, 160778, Control_c, 0, 64, 88
1, 160793, Control_c, 0, 64, 127
1, 160839, Note_off_c, 0, 33, 57
1, 161006, Note_on_c, 0, 57, 66
1, 161104, Note_off_c, 0, 61, 57
1, 161234, Note_on_c, 0, 45, 58
1, 161238, Note_on_c, 0, 49, 57
1, 161344, Note_off_c, 0, 49, 62
1, 161356, Note_off_c, 0, 45, 61
1, 161644, Note_on_c, 0, 62, 78
1, 161660, Control_c, 0, 64, 100
1, 161668, Note_on_c, 0, 34, 65
1, 161675, Control_c, 0, 64, 73
1, 161689, Control_c, 0, 64, 0
1, 161703, Note_off_c, 0, 57, 52
1, 161786, Control_c, 0, 64, 56
1, 161801, Control_c, 0, 64, 71
1, 161816, Control_c, 0, 64, 88
1, 161831, Control_c, 0, 64, 127
1, 161876, Note_off_c, 0, 34, 58
1, 161943, Note_on_c, 0, 69, 76
1, 162129, Note_on_c, 0, 50, 67
1, 162138, Note_on_c, 0, 46, 66
1, 162212, Note_off_c, 0, 62, 49
1, 162214, Note_off_c, 0, 50, 63
1, 162242, Note_off_c, 0, 46, 62
1, 162505, Control_c, 0, 64, 97
1, 162520, Control_c, 0, 64, 69
1, 162526, Note_on_c, 0, 35, 74
1, 162535, Control_c, 0, 64, 0
1, 162594, Control_c, 0, 64, 62
1, 162609, Control_c, 0, 64, 75
1, 162624, Control_c, 0, 64, 102
1, 162634, Note_off_c, 0, 35, 63
1, 162639, Control_c, 0, 64, 127
1, 162718, Note_on_c, 0, 63, 80
1, 162827, Note_off_c, 0, 69, 54
1, 162910, Note_on_c, 0, 51, 72
1, 162914, Note_on_c, 0, 57, 85
1, 162923, Note_on_c, 0, 47, 67
1, 162962, Note_off_c, 0, 63, 58
1, 162997, Note_off_c, 0, 51, 63
1, 163019, Note_off_c, 0, 47, 64
1, 163079, Note_on_c, 0, 63, 90
1, 163168, Note_off_c, 0, 57, 50
1, 163253, Note_off_c, 0, 63, 59
1, 163280, Note_on_c, 0, 64, 86
1, 163283, Control_c, 0, 64, 89
1, 163291, Note_on_c, 0, 36, 79
1, 163298, Control_c, 0, 64, 61
1, 163313, Control_c, 0, 64, 0
1, 163372, Control_c, 0, 64, 53
1, 163387, Control_c, 0, 64, 71
1, 163402, Note_off_c, 0, 36, 59
1, 163402, Control_c, 0, 64, 95
1, 163417, Control_c, 0, 64, 127
1, 163533, Note_on_c, 0, 69, 89
1, 163582, Note_off_c, 0, 64, 64
1, 163617, Note_off_c, 0, 69, 66
1, 163694, Note_on_c, 0, 52, 77
1, 163696, Note_on_c, 0, 48, 76
1, 163774, Note_off_c, 0, 52, 62
1, 163792, Note_off_c, 0, 48, 63
1, 163996, Note_on_c, 0, 81, 75
1, 164062, Control_c, 0, 64, 89
1, 164065, Note_on_c, 0, 77, 91
1, 164077, Control_c, 0, 64, 60
1, 164085, Note_on_c, 0, 49, 79
1, 164087, Note_on_c, 0, 37, 77
1, 164091, Control_c, 0, 64, 0
1, 164146, Note_off_c, 0, 81, 56
1, 164151, Control_c, 0, 64, 39
1, 164165, Control_c, 0, 64, 68
1, 164180, Control_c, 0, 64, 89
1, 164195, Control_c, 0, 64, 127
1, 164201, Note_off_c, 0, 37, 62
1, 164213, Note_off_c, 0, 49, 63
1, 164389, Note_on_c, 0, 69, 84
1, 164477, Note_off_c, 0, 77, 56
1, 164554, Note_on_c, 0, 65, 64
1, 164556, Note_on_c, 0, 57, 63
1, 164562, Note_on_c, 0, 53, 54
1, 164618, Note_off_c, 0, 65, 61
1, 164652, Note_off_c, 0, 57, 60
1, 164684, Note_off_c, 0, 53, 63
1, 164997, Note_on_c, 0, 78, 73
1, 165019, Control_c, 0, 64, 87
1, 165033, Note_on_c, 0, 50, 47
1, 165033, Control_c, 0, 64, 65
1, 165036, Note_on_c, 0, 38, 46
1, 165048, Control_c, 0, 64, 0
1, 165152, Control_c, 0, 64, 60
1, 165168, Control_c, 0, 64, 72
1, 165183, Control_c, 0, 64, 90
1, 165185, Note_off_c, 0, 38, 52
1, 165191, Note_off_c, 0, 50, 63
1, 165198, Control_c, 0, 64, 127
1, 165331, Control_c, 0, 67, 8
1, 165336, Note_on_c, 0, 81, 57
1, 165346, Control_c, 0, 67, 11
1, 165361, Control_c, 0, 67, 13
1, 165376, Control_c, 0, 67, 16
1, 165387, Note_off_c, 0, 69, 56
1, 165390, Control_c, 0, 67, 19
1, 165405, Control_c, 0, 67, 23
1, 165420, Control_c, 0, 67, 26
1, 165435, Control_c, 0, 67, 29
1, 165435, Note_off_c, 0, 78, 58
1, 165450, Note_off_c, 0, 81, 62
1, 165450, Control_c, 0, 67, 33
1, 165464, Control_c, 0, 67, 36
1, 165479, Control_c, 0, 67, 40
1, 165501, Control_c, 0, 67, 43
1, 165516, Control_c, 0, 67, 46
1, 165531, Control_c, 0, 67, 50
1, 165545, Control_c, 0, 67, 54
1, 165560, Control_c, 0, 67, 60
1, 165575, Control_c, 0, 67, 66
1, 165590, Control_c, 0, 67, 72
1, 165591, Note_on_c, 0, 57, 38
1, 165597, Note_on_c, 0, 66, 42
1, 165605, Note_on_c, 0, 54, 42
1, 165605, Control_c, 0, 67, 77
1, 165620, Control_c, 0, 67, 83
1, 165635, Control_c, 0, 67, 88
1, 165650, Note_off_c, 0, 66, 60
1, 165650, Control_c, 0, 67, 95
1, 165664, Control_c, 0, 67, 101
1, 165679, Control_c, 0, 67, 106
1, 165694, Control_c, 0, 67, 112
1, 165704, Note_off_c, 0, 57, 60
1, 165709, Control_c, 0, 67, 118
1, 165724, Control_c, 0, 67, 124
1, 165725, Note_off_c, 0, 54, 60
1, 165738, Control_c, 0, 67, 127
1, 166035, Control_c, 0, 64, 99
1, 166048, Note_on_c, 0, 93, 54
1, 166050, Control_c, 0, 64, 78
1, 166053, Note_on_c, 0, 91, 53
1, 166065, Control_c, 0, 64, 57
1, 166080, Control_c, 0, 64, 0
1, 166080, Note_on_c, 0, 39, 42
1, 166092, Note_on_c, 0, 51, 41
1, 166168, Control_c, 0, 64, 60
1, 166183, Control_c, 0, 64, 72
1, 166198, Control_c, 0, 64, 85
1, 166213, Control_c, 0, 64, 109
1, 166220, Note_off_c, 0, 39, 49
1, 166227, Control_c, 0, 64, 127
1, 166243, Note_off_c, 0, 51, 0
1, 166261, Poly_aftertouch_c, 0, 51, 0
1, 166427, Note_on_c, 0, 81, 53
1, 166491, Note_off_c, 0, 93, 60
1, 166524, Note_off_c, 0, 91, 60
1, 166531, Note_off_c, 0, 81, 57
1, 166671, Note_on_c, 0, 57, 34
1, 166678, Note_on_c, 0, 55, 32
1, 166684, Note_on_c, 0, 67, 36
1, 166741, Note_off_c, 0, 67, 60
1, 166792, Note_off_c, 0, 57, 35
1, 166839, Note_off_c, 0, 55, 46
1, 167264, Control_c, 0, 64, 104
1, 167279, Control_c, 0, 64, 84
1, 167282, Note_on_c, 0, 80, 46
1, 167282, Note_on_c, 0, 81, 44
1, 167294, Control_c, 0, 64, 67
1, 167302, Note_on_c, 0, 40, 29
1, 167304, Note_on_c, 0, 52, 28
1, 167308, Control_c, 0, 64, 0
1, 167397, Control_c, 0, 64, 52
1, 167412, Control_c, 0, 64, 67
1, 167427, Control_c, 0, 64, 80
1, 167441, Control_c, 0, 64, 96
1, 167456, Control_c, 0, 64, 127
1, 167498, Note_off_c, 0, 40, 42
1, 167525, Note_off_c, 0, 52, 41
1, 167769, Note_on_c, 0, 69, 41
1, 167814, Note_off_c, 0, 80, 46
1, 168092, Note_on_c, 0, 68, 37
1, 168109, Note_on_c, 0, 57, 29
1, 168112, Note_on_c, 0, 56, 33
1, 168173, Note_off_c, 0, 57, 49
1, 168185, Note_off_c, 0, 68, 58
1, 168272, Note_off_c, 0, 56, 43
1, 169043, Control_c, 0, 64, 102
1, 169054, Note_off_c, 0, 69, 37
1, 169058, Control_c, 0, 64, 81
1, 169073, Control_c, 0, 64, 64
1, 169074, Note_on_c, 0, 41, 33
1, 169087, Control_c, 0, 64, 0
1, 169177, Control_c, 0, 64, 49
1, 169192, Control_c, 0, 64, 66
1, 169207, Control_c, 0, 64, 77
1, 169222, Control_c, 0, 64, 92
1, 169245, Control_c, 0, 64, 127
1, 169300, Note_off_c, 0, 81, 55
1, 169314, Note_off_c, 0, 41, 40
1, 169605, Note_on_c, 0, 82, 52
1, 169647, Note_on_c, 0, 70, 33
1, 169737, Note_off_c, 0, 70, 54
1, 169765, Note_off_c, 0, 82, 57
1, 169988, Note_on_c, 0, 69, 48
1, 170028, Note_on_c, 0, 60, 28
1, 170045, Note_on_c, 0, 57, 17
1, 170089, Poly_aftertouch_c, 0, 62, 127
1, 170111, Note_off_c, 0, 69, 60
1, 170111, Note_off_c, 0, 57, 43
1, 170133, Poly_aftertouch_c, 0, 62, 0
1, 170163, Note_off_c, 0, 60, 37
1, 170297, Note_on_c, 0, 80, 55
1, 170339, Note_on_c, 0, 68, 35
1, 170541, Control_c, 0, 64, 98
1, 170556, Control_c, 0, 64, 75
1, 170568, Note_on_c, 0, 46, 36
1, 170571, Control_c, 0, 64, 56
1, 170586, Control_c, 0, 64, 0
1, 170615, Control_c, 0, 64, 31
1, 170630, Control_c, 0, 64, 60
1, 170644, Control_c, 0, 64, 68
1, 170659, Control_c, 0, 64, 79
1, 170674, Control_c, 0, 64, 94
1, 170689, Control_c, 0, 64, 118
1, 170704, Control_c, 0, 64, 127
1, 170728, Note_off_c, 0, 46, 40
1, 170735, Note_off_c, 0, 68, 37
1, 170833, Note_on_c, 0, 79, 54
1, 170863, Note_on_c, 0, 67, 45
1, 170905, Note_off_c, 0, 67, 62
1, 170909, Note_off_c, 0, 80, 56
1, 170914, Note_off_c, 0, 79, 60
1, 171071, Note_on_c, 0, 52, 37
1, 171081, Note_on_c, 0, 62, 39
1, 171109, Note_on_c, 0, 50, 25
1, 171114, Note_on_c, 0, 58, 8
1, 171161, Note_off_c, 0, 62, 55
1, 171163, Note_off_c, 0, 52, 54
1, 171175, Note_off_c, 0, 58, 47
1, 171207, Note_off_c, 0, 50, 52
1, 171287, Note_on_c, 0, 80, 62
1, 171320, Note_on_c, 0, 68, 51
1, 171442, Note_off_c, 0, 68, 59
1, 171490, Control_c, 0, 64, 99
1, 171505, Control_c, 0, 64, 77
1, 171520, Control_c, 0, 64, 31
1, 171533, Note_on_c, 0, 81, 67
1, 171535, Control_c, 0, 64, 0
1, 171545, Note_on_c, 0, 41, 45
1, 171553, Note_on_c, 0, 69, 55
1, 171582, Note_off_c, 0, 80, 54
1, 171610, Control_c, 0, 64, 62
1, 171620, Note_off_c, 0, 69, 59
1, 171625, Control_c, 0, 64, 72
1, 171640, Control_c, 0, 64, 86
1, 171654, Control_c, 0, 64, 110
1, 171656, Note_off_c, 0, 41, 60
1, 171669, Control_c, 0, 64, 127
1, 171774, Note_on_c, 0, 82, 71
1, 171795, Note_on_c, 0, 70, 52
1, 171799, Note_off_c, 0, 81, 62
1, 171833, Note_off_c, 0, 70, 63
1, 171847, Note_off_c, 0, 82, 61
1, 171995, Note_on_c, 0, 69, 61
1, 172012, Note_on_c, 0, 60, 46
1, 172014, Note_on_c, 0, 57, 43
1, 172059, Note_on_c, 0, 62, 19
1, 172112, Note_off_c, 0, 69, 59
1, 172129, Note_off_c, 0, 57, 57
1, 172169, Note_off_c, 0, 60, 57
1, 172169, Note_off_c, 0, 62, 33
1, 172246, Note_on_c, 0, 80, 65
1, 172272, Note_on_c, 0, 68, 54
1, 172521, Control_c, 0, 64, 104
1, 172525, Note_on_c, 0, 46, 48
1, 172536, Control_c, 0, 64, 83
1, 172551, Control_c, 0, 64, 65
1, 172565, Control_c, 0, 64, 0
1, 172654, Control_c, 0, 64, 63
1, 172669, Control_c, 0, 64, 73
1, 172684, Control_c, 0, 64, 84
1, 172699, Control_c, 0, 64, 100
1, 172714, Note_off_c, 0, 46, 55
1, 172714, Control_c, 0, 64, 127
1, 172720, Note_off_c, 0, 68, 32
1, 172825, Note_on_c, 0, 79, 56
1, 172851, Note_on_c, 0, 67, 41
1, 172899, Note_off_c, 0, 67, 59
1, 172911, Note_off_c, 0, 79, 60
1, 172913, Note_off_c, 0, 80, 58
1, 173126, Note_on_c, 0, 52, 33
1, 173129, Note_on_c, 0, 62, 10
1, 173147, Note_on_c, 0, 50, 30
1, 173165, Note_on_c, 0, 58, 27
1, 173267, Note_off_c, 0, 58, 33
1, 173286, Note_off_c, 0, 62, 40
1, 173299, Note_off_c, 0, 52, 40
1, 173346, Note_off_c, 0, 50, 43
1, 173403, Note_on_c, 0, 80, 56
1, 173445, Note_on_c, 0, 68, 43
1, 173600, Note_off_c, 0, 68, 59
1, 173669, Control_c, 0, 64, 98
1, 173684, Control_c, 0, 64, 76
1, 173685, Note_on_c, 0, 81, 62
1, 173699, Control_c, 0, 64, 23
1, 173709, Note_on_c, 0, 41, 43
1, 173710, Note_on_c, 0, 69, 41
1, 173714, Control_c, 0, 64, 0
1, 173773, Note_off_c, 0, 69, 46
1, 173781, Control_c, 0, 64, 61
1, 173796, Control_c, 0, 64, 74
1, 173810, Control_c, 0, 64, 88
1, 173811, Note_off_c, 0, 80, 32
1, 173823, Note_off_c, 0, 81, 64
1, 173825, Control_c, 0, 64, 120
1, 173840, Control_c, 0, 64, 127
1, 173874, Note_off_c, 0, 41, 34
1, 173969, Note_on_c, 0, 84, 75
1, 173999, Note_on_c, 0, 72, 51
1, 174044, Note_off_c, 0, 72, 57
1, 174166, Control_c, 0, 67, 126
1, 174181, Control_c, 0, 67, 117
1, 174196, Control_c, 0, 67, 107
1, 174209, Note_on_c, 0, 86, 69
1, 174211, Control_c, 0, 67, 96
1, 174226, Control_c, 0, 67, 83
1, 174241, Control_c, 0, 67, 72
1, 174244, Note_on_c, 0, 60, 37
1, 174253, Note_on_c, 0, 74, 50
1, 174253, Note_on_c, 0, 69, 28
1, 174256, Control_c, 0, 67, 61
1, 174256, Note_on_c, 0, 57, 34
1, 174271, Control_c, 0, 67, 51
1, 174277, Note_off_c, 0, 84, 53
1, 174278, Note_on_c, 0, 62, 14
1, 174285, Control_c, 0, 67, 42
1, 174298, Note_off_c, 0, 74, 46
1, 174299, Note_off_c, 0, 69, 48
1, 174300, Control_c, 0, 67, 32
1, 174315, Control_c, 0, 67, 21
1, 174330, Control_c, 0, 67, 0
1, 174333, Note_off_c, 0, 62, 45
1, 174352, Note_off_c, 0, 60, 53
1, 174365, Note_off_c, 0, 57, 54
1, 174372, Note_off_c, 0, 86, 63
1, 174664, Control_c, 0, 64, 112
1, 174679, Control_c, 0, 64, 86
1, 174681, Note_on_c, 0, 86, 69
1, 174694, Control_c, 0, 64, 68
1, 174708, Control_c, 0, 64, 0
1, 174709, Note_on_c, 0, 74, 51
1, 174714, Note_on_c, 0, 46, 39
1, 174753, Control_c, 0, 64, 23
1, 174768, Control_c, 0, 64, 61
1, 174783, Control_c, 0, 64, 70
1, 174798, Control_c, 0, 64, 83
1, 174813, Control_c, 0, 64, 104
1, 174828, Control_c, 0, 64, 127
1, 174851, Note_off_c, 0, 74, 63
1, 174866, Note_off_c, 0, 46, 35
1, 175020, Control_c, 0, 67, 8
1, 175035, Control_c, 0, 67, 9
1, 175049, Control_c, 0, 67, 11
1, 175064, Control_c, 0, 67, 14
1, 175079, Control_c, 0, 67, 16
1, 175094, Control_c, 0, 67, 20
1, 175109, Control_c, 0, 67, 22
1, 175123, Control_c, 0, 67, 26
1, 175138, Control_c, 0, 67, 29
1, 175153, Control_c, 0, 67, 33
1, 175168, Control_c, 0, 67, 36
1, 175183, Control_c, 0, 67, 40
1, 175198, Control_c, 0, 67, 44
1, 175220, Control_c, 0, 64, 111
1, 175220, Control_c, 0, 67, 48
1, 175228, Note_on_c, 0, 85, 65
1, 175235, Control_c, 0, 64, 89
1, 175235, Control_c, 0, 67, 54
1, 175247, Note_on_c, 0, 73, 46
1, 175249, Control_c, 0, 64, 73
1, 175249, Control_c, 0, 67, 60
1, 175259, Note_on_c, 0, 52, 31
1, 175264, Control_c, 0, 64, 56
1, 175264, Control_c, 0, 67, 65
1, 175269, Note_on_c, 0, 56, 27
1, 175274, Note_on_c, 0, 64, 23
1, 175279, Control_c, 0, 64, 0
1, 175279, Control_c, 0, 67, 69
1, 175287, Note_on_c, 0, 61, 32
1, 175289, Note_off_c, 0, 86, 50
1, 175294, Control_c, 0, 67, 73
1, 175309, Control_c, 0, 67, 77
1, 175323, Control_c, 0, 67, 81
1, 175338, Control_c, 0, 67, 84
1, 175353, Control_c, 0, 64, 56
1, 175353, Control_c, 0, 67, 88
1, 175368, Control_c, 0, 64, 67
1, 175368, Control_c, 0, 67, 92
1, 175383, Control_c, 0, 64, 76
1, 175383, Control_c, 0, 67, 95
1, 175397, Control_c, 0, 64, 87
1, 175397, Control_c, 0, 67, 98
1, 175412, Control_c, 0, 64, 108
1, 175412, Control_c, 0, 67, 101
1, 175427, Control_c, 0, 64, 127
1, 175427, Control_c, 0, 67, 106
1, 175442, Note_off_c, 0, 64, 44
1, 175442, Control_c, 0, 67, 110
1, 175457, Control_c, 0, 67, 114
1, 175463, Note_off_c, 0, 56, 41
1, 175465, Note_off_c, 0, 61, 42
1, 175472, Control_c, 0, 67, 117
1, 175487, Control_c, 0, 67, 122
1, 175488, Note_off_c, 0, 52, 50
1, 175502, Control_c, 0, 67, 126
1, 175517, Control_c, 0, 67, 127
1, 175552, Note_off_c, 0, 73, 39
1, 175689, Note_on_c, 0, 74, 39
1, 175848, Note_on_c, 0, 45, 40
1, 175887, Control_c, 0, 64, 110
1, 175902, Control_c, 0, 64, 92
1, 175917, Control_c, 0, 64, 77
1, 175932, Control_c, 0, 64, 64
1, 175946, Control_c, 0, 64, 0
1, 175949, Note_on_c, 0, 86, 55
1, 175985, Note_off_c, 0, 85, 58
1, 176058, Control_c, 0, 64, 40
1, 176072, Control_c, 0, 64, 66
1, 176087, Control_c, 0, 64, 74
1, 176102, Control_c, 0, 64, 85
1, 176117, Control_c, 0, 64, 101
1, 176126, Note_off_c, 0, 45, 44
1, 176132, Control_c, 0, 64, 127
1, 176318, Note_off_c, 0, 74, 36
1, 176549, Note_on_c, 0, 57, 24
1, 176560, Note_on_c, 0, 65, 17
1, 176566, Note_on_c, 0, 53, 33
1, 176587, Note_on_c, 0, 62, 29
1, 176650, Note_off_c, 0, 62, 43
1, 176656, Note_off_c, 0, 65, 47
1, 176678, Note_off_c, 0, 53, 54
1, 176689, Note_off_c, 0, 57, 34
1, 176834, Note_on_c, 0, 84, 46
1, 176943, Note_off_c, 0, 86, 35
1, 176950, Note_on_c, 0, 82, 62
1, 177004, Note_off_c, 0, 84, 57
1, 177043, Control_c, 0, 64, 113
1, 177058, Control_c, 0, 64, 88
1, 177065, Note_off_c, 0, 82, 63
1, 177067, Note_on_c, 0, 81, 57
1, 177073, Control_c, 0, 64, 71
1, 177073, Note_on_c, 0, 43, 49
1, 177087, Control_c, 0, 64, 50
1, 177102, Control_c, 0, 64, 0
1, 177117, Control_c, 0, 64, 36
1, 177132, Control_c, 0, 64, 59
1, 177147, Control_c, 0, 64, 67
1, 177159, Note_off_c, 0, 43, 58
1, 177162, Control_c, 0, 64, 75
1, 177177, Control_c, 0, 64, 87
1, 177192, Control_c, 0, 64, 107
1, 177207, Control_c, 0, 64, 127
1, 177295, Note_on_c, 0, 79, 64
1, 177300, Note_off_c, 0, 81, 63
1, 177388, Note_on_c, 0, 77, 65
1, 177453, Note_off_c, 0, 79, 47
1, 177508, Note_on_c, 0, 76, 71
1, 177511, Note_on_c, 0, 52, 46
1, 177531, Note_on_c, 0, 61, 41
1, 177536, Note_on_c, 0, 49, 46
1, 177538, Note_on_c, 0, 57, 26
1, 177544, Note_off_c, 0, 77, 61
1, 177588, Note_off_c, 0, 61, 59
1, 177594, Note_off_c, 0, 57, 52
1, 177624, Note_off_c, 0, 52, 58
1, 177653, Note_off_c, 0, 49, 61
1, 177704, Note_off_c, 0, 76, 60
1, 177716, Note_on_c, 0, 77, 71
1, 177823, Note_on_c, 0, 76, 73
1, 177900, Note_off_c, 0, 77, 61
1, 177925, Control_c, 0, 64, 109
1, 177941, Control_c, 0, 64, 96
1, 177956, Control_c, 0, 64, 88
1, 177971, Control_c, 0, 64, 81
1, 177986, Control_c, 0, 64, 73
1, 178001, Control_c, 0, 64, 64
1, 178015, Control_c, 0, 64, 0
1, 178029, Note_on_c, 0, 74, 66
1, 178031, Note_on_c, 0, 72, 59
1, 178063, Note_off_c, 0, 76, 59
1, 178065, Note_on_c, 0, 41, 23
1, 178215, Control_c, 0, 64, 55
1, 178230, Control_c, 0, 64, 68
1, 178245, Control_c, 0, 64, 78
1, 178260, Control_c, 0, 64, 92
1, 178274, Control_c, 0, 64, 127
1, 178283, Note_off_c, 0, 41, 51
1, 178451, Note_on_c, 0, 69, 53
1, 178509, Note_off_c, 0, 72, 55
1, 178701, Note_on_c, 0, 60, 25
1, 178703, Note_on_c, 0, 62, 22
1, 178715, Note_on_c, 0, 57, 24
1, 178724, Note_on_c, 0, 53, 30
1, 178789, Note_off_c, 0, 60, 50
1, 178818, Note_off_c, 0, 57, 43
1, 178831, Note_off_c, 0, 62, 36
1, 178852, Note_off_c, 0, 53, 38
1, 179250, Note_on_c, 0, 68, 44
1, 179259, Note_off_c, 0, 69, 36
1, 179259, Control_c, 0, 64, 109
1, 179274, Control_c, 0, 64, 90
1, 179288, Control_c, 0, 64, 75
1, 179292, Note_on_c, 0, 46, 35
1, 179303, Control_c, 0, 64, 60
1, 179318, Control_c, 0, 64, 0
1, 179392, Control_c, 0, 64, 32
1, 179407, Control_c, 0, 64, 66
1, 179422, Control_c, 0, 64, 76
1, 179436, Control_c, 0, 64, 89
1, 179451, Control_c, 0, 64, 113
1, 179466, Control_c, 0, 64, 127
1, 179517, Note_off_c, 0, 46, 41
1, 179646, Note_on_c, 0, 72, 44
1, 179688, Note_off_c, 0, 68, 53
1, 179915, Note_on_c, 0, 60, 29
1, 179916, Note_on_c, 0, 62, 26
1, 179932, Note_on_c, 0, 56, 26
1, 179963, Note_on_c, 0, 53, 12
1, 179991, Note_off_c, 0, 60, 54
1, 180024, Note_off_c, 0, 56, 39
1, 180030, Note_off_c, 0, 62, 36
1, 180078, Note_off_c, 0, 53, 39
1, 180475, Control_c, 0, 64, 94
1, 180490, Control_c, 0, 64, 76
1, 180505, Control_c, 0, 64, 59
1, 180518, Note_on_c, 0, 41, 39
1, 180520, Control_c, 0, 64, 0
1, 180564, Control_c, 0, 64, 34
1, 180579, Control_c, 0, 64, 62
1, 180593, Control_c, 0, 64, 69
1, 180608, Control_c, 0, 64, 78
1, 180623, Control_c, 0, 64, 90
1, 180638, Control_c, 0, 64, 114
1, 180653, Control_c, 0, 64, 127
1, 180665, Note_off_c, 0, 41, 45
1, 180767, Note_on_c, 0, 69, 58
1, 180794, Note_off_c, 0, 72, 55
1, 180814, Note_off_c, 0, 74, 57
1, 180997, Note_on_c, 0, 74, 64
1, 181004, Note_on_c, 0, 72, 61
1, 181034, Note_on_c, 0, 53, 38
1, 181046, Note_on_c, 0, 60, 26
1, 181046, Note_off_c, 0, 69, 59
1, 181047, Note_on_c, 0, 62, 29
1, 181050, Note_on_c, 0, 57, 34
1, 181107, Note_off_c, 0, 62, 55
1, 181109, Note_off_c, 0, 60, 54
1, 181144, Note_off_c, 0, 57, 51
1, 181216, Note_off_c, 0, 53, 39
1, 181237, Note_on_c, 0, 69, 62
1, 181258, Note_off_c, 0, 72, 57
1, 181478, Note_off_c, 0, 69, 54
1, 181502, Note_on_c, 0, 68, 53
1, 181521, Control_c, 0, 64, 97
1, 181536, Control_c, 0, 64, 79
1, 181543, Note_on_c, 0, 46, 40
1, 181551, Control_c, 0, 64, 64
1, 181565, Control_c, 0, 64, 0
1, 181669, Control_c, 0, 64, 17
1, 181684, Control_c, 0, 64, 64
1, 181699, Control_c, 0, 64, 72
1, 181714, Control_c, 0, 64, 81
1, 181728, Control_c, 0, 64, 94
1, 181743, Control_c, 0, 64, 116
1, 181758, Control_c, 0, 64, 127
1, 181762, Note_off_c, 0, 46, 50
1, 181899, Note_on_c, 0, 72, 48
1, 181940, Note_off_c, 0, 68, 56
1, 182168, Note_on_c, 0, 62, 28
1, 182174, Note_on_c, 0, 60, 18
1, 182178, Note_on_c, 0, 53, 23
1, 182182, Note_on_c, 0, 56, 18
1, 182235, Note_off_c, 0, 60, 50
1, 182238, Note_off_c, 0, 62, 52
1, 182255, Note_off_c, 0, 56, 42
1, 182291, Note_off_c, 0, 53, 38
1, 182736, Control_c, 0, 64, 100
1, 182751, Control_c, 0, 64, 83
1, 182753, Note_on_c, 0, 69, 43
1, 182766, Control_c, 0, 64, 69
1, 182769, Note_off_c, 0, 72, 58
1, 182778, Note_on_c, 0, 41, 34
1, 182781, Control_c, 0, 64, 40
1, 182784, Note_off_c, 0, 74, 40
1, 182796, Control_c, 0, 64, 0
1, 182855, Control_c, 0, 64, 32
1, 182870, Control_c, 0, 64, 63
1, 182885, Control_c, 0, 64, 71
1, 182900, Control_c, 0, 64, 80
1, 182915, Control_c, 0, 64, 95
1, 182930, Control_c, 0, 64, 127
1, 182988, Note_off_c, 0, 41, 41
1, 183214, Note_on_c, 0, 72, 48
1, 183219, Note_on_c, 0, 74, 42
1, 183252, Note_off_c, 0, 69, 45
1, 183498, Note_on_c, 0, 62, 26
1, 183499, Note_on_c, 0, 57, 28
1, 183501, Note_on_c, 0, 60, 23
1, 183505, Note_on_c, 0, 53, 22
1, 183571, Note_off_c, 0, 60, 50
1, 183623, Note_off_c, 0, 62, 34
1, 183632, Note_off_c, 0, 57, 36
1, 183663, Note_off_c, 0, 53, 48
1, 183718, Note_on_c, 0, 69, 48
1, 183769, Note_off_c, 0, 72, 57
1, 184033, Control_c, 0, 64, 115
1, 184039, Note_on_c, 0, 68, 46
1, 184048, Control_c, 0, 64, 94
1, 184063, Control_c, 0, 64, 77
1, 184075, Note_on_c, 0, 40, 32
1, 184078, Control_c, 0, 64, 64
1, 184079, Note_off_c, 0, 69, 38
1, 184093, Control_c, 0, 64, 0
1, 184102, Note_off_c, 0, 74, 57
1, 184182, Control_c, 0, 64, 47
1, 184197, Control_c, 0, 64, 64
1, 184219, Control_c, 0, 64, 70
1, 184234, Control_c, 0, 64, 78
1, 184249, Control_c, 0, 64, 88
1, 184264, Control_c, 0, 64, 104
1, 184279, Control_c, 0, 64, 127
1, 184359, Note_off_c, 0, 40, 41
1, 184831, Note_on_c, 0, 74, 53
1, 184860, Note_on_c, 0, 62, 27
1, 184862, Note_on_c, 0, 53, 29
1, 184872, Note_on_c, 0, 56, 30
1, 184872, Note_on_c, 0, 65, 39
1, 184912, Note_off_c, 0, 68, 57
1, 185049, Note_off_c, 0, 74, 62
1, 185082, Note_off_c, 0, 53, 45
1, 185103, Note_off_c, 0, 65, 42
1, 185122, Note_off_c, 0, 56, 42
1, 185163, Note_off_c, 0, 62, 40
1, 185369, Control_c, 0, 64, 120
1, 185383, Note_on_c, 0, 76, 69
1, 185383, Control_c, 0, 64, 87
1, 185398, Control_c, 0, 64, 69
1, 185410, Note_on_c, 0, 67, 42
1, 185413, Control_c, 0, 64, 0
1, 185419, Note_on_c, 0, 55, 40
1, 185441, Note_on_c, 0, 64, 39
1, 185473, Control_c, 0, 64, 27
1, 185488, Control_c, 0, 64, 64
1, 185503, Control_c, 0, 64, 73
1, 185517, Control_c, 0, 64, 84
1, 185532, Control_c, 0, 64, 103
1, 185547, Control_c, 0, 64, 127
1, 185571, Note_off_c, 0, 76, 63
1, 185572, Note_off_c, 0, 67, 36
1, 185635, Note_off_c, 0, 55, 56
1, 185718, Note_off_c, 0, 64, 58
1, 186021, Note_on_c, 0, 79, 50
1, 186059, Control_c, 0, 64, 108
1, 186074, Control_c, 0, 64, 90
1, 186082, Note_on_c, 0, 68, 29
1, 186083, Note_on_c, 0, 74, 45
1, 186085, Note_on_c, 0, 77, 50
1, 186088, Control_c, 0, 64, 75
1, 186103, Control_c, 0, 64, 62
1, 186105, Note_off_c, 0, 79, 42
1, 186116, Note_on_c, 0, 65, 24
1, 186117, Note_on_c, 0, 56, 25
1, 186118, Control_c, 0, 64, 0
1, 186126, Note_on_c, 0, 62, 21
1, 186266, Control_c, 0, 64, 42
1, 186281, Control_c, 0, 64, 63
1, 186295, Control_c, 0, 64, 69
1, 186310, Control_c, 0, 64, 76
1, 186325, Control_c, 0, 64, 83
1, 186340, Control_c, 0, 64, 93
1, 186355, Control_c, 0, 64, 102
1, 186370, Control_c, 0, 64, 114
1, 186385, Control_c, 0, 64, 127
1, 186650, Note_off_c, 0, 65, 41
1, 186670, Note_off_c, 0, 62, 40
1, 186706, Note_off_c, 0, 56, 35
1, 187094, Note_on_c, 0, 76, 48
1, 187113, Note_off_c, 0, 68, 34
1, 187118, Control_c, 0, 64, 107
1, 187133, Control_c, 0, 64, 89
1, 187140, Note_off_c, 0, 74, 51
1, 187148, Control_c, 0, 64, 76
1, 187162, Note_off_c, 0, 77, 39
1, 187163, Control_c, 0, 64, 64
1, 187178, Control_c, 0, 64, 0
1, 187318, Control_c, 0, 64, 50
1, 187333, Control_c, 0, 64, 61
1, 187348, Control_c, 0, 64, 65
1, 187363, Control_c, 0, 64, 68
1, 187378, Control_c, 0, 64, 73
1, 187392, Control_c, 0, 64, 80
1, 187407, Control_c, 0, 64, 88
1, 187422, Control_c, 0, 64, 98
1, 187437, Control_c, 0, 64, 109
1, 187452, Control_c, 0, 64, 127
1, 187556, Note_off_c, 0, 76, 56
1, 188069, Note_on_c, 0, 45, 25
1, 188263, Note_on_c, 0, 55, 35
1, 188389, Note_on_c, 0, 61, 34
1, 188543, Note_on_c, 0, 64, 34
1, 188553, Note_on_c, 0, 69, 33
1, 188577, Note_off_c, 0, 61, 35
1, 188624, Note_off_c, 0, 69, 50
1, 188704, Note_off_c, 0, 64, 42
1, 189715, Note_off_c, 0, 45, 38
1, 189813, Note_off_c, 0, 55, 37
1, 190218, Note_on_c, 0, 46, 41
1, 190226, Control_c, 0, 64, 94
1, 190241, Control_c, 0, 64, 73
1, 190255, Control_c, 0, 64, 55
1, 190270, Control_c, 0, 64, 0
1, 190315, Control_c, 0, 64, 43
1, 190320, Note_on_c, 0, 62, 33
1, 190329, Control_c, 0, 64, 63
1, 190344, Control_c, 0, 64, 71
1, 190358, Note_off_c, 0, 62, 55
1, 190359, Control_c, 0, 64, 79
1, 190373, Control_c, 0, 64, 91
1, 190388, Control_c, 0, 64, 106
1, 190403, Control_c, 0, 64, 127
1, 190421, Note_on_c, 0, 62, 39
1, 190520, Note_off_c, 0, 62, 48
1, 190540, Note_on_c, 0, 69, 46
1, 190663, Note_on_c, 0, 74, 53
1, 190663, Note_off_c, 0, 46, 41
1, 190694, Note_off_c, 0, 69, 45
1, 191119, Note_on_c, 0, 70, 53
1, 191225, Note_off_c, 0, 74, 55
1, 191315, Control_c, 0, 67, 123
1, 191329, Control_c, 0, 67, 116
1, 191344, Control_c, 0, 67, 107
1, 191359, Control_c, 0, 67, 97
1, 191374, Control_c, 0, 67, 88
1, 191389, Control_c, 0, 67, 77
1, 191403, Control_c, 0, 67, 68
1, 191418, Control_c, 0, 67, 59
1, 191424, Note_on_c, 0, 69, 58
1, 191433, Control_c, 0, 67, 50
1, 191448, Control_c, 0, 67, 41
1, 191463, Control_c, 0, 67, 30
1, 191476, Note_on_c, 0, 62, 24
1, 191477, Note_on_c, 0, 54, 27
1, 191477, Control_c, 0, 67, 16
1, 191478, Note_off_c, 0, 70, 56
1, 191486, Note_on_c, 0, 58, 23
1, 191492, Control_c, 0, 67, 0
1, 191553, Note_off_c, 0, 62, 52
1, 191601, Note_off_c, 0, 58, 35
1, 191640, Note_off_c, 0, 54, 46
1, 191699, Note_on_c, 0, 68, 59
1, 191733, Note_off_c, 0, 69, 58
1, 191929, Control_c, 0, 64, 113
1, 191944, Control_c, 0, 64, 83
1, 191959, Control_c, 0, 64, 57
1, 191965, Note_on_c, 0, 39, 37
1, 191974, Control_c, 0, 64, 0
1, 192033, Control_c, 0, 64, 48
1, 192048, Control_c, 0, 64, 66
1, 192063, Control_c, 0, 64, 74
1, 192078, Control_c, 0, 64, 84
1, 192092, Control_c, 0, 64, 100
1, 192107, Control_c, 0, 64, 127
1, 192141, Note_off_c, 0, 39, 39
1, 192206, Note_on_c, 0, 67, 55
1, 192259, Note_off_c, 0, 68, 59
1, 192394, Poly_aftertouch_c, 0, 73, 127
1, 192477, Poly_aftertouch_c, 0, 73, 0
1, 192643, Note_on_c, 0, 68, 66
1, 192723, Note_off_c, 0, 67, 51
1, 192856, Control_c, 0, 64, 94
1, 192864, Note_on_c, 0, 69, 63
1, 192871, Control_c, 0, 64, 71
1, 192886, Control_c, 0, 64, 0
1, 192892, Note_off_c, 0, 68, 57
1, 192898, Note_on_c, 0, 45, 42
1, 192959, Control_c, 0, 64, 59
1, 192974, Control_c, 0, 64, 71
1, 192989, Control_c, 0, 64, 84
1, 193004, Control_c, 0, 64, 124
1, 193006, Note_off_c, 0, 45, 57
1, 193019, Control_c, 0, 64, 127
1, 193077, Note_on_c, 0, 70, 65
1, 193085, Note_off_c, 0, 69, 60
1, 193290, Note_on_c, 0, 69, 66
1, 193325, Note_on_c, 0, 57, 37
1, 193330, Note_on_c, 0, 52, 39
1, 193342, Note_on_c, 0, 61, 36
1, 193376, Note_off_c, 0, 61, 61
1, 193383, Note_off_c, 0, 70, 36
1, 193387, Note_off_c, 0, 57, 54
1, 193421, Note_off_c, 0, 52, 58
1, 193505, Note_on_c, 0, 67, 71
1, 193525, Note_off_c, 0, 69, 55
1, 193619, Control_c, 0, 64, 104
1, 193634, Control_c, 0, 64, 79
1, 193649, Control_c, 0, 64, 47
1, 193663, Control_c, 0, 64, 0
1, 193715, Note_on_c, 0, 38, 49
1, 193767, Control_c, 0, 64, 62
1, 193782, Control_c, 0, 64, 73
1, 193796, Control_c, 0, 64, 89
1, 193811, Control_c, 0, 64, 127
1, 193822, Note_off_c, 0, 38, 50
1, 193947, Note_on_c, 0, 65, 64
1, 193981, Note_off_c, 0, 67, 61
1, 194163, Note_on_c, 0, 53, 36
1, 194165, Note_on_c, 0, 62, 38
1, 194174, Note_on_c, 0, 57, 36
1, 194236, Note_off_c, 0, 62, 57
1, 194288, Note_off_c, 0, 57, 57
1, 194332, Note_off_c, 0, 53, 36
1, 194377, Note_on_c, 0, 67, 61
1, 194453, Note_off_c, 0, 65, 50
1, 194576, Control_c, 0, 64, 92
1, 194591, Control_c, 0, 64, 70
1, 194599, Note_on_c, 0, 69, 60
1, 194606, Control_c, 0, 64, 0
1, 194630, Note_on_c, 0, 43, 39
1, 194652, Note_off_c, 0, 67, 56
1, 194717, Control_c, 0, 64, 62
1, 194732, Control_c, 0, 64, 73
1, 194747, Control_c, 0, 64, 88
1, 194761, Control_c, 0, 64, 127
1, 194793, Note_off_c, 0, 43, 52
1, 194824, Note_on_c, 0, 72, 68
1, 194834, Note_off_c, 0, 69, 60
1, 195057, Note_on_c, 0, 74, 72
1, 195058, Control_c, 0, 64, 94
1, 195073, Control_c, 0, 64, 75
1, 195074, Note_on_c, 0, 69, 53
1, 195077, Note_on_c, 0, 65, 44
1, 195088, Control_c, 0, 64, 47
1, 195096, Note_off_c, 0, 72, 57
1, 195103, Control_c, 0, 64, 0
1, 195104, Note_on_c, 0, 55, 29
1, 195106, Note_on_c, 0, 59, 34
1, 195147, Control_c, 0, 64, 31
1, 195161, Control_c, 0, 64, 62
1, 195176, Control_c, 0, 64, 71
1, 195191, Control_c, 0, 64, 81
1, 195205, Note_off_c, 0, 59, 51
1, 195206, Control_c, 0, 64, 98
1, 195221, Control_c, 0, 64, 127
1, 195238, Note_off_c, 0, 55, 49
1, 195303, Note_off_c, 0, 74, 59
1, 195310, Note_off_c, 0, 65, 37
1, 195327, Note_off_c, 0, 69, 42
1, 195465, Control_c, 0, 67, 8
1, 195480, Control_c, 0, 67, 9
1, 195495, Control_c, 0, 67, 10
1, 195509, Control_c, 0, 67, 11
1, 195518, Note_on_c, 0, 74, 74
1, 195526, Control_c, 0, 64, 102
1, 195526, Control_c, 0, 67, 12
1, 195540, Control_c, 0, 64, 82
1, 195540, Control_c, 0, 67, 13
1, 195551, Note_on_c, 0, 65, 43
1, 195552, Note_on_c, 0, 69, 42
1, 195555, Control_c, 0, 64, 65
1, 195555, Control_c, 0, 67, 15
1, 195557, Note_on_c, 0, 45, 42
1, 195570, Control_c, 0, 64, 0
1, 195570, Control_c, 0, 67, 17
1, 195584, Control_c, 0, 67, 20
1, 195599, Control_c, 0, 67, 21
1, 195614, Control_c, 0, 67, 23
1, 195629, Control_c, 0, 64, 59
1, 195629, Control_c, 0, 67, 25
1, 195644, Control_c, 0, 64, 68
1, 195644, Control_c, 0, 67, 27
1, 195659, Control_c, 0, 64, 80
1, 195659, Control_c, 0, 67, 29
1, 195672, Note_off_c, 0, 45, 51
1, 195673, Control_c, 0, 64, 95
1, 195673, Control_c, 0, 67, 32
1, 195688, Control_c, 0, 64, 127
1, 195688, Control_c, 0, 67, 36
1, 195703, Control_c, 0, 67, 38
1, 195718, Control_c, 0, 67, 42
1, 195733, Control_c, 0, 67, 45
1, 195748, Control_c, 0, 67, 47
1, 195763, Control_c, 0, 67, 50
1, 195778, Control_c, 0, 67, 52
1, 195778, Note_off_c, 0, 65, 56
1, 195792, Control_c, 0, 67, 55
1, 195800, Note_off_c, 0, 74, 58
1, 195807, Control_c, 0, 67, 58
1, 195818, Note_off_c, 0, 69, 36
1, 195822, Control_c, 0, 67, 62
1, 195837, Control_c, 0, 67, 66
1, 195852, Control_c, 0, 67, 70
1, 195866, Control_c, 0, 67, 73
1, 195881, Control_c, 0, 67, 76
1, 195896, Control_c, 0, 67, 80
1, 195910, Control_c, 0, 67, 83
1, 195925, Control_c, 0, 67, 86
1, 195940, Control_c, 0, 67, 89
1, 195955, Control_c, 0, 67, 92
1, 195970, Control_c, 0, 67, 95
1, 195984, Control_c, 0, 67, 97
1, 195999, Control_c, 0, 67, 100
1, 196009, Note_on_c, 0, 73, 68
1, 196014, Control_c, 0, 64, 98
1, 196014, Control_c, 0, 67, 102
1, 196028, Note_on_c, 0, 69, 50
1, 196029, Control_c, 0, 64, 80
1, 196029, Control_c, 0, 67, 105
1, 196034, Note_on_c, 0, 64, 43
1, 196044, Control_c, 0, 64, 62
1, 196044, Control_c, 0, 67, 108
1, 196054, Note_on_c, 0, 61, 33
1, 196058, Control_c, 0, 64, 0
1, 196058, Control_c, 0, 67, 111
1, 196061, Note_on_c, 0, 57, 34
1, 196073, Control_c, 0, 67, 114
1, 196088, Control_c, 0, 67, 116
1, 196103, Control_c, 0, 67, 118
1, 196118, Control_c, 0, 67, 119
1, 196132, Control_c, 0, 67, 121
1, 196147, Control_c, 0, 64, 44
1, 196147, Control_c, 0, 67, 122
1, 196162, Control_c, 0, 64, 66
1, 196162, Control_c, 0, 67, 122
1, 196177, Control_c, 0, 64, 77
1, 196177, Control_c, 0, 67, 123
1, 196189, Note_off_c, 0, 61, 52
1, 196199, Control_c, 0, 64, 93
1, 196199, Control_c, 0, 67, 123
1, 196214, Control_c, 0, 64, 127
1, 196229, Control_c, 0, 67, 124
1, 196244, Note_off_c, 0, 57, 37
1, 196273, Control_c, 0, 67, 124
1, 196305, Note_off_c, 0, 64, 38
1, 196336, Note_off_c, 0, 69, 34
1, 196358, Note_off_c, 0, 73, 56
1, 196437, Control_c, 0, 67, 125
1, 196600, Control_c, 0, 64, 121
1, 196602, Note_on_c, 0, 74, 62
1, 196615, Control_c, 0, 64, 88
1, 196627, Note_on_c, 0, 65, 41
1, 196630, Note_on_c, 0, 69, 35
1, 196630, Control_c, 0, 64, 70
1, 196636, Note_on_c, 0, 38, 30
1, 196645, Control_c, 0, 64, 0
1, 196651, Note_on_c, 0, 45, 31
1, 196778, Control_c, 0, 64, 35
1, 196778, Control_c, 0, 67, 124
1, 196793, Control_c, 0, 64, 67
1, 196793, Control_c, 0, 67, 123
1, 196807, Control_c, 0, 64, 82
1, 196807, Control_c, 0, 67, 122
1, 196822, Control_c, 0, 64, 116
1, 196822, Control_c, 0, 67, 121
1, 196837, Control_c, 0, 64, 127
1, 196837, Control_c, 0, 67, 120
1, 196852, Control_c, 0, 67, 119
1, 196867, Control_c, 0, 67, 117
1, 196881, Control_c, 0, 67, 116
1, 196882, Note_off_c, 0, 45, 42
1, 196886, Note_off_c, 0, 38, 40
1, 196896, Control_c, 0, 67, 114
1, 196911, Control_c, 0, 67, 113
1, 196927, Control_c, 0, 67, 112
1, 196949, Control_c, 0, 67, 111
1, 196964, Control_c, 0, 67, 110
1, 196979, Control_c, 0, 67, 106
1, 196994, Control_c, 0, 67, 103
1, 197009, Control_c, 0, 67, 99
1, 197023, Control_c, 0, 67, 94
1, 197028, Note_off_c, 0, 65, 57
1, 197038, Control_c, 0, 67, 90
1, 197053, Control_c, 0, 67, 86
1, 197067, Control_c, 0, 67, 83
1, 197075, Note_off_c, 0, 69, 52
1, 197082, Control_c, 0, 67, 79
1, 197097, Control_c, 0, 67, 76
1, 197113, Control_c, 0, 67, 72
1, 197128, Control_c, 0, 67, 68
1, 197143, Control_c, 0, 67, 64
1, 197158, Control_c, 0, 67, 60
1, 197172, Control_c, 0, 67, 54
1, 197187, Control_c, 0, 67, 50
1, 197202, Control_c, 0, 67, 46
1, 197217, Control_c, 0, 67, 41
1, 197232, Control_c, 0, 67, 36
1, 197246, Control_c, 0, 67, 31
1, 197261, Control_c, 0, 67, 25
1, 197265, Note_on_c, 0, 57, 30
1, 197266, Note_on_c, 0, 53, 34
1, 197272, Note_on_c, 0, 62, 22
1, 197276, Control_c, 0, 67, 19
1, 197291, Control_c, 0, 67, 13
1, 197306, Control_c, 0, 67, 0
1, 197504, Note_on_c, 0, 72, 48
1, 197605, Note_off_c, 0, 62, 39
1, 197607, Note_on_c, 0, 70, 60
1, 197636, Note_off_c, 0, 74, 34
1, 197666, Note_off_c, 0, 72, 47
1, 197723, Note_off_c, 0, 57, 51
1, 197732, Note_off_c, 0, 70, 64
1, 197735, Note_on_c, 0, 69, 66
1, 197754, Note_off_c, 0, 53, 41
1, 197942, Note_on_c, 0, 67, 71
1, 197972, Note_off_c, 0, 69, 60
1, 198048, Note_on_c, 0, 66, 72
1, 198109, Note_off_c, 0, 67, 53
1, 198142, Control_c, 0, 64, 107
1, 198157, Control_c, 0, 64, 91
1, 198172, Control_c, 0, 64, 77
1, 198186, Control_c, 0, 64, 62
1, 198194, Note_on_c, 0, 65, 72
1, 198201, Control_c, 0, 64, 0
1, 198206, Note_on_c, 0, 62, 58
1, 198216, Note_on_c, 0, 59, 49
1, 198217, Note_on_c, 0, 53, 58
1, 198230, Note_on_c, 0, 43, 49
1, 198259, Note_off_c, 0, 66, 47
1, 198335, Control_c, 0, 64, 57
1, 198350, Control_c, 0, 64, 70
1, 198365, Control_c, 0, 64, 85
1, 198379, Control_c, 0, 64, 122
1, 198394, Control_c, 0, 64, 127
1, 198401, Note_off_c, 0, 59, 60
1, 198456, Note_off_c, 0, 53, 39
1, 198498, Note_on_c, 0, 67, 71
1, 198538, Note_off_c, 0, 65, 37
1, 198571, Note_off_c, 0, 43, 21
1, 198630, Note_on_c, 0, 65, 80
1, 198675, Note_off_c, 0, 62, 36
1, 198808, Note_off_c, 0, 67, 37
1, 198828, Note_on_c, 0, 63, 71
1, 198832, Control_c, 0, 64, 89
1, 198845, Note_on_c, 0, 36, 62
1, 198847, Control_c, 0, 64, 69
1, 198862, Control_c, 0, 64, 0
1, 198866, Note_off_c, 0, 65, 57
1, 198965, Control_c, 0, 64, 56
1, 198980, Control_c, 0, 64, 70
1, 198995, Control_c, 0, 64, 88
1, 199009, Control_c, 0, 64, 127
1, 199035, Note_off_c, 0, 36, 60
1, 199131, Note_on_c, 0, 65, 71
1, 199208, Note_off_c, 0, 63, 56
1, 199354, Note_on_c, 0, 63, 70
1, 199368, Note_on_c, 0, 60, 41
1, 199370, Note_on_c, 0, 51, 45
1, 199370, Note_on_c, 0, 55, 42
1, 199424, Note_off_c, 0, 60, 59
1, 199475, Note_off_c, 0, 55, 58
1, 199475, Note_off_c, 0, 65, 38
1, 199532, Note_off_c, 0, 51, 33
1, 199560, Note_on_c, 0, 62, 72
1, 199605, Note_off_c, 0, 63, 55
1, 199729, Control_c, 0, 64, 108
1, 199744, Control_c, 0, 64, 75
1, 199758, Control_c, 0, 64, 0
1, 199766, Note_on_c, 0, 41, 64
1, 199862, Control_c, 0, 64, 43
1, 199876, Control_c, 0, 64, 66
1, 199891, Control_c, 0, 64, 78
1, 199906, Control_c, 0, 64, 100
1, 199922, Control_c, 0, 64, 127
1, 199934, Note_off_c, 0, 41, 59
1, 199988, Note_on_c, 0, 60, 71
1, 199995, Note_off_c, 0, 62, 59
1, 200189, Note_on_c, 0, 57, 48
1, 200195, Note_on_c, 0, 53, 54
1, 200273, Note_off_c, 0, 57, 57
1, 200295, Note_off_c, 0, 53, 64
1, 200383, Note_on_c, 0, 62, 64
1, 200497, Note_off_c, 0, 60, 39
1, 200582, Control_c, 0, 64, 109
1, 200597, Control_c, 0, 64, 80
1, 200609, Note_on_c, 0, 63, 61
1, 200612, Control_c, 0, 64, 59
1, 200627, Control_c, 0, 64, 0
1, 200628, Note_on_c, 0, 39, 46
1, 200646, Note_off_c, 0, 62, 55
1, 200753, Control_c, 0, 64, 63
1, 200768, Control_c, 0, 64, 75
1, 200782, Control_c, 0, 64, 95
1, 200797, Control_c, 0, 64, 127
1, 200830, Note_off_c, 0, 39, 39
1, 200858, Note_on_c, 0, 65, 60
1, 200893, Note_off_c, 0, 63, 57
1, 201045, Note_on_c, 0, 63, 65
1, 201062, Note_on_c, 0, 54, 41
1, 201082, Note_on_c, 0, 58, 34
1, 201117, Note_off_c, 0, 65, 45
1, 201128, Note_off_c, 0, 58, 54
1, 201165, Note_off_c, 0, 54, 62
1, 201241, Note_on_c, 0, 62, 57
1, 201275, Note_off_c, 0, 63, 57
1, 201391, Control_c, 0, 67, 8
1, 201427, Control_c, 0, 67, 8
1, 201441, Control_c, 0, 67, 9
1, 201456, Control_c, 0, 64, 106
1, 201456, Control_c, 0, 67, 9
1, 201459, Note_on_c, 0, 44, 50
1, 201471, Control_c, 0, 64, 86
1, 201471, Control_c, 0, 67, 10
1, 201486, Control_c, 0, 64, 70
1, 201486, Control_c, 0, 67, 10
1, 201501, Control_c, 0, 64, 0
1, 201501, Control_c, 0, 67, 11
1, 201545, Control_c, 0, 67, 11
1, 201560, Control_c, 0, 67, 12
1, 201575, Control_c, 0, 67, 12
1, 201590, Control_c, 0, 67, 13
1, 201604, Control_c, 0, 67, 14
1, 201619, Control_c, 0, 67, 14
1, 201692, Note_on_c, 0, 60, 53
1, 201710, Note_off_c, 0, 62, 59
1, 201752, Control_c, 0, 67, 15
1, 201871, Control_c, 0, 67, 15
1, 201930, Note_on_c, 0, 54, 37
1, 201942, Note_on_c, 0, 50, 32
1, 201975, Control_c, 0, 64, 14
1, 201990, Control_c, 0, 64, 62
1, 202005, Control_c, 0, 64, 71
1, 202005, Control_c, 0, 67, 15
1, 202020, Control_c, 0, 64, 80
1, 202035, Control_c, 0, 64, 95
1, 202050, Control_c, 0, 64, 114
1, 202064, Control_c, 0, 64, 127
1, 202127, Note_off_c, 0, 54, 42
1, 202148, Note_on_c, 0, 62, 52
1, 202157, Note_off_c, 0, 44, 39
1, 202212, Note_off_c, 0, 60, 54
1, 202244, Note_off_c, 0, 50, 46
1, 202279, Control_c, 0, 67, 15
1, 202324, Control_c, 0, 67, 16
1, 202353, Control_c, 0, 67, 16
1, 202368, Control_c, 0, 64, 93
1, 202383, Note_on_c, 0, 63, 63
1, 202383, Control_c, 0, 64, 72
1, 202383, Control_c, 0, 67, 17
1, 202398, Control_c, 0, 64, 0
1, 202398, Control_c, 0, 67, 20
1, 202413, Control_c, 0, 67, 21
1, 202417, Note_on_c, 0, 43, 46
1, 202427, Control_c, 0, 67, 21
1, 202440, Note_off_c, 0, 62, 52
1, 202457, Control_c, 0, 67, 22
1, 202501, Control_c, 0, 64, 40
1, 202516, Control_c, 0, 64, 66
1, 202531, Control_c, 0, 64, 78
1, 202546, Control_c, 0, 64, 97
1, 202559, Note_off_c, 0, 43, 61
1, 202560, Control_c, 0, 64, 127
1, 202597, Note_on_c, 0, 67, 74
1, 202629, Note_off_c, 0, 63, 59
1, 202754, Control_c, 0, 67, 22
1, 202783, Control_c, 0, 67, 23
1, 202813, Control_c, 0, 67, 23
1, 202834, Note_on_c, 0, 69, 73
1, 202843, Control_c, 0, 64, 103
1, 202855, Note_on_c, 0, 63, 58
1, 202857, Control_c, 0, 64, 81
1, 202857, Control_c, 0, 67, 24
1, 202861, Note_on_c, 0, 51, 41
1, 202867, Note_off_c, 0, 67, 59
1, 202868, Note_on_c, 0, 55, 34
1, 202872, Note_on_c, 0, 60, 33
1, 202872, Control_c, 0, 64, 59
1, 202872, Control_c, 0, 67, 25
1, 202887, Control_c, 0, 64, 0
1, 202887, Control_c, 0, 67, 26
1, 202902, Control_c, 0, 67, 26
1, 202917, Control_c, 0, 67, 27
1, 202940, Control_c, 0, 67, 27
1, 202955, Control_c, 0, 64, 60
1, 202955, Control_c, 0, 67, 29
1, 202970, Control_c, 0, 64, 71
1, 202970, Control_c, 0, 67, 31
1, 202984, Control_c, 0, 64, 88
1, 202984, Control_c, 0, 67, 33
1, 202999, Control_c, 0, 64, 127
1, 202999, Control_c, 0, 67, 35
1, 203014, Control_c, 0, 67, 37
1, 203021, Note_off_c, 0, 55, 44
1, 203029, Control_c, 0, 67, 39
1, 203035, Note_off_c, 0, 51, 51
1, 203043, Note_off_c, 0, 60, 37
1, 203044, Control_c, 0, 67, 41
1, 203054, Note_off_c, 0, 69, 61
1, 203058, Note_off_c, 0, 63, 58
1, 203058, Control_c, 0, 67, 43
1, 203073, Control_c, 0, 67, 45
1, 203088, Control_c, 0, 67, 46
1, 203102, Control_c, 0, 67, 48
1, 203117, Control_c, 0, 67, 49
1, 203132, Control_c, 0, 67, 51
1, 203147, Control_c, 0, 67, 52
1, 203162, Control_c, 0, 67, 53
1, 203176, Control_c, 0, 67, 54
1, 203191, Control_c, 0, 67, 55
1, 203206, Control_c, 0, 67, 56
1, 203221, Control_c, 0, 67, 57
1, 203236, Control_c, 0, 67, 59
1, 203251, Control_c, 0, 67, 61
1, 203266, Control_c, 0, 67, 61
1, 203281, Control_c, 0, 67, 62
1, 203295, Note_on_c, 0, 69, 68
1, 203295, Control_c, 0, 64, 113
1, 203310, Control_c, 0, 64, 87
1, 203310, Control_c, 0, 67, 63
1, 203317, Note_on_c, 0, 63, 50
1, 203325, Control_c, 0, 64, 70
1, 203325, Control_c, 0, 67, 63
1, 203331, Note_on_c, 0, 60, 33
1, 203340, Control_c, 0, 64, 29
1, 203340, Control_c, 0, 67, 64
1, 203340, Note_on_c, 0, 53, 38
1, 203355, Control_c, 0, 64, 0
1, 203361, Note_on_c, 0, 57, 21
1, 203370, Control_c, 0, 67, 64
1, 203384, Control_c, 0, 67, 65
1, 203399, Control_c, 0, 64, 54
1, 203399, Control_c, 0, 67, 65
1, 203414, Control_c, 0, 64, 67
1, 203414, Control_c, 0, 67, 66
1, 203428, Control_c, 0, 64, 76
1, 203443, Control_c, 0, 64, 90
1, 203458, Control_c, 0, 64, 127
1, 203528, Note_off_c, 0, 60, 35
1, 203545, Note_off_c, 0, 53, 43
1, 203566, Note_off_c, 0, 69, 54
1, 203578, Control_c, 0, 67, 66
1, 203615, Note_off_c, 0, 57, 41
1, 203650, Note_off_c, 0, 63, 40
1, 203667, Control_c, 0, 67, 67
1, 203689, Control_c, 0, 67, 67
1, 203763, Control_c, 0, 67, 68
1, 203778, Control_c, 0, 67, 69
1, 203793, Control_c, 0, 67, 70
1, 203797, Note_on_c, 0, 71, 64
1, 203807, Control_c, 0, 64, 96
1, 203807, Control_c, 0, 67, 71
1, 203818, Note_on_c, 0, 62, 40
1, 203822, Control_c, 0, 64, 76
1, 203822, Control_c, 0, 67, 72
1, 203833, Note_on_c, 0, 55, 37
1, 203837, Control_c, 0, 64, 46
1, 203837, Control_c, 0, 67, 72
1, 203839, Note_on_c, 0, 67, 26
1, 203848, Note_on_c, 0, 59, 30
1, 203851, Control_c, 0, 64, 0
1, 203851, Control_c, 0, 67, 73
1, 203866, Control_c, 0, 67, 74
1, 203881, Control_c, 0, 67, 74
1, 203896, Control_c, 0, 67, 75
1, 203903, Poly_aftertouch_c, 0, 65, 127
1, 203911, Control_c, 0, 64, 30
1, 203911, Control_c, 0, 67, 76
1, 203925, Control_c, 0, 64, 65
1, 203925, Control_c, 0, 67, 76
1, 203940, Control_c, 0, 64, 75
1, 203940, Control_c, 0, 67, 77
1, 203955, Control_c, 0, 64, 88
1, 203955, Control_c, 0, 67, 78
1, 203970, Control_c, 0, 64, 116
1, 203970, Control_c, 0, 67, 78
1, 203985, Control_c, 0, 64, 127
1, 203985, Control_c, 0, 67, 80
1, 203999, Control_c, 0, 67, 81
1, 204008, Note_off_c, 0, 55, 42
1, 204008, Note_off_c, 0, 71, 62
1, 204014, Note_off_c, 0, 59, 43
1, 204014, Control_c, 0, 67, 82
1, 204019, Note_off_c, 0, 62, 58
1, 204029, Control_c, 0, 67, 83
1, 204040, Poly_aftertouch_c, 0, 65, 0
1, 204044, Control_c, 0, 67, 84
1, 204059, Control_c, 0, 67, 86
1, 204061, Note_off_c, 0, 67, 39
1, 204074, Control_c, 0, 67, 87
1, 204088, Control_c, 0, 67, 89
1, 204103, Control_c, 0, 67, 90
1, 204118, Control_c, 0, 67, 92
1, 204133, Control_c, 0, 67, 93
1, 204148, Control_c, 0, 67, 94
1, 204163, Control_c, 0, 67, 96
1, 204178, Control_c, 0, 67, 97
1, 204192, Control_c, 0, 67, 99
1, 204207, Control_c, 0, 67, 101
1, 204222, Control_c, 0, 67, 103
1, 204237, Control_c, 0, 67, 104
1, 204251, Control_c, 0, 67, 106
1, 204266, Control_c, 0, 67, 107
1, 204281, Control_c, 0, 67, 108
1, 204297, Control_c, 0, 67, 109
1, 204312, Control_c, 0, 67, 110
1, 204327, Control_c, 0, 67, 111
1, 204342, Control_c, 0, 67, 112
1, 204356, Control_c, 0, 67, 113
1, 204371, Control_c, 0, 67, 114
1, 204386, Control_c, 0, 67, 115
1, 204401, Control_c, 0, 64, 115
1, 204401, Control_c, 0, 67, 116
1, 204402, Note_on_c, 0, 72, 58
1, 204414, Control_c, 0, 64, 90
1, 204414, Control_c, 0, 67, 117
1, 204436, Control_c, 0, 64, 73
1, 204436, Control_c, 0, 67, 118
1, 204437, Note_on_c, 0, 36, 38
1, 204451, Control_c, 0, 64, 47
1, 204451, Control_c, 0, 67, 119
1, 204466, Control_c, 0, 64, 0
1, 204466, Control_c, 0, 67, 120
1, 204480, Control_c, 0, 67, 121
1, 204495, Control_c, 0, 67, 122
1, 204510, Control_c, 0, 67, 122
1, 204525, Control_c, 0, 67, 123
1, 204540, Control_c, 0, 64, 17
1, 204540, Control_c, 0, 67, 123
1, 204554, Control_c, 0, 64, 64
1, 204554, Control_c, 0, 67, 124
1, 204569, Control_c, 0, 64, 76
1, 204569, Control_c, 0, 67, 125
1, 204584, Control_c, 0, 64, 93
1, 204584, Control_c, 0, 67, 125
1, 204599, Control_c, 0, 64, 127
1, 204599, Control_c, 0, 67, 126
1, 204614, Control_c, 0, 67, 126
1, 204620, Note_off_c, 0, 36, 38
1, 204628, Control_c, 0, 67, 127
1, 204643, Control_c, 0, 67, 127
1, 205147, Note_on_c, 0, 67, 27
1, 205151, Note_on_c, 0, 60, 29
1, 205152, Note_on_c, 0, 63, 25
1, 205185, Note_on_c, 0, 55, 24
1, 205188, Note_on_c, 0, 51, 28
1, 205230, Note_off_c, 0, 67, 54
1, 205293, Note_off_c, 0, 51, 46
1, 205312, Note_off_c, 0, 55, 35
1, 205313, Note_off_c, 0, 60, 36
1, 205338, Note_off_c, 0, 63, 40
1, 205518, Note_on_c, 0, 70, 45
1, 205635, Note_on_c, 0, 69, 51
1, 205681, Note_off_c, 0, 70, 50
1, 205735, Note_off_c, 0, 72, 23
1, 205760, Note_off_c, 0, 69, 56
1, 205769, Note_on_c, 0, 67, 59
1, 205777, Control_c, 0, 64, 117
1, 205792, Control_c, 0, 64, 91
1, 205807, Control_c, 0, 64, 74
1, 205821, Control_c, 0, 64, 26
1, 205821, Control_c, 0, 67, 122
1, 205836, Control_c, 0, 64, 0
1, 205836, Control_c, 0, 67, 109
1, 205851, Control_c, 0, 67, 95
1, 205866, Control_c, 0, 67, 80
1, 205881, Control_c, 0, 67, 65
1, 205897, Control_c, 0, 67, 50
1, 205919, Control_c, 0, 67, 35
1, 205934, Control_c, 0, 67, 21
1, 205949, Control_c, 0, 67, 0
1, 205994, Note_on_c, 0, 69, 53
1, 205999, Note_off_c, 0, 67, 54
1, 206083, Note_on_c, 0, 70, 54
1, 206092, Note_off_c, 0, 69, 59
1, 206164, Note_off_c, 0, 70, 64
1, 206179, Note_on_c, 0, 55, 40
1, 206179, Note_on_c, 0, 65, 37
1, 206179, Note_on_c, 0, 69, 58
1, 206230, Control_c, 0, 64, 11
1, 206244, Control_c, 0, 64, 63
1, 206259, Control_c, 0, 64, 72
1, 206274, Control_c, 0, 64, 86
1, 206288, Note_off_c, 0, 55, 56
1, 206289, Control_c, 0, 64, 117
1, 206304, Control_c, 0, 64, 127
1, 206390, Note_on_c, 0, 71, 59
1, 206404, Note_off_c, 0, 69, 50
1, 206448, Note_off_c, 0, 71, 62
1, 206470, Note_on_c, 0, 74, 60
1, 206526, Control_c, 0, 64, 94
1, 206541, Control_c, 0, 64, 73
1, 206556, Control_c, 0, 64, 0
1, 206569, Note_off_c, 0, 74, 62
1, 206572, Note_on_c, 0, 72, 63
1, 206579, Note_on_c, 0, 63, 47
1, 206581, Note_on_c, 0, 60, 41
1, 206599, Note_off_c, 0, 65, 34
1, 206649, Note_off_c, 0, 60, 62
1, 206660, Control_c, 0, 64, 61
1, 206674, Note_off_c, 0, 63, 61
1, 206682, Control_c, 0, 64, 72
1, 206698, Control_c, 0, 64, 88
1, 206713, Control_c, 0, 64, 127
1, 206780, Note_off_c, 0, 72, 60
1, 206785, Note_on_c, 0, 70, 58
1, 206850, Note_off_c, 0, 70, 61
1, 206858, Note_on_c, 0, 69, 60
1, 206917, Note_off_c, 0, 69, 61
1, 206935, Control_c, 0, 64, 99
1, 206942, Note_on_c, 0, 67, 66
1, 206950, Control_c, 0, 64, 77
1, 206965, Control_c, 0, 64, 55
1, 206980, Control_c, 0, 64, 0
1, 207010, Control_c, 0, 64, 47
1, 207024, Control_c, 0, 64, 66
1, 207039, Control_c, 0, 64, 79
1, 207054, Control_c, 0, 64, 100
1, 207068, Control_c, 0, 64, 127
1, 207123, Note_on_c, 0, 69, 60
1, 207197, Note_on_c, 0, 70, 66
1, 207206, Note_off_c, 0, 69, 62
1, 207231, Control_c, 0, 64, 101
1, 207246, Control_c, 0, 64, 78
1, 207253, Note_off_c, 0, 70, 63
1, 207261, Control_c, 0, 64, 0
1, 207284, Note_on_c, 0, 66, 66
1, 207286, Note_on_c, 0, 69, 63
1, 207317, Note_off_c, 0, 67, 61
1, 207463, Note_on_c, 0, 71, 60
1, 207541, Note_on_c, 0, 72, 60
1, 207545, Note_off_c, 0, 71, 64
1, 207590, Note_off_c, 0, 72, 63
1, 207621, Note_off_c, 0, 69, 60
1, 207638, Note_on_c, 0, 65, 58
1, 207638, Note_on_c, 0, 71, 57
1, 207642, Note_off_c, 0, 66, 59
1, 207838, Note_on_c, 0, 72, 55
1, 207917, Note_off_c, 0, 72, 61
1, 207934, Note_on_c, 0, 74, 57
1, 207967, Note_off_c, 0, 74, 66
1, 208035, Note_off_c, 0, 71, 61
1, 208050, Note_on_c, 0, 63, 49
1, 208059, Note_on_c, 0, 72, 46
1, 208080, Note_off_c, 0, 65, 42
1, 208128, Control_c, 0, 64, 31
1, 208143, Control_c, 0, 64, 61
1, 208157, Control_c, 0, 64, 68
1, 208179, Control_c, 0, 64, 77
1, 208194, Control_c, 0, 64, 93
1, 208209, Control_c, 0, 64, 127
1, 208255, Note_off_c, 0, 63, 59
1, 208301, Note_off_c, 0, 72, 59
1, 208324, Note_on_c, 0, 86, 61
1, 208384, Note_on_c, 0, 84, 61
1, 208401, Note_off_c, 0, 86, 65
1, 208444, Note_off_c, 0, 84, 64
1, 208476, Control_c, 0, 64, 90
1, 208491, Control_c, 0, 64, 65
1, 208506, Control_c, 0, 64, 0
1, 208512, Note_on_c, 0, 75, 63
1, 208513, Note_on_c, 0, 65, 46
1, 208517, Note_on_c, 0, 69, 51
1, 208551, Control_c, 0, 64, 58
1, 208566, Control_c, 0, 64, 69
1, 208581, Control_c, 0, 64, 81
1, 208595, Control_c, 0, 64, 96
1, 208610, Control_c, 0, 64, 127
1, 208688, Note_on_c, 0, 79, 65
1, 208696, Note_off_c, 0, 65, 51
1, 208734, Note_off_c, 0, 79, 64
1, 208735, Note_off_c, 0, 75, 60
1, 208755, Note_on_c, 0, 77, 69
1, 208787, Control_c, 0, 64, 96
1, 208794, Note_off_c, 0, 69, 33
1, 208802, Control_c, 0, 64, 71
1, 208817, Control_c, 0, 64, 0
1, 208828, Note_off_c, 0, 77, 57
1, 208834, Note_on_c, 0, 70, 62
1, 208834, Note_on_c, 0, 74, 67
1, 208861, Control_c, 0, 64, 63
1, 208876, Control_c, 0, 64, 76
1, 208891, Control_c, 0, 64, 99
1, 208913, Control_c, 0, 64, 127
1, 208924, Note_off_c, 0, 70, 63
1, 208935, Note_off_c, 0, 74, 65
1, 209001, Note_on_c, 0, 87, 84
1, 209073, Note_on_c, 0, 86, 78
1, 209103, Note_off_c, 0, 87, 63
1, 209122, Control_c, 0, 64, 110
1, 209126, Note_off_c, 0, 86, 61
1, 209137, Control_c, 0, 64, 77
1, 209151, Control_c, 0, 64, 0
1, 209153, Note_on_c, 0, 77, 73
1, 209157, Note_on_c, 0, 71, 67
1, 209160, Note_on_c, 0, 67, 63
1, 209211, Control_c, 0, 64, 53
1, 209225, Control_c, 0, 64, 70
1, 209240, Control_c, 0, 64, 85
1, 209255, Control_c, 0, 64, 127
1, 209257, Note_off_c, 0, 71, 63
1, 209269, Note_off_c, 0, 67, 60
1, 209312, Note_on_c, 0, 80, 76
1, 209367, Note_off_c, 0, 80, 64
1, 209376, Note_on_c, 0, 79, 80
1, 209403, Control_c, 0, 64, 120
1, 209412, Note_off_c, 0, 77, 58
1, 209418, Control_c, 0, 64, 83
1, 209433, Control_c, 0, 64, 63
1, 209448, Note_off_c, 0, 79, 56
1, 209448, Control_c, 0, 64, 0
1, 209457, Note_on_c, 0, 72, 71
1, 209457, Note_on_c, 0, 75, 70
1, 209462, Control_c, 0, 64, 28
1, 209477, Control_c, 0, 64, 65
1, 209492, Control_c, 0, 64, 80
1, 209507, Control_c, 0, 64, 127
1, 209543, Note_off_c, 0, 72, 62
1, 209570, Note_off_c, 0, 75, 57
1, 209604, Note_on_c, 0, 89, 82
1, 209683, Note_on_c, 0, 87, 81
1, 209713, Note_off_c, 0, 89, 61
1, 209758, Note_off_c, 0, 87, 64
1, 209845, Note_on_c, 0, 69, 61
1, 209850, Note_on_c, 0, 79, 78
1, 209854, Note_on_c, 0, 73, 68
1, 209870, Control_c, 0, 64, 118
1, 209886, Control_c, 0, 64, 87
1, 209901, Control_c, 0, 64, 68
1, 209916, Control_c, 0, 64, 0
1, 209990, Control_c, 0, 64, 60
1, 210005, Control_c, 0, 64, 69
1, 210020, Control_c, 0, 64, 81
1, 210035, Control_c, 0, 64, 101
1, 210049, Control_c, 0, 64, 127
1, 210083, Note_on_c, 0, 82, 60
1, 210141, Note_off_c, 0, 79, 58
1, 210165, Note_off_c, 0, 82, 63
1, 210173, Note_on_c, 0, 81, 64
1, 210220, Note_off_c, 0, 81, 53
1, 210266, Note_on_c, 0, 77, 80
1, 210271, Control_c, 0, 64, 107
1, 210286, Control_c, 0, 64, 81
1, 210301, Control_c, 0, 64, 59
1, 210316, Control_c, 0, 64, 0
1, 210360, Control_c, 0, 64, 63
1, 210375, Control_c, 0, 64, 73
1, 210390, Control_c, 0, 64, 94
1, 210405, Control_c, 0, 64, 127
1, 210438, Note_on_c, 0, 81, 59
1, 210513, Note_on_c, 0, 79, 66
1, 210534, Note_off_c, 0, 81, 59
1, 210575, Control_c, 0, 64, 96
1, 210576, Note_off_c, 0, 79, 61
1, 210590, Control_c, 0, 64, 67
1, 210593, Note_on_c, 0, 75, 76
1, 210605, Control_c, 0, 64, 0
1, 210606, Note_off_c, 0, 77, 59
1, 210649, Control_c, 0, 64, 14
1, 210664, Control_c, 0, 64, 65
1, 210679, Control_c, 0, 64, 81
1, 210694, Control_c, 0, 64, 106
1, 210709, Control_c, 0, 64, 127
1, 210713, Note_off_c, 0, 69, 60
1, 210722, Note_off_c, 0, 73, 56
1, 210727, Note_on_c, 0, 79, 65
1, 210807, Note_on_c, 0, 77, 63
1, 210808, Note_off_c, 0, 79, 56
1, 210849, Note_off_c, 0, 77, 59
1, 210894, Note_on_c, 0, 74, 75
1, 210902, Control_c, 0, 64, 91
1, 210903, Note_on_c, 0, 70, 63
1, 210903, Note_off_c, 0, 75, 62
1, 210916, Control_c, 0, 64, 69
1, 210931, Control_c, 0, 64, 0
1, 211051, Note_on_c, 0, 77, 52
1, 211126, Note_on_c, 0, 75, 61
1, 211127, Note_off_c, 0, 77, 58
1, 211199, Note_off_c, 0, 75, 58
1, 211213, Note_off_c, 0, 74, 58
1, 211217, Note_on_c, 0, 72, 63
1, 211235, Control_c, 0, 64, 64
1, 211249, Control_c, 0, 64, 79
1, 211264, Control_c, 0, 64, 104
1, 211279, Control_c, 0, 64, 127
1, 211284, Note_off_c, 0, 70, 61
1, 211305, Note_off_c, 0, 72, 65
1, 211362, Note_on_c, 0, 75, 53
1, 211437, Note_on_c, 0, 74, 62
1, 211441, Note_off_c, 0, 75, 56
1, 211482, Note_off_c, 0, 74, 62
1, 211502, Control_c, 0, 64, 117
1, 211517, Control_c, 0, 64, 90
1, 211529, Note_on_c, 0, 70, 53
1, 211532, Control_c, 0, 64, 71
1, 211544, Note_on_c, 0, 66, 47
1, 211547, Control_c, 0, 64, 50
1, 211559, Note_on_c, 0, 62, 36
1, 211562, Control_c, 0, 64, 0
1, 211577, Control_c, 0, 64, 24
1, 211591, Control_c, 0, 64, 57
1, 211606, Control_c, 0, 64, 66
1, 211621, Control_c, 0, 64, 72
1, 211636, Control_c, 0, 64, 81
1, 211651, Control_c, 0, 64, 91
1, 211665, Control_c, 0, 64, 103
1, 211680, Control_c, 0, 64, 127
1, 211701, Note_on_c, 0, 74, 52
1, 211768, Note_on_c, 0, 72, 48
1, 211774, Note_off_c, 0, 70, 49
1, 211792, Note_off_c, 0, 74, 52
1, 211843, Note_off_c, 0, 72, 56
1, 211857, Control_c, 0, 64, 106
1, 211866, Note_on_c, 0, 69, 54
1, 211872, Control_c, 0, 64, 85
1, 211887, Control_c, 0, 64, 69
1, 211901, Control_c, 0, 64, 43
1, 211924, Control_c, 0, 64, 38
1, 211938, Control_c, 0, 64, 62
1, 211953, Control_c, 0, 64, 69
1, 211968, Control_c, 0, 64, 79
1, 211983, Control_c, 0, 64, 95
1, 211997, Control_c, 0, 64, 127
1, 212050, Note_on_c, 0, 72, 48
1, 212116, Note_off_c, 0, 72, 63
1, 212129, Note_on_c, 0, 70, 58
1, 212220, Control_c, 0, 64, 119
1, 212235, Note_off_c, 0, 66, 51
1, 212235, Control_c, 0, 64, 87
1, 212236, Note_on_c, 0, 67, 64
1, 212238, Note_on_c, 0, 63, 60
1, 212250, Control_c, 0, 64, 67
1, 212253, Note_off_c, 0, 69, 51
1, 212256, Note_off_c, 0, 70, 46
1, 212264, Control_c, 0, 64, 0
1, 212304, Note_off_c, 0, 62, 48
1, 212393, Note_on_c, 0, 82, 90
1, 212411, Note_on_c, 0, 79, 69
1, 212428, Control_c, 0, 64, 31
1, 212443, Control_c, 0, 64, 65
1, 212458, Control_c, 0, 64, 76
1, 212473, Control_c, 0, 64, 94
1, 212486, Note_off_c, 0, 79, 57
1, 212487, Control_c, 0, 64, 127
1, 212505, Note_on_c, 0, 70, 74
1, 212605, Note_on_c, 0, 65, 73
1, 212635, Note_off_c, 0, 70, 61
1, 212642, Note_off_c, 0, 63, 59
1, 212644, Note_off_c, 0, 82, 63
1, 212672, Note_off_c, 0, 67, 63
1, 212676, Note_off_c, 0, 65, 62
1, 212730, Note_on_c, 0, 81, 92
1, 212748, Note_on_c, 0, 77, 69
1, 212777, Control_c, 0, 64, 90
1, 212792, Control_c, 0, 64, 71
1, 212807, Control_c, 0, 64, 55
1, 212817, Note_on_c, 0, 69, 71
1, 212821, Control_c, 0, 64, 51
1, 212836, Control_c, 0, 64, 67
1, 212851, Control_c, 0, 64, 83
1, 212866, Control_c, 0, 64, 127
1, 212885, Note_on_c, 0, 55, 59
1, 212886, Note_on_c, 0, 63, 70
1, 212889, Note_on_c, 0, 59, 62
1, 212906, Note_off_c, 0, 77, 60
1, 212909, Note_off_c, 0, 81, 60
1, 212912, Note_off_c, 0, 69, 63
1, 213016, Note_on_c, 0, 79, 89
1, 213032, Note_on_c, 0, 75, 67
1, 213058, Control_c, 0, 64, 97
1, 213073, Control_c, 0, 64, 82
1, 213076, Note_off_c, 0, 63, 53
1, 213089, Control_c, 0, 64, 72
1, 213104, Control_c, 0, 64, 65
1, 213108, Note_on_c, 0, 67, 69
1, 213113, Note_off_c, 0, 75, 61
1, 213118, Control_c, 0, 64, 67
1, 213133, Control_c, 0, 64, 78
1, 213148, Control_c, 0, 64, 126
1, 213163, Control_c, 0, 64, 127
1, 213169, Note_on_c, 0, 62, 71
1, 213191, Note_off_c, 0, 79, 58
1, 213197, Note_off_c, 0, 67, 61
1, 213222, Note_off_c, 0, 55, 63
1, 213224, Note_off_c, 0, 59, 60
1, 213250, Note_off_c, 0, 62, 59
1, 213297, Note_on_c, 0, 77, 74
1, 213308, Note_on_c, 0, 74, 66
1, 213383, Note_on_c, 0, 65, 67
1, 213408, Note_off_c, 0, 77, 58
1, 213418, Note_off_c, 0, 65, 67
1, 213425, Note_off_c, 0, 74, 48
1, 213437, Control_c, 0, 64, 93
1, 213452, Control_c, 0, 64, 72
1, 213462, Note_on_c, 0, 56, 50
1, 213466, Control_c, 0, 64, 0
1, 213471, Note_on_c, 0, 60, 49
1, 213611, Note_on_c, 0, 77, 51
1, 213617, Note_on_c, 0, 72, 49
1, 213681, Note_off_c, 0, 77, 51
1, 213700, Note_on_c, 0, 75, 45
1, 213712, Note_off_c, 0, 72, 56
1, 213754, Note_off_c, 0, 75, 56
1, 213762, Control_c, 0, 64, 27
1, 213777, Control_c, 0, 64, 60
1, 213783, Note_on_c, 0, 70, 57
1, 213792, Control_c, 0, 64, 67
1, 213807, Control_c, 0, 64, 75
1, 213822, Control_c, 0, 64, 90
1, 213836, Control_c, 0, 64, 127
1, 213865, Note_off_c, 0, 56, 61
1, 213872, Note_off_c, 0, 60, 62
1, 213930, Note_off_c, 0, 70, 58
1, 213955, Note_on_c, 0, 75, 44
1, 214015, Note_off_c, 0, 75, 49
1, 214029, Note_on_c, 0, 74, 46
1, 214095, Note_off_c, 0, 74, 58
1, 214099, Note_on_c, 0, 60, 46
1, 214109, Note_on_c, 0, 68, 66
1, 214113, Note_on_c, 0, 63, 43
1, 214119, Control_c, 0, 64, 110
1, 214134, Control_c, 0, 64, 92
1, 214149, Control_c, 0, 64, 79
1, 214171, Control_c, 0, 64, 72
1, 214186, Control_c, 0, 64, 70
1, 214201, Control_c, 0, 64, 75
1, 214215, Control_c, 0, 64, 84
1, 214230, Control_c, 0, 64, 102
1, 214245, Control_c, 0, 64, 127
1, 214289, Note_on_c, 0, 74, 46
1, 214343, Note_on_c, 0, 72, 49
1, 214348, Note_off_c, 0, 74, 59
1, 214362, Note_off_c, 0, 68, 49
1, 214406, Note_off_c, 0, 72, 49
1, 214423, Control_c, 0, 64, 105
1, 214429, Note_on_c, 0, 67, 65
1, 214438, Control_c, 0, 64, 90
1, 214453, Control_c, 0, 64, 83
1, 214467, Control_c, 0, 64, 82
1, 214482, Control_c, 0, 64, 88
1, 214487, Note_off_c, 0, 60, 60
1, 214497, Control_c, 0, 64, 104
1, 214512, Control_c, 0, 64, 127
1, 214536, Note_off_c, 0, 63, 59
1, 214559, Note_on_c, 0, 72, 54
1, 214629, Note_off_c, 0, 72, 62
1, 214633, Note_on_c, 0, 70, 65
1, 214655, Note_off_c, 0, 67, 58
1, 214690, Control_c, 0, 64, 93
1, 214705, Control_c, 0, 64, 71
1, 214720, Control_c, 0, 64, 0
1, 214721, Note_on_c, 0, 66, 72
1, 214728, Note_on_c, 0, 62, 68
1, 214756, Note_off_c, 0, 70, 61
1, 214855, Note_on_c, 0, 81, 90
1, 214864, Note_on_c, 0, 78, 81
1, 214897, Control_c, 0, 64, 56
1, 214920, Control_c, 0, 64, 71
1, 214935, Control_c, 0, 64, 88
1, 214948, Note_on_c, 0, 69, 76
1, 214950, Control_c, 0, 64, 127
1, 215024, Note_on_c, 0, 63, 86
1, 215050, Note_off_c, 0, 81, 59
1, 215055, Note_off_c, 0, 62, 59
1, 215056, Note_off_c, 0, 78, 61
1, 215061, Note_off_c, 0, 69, 61
1, 215070, Note_off_c, 0, 66, 62
1, 215114, Note_off_c, 0, 63, 63
1, 215136, Note_on_c, 0, 79, 91
1, 215148, Note_on_c, 0, 75, 82
1, 215215, Note_on_c, 0, 67, 80
1, 215236, Note_off_c, 0, 75, 59
1, 215249, Note_off_c, 0, 79, 61
1, 215276, Control_c, 0, 64, 102
1, 215281, Note_on_c, 0, 54, 74
1, 215285, Note_on_c, 0, 62, 74
1, 215290, Control_c, 0, 64, 73
1, 215293, Note_off_c, 0, 67, 60
1, 215305, Control_c, 0, 64, 0
1, 215349, Control_c, 0, 64, 64
1, 215364, Control_c, 0, 64, 77
1, 215379, Control_c, 0, 64, 89
1, 215394, Control_c, 0, 64, 88
1, 215400, Note_on_c, 0, 78, 81
1, 215404, Note_on_c, 0, 74, 82
1, 215408, Control_c, 0, 64, 75
1, 215423, Control_c, 0, 64, 52
1, 215438, Control_c, 0, 64, 0
1, 215482, Note_on_c, 0, 66, 72
1, 215552, Note_off_c, 0, 78, 60
1, 215562, Note_on_c, 0, 60, 63
1, 215571, Note_off_c, 0, 62, 54
1, 215572, Note_off_c, 0, 66, 56
1, 215582, Note_off_c, 0, 74, 58
1, 215617, Control_c, 0, 64, 67
1, 215631, Control_c, 0, 64, 81
1, 215647, Control_c, 0, 64, 111
1, 215669, Control_c, 0, 64, 127
1, 215680, Note_off_c, 0, 54, 52
1, 215691, Note_on_c, 0, 75, 65
1, 215698, Note_on_c, 0, 72, 64
1, 215730, Note_off_c, 0, 60, 56
1, 215759, Note_off_c, 0, 72, 61
1, 215770, Note_on_c, 0, 63, 62
1, 215791, Note_off_c, 0, 75, 54
1, 215848, Note_off_c, 0, 63, 36
1, 215877, Control_c, 0, 64, 108
1, 215892, Control_c, 0, 64, 83
1, 215899, Note_on_c, 0, 55, 43
1, 215906, Control_c, 0, 64, 63
1, 215916, Note_on_c, 0, 58, 44
1, 215921, Control_c, 0, 64, 0
1, 216054, Note_on_c, 0, 74, 50
1, 216081, Note_on_c, 0, 70, 38
1, 216084, Control_c, 0, 64, 40
1, 216099, Control_c, 0, 64, 66
1, 216113, Control_c, 0, 64, 75
1, 216128, Control_c, 0, 64, 88
1, 216143, Control_c, 0, 64, 116
1, 216158, Control_c, 0, 64, 127
1, 216160, Note_off_c, 0, 55, 34
1, 216178, Note_on_c, 0, 62, 40
1, 216218, Note_off_c, 0, 74, 52
1, 216221, Note_off_c, 0, 62, 59
1, 216271, Note_off_c, 0, 70, 60
1, 216307, Note_on_c, 0, 56, 46
1, 216337, Note_on_c, 0, 62, 49
1, 216337, Control_c, 0, 64, 101
1, 216352, Control_c, 0, 64, 82
1, 216367, Control_c, 0, 64, 66
1, 216382, Control_c, 0, 64, 0
1, 216394, Note_off_c, 0, 58, 38
1, 216432, Control_c, 0, 64, 43
1, 216447, Control_c, 0, 64, 64
1, 216462, Control_c, 0, 64, 72
1, 216462, Note_off_c, 0, 56, 56
1, 216477, Control_c, 0, 64, 83
1, 216489, Note_on_c, 0, 76, 55
1, 216492, Control_c, 0, 64, 107
1, 216507, Control_c, 0, 64, 127
1, 216581, Note_on_c, 0, 64, 50
1, 216630, Note_off_c, 0, 64, 59
1, 216652, Note_off_c, 0, 62, 48
1, 216652, Note_off_c, 0, 76, 57
1, 216669, Control_c, 0, 64, 108
1, 216671, Note_on_c, 0, 57, 47
1, 216673, Note_on_c, 0, 61, 52
1, 216684, Control_c, 0, 64, 83
1, 216699, Control_c, 0, 64, 68
1, 216714, Control_c, 0, 64, 59
1, 216728, Control_c, 0, 64, 63
1, 216743, Control_c, 0, 64, 68
1, 216758, Control_c, 0, 64, 79
1, 216773, Control_c, 0, 64, 96
1, 216787, Note_off_c, 0, 57, 58
1, 216787, Control_c, 0, 64, 127
1, 216801, Note_on_c, 0, 77, 65
1, 216836, Note_off_c, 0, 61, 54
1, 216878, Note_on_c, 0, 65, 58
1, 216936, Control_c, 0, 64, 111
1, 216941, Note_off_c, 0, 65, 61
1, 216947, Note_off_c, 0, 77, 57
1, 216951, Control_c, 0, 64, 75
1, 216958, Note_on_c, 0, 64, 59
1, 216966, Control_c, 0, 64, 0
1, 216969, Note_on_c, 0, 58, 51
1, 217010, Control_c, 0, 64, 37
1, 217025, Control_c, 0, 64, 67
1, 217040, Control_c, 0, 64, 83
1, 217054, Control_c, 0, 64, 112
1, 217070, Control_c, 0, 64, 127
1, 217076, Note_on_c, 0, 79, 73
1, 217111, Note_off_c, 0, 58, 52
1, 217162, Note_on_c, 0, 67, 65
1, 217207, Note_off_c, 0, 79, 59
1, 217209, Note_off_c, 0, 64, 57
1, 217225, Control_c, 0, 64, 88
1, 217225, Note_off_c, 0, 67, 59
1, 217240, Note_on_c, 0, 59, 59
1, 217240, Control_c, 0, 64, 58
1, 217240, Note_on_c, 0, 62, 56
1, 217255, Control_c, 0, 64, 0
1, 217299, Control_c, 0, 64, 64
1, 217314, Control_c, 0, 64, 78
1, 217329, Control_c, 0, 64, 108
1, 217344, Control_c, 0, 64, 127
1, 217348, Note_off_c, 0, 59, 58
1, 217355, Note_on_c, 0, 80, 76
1, 217356, Note_off_c, 0, 62, 61
1, 217430, Note_on_c, 0, 68, 68
1, 217476, Control_c, 0, 64, 98
1, 217485, Note_off_c, 0, 68, 63
1, 217491, Control_c, 0, 64, 72
1, 217494, Note_on_c, 0, 65, 68
1, 217498, Note_on_c, 0, 60, 61
1, 217506, Control_c, 0, 64, 0
1, 217517, Note_off_c, 0, 80, 62
1, 217580, Control_c, 0, 64, 59
1, 217595, Control_c, 0, 64, 73
1, 217610, Control_c, 0, 64, 97
1, 217613, Note_on_c, 0, 81, 91
1, 217625, Control_c, 0, 64, 127
1, 217669, Control_c, 0, 64, 97
1, 217681, Note_on_c, 0, 69, 72
1, 217684, Control_c, 0, 64, 72
1, 217699, Control_c, 0, 64, 0
1, 217738, Note_off_c, 0, 69, 64
1, 217758, Note_off_c, 0, 81, 64
1, 217759, Note_on_c, 0, 64, 70
1, 217764, Note_off_c, 0, 65, 60
1, 217767, Note_on_c, 0, 61, 67
1, 217792, Note_off_c, 0, 60, 60
1, 217832, Control_c, 0, 64, 64
1, 217847, Control_c, 0, 64, 80
1, 217862, Control_c, 0, 64, 113
1, 217878, Control_c, 0, 64, 127
1, 217881, Note_on_c, 0, 84, 78
1, 217881, Note_off_c, 0, 64, 62
1, 217899, Note_off_c, 0, 61, 56
1, 217971, Note_on_c, 0, 72, 68
1, 218048, Control_c, 0, 64, 109
1, 218053, Note_on_c, 0, 67, 61
1, 218060, Note_on_c, 0, 62, 56
1, 218061, Note_off_c, 0, 84, 61
1, 218063, Control_c, 0, 64, 81
1, 218066, Note_off_c, 0, 72, 61
1, 218078, Control_c, 0, 64, 61
1, 218093, Control_c, 0, 64, 0
1, 218122, Control_c, 0, 64, 38
1, 218137, Control_c, 0, 64, 65
1, 218152, Control_c, 0, 64, 78
1, 218162, Note_on_c, 0, 82, 77
1, 218167, Control_c, 0, 64, 99
1, 218181, Control_c, 0, 64, 127
1, 218232, Note_on_c, 0, 70, 77
1, 218285, Control_c, 0, 64, 107
1, 218298, Note_off_c, 0, 82, 63
1, 218299, Control_c, 0, 64, 76
1, 218304, Note_on_c, 0, 63, 65
1, 218305, Note_on_c, 0, 66, 69
1, 218314, Control_c, 0, 64, 0
1, 218322, Note_off_c, 0, 70, 59
1, 218326, Note_off_c, 0, 62, 54
1, 218326, Note_off_c, 0, 67, 51
1, 218373, Control_c, 0, 64, 59
1, 218388, Control_c, 0, 64, 74
1, 218393, Note_off_c, 0, 66, 62
1, 218403, Note_off_c, 0, 63, 59
1, 218403, Control_c, 0, 64, 94
1, 218416, Note_on_c, 0, 81, 87
1, 218418, Control_c, 0, 64, 127
1, 218486, Note_on_c, 0, 69, 79
1, 218522, Control_c, 0, 64, 104
1, 218534, Note_off_c, 0, 69, 0
1, 218537, Control_c, 0, 64, 74
1, 218542, Note_off_c, 0, 81, 63
1, 218549, Note_on_c, 0, 69, 62
1, 218551, Control_c, 0, 64, 0
1, 218552, Note_on_c, 0, 64, 77
1, 218611, Control_c, 0, 64, 50
1, 218625, Control_c, 0, 64, 71
1, 218639, Control_c, 0, 64, 89
1, 218662, Control_c, 0, 64, 127
1, 218666, Note_on_c, 0, 84, 90
1, 218733, Note_on_c, 0, 72, 83
1, 218766, Control_c, 0, 64, 111
1, 218777, Note_off_c, 0, 72, 65
1, 218781, Note_off_c, 0, 84, 64
1, 218781, Control_c, 0, 64, 78
1, 218796, Control_c, 0, 64, 0
1, 218805, Note_on_c, 0, 68, 76
1, 218806, Note_on_c, 0, 65, 74
1, 218823, Note_off_c, 0, 69, 59
1, 218828, Note_off_c, 0, 64, 59
1, 218870, Control_c, 0, 64, 64
1, 218885, Control_c, 0, 64, 79
1, 218900, Control_c, 0, 64, 111
1, 218911, Note_off_c, 0, 65, 62
1, 218915, Control_c, 0, 64, 127
1, 218916, Note_on_c, 0, 87, 95
1, 218940, Note_off_c, 0, 68, 62
1, 218988, Note_on_c, 0, 75, 82
1, 219062, Control_c, 0, 64, 82
1, 219063, Note_on_c, 0, 66, 76
1, 219065, Note_on_c, 0, 72, 79
1, 219067, Note_off_c, 0, 87, 61
1, 219068, Note_off_c, 0, 75, 61
1, 219077, Control_c, 0, 64, 49
1, 219092, Control_c, 0, 64, 0
1, 219136, Control_c, 0, 64, 67
1, 219151, Control_c, 0, 64, 84
1, 219166, Note_on_c, 0, 86, 93
1, 219166, Control_c, 0, 64, 127
1, 219203, Note_off_c, 0, 72, 58
1, 219205, Note_off_c, 0, 66, 59
1, 219234, Note_on_c, 0, 74, 88
1, 219270, Control_c, 0, 64, 85
1, 219283, Note_off_c, 0, 74, 67
1, 219285, Control_c, 0, 64, 54
1, 219300, Control_c, 0, 64, 0
1, 219302, Note_off_c, 0, 86, 67
1, 219306, Note_on_c, 0, 67, 83
1, 219309, Note_on_c, 0, 71, 83
1, 219344, Control_c, 0, 64, 41
1, 219359, Control_c, 0, 64, 69
1, 219373, Control_c, 0, 64, 90
1, 219389, Control_c, 0, 64, 127
1, 219426, Note_on_c, 0, 89, 100
1, 219441, Note_off_c, 0, 67, 60
1, 219464, Note_off_c, 0, 71, 63
1, 219497, Note_on_c, 0, 77, 84
1, 219546, Control_c, 0, 64, 95
1, 219560, Control_c, 0, 64, 67
1, 219572, Note_on_c, 0, 68, 80
1, 219572, Note_on_c, 0, 74, 88
1, 219575, Control_c, 0, 64, 0
1, 219577, Note_off_c, 0, 89, 57
1, 219578, Note_off_c, 0, 77, 59
1, 219619, Control_c, 0, 64, 60
1, 219634, Control_c, 0, 64, 74
1, 219649, Control_c, 0, 64, 95
1, 219664, Control_c, 0, 64, 127
1, 219688, Note_on_c, 0, 88, 100
1, 219705, Note_off_c, 0, 68, 59
1, 219712, Note_off_c, 0, 74, 63
1, 219763, Note_on_c, 0, 76, 88
1, 219797, Control_c, 0, 64, 117
1, 219804, Poly_aftertouch_c, 0, 82, 127
1, 219812, Control_c, 0, 64, 76
1, 219816, Note_off_c, 0, 76, 66
1, 219827, Control_c, 0, 64, 0
1, 219831, Note_off_c, 0, 88, 60
1, 219833, Note_on_c, 0, 73, 90
1, 219837, Note_on_c, 0, 69, 85
1, 219843, Poly_aftertouch_c, 0, 82, 0
1, 219871, Control_c, 0, 64, 36
1, 219886, Control_c, 0, 64, 67
1, 219901, Control_c, 0, 64, 87
1, 219916, Control_c, 0, 64, 127
1, 219956, Note_on_c, 0, 91, 107
1, 220019, Note_off_c, 0, 69, 56
1, 220038, Note_on_c, 0, 79, 89
1, 220075, Note_off_c, 0, 73, 59
1, 220108, Control_c, 0, 64, 86
1, 220118, Note_on_c, 0, 74, 89
1, 220123, Control_c, 0, 64, 61
1, 220124, Note_on_c, 0, 70, 78
1, 220129, Note_off_c, 0, 79, 57
1, 220135, Note_off_c, 0, 91, 60
1, 220138, Control_c, 0, 64, 0
1, 220190, Control_c, 0, 64, 47
1, 220204, Control_c, 0, 64, 69
1, 220219, Control_c, 0, 64, 85
1, 220234, Control_c, 0, 64, 127
1, 220242, Note_off_c, 0, 74, 63
1, 220242, Note_on_c, 0, 90, 99
1, 220250, Note_off_c, 0, 70, 62
1, 220343, Note_on_c, 0, 78, 88
1, 220404, Note_off_c, 0, 78, 64
1, 220433, Note_off_c, 0, 90, 62
1, 220469, Note_on_c, 0, 63, 82
1, 220478, Note_on_c, 0, 75, 79
1, 220480, Note_on_c, 0, 71, 78
1, 220487, Control_c, 0, 64, 116
1, 220501, Control_c, 0, 64, 84
1, 220516, Control_c, 0, 64, 62
1, 220531, Control_c, 0, 64, 0
1, 220635, Control_c, 0, 64, 56
1, 220650, Control_c, 0, 64, 70
1, 220659, Note_on_c, 0, 93, 99
1, 220665, Control_c, 0, 64, 92
1, 220680, Control_c, 0, 64, 127
1, 220713, Note_off_c, 0, 71, 60
1, 220724, Note_off_c, 0, 75, 62
1, 220774, Note_off_c, 0, 63, 34
1, 220778, Note_on_c, 0, 81, 75
1, 220856, Poly_aftertouch_c, 0, 83, 127
1, 220885, Note_on_c, 0, 64, 74
1, 220885, Note_on_c, 0, 70, 75
1, 220894, Poly_aftertouch_c, 0, 83, 0
1, 220896, Note_on_c, 0, 74, 79
1, 220908, Note_off_c, 0, 93, 59
1, 220909, Note_off_c, 0, 81, 59
1, 220939, Control_c, 0, 64, 95
1, 220953, Control_c, 0, 64, 71
1, 220968, Control_c, 0, 64, 58
1, 220983, Control_c, 0, 64, 62
1, 220998, Control_c, 0, 64, 70
1, 221013, Control_c, 0, 64, 81
1, 221024, Note_off_c, 0, 74, 61
1, 221027, Note_on_c, 0, 91, 96
1, 221027, Control_c, 0, 64, 106
1, 221042, Control_c, 0, 64, 127
1, 221065, Note_off_c, 0, 70, 60
1, 221108, Note_on_c, 0, 79, 84
1, 221108, Note_off_c, 0, 64, 59
1, 221176, Control_c, 0, 64, 99
1, 221181, Note_on_c, 0, 69, 73
1, 221190, Note_on_c, 0, 65, 63
1, 221191, Control_c, 0, 64, 73
1, 221193, Note_on_c, 0, 73, 76
1, 221201, Note_off_c, 0, 91, 62
1, 221205, Note_off_c, 0, 79, 56
1, 221206, Control_c, 0, 64, 26
1, 221221, Control_c, 0, 64, 0
1, 221236, Control_c, 0, 64, 49
1, 221250, Control_c, 0, 64, 68
1, 221265, Control_c, 0, 64, 83
1, 221280, Control_c, 0, 64, 127
1, 221297, Note_on_c, 0, 89, 94
1, 221308, Note_off_c, 0, 69, 60
1, 221322, Note_off_c, 0, 65, 60
1, 221358, Note_off_c, 0, 73, 56
1, 221365, Note_on_c, 0, 77, 84
1, 221428, Control_c, 0, 64, 89
1, 221437, Note_off_c, 0, 77, 61
1, 221443, Note_off_c, 0, 89, 62
1, 221443, Control_c, 0, 64, 65
1, 221443, Note_on_c, 0, 66, 62
1, 221445, Note_on_c, 0, 72, 73
1, 221452, Note_on_c, 0, 68, 67
1, 221458, Control_c, 0, 64, 0
1, 221503, Control_c, 0, 64, 40
1, 221517, Control_c, 0, 64, 72
1, 221532, Control_c, 0, 64, 92
1, 221547, Note_on_c, 0, 87, 90
1, 221547, Control_c, 0, 64, 127
1, 221577, Note_off_c, 0, 72, 60
1, 221614, Note_on_c, 0, 75, 83
1, 221623, Note_off_c, 0, 68, 58
1, 221634, Note_off_c, 0, 66, 33
1, 221673, Control_c, 0, 64, 118
1, 221688, Control_c, 0, 64, 82
1, 221691, Note_off_c, 0, 75, 62
1, 221699, Note_on_c, 0, 71, 73
1, 221703, Control_c, 0, 64, 53
1, 221704, Note_on_c, 0, 67, 64
1, 221706, Note_off_c, 0, 87, 63
1, 221718, Control_c, 0, 64, 0
1, 221808, Note_on_c, 0, 87, 83
1, 221876, Note_on_c, 0, 75, 70
1, 221947, Note_off_c, 0, 71, 61
1, 221949, Note_on_c, 0, 70, 61
1, 221950, Note_on_c, 0, 68, 63
1, 221956, Note_off_c, 0, 67, 59
1, 221968, Note_off_c, 0, 87, 64
1, 221982, Note_off_c, 0, 75, 62
1, 222069, Note_on_c, 0, 86, 71
1, 222136, Note_on_c, 0, 74, 64
1, 222174, Note_off_c, 0, 70, 52
1, 222203, Note_off_c, 0, 86, 54
1, 222206, Note_on_c, 0, 69, 62
1, 222245, Note_off_c, 0, 74, 59
1, 222254, Note_off_c, 0, 68, 56
1, 222311, Control_c, 0, 64, 21
1, 222326, Note_on_c, 0, 84, 62
1, 222326, Control_c, 0, 64, 64
1, 222340, Control_c, 0, 64, 74
1, 222347, Note_off_c, 0, 69, 58
1, 222355, Control_c, 0, 64, 88
1, 222370, Control_c, 0, 64, 127
1, 222409, Note_on_c, 0, 72, 55
1, 222466, Note_off_c, 0, 84, 59
1, 222476, Note_off_c, 0, 72, 62
1, 222510, Note_on_c, 0, 67, 49
1, 222513, Note_on_c, 0, 61, 47
1, 222525, Control_c, 0, 64, 103
1, 222540, Control_c, 0, 64, 80
1, 222555, Control_c, 0, 64, 61
1, 222570, Control_c, 0, 64, 0
1, 222614, Control_c, 0, 64, 30
1, 222629, Note_on_c, 0, 82, 60
1, 222629, Control_c, 0, 64, 63
1, 222644, Control_c, 0, 64, 71
1, 222659, Control_c, 0, 64, 83
1, 222674, Control_c, 0, 64, 97
1, 222689, Control_c, 0, 64, 117
1, 222698, Note_off_c, 0, 61, 37
1, 222704, Control_c, 0, 64, 127
1, 222710, Note_on_c, 0, 70, 52
1, 222790, Note_off_c, 0, 67, 52
1, 222807, Note_on_c, 0, 62, 47
1, 222807, Note_on_c, 0, 65, 47
1, 222808, Control_c, 0, 64, 101
1, 222815, Note_off_c, 0, 82, 38
1, 222822, Control_c, 0, 64, 77
1, 222837, Control_c, 0, 64, 34
1, 222840, Note_off_c, 0, 70, 54
1, 222852, Control_c, 0, 64, 0
1, 222896, Control_c, 0, 64, 29
1, 222911, Control_c, 0, 64, 66
1, 222926, Control_c, 0, 64, 80
1, 222939, Note_on_c, 0, 81, 69
1, 222940, Control_c, 0, 64, 114
1, 222943, Note_off_c, 0, 65, 61
1, 222944, Note_off_c, 0, 62, 60
1, 222955, Control_c, 0, 64, 127
1, 223003, Poly_aftertouch_c, 0, 75, 127
1, 223028, Note_on_c, 0, 69, 63
1, 223064, Note_off_c, 0, 69, 63
1, 223092, Note_off_c, 0, 81, 63
1, 223098, Poly_aftertouch_c, 0, 75, 0
1, 223133, Note_on_c, 0, 65, 72
1, 223148, Note_on_c, 0, 69, 70
1, 223155, Control_c, 0, 64, 98
1, 223170, Control_c, 0, 64, 79
1, 223185, Control_c, 0, 64, 62
1, 223200, Control_c, 0, 64, 0
1, 223277, Note_on_c, 0, 86, 81
1, 223282, Note_on_c, 0, 81, 82
1, 223348, Control_c, 0, 64, 57
1, 223363, Control_c, 0, 64, 67
1, 223378, Control_c, 0, 64, 73
1, 223387, Note_on_c, 0, 77, 80
1, 223393, Control_c, 0, 64, 80
1, 223408, Control_c, 0, 64, 87
1, 223422, Control_c, 0, 64, 90
1, 223449, Note_off_c, 0, 81, 62
1, 223452, Control_c, 0, 64, 90
1, 223462, Note_off_c, 0, 77, 63
1, 223467, Control_c, 0, 64, 85
1, 223473, Note_off_c, 0, 86, 65
1, 223478, Note_on_c, 0, 70, 77
1, 223482, Control_c, 0, 64, 74
1, 223484, Note_on_c, 0, 67, 70
1, 223497, Note_off_c, 0, 69, 49
1, 223497, Control_c, 0, 64, 53
1, 223512, Control_c, 0, 64, 0
1, 223533, Note_off_c, 0, 65, 51
1, 223577, Note_on_c, 0, 86, 85
1, 223587, Note_on_c, 0, 79, 84
1, 223661, Note_on_c, 0, 77, 78
1, 223709, Note_off_c, 0, 79, 56
1, 223736, Note_off_c, 0, 86, 63
1, 223744, Note_off_c, 0, 77, 62
1, 223745, Note_on_c, 0, 69, 72
1, 223751, Note_on_c, 0, 72, 70
1, 223755, Note_off_c, 0, 67, 54
1, 223764, Note_off_c, 0, 70, 60
1, 223852, Note_on_c, 0, 84, 66
1, 223863, Note_on_c, 0, 79, 57
1, 223882, Note_off_c, 0, 72, 60
1, 223937, Note_on_c, 0, 76, 64
1, 223966, Note_off_c, 0, 79, 55
1, 223968, Note_off_c, 0, 84, 57
1, 223998, Note_off_c, 0, 76, 60
1, 224028, Note_off_c, 0, 69, 58
1, 224031, Note_on_c, 0, 70, 65
1, 224037, Note_on_c, 0, 74, 67
1, 224052, Control_c, 0, 64, 66
1, 224067, Control_c, 0, 64, 82
1, 224082, Control_c, 0, 64, 127
1, 224099, Note_off_c, 0, 70, 63
1, 224121, Note_off_c, 0, 74, 62
1, 224122, Note_on_c, 0, 86, 71
1, 224131, Note_on_c, 0, 77, 71
1, 224204, Note_off_c, 0, 86, 59
1, 224208, Note_on_c, 0, 74, 79
1, 224231, Note_off_c, 0, 77, 61
1, 224241, Note_off_c, 0, 74, 63
1, 224260, Control_c, 0, 64, 116
1, 224275, Note_on_c, 0, 64, 75
1, 224275, Note_on_c, 0, 60, 76
1, 224275, Control_c, 0, 64, 80
1, 224290, Control_c, 0, 64, 44
1, 224305, Control_c, 0, 64, 0
1, 224377, Note_on_c, 0, 81, 83
1, 224382, Note_on_c, 0, 76, 82
1, 224453, Note_on_c, 0, 72, 78
1, 224509, Note_off_c, 0, 76, 62
1, 224532, Note_off_c, 0, 72, 65
1, 224535, Note_on_c, 0, 62, 73
1, 224535, Note_on_c, 0, 65, 78
1, 224535, Note_off_c, 0, 81, 63
1, 224567, Note_off_c, 0, 64, 63
1, 224591, Note_off_c, 0, 60, 58
1, 224642, Note_on_c, 0, 81, 83
1, 224651, Note_on_c, 0, 74, 82
1, 224715, Note_on_c, 0, 72, 68
1, 224728, Note_off_c, 0, 74, 57
1, 224775, Note_off_c, 0, 81, 62
1, 224783, Note_off_c, 0, 72, 62
1, 224793, Note_off_c, 0, 65, 62
1, 224796, Note_on_c, 0, 67, 72
1, 224797, Note_on_c, 0, 64, 66
1, 224809, Note_off_c, 0, 62, 53
1, 224908, Note_on_c, 0, 79, 64
1, 224911, Note_on_c, 0, 74, 65
1, 224916, Note_off_c, 0, 67, 61
1, 224982, Note_off_c, 0, 74, 65
1, 224982, Note_on_c, 0, 70, 70
1, 225036, Note_off_c, 0, 79, 60
1, 225040, Note_off_c, 0, 70, 60
1, 225081, Note_on_c, 0, 69, 67
1, 225082, Note_on_c, 0, 65, 69
1, 225110, Note_off_c, 0, 64, 39
1, 225128, Control_c, 0, 64, 50
1, 225143, Control_c, 0, 64, 70
1, 225157, Note_off_c, 0, 69, 63
1, 225158, Control_c, 0, 64, 88
1, 225172, Control_c, 0, 64, 127
1, 225184, Note_off_c, 0, 65, 64
1, 225188, Note_on_c, 0, 81, 77
1, 225198, Note_on_c, 0, 72, 66
1, 225278, Note_on_c, 0, 69, 75
1, 225316, Note_off_c, 0, 81, 47
1, 225364, Note_on_c, 0, 60, 80
1, 225365, Control_c, 0, 64, 97
1, 225366, Note_on_c, 0, 57, 77
1, 225368, Note_off_c, 0, 69, 60
1, 225372, Note_off_c, 0, 72, 60
1, 225381, Control_c, 0, 64, 72
1, 225403, Control_c, 0, 64, 0
1, 225513, Note_on_c, 0, 72, 74
1, 225513, Note_on_c, 0, 77, 76
1, 225603, Note_on_c, 0, 69, 77
1, 225634, Note_off_c, 0, 72, 59
1, 225676, Note_off_c, 0, 57, 60
1, 225691, Note_on_c, 0, 62, 75
1, 225691, Note_off_c, 0, 77, 60
1, 225692, Note_on_c, 0, 58, 71
1, 225715, Control_c, 0, 64, 14
1, 225715, Note_off_c, 0, 69, 60
1, 225726, Note_off_c, 0, 60, 61
1, 225730, Control_c, 0, 64, 67
1, 225744, Control_c, 0, 64, 81
1, 225759, Control_c, 0, 64, 113
1, 225774, Control_c, 0, 64, 127
1, 225795, Note_off_c, 0, 62, 61
1, 225810, Note_off_c, 0, 58, 62
1, 225821, Note_on_c, 0, 77, 79
1, 225825, Note_on_c, 0, 70, 76
1, 225892, Note_on_c, 0, 69, 83
1, 225923, Control_c, 0, 64, 108
1, 225929, Note_off_c, 0, 70, 58
1, 225938, Note_off_c, 0, 77, 59
1, 225938, Control_c, 0, 64, 80
1, 225953, Control_c, 0, 64, 44
1, 225956, Note_on_c, 0, 58, 82
1, 225957, Note_on_c, 0, 55, 79
1, 225966, Note_off_c, 0, 69, 62
1, 225967, Control_c, 0, 64, 0
1, 226079, Note_on_c, 0, 76, 84
1, 226084, Note_on_c, 0, 70, 81
1, 226165, Note_on_c, 0, 67, 77
1, 226182, Note_off_c, 0, 55, 56
1, 226186, Note_off_c, 0, 70, 60
1, 226219, Note_on_c, 0, 57, 72
1, 226219, Note_off_c, 0, 58, 60
1, 226220, Note_on_c, 0, 60, 75
1, 226227, Control_c, 0, 64, 73
1, 226240, Note_off_c, 0, 76, 58
1, 226241, Control_c, 0, 64, 95
1, 226243, Note_off_c, 0, 67, 61
1, 226256, Control_c, 0, 64, 127
1, 226267, Note_off_c, 0, 60, 62
1, 226278, Note_off_c, 0, 57, 64
1, 226331, Note_on_c, 0, 76, 88
1, 226345, Note_on_c, 0, 69, 69
1, 226400, Note_on_c, 0, 67, 80
1, 226422, Note_off_c, 0, 69, 46
1, 226452, Note_off_c, 0, 76, 61
1, 226463, Control_c, 0, 64, 82
1, 226464, Note_off_c, 0, 67, 61
1, 226476, Note_on_c, 0, 41, 76
1, 226478, Note_on_c, 0, 53, 83
1, 226478, Note_on_c, 0, 45, 77
1, 226478, Control_c, 0, 64, 0
1, 226567, Control_c, 0, 64, 63
1, 226580, Note_on_c, 0, 74, 85
1, 226582, Control_c, 0, 64, 77
1, 226585, Note_on_c, 0, 69, 82
1, 226597, Control_c, 0, 64, 102
1, 226612, Control_c, 0, 64, 127
1, 226614, Note_off_c, 0, 41, 58
1, 226632, Note_off_c, 0, 53, 64
1, 226637, Note_off_c, 0, 45, 63
1, 226662, Note_on_c, 0, 65, 80
1, 226719, Note_off_c, 0, 69, 62
1, 226735, Note_off_c, 0, 65, 65
1, 226741, Note_on_c, 0, 55, 90
1, 226741, Note_off_c, 0, 74, 64
1, 226742, Note_on_c, 0, 46, 83
1, 226743, Note_on_c, 0, 43, 83
1, 226761, Control_c, 0, 64, 110
1, 226776, Control_c, 0, 64, 76
1, 226790, Control_c, 0, 64, 0
1, 226850, Control_c, 0, 64, 62
1, 226863, Note_on_c, 0, 74, 92
1, 226864, Control_c, 0, 64, 77
1, 226865, Note_on_c, 0, 67, 91
1, 226870, Note_off_c, 0, 46, 60
1, 226878, Control_c, 0, 64, 115
1, 226880, Note_off_c, 0, 43, 62
1, 226901, Control_c, 0, 64, 127
1, 226912, Note_off_c, 0, 55, 62
1, 226961, Note_on_c, 0, 64, 77
1, 226990, Note_on_c, 0, 65, 41
1, 227003, Note_off_c, 0, 67, 61
1, 227026, Note_off_c, 0, 65, 34
1, 227043, Note_on_c, 0, 57, 91
1, 227044, Note_on_c, 0, 45, 81
1, 227046, Note_on_c, 0, 48, 85
1, 227060, Note_off_c, 0, 64, 61
1, 227063, Control_c, 0, 64, 88
1, 227064, Note_off_c, 0, 74, 60
1, 227078, Control_c, 0, 64, 61
1, 227093, Control_c, 0, 64, 0
1, 227137, Control_c, 0, 64, 60
1, 227152, Control_c, 0, 64, 77
1, 227167, Control_c, 0, 64, 127
1, 227170, Note_off_c, 0, 57, 62
1, 227179, Note_on_c, 0, 72, 89
1, 227188, Note_on_c, 0, 65, 80
1, 227196, Note_off_c, 0, 48, 63
1, 227209, Note_off_c, 0, 45, 64
1, 227279, Note_on_c, 0, 62, 86
1, 227288, Note_off_c, 0, 65, 61
1, 227365, Note_off_c, 0, 62, 55
1, 227393, Note_off_c, 0, 72, 56
1, 227404, Control_c, 0, 64, 84
1, 227419, Note_on_c, 0, 34, 80
1, 227419, Control_c, 0, 64, 30
1, 227420, Note_on_c, 0, 41, 89
1, 227434, Control_c, 0, 64, 0
1, 227568, Note_on_c, 0, 62, 76
1, 227568, Control_c, 0, 64, 59
1, 227583, Control_c, 0, 64, 76
1, 227598, Control_c, 0, 64, 99
1, 227612, Control_c, 0, 64, 127
1, 227621, Note_off_c, 0, 34, 58
1, 227640, Note_off_c, 0, 41, 61
1, 227647, Note_on_c, 0, 65, 79
1, 227721, Note_off_c, 0, 62, 49
1, 227749, Note_on_c, 0, 74, 97
1, 227784, Note_off_c, 0, 65, 62
1, 227976, Note_on_c, 0, 58, 78
1, 227978, Note_on_c, 0, 53, 71
1, 227980, Note_on_c, 0, 50, 72
1, 228144, Note_on_c, 0, 72, 80
1, 228230, Note_on_c, 0, 70, 82
1, 228273, Note_off_c, 0, 74, 54
1, 228279, Note_off_c, 0, 58, 60
1, 228306, Note_off_c, 0, 53, 64
1, 228317, Note_off_c, 0, 50, 64
1, 228317, Note_off_c, 0, 72, 60
1, 228318, Note_on_c, 0, 69, 87
1, 228343, Note_off_c, 0, 70, 65
1, 228371, Note_off_c, 0, 69, 67
1, 228471, Note_on_c, 0, 67, 86
1, 228550, Note_on_c, 0, 65, 79
1, 228603, Note_off_c, 0, 67, 56
1, 228631, Note_on_c, 0, 64, 68
1, 228636, Control_c, 0, 64, 89
1, 228636, Note_on_c, 0, 61, 77
1, 228639, Note_on_c, 0, 41, 82
1, 228651, Control_c, 0, 64, 0
1, 228659, Note_off_c, 0, 65, 58
1, 228785, Note_off_c, 0, 64, 58
1, 228794, Note_on_c, 0, 65, 80
1, 228815, Note_off_c, 0, 61, 62
1, 228881, Note_on_c, 0, 64, 82
1, 228934, Note_off_c, 0, 65, 62
1, 228992, Note_off_c, 0, 64, 66
1, 229012, Note_on_c, 0, 34, 81
1, 229066, Control_c, 0, 64, 47
1, 229081, Control_c, 0, 64, 70
1, 229096, Control_c, 0, 64, 95
1, 229111, Control_c, 0, 64, 127
1, 229192, Note_off_c, 0, 41, 62
1, 229198, Note_off_c, 0, 34, 60
1, 229233, Note_on_c, 0, 62, 80
1, 229453, Note_on_c, 0, 53, 65
1, 229456, Note_on_c, 0, 50, 64
1, 229617, Note_on_c, 0, 60, 70
1, 229704, Note_on_c, 0, 58, 74
1, 229756, Note_off_c, 0, 53, 62
1, 229770, Note_off_c, 0, 62, 35
1, 229790, Note_on_c, 0, 57, 75
1, 229798, Note_off_c, 0, 50, 64
1, 229813, Note_off_c, 0, 60, 52
1, 229829, Control_c, 0, 64, 89
1, 229844, Control_c, 0, 64, 65
1, 229860, Control_c, 0, 64, 0
1, 229861, Note_off_c, 0, 58, 54
1, 229964, Note_off_c, 0, 57, 61
1, 229968, Note_on_c, 0, 55, 70
1, 230053, Note_on_c, 0, 53, 72
1, 230083, Note_off_c, 0, 55, 61
1, 230144, Note_on_c, 0, 52, 66
1, 230158, Note_off_c, 0, 53, 65
1, 230172, Note_on_c, 0, 49, 49
1, 230180, Note_on_c, 0, 41, 44
1, 230189, Note_on_c, 0, 45, 41
1, 230221, Control_c, 0, 67, 8
1, 230236, Control_c, 0, 67, 8
1, 230251, Control_c, 0, 67, 9
1, 230266, Control_c, 0, 67, 10
1, 230280, Control_c, 0, 67, 11
1, 230295, Control_c, 0, 67, 13
1, 230310, Control_c, 0, 67, 16
1, 230325, Control_c, 0, 67, 19
1, 230339, Control_c, 0, 67, 22
1, 230354, Control_c, 0, 67, 25
1, 230362, Note_off_c, 0, 52, 62
1, 230364, Note_on_c, 0, 53, 63
1, 230369, Control_c, 0, 67, 28
1, 230384, Control_c, 0, 67, 31
1, 230399, Control_c, 0, 67, 34
1, 230413, Control_c, 0, 67, 36
1, 230428, Control_c, 0, 67, 38
1, 230443, Control_c, 0, 67, 41
1, 230458, Control_c, 0, 67, 42
1, 230461, Note_on_c, 0, 52, 60
1, 230469, Note_off_c, 0, 53, 63
1, 230473, Control_c, 0, 67, 45
1, 230487, Control_c, 0, 67, 48
1, 230502, Control_c, 0, 67, 50
1, 230517, Control_c, 0, 67, 52
1, 230532, Control_c, 0, 67, 54
1, 230547, Control_c, 0, 67, 57
1, 230562, Control_c, 0, 67, 61
1, 230577, Control_c, 0, 67, 64
1, 230592, Control_c, 0, 67, 68
1, 230602, Note_off_c, 0, 52, 60
1, 230604, Note_on_c, 0, 50, 55
1, 230606, Control_c, 0, 67, 71
1, 230613, Note_on_c, 0, 46, 51
1, 230621, Control_c, 0, 67, 74
1, 230635, Note_off_c, 0, 45, 43
1, 230643, Control_c, 0, 67, 76
1, 230645, Note_off_c, 0, 49, 49
1, 230659, Control_c, 0, 67, 79
1, 230670, Note_off_c, 0, 41, 40
1, 230674, Control_c, 0, 67, 81
1, 230689, Control_c, 0, 64, 28
1, 230689, Control_c, 0, 67, 83
1, 230704, Control_c, 0, 64, 63
1, 230704, Control_c, 0, 67, 84
1, 230718, Control_c, 0, 64, 72
1, 230718, Control_c, 0, 67, 85
1, 230733, Control_c, 0, 64, 82
1, 230733, Control_c, 0, 67, 86
1, 230748, Control_c, 0, 64, 106
1, 230748, Control_c, 0, 67, 88
1, 230762, Control_c, 0, 64, 127
1, 230762, Control_c, 0, 67, 90
1, 230777, Control_c, 0, 67, 91
1, 230792, Control_c, 0, 67, 93
1, 230807, Control_c, 0, 67, 93
1, 230810, Note_off_c, 0, 46, 61
1, 230822, Control_c, 0, 67, 94
1, 230826, Note_off_c, 0, 50, 64
1, 230829, Note_on_c, 0, 52, 64
1, 230851, Control_c, 0, 67, 95
1, 230896, Control_c, 0, 67, 95
1, 230911, Note_on_c, 0, 53, 72
1, 230925, Note_off_c, 0, 52, 62
1, 230955, Control_c, 0, 64, 99
1, 230963, Note_off_c, 0, 53, 64
1, 230970, Control_c, 0, 64, 76
1, 230985, Control_c, 0, 64, 0
1, 230998, Note_on_c, 0, 55, 69
1, 231006, Note_on_c, 0, 52, 59
1, 231059, Control_c, 0, 67, 95
1, 231074, Control_c, 0, 67, 94
1, 231089, Control_c, 0, 67, 93
1, 231103, Control_c, 0, 67, 92
1, 231118, Control_c, 0, 67, 91
1, 231133, Control_c, 0, 67, 90
1, 231148, Control_c, 0, 67, 88
1, 231162, Control_c, 0, 67, 87
1, 231177, Control_c, 0, 67, 85
1, 231179, Note_on_c, 0, 57, 61
1, 231192, Control_c, 0, 67, 83
1, 231207, Control_c, 0, 67, 81
1, 231222, Control_c, 0, 67, 77
1, 231236, Control_c, 0, 67, 73
1, 231251, Control_c, 0, 67, 67
1, 231254, Note_on_c, 0, 58, 64
1, 231266, Control_c, 0, 67, 60
1, 231269, Note_off_c, 0, 57, 62
1, 231280, Control_c, 0, 67, 52
1, 231295, Control_c, 0, 67, 44
1, 231310, Note_off_c, 0, 58, 63
1, 231310, Control_c, 0, 67, 36
1, 231325, Control_c, 0, 67, 28
1, 231340, Control_c, 0, 67, 19
1, 231355, Control_c, 0, 67, 12
1, 231358, Note_off_c, 0, 52, 58
1, 231366, Note_on_c, 0, 53, 54
1, 231366, Note_off_c, 0, 55, 60
1, 231370, Control_c, 0, 67, 0
1, 231371, Note_on_c, 0, 57, 54
1, 231527, Control_c, 0, 64, 51
1, 231541, Control_c, 0, 64, 64
1, 231556, Control_c, 0, 64, 69
1, 231571, Note_off_c, 0, 53, 64
1, 231571, Control_c, 0, 64, 75
1, 231585, Control_c, 0, 64, 83
1, 231600, Control_c, 0, 64, 98
1, 231601, Note_on_c, 0, 61, 52
1, 231606, Note_off_c, 0, 57, 61
1, 231615, Control_c, 0, 64, 127
1, 231704, Note_on_c, 0, 64, 49
1, 231741, Note_off_c, 0, 61, 36
1, 231783, Note_off_c, 0, 64, 62
1, 231866, Note_on_c, 0, 62, 45
1, 231871, Note_on_c, 0, 58, 44
1, 231878, Note_on_c, 0, 55, 39
1, 231882, Control_c, 0, 64, 97
1, 231897, Control_c, 0, 64, 78
1, 231911, Control_c, 0, 64, 62
1, 231926, Control_c, 0, 64, 0
1, 232146, Note_on_c, 0, 64, 44
1, 232299, Note_on_c, 0, 67, 41
1, 232369, Note_off_c, 0, 64, 37
1, 232502, Note_on_c, 0, 65, 41
1, 232533, Note_off_c, 0, 67, 55
1, 232535, Note_off_c, 0, 55, 41
1, 232536, Note_on_c, 0, 57, 24
1, 232547, Note_off_c, 0, 58, 36
1, 232986, Note_on_c, 0, 67, 37
1, 233179, Note_on_c, 0, 70, 39
1, 233201, Note_off_c, 0, 67, 45
1, 233424, Note_off_c, 0, 70, 53
1, 233425, Note_on_c, 0, 69, 36
1, 234134, Note_off_c, 0, 62, 60
1, 234141, Note_off_c, 0, 69, 61
1, 234148, Note_off_c, 0, 57, 56
1, 234150, Note_off_c, 0, 65, 58
1, 234483, Note_on_c, 0, 73, 82
1, 234488, Note_on_c, 0, 69, 78
1, 234494, Note_on_c, 0, 64, 69
1, 234501, Note_on_c, 0, 45, 66
1, 234501, Note_on_c, 0, 57, 64
1, 234571, Note_off_c, 0, 64, 58
1, 234699, Note_on_c, 0, 74, 81
1, 234702, Note_off_c, 0, 45, 62
1, 234709, Note_on_c, 0, 65, 65
1, 234715, Note_on_c, 0, 50, 62
1, 234720, Note_off_c, 0, 73, 61
1, 235716, Control_c, 0, 64, 40
1, 235731, Control_c, 0, 64, 51
1, 235745, Control_c, 0, 64, 57
1, 235760, Control_c, 0, 64, 61
1, 235775, Control_c, 0, 64, 64
1, 235790, Control_c, 0, 64, 67
1, 235805, Control_c, 0, 64, 69
1, 235819, Control_c, 0, 64, 71
1, 235834, Control_c, 0, 64, 74
1, 235849, Control_c, 0, 64, 78
1, 235864, Control_c, 0, 64, 84
1, 235886, Control_c, 0, 64, 90
1, 235901, Control_c, 0, 64, 97
1, 235916, Control_c, 0, 64, 104
1, 235931, Control_c, 0, 64, 116
1, 235945, Control_c, 0, 64, 127
1, 236241, Note_off_c, 0, 69, 36
1, 236269, Note_off_c, 0, 74, 40
1, 236327, Note_off_c, 0, 65, 60
1, 236342, Note_off_c, 0, 57, 32
1, 236422, Note_off_c, 0, 50, 37
1, 236554, Control_c, 0, 64, 112
1, 236568, Control_c, 0, 64, 91
1, 236583, Control_c, 0, 64, 76
1, 236598, Control_c, 0, 64, 61
1, 236613, Control_c, 0, 64, 0
1, 236743, Note_on_c, 0, 61, 89
1, 236751, Note_on_c, 0, 57, 80
1, 236755, Note_on_c, 0, 52, 73
1, 236756, Note_on_c, 0, 45, 70
1, 236768, Control_c, 0, 64, 67
1, 236783, Control_c, 0, 64, 84
1, 236798, Control_c, 0, 64, 127
1, 236869, Note_off_c, 0, 57, 55
1, 236905, Note_off_c, 0, 61, 58
1, 236946, Note_off_c, 0, 45, 59
1, 237066, Control_c, 0, 64, 94
1, 237080, Control_c, 0, 64, 70
1, 237085, Note_on_c, 0, 62, 83
1, 237095, Control_c, 0, 64, 0
1, 237104, Note_on_c, 0, 53, 74
1, 237120, Note_off_c, 0, 52, 59
1, 237184, Control_c, 0, 64, 44
1, 237198, Control_c, 0, 64, 70
1, 237213, Control_c, 0, 64, 87
1, 237228, Control_c, 0, 64, 127
1, 237278, Note_off_c, 0, 53, 59
1, 237363, Note_on_c, 0, 57, 29
1, 237468, Note_off_c, 0, 57, 37
1, 237516, Note_on_c, 0, 38, 32
1, 237535, Note_on_c, 0, 45, 31
1, 237586, Note_off_c, 0, 45, 53
1, 237596, Note_off_c, 0, 38, 39
1, 237640, Note_on_c, 0, 57, 31
1, 237702, Note_off_c, 0, 57, 43
1, 237750, Note_on_c, 0, 52, 57
1, 237768, Control_c, 0, 64, 110
1, 237783, Control_c, 0, 64, 84
1, 237783, Control_c, 0, 67, 8
1, 237797, Control_c, 0, 64, 65
1, 237797, Control_c, 0, 67, 10
1, 237806, Note_off_c, 0, 52, 56
1, 237812, Control_c, 0, 64, 0
1, 237812, Control_c, 0, 67, 11
1, 237827, Control_c, 0, 67, 13
1, 237843, Control_c, 0, 67, 16
1, 237847, Note_on_c, 0, 57, 29
1, 237853, Note_on_c, 0, 55, 36
1, 237858, Control_c, 0, 67, 19
1, 237873, Control_c, 0, 67, 23
1, 237888, Control_c, 0, 67, 26
1, 237893, Note_off_c, 0, 55, 50
1, 237902, Note_off_c, 0, 57, 44
1, 237902, Control_c, 0, 67, 29
1, 237917, Control_c, 0, 67, 32
1, 237932, Control_c, 0, 67, 35
1, 237946, Control_c, 0, 67, 37
1, 237950, Note_on_c, 0, 38, 35
1, 237961, Control_c, 0, 67, 40
1, 237975, Note_on_c, 0, 45, 15
1, 237976, Control_c, 0, 67, 44
1, 237991, Control_c, 0, 67, 46
1, 238000, Note_off_c, 0, 38, 48
1, 238006, Control_c, 0, 67, 49
1, 238014, Note_on_c, 0, 55, 45
1, 238020, Note_on_c, 0, 57, 37
1, 238020, Control_c, 0, 67, 52
1, 238026, Note_off_c, 0, 45, 49
1, 238035, Control_c, 0, 67, 56
1, 238050, Control_c, 0, 67, 60
1, 238057, Note_off_c, 0, 55, 60
1, 238059, Note_off_c, 0, 57, 51
1, 238065, Control_c, 0, 67, 65
1, 238080, Control_c, 0, 67, 70
1, 238095, Control_c, 0, 67, 76
1, 238105, Note_on_c, 0, 50, 55
1, 238110, Control_c, 0, 67, 81
1, 238133, Control_c, 0, 67, 88
1, 238147, Control_c, 0, 67, 95
1, 238162, Control_c, 0, 67, 100
1, 238165, Note_off_c, 0, 50, 61
1, 238177, Control_c, 0, 67, 104
1, 238185, Note_on_c, 0, 57, 24
1, 238192, Control_c, 0, 67, 105
1, 238193, Note_on_c, 0, 53, 39
1, 238207, Control_c, 0, 67, 106
1, 238221, Control_c, 0, 67, 107
1, 238225, Note_off_c, 0, 53, 56
1, 238236, Control_c, 0, 67, 107
1, 238238, Note_off_c, 0, 57, 47
1, 238251, Control_c, 0, 67, 108
1, 238262, Note_on_c, 0, 38, 44
1, 238266, Control_c, 0, 67, 109
1, 238271, Note_on_c, 0, 45, 43
1, 238280, Control_c, 0, 67, 110
1, 238295, Control_c, 0, 67, 110
1, 238298, Note_off_c, 0, 38, 52
1, 238307, Note_off_c, 0, 45, 54
1, 238310, Control_c, 0, 67, 111
1, 238325, Control_c, 0, 67, 112
1, 238337, Note_on_c, 0, 57, 46
1, 238339, Note_on_c, 0, 53, 40
1, 238340, Control_c, 0, 67, 114
1, 238354, Control_c, 0, 67, 115
1, 238369, Control_c, 0, 67, 118
1, 238376, Note_off_c, 0, 53, 61
1, 238384, Control_c, 0, 67, 121
1, 238393, Note_off_c, 0, 57, 57
1, 238399, Control_c, 0, 67, 124
1, 238412, Note_on_c, 0, 52, 63
1, 238414, Control_c, 0, 67, 126
1, 238429, Control_c, 0, 67, 127
1, 238456, Note_off_c, 0, 52, 60
1, 238491, Note_on_c, 0, 55, 52
1, 238500, Note_on_c, 0, 57, 39
1, 238522, Note_off_c, 0, 55, 62
1, 238533, Note_off_c, 0, 57, 55
1, 238548, Note_on_c, 0, 38, 51
1, 238560, Note_on_c, 0, 45, 52
1, 238579, Note_off_c, 0, 38, 62
1, 238604, Note_off_c, 0, 45, 58
1, 238625, Note_on_c, 0, 57, 53
1, 238628, Note_on_c, 0, 55, 52
1, 238661, Note_off_c, 0, 55, 65
1, 238681, Note_off_c, 0, 57, 56
1, 238698, Note_on_c, 0, 49, 79
1, 238744, Note_off_c, 0, 49, 61
1, 238780, Note_on_c, 0, 57, 61
1, 238793, Note_off_c, 0, 62, 39
1, 238798, Note_on_c, 0, 52, 49
1, 238824, Note_off_c, 0, 57, 59
1, 238829, Note_off_c, 0, 52, 53
1, 238839, Note_on_c, 0, 38, 44
1, 238846, Note_on_c, 0, 45, 54
1, 238879, Note_off_c, 0, 38, 54
1, 238899, Note_off_c, 0, 45, 59
1, 238911, Control_c, 0, 67, 127
1, 238912, Note_on_c, 0, 52, 62
1, 238926, Control_c, 0, 67, 126
1, 238929, Note_on_c, 0, 57, 55
1, 238956, Note_off_c, 0, 52, 60
1, 238971, Note_off_c, 0, 57, 59
1, 238992, Note_on_c, 0, 50, 63
1, 239031, Note_off_c, 0, 50, 64
1, 239073, Note_on_c, 0, 57, 44
1, 239079, Note_on_c, 0, 53, 45
1, 239103, Control_c, 0, 67, 126
1, 239108, Note_off_c, 0, 53, 60
1, 239111, Note_off_c, 0, 57, 60
1, 239119, Note_on_c, 0, 38, 59
1, 239132, Note_on_c, 0, 45, 60
1, 239157, Note_off_c, 0, 38, 62
1, 239172, Note_off_c, 0, 45, 60
1, 239177, Control_c, 0, 67, 125
1, 239195, Note_on_c, 0, 53, 53
1, 239198, Note_on_c, 0, 57, 55
1, 239234, Note_off_c, 0, 53, 61
1, 239237, Control_c, 0, 67, 125
1, 239242, Note_off_c, 0, 57, 58
1, 239266, Control_c, 0, 67, 124
1, 239275, Note_on_c, 0, 52, 63
1, 239296, Control_c, 0, 67, 124
1, 239311, Control_c, 0, 67, 123
1, 239324, Note_off_c, 0, 52, 57
1, 239326, Control_c, 0, 67, 122
1, 239341, Control_c, 0, 67, 121
1, 239352, Note_on_c, 0, 57, 50
1, 239356, Control_c, 0, 67, 120
1, 239358, Note_on_c, 0, 55, 49
1, 239370, Control_c, 0, 67, 119
1, 239385, Control_c, 0, 67, 117
1, 239397, Note_off_c, 0, 57, 61
1, 239400, Control_c, 0, 67, 114
1, 239414, Control_c, 0, 64, 49
1, 239414, Control_c, 0, 67, 110
1, 239418, Note_off_c, 0, 55, 49
1, 239429, Note_on_c, 0, 38, 46
1, 239429, Control_c, 0, 64, 64
1, 239429, Control_c, 0, 67, 106
1, 239445, Control_c, 0, 64, 69
1, 239445, Control_c, 0, 67, 101
1, 239448, Note_on_c, 0, 45, 35
1, 239460, Control_c, 0, 64, 74
1, 239460, Control_c, 0, 67, 94
1, 239475, Control_c, 0, 64, 81
1, 239475, Control_c, 0, 67, 88
1, 239478, Note_off_c, 0, 38, 57
1, 239487, Poly_aftertouch_c, 0, 55, 127
1, 239490, Control_c, 0, 64, 92
1, 239490, Control_c, 0, 67, 81
1, 239499, Note_on_c, 0, 57, 56
1, 239505, Control_c, 0, 64, 107
1, 239505, Control_c, 0, 67, 75
1, 239507, Note_off_c, 0, 45, 59
1, 239519, Control_c, 0, 64, 127
1, 239519, Control_c, 0, 67, 70
1, 239534, Control_c, 0, 67, 65
1, 239549, Control_c, 0, 67, 60
1, 239564, Control_c, 0, 67, 56
1, 239579, Control_c, 0, 67, 52
1, 239593, Control_c, 0, 67, 50
1, 239608, Control_c, 0, 67, 48
1, 239630, Control_c, 0, 67, 46
1, 239638, Note_on_c, 0, 62, 69
1, 239639, Poly_aftertouch_c, 0, 55, 0
1, 239645, Control_c, 0, 67, 43
1, 239660, Control_c, 0, 67, 40
1, 239672, Note_off_c, 0, 57, 36
1, 239675, Control_c, 0, 64, 120
1, 239675, Control_c, 0, 67, 35
1, 239684, Note_on_c, 0, 53, 54
1, 239689, Control_c, 0, 64, 92
1, 239689, Control_c, 0, 67, 31
1, 239704, Control_c, 0, 64, 74
1, 239704, Control_c, 0, 67, 28
1, 239719, Control_c, 0, 64, 55
1, 239719, Control_c, 0, 67, 25
1, 239734, Control_c, 0, 64, 0
1, 239734, Control_c, 0, 67, 21
1, 239749, Control_c, 0, 67, 17
1, 239764, Control_c, 0, 64, 14
1, 239764, Control_c, 0, 67, 12
1, 239779, Control_c, 0, 64, 62
1, 239779, Control_c, 0, 67, 0
1, 239791, Note_on_c, 0, 57, 46
1, 239793, Control_c, 0, 64, 69
1, 239808, Control_c, 0, 64, 77
1, 239823, Control_c, 0, 64, 86
1, 239838, Control_c, 0, 64, 95
1, 239846, Note_off_c, 0, 57, 55
1, 239852, Control_c, 0, 64, 102
1, 239867, Control_c, 0, 64, 113
1, 239882, Control_c, 0, 64, 127
1, 239895, Note_on_c, 0, 45, 47
1, 239928, Note_off_c, 0, 53, 37
1, 239973, Note_on_c, 0, 57, 46
1, 240023, Note_off_c, 0, 45, 0
1, 240074, Poly_aftertouch_c, 0, 45, 0
1, 240083, Note_off_c, 0, 57, 49
1, 240083, Note_on_c, 0, 61, 76
1, 240104, Control_c, 0, 64, 102
1, 240119, Control_c, 0, 64, 84
1, 240121, Note_off_c, 0, 62, 56
1, 240134, Note_on_c, 0, 52, 48
1, 240134, Control_c, 0, 64, 68
1, 240148, Control_c, 0, 64, 0
1, 240193, Control_c, 0, 64, 31
1, 240208, Control_c, 0, 64, 61
1, 240216, Note_on_c, 0, 57, 49
1, 240223, Control_c, 0, 64, 69
1, 240238, Control_c, 0, 64, 79
1, 240253, Control_c, 0, 64, 91
1, 240260, Note_off_c, 0, 57, 60
1, 240268, Control_c, 0, 64, 105
1, 240283, Control_c, 0, 64, 127
1, 240305, Note_on_c, 0, 45, 51
1, 240309, Note_off_c, 0, 52, 46
1, 240351, Note_on_c, 0, 57, 62
1, 240423, Control_c, 0, 64, 99
1, 240428, Note_on_c, 0, 62, 82
1, 240438, Control_c, 0, 64, 76
1, 240450, Note_off_c, 0, 57, 45
1, 240453, Note_off_c, 0, 45, 51
1, 240453, Control_c, 0, 64, 49
1, 240467, Control_c, 0, 64, 0
1, 240468, Note_on_c, 0, 53, 59
1, 240492, Note_off_c, 0, 61, 24
1, 240512, Control_c, 0, 64, 19
1, 240527, Control_c, 0, 64, 65
1, 240542, Control_c, 0, 64, 77
1, 240543, Note_on_c, 0, 57, 65
1, 240557, Control_c, 0, 64, 93
1, 240572, Control_c, 0, 64, 127
1, 240595, Note_off_c, 0, 53, 58
1, 240604, Note_off_c, 0, 57, 57
1, 240616, Note_on_c, 0, 45, 62
1, 240674, Note_on_c, 0, 57, 55
1, 240735, Control_c, 0, 64, 108
1, 240748, Note_on_c, 0, 64, 88
1, 240749, Control_c, 0, 64, 83
1, 240751, Note_off_c, 0, 45, 59
1, 240764, Control_c, 0, 64, 64
1, 240773, Note_on_c, 0, 55, 59
1, 240779, Control_c, 0, 64, 0
1, 240781, Note_off_c, 0, 57, 37
1, 240790, Note_off_c, 0, 62, 54
1, 240853, Control_c, 0, 64, 51
1, 240860, Note_on_c, 0, 57, 57
1, 240867, Control_c, 0, 64, 68
1, 240882, Control_c, 0, 64, 82
1, 240883, Note_off_c, 0, 55, 53
1, 240897, Control_c, 0, 64, 105
1, 240901, Note_off_c, 0, 57, 59
1, 240912, Control_c, 0, 64, 127
1, 240944, Note_on_c, 0, 45, 48
1, 241006, Note_off_c, 0, 45, 52
1, 241008, Note_on_c, 0, 57, 53
1, 241090, Control_c, 0, 64, 126
1, 241105, Control_c, 0, 64, 92
1, 241119, Note_on_c, 0, 65, 67
1, 241121, Note_off_c, 0, 57, 52
1, 241127, Control_c, 0, 64, 73
1, 241142, Control_c, 0, 64, 0
1, 241151, Note_on_c, 0, 56, 53
1, 241175, Note_off_c, 0, 64, 53
1, 241231, Control_c, 0, 64, 60
1, 241245, Control_c, 0, 64, 72
1, 241257, Note_on_c, 0, 57, 53
1, 241260, Note_off_c, 0, 56, 55
1, 241260, Control_c, 0, 64, 83
1, 241275, Control_c, 0, 64, 99
1, 241290, Control_c, 0, 64, 119
1, 241305, Control_c, 0, 64, 127
1, 241319, Note_off_c, 0, 57, 47
1, 241336, Note_on_c, 0, 45, 44
1, 241408, Note_on_c, 0, 57, 56
1, 241466, Note_off_c, 0, 45, 34
1, 241467, Note_off_c, 0, 57, 60
1, 241468, Control_c, 0, 64, 121
1, 241483, Control_c, 0, 64, 108
1, 241497, Control_c, 0, 64, 97
1, 241512, Control_c, 0, 64, 87
1, 241517, Note_on_c, 0, 59, 69
1, 241527, Control_c, 0, 64, 77
1, 241542, Control_c, 0, 64, 65
1, 241557, Control_c, 0, 64, 0
1, 241563, Note_on_c, 0, 53, 47
1, 241587, Note_off_c, 0, 65, 63
1, 241663, Note_on_c, 0, 56, 64
1, 241664, Note_off_c, 0, 53, 57
1, 241721, Note_off_c, 0, 56, 63
1, 241742, Note_on_c, 0, 62, 81
1, 241769, Note_on_c, 0, 45, 50
1, 241816, Note_off_c, 0, 59, 57
1, 241843, Note_on_c, 0, 56, 66
1, 241853, Note_off_c, 0, 45, 49
1, 241894, Note_off_c, 0, 56, 59
1, 241936, Control_c, 0, 67, 8
1, 241937, Note_on_c, 0, 61, 83
1, 241948, Note_on_c, 0, 52, 63
1, 241951, Control_c, 0, 67, 9
1, 241966, Control_c, 0, 67, 11
1, 241981, Control_c, 0, 67, 13
1, 241995, Control_c, 0, 67, 15
1, 242010, Control_c, 0, 67, 17
1, 242025, Control_c, 0, 67, 19
1, 242036, Note_off_c, 0, 52, 54
1, 242040, Control_c, 0, 67, 21
1, 242041, Note_on_c, 0, 57, 64
1, 242055, Control_c, 0, 67, 22
1, 242061, Note_off_c, 0, 62, 45
1, 242069, Control_c, 0, 67, 23
1, 242084, Control_c, 0, 67, 24
1, 242099, Control_c, 0, 67, 24
1, 242105, Note_off_c, 0, 57, 59
1, 242113, Control_c, 0, 67, 25
1, 242126, Note_on_c, 0, 45, 70
1, 242128, Control_c, 0, 67, 25
1, 242143, Control_c, 0, 67, 27
1, 242158, Control_c, 0, 67, 28
1, 242173, Control_c, 0, 67, 30
1, 242187, Note_off_c, 0, 45, 62
1, 242187, Control_c, 0, 67, 33
1, 242202, Control_c, 0, 67, 36
1, 242208, Note_on_c, 0, 57, 76
1, 242217, Control_c, 0, 67, 38
1, 242232, Control_c, 0, 67, 41
1, 242247, Control_c, 0, 67, 43
1, 242262, Control_c, 0, 67, 45
1, 242277, Control_c, 0, 67, 47
1, 242290, Note_off_c, 0, 57, 52
1, 242292, Control_c, 0, 67, 48
1, 242306, Note_on_c, 0, 64, 81
1, 242307, Control_c, 0, 67, 49
1, 242321, Control_c, 0, 67, 50
1, 242322, Note_on_c, 0, 50, 57
1, 242331, Note_on_c, 0, 48, 63
1, 242336, Control_c, 0, 67, 51
1, 242348, Note_off_c, 0, 61, 57
1, 242351, Control_c, 0, 67, 53
1, 242366, Control_c, 0, 67, 54
1, 242366, Note_off_c, 0, 48, 58
1, 242372, Note_off_c, 0, 50, 63
1, 242380, Control_c, 0, 67, 56
1, 242395, Control_c, 0, 67, 57
1, 242410, Control_c, 0, 67, 58
1, 242414, Note_on_c, 0, 55, 61
1, 242417, Note_on_c, 0, 58, 58
1, 242425, Control_c, 0, 67, 60
1, 242439, Control_c, 0, 67, 61
1, 242454, Control_c, 0, 67, 63
1, 242469, Control_c, 0, 67, 65
1, 242475, Note_off_c, 0, 55, 53
1, 242484, Control_c, 0, 67, 67
1, 242485, Note_off_c, 0, 58, 60
1, 242499, Control_c, 0, 67, 69
1, 242500, Note_on_c, 0, 40, 63
1, 242513, Control_c, 0, 67, 72
1, 242528, Control_c, 0, 67, 74
1, 242538, Note_off_c, 0, 40, 66
1, 242543, Control_c, 0, 67, 76
1, 242558, Control_c, 0, 67, 80
1, 242573, Control_c, 0, 67, 82
1, 242587, Control_c, 0, 67, 84
1, 242601, Note_on_c, 0, 58, 56
1, 242602, Control_c, 0, 67, 86
1, 242616, Note_on_c, 0, 55, 51
1, 242624, Control_c, 0, 67, 88
1, 242640, Control_c, 0, 67, 91
1, 242655, Control_c, 0, 67, 93
1, 242669, Control_c, 0, 67, 96
1, 242674, Note_off_c, 0, 55, 55
1, 242684, Note_off_c, 0, 58, 39
1, 242684, Control_c, 0, 67, 97
1, 242699, Control_c, 0, 67, 98
1, 242714, Control_c, 0, 67, 100
1, 242723, Note_on_c, 0, 49, 57
1, 242729, Control_c, 0, 67, 100
1, 242743, Control_c, 0, 67, 101
1, 242758, Control_c, 0, 67, 101
1, 242773, Control_c, 0, 67, 102
1, 242787, Note_off_c, 0, 49, 58
1, 242803, Control_c, 0, 67, 103
1, 242817, Control_c, 0, 67, 103
1, 242828, Note_on_c, 0, 57, 46
1, 242832, Control_c, 0, 67, 104
1, 242834, Note_on_c, 0, 55, 41
1, 242847, Control_c, 0, 67, 105
1, 242861, Control_c, 0, 67, 107
1, 242876, Control_c, 0, 67, 108
1, 242891, Control_c, 0, 67, 109
1, 242897, Note_off_c, 0, 55, 54
1, 242898, Note_off_c, 0, 57, 50
1, 242906, Control_c, 0, 67, 109
1, 242921, Control_c, 0, 67, 110
1, 242936, Control_c, 0, 67, 111
1, 242951, Control_c, 0, 67, 112
1, 242965, Control_c, 0, 67, 114
1, 242968, Note_on_c, 0, 45, 43
1, 242980, Control_c, 0, 67, 116
1, 242995, Control_c, 0, 67, 118
1, 243010, Control_c, 0, 67, 120
1, 243025, Control_c, 0, 67, 122
1, 243040, Control_c, 0, 67, 125
1, 243055, Control_c, 0, 67, 127
1, 243084, Control_c, 0, 64, 52
1, 243088, Note_on_c, 0, 62, 59
1, 243095, Note_on_c, 0, 55, 43
1, 243099, Control_c, 0, 64, 65
1, 243109, Note_on_c, 0, 57, 37
1, 243109, Note_off_c, 0, 45, 35
1, 243114, Control_c, 0, 64, 71
1, 243129, Control_c, 0, 64, 78
1, 243143, Control_c, 0, 64, 87
1, 243158, Control_c, 0, 64, 99
1, 243173, Control_c, 0, 64, 117
1, 243188, Control_c, 0, 64, 127
1, 243193, Note_off_c, 0, 64, 36
1, 243206, Note_off_c, 0, 55, 46
1, 243254, Note_off_c, 0, 57, 48
1, 243258, Note_off_c, 0, 62, 57
1, 243401, Control_c, 0, 64, 99
1, 243410, Note_on_c, 0, 62, 63
1, 243416, Control_c, 0, 64, 79
1, 243431, Control_c, 0, 64, 61
1, 243436, Note_on_c, 0, 53, 51
1, 243447, Control_c, 0, 64, 0
1, 243521, Control_c, 0, 64, 35
1, 243536, Control_c, 0, 64, 64
1, 243551, Control_c, 0, 64, 72
1, 243562, Note_off_c, 0, 53, 60
1, 243565, Control_c, 0, 64, 83
1, 243580, Control_c, 0, 64, 95
1, 243595, Control_c, 0, 64, 105
1, 243610, Control_c, 0, 64, 112
1, 243625, Control_c, 0, 64, 118
1, 243639, Control_c, 0, 64, 127
1, 243649, Note_on_c, 0, 57, 31
1, 243751, Note_off_c, 0, 57, 36
1, 243767, Note_on_c, 0, 38, 41
1, 243775, Note_on_c, 0, 45, 40
1, 243820, Note_off_c, 0, 38, 45
1, 243827, Note_off_c, 0, 45, 56
1, 243884, Note_on_c, 0, 57, 37
1, 243949, Note_off_c, 0, 57, 45
1, 243980, Control_c, 0, 64, 100
1, 243995, Control_c, 0, 64, 79
1, 244007, Note_on_c, 0, 52, 54
1, 244009, Control_c, 0, 64, 57
1, 244024, Control_c, 0, 64, 0
1, 244058, Note_off_c, 0, 52, 60
1, 244096, Note_on_c, 0, 57, 35
1, 244102, Note_on_c, 0, 55, 41
1, 244152, Note_off_c, 0, 57, 48
1, 244153, Note_off_c, 0, 55, 56
1, 244200, Note_on_c, 0, 38, 40
1, 244220, Note_on_c, 0, 45, 37
1, 244243, Note_off_c, 0, 38, 52
1, 244257, Note_off_c, 0, 45, 54
1, 244270, Note_on_c, 0, 55, 47
1, 244270, Note_on_c, 0, 57, 42
1, 244309, Note_off_c, 0, 55, 62
1, 244315, Note_off_c, 0, 57, 52
1, 244365, Note_on_c, 0, 50, 58
1, 244414, Note_off_c, 0, 50, 61
1, 244429, Note_on_c, 0, 57, 43
1, 244444, Note_on_c, 0, 53, 45
1, 244475, Note_off_c, 0, 53, 59
1, 244480, Note_off_c, 0, 57, 54
1, 244530, Note_on_c, 0, 38, 45
1, 244534, Note_on_c, 0, 45, 50
1, 244569, Note_off_c, 0, 38, 50
1, 244573, Note_off_c, 0, 45, 61
1, 244581, Note_on_c, 0, 53, 43
1, 244589, Note_on_c, 0, 57, 42
1, 244617, Note_off_c, 0, 53, 64
1, 244641, Note_off_c, 0, 57, 61
1, 244674, Note_on_c, 0, 52, 65
1, 244715, Note_off_c, 0, 52, 61
1, 244745, Note_on_c, 0, 55, 44
1, 244751, Note_on_c, 0, 57, 43
1, 244781, Note_off_c, 0, 55, 62
1, 244789, Note_off_c, 0, 57, 60
1, 244826, Note_on_c, 0, 45, 55
1, 244827, Note_on_c, 0, 38, 50
1, 244867, Note_off_c, 0, 38, 60
1, 244874, Note_off_c, 0, 45, 60
1, 244889, Note_on_c, 0, 55, 52
1, 244901, Note_on_c, 0, 57, 44
1, 244927, Note_off_c, 0, 55, 63
1, 244943, Note_off_c, 0, 57, 61
1, 244980, Note_on_c, 0, 49, 70
1, 245026, Note_off_c, 0, 49, 61
1, 245058, Note_on_c, 0, 52, 52
1, 245074, Note_on_c, 0, 57, 23
1, 245093, Note_off_c, 0, 52, 62
1, 245113, Note_off_c, 0, 57, 54
1, 245122, Note_on_c, 0, 38, 48
1, 245130, Note_on_c, 0, 45, 54
1, 245157, Note_off_c, 0, 38, 57
1, 245174, Note_off_c, 0, 45, 60
1, 245196, Note_on_c, 0, 57, 52
1, 245198, Note_on_c, 0, 52, 47
1, 245237, Note_off_c, 0, 52, 59
1, 245242, Note_off_c, 0, 57, 59
1, 245271, Note_on_c, 0, 50, 57
1, 245312, Note_off_c, 0, 50, 64
1, 245344, Note_on_c, 0, 57, 52
1, 245386, Note_off_c, 0, 57, 60
1, 245407, Note_on_c, 0, 38, 56
1, 245425, Note_on_c, 0, 45, 54
1, 245449, Note_off_c, 0, 38, 61
1, 245469, Note_off_c, 0, 45, 58
1, 245484, Note_on_c, 0, 57, 51
1, 245525, Note_off_c, 0, 57, 62
1, 245556, Note_on_c, 0, 52, 63
1, 245600, Note_off_c, 0, 52, 60
1, 245635, Note_on_c, 0, 57, 49
1, 245659, Note_on_c, 0, 55, 15
1, 245683, Note_off_c, 0, 57, 59
1, 245704, Note_off_c, 0, 55, 38
1, 245705, Note_on_c, 0, 38, 54
1, 245708, Control_c, 0, 64, 61
1, 245719, Note_on_c, 0, 45, 50
1, 245723, Control_c, 0, 64, 69
1, 245727, Note_off_c, 0, 62, 52
1, 245738, Control_c, 0, 64, 77
1, 245744, Note_off_c, 0, 38, 62
1, 245753, Control_c, 0, 64, 90
1, 245757, Note_off_c, 0, 45, 63
1, 245767, Control_c, 0, 64, 106
1, 245782, Control_c, 0, 64, 127
1, 245787, Note_on_c, 0, 57, 41
1, 245801, Note_on_c, 0, 55, 49
1, 245815, Note_off_c, 0, 57, 60
1, 245908, Note_off_c, 0, 55, 32
1, 245911, Note_on_c, 0, 62, 71
1, 245931, Control_c, 0, 64, 121
1, 245946, Control_c, 0, 64, 88
1, 245951, Note_on_c, 0, 53, 53
1, 245961, Control_c, 0, 64, 71
1, 245976, Control_c, 0, 64, 53
1, 245991, Control_c, 0, 64, 35
1, 246006, Control_c, 0, 64, 59
1, 246021, Control_c, 0, 64, 67
1, 246021, Control_c, 0, 67, 124
1, 246035, Control_c, 0, 64, 74
1, 246035, Control_c, 0, 67, 120
1, 246050, Control_c, 0, 64, 85
1, 246050, Control_c, 0, 67, 115
1, 246065, Control_c, 0, 64, 99
1, 246065, Control_c, 0, 67, 108
1, 246074, Note_on_c, 0, 57, 41
1, 246079, Control_c, 0, 64, 127
1, 246079, Control_c, 0, 67, 101
1, 246094, Control_c, 0, 67, 93
1, 246104, Note_off_c, 0, 57, 53
1, 246109, Control_c, 0, 67, 85
1, 246124, Control_c, 0, 67, 79
1, 246139, Control_c, 0, 67, 74
1, 246143, Note_off_c, 0, 53, 58
1, 246144, Note_on_c, 0, 45, 50
1, 246153, Control_c, 0, 67, 68
1, 246168, Control_c, 0, 67, 64
1, 246183, Control_c, 0, 67, 61
1, 246198, Control_c, 0, 67, 58
1, 246206, Note_off_c, 0, 45, 57
1, 246213, Note_on_c, 0, 57, 44
1, 246213, Control_c, 0, 67, 54
1, 246227, Control_c, 0, 67, 50
1, 246242, Control_c, 0, 67, 46
1, 246257, Control_c, 0, 67, 42
1, 246272, Control_c, 0, 67, 39
1, 246285, Note_off_c, 0, 57, 55
1, 246286, Control_c, 0, 67, 36
1, 246301, Control_c, 0, 67, 32
1, 246316, Control_c, 0, 67, 29
1, 246331, Control_c, 0, 64, 106
1, 246331, Control_c, 0, 67, 24
1, 246333, Note_on_c, 0, 60, 71
1, 246346, Control_c, 0, 64, 88
1, 246346, Control_c, 0, 67, 19
1, 246366, Note_on_c, 0, 52, 53
1, 246368, Control_c, 0, 64, 72
1, 246368, Control_c, 0, 67, 13
1, 246383, Control_c, 0, 64, 27
1, 246383, Control_c, 0, 67, 0
1, 246398, Control_c, 0, 64, 0
1, 246399, Note_off_c, 0, 62, 56
1, 246440, Note_off_c, 0, 52, 52
1, 246483, Note_on_c, 0, 55, 54
1, 246522, Note_off_c, 0, 55, 61
1, 246540, Note_on_c, 0, 46, 48
1, 246578, Note_off_c, 0, 46, 58
1, 246625, Note_on_c, 0, 55, 47
1, 246669, Note_off_c, 0, 55, 60
1, 246695, Note_on_c, 0, 53, 56
1, 246739, Note_off_c, 0, 53, 61
1, 246787, Note_on_c, 0, 57, 42
1, 246823, Note_off_c, 0, 57, 58
1, 246855, Note_on_c, 0, 48, 46
1, 246856, Note_on_c, 0, 45, 48
1, 246893, Note_off_c, 0, 45, 63
1, 246897, Note_off_c, 0, 48, 60
1, 246928, Note_on_c, 0, 57, 48
1, 246975, Note_off_c, 0, 57, 58
1, 246996, Note_on_c, 0, 55, 62
1, 247049, Note_off_c, 0, 55, 57
1, 247065, Control_c, 0, 64, 62
1, 247073, Note_on_c, 0, 58, 66
1, 247080, Control_c, 0, 64, 76
1, 247086, Note_off_c, 0, 60, 63
1, 247095, Control_c, 0, 64, 97
1, 247117, Control_c, 0, 64, 127
1, 247146, Note_off_c, 0, 58, 57
1, 247148, Note_on_c, 0, 48, 59
1, 247151, Note_on_c, 0, 43, 56
1, 247189, Note_off_c, 0, 43, 59
1, 247206, Note_off_c, 0, 48, 59
1, 247212, Note_on_c, 0, 58, 63
1, 247276, Note_off_c, 0, 58, 60
1, 247321, Note_on_c, 0, 65, 82
1, 247333, Note_on_c, 0, 57, 65
1, 247339, Control_c, 0, 64, 92
1, 247354, Control_c, 0, 64, 72
1, 247369, Control_c, 0, 64, 0
1, 247398, Control_c, 0, 64, 21
1, 247400, Note_off_c, 0, 57, 55
1, 247413, Control_c, 0, 64, 63
1, 247429, Control_c, 0, 64, 72
1, 247439, Note_on_c, 0, 60, 58
1, 247444, Control_c, 0, 64, 85
1, 247458, Control_c, 0, 64, 114
1, 247473, Control_c, 0, 64, 127
1, 247504, Note_off_c, 0, 60, 65
1, 247514, Note_on_c, 0, 41, 50
1, 247522, Note_on_c, 0, 48, 54
1, 247555, Note_off_c, 0, 41, 61
1, 247566, Note_off_c, 0, 48, 62
1, 247593, Note_on_c, 0, 60, 71
1, 247648, Note_off_c, 0, 60, 62
1, 247703, Note_on_c, 0, 64, 82
1, 247724, Note_on_c, 0, 56, 69
1, 247740, Control_c, 0, 64, 97
1, 247755, Control_c, 0, 64, 73
1, 247770, Control_c, 0, 64, 0
1, 247809, Note_off_c, 0, 56, 56
1, 247824, Note_off_c, 0, 65, 54
1, 247835, Note_on_c, 0, 59, 57
1, 247891, Note_off_c, 0, 59, 61
1, 247907, Note_on_c, 0, 50, 56
1, 247926, Note_on_c, 0, 52, 39
1, 247960, Note_off_c, 0, 52, 55
1, 247965, Note_off_c, 0, 50, 58
1, 247992, Note_on_c, 0, 59, 62
1, 248028, Note_off_c, 0, 59, 59
1, 248051, Note_on_c, 0, 57, 64
1, 248103, Note_off_c, 0, 57, 57
1, 248119, Note_on_c, 0, 60, 72
1, 248176, Note_off_c, 0, 60, 60
1, 248195, Note_on_c, 0, 52, 69
1, 248200, Note_on_c, 0, 48, 62
1, 248234, Note_off_c, 0, 48, 64
1, 248275, Note_on_c, 0, 60, 68
1, 248318, Note_off_c, 0, 60, 58
1, 248342, Note_on_c, 0, 59, 70
1, 248375, Note_off_c, 0, 52, 25
1, 248391, Note_off_c, 0, 59, 53
1, 248413, Note_on_c, 0, 62, 69
1, 248415, Control_c, 0, 64, 46
1, 248429, Control_c, 0, 64, 66
1, 248438, Note_off_c, 0, 64, 61
1, 248444, Control_c, 0, 64, 75
1, 248459, Control_c, 0, 64, 93
1, 248474, Control_c, 0, 64, 127
1, 248479, Note_on_c, 0, 47, 59
1, 248488, Note_on_c, 0, 52, 61
1, 248489, Note_off_c, 0, 62, 61
1, 248543, Note_on_c, 0, 62, 63
1, 248546, Note_off_c, 0, 47, 63
1, 248569, Note_off_c, 0, 52, 45
1, 248659, Control_c, 0, 64, 102
1, 248664, Note_on_c, 0, 69, 87
1, 248674, Control_c, 0, 64, 79
1, 248683, Note_on_c, 0, 60, 70
1, 248689, Control_c, 0, 64, 61
1, 248704, Control_c, 0, 64, 0
1, 248713, Note_off_c, 0, 62, 60
1, 248733, Control_c, 0, 64, 35
1, 248748, Control_c, 0, 64, 64
1, 248763, Control_c, 0, 64, 73
1, 248766, Note_off_c, 0, 60, 58
1, 248778, Control_c, 0, 64, 85
1, 248793, Control_c, 0, 64, 113
1, 248797, Note_on_c, 0, 64, 69
1, 248807, Control_c, 0, 64, 127
1, 248856, Note_on_c, 0, 52, 41
1, 248874, Note_on_c, 0, 45, 59
1, 248874, Note_off_c, 0, 64, 63
1, 248943, Note_off_c, 0, 45, 60
1, 248963, Note_on_c, 0, 64, 68
1, 248970, Note_off_c, 0, 52, 61
1, 249098, Note_on_c, 0, 68, 86
1, 249102, Note_off_c, 0, 64, 57
1, 249119, Control_c, 0, 64, 101
1, 249132, Note_on_c, 0, 59, 59
1, 249134, Control_c, 0, 64, 81
1, 249139, Note_off_c, 0, 69, 61
1, 249149, Control_c, 0, 64, 62
1, 249164, Control_c, 0, 64, 0
1, 249222, Control_c, 0, 64, 46
1, 249237, Control_c, 0, 64, 67
1, 249246, Note_on_c, 0, 64, 56
1, 249252, Control_c, 0, 64, 80
1, 249267, Control_c, 0, 64, 117
1, 249282, Control_c, 0, 64, 127
1, 249315, Note_off_c, 0, 64, 58
1, 249323, Note_off_c, 0, 59, 53
1, 249331, Note_on_c, 0, 52, 58
1, 249395, Note_off_c, 0, 52, 55
1, 249418, Note_on_c, 0, 64, 56
1, 249437, Note_off_c, 0, 68, 60
1, 249447, Note_off_c, 0, 64, 66
1, 249473, Note_on_c, 0, 69, 87
1, 249485, Note_on_c, 0, 66, 75
1, 249497, Control_c, 0, 64, 94
1, 249502, Note_on_c, 0, 60, 66
1, 249512, Control_c, 0, 64, 75
1, 249526, Control_c, 0, 64, 59
1, 249541, Control_c, 0, 64, 35
1, 249556, Control_c, 0, 64, 63
1, 249571, Control_c, 0, 64, 73
1, 249574, Note_off_c, 0, 66, 51
1, 249583, Note_on_c, 0, 64, 65
1, 249586, Control_c, 0, 64, 87
1, 249601, Control_c, 0, 64, 127
1, 249621, Note_off_c, 0, 60, 52
1, 249639, Note_off_c, 0, 64, 61
1, 249644, Note_on_c, 0, 52, 63
1, 249716, Note_off_c, 0, 52, 50
1, 249724, Note_on_c, 0, 64, 62
1, 249732, Note_off_c, 0, 69, 65
1, 249771, Note_off_c, 0, 64, 60
1, 249778, Control_c, 0, 64, 92
1, 249786, Note_on_c, 0, 71, 95
1, 249793, Control_c, 0, 64, 70
1, 249797, Note_on_c, 0, 68, 81
1, 249800, Note_on_c, 0, 62, 70
1, 249808, Control_c, 0, 64, 0
1, 249839, Control_c, 0, 64, 41
1, 249853, Control_c, 0, 64, 67
1, 249868, Control_c, 0, 64, 84
1, 249883, Control_c, 0, 64, 127
1, 249892, Note_on_c, 0, 64, 75
1, 249894, Note_off_c, 0, 68, 54
1, 249907, Note_off_c, 0, 71, 63
1, 249908, Note_off_c, 0, 62, 55
1, 249947, Note_off_c, 0, 64, 63
1, 249950, Note_on_c, 0, 52, 72
1, 250024, Note_off_c, 0, 52, 59
1, 250028, Note_on_c, 0, 64, 76
1, 250073, Note_off_c, 0, 64, 62
1, 250090, Control_c, 0, 64, 111
1, 250113, Control_c, 0, 64, 81
1, 250114, Note_on_c, 0, 72, 89
1, 250123, Note_on_c, 0, 69, 77
1, 250127, Control_c, 0, 64, 48
1, 250132, Note_on_c, 0, 63, 70
1, 250142, Control_c, 0, 64, 0
1, 250172, Control_c, 0, 64, 61
1, 250187, Control_c, 0, 64, 74
1, 250201, Control_c, 0, 64, 95
1, 250216, Control_c, 0, 64, 127
1, 250221, Note_off_c, 0, 63, 58
1, 250232, Note_on_c, 0, 64, 67
1, 250287, Note_off_c, 0, 64, 63
1, 250296, Note_on_c, 0, 52, 64
1, 250377, Note_on_c, 0, 64, 68
1, 250385, Note_off_c, 0, 52, 53
1, 250403, Note_off_c, 0, 69, 60
1, 250420, Note_off_c, 0, 64, 65
1, 250481, Note_on_c, 0, 66, 85
1, 250510, Note_on_c, 0, 60, 61
1, 250513, Control_c, 0, 64, 94
1, 250513, Note_off_c, 0, 72, 61
1, 250527, Control_c, 0, 64, 74
1, 250542, Control_c, 0, 64, 32
1, 250557, Control_c, 0, 64, 0
1, 250608, Note_on_c, 0, 63, 69
1, 250610, Note_off_c, 0, 60, 55
1, 250675, Note_off_c, 0, 63, 59
1, 250698, Note_on_c, 0, 69, 83
1, 250716, Note_on_c, 0, 52, 65
1, 250719, Note_off_c, 0, 66, 57
1, 250778, Note_off_c, 0, 52, 52
1, 250787, Note_on_c, 0, 63, 69
1, 250849, Note_off_c, 0, 63, 60
1, 250889, Note_on_c, 0, 68, 87
1, 250898, Note_on_c, 0, 59, 72
1, 250951, Note_off_c, 0, 69, 54
1, 250975, Note_off_c, 0, 59, 55
1, 250983, Note_on_c, 0, 64, 78
1, 251052, Note_off_c, 0, 64, 64
1, 251074, Note_on_c, 0, 52, 81
1, 251130, Note_off_c, 0, 52, 63
1, 251154, Note_on_c, 0, 64, 78
1, 251221, Note_off_c, 0, 64, 64
1, 251242, Note_on_c, 0, 71, 88
1, 251249, Note_on_c, 0, 57, 79
1, 251264, Note_off_c, 0, 68, 59
1, 251312, Note_off_c, 0, 57, 60
1, 251345, Note_on_c, 0, 65, 66
1, 251349, Note_on_c, 0, 62, 63
1, 251417, Note_off_c, 0, 62, 56
1, 251418, Note_off_c, 0, 65, 59
1, 251431, Note_on_c, 0, 47, 78
1, 251459, Note_off_c, 0, 47, 70
1, 251515, Control_c, 0, 67, 8
1, 251530, Control_c, 0, 67, 9
1, 251536, Note_on_c, 0, 62, 61
1, 251539, Note_on_c, 0, 65, 59
1, 251544, Control_c, 0, 67, 12
1, 251559, Control_c, 0, 67, 15
1, 251574, Control_c, 0, 67, 18
1, 251587, Note_off_c, 0, 65, 56
1, 251588, Control_c, 0, 67, 21
1, 251609, Note_off_c, 0, 62, 57
1, 251610, Control_c, 0, 67, 25
1, 251625, Control_c, 0, 67, 29
1, 251640, Control_c, 0, 67, 33
1, 251655, Control_c, 0, 67, 37
1, 251657, Note_on_c, 0, 56, 66
1, 251670, Control_c, 0, 67, 41
1, 251685, Control_c, 0, 67, 45
1, 251699, Control_c, 0, 67, 49
1, 251708, Note_off_c, 0, 56, 56
1, 251714, Control_c, 0, 67, 53
1, 251729, Control_c, 0, 67, 58
1, 251744, Control_c, 0, 67, 64
1, 251759, Control_c, 0, 67, 68
1, 251771, Note_on_c, 0, 64, 44
1, 251774, Control_c, 0, 67, 72
1, 251775, Note_on_c, 0, 62, 38
1, 251788, Control_c, 0, 67, 76
1, 251803, Control_c, 0, 67, 81
1, 251818, Control_c, 0, 67, 86
1, 251826, Note_off_c, 0, 64, 60
1, 251831, Note_off_c, 0, 62, 52
1, 251832, Control_c, 0, 67, 91
1, 251847, Control_c, 0, 67, 97
1, 251862, Control_c, 0, 67, 102
1, 251877, Control_c, 0, 67, 107
1, 251887, Note_on_c, 0, 52, 53
1, 251892, Control_c, 0, 67, 111
1, 251906, Control_c, 0, 67, 117
1, 251921, Control_c, 0, 67, 122
1, 251936, Control_c, 0, 67, 127
1, 251937, Note_off_c, 0, 52, 59
1, 251951, Control_c, 0, 67, 127
1, 252004, Note_on_c, 0, 62, 42
1, 252007, Note_on_c, 0, 64, 43
1, 252049, Note_off_c, 0, 62, 58
1, 252055, Note_off_c, 0, 64, 47
1, 252149, Note_on_c, 0, 55, 45
1, 252202, Note_off_c, 0, 55, 57
1, 252257, Note_on_c, 0, 61, 55
1, 252356, Note_off_c, 0, 61, 54
1, 252364, Note_on_c, 0, 64, 56
1, 252368, Note_off_c, 0, 71, 59
1, 252373, Note_on_c, 0, 45, 45
1, 252403, Note_off_c, 0, 45, 61
1, 252439, Note_off_c, 0, 64, 61
1, 252468, Note_on_c, 0, 67, 52
1, 252537, Note_off_c, 0, 67, 62
1, 252559, Note_on_c, 0, 71, 58
1, 252561, Note_on_c, 0, 54, 56
1, 252594, Note_off_c, 0, 54, 65
1, 252656, Note_off_c, 0, 71, 61
1, 252657, Note_on_c, 0, 68, 53
1, 252712, Note_off_c, 0, 68, 60
1, 252731, Note_on_c, 0, 60, 51
1, 252746, Note_on_c, 0, 38, 49
1, 252775, Note_off_c, 0, 38, 59
1, 252813, Note_on_c, 0, 69, 56
1, 252827, Note_off_c, 0, 60, 59
1, 252849, Note_off_c, 0, 69, 60
1, 252914, Note_on_c, 0, 53, 59
1, 252955, Note_off_c, 0, 53, 63
1, 252977, Note_on_c, 0, 59, 59
1, 253048, Note_off_c, 0, 59, 40
1, 253067, Note_on_c, 0, 62, 57
1, 253074, Note_on_c, 0, 43, 52
1, 253113, Note_off_c, 0, 43, 63
1, 253148, Note_off_c, 0, 62, 60
1, 253154, Note_on_c, 0, 65, 60
1, 253226, Note_off_c, 0, 65, 62
1, 253233, Note_on_c, 0, 69, 63
1, 253235, Note_on_c, 0, 52, 68
1, 253270, Note_off_c, 0, 52, 64
1, 253304, Note_off_c, 0, 69, 64
1, 253317, Note_on_c, 0, 66, 61
1, 253378, Note_off_c, 0, 66, 61
1, 253393, Note_on_c, 0, 36, 59
1, 253393, Note_on_c, 0, 58, 65
1, 253421, Note_off_c, 0, 36, 58
1, 253473, Note_on_c, 0, 67, 70
1, 253482, Note_off_c, 0, 58, 58
1, 253497, Note_off_c, 0, 67, 68
1, 253548, Note_on_c, 0, 51, 72
1, 253595, Note_off_c, 0, 51, 57
1, 253631, Note_on_c, 0, 57, 69
1, 253703, Note_on_c, 0, 60, 73
1, 253712, Note_on_c, 0, 41, 61
1, 253738, Note_off_c, 0, 57, 56
1, 253743, Note_off_c, 0, 41, 64
1, 253791, Note_on_c, 0, 63, 66
1, 253827, Note_off_c, 0, 60, 59
1, 253879, Note_on_c, 0, 50, 70
1, 253879, Note_on_c, 0, 64, 65
1, 253920, Note_off_c, 0, 63, 40
1, 253923, Note_off_c, 0, 50, 61
1, 253951, Note_on_c, 0, 67, 73
1, 253959, Note_off_c, 0, 64, 65
1, 254048, Note_on_c, 0, 56, 69
1, 254051, Note_on_c, 0, 46, 76
1, 254066, Note_off_c, 0, 67, 58
1, 254082, Note_off_c, 0, 46, 66
1, 254126, Note_on_c, 0, 65, 68
1, 254150, Note_off_c, 0, 56, 62
1, 254183, Note_off_c, 0, 65, 63
1, 254240, Note_on_c, 0, 50, 73
1, 254279, Note_off_c, 0, 50, 63
1, 254316, Control_c, 0, 67, 123
1, 254331, Control_c, 0, 67, 116
1, 254332, Note_on_c, 0, 56, 61
1, 254345, Control_c, 0, 67, 109
1, 254360, Control_c, 0, 67, 100
1, 254375, Control_c, 0, 67, 92
1, 254390, Control_c, 0, 67, 84
1, 254405, Control_c, 0, 67, 77
1, 254419, Control_c, 0, 67, 68
1, 254434, Control_c, 0, 67, 59
1, 254449, Control_c, 0, 67, 53
1, 254450, Note_on_c, 0, 58, 53
1, 254460, Note_on_c, 0, 40, 56
1, 254464, Control_c, 0, 67, 47
1, 254479, Control_c, 0, 67, 41
1, 254491, Note_off_c, 0, 40, 64
1, 254493, Control_c, 0, 67, 33
1, 254508, Control_c, 0, 67, 24
1, 254523, Control_c, 0, 67, 15
1, 254537, Control_c, 0, 67, 0
1, 254595, Note_on_c, 0, 61, 54
1, 254668, Note_off_c, 0, 58, 37
1, 254765, Note_off_c, 0, 61, 57
1, 254773, Note_on_c, 0, 62, 41
1, 254926, Note_off_c, 0, 56, 44
1, 254986, Note_on_c, 0, 65, 52
1, 255029, Note_off_c, 0, 62, 59
1, 255261, Note_on_c, 0, 55, 38
1, 255288, Note_on_c, 0, 49, 35
1, 255291, Note_on_c, 0, 45, 30
1, 255428, Control_c, 0, 64, 41
1, 255443, Control_c, 0, 64, 59
1, 255458, Control_c, 0, 64, 65
1, 255472, Control_c, 0, 64, 69
1, 255487, Control_c, 0, 64, 73
1, 255502, Control_c, 0, 64, 77
1, 255517, Control_c, 0, 64, 82
1, 255532, Control_c, 0, 64, 89
1, 255546, Control_c, 0, 64, 99
1, 255561, Control_c, 0, 64, 112
1, 255568, Note_on_c, 0, 64, 51
1, 255576, Control_c, 0, 64, 127
1, 255609, Note_off_c, 0, 65, 57
1, 255619, Note_off_c, 0, 64, 57
1, 255631, Note_off_c, 0, 55, 46
1, 255652, Note_off_c, 0, 49, 48
1, 255657, Note_off_c, 0, 45, 43
1, 255932, Control_c, 0, 64, 102
1, 255946, Control_c, 0, 64, 84
1, 255959, Note_on_c, 0, 46, 39
1, 255959, Note_on_c, 0, 50, 41
1, 255961, Control_c, 0, 64, 68
1, 255965, Note_on_c, 0, 62, 51
1, 255976, Control_c, 0, 64, 0
1, 256025, Note_off_c, 0, 46, 59
1, 256200, Note_on_c, 0, 58, 40
1, 256201, Note_on_c, 0, 53, 30
1, 256248, Note_off_c, 0, 58, 58
1, 256250, Note_off_c, 0, 53, 49
1, 256290, Note_on_c, 0, 45, 52
1, 256329, Note_off_c, 0, 45, 63
1, 256430, Note_on_c, 0, 53, 38
1, 256434, Note_on_c, 0, 58, 34
1, 256474, Note_off_c, 0, 53, 57
1, 256475, Note_off_c, 0, 58, 56
1, 256518, Note_on_c, 0, 46, 53
1, 256558, Note_off_c, 0, 46, 63
1, 256625, Note_on_c, 0, 52, 40
1, 256625, Note_on_c, 0, 58, 37
1, 256666, Note_off_c, 0, 52, 49
1, 256669, Note_off_c, 0, 58, 59
1, 256704, Note_on_c, 0, 43, 52
1, 256738, Note_off_c, 0, 43, 64
1, 256788, Note_on_c, 0, 52, 41
1, 256791, Note_on_c, 0, 58, 45
1, 256840, Note_off_c, 0, 52, 60
1, 256843, Note_off_c, 0, 58, 57
1, 256878, Note_on_c, 0, 46, 67
1, 256883, Note_off_c, 0, 50, 56
1, 256910, Note_off_c, 0, 46, 62
1, 256967, Note_on_c, 0, 58, 53
1, 256977, Note_on_c, 0, 50, 53
1, 257008, Note_off_c, 0, 58, 60
1, 257011, Note_off_c, 0, 50, 64
1, 257035, Note_on_c, 0, 41, 62
1, 257074, Note_off_c, 0, 41, 63
1, 257119, Note_on_c, 0, 50, 48
1, 257120, Note_on_c, 0, 58, 60
1, 257154, Note_off_c, 0, 50, 65
1, 257161, Note_off_c, 0, 58, 57
1, 257192, Note_on_c, 0, 46, 66
1, 257228, Note_off_c, 0, 46, 63
1, 257270, Note_on_c, 0, 58, 56
1, 257298, Note_on_c, 0, 52, 26
1, 257307, Note_off_c, 0, 58, 63
1, 257339, Note_off_c, 0, 52, 42
1, 257342, Note_on_c, 0, 43, 60
1, 257373, Note_off_c, 0, 43, 64
1, 257420, Note_on_c, 0, 52, 53
1, 257421, Note_on_c, 0, 58, 52
1, 257446, Note_off_c, 0, 52, 57
1, 257455, Note_off_c, 0, 58, 64
1, 257485, Note_on_c, 0, 46, 68
1, 257521, Note_off_c, 0, 46, 64
1, 257556, Note_on_c, 0, 58, 57
1, 257569, Note_on_c, 0, 49, 59
1, 257608, Note_off_c, 0, 49, 64
1, 257620, Note_off_c, 0, 58, 60
1, 257639, Note_on_c, 0, 40, 67
1, 257672, Note_off_c, 0, 40, 63
1, 257704, Note_on_c, 0, 49, 56
1, 257714, Note_on_c, 0, 58, 61
1, 257751, Note_off_c, 0, 49, 62
1, 257755, Note_off_c, 0, 58, 59
1, 257776, Note_on_c, 0, 46, 77
1, 257819, Note_off_c, 0, 46, 57
1, 257858, Note_on_c, 0, 50, 65
1, 257859, Note_on_c, 0, 58, 67
1, 257889, Note_off_c, 0, 50, 65
1, 257893, Note_off_c, 0, 58, 64
1, 257921, Note_on_c, 0, 41, 73
1, 257956, Note_off_c, 0, 41, 65
1, 257976, Note_on_c, 0, 50, 63
1, 257987, Note_on_c, 0, 58, 72
1, 258002, Note_off_c, 0, 50, 68
1, 258021, Note_off_c, 0, 58, 61
1, 258053, Note_on_c, 0, 50, 83
1, 258059, Note_on_c, 0, 46, 80
1, 258117, Note_off_c, 0, 46, 61
1, 258125, Note_on_c, 0, 58, 65
1, 258141, Note_on_c, 0, 52, 53
1, 258168, Note_off_c, 0, 52, 57
1, 258171, Note_off_c, 0, 58, 56
1, 258207, Note_on_c, 0, 43, 66
1, 258243, Note_off_c, 0, 43, 65
1, 258260, Note_on_c, 0, 52, 49
1, 258285, Note_on_c, 0, 58, 52
1, 258296, Note_off_c, 0, 52, 63
1, 258316, Note_off_c, 0, 58, 65
1, 258360, Note_on_c, 0, 46, 66
1, 258405, Note_off_c, 0, 46, 59
1, 258410, Note_on_c, 0, 58, 56
1, 258422, Control_c, 0, 67, 8
1, 258436, Note_on_c, 0, 53, 48
1, 258437, Control_c, 0, 67, 9
1, 258452, Control_c, 0, 67, 11
1, 258463, Note_off_c, 0, 53, 58
1, 258466, Control_c, 0, 67, 14
1, 258469, Note_off_c, 0, 58, 58
1, 258481, Control_c, 0, 67, 17
1, 258496, Control_c, 0, 67, 20
1, 258500, Note_on_c, 0, 44, 66
1, 258511, Control_c, 0, 67, 24
1, 258526, Control_c, 0, 67, 29
1, 258530, Note_off_c, 0, 44, 64
1, 258541, Control_c, 0, 67, 32
1, 258556, Control_c, 0, 67, 36
1, 258558, Note_on_c, 0, 53, 49
1, 258570, Control_c, 0, 67, 39
1, 258577, Note_on_c, 0, 58, 52
1, 258585, Control_c, 0, 67, 43
1, 258596, Note_off_c, 0, 53, 63
1, 258600, Control_c, 0, 67, 47
1, 258607, Note_off_c, 0, 58, 64
1, 258615, Control_c, 0, 67, 50
1, 258630, Control_c, 0, 67, 55
1, 258645, Control_c, 0, 67, 59
1, 258651, Note_on_c, 0, 46, 63
1, 258660, Control_c, 0, 67, 62
1, 258675, Control_c, 0, 67, 66
1, 258684, Note_off_c, 0, 46, 60
1, 258690, Control_c, 0, 67, 70
1, 258705, Control_c, 0, 67, 74
1, 258711, Note_on_c, 0, 58, 49
1, 258720, Control_c, 0, 67, 78
1, 258728, Note_on_c, 0, 52, 51
1, 258734, Control_c, 0, 67, 82
1, 258749, Control_c, 0, 67, 86
1, 258757, Note_off_c, 0, 58, 60
1, 258764, Note_off_c, 0, 52, 62
1, 258764, Control_c, 0, 67, 91
1, 258779, Control_c, 0, 67, 95
1, 258794, Control_c, 0, 67, 100
1, 258805, Note_on_c, 0, 43, 55
1, 258808, Control_c, 0, 67, 104
1, 258823, Control_c, 0, 67, 108
1, 258836, Note_off_c, 0, 43, 63
1, 258838, Control_c, 0, 67, 113
1, 258853, Control_c, 0, 67, 119
1, 258868, Control_c, 0, 67, 125
1, 258870, Note_on_c, 0, 52, 49
1, 258873, Note_on_c, 0, 58, 52
1, 258882, Control_c, 0, 67, 127
1, 258907, Note_off_c, 0, 52, 62
1, 258913, Note_off_c, 0, 58, 61
1, 258953, Note_on_c, 0, 46, 62
1, 258998, Note_off_c, 0, 46, 62
1, 259022, Note_on_c, 0, 58, 52
1, 259041, Note_on_c, 0, 53, 44
1, 259062, Note_off_c, 0, 58, 62
1, 259070, Note_off_c, 0, 53, 61
1, 259125, Note_on_c, 0, 44, 61
1, 259156, Note_off_c, 0, 44, 64
1, 259182, Note_on_c, 0, 53, 49
1, 259193, Note_on_c, 0, 58, 48
1, 259218, Note_off_c, 0, 53, 66
1, 259235, Note_off_c, 0, 58, 60
1, 259280, Note_on_c, 0, 48, 63
1, 259328, Note_off_c, 0, 48, 60
1, 259353, Note_on_c, 0, 58, 48
1, 259377, Note_on_c, 0, 55, 20
1, 259391, Note_off_c, 0, 58, 61
1, 259423, Note_off_c, 0, 55, 38
1, 259443, Note_on_c, 0, 46, 63
1, 259477, Note_off_c, 0, 50, 62
1, 259482, Note_off_c, 0, 46, 64
1, 259522, Note_on_c, 0, 55, 47
1, 259530, Note_on_c, 0, 58, 50
1, 259570, Note_off_c, 0, 55, 61
1, 259573, Note_off_c, 0, 58, 60
1, 259628, Note_on_c, 0, 53, 49
1, 259635, Note_on_c, 0, 52, 48
1, 259670, Note_off_c, 0, 52, 60
1, 259674, Note_off_c, 0, 53, 62
1, 259716, Note_on_c, 0, 58, 50
1, 259736, Note_on_c, 0, 56, 42
1, 259764, Note_off_c, 0, 58, 58
1, 259769, Note_off_c, 0, 56, 59
1, 259848, Note_on_c, 0, 50, 47
1, 259898, Note_off_c, 0, 50, 65
1, 259963, Note_on_c, 0, 56, 47
1, 259977, Note_on_c, 0, 58, 41
1, 260013, Note_off_c, 0, 56, 63
1, 260015, Note_off_c, 0, 58, 60
1, 260640, Control_c, 0, 64, 31
1, 260655, Control_c, 0, 64, 47
1, 260669, Control_c, 0, 64, 56
1, 260684, Control_c, 0, 64, 63
1, 260699, Control_c, 0, 64, 66
1, 260714, Control_c, 0, 64, 68
1, 260729, Control_c, 0, 64, 70
1, 260744, Control_c, 0, 64, 72
1, 260758, Control_c, 0, 64, 74
1, 260773, Control_c, 0, 64, 77
1, 260788, Control_c, 0, 64, 81
1, 260803, Control_c, 0, 64, 84
1, 260818, Control_c, 0, 64, 87
1, 260833, Control_c, 0, 64, 91
1, 260848, Control_c, 0, 64, 94
1, 260862, Control_c, 0, 64, 98
1, 260877, Control_c, 0, 64, 103
1, 260892, Control_c, 0, 64, 109
1, 260906, Control_c, 0, 64, 120
1, 260921, Control_c, 0, 64, 127
1, 261415, Note_off_c, 0, 62, 56
1, 261641, Control_c, 0, 64, 113
1, 261656, Control_c, 0, 64, 103
1, 261671, Control_c, 0, 64, 95
1, 261685, Control_c, 0, 64, 88
1, 261700, Control_c, 0, 64, 81
1, 261715, Control_c, 0, 64, 74
1, 261729, Control_c, 0, 64, 65
1, 261744, Control_c, 0, 64, 52
1, 261759, Control_c, 0, 64, 24
1, 261774, Control_c, 0, 64, 17
1, 261805, Control_c, 0, 64, 0
1, 262397, Note_on_c, 0, 56, 30
1, 262907, Note_on_c, 0, 57, 43
1, 262908, Note_off_c, 0, 56, 55
1, 263255, Note_on_c, 0, 58, 47
1, 263271, Note_off_c, 0, 57, 49
1, 263519, Note_on_c, 0, 61, 51
1, 263535, Note_off_c, 0, 58, 57
1, 263767, Note_off_c, 0, 61, 57
1, 263769, Note_on_c, 0, 62, 52
1, 264016, Note_off_c, 0, 62, 56
1, 264025, Note_on_c, 0, 64, 48
1, 264302, Note_on_c, 0, 65, 43
1, 264331, Note_off_c, 0, 64, 51
1, 264399, Control_c, 0, 67, 125
1, 264414, Control_c, 0, 67, 118
1, 264428, Control_c, 0, 67, 113
1, 264443, Control_c, 0, 67, 107
1, 264458, Control_c, 0, 67, 101
1, 264473, Control_c, 0, 67, 94
1, 264488, Control_c, 0, 67, 88
1, 264502, Control_c, 0, 67, 80
1, 264517, Control_c, 0, 67, 75
1, 264532, Control_c, 0, 67, 69
1, 264547, Control_c, 0, 67, 64
1, 264562, Control_c, 0, 67, 59
1, 264577, Control_c, 0, 67, 53
1, 264592, Control_c, 0, 67, 45
1, 264598, Note_on_c, 0, 68, 42
1, 264607, Control_c, 0, 67, 37
1, 264622, Control_c, 0, 67, 29
1, 264636, Control_c, 0, 67, 20
1, 264651, Control_c, 0, 67, 10
1, 264666, Control_c, 0, 67, 0
1, 264916, Note_on_c, 0, 69, 38
1, 265238, Note_on_c, 0, 70, 48
1, 265248, Note_off_c, 0, 69, 54
1, 265578, Note_on_c, 0, 73, 48
1, 266020, Note_on_c, 0, 74, 47
1, 266038, Note_off_c, 0, 73, 49
1, 266829, Note_on_c, 0, 77, 47
1, 266863, Note_off_c, 0, 74, 59
1, 266986, Control_c, 0, 67, 8
1, 267000, Control_c, 0, 67, 9
1, 267015, Control_c, 0, 64, 47
1, 267015, Control_c, 0, 67, 11
1, 267030, Control_c, 0, 64, 61
1, 267030, Control_c, 0, 67, 13
1, 267045, Control_c, 0, 64, 66
1, 267045, Control_c, 0, 67, 16
1, 267060, Control_c, 0, 64, 69
1, 267060, Control_c, 0, 67, 20
1, 267074, Control_c, 0, 64, 72
1, 267074, Control_c, 0, 67, 23
1, 267089, Control_c, 0, 64, 74
1, 267089, Control_c, 0, 67, 26
1, 267104, Control_c, 0, 64, 77
1, 267104, Control_c, 0, 67, 30
1, 267119, Control_c, 0, 64, 82
1, 267119, Control_c, 0, 67, 33
1, 267134, Control_c, 0, 64, 87
1, 267134, Control_c, 0, 67, 36
1, 267148, Control_c, 0, 64, 92
1, 267148, Control_c, 0, 67, 40
1, 267163, Control_c, 0, 64, 96
1, 267163, Control_c, 0, 67, 43
1, 267178, Control_c, 0, 64, 101
1, 267178, Control_c, 0, 67, 47
1, 267193, Control_c, 0, 64, 107
1, 267193, Control_c, 0, 67, 51
1, 267208, Control_c, 0, 64, 120
1, 267208, Control_c, 0, 67, 54
1, 267222, Control_c, 0, 64, 127
1, 267222, Control_c, 0, 67, 58
1, 267237, Control_c, 0, 67, 61
1, 267252, Control_c, 0, 67, 65
1, 267266, Control_c, 0, 67, 68
1, 267281, Control_c, 0, 67, 71
1, 267283, Note_off_c, 0, 65, 45
1, 267296, Control_c, 0, 67, 76
1, 267306, Note_off_c, 0, 68, 30
1, 267312, Control_c, 0, 67, 80
1, 267334, Control_c, 0, 67, 84
1, 267349, Control_c, 0, 67, 88
1, 267364, Control_c, 0, 67, 92
1, 267379, Control_c, 0, 67, 97
1, 267394, Control_c, 0, 67, 101
1, 267409, Control_c, 0, 67, 107
1, 267424, Control_c, 0, 67, 111
1, 267439, Control_c, 0, 67, 116
1, 267454, Control_c, 0, 67, 121
1, 267468, Control_c, 0, 67, 126
1, 267483, Control_c, 0, 67, 127
1, 268096, Note_on_c, 0, 67, 31
1, 268097, Control_c, 0, 64, 101
1, 268112, Control_c, 0, 64, 90
1, 268118, Note_on_c, 0, 57, 28
1, 268120, Note_on_c, 0, 61, 31
1, 268127, Control_c, 0, 64, 81
1, 268142, Control_c, 0, 64, 71
1, 268157, Control_c, 0, 64, 59
1, 268171, Control_c, 0, 64, 0
1, 268306, Control_c, 0, 64, 23
1, 268320, Control_c, 0, 64, 59
1, 268335, Control_c, 0, 64, 66
1, 268350, Control_c, 0, 64, 71
1, 268365, Control_c, 0, 64, 76
1, 268380, Control_c, 0, 64, 81
1, 268394, Control_c, 0, 64, 87
1, 268409, Control_c, 0, 64, 93
1, 268424, Control_c, 0, 64, 101
1, 268439, Control_c, 0, 64, 114
1, 268445, Note_off_c, 0, 70, 36
1, 268454, Control_c, 0, 64, 127
1, 268518, Note_off_c, 0, 57, 41
1, 268565, Note_off_c, 0, 61, 41
1, 268568, Note_off_c, 0, 67, 41
1, 269098, Note_on_c, 0, 76, 42
1, 269194, Note_off_c, 0, 77, 37
1, 269209, Note_off_c, 0, 76, 52
1, 269468, Control_c, 0, 64, 104
1, 269483, Note_on_c, 0, 74, 40
1, 269483, Control_c, 0, 64, 89
1, 269485, Note_on_c, 0, 69, 38
1, 269493, Note_on_c, 0, 62, 34
1, 269498, Control_c, 0, 64, 77
1, 269505, Note_on_c, 0, 65, 24
1, 269513, Control_c, 0, 64, 65
1, 269528, Control_c, 0, 64, 43
1, 269542, Control_c, 0, 64, 0
1, 269728, Control_c, 0, 64, 53
1, 269743, Control_c, 0, 64, 64
1, 269757, Control_c, 0, 64, 68
1, 269772, Control_c, 0, 64, 73
1, 269787, Control_c, 0, 64, 77
1, 269803, Control_c, 0, 64, 84
1, 269817, Control_c, 0, 64, 91
1, 269832, Control_c, 0, 64, 100
1, 269847, Control_c, 0, 64, 113
1, 269862, Control_c, 0, 64, 127
1, 269886, Note_off_c, 0, 65, 42
1, 269934, Note_off_c, 0, 74, 61
1, 269938, Note_off_c, 0, 69, 37
1, 269964, Note_off_c, 0, 62, 41
1, 271138, Note_on_c, 0, 62, 31
1, 271153, Note_on_c, 0, 53, 28
1, 271159, Note_on_c, 0, 38, 29
1, 271174, Note_on_c, 0, 45, 22
1, 271250, Note_off_c, 0, 53, 37
1, 271268, Note_off_c, 0, 45, 38
1, 271281, Note_off_c, 0, 38, 34
1, 271281, Note_off_c, 0, 62, 40
1, 271472, Note_on_c, 0, 62, 18
1, 271487, Note_on_c, 0, 38, 25
1, 271490, Note_on_c, 0, 45, 16
1, 271493, Note_on_c, 0, 53, 24
1, 273409, Note_off_c, 0, 45, 27
1, 273797, Note_off_c, 0, 38, 31
1, 273874, Note_off_c, 0, 53, 35
1, 273948, Note_off_c, 0, 62, 31
1, 274192, Control_c, 0, 64, 124
1, 274207, Control_c, 0, 64, 116
1, 274221, Control_c, 0, 64, 113
1, 274236, Control_c, 0, 64, 112
1, 274251, Control_c, 0, 64, 111
1, 274265, Control_c, 0, 64, 109
1, 274280, Control_c, 0, 64, 107
1, 274295, Control_c, 0, 64, 106
1, 274310, Control_c, 0, 64, 104
1, 274325, Control_c, 0, 64, 102
1, 274339, Control_c, 0, 64, 100
1, 274354, Control_c, 0, 64, 98
1, 274369, Control_c, 0, 64, 96
1, 274384, Control_c, 0, 64, 93
1, 274399, Control_c, 0, 64, 91
1, 274414, Control_c, 0, 64, 89
1, 274429, Control_c, 0, 64, 86
1, 274444, Control_c, 0, 64, 82
1, 274458, Control_c, 0, 64, 79
1, 274473, Control_c, 0, 64, 75
1, 274488, Control_c, 0, 64, 72
1, 274503, Control_c, 0, 64, 70
1, 274518, Control_c, 0, 64, 68
1, 274533, Control_c, 0, 64, 67
1, 274547, Control_c, 0, 64, 66
1, 274562, Control_c, 0, 64, 66
1, 274577, Control_c, 0, 64, 65
1, 274593, Control_c, 0, 64, 65
1, 274608, Control_c, 0, 64, 64
1, 274623, Control_c, 0, 64, 64
1, 274637, Control_c, 0, 64, 63
1, 274652, Control_c, 0, 64, 62
1, 274667, Control_c, 0, 64, 61
1, 274681, Control_c, 0, 64, 59
1, 274696, Control_c, 0, 64, 56
1, 274711, Control_c, 0, 64, 53
1, 274726, Control_c, 0, 64, 48
1, 274741, Control_c, 0, 64, 43
1, 274755, Control_c, 0, 64, 37
1, 274770, Control_c, 0, 64, 31
1, 274785, Control_c, 0, 64, 24
1, 274800, Control_c, 0, 64, 17
1, 274822, Control_c, 0, 64, 0
1, 276631, Control_c, 0, 67, 127
1, 276646, Control_c, 0, 67, 123
1, 276660, Control_c, 0, 67, 118
1, 276675, Control_c, 0, 67, 111
1, 276690, Control_c, 0, 67, 105
1, 276705, Control_c, 0, 67, 99
1, 276720, Control_c, 0, 67, 92
1, 276734, Control_c, 0, 67, 84
1, 276749, Control_c, 0, 67, 76
1, 276764, Control_c, 0, 67, 68
1, 276779, Control_c, 0, 67, 58
1, 276794, Control_c, 0, 67, 49
1, 276808, Control_c, 0, 67, 38
1, 276823, Control_c, 0, 67, 26
1, 276838, Control_c, 0, 67, 10
1, 276852, Control_c, 0, 67, 0
1, 276927, End_track
0, 0, End_of_file
