0, 0, Header, 0, 1, 384
1, 0, Start_track
1, 0, Title_t, "Ballade No.2,Op.38--Gasanov     "
1, 0, Text_t, "2009 International Piano-e-Competition finals"
1, 0, Text_t, "captured June-July 2009"
1, 0, Text_t, "http://www.piano-e-competition.com/"
1, 0, Text_t, "standard-resolution version"
1, 0, Text_t, "File processed for distribution by software from Zenph Studios, Inc., http://www.zenph.com"
1, 0, Instrument_name_t, "Yamaha Disklavier Pro Mark IV concert grand piano, model DCFIIISM4PRO"
1, 0, Sequencer_specific, 39, 67, 113, 0, 1, 0, 1, 0, 66, 97, 108, 108, 97, 100, 101, 32, 78, 50, 44, 79, 112, 46, 51, 56, 69, 108, 109, 97, 114, 32, 71, 97, 115, 97, 110, 111, 118, 32, 32, 32
1, 0, Sequencer_specific, 6, 67, 113, 0, 0, 0, 69
1, 0, System_exclusive, 21, 67, 113, 126, 21, 0, 2, 2, 2, 3, 12, 8, 4, 10, 4, 11, 14, 3, 9, 8, 0, 247
1, 0, Sequencer_specific, 5, 67, 123, 12, 2, 1
1, 0, Tempo, 512820
1, 0, Time_signature, 4, 2, 24, 8
1, 0, System_exclusive, 5, 126, 127, 9, 1, 247
1, 1, System_exclusive, 8, 67, 16, 76, 0, 0, 126, 0, 247
1, 2, System_exclusive, 8, 67, 16, 76, 8, 9, 7, 1, 247
1, 3, Control_c, 0, 0, 0
1, 3, Control_c, 1, 0, 0
1, 3, Control_c, 2, 0, 0
1, 3, Control_c, 3, 0, 0
1, 3, Control_c, 4, 0, 0
1, 3, Control_c, 5, 0, 0
1, 3, Control_c, 6, 0, 0
1, 3, Control_c, 7, 0, 0
1, 3, Control_c, 8, 0, 0
1, 3, Control_c, 9, 0, 127
1, 3, Control_c, 10, 0, 0
1, 3, Control_c, 11, 0, 0
1, 3, Control_c, 12, 0, 0
1, 3, Control_c, 13, 0, 0
1, 3, Control_c, 14, 0, 0
1, 3, Control_c, 15, 0, 0
1, 4, Control_c, 0, 32, 0
1, 4, Control_c, 1, 32, 0
1, 4, Control_c, 2, 32, 0
1, 4, Control_c, 3, 32, 0
1, 4, Control_c, 4, 32, 0
1, 4, Control_c, 5, 32, 0
1, 4, Control_c, 6, 32, 0
1, 4, Control_c, 7, 32, 0
1, 4, Control_c, 8, 32, 0
1, 4, Control_c, 9, 32, 0
1, 4, Control_c, 10, 32, 0
1, 4, Control_c, 11, 32, 0
1, 4, Control_c, 12, 32, 0
1, 4, Control_c, 13, 32, 0
1, 4, Control_c, 14, 32, 0
1, 4, Control_c, 15, 32, 0
1, 5, Program_c, 0, 0
1, 5, Program_c, 1, 0
1, 5, Program_c, 2, 0
1, 5, Program_c, 3, 0
1, 5, Program_c, 4, 0
1, 5, Program_c, 5, 0
1, 5, Program_c, 6, 0
1, 5, Program_c, 7, 0
1, 5, Program_c, 8, 0
1, 5, Program_c, 9, 0
1, 5, Program_c, 10, 0
1, 5, Program_c, 11, 0
1, 5, Program_c, 12, 0
1, 5, Program_c, 13, 0
1, 5, Program_c, 14, 0
1, 5, Program_c, 15, 0
1, 6, Control_c, 0, 7, 100
1, 6, Control_c, 1, 7, 100
1, 6, Control_c, 2, 7, 100
1, 6, Control_c, 3, 7, 100
1, 6, Control_c, 4, 7, 100
1, 6, Control_c, 5, 7, 100
1, 6, Control_c, 6, 7, 100
1, 6, Control_c, 7, 7, 100
1, 6, Control_c, 8, 7, 100
1, 6, Control_c, 9, 7, 100
1, 6, Control_c, 10, 7, 100
1, 6, Control_c, 11, 7, 100
1, 6, Control_c, 12, 7, 100
1, 6, Control_c, 13, 7, 100
1, 6, Control_c, 14, 7, 100
1, 6, Control_c, 15, 7, 100
1, 117, Control_c, 0, 64, 15
1, 117, Control_c, 0, 67, 15
1, 229, Control_c, 0, 64, 31
1, 229, Control_c, 0, 67, 31
1, 341, Control_c, 0, 64, 46
1, 341, Control_c, 0, 67, 46
1, 452, Control_c, 0, 64, 63
1, 452, Control_c, 0, 67, 63
1, 564, Control_c, 0, 64, 77
1, 564, Control_c, 0, 67, 77
1, 676, Control_c, 0, 64, 94
1, 676, Control_c, 0, 67, 94
1, 787, Control_c, 0, 64, 108
1, 787, Control_c, 0, 67, 108
1, 899, Control_c, 0, 64, 127
1, 899, Control_c, 0, 67, 127
1, 1136, Note_on_c, 0, 72, 38
1, 1182, Note_on_c, 0, 60, 19
1, 1213, Note_off_c, 0, 72, 47
1, 1237, Note_off_c, 0, 60, 48
1, 1471, Note_on_c, 0, 72, 41
1, 1494, Note_on_c, 0, 60, 25
1, 1569, Note_off_c, 0, 60, 55
1, 1575, Note_off_c, 0, 72, 48
1, 2040, Note_on_c, 0, 72, 45
1, 2067, Note_on_c, 0, 60, 32
1, 2118, Note_off_c, 0, 60, 59
1, 2124, Note_off_c, 0, 72, 55
1, 2243, Control_c, 0, 67, 124
1, 2258, Control_c, 0, 67, 121
1, 2273, Control_c, 0, 67, 117
1, 2287, Control_c, 0, 67, 113
1, 2309, Control_c, 0, 67, 109
1, 2324, Control_c, 0, 67, 105
1, 2338, Control_c, 0, 67, 99
1, 2351, Note_on_c, 0, 72, 49
1, 2353, Control_c, 0, 67, 93
1, 2364, Note_on_c, 0, 60, 32
1, 2368, Control_c, 0, 67, 88
1, 2384, Control_c, 0, 67, 82
1, 2399, Control_c, 0, 67, 77
1, 2414, Control_c, 0, 67, 73
1, 2429, Note_off_c, 0, 60, 58
1, 2429, Control_c, 0, 67, 69
1, 2442, Note_off_c, 0, 72, 50
1, 2443, Control_c, 0, 67, 65
1, 2458, Control_c, 0, 67, 61
1, 2473, Control_c, 0, 67, 57
1, 2488, Control_c, 0, 67, 52
1, 2503, Control_c, 0, 67, 47
1, 2517, Control_c, 0, 67, 42
1, 2532, Control_c, 0, 67, 38
1, 2547, Control_c, 0, 67, 32
1, 2561, Control_c, 0, 67, 26
1, 2576, Control_c, 0, 67, 20
1, 2591, Control_c, 0, 67, 13
1, 2606, Control_c, 0, 67, 0
1, 2873, Note_on_c, 0, 72, 52
1, 2892, Note_on_c, 0, 60, 37
1, 2948, Note_off_c, 0, 60, 56
1, 2971, Note_off_c, 0, 72, 45
1, 3193, Note_on_c, 0, 72, 58
1, 3210, Note_on_c, 0, 60, 38
1, 3277, Note_off_c, 0, 60, 56
1, 3291, Note_off_c, 0, 72, 57
1, 3518, Control_c, 0, 67, 9
1, 3533, Control_c, 0, 67, 11
1, 3548, Control_c, 0, 67, 13
1, 3563, Control_c, 0, 67, 16
1, 3577, Control_c, 0, 67, 20
1, 3592, Control_c, 0, 67, 24
1, 3607, Control_c, 0, 67, 27
1, 3622, Control_c, 0, 67, 31
1, 3637, Control_c, 0, 67, 36
1, 3651, Control_c, 0, 67, 40
1, 3666, Control_c, 0, 67, 44
1, 3681, Control_c, 0, 67, 48
1, 3696, Control_c, 0, 67, 52
1, 3711, Control_c, 0, 67, 57
1, 3726, Control_c, 0, 67, 61
1, 3741, Control_c, 0, 67, 65
1, 3755, Control_c, 0, 67, 68
1, 3761, Note_on_c, 0, 72, 46
1, 3770, Control_c, 0, 67, 70
1, 3773, Note_on_c, 0, 60, 33
1, 3785, Control_c, 0, 67, 73
1, 3807, Control_c, 0, 67, 76
1, 3822, Control_c, 0, 67, 79
1, 3837, Control_c, 0, 67, 81
1, 3851, Control_c, 0, 67, 85
1, 3862, Note_off_c, 0, 72, 46
1, 3865, Note_off_c, 0, 60, 48
1, 3866, Control_c, 0, 67, 88
1, 3881, Control_c, 0, 67, 91
1, 3896, Control_c, 0, 67, 94
1, 3910, Control_c, 0, 67, 96
1, 3925, Control_c, 0, 67, 99
1, 3940, Control_c, 0, 67, 102
1, 3955, Control_c, 0, 67, 104
1, 3970, Control_c, 0, 67, 106
1, 3986, Control_c, 0, 67, 108
1, 4000, Control_c, 0, 67, 109
1, 4015, Control_c, 0, 67, 110
1, 4030, Control_c, 0, 67, 111
1, 4045, Control_c, 0, 67, 111
1, 4155, Note_on_c, 0, 72, 51
1, 4178, Note_on_c, 0, 69, 34
1, 4179, Control_c, 0, 64, 105
1, 4185, Note_on_c, 0, 60, 32
1, 4193, Note_on_c, 0, 53, 38
1, 4194, Control_c, 0, 64, 87
1, 4194, Control_c, 0, 67, 112
1, 4208, Control_c, 0, 64, 72
1, 4208, Control_c, 0, 67, 112
1, 4223, Control_c, 0, 64, 56
1, 4238, Note_off_c, 0, 69, 0
1, 4238, Note_on_c, 0, 69, 12
1, 4238, Control_c, 0, 64, 0
1, 4297, Control_c, 0, 64, 51
1, 4312, Control_c, 0, 64, 66
1, 4326, Control_c, 0, 64, 74
1, 4341, Control_c, 0, 64, 85
1, 4356, Control_c, 0, 64, 105
1, 4356, Control_c, 0, 67, 112
1, 4371, Control_c, 0, 64, 127
1, 4386, Control_c, 0, 67, 111
1, 4392, Note_off_c, 0, 69, 44
1, 4400, Control_c, 0, 67, 111
1, 4414, Note_off_c, 0, 72, 57
1, 4415, Control_c, 0, 67, 110
1, 4430, Control_c, 0, 67, 109
1, 4445, Control_c, 0, 67, 107
1, 4447, Note_off_c, 0, 53, 43
1, 4460, Control_c, 0, 67, 106
1, 4463, Note_off_c, 0, 60, 44
1, 4474, Control_c, 0, 67, 105
1, 4489, Control_c, 0, 67, 104
1, 4504, Control_c, 0, 67, 102
1, 4519, Control_c, 0, 67, 101
1, 4534, Control_c, 0, 67, 100
1, 4556, Control_c, 0, 67, 99
1, 4571, Control_c, 0, 67, 98
1, 4586, Control_c, 0, 67, 97
1, 4601, Control_c, 0, 67, 93
1, 4615, Control_c, 0, 67, 90
1, 4630, Control_c, 0, 67, 86
1, 4645, Control_c, 0, 67, 81
1, 4659, Control_c, 0, 67, 75
1, 4674, Control_c, 0, 67, 67
1, 4689, Control_c, 0, 67, 57
1, 4704, Control_c, 0, 67, 47
1, 4719, Control_c, 0, 67, 39
1, 4721, Note_on_c, 0, 72, 56
1, 4733, Control_c, 0, 67, 30
1, 4742, Note_on_c, 0, 53, 36
1, 4742, Note_on_c, 0, 69, 45
1, 4748, Control_c, 0, 67, 20
1, 4763, Control_c, 0, 67, 12
1, 4766, Note_on_c, 0, 60, 23
1, 4779, Control_c, 0, 67, 0
1, 4785, Note_off_c, 0, 72, 61
1, 4805, Note_off_c, 0, 53, 59
1, 4809, Note_off_c, 0, 69, 48
1, 4817, Note_off_c, 0, 60, 54
1, 5029, Note_on_c, 0, 72, 58
1, 5044, Note_on_c, 0, 70, 51
1, 5046, Control_c, 0, 64, 94
1, 5061, Control_c, 0, 64, 76
1, 5072, Note_on_c, 0, 53, 28
1, 5076, Control_c, 0, 64, 58
1, 5076, Note_on_c, 0, 60, 18
1, 5091, Control_c, 0, 64, 0
1, 5149, Control_c, 0, 64, 49
1, 5164, Control_c, 0, 64, 65
1, 5179, Control_c, 0, 64, 72
1, 5194, Control_c, 0, 64, 80
1, 5209, Control_c, 0, 64, 95
1, 5215, Note_off_c, 0, 53, 0
1, 5223, Control_c, 0, 64, 127
1, 5258, Poly_aftertouch_c, 0, 53, 0
1, 5270, Note_off_c, 0, 60, 43
1, 5279, Note_off_c, 0, 70, 33
1, 5288, Note_off_c, 0, 72, 52
1, 5575, Note_on_c, 0, 72, 57
1, 5593, Note_on_c, 0, 70, 42
1, 5598, Note_on_c, 0, 53, 37
1, 5610, Note_on_c, 0, 60, 25
1, 5622, Note_off_c, 0, 70, 60
1, 5650, Note_off_c, 0, 53, 58
1, 5671, Note_off_c, 0, 60, 46
1, 5867, Control_c, 0, 64, 103
1, 5882, Control_c, 0, 64, 85
1, 5896, Control_c, 0, 64, 68
1, 5897, Note_on_c, 0, 76, 59
1, 5911, Control_c, 0, 64, 0
1, 5936, Note_on_c, 0, 53, 29
1, 5944, Note_on_c, 0, 70, 31
1, 5947, Note_on_c, 0, 60, 23
1, 5999, Note_off_c, 0, 72, 36
1, 6030, Control_c, 0, 64, 19
1, 6053, Control_c, 0, 64, 63
1, 6068, Control_c, 0, 64, 72
1, 6083, Control_c, 0, 64, 85
1, 6086, Note_off_c, 0, 70, 27
1, 6098, Control_c, 0, 64, 105
1, 6112, Control_c, 0, 64, 127
1, 6161, Note_off_c, 0, 53, 44
1, 6196, Note_off_c, 0, 60, 45
1, 6316, Note_on_c, 0, 74, 63
1, 6409, Control_c, 0, 64, 111
1, 6420, Note_off_c, 0, 76, 50
1, 6424, Control_c, 0, 64, 87
1, 6439, Control_c, 0, 64, 69
1, 6445, Note_on_c, 0, 72, 62
1, 6454, Control_c, 0, 64, 28
1, 6467, Note_on_c, 0, 53, 30
1, 6468, Control_c, 0, 64, 0
1, 6474, Note_on_c, 0, 60, 26
1, 6495, Note_on_c, 0, 70, 27
1, 6498, Control_c, 0, 64, 54
1, 6513, Control_c, 0, 64, 66
1, 6519, Note_off_c, 0, 74, 57
1, 6527, Note_off_c, 0, 70, 51
1, 6528, Control_c, 0, 64, 75
1, 6543, Control_c, 0, 64, 88
1, 6552, Note_off_c, 0, 53, 54
1, 6558, Control_c, 0, 64, 120
1, 6572, Control_c, 0, 64, 127
1, 6587, Note_off_c, 0, 60, 37
1, 6765, Control_c, 0, 64, 108
1, 6780, Control_c, 0, 64, 91
1, 6799, Note_on_c, 0, 77, 56
1, 6802, Control_c, 0, 64, 78
1, 6817, Control_c, 0, 64, 67
1, 6820, Note_on_c, 0, 69, 34
1, 6832, Control_c, 0, 64, 35
1, 6832, Control_c, 0, 67, 8
1, 6834, Note_on_c, 0, 53, 29
1, 6847, Control_c, 0, 64, 0
1, 6849, Note_on_c, 0, 60, 17
1, 6862, Control_c, 0, 67, 9
1, 6868, Note_off_c, 0, 72, 59
1, 6876, Control_c, 0, 67, 10
1, 6891, Control_c, 0, 67, 11
1, 6906, Control_c, 0, 67, 12
1, 6921, Control_c, 0, 67, 13
1, 6935, Control_c, 0, 67, 14
1, 6950, Control_c, 0, 67, 15
1, 6965, Control_c, 0, 67, 16
1, 6980, Control_c, 0, 64, 45
1, 6980, Control_c, 0, 67, 16
1, 6995, Control_c, 0, 64, 64
1, 7009, Control_c, 0, 64, 70
1, 7009, Control_c, 0, 67, 17
1, 7024, Control_c, 0, 64, 76
1, 7024, Control_c, 0, 67, 17
1, 7039, Control_c, 0, 64, 87
1, 7039, Control_c, 0, 67, 18
1, 7053, Control_c, 0, 64, 99
1, 7053, Control_c, 0, 67, 18
1, 7068, Control_c, 0, 64, 127
1, 7068, Control_c, 0, 67, 19
1, 7083, Control_c, 0, 67, 19
1, 7098, Control_c, 0, 67, 20
1, 7113, Control_c, 0, 67, 20
1, 7127, Control_c, 0, 67, 21
1, 7142, Control_c, 0, 67, 21
1, 7157, Control_c, 0, 67, 22
1, 7165, Note_off_c, 0, 69, 62
1, 7173, Control_c, 0, 67, 23
1, 7188, Control_c, 0, 67, 24
1, 7203, Control_c, 0, 67, 25
1, 7218, Control_c, 0, 67, 25
1, 7232, Control_c, 0, 67, 26
1, 7241, Note_off_c, 0, 60, 43
1, 7243, Note_off_c, 0, 53, 45
1, 7247, Control_c, 0, 67, 27
1, 7262, Control_c, 0, 67, 28
1, 7277, Control_c, 0, 67, 29
1, 7292, Control_c, 0, 67, 30
1, 7306, Control_c, 0, 67, 32
1, 7321, Control_c, 0, 67, 33
1, 7336, Control_c, 0, 67, 34
1, 7350, Control_c, 0, 67, 35
1, 7365, Control_c, 0, 67, 36
1, 7380, Control_c, 0, 67, 37
1, 7395, Control_c, 0, 67, 38
1, 7410, Control_c, 0, 67, 41
1, 7416, Note_on_c, 0, 74, 60
1, 7425, Control_c, 0, 64, 118
1, 7425, Control_c, 0, 67, 43
1, 7440, Control_c, 0, 64, 92
1, 7440, Control_c, 0, 67, 45
1, 7441, Note_on_c, 0, 65, 40
1, 7452, Note_on_c, 0, 58, 38
1, 7455, Control_c, 0, 64, 73
1, 7455, Control_c, 0, 67, 46
1, 7469, Control_c, 0, 64, 35
1, 7469, Control_c, 0, 67, 47
1, 7484, Control_c, 0, 64, 0
1, 7484, Control_c, 0, 67, 48
1, 7550, Control_c, 0, 64, 40
1, 7565, Control_c, 0, 64, 65
1, 7580, Control_c, 0, 64, 77
1, 7595, Control_c, 0, 64, 95
1, 7610, Control_c, 0, 64, 127
1, 7620, Note_off_c, 0, 65, 50
1, 7625, Control_c, 0, 67, 47
1, 7669, Control_c, 0, 67, 47
1, 7684, Control_c, 0, 67, 46
1, 7744, Control_c, 0, 64, 101
1, 7746, Note_on_c, 0, 72, 72
1, 7758, Control_c, 0, 64, 82
1, 7758, Control_c, 0, 67, 46
1, 7762, Note_on_c, 0, 65, 50
1, 7765, Note_on_c, 0, 57, 46
1, 7773, Control_c, 0, 64, 65
1, 7778, Note_off_c, 0, 77, 37
1, 7784, Note_off_c, 0, 58, 39
1, 7788, Control_c, 0, 64, 0
1, 7788, Control_c, 0, 67, 45
1, 7803, Control_c, 0, 67, 45
1, 7818, Control_c, 0, 67, 44
1, 7832, Control_c, 0, 67, 43
1, 7847, Control_c, 0, 67, 42
1, 7860, Note_off_c, 0, 74, 57
1, 7862, Control_c, 0, 67, 40
1, 7876, Control_c, 0, 67, 38
1, 7891, Control_c, 0, 64, 56
1, 7891, Control_c, 0, 67, 36
1, 7906, Control_c, 0, 64, 68
1, 7906, Control_c, 0, 67, 34
1, 7921, Control_c, 0, 64, 79
1, 7921, Control_c, 0, 67, 29
1, 7936, Control_c, 0, 64, 97
1, 7936, Control_c, 0, 67, 20
1, 7944, Note_off_c, 0, 72, 61
1, 7950, Control_c, 0, 64, 127
1, 7950, Control_c, 0, 67, 10
1, 7965, Control_c, 0, 67, 0
1, 8070, Note_off_c, 0, 57, 41
1, 8278, Control_c, 0, 64, 93
1, 8283, Note_on_c, 0, 69, 55
1, 8298, Control_c, 0, 64, 75
1, 8307, Note_off_c, 0, 65, 46
1, 8310, Note_on_c, 0, 64, 44
1, 8313, Control_c, 0, 64, 53
1, 8317, Note_on_c, 0, 48, 40
1, 8328, Control_c, 0, 64, 0
1, 8330, Note_on_c, 0, 57, 31
1, 8373, Control_c, 0, 67, 8
1, 8388, Control_c, 0, 64, 61
1, 8388, Control_c, 0, 67, 9
1, 8403, Control_c, 0, 64, 70
1, 8403, Control_c, 0, 67, 10
1, 8412, Note_off_c, 0, 57, 51
1, 8418, Control_c, 0, 64, 81
1, 8418, Control_c, 0, 67, 12
1, 8433, Control_c, 0, 64, 98
1, 8433, Control_c, 0, 67, 14
1, 8447, Control_c, 0, 64, 127
1, 8447, Control_c, 0, 67, 16
1, 8462, Control_c, 0, 67, 19
1, 8477, Control_c, 0, 67, 22
1, 8491, Control_c, 0, 67, 25
1, 8506, Control_c, 0, 67, 29
1, 8521, Control_c, 0, 67, 32
1, 8536, Control_c, 0, 67, 35
1, 8551, Control_c, 0, 67, 38
1, 8565, Control_c, 0, 67, 41
1, 8580, Control_c, 0, 67, 44
1, 8595, Control_c, 0, 64, 123
1, 8595, Control_c, 0, 67, 46
1, 8600, Note_off_c, 0, 64, 62
1, 8610, Control_c, 0, 64, 92
1, 8610, Control_c, 0, 67, 48
1, 8613, Note_on_c, 0, 65, 57
1, 8625, Control_c, 0, 64, 75
1, 8625, Control_c, 0, 67, 52
1, 8632, Note_off_c, 0, 48, 42
1, 8638, Note_on_c, 0, 60, 37
1, 8640, Control_c, 0, 64, 57
1, 8640, Control_c, 0, 67, 55
1, 8647, Note_on_c, 0, 50, 32
1, 8654, Control_c, 0, 64, 0
1, 8654, Control_c, 0, 67, 57
1, 8665, Note_on_c, 0, 57, 33
1, 8669, Control_c, 0, 67, 60
1, 8684, Control_c, 0, 67, 62
1, 8691, Note_off_c, 0, 69, 38
1, 8698, Control_c, 0, 67, 65
1, 8713, Control_c, 0, 67, 67
1, 8728, Control_c, 0, 67, 70
1, 8743, Control_c, 0, 67, 73
1, 8758, Control_c, 0, 67, 76
1, 8774, Control_c, 0, 64, 28
1, 8774, Control_c, 0, 67, 79
1, 8789, Control_c, 0, 64, 62
1, 8789, Control_c, 0, 67, 83
1, 8803, Control_c, 0, 64, 70
1, 8803, Control_c, 0, 67, 86
1, 8818, Control_c, 0, 64, 80
1, 8818, Control_c, 0, 67, 90
1, 8833, Control_c, 0, 64, 96
1, 8833, Control_c, 0, 67, 93
1, 8841, Note_off_c, 0, 50, 51
1, 8848, Note_off_c, 0, 60, 53
1, 8848, Control_c, 0, 64, 127
1, 8848, Control_c, 0, 67, 97
1, 8863, Control_c, 0, 67, 100
1, 8877, Control_c, 0, 67, 104
1, 8892, Control_c, 0, 67, 107
1, 8907, Control_c, 0, 67, 110
1, 8921, Control_c, 0, 67, 114
1, 8925, Note_off_c, 0, 65, 61
1, 8936, Control_c, 0, 67, 119
1, 8951, Control_c, 0, 67, 123
1, 8966, Control_c, 0, 67, 127
1, 8981, Control_c, 0, 67, 127
1, 8982, Note_off_c, 0, 57, 34
1, 9167, Control_c, 0, 64, 106
1, 9182, Control_c, 0, 64, 87
1, 9196, Control_c, 0, 64, 72
1, 9200, Note_on_c, 0, 67, 52
1, 9211, Control_c, 0, 64, 52
1, 9212, Note_on_c, 0, 65, 37
1, 9214, Note_on_c, 0, 58, 37
1, 9222, Note_on_c, 0, 43, 36
1, 9226, Note_on_c, 0, 50, 31
1, 9226, Control_c, 0, 64, 0
1, 9300, Control_c, 0, 64, 59
1, 9315, Control_c, 0, 64, 70
1, 9330, Control_c, 0, 64, 80
1, 9345, Control_c, 0, 64, 96
1, 9360, Control_c, 0, 64, 127
1, 9360, Note_off_c, 0, 67, 55
1, 9362, Note_off_c, 0, 65, 56
1, 9384, Note_off_c, 0, 58, 36
1, 9568, Control_c, 0, 64, 97
1, 9569, Note_on_c, 0, 67, 47
1, 9574, Note_on_c, 0, 64, 41
1, 9580, Note_on_c, 0, 58, 34
1, 9583, Control_c, 0, 64, 82
1, 9594, Note_on_c, 0, 48, 41
1, 9598, Control_c, 0, 64, 67
1, 9613, Control_c, 0, 64, 0
1, 9626, Note_off_c, 0, 50, 48
1, 9643, Note_off_c, 0, 43, 39
1, 9760, Control_c, 0, 64, 59
1, 9775, Control_c, 0, 64, 69
1, 9798, Control_c, 0, 64, 80
1, 9813, Control_c, 0, 64, 92
1, 9827, Control_c, 0, 64, 111
1, 9842, Control_c, 0, 64, 127
1, 9890, Note_off_c, 0, 48, 40
1, 9906, Note_off_c, 0, 64, 36
1, 9936, Note_off_c, 0, 58, 43
1, 10227, Control_c, 0, 64, 95
1, 10230, Note_on_c, 0, 62, 38
1, 10242, Control_c, 0, 64, 77
1, 10254, Note_on_c, 0, 58, 21
1, 10257, Control_c, 0, 64, 63
1, 10261, Note_on_c, 0, 48, 27
1, 10271, Control_c, 0, 64, 33
1, 10286, Control_c, 0, 64, 48
1, 10301, Control_c, 0, 64, 62
1, 10316, Control_c, 0, 64, 68
1, 10331, Control_c, 0, 64, 77
1, 10345, Control_c, 0, 64, 90
1, 10361, Control_c, 0, 64, 127
1, 10376, Control_c, 0, 67, 122
1, 10391, Control_c, 0, 67, 112
1, 10406, Control_c, 0, 67, 101
1, 10421, Control_c, 0, 67, 89
1, 10427, Note_off_c, 0, 58, 42
1, 10435, Control_c, 0, 67, 75
1, 10450, Control_c, 0, 67, 61
1, 10465, Control_c, 0, 67, 48
1, 10480, Control_c, 0, 67, 37
1, 10494, Control_c, 0, 67, 29
1, 10509, Control_c, 0, 67, 21
1, 10524, Control_c, 0, 67, 14
1, 10546, Control_c, 0, 67, 0
1, 10679, Note_on_c, 0, 69, 55
1, 10680, Control_c, 0, 64, 105
1, 10689, Note_off_c, 0, 62, 46
1, 10694, Control_c, 0, 64, 86
1, 10697, Note_on_c, 0, 41, 34
1, 10704, Note_on_c, 0, 60, 31
1, 10707, Note_off_c, 0, 48, 40
1, 10709, Control_c, 0, 64, 72
1, 10724, Control_c, 0, 64, 52
1, 10726, Note_off_c, 0, 67, 57
1, 10728, Note_on_c, 0, 53, 24
1, 10739, Control_c, 0, 64, 0
1, 10828, Control_c, 0, 64, 57
1, 10842, Control_c, 0, 64, 69
1, 10857, Control_c, 0, 64, 77
1, 10872, Control_c, 0, 64, 89
1, 10887, Control_c, 0, 64, 108
1, 10901, Control_c, 0, 64, 127
1, 10960, Note_off_c, 0, 69, 61
1, 10969, Note_off_c, 0, 60, 45
1, 10985, Note_off_c, 0, 41, 40
1, 10991, Note_off_c, 0, 53, 44
1, 11214, Control_c, 0, 64, 98
1, 11223, Note_on_c, 0, 70, 61
1, 11229, Control_c, 0, 64, 80
1, 11244, Control_c, 0, 64, 66
1, 11251, Note_on_c, 0, 46, 36
1, 11257, Note_on_c, 0, 53, 30
1, 11258, Note_on_c, 0, 62, 41
1, 11258, Control_c, 0, 64, 0
1, 11310, Control_c, 0, 64, 56
1, 11324, Control_c, 0, 64, 66
1, 11339, Control_c, 0, 64, 75
1, 11345, Note_off_c, 0, 62, 54
1, 11354, Control_c, 0, 64, 87
1, 11369, Control_c, 0, 64, 110
1, 11376, Note_off_c, 0, 53, 38
1, 11384, Control_c, 0, 64, 127
1, 11554, Note_off_c, 0, 46, 37
1, 11559, Note_on_c, 0, 69, 56
1, 11562, Control_c, 0, 64, 105
1, 11577, Control_c, 0, 64, 85
1, 11591, Control_c, 0, 64, 69
1, 11592, Note_on_c, 0, 60, 35
1, 11597, Note_on_c, 0, 53, 31
1, 11599, Note_off_c, 0, 70, 55
1, 11606, Note_on_c, 0, 48, 29
1, 11606, Control_c, 0, 64, 0
1, 11665, Control_c, 0, 67, 9
1, 11680, Control_c, 0, 67, 11
1, 11695, Control_c, 0, 67, 12
1, 11710, Control_c, 0, 67, 14
1, 11724, Control_c, 0, 64, 58
1, 11724, Control_c, 0, 67, 16
1, 11739, Control_c, 0, 64, 67
1, 11739, Control_c, 0, 67, 19
1, 11754, Control_c, 0, 64, 74
1, 11754, Control_c, 0, 67, 22
1, 11769, Control_c, 0, 64, 83
1, 11769, Control_c, 0, 67, 25
1, 11784, Control_c, 0, 64, 98
1, 11784, Control_c, 0, 67, 28
1, 11798, Control_c, 0, 64, 121
1, 11798, Control_c, 0, 67, 30
1, 11813, Control_c, 0, 64, 127
1, 11813, Control_c, 0, 67, 33
1, 11828, Control_c, 0, 67, 36
1, 11843, Control_c, 0, 67, 39
1, 11858, Control_c, 0, 67, 41
1, 11872, Control_c, 0, 67, 44
1, 11887, Control_c, 0, 67, 46
1, 11888, Note_off_c, 0, 53, 45
1, 11902, Control_c, 0, 67, 48
1, 11915, Note_off_c, 0, 48, 41
1, 11917, Control_c, 0, 67, 50
1, 11932, Control_c, 0, 67, 52
1, 11947, Control_c, 0, 67, 54
1, 11962, Control_c, 0, 67, 56
1, 11977, Control_c, 0, 67, 59
1, 11992, Control_c, 0, 67, 61
1, 12007, Control_c, 0, 67, 62
1, 12022, Control_c, 0, 67, 64
1, 12044, Control_c, 0, 67, 65
1, 12059, Control_c, 0, 67, 66
1, 12074, Control_c, 0, 67, 68
1, 12088, Control_c, 0, 67, 70
1, 12103, Control_c, 0, 64, 112
1, 12103, Control_c, 0, 67, 73
1, 12118, Control_c, 0, 64, 91
1, 12118, Control_c, 0, 67, 76
1, 12126, Note_on_c, 0, 65, 52
1, 12133, Control_c, 0, 64, 74
1, 12133, Control_c, 0, 67, 79
1, 12140, Note_off_c, 0, 60, 50
1, 12146, Note_on_c, 0, 62, 38
1, 12147, Control_c, 0, 64, 56
1, 12147, Control_c, 0, 67, 81
1, 12153, Note_on_c, 0, 46, 32
1, 12158, Note_off_c, 0, 69, 56
1, 12162, Control_c, 0, 64, 0
1, 12162, Control_c, 0, 67, 83
1, 12176, Note_on_c, 0, 53, 20
1, 12177, Control_c, 0, 67, 84
1, 12192, Control_c, 0, 67, 85
1, 12221, Control_c, 0, 64, 55
1, 12236, Control_c, 0, 64, 68
1, 12251, Control_c, 0, 64, 78
1, 12252, Note_off_c, 0, 53, 56
1, 12266, Control_c, 0, 64, 97
1, 12281, Control_c, 0, 64, 127
1, 12282, Note_off_c, 0, 46, 43
1, 12370, Control_c, 0, 67, 85
1, 12459, Control_c, 0, 64, 103
1, 12464, Note_on_c, 0, 69, 59
1, 12473, Control_c, 0, 64, 83
1, 12487, Note_on_c, 0, 60, 39
1, 12488, Control_c, 0, 64, 66
1, 12490, Note_on_c, 0, 48, 36
1, 12493, Note_on_c, 0, 53, 34
1, 12503, Control_c, 0, 64, 0
1, 12509, Note_off_c, 0, 62, 51
1, 12514, Note_off_c, 0, 65, 61
1, 12607, Control_c, 0, 64, 55
1, 12621, Control_c, 0, 64, 67
1, 12636, Control_c, 0, 64, 78
1, 12651, Control_c, 0, 64, 91
1, 12665, Control_c, 0, 64, 116
1, 12680, Control_c, 0, 64, 127
1, 12699, Note_off_c, 0, 60, 53
1, 12760, Note_off_c, 0, 48, 41
1, 12763, Note_off_c, 0, 69, 62
1, 12793, Note_off_c, 0, 53, 44
1, 13000, Control_c, 0, 64, 104
1, 13015, Control_c, 0, 64, 84
1, 13017, Note_on_c, 0, 70, 61
1, 13030, Control_c, 0, 64, 65
1, 13045, Note_on_c, 0, 58, 42
1, 13045, Control_c, 0, 64, 0
1, 13049, Note_on_c, 0, 53, 37
1, 13053, Note_on_c, 0, 50, 33
1, 13104, Control_c, 0, 64, 53
1, 13119, Control_c, 0, 64, 68
1, 13134, Control_c, 0, 64, 79
1, 13149, Control_c, 0, 64, 96
1, 13163, Control_c, 0, 64, 127
1, 13193, Note_off_c, 0, 53, 36
1, 13199, Note_off_c, 0, 58, 59
1, 13253, Control_c, 0, 67, 84
1, 13327, Control_c, 0, 64, 108
1, 13335, Note_on_c, 0, 69, 64
1, 13342, Control_c, 0, 64, 86
1, 13356, Note_on_c, 0, 53, 32
1, 13356, Control_c, 0, 64, 68
1, 13360, Note_on_c, 0, 60, 39
1, 13371, Control_c, 0, 64, 0
1, 13375, Note_off_c, 0, 50, 45
1, 13379, Note_on_c, 0, 48, 36
1, 13394, Note_off_c, 0, 70, 61
1, 13489, Control_c, 0, 67, 83
1, 13504, Control_c, 0, 64, 49
1, 13504, Control_c, 0, 67, 81
1, 13519, Control_c, 0, 64, 66
1, 13519, Control_c, 0, 67, 80
1, 13542, Control_c, 0, 64, 77
1, 13542, Control_c, 0, 67, 79
1, 13557, Control_c, 0, 64, 91
1, 13557, Control_c, 0, 67, 78
1, 13559, Note_off_c, 0, 53, 51
1, 13572, Control_c, 0, 64, 127
1, 13572, Control_c, 0, 67, 77
1, 13601, Note_off_c, 0, 48, 51
1, 13646, Control_c, 0, 67, 77
1, 13691, Control_c, 0, 67, 78
1, 13720, Control_c, 0, 67, 78
1, 13767, Note_on_c, 0, 67, 57
1, 13780, Control_c, 0, 67, 79
1, 13800, Note_off_c, 0, 60, 46
1, 13809, Control_c, 0, 67, 79
1, 13824, Control_c, 0, 67, 80
1, 13838, Control_c, 0, 67, 80
1, 13853, Control_c, 0, 64, 113
1, 13853, Control_c, 0, 67, 81
1, 13868, Control_c, 0, 64, 90
1, 13868, Control_c, 0, 67, 81
1, 13883, Control_c, 0, 64, 70
1, 13888, Note_off_c, 0, 69, 51
1, 13898, Control_c, 0, 64, 0
1, 13899, Note_on_c, 0, 65, 57
1, 13912, Control_c, 0, 67, 82
1, 13918, Note_on_c, 0, 62, 43
1, 13928, Note_on_c, 0, 46, 33
1, 13933, Note_off_c, 0, 67, 59
1, 13938, Note_on_c, 0, 53, 28
1, 13977, Note_off_c, 0, 62, 50
1, 14001, Control_c, 0, 64, 31
1, 14016, Control_c, 0, 64, 64
1, 14031, Control_c, 0, 64, 74
1, 14046, Control_c, 0, 64, 86
1, 14059, Note_off_c, 0, 53, 37
1, 14060, Control_c, 0, 64, 107
1, 14068, Note_off_c, 0, 46, 38
1, 14075, Control_c, 0, 64, 127
1, 14135, Control_c, 0, 67, 81
1, 14238, Control_c, 0, 67, 82
1, 14245, Note_on_c, 0, 69, 57
1, 14253, Control_c, 0, 64, 106
1, 14268, Note_on_c, 0, 60, 42
1, 14268, Control_c, 0, 64, 84
1, 14270, Note_on_c, 0, 48, 39
1, 14287, Note_off_c, 0, 65, 61
1, 14290, Control_c, 0, 64, 68
1, 14299, Note_on_c, 0, 53, 33
1, 14305, Control_c, 0, 64, 0
1, 14320, Control_c, 0, 67, 82
1, 14410, Control_c, 0, 64, 61
1, 14424, Control_c, 0, 64, 70
1, 14439, Control_c, 0, 64, 81
1, 14454, Control_c, 0, 64, 101
1, 14469, Control_c, 0, 64, 127
1, 14500, Note_off_c, 0, 60, 38
1, 14522, Note_off_c, 0, 69, 62
1, 14551, Note_off_c, 0, 48, 41
1, 14576, Note_off_c, 0, 53, 45
1, 14632, Control_c, 0, 67, 83
1, 14721, Control_c, 0, 67, 83
1, 14735, Control_c, 0, 67, 84
1, 14765, Control_c, 0, 67, 84
1, 14795, Control_c, 0, 64, 103
1, 14809, Note_on_c, 0, 70, 61
1, 14809, Control_c, 0, 64, 82
1, 14824, Control_c, 0, 64, 64
1, 14824, Control_c, 0, 67, 85
1, 14827, Note_on_c, 0, 58, 45
1, 14839, Control_c, 0, 64, 0
1, 14840, Note_on_c, 0, 50, 30
1, 14848, Note_on_c, 0, 53, 35
1, 14854, Control_c, 0, 67, 85
1, 14883, Control_c, 0, 67, 86
1, 14913, Control_c, 0, 64, 53
1, 14928, Control_c, 0, 64, 69
1, 14939, Note_off_c, 0, 53, 53
1, 14943, Control_c, 0, 64, 80
1, 14958, Control_c, 0, 64, 99
1, 14973, Control_c, 0, 64, 127
1, 14999, Note_off_c, 0, 58, 60
1, 15002, Control_c, 0, 67, 86
1, 15128, Control_c, 0, 64, 116
1, 15143, Control_c, 0, 64, 90
1, 15143, Control_c, 0, 67, 87
1, 15145, Note_on_c, 0, 69, 63
1, 15158, Control_c, 0, 64, 72
1, 15172, Note_on_c, 0, 60, 38
1, 15172, Note_off_c, 0, 50, 45
1, 15173, Control_c, 0, 64, 26
1, 15185, Note_on_c, 0, 53, 37
1, 15188, Control_c, 0, 64, 0
1, 15193, Note_on_c, 0, 48, 34
1, 15193, Note_off_c, 0, 70, 60
1, 15262, Control_c, 0, 67, 86
1, 15277, Control_c, 0, 67, 83
1, 15292, Control_c, 0, 64, 28
1, 15292, Control_c, 0, 67, 81
1, 15306, Control_c, 0, 64, 66
1, 15306, Control_c, 0, 67, 77
1, 15321, Control_c, 0, 64, 77
1, 15321, Control_c, 0, 67, 74
1, 15328, Note_off_c, 0, 48, 55
1, 15336, Control_c, 0, 64, 93
1, 15336, Control_c, 0, 67, 72
1, 15351, Control_c, 0, 64, 127
1, 15351, Control_c, 0, 67, 69
1, 15354, Note_off_c, 0, 53, 62
1, 15366, Control_c, 0, 67, 60
1, 15381, Control_c, 0, 67, 50
1, 15396, Control_c, 0, 67, 39
1, 15411, Control_c, 0, 67, 28
1, 15426, Control_c, 0, 67, 18
1, 15440, Control_c, 0, 67, 9
1, 15455, Control_c, 0, 67, 0
1, 15457, Note_off_c, 0, 60, 31
1, 15557, Note_on_c, 0, 67, 53
1, 15662, Control_c, 0, 64, 106
1, 15670, Note_off_c, 0, 69, 38
1, 15677, Control_c, 0, 64, 82
1, 15691, Control_c, 0, 64, 66
1, 15697, Note_on_c, 0, 65, 52
1, 15706, Control_c, 0, 64, 0
1, 15714, Note_on_c, 0, 48, 38
1, 15721, Note_on_c, 0, 57, 34
1, 15721, Note_off_c, 0, 67, 52
1, 15723, Note_on_c, 0, 60, 37
1, 15751, Control_c, 0, 67, 9
1, 15766, Control_c, 0, 67, 13
1, 15789, Control_c, 0, 64, 39
1, 15789, Control_c, 0, 67, 18
1, 15804, Control_c, 0, 64, 65
1, 15804, Control_c, 0, 67, 23
1, 15812, Note_off_c, 0, 57, 61
1, 15815, Note_off_c, 0, 48, 56
1, 15818, Control_c, 0, 64, 74
1, 15818, Control_c, 0, 67, 27
1, 15833, Control_c, 0, 64, 86
1, 15833, Control_c, 0, 67, 30
1, 15835, Note_off_c, 0, 60, 53
1, 15848, Control_c, 0, 64, 104
1, 15848, Control_c, 0, 67, 34
1, 15863, Control_c, 0, 64, 127
1, 15863, Control_c, 0, 67, 38
1, 15878, Control_c, 0, 67, 43
1, 15892, Control_c, 0, 67, 47
1, 15907, Control_c, 0, 67, 50
1, 15922, Control_c, 0, 67, 54
1, 15937, Control_c, 0, 67, 57
1, 15952, Control_c, 0, 67, 60
1, 15968, Control_c, 0, 67, 62
1, 15982, Control_c, 0, 67, 64
1, 15997, Control_c, 0, 67, 66
1, 16012, Control_c, 0, 67, 69
1, 16027, Control_c, 0, 67, 70
1, 16042, Control_c, 0, 67, 72
1, 16052, Note_on_c, 0, 67, 58
1, 16057, Control_c, 0, 64, 100
1, 16057, Control_c, 0, 67, 74
1, 16068, Note_on_c, 0, 62, 37
1, 16070, Note_off_c, 0, 65, 55
1, 16071, Control_c, 0, 64, 79
1, 16071, Control_c, 0, 67, 76
1, 16079, Note_on_c, 0, 48, 36
1, 16086, Control_c, 0, 64, 65
1, 16086, Control_c, 0, 67, 78
1, 16091, Note_on_c, 0, 58, 30
1, 16101, Control_c, 0, 64, 0
1, 16101, Control_c, 0, 67, 80
1, 16115, Control_c, 0, 67, 82
1, 16130, Control_c, 0, 67, 84
1, 16145, Control_c, 0, 67, 85
1, 16160, Control_c, 0, 67, 86
1, 16175, Control_c, 0, 67, 87
1, 16189, Control_c, 0, 67, 88
1, 16234, Control_c, 0, 64, 34
1, 16248, Control_c, 0, 64, 65
1, 16263, Control_c, 0, 64, 77
1, 16278, Control_c, 0, 64, 92
1, 16293, Control_c, 0, 64, 127
1, 16300, Note_off_c, 0, 48, 40
1, 16343, Note_off_c, 0, 62, 36
1, 16368, Note_off_c, 0, 58, 43
1, 16611, Control_c, 0, 67, 88
1, 16655, Control_c, 0, 64, 97
1, 16670, Control_c, 0, 64, 78
1, 16685, Control_c, 0, 64, 61
1, 16685, Control_c, 0, 67, 89
1, 16687, Note_on_c, 0, 64, 34
1, 16699, Note_on_c, 0, 48, 28
1, 16699, Note_on_c, 0, 60, 26
1, 16700, Control_c, 0, 64, 0
1, 16705, Note_on_c, 0, 58, 24
1, 16744, Control_c, 0, 64, 19
1, 16760, Control_c, 0, 64, 62
1, 16775, Note_off_c, 0, 67, 39
1, 16775, Control_c, 0, 64, 71
1, 16790, Control_c, 0, 64, 82
1, 16804, Control_c, 0, 64, 98
1, 16819, Control_c, 0, 64, 127
1, 16857, Note_off_c, 0, 58, 44
1, 16863, Note_off_c, 0, 48, 42
1, 16877, Note_off_c, 0, 60, 41
1, 16877, Note_off_c, 0, 64, 43
1, 16878, Control_c, 0, 67, 88
1, 17097, Note_on_c, 0, 65, 41
1, 17116, Control_c, 0, 64, 122
1, 17120, Note_on_c, 0, 60, 32
1, 17130, Control_c, 0, 64, 94
1, 17132, Note_on_c, 0, 57, 31
1, 17143, Note_on_c, 0, 53, 27
1, 17145, Control_c, 0, 64, 78
1, 17160, Control_c, 0, 64, 63
1, 17175, Control_c, 0, 64, 0
1, 17331, Control_c, 0, 64, 59
1, 17331, Control_c, 0, 67, 87
1, 17345, Control_c, 0, 64, 68
1, 17345, Control_c, 0, 67, 86
1, 17360, Control_c, 0, 64, 78
1, 17360, Control_c, 0, 67, 85
1, 17375, Control_c, 0, 64, 93
1, 17375, Control_c, 0, 67, 83
1, 17389, Control_c, 0, 64, 127
1, 17389, Control_c, 0, 67, 81
1, 17404, Control_c, 0, 67, 80
1, 17419, Control_c, 0, 67, 78
1, 17434, Control_c, 0, 67, 77
1, 17443, Note_off_c, 0, 60, 43
1, 17449, Control_c, 0, 67, 75
1, 17463, Control_c, 0, 67, 72
1, 17473, Note_off_c, 0, 53, 40
1, 17478, Control_c, 0, 67, 67
1, 17493, Control_c, 0, 67, 62
1, 17505, Note_off_c, 0, 57, 42
1, 17508, Control_c, 0, 67, 55
1, 17523, Control_c, 0, 67, 46
1, 17537, Control_c, 0, 67, 37
1, 17552, Control_c, 0, 67, 29
1, 17568, Control_c, 0, 67, 20
1, 17583, Control_c, 0, 67, 13
1, 17598, Control_c, 0, 67, 0
1, 17778, Note_on_c, 0, 60, 17
1, 17804, Note_on_c, 0, 57, 20
1, 17819, Note_on_c, 0, 53, 17
1, 17862, Note_off_c, 0, 60, 42
1, 17868, Note_off_c, 0, 65, 51
1, 17881, Note_off_c, 0, 53, 54
1, 17900, Note_off_c, 0, 57, 49
1, 18255, Note_on_c, 0, 72, 53
1, 18256, Control_c, 0, 64, 98
1, 18271, Control_c, 0, 64, 82
1, 18281, Note_on_c, 0, 65, 37
1, 18281, Note_on_c, 0, 69, 36
1, 18285, Control_c, 0, 64, 67
1, 18294, Note_on_c, 0, 60, 22
1, 18299, Note_on_c, 0, 53, 27
1, 18300, Control_c, 0, 64, 0
1, 18390, Control_c, 0, 64, 49
1, 18405, Control_c, 0, 64, 66
1, 18420, Control_c, 0, 64, 74
1, 18434, Control_c, 0, 64, 86
1, 18449, Control_c, 0, 64, 117
1, 18460, Note_off_c, 0, 53, 48
1, 18464, Control_c, 0, 64, 127
1, 18469, Note_off_c, 0, 60, 44
1, 18499, Note_off_c, 0, 65, 56
1, 18502, Note_off_c, 0, 69, 59
1, 18824, Note_on_c, 0, 69, 32
1, 18834, Note_on_c, 0, 65, 22
1, 18855, Note_on_c, 0, 60, 16
1, 18860, Note_on_c, 0, 53, 27
1, 18913, Note_off_c, 0, 53, 49
1, 18924, Note_off_c, 0, 60, 45
1, 19137, Note_on_c, 0, 60, 35
1, 19146, Note_on_c, 0, 53, 32
1, 19186, Note_off_c, 0, 65, 43
1, 19245, Note_off_c, 0, 72, 54
1, 19298, Note_off_c, 0, 69, 42
1, 19300, Note_off_c, 0, 53, 38
1, 19304, Note_off_c, 0, 60, 37
1, 19576, Control_c, 0, 67, 9
1, 19591, Control_c, 0, 67, 10
1, 19605, Control_c, 0, 67, 11
1, 19620, Control_c, 0, 67, 14
1, 19635, Control_c, 0, 67, 17
1, 19637, Note_on_c, 0, 72, 60
1, 19650, Control_c, 0, 67, 22
1, 19665, Control_c, 0, 67, 28
1, 19672, Note_on_c, 0, 65, 42
1, 19674, Note_on_c, 0, 60, 28
1, 19679, Note_on_c, 0, 53, 32
1, 19679, Note_on_c, 0, 69, 37
1, 19679, Control_c, 0, 67, 32
1, 19694, Control_c, 0, 67, 36
1, 19709, Control_c, 0, 67, 40
1, 19718, Note_off_c, 0, 65, 56
1, 19724, Control_c, 0, 67, 44
1, 19733, Note_off_c, 0, 53, 58
1, 19739, Control_c, 0, 67, 46
1, 19741, Note_off_c, 0, 60, 55
1, 19744, Note_off_c, 0, 69, 54
1, 19754, Control_c, 0, 67, 49
1, 19769, Control_c, 0, 67, 49
1, 19783, Control_c, 0, 67, 50
1, 19796, Note_off_c, 0, 72, 55
1, 19917, Control_c, 0, 67, 49
1, 19958, Note_on_c, 0, 72, 66
1, 19962, Control_c, 0, 64, 98
1, 19977, Control_c, 0, 64, 78
1, 19977, Control_c, 0, 67, 49
1, 19991, Note_on_c, 0, 67, 41
1, 19992, Control_c, 0, 64, 62
1, 19992, Note_on_c, 0, 53, 31
1, 20001, Note_on_c, 0, 60, 28
1, 20007, Control_c, 0, 64, 0
1, 20010, Note_on_c, 0, 70, 30
1, 20022, Control_c, 0, 67, 48
1, 20036, Control_c, 0, 67, 47
1, 20051, Control_c, 0, 67, 46
1, 20066, Control_c, 0, 64, 60
1, 20066, Control_c, 0, 67, 45
1, 20080, Control_c, 0, 64, 70
1, 20080, Control_c, 0, 67, 44
1, 20095, Control_c, 0, 64, 81
1, 20095, Control_c, 0, 67, 43
1, 20110, Control_c, 0, 64, 101
1, 20110, Control_c, 0, 67, 42
1, 20120, Note_off_c, 0, 67, 51
1, 20125, Control_c, 0, 64, 127
1, 20125, Control_c, 0, 67, 40
1, 20140, Control_c, 0, 67, 39
1, 20154, Control_c, 0, 67, 37
1, 20169, Control_c, 0, 67, 35
1, 20184, Control_c, 0, 67, 33
1, 20198, Note_off_c, 0, 72, 59
1, 20199, Control_c, 0, 67, 29
1, 20210, Note_off_c, 0, 70, 41
1, 20214, Control_c, 0, 67, 23
1, 20219, Note_off_c, 0, 53, 46
1, 20225, Note_off_c, 0, 60, 45
1, 20228, Control_c, 0, 67, 15
1, 20243, Control_c, 0, 67, 0
1, 20471, Note_on_c, 0, 72, 68
1, 20511, Note_on_c, 0, 60, 30
1, 20521, Note_on_c, 0, 53, 26
1, 20564, Poly_aftertouch_c, 0, 67, 127
1, 20580, Note_off_c, 0, 53, 55
1, 20591, Note_off_c, 0, 60, 54
1, 20605, Poly_aftertouch_c, 0, 67, 0
1, 20800, Control_c, 0, 64, 107
1, 20815, Control_c, 0, 64, 83
1, 20815, Note_on_c, 0, 76, 67
1, 20829, Control_c, 0, 64, 67
1, 20842, Note_on_c, 0, 53, 33
1, 20842, Note_on_c, 0, 67, 35
1, 20844, Control_c, 0, 64, 0
1, 20848, Note_on_c, 0, 60, 31
1, 20880, Note_on_c, 0, 70, 30
1, 20900, Note_off_c, 0, 72, 50
1, 20948, Control_c, 0, 64, 61
1, 20963, Control_c, 0, 64, 71
1, 20977, Control_c, 0, 64, 83
1, 20992, Control_c, 0, 64, 104
1, 21007, Control_c, 0, 64, 127
1, 21026, Note_off_c, 0, 67, 41
1, 21063, Note_off_c, 0, 70, 42
1, 21086, Note_off_c, 0, 53, 42
1, 21095, Note_off_c, 0, 60, 55
1, 21230, Note_on_c, 0, 74, 69
1, 21340, Control_c, 0, 64, 100
1, 21355, Control_c, 0, 64, 80
1, 21360, Note_on_c, 0, 72, 71
1, 21367, Note_off_c, 0, 76, 52
1, 21370, Control_c, 0, 64, 63
1, 21373, Note_on_c, 0, 53, 38
1, 21385, Control_c, 0, 64, 0
1, 21386, Note_on_c, 0, 60, 25
1, 21414, Note_on_c, 0, 67, 25
1, 21436, Poly_aftertouch_c, 0, 70, 127
1, 21441, Note_off_c, 0, 74, 58
1, 21444, Control_c, 0, 64, 47
1, 21459, Control_c, 0, 64, 66
1, 21464, Note_off_c, 0, 67, 50
1, 21464, Poly_aftertouch_c, 0, 70, 0
1, 21474, Control_c, 0, 64, 77
1, 21488, Note_off_c, 0, 53, 60
1, 21489, Control_c, 0, 64, 96
1, 21503, Control_c, 0, 64, 127
1, 21535, Note_off_c, 0, 60, 44
1, 21697, Control_c, 0, 64, 112
1, 21705, Note_on_c, 0, 77, 66
1, 21712, Control_c, 0, 64, 89
1, 21723, Note_on_c, 0, 53, 42
1, 21726, Control_c, 0, 64, 73
1, 21730, Note_on_c, 0, 65, 35
1, 21733, Note_on_c, 0, 69, 40
1, 21734, Note_on_c, 0, 60, 29
1, 21741, Control_c, 0, 64, 49
1, 21756, Control_c, 0, 64, 0
1, 21802, Note_off_c, 0, 72, 57
1, 21897, Control_c, 0, 64, 54
1, 21912, Control_c, 0, 64, 66
1, 21926, Control_c, 0, 64, 73
1, 21941, Control_c, 0, 64, 80
1, 21956, Control_c, 0, 64, 90
1, 21971, Control_c, 0, 64, 106
1, 21986, Control_c, 0, 64, 127
1, 22031, Note_off_c, 0, 65, 43
1, 22097, Note_off_c, 0, 69, 49
1, 22121, Note_off_c, 0, 60, 43
1, 22341, Control_c, 0, 64, 111
1, 22350, Note_on_c, 0, 74, 60
1, 22356, Control_c, 0, 64, 89
1, 22371, Control_c, 0, 64, 71
1, 22380, Note_on_c, 0, 65, 35
1, 22382, Note_on_c, 0, 58, 40
1, 22386, Control_c, 0, 64, 21
1, 22386, Control_c, 0, 67, 8
1, 22400, Note_off_c, 0, 53, 59
1, 22401, Control_c, 0, 64, 0
1, 22401, Control_c, 0, 67, 8
1, 22416, Control_c, 0, 67, 9
1, 22446, Control_c, 0, 67, 9
1, 22490, Control_c, 0, 64, 49
1, 22505, Control_c, 0, 64, 68
1, 22528, Control_c, 0, 64, 81
1, 22528, Control_c, 0, 67, 9
1, 22543, Control_c, 0, 64, 114
1, 22543, Control_c, 0, 67, 8
1, 22557, Control_c, 0, 64, 127
1, 22594, Note_off_c, 0, 65, 38
1, 22679, Note_on_c, 0, 72, 68
1, 22690, Control_c, 0, 64, 95
1, 22690, Control_c, 0, 67, 9
1, 22700, Note_on_c, 0, 57, 47
1, 22702, Note_off_c, 0, 58, 53
1, 22705, Control_c, 0, 64, 76
1, 22705, Control_c, 0, 67, 9
1, 22707, Note_on_c, 0, 65, 50
1, 22720, Control_c, 0, 64, 43
1, 22725, Note_off_c, 0, 77, 38
1, 22735, Control_c, 0, 64, 0
1, 22765, Control_c, 0, 67, 10
1, 22803, Note_off_c, 0, 74, 57
1, 22854, Control_c, 0, 64, 60
1, 22869, Control_c, 0, 64, 71
1, 22869, Control_c, 0, 67, 9
1, 22883, Control_c, 0, 64, 85
1, 22896, Note_off_c, 0, 57, 57
1, 22898, Control_c, 0, 64, 127
1, 22904, Note_off_c, 0, 72, 60
1, 22913, Control_c, 0, 67, 10
1, 22928, Control_c, 0, 67, 10
1, 22943, Control_c, 0, 67, 11
1, 22957, Control_c, 0, 67, 11
1, 22972, Control_c, 0, 67, 12
1, 22987, Control_c, 0, 67, 14
1, 23001, Control_c, 0, 67, 17
1, 23016, Control_c, 0, 67, 19
1, 23031, Control_c, 0, 67, 21
1, 23046, Control_c, 0, 67, 24
1, 23061, Control_c, 0, 67, 28
1, 23075, Control_c, 0, 67, 31
1, 23090, Control_c, 0, 67, 33
1, 23105, Control_c, 0, 67, 35
1, 23120, Control_c, 0, 67, 37
1, 23135, Control_c, 0, 67, 38
1, 23151, Control_c, 0, 67, 40
1, 23166, Control_c, 0, 67, 42
1, 23180, Control_c, 0, 67, 44
1, 23195, Control_c, 0, 67, 46
1, 23210, Control_c, 0, 64, 108
1, 23210, Control_c, 0, 67, 48
1, 23215, Note_on_c, 0, 69, 58
1, 23224, Note_on_c, 0, 64, 54
1, 23224, Control_c, 0, 64, 85
1, 23224, Control_c, 0, 67, 50
1, 23230, Note_off_c, 0, 65, 51
1, 23234, Note_on_c, 0, 48, 42
1, 23239, Control_c, 0, 64, 66
1, 23239, Control_c, 0, 67, 52
1, 23254, Note_on_c, 0, 57, 35
1, 23254, Control_c, 0, 64, 0
1, 23254, Control_c, 0, 67, 54
1, 23276, Control_c, 0, 67, 56
1, 23291, Control_c, 0, 67, 58
1, 23305, Control_c, 0, 67, 60
1, 23320, Control_c, 0, 67, 61
1, 23335, Control_c, 0, 64, 51
1, 23335, Control_c, 0, 67, 62
1, 23350, Control_c, 0, 64, 68
1, 23350, Control_c, 0, 67, 62
1, 23364, Note_off_c, 0, 57, 54
1, 23365, Control_c, 0, 64, 79
1, 23365, Control_c, 0, 67, 63
1, 23379, Control_c, 0, 64, 98
1, 23379, Control_c, 0, 67, 64
1, 23394, Control_c, 0, 64, 127
1, 23394, Control_c, 0, 67, 65
1, 23409, Control_c, 0, 67, 67
1, 23423, Control_c, 0, 67, 68
1, 23438, Control_c, 0, 67, 70
1, 23453, Control_c, 0, 67, 73
1, 23468, Control_c, 0, 67, 76
1, 23483, Control_c, 0, 67, 79
1, 23498, Control_c, 0, 67, 82
1, 23513, Control_c, 0, 67, 87
1, 23528, Control_c, 0, 67, 92
1, 23537, Note_off_c, 0, 64, 61
1, 23539, Note_on_c, 0, 65, 56
1, 23543, Control_c, 0, 64, 96
1, 23543, Control_c, 0, 67, 100
1, 23553, Note_on_c, 0, 50, 43
1, 23557, Note_off_c, 0, 48, 41
1, 23558, Control_c, 0, 64, 77
1, 23558, Control_c, 0, 67, 106
1, 23565, Note_on_c, 0, 60, 38
1, 23567, Note_on_c, 0, 57, 30
1, 23572, Control_c, 0, 64, 58
1, 23572, Control_c, 0, 67, 112
1, 23587, Control_c, 0, 64, 0
1, 23587, Control_c, 0, 67, 117
1, 23602, Control_c, 0, 67, 121
1, 23609, Note_off_c, 0, 69, 46
1, 23617, Control_c, 0, 67, 124
1, 23631, Control_c, 0, 67, 126
1, 23646, Control_c, 0, 67, 127
1, 23720, Control_c, 0, 64, 29
1, 23735, Control_c, 0, 64, 64
1, 23745, Note_off_c, 0, 60, 57
1, 23747, Note_off_c, 0, 50, 63
1, 23750, Control_c, 0, 64, 73
1, 23765, Control_c, 0, 64, 88
1, 23779, Control_c, 0, 64, 114
1, 23794, Control_c, 0, 64, 127
1, 23835, Note_off_c, 0, 65, 62
1, 23882, Note_off_c, 0, 57, 41
1, 24099, Control_c, 0, 64, 93
1, 24112, Note_on_c, 0, 67, 55
1, 24114, Control_c, 0, 64, 75
1, 24116, Note_on_c, 0, 65, 44
1, 24123, Note_on_c, 0, 58, 43
1, 24128, Control_c, 0, 64, 55
1, 24135, Note_on_c, 0, 43, 35
1, 24143, Control_c, 0, 64, 0
1, 24149, Note_on_c, 0, 50, 34
1, 24246, Control_c, 0, 64, 63
1, 24261, Control_c, 0, 64, 72
1, 24276, Control_c, 0, 64, 84
1, 24291, Control_c, 0, 64, 101
1, 24294, Note_off_c, 0, 65, 54
1, 24296, Note_off_c, 0, 67, 58
1, 24306, Control_c, 0, 64, 127
1, 24318, Note_off_c, 0, 58, 34
1, 24469, Control_c, 0, 64, 112
1, 24482, Note_on_c, 0, 64, 45
1, 24484, Note_on_c, 0, 58, 38
1, 24484, Control_c, 0, 64, 90
1, 24487, Note_on_c, 0, 67, 49
1, 24499, Control_c, 0, 64, 75
1, 24507, Note_on_c, 0, 48, 40
1, 24514, Control_c, 0, 64, 64
1, 24528, Control_c, 0, 64, 0
1, 24554, Note_off_c, 0, 50, 35
1, 24568, Note_off_c, 0, 43, 42
1, 24661, Control_c, 0, 64, 11
1, 24676, Control_c, 0, 64, 62
1, 24691, Control_c, 0, 64, 71
1, 24706, Control_c, 0, 64, 83
1, 24720, Control_c, 0, 64, 98
1, 24735, Control_c, 0, 64, 127
1, 24819, Note_off_c, 0, 48, 40
1, 24820, Note_off_c, 0, 64, 36
1, 24827, Note_off_c, 0, 58, 36
1, 25129, Control_c, 0, 64, 115
1, 25132, Note_on_c, 0, 62, 36
1, 25143, Control_c, 0, 64, 90
1, 25154, Note_on_c, 0, 58, 30
1, 25158, Control_c, 0, 64, 73
1, 25163, Note_on_c, 0, 48, 32
1, 25173, Control_c, 0, 64, 55
1, 25188, Control_c, 0, 64, 0
1, 25218, Control_c, 0, 64, 24
1, 25233, Control_c, 0, 64, 57
1, 25248, Control_c, 0, 64, 66
1, 25262, Control_c, 0, 64, 74
1, 25277, Control_c, 0, 64, 85
1, 25292, Control_c, 0, 64, 107
1, 25307, Control_c, 0, 64, 127
1, 25355, Note_off_c, 0, 58, 42
1, 25582, Control_c, 0, 64, 123
1, 25587, Note_on_c, 0, 69, 57
1, 25597, Control_c, 0, 64, 95
1, 25598, Note_on_c, 0, 60, 38
1, 25612, Note_on_c, 0, 41, 34
1, 25612, Control_c, 0, 64, 78
1, 25623, Note_off_c, 0, 48, 41
1, 25626, Control_c, 0, 64, 64
1, 25632, Note_off_c, 0, 62, 38
1, 25634, Note_off_c, 0, 67, 56
1, 25641, Control_c, 0, 64, 0
1, 25646, Note_on_c, 0, 53, 13
1, 25716, Control_c, 0, 64, 45
1, 25731, Control_c, 0, 64, 65
1, 25746, Control_c, 0, 64, 73
1, 25761, Control_c, 0, 64, 87
1, 25775, Control_c, 0, 64, 110
1, 25775, Control_c, 0, 67, 121
1, 25790, Control_c, 0, 64, 127
1, 25790, Control_c, 0, 67, 114
1, 25805, Control_c, 0, 67, 104
1, 25819, Control_c, 0, 67, 91
1, 25834, Control_c, 0, 67, 78
1, 25849, Control_c, 0, 67, 64
1, 25864, Control_c, 0, 67, 54
1, 25872, Note_off_c, 0, 60, 57
1, 25877, Note_off_c, 0, 69, 62
1, 25879, Control_c, 0, 67, 44
1, 25893, Control_c, 0, 67, 34
1, 25908, Control_c, 0, 67, 26
1, 25920, Note_off_c, 0, 53, 43
1, 25923, Control_c, 0, 67, 16
1, 25938, Control_c, 0, 67, 0
1, 26130, Control_c, 0, 64, 122
1, 26142, Note_on_c, 0, 70, 57
1, 26145, Control_c, 0, 64, 89
1, 26160, Control_c, 0, 64, 73
1, 26163, Note_on_c, 0, 46, 37
1, 26165, Note_on_c, 0, 62, 39
1, 26175, Control_c, 0, 64, 56
1, 26180, Note_on_c, 0, 53, 14
1, 26190, Control_c, 0, 64, 0
1, 26229, Note_off_c, 0, 41, 37
1, 26234, Control_c, 0, 64, 39
1, 26249, Control_c, 0, 64, 63
1, 26271, Control_c, 0, 64, 71
1, 26286, Control_c, 0, 64, 83
1, 26300, Control_c, 0, 64, 105
1, 26302, Note_off_c, 0, 53, 0
1, 26315, Control_c, 0, 64, 127
1, 26324, Poly_aftertouch_c, 0, 53, 0
1, 26333, Note_off_c, 0, 62, 36
1, 26482, Note_on_c, 0, 69, 58
1, 26493, Note_on_c, 0, 60, 42
1, 26494, Control_c, 0, 64, 95
1, 26497, Note_on_c, 0, 48, 43
1, 26500, Note_off_c, 0, 46, 38
1, 26509, Control_c, 0, 64, 76
1, 26521, Note_on_c, 0, 53, 25
1, 26524, Control_c, 0, 64, 49
1, 26533, Note_off_c, 0, 70, 52
1, 26539, Control_c, 0, 64, 0
1, 26598, Control_c, 0, 67, 9
1, 26613, Control_c, 0, 67, 11
1, 26628, Control_c, 0, 67, 12
1, 26642, Control_c, 0, 64, 38
1, 26642, Control_c, 0, 67, 14
1, 26657, Control_c, 0, 64, 64
1, 26657, Control_c, 0, 67, 16
1, 26672, Control_c, 0, 64, 72
1, 26672, Control_c, 0, 67, 17
1, 26687, Control_c, 0, 64, 83
1, 26687, Control_c, 0, 67, 18
1, 26702, Control_c, 0, 64, 98
1, 26702, Control_c, 0, 67, 17
1, 26716, Control_c, 0, 64, 127
1, 26716, Control_c, 0, 67, 17
1, 26731, Control_c, 0, 67, 16
1, 26746, Control_c, 0, 67, 16
1, 26767, Note_off_c, 0, 48, 41
1, 26790, Control_c, 0, 67, 16
1, 26805, Control_c, 0, 67, 17
1, 26807, Note_off_c, 0, 53, 44
1, 26820, Control_c, 0, 67, 17
1, 26835, Control_c, 0, 67, 18
1, 26849, Control_c, 0, 67, 19
1, 26864, Control_c, 0, 67, 20
1, 26879, Control_c, 0, 67, 23
1, 26894, Control_c, 0, 67, 24
1, 26923, Control_c, 0, 67, 23
1, 26953, Control_c, 0, 67, 24
1, 26983, Control_c, 0, 67, 24
1, 26998, Control_c, 0, 67, 25
1, 27019, Control_c, 0, 67, 25
1, 27034, Control_c, 0, 67, 27
1, 27048, Control_c, 0, 64, 92
1, 27048, Control_c, 0, 67, 29
1, 27050, Note_on_c, 0, 65, 52
1, 27057, Note_off_c, 0, 60, 54
1, 27063, Control_c, 0, 64, 73
1, 27063, Control_c, 0, 67, 30
1, 27070, Note_on_c, 0, 62, 42
1, 27078, Control_c, 0, 64, 45
1, 27078, Control_c, 0, 67, 33
1, 27093, Note_on_c, 0, 46, 33
1, 27093, Control_c, 0, 64, 0
1, 27093, Control_c, 0, 67, 34
1, 27096, Note_off_c, 0, 69, 50
1, 27108, Control_c, 0, 67, 36
1, 27109, Note_on_c, 0, 53, 25
1, 27123, Control_c, 0, 67, 36
1, 27153, Control_c, 0, 64, 32
1, 27168, Control_c, 0, 64, 65
1, 27183, Control_c, 0, 64, 76
1, 27183, Control_c, 0, 67, 36
1, 27194, Note_off_c, 0, 53, 57
1, 27197, Control_c, 0, 64, 99
1, 27212, Control_c, 0, 64, 127
1, 27235, Note_off_c, 0, 46, 37
1, 27302, Control_c, 0, 67, 36
1, 27346, Control_c, 0, 67, 37
1, 27361, Control_c, 0, 67, 37
1, 27376, Control_c, 0, 64, 114
1, 27376, Control_c, 0, 67, 38
1, 27385, Note_on_c, 0, 69, 63
1, 27390, Control_c, 0, 64, 88
1, 27390, Control_c, 0, 67, 40
1, 27405, Control_c, 0, 64, 70
1, 27405, Control_c, 0, 67, 42
1, 27409, Note_on_c, 0, 48, 34
1, 27410, Note_off_c, 0, 62, 58
1, 27415, Note_on_c, 0, 60, 45
1, 27420, Control_c, 0, 64, 0
1, 27420, Control_c, 0, 67, 44
1, 27423, Note_on_c, 0, 53, 28
1, 27435, Control_c, 0, 67, 46
1, 27436, Note_off_c, 0, 65, 54
1, 27450, Control_c, 0, 67, 47
1, 27464, Control_c, 0, 67, 49
1, 27479, Control_c, 0, 67, 50
1, 27494, Control_c, 0, 67, 51
1, 27509, Control_c, 0, 67, 52
1, 27524, Control_c, 0, 67, 53
1, 27538, Control_c, 0, 64, 62
1, 27538, Control_c, 0, 67, 53
1, 27553, Control_c, 0, 64, 71
1, 27568, Control_c, 0, 64, 84
1, 27568, Control_c, 0, 67, 54
1, 27583, Control_c, 0, 64, 104
1, 27597, Control_c, 0, 64, 127
1, 27597, Control_c, 0, 67, 54
1, 27598, Note_off_c, 0, 60, 58
1, 27612, Control_c, 0, 67, 55
1, 27627, Control_c, 0, 67, 56
1, 27642, Control_c, 0, 67, 56
1, 27653, Note_off_c, 0, 69, 63
1, 27657, Control_c, 0, 67, 57
1, 27660, Note_off_c, 0, 48, 41
1, 27665, Note_off_c, 0, 53, 44
1, 27671, Control_c, 0, 67, 58
1, 27686, Control_c, 0, 67, 60
1, 27701, Control_c, 0, 67, 61
1, 27716, Control_c, 0, 67, 63
1, 27731, Control_c, 0, 67, 66
1, 27746, Control_c, 0, 67, 69
1, 27768, Control_c, 0, 67, 71
1, 27783, Control_c, 0, 67, 73
1, 27797, Control_c, 0, 67, 74
1, 27812, Control_c, 0, 67, 76
1, 27827, Control_c, 0, 67, 77
1, 27842, Control_c, 0, 67, 80
1, 27857, Control_c, 0, 67, 82
1, 27871, Control_c, 0, 67, 85
1, 27886, Control_c, 0, 67, 88
1, 27901, Control_c, 0, 67, 91
1, 27916, Control_c, 0, 67, 93
1, 27931, Control_c, 0, 64, 121
1, 27931, Control_c, 0, 67, 96
1, 27943, Note_on_c, 0, 70, 63
1, 27947, Control_c, 0, 64, 88
1, 27947, Control_c, 0, 67, 98
1, 27961, Control_c, 0, 64, 71
1, 27961, Control_c, 0, 67, 100
1, 27965, Note_on_c, 0, 50, 34
1, 27971, Note_on_c, 0, 53, 38
1, 27974, Note_on_c, 0, 58, 40
1, 27976, Control_c, 0, 64, 44
1, 27976, Control_c, 0, 67, 102
1, 27991, Control_c, 0, 64, 0
1, 27991, Control_c, 0, 67, 103
1, 28006, Control_c, 0, 67, 104
1, 28035, Control_c, 0, 64, 56
1, 28035, Control_c, 0, 67, 105
1, 28050, Control_c, 0, 64, 68
1, 28065, Control_c, 0, 64, 78
1, 28071, Note_off_c, 0, 53, 54
1, 28080, Control_c, 0, 64, 93
1, 28080, Control_c, 0, 67, 105
1, 28095, Control_c, 0, 64, 127
1, 28139, Note_off_c, 0, 58, 58
1, 28273, Control_c, 0, 64, 119
1, 28273, Control_c, 0, 67, 106
1, 28278, Note_on_c, 0, 69, 60
1, 28287, Control_c, 0, 64, 91
1, 28302, Control_c, 0, 64, 74
1, 28302, Control_c, 0, 67, 106
1, 28307, Note_on_c, 0, 60, 35
1, 28311, Note_off_c, 0, 50, 48
1, 28313, Note_on_c, 0, 48, 36
1, 28316, Note_on_c, 0, 53, 29
1, 28317, Control_c, 0, 64, 53
1, 28332, Control_c, 0, 64, 0
1, 28332, Control_c, 0, 67, 108
1, 28347, Control_c, 0, 67, 110
1, 28354, Note_off_c, 0, 70, 56
1, 28361, Control_c, 0, 67, 111
1, 28376, Control_c, 0, 67, 112
1, 28391, Control_c, 0, 67, 113
1, 28406, Control_c, 0, 67, 114
1, 28420, Control_c, 0, 67, 114
1, 28435, Control_c, 0, 67, 115
1, 28450, Control_c, 0, 64, 60
1, 28450, Control_c, 0, 67, 116
1, 28465, Control_c, 0, 64, 69
1, 28465, Control_c, 0, 67, 117
1, 28480, Control_c, 0, 64, 77
1, 28480, Control_c, 0, 67, 118
1, 28494, Control_c, 0, 64, 89
1, 28494, Control_c, 0, 67, 119
1, 28518, Control_c, 0, 64, 108
1, 28518, Control_c, 0, 67, 121
1, 28533, Control_c, 0, 64, 127
1, 28533, Control_c, 0, 67, 122
1, 28547, Control_c, 0, 67, 122
1, 28562, Control_c, 0, 67, 123
1, 28577, Control_c, 0, 67, 124
1, 28592, Control_c, 0, 67, 125
1, 28594, Note_off_c, 0, 53, 33
1, 28604, Note_off_c, 0, 48, 50
1, 28607, Control_c, 0, 67, 125
1, 28621, Control_c, 0, 67, 126
1, 28636, Control_c, 0, 67, 127
1, 28718, Note_on_c, 0, 67, 53
1, 28780, Note_off_c, 0, 60, 36
1, 28830, Control_c, 0, 64, 106
1, 28844, Control_c, 0, 64, 85
1, 28859, Control_c, 0, 64, 69
1, 28860, Note_off_c, 0, 69, 36
1, 28861, Note_on_c, 0, 65, 50
1, 28874, Control_c, 0, 64, 17
1, 28879, Note_off_c, 0, 67, 54
1, 28882, Note_on_c, 0, 62, 41
1, 28884, Note_on_c, 0, 46, 36
1, 28889, Control_c, 0, 64, 0
1, 28902, Note_on_c, 0, 53, 29
1, 28969, Note_off_c, 0, 62, 45
1, 28977, Control_c, 0, 64, 45
1, 28990, Note_off_c, 0, 53, 52
1, 28992, Control_c, 0, 64, 69
1, 29007, Control_c, 0, 64, 83
1, 29022, Control_c, 0, 64, 105
1, 29032, Note_off_c, 0, 46, 39
1, 29037, Control_c, 0, 64, 127
1, 29182, Note_on_c, 0, 69, 56
1, 29185, Control_c, 0, 64, 92
1, 29200, Control_c, 0, 64, 73
1, 29209, Note_on_c, 0, 60, 40
1, 29212, Note_on_c, 0, 48, 34
1, 29215, Control_c, 0, 64, 46
1, 29218, Note_off_c, 0, 65, 61
1, 29224, Note_on_c, 0, 53, 29
1, 29230, Control_c, 0, 64, 0
1, 29355, Control_c, 0, 64, 55
1, 29370, Control_c, 0, 64, 69
1, 29385, Control_c, 0, 64, 82
1, 29400, Control_c, 0, 64, 101
1, 29403, Note_off_c, 0, 60, 53
1, 29415, Control_c, 0, 64, 127
1, 29450, Note_off_c, 0, 69, 62
1, 29472, Note_off_c, 0, 48, 41
1, 29489, Note_off_c, 0, 53, 42
1, 29741, Control_c, 0, 64, 95
1, 29755, Note_on_c, 0, 70, 56
1, 29756, Control_c, 0, 64, 76
1, 29771, Control_c, 0, 64, 60
1, 29784, Note_on_c, 0, 50, 36
1, 29785, Note_on_c, 0, 58, 34
1, 29785, Control_c, 0, 64, 0
1, 29791, Note_on_c, 0, 53, 35
1, 29845, Control_c, 0, 64, 48
1, 29859, Control_c, 0, 64, 66
1, 29874, Control_c, 0, 64, 77
1, 29875, Note_off_c, 0, 53, 53
1, 29889, Control_c, 0, 64, 92
1, 29904, Control_c, 0, 64, 127
1, 29957, Note_off_c, 0, 58, 59
1, 30074, Control_c, 0, 64, 115
1, 30089, Control_c, 0, 64, 89
1, 30104, Note_on_c, 0, 69, 57
1, 30104, Control_c, 0, 64, 71
1, 30119, Control_c, 0, 64, 0
1, 30128, Note_off_c, 0, 50, 37
1, 30131, Note_on_c, 0, 53, 34
1, 30134, Note_on_c, 0, 60, 36
1, 30142, Note_on_c, 0, 48, 29
1, 30157, Note_off_c, 0, 70, 56
1, 30253, Control_c, 0, 64, 60
1, 30267, Control_c, 0, 64, 70
1, 30282, Control_c, 0, 64, 80
1, 30283, Note_off_c, 0, 48, 56
1, 30297, Control_c, 0, 64, 95
1, 30311, Control_c, 0, 64, 127
1, 30338, Note_off_c, 0, 53, 41
1, 30398, Note_off_c, 0, 60, 32
1, 30533, Note_on_c, 0, 67, 51
1, 30609, Control_c, 0, 64, 122
1, 30612, Note_off_c, 0, 69, 37
1, 30623, Control_c, 0, 64, 93
1, 30638, Control_c, 0, 64, 76
1, 30653, Control_c, 0, 64, 58
1, 30668, Control_c, 0, 64, 0
1, 30682, Note_on_c, 0, 48, 34
1, 30682, Note_on_c, 0, 65, 54
1, 30695, Note_on_c, 0, 60, 32
1, 30700, Note_on_c, 0, 57, 29
1, 30712, Note_off_c, 0, 67, 49
1, 30742, Control_c, 0, 64, 42
1, 30762, Control_c, 0, 64, 64
1, 30777, Control_c, 0, 64, 72
1, 30792, Control_c, 0, 64, 84
1, 30793, Note_off_c, 0, 57, 60
1, 30796, Note_off_c, 0, 48, 53
1, 30807, Control_c, 0, 64, 106
1, 30822, Control_c, 0, 64, 127
1, 30830, Note_off_c, 0, 60, 37
1, 31044, Control_c, 0, 64, 103
1, 31045, Note_on_c, 0, 67, 51
1, 31059, Control_c, 0, 64, 85
1, 31063, Note_on_c, 0, 62, 35
1, 31064, Note_off_c, 0, 65, 55
1, 31064, Note_on_c, 0, 48, 37
1, 31074, Control_c, 0, 64, 70
1, 31079, Note_on_c, 0, 58, 25
1, 31088, Control_c, 0, 64, 0
1, 31208, Control_c, 0, 64, 62
1, 31223, Control_c, 0, 64, 71
1, 31237, Control_c, 0, 64, 83
1, 31252, Control_c, 0, 64, 100
1, 31267, Control_c, 0, 64, 127
1, 31308, Note_off_c, 0, 48, 39
1, 31333, Note_off_c, 0, 58, 43
1, 31352, Note_off_c, 0, 62, 40
1, 31631, Control_c, 0, 64, 117
1, 31645, Control_c, 0, 64, 90
1, 31660, Control_c, 0, 64, 69
1, 31675, Note_on_c, 0, 64, 35
1, 31675, Control_c, 0, 64, 21
1, 31689, Note_on_c, 0, 60, 29
1, 31690, Control_c, 0, 64, 0
1, 31695, Note_on_c, 0, 48, 32
1, 31704, Note_on_c, 0, 58, 24
1, 31734, Control_c, 0, 64, 58
1, 31749, Control_c, 0, 64, 69
1, 31764, Control_c, 0, 64, 80
1, 31779, Control_c, 0, 64, 95
1, 31794, Control_c, 0, 64, 127
1, 31806, Note_off_c, 0, 67, 38
1, 31824, Note_off_c, 0, 48, 33
1, 31842, Note_off_c, 0, 58, 42
1, 31859, Note_off_c, 0, 60, 44
1, 31861, Note_off_c, 0, 64, 37
1, 32092, Note_on_c, 0, 65, 42
1, 32106, Control_c, 0, 64, 103
1, 32108, Note_on_c, 0, 60, 35
1, 32117, Note_on_c, 0, 53, 32
1, 32121, Control_c, 0, 64, 85
1, 32128, Note_on_c, 0, 57, 29
1, 32135, Control_c, 0, 64, 68
1, 32150, Control_c, 0, 64, 0
1, 32306, Control_c, 0, 64, 35
1, 32321, Control_c, 0, 64, 64
1, 32335, Control_c, 0, 64, 72
1, 32350, Control_c, 0, 64, 80
1, 32365, Control_c, 0, 64, 92
1, 32380, Control_c, 0, 64, 108
1, 32381, Note_off_c, 0, 53, 38
1, 32394, Control_c, 0, 64, 127
1, 32441, Note_off_c, 0, 60, 38
1, 32450, Note_off_c, 0, 57, 42
1, 32794, Note_on_c, 0, 60, 29
1, 32811, Note_on_c, 0, 57, 19
1, 32817, Note_on_c, 0, 53, 23
1, 32877, Note_off_c, 0, 60, 57
1, 32898, Note_off_c, 0, 65, 59
1, 32958, Control_c, 0, 67, 125
1, 32973, Control_c, 0, 67, 116
1, 32987, Note_off_c, 0, 57, 40
1, 32988, Control_c, 0, 67, 104
1, 33010, Control_c, 0, 67, 89
1, 33025, Control_c, 0, 67, 71
1, 33040, Control_c, 0, 67, 57
1, 33047, Note_off_c, 0, 53, 44
1, 33055, Control_c, 0, 67, 45
1, 33070, Control_c, 0, 67, 34
1, 33084, Control_c, 0, 67, 24
1, 33099, Control_c, 0, 67, 16
1, 33114, Control_c, 0, 67, 10
1, 33129, Control_c, 0, 67, 0
1, 33211, Note_on_c, 0, 72, 67
1, 33217, Control_c, 0, 64, 119
1, 33232, Control_c, 0, 64, 93
1, 33242, Note_on_c, 0, 48, 43
1, 33246, Note_on_c, 0, 64, 46
1, 33247, Control_c, 0, 64, 76
1, 33262, Control_c, 0, 64, 59
1, 33264, Note_on_c, 0, 57, 30
1, 33277, Control_c, 0, 64, 0
1, 33365, Control_c, 0, 64, 64
1, 33380, Control_c, 0, 64, 72
1, 33395, Control_c, 0, 64, 84
1, 33410, Control_c, 0, 64, 105
1, 33424, Control_c, 0, 64, 127
1, 33572, Note_off_c, 0, 48, 42
1, 33576, Note_off_c, 0, 64, 46
1, 33577, Note_off_c, 0, 57, 41
1, 33797, Note_on_c, 0, 64, 48
1, 33799, Note_on_c, 0, 48, 47
1, 33812, Note_on_c, 0, 57, 37
1, 33943, Note_off_c, 0, 48, 59
1, 33945, Note_off_c, 0, 57, 57
1, 33979, Note_off_c, 0, 64, 48
1, 34108, Note_on_c, 0, 48, 48
1, 34114, Note_on_c, 0, 64, 51
1, 34122, Note_on_c, 0, 57, 43
1, 34297, Note_off_c, 0, 57, 36
1, 34359, Note_off_c, 0, 64, 57
1, 34388, Note_off_c, 0, 72, 55
1, 34660, Note_on_c, 0, 71, 66
1, 34670, Control_c, 0, 64, 91
1, 34682, Note_on_c, 0, 50, 49
1, 34682, Note_off_c, 0, 48, 55
1, 34685, Control_c, 0, 64, 71
1, 34686, Note_on_c, 0, 62, 44
1, 34691, Note_on_c, 0, 65, 40
1, 34700, Control_c, 0, 64, 0
1, 34774, Control_c, 0, 64, 59
1, 34775, Note_off_c, 0, 65, 58
1, 34778, Note_off_c, 0, 62, 58
1, 34788, Control_c, 0, 64, 72
1, 34803, Control_c, 0, 64, 88
1, 34818, Control_c, 0, 64, 127
1, 34873, Note_off_c, 0, 71, 50
1, 34886, Note_on_c, 0, 52, 41
1, 34888, Note_off_c, 0, 50, 57
1, 34918, Note_on_c, 0, 60, 51
1, 34986, Note_on_c, 0, 64, 52
1, 35061, Note_on_c, 0, 71, 58
1, 35085, Control_c, 0, 64, 107
1, 35099, Control_c, 0, 64, 85
1, 35114, Control_c, 0, 64, 68
1, 35130, Control_c, 0, 64, 0
1, 35132, Note_on_c, 0, 69, 65
1, 35156, Note_off_c, 0, 71, 62
1, 35257, Control_c, 0, 64, 47
1, 35272, Control_c, 0, 64, 67
1, 35286, Control_c, 0, 64, 76
1, 35301, Control_c, 0, 64, 89
1, 35316, Control_c, 0, 64, 118
1, 35330, Control_c, 0, 64, 127
1, 35428, Note_off_c, 0, 60, 55
1, 35457, Note_off_c, 0, 64, 51
1, 35464, Note_off_c, 0, 52, 40
1, 35686, Control_c, 0, 64, 117
1, 35697, Note_on_c, 0, 68, 66
1, 35701, Control_c, 0, 64, 88
1, 35716, Control_c, 0, 64, 69
1, 35719, Note_off_c, 0, 69, 51
1, 35721, Note_on_c, 0, 59, 44
1, 35729, Note_on_c, 0, 40, 37
1, 35730, Note_on_c, 0, 64, 39
1, 35730, Control_c, 0, 64, 0
1, 35736, Note_on_c, 0, 52, 37
1, 35775, Control_c, 0, 64, 52
1, 35790, Control_c, 0, 64, 66
1, 35804, Control_c, 0, 64, 76
1, 35819, Control_c, 0, 64, 93
1, 35834, Control_c, 0, 64, 127
1, 35854, Note_off_c, 0, 52, 0
1, 35869, Note_off_c, 0, 59, 37
1, 35891, Poly_aftertouch_c, 0, 52, 0
1, 35910, Note_off_c, 0, 40, 39
1, 35917, Note_off_c, 0, 64, 38
1, 35921, Note_off_c, 0, 68, 57
1, 36027, Note_on_c, 0, 69, 70
1, 36035, Control_c, 0, 64, 93
1, 36050, Note_on_c, 0, 60, 53
1, 36050, Control_c, 0, 64, 73
1, 36051, Note_on_c, 0, 64, 44
1, 36058, Note_on_c, 0, 52, 38
1, 36064, Note_on_c, 0, 45, 44
1, 36065, Control_c, 0, 64, 0
1, 36153, Control_c, 0, 64, 48
1, 36168, Control_c, 0, 64, 66
1, 36183, Control_c, 0, 64, 76
1, 36195, Note_off_c, 0, 45, 58
1, 36198, Control_c, 0, 64, 93
1, 36213, Control_c, 0, 64, 127
1, 36292, Note_off_c, 0, 64, 60
1, 36299, Note_off_c, 0, 60, 38
1, 36333, Note_off_c, 0, 69, 57
1, 36406, Note_off_c, 0, 52, 58
1, 36553, Control_c, 0, 64, 114
1, 36565, Note_on_c, 0, 72, 76
1, 36568, Control_c, 0, 64, 86
1, 36581, Note_on_c, 0, 64, 58
1, 36583, Control_c, 0, 64, 67
1, 36590, Note_on_c, 0, 60, 49
1, 36596, Note_on_c, 0, 57, 44
1, 36598, Note_on_c, 0, 45, 46
1, 36598, Control_c, 0, 64, 0
1, 36627, Control_c, 0, 64, 45
1, 36642, Control_c, 0, 64, 65
1, 36648, Note_off_c, 0, 60, 59
1, 36651, Note_off_c, 0, 64, 63
1, 36657, Control_c, 0, 64, 76
1, 36671, Control_c, 0, 64, 93
1, 36674, Note_off_c, 0, 45, 63
1, 36686, Control_c, 0, 64, 127
1, 36693, Note_off_c, 0, 72, 63
1, 36785, Note_off_c, 0, 57, 44
1, 36934, Note_on_c, 0, 76, 77
1, 36947, Control_c, 0, 64, 109
1, 36953, Note_on_c, 0, 64, 55
1, 36954, Note_on_c, 0, 67, 52
1, 36962, Control_c, 0, 64, 84
1, 36963, Note_on_c, 0, 48, 48
1, 36964, Note_on_c, 0, 55, 50
1, 36976, Control_c, 0, 64, 66
1, 36991, Control_c, 0, 64, 0
1, 37080, Control_c, 0, 64, 19
1, 37095, Control_c, 0, 64, 64
1, 37109, Control_c, 0, 64, 73
1, 37124, Control_c, 0, 64, 86
1, 37139, Control_c, 0, 64, 119
1, 37154, Control_c, 0, 64, 127
1, 37227, Note_off_c, 0, 48, 39
1, 37320, Note_off_c, 0, 76, 49
1, 37326, Note_off_c, 0, 55, 35
1, 37366, Note_off_c, 0, 64, 37
1, 37385, Note_off_c, 0, 67, 37
1, 37487, Note_on_c, 0, 76, 79
1, 37509, Note_on_c, 0, 48, 44
1, 37514, Note_on_c, 0, 64, 55
1, 37531, Note_on_c, 0, 55, 40
1, 37532, Note_on_c, 0, 67, 44
1, 37541, Note_on_c, 0, 60, 33
1, 37586, Note_off_c, 0, 64, 62
1, 37604, Note_off_c, 0, 67, 58
1, 37607, Note_off_c, 0, 48, 56
1, 37615, Note_off_c, 0, 60, 55
1, 37637, Note_off_c, 0, 76, 60
1, 37868, Note_on_c, 0, 76, 74
1, 37887, Control_c, 0, 64, 96
1, 37891, Note_on_c, 0, 67, 55
1, 37893, Note_on_c, 0, 52, 53
1, 37902, Control_c, 0, 64, 78
1, 37912, Note_on_c, 0, 60, 39
1, 37917, Control_c, 0, 64, 63
1, 37923, Note_off_c, 0, 55, 42
1, 37932, Control_c, 0, 64, 0
1, 38021, Control_c, 0, 64, 59
1, 38036, Control_c, 0, 64, 71
1, 38051, Control_c, 0, 64, 84
1, 38066, Control_c, 0, 64, 108
1, 38080, Control_c, 0, 64, 127
1, 38104, Note_off_c, 0, 60, 52
1, 38212, Note_off_c, 0, 67, 50
1, 38213, Control_c, 0, 67, 8
1, 38228, Control_c, 0, 67, 9
1, 38251, Control_c, 0, 67, 10
1, 38265, Note_off_c, 0, 76, 59
1, 38266, Control_c, 0, 67, 11
1, 38280, Control_c, 0, 67, 13
1, 38295, Control_c, 0, 67, 15
1, 38310, Control_c, 0, 67, 17
1, 38326, Control_c, 0, 67, 21
1, 38341, Control_c, 0, 67, 24
1, 38355, Control_c, 0, 67, 28
1, 38370, Control_c, 0, 67, 33
1, 38385, Control_c, 0, 67, 38
1, 38400, Control_c, 0, 67, 42
1, 38415, Control_c, 0, 67, 46
1, 38429, Control_c, 0, 67, 50
1, 38444, Control_c, 0, 67, 55
1, 38459, Control_c, 0, 67, 60
1, 38474, Control_c, 0, 67, 65
1, 38488, Note_on_c, 0, 74, 69
1, 38489, Control_c, 0, 64, 93
1, 38489, Control_c, 0, 67, 69
1, 38504, Control_c, 0, 64, 70
1, 38504, Control_c, 0, 67, 73
1, 38507, Note_off_c, 0, 52, 52
1, 38509, Note_on_c, 0, 53, 44
1, 38516, Note_on_c, 0, 65, 43
1, 38519, Control_c, 0, 64, 0
1, 38519, Control_c, 0, 67, 76
1, 38522, Note_on_c, 0, 69, 46
1, 38534, Control_c, 0, 67, 77
1, 38548, Control_c, 0, 67, 78
1, 38563, Control_c, 0, 67, 78
1, 38593, Control_c, 0, 64, 63
1, 38593, Control_c, 0, 67, 79
1, 38608, Control_c, 0, 64, 73
1, 38608, Control_c, 0, 67, 79
1, 38608, Note_off_c, 0, 69, 63
1, 38614, Note_off_c, 0, 65, 60
1, 38622, Control_c, 0, 64, 87
1, 38622, Control_c, 0, 67, 80
1, 38637, Control_c, 0, 64, 127
1, 38637, Control_c, 0, 67, 80
1, 38667, Control_c, 0, 67, 81
1, 38689, Note_off_c, 0, 74, 59
1, 38696, Control_c, 0, 67, 81
1, 38711, Control_c, 0, 67, 82
1, 38713, Note_on_c, 0, 55, 41
1, 38721, Note_off_c, 0, 53, 55
1, 38726, Control_c, 0, 67, 83
1, 38741, Control_c, 0, 67, 84
1, 38755, Control_c, 0, 67, 85
1, 38764, Note_on_c, 0, 64, 50
1, 38770, Control_c, 0, 67, 85
1, 38785, Control_c, 0, 67, 86
1, 38800, Control_c, 0, 67, 87
1, 38815, Control_c, 0, 67, 88
1, 38829, Control_c, 0, 67, 89
1, 38839, Note_on_c, 0, 67, 50
1, 38844, Control_c, 0, 67, 89
1, 38859, Control_c, 0, 67, 90
1, 38874, Control_c, 0, 67, 91
1, 38888, Control_c, 0, 67, 91
1, 38903, Control_c, 0, 67, 92
1, 38911, Note_on_c, 0, 74, 59
1, 38918, Control_c, 0, 67, 92
1, 38933, Control_c, 0, 67, 93
1, 38948, Control_c, 0, 67, 94
1, 38963, Control_c, 0, 67, 95
1, 38978, Control_c, 0, 64, 95
1, 38978, Control_c, 0, 67, 96
1, 38979, Note_on_c, 0, 72, 63
1, 38999, Note_off_c, 0, 74, 57
1, 39000, Control_c, 0, 64, 77
1, 39000, Control_c, 0, 67, 97
1, 39015, Control_c, 0, 64, 60
1, 39015, Control_c, 0, 67, 98
1, 39029, Control_c, 0, 64, 0
1, 39029, Control_c, 0, 67, 99
1, 39044, Control_c, 0, 67, 100
1, 39059, Control_c, 0, 67, 101
1, 39088, Control_c, 0, 67, 101
1, 39103, Control_c, 0, 67, 102
1, 39149, Control_c, 0, 67, 102
1, 39164, Control_c, 0, 64, 47
1, 39178, Control_c, 0, 64, 66
1, 39193, Control_c, 0, 64, 75
1, 39208, Control_c, 0, 64, 87
1, 39223, Control_c, 0, 64, 105
1, 39238, Control_c, 0, 64, 127
1, 39252, Control_c, 0, 67, 103
1, 39282, Control_c, 0, 67, 103
1, 39293, Note_off_c, 0, 64, 59
1, 39297, Control_c, 0, 67, 104
1, 39307, Note_off_c, 0, 67, 56
1, 39312, Control_c, 0, 67, 105
1, 39327, Control_c, 0, 67, 106
1, 39342, Control_c, 0, 67, 107
1, 39347, Note_off_c, 0, 55, 40
1, 39356, Control_c, 0, 67, 108
1, 39371, Control_c, 0, 67, 108
1, 39386, Control_c, 0, 67, 109
1, 39401, Control_c, 0, 67, 110
1, 39416, Control_c, 0, 67, 110
1, 39431, Control_c, 0, 67, 111
1, 39445, Control_c, 0, 67, 111
1, 39460, Control_c, 0, 67, 112
1, 39469, Note_off_c, 0, 72, 55
1, 39475, Control_c, 0, 67, 113
1, 39490, Control_c, 0, 67, 113
1, 39504, Control_c, 0, 67, 114
1, 39534, Control_c, 0, 67, 115
1, 39549, Control_c, 0, 67, 115
1, 39578, Control_c, 0, 67, 116
1, 39593, Control_c, 0, 67, 117
1, 39608, Control_c, 0, 64, 97
1, 39608, Control_c, 0, 67, 118
1, 39614, Note_on_c, 0, 71, 58
1, 39623, Control_c, 0, 64, 77
1, 39623, Control_c, 0, 67, 118
1, 39638, Control_c, 0, 64, 54
1, 39638, Control_c, 0, 67, 119
1, 39645, Note_on_c, 0, 43, 35
1, 39646, Note_on_c, 0, 67, 35
1, 39650, Note_on_c, 0, 55, 31
1, 39652, Control_c, 0, 64, 0
1, 39653, Note_on_c, 0, 62, 26
1, 39667, Control_c, 0, 67, 120
1, 39682, Control_c, 0, 64, 14
1, 39696, Control_c, 0, 64, 59
1, 39711, Control_c, 0, 64, 69
1, 39726, Control_c, 0, 64, 81
1, 39749, Control_c, 0, 64, 105
1, 39755, Note_off_c, 0, 55, 50
1, 39756, Note_off_c, 0, 43, 49
1, 39756, Note_off_c, 0, 67, 37
1, 39764, Control_c, 0, 64, 127
1, 39765, Note_off_c, 0, 62, 37
1, 39777, Note_off_c, 0, 71, 54
1, 39957, Control_c, 0, 64, 102
1, 39972, Control_c, 0, 64, 83
1, 39977, Note_on_c, 0, 72, 54
1, 39987, Control_c, 0, 64, 66
1, 40001, Control_c, 0, 64, 0
1, 40003, Note_on_c, 0, 67, 39
1, 40009, Note_on_c, 0, 64, 40
1, 40019, Note_on_c, 0, 48, 29
1, 40020, Note_on_c, 0, 55, 25
1, 40120, Control_c, 0, 64, 24
1, 40134, Control_c, 0, 64, 62
1, 40149, Control_c, 0, 64, 69
1, 40164, Control_c, 0, 64, 78
1, 40179, Control_c, 0, 64, 91
1, 40194, Control_c, 0, 64, 111
1, 40209, Control_c, 0, 64, 127
1, 40216, Note_off_c, 0, 48, 40
1, 40224, Control_c, 0, 67, 119
1, 40248, Note_off_c, 0, 64, 37
1, 40306, Note_off_c, 0, 55, 41
1, 40387, Control_c, 0, 67, 120
1, 40401, Control_c, 0, 67, 120
1, 40431, Control_c, 0, 67, 121
1, 40446, Control_c, 0, 67, 121
1, 40461, Control_c, 0, 67, 122
1, 40475, Control_c, 0, 67, 122
1, 40498, Control_c, 0, 67, 123
1, 40513, Control_c, 0, 67, 127
1, 40651, Note_on_c, 0, 64, 22
1, 40677, Note_on_c, 0, 55, 25
1, 40680, Note_on_c, 0, 48, 27
1, 40695, Note_off_c, 0, 67, 51
1, 40697, Note_off_c, 0, 64, 50
1, 40701, Note_off_c, 0, 72, 52
1, 40802, Note_off_c, 0, 55, 36
1, 40813, Note_off_c, 0, 48, 34
1, 41174, Note_on_c, 0, 76, 51
1, 41180, Control_c, 0, 64, 118
1, 41195, Control_c, 0, 64, 96
1, 41208, Note_on_c, 0, 48, 36
1, 41210, Control_c, 0, 64, 82
1, 41215, Note_on_c, 0, 60, 28
1, 41224, Control_c, 0, 64, 69
1, 41232, Note_on_c, 0, 67, 23
1, 41247, Control_c, 0, 64, 47
1, 41262, Control_c, 0, 64, 0
1, 41351, Control_c, 0, 64, 59
1, 41366, Control_c, 0, 64, 68
1, 41380, Control_c, 0, 64, 76
1, 41395, Control_c, 0, 64, 87
1, 41410, Control_c, 0, 64, 104
1, 41425, Control_c, 0, 64, 127
1, 41494, Note_off_c, 0, 67, 41
1, 41513, Note_off_c, 0, 60, 46
1, 41532, Note_off_c, 0, 48, 42
1, 41737, Control_c, 0, 64, 121
1, 41752, Control_c, 0, 64, 95
1, 41766, Control_c, 0, 64, 79
1, 41769, Note_on_c, 0, 77, 58
1, 41781, Control_c, 0, 64, 66
1, 41796, Control_c, 0, 64, 0
1, 41799, Note_on_c, 0, 53, 30
1, 41802, Note_off_c, 0, 76, 59
1, 41807, Note_on_c, 0, 60, 21
1, 41808, Note_on_c, 0, 69, 32
1, 41840, Control_c, 0, 64, 49
1, 41855, Control_c, 0, 64, 64
1, 41870, Control_c, 0, 64, 71
1, 41875, Note_off_c, 0, 69, 56
1, 41884, Control_c, 0, 64, 81
1, 41899, Control_c, 0, 64, 94
1, 41914, Control_c, 0, 64, 115
1, 41929, Control_c, 0, 64, 127
1, 41950, Note_off_c, 0, 60, 35
1, 42084, Control_c, 0, 64, 109
1, 42088, Note_on_c, 0, 76, 63
1, 42099, Control_c, 0, 64, 88
1, 42102, Note_on_c, 0, 67, 41
1, 42108, Note_off_c, 0, 53, 46
1, 42111, Note_on_c, 0, 60, 24
1, 42114, Control_c, 0, 64, 71
1, 42117, Note_on_c, 0, 55, 38
1, 42129, Control_c, 0, 64, 55
1, 42143, Note_off_c, 0, 77, 54
1, 42144, Control_c, 0, 64, 0
1, 42262, Control_c, 0, 64, 58
1, 42277, Control_c, 0, 64, 68
1, 42291, Control_c, 0, 64, 78
1, 42306, Control_c, 0, 64, 95
1, 42322, Control_c, 0, 64, 127
1, 42352, Note_off_c, 0, 60, 46
1, 42373, Note_off_c, 0, 55, 49
1, 42618, Control_c, 0, 64, 123
1, 42633, Control_c, 0, 64, 92
1, 42641, Note_off_c, 0, 67, 55
1, 42641, Note_on_c, 0, 72, 61
1, 42648, Control_c, 0, 64, 75
1, 42660, Note_on_c, 0, 69, 46
1, 42662, Control_c, 0, 64, 53
1, 42672, Note_on_c, 0, 53, 35
1, 42677, Control_c, 0, 64, 0
1, 42683, Note_off_c, 0, 76, 58
1, 42695, Note_on_c, 0, 60, 22
1, 42774, Control_c, 0, 64, 52
1, 42789, Control_c, 0, 64, 69
1, 42790, Note_off_c, 0, 60, 53
1, 42803, Control_c, 0, 64, 80
1, 42811, Note_off_c, 0, 53, 50
1, 42818, Control_c, 0, 64, 97
1, 42833, Control_c, 0, 64, 127
1, 42975, Note_on_c, 0, 76, 68
1, 42981, Control_c, 0, 64, 107
1, 42996, Control_c, 0, 64, 86
1, 42999, Note_off_c, 0, 69, 60
1, 43004, Note_on_c, 0, 55, 41
1, 43011, Control_c, 0, 64, 70
1, 43011, Note_on_c, 0, 67, 44
1, 43021, Note_on_c, 0, 60, 29
1, 43023, Note_off_c, 0, 72, 61
1, 43026, Control_c, 0, 64, 35
1, 43040, Control_c, 0, 64, 0
1, 43160, Control_c, 0, 64, 33
1, 43175, Control_c, 0, 64, 63
1, 43190, Control_c, 0, 64, 71
1, 43205, Control_c, 0, 64, 80
1, 43219, Control_c, 0, 64, 93
1, 43234, Control_c, 0, 64, 111
1, 43249, Control_c, 0, 64, 127
1, 43296, Note_off_c, 0, 67, 52
1, 43333, Note_off_c, 0, 76, 61
1, 43336, Note_off_c, 0, 55, 54
1, 43349, Note_off_c, 0, 60, 37
1, 43537, Control_c, 0, 64, 121
1, 43551, Control_c, 0, 64, 90
1, 43557, Note_on_c, 0, 77, 70
1, 43566, Control_c, 0, 64, 72
1, 43581, Control_c, 0, 64, 26
1, 43595, Note_on_c, 0, 65, 44
1, 43596, Control_c, 0, 64, 0
1, 43597, Note_on_c, 0, 57, 32
1, 43601, Note_on_c, 0, 60, 34
1, 43670, Control_c, 0, 64, 63
1, 43685, Control_c, 0, 64, 73
1, 43700, Control_c, 0, 64, 86
1, 43715, Control_c, 0, 64, 113
1, 43729, Control_c, 0, 64, 127
1, 43740, Note_off_c, 0, 60, 35
1, 43744, Note_off_c, 0, 65, 37
1, 43887, Note_on_c, 0, 76, 69
1, 43892, Control_c, 0, 64, 96
1, 43908, Note_on_c, 0, 67, 43
1, 43908, Control_c, 0, 64, 77
1, 43922, Note_on_c, 0, 55, 37
1, 43923, Control_c, 0, 64, 49
1, 43928, Note_on_c, 0, 60, 26
1, 43929, Note_off_c, 0, 57, 38
1, 43938, Control_c, 0, 64, 0
1, 43966, Note_off_c, 0, 77, 55
1, 44056, Control_c, 0, 64, 54
1, 44071, Control_c, 0, 64, 67
1, 44085, Control_c, 0, 64, 78
1, 44100, Control_c, 0, 64, 96
1, 44115, Control_c, 0, 64, 127
1, 44150, Note_off_c, 0, 60, 45
1, 44194, Note_off_c, 0, 55, 43
1, 44319, Note_on_c, 0, 74, 68
1, 44400, Note_off_c, 0, 67, 37
1, 44419, Control_c, 0, 64, 107
1, 44434, Control_c, 0, 64, 85
1, 44448, Note_off_c, 0, 76, 53
1, 44448, Control_c, 0, 64, 69
1, 44451, Note_on_c, 0, 72, 63
1, 44463, Control_c, 0, 64, 0
1, 44466, Note_on_c, 0, 69, 55
1, 44494, Note_on_c, 0, 53, 36
1, 44499, Note_on_c, 0, 60, 28
1, 44504, Note_off_c, 0, 74, 62
1, 44514, Note_off_c, 0, 69, 52
1, 44567, Control_c, 0, 64, 37
1, 44582, Control_c, 0, 64, 67
1, 44597, Control_c, 0, 64, 78
1, 44608, Note_off_c, 0, 60, 52
1, 44612, Control_c, 0, 64, 95
1, 44627, Control_c, 0, 64, 127
1, 44642, Note_off_c, 0, 53, 35
1, 44791, Note_on_c, 0, 76, 68
1, 44805, Control_c, 0, 64, 95
1, 44817, Note_on_c, 0, 60, 30
1, 44820, Note_on_c, 0, 55, 42
1, 44820, Control_c, 0, 64, 76
1, 44824, Note_on_c, 0, 67, 45
1, 44835, Control_c, 0, 64, 59
1, 44844, Note_off_c, 0, 72, 60
1, 44850, Control_c, 0, 64, 0
1, 45005, Control_c, 0, 64, 47
1, 45020, Control_c, 0, 64, 66
1, 45035, Control_c, 0, 64, 75
1, 45050, Control_c, 0, 64, 86
1, 45064, Control_c, 0, 64, 110
1, 45079, Control_c, 0, 64, 127
1, 45132, Note_off_c, 0, 67, 54
1, 45133, Note_off_c, 0, 60, 54
1, 45135, Note_off_c, 0, 55, 57
1, 45360, Control_c, 0, 64, 102
1, 45375, Control_c, 0, 64, 81
1, 45377, Note_on_c, 0, 77, 71
1, 45390, Control_c, 0, 64, 64
1, 45404, Note_on_c, 0, 65, 48
1, 45405, Note_on_c, 0, 57, 36
1, 45405, Control_c, 0, 64, 0
1, 45409, Note_on_c, 0, 60, 33
1, 45413, Note_off_c, 0, 76, 60
1, 45494, Control_c, 0, 64, 48
1, 45509, Control_c, 0, 64, 66
1, 45518, Note_off_c, 0, 60, 48
1, 45524, Control_c, 0, 64, 76
1, 45539, Control_c, 0, 64, 93
1, 45548, Note_off_c, 0, 65, 52
1, 45554, Control_c, 0, 64, 127
1, 45717, Control_c, 0, 64, 120
1, 45718, Note_on_c, 0, 76, 70
1, 45724, Note_off_c, 0, 57, 56
1, 45739, Control_c, 0, 64, 90
1, 45750, Note_on_c, 0, 60, 41
1, 45752, Note_on_c, 0, 55, 43
1, 45752, Note_on_c, 0, 67, 44
1, 45753, Control_c, 0, 64, 72
1, 45768, Control_c, 0, 64, 17
1, 45783, Control_c, 0, 64, 0
1, 45795, Note_off_c, 0, 77, 49
1, 45872, Control_c, 0, 64, 35
1, 45887, Control_c, 0, 64, 65
1, 45902, Control_c, 0, 64, 74
1, 45917, Control_c, 0, 64, 90
1, 45932, Control_c, 0, 64, 111
1, 45938, Note_off_c, 0, 55, 62
1, 45946, Control_c, 0, 64, 127
1, 46000, Note_off_c, 0, 60, 60
1, 46110, Note_off_c, 0, 67, 37
1, 46162, Note_on_c, 0, 74, 65
1, 46272, Control_c, 0, 64, 99
1, 46287, Control_c, 0, 64, 80
1, 46299, Note_on_c, 0, 72, 63
1, 46302, Control_c, 0, 64, 55
1, 46310, Note_on_c, 0, 55, 41
1, 46317, Control_c, 0, 64, 0
1, 46323, Note_on_c, 0, 64, 41
1, 46330, Note_off_c, 0, 76, 40
1, 46337, Note_on_c, 0, 67, 45
1, 46344, Note_off_c, 0, 74, 63
1, 46403, Note_off_c, 0, 67, 50
1, 46406, Control_c, 0, 64, 51
1, 46421, Control_c, 0, 64, 67
1, 46424, Note_off_c, 0, 55, 52
1, 46436, Control_c, 0, 64, 77
1, 46451, Control_c, 0, 64, 90
1, 46461, Note_off_c, 0, 64, 59
1, 46466, Control_c, 0, 64, 116
1, 46487, Control_c, 0, 64, 127
1, 46523, Note_off_c, 0, 72, 61
1, 46666, Control_c, 0, 64, 110
1, 46670, Note_on_c, 0, 74, 67
1, 46680, Control_c, 0, 64, 84
1, 46681, Note_on_c, 0, 69, 56
1, 46695, Control_c, 0, 64, 67
1, 46698, Note_on_c, 0, 55, 37
1, 46710, Control_c, 0, 64, 0
1, 46720, Note_on_c, 0, 65, 31
1, 46814, Control_c, 0, 64, 56
1, 46828, Control_c, 0, 64, 69
1, 46843, Control_c, 0, 64, 80
1, 46858, Control_c, 0, 64, 98
1, 46873, Control_c, 0, 64, 127
1, 46886, Note_off_c, 0, 65, 52
1, 46919, Note_off_c, 0, 69, 52
1, 46971, Note_off_c, 0, 55, 41
1, 47310, Control_c, 0, 64, 102
1, 47325, Control_c, 0, 64, 83
1, 47336, Note_on_c, 0, 71, 47
1, 47340, Control_c, 0, 64, 67
1, 47341, Note_on_c, 0, 67, 35
1, 47343, Note_on_c, 0, 55, 36
1, 47345, Note_on_c, 0, 65, 34
1, 47355, Control_c, 0, 64, 0
1, 47414, Control_c, 0, 64, 59
1, 47429, Control_c, 0, 64, 69
1, 47444, Control_c, 0, 64, 82
1, 47456, Note_off_c, 0, 74, 50
1, 47459, Control_c, 0, 64, 97
1, 47473, Control_c, 0, 64, 127
1, 47492, Note_off_c, 0, 65, 51
1, 47515, Note_off_c, 0, 71, 58
1, 47538, Note_off_c, 0, 67, 40
1, 47755, Note_on_c, 0, 72, 50
1, 47770, Control_c, 0, 64, 96
1, 47774, Note_on_c, 0, 67, 42
1, 47778, Note_on_c, 0, 64, 34
1, 47784, Control_c, 0, 64, 81
1, 47799, Note_on_c, 0, 48, 33
1, 47799, Control_c, 0, 64, 67
1, 47814, Control_c, 0, 64, 0
1, 47829, Note_off_c, 0, 55, 41
1, 47986, Control_c, 0, 64, 38
1, 48001, Control_c, 0, 64, 63
1, 48015, Control_c, 0, 64, 71
1, 48030, Control_c, 0, 64, 79
1, 48045, Control_c, 0, 64, 89
1, 48059, Control_c, 0, 64, 102
1, 48074, Control_c, 0, 64, 127
1, 48266, Control_c, 0, 67, 123
1, 48277, Note_off_c, 0, 48, 41
1, 48281, Control_c, 0, 67, 113
1, 48296, Control_c, 0, 67, 100
1, 48311, Note_off_c, 0, 64, 42
1, 48311, Control_c, 0, 67, 88
1, 48326, Control_c, 0, 67, 74
1, 48341, Control_c, 0, 67, 62
1, 48356, Control_c, 0, 67, 52
1, 48371, Control_c, 0, 67, 43
1, 48386, Control_c, 0, 67, 32
1, 48400, Control_c, 0, 67, 21
1, 48415, Control_c, 0, 67, 10
1, 48430, Control_c, 0, 67, 0
1, 48467, Note_on_c, 0, 48, 56
1, 48487, Note_on_c, 0, 64, 24
1, 48532, Note_off_c, 0, 67, 59
1, 48588, Note_off_c, 0, 72, 59
1, 48642, Note_off_c, 0, 64, 40
1, 48910, Note_on_c, 0, 70, 47
1, 48912, Control_c, 0, 64, 115
1, 48919, Note_on_c, 0, 65, 42
1, 48922, Note_on_c, 0, 50, 58
1, 48927, Control_c, 0, 64, 95
1, 48934, Note_on_c, 0, 62, 35
1, 48942, Control_c, 0, 64, 81
1, 48956, Control_c, 0, 64, 68
1, 48971, Control_c, 0, 64, 43
1, 48979, Note_off_c, 0, 48, 59
1, 48986, Control_c, 0, 64, 0
1, 49149, Control_c, 0, 64, 44
1, 49164, Control_c, 0, 64, 65
1, 49178, Control_c, 0, 64, 73
1, 49193, Control_c, 0, 64, 82
1, 49208, Control_c, 0, 64, 98
1, 49223, Control_c, 0, 64, 127
1, 49284, Note_off_c, 0, 62, 40
1, 49312, Control_c, 0, 67, 8
1, 49327, Control_c, 0, 67, 9
1, 49342, Control_c, 0, 67, 11
1, 49356, Control_c, 0, 67, 13
1, 49371, Control_c, 0, 67, 15
1, 49386, Control_c, 0, 67, 17
1, 49400, Control_c, 0, 67, 20
1, 49415, Control_c, 0, 67, 22
1, 49430, Control_c, 0, 67, 25
1, 49445, Control_c, 0, 67, 28
1, 49460, Control_c, 0, 67, 30
1, 49482, Control_c, 0, 67, 32
1, 49497, Control_c, 0, 67, 34
1, 49512, Control_c, 0, 67, 36
1, 49527, Control_c, 0, 67, 39
1, 49542, Control_c, 0, 67, 42
1, 49557, Control_c, 0, 67, 45
1, 49572, Control_c, 0, 67, 48
1, 49587, Control_c, 0, 64, 103
1, 49587, Control_c, 0, 67, 51
1, 49602, Control_c, 0, 64, 87
1, 49602, Control_c, 0, 67, 55
1, 49612, Note_on_c, 0, 67, 45
1, 49617, Control_c, 0, 64, 74
1, 49617, Control_c, 0, 67, 59
1, 49622, Note_off_c, 0, 65, 48
1, 49623, Note_on_c, 0, 52, 42
1, 49632, Control_c, 0, 64, 53
1, 49632, Control_c, 0, 67, 63
1, 49635, Note_on_c, 0, 61, 32
1, 49647, Control_c, 0, 64, 0
1, 49647, Control_c, 0, 67, 67
1, 49652, Note_off_c, 0, 50, 53
1, 49661, Control_c, 0, 67, 71
1, 49676, Control_c, 0, 67, 74
1, 49691, Control_c, 0, 67, 77
1, 49705, Control_c, 0, 67, 80
1, 49710, Note_off_c, 0, 70, 36
1, 49720, Control_c, 0, 64, 53
1, 49720, Control_c, 0, 67, 84
1, 49735, Control_c, 0, 64, 66
1, 49735, Control_c, 0, 67, 88
1, 49750, Control_c, 0, 64, 74
1, 49750, Control_c, 0, 67, 91
1, 49765, Control_c, 0, 64, 86
1, 49765, Control_c, 0, 67, 94
1, 49779, Control_c, 0, 64, 103
1, 49779, Control_c, 0, 67, 98
1, 49794, Control_c, 0, 64, 127
1, 49794, Control_c, 0, 67, 101
1, 49809, Control_c, 0, 67, 104
1, 49824, Control_c, 0, 67, 106
1, 49839, Control_c, 0, 67, 109
1, 49853, Control_c, 0, 67, 112
1, 49868, Control_c, 0, 67, 116
1, 49883, Control_c, 0, 67, 121
1, 49898, Control_c, 0, 67, 125
1, 49912, Control_c, 0, 67, 127
1, 49919, Note_off_c, 0, 61, 39
1, 49930, Note_off_c, 0, 52, 40
1, 50118, Note_on_c, 0, 69, 49
1, 50135, Control_c, 0, 64, 107
1, 50149, Note_on_c, 0, 60, 30
1, 50150, Control_c, 0, 64, 91
1, 50153, Note_on_c, 0, 53, 38
1, 50165, Control_c, 0, 64, 77
1, 50179, Control_c, 0, 64, 64
1, 50194, Control_c, 0, 64, 0
1, 50380, Control_c, 0, 64, 61
1, 50395, Control_c, 0, 64, 72
1, 50410, Control_c, 0, 64, 84
1, 50425, Control_c, 0, 64, 108
1, 50439, Control_c, 0, 64, 127
1, 50480, Note_off_c, 0, 60, 46
1, 50503, Note_off_c, 0, 53, 42
1, 50506, Note_off_c, 0, 69, 61
1, 50512, Note_off_c, 0, 67, 39
1, 50839, Control_c, 0, 64, 103
1, 50852, Note_on_c, 0, 72, 52
1, 50854, Control_c, 0, 64, 80
1, 50869, Control_c, 0, 64, 66
1, 50877, Note_on_c, 0, 53, 32
1, 50882, Note_on_c, 0, 60, 29
1, 50882, Note_on_c, 0, 69, 30
1, 50884, Control_c, 0, 64, 52
1, 50898, Control_c, 0, 64, 56
1, 50900, Note_on_c, 0, 65, 6
1, 50913, Control_c, 0, 64, 63
1, 50928, Control_c, 0, 64, 66
1, 50942, Note_off_c, 0, 69, 46
1, 50943, Control_c, 0, 64, 73
1, 50952, Note_off_c, 0, 65, 50
1, 50958, Control_c, 0, 64, 85
1, 50980, Note_off_c, 0, 53, 54
1, 50981, Control_c, 0, 64, 106
1, 50981, Control_c, 0, 67, 119
1, 50995, Note_off_c, 0, 60, 49
1, 50996, Control_c, 0, 64, 127
1, 50996, Control_c, 0, 67, 107
1, 51009, Note_off_c, 0, 72, 61
1, 51010, Control_c, 0, 67, 93
1, 51025, Control_c, 0, 67, 77
1, 51040, Control_c, 0, 67, 61
1, 51054, Control_c, 0, 67, 48
1, 51069, Control_c, 0, 67, 36
1, 51084, Control_c, 0, 67, 25
1, 51099, Control_c, 0, 67, 17
1, 51115, Control_c, 0, 67, 9
1, 51130, Control_c, 0, 67, 0
1, 51199, Note_on_c, 0, 72, 65
1, 51204, Control_c, 0, 64, 107
1, 51215, Note_on_c, 0, 53, 41
1, 51219, Control_c, 0, 64, 84
1, 51229, Note_on_c, 0, 69, 40
1, 51233, Control_c, 0, 64, 65
1, 51238, Note_on_c, 0, 60, 22
1, 51248, Control_c, 0, 64, 0
1, 51292, Control_c, 0, 64, 47
1, 51307, Control_c, 0, 64, 64
1, 51322, Control_c, 0, 64, 73
1, 51337, Control_c, 0, 64, 85
1, 51352, Control_c, 0, 64, 104
1, 51356, Note_off_c, 0, 69, 54
1, 51366, Control_c, 0, 64, 127
1, 51369, Note_off_c, 0, 72, 56
1, 51394, Note_off_c, 0, 60, 46
1, 51395, Note_off_c, 0, 53, 43
1, 51730, Control_c, 0, 64, 115
1, 51740, Note_on_c, 0, 72, 63
1, 51745, Control_c, 0, 64, 88
1, 51759, Control_c, 0, 64, 69
1, 51773, Note_on_c, 0, 69, 36
1, 51774, Control_c, 0, 64, 0
1, 51775, Note_on_c, 0, 53, 32
1, 51784, Note_on_c, 0, 60, 23
1, 51818, Control_c, 0, 64, 21
1, 51833, Control_c, 0, 64, 61
1, 51848, Control_c, 0, 64, 70
1, 51863, Control_c, 0, 64, 82
1, 51873, Note_off_c, 0, 53, 56
1, 51876, Note_off_c, 0, 60, 55
1, 51877, Control_c, 0, 64, 100
1, 51892, Control_c, 0, 64, 127
1, 52071, Control_c, 0, 64, 96
1, 52078, Note_on_c, 0, 76, 64
1, 52086, Control_c, 0, 64, 79
1, 52086, Control_c, 0, 67, 8
1, 52100, Control_c, 0, 64, 61
1, 52100, Control_c, 0, 67, 8
1, 52112, Note_on_c, 0, 53, 33
1, 52115, Control_c, 0, 64, 0
1, 52115, Control_c, 0, 67, 9
1, 52118, Note_on_c, 0, 60, 23
1, 52129, Note_off_c, 0, 69, 51
1, 52130, Control_c, 0, 67, 10
1, 52135, Note_on_c, 0, 70, 31
1, 52145, Control_c, 0, 67, 11
1, 52160, Control_c, 0, 67, 11
1, 52174, Control_c, 0, 67, 12
1, 52203, Note_off_c, 0, 72, 35
1, 52219, Control_c, 0, 64, 17
1, 52234, Control_c, 0, 64, 64
1, 52249, Control_c, 0, 64, 74
1, 52249, Control_c, 0, 67, 13
1, 52264, Control_c, 0, 64, 92
1, 52279, Control_c, 0, 64, 127
1, 52279, Control_c, 0, 67, 13
1, 52315, Note_off_c, 0, 70, 44
1, 52345, Note_off_c, 0, 53, 41
1, 52353, Control_c, 0, 67, 14
1, 52368, Note_off_c, 0, 60, 43
1, 52368, Control_c, 0, 67, 14
1, 52382, Control_c, 0, 67, 16
1, 52397, Control_c, 0, 67, 19
1, 52412, Control_c, 0, 67, 21
1, 52426, Control_c, 0, 67, 23
1, 52441, Control_c, 0, 67, 24
1, 52470, Control_c, 0, 67, 25
1, 52493, Control_c, 0, 67, 25
1, 52494, Note_on_c, 0, 74, 65
1, 52507, Control_c, 0, 67, 26
1, 52522, Control_c, 0, 67, 28
1, 52537, Control_c, 0, 67, 30
1, 52552, Control_c, 0, 67, 32
1, 52567, Control_c, 0, 67, 33
1, 52581, Control_c, 0, 64, 96
1, 52581, Control_c, 0, 67, 36
1, 52596, Control_c, 0, 64, 78
1, 52596, Control_c, 0, 67, 38
1, 52611, Control_c, 0, 64, 62
1, 52611, Control_c, 0, 67, 39
1, 52623, Note_on_c, 0, 72, 67
1, 52625, Control_c, 0, 64, 0
1, 52625, Control_c, 0, 67, 41
1, 52627, Note_off_c, 0, 76, 54
1, 52640, Control_c, 0, 67, 42
1, 52644, Note_on_c, 0, 53, 35
1, 52649, Note_on_c, 0, 60, 30
1, 52655, Control_c, 0, 67, 43
1, 52663, Note_on_c, 0, 70, 42
1, 52670, Control_c, 0, 67, 44
1, 52685, Control_c, 0, 64, 29
1, 52685, Control_c, 0, 67, 45
1, 52701, Control_c, 0, 64, 64
1, 52701, Control_c, 0, 67, 47
1, 52702, Note_off_c, 0, 74, 57
1, 52705, Note_off_c, 0, 70, 61
1, 52716, Control_c, 0, 64, 73
1, 52716, Control_c, 0, 67, 48
1, 52725, Note_off_c, 0, 53, 56
1, 52730, Control_c, 0, 64, 86
1, 52745, Control_c, 0, 64, 112
1, 52757, Note_off_c, 0, 60, 49
1, 52760, Control_c, 0, 64, 127
1, 52819, Control_c, 0, 67, 48
1, 52937, Control_c, 0, 67, 49
1, 52967, Control_c, 0, 64, 105
1, 52978, Note_on_c, 0, 77, 59
1, 52982, Control_c, 0, 64, 86
1, 52994, Note_on_c, 0, 53, 37
1, 52997, Control_c, 0, 64, 71
1, 53012, Control_c, 0, 64, 38
1, 53012, Note_on_c, 0, 69, 35
1, 53014, Note_on_c, 0, 60, 22
1, 53027, Control_c, 0, 64, 0
1, 53027, Control_c, 0, 67, 49
1, 53056, Control_c, 0, 67, 50
1, 53067, Note_off_c, 0, 72, 56
1, 53071, Control_c, 0, 67, 50
1, 53086, Control_c, 0, 67, 52
1, 53101, Control_c, 0, 67, 54
1, 53116, Control_c, 0, 67, 55
1, 53130, Control_c, 0, 67, 56
1, 53145, Control_c, 0, 67, 57
1, 53175, Control_c, 0, 67, 57
1, 53190, Control_c, 0, 64, 47
1, 53204, Control_c, 0, 64, 64
1, 53227, Control_c, 0, 64, 71
1, 53227, Control_c, 0, 67, 58
1, 53241, Control_c, 0, 64, 82
1, 53256, Control_c, 0, 64, 94
1, 53271, Control_c, 0, 64, 111
1, 53271, Control_c, 0, 67, 58
1, 53286, Control_c, 0, 64, 127
1, 53286, Control_c, 0, 67, 59
1, 53301, Control_c, 0, 67, 59
1, 53316, Control_c, 0, 67, 60
1, 53345, Control_c, 0, 67, 60
1, 53360, Control_c, 0, 67, 61
1, 53370, Note_off_c, 0, 69, 53
1, 53375, Control_c, 0, 67, 63
1, 53385, Note_off_c, 0, 60, 46
1, 53389, Control_c, 0, 67, 63
1, 53404, Control_c, 0, 67, 64
1, 53419, Control_c, 0, 67, 64
1, 53434, Control_c, 0, 67, 65
1, 53449, Control_c, 0, 67, 66
1, 53463, Control_c, 0, 67, 66
1, 53478, Control_c, 0, 67, 68
1, 53493, Control_c, 0, 67, 68
1, 53509, Control_c, 0, 67, 69
1, 53524, Control_c, 0, 67, 70
1, 53539, Control_c, 0, 67, 70
1, 53553, Control_c, 0, 67, 71
1, 53568, Control_c, 0, 67, 71
1, 53583, Control_c, 0, 67, 72
1, 53598, Control_c, 0, 67, 73
1, 53613, Note_on_c, 0, 74, 61
1, 53613, Control_c, 0, 67, 74
1, 53627, Control_c, 0, 64, 98
1, 53627, Control_c, 0, 67, 76
1, 53642, Control_c, 0, 64, 81
1, 53642, Control_c, 0, 67, 77
1, 53644, Note_on_c, 0, 65, 41
1, 53645, Note_on_c, 0, 58, 40
1, 53657, Control_c, 0, 64, 65
1, 53657, Control_c, 0, 67, 78
1, 53671, Control_c, 0, 64, 0
1, 53671, Control_c, 0, 67, 78
1, 53683, Note_off_c, 0, 53, 48
1, 53686, Control_c, 0, 67, 79
1, 53701, Control_c, 0, 67, 79
1, 53716, Control_c, 0, 67, 80
1, 53731, Control_c, 0, 67, 80
1, 53745, Control_c, 0, 67, 81
1, 53760, Control_c, 0, 67, 81
1, 53775, Control_c, 0, 64, 60
1, 53790, Control_c, 0, 64, 70
1, 53805, Control_c, 0, 64, 85
1, 53820, Control_c, 0, 64, 111
1, 53826, Note_off_c, 0, 65, 53
1, 53835, Control_c, 0, 64, 127
1, 53939, Control_c, 0, 67, 82
1, 53953, Note_on_c, 0, 72, 67
1, 53974, Note_on_c, 0, 65, 50
1, 53976, Control_c, 0, 64, 98
1, 53991, Control_c, 0, 64, 80
1, 53996, Note_on_c, 0, 57, 43
1, 54002, Note_off_c, 0, 77, 35
1, 54002, Note_off_c, 0, 58, 53
1, 54005, Control_c, 0, 64, 61
1, 54020, Control_c, 0, 64, 0
1, 54035, Control_c, 0, 67, 82
1, 54049, Note_off_c, 0, 74, 61
1, 54094, Control_c, 0, 67, 83
1, 54124, Control_c, 0, 64, 14
1, 54139, Control_c, 0, 64, 63
1, 54154, Control_c, 0, 64, 72
1, 54160, Note_off_c, 0, 72, 60
1, 54169, Control_c, 0, 64, 85
1, 54183, Control_c, 0, 64, 127
1, 54243, Control_c, 0, 67, 83
1, 54287, Control_c, 0, 67, 84
1, 54303, Control_c, 0, 67, 84
1, 54311, Note_off_c, 0, 57, 43
1, 54318, Control_c, 0, 67, 85
1, 54332, Control_c, 0, 67, 88
1, 54347, Control_c, 0, 67, 90
1, 54362, Control_c, 0, 67, 92
1, 54377, Control_c, 0, 67, 93
1, 54392, Control_c, 0, 67, 94
1, 54407, Control_c, 0, 67, 94
1, 54421, Control_c, 0, 67, 95
1, 54436, Control_c, 0, 67, 96
1, 54451, Control_c, 0, 67, 97
1, 54466, Control_c, 0, 67, 99
1, 54481, Control_c, 0, 67, 101
1, 54495, Control_c, 0, 64, 111
1, 54495, Control_c, 0, 67, 102
1, 54501, Note_on_c, 0, 69, 57
1, 54510, Control_c, 0, 64, 87
1, 54510, Control_c, 0, 67, 104
1, 54512, Note_on_c, 0, 64, 48
1, 54525, Control_c, 0, 64, 69
1, 54525, Control_c, 0, 67, 105
1, 54535, Note_off_c, 0, 65, 41
1, 54539, Note_on_c, 0, 48, 37
1, 54540, Control_c, 0, 64, 0
1, 54540, Control_c, 0, 67, 107
1, 54543, Note_on_c, 0, 57, 36
1, 54555, Control_c, 0, 67, 109
1, 54569, Control_c, 0, 67, 111
1, 54584, Control_c, 0, 67, 113
1, 54599, Control_c, 0, 67, 114
1, 54614, Control_c, 0, 64, 63
1, 54614, Control_c, 0, 67, 115
1, 54628, Control_c, 0, 64, 73
1, 54628, Control_c, 0, 67, 117
1, 54643, Control_c, 0, 64, 86
1, 54643, Control_c, 0, 67, 118
1, 54648, Note_off_c, 0, 57, 49
1, 54658, Control_c, 0, 64, 117
1, 54658, Control_c, 0, 67, 119
1, 54673, Control_c, 0, 64, 127
1, 54673, Control_c, 0, 67, 119
1, 54688, Control_c, 0, 67, 120
1, 54702, Control_c, 0, 67, 121
1, 54725, Control_c, 0, 67, 122
1, 54740, Control_c, 0, 67, 123
1, 54755, Control_c, 0, 67, 125
1, 54770, Control_c, 0, 67, 126
1, 54784, Control_c, 0, 67, 127
1, 54814, Control_c, 0, 64, 104
1, 54825, Note_off_c, 0, 64, 61
1, 54826, Note_on_c, 0, 65, 55
1, 54828, Control_c, 0, 64, 85
1, 54843, Control_c, 0, 64, 70
1, 54854, Note_on_c, 0, 60, 40
1, 54858, Note_off_c, 0, 48, 42
1, 54858, Control_c, 0, 64, 0
1, 54866, Note_on_c, 0, 57, 33
1, 54868, Note_on_c, 0, 50, 34
1, 54881, Note_off_c, 0, 69, 50
1, 55021, Control_c, 0, 64, 61
1, 55036, Control_c, 0, 64, 70
1, 55051, Control_c, 0, 64, 85
1, 55054, Note_off_c, 0, 60, 55
1, 55056, Note_off_c, 0, 50, 61
1, 55066, Control_c, 0, 64, 110
1, 55081, Control_c, 0, 64, 127
1, 55136, Note_off_c, 0, 65, 61
1, 55192, Note_off_c, 0, 57, 42
1, 55378, Control_c, 0, 64, 113
1, 55392, Control_c, 0, 64, 90
1, 55407, Control_c, 0, 64, 75
1, 55416, Note_on_c, 0, 67, 49
1, 55422, Control_c, 0, 64, 53
1, 55426, Note_on_c, 0, 65, 42
1, 55432, Note_on_c, 0, 58, 38
1, 55437, Control_c, 0, 64, 0
1, 55443, Note_on_c, 0, 43, 31
1, 55445, Note_on_c, 0, 50, 34
1, 55533, Control_c, 0, 64, 57
1, 55548, Control_c, 0, 64, 68
1, 55563, Control_c, 0, 64, 78
1, 55578, Control_c, 0, 64, 93
1, 55588, Note_off_c, 0, 67, 55
1, 55593, Control_c, 0, 64, 120
1, 55594, Note_off_c, 0, 65, 56
1, 55607, Control_c, 0, 64, 127
1, 55632, Note_off_c, 0, 58, 34
1, 55799, Control_c, 0, 64, 108
1, 55802, Note_on_c, 0, 67, 48
1, 55814, Note_on_c, 0, 64, 40
1, 55814, Control_c, 0, 64, 91
1, 55819, Note_on_c, 0, 58, 27
1, 55823, Note_on_c, 0, 48, 43
1, 55829, Control_c, 0, 64, 77
1, 55844, Control_c, 0, 64, 65
1, 55859, Control_c, 0, 64, 0
1, 55861, Note_off_c, 0, 43, 42
1, 55873, Note_off_c, 0, 50, 46
1, 56008, Control_c, 0, 64, 54
1, 56023, Control_c, 0, 64, 66
1, 56038, Control_c, 0, 64, 74
1, 56052, Control_c, 0, 64, 85
1, 56067, Control_c, 0, 64, 101
1, 56082, Control_c, 0, 64, 127
1, 56142, Note_off_c, 0, 64, 40
1, 56144, Note_off_c, 0, 48, 34
1, 56147, Note_off_c, 0, 58, 42
1, 56473, Control_c, 0, 64, 102
1, 56488, Control_c, 0, 64, 85
1, 56494, Note_on_c, 0, 62, 32
1, 56503, Control_c, 0, 64, 72
1, 56507, Note_on_c, 0, 58, 30
1, 56510, Note_on_c, 0, 48, 32
1, 56517, Control_c, 0, 64, 61
1, 56532, Control_c, 0, 64, 27
1, 56547, Control_c, 0, 64, 40
1, 56562, Control_c, 0, 64, 60
1, 56577, Control_c, 0, 64, 66
1, 56591, Control_c, 0, 64, 72
1, 56606, Control_c, 0, 64, 81
1, 56621, Control_c, 0, 64, 94
1, 56636, Control_c, 0, 64, 113
1, 56651, Control_c, 0, 64, 127
1, 56682, Note_off_c, 0, 58, 43
1, 56756, Note_off_c, 0, 48, 41
1, 56775, Note_off_c, 0, 67, 37
1, 56796, Note_off_c, 0, 62, 39
1, 56971, Control_c, 0, 64, 116
1, 56985, Control_c, 0, 64, 94
1, 56986, Note_on_c, 0, 69, 48
1, 57000, Control_c, 0, 64, 79
1, 57009, Note_on_c, 0, 60, 34
1, 57015, Control_c, 0, 64, 65
1, 57018, Note_on_c, 0, 41, 27
1, 57030, Control_c, 0, 64, 0
1, 57032, Note_on_c, 0, 53, 17
1, 57119, Control_c, 0, 64, 21
1, 57134, Control_c, 0, 64, 64
1, 57149, Control_c, 0, 64, 73
1, 57164, Control_c, 0, 64, 85
1, 57178, Control_c, 0, 64, 106
1, 57193, Control_c, 0, 64, 127
1, 57235, Note_off_c, 0, 69, 56
1, 57260, Note_off_c, 0, 60, 40
1, 57310, Note_off_c, 0, 53, 46
1, 57325, Note_off_c, 0, 41, 39
1, 57549, Control_c, 0, 64, 116
1, 57561, Note_on_c, 0, 70, 53
1, 57564, Control_c, 0, 64, 90
1, 57579, Note_on_c, 0, 46, 37
1, 57579, Control_c, 0, 64, 73
1, 57585, Note_on_c, 0, 62, 33
1, 57591, Note_on_c, 0, 53, 28
1, 57594, Control_c, 0, 64, 58
1, 57608, Control_c, 0, 64, 0
1, 57623, Control_c, 0, 64, 37
1, 57638, Control_c, 0, 64, 59
1, 57653, Control_c, 0, 64, 66
1, 57668, Control_c, 0, 64, 74
1, 57683, Control_c, 0, 64, 86
1, 57698, Control_c, 0, 64, 109
1, 57703, Note_off_c, 0, 53, 39
1, 57719, Control_c, 0, 64, 127
1, 57732, Note_off_c, 0, 62, 34
1, 57880, Note_on_c, 0, 69, 59
1, 57883, Control_c, 0, 64, 105
1, 57894, Note_off_c, 0, 46, 38
1, 57898, Control_c, 0, 64, 86
1, 57908, Note_on_c, 0, 48, 36
1, 57912, Note_on_c, 0, 60, 34
1, 57913, Control_c, 0, 64, 71
1, 57927, Control_c, 0, 64, 54
1, 57929, Note_off_c, 0, 70, 53
1, 57930, Note_on_c, 0, 53, 31
1, 57942, Control_c, 0, 64, 0
1, 58045, Control_c, 0, 64, 62
1, 58060, Control_c, 0, 64, 70
1, 58075, Control_c, 0, 64, 80
1, 58090, Control_c, 0, 64, 95
1, 58105, Control_c, 0, 64, 114
1, 58119, Control_c, 0, 64, 127
1, 58126, Note_off_c, 0, 48, 41
1, 58181, Note_off_c, 0, 53, 44
1, 58431, Control_c, 0, 64, 98
1, 58443, Note_on_c, 0, 65, 52
1, 58446, Control_c, 0, 64, 80
1, 58465, Note_off_c, 0, 60, 50
1, 58467, Control_c, 0, 64, 65
1, 58477, Note_on_c, 0, 62, 39
1, 58482, Control_c, 0, 64, 0
1, 58488, Note_on_c, 0, 46, 33
1, 58492, Note_off_c, 0, 69, 55
1, 58502, Note_on_c, 0, 53, 31
1, 58542, Control_c, 0, 64, 52
1, 58556, Control_c, 0, 64, 67
1, 58571, Control_c, 0, 64, 77
1, 58586, Control_c, 0, 64, 92
1, 58590, Note_off_c, 0, 53, 53
1, 58601, Control_c, 0, 64, 127
1, 58627, Note_off_c, 0, 46, 34
1, 58786, Note_on_c, 0, 69, 56
1, 58793, Control_c, 0, 64, 95
1, 58805, Note_on_c, 0, 48, 41
1, 58808, Control_c, 0, 64, 78
1, 58810, Note_on_c, 0, 60, 45
1, 58819, Note_off_c, 0, 62, 59
1, 58823, Control_c, 0, 64, 63
1, 58824, Note_on_c, 0, 53, 33
1, 58838, Control_c, 0, 64, 0
1, 58841, Note_off_c, 0, 65, 59
1, 58853, Control_c, 0, 67, 124
1, 58867, Control_c, 0, 67, 117
1, 58882, Control_c, 0, 67, 109
1, 58897, Control_c, 0, 67, 101
1, 58912, Control_c, 0, 64, 46
1, 58912, Control_c, 0, 67, 93
1, 58927, Control_c, 0, 64, 65
1, 58927, Control_c, 0, 67, 84
1, 58941, Control_c, 0, 64, 75
1, 58941, Control_c, 0, 67, 75
1, 58956, Control_c, 0, 64, 88
1, 58956, Control_c, 0, 67, 66
1, 58971, Control_c, 0, 64, 108
1, 58971, Control_c, 0, 67, 58
1, 58986, Control_c, 0, 64, 127
1, 58986, Control_c, 0, 67, 50
1, 59001, Control_c, 0, 67, 40
1, 59015, Control_c, 0, 67, 29
1, 59026, Note_off_c, 0, 60, 55
1, 59030, Control_c, 0, 67, 16
1, 59045, Control_c, 0, 67, 0
1, 59096, Note_off_c, 0, 69, 62
1, 59100, Note_off_c, 0, 48, 41
1, 59122, Note_off_c, 0, 53, 45
1, 59320, Control_c, 0, 64, 98
1, 59335, Control_c, 0, 64, 80
1, 59346, Note_on_c, 0, 70, 57
1, 59350, Control_c, 0, 64, 65
1, 59364, Control_c, 0, 64, 0
1, 59366, Note_on_c, 0, 50, 34
1, 59370, Note_on_c, 0, 58, 38
1, 59380, Note_on_c, 0, 53, 37
1, 59424, Control_c, 0, 64, 57
1, 59439, Control_c, 0, 64, 68
1, 59454, Control_c, 0, 64, 78
1, 59469, Control_c, 0, 64, 92
1, 59483, Control_c, 0, 64, 127
1, 59506, Note_off_c, 0, 53, 36
1, 59525, Note_off_c, 0, 58, 58
1, 59676, Control_c, 0, 64, 99
1, 59678, Note_on_c, 0, 69, 63
1, 59690, Control_c, 0, 64, 80
1, 59700, Note_on_c, 0, 60, 36
1, 59701, Note_on_c, 0, 53, 32
1, 59705, Control_c, 0, 64, 63
1, 59706, Note_off_c, 0, 50, 49
1, 59707, Note_on_c, 0, 48, 38
1, 59720, Control_c, 0, 64, 0
1, 59738, Note_off_c, 0, 70, 59
1, 59808, Control_c, 0, 64, 29
1, 59808, Control_c, 0, 67, 8
1, 59823, Control_c, 0, 64, 64
1, 59823, Control_c, 0, 67, 8
1, 59838, Control_c, 0, 64, 72
1, 59838, Control_c, 0, 67, 9
1, 59853, Control_c, 0, 64, 83
1, 59853, Control_c, 0, 67, 11
1, 59868, Control_c, 0, 64, 98
1, 59868, Control_c, 0, 67, 13
1, 59884, Control_c, 0, 64, 127
1, 59884, Control_c, 0, 67, 14
1, 59899, Control_c, 0, 67, 16
1, 59913, Control_c, 0, 67, 19
1, 59928, Control_c, 0, 67, 21
1, 59943, Control_c, 0, 67, 24
1, 59963, Note_off_c, 0, 53, 45
1, 59966, Control_c, 0, 67, 27
1, 59981, Control_c, 0, 67, 30
1, 59993, Note_off_c, 0, 48, 41
1, 59995, Control_c, 0, 67, 34
1, 60010, Control_c, 0, 67, 38
1, 60025, Control_c, 0, 67, 41
1, 60039, Control_c, 0, 67, 44
1, 60054, Control_c, 0, 67, 46
1, 60069, Control_c, 0, 67, 50
1, 60084, Control_c, 0, 67, 52
1, 60099, Control_c, 0, 67, 54
1, 60113, Control_c, 0, 67, 56
1, 60117, Note_on_c, 0, 67, 57
1, 60128, Control_c, 0, 67, 58
1, 60143, Control_c, 0, 67, 60
1, 60158, Control_c, 0, 67, 63
1, 60173, Control_c, 0, 67, 65
1, 60187, Control_c, 0, 67, 67
1, 60194, Note_off_c, 0, 60, 37
1, 60202, Control_c, 0, 67, 69
1, 60217, Control_c, 0, 67, 72
1, 60232, Control_c, 0, 67, 74
1, 60243, Note_off_c, 0, 69, 38
1, 60247, Control_c, 0, 64, 98
1, 60247, Control_c, 0, 67, 76
1, 60253, Note_on_c, 0, 65, 56
1, 60261, Control_c, 0, 64, 80
1, 60261, Control_c, 0, 67, 78
1, 60269, Note_off_c, 0, 67, 53
1, 60276, Control_c, 0, 64, 60
1, 60276, Control_c, 0, 67, 80
1, 60278, Note_on_c, 0, 46, 44
1, 60282, Note_on_c, 0, 62, 37
1, 60291, Control_c, 0, 64, 0
1, 60291, Control_c, 0, 67, 81
1, 60300, Note_on_c, 0, 53, 34
1, 60306, Control_c, 0, 67, 83
1, 60321, Control_c, 0, 67, 84
1, 60336, Control_c, 0, 67, 85
1, 60351, Control_c, 0, 67, 85
1, 60360, Note_off_c, 0, 62, 51
1, 60380, Control_c, 0, 64, 53
1, 60395, Control_c, 0, 64, 68
1, 60410, Control_c, 0, 64, 79
1, 60425, Control_c, 0, 64, 95
1, 60439, Control_c, 0, 64, 127
1, 60443, Note_off_c, 0, 46, 45
1, 60452, Note_off_c, 0, 53, 37
1, 60583, Note_on_c, 0, 69, 61
1, 60587, Control_c, 0, 64, 112
1, 60595, Note_on_c, 0, 53, 36
1, 60600, Note_on_c, 0, 60, 46
1, 60602, Control_c, 0, 64, 90
1, 60604, Note_on_c, 0, 48, 46
1, 60617, Control_c, 0, 64, 73
1, 60624, Note_off_c, 0, 65, 61
1, 60631, Control_c, 0, 64, 48
1, 60646, Control_c, 0, 64, 0
1, 60759, Control_c, 0, 64, 55
1, 60774, Control_c, 0, 64, 68
1, 60789, Control_c, 0, 64, 80
1, 60804, Control_c, 0, 64, 97
1, 60811, Note_off_c, 0, 60, 57
1, 60819, Control_c, 0, 64, 127
1, 60852, Note_off_c, 0, 69, 61
1, 60878, Note_off_c, 0, 48, 45
1, 60895, Note_off_c, 0, 53, 55
1, 61159, Control_c, 0, 64, 114
1, 61172, Note_on_c, 0, 70, 62
1, 61174, Control_c, 0, 64, 88
1, 61189, Control_c, 0, 64, 70
1, 61199, Note_on_c, 0, 58, 45
1, 61203, Control_c, 0, 64, 0
1, 61206, Note_on_c, 0, 50, 33
1, 61210, Note_on_c, 0, 53, 39
1, 61263, Control_c, 0, 64, 46
1, 61278, Control_c, 0, 64, 66
1, 61293, Control_c, 0, 64, 78
1, 61308, Control_c, 0, 64, 97
1, 61308, Control_c, 0, 67, 85
1, 61311, Note_off_c, 0, 53, 56
1, 61317, Note_off_c, 0, 58, 59
1, 61323, Control_c, 0, 64, 127
1, 61352, Control_c, 0, 67, 84
1, 61367, Control_c, 0, 67, 84
1, 61411, Control_c, 0, 67, 83
1, 61463, Control_c, 0, 67, 83
1, 61521, Note_on_c, 0, 69, 63
1, 61523, Control_c, 0, 64, 96
1, 61530, Note_off_c, 0, 50, 56
1, 61536, Note_on_c, 0, 60, 40
1, 61538, Control_c, 0, 64, 77
1, 61538, Control_c, 0, 67, 82
1, 61546, Note_on_c, 0, 48, 42
1, 61553, Control_c, 0, 64, 60
1, 61553, Control_c, 0, 67, 82
1, 61563, Note_on_c, 0, 53, 44
1, 61567, Note_off_c, 0, 70, 61
1, 61567, Control_c, 0, 64, 0
1, 61582, Control_c, 0, 67, 81
1, 61597, Control_c, 0, 67, 80
1, 61612, Control_c, 0, 67, 79
1, 61627, Control_c, 0, 67, 78
1, 61642, Control_c, 0, 67, 77
1, 61657, Control_c, 0, 67, 75
1, 61671, Control_c, 0, 64, 59
1, 61671, Control_c, 0, 67, 74
1, 61686, Control_c, 0, 64, 70
1, 61686, Control_c, 0, 67, 72
1, 61701, Control_c, 0, 64, 85
1, 61701, Control_c, 0, 67, 70
1, 61716, Control_c, 0, 64, 112
1, 61716, Control_c, 0, 67, 67
1, 61731, Control_c, 0, 64, 127
1, 61731, Control_c, 0, 67, 64
1, 61731, Note_off_c, 0, 48, 50
1, 61746, Control_c, 0, 67, 60
1, 61760, Control_c, 0, 67, 55
1, 61769, Note_off_c, 0, 53, 61
1, 61775, Control_c, 0, 67, 50
1, 61790, Control_c, 0, 67, 46
1, 61805, Control_c, 0, 67, 43
1, 61819, Control_c, 0, 67, 41
1, 61834, Control_c, 0, 67, 39
1, 61849, Control_c, 0, 67, 37
1, 61864, Control_c, 0, 67, 36
1, 61879, Control_c, 0, 67, 35
1, 61893, Control_c, 0, 67, 33
1, 61908, Control_c, 0, 67, 32
1, 61923, Control_c, 0, 67, 30
1, 61931, Note_off_c, 0, 60, 34
1, 61938, Control_c, 0, 67, 29
1, 61944, Note_on_c, 0, 67, 59
1, 61953, Control_c, 0, 67, 26
1, 61967, Control_c, 0, 67, 24
1, 61982, Control_c, 0, 67, 22
1, 61997, Control_c, 0, 67, 20
1, 62011, Control_c, 0, 67, 19
1, 62026, Control_c, 0, 67, 18
1, 62041, Control_c, 0, 67, 17
1, 62056, Control_c, 0, 67, 14
1, 62071, Control_c, 0, 64, 90
1, 62071, Control_c, 0, 67, 12
1, 62083, Note_on_c, 0, 65, 59
1, 62086, Control_c, 0, 64, 72
1, 62086, Control_c, 0, 67, 9
1, 62100, Note_on_c, 0, 60, 42
1, 62101, Control_c, 0, 64, 38
1, 62101, Control_c, 0, 67, 0
1, 62104, Note_off_c, 0, 69, 41
1, 62115, Note_on_c, 0, 57, 42
1, 62116, Control_c, 0, 64, 0
1, 62123, Note_on_c, 0, 48, 35
1, 62145, Note_off_c, 0, 67, 51
1, 62160, Control_c, 0, 64, 51
1, 62175, Control_c, 0, 64, 68
1, 62190, Control_c, 0, 64, 78
1, 62202, Note_off_c, 0, 57, 61
1, 62210, Note_off_c, 0, 48, 56
1, 62211, Control_c, 0, 64, 92
1, 62226, Control_c, 0, 64, 120
1, 62236, Note_off_c, 0, 60, 51
1, 62241, Control_c, 0, 64, 127
1, 62447, Note_on_c, 0, 67, 63
1, 62449, Control_c, 0, 64, 107
1, 62463, Note_on_c, 0, 48, 41
1, 62464, Note_on_c, 0, 62, 49
1, 62464, Control_c, 0, 64, 83
1, 62478, Note_off_c, 0, 65, 60
1, 62479, Control_c, 0, 64, 66
1, 62483, Note_on_c, 0, 58, 37
1, 62494, Control_c, 0, 64, 0
1, 62569, Control_c, 0, 64, 32
1, 62583, Control_c, 0, 64, 63
1, 62598, Control_c, 0, 64, 73
1, 62613, Control_c, 0, 64, 86
1, 62628, Control_c, 0, 64, 110
1, 62642, Control_c, 0, 64, 127
1, 62737, Note_off_c, 0, 48, 40
1, 62747, Note_off_c, 0, 62, 54
1, 62788, Note_off_c, 0, 58, 37
1, 63064, Control_c, 0, 64, 122
1, 63072, Note_on_c, 0, 64, 61
1, 63078, Control_c, 0, 64, 93
1, 63084, Note_on_c, 0, 60, 47
1, 63094, Control_c, 0, 64, 78
1, 63096, Note_on_c, 0, 48, 42
1, 63099, Note_on_c, 0, 58, 44
1, 63109, Control_c, 0, 64, 67
1, 63124, Control_c, 0, 64, 63
1, 63138, Control_c, 0, 64, 67
1, 63153, Control_c, 0, 64, 74
1, 63168, Control_c, 0, 64, 88
1, 63183, Control_c, 0, 64, 127
1, 63195, Note_off_c, 0, 60, 59
1, 63227, Note_off_c, 0, 67, 61
1, 63247, Note_off_c, 0, 64, 62
1, 63293, Note_off_c, 0, 48, 40
1, 63316, Note_off_c, 0, 58, 37
1, 63534, Note_on_c, 0, 72, 72
1, 63560, Note_on_c, 0, 48, 48
1, 63561, Note_on_c, 0, 64, 56
1, 63568, Control_c, 0, 64, 112
1, 63570, Note_on_c, 0, 57, 44
1, 63582, Control_c, 0, 64, 90
1, 63597, Control_c, 0, 64, 71
1, 63612, Control_c, 0, 64, 29
1, 63627, Control_c, 0, 64, 0
1, 63739, Control_c, 0, 64, 34
1, 63754, Control_c, 0, 64, 64
1, 63769, Control_c, 0, 64, 72
1, 63783, Control_c, 0, 64, 85
1, 63798, Control_c, 0, 64, 127
1, 63898, Note_off_c, 0, 48, 30
1, 63916, Note_off_c, 0, 57, 37
1, 63960, Note_off_c, 0, 64, 39
1, 64153, Note_on_c, 0, 64, 51
1, 64164, Note_on_c, 0, 48, 35
1, 64166, Note_on_c, 0, 57, 35
1, 64288, Note_off_c, 0, 57, 57
1, 64309, Note_off_c, 0, 48, 34
1, 64313, Note_off_c, 0, 64, 60
1, 64480, Note_on_c, 0, 64, 50
1, 64497, Note_on_c, 0, 48, 38
1, 64498, Note_on_c, 0, 57, 40
1, 64784, Note_off_c, 0, 57, 34
1, 64992, Control_c, 0, 64, 106
1, 65007, Control_c, 0, 64, 81
1, 65017, Note_on_c, 0, 69, 65
1, 65022, Control_c, 0, 64, 49
1, 65034, Note_on_c, 0, 65, 55
1, 65037, Control_c, 0, 64, 0
1, 65038, Note_on_c, 0, 50, 45
1, 65049, Note_off_c, 0, 64, 54
1, 65053, Note_on_c, 0, 57, 33
1, 65064, Note_off_c, 0, 48, 42
1, 65081, Note_off_c, 0, 72, 58
1, 65111, Control_c, 0, 64, 65
1, 65126, Control_c, 0, 64, 76
1, 65141, Control_c, 0, 64, 92
1, 65155, Control_c, 0, 64, 127
1, 65234, Note_off_c, 0, 57, 36
1, 65355, Note_on_c, 0, 72, 72
1, 65378, Note_on_c, 0, 64, 49
1, 65385, Control_c, 0, 64, 93
1, 65388, Note_off_c, 0, 50, 54
1, 65392, Note_on_c, 0, 57, 37
1, 65400, Control_c, 0, 64, 71
1, 65403, Note_on_c, 0, 52, 42
1, 65409, Note_off_c, 0, 65, 57
1, 65415, Control_c, 0, 64, 0
1, 65445, Note_off_c, 0, 69, 58
1, 65534, Control_c, 0, 64, 32
1, 65549, Control_c, 0, 64, 64
1, 65564, Control_c, 0, 64, 73
1, 65578, Control_c, 0, 64, 86
1, 65593, Control_c, 0, 64, 114
1, 65608, Control_c, 0, 64, 127
1, 65662, Note_off_c, 0, 57, 37
1, 65889, Control_c, 0, 64, 102
1, 65904, Control_c, 0, 64, 80
1, 65910, Note_on_c, 0, 69, 70
1, 65919, Control_c, 0, 64, 61
1, 65925, Note_off_c, 0, 52, 54
1, 65930, Note_on_c, 0, 57, 33
1, 65930, Note_on_c, 0, 65, 53
1, 65934, Control_c, 0, 64, 0
1, 65939, Note_on_c, 0, 50, 43
1, 65946, Note_off_c, 0, 64, 55
1, 65985, Note_off_c, 0, 72, 57
1, 66030, Control_c, 0, 64, 43
1, 66045, Control_c, 0, 64, 67
1, 66059, Control_c, 0, 64, 80
1, 66074, Control_c, 0, 64, 113
1, 66089, Control_c, 0, 64, 127
1, 66107, Note_off_c, 0, 57, 37
1, 66249, Note_on_c, 0, 72, 73
1, 66269, Note_on_c, 0, 64, 54
1, 66269, Note_off_c, 0, 65, 61
1, 66274, Note_on_c, 0, 52, 50
1, 66280, Note_off_c, 0, 50, 56
1, 66283, Control_c, 0, 64, 108
1, 66288, Note_on_c, 0, 57, 35
1, 66298, Control_c, 0, 64, 84
1, 66311, Note_off_c, 0, 69, 57
1, 66313, Control_c, 0, 64, 66
1, 66328, Control_c, 0, 64, 0
1, 66446, Control_c, 0, 64, 60
1, 66461, Control_c, 0, 64, 70
1, 66475, Control_c, 0, 64, 81
1, 66490, Control_c, 0, 64, 101
1, 66505, Control_c, 0, 64, 127
1, 66520, Control_c, 0, 67, 8
1, 66527, Note_off_c, 0, 64, 58
1, 66535, Control_c, 0, 67, 8
1, 66575, Note_off_c, 0, 57, 46
1, 66579, Control_c, 0, 67, 9
1, 66594, Control_c, 0, 67, 10
1, 66608, Control_c, 0, 67, 12
1, 66623, Control_c, 0, 67, 14
1, 66638, Control_c, 0, 67, 17
1, 66653, Control_c, 0, 67, 20
1, 66668, Control_c, 0, 67, 23
1, 66682, Control_c, 0, 67, 25
1, 66705, Control_c, 0, 67, 27
1, 66720, Control_c, 0, 67, 29
1, 66734, Control_c, 0, 67, 30
1, 66749, Control_c, 0, 67, 31
1, 66764, Control_c, 0, 67, 33
1, 66779, Control_c, 0, 67, 34
1, 66794, Control_c, 0, 67, 36
1, 66808, Control_c, 0, 67, 37
1, 66814, Note_on_c, 0, 74, 75
1, 66823, Control_c, 0, 64, 91
1, 66823, Control_c, 0, 67, 37
1, 66828, Note_off_c, 0, 52, 54
1, 66835, Note_on_c, 0, 62, 53
1, 66838, Control_c, 0, 64, 70
1, 66838, Control_c, 0, 67, 38
1, 66850, Note_on_c, 0, 57, 37
1, 66853, Note_off_c, 0, 72, 58
1, 66853, Control_c, 0, 64, 34
1, 66853, Control_c, 0, 67, 39
1, 66858, Note_on_c, 0, 53, 36
1, 66868, Control_c, 0, 64, 0
1, 66868, Control_c, 0, 67, 39
1, 66882, Control_c, 0, 67, 40
1, 66897, Control_c, 0, 64, 45
1, 66897, Control_c, 0, 67, 41
1, 66912, Control_c, 0, 64, 64
1, 66912, Control_c, 0, 67, 43
1, 66927, Control_c, 0, 64, 74
1, 66927, Control_c, 0, 67, 44
1, 66942, Control_c, 0, 64, 87
1, 66942, Control_c, 0, 67, 45
1, 66957, Control_c, 0, 64, 116
1, 66957, Control_c, 0, 67, 46
1, 66972, Control_c, 0, 64, 127
1, 66972, Control_c, 0, 67, 46
1, 66983, Note_off_c, 0, 57, 49
1, 66986, Control_c, 0, 67, 47
1, 67001, Control_c, 0, 67, 47
1, 67013, Note_off_c, 0, 62, 37
1, 67016, Control_c, 0, 67, 48
1, 67046, Control_c, 0, 67, 49
1, 67061, Control_c, 0, 67, 50
1, 67076, Control_c, 0, 67, 51
1, 67091, Control_c, 0, 67, 52
1, 67106, Control_c, 0, 67, 53
1, 67121, Control_c, 0, 67, 54
1, 67135, Control_c, 0, 67, 54
1, 67150, Control_c, 0, 67, 56
1, 67155, Note_on_c, 0, 72, 68
1, 67165, Control_c, 0, 64, 101
1, 67165, Control_c, 0, 67, 58
1, 67176, Note_on_c, 0, 64, 49
1, 67180, Control_c, 0, 64, 81
1, 67180, Control_c, 0, 67, 60
1, 67185, Note_on_c, 0, 52, 44
1, 67195, Control_c, 0, 64, 64
1, 67195, Control_c, 0, 67, 61
1, 67197, Note_off_c, 0, 53, 47
1, 67200, Note_on_c, 0, 57, 36
1, 67210, Control_c, 0, 64, 0
1, 67210, Control_c, 0, 67, 63
1, 67220, Note_off_c, 0, 74, 58
1, 67225, Control_c, 0, 67, 64
1, 67239, Control_c, 0, 67, 66
1, 67254, Control_c, 0, 67, 67
1, 67269, Control_c, 0, 67, 68
1, 67284, Control_c, 0, 67, 69
1, 67298, Control_c, 0, 64, 53
1, 67298, Control_c, 0, 67, 70
1, 67313, Control_c, 0, 64, 67
1, 67313, Control_c, 0, 67, 72
1, 67328, Control_c, 0, 64, 78
1, 67328, Control_c, 0, 67, 73
1, 67343, Control_c, 0, 64, 92
1, 67343, Control_c, 0, 67, 73
1, 67357, Control_c, 0, 64, 126
1, 67357, Control_c, 0, 67, 74
1, 67372, Control_c, 0, 64, 127
1, 67372, Control_c, 0, 67, 74
1, 67387, Control_c, 0, 67, 75
1, 67402, Control_c, 0, 67, 76
1, 67417, Control_c, 0, 67, 77
1, 67431, Control_c, 0, 67, 78
1, 67454, Control_c, 0, 67, 79
1, 67457, Note_off_c, 0, 57, 33
1, 67469, Control_c, 0, 67, 81
1, 67475, Note_off_c, 0, 52, 58
1, 67484, Control_c, 0, 67, 83
1, 67499, Control_c, 0, 67, 84
1, 67513, Control_c, 0, 67, 85
1, 67528, Control_c, 0, 67, 86
1, 67543, Control_c, 0, 67, 86
1, 67572, Control_c, 0, 67, 87
1, 67585, Note_on_c, 0, 71, 67
1, 67602, Control_c, 0, 67, 88
1, 67631, Control_c, 0, 67, 88
1, 67633, Note_off_c, 0, 64, 53
1, 67646, Control_c, 0, 67, 89
1, 67661, Control_c, 0, 67, 89
1, 67676, Control_c, 0, 67, 90
1, 67691, Control_c, 0, 67, 91
1, 67705, Control_c, 0, 64, 100
1, 67705, Control_c, 0, 67, 91
1, 67720, Control_c, 0, 64, 79
1, 67720, Control_c, 0, 67, 92
1, 67722, Note_off_c, 0, 72, 50
1, 67723, Note_on_c, 0, 69, 64
1, 67735, Control_c, 0, 64, 61
1, 67735, Control_c, 0, 67, 93
1, 67738, Note_on_c, 0, 65, 48
1, 67750, Note_on_c, 0, 50, 41
1, 67750, Control_c, 0, 64, 0
1, 67750, Control_c, 0, 67, 93
1, 67766, Note_on_c, 0, 57, 35
1, 67778, Note_off_c, 0, 71, 60
1, 67779, Control_c, 0, 67, 94
1, 67814, Note_off_c, 0, 65, 51
1, 67839, Control_c, 0, 64, 63
1, 67839, Control_c, 0, 67, 94
1, 67854, Control_c, 0, 64, 73
1, 67869, Control_c, 0, 64, 88
1, 67872, Note_off_c, 0, 57, 54
1, 67882, Note_off_c, 0, 50, 58
1, 67884, Control_c, 0, 64, 127
1, 68072, Note_on_c, 0, 72, 66
1, 68092, Control_c, 0, 64, 120
1, 68096, Note_on_c, 0, 52, 45
1, 68098, Note_on_c, 0, 64, 44
1, 68107, Control_c, 0, 64, 91
1, 68116, Note_on_c, 0, 57, 36
1, 68121, Control_c, 0, 64, 73
1, 68136, Note_off_c, 0, 69, 58
1, 68136, Control_c, 0, 64, 43
1, 68136, Control_c, 0, 67, 95
1, 68151, Control_c, 0, 64, 0
1, 68152, Note_off_c, 0, 64, 0
1, 68152, Note_on_c, 0, 64, 4
1, 68166, Control_c, 0, 67, 95
1, 68195, Control_c, 0, 67, 96
1, 68247, Control_c, 0, 67, 96
1, 68262, Control_c, 0, 64, 44
1, 68277, Control_c, 0, 64, 65
1, 68292, Control_c, 0, 64, 75
1, 68307, Control_c, 0, 64, 88
1, 68322, Control_c, 0, 64, 112
1, 68336, Control_c, 0, 64, 127
1, 68423, Note_off_c, 0, 52, 56
1, 68445, Note_off_c, 0, 64, 43
1, 68450, Note_off_c, 0, 57, 40
1, 68558, Control_c, 0, 67, 97
1, 68602, Control_c, 0, 67, 97
1, 68662, Control_c, 0, 64, 97
1, 68669, Note_on_c, 0, 74, 69
1, 68677, Control_c, 0, 64, 77
1, 68677, Control_c, 0, 67, 98
1, 68689, Note_on_c, 0, 62, 42
1, 68692, Control_c, 0, 64, 57
1, 68692, Control_c, 0, 67, 98
1, 68699, Note_on_c, 0, 57, 33
1, 68701, Note_on_c, 0, 53, 34
1, 68707, Control_c, 0, 64, 0
1, 68707, Control_c, 0, 67, 100
1, 68712, Note_off_c, 0, 72, 60
1, 68722, Control_c, 0, 67, 102
1, 68737, Control_c, 0, 67, 104
1, 68751, Control_c, 0, 67, 105
1, 68766, Control_c, 0, 67, 105
1, 68781, Control_c, 0, 64, 60
1, 68781, Control_c, 0, 67, 106
1, 68796, Control_c, 0, 64, 70
1, 68803, Note_off_c, 0, 57, 52
1, 68811, Control_c, 0, 64, 81
1, 68811, Control_c, 0, 67, 106
1, 68826, Control_c, 0, 64, 105
1, 68826, Control_c, 0, 67, 107
1, 68841, Control_c, 0, 64, 127
1, 68841, Control_c, 0, 67, 107
1, 68870, Control_c, 0, 67, 108
1, 68878, Note_off_c, 0, 62, 36
1, 68885, Control_c, 0, 67, 108
1, 68900, Control_c, 0, 67, 109
1, 68930, Control_c, 0, 67, 109
1, 68943, Control_c, 0, 67, 110
1, 68965, Control_c, 0, 67, 111
1, 68980, Control_c, 0, 67, 111
1, 68995, Control_c, 0, 67, 113
1, 69009, Control_c, 0, 67, 114
1, 69022, Note_on_c, 0, 72, 66
1, 69024, Control_c, 0, 64, 93
1, 69024, Control_c, 0, 67, 115
1, 69039, Control_c, 0, 64, 73
1, 69039, Control_c, 0, 67, 118
1, 69044, Note_on_c, 0, 52, 38
1, 69046, Note_on_c, 0, 64, 41
1, 69046, Note_off_c, 0, 53, 45
1, 69052, Note_on_c, 0, 57, 34
1, 69054, Control_c, 0, 64, 43
1, 69054, Control_c, 0, 67, 119
1, 69069, Control_c, 0, 64, 0
1, 69069, Control_c, 0, 67, 122
1, 69076, Note_off_c, 0, 74, 55
1, 69083, Control_c, 0, 67, 123
1, 69098, Control_c, 0, 67, 125
1, 69113, Control_c, 0, 67, 127
1, 69127, Control_c, 0, 67, 127
1, 69142, Control_c, 0, 64, 53
1, 69157, Control_c, 0, 64, 67
1, 69172, Control_c, 0, 64, 77
1, 69187, Control_c, 0, 64, 91
1, 69201, Control_c, 0, 64, 127
1, 69294, Note_off_c, 0, 52, 46
1, 69450, Note_on_c, 0, 71, 61
1, 69480, Note_off_c, 0, 64, 37
1, 69543, Control_c, 0, 64, 102
1, 69558, Control_c, 0, 64, 81
1, 69573, Control_c, 0, 64, 63
1, 69588, Control_c, 0, 64, 0
1, 69589, Note_off_c, 0, 72, 38
1, 69594, Note_on_c, 0, 69, 63
1, 69604, Note_off_c, 0, 57, 40
1, 69614, Note_on_c, 0, 64, 48
1, 69616, Note_on_c, 0, 52, 33
1, 69625, Note_on_c, 0, 60, 36
1, 69643, Note_off_c, 0, 71, 58
1, 69677, Control_c, 0, 64, 62
1, 69699, Control_c, 0, 64, 72
1, 69700, Note_off_c, 0, 69, 63
1, 69714, Control_c, 0, 64, 84
1, 69729, Control_c, 0, 64, 104
1, 69742, Note_off_c, 0, 64, 62
1, 69744, Control_c, 0, 64, 127
1, 69790, Note_off_c, 0, 52, 44
1, 69792, Note_off_c, 0, 60, 45
1, 69976, Note_on_c, 0, 71, 63
1, 69981, Control_c, 0, 64, 101
1, 69985, Note_on_c, 0, 69, 56
1, 69996, Control_c, 0, 64, 81
1, 69997, Note_on_c, 0, 62, 43
1, 70011, Control_c, 0, 64, 63
1, 70012, Note_on_c, 0, 52, 41
1, 70025, Control_c, 0, 64, 0
1, 70040, Note_on_c, 0, 64, 10
1, 70129, Control_c, 0, 64, 57
1, 70143, Control_c, 0, 64, 68
1, 70158, Control_c, 0, 64, 80
1, 70173, Control_c, 0, 64, 93
1, 70188, Control_c, 0, 64, 116
1, 70203, Control_c, 0, 64, 127
1, 70242, Note_off_c, 0, 52, 58
1, 70324, Note_off_c, 0, 69, 58
1, 70359, Note_off_c, 0, 62, 31
1, 70363, Note_off_c, 0, 64, 42
1, 70626, Control_c, 0, 64, 114
1, 70641, Control_c, 0, 64, 91
1, 70645, Note_on_c, 0, 68, 43
1, 70656, Control_c, 0, 64, 74
1, 70671, Control_c, 0, 64, 58
1, 70671, Note_on_c, 0, 52, 34
1, 70671, Note_on_c, 0, 64, 32
1, 70674, Note_on_c, 0, 62, 29
1, 70686, Control_c, 0, 64, 0
1, 70760, Control_c, 0, 64, 53
1, 70774, Control_c, 0, 64, 67
1, 70789, Control_c, 0, 64, 77
1, 70790, Note_off_c, 0, 68, 56
1, 70804, Control_c, 0, 64, 92
1, 70812, Note_off_c, 0, 62, 50
1, 70817, Note_off_c, 0, 64, 55
1, 70819, Control_c, 0, 64, 127
1, 70943, Note_off_c, 0, 52, 40
1, 71110, Note_on_c, 0, 69, 48
1, 71122, Note_on_c, 0, 64, 39
1, 71124, Note_on_c, 0, 60, 35
1, 71131, Control_c, 0, 64, 95
1, 71139, Note_on_c, 0, 45, 37
1, 71145, Control_c, 0, 64, 79
1, 71158, Note_off_c, 0, 71, 55
1, 71160, Control_c, 0, 64, 64
1, 71175, Control_c, 0, 64, 0
1, 71345, Control_c, 0, 64, 57
1, 71360, Control_c, 0, 64, 66
1, 71375, Control_c, 0, 64, 74
1, 71390, Control_c, 0, 64, 85
1, 71404, Control_c, 0, 64, 98
1, 71419, Control_c, 0, 64, 120
1, 71434, Control_c, 0, 64, 127
1, 71501, Note_off_c, 0, 60, 37
1, 71523, Note_off_c, 0, 64, 37
1, 71535, Note_off_c, 0, 45, 39
1, 71775, Control_c, 0, 67, 126
1, 71789, Control_c, 0, 67, 122
1, 71804, Control_c, 0, 67, 118
1, 71816, Note_on_c, 0, 64, 38
1, 71819, Note_on_c, 0, 60, 37
1, 71819, Control_c, 0, 67, 114
1, 71821, Note_on_c, 0, 45, 40
1, 71834, Control_c, 0, 67, 110
1, 71849, Control_c, 0, 67, 106
1, 71865, Control_c, 0, 67, 101
1, 71880, Control_c, 0, 67, 96
1, 71894, Control_c, 0, 67, 91
1, 71909, Control_c, 0, 67, 84
1, 71912, Note_off_c, 0, 60, 59
1, 71917, Note_off_c, 0, 64, 62
1, 71924, Control_c, 0, 67, 75
1, 71927, Note_off_c, 0, 69, 62
1, 71946, Control_c, 0, 67, 67
1, 71961, Control_c, 0, 67, 57
1, 71976, Control_c, 0, 67, 48
1, 71991, Control_c, 0, 67, 38
1, 72006, Control_c, 0, 67, 29
1, 72020, Control_c, 0, 67, 18
1, 72035, Control_c, 0, 67, 0
1, 72113, Note_off_c, 0, 45, 44
1, 72292, Note_on_c, 0, 72, 70
1, 72301, Note_on_c, 0, 69, 63
1, 72306, Note_on_c, 0, 63, 54
1, 72316, Control_c, 0, 64, 121
1, 72318, Note_on_c, 0, 42, 56
1, 72331, Control_c, 0, 64, 93
1, 72346, Control_c, 0, 64, 73
1, 72361, Control_c, 0, 64, 53
1, 72376, Control_c, 0, 64, 0
1, 72480, Control_c, 0, 64, 47
1, 72494, Control_c, 0, 64, 65
1, 72509, Control_c, 0, 64, 74
1, 72524, Control_c, 0, 64, 84
1, 72538, Control_c, 0, 64, 105
1, 72553, Control_c, 0, 64, 127
1, 72766, Note_off_c, 0, 63, 32
1, 72847, Note_off_c, 0, 42, 59
1, 73020, Note_on_c, 0, 42, 60
1, 73025, Note_on_c, 0, 63, 42
1, 73166, Note_off_c, 0, 72, 54
1, 73188, Note_off_c, 0, 69, 37
1, 73228, Note_off_c, 0, 63, 51
1, 73332, Control_c, 0, 67, 8
1, 73347, Control_c, 0, 67, 9
1, 73361, Control_c, 0, 64, 104
1, 73361, Control_c, 0, 67, 11
1, 73374, Note_on_c, 0, 70, 62
1, 73376, Control_c, 0, 64, 85
1, 73376, Control_c, 0, 67, 13
1, 73381, Note_on_c, 0, 67, 58
1, 73385, Note_on_c, 0, 62, 50
1, 73391, Control_c, 0, 64, 66
1, 73391, Control_c, 0, 67, 16
1, 73397, Note_on_c, 0, 43, 53
1, 73406, Control_c, 0, 64, 0
1, 73406, Control_c, 0, 67, 18
1, 73421, Control_c, 0, 67, 21
1, 73428, Note_off_c, 0, 42, 61
1, 73443, Control_c, 0, 67, 23
1, 73458, Control_c, 0, 67, 27
1, 73473, Control_c, 0, 67, 30
1, 73488, Control_c, 0, 67, 33
1, 73503, Control_c, 0, 67, 37
1, 73518, Control_c, 0, 67, 40
1, 73533, Control_c, 0, 67, 44
1, 73547, Control_c, 0, 64, 48
1, 73547, Control_c, 0, 67, 47
1, 73562, Control_c, 0, 64, 67
1, 73562, Control_c, 0, 67, 50
1, 73571, Note_off_c, 0, 67, 59
1, 73577, Control_c, 0, 64, 82
1, 73577, Control_c, 0, 67, 53
1, 73591, Note_off_c, 0, 70, 61
1, 73592, Control_c, 0, 64, 106
1, 73592, Control_c, 0, 67, 55
1, 73607, Control_c, 0, 64, 127
1, 73607, Control_c, 0, 67, 58
1, 73622, Control_c, 0, 67, 61
1, 73628, Note_off_c, 0, 62, 60
1, 73637, Control_c, 0, 67, 64
1, 73652, Control_c, 0, 67, 66
1, 73666, Control_c, 0, 67, 67
1, 73681, Control_c, 0, 67, 69
1, 73696, Control_c, 0, 67, 70
1, 73711, Control_c, 0, 67, 71
1, 73725, Control_c, 0, 67, 73
1, 73740, Control_c, 0, 67, 74
1, 73755, Control_c, 0, 67, 76
1, 73770, Control_c, 0, 67, 76
1, 73785, Control_c, 0, 67, 77
1, 73814, Control_c, 0, 67, 77
1, 73848, Note_on_c, 0, 69, 62
1, 73849, Note_on_c, 0, 66, 61
1, 73851, Note_on_c, 0, 60, 56
1, 73857, Note_on_c, 0, 45, 59
1, 73859, Control_c, 0, 64, 101
1, 73873, Control_c, 0, 64, 80
1, 73888, Control_c, 0, 64, 63
1, 73888, Control_c, 0, 67, 78
1, 73896, Note_off_c, 0, 43, 60
1, 73903, Control_c, 0, 64, 0
1, 73956, Note_off_c, 0, 60, 53
1, 73962, Control_c, 0, 67, 78
1, 73991, Note_off_c, 0, 69, 61
1, 73992, Control_c, 0, 67, 79
1, 73992, Note_on_c, 0, 67, 67
1, 73998, Note_on_c, 0, 62, 58
1, 74000, Note_off_c, 0, 45, 61
1, 74006, Note_off_c, 0, 66, 60
1, 74006, Note_on_c, 0, 46, 59
1, 74021, Control_c, 0, 67, 80
1, 74036, Control_c, 0, 67, 81
1, 74051, Control_c, 0, 67, 81
1, 74066, Control_c, 0, 67, 82
1, 74111, Control_c, 0, 67, 82
1, 74125, Control_c, 0, 67, 83
1, 74140, Control_c, 0, 67, 83
1, 74155, Control_c, 0, 64, 27
1, 74170, Control_c, 0, 64, 65
1, 74170, Control_c, 0, 67, 84
1, 74171, Note_off_c, 0, 67, 60
1, 74191, Control_c, 0, 64, 79
1, 74206, Control_c, 0, 64, 102
1, 74219, Note_off_c, 0, 62, 57
1, 74221, Control_c, 0, 64, 127
1, 74347, Note_on_c, 0, 69, 64
1, 74367, Note_on_c, 0, 58, 50
1, 74370, Control_c, 0, 64, 98
1, 74370, Control_c, 0, 67, 84
1, 74372, Note_on_c, 0, 64, 51
1, 74385, Control_c, 0, 64, 82
1, 74385, Control_c, 0, 67, 85
1, 74388, Note_on_c, 0, 48, 52
1, 74393, Note_off_c, 0, 46, 56
1, 74400, Control_c, 0, 64, 68
1, 74400, Control_c, 0, 67, 86
1, 74415, Control_c, 0, 64, 0
1, 74415, Control_c, 0, 67, 87
1, 74430, Control_c, 0, 67, 88
1, 74445, Control_c, 0, 67, 90
1, 74460, Control_c, 0, 67, 92
1, 74474, Control_c, 0, 67, 93
1, 74489, Control_c, 0, 67, 95
1, 74504, Control_c, 0, 67, 97
1, 74519, Control_c, 0, 67, 99
1, 74534, Control_c, 0, 67, 101
1, 74548, Control_c, 0, 67, 102
1, 74563, Control_c, 0, 64, 59
1, 74563, Control_c, 0, 67, 104
1, 74578, Control_c, 0, 64, 71
1, 74578, Control_c, 0, 67, 105
1, 74593, Control_c, 0, 64, 84
1, 74593, Control_c, 0, 67, 108
1, 74608, Control_c, 0, 64, 108
1, 74608, Control_c, 0, 67, 110
1, 74622, Control_c, 0, 64, 127
1, 74622, Control_c, 0, 67, 113
1, 74637, Control_c, 0, 67, 116
1, 74641, Note_off_c, 0, 64, 60
1, 74652, Control_c, 0, 67, 119
1, 74667, Control_c, 0, 67, 122
1, 74675, Note_off_c, 0, 58, 43
1, 74681, Control_c, 0, 67, 125
1, 74696, Control_c, 0, 67, 127
1, 74742, Note_off_c, 0, 48, 54
1, 74984, Note_on_c, 0, 64, 37
1, 74996, Note_on_c, 0, 58, 38
1, 74998, Note_on_c, 0, 36, 45
1, 74999, Note_on_c, 0, 48, 42
1, 75089, Note_off_c, 0, 36, 57
1, 75092, Note_off_c, 0, 48, 57
1, 75115, Note_off_c, 0, 69, 37
1, 75120, Note_off_c, 0, 64, 35
1, 75139, Note_off_c, 0, 58, 37
1, 75386, Control_c, 0, 64, 99
1, 75396, Note_on_c, 0, 65, 50
1, 75401, Control_c, 0, 64, 83
1, 75407, Note_on_c, 0, 41, 42
1, 75411, Note_on_c, 0, 57, 41
1, 75416, Control_c, 0, 64, 67
1, 75426, Note_on_c, 0, 48, 27
1, 75431, Control_c, 0, 64, 0
1, 75608, Control_c, 0, 64, 44
1, 75623, Control_c, 0, 64, 66
1, 75637, Control_c, 0, 64, 77
1, 75652, Control_c, 0, 64, 92
1, 75667, Control_c, 0, 64, 127
1, 75727, Note_off_c, 0, 41, 40
1, 75730, Note_off_c, 0, 57, 37
1, 76093, Note_on_c, 0, 57, 33
1, 76094, Note_on_c, 0, 41, 33
1, 76137, Note_off_c, 0, 57, 58
1, 76164, Note_off_c, 0, 65, 60
1, 76189, Note_off_c, 0, 41, 46
1, 76202, Note_off_c, 0, 48, 41
1, 76604, Note_on_c, 0, 69, 46
1, 76609, Note_on_c, 0, 72, 48
1, 76616, Note_on_c, 0, 63, 42
1, 76617, Control_c, 0, 64, 99
1, 76627, Note_on_c, 0, 42, 42
1, 76632, Control_c, 0, 64, 78
1, 76647, Control_c, 0, 64, 62
1, 76662, Control_c, 0, 64, 0
1, 76811, Control_c, 0, 64, 63
1, 76825, Control_c, 0, 64, 71
1, 76840, Control_c, 0, 64, 80
1, 76855, Control_c, 0, 64, 94
1, 76870, Control_c, 0, 64, 117
1, 76884, Control_c, 0, 64, 127
1, 76981, Note_off_c, 0, 42, 42
1, 77006, Note_off_c, 0, 63, 37
1, 77306, Note_on_c, 0, 63, 35
1, 77309, Note_on_c, 0, 42, 42
1, 77371, Note_off_c, 0, 42, 58
1, 77419, Note_off_c, 0, 69, 35
1, 77419, Note_off_c, 0, 72, 36
1, 77472, Note_off_c, 0, 63, 31
1, 77617, Note_on_c, 0, 43, 40
1, 77647, Control_c, 0, 64, 121
1, 77662, Control_c, 0, 64, 95
1, 77677, Control_c, 0, 64, 82
1, 77682, Note_on_c, 0, 62, 38
1, 77691, Control_c, 0, 64, 71
1, 77706, Control_c, 0, 64, 56
1, 77721, Control_c, 0, 64, 0
1, 77773, Note_on_c, 0, 67, 40
1, 77833, Note_on_c, 0, 72, 49
1, 77917, Note_off_c, 0, 72, 54
1, 77934, Note_on_c, 0, 70, 55
1, 78040, Note_off_c, 0, 67, 59
1, 78040, Control_c, 0, 64, 64
1, 78055, Control_c, 0, 64, 74
1, 78069, Control_c, 0, 64, 85
1, 78073, Note_off_c, 0, 70, 62
1, 78078, Note_off_c, 0, 62, 49
1, 78084, Control_c, 0, 64, 106
1, 78099, Control_c, 0, 64, 127
1, 78153, Note_off_c, 0, 43, 41
1, 78367, Control_c, 0, 64, 120
1, 78376, Note_on_c, 0, 66, 51
1, 78379, Note_on_c, 0, 69, 54
1, 78381, Control_c, 0, 64, 93
1, 78386, Note_on_c, 0, 45, 39
1, 78387, Note_on_c, 0, 60, 40
1, 78396, Control_c, 0, 64, 76
1, 78411, Control_c, 0, 64, 59
1, 78426, Control_c, 0, 64, 0
1, 78481, Note_off_c, 0, 60, 39
1, 78517, Note_off_c, 0, 69, 62
1, 78520, Note_off_c, 0, 45, 47
1, 78524, Note_on_c, 0, 67, 61
1, 78532, Note_off_c, 0, 66, 60
1, 78540, Note_on_c, 0, 46, 37
1, 78541, Note_on_c, 0, 62, 43
1, 78648, Control_c, 0, 64, 50
1, 78663, Control_c, 0, 64, 64
1, 78685, Control_c, 0, 64, 69
1, 78700, Control_c, 0, 64, 73
1, 78714, Control_c, 0, 64, 75
1, 78744, Control_c, 0, 64, 74
1, 78759, Control_c, 0, 64, 73
1, 78774, Control_c, 0, 64, 71
1, 78788, Control_c, 0, 64, 70
1, 78803, Control_c, 0, 64, 67
1, 78818, Control_c, 0, 64, 64
1, 78833, Control_c, 0, 64, 56
1, 78848, Control_c, 0, 64, 0
1, 78862, Note_off_c, 0, 67, 60
1, 78880, Note_on_c, 0, 69, 59
1, 78889, Note_off_c, 0, 62, 52
1, 78895, Note_on_c, 0, 58, 40
1, 78907, Note_on_c, 0, 64, 49
1, 78913, Note_on_c, 0, 48, 40
1, 78931, Note_off_c, 0, 46, 42
1, 79056, Control_c, 0, 64, 55
1, 79071, Control_c, 0, 64, 65
1, 79086, Control_c, 0, 64, 71
1, 79101, Control_c, 0, 64, 79
1, 79116, Control_c, 0, 64, 86
1, 79130, Control_c, 0, 64, 95
1, 79145, Control_c, 0, 64, 106
1, 79160, Control_c, 0, 64, 127
1, 79190, Note_off_c, 0, 64, 59
1, 79266, Note_off_c, 0, 58, 36
1, 79339, Note_off_c, 0, 48, 40
1, 79527, Note_on_c, 0, 36, 59
1, 79552, Note_on_c, 0, 48, 44
1, 79564, Note_on_c, 0, 58, 16
1, 79600, Poly_aftertouch_c, 0, 64, 127
1, 79643, Poly_aftertouch_c, 0, 64, 0
1, 79648, Note_off_c, 0, 48, 57
1, 79663, Note_off_c, 0, 36, 60
1, 79676, Note_off_c, 0, 58, 32
1, 79733, Note_off_c, 0, 69, 34
1, 79941, Note_on_c, 0, 65, 52
1, 79944, Note_on_c, 0, 41, 57
1, 79953, Control_c, 0, 64, 94
1, 79963, Note_on_c, 0, 48, 52
1, 79963, Note_on_c, 0, 57, 35
1, 79968, Control_c, 0, 64, 76
1, 79983, Control_c, 0, 64, 59
1, 79998, Control_c, 0, 64, 0
1, 80415, Note_on_c, 0, 40, 51
1, 80466, Note_off_c, 0, 41, 55
1, 80468, Note_off_c, 0, 57, 43
1, 80570, Note_on_c, 0, 38, 55
1, 80578, Note_on_c, 0, 57, 43
1, 80579, Note_off_c, 0, 40, 60
1, 80628, Control_c, 0, 64, 23
1, 80642, Control_c, 0, 64, 63
1, 80652, Note_off_c, 0, 57, 54
1, 80658, Control_c, 0, 64, 72
1, 80673, Control_c, 0, 64, 82
1, 80688, Control_c, 0, 64, 99
1, 80702, Control_c, 0, 64, 127
1, 80741, Note_off_c, 0, 48, 41
1, 80758, Note_off_c, 0, 38, 56
1, 80788, Note_off_c, 0, 65, 59
1, 80910, Control_c, 0, 64, 108
1, 80932, Control_c, 0, 64, 87
1, 80947, Control_c, 0, 64, 70
1, 80951, Note_on_c, 0, 69, 56
1, 80962, Control_c, 0, 64, 24
1, 80969, Note_on_c, 0, 58, 38
1, 80969, Note_on_c, 0, 64, 46
1, 80973, Note_on_c, 0, 36, 38
1, 80975, Note_on_c, 0, 48, 40
1, 80977, Control_c, 0, 64, 0
1, 81051, Control_c, 0, 64, 36
1, 81065, Control_c, 0, 64, 64
1, 81080, Control_c, 0, 64, 73
1, 81080, Control_c, 0, 67, 125
1, 81095, Control_c, 0, 64, 86
1, 81095, Control_c, 0, 67, 114
1, 81110, Control_c, 0, 64, 105
1, 81110, Control_c, 0, 67, 97
1, 81125, Control_c, 0, 64, 127
1, 81125, Control_c, 0, 67, 80
1, 81140, Control_c, 0, 67, 65
1, 81155, Control_c, 0, 67, 51
1, 81170, Control_c, 0, 67, 40
1, 81184, Control_c, 0, 67, 30
1, 81199, Control_c, 0, 67, 20
1, 81214, Control_c, 0, 67, 8
1, 81223, Note_off_c, 0, 36, 39
1, 81227, Note_off_c, 0, 64, 58
1, 81229, Control_c, 0, 67, 0
1, 81253, Note_off_c, 0, 58, 42
1, 81551, Note_on_c, 0, 36, 47
1, 81554, Note_on_c, 0, 58, 30
1, 81572, Note_on_c, 0, 64, 24
1, 81620, Note_off_c, 0, 64, 48
1, 81622, Note_off_c, 0, 69, 51
1, 81635, Note_off_c, 0, 36, 53
1, 81648, Note_off_c, 0, 48, 41
1, 81658, Note_off_c, 0, 58, 37
1, 81799, Control_c, 0, 67, 8
1, 81857, Control_c, 0, 67, 8
1, 81902, Control_c, 0, 64, 104
1, 81902, Control_c, 0, 67, 9
1, 81917, Control_c, 0, 64, 84
1, 81918, Note_on_c, 0, 65, 44
1, 81923, Note_on_c, 0, 41, 48
1, 81927, Note_on_c, 0, 48, 38
1, 81931, Control_c, 0, 64, 67
1, 81931, Control_c, 0, 67, 9
1, 81935, Note_on_c, 0, 57, 25
1, 81946, Control_c, 0, 64, 0
1, 81961, Control_c, 0, 67, 10
1, 81976, Control_c, 0, 67, 11
1, 81991, Control_c, 0, 67, 11
1, 82005, Control_c, 0, 67, 12
1, 82079, Control_c, 0, 64, 54
1, 82094, Control_c, 0, 64, 68
1, 82094, Control_c, 0, 67, 11
1, 82109, Control_c, 0, 64, 78
1, 82123, Control_c, 0, 64, 90
1, 82138, Control_c, 0, 64, 114
1, 82153, Control_c, 0, 64, 127
1, 82183, Control_c, 0, 67, 11
1, 82377, Control_c, 0, 67, 11
1, 82377, Note_off_c, 0, 57, 37
1, 82385, Note_on_c, 0, 40, 43
1, 82392, Control_c, 0, 67, 12
1, 82395, Note_off_c, 0, 41, 39
1, 82422, Control_c, 0, 67, 12
1, 82473, Control_c, 0, 64, 97
1, 82473, Control_c, 0, 67, 13
1, 82487, Control_c, 0, 64, 78
1, 82502, Control_c, 0, 64, 63
1, 82502, Control_c, 0, 67, 13
1, 82517, Control_c, 0, 64, 0
1, 82517, Control_c, 0, 67, 14
1, 82532, Control_c, 0, 67, 17
1, 82535, Note_on_c, 0, 57, 33
1, 82544, Note_on_c, 0, 38, 43
1, 82546, Note_off_c, 0, 40, 38
1, 82547, Control_c, 0, 67, 19
1, 82562, Control_c, 0, 67, 21
1, 82577, Control_c, 0, 67, 22
1, 82591, Control_c, 0, 64, 59
1, 82591, Control_c, 0, 67, 23
1, 82606, Control_c, 0, 64, 69
1, 82606, Control_c, 0, 67, 23
1, 82613, Note_off_c, 0, 57, 56
1, 82621, Control_c, 0, 64, 81
1, 82621, Control_c, 0, 67, 24
1, 82636, Control_c, 0, 64, 95
1, 82636, Control_c, 0, 67, 25
1, 82651, Control_c, 0, 64, 127
1, 82669, Note_off_c, 0, 48, 41
1, 82680, Control_c, 0, 67, 25
1, 82700, Note_off_c, 0, 38, 45
1, 82754, Control_c, 0, 67, 26
1, 82769, Control_c, 0, 67, 26
1, 82779, Note_off_c, 0, 65, 35
1, 82784, Control_c, 0, 67, 27
1, 82799, Control_c, 0, 67, 28
1, 82814, Control_c, 0, 67, 30
1, 82828, Control_c, 0, 67, 32
1, 82843, Control_c, 0, 67, 34
1, 82858, Control_c, 0, 67, 36
1, 82872, Control_c, 0, 67, 37
1, 82887, Control_c, 0, 67, 38
1, 82902, Control_c, 0, 67, 40
1, 82917, Control_c, 0, 67, 42
1, 82931, Note_on_c, 0, 69, 48
1, 82932, Control_c, 0, 64, 106
1, 82932, Control_c, 0, 67, 45
1, 82946, Control_c, 0, 64, 87
1, 82946, Control_c, 0, 67, 47
1, 82952, Note_on_c, 0, 58, 37
1, 82952, Note_on_c, 0, 64, 43
1, 82955, Note_on_c, 0, 36, 34
1, 82959, Note_on_c, 0, 48, 30
1, 82961, Control_c, 0, 64, 72
1, 82961, Control_c, 0, 67, 49
1, 82976, Control_c, 0, 64, 49
1, 82976, Control_c, 0, 67, 51
1, 82991, Control_c, 0, 64, 0
1, 82991, Control_c, 0, 67, 53
1, 83006, Control_c, 0, 67, 56
1, 83021, Control_c, 0, 67, 58
1, 83036, Control_c, 0, 67, 59
1, 83051, Control_c, 0, 64, 29
1, 83051, Control_c, 0, 67, 60
1, 83066, Control_c, 0, 64, 63
1, 83066, Control_c, 0, 67, 61
1, 83081, Control_c, 0, 64, 72
1, 83081, Control_c, 0, 67, 61
1, 83095, Control_c, 0, 64, 83
1, 83095, Control_c, 0, 67, 62
1, 83110, Control_c, 0, 64, 100
1, 83125, Control_c, 0, 64, 127
1, 83125, Control_c, 0, 67, 63
1, 83178, Control_c, 0, 67, 63
1, 83257, Note_off_c, 0, 36, 39
1, 83262, Note_off_c, 0, 58, 37
1, 83263, Note_off_c, 0, 64, 42
1, 83297, Control_c, 0, 67, 64
1, 83341, Control_c, 0, 67, 64
1, 83371, Control_c, 0, 67, 65
1, 83385, Control_c, 0, 67, 66
1, 83400, Control_c, 0, 67, 67
1, 83415, Control_c, 0, 67, 68
1, 83430, Control_c, 0, 67, 70
1, 83445, Control_c, 0, 67, 71
1, 83459, Control_c, 0, 67, 72
1, 83474, Control_c, 0, 67, 73
1, 83489, Control_c, 0, 67, 73
1, 83504, Control_c, 0, 67, 74
1, 83519, Control_c, 0, 67, 75
1, 83533, Control_c, 0, 67, 76
1, 83548, Control_c, 0, 67, 77
1, 83563, Control_c, 0, 67, 79
1, 83578, Control_c, 0, 67, 80
1, 83593, Control_c, 0, 67, 81
1, 83608, Control_c, 0, 67, 83
1, 83622, Control_c, 0, 67, 86
1, 83624, Note_on_c, 0, 58, 25
1, 83628, Note_on_c, 0, 64, 35
1, 83632, Note_on_c, 0, 36, 37
1, 83637, Control_c, 0, 67, 89
1, 83652, Control_c, 0, 67, 92
1, 83667, Control_c, 0, 67, 95
1, 83682, Control_c, 0, 67, 98
1, 83696, Control_c, 0, 67, 104
1, 83706, Note_off_c, 0, 36, 47
1, 83711, Control_c, 0, 67, 108
1, 83726, Control_c, 0, 67, 113
1, 83727, Note_off_c, 0, 48, 41
1, 83741, Control_c, 0, 67, 117
1, 83744, Note_off_c, 0, 64, 37
1, 83746, Note_off_c, 0, 69, 36
1, 83756, Control_c, 0, 67, 122
1, 83762, Note_off_c, 0, 58, 43
1, 83770, Control_c, 0, 67, 126
1, 83785, Control_c, 0, 67, 127
1, 83986, Control_c, 0, 64, 102
1, 84000, Note_on_c, 0, 65, 41
1, 84001, Control_c, 0, 64, 84
1, 84007, Note_on_c, 0, 41, 37
1, 84012, Note_on_c, 0, 48, 33
1, 84012, Note_on_c, 0, 57, 34
1, 84015, Control_c, 0, 64, 68
1, 84030, Control_c, 0, 64, 0
1, 84119, Control_c, 0, 64, 23
1, 84133, Control_c, 0, 64, 64
1, 84148, Control_c, 0, 64, 73
1, 84159, Note_off_c, 0, 57, 55
1, 84163, Control_c, 0, 64, 83
1, 84178, Control_c, 0, 64, 100
1, 84193, Control_c, 0, 64, 127
1, 84214, Note_off_c, 0, 41, 41
1, 84218, Note_off_c, 0, 48, 42
1, 84317, Note_off_c, 0, 65, 35
1, 84563, Control_c, 0, 64, 107
1, 84578, Control_c, 0, 64, 84
1, 84592, Control_c, 0, 64, 66
1, 84607, Control_c, 0, 64, 0
1, 84610, Note_on_c, 0, 69, 46
1, 84620, Note_on_c, 0, 64, 45
1, 84635, Note_on_c, 0, 36, 35
1, 84635, Note_on_c, 0, 58, 28
1, 84636, Note_on_c, 0, 48, 34
1, 84653, Control_c, 0, 64, 46
1, 84675, Control_c, 0, 64, 65
1, 84690, Control_c, 0, 64, 74
1, 84705, Control_c, 0, 64, 88
1, 84720, Control_c, 0, 64, 127
1, 84732, Note_off_c, 0, 48, 50
1, 84759, Note_off_c, 0, 36, 35
1, 84782, Note_off_c, 0, 64, 36
1, 84815, Note_off_c, 0, 58, 41
1, 84833, Note_off_c, 0, 69, 32
1, 84986, Control_c, 0, 64, 92
1, 84994, Note_on_c, 0, 65, 39
1, 84997, Note_on_c, 0, 57, 34
1, 85001, Control_c, 0, 64, 75
1, 85012, Note_on_c, 0, 41, 26
1, 85013, Note_on_c, 0, 48, 23
1, 85016, Control_c, 0, 64, 59
1, 85030, Control_c, 0, 64, 0
1, 85089, Control_c, 0, 64, 47
1, 85104, Control_c, 0, 64, 63
1, 85119, Control_c, 0, 64, 69
1, 85134, Control_c, 0, 64, 75
1, 85149, Control_c, 0, 64, 83
1, 85164, Control_c, 0, 64, 93
1, 85179, Control_c, 0, 64, 107
1, 85194, Control_c, 0, 64, 127
1, 85212, Note_off_c, 0, 57, 36
1, 85281, Note_off_c, 0, 48, 41
1, 85291, Note_off_c, 0, 41, 40
1, 85318, Note_off_c, 0, 65, 47
1, 85617, Control_c, 0, 64, 97
1, 85632, Control_c, 0, 64, 79
1, 85646, Control_c, 0, 64, 66
1, 85653, Note_on_c, 0, 69, 38
1, 85659, Note_on_c, 0, 64, 42
1, 85661, Control_c, 0, 64, 50
1, 85664, Note_on_c, 0, 58, 30
1, 85668, Note_on_c, 0, 36, 35
1, 85671, Note_on_c, 0, 48, 25
1, 85676, Control_c, 0, 64, 52
1, 85691, Control_c, 0, 64, 60
1, 85705, Control_c, 0, 64, 64
1, 85720, Control_c, 0, 64, 70
1, 85735, Control_c, 0, 64, 79
1, 85750, Control_c, 0, 64, 99
1, 85765, Control_c, 0, 64, 127
1, 85794, Note_off_c, 0, 36, 33
1, 85803, Note_off_c, 0, 48, 34
1, 85822, Note_off_c, 0, 64, 35
1, 85849, Note_off_c, 0, 58, 42
1, 85856, Note_off_c, 0, 69, 35
1, 86046, Control_c, 0, 64, 102
1, 86049, Note_on_c, 0, 57, 29
1, 86049, Note_on_c, 0, 65, 34
1, 86061, Control_c, 0, 64, 84
1, 86069, Note_on_c, 0, 41, 31
1, 86070, Note_on_c, 0, 48, 26
1, 86076, Control_c, 0, 64, 69
1, 86091, Control_c, 0, 64, 44
1, 86105, Control_c, 0, 64, 0
1, 86135, Control_c, 0, 64, 39
1, 86150, Control_c, 0, 64, 59
1, 86166, Control_c, 0, 64, 67
1, 86187, Control_c, 0, 64, 74
1, 86202, Control_c, 0, 64, 84
1, 86217, Control_c, 0, 64, 97
1, 86231, Control_c, 0, 64, 117
1, 86248, Control_c, 0, 64, 127
1, 86365, Note_off_c, 0, 57, 36
1, 86392, Note_off_c, 0, 48, 39
1, 86402, Note_off_c, 0, 41, 39
1, 86470, Note_off_c, 0, 65, 37
1, 86781, Control_c, 0, 64, 97
1, 86795, Control_c, 0, 64, 78
1, 86810, Note_on_c, 0, 64, 40
1, 86810, Control_c, 0, 64, 65
1, 86815, Note_on_c, 0, 69, 36
1, 86821, Note_on_c, 0, 58, 32
1, 86825, Control_c, 0, 64, 35
1, 86827, Note_on_c, 0, 36, 34
1, 86828, Note_on_c, 0, 48, 25
1, 86839, Control_c, 0, 64, 29
1, 86854, Control_c, 0, 64, 51
1, 86869, Control_c, 0, 64, 62
1, 86884, Control_c, 0, 64, 68
1, 86899, Control_c, 0, 64, 75
1, 86914, Control_c, 0, 64, 86
1, 86936, Control_c, 0, 64, 103
1, 86947, Note_off_c, 0, 36, 35
1, 86951, Control_c, 0, 64, 127
1, 86997, Note_off_c, 0, 48, 40
1, 87029, Note_off_c, 0, 64, 39
1, 87033, Note_off_c, 0, 69, 35
1, 87057, Note_off_c, 0, 58, 42
1, 87270, Note_on_c, 0, 65, 39
1, 87277, Control_c, 0, 64, 118
1, 87291, Note_on_c, 0, 57, 32
1, 87292, Control_c, 0, 64, 93
1, 87300, Note_on_c, 0, 48, 30
1, 87301, Note_on_c, 0, 41, 29
1, 87307, Control_c, 0, 64, 78
1, 87322, Control_c, 0, 64, 65
1, 87337, Control_c, 0, 64, 0
1, 87441, Control_c, 0, 64, 46
1, 87456, Control_c, 0, 64, 64
1, 87470, Control_c, 0, 64, 70
1, 87485, Control_c, 0, 64, 76
1, 87500, Control_c, 0, 64, 84
1, 87515, Control_c, 0, 64, 96
1, 87530, Control_c, 0, 64, 113
1, 87544, Control_c, 0, 64, 127
1, 87661, Note_off_c, 0, 57, 43
1, 87711, Note_off_c, 0, 48, 36
1, 87777, Note_off_c, 0, 41, 40
1, 87948, Note_off_c, 0, 65, 35
1, 88337, Control_c, 0, 64, 113
1, 88352, Control_c, 0, 64, 98
1, 88363, Note_on_c, 0, 69, 33
1, 88366, Control_c, 0, 64, 86
1, 88371, Note_on_c, 0, 64, 39
1, 88381, Control_c, 0, 64, 75
1, 88385, Note_on_c, 0, 58, 26
1, 88386, Note_on_c, 0, 48, 28
1, 88389, Note_on_c, 0, 36, 31
1, 88396, Control_c, 0, 64, 64
1, 88418, Control_c, 0, 64, 53
1, 88448, Control_c, 0, 64, 58
1, 88463, Control_c, 0, 64, 62
1, 88478, Control_c, 0, 64, 65
1, 88492, Control_c, 0, 64, 69
1, 88507, Control_c, 0, 64, 76
1, 88522, Control_c, 0, 64, 85
1, 88537, Control_c, 0, 64, 98
1, 88552, Control_c, 0, 64, 116
1, 88566, Control_c, 0, 64, 127
1, 88631, Note_off_c, 0, 36, 39
1, 88658, Note_off_c, 0, 48, 40
1, 88810, Note_off_c, 0, 69, 31
1, 88816, Note_off_c, 0, 58, 42
1, 88833, Note_off_c, 0, 64, 39
1, 89420, Control_c, 0, 64, 108
1, 89435, Control_c, 0, 64, 90
1, 89439, Note_on_c, 0, 29, 42
1, 89451, Control_c, 0, 64, 73
1, 89465, Control_c, 0, 64, 60
1, 89480, Control_c, 0, 64, 0
1, 89569, Control_c, 0, 64, 60
1, 89584, Control_c, 0, 64, 69
1, 89599, Control_c, 0, 64, 78
1, 89613, Control_c, 0, 64, 90
1, 89628, Control_c, 0, 64, 111
1, 89643, Control_c, 0, 64, 127
1, 89662, Note_off_c, 0, 29, 42
1, 90124, Note_on_c, 0, 41, 32
1, 90491, Note_on_c, 0, 48, 40
1, 90760, Note_on_c, 0, 53, 38
1, 90994, Note_on_c, 0, 57, 35
1, 91256, Note_on_c, 0, 60, 34
1, 91278, Note_off_c, 0, 57, 32
1, 91569, Note_on_c, 0, 65, 37
1, 91582, Note_off_c, 0, 60, 37
1, 91972, Note_on_c, 0, 69, 37
1, 92015, Note_off_c, 0, 65, 38
1, 92122, Note_off_c, 0, 69, 36
1, 92392, Note_on_c, 0, 69, 39
1, 92485, Note_off_c, 0, 69, 56
1, 92773, Note_on_c, 0, 69, 26
1, 92855, Note_off_c, 0, 69, 38
1, 93216, Note_on_c, 0, 69, 26
1, 93323, Note_off_c, 0, 69, 36
1, 93746, Note_on_c, 0, 69, 36
1, 93853, Note_off_c, 0, 69, 36
1, 94533, Note_on_c, 0, 69, 30
1, 94718, Note_off_c, 0, 69, 33
1, 95828, Note_off_c, 0, 53, 45
1, 95857, Note_off_c, 0, 48, 36
1, 95967, Note_off_c, 0, 41, 40
1, 96174, Control_c, 0, 67, 112
1, 96188, Control_c, 0, 67, 90
1, 96203, Control_c, 0, 67, 62
1, 96218, Control_c, 0, 67, 33
1, 96232, Control_c, 0, 67, 0
1, 96247, Control_c, 0, 64, 108
1, 96262, Control_c, 0, 64, 84
1, 96277, Control_c, 0, 64, 64
1, 96292, Control_c, 0, 64, 0
1, 96366, Note_on_c, 0, 93, 93
1, 96366, Control_c, 0, 64, 64
1, 96369, Note_on_c, 0, 89, 82
1, 96372, Note_on_c, 0, 33, 81
1, 96373, Note_on_c, 0, 45, 91
1, 96381, Control_c, 0, 64, 86
1, 96396, Control_c, 0, 64, 127
1, 96425, Note_off_c, 0, 33, 61
1, 96435, Note_off_c, 0, 45, 64
1, 96526, Note_on_c, 0, 88, 88
1, 96563, Note_off_c, 0, 93, 60
1, 96605, Note_off_c, 0, 89, 61
1, 96624, Note_on_c, 0, 40, 89
1, 96624, Note_on_c, 0, 52, 86
1, 96624, Note_on_c, 0, 84, 85
1, 96657, Note_off_c, 0, 88, 61
1, 96673, Note_off_c, 0, 52, 65
1, 96675, Note_off_c, 0, 40, 64
1, 96709, Note_on_c, 0, 81, 87
1, 96712, Note_off_c, 0, 84, 66
1, 96745, Note_off_c, 0, 81, 66
1, 96789, Note_on_c, 0, 81, 75
1, 96795, Note_on_c, 0, 47, 96
1, 96795, Note_on_c, 0, 59, 97
1, 96795, Note_on_c, 0, 77, 72
1, 96832, Note_off_c, 0, 59, 68
1, 96835, Note_off_c, 0, 47, 67
1, 96864, Note_on_c, 0, 76, 87
1, 96874, Note_off_c, 0, 81, 52
1, 96908, Control_c, 0, 64, 105
1, 96914, Note_off_c, 0, 77, 63
1, 96923, Control_c, 0, 64, 71
1, 96936, Note_on_c, 0, 72, 88
1, 96937, Control_c, 0, 64, 0
1, 96944, Note_on_c, 0, 48, 95
1, 96947, Note_on_c, 0, 60, 96
1, 96956, Note_off_c, 0, 76, 62
1, 96998, Note_off_c, 0, 72, 66
1, 97009, Note_on_c, 0, 69, 82
1, 97026, Control_c, 0, 64, 59
1, 97041, Note_off_c, 0, 69, 64
1, 97041, Control_c, 0, 64, 70
1, 97055, Control_c, 0, 64, 90
1, 97070, Control_c, 0, 64, 127
1, 97082, Note_off_c, 0, 60, 58
1, 97085, Note_on_c, 0, 69, 48
1, 97102, Note_on_c, 0, 65, 51
1, 97113, Note_on_c, 0, 67, 50
1, 97123, Note_off_c, 0, 48, 64
1, 97143, Note_off_c, 0, 69, 61
1, 97159, Note_on_c, 0, 64, 68
1, 97168, Note_off_c, 0, 67, 55
1, 97201, Note_off_c, 0, 65, 59
1, 97234, Note_off_c, 0, 64, 64
1, 97239, Note_on_c, 0, 60, 67
1, 97317, Note_off_c, 0, 60, 57
1, 97326, Note_on_c, 0, 57, 70
1, 97359, Note_off_c, 0, 57, 62
1, 97493, Control_c, 0, 64, 97
1, 97508, Control_c, 0, 64, 70
1, 97513, Note_on_c, 0, 56, 64
1, 97523, Control_c, 0, 64, 0
1, 97527, Note_on_c, 0, 53, 63
1, 97600, Note_off_c, 0, 56, 64
1, 97606, Note_on_c, 0, 68, 58
1, 97612, Control_c, 0, 64, 36
1, 97618, Note_on_c, 0, 50, 55
1, 97624, Note_on_c, 0, 59, 56
1, 97627, Control_c, 0, 64, 68
1, 97630, Note_off_c, 0, 53, 59
1, 97642, Control_c, 0, 64, 83
1, 97657, Control_c, 0, 64, 121
1, 97660, Note_off_c, 0, 59, 64
1, 97672, Control_c, 0, 64, 127
1, 97689, Note_off_c, 0, 68, 61
1, 97697, Note_on_c, 0, 45, 63
1, 97708, Note_on_c, 0, 59, 71
1, 97737, Note_off_c, 0, 59, 63
1, 97779, Note_on_c, 0, 71, 79
1, 97788, Note_on_c, 0, 56, 74
1, 97794, Note_on_c, 0, 62, 59
1, 97821, Note_off_c, 0, 62, 64
1, 97833, Note_off_c, 0, 71, 61
1, 97836, Note_off_c, 0, 45, 36
1, 97859, Note_off_c, 0, 50, 37
1, 97860, Note_off_c, 0, 56, 64
1, 97860, Note_on_c, 0, 53, 75
1, 97866, Note_on_c, 0, 62, 85
1, 97905, Note_off_c, 0, 62, 58
1, 97930, Note_on_c, 0, 74, 89
1, 97931, Note_on_c, 0, 65, 82
1, 97932, Note_on_c, 0, 45, 81
1, 97938, Note_off_c, 0, 53, 64
1, 97965, Note_off_c, 0, 65, 64
1, 97981, Note_off_c, 0, 74, 63
1, 98005, Note_off_c, 0, 45, 61
1, 98006, Note_on_c, 0, 65, 82
1, 98010, Note_on_c, 0, 59, 89
1, 98065, Note_on_c, 0, 77, 91
1, 98069, Note_on_c, 0, 68, 88
1, 98074, Note_off_c, 0, 65, 59
1, 98075, Note_off_c, 0, 59, 62
1, 98077, Note_on_c, 0, 53, 84
1, 98104, Note_off_c, 0, 68, 60
1, 98110, Note_off_c, 0, 77, 61
1, 98139, Note_on_c, 0, 45, 84
1, 98159, Note_off_c, 0, 53, 65
1, 98161, Note_on_c, 0, 68, 86
1, 98205, Note_off_c, 0, 45, 66
1, 98213, Note_on_c, 0, 80, 92
1, 98215, Note_off_c, 0, 68, 64
1, 98220, Note_on_c, 0, 71, 93
1, 98220, Note_on_c, 0, 47, 35
1, 98250, Note_on_c, 0, 62, 95
1, 98257, Note_off_c, 0, 47, 56
1, 98259, Note_off_c, 0, 71, 68
1, 98290, Note_off_c, 0, 62, 66
1, 98297, Note_off_c, 0, 80, 64
1, 98310, Note_on_c, 0, 71, 95
1, 98361, Note_off_c, 0, 71, 64
1, 98383, Note_on_c, 0, 83, 95
1, 98386, Note_on_c, 0, 74, 94
1, 98399, Note_on_c, 0, 72, 68
1, 98400, Note_on_c, 0, 81, 64
1, 98418, Note_off_c, 0, 72, 40
1, 98419, Note_off_c, 0, 81, 66
1, 98420, Note_off_c, 0, 74, 70
1, 98432, Note_off_c, 0, 83, 65
1, 98553, Control_c, 0, 64, 92
1, 98568, Control_c, 0, 64, 53
1, 98582, Control_c, 0, 64, 0
1, 98587, Note_on_c, 0, 93, 96
1, 98590, Note_on_c, 0, 89, 90
1, 98600, Note_on_c, 0, 33, 90
1, 98602, Note_on_c, 0, 45, 99
1, 98641, Control_c, 0, 64, 67
1, 98656, Control_c, 0, 64, 95
1, 98657, Note_off_c, 0, 33, 63
1, 98668, Note_off_c, 0, 45, 65
1, 98671, Control_c, 0, 64, 127
1, 98745, Note_on_c, 0, 88, 96
1, 98783, Note_off_c, 0, 93, 61
1, 98813, Note_off_c, 0, 89, 61
1, 98827, Note_on_c, 0, 40, 90
1, 98828, Note_on_c, 0, 52, 97
1, 98837, Note_on_c, 0, 84, 98
1, 98854, Note_off_c, 0, 88, 62
1, 98874, Note_off_c, 0, 40, 66
1, 98874, Note_off_c, 0, 52, 65
1, 98926, Note_off_c, 0, 84, 69
1, 98930, Note_on_c, 0, 81, 85
1, 98960, Note_off_c, 0, 81, 64
1, 98974, Note_on_c, 0, 79, 18
1, 98996, Poly_aftertouch_c, 0, 81, 0
1, 98999, Note_on_c, 0, 59, 99
1, 99002, Note_on_c, 0, 81, 76
1, 99003, Note_on_c, 0, 45, 91
1, 99003, Note_on_c, 0, 47, 88
1, 99007, Note_on_c, 0, 77, 81
1, 99017, Note_off_c, 0, 79, 51
1, 99030, Note_off_c, 0, 45, 70
1, 99039, Note_off_c, 0, 59, 68
1, 99043, Note_off_c, 0, 47, 68
1, 99076, Note_on_c, 0, 76, 89
1, 99086, Note_off_c, 0, 81, 52
1, 99123, Note_off_c, 0, 77, 58
1, 99139, Control_c, 0, 64, 81
1, 99153, Note_on_c, 0, 72, 92
1, 99154, Control_c, 0, 64, 0
1, 99156, Note_on_c, 0, 48, 99
1, 99158, Note_off_c, 0, 76, 66
1, 99159, Note_on_c, 0, 60, 98
1, 99219, Note_off_c, 0, 72, 67
1, 99225, Note_on_c, 0, 69, 82
1, 99252, Note_off_c, 0, 69, 65
1, 99294, Poly_aftertouch_c, 0, 69, 0
1, 99301, Note_on_c, 0, 69, 54
1, 99303, Note_on_c, 0, 65, 67
1, 99317, Control_c, 0, 64, 69
1, 99332, Control_c, 0, 64, 85
1, 99338, Note_off_c, 0, 60, 62
1, 99347, Control_c, 0, 64, 127
1, 99359, Note_off_c, 0, 48, 64
1, 99364, Note_off_c, 0, 69, 59
1, 99376, Note_on_c, 0, 64, 77
1, 99414, Note_off_c, 0, 65, 57
1, 99453, Note_on_c, 0, 60, 71
1, 99453, Note_off_c, 0, 64, 65
1, 99524, Note_off_c, 0, 60, 62
1, 99544, Note_on_c, 0, 57, 72
1, 99589, Note_off_c, 0, 57, 57
1, 99717, Note_on_c, 0, 59, 67
1, 99725, Control_c, 0, 64, 77
1, 99729, Note_on_c, 0, 56, 70
1, 99739, Control_c, 0, 64, 0
1, 99807, Note_off_c, 0, 59, 51
1, 99811, Note_off_c, 0, 56, 60
1, 99818, Note_on_c, 0, 71, 68
1, 99829, Control_c, 0, 64, 36
1, 99831, Note_on_c, 0, 62, 61
1, 99844, Control_c, 0, 64, 65
1, 99851, Note_on_c, 0, 53, 59
1, 99859, Control_c, 0, 64, 80
1, 99867, Note_off_c, 0, 62, 65
1, 99873, Control_c, 0, 64, 116
1, 99886, Note_off_c, 0, 71, 55
1, 99888, Control_c, 0, 64, 127
1, 99919, Note_on_c, 0, 62, 71
1, 99920, Note_on_c, 0, 45, 70
1, 99935, Note_off_c, 0, 53, 59
1, 99956, Note_off_c, 0, 62, 57
1, 99982, Note_off_c, 0, 45, 63
1, 99991, Note_on_c, 0, 74, 78
1, 100003, Note_on_c, 0, 59, 76
1, 100003, Note_on_c, 0, 65, 59
1, 100034, Note_off_c, 0, 65, 66
1, 100036, Note_off_c, 0, 74, 51
1, 100070, Note_on_c, 0, 65, 85
1, 100071, Note_off_c, 0, 59, 54
1, 100087, Note_on_c, 0, 53, 69
1, 100104, Note_on_c, 0, 52, 34
1, 100131, Note_off_c, 0, 65, 57
1, 100138, Note_on_c, 0, 77, 86
1, 100140, Note_on_c, 0, 68, 87
1, 100143, Note_off_c, 0, 53, 64
1, 100143, Note_off_c, 0, 52, 50
1, 100143, Note_on_c, 0, 45, 86
1, 100164, Note_off_c, 0, 68, 64
1, 100185, Note_off_c, 0, 45, 65
1, 100186, Note_off_c, 0, 77, 61
1, 100222, Note_on_c, 0, 68, 91
1, 100228, Note_on_c, 0, 62, 95
1, 100269, Note_off_c, 0, 68, 65
1, 100274, Note_off_c, 0, 62, 62
1, 100279, Note_on_c, 0, 80, 93
1, 100291, Note_on_c, 0, 71, 73
1, 100291, Note_on_c, 0, 72, 70
1, 100294, Note_on_c, 0, 53, 82
1, 100312, Note_off_c, 0, 71, 72
1, 100313, Poly_aftertouch_c, 0, 51, 127
1, 100313, Note_off_c, 0, 72, 69
1, 100343, Note_off_c, 0, 80, 65
1, 100352, Note_on_c, 0, 45, 95
1, 100360, Note_on_c, 0, 71, 99
1, 100362, Poly_aftertouch_c, 0, 51, 0
1, 100364, Note_off_c, 0, 53, 66
1, 100401, Poly_aftertouch_c, 0, 81, 0
1, 100416, Note_off_c, 0, 45, 64
1, 100417, Note_off_c, 0, 71, 66
1, 100441, Note_on_c, 0, 83, 97
1, 100444, Note_on_c, 0, 74, 99
1, 100459, Note_on_c, 0, 64, 98
1, 100478, Note_off_c, 0, 74, 69
1, 100493, Note_off_c, 0, 64, 69
1, 100509, Note_off_c, 0, 83, 59
1, 100531, Note_on_c, 0, 74, 110
1, 100584, Note_off_c, 0, 74, 66
1, 100602, Note_on_c, 0, 86, 99
1, 100608, Note_on_c, 0, 77, 87
1, 100626, Note_off_c, 0, 77, 73
1, 100647, Note_off_c, 0, 86, 69
1, 100653, Note_on_c, 0, 37, 42
1, 100785, Control_c, 0, 64, 105
1, 100800, Control_c, 0, 64, 74
1, 100815, Control_c, 0, 64, 0
1, 100823, Note_off_c, 0, 37, 42
1, 100824, Note_on_c, 0, 100, 81
1, 100833, Note_on_c, 0, 93, 79
1, 100834, Note_on_c, 0, 33, 70
1, 100835, Note_on_c, 0, 45, 68
1, 100903, Control_c, 0, 64, 59
1, 100916, Note_off_c, 0, 33, 60
1, 100918, Note_off_c, 0, 45, 62
1, 100918, Control_c, 0, 64, 76
1, 100933, Control_c, 0, 64, 102
1, 100948, Control_c, 0, 64, 127
1, 100970, Note_off_c, 0, 93, 61
1, 100976, Note_on_c, 0, 96, 69
1, 101025, Note_off_c, 0, 100, 60
1, 101067, Note_on_c, 0, 40, 73
1, 101073, Note_on_c, 0, 52, 64
1, 101077, Note_on_c, 0, 93, 81
1, 101091, Note_off_c, 0, 96, 64
1, 101109, Note_off_c, 0, 40, 64
1, 101109, Note_off_c, 0, 52, 63
1, 101165, Note_off_c, 0, 93, 64
1, 101167, Note_on_c, 0, 88, 79
1, 101213, Note_off_c, 0, 88, 59
1, 101239, Note_on_c, 0, 96, 77
1, 101240, Note_on_c, 0, 88, 65
1, 101242, Note_on_c, 0, 44, 77
1, 101246, Note_on_c, 0, 56, 81
1, 101284, Note_off_c, 0, 56, 60
1, 101291, Note_off_c, 0, 44, 60
1, 101315, Note_on_c, 0, 93, 77
1, 101318, Note_off_c, 0, 88, 64
1, 101364, Note_off_c, 0, 96, 51
1, 101387, Note_on_c, 0, 88, 88
1, 101390, Note_on_c, 0, 59, 86
1, 101392, Note_on_c, 0, 47, 85
1, 101400, Control_c, 0, 64, 88
1, 101415, Control_c, 0, 64, 68
1, 101419, Note_off_c, 0, 93, 64
1, 101431, Control_c, 0, 64, 55
1, 101442, Note_off_c, 0, 59, 64
1, 101445, Control_c, 0, 64, 63
1, 101454, Note_off_c, 0, 47, 64
1, 101455, Note_on_c, 0, 84, 84
1, 101457, Note_off_c, 0, 88, 65
1, 101460, Control_c, 0, 64, 70
1, 101475, Control_c, 0, 64, 84
1, 101490, Control_c, 0, 64, 127
1, 101502, Note_off_c, 0, 84, 64
1, 101522, Note_on_c, 0, 93, 90
1, 101532, Note_on_c, 0, 45, 96
1, 101532, Note_on_c, 0, 84, 67
1, 101533, Note_on_c, 0, 86, 66
1, 101538, Note_on_c, 0, 57, 88
1, 101558, Note_off_c, 0, 86, 67
1, 101582, Note_off_c, 0, 45, 65
1, 101583, Note_off_c, 0, 57, 65
1, 101594, Note_on_c, 0, 88, 93
1, 101598, Note_off_c, 0, 84, 63
1, 101619, Note_off_c, 0, 93, 57
1, 101654, Note_on_c, 0, 47, 96
1, 101654, Note_on_c, 0, 84, 87
1, 101655, Note_on_c, 0, 59, 101
1, 101682, Note_off_c, 0, 88, 65
1, 101695, Note_off_c, 0, 47, 69
1, 101696, Note_off_c, 0, 59, 67
1, 101717, Note_on_c, 0, 81, 88
1, 101718, Note_off_c, 0, 84, 67
1, 101759, Note_off_c, 0, 81, 66
1, 101771, Control_c, 0, 64, 86
1, 101785, Control_c, 0, 64, 0
1, 101791, Note_on_c, 0, 50, 103
1, 101791, Note_on_c, 0, 62, 102
1, 101791, Note_on_c, 0, 81, 69
1, 101794, Note_on_c, 0, 79, 75
1, 101797, Note_on_c, 0, 86, 72
1, 101797, Note_on_c, 0, 88, 79
1, 101830, Control_c, 0, 64, 56
1, 101838, Note_off_c, 0, 62, 65
1, 101845, Control_c, 0, 64, 77
1, 101847, Note_off_c, 0, 50, 66
1, 101852, Note_off_c, 0, 79, 39
1, 101857, Note_off_c, 0, 81, 59
1, 101860, Control_c, 0, 64, 127
1, 101862, Note_on_c, 0, 84, 82
1, 101908, Note_off_c, 0, 86, 61
1, 101917, Note_on_c, 0, 83, 17
1, 101918, Note_off_c, 0, 83, 127
1, 101921, Note_off_c, 0, 88, 24
1, 101932, Note_on_c, 0, 81, 89
1, 101935, Note_on_c, 0, 48, 97
1, 101938, Note_on_c, 0, 60, 98
1, 101958, Note_off_c, 0, 84, 65
1, 101977, Note_off_c, 0, 48, 66
1, 101979, Note_off_c, 0, 60, 69
1, 101995, Note_off_c, 0, 81, 66
1, 102004, Note_on_c, 0, 76, 86
1, 102015, Poly_aftertouch_c, 0, 49, 127
1, 102031, Poly_aftertouch_c, 0, 49, 0
1, 102051, Note_off_c, 0, 76, 65
1, 102054, Poly_aftertouch_c, 0, 49, 0
1, 102070, Note_on_c, 0, 84, 92
1, 102071, Note_on_c, 0, 76, 85
1, 102073, Note_on_c, 0, 51, 100
1, 102074, Note_on_c, 0, 63, 109
1, 102110, Note_off_c, 0, 63, 66
1, 102111, Note_off_c, 0, 51, 67
1, 102148, Note_on_c, 0, 81, 87
1, 102151, Note_off_c, 0, 76, 56
1, 102194, Note_off_c, 0, 84, 57
1, 102224, Control_c, 0, 64, 90
1, 102239, Control_c, 0, 64, 0
1, 102243, Note_on_c, 0, 76, 88
1, 102248, Note_on_c, 0, 65, 105
1, 102252, Note_on_c, 0, 53, 97
1, 102256, Note_on_c, 0, 55, 80
1, 102269, Note_off_c, 0, 81, 59
1, 102283, Control_c, 0, 64, 24
1, 102289, Note_on_c, 0, 54, 34
1, 102290, Note_off_c, 0, 54, 127
1, 102298, Control_c, 0, 64, 73
1, 102313, Control_c, 0, 64, 127
1, 102332, Note_on_c, 0, 72, 87
1, 102345, Note_off_c, 0, 76, 65
1, 102358, Note_off_c, 0, 65, 56
1, 102367, Note_off_c, 0, 55, 58
1, 102371, Note_off_c, 0, 53, 63
1, 102393, Note_off_c, 0, 72, 61
1, 102428, Note_on_c, 0, 81, 84
1, 102430, Note_on_c, 0, 72, 72
1, 102432, Control_c, 0, 64, 90
1, 102447, Control_c, 0, 64, 54
1, 102450, Note_on_c, 0, 52, 99
1, 102450, Note_on_c, 0, 64, 97
1, 102462, Control_c, 0, 64, 0
1, 102491, Control_c, 0, 64, 68
1, 102506, Control_c, 0, 64, 98
1, 102508, Note_off_c, 0, 64, 64
1, 102510, Note_on_c, 0, 76, 82
1, 102510, Note_off_c, 0, 72, 63
1, 102521, Control_c, 0, 64, 127
1, 102534, Note_off_c, 0, 81, 57
1, 102549, Note_off_c, 0, 52, 65
1, 102593, Note_on_c, 0, 72, 89
1, 102605, Note_off_c, 0, 76, 64
1, 102671, Note_on_c, 0, 69, 84
1, 102691, Note_off_c, 0, 72, 64
1, 102779, Control_c, 0, 64, 112
1, 102790, Note_on_c, 0, 78, 80
1, 102793, Note_on_c, 0, 72, 76
1, 102794, Control_c, 0, 64, 75
1, 102805, Note_on_c, 0, 45, 94
1, 102805, Note_on_c, 0, 33, 89
1, 102808, Control_c, 0, 64, 0
1, 102840, Note_off_c, 0, 69, 60
1, 102868, Control_c, 0, 64, 63
1, 102882, Control_c, 0, 64, 80
1, 102897, Control_c, 0, 64, 127
1, 102919, Note_off_c, 0, 72, 61
1, 102936, Note_off_c, 0, 33, 60
1, 102945, Note_off_c, 0, 45, 63
1, 102951, Note_on_c, 0, 75, 76
1, 103039, Note_on_c, 0, 72, 80
1, 103041, Note_on_c, 0, 36, 95
1, 103041, Note_on_c, 0, 48, 97
1, 103045, Note_off_c, 0, 78, 60
1, 103071, Note_off_c, 0, 75, 62
1, 103109, Note_off_c, 0, 48, 63
1, 103109, Note_off_c, 0, 72, 64
1, 103115, Note_on_c, 0, 66, 80
1, 103115, Note_off_c, 0, 36, 62
1, 103154, Note_off_c, 0, 66, 64
1, 103198, Note_on_c, 0, 72, 77
1, 103198, Note_on_c, 0, 66, 63
1, 103202, Note_on_c, 0, 38, 93
1, 103202, Note_on_c, 0, 50, 93
1, 103249, Note_off_c, 0, 50, 68
1, 103252, Note_on_c, 0, 39, 23
1, 103252, Note_off_c, 0, 38, 65
1, 103269, Note_on_c, 0, 69, 75
1, 103270, Note_off_c, 0, 66, 62
1, 103294, Note_off_c, 0, 39, 47
1, 103317, Note_off_c, 0, 72, 52
1, 103349, Note_on_c, 0, 66, 77
1, 103357, Control_c, 0, 64, 85
1, 103361, Note_on_c, 0, 39, 93
1, 103362, Note_on_c, 0, 51, 102
1, 103372, Control_c, 0, 64, 0
1, 103379, Note_off_c, 0, 69, 59
1, 103431, Note_off_c, 0, 66, 62
1, 103434, Note_on_c, 0, 60, 77
1, 103480, Note_off_c, 0, 60, 61
1, 103507, Note_on_c, 0, 60, 63
1, 103508, Note_on_c, 0, 69, 73
1, 103582, Note_on_c, 0, 66, 71
1, 103584, Note_off_c, 0, 60, 62
1, 103604, Note_off_c, 0, 69, 58
1, 103659, Note_on_c, 0, 60, 60
1, 103664, Note_off_c, 0, 66, 63
1, 103705, Control_c, 0, 64, 40
1, 103720, Control_c, 0, 64, 68
1, 103727, Note_off_c, 0, 60, 65
1, 103735, Control_c, 0, 64, 81
1, 103738, Note_on_c, 0, 57, 67
1, 103750, Control_c, 0, 64, 111
1, 103765, Control_c, 0, 64, 127
1, 103782, Note_off_c, 0, 57, 59
1, 103817, Note_on_c, 0, 66, 74
1, 103821, Note_on_c, 0, 57, 47
1, 103891, Note_off_c, 0, 57, 62
1, 103905, Note_on_c, 0, 60, 63
1, 103917, Note_off_c, 0, 66, 58
1, 103993, Note_off_c, 0, 60, 62
1, 103994, Note_on_c, 0, 57, 69
1, 104020, Note_off_c, 0, 51, 60
1, 104054, Note_off_c, 0, 57, 62
1, 104070, Note_on_c, 0, 54, 72
1, 104150, Poly_aftertouch_c, 0, 42, 127
1, 104179, Note_off_c, 0, 39, 54
1, 104212, Note_on_c, 0, 66, 81
1, 104213, Note_on_c, 0, 62, 78
1, 104218, Control_c, 0, 64, 107
1, 104224, Note_on_c, 0, 50, 85
1, 104228, Note_on_c, 0, 38, 82
1, 104233, Control_c, 0, 64, 78
1, 104245, Note_off_c, 0, 54, 31
1, 104247, Control_c, 0, 64, 47
1, 104262, Control_c, 0, 64, 0
1, 104267, Poly_aftertouch_c, 0, 42, 0
1, 104277, Control_c, 0, 64, 37
1, 104292, Control_c, 0, 64, 67
1, 104307, Control_c, 0, 64, 82
1, 104321, Control_c, 0, 64, 127
1, 104337, Note_off_c, 0, 50, 63
1, 104364, Note_on_c, 0, 54, 64
1, 104366, Note_off_c, 0, 38, 62
1, 104390, Note_off_c, 0, 62, 61
1, 104393, Note_off_c, 0, 66, 58
1, 104492, Note_on_c, 0, 66, 77
1, 104494, Note_on_c, 0, 63, 79
1, 104500, Note_on_c, 0, 33, 88
1, 104502, Note_on_c, 0, 45, 89
1, 104513, Control_c, 0, 64, 83
1, 104528, Note_off_c, 0, 54, 65
1, 104528, Control_c, 0, 64, 53
1, 104543, Control_c, 0, 64, 0
1, 104573, Control_c, 0, 64, 63
1, 104588, Control_c, 0, 64, 79
1, 104602, Control_c, 0, 64, 127
1, 104647, Note_on_c, 0, 54, 67
1, 104665, Note_off_c, 0, 45, 62
1, 104681, Note_off_c, 0, 66, 57
1, 104701, Note_off_c, 0, 63, 59
1, 104737, Control_c, 0, 64, 113
1, 104751, Control_c, 0, 64, 74
1, 104752, Note_on_c, 0, 66, 73
1, 104758, Note_on_c, 0, 46, 88
1, 104760, Note_on_c, 0, 62, 70
1, 104766, Note_on_c, 0, 34, 73
1, 104766, Control_c, 0, 64, 44
1, 104775, Note_off_c, 0, 54, 62
1, 104781, Control_c, 0, 64, 34
1, 104796, Control_c, 0, 64, 63
1, 104804, Note_off_c, 0, 33, 61
1, 104811, Control_c, 0, 64, 78
1, 104826, Control_c, 0, 64, 127
1, 104870, Note_on_c, 0, 54, 74
1, 104896, Note_off_c, 0, 66, 61
1, 104920, Note_off_c, 0, 46, 60
1, 104934, Note_off_c, 0, 62, 55
1, 104946, Note_off_c, 0, 54, 61
1, 104952, Control_c, 0, 64, 78
1, 104967, Control_c, 0, 64, 14
1, 104969, Note_on_c, 0, 66, 75
1, 104970, Note_on_c, 0, 62, 41
1, 104971, Note_on_c, 0, 45, 88
1, 104972, Note_on_c, 0, 33, 81
1, 104978, Note_on_c, 0, 60, 66
1, 104982, Control_c, 0, 64, 0
1, 104996, Control_c, 0, 64, 24
1, 105011, Control_c, 0, 64, 68
1, 105026, Note_off_c, 0, 34, 55
1, 105026, Control_c, 0, 64, 94
1, 105041, Control_c, 0, 64, 127
1, 105079, Note_on_c, 0, 54, 76
1, 105112, Note_off_c, 0, 54, 67
1, 105131, Note_off_c, 0, 60, 60
1, 105142, Note_off_c, 0, 33, 56
1, 105153, Note_off_c, 0, 66, 60
1, 105163, Note_off_c, 0, 62, 47
1, 105181, Note_off_c, 0, 45, 53
1, 105268, Poly_aftertouch_c, 0, 37, 127
1, 105278, Control_c, 0, 64, 88
1, 105293, Control_c, 0, 64, 38
1, 105298, Poly_aftertouch_c, 0, 37, 0
1, 105304, Note_on_c, 0, 91, 99
1, 105306, Note_on_c, 0, 87, 91
1, 105308, Control_c, 0, 64, 0
1, 105314, Note_on_c, 0, 31, 89
1, 105315, Note_on_c, 0, 43, 96
1, 105367, Control_c, 0, 64, 70
1, 105382, Control_c, 0, 64, 95
1, 105396, Control_c, 0, 64, 127
1, 105414, Note_off_c, 0, 31, 61
1, 105437, Note_off_c, 0, 43, 63
1, 105467, Note_on_c, 0, 86, 87
1, 105485, Note_off_c, 0, 91, 60
1, 105570, Note_on_c, 0, 82, 98
1, 105578, Note_on_c, 0, 38, 97
1, 105579, Note_on_c, 0, 50, 95
1, 105587, Note_off_c, 0, 87, 41
1, 105607, Note_off_c, 0, 86, 63
1, 105625, Note_off_c, 0, 38, 65
1, 105625, Note_off_c, 0, 50, 68
1, 105660, Note_on_c, 0, 79, 87
1, 105665, Note_off_c, 0, 82, 66
1, 105697, Note_off_c, 0, 79, 64
1, 105748, Note_on_c, 0, 79, 78
1, 105756, Note_on_c, 0, 45, 102
1, 105756, Note_on_c, 0, 75, 76
1, 105759, Note_on_c, 0, 57, 98
1, 105794, Note_off_c, 0, 57, 67
1, 105795, Note_off_c, 0, 45, 69
1, 105823, Note_on_c, 0, 74, 82
1, 105838, Note_off_c, 0, 79, 54
1, 105863, Poly_aftertouch_c, 0, 55, 0
1, 105884, Note_off_c, 0, 75, 58
1, 105905, Note_on_c, 0, 70, 88
1, 105919, Note_on_c, 0, 46, 97
1, 105920, Note_on_c, 0, 58, 101
1, 105920, Note_off_c, 0, 74, 59
1, 105923, Control_c, 0, 64, 98
1, 105938, Control_c, 0, 64, 62
1, 105953, Control_c, 0, 64, 0
1, 105980, Note_off_c, 0, 70, 67
1, 105984, Note_on_c, 0, 67, 80
1, 106006, Note_off_c, 0, 67, 68
1, 106076, Note_on_c, 0, 63, 70
1, 106086, Note_on_c, 0, 67, 53
1, 106118, Note_off_c, 0, 67, 59
1, 106148, Note_on_c, 0, 62, 62
1, 106150, Note_off_c, 0, 58, 57
1, 106190, Control_c, 0, 64, 56
1, 106202, Note_off_c, 0, 63, 59
1, 106205, Control_c, 0, 64, 70
1, 106221, Control_c, 0, 64, 86
1, 106223, Note_off_c, 0, 46, 57
1, 106229, Note_on_c, 0, 58, 63
1, 106234, Note_off_c, 0, 62, 61
1, 106235, Control_c, 0, 64, 127
1, 106317, Note_on_c, 0, 55, 69
1, 106320, Note_off_c, 0, 58, 59
1, 106350, Note_off_c, 0, 55, 64
1, 106479, Control_c, 0, 64, 90
1, 106486, Note_on_c, 0, 54, 66
1, 106494, Control_c, 0, 64, 64
1, 106498, Note_on_c, 0, 51, 62
1, 106509, Control_c, 0, 64, 0
1, 106569, Note_off_c, 0, 54, 63
1, 106578, Note_on_c, 0, 66, 57
1, 106579, Note_on_c, 0, 57, 59
1, 106591, Note_on_c, 0, 48, 62
1, 106603, Note_off_c, 0, 51, 55
1, 106612, Control_c, 0, 64, 64
1, 106621, Note_off_c, 0, 57, 64
1, 106627, Control_c, 0, 64, 75
1, 106636, Note_off_c, 0, 66, 57
1, 106641, Control_c, 0, 64, 91
1, 106656, Control_c, 0, 64, 127
1, 106662, Poly_aftertouch_c, 0, 57, 0
1, 106669, Note_on_c, 0, 57, 63
1, 106672, Note_on_c, 0, 43, 61
1, 106705, Note_off_c, 0, 57, 61
1, 106743, Note_on_c, 0, 69, 78
1, 106751, Note_on_c, 0, 54, 78
1, 106752, Note_on_c, 0, 60, 68
1, 106757, Note_off_c, 0, 43, 60
1, 106780, Note_off_c, 0, 60, 67
1, 106791, Note_off_c, 0, 48, 37
1, 106799, Note_off_c, 0, 69, 61
1, 106825, Note_on_c, 0, 60, 85
1, 106826, Note_on_c, 0, 51, 79
1, 106834, Note_off_c, 0, 54, 62
1, 106891, Note_on_c, 0, 63, 88
1, 106892, Note_on_c, 0, 72, 77
1, 106893, Note_off_c, 0, 60, 52
1, 106903, Note_on_c, 0, 43, 76
1, 106915, Note_off_c, 0, 51, 60
1, 106937, Note_off_c, 0, 72, 59
1, 106939, Note_off_c, 0, 63, 58
1, 106962, Note_on_c, 0, 57, 92
1, 106967, Note_off_c, 0, 43, 61
1, 106972, Note_on_c, 0, 63, 86
1, 107038, Note_on_c, 0, 75, 87
1, 107039, Note_off_c, 0, 57, 62
1, 107040, Note_on_c, 0, 66, 90
1, 107048, Note_on_c, 0, 51, 83
1, 107049, Note_off_c, 0, 63, 57
1, 107071, Note_off_c, 0, 66, 59
1, 107094, Note_on_c, 0, 76, 38
1, 107101, Note_off_c, 0, 75, 63
1, 107102, Note_on_c, 0, 43, 87
1, 107121, Note_on_c, 0, 66, 95
1, 107121, Note_off_c, 0, 51, 64
1, 107129, Note_off_c, 0, 76, 51
1, 107169, Note_off_c, 0, 43, 66
1, 107174, Note_off_c, 0, 66, 68
1, 107188, Note_on_c, 0, 70, 94
1, 107197, Note_on_c, 0, 78, 96
1, 107204, Note_on_c, 0, 69, 85
1, 107211, Note_on_c, 0, 60, 99
1, 107224, Note_off_c, 0, 70, 43
1, 107232, Note_off_c, 0, 69, 62
1, 107255, Note_off_c, 0, 60, 68
1, 107259, Note_off_c, 0, 78, 65
1, 107278, Note_on_c, 0, 69, 92
1, 107322, Note_off_c, 0, 69, 69
1, 107349, Note_on_c, 0, 81, 101
1, 107351, Note_on_c, 0, 72, 93
1, 107380, Note_off_c, 0, 72, 66
1, 107392, Note_off_c, 0, 81, 67
1, 107469, Note_on_c, 0, 34, 33
1, 107494, Control_c, 0, 64, 124
1, 107509, Control_c, 0, 64, 69
1, 107523, Control_c, 0, 64, 0
1, 107524, Note_off_c, 0, 34, 48
1, 107524, Poly_aftertouch_c, 0, 37, 127
1, 107533, Note_on_c, 0, 37, 2
1, 107533, Note_on_c, 0, 91, 101
1, 107540, Note_on_c, 0, 87, 95
1, 107543, Note_on_c, 0, 31, 89
1, 107545, Note_on_c, 0, 43, 93
1, 107574, Note_off_c, 0, 37, 37
1, 107597, Control_c, 0, 64, 68
1, 107612, Control_c, 0, 64, 105
1, 107619, Note_off_c, 0, 31, 62
1, 107627, Control_c, 0, 64, 127
1, 107646, Note_off_c, 0, 43, 64
1, 107685, Note_on_c, 0, 86, 93
1, 107699, Note_off_c, 0, 91, 59
1, 107747, Note_off_c, 0, 87, 59
1, 107776, Note_on_c, 0, 82, 98
1, 107786, Note_on_c, 0, 36, 86
1, 107788, Note_on_c, 0, 50, 94
1, 107790, Note_on_c, 0, 38, 87
1, 107798, Note_on_c, 0, 48, 65
1, 107807, Note_off_c, 0, 86, 63
1, 107822, Note_off_c, 0, 48, 60
1, 107824, Note_off_c, 0, 36, 63
1, 107829, Note_off_c, 0, 50, 68
1, 107833, Note_off_c, 0, 38, 63
1, 107853, Note_on_c, 0, 79, 89
1, 107855, Note_off_c, 0, 82, 66
1, 107897, Note_off_c, 0, 79, 62
1, 107938, Note_on_c, 0, 79, 75
1, 107946, Note_on_c, 0, 45, 96
1, 107950, Note_on_c, 0, 57, 103
1, 107951, Note_on_c, 0, 75, 75
1, 107988, Note_off_c, 0, 57, 69
1, 107990, Note_off_c, 0, 45, 67
1, 108014, Note_on_c, 0, 74, 81
1, 108039, Note_off_c, 0, 79, 38
1, 108041, Poly_aftertouch_c, 0, 46, 127
1, 108075, Poly_aftertouch_c, 0, 46, 0
1, 108084, Note_off_c, 0, 75, 60
1, 108094, Control_c, 0, 64, 121
1, 108099, Note_on_c, 0, 70, 91
1, 108102, Note_on_c, 0, 46, 88
1, 108105, Note_on_c, 0, 58, 105
1, 108109, Control_c, 0, 64, 73
1, 108113, Note_off_c, 0, 74, 61
1, 108124, Control_c, 0, 64, 0
1, 108171, Note_off_c, 0, 70, 65
1, 108176, Note_on_c, 0, 67, 79
1, 108196, Note_off_c, 0, 67, 69
1, 108266, Note_on_c, 0, 63, 70
1, 108271, Note_on_c, 0, 67, 51
1, 108287, Control_c, 0, 64, 60
1, 108291, Note_off_c, 0, 58, 57
1, 108302, Control_c, 0, 64, 72
1, 108307, Note_off_c, 0, 67, 48
1, 108317, Control_c, 0, 64, 93
1, 108332, Control_c, 0, 64, 127
1, 108341, Note_on_c, 0, 62, 66
1, 108383, Note_off_c, 0, 63, 58
1, 108389, Note_off_c, 0, 46, 56
1, 108413, Note_on_c, 0, 58, 69
1, 108467, Note_off_c, 0, 62, 53
1, 108483, Note_off_c, 0, 58, 58
1, 108498, Note_on_c, 0, 55, 74
1, 108538, Note_off_c, 0, 55, 60
1, 108636, Control_c, 0, 64, 120
1, 108651, Control_c, 0, 64, 79
1, 108657, Note_on_c, 0, 57, 66
1, 108665, Control_c, 0, 64, 0
1, 108670, Note_on_c, 0, 54, 69
1, 108736, Note_off_c, 0, 57, 49
1, 108740, Control_c, 0, 64, 56
1, 108752, Note_on_c, 0, 69, 66
1, 108755, Control_c, 0, 64, 73
1, 108760, Note_on_c, 0, 51, 63
1, 108760, Note_off_c, 0, 54, 62
1, 108766, Note_on_c, 0, 60, 62
1, 108769, Control_c, 0, 64, 91
1, 108784, Control_c, 0, 64, 127
1, 108802, Note_off_c, 0, 60, 65
1, 108823, Note_off_c, 0, 69, 62
1, 108838, Note_off_c, 0, 51, 60
1, 108840, Note_on_c, 0, 43, 73
1, 108853, Note_on_c, 0, 60, 69
1, 108901, Note_off_c, 0, 43, 62
1, 108916, Note_off_c, 0, 60, 44
1, 108916, Note_on_c, 0, 72, 79
1, 108921, Note_on_c, 0, 57, 79
1, 108921, Note_on_c, 0, 63, 83
1, 108954, Note_off_c, 0, 72, 57
1, 108971, Note_off_c, 0, 63, 58
1, 108997, Note_off_c, 0, 57, 53
1, 108998, Note_on_c, 0, 51, 78
1, 109005, Note_on_c, 0, 63, 80
1, 109054, Note_on_c, 0, 43, 85
1, 109068, Note_on_c, 0, 75, 87
1, 109071, Note_off_c, 0, 51, 64
1, 109071, Note_on_c, 0, 66, 88
1, 109086, Note_off_c, 0, 63, 57
1, 109104, Note_off_c, 0, 43, 64
1, 109116, Note_off_c, 0, 66, 63
1, 109132, Note_off_c, 0, 75, 64
1, 109140, Note_on_c, 0, 60, 98
1, 109146, Note_on_c, 0, 66, 94
1, 109168, Note_on_c, 0, 49, 50
1, 109192, Note_off_c, 0, 60, 64
1, 109209, Note_off_c, 0, 66, 57
1, 109213, Note_on_c, 0, 69, 88
1, 109216, Note_on_c, 0, 78, 100
1, 109220, Note_on_c, 0, 51, 88
1, 109255, Note_off_c, 0, 69, 65
1, 109282, Note_on_c, 0, 43, 90
1, 109287, Note_off_c, 0, 78, 64
1, 109306, Note_on_c, 0, 69, 96
1, 109308, Note_off_c, 0, 49, 21
1, 109308, Note_off_c, 0, 51, 62
1, 109330, Note_off_c, 0, 43, 69
1, 109347, Note_off_c, 0, 69, 68
1, 109375, Note_on_c, 0, 81, 99
1, 109377, Note_on_c, 0, 72, 97
1, 109397, Note_on_c, 0, 63, 96
1, 109428, Note_off_c, 0, 72, 70
1, 109434, Note_off_c, 0, 63, 66
1, 109452, Note_off_c, 0, 81, 62
1, 109480, Note_on_c, 0, 72, 104
1, 109542, Note_off_c, 0, 72, 0
1, 109556, Note_on_c, 0, 84, 97
1, 109560, Note_on_c, 0, 75, 98
1, 109563, Poly_aftertouch_c, 0, 72, 0
1, 109587, Note_off_c, 0, 75, 71
1, 109602, Note_off_c, 0, 84, 67
1, 109770, Control_c, 0, 64, 90
1, 109784, Control_c, 0, 64, 53
1, 109795, Note_on_c, 0, 98, 99
1, 109799, Control_c, 0, 64, 0
1, 109803, Note_on_c, 0, 31, 83
1, 109804, Note_on_c, 0, 91, 81
1, 109804, Note_on_c, 0, 43, 93
1, 109810, Note_on_c, 0, 93, 82
1, 109858, Control_c, 0, 64, 37
1, 109873, Control_c, 0, 64, 74
1, 109876, Note_off_c, 0, 93, 56
1, 109888, Note_off_c, 0, 31, 62
1, 109888, Control_c, 0, 64, 116
1, 109902, Control_c, 0, 64, 127
1, 109911, Note_off_c, 0, 43, 63
1, 109937, Note_off_c, 0, 91, 61
1, 109968, Note_on_c, 0, 94, 83
1, 110004, Note_off_c, 0, 98, 64
1, 110070, Note_on_c, 0, 38, 82
1, 110074, Note_on_c, 0, 50, 82
1, 110075, Note_on_c, 0, 91, 78
1, 110115, Note_off_c, 0, 94, 64
1, 110117, Note_off_c, 0, 38, 63
1, 110122, Note_off_c, 0, 50, 64
1, 110159, Note_off_c, 0, 91, 65
1, 110173, Note_on_c, 0, 86, 77
1, 110217, Note_off_c, 0, 86, 64
1, 110247, Note_on_c, 0, 94, 82
1, 110255, Poly_aftertouch_c, 0, 86, 0
1, 110263, Note_on_c, 0, 86, 62
1, 110266, Note_on_c, 0, 42, 82
1, 110267, Note_on_c, 0, 54, 87
1, 110313, Note_off_c, 0, 54, 62
1, 110315, Note_off_c, 0, 42, 62
1, 110319, Note_off_c, 0, 86, 64
1, 110336, Note_on_c, 0, 91, 75
1, 110367, Note_off_c, 0, 94, 64
1, 110415, Control_c, 0, 64, 102
1, 110418, Note_on_c, 0, 86, 84
1, 110423, Note_on_c, 0, 57, 87
1, 110424, Note_on_c, 0, 45, 92
1, 110430, Control_c, 0, 64, 70
1, 110439, Note_off_c, 0, 91, 64
1, 110445, Control_c, 0, 64, 0
1, 110475, Control_c, 0, 64, 11
1, 110482, Note_off_c, 0, 57, 62
1, 110489, Control_c, 0, 64, 66
1, 110490, Note_off_c, 0, 86, 67
1, 110491, Note_on_c, 0, 82, 80
1, 110493, Note_off_c, 0, 45, 62
1, 110504, Control_c, 0, 64, 87
1, 110519, Control_c, 0, 64, 127
1, 110525, Note_off_c, 0, 82, 64
1, 110561, Note_on_c, 0, 91, 84
1, 110568, Note_on_c, 0, 82, 69
1, 110569, Note_on_c, 0, 43, 98
1, 110571, Note_on_c, 0, 55, 88
1, 110620, Note_off_c, 0, 55, 66
1, 110621, Note_off_c, 0, 43, 65
1, 110632, Note_on_c, 0, 86, 84
1, 110645, Note_off_c, 0, 82, 62
1, 110660, Poly_aftertouch_c, 0, 44, 127
1, 110694, Poly_aftertouch_c, 0, 44, 0
1, 110695, Note_on_c, 0, 82, 88
1, 110696, Note_on_c, 0, 47, 98
1, 110698, Note_on_c, 0, 57, 98
1, 110709, Note_off_c, 0, 91, 41
1, 110732, Note_off_c, 0, 86, 64
1, 110740, Note_off_c, 0, 47, 69
1, 110740, Note_off_c, 0, 57, 66
1, 110769, Note_on_c, 0, 79, 87
1, 110773, Note_off_c, 0, 82, 66
1, 110806, Note_off_c, 0, 79, 61
1, 110815, Control_c, 0, 64, 81
1, 110825, Note_on_c, 0, 79, 81
1, 110830, Control_c, 0, 64, 0
1, 110832, Note_on_c, 0, 60, 92
1, 110832, Note_on_c, 0, 86, 87
1, 110837, Note_on_c, 0, 48, 86
1, 110839, Note_on_c, 0, 47, 95
1, 110855, Note_on_c, 0, 49, 63
1, 110870, Note_off_c, 0, 47, 68
1, 110881, Control_c, 0, 64, 58
1, 110883, Note_off_c, 0, 60, 67
1, 110885, Note_off_c, 0, 49, 61
1, 110888, Note_off_c, 0, 48, 65
1, 110896, Control_c, 0, 64, 76
1, 110909, Note_on_c, 0, 82, 94
1, 110911, Control_c, 0, 64, 123
1, 110913, Note_off_c, 0, 79, 65
1, 110926, Control_c, 0, 64, 127
1, 110948, Note_off_c, 0, 86, 64
1, 110966, Note_on_c, 0, 46, 96
1, 110969, Note_on_c, 0, 58, 105
1, 110984, Note_on_c, 0, 79, 89
1, 110997, Note_off_c, 0, 82, 64
1, 111005, Note_off_c, 0, 58, 67
1, 111007, Note_off_c, 0, 46, 64
1, 111032, Note_off_c, 0, 79, 67
1, 111044, Note_on_c, 0, 74, 76
1, 111078, Note_off_c, 0, 74, 60
1, 111102, Note_on_c, 0, 49, 94
1, 111104, Note_on_c, 0, 61, 112
1, 111108, Note_on_c, 0, 82, 91
1, 111122, Note_on_c, 0, 74, 66
1, 111137, Note_off_c, 0, 49, 68
1, 111137, Note_off_c, 0, 61, 67
1, 111183, Note_on_c, 0, 79, 83
1, 111195, Note_off_c, 0, 74, 63
1, 111208, Note_off_c, 0, 82, 66
1, 111223, Control_c, 0, 64, 64
1, 111238, Control_c, 0, 64, 0
1, 111257, Note_on_c, 0, 74, 80
1, 111260, Note_on_c, 0, 51, 98
1, 111261, Note_on_c, 0, 63, 107
1, 111300, Note_off_c, 0, 79, 58
1, 111312, Control_c, 0, 64, 56
1, 111327, Control_c, 0, 64, 94
1, 111341, Note_on_c, 0, 70, 84
1, 111342, Control_c, 0, 64, 127
1, 111348, Note_off_c, 0, 74, 66
1, 111371, Note_off_c, 0, 63, 59
1, 111378, Note_off_c, 0, 70, 62
1, 111402, Note_off_c, 0, 51, 58
1, 111427, Note_on_c, 0, 79, 77
1, 111430, Control_c, 0, 64, 105
1, 111433, Note_on_c, 0, 70, 71
1, 111440, Note_on_c, 0, 50, 93
1, 111443, Note_on_c, 0, 62, 105
1, 111445, Control_c, 0, 64, 66
1, 111460, Control_c, 0, 64, 0
1, 111468, Note_on_c, 0, 51, 56
1, 111488, Note_off_c, 0, 62, 65
1, 111489, Control_c, 0, 64, 61
1, 111492, Note_off_c, 0, 51, 67
1, 111502, Note_off_c, 0, 70, 64
1, 111503, Note_on_c, 0, 74, 79
1, 111504, Control_c, 0, 64, 87
1, 111519, Control_c, 0, 64, 127
1, 111524, Note_off_c, 0, 50, 68
1, 111545, Note_off_c, 0, 79, 50
1, 111579, Note_on_c, 0, 70, 88
1, 111634, Note_off_c, 0, 74, 61
1, 111659, Note_on_c, 0, 67, 86
1, 111670, Note_off_c, 0, 70, 64
1, 111715, Note_off_c, 0, 67, 63
1, 111750, Control_c, 0, 64, 114
1, 111760, Note_on_c, 0, 74, 78
1, 111764, Control_c, 0, 64, 74
1, 111770, Note_on_c, 0, 67, 64
1, 111774, Note_on_c, 0, 40, 99
1, 111777, Note_on_c, 0, 28, 94
1, 111779, Control_c, 0, 64, 0
1, 111840, Control_c, 0, 64, 60
1, 111854, Control_c, 0, 64, 80
1, 111869, Control_c, 0, 64, 127
1, 111888, Note_off_c, 0, 28, 60
1, 111890, Note_off_c, 0, 67, 59
1, 111896, Note_off_c, 0, 40, 62
1, 111899, Note_on_c, 0, 70, 71
1, 111952, Note_off_c, 0, 74, 57
1, 111974, Note_on_c, 0, 67, 77
1, 111974, Note_on_c, 0, 31, 95
1, 111976, Note_on_c, 0, 43, 101
1, 112012, Note_off_c, 0, 70, 63
1, 112025, Note_on_c, 0, 32, 28
1, 112037, Note_off_c, 0, 67, 63
1, 112039, Note_off_c, 0, 43, 64
1, 112046, Note_on_c, 0, 62, 77
1, 112046, Note_off_c, 0, 31, 61
1, 112069, Note_off_c, 0, 32, 48
1, 112090, Note_off_c, 0, 62, 57
1, 112117, Note_on_c, 0, 70, 85
1, 112122, Note_on_c, 0, 33, 92
1, 112122, Note_on_c, 0, 45, 97
1, 112133, Note_on_c, 0, 62, 51
1, 112151, Note_on_c, 0, 34, 59
1, 112169, Note_off_c, 0, 45, 67
1, 112172, Note_off_c, 0, 33, 63
1, 112181, Note_off_c, 0, 34, 55
1, 112195, Note_on_c, 0, 67, 77
1, 112210, Note_off_c, 0, 62, 59
1, 112228, Note_off_c, 0, 70, 62
1, 112240, Control_c, 0, 64, 106
1, 112254, Control_c, 0, 64, 71
1, 112266, Note_on_c, 0, 62, 61
1, 112269, Control_c, 0, 64, 0
1, 112274, Note_on_c, 0, 34, 88
1, 112278, Note_on_c, 0, 46, 97
1, 112312, Note_off_c, 0, 67, 60
1, 112347, Note_on_c, 0, 58, 69
1, 112358, Note_off_c, 0, 62, 61
1, 112382, Note_off_c, 0, 58, 66
1, 112424, Control_c, 0, 64, 51
1, 112429, Note_on_c, 0, 67, 73
1, 112431, Note_on_c, 0, 62, 56
1, 112439, Control_c, 0, 64, 69
1, 112454, Control_c, 0, 64, 91
1, 112469, Control_c, 0, 64, 127
1, 112485, Note_off_c, 0, 46, 59
1, 112510, Note_on_c, 0, 64, 75
1, 112516, Note_off_c, 0, 62, 60
1, 112523, Note_off_c, 0, 34, 58
1, 112523, Note_off_c, 0, 67, 59
1, 112581, Note_on_c, 0, 62, 67
1, 112657, Note_on_c, 0, 55, 75
1, 112716, Note_off_c, 0, 62, 49
1, 112734, Note_off_c, 0, 55, 49
1, 112766, Control_c, 0, 64, 84
1, 112781, Control_c, 0, 64, 26
1, 112796, Control_c, 0, 64, 0
1, 112797, Note_on_c, 0, 70, 82
1, 112809, Note_on_c, 0, 28, 66
1, 112812, Note_on_c, 0, 40, 62
1, 112855, Control_c, 0, 64, 61
1, 112870, Control_c, 0, 64, 73
1, 112884, Control_c, 0, 64, 97
1, 112892, Note_off_c, 0, 28, 59
1, 112898, Note_off_c, 0, 40, 61
1, 112899, Control_c, 0, 64, 127
1, 112949, Note_on_c, 0, 67, 62
1, 112970, Note_off_c, 0, 64, 0
1, 112970, Note_on_c, 0, 64, 16
1, 113003, Note_off_c, 0, 70, 55
1, 113004, Note_on_c, 0, 62, 58
1, 113015, Note_on_c, 0, 31, 68
1, 113024, Note_on_c, 0, 43, 58
1, 113050, Note_off_c, 0, 67, 60
1, 113054, Note_off_c, 0, 31, 60
1, 113059, Note_off_c, 0, 43, 64
1, 113059, Note_off_c, 0, 64, 41
1, 113086, Note_on_c, 0, 58, 65
1, 113103, Note_off_c, 0, 62, 59
1, 113116, Note_off_c, 0, 58, 65
1, 113169, Note_on_c, 0, 45, 63
1, 113170, Note_on_c, 0, 33, 60
1, 113177, Note_on_c, 0, 67, 60
1, 113182, Note_on_c, 0, 62, 30
1, 113202, Note_off_c, 0, 45, 65
1, 113207, Note_off_c, 0, 33, 60
1, 113250, Note_off_c, 0, 62, 51
1, 113255, Note_on_c, 0, 64, 61
1, 113306, Note_off_c, 0, 67, 39
1, 113321, Control_c, 0, 64, 95
1, 113335, Control_c, 0, 64, 66
1, 113350, Note_on_c, 0, 62, 55
1, 113350, Control_c, 0, 64, 0
1, 113361, Note_on_c, 0, 34, 57
1, 113364, Note_on_c, 0, 46, 53
1, 113367, Note_off_c, 0, 64, 58
1, 113423, Note_off_c, 0, 62, 62
1, 113441, Note_on_c, 0, 55, 47
1, 113548, Note_on_c, 0, 67, 63
1, 113602, Note_on_c, 0, 62, 34
1, 113647, Control_c, 0, 64, 31
1, 113662, Control_c, 0, 64, 61
1, 113668, Note_off_c, 0, 55, 31
1, 113670, Note_off_c, 0, 62, 47
1, 113677, Control_c, 0, 64, 67
1, 113692, Control_c, 0, 64, 75
1, 113699, Note_on_c, 0, 64, 45
1, 113706, Control_c, 0, 64, 84
1, 113721, Control_c, 0, 64, 95
1, 113736, Control_c, 0, 64, 109
1, 113751, Control_c, 0, 64, 127
1, 113787, Note_on_c, 0, 62, 42
1, 113816, Note_off_c, 0, 46, 32
1, 113828, Note_off_c, 0, 64, 52
1, 113832, Note_off_c, 0, 67, 36
1, 113848, Note_on_c, 0, 55, 36
1, 113867, Note_off_c, 0, 34, 30
1, 113883, Note_off_c, 0, 62, 61
1, 113921, Note_off_c, 0, 55, 52
1, 114084, Control_c, 0, 64, 106
1, 114099, Control_c, 0, 64, 80
1, 114114, Control_c, 0, 64, 49
1, 114121, Note_on_c, 0, 69, 61
1, 114129, Control_c, 0, 64, 0
1, 114141, Note_on_c, 0, 33, 43
1, 114149, Note_on_c, 0, 57, 43
1, 114150, Note_on_c, 0, 55, 44
1, 114158, Note_on_c, 0, 64, 35
1, 114165, Note_on_c, 0, 45, 38
1, 114207, Poly_aftertouch_c, 0, 61, 127
1, 114219, Note_on_c, 0, 61, 6
1, 114228, Note_off_c, 0, 33, 59
1, 114248, Control_c, 0, 64, 49
1, 114263, Control_c, 0, 64, 68
1, 114278, Control_c, 0, 64, 78
1, 114293, Control_c, 0, 64, 92
1, 114307, Control_c, 0, 64, 118
1, 114322, Control_c, 0, 64, 127
1, 114436, Note_on_c, 0, 44, 46
1, 114438, Note_off_c, 0, 45, 42
1, 114472, Note_off_c, 0, 55, 55
1, 114476, Note_off_c, 0, 57, 50
1, 114497, Note_off_c, 0, 44, 59
1, 114509, Note_off_c, 0, 64, 51
1, 114515, Note_off_c, 0, 69, 54
1, 114522, Note_on_c, 0, 45, 54
1, 114552, Note_off_c, 0, 61, 40
1, 114552, Note_off_c, 0, 45, 65
1, 114594, Note_on_c, 0, 47, 55
1, 114656, Note_off_c, 0, 47, 63
1, 114666, Note_on_c, 0, 49, 57
1, 114686, Control_c, 0, 64, 110
1, 114700, Control_c, 0, 64, 79
1, 114715, Control_c, 0, 64, 31
1, 114730, Control_c, 0, 64, 0
1, 114750, Note_off_c, 0, 49, 61
1, 114759, Note_on_c, 0, 69, 64
1, 114771, Note_on_c, 0, 57, 50
1, 114773, Note_on_c, 0, 50, 51
1, 114780, Note_on_c, 0, 65, 46
1, 114804, Control_c, 0, 64, 64
1, 114819, Control_c, 0, 64, 79
1, 114828, Note_off_c, 0, 50, 64
1, 114829, Note_off_c, 0, 65, 53
1, 114834, Control_c, 0, 64, 127
1, 114835, Note_on_c, 0, 62, 3
1, 114859, Note_off_c, 0, 57, 54
1, 114867, Note_on_c, 0, 52, 49
1, 114875, Note_off_c, 0, 69, 63
1, 114886, Note_off_c, 0, 62, 44
1, 114912, Note_off_c, 0, 52, 57
1, 114941, Note_on_c, 0, 53, 57
1, 114996, Note_off_c, 0, 53, 64
1, 114997, Control_c, 0, 64, 101
1, 115012, Control_c, 0, 64, 92
1, 115029, Note_on_c, 0, 52, 49
1, 115032, Note_on_c, 0, 69, 57
1, 115039, Note_on_c, 0, 57, 57
1, 115042, Control_c, 0, 64, 99
1, 115051, Note_off_c, 0, 69, 65
1, 115057, Control_c, 0, 64, 127
1, 115062, Note_off_c, 0, 57, 60
1, 115074, Note_off_c, 0, 52, 57
1, 115104, Note_on_c, 0, 50, 55
1, 115111, Note_on_c, 0, 69, 68
1, 115132, Note_on_c, 0, 57, 43
1, 115141, Note_off_c, 0, 50, 65
1, 115146, Note_on_c, 0, 46, 60
1, 115166, Note_off_c, 0, 57, 54
1, 115171, Note_off_c, 0, 69, 56
1, 115173, Note_off_c, 0, 46, 64
1, 115250, Control_c, 0, 64, 103
1, 115265, Control_c, 0, 64, 74
1, 115279, Control_c, 0, 64, 0
1, 115313, Note_on_c, 0, 69, 62
1, 115329, Note_on_c, 0, 64, 55
1, 115330, Note_on_c, 0, 33, 55
1, 115334, Note_on_c, 0, 57, 44
1, 115337, Note_on_c, 0, 55, 45
1, 115337, Note_on_c, 0, 61, 44
1, 115340, Note_on_c, 0, 45, 51
1, 115388, Note_off_c, 0, 33, 58
1, 115405, Control_c, 0, 64, 40
1, 115420, Control_c, 0, 64, 65
1, 115435, Control_c, 0, 64, 77
1, 115450, Control_c, 0, 64, 96
1, 115465, Control_c, 0, 64, 127
1, 115570, Note_off_c, 0, 45, 56
1, 115584, Note_off_c, 0, 55, 55
1, 115584, Note_on_c, 0, 44, 51
1, 115592, Note_off_c, 0, 57, 49
1, 115629, Note_off_c, 0, 64, 59
1, 115638, Note_off_c, 0, 44, 57
1, 115650, Note_on_c, 0, 45, 53
1, 115684, Note_off_c, 0, 61, 37
1, 115684, Note_off_c, 0, 69, 28
1, 115691, Note_off_c, 0, 45, 64
1, 115722, Note_on_c, 0, 47, 63
1, 115790, Control_c, 0, 64, 109
1, 115791, Note_on_c, 0, 49, 67
1, 115797, Note_off_c, 0, 47, 64
1, 115806, Control_c, 0, 64, 81
1, 115821, Control_c, 0, 64, 59
1, 115835, Control_c, 0, 64, 0
1, 115852, Note_on_c, 0, 69, 75
1, 115863, Note_on_c, 0, 65, 67
1, 115865, Control_c, 0, 64, 64
1, 115868, Note_on_c, 0, 57, 63
1, 115870, Note_off_c, 0, 49, 56
1, 115879, Note_on_c, 0, 62, 56
1, 115880, Control_c, 0, 64, 87
1, 115881, Note_on_c, 0, 50, 64
1, 115895, Control_c, 0, 64, 127
1, 115913, Note_off_c, 0, 57, 60
1, 115925, Note_off_c, 0, 62, 55
1, 115932, Note_off_c, 0, 50, 64
1, 115942, Note_off_c, 0, 69, 63
1, 115951, Note_off_c, 0, 65, 58
1, 115958, Note_on_c, 0, 52, 60
1, 116000, Note_off_c, 0, 52, 57
1, 116019, Note_on_c, 0, 53, 67
1, 116071, Note_off_c, 0, 53, 64
1, 116087, Note_on_c, 0, 52, 70
1, 116102, Control_c, 0, 64, 114
1, 116117, Control_c, 0, 64, 91
1, 116139, Control_c, 0, 64, 83
1, 116153, Control_c, 0, 64, 84
1, 116165, Note_off_c, 0, 52, 56
1, 116168, Control_c, 0, 64, 94
1, 116174, Note_on_c, 0, 71, 78
1, 116183, Note_on_c, 0, 59, 76
1, 116183, Note_on_c, 0, 65, 75
1, 116183, Control_c, 0, 64, 127
1, 116189, Note_on_c, 0, 50, 63
1, 116189, Note_on_c, 0, 67, 65
1, 116224, Note_off_c, 0, 59, 54
1, 116229, Note_off_c, 0, 65, 52
1, 116235, Note_off_c, 0, 50, 65
1, 116252, Note_on_c, 0, 49, 63
1, 116256, Note_off_c, 0, 71, 62
1, 116279, Note_off_c, 0, 49, 66
1, 116317, Control_c, 0, 64, 104
1, 116332, Control_c, 0, 64, 75
1, 116336, Note_off_c, 0, 67, 26
1, 116346, Control_c, 0, 64, 0
1, 116382, Note_on_c, 0, 72, 82
1, 116388, Note_on_c, 0, 70, 70
1, 116389, Note_on_c, 0, 60, 74
1, 116396, Note_on_c, 0, 67, 51
1, 116398, Note_on_c, 0, 64, 68
1, 116401, Note_on_c, 0, 36, 66
1, 116404, Note_on_c, 0, 48, 68
1, 116450, Control_c, 0, 64, 57
1, 116455, Note_off_c, 0, 36, 59
1, 116465, Control_c, 0, 64, 70
1, 116479, Control_c, 0, 64, 89
1, 116494, Control_c, 0, 64, 127
1, 116556, Note_off_c, 0, 60, 58
1, 116561, Note_off_c, 0, 72, 58
1, 116622, Note_off_c, 0, 64, 48
1, 116624, Note_on_c, 0, 47, 55
1, 116631, Note_off_c, 0, 48, 34
1, 116679, Note_off_c, 0, 67, 31
1, 116689, Note_off_c, 0, 47, 63
1, 116690, Note_on_c, 0, 48, 64
1, 116747, Note_off_c, 0, 48, 62
1, 116763, Note_on_c, 0, 50, 74
1, 116821, Note_on_c, 0, 52, 76
1, 116826, Note_off_c, 0, 50, 64
1, 116836, Control_c, 0, 64, 106
1, 116845, Note_off_c, 0, 70, 38
1, 116851, Control_c, 0, 64, 74
1, 116865, Control_c, 0, 64, 0
1, 116908, Note_on_c, 0, 72, 87
1, 116912, Note_on_c, 0, 53, 76
1, 116912, Note_off_c, 0, 52, 62
1, 116914, Note_on_c, 0, 60, 78
1, 116916, Note_on_c, 0, 65, 80
1, 116917, Note_on_c, 0, 68, 78
1, 116917, Control_c, 0, 64, 51
1, 116931, Control_c, 0, 64, 73
1, 116946, Control_c, 0, 64, 113
1, 116952, Note_off_c, 0, 60, 59
1, 116961, Control_c, 0, 64, 127
1, 116982, Note_off_c, 0, 53, 67
1, 116986, Note_off_c, 0, 72, 63
1, 116995, Note_on_c, 0, 55, 70
1, 117002, Note_off_c, 0, 65, 56
1, 117009, Note_off_c, 0, 68, 60
1, 117060, Note_off_c, 0, 55, 59
1, 117068, Note_on_c, 0, 56, 74
1, 117131, Note_off_c, 0, 56, 64
1, 117148, Note_on_c, 0, 72, 82
1, 117152, Note_on_c, 0, 55, 68
1, 117152, Note_on_c, 0, 60, 80
1, 117168, Control_c, 0, 64, 97
1, 117170, Note_off_c, 0, 72, 67
1, 117180, Note_off_c, 0, 60, 67
1, 117183, Control_c, 0, 64, 83
1, 117198, Control_c, 0, 64, 81
1, 117213, Note_on_c, 0, 72, 84
1, 117213, Control_c, 0, 64, 87
1, 117218, Note_off_c, 0, 55, 61
1, 117220, Note_on_c, 0, 53, 75
1, 117226, Note_on_c, 0, 60, 94
1, 117228, Control_c, 0, 64, 104
1, 117242, Control_c, 0, 64, 127
1, 117271, Note_on_c, 0, 49, 83
1, 117274, Note_off_c, 0, 53, 63
1, 117309, Note_off_c, 0, 49, 64
1, 117328, Note_off_c, 0, 72, 60
1, 117329, Note_off_c, 0, 60, 53
1, 117376, Control_c, 0, 64, 117
1, 117391, Control_c, 0, 64, 78
1, 117406, Control_c, 0, 64, 0
1, 117416, Note_on_c, 0, 72, 90
1, 117421, Note_on_c, 0, 70, 81
1, 117424, Note_on_c, 0, 60, 89
1, 117427, Note_on_c, 0, 64, 80
1, 117427, Note_on_c, 0, 67, 76
1, 117429, Note_on_c, 0, 36, 80
1, 117435, Note_on_c, 0, 48, 81
1, 117465, Control_c, 0, 64, 63
1, 117480, Control_c, 0, 64, 80
1, 117492, Note_off_c, 0, 36, 61
1, 117495, Control_c, 0, 64, 127
1, 117563, Note_off_c, 0, 60, 60
1, 117566, Note_off_c, 0, 72, 56
1, 117590, Note_off_c, 0, 48, 59
1, 117642, Note_on_c, 0, 47, 64
1, 117647, Note_off_c, 0, 64, 39
1, 117666, Note_off_c, 0, 67, 47
1, 117671, Note_on_c, 0, 48, 34
1, 117702, Note_off_c, 0, 48, 0
1, 117702, Note_on_c, 0, 48, 46
1, 117718, Note_off_c, 0, 47, 64
1, 117763, Note_off_c, 0, 48, 63
1, 117773, Note_on_c, 0, 50, 81
1, 117827, Note_on_c, 0, 52, 84
1, 117860, Note_off_c, 0, 50, 59
1, 117870, Note_off_c, 0, 70, 37
1, 117873, Control_c, 0, 64, 84
1, 117888, Control_c, 0, 64, 36
1, 117903, Note_on_c, 0, 72, 93
1, 117903, Control_c, 0, 64, 0
1, 117906, Note_on_c, 0, 65, 90
1, 117906, Note_off_c, 0, 52, 62
1, 117907, Note_on_c, 0, 53, 88
1, 117907, Note_on_c, 0, 68, 81
1, 117908, Note_on_c, 0, 60, 89
1, 117933, Control_c, 0, 64, 51
1, 117948, Control_c, 0, 64, 73
1, 117963, Control_c, 0, 64, 121
1, 117978, Note_off_c, 0, 53, 67
1, 117978, Control_c, 0, 64, 127
1, 117984, Note_off_c, 0, 60, 63
1, 117985, Note_on_c, 0, 55, 81
1, 118041, Note_off_c, 0, 72, 58
1, 118042, Note_off_c, 0, 65, 54
1, 118050, Note_on_c, 0, 56, 91
1, 118053, Note_off_c, 0, 55, 62
1, 118098, Note_off_c, 0, 68, 55
1, 118125, Note_on_c, 0, 55, 90
1, 118126, Note_off_c, 0, 56, 65
1, 118170, Control_c, 0, 64, 89
1, 118185, Control_c, 0, 64, 65
1, 118195, Note_off_c, 0, 55, 64
1, 118201, Control_c, 0, 64, 0
1, 118207, Note_on_c, 0, 53, 93
1, 118216, Control_c, 0, 64, 14
1, 118216, Note_on_c, 0, 74, 96
1, 118220, Note_on_c, 0, 68, 89
1, 118221, Note_on_c, 0, 62, 94
1, 118224, Note_on_c, 0, 70, 83
1, 118231, Control_c, 0, 64, 66
1, 118246, Control_c, 0, 64, 85
1, 118257, Note_off_c, 0, 74, 68
1, 118261, Control_c, 0, 64, 127
1, 118268, Note_off_c, 0, 62, 61
1, 118279, Note_on_c, 0, 52, 83
1, 118279, Note_off_c, 0, 70, 54
1, 118284, Note_off_c, 0, 53, 67
1, 118288, Note_off_c, 0, 68, 60
1, 118312, Note_off_c, 0, 52, 63
1, 118431, Control_c, 0, 64, 81
1, 118446, Control_c, 0, 64, 0
1, 118450, Note_on_c, 0, 75, 95
1, 118456, Note_on_c, 0, 63, 103
1, 118457, Note_on_c, 0, 67, 95
1, 118458, Note_on_c, 0, 73, 94
1, 118460, Note_on_c, 0, 70, 86
1, 118467, Note_on_c, 0, 39, 84
1, 118469, Note_on_c, 0, 51, 89
1, 118520, Control_c, 0, 64, 56
1, 118535, Control_c, 0, 64, 74
1, 118549, Control_c, 0, 64, 127
1, 118577, Note_off_c, 0, 51, 55
1, 118588, Note_off_c, 0, 63, 58
1, 118606, Note_off_c, 0, 75, 59
1, 118619, Note_off_c, 0, 39, 54
1, 118656, Note_off_c, 0, 67, 45
1, 118675, Note_on_c, 0, 50, 81
1, 118708, Note_off_c, 0, 70, 55
1, 118737, Note_on_c, 0, 51, 85
1, 118746, Note_off_c, 0, 50, 61
1, 118806, Note_on_c, 0, 53, 92
1, 118825, Note_off_c, 0, 51, 55
1, 118869, Note_on_c, 0, 55, 88
1, 118875, Note_off_c, 0, 53, 64
1, 118878, Note_off_c, 0, 73, 57
1, 118905, Control_c, 0, 64, 78
1, 118920, Control_c, 0, 64, 0
1, 118932, Note_on_c, 0, 75, 93
1, 118935, Note_on_c, 0, 63, 86
1, 118938, Note_on_c, 0, 68, 98
1, 118938, Note_on_c, 0, 71, 88
1, 118942, Note_on_c, 0, 56, 92
1, 118964, Note_off_c, 0, 55, 63
1, 118964, Control_c, 0, 64, 65
1, 118979, Control_c, 0, 64, 87
1, 118985, Note_off_c, 0, 63, 62
1, 118994, Control_c, 0, 64, 127
1, 119003, Note_off_c, 0, 68, 59
1, 119003, Note_off_c, 0, 71, 60
1, 119006, Note_off_c, 0, 75, 64
1, 119013, Note_on_c, 0, 58, 86
1, 119018, Note_off_c, 0, 56, 65
1, 119084, Note_off_c, 0, 58, 65
1, 119087, Note_on_c, 0, 59, 86
1, 119164, Note_on_c, 0, 58, 92
1, 119182, Note_on_c, 0, 75, 89
1, 119188, Note_on_c, 0, 63, 93
1, 119188, Note_off_c, 0, 59, 58
1, 119209, Note_off_c, 0, 75, 60
1, 119214, Note_off_c, 0, 63, 63
1, 119236, Note_on_c, 0, 56, 83
1, 119239, Control_c, 0, 64, 96
1, 119242, Note_off_c, 0, 58, 58
1, 119248, Note_on_c, 0, 75, 86
1, 119254, Note_on_c, 0, 63, 93
1, 119254, Control_c, 0, 64, 79
1, 119268, Control_c, 0, 64, 75
1, 119283, Control_c, 0, 64, 82
1, 119284, Note_on_c, 0, 52, 84
1, 119295, Note_off_c, 0, 56, 66
1, 119298, Control_c, 0, 64, 99
1, 119313, Control_c, 0, 64, 127
1, 119319, Note_on_c, 0, 54, 23
1, 119319, Note_off_c, 0, 52, 63
1, 119360, Note_off_c, 0, 54, 55
1, 119385, Note_off_c, 0, 75, 56
1, 119386, Note_off_c, 0, 63, 57
1, 119417, Control_c, 0, 64, 89
1, 119432, Control_c, 0, 64, 42
1, 119446, Control_c, 0, 64, 0
1, 119450, Note_on_c, 0, 75, 91
1, 119456, Note_on_c, 0, 63, 101
1, 119456, Note_on_c, 0, 73, 94
1, 119456, Note_on_c, 0, 67, 92
1, 119462, Note_on_c, 0, 70, 81
1, 119465, Note_on_c, 0, 51, 93
1, 119468, Note_on_c, 0, 39, 88
1, 119491, Control_c, 0, 64, 70
1, 119505, Control_c, 0, 64, 112
1, 119520, Control_c, 0, 64, 127
1, 119526, Note_on_c, 0, 38, 13
1, 119526, Note_off_c, 0, 51, 55
1, 119540, Note_off_c, 0, 63, 63
1, 119573, Note_off_c, 0, 75, 63
1, 119573, Note_off_c, 0, 39, 55
1, 119583, Note_off_c, 0, 38, 50
1, 119629, Note_off_c, 0, 67, 47
1, 119660, Note_on_c, 0, 50, 81
1, 119719, Note_on_c, 0, 51, 92
1, 119724, Note_off_c, 0, 70, 37
1, 119732, Note_off_c, 0, 50, 61
1, 119796, Note_on_c, 0, 53, 96
1, 119808, Note_off_c, 0, 51, 55
1, 119858, Note_on_c, 0, 55, 98
1, 119871, Note_off_c, 0, 53, 67
1, 119886, Note_off_c, 0, 73, 58
1, 119912, Control_c, 0, 64, 95
1, 119927, Control_c, 0, 64, 61
1, 119942, Control_c, 0, 64, 0
1, 119945, Note_on_c, 0, 56, 92
1, 119948, Note_on_c, 0, 75, 94
1, 119951, Note_on_c, 0, 63, 95
1, 119953, Note_on_c, 0, 71, 89
1, 119954, Note_on_c, 0, 68, 96
1, 119962, Note_off_c, 0, 55, 63
1, 119987, Control_c, 0, 64, 66
1, 119998, Note_off_c, 0, 63, 64
1, 120001, Control_c, 0, 64, 92
1, 120016, Control_c, 0, 64, 127
1, 120026, Note_on_c, 0, 58, 93
1, 120038, Note_off_c, 0, 71, 60
1, 120040, Note_off_c, 0, 68, 58
1, 120047, Note_off_c, 0, 56, 55
1, 120048, Note_off_c, 0, 75, 63
1, 120107, Note_on_c, 0, 59, 98
1, 120121, Note_off_c, 0, 58, 65
1, 120194, Note_on_c, 0, 58, 94
1, 120213, Note_off_c, 0, 59, 65
1, 120281, Note_on_c, 0, 87, 105
1, 120282, Note_on_c, 0, 80, 101
1, 120284, Note_on_c, 0, 75, 100
1, 120288, Note_on_c, 0, 56, 93
1, 120315, Note_off_c, 0, 58, 62
1, 120377, Note_on_c, 0, 51, 92
1, 120386, Note_off_c, 0, 56, 66
1, 120428, Note_off_c, 0, 51, 68
1, 120517, Note_off_c, 0, 80, 54
1, 120520, Note_off_c, 0, 87, 60
1, 120520, Note_off_c, 0, 75, 58
1, 120564, Control_c, 0, 64, 88
1, 120579, Control_c, 0, 64, 0
1, 120582, Note_on_c, 0, 87, 100
1, 120585, Note_on_c, 0, 75, 100
1, 120586, Note_on_c, 0, 80, 101
1, 120590, Note_on_c, 0, 40, 99
1, 120661, Control_c, 0, 64, 72
1, 120675, Control_c, 0, 64, 110
1, 120678, Note_off_c, 0, 40, 64
1, 120690, Control_c, 0, 64, 127
1, 120802, Note_off_c, 0, 75, 61
1, 120848, Note_off_c, 0, 87, 62
1, 120857, Note_off_c, 0, 80, 56
1, 120929, Note_on_c, 0, 47, 83
1, 121017, Note_on_c, 0, 51, 91
1, 121045, Note_off_c, 0, 47, 64
1, 121094, Note_on_c, 0, 56, 88
1, 121127, Note_off_c, 0, 51, 62
1, 121193, Note_on_c, 0, 92, 107
1, 121194, Note_on_c, 0, 99, 105
1, 121194, Note_on_c, 0, 87, 108
1, 121197, Note_on_c, 0, 59, 86
1, 121213, Note_off_c, 0, 56, 65
1, 121272, Note_on_c, 0, 56, 89
1, 121297, Note_off_c, 0, 59, 62
1, 121356, Note_on_c, 0, 51, 87
1, 121378, Note_off_c, 0, 56, 60
1, 121442, Note_on_c, 0, 47, 83
1, 121443, Note_off_c, 0, 51, 68
1, 121507, Note_off_c, 0, 47, 66
1, 121556, Note_on_c, 0, 63, 101
1, 121558, Note_off_c, 0, 99, 61
1, 121566, Note_off_c, 0, 92, 59
1, 121590, Note_off_c, 0, 63, 66
1, 121612, Note_off_c, 0, 87, 60
1, 121781, Control_c, 0, 64, 73
1, 121796, Control_c, 0, 64, 0
1, 121801, Note_on_c, 0, 98, 104
1, 121802, Note_on_c, 0, 86, 102
1, 121803, Note_on_c, 0, 92, 99
1, 121811, Note_on_c, 0, 40, 97
1, 121840, Control_c, 0, 64, 50
1, 121855, Control_c, 0, 64, 76
1, 121870, Control_c, 0, 64, 127
1, 121875, Note_off_c, 0, 40, 65
1, 121876, Note_off_c, 0, 98, 64
1, 121916, Note_off_c, 0, 86, 61
1, 122036, Note_off_c, 0, 92, 64
1, 122059, Note_on_c, 0, 95, 101
1, 122065, Note_on_c, 0, 83, 95
1, 122065, Note_on_c, 0, 86, 92
1, 122161, Note_off_c, 0, 83, 65
1, 122169, Note_off_c, 0, 95, 62
1, 122182, Note_on_c, 0, 47, 88
1, 122208, Note_off_c, 0, 86, 52
1, 122275, Note_on_c, 0, 50, 87
1, 122279, Note_on_c, 0, 94, 100
1, 122281, Note_on_c, 0, 82, 108
1, 122283, Note_on_c, 0, 86, 79
1, 122300, Note_off_c, 0, 47, 63
1, 122357, Note_on_c, 0, 56, 92
1, 122361, Note_off_c, 0, 94, 69
1, 122372, Note_off_c, 0, 50, 65
1, 122384, Note_off_c, 0, 82, 58
1, 122416, Note_off_c, 0, 86, 62
1, 122447, Note_on_c, 0, 92, 105
1, 122449, Note_on_c, 0, 80, 107
1, 122453, Note_on_c, 0, 59, 95
1, 122461, Note_off_c, 0, 56, 65
1, 122497, Note_off_c, 0, 92, 69
1, 122529, Note_on_c, 0, 56, 91
1, 122541, Note_off_c, 0, 59, 60
1, 122543, Note_off_c, 0, 80, 57
1, 122599, Note_on_c, 0, 86, 70
1, 122599, Note_on_c, 0, 90, 92
1, 122600, Note_off_c, 0, 56, 63
1, 122603, Note_on_c, 0, 78, 103
1, 122606, Note_on_c, 0, 50, 84
1, 122649, Note_on_c, 0, 47, 80
1, 122679, Note_off_c, 0, 78, 60
1, 122679, Note_off_c, 0, 90, 65
1, 122685, Note_off_c, 0, 86, 61
1, 122687, Note_off_c, 0, 50, 59
1, 122716, Note_off_c, 0, 47, 65
1, 122753, Note_on_c, 0, 88, 93
1, 122753, Note_on_c, 0, 76, 104
1, 122754, Note_on_c, 0, 89, 92
1, 122756, Note_on_c, 0, 62, 86
1, 122760, Note_on_c, 0, 80, 81
1, 122765, Note_on_c, 0, 77, 65
1, 122771, Note_off_c, 0, 89, 69
1, 122783, Note_off_c, 0, 77, 65
1, 122783, Note_off_c, 0, 80, 65
1, 122791, Note_off_c, 0, 62, 61
1, 122808, Note_off_c, 0, 76, 55
1, 122811, Note_off_c, 0, 88, 59
1, 122952, Control_c, 0, 64, 92
1, 122959, Note_on_c, 0, 87, 105
1, 122966, Note_on_c, 0, 75, 98
1, 122967, Control_c, 0, 64, 46
1, 122970, Note_on_c, 0, 39, 83
1, 122971, Note_on_c, 0, 79, 84
1, 122982, Control_c, 0, 64, 0
1, 123057, Control_c, 0, 64, 64
1, 123071, Control_c, 0, 64, 74
1, 123086, Control_c, 0, 64, 93
1, 123101, Control_c, 0, 64, 127
1, 123168, Note_off_c, 0, 87, 65
1, 123191, Note_off_c, 0, 79, 58
1, 123191, Note_off_c, 0, 39, 55
1, 123197, Note_on_c, 0, 38, 69
1, 123239, Note_off_c, 0, 75, 58
1, 123275, Note_on_c, 0, 39, 65
1, 123286, Note_off_c, 0, 38, 61
1, 123320, Note_on_c, 0, 41, 75
1, 123354, Note_off_c, 0, 39, 58
1, 123376, Note_on_c, 0, 43, 74
1, 123378, Note_off_c, 0, 41, 63
1, 123458, Note_on_c, 0, 44, 82
1, 123458, Note_on_c, 0, 83, 101
1, 123466, Note_on_c, 0, 71, 92
1, 123466, Note_off_c, 0, 43, 63
1, 123471, Control_c, 0, 64, 98
1, 123472, Note_on_c, 0, 75, 85
1, 123486, Control_c, 0, 64, 64
1, 123501, Control_c, 0, 64, 0
1, 123533, Note_on_c, 0, 46, 81
1, 123560, Control_c, 0, 64, 14
1, 123562, Note_off_c, 0, 44, 62
1, 123575, Control_c, 0, 64, 65
1, 123590, Control_c, 0, 64, 78
1, 123592, Note_off_c, 0, 46, 63
1, 123600, Note_on_c, 0, 47, 72
1, 123611, Control_c, 0, 64, 103
1, 123626, Control_c, 0, 64, 127
1, 123669, Note_on_c, 0, 49, 78
1, 123677, Note_off_c, 0, 47, 58
1, 123698, Note_off_c, 0, 83, 59
1, 123716, Note_off_c, 0, 71, 63
1, 123740, Note_on_c, 0, 51, 80
1, 123754, Note_off_c, 0, 75, 61
1, 123775, Note_off_c, 0, 49, 60
1, 123814, Note_on_c, 0, 52, 82
1, 123817, Note_off_c, 0, 51, 64
1, 123879, Note_off_c, 0, 52, 54
1, 123931, Note_on_c, 0, 82, 101
1, 123938, Note_on_c, 0, 73, 89
1, 123940, Note_on_c, 0, 70, 88
1, 123944, Note_on_c, 0, 39, 77
1, 123953, Control_c, 0, 64, 81
1, 123967, Control_c, 0, 64, 0
1, 123972, Note_on_c, 0, 76, 23
1, 124041, Control_c, 0, 64, 61
1, 124056, Control_c, 0, 64, 74
1, 124071, Control_c, 0, 64, 94
1, 124086, Control_c, 0, 64, 127
1, 124126, Note_off_c, 0, 39, 59
1, 124138, Note_on_c, 0, 38, 68
1, 124149, Note_off_c, 0, 82, 62
1, 124156, Note_off_c, 0, 76, 19
1, 124205, Note_on_c, 0, 39, 74
1, 124205, Note_off_c, 0, 70, 62
1, 124213, Note_off_c, 0, 38, 62
1, 124219, Note_off_c, 0, 73, 61
1, 124267, Note_on_c, 0, 41, 80
1, 124288, Note_off_c, 0, 39, 56
1, 124331, Note_off_c, 0, 41, 63
1, 124333, Note_on_c, 0, 43, 72
1, 124390, Control_c, 0, 64, 118
1, 124402, Note_on_c, 0, 80, 94
1, 124405, Control_c, 0, 64, 80
1, 124408, Note_on_c, 0, 71, 87
1, 124411, Note_on_c, 0, 44, 79
1, 124411, Note_on_c, 0, 68, 82
1, 124417, Note_off_c, 0, 43, 64
1, 124419, Control_c, 0, 64, 11
1, 124434, Control_c, 0, 64, 0
1, 124479, Control_c, 0, 64, 56
1, 124487, Note_on_c, 0, 46, 76
1, 124494, Control_c, 0, 64, 72
1, 124506, Note_off_c, 0, 44, 60
1, 124509, Control_c, 0, 64, 90
1, 124524, Control_c, 0, 64, 127
1, 124542, Note_off_c, 0, 46, 63
1, 124551, Note_on_c, 0, 47, 67
1, 124614, Note_on_c, 0, 49, 77
1, 124619, Note_off_c, 0, 47, 62
1, 124638, Poly_aftertouch_c, 0, 74, 127
1, 124682, Note_off_c, 0, 80, 61
1, 124689, Note_on_c, 0, 51, 76
1, 124701, Note_off_c, 0, 68, 60
1, 124718, Note_off_c, 0, 49, 51
1, 124733, Note_off_c, 0, 71, 56
1, 124755, Note_off_c, 0, 51, 64
1, 124761, Note_on_c, 0, 52, 80
1, 124846, Note_off_c, 0, 52, 55
1, 124871, Note_on_c, 0, 78, 91
1, 124880, Control_c, 0, 64, 89
1, 124887, Note_on_c, 0, 66, 79
1, 124892, Note_on_c, 0, 70, 77
1, 124892, Poly_aftertouch_c, 0, 74, 0
1, 124895, Control_c, 0, 64, 65
1, 124896, Note_on_c, 0, 39, 69
1, 124909, Control_c, 0, 64, 0
1, 124929, Poly_aftertouch_c, 0, 74, 127
1, 124998, Control_c, 0, 64, 44
1, 125013, Control_c, 0, 64, 69
1, 125028, Control_c, 0, 64, 84
1, 125042, Control_c, 0, 64, 127
1, 125060, Note_off_c, 0, 39, 58
1, 125072, Note_on_c, 0, 38, 62
1, 125144, Note_on_c, 0, 39, 63
1, 125151, Note_off_c, 0, 38, 61
1, 125183, Note_off_c, 0, 66, 57
1, 125206, Note_on_c, 0, 41, 74
1, 125215, Note_off_c, 0, 39, 56
1, 125227, Note_off_c, 0, 78, 59
1, 125256, Note_off_c, 0, 70, 48
1, 125263, Note_off_c, 0, 41, 61
1, 125275, Note_on_c, 0, 43, 65
1, 125354, Note_off_c, 0, 43, 63
1, 125355, Note_on_c, 0, 44, 65
1, 125355, Note_on_c, 0, 80, 92
1, 125361, Poly_aftertouch_c, 0, 74, 0
1, 125361, Control_c, 0, 64, 114
1, 125364, Note_on_c, 0, 68, 80
1, 125367, Note_on_c, 0, 71, 73
1, 125376, Control_c, 0, 64, 81
1, 125392, Control_c, 0, 64, 0
1, 125400, Poly_aftertouch_c, 0, 74, 127
1, 125419, Note_on_c, 0, 46, 72
1, 125445, Note_off_c, 0, 44, 60
1, 125468, Note_off_c, 0, 46, 61
1, 125481, Control_c, 0, 64, 56
1, 125496, Control_c, 0, 64, 70
1, 125496, Note_on_c, 0, 47, 55
1, 125510, Control_c, 0, 64, 86
1, 125525, Control_c, 0, 64, 127
1, 125536, Note_off_c, 0, 80, 64
1, 125558, Note_on_c, 0, 49, 68
1, 125562, Note_off_c, 0, 47, 64
1, 125567, Poly_aftertouch_c, 0, 74, 0
1, 125572, Note_off_c, 0, 71, 62
1, 125584, Note_off_c, 0, 68, 62
1, 125633, Note_on_c, 0, 51, 64
1, 125642, Note_off_c, 0, 49, 52
1, 125692, Note_off_c, 0, 51, 62
1, 125707, Note_on_c, 0, 52, 72
1, 125759, Note_off_c, 0, 52, 58
1, 125817, Note_on_c, 0, 73, 88
1, 125821, Control_c, 0, 64, 111
1, 125830, Note_on_c, 0, 61, 72
1, 125833, Note_on_c, 0, 70, 67
1, 125836, Control_c, 0, 64, 82
1, 125842, Note_on_c, 0, 39, 61
1, 125851, Control_c, 0, 64, 58
1, 125873, Control_c, 0, 64, 0
1, 125962, Control_c, 0, 64, 65
1, 125977, Control_c, 0, 64, 78
1, 125992, Control_c, 0, 64, 102
1, 126007, Control_c, 0, 64, 127
1, 126009, Note_off_c, 0, 39, 58
1, 126017, Note_on_c, 0, 38, 63
1, 126024, Note_off_c, 0, 61, 59
1, 126092, Note_on_c, 0, 39, 58
1, 126095, Note_off_c, 0, 38, 61
1, 126147, Note_on_c, 0, 41, 68
1, 126151, Note_off_c, 0, 39, 56
1, 126189, Note_off_c, 0, 41, 64
1, 126213, Note_off_c, 0, 70, 54
1, 126220, Note_on_c, 0, 43, 57
1, 126283, Note_off_c, 0, 43, 57
1, 126289, Control_c, 0, 64, 101
1, 126289, Note_on_c, 0, 44, 64
1, 126292, Note_on_c, 0, 76, 86
1, 126303, Control_c, 0, 64, 76
1, 126305, Note_off_c, 0, 73, 60
1, 126309, Note_on_c, 0, 68, 62
1, 126311, Note_on_c, 0, 64, 64
1, 126318, Control_c, 0, 64, 34
1, 126333, Control_c, 0, 64, 0
1, 126369, Note_on_c, 0, 46, 62
1, 126381, Note_off_c, 0, 44, 60
1, 126402, Note_off_c, 0, 46, 62
1, 126423, Control_c, 0, 67, 8
1, 126427, Note_on_c, 0, 47, 54
1, 126437, Control_c, 0, 64, 61
1, 126437, Control_c, 0, 67, 9
1, 126452, Control_c, 0, 64, 71
1, 126452, Control_c, 0, 67, 10
1, 126467, Control_c, 0, 64, 83
1, 126467, Control_c, 0, 67, 12
1, 126481, Control_c, 0, 64, 105
1, 126481, Control_c, 0, 67, 14
1, 126488, Note_off_c, 0, 47, 55
1, 126496, Control_c, 0, 64, 127
1, 126496, Control_c, 0, 67, 18
1, 126497, Note_on_c, 0, 49, 60
1, 126511, Control_c, 0, 67, 23
1, 126515, Note_off_c, 0, 76, 62
1, 126526, Control_c, 0, 67, 27
1, 126528, Note_off_c, 0, 64, 64
1, 126541, Control_c, 0, 67, 31
1, 126555, Control_c, 0, 67, 35
1, 126557, Note_off_c, 0, 49, 57
1, 126569, Note_off_c, 0, 68, 56
1, 126570, Control_c, 0, 67, 39
1, 126575, Note_on_c, 0, 51, 58
1, 126585, Control_c, 0, 67, 45
1, 126607, Control_c, 0, 67, 50
1, 126622, Control_c, 0, 67, 55
1, 126625, Note_off_c, 0, 51, 62
1, 126637, Control_c, 0, 67, 59
1, 126652, Control_c, 0, 67, 64
1, 126652, Note_on_c, 0, 52, 58
1, 126667, Control_c, 0, 67, 68
1, 126681, Control_c, 0, 67, 72
1, 126696, Control_c, 0, 67, 76
1, 126697, Note_off_c, 0, 52, 60
1, 126711, Control_c, 0, 67, 79
1, 126726, Control_c, 0, 67, 81
1, 126741, Control_c, 0, 67, 84
1, 126755, Control_c, 0, 67, 85
1, 126770, Control_c, 0, 67, 87
1, 126785, Control_c, 0, 67, 88
1, 126800, Control_c, 0, 67, 89
1, 126801, Note_on_c, 0, 75, 73
1, 126813, Note_on_c, 0, 63, 57
1, 126813, Note_on_c, 0, 67, 60
1, 126814, Control_c, 0, 64, 91
1, 126814, Control_c, 0, 67, 90
1, 126821, Note_on_c, 0, 39, 55
1, 126829, Control_c, 0, 64, 73
1, 126829, Control_c, 0, 67, 91
1, 126844, Control_c, 0, 64, 42
1, 126844, Control_c, 0, 67, 92
1, 126859, Control_c, 0, 64, 0
1, 126859, Control_c, 0, 67, 93
1, 126874, Control_c, 0, 67, 93
1, 126888, Control_c, 0, 67, 94
1, 126903, Control_c, 0, 67, 94
1, 126918, Control_c, 0, 67, 95
1, 126933, Control_c, 0, 67, 95
1, 126948, Control_c, 0, 64, 54
1, 126948, Control_c, 0, 67, 96
1, 126962, Control_c, 0, 64, 69
1, 126974, Note_off_c, 0, 39, 59
1, 126977, Control_c, 0, 64, 81
1, 126993, Control_c, 0, 64, 102
1, 127008, Control_c, 0, 64, 127
1, 127008, Control_c, 0, 67, 96
1, 127009, Note_on_c, 0, 38, 51
1, 127019, Note_off_c, 0, 75, 63
1, 127023, Control_c, 0, 67, 97
1, 127037, Control_c, 0, 67, 97
1, 127052, Control_c, 0, 67, 98
1, 127067, Control_c, 0, 67, 99
1, 127076, Note_off_c, 0, 38, 60
1, 127082, Control_c, 0, 67, 100
1, 127094, Note_on_c, 0, 39, 49
1, 127097, Control_c, 0, 67, 101
1, 127111, Control_c, 0, 67, 102
1, 127126, Note_off_c, 0, 39, 59
1, 127126, Control_c, 0, 67, 103
1, 127128, Note_off_c, 0, 63, 34
1, 127133, Note_on_c, 0, 41, 60
1, 127141, Control_c, 0, 67, 104
1, 127144, Note_off_c, 0, 67, 38
1, 127156, Control_c, 0, 67, 105
1, 127165, Note_off_c, 0, 41, 63
1, 127171, Control_c, 0, 67, 106
1, 127186, Control_c, 0, 67, 106
1, 127201, Control_c, 0, 67, 107
1, 127208, Note_on_c, 0, 43, 50
1, 127216, Control_c, 0, 67, 108
1, 127230, Control_c, 0, 67, 109
1, 127245, Control_c, 0, 67, 110
1, 127260, Control_c, 0, 67, 111
1, 127264, Note_off_c, 0, 43, 62
1, 127269, Note_on_c, 0, 44, 63
1, 127275, Control_c, 0, 67, 112
1, 127283, Note_on_c, 0, 71, 71
1, 127290, Control_c, 0, 64, 104
1, 127290, Control_c, 0, 67, 113
1, 127297, Note_on_c, 0, 63, 64
1, 127304, Control_c, 0, 64, 82
1, 127304, Control_c, 0, 67, 114
1, 127309, Note_on_c, 0, 68, 55
1, 127319, Control_c, 0, 64, 65
1, 127319, Control_c, 0, 67, 116
1, 127334, Control_c, 0, 64, 0
1, 127334, Control_c, 0, 67, 118
1, 127345, Note_off_c, 0, 44, 61
1, 127349, Control_c, 0, 67, 119
1, 127363, Note_on_c, 0, 46, 55
1, 127371, Control_c, 0, 67, 121
1, 127385, Control_c, 0, 67, 123
1, 127392, Note_off_c, 0, 46, 63
1, 127400, Control_c, 0, 67, 124
1, 127415, Control_c, 0, 67, 126
1, 127424, Note_on_c, 0, 47, 46
1, 127430, Control_c, 0, 67, 126
1, 127445, Control_c, 0, 64, 49
1, 127445, Control_c, 0, 67, 127
1, 127460, Control_c, 0, 64, 66
1, 127475, Control_c, 0, 64, 75
1, 127481, Note_off_c, 0, 47, 59
1, 127490, Note_on_c, 0, 49, 59
1, 127490, Control_c, 0, 64, 90
1, 127504, Control_c, 0, 64, 113
1, 127519, Control_c, 0, 64, 127
1, 127555, Note_off_c, 0, 49, 55
1, 127567, Note_off_c, 0, 63, 56
1, 127576, Note_on_c, 0, 51, 50
1, 127600, Note_off_c, 0, 71, 57
1, 127609, Note_off_c, 0, 51, 64
1, 127638, Note_on_c, 0, 52, 57
1, 127678, Note_off_c, 0, 52, 60
1, 127705, Note_off_c, 0, 68, 59
1, 127785, Note_on_c, 0, 70, 69
1, 127800, Note_on_c, 0, 39, 46
1, 127802, Control_c, 0, 64, 97
1, 127804, Note_on_c, 0, 61, 56
1, 127816, Control_c, 0, 64, 76
1, 127831, Control_c, 0, 64, 54
1, 127846, Control_c, 0, 64, 0
1, 127934, Control_c, 0, 64, 54
1, 127949, Control_c, 0, 64, 71
1, 127964, Control_c, 0, 64, 85
1, 127973, Note_off_c, 0, 39, 51
1, 127979, Control_c, 0, 64, 108
1, 127994, Note_on_c, 0, 38, 46
1, 127994, Control_c, 0, 64, 127
1, 128047, Note_off_c, 0, 38, 60
1, 128069, Note_off_c, 0, 61, 60
1, 128079, Note_on_c, 0, 39, 44
1, 128114, Note_on_c, 0, 41, 60
1, 128121, Note_off_c, 0, 39, 51
1, 128129, Note_off_c, 0, 70, 39
1, 128149, Note_off_c, 0, 41, 62
1, 128193, Note_on_c, 0, 43, 49
1, 128260, Note_off_c, 0, 43, 57
1, 128265, Note_on_c, 0, 68, 70
1, 128268, Control_c, 0, 64, 111
1, 128271, Note_on_c, 0, 44, 54
1, 128283, Control_c, 0, 64, 85
1, 128286, Note_on_c, 0, 59, 51
1, 128298, Control_c, 0, 64, 66
1, 128301, Note_on_c, 0, 63, 47
1, 128313, Control_c, 0, 64, 0
1, 128336, Note_off_c, 0, 44, 53
1, 128348, Note_on_c, 0, 46, 44
1, 128379, Note_off_c, 0, 46, 58
1, 128419, Note_on_c, 0, 47, 36
1, 128431, Control_c, 0, 64, 63
1, 128446, Control_c, 0, 64, 72
1, 128460, Control_c, 0, 64, 84
1, 128465, Note_off_c, 0, 47, 47
1, 128475, Control_c, 0, 64, 106
1, 128485, Note_on_c, 0, 49, 57
1, 128490, Control_c, 0, 64, 127
1, 128498, Note_off_c, 0, 59, 59
1, 128535, Note_off_c, 0, 49, 58
1, 128550, Note_off_c, 0, 68, 58
1, 128563, Note_off_c, 0, 63, 58
1, 128566, Note_on_c, 0, 51, 45
1, 128599, Note_off_c, 0, 51, 63
1, 128631, Note_on_c, 0, 52, 47
1, 128663, Note_off_c, 0, 52, 56
1, 128770, Note_on_c, 0, 66, 66
1, 128772, Control_c, 0, 64, 103
1, 128787, Control_c, 0, 64, 82
1, 128791, Note_on_c, 0, 58, 46
1, 128794, Note_on_c, 0, 39, 44
1, 128801, Control_c, 0, 64, 65
1, 128814, Note_on_c, 0, 61, 47
1, 128816, Control_c, 0, 64, 0
1, 128943, Control_c, 0, 64, 47
1, 128957, Control_c, 0, 64, 66
1, 128959, Note_off_c, 0, 39, 54
1, 128972, Control_c, 0, 64, 77
1, 128987, Control_c, 0, 64, 91
1, 128989, Note_on_c, 0, 38, 49
1, 129002, Control_c, 0, 64, 127
1, 129048, Note_off_c, 0, 38, 59
1, 129087, Note_on_c, 0, 39, 34
1, 129097, Note_off_c, 0, 58, 37
1, 129114, Note_on_c, 0, 41, 50
1, 129126, Note_off_c, 0, 39, 50
1, 129146, Note_off_c, 0, 41, 62
1, 129158, Note_off_c, 0, 61, 47
1, 129181, Note_off_c, 0, 66, 58
1, 129183, Note_on_c, 0, 43, 48
1, 129239, Control_c, 0, 64, 121
1, 129247, Note_off_c, 0, 43, 56
1, 129254, Control_c, 0, 64, 92
1, 129263, Note_on_c, 0, 44, 48
1, 129269, Control_c, 0, 64, 74
1, 129272, Note_on_c, 0, 68, 57
1, 129283, Control_c, 0, 64, 17
1, 129285, Note_on_c, 0, 59, 44
1, 129293, Note_on_c, 0, 63, 48
1, 129298, Control_c, 0, 64, 0
1, 129332, Note_off_c, 0, 44, 56
1, 129336, Note_on_c, 0, 46, 49
1, 129368, Note_off_c, 0, 46, 62
1, 129418, Note_on_c, 0, 47, 32
1, 129447, Control_c, 0, 64, 61
1, 129460, Note_off_c, 0, 47, 53
1, 129462, Control_c, 0, 64, 71
1, 129477, Control_c, 0, 64, 86
1, 129478, Note_on_c, 0, 49, 50
1, 129492, Control_c, 0, 64, 111
1, 129506, Control_c, 0, 64, 127
1, 129531, Note_off_c, 0, 49, 56
1, 129552, Note_on_c, 0, 51, 49
1, 129556, Note_off_c, 0, 68, 56
1, 129576, Note_off_c, 0, 63, 54
1, 129584, Note_off_c, 0, 51, 63
1, 129630, Note_on_c, 0, 52, 50
1, 129636, Note_off_c, 0, 59, 55
1, 129670, Note_off_c, 0, 52, 62
1, 129777, Note_on_c, 0, 61, 56
1, 129789, Note_on_c, 0, 39, 46
1, 129791, Note_on_c, 0, 58, 46
1, 129795, Control_c, 0, 64, 94
1, 129810, Control_c, 0, 64, 76
1, 129825, Control_c, 0, 64, 56
1, 129839, Control_c, 0, 64, 0
1, 129958, Control_c, 0, 64, 52
1, 129973, Control_c, 0, 64, 66
1, 129988, Control_c, 0, 64, 76
1, 129994, Note_off_c, 0, 39, 51
1, 130003, Control_c, 0, 64, 88
1, 130018, Control_c, 0, 64, 110
1, 130025, Note_on_c, 0, 38, 42
1, 130032, Control_c, 0, 64, 127
1, 130053, Note_off_c, 0, 58, 37
1, 130090, Note_off_c, 0, 38, 57
1, 130119, Note_on_c, 0, 39, 33
1, 130131, Note_off_c, 0, 61, 61
1, 130154, Note_on_c, 0, 41, 49
1, 130156, Note_off_c, 0, 39, 50
1, 130192, Note_off_c, 0, 41, 62
1, 130231, Note_on_c, 0, 43, 43
1, 130285, Control_c, 0, 64, 103
1, 130289, Note_off_c, 0, 43, 57
1, 130300, Control_c, 0, 64, 82
1, 130303, Note_on_c, 0, 64, 50
1, 130312, Note_on_c, 0, 44, 45
1, 130312, Note_on_c, 0, 59, 45
1, 130315, Control_c, 0, 64, 64
1, 130323, Note_on_c, 0, 56, 35
1, 130329, Control_c, 0, 64, 0
1, 130384, Note_off_c, 0, 44, 55
1, 130393, Note_on_c, 0, 46, 50
1, 130434, Note_off_c, 0, 46, 60
1, 130480, Note_on_c, 0, 47, 36
1, 130515, Control_c, 0, 64, 55
1, 130529, Control_c, 0, 64, 67
1, 130537, Note_off_c, 0, 47, 54
1, 130544, Control_c, 0, 64, 74
1, 130547, Note_on_c, 0, 49, 54
1, 130559, Control_c, 0, 64, 83
1, 130574, Control_c, 0, 64, 93
1, 130589, Control_c, 0, 64, 104
1, 130603, Control_c, 0, 64, 124
1, 130611, Note_off_c, 0, 49, 55
1, 130618, Control_c, 0, 64, 127
1, 130623, Note_off_c, 0, 59, 37
1, 130648, Note_on_c, 0, 51, 35
1, 130685, Note_off_c, 0, 51, 52
1, 130703, Note_off_c, 0, 56, 41
1, 130706, Note_on_c, 0, 52, 48
1, 130751, Note_off_c, 0, 52, 61
1, 130768, Note_off_c, 0, 64, 37
1, 130900, Control_c, 0, 64, 119
1, 130915, Control_c, 0, 64, 95
1, 130920, Note_on_c, 0, 63, 51
1, 130929, Control_c, 0, 64, 80
1, 130935, Note_on_c, 0, 55, 37
1, 130942, Note_on_c, 0, 39, 37
1, 130942, Note_on_c, 0, 58, 35
1, 130944, Control_c, 0, 64, 67
1, 130959, Control_c, 0, 64, 0
1, 131078, Control_c, 0, 64, 61
1, 131101, Control_c, 0, 64, 73
1, 131116, Control_c, 0, 64, 87
1, 131131, Control_c, 0, 64, 114
1, 131146, Note_off_c, 0, 55, 35
1, 131146, Control_c, 0, 64, 127
1, 131154, Note_off_c, 0, 58, 59
1, 131180, Note_off_c, 0, 39, 38
1, 131267, Note_off_c, 0, 63, 60
1, 131346, Note_on_c, 0, 62, 48
1, 131427, Control_c, 0, 67, 122
1, 131428, Note_on_c, 0, 63, 56
1, 131431, Note_off_c, 0, 62, 60
1, 131442, Control_c, 0, 67, 115
1, 131457, Control_c, 0, 67, 106
1, 131471, Control_c, 0, 67, 95
1, 131486, Control_c, 0, 67, 83
1, 131491, Note_off_c, 0, 63, 62
1, 131499, Note_on_c, 0, 56, 45
1, 131501, Control_c, 0, 67, 73
1, 131515, Note_on_c, 0, 59, 40
1, 131516, Control_c, 0, 67, 62
1, 131524, Note_on_c, 0, 64, 57
1, 131531, Control_c, 0, 67, 51
1, 131546, Control_c, 0, 64, 105
1, 131546, Control_c, 0, 67, 39
1, 131560, Control_c, 0, 64, 86
1, 131560, Control_c, 0, 67, 27
1, 131575, Control_c, 0, 64, 69
1, 131575, Control_c, 0, 67, 14
1, 131590, Control_c, 0, 64, 14
1, 131590, Control_c, 0, 67, 0
1, 131598, Note_on_c, 0, 66, 63
1, 131604, Control_c, 0, 64, 0
1, 131627, Note_off_c, 0, 64, 57
1, 131678, Note_on_c, 0, 68, 58
1, 131700, Note_off_c, 0, 66, 57
1, 131747, Note_off_c, 0, 68, 62
1, 131756, Note_on_c, 0, 70, 60
1, 131838, Note_on_c, 0, 71, 63
1, 131866, Note_off_c, 0, 70, 61
1, 131903, Note_off_c, 0, 71, 62
1, 131920, Note_on_c, 0, 64, 48
1, 132015, Note_off_c, 0, 64, 54
1, 132024, Note_on_c, 0, 63, 49
1, 132048, Note_on_c, 0, 55, 40
1, 132057, Note_off_c, 0, 59, 41
1, 132058, Note_on_c, 0, 58, 37
1, 132060, Note_off_c, 0, 56, 51
1, 132205, Control_c, 0, 64, 23
1, 132219, Control_c, 0, 64, 62
1, 132234, Control_c, 0, 64, 72
1, 132249, Control_c, 0, 64, 82
1, 132264, Control_c, 0, 64, 96
1, 132279, Control_c, 0, 64, 127
1, 132387, Note_off_c, 0, 63, 59
1, 132408, Note_on_c, 0, 62, 51
1, 132456, Control_c, 0, 64, 98
1, 132471, Control_c, 0, 64, 84
1, 132486, Control_c, 0, 64, 71
1, 132492, Note_off_c, 0, 62, 59
1, 132495, Note_on_c, 0, 63, 60
1, 132501, Control_c, 0, 64, 48
1, 132516, Control_c, 0, 64, 0
1, 132516, Control_c, 0, 67, 8
1, 132525, Note_off_c, 0, 58, 57
1, 132531, Control_c, 0, 67, 9
1, 132539, Note_off_c, 0, 55, 46
1, 132545, Control_c, 0, 67, 11
1, 132550, Note_on_c, 0, 56, 44
1, 132550, Note_off_c, 0, 63, 63
1, 132552, Note_on_c, 0, 59, 32
1, 132560, Control_c, 0, 67, 13
1, 132576, Control_c, 0, 67, 17
1, 132578, Note_on_c, 0, 64, 61
1, 132590, Control_c, 0, 67, 20
1, 132612, Control_c, 0, 67, 22
1, 132627, Control_c, 0, 67, 24
1, 132642, Control_c, 0, 67, 27
1, 132656, Control_c, 0, 67, 31
1, 132665, Note_on_c, 0, 66, 62
1, 132671, Control_c, 0, 67, 34
1, 132686, Control_c, 0, 67, 38
1, 132700, Note_off_c, 0, 64, 56
1, 132701, Control_c, 0, 67, 41
1, 132716, Control_c, 0, 67, 44
1, 132730, Control_c, 0, 67, 47
1, 132745, Control_c, 0, 67, 51
1, 132747, Note_on_c, 0, 68, 58
1, 132760, Control_c, 0, 67, 55
1, 132765, Note_off_c, 0, 66, 54
1, 132775, Control_c, 0, 67, 58
1, 132790, Control_c, 0, 67, 62
1, 132805, Control_c, 0, 67, 66
1, 132820, Control_c, 0, 67, 71
1, 132821, Note_off_c, 0, 68, 62
1, 132832, Note_on_c, 0, 70, 60
1, 132835, Control_c, 0, 67, 74
1, 132849, Control_c, 0, 67, 78
1, 132864, Control_c, 0, 67, 82
1, 132879, Control_c, 0, 67, 88
1, 132894, Control_c, 0, 67, 92
1, 132909, Control_c, 0, 67, 96
1, 132921, Note_on_c, 0, 71, 61
1, 132923, Control_c, 0, 67, 101
1, 132931, Note_off_c, 0, 70, 55
1, 132938, Control_c, 0, 67, 105
1, 132953, Control_c, 0, 67, 110
1, 132968, Control_c, 0, 67, 114
1, 132982, Control_c, 0, 67, 120
1, 132984, Note_off_c, 0, 71, 63
1, 132997, Control_c, 0, 67, 125
1, 133003, Note_on_c, 0, 64, 44
1, 133012, Control_c, 0, 67, 127
1, 133115, Note_off_c, 0, 64, 52
1, 133123, Note_on_c, 0, 63, 48
1, 133127, Note_on_c, 0, 55, 33
1, 133139, Note_on_c, 0, 58, 32
1, 133155, Note_off_c, 0, 59, 36
1, 133159, Note_off_c, 0, 56, 38
1, 133264, Control_c, 0, 64, 30
1, 133279, Control_c, 0, 64, 64
1, 133294, Control_c, 0, 64, 71
1, 133309, Control_c, 0, 64, 78
1, 133323, Control_c, 0, 64, 87
1, 133345, Control_c, 0, 64, 99
1, 133360, Control_c, 0, 64, 127
1, 133475, Note_off_c, 0, 58, 43
1, 133478, Note_off_c, 0, 55, 41
1, 133540, Note_on_c, 0, 61, 47
1, 133561, Note_off_c, 0, 63, 37
1, 133612, Note_off_c, 0, 61, 57
1, 133620, Note_on_c, 0, 62, 50
1, 133672, Control_c, 0, 64, 116
1, 133679, Note_off_c, 0, 62, 62
1, 133687, Control_c, 0, 64, 95
1, 133702, Control_c, 0, 64, 78
1, 133717, Control_c, 0, 64, 64
1, 133720, Note_on_c, 0, 57, 30
1, 133722, Note_on_c, 0, 54, 33
1, 133723, Note_on_c, 0, 64, 53
1, 133732, Control_c, 0, 64, 0
1, 133816, Note_on_c, 0, 66, 51
1, 133840, Note_off_c, 0, 64, 47
1, 133896, Note_on_c, 0, 67, 55
1, 133898, Note_off_c, 0, 66, 56
1, 133990, Note_off_c, 0, 67, 57
1, 134000, Note_on_c, 0, 68, 54
1, 134113, Note_on_c, 0, 69, 46
1, 134152, Note_off_c, 0, 68, 46
1, 134182, Note_off_c, 0, 69, 57
1, 134198, Note_on_c, 0, 62, 41
1, 134339, Note_off_c, 0, 62, 57
1, 134346, Note_on_c, 0, 61, 46
1, 134372, Note_on_c, 0, 53, 24
1, 134381, Note_on_c, 0, 56, 30
1, 134387, Note_off_c, 0, 57, 36
1, 134416, Note_off_c, 0, 54, 46
1, 134510, Control_c, 0, 64, 59
1, 134525, Control_c, 0, 64, 66
1, 134540, Control_c, 0, 64, 72
1, 134555, Control_c, 0, 64, 79
1, 134569, Control_c, 0, 64, 89
1, 134584, Control_c, 0, 64, 102
1, 134599, Control_c, 0, 64, 127
1, 134757, Note_off_c, 0, 56, 44
1, 134775, Note_off_c, 0, 53, 44
1, 134817, Note_on_c, 0, 59, 38
1, 134825, Note_off_c, 0, 61, 36
1, 134924, Note_on_c, 0, 60, 51
1, 134927, Note_off_c, 0, 59, 55
1, 134978, Control_c, 0, 64, 105
1, 134992, Control_c, 0, 64, 87
1, 135000, Note_off_c, 0, 60, 65
1, 135007, Control_c, 0, 64, 75
1, 135022, Control_c, 0, 64, 64
1, 135037, Control_c, 0, 64, 26
1, 135040, Note_on_c, 0, 62, 49
1, 135051, Control_c, 0, 64, 0
1, 135053, Note_on_c, 0, 55, 26
1, 135063, Note_on_c, 0, 52, 34
1, 135143, Note_off_c, 0, 62, 56
1, 135160, Note_on_c, 0, 64, 54
1, 135214, Control_c, 0, 64, 53
1, 135229, Control_c, 0, 64, 67
1, 135230, Note_off_c, 0, 52, 55
1, 135243, Control_c, 0, 64, 74
1, 135258, Note_off_c, 0, 64, 61
1, 135258, Control_c, 0, 64, 83
1, 135273, Note_on_c, 0, 65, 53
1, 135273, Control_c, 0, 64, 95
1, 135288, Control_c, 0, 64, 104
1, 135303, Control_c, 0, 64, 112
1, 135318, Control_c, 0, 64, 123
1, 135333, Control_c, 0, 64, 127
1, 135395, Note_on_c, 0, 66, 51
1, 135395, Note_off_c, 0, 65, 60
1, 135437, Control_c, 0, 64, 107
1, 135451, Control_c, 0, 64, 91
1, 135466, Control_c, 0, 64, 73
1, 135481, Control_c, 0, 64, 50
1, 135496, Control_c, 0, 64, 0
1, 135533, Note_off_c, 0, 66, 58
1, 135547, Note_on_c, 0, 67, 49
1, 135566, Note_on_c, 0, 48, 42
1, 135584, Note_off_c, 0, 55, 41
1, 135693, Note_off_c, 0, 67, 50
1, 135722, Note_on_c, 0, 58, 44
1, 135952, Note_off_c, 0, 58, 48
1, 135981, Note_on_c, 0, 57, 29
1, 136003, Note_off_c, 0, 48, 46
1, 136006, Note_on_c, 0, 41, 26
1, 136111, Control_c, 0, 64, 46
1, 136126, Control_c, 0, 64, 65
1, 136140, Control_c, 0, 64, 72
1, 136155, Control_c, 0, 64, 81
1, 136170, Control_c, 0, 64, 95
1, 136185, Control_c, 0, 64, 127
1, 136193, Note_off_c, 0, 57, 55
1, 136231, Note_off_c, 0, 41, 41
1, 136245, Control_c, 0, 67, 124
1, 136260, Control_c, 0, 67, 110
1, 136274, Control_c, 0, 67, 91
1, 136289, Control_c, 0, 67, 73
1, 136304, Control_c, 0, 67, 55
1, 136319, Control_c, 0, 67, 39
1, 136334, Control_c, 0, 67, 23
1, 136355, Control_c, 0, 67, 0
1, 136754, Note_on_c, 0, 72, 37
1, 136806, Note_on_c, 0, 60, 23
1, 136850, Note_off_c, 0, 72, 54
1, 136859, Note_off_c, 0, 60, 52
1, 137122, Note_on_c, 0, 72, 50
1, 137162, Note_on_c, 0, 60, 32
1, 137163, Note_on_c, 0, 69, 34
1, 137179, Note_on_c, 0, 53, 23
1, 137214, Note_off_c, 0, 69, 59
1, 137267, Note_off_c, 0, 72, 62
1, 137279, Note_off_c, 0, 53, 37
1, 137288, Note_off_c, 0, 60, 36
1, 137656, Note_on_c, 0, 72, 59
1, 137684, Note_on_c, 0, 69, 37
1, 137685, Note_on_c, 0, 53, 33
1, 137695, Note_on_c, 0, 60, 23
1, 137741, Note_off_c, 0, 53, 58
1, 137749, Note_off_c, 0, 60, 56
1, 137971, Control_c, 0, 64, 110
1, 137986, Control_c, 0, 64, 88
1, 137998, Note_on_c, 0, 76, 58
1, 138001, Control_c, 0, 64, 72
1, 138016, Control_c, 0, 64, 55
1, 138021, Note_on_c, 0, 53, 34
1, 138028, Note_on_c, 0, 60, 23
1, 138031, Control_c, 0, 64, 0
1, 138039, Note_off_c, 0, 69, 52
1, 138069, Note_on_c, 0, 70, 25
1, 138090, Note_off_c, 0, 72, 52
1, 138135, Control_c, 0, 64, 63
1, 138150, Control_c, 0, 64, 73
1, 138165, Control_c, 0, 64, 86
1, 138180, Control_c, 0, 64, 112
1, 138194, Control_c, 0, 64, 127
1, 138214, Note_off_c, 0, 70, 24
1, 138260, Note_off_c, 0, 53, 46
1, 138278, Note_off_c, 0, 60, 45
1, 138415, Note_on_c, 0, 74, 65
1, 138506, Control_c, 0, 64, 107
1, 138521, Control_c, 0, 64, 86
1, 138535, Control_c, 0, 64, 69
1, 138550, Control_c, 0, 64, 0
1, 138553, Note_on_c, 0, 72, 66
1, 138554, Note_off_c, 0, 76, 48
1, 138567, Note_on_c, 0, 60, 27
1, 138571, Note_on_c, 0, 53, 32
1, 138578, Note_on_c, 0, 70, 41
1, 138614, Note_off_c, 0, 70, 57
1, 138617, Control_c, 0, 64, 52
1, 138632, Control_c, 0, 64, 66
1, 138635, Note_off_c, 0, 74, 59
1, 138647, Control_c, 0, 64, 76
1, 138661, Control_c, 0, 64, 90
1, 138667, Note_off_c, 0, 53, 56
1, 138676, Control_c, 0, 64, 124
1, 138691, Control_c, 0, 64, 127
1, 138713, Note_off_c, 0, 60, 36
1, 138883, Control_c, 0, 64, 95
1, 138898, Control_c, 0, 64, 80
1, 138904, Note_on_c, 0, 77, 53
1, 138913, Control_c, 0, 64, 68
1, 138928, Control_c, 0, 64, 49
1, 138937, Note_on_c, 0, 53, 33
1, 138942, Note_on_c, 0, 60, 24
1, 138942, Control_c, 0, 64, 0
1, 138944, Note_on_c, 0, 69, 34
1, 138993, Note_off_c, 0, 72, 60
1, 139091, Control_c, 0, 64, 31
1, 139106, Control_c, 0, 64, 61
1, 139121, Control_c, 0, 64, 67
1, 139136, Control_c, 0, 64, 73
1, 139151, Control_c, 0, 64, 80
1, 139166, Control_c, 0, 64, 89
1, 139181, Control_c, 0, 64, 97
1, 139196, Control_c, 0, 64, 107
1, 139210, Control_c, 0, 64, 127
1, 139303, Note_off_c, 0, 69, 59
1, 139470, Control_c, 0, 67, 8
1, 139499, Control_c, 0, 67, 9
1, 139514, Control_c, 0, 67, 10
1, 139529, Control_c, 0, 67, 11
1, 139543, Control_c, 0, 67, 12
1, 139558, Control_c, 0, 64, 107
1, 139558, Control_c, 0, 67, 13
1, 139570, Note_on_c, 0, 74, 58
1, 139573, Control_c, 0, 64, 90
1, 139573, Control_c, 0, 67, 14
1, 139588, Control_c, 0, 64, 75
1, 139588, Control_c, 0, 67, 15
1, 139597, Note_on_c, 0, 58, 38
1, 139603, Control_c, 0, 64, 56
1, 139603, Control_c, 0, 67, 16
1, 139606, Note_on_c, 0, 65, 34
1, 139617, Control_c, 0, 64, 0
1, 139617, Control_c, 0, 67, 17
1, 139632, Control_c, 0, 67, 17
1, 139635, Note_off_c, 0, 60, 44
1, 139647, Control_c, 0, 67, 18
1, 139662, Control_c, 0, 67, 20
1, 139672, Note_off_c, 0, 53, 43
1, 139677, Control_c, 0, 67, 20
1, 139691, Control_c, 0, 67, 21
1, 139721, Control_c, 0, 64, 54
1, 139735, Control_c, 0, 64, 69
1, 139750, Control_c, 0, 64, 85
1, 139766, Control_c, 0, 64, 114
1, 139777, Note_off_c, 0, 65, 55
1, 139781, Control_c, 0, 64, 127
1, 139896, Note_on_c, 0, 72, 69
1, 139900, Control_c, 0, 64, 100
1, 139900, Control_c, 0, 67, 21
1, 139914, Control_c, 0, 64, 78
1, 139914, Control_c, 0, 67, 22
1, 139915, Note_on_c, 0, 65, 46
1, 139929, Note_on_c, 0, 57, 46
1, 139929, Note_off_c, 0, 77, 38
1, 139929, Control_c, 0, 64, 50
1, 139936, Note_off_c, 0, 58, 50
1, 139944, Control_c, 0, 64, 0
1, 139959, Control_c, 0, 67, 22
1, 140004, Control_c, 0, 67, 23
1, 140013, Note_off_c, 0, 74, 53
1, 140048, Control_c, 0, 64, 56
1, 140063, Control_c, 0, 64, 69
1, 140078, Control_c, 0, 64, 82
1, 140101, Control_c, 0, 64, 105
1, 140107, Note_off_c, 0, 72, 59
1, 140115, Control_c, 0, 64, 127
1, 140145, Control_c, 0, 67, 23
1, 140160, Control_c, 0, 67, 24
1, 140189, Control_c, 0, 67, 25
1, 140204, Control_c, 0, 67, 28
1, 140219, Control_c, 0, 67, 31
1, 140234, Control_c, 0, 67, 33
1, 140248, Control_c, 0, 67, 36
1, 140254, Note_off_c, 0, 57, 36
1, 140263, Control_c, 0, 67, 40
1, 140278, Control_c, 0, 67, 42
1, 140293, Control_c, 0, 67, 44
1, 140308, Control_c, 0, 67, 46
1, 140323, Control_c, 0, 67, 48
1, 140338, Control_c, 0, 67, 51
1, 140352, Control_c, 0, 67, 53
1, 140367, Control_c, 0, 67, 57
1, 140382, Control_c, 0, 67, 60
1, 140397, Control_c, 0, 67, 62
1, 140412, Control_c, 0, 67, 65
1, 140427, Control_c, 0, 67, 68
1, 140438, Note_off_c, 0, 65, 33
1, 140441, Control_c, 0, 64, 104
1, 140441, Control_c, 0, 67, 69
1, 140452, Note_on_c, 0, 69, 59
1, 140456, Control_c, 0, 64, 83
1, 140456, Control_c, 0, 67, 72
1, 140464, Note_on_c, 0, 64, 52
1, 140471, Control_c, 0, 64, 67
1, 140471, Control_c, 0, 67, 73
1, 140473, Note_on_c, 0, 48, 40
1, 140482, Note_on_c, 0, 57, 31
1, 140485, Control_c, 0, 64, 0
1, 140485, Control_c, 0, 67, 76
1, 140500, Control_c, 0, 67, 78
1, 140515, Control_c, 0, 67, 80
1, 140530, Control_c, 0, 67, 81
1, 140545, Control_c, 0, 64, 58
1, 140545, Control_c, 0, 67, 82
1, 140561, Control_c, 0, 64, 69
1, 140561, Control_c, 0, 67, 82
1, 140576, Control_c, 0, 64, 80
1, 140576, Control_c, 0, 67, 83
1, 140590, Control_c, 0, 64, 97
1, 140590, Control_c, 0, 67, 83
1, 140605, Control_c, 0, 64, 127
1, 140605, Control_c, 0, 67, 84
1, 140615, Note_off_c, 0, 57, 35
1, 140635, Control_c, 0, 67, 84
1, 140650, Control_c, 0, 67, 85
1, 140664, Control_c, 0, 67, 85
1, 140679, Control_c, 0, 67, 87
1, 140694, Control_c, 0, 67, 88
1, 140709, Control_c, 0, 67, 90
1, 140724, Control_c, 0, 67, 91
1, 140738, Control_c, 0, 64, 104
1, 140738, Control_c, 0, 67, 93
1, 140753, Control_c, 0, 64, 85
1, 140753, Control_c, 0, 67, 95
1, 140767, Note_on_c, 0, 65, 52
1, 140767, Note_off_c, 0, 64, 59
1, 140768, Control_c, 0, 64, 68
1, 140768, Control_c, 0, 67, 98
1, 140777, Note_off_c, 0, 48, 44
1, 140782, Note_on_c, 0, 50, 39
1, 140782, Control_c, 0, 64, 0
1, 140782, Control_c, 0, 67, 100
1, 140785, Note_on_c, 0, 60, 44
1, 140797, Note_on_c, 0, 57, 28
1, 140797, Control_c, 0, 67, 103
1, 140812, Control_c, 0, 67, 105
1, 140827, Control_c, 0, 67, 107
1, 140850, Control_c, 0, 67, 109
1, 140862, Note_off_c, 0, 69, 38
1, 140864, Control_c, 0, 67, 111
1, 140879, Control_c, 0, 67, 113
1, 140894, Control_c, 0, 67, 115
1, 140909, Control_c, 0, 67, 117
1, 140924, Control_c, 0, 67, 118
1, 140938, Control_c, 0, 67, 120
1, 140953, Control_c, 0, 64, 58
1, 140953, Control_c, 0, 67, 122
1, 140968, Control_c, 0, 64, 70
1, 140968, Control_c, 0, 67, 124
1, 140981, Note_off_c, 0, 60, 54
1, 140983, Control_c, 0, 64, 85
1, 140983, Control_c, 0, 67, 126
1, 140986, Note_off_c, 0, 50, 58
1, 140997, Control_c, 0, 64, 107
1, 140997, Control_c, 0, 67, 127
1, 141012, Control_c, 0, 64, 127
1, 141083, Note_off_c, 0, 65, 61
1, 141121, Note_off_c, 0, 57, 35
1, 141338, Control_c, 0, 64, 96
1, 141354, Note_on_c, 0, 67, 52
1, 141354, Control_c, 0, 64, 77
1, 141369, Control_c, 0, 64, 63
1, 141369, Note_on_c, 0, 65, 39
1, 141375, Note_on_c, 0, 43, 37
1, 141375, Note_on_c, 0, 58, 41
1, 141384, Control_c, 0, 64, 0
1, 141390, Note_on_c, 0, 50, 30
1, 141443, Control_c, 0, 64, 36
1, 141458, Control_c, 0, 64, 64
1, 141473, Control_c, 0, 64, 71
1, 141487, Control_c, 0, 64, 82
1, 141502, Control_c, 0, 64, 97
1, 141517, Control_c, 0, 64, 127
1, 141527, Note_off_c, 0, 67, 57
1, 141536, Note_off_c, 0, 65, 53
1, 141559, Note_off_c, 0, 58, 36
1, 141732, Control_c, 0, 64, 97
1, 141742, Note_on_c, 0, 67, 45
1, 141744, Note_on_c, 0, 58, 30
1, 141746, Control_c, 0, 64, 80
1, 141750, Note_on_c, 0, 64, 39
1, 141761, Note_on_c, 0, 48, 39
1, 141761, Control_c, 0, 64, 67
1, 141776, Control_c, 0, 64, 0
1, 141790, Note_off_c, 0, 50, 47
1, 141806, Note_off_c, 0, 43, 41
1, 141865, Control_c, 0, 64, 50
1, 141880, Control_c, 0, 64, 65
1, 141894, Control_c, 0, 64, 73
1, 141894, Control_c, 0, 67, 125
1, 141909, Control_c, 0, 64, 83
1, 141909, Control_c, 0, 67, 123
1, 141924, Control_c, 0, 64, 97
1, 141924, Control_c, 0, 67, 119
1, 141938, Control_c, 0, 64, 127
1, 141938, Control_c, 0, 67, 113
1, 141953, Control_c, 0, 67, 103
1, 141968, Control_c, 0, 67, 94
1, 141983, Control_c, 0, 67, 86
1, 141998, Control_c, 0, 67, 77
1, 142013, Control_c, 0, 67, 68
1, 142028, Control_c, 0, 67, 59
1, 142043, Control_c, 0, 67, 50
1, 142048, Note_off_c, 0, 64, 37
1, 142057, Control_c, 0, 67, 39
1, 142068, Note_off_c, 0, 48, 41
1, 142072, Control_c, 0, 67, 30
1, 142087, Control_c, 0, 67, 22
1, 142092, Note_off_c, 0, 58, 37
1, 142102, Control_c, 0, 67, 13
1, 142117, Control_c, 0, 67, 0
1, 142419, Note_on_c, 0, 62, 36
1, 142427, Note_on_c, 0, 48, 34
1, 142431, Note_on_c, 0, 58, 26
1, 142435, Control_c, 0, 64, 100
1, 142450, Control_c, 0, 64, 84
1, 142465, Control_c, 0, 64, 72
1, 142480, Control_c, 0, 64, 64
1, 142495, Control_c, 0, 64, 63
1, 142509, Control_c, 0, 64, 67
1, 142524, Control_c, 0, 64, 72
1, 142539, Control_c, 0, 64, 80
1, 142553, Control_c, 0, 64, 91
1, 142568, Control_c, 0, 64, 105
1, 142575, Note_off_c, 0, 58, 49
1, 142583, Control_c, 0, 64, 127
1, 142870, Note_on_c, 0, 69, 55
1, 142879, Control_c, 0, 64, 110
1, 142894, Control_c, 0, 64, 90
1, 142895, Note_on_c, 0, 60, 40
1, 142901, Note_on_c, 0, 41, 34
1, 142901, Note_on_c, 0, 53, 38
1, 142909, Control_c, 0, 64, 74
1, 142915, Note_off_c, 0, 48, 41
1, 142918, Note_off_c, 0, 62, 41
1, 142922, Note_off_c, 0, 67, 58
1, 142924, Control_c, 0, 64, 57
1, 142939, Control_c, 0, 64, 0
1, 143029, Control_c, 0, 64, 21
1, 143044, Control_c, 0, 64, 63
1, 143058, Control_c, 0, 64, 72
1, 143073, Control_c, 0, 64, 85
1, 143095, Control_c, 0, 64, 103
1, 143110, Control_c, 0, 64, 127
1, 143162, Note_off_c, 0, 69, 61
1, 143176, Note_off_c, 0, 60, 37
1, 143196, Note_off_c, 0, 41, 38
1, 143231, Note_off_c, 0, 53, 45
1, 143273, Control_c, 0, 67, 8
1, 143288, Control_c, 0, 67, 9
1, 143303, Control_c, 0, 67, 10
1, 143318, Control_c, 0, 67, 11
1, 143332, Control_c, 0, 67, 11
1, 143347, Control_c, 0, 67, 12
1, 143362, Control_c, 0, 67, 14
1, 143376, Control_c, 0, 67, 16
1, 143391, Control_c, 0, 67, 18
1, 143406, Control_c, 0, 67, 20
1, 143421, Control_c, 0, 64, 115
1, 143421, Control_c, 0, 67, 22
1, 143436, Control_c, 0, 64, 91
1, 143436, Control_c, 0, 67, 24
1, 143441, Note_on_c, 0, 70, 65
1, 143450, Control_c, 0, 64, 71
1, 143450, Control_c, 0, 67, 26
1, 143465, Control_c, 0, 64, 38
1, 143465, Control_c, 0, 67, 28
1, 143467, Note_on_c, 0, 46, 37
1, 143471, Note_on_c, 0, 62, 42
1, 143475, Note_on_c, 0, 53, 34
1, 143480, Control_c, 0, 64, 0
1, 143480, Control_c, 0, 67, 31
1, 143495, Control_c, 0, 67, 33
1, 143509, Control_c, 0, 67, 35
1, 143524, Control_c, 0, 64, 43
1, 143524, Control_c, 0, 67, 36
1, 143539, Control_c, 0, 64, 65
1, 143539, Control_c, 0, 67, 38
1, 143554, Control_c, 0, 64, 73
1, 143554, Control_c, 0, 67, 39
1, 143569, Note_off_c, 0, 62, 52
1, 143569, Control_c, 0, 64, 84
1, 143569, Control_c, 0, 67, 40
1, 143584, Control_c, 0, 64, 102
1, 143584, Control_c, 0, 67, 41
1, 143599, Control_c, 0, 64, 127
1, 143599, Control_c, 0, 67, 42
1, 143612, Note_off_c, 0, 53, 36
1, 143614, Control_c, 0, 67, 43
1, 143628, Control_c, 0, 67, 44
1, 143643, Control_c, 0, 67, 45
1, 143658, Control_c, 0, 67, 46
1, 143673, Control_c, 0, 67, 48
1, 143688, Control_c, 0, 67, 49
1, 143702, Control_c, 0, 67, 50
1, 143717, Control_c, 0, 67, 52
1, 143732, Control_c, 0, 67, 53
1, 143747, Control_c, 0, 67, 54
1, 143763, Control_c, 0, 64, 106
1, 143763, Control_c, 0, 67, 56
1, 143769, Note_on_c, 0, 69, 60
1, 143777, Control_c, 0, 64, 86
1, 143777, Control_c, 0, 67, 59
1, 143778, Note_off_c, 0, 46, 40
1, 143791, Note_on_c, 0, 60, 40
1, 143792, Control_c, 0, 64, 70
1, 143792, Control_c, 0, 67, 61
1, 143804, Note_on_c, 0, 53, 31
1, 143806, Note_on_c, 0, 48, 33
1, 143807, Control_c, 0, 64, 29
1, 143807, Control_c, 0, 67, 64
1, 143822, Control_c, 0, 64, 0
1, 143822, Control_c, 0, 67, 65
1, 143838, Note_off_c, 0, 70, 41
1, 143845, Control_c, 0, 67, 67
1, 143860, Control_c, 0, 67, 69
1, 143875, Control_c, 0, 67, 70
1, 143889, Control_c, 0, 67, 71
1, 143904, Control_c, 0, 64, 34
1, 143904, Control_c, 0, 67, 73
1, 143919, Control_c, 0, 64, 63
1, 143919, Control_c, 0, 67, 73
1, 143933, Control_c, 0, 64, 73
1, 143933, Control_c, 0, 67, 74
1, 143948, Control_c, 0, 64, 84
1, 143948, Control_c, 0, 67, 76
1, 143963, Control_c, 0, 64, 99
1, 143963, Control_c, 0, 67, 77
1, 143978, Control_c, 0, 64, 127
1, 143978, Control_c, 0, 67, 78
1, 143993, Control_c, 0, 67, 79
1, 144007, Control_c, 0, 67, 80
1, 144022, Control_c, 0, 67, 81
1, 144027, Note_off_c, 0, 48, 41
1, 144037, Control_c, 0, 67, 82
1, 144048, Note_off_c, 0, 53, 44
1, 144052, Control_c, 0, 67, 83
1, 144067, Control_c, 0, 67, 85
1, 144082, Control_c, 0, 67, 86
1, 144096, Control_c, 0, 67, 87
1, 144111, Control_c, 0, 67, 88
1, 144126, Control_c, 0, 67, 90
1, 144141, Control_c, 0, 67, 91
1, 144156, Control_c, 0, 67, 92
1, 144171, Control_c, 0, 67, 93
1, 144186, Control_c, 0, 67, 94
1, 144201, Control_c, 0, 67, 94
1, 144215, Control_c, 0, 67, 95
1, 144230, Control_c, 0, 67, 96
1, 144245, Control_c, 0, 67, 96
1, 144260, Control_c, 0, 67, 97
1, 144274, Control_c, 0, 67, 98
1, 144289, Control_c, 0, 64, 124
1, 144289, Control_c, 0, 67, 99
1, 144304, Control_c, 0, 64, 90
1, 144304, Control_c, 0, 67, 100
1, 144319, Control_c, 0, 64, 73
1, 144319, Control_c, 0, 67, 101
1, 144333, Control_c, 0, 64, 47
1, 144333, Control_c, 0, 67, 102
1, 144338, Note_off_c, 0, 60, 45
1, 144344, Note_on_c, 0, 65, 44
1, 144345, Note_off_c, 0, 69, 51
1, 144348, Control_c, 0, 64, 0
1, 144348, Control_c, 0, 67, 104
1, 144363, Note_on_c, 0, 46, 36
1, 144363, Control_c, 0, 67, 105
1, 144366, Note_on_c, 0, 62, 30
1, 144378, Control_c, 0, 67, 106
1, 144388, Note_on_c, 0, 53, 25
1, 144393, Control_c, 0, 67, 106
1, 144407, Control_c, 0, 67, 107
1, 144422, Control_c, 0, 67, 107
1, 144437, Control_c, 0, 64, 62
1, 144452, Control_c, 0, 64, 73
1, 144452, Control_c, 0, 67, 108
1, 144467, Control_c, 0, 64, 87
1, 144469, Note_off_c, 0, 53, 53
1, 144481, Control_c, 0, 64, 113
1, 144496, Control_c, 0, 64, 127
1, 144496, Control_c, 0, 67, 109
1, 144503, Note_off_c, 0, 46, 34
1, 144638, Control_c, 0, 67, 109
1, 144668, Control_c, 0, 64, 100
1, 144680, Note_on_c, 0, 69, 54
1, 144683, Control_c, 0, 64, 78
1, 144696, Note_off_c, 0, 62, 52
1, 144698, Control_c, 0, 64, 64
1, 144699, Note_on_c, 0, 60, 37
1, 144711, Note_on_c, 0, 48, 32
1, 144711, Note_on_c, 0, 53, 30
1, 144712, Control_c, 0, 64, 0
1, 144712, Control_c, 0, 67, 110
1, 144719, Note_off_c, 0, 65, 36
1, 144786, Control_c, 0, 67, 110
1, 144801, Control_c, 0, 64, 56
1, 144816, Control_c, 0, 64, 68
1, 144816, Control_c, 0, 67, 111
1, 144830, Control_c, 0, 64, 77
1, 144830, Control_c, 0, 67, 111
1, 144845, Control_c, 0, 64, 88
1, 144845, Control_c, 0, 67, 112
1, 144860, Control_c, 0, 64, 103
1, 144860, Control_c, 0, 67, 112
1, 144875, Control_c, 0, 64, 127
1, 144875, Control_c, 0, 67, 113
1, 144901, Note_off_c, 0, 60, 46
1, 144904, Control_c, 0, 67, 113
1, 144931, Note_off_c, 0, 69, 60
1, 144934, Control_c, 0, 67, 114
1, 144940, Note_off_c, 0, 48, 41
1, 144952, Note_off_c, 0, 53, 46
1, 144979, Control_c, 0, 67, 114
1, 144994, Control_c, 0, 67, 115
1, 145009, Control_c, 0, 67, 115
1, 145023, Control_c, 0, 67, 116
1, 145038, Control_c, 0, 67, 117
1, 145053, Control_c, 0, 67, 118
1, 145068, Control_c, 0, 67, 118
1, 145083, Control_c, 0, 67, 119
1, 145098, Control_c, 0, 67, 119
1, 145112, Control_c, 0, 67, 120
1, 145127, Control_c, 0, 67, 121
1, 145142, Control_c, 0, 67, 121
1, 145156, Control_c, 0, 67, 122
1, 145171, Control_c, 0, 67, 123
1, 145186, Control_c, 0, 67, 124
1, 145201, Control_c, 0, 67, 125
1, 145216, Control_c, 0, 67, 125
1, 145230, Control_c, 0, 67, 126
1, 145245, Control_c, 0, 64, 108
1, 145245, Control_c, 0, 67, 127
1, 145260, Control_c, 0, 64, 85
1, 145274, Note_on_c, 0, 70, 48
1, 145274, Control_c, 0, 64, 69
1, 145289, Control_c, 0, 64, 29
1, 145297, Note_on_c, 0, 58, 39
1, 145304, Note_on_c, 0, 50, 25
1, 145304, Control_c, 0, 64, 0
1, 145305, Note_on_c, 0, 53, 35
1, 145356, Control_c, 0, 64, 44
1, 145371, Control_c, 0, 64, 64
1, 145385, Control_c, 0, 64, 72
1, 145400, Control_c, 0, 64, 83
1, 145415, Control_c, 0, 64, 101
1, 145430, Control_c, 0, 64, 127
1, 145454, Note_off_c, 0, 53, 36
1, 145462, Note_off_c, 0, 58, 49
1, 145500, Note_off_c, 0, 50, 42
1, 145638, Control_c, 0, 64, 106
1, 145644, Note_on_c, 0, 69, 50
1, 145652, Control_c, 0, 64, 86
1, 145662, Note_on_c, 0, 60, 32
1, 145667, Control_c, 0, 64, 70
1, 145667, Note_on_c, 0, 48, 30
1, 145673, Note_on_c, 0, 53, 25
1, 145682, Control_c, 0, 64, 35
1, 145684, Note_off_c, 0, 70, 51
1, 145697, Control_c, 0, 64, 0
1, 145756, Control_c, 0, 64, 28
1, 145771, Control_c, 0, 64, 63
1, 145785, Control_c, 0, 64, 70
1, 145800, Control_c, 0, 64, 80
1, 145815, Control_c, 0, 64, 92
1, 145830, Control_c, 0, 64, 114
1, 145845, Control_c, 0, 64, 127
1, 145882, Note_off_c, 0, 53, 45
1, 145894, Note_off_c, 0, 48, 45
1, 146183, Note_on_c, 0, 67, 41
1, 146250, Note_off_c, 0, 60, 45
1, 146297, Note_off_c, 0, 69, 29
1, 146312, Control_c, 0, 64, 100
1, 146326, Control_c, 0, 64, 85
1, 146341, Control_c, 0, 64, 71
1, 146353, Note_off_c, 0, 67, 41
1, 146356, Control_c, 0, 64, 53
1, 146370, Note_on_c, 0, 46, 27
1, 146371, Control_c, 0, 64, 0
1, 146386, Note_on_c, 0, 65, 31
1, 146388, Note_on_c, 0, 53, 17
1, 146389, Note_on_c, 0, 62, 26
1, 146475, Control_c, 0, 64, 50
1, 146490, Control_c, 0, 64, 67
1, 146505, Control_c, 0, 64, 77
1, 146520, Control_c, 0, 64, 91
1, 146534, Control_c, 0, 64, 117
1, 146549, Control_c, 0, 64, 127
1, 146559, Note_off_c, 0, 53, 45
1, 146567, Note_off_c, 0, 46, 41
1, 146583, Note_off_c, 0, 62, 41
1, 146606, Note_off_c, 0, 65, 41
1, 146786, Control_c, 0, 64, 119
1, 146800, Control_c, 0, 64, 98
1, 146816, Control_c, 0, 64, 84
1, 146839, Control_c, 0, 64, 71
1, 146854, Control_c, 0, 64, 60
1, 146869, Control_c, 0, 64, 33
1, 146883, Control_c, 0, 64, 11
1, 146898, Control_c, 0, 64, 0
1, 147003, Control_c, 0, 67, 124
1, 147018, Control_c, 0, 67, 119
1, 147032, Control_c, 0, 67, 114
1, 147047, Control_c, 0, 67, 109
1, 147062, Control_c, 0, 67, 103
1, 147077, Control_c, 0, 67, 98
1, 147092, Control_c, 0, 67, 94
1, 147106, Control_c, 0, 67, 87
1, 147121, Control_c, 0, 67, 79
1, 147136, Control_c, 0, 67, 70
1, 147150, Control_c, 0, 67, 62
1, 147165, Control_c, 0, 67, 57
1, 147180, Control_c, 0, 67, 52
1, 147195, Control_c, 0, 67, 46
1, 147210, Control_c, 0, 67, 38
1, 147224, Control_c, 0, 67, 29
1, 147239, Control_c, 0, 67, 20
1, 147254, Control_c, 0, 67, 10
1, 147269, Control_c, 0, 67, 0
1, 147432, Control_c, 0, 64, 30
1, 147447, Control_c, 0, 64, 49
1, 147462, Control_c, 0, 64, 56
1, 147476, Control_c, 0, 64, 61
1, 147491, Control_c, 0, 64, 63
1, 147506, Control_c, 0, 64, 65
1, 147521, Control_c, 0, 64, 66
1, 147536, Control_c, 0, 64, 68
1, 147550, Control_c, 0, 64, 69
1, 147565, Control_c, 0, 64, 70
1, 147587, Control_c, 0, 64, 71
1, 147602, Control_c, 0, 64, 72
1, 147617, Control_c, 0, 64, 74
1, 147632, Control_c, 0, 64, 77
1, 147640, Note_on_c, 0, 72, 54
1, 147647, Control_c, 0, 64, 80
1, 147662, Control_c, 0, 64, 83
1, 147670, Note_on_c, 0, 64, 40
1, 147671, Note_on_c, 0, 48, 37
1, 147676, Control_c, 0, 64, 86
1, 147691, Control_c, 0, 64, 90
1, 147699, Note_on_c, 0, 57, 34
1, 147706, Control_c, 0, 64, 97
1, 147721, Control_c, 0, 64, 104
1, 147736, Control_c, 0, 64, 123
1, 147751, Control_c, 0, 64, 127
1, 147948, Note_off_c, 0, 57, 36
1, 147951, Note_off_c, 0, 48, 41
1, 148240, Control_c, 0, 64, 109
1, 148255, Control_c, 0, 64, 87
1, 148259, Note_on_c, 0, 69, 64
1, 148270, Control_c, 0, 64, 70
1, 148270, Note_on_c, 0, 50, 40
1, 148285, Control_c, 0, 64, 36
1, 148289, Note_on_c, 0, 65, 38
1, 148299, Control_c, 0, 64, 0
1, 148300, Note_off_c, 0, 64, 47
1, 148301, Note_on_c, 0, 57, 27
1, 148324, Note_off_c, 0, 72, 56
1, 148335, Control_c, 0, 64, 30
1, 148350, Control_c, 0, 64, 59
1, 148365, Control_c, 0, 64, 67
1, 148380, Control_c, 0, 64, 76
1, 148395, Control_c, 0, 64, 95
1, 148410, Control_c, 0, 64, 127
1, 148428, Note_off_c, 0, 57, 51
1, 148463, Note_off_c, 0, 50, 37
1, 148576, Note_off_c, 0, 65, 58
1, 148580, Note_on_c, 0, 72, 68
1, 148589, Control_c, 0, 64, 117
1, 148601, Note_on_c, 0, 64, 50
1, 148603, Control_c, 0, 64, 92
1, 148613, Note_on_c, 0, 52, 42
1, 148618, Control_c, 0, 64, 76
1, 148618, Note_on_c, 0, 57, 34
1, 148633, Control_c, 0, 64, 63
1, 148642, Note_off_c, 0, 69, 56
1, 148648, Control_c, 0, 64, 0
1, 148736, Control_c, 0, 64, 52
1, 148751, Control_c, 0, 64, 67
1, 148766, Control_c, 0, 64, 80
1, 148781, Control_c, 0, 64, 96
1, 148795, Control_c, 0, 64, 127
1, 148858, Note_off_c, 0, 64, 59
1, 148904, Note_off_c, 0, 52, 56
1, 148907, Note_off_c, 0, 57, 36
1, 149128, Control_c, 0, 64, 118
1, 149143, Control_c, 0, 64, 89
1, 149158, Control_c, 0, 64, 68
1, 149159, Note_on_c, 0, 74, 67
1, 149173, Control_c, 0, 64, 0
1, 149182, Note_on_c, 0, 62, 44
1, 149194, Note_on_c, 0, 53, 36
1, 149194, Note_on_c, 0, 57, 36
1, 149204, Note_off_c, 0, 72, 59
1, 149247, Control_c, 0, 64, 59
1, 149262, Control_c, 0, 64, 69
1, 149277, Control_c, 0, 64, 80
1, 149292, Control_c, 0, 64, 100
1, 149305, Note_off_c, 0, 57, 54
1, 149307, Control_c, 0, 64, 127
1, 149358, Note_off_c, 0, 62, 34
1, 149493, Note_on_c, 0, 72, 70
1, 149500, Control_c, 0, 64, 95
1, 149504, Note_off_c, 0, 53, 45
1, 149507, Note_on_c, 0, 64, 48
1, 149515, Control_c, 0, 64, 77
1, 149519, Note_on_c, 0, 52, 38
1, 149528, Note_on_c, 0, 57, 32
1, 149530, Control_c, 0, 64, 57
1, 149544, Control_c, 0, 64, 0
1, 149567, Note_off_c, 0, 74, 56
1, 149648, Control_c, 0, 64, 23
1, 149663, Control_c, 0, 64, 64
1, 149678, Control_c, 0, 64, 74
1, 149692, Control_c, 0, 64, 89
1, 149698, Note_off_c, 0, 57, 55
1, 149707, Control_c, 0, 64, 127
1, 149745, Note_off_c, 0, 52, 41
1, 149912, Note_on_c, 0, 71, 69
1, 149974, Note_off_c, 0, 64, 38
1, 150026, Control_c, 0, 64, 109
1, 150041, Control_c, 0, 64, 86
1, 150048, Note_on_c, 0, 69, 64
1, 150056, Note_off_c, 0, 72, 55
1, 150056, Control_c, 0, 64, 68
1, 150070, Note_on_c, 0, 65, 48
1, 150070, Control_c, 0, 64, 0
1, 150079, Note_on_c, 0, 50, 38
1, 150086, Note_on_c, 0, 57, 35
1, 150105, Note_off_c, 0, 71, 58
1, 150146, Control_c, 0, 64, 48
1, 150157, Note_off_c, 0, 65, 38
1, 150161, Control_c, 0, 64, 66
1, 150175, Control_c, 0, 64, 78
1, 150190, Control_c, 0, 64, 95
1, 150205, Control_c, 0, 64, 127
1, 150215, Note_off_c, 0, 57, 47
1, 150218, Note_off_c, 0, 50, 53
1, 150385, Note_on_c, 0, 72, 67
1, 150408, Note_on_c, 0, 64, 53
1, 150413, Control_c, 0, 64, 95
1, 150427, Note_on_c, 0, 52, 43
1, 150428, Control_c, 0, 64, 76
1, 150431, Note_on_c, 0, 57, 41
1, 150442, Control_c, 0, 64, 57
1, 150453, Note_off_c, 0, 69, 59
1, 150457, Control_c, 0, 64, 0
1, 150561, Control_c, 0, 64, 63
1, 150583, Control_c, 0, 64, 74
1, 150598, Control_c, 0, 64, 85
1, 150613, Control_c, 0, 64, 105
1, 150628, Control_c, 0, 64, 127
1, 150721, Note_off_c, 0, 64, 56
1, 150756, Note_off_c, 0, 52, 40
1, 150758, Note_off_c, 0, 57, 36
1, 150969, Control_c, 0, 64, 116
1, 150984, Control_c, 0, 64, 90
1, 150987, Note_on_c, 0, 74, 71
1, 150998, Control_c, 0, 64, 71
1, 151013, Control_c, 0, 64, 0
1, 151018, Note_on_c, 0, 62, 51
1, 151021, Note_on_c, 0, 53, 38
1, 151025, Note_on_c, 0, 57, 34
1, 151042, Note_off_c, 0, 72, 59
1, 151102, Control_c, 0, 64, 50
1, 151116, Control_c, 0, 64, 68
1, 151130, Note_off_c, 0, 57, 54
1, 151131, Control_c, 0, 64, 81
1, 151146, Control_c, 0, 64, 110
1, 151161, Control_c, 0, 64, 127
1, 151178, Note_off_c, 0, 62, 47
1, 151343, Note_on_c, 0, 72, 70
1, 151346, Control_c, 0, 64, 107
1, 151361, Control_c, 0, 64, 85
1, 151368, Note_on_c, 0, 52, 48
1, 151373, Note_on_c, 0, 64, 41
1, 151374, Note_on_c, 0, 57, 41
1, 151374, Note_off_c, 0, 53, 43
1, 151376, Control_c, 0, 64, 68
1, 151391, Control_c, 0, 64, 0
1, 151411, Note_off_c, 0, 74, 53
1, 151465, Control_c, 0, 64, 36
1, 151480, Control_c, 0, 64, 65
1, 151495, Control_c, 0, 64, 75
1, 151510, Control_c, 0, 64, 90
1, 151524, Control_c, 0, 64, 119
1, 151539, Control_c, 0, 64, 127
1, 151693, Note_off_c, 0, 52, 21
1, 151769, Note_on_c, 0, 71, 67
1, 151820, Note_off_c, 0, 64, 58
1, 151866, Control_c, 0, 64, 106
1, 151881, Control_c, 0, 64, 85
1, 151895, Control_c, 0, 64, 68
1, 151910, Control_c, 0, 64, 0
1, 151923, Note_on_c, 0, 69, 70
1, 151943, Note_on_c, 0, 52, 33
1, 151946, Note_on_c, 0, 64, 50
1, 151950, Note_off_c, 0, 57, 36
1, 151956, Note_on_c, 0, 60, 33
1, 151996, Note_off_c, 0, 72, 46
1, 152011, Note_off_c, 0, 71, 59
1, 152014, Control_c, 0, 64, 61
1, 152029, Control_c, 0, 64, 72
1, 152044, Control_c, 0, 64, 88
1, 152047, Note_off_c, 0, 69, 64
1, 152058, Control_c, 0, 64, 127
1, 152097, Note_off_c, 0, 64, 62
1, 152129, Note_off_c, 0, 52, 40
1, 152138, Note_off_c, 0, 60, 46
1, 152324, Note_on_c, 0, 71, 66
1, 152333, Note_on_c, 0, 69, 59
1, 152345, Note_on_c, 0, 62, 47
1, 152347, Control_c, 0, 64, 104
1, 152351, Note_on_c, 0, 52, 49
1, 152359, Note_on_c, 0, 64, 36
1, 152362, Control_c, 0, 64, 85
1, 152377, Control_c, 0, 64, 68
1, 152392, Control_c, 0, 64, 0
1, 152510, Control_c, 0, 64, 14
1, 152525, Control_c, 0, 64, 63
1, 152541, Control_c, 0, 64, 73
1, 152556, Control_c, 0, 64, 87
1, 152570, Control_c, 0, 64, 123
1, 152585, Control_c, 0, 64, 127
1, 152635, Note_off_c, 0, 52, 47
1, 152724, Note_off_c, 0, 69, 56
1, 152735, Note_off_c, 0, 62, 37
1, 152738, Note_off_c, 0, 64, 42
1, 152992, Control_c, 0, 64, 119
1, 152992, Control_c, 0, 67, 8
1, 153007, Control_c, 0, 64, 91
1, 153007, Control_c, 0, 67, 8
1, 153018, Note_on_c, 0, 68, 43
1, 153022, Control_c, 0, 64, 73
1, 153022, Control_c, 0, 67, 9
1, 153037, Control_c, 0, 64, 47
1, 153037, Control_c, 0, 67, 11
1, 153038, Note_on_c, 0, 52, 38
1, 153038, Note_on_c, 0, 64, 23
1, 153039, Note_on_c, 0, 62, 26
1, 153051, Control_c, 0, 64, 0
1, 153051, Control_c, 0, 67, 12
1, 153066, Control_c, 0, 67, 14
1, 153081, Control_c, 0, 67, 16
1, 153096, Control_c, 0, 67, 19
1, 153111, Control_c, 0, 67, 21
1, 153126, Control_c, 0, 64, 49
1, 153126, Control_c, 0, 67, 24
1, 153140, Control_c, 0, 64, 66
1, 153140, Control_c, 0, 67, 27
1, 153155, Control_c, 0, 64, 79
1, 153155, Control_c, 0, 67, 30
1, 153170, Control_c, 0, 64, 95
1, 153170, Control_c, 0, 67, 33
1, 153185, Control_c, 0, 64, 127
1, 153185, Control_c, 0, 67, 36
1, 153188, Note_off_c, 0, 68, 50
1, 153200, Control_c, 0, 67, 38
1, 153215, Note_off_c, 0, 62, 41
1, 153215, Control_c, 0, 67, 40
1, 153230, Control_c, 0, 67, 43
1, 153231, Note_off_c, 0, 71, 57
1, 153244, Control_c, 0, 67, 45
1, 153257, Note_off_c, 0, 64, 43
1, 153259, Control_c, 0, 67, 48
1, 153274, Control_c, 0, 67, 50
1, 153288, Control_c, 0, 67, 53
1, 153303, Control_c, 0, 67, 57
1, 153318, Control_c, 0, 67, 60
1, 153333, Control_c, 0, 67, 64
1, 153349, Control_c, 0, 67, 67
1, 153364, Control_c, 0, 67, 70
1, 153379, Control_c, 0, 67, 73
1, 153393, Control_c, 0, 67, 75
1, 153408, Control_c, 0, 67, 77
1, 153417, Note_off_c, 0, 52, 39
1, 153423, Control_c, 0, 67, 78
1, 153438, Control_c, 0, 67, 80
1, 153451, Note_on_c, 0, 69, 48
1, 153453, Control_c, 0, 67, 82
1, 153464, Note_on_c, 0, 64, 37
1, 153467, Control_c, 0, 67, 84
1, 153472, Note_on_c, 0, 60, 37
1, 153482, Control_c, 0, 64, 118
1, 153482, Control_c, 0, 67, 87
1, 153486, Note_on_c, 0, 45, 39
1, 153497, Control_c, 0, 64, 95
1, 153497, Control_c, 0, 67, 89
1, 153511, Control_c, 0, 64, 80
1, 153511, Control_c, 0, 67, 91
1, 153526, Control_c, 0, 64, 64
1, 153526, Control_c, 0, 67, 93
1, 153541, Control_c, 0, 64, 0
1, 153541, Control_c, 0, 67, 95
1, 153564, Control_c, 0, 67, 97
1, 153579, Control_c, 0, 67, 98
1, 153593, Control_c, 0, 67, 99
1, 153608, Control_c, 0, 67, 100
1, 153623, Control_c, 0, 67, 101
1, 153638, Control_c, 0, 67, 102
1, 153711, Control_c, 0, 64, 39
1, 153726, Control_c, 0, 64, 65
1, 153741, Control_c, 0, 64, 74
1, 153756, Control_c, 0, 64, 85
1, 153771, Control_c, 0, 64, 101
1, 153785, Control_c, 0, 64, 127
1, 153800, Control_c, 0, 67, 101
1, 153815, Control_c, 0, 67, 100
1, 153826, Note_off_c, 0, 60, 38
1, 153847, Note_off_c, 0, 64, 37
1, 153860, Control_c, 0, 67, 100
1, 153889, Control_c, 0, 67, 99
1, 153892, Note_off_c, 0, 45, 43
1, 153904, Control_c, 0, 67, 99
1, 153919, Control_c, 0, 67, 98
1, 153933, Control_c, 0, 67, 98
1, 153948, Control_c, 0, 67, 97
1, 153963, Control_c, 0, 67, 97
1, 153978, Control_c, 0, 67, 96
1, 154023, Control_c, 0, 67, 96
1, 154052, Control_c, 0, 67, 95
1, 154067, Control_c, 0, 67, 94
1, 154082, Control_c, 0, 67, 93
1, 154097, Control_c, 0, 67, 93
1, 154126, Control_c, 0, 67, 92
1, 154142, Control_c, 0, 67, 92
1, 154145, Note_on_c, 0, 64, 34
1, 154154, Note_on_c, 0, 45, 37
1, 154157, Note_on_c, 0, 60, 31
1, 154157, Control_c, 0, 67, 91
1, 154172, Control_c, 0, 67, 90
1, 154187, Control_c, 0, 67, 89
1, 154202, Control_c, 0, 67, 88
1, 154216, Control_c, 0, 67, 86
1, 154231, Control_c, 0, 67, 82
1, 154246, Control_c, 0, 67, 77
1, 154249, Note_off_c, 0, 60, 54
1, 154255, Note_off_c, 0, 69, 62
1, 154261, Control_c, 0, 67, 73
1, 154268, Note_off_c, 0, 64, 52
1, 154276, Control_c, 0, 67, 68
1, 154290, Control_c, 0, 67, 64
1, 154305, Control_c, 0, 67, 59
1, 154327, Control_c, 0, 67, 52
1, 154342, Control_c, 0, 67, 45
1, 154357, Control_c, 0, 67, 40
1, 154372, Control_c, 0, 67, 36
1, 154387, Control_c, 0, 67, 31
1, 154401, Control_c, 0, 67, 25
1, 154416, Control_c, 0, 67, 20
1, 154431, Control_c, 0, 67, 13
1, 154446, Control_c, 0, 67, 0
1, 154598, Note_on_c, 0, 72, 64
1, 154612, Note_on_c, 0, 63, 52
1, 154616, Note_on_c, 0, 69, 56
1, 154622, Note_on_c, 0, 42, 53
1, 154623, Control_c, 0, 64, 119
1, 154638, Control_c, 0, 64, 95
1, 154653, Control_c, 0, 64, 79
1, 154667, Control_c, 0, 64, 63
1, 154682, Control_c, 0, 64, 0
1, 154706, Note_off_c, 0, 45, 43
1, 154771, Control_c, 0, 64, 35
1, 154786, Control_c, 0, 64, 64
1, 154801, Control_c, 0, 64, 72
1, 154816, Control_c, 0, 64, 82
1, 154831, Control_c, 0, 64, 99
1, 154846, Control_c, 0, 64, 127
1, 155042, Note_off_c, 0, 63, 35
1, 155114, Note_off_c, 0, 42, 57
1, 155303, Note_on_c, 0, 63, 49
1, 155304, Note_on_c, 0, 42, 48
1, 155391, Note_off_c, 0, 42, 59
1, 155465, Note_off_c, 0, 72, 38
1, 155524, Note_off_c, 0, 63, 58
1, 155537, Note_on_c, 0, 43, 48
1, 155543, Note_off_c, 0, 69, 34
1, 155595, Note_on_c, 0, 62, 46
1, 155653, Control_c, 0, 64, 100
1, 155668, Control_c, 0, 64, 87
1, 155676, Note_on_c, 0, 67, 49
1, 155683, Control_c, 0, 64, 76
1, 155698, Control_c, 0, 64, 65
1, 155713, Control_c, 0, 64, 0
1, 155745, Note_on_c, 0, 72, 55
1, 155826, Note_on_c, 0, 70, 66
1, 155861, Note_off_c, 0, 72, 52
1, 155919, Note_off_c, 0, 67, 53
1, 155928, Control_c, 0, 64, 61
1, 155943, Control_c, 0, 64, 72
1, 155958, Control_c, 0, 64, 86
1, 155973, Control_c, 0, 64, 124
1, 155987, Note_off_c, 0, 70, 63
1, 155987, Control_c, 0, 64, 127
1, 156032, Note_off_c, 0, 62, 48
1, 156127, Note_off_c, 0, 43, 29
1, 156277, Note_on_c, 0, 69, 56
1, 156283, Note_on_c, 0, 66, 59
1, 156294, Note_on_c, 0, 60, 49
1, 156298, Note_on_c, 0, 45, 44
1, 156328, Control_c, 0, 64, 95
1, 156343, Control_c, 0, 64, 78
1, 156358, Control_c, 0, 64, 62
1, 156373, Control_c, 0, 64, 0
1, 156384, Note_off_c, 0, 60, 45
1, 156405, Note_off_c, 0, 69, 60
1, 156424, Note_on_c, 0, 67, 58
1, 156430, Note_off_c, 0, 45, 51
1, 156434, Note_off_c, 0, 66, 60
1, 156435, Note_on_c, 0, 62, 47
1, 156441, Note_on_c, 0, 46, 49
1, 156461, Control_c, 0, 67, 8
1, 156491, Control_c, 0, 67, 8
1, 156506, Control_c, 0, 67, 9
1, 156521, Control_c, 0, 67, 10
1, 156536, Control_c, 0, 67, 11
1, 156551, Control_c, 0, 67, 11
1, 156618, Control_c, 0, 64, 62
1, 156633, Control_c, 0, 64, 73
1, 156647, Note_off_c, 0, 67, 61
1, 156648, Control_c, 0, 64, 86
1, 156662, Control_c, 0, 64, 115
1, 156677, Control_c, 0, 64, 127
1, 156698, Note_off_c, 0, 62, 49
1, 156766, Control_c, 0, 67, 12
1, 156780, Note_on_c, 0, 69, 60
1, 156781, Control_c, 0, 64, 107
1, 156781, Control_c, 0, 67, 12
1, 156792, Note_on_c, 0, 58, 46
1, 156796, Control_c, 0, 64, 89
1, 156796, Control_c, 0, 67, 13
1, 156809, Note_on_c, 0, 64, 40
1, 156810, Control_c, 0, 64, 74
1, 156810, Control_c, 0, 67, 14
1, 156816, Note_on_c, 0, 48, 45
1, 156816, Note_off_c, 0, 46, 44
1, 156825, Control_c, 0, 64, 59
1, 156825, Control_c, 0, 67, 17
1, 156840, Control_c, 0, 64, 0
1, 156840, Control_c, 0, 67, 19
1, 156855, Control_c, 0, 67, 20
1, 156870, Control_c, 0, 67, 22
1, 156885, Control_c, 0, 67, 24
1, 156899, Control_c, 0, 67, 26
1, 156914, Control_c, 0, 67, 29
1, 156929, Control_c, 0, 67, 31
1, 156944, Control_c, 0, 67, 33
1, 156959, Control_c, 0, 67, 35
1, 156974, Control_c, 0, 64, 11
1, 156974, Control_c, 0, 67, 36
1, 156989, Control_c, 0, 64, 63
1, 156989, Control_c, 0, 67, 37
1, 157004, Control_c, 0, 64, 71
1, 157004, Control_c, 0, 67, 38
1, 157018, Control_c, 0, 64, 81
1, 157018, Control_c, 0, 67, 40
1, 157033, Control_c, 0, 64, 95
1, 157033, Control_c, 0, 67, 41
1, 157048, Control_c, 0, 64, 127
1, 157048, Control_c, 0, 67, 42
1, 157062, Control_c, 0, 67, 44
1, 157077, Control_c, 0, 67, 45
1, 157084, Note_off_c, 0, 64, 51
1, 157092, Control_c, 0, 67, 46
1, 157107, Control_c, 0, 67, 47
1, 157117, Note_off_c, 0, 58, 37
1, 157122, Control_c, 0, 67, 48
1, 157136, Control_c, 0, 67, 49
1, 157147, Note_off_c, 0, 48, 42
1, 157151, Control_c, 0, 67, 50
1, 157166, Control_c, 0, 67, 52
1, 157181, Control_c, 0, 67, 54
1, 157196, Control_c, 0, 67, 55
1, 157210, Control_c, 0, 67, 56
1, 157225, Control_c, 0, 67, 57
1, 157240, Control_c, 0, 67, 59
1, 157254, Control_c, 0, 67, 61
1, 157269, Control_c, 0, 67, 63
1, 157284, Control_c, 0, 67, 65
1, 157299, Control_c, 0, 67, 67
1, 157322, Control_c, 0, 67, 69
1, 157338, Control_c, 0, 67, 72
1, 157353, Control_c, 0, 67, 74
1, 157367, Control_c, 0, 67, 76
1, 157382, Control_c, 0, 67, 78
1, 157397, Control_c, 0, 67, 81
1, 157409, Note_on_c, 0, 36, 46
1, 157412, Control_c, 0, 67, 83
1, 157427, Note_on_c, 0, 48, 39
1, 157427, Control_c, 0, 67, 86
1, 157441, Control_c, 0, 67, 88
1, 157446, Note_on_c, 0, 64, 9
1, 157453, Poly_aftertouch_c, 0, 58, 127
1, 157456, Control_c, 0, 67, 90
1, 157459, Note_on_c, 0, 58, 3
1, 157471, Control_c, 0, 67, 91
1, 157485, Control_c, 0, 67, 93
1, 157500, Control_c, 0, 67, 94
1, 157515, Control_c, 0, 67, 96
1, 157519, Note_off_c, 0, 64, 43
1, 157530, Control_c, 0, 67, 97
1, 157545, Control_c, 0, 67, 99
1, 157559, Control_c, 0, 67, 100
1, 157567, Note_off_c, 0, 36, 33
1, 157574, Control_c, 0, 67, 101
1, 157589, Control_c, 0, 67, 102
1, 157590, Note_off_c, 0, 69, 32
1, 157593, Note_off_c, 0, 48, 44
1, 157604, Control_c, 0, 67, 103
1, 157615, Note_off_c, 0, 58, 40
1, 157619, Control_c, 0, 67, 104
1, 157633, Control_c, 0, 67, 105
1, 157648, Control_c, 0, 67, 105
1, 157678, Control_c, 0, 67, 106
1, 157692, Control_c, 0, 67, 106
1, 157707, Control_c, 0, 67, 107
1, 157722, Control_c, 0, 67, 108
1, 157737, Control_c, 0, 67, 109
1, 157752, Control_c, 0, 67, 109
1, 157782, Control_c, 0, 67, 110
1, 157797, Control_c, 0, 64, 116
1, 157797, Control_c, 0, 67, 110
1, 157812, Control_c, 0, 64, 95
1, 157812, Control_c, 0, 67, 111
1, 157814, Note_on_c, 0, 65, 49
1, 157824, Note_on_c, 0, 57, 36
1, 157826, Control_c, 0, 64, 80
1, 157826, Control_c, 0, 67, 111
1, 157827, Note_on_c, 0, 41, 38
1, 157836, Note_on_c, 0, 48, 36
1, 157841, Control_c, 0, 64, 66
1, 157841, Control_c, 0, 67, 112
1, 157856, Control_c, 0, 64, 0
1, 157856, Control_c, 0, 67, 112
1, 157871, Control_c, 0, 67, 113
1, 157900, Control_c, 0, 67, 113
1, 157915, Control_c, 0, 67, 114
1, 157945, Control_c, 0, 67, 114
1, 157974, Control_c, 0, 64, 44
1, 157989, Control_c, 0, 64, 67
1, 157989, Control_c, 0, 67, 115
1, 158003, Control_c, 0, 64, 78
1, 158018, Control_c, 0, 64, 92
1, 158033, Control_c, 0, 64, 127
1, 158134, Note_off_c, 0, 41, 40
1, 158151, Note_off_c, 0, 57, 35
1, 158263, Control_c, 0, 67, 115
1, 158307, Control_c, 0, 67, 116
1, 158337, Control_c, 0, 67, 116
1, 158411, Control_c, 0, 67, 117
1, 158426, Control_c, 0, 67, 119
1, 158441, Control_c, 0, 67, 121
1, 158455, Control_c, 0, 67, 123
1, 158470, Note_on_c, 0, 57, 33
1, 158470, Control_c, 0, 67, 124
1, 158485, Control_c, 0, 67, 126
1, 158488, Note_on_c, 0, 41, 31
1, 158500, Control_c, 0, 67, 127
1, 158512, Note_off_c, 0, 57, 54
1, 158515, Control_c, 0, 67, 127
1, 158534, Note_off_c, 0, 65, 60
1, 158566, Note_off_c, 0, 48, 41
1, 158601, Note_off_c, 0, 41, 35
1, 158952, Control_c, 0, 64, 116
1, 158960, Note_on_c, 0, 72, 52
1, 158967, Control_c, 0, 64, 96
1, 158972, Note_on_c, 0, 69, 43
1, 158976, Note_on_c, 0, 63, 39
1, 158979, Note_on_c, 0, 42, 42
1, 158982, Control_c, 0, 64, 82
1, 158997, Control_c, 0, 64, 69
1, 159011, Control_c, 0, 64, 53
1, 159026, Control_c, 0, 64, 0
1, 159159, Control_c, 0, 64, 46
1, 159174, Control_c, 0, 64, 65
1, 159189, Control_c, 0, 64, 73
1, 159204, Control_c, 0, 64, 84
1, 159219, Control_c, 0, 64, 99
1, 159233, Control_c, 0, 64, 127
1, 159311, Note_off_c, 0, 63, 35
1, 159326, Note_off_c, 0, 42, 43
1, 159651, Note_on_c, 0, 42, 33
1, 159660, Note_on_c, 0, 63, 31
1, 159735, Note_off_c, 0, 42, 52
1, 159741, Note_off_c, 0, 72, 35
1, 159754, Note_off_c, 0, 69, 36
1, 159827, Note_off_c, 0, 63, 41
1, 159933, Note_on_c, 0, 43, 37
1, 160003, Note_on_c, 0, 62, 38
1, 160013, Control_c, 0, 64, 106
1, 160027, Control_c, 0, 64, 93
1, 160042, Control_c, 0, 64, 82
1, 160057, Control_c, 0, 64, 71
1, 160072, Control_c, 0, 64, 61
1, 160084, Note_on_c, 0, 67, 40
1, 160086, Control_c, 0, 64, 0
1, 160149, Note_on_c, 0, 72, 35
1, 160216, Note_on_c, 0, 70, 49
1, 160228, Note_off_c, 0, 72, 38
1, 160277, Note_off_c, 0, 67, 55
1, 160279, Control_c, 0, 64, 57
1, 160294, Control_c, 0, 64, 68
1, 160316, Control_c, 0, 64, 77
1, 160329, Note_off_c, 0, 70, 63
1, 160331, Control_c, 0, 64, 89
1, 160346, Control_c, 0, 64, 108
1, 160356, Note_off_c, 0, 62, 39
1, 160360, Control_c, 0, 64, 127
1, 160436, Note_off_c, 0, 43, 40
1, 160648, Note_on_c, 0, 69, 52
1, 160658, Control_c, 0, 64, 100
1, 160658, Note_on_c, 0, 45, 44
1, 160660, Note_on_c, 0, 66, 47
1, 160665, Note_on_c, 0, 60, 40
1, 160673, Control_c, 0, 64, 84
1, 160688, Control_c, 0, 64, 71
1, 160702, Control_c, 0, 64, 48
1, 160717, Control_c, 0, 64, 0
1, 160769, Note_off_c, 0, 69, 62
1, 160774, Note_off_c, 0, 60, 37
1, 160790, Note_off_c, 0, 45, 52
1, 160804, Note_off_c, 0, 66, 59
1, 160810, Note_on_c, 0, 46, 45
1, 160816, Note_on_c, 0, 67, 42
1, 160819, Note_on_c, 0, 62, 45
1, 161150, Note_off_c, 0, 67, 43
1, 161168, Note_on_c, 0, 69, 48
1, 161172, Note_off_c, 0, 62, 51
1, 161193, Note_on_c, 0, 58, 36
1, 161195, Note_on_c, 0, 48, 43
1, 161211, Note_on_c, 0, 64, 34
1, 161227, Note_off_c, 0, 46, 35
1, 161332, Control_c, 0, 64, 58
1, 161347, Control_c, 0, 64, 65
1, 161362, Control_c, 0, 64, 70
1, 161377, Control_c, 0, 64, 76
1, 161392, Control_c, 0, 64, 84
1, 161407, Control_c, 0, 64, 95
1, 161421, Control_c, 0, 64, 110
1, 161436, Control_c, 0, 64, 127
1, 161460, Note_off_c, 0, 64, 48
1, 161478, Note_off_c, 0, 48, 35
1, 161508, Note_off_c, 0, 58, 37
1, 161732, Control_c, 0, 67, 124
1, 161747, Control_c, 0, 67, 119
1, 161762, Control_c, 0, 67, 115
1, 161777, Control_c, 0, 67, 110
1, 161792, Control_c, 0, 67, 102
1, 161794, Note_on_c, 0, 48, 50
1, 161795, Note_on_c, 0, 64, 43
1, 161814, Control_c, 0, 67, 92
1, 161823, Note_on_c, 0, 58, 29
1, 161829, Control_c, 0, 67, 84
1, 161844, Control_c, 0, 67, 75
1, 161851, Note_off_c, 0, 69, 54
1, 161858, Control_c, 0, 67, 65
1, 161873, Control_c, 0, 67, 54
1, 161888, Control_c, 0, 67, 41
1, 161903, Control_c, 0, 67, 27
1, 161910, Note_off_c, 0, 64, 60
1, 161918, Control_c, 0, 67, 0
1, 161933, Note_off_c, 0, 48, 59
1, 161991, Note_off_c, 0, 58, 44
1, 162170, Note_on_c, 0, 48, 56
1, 162173, Note_on_c, 0, 66, 46
1, 162182, Note_on_c, 0, 63, 43
1, 162185, Note_on_c, 0, 57, 36
1, 162259, Control_c, 0, 64, 124
1, 162274, Control_c, 0, 64, 95
1, 162289, Control_c, 0, 64, 80
1, 162304, Control_c, 0, 64, 67
1, 162319, Control_c, 0, 64, 0
1, 162611, Note_on_c, 0, 46, 56
1, 162733, Note_off_c, 0, 48, 54
1, 162746, Note_on_c, 0, 45, 60
1, 162749, Note_off_c, 0, 46, 57
1, 163072, Note_on_c, 0, 60, 45
1, 163079, Note_off_c, 0, 63, 58
1, 163085, Note_on_c, 0, 51, 54
1, 163091, Note_off_c, 0, 57, 57
1, 163113, Note_off_c, 0, 45, 61
1, 163186, Control_c, 0, 64, 49
1, 163201, Control_c, 0, 64, 64
1, 163216, Control_c, 0, 64, 72
1, 163231, Control_c, 0, 64, 80
1, 163246, Control_c, 0, 64, 94
1, 163261, Control_c, 0, 64, 127
1, 163346, Note_off_c, 0, 66, 39
1, 163420, Note_off_c, 0, 51, 49
1, 163514, Note_off_c, 0, 60, 47
1, 163601, Note_on_c, 0, 51, 57
1, 163875, Control_c, 0, 64, 92
1, 163888, Note_on_c, 0, 66, 51
1, 163890, Control_c, 0, 64, 68
1, 163893, Note_on_c, 0, 63, 49
1, 163898, Note_on_c, 0, 57, 33
1, 163905, Note_on_c, 0, 48, 57
1, 163905, Control_c, 0, 64, 0
1, 163933, Note_off_c, 0, 51, 63
1, 164312, Note_on_c, 0, 46, 54
1, 164435, Note_off_c, 0, 48, 55
1, 164436, Note_on_c, 0, 45, 62
1, 164443, Note_off_c, 0, 46, 53
1, 164692, Note_off_c, 0, 57, 49
1, 164726, Note_on_c, 0, 60, 46
1, 164743, Note_off_c, 0, 63, 58
1, 164748, Note_on_c, 0, 51, 50
1, 164778, Note_off_c, 0, 45, 60
1, 164854, Control_c, 0, 64, 52
1, 164868, Control_c, 0, 64, 64
1, 164883, Control_c, 0, 64, 69
1, 164898, Control_c, 0, 64, 75
1, 164900, Note_off_c, 0, 66, 35
1, 164913, Control_c, 0, 64, 84
1, 164928, Control_c, 0, 64, 95
1, 164942, Control_c, 0, 64, 119
1, 164957, Control_c, 0, 64, 127
1, 165021, Note_off_c, 0, 51, 59
1, 165061, Note_off_c, 0, 60, 53
1, 165274, Note_on_c, 0, 51, 45
1, 165491, Control_c, 0, 67, 9
1, 165506, Control_c, 0, 67, 12
1, 165521, Control_c, 0, 67, 15
1, 165537, Control_c, 0, 67, 19
1, 165559, Control_c, 0, 67, 24
1, 165574, Control_c, 0, 67, 30
1, 165589, Control_c, 0, 67, 35
1, 165604, Control_c, 0, 67, 40
1, 165619, Control_c, 0, 67, 45
1, 165633, Control_c, 0, 67, 50
1, 165648, Control_c, 0, 67, 54
1, 165652, Note_on_c, 0, 63, 42
1, 165657, Note_on_c, 0, 48, 44
1, 165663, Control_c, 0, 67, 58
1, 165666, Note_on_c, 0, 66, 41
1, 165668, Note_on_c, 0, 56, 35
1, 165678, Control_c, 0, 64, 99
1, 165678, Control_c, 0, 67, 63
1, 165693, Control_c, 0, 64, 80
1, 165693, Control_c, 0, 67, 66
1, 165705, Note_off_c, 0, 51, 46
1, 165707, Control_c, 0, 64, 66
1, 165707, Control_c, 0, 67, 70
1, 165722, Control_c, 0, 64, 0
1, 165722, Control_c, 0, 67, 74
1, 165737, Control_c, 0, 67, 77
1, 165752, Control_c, 0, 67, 80
1, 165766, Control_c, 0, 67, 82
1, 165781, Control_c, 0, 67, 85
1, 165796, Control_c, 0, 67, 88
1, 165811, Control_c, 0, 67, 91
1, 165825, Control_c, 0, 67, 93
1, 165840, Control_c, 0, 67, 95
1, 165855, Control_c, 0, 67, 96
1, 165870, Control_c, 0, 67, 97
1, 165885, Control_c, 0, 67, 98
1, 165899, Control_c, 0, 67, 99
1, 165914, Control_c, 0, 67, 100
1, 165929, Control_c, 0, 67, 101
1, 165944, Control_c, 0, 67, 101
1, 165959, Control_c, 0, 67, 102
1, 165973, Control_c, 0, 67, 102
1, 166003, Control_c, 0, 67, 103
1, 166018, Control_c, 0, 67, 104
1, 166033, Control_c, 0, 67, 104
1, 166063, Control_c, 0, 67, 105
1, 166093, Control_c, 0, 67, 105
1, 166141, Note_on_c, 0, 46, 45
1, 166182, Control_c, 0, 67, 106
1, 166244, Note_off_c, 0, 56, 48
1, 166259, Note_off_c, 0, 48, 41
1, 166315, Note_on_c, 0, 44, 46
1, 166367, Note_off_c, 0, 46, 44
1, 166619, Control_c, 0, 67, 105
1, 166648, Control_c, 0, 67, 105
1, 166678, Control_c, 0, 67, 104
1, 166693, Control_c, 0, 67, 104
1, 166708, Control_c, 0, 67, 103
1, 166715, Note_on_c, 0, 58, 48
1, 166733, Note_on_c, 0, 60, 21
1, 166737, Control_c, 0, 67, 102
1, 166752, Control_c, 0, 67, 102
1, 166766, Control_c, 0, 67, 100
1, 166781, Control_c, 0, 67, 99
1, 166796, Control_c, 0, 67, 98
1, 166811, Control_c, 0, 64, 46
1, 166811, Control_c, 0, 67, 96
1, 166826, Control_c, 0, 64, 64
1, 166826, Control_c, 0, 67, 95
1, 166841, Control_c, 0, 64, 68
1, 166841, Control_c, 0, 67, 94
1, 166856, Control_c, 0, 64, 73
1, 166856, Control_c, 0, 67, 92
1, 166871, Control_c, 0, 64, 77
1, 166871, Control_c, 0, 67, 90
1, 166885, Control_c, 0, 64, 85
1, 166885, Control_c, 0, 67, 86
1, 166892, Note_off_c, 0, 60, 50
1, 166900, Control_c, 0, 64, 97
1, 166900, Control_c, 0, 67, 82
1, 166916, Control_c, 0, 64, 127
1, 166916, Control_c, 0, 67, 78
1, 166931, Control_c, 0, 67, 74
1, 166945, Control_c, 0, 67, 68
1, 166960, Control_c, 0, 67, 61
1, 166975, Control_c, 0, 67, 52
1, 166990, Control_c, 0, 67, 42
1, 167005, Control_c, 0, 67, 34
1, 167010, Note_off_c, 0, 58, 53
1, 167020, Control_c, 0, 67, 27
1, 167034, Control_c, 0, 67, 20
1, 167046, Note_off_c, 0, 63, 37
1, 167056, Control_c, 0, 67, 13
1, 167070, Control_c, 0, 67, 0
1, 167243, Note_on_c, 0, 58, 61
1, 167386, Note_off_c, 0, 58, 59
1, 167500, Control_c, 0, 64, 100
1, 167515, Control_c, 0, 64, 80
1, 167530, Control_c, 0, 64, 64
1, 167544, Note_on_c, 0, 61, 46
1, 167544, Note_on_c, 0, 58, 63
1, 167544, Control_c, 0, 64, 0
1, 167649, Control_c, 0, 64, 32
1, 167663, Control_c, 0, 64, 63
1, 167678, Control_c, 0, 64, 72
1, 167693, Control_c, 0, 64, 85
1, 167708, Control_c, 0, 64, 105
1, 167723, Control_c, 0, 64, 127
1, 167761, Note_off_c, 0, 58, 50
1, 168027, Note_on_c, 0, 65, 56
1, 168038, Note_on_c, 0, 56, 42
1, 168102, Note_off_c, 0, 66, 31
1, 168179, Note_off_c, 0, 61, 36
1, 168281, Note_on_c, 0, 70, 66
1, 168293, Control_c, 0, 64, 104
1, 168308, Control_c, 0, 64, 83
1, 168312, Note_on_c, 0, 54, 49
1, 168313, Note_on_c, 0, 63, 44
1, 168318, Note_on_c, 0, 60, 30
1, 168319, Note_off_c, 0, 56, 38
1, 168323, Control_c, 0, 64, 66
1, 168326, Note_off_c, 0, 65, 60
1, 168338, Control_c, 0, 64, 0
1, 168441, Control_c, 0, 64, 48
1, 168456, Control_c, 0, 64, 68
1, 168471, Control_c, 0, 64, 77
1, 168486, Control_c, 0, 64, 91
1, 168501, Control_c, 0, 64, 127
1, 168579, Note_off_c, 0, 54, 63
1, 168614, Note_off_c, 0, 70, 62
1, 168750, Note_on_c, 0, 70, 71
1, 168771, Note_on_c, 0, 54, 52
1, 168832, Note_off_c, 0, 60, 51
1, 168855, Note_off_c, 0, 63, 59
1, 168865, Note_off_c, 0, 70, 61
1, 168879, Note_off_c, 0, 54, 59
1, 169023, Note_on_c, 0, 70, 69
1, 169028, Control_c, 0, 64, 108
1, 169040, Note_on_c, 0, 54, 41
1, 169042, Control_c, 0, 64, 87
1, 169046, Note_on_c, 0, 61, 53
1, 169057, Control_c, 0, 64, 70
1, 169072, Control_c, 0, 64, 0
1, 169490, Note_off_c, 0, 54, 60
1, 169497, Note_on_c, 0, 68, 55
1, 169505, Note_on_c, 0, 53, 50
1, 169627, Note_off_c, 0, 61, 37
1, 169768, Note_on_c, 0, 60, 39
1, 169774, Note_on_c, 0, 66, 48
1, 169786, Note_off_c, 0, 70, 40
1, 169798, Note_on_c, 0, 58, 66
1, 169849, Note_off_c, 0, 53, 65
1, 169914, Note_off_c, 0, 68, 39
1, 169940, Control_c, 0, 64, 36
1, 169955, Control_c, 0, 64, 64
1, 169970, Control_c, 0, 64, 75
1, 169984, Control_c, 0, 64, 88
1, 169999, Control_c, 0, 64, 127
1, 170057, Note_off_c, 0, 66, 48
1, 170128, Note_off_c, 0, 58, 56
1, 170231, Note_on_c, 0, 66, 63
1, 170247, Note_on_c, 0, 58, 72
1, 170304, Note_off_c, 0, 60, 59
1, 170365, Note_off_c, 0, 66, 56
1, 170384, Note_off_c, 0, 58, 59
1, 170466, Control_c, 0, 64, 98
1, 170480, Control_c, 0, 64, 75
1, 170492, Note_on_c, 0, 66, 64
1, 170495, Control_c, 0, 64, 0
1, 170509, Note_on_c, 0, 58, 69
1, 170512, Note_on_c, 0, 61, 55
1, 170599, Control_c, 0, 64, 57
1, 170613, Control_c, 0, 64, 69
1, 170628, Control_c, 0, 64, 81
1, 170643, Control_c, 0, 64, 104
1, 170658, Control_c, 0, 64, 127
1, 170743, Note_off_c, 0, 58, 55
1, 170942, Note_on_c, 0, 65, 68
1, 170957, Note_on_c, 0, 56, 60
1, 171113, Note_off_c, 0, 61, 31
1, 171148, Note_off_c, 0, 66, 17
1, 171184, Control_c, 0, 64, 91
1, 171187, Note_on_c, 0, 70, 81
1, 171199, Control_c, 0, 64, 66
1, 171205, Note_on_c, 0, 63, 60
1, 171206, Note_on_c, 0, 54, 63
1, 171211, Note_on_c, 0, 60, 53
1, 171214, Control_c, 0, 64, 0
1, 171220, Note_off_c, 0, 56, 54
1, 171225, Note_off_c, 0, 65, 57
1, 171333, Control_c, 0, 64, 32
1, 171348, Control_c, 0, 64, 64
1, 171362, Control_c, 0, 64, 75
1, 171377, Control_c, 0, 64, 92
1, 171392, Control_c, 0, 64, 127
1, 171454, Note_off_c, 0, 54, 64
1, 171542, Note_off_c, 0, 70, 62
1, 171690, Note_on_c, 0, 70, 84
1, 171713, Note_on_c, 0, 54, 58
1, 171746, Note_off_c, 0, 44, 59
1, 171792, Note_off_c, 0, 60, 62
1, 171822, Note_off_c, 0, 54, 58
1, 171839, Note_off_c, 0, 70, 60
1, 171847, Note_off_c, 0, 63, 58
1, 172021, Note_on_c, 0, 70, 80
1, 172045, Note_on_c, 0, 59, 60
1, 172047, Note_on_c, 0, 62, 56
1, 172051, Note_on_c, 0, 54, 52
1, 172052, Control_c, 0, 64, 95
1, 172066, Control_c, 0, 64, 67
1, 172081, Control_c, 0, 64, 0
1, 172692, Note_on_c, 0, 68, 63
1, 172710, Note_off_c, 0, 62, 55
1, 172715, Note_off_c, 0, 59, 57
1, 172725, Note_on_c, 0, 53, 52
1, 172726, Note_off_c, 0, 54, 59
1, 173062, Note_on_c, 0, 62, 56
1, 173072, Note_off_c, 0, 70, 56
1, 173074, Note_on_c, 0, 59, 62
1, 173102, Note_off_c, 0, 53, 64
1, 173115, Note_off_c, 0, 68, 59
1, 173238, Control_c, 0, 64, 53
1, 173253, Control_c, 0, 64, 66
1, 173268, Control_c, 0, 64, 75
1, 173282, Control_c, 0, 64, 87
1, 173297, Control_c, 0, 64, 117
1, 173313, Control_c, 0, 64, 127
1, 173384, Note_off_c, 0, 59, 58
1, 173551, Note_on_c, 0, 59, 71
1, 173826, Note_on_c, 0, 71, 63
1, 173852, Note_on_c, 0, 56, 66
1, 173857, Note_on_c, 0, 65, 57
1, 173868, Control_c, 0, 64, 91
1, 173883, Control_c, 0, 64, 72
1, 173885, Note_off_c, 0, 59, 53
1, 173898, Control_c, 0, 64, 0
1, 174182, Note_off_c, 0, 62, 51
1, 174215, Note_on_c, 0, 54, 64
1, 174250, Note_off_c, 0, 56, 60
1, 174326, Note_on_c, 0, 53, 65
1, 174332, Note_off_c, 0, 54, 62
1, 174597, Note_off_c, 0, 65, 61
1, 174603, Note_on_c, 0, 68, 56
1, 174605, Note_off_c, 0, 71, 56
1, 174610, Note_on_c, 0, 62, 39
1, 174620, Note_on_c, 0, 59, 56
1, 174632, Note_off_c, 0, 53, 62
1, 174765, Control_c, 0, 64, 38
1, 174779, Control_c, 0, 64, 64
1, 174794, Control_c, 0, 64, 72
1, 174809, Control_c, 0, 64, 81
1, 174824, Control_c, 0, 64, 101
1, 174839, Control_c, 0, 64, 127
1, 174861, Note_off_c, 0, 59, 54
1, 175070, Note_on_c, 0, 59, 50
1, 175157, Note_off_c, 0, 62, 36
1, 175382, Note_on_c, 0, 71, 46
1, 175393, Note_on_c, 0, 65, 46
1, 175402, Note_on_c, 0, 56, 46
1, 175411, Control_c, 0, 64, 116
1, 175426, Control_c, 0, 64, 97
1, 175441, Control_c, 0, 64, 84
1, 175442, Note_off_c, 0, 68, 50
1, 175447, Note_off_c, 0, 59, 47
1, 175456, Control_c, 0, 64, 73
1, 175470, Control_c, 0, 64, 62
1, 175485, Control_c, 0, 64, 0
1, 175915, Note_on_c, 0, 49, 47
1, 175950, Note_off_c, 0, 56, 59
1, 176272, Note_on_c, 0, 63, 56
1, 176382, Control_c, 0, 64, 58
1, 176397, Control_c, 0, 64, 66
1, 176412, Control_c, 0, 64, 72
1, 176426, Control_c, 0, 64, 81
1, 176441, Control_c, 0, 64, 98
1, 176456, Control_c, 0, 64, 127
1, 176505, Note_off_c, 0, 65, 56
1, 176563, Note_off_c, 0, 63, 53
1, 176752, Note_on_c, 0, 63, 70
1, 176872, Note_on_c, 0, 72, 27
1, 176899, Note_off_c, 0, 63, 56
1, 176905, Note_off_c, 0, 72, 54
1, 176997, Control_c, 0, 64, 105
1, 177012, Control_c, 0, 64, 79
1, 177027, Control_c, 0, 64, 57
1, 177035, Note_on_c, 0, 66, 59
1, 177042, Control_c, 0, 64, 0
1, 177044, Note_on_c, 0, 63, 66
1, 177131, Control_c, 0, 64, 62
1, 177146, Control_c, 0, 64, 71
1, 177161, Control_c, 0, 64, 81
1, 177176, Control_c, 0, 64, 98
1, 177190, Control_c, 0, 64, 127
1, 177265, Note_off_c, 0, 63, 58
1, 177360, Note_off_c, 0, 71, 63
1, 177468, Note_on_c, 0, 70, 71
1, 177482, Note_on_c, 0, 61, 58
1, 177584, Note_off_c, 0, 61, 60
1, 177627, Note_off_c, 0, 66, 52
1, 177742, Note_on_c, 0, 75, 76
1, 177745, Control_c, 0, 64, 100
1, 177760, Control_c, 0, 64, 77
1, 177768, Note_on_c, 0, 59, 53
1, 177770, Note_on_c, 0, 65, 48
1, 177771, Note_on_c, 0, 68, 53
1, 177775, Control_c, 0, 64, 0
1, 177793, Note_off_c, 0, 70, 56
1, 177879, Control_c, 0, 64, 60
1, 177894, Control_c, 0, 64, 71
1, 177909, Control_c, 0, 64, 85
1, 177923, Control_c, 0, 64, 127
1, 177989, Note_off_c, 0, 59, 54
1, 178046, Note_off_c, 0, 75, 61
1, 178178, Note_on_c, 0, 75, 84
1, 178207, Note_on_c, 0, 59, 56
1, 178258, Note_off_c, 0, 68, 48
1, 178289, Note_off_c, 0, 65, 62
1, 178327, Note_off_c, 0, 59, 57
1, 178336, Note_off_c, 0, 75, 62
1, 178451, Control_c, 0, 64, 104
1, 178463, Note_on_c, 0, 75, 86
1, 178466, Control_c, 0, 64, 79
1, 178481, Control_c, 0, 64, 47
1, 178482, Note_on_c, 0, 66, 66
1, 178487, Note_on_c, 0, 59, 52
1, 178496, Control_c, 0, 64, 0
1, 178614, Control_c, 0, 64, 64
1, 178628, Control_c, 0, 64, 78
1, 178643, Control_c, 0, 64, 100
1, 178658, Control_c, 0, 64, 127
1, 178888, Note_off_c, 0, 59, 57
1, 178911, Note_on_c, 0, 58, 65
1, 178911, Note_on_c, 0, 73, 75
1, 179083, Note_off_c, 0, 66, 35
1, 179125, Control_c, 0, 64, 111
1, 179140, Control_c, 0, 64, 81
1, 179155, Control_c, 0, 64, 50
1, 179170, Note_on_c, 0, 71, 65
1, 179170, Control_c, 0, 64, 0
1, 179185, Note_on_c, 0, 63, 79
1, 179188, Note_on_c, 0, 65, 50
1, 179232, Note_off_c, 0, 58, 63
1, 179235, Note_off_c, 0, 75, 38
1, 179259, Control_c, 0, 64, 55
1, 179274, Control_c, 0, 64, 67
1, 179289, Control_c, 0, 64, 80
1, 179304, Control_c, 0, 64, 104
1, 179313, Note_off_c, 0, 71, 64
1, 179316, Note_off_c, 0, 73, 37
1, 179319, Control_c, 0, 64, 127
1, 179445, Note_off_c, 0, 63, 59
1, 179592, Note_on_c, 0, 71, 79
1, 179602, Note_on_c, 0, 63, 81
1, 179659, Note_off_c, 0, 65, 59
1, 179729, Note_off_c, 0, 63, 59
1, 179730, Note_off_c, 0, 71, 60
1, 179800, Control_c, 0, 64, 106
1, 179815, Control_c, 0, 64, 76
1, 179830, Control_c, 0, 64, 0
1, 179857, Note_on_c, 0, 71, 81
1, 179864, Note_on_c, 0, 66, 76
1, 179869, Note_on_c, 0, 63, 85
1, 179933, Control_c, 0, 64, 27
1, 179948, Control_c, 0, 64, 66
1, 179963, Control_c, 0, 64, 86
1, 179978, Control_c, 0, 64, 127
1, 180103, Note_off_c, 0, 63, 54
1, 180288, Note_on_c, 0, 70, 85
1, 180297, Note_on_c, 0, 61, 71
1, 180310, Note_off_c, 0, 71, 62
1, 180413, Note_off_c, 0, 66, 51
1, 180418, Note_off_c, 0, 61, 61
1, 180493, Poly_aftertouch_c, 0, 52, 127
1, 180512, Control_c, 0, 64, 106
1, 180531, Note_on_c, 0, 75, 93
1, 180535, Control_c, 0, 64, 69
1, 180537, Note_on_c, 0, 68, 81
1, 180545, Note_on_c, 0, 65, 75
1, 180549, Note_on_c, 0, 59, 72
1, 180549, Control_c, 0, 64, 0
1, 180571, Note_off_c, 0, 70, 58
1, 180623, Control_c, 0, 64, 31
1, 180638, Control_c, 0, 64, 65
1, 180653, Control_c, 0, 64, 81
1, 180668, Control_c, 0, 64, 127
1, 180749, Note_off_c, 0, 59, 56
1, 180893, Note_off_c, 0, 75, 60
1, 181016, Note_on_c, 0, 75, 95
1, 181032, Note_on_c, 0, 59, 69
1, 181093, Note_off_c, 0, 49, 61
1, 181107, Poly_aftertouch_c, 0, 52, 0
1, 181132, Note_off_c, 0, 68, 58
1, 181171, Note_off_c, 0, 59, 49
1, 181176, Note_off_c, 0, 65, 47
1, 181227, Note_off_c, 0, 75, 58
1, 181385, Note_on_c, 0, 75, 92
1, 181395, Note_on_c, 0, 67, 77
1, 181396, Note_on_c, 0, 64, 77
1, 181405, Note_on_c, 0, 59, 65
1, 181417, Control_c, 0, 64, 84
1, 181432, Control_c, 0, 64, 0
1, 182068, Note_on_c, 0, 73, 72
1, 182091, Control_c, 0, 64, 61
1, 182097, Note_on_c, 0, 58, 57
1, 182106, Control_c, 0, 64, 75
1, 182109, Note_off_c, 0, 67, 60
1, 182121, Control_c, 0, 64, 107
1, 182136, Control_c, 0, 64, 127
1, 182139, Note_off_c, 0, 59, 47
1, 182147, Note_off_c, 0, 64, 58
1, 182158, Note_off_c, 0, 75, 54
1, 182231, Note_off_c, 0, 73, 61
1, 182264, Note_off_c, 0, 58, 60
1, 182444, Note_on_c, 0, 79, 64
1, 182459, Note_on_c, 0, 70, 56
1, 182461, Note_on_c, 0, 73, 59
1, 182461, Control_c, 0, 64, 97
1, 182476, Control_c, 0, 64, 72
1, 182477, Note_on_c, 0, 67, 45
1, 182482, Note_on_c, 0, 52, 44
1, 182488, Note_on_c, 0, 64, 41
1, 182491, Control_c, 0, 64, 0
1, 182535, Control_c, 0, 64, 44
1, 182550, Control_c, 0, 64, 68
1, 182565, Control_c, 0, 64, 84
1, 182580, Control_c, 0, 64, 127
1, 182612, Note_off_c, 0, 67, 59
1, 182616, Note_off_c, 0, 79, 59
1, 182656, Note_off_c, 0, 70, 62
1, 182673, Note_off_c, 0, 73, 62
1, 182723, Note_off_c, 0, 52, 36
1, 182728, Note_off_c, 0, 64, 37
1, 182815, Note_on_c, 0, 80, 67
1, 182818, Note_on_c, 0, 73, 65
1, 182819, Note_on_c, 0, 68, 60
1, 182842, Note_off_c, 0, 80, 63
1, 182850, Note_off_c, 0, 73, 64
1, 182851, Note_off_c, 0, 68, 65
1, 182914, Note_on_c, 0, 81, 74
1, 182923, Note_on_c, 0, 69, 71
1, 182925, Note_on_c, 0, 73, 76
1, 182929, Note_on_c, 0, 52, 61
1, 182938, Note_on_c, 0, 64, 52
1, 182949, Note_off_c, 0, 73, 67
1, 182959, Note_off_c, 0, 69, 62
1, 182961, Note_off_c, 0, 81, 60
1, 182976, Note_off_c, 0, 64, 64
1, 182988, Note_off_c, 0, 52, 60
1, 183121, Control_c, 0, 64, 94
1, 183136, Control_c, 0, 64, 67
1, 183140, Note_on_c, 0, 82, 75
1, 183143, Note_on_c, 0, 76, 75
1, 183146, Note_on_c, 0, 70, 73
1, 183146, Note_on_c, 0, 49, 74
1, 183148, Note_on_c, 0, 61, 72
1, 183148, Note_on_c, 0, 79, 69
1, 183150, Control_c, 0, 64, 0
1, 183195, Control_c, 0, 64, 62
1, 183210, Control_c, 0, 64, 80
1, 183224, Control_c, 0, 64, 127
1, 183227, Note_off_c, 0, 61, 57
1, 183288, Note_off_c, 0, 70, 39
1, 183310, Note_off_c, 0, 49, 57
1, 183323, Note_off_c, 0, 79, 37
1, 183332, Note_off_c, 0, 76, 34
1, 183333, Note_off_c, 0, 82, 63
1, 183437, Note_on_c, 0, 83, 74
1, 183438, Note_on_c, 0, 79, 70
1, 183440, Note_on_c, 0, 71, 75
1, 183440, Note_on_c, 0, 76, 74
1, 183446, Note_on_c, 0, 47, 74
1, 183448, Note_on_c, 0, 59, 70
1, 183463, Note_off_c, 0, 83, 64
1, 183472, Note_off_c, 0, 59, 67
1, 183473, Note_off_c, 0, 71, 58
1, 183474, Note_off_c, 0, 79, 61
1, 183477, Note_off_c, 0, 47, 67
1, 183478, Note_off_c, 0, 76, 60
1, 183506, Control_c, 0, 64, 90
1, 183527, Note_on_c, 0, 84, 88
1, 183528, Control_c, 0, 64, 70
1, 183536, Note_on_c, 0, 72, 87
1, 183540, Note_on_c, 0, 76, 70
1, 183543, Note_on_c, 0, 79, 67
1, 183543, Control_c, 0, 64, 63
1, 183544, Note_on_c, 0, 46, 84
1, 183546, Note_on_c, 0, 58, 81
1, 183558, Control_c, 0, 64, 68
1, 183572, Note_off_c, 0, 46, 68
1, 183573, Control_c, 0, 64, 82
1, 183581, Note_off_c, 0, 58, 61
1, 183587, Control_c, 0, 64, 113
1, 183596, Note_off_c, 0, 84, 65
1, 183597, Note_off_c, 0, 72, 60
1, 183602, Control_c, 0, 64, 127
1, 183652, Note_off_c, 0, 79, 56
1, 183662, Note_off_c, 0, 76, 61
1, 183722, Control_c, 0, 64, 96
1, 183736, Control_c, 0, 64, 64
1, 183744, Note_on_c, 0, 85, 93
1, 183750, Note_on_c, 0, 81, 74
1, 183751, Note_on_c, 0, 73, 94
1, 183751, Note_on_c, 0, 76, 92
1, 183751, Control_c, 0, 64, 0
1, 183754, Note_on_c, 0, 55, 94
1, 183755, Note_on_c, 0, 67, 91
1, 183790, Note_off_c, 0, 81, 64
1, 183796, Control_c, 0, 64, 64
1, 183808, Note_off_c, 0, 76, 61
1, 183811, Control_c, 0, 64, 85
1, 183813, Note_off_c, 0, 73, 64
1, 183826, Control_c, 0, 64, 127
1, 183827, Note_off_c, 0, 55, 49
1, 183835, Note_off_c, 0, 85, 63
1, 183867, Note_off_c, 0, 67, 48
1, 184005, Note_on_c, 0, 86, 85
1, 184009, Note_on_c, 0, 81, 88
1, 184013, Note_on_c, 0, 74, 82
1, 184035, Note_off_c, 0, 86, 64
1, 184048, Note_off_c, 0, 74, 65
1, 184058, Note_off_c, 0, 81, 65
1, 184091, Note_on_c, 0, 81, 83
1, 184092, Note_on_c, 0, 55, 84
1, 184094, Note_on_c, 0, 67, 90
1, 184094, Note_on_c, 0, 87, 102
1, 184099, Note_on_c, 0, 75, 99
1, 184136, Note_off_c, 0, 67, 64
1, 184148, Note_off_c, 0, 55, 62
1, 184175, Note_off_c, 0, 75, 63
1, 184189, Note_off_c, 0, 81, 61
1, 184213, Note_off_c, 0, 87, 60
1, 184276, Control_c, 0, 64, 95
1, 184291, Control_c, 0, 64, 61
1, 184305, Note_on_c, 0, 76, 103
1, 184306, Control_c, 0, 64, 0
1, 184306, Note_on_c, 0, 82, 93
1, 184307, Note_on_c, 0, 85, 92
1, 184308, Note_on_c, 0, 52, 93
1, 184308, Note_on_c, 0, 64, 97
1, 184310, Note_on_c, 0, 88, 82
1, 184311, Note_on_c, 0, 89, 93
1, 184336, Control_c, 0, 64, 49
1, 184351, Control_c, 0, 64, 74
1, 184365, Control_c, 0, 64, 127
1, 184374, Note_off_c, 0, 64, 60
1, 184392, Note_off_c, 0, 52, 52
1, 184413, Note_off_c, 0, 76, 46
1, 184445, Note_off_c, 0, 89, 56
1, 184447, Note_off_c, 0, 88, 59
1, 184473, Note_off_c, 0, 82, 61
1, 184479, Note_off_c, 0, 85, 61
1, 184562, Note_on_c, 0, 89, 96
1, 184565, Note_on_c, 0, 62, 84
1, 184566, Note_on_c, 0, 50, 87
1, 184568, Note_on_c, 0, 82, 99
1, 184569, Note_on_c, 0, 77, 87
1, 184595, Note_on_c, 0, 51, 45
1, 184595, Note_on_c, 0, 85, 51
1, 184596, Note_off_c, 0, 85, 127
1, 184596, Note_off_c, 0, 62, 62
1, 184596, Note_off_c, 0, 89, 67
1, 184600, Note_off_c, 0, 50, 66
1, 184603, Control_c, 0, 64, 73
1, 184604, Note_off_c, 0, 77, 61
1, 184608, Note_off_c, 0, 82, 66
1, 184618, Control_c, 0, 64, 0
1, 184627, Note_off_c, 0, 51, 58
1, 184648, Control_c, 0, 64, 59
1, 184650, Note_on_c, 0, 82, 95
1, 184652, Note_on_c, 0, 90, 104
1, 184653, Note_on_c, 0, 61, 106
1, 184653, Note_on_c, 0, 78, 102
1, 184655, Note_on_c, 0, 49, 96
1, 184662, Control_c, 0, 64, 80
1, 184672, Note_off_c, 0, 49, 74
1, 184677, Control_c, 0, 64, 127
1, 184690, Note_off_c, 0, 61, 59
1, 184747, Note_off_c, 0, 82, 57
1, 184784, Note_off_c, 0, 78, 58
1, 184798, Note_off_c, 0, 90, 60
1, 184825, Control_c, 0, 64, 121
1, 184840, Control_c, 0, 64, 71
1, 184855, Control_c, 0, 64, 0
1, 184866, Note_on_c, 0, 91, 101
1, 184866, Note_on_c, 0, 73, 98
1, 184868, Note_on_c, 0, 61, 102
1, 184869, Note_on_c, 0, 82, 101
1, 184870, Note_on_c, 0, 79, 107
1, 184872, Note_on_c, 0, 88, 93
1, 184883, Note_off_c, 0, 73, 74
1, 184884, Control_c, 0, 64, 70
1, 184899, Control_c, 0, 64, 127
1, 184903, Note_off_c, 0, 61, 67
1, 184920, Note_off_c, 0, 79, 58
1, 184927, Note_off_c, 0, 82, 67
1, 184929, Note_off_c, 0, 91, 62
1, 184950, Note_off_c, 0, 88, 58
1, 185167, Note_on_c, 0, 92, 94
1, 185170, Note_on_c, 0, 80, 97
1, 185174, Note_on_c, 0, 88, 90
1, 185182, Note_on_c, 0, 87, 72
1, 185218, Control_c, 0, 64, 95
1, 185221, Note_off_c, 0, 92, 67
1, 185225, Note_off_c, 0, 80, 62
1, 185229, Note_off_c, 0, 88, 62
1, 185233, Control_c, 0, 64, 62
1, 185248, Control_c, 0, 64, 0
1, 185253, Note_off_c, 0, 87, 0
1, 185258, Note_on_c, 0, 88, 90
1, 185259, Note_on_c, 0, 93, 107
1, 185263, Note_on_c, 0, 81, 106
1, 185265, Note_on_c, 0, 55, 94
1, 185266, Note_on_c, 0, 43, 92
1, 185278, Control_c, 0, 64, 67
1, 185293, Control_c, 0, 64, 92
1, 185299, Note_on_c, 0, 92, 36
1, 185301, Poly_aftertouch_c, 0, 87, 0
1, 185308, Control_c, 0, 64, 127
1, 185340, Note_off_c, 0, 92, 29
1, 185367, Note_off_c, 0, 81, 52
1, 185389, Note_off_c, 0, 55, 57
1, 185391, Note_off_c, 0, 93, 61
1, 185392, Note_off_c, 0, 43, 60
1, 185516, Control_c, 0, 64, 87
1, 185529, Note_off_c, 0, 88, 62
1, 185531, Control_c, 0, 64, 44
1, 185545, Control_c, 0, 64, 0
1, 185549, Note_on_c, 0, 94, 99
1, 185552, Note_on_c, 0, 82, 113
1, 185552, Note_on_c, 0, 87, 108
1, 185557, Note_on_c, 0, 43, 93
1, 185558, Note_on_c, 0, 55, 97
1, 185560, Control_c, 0, 64, 65
1, 185573, Note_off_c, 0, 94, 72
1, 185575, Control_c, 0, 64, 102
1, 185590, Note_off_c, 0, 87, 70
1, 185590, Control_c, 0, 64, 127
1, 185593, Note_off_c, 0, 82, 70
1, 185606, Note_off_c, 0, 55, 66
1, 185614, Note_off_c, 0, 43, 65
1, 185675, Poly_aftertouch_c, 0, 45, 0
1, 185908, Control_c, 0, 64, 99
1, 185919, Note_on_c, 0, 77, 91
1, 185923, Control_c, 0, 64, 65
1, 185924, Note_on_c, 0, 65, 92
1, 185926, Note_on_c, 0, 53, 89
1, 185927, Note_on_c, 0, 41, 84
1, 185937, Control_c, 0, 64, 0
1, 185960, Note_off_c, 0, 77, 66
1, 185966, Note_off_c, 0, 53, 64
1, 185967, Note_off_c, 0, 41, 63
1, 185967, Note_off_c, 0, 65, 66
1, 185967, Control_c, 0, 64, 19
1, 185982, Control_c, 0, 64, 68
1, 185997, Control_c, 0, 64, 104
1, 186011, Control_c, 0, 64, 127
1, 186012, Note_on_c, 0, 75, 96
1, 186013, Note_on_c, 0, 51, 92
1, 186017, Note_on_c, 0, 39, 96
1, 186017, Note_on_c, 0, 63, 107
1, 186039, Note_off_c, 0, 39, 70
1, 186050, Note_off_c, 0, 51, 65
1, 186051, Note_on_c, 0, 73, 43
1, 186053, Note_off_c, 0, 63, 66
1, 186072, Note_off_c, 0, 75, 57
1, 186081, Note_off_c, 0, 73, 56
1, 186264, Control_c, 0, 64, 106
1, 186279, Control_c, 0, 64, 68
1, 186294, Control_c, 0, 64, 0
1, 186306, Note_on_c, 0, 82, 111
1, 186308, Note_on_c, 0, 70, 104
1, 186309, Note_on_c, 0, 46, 94
1, 186312, Note_on_c, 0, 58, 99
1, 186324, Control_c, 0, 64, 65
1, 186332, Note_on_c, 0, 80, 60
1, 186333, Note_off_c, 0, 80, 127
1, 186339, Control_c, 0, 64, 101
1, 186344, Note_on_c, 0, 78, 44
1, 186349, Note_off_c, 0, 58, 68
1, 186351, Note_off_c, 0, 70, 67
1, 186352, Note_off_c, 0, 46, 66
1, 186354, Control_c, 0, 64, 127
1, 186372, Note_off_c, 0, 78, 59
1, 186391, Note_off_c, 0, 82, 63
1, 186642, Control_c, 0, 64, 79
1, 186657, Control_c, 0, 64, 0
1, 186896, Note_on_c, 0, 91, 108
1, 186898, Note_on_c, 0, 79, 101
1, 186899, Note_on_c, 0, 86, 99
1, 186902, Note_on_c, 0, 34, 89
1, 186902, Note_on_c, 0, 46, 94
1, 186909, Control_c, 0, 64, 50
1, 186924, Control_c, 0, 64, 93
1, 186939, Control_c, 0, 64, 127
1, 187078, Note_off_c, 0, 86, 54
1, 187111, Note_off_c, 0, 79, 52
1, 187127, Note_off_c, 0, 91, 48
1, 187270, Note_on_c, 0, 86, 96
1, 187270, Note_on_c, 0, 89, 108
1, 187271, Note_on_c, 0, 77, 103
1, 187310, Note_off_c, 0, 34, 58
1, 187361, Poly_aftertouch_c, 0, 83, 127
1, 187369, Note_off_c, 0, 46, 59
1, 187391, Note_off_c, 0, 89, 58
1, 187421, Note_off_c, 0, 86, 60
1, 187429, Poly_aftertouch_c, 0, 83, 0
1, 187437, Note_off_c, 0, 77, 57
1, 187550, Poly_aftertouch_c, 0, 42, 127
1, 187700, Note_on_c, 0, 86, 97
1, 187705, Note_on_c, 0, 82, 97
1, 187707, Note_on_c, 0, 74, 102
1, 187708, Note_on_c, 0, 38, 86
1, 187708, Note_on_c, 0, 50, 98
1, 187728, Poly_aftertouch_c, 0, 42, 0
1, 187751, Note_off_c, 0, 38, 64
1, 187751, Note_off_c, 0, 82, 67
1, 187751, Note_off_c, 0, 86, 63
1, 187752, Note_off_c, 0, 74, 68
1, 187754, Note_off_c, 0, 50, 68
1, 187954, Control_c, 0, 64, 95
1, 187969, Control_c, 0, 64, 63
1, 187970, Note_on_c, 0, 82, 99
1, 187973, Note_on_c, 0, 70, 98
1, 187978, Note_on_c, 0, 74, 92
1, 187981, Note_on_c, 0, 55, 102
1, 187982, Note_on_c, 0, 43, 93
1, 187984, Control_c, 0, 64, 0
1, 188051, Control_c, 0, 64, 66
1, 188057, Note_off_c, 0, 74, 64
1, 188065, Control_c, 0, 64, 91
1, 188080, Control_c, 0, 64, 127
1, 188193, Note_off_c, 0, 70, 61
1, 188257, Note_off_c, 0, 55, 54
1, 188311, Note_off_c, 0, 82, 63
1, 188358, Note_on_c, 0, 84, 98
1, 188360, Note_on_c, 0, 81, 96
1, 188360, Note_on_c, 0, 72, 102
1, 188361, Note_on_c, 0, 77, 99
1, 188364, Note_on_c, 0, 41, 90
1, 188371, Note_on_c, 0, 53, 101
1, 188398, Note_off_c, 0, 43, 64
1, 188411, Note_off_c, 0, 53, 68
1, 188434, Note_off_c, 0, 41, 64
1, 188494, Note_off_c, 0, 72, 52
1, 188524, Note_off_c, 0, 84, 59
1, 188543, Note_off_c, 0, 77, 53
1, 188554, Note_off_c, 0, 81, 58
1, 188555, Control_c, 0, 64, 88
1, 188570, Control_c, 0, 64, 0
1, 188595, Note_on_c, 0, 77, 96
1, 188596, Note_on_c, 0, 82, 102
1, 188596, Note_on_c, 0, 86, 99
1, 188598, Note_on_c, 0, 46, 101
1, 188598, Note_on_c, 0, 74, 104
1, 188602, Note_on_c, 0, 34, 95
1, 188615, Control_c, 0, 64, 63
1, 188629, Control_c, 0, 64, 84
1, 188633, Note_off_c, 0, 86, 68
1, 188644, Control_c, 0, 64, 127
1, 188649, Note_off_c, 0, 74, 64
1, 188660, Note_on_c, 0, 35, 43
1, 188673, Note_off_c, 0, 34, 65
1, 188682, Note_off_c, 0, 77, 59
1, 188684, Note_off_c, 0, 82, 63
1, 188711, Note_off_c, 0, 46, 56
1, 188715, Note_off_c, 0, 35, 58
1, 188723, Note_on_c, 0, 37, 27
1, 188831, Note_off_c, 0, 37, 37
1, 188861, Note_on_c, 0, 45, 87
1, 188863, Note_on_c, 0, 33, 84
1, 188893, Note_off_c, 0, 45, 65
1, 188899, Note_off_c, 0, 33, 62
1, 188903, Control_c, 0, 64, 99
1, 188918, Control_c, 0, 64, 72
1, 188933, Control_c, 0, 64, 58
1, 188942, Note_on_c, 0, 82, 95
1, 188947, Note_on_c, 0, 74, 92
1, 188948, Note_on_c, 0, 70, 104
1, 188948, Control_c, 0, 64, 66
1, 188950, Note_on_c, 0, 43, 96
1, 188951, Note_on_c, 0, 31, 96
1, 188962, Control_c, 0, 64, 79
1, 188974, Note_on_c, 0, 32, 61
1, 188977, Control_c, 0, 64, 127
1, 188985, Note_off_c, 0, 74, 62
1, 188988, Note_off_c, 0, 43, 66
1, 188989, Note_off_c, 0, 82, 67
1, 188993, Note_off_c, 0, 31, 63
1, 189006, Note_off_c, 0, 32, 59
1, 189016, Note_off_c, 0, 70, 62
1, 189054, Poly_aftertouch_c, 0, 78, 0
1, 189170, Control_c, 0, 64, 89
1, 189185, Control_c, 0, 64, 0
1, 189189, Note_on_c, 0, 79, 94
1, 189189, Note_on_c, 0, 67, 103
1, 189189, Note_on_c, 0, 70, 95
1, 189191, Note_on_c, 0, 75, 102
1, 189196, Note_on_c, 0, 51, 99
1, 189198, Note_on_c, 0, 39, 95
1, 189274, Control_c, 0, 64, 75
1, 189290, Control_c, 0, 64, 127
1, 189304, Note_off_c, 0, 67, 56
1, 189341, Note_off_c, 0, 70, 58
1, 189353, Note_off_c, 0, 79, 54
1, 189373, Note_off_c, 0, 75, 61
1, 189486, Note_off_c, 0, 51, 59
1, 189543, Note_on_c, 0, 42, 14
1, 189567, Note_off_c, 0, 39, 56
1, 189575, Note_on_c, 0, 81, 101
1, 189579, Control_c, 0, 64, 80
1, 189580, Note_on_c, 0, 74, 101
1, 189581, Note_on_c, 0, 69, 100
1, 189583, Note_on_c, 0, 78, 95
1, 189588, Note_on_c, 0, 50, 100
1, 189591, Note_on_c, 0, 38, 92
1, 189593, Control_c, 0, 64, 61
1, 189600, Note_off_c, 0, 42, 43
1, 189614, Note_on_c, 0, 39, 47
1, 189623, Control_c, 0, 64, 70
1, 189636, Note_off_c, 0, 50, 68
1, 189638, Control_c, 0, 64, 87
1, 189653, Note_off_c, 0, 81, 64
1, 189653, Control_c, 0, 64, 127
1, 189657, Note_off_c, 0, 39, 46
1, 189659, Note_off_c, 0, 38, 66
1, 189667, Note_off_c, 0, 69, 56
1, 189698, Poly_aftertouch_c, 0, 44, 0
1, 189705, Note_off_c, 0, 74, 55
1, 189754, Note_off_c, 0, 78, 39
1, 189800, Control_c, 0, 64, 82
1, 189815, Control_c, 0, 64, 0
1, 189832, Note_on_c, 0, 74, 104
1, 189832, Note_on_c, 0, 82, 101
1, 189833, Note_on_c, 0, 70, 113
1, 189833, Note_on_c, 0, 79, 89
1, 189835, Note_on_c, 0, 43, 94
1, 189837, Note_on_c, 0, 31, 95
1, 189866, Note_on_c, 0, 78, 43
1, 189877, Note_on_c, 0, 32, 42
1, 189889, Control_c, 0, 64, 76
1, 189895, Note_off_c, 0, 78, 57
1, 189904, Control_c, 0, 64, 127
1, 189918, Note_off_c, 0, 32, 53
1, 189928, Note_off_c, 0, 82, 64
1, 189934, Note_off_c, 0, 79, 57
1, 189957, Note_off_c, 0, 74, 57
1, 189966, Note_off_c, 0, 70, 53
1, 190015, Note_off_c, 0, 43, 59
1, 190031, Note_off_c, 0, 31, 52
1, 190136, Note_on_c, 0, 41, 81
1, 190138, Note_on_c, 0, 29, 87
1, 190171, Note_off_c, 0, 29, 67
1, 190172, Control_c, 0, 64, 84
1, 190175, Note_off_c, 0, 41, 64
1, 190187, Control_c, 0, 64, 0
1, 190224, Note_on_c, 0, 79, 97
1, 190226, Note_on_c, 0, 70, 109
1, 190227, Note_on_c, 0, 67, 102
1, 190229, Note_on_c, 0, 39, 95
1, 190230, Note_on_c, 0, 27, 100
1, 190231, Control_c, 0, 64, 67
1, 190239, Poly_aftertouch_c, 0, 30, 0
1, 190246, Control_c, 0, 64, 93
1, 190267, Note_off_c, 0, 27, 68
1, 190267, Note_off_c, 0, 79, 66
1, 190268, Control_c, 0, 64, 127
1, 190273, Note_off_c, 0, 39, 65
1, 190277, Note_off_c, 0, 67, 65
1, 190282, Note_on_c, 0, 74, 18
1, 190283, Note_off_c, 0, 74, 127
1, 190287, Note_off_c, 0, 70, 60
1, 190324, Poly_aftertouch_c, 0, 74, 0
1, 190490, Control_c, 0, 64, 91
1, 190503, Note_on_c, 0, 75, 99
1, 190505, Control_c, 0, 64, 0
1, 190506, Note_on_c, 0, 63, 105
1, 190506, Note_on_c, 0, 68, 99
1, 190510, Note_on_c, 0, 48, 97
1, 190511, Note_on_c, 0, 36, 93
1, 190560, Note_on_c, 0, 37, 22
1, 190594, Control_c, 0, 64, 75
1, 190608, Control_c, 0, 64, 109
1, 190609, Note_off_c, 0, 37, 30
1, 190623, Control_c, 0, 64, 127
1, 190751, Note_off_c, 0, 63, 58
1, 190765, Note_off_c, 0, 68, 54
1, 190812, Note_off_c, 0, 48, 56
1, 190824, Note_off_c, 0, 36, 58
1, 190922, Note_off_c, 0, 75, 60
1, 190950, Control_c, 0, 64, 100
1, 190965, Control_c, 0, 64, 65
1, 190980, Note_on_c, 0, 77, 97
1, 190980, Control_c, 0, 64, 0
1, 190982, Note_on_c, 0, 70, 95
1, 190983, Note_on_c, 0, 65, 97
1, 190983, Note_on_c, 0, 34, 91
1, 190983, Note_on_c, 0, 74, 95
1, 190985, Note_on_c, 0, 46, 101
1, 191046, Control_c, 0, 64, 70
1, 191061, Control_c, 0, 64, 99
1, 191076, Control_c, 0, 64, 127
1, 191098, Note_off_c, 0, 65, 62
1, 191105, Note_off_c, 0, 77, 59
1, 191162, Note_off_c, 0, 46, 55
1, 191175, Note_off_c, 0, 70, 58
1, 191226, Note_off_c, 0, 74, 58
1, 191311, Note_off_c, 0, 34, 30
1, 191313, Control_c, 0, 64, 88
1, 191324, Note_on_c, 0, 78, 95
1, 191327, Note_on_c, 0, 66, 103
1, 191328, Control_c, 0, 64, 0
1, 191329, Note_on_c, 0, 75, 90
1, 191331, Note_on_c, 0, 71, 92
1, 191336, Note_on_c, 0, 33, 87
1, 191338, Note_on_c, 0, 45, 100
1, 191452, Note_off_c, 0, 33, 61
1, 191461, Control_c, 0, 64, 56
1, 191475, Control_c, 0, 64, 66
1, 191490, Control_c, 0, 64, 77
1, 191505, Control_c, 0, 64, 102
1, 191520, Control_c, 0, 64, 127
1, 191892, Note_on_c, 0, 59, 84
1, 192034, Note_off_c, 0, 59, 60
1, 192065, Note_off_c, 0, 78, 55
1, 192112, Note_off_c, 0, 66, 55
1, 192115, Note_off_c, 0, 75, 55
1, 192131, Note_off_c, 0, 71, 57
1, 192183, Note_on_c, 0, 59, 85
1, 192325, Note_off_c, 0, 59, 57
1, 192665, Note_on_c, 0, 59, 80
1, 192787, Note_off_c, 0, 59, 59
1, 192948, Note_on_c, 0, 71, 75
1, 192951, Note_on_c, 0, 63, 72
1, 192953, Note_on_c, 0, 66, 70
1, 192959, Control_c, 0, 64, 90
1, 192962, Note_on_c, 0, 59, 81
1, 192974, Control_c, 0, 64, 63
1, 192989, Control_c, 0, 64, 0
1, 193166, Control_c, 0, 64, 64
1, 193181, Control_c, 0, 64, 74
1, 193195, Note_off_c, 0, 59, 58
1, 193195, Control_c, 0, 64, 89
1, 193210, Control_c, 0, 64, 127
1, 193428, Note_on_c, 0, 59, 78
1, 193569, Note_off_c, 0, 59, 60
1, 193734, Note_on_c, 0, 59, 78
1, 193863, Note_off_c, 0, 59, 63
1, 194222, Note_on_c, 0, 59, 83
1, 194344, Note_off_c, 0, 63, 57
1, 194557, Note_on_c, 0, 63, 79
1, 194605, Control_c, 0, 64, 94
1, 194609, Note_off_c, 0, 59, 56
1, 194619, Control_c, 0, 64, 72
1, 194634, Control_c, 0, 64, 0
1, 194723, Control_c, 0, 64, 36
1, 194739, Control_c, 0, 64, 66
1, 194761, Control_c, 0, 64, 79
1, 194775, Control_c, 0, 64, 105
1, 194790, Control_c, 0, 64, 127
1, 194930, Note_on_c, 0, 61, 79
1, 195055, Note_off_c, 0, 61, 59
1, 195058, Note_off_c, 0, 71, 52
1, 195062, Note_on_c, 0, 59, 75
1, 195062, Note_off_c, 0, 63, 57
1, 195094, Note_off_c, 0, 66, 50
1, 195097, Note_off_c, 0, 45, 60
1, 195344, Note_on_c, 0, 64, 75
1, 195364, Note_on_c, 0, 44, 61
1, 195369, Control_c, 0, 64, 89
1, 195384, Control_c, 0, 64, 69
1, 195398, Control_c, 0, 64, 0
1, 195401, Note_on_c, 0, 71, 41
1, 195486, Control_c, 0, 64, 46
1, 195508, Control_c, 0, 64, 67
1, 195523, Control_c, 0, 64, 79
1, 195538, Control_c, 0, 64, 97
1, 195539, Note_off_c, 0, 71, 50
1, 195553, Control_c, 0, 64, 127
1, 195564, Note_off_c, 0, 59, 38
1, 195630, Note_off_c, 0, 64, 63
1, 195806, Control_c, 0, 67, 9
1, 195820, Control_c, 0, 67, 10
1, 195835, Control_c, 0, 67, 12
1, 195850, Control_c, 0, 67, 13
1, 195865, Control_c, 0, 67, 15
1, 195879, Control_c, 0, 67, 16
1, 195881, Note_on_c, 0, 61, 72
1, 195894, Control_c, 0, 67, 17
1, 195909, Control_c, 0, 67, 19
1, 195924, Control_c, 0, 67, 20
1, 195939, Control_c, 0, 67, 22
1, 195953, Control_c, 0, 67, 24
1, 195968, Control_c, 0, 67, 25
1, 195983, Control_c, 0, 67, 27
1, 195998, Control_c, 0, 67, 28
1, 196013, Control_c, 0, 67, 30
1, 196027, Control_c, 0, 67, 32
1, 196042, Control_c, 0, 67, 33
1, 196057, Control_c, 0, 67, 34
1, 196071, Control_c, 0, 67, 36
1, 196086, Control_c, 0, 67, 37
1, 196101, Control_c, 0, 67, 38
1, 196116, Control_c, 0, 67, 39
1, 196131, Control_c, 0, 67, 40
1, 196146, Control_c, 0, 67, 41
1, 196161, Control_c, 0, 67, 42
1, 196176, Control_c, 0, 67, 44
1, 196190, Control_c, 0, 67, 45
1, 196198, Note_on_c, 0, 59, 67
1, 196204, Note_on_c, 0, 63, 60
1, 196205, Control_c, 0, 67, 46
1, 196211, Note_on_c, 0, 69, 46
1, 196215, Note_on_c, 0, 42, 48
1, 196220, Control_c, 0, 64, 114
1, 196220, Control_c, 0, 67, 47
1, 196221, Note_off_c, 0, 61, 58
1, 196235, Control_c, 0, 64, 91
1, 196235, Control_c, 0, 67, 49
1, 196257, Control_c, 0, 64, 73
1, 196257, Control_c, 0, 67, 50
1, 196271, Control_c, 0, 64, 26
1, 196271, Control_c, 0, 67, 51
1, 196282, Note_off_c, 0, 44, 37
1, 196286, Control_c, 0, 64, 0
1, 196286, Control_c, 0, 67, 52
1, 196301, Control_c, 0, 67, 54
1, 196316, Control_c, 0, 67, 56
1, 196331, Control_c, 0, 67, 58
1, 196346, Control_c, 0, 67, 59
1, 196361, Control_c, 0, 67, 61
1, 196376, Control_c, 0, 67, 62
1, 196390, Control_c, 0, 67, 64
1, 196405, Control_c, 0, 67, 65
1, 196420, Control_c, 0, 67, 67
1, 196435, Control_c, 0, 67, 68
1, 196450, Control_c, 0, 67, 70
1, 196465, Control_c, 0, 67, 71
1, 196480, Control_c, 0, 67, 73
1, 196495, Control_c, 0, 67, 75
1, 196510, Control_c, 0, 67, 77
1, 196525, Control_c, 0, 67, 79
1, 196539, Control_c, 0, 67, 80
1, 196554, Control_c, 0, 67, 82
1, 196569, Control_c, 0, 67, 84
1, 196584, Control_c, 0, 67, 86
1, 196599, Control_c, 0, 67, 87
1, 196614, Control_c, 0, 67, 89
1, 196629, Control_c, 0, 67, 91
1, 196643, Control_c, 0, 67, 92
1, 196658, Control_c, 0, 67, 93
1, 196673, Control_c, 0, 67, 94
1, 196688, Control_c, 0, 67, 96
1, 196702, Control_c, 0, 67, 97
1, 196717, Control_c, 0, 67, 98
1, 196721, Note_on_c, 0, 57, 55
1, 196731, Note_off_c, 0, 59, 60
1, 196732, Control_c, 0, 67, 100
1, 196747, Control_c, 0, 67, 101
1, 196762, Control_c, 0, 67, 102
1, 196776, Control_c, 0, 67, 104
1, 196791, Control_c, 0, 67, 105
1, 196806, Control_c, 0, 67, 106
1, 196820, Control_c, 0, 67, 107
1, 196835, Control_c, 0, 67, 109
1, 196850, Control_c, 0, 67, 110
1, 196865, Control_c, 0, 67, 111
1, 196880, Control_c, 0, 67, 113
1, 196894, Control_c, 0, 67, 114
1, 196909, Control_c, 0, 67, 116
1, 196924, Control_c, 0, 67, 118
1, 196939, Control_c, 0, 67, 119
1, 196954, Control_c, 0, 67, 120
1, 196969, Control_c, 0, 67, 122
1, 196984, Control_c, 0, 67, 123
1, 197006, Control_c, 0, 67, 125
1, 197017, Note_on_c, 0, 54, 52
1, 197020, Control_c, 0, 67, 126
1, 197035, Control_c, 0, 67, 127
1, 197168, Control_c, 0, 64, 56
1, 197183, Control_c, 0, 64, 66
1, 197198, Control_c, 0, 64, 72
1, 197213, Control_c, 0, 64, 79
1, 197228, Control_c, 0, 64, 89
1, 197243, Control_c, 0, 64, 101
1, 197258, Control_c, 0, 64, 127
1, 197346, Note_off_c, 0, 57, 51
1, 197359, Note_off_c, 0, 54, 37
1, 197494, Note_off_c, 0, 63, 54
1, 197538, Poly_aftertouch_c, 0, 44, 127
1, 197553, Note_on_c, 0, 47, 44
1, 197854, Note_off_c, 0, 42, 36
1, 197943, Poly_aftertouch_c, 0, 44, 0
1, 197944, Note_on_c, 0, 59, 43
1, 197948, Control_c, 0, 64, 99
1, 197954, Note_on_c, 0, 64, 43
1, 197963, Note_on_c, 0, 40, 41
1, 197963, Control_c, 0, 64, 84
1, 197978, Control_c, 0, 64, 72
1, 197992, Control_c, 0, 64, 57
1, 198007, Control_c, 0, 64, 0
1, 198032, Note_off_c, 0, 47, 49
1, 198547, Note_on_c, 0, 68, 51
1, 198593, Note_off_c, 0, 69, 53
1, 198879, Note_on_c, 0, 67, 43
1, 198929, Note_off_c, 0, 68, 59
1, 199112, Control_c, 0, 64, 53
1, 199127, Control_c, 0, 64, 64
1, 199142, Control_c, 0, 64, 68
1, 199157, Control_c, 0, 64, 74
1, 199171, Control_c, 0, 64, 82
1, 199186, Control_c, 0, 64, 92
1, 199201, Control_c, 0, 64, 105
1, 199215, Control_c, 0, 64, 127
1, 199258, Note_off_c, 0, 64, 63
1, 199304, Note_off_c, 0, 67, 57
1, 199370, Note_off_c, 0, 59, 57
1, 199426, Note_on_c, 0, 41, 50
1, 199491, Note_off_c, 0, 40, 40
1, 199801, Control_c, 0, 64, 102
1, 199815, Note_on_c, 0, 65, 40
1, 199816, Control_c, 0, 64, 84
1, 199818, Note_on_c, 0, 67, 44
1, 199820, Note_on_c, 0, 55, 38
1, 199830, Note_on_c, 0, 43, 44
1, 199830, Note_on_c, 0, 59, 28
1, 199831, Control_c, 0, 64, 70
1, 199837, Note_off_c, 0, 41, 54
1, 199845, Control_c, 0, 64, 28
1, 199860, Control_c, 0, 64, 0
1, 200031, Control_c, 0, 64, 56
1, 200045, Control_c, 0, 64, 68
1, 200060, Control_c, 0, 64, 76
1, 200075, Control_c, 0, 64, 87
1, 200090, Control_c, 0, 64, 101
1, 200105, Control_c, 0, 64, 127
1, 200127, Note_off_c, 0, 43, 50
1, 200349, Note_on_c, 0, 43, 56
1, 200445, Note_off_c, 0, 43, 60
1, 200654, Control_c, 0, 64, 126
1, 200668, Control_c, 0, 64, 92
1, 200671, Note_on_c, 0, 43, 53
1, 200683, Control_c, 0, 64, 77
1, 200698, Control_c, 0, 64, 64
1, 200713, Control_c, 0, 64, 0
1, 200811, Control_c, 0, 64, 47
1, 200825, Control_c, 0, 64, 65
1, 200840, Control_c, 0, 64, 72
1, 200855, Control_c, 0, 64, 81
1, 200869, Control_c, 0, 64, 95
1, 200884, Control_c, 0, 64, 112
1, 200899, Control_c, 0, 64, 127
1, 200908, Note_off_c, 0, 43, 54
1, 201020, Note_off_c, 0, 55, 42
1, 201061, Note_off_c, 0, 67, 33
1, 201088, Note_off_c, 0, 59, 37
1, 201092, Note_off_c, 0, 65, 37
1, 201202, Note_on_c, 0, 43, 59
1, 201500, Control_c, 0, 64, 116
1, 201515, Control_c, 0, 64, 96
1, 201530, Control_c, 0, 64, 82
1, 201544, Control_c, 0, 64, 66
1, 201547, Note_on_c, 0, 65, 43
1, 201549, Note_on_c, 0, 55, 34
1, 201557, Note_on_c, 0, 67, 40
1, 201559, Control_c, 0, 64, 0
1, 201562, Note_on_c, 0, 47, 47
1, 201565, Note_on_c, 0, 62, 37
1, 201580, Note_off_c, 0, 43, 56
1, 201980, Note_on_c, 0, 45, 53
1, 202003, Note_off_c, 0, 47, 56
1, 202053, Note_off_c, 0, 65, 48
1, 202107, Note_off_c, 0, 67, 55
1, 202113, Note_off_c, 0, 55, 45
1, 202114, Note_on_c, 0, 43, 55
1, 202114, Note_off_c, 0, 45, 60
1, 202140, Note_off_c, 0, 62, 46
1, 202441, Note_off_c, 0, 43, 59
1, 202443, Note_on_c, 0, 55, 38
1, 202445, Note_on_c, 0, 67, 43
1, 202447, Note_on_c, 0, 64, 39
1, 202448, Note_on_c, 0, 48, 49
1, 202461, Note_on_c, 0, 60, 31
1, 202678, Control_c, 0, 64, 44
1, 202693, Control_c, 0, 64, 59
1, 202707, Control_c, 0, 64, 64
1, 202722, Control_c, 0, 64, 68
1, 202737, Control_c, 0, 64, 72
1, 202752, Control_c, 0, 64, 75
1, 202767, Control_c, 0, 64, 81
1, 202781, Control_c, 0, 64, 86
1, 202796, Control_c, 0, 64, 92
1, 202811, Control_c, 0, 64, 98
1, 202826, Control_c, 0, 64, 106
1, 202841, Control_c, 0, 64, 123
1, 202856, Control_c, 0, 64, 127
1, 202978, Note_off_c, 0, 48, 55
1, 202981, Note_off_c, 0, 64, 56
1, 202993, Note_off_c, 0, 55, 42
1, 203006, Note_on_c, 0, 45, 47
1, 203008, Note_off_c, 0, 67, 37
1, 203023, Note_off_c, 0, 60, 37
1, 203308, Control_c, 0, 64, 115
1, 203312, Note_on_c, 0, 60, 37
1, 203315, Note_on_c, 0, 64, 44
1, 203315, Note_on_c, 0, 67, 43
1, 203318, Note_on_c, 0, 55, 44
1, 203323, Control_c, 0, 64, 95
1, 203324, Note_on_c, 0, 43, 52
1, 203337, Control_c, 0, 64, 78
1, 203352, Control_c, 0, 64, 65
1, 203362, Note_off_c, 0, 45, 36
1, 203367, Control_c, 0, 64, 0
1, 203877, Note_on_c, 0, 40, 43
1, 203883, Note_off_c, 0, 43, 49
1, 204195, Note_on_c, 0, 36, 38
1, 204231, Note_off_c, 0, 40, 42
1, 204584, Control_c, 0, 64, 53
1, 204599, Control_c, 0, 64, 64
1, 204614, Control_c, 0, 64, 68
1, 204629, Control_c, 0, 64, 74
1, 204643, Control_c, 0, 64, 79
1, 204658, Control_c, 0, 64, 85
1, 204673, Control_c, 0, 64, 93
1, 204688, Control_c, 0, 64, 101
1, 204703, Control_c, 0, 64, 114
1, 204717, Control_c, 0, 64, 127
1, 204769, Note_off_c, 0, 67, 45
1, 204803, Note_off_c, 0, 64, 57
1, 204811, Note_off_c, 0, 60, 49
1, 204874, Note_on_c, 0, 33, 39
1, 204950, Note_off_c, 0, 36, 38
1, 205348, Control_c, 0, 64, 99
1, 205360, Note_on_c, 0, 65, 38
1, 205363, Control_c, 0, 64, 87
1, 205371, Note_on_c, 0, 31, 39
1, 205372, Note_on_c, 0, 59, 31
1, 205378, Control_c, 0, 64, 77
1, 205392, Note_off_c, 0, 33, 41
1, 205393, Control_c, 0, 64, 66
1, 205404, Note_off_c, 0, 55, 39
1, 205407, Control_c, 0, 64, 32
1, 205422, Control_c, 0, 64, 0
1, 205584, Control_c, 0, 64, 48
1, 205599, Control_c, 0, 64, 64
1, 205614, Control_c, 0, 64, 69
1, 205629, Control_c, 0, 64, 76
1, 205644, Control_c, 0, 64, 82
1, 205658, Control_c, 0, 64, 89
1, 205673, Control_c, 0, 64, 97
1, 205688, Control_c, 0, 64, 109
1, 205703, Control_c, 0, 64, 127
1, 205736, Note_off_c, 0, 31, 40
1, 205925, Control_c, 0, 67, 123
1, 205940, Control_c, 0, 67, 113
1, 205955, Control_c, 0, 67, 100
1, 205970, Control_c, 0, 67, 87
1, 205992, Control_c, 0, 67, 74
1, 206007, Control_c, 0, 67, 61
1, 206022, Control_c, 0, 67, 52
1, 206037, Control_c, 0, 67, 44
1, 206052, Control_c, 0, 67, 37
1, 206067, Control_c, 0, 67, 29
1, 206081, Control_c, 0, 67, 22
1, 206096, Control_c, 0, 67, 13
1, 206111, Control_c, 0, 67, 0
1, 206425, Note_on_c, 0, 57, 33
1, 206642, Note_off_c, 0, 59, 41
1, 206660, Note_off_c, 0, 57, 36
1, 206921, Note_on_c, 0, 57, 45
1, 207022, Note_off_c, 0, 57, 55
1, 207226, Note_on_c, 0, 60, 48
1, 207227, Note_on_c, 0, 43, 47
1, 207229, Control_c, 0, 64, 102
1, 207232, Note_on_c, 0, 57, 41
1, 207244, Control_c, 0, 64, 79
1, 207259, Control_c, 0, 64, 62
1, 207274, Control_c, 0, 64, 0
1, 207363, Control_c, 0, 64, 27
1, 207378, Control_c, 0, 64, 64
1, 207393, Control_c, 0, 64, 74
1, 207408, Control_c, 0, 64, 86
1, 207409, Note_off_c, 0, 57, 58
1, 207422, Control_c, 0, 64, 108
1, 207437, Control_c, 0, 64, 127
1, 207599, Note_off_c, 0, 65, 37
1, 207682, Note_on_c, 0, 64, 49
1, 207700, Note_on_c, 0, 55, 39
1, 207737, Note_off_c, 0, 60, 57
1, 207969, Note_on_c, 0, 69, 55
1, 207994, Control_c, 0, 64, 103
1, 208000, Note_on_c, 0, 59, 47
1, 208002, Note_on_c, 0, 53, 44
1, 208009, Control_c, 0, 64, 81
1, 208012, Note_off_c, 0, 55, 42
1, 208013, Note_on_c, 0, 62, 34
1, 208024, Control_c, 0, 64, 64
1, 208039, Control_c, 0, 64, 0
1, 208064, Note_off_c, 0, 64, 54
1, 208098, Control_c, 0, 64, 51
1, 208113, Control_c, 0, 64, 65
1, 208127, Control_c, 0, 64, 73
1, 208142, Control_c, 0, 64, 84
1, 208157, Control_c, 0, 64, 107
1, 208171, Control_c, 0, 64, 127
1, 208237, Note_off_c, 0, 53, 62
1, 208260, Note_off_c, 0, 69, 62
1, 208427, Note_on_c, 0, 69, 71
1, 208460, Note_on_c, 0, 53, 45
1, 208499, Note_off_c, 0, 59, 55
1, 208535, Note_off_c, 0, 69, 62
1, 208545, Note_off_c, 0, 53, 58
1, 208552, Note_off_c, 0, 62, 48
1, 208708, Note_on_c, 0, 69, 70
1, 208713, Control_c, 0, 64, 108
1, 208717, Note_on_c, 0, 53, 48
1, 208728, Control_c, 0, 64, 86
1, 208732, Note_on_c, 0, 60, 45
1, 208743, Control_c, 0, 64, 69
1, 208757, Control_c, 0, 64, 0
1, 209157, Note_on_c, 0, 67, 56
1, 209159, Note_off_c, 0, 53, 61
1, 209171, Note_on_c, 0, 52, 49
1, 209189, Note_off_c, 0, 60, 57
1, 209408, Note_on_c, 0, 65, 50
1, 209419, Note_on_c, 0, 59, 38
1, 209422, Note_off_c, 0, 69, 35
1, 209435, Note_on_c, 0, 57, 60
1, 209459, Note_off_c, 0, 67, 53
1, 209489, Note_off_c, 0, 52, 60
1, 209549, Control_c, 0, 64, 42
1, 209564, Control_c, 0, 64, 64
1, 209566, Note_off_c, 0, 65, 56
1, 209579, Control_c, 0, 64, 70
1, 209594, Control_c, 0, 64, 78
1, 209609, Control_c, 0, 64, 93
1, 209623, Control_c, 0, 64, 127
1, 209733, Note_off_c, 0, 57, 60
1, 209864, Note_on_c, 0, 65, 63
1, 209876, Note_on_c, 0, 57, 69
1, 209940, Note_off_c, 0, 59, 37
1, 209989, Note_off_c, 0, 57, 62
1, 210000, Note_off_c, 0, 65, 60
1, 210091, Control_c, 0, 64, 109
1, 210106, Control_c, 0, 64, 84
1, 210120, Control_c, 0, 64, 65
1, 210132, Note_on_c, 0, 65, 64
1, 210135, Control_c, 0, 64, 0
1, 210147, Note_on_c, 0, 57, 64
1, 210150, Note_on_c, 0, 60, 53
1, 210240, Control_c, 0, 64, 63
1, 210254, Control_c, 0, 64, 73
1, 210269, Control_c, 0, 64, 87
1, 210284, Control_c, 0, 64, 127
1, 210386, Note_off_c, 0, 57, 55
1, 210583, Note_on_c, 0, 64, 72
1, 210585, Note_on_c, 0, 55, 57
1, 210604, Note_off_c, 0, 65, 59
1, 210631, Note_off_c, 0, 60, 59
1, 210795, Control_c, 0, 64, 98
1, 210810, Control_c, 0, 64, 75
1, 210815, Note_on_c, 0, 69, 75
1, 210825, Control_c, 0, 64, 0
1, 210831, Note_off_c, 0, 55, 62
1, 210833, Note_on_c, 0, 59, 60
1, 210835, Note_on_c, 0, 62, 58
1, 210837, Note_on_c, 0, 53, 59
1, 210866, Note_off_c, 0, 64, 60
1, 210959, Control_c, 0, 64, 54
1, 210974, Control_c, 0, 64, 69
1, 210989, Control_c, 0, 64, 84
1, 211003, Control_c, 0, 64, 127
1, 211044, Note_off_c, 0, 53, 65
1, 211113, Note_off_c, 0, 69, 59
1, 211304, Note_on_c, 0, 69, 83
1, 211326, Note_on_c, 0, 53, 61
1, 211344, Note_off_c, 0, 43, 50
1, 211393, Note_off_c, 0, 59, 60
1, 211414, Note_off_c, 0, 53, 57
1, 211424, Note_off_c, 0, 69, 63
1, 211444, Note_off_c, 0, 62, 61
1, 211646, Note_on_c, 0, 69, 79
1, 211659, Note_on_c, 0, 61, 67
1, 211666, Note_on_c, 0, 58, 56
1, 211674, Note_on_c, 0, 53, 53
1, 211679, Control_c, 0, 64, 101
1, 211693, Control_c, 0, 64, 78
1, 211708, Control_c, 0, 64, 0
1, 212315, Note_off_c, 0, 53, 59
1, 212320, Note_off_c, 0, 61, 48
1, 212324, Note_on_c, 0, 67, 53
1, 212328, Note_on_c, 0, 52, 42
1, 212365, Note_off_c, 0, 69, 48
1, 212397, Control_c, 0, 64, 62
1, 212412, Control_c, 0, 64, 70
1, 212426, Control_c, 0, 64, 80
1, 212442, Control_c, 0, 64, 99
1, 212457, Control_c, 0, 64, 127
1, 212469, Note_off_c, 0, 58, 36
1, 212511, Note_off_c, 0, 52, 62
1, 212511, Note_off_c, 0, 67, 61
1, 212679, Note_on_c, 0, 61, 54
1, 212720, Note_on_c, 0, 58, 63
1, 212731, Control_c, 0, 64, 98
1, 212746, Control_c, 0, 64, 76
1, 212761, Control_c, 0, 64, 61
1, 212775, Control_c, 0, 64, 0
1, 212820, Control_c, 0, 64, 46
1, 212835, Control_c, 0, 64, 64
1, 212849, Control_c, 0, 64, 74
1, 212864, Control_c, 0, 64, 85
1, 212879, Control_c, 0, 64, 106
1, 212894, Control_c, 0, 64, 127
1, 213053, Note_off_c, 0, 58, 56
1, 213217, Note_on_c, 0, 58, 67
1, 213501, Note_on_c, 0, 70, 60
1, 213507, Note_on_c, 0, 55, 67
1, 213510, Note_on_c, 0, 64, 56
1, 213539, Note_off_c, 0, 58, 59
1, 213563, Note_off_c, 0, 61, 57
1, 213569, Control_c, 0, 64, 108
1, 213584, Control_c, 0, 64, 87
1, 213598, Control_c, 0, 64, 70
1, 213613, Control_c, 0, 64, 0
1, 213847, Note_on_c, 0, 53, 61
1, 213921, Note_off_c, 0, 55, 48
1, 213950, Note_on_c, 0, 52, 64
1, 213971, Note_off_c, 0, 53, 65
1, 214190, Note_off_c, 0, 64, 57
1, 214217, Note_on_c, 0, 67, 52
1, 214227, Note_on_c, 0, 61, 40
1, 214231, Note_off_c, 0, 70, 55
1, 214236, Note_on_c, 0, 58, 57
1, 214247, Note_off_c, 0, 52, 60
1, 214332, Control_c, 0, 64, 55
1, 214347, Control_c, 0, 64, 66
1, 214362, Control_c, 0, 64, 74
1, 214377, Control_c, 0, 64, 84
1, 214392, Control_c, 0, 64, 98
1, 214407, Control_c, 0, 64, 127
1, 214463, Note_off_c, 0, 58, 57
1, 214552, Note_off_c, 0, 61, 41
1, 214588, Note_off_c, 0, 67, 49
1, 214674, Note_on_c, 0, 58, 50
1, 214896, Control_c, 0, 67, 8
1, 214911, Control_c, 0, 67, 9
1, 214926, Control_c, 0, 67, 11
1, 214941, Control_c, 0, 67, 12
1, 214955, Control_c, 0, 67, 14
1, 214977, Control_c, 0, 67, 17
1, 214979, Note_on_c, 0, 55, 45
1, 214979, Note_on_c, 0, 70, 46
1, 214992, Control_c, 0, 64, 126
1, 214992, Control_c, 0, 67, 20
1, 214994, Note_on_c, 0, 64, 40
1, 215007, Control_c, 0, 64, 95
1, 215007, Control_c, 0, 67, 22
1, 215022, Control_c, 0, 64, 80
1, 215022, Control_c, 0, 67, 24
1, 215032, Note_off_c, 0, 58, 52
1, 215037, Control_c, 0, 64, 65
1, 215037, Control_c, 0, 67, 25
1, 215051, Control_c, 0, 64, 0
1, 215051, Control_c, 0, 67, 27
1, 215066, Control_c, 0, 67, 28
1, 215081, Control_c, 0, 67, 29
1, 215096, Control_c, 0, 67, 30
1, 215111, Control_c, 0, 67, 32
1, 215125, Control_c, 0, 67, 33
1, 215140, Control_c, 0, 67, 35
1, 215155, Control_c, 0, 67, 36
1, 215170, Control_c, 0, 67, 37
1, 215185, Control_c, 0, 67, 38
1, 215215, Control_c, 0, 67, 38
1, 215529, Note_on_c, 0, 48, 39
1, 215578, Note_off_c, 0, 55, 56
1, 215674, Control_c, 0, 67, 38
1, 215756, Control_c, 0, 67, 37
1, 215815, Control_c, 0, 67, 37
1, 215830, Control_c, 0, 67, 36
1, 215860, Control_c, 0, 67, 36
1, 215865, Note_on_c, 0, 62, 56
1, 215889, Control_c, 0, 67, 35
1, 215904, Control_c, 0, 67, 35
1, 215918, Control_c, 0, 67, 34
1, 215933, Control_c, 0, 67, 33
1, 215948, Control_c, 0, 67, 32
1, 215963, Control_c, 0, 67, 31
1, 215978, Control_c, 0, 64, 60
1, 215978, Control_c, 0, 67, 29
1, 215993, Control_c, 0, 64, 70
1, 215993, Control_c, 0, 67, 27
1, 216008, Control_c, 0, 64, 79
1, 216008, Control_c, 0, 67, 26
1, 216023, Control_c, 0, 64, 92
1, 216023, Control_c, 0, 67, 25
1, 216038, Control_c, 0, 64, 124
1, 216038, Control_c, 0, 67, 22
1, 216052, Control_c, 0, 64, 127
1, 216052, Control_c, 0, 67, 18
1, 216067, Control_c, 0, 67, 12
1, 216082, Control_c, 0, 67, 0
1, 216088, Note_off_c, 0, 64, 38
1, 216112, Note_off_c, 0, 62, 54
1, 216333, Note_on_c, 0, 62, 66
1, 216442, Note_off_c, 0, 62, 60
1, 216564, Control_c, 0, 64, 98
1, 216579, Control_c, 0, 64, 78
1, 216594, Control_c, 0, 64, 54
1, 216609, Control_c, 0, 64, 0
1, 216613, Note_on_c, 0, 65, 57
1, 216628, Note_on_c, 0, 62, 60
1, 216683, Control_c, 0, 64, 43
1, 216697, Control_c, 0, 64, 66
1, 216712, Control_c, 0, 64, 78
1, 216727, Control_c, 0, 64, 96
1, 216741, Control_c, 0, 64, 127
1, 216845, Note_off_c, 0, 62, 56
1, 217048, Note_on_c, 0, 69, 64
1, 217077, Note_on_c, 0, 60, 51
1, 217123, Note_off_c, 0, 65, 60
1, 217298, Note_off_c, 0, 70, 38
1, 217308, Note_on_c, 0, 74, 79
1, 217334, Note_on_c, 0, 67, 54
1, 217337, Note_on_c, 0, 64, 55
1, 217343, Control_c, 0, 64, 95
1, 217344, Note_on_c, 0, 58, 58
1, 217358, Control_c, 0, 64, 73
1, 217372, Control_c, 0, 64, 0
1, 217386, Note_off_c, 0, 60, 40
1, 217389, Note_off_c, 0, 69, 39
1, 217446, Control_c, 0, 64, 11
1, 217461, Control_c, 0, 64, 63
1, 217476, Control_c, 0, 64, 72
1, 217491, Control_c, 0, 64, 86
1, 217506, Control_c, 0, 64, 127
1, 217538, Note_off_c, 0, 58, 52
1, 217629, Note_off_c, 0, 74, 61
1, 217752, Note_on_c, 0, 74, 86
1, 217773, Note_on_c, 0, 58, 58
1, 217862, Note_off_c, 0, 64, 59
1, 217903, Note_off_c, 0, 58, 45
1, 217904, Note_off_c, 0, 74, 63
1, 217921, Note_off_c, 0, 67, 60
1, 218032, Control_c, 0, 64, 93
1, 218041, Note_on_c, 0, 74, 85
1, 218047, Control_c, 0, 64, 70
1, 218062, Note_on_c, 0, 58, 58
1, 218062, Control_c, 0, 64, 0
1, 218064, Note_on_c, 0, 65, 63
1, 218136, Control_c, 0, 64, 58
1, 218151, Control_c, 0, 64, 71
1, 218166, Control_c, 0, 64, 89
1, 218181, Control_c, 0, 64, 127
1, 218269, Note_off_c, 0, 58, 60
1, 218395, Note_off_c, 0, 48, 39
1, 218455, Note_on_c, 0, 72, 75
1, 218477, Note_on_c, 0, 57, 62
1, 218511, Note_off_c, 0, 65, 60
1, 218562, Note_on_c, 0, 48, 70
1, 218576, Note_off_c, 0, 57, 57
1, 218604, Note_off_c, 0, 74, 40
1, 218654, Control_c, 0, 64, 95
1, 218669, Control_c, 0, 64, 68
1, 218684, Control_c, 0, 64, 0
1, 218694, Note_on_c, 0, 70, 73
1, 218712, Note_on_c, 0, 64, 64
1, 218713, Note_on_c, 0, 62, 74
1, 218780, Control_c, 0, 64, 40
1, 218794, Note_off_c, 0, 72, 52
1, 218795, Control_c, 0, 64, 66
1, 218810, Control_c, 0, 64, 80
1, 218825, Control_c, 0, 64, 113
1, 218840, Control_c, 0, 64, 127
1, 218945, Note_off_c, 0, 70, 58
1, 218979, Note_off_c, 0, 62, 59
1, 219156, Note_on_c, 0, 70, 82
1, 219164, Note_on_c, 0, 62, 84
1, 219230, Note_off_c, 0, 64, 51
1, 219278, Note_off_c, 0, 62, 61
1, 219308, Note_off_c, 0, 70, 61
1, 219373, Control_c, 0, 64, 105
1, 219388, Control_c, 0, 64, 76
1, 219397, Note_on_c, 0, 70, 83
1, 219403, Control_c, 0, 64, 0
1, 219415, Note_on_c, 0, 65, 61
1, 219419, Note_on_c, 0, 62, 76
1, 219499, Control_c, 0, 64, 56
1, 219514, Control_c, 0, 64, 70
1, 219529, Control_c, 0, 64, 84
1, 219543, Control_c, 0, 64, 127
1, 219654, Note_off_c, 0, 62, 57
1, 219824, Note_on_c, 0, 69, 82
1, 219842, Note_on_c, 0, 60, 63
1, 219889, Note_off_c, 0, 65, 51
1, 220018, Note_off_c, 0, 70, 37
1, 220063, Control_c, 0, 64, 87
1, 220076, Note_on_c, 0, 74, 92
1, 220078, Control_c, 0, 64, 62
1, 220086, Note_on_c, 0, 67, 73
1, 220089, Note_on_c, 0, 58, 76
1, 220089, Note_on_c, 0, 64, 76
1, 220092, Control_c, 0, 64, 0
1, 220110, Note_off_c, 0, 69, 57
1, 220131, Note_off_c, 0, 60, 60
1, 220166, Control_c, 0, 64, 66
1, 220181, Control_c, 0, 64, 82
1, 220197, Control_c, 0, 64, 127
1, 220368, Note_off_c, 0, 58, 50
1, 220467, Note_off_c, 0, 74, 60
1, 220566, Note_on_c, 0, 74, 97
1, 220579, Note_on_c, 0, 58, 70
1, 220608, Note_off_c, 0, 48, 57
1, 220650, Note_off_c, 0, 64, 64
1, 220667, Note_off_c, 0, 58, 59
1, 220676, Note_off_c, 0, 74, 65
1, 220704, Note_off_c, 0, 67, 56
1, 220901, Note_on_c, 0, 74, 93
1, 220909, Note_on_c, 0, 66, 80
1, 220910, Note_on_c, 0, 63, 81
1, 220913, Note_on_c, 0, 58, 68
1, 220916, Control_c, 0, 64, 91
1, 220931, Control_c, 0, 64, 46
1, 220944, Control_c, 0, 64, 0
1, 221592, Note_off_c, 0, 58, 52
1, 221597, Note_on_c, 0, 72, 61
1, 221612, Note_on_c, 0, 57, 42
1, 221623, Note_off_c, 0, 66, 56
1, 221626, Note_off_c, 0, 74, 52
1, 221649, Control_c, 0, 64, 55
1, 221664, Control_c, 0, 64, 68
1, 221678, Control_c, 0, 64, 85
1, 221689, Note_off_c, 0, 63, 55
1, 221693, Control_c, 0, 64, 127
1, 221730, Note_off_c, 0, 72, 63
1, 221744, Note_off_c, 0, 57, 61
1, 221988, Note_on_c, 0, 78, 56
1, 221997, Control_c, 0, 64, 107
1, 221999, Note_on_c, 0, 69, 51
1, 222004, Note_on_c, 0, 72, 45
1, 222010, Note_on_c, 0, 51, 43
1, 222010, Note_on_c, 0, 66, 41
1, 222011, Control_c, 0, 64, 79
1, 222012, Note_on_c, 0, 63, 45
1, 222027, Control_c, 0, 64, 60
1, 222042, Control_c, 0, 64, 28
1, 222057, Control_c, 0, 64, 60
1, 222072, Control_c, 0, 64, 70
1, 222085, Note_off_c, 0, 66, 0
1, 222085, Note_on_c, 0, 66, 3
1, 222087, Control_c, 0, 64, 82
1, 222095, Note_off_c, 0, 69, 59
1, 222102, Control_c, 0, 64, 109
1, 222106, Note_off_c, 0, 72, 60
1, 222116, Control_c, 0, 64, 127
1, 222181, Note_off_c, 0, 78, 59
1, 222187, Note_off_c, 0, 66, 52
1, 222279, Note_off_c, 0, 51, 43
1, 222299, Note_off_c, 0, 63, 37
1, 222326, Note_on_c, 0, 79, 72
1, 222338, Note_on_c, 0, 67, 61
1, 222349, Note_on_c, 0, 72, 61
1, 222365, Note_off_c, 0, 79, 57
1, 222367, Note_off_c, 0, 67, 65
1, 222388, Note_off_c, 0, 72, 60
1, 222455, Note_on_c, 0, 80, 79
1, 222461, Note_on_c, 0, 68, 75
1, 222465, Note_on_c, 0, 51, 62
1, 222470, Note_on_c, 0, 63, 55
1, 222504, Note_off_c, 0, 63, 64
1, 222518, Note_off_c, 0, 51, 58
1, 222538, Note_off_c, 0, 68, 59
1, 222586, Note_off_c, 0, 80, 60
1, 222657, Control_c, 0, 64, 85
1, 222672, Control_c, 0, 64, 58
1, 222679, Note_on_c, 0, 81, 82
1, 222686, Control_c, 0, 64, 0
1, 222690, Note_on_c, 0, 69, 73
1, 222692, Note_on_c, 0, 75, 75
1, 222693, Note_on_c, 0, 78, 71
1, 222698, Note_on_c, 0, 48, 65
1, 222702, Note_on_c, 0, 60, 58
1, 222716, Control_c, 0, 64, 58
1, 222731, Control_c, 0, 64, 78
1, 222746, Control_c, 0, 64, 127
1, 222795, Note_off_c, 0, 60, 62
1, 222799, Note_off_c, 0, 48, 61
1, 222812, Note_off_c, 0, 69, 50
1, 222822, Note_off_c, 0, 81, 56
1, 222883, Note_off_c, 0, 78, 58
1, 222894, Note_off_c, 0, 75, 59
1, 222986, Note_on_c, 0, 82, 80
1, 222991, Note_on_c, 0, 46, 73
1, 222992, Note_on_c, 0, 70, 82
1, 222994, Note_on_c, 0, 58, 69
1, 222995, Note_on_c, 0, 78, 71
1, 222998, Note_on_c, 0, 75, 70
1, 223022, Note_off_c, 0, 82, 54
1, 223023, Note_off_c, 0, 58, 64
1, 223023, Note_off_c, 0, 75, 65
1, 223024, Note_off_c, 0, 78, 63
1, 223028, Note_off_c, 0, 46, 64
1, 223039, Note_off_c, 0, 70, 64
1, 223072, Control_c, 0, 64, 98
1, 223075, Note_on_c, 0, 83, 91
1, 223076, Note_on_c, 0, 75, 80
1, 223081, Note_on_c, 0, 45, 87
1, 223081, Note_on_c, 0, 78, 72
1, 223082, Note_on_c, 0, 57, 80
1, 223082, Note_on_c, 0, 71, 87
1, 223087, Control_c, 0, 64, 87
1, 223102, Control_c, 0, 64, 91
1, 223110, Note_off_c, 0, 45, 67
1, 223113, Note_off_c, 0, 57, 63
1, 223117, Control_c, 0, 64, 113
1, 223132, Control_c, 0, 64, 127
1, 223165, Note_off_c, 0, 71, 56
1, 223188, Note_off_c, 0, 83, 60
1, 223205, Note_off_c, 0, 75, 51
1, 223221, Note_off_c, 0, 78, 55
1, 223229, Control_c, 0, 64, 103
1, 223244, Control_c, 0, 64, 68
1, 223258, Control_c, 0, 64, 0
1, 223281, Note_on_c, 0, 66, 96
1, 223281, Note_on_c, 0, 81, 79
1, 223282, Note_on_c, 0, 54, 88
1, 223282, Note_on_c, 0, 84, 85
1, 223288, Note_on_c, 0, 72, 88
1, 223290, Note_on_c, 0, 75, 89
1, 223302, Control_c, 0, 64, 69
1, 223317, Control_c, 0, 64, 106
1, 223330, Note_off_c, 0, 66, 63
1, 223332, Control_c, 0, 64, 127
1, 223335, Note_off_c, 0, 81, 65
1, 223336, Note_off_c, 0, 75, 64
1, 223337, Note_off_c, 0, 54, 64
1, 223337, Note_off_c, 0, 72, 64
1, 223347, Note_off_c, 0, 84, 61
1, 223545, Note_on_c, 0, 85, 86
1, 223549, Note_on_c, 0, 81, 83
1, 223552, Note_on_c, 0, 73, 90
1, 223589, Note_off_c, 0, 85, 64
1, 223594, Note_off_c, 0, 81, 64
1, 223597, Note_off_c, 0, 73, 63
1, 223632, Note_on_c, 0, 86, 99
1, 223633, Note_on_c, 0, 54, 88
1, 223633, Note_on_c, 0, 81, 84
1, 223634, Note_on_c, 0, 66, 91
1, 223638, Note_on_c, 0, 74, 99
1, 223682, Note_off_c, 0, 66, 61
1, 223701, Note_off_c, 0, 54, 58
1, 223720, Note_off_c, 0, 74, 61
1, 223721, Note_off_c, 0, 86, 64
1, 223793, Control_c, 0, 64, 126
1, 223807, Control_c, 0, 64, 75
1, 223822, Control_c, 0, 64, 0
1, 223833, Note_on_c, 0, 78, 97
1, 223833, Note_on_c, 0, 87, 103
1, 223836, Note_on_c, 0, 75, 101
1, 223839, Note_on_c, 0, 63, 98
1, 223840, Note_on_c, 0, 51, 100
1, 223852, Control_c, 0, 64, 44
1, 223867, Control_c, 0, 64, 77
1, 223873, Note_off_c, 0, 81, 61
1, 223881, Control_c, 0, 64, 127
1, 223911, Note_off_c, 0, 78, 59
1, 223913, Note_off_c, 0, 63, 51
1, 223951, Note_off_c, 0, 75, 53
1, 223961, Note_off_c, 0, 51, 58
1, 223969, Note_off_c, 0, 87, 50
1, 224107, Note_on_c, 0, 88, 90
1, 224111, Note_on_c, 0, 49, 90
1, 224112, Note_on_c, 0, 81, 87
1, 224113, Note_on_c, 0, 76, 92
1, 224114, Note_on_c, 0, 61, 89
1, 224124, Poly_aftertouch_c, 0, 80, 0
1, 224152, Note_off_c, 0, 88, 65
1, 224154, Note_off_c, 0, 81, 65
1, 224156, Note_off_c, 0, 49, 65
1, 224156, Note_off_c, 0, 76, 63
1, 224158, Note_off_c, 0, 61, 64
1, 224184, Control_c, 0, 64, 84
1, 224190, Note_on_c, 0, 89, 109
1, 224192, Note_on_c, 0, 81, 93
1, 224195, Note_on_c, 0, 77, 95
1, 224198, Note_on_c, 0, 48, 100
1, 224199, Note_on_c, 0, 60, 98
1, 224199, Control_c, 0, 64, 62
1, 224214, Control_c, 0, 64, 62
1, 224229, Control_c, 0, 64, 74
1, 224237, Note_off_c, 0, 48, 66
1, 224241, Note_off_c, 0, 60, 68
1, 224241, Note_on_c, 0, 49, 39
1, 224242, Note_off_c, 0, 49, 127
1, 224244, Control_c, 0, 64, 97
1, 224258, Control_c, 0, 64, 127
1, 224308, Note_off_c, 0, 89, 62
1, 224312, Note_off_c, 0, 77, 63
1, 224351, Note_off_c, 0, 81, 57
1, 224377, Control_c, 0, 64, 110
1, 224392, Control_c, 0, 64, 67
1, 224406, Control_c, 0, 64, 0
1, 224426, Note_on_c, 0, 90, 100
1, 224427, Note_on_c, 0, 72, 104
1, 224428, Note_on_c, 0, 60, 103
1, 224429, Note_on_c, 0, 87, 94
1, 224431, Note_on_c, 0, 78, 115
1, 224434, Note_on_c, 0, 81, 95
1, 224435, Note_on_c, 0, 84, 89
1, 224437, Control_c, 0, 64, 64
1, 224452, Control_c, 0, 64, 101
1, 224454, Note_off_c, 0, 72, 70
1, 224465, Note_off_c, 0, 60, 69
1, 224467, Control_c, 0, 64, 127
1, 224485, Note_off_c, 0, 81, 61
1, 224487, Note_off_c, 0, 84, 62
1, 224490, Note_off_c, 0, 78, 68
1, 224519, Note_off_c, 0, 87, 63
1, 224525, Note_off_c, 0, 90, 63
1, 224734, Note_on_c, 0, 91, 99
1, 224738, Note_on_c, 0, 79, 93
1, 224741, Note_on_c, 0, 87, 94
1, 224769, Note_off_c, 0, 91, 68
1, 224774, Note_off_c, 0, 79, 66
1, 224788, Note_off_c, 0, 87, 65
1, 224792, Note_on_c, 0, 85, 11
1, 224815, Control_c, 0, 64, 84
1, 224829, Control_c, 0, 64, 59
1, 224831, Note_on_c, 0, 54, 104
1, 224831, Note_on_c, 0, 87, 101
1, 224831, Note_on_c, 0, 92, 109
1, 224831, Note_on_c, 0, 80, 108
1, 224832, Note_on_c, 0, 42, 97
1, 224844, Control_c, 0, 64, 63
1, 224850, Note_off_c, 0, 85, 38
1, 224859, Control_c, 0, 64, 72
1, 224873, Control_c, 0, 64, 91
1, 224888, Control_c, 0, 64, 127
1, 224953, Note_off_c, 0, 54, 56
1, 224971, Note_off_c, 0, 80, 59
1, 224978, Note_off_c, 0, 42, 57
1, 225042, Note_off_c, 0, 92, 62
1, 225080, Note_off_c, 0, 87, 63
1, 225081, Control_c, 0, 64, 109
1, 225096, Control_c, 0, 64, 71
1, 225111, Control_c, 0, 64, 0
1, 225126, Note_on_c, 0, 93, 104
1, 225129, Note_on_c, 0, 42, 92
1, 225129, Note_on_c, 0, 87, 102
1, 225130, Note_on_c, 0, 81, 110
1, 225131, Note_on_c, 0, 54, 97
1, 225141, Control_c, 0, 64, 66
1, 225154, Note_off_c, 0, 93, 70
1, 225155, Control_c, 0, 64, 99
1, 225164, Note_on_c, 0, 92, 42
1, 225165, Note_off_c, 0, 92, 127
1, 225166, Note_off_c, 0, 87, 69
1, 225167, Note_off_c, 0, 81, 72
1, 225170, Control_c, 0, 64, 127
1, 225174, Note_off_c, 0, 54, 66
1, 225189, Note_off_c, 0, 42, 63
1, 225490, Control_c, 0, 64, 99
1, 225497, Note_on_c, 0, 77, 95
1, 225502, Note_on_c, 0, 41, 89
1, 225502, Note_on_c, 0, 53, 97
1, 225502, Note_on_c, 0, 65, 91
1, 225504, Control_c, 0, 64, 66
1, 225519, Control_c, 0, 64, 0
1, 225536, Note_off_c, 0, 77, 66
1, 225542, Note_off_c, 0, 53, 66
1, 225544, Note_off_c, 0, 65, 66
1, 225546, Note_off_c, 0, 41, 64
1, 225549, Control_c, 0, 64, 58
1, 225564, Control_c, 0, 64, 75
1, 225578, Control_c, 0, 64, 127
1, 225589, Note_on_c, 0, 75, 97
1, 225594, Note_on_c, 0, 51, 95
1, 225595, Note_on_c, 0, 39, 100
1, 225595, Note_on_c, 0, 63, 101
1, 225612, Note_on_c, 0, 73, 50
1, 225630, Note_off_c, 0, 51, 68
1, 225631, Note_off_c, 0, 39, 63
1, 225638, Note_off_c, 0, 73, 58
1, 225639, Note_off_c, 0, 63, 65
1, 225656, Note_off_c, 0, 75, 63
1, 225830, Control_c, 0, 64, 81
1, 225845, Control_c, 0, 64, 0
1, 225886, Note_on_c, 0, 81, 104
1, 225889, Control_c, 0, 64, 41
1, 225891, Note_on_c, 0, 69, 100
1, 225892, Note_on_c, 0, 45, 97
1, 225892, Note_on_c, 0, 57, 99
1, 225904, Control_c, 0, 64, 82
1, 225919, Control_c, 0, 64, 127
1, 225921, Note_on_c, 0, 80, 55
1, 225930, Note_off_c, 0, 69, 69
1, 225931, Note_off_c, 0, 57, 67
1, 225941, Note_off_c, 0, 45, 68
1, 225944, Note_off_c, 0, 80, 62
1, 225945, Note_off_c, 0, 81, 68
1, 226157, Control_c, 0, 64, 87
1, 226172, Control_c, 0, 64, 0
1, 226464, Note_on_c, 0, 86, 100
1, 226466, Note_on_c, 0, 74, 103
1, 226466, Note_on_c, 0, 81, 93
1, 226468, Note_on_c, 0, 84, 92
1, 226475, Control_c, 0, 64, 63
1, 226477, Note_on_c, 0, 42, 93
1, 226477, Note_on_c, 0, 30, 90
1, 226490, Control_c, 0, 64, 92
1, 226505, Control_c, 0, 64, 127
1, 226536, Note_off_c, 0, 42, 59
1, 226556, Note_off_c, 0, 30, 60
1, 226590, Note_off_c, 0, 81, 57
1, 226604, Note_off_c, 0, 74, 55
1, 226634, Note_off_c, 0, 84, 53
1, 226772, Note_off_c, 0, 86, 34
1, 226817, Control_c, 0, 64, 106
1, 226822, Note_on_c, 0, 86, 95
1, 226824, Note_on_c, 0, 79, 99
1, 226825, Note_on_c, 0, 74, 102
1, 226826, Note_on_c, 0, 82, 101
1, 226831, Control_c, 0, 64, 64
1, 226834, Note_on_c, 0, 43, 91
1, 226837, Note_on_c, 0, 31, 87
1, 226846, Control_c, 0, 64, 0
1, 226906, Control_c, 0, 64, 38
1, 226921, Control_c, 0, 64, 84
1, 226936, Control_c, 0, 64, 127
1, 226941, Note_off_c, 0, 86, 62
1, 226971, Note_off_c, 0, 74, 59
1, 226980, Note_off_c, 0, 31, 61
1, 226996, Note_off_c, 0, 79, 57
1, 227008, Note_off_c, 0, 82, 61
1, 227052, Note_off_c, 0, 43, 60
1, 227300, Note_on_c, 0, 82, 91
1, 227310, Note_on_c, 0, 70, 83
1, 227310, Note_on_c, 0, 74, 84
1, 227316, Note_on_c, 0, 50, 81
1, 227317, Note_on_c, 0, 38, 79
1, 227365, Note_off_c, 0, 74, 65
1, 227373, Note_off_c, 0, 82, 63
1, 227378, Note_off_c, 0, 38, 62
1, 227393, Note_off_c, 0, 50, 62
1, 227397, Note_off_c, 0, 70, 65
1, 227578, Note_on_c, 0, 79, 90
1, 227581, Note_on_c, 0, 70, 85
1, 227582, Note_on_c, 0, 67, 86
1, 227584, Note_on_c, 0, 74, 81
1, 227595, Note_on_c, 0, 55, 96
1, 227595, Control_c, 0, 64, 78
1, 227598, Note_on_c, 0, 43, 90
1, 227610, Control_c, 0, 64, 0
1, 227670, Control_c, 0, 64, 68
1, 227684, Control_c, 0, 64, 97
1, 227706, Control_c, 0, 64, 127
1, 227745, Note_off_c, 0, 67, 56
1, 227747, Note_off_c, 0, 70, 62
1, 227749, Note_off_c, 0, 74, 62
1, 227779, Note_off_c, 0, 79, 60
1, 227895, Note_off_c, 0, 55, 58
1, 227978, Note_on_c, 0, 81, 97
1, 227980, Note_off_c, 0, 43, 53
1, 227981, Note_on_c, 0, 74, 101
1, 227982, Note_on_c, 0, 69, 101
1, 227989, Note_on_c, 0, 41, 91
1, 227991, Note_on_c, 0, 53, 101
1, 228067, Note_off_c, 0, 69, 62
1, 228068, Note_off_c, 0, 81, 63
1, 228090, Poly_aftertouch_c, 0, 43, 0
1, 228104, Note_off_c, 0, 53, 59
1, 228113, Note_off_c, 0, 41, 60
1, 228122, Note_off_c, 0, 74, 50
1, 228165, Control_c, 0, 64, 97
1, 228180, Control_c, 0, 64, 63
1, 228195, Control_c, 0, 64, 0
1, 228210, Note_on_c, 0, 82, 99
1, 228212, Note_on_c, 0, 70, 101
1, 228212, Note_on_c, 0, 74, 100
1, 228212, Note_on_c, 0, 79, 90
1, 228216, Note_on_c, 0, 52, 95
1, 228218, Note_on_c, 0, 40, 95
1, 228224, Control_c, 0, 64, 60
1, 228239, Control_c, 0, 64, 85
1, 228254, Note_on_c, 0, 78, 34
1, 228254, Control_c, 0, 64, 127
1, 228286, Note_off_c, 0, 82, 62
1, 228297, Note_off_c, 0, 79, 58
1, 228301, Note_off_c, 0, 70, 63
1, 228307, Note_off_c, 0, 78, 52
1, 228320, Note_off_c, 0, 74, 57
1, 228346, Note_off_c, 0, 52, 57
1, 228361, Note_off_c, 0, 40, 59
1, 228492, Note_on_c, 0, 50, 80
1, 228492, Note_on_c, 0, 38, 82
1, 228523, Note_off_c, 0, 50, 66
1, 228529, Control_c, 0, 64, 87
1, 228531, Note_off_c, 0, 38, 64
1, 228544, Control_c, 0, 64, 65
1, 228559, Control_c, 0, 64, 56
1, 228569, Note_on_c, 0, 79, 93
1, 228573, Note_on_c, 0, 67, 103
1, 228574, Control_c, 0, 64, 67
1, 228575, Note_on_c, 0, 70, 94
1, 228576, Note_on_c, 0, 49, 91
1, 228576, Note_on_c, 0, 76, 88
1, 228581, Note_on_c, 0, 37, 98
1, 228589, Control_c, 0, 64, 82
1, 228603, Control_c, 0, 64, 127
1, 228610, Note_off_c, 0, 37, 65
1, 228618, Note_off_c, 0, 49, 64
1, 228626, Note_off_c, 0, 79, 61
1, 228644, Note_off_c, 0, 76, 61
1, 228647, Note_off_c, 0, 67, 60
1, 228668, Note_off_c, 0, 70, 58
1, 228781, Control_c, 0, 64, 76
1, 228796, Control_c, 0, 64, 0
1, 228804, Note_on_c, 0, 76, 100
1, 228806, Note_on_c, 0, 64, 105
1, 228807, Note_on_c, 0, 46, 95
1, 228807, Note_on_c, 0, 58, 103
1, 228808, Note_on_c, 0, 73, 98
1, 228823, Note_on_c, 0, 67, 64
1, 228830, Note_on_c, 0, 68, 59
1, 228844, Note_off_c, 0, 67, 62
1, 228855, Note_off_c, 0, 68, 37
1, 228855, Control_c, 0, 64, 70
1, 228870, Control_c, 0, 64, 108
1, 228872, Note_off_c, 0, 64, 60
1, 228885, Control_c, 0, 64, 127
1, 228892, Note_off_c, 0, 76, 62
1, 228925, Poly_aftertouch_c, 0, 69, 0
1, 228933, Note_off_c, 0, 73, 60
1, 229060, Note_off_c, 0, 58, 58
1, 229097, Note_on_c, 0, 49, 21
1, 229127, Note_off_c, 0, 46, 62
1, 229177, Note_on_c, 0, 78, 101
1, 229179, Note_on_c, 0, 66, 100
1, 229181, Note_on_c, 0, 72, 97
1, 229181, Note_on_c, 0, 75, 92
1, 229183, Note_on_c, 0, 45, 96
1, 229183, Note_on_c, 0, 57, 96
1, 229227, Note_off_c, 0, 57, 67
1, 229235, Note_off_c, 0, 49, 52
1, 229254, Note_off_c, 0, 45, 67
1, 229302, Poly_aftertouch_c, 0, 51, 0
1, 229304, Note_off_c, 0, 66, 58
1, 229329, Note_off_c, 0, 75, 54
1, 229373, Note_off_c, 0, 78, 59
1, 229388, Note_off_c, 0, 72, 49
1, 229397, Control_c, 0, 64, 80
1, 229412, Control_c, 0, 64, 0
1, 229434, Note_on_c, 0, 46, 104
1, 229434, Note_on_c, 0, 34, 96
1, 229436, Note_on_c, 0, 79, 99
1, 229438, Note_on_c, 0, 67, 101
1, 229438, Note_on_c, 0, 74, 104
1, 229470, Control_c, 0, 64, 71
1, 229485, Control_c, 0, 64, 127
1, 229531, Note_off_c, 0, 79, 60
1, 229555, Note_off_c, 0, 67, 47
1, 229571, Note_off_c, 0, 74, 58
1, 229610, Note_off_c, 0, 46, 55
1, 229624, Note_off_c, 0, 34, 53
1, 229742, Note_on_c, 0, 33, 85
1, 229742, Note_on_c, 0, 45, 84
1, 229786, Note_off_c, 0, 45, 64
1, 229791, Note_off_c, 0, 33, 61
1, 229797, Control_c, 0, 64, 92
1, 229811, Control_c, 0, 64, 55
1, 229826, Control_c, 0, 64, 0
1, 229831, Note_on_c, 0, 76, 101
1, 229833, Note_on_c, 0, 70, 104
1, 229835, Note_on_c, 0, 64, 101
1, 229837, Note_on_c, 0, 43, 99
1, 229839, Note_on_c, 0, 31, 96
1, 229856, Control_c, 0, 64, 62
1, 229861, Note_on_c, 0, 32, 61
1, 229870, Control_c, 0, 64, 80
1, 229875, Note_on_c, 0, 75, 25
1, 229878, Note_off_c, 0, 43, 67
1, 229881, Note_off_c, 0, 31, 66
1, 229885, Control_c, 0, 64, 127
1, 229886, Note_off_c, 0, 76, 62
1, 229889, Note_off_c, 0, 64, 62
1, 229891, Note_off_c, 0, 32, 62
1, 229905, Note_off_c, 0, 70, 62
1, 229915, Note_off_c, 0, 75, 33
1, 229950, Poly_aftertouch_c, 0, 72, 0
1, 230127, Note_on_c, 0, 73, 107
1, 230129, Note_on_c, 0, 61, 112
1, 230131, Control_c, 0, 64, 79
1, 230132, Note_on_c, 0, 67, 97
1, 230132, Note_on_c, 0, 70, 95
1, 230136, Note_on_c, 0, 52, 100
1, 230137, Note_on_c, 0, 40, 94
1, 230146, Control_c, 0, 64, 0
1, 230294, Control_c, 0, 64, 67
1, 230309, Control_c, 0, 64, 84
1, 230324, Control_c, 0, 64, 127
1, 230400, Note_off_c, 0, 61, 57
1, 230498, Note_off_c, 0, 67, 27
1, 230543, Note_off_c, 0, 52, 51
1, 230546, Note_off_c, 0, 73, 57
1, 230562, Note_off_c, 0, 70, 43
1, 230605, Control_c, 0, 64, 99
1, 230620, Control_c, 0, 64, 65
1, 230632, Note_on_c, 0, 74, 101
1, 230635, Control_c, 0, 64, 0
1, 230636, Note_on_c, 0, 62, 99
1, 230636, Note_on_c, 0, 67, 97
1, 230638, Note_on_c, 0, 38, 89
1, 230638, Note_on_c, 0, 70, 97
1, 230641, Note_on_c, 0, 50, 97
1, 230650, Control_c, 0, 64, 37
1, 230657, Note_off_c, 0, 40, 0
1, 230665, Control_c, 0, 64, 67
1, 230680, Control_c, 0, 64, 86
1, 230701, Poly_aftertouch_c, 0, 40, 127
1, 230701, Control_c, 0, 64, 127
1, 230709, Note_off_c, 0, 74, 64
1, 230713, Note_off_c, 0, 62, 56
1, 230715, Note_off_c, 0, 50, 65
1, 230727, Note_off_c, 0, 38, 62
1, 230742, Note_off_c, 0, 70, 64
1, 230752, Poly_aftertouch_c, 0, 40, 0
1, 230816, Note_off_c, 0, 67, 50
1, 230895, Control_c, 0, 64, 76
1, 230910, Control_c, 0, 64, 0
1, 230941, Note_on_c, 0, 75, 97
1, 230944, Note_on_c, 0, 63, 108
1, 230946, Note_on_c, 0, 67, 103
1, 230947, Note_on_c, 0, 69, 91
1, 230951, Note_on_c, 0, 49, 102
1, 230953, Note_on_c, 0, 37, 100
1, 230954, Control_c, 0, 64, 71
1, 230969, Control_c, 0, 64, 127
1, 231034, Note_off_c, 0, 63, 57
1, 231052, Note_off_c, 0, 69, 56
1, 231070, Note_off_c, 0, 67, 49
1, 231073, Control_c, 0, 64, 93
1, 231088, Control_c, 0, 64, 65
1, 231103, Control_c, 0, 64, 0
1, 231139, Note_off_c, 0, 75, 30
1, 231232, Note_on_c, 0, 76, 97
1, 231236, Note_on_c, 0, 69, 96
1, 231237, Note_on_c, 0, 64, 103
1, 231237, Note_on_c, 0, 67, 103
1, 231250, Control_c, 0, 64, 84
1, 231265, Control_c, 0, 64, 127
1, 231275, Note_off_c, 0, 64, 67
1, 231279, Note_on_c, 0, 68, 17
1, 231280, Note_off_c, 0, 68, 127
1, 231280, Note_off_c, 0, 76, 66
1, 231281, Note_on_c, 0, 73, 19
1, 231312, Note_off_c, 0, 69, 58
1, 231314, Note_off_c, 0, 67, 56
1, 231324, Note_off_c, 0, 73, 53
1, 231384, Control_c, 0, 64, 97
1, 231398, Control_c, 0, 64, 61
1, 231413, Control_c, 0, 64, 0
1, 231485, Note_off_c, 0, 49, 62
1, 231544, Poly_aftertouch_c, 0, 39, 127
1, 231547, Note_on_c, 0, 36, 89
1, 231548, Note_on_c, 0, 48, 97
1, 231584, Control_c, 0, 64, 78
1, 231592, Note_off_c, 0, 37, 58
1, 231598, Control_c, 0, 64, 127
1, 231601, Poly_aftertouch_c, 0, 39, 0
1, 231737, Note_off_c, 0, 48, 57
1, 231745, Note_off_c, 0, 36, 61
1, 231851, Control_c, 0, 64, 97
1, 231866, Control_c, 0, 64, 67
1, 231868, Note_on_c, 0, 47, 100
1, 231870, Note_on_c, 0, 35, 91
1, 231881, Control_c, 0, 64, 38
1, 231896, Control_c, 0, 64, 65
1, 231911, Control_c, 0, 64, 83
1, 231926, Control_c, 0, 64, 127
1, 232008, Note_off_c, 0, 47, 62
1, 232059, Control_c, 0, 64, 89
1, 232073, Control_c, 0, 64, 65
1, 232088, Control_c, 0, 64, 61
1, 232096, Note_on_c, 0, 46, 100
1, 232102, Note_on_c, 0, 34, 90
1, 232103, Control_c, 0, 64, 73
1, 232118, Control_c, 0, 64, 103
1, 232128, Note_off_c, 0, 35, 62
1, 232133, Control_c, 0, 64, 127
1, 232210, Note_off_c, 0, 46, 59
1, 232243, Control_c, 0, 64, 95
1, 232258, Control_c, 0, 64, 62
1, 232272, Control_c, 0, 64, 0
1, 232273, Note_off_c, 0, 34, 0
1, 232279, Note_on_c, 0, 33, 93
1, 232280, Note_on_c, 0, 45, 102
1, 232287, Control_c, 0, 64, 47
1, 232294, Note_on_c, 0, 34, 46
1, 232302, Control_c, 0, 64, 71
1, 232317, Control_c, 0, 64, 103
1, 232318, Note_off_c, 0, 34, 63
1, 232332, Control_c, 0, 64, 127
1, 232401, Note_off_c, 0, 45, 59
1, 232403, Note_off_c, 0, 33, 56
1, 232466, Control_c, 0, 64, 90
1, 232477, Poly_aftertouch_c, 0, 34, 0
1, 232481, Control_c, 0, 64, 46
1, 232495, Control_c, 0, 64, 0
1, 232510, Note_on_c, 0, 89, 96
1, 232510, Note_on_c, 0, 93, 92
1, 232523, Note_on_c, 0, 33, 89
1, 232525, Note_on_c, 0, 45, 102
1, 232540, Control_c, 0, 64, 56
1, 232555, Control_c, 0, 64, 88
1, 232570, Control_c, 0, 64, 127
1, 232620, Note_off_c, 0, 33, 58
1, 232635, Note_off_c, 0, 45, 63
1, 232672, Note_on_c, 0, 88, 87
1, 232710, Note_off_c, 0, 93, 61
1, 232740, Note_off_c, 0, 89, 57
1, 232779, Note_on_c, 0, 86, 95
1, 232790, Note_on_c, 0, 38, 93
1, 232790, Note_on_c, 0, 50, 98
1, 232793, Note_off_c, 0, 88, 59
1, 232836, Note_on_c, 0, 39, 31
1, 232842, Note_off_c, 0, 50, 67
1, 232845, Note_off_c, 0, 38, 65
1, 232861, Note_off_c, 0, 86, 65
1, 232870, Note_on_c, 0, 81, 85
1, 232880, Note_off_c, 0, 39, 47
1, 232906, Note_off_c, 0, 81, 65
1, 232951, Poly_aftertouch_c, 0, 81, 0
1, 232957, Note_on_c, 0, 81, 76
1, 232967, Note_on_c, 0, 52, 103
1, 232967, Note_on_c, 0, 77, 77
1, 232971, Note_on_c, 0, 40, 98
1, 233001, Note_on_c, 0, 41, 38
1, 233002, Note_off_c, 0, 41, 127
1, 233014, Note_off_c, 0, 52, 66
1, 233021, Note_off_c, 0, 40, 66
1, 233033, Note_on_c, 0, 76, 89
1, 233043, Note_off_c, 0, 81, 58
1, 233082, Control_c, 0, 64, 91
1, 233086, Note_off_c, 0, 77, 59
1, 233096, Control_c, 0, 64, 0
1, 233109, Note_on_c, 0, 74, 61
1, 233124, Note_off_c, 0, 76, 66
1, 233124, Note_on_c, 0, 41, 92
1, 233130, Note_on_c, 0, 53, 102
1, 233167, Note_on_c, 0, 52, 27
1, 233168, Note_off_c, 0, 52, 127
1, 233184, Note_on_c, 0, 69, 83
1, 233189, Note_off_c, 0, 74, 66
1, 233221, Note_off_c, 0, 69, 66
1, 233273, Note_on_c, 0, 65, 71
1, 233319, Control_c, 0, 64, 55
1, 233334, Control_c, 0, 64, 68
1, 233349, Control_c, 0, 64, 82
1, 233351, Note_on_c, 0, 64, 68
1, 233364, Control_c, 0, 64, 127
1, 233382, Note_off_c, 0, 65, 59
1, 233388, Note_off_c, 0, 41, 60
1, 233409, Note_off_c, 0, 53, 59
1, 233412, Note_off_c, 0, 64, 64
1, 233420, Note_on_c, 0, 62, 74
1, 233488, Note_off_c, 0, 62, 61
1, 233512, Note_on_c, 0, 57, 68
1, 233541, Note_off_c, 0, 57, 66
1, 233660, Control_c, 0, 64, 78
1, 233674, Control_c, 0, 64, 0
1, 233679, Note_on_c, 0, 58, 69
1, 233704, Note_on_c, 0, 55, 68
1, 233771, Control_c, 0, 64, 65
1, 233780, Note_on_c, 0, 70, 63
1, 233783, Note_off_c, 0, 55, 57
1, 233784, Note_off_c, 0, 58, 59
1, 233786, Control_c, 0, 64, 79
1, 233789, Note_on_c, 0, 61, 69
1, 233800, Control_c, 0, 64, 115
1, 233802, Note_on_c, 0, 52, 65
1, 233815, Control_c, 0, 64, 127
1, 233825, Note_off_c, 0, 61, 62
1, 233837, Note_off_c, 0, 52, 64
1, 233845, Note_off_c, 0, 70, 61
1, 233863, Note_on_c, 0, 45, 61
1, 233881, Note_on_c, 0, 61, 73
1, 233896, Note_off_c, 0, 45, 63
1, 233925, Note_off_c, 0, 61, 61
1, 233944, Note_on_c, 0, 73, 81
1, 233947, Note_on_c, 0, 58, 82
1, 233954, Note_on_c, 0, 64, 75
1, 233986, Note_off_c, 0, 64, 64
1, 234009, Note_off_c, 0, 58, 61
1, 234015, Note_off_c, 0, 73, 63
1, 234028, Note_on_c, 0, 55, 75
1, 234032, Note_on_c, 0, 64, 83
1, 234075, Note_off_c, 0, 64, 65
1, 234091, Note_on_c, 0, 45, 73
1, 234101, Note_on_c, 0, 76, 95
1, 234105, Note_on_c, 0, 67, 83
1, 234120, Note_off_c, 0, 55, 53
1, 234127, Note_off_c, 0, 45, 57
1, 234144, Note_off_c, 0, 67, 58
1, 234154, Note_off_c, 0, 76, 66
1, 234176, Poly_aftertouch_c, 0, 52, 127
1, 234178, Note_on_c, 0, 61, 88
1, 234179, Note_on_c, 0, 67, 87
1, 234224, Note_off_c, 0, 61, 62
1, 234224, Poly_aftertouch_c, 0, 52, 0
1, 234240, Note_on_c, 0, 79, 95
1, 234245, Note_on_c, 0, 60, 23
1, 234249, Note_on_c, 0, 55, 84
1, 234250, Note_on_c, 0, 70, 93
1, 234257, Note_off_c, 0, 67, 57
1, 234280, Note_off_c, 0, 60, 54
1, 234287, Note_off_c, 0, 70, 68
1, 234293, Note_off_c, 0, 79, 54
1, 234313, Note_on_c, 0, 45, 86
1, 234330, Note_on_c, 0, 70, 96
1, 234354, Note_off_c, 0, 45, 64
1, 234396, Note_on_c, 0, 73, 100
1, 234396, Note_on_c, 0, 82, 100
1, 234412, Note_off_c, 0, 55, 63
1, 234416, Note_on_c, 0, 64, 97
1, 234419, Note_off_c, 0, 70, 61
1, 234447, Note_off_c, 0, 73, 65
1, 234460, Note_off_c, 0, 64, 69
1, 234467, Note_off_c, 0, 82, 63
1, 234485, Note_on_c, 0, 73, 96
1, 234537, Note_off_c, 0, 73, 64
1, 234553, Note_on_c, 0, 76, 102
1, 234553, Note_on_c, 0, 85, 98
1, 234585, Note_off_c, 0, 76, 70
1, 234611, Note_off_c, 0, 85, 64
1, 234711, Control_c, 0, 64, 90
1, 234726, Control_c, 0, 64, 0
1, 234742, Note_on_c, 0, 93, 100
1, 234745, Note_on_c, 0, 89, 87
1, 234751, Note_on_c, 0, 45, 103
1, 234752, Note_on_c, 0, 33, 86
1, 234799, Control_c, 0, 64, 69
1, 234816, Control_c, 0, 64, 127
1, 234818, Note_off_c, 0, 33, 61
1, 234826, Note_off_c, 0, 45, 63
1, 234898, Note_on_c, 0, 88, 93
1, 234922, Note_off_c, 0, 93, 60
1, 234954, Note_off_c, 0, 89, 59
1, 234979, Note_on_c, 0, 50, 94
1, 234980, Note_on_c, 0, 38, 91
1, 234989, Note_on_c, 0, 86, 93
1, 235001, Note_off_c, 0, 88, 64
1, 235029, Note_off_c, 0, 50, 68
1, 235033, Note_off_c, 0, 38, 65
1, 235063, Poly_aftertouch_c, 0, 39, 127
1, 235065, Note_off_c, 0, 86, 67
1, 235067, Note_on_c, 0, 81, 90
1, 235100, Note_off_c, 0, 81, 67
1, 235111, Poly_aftertouch_c, 0, 39, 0
1, 235141, Note_on_c, 0, 40, 95
1, 235141, Note_on_c, 0, 52, 101
1, 235150, Note_on_c, 0, 77, 82
1, 235156, Note_on_c, 0, 81, 66
1, 235165, Note_on_c, 0, 79, 64
1, 235194, Note_off_c, 0, 52, 65
1, 235196, Note_off_c, 0, 40, 66
1, 235196, Note_off_c, 0, 79, 56
1, 235205, Note_off_c, 0, 81, 54
1, 235222, Note_on_c, 0, 76, 92
1, 235269, Note_off_c, 0, 77, 61
1, 235293, Note_on_c, 0, 74, 72
1, 235297, Control_c, 0, 64, 84
1, 235303, Note_off_c, 0, 76, 66
1, 235306, Note_on_c, 0, 41, 95
1, 235308, Note_on_c, 0, 53, 100
1, 235312, Control_c, 0, 64, 0
1, 235370, Note_off_c, 0, 74, 66
1, 235371, Note_on_c, 0, 69, 81
1, 235402, Note_off_c, 0, 69, 64
1, 235458, Note_on_c, 0, 65, 68
1, 235461, Note_on_c, 0, 69, 48
1, 235505, Note_off_c, 0, 69, 62
1, 235529, Note_on_c, 0, 64, 69
1, 235534, Control_c, 0, 64, 57
1, 235549, Control_c, 0, 64, 71
1, 235558, Note_off_c, 0, 65, 58
1, 235563, Control_c, 0, 64, 92
1, 235578, Control_c, 0, 64, 127
1, 235586, Note_off_c, 0, 64, 65
1, 235588, Note_off_c, 0, 41, 61
1, 235608, Note_on_c, 0, 62, 62
1, 235628, Note_off_c, 0, 53, 60
1, 235666, Note_off_c, 0, 62, 61
1, 235687, Note_on_c, 0, 57, 64
1, 235709, Note_off_c, 0, 57, 64
1, 235846, Control_c, 0, 64, 89
1, 235854, Note_on_c, 0, 61, 61
1, 235861, Control_c, 0, 64, 61
1, 235863, Note_on_c, 0, 58, 62
1, 235875, Control_c, 0, 64, 0
1, 235940, Note_off_c, 0, 58, 62
1, 235941, Note_on_c, 0, 73, 61
1, 235943, Control_c, 0, 64, 51
1, 235950, Note_off_c, 0, 61, 60
1, 235953, Note_on_c, 0, 55, 66
1, 235958, Control_c, 0, 64, 74
1, 235970, Note_on_c, 0, 64, 50
1, 235973, Control_c, 0, 64, 104
1, 235987, Control_c, 0, 64, 127
1, 236001, Note_off_c, 0, 64, 66
1, 236020, Note_off_c, 0, 73, 61
1, 236041, Note_on_c, 0, 45, 66
1, 236049, Note_on_c, 0, 64, 71
1, 236074, Note_off_c, 0, 64, 70
1, 236075, Note_off_c, 0, 45, 57
1, 236113, Note_off_c, 0, 55, 31
1, 236114, Note_on_c, 0, 76, 80
1, 236117, Note_on_c, 0, 67, 76
1, 236130, Note_on_c, 0, 61, 82
1, 236151, Note_off_c, 0, 67, 60
1, 236171, Note_off_c, 0, 76, 57
1, 236178, Note_off_c, 0, 61, 63
1, 236194, Note_on_c, 0, 67, 82
1, 236196, Note_on_c, 0, 55, 77
1, 236248, Note_off_c, 0, 67, 58
1, 236260, Note_on_c, 0, 79, 87
1, 236262, Note_on_c, 0, 70, 91
1, 236265, Note_on_c, 0, 45, 81
1, 236272, Note_off_c, 0, 55, 49
1, 236299, Note_off_c, 0, 45, 64
1, 236304, Note_off_c, 0, 70, 65
1, 236311, Note_off_c, 0, 79, 61
1, 236346, Note_on_c, 0, 70, 92
1, 236352, Note_on_c, 0, 64, 99
1, 236356, Note_on_c, 0, 55, 2
1, 236363, Note_off_c, 0, 55, 0
1, 236403, Note_off_c, 0, 64, 66
1, 236407, Poly_aftertouch_c, 0, 55, 0
1, 236410, Note_on_c, 0, 82, 92
1, 236412, Note_on_c, 0, 73, 94
1, 236413, Note_off_c, 0, 70, 50
1, 236421, Note_on_c, 0, 55, 61
1, 236452, Note_off_c, 0, 73, 64
1, 236477, Note_off_c, 0, 82, 63
1, 236481, Note_off_c, 0, 55, 63
1, 236482, Note_on_c, 0, 45, 92
1, 236489, Note_on_c, 0, 73, 101
1, 236504, Note_on_c, 0, 49, 58
1, 236525, Note_off_c, 0, 73, 67
1, 236528, Note_off_c, 0, 45, 68
1, 236534, Note_off_c, 0, 49, 65
1, 236554, Poly_aftertouch_c, 0, 52, 127
1, 236563, Note_on_c, 0, 54, 27
1, 236564, Note_off_c, 0, 54, 127
1, 236565, Note_on_c, 0, 76, 91
1, 236569, Note_on_c, 0, 84, 83
1, 236570, Note_on_c, 0, 86, 86
1, 236579, Note_on_c, 0, 74, 47
1, 236586, Note_on_c, 0, 77, 55
1, 236594, Poly_aftertouch_c, 0, 52, 0
1, 236597, Note_on_c, 0, 67, 96
1, 236602, Note_off_c, 0, 76, 65
1, 236606, Note_off_c, 0, 74, 57
1, 236606, Note_off_c, 0, 77, 64
1, 236613, Note_on_c, 0, 65, 42
1, 236614, Note_off_c, 0, 65, 127
1, 236615, Note_off_c, 0, 86, 65
1, 236617, Note_off_c, 0, 84, 64
1, 236625, Note_off_c, 0, 67, 62
1, 236648, Note_on_c, 0, 76, 95
1, 236694, Note_on_c, 0, 77, 33
1, 236695, Note_off_c, 0, 77, 127
1, 236700, Note_off_c, 0, 76, 66
1, 236722, Note_on_c, 0, 88, 104
1, 236725, Note_on_c, 0, 79, 101
1, 236752, Note_off_c, 0, 79, 65
1, 236769, Note_off_c, 0, 88, 68
1, 236803, Note_on_c, 0, 37, 43
1, 236899, Control_c, 0, 64, 99
1, 236914, Control_c, 0, 64, 66
1, 236927, Note_off_c, 0, 37, 54
1, 236929, Control_c, 0, 64, 0
1, 236934, Note_on_c, 0, 45, 80
1, 236937, Note_on_c, 0, 33, 75
1, 236939, Note_on_c, 0, 98, 79
1, 236943, Note_on_c, 0, 89, 72
1, 236959, Note_on_c, 0, 100, 40
1, 236960, Note_off_c, 0, 100, 127
1, 236973, Note_on_c, 0, 91, 43
1, 236974, Note_off_c, 0, 91, 127
1, 237002, Control_c, 0, 64, 55
1, 237017, Control_c, 0, 64, 72
1, 237020, Note_off_c, 0, 33, 59
1, 237032, Control_c, 0, 64, 95
1, 237034, Note_off_c, 0, 45, 63
1, 237047, Control_c, 0, 64, 127
1, 237072, Note_off_c, 0, 89, 61
1, 237074, Note_on_c, 0, 93, 66
1, 237084, Note_off_c, 0, 98, 57
1, 237178, Note_on_c, 0, 38, 74
1, 237178, Note_on_c, 0, 50, 73
1, 237178, Note_on_c, 0, 89, 81
1, 237193, Note_off_c, 0, 93, 63
1, 237241, Note_off_c, 0, 50, 65
1, 237244, Note_off_c, 0, 38, 61
1, 237251, Note_on_c, 0, 86, 75
1, 237254, Note_off_c, 0, 89, 64
1, 237297, Note_off_c, 0, 86, 65
1, 237331, Note_on_c, 0, 93, 77
1, 237334, Note_on_c, 0, 86, 67
1, 237338, Note_on_c, 0, 52, 81
1, 237340, Note_on_c, 0, 40, 81
1, 237390, Note_off_c, 0, 40, 62
1, 237390, Note_off_c, 0, 52, 64
1, 237406, Note_on_c, 0, 89, 82
1, 237411, Note_off_c, 0, 86, 66
1, 237453, Note_off_c, 0, 93, 60
1, 237482, Note_on_c, 0, 86, 81
1, 237485, Control_c, 0, 64, 112
1, 237491, Note_on_c, 0, 55, 92
1, 237493, Note_on_c, 0, 43, 88
1, 237500, Control_c, 0, 64, 79
1, 237511, Note_off_c, 0, 89, 62
1, 237515, Control_c, 0, 64, 61
1, 237530, Control_c, 0, 64, 57
1, 237545, Control_c, 0, 64, 66
1, 237548, Note_off_c, 0, 55, 64
1, 237550, Note_on_c, 0, 81, 84
1, 237557, Note_off_c, 0, 86, 66
1, 237559, Control_c, 0, 64, 79
1, 237561, Note_off_c, 0, 43, 64
1, 237574, Control_c, 0, 64, 114
1, 237589, Control_c, 0, 64, 127
1, 237599, Note_off_c, 0, 81, 65
1, 237622, Note_on_c, 0, 89, 88
1, 237625, Note_on_c, 0, 81, 75
1, 237631, Note_on_c, 0, 41, 95
1, 237634, Note_on_c, 0, 53, 93
1, 237668, Note_on_c, 0, 42, 42
1, 237676, Note_off_c, 0, 53, 68
1, 237679, Note_off_c, 0, 41, 64
1, 237691, Note_on_c, 0, 86, 86
1, 237695, Note_off_c, 0, 81, 65
1, 237701, Note_off_c, 0, 42, 54
1, 237747, Note_off_c, 0, 89, 60
1, 237750, Note_on_c, 0, 44, 97
1, 237753, Note_on_c, 0, 56, 100
1, 237759, Note_on_c, 0, 81, 96
1, 237794, Note_off_c, 0, 86, 65
1, 237795, Note_off_c, 0, 56, 67
1, 237797, Note_off_c, 0, 44, 65
1, 237822, Note_on_c, 0, 77, 87
1, 237828, Note_off_c, 0, 81, 66
1, 237870, Control_c, 0, 64, 96
1, 237873, Note_off_c, 0, 77, 60
1, 237885, Control_c, 0, 64, 63
1, 237894, Note_on_c, 0, 77, 79
1, 237894, Note_on_c, 0, 86, 92
1, 237895, Note_on_c, 0, 46, 97
1, 237896, Note_on_c, 0, 58, 109
1, 237900, Control_c, 0, 64, 0
1, 237929, Control_c, 0, 64, 57
1, 237944, Note_off_c, 0, 58, 63
1, 237944, Control_c, 0, 64, 81
1, 237959, Control_c, 0, 64, 127
1, 237965, Note_on_c, 0, 81, 87
1, 237966, Note_off_c, 0, 46, 60
1, 237982, Note_off_c, 0, 77, 63
1, 237998, Note_off_c, 0, 86, 63
1, 238034, Note_on_c, 0, 45, 100
1, 238035, Note_on_c, 0, 57, 102
1, 238041, Note_on_c, 0, 77, 87
1, 238046, Note_on_c, 0, 79, 77
1, 238053, Note_off_c, 0, 81, 62
1, 238060, Note_on_c, 0, 46, 65
1, 238062, Note_off_c, 0, 79, 65
1, 238074, Note_off_c, 0, 46, 70
1, 238075, Note_off_c, 0, 57, 67
1, 238080, Note_off_c, 0, 45, 67
1, 238103, Note_on_c, 0, 74, 92
1, 238105, Note_off_c, 0, 77, 67
1, 238138, Control_c, 0, 64, 83
1, 238144, Note_off_c, 0, 74, 69
1, 238153, Control_c, 0, 64, 74
1, 238167, Control_c, 0, 64, 84
1, 238168, Note_on_c, 0, 49, 98
1, 238172, Note_on_c, 0, 81, 91
1, 238180, Note_on_c, 0, 61, 111
1, 238189, Note_on_c, 0, 74, 79
1, 238189, Control_c, 0, 64, 127
1, 238193, Note_on_c, 0, 72, 80
1, 238194, Note_on_c, 0, 48, 74
1, 238198, Poly_aftertouch_c, 0, 79, 0
1, 238212, Note_on_c, 0, 79, 17
1, 238215, Note_off_c, 0, 48, 64
1, 238219, Note_off_c, 0, 61, 65
1, 238226, Note_off_c, 0, 49, 63
1, 238227, Note_off_c, 0, 72, 50
1, 238257, Note_on_c, 0, 77, 89
1, 238259, Note_off_c, 0, 74, 66
1, 238298, Poly_aftertouch_c, 0, 60, 0
1, 238298, Note_off_c, 0, 81, 61
1, 238311, Note_off_c, 0, 79, 40
1, 238322, Control_c, 0, 64, 95
1, 238337, Control_c, 0, 64, 59
1, 238346, Note_on_c, 0, 74, 94
1, 238347, Note_on_c, 0, 52, 99
1, 238349, Note_on_c, 0, 64, 107
1, 238352, Control_c, 0, 64, 0
1, 238381, Control_c, 0, 64, 65
1, 238382, Note_off_c, 0, 77, 58
1, 238396, Control_c, 0, 64, 88
1, 238411, Control_c, 0, 64, 127
1, 238431, Note_on_c, 0, 69, 90
1, 238438, Note_off_c, 0, 74, 64
1, 238454, Note_off_c, 0, 64, 60
1, 238463, Note_off_c, 0, 52, 62
1, 238472, Note_on_c, 0, 54, 26
1, 238482, Note_off_c, 0, 69, 65
1, 238514, Control_c, 0, 64, 71
1, 238526, Note_on_c, 0, 77, 77
1, 238528, Note_off_c, 0, 54, 55
1, 238529, Note_on_c, 0, 69, 79
1, 238529, Control_c, 0, 64, 0
1, 238535, Note_on_c, 0, 62, 99
1, 238537, Note_on_c, 0, 50, 96
1, 238558, Control_c, 0, 64, 67
1, 238573, Control_c, 0, 64, 90
1, 238583, Note_off_c, 0, 62, 65
1, 238588, Control_c, 0, 64, 127
1, 238606, Note_on_c, 0, 74, 82
1, 238606, Note_off_c, 0, 69, 63
1, 238622, Note_off_c, 0, 50, 69
1, 238652, Note_off_c, 0, 77, 59
1, 238689, Note_on_c, 0, 69, 89
1, 238716, Note_off_c, 0, 74, 63
1, 238763, Note_on_c, 0, 65, 83
1, 238774, Note_off_c, 0, 69, 67
1, 238827, Note_off_c, 0, 65, 64
1, 238841, Control_c, 0, 64, 76
1, 238856, Control_c, 0, 64, 0
1, 238875, Note_on_c, 0, 32, 95
1, 238875, Note_on_c, 0, 44, 101
1, 238876, Note_on_c, 0, 74, 82
1, 238877, Note_on_c, 0, 65, 77
1, 238937, Control_c, 0, 64, 73
1, 238952, Control_c, 0, 64, 127
1, 239002, Note_off_c, 0, 32, 61
1, 239007, Note_off_c, 0, 44, 63
1, 239012, Poly_aftertouch_c, 0, 31, 0
1, 239022, Note_on_c, 0, 71, 74
1, 239032, Note_off_c, 0, 65, 61
1, 239065, Note_off_c, 0, 74, 56
1, 239125, Note_on_c, 0, 38, 91
1, 239126, Note_on_c, 0, 65, 87
1, 239127, Note_on_c, 0, 50, 98
1, 239156, Note_off_c, 0, 71, 64
1, 239187, Note_on_c, 0, 39, 9
1, 239193, Note_off_c, 0, 38, 63
1, 239198, Note_off_c, 0, 50, 66
1, 239210, Note_on_c, 0, 62, 76
1, 239215, Note_off_c, 0, 65, 65
1, 239243, Note_off_c, 0, 39, 49
1, 239263, Note_off_c, 0, 62, 62
1, 239295, Note_on_c, 0, 71, 76
1, 239298, Note_on_c, 0, 40, 97
1, 239298, Note_on_c, 0, 52, 100
1, 239305, Note_on_c, 0, 62, 63
1, 239354, Note_off_c, 0, 52, 64
1, 239357, Note_off_c, 0, 40, 65
1, 239373, Note_on_c, 0, 65, 79
1, 239380, Note_off_c, 0, 62, 60
1, 239391, Poly_aftertouch_c, 0, 42, 127
1, 239412, Note_off_c, 0, 71, 51
1, 239427, Poly_aftertouch_c, 0, 42, 0
1, 239450, Note_on_c, 0, 62, 79
1, 239456, Control_c, 0, 64, 82
1, 239459, Note_on_c, 0, 41, 94
1, 239461, Note_on_c, 0, 53, 97
1, 239470, Control_c, 0, 64, 0
1, 239471, Note_off_c, 0, 65, 64
1, 239527, Note_on_c, 0, 59, 72
1, 239529, Note_off_c, 0, 62, 63
1, 239574, Note_off_c, 0, 59, 61
1, 239589, Control_c, 0, 64, 59
1, 239605, Control_c, 0, 64, 71
1, 239608, Note_on_c, 0, 65, 76
1, 239619, Note_on_c, 0, 59, 52
1, 239620, Control_c, 0, 64, 90
1, 239634, Control_c, 0, 64, 127
1, 239697, Note_on_c, 0, 62, 69
1, 239704, Note_off_c, 0, 59, 60
1, 239710, Note_off_c, 0, 53, 59
1, 239735, Note_off_c, 0, 65, 50
1, 239754, Note_off_c, 0, 41, 62
1, 239786, Note_on_c, 0, 59, 71
1, 239793, Note_off_c, 0, 62, 59
1, 239876, Note_on_c, 0, 53, 74
1, 239902, Note_off_c, 0, 59, 50
1, 239949, Note_off_c, 0, 53, 62
1, 240039, Note_on_c, 0, 65, 67
1, 240043, Note_on_c, 0, 59, 67
1, 240097, Note_on_c, 0, 32, 92
1, 240098, Note_on_c, 0, 44, 98
1, 240132, Control_c, 0, 64, 80
1, 240146, Control_c, 0, 64, 0
1, 240207, Note_off_c, 0, 59, 58
1, 240231, Note_on_c, 0, 62, 56
1, 240274, Note_off_c, 0, 65, 62
1, 240323, Note_on_c, 0, 59, 66
1, 240339, Control_c, 0, 64, 55
1, 240353, Control_c, 0, 64, 70
1, 240368, Control_c, 0, 64, 86
1, 240383, Control_c, 0, 64, 127
1, 240398, Note_off_c, 0, 62, 38
1, 240399, Note_on_c, 0, 52, 70
1, 240403, Note_off_c, 0, 59, 60
1, 240493, Note_off_c, 0, 52, 60
1, 240496, Note_on_c, 0, 59, 58
1, 240498, Note_on_c, 0, 65, 62
1, 240581, Note_off_c, 0, 59, 51
1, 240599, Note_on_c, 0, 62, 62
1, 240636, Note_off_c, 0, 32, 57
1, 240674, Note_off_c, 0, 44, 53
1, 240679, Note_on_c, 0, 59, 64
1, 240688, Note_off_c, 0, 65, 54
1, 240722, Note_off_c, 0, 62, 61
1, 240770, Note_off_c, 0, 59, 61
1, 240782, Note_on_c, 0, 52, 72
1, 240928, Note_on_c, 0, 64, 75
1, 240931, Note_on_c, 0, 56, 74
1, 240940, Control_c, 0, 64, 97
1, 240942, Note_on_c, 0, 48, 89
1, 240947, Note_on_c, 0, 36, 86
1, 240954, Control_c, 0, 64, 71
1, 240969, Control_c, 0, 64, 0
1, 241014, Control_c, 0, 64, 63
1, 241028, Control_c, 0, 64, 80
1, 241043, Control_c, 0, 64, 127
1, 241061, Note_off_c, 0, 52, 37
1, 241107, Note_on_c, 0, 62, 70
1, 241152, Note_off_c, 0, 56, 63
1, 241176, Note_off_c, 0, 48, 57
1, 241236, Note_off_c, 0, 64, 58
1, 241244, Control_c, 0, 64, 80
1, 241259, Note_on_c, 0, 56, 81
1, 241259, Control_c, 0, 64, 0
1, 241268, Note_on_c, 0, 47, 89
1, 241271, Note_on_c, 0, 35, 84
1, 241292, Note_off_c, 0, 62, 62
1, 241296, Note_off_c, 0, 36, 57
1, 241304, Control_c, 0, 64, 63
1, 241319, Control_c, 0, 64, 78
1, 241333, Control_c, 0, 64, 127
1, 241381, Note_on_c, 0, 52, 78
1, 241405, Note_off_c, 0, 52, 65
1, 241423, Note_off_c, 0, 56, 64
1, 241456, Note_off_c, 0, 35, 53
1, 241461, Note_off_c, 0, 47, 56
1, 241531, Poly_aftertouch_c, 0, 37, 127
1, 241599, Control_c, 0, 64, 82
1, 241614, Control_c, 0, 64, 0
1, 241620, Note_on_c, 0, 93, 93
1, 241620, Note_on_c, 0, 89, 85
1, 241628, Note_on_c, 0, 33, 91
1, 241629, Note_on_c, 0, 45, 101
1, 241647, Poly_aftertouch_c, 0, 37, 0
1, 241688, Control_c, 0, 64, 64
1, 241703, Control_c, 0, 64, 83
1, 241718, Note_off_c, 0, 33, 60
1, 241718, Control_c, 0, 64, 127
1, 241744, Note_off_c, 0, 45, 62
1, 241778, Note_on_c, 0, 88, 95
1, 241805, Note_off_c, 0, 93, 57
1, 241843, Note_off_c, 0, 89, 59
1, 241883, Note_on_c, 0, 84, 91
1, 241892, Note_on_c, 0, 40, 98
1, 241892, Note_on_c, 0, 52, 100
1, 241906, Note_off_c, 0, 88, 61
1, 241943, Note_off_c, 0, 40, 66
1, 241944, Note_off_c, 0, 52, 64
1, 241973, Note_on_c, 0, 81, 88
1, 241973, Note_off_c, 0, 84, 69
1, 242010, Note_off_c, 0, 81, 67
1, 242063, Note_on_c, 0, 81, 78
1, 242064, Note_on_c, 0, 47, 98
1, 242064, Note_on_c, 0, 59, 101
1, 242069, Note_on_c, 0, 77, 78
1, 242103, Note_off_c, 0, 59, 69
1, 242106, Note_off_c, 0, 47, 69
1, 242138, Note_on_c, 0, 76, 90
1, 242165, Note_off_c, 0, 81, 59
1, 242186, Control_c, 0, 64, 116
1, 242195, Note_off_c, 0, 77, 58
1, 242200, Control_c, 0, 64, 71
1, 242215, Control_c, 0, 64, 0
1, 242216, Note_on_c, 0, 72, 94
1, 242225, Note_off_c, 0, 76, 63
1, 242225, Note_on_c, 0, 48, 99
1, 242225, Note_on_c, 0, 60, 102
1, 242284, Note_off_c, 0, 72, 67
1, 242293, Note_on_c, 0, 69, 81
1, 242307, Note_on_c, 0, 49, 18
1, 242308, Note_off_c, 0, 49, 127
1, 242326, Note_off_c, 0, 69, 65
1, 242367, Poly_aftertouch_c, 0, 69, 0
1, 242377, Note_on_c, 0, 65, 71
1, 242377, Note_on_c, 0, 69, 43
1, 242405, Note_off_c, 0, 60, 58
1, 242407, Control_c, 0, 64, 60
1, 242422, Control_c, 0, 64, 76
1, 242430, Note_off_c, 0, 69, 60
1, 242437, Control_c, 0, 64, 99
1, 242452, Control_c, 0, 64, 127
1, 242463, Note_on_c, 0, 64, 61
1, 242466, Note_off_c, 0, 48, 60
1, 242488, Note_off_c, 0, 65, 54
1, 242526, Note_on_c, 0, 60, 70
1, 242526, Note_off_c, 0, 64, 64
1, 242598, Note_off_c, 0, 60, 60
1, 242620, Note_on_c, 0, 57, 67
1, 242651, Note_off_c, 0, 57, 63
1, 242755, Control_c, 0, 64, 115
1, 242770, Control_c, 0, 64, 78
1, 242781, Note_on_c, 0, 56, 64
1, 242785, Control_c, 0, 64, 0
1, 242794, Note_on_c, 0, 53, 63
1, 242847, Note_off_c, 0, 56, 55
1, 242878, Note_on_c, 0, 68, 57
1, 242881, Note_on_c, 0, 59, 58
1, 242882, Note_on_c, 0, 50, 51
1, 242888, Note_off_c, 0, 53, 61
1, 242904, Control_c, 0, 64, 46
1, 242919, Control_c, 0, 64, 68
1, 242920, Note_off_c, 0, 59, 62
1, 242934, Control_c, 0, 64, 80
1, 242940, Note_off_c, 0, 68, 53
1, 242946, Note_on_c, 0, 45, 61
1, 242949, Control_c, 0, 64, 104
1, 242956, Poly_aftertouch_c, 0, 59, 0
1, 242964, Note_on_c, 0, 59, 56
1, 242964, Control_c, 0, 64, 127
1, 243000, Note_off_c, 0, 59, 61
1, 243034, Note_off_c, 0, 50, 33
1, 243042, Note_on_c, 0, 71, 77
1, 243045, Note_on_c, 0, 56, 66
1, 243045, Note_on_c, 0, 62, 70
1, 243072, Note_off_c, 0, 62, 66
1, 243082, Note_off_c, 0, 71, 52
1, 243101, Note_on_c, 0, 53, 69
1, 243106, Note_off_c, 0, 45, 36
1, 243106, Note_off_c, 0, 56, 62
1, 243122, Note_on_c, 0, 62, 86
1, 243164, Note_off_c, 0, 62, 60
1, 243169, Note_off_c, 0, 53, 62
1, 243182, Note_on_c, 0, 45, 76
1, 243190, Note_on_c, 0, 65, 81
1, 243191, Note_on_c, 0, 74, 88
1, 243222, Note_off_c, 0, 65, 61
1, 243244, Note_off_c, 0, 45, 62
1, 243244, Note_off_c, 0, 74, 63
1, 243253, Note_on_c, 0, 59, 93
1, 243263, Note_on_c, 0, 65, 84
1, 243323, Note_off_c, 0, 59, 58
1, 243329, Note_on_c, 0, 53, 83
1, 243331, Note_on_c, 0, 68, 94
1, 243332, Note_on_c, 0, 77, 94
1, 243337, Note_off_c, 0, 65, 55
1, 243364, Note_off_c, 0, 68, 66
1, 243369, Note_off_c, 0, 77, 66
1, 243397, Note_on_c, 0, 45, 88
1, 243424, Note_on_c, 0, 68, 100
1, 243466, Note_off_c, 0, 45, 65
1, 243471, Note_off_c, 0, 68, 64
1, 243483, Note_on_c, 0, 80, 100
1, 243483, Poly_aftertouch_c, 0, 47, 127
1, 243493, Note_on_c, 0, 72, 80
1, 243493, Note_off_c, 0, 53, 26
1, 243495, Note_on_c, 0, 71, 79
1, 243501, Note_on_c, 0, 62, 98
1, 243515, Note_off_c, 0, 71, 72
1, 243522, Note_off_c, 0, 72, 62
1, 243527, Note_on_c, 0, 81, 38
1, 243536, Poly_aftertouch_c, 0, 47, 0
1, 243548, Note_off_c, 0, 62, 66
1, 243548, Note_off_c, 0, 80, 65
1, 243556, Note_off_c, 0, 81, 57
1, 243576, Note_on_c, 0, 71, 102
1, 243613, Note_off_c, 0, 71, 72
1, 243647, Note_on_c, 0, 83, 103
1, 243650, Note_on_c, 0, 74, 101
1, 243682, Note_off_c, 0, 74, 70
1, 243702, Note_off_c, 0, 83, 69
1, 243802, Control_c, 0, 64, 90
1, 243817, Control_c, 0, 64, 29
1, 243832, Control_c, 0, 64, 0
1, 243834, Poly_aftertouch_c, 0, 37, 127
1, 243850, Note_on_c, 0, 93, 101
1, 243854, Note_on_c, 0, 89, 93
1, 243861, Note_on_c, 0, 33, 87
1, 243861, Note_on_c, 0, 45, 103
1, 243870, Poly_aftertouch_c, 0, 37, 0
1, 243906, Control_c, 0, 64, 74
1, 243920, Control_c, 0, 64, 127
1, 243939, Note_off_c, 0, 33, 61
1, 243954, Note_off_c, 0, 45, 65
1, 244010, Note_on_c, 0, 88, 97
1, 244040, Note_off_c, 0, 93, 56
1, 244082, Note_off_c, 0, 89, 59
1, 244108, Note_on_c, 0, 84, 93
1, 244110, Note_on_c, 0, 52, 106
1, 244112, Note_on_c, 0, 40, 98
1, 244128, Note_off_c, 0, 88, 63
1, 244155, Note_off_c, 0, 52, 66
1, 244155, Note_off_c, 0, 40, 66
1, 244193, Note_off_c, 0, 84, 68
1, 244195, Note_on_c, 0, 81, 89
1, 244234, Note_off_c, 0, 81, 67
1, 244281, Note_on_c, 0, 81, 80
1, 244286, Note_on_c, 0, 77, 79
1, 244287, Note_on_c, 0, 59, 102
1, 244288, Note_on_c, 0, 47, 100
1, 244326, Note_off_c, 0, 59, 67
1, 244330, Note_off_c, 0, 47, 69
1, 244358, Note_on_c, 0, 76, 90
1, 244386, Note_off_c, 0, 81, 61
1, 244420, Note_off_c, 0, 77, 57
1, 244432, Control_c, 0, 64, 84
1, 244439, Note_on_c, 0, 72, 94
1, 244447, Control_c, 0, 64, 0
1, 244448, Note_off_c, 0, 76, 64
1, 244449, Note_on_c, 0, 60, 98
1, 244450, Note_on_c, 0, 48, 98
1, 244507, Note_off_c, 0, 72, 68
1, 244514, Note_on_c, 0, 69, 82
1, 244541, Note_off_c, 0, 69, 65
1, 244595, Note_on_c, 0, 65, 74
1, 244628, Note_off_c, 0, 60, 58
1, 244639, Control_c, 0, 64, 51
1, 244654, Control_c, 0, 64, 69
1, 244669, Control_c, 0, 64, 86
1, 244678, Note_off_c, 0, 48, 63
1, 244679, Note_on_c, 0, 64, 65
1, 244684, Control_c, 0, 64, 127
1, 244695, Note_off_c, 0, 65, 55
1, 244744, Note_on_c, 0, 60, 69
1, 244744, Note_off_c, 0, 64, 64
1, 244816, Note_off_c, 0, 60, 60
1, 244840, Note_on_c, 0, 57, 74
1, 244877, Note_off_c, 0, 57, 61
1, 244988, Control_c, 0, 64, 83
1, 244995, Note_on_c, 0, 59, 74
1, 245002, Control_c, 0, 64, 26
1, 245015, Note_on_c, 0, 56, 72
1, 245017, Control_c, 0, 64, 0
1, 245070, Note_off_c, 0, 59, 60
1, 245091, Control_c, 0, 64, 46
1, 245101, Note_off_c, 0, 56, 58
1, 245106, Note_on_c, 0, 71, 67
1, 245106, Control_c, 0, 64, 69
1, 245107, Note_on_c, 0, 53, 69
1, 245110, Note_on_c, 0, 62, 62
1, 245120, Control_c, 0, 64, 89
1, 245135, Control_c, 0, 64, 127
1, 245145, Note_off_c, 0, 62, 63
1, 245166, Note_off_c, 0, 71, 63
1, 245177, Note_off_c, 0, 53, 61
1, 245183, Note_on_c, 0, 45, 71
1, 245198, Note_on_c, 0, 62, 70
1, 245233, Note_off_c, 0, 62, 57
1, 245253, Note_off_c, 0, 45, 62
1, 245265, Note_on_c, 0, 65, 80
1, 245265, Note_on_c, 0, 74, 85
1, 245265, Note_on_c, 0, 59, 82
1, 245298, Note_off_c, 0, 65, 63
1, 245319, Note_off_c, 0, 74, 63
1, 245342, Note_off_c, 0, 59, 57
1, 245348, Note_on_c, 0, 53, 76
1, 245352, Note_on_c, 0, 65, 76
1, 245364, Note_on_c, 0, 67, 74
1, 245404, Note_off_c, 0, 65, 55
1, 245406, Note_off_c, 0, 67, 45
1, 245412, Note_on_c, 0, 77, 89
1, 245414, Note_on_c, 0, 45, 87
1, 245417, Note_on_c, 0, 68, 83
1, 245431, Note_off_c, 0, 53, 57
1, 245435, Note_off_c, 0, 68, 72
1, 245456, Note_off_c, 0, 45, 65
1, 245459, Note_off_c, 0, 77, 63
1, 245496, Note_on_c, 0, 62, 95
1, 245496, Note_on_c, 0, 68, 101
1, 245555, Note_off_c, 0, 68, 61
1, 245558, Note_off_c, 0, 62, 60
1, 245563, Note_on_c, 0, 80, 88
1, 245570, Note_on_c, 0, 71, 74
1, 245570, Note_on_c, 0, 72, 76
1, 245575, Note_on_c, 0, 53, 81
1, 245593, Note_off_c, 0, 71, 71
1, 245595, Note_off_c, 0, 72, 68
1, 245629, Note_off_c, 0, 80, 64
1, 245633, Note_on_c, 0, 45, 95
1, 245647, Note_on_c, 0, 71, 100
1, 245650, Note_off_c, 0, 53, 66
1, 245689, Note_off_c, 0, 45, 69
1, 245698, Note_off_c, 0, 71, 70
1, 245730, Note_on_c, 0, 83, 101
1, 245733, Note_on_c, 0, 74, 101
1, 245749, Note_on_c, 0, 65, 97
1, 245767, Note_off_c, 0, 74, 66
1, 245784, Note_off_c, 0, 65, 68
1, 245796, Note_off_c, 0, 83, 62
1, 245817, Note_on_c, 0, 74, 106
1, 245863, Note_off_c, 0, 74, 70
1, 245894, Note_on_c, 0, 86, 102
1, 245897, Note_on_c, 0, 77, 97
1, 245929, Note_off_c, 0, 77, 69
1, 245945, Note_off_c, 0, 86, 68
1, 245987, Note_on_c, 0, 37, 20
1, 246109, Control_c, 0, 64, 104
1, 246123, Control_c, 0, 64, 70
1, 246132, Note_off_c, 0, 37, 37
1, 246136, Note_on_c, 0, 93, 85
1, 246136, Note_on_c, 0, 100, 78
1, 246138, Control_c, 0, 64, 0
1, 246139, Note_on_c, 0, 45, 69
1, 246142, Note_on_c, 0, 33, 68
1, 246212, Control_c, 0, 64, 65
1, 246227, Control_c, 0, 64, 83
1, 246241, Control_c, 0, 64, 127
1, 246242, Note_off_c, 0, 33, 58
1, 246257, Note_off_c, 0, 45, 60
1, 246288, Note_on_c, 0, 96, 72
1, 246294, Note_off_c, 0, 93, 61
1, 246340, Note_off_c, 0, 100, 53
1, 246399, Note_on_c, 0, 93, 79
1, 246400, Note_on_c, 0, 40, 74
1, 246415, Note_on_c, 0, 52, 66
1, 246419, Note_off_c, 0, 96, 60
1, 246450, Note_off_c, 0, 40, 62
1, 246452, Note_off_c, 0, 52, 62
1, 246490, Note_off_c, 0, 93, 63
1, 246492, Note_on_c, 0, 88, 78
1, 246536, Note_off_c, 0, 88, 61
1, 246571, Note_on_c, 0, 96, 74
1, 246577, Note_on_c, 0, 44, 75
1, 246579, Note_on_c, 0, 88, 62
1, 246582, Note_on_c, 0, 56, 80
1, 246627, Note_off_c, 0, 56, 57
1, 246630, Note_off_c, 0, 44, 58
1, 246651, Note_off_c, 0, 88, 64
1, 246652, Note_on_c, 0, 93, 74
1, 246702, Note_off_c, 0, 96, 58
1, 246721, Control_c, 0, 64, 95
1, 246729, Note_on_c, 0, 47, 84
1, 246729, Note_on_c, 0, 59, 83
1, 246730, Note_on_c, 0, 88, 84
1, 246736, Control_c, 0, 64, 72
1, 246751, Control_c, 0, 64, 58
1, 246764, Note_off_c, 0, 93, 63
1, 246765, Control_c, 0, 64, 63
1, 246780, Control_c, 0, 64, 73
1, 246793, Note_off_c, 0, 59, 60
1, 246796, Control_c, 0, 64, 91
1, 246798, Note_on_c, 0, 84, 81
1, 246799, Note_off_c, 0, 47, 64
1, 246803, Note_off_c, 0, 88, 65
1, 246811, Control_c, 0, 64, 127
1, 246842, Note_off_c, 0, 84, 64
1, 246865, Note_on_c, 0, 93, 87
1, 246870, Note_on_c, 0, 84, 71
1, 246881, Note_on_c, 0, 57, 90
1, 246882, Note_on_c, 0, 45, 92
1, 246936, Note_on_c, 0, 88, 83
1, 246936, Note_off_c, 0, 57, 64
1, 246939, Note_off_c, 0, 45, 65
1, 246956, Note_off_c, 0, 84, 61
1, 246989, Note_off_c, 0, 93, 39
1, 247004, Note_on_c, 0, 84, 84
1, 247008, Note_on_c, 0, 47, 92
1, 247009, Note_on_c, 0, 59, 93
1, 247037, Note_off_c, 0, 88, 65
1, 247049, Note_off_c, 0, 47, 68
1, 247056, Note_off_c, 0, 59, 64
1, 247072, Note_off_c, 0, 84, 66
1, 247075, Note_on_c, 0, 81, 84
1, 247108, Control_c, 0, 64, 114
1, 247119, Note_off_c, 0, 81, 62
1, 247122, Control_c, 0, 64, 73
1, 247137, Control_c, 0, 64, 0
1, 247138, Note_on_c, 0, 81, 76
1, 247143, Note_on_c, 0, 88, 90
1, 247144, Note_on_c, 0, 50, 101
1, 247144, Note_on_c, 0, 62, 96
1, 247174, Control_c, 0, 64, 56
1, 247189, Control_c, 0, 64, 72
1, 247203, Control_c, 0, 64, 100
1, 247204, Note_off_c, 0, 62, 64
1, 247206, Note_off_c, 0, 50, 66
1, 247212, Note_on_c, 0, 51, 16
1, 247218, Control_c, 0, 64, 127
1, 247220, Note_on_c, 0, 84, 85
1, 247230, Note_off_c, 0, 81, 62
1, 247265, Note_off_c, 0, 88, 59
1, 247266, Note_off_c, 0, 51, 50
1, 247293, Note_on_c, 0, 81, 92
1, 247295, Note_on_c, 0, 48, 97
1, 247295, Note_on_c, 0, 60, 99
1, 247313, Note_off_c, 0, 84, 66
1, 247322, Note_on_c, 0, 49, 61
1, 247339, Note_off_c, 0, 48, 66
1, 247340, Note_off_c, 0, 60, 69
1, 247348, Note_off_c, 0, 49, 60
1, 247353, Note_on_c, 0, 76, 88
1, 247357, Note_off_c, 0, 81, 66
1, 247406, Note_off_c, 0, 76, 63
1, 247428, Note_on_c, 0, 51, 95
1, 247429, Note_on_c, 0, 76, 88
1, 247429, Note_on_c, 0, 84, 87
1, 247430, Note_on_c, 0, 63, 105
1, 247468, Note_off_c, 0, 63, 66
1, 247470, Note_off_c, 0, 51, 66
1, 247505, Note_on_c, 0, 81, 89
1, 247513, Note_off_c, 0, 76, 63
1, 247553, Note_off_c, 0, 84, 59
1, 247574, Control_c, 0, 64, 85
1, 247590, Control_c, 0, 64, 0
1, 247595, Note_on_c, 0, 76, 96
1, 247598, Note_on_c, 0, 53, 102
1, 247599, Note_on_c, 0, 65, 101
1, 247618, Note_on_c, 0, 54, 76
1, 247634, Control_c, 0, 64, 65
1, 247639, Note_off_c, 0, 81, 61
1, 247643, Note_off_c, 0, 54, 67
1, 247649, Control_c, 0, 64, 92
1, 247664, Control_c, 0, 64, 127
1, 247679, Note_on_c, 0, 72, 85
1, 247701, Note_off_c, 0, 76, 63
1, 247703, Note_off_c, 0, 65, 59
1, 247721, Note_off_c, 0, 53, 64
1, 247722, Note_on_c, 0, 54, 21
1, 247740, Note_off_c, 0, 72, 64
1, 247754, Note_off_c, 0, 54, 54
1, 247767, Control_c, 0, 64, 121
1, 247779, Note_on_c, 0, 81, 80
1, 247782, Control_c, 0, 64, 72
1, 247784, Note_on_c, 0, 72, 72
1, 247790, Note_on_c, 0, 52, 96
1, 247791, Note_on_c, 0, 64, 102
1, 247797, Control_c, 0, 64, 0
1, 247823, Note_on_c, 0, 54, 49
1, 247826, Control_c, 0, 64, 65
1, 247841, Control_c, 0, 64, 83
1, 247850, Note_off_c, 0, 54, 61
1, 247850, Note_off_c, 0, 64, 65
1, 247856, Control_c, 0, 64, 127
1, 247864, Note_on_c, 0, 76, 80
1, 247873, Note_off_c, 0, 72, 58
1, 247889, Note_off_c, 0, 52, 64
1, 247901, Note_off_c, 0, 81, 57
1, 247956, Note_on_c, 0, 72, 85
1, 247981, Note_off_c, 0, 76, 64
1, 248035, Note_on_c, 0, 69, 86
1, 248048, Note_off_c, 0, 72, 63
1, 248097, Note_off_c, 0, 69, 64
1, 248160, Control_c, 0, 64, 104
1, 248167, Note_on_c, 0, 76, 75
1, 248168, Note_on_c, 0, 69, 78
1, 248175, Control_c, 0, 64, 68
1, 248178, Note_on_c, 0, 43, 100
1, 248179, Note_on_c, 0, 31, 95
1, 248190, Control_c, 0, 64, 0
1, 248210, Note_on_c, 0, 32, 48
1, 248246, Note_off_c, 0, 32, 55
1, 248273, Note_off_c, 0, 69, 62
1, 248289, Note_on_c, 0, 72, 66
1, 248323, Note_off_c, 0, 76, 60
1, 248352, Control_c, 0, 64, 43
1, 248362, Note_on_c, 0, 69, 71
1, 248367, Control_c, 0, 64, 69
1, 248382, Control_c, 0, 64, 89
1, 248389, Note_off_c, 0, 72, 63
1, 248398, Control_c, 0, 64, 127
1, 248428, Note_on_c, 0, 64, 79
1, 248431, Note_off_c, 0, 69, 63
1, 248467, Note_off_c, 0, 64, 54
1, 248515, Note_on_c, 0, 72, 59
1, 248515, Note_on_c, 0, 64, 65
1, 248523, Note_on_c, 0, 74, 56
1, 248544, Note_off_c, 0, 74, 62
1, 248573, Note_on_c, 0, 69, 72
1, 248583, Note_off_c, 0, 64, 63
1, 248607, Note_off_c, 0, 72, 58
1, 248641, Note_on_c, 0, 64, 72
1, 248681, Note_off_c, 0, 69, 61
1, 248724, Note_on_c, 0, 60, 78
1, 248729, Note_off_c, 0, 64, 65
1, 248768, Note_off_c, 0, 60, 62
1, 248794, Note_on_c, 0, 69, 74
1, 248810, Note_on_c, 0, 60, 58
1, 248878, Note_on_c, 0, 64, 74
1, 248884, Note_off_c, 0, 60, 62
1, 248911, Note_off_c, 0, 69, 57
1, 248955, Note_on_c, 0, 60, 82
1, 248963, Note_off_c, 0, 43, 59
1, 248985, Note_off_c, 0, 64, 63
1, 249023, Note_on_c, 0, 57, 79
1, 249033, Note_off_c, 0, 60, 68
1, 249088, Note_off_c, 0, 57, 62
1, 249156, Note_on_c, 0, 64, 80
1, 249176, Note_on_c, 0, 42, 99
1, 249182, Note_on_c, 0, 30, 87
1, 249191, Control_c, 0, 64, 88
1, 249196, Note_on_c, 0, 57, 55
1, 249206, Control_c, 0, 64, 63
1, 249215, Note_off_c, 0, 31, 63
1, 249221, Control_c, 0, 64, 0
1, 249268, Note_off_c, 0, 57, 39
1, 249307, Note_on_c, 0, 60, 61
1, 249325, Control_c, 0, 64, 50
1, 249339, Control_c, 0, 64, 66
1, 249354, Control_c, 0, 64, 80
1, 249369, Control_c, 0, 64, 107
1, 249380, Note_on_c, 0, 57, 64
1, 249381, Note_off_c, 0, 64, 57
1, 249383, Control_c, 0, 64, 127
1, 249447, Note_off_c, 0, 60, 62
1, 249474, Note_on_c, 0, 52, 68
1, 249486, Note_off_c, 0, 57, 60
1, 249504, Note_off_c, 0, 52, 63
1, 249620, Note_on_c, 0, 69, 85
1, 249637, Note_on_c, 0, 60, 72
1, 249756, Note_off_c, 0, 60, 59
1, 249768, Note_on_c, 0, 64, 63
1, 249790, Note_off_c, 0, 42, 58
1, 249853, Poly_aftertouch_c, 0, 32, 127
1, 249874, Note_on_c, 0, 41, 88
1, 249877, Note_on_c, 0, 29, 79
1, 249880, Control_c, 0, 64, 110
1, 249889, Note_on_c, 0, 60, 58
1, 249895, Control_c, 0, 64, 78
1, 249901, Poly_aftertouch_c, 0, 32, 0
1, 249909, Control_c, 0, 64, 0
1, 249914, Note_off_c, 0, 30, 61
1, 249915, Note_off_c, 0, 69, 58
1, 249941, Note_off_c, 0, 64, 62
1, 249984, Control_c, 0, 64, 59
1, 249988, Note_off_c, 0, 60, 65
1, 249996, Note_on_c, 0, 57, 60
1, 249999, Control_c, 0, 64, 71
1, 250014, Control_c, 0, 64, 90
1, 250029, Control_c, 0, 64, 127
1, 250029, Note_off_c, 0, 57, 62
1, 250091, Note_on_c, 0, 64, 61
1, 250122, Note_on_c, 0, 57, 47
1, 250164, Note_off_c, 0, 57, 64
1, 250186, Note_on_c, 0, 60, 48
1, 250190, Note_off_c, 0, 64, 55
1, 250261, Note_on_c, 0, 57, 56
1, 250262, Note_off_c, 0, 60, 58
1, 250308, Note_off_c, 0, 41, 58
1, 250333, Note_off_c, 0, 57, 59
1, 250344, Note_on_c, 0, 52, 62
1, 250392, Note_off_c, 0, 52, 61
1, 250509, Note_on_c, 0, 64, 61
1, 250510, Control_c, 0, 64, 104
1, 250525, Control_c, 0, 64, 80
1, 250532, Note_on_c, 0, 60, 50
1, 250533, Note_on_c, 0, 28, 61
1, 250536, Note_on_c, 0, 40, 57
1, 250539, Note_off_c, 0, 29, 62
1, 250539, Control_c, 0, 64, 54
1, 250554, Control_c, 0, 64, 0
1, 250643, Control_c, 0, 64, 34
1, 250646, Note_off_c, 0, 60, 55
1, 250649, Note_off_c, 0, 64, 63
1, 250658, Control_c, 0, 64, 64
1, 250673, Control_c, 0, 64, 75
1, 250674, Note_on_c, 0, 65, 50
1, 250688, Control_c, 0, 64, 86
1, 250689, Note_on_c, 0, 59, 37
1, 250702, Control_c, 0, 64, 103
1, 250717, Control_c, 0, 64, 127
1, 250725, Note_off_c, 0, 28, 56
1, 250729, Note_off_c, 0, 59, 57
1, 250734, Note_off_c, 0, 65, 52
1, 250762, Note_on_c, 0, 64, 42
1, 250785, Note_on_c, 0, 60, 42
1, 250793, Note_off_c, 0, 40, 57
1, 250825, Note_off_c, 0, 60, 52
1, 250843, Note_off_c, 0, 64, 58
1, 250869, Note_on_c, 0, 65, 43
1, 250870, Note_on_c, 0, 57, 39
1, 250921, Note_off_c, 0, 57, 57
1, 250921, Note_off_c, 0, 65, 48
1, 250938, Note_on_c, 0, 60, 43
1, 250950, Note_on_c, 0, 64, 26
1, 251039, Note_off_c, 0, 60, 39
1, 251039, Note_off_c, 0, 64, 61
1, 251053, Note_on_c, 0, 59, 50
1, 251069, Note_on_c, 0, 65, 31
1, 251123, Note_off_c, 0, 59, 52
1, 251137, Note_off_c, 0, 65, 42
1, 251147, Note_on_c, 0, 52, 64
1, 251153, Note_on_c, 0, 40, 56
1, 251155, Control_c, 0, 64, 97
1, 251166, Note_on_c, 0, 64, 32
1, 251170, Control_c, 0, 64, 79
1, 251176, Note_on_c, 0, 60, 37
1, 251185, Control_c, 0, 64, 66
1, 251200, Control_c, 0, 64, 39
1, 251215, Control_c, 0, 64, 42
1, 251229, Control_c, 0, 64, 62
1, 251239, Note_off_c, 0, 60, 53
1, 251244, Control_c, 0, 64, 69
1, 251259, Control_c, 0, 64, 80
1, 251260, Note_off_c, 0, 64, 49
1, 251272, Note_on_c, 0, 57, 46
1, 251274, Control_c, 0, 64, 96
1, 251279, Note_on_c, 0, 65, 34
1, 251289, Control_c, 0, 64, 127
1, 251314, Note_off_c, 0, 57, 59
1, 251325, Note_off_c, 0, 65, 50
1, 251349, Note_on_c, 0, 60, 36
1, 251354, Note_on_c, 0, 64, 40
1, 251356, Note_off_c, 0, 40, 54
1, 251360, Note_off_c, 0, 52, 55
1, 251406, Note_off_c, 0, 60, 60
1, 251406, Note_off_c, 0, 64, 59
1, 251435, Note_on_c, 0, 65, 46
1, 251436, Note_on_c, 0, 59, 52
1, 251483, Note_off_c, 0, 65, 53
1, 251497, Note_off_c, 0, 59, 50
1, 251504, Note_on_c, 0, 52, 62
1, 251506, Note_on_c, 0, 40, 62
1, 251516, Note_on_c, 0, 60, 49
1, 251518, Note_on_c, 0, 64, 54
1, 251565, Note_off_c, 0, 52, 62
1, 251582, Note_off_c, 0, 40, 62
1, 251595, Note_off_c, 0, 64, 63
1, 251597, Note_off_c, 0, 60, 59
1, 251612, Note_on_c, 0, 57, 54
1, 251614, Note_on_c, 0, 65, 42
1, 251685, Note_off_c, 0, 57, 54
1, 251697, Control_c, 0, 64, 103
1, 251705, Note_on_c, 0, 48, 68
1, 251712, Note_on_c, 0, 36, 63
1, 251712, Control_c, 0, 64, 77
1, 251713, Note_off_c, 0, 65, 38
1, 251720, Note_on_c, 0, 64, 47
1, 251722, Note_on_c, 0, 60, 45
1, 251727, Control_c, 0, 64, 0
1, 251771, Control_c, 0, 64, 42
1, 251785, Control_c, 0, 64, 66
1, 251790, Note_off_c, 0, 60, 58
1, 251799, Note_off_c, 0, 64, 64
1, 251800, Control_c, 0, 64, 77
1, 251811, Note_on_c, 0, 59, 52
1, 251815, Control_c, 0, 64, 102
1, 251819, Note_on_c, 0, 65, 46
1, 251830, Control_c, 0, 64, 127
1, 251832, Note_off_c, 0, 36, 55
1, 251850, Note_off_c, 0, 48, 47
1, 251860, Note_off_c, 0, 59, 58
1, 251879, Note_off_c, 0, 65, 54
1, 251889, Note_on_c, 0, 64, 50
1, 251904, Note_on_c, 0, 60, 48
1, 251969, Note_on_c, 0, 47, 75
1, 251974, Note_off_c, 0, 64, 63
1, 251978, Note_on_c, 0, 35, 64
1, 251981, Note_off_c, 0, 60, 60
1, 251990, Note_on_c, 0, 65, 58
1, 251991, Note_on_c, 0, 57, 63
1, 252010, Note_off_c, 0, 47, 62
1, 252012, Note_off_c, 0, 35, 65
1, 252047, Note_off_c, 0, 57, 55
1, 252057, Note_on_c, 0, 60, 46
1, 252059, Note_off_c, 0, 65, 57
1, 252068, Note_on_c, 0, 64, 48
1, 252080, Note_on_c, 0, 33, 74
1, 252083, Note_on_c, 0, 45, 73
1, 252113, Note_off_c, 0, 33, 61
1, 252118, Note_off_c, 0, 45, 64
1, 252130, Note_off_c, 0, 60, 62
1, 252142, Note_off_c, 0, 64, 62
1, 252158, Note_on_c, 0, 59, 60
1, 252167, Note_on_c, 0, 65, 36
1, 252209, Note_off_c, 0, 59, 52
1, 252215, Control_c, 0, 64, 102
1, 252230, Control_c, 0, 64, 75
1, 252244, Note_off_c, 0, 65, 44
1, 252245, Control_c, 0, 64, 0
1, 252247, Note_on_c, 0, 60, 54
1, 252251, Note_on_c, 0, 64, 50
1, 252253, Note_on_c, 0, 52, 73
1, 252256, Note_on_c, 0, 40, 74
1, 252303, Control_c, 0, 64, 62
1, 252310, Note_off_c, 0, 60, 63
1, 252315, Note_off_c, 0, 64, 64
1, 252318, Control_c, 0, 64, 74
1, 252333, Note_on_c, 0, 57, 57
1, 252333, Control_c, 0, 64, 91
1, 252336, Note_on_c, 0, 65, 50
1, 252348, Control_c, 0, 64, 127
1, 252381, Note_off_c, 0, 57, 56
1, 252391, Note_off_c, 0, 65, 48
1, 252417, Note_on_c, 0, 64, 48
1, 252422, Note_off_c, 0, 52, 59
1, 252436, Note_on_c, 0, 60, 37
1, 252479, Note_off_c, 0, 60, 63
1, 252482, Note_off_c, 0, 40, 57
1, 252485, Note_off_c, 0, 64, 61
1, 252503, Note_on_c, 0, 59, 63
1, 252506, Note_on_c, 0, 65, 50
1, 252549, Note_off_c, 0, 65, 48
1, 252563, Note_off_c, 0, 59, 52
1, 252572, Note_on_c, 0, 64, 53
1, 252590, Note_on_c, 0, 60, 48
1, 252652, Note_on_c, 0, 65, 59
1, 252652, Note_off_c, 0, 64, 63
1, 252654, Note_off_c, 0, 60, 62
1, 252672, Note_on_c, 0, 57, 61
1, 252730, Note_off_c, 0, 65, 59
1, 252732, Note_off_c, 0, 57, 45
1, 252788, Note_on_c, 0, 60, 51
1, 252792, Note_on_c, 0, 63, 58
1, 252807, Note_on_c, 0, 40, 72
1, 252808, Note_on_c, 0, 28, 74
1, 252816, Control_c, 0, 64, 90
1, 252831, Control_c, 0, 64, 69
1, 252846, Control_c, 0, 64, 0
1, 252879, Note_off_c, 0, 60, 62
1, 252881, Note_off_c, 0, 63, 59
1, 252900, Note_on_c, 0, 66, 53
1, 252902, Note_on_c, 0, 59, 55
1, 252905, Control_c, 0, 64, 59
1, 252920, Control_c, 0, 64, 72
1, 252935, Control_c, 0, 64, 88
1, 252950, Control_c, 0, 64, 127
1, 252950, Note_off_c, 0, 66, 51
1, 252956, Note_off_c, 0, 59, 51
1, 252972, Note_off_c, 0, 28, 51
1, 252974, Note_on_c, 0, 63, 49
1, 252978, Note_on_c, 0, 60, 50
1, 253028, Note_off_c, 0, 40, 59
1, 253044, Note_off_c, 0, 63, 61
1, 253050, Note_off_c, 0, 60, 62
1, 253054, Note_on_c, 0, 66, 62
1, 253054, Note_on_c, 0, 57, 65
1, 253120, Note_off_c, 0, 57, 59
1, 253127, Note_on_c, 0, 63, 62
1, 253129, Note_off_c, 0, 66, 59
1, 253146, Note_on_c, 0, 60, 49
1, 253221, Note_off_c, 0, 60, 63
1, 253222, Note_off_c, 0, 63, 60
1, 253226, Note_on_c, 0, 59, 70
1, 253230, Note_on_c, 0, 66, 64
1, 253290, Note_off_c, 0, 59, 57
1, 253317, Note_off_c, 0, 66, 55
1, 253324, Note_on_c, 0, 63, 59
1, 253328, Note_on_c, 0, 60, 58
1, 253336, Note_on_c, 0, 52, 90
1, 253340, Note_on_c, 0, 40, 81
1, 253343, Control_c, 0, 64, 117
1, 253357, Control_c, 0, 64, 84
1, 253372, Control_c, 0, 64, 65
1, 253387, Control_c, 0, 64, 0
1, 253412, Note_off_c, 0, 63, 62
1, 253417, Control_c, 0, 64, 44
1, 253425, Note_on_c, 0, 57, 59
1, 253430, Note_on_c, 0, 66, 57
1, 253430, Note_off_c, 0, 60, 64
1, 253431, Control_c, 0, 64, 66
1, 253446, Control_c, 0, 64, 80
1, 253461, Control_c, 0, 64, 106
1, 253476, Control_c, 0, 64, 127
1, 253495, Note_off_c, 0, 57, 52
1, 253500, Note_on_c, 0, 60, 52
1, 253500, Note_on_c, 0, 63, 62
1, 253505, Note_off_c, 0, 66, 58
1, 253545, Note_off_c, 0, 40, 61
1, 253562, Note_off_c, 0, 52, 57
1, 253585, Note_on_c, 0, 66, 65
1, 253585, Note_off_c, 0, 63, 61
1, 253591, Note_on_c, 0, 59, 73
1, 253597, Note_off_c, 0, 60, 58
1, 253657, Note_off_c, 0, 59, 57
1, 253672, Note_on_c, 0, 63, 66
1, 253674, Note_on_c, 0, 52, 87
1, 253674, Note_on_c, 0, 60, 57
1, 253677, Note_on_c, 0, 40, 78
1, 253678, Note_off_c, 0, 66, 57
1, 253743, Note_off_c, 0, 52, 60
1, 253763, Note_off_c, 0, 63, 61
1, 253764, Note_on_c, 0, 57, 72
1, 253770, Note_off_c, 0, 40, 62
1, 253770, Note_on_c, 0, 66, 65
1, 253782, Note_off_c, 0, 60, 61
1, 253846, Control_c, 0, 64, 123
1, 253851, Note_off_c, 0, 57, 42
1, 253855, Note_on_c, 0, 63, 68
1, 253856, Note_on_c, 0, 60, 58
1, 253861, Control_c, 0, 64, 79
1, 253863, Note_off_c, 0, 66, 59
1, 253869, Note_on_c, 0, 48, 90
1, 253871, Note_on_c, 0, 36, 82
1, 253875, Control_c, 0, 64, 0
1, 253943, Control_c, 0, 64, 64
1, 253952, Note_off_c, 0, 63, 62
1, 253957, Control_c, 0, 64, 79
1, 253963, Note_on_c, 0, 66, 66
1, 253964, Note_on_c, 0, 59, 75
1, 253970, Note_off_c, 0, 60, 62
1, 253972, Control_c, 0, 64, 115
1, 253987, Control_c, 0, 64, 127
1, 254002, Note_off_c, 0, 48, 59
1, 254020, Note_off_c, 0, 36, 60
1, 254033, Note_off_c, 0, 59, 59
1, 254042, Note_on_c, 0, 63, 71
1, 254054, Note_on_c, 0, 60, 50
1, 254063, Note_off_c, 0, 66, 55
1, 254125, Note_on_c, 0, 47, 78
1, 254127, Note_on_c, 0, 35, 81
1, 254134, Note_off_c, 0, 63, 61
1, 254136, Note_on_c, 0, 57, 70
1, 254136, Note_on_c, 0, 66, 61
1, 254143, Note_off_c, 0, 60, 63
1, 254165, Note_off_c, 0, 47, 64
1, 254169, Note_off_c, 0, 35, 63
1, 254187, Note_off_c, 0, 57, 59
1, 254203, Note_on_c, 0, 63, 73
1, 254212, Note_on_c, 0, 60, 61
1, 254214, Note_on_c, 0, 45, 89
1, 254216, Note_on_c, 0, 33, 89
1, 254225, Note_off_c, 0, 66, 57
1, 254266, Note_off_c, 0, 33, 62
1, 254269, Note_off_c, 0, 45, 65
1, 254292, Note_on_c, 0, 59, 73
1, 254292, Note_off_c, 0, 63, 59
1, 254297, Note_on_c, 0, 66, 63
1, 254299, Note_off_c, 0, 60, 61
1, 254317, Poly_aftertouch_c, 0, 34, 0
1, 254341, Poly_aftertouch_c, 0, 34, 0
1, 254361, Note_off_c, 0, 59, 51
1, 254373, Control_c, 0, 64, 97
1, 254381, Note_on_c, 0, 63, 72
1, 254384, Note_off_c, 0, 66, 60
1, 254387, Control_c, 0, 64, 64
1, 254388, Note_on_c, 0, 60, 63
1, 254393, Note_on_c, 0, 40, 93
1, 254393, Note_on_c, 0, 52, 96
1, 254402, Control_c, 0, 64, 0
1, 254466, Note_on_c, 0, 57, 69
1, 254466, Note_off_c, 0, 63, 63
1, 254470, Note_off_c, 0, 60, 63
1, 254474, Note_on_c, 0, 66, 62
1, 254491, Control_c, 0, 64, 62
1, 254506, Control_c, 0, 64, 73
1, 254521, Control_c, 0, 64, 96
1, 254536, Control_c, 0, 64, 127
1, 254536, Note_off_c, 0, 57, 58
1, 254544, Note_on_c, 0, 63, 73
1, 254547, Note_on_c, 0, 60, 59
1, 254554, Note_off_c, 0, 66, 61
1, 254559, Note_off_c, 0, 52, 58
1, 254612, Note_off_c, 0, 40, 62
1, 254623, Note_on_c, 0, 66, 73
1, 254630, Note_off_c, 0, 63, 61
1, 254631, Note_off_c, 0, 60, 62
1, 254635, Note_on_c, 0, 59, 74
1, 254708, Note_off_c, 0, 59, 55
1, 254714, Note_on_c, 0, 63, 75
1, 254718, Note_off_c, 0, 66, 62
1, 254723, Note_on_c, 0, 60, 69
1, 254798, Note_on_c, 0, 66, 80
1, 254804, Note_off_c, 0, 63, 61
1, 254813, Note_on_c, 0, 57, 74
1, 254817, Note_off_c, 0, 60, 61
1, 254920, Note_off_c, 0, 66, 62
1, 254941, Note_on_c, 0, 64, 65
1, 254945, Note_on_c, 0, 60, 68
1, 254963, Note_on_c, 0, 40, 89
1, 254966, Note_on_c, 0, 28, 88
1, 254971, Note_off_c, 0, 57, 31
1, 254974, Control_c, 0, 64, 103
1, 254989, Control_c, 0, 64, 75
1, 255003, Control_c, 0, 64, 0
1, 255081, Note_on_c, 0, 69, 67
1, 255081, Note_off_c, 0, 64, 63
1, 255087, Note_off_c, 0, 60, 62
1, 255091, Note_on_c, 0, 59, 65
1, 255121, Control_c, 0, 64, 36
1, 255136, Control_c, 0, 64, 65
1, 255151, Control_c, 0, 64, 80
1, 255161, Note_on_c, 0, 64, 57
1, 255165, Note_off_c, 0, 59, 50
1, 255166, Control_c, 0, 64, 109
1, 255170, Note_off_c, 0, 69, 60
1, 255178, Note_on_c, 0, 60, 61
1, 255181, Control_c, 0, 64, 127
1, 255216, Note_off_c, 0, 28, 54
1, 255251, Note_on_c, 0, 69, 71
1, 255252, Note_off_c, 0, 64, 64
1, 255257, Note_on_c, 0, 57, 72
1, 255257, Note_off_c, 0, 40, 60
1, 255259, Note_off_c, 0, 60, 63
1, 255328, Note_off_c, 0, 57, 51
1, 255329, Note_on_c, 0, 64, 60
1, 255329, Note_on_c, 0, 60, 65
1, 255348, Note_off_c, 0, 69, 59
1, 255421, Note_on_c, 0, 59, 83
1, 255422, Note_on_c, 0, 69, 69
1, 255430, Note_off_c, 0, 64, 62
1, 255445, Note_off_c, 0, 60, 60
1, 255508, Note_off_c, 0, 59, 55
1, 255511, Note_on_c, 0, 64, 71
1, 255513, Note_on_c, 0, 60, 62
1, 255527, Note_off_c, 0, 69, 60
1, 255529, Note_on_c, 0, 52, 89
1, 255534, Note_on_c, 0, 40, 88
1, 255544, Control_c, 0, 64, 102
1, 255559, Control_c, 0, 64, 80
1, 255574, Control_c, 0, 64, 67
1, 255590, Control_c, 0, 64, 64
1, 255605, Control_c, 0, 64, 69
1, 255618, Note_off_c, 0, 64, 63
1, 255620, Control_c, 0, 64, 83
1, 255625, Note_on_c, 0, 57, 74
1, 255627, Note_off_c, 0, 60, 62
1, 255630, Note_on_c, 0, 69, 71
1, 255634, Control_c, 0, 64, 119
1, 255649, Control_c, 0, 64, 127
1, 255704, Note_on_c, 0, 64, 68
1, 255707, Note_off_c, 0, 57, 60
1, 255712, Note_on_c, 0, 60, 70
1, 255727, Note_off_c, 0, 69, 61
1, 255738, Note_off_c, 0, 40, 61
1, 255743, Note_off_c, 0, 52, 61
1, 255797, Note_on_c, 0, 59, 85
1, 255804, Note_off_c, 0, 60, 64
1, 255804, Note_off_c, 0, 64, 62
1, 255807, Note_on_c, 0, 69, 67
1, 255856, Control_c, 0, 64, 94
1, 255862, Note_off_c, 0, 59, 53
1, 255863, Note_on_c, 0, 52, 91
1, 255865, Note_on_c, 0, 40, 88
1, 255871, Note_on_c, 0, 64, 72
1, 255871, Control_c, 0, 64, 81
1, 255877, Note_on_c, 0, 60, 70
1, 255885, Note_off_c, 0, 69, 60
1, 255886, Control_c, 0, 64, 80
1, 255901, Control_c, 0, 64, 85
1, 255916, Control_c, 0, 64, 104
1, 255931, Control_c, 0, 64, 127
1, 255964, Note_on_c, 0, 57, 82
1, 255964, Note_off_c, 0, 40, 60
1, 255970, Note_off_c, 0, 52, 59
1, 255970, Note_on_c, 0, 69, 80
1, 255973, Note_off_c, 0, 60, 64
1, 255974, Note_off_c, 0, 64, 63
1, 256051, Note_off_c, 0, 57, 43
1, 256067, Note_on_c, 0, 64, 68
1, 256068, Note_on_c, 0, 60, 76
1, 256083, Note_on_c, 0, 40, 90
1, 256083, Note_on_c, 0, 52, 95
1, 256084, Note_off_c, 0, 69, 58
1, 256093, Control_c, 0, 64, 91
1, 256108, Control_c, 0, 64, 64
1, 256123, Control_c, 0, 64, 0
1, 256190, Note_off_c, 0, 64, 62
1, 256190, Control_c, 0, 64, 62
1, 256190, Note_on_c, 0, 69, 73
1, 256194, Note_on_c, 0, 59, 71
1, 256200, Note_off_c, 0, 60, 64
1, 256205, Control_c, 0, 64, 81
1, 256220, Control_c, 0, 64, 127
1, 256250, Note_off_c, 0, 52, 60
1, 256266, Note_off_c, 0, 40, 62
1, 256272, Note_on_c, 0, 64, 69
1, 256273, Note_on_c, 0, 60, 68
1, 256279, Note_off_c, 0, 59, 57
1, 256283, Note_off_c, 0, 69, 60
1, 256359, Note_on_c, 0, 50, 94
1, 256363, Note_on_c, 0, 38, 88
1, 256366, Note_on_c, 0, 57, 77
1, 256367, Control_c, 0, 64, 90
1, 256369, Note_off_c, 0, 64, 62
1, 256369, Note_on_c, 0, 69, 75
1, 256374, Note_off_c, 0, 60, 64
1, 256383, Control_c, 0, 64, 63
1, 256398, Control_c, 0, 64, 0
1, 256408, Note_off_c, 0, 50, 68
1, 256409, Note_off_c, 0, 38, 65
1, 256413, Control_c, 0, 64, 49
1, 256428, Control_c, 0, 64, 68
1, 256436, Note_off_c, 0, 57, 52
1, 256443, Control_c, 0, 64, 86
1, 256447, Note_on_c, 0, 60, 67
1, 256447, Note_on_c, 0, 64, 68
1, 256455, Note_on_c, 0, 48, 103
1, 256457, Control_c, 0, 64, 127
1, 256458, Note_on_c, 0, 36, 93
1, 256474, Note_off_c, 0, 69, 60
1, 256503, Note_off_c, 0, 36, 64
1, 256505, Note_off_c, 0, 48, 66
1, 256549, Note_on_c, 0, 59, 81
1, 256549, Note_on_c, 0, 69, 72
1, 256550, Note_off_c, 0, 64, 64
1, 256557, Note_off_c, 0, 60, 63
1, 256614, Note_off_c, 0, 59, 57
1, 256649, Control_c, 0, 64, 92
1, 256661, Note_on_c, 0, 45, 96
1, 256663, Note_on_c, 0, 60, 63
1, 256664, Note_on_c, 0, 57, 93
1, 256664, Control_c, 0, 64, 43
1, 256668, Note_on_c, 0, 64, 63
1, 256673, Note_off_c, 0, 69, 58
1, 256679, Control_c, 0, 64, 0
1, 256739, Control_c, 0, 64, 37
1, 256754, Control_c, 0, 64, 67
1, 256764, Note_off_c, 0, 64, 59
1, 256766, Note_off_c, 0, 60, 60
1, 256768, Control_c, 0, 64, 88
1, 256775, Note_on_c, 0, 69, 71
1, 256783, Control_c, 0, 64, 127
1, 256841, Note_off_c, 0, 57, 59
1, 256848, Note_off_c, 0, 69, 61
1, 256849, Note_on_c, 0, 64, 57
1, 256850, Note_on_c, 0, 60, 67
1, 256901, Note_off_c, 0, 45, 58
1, 256936, Note_on_c, 0, 69, 65
1, 256938, Note_off_c, 0, 64, 60
1, 256939, Note_off_c, 0, 60, 62
1, 256940, Note_on_c, 0, 59, 79
1, 256988, Note_off_c, 0, 59, 59
1, 257018, Note_on_c, 0, 64, 67
1, 257023, Note_on_c, 0, 41, 96
1, 257023, Note_on_c, 0, 53, 97
1, 257025, Note_on_c, 0, 60, 73
1, 257032, Note_off_c, 0, 69, 58
1, 257105, Note_on_c, 0, 57, 80
1, 257108, Note_off_c, 0, 53, 62
1, 257109, Note_off_c, 0, 60, 65
1, 257110, Note_off_c, 0, 64, 64
1, 257111, Note_on_c, 0, 69, 70
1, 257120, Note_off_c, 0, 41, 62
1, 257160, Note_off_c, 0, 57, 60
1, 257190, Note_on_c, 0, 64, 67
1, 257195, Note_on_c, 0, 60, 66
1, 257205, Control_c, 0, 64, 86
1, 257207, Note_on_c, 0, 40, 96
1, 257207, Note_on_c, 0, 52, 97
1, 257210, Note_off_c, 0, 69, 58
1, 257220, Control_c, 0, 64, 50
1, 257235, Control_c, 0, 64, 0
1, 257243, Note_on_c, 0, 42, 51
1, 257271, Note_off_c, 0, 42, 57
1, 257279, Control_c, 0, 64, 61
1, 257285, Note_off_c, 0, 64, 64
1, 257287, Note_on_c, 0, 59, 83
1, 257291, Note_off_c, 0, 60, 63
1, 257294, Control_c, 0, 64, 76
1, 257296, Note_on_c, 0, 69, 70
1, 257309, Control_c, 0, 64, 111
1, 257323, Control_c, 0, 64, 127
1, 257353, Note_off_c, 0, 59, 55
1, 257364, Note_on_c, 0, 64, 70
1, 257372, Note_on_c, 0, 60, 69
1, 257377, Note_off_c, 0, 69, 58
1, 257391, Note_off_c, 0, 52, 59
1, 257398, Note_on_c, 0, 42, 21
1, 257422, Note_off_c, 0, 40, 61
1, 257438, Note_off_c, 0, 42, 54
1, 257444, Note_on_c, 0, 57, 85
1, 257451, Note_on_c, 0, 69, 75
1, 257451, Note_off_c, 0, 64, 64
1, 257454, Note_off_c, 0, 60, 65
1, 257502, Note_off_c, 0, 57, 62
1, 257526, Note_on_c, 0, 64, 75
1, 257531, Control_c, 0, 64, 124
1, 257537, Note_on_c, 0, 60, 76
1, 257545, Note_on_c, 0, 48, 95
1, 257546, Control_c, 0, 64, 92
1, 257547, Note_on_c, 0, 36, 90
1, 257550, Note_off_c, 0, 69, 60
1, 257561, Control_c, 0, 64, 83
1, 257591, Control_c, 0, 64, 90
1, 257605, Control_c, 0, 64, 112
1, 257620, Control_c, 0, 64, 127
1, 257624, Note_on_c, 0, 69, 75
1, 257626, Note_off_c, 0, 48, 60
1, 257630, Note_on_c, 0, 59, 82
1, 257633, Note_off_c, 0, 64, 64
1, 257634, Poly_aftertouch_c, 0, 39, 127
1, 257637, Note_off_c, 0, 60, 64
1, 257663, Note_off_c, 0, 36, 61
1, 257682, Poly_aftertouch_c, 0, 39, 0
1, 257699, Note_off_c, 0, 59, 61
1, 257734, Note_on_c, 0, 64, 74
1, 257741, Note_on_c, 0, 60, 73
1, 257760, Note_off_c, 0, 69, 57
1, 257763, Note_on_c, 0, 33, 90
1, 257764, Note_on_c, 0, 45, 92
1, 257776, Control_c, 0, 64, 98
1, 257791, Control_c, 0, 64, 71
1, 257805, Control_c, 0, 64, 0
1, 257821, Note_on_c, 0, 34, 14
1, 257856, Note_off_c, 0, 64, 62
1, 257865, Note_on_c, 0, 69, 69
1, 257870, Note_off_c, 0, 60, 61
1, 257872, Note_off_c, 0, 34, 29
1, 257873, Note_on_c, 0, 57, 74
1, 257879, Control_c, 0, 64, 65
1, 257894, Control_c, 0, 64, 79
1, 257909, Control_c, 0, 64, 127
1, 257951, Note_off_c, 0, 57, 55
1, 257957, Note_on_c, 0, 64, 74
1, 257965, Note_on_c, 0, 60, 69
1, 257967, Note_off_c, 0, 69, 59
1, 258025, Note_off_c, 0, 33, 58
1, 258033, Note_off_c, 0, 45, 61
1, 258052, Note_on_c, 0, 59, 83
1, 258055, Note_off_c, 0, 64, 61
1, 258056, Note_on_c, 0, 69, 74
1, 258057, Note_off_c, 0, 60, 63
1, 258132, Control_c, 0, 64, 119
1, 258143, Note_off_c, 0, 59, 43
1, 258145, Note_on_c, 0, 47, 94
1, 258146, Note_on_c, 0, 35, 85
1, 258146, Control_c, 0, 64, 86
1, 258149, Note_on_c, 0, 64, 73
1, 258152, Note_on_c, 0, 60, 74
1, 258161, Note_off_c, 0, 69, 60
1, 258161, Control_c, 0, 64, 72
1, 258176, Control_c, 0, 64, 67
1, 258191, Control_c, 0, 64, 72
1, 258206, Control_c, 0, 64, 81
1, 258220, Control_c, 0, 64, 103
1, 258235, Control_c, 0, 64, 127
1, 258248, Note_off_c, 0, 64, 60
1, 258250, Note_on_c, 0, 57, 75
1, 258256, Note_on_c, 0, 69, 74
1, 258256, Note_off_c, 0, 60, 62
1, 258286, Note_off_c, 0, 35, 62
1, 258295, Note_off_c, 0, 47, 62
1, 258360, Note_off_c, 0, 57, 37
1, 258363, Note_on_c, 0, 64, 66
1, 258372, Note_on_c, 0, 60, 67
1, 258399, Note_off_c, 0, 69, 55
1, 258432, Note_on_c, 0, 48, 91
1, 258434, Note_on_c, 0, 36, 89
1, 258436, Control_c, 0, 64, 104
1, 258451, Control_c, 0, 64, 78
1, 258466, Control_c, 0, 64, 29
1, 258480, Control_c, 0, 64, 0
1, 258504, Note_off_c, 0, 64, 61
1, 258514, Note_off_c, 0, 60, 64
1, 258518, Note_on_c, 0, 69, 60
1, 258529, Note_on_c, 0, 59, 63
1, 258579, Note_off_c, 0, 59, 50
1, 258584, Control_c, 0, 64, 55
1, 258599, Control_c, 0, 64, 67
1, 258609, Note_off_c, 0, 69, 61
1, 258614, Note_on_c, 0, 64, 57
1, 258614, Control_c, 0, 64, 78
1, 258628, Note_on_c, 0, 60, 59
1, 258629, Control_c, 0, 64, 95
1, 258644, Control_c, 0, 64, 127
1, 258686, Note_off_c, 0, 60, 60
1, 258688, Note_off_c, 0, 64, 63
1, 258699, Note_on_c, 0, 69, 53
1, 258706, Note_on_c, 0, 57, 64
1, 258741, Note_off_c, 0, 57, 59
1, 258771, Note_off_c, 0, 69, 56
1, 258776, Note_on_c, 0, 64, 54
1, 258794, Note_on_c, 0, 60, 53
1, 258842, Note_off_c, 0, 60, 62
1, 258845, Note_off_c, 0, 64, 63
1, 258858, Note_on_c, 0, 69, 59
1, 258863, Note_on_c, 0, 59, 64
1, 258894, Note_off_c, 0, 59, 60
1, 258938, Note_off_c, 0, 69, 58
1, 258940, Note_on_c, 0, 64, 60
1, 258947, Note_on_c, 0, 60, 55
1, 259017, Note_off_c, 0, 64, 64
1, 259019, Note_off_c, 0, 60, 63
1, 259022, Note_on_c, 0, 69, 58
1, 259031, Note_on_c, 0, 57, 60
1, 259061, Note_off_c, 0, 57, 63
1, 259090, Note_on_c, 0, 64, 70
1, 259095, Note_off_c, 0, 69, 62
1, 259103, Note_on_c, 0, 60, 68
1, 259173, Note_off_c, 0, 60, 61
1, 259175, Note_on_c, 0, 69, 77
1, 259177, Note_off_c, 0, 64, 64
1, 259188, Note_on_c, 0, 59, 74
1, 259204, Note_off_c, 0, 48, 55
1, 259234, Note_off_c, 0, 59, 57
1, 259258, Note_on_c, 0, 64, 70
1, 259268, Note_off_c, 0, 69, 60
1, 259269, Note_on_c, 0, 60, 76
1, 259331, Note_off_c, 0, 60, 64
1, 259335, Note_on_c, 0, 69, 68
1, 259341, Note_on_c, 0, 57, 73
1, 259345, Note_on_c, 0, 39, 69
1, 259355, Note_off_c, 0, 64, 63
1, 259378, Note_off_c, 0, 57, 58
1, 259387, Note_off_c, 0, 36, 57
1, 259394, Note_off_c, 0, 69, 61
1, 259428, Note_on_c, 0, 40, 74
1, 259436, Control_c, 0, 64, 119
1, 259450, Control_c, 0, 64, 77
1, 259454, Note_off_c, 0, 39, 48
1, 259460, Note_on_c, 0, 65, 70
1, 259465, Control_c, 0, 64, 0
1, 259473, Note_on_c, 0, 62, 71
1, 259521, Note_off_c, 0, 40, 62
1, 259522, Note_on_c, 0, 41, 62
1, 259539, Control_c, 0, 64, 40
1, 259550, Note_off_c, 0, 62, 59
1, 259553, Note_off_c, 0, 65, 64
1, 259554, Control_c, 0, 64, 65
1, 259570, Control_c, 0, 64, 75
1, 259572, Note_on_c, 0, 60, 64
1, 259574, Note_on_c, 0, 69, 56
1, 259585, Control_c, 0, 64, 94
1, 259589, Note_off_c, 0, 41, 62
1, 259592, Note_on_c, 0, 40, 57
1, 259599, Control_c, 0, 64, 127
1, 259607, Note_off_c, 0, 60, 58
1, 259612, Note_off_c, 0, 69, 47
1, 259639, Note_on_c, 0, 65, 60
1, 259657, Note_off_c, 0, 40, 59
1, 259671, Note_on_c, 0, 62, 41
1, 259675, Note_on_c, 0, 41, 62
1, 259708, Note_off_c, 0, 65, 63
1, 259711, Note_off_c, 0, 62, 62
1, 259719, Note_on_c, 0, 69, 59
1, 259722, Note_off_c, 0, 41, 60
1, 259729, Note_on_c, 0, 59, 62
1, 259741, Note_on_c, 0, 40, 53
1, 259762, Note_off_c, 0, 59, 58
1, 259779, Note_off_c, 0, 69, 55
1, 259781, Note_off_c, 0, 40, 62
1, 259797, Note_on_c, 0, 65, 61
1, 259807, Note_on_c, 0, 62, 57
1, 259811, Note_on_c, 0, 41, 61
1, 259848, Note_off_c, 0, 41, 59
1, 259858, Note_off_c, 0, 62, 59
1, 259862, Note_on_c, 0, 40, 67
1, 259864, Note_off_c, 0, 65, 63
1, 259878, Note_on_c, 0, 69, 70
1, 259878, Note_on_c, 0, 60, 68
1, 259912, Note_off_c, 0, 40, 62
1, 259931, Note_off_c, 0, 60, 55
1, 259935, Note_off_c, 0, 69, 43
1, 259944, Note_on_c, 0, 41, 61
1, 259956, Note_on_c, 0, 65, 68
1, 259972, Note_on_c, 0, 62, 65
1, 259977, Note_off_c, 0, 41, 62
1, 259992, Note_on_c, 0, 40, 69
1, 260024, Note_off_c, 0, 40, 64
1, 260028, Note_off_c, 0, 65, 63
1, 260033, Note_off_c, 0, 62, 61
1, 260038, Note_on_c, 0, 69, 74
1, 260039, Note_on_c, 0, 59, 71
1, 260056, Note_on_c, 0, 41, 67
1, 260088, Note_off_c, 0, 59, 50
1, 260100, Note_off_c, 0, 41, 60
1, 260107, Note_off_c, 0, 69, 57
1, 260111, Note_on_c, 0, 40, 65
1, 260112, Note_on_c, 0, 65, 72
1, 260121, Note_on_c, 0, 62, 63
1, 260150, Note_off_c, 0, 40, 62
1, 260176, Note_on_c, 0, 41, 64
1, 260182, Note_off_c, 0, 62, 59
1, 260182, Note_off_c, 0, 65, 64
1, 260188, Note_on_c, 0, 69, 73
1, 260192, Note_on_c, 0, 60, 73
1, 260216, Note_off_c, 0, 41, 58
1, 260229, Note_on_c, 0, 40, 69
1, 260245, Note_off_c, 0, 60, 59
1, 260253, Note_off_c, 0, 69, 59
1, 260260, Note_on_c, 0, 65, 68
1, 260262, Note_off_c, 0, 40, 65
1, 260266, Note_on_c, 0, 62, 67
1, 260292, Note_on_c, 0, 41, 65
1, 260328, Note_off_c, 0, 65, 64
1, 260329, Note_off_c, 0, 62, 61
1, 260331, Note_on_c, 0, 69, 73
1, 260331, Note_off_c, 0, 41, 57
1, 260337, Note_on_c, 0, 59, 77
1, 260342, Note_on_c, 0, 40, 73
1, 260390, Note_off_c, 0, 40, 62
1, 260396, Note_off_c, 0, 59, 51
1, 260403, Note_on_c, 0, 41, 65
1, 260411, Note_on_c, 0, 65, 76
1, 260412, Note_off_c, 0, 69, 54
1, 260414, Note_on_c, 0, 62, 75
1, 260456, Note_on_c, 0, 40, 70
1, 260462, Note_off_c, 0, 41, 59
1, 260477, Note_off_c, 0, 62, 62
1, 260482, Note_on_c, 0, 69, 73
1, 260486, Note_off_c, 0, 65, 63
1, 260492, Note_on_c, 0, 60, 79
1, 260507, Note_off_c, 0, 40, 62
1, 260522, Note_on_c, 0, 41, 66
1, 260554, Note_off_c, 0, 69, 60
1, 260557, Note_on_c, 0, 65, 73
1, 260559, Note_off_c, 0, 60, 61
1, 260574, Note_on_c, 0, 40, 71
1, 260574, Note_on_c, 0, 62, 72
1, 260576, Note_off_c, 0, 41, 60
1, 260620, Note_off_c, 0, 40, 61
1, 260635, Note_on_c, 0, 41, 68
1, 260635, Note_off_c, 0, 65, 63
1, 260646, Note_off_c, 0, 62, 62
1, 260649, Note_on_c, 0, 59, 79
1, 260650, Note_on_c, 0, 69, 74
1, 260698, Note_on_c, 0, 40, 72
1, 260703, Note_off_c, 0, 41, 59
1, 260718, Note_on_c, 0, 65, 78
1, 260719, Note_off_c, 0, 69, 49
1, 260720, Note_off_c, 0, 59, 53
1, 260730, Note_on_c, 0, 62, 71
1, 260749, Note_off_c, 0, 40, 62
1, 260755, Note_on_c, 0, 41, 68
1, 260794, Note_off_c, 0, 62, 61
1, 260798, Note_off_c, 0, 65, 64
1, 260801, Note_on_c, 0, 60, 83
1, 260807, Note_on_c, 0, 69, 72
1, 260814, Note_off_c, 0, 41, 62
1, 260816, Note_on_c, 0, 40, 74
1, 260870, Note_off_c, 0, 40, 63
1, 260873, Note_off_c, 0, 60, 60
1, 260873, Note_off_c, 0, 69, 38
1, 260877, Note_on_c, 0, 65, 81
1, 260880, Note_on_c, 0, 62, 79
1, 260885, Note_on_c, 0, 41, 72
1, 260938, Note_on_c, 0, 40, 74
1, 260941, Note_off_c, 0, 41, 61
1, 260955, Note_off_c, 0, 62, 62
1, 260955, Note_off_c, 0, 65, 65
1, 260956, Note_on_c, 0, 59, 82
1, 260962, Note_on_c, 0, 69, 76
1, 260990, Note_off_c, 0, 40, 63
1, 261010, Note_on_c, 0, 41, 67
1, 261027, Note_off_c, 0, 59, 49
1, 261037, Note_on_c, 0, 62, 76
1, 261037, Note_on_c, 0, 65, 79
1, 261037, Note_off_c, 0, 69, 60
1, 261058, Note_off_c, 0, 41, 59
1, 261063, Note_on_c, 0, 40, 73
1, 261106, Note_off_c, 0, 62, 60
1, 261107, Note_off_c, 0, 65, 63
1, 261109, Note_off_c, 0, 40, 61
1, 261118, Note_on_c, 0, 60, 81
1, 261118, Note_on_c, 0, 41, 70
1, 261133, Note_on_c, 0, 69, 55
1, 261179, Note_on_c, 0, 40, 75
1, 261179, Note_off_c, 0, 41, 59
1, 261189, Note_off_c, 0, 60, 64
1, 261194, Note_off_c, 0, 69, 0
1, 261194, Note_on_c, 0, 69, 23
1, 261195, Note_on_c, 0, 65, 75
1, 261198, Note_on_c, 0, 62, 72
1, 261228, Note_off_c, 0, 40, 63
1, 261236, Note_on_c, 0, 41, 70
1, 261241, Note_off_c, 0, 69, 49
1, 261252, Note_off_c, 0, 65, 63
1, 261257, Note_off_c, 0, 62, 63
1, 261258, Note_on_c, 0, 59, 82
1, 261281, Note_off_c, 0, 59, 67
1, 261405, Note_on_c, 0, 52, 98
1, 261406, Note_off_c, 0, 41, 35
1, 261407, Note_on_c, 0, 40, 86
1, 261416, Control_c, 0, 64, 86
1, 261431, Control_c, 0, 64, 0
1, 261490, Control_c, 0, 64, 34
1, 261505, Control_c, 0, 64, 68
1, 261516, Note_on_c, 0, 41, 70
1, 261517, Note_off_c, 0, 40, 64
1, 261519, Note_on_c, 0, 53, 71
1, 261520, Control_c, 0, 64, 96
1, 261522, Note_off_c, 0, 52, 62
1, 261535, Control_c, 0, 64, 127
1, 261580, Note_off_c, 0, 41, 59
1, 261596, Note_off_c, 0, 53, 66
1, 261598, Note_on_c, 0, 40, 69
1, 261611, Note_on_c, 0, 52, 73
1, 261648, Note_off_c, 0, 40, 63
1, 261658, Note_off_c, 0, 52, 61
1, 261661, Note_on_c, 0, 53, 67
1, 261665, Note_on_c, 0, 41, 67
1, 261717, Note_off_c, 0, 53, 63
1, 261717, Note_on_c, 0, 52, 68
1, 261728, Note_on_c, 0, 40, 64
1, 261741, Note_off_c, 0, 41, 0
1, 261763, Note_off_c, 0, 40, 63
1, 261765, Note_on_c, 0, 53, 67
1, 261765, Note_off_c, 0, 52, 59
1, 261765, Note_on_c, 0, 41, 41
1, 261818, Note_off_c, 0, 41, 58
1, 261819, Note_on_c, 0, 52, 66
1, 261819, Note_off_c, 0, 53, 66
1, 261824, Note_on_c, 0, 40, 73
1, 261849, Note_off_c, 0, 40, 63
1, 261853, Note_on_c, 0, 53, 65
1, 261855, Note_off_c, 0, 52, 54
1, 261866, Note_on_c, 0, 41, 56
1, 261901, Note_on_c, 0, 52, 71
1, 261915, Note_on_c, 0, 40, 74
1, 261917, Note_off_c, 0, 53, 63
1, 261923, Note_off_c, 0, 41, 54
1, 261984, Note_on_c, 0, 50, 99
1, 261985, Note_on_c, 0, 38, 95
1, 262001, Note_off_c, 0, 52, 62
1, 262006, Note_off_c, 0, 40, 62
1, 262009, Control_c, 0, 64, 79
1, 262024, Control_c, 0, 64, 0
1, 262084, Control_c, 0, 64, 52
1, 262098, Control_c, 0, 64, 73
1, 262113, Control_c, 0, 64, 104
1, 262128, Control_c, 0, 64, 127
1, 262153, Note_off_c, 0, 50, 55
1, 262166, Note_on_c, 0, 52, 68
1, 262168, Note_off_c, 0, 38, 62
1, 262197, Note_on_c, 0, 40, 62
1, 262225, Note_off_c, 0, 52, 63
1, 262230, Note_on_c, 0, 50, 63
1, 262239, Note_off_c, 0, 40, 62
1, 262254, Note_on_c, 0, 38, 73
1, 262277, Note_off_c, 0, 50, 62
1, 262292, Note_on_c, 0, 52, 61
1, 262293, Note_off_c, 0, 38, 60
1, 262321, Note_on_c, 0, 40, 69
1, 262339, Note_off_c, 0, 52, 63
1, 262349, Note_on_c, 0, 50, 75
1, 262369, Note_on_c, 0, 38, 68
1, 262369, Note_off_c, 0, 40, 53
1, 262399, Note_on_c, 0, 52, 67
1, 262400, Note_off_c, 0, 50, 63
1, 262411, Note_off_c, 0, 38, 63
1, 262417, Note_on_c, 0, 40, 59
1, 262453, Note_on_c, 0, 50, 69
1, 262459, Note_off_c, 0, 52, 63
1, 262478, Note_on_c, 0, 38, 76
1, 262480, Note_off_c, 0, 40, 57
1, 262498, Note_on_c, 0, 52, 68
1, 262505, Note_off_c, 0, 50, 64
1, 262516, Note_off_c, 0, 38, 61
1, 262524, Note_on_c, 0, 40, 58
1, 262559, Note_on_c, 0, 50, 77
1, 262566, Note_on_c, 0, 38, 76
1, 262571, Note_off_c, 0, 52, 62
1, 262596, Note_off_c, 0, 40, 61
1, 262626, Note_off_c, 0, 38, 63
1, 262662, Note_off_c, 0, 50, 62
1, 262667, Note_on_c, 0, 48, 99
1, 262674, Note_on_c, 0, 36, 101
1, 262698, Control_c, 0, 64, 90
1, 262713, Control_c, 0, 64, 45
1, 262727, Control_c, 0, 64, 0
1, 262788, Control_c, 0, 64, 65
1, 262803, Control_c, 0, 64, 86
1, 262817, Control_c, 0, 64, 127
1, 262851, Note_off_c, 0, 48, 58
1, 262865, Note_on_c, 0, 50, 65
1, 262875, Note_off_c, 0, 36, 62
1, 262913, Note_on_c, 0, 38, 61
1, 262931, Note_off_c, 0, 50, 65
1, 262938, Note_on_c, 0, 48, 65
1, 262954, Note_off_c, 0, 38, 61
1, 262970, Note_on_c, 0, 36, 72
1, 262978, Note_off_c, 0, 48, 53
1, 263002, Note_on_c, 0, 50, 64
1, 263011, Note_off_c, 0, 36, 61
1, 263036, Note_on_c, 0, 38, 67
1, 263049, Note_off_c, 0, 50, 65
1, 263059, Note_on_c, 0, 48, 79
1, 263070, Note_off_c, 0, 38, 61
1, 263080, Note_on_c, 0, 36, 75
1, 263109, Note_off_c, 0, 48, 62
1, 263112, Note_off_c, 0, 36, 60
1, 263114, Note_on_c, 0, 50, 72
1, 263142, Note_on_c, 0, 38, 71
1, 263168, Note_off_c, 0, 50, 65
1, 263169, Note_on_c, 0, 48, 73
1, 263178, Note_off_c, 0, 38, 60
1, 263192, Note_on_c, 0, 36, 77
1, 263216, Note_on_c, 0, 50, 66
1, 263223, Note_off_c, 0, 48, 62
1, 263230, Note_off_c, 0, 36, 63
1, 263239, Note_on_c, 0, 38, 69
1, 263270, Note_on_c, 0, 48, 64
1, 263276, Note_off_c, 0, 50, 65
1, 263288, Note_on_c, 0, 36, 78
1, 263296, Note_off_c, 0, 38, 56
1, 263296, Poly_aftertouch_c, 0, 52, 0
1, 263304, Note_on_c, 0, 50, 69
1, 263322, Note_off_c, 0, 48, 61
1, 263336, Note_on_c, 0, 38, 62
1, 263341, Note_off_c, 0, 36, 60
1, 263368, Note_on_c, 0, 48, 74
1, 263375, Note_on_c, 0, 36, 62
1, 263389, Note_off_c, 0, 50, 64
1, 263404, Note_off_c, 0, 38, 63
1, 263435, Note_off_c, 0, 48, 62
1, 263436, Note_off_c, 0, 36, 62
1, 263467, Note_on_c, 0, 47, 106
1, 263474, Note_on_c, 0, 35, 97
1, 263491, Control_c, 0, 64, 78
1, 263506, Control_c, 0, 64, 0
1, 263581, Control_c, 0, 64, 71
1, 263596, Control_c, 0, 64, 99
1, 263611, Control_c, 0, 64, 127
1, 263675, Note_off_c, 0, 47, 56
1, 263683, Note_on_c, 0, 48, 75
1, 263696, Note_off_c, 0, 35, 64
1, 263721, Note_on_c, 0, 36, 67
1, 263753, Note_off_c, 0, 48, 65
1, 263770, Note_on_c, 0, 47, 67
1, 263785, Note_on_c, 0, 35, 71
1, 263785, Note_off_c, 0, 36, 59
1, 263805, Note_off_c, 0, 47, 63
1, 263820, Note_on_c, 0, 48, 65
1, 263828, Note_off_c, 0, 35, 61
1, 263845, Note_on_c, 0, 36, 68
1, 263872, Note_off_c, 0, 48, 62
1, 263875, Note_on_c, 0, 47, 76
1, 263887, Note_on_c, 0, 35, 63
1, 263898, Note_off_c, 0, 36, 58
1, 263932, Note_off_c, 0, 35, 61
1, 263932, Note_on_c, 0, 48, 68
1, 263936, Note_off_c, 0, 47, 64
1, 263944, Note_on_c, 0, 36, 48
1, 263971, Note_on_c, 0, 35, 67
1, 263973, Note_off_c, 0, 36, 64
1, 263985, Note_on_c, 0, 47, 70
1, 263994, Note_off_c, 0, 48, 62
1, 264026, Note_off_c, 0, 35, 63
1, 264038, Note_on_c, 0, 36, 57
1, 264039, Note_on_c, 0, 48, 66
1, 264047, Note_off_c, 0, 47, 64
1, 264067, Note_on_c, 0, 35, 66
1, 264081, Note_off_c, 0, 36, 56
1, 264097, Poly_aftertouch_c, 0, 50, 127
1, 264098, Note_on_c, 0, 47, 75
1, 264105, Note_off_c, 0, 48, 63
1, 264125, Note_off_c, 0, 35, 57
1, 264128, Poly_aftertouch_c, 0, 50, 0
1, 264133, Note_on_c, 0, 36, 52
1, 264143, Note_on_c, 0, 48, 67
1, 264158, Note_off_c, 0, 47, 65
1, 264159, Note_on_c, 0, 35, 61
1, 264169, Note_off_c, 0, 36, 64
1, 264205, Note_on_c, 0, 47, 76
1, 264210, Note_off_c, 0, 48, 63
1, 264212, Note_off_c, 0, 35, 64
1, 264224, Poly_aftertouch_c, 0, 50, 127
1, 264233, Note_on_c, 0, 36, 64
1, 264250, Note_on_c, 0, 48, 73
1, 264250, Poly_aftertouch_c, 0, 50, 0
1, 264263, Note_off_c, 0, 47, 66
1, 264266, Note_on_c, 0, 35, 72
1, 264270, Note_off_c, 0, 36, 62
1, 264272, Poly_aftertouch_c, 0, 50, 0
1, 264298, Poly_aftertouch_c, 0, 50, 0
1, 264304, Note_on_c, 0, 47, 81
1, 264318, Note_on_c, 0, 36, 83
1, 264322, Note_off_c, 0, 35, 63
1, 264332, Note_off_c, 0, 48, 63
1, 264343, Poly_aftertouch_c, 0, 50, 0
1, 264355, Note_off_c, 0, 47, 70
1, 264364, Note_off_c, 0, 36, 62
1, 264470, Control_c, 0, 64, 124
1, 264485, Control_c, 0, 64, 74
1, 264500, Control_c, 0, 64, 0
1, 264541, Note_on_c, 0, 33, 89
1, 264541, Note_on_c, 0, 45, 94
1, 264544, Control_c, 0, 64, 51
1, 264559, Control_c, 0, 64, 84
1, 264567, Note_off_c, 0, 45, 69
1, 264569, Note_off_c, 0, 33, 68
1, 264574, Control_c, 0, 64, 127
1, 264745, Note_on_c, 0, 65, 64
1, 264752, Note_on_c, 0, 60, 59
1, 264787, Note_off_c, 0, 60, 64
1, 264788, Note_off_c, 0, 65, 58
1, 264881, Note_on_c, 0, 65, 81
1, 264884, Note_on_c, 0, 60, 77
1, 264895, Note_on_c, 0, 53, 67
1, 264900, Control_c, 0, 64, 76
1, 264908, Note_on_c, 0, 45, 52
1, 264914, Control_c, 0, 64, 0
1, 265002, Note_off_c, 0, 60, 58
1, 265002, Note_off_c, 0, 65, 57
1, 265004, Note_on_c, 0, 63, 63
1, 265031, Note_on_c, 0, 57, 38
1, 265032, Note_off_c, 0, 53, 61
1, 265038, Note_off_c, 0, 63, 61
1, 265076, Note_off_c, 0, 57, 44
1, 265089, Note_off_c, 0, 45, 46
1, 265108, Note_on_c, 0, 48, 61
1, 265112, Note_on_c, 0, 57, 57
1, 265122, Note_on_c, 0, 52, 28
1, 265122, Note_on_c, 0, 63, 65
1, 265159, Note_off_c, 0, 48, 64
1, 265172, Note_off_c, 0, 52, 42
1, 265196, Note_off_c, 0, 63, 0
1, 265207, Note_off_c, 0, 57, 51
1, 265208, Note_on_c, 0, 64, 74
1, 265219, Note_on_c, 0, 60, 58
1, 265240, Note_off_c, 0, 64, 67
1, 265249, Note_off_c, 0, 60, 66
1, 265261, Poly_aftertouch_c, 0, 63, 0
1, 265312, Note_on_c, 0, 41, 76
1, 265314, Note_on_c, 0, 29, 73
1, 265324, Control_c, 0, 64, 60
1, 265338, Control_c, 0, 64, 82
1, 265339, Note_off_c, 0, 41, 65
1, 265342, Note_off_c, 0, 29, 64
1, 265353, Control_c, 0, 64, 127
1, 265416, Note_on_c, 0, 63, 77
1, 265416, Note_on_c, 0, 71, 74
1, 265446, Note_off_c, 0, 71, 65
1, 265465, Note_off_c, 0, 63, 61
1, 265506, Note_on_c, 0, 71, 88
1, 265508, Note_on_c, 0, 63, 74
1, 265528, Note_on_c, 0, 55, 72
1, 265530, Note_on_c, 0, 47, 65
1, 265545, Control_c, 0, 64, 110
1, 265560, Control_c, 0, 64, 73
1, 265575, Control_c, 0, 64, 0
1, 265592, Note_off_c, 0, 71, 50
1, 265594, Note_on_c, 0, 68, 75
1, 265603, Note_on_c, 0, 59, 67
1, 265623, Note_off_c, 0, 63, 60
1, 265639, Note_off_c, 0, 68, 58
1, 265647, Note_off_c, 0, 59, 61
1, 265663, Note_off_c, 0, 55, 58
1, 265691, Note_on_c, 0, 68, 63
1, 265699, Note_on_c, 0, 59, 62
1, 265699, Note_on_c, 0, 53, 68
1, 265729, Note_off_c, 0, 47, 36
1, 265730, Note_off_c, 0, 53, 67
1, 265741, Note_off_c, 0, 59, 59
1, 265783, Note_on_c, 0, 69, 71
1, 265786, Note_on_c, 0, 63, 71
1, 265792, Note_off_c, 0, 68, 57
1, 265811, Note_off_c, 0, 69, 65
1, 265812, Note_off_c, 0, 63, 67
1, 265869, Note_on_c, 0, 40, 68
1, 265871, Control_c, 0, 64, 41
1, 265873, Note_on_c, 0, 52, 64
1, 265893, Control_c, 0, 64, 73
1, 265905, Note_off_c, 0, 40, 65
1, 265908, Note_off_c, 0, 52, 64
1, 265908, Control_c, 0, 64, 104
1, 265923, Control_c, 0, 64, 127
1, 265971, Note_on_c, 0, 77, 69
1, 265984, Note_on_c, 0, 74, 70
1, 265998, Note_off_c, 0, 77, 64
1, 266013, Note_off_c, 0, 74, 64
1, 266077, Note_on_c, 0, 77, 74
1, 266084, Note_on_c, 0, 74, 69
1, 266090, Note_on_c, 0, 64, 72
1, 266099, Note_on_c, 0, 52, 58
1, 266111, Note_off_c, 0, 74, 68
1, 266121, Note_off_c, 0, 77, 60
1, 266135, Note_off_c, 0, 52, 61
1, 266144, Note_off_c, 0, 64, 61
1, 266147, Control_c, 0, 64, 93
1, 266158, Note_on_c, 0, 75, 80
1, 266161, Control_c, 0, 64, 69
1, 266164, Note_on_c, 0, 68, 73
1, 266176, Control_c, 0, 64, 0
1, 266194, Note_off_c, 0, 68, 61
1, 266198, Note_off_c, 0, 75, 61
1, 266246, Note_on_c, 0, 75, 82
1, 266255, Note_on_c, 0, 68, 82
1, 266259, Note_on_c, 0, 59, 73
1, 266262, Note_on_c, 0, 62, 66
1, 266283, Note_off_c, 0, 75, 66
1, 266290, Note_off_c, 0, 59, 65
1, 266291, Note_off_c, 0, 62, 64
1, 266299, Note_off_c, 0, 68, 63
1, 266328, Note_on_c, 0, 76, 90
1, 266334, Note_on_c, 0, 74, 90
1, 266372, Note_off_c, 0, 74, 65
1, 266376, Note_off_c, 0, 76, 65
1, 266415, Note_on_c, 0, 76, 92
1, 266424, Note_on_c, 0, 74, 92
1, 266426, Note_on_c, 0, 52, 86
1, 266427, Note_on_c, 0, 64, 87
1, 266427, Control_c, 0, 64, 61
1, 266442, Control_c, 0, 64, 89
1, 266457, Control_c, 0, 64, 127
1, 266463, Note_off_c, 0, 74, 66
1, 266472, Note_off_c, 0, 52, 62
1, 266479, Note_off_c, 0, 64, 63
1, 266515, Note_on_c, 0, 68, 81
1, 266516, Note_on_c, 0, 77, 81
1, 266520, Note_off_c, 0, 76, 65
1, 266548, Note_off_c, 0, 77, 61
1, 266562, Note_off_c, 0, 68, 59
1, 266593, Note_on_c, 0, 77, 79
1, 266600, Note_on_c, 0, 68, 71
1, 266609, Note_on_c, 0, 59, 71
1, 266615, Note_on_c, 0, 62, 61
1, 266650, Note_off_c, 0, 62, 65
1, 266659, Note_off_c, 0, 68, 61
1, 266661, Note_off_c, 0, 59, 58
1, 266682, Note_off_c, 0, 77, 0
1, 266686, Control_c, 0, 64, 92
1, 266693, Note_on_c, 0, 74, 55
1, 266693, Note_on_c, 0, 75, 77
1, 266701, Control_c, 0, 64, 71
1, 266712, Poly_aftertouch_c, 0, 77, 0
1, 266716, Control_c, 0, 64, 0
1, 266745, Note_off_c, 0, 75, 61
1, 266749, Note_off_c, 0, 74, 65
1, 266794, Note_on_c, 0, 64, 71
1, 266798, Note_on_c, 0, 75, 69
1, 266801, Note_on_c, 0, 74, 65
1, 266802, Note_on_c, 0, 52, 64
1, 266827, Note_off_c, 0, 64, 65
1, 266871, Note_off_c, 0, 52, 61
1, 266890, Note_on_c, 0, 76, 82
1, 266904, Note_on_c, 0, 68, 65
1, 266904, Note_off_c, 0, 75, 60
1, 266953, Note_off_c, 0, 74, 36
1, 266964, Note_off_c, 0, 76, 58
1, 266979, Note_off_c, 0, 68, 58
1, 267005, Note_on_c, 0, 45, 76
1, 267013, Note_on_c, 0, 57, 66
1, 267028, Control_c, 0, 64, 71
1, 267043, Control_c, 0, 64, 93
1, 267047, Note_off_c, 0, 45, 63
1, 267058, Control_c, 0, 64, 127
1, 267078, Note_off_c, 0, 57, 57
1, 267108, Note_on_c, 0, 76, 77
1, 267115, Note_on_c, 0, 74, 78
1, 267174, Note_off_c, 0, 76, 62
1, 267175, Note_off_c, 0, 74, 64
1, 267230, Note_on_c, 0, 76, 79
1, 267235, Note_on_c, 0, 74, 78
1, 267252, Note_on_c, 0, 64, 61
1, 267253, Note_on_c, 0, 57, 49
1, 267304, Note_off_c, 0, 76, 59
1, 267321, Note_off_c, 0, 74, 46
1, 267335, Note_on_c, 0, 77, 84
1, 267339, Note_on_c, 0, 72, 79
1, 267344, Note_off_c, 0, 64, 58
1, 267387, Note_off_c, 0, 77, 65
1, 267393, Note_off_c, 0, 72, 64
1, 267434, Control_c, 0, 64, 88
1, 267439, Note_on_c, 0, 77, 78
1, 267449, Note_on_c, 0, 72, 72
1, 267449, Control_c, 0, 64, 65
1, 267450, Note_on_c, 0, 50, 63
1, 267453, Note_on_c, 0, 62, 59
1, 267464, Control_c, 0, 64, 0
1, 267476, Note_off_c, 0, 57, 57
1, 267482, Note_off_c, 0, 72, 63
1, 267485, Note_off_c, 0, 62, 63
1, 267489, Note_off_c, 0, 77, 64
1, 267522, Note_off_c, 0, 50, 64
1, 267531, Note_on_c, 0, 78, 85
1, 267542, Note_on_c, 0, 72, 80
1, 267574, Note_off_c, 0, 78, 63
1, 267577, Note_off_c, 0, 72, 65
1, 267619, Note_on_c, 0, 78, 86
1, 267622, Note_on_c, 0, 72, 90
1, 267628, Control_c, 0, 64, 63
1, 267633, Note_on_c, 0, 55, 76
1, 267634, Note_on_c, 0, 43, 78
1, 267643, Control_c, 0, 64, 83
1, 267658, Control_c, 0, 64, 127
1, 267664, Note_off_c, 0, 55, 66
1, 267665, Note_off_c, 0, 43, 65
1, 267667, Note_off_c, 0, 72, 64
1, 267684, Note_off_c, 0, 78, 53
1, 267713, Note_on_c, 0, 79, 93
1, 267717, Note_on_c, 0, 71, 90
1, 267754, Note_off_c, 0, 79, 66
1, 267759, Note_off_c, 0, 71, 66
1, 267804, Note_on_c, 0, 79, 90
1, 267809, Note_on_c, 0, 71, 81
1, 267818, Note_on_c, 0, 62, 78
1, 267825, Note_on_c, 0, 55, 58
1, 267845, Note_off_c, 0, 71, 67
1, 267849, Note_off_c, 0, 79, 62
1, 267865, Control_c, 0, 64, 91
1, 267880, Control_c, 0, 64, 64
1, 267887, Note_off_c, 0, 62, 55
1, 267891, Note_on_c, 0, 74, 79
1, 267895, Control_c, 0, 64, 0
1, 267896, Note_on_c, 0, 70, 81
1, 267928, Note_off_c, 0, 74, 67
1, 267936, Note_off_c, 0, 70, 63
1, 267984, Note_on_c, 0, 70, 79
1, 267984, Note_on_c, 0, 74, 85
1, 267989, Note_on_c, 0, 48, 76
1, 267990, Note_on_c, 0, 60, 72
1, 268002, Note_off_c, 0, 55, 37
1, 268014, Note_off_c, 0, 60, 68
1, 268032, Note_off_c, 0, 70, 65
1, 268040, Note_off_c, 0, 74, 55
1, 268045, Note_off_c, 0, 48, 63
1, 268073, Note_on_c, 0, 76, 91
1, 268081, Note_on_c, 0, 70, 80
1, 268110, Note_off_c, 0, 76, 65
1, 268114, Note_off_c, 0, 70, 65
1, 268155, Control_c, 0, 64, 61
1, 268167, Note_on_c, 0, 76, 95
1, 268168, Note_on_c, 0, 41, 80
1, 268170, Control_c, 0, 64, 87
1, 268174, Note_on_c, 0, 53, 74
1, 268175, Note_on_c, 0, 70, 74
1, 268184, Control_c, 0, 64, 127
1, 268194, Note_off_c, 0, 41, 65
1, 268194, Note_off_c, 0, 70, 72
1, 268198, Note_off_c, 0, 53, 69
1, 268200, Note_off_c, 0, 76, 65
1, 268253, Note_on_c, 0, 77, 81
1, 268254, Note_on_c, 0, 69, 58
1, 268299, Note_off_c, 0, 77, 64
1, 268311, Note_off_c, 0, 69, 64
1, 268349, Note_on_c, 0, 77, 87
1, 268350, Note_on_c, 0, 69, 80
1, 268362, Note_on_c, 0, 60, 80
1, 268364, Note_on_c, 0, 53, 70
1, 268378, Control_c, 0, 64, 92
1, 268393, Control_c, 0, 64, 68
1, 268397, Note_off_c, 0, 69, 65
1, 268400, Note_off_c, 0, 77, 61
1, 268408, Control_c, 0, 64, 0
1, 268438, Note_on_c, 0, 72, 82
1, 268448, Note_off_c, 0, 53, 55
1, 268454, Note_off_c, 0, 60, 52
1, 268460, Note_on_c, 0, 69, 68
1, 268484, Note_off_c, 0, 69, 68
1, 268484, Note_off_c, 0, 72, 65
1, 268529, Note_on_c, 0, 72, 84
1, 268537, Note_on_c, 0, 59, 77
1, 268546, Note_on_c, 0, 53, 79
1, 268547, Note_on_c, 0, 69, 69
1, 268573, Note_off_c, 0, 59, 60
1, 268578, Note_off_c, 0, 69, 65
1, 268582, Note_off_c, 0, 72, 63
1, 268594, Note_off_c, 0, 53, 61
1, 268618, Note_on_c, 0, 74, 90
1, 268665, Note_on_c, 0, 69, 34
1, 268683, Note_off_c, 0, 74, 60
1, 268714, Note_on_c, 0, 76, 95
1, 268719, Control_c, 0, 64, 40
1, 268719, Note_on_c, 0, 60, 70
1, 268722, Note_on_c, 0, 52, 64
1, 268725, Note_off_c, 0, 69, 0
1, 268725, Note_on_c, 0, 69, 67
1, 268734, Control_c, 0, 64, 80
1, 268749, Control_c, 0, 64, 106
1, 268763, Control_c, 0, 64, 127
1, 268767, Note_off_c, 0, 69, 62
1, 268808, Note_on_c, 0, 72, 85
1, 268813, Note_off_c, 0, 60, 56
1, 268814, Note_off_c, 0, 76, 63
1, 268832, Note_off_c, 0, 52, 56
1, 268852, Note_off_c, 0, 72, 65
1, 268919, Note_on_c, 0, 54, 73
1, 268925, Note_on_c, 0, 72, 95
1, 268928, Note_on_c, 0, 63, 84
1, 268934, Note_on_c, 0, 52, 65
1, 268949, Control_c, 0, 64, 86
1, 268963, Control_c, 0, 64, 63
1, 268978, Control_c, 0, 64, 0
1, 269008, Note_off_c, 0, 52, 58
1, 269020, Note_on_c, 0, 71, 87
1, 269035, Note_off_c, 0, 72, 64
1, 269056, Note_off_c, 0, 63, 59
1, 269071, Note_off_c, 0, 71, 65
1, 269127, Note_on_c, 0, 56, 78
1, 269132, Note_on_c, 0, 52, 67
1, 269140, Note_on_c, 0, 71, 89
1, 269147, Note_on_c, 0, 62, 81
1, 269166, Note_off_c, 0, 54, 39
1, 269197, Note_off_c, 0, 52, 61
1, 269198, Note_off_c, 0, 56, 64
1, 269214, Note_off_c, 0, 62, 57
1, 269242, Note_on_c, 0, 64, 82
1, 269317, Note_off_c, 0, 71, 58
1, 269325, Note_off_c, 0, 64, 65
1, 269372, Note_on_c, 0, 45, 83
1, 269373, Note_on_c, 0, 57, 83
1, 269408, Control_c, 0, 64, 63
1, 269414, Note_off_c, 0, 45, 64
1, 269423, Control_c, 0, 64, 86
1, 269424, Note_off_c, 0, 57, 64
1, 269437, Control_c, 0, 64, 127
1, 269500, Note_on_c, 0, 77, 90
1, 269505, Note_on_c, 0, 72, 89
1, 269559, Note_off_c, 0, 72, 61
1, 269562, Note_off_c, 0, 77, 58
1, 269639, Note_on_c, 0, 77, 97
1, 269643, Note_on_c, 0, 72, 92
1, 269660, Note_on_c, 0, 57, 78
1, 269661, Note_on_c, 0, 65, 79
1, 269682, Control_c, 0, 64, 106
1, 269697, Control_c, 0, 64, 70
1, 269712, Control_c, 0, 64, 0
1, 269752, Note_on_c, 0, 69, 75
1, 269752, Note_on_c, 0, 75, 82
1, 269753, Note_off_c, 0, 72, 55
1, 269762, Note_off_c, 0, 77, 58
1, 269797, Note_off_c, 0, 75, 64
1, 269811, Note_off_c, 0, 69, 63
1, 269816, Note_off_c, 0, 65, 63
1, 269852, Note_on_c, 0, 75, 80
1, 269853, Note_on_c, 0, 64, 74
1, 269858, Note_on_c, 0, 69, 72
1, 269861, Note_on_c, 0, 60, 71
1, 269885, Note_off_c, 0, 64, 66
1, 269908, Note_off_c, 0, 57, 57
1, 269911, Note_off_c, 0, 60, 65
1, 269927, Note_off_c, 0, 75, 0
1, 269929, Note_on_c, 0, 76, 82
1, 269932, Note_off_c, 0, 69, 58
1, 269940, Note_on_c, 0, 72, 71
1, 269963, Note_off_c, 0, 72, 69
1, 269976, Note_off_c, 0, 76, 64
1, 269977, Poly_aftertouch_c, 0, 75, 0
1, 270031, Note_on_c, 0, 53, 86
1, 270033, Note_on_c, 0, 41, 91
1, 270053, Control_c, 0, 64, 77
1, 270055, Note_off_c, 0, 53, 71
1, 270057, Note_off_c, 0, 41, 67
1, 270068, Control_c, 0, 64, 127
1, 270121, Note_on_c, 0, 75, 93
1, 270122, Note_on_c, 0, 83, 87
1, 270158, Note_off_c, 0, 83, 62
1, 270169, Note_off_c, 0, 75, 65
1, 270209, Note_on_c, 0, 75, 87
1, 270211, Note_on_c, 0, 83, 93
1, 270228, Note_on_c, 0, 67, 86
1, 270230, Note_on_c, 0, 59, 86
1, 270246, Control_c, 0, 64, 91
1, 270260, Control_c, 0, 64, 0
1, 270263, Note_off_c, 0, 83, 62
1, 270303, Note_on_c, 0, 80, 85
1, 270310, Note_on_c, 0, 71, 86
1, 270332, Note_off_c, 0, 75, 61
1, 270353, Note_off_c, 0, 80, 64
1, 270362, Note_off_c, 0, 71, 65
1, 270381, Note_off_c, 0, 67, 56
1, 270405, Note_on_c, 0, 80, 67
1, 270406, Note_on_c, 0, 65, 75
1, 270408, Note_off_c, 0, 59, 54
1, 270414, Note_on_c, 0, 71, 76
1, 270436, Note_off_c, 0, 65, 68
1, 270472, Note_off_c, 0, 71, 60
1, 270490, Note_on_c, 0, 81, 84
1, 270499, Note_on_c, 0, 75, 73
1, 270512, Note_off_c, 0, 80, 63
1, 270522, Note_off_c, 0, 75, 69
1, 270528, Note_off_c, 0, 81, 64
1, 270588, Note_on_c, 0, 52, 63
1, 270589, Note_on_c, 0, 64, 70
1, 270594, Control_c, 0, 64, 74
1, 270609, Control_c, 0, 64, 99
1, 270610, Note_off_c, 0, 52, 60
1, 270613, Note_off_c, 0, 64, 69
1, 270624, Control_c, 0, 64, 127
1, 270688, Note_on_c, 0, 86, 72
1, 270688, Note_on_c, 0, 89, 67
1, 270706, Note_off_c, 0, 89, 65
1, 270712, Note_off_c, 0, 86, 69
1, 270768, Note_on_c, 0, 89, 84
1, 270785, Note_on_c, 0, 86, 75
1, 270799, Note_on_c, 0, 76, 70
1, 270809, Note_on_c, 0, 64, 64
1, 270815, Note_off_c, 0, 89, 63
1, 270823, Note_off_c, 0, 86, 61
1, 270838, Note_off_c, 0, 64, 61
1, 270847, Control_c, 0, 64, 97
1, 270853, Note_off_c, 0, 76, 56
1, 270862, Control_c, 0, 64, 71
1, 270866, Note_on_c, 0, 87, 83
1, 270868, Note_on_c, 0, 80, 81
1, 270876, Control_c, 0, 64, 0
1, 270893, Note_off_c, 0, 87, 67
1, 270903, Note_off_c, 0, 80, 63
1, 270944, Note_on_c, 0, 87, 96
1, 270957, Note_on_c, 0, 80, 80
1, 270962, Note_on_c, 0, 71, 78
1, 270964, Note_on_c, 0, 74, 80
1, 270984, Note_off_c, 0, 74, 73
1, 270987, Note_off_c, 0, 87, 66
1, 270991, Note_off_c, 0, 71, 65
1, 270994, Note_off_c, 0, 80, 65
1, 271037, Note_on_c, 0, 88, 97
1, 271041, Note_on_c, 0, 86, 93
1, 271080, Note_off_c, 0, 86, 67
1, 271081, Note_off_c, 0, 88, 65
1, 271114, Control_c, 0, 64, 49
1, 271133, Note_on_c, 0, 88, 91
1, 271137, Control_c, 0, 64, 84
1, 271140, Note_on_c, 0, 86, 92
1, 271143, Note_on_c, 0, 76, 89
1, 271145, Note_on_c, 0, 64, 77
1, 271151, Control_c, 0, 64, 127
1, 271176, Note_off_c, 0, 64, 62
1, 271178, Note_off_c, 0, 86, 67
1, 271188, Note_off_c, 0, 76, 63
1, 271214, Note_off_c, 0, 88, 0
1, 271229, Note_on_c, 0, 88, 37
1, 271229, Note_on_c, 0, 89, 95
1, 271230, Note_on_c, 0, 80, 96
1, 271257, Note_off_c, 0, 88, 52
1, 271265, Note_off_c, 0, 89, 65
1, 271267, Note_off_c, 0, 80, 63
1, 271311, Note_on_c, 0, 89, 90
1, 271320, Note_on_c, 0, 80, 89
1, 271324, Note_on_c, 0, 71, 68
1, 271329, Note_on_c, 0, 74, 66
1, 271355, Note_off_c, 0, 74, 68
1, 271358, Control_c, 0, 64, 101
1, 271366, Note_off_c, 0, 71, 59
1, 271369, Note_off_c, 0, 80, 61
1, 271373, Control_c, 0, 64, 76
1, 271388, Control_c, 0, 64, 0
1, 271396, Note_on_c, 0, 87, 86
1, 271405, Note_on_c, 0, 86, 76
1, 271424, Note_off_c, 0, 89, 54
1, 271448, Note_off_c, 0, 87, 65
1, 271451, Note_off_c, 0, 86, 64
1, 271497, Note_on_c, 0, 87, 82
1, 271498, Note_on_c, 0, 76, 69
1, 271500, Note_on_c, 0, 64, 63
1, 271515, Note_on_c, 0, 86, 61
1, 271524, Note_off_c, 0, 76, 68
1, 271542, Note_on_c, 0, 85, 15
1, 271550, Note_off_c, 0, 86, 60
1, 271552, Note_off_c, 0, 85, 37
1, 271568, Note_off_c, 0, 64, 63
1, 271591, Note_on_c, 0, 88, 83
1, 271602, Note_on_c, 0, 80, 79
1, 271608, Note_off_c, 0, 87, 64
1, 271634, Note_on_c, 0, 86, 5
1, 271663, Note_off_c, 0, 86, 41
1, 271683, Note_off_c, 0, 80, 59
1, 271687, Note_off_c, 0, 88, 61
1, 271703, Note_on_c, 0, 57, 74
1, 271709, Note_on_c, 0, 69, 69
1, 271715, Control_c, 0, 64, 65
1, 271730, Control_c, 0, 64, 79
1, 271745, Control_c, 0, 64, 123
1, 271756, Note_off_c, 0, 57, 63
1, 271760, Control_c, 0, 64, 127
1, 271777, Note_off_c, 0, 69, 61
1, 271807, Note_on_c, 0, 88, 80
1, 271812, Note_on_c, 0, 86, 81
1, 271879, Note_off_c, 0, 88, 64
1, 271880, Note_off_c, 0, 86, 63
1, 271934, Note_on_c, 0, 88, 83
1, 271937, Note_on_c, 0, 86, 78
1, 271947, Note_on_c, 0, 76, 74
1, 271950, Note_on_c, 0, 69, 64
1, 271993, Note_off_c, 0, 86, 64
1, 271993, Note_off_c, 0, 88, 63
1, 272028, Note_off_c, 0, 76, 57
1, 272038, Note_on_c, 0, 89, 95
1, 272040, Note_on_c, 0, 84, 84
1, 272079, Note_off_c, 0, 89, 65
1, 272085, Note_off_c, 0, 84, 66
1, 272091, Control_c, 0, 64, 118
1, 272105, Control_c, 0, 64, 87
1, 272120, Control_c, 0, 64, 67
1, 272132, Note_on_c, 0, 89, 94
1, 272135, Control_c, 0, 64, 0
1, 272138, Note_on_c, 0, 84, 86
1, 272140, Note_on_c, 0, 74, 78
1, 272142, Note_on_c, 0, 62, 72
1, 272163, Note_off_c, 0, 74, 69
1, 272172, Note_off_c, 0, 84, 67
1, 272174, Note_off_c, 0, 89, 65
1, 272182, Note_off_c, 0, 69, 28
1, 272206, Note_off_c, 0, 62, 61
1, 272222, Note_on_c, 0, 90, 93
1, 272230, Note_on_c, 0, 84, 82
1, 272265, Note_off_c, 0, 84, 65
1, 272266, Note_off_c, 0, 90, 65
1, 272298, Control_c, 0, 64, 50
1, 272307, Note_on_c, 0, 90, 92
1, 272311, Note_on_c, 0, 55, 86
1, 272311, Note_on_c, 0, 84, 88
1, 272313, Control_c, 0, 64, 79
1, 272314, Note_on_c, 0, 67, 83
1, 272328, Control_c, 0, 64, 127
1, 272347, Note_off_c, 0, 55, 63
1, 272352, Note_off_c, 0, 67, 60
1, 272356, Note_off_c, 0, 84, 63
1, 272382, Note_off_c, 0, 90, 0
1, 272397, Note_on_c, 0, 91, 96
1, 272398, Note_on_c, 0, 83, 91
1, 272415, Poly_aftertouch_c, 0, 90, 0
1, 272442, Note_off_c, 0, 91, 68
1, 272448, Note_off_c, 0, 83, 67
1, 272490, Note_on_c, 0, 91, 93
1, 272493, Note_on_c, 0, 83, 87
1, 272501, Note_on_c, 0, 74, 86
1, 272505, Note_on_c, 0, 67, 64
1, 272535, Note_off_c, 0, 83, 67
1, 272538, Note_off_c, 0, 91, 63
1, 272557, Note_off_c, 0, 74, 60
1, 272571, Note_on_c, 0, 86, 86
1, 272577, Note_on_c, 0, 82, 92
1, 272581, Control_c, 0, 64, 88
1, 272595, Control_c, 0, 64, 66
1, 272610, Control_c, 0, 64, 0
1, 272624, Note_off_c, 0, 86, 67
1, 272629, Note_off_c, 0, 82, 66
1, 272671, Note_on_c, 0, 86, 89
1, 272673, Note_on_c, 0, 82, 84
1, 272680, Note_on_c, 0, 72, 84
1, 272684, Note_on_c, 0, 60, 79
1, 272695, Note_off_c, 0, 67, 37
1, 272697, Note_off_c, 0, 72, 74
1, 272716, Note_off_c, 0, 82, 66
1, 272725, Note_off_c, 0, 86, 60
1, 272738, Note_off_c, 0, 60, 66
1, 272762, Note_on_c, 0, 88, 92
1, 272771, Note_on_c, 0, 82, 83
1, 272803, Note_off_c, 0, 88, 64
1, 272809, Note_off_c, 0, 82, 66
1, 272840, Control_c, 0, 64, 78
1, 272847, Note_on_c, 0, 88, 90
1, 272848, Note_on_c, 0, 82, 86
1, 272850, Note_on_c, 0, 53, 85
1, 272854, Note_on_c, 0, 65, 90
1, 272854, Control_c, 0, 64, 127
1, 272874, Note_off_c, 0, 53, 70
1, 272881, Note_off_c, 0, 88, 65
1, 272886, Note_off_c, 0, 82, 66
1, 272889, Note_off_c, 0, 65, 61
1, 272931, Note_on_c, 0, 89, 93
1, 272943, Note_on_c, 0, 81, 95
1, 272979, Note_off_c, 0, 81, 65
1, 272981, Note_off_c, 0, 89, 64
1, 273035, Note_on_c, 0, 89, 93
1, 273035, Note_on_c, 0, 81, 98
1, 273044, Note_on_c, 0, 65, 73
1, 273053, Note_on_c, 0, 72, 66
1, 273060, Note_on_c, 0, 74, 58
1, 273074, Note_off_c, 0, 81, 65
1, 273077, Note_off_c, 0, 89, 63
1, 273080, Note_off_c, 0, 74, 62
1, 273102, Note_off_c, 0, 65, 44
1, 273111, Note_off_c, 0, 72, 53
1, 273118, Note_on_c, 0, 84, 87
1, 273131, Note_on_c, 0, 81, 79
1, 273143, Note_on_c, 0, 83, 52
1, 273160, Note_off_c, 0, 84, 68
1, 273165, Note_off_c, 0, 83, 63
1, 273167, Control_c, 0, 64, 119
1, 273175, Note_off_c, 0, 81, 65
1, 273181, Control_c, 0, 64, 86
1, 273196, Control_c, 0, 64, 64
1, 273211, Note_on_c, 0, 84, 97
1, 273211, Control_c, 0, 64, 0
1, 273223, Note_on_c, 0, 81, 70
1, 273224, Note_on_c, 0, 65, 75
1, 273233, Note_on_c, 0, 71, 47
1, 273259, Note_off_c, 0, 71, 58
1, 273260, Note_off_c, 0, 81, 63
1, 273265, Note_off_c, 0, 84, 60
1, 273268, Note_off_c, 0, 65, 63
1, 273301, Note_on_c, 0, 86, 99
1, 273362, Note_off_c, 0, 86, 66
1, 273396, Control_c, 0, 64, 74
1, 273403, Note_on_c, 0, 88, 98
1, 273410, Note_on_c, 0, 52, 76
1, 273410, Note_on_c, 0, 81, 85
1, 273411, Control_c, 0, 64, 96
1, 273415, Note_on_c, 0, 64, 75
1, 273426, Control_c, 0, 64, 127
1, 273442, Note_off_c, 0, 52, 66
1, 273454, Note_off_c, 0, 64, 60
1, 273471, Note_off_c, 0, 81, 64
1, 273494, Note_on_c, 0, 84, 88
1, 273511, Note_off_c, 0, 88, 62
1, 273548, Note_off_c, 0, 84, 65
1, 273612, Note_on_c, 0, 84, 100
1, 273614, Note_on_c, 0, 66, 79
1, 273616, Note_on_c, 0, 75, 92
1, 273618, Control_c, 0, 64, 89
1, 273629, Note_on_c, 0, 64, 65
1, 273633, Control_c, 0, 64, 71
1, 273648, Control_c, 0, 64, 66
1, 273663, Control_c, 0, 64, 72
1, 273677, Control_c, 0, 64, 86
1, 273692, Control_c, 0, 64, 127
1, 273713, Note_on_c, 0, 83, 89
1, 273736, Note_off_c, 0, 84, 63
1, 273750, Note_off_c, 0, 75, 62
1, 273759, Note_off_c, 0, 64, 59
1, 273772, Note_off_c, 0, 83, 65
1, 273825, Control_c, 0, 64, 100
1, 273840, Note_on_c, 0, 83, 96
1, 273840, Control_c, 0, 64, 73
1, 273849, Note_on_c, 0, 74, 90
1, 273854, Note_on_c, 0, 68, 75
1, 273855, Control_c, 0, 64, 52
1, 273859, Note_on_c, 0, 64, 72
1, 273870, Control_c, 0, 64, 58
1, 273885, Control_c, 0, 64, 69
1, 273893, Note_off_c, 0, 66, 58
1, 273900, Control_c, 0, 64, 87
1, 273915, Control_c, 0, 64, 127
1, 273921, Note_off_c, 0, 68, 62
1, 273930, Note_off_c, 0, 64, 62
1, 273940, Note_off_c, 0, 74, 62
1, 273968, Note_on_c, 0, 76, 94
1, 274009, Note_off_c, 0, 83, 60
1, 274025, Note_off_c, 0, 76, 65
1, 274093, Control_c, 0, 64, 107
1, 274108, Control_c, 0, 64, 71
1, 274130, Control_c, 0, 64, 0
1, 274143, Note_on_c, 0, 57, 90
1, 274144, Note_on_c, 0, 45, 91
1, 274174, Control_c, 0, 64, 67
1, 274189, Note_off_c, 0, 45, 66
1, 274189, Control_c, 0, 64, 96
1, 274197, Note_off_c, 0, 57, 63
1, 274204, Control_c, 0, 64, 127
1, 274296, Note_on_c, 0, 84, 95
1, 274301, Note_on_c, 0, 81, 99
1, 274361, Note_off_c, 0, 81, 62
1, 274366, Note_off_c, 0, 84, 60
1, 274457, Note_on_c, 0, 80, 90
1, 274458, Note_on_c, 0, 84, 90
1, 274466, Note_on_c, 0, 69, 79
1, 274474, Note_on_c, 0, 57, 75
1, 274500, Note_off_c, 0, 84, 63
1, 274519, Note_off_c, 0, 80, 62
1, 274530, Control_c, 0, 64, 113
1, 274545, Control_c, 0, 64, 76
1, 274560, Control_c, 0, 64, 0
1, 274569, Note_on_c, 0, 84, 86
1, 274576, Note_on_c, 0, 79, 82
1, 274614, Note_off_c, 0, 84, 65
1, 274622, Note_off_c, 0, 79, 65
1, 274653, Note_off_c, 0, 69, 55
1, 274680, Note_on_c, 0, 78, 92
1, 274681, Note_on_c, 0, 84, 82
1, 274687, Note_on_c, 0, 60, 75
1, 274690, Note_on_c, 0, 65, 72
1, 274704, Note_off_c, 0, 84, 66
1, 274716, Note_off_c, 0, 65, 68
1, 274739, Note_off_c, 0, 78, 63
1, 274748, Note_off_c, 0, 57, 56
1, 274754, Note_off_c, 0, 60, 64
1, 274775, Note_on_c, 0, 84, 91
1, 274785, Note_on_c, 0, 77, 83
1, 274818, Note_off_c, 0, 84, 67
1, 274821, Note_off_c, 0, 77, 65
1, 274875, Note_on_c, 0, 56, 88
1, 274875, Note_on_c, 0, 83, 92
1, 274878, Note_on_c, 0, 44, 82
1, 274879, Control_c, 0, 64, 61
1, 274883, Note_on_c, 0, 77, 85
1, 274894, Control_c, 0, 64, 88
1, 274898, Note_off_c, 0, 56, 72
1, 274899, Note_off_c, 0, 44, 67
1, 274909, Control_c, 0, 64, 127
1, 274921, Note_off_c, 0, 83, 65
1, 274934, Note_off_c, 0, 77, 62
1, 274978, Note_on_c, 0, 83, 91
1, 274979, Note_on_c, 0, 76, 90
1, 275015, Note_off_c, 0, 83, 67
1, 275020, Note_off_c, 0, 76, 65
1, 275074, Note_on_c, 0, 75, 87
1, 275074, Note_on_c, 0, 83, 80
1, 275079, Note_on_c, 0, 68, 79
1, 275082, Note_on_c, 0, 56, 75
1, 275095, Note_off_c, 0, 83, 68
1, 275116, Control_c, 0, 64, 98
1, 275131, Note_off_c, 0, 75, 63
1, 275131, Control_c, 0, 64, 74
1, 275146, Control_c, 0, 64, 0
1, 275162, Note_on_c, 0, 83, 90
1, 275167, Note_on_c, 0, 76, 85
1, 275192, Note_off_c, 0, 68, 60
1, 275199, Note_off_c, 0, 83, 66
1, 275211, Note_off_c, 0, 76, 64
1, 275225, Note_off_c, 0, 56, 60
1, 275253, Note_on_c, 0, 83, 85
1, 275260, Note_on_c, 0, 77, 88
1, 275265, Note_on_c, 0, 59, 61
1, 275267, Note_on_c, 0, 64, 52
1, 275289, Note_off_c, 0, 83, 68
1, 275291, Note_off_c, 0, 64, 62
1, 275310, Note_off_c, 0, 77, 65
1, 275324, Note_off_c, 0, 59, 62
1, 275342, Note_on_c, 0, 83, 90
1, 275343, Note_on_c, 0, 76, 92
1, 275375, Note_off_c, 0, 83, 67
1, 275382, Note_off_c, 0, 76, 64
1, 275437, Note_on_c, 0, 43, 83
1, 275438, Note_on_c, 0, 55, 83
1, 275441, Control_c, 0, 64, 71
1, 275443, Note_on_c, 0, 82, 96
1, 275443, Note_on_c, 0, 87, 94
1, 275456, Control_c, 0, 64, 103
1, 275461, Note_off_c, 0, 43, 66
1, 275462, Note_off_c, 0, 55, 70
1, 275471, Control_c, 0, 64, 127
1, 275486, Note_off_c, 0, 82, 64
1, 275486, Note_off_c, 0, 87, 63
1, 275518, Note_on_c, 0, 79, 60
1, 275523, Note_on_c, 0, 82, 85
1, 275563, Note_off_c, 0, 82, 65
1, 275572, Note_off_c, 0, 79, 64
1, 275629, Note_on_c, 0, 82, 87
1, 275637, Note_on_c, 0, 78, 86
1, 275651, Note_on_c, 0, 67, 78
1, 275654, Note_on_c, 0, 55, 78
1, 275656, Note_off_c, 0, 82, 62
1, 275672, Control_c, 0, 64, 90
1, 275680, Note_off_c, 0, 78, 62
1, 275687, Control_c, 0, 64, 62
1, 275702, Control_c, 0, 64, 0
1, 275717, Note_on_c, 0, 82, 91
1, 275721, Note_on_c, 0, 77, 79
1, 275754, Note_off_c, 0, 82, 66
1, 275766, Note_off_c, 0, 77, 64
1, 275799, Note_off_c, 0, 67, 57
1, 275808, Note_on_c, 0, 82, 94
1, 275813, Note_on_c, 0, 76, 93
1, 275822, Note_on_c, 0, 58, 83
1, 275823, Note_on_c, 0, 63, 69
1, 275849, Note_off_c, 0, 63, 66
1, 275851, Note_off_c, 0, 82, 65
1, 275854, Note_off_c, 0, 55, 60
1, 275855, Note_off_c, 0, 76, 63
1, 275876, Note_off_c, 0, 58, 66
1, 275894, Note_on_c, 0, 82, 83
1, 275902, Note_on_c, 0, 75, 85
1, 275945, Note_off_c, 0, 82, 65
1, 275949, Note_off_c, 0, 75, 65
1, 275986, Note_on_c, 0, 81, 95
1, 275990, Note_on_c, 0, 75, 76
1, 275991, Note_on_c, 0, 42, 83
1, 275991, Note_on_c, 0, 54, 91
1, 275998, Control_c, 0, 64, 66
1, 276013, Control_c, 0, 64, 95
1, 276015, Note_off_c, 0, 54, 70
1, 276020, Note_off_c, 0, 42, 67
1, 276028, Control_c, 0, 64, 127
1, 276031, Note_off_c, 0, 81, 65
1, 276044, Note_off_c, 0, 75, 61
1, 276074, Note_on_c, 0, 74, 89
1, 276074, Note_on_c, 0, 81, 82
1, 276110, Note_off_c, 0, 81, 68
1, 276125, Note_off_c, 0, 74, 66
1, 276171, Note_on_c, 0, 81, 96
1, 276172, Note_on_c, 0, 73, 92
1, 276180, Note_on_c, 0, 66, 81
1, 276187, Note_on_c, 0, 54, 70
1, 276202, Note_off_c, 0, 81, 68
1, 276230, Note_off_c, 0, 73, 62
1, 276250, Control_c, 0, 64, 88
1, 276256, Note_off_c, 0, 66, 62
1, 276258, Note_on_c, 0, 81, 89
1, 276263, Note_on_c, 0, 74, 89
1, 276264, Control_c, 0, 64, 67
1, 276279, Control_c, 0, 64, 0
1, 276281, Note_off_c, 0, 54, 64
1, 276295, Note_off_c, 0, 81, 67
1, 276311, Note_off_c, 0, 74, 66
1, 276346, Note_on_c, 0, 81, 88
1, 276349, Note_on_c, 0, 75, 91
1, 276359, Note_on_c, 0, 62, 66
1, 276369, Note_on_c, 0, 57, 71
1, 276392, Note_off_c, 0, 62, 65
1, 276392, Note_off_c, 0, 81, 65
1, 276417, Note_off_c, 0, 75, 60
1, 276422, Note_off_c, 0, 57, 64
1, 276437, Note_on_c, 0, 81, 86
1, 276442, Note_on_c, 0, 74, 86
1, 276476, Note_off_c, 0, 81, 64
1, 276484, Note_off_c, 0, 74, 66
1, 276525, Control_c, 0, 64, 62
1, 276536, Note_on_c, 0, 85, 103
1, 276540, Note_on_c, 0, 41, 87
1, 276540, Note_on_c, 0, 53, 90
1, 276540, Control_c, 0, 64, 95
1, 276542, Note_on_c, 0, 80, 96
1, 276555, Control_c, 0, 64, 127
1, 276564, Note_off_c, 0, 53, 70
1, 276566, Note_off_c, 0, 41, 65
1, 276579, Note_off_c, 0, 80, 66
1, 276580, Note_off_c, 0, 85, 61
1, 276626, Note_on_c, 0, 80, 99
1, 276630, Note_on_c, 0, 77, 25
1, 276669, Note_off_c, 0, 80, 63
1, 276680, Note_off_c, 0, 77, 63
1, 276736, Note_on_c, 0, 76, 93
1, 276736, Note_on_c, 0, 80, 88
1, 276739, Note_on_c, 0, 65, 84
1, 276741, Note_on_c, 0, 53, 84
1, 276762, Control_c, 0, 64, 99
1, 276776, Note_off_c, 0, 80, 63
1, 276776, Control_c, 0, 64, 73
1, 276780, Note_off_c, 0, 76, 66
1, 276791, Control_c, 0, 64, 0
1, 276827, Note_on_c, 0, 80, 92
1, 276838, Note_on_c, 0, 75, 85
1, 276887, Note_off_c, 0, 80, 61
1, 276899, Note_off_c, 0, 75, 63
1, 276917, Note_off_c, 0, 65, 58
1, 276935, Note_on_c, 0, 74, 74
1, 276939, Note_on_c, 0, 80, 82
1, 276943, Note_on_c, 0, 61, 64
1, 276945, Note_on_c, 0, 56, 77
1, 276975, Note_off_c, 0, 61, 66
1, 276988, Note_off_c, 0, 53, 52
1, 276990, Note_off_c, 0, 80, 64
1, 277001, Note_off_c, 0, 74, 66
1, 277008, Note_off_c, 0, 56, 66
1, 277052, Note_on_c, 0, 80, 82
1, 277055, Note_on_c, 0, 73, 89
1, 277167, Note_on_c, 0, 40, 82
1, 277169, Note_on_c, 0, 52, 81
1, 277170, Control_c, 0, 64, 35
1, 277185, Control_c, 0, 64, 75
1, 277200, Control_c, 0, 64, 98
1, 277212, Note_off_c, 0, 40, 62
1, 277215, Control_c, 0, 64, 127
1, 277221, Note_off_c, 0, 52, 62
1, 277241, Note_off_c, 0, 80, 62
1, 277282, Note_on_c, 0, 79, 91
1, 277317, Note_off_c, 0, 73, 61
1, 277383, Note_off_c, 0, 79, 62
1, 277386, Note_on_c, 0, 52, 88
1, 277388, Note_on_c, 0, 64, 86
1, 277422, Control_c, 0, 64, 105
1, 277436, Control_c, 0, 64, 93
1, 277451, Control_c, 0, 64, 92
1, 277466, Control_c, 0, 64, 102
1, 277481, Note_off_c, 0, 52, 57
1, 277481, Control_c, 0, 64, 127
1, 277483, Note_on_c, 0, 79, 105
1, 277492, Note_off_c, 0, 64, 60
1, 277494, Note_on_c, 0, 72, 89
1, 277522, Note_on_c, 0, 78, 11
1, 277523, Note_off_c, 0, 78, 127
1, 277569, Note_off_c, 0, 72, 57
1, 277592, Note_on_c, 0, 50, 87
1, 277597, Note_on_c, 0, 65, 89
1, 277599, Control_c, 0, 64, 81
1, 277609, Poly_aftertouch_c, 0, 54, 127
1, 277614, Control_c, 0, 64, 49
1, 277629, Control_c, 0, 64, 0
1, 277641, Poly_aftertouch_c, 0, 54, 0
1, 277644, Control_c, 0, 64, 59
1, 277659, Control_c, 0, 64, 70
1, 277674, Control_c, 0, 64, 93
1, 277689, Note_on_c, 0, 80, 95
1, 277689, Control_c, 0, 64, 127
1, 277699, Note_on_c, 0, 71, 94
1, 277709, Note_off_c, 0, 65, 60
1, 277727, Note_off_c, 0, 79, 61
1, 277731, Note_off_c, 0, 50, 61
1, 277796, Note_off_c, 0, 71, 56
1, 277807, Control_c, 0, 64, 126
1, 277822, Control_c, 0, 64, 77
1, 277832, Note_on_c, 0, 64, 87
1, 277832, Note_on_c, 0, 48, 85
1, 277836, Control_c, 0, 64, 0
1, 277888, Control_c, 0, 64, 59
1, 277903, Control_c, 0, 64, 75
1, 277917, Note_off_c, 0, 64, 64
1, 277918, Control_c, 0, 64, 113
1, 277933, Control_c, 0, 64, 127
1, 277966, Note_on_c, 0, 81, 93
1, 277975, Note_on_c, 0, 69, 97
1, 277985, Note_off_c, 0, 48, 63
1, 277998, Note_off_c, 0, 80, 61
1, 278030, Note_off_c, 0, 81, 53
1, 278118, Note_off_c, 0, 69, 58
1, 278156, Control_c, 0, 64, 87
1, 278169, Note_on_c, 0, 50, 86
1, 278170, Note_on_c, 0, 38, 89
1, 278171, Control_c, 0, 64, 44
1, 278186, Control_c, 0, 64, 0
1, 278245, Control_c, 0, 64, 75
1, 278259, Control_c, 0, 64, 126
1, 278274, Control_c, 0, 64, 127
1, 278276, Note_off_c, 0, 38, 60
1, 278326, Note_off_c, 0, 50, 64
1, 278365, Note_on_c, 0, 71, 85
1, 278374, Note_on_c, 0, 69, 85
1, 278517, Note_on_c, 0, 50, 28
1, 278536, Note_on_c, 0, 57, 61
1, 278540, Note_on_c, 0, 59, 78
1, 278621, Note_off_c, 0, 59, 58
1, 278627, Note_off_c, 0, 57, 52
1, 278666, Note_off_c, 0, 50, 64
1, 278680, Note_on_c, 0, 77, 90
1, 278690, Note_on_c, 0, 65, 78
1, 278747, Note_off_c, 0, 71, 55
1, 278791, Note_on_c, 0, 50, 80
1, 278793, Note_on_c, 0, 38, 82
1, 278803, Note_off_c, 0, 65, 57
1, 278812, Note_off_c, 0, 77, 57
1, 278820, Note_off_c, 0, 69, 35
1, 278836, Note_off_c, 0, 38, 64
1, 278852, Note_off_c, 0, 50, 65
1, 278893, Note_on_c, 0, 77, 91
1, 278894, Note_on_c, 0, 65, 88
1, 279000, Note_on_c, 0, 50, 72
1, 279003, Note_on_c, 0, 69, 73
1, 279003, Note_on_c, 0, 57, 78
1, 279005, Note_on_c, 0, 71, 79
1, 279013, Note_on_c, 0, 59, 83
1, 279024, Note_off_c, 0, 65, 31
1, 279033, Note_on_c, 0, 70, 40
1, 279034, Note_off_c, 0, 70, 127
1, 279036, Note_off_c, 0, 77, 61
1, 279051, Note_off_c, 0, 57, 62
1, 279055, Note_off_c, 0, 59, 57
1, 279082, Note_off_c, 0, 50, 65
1, 279107, Note_on_c, 0, 77, 90
1, 279113, Note_on_c, 0, 65, 85
1, 279117, Note_off_c, 0, 71, 59
1, 279132, Note_off_c, 0, 69, 65
1, 279201, Control_c, 0, 64, 81
1, 279215, Control_c, 0, 64, 0
1, 279242, Note_on_c, 0, 71, 78
1, 279242, Note_on_c, 0, 52, 89
1, 279245, Note_on_c, 0, 40, 87
1, 279251, Note_on_c, 0, 68, 84
1, 279273, Note_off_c, 0, 65, 53
1, 279275, Note_off_c, 0, 77, 53
1, 279319, Control_c, 0, 64, 68
1, 279334, Control_c, 0, 64, 85
1, 279349, Control_c, 0, 64, 127
1, 279368, Note_off_c, 0, 52, 56
1, 279417, Note_off_c, 0, 40, 62
1, 279418, Note_on_c, 0, 76, 82
1, 279427, Note_on_c, 0, 64, 84
1, 279433, Note_off_c, 0, 71, 62
1, 279450, Note_off_c, 0, 68, 56
1, 279477, Note_off_c, 0, 76, 59
1, 279565, Control_c, 0, 64, 99
1, 279580, Control_c, 0, 64, 56
1, 279583, Note_off_c, 0, 64, 40
1, 279594, Control_c, 0, 64, 0
1, 279605, Note_on_c, 0, 45, 97
1, 279608, Note_on_c, 0, 33, 90
1, 279653, Control_c, 0, 64, 46
1, 279668, Control_c, 0, 64, 83
1, 279670, Note_off_c, 0, 33, 62
1, 279683, Control_c, 0, 64, 127
1, 279695, Note_off_c, 0, 45, 64
1, 279773, Note_on_c, 0, 72, 93
1, 279777, Note_on_c, 0, 69, 90
1, 279844, Note_off_c, 0, 72, 64
1, 279844, Note_off_c, 0, 69, 66
1, 279918, Note_on_c, 0, 72, 92
1, 279921, Note_on_c, 0, 68, 89
1, 279927, Note_on_c, 0, 57, 85
1, 279930, Note_on_c, 0, 45, 88
1, 279973, Note_off_c, 0, 72, 58
1, 279989, Note_off_c, 0, 68, 60
1, 280031, Note_on_c, 0, 72, 83
1, 280035, Note_on_c, 0, 67, 81
1, 280077, Note_off_c, 0, 72, 66
1, 280086, Note_off_c, 0, 67, 64
1, 280098, Control_c, 0, 64, 106
1, 280102, Note_off_c, 0, 57, 58
1, 280120, Control_c, 0, 64, 70
1, 280135, Control_c, 0, 64, 0
1, 280146, Note_on_c, 0, 48, 76
1, 280147, Note_on_c, 0, 72, 84
1, 280149, Note_on_c, 0, 53, 73
1, 280150, Note_off_c, 0, 45, 64
1, 280151, Note_on_c, 0, 66, 90
1, 280174, Note_off_c, 0, 53, 68
1, 280183, Note_off_c, 0, 72, 67
1, 280206, Note_off_c, 0, 48, 63
1, 280215, Note_off_c, 0, 66, 64
1, 280254, Note_on_c, 0, 65, 83
1, 280254, Note_on_c, 0, 72, 89
1, 280294, Note_off_c, 0, 72, 62
1, 280301, Note_off_c, 0, 65, 65
1, 280341, Note_on_c, 0, 44, 78
1, 280343, Control_c, 0, 64, 53
1, 280345, Note_on_c, 0, 32, 74
1, 280346, Note_on_c, 0, 71, 86
1, 280354, Note_on_c, 0, 65, 85
1, 280358, Control_c, 0, 64, 83
1, 280365, Note_off_c, 0, 44, 66
1, 280368, Note_on_c, 0, 46, 45
1, 280369, Note_off_c, 0, 46, 127
1, 280371, Note_off_c, 0, 32, 62
1, 280373, Control_c, 0, 64, 127
1, 280397, Note_off_c, 0, 71, 64
1, 280407, Note_off_c, 0, 65, 66
1, 280451, Note_on_c, 0, 71, 77
1, 280456, Note_on_c, 0, 64, 83
1, 280485, Note_off_c, 0, 71, 65
1, 280494, Note_off_c, 0, 64, 65
1, 280543, Note_on_c, 0, 56, 82
1, 280545, Note_on_c, 0, 71, 81
1, 280550, Note_on_c, 0, 44, 65
1, 280553, Note_on_c, 0, 63, 84
1, 280570, Note_off_c, 0, 71, 64
1, 280595, Control_c, 0, 64, 106
1, 280610, Control_c, 0, 64, 79
1, 280610, Note_off_c, 0, 63, 61
1, 280625, Control_c, 0, 64, 0
1, 280639, Note_on_c, 0, 71, 84
1, 280646, Note_on_c, 0, 64, 78
1, 280678, Note_off_c, 0, 56, 64
1, 280680, Note_off_c, 0, 71, 64
1, 280693, Note_off_c, 0, 64, 64
1, 280704, Note_off_c, 0, 44, 63
1, 280730, Note_on_c, 0, 71, 78
1, 280731, Note_on_c, 0, 65, 87
1, 280733, Note_on_c, 0, 47, 65
1, 280735, Note_on_c, 0, 52, 68
1, 280765, Note_off_c, 0, 52, 63
1, 280771, Note_off_c, 0, 71, 65
1, 280795, Note_off_c, 0, 65, 62
1, 280805, Note_off_c, 0, 47, 65
1, 280818, Note_on_c, 0, 71, 83
1, 280823, Note_on_c, 0, 64, 88
1, 280863, Note_off_c, 0, 71, 68
1, 280880, Note_off_c, 0, 64, 66
1, 280923, Note_on_c, 0, 70, 97
1, 280924, Note_on_c, 0, 43, 93
1, 280927, Note_on_c, 0, 75, 91
1, 280929, Control_c, 0, 64, 68
1, 280931, Note_on_c, 0, 31, 86
1, 280944, Control_c, 0, 64, 96
1, 280953, Note_off_c, 0, 43, 66
1, 280958, Note_off_c, 0, 31, 64
1, 280959, Control_c, 0, 64, 127
1, 280970, Note_off_c, 0, 70, 65
1, 280979, Note_off_c, 0, 75, 63
1, 281015, Note_on_c, 0, 67, 89
1, 281015, Note_on_c, 0, 70, 82
1, 281051, Note_off_c, 0, 70, 67
1, 281064, Note_off_c, 0, 67, 65
1, 281114, Note_on_c, 0, 70, 82
1, 281120, Note_on_c, 0, 66, 85
1, 281129, Note_on_c, 0, 55, 89
1, 281132, Note_on_c, 0, 43, 85
1, 281150, Note_off_c, 0, 70, 61
1, 281152, Control_c, 0, 64, 94
1, 281167, Control_c, 0, 64, 68
1, 281172, Note_off_c, 0, 66, 62
1, 281182, Control_c, 0, 64, 0
1, 281205, Note_on_c, 0, 70, 87
1, 281210, Note_on_c, 0, 65, 85
1, 281251, Note_off_c, 0, 70, 66
1, 281261, Note_off_c, 0, 65, 63
1, 281298, Note_on_c, 0, 70, 90
1, 281306, Note_on_c, 0, 64, 88
1, 281308, Note_on_c, 0, 51, 80
1, 281311, Note_on_c, 0, 46, 79
1, 281313, Note_off_c, 0, 55, 64
1, 281343, Note_off_c, 0, 51, 66
1, 281346, Note_off_c, 0, 43, 55
1, 281349, Note_off_c, 0, 64, 66
1, 281349, Note_off_c, 0, 70, 63
1, 281376, Note_off_c, 0, 46, 63
1, 281387, Note_on_c, 0, 70, 76
1, 281396, Note_on_c, 0, 63, 85
1, 281439, Note_off_c, 0, 70, 64
1, 281448, Note_off_c, 0, 63, 64
1, 281471, Note_on_c, 0, 42, 99
1, 281472, Note_on_c, 0, 30, 87
1, 281478, Control_c, 0, 64, 77
1, 281479, Note_on_c, 0, 69, 94
1, 281480, Note_on_c, 0, 63, 77
1, 281492, Control_c, 0, 64, 127
1, 281498, Note_off_c, 0, 42, 65
1, 281499, Note_off_c, 0, 30, 65
1, 281522, Note_off_c, 0, 69, 67
1, 281541, Note_off_c, 0, 63, 58
1, 281569, Note_on_c, 0, 62, 82
1, 281574, Note_on_c, 0, 69, 84
1, 281616, Note_off_c, 0, 69, 66
1, 281632, Note_off_c, 0, 62, 63
1, 281675, Note_on_c, 0, 54, 88
1, 281680, Note_on_c, 0, 69, 88
1, 281680, Note_on_c, 0, 61, 89
1, 281682, Note_on_c, 0, 42, 75
1, 281714, Note_off_c, 0, 69, 65
1, 281737, Note_off_c, 0, 61, 63
1, 281760, Note_off_c, 0, 54, 60
1, 281764, Note_on_c, 0, 69, 88
1, 281766, Note_on_c, 0, 62, 81
1, 281779, Note_off_c, 0, 42, 62
1, 281796, Control_c, 0, 64, 92
1, 281799, Note_off_c, 0, 69, 68
1, 281811, Control_c, 0, 64, 67
1, 281819, Note_off_c, 0, 62, 64
1, 281826, Control_c, 0, 64, 0
1, 281855, Note_on_c, 0, 69, 92
1, 281856, Note_on_c, 0, 63, 94
1, 281866, Note_on_c, 0, 50, 78
1, 281870, Note_on_c, 0, 45, 76
1, 281897, Note_off_c, 0, 50, 70
1, 281898, Note_off_c, 0, 69, 66
1, 281930, Note_off_c, 0, 45, 65
1, 281945, Note_on_c, 0, 62, 86
1, 281945, Note_on_c, 0, 69, 84
1, 281962, Note_off_c, 0, 63, 51
1, 281981, Note_off_c, 0, 69, 66
1, 281991, Note_off_c, 0, 62, 63
1, 282037, Note_on_c, 0, 41, 101
1, 282038, Note_on_c, 0, 29, 93
1, 282041, Note_on_c, 0, 68, 97
1, 282043, Note_on_c, 0, 73, 97
1, 282049, Control_c, 0, 64, 85
1, 282064, Control_c, 0, 64, 127
1, 282066, Note_off_c, 0, 29, 70
1, 282073, Note_off_c, 0, 41, 65
1, 282087, Note_off_c, 0, 68, 64
1, 282094, Note_on_c, 0, 65, 15
1, 282100, Note_off_c, 0, 73, 61
1, 282121, Poly_aftertouch_c, 0, 70, 0
1, 282130, Note_off_c, 0, 65, 0
1, 282130, Note_on_c, 0, 65, 28
1, 282130, Note_on_c, 0, 68, 84
1, 282172, Note_off_c, 0, 68, 63
1, 282181, Poly_aftertouch_c, 0, 70, 0
1, 282190, Note_off_c, 0, 65, 63
1, 282233, Note_on_c, 0, 68, 82
1, 282234, Note_on_c, 0, 53, 95
1, 282235, Note_on_c, 0, 64, 86
1, 282240, Note_on_c, 0, 41, 88
1, 282267, Note_on_c, 0, 69, 49
1, 282276, Note_off_c, 0, 68, 61
1, 282288, Note_off_c, 0, 64, 66
1, 282292, Note_off_c, 0, 69, 61
1, 282315, Control_c, 0, 64, 94
1, 282330, Note_on_c, 0, 68, 82
1, 282330, Control_c, 0, 64, 68
1, 282339, Note_on_c, 0, 63, 81
1, 282345, Control_c, 0, 64, 0
1, 282384, Note_off_c, 0, 68, 64
1, 282407, Note_off_c, 0, 63, 63
1, 282446, Note_on_c, 0, 62, 78
1, 282452, Note_on_c, 0, 68, 87
1, 282456, Note_on_c, 0, 49, 81
1, 282459, Note_on_c, 0, 44, 80
1, 282464, Note_off_c, 0, 53, 62
1, 282500, Note_off_c, 0, 68, 62
1, 282509, Note_off_c, 0, 41, 59
1, 282510, Note_off_c, 0, 49, 64
1, 282510, Note_off_c, 0, 62, 64
1, 282534, Note_off_c, 0, 44, 64
1, 282553, Note_on_c, 0, 68, 78
1, 282557, Note_on_c, 0, 61, 88
1, 282664, Note_on_c, 0, 28, 86
1, 282664, Note_on_c, 0, 40, 85
1, 282678, Control_c, 0, 64, 67
1, 282693, Control_c, 0, 64, 89
1, 282703, Note_off_c, 0, 28, 60
1, 282707, Control_c, 0, 64, 127
1, 282723, Note_off_c, 0, 40, 63
1, 282735, Note_off_c, 0, 68, 60
1, 282777, Note_on_c, 0, 67, 96
1, 282803, Note_off_c, 0, 61, 64
1, 282881, Note_on_c, 0, 52, 84
1, 282881, Note_on_c, 0, 40, 80
1, 282896, Note_off_c, 0, 67, 65
1, 282945, Control_c, 0, 64, 118
1, 282960, Control_c, 0, 64, 85
1, 282974, Control_c, 0, 64, 72
1, 282980, Note_off_c, 0, 40, 59
1, 282987, Note_on_c, 0, 67, 101
1, 282989, Control_c, 0, 64, 71
1, 282990, Note_off_c, 0, 52, 61
1, 283002, Note_on_c, 0, 60, 76
1, 283004, Control_c, 0, 64, 82
1, 283019, Control_c, 0, 64, 111
1, 283034, Control_c, 0, 64, 127
1, 283086, Note_off_c, 0, 60, 58
1, 283099, Note_on_c, 0, 38, 80
1, 283099, Note_on_c, 0, 53, 85
1, 283145, Control_c, 0, 64, 118
1, 283160, Control_c, 0, 64, 76
1, 283175, Control_c, 0, 64, 0
1, 283206, Note_on_c, 0, 68, 96
1, 283216, Note_on_c, 0, 59, 88
1, 283219, Control_c, 0, 64, 61
1, 283229, Note_off_c, 0, 53, 62
1, 283234, Control_c, 0, 64, 76
1, 283236, Note_off_c, 0, 38, 60
1, 283241, Note_off_c, 0, 67, 61
1, 283249, Control_c, 0, 64, 111
1, 283263, Control_c, 0, 64, 127
1, 283304, Note_off_c, 0, 59, 58
1, 283355, Note_on_c, 0, 52, 79
1, 283356, Note_on_c, 0, 36, 79
1, 283382, Control_c, 0, 64, 103
1, 283397, Control_c, 0, 64, 71
1, 283412, Control_c, 0, 64, 0
1, 283466, Note_off_c, 0, 52, 61
1, 283471, Control_c, 0, 64, 66
1, 283475, Note_on_c, 0, 69, 93
1, 283486, Control_c, 0, 64, 83
1, 283486, Note_on_c, 0, 57, 89
1, 283501, Control_c, 0, 64, 127
1, 283519, Note_off_c, 0, 68, 62
1, 283533, Note_off_c, 0, 36, 59
1, 283573, Note_off_c, 0, 69, 59
1, 283650, Note_off_c, 0, 57, 53
1, 283704, Note_on_c, 0, 26, 74
1, 283710, Note_on_c, 0, 38, 68
1, 283739, Control_c, 0, 64, 107
1, 283753, Control_c, 0, 64, 72
1, 283768, Control_c, 0, 64, 0
1, 283827, Control_c, 0, 64, 34
1, 283843, Control_c, 0, 64, 64
1, 283865, Control_c, 0, 64, 75
1, 283880, Control_c, 0, 64, 90
1, 283895, Control_c, 0, 64, 127
1, 283897, Note_off_c, 0, 26, 61
1, 283922, Note_on_c, 0, 59, 66
1, 283930, Note_on_c, 0, 57, 50
1, 283943, Note_off_c, 0, 38, 59
1, 284122, Note_on_c, 0, 38, 48
1, 284145, Note_on_c, 0, 47, 39
1, 284180, Note_off_c, 0, 47, 52
1, 284194, Note_off_c, 0, 38, 61
1, 284218, Note_on_c, 0, 65, 71
1, 284247, Note_on_c, 0, 53, 56
1, 284350, Note_on_c, 0, 26, 64
1, 284353, Note_off_c, 0, 53, 53
1, 284358, Note_off_c, 0, 59, 46
1, 284359, Note_on_c, 0, 38, 56
1, 284369, Note_off_c, 0, 65, 62
1, 284402, Note_off_c, 0, 26, 61
1, 284408, Note_off_c, 0, 57, 36
1, 284418, Note_off_c, 0, 38, 60
1, 284443, Note_on_c, 0, 65, 86
1, 284457, Note_on_c, 0, 53, 76
1, 284558, Note_off_c, 0, 53, 47
1, 284559, Note_on_c, 0, 47, 62
1, 284563, Note_on_c, 0, 38, 64
1, 284568, Note_on_c, 0, 57, 56
1, 284568, Note_on_c, 0, 59, 62
1, 284589, Note_off_c, 0, 47, 66
1, 284592, Note_off_c, 0, 65, 61
1, 284608, Note_off_c, 0, 38, 63
1, 284675, Note_off_c, 0, 59, 59
1, 284682, Note_off_c, 0, 57, 61
1, 284690, Note_on_c, 0, 53, 63
1, 284693, Note_on_c, 0, 65, 60
1, 284790, Control_c, 0, 64, 88
1, 284796, Note_off_c, 0, 53, 54
1, 284805, Control_c, 0, 64, 59
1, 284820, Control_c, 0, 64, 0
1, 284832, Note_off_c, 0, 65, 54
1, 284838, Note_on_c, 0, 28, 60
1, 284843, Note_on_c, 0, 40, 55
1, 284843, Note_on_c, 0, 59, 52
1, 284852, Note_on_c, 0, 56, 49
1, 284968, Control_c, 0, 64, 60
1, 284983, Control_c, 0, 64, 68
1, 284998, Control_c, 0, 64, 80
1, 285013, Control_c, 0, 64, 98
1, 285014, Note_off_c, 0, 56, 51
1, 285019, Note_on_c, 0, 64, 55
1, 285022, Note_off_c, 0, 59, 53
1, 285027, Control_c, 0, 64, 127
1, 285037, Note_on_c, 0, 52, 45
1, 285038, Note_off_c, 0, 28, 55
1, 285057, Note_off_c, 0, 40, 55
1, 285092, Note_off_c, 0, 52, 54
1, 285097, Note_off_c, 0, 64, 59
1, 285221, Note_on_c, 0, 59, 52
1, 285233, Note_on_c, 0, 57, 45
1, 285236, Control_c, 0, 64, 95
1, 285237, Note_on_c, 0, 29, 52
1, 285246, Note_on_c, 0, 41, 48
1, 285250, Control_c, 0, 64, 73
1, 285265, Control_c, 0, 64, 0
1, 285376, Control_c, 0, 64, 64
1, 285391, Control_c, 0, 64, 75
1, 285406, Control_c, 0, 64, 93
1, 285421, Control_c, 0, 64, 127
1, 285433, Note_off_c, 0, 41, 58
1, 285445, Note_off_c, 0, 29, 38
1, 285451, Note_on_c, 0, 63, 52
1, 285475, Note_on_c, 0, 51, 40
1, 285492, Note_off_c, 0, 57, 57
1, 285496, Note_off_c, 0, 59, 58
1, 285509, Note_off_c, 0, 51, 54
1, 285517, Note_off_c, 0, 63, 57
1, 285731, Control_c, 0, 64, 104
1, 285734, Note_on_c, 0, 41, 47
1, 285746, Control_c, 0, 64, 80
1, 285751, Note_on_c, 0, 71, 37
1, 285754, Note_on_c, 0, 53, 43
1, 285761, Control_c, 0, 64, 59
1, 285762, Note_on_c, 0, 69, 39
1, 285776, Control_c, 0, 64, 0
1, 285806, Control_c, 0, 64, 64
1, 285821, Control_c, 0, 64, 74
1, 285835, Control_c, 0, 64, 90
1, 285850, Control_c, 0, 64, 127
1, 285854, Note_off_c, 0, 53, 64
1, 285860, Note_on_c, 0, 75, 53
1, 285865, Note_off_c, 0, 71, 49
1, 285871, Note_off_c, 0, 69, 50
1, 285885, Note_on_c, 0, 63, 31
1, 285975, Note_off_c, 0, 75, 57
1, 285987, Note_on_c, 0, 72, 51
1, 285998, Note_on_c, 0, 42, 54
1, 285999, Note_on_c, 0, 54, 52
1, 286018, Note_on_c, 0, 68, 42
1, 286027, Note_off_c, 0, 41, 46
1, 286056, Note_off_c, 0, 42, 59
1, 286073, Note_off_c, 0, 68, 58
1, 286080, Note_off_c, 0, 54, 49
1, 286085, Note_off_c, 0, 63, 0
1, 286085, Note_on_c, 0, 63, 17
1, 286104, Note_on_c, 0, 75, 59
1, 286151, Note_off_c, 0, 72, 38
1, 286199, Control_c, 0, 64, 101
1, 286201, Note_on_c, 0, 71, 59
1, 286206, Note_off_c, 0, 75, 54
1, 286210, Note_on_c, 0, 55, 66
1, 286211, Note_off_c, 0, 63, 31
1, 286214, Control_c, 0, 64, 76
1, 286214, Note_on_c, 0, 43, 60
1, 286221, Note_on_c, 0, 67, 47
1, 286229, Control_c, 0, 64, 40
1, 286244, Control_c, 0, 64, 0
1, 286252, Note_off_c, 0, 55, 62
1, 286274, Control_c, 0, 64, 64
1, 286288, Control_c, 0, 64, 76
1, 286294, Note_off_c, 0, 43, 63
1, 286303, Control_c, 0, 64, 98
1, 286304, Note_off_c, 0, 71, 57
1, 286312, Note_on_c, 0, 63, 45
1, 286315, Note_off_c, 0, 67, 55
1, 286317, Note_on_c, 0, 75, 62
1, 286318, Control_c, 0, 64, 127
1, 286399, Note_off_c, 0, 63, 38
1, 286412, Note_on_c, 0, 31, 65
1, 286412, Note_off_c, 0, 75, 59
1, 286416, Note_on_c, 0, 43, 65
1, 286421, Note_on_c, 0, 71, 58
1, 286439, Note_on_c, 0, 67, 44
1, 286447, Note_off_c, 0, 31, 62
1, 286452, Note_off_c, 0, 43, 61
1, 286483, Note_off_c, 0, 71, 58
1, 286500, Note_on_c, 0, 75, 68
1, 286508, Note_on_c, 0, 63, 59
1, 286521, Note_off_c, 0, 67, 58
1, 286604, Note_on_c, 0, 71, 59
1, 286610, Note_on_c, 0, 55, 70
1, 286614, Note_on_c, 0, 43, 72
1, 286616, Note_off_c, 0, 63, 60
1, 286622, Note_on_c, 0, 67, 65
1, 286626, Note_off_c, 0, 75, 59
1, 286646, Note_off_c, 0, 55, 64
1, 286670, Note_off_c, 0, 71, 58
1, 286685, Note_off_c, 0, 43, 63
1, 286699, Note_on_c, 0, 74, 76
1, 286718, Note_off_c, 0, 67, 60
1, 286723, Note_off_c, 0, 74, 68
1, 286725, Note_on_c, 0, 62, 65
1, 286757, Note_off_c, 0, 62, 64
1, 286822, Control_c, 0, 64, 115
1, 286837, Control_c, 0, 64, 78
1, 286859, Control_c, 0, 64, 0
1, 286868, Note_on_c, 0, 31, 79
1, 286872, Note_on_c, 0, 43, 73
1, 286874, Note_on_c, 0, 62, 61
1, 286879, Note_on_c, 0, 59, 56
1, 286888, Note_on_c, 0, 60, 56
1, 286929, Note_off_c, 0, 31, 62
1, 286933, Control_c, 0, 64, 63
1, 286937, Note_off_c, 0, 43, 63
1, 286948, Control_c, 0, 64, 79
1, 286953, Note_off_c, 0, 60, 59
1, 286962, Control_c, 0, 64, 127
1, 286972, Note_off_c, 0, 62, 60
1, 286981, Note_on_c, 0, 65, 73
1, 286997, Note_off_c, 0, 59, 61
1, 287017, Note_on_c, 0, 53, 14
1, 287019, Note_off_c, 0, 65, 62
1, 287066, Note_off_c, 0, 53, 41
1, 287119, Note_on_c, 0, 73, 79
1, 287130, Note_on_c, 0, 71, 69
1, 287137, Note_on_c, 0, 55, 78
1, 287138, Note_on_c, 0, 43, 79
1, 287219, Note_off_c, 0, 71, 60
1, 287225, Note_on_c, 0, 77, 75
1, 287227, Note_off_c, 0, 55, 60
1, 287237, Note_off_c, 0, 73, 60
1, 287238, Note_on_c, 0, 65, 66
1, 287292, Note_off_c, 0, 77, 54
1, 287293, Note_off_c, 0, 65, 62
1, 287320, Note_on_c, 0, 74, 85
1, 287323, Note_on_c, 0, 70, 84
1, 287330, Note_on_c, 0, 56, 90
1, 287334, Note_on_c, 0, 44, 80
1, 287362, Note_off_c, 0, 43, 62
1, 287408, Note_off_c, 0, 70, 63
1, 287411, Note_on_c, 0, 77, 87
1, 287413, Note_off_c, 0, 56, 61
1, 287420, Note_off_c, 0, 44, 63
1, 287424, Note_on_c, 0, 65, 86
1, 287425, Note_off_c, 0, 74, 57
1, 287466, Control_c, 0, 64, 101
1, 287474, Note_off_c, 0, 65, 63
1, 287481, Control_c, 0, 64, 70
1, 287482, Note_off_c, 0, 77, 55
1, 287496, Control_c, 0, 64, 0
1, 287514, Note_on_c, 0, 73, 85
1, 287522, Note_on_c, 0, 57, 90
1, 287522, Note_on_c, 0, 69, 80
1, 287524, Note_on_c, 0, 45, 90
1, 287541, Control_c, 0, 64, 67
1, 287556, Control_c, 0, 64, 101
1, 287566, Note_off_c, 0, 57, 65
1, 287570, Control_c, 0, 64, 127
1, 287612, Note_off_c, 0, 45, 64
1, 287622, Note_on_c, 0, 77, 82
1, 287627, Note_on_c, 0, 65, 78
1, 287640, Note_off_c, 0, 69, 64
1, 287645, Note_off_c, 0, 73, 61
1, 287713, Note_on_c, 0, 73, 83
1, 287714, Note_on_c, 0, 33, 86
1, 287716, Note_on_c, 0, 45, 87
1, 287719, Note_on_c, 0, 69, 85
1, 287722, Note_off_c, 0, 65, 39
1, 287739, Note_off_c, 0, 77, 60
1, 287763, Note_off_c, 0, 33, 61
1, 287767, Note_off_c, 0, 45, 65
1, 287812, Note_on_c, 0, 77, 88
1, 287820, Note_on_c, 0, 65, 89
1, 287821, Note_off_c, 0, 73, 64
1, 287827, Note_off_c, 0, 69, 64
1, 287907, Note_on_c, 0, 73, 95
1, 287909, Note_off_c, 0, 65, 41
1, 287912, Note_on_c, 0, 57, 88
1, 287913, Note_on_c, 0, 45, 90
1, 287914, Note_on_c, 0, 69, 86
1, 287932, Note_off_c, 0, 77, 60
1, 287951, Note_off_c, 0, 57, 67
1, 287983, Note_off_c, 0, 45, 65
1, 288000, Note_off_c, 0, 73, 60
1, 288003, Note_on_c, 0, 76, 91
1, 288010, Note_on_c, 0, 64, 89
1, 288020, Note_off_c, 0, 69, 63
1, 288040, Note_off_c, 0, 76, 65
1, 288055, Note_off_c, 0, 64, 68
1, 288127, Control_c, 0, 64, 85
1, 288142, Control_c, 0, 64, 0
1, 288144, Note_on_c, 0, 63, 91
1, 288150, Note_on_c, 0, 61, 86
1, 288154, Note_on_c, 0, 33, 83
1, 288155, Note_on_c, 0, 45, 86
1, 288216, Control_c, 0, 64, 47
1, 288219, Note_off_c, 0, 33, 61
1, 288221, Note_off_c, 0, 45, 62
1, 288231, Control_c, 0, 64, 80
1, 288245, Control_c, 0, 64, 127
1, 288297, Note_on_c, 0, 67, 82
1, 288298, Note_on_c, 0, 55, 79
1, 288317, Note_off_c, 0, 63, 61
1, 288319, Note_off_c, 0, 61, 62
1, 288324, Note_off_c, 0, 55, 69
1, 288355, Note_off_c, 0, 67, 64
1, 288458, Note_on_c, 0, 75, 83
1, 288475, Note_on_c, 0, 72, 71
1, 288479, Note_on_c, 0, 57, 79
1, 288480, Note_on_c, 0, 45, 86
1, 288560, Note_off_c, 0, 72, 58
1, 288581, Note_on_c, 0, 79, 73
1, 288592, Note_on_c, 0, 67, 80
1, 288605, Note_off_c, 0, 75, 60
1, 288607, Note_off_c, 0, 57, 59
1, 288646, Note_off_c, 0, 79, 63
1, 288658, Note_off_c, 0, 67, 62
1, 288682, Control_c, 0, 64, 113
1, 288697, Control_c, 0, 64, 114
1, 288704, Note_on_c, 0, 76, 87
1, 288707, Note_on_c, 0, 72, 86
1, 288712, Control_c, 0, 64, 127
1, 288715, Note_on_c, 0, 58, 92
1, 288718, Note_on_c, 0, 46, 87
1, 288752, Note_off_c, 0, 45, 61
1, 288807, Note_on_c, 0, 79, 86
1, 288809, Note_off_c, 0, 72, 64
1, 288811, Note_on_c, 0, 67, 84
1, 288813, Note_off_c, 0, 76, 64
1, 288829, Note_off_c, 0, 58, 59
1, 288831, Control_c, 0, 64, 84
1, 288846, Note_off_c, 0, 46, 59
1, 288846, Control_c, 0, 64, 64
1, 288856, Note_off_c, 0, 79, 62
1, 288861, Control_c, 0, 64, 56
1, 288862, Note_off_c, 0, 67, 64
1, 288875, Control_c, 0, 64, 66
1, 288890, Control_c, 0, 64, 80
1, 288904, Note_on_c, 0, 76, 93
1, 288905, Control_c, 0, 64, 127
1, 288906, Note_on_c, 0, 71, 94
1, 288912, Note_on_c, 0, 47, 90
1, 288913, Note_on_c, 0, 59, 93
1, 288980, Note_off_c, 0, 71, 64
1, 288992, Note_on_c, 0, 79, 87
1, 288994, Note_off_c, 0, 76, 62
1, 289001, Note_off_c, 0, 47, 64
1, 289001, Note_on_c, 0, 67, 87
1, 289003, Note_off_c, 0, 59, 56
1, 289038, Control_c, 0, 64, 91
1, 289040, Note_off_c, 0, 67, 62
1, 289040, Note_off_c, 0, 79, 65
1, 289053, Control_c, 0, 64, 77
1, 289067, Control_c, 0, 64, 75
1, 289082, Control_c, 0, 64, 86
1, 289086, Note_on_c, 0, 78, 92
1, 289089, Note_on_c, 0, 76, 89
1, 289100, Note_on_c, 0, 48, 94
1, 289102, Note_on_c, 0, 60, 92
1, 289105, Control_c, 0, 64, 127
1, 289128, Note_on_c, 0, 75, 29
1, 289144, Note_on_c, 0, 49, 41
1, 289166, Note_off_c, 0, 75, 54
1, 289178, Note_off_c, 0, 49, 54
1, 289182, Note_on_c, 0, 82, 92
1, 289183, Note_on_c, 0, 70, 96
1, 289185, Note_off_c, 0, 78, 60
1, 289188, Note_off_c, 0, 60, 64
1, 289188, Note_off_c, 0, 76, 63
1, 289224, Control_c, 0, 64, 100
1, 289237, Note_off_c, 0, 70, 64
1, 289239, Control_c, 0, 64, 78
1, 289251, Note_off_c, 0, 82, 55
1, 289254, Control_c, 0, 64, 70
1, 289269, Control_c, 0, 64, 75
1, 289273, Note_on_c, 0, 49, 83
1, 289273, Note_on_c, 0, 79, 90
1, 289275, Note_on_c, 0, 75, 84
1, 289277, Note_on_c, 0, 61, 102
1, 289284, Control_c, 0, 64, 93
1, 289298, Control_c, 0, 64, 127
1, 289311, Note_off_c, 0, 48, 64
1, 289357, Note_on_c, 0, 82, 97
1, 289364, Note_on_c, 0, 70, 88
1, 289374, Note_off_c, 0, 79, 62
1, 289375, Note_off_c, 0, 75, 61
1, 289392, Note_off_c, 0, 61, 56
1, 289410, Note_off_c, 0, 70, 66
1, 289417, Control_c, 0, 64, 85
1, 289421, Note_off_c, 0, 49, 64
1, 289423, Note_off_c, 0, 82, 65
1, 289431, Control_c, 0, 64, 65
1, 289446, Control_c, 0, 64, 61
1, 289448, Note_on_c, 0, 78, 90
1, 289454, Note_on_c, 0, 50, 90
1, 289457, Note_on_c, 0, 62, 104
1, 289458, Note_on_c, 0, 74, 97
1, 289461, Control_c, 0, 64, 70
1, 289476, Control_c, 0, 64, 88
1, 289482, Note_on_c, 0, 75, 12
1, 289490, Control_c, 0, 64, 127
1, 289506, Note_off_c, 0, 50, 67
1, 289516, Note_off_c, 0, 74, 67
1, 289532, Note_off_c, 0, 75, 42
1, 289544, Note_on_c, 0, 83, 91
1, 289545, Note_off_c, 0, 62, 49
1, 289553, Note_on_c, 0, 71, 94
1, 289555, Note_off_c, 0, 78, 62
1, 289591, Note_off_c, 0, 83, 66
1, 289597, Note_off_c, 0, 71, 68
1, 289609, Control_c, 0, 64, 93
1, 289624, Control_c, 0, 64, 68
1, 289639, Control_c, 0, 64, 48
1, 289639, Note_on_c, 0, 57, 65
1, 289643, Note_on_c, 0, 51, 89
1, 289644, Note_on_c, 0, 60, 63
1, 289644, Note_on_c, 0, 81, 98
1, 289645, Note_on_c, 0, 77, 98
1, 289648, Note_on_c, 0, 63, 102
1, 289654, Control_c, 0, 64, 66
1, 289669, Control_c, 0, 64, 80
1, 289684, Control_c, 0, 64, 127
1, 289728, Note_off_c, 0, 51, 59
1, 289741, Note_off_c, 0, 77, 57
1, 289746, Note_on_c, 0, 84, 89
1, 289750, Note_on_c, 0, 72, 92
1, 289756, Note_off_c, 0, 81, 55
1, 289765, Note_off_c, 0, 63, 53
1, 289787, Note_off_c, 0, 60, 39
1, 289794, Note_off_c, 0, 84, 66
1, 289797, Note_off_c, 0, 72, 66
1, 289816, Control_c, 0, 64, 83
1, 289830, Note_off_c, 0, 57, 0
1, 289831, Control_c, 0, 64, 64
1, 289848, Note_on_c, 0, 81, 100
1, 289851, Note_on_c, 0, 52, 81
1, 289851, Note_on_c, 0, 64, 99
1, 289852, Note_on_c, 0, 57, 58
1, 289854, Note_on_c, 0, 60, 86
1, 289855, Note_on_c, 0, 76, 99
1, 289869, Control_c, 0, 64, 73
1, 289883, Control_c, 0, 64, 92
1, 289884, Note_on_c, 0, 53, 37
1, 289885, Note_off_c, 0, 53, 127
1, 289898, Control_c, 0, 64, 127
1, 289930, Note_off_c, 0, 76, 63
1, 289957, Note_off_c, 0, 52, 57
1, 289958, Note_on_c, 0, 84, 92
1, 289960, Note_on_c, 0, 72, 96
1, 289965, Note_off_c, 0, 64, 58
1, 289979, Note_off_c, 0, 81, 55
1, 289982, Note_off_c, 0, 60, 46
1, 290008, Note_off_c, 0, 57, 51
1, 290009, Note_off_c, 0, 84, 67
1, 290013, Note_off_c, 0, 72, 68
1, 290033, Control_c, 0, 64, 82
1, 290047, Control_c, 0, 64, 45
1, 290062, Note_on_c, 0, 81, 100
1, 290062, Control_c, 0, 64, 53
1, 290062, Note_on_c, 0, 53, 89
1, 290065, Note_on_c, 0, 75, 101
1, 290067, Note_on_c, 0, 65, 109
1, 290074, Note_on_c, 0, 57, 67
1, 290074, Note_on_c, 0, 60, 90
1, 290077, Control_c, 0, 64, 68
1, 290092, Control_c, 0, 64, 87
1, 290107, Control_c, 0, 64, 127
1, 290126, Note_off_c, 0, 53, 66
1, 290146, Note_off_c, 0, 65, 57
1, 290147, Note_off_c, 0, 75, 65
1, 290154, Note_off_c, 0, 60, 65
1, 290168, Note_off_c, 0, 81, 68
1, 290169, Note_on_c, 0, 84, 94
1, 290179, Note_on_c, 0, 72, 95
1, 290225, Note_off_c, 0, 57, 0
1, 290226, Note_off_c, 0, 72, 67
1, 290235, Note_off_c, 0, 84, 59
1, 290254, Control_c, 0, 64, 95
1, 290262, Poly_aftertouch_c, 0, 57, 127
1, 290269, Control_c, 0, 64, 60
1, 290284, Control_c, 0, 64, 0
1, 290302, Poly_aftertouch_c, 0, 57, 0
1, 290305, Note_on_c, 0, 83, 94
1, 290307, Note_on_c, 0, 81, 96
1, 290310, Note_on_c, 0, 54, 95
1, 290310, Note_on_c, 0, 66, 106
1, 290313, Control_c, 0, 64, 64
1, 290314, Note_on_c, 0, 59, 85
1, 290315, Note_on_c, 0, 57, 59
1, 290328, Control_c, 0, 64, 99
1, 290343, Control_c, 0, 64, 127
1, 290394, Poly_aftertouch_c, 0, 82, 0
1, 290404, Poly_aftertouch_c, 0, 55, 127
1, 290429, Poly_aftertouch_c, 0, 55, 0
1, 290444, Note_on_c, 0, 87, 92
1, 290447, Note_on_c, 0, 75, 104
1, 290458, Note_off_c, 0, 59, 55
1, 290471, Note_off_c, 0, 81, 53
1, 290482, Note_on_c, 0, 86, 46
1, 290486, Note_off_c, 0, 54, 55
1, 290504, Note_off_c, 0, 86, 59
1, 290527, Note_off_c, 0, 66, 53
1, 290533, Note_off_c, 0, 87, 63
1, 290536, Note_off_c, 0, 75, 60
1, 290545, Note_off_c, 0, 83, 56
1, 290581, Control_c, 0, 64, 80
1, 290603, Control_c, 0, 64, 38
1, 290608, Note_on_c, 0, 84, 98
1, 290608, Note_off_c, 0, 57, 0
1, 290610, Note_on_c, 0, 81, 97
1, 290617, Note_on_c, 0, 65, 107
1, 290618, Control_c, 0, 64, 49
1, 290620, Note_on_c, 0, 53, 97
1, 290623, Note_on_c, 0, 57, 65
1, 290624, Note_on_c, 0, 60, 90
1, 290633, Control_c, 0, 64, 71
1, 290647, Control_c, 0, 64, 103
1, 290648, Note_off_c, 0, 65, 70
1, 290650, Note_on_c, 0, 83, 39
1, 290660, Note_off_c, 0, 60, 68
1, 290662, Control_c, 0, 64, 127
1, 290673, Note_off_c, 0, 57, 63
1, 290679, Note_off_c, 0, 83, 58
1, 290681, Note_off_c, 0, 53, 69
1, 290739, Note_off_c, 0, 84, 60
1, 290771, Note_on_c, 0, 87, 98
1, 290775, Note_on_c, 0, 75, 103
1, 290793, Note_on_c, 0, 84, 56
1, 290807, Note_off_c, 0, 81, 58
1, 290808, Note_off_c, 0, 75, 71
1, 290814, Note_off_c, 0, 84, 64
1, 290846, Note_off_c, 0, 87, 65
1, 290974, Control_c, 0, 64, 79
1, 290989, Control_c, 0, 64, 0
1, 291014, Note_on_c, 0, 96, 100
1, 291016, Note_on_c, 0, 93, 99
1, 291016, Note_on_c, 0, 89, 100
1, 291022, Note_on_c, 0, 28, 91
1, 291022, Note_on_c, 0, 40, 103
1, 291049, Control_c, 0, 64, 65
1, 291064, Control_c, 0, 64, 101
1, 291078, Control_c, 0, 64, 127
1, 291100, Note_off_c, 0, 28, 62
1, 291112, Poly_aftertouch_c, 0, 30, 127
1, 291129, Note_off_c, 0, 40, 64
1, 291156, Poly_aftertouch_c, 0, 30, 0
1, 291177, Note_on_c, 0, 88, 86
1, 291186, Note_off_c, 0, 89, 63
1, 291188, Note_off_c, 0, 96, 57
1, 291188, Note_off_c, 0, 93, 63
1, 291253, Note_off_c, 0, 88, 66
1, 291296, Note_on_c, 0, 89, 85
1, 291299, Note_on_c, 0, 86, 93
1, 291303, Note_on_c, 0, 93, 73
1, 291314, Note_on_c, 0, 45, 97
1, 291316, Note_on_c, 0, 33, 92
1, 291329, Note_on_c, 0, 91, 54
1, 291364, Note_off_c, 0, 91, 39
1, 291379, Note_off_c, 0, 45, 65
1, 291382, Note_off_c, 0, 33, 61
1, 291398, Note_off_c, 0, 93, 57
1, 291404, Poly_aftertouch_c, 0, 34, 127
1, 291406, Note_on_c, 0, 84, 89
1, 291407, Note_off_c, 0, 86, 64
1, 291413, Note_off_c, 0, 89, 62
1, 291452, Note_off_c, 0, 84, 67
1, 291455, Poly_aftertouch_c, 0, 34, 0
1, 291494, Note_on_c, 0, 86, 98
1, 291496, Note_on_c, 0, 83, 96
1, 291498, Note_on_c, 0, 89, 90
1, 291502, Note_on_c, 0, 35, 90
1, 291503, Note_on_c, 0, 47, 94
1, 291554, Note_off_c, 0, 47, 67
1, 291558, Note_off_c, 0, 35, 64
1, 291582, Note_on_c, 0, 81, 90
1, 291586, Note_off_c, 0, 83, 66
1, 291586, Note_off_c, 0, 89, 61
1, 291593, Note_off_c, 0, 86, 67
1, 291619, Control_c, 0, 64, 94
1, 291622, Note_off_c, 0, 81, 68
1, 291634, Control_c, 0, 64, 74
1, 291649, Control_c, 0, 64, 72
1, 291662, Note_on_c, 0, 38, 92
1, 291662, Note_on_c, 0, 50, 101
1, 291663, Note_on_c, 0, 86, 97
1, 291664, Control_c, 0, 64, 87
1, 291666, Note_on_c, 0, 79, 100
1, 291666, Note_on_c, 0, 83, 99
1, 291679, Control_c, 0, 64, 127
1, 291702, Note_off_c, 0, 38, 66
1, 291702, Note_off_c, 0, 50, 68
1, 291748, Poly_aftertouch_c, 0, 39, 127
1, 291753, Note_off_c, 0, 83, 65
1, 291754, Note_on_c, 0, 77, 90
1, 291761, Note_off_c, 0, 79, 67
1, 291764, Note_off_c, 0, 86, 63
1, 291772, Poly_aftertouch_c, 0, 48, 0
1, 291792, Poly_aftertouch_c, 0, 39, 0
1, 291797, Note_off_c, 0, 77, 66
1, 291797, Control_c, 0, 64, 69
1, 291812, Control_c, 0, 64, 0
1, 291836, Note_on_c, 0, 83, 94
1, 291838, Note_on_c, 0, 41, 104
1, 291840, Note_on_c, 0, 53, 115
1, 291842, Note_on_c, 0, 76, 102
1, 291845, Note_on_c, 0, 80, 89
1, 291859, Note_on_c, 0, 42, 79
1, 291872, Control_c, 0, 64, 76
1, 291884, Note_off_c, 0, 42, 66
1, 291884, Note_on_c, 0, 81, 41
1, 291884, Note_off_c, 0, 83, 66
1, 291887, Control_c, 0, 64, 127
1, 291913, Note_off_c, 0, 81, 59
1, 291920, Note_off_c, 0, 80, 63
1, 291926, Note_off_c, 0, 76, 61
1, 291940, Note_on_c, 0, 74, 83
1, 291942, Note_off_c, 0, 53, 60
1, 291948, Note_on_c, 0, 42, 50
1, 291962, Note_off_c, 0, 41, 63
1, 291968, Note_off_c, 0, 74, 64
1, 291974, Note_off_c, 0, 42, 60
1, 292022, Note_on_c, 0, 80, 83
1, 292031, Note_on_c, 0, 75, 36
1, 292034, Note_on_c, 0, 52, 103
1, 292034, Note_on_c, 0, 72, 82
1, 292035, Note_on_c, 0, 76, 80
1, 292038, Note_on_c, 0, 40, 98
1, 292071, Note_off_c, 0, 52, 66
1, 292098, Note_off_c, 0, 75, 40
1, 292099, Note_off_c, 0, 40, 67
1, 292119, Poly_aftertouch_c, 0, 42, 127
1, 292122, Note_on_c, 0, 71, 93
1, 292134, Note_off_c, 0, 72, 66
1, 292137, Poly_aftertouch_c, 0, 41, 0
1, 292143, Note_off_c, 0, 80, 62
1, 292149, Note_off_c, 0, 76, 63
1, 292153, Note_off_c, 0, 71, 68
1, 292153, Poly_aftertouch_c, 0, 42, 0
1, 292166, Poly_aftertouch_c, 0, 41, 0
1, 292231, Note_on_c, 0, 30, 9
1, 292249, Control_c, 0, 64, 72
1, 292264, Control_c, 0, 64, 0
1, 292280, Note_on_c, 0, 96, 103
1, 292280, Note_on_c, 0, 93, 101
1, 292285, Note_on_c, 0, 28, 90
1, 292286, Note_on_c, 0, 89, 98
1, 292287, Note_on_c, 0, 40, 97
1, 292289, Note_on_c, 0, 91, 92
1, 292308, Control_c, 0, 64, 50
1, 292324, Control_c, 0, 64, 97
1, 292339, Control_c, 0, 64, 127
1, 292347, Note_off_c, 0, 28, 60
1, 292353, Note_off_c, 0, 40, 64
1, 292355, Note_off_c, 0, 30, 23
1, 292384, Note_off_c, 0, 91, 60
1, 292402, Note_off_c, 0, 96, 54
1, 292403, Note_on_c, 0, 88, 87
1, 292408, Note_off_c, 0, 89, 65
1, 292414, Note_off_c, 0, 93, 62
1, 292453, Note_off_c, 0, 88, 65
1, 292491, Note_on_c, 0, 86, 95
1, 292494, Note_on_c, 0, 89, 95
1, 292494, Note_on_c, 0, 93, 90
1, 292500, Note_on_c, 0, 33, 92
1, 292502, Note_on_c, 0, 45, 100
1, 292542, Note_on_c, 0, 34, 33
1, 292554, Note_off_c, 0, 33, 62
1, 292559, Note_off_c, 0, 45, 65
1, 292574, Note_off_c, 0, 86, 67
1, 292575, Note_on_c, 0, 84, 89
1, 292578, Note_off_c, 0, 93, 60
1, 292584, Note_off_c, 0, 34, 49
1, 292587, Note_off_c, 0, 89, 64
1, 292617, Note_off_c, 0, 84, 69
1, 292653, Note_on_c, 0, 83, 97
1, 292654, Note_on_c, 0, 89, 92
1, 292655, Note_on_c, 0, 47, 98
1, 292655, Note_on_c, 0, 86, 95
1, 292656, Note_on_c, 0, 35, 91
1, 292706, Note_off_c, 0, 35, 65
1, 292708, Note_off_c, 0, 47, 68
1, 292730, Note_on_c, 0, 81, 91
1, 292739, Note_off_c, 0, 89, 62
1, 292743, Note_off_c, 0, 83, 64
1, 292744, Note_off_c, 0, 86, 67
1, 292754, Control_c, 0, 64, 86
1, 292768, Control_c, 0, 64, 70
1, 292775, Note_off_c, 0, 81, 67
1, 292798, Control_c, 0, 64, 83
1, 292811, Note_on_c, 0, 50, 102
1, 292813, Control_c, 0, 64, 127
1, 292814, Note_on_c, 0, 38, 97
1, 292814, Note_on_c, 0, 86, 99
1, 292820, Note_on_c, 0, 83, 88
1, 292823, Note_on_c, 0, 79, 88
1, 292823, Note_on_c, 0, 81, 89
1, 292829, Note_on_c, 0, 84, 80
1, 292852, Note_off_c, 0, 84, 61
1, 292860, Note_off_c, 0, 38, 64
1, 292861, Note_off_c, 0, 50, 69
1, 292905, Note_off_c, 0, 81, 63
1, 292905, Poly_aftertouch_c, 0, 39, 127
1, 292913, Note_off_c, 0, 83, 63
1, 292916, Note_on_c, 0, 77, 89
1, 292917, Note_off_c, 0, 86, 60
1, 292921, Note_off_c, 0, 79, 64
1, 292938, Control_c, 0, 64, 91
1, 292949, Poly_aftertouch_c, 0, 39, 0
1, 292953, Control_c, 0, 64, 33
1, 292955, Note_off_c, 0, 77, 65
1, 292967, Control_c, 0, 64, 0
1, 292995, Note_on_c, 0, 41, 99
1, 292997, Note_on_c, 0, 53, 103
1, 292997, Control_c, 0, 64, 60
1, 292998, Note_on_c, 0, 83, 93
1, 293004, Note_on_c, 0, 76, 101
1, 293006, Note_on_c, 0, 80, 86
1, 293012, Control_c, 0, 64, 86
1, 293020, Note_on_c, 0, 42, 70
1, 293027, Control_c, 0, 64, 127
1, 293044, Note_off_c, 0, 42, 61
1, 293049, Note_off_c, 0, 83, 61
1, 293091, Note_off_c, 0, 80, 63
1, 293091, Note_off_c, 0, 76, 64
1, 293103, Note_on_c, 0, 74, 87
1, 293133, Note_off_c, 0, 53, 59
1, 293144, Note_off_c, 0, 41, 59
1, 293144, Note_off_c, 0, 74, 62
1, 293188, Poly_aftertouch_c, 0, 42, 127
1, 293190, Control_c, 0, 64, 93
1, 293202, Note_on_c, 0, 80, 78
1, 293205, Control_c, 0, 64, 62
1, 293216, Poly_aftertouch_c, 0, 42, 0
1, 293216, Note_on_c, 0, 40, 91
1, 293219, Note_on_c, 0, 76, 80
1, 293220, Control_c, 0, 64, 0
1, 293221, Note_on_c, 0, 52, 100
1, 293221, Note_on_c, 0, 75, 33
1, 293223, Note_on_c, 0, 72, 77
1, 293232, Poly_aftertouch_c, 0, 44, 0
1, 293250, Control_c, 0, 64, 68
1, 293264, Control_c, 0, 64, 107
1, 293279, Control_c, 0, 64, 127
1, 293288, Note_off_c, 0, 75, 38
1, 293288, Note_off_c, 0, 52, 62
1, 293299, Note_off_c, 0, 40, 64
1, 293305, Note_off_c, 0, 80, 63
1, 293307, Note_off_c, 0, 72, 62
1, 293317, Note_off_c, 0, 76, 60
1, 293320, Note_on_c, 0, 71, 91
1, 293389, Note_off_c, 0, 71, 62
1, 293443, Control_c, 0, 64, 82
1, 293458, Control_c, 0, 64, 0
1, 293486, Note_on_c, 0, 71, 94
1, 293490, Note_on_c, 0, 51, 99
1, 293491, Note_on_c, 0, 39, 87
1, 293502, Control_c, 0, 64, 60
1, 293516, Control_c, 0, 64, 88
1, 293521, Note_off_c, 0, 39, 62
1, 293523, Note_off_c, 0, 51, 66
1, 293531, Control_c, 0, 64, 127
1, 293598, Note_off_c, 0, 71, 62
1, 293642, Note_on_c, 0, 83, 74
1, 293645, Note_on_c, 0, 78, 75
1, 293647, Note_on_c, 0, 81, 69
1, 293666, Note_off_c, 0, 78, 69
1, 293682, Note_off_c, 0, 81, 52
1, 293687, Note_off_c, 0, 83, 64
1, 293753, Note_on_c, 0, 66, 83
1, 293753, Note_on_c, 0, 83, 94
1, 293755, Note_on_c, 0, 58, 78
1, 293760, Note_on_c, 0, 57, 81
1, 293774, Note_off_c, 0, 66, 72
1, 293777, Note_off_c, 0, 58, 68
1, 293807, Note_off_c, 0, 57, 64
1, 293809, Note_off_c, 0, 83, 66
1, 293839, Note_on_c, 0, 90, 91
1, 293839, Note_on_c, 0, 95, 79
1, 293844, Note_on_c, 0, 93, 67
1, 293853, Note_on_c, 0, 91, 76
1, 293897, Note_off_c, 0, 95, 63
1, 293904, Note_off_c, 0, 90, 67
1, 293909, Note_off_c, 0, 91, 60
1, 293913, Note_off_c, 0, 93, 64
1, 293917, Note_on_c, 0, 83, 92
1, 293950, Note_off_c, 0, 83, 66
1, 293985, Control_c, 0, 64, 78
1, 293991, Note_on_c, 0, 81, 57
1, 293998, Note_on_c, 0, 78, 93
1, 293999, Note_on_c, 0, 83, 66
1, 294000, Control_c, 0, 64, 0
1, 294058, Note_off_c, 0, 83, 46
1, 294074, Note_off_c, 0, 78, 60
1, 294076, Note_on_c, 0, 39, 86
1, 294076, Note_on_c, 0, 51, 106
1, 294084, Note_off_c, 0, 81, 62
1, 294085, Note_on_c, 0, 72, 98
1, 294088, Control_c, 0, 64, 85
1, 294101, Note_off_c, 0, 39, 68
1, 294103, Control_c, 0, 64, 127
1, 294109, Note_off_c, 0, 51, 69
1, 294135, Note_off_c, 0, 72, 66
1, 294170, Note_on_c, 0, 78, 82
1, 294170, Note_on_c, 0, 81, 81
1, 294170, Note_on_c, 0, 84, 78
1, 294191, Note_off_c, 0, 78, 67
1, 294200, Note_off_c, 0, 81, 60
1, 294218, Note_off_c, 0, 84, 65
1, 294260, Note_on_c, 0, 66, 97
1, 294262, Note_on_c, 0, 84, 96
1, 294270, Note_on_c, 0, 57, 82
1, 294273, Note_on_c, 0, 60, 80
1, 294292, Note_off_c, 0, 66, 69
1, 294296, Note_off_c, 0, 60, 69
1, 294310, Note_off_c, 0, 84, 67
1, 294318, Note_off_c, 0, 57, 66
1, 294342, Note_on_c, 0, 96, 94
1, 294346, Note_on_c, 0, 90, 99
1, 294348, Note_on_c, 0, 93, 90
1, 294373, Note_on_c, 0, 92, 48
1, 294398, Note_off_c, 0, 92, 58
1, 294404, Note_off_c, 0, 96, 63
1, 294417, Note_off_c, 0, 93, 64
1, 294421, Note_on_c, 0, 84, 89
1, 294426, Note_off_c, 0, 90, 65
1, 294453, Note_off_c, 0, 84, 67
1, 294495, Control_c, 0, 64, 84
1, 294509, Note_on_c, 0, 78, 87
1, 294510, Control_c, 0, 64, 0
1, 294511, Note_on_c, 0, 81, 78
1, 294519, Note_on_c, 0, 84, 63
1, 294552, Note_off_c, 0, 84, 47
1, 294587, Note_on_c, 0, 40, 90
1, 294590, Note_on_c, 0, 52, 103
1, 294590, Note_on_c, 0, 72, 97
1, 294591, Note_off_c, 0, 81, 59
1, 294599, Control_c, 0, 64, 58
1, 294610, Note_off_c, 0, 78, 57
1, 294614, Control_c, 0, 64, 126
1, 294621, Note_off_c, 0, 40, 67
1, 294629, Control_c, 0, 64, 127
1, 294629, Note_off_c, 0, 52, 69
1, 294636, Note_off_c, 0, 72, 68
1, 294672, Note_on_c, 0, 76, 87
1, 294674, Note_on_c, 0, 84, 82
1, 294680, Note_on_c, 0, 81, 84
1, 294703, Note_off_c, 0, 76, 61
1, 294727, Note_off_c, 0, 84, 65
1, 294727, Note_off_c, 0, 81, 61
1, 294778, Note_on_c, 0, 84, 91
1, 294783, Note_on_c, 0, 69, 98
1, 294784, Note_on_c, 0, 64, 84
1, 294789, Note_on_c, 0, 60, 82
1, 294810, Note_on_c, 0, 86, 43
1, 294811, Note_off_c, 0, 69, 71
1, 294818, Note_off_c, 0, 84, 69
1, 294822, Note_off_c, 0, 64, 68
1, 294833, Note_off_c, 0, 60, 68
1, 294834, Note_off_c, 0, 86, 59
1, 294851, Note_on_c, 0, 96, 95
1, 294855, Note_on_c, 0, 88, 100
1, 294855, Note_on_c, 0, 93, 94
1, 294916, Note_off_c, 0, 88, 59
1, 294924, Note_off_c, 0, 96, 65
1, 294941, Note_off_c, 0, 93, 63
1, 294942, Note_on_c, 0, 84, 99
1, 294970, Note_off_c, 0, 84, 71
1, 294985, Control_c, 0, 64, 99
1, 295000, Control_c, 0, 64, 62
1, 295015, Control_c, 0, 64, 0
1, 295039, Note_on_c, 0, 81, 78
1, 295043, Note_on_c, 0, 83, 64
1, 295043, Note_on_c, 0, 84, 59
1, 295058, Note_on_c, 0, 77, 67
1, 295061, Note_on_c, 0, 76, 65
1, 295062, Note_off_c, 0, 84, 66
1, 295074, Note_off_c, 0, 83, 61
1, 295088, Note_off_c, 0, 81, 63
1, 295104, Note_off_c, 0, 77, 62
1, 295111, Note_off_c, 0, 76, 47
1, 295123, Note_on_c, 0, 40, 89
1, 295124, Note_on_c, 0, 52, 104
1, 295126, Note_on_c, 0, 71, 90
1, 295141, Control_c, 0, 64, 69
1, 295156, Poly_aftertouch_c, 0, 46, 0
1, 295156, Control_c, 0, 64, 127
1, 295157, Note_off_c, 0, 40, 66
1, 295165, Note_off_c, 0, 52, 68
1, 295169, Note_on_c, 0, 69, 13
1, 295170, Note_off_c, 0, 69, 127
1, 295172, Note_on_c, 0, 46, 1
1, 295190, Note_off_c, 0, 71, 62
1, 295212, Note_on_c, 0, 76, 78
1, 295216, Note_on_c, 0, 80, 74
1, 295216, Note_on_c, 0, 83, 75
1, 295216, Note_off_c, 0, 46, 50
1, 295223, Poly_aftertouch_c, 0, 69, 0
1, 295243, Note_off_c, 0, 76, 62
1, 295266, Note_off_c, 0, 83, 65
1, 295271, Note_off_c, 0, 80, 65
1, 295321, Note_on_c, 0, 83, 96
1, 295330, Note_on_c, 0, 58, 89
1, 295334, Note_on_c, 0, 68, 97
1, 295335, Note_on_c, 0, 64, 89
1, 295367, Note_off_c, 0, 68, 66
1, 295371, Note_off_c, 0, 83, 70
1, 295376, Note_off_c, 0, 64, 69
1, 295384, Note_off_c, 0, 58, 69
1, 295404, Note_on_c, 0, 95, 99
1, 295406, Note_on_c, 0, 92, 91
1, 295411, Note_on_c, 0, 88, 94
1, 295460, Note_off_c, 0, 88, 63
1, 295472, Note_off_c, 0, 95, 64
1, 295489, Note_off_c, 0, 92, 65
1, 295502, Note_on_c, 0, 83, 90
1, 295526, Note_off_c, 0, 83, 65
1, 295579, Note_on_c, 0, 80, 91
1, 295582, Note_on_c, 0, 83, 70
1, 295583, Note_on_c, 0, 76, 90
1, 295611, Note_off_c, 0, 76, 62
1, 295613, Note_off_c, 0, 83, 62
1, 295628, Note_off_c, 0, 80, 62
1, 295734, Control_c, 0, 64, 85
1, 295749, Control_c, 0, 64, 0
1, 295786, Note_on_c, 0, 33, 91
1, 295789, Note_on_c, 0, 45, 104
1, 295792, Note_on_c, 0, 93, 98
1, 295794, Note_on_c, 0, 100, 95
1, 295795, Note_on_c, 0, 96, 87
1, 295823, Control_c, 0, 64, 64
1, 295845, Control_c, 0, 64, 107
1, 295860, Control_c, 0, 64, 127
1, 295887, Note_off_c, 0, 33, 61
1, 295892, Note_off_c, 0, 45, 60
1, 295914, Poly_aftertouch_c, 0, 39, 0
1, 295930, Note_off_c, 0, 100, 63
1, 295940, Note_off_c, 0, 96, 64
1, 295944, Note_on_c, 0, 91, 86
1, 295947, Note_off_c, 0, 93, 65
1, 295994, Note_off_c, 0, 91, 66
1, 296034, Note_on_c, 0, 96, 80
1, 296036, Note_on_c, 0, 89, 89
1, 296043, Note_on_c, 0, 93, 82
1, 296050, Note_on_c, 0, 48, 95
1, 296051, Note_on_c, 0, 36, 88
1, 296105, Note_off_c, 0, 36, 63
1, 296105, Note_off_c, 0, 48, 63
1, 296115, Note_off_c, 0, 96, 63
1, 296123, Note_on_c, 0, 88, 92
1, 296131, Note_off_c, 0, 89, 63
1, 296136, Note_off_c, 0, 93, 64
1, 296164, Note_off_c, 0, 88, 66
1, 296203, Note_on_c, 0, 86, 94
1, 296206, Note_on_c, 0, 89, 83
1, 296208, Note_on_c, 0, 50, 97
1, 296212, Note_on_c, 0, 38, 93
1, 296217, Note_on_c, 0, 93, 70
1, 296224, Note_on_c, 0, 88, 65
1, 296249, Note_on_c, 0, 91, 25
1, 296257, Note_off_c, 0, 38, 63
1, 296260, Note_off_c, 0, 50, 68
1, 296278, Note_off_c, 0, 93, 62
1, 296284, Note_on_c, 0, 84, 90
1, 296284, Note_off_c, 0, 91, 31
1, 296287, Note_off_c, 0, 88, 31
1, 296293, Note_off_c, 0, 89, 62
1, 296300, Note_off_c, 0, 86, 62
1, 296308, Poly_aftertouch_c, 0, 39, 127
1, 296327, Note_off_c, 0, 84, 68
1, 296334, Control_c, 0, 64, 93
1, 296347, Poly_aftertouch_c, 0, 39, 0
1, 296349, Control_c, 0, 64, 68
1, 296360, Note_on_c, 0, 86, 88
1, 296360, Note_on_c, 0, 89, 91
1, 296363, Note_on_c, 0, 53, 101
1, 296363, Note_on_c, 0, 83, 97
1, 296364, Note_on_c, 0, 41, 103
1, 296364, Control_c, 0, 64, 65
1, 296379, Control_c, 0, 64, 76
1, 296394, Note_on_c, 0, 85, 47
1, 296394, Control_c, 0, 64, 99
1, 296400, Note_off_c, 0, 41, 67
1, 296400, Note_off_c, 0, 53, 70
1, 296409, Control_c, 0, 64, 127
1, 296413, Note_on_c, 0, 42, 16
1, 296421, Note_off_c, 0, 85, 55
1, 296457, Note_off_c, 0, 89, 63
1, 296459, Note_off_c, 0, 42, 42
1, 296470, Note_off_c, 0, 86, 65
1, 296496, Note_off_c, 0, 83, 68
1, 296513, Control_c, 0, 64, 122
1, 296528, Control_c, 0, 64, 68
1, 296539, Note_on_c, 0, 86, 95
1, 296542, Control_c, 0, 64, 0
1, 296544, Note_on_c, 0, 83, 90
1, 296546, Note_on_c, 0, 79, 91
1, 296553, Note_on_c, 0, 53, 101
1, 296553, Note_on_c, 0, 65, 112
1, 296558, Note_on_c, 0, 55, 81
1, 296582, Note_on_c, 0, 54, 58
1, 296594, Control_c, 0, 64, 72
1, 296609, Control_c, 0, 64, 127
1, 296614, Note_off_c, 0, 54, 55
1, 296632, Note_off_c, 0, 86, 62
1, 296647, Note_off_c, 0, 83, 63
1, 296663, Note_on_c, 0, 77, 88
1, 296665, Note_off_c, 0, 79, 65
1, 296683, Note_off_c, 0, 65, 52
1, 296683, Note_off_c, 0, 55, 55
1, 296692, Note_off_c, 0, 53, 60
1, 296709, Note_off_c, 0, 77, 65
1, 296733, Note_on_c, 0, 56, 32
1, 296735, Poly_aftertouch_c, 0, 54, 127
1, 296743, Note_on_c, 0, 54, 5
1, 296758, Note_on_c, 0, 80, 80
1, 296759, Note_on_c, 0, 75, 76
1, 296760, Note_on_c, 0, 83, 67
1, 296763, Note_on_c, 0, 64, 95
1, 296768, Note_on_c, 0, 52, 96
1, 296769, Note_on_c, 0, 76, 88
1, 296772, Note_off_c, 0, 54, 0
1, 296772, Note_on_c, 0, 54, 29
1, 296777, Note_off_c, 0, 56, 53
1, 296786, Note_off_c, 0, 64, 67
1, 296796, Note_off_c, 0, 83, 57
1, 296806, Note_off_c, 0, 54, 60
1, 296815, Note_off_c, 0, 52, 66
1, 296821, Note_off_c, 0, 75, 64
1, 296839, Note_off_c, 0, 80, 47
1, 296850, Note_on_c, 0, 74, 97
1, 296862, Note_off_c, 0, 76, 55
1, 296886, Note_off_c, 0, 74, 69
1, 296936, Note_on_c, 0, 37, 42
1, 296979, Control_c, 0, 64, 82
1, 296994, Control_c, 0, 64, 0
1, 297010, Note_on_c, 0, 100, 99
1, 297012, Note_on_c, 0, 96, 92
1, 297014, Note_on_c, 0, 93, 100
1, 297017, Note_on_c, 0, 33, 90
1, 297017, Note_on_c, 0, 45, 99
1, 297053, Control_c, 0, 64, 72
1, 297062, Note_off_c, 0, 37, 41
1, 297067, Control_c, 0, 64, 127
1, 297084, Note_off_c, 0, 33, 60
1, 297091, Note_off_c, 0, 45, 63
1, 297115, Note_on_c, 0, 91, 93
1, 297120, Note_off_c, 0, 100, 57
1, 297125, Note_off_c, 0, 93, 64
1, 297127, Note_off_c, 0, 96, 64
1, 297147, Poly_aftertouch_c, 0, 36, 0
1, 297162, Note_off_c, 0, 91, 68
1, 297209, Note_on_c, 0, 89, 97
1, 297209, Note_on_c, 0, 96, 87
1, 297214, Note_on_c, 0, 93, 90
1, 297219, Note_on_c, 0, 48, 96
1, 297223, Note_on_c, 0, 36, 95
1, 297272, Note_off_c, 0, 48, 64
1, 297274, Note_off_c, 0, 36, 63
1, 297277, Note_on_c, 0, 37, 10
1, 297285, Note_off_c, 0, 96, 63
1, 297286, Note_on_c, 0, 88, 92
1, 297295, Note_off_c, 0, 89, 64
1, 297305, Note_off_c, 0, 93, 65
1, 297327, Note_off_c, 0, 88, 67
1, 297341, Note_off_c, 0, 37, 48
1, 297374, Note_on_c, 0, 50, 101
1, 297374, Note_on_c, 0, 86, 101
1, 297376, Note_on_c, 0, 89, 97
1, 297377, Note_on_c, 0, 93, 89
1, 297377, Note_on_c, 0, 38, 96
1, 297422, Note_off_c, 0, 38, 66
1, 297425, Note_off_c, 0, 50, 68
1, 297429, Note_on_c, 0, 40, 8
1, 297430, Note_off_c, 0, 40, 127
1, 297452, Note_on_c, 0, 84, 92
1, 297454, Note_off_c, 0, 93, 63
1, 297464, Note_off_c, 0, 89, 64
1, 297464, Note_off_c, 0, 86, 67
1, 297474, Poly_aftertouch_c, 0, 40, 0
1, 297490, Control_c, 0, 64, 100
1, 297491, Note_off_c, 0, 84, 69
1, 297505, Control_c, 0, 64, 72
1, 297520, Control_c, 0, 64, 63
1, 297530, Note_on_c, 0, 53, 98
1, 297531, Note_on_c, 0, 89, 98
1, 297532, Note_on_c, 0, 41, 100
1, 297533, Note_on_c, 0, 83, 108
1, 297534, Note_on_c, 0, 86, 95
1, 297535, Control_c, 0, 64, 73
1, 297550, Control_c, 0, 64, 104
1, 297563, Note_off_c, 0, 41, 66
1, 297564, Control_c, 0, 64, 127
1, 297568, Note_off_c, 0, 53, 70
1, 297573, Note_on_c, 0, 85, 36
1, 297604, Note_off_c, 0, 85, 56
1, 297627, Note_off_c, 0, 89, 62
1, 297631, Note_on_c, 0, 81, 90
1, 297642, Note_off_c, 0, 86, 63
1, 297643, Poly_aftertouch_c, 0, 44, 0
1, 297647, Note_off_c, 0, 83, 66
1, 297674, Note_off_c, 0, 81, 67
1, 297682, Control_c, 0, 64, 72
1, 297697, Control_c, 0, 64, 0
1, 297718, Note_on_c, 0, 86, 96
1, 297723, Note_on_c, 0, 83, 94
1, 297724, Note_on_c, 0, 53, 98
1, 297725, Note_on_c, 0, 65, 113
1, 297725, Note_on_c, 0, 79, 94
1, 297727, Control_c, 0, 64, 52
1, 297742, Control_c, 0, 64, 80
1, 297751, Note_on_c, 0, 54, 60
1, 297756, Control_c, 0, 64, 127
1, 297771, Note_on_c, 0, 56, 39
1, 297771, Note_off_c, 0, 54, 65
1, 297806, Note_off_c, 0, 56, 52
1, 297823, Note_off_c, 0, 86, 63
1, 297834, Note_off_c, 0, 83, 61
1, 297846, Note_on_c, 0, 77, 82
1, 297848, Note_off_c, 0, 79, 64
1, 297880, Note_on_c, 0, 56, 65
1, 297881, Note_off_c, 0, 65, 58
1, 297894, Note_off_c, 0, 53, 63
1, 297908, Note_off_c, 0, 77, 66
1, 297920, Control_c, 0, 64, 73
1, 297935, Control_c, 0, 64, 42
1, 297950, Control_c, 0, 64, 61
1, 297951, Note_on_c, 0, 76, 84
1, 297953, Note_on_c, 0, 64, 102
1, 297953, Note_on_c, 0, 83, 76
1, 297953, Note_on_c, 0, 52, 93
1, 297954, Note_on_c, 0, 80, 76
1, 297962, Note_on_c, 0, 77, 78
1, 297965, Poly_aftertouch_c, 0, 54, 0
1, 297965, Control_c, 0, 64, 75
1, 297980, Control_c, 0, 64, 103
1, 297989, Note_off_c, 0, 56, 61
1, 297992, Note_on_c, 0, 54, 7
1, 297994, Note_off_c, 0, 64, 70
1, 297995, Control_c, 0, 64, 127
1, 298012, Note_off_c, 0, 77, 37
1, 298023, Note_off_c, 0, 52, 65
1, 298028, Note_off_c, 0, 54, 57
1, 298039, Note_off_c, 0, 76, 62
1, 298039, Note_off_c, 0, 83, 60
1, 298042, Note_off_c, 0, 80, 59
1, 298063, Note_on_c, 0, 74, 92
1, 298125, Note_off_c, 0, 74, 66
1, 298165, Control_c, 0, 64, 110
1, 298180, Control_c, 0, 64, 69
1, 298194, Control_c, 0, 64, 0
1, 298221, Note_on_c, 0, 71, 96
1, 298227, Note_on_c, 0, 39, 87
1, 298228, Note_on_c, 0, 51, 96
1, 298254, Control_c, 0, 64, 78
1, 298255, Note_off_c, 0, 51, 65
1, 298256, Note_off_c, 0, 39, 64
1, 298269, Control_c, 0, 64, 127
1, 298377, Note_off_c, 0, 71, 56
1, 298379, Note_on_c, 0, 81, 74
1, 298379, Note_on_c, 0, 83, 75
1, 298384, Note_on_c, 0, 78, 76
1, 298414, Note_off_c, 0, 78, 63
1, 298427, Note_off_c, 0, 81, 62
1, 298430, Note_off_c, 0, 83, 63
1, 298438, Note_on_c, 0, 51, 67
1, 298452, Note_on_c, 0, 57, 76
1, 298492, Note_on_c, 0, 59, 62
1, 298496, Note_off_c, 0, 51, 63
1, 298501, Note_on_c, 0, 83, 91
1, 298512, Note_on_c, 0, 66, 94
1, 298548, Note_off_c, 0, 66, 67
1, 298552, Note_off_c, 0, 83, 64
1, 298571, Note_off_c, 0, 57, 57
1, 298572, Note_off_c, 0, 59, 63
1, 298579, Note_on_c, 0, 95, 89
1, 298584, Note_on_c, 0, 90, 91
1, 298585, Note_on_c, 0, 93, 80
1, 298644, Note_off_c, 0, 95, 65
1, 298653, Note_off_c, 0, 90, 65
1, 298657, Note_off_c, 0, 93, 64
1, 298662, Note_on_c, 0, 83, 97
1, 298694, Note_off_c, 0, 83, 63
1, 298716, Note_on_c, 0, 81, 28
1, 298744, Note_on_c, 0, 78, 90
1, 298751, Note_on_c, 0, 83, 59
1, 298758, Control_c, 0, 64, 80
1, 298773, Control_c, 0, 64, 0
1, 298788, Note_off_c, 0, 83, 46
1, 298814, Note_off_c, 0, 78, 61
1, 298818, Note_on_c, 0, 51, 105
1, 298818, Note_off_c, 0, 81, 62
1, 298820, Note_on_c, 0, 39, 92
1, 298822, Note_on_c, 0, 72, 98
1, 298839, Control_c, 0, 64, 49
1, 298851, Note_off_c, 0, 39, 70
1, 298854, Control_c, 0, 64, 91
1, 298859, Note_off_c, 0, 51, 70
1, 298869, Control_c, 0, 64, 127
1, 298882, Note_off_c, 0, 72, 67
1, 298915, Note_on_c, 0, 78, 80
1, 298917, Note_on_c, 0, 81, 81
1, 298921, Note_on_c, 0, 84, 76
1, 298941, Note_off_c, 0, 78, 62
1, 298954, Note_off_c, 0, 81, 61
1, 298966, Note_off_c, 0, 84, 63
1, 299010, Note_on_c, 0, 84, 85
1, 299014, Note_on_c, 0, 66, 105
1, 299018, Note_on_c, 0, 57, 85
1, 299019, Note_on_c, 0, 60, 75
1, 299026, Note_on_c, 0, 86, 68
1, 299027, Note_on_c, 0, 51, 89
1, 299040, Note_off_c, 0, 66, 70
1, 299046, Note_off_c, 0, 60, 67
1, 299050, Note_off_c, 0, 86, 57
1, 299054, Note_off_c, 0, 84, 68
1, 299065, Note_off_c, 0, 57, 66
1, 299080, Note_on_c, 0, 96, 97
1, 299087, Note_on_c, 0, 90, 97
1, 299088, Note_on_c, 0, 93, 88
1, 299090, Note_off_c, 0, 51, 68
1, 299138, Note_off_c, 0, 96, 63
1, 299163, Note_on_c, 0, 84, 86
1, 299165, Note_off_c, 0, 90, 64
1, 299165, Note_off_c, 0, 93, 63
1, 299193, Note_off_c, 0, 84, 65
1, 299248, Note_on_c, 0, 78, 93
1, 299266, Note_on_c, 0, 82, 51
1, 299283, Control_c, 0, 64, 101
1, 299290, Note_off_c, 0, 82, 58
1, 299298, Control_c, 0, 64, 56
1, 299309, Note_off_c, 0, 78, 64
1, 299313, Control_c, 0, 64, 0
1, 299337, Note_on_c, 0, 40, 89
1, 299338, Note_on_c, 0, 52, 108
1, 299338, Note_on_c, 0, 73, 101
1, 299372, Note_off_c, 0, 40, 67
1, 299372, Control_c, 0, 64, 69
1, 299380, Note_off_c, 0, 52, 69
1, 299387, Control_c, 0, 64, 114
1, 299393, Note_off_c, 0, 73, 65
1, 299402, Control_c, 0, 64, 127
1, 299412, Note_on_c, 0, 80, 85
1, 299427, Note_on_c, 0, 85, 82
1, 299452, Note_on_c, 0, 82, 34
1, 299459, Note_off_c, 0, 80, 63
1, 299460, Note_on_c, 0, 86, 61
1, 299461, Note_on_c, 0, 83, 48
1, 299479, Note_off_c, 0, 86, 65
1, 299482, Note_off_c, 0, 85, 61
1, 299484, Note_off_c, 0, 82, 54
1, 299485, Note_off_c, 0, 83, 60
1, 299530, Note_on_c, 0, 85, 95
1, 299536, Note_on_c, 0, 67, 97
1, 299537, Note_on_c, 0, 61, 98
1, 299539, Note_on_c, 0, 58, 94
1, 299553, Note_on_c, 0, 87, 63
1, 299566, Note_off_c, 0, 67, 67
1, 299580, Note_off_c, 0, 87, 64
1, 299584, Note_off_c, 0, 85, 67
1, 299594, Note_off_c, 0, 61, 65
1, 299603, Note_off_c, 0, 58, 68
1, 299610, Note_on_c, 0, 97, 100
1, 299618, Note_on_c, 0, 94, 89
1, 299627, Note_on_c, 0, 91, 84
1, 299636, Note_on_c, 0, 92, 63
1, 299645, Note_on_c, 0, 95, 67
1, 299652, Note_off_c, 0, 92, 66
1, 299672, Note_off_c, 0, 95, 52
1, 299683, Note_off_c, 0, 91, 66
1, 299688, Note_off_c, 0, 97, 64
1, 299700, Note_off_c, 0, 94, 62
1, 299703, Note_on_c, 0, 85, 100
1, 299728, Note_off_c, 0, 85, 65
1, 299792, Note_on_c, 0, 82, 89
1, 299800, Note_on_c, 0, 85, 77
1, 299810, Note_on_c, 0, 79, 76
1, 299840, Control_c, 0, 64, 88
1, 299855, Control_c, 0, 64, 0
1, 299855, Note_off_c, 0, 79, 61
1, 299884, Note_off_c, 0, 82, 63
1, 299890, Note_on_c, 0, 74, 101
1, 299891, Note_off_c, 0, 85, 62
1, 299896, Note_on_c, 0, 41, 92
1, 299897, Note_on_c, 0, 53, 107
1, 299926, Note_on_c, 0, 44, 51
1, 299927, Note_off_c, 0, 44, 127
1, 299929, Control_c, 0, 64, 72
1, 299935, Note_off_c, 0, 41, 65
1, 299943, Note_off_c, 0, 53, 72
1, 299944, Control_c, 0, 64, 127
1, 299994, Note_on_c, 0, 80, 86
1, 299996, Note_on_c, 0, 83, 84
1, 299998, Note_off_c, 0, 74, 39
1, 300004, Note_on_c, 0, 86, 80
1, 300042, Note_off_c, 0, 80, 63
1, 300048, Note_off_c, 0, 83, 63
1, 300063, Note_off_c, 0, 86, 64
1, 300114, Note_on_c, 0, 86, 98
1, 300117, Note_on_c, 0, 68, 99
1, 300118, Note_on_c, 0, 59, 87
1, 300128, Note_on_c, 0, 62, 82
1, 300163, Note_off_c, 0, 68, 64
1, 300183, Note_off_c, 0, 86, 66
1, 300196, Note_off_c, 0, 62, 59
1, 300197, Note_off_c, 0, 59, 59
1, 300211, Note_on_c, 0, 98, 96
1, 300212, Note_on_c, 0, 95, 92
1, 300213, Note_on_c, 0, 92, 103
1, 300225, Note_on_c, 0, 86, 63
1, 300245, Note_off_c, 0, 86, 37
1, 300257, Note_on_c, 0, 94, 29
1, 300292, Note_off_c, 0, 94, 54
1, 300303, Note_off_c, 0, 98, 65
1, 300312, Note_on_c, 0, 86, 92
1, 300317, Note_off_c, 0, 92, 66
1, 300338, Note_off_c, 0, 95, 63
1, 300361, Note_off_c, 0, 86, 68
1, 300423, Note_on_c, 0, 80, 95
1, 300427, Note_on_c, 0, 86, 82
1, 300427, Note_on_c, 0, 83, 80
1, 300445, Note_off_c, 0, 86, 74
1, 300449, Note_off_c, 0, 83, 69
1, 300455, Note_off_c, 0, 80, 63
1, 300545, Control_c, 0, 64, 118
1, 300560, Control_c, 0, 64, 66
1, 300572, Note_on_c, 0, 53, 101
1, 300574, Control_c, 0, 64, 0
1, 300678, Control_c, 0, 64, 71
1, 300693, Control_c, 0, 64, 127
1, 300750, Note_on_c, 0, 57, 90
1, 300807, Note_off_c, 0, 53, 61
1, 300838, Note_on_c, 0, 59, 84
1, 300877, Note_off_c, 0, 57, 59
1, 300925, Note_on_c, 0, 63, 93
1, 300997, Note_on_c, 0, 69, 89
1, 301037, Note_on_c, 0, 75, 82
1, 301102, Note_off_c, 0, 75, 63
1, 301115, Note_on_c, 0, 83, 67
1, 301119, Note_on_c, 0, 86, 78
1, 301126, Note_on_c, 0, 81, 50
1, 301136, Note_off_c, 0, 83, 70
1, 301148, Note_off_c, 0, 81, 59
1, 301151, Note_off_c, 0, 86, 66
1, 301159, Note_on_c, 0, 87, 36
1, 301185, Note_off_c, 0, 87, 0
1, 301194, Note_on_c, 0, 87, 75
1, 301247, Note_off_c, 0, 87, 65
1, 301258, Note_on_c, 0, 99, 109
1, 301288, Note_off_c, 0, 99, 67
1, 301295, Note_on_c, 0, 101, 36
1, 301296, Note_off_c, 0, 101, 127
1, 301670, Note_off_c, 0, 69, 51
1, 301736, Note_off_c, 0, 63, 50
1, 301765, Note_off_c, 0, 59, 50
1, 302892, Note_on_c, 0, 69, 47
1, 302913, Note_on_c, 0, 57, 31
1, 303005, Note_off_c, 0, 57, 56
1, 303023, Note_off_c, 0, 69, 45
1, 303221, Note_on_c, 0, 69, 61
1, 303241, Note_on_c, 0, 57, 35
1, 303344, Note_off_c, 0, 57, 55
1, 303390, Note_off_c, 0, 69, 56
1, 303816, Note_on_c, 0, 69, 51
1, 303831, Note_on_c, 0, 57, 35
1, 303851, Control_c, 0, 67, 8
1, 303866, Control_c, 0, 67, 8
1, 303881, Control_c, 0, 67, 9
1, 303892, Note_off_c, 0, 57, 57
1, 303896, Control_c, 0, 67, 9
1, 303911, Control_c, 0, 67, 10
1, 303916, Note_off_c, 0, 69, 53
1, 303925, Control_c, 0, 67, 11
1, 303940, Control_c, 0, 67, 12
1, 303955, Control_c, 0, 67, 14
1, 303970, Control_c, 0, 67, 15
1, 303985, Control_c, 0, 67, 17
1, 303999, Control_c, 0, 67, 19
1, 304014, Control_c, 0, 67, 20
1, 304029, Control_c, 0, 67, 21
1, 304043, Control_c, 0, 67, 22
1, 304058, Control_c, 0, 67, 24
1, 304081, Control_c, 0, 67, 25
1, 304096, Control_c, 0, 67, 27
1, 304111, Control_c, 0, 67, 28
1, 304125, Control_c, 0, 67, 29
1, 304140, Control_c, 0, 67, 30
1, 304152, Note_on_c, 0, 69, 50
1, 304155, Control_c, 0, 67, 32
1, 304170, Control_c, 0, 67, 33
1, 304181, Note_on_c, 0, 57, 32
1, 304185, Control_c, 0, 67, 35
1, 304199, Control_c, 0, 64, 102
1, 304199, Control_c, 0, 67, 36
1, 304214, Control_c, 0, 64, 97
1, 304214, Control_c, 0, 67, 37
1, 304229, Control_c, 0, 64, 96
1, 304229, Control_c, 0, 67, 38
1, 304244, Control_c, 0, 64, 98
1, 304244, Control_c, 0, 67, 39
1, 304258, Control_c, 0, 64, 109
1, 304258, Control_c, 0, 67, 40
1, 304273, Control_c, 0, 64, 127
1, 304288, Control_c, 0, 67, 40
1, 304293, Note_off_c, 0, 57, 36
1, 304304, Control_c, 0, 67, 41
1, 304320, Note_off_c, 0, 69, 47
1, 304334, Control_c, 0, 67, 41
1, 304408, Control_c, 0, 67, 42
1, 304437, Control_c, 0, 67, 42
1, 304452, Control_c, 0, 67, 44
1, 304466, Control_c, 0, 67, 45
1, 304481, Control_c, 0, 67, 46
1, 304496, Control_c, 0, 67, 48
1, 304511, Control_c, 0, 67, 49
1, 304526, Control_c, 0, 67, 50
1, 304541, Control_c, 0, 67, 51
1, 304555, Control_c, 0, 67, 52
1, 304570, Control_c, 0, 67, 52
1, 304585, Control_c, 0, 67, 53
1, 304600, Control_c, 0, 67, 53
1, 304615, Control_c, 0, 67, 54
1, 304645, Control_c, 0, 67, 54
1, 304660, Control_c, 0, 67, 55
1, 304674, Control_c, 0, 67, 56
1, 304689, Control_c, 0, 67, 57
1, 304704, Control_c, 0, 67, 57
1, 304719, Control_c, 0, 67, 58
1, 304734, Control_c, 0, 67, 59
1, 304748, Control_c, 0, 67, 60
1, 304763, Control_c, 0, 64, 99
1, 304763, Control_c, 0, 67, 60
1, 304776, Note_on_c, 0, 69, 45
1, 304778, Control_c, 0, 64, 81
1, 304778, Control_c, 0, 67, 61
1, 304791, Note_on_c, 0, 57, 31
1, 304792, Control_c, 0, 64, 71
1, 304792, Control_c, 0, 67, 62
1, 304807, Control_c, 0, 64, 71
1, 304830, Control_c, 0, 64, 74
1, 304830, Control_c, 0, 67, 62
1, 304845, Control_c, 0, 64, 80
1, 304845, Control_c, 0, 67, 63
1, 304860, Control_c, 0, 64, 88
1, 304860, Control_c, 0, 67, 64
1, 304874, Control_c, 0, 64, 106
1, 304874, Control_c, 0, 67, 65
1, 304889, Control_c, 0, 64, 127
1, 304889, Control_c, 0, 67, 65
1, 304900, Note_off_c, 0, 57, 39
1, 304904, Control_c, 0, 67, 66
1, 304916, Note_off_c, 0, 69, 38
1, 304993, Control_c, 0, 67, 66
1, 305112, Control_c, 0, 64, 113
1, 305112, Control_c, 0, 67, 67
1, 305127, Note_on_c, 0, 69, 50
1, 305127, Control_c, 0, 64, 88
1, 305140, Note_on_c, 0, 57, 40
1, 305142, Control_c, 0, 64, 71
1, 305142, Control_c, 0, 67, 67
1, 305157, Control_c, 0, 64, 50
1, 305171, Control_c, 0, 64, 0
1, 305186, Control_c, 0, 64, 41
1, 305201, Control_c, 0, 64, 61
1, 305216, Control_c, 0, 64, 67
1, 305231, Control_c, 0, 64, 73
1, 305245, Control_c, 0, 64, 86
1, 305260, Control_c, 0, 64, 105
1, 305275, Control_c, 0, 64, 127
1, 305275, Control_c, 0, 67, 67
1, 305290, Control_c, 0, 67, 66
1, 305332, Note_off_c, 0, 57, 34
1, 305334, Control_c, 0, 67, 66
1, 305355, Note_off_c, 0, 69, 49
1, 305483, Control_c, 0, 67, 66
1, 305527, Control_c, 0, 67, 67
1, 305542, Control_c, 0, 67, 67
1, 305638, Control_c, 0, 67, 68
1, 305757, Control_c, 0, 67, 68
1, 305786, Control_c, 0, 67, 69
1, 305801, Control_c, 0, 67, 70
1, 305816, Control_c, 0, 67, 73
1, 305829, Note_on_c, 0, 69, 44
1, 305830, Control_c, 0, 64, 97
1, 305830, Control_c, 0, 67, 74
1, 305845, Control_c, 0, 64, 81
1, 305845, Control_c, 0, 67, 76
1, 305855, Note_on_c, 0, 57, 28
1, 305860, Control_c, 0, 64, 71
1, 305860, Control_c, 0, 67, 76
1, 305875, Control_c, 0, 64, 66
1, 305875, Control_c, 0, 67, 77
1, 305890, Control_c, 0, 64, 68
1, 305890, Control_c, 0, 67, 77
1, 305906, Control_c, 0, 64, 72
1, 305906, Control_c, 0, 67, 78
1, 305920, Control_c, 0, 64, 77
1, 305920, Control_c, 0, 67, 78
1, 305935, Control_c, 0, 64, 83
1, 305935, Control_c, 0, 67, 79
1, 305950, Control_c, 0, 64, 93
1, 305950, Control_c, 0, 67, 80
1, 305965, Control_c, 0, 64, 109
1, 305965, Control_c, 0, 67, 81
1, 305980, Control_c, 0, 64, 127
1, 305980, Control_c, 0, 67, 81
1, 305994, Control_c, 0, 67, 82
1, 306007, Note_off_c, 0, 57, 36
1, 306033, Note_off_c, 0, 69, 36
1, 306039, Control_c, 0, 67, 82
1, 306068, Control_c, 0, 67, 83
1, 306127, Control_c, 0, 67, 83
1, 306142, Control_c, 0, 67, 84
1, 306172, Control_c, 0, 67, 85
1, 306187, Control_c, 0, 67, 86
1, 306201, Control_c, 0, 67, 87
1, 306216, Control_c, 0, 67, 88
1, 306231, Control_c, 0, 67, 89
1, 306246, Control_c, 0, 67, 90
1, 306261, Control_c, 0, 67, 91
1, 306275, Control_c, 0, 67, 92
1, 306290, Control_c, 0, 67, 93
1, 306306, Control_c, 0, 67, 95
1, 306328, Control_c, 0, 67, 96
1, 306343, Control_c, 0, 67, 97
1, 306358, Control_c, 0, 67, 99
1, 306373, Control_c, 0, 67, 100
1, 306388, Control_c, 0, 67, 101
1, 306402, Control_c, 0, 67, 102
1, 306417, Control_c, 0, 67, 102
1, 306432, Control_c, 0, 67, 103
1, 306446, Control_c, 0, 67, 104
1, 306461, Control_c, 0, 67, 105
1, 306474, Note_on_c, 0, 72, 50
1, 306476, Control_c, 0, 67, 105
1, 306491, Control_c, 0, 67, 106
1, 306506, Note_on_c, 0, 64, 42
1, 306506, Control_c, 0, 64, 112
1, 306506, Control_c, 0, 67, 106
1, 306520, Control_c, 0, 64, 94
1, 306520, Control_c, 0, 67, 107
1, 306522, Note_on_c, 0, 52, 29
1, 306524, Note_on_c, 0, 57, 29
1, 306535, Control_c, 0, 64, 81
1, 306535, Control_c, 0, 67, 107
1, 306550, Control_c, 0, 64, 70
1, 306550, Control_c, 0, 67, 108
1, 306565, Control_c, 0, 64, 57
1, 306565, Control_c, 0, 67, 109
1, 306580, Control_c, 0, 64, 0
1, 306580, Control_c, 0, 67, 109
1, 306594, Control_c, 0, 67, 110
1, 306609, Control_c, 0, 67, 110
1, 306624, Control_c, 0, 67, 111
1, 306639, Control_c, 0, 67, 112
1, 306654, Control_c, 0, 67, 112
1, 306669, Control_c, 0, 64, 36
1, 306669, Control_c, 0, 67, 113
1, 306684, Control_c, 0, 64, 56
1, 306684, Control_c, 0, 67, 113
1, 306699, Control_c, 0, 64, 63
1, 306714, Control_c, 0, 64, 67
1, 306714, Control_c, 0, 67, 114
1, 306729, Control_c, 0, 64, 70
1, 306743, Control_c, 0, 64, 74
1, 306758, Control_c, 0, 64, 79
1, 306773, Control_c, 0, 64, 86
1, 306788, Control_c, 0, 64, 94
1, 306803, Control_c, 0, 64, 100
1, 306818, Control_c, 0, 64, 106
1, 306833, Control_c, 0, 64, 111
1, 306848, Control_c, 0, 64, 121
1, 306863, Control_c, 0, 64, 127
1, 306877, Control_c, 0, 67, 114
1, 306939, Note_off_c, 0, 57, 41
1, 306951, Control_c, 0, 67, 115
1, 306961, Note_off_c, 0, 52, 40
1, 307011, Control_c, 0, 67, 115
1, 307040, Control_c, 0, 67, 117
1, 307055, Control_c, 0, 67, 118
1, 307076, Control_c, 0, 67, 119
1, 307091, Control_c, 0, 67, 120
1, 307106, Control_c, 0, 67, 121
1, 307121, Control_c, 0, 67, 121
1, 307136, Control_c, 0, 67, 122
1, 307150, Control_c, 0, 67, 123
1, 307165, Control_c, 0, 67, 123
1, 307180, Control_c, 0, 67, 124
1, 307194, Control_c, 0, 67, 124
1, 307209, Control_c, 0, 67, 125
1, 307224, Control_c, 0, 67, 125
1, 307239, Control_c, 0, 64, 111
1, 307239, Control_c, 0, 67, 126
1, 307243, Note_on_c, 0, 69, 59
1, 307254, Control_c, 0, 64, 90
1, 307254, Control_c, 0, 67, 126
1, 307265, Note_on_c, 0, 65, 42
1, 307268, Control_c, 0, 64, 74
1, 307268, Control_c, 0, 67, 127
1, 307270, Note_on_c, 0, 50, 31
1, 307277, Note_off_c, 0, 64, 45
1, 307282, Note_off_c, 0, 72, 56
1, 307283, Control_c, 0, 64, 57
1, 307283, Control_c, 0, 67, 127
1, 307286, Note_on_c, 0, 57, 22
1, 307298, Control_c, 0, 64, 0
1, 307358, Control_c, 0, 64, 50
1, 307372, Control_c, 0, 64, 65
1, 307387, Control_c, 0, 64, 73
1, 307402, Control_c, 0, 64, 84
1, 307417, Control_c, 0, 64, 103
1, 307432, Control_c, 0, 64, 127
1, 307437, Note_off_c, 0, 57, 40
1, 307444, Note_off_c, 0, 50, 48
1, 307613, Note_on_c, 0, 72, 66
1, 307624, Note_off_c, 0, 65, 52
1, 307625, Control_c, 0, 64, 103
1, 307640, Control_c, 0, 64, 87
1, 307646, Note_on_c, 0, 64, 52
1, 307647, Note_on_c, 0, 52, 37
1, 307648, Note_on_c, 0, 57, 26
1, 307655, Control_c, 0, 64, 74
1, 307670, Control_c, 0, 64, 63
1, 307676, Note_off_c, 0, 69, 57
1, 307685, Control_c, 0, 64, 0
1, 307773, Control_c, 0, 64, 60
1, 307788, Control_c, 0, 64, 68
1, 307803, Control_c, 0, 64, 77
1, 307825, Control_c, 0, 64, 90
1, 307840, Control_c, 0, 64, 108
1, 307855, Control_c, 0, 64, 127
1, 307903, Note_off_c, 0, 57, 39
1, 307905, Note_off_c, 0, 64, 55
1, 307914, Note_off_c, 0, 52, 40
1, 307945, Note_off_c, 0, 72, 61
1, 308255, Control_c, 0, 64, 105
1, 308270, Control_c, 0, 64, 86
1, 308270, Note_on_c, 0, 74, 64
1, 308285, Control_c, 0, 64, 69
1, 308298, Note_on_c, 0, 53, 29
1, 308300, Note_on_c, 0, 57, 33
1, 308300, Note_on_c, 0, 62, 38
1, 308300, Control_c, 0, 64, 49
1, 308314, Control_c, 0, 64, 0
1, 308344, Control_c, 0, 64, 40
1, 308359, Control_c, 0, 64, 61
1, 308374, Control_c, 0, 64, 67
1, 308389, Control_c, 0, 64, 76
1, 308404, Control_c, 0, 64, 86
1, 308419, Control_c, 0, 64, 100
1, 308434, Control_c, 0, 64, 120
1, 308448, Control_c, 0, 64, 127
1, 308451, Note_off_c, 0, 57, 51
1, 308477, Note_off_c, 0, 62, 36
1, 308526, Note_off_c, 0, 53, 45
1, 308690, Note_on_c, 0, 72, 60
1, 308693, Control_c, 0, 64, 112
1, 308708, Control_c, 0, 64, 93
1, 308721, Note_on_c, 0, 57, 29
1, 308722, Note_on_c, 0, 52, 29
1, 308722, Control_c, 0, 64, 79
1, 308723, Note_on_c, 0, 64, 36
1, 308737, Control_c, 0, 64, 66
1, 308752, Control_c, 0, 64, 23
1, 308767, Control_c, 0, 64, 0
1, 308776, Note_off_c, 0, 74, 38
1, 308855, Control_c, 0, 64, 38
1, 308870, Control_c, 0, 64, 63
1, 308885, Control_c, 0, 64, 69
1, 308900, Control_c, 0, 64, 77
1, 308914, Control_c, 0, 64, 86
1, 308929, Control_c, 0, 64, 97
1, 308944, Control_c, 0, 64, 114
1, 308959, Control_c, 0, 64, 127
1, 309018, Note_off_c, 0, 52, 40
1, 309053, Note_off_c, 0, 57, 41
1, 309218, Note_on_c, 0, 71, 57
1, 309272, Note_off_c, 0, 64, 35
1, 309353, Control_c, 0, 64, 107
1, 309368, Control_c, 0, 64, 92
1, 309383, Control_c, 0, 64, 79
1, 309385, Note_off_c, 0, 72, 39
1, 309391, Note_on_c, 0, 69, 56
1, 309397, Control_c, 0, 64, 67
1, 309412, Control_c, 0, 64, 19
1, 309419, Note_on_c, 0, 65, 40
1, 309424, Note_on_c, 0, 50, 29
1, 309427, Control_c, 0, 64, 0
1, 309435, Note_on_c, 0, 57, 19
1, 309436, Note_off_c, 0, 71, 54
1, 309486, Control_c, 0, 64, 19
1, 309493, Note_off_c, 0, 65, 50
1, 309501, Control_c, 0, 64, 59
1, 309516, Control_c, 0, 64, 68
1, 309531, Control_c, 0, 64, 77
1, 309546, Control_c, 0, 64, 88
1, 309560, Control_c, 0, 64, 102
1, 309575, Control_c, 0, 64, 123
1, 309587, Note_off_c, 0, 57, 38
1, 309590, Control_c, 0, 64, 127
1, 309590, Note_off_c, 0, 50, 53
1, 309850, Note_on_c, 0, 72, 61
1, 309871, Control_c, 0, 64, 107
1, 309876, Note_on_c, 0, 64, 41
1, 309887, Control_c, 0, 64, 93
1, 309889, Note_on_c, 0, 52, 32
1, 309893, Note_on_c, 0, 57, 29
1, 309902, Control_c, 0, 64, 80
1, 309917, Control_c, 0, 64, 68
1, 309921, Note_off_c, 0, 69, 53
1, 309932, Control_c, 0, 64, 48
1, 309947, Control_c, 0, 64, 0
1, 310050, Control_c, 0, 64, 28
1, 310071, Control_c, 0, 64, 58
1, 310085, Control_c, 0, 64, 65
1, 310100, Control_c, 0, 64, 72
1, 310115, Control_c, 0, 64, 78
1, 310130, Control_c, 0, 64, 86
1, 310145, Control_c, 0, 64, 96
1, 310160, Control_c, 0, 64, 107
1, 310174, Control_c, 0, 64, 127
1, 310245, Note_off_c, 0, 57, 38
1, 310285, Note_off_c, 0, 52, 40
1, 310289, Note_off_c, 0, 64, 42
1, 310404, Note_off_c, 0, 72, 55
1, 310723, Control_c, 0, 64, 105
1, 310738, Control_c, 0, 64, 87
1, 310752, Note_on_c, 0, 74, 54
1, 310753, Control_c, 0, 64, 71
1, 310768, Control_c, 0, 64, 54
1, 310774, Note_on_c, 0, 57, 30
1, 310781, Note_on_c, 0, 53, 29
1, 310783, Note_on_c, 0, 62, 32
1, 310783, Control_c, 0, 64, 0
1, 310849, Control_c, 0, 64, 27
1, 310864, Control_c, 0, 64, 58
1, 310879, Control_c, 0, 64, 66
1, 310894, Control_c, 0, 64, 73
1, 310909, Control_c, 0, 64, 82
1, 310923, Control_c, 0, 64, 93
1, 310935, Note_off_c, 0, 53, 53
1, 310938, Control_c, 0, 64, 106
1, 310953, Control_c, 0, 64, 127
1, 310955, Note_off_c, 0, 74, 56
1, 310958, Note_off_c, 0, 62, 40
1, 310988, Note_off_c, 0, 57, 39
1, 311421, Note_on_c, 0, 76, 44
1, 311435, Note_on_c, 0, 52, 33
1, 311438, Note_on_c, 0, 69, 39
1, 311441, Control_c, 0, 64, 108
1, 311446, Note_on_c, 0, 64, 33
1, 311451, Note_on_c, 0, 60, 31
1, 311456, Control_c, 0, 64, 93
1, 311471, Control_c, 0, 64, 80
1, 311487, Control_c, 0, 64, 68
1, 311502, Control_c, 0, 64, 37
1, 311517, Control_c, 0, 64, 0
1, 311820, Control_c, 0, 64, 44
1, 311835, Control_c, 0, 64, 59
1, 311850, Control_c, 0, 64, 65
1, 311865, Control_c, 0, 64, 69
1, 311880, Control_c, 0, 64, 74
1, 311894, Control_c, 0, 64, 79
1, 311909, Control_c, 0, 64, 84
1, 311924, Control_c, 0, 64, 89
1, 311939, Control_c, 0, 64, 95
1, 311954, Control_c, 0, 64, 101
1, 311969, Control_c, 0, 64, 108
1, 311983, Control_c, 0, 64, 124
1, 311998, Control_c, 0, 64, 127
1, 312179, Note_off_c, 0, 52, 32
1, 312231, Note_off_c, 0, 76, 33
1, 312335, Note_off_c, 0, 60, 34
1, 312350, Note_off_c, 0, 64, 37
1, 312362, Note_off_c, 0, 69, 43
1, 312747, Control_c, 0, 64, 116
1, 312762, Control_c, 0, 64, 109
1, 312777, Control_c, 0, 64, 104
1, 312792, Control_c, 0, 64, 99
1, 312806, Control_c, 0, 64, 95
1, 312821, Control_c, 0, 64, 90
1, 312836, Control_c, 0, 64, 85
1, 312851, Control_c, 0, 64, 79
1, 312866, Control_c, 0, 64, 75
1, 312880, Control_c, 0, 64, 71
1, 312895, Control_c, 0, 64, 68
1, 312910, Control_c, 0, 64, 67
1, 312925, Control_c, 0, 64, 66
1, 312940, Control_c, 0, 64, 66
1, 312954, Control_c, 0, 64, 65
1, 312969, Control_c, 0, 64, 64
1, 312984, Control_c, 0, 64, 63
1, 312999, Control_c, 0, 64, 61
1, 313013, Control_c, 0, 64, 58
1, 313028, Control_c, 0, 64, 54
1, 313043, Control_c, 0, 64, 42
1, 313066, Control_c, 0, 64, 0
1, 313555, Control_c, 0, 64, 21
1, 313570, Control_c, 0, 64, 47
1, 313585, Control_c, 0, 64, 57
1, 313600, Control_c, 0, 64, 62
1, 313615, Control_c, 0, 64, 64
1, 313629, Control_c, 0, 64, 66
1, 313644, Control_c, 0, 64, 68
1, 313659, Control_c, 0, 64, 70
1, 313674, Control_c, 0, 64, 72
1, 313689, Control_c, 0, 64, 74
1, 313704, Control_c, 0, 64, 79
1, 313719, Control_c, 0, 64, 83
1, 313734, Control_c, 0, 64, 87
1, 313749, Control_c, 0, 64, 91
1, 313763, Control_c, 0, 64, 95
1, 313778, Control_c, 0, 64, 98
1, 313793, Control_c, 0, 64, 101
1, 313814, Control_c, 0, 64, 104
1, 313829, Control_c, 0, 64, 107
1, 313844, Control_c, 0, 64, 111
1, 313859, Control_c, 0, 64, 119
1, 313868, Note_on_c, 0, 68, 50
1, 313874, Control_c, 0, 64, 127
1, 313880, Note_on_c, 0, 64, 46
1, 313893, Note_on_c, 0, 59, 32
1, 313897, Note_on_c, 0, 52, 36
1, 313907, Note_on_c, 0, 62, 35
1, 314067, Note_off_c, 0, 52, 44
1, 314363, Control_c, 0, 67, 126
1, 314378, Control_c, 0, 67, 121
1, 314392, Control_c, 0, 67, 114
1, 314407, Control_c, 0, 67, 106
1, 314422, Control_c, 0, 67, 97
1, 314437, Control_c, 0, 67, 84
1, 314452, Control_c, 0, 67, 73
1, 314467, Control_c, 0, 67, 64
1, 314482, Control_c, 0, 67, 57
1, 314497, Control_c, 0, 67, 50
1, 314512, Control_c, 0, 67, 44
1, 314526, Control_c, 0, 67, 39
1, 314541, Control_c, 0, 67, 34
1, 314563, Control_c, 0, 67, 29
1, 314578, Control_c, 0, 67, 25
1, 314592, Control_c, 0, 67, 22
1, 314607, Control_c, 0, 67, 19
1, 314622, Control_c, 0, 67, 15
1, 314637, Control_c, 0, 67, 9
1, 314652, Control_c, 0, 67, 0
1, 315138, Note_on_c, 0, 28, 39
1, 315138, Note_off_c, 0, 59, 41
1, 315168, Note_off_c, 0, 68, 37
1, 315224, Note_off_c, 0, 64, 29
1, 315233, Note_off_c, 0, 62, 38
1, 315460, Control_c, 0, 67, 8
1, 315475, Control_c, 0, 67, 9
1, 315491, Control_c, 0, 67, 11
1, 315505, Control_c, 0, 67, 13
1, 315520, Control_c, 0, 67, 17
1, 315525, Note_on_c, 0, 40, 39
1, 315535, Control_c, 0, 67, 21
1, 315550, Control_c, 0, 67, 24
1, 315565, Control_c, 0, 67, 28
1, 315579, Control_c, 0, 67, 32
1, 315594, Control_c, 0, 67, 36
1, 315609, Control_c, 0, 67, 40
1, 315624, Control_c, 0, 67, 43
1, 315638, Control_c, 0, 67, 46
1, 315653, Control_c, 0, 67, 49
1, 315668, Control_c, 0, 67, 52
1, 315683, Control_c, 0, 67, 55
1, 315698, Control_c, 0, 67, 58
1, 315713, Control_c, 0, 67, 60
1, 315723, Note_on_c, 0, 56, 40
1, 315728, Control_c, 0, 67, 62
1, 315743, Control_c, 0, 67, 64
1, 315758, Control_c, 0, 67, 65
1, 315773, Control_c, 0, 67, 68
1, 315774, Note_off_c, 0, 56, 47
1, 315787, Control_c, 0, 67, 71
1, 315802, Control_c, 0, 67, 73
1, 315817, Control_c, 0, 67, 75
1, 315831, Control_c, 0, 67, 77
1, 315846, Control_c, 0, 67, 78
1, 315861, Control_c, 0, 67, 80
1, 315876, Control_c, 0, 67, 81
1, 315891, Control_c, 0, 67, 82
1, 315892, Note_on_c, 0, 56, 35
1, 315905, Control_c, 0, 67, 82
1, 315920, Control_c, 0, 67, 83
1, 315935, Control_c, 0, 67, 84
1, 315949, Control_c, 0, 67, 85
1, 315964, Control_c, 0, 67, 86
1, 315979, Control_c, 0, 67, 87
1, 315994, Control_c, 0, 67, 88
1, 316009, Control_c, 0, 67, 89
1, 316023, Control_c, 0, 67, 91
1, 316036, Note_on_c, 0, 62, 37
1, 316038, Control_c, 0, 67, 93
1, 316062, Control_c, 0, 67, 96
1, 316077, Control_c, 0, 67, 97
1, 316089, Note_off_c, 0, 56, 39
1, 316092, Control_c, 0, 67, 98
1, 316106, Control_c, 0, 67, 100
1, 316121, Control_c, 0, 67, 102
1, 316136, Control_c, 0, 67, 104
1, 316151, Control_c, 0, 67, 105
1, 316165, Control_c, 0, 67, 107
1, 316180, Control_c, 0, 67, 109
1, 316195, Control_c, 0, 67, 110
1, 316210, Control_c, 0, 67, 111
1, 316225, Control_c, 0, 67, 112
1, 316239, Control_c, 0, 67, 114
1, 316254, Control_c, 0, 67, 115
1, 316258, Note_on_c, 0, 64, 43
1, 316269, Control_c, 0, 67, 116
1, 316285, Control_c, 0, 67, 117
1, 316299, Note_off_c, 0, 62, 38
1, 316300, Control_c, 0, 67, 117
1, 316315, Control_c, 0, 67, 118
1, 316329, Control_c, 0, 67, 118
1, 316344, Control_c, 0, 67, 119
1, 316403, Control_c, 0, 67, 119
1, 316536, Control_c, 0, 67, 120
1, 316566, Control_c, 0, 67, 120
1, 316655, Control_c, 0, 67, 121
1, 316700, Control_c, 0, 67, 121
1, 316715, Control_c, 0, 67, 122
1, 316729, Control_c, 0, 67, 124
1, 316744, Control_c, 0, 67, 125
1, 316759, Control_c, 0, 67, 125
1, 316773, Control_c, 0, 67, 126
1, 316792, Note_on_c, 0, 71, 56
1, 316810, Control_c, 0, 67, 126
1, 316825, Control_c, 0, 67, 127
1, 316840, Control_c, 0, 67, 127
1, 317284, Note_off_c, 0, 28, 36
1, 317485, Note_off_c, 0, 40, 40
1, 318125, Note_off_c, 0, 71, 43
1, 318723, Control_c, 0, 64, 95
1, 318738, Control_c, 0, 64, 76
1, 318746, Note_on_c, 0, 33, 37
1, 318753, Control_c, 0, 64, 30
1, 318768, Control_c, 0, 64, 0
1, 318886, Control_c, 0, 64, 61
1, 318901, Control_c, 0, 64, 72
1, 318916, Control_c, 0, 64, 86
1, 318930, Control_c, 0, 64, 127
1, 319031, Note_off_c, 0, 33, 40
1, 319643, Note_on_c, 0, 69, 41
1, 319660, Note_on_c, 0, 45, 32
1, 319665, Note_on_c, 0, 52, 32
1, 319678, Note_on_c, 0, 60, 19
1, 319687, Note_on_c, 0, 57, 15
1, 320033, Note_off_c, 0, 57, 36
1, 320061, Note_off_c, 0, 69, 32
1, 320103, Note_off_c, 0, 52, 34
1, 320161, Note_off_c, 0, 45, 38
1, 320280, Note_off_c, 0, 64, 40
1, 320293, Note_off_c, 0, 60, 37
1, 320821, Control_c, 0, 67, 127
1, 320836, Control_c, 0, 67, 123
1, 320851, Control_c, 0, 67, 119
1, 320866, Control_c, 0, 67, 114
1, 320881, Control_c, 0, 67, 107
1, 320895, Control_c, 0, 67, 99
1, 320910, Control_c, 0, 67, 92
1, 320925, Control_c, 0, 67, 86
1, 320940, Control_c, 0, 67, 82
1, 320954, Control_c, 0, 67, 77
1, 320969, Control_c, 0, 67, 72
1, 320984, Control_c, 0, 67, 65
1, 320999, Control_c, 0, 67, 59
1, 321014, Control_c, 0, 67, 54
1, 321028, Control_c, 0, 67, 49
1, 321043, Control_c, 0, 67, 42
1, 321058, Control_c, 0, 67, 33
1, 321074, Control_c, 0, 67, 24
1, 321089, Control_c, 0, 67, 13
1, 321104, Control_c, 0, 67, 0
1, 321252, Control_c, 0, 64, 113
1, 321266, Control_c, 0, 64, 103
1, 321281, Control_c, 0, 64, 95
1, 321304, Control_c, 0, 64, 87
1, 321319, Control_c, 0, 64, 81
1, 321333, Control_c, 0, 64, 77
1, 321348, Control_c, 0, 64, 73
1, 321363, Control_c, 0, 64, 70
1, 321377, Control_c, 0, 64, 67
1, 321392, Control_c, 0, 64, 64
1, 321407, Control_c, 0, 64, 63
1, 321422, Control_c, 0, 64, 61
1, 321437, Control_c, 0, 64, 59
1, 321451, Control_c, 0, 64, 57
1, 321466, Control_c, 0, 64, 53
1, 321481, Control_c, 0, 64, 43
1, 321496, Control_c, 0, 64, 17
1, 321511, Control_c, 0, 64, 0
1, 321586, End_track
0, 0, End_of_file
