0, 0, Header, 0, 1, 384
1, 0, Start_track
1, 0, Title_t, "Viennese Evenings--Elmar Gasanov"
1, 0, Text_t, "2009 Piano-e-Competition audition round"
1, 0, Text_t, "captured January 2009"
1, 0, Text_t, "http://www.piano-e-competition.com/"
1, 0, Text_t, "File processed for distribution by software from Zenph Studios, Inc., http://www.zenph.com"
1, 0, Instrument_name_t, "Yamaha Disklavier Pro Mark IV concert grand piano, model DCFIIISM4PRO"
1, 0, Sequencer_specific, 39, 67, 113, 0, 1, 0, 1, 0, 86, 105, 101, 110, 110, 101, 115, 101, 69, 118, 101, 110, 105, 110, 103, 115, 69, 108, 109, 97, 114, 32, 71, 97, 115, 97, 110, 111, 118, 32, 32, 32
1, 0, Sequencer_specific, 6, 67, 113, 0, 0, 0, 69
1, 0, System_exclusive, 21, 67, 113, 126, 21, 0, 2, 2, 0, 3, 14, 1, 4, 1, 13, 13, 10, 11, 9, 2, 7, 247
1, 0, Sequencer_specific, 5, 67, 123, 12, 2, 1
1, 0, Tempo, 512820
1, 0, Time_signature, 4, 2, 24, 8
1, 0, System_exclusive, 5, 126, 127, 9, 1, 247
1, 1, System_exclusive, 8, 67, 16, 76, 0, 0, 126, 0, 247
1, 2, System_exclusive, 8, 67, 16, 76, 8, 9, 7, 1, 247
1, 3, Control_c, 0, 0, 0
1, 3, Control_c, 1, 0, 0
1, 3, Control_c, 2, 0, 0
1, 3, Control_c, 3, 0, 0
1, 3, Control_c, 4, 0, 0
1, 3, Control_c, 5, 0, 0
1, 3, Control_c, 6, 0, 0
1, 3, Control_c, 7, 0, 0
1, 3, Control_c, 8, 0, 0
1, 3, Control_c, 9, 0, 127
1, 3, Control_c, 10, 0, 0
1, 3, Control_c, 11, 0, 0
1, 3, Control_c, 12, 0, 0
1, 3, Control_c, 13, 0, 0
1, 3, Control_c, 14, 0, 0
1, 3, Control_c, 15, 0, 0
1, 4, Control_c, 0, 32, 0
1, 4, Control_c, 1, 32, 0
1, 4, Control_c, 2, 32, 0
1, 4, Control_c, 3, 32, 0
1, 4, Control_c, 4, 32, 0
1, 4, Control_c, 5, 32, 0
1, 4, Control_c, 6, 32, 0
1, 4, Control_c, 7, 32, 0
1, 4, Control_c, 8, 32, 0
1, 4, Control_c, 9, 32, 0
1, 4, Control_c, 10, 32, 0
1, 4, Control_c, 11, 32, 0
1, 4, Control_c, 12, 32, 0
1, 4, Control_c, 13, 32, 0
1, 4, Control_c, 14, 32, 0
1, 4, Control_c, 15, 32, 0
1, 5, Program_c, 0, 0
1, 5, Program_c, 1, 0
1, 5, Program_c, 2, 0
1, 5, Program_c, 3, 0
1, 5, Program_c, 4, 0
1, 5, Program_c, 5, 0
1, 5, Program_c, 6, 0
1, 5, Program_c, 7, 0
1, 5, Program_c, 8, 0
1, 5, Program_c, 9, 0
1, 5, Program_c, 10, 0
1, 5, Program_c, 11, 0
1, 5, Program_c, 12, 0
1, 5, Program_c, 13, 0
1, 5, Program_c, 14, 0
1, 5, Program_c, 15, 0
1, 6, Control_c, 0, 7, 100
1, 6, Control_c, 1, 7, 100
1, 6, Control_c, 2, 7, 100
1, 6, Control_c, 3, 7, 100
1, 6, Control_c, 4, 7, 100
1, 6, Control_c, 5, 7, 100
1, 6, Control_c, 6, 7, 100
1, 6, Control_c, 7, 7, 100
1, 6, Control_c, 8, 7, 100
1, 6, Control_c, 9, 7, 100
1, 6, Control_c, 10, 7, 100
1, 6, Control_c, 11, 7, 100
1, 6, Control_c, 12, 7, 100
1, 6, Control_c, 13, 7, 100
1, 6, Control_c, 14, 7, 100
1, 6, Control_c, 15, 7, 100
1, 1129, Note_on_c, 0, 63, 76
1, 1134, Note_on_c, 0, 39, 66
1, 1139, Note_on_c, 0, 51, 65
1, 1202, Note_off_c, 0, 51, 61
1, 1204, Note_off_c, 0, 39, 63
1, 1266, Note_off_c, 0, 63, 33
1, 1443, Note_on_c, 0, 66, 87
1, 1454, Control_c, 0, 64, 36
1, 1457, Note_on_c, 0, 42, 75
1, 1461, Note_on_c, 0, 54, 71
1, 1469, Control_c, 0, 64, 62
1, 1484, Control_c, 0, 64, 75
1, 1498, Control_c, 0, 64, 103
1, 1513, Control_c, 0, 64, 127
1, 1516, Note_off_c, 0, 54, 61
1, 1554, Note_off_c, 0, 66, 54
1, 1557, Note_off_c, 0, 42, 57
1, 1924, Note_on_c, 0, 64, 79
1, 1932, Note_on_c, 0, 40, 70
1, 1935, Note_on_c, 0, 52, 62
1, 1951, Control_c, 0, 64, 99
1, 1961, Note_off_c, 0, 40, 64
1, 1966, Control_c, 0, 64, 75
1, 1967, Note_off_c, 0, 52, 64
1, 1971, Note_off_c, 0, 64, 66
1, 1980, Control_c, 0, 64, 55
1, 1995, Control_c, 0, 64, 0
1, 2032, Note_on_c, 0, 40, 69
1, 2033, Note_on_c, 0, 64, 83
1, 2038, Note_on_c, 0, 52, 61
1, 2058, Note_off_c, 0, 52, 57
1, 2067, Note_off_c, 0, 40, 68
1, 2082, Note_off_c, 0, 64, 65
1, 2122, Note_on_c, 0, 63, 84
1, 2133, Note_on_c, 0, 39, 82
1, 2135, Note_on_c, 0, 51, 69
1, 2164, Note_off_c, 0, 39, 62
1, 2165, Note_off_c, 0, 63, 63
1, 2166, Note_off_c, 0, 51, 66
1, 2218, Control_c, 0, 64, 51
1, 2221, Note_on_c, 0, 63, 81
1, 2231, Note_on_c, 0, 39, 79
1, 2233, Control_c, 0, 64, 77
1, 2234, Note_on_c, 0, 51, 78
1, 2247, Control_c, 0, 64, 99
1, 2260, Note_off_c, 0, 51, 66
1, 2262, Control_c, 0, 64, 127
1, 2263, Note_off_c, 0, 39, 64
1, 2264, Note_off_c, 0, 63, 66
1, 2448, Control_c, 0, 64, 77
1, 2462, Control_c, 0, 64, 44
1, 2463, Note_on_c, 0, 63, 87
1, 2465, Note_on_c, 0, 39, 77
1, 2473, Note_on_c, 0, 51, 69
1, 2477, Control_c, 0, 64, 0
1, 2508, Note_off_c, 0, 51, 60
1, 2510, Note_off_c, 0, 39, 54
1, 2522, Note_off_c, 0, 63, 63
1, 2700, Control_c, 0, 64, 37
1, 2701, Note_on_c, 0, 63, 84
1, 2708, Note_on_c, 0, 51, 76
1, 2711, Note_on_c, 0, 39, 65
1, 2715, Control_c, 0, 64, 71
1, 2730, Control_c, 0, 64, 94
1, 2733, Note_off_c, 0, 63, 66
1, 2734, Note_off_c, 0, 51, 66
1, 2737, Note_off_c, 0, 39, 61
1, 2745, Control_c, 0, 64, 127
1, 3010, Note_on_c, 0, 69, 77
1, 3011, Note_on_c, 0, 75, 80
1, 3012, Note_on_c, 0, 81, 80
1, 3014, Note_on_c, 0, 54, 75
1, 3025, Note_on_c, 0, 66, 65
1, 3026, Note_on_c, 0, 60, 68
1, 3030, Note_off_c, 0, 81, 70
1, 3032, Note_off_c, 0, 69, 70
1, 3040, Note_off_c, 0, 54, 67
1, 3043, Note_off_c, 0, 75, 64
1, 3050, Note_off_c, 0, 60, 68
1, 3050, Note_off_c, 0, 66, 69
1, 3538, Control_c, 0, 64, 100
1, 3552, Control_c, 0, 64, 73
1, 3567, Control_c, 0, 64, 53
1, 3582, Control_c, 0, 64, 0
1, 4454, Note_on_c, 0, 60, 83
1, 4456, Note_on_c, 0, 36, 67
1, 4460, Note_on_c, 0, 48, 67
1, 4527, Note_off_c, 0, 36, 62
1, 4536, Note_off_c, 0, 48, 62
1, 4563, Note_off_c, 0, 60, 54
1, 4780, Note_on_c, 0, 63, 86
1, 4795, Note_on_c, 0, 39, 74
1, 4795, Note_on_c, 0, 51, 74
1, 4797, Control_c, 0, 64, 27
1, 4812, Control_c, 0, 64, 66
1, 4827, Control_c, 0, 64, 90
1, 4842, Control_c, 0, 64, 127
1, 4894, Note_off_c, 0, 63, 62
1, 4908, Note_off_c, 0, 51, 58
1, 4995, Note_off_c, 0, 39, 31
1, 5229, Note_on_c, 0, 38, 66
1, 5235, Note_on_c, 0, 50, 56
1, 5240, Note_on_c, 0, 62, 65
1, 5244, Control_c, 0, 64, 99
1, 5259, Control_c, 0, 64, 74
1, 5260, Note_off_c, 0, 38, 62
1, 5266, Note_off_c, 0, 50, 62
1, 5273, Control_c, 0, 64, 51
1, 5286, Note_off_c, 0, 62, 66
1, 5288, Control_c, 0, 64, 0
1, 5338, Note_on_c, 0, 38, 68
1, 5352, Note_on_c, 0, 62, 81
1, 5366, Note_on_c, 0, 50, 44
1, 5381, Note_off_c, 0, 38, 64
1, 5394, Note_off_c, 0, 50, 37
1, 5403, Note_off_c, 0, 62, 66
1, 5447, Note_on_c, 0, 60, 82
1, 5450, Note_on_c, 0, 36, 75
1, 5453, Note_on_c, 0, 48, 61
1, 5478, Note_off_c, 0, 36, 61
1, 5479, Note_off_c, 0, 48, 61
1, 5486, Note_off_c, 0, 60, 65
1, 5545, Note_on_c, 0, 36, 75
1, 5547, Control_c, 0, 64, 35
1, 5550, Note_on_c, 0, 60, 84
1, 5552, Note_on_c, 0, 48, 71
1, 5562, Control_c, 0, 64, 66
1, 5577, Control_c, 0, 64, 81
1, 5590, Note_off_c, 0, 60, 64
1, 5591, Note_off_c, 0, 48, 59
1, 5592, Control_c, 0, 64, 96
1, 5596, Note_off_c, 0, 36, 58
1, 5606, Control_c, 0, 64, 127
1, 5769, Control_c, 0, 64, 79
1, 5773, Note_on_c, 0, 36, 77
1, 5773, Note_on_c, 0, 60, 86
1, 5775, Note_on_c, 0, 48, 78
1, 5785, Control_c, 0, 64, 40
1, 5800, Control_c, 0, 64, 0
1, 5818, Note_off_c, 0, 48, 57
1, 5825, Note_off_c, 0, 36, 58
1, 5828, Note_off_c, 0, 60, 57
1, 6021, Note_on_c, 0, 60, 87
1, 6028, Note_on_c, 0, 36, 70
1, 6033, Note_on_c, 0, 48, 70
1, 6037, Control_c, 0, 64, 69
1, 6051, Note_off_c, 0, 60, 65
1, 6052, Control_c, 0, 64, 114
1, 6061, Note_off_c, 0, 36, 66
1, 6064, Note_off_c, 0, 48, 64
1, 6066, Control_c, 0, 64, 127
1, 6349, Note_on_c, 0, 72, 81
1, 6350, Note_on_c, 0, 84, 85
1, 6351, Note_on_c, 0, 57, 73
1, 6351, Note_on_c, 0, 78, 86
1, 6359, Note_on_c, 0, 69, 71
1, 6360, Note_on_c, 0, 63, 76
1, 6368, Note_off_c, 0, 84, 71
1, 6370, Note_off_c, 0, 72, 69
1, 6376, Note_off_c, 0, 57, 65
1, 6376, Note_off_c, 0, 78, 66
1, 6382, Note_off_c, 0, 69, 68
1, 6384, Note_off_c, 0, 63, 68
1, 6866, Control_c, 0, 64, 99
1, 6881, Control_c, 0, 64, 74
1, 6896, Control_c, 0, 64, 54
1, 6911, Control_c, 0, 64, 0
1, 7774, Note_on_c, 0, 57, 84
1, 7781, Note_on_c, 0, 33, 69
1, 7785, Note_on_c, 0, 45, 68
1, 7847, Note_off_c, 0, 33, 61
1, 7860, Note_off_c, 0, 45, 61
1, 7883, Note_off_c, 0, 57, 57
1, 8100, Note_on_c, 0, 60, 86
1, 8118, Note_on_c, 0, 36, 69
1, 8118, Note_on_c, 0, 48, 69
1, 8119, Control_c, 0, 64, 60
1, 8134, Control_c, 0, 64, 74
1, 8149, Control_c, 0, 64, 87
1, 8165, Control_c, 0, 64, 111
1, 8180, Control_c, 0, 64, 127
1, 8197, Note_off_c, 0, 60, 63
1, 8246, Note_off_c, 0, 48, 34
1, 8257, Note_off_c, 0, 36, 32
1, 8569, Note_on_c, 0, 59, 82
1, 8578, Note_on_c, 0, 47, 62
1, 8580, Note_on_c, 0, 35, 65
1, 8602, Control_c, 0, 64, 105
1, 8611, Note_off_c, 0, 47, 66
1, 8613, Note_off_c, 0, 35, 64
1, 8617, Control_c, 0, 64, 79
1, 8621, Note_off_c, 0, 59, 63
1, 8631, Control_c, 0, 64, 59
1, 8646, Control_c, 0, 64, 26
1, 8661, Control_c, 0, 64, 0
1, 8684, Note_on_c, 0, 35, 71
1, 8684, Note_on_c, 0, 59, 76
1, 8705, Note_on_c, 0, 47, 38
1, 8706, Note_off_c, 0, 47, 127
1, 8717, Note_off_c, 0, 35, 63
1, 8737, Note_off_c, 0, 59, 64
1, 8781, Note_on_c, 0, 57, 82
1, 8793, Note_on_c, 0, 33, 75
1, 8800, Note_on_c, 0, 45, 51
1, 8821, Note_off_c, 0, 33, 64
1, 8824, Note_off_c, 0, 45, 47
1, 8826, Note_off_c, 0, 57, 63
1, 8882, Note_on_c, 0, 57, 82
1, 8889, Note_on_c, 0, 33, 82
1, 8897, Note_on_c, 0, 45, 71
1, 8898, Control_c, 0, 64, 61
1, 8913, Control_c, 0, 64, 84
1, 8922, Note_off_c, 0, 57, 65
1, 8923, Note_off_c, 0, 33, 66
1, 8928, Control_c, 0, 64, 101
1, 8929, Note_off_c, 0, 45, 66
1, 8942, Control_c, 0, 64, 127
1, 9122, Note_on_c, 0, 57, 85
1, 9131, Note_on_c, 0, 33, 72
1, 9135, Note_on_c, 0, 45, 65
1, 9143, Control_c, 0, 64, 78
1, 9158, Note_off_c, 0, 57, 65
1, 9158, Control_c, 0, 64, 51
1, 9167, Note_off_c, 0, 33, 64
1, 9168, Note_off_c, 0, 45, 64
1, 9173, Control_c, 0, 64, 0
1, 9367, Note_on_c, 0, 57, 86
1, 9376, Note_on_c, 0, 33, 72
1, 9377, Note_on_c, 0, 45, 67
1, 9409, Note_off_c, 0, 45, 65
1, 9412, Note_off_c, 0, 33, 66
1, 9417, Note_off_c, 0, 57, 64
1, 9625, Note_on_c, 0, 65, 80
1, 9628, Note_on_c, 0, 57, 78
1, 9630, Note_on_c, 0, 60, 82
1, 9644, Note_on_c, 0, 29, 69
1, 9645, Note_on_c, 0, 41, 66
1, 9662, Control_c, 0, 64, 70
1, 9664, Note_off_c, 0, 60, 66
1, 9665, Note_off_c, 0, 57, 65
1, 9673, Note_off_c, 0, 65, 64
1, 9677, Note_off_c, 0, 41, 64
1, 9677, Control_c, 0, 64, 92
1, 9677, Note_off_c, 0, 29, 63
1, 9691, Control_c, 0, 64, 105
1, 9706, Control_c, 0, 64, 127
1, 9910, Note_on_c, 0, 65, 86
1, 9914, Note_on_c, 0, 60, 81
1, 9917, Note_on_c, 0, 57, 75
1, 9918, Note_on_c, 0, 33, 71
1, 9918, Note_on_c, 0, 45, 73
1, 9937, Control_c, 0, 64, 89
1, 9945, Note_off_c, 0, 45, 65
1, 9948, Note_off_c, 0, 60, 62
1, 9952, Control_c, 0, 64, 63
1, 9954, Note_off_c, 0, 65, 63
1, 9955, Note_off_c, 0, 57, 62
1, 9960, Note_off_c, 0, 33, 66
1, 9967, Control_c, 0, 64, 0
1, 10187, Note_on_c, 0, 65, 81
1, 10191, Note_on_c, 0, 60, 74
1, 10194, Note_on_c, 0, 57, 71
1, 10201, Note_on_c, 0, 29, 70
1, 10203, Note_on_c, 0, 41, 68
1, 10228, Note_off_c, 0, 60, 61
1, 10231, Note_off_c, 0, 29, 63
1, 10234, Note_off_c, 0, 41, 65
1, 10240, Note_off_c, 0, 65, 58
1, 10240, Note_off_c, 0, 57, 56
1, 10516, Note_on_c, 0, 64, 74
1, 10525, Note_on_c, 0, 60, 66
1, 10526, Note_on_c, 0, 55, 61
1, 10537, Note_on_c, 0, 36, 60
1, 10544, Control_c, 0, 64, 43
1, 10549, Note_on_c, 0, 48, 52
1, 10559, Control_c, 0, 64, 69
1, 10574, Control_c, 0, 64, 77
1, 10593, Note_off_c, 0, 55, 57
1, 10597, Control_c, 0, 64, 90
1, 10610, Note_off_c, 0, 36, 55
1, 10612, Control_c, 0, 64, 115
1, 10626, Control_c, 0, 64, 127
1, 10630, Note_off_c, 0, 48, 50
1, 10633, Note_off_c, 0, 60, 57
1, 10653, Note_off_c, 0, 64, 64
1, 11144, Control_c, 0, 64, 87
1, 11152, Note_on_c, 0, 76, 71
1, 11159, Note_on_c, 0, 64, 64
1, 11159, Control_c, 0, 64, 63
1, 11161, Note_on_c, 0, 72, 65
1, 11167, Note_on_c, 0, 52, 57
1, 11170, Note_on_c, 0, 55, 52
1, 11174, Note_on_c, 0, 60, 36
1, 11174, Control_c, 0, 64, 0
1, 11191, Note_off_c, 0, 72, 63
1, 11193, Note_off_c, 0, 64, 62
1, 11195, Note_off_c, 0, 55, 60
1, 11201, Note_off_c, 0, 60, 34
1, 11206, Note_off_c, 0, 52, 63
1, 11215, Note_off_c, 0, 76, 61
1, 11504, Note_on_c, 0, 76, 66
1, 11511, Note_on_c, 0, 65, 55
1, 11514, Note_on_c, 0, 72, 56
1, 11523, Control_c, 0, 64, 52
1, 11525, Note_on_c, 0, 38, 57
1, 11535, Note_on_c, 0, 50, 45
1, 11538, Control_c, 0, 64, 68
1, 11553, Control_c, 0, 64, 79
1, 11555, Note_off_c, 0, 65, 63
1, 11556, Note_off_c, 0, 38, 65
1, 11564, Note_off_c, 0, 76, 64
1, 11567, Control_c, 0, 64, 104
1, 11570, Note_off_c, 0, 72, 61
1, 11573, Note_off_c, 0, 50, 62
1, 11582, Control_c, 0, 64, 127
1, 11855, Note_on_c, 0, 50, 51
1, 11863, Note_on_c, 0, 59, 43
1, 11867, Note_on_c, 0, 53, 50
1, 11885, Note_off_c, 0, 50, 63
1, 11888, Note_off_c, 0, 59, 52
1, 11895, Note_off_c, 0, 53, 62
1, 11957, Note_on_c, 0, 74, 61
1, 11961, Note_on_c, 0, 71, 64
1, 11965, Note_on_c, 0, 65, 58
1, 11987, Note_off_c, 0, 74, 65
1, 11992, Note_off_c, 0, 71, 64
1, 11997, Control_c, 0, 64, 87
1, 11999, Note_off_c, 0, 65, 61
1, 12011, Control_c, 0, 64, 64
1, 12026, Control_c, 0, 64, 30
1, 12041, Control_c, 0, 64, 0
1, 12059, Note_on_c, 0, 74, 68
1, 12071, Note_on_c, 0, 71, 64
1, 12074, Note_on_c, 0, 65, 58
1, 12097, Note_off_c, 0, 74, 61
1, 12100, Note_off_c, 0, 71, 65
1, 12112, Note_off_c, 0, 65, 65
1, 12154, Note_on_c, 0, 72, 73
1, 12160, Note_on_c, 0, 69, 68
1, 12187, Note_off_c, 0, 69, 66
1, 12192, Note_off_c, 0, 72, 59
1, 12248, Note_on_c, 0, 72, 65
1, 12259, Note_on_c, 0, 69, 67
1, 12271, Note_on_c, 0, 40, 67
1, 12272, Control_c, 0, 64, 28
1, 12274, Note_on_c, 0, 64, 56
1, 12277, Note_on_c, 0, 52, 63
1, 12287, Control_c, 0, 64, 69
1, 12296, Note_off_c, 0, 69, 60
1, 12300, Note_off_c, 0, 40, 66
1, 12302, Control_c, 0, 64, 94
1, 12303, Note_off_c, 0, 72, 60
1, 12305, Note_off_c, 0, 52, 63
1, 12305, Note_off_c, 0, 64, 62
1, 12316, Control_c, 0, 64, 127
1, 12494, Control_c, 0, 64, 75
1, 12498, Note_on_c, 0, 72, 69
1, 12504, Note_on_c, 0, 69, 66
1, 12505, Note_on_c, 0, 52, 66
1, 12506, Note_on_c, 0, 64, 61
1, 12508, Control_c, 0, 64, 32
1, 12509, Note_on_c, 0, 60, 58
1, 12523, Note_on_c, 0, 57, 40
1, 12523, Note_off_c, 0, 52, 64
1, 12523, Control_c, 0, 64, 0
1, 12526, Note_off_c, 0, 69, 65
1, 12527, Note_off_c, 0, 72, 64
1, 12529, Note_off_c, 0, 60, 63
1, 12530, Note_off_c, 0, 64, 60
1, 12553, Note_off_c, 0, 57, 34
1, 12744, Note_on_c, 0, 69, 55
1, 12744, Note_on_c, 0, 72, 56
1, 12752, Note_on_c, 0, 52, 60
1, 12753, Note_on_c, 0, 64, 55
1, 12753, Note_on_c, 0, 60, 39
1, 12753, Note_on_c, 0, 57, 49
1, 12771, Note_off_c, 0, 69, 67
1, 12776, Note_off_c, 0, 60, 36
1, 12778, Note_off_c, 0, 57, 60
1, 12780, Note_off_c, 0, 52, 65
1, 12783, Note_off_c, 0, 72, 62
1, 12792, Note_off_c, 0, 64, 59
1, 12995, Note_on_c, 0, 71, 67
1, 12999, Note_on_c, 0, 64, 58
1, 13003, Note_on_c, 0, 68, 64
1, 13005, Control_c, 0, 64, 49
1, 13011, Note_on_c, 0, 40, 56
1, 13015, Note_on_c, 0, 52, 47
1, 13020, Control_c, 0, 64, 65
1, 13024, Note_off_c, 0, 71, 67
1, 13028, Note_off_c, 0, 64, 67
1, 13028, Note_off_c, 0, 68, 69
1, 13035, Control_c, 0, 64, 72
1, 13042, Note_off_c, 0, 40, 62
1, 13046, Note_off_c, 0, 52, 58
1, 13050, Control_c, 0, 64, 80
1, 13064, Control_c, 0, 64, 95
1, 13079, Control_c, 0, 64, 127
1, 13282, Note_on_c, 0, 52, 57
1, 13283, Note_on_c, 0, 71, 70
1, 13297, Note_on_c, 0, 62, 46
1, 13300, Note_on_c, 0, 64, 58
1, 13302, Control_c, 0, 64, 94
1, 13302, Note_on_c, 0, 68, 56
1, 13305, Note_on_c, 0, 59, 47
1, 13314, Note_off_c, 0, 71, 60
1, 13316, Control_c, 0, 64, 67
1, 13317, Note_off_c, 0, 52, 61
1, 13320, Note_off_c, 0, 68, 66
1, 13325, Note_off_c, 0, 62, 58
1, 13328, Note_off_c, 0, 64, 63
1, 13330, Note_off_c, 0, 59, 58
1, 13331, Control_c, 0, 64, 39
1, 13346, Control_c, 0, 64, 0
1, 13381, Note_on_c, 0, 72, 67
1, 13388, Note_on_c, 0, 68, 56
1, 13406, Note_on_c, 0, 64, 56
1, 13416, Note_off_c, 0, 68, 67
1, 13424, Note_off_c, 0, 72, 59
1, 13428, Note_off_c, 0, 64, 64
1, 13486, Note_on_c, 0, 52, 53
1, 13488, Note_on_c, 0, 59, 39
1, 13488, Note_on_c, 0, 71, 66
1, 13491, Note_on_c, 0, 62, 12
1, 13492, Note_on_c, 0, 68, 55
1, 13504, Note_on_c, 0, 64, 62
1, 13509, Note_off_c, 0, 62, 44
1, 13514, Note_off_c, 0, 68, 63
1, 13514, Note_off_c, 0, 59, 60
1, 13514, Note_off_c, 0, 71, 66
1, 13528, Note_off_c, 0, 52, 62
1, 13535, Note_off_c, 0, 64, 65
1, 13784, Control_c, 0, 64, 32
1, 13788, Note_on_c, 0, 69, 49
1, 13795, Note_on_c, 0, 64, 46
1, 13796, Note_on_c, 0, 60, 41
1, 13799, Note_on_c, 0, 45, 40
1, 13799, Control_c, 0, 64, 53
1, 13813, Control_c, 0, 64, 63
1, 13821, Note_on_c, 0, 52, 36
1, 13821, Note_on_c, 0, 57, 34
1, 13828, Control_c, 0, 64, 70
1, 13843, Control_c, 0, 64, 79
1, 13858, Control_c, 0, 64, 95
1, 13873, Control_c, 0, 64, 127
1, 13878, Note_off_c, 0, 57, 58
1, 13934, Note_off_c, 0, 60, 49
1, 13950, Note_off_c, 0, 69, 57
1, 13982, Note_off_c, 0, 64, 61
1, 14014, Note_off_c, 0, 52, 34
1, 14026, Note_off_c, 0, 45, 57
1, 14273, Control_c, 0, 64, 108
1, 14287, Control_c, 0, 64, 75
1, 14302, Control_c, 0, 64, 53
1, 14317, Control_c, 0, 64, 0
1, 14430, Note_on_c, 0, 57, 84
1, 14434, Note_on_c, 0, 33, 71
1, 14437, Note_on_c, 0, 45, 69
1, 14479, Note_off_c, 0, 33, 62
1, 14489, Note_off_c, 0, 45, 61
1, 14527, Note_off_c, 0, 57, 58
1, 14756, Note_on_c, 0, 60, 90
1, 14771, Note_on_c, 0, 36, 70
1, 14772, Note_on_c, 0, 48, 69
1, 14785, Control_c, 0, 64, 62
1, 14800, Control_c, 0, 64, 75
1, 14815, Control_c, 0, 64, 89
1, 14829, Control_c, 0, 64, 127
1, 14913, Note_off_c, 0, 60, 59
1, 14942, Note_off_c, 0, 48, 52
1, 14958, Note_off_c, 0, 36, 53
1, 15222, Note_on_c, 0, 59, 82
1, 15236, Note_on_c, 0, 35, 68
1, 15238, Note_on_c, 0, 47, 61
1, 15266, Control_c, 0, 64, 124
1, 15272, Note_off_c, 0, 35, 61
1, 15272, Note_off_c, 0, 47, 65
1, 15272, Note_off_c, 0, 59, 64
1, 15281, Control_c, 0, 64, 83
1, 15296, Control_c, 0, 64, 63
1, 15311, Control_c, 0, 64, 33
1, 15326, Control_c, 0, 64, 0
1, 15331, Note_on_c, 0, 59, 80
1, 15341, Note_on_c, 0, 35, 72
1, 15352, Note_on_c, 0, 47, 52
1, 15376, Note_off_c, 0, 35, 66
1, 15380, Note_off_c, 0, 47, 37
1, 15385, Note_off_c, 0, 59, 64
1, 15427, Note_on_c, 0, 57, 84
1, 15442, Note_on_c, 0, 45, 67
1, 15442, Note_on_c, 0, 33, 78
1, 15472, Note_off_c, 0, 45, 65
1, 15476, Note_off_c, 0, 57, 64
1, 15478, Note_off_c, 0, 33, 67
1, 15525, Note_on_c, 0, 57, 80
1, 15534, Control_c, 0, 64, 17
1, 15540, Note_on_c, 0, 33, 80
1, 15542, Note_on_c, 0, 45, 75
1, 15549, Control_c, 0, 64, 68
1, 15564, Control_c, 0, 64, 90
1, 15570, Note_off_c, 0, 33, 61
1, 15571, Note_off_c, 0, 57, 64
1, 15575, Note_off_c, 0, 45, 66
1, 15578, Control_c, 0, 64, 113
1, 15593, Control_c, 0, 64, 127
1, 15754, Note_on_c, 0, 57, 86
1, 15761, Note_on_c, 0, 33, 69
1, 15767, Note_on_c, 0, 45, 70
1, 15785, Control_c, 0, 64, 79
1, 15797, Note_off_c, 0, 57, 64
1, 15800, Control_c, 0, 64, 55
1, 15804, Note_off_c, 0, 45, 61
1, 15808, Note_off_c, 0, 33, 61
1, 15815, Control_c, 0, 64, 0
1, 16014, Note_on_c, 0, 57, 87
1, 16016, Note_on_c, 0, 33, 70
1, 16019, Note_on_c, 0, 45, 73
1, 16049, Note_off_c, 0, 45, 65
1, 16056, Note_off_c, 0, 33, 65
1, 16072, Note_off_c, 0, 57, 64
1, 16274, Note_on_c, 0, 69, 84
1, 16277, Note_on_c, 0, 57, 84
1, 16280, Note_on_c, 0, 65, 76
1, 16282, Note_on_c, 0, 60, 72
1, 16297, Note_on_c, 0, 29, 76
1, 16297, Control_c, 0, 64, 23
1, 16301, Note_on_c, 0, 41, 69
1, 16307, Note_off_c, 0, 57, 64
1, 16308, Note_off_c, 0, 60, 67
1, 16312, Control_c, 0, 64, 72
1, 16321, Note_off_c, 0, 65, 60
1, 16324, Note_off_c, 0, 29, 65
1, 16327, Control_c, 0, 64, 92
1, 16330, Note_off_c, 0, 41, 66
1, 16342, Control_c, 0, 64, 127
1, 16345, Note_off_c, 0, 69, 57
1, 16558, Note_on_c, 0, 57, 87
1, 16560, Note_on_c, 0, 69, 85
1, 16562, Note_on_c, 0, 65, 78
1, 16563, Note_on_c, 0, 60, 80
1, 16564, Note_on_c, 0, 33, 77
1, 16564, Control_c, 0, 64, 92
1, 16568, Note_on_c, 0, 45, 78
1, 16587, Control_c, 0, 64, 61
1, 16601, Control_c, 0, 64, 0
1, 16603, Note_off_c, 0, 45, 64
1, 16607, Note_off_c, 0, 57, 62
1, 16607, Note_off_c, 0, 60, 63
1, 16609, Note_off_c, 0, 65, 65
1, 16610, Note_off_c, 0, 69, 58
1, 16617, Note_off_c, 0, 33, 59
1, 16847, Note_on_c, 0, 69, 87
1, 16852, Note_on_c, 0, 57, 79
1, 16853, Note_on_c, 0, 60, 76
1, 16855, Note_on_c, 0, 29, 73
1, 16855, Note_on_c, 0, 65, 73
1, 16861, Note_on_c, 0, 41, 64
1, 16892, Note_off_c, 0, 29, 64
1, 16896, Note_off_c, 0, 69, 64
1, 16897, Note_off_c, 0, 41, 65
1, 16907, Note_off_c, 0, 65, 60
1, 16913, Note_off_c, 0, 60, 57
1, 16916, Note_off_c, 0, 57, 50
1, 17190, Note_on_c, 0, 67, 81
1, 17195, Note_on_c, 0, 64, 72
1, 17195, Note_on_c, 0, 55, 69
1, 17204, Note_on_c, 0, 60, 63
1, 17209, Note_on_c, 0, 36, 65
1, 17209, Control_c, 0, 64, 43
1, 17224, Control_c, 0, 64, 63
1, 17227, Note_on_c, 0, 48, 43
1, 17238, Control_c, 0, 64, 70
1, 17246, Note_off_c, 0, 36, 62
1, 17253, Control_c, 0, 64, 81
1, 17257, Note_off_c, 0, 48, 35
1, 17268, Control_c, 0, 64, 107
1, 17273, Note_off_c, 0, 55, 39
1, 17282, Control_c, 0, 64, 127
1, 17350, Note_off_c, 0, 67, 62
1, 17354, Note_off_c, 0, 64, 62
1, 17368, Note_off_c, 0, 60, 37
1, 17765, Control_c, 0, 64, 114
1, 17779, Control_c, 0, 64, 89
1, 17794, Control_c, 0, 64, 74
1, 17809, Control_c, 0, 64, 64
1, 17824, Control_c, 0, 64, 56
1, 17839, Control_c, 0, 64, 48
1, 17853, Control_c, 0, 64, 39
1, 17868, Control_c, 0, 64, 30
1, 17883, Control_c, 0, 64, 13
1, 17898, Control_c, 0, 64, 0
1, 17976, Note_on_c, 0, 79, 62
1, 17987, Control_c, 0, 64, 33
1, 18002, Note_on_c, 0, 67, 41
1, 18002, Control_c, 0, 64, 56
1, 18012, Note_on_c, 0, 52, 40
1, 18012, Note_on_c, 0, 60, 18
1, 18017, Control_c, 0, 64, 65
1, 18025, Note_on_c, 0, 55, 21
1, 18032, Note_off_c, 0, 60, 48
1, 18032, Note_off_c, 0, 67, 57
1, 18032, Control_c, 0, 64, 69
1, 18043, Note_off_c, 0, 79, 56
1, 18044, Note_off_c, 0, 52, 63
1, 18046, Control_c, 0, 64, 74
1, 18050, Note_off_c, 0, 55, 44
1, 18061, Control_c, 0, 64, 83
1, 18083, Control_c, 0, 64, 96
1, 18098, Control_c, 0, 64, 111
1, 18113, Control_c, 0, 64, 127
1, 18335, Control_c, 0, 64, 105
1, 18350, Control_c, 0, 64, 79
1, 18365, Control_c, 0, 64, 61
1, 18379, Control_c, 0, 64, 37
1, 18389, Note_on_c, 0, 79, 68
1, 18394, Control_c, 0, 64, 12
1, 18399, Note_on_c, 0, 67, 51
1, 18409, Control_c, 0, 64, 26
1, 18413, Note_on_c, 0, 38, 43
1, 18424, Control_c, 0, 64, 50
1, 18425, Note_on_c, 0, 50, 40
1, 18426, Note_on_c, 0, 76, 43
1, 18439, Control_c, 0, 64, 65
1, 18443, Note_off_c, 0, 67, 61
1, 18454, Control_c, 0, 64, 74
1, 18455, Note_off_c, 0, 38, 63
1, 18460, Note_off_c, 0, 76, 55
1, 18468, Note_off_c, 0, 79, 61
1, 18469, Control_c, 0, 64, 85
1, 18472, Note_off_c, 0, 50, 61
1, 18484, Control_c, 0, 64, 103
1, 18498, Control_c, 0, 64, 127
1, 18748, Note_on_c, 0, 50, 49
1, 18756, Note_on_c, 0, 59, 41
1, 18760, Note_on_c, 0, 53, 50
1, 18784, Note_off_c, 0, 59, 61
1, 18785, Note_off_c, 0, 50, 62
1, 18796, Note_off_c, 0, 53, 64
1, 18867, Note_on_c, 0, 77, 60
1, 18876, Note_on_c, 0, 65, 54
1, 18879, Note_on_c, 0, 74, 54
1, 18894, Note_off_c, 0, 77, 67
1, 18911, Note_off_c, 0, 65, 62
1, 18912, Note_off_c, 0, 74, 65
1, 18964, Note_on_c, 0, 77, 67
1, 18989, Note_on_c, 0, 65, 57
1, 18996, Note_off_c, 0, 77, 61
1, 18996, Control_c, 0, 64, 91
1, 19001, Note_on_c, 0, 74, 38
1, 19010, Note_off_c, 0, 65, 61
1, 19010, Control_c, 0, 64, 69
1, 19025, Control_c, 0, 64, 43
1, 19026, Note_off_c, 0, 74, 50
1, 19040, Control_c, 0, 64, 0
1, 19066, Note_on_c, 0, 76, 67
1, 19072, Note_on_c, 0, 72, 60
1, 19079, Note_on_c, 0, 64, 61
1, 19093, Note_off_c, 0, 76, 63
1, 19099, Note_off_c, 0, 72, 67
1, 19114, Note_off_c, 0, 64, 61
1, 19165, Note_on_c, 0, 76, 79
1, 19166, Note_on_c, 0, 72, 72
1, 19171, Note_on_c, 0, 64, 59
1, 19174, Control_c, 0, 64, 10
1, 19183, Note_on_c, 0, 40, 61
1, 19188, Note_off_c, 0, 76, 65
1, 19189, Control_c, 0, 64, 59
1, 19189, Note_off_c, 0, 72, 67
1, 19192, Note_on_c, 0, 52, 54
1, 19203, Control_c, 0, 64, 76
1, 19206, Note_off_c, 0, 64, 64
1, 19214, Note_off_c, 0, 52, 57
1, 19216, Note_off_c, 0, 40, 64
1, 19218, Control_c, 0, 64, 102
1, 19233, Control_c, 0, 64, 127
1, 19412, Control_c, 0, 64, 89
1, 19417, Note_on_c, 0, 76, 68
1, 19420, Note_on_c, 0, 52, 60
1, 19421, Note_on_c, 0, 72, 64
1, 19422, Note_on_c, 0, 64, 63
1, 19422, Note_on_c, 0, 69, 67
1, 19426, Control_c, 0, 64, 60
1, 19427, Note_on_c, 0, 57, 59
1, 19431, Note_on_c, 0, 60, 52
1, 19441, Note_off_c, 0, 72, 65
1, 19441, Control_c, 0, 64, 0
1, 19448, Note_off_c, 0, 69, 69
1, 19449, Note_off_c, 0, 57, 61
1, 19454, Note_off_c, 0, 52, 63
1, 19454, Note_off_c, 0, 60, 55
1, 19458, Note_off_c, 0, 64, 58
1, 19469, Note_off_c, 0, 76, 48
1, 19662, Note_on_c, 0, 76, 64
1, 19669, Note_on_c, 0, 60, 36
1, 19674, Note_on_c, 0, 52, 56
1, 19675, Note_on_c, 0, 64, 56
1, 19678, Note_on_c, 0, 69, 59
1, 19683, Note_on_c, 0, 57, 44
1, 19690, Note_on_c, 0, 72, 53
1, 19691, Note_off_c, 0, 60, 56
1, 19696, Note_off_c, 0, 64, 64
1, 19703, Note_off_c, 0, 69, 68
1, 19709, Note_off_c, 0, 57, 57
1, 19710, Note_off_c, 0, 72, 63
1, 19710, Note_off_c, 0, 76, 62
1, 19716, Note_off_c, 0, 52, 64
1, 19938, Control_c, 0, 64, 8
1, 19946, Note_on_c, 0, 80, 57
1, 19952, Control_c, 0, 64, 49
1, 19955, Note_on_c, 0, 76, 55
1, 19956, Note_on_c, 0, 40, 53
1, 19957, Note_on_c, 0, 68, 49
1, 19967, Control_c, 0, 64, 63
1, 19976, Note_on_c, 0, 52, 43
1, 19982, Control_c, 0, 64, 69
1, 19988, Note_off_c, 0, 80, 54
1, 19990, Note_off_c, 0, 40, 65
1, 19991, Note_off_c, 0, 68, 66
1, 19991, Note_off_c, 0, 76, 61
1, 19995, Note_on_c, 0, 71, 15
1, 19997, Control_c, 0, 64, 78
1, 20002, Note_off_c, 0, 52, 60
1, 20012, Control_c, 0, 64, 96
1, 20027, Control_c, 0, 64, 127
1, 20038, Note_off_c, 0, 71, 34
1, 20214, Note_on_c, 0, 80, 56
1, 20220, Control_c, 0, 64, 113
1, 20223, Note_on_c, 0, 68, 55
1, 20232, Note_on_c, 0, 52, 49
1, 20232, Note_on_c, 0, 71, 51
1, 20234, Note_on_c, 0, 76, 49
1, 20235, Control_c, 0, 64, 75
1, 20241, Note_on_c, 0, 62, 42
1, 20245, Note_off_c, 0, 80, 63
1, 20249, Note_on_c, 0, 59, 41
1, 20250, Control_c, 0, 64, 56
1, 20256, Note_off_c, 0, 76, 61
1, 20257, Note_off_c, 0, 52, 61
1, 20257, Note_off_c, 0, 71, 63
1, 20261, Note_off_c, 0, 68, 56
1, 20265, Control_c, 0, 64, 0
1, 20268, Note_off_c, 0, 62, 50
1, 20275, Note_off_c, 0, 59, 50
1, 20334, Note_on_c, 0, 68, 49
1, 20336, Note_on_c, 0, 80, 56
1, 20348, Note_on_c, 0, 76, 54
1, 20348, Note_on_c, 0, 71, 52
1, 20356, Note_off_c, 0, 80, 61
1, 20369, Note_off_c, 0, 76, 62
1, 20371, Note_off_c, 0, 71, 62
1, 20377, Note_off_c, 0, 68, 58
1, 20422, Note_on_c, 0, 80, 65
1, 20430, Note_on_c, 0, 68, 54
1, 20435, Note_on_c, 0, 62, 21
1, 20437, Note_on_c, 0, 59, 37
1, 20442, Note_on_c, 0, 52, 41
1, 20452, Note_off_c, 0, 62, 52
1, 20456, Note_on_c, 0, 71, 53
1, 20462, Note_on_c, 0, 76, 43
1, 20465, Note_off_c, 0, 59, 57
1, 20477, Note_off_c, 0, 71, 63
1, 20483, Note_off_c, 0, 52, 63
1, 20488, Note_off_c, 0, 76, 50
1, 20494, Note_off_c, 0, 80, 54
1, 20497, Note_off_c, 0, 68, 58
1, 20700, Control_c, 0, 64, 10
1, 20715, Control_c, 0, 64, 42
1, 20719, Note_on_c, 0, 81, 54
1, 20730, Control_c, 0, 64, 57
1, 20737, Note_on_c, 0, 45, 44
1, 20739, Note_on_c, 0, 72, 39
1, 20739, Note_on_c, 0, 76, 41
1, 20745, Note_on_c, 0, 69, 30
1, 20745, Control_c, 0, 64, 64
1, 20760, Control_c, 0, 64, 67
1, 20775, Control_c, 0, 64, 72
1, 20775, Note_off_c, 0, 45, 64
1, 20777, Note_off_c, 0, 76, 49
1, 20778, Note_off_c, 0, 69, 51
1, 20780, Note_off_c, 0, 72, 51
1, 20790, Control_c, 0, 64, 82
1, 20796, Note_off_c, 0, 81, 60
1, 20805, Control_c, 0, 64, 97
1, 20819, Control_c, 0, 64, 127
1, 21144, Note_on_c, 0, 52, 36
1, 21149, Note_on_c, 0, 60, 36
1, 21151, Note_on_c, 0, 57, 36
1, 21183, Note_off_c, 0, 52, 63
1, 21185, Note_off_c, 0, 57, 63
1, 21185, Note_off_c, 0, 60, 65
1, 21346, Control_c, 0, 64, 124
1, 21361, Control_c, 0, 64, 78
1, 21375, Control_c, 0, 64, 60
1, 21390, Control_c, 0, 64, 34
1, 21405, Control_c, 0, 64, 0
1, 21478, Note_on_c, 0, 81, 66
1, 21491, Note_on_c, 0, 69, 52
1, 21495, Control_c, 0, 64, 36
1, 21510, Control_c, 0, 64, 59
1, 21524, Control_c, 0, 64, 70
1, 21529, Note_off_c, 0, 69, 63
1, 21539, Control_c, 0, 64, 79
1, 21554, Control_c, 0, 64, 96
1, 21558, Note_off_c, 0, 81, 61
1, 21569, Control_c, 0, 64, 127
1, 21777, Control_c, 0, 64, 119
1, 21791, Control_c, 0, 64, 76
1, 21803, Note_on_c, 0, 84, 80
1, 21806, Control_c, 0, 64, 56
1, 21827, Note_on_c, 0, 72, 63
1, 21829, Control_c, 0, 64, 34
1, 21839, Note_on_c, 0, 38, 47
1, 21844, Control_c, 0, 64, 39
1, 21848, Note_on_c, 0, 50, 43
1, 21859, Control_c, 0, 64, 57
1, 21873, Note_off_c, 0, 38, 64
1, 21873, Control_c, 0, 64, 75
1, 21888, Control_c, 0, 64, 97
1, 21893, Note_off_c, 0, 50, 61
1, 21903, Control_c, 0, 64, 127
1, 22006, Note_off_c, 0, 72, 58
1, 22011, Note_off_c, 0, 84, 63
1, 22184, Note_on_c, 0, 50, 42
1, 22185, Note_on_c, 0, 60, 47
1, 22198, Note_on_c, 0, 57, 48
1, 22220, Note_off_c, 0, 60, 64
1, 22238, Note_off_c, 0, 57, 62
1, 22272, Note_off_c, 0, 50, 59
1, 22295, Note_on_c, 0, 83, 74
1, 22304, Note_on_c, 0, 71, 66
1, 22322, Note_off_c, 0, 83, 64
1, 22329, Note_off_c, 0, 71, 68
1, 22398, Note_on_c, 0, 71, 79
1, 22400, Note_on_c, 0, 83, 66
1, 22418, Note_off_c, 0, 83, 66
1, 22421, Note_off_c, 0, 71, 66
1, 22476, Note_on_c, 0, 81, 27
1, 22497, Note_on_c, 0, 69, 78
1, 22510, Control_c, 0, 64, 83
1, 22513, Note_off_c, 0, 81, 65
1, 22518, Note_off_c, 0, 69, 70
1, 22525, Control_c, 0, 64, 56
1, 22539, Control_c, 0, 64, 0
1, 22608, Control_c, 0, 64, 47
1, 22609, Note_on_c, 0, 39, 69
1, 22615, Note_on_c, 0, 51, 69
1, 22617, Note_on_c, 0, 75, 80
1, 22619, Note_on_c, 0, 63, 82
1, 22622, Control_c, 0, 64, 69
1, 22637, Control_c, 0, 64, 94
1, 22638, Note_off_c, 0, 63, 70
1, 22641, Note_off_c, 0, 39, 64
1, 22647, Note_off_c, 0, 51, 64
1, 22647, Note_off_c, 0, 75, 62
1, 22652, Control_c, 0, 64, 127
1, 22721, Note_on_c, 0, 63, 5
1, 22771, Note_off_c, 0, 63, 27
1, 22870, Note_on_c, 0, 75, 83
1, 22876, Note_on_c, 0, 63, 74
1, 22888, Note_on_c, 0, 51, 58
1, 22889, Control_c, 0, 64, 87
1, 22891, Note_on_c, 0, 57, 60
1, 22891, Note_on_c, 0, 60, 58
1, 22903, Control_c, 0, 64, 57
1, 22913, Note_off_c, 0, 63, 64
1, 22918, Control_c, 0, 64, 0
1, 22922, Note_off_c, 0, 75, 61
1, 23109, Note_on_c, 0, 75, 82
1, 23118, Note_on_c, 0, 63, 70
1, 23136, Note_off_c, 0, 63, 67
1, 23141, Note_off_c, 0, 60, 64
1, 23141, Note_off_c, 0, 57, 61
1, 23148, Note_off_c, 0, 75, 63
1, 23158, Note_on_c, 0, 76, 26
1, 23192, Note_off_c, 0, 76, 33
1, 23194, Note_off_c, 0, 51, 63
1, 23350, Note_on_c, 0, 84, 85
1, 23356, Note_on_c, 0, 72, 87
1, 23356, Control_c, 0, 64, 40
1, 23358, Note_on_c, 0, 40, 77
1, 23362, Note_on_c, 0, 52, 70
1, 23371, Control_c, 0, 64, 74
1, 23383, Note_off_c, 0, 40, 64
1, 23386, Control_c, 0, 64, 88
1, 23391, Note_off_c, 0, 52, 65
1, 23401, Control_c, 0, 64, 127
1, 23401, Note_off_c, 0, 72, 61
1, 23412, Note_off_c, 0, 84, 64
1, 23646, Note_on_c, 0, 52, 65
1, 23649, Note_on_c, 0, 60, 66
1, 23659, Note_on_c, 0, 57, 67
1, 23686, Note_off_c, 0, 60, 59
1, 23721, Note_off_c, 0, 57, 62
1, 23738, Note_off_c, 0, 52, 61
1, 23756, Note_on_c, 0, 83, 79
1, 23762, Note_on_c, 0, 71, 81
1, 23793, Note_off_c, 0, 71, 62
1, 23794, Note_off_c, 0, 83, 63
1, 23848, Note_on_c, 0, 83, 77
1, 23855, Note_on_c, 0, 71, 82
1, 23888, Note_off_c, 0, 83, 64
1, 23895, Note_off_c, 0, 71, 64
1, 23937, Note_on_c, 0, 81, 92
1, 23943, Note_on_c, 0, 69, 86
1, 23949, Control_c, 0, 64, 73
1, 23963, Control_c, 0, 64, 37
1, 23970, Note_off_c, 0, 81, 65
1, 23978, Note_off_c, 0, 69, 63
1, 23978, Control_c, 0, 64, 0
1, 24036, Note_on_c, 0, 77, 89
1, 24038, Note_on_c, 0, 41, 81
1, 24040, Note_on_c, 0, 53, 85
1, 24045, Note_on_c, 0, 65, 83
1, 24052, Control_c, 0, 64, 64
1, 24069, Note_off_c, 0, 77, 67
1, 24074, Note_off_c, 0, 65, 70
1, 24075, Control_c, 0, 64, 89
1, 24079, Note_off_c, 0, 41, 66
1, 24089, Control_c, 0, 64, 127
1, 24090, Note_off_c, 0, 53, 63
1, 24293, Note_on_c, 0, 77, 90
1, 24296, Note_on_c, 0, 60, 70
1, 24298, Note_on_c, 0, 65, 84
1, 24298, Control_c, 0, 64, 89
1, 24301, Note_on_c, 0, 57, 69
1, 24304, Note_on_c, 0, 53, 65
1, 24313, Control_c, 0, 64, 47
1, 24328, Control_c, 0, 64, 0
1, 24343, Note_off_c, 0, 65, 61
1, 24346, Note_off_c, 0, 77, 60
1, 24520, Note_on_c, 0, 77, 86
1, 24524, Note_on_c, 0, 65, 83
1, 24542, Note_off_c, 0, 60, 63
1, 24557, Note_off_c, 0, 57, 61
1, 24559, Note_off_c, 0, 65, 65
1, 24572, Note_off_c, 0, 77, 64
1, 24584, Note_off_c, 0, 53, 62
1, 24763, Note_on_c, 0, 84, 92
1, 24766, Note_on_c, 0, 72, 90
1, 24768, Note_on_c, 0, 42, 83
1, 24769, Note_on_c, 0, 54, 88
1, 24786, Control_c, 0, 64, 56
1, 24798, Note_off_c, 0, 54, 65
1, 24801, Note_off_c, 0, 42, 65
1, 24801, Control_c, 0, 64, 97
1, 24822, Note_off_c, 0, 72, 64
1, 24823, Control_c, 0, 64, 127
1, 24832, Note_off_c, 0, 84, 65
1, 25078, Note_on_c, 0, 54, 76
1, 25080, Note_on_c, 0, 63, 72
1, 25093, Note_on_c, 0, 60, 63
1, 25119, Note_off_c, 0, 63, 58
1, 25151, Note_off_c, 0, 60, 62
1, 25195, Note_off_c, 0, 54, 61
1, 25196, Note_on_c, 0, 83, 82
1, 25198, Note_on_c, 0, 71, 86
1, 25229, Note_off_c, 0, 83, 61
1, 25239, Note_off_c, 0, 71, 65
1, 25286, Note_on_c, 0, 83, 83
1, 25294, Note_on_c, 0, 71, 82
1, 25327, Note_off_c, 0, 83, 65
1, 25332, Note_off_c, 0, 71, 67
1, 25380, Note_on_c, 0, 81, 96
1, 25386, Note_on_c, 0, 69, 90
1, 25402, Control_c, 0, 64, 72
1, 25416, Note_off_c, 0, 81, 66
1, 25416, Control_c, 0, 64, 28
1, 25420, Note_off_c, 0, 69, 69
1, 25431, Control_c, 0, 64, 0
1, 25475, Note_on_c, 0, 79, 93
1, 25480, Note_on_c, 0, 43, 81
1, 25483, Note_on_c, 0, 55, 89
1, 25483, Note_on_c, 0, 67, 90
1, 25505, Control_c, 0, 64, 58
1, 25506, Note_on_c, 0, 73, 40
1, 25514, Note_off_c, 0, 79, 63
1, 25515, Note_off_c, 0, 67, 65
1, 25517, Note_off_c, 0, 43, 65
1, 25520, Control_c, 0, 64, 85
1, 25534, Note_off_c, 0, 55, 65
1, 25535, Note_off_c, 0, 73, 48
1, 25535, Control_c, 0, 64, 127
1, 25735, Note_on_c, 0, 79, 87
1, 25738, Note_on_c, 0, 67, 88
1, 25740, Note_on_c, 0, 55, 79
1, 25741, Note_on_c, 0, 64, 79
1, 25749, Note_on_c, 0, 60, 77
1, 25763, Note_off_c, 0, 64, 70
1, 25786, Note_on_c, 0, 73, 24
1, 25786, Note_off_c, 0, 60, 64
1, 25797, Note_off_c, 0, 67, 62
1, 25801, Note_off_c, 0, 55, 64
1, 25803, Note_off_c, 0, 79, 58
1, 25823, Note_off_c, 0, 73, 39
1, 25971, Note_on_c, 0, 79, 93
1, 25973, Note_on_c, 0, 67, 88
1, 26000, Note_off_c, 0, 67, 64
1, 26022, Note_off_c, 0, 79, 65
1, 26179, Control_c, 0, 64, 74
1, 26194, Control_c, 0, 64, 36
1, 26209, Control_c, 0, 64, 0
1, 26230, Note_on_c, 0, 43, 77
1, 26231, Note_on_c, 0, 55, 79
1, 26239, Note_on_c, 0, 76, 88
1, 26253, Note_on_c, 0, 88, 63
1, 26254, Control_c, 0, 64, 42
1, 26255, Note_on_c, 0, 89, 66
1, 26269, Note_off_c, 0, 76, 64
1, 26269, Control_c, 0, 64, 72
1, 26271, Note_off_c, 0, 89, 66
1, 26274, Note_off_c, 0, 88, 65
1, 26276, Note_off_c, 0, 43, 65
1, 26280, Note_off_c, 0, 55, 63
1, 26283, Control_c, 0, 64, 97
1, 26298, Control_c, 0, 64, 127
1, 26519, Note_on_c, 0, 55, 78
1, 26522, Note_on_c, 0, 62, 73
1, 26523, Note_on_c, 0, 65, 77
1, 26524, Note_on_c, 0, 59, 74
1, 26550, Note_off_c, 0, 65, 65
1, 26551, Note_on_c, 0, 89, 48
1, 26566, Note_off_c, 0, 55, 60
1, 26567, Note_off_c, 0, 62, 63
1, 26570, Note_off_c, 0, 59, 58
1, 26573, Note_off_c, 0, 89, 55
1, 26755, Note_on_c, 0, 55, 76
1, 26766, Note_on_c, 0, 65, 84
1, 26770, Note_on_c, 0, 62, 79
1, 26771, Note_on_c, 0, 59, 73
1, 26782, Note_off_c, 0, 55, 66
1, 26791, Note_off_c, 0, 65, 66
1, 26802, Note_off_c, 0, 59, 59
1, 26806, Note_off_c, 0, 62, 60
1, 26850, Poly_aftertouch_c, 0, 80, 127
1, 26886, Poly_aftertouch_c, 0, 80, 0
1, 26943, Control_c, 0, 64, 103
1, 26958, Control_c, 0, 64, 65
1, 26973, Control_c, 0, 64, 12
1, 26987, Control_c, 0, 64, 0
1, 27041, Note_on_c, 0, 88, 80
1, 27041, Note_on_c, 0, 83, 84
1, 27045, Note_on_c, 0, 56, 75
1, 27047, Note_on_c, 0, 76, 80
1, 27051, Note_on_c, 0, 64, 82
1, 27052, Note_on_c, 0, 74, 79
1, 27055, Note_on_c, 0, 62, 64
1, 27066, Note_on_c, 0, 59, 58
1, 27069, Control_c, 0, 64, 52
1, 27073, Note_off_c, 0, 56, 68
1, 27074, Note_off_c, 0, 83, 64
1, 27075, Note_off_c, 0, 88, 61
1, 27076, Note_off_c, 0, 76, 68
1, 27079, Note_off_c, 0, 64, 70
1, 27079, Note_off_c, 0, 74, 71
1, 27084, Control_c, 0, 64, 78
1, 27086, Note_off_c, 0, 59, 62
1, 27088, Note_off_c, 0, 62, 66
1, 27099, Control_c, 0, 64, 112
1, 27114, Control_c, 0, 64, 127
1, 27425, Control_c, 0, 64, 77
1, 27440, Control_c, 0, 64, 45
1, 27455, Control_c, 0, 64, 0
1, 27657, Note_on_c, 0, 84, 87
1, 27661, Note_on_c, 0, 72, 89
1, 27662, Note_on_c, 0, 81, 83
1, 27663, Note_on_c, 0, 76, 91
1, 27672, Note_on_c, 0, 44, 81
1, 27673, Note_on_c, 0, 32, 84
1, 27676, Control_c, 0, 64, 44
1, 27691, Control_c, 0, 64, 76
1, 27696, Note_off_c, 0, 72, 65
1, 27702, Note_off_c, 0, 44, 65
1, 27702, Note_on_c, 0, 45, 45
1, 27702, Note_off_c, 0, 84, 65
1, 27705, Note_off_c, 0, 32, 67
1, 27706, Control_c, 0, 64, 93
1, 27721, Control_c, 0, 64, 127
1, 27728, Note_off_c, 0, 45, 50
1, 27739, Note_off_c, 0, 81, 56
1, 27770, Note_off_c, 0, 76, 30
1, 28036, Note_on_c, 0, 33, 86
1, 28037, Note_on_c, 0, 45, 87
1, 28039, Control_c, 0, 64, 66
1, 28045, Note_on_c, 0, 40, 83
1, 28054, Control_c, 0, 64, 0
1, 28079, Note_on_c, 0, 76, 63
1, 28096, Note_on_c, 0, 84, 63
1, 28097, Note_on_c, 0, 81, 56
1, 28114, Control_c, 0, 64, 27
1, 28129, Control_c, 0, 64, 59
1, 28144, Note_on_c, 0, 72, 35
1, 28144, Control_c, 0, 64, 77
1, 28160, Control_c, 0, 64, 122
1, 28174, Control_c, 0, 64, 127
1, 28272, Note_off_c, 0, 84, 50
1, 28282, Note_off_c, 0, 33, 57
1, 28284, Note_off_c, 0, 72, 43
1, 28293, Note_off_c, 0, 81, 62
1, 28298, Note_off_c, 0, 45, 60
1, 28304, Note_off_c, 0, 76, 57
1, 28307, Note_off_c, 0, 40, 62
1, 28487, Note_on_c, 0, 35, 78
1, 28492, Note_on_c, 0, 47, 67
1, 28494, Note_on_c, 0, 83, 84
1, 28498, Note_on_c, 0, 71, 80
1, 28519, Note_off_c, 0, 35, 63
1, 28522, Note_off_c, 0, 47, 66
1, 28535, Note_off_c, 0, 83, 64
1, 28540, Note_off_c, 0, 71, 64
1, 28582, Control_c, 0, 64, 95
1, 28595, Note_on_c, 0, 35, 80
1, 28597, Control_c, 0, 64, 68
1, 28600, Note_on_c, 0, 47, 81
1, 28600, Note_on_c, 0, 83, 78
1, 28612, Control_c, 0, 64, 35
1, 28613, Note_on_c, 0, 71, 75
1, 28626, Control_c, 0, 64, 0
1, 28632, Note_off_c, 0, 35, 62
1, 28635, Note_off_c, 0, 47, 65
1, 28637, Note_off_c, 0, 83, 66
1, 28642, Note_off_c, 0, 71, 63
1, 28699, Note_on_c, 0, 81, 90
1, 28705, Note_on_c, 0, 48, 78
1, 28705, Note_on_c, 0, 69, 83
1, 28708, Note_on_c, 0, 36, 69
1, 28713, Note_on_c, 0, 38, 75
1, 28728, Note_off_c, 0, 69, 68
1, 28732, Note_off_c, 0, 48, 66
1, 28734, Note_off_c, 0, 81, 66
1, 28737, Note_off_c, 0, 36, 65
1, 28740, Note_off_c, 0, 38, 66
1, 28805, Note_on_c, 0, 38, 84
1, 28808, Note_on_c, 0, 86, 91
1, 28811, Note_on_c, 0, 50, 82
1, 28812, Note_on_c, 0, 74, 91
1, 28833, Control_c, 0, 64, 68
1, 28834, Note_off_c, 0, 74, 68
1, 28837, Note_off_c, 0, 38, 65
1, 28838, Note_off_c, 0, 86, 67
1, 28842, Note_off_c, 0, 50, 70
1, 28848, Control_c, 0, 64, 86
1, 28863, Control_c, 0, 64, 94
1, 28878, Control_c, 0, 64, 111
1, 28892, Control_c, 0, 64, 127
1, 29055, Note_on_c, 0, 86, 84
1, 29056, Note_on_c, 0, 74, 86
1, 29057, Control_c, 0, 64, 92
1, 29059, Note_on_c, 0, 38, 73
1, 29059, Note_on_c, 0, 50, 77
1, 29071, Control_c, 0, 64, 68
1, 29086, Control_c, 0, 64, 0
1, 29090, Note_off_c, 0, 74, 65
1, 29091, Note_off_c, 0, 86, 64
1, 29097, Note_off_c, 0, 50, 62
1, 29106, Note_off_c, 0, 38, 59
1, 29294, Note_on_c, 0, 86, 90
1, 29296, Note_on_c, 0, 74, 88
1, 29299, Note_on_c, 0, 38, 72
1, 29301, Note_on_c, 0, 50, 73
1, 29341, Note_off_c, 0, 38, 61
1, 29348, Note_off_c, 0, 74, 64
1, 29357, Note_off_c, 0, 86, 60
1, 29368, Note_off_c, 0, 50, 59
1, 29555, Note_on_c, 0, 88, 92
1, 29560, Note_on_c, 0, 76, 91
1, 29560, Note_on_c, 0, 80, 87
1, 29560, Note_on_c, 0, 83, 85
1, 29563, Note_on_c, 0, 40, 71
1, 29563, Note_on_c, 0, 52, 79
1, 29568, Note_on_c, 0, 47, 74
1, 29569, Note_on_c, 0, 44, 71
1, 29582, Control_c, 0, 64, 68
1, 29586, Note_off_c, 0, 52, 66
1, 29592, Note_off_c, 0, 40, 65
1, 29592, Note_off_c, 0, 80, 64
1, 29592, Note_off_c, 0, 88, 65
1, 29595, Note_off_c, 0, 47, 66
1, 29595, Note_off_c, 0, 83, 62
1, 29597, Note_off_c, 0, 44, 64
1, 29597, Note_off_c, 0, 76, 59
1, 29597, Control_c, 0, 64, 97
1, 29612, Control_c, 0, 64, 114
1, 29627, Control_c, 0, 64, 127
1, 29824, Note_on_c, 0, 88, 96
1, 29825, Note_on_c, 0, 83, 85
1, 29828, Note_on_c, 0, 76, 88
1, 29828, Note_on_c, 0, 80, 90
1, 29828, Note_on_c, 0, 40, 76
1, 29831, Note_on_c, 0, 52, 80
1, 29834, Note_on_c, 0, 44, 81
1, 29835, Control_c, 0, 64, 83
1, 29837, Note_on_c, 0, 47, 80
1, 29850, Control_c, 0, 64, 47
1, 29859, Note_off_c, 0, 52, 65
1, 29861, Note_off_c, 0, 83, 66
1, 29864, Note_off_c, 0, 40, 64
1, 29864, Control_c, 0, 64, 0
1, 29867, Note_off_c, 0, 47, 68
1, 29869, Note_off_c, 0, 88, 62
1, 29872, Note_off_c, 0, 44, 63
1, 29874, Note_off_c, 0, 76, 59
1, 29878, Note_off_c, 0, 80, 61
1, 30112, Note_on_c, 0, 88, 89
1, 30114, Note_on_c, 0, 80, 86
1, 30116, Note_on_c, 0, 52, 80
1, 30118, Note_on_c, 0, 83, 81
1, 30119, Note_on_c, 0, 40, 76
1, 30119, Note_on_c, 0, 44, 82
1, 30119, Note_on_c, 0, 76, 87
1, 30123, Note_on_c, 0, 47, 78
1, 30136, Note_off_c, 0, 52, 68
1, 30144, Note_off_c, 0, 76, 61
1, 30149, Note_off_c, 0, 47, 65
1, 30160, Note_off_c, 0, 83, 64
1, 30165, Note_off_c, 0, 80, 63
1, 30168, Note_off_c, 0, 44, 64
1, 30175, Note_off_c, 0, 88, 64
1, 30178, Note_off_c, 0, 40, 64
1, 30442, Note_on_c, 0, 93, 98
1, 30445, Note_on_c, 0, 33, 72
1, 30446, Note_on_c, 0, 81, 89
1, 30448, Note_on_c, 0, 88, 85
1, 30449, Note_on_c, 0, 45, 79
1, 30450, Note_on_c, 0, 84, 91
1, 30455, Note_on_c, 0, 40, 75
1, 30464, Control_c, 0, 64, 56
1, 30465, Note_on_c, 0, 85, 56
1, 30466, Note_off_c, 0, 33, 66
1, 30475, Note_off_c, 0, 40, 68
1, 30477, Note_off_c, 0, 81, 66
1, 30478, Note_off_c, 0, 93, 66
1, 30478, Note_off_c, 0, 45, 66
1, 30479, Control_c, 0, 64, 95
1, 30483, Note_off_c, 0, 88, 66
1, 30487, Note_off_c, 0, 85, 38
1, 30494, Control_c, 0, 64, 127
1, 30497, Note_off_c, 0, 84, 64
1, 31062, Note_on_c, 0, 64, 80
1, 31065, Control_c, 0, 64, 92
1, 31080, Control_c, 0, 64, 63
1, 31095, Control_c, 0, 64, 0
1, 31120, Note_off_c, 0, 64, 59
1, 31328, Note_on_c, 0, 76, 73
1, 31330, Note_on_c, 0, 68, 81
1, 31333, Note_on_c, 0, 74, 73
1, 31342, Note_on_c, 0, 33, 73
1, 31351, Note_on_c, 0, 45, 59
1, 31352, Note_off_c, 0, 76, 66
1, 31353, Note_on_c, 0, 47, 72
1, 31354, Note_on_c, 0, 64, 86
1, 31354, Note_on_c, 0, 40, 70
1, 31363, Note_off_c, 0, 74, 65
1, 31363, Control_c, 0, 64, 48
1, 31377, Control_c, 0, 64, 81
1, 31379, Note_off_c, 0, 68, 67
1, 31390, Note_off_c, 0, 64, 65
1, 31392, Control_c, 0, 64, 97
1, 31407, Control_c, 0, 64, 127
1, 31631, Note_on_c, 0, 64, 66
1, 31632, Note_on_c, 0, 62, 65
1, 31634, Note_on_c, 0, 56, 69
1, 31666, Control_c, 0, 64, 97
1, 31667, Note_off_c, 0, 62, 61
1, 31673, Note_off_c, 0, 56, 61
1, 31679, Note_off_c, 0, 64, 61
1, 31681, Control_c, 0, 64, 71
1, 31696, Control_c, 0, 64, 41
1, 31710, Control_c, 0, 64, 0
1, 31728, Note_on_c, 0, 65, 75
1, 31739, Note_on_c, 0, 56, 58
1, 31762, Note_on_c, 0, 62, 41
1, 31779, Note_off_c, 0, 56, 61
1, 31789, Note_off_c, 0, 65, 61
1, 31790, Note_off_c, 0, 62, 35
1, 31834, Note_off_c, 0, 33, 57
1, 31835, Note_off_c, 0, 47, 63
1, 31837, Note_off_c, 0, 45, 54
1, 31838, Note_off_c, 0, 40, 62
1, 31840, Note_on_c, 0, 64, 78
1, 31845, Note_on_c, 0, 56, 81
1, 31850, Note_on_c, 0, 62, 77
1, 31867, Note_off_c, 0, 56, 68
1, 31877, Note_off_c, 0, 62, 65
1, 31891, Note_off_c, 0, 64, 64
1, 32082, Note_on_c, 0, 76, 85
1, 32086, Note_on_c, 0, 72, 76
1, 32092, Note_on_c, 0, 69, 76
1, 32105, Note_on_c, 0, 64, 85
1, 32108, Note_on_c, 0, 33, 74
1, 32111, Note_on_c, 0, 45, 76
1, 32117, Note_on_c, 0, 40, 72
1, 32117, Note_off_c, 0, 76, 66
1, 32121, Note_off_c, 0, 72, 66
1, 32123, Note_off_c, 0, 69, 67
1, 32126, Control_c, 0, 64, 64
1, 32133, Note_off_c, 0, 64, 66
1, 32141, Control_c, 0, 64, 95
1, 32156, Control_c, 0, 64, 127
1, 32388, Note_on_c, 0, 64, 75
1, 32392, Note_on_c, 0, 60, 72
1, 32395, Note_on_c, 0, 57, 70
1, 32400, Control_c, 0, 64, 118
1, 32415, Control_c, 0, 64, 86
1, 32421, Note_off_c, 0, 60, 65
1, 32421, Note_off_c, 0, 64, 59
1, 32428, Note_off_c, 0, 57, 63
1, 32430, Control_c, 0, 64, 67
1, 32445, Control_c, 0, 64, 41
1, 32459, Control_c, 0, 64, 0
1, 32484, Note_on_c, 0, 65, 70
1, 32496, Note_on_c, 0, 60, 67
1, 32499, Note_on_c, 0, 57, 61
1, 32523, Note_off_c, 0, 60, 66
1, 32528, Note_off_c, 0, 65, 63
1, 32528, Note_off_c, 0, 57, 63
1, 32535, Note_off_c, 0, 33, 56
1, 32555, Note_off_c, 0, 40, 62
1, 32577, Note_off_c, 0, 45, 63
1, 32585, Note_on_c, 0, 64, 83
1, 32588, Note_on_c, 0, 57, 81
1, 32591, Note_on_c, 0, 60, 69
1, 32612, Note_off_c, 0, 57, 67
1, 32618, Note_off_c, 0, 60, 66
1, 32631, Note_off_c, 0, 64, 64
1, 32844, Note_on_c, 0, 71, 82
1, 32849, Note_on_c, 0, 45, 66
1, 32852, Note_on_c, 0, 64, 76
1, 32855, Note_on_c, 0, 62, 71
1, 32860, Note_on_c, 0, 56, 58
1, 32862, Note_on_c, 0, 52, 66
1, 32876, Note_off_c, 0, 64, 68
1, 32879, Note_off_c, 0, 71, 66
1, 32880, Note_off_c, 0, 62, 68
1, 32888, Note_off_c, 0, 45, 58
1, 32889, Note_off_c, 0, 56, 65
1, 32894, Note_off_c, 0, 52, 63
1, 33101, Note_on_c, 0, 45, 56
1, 33108, Note_on_c, 0, 71, 78
1, 33111, Note_on_c, 0, 64, 77
1, 33114, Note_on_c, 0, 62, 66
1, 33121, Note_on_c, 0, 56, 59
1, 33122, Note_on_c, 0, 52, 60
1, 33137, Note_off_c, 0, 64, 66
1, 33141, Note_off_c, 0, 62, 68
1, 33142, Note_off_c, 0, 71, 60
1, 33151, Note_off_c, 0, 45, 61
1, 33154, Note_off_c, 0, 56, 63
1, 33160, Note_off_c, 0, 52, 61
1, 33355, Note_on_c, 0, 45, 66
1, 33355, Note_on_c, 0, 71, 82
1, 33358, Note_on_c, 0, 64, 82
1, 33362, Note_on_c, 0, 62, 68
1, 33363, Note_on_c, 0, 56, 60
1, 33374, Note_on_c, 0, 52, 61
1, 33390, Note_off_c, 0, 64, 62
1, 33393, Note_off_c, 0, 62, 65
1, 33396, Note_off_c, 0, 71, 58
1, 33399, Note_off_c, 0, 45, 64
1, 33400, Note_off_c, 0, 56, 63
1, 33407, Note_off_c, 0, 52, 61
1, 33624, Note_on_c, 0, 72, 82
1, 33628, Note_on_c, 0, 64, 79
1, 33635, Note_on_c, 0, 60, 73
1, 33638, Note_on_c, 0, 45, 58
1, 33646, Note_on_c, 0, 57, 59
1, 33647, Note_on_c, 0, 52, 57
1, 33667, Control_c, 0, 64, 61
1, 33682, Control_c, 0, 64, 76
1, 33697, Control_c, 0, 64, 92
1, 33712, Control_c, 0, 64, 127
1, 33749, Note_off_c, 0, 57, 61
1, 33769, Note_off_c, 0, 52, 60
1, 33780, Note_off_c, 0, 45, 62
1, 33828, Note_off_c, 0, 60, 59
1, 33858, Note_off_c, 0, 72, 61
1, 33876, Note_off_c, 0, 64, 59
1, 34179, Control_c, 0, 64, 112
1, 34194, Control_c, 0, 64, 73
1, 34208, Note_on_c, 0, 64, 83
1, 34209, Control_c, 0, 64, 41
1, 34223, Control_c, 0, 64, 0
1, 34272, Note_off_c, 0, 64, 59
1, 34449, Note_on_c, 0, 76, 78
1, 34456, Note_on_c, 0, 68, 84
1, 34457, Note_on_c, 0, 74, 73
1, 34475, Note_on_c, 0, 33, 71
1, 34479, Note_on_c, 0, 47, 69
1, 34480, Note_on_c, 0, 45, 60
1, 34480, Note_on_c, 0, 64, 87
1, 34481, Note_off_c, 0, 76, 59
1, 34484, Note_on_c, 0, 40, 71
1, 34490, Control_c, 0, 64, 58
1, 34492, Note_off_c, 0, 74, 64
1, 34504, Note_off_c, 0, 68, 67
1, 34505, Control_c, 0, 64, 86
1, 34518, Note_off_c, 0, 64, 66
1, 34520, Control_c, 0, 64, 106
1, 34535, Control_c, 0, 64, 127
1, 34746, Note_on_c, 0, 64, 67
1, 34749, Note_on_c, 0, 62, 63
1, 34751, Note_on_c, 0, 56, 68
1, 34785, Note_off_c, 0, 62, 61
1, 34787, Note_off_c, 0, 56, 61
1, 34791, Note_off_c, 0, 64, 58
1, 34839, Control_c, 0, 64, 91
1, 34850, Note_on_c, 0, 65, 72
1, 34854, Control_c, 0, 64, 68
1, 34859, Note_on_c, 0, 56, 61
1, 34868, Control_c, 0, 64, 38
1, 34877, Note_on_c, 0, 62, 47
1, 34883, Control_c, 0, 64, 0
1, 34894, Note_off_c, 0, 56, 63
1, 34910, Note_off_c, 0, 62, 45
1, 34912, Note_off_c, 0, 65, 62
1, 34940, Note_off_c, 0, 33, 58
1, 34944, Note_off_c, 0, 40, 62
1, 34946, Note_off_c, 0, 47, 62
1, 34947, Note_off_c, 0, 45, 59
1, 34956, Note_on_c, 0, 64, 73
1, 34958, Note_on_c, 0, 62, 68
1, 34961, Note_on_c, 0, 56, 77
1, 34979, Note_off_c, 0, 56, 69
1, 34994, Note_off_c, 0, 62, 67
1, 35005, Note_off_c, 0, 64, 63
1, 35190, Note_on_c, 0, 76, 86
1, 35192, Note_on_c, 0, 72, 73
1, 35199, Note_on_c, 0, 69, 76
1, 35208, Note_on_c, 0, 64, 84
1, 35211, Note_on_c, 0, 33, 70
1, 35215, Note_on_c, 0, 45, 72
1, 35222, Note_on_c, 0, 40, 63
1, 35225, Note_off_c, 0, 72, 67
1, 35225, Control_c, 0, 64, 62
1, 35226, Note_off_c, 0, 69, 68
1, 35236, Note_off_c, 0, 76, 63
1, 35240, Note_off_c, 0, 64, 67
1, 35240, Control_c, 0, 64, 87
1, 35254, Control_c, 0, 64, 97
1, 35269, Control_c, 0, 64, 112
1, 35284, Control_c, 0, 64, 116
1, 35306, Control_c, 0, 64, 118
1, 35321, Control_c, 0, 64, 121
1, 35485, Control_c, 0, 64, 119
1, 35490, Note_on_c, 0, 64, 70
1, 35494, Note_on_c, 0, 60, 70
1, 35500, Note_on_c, 0, 57, 65
1, 35500, Control_c, 0, 64, 118
1, 35515, Control_c, 0, 64, 115
1, 35524, Note_off_c, 0, 60, 63
1, 35530, Note_off_c, 0, 64, 58
1, 35530, Control_c, 0, 64, 109
1, 35531, Note_off_c, 0, 57, 64
1, 35545, Control_c, 0, 64, 95
1, 35559, Control_c, 0, 64, 79
1, 35574, Control_c, 0, 64, 64
1, 35587, Note_on_c, 0, 65, 72
1, 35589, Control_c, 0, 64, 41
1, 35599, Note_on_c, 0, 57, 66
1, 35599, Note_on_c, 0, 60, 59
1, 35603, Control_c, 0, 64, 0
1, 35626, Note_off_c, 0, 33, 53
1, 35629, Note_off_c, 0, 60, 66
1, 35632, Note_off_c, 0, 65, 62
1, 35635, Note_off_c, 0, 57, 58
1, 35641, Note_off_c, 0, 40, 62
1, 35664, Note_off_c, 0, 45, 62
1, 35688, Note_on_c, 0, 57, 61
1, 35690, Note_on_c, 0, 64, 77
1, 35691, Note_on_c, 0, 60, 69
1, 35716, Note_off_c, 0, 57, 65
1, 35719, Note_off_c, 0, 60, 66
1, 35738, Note_off_c, 0, 64, 63
1, 35959, Note_on_c, 0, 45, 56
1, 35959, Note_on_c, 0, 71, 79
1, 35965, Note_on_c, 0, 62, 71
1, 35965, Note_on_c, 0, 64, 72
1, 35973, Control_c, 0, 64, 55
1, 35974, Note_on_c, 0, 52, 57
1, 35975, Note_on_c, 0, 56, 51
1, 35988, Control_c, 0, 64, 75
1, 35989, Note_off_c, 0, 64, 67
1, 35992, Note_off_c, 0, 62, 67
1, 35995, Note_off_c, 0, 71, 65
1, 35998, Note_off_c, 0, 45, 59
1, 36002, Control_c, 0, 64, 84
1, 36004, Note_off_c, 0, 56, 60
1, 36012, Note_off_c, 0, 52, 60
1, 36017, Control_c, 0, 64, 93
1, 36032, Control_c, 0, 64, 96
1, 36055, Control_c, 0, 64, 99
1, 36070, Control_c, 0, 64, 103
1, 36084, Control_c, 0, 64, 105
1, 36099, Control_c, 0, 64, 105
1, 36204, Control_c, 0, 64, 105
1, 36219, Control_c, 0, 64, 104
1, 36227, Note_on_c, 0, 45, 55
1, 36233, Control_c, 0, 64, 100
1, 36234, Note_on_c, 0, 71, 79
1, 36237, Note_on_c, 0, 56, 58
1, 36240, Note_on_c, 0, 62, 67
1, 36244, Note_on_c, 0, 64, 66
1, 36248, Control_c, 0, 64, 91
1, 36262, Note_on_c, 0, 52, 46
1, 36262, Note_off_c, 0, 71, 60
1, 36263, Note_off_c, 0, 45, 62
1, 36263, Control_c, 0, 64, 78
1, 36268, Note_off_c, 0, 64, 65
1, 36270, Note_off_c, 0, 62, 63
1, 36275, Note_off_c, 0, 56, 63
1, 36278, Control_c, 0, 64, 65
1, 36292, Note_off_c, 0, 52, 57
1, 36293, Control_c, 0, 64, 45
1, 36307, Control_c, 0, 64, 0
1, 36332, Note_on_c, 0, 69, 69
1, 36342, Note_on_c, 0, 64, 49
1, 36353, Note_on_c, 0, 62, 57
1, 36365, Note_off_c, 0, 64, 60
1, 36374, Note_off_c, 0, 69, 62
1, 36376, Note_off_c, 0, 62, 63
1, 36432, Note_on_c, 0, 45, 45
1, 36435, Note_on_c, 0, 68, 78
1, 36436, Note_on_c, 0, 59, 67
1, 36439, Note_on_c, 0, 52, 46
1, 36442, Note_on_c, 0, 62, 72
1, 36463, Note_off_c, 0, 45, 52
1, 36463, Note_off_c, 0, 59, 67
1, 36472, Note_off_c, 0, 62, 62
1, 36477, Note_off_c, 0, 52, 62
1, 36486, Note_off_c, 0, 68, 60
1, 36703, Note_on_c, 0, 69, 65
1, 36707, Control_c, 0, 64, 23
1, 36711, Note_on_c, 0, 45, 31
1, 36713, Note_on_c, 0, 60, 50
1, 36715, Note_on_c, 0, 64, 60
1, 36722, Control_c, 0, 64, 59
1, 36735, Note_on_c, 0, 57, 44
1, 36737, Note_on_c, 0, 52, 38
1, 36737, Control_c, 0, 64, 69
1, 36751, Control_c, 0, 64, 78
1, 36755, Note_off_c, 0, 60, 64
1, 36765, Note_off_c, 0, 57, 60
1, 36766, Control_c, 0, 64, 95
1, 36768, Note_off_c, 0, 64, 62
1, 36771, Note_off_c, 0, 52, 63
1, 36777, Note_off_c, 0, 45, 61
1, 36781, Control_c, 0, 64, 127
1, 36785, Note_off_c, 0, 69, 66
1, 37071, Control_c, 0, 64, 97
1, 37086, Control_c, 0, 64, 72
1, 37101, Control_c, 0, 64, 54
1, 37116, Control_c, 0, 64, 24
1, 37130, Control_c, 0, 64, 0
1, 37263, Control_c, 0, 64, 29
1, 37278, Control_c, 0, 64, 52
1, 37280, Note_on_c, 0, 81, 54
1, 37293, Control_c, 0, 64, 62
1, 37303, Note_on_c, 0, 69, 35
1, 37307, Control_c, 0, 64, 66
1, 37322, Control_c, 0, 64, 70
1, 37332, Note_off_c, 0, 69, 53
1, 37337, Control_c, 0, 64, 79
1, 37352, Control_c, 0, 64, 91
1, 37357, Note_off_c, 0, 81, 62
1, 37367, Control_c, 0, 64, 111
1, 37381, Control_c, 0, 64, 127
1, 37596, Control_c, 0, 64, 100
1, 37611, Control_c, 0, 64, 79
1, 37626, Control_c, 0, 64, 64
1, 37627, Note_on_c, 0, 84, 59
1, 37637, Note_on_c, 0, 72, 53
1, 37641, Control_c, 0, 64, 52
1, 37656, Control_c, 0, 64, 55
1, 37664, Note_on_c, 0, 38, 41
1, 37670, Control_c, 0, 64, 64
1, 37678, Note_on_c, 0, 50, 34
1, 37685, Control_c, 0, 64, 76
1, 37700, Control_c, 0, 64, 97
1, 37701, Note_off_c, 0, 38, 63
1, 37715, Control_c, 0, 64, 127
1, 37718, Note_off_c, 0, 72, 56
1, 37724, Note_off_c, 0, 50, 62
1, 37724, Note_off_c, 0, 84, 62
1, 38013, Note_on_c, 0, 50, 41
1, 38018, Note_on_c, 0, 57, 46
1, 38027, Note_on_c, 0, 60, 35
1, 38053, Note_off_c, 0, 60, 55
1, 38061, Note_off_c, 0, 57, 63
1, 38061, Note_off_c, 0, 50, 60
1, 38103, Note_on_c, 0, 83, 67
1, 38115, Note_on_c, 0, 71, 63
1, 38130, Note_off_c, 0, 83, 64
1, 38143, Note_off_c, 0, 71, 66
1, 38203, Note_on_c, 0, 83, 77
1, 38220, Note_on_c, 0, 71, 69
1, 38229, Note_off_c, 0, 83, 64
1, 38244, Note_off_c, 0, 71, 70
1, 38309, Note_on_c, 0, 81, 72
1, 38320, Note_on_c, 0, 69, 72
1, 38332, Note_off_c, 0, 81, 65
1, 38344, Note_off_c, 0, 69, 70
1, 38346, Control_c, 0, 64, 77
1, 38361, Control_c, 0, 64, 46
1, 38376, Control_c, 0, 64, 0
1, 38420, Control_c, 0, 64, 36
1, 38425, Note_on_c, 0, 75, 81
1, 38435, Control_c, 0, 64, 63
1, 38437, Note_on_c, 0, 63, 83
1, 38440, Note_on_c, 0, 39, 70
1, 38444, Note_on_c, 0, 51, 65
1, 38449, Control_c, 0, 64, 83
1, 38455, Note_off_c, 0, 75, 64
1, 38457, Note_off_c, 0, 63, 69
1, 38464, Control_c, 0, 64, 127
1, 38478, Note_off_c, 0, 39, 64
1, 38478, Note_off_c, 0, 51, 63
1, 38685, Note_on_c, 0, 63, 80
1, 38686, Note_on_c, 0, 75, 83
1, 38702, Note_on_c, 0, 51, 61
1, 38702, Note_on_c, 0, 57, 63
1, 38702, Control_c, 0, 64, 78
1, 38707, Note_on_c, 0, 60, 58
1, 38717, Control_c, 0, 64, 51
1, 38732, Note_off_c, 0, 63, 64
1, 38732, Control_c, 0, 64, 0
1, 38738, Note_off_c, 0, 75, 61
1, 38918, Note_on_c, 0, 75, 85
1, 38928, Note_on_c, 0, 63, 71
1, 38938, Note_off_c, 0, 57, 59
1, 38940, Note_off_c, 0, 60, 61
1, 38953, Note_off_c, 0, 63, 68
1, 38965, Note_off_c, 0, 75, 64
1, 39000, Note_off_c, 0, 51, 62
1, 39173, Note_on_c, 0, 84, 91
1, 39179, Note_on_c, 0, 72, 84
1, 39185, Note_on_c, 0, 40, 76
1, 39185, Note_on_c, 0, 52, 77
1, 39199, Control_c, 0, 64, 67
1, 39214, Control_c, 0, 64, 97
1, 39220, Note_off_c, 0, 40, 63
1, 39227, Note_off_c, 0, 52, 63
1, 39228, Control_c, 0, 64, 127
1, 39234, Note_off_c, 0, 72, 63
1, 39247, Note_off_c, 0, 84, 63
1, 39492, Note_on_c, 0, 60, 67
1, 39492, Note_on_c, 0, 52, 67
1, 39498, Note_on_c, 0, 57, 70
1, 39529, Note_off_c, 0, 60, 59
1, 39562, Note_off_c, 0, 57, 62
1, 39591, Note_off_c, 0, 52, 62
1, 39606, Note_on_c, 0, 83, 78
1, 39611, Note_on_c, 0, 71, 79
1, 39641, Note_off_c, 0, 83, 62
1, 39645, Note_off_c, 0, 71, 62
1, 39697, Note_on_c, 0, 83, 79
1, 39706, Note_on_c, 0, 71, 79
1, 39738, Note_off_c, 0, 83, 66
1, 39742, Note_off_c, 0, 71, 65
1, 39799, Note_on_c, 0, 81, 91
1, 39799, Control_c, 0, 64, 75
1, 39808, Note_on_c, 0, 69, 87
1, 39814, Control_c, 0, 64, 42
1, 39829, Control_c, 0, 64, 0
1, 39834, Note_off_c, 0, 69, 68
1, 39836, Note_off_c, 0, 81, 63
1, 39900, Note_on_c, 0, 41, 72
1, 39902, Note_on_c, 0, 77, 89
1, 39902, Control_c, 0, 64, 20
1, 39905, Note_on_c, 0, 53, 86
1, 39912, Note_on_c, 0, 65, 82
1, 39917, Control_c, 0, 64, 71
1, 39930, Note_off_c, 0, 77, 67
1, 39931, Note_off_c, 0, 65, 70
1, 39932, Control_c, 0, 64, 109
1, 39933, Note_off_c, 0, 41, 68
1, 39944, Note_on_c, 0, 70, 30
1, 39947, Control_c, 0, 64, 127
1, 39954, Note_off_c, 0, 53, 65
1, 39978, Note_off_c, 0, 70, 44
1, 40160, Note_on_c, 0, 77, 85
1, 40165, Note_on_c, 0, 65, 79
1, 40166, Note_on_c, 0, 60, 73
1, 40170, Control_c, 0, 64, 113
1, 40171, Note_on_c, 0, 57, 70
1, 40174, Note_on_c, 0, 53, 64
1, 40185, Control_c, 0, 64, 67
1, 40199, Control_c, 0, 64, 16
1, 40214, Control_c, 0, 64, 0
1, 40225, Note_off_c, 0, 65, 60
1, 40231, Note_off_c, 0, 77, 62
1, 40387, Note_off_c, 0, 60, 61
1, 40400, Note_on_c, 0, 77, 87
1, 40403, Note_on_c, 0, 65, 82
1, 40404, Note_off_c, 0, 57, 59
1, 40434, Note_off_c, 0, 53, 62
1, 40437, Note_off_c, 0, 65, 64
1, 40455, Note_off_c, 0, 77, 65
1, 40648, Note_on_c, 0, 84, 93
1, 40654, Note_on_c, 0, 72, 91
1, 40654, Note_on_c, 0, 42, 82
1, 40657, Note_on_c, 0, 54, 88
1, 40666, Control_c, 0, 64, 44
1, 40681, Control_c, 0, 64, 88
1, 40689, Note_off_c, 0, 42, 67
1, 40690, Note_off_c, 0, 54, 63
1, 40693, Note_off_c, 0, 72, 64
1, 40696, Control_c, 0, 64, 127
1, 40706, Note_off_c, 0, 84, 65
1, 40941, Note_on_c, 0, 54, 76
1, 40947, Note_on_c, 0, 63, 71
1, 40957, Note_on_c, 0, 60, 64
1, 40976, Note_off_c, 0, 63, 63
1, 41003, Note_off_c, 0, 60, 60
1, 41047, Note_off_c, 0, 54, 57
1, 41063, Note_on_c, 0, 83, 84
1, 41066, Note_on_c, 0, 71, 83
1, 41101, Note_off_c, 0, 83, 62
1, 41106, Note_off_c, 0, 71, 64
1, 41159, Note_on_c, 0, 83, 72
1, 41166, Note_on_c, 0, 71, 81
1, 41173, Note_on_c, 0, 81, 68
1, 41191, Note_off_c, 0, 81, 53
1, 41196, Note_off_c, 0, 83, 63
1, 41203, Note_off_c, 0, 71, 67
1, 41252, Note_on_c, 0, 81, 82
1, 41259, Control_c, 0, 64, 95
1, 41264, Note_on_c, 0, 69, 86
1, 41274, Control_c, 0, 64, 62
1, 41296, Control_c, 0, 64, 0
1, 41301, Note_off_c, 0, 81, 63
1, 41306, Note_off_c, 0, 69, 66
1, 41365, Note_on_c, 0, 43, 81
1, 41365, Note_on_c, 0, 79, 91
1, 41367, Note_on_c, 0, 55, 91
1, 41372, Note_on_c, 0, 67, 93
1, 41385, Control_c, 0, 64, 60
1, 41400, Control_c, 0, 64, 90
1, 41404, Note_off_c, 0, 43, 65
1, 41407, Note_off_c, 0, 79, 64
1, 41410, Note_off_c, 0, 67, 64
1, 41414, Control_c, 0, 64, 127
1, 41420, Note_off_c, 0, 55, 66
1, 41610, Note_on_c, 0, 79, 87
1, 41614, Note_on_c, 0, 64, 73
1, 41614, Note_on_c, 0, 67, 89
1, 41615, Note_on_c, 0, 55, 76
1, 41621, Note_on_c, 0, 60, 72
1, 41643, Note_off_c, 0, 64, 66
1, 41648, Note_on_c, 0, 73, 40
1, 41665, Note_off_c, 0, 60, 65
1, 41674, Note_off_c, 0, 67, 57
1, 41678, Note_off_c, 0, 73, 46
1, 41686, Note_off_c, 0, 55, 62
1, 41689, Note_off_c, 0, 79, 56
1, 41850, Note_on_c, 0, 67, 88
1, 41850, Note_on_c, 0, 79, 95
1, 41872, Note_off_c, 0, 67, 67
1, 41895, Note_off_c, 0, 79, 66
1, 42074, Control_c, 0, 64, 117
1, 42089, Control_c, 0, 64, 67
1, 42103, Control_c, 0, 64, 0
1, 42136, Note_on_c, 0, 43, 78
1, 42139, Note_on_c, 0, 55, 87
1, 42141, Note_on_c, 0, 89, 101
1, 42142, Note_on_c, 0, 77, 97
1, 42163, Control_c, 0, 64, 62
1, 42170, Note_off_c, 0, 43, 66
1, 42178, Control_c, 0, 64, 83
1, 42190, Note_off_c, 0, 55, 64
1, 42193, Control_c, 0, 64, 127
1, 42276, Note_off_c, 0, 77, 51
1, 42297, Note_off_c, 0, 89, 47
1, 42426, Note_on_c, 0, 89, 91
1, 42428, Note_on_c, 0, 77, 88
1, 42431, Note_on_c, 0, 55, 71
1, 42431, Note_on_c, 0, 83, 89
1, 42435, Note_on_c, 0, 65, 75
1, 42438, Note_on_c, 0, 62, 72
1, 42439, Note_on_c, 0, 59, 68
1, 42467, Note_off_c, 0, 65, 62
1, 42471, Note_off_c, 0, 77, 67
1, 42478, Note_off_c, 0, 59, 58
1, 42480, Note_off_c, 0, 62, 57
1, 42480, Note_off_c, 0, 89, 63
1, 42486, Note_off_c, 0, 55, 50
1, 42488, Note_off_c, 0, 83, 64
1, 42727, Note_on_c, 0, 55, 75
1, 42730, Note_on_c, 0, 83, 96
1, 42731, Note_on_c, 0, 89, 100
1, 42734, Note_on_c, 0, 77, 90
1, 42735, Note_on_c, 0, 65, 77
1, 42741, Note_on_c, 0, 59, 70
1, 42741, Note_on_c, 0, 62, 71
1, 42741, Control_c, 0, 64, 87
1, 42756, Control_c, 0, 64, 52
1, 42770, Note_off_c, 0, 55, 61
1, 42771, Control_c, 0, 64, 0
1, 42774, Note_off_c, 0, 65, 62
1, 42796, Note_off_c, 0, 59, 59
1, 42805, Note_off_c, 0, 89, 57
1, 42807, Note_off_c, 0, 62, 59
1, 42809, Note_off_c, 0, 77, 53
1, 42816, Note_off_c, 0, 83, 61
1, 43066, Note_on_c, 0, 88, 94
1, 43069, Note_on_c, 0, 76, 96
1, 43070, Note_on_c, 0, 83, 94
1, 43072, Note_on_c, 0, 56, 73
1, 43078, Note_on_c, 0, 64, 78
1, 43084, Note_on_c, 0, 62, 67
1, 43085, Note_on_c, 0, 59, 69
1, 43090, Control_c, 0, 64, 60
1, 43098, Note_off_c, 0, 56, 66
1, 43105, Control_c, 0, 64, 90
1, 43109, Note_off_c, 0, 64, 66
1, 43110, Note_off_c, 0, 59, 67
1, 43117, Note_off_c, 0, 62, 62
1, 43119, Control_c, 0, 64, 127
1, 43140, Note_off_c, 0, 76, 52
1, 43157, Note_off_c, 0, 88, 59
1, 43220, Note_off_c, 0, 83, 59
1, 43505, Control_c, 0, 64, 72
1, 43520, Control_c, 0, 64, 35
1, 43542, Control_c, 0, 64, 0
1, 43758, Note_on_c, 0, 86, 93
1, 43760, Note_on_c, 0, 76, 89
1, 43762, Note_on_c, 0, 83, 82
1, 43763, Note_on_c, 0, 74, 88
1, 43778, Note_on_c, 0, 32, 82
1, 43778, Note_on_c, 0, 44, 84
1, 43793, Control_c, 0, 64, 60
1, 43808, Control_c, 0, 64, 90
1, 43814, Note_off_c, 0, 86, 66
1, 43823, Note_off_c, 0, 44, 60
1, 43823, Control_c, 0, 64, 127
1, 43829, Note_off_c, 0, 74, 61
1, 43831, Note_off_c, 0, 83, 62
1, 43834, Note_off_c, 0, 76, 45
1, 43835, Note_off_c, 0, 32, 62
1, 44151, Control_c, 0, 64, 74
1, 44156, Note_on_c, 0, 84, 89
1, 44157, Note_on_c, 0, 72, 90
1, 44157, Note_on_c, 0, 81, 90
1, 44158, Note_on_c, 0, 76, 90
1, 44165, Control_c, 0, 64, 24
1, 44166, Note_on_c, 0, 33, 75
1, 44166, Note_on_c, 0, 45, 79
1, 44175, Note_on_c, 0, 40, 71
1, 44180, Control_c, 0, 64, 0
1, 44254, Control_c, 0, 64, 60
1, 44269, Control_c, 0, 64, 86
1, 44291, Control_c, 0, 64, 127
1, 44368, Note_off_c, 0, 84, 55
1, 44377, Note_off_c, 0, 72, 56
1, 44390, Note_off_c, 0, 45, 60
1, 44397, Note_off_c, 0, 33, 35
1, 44398, Note_off_c, 0, 40, 61
1, 44400, Note_off_c, 0, 81, 60
1, 44401, Note_off_c, 0, 76, 56
1, 44657, Note_on_c, 0, 83, 84
1, 44658, Note_on_c, 0, 71, 86
1, 44661, Note_on_c, 0, 35, 75
1, 44661, Note_on_c, 0, 47, 71
1, 44701, Note_off_c, 0, 47, 62
1, 44702, Note_off_c, 0, 35, 63
1, 44707, Note_off_c, 0, 71, 65
1, 44709, Note_off_c, 0, 83, 64
1, 44783, Note_on_c, 0, 35, 76
1, 44783, Note_on_c, 0, 47, 70
1, 44784, Note_on_c, 0, 83, 82
1, 44786, Note_on_c, 0, 71, 83
1, 44795, Control_c, 0, 64, 114
1, 44810, Control_c, 0, 64, 75
1, 44813, Note_off_c, 0, 35, 66
1, 44819, Note_off_c, 0, 47, 63
1, 44823, Note_off_c, 0, 83, 65
1, 44825, Control_c, 0, 64, 49
1, 44828, Note_off_c, 0, 71, 67
1, 44840, Control_c, 0, 64, 0
1, 44881, Note_on_c, 0, 36, 56
1, 44884, Note_on_c, 0, 81, 89
1, 44886, Note_on_c, 0, 69, 84
1, 44888, Note_on_c, 0, 48, 77
1, 44926, Note_off_c, 0, 69, 64
1, 44927, Note_off_c, 0, 48, 60
1, 44929, Note_off_c, 0, 36, 62
1, 44932, Note_off_c, 0, 81, 65
1, 44999, Note_on_c, 0, 86, 94
1, 45000, Note_on_c, 0, 38, 83
1, 45001, Note_on_c, 0, 74, 92
1, 45006, Note_on_c, 0, 50, 79
1, 45018, Control_c, 0, 64, 51
1, 45029, Note_off_c, 0, 74, 68
1, 45039, Note_off_c, 0, 86, 66
1, 45040, Control_c, 0, 64, 88
1, 45044, Note_on_c, 0, 80, 32
1, 45049, Note_off_c, 0, 50, 65
1, 45055, Control_c, 0, 64, 127
1, 45056, Note_off_c, 0, 38, 61
1, 45078, Note_off_c, 0, 80, 45
1, 45256, Note_on_c, 0, 86, 86
1, 45258, Note_on_c, 0, 74, 92
1, 45260, Note_on_c, 0, 38, 75
1, 45261, Note_on_c, 0, 50, 76
1, 45263, Control_c, 0, 64, 97
1, 45278, Control_c, 0, 64, 61
1, 45293, Control_c, 0, 64, 0
1, 45300, Note_off_c, 0, 74, 65
1, 45305, Note_off_c, 0, 50, 61
1, 45306, Note_off_c, 0, 38, 61
1, 45307, Note_off_c, 0, 86, 59
1, 45513, Note_on_c, 0, 38, 70
1, 45514, Note_on_c, 0, 74, 89
1, 45515, Note_on_c, 0, 86, 87
1, 45518, Note_on_c, 0, 50, 76
1, 45552, Note_off_c, 0, 38, 65
1, 45558, Note_off_c, 0, 50, 62
1, 45566, Note_off_c, 0, 74, 61
1, 45576, Note_off_c, 0, 86, 57
1, 45778, Note_on_c, 0, 88, 93
1, 45787, Note_on_c, 0, 40, 76
1, 45787, Note_on_c, 0, 76, 94
1, 45787, Note_on_c, 0, 83, 87
1, 45789, Note_on_c, 0, 52, 80
1, 45789, Note_on_c, 0, 80, 89
1, 45796, Note_on_c, 0, 44, 73
1, 45798, Note_on_c, 0, 47, 68
1, 45804, Control_c, 0, 64, 46
1, 45819, Control_c, 0, 64, 88
1, 45821, Note_off_c, 0, 52, 64
1, 45826, Note_off_c, 0, 40, 61
1, 45827, Note_off_c, 0, 44, 65
1, 45829, Note_off_c, 0, 76, 60
1, 45833, Note_off_c, 0, 47, 64
1, 45834, Control_c, 0, 64, 127
1, 45835, Note_off_c, 0, 88, 61
1, 45850, Note_off_c, 0, 83, 54
1, 45881, Note_off_c, 0, 80, 47
1, 46068, Note_on_c, 0, 88, 97
1, 46069, Note_on_c, 0, 80, 87
1, 46069, Note_on_c, 0, 83, 88
1, 46070, Note_on_c, 0, 40, 77
1, 46071, Control_c, 0, 64, 105
1, 46074, Note_on_c, 0, 52, 82
1, 46074, Note_on_c, 0, 76, 93
1, 46077, Note_on_c, 0, 44, 76
1, 46080, Note_on_c, 0, 47, 78
1, 46086, Control_c, 0, 64, 66
1, 46100, Control_c, 0, 64, 0
1, 46108, Note_off_c, 0, 40, 67
1, 46113, Note_off_c, 0, 52, 65
1, 46117, Note_off_c, 0, 76, 59
1, 46124, Note_off_c, 0, 47, 61
1, 46125, Note_off_c, 0, 88, 57
1, 46130, Note_off_c, 0, 44, 63
1, 46138, Note_off_c, 0, 83, 54
1, 46166, Note_off_c, 0, 80, 56
1, 46366, Note_on_c, 0, 52, 82
1, 46366, Note_on_c, 0, 88, 94
1, 46367, Note_on_c, 0, 80, 91
1, 46368, Note_on_c, 0, 83, 89
1, 46369, Note_on_c, 0, 76, 93
1, 46369, Note_on_c, 0, 40, 75
1, 46372, Note_on_c, 0, 44, 80
1, 46374, Note_on_c, 0, 47, 76
1, 46390, Note_off_c, 0, 52, 67
1, 46399, Note_off_c, 0, 76, 65
1, 46405, Note_off_c, 0, 47, 66
1, 46409, Note_off_c, 0, 40, 64
1, 46423, Note_off_c, 0, 44, 63
1, 46435, Note_off_c, 0, 83, 58
1, 46437, Note_off_c, 0, 80, 63
1, 46455, Note_off_c, 0, 88, 58
1, 46721, Note_on_c, 0, 84, 88
1, 46722, Note_on_c, 0, 93, 94
1, 46723, Note_on_c, 0, 33, 75
1, 46723, Note_on_c, 0, 81, 88
1, 46724, Note_on_c, 0, 88, 84
1, 46728, Note_on_c, 0, 45, 79
1, 46730, Control_c, 0, 64, 52
1, 46733, Note_on_c, 0, 40, 74
1, 46744, Control_c, 0, 64, 83
1, 46749, Note_off_c, 0, 33, 65
1, 46759, Control_c, 0, 64, 127
1, 46760, Note_off_c, 0, 45, 64
1, 46765, Note_off_c, 0, 40, 64
1, 46781, Note_off_c, 0, 81, 63
1, 46785, Note_off_c, 0, 93, 64
1, 46807, Note_off_c, 0, 88, 63
1, 46816, Note_off_c, 0, 84, 62
1, 47285, Note_on_c, 0, 64, 82
1, 47285, Control_c, 0, 64, 103
1, 47300, Control_c, 0, 64, 66
1, 47316, Control_c, 0, 64, 0
1, 47342, Note_off_c, 0, 64, 60
1, 47545, Note_on_c, 0, 76, 77
1, 47549, Note_on_c, 0, 68, 85
1, 47551, Note_on_c, 0, 74, 75
1, 47561, Note_on_c, 0, 33, 70
1, 47568, Note_off_c, 0, 76, 63
1, 47571, Note_on_c, 0, 47, 66
1, 47572, Note_on_c, 0, 40, 67
1, 47573, Note_on_c, 0, 45, 55
1, 47575, Note_on_c, 0, 64, 86
1, 47582, Note_off_c, 0, 74, 66
1, 47582, Control_c, 0, 64, 55
1, 47597, Control_c, 0, 64, 83
1, 47603, Note_off_c, 0, 68, 66
1, 47609, Note_off_c, 0, 64, 67
1, 47612, Control_c, 0, 64, 99
1, 47627, Control_c, 0, 64, 127
1, 47844, Note_on_c, 0, 64, 66
1, 47847, Note_on_c, 0, 62, 68
1, 47849, Note_on_c, 0, 56, 67
1, 47875, Note_off_c, 0, 64, 61
1, 47885, Note_off_c, 0, 62, 59
1, 47893, Control_c, 0, 64, 88
1, 47907, Note_off_c, 0, 56, 61
1, 47908, Control_c, 0, 64, 62
1, 47923, Control_c, 0, 64, 0
1, 47946, Note_on_c, 0, 65, 73
1, 47958, Note_on_c, 0, 56, 46
1, 47981, Note_on_c, 0, 62, 37
1, 48002, Note_off_c, 0, 56, 64
1, 48008, Note_off_c, 0, 65, 61
1, 48013, Note_off_c, 0, 62, 33
1, 48053, Note_off_c, 0, 33, 58
1, 48063, Note_on_c, 0, 64, 82
1, 48065, Note_on_c, 0, 56, 74
1, 48068, Note_on_c, 0, 62, 75
1, 48068, Note_off_c, 0, 47, 59
1, 48071, Note_off_c, 0, 45, 52
1, 48074, Note_off_c, 0, 40, 60
1, 48094, Note_off_c, 0, 56, 69
1, 48112, Note_off_c, 0, 62, 59
1, 48119, Note_off_c, 0, 64, 65
1, 48308, Note_on_c, 0, 76, 87
1, 48314, Note_on_c, 0, 72, 80
1, 48317, Note_on_c, 0, 69, 81
1, 48329, Note_on_c, 0, 64, 85
1, 48330, Note_on_c, 0, 33, 69
1, 48330, Note_on_c, 0, 45, 71
1, 48339, Note_on_c, 0, 40, 65
1, 48346, Control_c, 0, 64, 71
1, 48348, Note_off_c, 0, 72, 66
1, 48350, Note_off_c, 0, 69, 67
1, 48352, Note_off_c, 0, 76, 60
1, 48361, Control_c, 0, 64, 96
1, 48365, Note_off_c, 0, 64, 66
1, 48377, Control_c, 0, 64, 127
1, 48604, Note_on_c, 0, 64, 71
1, 48611, Note_on_c, 0, 60, 66
1, 48612, Note_on_c, 0, 57, 70
1, 48613, Control_c, 0, 64, 98
1, 48628, Control_c, 0, 64, 71
1, 48641, Note_off_c, 0, 60, 65
1, 48643, Control_c, 0, 64, 48
1, 48646, Note_off_c, 0, 57, 62
1, 48658, Control_c, 0, 64, 0
1, 48658, Note_off_c, 0, 64, 61
1, 48706, Note_on_c, 0, 65, 72
1, 48716, Note_on_c, 0, 57, 56
1, 48717, Note_on_c, 0, 60, 68
1, 48746, Note_off_c, 0, 60, 65
1, 48753, Note_off_c, 0, 57, 62
1, 48756, Note_off_c, 0, 65, 62
1, 48804, Note_off_c, 0, 33, 60
1, 48810, Note_off_c, 0, 40, 61
1, 48816, Note_on_c, 0, 64, 81
1, 48819, Note_on_c, 0, 57, 76
1, 48823, Note_on_c, 0, 60, 75
1, 48829, Note_off_c, 0, 45, 62
1, 48845, Note_off_c, 0, 57, 66
1, 48846, Note_off_c, 0, 60, 67
1, 48865, Note_off_c, 0, 64, 66
1, 49082, Note_on_c, 0, 71, 78
1, 49091, Note_on_c, 0, 45, 59
1, 49093, Note_on_c, 0, 64, 67
1, 49094, Note_on_c, 0, 62, 69
1, 49100, Note_on_c, 0, 56, 56
1, 49107, Note_on_c, 0, 52, 57
1, 49117, Note_off_c, 0, 64, 68
1, 49120, Note_off_c, 0, 62, 68
1, 49123, Note_off_c, 0, 71, 63
1, 49126, Note_off_c, 0, 45, 61
1, 49132, Note_off_c, 0, 56, 65
1, 49136, Note_off_c, 0, 52, 64
1, 49329, Note_on_c, 0, 45, 54
1, 49335, Note_on_c, 0, 71, 80
1, 49338, Note_on_c, 0, 64, 77
1, 49341, Note_on_c, 0, 62, 68
1, 49343, Note_on_c, 0, 56, 47
1, 49351, Note_on_c, 0, 52, 58
1, 49363, Note_off_c, 0, 64, 67
1, 49367, Note_off_c, 0, 62, 67
1, 49369, Note_off_c, 0, 71, 66
1, 49377, Note_off_c, 0, 45, 58
1, 49382, Note_off_c, 0, 56, 62
1, 49388, Note_off_c, 0, 52, 60
1, 49585, Note_on_c, 0, 45, 54
1, 49592, Note_on_c, 0, 71, 80
1, 49599, Note_on_c, 0, 62, 67
1, 49599, Note_on_c, 0, 64, 76
1, 49603, Note_on_c, 0, 56, 53
1, 49607, Note_on_c, 0, 52, 45
1, 49627, Note_off_c, 0, 64, 62
1, 49630, Note_off_c, 0, 71, 63
1, 49633, Note_off_c, 0, 45, 60
1, 49634, Note_off_c, 0, 62, 63
1, 49642, Note_off_c, 0, 56, 61
1, 49645, Note_off_c, 0, 52, 63
1, 49859, Note_on_c, 0, 72, 82
1, 49865, Note_on_c, 0, 64, 75
1, 49866, Note_on_c, 0, 60, 70
1, 49872, Note_on_c, 0, 45, 50
1, 49874, Control_c, 0, 64, 42
1, 49880, Note_on_c, 0, 57, 52
1, 49884, Note_on_c, 0, 52, 52
1, 49889, Control_c, 0, 64, 66
1, 49903, Control_c, 0, 64, 79
1, 49918, Control_c, 0, 64, 100
1, 49919, Note_off_c, 0, 52, 63
1, 49924, Note_off_c, 0, 57, 62
1, 49931, Note_off_c, 0, 45, 60
1, 49933, Control_c, 0, 64, 127
1, 49993, Note_off_c, 0, 60, 59
1, 50017, Note_off_c, 0, 72, 61
1, 50032, Note_off_c, 0, 64, 58
1, 50384, Control_c, 0, 64, 86
1, 50399, Control_c, 0, 64, 63
1, 50410, Note_on_c, 0, 64, 73
1, 50414, Control_c, 0, 64, 12
1, 50429, Control_c, 0, 64, 0
1, 50476, Note_off_c, 0, 64, 59
1, 50661, Note_on_c, 0, 76, 75
1, 50667, Note_on_c, 0, 74, 74
1, 50667, Note_on_c, 0, 68, 82
1, 50685, Note_on_c, 0, 33, 71
1, 50688, Note_on_c, 0, 45, 67
1, 50688, Note_on_c, 0, 47, 67
1, 50688, Note_off_c, 0, 76, 61
1, 50694, Note_on_c, 0, 64, 85
1, 50696, Note_on_c, 0, 40, 64
1, 50696, Control_c, 0, 64, 56
1, 50702, Note_off_c, 0, 74, 66
1, 50711, Control_c, 0, 64, 83
1, 50715, Note_off_c, 0, 68, 67
1, 50726, Control_c, 0, 64, 100
1, 50730, Note_off_c, 0, 64, 65
1, 50741, Control_c, 0, 64, 127
1, 50946, Note_on_c, 0, 56, 70
1, 50946, Note_on_c, 0, 62, 67
1, 50947, Note_on_c, 0, 64, 68
1, 50975, Note_off_c, 0, 64, 65
1, 50980, Note_off_c, 0, 62, 62
1, 50983, Note_off_c, 0, 56, 60
1, 51044, Control_c, 0, 64, 89
1, 51046, Note_on_c, 0, 65, 73
1, 51057, Note_on_c, 0, 56, 55
1, 51059, Control_c, 0, 64, 67
1, 51067, Note_on_c, 0, 62, 56
1, 51074, Control_c, 0, 64, 36
1, 51089, Note_off_c, 0, 62, 56
1, 51089, Control_c, 0, 64, 0
1, 51094, Note_off_c, 0, 56, 60
1, 51106, Note_off_c, 0, 65, 62
1, 51150, Note_on_c, 0, 56, 62
1, 51150, Note_on_c, 0, 64, 75
1, 51153, Note_on_c, 0, 62, 69
1, 51175, Note_off_c, 0, 56, 67
1, 51179, Note_off_c, 0, 33, 52
1, 51179, Note_off_c, 0, 47, 58
1, 51183, Note_off_c, 0, 45, 58
1, 51189, Note_off_c, 0, 62, 64
1, 51195, Note_off_c, 0, 40, 58
1, 51195, Note_off_c, 0, 64, 64
1, 51386, Note_on_c, 0, 76, 60
1, 51395, Note_on_c, 0, 33, 70
1, 51403, Note_on_c, 0, 40, 71
1, 51404, Note_on_c, 0, 45, 82
1, 51406, Note_on_c, 0, 64, 67
1, 51410, Note_off_c, 0, 76, 65
1, 51415, Note_on_c, 0, 65, 49
1, 51417, Control_c, 0, 64, 12
1, 51425, Note_off_c, 0, 64, 65
1, 51432, Control_c, 0, 64, 71
1, 51441, Note_off_c, 0, 65, 37
1, 51447, Control_c, 0, 64, 93
1, 51461, Control_c, 0, 64, 127
1, 51655, Note_on_c, 0, 64, 71
1, 51657, Note_on_c, 0, 57, 68
1, 51660, Note_on_c, 0, 60, 64
1, 51686, Note_off_c, 0, 60, 66
1, 51687, Note_off_c, 0, 64, 63
1, 51689, Note_off_c, 0, 57, 62
1, 51692, Note_off_c, 0, 33, 62
1, 51728, Note_off_c, 0, 40, 63
1, 51738, Note_off_c, 0, 45, 61
1, 51752, Note_on_c, 0, 65, 72
1, 51759, Note_on_c, 0, 57, 71
1, 51761, Note_on_c, 0, 60, 55
1, 51780, Control_c, 0, 64, 106
1, 51795, Control_c, 0, 64, 86
1, 51800, Note_off_c, 0, 60, 65
1, 51800, Note_off_c, 0, 65, 59
1, 51803, Note_off_c, 0, 57, 57
1, 51809, Control_c, 0, 64, 69
1, 51824, Control_c, 0, 64, 48
1, 51824, Control_c, 0, 67, 8
1, 51839, Control_c, 0, 64, 0
1, 51839, Control_c, 0, 67, 8
1, 51854, Control_c, 0, 67, 9
1, 51862, Note_on_c, 0, 64, 74
1, 51869, Control_c, 0, 67, 10
1, 51870, Note_on_c, 0, 57, 52
1, 51877, Note_on_c, 0, 60, 61
1, 51883, Control_c, 0, 67, 10
1, 51894, Note_off_c, 0, 57, 61
1, 51897, Note_off_c, 0, 60, 63
1, 51898, Control_c, 0, 67, 11
1, 51904, Note_off_c, 0, 64, 65
1, 51913, Control_c, 0, 67, 11
1, 51928, Control_c, 0, 67, 12
1, 51973, Control_c, 0, 67, 12
1, 52002, Control_c, 0, 67, 13
1, 52032, Control_c, 0, 67, 13
1, 52076, Control_c, 0, 67, 13
1, 52107, Control_c, 0, 67, 12
1, 52122, Note_on_c, 0, 71, 79
1, 52130, Note_on_c, 0, 45, 47
1, 52131, Note_on_c, 0, 62, 65
1, 52137, Control_c, 0, 64, 15
1, 52137, Control_c, 0, 67, 12
1, 52142, Note_on_c, 0, 52, 49
1, 52148, Note_on_c, 0, 64, 48
1, 52151, Note_on_c, 0, 56, 41
1, 52151, Control_c, 0, 64, 59
1, 52151, Control_c, 0, 67, 11
1, 52160, Note_off_c, 0, 62, 67
1, 52164, Note_off_c, 0, 71, 63
1, 52166, Control_c, 0, 64, 68
1, 52173, Note_off_c, 0, 45, 59
1, 52174, Note_off_c, 0, 64, 53
1, 52181, Control_c, 0, 64, 71
1, 52181, Control_c, 0, 67, 11
1, 52187, Note_off_c, 0, 56, 62
1, 52191, Note_off_c, 0, 52, 61
1, 52196, Control_c, 0, 64, 74
1, 52211, Control_c, 0, 64, 76
1, 52211, Control_c, 0, 67, 10
1, 52225, Control_c, 0, 64, 79
1, 52240, Control_c, 0, 64, 81
1, 52240, Control_c, 0, 67, 10
1, 52255, Control_c, 0, 64, 83
1, 52373, Control_c, 0, 64, 83
1, 52388, Control_c, 0, 64, 80
1, 52390, Note_on_c, 0, 45, 52
1, 52391, Note_on_c, 0, 71, 74
1, 52400, Note_on_c, 0, 56, 51
1, 52403, Control_c, 0, 64, 72
1, 52403, Control_c, 0, 67, 10
1, 52411, Note_on_c, 0, 62, 54
1, 52414, Note_on_c, 0, 52, 47
1, 52418, Control_c, 0, 64, 61
1, 52428, Note_off_c, 0, 45, 61
1, 52432, Control_c, 0, 64, 34
1, 52434, Note_off_c, 0, 56, 63
1, 52435, Note_off_c, 0, 62, 59
1, 52435, Note_off_c, 0, 71, 64
1, 52440, Note_off_c, 0, 52, 58
1, 52447, Control_c, 0, 64, 0
1, 52501, Note_on_c, 0, 69, 67
1, 52514, Note_on_c, 0, 62, 57
1, 52556, Note_off_c, 0, 69, 59
1, 52558, Note_off_c, 0, 62, 62
1, 52618, Control_c, 0, 67, 10
1, 52621, Note_on_c, 0, 45, 43
1, 52624, Note_on_c, 0, 68, 66
1, 52630, Note_on_c, 0, 59, 56
1, 52638, Note_on_c, 0, 52, 33
1, 52658, Note_on_c, 0, 62, 37
1, 52661, Note_off_c, 0, 45, 51
1, 52663, Note_off_c, 0, 59, 64
1, 52675, Note_off_c, 0, 52, 62
1, 52678, Note_off_c, 0, 68, 59
1, 52688, Note_off_c, 0, 62, 43
1, 52721, Control_c, 0, 67, 9
1, 52751, Control_c, 0, 67, 9
1, 52766, Control_c, 0, 67, 8
1, 52781, Control_c, 0, 67, 8
1, 52795, Control_c, 0, 67, 0
1, 52945, Control_c, 0, 64, 35
1, 52949, Note_on_c, 0, 69, 43
1, 52960, Control_c, 0, 64, 53
1, 52965, Note_on_c, 0, 45, 28
1, 52965, Note_on_c, 0, 64, 41
1, 52968, Note_on_c, 0, 60, 29
1, 52974, Control_c, 0, 64, 61
1, 52975, Note_on_c, 0, 52, 27
1, 52981, Note_on_c, 0, 57, 36
1, 52989, Control_c, 0, 64, 64
1, 53004, Control_c, 0, 64, 67
1, 53019, Control_c, 0, 64, 73
1, 53033, Control_c, 0, 64, 83
1, 53037, Note_off_c, 0, 52, 61
1, 53040, Note_off_c, 0, 57, 58
1, 53046, Note_off_c, 0, 45, 57
1, 53048, Control_c, 0, 64, 96
1, 53063, Control_c, 0, 64, 116
1, 53078, Control_c, 0, 64, 127
1, 53105, Note_off_c, 0, 60, 35
1, 53116, Note_off_c, 0, 64, 53
1, 53118, Note_off_c, 0, 69, 64
1, 53455, Control_c, 0, 67, 8
1, 53470, Control_c, 0, 67, 9
1, 53485, Control_c, 0, 67, 9
1, 53499, Control_c, 0, 67, 10
1, 53514, Control_c, 0, 67, 10
1, 53529, Control_c, 0, 67, 11
1, 53544, Control_c, 0, 67, 11
1, 53559, Control_c, 0, 64, 111
1, 53559, Control_c, 0, 67, 12
1, 53574, Control_c, 0, 64, 82
1, 53588, Control_c, 0, 64, 65
1, 53588, Control_c, 0, 67, 13
1, 53603, Control_c, 0, 64, 46
1, 53618, Control_c, 0, 64, 0
1, 53633, Control_c, 0, 67, 13
1, 53708, Control_c, 0, 67, 14
1, 53767, Control_c, 0, 67, 14
1, 53812, Control_c, 0, 67, 15
1, 53916, Control_c, 0, 64, 20
1, 53930, Control_c, 0, 64, 37
1, 53930, Control_c, 0, 67, 15
1, 53945, Control_c, 0, 64, 48
1, 53960, Control_c, 0, 64, 55
1, 53975, Control_c, 0, 64, 59
1, 53975, Control_c, 0, 67, 16
1, 53990, Control_c, 0, 64, 61
1, 54004, Note_on_c, 0, 72, 52
1, 54004, Control_c, 0, 64, 64
1, 54004, Control_c, 0, 67, 16
1, 54027, Control_c, 0, 64, 66
1, 54027, Control_c, 0, 67, 17
1, 54042, Control_c, 0, 64, 70
1, 54042, Control_c, 0, 67, 17
1, 54056, Control_c, 0, 64, 75
1, 54056, Control_c, 0, 67, 18
1, 54060, Note_off_c, 0, 72, 62
1, 54071, Control_c, 0, 64, 81
1, 54086, Control_c, 0, 64, 86
1, 54086, Control_c, 0, 67, 19
1, 54101, Control_c, 0, 64, 91
1, 54101, Control_c, 0, 67, 19
1, 54116, Control_c, 0, 64, 96
1, 54116, Control_c, 0, 67, 20
1, 54130, Control_c, 0, 64, 102
1, 54130, Control_c, 0, 67, 20
1, 54145, Control_c, 0, 64, 108
1, 54145, Control_c, 0, 67, 21
1, 54160, Control_c, 0, 64, 113
1, 54160, Control_c, 0, 67, 22
1, 54174, Control_c, 0, 64, 121
1, 54174, Control_c, 0, 67, 23
1, 54189, Control_c, 0, 64, 127
1, 54189, Control_c, 0, 67, 24
1, 54204, Control_c, 0, 67, 25
1, 54219, Control_c, 0, 67, 26
1, 54234, Control_c, 0, 67, 28
1, 54248, Control_c, 0, 67, 29
1, 54263, Control_c, 0, 67, 30
1, 54278, Control_c, 0, 67, 31
1, 54293, Control_c, 0, 67, 32
1, 54308, Control_c, 0, 67, 34
1, 54322, Control_c, 0, 67, 36
1, 54337, Control_c, 0, 67, 38
1, 54352, Control_c, 0, 67, 40
1, 54367, Control_c, 0, 67, 43
1, 54381, Control_c, 0, 67, 46
1, 54396, Control_c, 0, 64, 122
1, 54396, Control_c, 0, 67, 48
1, 54411, Control_c, 0, 64, 108
1, 54411, Control_c, 0, 67, 51
1, 54426, Control_c, 0, 64, 95
1, 54426, Control_c, 0, 67, 53
1, 54441, Control_c, 0, 64, 80
1, 54441, Control_c, 0, 67, 55
1, 54455, Note_on_c, 0, 72, 49
1, 54456, Control_c, 0, 64, 68
1, 54456, Control_c, 0, 67, 58
1, 54471, Control_c, 0, 64, 60
1, 54471, Control_c, 0, 67, 60
1, 54480, Note_on_c, 0, 69, 34
1, 54486, Control_c, 0, 64, 56
1, 54486, Control_c, 0, 67, 63
1, 54496, Note_on_c, 0, 53, 38
1, 54501, Control_c, 0, 64, 58
1, 54501, Control_c, 0, 67, 64
1, 54516, Control_c, 0, 64, 63
1, 54516, Control_c, 0, 67, 65
1, 54531, Control_c, 0, 64, 67
1, 54531, Control_c, 0, 67, 65
1, 54536, Note_off_c, 0, 72, 55
1, 54542, Note_off_c, 0, 53, 60
1, 54545, Control_c, 0, 64, 74
1, 54545, Control_c, 0, 67, 66
1, 54560, Control_c, 0, 64, 80
1, 54560, Control_c, 0, 67, 67
1, 54575, Control_c, 0, 64, 84
1, 54575, Control_c, 0, 67, 69
1, 54590, Control_c, 0, 64, 86
1, 54590, Control_c, 0, 67, 70
1, 54605, Control_c, 0, 64, 88
1, 54605, Control_c, 0, 67, 71
1, 54620, Control_c, 0, 64, 90
1, 54620, Control_c, 0, 67, 72
1, 54635, Control_c, 0, 64, 92
1, 54635, Control_c, 0, 67, 72
1, 54650, Control_c, 0, 64, 92
1, 54650, Control_c, 0, 67, 73
1, 54664, Control_c, 0, 64, 93
1, 54664, Control_c, 0, 67, 74
1, 54679, Control_c, 0, 67, 74
1, 54694, Control_c, 0, 67, 75
1, 54709, Control_c, 0, 67, 76
1, 54724, Control_c, 0, 67, 77
1, 54738, Control_c, 0, 67, 78
1, 54753, Control_c, 0, 67, 78
1, 54775, Control_c, 0, 64, 92
1, 54775, Control_c, 0, 67, 79
1, 54790, Control_c, 0, 64, 89
1, 54790, Control_c, 0, 67, 80
1, 54805, Control_c, 0, 64, 83
1, 54805, Control_c, 0, 67, 81
1, 54820, Control_c, 0, 64, 73
1, 54820, Control_c, 0, 67, 82
1, 54835, Control_c, 0, 64, 60
1, 54835, Control_c, 0, 67, 83
1, 54849, Control_c, 0, 64, 34
1, 54849, Control_c, 0, 67, 84
1, 54863, Note_on_c, 0, 74, 52
1, 54864, Control_c, 0, 64, 0
1, 54864, Control_c, 0, 67, 85
1, 54871, Note_on_c, 0, 57, 38
1, 54879, Control_c, 0, 67, 85
1, 54882, Note_on_c, 0, 65, 25
1, 54894, Control_c, 0, 67, 86
1, 54906, Note_off_c, 0, 57, 62
1, 54909, Control_c, 0, 67, 87
1, 54919, Note_off_c, 0, 65, 48
1, 54924, Control_c, 0, 67, 89
1, 54939, Control_c, 0, 67, 90
1, 54953, Control_c, 0, 67, 91
1, 54961, Note_off_c, 0, 74, 32
1, 54968, Control_c, 0, 67, 92
1, 54971, Note_off_c, 0, 69, 30
1, 54975, Note_on_c, 0, 72, 57
1, 54983, Control_c, 0, 67, 93
1, 55010, Note_off_c, 0, 72, 61
1, 55012, Control_c, 0, 67, 93
1, 55027, Control_c, 0, 67, 94
1, 55042, Control_c, 0, 67, 94
1, 55057, Control_c, 0, 67, 95
1, 55086, Control_c, 0, 67, 96
1, 55094, Note_on_c, 0, 72, 59
1, 55104, Note_on_c, 0, 65, 41
1, 55106, Note_on_c, 0, 69, 45
1, 55106, Note_on_c, 0, 60, 50
1, 55116, Control_c, 0, 67, 96
1, 55128, Note_off_c, 0, 65, 54
1, 55128, Note_off_c, 0, 72, 62
1, 55131, Control_c, 0, 67, 97
1, 55138, Note_off_c, 0, 60, 65
1, 55145, Control_c, 0, 67, 97
1, 55148, Note_off_c, 0, 69, 61
1, 55160, Control_c, 0, 67, 98
1, 55175, Control_c, 0, 67, 99
1, 55188, Note_on_c, 0, 77, 63
1, 55190, Control_c, 0, 67, 101
1, 55204, Control_c, 0, 67, 102
1, 55219, Control_c, 0, 67, 103
1, 55224, Note_off_c, 0, 77, 59
1, 55234, Control_c, 0, 67, 105
1, 55249, Control_c, 0, 67, 106
1, 55264, Control_c, 0, 67, 107
1, 55279, Control_c, 0, 67, 108
1, 55294, Control_c, 0, 67, 108
1, 55308, Note_on_c, 0, 76, 67
1, 55324, Control_c, 0, 64, 19
1, 55332, Note_on_c, 0, 67, 49
1, 55339, Control_c, 0, 64, 50
1, 55344, Note_on_c, 0, 48, 42
1, 55354, Control_c, 0, 64, 62
1, 55368, Control_c, 0, 64, 66
1, 55375, Note_off_c, 0, 48, 34
1, 55383, Control_c, 0, 64, 70
1, 55398, Control_c, 0, 64, 75
1, 55413, Control_c, 0, 64, 82
1, 55428, Control_c, 0, 64, 87
1, 55443, Control_c, 0, 64, 90
1, 55458, Control_c, 0, 64, 92
1, 55539, Control_c, 0, 64, 91
1, 55554, Control_c, 0, 64, 84
1, 55568, Control_c, 0, 64, 71
1, 55568, Control_c, 0, 67, 109
1, 55583, Control_c, 0, 64, 57
1, 55583, Control_c, 0, 67, 109
1, 55595, Note_off_c, 0, 76, 55
1, 55598, Note_on_c, 0, 72, 56
1, 55598, Control_c, 0, 64, 31
1, 55598, Control_c, 0, 67, 110
1, 55612, Note_on_c, 0, 55, 43
1, 55613, Control_c, 0, 64, 0
1, 55613, Control_c, 0, 67, 110
1, 55616, Note_on_c, 0, 64, 39
1, 55627, Control_c, 0, 67, 111
1, 55642, Control_c, 0, 67, 113
1, 55644, Note_off_c, 0, 72, 59
1, 55645, Note_off_c, 0, 55, 65
1, 55648, Note_off_c, 0, 64, 65
1, 55657, Control_c, 0, 67, 115
1, 55672, Control_c, 0, 67, 117
1, 55687, Control_c, 0, 67, 119
1, 55702, Control_c, 0, 67, 121
1, 55717, Control_c, 0, 67, 122
1, 55732, Control_c, 0, 67, 123
1, 55746, Control_c, 0, 67, 123
1, 55761, Control_c, 0, 67, 124
1, 55869, Note_on_c, 0, 72, 54
1, 55890, Note_on_c, 0, 64, 36
1, 55896, Note_on_c, 0, 60, 42
1, 55908, Note_off_c, 0, 72, 60
1, 55911, Note_off_c, 0, 67, 60
1, 55917, Note_off_c, 0, 64, 61
1, 55924, Note_off_c, 0, 60, 63
1, 55953, Control_c, 0, 64, 12
1, 55968, Control_c, 0, 64, 34
1, 55983, Control_c, 0, 64, 45
1, 55983, Control_c, 0, 67, 123
1, 55998, Control_c, 0, 64, 52
1, 56013, Control_c, 0, 64, 53
1, 56036, Note_on_c, 0, 70, 58
1, 56042, Control_c, 0, 67, 123
1, 56072, Note_off_c, 0, 70, 62
1, 56072, Control_c, 0, 67, 122
1, 56091, Note_on_c, 0, 72, 57
1, 56103, Control_c, 0, 64, 51
1, 56117, Control_c, 0, 64, 45
1, 56132, Control_c, 0, 64, 29
1, 56147, Control_c, 0, 64, 0
1, 56148, Note_off_c, 0, 72, 60
1, 56155, Note_on_c, 0, 67, 56
1, 56161, Note_on_c, 0, 70, 61
1, 56170, Note_on_c, 0, 43, 48
1, 56190, Note_off_c, 0, 70, 65
1, 56203, Note_off_c, 0, 43, 64
1, 56318, Note_on_c, 0, 69, 60
1, 56352, Note_off_c, 0, 69, 64
1, 56435, Note_on_c, 0, 70, 65
1, 56436, Control_c, 0, 67, 122
1, 56447, Note_on_c, 0, 62, 51
1, 56448, Note_on_c, 0, 55, 45
1, 56463, Note_off_c, 0, 70, 66
1, 56472, Note_off_c, 0, 55, 52
1, 56475, Note_off_c, 0, 62, 65
1, 56495, Control_c, 0, 67, 121
1, 56510, Control_c, 0, 67, 121
1, 56540, Control_c, 0, 67, 120
1, 56541, Note_on_c, 0, 74, 62
1, 56554, Control_c, 0, 67, 119
1, 56569, Control_c, 0, 67, 118
1, 56575, Note_off_c, 0, 74, 62
1, 56596, Note_off_c, 0, 67, 57
1, 56629, Control_c, 0, 67, 117
1, 56647, Note_on_c, 0, 72, 67
1, 56658, Control_c, 0, 67, 117
1, 56659, Note_on_c, 0, 58, 53
1, 56661, Note_on_c, 0, 62, 37
1, 56673, Control_c, 0, 67, 116
1, 56683, Note_off_c, 0, 62, 50
1, 56687, Note_off_c, 0, 58, 64
1, 56688, Control_c, 0, 67, 115
1, 56689, Note_off_c, 0, 72, 61
1, 56717, Control_c, 0, 67, 115
1, 56732, Control_c, 0, 67, 114
1, 56744, Note_on_c, 0, 70, 71
1, 56747, Control_c, 0, 67, 113
1, 56762, Control_c, 0, 67, 112
1, 56776, Control_c, 0, 67, 110
1, 56778, Note_off_c, 0, 70, 57
1, 56791, Control_c, 0, 67, 106
1, 56806, Control_c, 0, 67, 101
1, 56821, Control_c, 0, 67, 96
1, 56836, Control_c, 0, 67, 90
1, 56850, Control_c, 0, 67, 84
1, 56865, Control_c, 0, 67, 77
1, 56880, Control_c, 0, 67, 71
1, 56881, Note_on_c, 0, 74, 59
1, 56896, Control_c, 0, 64, 34
1, 56896, Control_c, 0, 67, 64
1, 56911, Note_on_c, 0, 50, 42
1, 56911, Control_c, 0, 64, 53
1, 56911, Control_c, 0, 67, 57
1, 56915, Note_on_c, 0, 65, 40
1, 56926, Control_c, 0, 64, 60
1, 56926, Control_c, 0, 67, 50
1, 56940, Control_c, 0, 64, 63
1, 56940, Control_c, 0, 67, 44
1, 56952, Note_off_c, 0, 50, 58
1, 56955, Control_c, 0, 64, 64
1, 56955, Control_c, 0, 67, 38
1, 56970, Control_c, 0, 64, 66
1, 56970, Control_c, 0, 67, 32
1, 56985, Control_c, 0, 64, 69
1, 56985, Control_c, 0, 67, 25
1, 56999, Control_c, 0, 64, 72
1, 56999, Control_c, 0, 67, 19
1, 57022, Control_c, 0, 64, 75
1, 57022, Control_c, 0, 67, 13
1, 57037, Control_c, 0, 64, 76
1, 57037, Control_c, 0, 67, 11
1, 57052, Control_c, 0, 64, 77
1, 57111, Control_c, 0, 64, 76
1, 57126, Control_c, 0, 64, 75
1, 57141, Control_c, 0, 64, 69
1, 57141, Control_c, 0, 67, 12
1, 57155, Control_c, 0, 64, 59
1, 57155, Control_c, 0, 67, 12
1, 57170, Control_c, 0, 64, 33
1, 57185, Control_c, 0, 64, 0
1, 57185, Control_c, 0, 67, 13
1, 57186, Note_on_c, 0, 69, 48
1, 57194, Note_on_c, 0, 53, 38
1, 57195, Note_off_c, 0, 74, 56
1, 57199, Control_c, 0, 67, 13
1, 57200, Note_on_c, 0, 62, 35
1, 57214, Control_c, 0, 67, 14
1, 57222, Note_off_c, 0, 69, 63
1, 57227, Note_off_c, 0, 65, 57
1, 57234, Note_off_c, 0, 53, 63
1, 57237, Note_off_c, 0, 62, 65
1, 57244, Control_c, 0, 67, 15
1, 57288, Control_c, 0, 67, 15
1, 57466, Note_on_c, 0, 69, 48
1, 57479, Note_on_c, 0, 65, 41
1, 57487, Note_on_c, 0, 57, 38
1, 57488, Note_on_c, 0, 62, 30
1, 57507, Note_off_c, 0, 69, 65
1, 57515, Note_off_c, 0, 65, 63
1, 57520, Note_off_c, 0, 62, 58
1, 57525, Note_off_c, 0, 57, 60
1, 57644, Control_c, 0, 67, 15
1, 57673, Control_c, 0, 67, 14
1, 57689, Control_c, 0, 67, 14
1, 57704, Control_c, 0, 67, 13
1, 57719, Control_c, 0, 67, 12
1, 57748, Control_c, 0, 64, 30
1, 57748, Control_c, 0, 67, 12
1, 57750, Note_on_c, 0, 70, 60
1, 57771, Control_c, 0, 64, 51
1, 57771, Control_c, 0, 67, 11
1, 57783, Note_on_c, 0, 50, 37
1, 57786, Control_c, 0, 64, 61
1, 57792, Note_on_c, 0, 65, 42
1, 57801, Control_c, 0, 64, 65
1, 57801, Control_c, 0, 67, 11
1, 57815, Control_c, 0, 64, 69
1, 57824, Note_off_c, 0, 50, 52
1, 57830, Control_c, 0, 64, 75
1, 57830, Control_c, 0, 67, 10
1, 57845, Control_c, 0, 64, 82
1, 57860, Control_c, 0, 64, 90
1, 57874, Note_off_c, 0, 70, 61
1, 57875, Control_c, 0, 64, 95
1, 57890, Control_c, 0, 64, 98
1, 57904, Control_c, 0, 64, 100
1, 57934, Control_c, 0, 67, 11
1, 57948, Control_c, 0, 67, 11
1, 57963, Control_c, 0, 67, 12
1, 57978, Control_c, 0, 67, 12
1, 57993, Control_c, 0, 64, 98
1, 57993, Control_c, 0, 67, 13
1, 58008, Control_c, 0, 64, 87
1, 58008, Control_c, 0, 67, 14
1, 58022, Control_c, 0, 64, 75
1, 58022, Control_c, 0, 67, 15
1, 58034, Note_on_c, 0, 72, 63
1, 58037, Control_c, 0, 64, 62
1, 58037, Control_c, 0, 67, 15
1, 58052, Control_c, 0, 64, 41
1, 58052, Control_c, 0, 67, 16
1, 58053, Note_on_c, 0, 53, 42
1, 58058, Note_on_c, 0, 62, 37
1, 58067, Control_c, 0, 64, 0
1, 58080, Note_off_c, 0, 53, 48
1, 58082, Control_c, 0, 67, 17
1, 58096, Control_c, 0, 67, 17
1, 58100, Note_off_c, 0, 62, 55
1, 58104, Note_off_c, 0, 72, 47
1, 58111, Control_c, 0, 67, 18
1, 58125, Control_c, 0, 67, 18
1, 58137, Note_on_c, 0, 70, 71
1, 58140, Control_c, 0, 67, 19
1, 58174, Note_off_c, 0, 70, 62
1, 58185, Control_c, 0, 67, 19
1, 58214, Control_c, 0, 67, 20
1, 58256, Note_on_c, 0, 70, 68
1, 58270, Note_on_c, 0, 58, 53
1, 58278, Note_on_c, 0, 62, 26
1, 58292, Note_off_c, 0, 70, 62
1, 58298, Note_off_c, 0, 62, 48
1, 58302, Note_off_c, 0, 58, 64
1, 58355, Note_on_c, 0, 74, 70
1, 58382, Note_off_c, 0, 65, 60
1, 58394, Note_off_c, 0, 74, 66
1, 58451, Control_c, 0, 67, 19
1, 58480, Control_c, 0, 67, 19
1, 58495, Note_on_c, 0, 74, 62
1, 58497, Control_c, 0, 64, 35
1, 58519, Control_c, 0, 64, 56
1, 58524, Note_on_c, 0, 65, 45
1, 58525, Note_on_c, 0, 48, 43
1, 58534, Control_c, 0, 64, 62
1, 58534, Control_c, 0, 67, 18
1, 58549, Control_c, 0, 64, 65
1, 58564, Note_off_c, 0, 48, 61
1, 58564, Control_c, 0, 64, 68
1, 58578, Control_c, 0, 64, 72
1, 58593, Control_c, 0, 64, 77
1, 58608, Control_c, 0, 64, 81
1, 58608, Control_c, 0, 67, 18
1, 58623, Control_c, 0, 64, 85
1, 58638, Control_c, 0, 64, 86
1, 58652, Control_c, 0, 64, 87
1, 58682, Control_c, 0, 67, 18
1, 58697, Control_c, 0, 67, 19
1, 58712, Control_c, 0, 64, 87
1, 58712, Control_c, 0, 67, 20
1, 58726, Control_c, 0, 64, 83
1, 58726, Control_c, 0, 67, 21
1, 58741, Control_c, 0, 64, 75
1, 58741, Control_c, 0, 67, 22
1, 58756, Control_c, 0, 64, 64
1, 58756, Control_c, 0, 67, 23
1, 58770, Control_c, 0, 64, 45
1, 58770, Control_c, 0, 67, 23
1, 58779, Note_on_c, 0, 69, 52
1, 58785, Control_c, 0, 64, 0
1, 58785, Control_c, 0, 67, 24
1, 58798, Note_off_c, 0, 74, 48
1, 58800, Control_c, 0, 67, 25
1, 58801, Note_on_c, 0, 53, 44
1, 58814, Note_on_c, 0, 60, 36
1, 58815, Control_c, 0, 67, 25
1, 58817, Note_off_c, 0, 65, 56
1, 58818, Note_off_c, 0, 69, 61
1, 58830, Control_c, 0, 67, 26
1, 58838, Note_off_c, 0, 53, 63
1, 58839, Note_off_c, 0, 60, 55
1, 58844, Control_c, 0, 67, 27
1, 58859, Control_c, 0, 67, 27
1, 58874, Control_c, 0, 67, 28
1, 58889, Control_c, 0, 67, 29
1, 58904, Control_c, 0, 67, 30
1, 58918, Control_c, 0, 67, 31
1, 58933, Control_c, 0, 67, 33
1, 58948, Control_c, 0, 67, 35
1, 58963, Control_c, 0, 67, 37
1, 58978, Control_c, 0, 67, 40
1, 58993, Control_c, 0, 67, 42
1, 59008, Control_c, 0, 67, 44
1, 59023, Control_c, 0, 67, 46
1, 59033, Note_on_c, 0, 69, 53
1, 59037, Control_c, 0, 67, 48
1, 59041, Note_on_c, 0, 65, 44
1, 59052, Control_c, 0, 67, 50
1, 59055, Note_on_c, 0, 60, 35
1, 59059, Note_on_c, 0, 57, 42
1, 59062, Note_off_c, 0, 69, 66
1, 59067, Control_c, 0, 67, 52
1, 59079, Note_off_c, 0, 65, 61
1, 59082, Control_c, 0, 67, 55
1, 59085, Note_off_c, 0, 60, 56
1, 59087, Note_off_c, 0, 57, 62
1, 59096, Control_c, 0, 67, 58
1, 59111, Control_c, 0, 67, 60
1, 59126, Control_c, 0, 67, 62
1, 59141, Control_c, 0, 67, 63
1, 59156, Control_c, 0, 67, 63
1, 59170, Control_c, 0, 67, 64
1, 59179, Note_on_c, 0, 70, 61
1, 59185, Control_c, 0, 67, 65
1, 59200, Control_c, 0, 67, 66
1, 59215, Note_off_c, 0, 70, 62
1, 59215, Control_c, 0, 67, 67
1, 59230, Control_c, 0, 67, 68
1, 59234, Note_on_c, 0, 72, 60
1, 59244, Control_c, 0, 67, 68
1, 59267, Control_c, 0, 67, 69
1, 59282, Control_c, 0, 67, 70
1, 59300, Note_off_c, 0, 72, 61
1, 59306, Note_on_c, 0, 70, 58
1, 59309, Note_on_c, 0, 64, 53
1, 59312, Control_c, 0, 67, 70
1, 59319, Note_on_c, 0, 48, 48
1, 59327, Control_c, 0, 67, 71
1, 59337, Note_off_c, 0, 70, 65
1, 59342, Control_c, 0, 67, 72
1, 59357, Control_c, 0, 67, 73
1, 59357, Note_off_c, 0, 48, 59
1, 59371, Control_c, 0, 67, 74
1, 59386, Control_c, 0, 67, 75
1, 59401, Control_c, 0, 67, 75
1, 59416, Control_c, 0, 67, 76
1, 59431, Control_c, 0, 67, 77
1, 59431, Note_on_c, 0, 69, 67
1, 59446, Control_c, 0, 67, 78
1, 59461, Control_c, 0, 67, 78
1, 59468, Note_off_c, 0, 69, 60
1, 59475, Control_c, 0, 67, 79
1, 59490, Control_c, 0, 67, 79
1, 59505, Control_c, 0, 67, 80
1, 59553, Note_on_c, 0, 70, 70
1, 59569, Note_on_c, 0, 55, 51
1, 59574, Note_on_c, 0, 60, 43
1, 59579, Control_c, 0, 67, 80
1, 59583, Note_off_c, 0, 70, 61
1, 59600, Note_off_c, 0, 55, 65
1, 59600, Note_off_c, 0, 60, 57
1, 59623, Control_c, 0, 67, 81
1, 59667, Control_c, 0, 67, 81
1, 59668, Note_on_c, 0, 74, 66
1, 59701, Note_off_c, 0, 64, 50
1, 59708, Note_off_c, 0, 74, 62
1, 59711, Control_c, 0, 67, 82
1, 59726, Control_c, 0, 67, 82
1, 59741, Control_c, 0, 67, 83
1, 59756, Control_c, 0, 67, 83
1, 59771, Control_c, 0, 67, 84
1, 59786, Control_c, 0, 67, 85
1, 59794, Note_on_c, 0, 72, 57
1, 59801, Control_c, 0, 67, 85
1, 59807, Note_on_c, 0, 48, 44
1, 59813, Note_on_c, 0, 64, 56
1, 59816, Control_c, 0, 67, 86
1, 59816, Note_on_c, 0, 60, 43
1, 59831, Control_c, 0, 67, 86
1, 59839, Note_off_c, 0, 48, 60
1, 59842, Note_off_c, 0, 72, 56
1, 59843, Note_off_c, 0, 60, 59
1, 59845, Control_c, 0, 67, 87
1, 59851, Note_off_c, 0, 64, 60
1, 59860, Control_c, 0, 67, 88
1, 59875, Control_c, 0, 67, 88
1, 59890, Control_c, 0, 67, 89
1, 59905, Control_c, 0, 67, 89
1, 59926, Note_on_c, 0, 70, 60
1, 59934, Control_c, 0, 67, 90
1, 59964, Note_off_c, 0, 70, 62
1, 59979, Control_c, 0, 67, 90
1, 60015, Control_c, 0, 67, 91
1, 60060, Control_c, 0, 67, 91
1, 60120, Note_on_c, 0, 69, 42
1, 60120, Control_c, 0, 64, 24
1, 60134, Note_on_c, 0, 65, 37
1, 60135, Control_c, 0, 64, 43
1, 60149, Control_c, 0, 64, 55
1, 60152, Note_on_c, 0, 60, 26
1, 60164, Control_c, 0, 64, 58
1, 60167, Note_on_c, 0, 53, 28
1, 60179, Control_c, 0, 64, 61
1, 60194, Control_c, 0, 64, 63
1, 60209, Control_c, 0, 64, 66
1, 60209, Note_off_c, 0, 53, 62
1, 60219, Note_off_c, 0, 60, 60
1, 60224, Control_c, 0, 64, 68
1, 60239, Control_c, 0, 64, 72
1, 60254, Control_c, 0, 64, 77
1, 60269, Control_c, 0, 64, 81
1, 60283, Note_off_c, 0, 65, 34
1, 60284, Control_c, 0, 64, 84
1, 60298, Control_c, 0, 64, 86
1, 60313, Control_c, 0, 64, 89
1, 60328, Control_c, 0, 64, 91
1, 60328, Control_c, 0, 67, 92
1, 60342, Control_c, 0, 64, 93
1, 60356, Control_c, 0, 64, 93
1, 60371, Control_c, 0, 64, 94
1, 60385, Note_off_c, 0, 69, 34
1, 60401, Control_c, 0, 67, 92
1, 60415, Control_c, 0, 67, 94
1, 60430, Control_c, 0, 67, 95
1, 60445, Control_c, 0, 67, 97
1, 60459, Control_c, 0, 67, 98
1, 60474, Control_c, 0, 67, 100
1, 60489, Control_c, 0, 67, 103
1, 60504, Control_c, 0, 67, 105
1, 60519, Control_c, 0, 67, 107
1, 60534, Control_c, 0, 67, 110
1, 60549, Control_c, 0, 67, 113
1, 60564, Control_c, 0, 67, 115
1, 60579, Control_c, 0, 67, 118
1, 60594, Control_c, 0, 67, 120
1, 60608, Control_c, 0, 64, 93
1, 60608, Control_c, 0, 67, 122
1, 60623, Control_c, 0, 64, 90
1, 60623, Control_c, 0, 67, 123
1, 60638, Control_c, 0, 64, 85
1, 60638, Control_c, 0, 67, 124
1, 60653, Control_c, 0, 64, 79
1, 60653, Control_c, 0, 67, 125
1, 60667, Control_c, 0, 64, 73
1, 60667, Control_c, 0, 67, 126
1, 60682, Control_c, 0, 64, 66
1, 60682, Control_c, 0, 67, 127
1, 60697, Control_c, 0, 64, 58
1, 60712, Control_c, 0, 64, 47
1, 60727, Control_c, 0, 64, 39
1, 60741, Control_c, 0, 64, 33
1, 60764, Control_c, 0, 64, 29
1, 60778, Control_c, 0, 64, 26
1, 60793, Control_c, 0, 64, 24
1, 60808, Control_c, 0, 64, 25
1, 60823, Control_c, 0, 64, 34
1, 60836, Note_on_c, 0, 72, 46
1, 60838, Control_c, 0, 64, 49
1, 60853, Control_c, 0, 64, 62
1, 60867, Control_c, 0, 64, 67
1, 60882, Control_c, 0, 64, 71
1, 60882, Control_c, 0, 67, 126
1, 60898, Control_c, 0, 64, 75
1, 60898, Control_c, 0, 67, 124
1, 60913, Control_c, 0, 64, 80
1, 60913, Control_c, 0, 67, 122
1, 60916, Note_off_c, 0, 72, 60
1, 60927, Control_c, 0, 64, 83
1, 60927, Control_c, 0, 67, 120
1, 60942, Control_c, 0, 64, 87
1, 60942, Control_c, 0, 67, 118
1, 60957, Control_c, 0, 64, 91
1, 60957, Control_c, 0, 67, 114
1, 60972, Control_c, 0, 64, 95
1, 60972, Control_c, 0, 67, 107
1, 60987, Control_c, 0, 64, 100
1, 60987, Control_c, 0, 67, 95
1, 61002, Control_c, 0, 64, 103
1, 61002, Control_c, 0, 67, 84
1, 61017, Control_c, 0, 64, 103
1, 61017, Control_c, 0, 67, 77
1, 61032, Control_c, 0, 64, 104
1, 61032, Control_c, 0, 67, 72
1, 61046, Control_c, 0, 67, 68
1, 61061, Control_c, 0, 67, 66
1, 61076, Control_c, 0, 67, 65
1, 61090, Control_c, 0, 67, 63
1, 61106, Control_c, 0, 67, 60
1, 61121, Control_c, 0, 67, 58
1, 61136, Control_c, 0, 67, 55
1, 61151, Control_c, 0, 64, 103
1, 61151, Control_c, 0, 67, 52
1, 61165, Control_c, 0, 64, 98
1, 61165, Control_c, 0, 67, 50
1, 61180, Control_c, 0, 64, 88
1, 61180, Control_c, 0, 67, 49
1, 61181, Note_on_c, 0, 72, 60
1, 61195, Control_c, 0, 64, 76
1, 61195, Control_c, 0, 67, 48
1, 61210, Control_c, 0, 64, 66
1, 61210, Control_c, 0, 67, 46
1, 61213, Note_on_c, 0, 69, 39
1, 61221, Note_on_c, 0, 53, 41
1, 61225, Control_c, 0, 64, 58
1, 61225, Control_c, 0, 67, 44
1, 61239, Control_c, 0, 64, 56
1, 61239, Control_c, 0, 67, 41
1, 61254, Control_c, 0, 64, 61
1, 61254, Control_c, 0, 67, 37
1, 61269, Control_c, 0, 64, 66
1, 61269, Control_c, 0, 67, 33
1, 61283, Note_off_c, 0, 53, 55
1, 61284, Control_c, 0, 64, 73
1, 61284, Control_c, 0, 67, 27
1, 61286, Note_off_c, 0, 69, 0
1, 61286, Note_on_c, 0, 69, 11
1, 61298, Control_c, 0, 64, 80
1, 61298, Control_c, 0, 67, 20
1, 61313, Control_c, 0, 64, 86
1, 61313, Control_c, 0, 67, 13
1, 61319, Note_off_c, 0, 72, 58
1, 61328, Control_c, 0, 64, 90
1, 61328, Control_c, 0, 67, 9
1, 61343, Control_c, 0, 64, 93
1, 61343, Control_c, 0, 67, 8
1, 61357, Control_c, 0, 64, 97
1, 61357, Control_c, 0, 67, 0
1, 61372, Control_c, 0, 64, 101
1, 61387, Control_c, 0, 64, 103
1, 61402, Control_c, 0, 64, 104
1, 61431, Control_c, 0, 64, 105
1, 61476, Control_c, 0, 64, 104
1, 61512, Note_on_c, 0, 74, 60
1, 61513, Control_c, 0, 64, 100
1, 61528, Control_c, 0, 64, 91
1, 61531, Note_on_c, 0, 57, 47
1, 61540, Note_on_c, 0, 65, 41
1, 61543, Control_c, 0, 64, 80
1, 61558, Control_c, 0, 64, 67
1, 61568, Note_off_c, 0, 57, 63
1, 61572, Control_c, 0, 64, 48
1, 61577, Note_off_c, 0, 65, 55
1, 61587, Control_c, 0, 64, 0
1, 61619, Note_on_c, 0, 72, 63
1, 61620, Note_off_c, 0, 74, 51
1, 61655, Note_off_c, 0, 72, 61
1, 61658, Note_off_c, 0, 69, 48
1, 61692, Control_c, 0, 67, 8
1, 61707, Control_c, 0, 67, 9
1, 61736, Control_c, 0, 67, 9
1, 61741, Note_on_c, 0, 72, 60
1, 61746, Note_on_c, 0, 69, 46
1, 61752, Note_on_c, 0, 60, 53
1, 61766, Control_c, 0, 67, 10
1, 61781, Control_c, 0, 67, 11
1, 61783, Note_off_c, 0, 60, 66
1, 61784, Note_off_c, 0, 72, 55
1, 61795, Control_c, 0, 67, 13
1, 61801, Note_off_c, 0, 69, 55
1, 61810, Control_c, 0, 67, 15
1, 61825, Control_c, 0, 67, 16
1, 61839, Note_on_c, 0, 77, 65
1, 61840, Control_c, 0, 67, 18
1, 61855, Control_c, 0, 67, 18
1, 61869, Control_c, 0, 67, 19
1, 61880, Note_off_c, 0, 77, 61
1, 61884, Control_c, 0, 67, 21
1, 61899, Control_c, 0, 67, 22
1, 61914, Control_c, 0, 67, 23
1, 61929, Control_c, 0, 67, 24
1, 61944, Control_c, 0, 67, 26
1, 61959, Control_c, 0, 67, 28
1, 61968, Note_on_c, 0, 76, 58
1, 61974, Control_c, 0, 64, 18
1, 61974, Control_c, 0, 67, 29
1, 61988, Control_c, 0, 64, 31
1, 61988, Control_c, 0, 67, 31
1, 61990, Note_on_c, 0, 48, 34
1, 61995, Note_on_c, 0, 67, 49
1, 62003, Control_c, 0, 64, 37
1, 62003, Control_c, 0, 67, 33
1, 62018, Control_c, 0, 64, 47
1, 62018, Control_c, 0, 67, 35
1, 62024, Note_off_c, 0, 48, 33
1, 62033, Control_c, 0, 64, 56
1, 62033, Control_c, 0, 67, 37
1, 62048, Control_c, 0, 64, 61
1, 62048, Control_c, 0, 67, 39
1, 62062, Control_c, 0, 64, 64
1, 62062, Control_c, 0, 67, 41
1, 62077, Control_c, 0, 64, 67
1, 62077, Control_c, 0, 67, 44
1, 62092, Control_c, 0, 64, 69
1, 62092, Control_c, 0, 67, 47
1, 62106, Control_c, 0, 64, 71
1, 62106, Control_c, 0, 67, 49
1, 62121, Control_c, 0, 64, 72
1, 62121, Control_c, 0, 67, 52
1, 62136, Control_c, 0, 67, 55
1, 62151, Control_c, 0, 67, 58
1, 62166, Control_c, 0, 67, 62
1, 62180, Control_c, 0, 67, 67
1, 62195, Control_c, 0, 67, 70
1, 62210, Control_c, 0, 64, 72
1, 62210, Control_c, 0, 67, 74
1, 62225, Control_c, 0, 64, 69
1, 62225, Control_c, 0, 67, 77
1, 62239, Control_c, 0, 64, 63
1, 62239, Control_c, 0, 67, 80
1, 62262, Note_on_c, 0, 72, 55
1, 62262, Control_c, 0, 64, 50
1, 62262, Control_c, 0, 67, 83
1, 62265, Note_off_c, 0, 76, 55
1, 62277, Control_c, 0, 64, 0
1, 62277, Control_c, 0, 67, 86
1, 62281, Note_on_c, 0, 55, 41
1, 62290, Note_on_c, 0, 64, 34
1, 62292, Control_c, 0, 67, 90
1, 62307, Control_c, 0, 67, 93
1, 62314, Note_off_c, 0, 72, 59
1, 62317, Note_off_c, 0, 55, 65
1, 62321, Control_c, 0, 67, 96
1, 62323, Note_off_c, 0, 64, 59
1, 62336, Control_c, 0, 67, 100
1, 62351, Control_c, 0, 67, 103
1, 62366, Control_c, 0, 67, 106
1, 62381, Control_c, 0, 67, 110
1, 62395, Control_c, 0, 67, 113
1, 62410, Control_c, 0, 67, 116
1, 62425, Control_c, 0, 67, 119
1, 62439, Control_c, 0, 67, 122
1, 62454, Control_c, 0, 67, 125
1, 62469, Control_c, 0, 67, 127
1, 62544, Control_c, 0, 64, 13
1, 62559, Control_c, 0, 64, 41
1, 62565, Note_on_c, 0, 72, 49
1, 62574, Control_c, 0, 64, 55
1, 62579, Note_on_c, 0, 64, 36
1, 62589, Note_on_c, 0, 60, 37
1, 62589, Control_c, 0, 64, 62
1, 62604, Control_c, 0, 64, 65
1, 62613, Note_off_c, 0, 67, 58
1, 62618, Note_off_c, 0, 72, 58
1, 62618, Control_c, 0, 64, 68
1, 62623, Note_off_c, 0, 64, 64
1, 62630, Note_off_c, 0, 60, 64
1, 62633, Control_c, 0, 64, 70
1, 62648, Control_c, 0, 64, 74
1, 62662, Control_c, 0, 64, 77
1, 62677, Control_c, 0, 64, 80
1, 62692, Control_c, 0, 64, 83
1, 62707, Control_c, 0, 64, 85
1, 62722, Control_c, 0, 64, 87
1, 62737, Control_c, 0, 64, 88
1, 62768, Note_on_c, 0, 70, 53
1, 62809, Note_off_c, 0, 70, 60
1, 62832, Note_on_c, 0, 72, 51
1, 62855, Control_c, 0, 64, 85
1, 62870, Control_c, 0, 64, 79
1, 62885, Control_c, 0, 64, 68
1, 62900, Control_c, 0, 64, 53
1, 62901, Note_off_c, 0, 72, 55
1, 62905, Note_on_c, 0, 67, 44
1, 62915, Control_c, 0, 64, 15
1, 62916, Note_on_c, 0, 70, 52
1, 62929, Control_c, 0, 64, 0
1, 62930, Note_on_c, 0, 43, 46
1, 62942, Note_off_c, 0, 70, 64
1, 62966, Note_off_c, 0, 43, 63
1, 63093, Note_on_c, 0, 69, 53
1, 63127, Note_off_c, 0, 69, 63
1, 63228, Note_on_c, 0, 70, 60
1, 63238, Note_on_c, 0, 55, 49
1, 63245, Note_on_c, 0, 62, 46
1, 63257, Note_off_c, 0, 70, 65
1, 63272, Note_off_c, 0, 55, 64
1, 63277, Note_off_c, 0, 62, 63
1, 63342, Note_on_c, 0, 74, 60
1, 63378, Note_off_c, 0, 74, 62
1, 63461, Note_on_c, 0, 72, 61
1, 63476, Note_on_c, 0, 58, 53
1, 63494, Note_on_c, 0, 62, 24
1, 63499, Note_off_c, 0, 67, 24
1, 63501, Note_off_c, 0, 58, 63
1, 63501, Note_off_c, 0, 72, 56
1, 63532, Note_off_c, 0, 62, 31
1, 63562, Note_on_c, 0, 70, 67
1, 63595, Note_off_c, 0, 70, 60
1, 63694, Note_on_c, 0, 74, 59
1, 63708, Control_c, 0, 64, 35
1, 63717, Note_on_c, 0, 65, 41
1, 63721, Note_on_c, 0, 50, 38
1, 63723, Control_c, 0, 64, 52
1, 63738, Control_c, 0, 64, 59
1, 63738, Control_c, 0, 67, 125
1, 63759, Control_c, 0, 64, 62
1, 63759, Control_c, 0, 67, 121
1, 63774, Control_c, 0, 64, 64
1, 63774, Control_c, 0, 67, 116
1, 63780, Note_off_c, 0, 50, 57
1, 63789, Control_c, 0, 64, 67
1, 63789, Control_c, 0, 67, 111
1, 63804, Control_c, 0, 64, 69
1, 63804, Control_c, 0, 67, 106
1, 63819, Control_c, 0, 64, 72
1, 63819, Control_c, 0, 67, 101
1, 63834, Control_c, 0, 64, 76
1, 63834, Control_c, 0, 67, 96
1, 63849, Control_c, 0, 64, 78
1, 63849, Control_c, 0, 67, 91
1, 63864, Control_c, 0, 64, 80
1, 63864, Control_c, 0, 67, 86
1, 63879, Control_c, 0, 64, 80
1, 63879, Control_c, 0, 67, 79
1, 63893, Control_c, 0, 67, 72
1, 63908, Control_c, 0, 67, 66
1, 63923, Control_c, 0, 67, 62
1, 63938, Control_c, 0, 67, 57
1, 63953, Control_c, 0, 64, 78
1, 63953, Control_c, 0, 67, 52
1, 63967, Control_c, 0, 64, 72
1, 63967, Control_c, 0, 67, 47
1, 63982, Control_c, 0, 64, 63
1, 63982, Control_c, 0, 67, 42
1, 63995, Note_on_c, 0, 69, 47
1, 63997, Control_c, 0, 64, 48
1, 63997, Control_c, 0, 67, 37
1, 63998, Note_on_c, 0, 53, 48
1, 64005, Note_off_c, 0, 74, 55
1, 64010, Note_on_c, 0, 62, 32
1, 64011, Control_c, 0, 64, 0
1, 64011, Control_c, 0, 67, 33
1, 64026, Control_c, 0, 67, 26
1, 64033, Note_off_c, 0, 69, 62
1, 64034, Note_off_c, 0, 65, 56
1, 64034, Note_off_c, 0, 53, 65
1, 64041, Control_c, 0, 67, 18
1, 64046, Note_off_c, 0, 62, 54
1, 64056, Control_c, 0, 67, 11
1, 64071, Control_c, 0, 67, 10
1, 64102, Control_c, 0, 67, 9
1, 64116, Control_c, 0, 67, 0
1, 64263, Note_on_c, 0, 69, 54
1, 64272, Note_on_c, 0, 65, 39
1, 64277, Note_on_c, 0, 62, 38
1, 64282, Note_on_c, 0, 57, 45
1, 64310, Note_off_c, 0, 62, 59
1, 64314, Note_off_c, 0, 65, 62
1, 64316, Note_off_c, 0, 69, 62
1, 64320, Note_off_c, 0, 57, 62
1, 64549, Note_on_c, 0, 70, 62
1, 64553, Control_c, 0, 64, 31
1, 64568, Control_c, 0, 64, 50
1, 64571, Note_on_c, 0, 50, 37
1, 64577, Note_on_c, 0, 65, 44
1, 64582, Control_c, 0, 64, 59
1, 64597, Control_c, 0, 64, 64
1, 64612, Control_c, 0, 64, 68
1, 64624, Note_off_c, 0, 50, 52
1, 64627, Control_c, 0, 64, 73
1, 64642, Control_c, 0, 64, 80
1, 64657, Control_c, 0, 64, 86
1, 64671, Control_c, 0, 64, 91
1, 64686, Control_c, 0, 64, 95
1, 64701, Note_off_c, 0, 70, 61
1, 64701, Control_c, 0, 64, 97
1, 64716, Control_c, 0, 64, 97
1, 64731, Control_c, 0, 64, 98
1, 64776, Control_c, 0, 64, 97
1, 64805, Control_c, 0, 64, 96
1, 64820, Control_c, 0, 64, 88
1, 64822, Note_on_c, 0, 72, 68
1, 64834, Control_c, 0, 64, 77
1, 64838, Note_on_c, 0, 53, 45
1, 64843, Note_on_c, 0, 62, 47
1, 64849, Control_c, 0, 64, 66
1, 64864, Control_c, 0, 64, 50
1, 64869, Note_off_c, 0, 53, 57
1, 64880, Control_c, 0, 64, 18
1, 64895, Control_c, 0, 64, 0
1, 64898, Note_off_c, 0, 62, 56
1, 64929, Note_on_c, 0, 70, 73
1, 64954, Control_c, 0, 67, 8
1, 64958, Note_off_c, 0, 72, 33
1, 64967, Note_off_c, 0, 70, 61
1, 64969, Control_c, 0, 67, 9
1, 64984, Control_c, 0, 67, 10
1, 64999, Control_c, 0, 67, 10
1, 65047, Note_on_c, 0, 70, 73
1, 65054, Note_on_c, 0, 62, 33
1, 65057, Note_on_c, 0, 58, 52
1, 65080, Note_off_c, 0, 62, 55
1, 65087, Control_c, 0, 67, 11
1, 65092, Note_off_c, 0, 70, 56
1, 65095, Note_off_c, 0, 58, 63
1, 65117, Control_c, 0, 67, 11
1, 65140, Note_on_c, 0, 74, 68
1, 65173, Note_off_c, 0, 65, 59
1, 65184, Note_off_c, 0, 74, 64
1, 65191, Control_c, 0, 67, 11
1, 65205, Control_c, 0, 67, 10
1, 65220, Control_c, 0, 67, 9
1, 65235, Control_c, 0, 67, 8
1, 65257, Control_c, 0, 67, 0
1, 65268, Note_on_c, 0, 74, 59
1, 65287, Control_c, 0, 64, 47
1, 65297, Note_on_c, 0, 48, 43
1, 65302, Control_c, 0, 64, 62
1, 65314, Note_on_c, 0, 65, 45
1, 65317, Control_c, 0, 64, 67
1, 65331, Note_off_c, 0, 48, 58
1, 65331, Control_c, 0, 64, 73
1, 65346, Control_c, 0, 64, 79
1, 65361, Control_c, 0, 64, 84
1, 65376, Control_c, 0, 64, 88
1, 65390, Control_c, 0, 64, 91
1, 65405, Control_c, 0, 64, 94
1, 65420, Control_c, 0, 64, 95
1, 65509, Control_c, 0, 64, 94
1, 65524, Control_c, 0, 64, 86
1, 65539, Control_c, 0, 64, 72
1, 65542, Note_on_c, 0, 69, 60
1, 65554, Control_c, 0, 64, 59
1, 65555, Note_on_c, 0, 60, 42
1, 65557, Note_on_c, 0, 53, 49
1, 65569, Control_c, 0, 64, 27
1, 65569, Control_c, 0, 67, 9
1, 65571, Note_off_c, 0, 74, 53
1, 65579, Note_off_c, 0, 65, 57
1, 65579, Note_off_c, 0, 69, 60
1, 65582, Note_off_c, 0, 53, 58
1, 65583, Note_off_c, 0, 60, 55
1, 65583, Control_c, 0, 64, 0
1, 65583, Control_c, 0, 67, 11
1, 65598, Control_c, 0, 67, 12
1, 65613, Control_c, 0, 67, 13
1, 65628, Control_c, 0, 67, 14
1, 65643, Control_c, 0, 67, 15
1, 65657, Control_c, 0, 67, 15
1, 65688, Control_c, 0, 67, 16
1, 65703, Control_c, 0, 67, 17
1, 65718, Control_c, 0, 67, 17
1, 65733, Control_c, 0, 67, 18
1, 65747, Control_c, 0, 67, 19
1, 65762, Control_c, 0, 67, 19
1, 65777, Control_c, 0, 67, 20
1, 65778, Note_on_c, 0, 69, 59
1, 65789, Note_on_c, 0, 65, 45
1, 65792, Control_c, 0, 67, 20
1, 65805, Note_on_c, 0, 57, 45
1, 65805, Note_off_c, 0, 69, 66
1, 65806, Control_c, 0, 67, 21
1, 65811, Note_on_c, 0, 60, 34
1, 65825, Note_off_c, 0, 65, 61
1, 65831, Note_off_c, 0, 57, 59
1, 65833, Note_off_c, 0, 60, 47
1, 65836, Control_c, 0, 67, 21
1, 65866, Control_c, 0, 67, 22
1, 65923, Note_on_c, 0, 70, 63
1, 65940, Control_c, 0, 67, 21
1, 65956, Note_off_c, 0, 70, 62
1, 65973, Note_on_c, 0, 72, 58
1, 66036, Control_c, 0, 64, 41
1, 66036, Control_c, 0, 67, 21
1, 66048, Note_off_c, 0, 72, 60
1, 66051, Control_c, 0, 64, 55
1, 66056, Note_on_c, 0, 70, 60
1, 66060, Note_on_c, 0, 48, 48
1, 66066, Note_on_c, 0, 64, 49
1, 66066, Control_c, 0, 64, 57
1, 66080, Control_c, 0, 64, 58
1, 66084, Note_off_c, 0, 70, 66
1, 66095, Control_c, 0, 64, 58
1, 66101, Note_off_c, 0, 48, 60
1, 66110, Control_c, 0, 64, 59
1, 66125, Control_c, 0, 67, 21
1, 66169, Control_c, 0, 64, 58
1, 66184, Control_c, 0, 64, 57
1, 66184, Control_c, 0, 67, 22
1, 66196, Note_on_c, 0, 69, 60
1, 66199, Control_c, 0, 64, 53
1, 66213, Control_c, 0, 64, 44
1, 66213, Control_c, 0, 67, 22
1, 66228, Control_c, 0, 64, 27
1, 66228, Control_c, 0, 67, 23
1, 66231, Note_off_c, 0, 69, 61
1, 66243, Control_c, 0, 64, 0
1, 66287, Control_c, 0, 67, 23
1, 66332, Note_on_c, 0, 70, 60
1, 66332, Control_c, 0, 67, 24
1, 66344, Note_on_c, 0, 60, 41
1, 66350, Note_on_c, 0, 55, 41
1, 66362, Note_off_c, 0, 70, 64
1, 66377, Note_off_c, 0, 55, 60
1, 66380, Note_off_c, 0, 60, 61
1, 66461, Note_on_c, 0, 74, 60
1, 66500, Note_off_c, 0, 74, 59
1, 66515, Note_off_c, 0, 64, 39
1, 66585, Note_on_c, 0, 72, 56
1, 66597, Note_on_c, 0, 48, 48
1, 66611, Note_on_c, 0, 60, 11
1, 66636, Note_off_c, 0, 48, 61
1, 66654, Note_off_c, 0, 60, 39
1, 66655, Note_off_c, 0, 72, 46
1, 66659, Control_c, 0, 67, 23
1, 66673, Poly_aftertouch_c, 0, 64, 0
1, 66713, Note_on_c, 0, 70, 60
1, 66773, Note_off_c, 0, 70, 59
1, 66874, Control_c, 0, 67, 23
1, 66903, Control_c, 0, 67, 22
1, 66914, Note_on_c, 0, 69, 43
1, 66918, Control_c, 0, 67, 22
1, 66928, Note_on_c, 0, 65, 33
1, 66948, Control_c, 0, 64, 11
1, 66948, Control_c, 0, 67, 21
1, 66954, Note_on_c, 0, 53, 26
1, 66954, Note_on_c, 0, 60, 26
1, 66962, Control_c, 0, 64, 40
1, 66962, Control_c, 0, 67, 21
1, 66977, Control_c, 0, 64, 54
1, 66977, Control_c, 0, 67, 20
1, 66992, Control_c, 0, 64, 59
1, 66992, Control_c, 0, 67, 20
1, 67007, Control_c, 0, 64, 63
1, 67007, Control_c, 0, 67, 19
1, 67009, Note_off_c, 0, 60, 60
1, 67012, Note_off_c, 0, 53, 59
1, 67022, Control_c, 0, 64, 65
1, 67022, Control_c, 0, 67, 19
1, 67036, Control_c, 0, 64, 68
1, 67036, Control_c, 0, 67, 18
1, 67051, Control_c, 0, 64, 71
1, 67066, Control_c, 0, 64, 77
1, 67066, Control_c, 0, 67, 18
1, 67081, Control_c, 0, 64, 82
1, 67081, Control_c, 0, 67, 17
1, 67096, Control_c, 0, 64, 86
1, 67096, Control_c, 0, 67, 17
1, 67097, Note_off_c, 0, 65, 33
1, 67110, Control_c, 0, 64, 89
1, 67125, Control_c, 0, 64, 92
1, 67140, Control_c, 0, 64, 94
1, 67155, Control_c, 0, 64, 96
1, 67155, Control_c, 0, 67, 16
1, 67169, Control_c, 0, 64, 96
1, 67214, Control_c, 0, 67, 16
1, 67237, Note_off_c, 0, 69, 34
1, 67423, Control_c, 0, 64, 96
1, 67438, Control_c, 0, 64, 94
1, 67452, Control_c, 0, 64, 91
1, 67467, Control_c, 0, 64, 85
1, 67482, Control_c, 0, 64, 76
1, 67504, Control_c, 0, 64, 65
1, 67519, Control_c, 0, 64, 49
1, 67533, Control_c, 0, 64, 27
1, 67533, Control_c, 0, 67, 15
1, 67548, Control_c, 0, 64, 0
1, 67593, Control_c, 0, 67, 15
1, 67623, Control_c, 0, 64, 26
1, 67637, Control_c, 0, 64, 44
1, 67646, Note_on_c, 0, 72, 53
1, 67652, Control_c, 0, 64, 57
1, 67667, Control_c, 0, 64, 63
1, 67682, Control_c, 0, 64, 65
1, 67697, Control_c, 0, 64, 67
1, 67712, Control_c, 0, 64, 70
1, 67712, Control_c, 0, 67, 14
1, 67726, Control_c, 0, 64, 75
1, 67741, Control_c, 0, 64, 81
1, 67741, Control_c, 0, 67, 14
1, 67745, Note_off_c, 0, 72, 63
1, 67756, Control_c, 0, 64, 86
1, 67770, Control_c, 0, 64, 92
1, 67770, Control_c, 0, 67, 13
1, 67785, Control_c, 0, 64, 96
1, 67800, Control_c, 0, 64, 100
1, 67800, Control_c, 0, 67, 13
1, 67815, Control_c, 0, 64, 105
1, 67830, Control_c, 0, 64, 110
1, 67846, Control_c, 0, 64, 115
1, 67860, Control_c, 0, 64, 122
1, 67875, Control_c, 0, 64, 127
1, 67890, Control_c, 0, 67, 12
1, 68014, Note_on_c, 0, 72, 60
1, 68023, Control_c, 0, 64, 117
1, 68038, Control_c, 0, 64, 101
1, 68039, Note_on_c, 0, 69, 46
1, 68052, Control_c, 0, 64, 86
1, 68067, Note_on_c, 0, 53, 39
1, 68067, Control_c, 0, 64, 72
1, 68083, Control_c, 0, 64, 59
1, 68098, Control_c, 0, 64, 55
1, 68113, Control_c, 0, 64, 59
1, 68128, Control_c, 0, 64, 64
1, 68143, Control_c, 0, 64, 70
1, 68143, Control_c, 0, 67, 12
1, 68157, Control_c, 0, 64, 78
1, 68157, Control_c, 0, 67, 11
1, 68172, Control_c, 0, 64, 88
1, 68172, Control_c, 0, 67, 11
1, 68187, Control_c, 0, 64, 97
1, 68187, Control_c, 0, 67, 10
1, 68201, Control_c, 0, 64, 102
1, 68201, Control_c, 0, 67, 9
1, 68216, Control_c, 0, 64, 109
1, 68216, Control_c, 0, 67, 8
1, 68223, Note_off_c, 0, 53, 40
1, 68231, Control_c, 0, 64, 127
1, 68231, Control_c, 0, 67, 8
1, 68254, Control_c, 0, 67, 0
1, 68283, Note_off_c, 0, 72, 56
1, 68430, Note_on_c, 0, 74, 63
1, 68431, Control_c, 0, 67, 8
1, 68446, Control_c, 0, 67, 8
1, 68448, Note_on_c, 0, 57, 41
1, 68459, Note_on_c, 0, 65, 34
1, 68461, Control_c, 0, 67, 9
1, 68475, Control_c, 0, 67, 9
1, 68490, Control_c, 0, 67, 10
1, 68495, Note_off_c, 0, 57, 58
1, 68495, Note_off_c, 0, 69, 58
1, 68504, Note_off_c, 0, 65, 52
1, 68520, Control_c, 0, 67, 10
1, 68550, Control_c, 0, 67, 11
1, 68550, Note_on_c, 0, 72, 71
1, 68565, Control_c, 0, 67, 11
1, 68571, Note_off_c, 0, 74, 63
1, 68579, Control_c, 0, 67, 12
1, 68601, Note_off_c, 0, 72, 62
1, 68608, Control_c, 0, 67, 12
1, 68623, Control_c, 0, 67, 13
1, 68638, Control_c, 0, 67, 13
1, 68653, Control_c, 0, 67, 14
1, 68668, Control_c, 0, 64, 104
1, 68668, Control_c, 0, 67, 14
1, 68670, Note_on_c, 0, 72, 65
1, 68682, Control_c, 0, 64, 84
1, 68682, Control_c, 0, 67, 15
1, 68687, Note_on_c, 0, 69, 56
1, 68689, Note_on_c, 0, 60, 50
1, 68696, Note_on_c, 0, 65, 35
1, 68697, Control_c, 0, 64, 66
1, 68697, Control_c, 0, 67, 16
1, 68712, Control_c, 0, 64, 49
1, 68712, Control_c, 0, 67, 16
1, 68713, Note_off_c, 0, 72, 66
1, 68721, Note_off_c, 0, 60, 55
1, 68725, Note_off_c, 0, 65, 50
1, 68726, Control_c, 0, 64, 18
1, 68741, Control_c, 0, 64, 0
1, 68741, Control_c, 0, 67, 17
1, 68771, Control_c, 0, 67, 17
1, 68783, Note_on_c, 0, 81, 76
1, 68800, Control_c, 0, 67, 18
1, 68824, Note_off_c, 0, 69, 30
1, 68835, Note_off_c, 0, 81, 61
1, 68891, Control_c, 0, 67, 17
1, 68935, Control_c, 0, 67, 17
1, 68940, Note_on_c, 0, 79, 66
1, 68946, Note_on_c, 0, 70, 61
1, 68949, Control_c, 0, 67, 16
1, 68958, Note_on_c, 0, 52, 36
1, 68964, Control_c, 0, 64, 36
1, 68964, Control_c, 0, 67, 16
1, 68979, Control_c, 0, 64, 56
1, 68979, Control_c, 0, 67, 15
1, 69002, Control_c, 0, 64, 65
1, 69002, Control_c, 0, 67, 15
1, 69017, Control_c, 0, 64, 69
1, 69029, Note_off_c, 0, 52, 41
1, 69031, Control_c, 0, 64, 74
1, 69031, Control_c, 0, 67, 14
1, 69046, Control_c, 0, 64, 83
1, 69061, Control_c, 0, 64, 93
1, 69076, Control_c, 0, 64, 104
1, 69091, Control_c, 0, 64, 118
1, 69105, Control_c, 0, 64, 127
1, 69105, Control_c, 0, 67, 14
1, 69164, Control_c, 0, 67, 14
1, 69198, Note_off_c, 0, 70, 52
1, 69223, Control_c, 0, 67, 15
1, 69253, Control_c, 0, 67, 15
1, 69268, Control_c, 0, 67, 16
1, 69270, Note_on_c, 0, 72, 56
1, 69275, Note_off_c, 0, 79, 39
1, 69283, Control_c, 0, 67, 18
1, 69292, Note_on_c, 0, 58, 46
1, 69298, Control_c, 0, 64, 95
1, 69298, Control_c, 0, 67, 19
1, 69306, Note_on_c, 0, 67, 45
1, 69313, Control_c, 0, 64, 75
1, 69313, Control_c, 0, 67, 20
1, 69324, Note_off_c, 0, 72, 59
1, 69328, Control_c, 0, 64, 59
1, 69328, Control_c, 0, 67, 20
1, 69339, Note_off_c, 0, 58, 60
1, 69343, Control_c, 0, 64, 31
1, 69343, Control_c, 0, 67, 21
1, 69350, Note_off_c, 0, 67, 61
1, 69357, Control_c, 0, 64, 0
1, 69357, Control_c, 0, 67, 22
1, 69372, Control_c, 0, 67, 23
1, 69387, Control_c, 0, 67, 24
1, 69402, Control_c, 0, 67, 25
1, 69417, Control_c, 0, 67, 26
1, 69431, Control_c, 0, 67, 28
1, 69446, Control_c, 0, 67, 29
1, 69461, Control_c, 0, 67, 30
1, 69476, Control_c, 0, 67, 31
1, 69491, Control_c, 0, 67, 32
1, 69505, Control_c, 0, 67, 33
1, 69520, Control_c, 0, 67, 35
1, 69535, Control_c, 0, 67, 38
1, 69541, Note_on_c, 0, 72, 51
1, 69549, Control_c, 0, 67, 40
1, 69564, Control_c, 0, 67, 43
1, 69568, Note_on_c, 0, 67, 44
1, 69568, Note_on_c, 0, 70, 46
1, 69574, Note_on_c, 0, 60, 40
1, 69579, Control_c, 0, 67, 45
1, 69594, Control_c, 0, 67, 46
1, 69596, Note_off_c, 0, 67, 57
1, 69605, Note_off_c, 0, 70, 58
1, 69608, Note_off_c, 0, 60, 61
1, 69609, Control_c, 0, 67, 47
1, 69617, Note_off_c, 0, 72, 55
1, 69623, Control_c, 0, 67, 48
1, 69638, Control_c, 0, 67, 49
1, 69653, Control_c, 0, 67, 50
1, 69669, Control_c, 0, 67, 50
1, 69699, Control_c, 0, 67, 50
1, 69743, Control_c, 0, 67, 49
1, 69825, Note_on_c, 0, 72, 56
1, 69825, Control_c, 0, 67, 49
1, 69833, Note_on_c, 0, 53, 38
1, 69840, Control_c, 0, 67, 48
1, 69847, Note_on_c, 0, 69, 48
1, 69854, Control_c, 0, 64, 28
1, 69854, Control_c, 0, 67, 48
1, 69869, Control_c, 0, 64, 54
1, 69869, Control_c, 0, 67, 47
1, 69884, Control_c, 0, 64, 65
1, 69884, Control_c, 0, 67, 46
1, 69894, Note_off_c, 0, 53, 54
1, 69899, Control_c, 0, 64, 71
1, 69899, Control_c, 0, 67, 45
1, 69914, Control_c, 0, 64, 80
1, 69928, Control_c, 0, 64, 91
1, 69943, Control_c, 0, 64, 101
1, 69943, Control_c, 0, 67, 45
1, 69958, Control_c, 0, 64, 108
1, 69958, Control_c, 0, 67, 44
1, 69972, Control_c, 0, 64, 118
1, 69975, Note_off_c, 0, 72, 59
1, 69987, Control_c, 0, 64, 127
1, 69987, Control_c, 0, 67, 44
1, 70017, Control_c, 0, 67, 44
1, 70046, Control_c, 0, 67, 45
1, 70076, Control_c, 0, 67, 45
1, 70100, Note_on_c, 0, 74, 63
1, 70106, Control_c, 0, 67, 46
1, 70114, Note_on_c, 0, 65, 45
1, 70115, Note_on_c, 0, 57, 41
1, 70135, Control_c, 0, 67, 46
1, 70147, Note_off_c, 0, 57, 53
1, 70150, Control_c, 0, 67, 47
1, 70162, Note_off_c, 0, 65, 57
1, 70165, Control_c, 0, 67, 47
1, 70180, Control_c, 0, 64, 117
1, 70180, Control_c, 0, 67, 48
1, 70195, Control_c, 0, 64, 101
1, 70195, Control_c, 0, 67, 48
1, 70209, Note_on_c, 0, 72, 76
1, 70210, Control_c, 0, 64, 89
1, 70223, Note_off_c, 0, 74, 63
1, 70225, Control_c, 0, 64, 76
1, 70240, Control_c, 0, 64, 65
1, 70240, Control_c, 0, 67, 49
1, 70254, Control_c, 0, 64, 50
1, 70257, Note_off_c, 0, 72, 62
1, 70269, Control_c, 0, 64, 22
1, 70269, Control_c, 0, 67, 49
1, 70284, Control_c, 0, 64, 0
1, 70298, Control_c, 0, 67, 50
1, 70338, Note_on_c, 0, 72, 71
1, 70343, Control_c, 0, 67, 50
1, 70349, Note_on_c, 0, 60, 51
1, 70379, Note_off_c, 0, 72, 64
1, 70387, Control_c, 0, 67, 51
1, 70392, Note_off_c, 0, 60, 64
1, 70417, Control_c, 0, 67, 51
1, 70432, Control_c, 0, 67, 52
1, 70443, Note_on_c, 0, 81, 72
1, 70446, Control_c, 0, 67, 54
1, 70462, Control_c, 0, 67, 55
1, 70477, Control_c, 0, 67, 56
1, 70499, Control_c, 0, 67, 57
1, 70504, Note_off_c, 0, 81, 61
1, 70512, Note_off_c, 0, 69, 43
1, 70514, Control_c, 0, 67, 58
1, 70529, Control_c, 0, 67, 59
1, 70544, Control_c, 0, 67, 61
1, 70559, Control_c, 0, 67, 62
1, 70574, Control_c, 0, 67, 63
1, 70589, Control_c, 0, 67, 65
1, 70620, Note_on_c, 0, 77, 61
1, 70631, Note_on_c, 0, 69, 45
1, 70633, Control_c, 0, 67, 65
1, 70642, Note_on_c, 0, 50, 40
1, 70648, Control_c, 0, 64, 44
1, 70663, Control_c, 0, 64, 58
1, 70677, Control_c, 0, 64, 64
1, 70684, Note_off_c, 0, 50, 63
1, 70692, Control_c, 0, 64, 68
1, 70692, Control_c, 0, 67, 66
1, 70707, Control_c, 0, 64, 72
1, 70721, Control_c, 0, 64, 78
1, 70721, Control_c, 0, 67, 67
1, 70736, Control_c, 0, 64, 86
1, 70736, Control_c, 0, 67, 67
1, 70751, Control_c, 0, 64, 90
1, 70751, Control_c, 0, 67, 68
1, 70766, Control_c, 0, 64, 94
1, 70781, Control_c, 0, 64, 98
1, 70781, Control_c, 0, 67, 68
1, 70795, Control_c, 0, 64, 101
1, 70795, Control_c, 0, 67, 69
1, 70810, Control_c, 0, 64, 104
1, 70810, Control_c, 0, 67, 70
1, 70825, Control_c, 0, 64, 104
1, 70825, Control_c, 0, 67, 71
1, 70840, Control_c, 0, 64, 105
1, 70840, Control_c, 0, 67, 72
1, 70855, Control_c, 0, 67, 74
1, 70869, Control_c, 0, 67, 74
1, 70884, Control_c, 0, 64, 104
1, 70884, Control_c, 0, 67, 75
1, 70899, Control_c, 0, 67, 76
1, 70914, Control_c, 0, 64, 100
1, 70914, Control_c, 0, 67, 76
1, 70928, Control_c, 0, 64, 87
1, 70943, Note_on_c, 0, 74, 55
1, 70943, Control_c, 0, 64, 74
1, 70943, Control_c, 0, 67, 77
1, 70949, Note_on_c, 0, 57, 48
1, 70958, Control_c, 0, 64, 62
1, 70958, Control_c, 0, 67, 77
1, 70973, Control_c, 0, 64, 42
1, 70977, Note_on_c, 0, 65, 34
1, 70988, Note_off_c, 0, 57, 55
1, 70988, Control_c, 0, 64, 0
1, 70988, Control_c, 0, 67, 78
1, 70989, Note_off_c, 0, 74, 59
1, 70991, Note_off_c, 0, 77, 34
1, 71005, Note_off_c, 0, 65, 58
1, 71028, Note_off_c, 0, 69, 54
1, 71033, Control_c, 0, 67, 78
1, 71063, Control_c, 0, 67, 79
1, 71077, Control_c, 0, 67, 80
1, 71092, Control_c, 0, 67, 80
1, 71107, Control_c, 0, 67, 81
1, 71166, Control_c, 0, 67, 81
1, 71181, Control_c, 0, 67, 82
1, 71195, Control_c, 0, 67, 82
1, 71210, Control_c, 0, 67, 83
1, 71225, Control_c, 0, 67, 83
1, 71247, Control_c, 0, 67, 84
1, 71257, Note_on_c, 0, 74, 50
1, 71262, Control_c, 0, 67, 84
1, 71271, Note_on_c, 0, 69, 42
1, 71278, Control_c, 0, 67, 85
1, 71284, Note_on_c, 0, 65, 31
1, 71289, Note_on_c, 0, 62, 43
1, 71293, Control_c, 0, 67, 85
1, 71307, Control_c, 0, 67, 86
1, 71310, Note_off_c, 0, 74, 58
1, 71318, Note_off_c, 0, 65, 58
1, 71319, Note_off_c, 0, 69, 58
1, 71322, Control_c, 0, 67, 87
1, 71324, Note_off_c, 0, 62, 66
1, 71337, Control_c, 0, 67, 88
1, 71352, Control_c, 0, 67, 89
1, 71367, Control_c, 0, 67, 90
1, 71382, Control_c, 0, 67, 91
1, 71396, Control_c, 0, 67, 91
1, 71426, Control_c, 0, 67, 92
1, 71441, Control_c, 0, 67, 92
1, 71471, Control_c, 0, 67, 93
1, 71566, Note_on_c, 0, 72, 50
1, 71572, Note_on_c, 0, 69, 40
1, 71574, Control_c, 0, 64, 29
1, 71578, Note_on_c, 0, 53, 42
1, 71590, Control_c, 0, 64, 53
1, 71605, Control_c, 0, 64, 63
1, 71605, Control_c, 0, 67, 92
1, 71619, Control_c, 0, 64, 66
1, 71628, Note_off_c, 0, 53, 57
1, 71634, Control_c, 0, 64, 69
1, 71649, Control_c, 0, 64, 74
1, 71649, Control_c, 0, 67, 92
1, 71664, Control_c, 0, 64, 80
1, 71678, Control_c, 0, 64, 83
1, 71678, Control_c, 0, 67, 91
1, 71693, Control_c, 0, 64, 84
1, 71693, Control_c, 0, 67, 90
1, 71708, Control_c, 0, 67, 90
1, 71711, Note_off_c, 0, 72, 34
1, 71752, Control_c, 0, 67, 89
1, 71767, Control_c, 0, 64, 82
1, 71782, Control_c, 0, 64, 75
1, 71797, Control_c, 0, 64, 65
1, 71812, Control_c, 0, 64, 51
1, 71826, Control_c, 0, 64, 31
1, 71841, Control_c, 0, 64, 0
1, 71847, Note_on_c, 0, 74, 58
1, 71848, Note_on_c, 0, 57, 46
1, 71856, Note_on_c, 0, 65, 35
1, 71856, Control_c, 0, 67, 90
1, 71885, Note_off_c, 0, 57, 63
1, 71885, Control_c, 0, 67, 91
1, 71898, Note_off_c, 0, 65, 55
1, 71900, Control_c, 0, 67, 91
1, 71915, Control_c, 0, 67, 92
1, 71954, Note_on_c, 0, 72, 60
1, 71963, Note_off_c, 0, 74, 53
1, 71995, Note_off_c, 0, 72, 64
1, 72012, Control_c, 0, 67, 92
1, 72072, Control_c, 0, 67, 93
1, 72082, Note_on_c, 0, 72, 70
1, 72095, Note_on_c, 0, 60, 42
1, 72101, Control_c, 0, 67, 93
1, 72103, Note_on_c, 0, 65, 36
1, 72118, Note_off_c, 0, 72, 59
1, 72120, Note_off_c, 0, 60, 54
1, 72143, Note_off_c, 0, 65, 59
1, 72146, Control_c, 0, 67, 94
1, 72161, Control_c, 0, 67, 94
1, 72175, Control_c, 0, 67, 95
1, 72184, Note_off_c, 0, 69, 42
1, 72193, Note_on_c, 0, 81, 69
1, 72231, Note_off_c, 0, 81, 61
1, 72235, Control_c, 0, 67, 95
1, 72264, Control_c, 0, 67, 96
1, 72279, Control_c, 0, 67, 96
1, 72294, Control_c, 0, 67, 98
1, 72309, Control_c, 0, 67, 100
1, 72323, Control_c, 0, 67, 102
1, 72338, Control_c, 0, 67, 103
1, 72353, Control_c, 0, 67, 104
1, 72368, Control_c, 0, 67, 105
1, 72386, Note_on_c, 0, 84, 63
1, 72398, Control_c, 0, 64, 20
1, 72412, Note_on_c, 0, 72, 43
1, 72413, Control_c, 0, 64, 43
1, 72416, Note_on_c, 0, 57, 19
1, 72428, Control_c, 0, 64, 57
1, 72442, Control_c, 0, 64, 62
1, 72457, Control_c, 0, 64, 66
1, 72461, Note_off_c, 0, 57, 47
1, 72472, Control_c, 0, 64, 69
1, 72487, Control_c, 0, 64, 72
1, 72487, Control_c, 0, 67, 104
1, 72501, Control_c, 0, 64, 77
1, 72516, Control_c, 0, 64, 81
1, 72516, Control_c, 0, 67, 104
1, 72531, Control_c, 0, 64, 84
1, 72546, Control_c, 0, 64, 86
1, 72561, Control_c, 0, 64, 87
1, 72634, Control_c, 0, 64, 84
1, 72649, Control_c, 0, 64, 77
1, 72664, Control_c, 0, 64, 64
1, 72679, Control_c, 0, 64, 44
1, 72693, Note_on_c, 0, 77, 52
1, 72693, Control_c, 0, 64, 0
1, 72702, Note_on_c, 0, 60, 44
1, 72708, Control_c, 0, 67, 104
1, 72721, Note_on_c, 0, 69, 35
1, 72721, Note_off_c, 0, 84, 57
1, 72725, Note_off_c, 0, 72, 55
1, 72730, Note_off_c, 0, 77, 61
1, 72732, Note_off_c, 0, 60, 64
1, 72756, Note_off_c, 0, 69, 54
1, 72951, Note_on_c, 0, 77, 56
1, 72964, Note_on_c, 0, 72, 35
1, 72976, Note_on_c, 0, 65, 43
1, 72979, Note_on_c, 0, 69, 32
1, 72988, Note_off_c, 0, 77, 59
1, 72990, Note_off_c, 0, 72, 55
1, 73000, Note_off_c, 0, 65, 61
1, 73002, Note_off_c, 0, 69, 49
1, 73013, Control_c, 0, 67, 105
1, 73175, Control_c, 0, 67, 104
1, 73189, Control_c, 0, 64, 11
1, 73202, Note_on_c, 0, 82, 59
1, 73204, Control_c, 0, 64, 45
1, 73204, Control_c, 0, 67, 104
1, 73208, Note_on_c, 0, 48, 45
1, 73218, Note_on_c, 0, 70, 43
1, 73219, Control_c, 0, 64, 59
1, 73234, Note_off_c, 0, 48, 51
1, 73234, Control_c, 0, 64, 64
1, 73234, Control_c, 0, 67, 103
1, 73248, Control_c, 0, 64, 67
1, 73263, Control_c, 0, 64, 71
1, 73278, Control_c, 0, 64, 75
1, 73293, Control_c, 0, 64, 79
1, 73307, Control_c, 0, 64, 80
1, 73322, Control_c, 0, 64, 81
1, 73382, Control_c, 0, 64, 79
1, 73382, Control_c, 0, 67, 104
1, 73397, Control_c, 0, 64, 72
1, 73412, Control_c, 0, 64, 62
1, 73426, Control_c, 0, 64, 40
1, 73441, Control_c, 0, 64, 0
1, 73456, Control_c, 0, 67, 104
1, 73460, Note_on_c, 0, 76, 55
1, 73479, Note_on_c, 0, 58, 41
1, 73494, Note_on_c, 0, 67, 42
1, 73500, Note_off_c, 0, 82, 52
1, 73504, Note_off_c, 0, 76, 61
1, 73508, Control_c, 0, 67, 105
1, 73514, Note_off_c, 0, 58, 57
1, 73516, Note_off_c, 0, 70, 55
1, 73521, Note_off_c, 0, 67, 58
1, 73753, Note_on_c, 0, 76, 48
1, 73766, Note_on_c, 0, 70, 44
1, 73769, Note_on_c, 0, 60, 39
1, 73774, Note_on_c, 0, 67, 42
1, 73790, Note_off_c, 0, 76, 61
1, 73790, Control_c, 0, 67, 105
1, 73805, Note_off_c, 0, 60, 64
1, 73807, Note_off_c, 0, 67, 64
1, 73807, Note_off_c, 0, 70, 56
1, 73879, Control_c, 0, 67, 105
1, 73968, Control_c, 0, 67, 104
1, 74042, Control_c, 0, 67, 104
1, 74071, Control_c, 0, 67, 103
1, 74086, Control_c, 0, 67, 103
1, 74101, Control_c, 0, 67, 102
1, 74106, Note_on_c, 0, 77, 45
1, 74112, Note_on_c, 0, 69, 33
1, 74116, Control_c, 0, 64, 10
1, 74116, Control_c, 0, 67, 101
1, 74131, Control_c, 0, 64, 36
1, 74131, Control_c, 0, 67, 101
1, 74137, Note_on_c, 0, 60, 33
1, 74142, Note_on_c, 0, 65, 23
1, 74145, Control_c, 0, 64, 51
1, 74145, Control_c, 0, 67, 100
1, 74148, Note_on_c, 0, 53, 17
1, 74160, Control_c, 0, 64, 59
1, 74160, Control_c, 0, 67, 99
1, 74175, Control_c, 0, 64, 62
1, 74175, Control_c, 0, 67, 97
1, 74190, Control_c, 0, 64, 66
1, 74190, Control_c, 0, 67, 96
1, 74205, Control_c, 0, 64, 70
1, 74205, Control_c, 0, 67, 94
1, 74218, Note_off_c, 0, 65, 55
1, 74219, Control_c, 0, 64, 76
1, 74219, Control_c, 0, 67, 92
1, 74233, Note_off_c, 0, 60, 55
1, 74233, Note_off_c, 0, 77, 62
1, 74242, Control_c, 0, 64, 83
1, 74242, Control_c, 0, 67, 89
1, 74257, Control_c, 0, 64, 89
1, 74257, Control_c, 0, 67, 85
1, 74271, Control_c, 0, 64, 95
1, 74271, Control_c, 0, 67, 81
1, 74286, Control_c, 0, 64, 101
1, 74286, Control_c, 0, 67, 75
1, 74301, Note_off_c, 0, 53, 23
1, 74301, Control_c, 0, 64, 108
1, 74301, Control_c, 0, 67, 70
1, 74316, Control_c, 0, 64, 114
1, 74316, Control_c, 0, 67, 64
1, 74324, Note_off_c, 0, 69, 57
1, 74331, Control_c, 0, 64, 118
1, 74331, Control_c, 0, 67, 57
1, 74345, Control_c, 0, 64, 121
1, 74345, Control_c, 0, 67, 49
1, 74360, Control_c, 0, 67, 41
1, 74375, Control_c, 0, 64, 122
1, 74375, Control_c, 0, 67, 34
1, 74389, Control_c, 0, 64, 124
1, 74389, Control_c, 0, 67, 24
1, 74404, Control_c, 0, 67, 16
1, 74419, Control_c, 0, 67, 8
1, 74434, Control_c, 0, 67, 0
1, 74673, Control_c, 0, 64, 122
1, 74687, Control_c, 0, 64, 118
1, 74702, Control_c, 0, 64, 105
1, 74717, Control_c, 0, 64, 91
1, 74717, Control_c, 0, 67, 8
1, 74732, Control_c, 0, 64, 77
1, 74732, Control_c, 0, 67, 9
1, 74747, Control_c, 0, 64, 65
1, 74747, Control_c, 0, 67, 11
1, 74762, Control_c, 0, 64, 52
1, 74762, Control_c, 0, 67, 14
1, 74777, Control_c, 0, 64, 41
1, 74777, Control_c, 0, 67, 16
1, 74792, Control_c, 0, 64, 33
1, 74792, Control_c, 0, 67, 19
1, 74807, Control_c, 0, 64, 25
1, 74807, Control_c, 0, 67, 20
1, 74821, Control_c, 0, 64, 0
1, 74821, Control_c, 0, 67, 22
1, 74836, Control_c, 0, 67, 24
1, 74851, Control_c, 0, 67, 26
1, 74866, Control_c, 0, 67, 28
1, 74881, Control_c, 0, 67, 30
1, 74895, Control_c, 0, 67, 33
1, 74910, Control_c, 0, 64, 26
1, 74910, Control_c, 0, 67, 36
1, 74925, Control_c, 0, 64, 42
1, 74925, Control_c, 0, 67, 41
1, 74940, Control_c, 0, 64, 54
1, 74940, Control_c, 0, 67, 46
1, 74955, Control_c, 0, 64, 59
1, 74955, Control_c, 0, 67, 51
1, 74956, Note_on_c, 0, 72, 40
1, 74969, Control_c, 0, 64, 62
1, 74969, Control_c, 0, 67, 57
1, 74991, Control_c, 0, 64, 63
1, 74991, Control_c, 0, 67, 64
1, 75006, Control_c, 0, 64, 65
1, 75006, Control_c, 0, 67, 69
1, 75021, Control_c, 0, 64, 68
1, 75021, Control_c, 0, 67, 73
1, 75036, Control_c, 0, 64, 70
1, 75036, Control_c, 0, 67, 76
1, 75045, Note_off_c, 0, 72, 57
1, 75051, Control_c, 0, 64, 74
1, 75051, Control_c, 0, 67, 79
1, 75066, Control_c, 0, 64, 77
1, 75066, Control_c, 0, 67, 82
1, 75081, Control_c, 0, 64, 80
1, 75081, Control_c, 0, 67, 86
1, 75095, Control_c, 0, 64, 83
1, 75095, Control_c, 0, 67, 90
1, 75110, Control_c, 0, 64, 86
1, 75110, Control_c, 0, 67, 94
1, 75125, Control_c, 0, 64, 88
1, 75125, Control_c, 0, 67, 98
1, 75140, Control_c, 0, 64, 90
1, 75140, Control_c, 0, 67, 101
1, 75155, Control_c, 0, 64, 92
1, 75155, Control_c, 0, 67, 105
1, 75169, Control_c, 0, 64, 93
1, 75169, Control_c, 0, 67, 110
1, 75184, Control_c, 0, 64, 94
1, 75184, Control_c, 0, 67, 115
1, 75199, Control_c, 0, 67, 120
1, 75213, Control_c, 0, 67, 124
1, 75228, Control_c, 0, 67, 127
1, 75304, Control_c, 0, 64, 93
1, 75318, Control_c, 0, 64, 92
1, 75332, Control_c, 0, 64, 87
1, 75341, Note_on_c, 0, 72, 47
1, 75347, Control_c, 0, 64, 79
1, 75362, Control_c, 0, 64, 69
1, 75368, Note_on_c, 0, 69, 40
1, 75377, Control_c, 0, 64, 59
1, 75391, Control_c, 0, 64, 50
1, 75392, Note_on_c, 0, 53, 33
1, 75406, Control_c, 0, 64, 49
1, 75421, Control_c, 0, 64, 53
1, 75436, Control_c, 0, 64, 59
1, 75450, Control_c, 0, 64, 65
1, 75462, Note_off_c, 0, 53, 55
1, 75465, Control_c, 0, 64, 71
1, 75475, Note_off_c, 0, 72, 56
1, 75480, Control_c, 0, 64, 79
1, 75495, Control_c, 0, 64, 85
1, 75510, Control_c, 0, 64, 88
1, 75525, Control_c, 0, 64, 89
1, 75540, Control_c, 0, 64, 91
1, 75555, Control_c, 0, 64, 92
1, 75570, Control_c, 0, 64, 93
1, 75584, Control_c, 0, 64, 94
1, 75673, Control_c, 0, 64, 92
1, 75688, Control_c, 0, 64, 86
1, 75703, Control_c, 0, 64, 75
1, 75716, Note_on_c, 0, 57, 44
1, 75716, Note_on_c, 0, 74, 51
1, 75718, Control_c, 0, 64, 66
1, 75739, Note_on_c, 0, 65, 35
1, 75740, Control_c, 0, 64, 54
1, 75755, Control_c, 0, 64, 37
1, 75770, Control_c, 0, 64, 0
1, 75780, Note_off_c, 0, 57, 57
1, 75789, Note_off_c, 0, 65, 55
1, 75808, Note_off_c, 0, 69, 40
1, 75834, Note_on_c, 0, 72, 59
1, 75841, Note_off_c, 0, 74, 59
1, 75884, Note_off_c, 0, 72, 64
1, 75969, Note_on_c, 0, 72, 51
1, 75974, Note_on_c, 0, 69, 49
1, 75984, Note_on_c, 0, 60, 45
1, 75990, Note_on_c, 0, 65, 35
1, 75991, Note_off_c, 0, 72, 64
1, 76020, Note_off_c, 0, 60, 63
1, 76022, Note_off_c, 0, 65, 56
1, 76080, Note_on_c, 0, 81, 64
1, 76106, Note_off_c, 0, 69, 50
1, 76125, Note_off_c, 0, 81, 59
1, 76244, Note_on_c, 0, 79, 60
1, 76266, Note_on_c, 0, 52, 43
1, 76274, Control_c, 0, 64, 37
1, 76275, Note_on_c, 0, 70, 48
1, 76289, Control_c, 0, 64, 54
1, 76304, Control_c, 0, 64, 61
1, 76319, Note_off_c, 0, 52, 55
1, 76319, Control_c, 0, 64, 64
1, 76333, Control_c, 0, 64, 67
1, 76348, Control_c, 0, 64, 72
1, 76363, Control_c, 0, 64, 78
1, 76378, Control_c, 0, 64, 85
1, 76392, Control_c, 0, 64, 90
1, 76407, Control_c, 0, 64, 95
1, 76422, Control_c, 0, 64, 99
1, 76437, Control_c, 0, 64, 103
1, 76452, Control_c, 0, 64, 104
1, 76515, Note_off_c, 0, 70, 34
1, 76519, Control_c, 0, 64, 104
1, 76534, Control_c, 0, 64, 99
1, 76548, Control_c, 0, 64, 86
1, 76559, Note_on_c, 0, 72, 54
1, 76563, Control_c, 0, 64, 71
1, 76574, Note_off_c, 0, 79, 31
1, 76578, Control_c, 0, 64, 54
1, 76579, Note_on_c, 0, 58, 45
1, 76592, Note_on_c, 0, 67, 39
1, 76592, Control_c, 0, 64, 22
1, 76607, Note_off_c, 0, 72, 63
1, 76607, Control_c, 0, 64, 0
1, 76625, Note_off_c, 0, 58, 61
1, 76636, Note_off_c, 0, 67, 60
1, 76835, Note_on_c, 0, 72, 53
1, 76846, Note_on_c, 0, 70, 50
1, 76853, Note_on_c, 0, 67, 43
1, 76854, Note_on_c, 0, 60, 43
1, 76881, Note_off_c, 0, 67, 57
1, 76890, Note_off_c, 0, 70, 58
1, 76891, Note_off_c, 0, 60, 61
1, 76893, Note_off_c, 0, 72, 53
1, 77101, Note_on_c, 0, 72, 52
1, 77111, Note_on_c, 0, 53, 41
1, 77124, Note_on_c, 0, 69, 42
1, 77127, Control_c, 0, 64, 38
1, 77142, Control_c, 0, 64, 57
1, 77154, Note_off_c, 0, 53, 59
1, 77157, Control_c, 0, 64, 64
1, 77171, Control_c, 0, 64, 68
1, 77186, Control_c, 0, 64, 73
1, 77201, Control_c, 0, 64, 80
1, 77215, Control_c, 0, 64, 86
1, 77238, Control_c, 0, 64, 91
1, 77253, Control_c, 0, 64, 93
1, 77263, Note_off_c, 0, 72, 33
1, 77268, Control_c, 0, 64, 95
1, 77283, Control_c, 0, 64, 96
1, 77357, Control_c, 0, 64, 94
1, 77371, Control_c, 0, 64, 86
1, 77386, Note_on_c, 0, 74, 60
1, 77386, Control_c, 0, 64, 75
1, 77395, Note_on_c, 0, 57, 50
1, 77397, Note_on_c, 0, 65, 45
1, 77401, Control_c, 0, 64, 64
1, 77415, Control_c, 0, 64, 47
1, 77430, Control_c, 0, 64, 12
1, 77442, Note_off_c, 0, 57, 60
1, 77445, Control_c, 0, 64, 0
1, 77458, Note_off_c, 0, 65, 52
1, 77497, Note_on_c, 0, 72, 63
1, 77505, Note_off_c, 0, 74, 63
1, 77540, Note_off_c, 0, 72, 65
1, 77623, Note_on_c, 0, 72, 67
1, 77645, Note_on_c, 0, 60, 51
1, 77646, Note_on_c, 0, 65, 12
1, 77662, Note_off_c, 0, 72, 59
1, 77674, Note_off_c, 0, 65, 32
1, 77688, Note_off_c, 0, 60, 62
1, 77735, Note_on_c, 0, 81, 66
1, 77769, Note_off_c, 0, 69, 36
1, 77771, Note_off_c, 0, 81, 58
1, 77898, Note_on_c, 0, 77, 55
1, 77907, Note_on_c, 0, 69, 42
1, 77920, Note_on_c, 0, 50, 42
1, 77920, Control_c, 0, 64, 38
1, 77935, Control_c, 0, 64, 55
1, 77949, Control_c, 0, 64, 63
1, 77963, Note_off_c, 0, 50, 64
1, 77964, Control_c, 0, 64, 66
1, 77987, Control_c, 0, 64, 69
1, 78002, Control_c, 0, 64, 74
1, 78017, Control_c, 0, 64, 79
1, 78032, Control_c, 0, 64, 85
1, 78046, Control_c, 0, 64, 88
1, 78061, Control_c, 0, 64, 93
1, 78076, Control_c, 0, 64, 96
1, 78091, Control_c, 0, 64, 99
1, 78106, Control_c, 0, 64, 100
1, 78120, Control_c, 0, 64, 100
1, 78179, Control_c, 0, 64, 100
1, 78194, Control_c, 0, 64, 97
1, 78209, Control_c, 0, 64, 88
1, 78224, Control_c, 0, 64, 75
1, 78231, Note_on_c, 0, 74, 56
1, 78238, Control_c, 0, 64, 62
1, 78241, Note_off_c, 0, 77, 47
1, 78244, Note_on_c, 0, 57, 44
1, 78253, Control_c, 0, 64, 35
1, 78268, Control_c, 0, 64, 0
1, 78272, Note_on_c, 0, 65, 27
1, 78284, Note_off_c, 0, 57, 59
1, 78288, Note_off_c, 0, 74, 57
1, 78303, Note_off_c, 0, 65, 50
1, 78547, Note_on_c, 0, 74, 50
1, 78568, Note_on_c, 0, 65, 28
1, 78578, Note_on_c, 0, 62, 41
1, 78593, Note_off_c, 0, 74, 58
1, 78602, Note_off_c, 0, 65, 58
1, 78604, Note_off_c, 0, 69, 58
1, 78617, Note_off_c, 0, 62, 66
1, 78866, Note_on_c, 0, 72, 47
1, 78876, Note_on_c, 0, 69, 28
1, 78877, Note_on_c, 0, 53, 41
1, 78884, Control_c, 0, 64, 46
1, 78899, Control_c, 0, 64, 62
1, 78914, Control_c, 0, 64, 69
1, 78920, Note_off_c, 0, 53, 61
1, 78929, Control_c, 0, 64, 74
1, 78944, Control_c, 0, 64, 82
1, 78959, Control_c, 0, 64, 87
1, 78974, Control_c, 0, 64, 90
1, 78988, Control_c, 0, 64, 91
1, 78990, Note_off_c, 0, 72, 30
1, 79062, Control_c, 0, 64, 89
1, 79076, Control_c, 0, 64, 81
1, 79091, Control_c, 0, 64, 69
1, 79106, Control_c, 0, 64, 55
1, 79120, Control_c, 0, 64, 37
1, 79135, Control_c, 0, 64, 20
1, 79137, Note_on_c, 0, 74, 55
1, 79150, Control_c, 0, 64, 0
1, 79154, Note_on_c, 0, 57, 41
1, 79155, Note_on_c, 0, 65, 40
1, 79188, Note_off_c, 0, 57, 62
1, 79201, Note_off_c, 0, 65, 57
1, 79249, Note_on_c, 0, 72, 64
1, 79254, Note_off_c, 0, 74, 63
1, 79284, Note_off_c, 0, 72, 61
1, 79372, Note_on_c, 0, 72, 67
1, 79384, Note_on_c, 0, 60, 50
1, 79396, Note_on_c, 0, 65, 39
1, 79403, Note_off_c, 0, 72, 63
1, 79411, Note_off_c, 0, 60, 64
1, 79428, Note_off_c, 0, 65, 59
1, 79489, Note_on_c, 0, 81, 69
1, 79500, Note_off_c, 0, 69, 44
1, 79520, Note_off_c, 0, 81, 61
1, 79643, Note_on_c, 0, 84, 61
1, 79670, Note_on_c, 0, 72, 49
1, 79671, Note_on_c, 0, 57, 36
1, 79677, Control_c, 0, 64, 44
1, 79692, Control_c, 0, 64, 61
1, 79704, Note_off_c, 0, 57, 56
1, 79707, Control_c, 0, 64, 66
1, 79722, Control_c, 0, 64, 70
1, 79736, Control_c, 0, 64, 74
1, 79751, Control_c, 0, 64, 80
1, 79766, Control_c, 0, 64, 84
1, 79781, Control_c, 0, 64, 86
1, 79840, Control_c, 0, 64, 81
1, 79855, Control_c, 0, 64, 68
1, 79870, Control_c, 0, 64, 46
1, 79884, Control_c, 0, 64, 0
1, 79913, Note_on_c, 0, 77, 58
1, 79925, Note_on_c, 0, 60, 46
1, 79932, Note_on_c, 0, 69, 45
1, 79938, Note_off_c, 0, 84, 59
1, 79952, Note_off_c, 0, 77, 58
1, 79956, Note_off_c, 0, 60, 65
1, 79957, Note_off_c, 0, 72, 45
1, 79971, Note_off_c, 0, 69, 63
1, 80177, Note_on_c, 0, 77, 54
1, 80184, Note_on_c, 0, 72, 46
1, 80199, Note_on_c, 0, 65, 38
1, 80199, Note_on_c, 0, 69, 31
1, 80211, Note_off_c, 0, 72, 63
1, 80211, Note_off_c, 0, 77, 61
1, 80229, Note_off_c, 0, 69, 52
1, 80230, Note_off_c, 0, 65, 57
1, 80445, Note_on_c, 0, 82, 55
1, 80449, Note_on_c, 0, 48, 41
1, 80454, Note_on_c, 0, 70, 47
1, 80455, Control_c, 0, 64, 38
1, 80470, Control_c, 0, 64, 56
1, 80485, Control_c, 0, 64, 63
1, 80494, Note_off_c, 0, 48, 63
1, 80500, Control_c, 0, 64, 67
1, 80515, Control_c, 0, 64, 70
1, 80530, Control_c, 0, 64, 74
1, 80545, Control_c, 0, 64, 77
1, 80559, Control_c, 0, 64, 79
1, 80574, Control_c, 0, 64, 81
1, 80589, Control_c, 0, 64, 82
1, 80604, Control_c, 0, 64, 83
1, 80678, Control_c, 0, 64, 81
1, 80693, Control_c, 0, 64, 76
1, 80707, Control_c, 0, 64, 64
1, 80722, Control_c, 0, 64, 48
1, 80734, Note_on_c, 0, 76, 51
1, 80737, Control_c, 0, 64, 0
1, 80742, Note_on_c, 0, 58, 43
1, 80755, Note_on_c, 0, 67, 39
1, 80765, Note_off_c, 0, 82, 51
1, 80778, Note_off_c, 0, 76, 58
1, 80780, Note_off_c, 0, 58, 63
1, 80789, Note_off_c, 0, 67, 59
1, 80791, Note_off_c, 0, 70, 50
1, 81059, Note_on_c, 0, 76, 45
1, 81069, Note_on_c, 0, 70, 40
1, 81072, Note_on_c, 0, 60, 36
1, 81080, Note_on_c, 0, 67, 32
1, 81104, Note_off_c, 0, 76, 58
1, 81119, Note_off_c, 0, 60, 62
1, 81124, Note_off_c, 0, 67, 63
1, 81132, Note_off_c, 0, 70, 57
1, 81475, Note_on_c, 0, 77, 43
1, 81495, Note_on_c, 0, 53, 26
1, 81496, Note_on_c, 0, 69, 31
1, 81498, Note_on_c, 0, 60, 29
1, 81500, Note_on_c, 0, 65, 24
1, 81501, Control_c, 0, 64, 28
1, 81516, Control_c, 0, 64, 45
1, 81531, Control_c, 0, 64, 53
1, 81546, Control_c, 0, 64, 57
1, 81561, Control_c, 0, 64, 60
1, 81575, Control_c, 0, 64, 63
1, 81590, Control_c, 0, 64, 66
1, 81605, Control_c, 0, 64, 70
1, 81620, Control_c, 0, 64, 76
1, 81635, Control_c, 0, 64, 83
1, 81645, Note_off_c, 0, 65, 34
1, 81651, Control_c, 0, 64, 89
1, 81666, Control_c, 0, 64, 94
1, 81668, Note_off_c, 0, 60, 35
1, 81680, Control_c, 0, 64, 98
1, 81681, Note_off_c, 0, 69, 34
1, 81691, Note_off_c, 0, 53, 59
1, 81695, Control_c, 0, 64, 103
1, 81698, Note_off_c, 0, 77, 43
1, 81710, Control_c, 0, 64, 108
1, 81731, Control_c, 0, 64, 117
1, 81746, Control_c, 0, 64, 127
1, 81746, Control_c, 0, 67, 124
1, 81761, Control_c, 0, 67, 119
1, 81776, Control_c, 0, 67, 113
1, 81791, Control_c, 0, 67, 104
1, 81806, Control_c, 0, 67, 96
1, 81821, Control_c, 0, 67, 89
1, 81836, Control_c, 0, 67, 81
1, 81850, Control_c, 0, 67, 73
1, 81865, Control_c, 0, 67, 65
1, 81880, Control_c, 0, 67, 57
1, 81895, Control_c, 0, 67, 48
1, 81910, Control_c, 0, 67, 39
1, 81925, Control_c, 0, 67, 30
1, 81939, Control_c, 0, 67, 20
1, 81954, Control_c, 0, 67, 10
1, 81969, Control_c, 0, 67, 8
1, 81984, Control_c, 0, 67, 0
1, 82146, Control_c, 0, 64, 100
1, 82161, Control_c, 0, 64, 82
1, 82176, Control_c, 0, 64, 66
1, 82191, Control_c, 0, 64, 48
1, 82205, Control_c, 0, 64, 0
1, 82295, Control_c, 0, 64, 12
1, 82310, Control_c, 0, 64, 28
1, 82324, Control_c, 0, 64, 42
1, 82339, Control_c, 0, 64, 51
1, 82354, Control_c, 0, 64, 57
1, 82369, Control_c, 0, 64, 61
1, 82383, Note_on_c, 0, 81, 73
1, 82384, Control_c, 0, 64, 63
1, 82397, Note_on_c, 0, 69, 59
1, 82398, Control_c, 0, 64, 67
1, 82413, Control_c, 0, 64, 73
1, 82428, Control_c, 0, 64, 85
1, 82443, Control_c, 0, 64, 99
1, 82453, Note_off_c, 0, 69, 59
1, 82459, Control_c, 0, 64, 115
1, 82481, Control_c, 0, 64, 127
1, 82502, Note_off_c, 0, 81, 62
1, 82762, Control_c, 0, 64, 89
1, 82769, Note_on_c, 0, 84, 85
1, 82776, Note_on_c, 0, 72, 75
1, 82777, Control_c, 0, 64, 68
1, 82792, Control_c, 0, 64, 50
1, 82798, Note_on_c, 0, 38, 54
1, 82798, Note_on_c, 0, 50, 52
1, 82807, Control_c, 0, 64, 32
1, 82822, Control_c, 0, 64, 38
1, 82836, Control_c, 0, 64, 61
1, 82849, Note_off_c, 0, 38, 60
1, 82851, Control_c, 0, 64, 81
1, 82866, Control_c, 0, 64, 127
1, 82882, Note_off_c, 0, 50, 62
1, 83029, Note_off_c, 0, 84, 55
1, 83045, Note_off_c, 0, 72, 57
1, 83194, Note_on_c, 0, 50, 56
1, 83197, Note_on_c, 0, 60, 55
1, 83199, Note_on_c, 0, 57, 58
1, 83241, Note_off_c, 0, 60, 62
1, 83277, Note_off_c, 0, 57, 61
1, 83323, Note_on_c, 0, 83, 76
1, 83324, Note_off_c, 0, 50, 59
1, 83328, Note_on_c, 0, 71, 72
1, 83347, Note_off_c, 0, 83, 66
1, 83356, Note_off_c, 0, 71, 65
1, 83425, Note_on_c, 0, 83, 80
1, 83434, Note_on_c, 0, 71, 81
1, 83457, Note_off_c, 0, 71, 66
1, 83459, Note_off_c, 0, 83, 61
1, 83523, Note_on_c, 0, 81, 83
1, 83530, Note_on_c, 0, 69, 82
1, 83540, Note_off_c, 0, 81, 72
1, 83556, Control_c, 0, 64, 88
1, 83559, Note_off_c, 0, 69, 65
1, 83569, Control_c, 0, 64, 63
1, 83584, Control_c, 0, 64, 25
1, 83599, Control_c, 0, 64, 0
1, 83629, Control_c, 0, 64, 32
1, 83637, Note_on_c, 0, 39, 69
1, 83639, Note_on_c, 0, 75, 85
1, 83643, Note_on_c, 0, 51, 68
1, 83643, Note_on_c, 0, 63, 83
1, 83644, Control_c, 0, 64, 59
1, 83658, Control_c, 0, 64, 79
1, 83659, Note_off_c, 0, 75, 69
1, 83661, Note_off_c, 0, 63, 70
1, 83669, Note_off_c, 0, 39, 64
1, 83673, Control_c, 0, 64, 109
1, 83674, Note_off_c, 0, 51, 65
1, 83688, Control_c, 0, 64, 127
1, 83889, Note_on_c, 0, 75, 84
1, 83892, Note_on_c, 0, 63, 78
1, 83909, Note_on_c, 0, 51, 63
1, 83909, Note_on_c, 0, 60, 63
1, 83910, Control_c, 0, 64, 78
1, 83916, Note_on_c, 0, 57, 62
1, 83925, Control_c, 0, 64, 53
1, 83937, Note_off_c, 0, 63, 64
1, 83940, Control_c, 0, 64, 0
1, 83944, Note_off_c, 0, 75, 60
1, 84137, Note_on_c, 0, 75, 82
1, 84147, Note_on_c, 0, 63, 72
1, 84157, Note_off_c, 0, 57, 60
1, 84161, Note_off_c, 0, 60, 61
1, 84168, Note_off_c, 0, 63, 68
1, 84187, Note_off_c, 0, 75, 64
1, 84224, Note_off_c, 0, 51, 61
1, 84379, Note_on_c, 0, 84, 89
1, 84384, Note_on_c, 0, 72, 82
1, 84387, Note_on_c, 0, 52, 76
1, 84388, Note_on_c, 0, 40, 79
1, 84408, Control_c, 0, 64, 69
1, 84420, Note_off_c, 0, 40, 69
1, 84423, Control_c, 0, 64, 96
1, 84424, Note_off_c, 0, 52, 63
1, 84438, Control_c, 0, 64, 127
1, 84473, Note_off_c, 0, 72, 56
1, 84494, Note_off_c, 0, 84, 63
1, 84697, Note_on_c, 0, 60, 74
1, 84698, Note_on_c, 0, 52, 67
1, 84701, Note_on_c, 0, 57, 74
1, 84776, Note_off_c, 0, 60, 61
1, 84799, Note_off_c, 0, 57, 63
1, 84816, Note_on_c, 0, 83, 78
1, 84820, Note_on_c, 0, 71, 76
1, 84829, Note_off_c, 0, 52, 62
1, 84843, Note_off_c, 0, 83, 64
1, 84846, Note_off_c, 0, 71, 65
1, 84916, Note_on_c, 0, 83, 85
1, 84922, Note_on_c, 0, 71, 88
1, 84949, Note_off_c, 0, 83, 59
1, 84956, Note_off_c, 0, 71, 65
1, 85004, Note_on_c, 0, 81, 94
1, 85010, Note_on_c, 0, 69, 87
1, 85023, Control_c, 0, 64, 84
1, 85038, Control_c, 0, 64, 59
1, 85042, Note_off_c, 0, 81, 62
1, 85043, Note_off_c, 0, 69, 64
1, 85053, Control_c, 0, 64, 0
1, 85103, Note_on_c, 0, 77, 91
1, 85107, Note_on_c, 0, 41, 78
1, 85110, Note_on_c, 0, 53, 89
1, 85112, Note_on_c, 0, 65, 86
1, 85112, Control_c, 0, 64, 29
1, 85127, Control_c, 0, 64, 65
1, 85131, Note_off_c, 0, 77, 66
1, 85132, Note_off_c, 0, 65, 69
1, 85142, Control_c, 0, 64, 86
1, 85147, Note_off_c, 0, 41, 63
1, 85149, Note_off_c, 0, 53, 64
1, 85156, Control_c, 0, 64, 127
1, 85217, Poly_aftertouch_c, 0, 70, 0
1, 85355, Note_on_c, 0, 77, 88
1, 85360, Note_on_c, 0, 65, 83
1, 85370, Note_on_c, 0, 60, 75
1, 85378, Note_on_c, 0, 57, 70
1, 85379, Control_c, 0, 64, 97
1, 85389, Note_on_c, 0, 53, 65
1, 85393, Control_c, 0, 64, 65
1, 85403, Note_off_c, 0, 65, 64
1, 85408, Control_c, 0, 64, 0
1, 85409, Note_off_c, 0, 77, 62
1, 85597, Note_on_c, 0, 77, 89
1, 85601, Note_on_c, 0, 65, 82
1, 85613, Note_off_c, 0, 60, 62
1, 85632, Note_off_c, 0, 57, 57
1, 85639, Note_off_c, 0, 65, 63
1, 85655, Note_off_c, 0, 77, 65
1, 85666, Note_off_c, 0, 53, 61
1, 85840, Note_on_c, 0, 84, 92
1, 85846, Note_on_c, 0, 72, 86
1, 85847, Note_on_c, 0, 54, 86
1, 85848, Note_on_c, 0, 42, 79
1, 85861, Control_c, 0, 64, 64
1, 85872, Note_off_c, 0, 42, 66
1, 85876, Control_c, 0, 64, 95
1, 85881, Note_on_c, 0, 74, 39
1, 85881, Note_off_c, 0, 54, 63
1, 85891, Control_c, 0, 64, 127
1, 85900, Note_off_c, 0, 72, 64
1, 85909, Note_off_c, 0, 74, 39
1, 85910, Note_off_c, 0, 84, 64
1, 86150, Note_on_c, 0, 54, 76
1, 86153, Note_on_c, 0, 63, 69
1, 86161, Note_on_c, 0, 60, 64
1, 86176, Note_off_c, 0, 63, 67
1, 86188, Note_off_c, 0, 60, 65
1, 86238, Note_off_c, 0, 54, 62
1, 86267, Note_on_c, 0, 83, 87
1, 86271, Note_on_c, 0, 71, 82
1, 86305, Note_off_c, 0, 83, 63
1, 86307, Note_off_c, 0, 71, 62
1, 86360, Note_on_c, 0, 83, 80
1, 86368, Note_on_c, 0, 71, 83
1, 86401, Note_off_c, 0, 83, 65
1, 86404, Note_off_c, 0, 71, 68
1, 86457, Note_on_c, 0, 81, 93
1, 86464, Note_on_c, 0, 69, 88
1, 86477, Control_c, 0, 64, 81
1, 86492, Control_c, 0, 64, 50
1, 86493, Note_off_c, 0, 81, 65
1, 86500, Note_off_c, 0, 69, 64
1, 86507, Control_c, 0, 64, 0
1, 86551, Note_on_c, 0, 79, 89
1, 86560, Note_on_c, 0, 43, 79
1, 86561, Note_on_c, 0, 67, 89
1, 86563, Note_on_c, 0, 55, 90
1, 86593, Note_off_c, 0, 43, 67
1, 86596, Control_c, 0, 64, 67
1, 86610, Control_c, 0, 64, 99
1, 86611, Note_off_c, 0, 55, 66
1, 86614, Note_off_c, 0, 67, 63
1, 86625, Control_c, 0, 64, 127
1, 86626, Note_off_c, 0, 79, 59
1, 86822, Note_on_c, 0, 79, 86
1, 86824, Note_on_c, 0, 55, 85
1, 86826, Note_on_c, 0, 64, 80
1, 86829, Note_on_c, 0, 67, 90
1, 86835, Note_on_c, 0, 60, 82
1, 86846, Note_off_c, 0, 64, 71
1, 86868, Note_off_c, 0, 60, 66
1, 86877, Note_off_c, 0, 55, 65
1, 86923, Note_off_c, 0, 67, 53
1, 86958, Note_off_c, 0, 79, 51
1, 87076, Note_on_c, 0, 79, 98
1, 87077, Note_on_c, 0, 67, 90
1, 87111, Note_off_c, 0, 67, 67
1, 87132, Note_off_c, 0, 79, 64
1, 87300, Control_c, 0, 64, 87
1, 87314, Control_c, 0, 64, 49
1, 87329, Control_c, 0, 64, 0
1, 87349, Note_on_c, 0, 43, 76
1, 87349, Note_on_c, 0, 89, 97
1, 87350, Note_on_c, 0, 77, 97
1, 87351, Note_on_c, 0, 55, 82
1, 87373, Control_c, 0, 64, 34
1, 87387, Note_off_c, 0, 43, 65
1, 87388, Control_c, 0, 64, 68
1, 87401, Note_off_c, 0, 77, 66
1, 87403, Control_c, 0, 64, 94
1, 87405, Note_off_c, 0, 55, 65
1, 87418, Control_c, 0, 64, 127
1, 87509, Note_off_c, 0, 89, 27
1, 87624, Note_on_c, 0, 89, 93
1, 87627, Note_on_c, 0, 77, 90
1, 87627, Note_on_c, 0, 83, 95
1, 87632, Note_on_c, 0, 55, 77
1, 87635, Note_on_c, 0, 65, 76
1, 87643, Note_on_c, 0, 62, 67
1, 87644, Note_on_c, 0, 59, 70
1, 87667, Note_off_c, 0, 77, 66
1, 87675, Note_off_c, 0, 65, 60
1, 87680, Note_off_c, 0, 62, 58
1, 87683, Note_off_c, 0, 59, 58
1, 87684, Note_off_c, 0, 83, 62
1, 87684, Note_off_c, 0, 89, 62
1, 87692, Note_off_c, 0, 55, 55
1, 87920, Note_on_c, 0, 55, 75
1, 87922, Note_on_c, 0, 89, 95
1, 87923, Note_on_c, 0, 83, 88
1, 87926, Note_on_c, 0, 77, 86
1, 87926, Note_on_c, 0, 65, 77
1, 87933, Note_on_c, 0, 59, 61
1, 87936, Note_on_c, 0, 62, 71
1, 87943, Control_c, 0, 64, 78
1, 87958, Control_c, 0, 64, 43
1, 87966, Note_off_c, 0, 65, 62
1, 87972, Note_off_c, 0, 55, 62
1, 87973, Control_c, 0, 64, 0
1, 87989, Note_off_c, 0, 89, 61
1, 87993, Note_off_c, 0, 59, 60
1, 87994, Note_off_c, 0, 62, 60
1, 87994, Note_off_c, 0, 77, 60
1, 88001, Note_off_c, 0, 83, 64
1, 88240, Note_on_c, 0, 88, 94
1, 88242, Note_on_c, 0, 76, 96
1, 88244, Note_on_c, 0, 83, 85
1, 88252, Note_on_c, 0, 64, 83
1, 88253, Note_on_c, 0, 56, 75
1, 88260, Note_on_c, 0, 62, 70
1, 88268, Note_on_c, 0, 59, 62
1, 88271, Control_c, 0, 64, 57
1, 88285, Note_off_c, 0, 56, 68
1, 88286, Control_c, 0, 64, 82
1, 88296, Note_off_c, 0, 64, 65
1, 88298, Note_off_c, 0, 59, 64
1, 88300, Control_c, 0, 64, 109
1, 88301, Note_off_c, 0, 62, 62
1, 88315, Control_c, 0, 64, 127
1, 88367, Note_off_c, 0, 88, 60
1, 88411, Note_off_c, 0, 83, 56
1, 88427, Note_off_c, 0, 76, 34
1, 88678, Control_c, 0, 64, 75
1, 88692, Control_c, 0, 64, 49
1, 88707, Control_c, 0, 64, 0
1, 88893, Note_on_c, 0, 86, 93
1, 88895, Note_on_c, 0, 76, 91
1, 88897, Note_on_c, 0, 83, 83
1, 88900, Note_on_c, 0, 74, 92
1, 88903, Note_on_c, 0, 44, 83
1, 88903, Note_on_c, 0, 32, 84
1, 88915, Control_c, 0, 64, 48
1, 88930, Control_c, 0, 64, 80
1, 88940, Note_off_c, 0, 44, 62
1, 88940, Note_off_c, 0, 83, 62
1, 88942, Note_off_c, 0, 86, 64
1, 88945, Control_c, 0, 64, 108
1, 88953, Note_off_c, 0, 76, 53
1, 88960, Control_c, 0, 64, 127
1, 88960, Note_off_c, 0, 74, 62
1, 88963, Note_off_c, 0, 32, 62
1, 89263, Control_c, 0, 64, 82
1, 89270, Note_on_c, 0, 76, 96
1, 89270, Note_on_c, 0, 84, 90
1, 89271, Note_on_c, 0, 72, 93
1, 89274, Note_on_c, 0, 81, 86
1, 89278, Note_on_c, 0, 33, 78
1, 89278, Control_c, 0, 64, 44
1, 89279, Note_on_c, 0, 45, 83
1, 89286, Note_on_c, 0, 40, 75
1, 89293, Control_c, 0, 64, 0
1, 89381, Control_c, 0, 64, 60
1, 89396, Control_c, 0, 64, 85
1, 89411, Control_c, 0, 64, 105
1, 89426, Control_c, 0, 64, 127
1, 89500, Note_off_c, 0, 33, 57
1, 89520, Note_off_c, 0, 84, 55
1, 89528, Note_off_c, 0, 45, 58
1, 89535, Note_off_c, 0, 72, 54
1, 89538, Note_off_c, 0, 40, 58
1, 89560, Note_off_c, 0, 81, 58
1, 89561, Note_off_c, 0, 76, 56
1, 89781, Note_on_c, 0, 83, 79
1, 89783, Note_on_c, 0, 71, 79
1, 89787, Note_on_c, 0, 47, 69
1, 89789, Note_on_c, 0, 35, 71
1, 89830, Note_off_c, 0, 35, 61
1, 89830, Note_off_c, 0, 47, 62
1, 89832, Note_off_c, 0, 83, 61
1, 89834, Note_off_c, 0, 71, 62
1, 89907, Note_on_c, 0, 83, 80
1, 89912, Note_on_c, 0, 71, 83
1, 89914, Note_on_c, 0, 35, 61
1, 89917, Note_on_c, 0, 47, 64
1, 89921, Note_on_c, 0, 36, 66
1, 89944, Control_c, 0, 64, 102
1, 89945, Note_off_c, 0, 47, 68
1, 89948, Note_off_c, 0, 35, 64
1, 89950, Note_off_c, 0, 83, 64
1, 89953, Note_off_c, 0, 71, 65
1, 89953, Note_off_c, 0, 36, 63
1, 89967, Control_c, 0, 64, 72
1, 89982, Control_c, 0, 64, 49
1, 89996, Control_c, 0, 64, 0
1, 90019, Note_on_c, 0, 81, 89
1, 90022, Note_on_c, 0, 38, 85
1, 90024, Note_on_c, 0, 69, 86
1, 90030, Note_on_c, 0, 50, 79
1, 90057, Note_off_c, 0, 69, 66
1, 90061, Note_off_c, 0, 38, 61
1, 90063, Note_off_c, 0, 50, 64
1, 90064, Note_off_c, 0, 81, 66
1, 90134, Note_on_c, 0, 86, 93
1, 90137, Note_on_c, 0, 74, 93
1, 90140, Note_on_c, 0, 38, 82
1, 90142, Note_on_c, 0, 50, 82
1, 90159, Control_c, 0, 64, 45
1, 90167, Note_off_c, 0, 74, 66
1, 90172, Note_off_c, 0, 86, 65
1, 90174, Control_c, 0, 64, 88
1, 90176, Note_off_c, 0, 50, 65
1, 90179, Note_on_c, 0, 80, 24
1, 90180, Note_off_c, 0, 80, 127
1, 90181, Note_off_c, 0, 38, 59
1, 90188, Control_c, 0, 64, 127
1, 90218, Poly_aftertouch_c, 0, 80, 0
1, 90242, Poly_aftertouch_c, 0, 82, 0
1, 90384, Note_on_c, 0, 38, 74
1, 90384, Note_on_c, 0, 50, 76
1, 90384, Note_on_c, 0, 86, 86
1, 90386, Note_on_c, 0, 74, 86
1, 90396, Control_c, 0, 64, 79
1, 90411, Control_c, 0, 64, 53
1, 90426, Note_off_c, 0, 74, 66
1, 90426, Control_c, 0, 64, 0
1, 90427, Note_off_c, 0, 50, 64
1, 90427, Note_off_c, 0, 86, 64
1, 90429, Note_off_c, 0, 38, 64
1, 90625, Note_on_c, 0, 86, 93
1, 90626, Note_on_c, 0, 74, 89
1, 90629, Note_on_c, 0, 38, 71
1, 90630, Note_on_c, 0, 50, 77
1, 90667, Note_off_c, 0, 38, 67
1, 90680, Note_off_c, 0, 50, 60
1, 90680, Note_off_c, 0, 74, 65
1, 90689, Note_off_c, 0, 86, 59
1, 90898, Note_on_c, 0, 88, 97
1, 90899, Note_on_c, 0, 76, 95
1, 90900, Note_on_c, 0, 83, 89
1, 90901, Note_on_c, 0, 40, 71
1, 90901, Note_on_c, 0, 80, 86
1, 90902, Note_on_c, 0, 52, 72
1, 90908, Control_c, 0, 64, 11
1, 90909, Note_on_c, 0, 44, 71
1, 90909, Note_on_c, 0, 47, 72
1, 90923, Control_c, 0, 64, 73
1, 90929, Note_off_c, 0, 52, 65
1, 90930, Note_off_c, 0, 40, 62
1, 90937, Note_off_c, 0, 47, 65
1, 90937, Control_c, 0, 64, 114
1, 90939, Note_off_c, 0, 83, 62
1, 90939, Note_off_c, 0, 44, 64
1, 90941, Note_off_c, 0, 80, 62
1, 90942, Note_off_c, 0, 76, 64
1, 90945, Note_off_c, 0, 88, 62
1, 90952, Control_c, 0, 64, 127
1, 91163, Note_on_c, 0, 88, 92
1, 91165, Note_on_c, 0, 83, 86
1, 91166, Note_on_c, 0, 76, 96
1, 91167, Note_on_c, 0, 52, 79
1, 91168, Note_on_c, 0, 80, 88
1, 91173, Note_on_c, 0, 40, 73
1, 91173, Note_on_c, 0, 44, 73
1, 91175, Note_on_c, 0, 47, 74
1, 91190, Control_c, 0, 64, 78
1, 91205, Control_c, 0, 64, 43
1, 91206, Note_off_c, 0, 52, 61
1, 91207, Note_off_c, 0, 40, 63
1, 91210, Note_off_c, 0, 76, 60
1, 91216, Note_off_c, 0, 44, 63
1, 91217, Note_off_c, 0, 47, 64
1, 91219, Control_c, 0, 64, 0
1, 91222, Note_off_c, 0, 83, 60
1, 91223, Note_off_c, 0, 88, 54
1, 91231, Note_off_c, 0, 80, 55
1, 91440, Note_on_c, 0, 52, 78
1, 91440, Note_on_c, 0, 83, 84
1, 91440, Note_on_c, 0, 88, 92
1, 91443, Note_on_c, 0, 76, 89
1, 91443, Note_on_c, 0, 80, 92
1, 91449, Note_on_c, 0, 44, 75
1, 91450, Note_on_c, 0, 40, 71
1, 91450, Note_on_c, 0, 47, 73
1, 91471, Note_off_c, 0, 52, 66
1, 91482, Note_off_c, 0, 47, 67
1, 91485, Note_off_c, 0, 76, 65
1, 91498, Note_off_c, 0, 40, 64
1, 91501, Note_off_c, 0, 83, 65
1, 91503, Note_off_c, 0, 44, 63
1, 91506, Note_off_c, 0, 80, 63
1, 91522, Note_off_c, 0, 88, 65
1, 91762, Note_on_c, 0, 93, 91
1, 91765, Note_on_c, 0, 33, 75
1, 91766, Note_on_c, 0, 81, 91
1, 91766, Note_on_c, 0, 84, 88
1, 91768, Note_on_c, 0, 88, 82
1, 91771, Note_on_c, 0, 45, 80
1, 91776, Note_on_c, 0, 40, 74
1, 91791, Control_c, 0, 64, 62
1, 91797, Note_off_c, 0, 33, 67
1, 91802, Note_off_c, 0, 45, 69
1, 91806, Control_c, 0, 64, 108
1, 91807, Note_off_c, 0, 40, 67
1, 91821, Control_c, 0, 64, 127
1, 91824, Note_off_c, 0, 81, 63
1, 91825, Note_off_c, 0, 93, 65
1, 91850, Note_off_c, 0, 88, 62
1, 91867, Note_off_c, 0, 84, 60
1, 92322, Note_on_c, 0, 64, 79
1, 92347, Control_c, 0, 64, 107
1, 92362, Control_c, 0, 64, 71
1, 92377, Control_c, 0, 64, 37
1, 92378, Note_off_c, 0, 64, 61
1, 92391, Control_c, 0, 64, 0
1, 92572, Note_on_c, 0, 76, 77
1, 92575, Note_on_c, 0, 74, 76
1, 92577, Note_on_c, 0, 68, 85
1, 92589, Note_on_c, 0, 33, 74
1, 92595, Note_on_c, 0, 45, 66
1, 92597, Note_on_c, 0, 47, 76
1, 92598, Note_off_c, 0, 76, 62
1, 92605, Note_on_c, 0, 64, 88
1, 92607, Note_on_c, 0, 40, 66
1, 92614, Control_c, 0, 64, 19
1, 92614, Note_off_c, 0, 74, 64
1, 92629, Note_off_c, 0, 68, 68
1, 92629, Control_c, 0, 64, 73
1, 92644, Control_c, 0, 64, 96
1, 92644, Note_off_c, 0, 64, 66
1, 92658, Control_c, 0, 64, 115
1, 92673, Control_c, 0, 64, 127
1, 92862, Note_on_c, 0, 64, 68
1, 92868, Note_on_c, 0, 56, 71
1, 92868, Note_on_c, 0, 62, 65
1, 92904, Note_off_c, 0, 62, 59
1, 92913, Note_off_c, 0, 64, 62
1, 92921, Note_off_c, 0, 56, 61
1, 92978, Note_on_c, 0, 65, 73
1, 92991, Note_on_c, 0, 56, 44
1, 93008, Control_c, 0, 64, 101
1, 93022, Control_c, 0, 64, 70
1, 93026, Note_off_c, 0, 56, 63
1, 93029, Note_on_c, 0, 62, 14
1, 93031, Note_off_c, 0, 33, 56
1, 93035, Note_off_c, 0, 65, 61
1, 93037, Control_c, 0, 64, 39
1, 93038, Note_off_c, 0, 47, 60
1, 93041, Note_off_c, 0, 40, 60
1, 93042, Note_off_c, 0, 62, 50
1, 93047, Note_off_c, 0, 45, 53
1, 93052, Control_c, 0, 64, 0
1, 93083, Note_on_c, 0, 62, 56
1, 93085, Note_on_c, 0, 64, 80
1, 93094, Note_on_c, 0, 56, 76
1, 93120, Note_off_c, 0, 56, 67
1, 93139, Note_off_c, 0, 62, 65
1, 93140, Note_off_c, 0, 64, 65
1, 93327, Note_on_c, 0, 76, 88
1, 93329, Note_on_c, 0, 72, 84
1, 93332, Note_on_c, 0, 69, 87
1, 93345, Note_on_c, 0, 33, 76
1, 93345, Note_on_c, 0, 64, 82
1, 93347, Note_on_c, 0, 45, 79
1, 93351, Note_on_c, 0, 40, 63
1, 93363, Note_off_c, 0, 76, 64
1, 93363, Control_c, 0, 64, 57
1, 93363, Note_off_c, 0, 72, 66
1, 93369, Note_off_c, 0, 69, 65
1, 93378, Control_c, 0, 64, 88
1, 93384, Note_off_c, 0, 64, 66
1, 93393, Control_c, 0, 64, 104
1, 93407, Control_c, 0, 64, 127
1, 93607, Note_on_c, 0, 64, 78
1, 93616, Note_on_c, 0, 60, 72
1, 93619, Note_on_c, 0, 57, 70
1, 93645, Note_off_c, 0, 60, 64
1, 93650, Note_off_c, 0, 57, 64
1, 93661, Note_off_c, 0, 64, 60
1, 93690, Control_c, 0, 64, 122
1, 93711, Control_c, 0, 64, 110
1, 93718, Note_on_c, 0, 65, 77
1, 93725, Note_on_c, 0, 57, 72
1, 93726, Control_c, 0, 64, 101
1, 93729, Note_on_c, 0, 60, 64
1, 93733, Note_off_c, 0, 33, 60
1, 93741, Control_c, 0, 64, 94
1, 93743, Note_off_c, 0, 40, 61
1, 93756, Note_off_c, 0, 60, 66
1, 93756, Control_c, 0, 64, 85
1, 93767, Note_off_c, 0, 45, 63
1, 93767, Note_off_c, 0, 57, 61
1, 93771, Control_c, 0, 64, 73
1, 93772, Note_off_c, 0, 65, 63
1, 93786, Control_c, 0, 64, 59
1, 93801, Control_c, 0, 64, 32
1, 93816, Control_c, 0, 64, 0
1, 93824, Note_on_c, 0, 57, 63
1, 93825, Note_on_c, 0, 64, 82
1, 93828, Note_on_c, 0, 60, 70
1, 93855, Note_off_c, 0, 57, 65
1, 93861, Note_off_c, 0, 60, 68
1, 93878, Note_off_c, 0, 64, 66
1, 94081, Note_on_c, 0, 45, 61
1, 94081, Note_on_c, 0, 71, 85
1, 94085, Note_on_c, 0, 64, 79
1, 94089, Note_on_c, 0, 62, 73
1, 94093, Note_on_c, 0, 56, 65
1, 94095, Note_on_c, 0, 52, 64
1, 94117, Note_off_c, 0, 45, 60
1, 94118, Note_off_c, 0, 64, 64
1, 94120, Note_off_c, 0, 62, 61
1, 94129, Note_off_c, 0, 56, 60
1, 94129, Note_off_c, 0, 71, 61
1, 94135, Note_off_c, 0, 52, 61
1, 94330, Note_on_c, 0, 45, 60
1, 94335, Note_on_c, 0, 71, 81
1, 94338, Note_on_c, 0, 64, 79
1, 94340, Note_on_c, 0, 62, 69
1, 94341, Note_on_c, 0, 56, 60
1, 94345, Note_on_c, 0, 52, 58
1, 94365, Note_off_c, 0, 64, 65
1, 94368, Note_off_c, 0, 62, 66
1, 94371, Note_off_c, 0, 71, 60
1, 94372, Note_off_c, 0, 45, 58
1, 94376, Note_off_c, 0, 56, 61
1, 94389, Note_off_c, 0, 52, 61
1, 94581, Note_on_c, 0, 45, 66
1, 94585, Note_on_c, 0, 71, 83
1, 94588, Note_on_c, 0, 64, 83
1, 94589, Note_on_c, 0, 56, 70
1, 94589, Note_on_c, 0, 62, 75
1, 94600, Note_on_c, 0, 52, 61
1, 94620, Note_off_c, 0, 64, 64
1, 94623, Note_off_c, 0, 56, 65
1, 94624, Note_off_c, 0, 45, 63
1, 94632, Note_off_c, 0, 71, 57
1, 94633, Note_off_c, 0, 62, 62
1, 94642, Note_off_c, 0, 52, 61
1, 94841, Note_on_c, 0, 72, 88
1, 94842, Note_on_c, 0, 45, 61
1, 94846, Note_on_c, 0, 64, 82
1, 94847, Note_on_c, 0, 60, 77
1, 94853, Note_on_c, 0, 59, 68
1, 94856, Note_on_c, 0, 52, 67
1, 94875, Control_c, 0, 64, 64
1, 94877, Note_off_c, 0, 59, 66
1, 94882, Note_off_c, 0, 45, 63
1, 94887, Note_off_c, 0, 52, 64
1, 94890, Control_c, 0, 64, 88
1, 94905, Control_c, 0, 64, 127
1, 94931, Note_off_c, 0, 60, 58
1, 94990, Note_off_c, 0, 72, 58
1, 94993, Note_off_c, 0, 64, 54
1, 95254, Control_c, 0, 64, 85
1, 95269, Control_c, 0, 64, 60
1, 95283, Control_c, 0, 64, 0
1, 95380, Note_on_c, 0, 64, 82
1, 95438, Note_off_c, 0, 64, 59
1, 95612, Note_on_c, 0, 76, 79
1, 95618, Note_on_c, 0, 68, 86
1, 95619, Note_on_c, 0, 74, 73
1, 95634, Note_on_c, 0, 33, 72
1, 95635, Note_off_c, 0, 76, 64
1, 95638, Note_on_c, 0, 64, 89
1, 95641, Note_on_c, 0, 45, 66
1, 95643, Note_on_c, 0, 47, 70
1, 95644, Note_off_c, 0, 74, 66
1, 95647, Note_on_c, 0, 40, 66
1, 95653, Control_c, 0, 64, 20
1, 95661, Note_off_c, 0, 68, 68
1, 95668, Control_c, 0, 64, 79
1, 95679, Note_off_c, 0, 64, 65
1, 95683, Control_c, 0, 64, 107
1, 95698, Control_c, 0, 64, 127
1, 95905, Note_on_c, 0, 64, 68
1, 95908, Note_on_c, 0, 56, 72
1, 95908, Note_on_c, 0, 62, 68
1, 95933, Note_off_c, 0, 64, 64
1, 95940, Note_off_c, 0, 62, 61
1, 95962, Note_off_c, 0, 56, 58
1, 95987, Control_c, 0, 64, 112
1, 96002, Control_c, 0, 64, 80
1, 96012, Note_on_c, 0, 65, 73
1, 96016, Control_c, 0, 64, 58
1, 96018, Note_on_c, 0, 56, 52
1, 96022, Note_on_c, 0, 62, 62
1, 96032, Control_c, 0, 64, 0
1, 96046, Note_off_c, 0, 33, 55
1, 96051, Note_off_c, 0, 62, 66
1, 96064, Note_off_c, 0, 47, 59
1, 96068, Note_off_c, 0, 40, 58
1, 96069, Note_off_c, 0, 56, 62
1, 96069, Note_off_c, 0, 45, 55
1, 96073, Note_off_c, 0, 65, 62
1, 96119, Note_on_c, 0, 56, 65
1, 96120, Note_on_c, 0, 64, 76
1, 96126, Note_on_c, 0, 62, 73
1, 96149, Note_off_c, 0, 56, 66
1, 96155, Note_off_c, 0, 62, 65
1, 96170, Note_off_c, 0, 64, 63
1, 96356, Note_on_c, 0, 76, 87
1, 96358, Note_on_c, 0, 72, 74
1, 96364, Note_on_c, 0, 69, 76
1, 96371, Note_on_c, 0, 64, 89
1, 96373, Control_c, 0, 64, 33
1, 96373, Note_on_c, 0, 33, 73
1, 96377, Note_on_c, 0, 45, 75
1, 96379, Note_on_c, 0, 40, 62
1, 96388, Control_c, 0, 64, 75
1, 96389, Note_off_c, 0, 69, 68
1, 96394, Note_off_c, 0, 72, 66
1, 96402, Note_off_c, 0, 76, 65
1, 96403, Control_c, 0, 64, 95
1, 96406, Note_off_c, 0, 64, 66
1, 96418, Control_c, 0, 64, 127
1, 96637, Note_on_c, 0, 64, 74
1, 96648, Note_on_c, 0, 57, 65
1, 96649, Note_on_c, 0, 60, 63
1, 96678, Note_off_c, 0, 60, 65
1, 96679, Note_off_c, 0, 57, 64
1, 96706, Note_off_c, 0, 64, 54
1, 96748, Note_on_c, 0, 65, 72
1, 96751, Note_off_c, 0, 33, 57
1, 96751, Control_c, 0, 64, 108
1, 96756, Note_on_c, 0, 60, 60
1, 96761, Note_on_c, 0, 57, 63
1, 96765, Control_c, 0, 64, 90
1, 96779, Note_off_c, 0, 40, 62
1, 96780, Control_c, 0, 64, 72
1, 96785, Note_off_c, 0, 60, 66
1, 96793, Note_off_c, 0, 57, 61
1, 96795, Control_c, 0, 64, 56
1, 96800, Note_off_c, 0, 65, 56
1, 96800, Note_off_c, 0, 45, 62
1, 96809, Control_c, 0, 64, 21
1, 96824, Control_c, 0, 64, 0
1, 96850, Note_on_c, 0, 64, 78
1, 96855, Note_on_c, 0, 57, 74
1, 96859, Note_on_c, 0, 60, 69
1, 96880, Note_off_c, 0, 57, 66
1, 96886, Note_off_c, 0, 60, 67
1, 96901, Note_off_c, 0, 64, 64
1, 97120, Note_on_c, 0, 71, 82
1, 97125, Note_on_c, 0, 64, 77
1, 97128, Note_on_c, 0, 62, 70
1, 97131, Note_on_c, 0, 45, 54
1, 97140, Note_on_c, 0, 52, 55
1, 97142, Note_on_c, 0, 56, 54
1, 97151, Note_off_c, 0, 64, 67
1, 97151, Control_c, 0, 64, 62
1, 97154, Note_off_c, 0, 62, 68
1, 97163, Note_off_c, 0, 71, 62
1, 97166, Control_c, 0, 64, 84
1, 97170, Note_off_c, 0, 56, 62
1, 97170, Note_off_c, 0, 45, 58
1, 97175, Note_off_c, 0, 52, 61
1, 97181, Control_c, 0, 64, 94
1, 97196, Control_c, 0, 64, 112
1, 97211, Control_c, 0, 64, 127
1, 97383, Note_on_c, 0, 45, 43
1, 97388, Note_on_c, 0, 71, 76
1, 97396, Note_on_c, 0, 62, 67
1, 97398, Note_on_c, 0, 56, 49
1, 97399, Note_on_c, 0, 64, 65
1, 97407, Note_on_c, 0, 52, 49
1, 97409, Note_off_c, 0, 45, 59
1, 97414, Note_off_c, 0, 71, 64
1, 97419, Note_off_c, 0, 56, 63
1, 97420, Note_off_c, 0, 64, 66
1, 97423, Note_off_c, 0, 62, 66
1, 97432, Control_c, 0, 64, 93
1, 97433, Note_off_c, 0, 52, 61
1, 97455, Control_c, 0, 64, 77
1, 97470, Control_c, 0, 64, 63
1, 97485, Control_c, 0, 64, 48
1, 97496, Note_on_c, 0, 69, 71
1, 97497, Note_on_c, 0, 64, 59
1, 97500, Control_c, 0, 64, 24
1, 97509, Note_on_c, 0, 62, 65
1, 97514, Control_c, 0, 64, 0
1, 97534, Note_off_c, 0, 69, 64
1, 97536, Note_off_c, 0, 64, 64
1, 97537, Note_off_c, 0, 62, 67
1, 97601, Note_on_c, 0, 45, 51
1, 97608, Note_on_c, 0, 62, 69
1, 97608, Note_on_c, 0, 68, 78
1, 97610, Note_on_c, 0, 59, 61
1, 97617, Note_on_c, 0, 52, 36
1, 97639, Note_off_c, 0, 59, 66
1, 97651, Note_off_c, 0, 62, 57
1, 97656, Note_off_c, 0, 52, 63
1, 97656, Note_off_c, 0, 68, 64
1, 97673, Note_off_c, 0, 45, 63
1, 97957, Note_on_c, 0, 77, 50
1, 97968, Note_on_c, 0, 65, 42
1, 97974, Control_c, 0, 64, 29
1, 97989, Control_c, 0, 64, 51
1, 97991, Note_on_c, 0, 53, 36
1, 97995, Note_on_c, 0, 41, 35
1, 98004, Control_c, 0, 64, 63
1, 98019, Control_c, 0, 64, 69
1, 98022, Note_off_c, 0, 65, 60
1, 98030, Note_off_c, 0, 53, 64
1, 98033, Note_off_c, 0, 77, 61
1, 98034, Control_c, 0, 64, 77
1, 98040, Note_off_c, 0, 41, 65
1, 98048, Control_c, 0, 64, 89
1, 98063, Control_c, 0, 64, 105
1, 98078, Control_c, 0, 64, 127
1, 98337, Note_on_c, 0, 76, 62
1, 98343, Note_on_c, 0, 40, 54
1, 98349, Note_on_c, 0, 64, 49
1, 98350, Note_on_c, 0, 52, 32
1, 98363, Note_off_c, 0, 76, 67
1, 98368, Note_off_c, 0, 40, 56
1, 98373, Note_off_c, 0, 64, 56
1, 98385, Note_off_c, 0, 52, 33
1, 98435, Note_on_c, 0, 76, 69
1, 98440, Note_on_c, 0, 40, 69
1, 98442, Note_on_c, 0, 64, 69
1, 98460, Note_off_c, 0, 76, 65
1, 98469, Note_off_c, 0, 64, 66
1, 98471, Note_off_c, 0, 40, 66
1, 98531, Control_c, 0, 64, 91
1, 98540, Note_on_c, 0, 38, 74
1, 98545, Note_on_c, 0, 74, 63
1, 98546, Control_c, 0, 64, 68
1, 98556, Note_on_c, 0, 62, 66
1, 98560, Control_c, 0, 64, 37
1, 98564, Note_off_c, 0, 74, 61
1, 98568, Note_off_c, 0, 38, 65
1, 98575, Control_c, 0, 64, 0
1, 98576, Note_off_c, 0, 62, 62
1, 98649, Control_c, 0, 64, 26
1, 98663, Note_on_c, 0, 68, 77
1, 98664, Control_c, 0, 64, 63
1, 98669, Note_on_c, 0, 56, 75
1, 98670, Note_on_c, 0, 32, 71
1, 98672, Note_on_c, 0, 44, 72
1, 98678, Control_c, 0, 64, 78
1, 98684, Note_off_c, 0, 68, 70
1, 98692, Note_off_c, 0, 44, 62
1, 98693, Control_c, 0, 64, 97
1, 98695, Note_off_c, 0, 56, 67
1, 98700, Note_off_c, 0, 32, 63
1, 98708, Control_c, 0, 64, 127
1, 98760, Poly_aftertouch_c, 0, 34, 0
1, 98906, Note_on_c, 0, 68, 77
1, 98907, Note_on_c, 0, 32, 67
1, 98914, Note_on_c, 0, 56, 71
1, 98916, Control_c, 0, 64, 94
1, 98919, Note_on_c, 0, 44, 62
1, 98931, Control_c, 0, 64, 69
1, 98940, Note_off_c, 0, 56, 66
1, 98943, Note_off_c, 0, 44, 61
1, 98952, Note_off_c, 0, 32, 61
1, 98952, Control_c, 0, 64, 38
1, 98955, Note_off_c, 0, 68, 62
1, 98967, Control_c, 0, 64, 0
1, 99155, Note_on_c, 0, 68, 81
1, 99156, Note_on_c, 0, 32, 71
1, 99161, Note_on_c, 0, 44, 75
1, 99165, Note_on_c, 0, 56, 69
1, 99183, Note_off_c, 0, 32, 65
1, 99184, Note_off_c, 0, 56, 64
1, 99193, Note_off_c, 0, 44, 64
1, 99208, Note_off_c, 0, 68, 65
1, 99417, Note_on_c, 0, 77, 90
1, 99421, Note_on_c, 0, 65, 85
1, 99430, Note_on_c, 0, 41, 75
1, 99432, Note_on_c, 0, 53, 74
1, 99442, Control_c, 0, 64, 38
1, 99457, Control_c, 0, 64, 84
1, 99472, Control_c, 0, 64, 127
1, 99500, Note_off_c, 0, 65, 61
1, 99503, Note_off_c, 0, 53, 61
1, 99509, Note_off_c, 0, 77, 61
1, 99511, Note_off_c, 0, 41, 61
1, 99834, Note_on_c, 0, 76, 79
1, 99834, Note_on_c, 0, 40, 66
1, 99837, Note_on_c, 0, 64, 71
1, 99838, Note_on_c, 0, 52, 56
1, 99856, Note_off_c, 0, 76, 66
1, 99861, Note_off_c, 0, 52, 60
1, 99864, Note_off_c, 0, 40, 66
1, 99864, Note_off_c, 0, 64, 68
1, 99930, Note_on_c, 0, 52, 65
1, 99933, Note_on_c, 0, 40, 76
1, 99933, Note_on_c, 0, 76, 83
1, 99939, Note_on_c, 0, 64, 85
1, 99959, Note_off_c, 0, 52, 64
1, 99964, Note_off_c, 0, 76, 59
1, 99968, Control_c, 0, 64, 107
1, 99971, Note_off_c, 0, 40, 61
1, 99974, Note_off_c, 0, 64, 63
1, 99983, Control_c, 0, 64, 78
1, 99998, Control_c, 0, 64, 57
1, 100013, Control_c, 0, 64, 0
1, 100028, Note_on_c, 0, 74, 88
1, 100031, Note_on_c, 0, 50, 63
1, 100034, Note_on_c, 0, 62, 88
1, 100034, Note_on_c, 0, 38, 72
1, 100052, Note_off_c, 0, 74, 63
1, 100053, Note_off_c, 0, 50, 61
1, 100057, Note_on_c, 0, 40, 57
1, 100061, Note_off_c, 0, 62, 66
1, 100068, Note_off_c, 0, 38, 65
1, 100081, Note_off_c, 0, 40, 40
1, 100133, Note_on_c, 0, 69, 87
1, 100135, Note_on_c, 0, 33, 91
1, 100138, Note_on_c, 0, 57, 94
1, 100142, Note_on_c, 0, 45, 70
1, 100156, Note_off_c, 0, 69, 67
1, 100159, Note_off_c, 0, 57, 69
1, 100162, Control_c, 0, 64, 59
1, 100165, Note_off_c, 0, 33, 69
1, 100174, Note_off_c, 0, 45, 65
1, 100176, Control_c, 0, 64, 91
1, 100191, Control_c, 0, 64, 127
1, 100222, Poly_aftertouch_c, 0, 34, 0
1, 100243, Poly_aftertouch_c, 0, 61, 0
1, 100375, Note_on_c, 0, 33, 75
1, 100378, Note_on_c, 0, 45, 75
1, 100378, Note_on_c, 0, 69, 83
1, 100380, Note_on_c, 0, 57, 81
1, 100383, Control_c, 0, 64, 108
1, 100398, Control_c, 0, 64, 71
1, 100413, Control_c, 0, 64, 36
1, 100415, Note_off_c, 0, 45, 64
1, 100416, Note_off_c, 0, 57, 64
1, 100418, Note_off_c, 0, 69, 67
1, 100425, Note_off_c, 0, 33, 60
1, 100428, Control_c, 0, 64, 0
1, 100628, Note_on_c, 0, 69, 87
1, 100629, Note_on_c, 0, 33, 72
1, 100631, Note_on_c, 0, 45, 75
1, 100631, Note_on_c, 0, 57, 82
1, 100664, Note_off_c, 0, 33, 66
1, 100665, Note_off_c, 0, 57, 66
1, 100668, Note_off_c, 0, 45, 65
1, 100683, Note_off_c, 0, 69, 65
1, 100915, Note_on_c, 0, 77, 86
1, 100919, Note_on_c, 0, 65, 80
1, 100935, Note_on_c, 0, 41, 66
1, 100935, Note_on_c, 0, 53, 70
1, 100940, Control_c, 0, 64, 49
1, 100955, Control_c, 0, 64, 81
1, 100970, Control_c, 0, 64, 94
1, 100985, Control_c, 0, 64, 127
1, 100994, Note_off_c, 0, 53, 59
1, 101009, Note_off_c, 0, 65, 56
1, 101012, Note_off_c, 0, 41, 58
1, 101020, Note_off_c, 0, 77, 59
1, 101355, Note_on_c, 0, 76, 74
1, 101365, Note_on_c, 0, 64, 67
1, 101371, Note_on_c, 0, 40, 59
1, 101376, Note_on_c, 0, 52, 47
1, 101386, Note_off_c, 0, 76, 60
1, 101393, Note_off_c, 0, 64, 66
1, 101399, Note_off_c, 0, 52, 51
1, 101403, Note_off_c, 0, 40, 64
1, 101483, Note_on_c, 0, 64, 74
1, 101485, Note_on_c, 0, 52, 54
1, 101486, Note_on_c, 0, 40, 65
1, 101490, Note_on_c, 0, 76, 70
1, 101495, Control_c, 0, 64, 106
1, 101506, Note_off_c, 0, 52, 63
1, 101510, Control_c, 0, 64, 77
1, 101511, Note_off_c, 0, 64, 62
1, 101511, Note_off_c, 0, 76, 69
1, 101519, Note_off_c, 0, 40, 63
1, 101524, Control_c, 0, 64, 56
1, 101540, Control_c, 0, 64, 0
1, 101584, Note_on_c, 0, 74, 84
1, 101594, Note_on_c, 0, 62, 72
1, 101596, Note_on_c, 0, 38, 71
1, 101599, Note_on_c, 0, 50, 40
1, 101614, Note_off_c, 0, 74, 64
1, 101617, Note_off_c, 0, 62, 68
1, 101625, Note_off_c, 0, 38, 64
1, 101631, Note_off_c, 0, 50, 34
1, 101706, Note_on_c, 0, 70, 76
1, 101708, Note_on_c, 0, 46, 70
1, 101712, Note_on_c, 0, 34, 76
1, 101713, Note_on_c, 0, 58, 81
1, 101719, Control_c, 0, 64, 54
1, 101734, Control_c, 0, 64, 91
1, 101738, Note_off_c, 0, 34, 66
1, 101739, Note_off_c, 0, 58, 66
1, 101741, Note_off_c, 0, 46, 63
1, 101748, Control_c, 0, 64, 127
1, 101764, Note_off_c, 0, 70, 58
1, 101954, Note_on_c, 0, 74, 83
1, 101959, Note_on_c, 0, 62, 78
1, 101963, Note_on_c, 0, 38, 69
1, 101967, Note_on_c, 0, 50, 72
1, 102013, Note_off_c, 0, 62, 60
1, 102032, Note_off_c, 0, 38, 60
1, 102042, Note_off_c, 0, 50, 59
1, 102056, Note_off_c, 0, 74, 62
1, 102189, Note_on_c, 0, 77, 93
1, 102192, Note_on_c, 0, 65, 89
1, 102201, Note_on_c, 0, 41, 76
1, 102204, Note_on_c, 0, 53, 74
1, 102233, Note_off_c, 0, 53, 66
1, 102233, Note_off_c, 0, 65, 65
1, 102235, Note_off_c, 0, 41, 65
1, 102248, Note_off_c, 0, 77, 64
1, 102436, Note_on_c, 0, 82, 98
1, 102440, Note_on_c, 0, 70, 96
1, 102442, Note_on_c, 0, 46, 86
1, 102444, Note_on_c, 0, 58, 90
1, 102472, Note_on_c, 0, 80, 44
1, 102487, Note_off_c, 0, 70, 64
1, 102488, Note_off_c, 0, 46, 65
1, 102491, Note_off_c, 0, 58, 62
1, 102501, Note_off_c, 0, 80, 47
1, 102551, Poly_aftertouch_c, 0, 78, 0
1, 102568, Note_off_c, 0, 82, 60
1, 102698, Note_on_c, 0, 50, 79
1, 102701, Note_on_c, 0, 62, 76
1, 102701, Note_on_c, 0, 86, 99
1, 102703, Note_on_c, 0, 74, 93
1, 102726, Note_off_c, 0, 62, 68
1, 102748, Note_off_c, 0, 50, 63
1, 102751, Note_off_c, 0, 74, 66
1, 102759, Note_off_c, 0, 86, 65
1, 102977, Note_on_c, 0, 89, 93
1, 102978, Control_c, 0, 64, 75
1, 102979, Note_on_c, 0, 77, 92
1, 102980, Note_on_c, 0, 86, 87
1, 102992, Note_on_c, 0, 45, 88
1, 102993, Control_c, 0, 64, 0
1, 102995, Note_on_c, 0, 57, 87
1, 103039, Note_off_c, 0, 57, 63
1, 103044, Note_off_c, 0, 45, 64
1, 103062, Note_off_c, 0, 77, 54
1, 103076, Note_off_c, 0, 89, 62
1, 103084, Note_off_c, 0, 86, 57
1, 103262, Note_on_c, 0, 88, 93
1, 103264, Note_on_c, 0, 83, 88
1, 103289, Note_on_c, 0, 44, 84
1, 103292, Note_on_c, 0, 56, 83
1, 103305, Control_c, 0, 64, 40
1, 103307, Note_on_c, 0, 76, 87
1, 103319, Note_off_c, 0, 88, 67
1, 103319, Control_c, 0, 64, 92
1, 103325, Note_off_c, 0, 83, 66
1, 103325, Note_off_c, 0, 56, 66
1, 103328, Note_off_c, 0, 44, 60
1, 103334, Control_c, 0, 64, 127
1, 103346, Note_off_c, 0, 76, 65
1, 103594, Note_on_c, 0, 56, 65
1, 103599, Note_on_c, 0, 64, 63
1, 103602, Note_on_c, 0, 76, 77
1, 103607, Note_on_c, 0, 59, 59
1, 103609, Note_on_c, 0, 71, 73
1, 103629, Note_off_c, 0, 56, 60
1, 103629, Note_off_c, 0, 76, 59
1, 103634, Note_off_c, 0, 64, 61
1, 103639, Note_off_c, 0, 59, 62
1, 103649, Note_off_c, 0, 71, 62
1, 103704, Note_on_c, 0, 77, 83
1, 103709, Note_on_c, 0, 59, 71
1, 103709, Note_on_c, 0, 71, 68
1, 103719, Note_on_c, 0, 64, 57
1, 103725, Note_on_c, 0, 56, 53
1, 103737, Note_off_c, 0, 59, 64
1, 103743, Note_off_c, 0, 56, 66
1, 103743, Note_off_c, 0, 64, 59
1, 103752, Note_off_c, 0, 71, 64
1, 103763, Note_off_c, 0, 77, 63
1, 103801, Control_c, 0, 64, 85
1, 103809, Note_on_c, 0, 71, 71
1, 103811, Note_on_c, 0, 56, 76
1, 103812, Note_on_c, 0, 59, 75
1, 103812, Note_on_c, 0, 64, 69
1, 103812, Note_on_c, 0, 76, 91
1, 103816, Control_c, 0, 64, 54
1, 103829, Note_off_c, 0, 64, 65
1, 103831, Control_c, 0, 64, 0
1, 103841, Note_off_c, 0, 71, 68
1, 103848, Note_off_c, 0, 59, 65
1, 103852, Note_off_c, 0, 76, 66
1, 103870, Note_off_c, 0, 56, 64
1, 104037, Note_on_c, 0, 88, 92
1, 104040, Note_on_c, 0, 81, 89
1, 104056, Note_on_c, 0, 41, 85
1, 104056, Note_on_c, 0, 53, 90
1, 104066, Note_on_c, 0, 76, 94
1, 104082, Note_off_c, 0, 88, 67
1, 104084, Control_c, 0, 64, 83
1, 104085, Note_off_c, 0, 81, 68
1, 104085, Note_off_c, 0, 41, 69
1, 104092, Note_off_c, 0, 53, 64
1, 104094, Note_off_c, 0, 76, 63
1, 104098, Control_c, 0, 64, 127
1, 104336, Note_on_c, 0, 76, 85
1, 104337, Note_on_c, 0, 64, 69
1, 104343, Note_on_c, 0, 53, 66
1, 104346, Note_on_c, 0, 57, 67
1, 104346, Note_on_c, 0, 69, 78
1, 104375, Note_off_c, 0, 64, 58
1, 104377, Note_off_c, 0, 53, 62
1, 104379, Note_off_c, 0, 69, 62
1, 104382, Note_off_c, 0, 76, 63
1, 104385, Note_off_c, 0, 57, 59
1, 104451, Note_on_c, 0, 77, 86
1, 104452, Note_on_c, 0, 64, 69
1, 104455, Note_on_c, 0, 57, 66
1, 104458, Note_on_c, 0, 69, 78
1, 104468, Note_on_c, 0, 53, 37
1, 104484, Note_on_c, 0, 55, 45
1, 104487, Note_off_c, 0, 53, 62
1, 104489, Note_off_c, 0, 64, 59
1, 104498, Note_off_c, 0, 57, 59
1, 104499, Note_off_c, 0, 69, 64
1, 104502, Note_off_c, 0, 77, 65
1, 104512, Note_off_c, 0, 55, 48
1, 104520, Control_c, 0, 64, 95
1, 104535, Control_c, 0, 64, 63
1, 104549, Control_c, 0, 64, 0
1, 104563, Note_on_c, 0, 69, 80
1, 104564, Note_on_c, 0, 64, 74
1, 104568, Note_on_c, 0, 53, 67
1, 104568, Note_on_c, 0, 76, 82
1, 104572, Note_on_c, 0, 57, 68
1, 104586, Note_off_c, 0, 64, 69
1, 104598, Note_off_c, 0, 69, 68
1, 104613, Note_off_c, 0, 57, 64
1, 104618, Note_off_c, 0, 76, 65
1, 104632, Note_off_c, 0, 53, 64
1, 104836, Note_on_c, 0, 88, 88
1, 104839, Note_on_c, 0, 80, 90
1, 104858, Note_on_c, 0, 52, 89
1, 104860, Note_on_c, 0, 40, 80
1, 104867, Note_on_c, 0, 76, 88
1, 104876, Control_c, 0, 64, 39
1, 104881, Note_off_c, 0, 88, 65
1, 104883, Note_off_c, 0, 80, 67
1, 104884, Note_off_c, 0, 40, 64
1, 104890, Control_c, 0, 64, 103
1, 104891, Note_off_c, 0, 52, 65
1, 104899, Note_off_c, 0, 76, 67
1, 104905, Control_c, 0, 64, 127
1, 105182, Note_on_c, 0, 76, 81
1, 105182, Note_on_c, 0, 68, 80
1, 105183, Note_on_c, 0, 52, 68
1, 105186, Note_on_c, 0, 64, 71
1, 105191, Note_on_c, 0, 59, 70
1, 105218, Note_off_c, 0, 64, 64
1, 105227, Note_off_c, 0, 52, 50
1, 105231, Note_off_c, 0, 59, 59
1, 105238, Note_off_c, 0, 68, 61
1, 105245, Note_off_c, 0, 76, 57
1, 105316, Note_on_c, 0, 77, 75
1, 105319, Note_on_c, 0, 64, 67
1, 105321, Note_on_c, 0, 68, 76
1, 105325, Note_on_c, 0, 52, 65
1, 105330, Note_on_c, 0, 59, 68
1, 105356, Note_off_c, 0, 52, 60
1, 105359, Note_off_c, 0, 64, 57
1, 105363, Note_off_c, 0, 59, 59
1, 105367, Note_off_c, 0, 68, 61
1, 105382, Note_off_c, 0, 77, 58
1, 105457, Note_on_c, 0, 76, 79
1, 105463, Note_on_c, 0, 52, 61
1, 105465, Note_on_c, 0, 64, 67
1, 105466, Note_on_c, 0, 59, 70
1, 105469, Note_on_c, 0, 68, 77
1, 105486, Note_off_c, 0, 76, 61
1, 105486, Note_off_c, 0, 64, 68
1, 105489, Note_off_c, 0, 59, 69
1, 105489, Note_off_c, 0, 52, 66
1, 105496, Note_off_c, 0, 68, 66
1, 105610, Control_c, 0, 64, 108
1, 105625, Control_c, 0, 64, 69
1, 105640, Control_c, 0, 64, 0
1, 106210, Control_c, 0, 67, 8
1, 106225, Control_c, 0, 67, 9
1, 106239, Control_c, 0, 67, 11
1, 106254, Control_c, 0, 67, 12
1, 106269, Control_c, 0, 67, 12
1, 106284, Control_c, 0, 67, 13
1, 106313, Control_c, 0, 67, 13
1, 106358, Control_c, 0, 67, 14
1, 106440, Control_c, 0, 67, 13
1, 106485, Control_c, 0, 67, 12
1, 106497, Note_on_c, 0, 59, 49
1, 106498, Note_on_c, 0, 64, 49
1, 106499, Note_on_c, 0, 56, 49
1, 106500, Control_c, 0, 67, 9
1, 106503, Note_on_c, 0, 52, 55
1, 106514, Control_c, 0, 64, 32
1, 106514, Control_c, 0, 67, 8
1, 106529, Control_c, 0, 64, 60
1, 106529, Control_c, 0, 67, 0
1, 106544, Control_c, 0, 64, 67
1, 106553, Note_off_c, 0, 52, 61
1, 106559, Control_c, 0, 64, 70
1, 106574, Control_c, 0, 64, 74
1, 106589, Control_c, 0, 64, 76
1, 106604, Control_c, 0, 64, 76
1, 106618, Control_c, 0, 64, 76
1, 106621, Note_on_c, 0, 38, 65
1, 106633, Control_c, 0, 64, 74
1, 106648, Control_c, 0, 64, 64
1, 106662, Control_c, 0, 64, 28
1, 106662, Control_c, 0, 67, 8
1, 106666, Note_off_c, 0, 38, 61
1, 106677, Control_c, 0, 64, 0
1, 106677, Control_c, 0, 67, 9
1, 106692, Control_c, 0, 67, 11
1, 106707, Control_c, 0, 67, 12
1, 106722, Control_c, 0, 67, 12
1, 106774, Note_on_c, 0, 40, 63
1, 106781, Control_c, 0, 67, 13
1, 106810, Control_c, 0, 67, 13
1, 106813, Note_off_c, 0, 40, 62
1, 106840, Control_c, 0, 67, 14
1, 106855, Control_c, 0, 67, 15
1, 106869, Control_c, 0, 67, 15
1, 106884, Control_c, 0, 67, 16
1, 106919, Note_on_c, 0, 42, 56
1, 106964, Note_off_c, 0, 42, 56
1, 106974, Control_c, 0, 67, 16
1, 107003, Control_c, 0, 67, 17
1, 107092, Control_c, 0, 67, 16
1, 107097, Note_on_c, 0, 40, 48
1, 107122, Control_c, 0, 64, 28
1, 107122, Control_c, 0, 67, 16
1, 107136, Control_c, 0, 64, 46
1, 107136, Control_c, 0, 67, 14
1, 107151, Control_c, 0, 64, 58
1, 107151, Control_c, 0, 67, 13
1, 107161, Note_off_c, 0, 40, 60
1, 107166, Control_c, 0, 64, 64
1, 107166, Control_c, 0, 67, 12
1, 107181, Control_c, 0, 64, 68
1, 107181, Control_c, 0, 67, 12
1, 107203, Control_c, 0, 64, 73
1, 107219, Control_c, 0, 64, 79
1, 107230, Note_off_c, 0, 59, 35
1, 107234, Control_c, 0, 64, 84
1, 107248, Control_c, 0, 64, 88
1, 107248, Control_c, 0, 67, 11
1, 107261, Note_off_c, 0, 64, 30
1, 107263, Control_c, 0, 64, 93
1, 107270, Note_off_c, 0, 56, 32
1, 107278, Control_c, 0, 64, 97
1, 107292, Control_c, 0, 64, 100
1, 107307, Control_c, 0, 64, 101
1, 107337, Control_c, 0, 67, 12
1, 107367, Control_c, 0, 64, 100
1, 107367, Control_c, 0, 67, 12
1, 107382, Control_c, 0, 64, 96
1, 107382, Control_c, 0, 67, 13
1, 107397, Control_c, 0, 64, 84
1, 107412, Control_c, 0, 64, 69
1, 107415, Note_on_c, 0, 52, 67
1, 107424, Note_on_c, 0, 61, 53
1, 107427, Control_c, 0, 64, 50
1, 107429, Note_on_c, 0, 57, 53
1, 107438, Note_on_c, 0, 64, 54
1, 107441, Control_c, 0, 64, 15
1, 107445, Note_off_c, 0, 52, 66
1, 107456, Control_c, 0, 64, 0
1, 107515, Control_c, 0, 67, 13
1, 107585, Note_on_c, 0, 37, 70
1, 107632, Note_off_c, 0, 37, 57
1, 107679, Control_c, 0, 67, 14
1, 107738, Control_c, 0, 67, 14
1, 107766, Note_on_c, 0, 40, 62
1, 107782, Control_c, 0, 67, 15
1, 107809, Note_off_c, 0, 40, 65
1, 107841, Control_c, 0, 67, 15
1, 107871, Control_c, 0, 67, 16
1, 107901, Control_c, 0, 67, 16
1, 107959, Note_on_c, 0, 42, 57
1, 107967, Control_c, 0, 67, 17
1, 108008, Note_off_c, 0, 42, 63
1, 108012, Control_c, 0, 67, 17
1, 108028, Control_c, 0, 67, 18
1, 108042, Control_c, 0, 67, 18
1, 108072, Control_c, 0, 67, 19
1, 108087, Control_c, 0, 67, 19
1, 108102, Control_c, 0, 67, 20
1, 108116, Control_c, 0, 67, 20
1, 108161, Control_c, 0, 67, 21
1, 108189, Note_on_c, 0, 40, 50
1, 108190, Control_c, 0, 64, 32
1, 108205, Control_c, 0, 64, 51
1, 108205, Control_c, 0, 67, 21
1, 108215, Note_off_c, 0, 57, 60
1, 108220, Control_c, 0, 64, 60
1, 108220, Control_c, 0, 67, 22
1, 108234, Control_c, 0, 64, 65
1, 108234, Control_c, 0, 67, 23
1, 108245, Note_off_c, 0, 64, 61
1, 108249, Control_c, 0, 64, 68
1, 108249, Control_c, 0, 67, 24
1, 108264, Control_c, 0, 64, 72
1, 108264, Control_c, 0, 67, 26
1, 108279, Control_c, 0, 64, 78
1, 108279, Control_c, 0, 67, 27
1, 108294, Control_c, 0, 64, 82
1, 108294, Control_c, 0, 67, 28
1, 108298, Note_off_c, 0, 40, 50
1, 108303, Note_off_c, 0, 61, 50
1, 108308, Control_c, 0, 64, 84
1, 108308, Control_c, 0, 67, 30
1, 108323, Control_c, 0, 64, 86
1, 108323, Control_c, 0, 67, 32
1, 108338, Control_c, 0, 64, 88
1, 108338, Control_c, 0, 67, 34
1, 108353, Control_c, 0, 64, 90
1, 108353, Control_c, 0, 67, 37
1, 108368, Control_c, 0, 64, 91
1, 108368, Control_c, 0, 67, 41
1, 108382, Control_c, 0, 64, 91
1, 108382, Control_c, 0, 67, 46
1, 108397, Control_c, 0, 64, 92
1, 108397, Control_c, 0, 67, 49
1, 108412, Control_c, 0, 67, 53
1, 108427, Control_c, 0, 67, 56
1, 108441, Control_c, 0, 67, 58
1, 108456, Control_c, 0, 67, 61
1, 108471, Control_c, 0, 67, 63
1, 108486, Control_c, 0, 67, 66
1, 108501, Control_c, 0, 67, 68
1, 108515, Control_c, 0, 67, 71
1, 108530, Control_c, 0, 67, 74
1, 108545, Control_c, 0, 67, 77
1, 108560, Control_c, 0, 64, 91
1, 108560, Control_c, 0, 67, 80
1, 108575, Control_c, 0, 64, 87
1, 108575, Control_c, 0, 67, 82
1, 108589, Control_c, 0, 64, 77
1, 108589, Control_c, 0, 67, 86
1, 108592, Note_on_c, 0, 64, 44
1, 108599, Note_on_c, 0, 52, 56
1, 108604, Note_on_c, 0, 62, 51
1, 108604, Control_c, 0, 64, 67
1, 108604, Control_c, 0, 67, 90
1, 108608, Note_on_c, 0, 56, 42
1, 108619, Control_c, 0, 64, 53
1, 108619, Control_c, 0, 67, 93
1, 108634, Control_c, 0, 64, 27
1, 108634, Control_c, 0, 67, 96
1, 108647, Note_off_c, 0, 52, 58
1, 108649, Control_c, 0, 64, 0
1, 108649, Control_c, 0, 67, 98
1, 108664, Control_c, 0, 67, 99
1, 108686, Control_c, 0, 67, 101
1, 108701, Control_c, 0, 67, 103
1, 108715, Control_c, 0, 67, 105
1, 108730, Control_c, 0, 67, 106
1, 108745, Control_c, 0, 67, 106
1, 108760, Control_c, 0, 67, 107
1, 108774, Control_c, 0, 67, 108
1, 108789, Control_c, 0, 67, 110
1, 108804, Control_c, 0, 67, 110
1, 108820, Control_c, 0, 67, 111
1, 108828, Note_on_c, 0, 35, 54
1, 108835, Control_c, 0, 67, 112
1, 108850, Control_c, 0, 67, 113
1, 108864, Control_c, 0, 67, 114
1, 108875, Note_off_c, 0, 35, 64
1, 108879, Control_c, 0, 67, 114
1, 108894, Control_c, 0, 67, 115
1, 108909, Control_c, 0, 67, 116
1, 108924, Control_c, 0, 67, 116
1, 108938, Control_c, 0, 67, 118
1, 108953, Control_c, 0, 67, 119
1, 108968, Control_c, 0, 67, 120
1, 108983, Control_c, 0, 67, 121
1, 108998, Control_c, 0, 67, 122
1, 109012, Control_c, 0, 67, 122
1, 109084, Note_on_c, 0, 40, 52
1, 109123, Note_off_c, 0, 40, 60
1, 109385, Note_on_c, 0, 42, 45
1, 109451, Note_off_c, 0, 42, 57
1, 109629, Control_c, 0, 67, 123
1, 109687, Control_c, 0, 64, 20
1, 109702, Control_c, 0, 64, 38
1, 109717, Control_c, 0, 64, 49
1, 109732, Control_c, 0, 64, 53
1, 109747, Control_c, 0, 64, 55
1, 109761, Control_c, 0, 64, 57
1, 109776, Control_c, 0, 64, 59
1, 109791, Control_c, 0, 64, 61
1, 109806, Control_c, 0, 64, 63
1, 109808, Note_on_c, 0, 40, 38
1, 109820, Control_c, 0, 64, 65
1, 109835, Control_c, 0, 64, 67
1, 109850, Control_c, 0, 64, 69
1, 109864, Note_off_c, 0, 40, 63
1, 109865, Control_c, 0, 64, 72
1, 109880, Control_c, 0, 64, 76
1, 109895, Control_c, 0, 64, 79
1, 109910, Control_c, 0, 64, 82
1, 109925, Control_c, 0, 64, 85
1, 109940, Control_c, 0, 64, 88
1, 109940, Control_c, 0, 67, 123
1, 109954, Control_c, 0, 64, 90
1, 109969, Control_c, 0, 64, 92
1, 109969, Control_c, 0, 67, 124
1, 109984, Control_c, 0, 64, 95
1, 109999, Control_c, 0, 64, 96
1, 109999, Control_c, 0, 67, 124
1, 110013, Control_c, 0, 64, 98
1, 110028, Control_c, 0, 64, 98
1, 110028, Control_c, 0, 67, 125
1, 110043, Control_c, 0, 64, 99
1, 110043, Control_c, 0, 67, 127
1, 110291, Note_off_c, 0, 56, 35
1, 110304, Note_off_c, 0, 62, 0
1, 110360, Poly_aftertouch_c, 0, 62, 0
1, 110361, Control_c, 0, 64, 98
1, 110384, Note_off_c, 0, 64, 43
1, 110407, Control_c, 0, 64, 98
1, 110451, Control_c, 0, 64, 97
1, 110481, Control_c, 0, 64, 97
1, 110496, Control_c, 0, 64, 96
1, 110510, Control_c, 0, 64, 95
1, 110525, Control_c, 0, 64, 94
1, 110540, Control_c, 0, 64, 94
1, 110555, Control_c, 0, 64, 93
1, 110570, Control_c, 0, 64, 92
1, 110584, Control_c, 0, 64, 90
1, 110599, Control_c, 0, 64, 89
1, 110614, Control_c, 0, 64, 88
1, 110629, Control_c, 0, 64, 87
1, 110643, Control_c, 0, 64, 86
1, 110658, Control_c, 0, 64, 85
1, 110673, Control_c, 0, 64, 84
1, 110688, Control_c, 0, 64, 83
1, 110703, Control_c, 0, 64, 82
1, 110718, Control_c, 0, 64, 82
1, 110732, Control_c, 0, 64, 81
1, 110747, Control_c, 0, 64, 81
1, 110762, Control_c, 0, 64, 80
1, 110777, Control_c, 0, 64, 79
1, 110792, Control_c, 0, 64, 78
1, 110807, Control_c, 0, 64, 78
1, 110822, Control_c, 0, 64, 76
1, 110836, Control_c, 0, 64, 74
1, 110851, Control_c, 0, 64, 70
1, 110866, Control_c, 0, 64, 64
1, 110881, Control_c, 0, 64, 56
1, 110896, Control_c, 0, 64, 47
1, 110910, Control_c, 0, 64, 35
1, 110932, Control_c, 0, 64, 0
1, 111645, Control_c, 0, 64, 24
1, 111659, Control_c, 0, 64, 35
1, 111674, Control_c, 0, 64, 43
1, 111697, Control_c, 0, 64, 49
1, 111712, Control_c, 0, 64, 53
1, 111727, Control_c, 0, 64, 56
1, 111741, Control_c, 0, 64, 58
1, 111756, Control_c, 0, 64, 61
1, 111771, Control_c, 0, 64, 64
1, 111785, Control_c, 0, 64, 66
1, 111800, Control_c, 0, 64, 69
1, 111808, Note_on_c, 0, 33, 25
1, 111815, Control_c, 0, 64, 74
1, 111830, Control_c, 0, 64, 81
1, 111841, Note_off_c, 0, 33, 62
1, 111845, Control_c, 0, 64, 91
1, 111859, Control_c, 0, 64, 102
1, 111874, Control_c, 0, 64, 117
1, 111889, Control_c, 0, 64, 127
1, 112231, Control_c, 0, 64, 102
1, 112246, Control_c, 0, 64, 80
1, 112247, Note_on_c, 0, 64, 36
1, 112261, Note_on_c, 0, 61, 44
1, 112261, Control_c, 0, 64, 61
1, 112268, Note_on_c, 0, 52, 21
1, 112275, Control_c, 0, 64, 40
1, 112290, Control_c, 0, 64, 0
1, 112294, Note_off_c, 0, 61, 57
1, 112304, Note_off_c, 0, 52, 45
1, 112304, Note_off_c, 0, 64, 53
1, 112565, Note_on_c, 0, 61, 33
1, 112568, Note_on_c, 0, 64, 47
1, 112578, Note_on_c, 0, 57, 42
1, 112604, Note_off_c, 0, 61, 63
1, 112607, Note_off_c, 0, 64, 64
1, 112617, Note_off_c, 0, 57, 64
1, 112816, Control_c, 0, 64, 13
1, 112828, Note_on_c, 0, 45, 54
1, 112831, Control_c, 0, 64, 46
1, 112846, Control_c, 0, 64, 60
1, 112860, Note_off_c, 0, 45, 64
1, 112861, Control_c, 0, 64, 67
1, 112876, Control_c, 0, 64, 73
1, 112891, Control_c, 0, 64, 83
1, 112905, Control_c, 0, 64, 97
1, 112920, Control_c, 0, 64, 111
1, 112935, Control_c, 0, 64, 127
1, 113083, Control_c, 0, 64, 90
1, 113097, Control_c, 0, 64, 71
1, 113109, Note_on_c, 0, 52, 51
1, 113112, Control_c, 0, 64, 54
1, 113123, Note_on_c, 0, 61, 43
1, 113124, Note_on_c, 0, 64, 39
1, 113127, Control_c, 0, 64, 28
1, 113141, Note_off_c, 0, 52, 55
1, 113142, Control_c, 0, 64, 0
1, 113154, Note_off_c, 0, 64, 65
1, 113155, Note_off_c, 0, 61, 65
1, 113394, Note_on_c, 0, 64, 47
1, 113410, Note_on_c, 0, 61, 9
1, 113416, Note_on_c, 0, 57, 40
1, 113428, Note_off_c, 0, 64, 65
1, 113435, Note_off_c, 0, 61, 48
1, 113456, Note_off_c, 0, 57, 64
1, 113654, Control_c, 0, 64, 35
1, 113660, Note_on_c, 0, 45, 59
1, 113669, Control_c, 0, 64, 54
1, 113684, Control_c, 0, 64, 63
1, 113693, Note_off_c, 0, 45, 65
1, 113698, Control_c, 0, 64, 67
1, 113713, Control_c, 0, 64, 73
1, 113728, Control_c, 0, 64, 81
1, 113743, Control_c, 0, 64, 91
1, 113758, Control_c, 0, 64, 99
1, 113772, Control_c, 0, 64, 107
1, 113787, Control_c, 0, 64, 113
1, 113802, Control_c, 0, 64, 121
1, 113817, Control_c, 0, 64, 127
1, 113905, Control_c, 0, 64, 109
1, 113928, Control_c, 0, 64, 89
1, 113942, Note_on_c, 0, 52, 51
1, 113943, Control_c, 0, 64, 73
1, 113949, Note_on_c, 0, 64, 43
1, 113952, Note_on_c, 0, 61, 43
1, 113958, Control_c, 0, 64, 56
1, 113971, Note_off_c, 0, 52, 54
1, 113973, Control_c, 0, 64, 0
1, 113980, Note_off_c, 0, 64, 54
1, 113983, Note_off_c, 0, 61, 55
1, 114229, Note_on_c, 0, 64, 40
1, 114234, Note_on_c, 0, 61, 20
1, 114235, Note_on_c, 0, 57, 44
1, 114254, Note_off_c, 0, 64, 60
1, 114255, Note_off_c, 0, 61, 53
1, 114274, Note_off_c, 0, 57, 63
1, 114403, Control_c, 0, 64, 20
1, 114418, Control_c, 0, 64, 38
1, 114433, Control_c, 0, 64, 48
1, 114448, Control_c, 0, 64, 53
1, 114463, Control_c, 0, 64, 56
1, 114477, Control_c, 0, 64, 59
1, 114492, Control_c, 0, 64, 62
1, 114507, Control_c, 0, 64, 65
1, 114507, Control_c, 0, 67, 125
1, 114520, Note_on_c, 0, 45, 46
1, 114522, Control_c, 0, 64, 69
1, 114522, Control_c, 0, 67, 120
1, 114536, Control_c, 0, 64, 73
1, 114536, Control_c, 0, 67, 114
1, 114551, Note_off_c, 0, 45, 60
1, 114551, Control_c, 0, 64, 81
1, 114551, Control_c, 0, 67, 108
1, 114566, Control_c, 0, 64, 89
1, 114566, Control_c, 0, 67, 101
1, 114581, Control_c, 0, 64, 99
1, 114581, Control_c, 0, 67, 91
1, 114596, Control_c, 0, 64, 114
1, 114596, Control_c, 0, 67, 83
1, 114611, Control_c, 0, 64, 127
1, 114611, Control_c, 0, 67, 74
1, 114625, Control_c, 0, 67, 65
1, 114640, Control_c, 0, 67, 56
1, 114655, Control_c, 0, 67, 47
1, 114677, Control_c, 0, 67, 38
1, 114692, Control_c, 0, 67, 28
1, 114707, Control_c, 0, 67, 20
1, 114722, Control_c, 0, 67, 13
1, 114736, Control_c, 0, 67, 11
1, 114751, Control_c, 0, 67, 11
1, 114781, Control_c, 0, 67, 10
1, 114796, Control_c, 0, 67, 9
1, 114810, Control_c, 0, 67, 9
1, 114825, Control_c, 0, 67, 8
1, 114840, Control_c, 0, 67, 8
1, 114855, Control_c, 0, 67, 0
1, 114875, Note_on_c, 0, 73, 45
1, 114898, Note_on_c, 0, 52, 27
1, 114931, Note_on_c, 0, 61, 30
1, 114939, Note_off_c, 0, 52, 51
1, 114971, Note_off_c, 0, 61, 52
1, 114994, Poly_aftertouch_c, 0, 64, 0
1, 115006, Note_off_c, 0, 73, 54
1, 115011, Note_on_c, 0, 76, 54
1, 115138, Note_on_c, 0, 74, 55
1, 115147, Note_on_c, 0, 64, 34
1, 115168, Note_on_c, 0, 57, 44
1, 115176, Note_off_c, 0, 64, 57
1, 115193, Note_off_c, 0, 76, 34
1, 115199, Note_off_c, 0, 57, 60
1, 115249, Note_on_c, 0, 73, 58
1, 115260, Note_off_c, 0, 74, 59
1, 115312, Note_off_c, 0, 73, 60
1, 115374, Control_c, 0, 64, 117
1, 115389, Control_c, 0, 64, 85
1, 115404, Control_c, 0, 64, 67
1, 115419, Control_c, 0, 64, 54
1, 115434, Note_on_c, 0, 78, 51
1, 115441, Control_c, 0, 64, 43
1, 115441, Control_c, 0, 67, 8
1, 115456, Control_c, 0, 64, 44
1, 115456, Control_c, 0, 67, 9
1, 115458, Note_on_c, 0, 73, 44
1, 115471, Control_c, 0, 64, 51
1, 115471, Control_c, 0, 67, 10
1, 115474, Note_on_c, 0, 50, 33
1, 115485, Control_c, 0, 64, 60
1, 115485, Control_c, 0, 67, 11
1, 115500, Control_c, 0, 64, 67
1, 115500, Control_c, 0, 67, 11
1, 115507, Note_off_c, 0, 73, 59
1, 115515, Control_c, 0, 64, 76
1, 115515, Control_c, 0, 67, 12
1, 115517, Note_off_c, 0, 50, 62
1, 115524, Note_off_c, 0, 78, 61
1, 115530, Control_c, 0, 64, 86
1, 115530, Control_c, 0, 67, 12
1, 115545, Control_c, 0, 64, 94
1, 115545, Control_c, 0, 67, 13
1, 115559, Control_c, 0, 64, 100
1, 115574, Control_c, 0, 64, 110
1, 115589, Control_c, 0, 64, 127
1, 115589, Control_c, 0, 67, 13
1, 115619, Control_c, 0, 67, 14
1, 115633, Control_c, 0, 67, 14
1, 115648, Control_c, 0, 67, 15
1, 115663, Control_c, 0, 67, 15
1, 115678, Control_c, 0, 67, 16
1, 115693, Control_c, 0, 67, 16
1, 115722, Control_c, 0, 67, 17
1, 115737, Control_c, 0, 67, 17
1, 115752, Control_c, 0, 67, 18
1, 115767, Control_c, 0, 67, 18
1, 115782, Control_c, 0, 64, 108
1, 115797, Control_c, 0, 64, 85
1, 115797, Control_c, 0, 67, 19
1, 115812, Control_c, 0, 64, 68
1, 115812, Control_c, 0, 67, 19
1, 115824, Note_on_c, 0, 62, 37
1, 115826, Control_c, 0, 64, 45
1, 115827, Note_on_c, 0, 66, 33
1, 115841, Control_c, 0, 64, 0
1, 115864, Note_off_c, 0, 66, 58
1, 115866, Note_off_c, 0, 62, 57
1, 115885, Control_c, 0, 67, 20
1, 115915, Control_c, 0, 67, 20
1, 116092, Note_on_c, 0, 78, 47
1, 116107, Note_on_c, 0, 71, 37
1, 116118, Note_on_c, 0, 66, 32
1, 116132, Note_on_c, 0, 62, 32
1, 116138, Control_c, 0, 67, 21
1, 116141, Note_off_c, 0, 66, 54
1, 116153, Control_c, 0, 67, 21
1, 116155, Note_off_c, 0, 62, 56
1, 116175, Control_c, 0, 67, 22
1, 116338, Control_c, 0, 64, 42
1, 116353, Control_c, 0, 64, 58
1, 116368, Control_c, 0, 64, 63
1, 116368, Control_c, 0, 67, 22
1, 116372, Note_on_c, 0, 50, 44
1, 116382, Control_c, 0, 64, 66
1, 116382, Control_c, 0, 67, 23
1, 116397, Control_c, 0, 64, 69
1, 116397, Control_c, 0, 67, 24
1, 116401, Note_off_c, 0, 50, 60
1, 116405, Note_off_c, 0, 78, 60
1, 116412, Control_c, 0, 64, 75
1, 116412, Control_c, 0, 67, 25
1, 116423, Note_off_c, 0, 71, 56
1, 116427, Control_c, 0, 64, 86
1, 116427, Control_c, 0, 67, 26
1, 116442, Control_c, 0, 64, 97
1, 116442, Control_c, 0, 67, 27
1, 116456, Control_c, 0, 64, 108
1, 116471, Control_c, 0, 64, 127
1, 116471, Control_c, 0, 67, 27
1, 116486, Control_c, 0, 67, 28
1, 116500, Control_c, 0, 67, 29
1, 116515, Control_c, 0, 67, 30
1, 116530, Control_c, 0, 67, 31
1, 116545, Control_c, 0, 67, 31
1, 116560, Control_c, 0, 67, 32
1, 116633, Control_c, 0, 64, 103
1, 116643, Note_on_c, 0, 78, 55
1, 116648, Control_c, 0, 64, 83
1, 116648, Control_c, 0, 67, 32
1, 116661, Note_on_c, 0, 71, 42
1, 116662, Note_on_c, 0, 66, 40
1, 116663, Control_c, 0, 64, 69
1, 116678, Control_c, 0, 64, 56
1, 116683, Note_on_c, 0, 62, 33
1, 116692, Control_c, 0, 64, 38
1, 116692, Control_c, 0, 67, 32
1, 116701, Note_off_c, 0, 66, 54
1, 116707, Control_c, 0, 64, 0
1, 116715, Note_off_c, 0, 62, 55
1, 116760, Note_off_c, 0, 78, 61
1, 116765, Note_on_c, 0, 81, 58
1, 116766, Control_c, 0, 67, 33
1, 116781, Control_c, 0, 67, 33
1, 116797, Control_c, 0, 67, 34
1, 116812, Control_c, 0, 67, 35
1, 116827, Control_c, 0, 67, 36
1, 116842, Control_c, 0, 67, 36
1, 116857, Control_c, 0, 67, 37
1, 116871, Control_c, 0, 67, 38
1, 116879, Note_on_c, 0, 62, 36
1, 116882, Note_on_c, 0, 80, 60
1, 116886, Control_c, 0, 67, 39
1, 116895, Note_on_c, 0, 66, 25
1, 116901, Control_c, 0, 67, 40
1, 116912, Note_off_c, 0, 62, 66
1, 116914, Note_off_c, 0, 66, 52
1, 116923, Control_c, 0, 67, 42
1, 116938, Control_c, 0, 67, 42
1, 116953, Control_c, 0, 67, 43
1, 116965, Note_off_c, 0, 81, 33
1, 116968, Control_c, 0, 67, 44
1, 116983, Control_c, 0, 67, 45
1, 116998, Control_c, 0, 67, 46
1, 116998, Note_on_c, 0, 78, 60
1, 117004, Note_off_c, 0, 71, 33
1, 117012, Control_c, 0, 67, 47
1, 117017, Note_off_c, 0, 80, 51
1, 117027, Control_c, 0, 67, 48
1, 117042, Control_c, 0, 67, 50
1, 117056, Note_off_c, 0, 78, 59
1, 117056, Control_c, 0, 67, 53
1, 117071, Control_c, 0, 67, 55
1, 117086, Control_c, 0, 67, 57
1, 117101, Control_c, 0, 67, 58
1, 117116, Control_c, 0, 67, 59
1, 117130, Control_c, 0, 67, 60
1, 117145, Control_c, 0, 64, 21
1, 117145, Control_c, 0, 67, 61
1, 117151, Note_on_c, 0, 76, 54
1, 117156, Note_on_c, 0, 71, 41
1, 117160, Control_c, 0, 64, 46
1, 117160, Control_c, 0, 67, 62
1, 117165, Note_on_c, 0, 52, 40
1, 117175, Control_c, 0, 64, 58
1, 117175, Control_c, 0, 67, 62
1, 117190, Control_c, 0, 64, 62
1, 117190, Control_c, 0, 67, 63
1, 117204, Control_c, 0, 64, 65
1, 117204, Control_c, 0, 67, 64
1, 117213, Note_off_c, 0, 76, 58
1, 117219, Control_c, 0, 64, 69
1, 117219, Control_c, 0, 67, 66
1, 117228, Note_off_c, 0, 71, 61
1, 117234, Control_c, 0, 64, 76
1, 117234, Control_c, 0, 67, 67
1, 117249, Control_c, 0, 64, 83
1, 117249, Control_c, 0, 67, 67
1, 117264, Control_c, 0, 64, 90
1, 117264, Control_c, 0, 67, 68
1, 117275, Note_off_c, 0, 52, 39
1, 117278, Control_c, 0, 64, 95
1, 117278, Control_c, 0, 67, 70
1, 117293, Control_c, 0, 64, 99
1, 117293, Control_c, 0, 67, 72
1, 117308, Control_c, 0, 64, 103
1, 117308, Control_c, 0, 67, 74
1, 117323, Control_c, 0, 64, 107
1, 117323, Control_c, 0, 67, 76
1, 117338, Control_c, 0, 64, 109
1, 117338, Control_c, 0, 67, 77
1, 117353, Control_c, 0, 64, 111
1, 117353, Control_c, 0, 67, 78
1, 117368, Control_c, 0, 67, 79
1, 117383, Control_c, 0, 67, 81
1, 117397, Control_c, 0, 67, 81
1, 117412, Control_c, 0, 67, 82
1, 117442, Control_c, 0, 64, 106
1, 117442, Control_c, 0, 67, 83
1, 117456, Control_c, 0, 64, 93
1, 117469, Note_on_c, 0, 64, 41
1, 117469, Note_on_c, 0, 61, 41
1, 117471, Control_c, 0, 64, 79
1, 117486, Control_c, 0, 64, 66
1, 117501, Control_c, 0, 64, 48
1, 117501, Control_c, 0, 67, 83
1, 117516, Control_c, 0, 64, 0
1, 117522, Note_off_c, 0, 61, 60
1, 117528, Note_off_c, 0, 64, 56
1, 117530, Control_c, 0, 67, 84
1, 117545, Control_c, 0, 67, 84
1, 117575, Control_c, 0, 67, 85
1, 117591, Control_c, 0, 67, 86
1, 117606, Control_c, 0, 67, 86
1, 117620, Control_c, 0, 67, 87
1, 117635, Control_c, 0, 67, 87
1, 117672, Control_c, 0, 67, 88
1, 117717, Control_c, 0, 67, 88
1, 117744, Note_on_c, 0, 76, 47
1, 117758, Note_on_c, 0, 61, 39
1, 117758, Note_on_c, 0, 69, 35
1, 117765, Note_on_c, 0, 64, 31
1, 117809, Note_off_c, 0, 64, 52
1, 117820, Control_c, 0, 67, 89
1, 117822, Note_off_c, 0, 61, 53
1, 117850, Control_c, 0, 67, 89
1, 117865, Control_c, 0, 67, 90
1, 117879, Control_c, 0, 67, 90
1, 117968, Control_c, 0, 64, 18
1, 117968, Control_c, 0, 67, 90
1, 117983, Control_c, 0, 64, 47
1, 117983, Control_c, 0, 67, 89
1, 117991, Note_on_c, 0, 52, 35
1, 117998, Control_c, 0, 64, 60
1, 117998, Control_c, 0, 67, 89
1, 118014, Control_c, 0, 64, 65
1, 118014, Control_c, 0, 67, 88
1, 118028, Control_c, 0, 64, 68
1, 118032, Note_off_c, 0, 76, 44
1, 118042, Note_off_c, 0, 52, 56
1, 118043, Control_c, 0, 64, 72
1, 118058, Control_c, 0, 64, 80
1, 118072, Control_c, 0, 64, 87
1, 118087, Control_c, 0, 64, 94
1, 118088, Note_off_c, 0, 69, 34
1, 118102, Control_c, 0, 64, 99
1, 118117, Control_c, 0, 64, 103
1, 118132, Control_c, 0, 64, 106
1, 118146, Control_c, 0, 64, 108
1, 118161, Control_c, 0, 64, 109
1, 118220, Control_c, 0, 64, 108
1, 118247, Note_on_c, 0, 69, 43
1, 118250, Note_on_c, 0, 76, 52
1, 118250, Control_c, 0, 64, 107
1, 118250, Control_c, 0, 67, 89
1, 118265, Control_c, 0, 64, 99
1, 118280, Control_c, 0, 64, 89
1, 118292, Note_on_c, 0, 61, 35
1, 118295, Note_on_c, 0, 64, 31
1, 118295, Control_c, 0, 64, 78
1, 118310, Control_c, 0, 64, 69
1, 118325, Control_c, 0, 64, 60
1, 118325, Control_c, 0, 67, 89
1, 118329, Note_off_c, 0, 61, 48
1, 118333, Note_off_c, 0, 64, 51
1, 118340, Control_c, 0, 64, 47
1, 118354, Control_c, 0, 64, 24
1, 118367, Note_on_c, 0, 73, 58
1, 118369, Control_c, 0, 64, 0
1, 118421, Note_off_c, 0, 69, 57
1, 118462, Note_off_c, 0, 76, 33
1, 118489, Note_on_c, 0, 71, 58
1, 118495, Note_on_c, 0, 61, 39
1, 118504, Note_on_c, 0, 64, 35
1, 118530, Note_off_c, 0, 73, 55
1, 118543, Note_off_c, 0, 64, 53
1, 118547, Note_off_c, 0, 61, 57
1, 118595, Note_on_c, 0, 69, 59
1, 118623, Note_off_c, 0, 71, 58
1, 118629, Control_c, 0, 67, 89
1, 118651, Note_off_c, 0, 69, 57
1, 118688, Control_c, 0, 67, 88
1, 118733, Control_c, 0, 67, 88
1, 118734, Note_on_c, 0, 76, 60
1, 118743, Note_on_c, 0, 69, 46
1, 118748, Control_c, 0, 67, 87
1, 118753, Note_on_c, 0, 52, 38
1, 118763, Control_c, 0, 64, 27
1, 118763, Control_c, 0, 67, 87
1, 118777, Control_c, 0, 64, 54
1, 118792, Note_off_c, 0, 52, 57
1, 118792, Control_c, 0, 64, 63
1, 118807, Control_c, 0, 64, 67
1, 118807, Control_c, 0, 67, 86
1, 118816, Note_off_c, 0, 69, 59
1, 118821, Control_c, 0, 64, 71
1, 118822, Note_off_c, 0, 76, 37
1, 118836, Control_c, 0, 64, 77
1, 118851, Control_c, 0, 64, 83
1, 118851, Control_c, 0, 67, 86
1, 118866, Control_c, 0, 64, 90
1, 118881, Control_c, 0, 64, 94
1, 118895, Control_c, 0, 64, 97
1, 118910, Control_c, 0, 64, 99
1, 118925, Control_c, 0, 64, 99
1, 118925, Control_c, 0, 67, 86
1, 118955, Control_c, 0, 67, 87
1, 118969, Control_c, 0, 67, 87
1, 118984, Control_c, 0, 64, 97
1, 118999, Control_c, 0, 64, 87
1, 119013, Control_c, 0, 64, 74
1, 119013, Control_c, 0, 67, 88
1, 119028, Control_c, 0, 64, 60
1, 119032, Note_on_c, 0, 59, 37
1, 119043, Control_c, 0, 64, 36
1, 119043, Control_c, 0, 67, 88
1, 119047, Note_on_c, 0, 64, 32
1, 119050, Note_on_c, 0, 62, 17
1, 119058, Control_c, 0, 64, 0
1, 119058, Control_c, 0, 67, 89
1, 119069, Note_off_c, 0, 59, 55
1, 119080, Note_off_c, 0, 64, 58
1, 119085, Note_off_c, 0, 62, 51
1, 119103, Control_c, 0, 67, 89
1, 119148, Control_c, 0, 67, 90
1, 119200, Control_c, 0, 67, 90
1, 119274, Control_c, 0, 67, 91
1, 119298, Note_on_c, 0, 76, 47
1, 119304, Control_c, 0, 67, 91
1, 119313, Note_on_c, 0, 68, 38
1, 119333, Control_c, 0, 67, 92
1, 119335, Note_on_c, 0, 59, 33
1, 119335, Note_on_c, 0, 64, 36
1, 119336, Note_on_c, 0, 62, 25
1, 119348, Control_c, 0, 67, 92
1, 119363, Control_c, 0, 67, 93
1, 119378, Control_c, 0, 67, 95
1, 119382, Note_off_c, 0, 64, 53
1, 119385, Note_off_c, 0, 62, 51
1, 119388, Note_off_c, 0, 59, 55
1, 119392, Control_c, 0, 67, 96
1, 119407, Control_c, 0, 67, 96
1, 119466, Control_c, 0, 67, 97
1, 119526, Control_c, 0, 64, 30
1, 119541, Control_c, 0, 64, 53
1, 119556, Control_c, 0, 64, 63
1, 119560, Note_on_c, 0, 52, 37
1, 119571, Control_c, 0, 64, 67
1, 119586, Control_c, 0, 64, 72
1, 119594, Note_off_c, 0, 76, 57
1, 119598, Note_off_c, 0, 52, 55
1, 119600, Control_c, 0, 64, 78
1, 119615, Control_c, 0, 64, 86
1, 119630, Control_c, 0, 64, 96
1, 119644, Control_c, 0, 64, 105
1, 119659, Note_off_c, 0, 68, 32
1, 119659, Control_c, 0, 64, 116
1, 119674, Control_c, 0, 64, 127
1, 119733, Control_c, 0, 67, 97
1, 119762, Control_c, 0, 67, 98
1, 119777, Control_c, 0, 67, 99
1, 119792, Control_c, 0, 67, 100
1, 119807, Control_c, 0, 67, 101
1, 119818, Note_on_c, 0, 76, 56
1, 119822, Control_c, 0, 67, 102
1, 119836, Control_c, 0, 64, 114
1, 119836, Control_c, 0, 67, 103
1, 119837, Note_on_c, 0, 68, 28
1, 119848, Note_on_c, 0, 59, 39
1, 119851, Control_c, 0, 64, 93
1, 119851, Control_c, 0, 67, 104
1, 119860, Note_on_c, 0, 64, 29
1, 119862, Note_on_c, 0, 62, 23
1, 119866, Control_c, 0, 64, 77
1, 119866, Control_c, 0, 67, 105
1, 119881, Control_c, 0, 64, 64
1, 119881, Control_c, 0, 67, 105
1, 119890, Note_off_c, 0, 59, 60
1, 119896, Control_c, 0, 64, 47
1, 119896, Control_c, 0, 67, 106
1, 119905, Note_off_c, 0, 62, 48
1, 119907, Note_off_c, 0, 64, 46
1, 119911, Control_c, 0, 64, 27
1, 119911, Control_c, 0, 67, 106
1, 119933, Control_c, 0, 64, 0
1, 119942, Note_off_c, 0, 76, 59
1, 119947, Note_on_c, 0, 80, 57
1, 119948, Control_c, 0, 67, 107
1, 119977, Control_c, 0, 67, 107
1, 119992, Control_c, 0, 67, 108
1, 120009, Control_c, 0, 67, 109
1, 120023, Control_c, 0, 67, 110
1, 120038, Control_c, 0, 67, 111
1, 120053, Control_c, 0, 67, 112
1, 120056, Note_on_c, 0, 78, 65
1, 120068, Control_c, 0, 67, 112
1, 120073, Note_on_c, 0, 59, 41
1, 120082, Control_c, 0, 67, 113
1, 120097, Control_c, 0, 67, 114
1, 120100, Note_off_c, 0, 59, 61
1, 120109, Note_off_c, 0, 68, 52
1, 120112, Control_c, 0, 67, 116
1, 120118, Note_off_c, 0, 80, 50
1, 120127, Control_c, 0, 67, 117
1, 120142, Control_c, 0, 67, 119
1, 120156, Control_c, 0, 67, 120
1, 120165, Note_off_c, 0, 78, 54
1, 120167, Note_on_c, 0, 76, 61
1, 120171, Control_c, 0, 67, 121
1, 120186, Control_c, 0, 67, 122
1, 120201, Control_c, 0, 67, 123
1, 120214, Note_off_c, 0, 76, 59
1, 120215, Control_c, 0, 67, 125
1, 120230, Control_c, 0, 67, 126
1, 120245, Control_c, 0, 67, 126
1, 120259, Control_c, 0, 67, 127
1, 120305, Note_on_c, 0, 78, 47
1, 120331, Note_on_c, 0, 45, 38
1, 120333, Control_c, 0, 64, 34
1, 120336, Note_on_c, 0, 69, 40
1, 120347, Control_c, 0, 64, 54
1, 120362, Control_c, 0, 64, 62
1, 120377, Control_c, 0, 64, 66
1, 120391, Note_off_c, 0, 69, 62
1, 120391, Control_c, 0, 64, 72
1, 120399, Note_off_c, 0, 45, 62
1, 120406, Control_c, 0, 64, 78
1, 120407, Note_off_c, 0, 78, 61
1, 120421, Control_c, 0, 64, 86
1, 120436, Control_c, 0, 64, 93
1, 120451, Control_c, 0, 64, 99
1, 120465, Control_c, 0, 64, 106
1, 120480, Control_c, 0, 64, 114
1, 120495, Control_c, 0, 64, 127
1, 120540, Control_c, 0, 67, 127
1, 120644, Control_c, 0, 64, 117
1, 120655, Note_on_c, 0, 61, 46
1, 120665, Control_c, 0, 64, 91
1, 120674, Note_on_c, 0, 57, 42
1, 120680, Control_c, 0, 64, 73
1, 120695, Control_c, 0, 64, 57
1, 120707, Note_off_c, 0, 57, 58
1, 120710, Control_c, 0, 64, 11
1, 120721, Note_off_c, 0, 61, 55
1, 120725, Control_c, 0, 64, 0
1, 120940, Note_on_c, 0, 76, 46
1, 120949, Note_on_c, 0, 69, 35
1, 120957, Note_on_c, 0, 61, 40
1, 120963, Note_on_c, 0, 64, 39
1, 120992, Note_off_c, 0, 64, 61
1, 121002, Note_off_c, 0, 61, 65
1, 121157, Control_c, 0, 64, 34
1, 121159, Note_off_c, 0, 76, 59
1, 121171, Control_c, 0, 64, 53
1, 121186, Control_c, 0, 64, 62
1, 121186, Control_c, 0, 67, 125
1, 121189, Note_on_c, 0, 45, 52
1, 121201, Control_c, 0, 64, 66
1, 121201, Control_c, 0, 67, 123
1, 121215, Control_c, 0, 64, 71
1, 121215, Control_c, 0, 67, 119
1, 121225, Note_off_c, 0, 45, 64
1, 121230, Control_c, 0, 64, 78
1, 121230, Control_c, 0, 67, 115
1, 121245, Control_c, 0, 64, 87
1, 121245, Control_c, 0, 67, 110
1, 121260, Control_c, 0, 64, 97
1, 121260, Control_c, 0, 67, 104
1, 121275, Control_c, 0, 64, 111
1, 121275, Control_c, 0, 67, 97
1, 121289, Control_c, 0, 64, 127
1, 121289, Control_c, 0, 67, 92
1, 121297, Note_off_c, 0, 69, 32
1, 121304, Control_c, 0, 67, 87
1, 121319, Control_c, 0, 67, 82
1, 121334, Control_c, 0, 67, 76
1, 121349, Control_c, 0, 67, 69
1, 121363, Control_c, 0, 67, 59
1, 121378, Control_c, 0, 67, 47
1, 121393, Control_c, 0, 67, 35
1, 121415, Control_c, 0, 67, 24
1, 121430, Control_c, 0, 67, 12
1, 121445, Control_c, 0, 67, 0
1, 121452, Note_on_c, 0, 73, 56
1, 121457, Note_on_c, 0, 76, 50
1, 121489, Note_on_c, 0, 61, 35
1, 121494, Note_on_c, 0, 57, 34
1, 121538, Note_off_c, 0, 57, 59
1, 121561, Note_off_c, 0, 61, 50
1, 121573, Note_on_c, 0, 71, 59
1, 121611, Note_off_c, 0, 76, 34
1, 121662, Note_off_c, 0, 73, 35
1, 121688, Note_on_c, 0, 69, 60
1, 121699, Note_off_c, 0, 71, 59
1, 121720, Note_on_c, 0, 64, 41
1, 121721, Note_on_c, 0, 61, 48
1, 121742, Control_c, 0, 67, 11
1, 121757, Control_c, 0, 67, 13
1, 121759, Note_off_c, 0, 64, 62
1, 121769, Note_off_c, 0, 61, 58
1, 121771, Control_c, 0, 67, 14
1, 121776, Note_off_c, 0, 69, 64
1, 121786, Control_c, 0, 67, 15
1, 121801, Control_c, 0, 67, 16
1, 121803, Note_on_c, 0, 67, 68
1, 121816, Control_c, 0, 67, 18
1, 121831, Control_c, 0, 67, 20
1, 121838, Note_off_c, 0, 67, 58
1, 121845, Control_c, 0, 67, 22
1, 121860, Control_c, 0, 67, 24
1, 121875, Control_c, 0, 67, 25
1, 121890, Control_c, 0, 67, 27
1, 121905, Control_c, 0, 67, 29
1, 121920, Control_c, 0, 67, 32
1, 121935, Control_c, 0, 67, 35
1, 121950, Control_c, 0, 64, 101
1, 121950, Control_c, 0, 67, 40
1, 121964, Control_c, 0, 64, 76
1, 121964, Control_c, 0, 67, 45
1, 121979, Control_c, 0, 64, 59
1, 121979, Control_c, 0, 67, 51
1, 121994, Control_c, 0, 64, 34
1, 121994, Control_c, 0, 67, 56
1, 121997, Note_on_c, 0, 78, 61
1, 122009, Control_c, 0, 64, 0
1, 122009, Control_c, 0, 67, 60
1, 122011, Note_on_c, 0, 66, 46
1, 122015, Note_on_c, 0, 73, 54
1, 122023, Note_on_c, 0, 50, 38
1, 122024, Control_c, 0, 67, 65
1, 122038, Control_c, 0, 64, 34
1, 122038, Control_c, 0, 67, 69
1, 122053, Control_c, 0, 64, 53
1, 122053, Control_c, 0, 67, 74
1, 122059, Note_off_c, 0, 66, 57
1, 122068, Note_off_c, 0, 73, 57
1, 122068, Control_c, 0, 64, 65
1, 122068, Control_c, 0, 67, 78
1, 122078, Note_off_c, 0, 50, 58
1, 122083, Control_c, 0, 64, 71
1, 122083, Control_c, 0, 67, 82
1, 122095, Note_off_c, 0, 78, 60
1, 122098, Control_c, 0, 64, 76
1, 122098, Control_c, 0, 67, 85
1, 122112, Control_c, 0, 64, 82
1, 122112, Control_c, 0, 67, 89
1, 122127, Control_c, 0, 64, 89
1, 122127, Control_c, 0, 67, 93
1, 122142, Control_c, 0, 64, 95
1, 122142, Control_c, 0, 67, 96
1, 122157, Control_c, 0, 64, 100
1, 122157, Control_c, 0, 67, 100
1, 122179, Control_c, 0, 64, 106
1, 122179, Control_c, 0, 67, 103
1, 122194, Control_c, 0, 64, 112
1, 122194, Control_c, 0, 67, 107
1, 122209, Control_c, 0, 64, 121
1, 122209, Control_c, 0, 67, 110
1, 122224, Control_c, 0, 64, 127
1, 122224, Control_c, 0, 67, 113
1, 122239, Control_c, 0, 67, 116
1, 122253, Control_c, 0, 67, 118
1, 122268, Control_c, 0, 67, 120
1, 122283, Control_c, 0, 67, 121
1, 122298, Control_c, 0, 67, 123
1, 122312, Control_c, 0, 67, 124
1, 122327, Control_c, 0, 67, 125
1, 122342, Control_c, 0, 64, 114
1, 122342, Control_c, 0, 67, 126
1, 122357, Control_c, 0, 64, 99
1, 122357, Control_c, 0, 67, 127
1, 122371, Control_c, 0, 64, 84
1, 122387, Control_c, 0, 64, 70
1, 122392, Note_on_c, 0, 62, 45
1, 122392, Note_on_c, 0, 66, 43
1, 122402, Control_c, 0, 64, 54
1, 122417, Control_c, 0, 64, 24
1, 122432, Control_c, 0, 64, 0
1, 122432, Note_off_c, 0, 66, 63
1, 122439, Note_off_c, 0, 62, 62
1, 122680, Note_on_c, 0, 78, 50
1, 122686, Note_on_c, 0, 71, 44
1, 122695, Note_on_c, 0, 66, 36
1, 122704, Note_on_c, 0, 62, 41
1, 122722, Note_off_c, 0, 66, 59
1, 122732, Note_off_c, 0, 62, 65
1, 122891, Control_c, 0, 64, 12
1, 122906, Control_c, 0, 64, 42
1, 122928, Control_c, 0, 64, 58
1, 122942, Control_c, 0, 64, 66
1, 122943, Note_on_c, 0, 50, 45
1, 122957, Control_c, 0, 64, 70
1, 122972, Control_c, 0, 64, 77
1, 122980, Note_off_c, 0, 50, 64
1, 122987, Note_off_c, 0, 71, 0
1, 122987, Control_c, 0, 64, 86
1, 123002, Control_c, 0, 64, 96
1, 123017, Control_c, 0, 64, 107
1, 123032, Control_c, 0, 64, 122
1, 123047, Control_c, 0, 64, 127
1, 123052, Poly_aftertouch_c, 0, 71, 0
1, 123075, Note_off_c, 0, 78, 30
1, 123223, Note_on_c, 0, 83, 48
1, 123232, Note_on_c, 0, 71, 39
1, 123245, Note_off_c, 0, 83, 61
1, 123255, Note_on_c, 0, 66, 22
1, 123270, Note_on_c, 0, 62, 23
1, 123297, Note_off_c, 0, 66, 51
1, 123298, Control_c, 0, 64, 121
1, 123310, Note_off_c, 0, 62, 51
1, 123313, Control_c, 0, 64, 107
1, 123328, Control_c, 0, 64, 95
1, 123333, Note_on_c, 0, 81, 68
1, 123343, Control_c, 0, 64, 81
1, 123357, Control_c, 0, 64, 70
1, 123372, Control_c, 0, 64, 59
1, 123387, Control_c, 0, 64, 47
1, 123389, Note_off_c, 0, 81, 55
1, 123402, Control_c, 0, 64, 30
1, 123416, Control_c, 0, 64, 0
1, 123448, Note_on_c, 0, 80, 52
1, 123466, Note_on_c, 0, 62, 44
1, 123466, Note_on_c, 0, 66, 42
1, 123489, Note_off_c, 0, 66, 55
1, 123491, Note_off_c, 0, 62, 64
1, 123508, Note_off_c, 0, 71, 47
1, 123518, Note_off_c, 0, 80, 60
1, 123548, Note_on_c, 0, 78, 61
1, 123586, Note_off_c, 0, 78, 57
1, 123695, Note_on_c, 0, 76, 59
1, 123699, Note_on_c, 0, 71, 44
1, 123705, Control_c, 0, 64, 43
1, 123706, Note_on_c, 0, 52, 46
1, 123720, Control_c, 0, 64, 59
1, 123726, Note_off_c, 0, 76, 63
1, 123735, Control_c, 0, 64, 65
1, 123737, Note_off_c, 0, 71, 66
1, 123750, Control_c, 0, 64, 70
1, 123755, Note_off_c, 0, 52, 58
1, 123765, Control_c, 0, 64, 79
1, 123780, Control_c, 0, 64, 89
1, 123795, Control_c, 0, 64, 99
1, 123810, Control_c, 0, 64, 108
1, 123824, Control_c, 0, 64, 118
1, 123839, Control_c, 0, 64, 127
1, 123972, Control_c, 0, 64, 116
1, 123979, Note_on_c, 0, 61, 47
1, 123988, Control_c, 0, 64, 89
1, 123989, Note_on_c, 0, 64, 43
1, 124003, Control_c, 0, 64, 71
1, 124014, Note_off_c, 0, 61, 61
1, 124018, Control_c, 0, 64, 54
1, 124018, Note_off_c, 0, 64, 60
1, 124032, Control_c, 0, 64, 20
1, 124047, Control_c, 0, 64, 0
1, 124228, Note_on_c, 0, 69, 42
1, 124233, Note_on_c, 0, 76, 46
1, 124244, Note_on_c, 0, 61, 44
1, 124257, Note_on_c, 0, 64, 31
1, 124278, Note_off_c, 0, 61, 59
1, 124287, Note_off_c, 0, 64, 48
1, 124454, Control_c, 0, 64, 24
1, 124455, Note_off_c, 0, 76, 58
1, 124469, Control_c, 0, 64, 55
1, 124474, Note_on_c, 0, 52, 40
1, 124484, Control_c, 0, 64, 64
1, 124499, Control_c, 0, 64, 68
1, 124513, Control_c, 0, 64, 72
1, 124528, Control_c, 0, 64, 78
1, 124529, Note_off_c, 0, 52, 53
1, 124543, Control_c, 0, 64, 83
1, 124558, Control_c, 0, 64, 86
1, 124573, Control_c, 0, 64, 89
1, 124588, Control_c, 0, 64, 90
1, 124603, Control_c, 0, 64, 91
1, 124617, Control_c, 0, 64, 91
1, 124714, Note_on_c, 0, 74, 64
1, 124722, Note_on_c, 0, 76, 39
1, 124743, Note_on_c, 0, 61, 45
1, 124751, Note_off_c, 0, 69, 48
1, 124753, Note_on_c, 0, 64, 38
1, 124758, Note_off_c, 0, 76, 47
1, 124777, Note_off_c, 0, 61, 54
1, 124781, Control_c, 0, 64, 90
1, 124785, Note_off_c, 0, 64, 53
1, 124796, Control_c, 0, 64, 88
1, 124811, Control_c, 0, 64, 83
1, 124823, Note_on_c, 0, 73, 65
1, 124826, Control_c, 0, 64, 75
1, 124839, Note_off_c, 0, 74, 53
1, 124841, Control_c, 0, 64, 64
1, 124856, Control_c, 0, 64, 46
1, 124871, Control_c, 0, 64, 0
1, 124936, Note_on_c, 0, 71, 67
1, 124945, Note_off_c, 0, 73, 58
1, 124948, Note_on_c, 0, 61, 51
1, 124955, Note_on_c, 0, 64, 37
1, 124982, Note_off_c, 0, 64, 50
1, 124988, Note_off_c, 0, 61, 59
1, 125019, Note_off_c, 0, 71, 60
1, 125038, Note_on_c, 0, 69, 64
1, 125080, Note_off_c, 0, 69, 63
1, 125173, Note_on_c, 0, 78, 69
1, 125189, Control_c, 0, 64, 39
1, 125189, Control_c, 0, 67, 127
1, 125190, Note_on_c, 0, 69, 54
1, 125193, Note_on_c, 0, 52, 39
1, 125204, Control_c, 0, 64, 60
1, 125204, Control_c, 0, 67, 123
1, 125217, Note_off_c, 0, 69, 68
1, 125219, Control_c, 0, 64, 68
1, 125219, Control_c, 0, 67, 118
1, 125224, Note_off_c, 0, 78, 61
1, 125234, Control_c, 0, 64, 75
1, 125234, Control_c, 0, 67, 112
1, 125239, Note_off_c, 0, 52, 58
1, 125249, Control_c, 0, 64, 84
1, 125249, Control_c, 0, 67, 106
1, 125263, Control_c, 0, 64, 95
1, 125263, Control_c, 0, 67, 98
1, 125278, Control_c, 0, 64, 105
1, 125278, Control_c, 0, 67, 89
1, 125293, Control_c, 0, 64, 124
1, 125293, Control_c, 0, 67, 78
1, 125307, Control_c, 0, 64, 127
1, 125307, Control_c, 0, 67, 67
1, 125322, Control_c, 0, 67, 56
1, 125337, Control_c, 0, 67, 46
1, 125352, Control_c, 0, 67, 36
1, 125367, Control_c, 0, 67, 25
1, 125381, Control_c, 0, 67, 12
1, 125396, Control_c, 0, 67, 0
1, 125447, Note_on_c, 0, 59, 52
1, 125456, Note_on_c, 0, 64, 46
1, 125456, Control_c, 0, 64, 105
1, 125464, Note_on_c, 0, 62, 31
1, 125470, Control_c, 0, 64, 81
1, 125483, Note_off_c, 0, 59, 62
1, 125485, Control_c, 0, 64, 62
1, 125492, Note_off_c, 0, 62, 53
1, 125495, Note_off_c, 0, 64, 63
1, 125500, Control_c, 0, 64, 34
1, 125515, Control_c, 0, 64, 0
1, 125700, Note_on_c, 0, 76, 63
1, 125723, Control_c, 0, 67, 8
1, 125730, Note_on_c, 0, 68, 45
1, 125738, Control_c, 0, 67, 9
1, 125753, Control_c, 0, 67, 10
1, 125760, Note_on_c, 0, 59, 6
1, 125768, Control_c, 0, 67, 11
1, 125783, Control_c, 0, 67, 12
1, 125798, Control_c, 0, 67, 13
1, 125807, Poly_aftertouch_c, 0, 62, 0
1, 125809, Note_off_c, 0, 59, 34
1, 125812, Control_c, 0, 67, 16
1, 125827, Control_c, 0, 67, 19
1, 125842, Control_c, 0, 67, 22
1, 125857, Control_c, 0, 67, 23
1, 125872, Control_c, 0, 67, 25
1, 125886, Control_c, 0, 67, 28
1, 125901, Control_c, 0, 67, 32
1, 125923, Control_c, 0, 67, 36
1, 125938, Control_c, 0, 67, 40
1, 125953, Control_c, 0, 64, 12
1, 125953, Control_c, 0, 67, 46
1, 125968, Control_c, 0, 64, 37
1, 125968, Control_c, 0, 67, 51
1, 125978, Note_on_c, 0, 52, 37
1, 125983, Control_c, 0, 64, 52
1, 125983, Control_c, 0, 67, 57
1, 125998, Control_c, 0, 64, 61
1, 125998, Control_c, 0, 67, 63
1, 126012, Control_c, 0, 64, 65
1, 126012, Control_c, 0, 67, 69
1, 126022, Note_off_c, 0, 52, 61
1, 126027, Control_c, 0, 64, 70
1, 126027, Control_c, 0, 67, 75
1, 126039, Note_off_c, 0, 76, 55
1, 126042, Control_c, 0, 64, 75
1, 126042, Control_c, 0, 67, 80
1, 126057, Control_c, 0, 64, 81
1, 126057, Control_c, 0, 67, 84
1, 126072, Control_c, 0, 64, 86
1, 126072, Control_c, 0, 67, 88
1, 126074, Note_off_c, 0, 68, 0
1, 126086, Control_c, 0, 64, 89
1, 126086, Control_c, 0, 67, 92
1, 126101, Control_c, 0, 64, 92
1, 126101, Control_c, 0, 67, 95
1, 126112, Poly_aftertouch_c, 0, 68, 0
1, 126116, Control_c, 0, 64, 94
1, 126116, Control_c, 0, 67, 98
1, 126130, Control_c, 0, 64, 95
1, 126130, Control_c, 0, 67, 102
1, 126145, Control_c, 0, 67, 106
1, 126160, Control_c, 0, 67, 111
1, 126175, Control_c, 0, 67, 115
1, 126190, Control_c, 0, 64, 94
1, 126190, Control_c, 0, 67, 118
1, 126204, Control_c, 0, 64, 87
1, 126204, Control_c, 0, 67, 121
1, 126219, Control_c, 0, 64, 75
1, 126219, Control_c, 0, 67, 123
1, 126234, Control_c, 0, 64, 61
1, 126234, Control_c, 0, 67, 125
1, 126235, Note_on_c, 0, 78, 55
1, 126239, Note_on_c, 0, 69, 50
1, 126249, Control_c, 0, 64, 30
1, 126249, Control_c, 0, 67, 127
1, 126263, Note_on_c, 0, 59, 40
1, 126263, Control_c, 0, 64, 0
1, 126266, Note_off_c, 0, 78, 65
1, 126273, Note_on_c, 0, 64, 31
1, 126275, Note_on_c, 0, 62, 20
1, 126278, Note_off_c, 0, 69, 60
1, 126293, Note_off_c, 0, 59, 58
1, 126302, Note_off_c, 0, 64, 54
1, 126312, Note_off_c, 0, 62, 43
1, 126525, Note_on_c, 0, 80, 50
1, 126527, Note_on_c, 0, 71, 56
1, 126546, Note_on_c, 0, 59, 39
1, 126556, Note_on_c, 0, 64, 23
1, 126572, Note_off_c, 0, 71, 58
1, 126573, Note_off_c, 0, 80, 54
1, 126581, Note_off_c, 0, 64, 50
1, 126588, Note_off_c, 0, 59, 65
1, 126835, Control_c, 0, 64, 30
1, 126850, Control_c, 0, 64, 46
1, 126860, Note_on_c, 0, 81, 50
1, 126865, Control_c, 0, 64, 56
1, 126870, Note_on_c, 0, 73, 49
1, 126879, Control_c, 0, 64, 61
1, 126886, Note_on_c, 0, 45, 37
1, 126894, Control_c, 0, 64, 63
1, 126901, Note_off_c, 0, 81, 61
1, 126904, Note_off_c, 0, 73, 64
1, 126909, Control_c, 0, 64, 67
1, 126924, Control_c, 0, 64, 71
1, 126932, Note_off_c, 0, 45, 61
1, 126939, Control_c, 0, 64, 77
1, 126953, Control_c, 0, 64, 84
1, 126968, Control_c, 0, 64, 92
1, 126983, Control_c, 0, 64, 103
1, 126997, Control_c, 0, 64, 119
1, 127012, Control_c, 0, 64, 127
1, 127130, Control_c, 0, 67, 126
1, 127145, Control_c, 0, 67, 125
1, 127160, Control_c, 0, 67, 123
1, 127175, Control_c, 0, 67, 121
1, 127190, Control_c, 0, 67, 118
1, 127205, Control_c, 0, 67, 114
1, 127220, Control_c, 0, 67, 110
1, 127235, Control_c, 0, 67, 106
1, 127250, Control_c, 0, 67, 102
1, 127265, Control_c, 0, 67, 99
1, 127279, Control_c, 0, 67, 95
1, 127280, Note_on_c, 0, 64, 32
1, 127294, Note_on_c, 0, 57, 27
1, 127294, Control_c, 0, 67, 92
1, 127298, Note_on_c, 0, 61, 31
1, 127309, Control_c, 0, 67, 89
1, 127324, Control_c, 0, 67, 85
1, 127338, Note_off_c, 0, 57, 59
1, 127339, Control_c, 0, 67, 81
1, 127348, Note_off_c, 0, 61, 54
1, 127349, Note_off_c, 0, 64, 54
1, 127354, Control_c, 0, 67, 77
1, 127369, Control_c, 0, 67, 73
1, 127383, Control_c, 0, 67, 68
1, 127398, Control_c, 0, 67, 64
1, 127420, Control_c, 0, 67, 59
1, 127435, Control_c, 0, 67, 54
1, 127450, Control_c, 0, 67, 50
1, 127464, Control_c, 0, 67, 45
1, 127479, Control_c, 0, 67, 40
1, 127494, Control_c, 0, 67, 35
1, 127509, Control_c, 0, 67, 31
1, 127524, Control_c, 0, 67, 27
1, 127539, Control_c, 0, 67, 24
1, 127554, Control_c, 0, 67, 21
1, 127569, Control_c, 0, 67, 18
1, 127583, Control_c, 0, 67, 16
1, 127589, Note_on_c, 0, 76, 47
1, 127598, Control_c, 0, 67, 16
1, 127607, Note_on_c, 0, 69, 36
1, 127619, Note_on_c, 0, 73, 37
1, 127625, Note_on_c, 0, 64, 22
1, 127629, Note_on_c, 0, 57, 30
1, 127662, Note_off_c, 0, 57, 60
1, 127667, Note_off_c, 0, 64, 38
1, 127687, Control_c, 0, 64, 102
1, 127688, Poly_aftertouch_c, 0, 61, 0
1, 127702, Control_c, 0, 64, 79
1, 127716, Control_c, 0, 64, 63
1, 127731, Control_c, 0, 64, 37
1, 127747, Control_c, 0, 64, 0
1, 127835, Control_c, 0, 67, 15
1, 127865, Control_c, 0, 67, 14
1, 127867, Note_on_c, 0, 45, 51
1, 127880, Control_c, 0, 64, 42
1, 127880, Control_c, 0, 67, 14
1, 127884, Note_off_c, 0, 69, 57
1, 127895, Control_c, 0, 64, 59
1, 127895, Control_c, 0, 67, 12
1, 127909, Control_c, 0, 64, 64
1, 127909, Control_c, 0, 67, 11
1, 127910, Note_off_c, 0, 76, 55
1, 127920, Note_off_c, 0, 73, 56
1, 127924, Control_c, 0, 64, 67
1, 127924, Control_c, 0, 67, 10
1, 127932, Note_off_c, 0, 45, 57
1, 127939, Control_c, 0, 64, 72
1, 127939, Control_c, 0, 67, 8
1, 127954, Control_c, 0, 64, 79
1, 127954, Control_c, 0, 67, 0
1, 127969, Control_c, 0, 64, 90
1, 127985, Control_c, 0, 64, 104
1, 127999, Control_c, 0, 64, 127
1, 128203, Note_on_c, 0, 73, 57
1, 128240, Note_on_c, 0, 57, 28
1, 128252, Note_on_c, 0, 64, 35
1, 128256, Note_on_c, 0, 61, 26
1, 128341, Note_on_c, 0, 76, 69
1, 128369, Note_off_c, 0, 57, 31
1, 128371, Note_off_c, 0, 73, 61
1, 128392, Note_off_c, 0, 64, 32
1, 128394, Note_off_c, 0, 61, 39
1, 128456, Note_on_c, 0, 75, 73
1, 128481, Note_on_c, 0, 64, 30
1, 128497, Note_on_c, 0, 57, 42
1, 128506, Note_on_c, 0, 61, 32
1, 128511, Note_off_c, 0, 76, 51
1, 128518, Note_off_c, 0, 64, 61
1, 128540, Note_off_c, 0, 57, 60
1, 128543, Note_off_c, 0, 61, 60
1, 128569, Note_on_c, 0, 73, 72
1, 128592, Note_off_c, 0, 75, 60
1, 128636, Note_off_c, 0, 73, 63
1, 128703, Control_c, 0, 64, 81
1, 128718, Control_c, 0, 64, 58
1, 128724, Note_on_c, 0, 73, 68
1, 128732, Control_c, 0, 64, 0
1, 128753, Note_on_c, 0, 49, 50
1, 128778, Control_c, 0, 64, 18
1, 128793, Control_c, 0, 64, 49
1, 128808, Control_c, 0, 64, 64
1, 128822, Control_c, 0, 64, 72
1, 128837, Control_c, 0, 64, 88
1, 128847, Note_off_c, 0, 49, 61
1, 128852, Control_c, 0, 64, 127
1, 128878, Note_off_c, 0, 73, 55
1, 129140, Note_on_c, 0, 56, 42
1, 129151, Note_on_c, 0, 61, 39
1, 129154, Note_on_c, 0, 65, 38
1, 129192, Note_off_c, 0, 56, 60
1, 129202, Note_off_c, 0, 65, 59
1, 129205, Note_off_c, 0, 61, 59
1, 129378, Control_c, 0, 64, 118
1, 129393, Control_c, 0, 64, 82
1, 129407, Control_c, 0, 64, 63
1, 129422, Control_c, 0, 64, 24
1, 129431, Note_on_c, 0, 73, 60
1, 129437, Control_c, 0, 64, 0
1, 129441, Note_on_c, 0, 65, 41
1, 129453, Note_on_c, 0, 61, 39
1, 129456, Note_on_c, 0, 56, 40
1, 129469, Note_off_c, 0, 65, 63
1, 129491, Note_off_c, 0, 61, 60
1, 129507, Note_off_c, 0, 56, 60
1, 129652, Control_c, 0, 64, 12
1, 129667, Control_c, 0, 64, 52
1, 129673, Note_on_c, 0, 49, 63
1, 129682, Control_c, 0, 64, 62
1, 129697, Control_c, 0, 64, 69
1, 129712, Control_c, 0, 64, 79
1, 129727, Control_c, 0, 64, 101
1, 129731, Note_off_c, 0, 73, 60
1, 129742, Control_c, 0, 64, 127
1, 129746, Note_off_c, 0, 49, 61
1, 129919, Note_on_c, 0, 80, 66
1, 129936, Note_on_c, 0, 73, 59
1, 129941, Note_on_c, 0, 56, 42
1, 129968, Note_on_c, 0, 65, 29
1, 129974, Note_on_c, 0, 61, 30
1, 129995, Note_off_c, 0, 56, 56
1, 130025, Note_off_c, 0, 61, 46
1, 130027, Note_off_c, 0, 65, 42
1, 130036, Note_on_c, 0, 77, 69
1, 130064, Note_off_c, 0, 73, 55
1, 130139, Note_on_c, 0, 75, 75
1, 130148, Note_on_c, 0, 61, 43
1, 130152, Note_on_c, 0, 56, 48
1, 130174, Note_off_c, 0, 77, 61
1, 130180, Note_off_c, 0, 80, 32
1, 130183, Note_off_c, 0, 61, 65
1, 130203, Note_off_c, 0, 56, 60
1, 130234, Note_on_c, 0, 73, 74
1, 130269, Note_off_c, 0, 75, 60
1, 130297, Note_off_c, 0, 73, 60
1, 130304, Control_c, 0, 64, 77
1, 130319, Control_c, 0, 64, 55
1, 130334, Control_c, 0, 64, 0
1, 130371, Note_on_c, 0, 80, 61
1, 130380, Note_on_c, 0, 73, 71
1, 130384, Note_on_c, 0, 78, 69
1, 130385, Note_on_c, 0, 44, 55
1, 130394, Control_c, 0, 64, 43
1, 130416, Control_c, 0, 64, 64
1, 130430, Note_off_c, 0, 44, 63
1, 130431, Control_c, 0, 64, 79
1, 130446, Control_c, 0, 64, 111
1, 130453, Note_off_c, 0, 73, 62
1, 130460, Control_c, 0, 64, 127
1, 130461, Note_off_c, 0, 78, 62
1, 130462, Note_off_c, 0, 80, 61
1, 130683, Note_on_c, 0, 56, 52
1, 130694, Note_on_c, 0, 66, 51
1, 130698, Note_on_c, 0, 63, 53
1, 130718, Note_off_c, 0, 56, 62
1, 130727, Control_c, 0, 64, 80
1, 130731, Note_off_c, 0, 66, 62
1, 130736, Note_off_c, 0, 63, 61
1, 130742, Control_c, 0, 64, 55
1, 130757, Control_c, 0, 64, 0
1, 130937, Note_on_c, 0, 80, 70
1, 130948, Note_on_c, 0, 72, 61
1, 130949, Note_on_c, 0, 78, 63
1, 130955, Note_on_c, 0, 56, 53
1, 130961, Note_on_c, 0, 63, 47
1, 130981, Note_on_c, 0, 66, 11
1, 130982, Note_off_c, 0, 66, 127
1, 130988, Note_off_c, 0, 63, 64
1, 131003, Note_off_c, 0, 56, 64
1, 131155, Note_off_c, 0, 72, 57
1, 131180, Control_c, 0, 64, 38
1, 131186, Note_on_c, 0, 44, 62
1, 131195, Control_c, 0, 64, 66
1, 131210, Control_c, 0, 64, 79
1, 131216, Note_off_c, 0, 44, 63
1, 131225, Control_c, 0, 64, 106
1, 131239, Control_c, 0, 64, 127
1, 131251, Note_off_c, 0, 80, 55
1, 131263, Note_off_c, 0, 78, 34
1, 131421, Note_on_c, 0, 82, 78
1, 131432, Control_c, 0, 64, 89
1, 131432, Note_on_c, 0, 56, 59
1, 131434, Note_on_c, 0, 73, 69
1, 131435, Note_on_c, 0, 78, 70
1, 131442, Note_on_c, 0, 66, 53
1, 131445, Note_on_c, 0, 63, 58
1, 131447, Control_c, 0, 64, 62
1, 131461, Note_off_c, 0, 78, 64
1, 131462, Control_c, 0, 64, 0
1, 131464, Note_off_c, 0, 56, 63
1, 131464, Note_off_c, 0, 73, 62
1, 131465, Note_off_c, 0, 66, 60
1, 131478, Note_off_c, 0, 63, 62
1, 131482, Note_off_c, 0, 82, 61
1, 131666, Note_on_c, 0, 84, 78
1, 131676, Note_on_c, 0, 56, 56
1, 131678, Note_on_c, 0, 78, 68
1, 131679, Note_on_c, 0, 75, 69
1, 131702, Note_on_c, 0, 63, 36
1, 131702, Note_on_c, 0, 66, 23
1, 131704, Note_off_c, 0, 66, 44
1, 131705, Note_off_c, 0, 78, 65
1, 131721, Note_off_c, 0, 75, 61
1, 131724, Note_off_c, 0, 63, 48
1, 131729, Note_off_c, 0, 56, 62
1, 131729, Note_off_c, 0, 84, 64
1, 131927, Note_on_c, 0, 85, 77
1, 131928, Control_c, 0, 64, 43
1, 131941, Note_on_c, 0, 73, 63
1, 131941, Note_on_c, 0, 77, 65
1, 131943, Control_c, 0, 64, 63
1, 131947, Note_on_c, 0, 49, 54
1, 131957, Control_c, 0, 64, 72
1, 131963, Note_off_c, 0, 77, 68
1, 131966, Note_off_c, 0, 73, 68
1, 131966, Note_off_c, 0, 85, 62
1, 131972, Control_c, 0, 64, 84
1, 131984, Note_off_c, 0, 49, 64
1, 131988, Control_c, 0, 64, 111
1, 132003, Control_c, 0, 64, 127
1, 132261, Note_on_c, 0, 56, 40
1, 132265, Note_on_c, 0, 61, 43
1, 132269, Note_on_c, 0, 65, 43
1, 132299, Control_c, 0, 64, 84
1, 132311, Note_off_c, 0, 56, 59
1, 132314, Control_c, 0, 64, 58
1, 132314, Note_off_c, 0, 65, 61
1, 132315, Note_off_c, 0, 61, 61
1, 132329, Control_c, 0, 64, 0
1, 132388, Control_c, 0, 67, 8
1, 132403, Control_c, 0, 67, 9
1, 132417, Control_c, 0, 67, 10
1, 132432, Control_c, 0, 67, 10
1, 132447, Control_c, 0, 67, 11
1, 132462, Control_c, 0, 67, 11
1, 132477, Control_c, 0, 67, 12
1, 132492, Control_c, 0, 67, 12
1, 132506, Control_c, 0, 67, 13
1, 132521, Note_on_c, 0, 80, 55
1, 132521, Control_c, 0, 67, 14
1, 132535, Note_on_c, 0, 73, 45
1, 132536, Control_c, 0, 67, 15
1, 132538, Note_on_c, 0, 77, 47
1, 132550, Control_c, 0, 67, 16
1, 132552, Note_on_c, 0, 65, 25
1, 132555, Note_on_c, 0, 56, 35
1, 132565, Control_c, 0, 67, 17
1, 132567, Note_on_c, 0, 61, 24
1, 132574, Note_off_c, 0, 65, 49
1, 132580, Control_c, 0, 67, 19
1, 132589, Note_off_c, 0, 61, 50
1, 132595, Control_c, 0, 67, 20
1, 132599, Note_off_c, 0, 56, 63
1, 132610, Control_c, 0, 67, 21
1, 132624, Control_c, 0, 67, 22
1, 132647, Control_c, 0, 67, 23
1, 132662, Control_c, 0, 67, 25
1, 132677, Control_c, 0, 67, 26
1, 132692, Control_c, 0, 67, 28
1, 132706, Control_c, 0, 67, 30
1, 132721, Control_c, 0, 67, 31
1, 132736, Control_c, 0, 67, 33
1, 132750, Control_c, 0, 67, 34
1, 132765, Control_c, 0, 64, 34
1, 132765, Control_c, 0, 67, 34
1, 132782, Control_c, 0, 64, 56
1, 132785, Note_on_c, 0, 49, 53
1, 132796, Control_c, 0, 64, 64
1, 132808, Note_off_c, 0, 77, 60
1, 132810, Note_off_c, 0, 80, 59
1, 132811, Control_c, 0, 64, 69
1, 132824, Note_off_c, 0, 73, 47
1, 132826, Control_c, 0, 64, 77
1, 132828, Note_off_c, 0, 49, 61
1, 132841, Control_c, 0, 64, 89
1, 132855, Control_c, 0, 64, 106
1, 132870, Control_c, 0, 64, 127
1, 132915, Control_c, 0, 67, 35
1, 132929, Control_c, 0, 67, 35
1, 132944, Control_c, 0, 67, 37
1, 132959, Control_c, 0, 67, 39
1, 132973, Control_c, 0, 67, 42
1, 132988, Control_c, 0, 67, 45
1, 133003, Control_c, 0, 67, 48
1, 133018, Control_c, 0, 67, 52
1, 133033, Control_c, 0, 64, 110
1, 133033, Control_c, 0, 67, 56
1, 133047, Control_c, 0, 64, 81
1, 133047, Control_c, 0, 67, 59
1, 133050, Note_on_c, 0, 80, 56
1, 133059, Note_on_c, 0, 73, 52
1, 133062, Control_c, 0, 64, 63
1, 133062, Control_c, 0, 67, 63
1, 133063, Note_on_c, 0, 56, 42
1, 133071, Note_on_c, 0, 61, 35
1, 133072, Note_on_c, 0, 65, 36
1, 133077, Control_c, 0, 64, 39
1, 133077, Control_c, 0, 67, 66
1, 133092, Control_c, 0, 64, 0
1, 133092, Control_c, 0, 67, 69
1, 133100, Note_off_c, 0, 56, 51
1, 133107, Control_c, 0, 67, 73
1, 133116, Note_off_c, 0, 61, 47
1, 133116, Note_off_c, 0, 65, 59
1, 133122, Control_c, 0, 67, 76
1, 133137, Control_c, 0, 67, 80
1, 133152, Control_c, 0, 67, 83
1, 133162, Note_on_c, 0, 77, 57
1, 133167, Control_c, 0, 67, 85
1, 133176, Note_off_c, 0, 73, 50
1, 133181, Control_c, 0, 67, 88
1, 133196, Control_c, 0, 67, 91
1, 133211, Control_c, 0, 67, 94
1, 133226, Control_c, 0, 67, 97
1, 133241, Control_c, 0, 67, 99
1, 133255, Control_c, 0, 67, 101
1, 133261, Note_off_c, 0, 80, 33
1, 133269, Note_on_c, 0, 75, 58
1, 133270, Control_c, 0, 67, 103
1, 133285, Control_c, 0, 67, 106
1, 133291, Note_on_c, 0, 65, 28
1, 133295, Note_off_c, 0, 77, 58
1, 133300, Control_c, 0, 67, 108
1, 133304, Note_on_c, 0, 56, 40
1, 133309, Note_on_c, 0, 61, 28
1, 133311, Note_off_c, 0, 65, 53
1, 133315, Control_c, 0, 67, 111
1, 133329, Control_c, 0, 67, 113
1, 133331, Note_off_c, 0, 61, 54
1, 133342, Note_off_c, 0, 56, 65
1, 133344, Control_c, 0, 67, 116
1, 133359, Control_c, 0, 67, 119
1, 133369, Note_on_c, 0, 73, 65
1, 133373, Control_c, 0, 67, 122
1, 133386, Note_off_c, 0, 75, 55
1, 133388, Control_c, 0, 67, 125
1, 133411, Control_c, 0, 67, 127
1, 133420, Note_off_c, 0, 73, 59
1, 133509, Note_on_c, 0, 80, 59
1, 133514, Note_on_c, 0, 78, 63
1, 133523, Note_on_c, 0, 44, 53
1, 133529, Note_on_c, 0, 73, 57
1, 133529, Control_c, 0, 64, 48
1, 133544, Control_c, 0, 64, 63
1, 133557, Note_off_c, 0, 73, 67
1, 133559, Control_c, 0, 64, 71
1, 133560, Note_off_c, 0, 80, 57
1, 133560, Note_off_c, 0, 44, 63
1, 133573, Note_off_c, 0, 78, 60
1, 133575, Control_c, 0, 64, 80
1, 133590, Control_c, 0, 64, 93
1, 133604, Control_c, 0, 64, 106
1, 133619, Control_c, 0, 64, 118
1, 133634, Control_c, 0, 64, 127
1, 133796, Control_c, 0, 64, 118
1, 133799, Note_on_c, 0, 56, 45
1, 133801, Note_on_c, 0, 66, 47
1, 133811, Control_c, 0, 64, 89
1, 133814, Note_on_c, 0, 63, 50
1, 133826, Control_c, 0, 64, 68
1, 133829, Note_off_c, 0, 56, 60
1, 133841, Control_c, 0, 64, 46
1, 133842, Note_off_c, 0, 66, 61
1, 133847, Note_off_c, 0, 63, 63
1, 133856, Control_c, 0, 64, 0
1, 134037, Note_on_c, 0, 80, 58
1, 134044, Note_on_c, 0, 56, 48
1, 134048, Note_on_c, 0, 72, 50
1, 134052, Note_on_c, 0, 78, 51
1, 134058, Note_on_c, 0, 66, 32
1, 134079, Note_off_c, 0, 66, 35
1, 134085, Note_off_c, 0, 56, 63
1, 134180, Note_off_c, 0, 72, 56
1, 134293, Control_c, 0, 64, 50
1, 134295, Note_on_c, 0, 44, 47
1, 134308, Control_c, 0, 64, 63
1, 134320, Note_off_c, 0, 44, 56
1, 134322, Control_c, 0, 64, 69
1, 134337, Control_c, 0, 64, 75
1, 134352, Control_c, 0, 64, 83
1, 134363, Note_off_c, 0, 78, 48
1, 134368, Control_c, 0, 64, 89
1, 134383, Control_c, 0, 64, 94
1, 134398, Control_c, 0, 64, 98
1, 134413, Control_c, 0, 64, 101
1, 134427, Control_c, 0, 64, 102
1, 134471, Note_off_c, 0, 80, 40
1, 134502, Control_c, 0, 64, 101
1, 134517, Control_c, 0, 64, 93
1, 134532, Control_c, 0, 64, 79
1, 134546, Control_c, 0, 64, 63
1, 134549, Note_on_c, 0, 82, 63
1, 134556, Note_on_c, 0, 73, 56
1, 134559, Note_on_c, 0, 56, 44
1, 134561, Control_c, 0, 64, 41
1, 134570, Note_on_c, 0, 66, 33
1, 134573, Note_on_c, 0, 63, 39
1, 134576, Control_c, 0, 64, 0
1, 134577, Note_on_c, 0, 78, 44
1, 134590, Note_off_c, 0, 56, 56
1, 134592, Note_off_c, 0, 73, 62
1, 134601, Note_off_c, 0, 78, 57
1, 134602, Note_off_c, 0, 66, 53
1, 134603, Note_off_c, 0, 63, 61
1, 134605, Note_off_c, 0, 82, 58
1, 134812, Note_on_c, 0, 84, 60
1, 134819, Note_on_c, 0, 56, 45
1, 134824, Note_on_c, 0, 75, 52
1, 134827, Note_on_c, 0, 78, 51
1, 134851, Note_off_c, 0, 78, 63
1, 134858, Note_off_c, 0, 75, 65
1, 134860, Note_off_c, 0, 84, 62
1, 134867, Note_off_c, 0, 56, 61
1, 135102, Note_on_c, 0, 85, 55
1, 135116, Control_c, 0, 64, 19
1, 135121, Note_on_c, 0, 73, 43
1, 135131, Note_on_c, 0, 77, 46
1, 135131, Control_c, 0, 64, 46
1, 135143, Note_on_c, 0, 49, 40
1, 135146, Control_c, 0, 64, 59
1, 135161, Control_c, 0, 64, 64
1, 135174, Note_off_c, 0, 73, 56
1, 135176, Note_off_c, 0, 77, 60
1, 135176, Control_c, 0, 64, 68
1, 135191, Control_c, 0, 64, 73
1, 135196, Note_off_c, 0, 85, 59
1, 135206, Control_c, 0, 64, 81
1, 135218, Note_off_c, 0, 49, 55
1, 135221, Control_c, 0, 64, 93
1, 135235, Control_c, 0, 64, 112
1, 135249, Control_c, 0, 64, 127
1, 135309, Control_c, 0, 67, 125
1, 135323, Control_c, 0, 67, 123
1, 135338, Control_c, 0, 67, 121
1, 135353, Control_c, 0, 67, 118
1, 135367, Control_c, 0, 67, 114
1, 135382, Control_c, 0, 67, 110
1, 135397, Control_c, 0, 67, 106
1, 135412, Control_c, 0, 67, 103
1, 135427, Control_c, 0, 67, 100
1, 135441, Control_c, 0, 67, 97
1, 135456, Control_c, 0, 67, 94
1, 135471, Control_c, 0, 67, 91
1, 135478, Note_on_c, 0, 61, 35
1, 135481, Note_on_c, 0, 65, 34
1, 135485, Note_on_c, 0, 56, 25
1, 135486, Control_c, 0, 67, 86
1, 135501, Control_c, 0, 67, 82
1, 135516, Control_c, 0, 67, 78
1, 135526, Note_off_c, 0, 56, 55
1, 135527, Note_off_c, 0, 65, 54
1, 135531, Control_c, 0, 67, 73
1, 135535, Note_off_c, 0, 61, 53
1, 135545, Control_c, 0, 67, 67
1, 135560, Control_c, 0, 67, 61
1, 135575, Control_c, 0, 67, 55
1, 135590, Control_c, 0, 67, 47
1, 135605, Control_c, 0, 67, 38
1, 135620, Control_c, 0, 67, 27
1, 135641, Control_c, 0, 67, 15
1, 135656, Control_c, 0, 67, 0
1, 135740, Note_on_c, 0, 80, 58
1, 135768, Note_on_c, 0, 73, 38
1, 135772, Note_on_c, 0, 77, 41
1, 135773, Note_on_c, 0, 56, 40
1, 135815, Note_off_c, 0, 56, 63
1, 135953, Control_c, 0, 64, 82
1, 135969, Control_c, 0, 64, 58
1, 135984, Control_c, 0, 64, 26
1, 135996, Note_on_c, 0, 49, 53
1, 135998, Control_c, 0, 64, 0
1, 136013, Control_c, 0, 64, 28
1, 136028, Control_c, 0, 64, 53
1, 136043, Control_c, 0, 64, 67
1, 136058, Control_c, 0, 64, 77
1, 136072, Control_c, 0, 64, 93
1, 136087, Control_c, 0, 64, 114
1, 136089, Note_off_c, 0, 49, 60
1, 136102, Control_c, 0, 64, 127
1, 136108, Note_off_c, 0, 77, 34
1, 136109, Note_off_c, 0, 73, 35
1, 136190, Control_c, 0, 67, 10
1, 136205, Control_c, 0, 67, 12
1, 136220, Control_c, 0, 67, 15
1, 136235, Control_c, 0, 67, 17
1, 136250, Control_c, 0, 67, 19
1, 136264, Control_c, 0, 67, 21
1, 136279, Control_c, 0, 67, 23
1, 136294, Control_c, 0, 67, 25
1, 136307, Note_on_c, 0, 85, 71
1, 136309, Control_c, 0, 67, 28
1, 136323, Note_on_c, 0, 73, 47
1, 136323, Control_c, 0, 67, 30
1, 136338, Note_on_c, 0, 77, 46
1, 136338, Control_c, 0, 67, 34
1, 136351, Note_off_c, 0, 80, 58
1, 136353, Control_c, 0, 67, 38
1, 136355, Note_on_c, 0, 56, 27
1, 136360, Note_on_c, 0, 61, 31
1, 136363, Note_on_c, 0, 65, 31
1, 136368, Control_c, 0, 67, 43
1, 136390, Control_c, 0, 67, 48
1, 136405, Control_c, 0, 67, 52
1, 136420, Control_c, 0, 67, 57
1, 136435, Control_c, 0, 67, 62
1, 136450, Control_c, 0, 67, 68
1, 136461, Note_off_c, 0, 56, 36
1, 136464, Control_c, 0, 67, 74
1, 136472, Note_off_c, 0, 65, 36
1, 136479, Control_c, 0, 67, 80
1, 136493, Note_off_c, 0, 61, 31
1, 136494, Control_c, 0, 67, 85
1, 136509, Control_c, 0, 67, 90
1, 136523, Control_c, 0, 67, 95
1, 136534, Note_off_c, 0, 85, 58
1, 136538, Control_c, 0, 67, 100
1, 136550, Note_off_c, 0, 77, 33
1, 136553, Control_c, 0, 67, 105
1, 136556, Note_off_c, 0, 73, 33
1, 136568, Control_c, 0, 67, 110
1, 136583, Control_c, 0, 67, 115
1, 136598, Control_c, 0, 67, 119
1, 136613, Control_c, 0, 67, 123
1, 136628, Control_c, 0, 67, 127
1, 136669, Note_on_c, 0, 85, 66
1, 136690, Note_on_c, 0, 73, 47
1, 136694, Note_on_c, 0, 77, 47
1, 136703, Note_on_c, 0, 65, 28
1, 136717, Note_on_c, 0, 56, 32
1, 136729, Note_off_c, 0, 77, 63
1, 136738, Note_off_c, 0, 65, 47
1, 136774, Note_off_c, 0, 56, 59
1, 136805, Poly_aftertouch_c, 0, 61, 0
1, 136809, Note_off_c, 0, 85, 52
1, 136811, Note_off_c, 0, 73, 34
1, 137073, Control_c, 0, 64, 104
1, 137087, Control_c, 0, 64, 76
1, 137100, Note_on_c, 0, 85, 55
1, 137102, Control_c, 0, 64, 61
1, 137117, Control_c, 0, 64, 39
1, 137119, Note_on_c, 0, 73, 38
1, 137122, Note_on_c, 0, 79, 47
1, 137139, Control_c, 0, 64, 0
1, 137146, Note_on_c, 0, 45, 34
1, 137184, Control_c, 0, 64, 43
1, 137199, Control_c, 0, 64, 63
1, 137213, Control_c, 0, 64, 69
1, 137217, Note_off_c, 0, 45, 61
1, 137228, Control_c, 0, 64, 75
1, 137243, Control_c, 0, 64, 81
1, 137258, Control_c, 0, 64, 88
1, 137272, Control_c, 0, 64, 95
1, 137287, Control_c, 0, 64, 100
1, 137302, Control_c, 0, 64, 106
1, 137312, Note_off_c, 0, 79, 0
1, 137317, Control_c, 0, 64, 111
1, 137332, Control_c, 0, 64, 118
1, 137337, Note_off_c, 0, 73, 40
1, 137346, Control_c, 0, 64, 127
1, 137356, Poly_aftertouch_c, 0, 79, 0
1, 137358, Note_off_c, 0, 85, 33
1, 137540, Note_on_c, 0, 61, 33
1, 137544, Note_on_c, 0, 55, 33
1, 137555, Note_on_c, 0, 64, 35
1, 137584, Note_off_c, 0, 55, 63
1, 137592, Note_off_c, 0, 61, 59
1, 137596, Note_off_c, 0, 64, 62
1, 137807, Control_c, 0, 64, 114
1, 137822, Control_c, 0, 64, 96
1, 137836, Control_c, 0, 64, 78
1, 137851, Control_c, 0, 64, 63
1, 137853, Note_on_c, 0, 85, 51
1, 137866, Control_c, 0, 64, 41
1, 137871, Note_on_c, 0, 64, 39
1, 137873, Note_on_c, 0, 73, 36
1, 137873, Note_on_c, 0, 79, 40
1, 137881, Control_c, 0, 64, 0
1, 137896, Note_on_c, 0, 55, 31
1, 137905, Note_on_c, 0, 61, 17
1, 137914, Note_off_c, 0, 64, 65
1, 137928, Note_off_c, 0, 61, 52
1, 137936, Note_off_c, 0, 55, 65
1, 138110, Control_c, 0, 64, 11
1, 138125, Control_c, 0, 64, 48
1, 138133, Note_on_c, 0, 45, 47
1, 138140, Control_c, 0, 64, 61
1, 138155, Control_c, 0, 64, 67
1, 138169, Note_off_c, 0, 45, 64
1, 138169, Control_c, 0, 64, 73
1, 138174, Note_off_c, 0, 73, 53
1, 138184, Control_c, 0, 64, 82
1, 138185, Note_off_c, 0, 85, 51
1, 138199, Control_c, 0, 64, 94
1, 138209, Note_off_c, 0, 79, 33
1, 138214, Control_c, 0, 64, 110
1, 138229, Control_c, 0, 64, 127
1, 138398, Note_on_c, 0, 85, 47
1, 138415, Note_on_c, 0, 79, 54
1, 138431, Note_on_c, 0, 55, 39
1, 138437, Note_on_c, 0, 64, 33
1, 138446, Note_on_c, 0, 61, 33
1, 138473, Note_off_c, 0, 55, 62
1, 138481, Note_off_c, 0, 64, 53
1, 138499, Note_off_c, 0, 61, 45
1, 138522, Note_on_c, 0, 83, 57
1, 138542, Note_off_c, 0, 79, 31
1, 138615, Note_off_c, 0, 85, 34
1, 138647, Note_on_c, 0, 81, 62
1, 138656, Note_off_c, 0, 83, 56
1, 138665, Note_on_c, 0, 61, 28
1, 138672, Note_on_c, 0, 55, 42
1, 138703, Note_off_c, 0, 61, 41
1, 138705, Note_off_c, 0, 55, 66
1, 138726, Note_off_c, 0, 81, 62
1, 138737, Note_on_c, 0, 79, 55
1, 138766, Note_off_c, 0, 79, 65
1, 138824, Note_on_c, 0, 78, 54
1, 138906, Note_on_c, 0, 85, 57
1, 138918, Control_c, 0, 64, 118
1, 138933, Note_off_c, 0, 78, 33
1, 138933, Control_c, 0, 64, 86
1, 138948, Control_c, 0, 64, 68
1, 138963, Control_c, 0, 64, 51
1, 138978, Control_c, 0, 64, 30
1, 138988, Note_on_c, 0, 90, 67
1, 138992, Control_c, 0, 64, 20
1, 139007, Control_c, 0, 64, 30
1, 139011, Note_off_c, 0, 85, 63
1, 139019, Note_on_c, 0, 38, 43
1, 139022, Control_c, 0, 64, 51
1, 139036, Note_off_c, 0, 90, 64
1, 139036, Control_c, 0, 64, 64
1, 139051, Control_c, 0, 64, 72
1, 139066, Control_c, 0, 64, 80
1, 139074, Note_off_c, 0, 38, 61
1, 139081, Control_c, 0, 64, 90
1, 139096, Control_c, 0, 64, 98
1, 139111, Control_c, 0, 64, 108
1, 139126, Control_c, 0, 64, 127
1, 139334, Control_c, 0, 64, 95
1, 139349, Control_c, 0, 64, 73
1, 139355, Note_on_c, 0, 54, 39
1, 139362, Note_on_c, 0, 66, 48
1, 139364, Control_c, 0, 64, 52
1, 139379, Control_c, 0, 64, 0
1, 139392, Note_on_c, 0, 62, 30
1, 139393, Note_off_c, 0, 54, 56
1, 139409, Note_off_c, 0, 66, 61
1, 139431, Note_off_c, 0, 62, 57
1, 139619, Note_on_c, 0, 90, 61
1, 139641, Note_on_c, 0, 83, 48
1, 139643, Note_on_c, 0, 66, 35
1, 139650, Note_on_c, 0, 78, 44
1, 139663, Note_on_c, 0, 59, 33
1, 139668, Note_off_c, 0, 66, 56
1, 139685, Poly_aftertouch_c, 0, 62, 0
1, 139692, Note_off_c, 0, 59, 57
1, 139830, Control_c, 0, 64, 25
1, 139845, Control_c, 0, 64, 52
1, 139859, Control_c, 0, 64, 64
1, 139874, Control_c, 0, 64, 70
1, 139876, Note_off_c, 0, 83, 64
1, 139877, Note_off_c, 0, 78, 61
1, 139882, Note_on_c, 0, 50, 51
1, 139889, Control_c, 0, 64, 77
1, 139904, Control_c, 0, 64, 87
1, 139909, Note_off_c, 0, 50, 61
1, 139910, Note_off_c, 0, 90, 61
1, 139919, Control_c, 0, 64, 101
1, 139933, Control_c, 0, 64, 127
1, 140145, Note_on_c, 0, 90, 61
1, 140150, Control_c, 0, 64, 94
1, 140164, Control_c, 0, 64, 74
1, 140169, Note_on_c, 0, 66, 35
1, 140173, Note_on_c, 0, 83, 47
1, 140175, Note_on_c, 0, 62, 44
1, 140179, Control_c, 0, 64, 57
1, 140194, Control_c, 0, 64, 25
1, 140202, Note_off_c, 0, 66, 53
1, 140209, Control_c, 0, 64, 0
1, 140214, Note_off_c, 0, 62, 50
1, 140249, Note_off_c, 0, 90, 62
1, 140264, Note_on_c, 0, 93, 64
1, 140363, Note_on_c, 0, 92, 67
1, 140373, Note_on_c, 0, 62, 47
1, 140392, Note_on_c, 0, 66, 23
1, 140404, Note_off_c, 0, 62, 66
1, 140411, Note_off_c, 0, 66, 53
1, 140425, Note_off_c, 0, 93, 54
1, 140428, Note_off_c, 0, 83, 40
1, 140473, Note_on_c, 0, 90, 62
1, 140499, Note_off_c, 0, 92, 58
1, 140535, Note_off_c, 0, 90, 59
1, 140595, Note_on_c, 0, 88, 60
1, 140604, Note_on_c, 0, 83, 52
1, 140608, Control_c, 0, 64, 40
1, 140617, Note_on_c, 0, 52, 40
1, 140623, Control_c, 0, 64, 57
1, 140637, Note_off_c, 0, 88, 59
1, 140637, Note_off_c, 0, 83, 66
1, 140638, Control_c, 0, 64, 64
1, 140653, Control_c, 0, 64, 70
1, 140668, Control_c, 0, 64, 77
1, 140682, Control_c, 0, 64, 91
1, 140697, Control_c, 0, 64, 113
1, 140712, Control_c, 0, 64, 127
1, 140714, Note_off_c, 0, 52, 28
1, 140890, Note_on_c, 0, 61, 49
1, 140899, Control_c, 0, 64, 86
1, 140899, Note_on_c, 0, 64, 46
1, 140913, Control_c, 0, 64, 65
1, 140928, Control_c, 0, 64, 39
1, 140935, Note_off_c, 0, 61, 60
1, 140939, Note_off_c, 0, 64, 64
1, 140943, Control_c, 0, 64, 0
1, 141155, Note_on_c, 0, 88, 53
1, 141164, Note_on_c, 0, 81, 46
1, 141170, Note_on_c, 0, 64, 43
1, 141174, Note_on_c, 0, 61, 45
1, 141196, Note_off_c, 0, 64, 63
1, 141207, Note_off_c, 0, 61, 66
1, 141215, Note_off_c, 0, 81, 0
1, 141215, Note_on_c, 0, 81, 33
1, 141358, Control_c, 0, 64, 30
1, 141373, Control_c, 0, 64, 52
1, 141388, Control_c, 0, 64, 63
1, 141403, Control_c, 0, 64, 68
1, 141409, Note_off_c, 0, 88, 62
1, 141410, Note_off_c, 0, 81, 61
1, 141413, Note_on_c, 0, 40, 45
1, 141418, Control_c, 0, 64, 73
1, 141432, Control_c, 0, 64, 82
1, 141446, Note_off_c, 0, 40, 63
1, 141447, Control_c, 0, 64, 96
1, 141462, Control_c, 0, 64, 127
1, 141477, Control_c, 0, 67, 123
1, 141492, Control_c, 0, 67, 119
1, 141506, Control_c, 0, 67, 113
1, 141521, Control_c, 0, 67, 108
1, 141536, Control_c, 0, 67, 102
1, 141551, Control_c, 0, 67, 96
1, 141567, Control_c, 0, 67, 88
1, 141582, Control_c, 0, 67, 79
1, 141597, Control_c, 0, 67, 71
1, 141611, Control_c, 0, 67, 63
1, 141626, Control_c, 0, 67, 54
1, 141648, Control_c, 0, 67, 45
1, 141662, Control_c, 0, 67, 36
1, 141677, Control_c, 0, 67, 27
1, 141682, Note_on_c, 0, 76, 62
1, 141692, Control_c, 0, 67, 16
1, 141707, Control_c, 0, 67, 10
1, 141710, Note_on_c, 0, 69, 43
1, 141721, Note_on_c, 0, 64, 35
1, 141722, Control_c, 0, 67, 9
1, 141723, Note_on_c, 0, 61, 38
1, 141752, Control_c, 0, 67, 9
1, 141767, Control_c, 0, 67, 8
1, 141775, Note_off_c, 0, 61, 58
1, 141776, Note_off_c, 0, 64, 54
1, 141782, Control_c, 0, 67, 0
1, 141803, Note_on_c, 0, 73, 63
1, 141816, Note_off_c, 0, 69, 56
1, 141844, Note_off_c, 0, 76, 50
1, 141906, Note_on_c, 0, 71, 65
1, 141918, Note_on_c, 0, 61, 45
1, 141930, Note_off_c, 0, 73, 53
1, 141931, Note_on_c, 0, 64, 41
1, 141968, Note_off_c, 0, 61, 57
1, 141969, Note_off_c, 0, 64, 58
1, 141994, Note_off_c, 0, 71, 60
1, 142003, Note_on_c, 0, 69, 60
1, 142044, Note_off_c, 0, 69, 60
1, 142077, Control_c, 0, 64, 87
1, 142092, Control_c, 0, 64, 67
1, 142106, Control_c, 0, 64, 45
1, 142121, Control_c, 0, 64, 0
1, 142133, Note_on_c, 0, 78, 64
1, 142142, Note_on_c, 0, 69, 56
1, 142154, Note_on_c, 0, 52, 37
1, 142166, Control_c, 0, 64, 39
1, 142180, Control_c, 0, 64, 60
1, 142187, Note_off_c, 0, 69, 64
1, 142195, Control_c, 0, 64, 69
1, 142196, Note_off_c, 0, 78, 61
1, 142206, Note_off_c, 0, 52, 54
1, 142210, Control_c, 0, 64, 77
1, 142225, Control_c, 0, 64, 88
1, 142240, Control_c, 0, 64, 104
1, 142254, Control_c, 0, 64, 127
1, 142396, Control_c, 0, 64, 112
1, 142410, Control_c, 0, 64, 84
1, 142424, Note_on_c, 0, 59, 46
1, 142425, Control_c, 0, 64, 66
1, 142429, Note_on_c, 0, 64, 43
1, 142433, Note_on_c, 0, 62, 37
1, 142440, Control_c, 0, 64, 41
1, 142455, Control_c, 0, 64, 0
1, 142464, Note_off_c, 0, 59, 57
1, 142465, Note_off_c, 0, 62, 53
1, 142471, Note_off_c, 0, 64, 52
1, 142500, Control_c, 0, 67, 8
1, 142530, Control_c, 0, 67, 9
1, 142589, Control_c, 0, 67, 9
1, 142670, Note_on_c, 0, 76, 56
1, 142678, Control_c, 0, 67, 9
1, 142691, Note_on_c, 0, 68, 44
1, 142692, Control_c, 0, 67, 8
1, 142700, Note_on_c, 0, 59, 41
1, 142707, Control_c, 0, 67, 8
1, 142719, Note_on_c, 0, 64, 18
1, 142722, Control_c, 0, 67, 0
1, 142745, Note_off_c, 0, 59, 59
1, 142759, Note_off_c, 0, 64, 41
1, 142777, Poly_aftertouch_c, 0, 62, 0
1, 142914, Control_c, 0, 64, 30
1, 142929, Control_c, 0, 64, 52
1, 142940, Note_on_c, 0, 52, 36
1, 142944, Control_c, 0, 64, 63
1, 142959, Control_c, 0, 64, 70
1, 142969, Note_off_c, 0, 52, 57
1, 142974, Control_c, 0, 64, 79
1, 142983, Note_off_c, 0, 76, 51
1, 142989, Control_c, 0, 64, 97
1, 143003, Control_c, 0, 64, 127
1, 143033, Control_c, 0, 67, 8
1, 143048, Control_c, 0, 67, 10
1, 143063, Control_c, 0, 67, 11
1, 143076, Note_off_c, 0, 68, 39
1, 143077, Control_c, 0, 67, 14
1, 143092, Control_c, 0, 67, 15
1, 143107, Control_c, 0, 67, 17
1, 143129, Control_c, 0, 67, 18
1, 143144, Control_c, 0, 67, 20
1, 143160, Control_c, 0, 67, 21
1, 143175, Control_c, 0, 67, 22
1, 143189, Control_c, 0, 64, 91
1, 143189, Control_c, 0, 67, 23
1, 143204, Control_c, 0, 64, 66
1, 143204, Control_c, 0, 67, 25
1, 143209, Note_on_c, 0, 78, 54
1, 143211, Note_on_c, 0, 69, 52
1, 143219, Control_c, 0, 64, 41
1, 143219, Control_c, 0, 67, 26
1, 143233, Note_on_c, 0, 59, 34
1, 143233, Control_c, 0, 64, 0
1, 143233, Control_c, 0, 67, 27
1, 143236, Note_on_c, 0, 64, 27
1, 143238, Note_on_c, 0, 62, 16
1, 143245, Note_off_c, 0, 78, 61
1, 143248, Note_off_c, 0, 69, 63
1, 143248, Control_c, 0, 67, 28
1, 143263, Control_c, 0, 67, 30
1, 143266, Note_off_c, 0, 59, 56
1, 143273, Note_off_c, 0, 64, 52
1, 143278, Control_c, 0, 67, 32
1, 143280, Note_off_c, 0, 62, 44
1, 143293, Control_c, 0, 67, 33
1, 143308, Control_c, 0, 67, 33
1, 143323, Control_c, 0, 67, 34
1, 143338, Control_c, 0, 67, 34
1, 143352, Control_c, 0, 67, 36
1, 143367, Control_c, 0, 67, 39
1, 143382, Control_c, 0, 67, 43
1, 143397, Control_c, 0, 67, 46
1, 143412, Control_c, 0, 67, 49
1, 143427, Control_c, 0, 67, 51
1, 143441, Control_c, 0, 67, 54
1, 143456, Control_c, 0, 67, 55
1, 143471, Control_c, 0, 67, 56
1, 143484, Note_on_c, 0, 80, 53
1, 143493, Note_on_c, 0, 71, 53
1, 143501, Control_c, 0, 67, 57
1, 143513, Note_on_c, 0, 59, 38
1, 143515, Control_c, 0, 67, 58
1, 143527, Note_on_c, 0, 64, 27
1, 143530, Control_c, 0, 67, 59
1, 143537, Note_off_c, 0, 80, 52
1, 143541, Note_off_c, 0, 71, 61
1, 143545, Control_c, 0, 67, 60
1, 143549, Note_off_c, 0, 64, 51
1, 143550, Poly_aftertouch_c, 0, 62, 0
1, 143555, Note_off_c, 0, 59, 63
1, 143604, Control_c, 0, 67, 60
1, 143663, Control_c, 0, 67, 59
1, 143693, Control_c, 0, 67, 59
1, 143707, Control_c, 0, 67, 58
1, 143722, Control_c, 0, 67, 57
1, 143737, Control_c, 0, 67, 57
1, 143752, Control_c, 0, 67, 56
1, 143767, Control_c, 0, 67, 56
1, 143782, Control_c, 0, 67, 55
1, 143797, Control_c, 0, 64, 43
1, 143797, Control_c, 0, 67, 55
1, 143812, Control_c, 0, 64, 57
1, 143812, Control_c, 0, 67, 54
1, 143814, Note_on_c, 0, 81, 50
1, 143817, Note_on_c, 0, 73, 48
1, 143826, Control_c, 0, 64, 62
1, 143826, Control_c, 0, 67, 53
1, 143835, Note_on_c, 0, 45, 41
1, 143841, Control_c, 0, 64, 65
1, 143841, Control_c, 0, 67, 51
1, 143853, Note_off_c, 0, 81, 61
1, 143856, Control_c, 0, 64, 68
1, 143856, Control_c, 0, 67, 50
1, 143859, Note_off_c, 0, 73, 60
1, 143878, Control_c, 0, 64, 73
1, 143878, Control_c, 0, 67, 49
1, 143893, Control_c, 0, 64, 83
1, 143893, Control_c, 0, 67, 47
1, 143894, Note_off_c, 0, 45, 61
1, 143907, Control_c, 0, 64, 100
1, 143907, Control_c, 0, 67, 45
1, 143922, Control_c, 0, 64, 127
1, 143922, Control_c, 0, 67, 42
1, 143937, Control_c, 0, 67, 38
1, 143953, Control_c, 0, 67, 33
1, 143968, Control_c, 0, 67, 27
1, 143983, Control_c, 0, 67, 22
1, 143998, Control_c, 0, 67, 17
1, 144012, Control_c, 0, 67, 14
1, 144027, Control_c, 0, 67, 14
1, 144042, Control_c, 0, 67, 13
1, 144056, Control_c, 0, 67, 13
1, 144071, Control_c, 0, 67, 12
1, 144086, Control_c, 0, 67, 11
1, 144101, Control_c, 0, 67, 10
1, 144116, Control_c, 0, 67, 9
1, 144130, Control_c, 0, 67, 0
1, 144259, Note_on_c, 0, 64, 33
1, 144266, Note_on_c, 0, 57, 31
1, 144274, Note_on_c, 0, 61, 33
1, 144319, Note_off_c, 0, 57, 47
1, 144326, Note_off_c, 0, 61, 55
1, 144332, Note_off_c, 0, 64, 58
1, 144566, Note_on_c, 0, 76, 54
1, 144573, Note_on_c, 0, 69, 41
1, 144573, Note_on_c, 0, 73, 46
1, 144575, Control_c, 0, 64, 96
1, 144587, Note_on_c, 0, 61, 37
1, 144590, Control_c, 0, 64, 75
1, 144591, Note_on_c, 0, 64, 36
1, 144605, Control_c, 0, 64, 59
1, 144620, Control_c, 0, 64, 26
1, 144624, Note_on_c, 0, 57, 29
1, 144634, Note_off_c, 0, 64, 56
1, 144643, Control_c, 0, 64, 0
1, 144644, Note_off_c, 0, 61, 45
1, 144670, Note_off_c, 0, 57, 62
1, 144836, Control_c, 0, 64, 40
1, 144846, Note_on_c, 0, 45, 53
1, 144851, Control_c, 0, 64, 57
1, 144862, Note_off_c, 0, 69, 58
1, 144866, Control_c, 0, 64, 63
1, 144880, Control_c, 0, 64, 67
1, 144885, Note_off_c, 0, 76, 54
1, 144893, Note_off_c, 0, 73, 47
1, 144895, Control_c, 0, 64, 73
1, 144910, Control_c, 0, 64, 83
1, 144917, Note_off_c, 0, 45, 60
1, 144925, Control_c, 0, 64, 102
1, 144940, Control_c, 0, 64, 127
1, 145179, Note_on_c, 0, 73, 58
1, 145204, Note_on_c, 0, 61, 36
1, 145208, Note_on_c, 0, 57, 34
1, 145211, Note_on_c, 0, 64, 30
1, 145310, Note_on_c, 0, 76, 71
1, 145344, Note_off_c, 0, 57, 30
1, 145344, Note_off_c, 0, 73, 61
1, 145359, Note_off_c, 0, 64, 37
1, 145361, Note_off_c, 0, 61, 40
1, 145430, Note_on_c, 0, 75, 73
1, 145472, Note_on_c, 0, 64, 46
1, 145475, Note_on_c, 0, 61, 48
1, 145485, Note_off_c, 0, 76, 56
1, 145487, Note_on_c, 0, 57, 41
1, 145508, Note_off_c, 0, 64, 65
1, 145520, Note_off_c, 0, 61, 60
1, 145527, Note_off_c, 0, 57, 63
1, 145545, Note_on_c, 0, 73, 76
1, 145568, Note_off_c, 0, 75, 61
1, 145617, Note_off_c, 0, 73, 63
1, 145674, Control_c, 0, 64, 79
1, 145689, Control_c, 0, 64, 58
1, 145703, Control_c, 0, 64, 0
1, 145719, Note_on_c, 0, 73, 73
1, 145732, Note_on_c, 0, 49, 55
1, 145776, Control_c, 0, 64, 35
1, 145791, Control_c, 0, 64, 61
1, 145806, Control_c, 0, 64, 74
1, 145821, Control_c, 0, 64, 88
1, 145836, Control_c, 0, 64, 127
1, 145841, Note_off_c, 0, 49, 62
1, 145841, Note_off_c, 0, 73, 61
1, 146141, Note_on_c, 0, 56, 38
1, 146149, Note_on_c, 0, 65, 41
1, 146151, Note_on_c, 0, 61, 38
1, 146203, Note_off_c, 0, 56, 58
1, 146208, Note_off_c, 0, 65, 57
1, 146214, Note_off_c, 0, 61, 58
1, 146347, Control_c, 0, 64, 97
1, 146363, Control_c, 0, 64, 74
1, 146377, Control_c, 0, 64, 56
1, 146392, Control_c, 0, 64, 0
1, 146411, Note_on_c, 0, 73, 65
1, 146426, Note_on_c, 0, 65, 53
1, 146439, Note_on_c, 0, 56, 43
1, 146441, Note_on_c, 0, 61, 42
1, 146459, Note_off_c, 0, 65, 63
1, 146481, Note_off_c, 0, 61, 65
1, 146491, Note_off_c, 0, 56, 62
1, 146643, Control_c, 0, 64, 51
1, 146651, Note_on_c, 0, 49, 63
1, 146658, Control_c, 0, 64, 65
1, 146673, Control_c, 0, 64, 72
1, 146688, Control_c, 0, 64, 85
1, 146689, Note_off_c, 0, 73, 61
1, 146703, Control_c, 0, 64, 127
1, 146705, Note_off_c, 0, 49, 59
1, 146898, Note_on_c, 0, 80, 70
1, 146911, Note_on_c, 0, 73, 66
1, 146922, Note_on_c, 0, 56, 43
1, 146933, Note_on_c, 0, 61, 37
1, 146935, Note_on_c, 0, 65, 36
1, 146986, Note_off_c, 0, 56, 55
1, 146989, Note_off_c, 0, 65, 45
1, 146999, Note_off_c, 0, 61, 50
1, 147006, Note_on_c, 0, 77, 73
1, 147034, Note_off_c, 0, 73, 57
1, 147109, Note_on_c, 0, 75, 78
1, 147132, Note_on_c, 0, 56, 47
1, 147144, Note_off_c, 0, 77, 62
1, 147147, Note_on_c, 0, 61, 43
1, 147158, Note_off_c, 0, 80, 42
1, 147171, Note_off_c, 0, 56, 62
1, 147174, Note_off_c, 0, 61, 51
1, 147211, Note_on_c, 0, 73, 72
1, 147251, Note_off_c, 0, 75, 62
1, 147270, Note_off_c, 0, 73, 64
1, 147274, Control_c, 0, 64, 78
1, 147289, Control_c, 0, 64, 53
1, 147304, Control_c, 0, 64, 0
1, 147342, Note_on_c, 0, 80, 76
1, 147346, Note_on_c, 0, 73, 71
1, 147349, Note_on_c, 0, 44, 60
1, 147350, Note_on_c, 0, 78, 72
1, 147363, Control_c, 0, 64, 41
1, 147378, Control_c, 0, 64, 66
1, 147384, Note_off_c, 0, 44, 64
1, 147392, Control_c, 0, 64, 79
1, 147407, Note_off_c, 0, 73, 63
1, 147407, Control_c, 0, 64, 103
1, 147415, Note_off_c, 0, 78, 62
1, 147420, Note_off_c, 0, 80, 61
1, 147422, Control_c, 0, 64, 127
1, 147633, Note_on_c, 0, 56, 52
1, 147638, Note_on_c, 0, 66, 52
1, 147651, Note_on_c, 0, 63, 49
1, 147670, Note_off_c, 0, 56, 63
1, 147676, Note_off_c, 0, 66, 60
1, 147688, Note_off_c, 0, 63, 61
1, 147696, Control_c, 0, 64, 86
1, 147711, Control_c, 0, 64, 61
1, 147725, Control_c, 0, 64, 0
1, 147869, Note_on_c, 0, 80, 70
1, 147877, Note_on_c, 0, 72, 69
1, 147878, Note_on_c, 0, 56, 48
1, 147878, Note_on_c, 0, 78, 69
1, 147893, Note_on_c, 0, 66, 37
1, 147898, Note_on_c, 0, 63, 39
1, 147921, Note_off_c, 0, 63, 51
1, 147923, Note_off_c, 0, 66, 33
1, 147928, Note_off_c, 0, 56, 62
1, 148089, Note_off_c, 0, 72, 61
1, 148095, Note_on_c, 0, 44, 64
1, 148098, Control_c, 0, 64, 45
1, 148113, Control_c, 0, 64, 69
1, 148126, Note_off_c, 0, 44, 64
1, 148128, Control_c, 0, 64, 84
1, 148143, Control_c, 0, 64, 115
1, 148152, Note_off_c, 0, 78, 59
1, 148157, Control_c, 0, 64, 127
1, 148271, Note_off_c, 0, 80, 39
1, 148334, Note_on_c, 0, 82, 81
1, 148341, Note_on_c, 0, 56, 60
1, 148341, Note_on_c, 0, 73, 70
1, 148342, Note_on_c, 0, 66, 59
1, 148345, Note_on_c, 0, 78, 74
1, 148349, Control_c, 0, 64, 84
1, 148351, Note_on_c, 0, 63, 56
1, 148364, Control_c, 0, 64, 58
1, 148383, Note_off_c, 0, 66, 63
1, 148386, Note_off_c, 0, 73, 64
1, 148386, Note_off_c, 0, 78, 58
1, 148387, Note_off_c, 0, 56, 61
1, 148387, Control_c, 0, 64, 0
1, 148394, Note_off_c, 0, 63, 61
1, 148405, Note_off_c, 0, 82, 58
1, 148566, Note_on_c, 0, 84, 75
1, 148572, Note_on_c, 0, 75, 75
1, 148575, Note_on_c, 0, 78, 73
1, 148578, Note_on_c, 0, 56, 56
1, 148583, Note_on_c, 0, 66, 51
1, 148598, Note_on_c, 0, 63, 35
1, 148602, Note_off_c, 0, 78, 65
1, 148607, Note_off_c, 0, 66, 57
1, 148618, Note_off_c, 0, 63, 49
1, 148627, Note_off_c, 0, 56, 64
1, 148628, Note_off_c, 0, 75, 63
1, 148629, Note_off_c, 0, 84, 65
1, 148813, Note_on_c, 0, 85, 73
1, 148817, Control_c, 0, 64, 47
1, 148822, Note_on_c, 0, 77, 68
1, 148826, Note_on_c, 0, 73, 64
1, 148832, Control_c, 0, 64, 65
1, 148840, Note_on_c, 0, 49, 54
1, 148846, Control_c, 0, 64, 76
1, 148855, Note_off_c, 0, 73, 64
1, 148861, Control_c, 0, 64, 98
1, 148865, Note_off_c, 0, 77, 64
1, 148870, Note_off_c, 0, 85, 64
1, 148876, Control_c, 0, 64, 127
1, 148881, Note_off_c, 0, 49, 61
1, 149151, Note_on_c, 0, 61, 43
1, 149152, Note_on_c, 0, 56, 42
1, 149153, Note_on_c, 0, 65, 47
1, 149194, Note_off_c, 0, 56, 60
1, 149199, Note_off_c, 0, 65, 59
1, 149204, Note_off_c, 0, 61, 58
1, 149358, Control_c, 0, 64, 97
1, 149373, Control_c, 0, 64, 69
1, 149387, Control_c, 0, 64, 39
1, 149389, Note_on_c, 0, 80, 67
1, 149395, Note_on_c, 0, 73, 61
1, 149401, Note_on_c, 0, 77, 62
1, 149402, Control_c, 0, 64, 0
1, 149407, Note_on_c, 0, 56, 45
1, 149411, Note_on_c, 0, 65, 42
1, 149419, Note_on_c, 0, 61, 38
1, 149434, Note_off_c, 0, 65, 52
1, 149451, Note_off_c, 0, 61, 60
1, 149463, Note_off_c, 0, 56, 57
1, 149610, Control_c, 0, 64, 38
1, 149624, Note_on_c, 0, 49, 61
1, 149625, Control_c, 0, 64, 66
1, 149627, Note_off_c, 0, 77, 59
1, 149633, Note_off_c, 0, 80, 59
1, 149636, Note_off_c, 0, 73, 57
1, 149640, Control_c, 0, 64, 73
1, 149655, Control_c, 0, 64, 81
1, 149669, Control_c, 0, 64, 96
1, 149681, Note_off_c, 0, 49, 60
1, 149684, Control_c, 0, 64, 127
1, 149854, Note_on_c, 0, 80, 75
1, 149878, Note_on_c, 0, 73, 66
1, 149882, Note_on_c, 0, 56, 47
1, 149890, Note_on_c, 0, 65, 45
1, 149895, Note_on_c, 0, 61, 44
1, 149961, Note_off_c, 0, 65, 50
1, 149964, Note_off_c, 0, 61, 51
1, 149970, Note_on_c, 0, 77, 74
1, 149974, Note_off_c, 0, 56, 48
1, 149997, Note_off_c, 0, 73, 58
1, 150069, Note_on_c, 0, 75, 79
1, 150092, Note_on_c, 0, 56, 51
1, 150109, Note_off_c, 0, 77, 62
1, 150110, Note_on_c, 0, 61, 35
1, 150137, Note_off_c, 0, 56, 57
1, 150143, Note_off_c, 0, 61, 44
1, 150149, Note_off_c, 0, 80, 35
1, 150164, Note_on_c, 0, 73, 74
1, 150199, Note_off_c, 0, 75, 63
1, 150224, Control_c, 0, 64, 71
1, 150227, Note_off_c, 0, 73, 62
1, 150238, Control_c, 0, 64, 43
1, 150253, Control_c, 0, 64, 0
1, 150298, Note_on_c, 0, 80, 75
1, 150304, Note_on_c, 0, 73, 73
1, 150304, Note_on_c, 0, 78, 73
1, 150307, Note_on_c, 0, 44, 68
1, 150328, Control_c, 0, 64, 56
1, 150342, Note_off_c, 0, 44, 63
1, 150343, Control_c, 0, 64, 74
1, 150358, Control_c, 0, 64, 94
1, 150373, Control_c, 0, 64, 127
1, 150380, Note_off_c, 0, 73, 60
1, 150398, Note_off_c, 0, 80, 61
1, 150405, Note_off_c, 0, 78, 62
1, 150584, Note_on_c, 0, 66, 57
1, 150586, Note_on_c, 0, 56, 49
1, 150599, Note_on_c, 0, 63, 53
1, 150634, Note_off_c, 0, 56, 61
1, 150635, Note_off_c, 0, 66, 54
1, 150646, Note_off_c, 0, 63, 58
1, 150691, Control_c, 0, 64, 79
1, 150706, Control_c, 0, 64, 55
1, 150721, Control_c, 0, 64, 0
1, 150832, Note_on_c, 0, 80, 73
1, 150840, Note_on_c, 0, 72, 68
1, 150841, Note_on_c, 0, 78, 70
1, 150842, Note_on_c, 0, 56, 50
1, 150853, Note_on_c, 0, 63, 45
1, 150855, Note_on_c, 0, 66, 39
1, 150877, Note_off_c, 0, 63, 61
1, 150882, Note_off_c, 0, 66, 34
1, 150889, Note_off_c, 0, 56, 61
1, 151043, Note_off_c, 0, 72, 59
1, 151061, Note_on_c, 0, 44, 61
1, 151076, Control_c, 0, 64, 55
1, 151091, Control_c, 0, 64, 77
1, 151092, Note_off_c, 0, 44, 66
1, 151106, Note_off_c, 0, 78, 58
1, 151106, Control_c, 0, 64, 96
1, 151121, Control_c, 0, 64, 127
1, 151219, Note_off_c, 0, 80, 61
1, 151305, Note_on_c, 0, 82, 80
1, 151314, Control_c, 0, 64, 95
1, 151317, Note_on_c, 0, 73, 64
1, 151319, Note_on_c, 0, 56, 47
1, 151319, Note_on_c, 0, 66, 51
1, 151323, Note_on_c, 0, 78, 67
1, 151324, Note_on_c, 0, 63, 56
1, 151329, Control_c, 0, 64, 67
1, 151344, Note_off_c, 0, 56, 58
1, 151344, Control_c, 0, 64, 0
1, 151345, Note_off_c, 0, 73, 67
1, 151349, Note_off_c, 0, 78, 66
1, 151354, Note_off_c, 0, 66, 61
1, 151359, Note_off_c, 0, 63, 64
1, 151377, Note_off_c, 0, 82, 60
1, 151396, Control_c, 0, 67, 8
1, 151411, Control_c, 0, 67, 9
1, 151426, Control_c, 0, 67, 9
1, 151485, Control_c, 0, 67, 10
1, 151514, Control_c, 0, 67, 11
1, 151529, Control_c, 0, 67, 11
1, 151556, Note_on_c, 0, 84, 76
1, 151570, Note_on_c, 0, 75, 63
1, 151570, Note_on_c, 0, 78, 65
1, 151574, Note_on_c, 0, 56, 52
1, 151587, Note_on_c, 0, 66, 27
1, 151592, Note_on_c, 0, 63, 34
1, 151597, Note_off_c, 0, 78, 66
1, 151605, Note_off_c, 0, 75, 62
1, 151613, Note_off_c, 0, 63, 50
1, 151616, Note_off_c, 0, 66, 33
1, 151625, Note_off_c, 0, 56, 63
1, 151625, Note_off_c, 0, 84, 63
1, 151692, Control_c, 0, 67, 11
1, 151707, Control_c, 0, 67, 10
1, 151722, Control_c, 0, 67, 10
1, 151737, Control_c, 0, 67, 9
1, 151752, Control_c, 0, 67, 9
1, 151781, Control_c, 0, 67, 8
1, 151796, Control_c, 0, 67, 0
1, 151811, Control_c, 0, 64, 13
1, 151819, Note_on_c, 0, 85, 72
1, 151825, Control_c, 0, 64, 47
1, 151834, Note_on_c, 0, 73, 60
1, 151838, Note_on_c, 0, 77, 57
1, 151840, Control_c, 0, 64, 63
1, 151845, Note_on_c, 0, 49, 50
1, 151855, Control_c, 0, 64, 70
1, 151870, Control_c, 0, 64, 79
1, 151876, Note_off_c, 0, 73, 58
1, 151885, Control_c, 0, 64, 98
1, 151886, Note_off_c, 0, 77, 57
1, 151896, Note_off_c, 0, 85, 63
1, 151899, Note_off_c, 0, 49, 58
1, 151899, Control_c, 0, 64, 127
1, 152159, Note_on_c, 0, 56, 35
1, 152169, Note_on_c, 0, 65, 36
1, 152182, Note_on_c, 0, 61, 30
1, 152206, Note_off_c, 0, 56, 58
1, 152217, Note_off_c, 0, 65, 59
1, 152227, Note_off_c, 0, 61, 49
1, 152248, Control_c, 0, 67, 8
1, 152263, Control_c, 0, 67, 9
1, 152278, Control_c, 0, 67, 10
1, 152293, Control_c, 0, 67, 11
1, 152308, Control_c, 0, 67, 12
1, 152322, Control_c, 0, 67, 12
1, 152337, Control_c, 0, 67, 13
1, 152382, Control_c, 0, 67, 13
1, 152403, Note_on_c, 0, 80, 67
1, 152411, Control_c, 0, 67, 14
1, 152419, Note_on_c, 0, 73, 51
1, 152426, Note_on_c, 0, 77, 50
1, 152432, Note_on_c, 0, 65, 12
1, 152435, Note_on_c, 0, 56, 42
1, 152449, Note_on_c, 0, 61, 7
1, 152474, Note_off_c, 0, 56, 63
1, 152477, Note_off_c, 0, 65, 28
1, 152485, Control_c, 0, 67, 14
1, 152499, Note_off_c, 0, 61, 34
1, 152514, Control_c, 0, 67, 15
1, 152529, Control_c, 0, 67, 15
1, 152544, Control_c, 0, 67, 16
1, 152559, Control_c, 0, 67, 17
1, 152574, Control_c, 0, 67, 17
1, 152588, Control_c, 0, 67, 18
1, 152603, Control_c, 0, 67, 19
1, 152618, Control_c, 0, 64, 88
1, 152618, Control_c, 0, 67, 20
1, 152633, Control_c, 0, 64, 65
1, 152633, Control_c, 0, 67, 21
1, 152647, Control_c, 0, 64, 37
1, 152647, Control_c, 0, 67, 22
1, 152662, Control_c, 0, 64, 0
1, 152662, Control_c, 0, 67, 22
1, 152667, Note_on_c, 0, 49, 51
1, 152677, Control_c, 0, 67, 23
1, 152707, Control_c, 0, 64, 44
1, 152707, Control_c, 0, 67, 23
1, 152721, Control_c, 0, 64, 63
1, 152721, Control_c, 0, 67, 24
1, 152737, Control_c, 0, 64, 73
1, 152737, Control_c, 0, 67, 25
1, 152748, Note_off_c, 0, 77, 33
1, 152752, Control_c, 0, 64, 85
1, 152752, Control_c, 0, 67, 26
1, 152767, Control_c, 0, 64, 106
1, 152767, Control_c, 0, 67, 26
1, 152770, Note_off_c, 0, 73, 33
1, 152772, Note_off_c, 0, 49, 62
1, 152782, Control_c, 0, 64, 127
1, 152782, Control_c, 0, 67, 27
1, 152797, Control_c, 0, 67, 27
1, 152841, Control_c, 0, 67, 28
1, 152856, Control_c, 0, 67, 28
1, 152878, Control_c, 0, 67, 29
1, 152893, Control_c, 0, 67, 31
1, 152908, Control_c, 0, 67, 33
1, 152923, Control_c, 0, 67, 34
1, 152938, Control_c, 0, 67, 35
1, 152952, Control_c, 0, 67, 36
1, 152967, Control_c, 0, 67, 37
1, 152975, Note_on_c, 0, 85, 67
1, 152982, Control_c, 0, 67, 38
1, 152993, Note_on_c, 0, 73, 43
1, 152997, Control_c, 0, 67, 39
1, 153001, Note_on_c, 0, 77, 49
1, 153010, Note_off_c, 0, 80, 56
1, 153011, Control_c, 0, 67, 41
1, 153021, Note_on_c, 0, 56, 33
1, 153026, Control_c, 0, 67, 43
1, 153035, Note_on_c, 0, 65, 30
1, 153040, Note_on_c, 0, 61, 28
1, 153041, Control_c, 0, 67, 45
1, 153056, Control_c, 0, 67, 47
1, 153070, Control_c, 0, 67, 49
1, 153085, Control_c, 0, 67, 50
1, 153100, Control_c, 0, 67, 51
1, 153103, Note_off_c, 0, 56, 50
1, 153115, Control_c, 0, 67, 53
1, 153117, Note_off_c, 0, 65, 51
1, 153130, Control_c, 0, 67, 56
1, 153136, Note_off_c, 0, 61, 37
1, 153145, Control_c, 0, 67, 58
1, 153160, Control_c, 0, 67, 60
1, 153175, Control_c, 0, 67, 62
1, 153178, Note_off_c, 0, 77, 39
1, 153184, Note_off_c, 0, 73, 43
1, 153189, Note_off_c, 0, 85, 53
1, 153189, Control_c, 0, 67, 63
1, 153204, Control_c, 0, 67, 65
1, 153219, Control_c, 0, 67, 67
1, 153234, Control_c, 0, 67, 69
1, 153249, Control_c, 0, 67, 71
1, 153263, Control_c, 0, 67, 73
1, 153278, Control_c, 0, 67, 75
1, 153293, Control_c, 0, 67, 77
1, 153308, Control_c, 0, 67, 78
1, 153323, Control_c, 0, 67, 80
1, 153328, Note_on_c, 0, 85, 63
1, 153337, Control_c, 0, 67, 82
1, 153352, Control_c, 0, 67, 84
1, 153358, Note_on_c, 0, 73, 43
1, 153367, Control_c, 0, 67, 87
1, 153369, Note_on_c, 0, 77, 41
1, 153371, Note_on_c, 0, 65, 24
1, 153374, Note_on_c, 0, 56, 30
1, 153382, Control_c, 0, 67, 89
1, 153387, Note_on_c, 0, 61, 20
1, 153396, Control_c, 0, 67, 92
1, 153404, Note_off_c, 0, 77, 60
1, 153406, Note_off_c, 0, 65, 44
1, 153411, Control_c, 0, 67, 95
1, 153426, Control_c, 0, 67, 99
1, 153430, Note_off_c, 0, 61, 46
1, 153433, Note_off_c, 0, 56, 58
1, 153441, Control_c, 0, 67, 103
1, 153456, Control_c, 0, 67, 108
1, 153470, Control_c, 0, 67, 111
1, 153471, Note_off_c, 0, 73, 29
1, 153485, Note_off_c, 0, 85, 34
1, 153485, Control_c, 0, 67, 116
1, 153500, Control_c, 0, 67, 119
1, 153515, Control_c, 0, 67, 123
1, 153530, Control_c, 0, 67, 127
1, 153546, Control_c, 0, 67, 127
1, 153746, Control_c, 0, 64, 91
1, 153761, Control_c, 0, 64, 71
1, 153766, Note_on_c, 0, 85, 52
1, 153775, Control_c, 0, 64, 53
1, 153781, Note_on_c, 0, 73, 39
1, 153789, Note_on_c, 0, 79, 45
1, 153790, Control_c, 0, 64, 0
1, 153797, Note_on_c, 0, 45, 37
1, 153834, Control_c, 0, 64, 31
1, 153849, Control_c, 0, 64, 52
1, 153863, Note_off_c, 0, 45, 59
1, 153864, Control_c, 0, 64, 63
1, 153879, Control_c, 0, 64, 70
1, 153893, Control_c, 0, 64, 76
1, 153908, Control_c, 0, 64, 84
1, 153923, Control_c, 0, 64, 94
1, 153938, Control_c, 0, 64, 105
1, 153954, Control_c, 0, 64, 121
1, 153968, Control_c, 0, 64, 127
1, 153976, Note_off_c, 0, 73, 42
1, 153982, Note_off_c, 0, 85, 34
1, 153991, Note_off_c, 0, 79, 33
1, 154219, Note_on_c, 0, 64, 38
1, 154225, Note_on_c, 0, 61, 38
1, 154228, Note_on_c, 0, 55, 31
1, 154257, Note_off_c, 0, 64, 65
1, 154258, Note_off_c, 0, 55, 55
1, 154260, Note_off_c, 0, 61, 62
1, 154510, Control_c, 0, 64, 96
1, 154525, Control_c, 0, 64, 73
1, 154540, Control_c, 0, 64, 55
1, 154544, Note_on_c, 0, 85, 51
1, 154555, Control_c, 0, 64, 15
1, 154559, Note_on_c, 0, 73, 39
1, 154566, Note_on_c, 0, 79, 47
1, 154568, Note_on_c, 0, 64, 41
1, 154570, Control_c, 0, 64, 0
1, 154579, Note_on_c, 0, 55, 34
1, 154584, Note_on_c, 0, 61, 29
1, 154602, Note_off_c, 0, 64, 66
1, 154612, Note_off_c, 0, 61, 56
1, 154620, Note_off_c, 0, 55, 65
1, 154806, Control_c, 0, 64, 36
1, 154808, Note_on_c, 0, 45, 51
1, 154821, Control_c, 0, 64, 57
1, 154835, Control_c, 0, 64, 65
1, 154844, Note_off_c, 0, 45, 64
1, 154850, Control_c, 0, 64, 71
1, 154859, Note_off_c, 0, 73, 53
1, 154860, Note_off_c, 0, 79, 47
1, 154865, Note_off_c, 0, 85, 52
1, 154865, Control_c, 0, 64, 79
1, 154880, Control_c, 0, 64, 94
1, 154895, Control_c, 0, 64, 127
1, 155073, Note_on_c, 0, 85, 46
1, 155082, Note_on_c, 0, 79, 42
1, 155109, Note_on_c, 0, 55, 35
1, 155130, Note_on_c, 0, 61, 27
1, 155133, Note_on_c, 0, 64, 17
1, 155151, Note_off_c, 0, 55, 51
1, 155185, Note_off_c, 0, 61, 44
1, 155188, Note_off_c, 0, 64, 47
1, 155205, Note_on_c, 0, 83, 57
1, 155217, Note_off_c, 0, 79, 31
1, 155268, Note_off_c, 0, 85, 45
1, 155319, Note_on_c, 0, 81, 61
1, 155333, Note_off_c, 0, 83, 55
1, 155353, Note_on_c, 0, 55, 37
1, 155354, Note_on_c, 0, 61, 18
1, 155386, Note_off_c, 0, 55, 61
1, 155398, Note_off_c, 0, 81, 62
1, 155399, Note_off_c, 0, 61, 36
1, 155415, Note_on_c, 0, 79, 60
1, 155440, Note_off_c, 0, 79, 67
1, 155488, Note_on_c, 0, 78, 65
1, 155569, Note_on_c, 0, 85, 62
1, 155605, Note_off_c, 0, 78, 32
1, 155614, Control_c, 0, 64, 86
1, 155629, Control_c, 0, 64, 66
1, 155644, Control_c, 0, 64, 49
1, 155658, Control_c, 0, 64, 32
1, 155667, Note_on_c, 0, 90, 67
1, 155673, Control_c, 0, 64, 30
1, 155676, Note_off_c, 0, 85, 63
1, 155685, Note_on_c, 0, 38, 42
1, 155688, Control_c, 0, 64, 42
1, 155695, Note_off_c, 0, 90, 64
1, 155703, Control_c, 0, 64, 57
1, 155718, Control_c, 0, 64, 71
1, 155732, Note_off_c, 0, 38, 62
1, 155732, Control_c, 0, 64, 82
1, 155747, Control_c, 0, 64, 98
1, 155762, Control_c, 0, 64, 113
1, 155777, Control_c, 0, 64, 127
1, 156008, Control_c, 0, 64, 95
1, 156012, Note_on_c, 0, 54, 49
1, 156022, Control_c, 0, 64, 69
1, 156029, Note_on_c, 0, 66, 44
1, 156037, Control_c, 0, 64, 47
1, 156042, Note_on_c, 0, 62, 36
1, 156051, Note_off_c, 0, 54, 57
1, 156052, Control_c, 0, 64, 0
1, 156061, Note_off_c, 0, 66, 58
1, 156078, Note_off_c, 0, 62, 57
1, 156275, Note_on_c, 0, 90, 61
1, 156296, Note_on_c, 0, 78, 46
1, 156296, Note_on_c, 0, 83, 47
1, 156303, Note_on_c, 0, 66, 34
1, 156307, Note_on_c, 0, 59, 36
1, 156325, Note_off_c, 0, 66, 51
1, 156328, Poly_aftertouch_c, 0, 62, 0
1, 156335, Note_off_c, 0, 59, 60
1, 156466, Control_c, 0, 64, 30
1, 156480, Control_c, 0, 64, 54
1, 156495, Control_c, 0, 64, 64
1, 156509, Note_off_c, 0, 83, 61
1, 156510, Control_c, 0, 64, 70
1, 156516, Note_off_c, 0, 78, 62
1, 156519, Note_on_c, 0, 50, 50
1, 156525, Control_c, 0, 64, 79
1, 156540, Control_c, 0, 64, 91
1, 156551, Note_off_c, 0, 90, 61
1, 156552, Note_off_c, 0, 50, 65
1, 156555, Control_c, 0, 64, 109
1, 156570, Control_c, 0, 64, 127
1, 156787, Note_on_c, 0, 90, 62
1, 156798, Note_on_c, 0, 83, 49
1, 156800, Control_c, 0, 64, 88
1, 156802, Note_on_c, 0, 66, 46
1, 156815, Control_c, 0, 64, 69
1, 156822, Note_on_c, 0, 62, 42
1, 156829, Control_c, 0, 64, 50
1, 156837, Note_off_c, 0, 66, 56
1, 156844, Control_c, 0, 64, 0
1, 156853, Note_off_c, 0, 62, 54
1, 156890, Note_off_c, 0, 90, 62
1, 156900, Note_on_c, 0, 93, 56
1, 157002, Note_on_c, 0, 92, 66
1, 157028, Note_on_c, 0, 62, 38
1, 157038, Note_on_c, 0, 66, 30
1, 157048, Note_off_c, 0, 93, 58
1, 157053, Note_off_c, 0, 62, 58
1, 157059, Note_off_c, 0, 83, 37
1, 157059, Note_off_c, 0, 66, 46
1, 157102, Note_on_c, 0, 90, 64
1, 157118, Note_off_c, 0, 92, 59
1, 157172, Note_off_c, 0, 90, 56
1, 157233, Note_on_c, 0, 88, 59
1, 157238, Note_on_c, 0, 83, 54
1, 157244, Control_c, 0, 64, 39
1, 157259, Control_c, 0, 64, 57
1, 157261, Note_on_c, 0, 52, 44
1, 157274, Control_c, 0, 64, 65
1, 157275, Note_off_c, 0, 83, 63
1, 157277, Note_off_c, 0, 88, 65
1, 157289, Control_c, 0, 64, 70
1, 157303, Note_off_c, 0, 52, 60
1, 157303, Control_c, 0, 64, 78
1, 157318, Control_c, 0, 64, 92
1, 157333, Control_c, 0, 64, 124
1, 157348, Control_c, 0, 64, 127
1, 157534, Note_on_c, 0, 61, 51
1, 157534, Control_c, 0, 64, 86
1, 157543, Note_on_c, 0, 64, 43
1, 157549, Control_c, 0, 64, 64
1, 157564, Control_c, 0, 64, 42
1, 157579, Note_off_c, 0, 61, 62
1, 157579, Control_c, 0, 64, 0
1, 157587, Note_off_c, 0, 64, 59
1, 157789, Note_on_c, 0, 88, 53
1, 157795, Note_on_c, 0, 81, 53
1, 157799, Note_on_c, 0, 64, 51
1, 157804, Note_on_c, 0, 61, 44
1, 157828, Note_off_c, 0, 64, 67
1, 157832, Note_off_c, 0, 61, 63
1, 158009, Control_c, 0, 64, 21
1, 158024, Control_c, 0, 64, 52
1, 158026, Note_on_c, 0, 40, 51
1, 158039, Control_c, 0, 64, 64
1, 158039, Note_off_c, 0, 88, 63
1, 158044, Note_off_c, 0, 81, 62
1, 158053, Control_c, 0, 64, 72
1, 158059, Note_off_c, 0, 40, 65
1, 158068, Control_c, 0, 64, 80
1, 158083, Control_c, 0, 64, 91
1, 158098, Control_c, 0, 64, 105
1, 158120, Control_c, 0, 64, 127
1, 158295, Note_on_c, 0, 76, 66
1, 158312, Note_on_c, 0, 69, 56
1, 158312, Control_c, 0, 64, 100
1, 158322, Note_on_c, 0, 61, 48
1, 158322, Note_on_c, 0, 64, 42
1, 158327, Control_c, 0, 64, 83
1, 158343, Control_c, 0, 64, 69
1, 158358, Control_c, 0, 64, 52
1, 158364, Note_off_c, 0, 64, 57
1, 158373, Control_c, 0, 64, 0
1, 158373, Note_off_c, 0, 61, 56
1, 158403, Note_on_c, 0, 73, 66
1, 158430, Note_off_c, 0, 69, 53
1, 158463, Note_off_c, 0, 76, 52
1, 158504, Note_on_c, 0, 71, 69
1, 158515, Note_on_c, 0, 61, 54
1, 158529, Note_on_c, 0, 64, 41
1, 158539, Note_off_c, 0, 73, 58
1, 158573, Note_off_c, 0, 64, 60
1, 158594, Note_off_c, 0, 61, 51
1, 158600, Note_on_c, 0, 69, 56
1, 158603, Note_off_c, 0, 71, 63
1, 158647, Note_off_c, 0, 69, 65
1, 158725, Note_on_c, 0, 78, 71
1, 158739, Note_on_c, 0, 69, 59
1, 158743, Note_on_c, 0, 52, 39
1, 158758, Control_c, 0, 64, 32
1, 158770, Note_off_c, 0, 69, 66
1, 158773, Control_c, 0, 64, 61
1, 158776, Note_off_c, 0, 52, 54
1, 158779, Note_off_c, 0, 78, 60
1, 158788, Control_c, 0, 64, 69
1, 158802, Control_c, 0, 64, 75
1, 158817, Control_c, 0, 64, 86
1, 158832, Control_c, 0, 64, 101
1, 158854, Control_c, 0, 64, 127
1, 159022, Note_on_c, 0, 59, 49
1, 159024, Note_on_c, 0, 64, 48
1, 159028, Note_on_c, 0, 62, 37
1, 159032, Control_c, 0, 64, 94
1, 159047, Control_c, 0, 64, 73
1, 159061, Control_c, 0, 64, 56
1, 159062, Note_off_c, 0, 59, 61
1, 159062, Note_off_c, 0, 62, 57
1, 159065, Note_off_c, 0, 64, 62
1, 159076, Control_c, 0, 64, 0
1, 159256, Note_on_c, 0, 76, 57
1, 159273, Note_on_c, 0, 68, 48
1, 159276, Note_on_c, 0, 59, 42
1, 159305, Note_on_c, 0, 64, 10
1, 159311, Note_off_c, 0, 59, 61
1, 159353, Note_off_c, 0, 64, 28
1, 159355, Poly_aftertouch_c, 0, 62, 0
1, 159373, Control_c, 0, 67, 127
1, 159388, Control_c, 0, 67, 124
1, 159403, Control_c, 0, 67, 120
1, 159418, Control_c, 0, 67, 116
1, 159432, Control_c, 0, 67, 113
1, 159447, Control_c, 0, 67, 109
1, 159462, Control_c, 0, 67, 106
1, 159476, Control_c, 0, 64, 43
1, 159476, Control_c, 0, 67, 103
1, 159491, Control_c, 0, 64, 59
1, 159491, Control_c, 0, 67, 101
1, 159506, Control_c, 0, 64, 67
1, 159506, Control_c, 0, 67, 101
1, 159509, Note_on_c, 0, 52, 37
1, 159521, Control_c, 0, 64, 73
1, 159531, Note_off_c, 0, 76, 54
1, 159536, Note_off_c, 0, 52, 47
1, 159536, Control_c, 0, 64, 82
1, 159551, Control_c, 0, 64, 94
1, 159566, Control_c, 0, 64, 105
1, 159580, Control_c, 0, 64, 121
1, 159580, Control_c, 0, 67, 101
1, 159586, Note_off_c, 0, 68, 35
1, 159603, Control_c, 0, 64, 127
1, 159632, Control_c, 0, 67, 102
1, 159662, Control_c, 0, 67, 102
1, 159691, Control_c, 0, 67, 103
1, 159706, Control_c, 0, 67, 103
1, 159721, Control_c, 0, 67, 104
1, 159736, Control_c, 0, 64, 122
1, 159736, Control_c, 0, 67, 104
1, 159750, Control_c, 0, 64, 95
1, 159765, Control_c, 0, 64, 77
1, 159765, Control_c, 0, 67, 105
1, 159769, Note_on_c, 0, 78, 58
1, 159771, Note_on_c, 0, 69, 55
1, 159780, Control_c, 0, 64, 61
1, 159780, Control_c, 0, 67, 105
1, 159791, Note_on_c, 0, 59, 40
1, 159795, Control_c, 0, 64, 21
1, 159795, Control_c, 0, 67, 106
1, 159801, Note_on_c, 0, 64, 29
1, 159808, Note_off_c, 0, 78, 55
1, 159809, Note_on_c, 0, 62, 4
1, 159809, Note_off_c, 0, 69, 61
1, 159810, Control_c, 0, 64, 0
1, 159810, Control_c, 0, 67, 106
1, 159819, Note_off_c, 0, 59, 55
1, 159828, Note_off_c, 0, 64, 52
1, 159840, Control_c, 0, 67, 107
1, 159856, Note_off_c, 0, 62, 34
1, 159870, Control_c, 0, 67, 107
1, 159884, Control_c, 0, 67, 108
1, 159929, Control_c, 0, 67, 108
1, 159959, Control_c, 0, 67, 108
1, 160032, Note_on_c, 0, 80, 55
1, 160046, Note_on_c, 0, 71, 53
1, 160061, Note_on_c, 0, 59, 38
1, 160063, Control_c, 0, 67, 107
1, 160077, Note_off_c, 0, 80, 52
1, 160084, Note_off_c, 0, 71, 61
1, 160088, Note_off_c, 0, 59, 58
1, 160093, Poly_aftertouch_c, 0, 64, 0
1, 160096, Poly_aftertouch_c, 0, 62, 0
1, 160107, Control_c, 0, 67, 107
1, 160122, Control_c, 0, 67, 106
1, 160152, Control_c, 0, 67, 106
1, 160167, Control_c, 0, 67, 105
1, 160196, Control_c, 0, 67, 105
1, 160226, Control_c, 0, 67, 104
1, 160255, Control_c, 0, 67, 104
1, 160285, Control_c, 0, 67, 103
1, 160314, Control_c, 0, 64, 17
1, 160314, Control_c, 0, 67, 103
1, 160329, Control_c, 0, 64, 43
1, 160329, Control_c, 0, 67, 102
1, 160344, Note_on_c, 0, 81, 48
1, 160344, Control_c, 0, 64, 55
1, 160344, Control_c, 0, 67, 102
1, 160356, Note_on_c, 0, 73, 48
1, 160361, Note_on_c, 0, 45, 46
1, 160367, Control_c, 0, 64, 61
1, 160367, Control_c, 0, 67, 101
1, 160381, Control_c, 0, 64, 64
1, 160381, Control_c, 0, 67, 100
1, 160392, Note_off_c, 0, 81, 63
1, 160393, Note_off_c, 0, 73, 64
1, 160396, Control_c, 0, 64, 67
1, 160396, Control_c, 0, 67, 100
1, 160403, Note_off_c, 0, 45, 61
1, 160411, Control_c, 0, 64, 74
1, 160411, Control_c, 0, 67, 99
1, 160426, Control_c, 0, 64, 83
1, 160426, Control_c, 0, 67, 96
1, 160441, Control_c, 0, 64, 98
1, 160441, Control_c, 0, 67, 93
1, 160455, Control_c, 0, 64, 127
1, 160455, Control_c, 0, 67, 88
1, 160470, Control_c, 0, 67, 84
1, 160485, Control_c, 0, 67, 78
1, 160500, Control_c, 0, 67, 74
1, 160514, Control_c, 0, 67, 70
1, 160529, Control_c, 0, 67, 65
1, 160544, Control_c, 0, 67, 61
1, 160559, Control_c, 0, 67, 56
1, 160574, Control_c, 0, 67, 50
1, 160588, Control_c, 0, 67, 44
1, 160603, Control_c, 0, 67, 37
1, 160618, Control_c, 0, 67, 30
1, 160633, Control_c, 0, 67, 22
1, 160648, Control_c, 0, 67, 14
1, 160663, Control_c, 0, 67, 11
1, 160677, Control_c, 0, 67, 11
1, 160692, Control_c, 0, 67, 10
1, 160707, Control_c, 0, 67, 8
1, 160722, Control_c, 0, 67, 0
1, 160737, Note_on_c, 0, 61, 36
1, 160747, Note_on_c, 0, 64, 35
1, 160766, Note_on_c, 0, 57, 36
1, 160800, Note_off_c, 0, 64, 58
1, 160806, Note_off_c, 0, 57, 61
1, 160858, Note_off_c, 0, 61, 34
1, 161044, Note_on_c, 0, 81, 64
1, 161057, Note_on_c, 0, 64, 37
1, 161063, Note_on_c, 0, 73, 49
1, 161069, Note_on_c, 0, 61, 17
1, 161086, Note_off_c, 0, 64, 59
1, 161088, Note_on_c, 0, 57, 29
1, 161115, Note_off_c, 0, 61, 45
1, 161125, Note_off_c, 0, 57, 56
1, 161263, Control_c, 0, 64, 106
1, 161278, Control_c, 0, 64, 71
1, 161293, Control_c, 0, 64, 46
1, 161308, Control_c, 0, 64, 0
1, 161317, Note_on_c, 0, 45, 62
1, 161324, Note_off_c, 0, 73, 36
1, 161337, Control_c, 0, 64, 43
1, 161342, Note_off_c, 0, 81, 54
1, 161352, Control_c, 0, 64, 64
1, 161364, Note_off_c, 0, 45, 65
1, 161367, Control_c, 0, 64, 79
1, 161382, Control_c, 0, 64, 101
1, 161397, Control_c, 0, 64, 127
1, 161685, Note_on_c, 0, 81, 95
1, 161694, Note_on_c, 0, 72, 80
1, 161703, Note_on_c, 0, 60, 56
1, 161709, Control_c, 0, 64, 83
1, 161715, Note_on_c, 0, 57, 50
1, 161718, Note_on_c, 0, 65, 50
1, 161724, Control_c, 0, 64, 62
1, 161739, Control_c, 0, 64, 54
1, 161740, Note_off_c, 0, 72, 63
1, 161753, Control_c, 0, 64, 62
1, 161768, Control_c, 0, 64, 78
1, 161774, Note_off_c, 0, 81, 63
1, 161783, Control_c, 0, 64, 127
1, 161938, Note_off_c, 0, 57, 33
1, 161948, Note_off_c, 0, 65, 32
1, 161984, Note_off_c, 0, 60, 35
1, 162056, Note_on_c, 0, 60, 49
1, 162061, Note_on_c, 0, 57, 57
1, 162062, Note_on_c, 0, 65, 57
1, 162087, Note_off_c, 0, 65, 64
1, 162126, Note_off_c, 0, 60, 63
1, 162129, Note_off_c, 0, 57, 59
1, 162206, Note_on_c, 0, 81, 89
1, 162215, Note_on_c, 0, 72, 80
1, 162248, Note_off_c, 0, 72, 61
1, 162251, Note_off_c, 0, 81, 65
1, 162278, Control_c, 0, 64, 86
1, 162293, Control_c, 0, 64, 54
1, 162302, Note_on_c, 0, 81, 88
1, 162308, Control_c, 0, 64, 0
1, 162312, Note_on_c, 0, 72, 82
1, 162329, Note_on_c, 0, 46, 71
1, 162368, Control_c, 0, 64, 42
1, 162383, Control_c, 0, 64, 71
1, 162397, Note_off_c, 0, 46, 63
1, 162398, Control_c, 0, 64, 85
1, 162413, Control_c, 0, 64, 118
1, 162428, Control_c, 0, 64, 127
1, 162532, Note_off_c, 0, 72, 56
1, 162555, Note_off_c, 0, 81, 59
1, 162693, Note_on_c, 0, 55, 62
1, 162696, Note_on_c, 0, 62, 63
1, 162698, Note_on_c, 0, 65, 60
1, 162779, Note_off_c, 0, 55, 60
1, 162793, Note_off_c, 0, 65, 56
1, 162817, Note_off_c, 0, 62, 58
1, 162979, Note_on_c, 0, 79, 78
1, 162984, Note_on_c, 0, 62, 55
1, 162985, Note_on_c, 0, 65, 50
1, 162989, Note_on_c, 0, 70, 71
1, 162992, Note_on_c, 0, 55, 53
1, 163009, Note_off_c, 0, 65, 55
1, 163016, Note_off_c, 0, 62, 66
1, 163057, Control_c, 0, 64, 97
1, 163058, Note_off_c, 0, 55, 63
1, 163072, Control_c, 0, 64, 67
1, 163087, Control_c, 0, 64, 29
1, 163101, Control_c, 0, 64, 0
1, 163204, Note_on_c, 0, 48, 77
1, 163221, Control_c, 0, 64, 42
1, 163236, Control_c, 0, 64, 78
1, 163250, Control_c, 0, 64, 104
1, 163265, Control_c, 0, 64, 127
1, 163269, Note_off_c, 0, 48, 60
1, 163330, Note_off_c, 0, 79, 49
1, 163336, Note_off_c, 0, 70, 53
1, 163472, Note_on_c, 0, 79, 82
1, 163480, Note_on_c, 0, 70, 75
1, 163494, Note_on_c, 0, 64, 62
1, 163499, Note_on_c, 0, 58, 60
1, 163501, Note_on_c, 0, 55, 59
1, 163539, Note_off_c, 0, 70, 61
1, 163582, Note_off_c, 0, 79, 56
1, 163613, Note_off_c, 0, 64, 48
1, 163615, Note_off_c, 0, 55, 56
1, 163622, Note_on_c, 0, 82, 79
1, 163626, Note_on_c, 0, 74, 81
1, 163673, Note_off_c, 0, 82, 62
1, 163682, Note_off_c, 0, 74, 63
1, 163690, Note_off_c, 0, 58, 33
1, 163731, Note_on_c, 0, 81, 90
1, 163740, Note_on_c, 0, 72, 80
1, 163745, Note_on_c, 0, 58, 59
1, 163752, Note_on_c, 0, 55, 67
1, 163756, Note_on_c, 0, 64, 47
1, 163769, Note_off_c, 0, 72, 64
1, 163777, Note_off_c, 0, 58, 64
1, 163778, Note_off_c, 0, 81, 63
1, 163783, Note_off_c, 0, 64, 56
1, 163788, Note_off_c, 0, 55, 64
1, 163829, Note_on_c, 0, 79, 83
1, 163843, Note_on_c, 0, 70, 80
1, 163873, Note_off_c, 0, 79, 62
1, 163878, Note_on_c, 0, 75, 19
1, 163879, Note_off_c, 0, 70, 52
1, 163895, Control_c, 0, 64, 71
1, 163910, Control_c, 0, 64, 30
1, 163912, Note_off_c, 0, 75, 41
1, 163926, Control_c, 0, 64, 0
1, 163945, Note_on_c, 0, 79, 88
1, 163949, Note_on_c, 0, 70, 91
1, 163954, Note_on_c, 0, 41, 83
1, 163970, Control_c, 0, 64, 43
1, 163985, Control_c, 0, 64, 73
1, 163987, Note_off_c, 0, 41, 70
1, 164000, Control_c, 0, 64, 105
1, 164015, Control_c, 0, 64, 127
1, 164259, Control_c, 0, 64, 83
1, 164266, Note_on_c, 0, 60, 69
1, 164267, Note_on_c, 0, 65, 67
1, 164271, Note_on_c, 0, 57, 66
1, 164273, Control_c, 0, 64, 46
1, 164288, Control_c, 0, 64, 0
1, 164302, Note_off_c, 0, 65, 61
1, 164305, Note_off_c, 0, 57, 62
1, 164319, Note_off_c, 0, 60, 59
1, 164492, Note_off_c, 0, 70, 61
1, 164531, Note_on_c, 0, 77, 75
1, 164541, Note_on_c, 0, 69, 71
1, 164542, Note_on_c, 0, 65, 62
1, 164546, Note_on_c, 0, 57, 57
1, 164547, Note_on_c, 0, 60, 65
1, 164565, Note_off_c, 0, 65, 65
1, 164565, Note_off_c, 0, 79, 55
1, 164590, Note_off_c, 0, 60, 65
1, 164605, Note_off_c, 0, 57, 62
1, 164764, Control_c, 0, 64, 44
1, 164765, Note_on_c, 0, 41, 79
1, 164767, Note_off_c, 0, 69, 63
1, 164778, Control_c, 0, 64, 77
1, 164793, Control_c, 0, 64, 99
1, 164794, Note_off_c, 0, 77, 59
1, 164797, Note_off_c, 0, 41, 64
1, 164808, Control_c, 0, 64, 127
1, 164993, Control_c, 0, 64, 103
1, 165005, Note_on_c, 0, 77, 86
1, 165008, Control_c, 0, 64, 69
1, 165009, Note_on_c, 0, 68, 87
1, 165021, Note_on_c, 0, 61, 68
1, 165022, Control_c, 0, 64, 43
1, 165024, Note_on_c, 0, 53, 58
1, 165033, Note_on_c, 0, 56, 58
1, 165037, Control_c, 0, 64, 12
1, 165052, Control_c, 0, 64, 37
1, 165063, Note_off_c, 0, 68, 64
1, 165067, Control_c, 0, 64, 63
1, 165072, Note_off_c, 0, 77, 64
1, 165082, Control_c, 0, 64, 91
1, 165096, Control_c, 0, 64, 127
1, 165128, Note_off_c, 0, 53, 53
1, 165176, Note_off_c, 0, 61, 35
1, 165202, Note_off_c, 0, 56, 34
1, 165278, Note_on_c, 0, 61, 64
1, 165279, Note_on_c, 0, 53, 64
1, 165283, Note_on_c, 0, 56, 65
1, 165304, Note_off_c, 0, 61, 68
1, 165331, Note_off_c, 0, 56, 63
1, 165343, Note_off_c, 0, 53, 62
1, 165420, Note_on_c, 0, 77, 84
1, 165423, Note_on_c, 0, 68, 81
1, 165463, Note_off_c, 0, 77, 61
1, 165468, Note_off_c, 0, 68, 58
1, 165482, Control_c, 0, 64, 93
1, 165496, Control_c, 0, 64, 61
1, 165511, Control_c, 0, 64, 0
1, 165515, Note_on_c, 0, 77, 84
1, 165518, Note_on_c, 0, 68, 83
1, 165530, Note_on_c, 0, 42, 79
1, 165587, Control_c, 0, 64, 67
1, 165602, Note_off_c, 0, 42, 63
1, 165608, Control_c, 0, 64, 91
1, 165623, Control_c, 0, 64, 127
1, 165730, Note_off_c, 0, 77, 56
1, 165745, Note_off_c, 0, 68, 53
1, 165861, Note_on_c, 0, 51, 57
1, 165861, Note_on_c, 0, 61, 60
1, 165868, Note_on_c, 0, 58, 61
1, 165985, Note_off_c, 0, 58, 54
1, 165989, Note_off_c, 0, 51, 33
1, 166008, Note_off_c, 0, 61, 35
1, 166118, Note_on_c, 0, 51, 59
1, 166119, Note_on_c, 0, 75, 79
1, 166120, Note_on_c, 0, 61, 61
1, 166124, Note_on_c, 0, 58, 61
1, 166131, Note_on_c, 0, 66, 71
1, 166148, Note_off_c, 0, 61, 66
1, 166173, Note_off_c, 0, 58, 60
1, 166186, Control_c, 0, 64, 89
1, 166195, Note_off_c, 0, 51, 62
1, 166201, Control_c, 0, 64, 60
1, 166216, Control_c, 0, 64, 0
1, 166365, Note_on_c, 0, 44, 80
1, 166365, Note_off_c, 0, 66, 61
1, 166387, Control_c, 0, 64, 65
1, 166392, Note_off_c, 0, 75, 63
1, 166401, Control_c, 0, 64, 90
1, 166416, Control_c, 0, 64, 108
1, 166420, Note_off_c, 0, 44, 64
1, 166431, Control_c, 0, 64, 127
1, 166553, Note_on_c, 0, 75, 86
1, 166568, Note_on_c, 0, 66, 71
1, 166592, Note_off_c, 0, 66, 67
1, 166597, Note_off_c, 0, 75, 64
1, 166648, Note_on_c, 0, 75, 83
1, 166654, Note_on_c, 0, 66, 82
1, 166671, Note_on_c, 0, 60, 63
1, 166677, Note_on_c, 0, 54, 59
1, 166677, Note_on_c, 0, 56, 57
1, 166725, Note_off_c, 0, 66, 61
1, 166811, Note_on_c, 0, 78, 81
1, 166816, Note_on_c, 0, 70, 84
1, 166817, Note_off_c, 0, 60, 50
1, 166826, Note_off_c, 0, 75, 54
1, 166872, Note_off_c, 0, 78, 63
1, 166882, Note_off_c, 0, 70, 62
1, 166883, Note_off_c, 0, 56, 32
1, 166884, Note_off_c, 0, 54, 33
1, 166929, Note_on_c, 0, 77, 86
1, 166931, Note_on_c, 0, 68, 85
1, 166957, Note_on_c, 0, 54, 64
1, 166958, Note_on_c, 0, 60, 48
1, 166961, Note_on_c, 0, 56, 46
1, 166974, Note_off_c, 0, 77, 64
1, 166982, Note_off_c, 0, 68, 64
1, 166984, Note_off_c, 0, 60, 49
1, 166992, Note_off_c, 0, 56, 66
1, 166998, Note_off_c, 0, 54, 62
1, 167038, Note_on_c, 0, 75, 88
1, 167044, Note_on_c, 0, 66, 89
1, 167081, Control_c, 0, 64, 85
1, 167098, Note_off_c, 0, 66, 61
1, 167100, Note_off_c, 0, 75, 64
1, 167104, Control_c, 0, 64, 57
1, 167119, Control_c, 0, 64, 0
1, 167159, Note_on_c, 0, 75, 82
1, 167167, Note_on_c, 0, 66, 80
1, 167179, Note_on_c, 0, 37, 75
1, 167179, Control_c, 0, 64, 32
1, 167194, Control_c, 0, 64, 68
1, 167202, Note_off_c, 0, 37, 67
1, 167209, Control_c, 0, 64, 94
1, 167223, Control_c, 0, 64, 127
1, 167431, Control_c, 0, 64, 80
1, 167446, Control_c, 0, 64, 49
1, 167453, Note_on_c, 0, 61, 66
1, 167456, Note_on_c, 0, 56, 66
1, 167456, Note_on_c, 0, 53, 62
1, 167461, Control_c, 0, 64, 0
1, 167486, Note_off_c, 0, 61, 63
1, 167495, Note_off_c, 0, 53, 61
1, 167496, Note_off_c, 0, 56, 62
1, 167706, Note_off_c, 0, 66, 54
1, 167725, Note_on_c, 0, 73, 73
1, 167729, Note_on_c, 0, 65, 67
1, 167740, Note_on_c, 0, 53, 60
1, 167741, Note_on_c, 0, 61, 60
1, 167745, Note_on_c, 0, 56, 61
1, 167765, Note_off_c, 0, 61, 65
1, 167781, Note_off_c, 0, 56, 65
1, 167790, Note_off_c, 0, 53, 64
1, 167883, Note_off_c, 0, 75, 31
1, 167972, Control_c, 0, 64, 50
1, 167975, Note_on_c, 0, 37, 65
1, 167987, Control_c, 0, 64, 73
1, 167997, Note_off_c, 0, 65, 60
1, 168002, Control_c, 0, 64, 82
1, 168005, Note_off_c, 0, 37, 64
1, 168011, Note_off_c, 0, 73, 58
1, 168017, Control_c, 0, 64, 101
1, 168032, Control_c, 0, 64, 127
1, 168229, Note_on_c, 0, 73, 81
1, 168239, Control_c, 0, 64, 99
1, 168240, Note_on_c, 0, 64, 69
1, 168254, Control_c, 0, 64, 69
1, 168259, Note_on_c, 0, 52, 50
1, 168261, Note_on_c, 0, 61, 55
1, 168269, Control_c, 0, 64, 45
1, 168273, Note_on_c, 0, 57, 45
1, 168284, Control_c, 0, 64, 0
1, 168314, Control_c, 0, 64, 45
1, 168328, Control_c, 0, 64, 69
1, 168343, Control_c, 0, 64, 91
1, 168358, Control_c, 0, 64, 127
1, 168371, Note_off_c, 0, 64, 58
1, 168404, Note_off_c, 0, 52, 57
1, 168407, Note_off_c, 0, 73, 62
1, 168436, Note_off_c, 0, 61, 35
1, 168493, Note_off_c, 0, 57, 29
1, 168565, Note_on_c, 0, 52, 45
1, 168567, Note_on_c, 0, 61, 48
1, 168574, Note_on_c, 0, 57, 39
1, 168609, Note_off_c, 0, 61, 65
1, 168624, Note_off_c, 0, 57, 63
1, 168631, Note_off_c, 0, 52, 58
1, 168740, Note_on_c, 0, 73, 73
1, 168758, Note_on_c, 0, 64, 58
1, 168777, Note_off_c, 0, 73, 59
1, 168788, Note_off_c, 0, 64, 65
1, 168825, Control_c, 0, 64, 85
1, 168840, Control_c, 0, 64, 62
1, 168855, Control_c, 0, 64, 10
1, 168860, Note_on_c, 0, 73, 71
1, 168863, Note_on_c, 0, 64, 67
1, 168869, Control_c, 0, 64, 0
1, 168884, Note_on_c, 0, 42, 55
1, 168899, Control_c, 0, 64, 37
1, 168914, Control_c, 0, 64, 59
1, 168922, Note_off_c, 0, 42, 63
1, 168929, Control_c, 0, 64, 70
1, 168944, Control_c, 0, 64, 82
1, 168958, Control_c, 0, 64, 99
1, 168973, Control_c, 0, 64, 127
1, 169116, Note_off_c, 0, 64, 58
1, 169151, Control_c, 0, 67, 8
1, 169166, Control_c, 0, 64, 122
1, 169166, Control_c, 0, 67, 9
1, 169181, Control_c, 0, 64, 81
1, 169181, Control_c, 0, 67, 10
1, 169184, Note_on_c, 0, 54, 57
1, 169192, Note_on_c, 0, 57, 53
1, 169195, Control_c, 0, 64, 61
1, 169195, Control_c, 0, 67, 11
1, 169197, Note_on_c, 0, 59, 51
1, 169210, Control_c, 0, 64, 14
1, 169210, Control_c, 0, 67, 12
1, 169225, Control_c, 0, 64, 0
1, 169233, Note_off_c, 0, 57, 63
1, 169233, Note_off_c, 0, 59, 65
1, 169238, Note_off_c, 0, 54, 61
1, 169240, Control_c, 0, 67, 12
1, 169269, Control_c, 0, 67, 13
1, 169366, Control_c, 0, 67, 13
1, 169440, Control_c, 0, 67, 14
1, 169455, Note_on_c, 0, 71, 58
1, 169464, Note_on_c, 0, 63, 49
1, 169469, Control_c, 0, 67, 14
1, 169473, Note_on_c, 0, 54, 46
1, 169473, Note_on_c, 0, 59, 38
1, 169484, Control_c, 0, 67, 15
1, 169485, Note_off_c, 0, 73, 60
1, 169486, Note_on_c, 0, 57, 25
1, 169501, Note_off_c, 0, 59, 57
1, 169510, Note_off_c, 0, 57, 51
1, 169521, Note_off_c, 0, 54, 63
1, 169530, Control_c, 0, 67, 15
1, 169559, Control_c, 0, 67, 16
1, 169574, Control_c, 0, 67, 16
1, 169589, Control_c, 0, 67, 17
1, 169678, Control_c, 0, 67, 16
1, 169692, Control_c, 0, 64, 44
1, 169692, Control_c, 0, 67, 15
1, 169695, Note_on_c, 0, 42, 57
1, 169707, Control_c, 0, 64, 63
1, 169707, Control_c, 0, 67, 14
1, 169722, Control_c, 0, 64, 68
1, 169722, Control_c, 0, 67, 12
1, 169728, Note_off_c, 0, 42, 64
1, 169736, Control_c, 0, 64, 72
1, 169736, Control_c, 0, 67, 12
1, 169742, Note_off_c, 0, 71, 62
1, 169751, Control_c, 0, 64, 82
1, 169751, Control_c, 0, 67, 11
1, 169766, Control_c, 0, 64, 101
1, 169766, Control_c, 0, 67, 10
1, 169781, Control_c, 0, 64, 127
1, 169781, Control_c, 0, 67, 10
1, 169796, Control_c, 0, 67, 9
1, 169817, Note_off_c, 0, 63, 28
1, 169826, Control_c, 0, 67, 9
1, 169856, Control_c, 0, 67, 8
1, 169900, Control_c, 0, 67, 8
1, 169930, Note_on_c, 0, 71, 68
1, 169933, Note_on_c, 0, 63, 62
1, 169954, Note_on_c, 0, 54, 45
1, 169964, Note_on_c, 0, 59, 41
1, 169966, Note_on_c, 0, 57, 43
1, 169972, Note_off_c, 0, 63, 60
1, 169987, Note_off_c, 0, 71, 63
1, 170004, Note_off_c, 0, 54, 59
1, 170004, Note_off_c, 0, 59, 59
1, 170013, Note_off_c, 0, 57, 58
1, 170048, Control_c, 0, 67, 8
1, 170085, Control_c, 0, 67, 9
1, 170100, Control_c, 0, 67, 10
1, 170115, Control_c, 0, 67, 11
1, 170130, Control_c, 0, 67, 12
1, 170144, Control_c, 0, 67, 13
1, 170159, Control_c, 0, 67, 14
1, 170174, Control_c, 0, 67, 14
1, 170181, Note_on_c, 0, 54, 51
1, 170189, Control_c, 0, 67, 15
1, 170192, Note_on_c, 0, 59, 20
1, 170218, Control_c, 0, 67, 15
1, 170221, Note_off_c, 0, 54, 62
1, 170228, Note_off_c, 0, 59, 38
1, 170233, Control_c, 0, 67, 16
1, 170248, Control_c, 0, 67, 16
1, 170262, Control_c, 0, 67, 17
1, 170292, Control_c, 0, 67, 17
1, 170296, Note_on_c, 0, 73, 62
1, 170307, Note_on_c, 0, 63, 52
1, 170307, Control_c, 0, 67, 18
1, 170323, Control_c, 0, 67, 18
1, 170327, Note_off_c, 0, 73, 62
1, 170338, Control_c, 0, 64, 111
1, 170345, Note_off_c, 0, 63, 61
1, 170353, Control_c, 0, 64, 78
1, 170353, Control_c, 0, 67, 19
1, 170367, Control_c, 0, 64, 51
1, 170367, Control_c, 0, 67, 19
1, 170382, Control_c, 0, 64, 0
1, 170382, Control_c, 0, 67, 20
1, 170407, Note_on_c, 0, 73, 67
1, 170422, Note_on_c, 0, 40, 54
1, 170426, Note_on_c, 0, 64, 54
1, 170427, Control_c, 0, 64, 26
1, 170441, Control_c, 0, 64, 53
1, 170456, Control_c, 0, 64, 66
1, 170466, Note_off_c, 0, 40, 63
1, 170471, Control_c, 0, 64, 74
1, 170485, Control_c, 0, 64, 83
1, 170485, Control_c, 0, 67, 20
1, 170500, Control_c, 0, 64, 93
1, 170515, Control_c, 0, 64, 100
1, 170530, Control_c, 0, 64, 106
1, 170545, Control_c, 0, 64, 108
1, 170559, Control_c, 0, 64, 109
1, 170589, Control_c, 0, 67, 21
1, 170604, Control_c, 0, 67, 21
1, 170619, Control_c, 0, 64, 108
1, 170619, Control_c, 0, 67, 22
1, 170634, Control_c, 0, 64, 103
1, 170649, Control_c, 0, 64, 87
1, 170649, Control_c, 0, 67, 23
1, 170663, Control_c, 0, 64, 67
1, 170678, Control_c, 0, 64, 28
1, 170679, Note_on_c, 0, 56, 49
1, 170684, Note_on_c, 0, 52, 48
1, 170693, Control_c, 0, 64, 0
1, 170708, Control_c, 0, 67, 23
1, 170713, Note_off_c, 0, 56, 64
1, 170714, Note_off_c, 0, 64, 58
1, 170726, Note_off_c, 0, 52, 61
1, 170738, Control_c, 0, 67, 24
1, 170767, Control_c, 0, 67, 24
1, 170797, Control_c, 0, 67, 24
1, 170893, Control_c, 0, 67, 24
1, 170938, Control_c, 0, 67, 24
1, 170958, Note_on_c, 0, 71, 53
1, 170968, Note_on_c, 0, 62, 43
1, 170976, Note_on_c, 0, 56, 36
1, 170987, Note_on_c, 0, 52, 34
1, 170998, Note_off_c, 0, 56, 51
1, 171009, Note_off_c, 0, 52, 48
1, 171017, Note_off_c, 0, 73, 35
1, 171056, Control_c, 0, 67, 23
1, 171085, Control_c, 0, 67, 23
1, 171176, Control_c, 0, 67, 22
1, 171190, Control_c, 0, 67, 21
1, 171205, Control_c, 0, 67, 21
1, 171220, Control_c, 0, 67, 20
1, 171235, Control_c, 0, 64, 28
1, 171235, Control_c, 0, 67, 19
1, 171248, Note_on_c, 0, 40, 47
1, 171250, Control_c, 0, 64, 59
1, 171250, Control_c, 0, 67, 17
1, 171253, Note_off_c, 0, 71, 53
1, 171264, Control_c, 0, 64, 68
1, 171264, Control_c, 0, 67, 16
1, 171279, Control_c, 0, 64, 75
1, 171279, Control_c, 0, 67, 14
1, 171291, Note_off_c, 0, 40, 63
1, 171294, Control_c, 0, 64, 96
1, 171294, Control_c, 0, 67, 12
1, 171308, Control_c, 0, 64, 127
1, 171308, Control_c, 0, 67, 11
1, 171323, Note_off_c, 0, 62, 33
1, 171323, Control_c, 0, 67, 10
1, 171453, Note_on_c, 0, 62, 50
1, 171453, Note_on_c, 0, 71, 59
1, 171456, Control_c, 0, 67, 10
1, 171483, Note_off_c, 0, 71, 65
1, 171486, Control_c, 0, 67, 9
1, 171495, Note_off_c, 0, 62, 59
1, 171501, Control_c, 0, 67, 8
1, 171516, Control_c, 0, 67, 0
1, 171570, Note_on_c, 0, 71, 60
1, 171579, Note_on_c, 0, 62, 50
1, 171624, Note_off_c, 0, 62, 58
1, 171626, Note_on_c, 0, 52, 44
1, 171632, Note_on_c, 0, 56, 38
1, 171671, Note_off_c, 0, 56, 55
1, 171677, Note_off_c, 0, 52, 56
1, 171689, Note_off_c, 0, 71, 51
1, 171741, Note_on_c, 0, 74, 57
1, 171772, Note_on_c, 0, 66, 38
1, 171793, Note_off_c, 0, 74, 61
1, 171796, Note_off_c, 0, 66, 52
1, 171867, Note_on_c, 0, 73, 59
1, 171880, Note_on_c, 0, 64, 54
1, 171899, Note_on_c, 0, 52, 49
1, 171902, Note_off_c, 0, 64, 64
1, 171905, Note_off_c, 0, 73, 55
1, 171941, Note_off_c, 0, 52, 60
1, 171981, Note_on_c, 0, 71, 61
1, 171995, Note_on_c, 0, 62, 54
1, 172013, Control_c, 0, 64, 87
1, 172017, Note_off_c, 0, 62, 62
1, 172028, Control_c, 0, 64, 64
1, 172029, Note_off_c, 0, 71, 57
1, 172043, Control_c, 0, 64, 18
1, 172057, Control_c, 0, 64, 0
1, 172112, Note_on_c, 0, 69, 64
1, 172121, Note_on_c, 0, 45, 50
1, 172127, Note_on_c, 0, 61, 53
1, 172146, Control_c, 0, 64, 27
1, 172161, Control_c, 0, 64, 62
1, 172162, Note_off_c, 0, 45, 62
1, 172176, Control_c, 0, 64, 72
1, 172189, Note_off_c, 0, 61, 58
1, 172191, Control_c, 0, 64, 80
1, 172205, Control_c, 0, 64, 98
1, 172208, Note_off_c, 0, 69, 61
1, 172220, Control_c, 0, 64, 127
1, 172485, Note_on_c, 0, 61, 60
1, 172486, Note_on_c, 0, 52, 43
1, 172492, Note_on_c, 0, 57, 55
1, 172562, Note_off_c, 0, 52, 58
1, 172639, Note_off_c, 0, 57, 49
1, 172655, Note_off_c, 0, 61, 52
1, 172760, Note_on_c, 0, 81, 86
1, 172767, Note_on_c, 0, 73, 76
1, 172783, Note_on_c, 0, 64, 66
1, 172789, Note_on_c, 0, 57, 66
1, 172800, Note_on_c, 0, 61, 58
1, 172812, Note_off_c, 0, 64, 66
1, 172831, Note_off_c, 0, 61, 66
1, 172863, Note_off_c, 0, 57, 60
1, 172969, Control_c, 0, 64, 96
1, 172984, Control_c, 0, 64, 67
1, 172999, Control_c, 0, 64, 41
1, 173010, Note_on_c, 0, 45, 85
1, 173014, Control_c, 0, 64, 28
1, 173028, Control_c, 0, 64, 49
1, 173043, Control_c, 0, 64, 70
1, 173058, Control_c, 0, 64, 99
1, 173071, Note_off_c, 0, 45, 62
1, 173073, Control_c, 0, 64, 127
1, 173135, Note_off_c, 0, 81, 48
1, 173161, Note_off_c, 0, 73, 54
1, 173340, Note_on_c, 0, 81, 94
1, 173348, Note_on_c, 0, 72, 82
1, 173360, Note_on_c, 0, 60, 66
1, 173361, Note_on_c, 0, 57, 63
1, 173361, Control_c, 0, 64, 111
1, 173362, Note_on_c, 0, 65, 65
1, 173376, Control_c, 0, 64, 83
1, 173391, Control_c, 0, 64, 80
1, 173406, Control_c, 0, 64, 85
1, 173421, Control_c, 0, 64, 127
1, 173443, Note_off_c, 0, 72, 53
1, 173492, Note_off_c, 0, 81, 60
1, 173519, Note_off_c, 0, 65, 52
1, 173561, Note_off_c, 0, 57, 32
1, 173594, Note_off_c, 0, 60, 34
1, 173662, Note_on_c, 0, 65, 62
1, 173673, Note_on_c, 0, 57, 65
1, 173674, Note_on_c, 0, 60, 65
1, 173702, Note_off_c, 0, 65, 55
1, 173747, Note_off_c, 0, 60, 62
1, 173752, Note_on_c, 0, 81, 94
1, 173759, Note_off_c, 0, 57, 61
1, 173762, Note_on_c, 0, 72, 86
1, 173882, Note_off_c, 0, 72, 59
1, 173898, Note_off_c, 0, 81, 59
1, 173992, Control_c, 0, 64, 66
1, 174002, Note_on_c, 0, 81, 94
1, 174007, Control_c, 0, 64, 0
1, 174011, Note_on_c, 0, 72, 84
1, 174025, Note_on_c, 0, 46, 80
1, 174063, Note_off_c, 0, 46, 65
1, 174066, Control_c, 0, 64, 30
1, 174081, Control_c, 0, 64, 66
1, 174096, Control_c, 0, 64, 83
1, 174110, Control_c, 0, 64, 127
1, 174261, Note_off_c, 0, 72, 50
1, 174282, Note_off_c, 0, 81, 55
1, 174359, Note_on_c, 0, 62, 67
1, 174359, Note_on_c, 0, 65, 67
1, 174360, Note_on_c, 0, 55, 59
1, 174402, Note_off_c, 0, 55, 61
1, 174420, Note_off_c, 0, 65, 61
1, 174441, Note_off_c, 0, 62, 55
1, 174640, Note_on_c, 0, 79, 81
1, 174651, Note_on_c, 0, 70, 77
1, 174655, Note_on_c, 0, 65, 61
1, 174658, Note_on_c, 0, 55, 66
1, 174660, Note_on_c, 0, 62, 65
1, 174667, Control_c, 0, 64, 95
1, 174674, Note_off_c, 0, 65, 64
1, 174682, Control_c, 0, 64, 62
1, 174685, Note_off_c, 0, 62, 68
1, 174697, Control_c, 0, 64, 0
1, 174715, Note_off_c, 0, 55, 62
1, 174746, Note_off_c, 0, 70, 62
1, 174869, Note_on_c, 0, 48, 82
1, 174879, Note_off_c, 0, 79, 63
1, 174890, Control_c, 0, 64, 41
1, 174905, Control_c, 0, 64, 85
1, 174919, Control_c, 0, 64, 101
1, 174927, Note_off_c, 0, 48, 61
1, 174933, Control_c, 0, 64, 127
1, 175036, Note_on_c, 0, 86, 86
1, 175038, Note_on_c, 0, 77, 84
1, 175085, Note_off_c, 0, 77, 64
1, 175092, Note_off_c, 0, 86, 61
1, 175208, Note_on_c, 0, 84, 78
1, 175213, Note_on_c, 0, 76, 84
1, 175215, Note_on_c, 0, 58, 63
1, 175215, Note_on_c, 0, 64, 62
1, 175221, Note_on_c, 0, 55, 57
1, 175255, Note_off_c, 0, 76, 61
1, 175256, Note_off_c, 0, 84, 63
1, 175264, Note_off_c, 0, 55, 57
1, 175293, Note_off_c, 0, 58, 53
1, 175312, Note_on_c, 0, 82, 84
1, 175317, Note_off_c, 0, 64, 34
1, 175323, Note_on_c, 0, 74, 82
1, 175364, Note_off_c, 0, 74, 63
1, 175376, Note_off_c, 0, 82, 63
1, 175422, Note_on_c, 0, 81, 88
1, 175425, Note_on_c, 0, 72, 84
1, 175445, Note_on_c, 0, 58, 68
1, 175453, Note_on_c, 0, 55, 62
1, 175454, Note_on_c, 0, 64, 34
1, 175454, Note_off_c, 0, 72, 64
1, 175458, Note_off_c, 0, 81, 65
1, 175476, Note_off_c, 0, 58, 64
1, 175482, Note_off_c, 0, 64, 52
1, 175486, Note_off_c, 0, 55, 65
1, 175639, Note_on_c, 0, 79, 84
1, 175639, Note_on_c, 0, 70, 83
1, 175659, Note_off_c, 0, 79, 67
1, 175668, Control_c, 0, 64, 114
1, 175669, Note_off_c, 0, 70, 59
1, 175682, Control_c, 0, 64, 68
1, 175697, Control_c, 0, 64, 14
1, 175712, Control_c, 0, 64, 0
1, 175727, Note_on_c, 0, 79, 90
1, 175732, Note_on_c, 0, 41, 72
1, 175734, Note_on_c, 0, 70, 88
1, 175756, Control_c, 0, 64, 46
1, 175767, Note_off_c, 0, 41, 67
1, 175771, Control_c, 0, 64, 76
1, 175786, Control_c, 0, 64, 127
1, 176023, Note_on_c, 0, 60, 67
1, 176023, Note_on_c, 0, 65, 67
1, 176023, Control_c, 0, 64, 73
1, 176029, Note_on_c, 0, 57, 67
1, 176038, Control_c, 0, 64, 32
1, 176050, Note_off_c, 0, 65, 66
1, 176053, Control_c, 0, 64, 0
1, 176060, Note_off_c, 0, 57, 63
1, 176062, Note_off_c, 0, 60, 64
1, 176292, Note_off_c, 0, 70, 56
1, 176303, Note_on_c, 0, 77, 68
1, 176315, Note_on_c, 0, 69, 71
1, 176317, Note_on_c, 0, 57, 62
1, 176320, Note_on_c, 0, 60, 55
1, 176321, Note_on_c, 0, 65, 59
1, 176335, Note_off_c, 0, 79, 59
1, 176345, Note_off_c, 0, 65, 65
1, 176361, Note_off_c, 0, 60, 64
1, 176379, Note_off_c, 0, 57, 61
1, 176535, Control_c, 0, 64, 44
1, 176543, Note_on_c, 0, 41, 72
1, 176547, Note_off_c, 0, 69, 62
1, 176549, Control_c, 0, 64, 72
1, 176564, Control_c, 0, 64, 80
1, 176568, Note_off_c, 0, 41, 67
1, 176569, Note_off_c, 0, 77, 60
1, 176579, Control_c, 0, 64, 102
1, 176594, Control_c, 0, 64, 127
1, 176813, Note_on_c, 0, 77, 71
1, 176817, Note_on_c, 0, 68, 64
1, 176817, Control_c, 0, 64, 84
1, 176840, Control_c, 0, 64, 63
1, 176854, Control_c, 0, 64, 42
1, 176856, Note_on_c, 0, 61, 40
1, 176863, Note_on_c, 0, 56, 38
1, 176869, Control_c, 0, 64, 37
1, 176878, Note_on_c, 0, 53, 31
1, 176884, Control_c, 0, 64, 49
1, 176894, Note_off_c, 0, 68, 63
1, 176897, Note_off_c, 0, 77, 61
1, 176899, Control_c, 0, 64, 66
1, 176914, Control_c, 0, 64, 83
1, 176928, Control_c, 0, 64, 124
1, 176933, Note_off_c, 0, 53, 43
1, 176943, Control_c, 0, 64, 127
1, 176997, Note_off_c, 0, 56, 53
1, 177013, Note_off_c, 0, 61, 33
1, 177133, Note_on_c, 0, 56, 42
1, 177134, Note_on_c, 0, 61, 38
1, 177141, Note_on_c, 0, 53, 40
1, 177164, Note_off_c, 0, 61, 56
1, 177179, Note_off_c, 0, 56, 61
1, 177184, Note_off_c, 0, 53, 62
1, 177254, Note_on_c, 0, 77, 71
1, 177265, Note_on_c, 0, 68, 61
1, 177287, Note_off_c, 0, 77, 57
1, 177293, Note_off_c, 0, 68, 65
1, 177329, Control_c, 0, 64, 81
1, 177329, Control_c, 0, 67, 8
1, 177344, Control_c, 0, 64, 58
1, 177344, Control_c, 0, 67, 9
1, 177359, Control_c, 0, 64, 9
1, 177368, Note_on_c, 0, 77, 68
1, 177373, Control_c, 0, 64, 0
1, 177375, Note_on_c, 0, 68, 64
1, 177388, Control_c, 0, 67, 8
1, 177391, Note_on_c, 0, 42, 54
1, 177403, Control_c, 0, 64, 46
1, 177403, Control_c, 0, 67, 0
1, 177418, Control_c, 0, 64, 63
1, 177427, Note_off_c, 0, 42, 62
1, 177433, Control_c, 0, 64, 73
1, 177447, Control_c, 0, 64, 86
1, 177462, Control_c, 0, 64, 127
1, 177589, Control_c, 0, 67, 8
1, 177591, Note_off_c, 0, 68, 57
1, 177594, Note_off_c, 0, 77, 34
1, 177603, Control_c, 0, 67, 9
1, 177618, Control_c, 0, 67, 10
1, 177692, Control_c, 0, 67, 10
1, 177704, Note_on_c, 0, 51, 36
1, 177707, Note_on_c, 0, 58, 46
1, 177707, Note_on_c, 0, 61, 44
1, 177707, Control_c, 0, 67, 11
1, 177722, Control_c, 0, 67, 12
1, 177735, Note_off_c, 0, 51, 54
1, 177743, Note_off_c, 0, 58, 61
1, 177746, Note_off_c, 0, 61, 64
1, 177767, Control_c, 0, 67, 12
1, 177797, Control_c, 0, 67, 13
1, 177811, Control_c, 0, 67, 13
1, 177826, Control_c, 0, 67, 14
1, 177841, Control_c, 0, 67, 14
1, 177856, Control_c, 0, 67, 15
1, 177871, Control_c, 0, 64, 107
1, 177885, Control_c, 0, 64, 76
1, 177900, Control_c, 0, 64, 54
1, 177915, Control_c, 0, 64, 0
1, 177923, Note_on_c, 0, 75, 62
1, 177930, Control_c, 0, 67, 15
1, 177933, Note_on_c, 0, 51, 42
1, 177945, Control_c, 0, 67, 16
1, 177948, Note_on_c, 0, 66, 45
1, 177951, Note_on_c, 0, 61, 24
1, 177953, Note_on_c, 0, 58, 29
1, 177959, Control_c, 0, 67, 16
1, 177974, Control_c, 0, 67, 17
1, 177978, Note_off_c, 0, 51, 64
1, 177978, Note_off_c, 0, 58, 49
1, 177989, Control_c, 0, 67, 17
1, 177994, Note_off_c, 0, 61, 29
1, 178018, Control_c, 0, 67, 18
1, 178048, Control_c, 0, 67, 18
1, 178077, Control_c, 0, 67, 19
1, 178092, Control_c, 0, 67, 19
1, 178107, Control_c, 0, 67, 20
1, 178137, Control_c, 0, 64, 47
1, 178152, Control_c, 0, 64, 63
1, 178153, Note_off_c, 0, 66, 60
1, 178166, Note_on_c, 0, 44, 53
1, 178166, Control_c, 0, 64, 68
1, 178175, Note_off_c, 0, 75, 62
1, 178181, Control_c, 0, 64, 75
1, 178196, Control_c, 0, 64, 88
1, 178196, Control_c, 0, 67, 19
1, 178204, Note_off_c, 0, 44, 64
1, 178211, Control_c, 0, 64, 118
1, 178226, Control_c, 0, 64, 127
1, 178270, Control_c, 0, 67, 20
1, 178276, Note_on_c, 0, 75, 69
1, 178287, Note_on_c, 0, 66, 52
1, 178301, Control_c, 0, 67, 20
1, 178323, Control_c, 0, 67, 21
1, 178333, Note_off_c, 0, 66, 60
1, 178338, Control_c, 0, 67, 22
1, 178353, Control_c, 0, 67, 24
1, 178368, Control_c, 0, 67, 25
1, 178369, Note_off_c, 0, 75, 57
1, 178382, Control_c, 0, 67, 26
1, 178397, Control_c, 0, 64, 94
1, 178397, Control_c, 0, 67, 26
1, 178409, Note_on_c, 0, 76, 69
1, 178412, Control_c, 0, 64, 63
1, 178412, Control_c, 0, 67, 27
1, 178427, Control_c, 0, 64, 0
1, 178427, Control_c, 0, 67, 27
1, 178429, Note_on_c, 0, 67, 59
1, 178440, Note_on_c, 0, 60, 34
1, 178441, Note_on_c, 0, 54, 38
1, 178447, Note_on_c, 0, 56, 35
1, 178456, Note_off_c, 0, 67, 67
1, 178457, Control_c, 0, 67, 28
1, 178460, Note_off_c, 0, 76, 61
1, 178476, Note_off_c, 0, 54, 63
1, 178476, Note_off_c, 0, 60, 63
1, 178482, Note_off_c, 0, 56, 62
1, 178487, Control_c, 0, 67, 28
1, 178501, Control_c, 0, 67, 29
1, 178551, Note_on_c, 0, 77, 65
1, 178560, Note_on_c, 0, 68, 55
1, 178600, Note_off_c, 0, 68, 59
1, 178605, Control_c, 0, 67, 29
1, 178608, Note_off_c, 0, 77, 60
1, 178620, Control_c, 0, 67, 30
1, 178634, Control_c, 0, 67, 30
1, 178649, Control_c, 0, 67, 31
1, 178664, Control_c, 0, 67, 31
1, 178679, Control_c, 0, 67, 32
1, 178710, Note_on_c, 0, 78, 58
1, 178727, Note_on_c, 0, 69, 49
1, 178743, Note_on_c, 0, 54, 30
1, 178752, Note_on_c, 0, 60, 16
1, 178753, Control_c, 0, 64, 42
1, 178753, Control_c, 0, 67, 32
1, 178760, Note_on_c, 0, 56, 18
1, 178768, Control_c, 0, 64, 60
1, 178768, Control_c, 0, 67, 31
1, 178773, Note_off_c, 0, 60, 50
1, 178783, Control_c, 0, 64, 67
1, 178783, Control_c, 0, 67, 31
1, 178783, Note_off_c, 0, 54, 64
1, 178784, Note_off_c, 0, 56, 56
1, 178786, Note_off_c, 0, 69, 57
1, 178798, Control_c, 0, 64, 75
1, 178813, Control_c, 0, 64, 96
1, 178820, Note_off_c, 0, 78, 35
1, 178827, Control_c, 0, 64, 127
1, 178857, Control_c, 0, 67, 31
1, 178872, Control_c, 0, 67, 33
1, 178887, Control_c, 0, 67, 34
1, 178901, Control_c, 0, 67, 37
1, 178916, Control_c, 0, 67, 42
1, 178931, Control_c, 0, 67, 48
1, 178945, Control_c, 0, 67, 54
1, 178960, Control_c, 0, 67, 59
1, 178975, Control_c, 0, 67, 64
1, 178990, Control_c, 0, 67, 69
1, 179005, Control_c, 0, 67, 72
1, 179007, Note_on_c, 0, 77, 41
1, 179013, Note_on_c, 0, 68, 50
1, 179019, Control_c, 0, 67, 75
1, 179034, Control_c, 0, 67, 78
1, 179036, Note_off_c, 0, 77, 53
1, 179037, Note_off_c, 0, 68, 57
1, 179049, Control_c, 0, 67, 80
1, 179064, Control_c, 0, 67, 84
1, 179086, Control_c, 0, 67, 87
1, 179102, Control_c, 0, 64, 104
1, 179102, Control_c, 0, 67, 91
1, 179117, Control_c, 0, 64, 76
1, 179117, Control_c, 0, 67, 96
1, 179132, Control_c, 0, 64, 57
1, 179132, Control_c, 0, 67, 101
1, 179140, Note_on_c, 0, 75, 55
1, 179147, Control_c, 0, 64, 40
1, 179147, Control_c, 0, 67, 106
1, 179150, Note_on_c, 0, 66, 52
1, 179161, Note_on_c, 0, 37, 53
1, 179162, Control_c, 0, 64, 35
1, 179162, Control_c, 0, 67, 111
1, 179176, Control_c, 0, 64, 43
1, 179176, Control_c, 0, 67, 115
1, 179191, Control_c, 0, 64, 58
1, 179191, Control_c, 0, 67, 119
1, 179206, Control_c, 0, 64, 70
1, 179206, Control_c, 0, 67, 121
1, 179207, Note_off_c, 0, 37, 64
1, 179221, Control_c, 0, 64, 80
1, 179221, Control_c, 0, 67, 122
1, 179236, Control_c, 0, 64, 92
1, 179236, Control_c, 0, 67, 123
1, 179250, Control_c, 0, 64, 100
1, 179250, Control_c, 0, 67, 124
1, 179265, Control_c, 0, 64, 108
1, 179280, Control_c, 0, 64, 127
1, 179280, Control_c, 0, 67, 124
1, 179427, Control_c, 0, 64, 100
1, 179442, Control_c, 0, 64, 75
1, 179457, Control_c, 0, 64, 57
1, 179467, Note_on_c, 0, 61, 51
1, 179472, Control_c, 0, 64, 0
1, 179477, Note_on_c, 0, 56, 48
1, 179484, Note_on_c, 0, 53, 44
1, 179503, Note_off_c, 0, 61, 64
1, 179510, Note_off_c, 0, 56, 64
1, 179511, Note_off_c, 0, 53, 60
1, 179662, Note_off_c, 0, 66, 57
1, 179723, Control_c, 0, 67, 124
1, 179725, Note_on_c, 0, 73, 62
1, 179734, Note_on_c, 0, 65, 49
1, 179739, Note_on_c, 0, 53, 41
1, 179749, Note_on_c, 0, 61, 35
1, 179758, Note_on_c, 0, 56, 36
1, 179767, Note_off_c, 0, 75, 53
1, 179779, Note_off_c, 0, 61, 44
1, 179782, Note_off_c, 0, 53, 64
1, 179782, Control_c, 0, 67, 123
1, 179783, Note_off_c, 0, 56, 57
1, 179812, Control_c, 0, 67, 123
1, 179849, Control_c, 0, 67, 122
1, 179864, Control_c, 0, 67, 122
1, 179879, Control_c, 0, 67, 121
1, 179894, Control_c, 0, 67, 120
1, 179910, Control_c, 0, 67, 118
1, 179924, Control_c, 0, 67, 117
1, 179939, Control_c, 0, 67, 115
1, 179954, Control_c, 0, 64, 49
1, 179954, Control_c, 0, 67, 113
1, 179969, Control_c, 0, 64, 63
1, 179969, Control_c, 0, 67, 111
1, 179973, Note_on_c, 0, 37, 63
1, 179984, Control_c, 0, 64, 70
1, 179984, Control_c, 0, 67, 107
1, 179998, Control_c, 0, 64, 79
1, 179998, Control_c, 0, 67, 102
1, 180003, Note_off_c, 0, 37, 65
1, 180009, Note_off_c, 0, 65, 63
1, 180013, Control_c, 0, 64, 96
1, 180013, Control_c, 0, 67, 96
1, 180028, Control_c, 0, 64, 127
1, 180028, Control_c, 0, 67, 90
1, 180032, Note_off_c, 0, 73, 60
1, 180043, Control_c, 0, 67, 84
1, 180058, Control_c, 0, 67, 77
1, 180072, Control_c, 0, 67, 71
1, 180087, Control_c, 0, 67, 66
1, 180102, Control_c, 0, 67, 62
1, 180117, Control_c, 0, 67, 58
1, 180131, Control_c, 0, 67, 55
1, 180146, Control_c, 0, 67, 51
1, 180161, Control_c, 0, 67, 48
1, 180176, Control_c, 0, 67, 45
1, 180190, Control_c, 0, 67, 40
1, 180205, Control_c, 0, 67, 33
1, 180220, Control_c, 0, 67, 25
1, 180235, Control_c, 0, 67, 16
1, 180250, Control_c, 0, 64, 78
1, 180250, Control_c, 0, 67, 8
1, 180263, Note_on_c, 0, 73, 62
1, 180265, Control_c, 0, 64, 58
1, 180265, Control_c, 0, 67, 0
1, 180273, Note_on_c, 0, 64, 49
1, 180280, Control_c, 0, 64, 24
1, 180295, Note_on_c, 0, 61, 37
1, 180295, Control_c, 0, 64, 0
1, 180297, Note_on_c, 0, 52, 36
1, 180304, Note_on_c, 0, 57, 32
1, 180324, Control_c, 0, 64, 41
1, 180339, Control_c, 0, 64, 61
1, 180351, Note_off_c, 0, 64, 60
1, 180354, Control_c, 0, 64, 74
1, 180368, Note_off_c, 0, 73, 63
1, 180369, Control_c, 0, 64, 84
1, 180377, Note_off_c, 0, 52, 58
1, 180384, Control_c, 0, 64, 100
1, 180398, Control_c, 0, 64, 119
1, 180413, Control_c, 0, 64, 127
1, 180423, Note_off_c, 0, 61, 34
1, 180456, Note_off_c, 0, 57, 31
1, 180502, Control_c, 0, 67, 11
1, 180516, Control_c, 0, 67, 13
1, 180531, Control_c, 0, 67, 14
1, 180546, Control_c, 0, 67, 15
1, 180561, Control_c, 0, 67, 16
1, 180580, Note_on_c, 0, 61, 38
1, 180584, Control_c, 0, 67, 19
1, 180596, Note_on_c, 0, 52, 31
1, 180596, Note_on_c, 0, 57, 26
1, 180598, Control_c, 0, 67, 20
1, 180609, Note_off_c, 0, 61, 58
1, 180613, Control_c, 0, 67, 22
1, 180626, Note_off_c, 0, 57, 57
1, 180628, Control_c, 0, 67, 24
1, 180643, Control_c, 0, 67, 26
1, 180645, Note_off_c, 0, 52, 62
1, 180657, Control_c, 0, 67, 28
1, 180672, Control_c, 0, 67, 30
1, 180687, Control_c, 0, 67, 33
1, 180698, Note_on_c, 0, 73, 59
1, 180703, Control_c, 0, 67, 37
1, 180718, Note_on_c, 0, 64, 50
1, 180718, Control_c, 0, 67, 42
1, 180733, Control_c, 0, 67, 49
1, 180736, Note_off_c, 0, 73, 59
1, 180747, Control_c, 0, 67, 57
1, 180753, Note_off_c, 0, 64, 64
1, 180762, Control_c, 0, 67, 64
1, 180777, Control_c, 0, 64, 92
1, 180777, Control_c, 0, 67, 72
1, 180792, Control_c, 0, 64, 71
1, 180792, Control_c, 0, 67, 80
1, 180807, Control_c, 0, 64, 52
1, 180807, Control_c, 0, 67, 86
1, 180821, Control_c, 0, 64, 12
1, 180821, Control_c, 0, 67, 92
1, 180826, Note_on_c, 0, 73, 54
1, 180836, Control_c, 0, 64, 0
1, 180836, Control_c, 0, 67, 96
1, 180841, Note_on_c, 0, 64, 54
1, 180851, Control_c, 0, 64, 18
1, 180851, Control_c, 0, 67, 101
1, 180861, Note_on_c, 0, 42, 49
1, 180866, Control_c, 0, 64, 54
1, 180866, Control_c, 0, 67, 105
1, 180881, Control_c, 0, 64, 67
1, 180881, Control_c, 0, 67, 109
1, 180893, Note_off_c, 0, 42, 61
1, 180896, Control_c, 0, 64, 75
1, 180896, Control_c, 0, 67, 111
1, 180911, Control_c, 0, 64, 82
1, 180911, Control_c, 0, 67, 114
1, 180926, Control_c, 0, 64, 89
1, 180926, Control_c, 0, 67, 116
1, 180941, Control_c, 0, 64, 94
1, 180941, Control_c, 0, 67, 117
1, 180955, Control_c, 0, 64, 100
1, 180955, Control_c, 0, 67, 118
1, 180970, Control_c, 0, 64, 103
1, 180970, Control_c, 0, 67, 120
1, 180985, Control_c, 0, 64, 104
1, 180985, Control_c, 0, 67, 121
1, 181000, Control_c, 0, 67, 124
1, 181015, Control_c, 0, 67, 127
1, 181016, Note_off_c, 0, 64, 60
1, 181029, Control_c, 0, 67, 127
1, 181059, Control_c, 0, 64, 101
1, 181074, Control_c, 0, 64, 88
1, 181089, Control_c, 0, 64, 71
1, 181103, Control_c, 0, 64, 53
1, 181112, Note_on_c, 0, 54, 49
1, 181115, Note_on_c, 0, 59, 46
1, 181118, Control_c, 0, 64, 0
1, 181122, Note_on_c, 0, 57, 40
1, 181140, Note_off_c, 0, 59, 62
1, 181142, Note_off_c, 0, 54, 62
1, 181146, Note_off_c, 0, 57, 54
1, 181374, Note_on_c, 0, 71, 52
1, 181380, Note_on_c, 0, 63, 46
1, 181384, Note_off_c, 0, 73, 59
1, 181388, Note_on_c, 0, 54, 46
1, 181394, Note_on_c, 0, 59, 35
1, 181419, Note_off_c, 0, 59, 52
1, 181436, Control_c, 0, 64, 36
1, 181437, Note_off_c, 0, 54, 61
1, 181451, Control_c, 0, 64, 56
1, 181466, Control_c, 0, 64, 65
1, 181477, Note_off_c, 0, 63, 62
1, 181478, Note_off_c, 0, 71, 63
1, 181481, Control_c, 0, 64, 73
1, 181497, Control_c, 0, 64, 84
1, 181512, Control_c, 0, 64, 104
1, 181526, Control_c, 0, 64, 127
1, 181628, Note_on_c, 0, 42, 53
1, 181653, Note_off_c, 0, 42, 55
1, 181728, Note_on_c, 0, 81, 61
1, 181734, Note_on_c, 0, 73, 55
1, 181845, Note_on_c, 0, 78, 59
1, 181845, Note_off_c, 0, 81, 34
1, 181852, Note_on_c, 0, 69, 67
1, 181857, Note_on_c, 0, 59, 48
1, 181860, Note_on_c, 0, 54, 49
1, 181872, Note_off_c, 0, 78, 67
1, 181881, Note_off_c, 0, 69, 66
1, 181881, Note_off_c, 0, 73, 38
1, 181883, Note_on_c, 0, 57, 29
1, 181891, Note_off_c, 0, 54, 60
1, 181891, Note_off_c, 0, 59, 62
1, 181916, Note_off_c, 0, 57, 42
1, 181965, Note_on_c, 0, 75, 70
1, 181981, Note_on_c, 0, 66, 53
1, 182009, Note_off_c, 0, 66, 60
1, 182111, Control_c, 0, 64, 97
1, 182122, Note_on_c, 0, 71, 70
1, 182126, Control_c, 0, 64, 75
1, 182134, Note_on_c, 0, 63, 65
1, 182141, Note_off_c, 0, 75, 63
1, 182141, Control_c, 0, 64, 55
1, 182143, Note_on_c, 0, 59, 33
1, 182143, Note_on_c, 0, 54, 56
1, 182156, Control_c, 0, 64, 0
1, 182161, Note_off_c, 0, 63, 68
1, 182161, Note_off_c, 0, 71, 66
1, 182173, Note_off_c, 0, 59, 37
1, 182173, Note_off_c, 0, 54, 67
1, 182370, Note_on_c, 0, 73, 61
1, 182380, Note_on_c, 0, 63, 53
1, 182397, Note_off_c, 0, 73, 65
1, 182410, Note_off_c, 0, 63, 65
1, 182422, Control_c, 0, 64, 20
1, 182437, Control_c, 0, 64, 47
1, 182452, Control_c, 0, 64, 61
1, 182466, Control_c, 0, 64, 67
1, 182475, Note_on_c, 0, 73, 66
1, 182481, Control_c, 0, 64, 72
1, 182483, Note_on_c, 0, 64, 59
1, 182486, Note_on_c, 0, 40, 45
1, 182496, Control_c, 0, 64, 83
1, 182511, Control_c, 0, 64, 94
1, 182525, Control_c, 0, 64, 103
1, 182529, Note_off_c, 0, 40, 59
1, 182540, Control_c, 0, 64, 111
1, 182555, Control_c, 0, 64, 127
1, 182748, Control_c, 0, 64, 103
1, 182763, Control_c, 0, 64, 78
1, 182770, Note_on_c, 0, 52, 57
1, 182770, Note_on_c, 0, 56, 59
1, 182778, Control_c, 0, 64, 59
1, 182792, Control_c, 0, 64, 0
1, 182802, Note_off_c, 0, 56, 65
1, 182805, Note_off_c, 0, 52, 65
1, 182833, Note_off_c, 0, 64, 56
1, 183032, Note_on_c, 0, 71, 61
1, 183056, Note_on_c, 0, 62, 41
1, 183064, Note_on_c, 0, 52, 40
1, 183064, Note_off_c, 0, 73, 45
1, 183073, Note_on_c, 0, 56, 9
1, 183091, Note_off_c, 0, 52, 58
1, 183121, Note_off_c, 0, 56, 27
1, 183201, Control_c, 0, 64, 35
1, 183215, Control_c, 0, 64, 53
1, 183230, Control_c, 0, 64, 61
1, 183236, Note_off_c, 0, 62, 61
1, 183245, Control_c, 0, 64, 66
1, 183260, Control_c, 0, 64, 71
1, 183274, Control_c, 0, 64, 79
1, 183279, Note_off_c, 0, 71, 64
1, 183289, Control_c, 0, 64, 93
1, 183304, Control_c, 0, 64, 119
1, 183319, Control_c, 0, 64, 127
1, 183371, Note_on_c, 0, 40, 49
1, 183406, Note_off_c, 0, 40, 62
1, 183534, Note_on_c, 0, 86, 54
1, 183542, Note_on_c, 0, 78, 51
1, 183682, Note_off_c, 0, 86, 56
1, 183690, Note_on_c, 0, 83, 62
1, 183699, Note_on_c, 0, 74, 58
1, 183702, Note_off_c, 0, 78, 48
1, 183711, Note_on_c, 0, 52, 51
1, 183717, Note_off_c, 0, 83, 67
1, 183718, Note_on_c, 0, 56, 40
1, 183728, Note_off_c, 0, 74, 67
1, 183745, Note_off_c, 0, 56, 57
1, 183754, Note_off_c, 0, 52, 58
1, 183817, Note_on_c, 0, 80, 68
1, 183846, Note_on_c, 0, 71, 44
1, 183950, Note_on_c, 0, 76, 70
1, 183960, Note_off_c, 0, 71, 0
1, 183960, Note_on_c, 0, 71, 19
1, 183975, Note_on_c, 0, 68, 66
1, 183985, Note_off_c, 0, 80, 63
1, 183988, Note_on_c, 0, 56, 43
1, 183994, Note_on_c, 0, 52, 42
1, 183994, Note_off_c, 0, 71, 64
1, 184000, Note_off_c, 0, 76, 62
1, 184005, Note_off_c, 0, 68, 64
1, 184015, Note_off_c, 0, 56, 58
1, 184026, Note_off_c, 0, 52, 61
1, 184084, Control_c, 0, 67, 127
1, 184098, Control_c, 0, 67, 126
1, 184123, Note_on_c, 0, 74, 72
1, 184128, Control_c, 0, 67, 125
1, 184143, Control_c, 0, 67, 124
1, 184143, Note_on_c, 0, 66, 52
1, 184158, Control_c, 0, 67, 123
1, 184172, Control_c, 0, 67, 122
1, 184179, Note_off_c, 0, 66, 63
1, 184179, Note_off_c, 0, 74, 59
1, 184187, Control_c, 0, 67, 120
1, 184202, Control_c, 0, 67, 118
1, 184216, Control_c, 0, 67, 115
1, 184231, Control_c, 0, 67, 113
1, 184246, Control_c, 0, 67, 111
1, 184261, Control_c, 0, 67, 109
1, 184276, Control_c, 0, 67, 106
1, 184290, Control_c, 0, 67, 103
1, 184305, Control_c, 0, 67, 100
1, 184328, Control_c, 0, 67, 96
1, 184343, Control_c, 0, 67, 93
1, 184358, Control_c, 0, 67, 89
1, 184372, Control_c, 0, 67, 84
1, 184385, Note_on_c, 0, 71, 64
1, 184387, Control_c, 0, 67, 77
1, 184402, Control_c, 0, 67, 69
1, 184412, Note_on_c, 0, 62, 40
1, 184416, Control_c, 0, 67, 61
1, 184431, Control_c, 0, 67, 52
1, 184446, Control_c, 0, 67, 44
1, 184461, Control_c, 0, 67, 33
1, 184476, Control_c, 0, 67, 21
1, 184490, Control_c, 0, 67, 9
1, 184505, Control_c, 0, 67, 0
1, 184579, Control_c, 0, 67, 8
1, 184594, Control_c, 0, 67, 8
1, 184609, Control_c, 0, 64, 104
1, 184609, Control_c, 0, 67, 10
1, 184623, Control_c, 0, 64, 81
1, 184623, Control_c, 0, 67, 11
1, 184638, Control_c, 0, 64, 68
1, 184638, Control_c, 0, 67, 12
1, 184653, Control_c, 0, 64, 56
1, 184653, Control_c, 0, 67, 13
1, 184668, Control_c, 0, 64, 39
1, 184668, Control_c, 0, 67, 14
1, 184683, Control_c, 0, 64, 15
1, 184683, Control_c, 0, 67, 15
1, 184699, Control_c, 0, 64, 0
1, 184699, Control_c, 0, 67, 16
1, 184713, Control_c, 0, 67, 16
1, 184743, Control_c, 0, 67, 17
1, 184758, Control_c, 0, 67, 18
1, 184773, Control_c, 0, 67, 19
1, 184787, Control_c, 0, 67, 20
1, 184802, Control_c, 0, 67, 21
1, 184832, Control_c, 0, 67, 21
1, 184862, Control_c, 0, 67, 22
1, 184876, Control_c, 0, 67, 22
1, 184891, Control_c, 0, 64, 19
1, 184891, Control_c, 0, 67, 23
1, 184906, Control_c, 0, 64, 49
1, 184906, Control_c, 0, 67, 24
1, 184921, Control_c, 0, 64, 62
1, 184921, Control_c, 0, 67, 26
1, 184936, Control_c, 0, 64, 66
1, 184936, Control_c, 0, 67, 27
1, 184951, Control_c, 0, 64, 69
1, 184951, Control_c, 0, 67, 29
1, 184966, Control_c, 0, 64, 75
1, 184966, Control_c, 0, 67, 31
1, 184981, Control_c, 0, 64, 84
1, 184981, Control_c, 0, 67, 33
1, 184995, Control_c, 0, 64, 94
1, 184995, Control_c, 0, 67, 35
1, 185010, Control_c, 0, 64, 101
1, 185010, Control_c, 0, 67, 37
1, 185025, Control_c, 0, 64, 106
1, 185025, Control_c, 0, 67, 39
1, 185039, Control_c, 0, 64, 109
1, 185039, Control_c, 0, 67, 41
1, 185054, Control_c, 0, 64, 110
1, 185054, Control_c, 0, 67, 43
1, 185076, Control_c, 0, 67, 45
1, 185087, Note_off_c, 0, 62, 34
1, 185091, Control_c, 0, 64, 109
1, 185091, Control_c, 0, 67, 47
1, 185106, Control_c, 0, 67, 50
1, 185121, Control_c, 0, 64, 106
1, 185121, Control_c, 0, 67, 52
1, 185136, Control_c, 0, 64, 91
1, 185136, Control_c, 0, 67, 55
1, 185151, Control_c, 0, 64, 76
1, 185151, Control_c, 0, 67, 57
1, 185154, Note_on_c, 0, 74, 56
1, 185166, Control_c, 0, 64, 62
1, 185166, Control_c, 0, 67, 59
1, 185167, Note_on_c, 0, 66, 41
1, 185180, Control_c, 0, 64, 38
1, 185180, Control_c, 0, 67, 62
1, 185195, Control_c, 0, 64, 0
1, 185195, Control_c, 0, 67, 65
1, 185207, Note_off_c, 0, 71, 57
1, 185210, Control_c, 0, 67, 69
1, 185225, Control_c, 0, 67, 72
1, 185239, Control_c, 0, 67, 75
1, 185254, Control_c, 0, 67, 78
1, 185269, Control_c, 0, 67, 81
1, 185284, Control_c, 0, 67, 84
1, 185299, Control_c, 0, 67, 87
1, 185313, Control_c, 0, 64, 23
1, 185313, Control_c, 0, 67, 91
1, 185328, Control_c, 0, 64, 51
1, 185328, Control_c, 0, 67, 93
1, 185343, Control_c, 0, 64, 63
1, 185343, Control_c, 0, 67, 96
1, 185358, Control_c, 0, 64, 67
1, 185358, Control_c, 0, 67, 98
1, 185373, Control_c, 0, 64, 71
1, 185373, Control_c, 0, 67, 99
1, 185387, Control_c, 0, 64, 78
1, 185387, Control_c, 0, 67, 101
1, 185401, Control_c, 0, 64, 87
1, 185401, Control_c, 0, 67, 102
1, 185416, Control_c, 0, 64, 96
1, 185416, Control_c, 0, 67, 103
1, 185431, Control_c, 0, 64, 105
1, 185431, Control_c, 0, 67, 105
1, 185446, Control_c, 0, 64, 121
1, 185446, Control_c, 0, 67, 106
1, 185461, Control_c, 0, 64, 127
1, 185461, Control_c, 0, 67, 108
1, 185470, Note_off_c, 0, 74, 59
1, 185476, Control_c, 0, 67, 109
1, 185491, Control_c, 0, 67, 112
1, 185506, Control_c, 0, 67, 114
1, 185521, Control_c, 0, 67, 116
1, 185535, Control_c, 0, 67, 119
1, 185550, Control_c, 0, 67, 121
1, 185565, Control_c, 0, 67, 124
1, 185580, Control_c, 0, 67, 126
1, 185595, Control_c, 0, 67, 127
1, 185668, Note_off_c, 0, 66, 42
1, 185943, Control_c, 0, 64, 115
1, 185958, Control_c, 0, 64, 89
1, 185973, Control_c, 0, 64, 73
1, 185988, Control_c, 0, 64, 58
1, 186002, Control_c, 0, 64, 41
1, 186009, Note_on_c, 0, 73, 40
1, 186017, Control_c, 0, 64, 35
1, 186020, Note_on_c, 0, 64, 35
1, 186032, Control_c, 0, 64, 38
1, 186047, Control_c, 0, 64, 50
1, 186061, Control_c, 0, 64, 60
1, 186076, Control_c, 0, 64, 68
1, 186091, Control_c, 0, 64, 76
1, 186106, Control_c, 0, 64, 86
1, 186121, Control_c, 0, 64, 95
1, 186126, Note_off_c, 0, 64, 34
1, 186135, Control_c, 0, 64, 101
1, 186146, Note_off_c, 0, 73, 0
1, 186150, Control_c, 0, 64, 111
1, 186165, Control_c, 0, 64, 127
1, 186187, Poly_aftertouch_c, 0, 73, 0
1, 186373, Control_c, 0, 64, 111
1, 186388, Control_c, 0, 64, 92
1, 186403, Control_c, 0, 64, 76
1, 186415, Note_on_c, 0, 71, 41
1, 186418, Control_c, 0, 64, 62
1, 186432, Control_c, 0, 64, 49
1, 186438, Note_on_c, 0, 62, 23
1, 186447, Control_c, 0, 64, 41
1, 186462, Control_c, 0, 64, 42
1, 186477, Control_c, 0, 64, 50
1, 186492, Control_c, 0, 64, 59
1, 186507, Control_c, 0, 64, 66
1, 186511, Note_off_c, 0, 62, 55
1, 186522, Control_c, 0, 64, 73
1, 186525, Note_off_c, 0, 71, 56
1, 186537, Control_c, 0, 64, 79
1, 186552, Control_c, 0, 64, 87
1, 186573, Control_c, 0, 64, 91
1, 186588, Control_c, 0, 64, 95
1, 186603, Control_c, 0, 64, 99
1, 186617, Control_c, 0, 64, 103
1, 186632, Control_c, 0, 64, 104
1, 186647, Control_c, 0, 64, 105
1, 186707, Control_c, 0, 64, 104
1, 186722, Control_c, 0, 64, 97
1, 186737, Control_c, 0, 64, 85
1, 186751, Control_c, 0, 64, 72
1, 186766, Control_c, 0, 64, 57
1, 186781, Control_c, 0, 64, 42
1, 186796, Control_c, 0, 64, 27
1, 186810, Control_c, 0, 64, 0
1, 187827, Note_on_c, 0, 72, 42
1, 187845, Note_on_c, 0, 63, 33
1, 187887, Control_c, 0, 64, 16
1, 187902, Control_c, 0, 64, 30
1, 187917, Control_c, 0, 64, 42
1, 187931, Control_c, 0, 64, 50
1, 187946, Control_c, 0, 64, 55
1, 187961, Control_c, 0, 64, 57
1, 187976, Control_c, 0, 64, 60
1, 187990, Control_c, 0, 64, 62
1, 188005, Control_c, 0, 64, 65
1, 188020, Control_c, 0, 64, 67
1, 188035, Control_c, 0, 64, 70
1, 188050, Control_c, 0, 64, 74
1, 188072, Control_c, 0, 64, 79
1, 188087, Control_c, 0, 64, 85
1, 188102, Control_c, 0, 64, 89
1, 188117, Control_c, 0, 64, 94
1, 188132, Control_c, 0, 64, 98
1, 188146, Control_c, 0, 64, 102
1, 188161, Control_c, 0, 64, 107
1, 188176, Control_c, 0, 64, 114
1, 188190, Control_c, 0, 64, 127
1, 188605, Control_c, 0, 64, 122
1, 188620, Control_c, 0, 64, 107
1, 188635, Control_c, 0, 64, 93
1, 188642, Note_on_c, 0, 75, 48
1, 188650, Control_c, 0, 64, 78
1, 188664, Control_c, 0, 64, 64
1, 188680, Control_c, 0, 64, 50
1, 188695, Note_on_c, 0, 66, 31
1, 188695, Control_c, 0, 64, 34
1, 188710, Control_c, 0, 64, 21
1, 188725, Control_c, 0, 64, 0
1, 188727, Note_off_c, 0, 72, 35
1, 188740, Note_off_c, 0, 63, 40
1, 188820, Control_c, 0, 64, 31
1, 188835, Control_c, 0, 64, 49
1, 188850, Control_c, 0, 64, 59
1, 188865, Control_c, 0, 64, 63
1, 188880, Control_c, 0, 64, 65
1, 188895, Control_c, 0, 64, 67
1, 188910, Control_c, 0, 64, 70
1, 188925, Control_c, 0, 64, 74
1, 188939, Control_c, 0, 64, 79
1, 188954, Control_c, 0, 64, 83
1, 188969, Control_c, 0, 64, 87
1, 188984, Control_c, 0, 64, 91
1, 188999, Control_c, 0, 64, 95
1, 189013, Control_c, 0, 64, 99
1, 189028, Control_c, 0, 64, 103
1, 189043, Control_c, 0, 64, 106
1, 189058, Control_c, 0, 64, 108
1, 189073, Control_c, 0, 64, 110
1, 189087, Control_c, 0, 64, 111
1, 189102, Control_c, 0, 64, 112
1, 189117, Control_c, 0, 64, 114
1, 189131, Control_c, 0, 64, 115
1, 189146, Control_c, 0, 64, 115
1, 189176, Control_c, 0, 64, 116
1, 189584, Control_c, 0, 64, 115
1, 189599, Control_c, 0, 64, 114
1, 189614, Control_c, 0, 64, 106
1, 189629, Control_c, 0, 64, 94
1, 189643, Control_c, 0, 64, 80
1, 189658, Control_c, 0, 64, 67
1, 189669, Note_on_c, 0, 73, 40
1, 189673, Note_off_c, 0, 66, 40
1, 189673, Control_c, 0, 64, 53
1, 189688, Control_c, 0, 64, 34
1, 189691, Note_on_c, 0, 64, 29
1, 189703, Control_c, 0, 64, 0
1, 189724, Note_off_c, 0, 75, 35
1, 189777, Control_c, 0, 64, 30
1, 189792, Control_c, 0, 64, 49
1, 189807, Control_c, 0, 64, 60
1, 189822, Control_c, 0, 64, 64
1, 189836, Control_c, 0, 64, 66
1, 189851, Control_c, 0, 64, 69
1, 189866, Control_c, 0, 64, 72
1, 189881, Control_c, 0, 64, 77
1, 189895, Control_c, 0, 64, 81
1, 189909, Control_c, 0, 64, 86
1, 189924, Control_c, 0, 64, 90
1, 189939, Control_c, 0, 64, 93
1, 189953, Control_c, 0, 64, 95
1, 189968, Control_c, 0, 64, 95
1, 189983, Control_c, 0, 64, 96
1, 190132, Control_c, 0, 64, 95
1, 190147, Control_c, 0, 64, 88
1, 190161, Control_c, 0, 64, 76
1, 190171, Note_on_c, 0, 72, 42
1, 190176, Control_c, 0, 64, 64
1, 190191, Control_c, 0, 64, 46
1, 190194, Note_on_c, 0, 63, 25
1, 190206, Control_c, 0, 64, 17
1, 190214, Note_off_c, 0, 73, 36
1, 190221, Control_c, 0, 64, 0
1, 190224, Note_off_c, 0, 64, 32
1, 190377, Control_c, 0, 64, 26
1, 190391, Control_c, 0, 64, 50
1, 190406, Control_c, 0, 64, 62
1, 190421, Control_c, 0, 64, 66
1, 190436, Control_c, 0, 64, 70
1, 190451, Control_c, 0, 64, 75
1, 190466, Control_c, 0, 64, 82
1, 190481, Control_c, 0, 64, 87
1, 190486, Note_off_c, 0, 63, 52
1, 190495, Note_off_c, 0, 72, 41
1, 190495, Control_c, 0, 64, 90
1, 190510, Control_c, 0, 64, 93
1, 190525, Control_c, 0, 64, 97
1, 190540, Control_c, 0, 64, 99
1, 190555, Control_c, 0, 64, 100
1, 190570, Control_c, 0, 64, 100
1, 190674, Control_c, 0, 64, 100
1, 190689, Control_c, 0, 64, 98
1, 190703, Control_c, 0, 64, 91
1, 190718, Control_c, 0, 64, 79
1, 190733, Control_c, 0, 64, 63
1, 190748, Control_c, 0, 64, 42
1, 190763, Control_c, 0, 64, 0
1, 191630, Control_c, 0, 64, 17
1, 191645, Control_c, 0, 64, 45
1, 191655, Note_on_c, 0, 45, 40
1, 191660, Control_c, 0, 64, 58
1, 191674, Control_c, 0, 64, 63
1, 191689, Control_c, 0, 64, 67
1, 191694, Note_off_c, 0, 45, 64
1, 191704, Control_c, 0, 64, 71
1, 191719, Control_c, 0, 64, 78
1, 191733, Control_c, 0, 64, 86
1, 191748, Control_c, 0, 64, 93
1, 191763, Control_c, 0, 64, 98
1, 191778, Control_c, 0, 64, 104
1, 191793, Control_c, 0, 64, 112
1, 191815, Control_c, 0, 64, 127
1, 191979, Control_c, 0, 64, 105
1, 191994, Control_c, 0, 64, 87
1, 192009, Control_c, 0, 64, 72
1, 192024, Control_c, 0, 64, 57
1, 192038, Control_c, 0, 64, 21
1, 192042, Note_on_c, 0, 57, 38
1, 192044, Note_on_c, 0, 64, 41
1, 192045, Note_on_c, 0, 61, 32
1, 192053, Control_c, 0, 64, 0
1, 192072, Note_off_c, 0, 57, 62
1, 192077, Note_off_c, 0, 64, 62
1, 192079, Note_off_c, 0, 61, 59
1, 192321, Note_on_c, 0, 64, 45
1, 192324, Note_on_c, 0, 61, 34
1, 192332, Note_on_c, 0, 57, 34
1, 192353, Note_off_c, 0, 64, 66
1, 192360, Note_off_c, 0, 61, 63
1, 192368, Note_off_c, 0, 57, 63
1, 192542, Control_c, 0, 64, 22
1, 192564, Control_c, 0, 64, 54
1, 192579, Control_c, 0, 64, 64
1, 192584, Note_on_c, 0, 45, 52
1, 192591, Note_on_c, 0, 73, 45
1, 192594, Control_c, 0, 64, 68
1, 192609, Note_off_c, 0, 45, 57
1, 192609, Control_c, 0, 64, 72
1, 192624, Control_c, 0, 64, 76
1, 192633, Note_off_c, 0, 73, 62
1, 192638, Control_c, 0, 64, 80
1, 192653, Control_c, 0, 64, 82
1, 192668, Control_c, 0, 64, 83
1, 192672, Note_on_c, 0, 72, 51
1, 192728, Control_c, 0, 64, 82
1, 192742, Note_off_c, 0, 72, 46
1, 192743, Control_c, 0, 64, 77
1, 192746, Note_on_c, 0, 73, 57
1, 192758, Control_c, 0, 64, 68
1, 192773, Control_c, 0, 64, 50
1, 192787, Control_c, 0, 64, 0
1, 192797, Note_off_c, 0, 73, 59
1, 192824, Note_on_c, 0, 76, 50
1, 192826, Note_on_c, 0, 64, 44
1, 192829, Note_on_c, 0, 57, 47
1, 192832, Note_on_c, 0, 61, 48
1, 192857, Note_off_c, 0, 64, 65
1, 192858, Note_off_c, 0, 57, 63
1, 192862, Note_off_c, 0, 61, 65
1, 192882, Note_off_c, 0, 76, 61
1, 192886, Note_on_c, 0, 78, 59
1, 192971, Note_on_c, 0, 76, 56
1, 192999, Note_off_c, 0, 78, 49
1, 193045, Note_off_c, 0, 76, 62
1, 193048, Note_on_c, 0, 75, 58
1, 193050, Note_on_c, 0, 61, 40
1, 193058, Note_on_c, 0, 64, 34
1, 193062, Note_on_c, 0, 57, 42
1, 193078, Note_off_c, 0, 61, 58
1, 193088, Note_off_c, 0, 64, 43
1, 193089, Note_off_c, 0, 57, 57
1, 193102, Note_off_c, 0, 75, 62
1, 193113, Note_on_c, 0, 74, 61
1, 193176, Note_off_c, 0, 74, 40
1, 193190, Note_on_c, 0, 73, 58
1, 193219, Note_off_c, 0, 73, 66
1, 193271, Note_on_c, 0, 78, 65
1, 193276, Control_c, 0, 64, 50
1, 193283, Note_on_c, 0, 50, 55
1, 193289, Note_on_c, 0, 73, 51
1, 193291, Control_c, 0, 64, 63
1, 193312, Control_c, 0, 64, 67
1, 193323, Note_off_c, 0, 50, 64
1, 193327, Control_c, 0, 64, 71
1, 193337, Note_off_c, 0, 73, 61
1, 193342, Control_c, 0, 64, 75
1, 193357, Control_c, 0, 64, 79
1, 193369, Note_on_c, 0, 74, 56
1, 193372, Control_c, 0, 64, 82
1, 193387, Control_c, 0, 64, 83
1, 193436, Note_off_c, 0, 74, 63
1, 193441, Note_on_c, 0, 73, 61
1, 193446, Control_c, 0, 64, 81
1, 193461, Control_c, 0, 64, 71
1, 193476, Control_c, 0, 64, 58
1, 193491, Control_c, 0, 64, 0
1, 193498, Note_off_c, 0, 73, 61
1, 193522, Note_on_c, 0, 72, 56
1, 193538, Note_on_c, 0, 66, 39
1, 193553, Note_on_c, 0, 62, 34
1, 193563, Note_off_c, 0, 66, 56
1, 193569, Note_off_c, 0, 72, 54
1, 193582, Note_off_c, 0, 62, 42
1, 193608, Note_on_c, 0, 73, 51
1, 193678, Note_off_c, 0, 73, 56
1, 193689, Note_on_c, 0, 72, 52
1, 193763, Note_off_c, 0, 72, 61
1, 193796, Note_on_c, 0, 71, 51
1, 193808, Note_on_c, 0, 66, 48
1, 193811, Note_on_c, 0, 62, 35
1, 193837, Note_off_c, 0, 66, 65
1, 193843, Note_off_c, 0, 62, 65
1, 194055, Note_on_c, 0, 50, 48
1, 194061, Control_c, 0, 64, 47
1, 194076, Control_c, 0, 64, 61
1, 194087, Note_off_c, 0, 50, 63
1, 194090, Control_c, 0, 64, 67
1, 194105, Control_c, 0, 64, 71
1, 194120, Control_c, 0, 64, 77
1, 194121, Note_off_c, 0, 78, 61
1, 194126, Note_off_c, 0, 71, 34
1, 194135, Control_c, 0, 64, 82
1, 194150, Control_c, 0, 64, 85
1, 194151, Note_on_c, 0, 77, 53
1, 194165, Control_c, 0, 64, 86
1, 194180, Control_c, 0, 64, 88
1, 194195, Control_c, 0, 64, 89
1, 194227, Note_off_c, 0, 77, 58
1, 194236, Note_on_c, 0, 78, 62
1, 194239, Control_c, 0, 64, 88
1, 194253, Control_c, 0, 64, 81
1, 194268, Control_c, 0, 64, 68
1, 194284, Control_c, 0, 64, 48
1, 194293, Note_off_c, 0, 78, 61
1, 194299, Control_c, 0, 64, 0
1, 194303, Note_on_c, 0, 81, 62
1, 194306, Note_on_c, 0, 66, 46
1, 194312, Note_on_c, 0, 62, 48
1, 194315, Note_on_c, 0, 71, 49
1, 194332, Note_off_c, 0, 66, 60
1, 194344, Note_off_c, 0, 62, 67
1, 194379, Note_off_c, 0, 81, 64
1, 194392, Note_on_c, 0, 83, 65
1, 194459, Note_on_c, 0, 81, 66
1, 194481, Note_off_c, 0, 83, 54
1, 194529, Note_on_c, 0, 62, 56
1, 194529, Note_off_c, 0, 81, 63
1, 194539, Note_on_c, 0, 80, 61
1, 194557, Note_off_c, 0, 62, 67
1, 194584, Note_off_c, 0, 80, 63
1, 194608, Note_on_c, 0, 79, 73
1, 194618, Note_off_c, 0, 71, 39
1, 194677, Note_on_c, 0, 78, 70
1, 194679, Note_off_c, 0, 79, 62
1, 194699, Note_off_c, 0, 78, 69
1, 194743, Control_c, 0, 64, 42
1, 194758, Control_c, 0, 64, 58
1, 194764, Note_on_c, 0, 71, 65
1, 194764, Note_on_c, 0, 76, 67
1, 194767, Note_on_c, 0, 52, 50
1, 194773, Control_c, 0, 64, 62
1, 194788, Control_c, 0, 64, 63
1, 194806, Note_off_c, 0, 52, 60
1, 194807, Note_off_c, 0, 71, 56
1, 194811, Control_c, 0, 64, 64
1, 194818, Note_off_c, 0, 76, 0
1, 194818, Note_on_c, 0, 76, 38
1, 194851, Note_on_c, 0, 73, 58
1, 194884, Control_c, 0, 64, 63
1, 194899, Control_c, 0, 64, 58
1, 194906, Note_off_c, 0, 73, 63
1, 194913, Note_on_c, 0, 71, 57
1, 194914, Control_c, 0, 64, 46
1, 194929, Control_c, 0, 64, 0
1, 194968, Note_off_c, 0, 71, 58
1, 194995, Note_on_c, 0, 70, 59
1, 194999, Note_on_c, 0, 61, 58
1, 195007, Note_on_c, 0, 64, 47
1, 195029, Note_off_c, 0, 61, 66
1, 195032, Note_off_c, 0, 64, 55
1, 195041, Note_off_c, 0, 70, 60
1, 195064, Note_on_c, 0, 71, 48
1, 195088, Note_off_c, 0, 76, 58
1, 195126, Note_off_c, 0, 71, 63
1, 195137, Note_on_c, 0, 70, 53
1, 195202, Note_off_c, 0, 70, 59
1, 195223, Note_on_c, 0, 76, 47
1, 195237, Note_on_c, 0, 69, 46
1, 195247, Note_on_c, 0, 61, 51
1, 195264, Note_on_c, 0, 64, 37
1, 195282, Note_off_c, 0, 61, 65
1, 195290, Note_off_c, 0, 64, 49
1, 195477, Note_on_c, 0, 52, 49
1, 195492, Control_c, 0, 64, 44
1, 195507, Control_c, 0, 64, 60
1, 195511, Note_off_c, 0, 52, 62
1, 195522, Control_c, 0, 64, 64
1, 195531, Note_off_c, 0, 69, 54
1, 195537, Control_c, 0, 64, 65
1, 195560, Control_c, 0, 64, 67
1, 195574, Control_c, 0, 64, 70
1, 195578, Note_on_c, 0, 68, 48
1, 195587, Note_off_c, 0, 76, 56
1, 195589, Control_c, 0, 64, 72
1, 195604, Control_c, 0, 64, 74
1, 195614, Note_off_c, 0, 68, 65
1, 195619, Control_c, 0, 64, 75
1, 195642, Note_on_c, 0, 69, 59
1, 195678, Control_c, 0, 64, 74
1, 195693, Note_off_c, 0, 69, 50
1, 195693, Control_c, 0, 64, 70
1, 195707, Control_c, 0, 64, 61
1, 195722, Control_c, 0, 64, 33
1, 195726, Note_on_c, 0, 76, 46
1, 195727, Note_on_c, 0, 73, 53
1, 195737, Note_on_c, 0, 61, 54
1, 195737, Control_c, 0, 64, 0
1, 195748, Note_on_c, 0, 64, 45
1, 195771, Note_off_c, 0, 61, 64
1, 195774, Note_off_c, 0, 64, 59
1, 195786, Note_off_c, 0, 73, 58
1, 195815, Note_on_c, 0, 74, 55
1, 195885, Note_on_c, 0, 73, 62
1, 195916, Note_off_c, 0, 74, 51
1, 195927, Note_off_c, 0, 76, 41
1, 195955, Note_off_c, 0, 73, 64
1, 195957, Note_on_c, 0, 72, 58
1, 195962, Note_on_c, 0, 61, 56
1, 195968, Note_on_c, 0, 64, 43
1, 195992, Note_off_c, 0, 64, 56
1, 196001, Note_off_c, 0, 61, 59
1, 196014, Note_off_c, 0, 72, 64
1, 196032, Note_on_c, 0, 71, 60
1, 196073, Note_off_c, 0, 71, 51
1, 196106, Note_on_c, 0, 70, 62
1, 196172, Note_off_c, 0, 70, 61
1, 196183, Note_on_c, 0, 76, 58
1, 196190, Note_on_c, 0, 52, 50
1, 196195, Note_on_c, 0, 69, 55
1, 196227, Control_c, 0, 64, 54
1, 196231, Note_off_c, 0, 69, 61
1, 196231, Note_off_c, 0, 52, 60
1, 196242, Control_c, 0, 64, 61
1, 196256, Control_c, 0, 64, 63
1, 196263, Note_on_c, 0, 71, 52
1, 196271, Control_c, 0, 64, 64
1, 196277, Note_off_c, 0, 76, 59
1, 196286, Control_c, 0, 64, 66
1, 196308, Control_c, 0, 64, 68
1, 196323, Control_c, 0, 64, 69
1, 196335, Note_off_c, 0, 71, 65
1, 196338, Control_c, 0, 64, 70
1, 196346, Note_on_c, 0, 69, 53
1, 196389, Note_off_c, 0, 69, 61
1, 196412, Control_c, 0, 64, 69
1, 196427, Control_c, 0, 64, 66
1, 196436, Note_on_c, 0, 59, 55
1, 196436, Note_on_c, 0, 66, 62
1, 196442, Control_c, 0, 64, 55
1, 196455, Note_on_c, 0, 64, 38
1, 196456, Control_c, 0, 64, 28
1, 196457, Note_on_c, 0, 62, 18
1, 196471, Control_c, 0, 64, 0
1, 196475, Note_off_c, 0, 59, 61
1, 196484, Note_off_c, 0, 64, 46
1, 196489, Note_off_c, 0, 66, 62
1, 196498, Note_off_c, 0, 62, 39
1, 196512, Note_on_c, 0, 65, 62
1, 196551, Note_off_c, 0, 65, 54
1, 196582, Note_on_c, 0, 66, 46
1, 196606, Note_off_c, 0, 66, 59
1, 196671, Note_on_c, 0, 76, 61
1, 196681, Note_on_c, 0, 68, 60
1, 196701, Note_on_c, 0, 59, 44
1, 196746, Note_off_c, 0, 59, 57
1, 196754, Note_on_c, 0, 64, 3
1, 196775, Poly_aftertouch_c, 0, 62, 0
1, 196794, Note_off_c, 0, 64, 31
1, 196901, Control_c, 0, 64, 22
1, 196916, Control_c, 0, 64, 49
1, 196920, Note_on_c, 0, 52, 45
1, 196931, Control_c, 0, 64, 61
1, 196946, Control_c, 0, 64, 65
1, 196961, Control_c, 0, 64, 67
1, 196964, Note_off_c, 0, 52, 59
1, 196975, Note_off_c, 0, 76, 58
1, 196976, Control_c, 0, 64, 71
1, 196986, Note_off_c, 0, 68, 32
1, 196991, Control_c, 0, 64, 75
1, 197004, Note_on_c, 0, 75, 57
1, 197005, Control_c, 0, 64, 80
1, 197020, Control_c, 0, 64, 84
1, 197035, Control_c, 0, 64, 88
1, 197057, Control_c, 0, 64, 90
1, 197067, Note_off_c, 0, 75, 54
1, 197071, Control_c, 0, 64, 92
1, 197086, Control_c, 0, 64, 93
1, 197094, Note_on_c, 0, 76, 57
1, 197101, Control_c, 0, 64, 93
1, 197116, Note_off_c, 0, 76, 65
1, 197191, Control_c, 0, 64, 91
1, 197204, Note_on_c, 0, 80, 65
1, 197205, Control_c, 0, 64, 83
1, 197220, Control_c, 0, 64, 72
1, 197229, Note_on_c, 0, 68, 44
1, 197235, Control_c, 0, 64, 57
1, 197238, Note_on_c, 0, 59, 43
1, 197250, Control_c, 0, 64, 23
1, 197258, Note_on_c, 0, 64, 20
1, 197265, Control_c, 0, 64, 0
1, 197267, Note_off_c, 0, 59, 54
1, 197269, Note_off_c, 0, 80, 62
1, 197290, Note_on_c, 0, 81, 63
1, 197298, Note_off_c, 0, 64, 45
1, 197311, Poly_aftertouch_c, 0, 62, 0
1, 197356, Note_on_c, 0, 80, 63
1, 197401, Note_off_c, 0, 81, 52
1, 197436, Note_on_c, 0, 78, 63
1, 197456, Note_on_c, 0, 59, 48
1, 197468, Note_off_c, 0, 68, 52
1, 197468, Note_off_c, 0, 80, 58
1, 197482, Note_off_c, 0, 59, 64
1, 197506, Note_off_c, 0, 78, 62
1, 197508, Note_on_c, 0, 75, 69
1, 197582, Note_on_c, 0, 76, 66
1, 197582, Note_off_c, 0, 75, 60
1, 197653, Note_on_c, 0, 78, 64
1, 197656, Note_off_c, 0, 76, 58
1, 197665, Control_c, 0, 64, 22
1, 197672, Note_on_c, 0, 45, 56
1, 197679, Control_c, 0, 64, 57
1, 197683, Note_on_c, 0, 69, 55
1, 197694, Note_off_c, 0, 45, 54
1, 197694, Control_c, 0, 64, 64
1, 197709, Control_c, 0, 64, 67
1, 197724, Control_c, 0, 64, 71
1, 197733, Note_off_c, 0, 78, 63
1, 197739, Control_c, 0, 64, 77
1, 197746, Note_on_c, 0, 80, 66
1, 197754, Control_c, 0, 64, 84
1, 197768, Control_c, 0, 64, 88
1, 197783, Control_c, 0, 64, 89
1, 197805, Control_c, 0, 64, 90
1, 197831, Note_on_c, 0, 78, 56
1, 197849, Control_c, 0, 64, 89
1, 197864, Control_c, 0, 64, 81
1, 197879, Control_c, 0, 64, 70
1, 197880, Note_off_c, 0, 69, 35
1, 197886, Note_off_c, 0, 80, 49
1, 197894, Control_c, 0, 64, 53
1, 197903, Note_off_c, 0, 78, 57
1, 197906, Note_on_c, 0, 77, 59
1, 197909, Control_c, 0, 64, 0
1, 197926, Note_on_c, 0, 57, 43
1, 197927, Note_on_c, 0, 61, 48
1, 197954, Note_off_c, 0, 61, 61
1, 197960, Note_off_c, 0, 57, 65
1, 197974, Note_off_c, 0, 77, 62
1, 197995, Note_on_c, 0, 78, 56
1, 198065, Note_off_c, 0, 78, 58
1, 198066, Note_on_c, 0, 77, 45
1, 198145, Note_off_c, 0, 77, 57
1, 198177, Note_on_c, 0, 76, 44
1, 198203, Note_on_c, 0, 69, 39
1, 198209, Note_on_c, 0, 61, 43
1, 198219, Note_on_c, 0, 64, 36
1, 198244, Note_off_c, 0, 64, 55
1, 198245, Note_off_c, 0, 61, 65
1, 198428, Control_c, 0, 64, 34
1, 198443, Control_c, 0, 64, 53
1, 198447, Note_on_c, 0, 45, 48
1, 198451, Note_off_c, 0, 76, 58
1, 198457, Control_c, 0, 64, 61
1, 198472, Control_c, 0, 64, 65
1, 198487, Control_c, 0, 64, 68
1, 198492, Note_off_c, 0, 45, 63
1, 198502, Control_c, 0, 64, 72
1, 198517, Control_c, 0, 64, 78
1, 198532, Control_c, 0, 64, 85
1, 198554, Control_c, 0, 64, 91
1, 198568, Control_c, 0, 64, 98
1, 198583, Control_c, 0, 64, 103
1, 198598, Control_c, 0, 64, 107
1, 198613, Control_c, 0, 64, 111
1, 198628, Control_c, 0, 64, 112
1, 198630, Note_off_c, 0, 69, 44
1, 198642, Control_c, 0, 64, 113
1, 198702, Control_c, 0, 64, 112
1, 198717, Control_c, 0, 64, 112
1, 198726, Note_on_c, 0, 76, 55
1, 198729, Note_on_c, 0, 73, 59
1, 198732, Control_c, 0, 64, 104
1, 198747, Control_c, 0, 64, 91
1, 198753, Note_on_c, 0, 57, 44
1, 198757, Note_on_c, 0, 61, 45
1, 198761, Control_c, 0, 64, 78
1, 198776, Control_c, 0, 64, 63
1, 198791, Control_c, 0, 64, 46
1, 198799, Note_off_c, 0, 57, 59
1, 198799, Note_off_c, 0, 73, 62
1, 198806, Control_c, 0, 64, 21
1, 198812, Note_on_c, 0, 71, 60
1, 198815, Note_off_c, 0, 61, 47
1, 198821, Control_c, 0, 64, 0
1, 198867, Note_off_c, 0, 71, 61
1, 198886, Note_on_c, 0, 70, 64
1, 198895, Control_c, 0, 64, 26
1, 198910, Control_c, 0, 64, 44
1, 198924, Control_c, 0, 64, 55
1, 198939, Control_c, 0, 64, 58
1, 198940, Note_off_c, 0, 76, 59
1, 198954, Control_c, 0, 64, 59
1, 198956, Note_off_c, 0, 70, 62
1, 198961, Note_on_c, 0, 61, 51
1, 198968, Control_c, 0, 64, 60
1, 198969, Note_on_c, 0, 69, 61
1, 198971, Note_on_c, 0, 64, 40
1, 198983, Control_c, 0, 64, 61
1, 198998, Note_off_c, 0, 64, 58
1, 198998, Control_c, 0, 64, 61
1, 199009, Note_off_c, 0, 61, 61
1, 199013, Control_c, 0, 64, 62
1, 199024, Note_off_c, 0, 69, 59
1, 199042, Note_on_c, 0, 68, 66
1, 199105, Note_off_c, 0, 68, 65
1, 199118, Control_c, 0, 64, 61
1, 199123, Note_on_c, 0, 67, 67
1, 199133, Control_c, 0, 64, 57
1, 199147, Control_c, 0, 64, 45
1, 199158, Note_off_c, 0, 67, 60
1, 199162, Control_c, 0, 64, 0
1, 199212, Note_on_c, 0, 78, 71
1, 199221, Control_c, 0, 64, 24
1, 199228, Note_on_c, 0, 50, 53
1, 199236, Control_c, 0, 64, 50
1, 199244, Note_on_c, 0, 73, 46
1, 199251, Control_c, 0, 64, 63
1, 199262, Note_off_c, 0, 50, 64
1, 199265, Control_c, 0, 64, 67
1, 199280, Control_c, 0, 64, 71
1, 199296, Note_off_c, 0, 73, 61
1, 199303, Control_c, 0, 64, 74
1, 199318, Control_c, 0, 64, 76
1, 199322, Note_on_c, 0, 74, 58
1, 199377, Control_c, 0, 64, 74
1, 199387, Note_on_c, 0, 73, 61
1, 199391, Control_c, 0, 64, 67
1, 199397, Note_off_c, 0, 74, 59
1, 199406, Control_c, 0, 64, 56
1, 199421, Control_c, 0, 64, 26
1, 199436, Control_c, 0, 64, 0
1, 199450, Note_off_c, 0, 73, 63
1, 199463, Note_on_c, 0, 72, 66
1, 199474, Note_on_c, 0, 62, 49
1, 199474, Note_on_c, 0, 66, 50
1, 199498, Note_off_c, 0, 66, 62
1, 199507, Note_off_c, 0, 62, 66
1, 199516, Note_off_c, 0, 72, 47
1, 199537, Note_on_c, 0, 73, 55
1, 199542, Note_off_c, 0, 78, 57
1, 199602, Note_off_c, 0, 73, 64
1, 199611, Note_on_c, 0, 72, 56
1, 199680, Note_off_c, 0, 72, 64
1, 199693, Note_on_c, 0, 78, 53
1, 199703, Note_on_c, 0, 71, 65
1, 199715, Note_on_c, 0, 62, 46
1, 199726, Note_on_c, 0, 66, 23
1, 199739, Note_off_c, 0, 62, 63
1, 199766, Note_off_c, 0, 66, 30
1, 199926, Control_c, 0, 64, 38
1, 199941, Control_c, 0, 64, 57
1, 199947, Note_on_c, 0, 50, 47
1, 199956, Control_c, 0, 64, 65
1, 199970, Control_c, 0, 64, 68
1, 199981, Note_off_c, 0, 50, 64
1, 199985, Control_c, 0, 64, 73
1, 200000, Control_c, 0, 64, 79
1, 200009, Note_off_c, 0, 78, 55
1, 200014, Control_c, 0, 64, 86
1, 200029, Control_c, 0, 64, 91
1, 200042, Note_on_c, 0, 77, 49
1, 200049, Note_off_c, 0, 71, 30
1, 200052, Control_c, 0, 64, 96
1, 200067, Control_c, 0, 64, 100
1, 200082, Control_c, 0, 64, 104
1, 200096, Control_c, 0, 64, 109
1, 200111, Control_c, 0, 64, 113
1, 200126, Control_c, 0, 64, 116
1, 200133, Note_off_c, 0, 77, 55
1, 200139, Note_on_c, 0, 78, 56
1, 200140, Control_c, 0, 64, 118
1, 200155, Control_c, 0, 64, 121
1, 200169, Note_off_c, 0, 78, 65
1, 200214, Control_c, 0, 64, 119
1, 200229, Control_c, 0, 64, 117
1, 200244, Control_c, 0, 64, 107
1, 200259, Control_c, 0, 64, 96
1, 200265, Note_on_c, 0, 83, 63
1, 200274, Control_c, 0, 64, 86
1, 200285, Note_on_c, 0, 71, 46
1, 200288, Note_on_c, 0, 66, 42
1, 200288, Control_c, 0, 64, 75
1, 200295, Note_on_c, 0, 62, 41
1, 200303, Control_c, 0, 64, 61
1, 200309, Note_off_c, 0, 83, 50
1, 200318, Control_c, 0, 64, 47
1, 200333, Control_c, 0, 64, 34
1, 200335, Note_off_c, 0, 66, 50
1, 200342, Note_off_c, 0, 62, 54
1, 200344, Note_off_c, 0, 71, 0
1, 200347, Control_c, 0, 64, 0
1, 200362, Note_on_c, 0, 82, 54
1, 200383, Poly_aftertouch_c, 0, 71, 127
1, 200401, Note_off_c, 0, 82, 59
1, 200443, Note_on_c, 0, 81, 61
1, 200510, Note_on_c, 0, 80, 65
1, 200520, Poly_aftertouch_c, 0, 71, 0
1, 200532, Note_off_c, 0, 81, 57
1, 200540, Control_c, 0, 64, 21
1, 200543, Note_on_c, 0, 66, 46
1, 200549, Note_on_c, 0, 62, 47
1, 200555, Control_c, 0, 64, 47
1, 200568, Note_off_c, 0, 66, 54
1, 200570, Control_c, 0, 64, 58
1, 200574, Note_off_c, 0, 62, 64
1, 200585, Control_c, 0, 64, 64
1, 200594, Note_on_c, 0, 79, 62
1, 200600, Control_c, 0, 64, 69
1, 200614, Control_c, 0, 64, 75
1, 200629, Control_c, 0, 64, 83
1, 200644, Control_c, 0, 64, 88
1, 200649, Note_off_c, 0, 80, 35
1, 200660, Control_c, 0, 64, 91
1, 200668, Note_off_c, 0, 79, 62
1, 200670, Note_on_c, 0, 78, 60
1, 200675, Control_c, 0, 64, 91
1, 200698, Note_off_c, 0, 78, 67
1, 200719, Control_c, 0, 64, 91
1, 200734, Control_c, 0, 64, 86
1, 200749, Control_c, 0, 64, 74
1, 200763, Control_c, 0, 64, 59
1, 200768, Note_on_c, 0, 71, 64
1, 200773, Note_on_c, 0, 52, 54
1, 200776, Note_on_c, 0, 76, 56
1, 200778, Control_c, 0, 64, 22
1, 200800, Control_c, 0, 64, 0
1, 200812, Note_off_c, 0, 71, 55
1, 200821, Note_off_c, 0, 52, 62
1, 200856, Note_on_c, 0, 73, 57
1, 200919, Note_off_c, 0, 73, 63
1, 200927, Note_on_c, 0, 71, 62
1, 200986, Note_off_c, 0, 71, 56
1, 201012, Note_on_c, 0, 70, 50
1, 201019, Note_on_c, 0, 61, 50
1, 201022, Note_on_c, 0, 64, 45
1, 201045, Note_off_c, 0, 61, 61
1, 201051, Note_off_c, 0, 64, 57
1, 201054, Note_off_c, 0, 70, 60
1, 201069, Note_on_c, 0, 71, 43
1, 201090, Note_off_c, 0, 76, 61
1, 201135, Note_off_c, 0, 71, 64
1, 201154, Note_on_c, 0, 70, 54
1, 201212, Note_off_c, 0, 70, 58
1, 201230, Note_on_c, 0, 76, 53
1, 201259, Note_on_c, 0, 69, 46
1, 201269, Note_on_c, 0, 61, 49
1, 201284, Note_on_c, 0, 64, 32
1, 201297, Note_off_c, 0, 61, 61
1, 201313, Note_off_c, 0, 64, 48
1, 201497, Note_on_c, 0, 52, 43
1, 201549, Note_off_c, 0, 52, 61
1, 201549, Control_c, 0, 64, 53
1, 201564, Control_c, 0, 64, 63
1, 201579, Control_c, 0, 64, 66
1, 201589, Note_off_c, 0, 69, 60
1, 201593, Control_c, 0, 64, 67
1, 201598, Note_off_c, 0, 76, 59
1, 201608, Control_c, 0, 64, 69
1, 201623, Control_c, 0, 64, 71
1, 201638, Control_c, 0, 64, 73
1, 201653, Control_c, 0, 64, 74
1, 201668, Control_c, 0, 64, 74
1, 201742, Control_c, 0, 64, 74
1, 201749, Note_on_c, 0, 76, 49
1, 201757, Control_c, 0, 64, 71
1, 201758, Note_on_c, 0, 74, 58
1, 201771, Note_on_c, 0, 61, 50
1, 201772, Control_c, 0, 64, 65
1, 201781, Note_on_c, 0, 64, 38
1, 201787, Control_c, 0, 64, 56
1, 201800, Note_off_c, 0, 61, 57
1, 201801, Control_c, 0, 64, 39
1, 201811, Note_off_c, 0, 64, 54
1, 201816, Control_c, 0, 64, 0
1, 201817, Note_on_c, 0, 73, 61
1, 201840, Note_off_c, 0, 76, 28
1, 201841, Note_off_c, 0, 74, 58
1, 201888, Note_on_c, 0, 72, 60
1, 201892, Note_off_c, 0, 73, 64
1, 201946, Note_off_c, 0, 72, 63
1, 201962, Note_on_c, 0, 71, 69
1, 201984, Note_on_c, 0, 61, 52
1, 201990, Note_on_c, 0, 64, 30
1, 202016, Note_off_c, 0, 64, 48
1, 202016, Note_off_c, 0, 71, 54
1, 202022, Note_off_c, 0, 61, 62
1, 202042, Note_on_c, 0, 70, 66
1, 202083, Note_off_c, 0, 70, 63
1, 202112, Note_on_c, 0, 69, 62
1, 202152, Note_off_c, 0, 69, 52
1, 202193, Note_on_c, 0, 52, 54
1, 202198, Note_on_c, 0, 78, 67
1, 202216, Control_c, 0, 64, 8
1, 202231, Control_c, 0, 64, 58
1, 202239, Note_off_c, 0, 52, 58
1, 202246, Control_c, 0, 64, 64
1, 202261, Control_c, 0, 64, 65
1, 202273, Note_off_c, 0, 78, 63
1, 202276, Control_c, 0, 64, 66
1, 202292, Note_on_c, 0, 80, 65
1, 202298, Control_c, 0, 64, 66
1, 202313, Control_c, 0, 64, 67
1, 202328, Control_c, 0, 64, 68
1, 202342, Control_c, 0, 64, 68
1, 202377, Poly_aftertouch_c, 0, 69, 0
1, 202382, Note_on_c, 0, 78, 62
1, 202416, Control_c, 0, 64, 68
1, 202424, Note_on_c, 0, 59, 62
1, 202431, Control_c, 0, 64, 66
1, 202434, Note_off_c, 0, 80, 61
1, 202436, Note_on_c, 0, 64, 44
1, 202440, Note_on_c, 0, 77, 63
1, 202443, Note_on_c, 0, 62, 32
1, 202445, Note_off_c, 0, 78, 63
1, 202446, Control_c, 0, 64, 60
1, 202461, Control_c, 0, 64, 51
1, 202463, Note_off_c, 0, 64, 55
1, 202470, Note_off_c, 0, 59, 58
1, 202475, Note_off_c, 0, 62, 42
1, 202476, Control_c, 0, 64, 37
1, 202491, Control_c, 0, 64, 0
1, 202517, Note_on_c, 0, 79, 59
1, 202520, Note_off_c, 0, 77, 60
1, 202590, Note_on_c, 0, 77, 48
1, 202595, Note_off_c, 0, 79, 61
1, 202672, Note_on_c, 0, 76, 60
1, 202684, Note_on_c, 0, 68, 51
1, 202686, Note_off_c, 0, 77, 51
1, 202691, Note_on_c, 0, 59, 35
1, 202698, Control_c, 0, 64, 39
1, 202713, Control_c, 0, 64, 60
1, 202714, Note_off_c, 0, 68, 67
1, 202719, Note_off_c, 0, 76, 64
1, 202724, Note_off_c, 0, 59, 54
1, 202728, Control_c, 0, 64, 65
1, 202742, Control_c, 0, 64, 67
1, 202757, Control_c, 0, 64, 71
1, 202766, Poly_aftertouch_c, 0, 62, 0
1, 202772, Control_c, 0, 64, 75
1, 202787, Control_c, 0, 64, 80
1, 202802, Control_c, 0, 64, 85
1, 202816, Control_c, 0, 64, 87
1, 202831, Control_c, 0, 64, 89
1, 202846, Control_c, 0, 64, 90
1, 202928, Note_on_c, 0, 52, 46
1, 202955, Note_off_c, 0, 52, 59
1, 202965, Control_c, 0, 64, 89
1, 202979, Control_c, 0, 64, 88
1, 202994, Control_c, 0, 64, 86
1, 203009, Control_c, 0, 64, 84
1, 203024, Control_c, 0, 64, 80
1, 203046, Control_c, 0, 64, 74
1, 203050, Note_on_c, 0, 88, 57
1, 203060, Note_on_c, 0, 80, 57
1, 203062, Control_c, 0, 64, 68
1, 203077, Control_c, 0, 64, 62
1, 203078, Note_off_c, 0, 88, 55
1, 203092, Control_c, 0, 64, 53
1, 203098, Note_off_c, 0, 80, 60
1, 203107, Control_c, 0, 64, 43
1, 203121, Control_c, 0, 64, 28
1, 203136, Control_c, 0, 64, 0
1, 203173, Note_on_c, 0, 89, 67
1, 203182, Note_on_c, 0, 81, 62
1, 203193, Note_on_c, 0, 59, 43
1, 203203, Note_off_c, 0, 89, 62
1, 203208, Note_off_c, 0, 81, 65
1, 203212, Note_on_c, 0, 64, 23
1, 203222, Note_off_c, 0, 59, 57
1, 203248, Note_off_c, 0, 64, 40
1, 203270, Poly_aftertouch_c, 0, 62, 0
1, 203281, Note_on_c, 0, 90, 71
1, 203298, Note_on_c, 0, 82, 53
1, 203310, Note_off_c, 0, 90, 58
1, 203331, Note_off_c, 0, 82, 65
1, 203387, Note_on_c, 0, 91, 78
1, 203394, Note_on_c, 0, 59, 45
1, 203395, Note_on_c, 0, 83, 68
1, 203420, Note_off_c, 0, 59, 59
1, 203421, Note_off_c, 0, 83, 66
1, 203429, Note_off_c, 0, 91, 60
1, 203489, Note_on_c, 0, 92, 73
1, 203502, Note_on_c, 0, 84, 60
1, 203525, Note_off_c, 0, 84, 66
1, 203543, Note_off_c, 0, 92, 61
1, 203580, Control_c, 0, 67, 126
1, 203595, Control_c, 0, 67, 123
1, 203603, Note_on_c, 0, 93, 78
1, 203610, Control_c, 0, 64, 37
1, 203610, Control_c, 0, 67, 119
1, 203612, Note_on_c, 0, 85, 75
1, 203619, Note_on_c, 0, 45, 47
1, 203622, Note_off_c, 0, 93, 71
1, 203625, Control_c, 0, 64, 61
1, 203625, Control_c, 0, 67, 114
1, 203632, Note_off_c, 0, 85, 70
1, 203639, Control_c, 0, 64, 70
1, 203639, Control_c, 0, 67, 106
1, 203644, Note_off_c, 0, 45, 59
1, 203654, Control_c, 0, 64, 80
1, 203654, Control_c, 0, 67, 96
1, 203669, Control_c, 0, 64, 93
1, 203669, Control_c, 0, 67, 85
1, 203683, Control_c, 0, 64, 111
1, 203683, Control_c, 0, 67, 72
1, 203698, Control_c, 0, 64, 127
1, 203698, Control_c, 0, 67, 61
1, 203713, Control_c, 0, 67, 50
1, 203728, Control_c, 0, 67, 41
1, 203743, Control_c, 0, 67, 34
1, 203757, Control_c, 0, 67, 26
1, 203772, Control_c, 0, 67, 19
1, 203795, Control_c, 0, 67, 12
1, 203810, Control_c, 0, 67, 11
1, 203825, Control_c, 0, 67, 10
1, 203839, Control_c, 0, 67, 9
1, 203854, Control_c, 0, 67, 8
1, 203870, Control_c, 0, 67, 0
1, 203944, Note_on_c, 0, 57, 42
1, 203944, Note_on_c, 0, 64, 45
1, 203944, Control_c, 0, 64, 95
1, 203948, Note_on_c, 0, 61, 46
1, 203959, Control_c, 0, 64, 73
1, 203974, Control_c, 0, 64, 53
1, 203986, Note_off_c, 0, 57, 64
1, 203987, Note_off_c, 0, 64, 63
1, 203988, Control_c, 0, 64, 15
1, 203990, Note_off_c, 0, 61, 64
1, 204003, Control_c, 0, 64, 0
1, 204246, Note_on_c, 0, 69, 46
1, 204258, Note_on_c, 0, 64, 36
1, 204270, Note_on_c, 0, 61, 28
1, 204275, Note_on_c, 0, 57, 33
1, 204285, Note_off_c, 0, 64, 59
1, 204299, Note_off_c, 0, 61, 56
1, 204306, Note_off_c, 0, 57, 60
1, 204521, Control_c, 0, 64, 42
1, 204528, Note_on_c, 0, 45, 45
1, 204544, Control_c, 0, 64, 57
1, 204559, Control_c, 0, 64, 62
1, 204568, Note_off_c, 0, 69, 64
1, 204574, Control_c, 0, 64, 66
1, 204588, Control_c, 0, 64, 72
1, 204589, Note_off_c, 0, 45, 60
1, 204603, Control_c, 0, 64, 82
1, 204618, Control_c, 0, 64, 97
1, 204633, Control_c, 0, 64, 119
1, 204647, Control_c, 0, 64, 127
1, 204877, Note_on_c, 0, 73, 64
1, 204885, Note_on_c, 0, 61, 38
1, 204892, Note_on_c, 0, 57, 37
1, 204893, Note_on_c, 0, 64, 37
1, 204965, Note_off_c, 0, 73, 63
1, 204974, Note_on_c, 0, 72, 67
1, 205012, Note_off_c, 0, 64, 33
1, 205033, Note_off_c, 0, 57, 33
1, 205038, Note_off_c, 0, 61, 34
1, 205056, Note_on_c, 0, 73, 73
1, 205089, Note_off_c, 0, 72, 60
1, 205135, Note_on_c, 0, 76, 72
1, 205141, Note_off_c, 0, 73, 62
1, 205147, Note_on_c, 0, 57, 51
1, 205147, Note_on_c, 0, 61, 52
1, 205150, Note_on_c, 0, 64, 36
1, 205182, Note_off_c, 0, 61, 65
1, 205182, Note_off_c, 0, 64, 45
1, 205194, Note_off_c, 0, 57, 59
1, 205214, Note_on_c, 0, 75, 76
1, 205241, Note_off_c, 0, 76, 59
1, 205305, Note_on_c, 0, 73, 73
1, 205312, Note_off_c, 0, 75, 62
1, 205337, Control_c, 0, 64, 81
1, 205352, Control_c, 0, 64, 59
1, 205367, Control_c, 0, 64, 20
1, 205368, Note_off_c, 0, 73, 62
1, 205382, Control_c, 0, 64, 0
1, 205406, Note_on_c, 0, 73, 67
1, 205415, Note_on_c, 0, 49, 58
1, 205426, Control_c, 0, 64, 25
1, 205441, Control_c, 0, 64, 53
1, 205457, Control_c, 0, 64, 66
1, 205471, Control_c, 0, 64, 74
1, 205486, Control_c, 0, 64, 86
1, 205487, Note_off_c, 0, 73, 60
1, 205501, Control_c, 0, 64, 124
1, 205510, Note_off_c, 0, 49, 62
1, 205516, Control_c, 0, 64, 127
1, 205793, Note_on_c, 0, 56, 42
1, 205797, Note_on_c, 0, 61, 42
1, 205805, Note_on_c, 0, 65, 40
1, 205865, Note_off_c, 0, 65, 54
1, 205869, Note_off_c, 0, 56, 52
1, 205927, Note_off_c, 0, 61, 31
1, 206095, Note_on_c, 0, 73, 66
1, 206101, Note_on_c, 0, 61, 38
1, 206109, Note_on_c, 0, 65, 35
1, 206113, Note_on_c, 0, 56, 46
1, 206130, Control_c, 0, 64, 107
1, 206141, Note_off_c, 0, 65, 44
1, 206145, Control_c, 0, 64, 76
1, 206158, Note_off_c, 0, 61, 60
1, 206160, Control_c, 0, 64, 56
1, 206175, Control_c, 0, 64, 0
1, 206180, Note_off_c, 0, 56, 58
1, 206361, Note_on_c, 0, 80, 70
1, 206369, Control_c, 0, 64, 21
1, 206370, Note_on_c, 0, 49, 56
1, 206383, Control_c, 0, 64, 59
1, 206398, Control_c, 0, 64, 68
1, 206413, Control_c, 0, 64, 72
1, 206427, Control_c, 0, 64, 82
1, 206439, Note_off_c, 0, 49, 52
1, 206442, Control_c, 0, 64, 101
1, 206446, Note_off_c, 0, 73, 59
1, 206457, Control_c, 0, 64, 127
1, 206469, Note_on_c, 0, 72, 59
1, 206560, Note_on_c, 0, 73, 66
1, 206571, Note_off_c, 0, 72, 56
1, 206631, Note_on_c, 0, 56, 50
1, 206631, Note_on_c, 0, 77, 64
1, 206634, Note_on_c, 0, 61, 53
1, 206637, Note_on_c, 0, 65, 47
1, 206637, Note_off_c, 0, 73, 59
1, 206673, Note_off_c, 0, 56, 59
1, 206680, Note_off_c, 0, 65, 59
1, 206684, Note_off_c, 0, 61, 54
1, 206704, Note_off_c, 0, 77, 63
1, 206705, Note_on_c, 0, 78, 68
1, 206789, Note_on_c, 0, 77, 67
1, 206805, Control_c, 0, 64, 107
1, 206820, Control_c, 0, 64, 73
1, 206834, Control_c, 0, 64, 51
1, 206849, Control_c, 0, 64, 0
1, 206859, Note_off_c, 0, 78, 58
1, 206861, Note_on_c, 0, 61, 48
1, 206864, Note_on_c, 0, 75, 75
1, 206870, Note_on_c, 0, 65, 31
1, 206871, Note_on_c, 0, 56, 50
1, 206878, Note_off_c, 0, 80, 32
1, 206881, Note_off_c, 0, 77, 63
1, 206896, Note_off_c, 0, 61, 64
1, 206900, Note_off_c, 0, 65, 33
1, 206914, Note_off_c, 0, 56, 64
1, 206927, Note_off_c, 0, 75, 64
1, 206937, Note_on_c, 0, 74, 72
1, 206978, Note_off_c, 0, 74, 49
1, 207012, Note_on_c, 0, 73, 72
1, 207049, Note_off_c, 0, 73, 64
1, 207087, Note_on_c, 0, 44, 63
1, 207087, Control_c, 0, 64, 46
1, 207088, Note_on_c, 0, 73, 57
1, 207094, Note_on_c, 0, 80, 67
1, 207102, Control_c, 0, 64, 69
1, 207118, Control_c, 0, 64, 77
1, 207120, Note_off_c, 0, 44, 65
1, 207132, Control_c, 0, 64, 86
1, 207147, Control_c, 0, 64, 95
1, 207162, Control_c, 0, 64, 106
1, 207168, Note_on_c, 0, 75, 64
1, 207168, Note_off_c, 0, 73, 36
1, 207177, Control_c, 0, 64, 127
1, 207212, Note_off_c, 0, 80, 53
1, 207232, Note_off_c, 0, 75, 64
1, 207240, Note_on_c, 0, 73, 73
1, 207275, Note_off_c, 0, 73, 56
1, 207320, Note_on_c, 0, 70, 73
1, 207321, Note_on_c, 0, 56, 50
1, 207322, Note_on_c, 0, 66, 51
1, 207338, Note_on_c, 0, 63, 46
1, 207344, Note_off_c, 0, 56, 62
1, 207347, Note_off_c, 0, 66, 60
1, 207355, Control_c, 0, 64, 94
1, 207367, Note_off_c, 0, 63, 61
1, 207367, Note_off_c, 0, 70, 61
1, 207370, Control_c, 0, 64, 71
1, 207385, Control_c, 0, 64, 47
1, 207393, Note_on_c, 0, 69, 69
1, 207400, Control_c, 0, 64, 0
1, 207424, Note_off_c, 0, 69, 59
1, 207463, Note_on_c, 0, 70, 62
1, 207490, Note_off_c, 0, 70, 66
1, 207555, Note_on_c, 0, 80, 71
1, 207563, Note_on_c, 0, 72, 64
1, 207575, Note_on_c, 0, 56, 38
1, 207584, Control_c, 0, 64, 38
1, 207589, Note_off_c, 0, 72, 67
1, 207594, Note_on_c, 0, 63, 24
1, 207594, Note_off_c, 0, 80, 62
1, 207599, Control_c, 0, 64, 71
1, 207614, Control_c, 0, 64, 80
1, 207629, Note_off_c, 0, 56, 62
1, 207629, Control_c, 0, 64, 92
1, 207636, Note_off_c, 0, 63, 35
1, 207644, Control_c, 0, 64, 109
1, 207658, Control_c, 0, 64, 127
1, 207800, Note_on_c, 0, 44, 64
1, 207806, Control_c, 0, 67, 8
1, 207821, Control_c, 0, 67, 10
1, 207830, Note_off_c, 0, 44, 66
1, 207836, Control_c, 0, 67, 12
1, 207852, Control_c, 0, 67, 13
1, 207867, Control_c, 0, 67, 14
1, 207881, Control_c, 0, 67, 15
1, 207896, Control_c, 0, 67, 16
1, 207911, Control_c, 0, 67, 17
1, 207926, Control_c, 0, 67, 17
1, 207928, Note_on_c, 0, 84, 64
1, 207929, Note_on_c, 0, 92, 65
1, 207941, Control_c, 0, 67, 18
1, 207952, Note_off_c, 0, 84, 68
1, 207955, Control_c, 0, 67, 18
1, 207960, Note_off_c, 0, 92, 61
1, 207970, Control_c, 0, 67, 19
1, 207999, Control_c, 0, 67, 19
1, 208014, Control_c, 0, 67, 20
1, 208041, Note_on_c, 0, 93, 78
1, 208044, Control_c, 0, 67, 20
1, 208047, Note_on_c, 0, 56, 55
1, 208051, Note_on_c, 0, 85, 62
1, 208052, Note_on_c, 0, 66, 52
1, 208059, Control_c, 0, 67, 21
1, 208065, Note_on_c, 0, 63, 48
1, 208074, Control_c, 0, 64, 111
1, 208077, Note_off_c, 0, 93, 59
1, 208079, Note_off_c, 0, 85, 65
1, 208080, Note_off_c, 0, 66, 59
1, 208080, Note_off_c, 0, 56, 63
1, 208089, Control_c, 0, 64, 79
1, 208096, Note_off_c, 0, 63, 62
1, 208104, Control_c, 0, 64, 58
1, 208119, Control_c, 0, 64, 0
1, 208119, Control_c, 0, 67, 21
1, 208145, Note_on_c, 0, 94, 77
1, 208157, Note_on_c, 0, 86, 65
1, 208163, Control_c, 0, 67, 22
1, 208171, Note_off_c, 0, 94, 64
1, 208183, Note_off_c, 0, 86, 68
1, 208193, Control_c, 0, 67, 21
1, 208244, Note_on_c, 0, 95, 81
1, 208250, Note_on_c, 0, 56, 53
1, 208254, Note_on_c, 0, 87, 75
1, 208259, Note_on_c, 0, 66, 21
1, 208264, Note_on_c, 0, 63, 23
1, 208288, Note_off_c, 0, 63, 46
1, 208289, Note_off_c, 0, 87, 62
1, 208293, Note_off_c, 0, 56, 63
1, 208296, Note_off_c, 0, 95, 64
1, 208307, Note_off_c, 0, 66, 29
1, 208348, Note_on_c, 0, 96, 87
1, 208358, Note_on_c, 0, 88, 75
1, 208390, Note_off_c, 0, 88, 60
1, 208395, Note_off_c, 0, 96, 64
1, 208467, Note_on_c, 0, 97, 83
1, 208470, Note_on_c, 0, 89, 77
1, 208481, Control_c, 0, 64, 33
1, 208482, Note_on_c, 0, 49, 60
1, 208483, Note_off_c, 0, 97, 71
1, 208491, Note_off_c, 0, 89, 70
1, 208496, Control_c, 0, 64, 67
1, 208511, Control_c, 0, 64, 79
1, 208511, Control_c, 0, 67, 22
1, 208513, Note_off_c, 0, 49, 64
1, 208526, Control_c, 0, 64, 91
1, 208526, Control_c, 0, 67, 22
1, 208541, Control_c, 0, 64, 117
1, 208541, Control_c, 0, 67, 23
1, 208555, Control_c, 0, 64, 127
1, 208555, Control_c, 0, 67, 24
1, 208570, Control_c, 0, 67, 26
1, 208585, Control_c, 0, 67, 27
1, 208613, Control_c, 0, 67, 27
1, 208628, Control_c, 0, 67, 28
1, 208643, Control_c, 0, 67, 30
1, 208659, Control_c, 0, 67, 31
1, 208674, Control_c, 0, 64, 114
1, 208674, Control_c, 0, 67, 33
1, 208689, Control_c, 0, 64, 84
1, 208689, Control_c, 0, 67, 36
1, 208703, Control_c, 0, 64, 65
1, 208703, Control_c, 0, 67, 39
1, 208718, Control_c, 0, 64, 41
1, 208718, Control_c, 0, 67, 43
1, 208728, Note_on_c, 0, 65, 45
1, 208730, Note_on_c, 0, 56, 45
1, 208733, Control_c, 0, 64, 0
1, 208733, Control_c, 0, 67, 48
1, 208748, Control_c, 0, 67, 53
1, 208763, Control_c, 0, 67, 60
1, 208771, Note_off_c, 0, 65, 64
1, 208773, Note_off_c, 0, 56, 64
1, 208777, Control_c, 0, 67, 69
1, 208792, Control_c, 0, 67, 76
1, 208807, Control_c, 0, 67, 81
1, 208822, Control_c, 0, 67, 87
1, 208837, Control_c, 0, 67, 93
1, 208852, Control_c, 0, 67, 96
1, 208867, Control_c, 0, 67, 97
1, 208941, Control_c, 0, 67, 98
1, 208956, Control_c, 0, 67, 98
1, 208980, Note_on_c, 0, 73, 53
1, 208985, Control_c, 0, 67, 100
1, 208998, Note_on_c, 0, 56, 43
1, 209000, Control_c, 0, 67, 102
1, 209001, Note_on_c, 0, 65, 25
1, 209004, Note_on_c, 0, 61, 37
1, 209015, Control_c, 0, 67, 105
1, 209029, Note_off_c, 0, 65, 50
1, 209037, Control_c, 0, 67, 108
1, 209042, Note_off_c, 0, 61, 60
1, 209046, Note_off_c, 0, 56, 64
1, 209052, Control_c, 0, 67, 111
1, 209066, Control_c, 0, 67, 115
1, 209081, Control_c, 0, 67, 119
1, 209096, Control_c, 0, 67, 121
1, 209111, Control_c, 0, 67, 123
1, 209126, Control_c, 0, 67, 125
1, 209141, Control_c, 0, 67, 127
1, 209246, Note_on_c, 0, 49, 44
1, 209254, Note_on_c, 0, 80, 53
1, 209259, Control_c, 0, 64, 31
1, 209274, Control_c, 0, 64, 51
1, 209289, Note_off_c, 0, 49, 64
1, 209289, Note_off_c, 0, 73, 54
1, 209289, Control_c, 0, 64, 59
1, 209303, Control_c, 0, 64, 61
1, 209318, Control_c, 0, 64, 62
1, 209333, Control_c, 0, 64, 62
1, 209337, Note_on_c, 0, 72, 47
1, 209399, Note_off_c, 0, 72, 53
1, 209407, Control_c, 0, 64, 61
1, 209422, Control_c, 0, 64, 60
1, 209425, Note_on_c, 0, 73, 52
1, 209436, Control_c, 0, 64, 54
1, 209452, Control_c, 0, 64, 40
1, 209467, Control_c, 0, 64, 0
1, 209486, Note_off_c, 0, 73, 57
1, 209496, Note_on_c, 0, 77, 53
1, 209497, Note_on_c, 0, 61, 47
1, 209504, Note_on_c, 0, 65, 37
1, 209505, Note_on_c, 0, 56, 37
1, 209537, Note_off_c, 0, 65, 62
1, 209542, Note_off_c, 0, 56, 64
1, 209542, Note_off_c, 0, 61, 62
1, 209543, Note_off_c, 0, 77, 63
1, 209574, Note_on_c, 0, 78, 58
1, 209639, Note_on_c, 0, 77, 56
1, 209687, Note_off_c, 0, 78, 57
1, 209690, Note_off_c, 0, 80, 40
1, 209712, Note_on_c, 0, 75, 62
1, 209717, Note_off_c, 0, 77, 63
1, 209720, Note_on_c, 0, 61, 45
1, 209723, Note_on_c, 0, 56, 43
1, 209748, Note_off_c, 0, 61, 63
1, 209761, Note_off_c, 0, 56, 63
1, 209767, Note_off_c, 0, 75, 63
1, 209789, Note_on_c, 0, 74, 63
1, 209819, Note_off_c, 0, 74, 61
1, 209862, Note_on_c, 0, 73, 62
1, 209893, Note_off_c, 0, 73, 62
1, 209934, Control_c, 0, 64, 47
1, 209942, Note_on_c, 0, 44, 59
1, 209943, Note_on_c, 0, 73, 62
1, 209949, Control_c, 0, 64, 63
1, 209951, Note_on_c, 0, 80, 54
1, 209964, Control_c, 0, 64, 67
1, 209966, Note_off_c, 0, 44, 58
1, 209978, Control_c, 0, 64, 71
1, 209988, Note_off_c, 0, 73, 53
1, 209993, Control_c, 0, 64, 75
1, 210008, Control_c, 0, 64, 78
1, 210020, Note_on_c, 0, 75, 60
1, 210023, Control_c, 0, 64, 80
1, 210038, Control_c, 0, 64, 81
1, 210041, Note_off_c, 0, 80, 58
1, 210074, Note_off_c, 0, 75, 62
1, 210093, Note_on_c, 0, 73, 62
1, 210097, Control_c, 0, 64, 80
1, 210112, Control_c, 0, 64, 75
1, 210113, Note_off_c, 0, 73, 65
1, 210126, Control_c, 0, 64, 65
1, 210141, Control_c, 0, 64, 45
1, 210156, Control_c, 0, 64, 0
1, 210172, Note_on_c, 0, 70, 60
1, 210172, Note_on_c, 0, 56, 46
1, 210175, Note_on_c, 0, 66, 45
1, 210182, Note_on_c, 0, 63, 41
1, 210197, Note_off_c, 0, 56, 60
1, 210200, Note_off_c, 0, 66, 56
1, 210209, Note_off_c, 0, 63, 57
1, 210216, Note_off_c, 0, 70, 60
1, 210235, Note_on_c, 0, 69, 63
1, 210264, Note_off_c, 0, 69, 64
1, 210315, Note_on_c, 0, 70, 53
1, 210348, Note_off_c, 0, 70, 64
1, 210405, Note_on_c, 0, 80, 60
1, 210414, Note_on_c, 0, 72, 56
1, 210421, Note_on_c, 0, 56, 39
1, 210423, Control_c, 0, 64, 50
1, 210433, Note_off_c, 0, 72, 64
1, 210438, Control_c, 0, 64, 65
1, 210441, Note_off_c, 0, 80, 62
1, 210453, Control_c, 0, 64, 69
1, 210467, Control_c, 0, 64, 73
1, 210475, Note_off_c, 0, 56, 61
1, 210482, Control_c, 0, 64, 79
1, 210497, Control_c, 0, 64, 85
1, 210508, Poly_aftertouch_c, 0, 63, 0
1, 210512, Control_c, 0, 64, 90
1, 210535, Control_c, 0, 64, 94
1, 210549, Control_c, 0, 64, 97
1, 210564, Control_c, 0, 64, 100
1, 210579, Control_c, 0, 64, 101
1, 210670, Note_on_c, 0, 44, 60
1, 210700, Note_off_c, 0, 44, 64
1, 210793, Note_on_c, 0, 84, 58
1, 210808, Note_on_c, 0, 92, 51
1, 210822, Note_off_c, 0, 84, 67
1, 210829, Note_off_c, 0, 92, 60
1, 210921, Note_on_c, 0, 93, 62
1, 210928, Note_on_c, 0, 85, 53
1, 210930, Note_on_c, 0, 56, 47
1, 210935, Note_on_c, 0, 66, 41
1, 210940, Note_on_c, 0, 63, 44
1, 210950, Note_off_c, 0, 93, 65
1, 210956, Note_off_c, 0, 56, 60
1, 210960, Note_off_c, 0, 85, 60
1, 210965, Control_c, 0, 64, 100
1, 210965, Note_off_c, 0, 66, 53
1, 210968, Note_off_c, 0, 63, 59
1, 210980, Control_c, 0, 64, 98
1, 210994, Control_c, 0, 64, 93
1, 211009, Control_c, 0, 64, 84
1, 211024, Control_c, 0, 64, 73
1, 211025, Note_on_c, 0, 86, 69
1, 211028, Note_on_c, 0, 94, 67
1, 211039, Control_c, 0, 64, 60
1, 211051, Note_off_c, 0, 86, 67
1, 211055, Control_c, 0, 64, 34
1, 211059, Note_off_c, 0, 94, 63
1, 211070, Control_c, 0, 64, 0
1, 211131, Note_on_c, 0, 95, 70
1, 211132, Note_on_c, 0, 87, 68
1, 211135, Note_on_c, 0, 56, 44
1, 211144, Note_on_c, 0, 66, 31
1, 211149, Note_on_c, 0, 63, 28
1, 211157, Note_off_c, 0, 95, 61
1, 211161, Note_off_c, 0, 87, 62
1, 211164, Note_off_c, 0, 66, 45
1, 211169, Note_off_c, 0, 63, 51
1, 211180, Note_off_c, 0, 56, 64
1, 211228, Note_on_c, 0, 96, 71
1, 211237, Note_on_c, 0, 88, 63
1, 211262, Note_off_c, 0, 88, 64
1, 211263, Note_off_c, 0, 96, 57
1, 211349, Note_on_c, 0, 97, 72
1, 211353, Note_on_c, 0, 89, 65
1, 211368, Note_on_c, 0, 49, 56
1, 211371, Note_off_c, 0, 97, 68
1, 211373, Control_c, 0, 64, 40
1, 211377, Note_off_c, 0, 89, 69
1, 211388, Control_c, 0, 64, 57
1, 211403, Control_c, 0, 64, 64
1, 211415, Note_off_c, 0, 49, 63
1, 211418, Control_c, 0, 64, 67
1, 211432, Control_c, 0, 64, 72
1, 211447, Control_c, 0, 64, 80
1, 211462, Control_c, 0, 64, 89
1, 211477, Control_c, 0, 64, 98
1, 211492, Control_c, 0, 64, 108
1, 211506, Control_c, 0, 64, 127
1, 211610, Control_c, 0, 67, 126
1, 211624, Control_c, 0, 67, 122
1, 211639, Note_on_c, 0, 56, 37
1, 211639, Control_c, 0, 67, 119
1, 211651, Note_on_c, 0, 61, 37
1, 211654, Note_on_c, 0, 65, 35
1, 211654, Control_c, 0, 67, 115
1, 211669, Control_c, 0, 67, 111
1, 211678, Note_off_c, 0, 56, 58
1, 211684, Control_c, 0, 67, 106
1, 211699, Control_c, 0, 67, 100
1, 211702, Note_off_c, 0, 61, 55
1, 211705, Note_off_c, 0, 65, 55
1, 211714, Control_c, 0, 67, 93
1, 211728, Control_c, 0, 67, 86
1, 211743, Control_c, 0, 67, 78
1, 211758, Control_c, 0, 67, 71
1, 211773, Control_c, 0, 67, 63
1, 211788, Control_c, 0, 67, 53
1, 211803, Control_c, 0, 67, 45
1, 211817, Control_c, 0, 67, 36
1, 211832, Control_c, 0, 67, 27
1, 211848, Control_c, 0, 67, 16
1, 211863, Control_c, 0, 67, 9
1, 211877, Control_c, 0, 67, 8
1, 211907, Control_c, 0, 67, 8
1, 211911, Note_on_c, 0, 73, 66
1, 211922, Control_c, 0, 67, 0
1, 211932, Note_on_c, 0, 56, 40
1, 211937, Note_on_c, 0, 65, 19
1, 211976, Note_off_c, 0, 65, 38
1, 212001, Note_off_c, 0, 56, 58
1, 212032, Poly_aftertouch_c, 0, 61, 0
1, 212152, Control_c, 0, 64, 89
1, 212167, Control_c, 0, 64, 71
1, 212181, Control_c, 0, 64, 61
1, 212185, Note_on_c, 0, 49, 57
1, 212196, Control_c, 0, 64, 62
1, 212211, Control_c, 0, 64, 72
1, 212226, Control_c, 0, 64, 87
1, 212230, Note_off_c, 0, 73, 62
1, 212241, Control_c, 0, 64, 119
1, 212255, Control_c, 0, 64, 127
1, 212296, Note_off_c, 0, 49, 62
1, 212330, Note_on_c, 0, 76, 68
1, 212340, Note_on_c, 0, 85, 60
1, 212391, Note_off_c, 0, 76, 61
1, 212410, Note_off_c, 0, 85, 60
1, 212503, Note_on_c, 0, 77, 73
1, 212517, Note_on_c, 0, 85, 65
1, 212522, Note_on_c, 0, 56, 38
1, 212532, Note_on_c, 0, 65, 38
1, 212533, Note_on_c, 0, 61, 39
1, 212536, Control_c, 0, 67, 8
1, 212551, Control_c, 0, 67, 9
1, 212563, Note_off_c, 0, 85, 59
1, 212565, Control_c, 0, 67, 10
1, 212570, Note_off_c, 0, 77, 61
1, 212580, Control_c, 0, 67, 11
1, 212595, Control_c, 0, 67, 12
1, 212597, Note_off_c, 0, 56, 48
1, 212610, Control_c, 0, 67, 14
1, 212625, Control_c, 0, 67, 16
1, 212641, Control_c, 0, 67, 17
1, 212647, Note_on_c, 0, 78, 73
1, 212655, Control_c, 0, 67, 19
1, 212661, Note_on_c, 0, 85, 61
1, 212670, Control_c, 0, 67, 20
1, 212679, Note_off_c, 0, 65, 33
1, 212682, Note_off_c, 0, 61, 29
1, 212685, Control_c, 0, 67, 21
1, 212700, Control_c, 0, 67, 22
1, 212714, Note_off_c, 0, 85, 54
1, 212714, Control_c, 0, 67, 24
1, 212720, Note_off_c, 0, 78, 57
1, 212729, Control_c, 0, 67, 26
1, 212744, Control_c, 0, 67, 28
1, 212759, Control_c, 0, 67, 31
1, 212781, Control_c, 0, 67, 34
1, 212796, Control_c, 0, 67, 38
1, 212810, Control_c, 0, 67, 42
1, 212812, Note_on_c, 0, 79, 66
1, 212825, Control_c, 0, 67, 47
1, 212831, Note_on_c, 0, 65, 25
1, 212840, Control_c, 0, 67, 52
1, 212852, Note_on_c, 0, 85, 22
1, 212852, Note_on_c, 0, 56, 28
1, 212855, Control_c, 0, 67, 58
1, 212865, Note_on_c, 0, 61, 28
1, 212867, Note_off_c, 0, 65, 54
1, 212870, Control_c, 0, 67, 64
1, 212878, Note_off_c, 0, 79, 57
1, 212885, Control_c, 0, 67, 72
1, 212891, Note_off_c, 0, 85, 38
1, 212900, Control_c, 0, 67, 79
1, 212904, Note_off_c, 0, 61, 52
1, 212909, Note_off_c, 0, 56, 57
1, 212915, Control_c, 0, 67, 86
1, 212929, Control_c, 0, 67, 92
1, 212944, Control_c, 0, 67, 98
1, 212959, Control_c, 0, 67, 104
1, 212974, Control_c, 0, 67, 109
1, 212974, Note_on_c, 0, 80, 60
1, 212980, Note_on_c, 0, 85, 56
1, 212989, Control_c, 0, 67, 116
1, 213003, Control_c, 0, 67, 121
1, 213018, Control_c, 0, 67, 125
1, 213030, Note_off_c, 0, 85, 49
1, 213033, Control_c, 0, 67, 127
1, 213050, Note_off_c, 0, 80, 51
1, 213195, Control_c, 0, 64, 94
1, 213210, Control_c, 0, 64, 74
1, 213225, Control_c, 0, 64, 56
1, 213227, Note_on_c, 0, 85, 42
1, 213237, Note_on_c, 0, 79, 49
1, 213240, Control_c, 0, 64, 29
1, 213255, Control_c, 0, 64, 0
1, 213261, Note_on_c, 0, 45, 39
1, 213284, Control_c, 0, 64, 17
1, 213299, Control_c, 0, 64, 44
1, 213313, Control_c, 0, 64, 60
1, 213328, Control_c, 0, 64, 68
1, 213343, Control_c, 0, 64, 73
1, 213349, Note_off_c, 0, 45, 60
1, 213358, Control_c, 0, 64, 81
1, 213373, Control_c, 0, 64, 90
1, 213387, Control_c, 0, 64, 99
1, 213402, Control_c, 0, 64, 105
1, 213411, Note_off_c, 0, 85, 57
1, 213413, Note_off_c, 0, 79, 59
1, 213417, Control_c, 0, 64, 111
1, 213432, Control_c, 0, 64, 121
1, 213448, Control_c, 0, 64, 127
1, 213690, Note_on_c, 0, 61, 36
1, 213694, Note_on_c, 0, 55, 38
1, 213702, Note_on_c, 0, 64, 35
1, 213762, Note_off_c, 0, 55, 57
1, 213768, Note_off_c, 0, 64, 56
1, 213781, Note_off_c, 0, 61, 51
1, 214004, Note_on_c, 0, 85, 58
1, 214004, Control_c, 0, 64, 101
1, 214015, Note_on_c, 0, 73, 54
1, 214018, Control_c, 0, 64, 83
1, 214028, Note_on_c, 0, 64, 40
1, 214033, Control_c, 0, 64, 65
1, 214043, Note_on_c, 0, 55, 41
1, 214048, Control_c, 0, 64, 45
1, 214051, Note_on_c, 0, 61, 26
1, 214057, Note_off_c, 0, 64, 57
1, 214063, Control_c, 0, 64, 0
1, 214079, Note_off_c, 0, 61, 52
1, 214093, Note_off_c, 0, 55, 63
1, 214152, Control_c, 0, 64, 33
1, 214167, Control_c, 0, 64, 59
1, 214182, Control_c, 0, 64, 68
1, 214197, Control_c, 0, 64, 74
1, 214211, Control_c, 0, 64, 83
1, 214226, Control_c, 0, 64, 92
1, 214241, Control_c, 0, 64, 101
1, 214256, Control_c, 0, 64, 107
1, 214274, Note_off_c, 0, 73, 61
1, 214279, Control_c, 0, 64, 114
1, 214292, Note_on_c, 0, 45, 54
1, 214294, Control_c, 0, 64, 127
1, 214299, Note_off_c, 0, 85, 59
1, 214330, Note_off_c, 0, 45, 58
1, 214412, Note_on_c, 0, 76, 60
1, 214417, Note_on_c, 0, 85, 52
1, 214453, Note_off_c, 0, 76, 54
1, 214480, Note_off_c, 0, 85, 56
1, 214606, Note_on_c, 0, 85, 57
1, 214622, Note_on_c, 0, 79, 51
1, 214632, Note_on_c, 0, 55, 36
1, 214633, Note_on_c, 0, 64, 36
1, 214646, Note_on_c, 0, 61, 25
1, 214696, Note_off_c, 0, 55, 55
1, 214712, Note_on_c, 0, 83, 62
1, 214741, Note_off_c, 0, 79, 31
1, 214762, Note_off_c, 0, 85, 50
1, 214766, Note_off_c, 0, 61, 27
1, 214776, Note_off_c, 0, 64, 36
1, 214795, Note_on_c, 0, 82, 69
1, 214802, Note_off_c, 0, 83, 61
1, 214879, Note_off_c, 0, 82, 61
1, 214885, Note_on_c, 0, 85, 69
1, 214891, Note_on_c, 0, 81, 64
1, 214912, Note_on_c, 0, 61, 30
1, 214925, Note_on_c, 0, 55, 14
1, 214936, Note_off_c, 0, 81, 57
1, 214947, Note_off_c, 0, 55, 50
1, 214951, Note_off_c, 0, 61, 40
1, 214977, Note_on_c, 0, 80, 66
1, 214997, Note_off_c, 0, 85, 62
1, 215049, Note_off_c, 0, 80, 64
1, 215064, Note_on_c, 0, 79, 69
1, 215088, Note_off_c, 0, 79, 67
1, 215175, Control_c, 0, 64, 103
1, 215189, Control_c, 0, 64, 74
1, 215204, Control_c, 0, 64, 52
1, 215216, Note_on_c, 0, 90, 68
1, 215219, Control_c, 0, 64, 0
1, 215228, Note_on_c, 0, 78, 61
1, 215237, Note_on_c, 0, 38, 55
1, 215264, Control_c, 0, 64, 49
1, 215266, Note_off_c, 0, 78, 55
1, 215279, Control_c, 0, 64, 65
1, 215285, Note_off_c, 0, 38, 65
1, 215294, Control_c, 0, 64, 72
1, 215303, Note_off_c, 0, 90, 61
1, 215308, Control_c, 0, 64, 80
1, 215313, Note_on_c, 0, 85, 54
1, 215323, Control_c, 0, 64, 88
1, 215338, Control_c, 0, 64, 94
1, 215353, Control_c, 0, 64, 98
1, 215368, Control_c, 0, 64, 100
1, 215383, Note_off_c, 0, 85, 59
1, 215383, Control_c, 0, 64, 101
1, 215387, Note_on_c, 0, 86, 61
1, 215427, Control_c, 0, 64, 100
1, 215442, Control_c, 0, 64, 97
1, 215457, Control_c, 0, 64, 80
1, 215465, Note_on_c, 0, 84, 62
1, 215465, Note_off_c, 0, 86, 58
1, 215471, Control_c, 0, 64, 64
1, 215486, Control_c, 0, 64, 29
1, 215497, Note_on_c, 0, 66, 42
1, 215499, Note_on_c, 0, 54, 45
1, 215501, Control_c, 0, 64, 0
1, 215523, Note_off_c, 0, 54, 53
1, 215524, Note_off_c, 0, 66, 59
1, 215529, Note_on_c, 0, 62, 16
1, 215543, Note_off_c, 0, 84, 65
1, 215557, Note_on_c, 0, 85, 54
1, 215562, Note_off_c, 0, 62, 43
1, 215630, Note_off_c, 0, 85, 64
1, 215634, Note_on_c, 0, 82, 63
1, 215723, Note_off_c, 0, 82, 60
1, 215744, Note_on_c, 0, 90, 68
1, 215764, Note_on_c, 0, 83, 51
1, 215790, Note_on_c, 0, 66, 26
1, 215794, Note_on_c, 0, 59, 39
1, 215809, Note_off_c, 0, 66, 48
1, 215824, Note_off_c, 0, 59, 61
1, 216012, Control_c, 0, 64, 34
1, 216014, Note_on_c, 0, 50, 49
1, 216027, Control_c, 0, 64, 58
1, 216042, Control_c, 0, 64, 65
1, 216046, Note_off_c, 0, 50, 65
1, 216057, Control_c, 0, 64, 69
1, 216072, Control_c, 0, 64, 76
1, 216074, Note_off_c, 0, 83, 29
1, 216076, Note_off_c, 0, 90, 62
1, 216086, Control_c, 0, 64, 85
1, 216101, Control_c, 0, 64, 94
1, 216110, Note_on_c, 0, 89, 58
1, 216116, Control_c, 0, 64, 100
1, 216131, Control_c, 0, 64, 105
1, 216146, Control_c, 0, 64, 109
1, 216161, Control_c, 0, 64, 112
1, 216176, Control_c, 0, 64, 112
1, 216182, Note_off_c, 0, 89, 60
1, 216188, Note_on_c, 0, 90, 70
1, 216220, Control_c, 0, 64, 112
1, 216235, Control_c, 0, 64, 104
1, 216250, Control_c, 0, 64, 86
1, 216251, Note_off_c, 0, 90, 62
1, 216259, Note_on_c, 0, 93, 63
1, 216264, Control_c, 0, 64, 68
1, 216269, Note_on_c, 0, 62, 55
1, 216271, Note_on_c, 0, 66, 45
1, 216278, Note_on_c, 0, 83, 42
1, 216279, Control_c, 0, 64, 37
1, 216294, Control_c, 0, 64, 0
1, 216297, Note_off_c, 0, 66, 50
1, 216307, Note_off_c, 0, 62, 63
1, 216331, Note_off_c, 0, 93, 65
1, 216343, Note_on_c, 0, 95, 69
1, 216412, Note_on_c, 0, 93, 68
1, 216440, Note_off_c, 0, 95, 58
1, 216481, Note_off_c, 0, 93, 63
1, 216486, Note_on_c, 0, 62, 52
1, 216486, Note_on_c, 0, 92, 68
1, 216489, Note_off_c, 0, 83, 0
1, 216504, Note_on_c, 0, 66, 23
1, 216523, Note_off_c, 0, 62, 67
1, 216530, Note_off_c, 0, 66, 34
1, 216543, Poly_aftertouch_c, 0, 83, 0
1, 216546, Note_off_c, 0, 92, 61
1, 216569, Note_on_c, 0, 91, 79
1, 216639, Note_off_c, 0, 91, 64
1, 216643, Note_on_c, 0, 90, 68
1, 216662, Note_off_c, 0, 90, 70
1, 216732, Control_c, 0, 64, 41
1, 216733, Note_on_c, 0, 52, 55
1, 216736, Note_on_c, 0, 88, 61
1, 216740, Note_on_c, 0, 83, 57
1, 216747, Control_c, 0, 64, 63
1, 216759, Note_off_c, 0, 52, 62
1, 216762, Control_c, 0, 64, 67
1, 216763, Note_off_c, 0, 83, 54
1, 216776, Control_c, 0, 64, 68
1, 216791, Control_c, 0, 64, 70
1, 216802, Note_on_c, 0, 85, 56
1, 216806, Control_c, 0, 64, 72
1, 216821, Control_c, 0, 64, 73
1, 216835, Control_c, 0, 64, 74
1, 216850, Control_c, 0, 64, 75
1, 216861, Note_off_c, 0, 85, 63
1, 216867, Note_on_c, 0, 83, 61
1, 216894, Control_c, 0, 64, 73
1, 216909, Control_c, 0, 64, 68
1, 216923, Note_off_c, 0, 83, 56
1, 216924, Control_c, 0, 64, 58
1, 216939, Control_c, 0, 64, 22
1, 216948, Note_on_c, 0, 82, 58
1, 216954, Control_c, 0, 64, 0
1, 216966, Note_on_c, 0, 61, 52
1, 216968, Note_on_c, 0, 64, 50
1, 216990, Note_off_c, 0, 61, 61
1, 216993, Note_off_c, 0, 64, 63
1, 216995, Note_off_c, 0, 88, 47
1, 217002, Note_off_c, 0, 82, 60
1, 217018, Note_on_c, 0, 83, 54
1, 217084, Note_off_c, 0, 83, 65
1, 217100, Note_on_c, 0, 82, 47
1, 217157, Note_off_c, 0, 82, 55
1, 217189, Note_on_c, 0, 88, 50
1, 217193, Note_on_c, 0, 81, 52
1, 217224, Note_on_c, 0, 64, 44
1, 217225, Note_on_c, 0, 61, 47
1, 217249, Note_off_c, 0, 64, 55
1, 217255, Note_off_c, 0, 61, 65
1, 217466, Control_c, 0, 64, 36
1, 217481, Control_c, 0, 64, 57
1, 217485, Note_off_c, 0, 88, 62
1, 217496, Control_c, 0, 64, 64
1, 217498, Note_off_c, 0, 81, 63
1, 217510, Control_c, 0, 64, 67
1, 217523, Note_on_c, 0, 41, 11
1, 217525, Control_c, 0, 64, 72
1, 217540, Control_c, 0, 64, 80
1, 217555, Control_c, 0, 64, 90
1, 217568, Note_off_c, 0, 41, 28
1, 217570, Control_c, 0, 64, 99
1, 217585, Control_c, 0, 64, 106
1, 217600, Control_c, 0, 64, 114
1, 217615, Control_c, 0, 64, 122
1, 217630, Control_c, 0, 64, 127
1, 217727, Note_on_c, 0, 76, 62
1, 217733, Control_c, 0, 64, 118
1, 217745, Note_on_c, 0, 69, 50
1, 217748, Control_c, 0, 64, 101
1, 217750, Note_on_c, 0, 64, 38
1, 217762, Note_on_c, 0, 61, 47
1, 217763, Control_c, 0, 64, 85
1, 217774, Note_off_c, 0, 69, 59
1, 217778, Control_c, 0, 64, 71
1, 217791, Note_off_c, 0, 64, 53
1, 217792, Control_c, 0, 64, 55
1, 217799, Note_off_c, 0, 61, 56
1, 217807, Control_c, 0, 64, 15
1, 217809, Note_on_c, 0, 73, 60
1, 217822, Control_c, 0, 64, 0
1, 217843, Note_off_c, 0, 76, 50
1, 217874, Note_on_c, 0, 72, 61
1, 217896, Note_off_c, 0, 73, 60
1, 217943, Note_off_c, 0, 72, 64
1, 217951, Note_on_c, 0, 71, 67
1, 217961, Note_on_c, 0, 61, 57
1, 217970, Note_on_c, 0, 64, 43
1, 217994, Note_off_c, 0, 64, 57
1, 218013, Note_off_c, 0, 71, 59
1, 218016, Note_off_c, 0, 61, 59
1, 218030, Note_on_c, 0, 70, 74
1, 218082, Note_off_c, 0, 70, 62
1, 218110, Note_on_c, 0, 69, 57
1, 218147, Note_off_c, 0, 69, 58
1, 218176, Note_on_c, 0, 78, 72
1, 218186, Note_on_c, 0, 52, 57
1, 218215, Control_c, 0, 64, 58
1, 218226, Note_off_c, 0, 52, 58
1, 218230, Control_c, 0, 64, 64
1, 218245, Control_c, 0, 64, 64
1, 218262, Poly_aftertouch_c, 0, 69, 0
1, 218262, Note_off_c, 0, 78, 62
1, 218273, Note_on_c, 0, 80, 68
1, 218274, Control_c, 0, 64, 65
1, 218289, Control_c, 0, 64, 65
1, 218299, Poly_aftertouch_c, 0, 69, 127
1, 218304, Control_c, 0, 64, 66
1, 218347, Poly_aftertouch_c, 0, 69, 0
1, 218352, Note_on_c, 0, 78, 54
1, 218394, Control_c, 0, 64, 65
1, 218406, Note_off_c, 0, 78, 61
1, 218409, Control_c, 0, 64, 62
1, 218412, Note_off_c, 0, 80, 57
1, 218413, Note_on_c, 0, 59, 59
1, 218416, Note_on_c, 0, 77, 64
1, 218423, Control_c, 0, 64, 48
1, 218426, Note_on_c, 0, 64, 44
1, 218429, Note_on_c, 0, 62, 32
1, 218438, Control_c, 0, 64, 0
1, 218450, Note_off_c, 0, 59, 59
1, 218456, Note_off_c, 0, 64, 54
1, 218458, Note_off_c, 0, 62, 51
1, 218483, Note_on_c, 0, 79, 62
1, 218483, Note_off_c, 0, 77, 63
1, 218560, Note_off_c, 0, 79, 60
1, 218566, Note_on_c, 0, 77, 54
1, 218633, Note_off_c, 0, 77, 54
1, 218652, Note_on_c, 0, 68, 54
1, 218653, Note_on_c, 0, 76, 67
1, 218659, Control_c, 0, 64, 37
1, 218674, Control_c, 0, 64, 61
1, 218679, Note_off_c, 0, 68, 67
1, 218682, Note_off_c, 0, 76, 64
1, 218689, Control_c, 0, 64, 66
1, 218690, Note_on_c, 0, 59, 42
1, 218704, Control_c, 0, 64, 70
1, 218711, Note_on_c, 0, 64, 19
1, 218719, Control_c, 0, 64, 78
1, 218731, Note_off_c, 0, 59, 65
1, 218734, Control_c, 0, 64, 87
1, 218748, Control_c, 0, 64, 96
1, 218752, Note_off_c, 0, 64, 29
1, 218771, Control_c, 0, 64, 103
1, 218785, Control_c, 0, 64, 110
1, 218800, Control_c, 0, 64, 117
1, 218815, Control_c, 0, 64, 122
1, 218830, Control_c, 0, 64, 124
1, 218945, Note_on_c, 0, 40, 53
1, 218970, Note_off_c, 0, 40, 49
1, 219075, Note_on_c, 0, 88, 50
1, 219081, Note_on_c, 0, 80, 49
1, 219117, Note_off_c, 0, 80, 64
1, 219123, Note_off_c, 0, 88, 54
1, 219204, Note_on_c, 0, 89, 75
1, 219211, Note_on_c, 0, 81, 68
1, 219228, Note_on_c, 0, 59, 54
1, 219230, Control_c, 0, 64, 122
1, 219231, Note_off_c, 0, 89, 63
1, 219235, Note_off_c, 0, 81, 68
1, 219245, Control_c, 0, 64, 118
1, 219260, Control_c, 0, 64, 110
1, 219261, Note_on_c, 0, 64, 26
1, 219266, Note_off_c, 0, 59, 61
1, 219275, Control_c, 0, 64, 101
1, 219289, Control_c, 0, 64, 90
1, 219297, Note_off_c, 0, 64, 42
1, 219304, Control_c, 0, 64, 78
1, 219317, Poly_aftertouch_c, 0, 62, 0
1, 219319, Control_c, 0, 64, 64
1, 219321, Note_on_c, 0, 90, 74
1, 219322, Note_on_c, 0, 82, 71
1, 219334, Control_c, 0, 64, 38
1, 219349, Control_c, 0, 64, 0
1, 219357, Note_off_c, 0, 82, 58
1, 219357, Note_off_c, 0, 90, 53
1, 219422, Note_on_c, 0, 91, 78
1, 219428, Note_on_c, 0, 83, 72
1, 219437, Note_on_c, 0, 62, 17
1, 219440, Note_on_c, 0, 59, 57
1, 219443, Note_on_c, 0, 64, 38
1, 219455, Note_off_c, 0, 83, 64
1, 219461, Note_off_c, 0, 91, 60
1, 219463, Note_off_c, 0, 62, 47
1, 219468, Note_off_c, 0, 59, 66
1, 219468, Note_off_c, 0, 64, 49
1, 219537, Note_on_c, 0, 92, 73
1, 219545, Note_on_c, 0, 84, 66
1, 219569, Note_off_c, 0, 84, 67
1, 219586, Note_off_c, 0, 92, 54
1, 219664, Note_on_c, 0, 93, 76
1, 219675, Note_on_c, 0, 85, 67
1, 219679, Note_on_c, 0, 45, 55
1, 219682, Note_off_c, 0, 93, 71
1, 219682, Control_c, 0, 64, 44
1, 219696, Control_c, 0, 64, 64
1, 219699, Note_off_c, 0, 85, 69
1, 219711, Control_c, 0, 64, 71
1, 219714, Note_off_c, 0, 45, 64
1, 219726, Control_c, 0, 64, 77
1, 219741, Control_c, 0, 64, 92
1, 219741, Control_c, 0, 67, 127
1, 219756, Control_c, 0, 64, 118
1, 219756, Control_c, 0, 67, 121
1, 219771, Control_c, 0, 64, 127
1, 219771, Control_c, 0, 67, 115
1, 219786, Control_c, 0, 67, 106
1, 219801, Control_c, 0, 67, 98
1, 219815, Control_c, 0, 67, 91
1, 219831, Control_c, 0, 67, 83
1, 219845, Control_c, 0, 67, 77
1, 219860, Control_c, 0, 67, 69
1, 219875, Control_c, 0, 67, 61
1, 219890, Control_c, 0, 67, 50
1, 219905, Control_c, 0, 67, 42
1, 219920, Control_c, 0, 67, 34
1, 219935, Control_c, 0, 67, 25
1, 219950, Control_c, 0, 67, 15
1, 219965, Control_c, 0, 67, 10
1, 219979, Control_c, 0, 67, 9
1, 219994, Control_c, 0, 67, 8
1, 220009, Control_c, 0, 67, 0
1, 220024, Note_on_c, 0, 57, 39
1, 220024, Note_on_c, 0, 61, 35
1, 220027, Note_on_c, 0, 64, 38
1, 220069, Note_off_c, 0, 57, 60
1, 220078, Note_off_c, 0, 61, 58
1, 220079, Note_off_c, 0, 64, 60
1, 220350, Note_on_c, 0, 69, 48
1, 220353, Note_on_c, 0, 64, 27
1, 220374, Note_on_c, 0, 57, 40
1, 220376, Note_on_c, 0, 61, 15
1, 220383, Note_off_c, 0, 64, 44
1, 220403, Note_off_c, 0, 57, 59
1, 220424, Note_off_c, 0, 61, 36
1, 220505, Control_c, 0, 64, 83
1, 220519, Control_c, 0, 64, 62
1, 220534, Control_c, 0, 64, 29
1, 220549, Control_c, 0, 64, 0
1, 220607, Note_on_c, 0, 45, 57
1, 220620, Note_off_c, 0, 69, 65
1, 220640, Control_c, 0, 64, 49
1, 220654, Control_c, 0, 64, 65
1, 220665, Note_off_c, 0, 45, 59
1, 220669, Control_c, 0, 64, 72
1, 220684, Control_c, 0, 64, 81
1, 220699, Control_c, 0, 64, 97
1, 220714, Control_c, 0, 64, 127
1, 220924, Note_on_c, 0, 73, 64
1, 220954, Note_on_c, 0, 57, 42
1, 220957, Note_on_c, 0, 61, 39
1, 220971, Note_on_c, 0, 64, 34
1, 221016, Note_off_c, 0, 73, 62
1, 221023, Note_on_c, 0, 72, 69
1, 221082, Note_off_c, 0, 64, 35
1, 221089, Note_off_c, 0, 61, 34
1, 221100, Note_off_c, 0, 57, 33
1, 221106, Note_on_c, 0, 73, 76
1, 221138, Note_off_c, 0, 72, 55
1, 221185, Note_on_c, 0, 76, 76
1, 221194, Note_off_c, 0, 73, 62
1, 221208, Note_on_c, 0, 61, 51
1, 221214, Note_on_c, 0, 64, 38
1, 221215, Note_on_c, 0, 57, 49
1, 221243, Note_off_c, 0, 64, 48
1, 221247, Note_off_c, 0, 61, 64
1, 221260, Note_off_c, 0, 57, 59
1, 221266, Note_on_c, 0, 75, 77
1, 221298, Note_off_c, 0, 76, 61
1, 221348, Note_on_c, 0, 73, 75
1, 221351, Note_off_c, 0, 75, 63
1, 221387, Control_c, 0, 64, 110
1, 221402, Control_c, 0, 64, 75
1, 221405, Note_off_c, 0, 73, 63
1, 221417, Control_c, 0, 64, 52
1, 221433, Control_c, 0, 64, 0
1, 221461, Note_on_c, 0, 73, 74
1, 221476, Note_on_c, 0, 49, 57
1, 221507, Control_c, 0, 64, 51
1, 221522, Control_c, 0, 64, 68
1, 221537, Control_c, 0, 64, 80
1, 221547, Note_off_c, 0, 73, 61
1, 221551, Control_c, 0, 64, 101
1, 221566, Control_c, 0, 64, 127
1, 221575, Note_off_c, 0, 49, 62
1, 221855, Note_on_c, 0, 56, 37
1, 221866, Note_on_c, 0, 61, 35
1, 221872, Note_on_c, 0, 65, 36
1, 221926, Note_off_c, 0, 56, 52
1, 221938, Note_off_c, 0, 65, 53
1, 221993, Note_off_c, 0, 61, 34
1, 222153, Note_on_c, 0, 73, 65
1, 222168, Note_on_c, 0, 65, 45
1, 222169, Note_on_c, 0, 56, 51
1, 222171, Note_on_c, 0, 61, 36
1, 222191, Note_off_c, 0, 65, 58
1, 222196, Control_c, 0, 64, 89
1, 222210, Control_c, 0, 64, 66
1, 222216, Note_off_c, 0, 61, 62
1, 222220, Note_off_c, 0, 56, 60
1, 222226, Control_c, 0, 64, 39
1, 222241, Control_c, 0, 64, 0
1, 222420, Note_on_c, 0, 80, 69
1, 222432, Note_on_c, 0, 49, 61
1, 222448, Control_c, 0, 64, 42
1, 222463, Control_c, 0, 64, 65
1, 222478, Control_c, 0, 64, 71
1, 222493, Control_c, 0, 64, 78
1, 222510, Note_off_c, 0, 73, 49
1, 222515, Control_c, 0, 64, 91
1, 222516, Note_off_c, 0, 49, 57
1, 222530, Control_c, 0, 64, 122
1, 222537, Note_on_c, 0, 72, 67
1, 222545, Control_c, 0, 64, 127
1, 222619, Note_on_c, 0, 73, 70
1, 222636, Note_off_c, 0, 72, 51
1, 222695, Note_on_c, 0, 77, 66
1, 222707, Note_off_c, 0, 73, 57
1, 222713, Note_on_c, 0, 56, 45
1, 222713, Note_on_c, 0, 65, 49
1, 222719, Note_on_c, 0, 61, 49
1, 222755, Note_off_c, 0, 56, 61
1, 222761, Note_off_c, 0, 65, 56
1, 222764, Note_on_c, 0, 78, 72
1, 222769, Note_off_c, 0, 77, 62
1, 222770, Note_off_c, 0, 61, 55
1, 222847, Note_on_c, 0, 77, 62
1, 222912, Note_off_c, 0, 80, 35
1, 222918, Note_on_c, 0, 61, 51
1, 222918, Note_on_c, 0, 75, 73
1, 222920, Note_off_c, 0, 78, 59
1, 222922, Note_on_c, 0, 56, 54
1, 222925, Note_on_c, 0, 65, 21
1, 222934, Note_off_c, 0, 77, 64
1, 222949, Note_off_c, 0, 61, 65
1, 222960, Note_off_c, 0, 65, 30
1, 222962, Note_off_c, 0, 56, 62
1, 222979, Note_off_c, 0, 75, 64
1, 222988, Control_c, 0, 64, 95
1, 222990, Note_on_c, 0, 74, 77
1, 223003, Control_c, 0, 64, 66
1, 223018, Control_c, 0, 64, 38
1, 223034, Control_c, 0, 64, 0
1, 223050, Note_off_c, 0, 74, 61
1, 223056, Note_on_c, 0, 73, 77
1, 223098, Note_off_c, 0, 73, 62
1, 223138, Note_on_c, 0, 73, 55
1, 223148, Note_on_c, 0, 80, 62
1, 223151, Note_on_c, 0, 44, 58
1, 223152, Control_c, 0, 64, 61
1, 223167, Control_c, 0, 64, 76
1, 223173, Note_off_c, 0, 44, 57
1, 223181, Control_c, 0, 64, 87
1, 223191, Note_off_c, 0, 73, 56
1, 223196, Control_c, 0, 64, 114
1, 223211, Control_c, 0, 64, 127
1, 223214, Note_on_c, 0, 75, 67
1, 223271, Note_off_c, 0, 80, 59
1, 223288, Note_off_c, 0, 75, 64
1, 223297, Note_on_c, 0, 73, 74
1, 223333, Note_off_c, 0, 73, 61
1, 223374, Note_on_c, 0, 70, 74
1, 223384, Note_on_c, 0, 56, 52
1, 223387, Note_on_c, 0, 66, 51
1, 223400, Note_on_c, 0, 63, 46
1, 223411, Note_off_c, 0, 56, 61
1, 223411, Note_off_c, 0, 66, 59
1, 223424, Note_off_c, 0, 70, 63
1, 223431, Note_off_c, 0, 63, 60
1, 223455, Note_on_c, 0, 69, 65
1, 223470, Control_c, 0, 64, 83
1, 223474, Note_off_c, 0, 69, 64
1, 223485, Control_c, 0, 64, 62
1, 223500, Control_c, 0, 64, 20
1, 223515, Control_c, 0, 64, 0
1, 223527, Note_on_c, 0, 70, 62
1, 223560, Note_off_c, 0, 70, 65
1, 223617, Note_on_c, 0, 72, 75
1, 223619, Note_on_c, 0, 80, 63
1, 223619, Control_c, 0, 64, 24
1, 223631, Note_on_c, 0, 56, 42
1, 223634, Control_c, 0, 64, 65
1, 223640, Note_off_c, 0, 72, 68
1, 223649, Control_c, 0, 64, 79
1, 223655, Note_on_c, 0, 63, 13
1, 223658, Note_off_c, 0, 80, 61
1, 223664, Control_c, 0, 64, 93
1, 223678, Note_off_c, 0, 56, 65
1, 223679, Control_c, 0, 64, 127
1, 223700, Note_off_c, 0, 63, 33
1, 223797, Control_c, 0, 67, 10
1, 223812, Control_c, 0, 67, 12
1, 223828, Control_c, 0, 67, 15
1, 223843, Control_c, 0, 67, 16
1, 223858, Note_on_c, 0, 44, 55
1, 223858, Control_c, 0, 67, 18
1, 223872, Control_c, 0, 67, 19
1, 223887, Control_c, 0, 67, 20
1, 223891, Note_off_c, 0, 44, 65
1, 223902, Control_c, 0, 67, 21
1, 223917, Control_c, 0, 67, 23
1, 223931, Control_c, 0, 67, 24
1, 223946, Control_c, 0, 67, 25
1, 223961, Control_c, 0, 67, 27
1, 223974, Note_on_c, 0, 84, 63
1, 223976, Control_c, 0, 67, 28
1, 223977, Note_on_c, 0, 92, 63
1, 223991, Control_c, 0, 67, 29
1, 224005, Note_off_c, 0, 84, 69
1, 224013, Control_c, 0, 67, 30
1, 224013, Note_off_c, 0, 92, 64
1, 224028, Control_c, 0, 67, 31
1, 224043, Control_c, 0, 67, 32
1, 224057, Control_c, 0, 67, 33
1, 224072, Control_c, 0, 67, 34
1, 224098, Note_on_c, 0, 93, 71
1, 224102, Control_c, 0, 67, 35
1, 224104, Note_on_c, 0, 85, 72
1, 224105, Note_on_c, 0, 56, 58
1, 224113, Note_on_c, 0, 66, 51
1, 224117, Control_c, 0, 64, 106
1, 224119, Note_on_c, 0, 63, 52
1, 224130, Note_off_c, 0, 85, 65
1, 224131, Note_off_c, 0, 93, 58
1, 224131, Control_c, 0, 64, 78
1, 224135, Note_off_c, 0, 56, 64
1, 224137, Note_off_c, 0, 66, 60
1, 224146, Control_c, 0, 64, 59
1, 224146, Control_c, 0, 67, 35
1, 224150, Note_off_c, 0, 63, 62
1, 224161, Control_c, 0, 64, 12
1, 224161, Control_c, 0, 67, 36
1, 224176, Control_c, 0, 64, 0
1, 224176, Control_c, 0, 67, 36
1, 224191, Control_c, 0, 67, 37
1, 224201, Note_on_c, 0, 94, 73
1, 224206, Note_on_c, 0, 86, 72
1, 224221, Control_c, 0, 67, 37
1, 224230, Note_off_c, 0, 86, 66
1, 224240, Note_off_c, 0, 94, 60
1, 224280, Control_c, 0, 67, 37
1, 224298, Note_on_c, 0, 95, 83
1, 224311, Note_on_c, 0, 87, 75
1, 224315, Note_on_c, 0, 56, 55
1, 224322, Note_on_c, 0, 63, 37
1, 224325, Control_c, 0, 67, 36
1, 224328, Note_on_c, 0, 66, 13
1, 224338, Note_off_c, 0, 87, 65
1, 224340, Control_c, 0, 67, 36
1, 224341, Note_off_c, 0, 95, 65
1, 224343, Note_off_c, 0, 66, 34
1, 224344, Note_off_c, 0, 63, 53
1, 224355, Control_c, 0, 67, 35
1, 224356, Note_off_c, 0, 56, 63
1, 224370, Control_c, 0, 67, 34
1, 224396, Note_on_c, 0, 96, 89
1, 224400, Control_c, 0, 67, 34
1, 224405, Note_on_c, 0, 88, 77
1, 224429, Control_c, 0, 67, 33
1, 224439, Note_off_c, 0, 96, 65
1, 224440, Note_off_c, 0, 88, 63
1, 224444, Control_c, 0, 67, 32
1, 224459, Control_c, 0, 67, 31
1, 224474, Control_c, 0, 67, 31
1, 224488, Control_c, 0, 67, 30
1, 224503, Control_c, 0, 67, 29
1, 224508, Note_on_c, 0, 97, 87
1, 224516, Note_on_c, 0, 89, 76
1, 224518, Control_c, 0, 67, 27
1, 224523, Note_off_c, 0, 97, 71
1, 224525, Note_on_c, 0, 49, 66
1, 224532, Control_c, 0, 64, 63
1, 224532, Control_c, 0, 67, 25
1, 224537, Note_off_c, 0, 89, 69
1, 224547, Control_c, 0, 64, 78
1, 224547, Control_c, 0, 67, 21
1, 224554, Note_off_c, 0, 49, 63
1, 224562, Control_c, 0, 64, 90
1, 224562, Control_c, 0, 67, 14
1, 224577, Control_c, 0, 64, 127
1, 224577, Control_c, 0, 67, 8
1, 224592, Control_c, 0, 67, 0
1, 224800, Note_on_c, 0, 56, 48
1, 224800, Note_on_c, 0, 61, 49
1, 224803, Note_on_c, 0, 65, 44
1, 224844, Note_off_c, 0, 56, 58
1, 224852, Note_off_c, 0, 65, 57
1, 224856, Note_off_c, 0, 61, 55
1, 225000, Control_c, 0, 64, 113
1, 225015, Control_c, 0, 64, 86
1, 225029, Control_c, 0, 64, 68
1, 225031, Note_on_c, 0, 73, 69
1, 225044, Control_c, 0, 64, 47
1, 225048, Note_on_c, 0, 65, 41
1, 225050, Note_on_c, 0, 56, 47
1, 225059, Control_c, 0, 64, 0
1, 225062, Note_on_c, 0, 61, 32
1, 225073, Note_off_c, 0, 65, 36
1, 225093, Note_off_c, 0, 61, 57
1, 225107, Note_off_c, 0, 56, 61
1, 225275, Note_on_c, 0, 80, 70
1, 225287, Note_on_c, 0, 49, 62
1, 225311, Control_c, 0, 64, 60
1, 225326, Control_c, 0, 64, 75
1, 225336, Note_off_c, 0, 73, 60
1, 225341, Control_c, 0, 64, 90
1, 225355, Control_c, 0, 64, 127
1, 225366, Note_on_c, 0, 72, 67
1, 225372, Note_off_c, 0, 49, 62
1, 225444, Note_on_c, 0, 73, 72
1, 225462, Note_off_c, 0, 72, 45
1, 225519, Note_on_c, 0, 77, 67
1, 225548, Note_off_c, 0, 73, 56
1, 225551, Note_on_c, 0, 56, 49
1, 225560, Note_on_c, 0, 61, 46
1, 225560, Note_on_c, 0, 65, 43
1, 225591, Note_on_c, 0, 78, 74
1, 225594, Note_off_c, 0, 56, 58
1, 225599, Note_off_c, 0, 77, 62
1, 225604, Note_off_c, 0, 65, 58
1, 225610, Note_off_c, 0, 61, 56
1, 225665, Note_on_c, 0, 77, 68
1, 225708, Note_off_c, 0, 80, 53
1, 225734, Control_c, 0, 64, 84
1, 225735, Note_off_c, 0, 78, 60
1, 225741, Note_on_c, 0, 65, 30
1, 225744, Note_on_c, 0, 75, 78
1, 225747, Note_on_c, 0, 61, 53
1, 225749, Control_c, 0, 64, 58
1, 225750, Note_on_c, 0, 56, 60
1, 225757, Note_off_c, 0, 77, 63
1, 225757, Note_off_c, 0, 65, 50
1, 225764, Control_c, 0, 64, 0
1, 225773, Note_off_c, 0, 61, 60
1, 225792, Note_off_c, 0, 56, 62
1, 225802, Note_off_c, 0, 75, 64
1, 225810, Note_on_c, 0, 74, 73
1, 225867, Note_off_c, 0, 74, 63
1, 225870, Note_on_c, 0, 73, 77
1, 225915, Note_off_c, 0, 73, 62
1, 225948, Note_on_c, 0, 73, 59
1, 225953, Note_on_c, 0, 44, 72
1, 225953, Note_on_c, 0, 80, 74
1, 225956, Control_c, 0, 64, 57
1, 225971, Control_c, 0, 64, 69
1, 225980, Note_off_c, 0, 44, 66
1, 225986, Control_c, 0, 64, 74
1, 225996, Note_off_c, 0, 73, 61
1, 226001, Control_c, 0, 64, 85
1, 226016, Control_c, 0, 64, 106
1, 226024, Note_on_c, 0, 75, 69
1, 226031, Control_c, 0, 64, 127
1, 226055, Note_off_c, 0, 80, 60
1, 226084, Note_off_c, 0, 75, 64
1, 226099, Note_on_c, 0, 73, 72
1, 226123, Note_off_c, 0, 73, 64
1, 226170, Note_on_c, 0, 70, 77
1, 226178, Control_c, 0, 64, 87
1, 226178, Control_c, 0, 67, 8
1, 226184, Note_on_c, 0, 56, 52
1, 226186, Note_on_c, 0, 66, 54
1, 226193, Control_c, 0, 64, 62
1, 226193, Control_c, 0, 67, 9
1, 226198, Note_on_c, 0, 63, 47
1, 226208, Note_off_c, 0, 66, 57
1, 226208, Control_c, 0, 64, 0
1, 226208, Control_c, 0, 67, 10
1, 226209, Note_off_c, 0, 56, 56
1, 226224, Control_c, 0, 67, 11
1, 226227, Note_off_c, 0, 63, 52
1, 226227, Note_off_c, 0, 70, 63
1, 226239, Control_c, 0, 67, 12
1, 226254, Note_on_c, 0, 69, 70
1, 226261, Control_c, 0, 67, 14
1, 226275, Control_c, 0, 67, 15
1, 226287, Note_off_c, 0, 69, 58
1, 226290, Control_c, 0, 67, 16
1, 226332, Note_on_c, 0, 70, 59
1, 226350, Control_c, 0, 67, 15
1, 226366, Note_off_c, 0, 70, 62
1, 226380, Control_c, 0, 67, 15
1, 226394, Control_c, 0, 67, 14
1, 226406, Note_on_c, 0, 80, 70
1, 226409, Control_c, 0, 67, 13
1, 226421, Note_on_c, 0, 72, 64
1, 226424, Control_c, 0, 64, 53
1, 226424, Control_c, 0, 67, 12
1, 226430, Note_on_c, 0, 56, 40
1, 226437, Note_on_c, 0, 66, 35
1, 226439, Note_off_c, 0, 72, 67
1, 226439, Control_c, 0, 64, 63
1, 226439, Control_c, 0, 67, 9
1, 226441, Note_off_c, 0, 80, 61
1, 226446, Note_on_c, 0, 63, 22
1, 226453, Control_c, 0, 64, 68
1, 226453, Control_c, 0, 67, 0
1, 226459, Note_off_c, 0, 66, 53
1, 226468, Control_c, 0, 64, 77
1, 226469, Note_off_c, 0, 63, 51
1, 226481, Note_off_c, 0, 56, 62
1, 226483, Control_c, 0, 64, 96
1, 226498, Control_c, 0, 64, 127
1, 226645, Control_c, 0, 67, 8
1, 226653, Note_on_c, 0, 44, 62
1, 226660, Control_c, 0, 67, 11
1, 226675, Control_c, 0, 67, 14
1, 226681, Note_off_c, 0, 44, 62
1, 226690, Control_c, 0, 67, 17
1, 226705, Control_c, 0, 67, 20
1, 226719, Control_c, 0, 67, 22
1, 226734, Control_c, 0, 67, 23
1, 226749, Control_c, 0, 67, 25
1, 226764, Control_c, 0, 67, 27
1, 226765, Note_on_c, 0, 92, 56
1, 226770, Note_on_c, 0, 84, 55
1, 226779, Control_c, 0, 67, 30
1, 226794, Control_c, 0, 67, 33
1, 226797, Note_off_c, 0, 84, 67
1, 226797, Note_off_c, 0, 92, 62
1, 226809, Control_c, 0, 67, 36
1, 226824, Control_c, 0, 67, 41
1, 226839, Control_c, 0, 67, 46
1, 226853, Control_c, 0, 67, 51
1, 226868, Control_c, 0, 67, 55
1, 226883, Control_c, 0, 67, 60
1, 226892, Note_on_c, 0, 93, 63
1, 226897, Note_on_c, 0, 85, 62
1, 226898, Control_c, 0, 67, 64
1, 226901, Note_on_c, 0, 66, 50
1, 226904, Note_on_c, 0, 56, 49
1, 226913, Control_c, 0, 67, 67
1, 226917, Note_on_c, 0, 63, 45
1, 226919, Note_off_c, 0, 93, 66
1, 226927, Control_c, 0, 64, 110
1, 226927, Control_c, 0, 67, 70
1, 226928, Note_off_c, 0, 85, 62
1, 226930, Note_off_c, 0, 56, 62
1, 226936, Note_off_c, 0, 66, 60
1, 226942, Control_c, 0, 64, 79
1, 226942, Control_c, 0, 67, 72
1, 226947, Note_off_c, 0, 63, 62
1, 226957, Control_c, 0, 64, 58
1, 226957, Control_c, 0, 67, 75
1, 226972, Control_c, 0, 64, 0
1, 226972, Control_c, 0, 67, 77
1, 226987, Control_c, 0, 67, 79
1, 227009, Control_c, 0, 67, 81
1, 227012, Note_on_c, 0, 94, 64
1, 227012, Note_on_c, 0, 86, 63
1, 227023, Control_c, 0, 67, 84
1, 227039, Note_off_c, 0, 86, 65
1, 227039, Control_c, 0, 67, 86
1, 227040, Note_off_c, 0, 94, 65
1, 227054, Control_c, 0, 67, 88
1, 227069, Control_c, 0, 67, 90
1, 227083, Control_c, 0, 67, 92
1, 227098, Control_c, 0, 67, 94
1, 227113, Control_c, 0, 67, 96
1, 227122, Note_on_c, 0, 95, 68
1, 227125, Note_on_c, 0, 56, 39
1, 227128, Control_c, 0, 67, 99
1, 227131, Note_on_c, 0, 87, 62
1, 227134, Note_on_c, 0, 66, 27
1, 227143, Control_c, 0, 67, 102
1, 227144, Note_on_c, 0, 63, 24
1, 227152, Note_off_c, 0, 66, 52
1, 227158, Control_c, 0, 67, 105
1, 227161, Note_off_c, 0, 87, 64
1, 227162, Note_off_c, 0, 63, 50
1, 227164, Note_off_c, 0, 95, 55
1, 227169, Note_off_c, 0, 56, 63
1, 227172, Control_c, 0, 67, 108
1, 227187, Control_c, 0, 67, 112
1, 227202, Control_c, 0, 67, 114
1, 227217, Control_c, 0, 67, 116
1, 227224, Note_on_c, 0, 96, 73
1, 227232, Control_c, 0, 67, 117
1, 227232, Note_on_c, 0, 88, 66
1, 227247, Control_c, 0, 67, 119
1, 227253, Note_off_c, 0, 96, 60
1, 227262, Control_c, 0, 67, 120
1, 227269, Note_off_c, 0, 88, 55
1, 227276, Control_c, 0, 67, 122
1, 227291, Control_c, 0, 67, 125
1, 227306, Control_c, 0, 67, 127
1, 227375, Note_on_c, 0, 97, 66
1, 227380, Control_c, 0, 64, 9
1, 227381, Note_on_c, 0, 89, 58
1, 227395, Control_c, 0, 64, 41
1, 227397, Note_on_c, 0, 49, 43
1, 227398, Note_off_c, 0, 97, 69
1, 227410, Control_c, 0, 64, 57
1, 227411, Note_off_c, 0, 89, 66
1, 227424, Control_c, 0, 64, 65
1, 227439, Control_c, 0, 64, 70
1, 227454, Control_c, 0, 64, 77
1, 227467, Note_off_c, 0, 49, 55
1, 227468, Control_c, 0, 64, 90
1, 227483, Control_c, 0, 64, 114
1, 227498, Control_c, 0, 64, 127
1, 227498, Control_c, 0, 67, 126
1, 227513, Control_c, 0, 67, 126
1, 227528, Control_c, 0, 67, 125
1, 227542, Control_c, 0, 67, 123
1, 227557, Control_c, 0, 67, 122
1, 227572, Control_c, 0, 67, 120
1, 227587, Control_c, 0, 67, 117
1, 227602, Control_c, 0, 67, 112
1, 227617, Control_c, 0, 67, 106
1, 227632, Control_c, 0, 67, 97
1, 227646, Control_c, 0, 67, 88
1, 227661, Control_c, 0, 67, 80
1, 227676, Control_c, 0, 67, 72
1, 227684, Note_on_c, 0, 65, 36
1, 227685, Note_on_c, 0, 56, 35
1, 227688, Note_on_c, 0, 61, 34
1, 227691, Control_c, 0, 67, 63
1, 227706, Control_c, 0, 67, 56
1, 227721, Control_c, 0, 67, 48
1, 227732, Note_off_c, 0, 56, 57
1, 227736, Control_c, 0, 67, 40
1, 227753, Note_off_c, 0, 65, 56
1, 227757, Control_c, 0, 67, 30
1, 227760, Note_off_c, 0, 61, 45
1, 227772, Control_c, 0, 67, 19
1, 227787, Control_c, 0, 67, 0
1, 227906, Control_c, 0, 67, 9
1, 227921, Control_c, 0, 67, 12
1, 227936, Control_c, 0, 67, 14
1, 227948, Note_on_c, 0, 73, 54
1, 227951, Control_c, 0, 67, 17
1, 227966, Control_c, 0, 67, 19
1, 227980, Control_c, 0, 67, 21
1, 227988, Note_on_c, 0, 56, 39
1, 227995, Control_c, 0, 67, 23
1, 228010, Control_c, 0, 67, 25
1, 228025, Control_c, 0, 67, 27
1, 228040, Note_off_c, 0, 56, 59
1, 228040, Control_c, 0, 67, 30
1, 228055, Control_c, 0, 67, 32
1, 228066, Poly_aftertouch_c, 0, 61, 0
1, 228070, Control_c, 0, 67, 36
1, 228085, Control_c, 0, 67, 42
1, 228099, Control_c, 0, 67, 47
1, 228114, Control_c, 0, 67, 53
1, 228129, Control_c, 0, 67, 59
1, 228144, Control_c, 0, 67, 65
1, 228159, Control_c, 0, 67, 72
1, 228173, Control_c, 0, 64, 88
1, 228173, Control_c, 0, 67, 77
1, 228188, Control_c, 0, 64, 69
1, 228188, Control_c, 0, 67, 83
1, 228203, Control_c, 0, 64, 54
1, 228203, Control_c, 0, 67, 87
1, 228217, Note_on_c, 0, 49, 49
1, 228217, Control_c, 0, 64, 53
1, 228217, Control_c, 0, 67, 92
1, 228232, Control_c, 0, 64, 60
1, 228232, Control_c, 0, 67, 96
1, 228247, Control_c, 0, 64, 67
1, 228247, Control_c, 0, 67, 101
1, 228258, Note_off_c, 0, 73, 63
1, 228262, Control_c, 0, 64, 76
1, 228262, Control_c, 0, 67, 105
1, 228277, Control_c, 0, 64, 86
1, 228277, Control_c, 0, 67, 110
1, 228291, Control_c, 0, 64, 95
1, 228291, Control_c, 0, 67, 115
1, 228306, Control_c, 0, 64, 97
1, 228306, Control_c, 0, 67, 120
1, 228317, Note_off_c, 0, 49, 61
1, 228321, Control_c, 0, 64, 100
1, 228321, Control_c, 0, 67, 125
1, 228336, Control_c, 0, 64, 103
1, 228336, Control_c, 0, 67, 127
1, 228351, Control_c, 0, 64, 107
1, 228365, Control_c, 0, 64, 110
1, 228377, Note_on_c, 0, 76, 56
1, 228378, Note_on_c, 0, 85, 51
1, 228380, Control_c, 0, 64, 112
1, 228395, Control_c, 0, 64, 113
1, 228410, Control_c, 0, 64, 114
1, 228414, Note_off_c, 0, 76, 56
1, 228424, Control_c, 0, 64, 115
1, 228427, Note_off_c, 0, 85, 54
1, 228439, Control_c, 0, 64, 115
1, 228454, Control_c, 0, 64, 116
1, 228469, Control_c, 0, 64, 117
1, 228556, Note_on_c, 0, 77, 61
1, 228562, Note_on_c, 0, 85, 49
1, 228585, Note_on_c, 0, 61, 35
1, 228585, Note_on_c, 0, 56, 31
1, 228587, Note_on_c, 0, 65, 26
1, 228600, Note_off_c, 0, 85, 54
1, 228611, Note_off_c, 0, 77, 59
1, 228645, Note_off_c, 0, 56, 53
1, 228660, Note_off_c, 0, 65, 49
1, 228680, Note_off_c, 0, 61, 37
1, 228693, Note_on_c, 0, 78, 66
1, 228707, Note_on_c, 0, 85, 51
1, 228745, Note_off_c, 0, 85, 59
1, 228765, Note_off_c, 0, 78, 58
1, 228846, Note_on_c, 0, 79, 66
1, 228866, Note_on_c, 0, 65, 28
1, 228878, Note_on_c, 0, 56, 36
1, 228882, Note_on_c, 0, 85, 4
1, 228884, Note_on_c, 0, 61, 19
1, 228895, Note_off_c, 0, 65, 52
1, 228904, Note_off_c, 0, 79, 51
1, 228928, Note_off_c, 0, 61, 51
1, 228938, Note_off_c, 0, 56, 59
1, 228941, Note_off_c, 0, 85, 30
1, 228998, Note_on_c, 0, 80, 57
1, 229021, Note_on_c, 0, 85, 44
1, 229048, Note_off_c, 0, 85, 56
1, 229096, Note_off_c, 0, 80, 36
1, 229143, Control_c, 0, 64, 116
1, 229173, Control_c, 0, 64, 114
1, 229188, Control_c, 0, 64, 104
1, 229202, Control_c, 0, 64, 88
1, 229217, Control_c, 0, 64, 74
1, 229232, Control_c, 0, 64, 59
1, 229254, Control_c, 0, 64, 34
1, 229259, Note_on_c, 0, 85, 51
1, 229266, Note_on_c, 0, 79, 52
1, 229269, Control_c, 0, 64, 0
1, 229286, Note_on_c, 0, 45, 33
1, 229314, Control_c, 0, 64, 30
1, 229328, Control_c, 0, 64, 54
1, 229343, Control_c, 0, 64, 66
1, 229358, Control_c, 0, 64, 72
1, 229372, Control_c, 0, 64, 79
1, 229376, Note_off_c, 0, 85, 64
1, 229377, Note_off_c, 0, 45, 59
1, 229387, Control_c, 0, 64, 86
1, 229393, Note_off_c, 0, 79, 61
1, 229402, Control_c, 0, 64, 93
1, 229418, Control_c, 0, 64, 99
1, 229433, Control_c, 0, 64, 103
1, 229448, Control_c, 0, 64, 107
1, 229463, Control_c, 0, 64, 112
1, 229477, Control_c, 0, 64, 117
1, 229492, Control_c, 0, 64, 121
1, 229507, Control_c, 0, 64, 124
1, 229522, Control_c, 0, 64, 127
1, 229729, Note_on_c, 0, 61, 34
1, 229731, Note_on_c, 0, 55, 33
1, 229742, Note_on_c, 0, 64, 30
1, 229788, Note_off_c, 0, 55, 57
1, 229797, Note_off_c, 0, 61, 51
1, 229798, Note_off_c, 0, 64, 54
1, 230002, Control_c, 0, 64, 122
1, 230017, Control_c, 0, 64, 104
1, 230032, Control_c, 0, 64, 84
1, 230037, Note_on_c, 0, 85, 60
1, 230047, Control_c, 0, 64, 68
1, 230052, Note_on_c, 0, 73, 48
1, 230062, Control_c, 0, 64, 48
1, 230070, Note_on_c, 0, 55, 37
1, 230076, Control_c, 0, 64, 0
1, 230082, Note_on_c, 0, 64, 19
1, 230093, Note_on_c, 0, 61, 14
1, 230106, Note_off_c, 0, 64, 54
1, 230121, Note_off_c, 0, 61, 51
1, 230133, Note_off_c, 0, 55, 63
1, 230180, Control_c, 0, 64, 32
1, 230195, Control_c, 0, 64, 57
1, 230210, Control_c, 0, 64, 66
1, 230225, Control_c, 0, 64, 72
1, 230240, Control_c, 0, 64, 79
1, 230255, Control_c, 0, 64, 88
1, 230270, Control_c, 0, 64, 97
1, 230273, Note_off_c, 0, 73, 52
1, 230285, Control_c, 0, 64, 102
1, 230299, Control_c, 0, 64, 107
1, 230314, Control_c, 0, 64, 114
1, 230317, Note_on_c, 0, 45, 51
1, 230330, Control_c, 0, 64, 127
1, 230339, Note_off_c, 0, 85, 58
1, 230353, Note_off_c, 0, 45, 64
1, 230451, Note_on_c, 0, 76, 60
1, 230454, Note_on_c, 0, 85, 59
1, 230504, Note_off_c, 0, 76, 61
1, 230545, Note_off_c, 0, 85, 60
1, 230661, Note_on_c, 0, 85, 60
1, 230670, Note_on_c, 0, 64, 37
1, 230676, Note_on_c, 0, 79, 48
1, 230678, Note_on_c, 0, 61, 29
1, 230685, Note_on_c, 0, 55, 27
1, 230764, Note_off_c, 0, 55, 46
1, 230780, Note_on_c, 0, 83, 61
1, 230796, Note_off_c, 0, 64, 51
1, 230825, Note_off_c, 0, 85, 55
1, 230827, Note_off_c, 0, 79, 33
1, 230833, Note_off_c, 0, 61, 38
1, 230866, Note_on_c, 0, 82, 66
1, 230869, Note_off_c, 0, 83, 63
1, 230947, Note_on_c, 0, 85, 64
1, 230949, Note_off_c, 0, 82, 61
1, 230955, Note_on_c, 0, 61, 44
1, 230962, Note_on_c, 0, 81, 64
1, 230964, Note_on_c, 0, 55, 35
1, 230990, Note_off_c, 0, 61, 65
1, 231006, Note_off_c, 0, 81, 53
1, 231008, Note_off_c, 0, 55, 62
1, 231051, Note_on_c, 0, 80, 64
1, 231077, Note_off_c, 0, 85, 60
1, 231123, Note_off_c, 0, 80, 63
1, 231137, Note_on_c, 0, 79, 71
1, 231161, Note_off_c, 0, 79, 67
1, 231212, Control_c, 0, 64, 109
1, 231227, Control_c, 0, 64, 80
1, 231241, Control_c, 0, 64, 58
1, 231256, Control_c, 0, 64, 24
1, 231271, Control_c, 0, 64, 0
1, 231277, Note_on_c, 0, 38, 56
1, 231278, Note_on_c, 0, 90, 66
1, 231286, Control_c, 0, 64, 8
1, 231293, Note_on_c, 0, 78, 60
1, 231301, Control_c, 0, 64, 44
1, 231316, Control_c, 0, 64, 63
1, 231328, Note_off_c, 0, 38, 63
1, 231329, Note_off_c, 0, 78, 59
1, 231331, Control_c, 0, 64, 73
1, 231346, Control_c, 0, 64, 84
1, 231360, Control_c, 0, 64, 93
1, 231375, Control_c, 0, 64, 97
1, 231378, Note_off_c, 0, 90, 62
1, 231390, Control_c, 0, 64, 99
1, 231392, Note_on_c, 0, 85, 57
1, 231405, Control_c, 0, 64, 101
1, 231420, Control_c, 0, 64, 101
1, 231462, Note_on_c, 0, 86, 62
1, 231468, Note_off_c, 0, 85, 59
1, 231479, Control_c, 0, 64, 101
1, 231501, Control_c, 0, 64, 92
1, 231516, Control_c, 0, 64, 73
1, 231531, Control_c, 0, 64, 51
1, 231544, Note_on_c, 0, 84, 64
1, 231545, Control_c, 0, 64, 0
1, 231548, Note_off_c, 0, 86, 59
1, 231550, Note_on_c, 0, 66, 54
1, 231562, Note_on_c, 0, 54, 44
1, 231566, Note_on_c, 0, 62, 37
1, 231581, Note_off_c, 0, 66, 65
1, 231587, Note_off_c, 0, 54, 47
1, 231600, Note_off_c, 0, 62, 60
1, 231621, Note_off_c, 0, 84, 64
1, 231631, Note_on_c, 0, 85, 60
1, 231705, Note_off_c, 0, 85, 63
1, 231711, Note_on_c, 0, 82, 65
1, 231787, Note_off_c, 0, 82, 58
1, 231805, Note_on_c, 0, 90, 58
1, 231811, Note_on_c, 0, 83, 60
1, 231817, Note_on_c, 0, 62, 23
1, 231822, Note_on_c, 0, 66, 32
1, 231826, Note_on_c, 0, 59, 44
1, 231841, Note_off_c, 0, 62, 55
1, 231843, Note_off_c, 0, 66, 54
1, 231856, Note_off_c, 0, 59, 63
1, 232050, Control_c, 0, 64, 42
1, 232058, Note_on_c, 0, 50, 52
1, 232064, Control_c, 0, 64, 62
1, 232079, Control_c, 0, 64, 68
1, 232089, Note_off_c, 0, 50, 63
1, 232091, Note_off_c, 0, 83, 31
1, 232094, Control_c, 0, 64, 73
1, 232109, Control_c, 0, 64, 80
1, 232119, Note_off_c, 0, 90, 62
1, 232124, Control_c, 0, 64, 89
1, 232139, Control_c, 0, 64, 96
1, 232154, Note_on_c, 0, 89, 53
1, 232154, Control_c, 0, 64, 102
1, 232168, Control_c, 0, 64, 106
1, 232183, Control_c, 0, 64, 111
1, 232198, Control_c, 0, 64, 111
1, 232228, Control_c, 0, 64, 111
1, 232231, Note_on_c, 0, 90, 66
1, 232232, Note_off_c, 0, 89, 54
1, 232250, Control_c, 0, 64, 108
1, 232264, Control_c, 0, 64, 87
1, 232279, Control_c, 0, 64, 68
1, 232294, Control_c, 0, 64, 41
1, 232295, Note_off_c, 0, 90, 61
1, 232303, Note_on_c, 0, 66, 46
1, 232309, Note_on_c, 0, 93, 63
1, 232309, Control_c, 0, 64, 0
1, 232317, Note_on_c, 0, 62, 48
1, 232320, Note_on_c, 0, 83, 53
1, 232338, Note_off_c, 0, 66, 62
1, 232352, Note_off_c, 0, 62, 64
1, 232378, Note_off_c, 0, 93, 64
1, 232394, Note_on_c, 0, 95, 63
1, 232457, Note_on_c, 0, 93, 63
1, 232496, Note_off_c, 0, 95, 59
1, 232531, Note_off_c, 0, 93, 64
1, 232536, Note_on_c, 0, 62, 52
1, 232536, Note_on_c, 0, 92, 68
1, 232548, Note_on_c, 0, 66, 40
1, 232565, Note_off_c, 0, 62, 67
1, 232572, Note_off_c, 0, 66, 35
1, 232583, Note_off_c, 0, 83, 50
1, 232604, Note_off_c, 0, 92, 60
1, 232625, Note_on_c, 0, 91, 52
1, 232626, Note_on_c, 0, 93, 64
1, 232676, Note_off_c, 0, 93, 60
1, 232683, Note_on_c, 0, 90, 72
1, 232687, Note_off_c, 0, 91, 62
1, 232721, Note_off_c, 0, 90, 59
1, 232769, Note_on_c, 0, 88, 74
1, 232769, Control_c, 0, 64, 42
1, 232777, Note_on_c, 0, 52, 52
1, 232780, Note_on_c, 0, 83, 59
1, 232784, Control_c, 0, 64, 62
1, 232799, Control_c, 0, 64, 65
1, 232800, Note_off_c, 0, 83, 59
1, 232806, Note_off_c, 0, 52, 60
1, 232813, Control_c, 0, 64, 67
1, 232828, Control_c, 0, 64, 69
1, 232843, Control_c, 0, 64, 71
1, 232844, Note_on_c, 0, 85, 60
1, 232858, Control_c, 0, 64, 75
1, 232873, Control_c, 0, 64, 77
1, 232887, Control_c, 0, 64, 78
1, 232902, Control_c, 0, 64, 78
1, 232903, Note_off_c, 0, 85, 63
1, 232909, Note_on_c, 0, 83, 57
1, 232946, Control_c, 0, 64, 78
1, 232961, Control_c, 0, 64, 75
1, 232966, Note_off_c, 0, 83, 46
1, 232976, Control_c, 0, 64, 64
1, 232996, Note_on_c, 0, 82, 61
1, 232999, Control_c, 0, 64, 43
1, 233011, Note_on_c, 0, 61, 57
1, 233013, Control_c, 0, 64, 0
1, 233018, Note_off_c, 0, 88, 58
1, 233028, Note_on_c, 0, 64, 35
1, 233043, Note_off_c, 0, 61, 65
1, 233050, Note_off_c, 0, 82, 61
1, 233060, Note_off_c, 0, 64, 33
1, 233061, Note_on_c, 0, 83, 51
1, 233123, Note_off_c, 0, 83, 65
1, 233148, Note_on_c, 0, 82, 53
1, 233202, Note_off_c, 0, 82, 58
1, 233239, Note_on_c, 0, 88, 49
1, 233257, Note_on_c, 0, 81, 41
1, 233271, Note_on_c, 0, 64, 39
1, 233273, Note_on_c, 0, 61, 49
1, 233295, Note_off_c, 0, 64, 55
1, 233304, Note_off_c, 0, 61, 66
1, 233497, Note_on_c, 0, 40, 59
1, 233503, Control_c, 0, 64, 45
1, 233517, Control_c, 0, 64, 62
1, 233519, Note_off_c, 0, 88, 63
1, 233530, Note_off_c, 0, 40, 63
1, 233530, Note_off_c, 0, 81, 63
1, 233532, Control_c, 0, 64, 67
1, 233547, Control_c, 0, 64, 72
1, 233561, Control_c, 0, 64, 77
1, 233576, Control_c, 0, 64, 83
1, 233591, Control_c, 0, 64, 88
1, 233606, Control_c, 0, 64, 90
1, 233621, Control_c, 0, 64, 92
1, 233635, Control_c, 0, 64, 94
1, 233665, Control_c, 0, 64, 94
1, 233787, Note_on_c, 0, 76, 70
1, 233808, Note_on_c, 0, 64, 42
1, 233812, Note_on_c, 0, 69, 51
1, 233817, Note_on_c, 0, 61, 44
1, 233855, Note_off_c, 0, 69, 47
1, 233876, Note_on_c, 0, 73, 64
1, 233877, Note_off_c, 0, 61, 49
1, 233938, Note_off_c, 0, 64, 33
1, 233938, Note_off_c, 0, 76, 49
1, 233951, Note_on_c, 0, 72, 64
1, 234002, Note_off_c, 0, 73, 38
1, 234023, Note_off_c, 0, 72, 64
1, 234026, Note_on_c, 0, 71, 69
1, 234034, Note_on_c, 0, 61, 50
1, 234049, Note_on_c, 0, 64, 36
1, 234088, Note_off_c, 0, 64, 49
1, 234090, Note_off_c, 0, 71, 58
1, 234103, Note_on_c, 0, 70, 75
1, 234151, Note_off_c, 0, 61, 31
1, 234155, Note_off_c, 0, 70, 61
1, 234162, Control_c, 0, 64, 93
1, 234177, Control_c, 0, 64, 88
1, 234179, Note_on_c, 0, 69, 61
1, 234192, Control_c, 0, 64, 73
1, 234203, Note_off_c, 0, 69, 56
1, 234207, Control_c, 0, 64, 57
1, 234222, Control_c, 0, 64, 8
1, 234237, Control_c, 0, 64, 0
1, 234257, Note_on_c, 0, 52, 53
1, 234257, Note_on_c, 0, 78, 70
1, 234263, Note_on_c, 0, 69, 52
1, 234267, Control_c, 0, 64, 9
1, 234282, Control_c, 0, 64, 42
1, 234297, Control_c, 0, 64, 59
1, 234300, Note_off_c, 0, 52, 57
1, 234312, Control_c, 0, 64, 63
1, 234327, Control_c, 0, 64, 63
1, 234334, Note_off_c, 0, 78, 62
1, 234345, Note_on_c, 0, 80, 67
1, 234356, Note_off_c, 0, 69, 0
1, 234356, Note_on_c, 0, 69, 10
1, 234417, Note_on_c, 0, 78, 59
1, 234428, Note_off_c, 0, 69, 51
1, 234430, Control_c, 0, 64, 61
1, 234445, Control_c, 0, 64, 53
1, 234459, Control_c, 0, 64, 19
1, 234474, Control_c, 0, 64, 0
1, 234476, Note_off_c, 0, 80, 60
1, 234487, Note_off_c, 0, 78, 62
1, 234489, Note_on_c, 0, 77, 66
1, 234496, Note_on_c, 0, 59, 52
1, 234522, Note_on_c, 0, 64, 24
1, 234532, Note_off_c, 0, 59, 62
1, 234557, Note_off_c, 0, 64, 42
1, 234565, Note_off_c, 0, 77, 63
1, 234577, Note_on_c, 0, 79, 51
1, 234584, Poly_aftertouch_c, 0, 62, 0
1, 234625, Note_off_c, 0, 79, 44
1, 234643, Note_on_c, 0, 77, 47
1, 234690, Note_off_c, 0, 77, 57
1, 234751, Note_on_c, 0, 76, 51
1, 234761, Note_on_c, 0, 68, 46
1, 234763, Control_c, 0, 64, 25
1, 234778, Control_c, 0, 64, 57
1, 234788, Note_on_c, 0, 59, 34
1, 234791, Note_off_c, 0, 68, 67
1, 234791, Note_off_c, 0, 76, 61
1, 234792, Control_c, 0, 64, 65
1, 234807, Control_c, 0, 64, 71
1, 234822, Control_c, 0, 64, 79
1, 234827, Note_off_c, 0, 59, 62
1, 234837, Control_c, 0, 64, 94
1, 234852, Control_c, 0, 64, 127
1, 234854, Poly_aftertouch_c, 0, 62, 0
1, 234866, Control_c, 0, 67, 125
1, 234869, Poly_aftertouch_c, 0, 64, 0
1, 234881, Control_c, 0, 67, 119
1, 234896, Control_c, 0, 67, 114
1, 234911, Control_c, 0, 67, 109
1, 234926, Control_c, 0, 67, 104
1, 234941, Control_c, 0, 67, 99
1, 234956, Control_c, 0, 67, 94
1, 234971, Control_c, 0, 67, 88
1, 234985, Control_c, 0, 67, 80
1, 235000, Control_c, 0, 67, 72
1, 235015, Control_c, 0, 67, 65
1, 235030, Control_c, 0, 67, 58
1, 235045, Control_c, 0, 67, 51
1, 235060, Control_c, 0, 67, 44
1, 235070, Note_on_c, 0, 40, 38
1, 235075, Control_c, 0, 67, 37
1, 235090, Control_c, 0, 67, 29
1, 235091, Note_off_c, 0, 40, 47
1, 235105, Control_c, 0, 67, 23
1, 235120, Control_c, 0, 67, 15
1, 235134, Control_c, 0, 67, 11
1, 235149, Control_c, 0, 67, 10
1, 235179, Control_c, 0, 67, 9
1, 235194, Control_c, 0, 67, 8
1, 235197, Note_on_c, 0, 88, 47
1, 235206, Note_on_c, 0, 80, 51
1, 235208, Control_c, 0, 67, 0
1, 235225, Note_off_c, 0, 88, 56
1, 235252, Note_off_c, 0, 80, 60
1, 235337, Note_on_c, 0, 81, 64
1, 235342, Note_on_c, 0, 89, 55
1, 235364, Note_off_c, 0, 81, 67
1, 235364, Control_c, 0, 64, 85
1, 235366, Note_on_c, 0, 59, 53
1, 235370, Note_off_c, 0, 89, 65
1, 235379, Note_on_c, 0, 64, 42
1, 235379, Control_c, 0, 64, 65
1, 235382, Note_on_c, 0, 62, 15
1, 235392, Note_off_c, 0, 59, 60
1, 235394, Control_c, 0, 64, 41
1, 235406, Note_off_c, 0, 64, 46
1, 235409, Control_c, 0, 64, 0
1, 235413, Note_off_c, 0, 62, 38
1, 235454, Note_on_c, 0, 90, 63
1, 235468, Note_on_c, 0, 82, 50
1, 235481, Note_off_c, 0, 90, 64
1, 235496, Note_off_c, 0, 82, 63
1, 235564, Note_on_c, 0, 91, 72
1, 235567, Note_on_c, 0, 83, 66
1, 235581, Note_on_c, 0, 59, 51
1, 235588, Note_off_c, 0, 91, 67
1, 235592, Note_off_c, 0, 83, 67
1, 235608, Note_off_c, 0, 59, 66
1, 235671, Note_on_c, 0, 92, 68
1, 235691, Note_on_c, 0, 84, 42
1, 235700, Note_off_c, 0, 92, 59
1, 235715, Note_off_c, 0, 84, 50
1, 235811, Note_on_c, 0, 93, 62
1, 235815, Note_on_c, 0, 85, 61
1, 235824, Control_c, 0, 64, 47
1, 235833, Note_on_c, 0, 45, 49
1, 235835, Note_off_c, 0, 93, 69
1, 235838, Control_c, 0, 64, 62
1, 235842, Note_off_c, 0, 85, 66
1, 235853, Control_c, 0, 64, 68
1, 235866, Note_off_c, 0, 45, 63
1, 235868, Control_c, 0, 64, 74
1, 235883, Control_c, 0, 64, 85
1, 235898, Control_c, 0, 64, 101
1, 235912, Control_c, 0, 64, 127
1, 236226, Note_on_c, 0, 57, 42
1, 236230, Note_on_c, 0, 61, 37
1, 236234, Note_on_c, 0, 64, 38
1, 236279, Note_off_c, 0, 57, 59
1, 236279, Note_off_c, 0, 64, 63
1, 236291, Note_off_c, 0, 61, 54
1, 236551, Note_on_c, 0, 69, 55
1, 236560, Note_on_c, 0, 61, 40
1, 236560, Note_on_c, 0, 64, 39
1, 236571, Control_c, 0, 64, 85
1, 236581, Note_on_c, 0, 57, 37
1, 236586, Control_c, 0, 64, 66
1, 236588, Note_off_c, 0, 64, 56
1, 236594, Note_off_c, 0, 61, 64
1, 236602, Control_c, 0, 64, 42
1, 236611, Note_off_c, 0, 57, 54
1, 236617, Control_c, 0, 64, 0
1, 236839, Note_on_c, 0, 45, 57
1, 236847, Control_c, 0, 64, 30
1, 236861, Control_c, 0, 64, 63
1, 236876, Control_c, 0, 64, 71
1, 236884, Note_off_c, 0, 45, 63
1, 236884, Note_off_c, 0, 69, 62
1, 236891, Control_c, 0, 64, 78
1, 236906, Control_c, 0, 64, 90
1, 236920, Control_c, 0, 64, 111
1, 236935, Control_c, 0, 64, 127
1, 237207, Note_on_c, 0, 81, 95
1, 237221, Note_on_c, 0, 72, 78
1, 237233, Control_c, 0, 64, 88
1, 237235, Note_on_c, 0, 60, 55
1, 237237, Note_on_c, 0, 57, 51
1, 237245, Note_on_c, 0, 65, 47
1, 237248, Control_c, 0, 64, 66
1, 237262, Control_c, 0, 64, 57
1, 237271, Note_off_c, 0, 72, 59
1, 237277, Control_c, 0, 64, 61
1, 237292, Control_c, 0, 64, 72
1, 237306, Control_c, 0, 64, 91
1, 237321, Control_c, 0, 64, 127
1, 237324, Note_off_c, 0, 81, 60
1, 237409, Note_off_c, 0, 65, 49
1, 237419, Note_off_c, 0, 57, 38
1, 237454, Note_off_c, 0, 60, 41
1, 237554, Note_on_c, 0, 57, 57
1, 237554, Note_on_c, 0, 65, 54
1, 237560, Note_on_c, 0, 60, 65
1, 237585, Note_off_c, 0, 65, 63
1, 237622, Note_off_c, 0, 60, 61
1, 237629, Note_off_c, 0, 57, 59
1, 237719, Note_on_c, 0, 81, 92
1, 237730, Note_on_c, 0, 72, 76
1, 237770, Note_off_c, 0, 81, 65
1, 237774, Note_off_c, 0, 72, 61
1, 237774, Control_c, 0, 64, 94
1, 237789, Control_c, 0, 64, 63
1, 237803, Control_c, 0, 64, 0
1, 237814, Note_on_c, 0, 81, 89
1, 237821, Note_on_c, 0, 72, 75
1, 237835, Note_on_c, 0, 46, 72
1, 237862, Control_c, 0, 64, 45
1, 237877, Control_c, 0, 64, 71
1, 237891, Note_off_c, 0, 46, 62
1, 237892, Control_c, 0, 64, 89
1, 237907, Control_c, 0, 64, 127
1, 238039, Note_off_c, 0, 81, 55
1, 238042, Note_off_c, 0, 72, 50
1, 238184, Note_on_c, 0, 55, 58
1, 238187, Note_on_c, 0, 62, 65
1, 238189, Note_on_c, 0, 65, 57
1, 238262, Note_off_c, 0, 55, 58
1, 238277, Note_off_c, 0, 65, 56
1, 238304, Note_off_c, 0, 62, 58
1, 238482, Note_on_c, 0, 79, 79
1, 238491, Note_on_c, 0, 70, 74
1, 238495, Note_on_c, 0, 55, 59
1, 238497, Note_on_c, 0, 65, 52
1, 238500, Note_on_c, 0, 62, 57
1, 238521, Note_off_c, 0, 65, 56
1, 238533, Note_off_c, 0, 62, 65
1, 238565, Note_off_c, 0, 55, 64
1, 238566, Control_c, 0, 64, 100
1, 238581, Control_c, 0, 64, 65
1, 238596, Control_c, 0, 64, 20
1, 238611, Control_c, 0, 64, 0
1, 238714, Note_on_c, 0, 48, 72
1, 238744, Control_c, 0, 64, 68
1, 238759, Control_c, 0, 64, 89
1, 238761, Note_off_c, 0, 48, 58
1, 238774, Control_c, 0, 64, 127
1, 238872, Note_off_c, 0, 70, 47
1, 238881, Note_off_c, 0, 79, 35
1, 238987, Note_on_c, 0, 79, 85
1, 238994, Note_on_c, 0, 70, 75
1, 239019, Note_on_c, 0, 64, 53
1, 239022, Note_on_c, 0, 55, 58
1, 239025, Note_on_c, 0, 58, 52
1, 239076, Note_off_c, 0, 70, 60
1, 239113, Note_off_c, 0, 79, 56
1, 239124, Note_off_c, 0, 55, 54
1, 239137, Note_off_c, 0, 64, 53
1, 239155, Note_on_c, 0, 82, 81
1, 239160, Note_on_c, 0, 74, 80
1, 239213, Note_off_c, 0, 58, 33
1, 239217, Note_off_c, 0, 82, 63
1, 239221, Note_off_c, 0, 74, 62
1, 239272, Note_on_c, 0, 81, 84
1, 239279, Note_on_c, 0, 72, 82
1, 239282, Note_on_c, 0, 55, 61
1, 239296, Note_on_c, 0, 58, 55
1, 239313, Note_off_c, 0, 72, 62
1, 239314, Note_off_c, 0, 81, 64
1, 239326, Note_off_c, 0, 58, 65
1, 239337, Note_off_c, 0, 55, 63
1, 239379, Note_on_c, 0, 79, 80
1, 239385, Note_on_c, 0, 70, 88
1, 239433, Control_c, 0, 64, 111
1, 239436, Note_off_c, 0, 70, 59
1, 239441, Note_off_c, 0, 79, 58
1, 239448, Control_c, 0, 64, 68
1, 239463, Control_c, 0, 64, 17
1, 239478, Control_c, 0, 64, 0
1, 239492, Note_on_c, 0, 70, 78
1, 239492, Note_on_c, 0, 79, 72
1, 239508, Note_on_c, 0, 41, 74
1, 239522, Control_c, 0, 64, 52
1, 239536, Note_off_c, 0, 41, 65
1, 239537, Control_c, 0, 64, 77
1, 239552, Control_c, 0, 64, 127
1, 239586, Poly_aftertouch_c, 0, 74, 127
1, 239704, Poly_aftertouch_c, 0, 74, 0
1, 239782, Control_c, 0, 64, 78
1, 239797, Note_on_c, 0, 65, 63
1, 239797, Control_c, 0, 64, 35
1, 239798, Note_on_c, 0, 60, 60
1, 239805, Note_on_c, 0, 57, 58
1, 239812, Control_c, 0, 64, 0
1, 239831, Note_off_c, 0, 65, 63
1, 239834, Note_off_c, 0, 57, 65
1, 239843, Note_off_c, 0, 60, 63
1, 240056, Note_off_c, 0, 70, 61
1, 240074, Note_on_c, 0, 77, 73
1, 240085, Note_on_c, 0, 69, 74
1, 240092, Note_off_c, 0, 79, 55
1, 240092, Note_on_c, 0, 60, 61
1, 240092, Note_on_c, 0, 65, 62
1, 240098, Note_on_c, 0, 57, 55
1, 240118, Note_off_c, 0, 65, 67
1, 240134, Note_off_c, 0, 60, 63
1, 240148, Note_off_c, 0, 57, 64
1, 240301, Control_c, 0, 64, 30
1, 240316, Control_c, 0, 64, 68
1, 240319, Note_on_c, 0, 41, 75
1, 240330, Control_c, 0, 64, 78
1, 240345, Control_c, 0, 64, 90
1, 240346, Note_off_c, 0, 69, 61
1, 240354, Note_off_c, 0, 41, 65
1, 240360, Control_c, 0, 64, 127
1, 240375, Note_off_c, 0, 77, 59
1, 240545, Control_c, 0, 64, 90
1, 240558, Note_on_c, 0, 77, 86
1, 240560, Control_c, 0, 64, 62
1, 240564, Note_on_c, 0, 68, 82
1, 240572, Note_on_c, 0, 61, 65
1, 240575, Control_c, 0, 64, 25
1, 240584, Note_on_c, 0, 56, 49
1, 240586, Note_on_c, 0, 53, 60
1, 240590, Control_c, 0, 64, 0
1, 240606, Control_c, 0, 64, 34
1, 240621, Control_c, 0, 64, 64
1, 240624, Note_off_c, 0, 68, 65
1, 240632, Note_off_c, 0, 77, 63
1, 240635, Control_c, 0, 64, 81
1, 240650, Control_c, 0, 64, 111
1, 240665, Control_c, 0, 64, 127
1, 240732, Note_off_c, 0, 53, 31
1, 240736, Note_off_c, 0, 61, 34
1, 240756, Note_off_c, 0, 56, 33
1, 240830, Note_on_c, 0, 56, 58
1, 240834, Note_on_c, 0, 61, 52
1, 240843, Note_on_c, 0, 53, 60
1, 240859, Note_off_c, 0, 61, 56
1, 240877, Note_off_c, 0, 56, 60
1, 240882, Note_off_c, 0, 53, 61
1, 240963, Note_on_c, 0, 77, 83
1, 240966, Note_on_c, 0, 68, 80
1, 240998, Note_off_c, 0, 77, 60
1, 241006, Note_off_c, 0, 68, 57
1, 241021, Control_c, 0, 64, 80
1, 241036, Control_c, 0, 64, 51
1, 241051, Control_c, 0, 64, 0
1, 241055, Note_on_c, 0, 77, 88
1, 241059, Note_on_c, 0, 68, 80
1, 241081, Note_on_c, 0, 42, 72
1, 241110, Control_c, 0, 64, 12
1, 241125, Control_c, 0, 64, 63
1, 241140, Control_c, 0, 64, 77
1, 241147, Note_off_c, 0, 42, 64
1, 241154, Control_c, 0, 64, 94
1, 241169, Control_c, 0, 64, 127
1, 241290, Note_off_c, 0, 77, 58
1, 241317, Note_off_c, 0, 68, 61
1, 241397, Note_on_c, 0, 51, 53
1, 241402, Note_on_c, 0, 61, 60
1, 241412, Note_on_c, 0, 58, 55
1, 241499, Note_off_c, 0, 51, 53
1, 241506, Note_off_c, 0, 61, 50
1, 241540, Note_off_c, 0, 58, 53
1, 241644, Note_on_c, 0, 75, 77
1, 241657, Note_on_c, 0, 66, 70
1, 241659, Note_on_c, 0, 51, 55
1, 241669, Note_on_c, 0, 61, 30
1, 241671, Note_on_c, 0, 58, 60
1, 241708, Note_off_c, 0, 58, 61
1, 241709, Note_off_c, 0, 61, 42
1, 241710, Control_c, 0, 64, 82
1, 241725, Control_c, 0, 64, 53
1, 241740, Control_c, 0, 64, 0
1, 241749, Note_off_c, 0, 51, 61
1, 241873, Control_c, 0, 64, 60
1, 241887, Note_on_c, 0, 44, 74
1, 241888, Control_c, 0, 64, 78
1, 241902, Control_c, 0, 64, 88
1, 241910, Note_off_c, 0, 66, 59
1, 241917, Control_c, 0, 64, 116
1, 241932, Control_c, 0, 64, 127
1, 241934, Note_off_c, 0, 75, 61
1, 241949, Note_off_c, 0, 44, 63
1, 242061, Note_on_c, 0, 75, 78
1, 242071, Note_on_c, 0, 66, 65
1, 242106, Note_off_c, 0, 66, 62
1, 242108, Note_off_c, 0, 75, 64
1, 242158, Note_on_c, 0, 75, 74
1, 242174, Note_on_c, 0, 66, 73
1, 242199, Note_on_c, 0, 60, 51
1, 242200, Note_on_c, 0, 54, 52
1, 242211, Note_on_c, 0, 56, 46
1, 242246, Note_off_c, 0, 66, 60
1, 242338, Note_on_c, 0, 70, 81
1, 242338, Note_on_c, 0, 78, 73
1, 242367, Note_off_c, 0, 75, 59
1, 242375, Note_off_c, 0, 60, 33
1, 242394, Note_off_c, 0, 78, 63
1, 242399, Note_off_c, 0, 70, 62
1, 242404, Note_off_c, 0, 56, 33
1, 242405, Note_off_c, 0, 54, 35
1, 242456, Note_on_c, 0, 77, 80
1, 242462, Note_on_c, 0, 68, 82
1, 242484, Note_on_c, 0, 54, 58
1, 242491, Note_on_c, 0, 56, 36
1, 242505, Note_off_c, 0, 68, 64
1, 242506, Note_off_c, 0, 77, 61
1, 242520, Note_off_c, 0, 56, 63
1, 242527, Note_off_c, 0, 54, 62
1, 242566, Note_on_c, 0, 75, 79
1, 242572, Note_on_c, 0, 66, 78
1, 242607, Control_c, 0, 64, 106
1, 242615, Note_off_c, 0, 66, 61
1, 242618, Note_off_c, 0, 75, 64
1, 242622, Control_c, 0, 64, 69
1, 242637, Control_c, 0, 64, 18
1, 242651, Control_c, 0, 64, 0
1, 242682, Note_on_c, 0, 75, 75
1, 242686, Note_on_c, 0, 66, 74
1, 242700, Note_on_c, 0, 37, 67
1, 242711, Control_c, 0, 64, 34
1, 242733, Control_c, 0, 64, 63
1, 242733, Note_off_c, 0, 37, 66
1, 242748, Control_c, 0, 64, 77
1, 242763, Control_c, 0, 64, 94
1, 242777, Control_c, 0, 64, 127
1, 242970, Control_c, 0, 64, 107
1, 242980, Note_on_c, 0, 61, 63
1, 242984, Note_on_c, 0, 56, 64
1, 242984, Control_c, 0, 64, 68
1, 242994, Note_on_c, 0, 53, 56
1, 243000, Control_c, 0, 64, 29
1, 243015, Control_c, 0, 64, 0
1, 243025, Note_off_c, 0, 61, 63
1, 243034, Note_off_c, 0, 53, 62
1, 243038, Note_off_c, 0, 56, 59
1, 243231, Note_off_c, 0, 66, 59
1, 243248, Note_on_c, 0, 73, 69
1, 243261, Note_on_c, 0, 65, 60
1, 243272, Note_on_c, 0, 53, 55
1, 243275, Note_on_c, 0, 61, 54
1, 243285, Note_on_c, 0, 56, 43
1, 243302, Note_off_c, 0, 61, 64
1, 243320, Note_off_c, 0, 56, 65
1, 243329, Note_off_c, 0, 53, 63
1, 243352, Note_off_c, 0, 75, 31
1, 243481, Control_c, 0, 64, 34
1, 243496, Control_c, 0, 64, 61
1, 243509, Note_on_c, 0, 37, 58
1, 243511, Control_c, 0, 64, 69
1, 243526, Control_c, 0, 64, 76
1, 243541, Note_off_c, 0, 37, 63
1, 243541, Control_c, 0, 64, 92
1, 243550, Note_off_c, 0, 65, 58
1, 243556, Control_c, 0, 64, 127
1, 243563, Note_off_c, 0, 73, 53
1, 243719, Control_c, 0, 67, 8
1, 243733, Control_c, 0, 67, 9
1, 243748, Control_c, 0, 67, 11
1, 243763, Control_c, 0, 67, 12
1, 243778, Control_c, 0, 67, 13
1, 243791, Note_on_c, 0, 73, 69
1, 243793, Control_c, 0, 64, 93
1, 243793, Control_c, 0, 67, 14
1, 243801, Note_on_c, 0, 64, 62
1, 243808, Control_c, 0, 64, 69
1, 243808, Control_c, 0, 67, 15
1, 243818, Note_on_c, 0, 52, 46
1, 243822, Control_c, 0, 64, 51
1, 243822, Control_c, 0, 67, 15
1, 243827, Note_on_c, 0, 61, 40
1, 243832, Note_on_c, 0, 57, 40
1, 243837, Control_c, 0, 64, 43
1, 243837, Control_c, 0, 67, 16
1, 243852, Control_c, 0, 64, 50
1, 243867, Control_c, 0, 64, 63
1, 243882, Control_c, 0, 64, 73
1, 243896, Control_c, 0, 64, 87
1, 243901, Note_off_c, 0, 64, 55
1, 243911, Control_c, 0, 64, 121
1, 243926, Control_c, 0, 64, 127
1, 243926, Control_c, 0, 67, 16
1, 243942, Note_off_c, 0, 73, 61
1, 243954, Note_off_c, 0, 52, 56
1, 243956, Control_c, 0, 67, 16
1, 243995, Note_off_c, 0, 61, 34
1, 244043, Note_off_c, 0, 57, 29
1, 244089, Control_c, 0, 67, 15
1, 244103, Note_on_c, 0, 52, 48
1, 244110, Note_on_c, 0, 61, 49
1, 244120, Note_on_c, 0, 57, 20
1, 244137, Note_off_c, 0, 61, 62
1, 244154, Note_off_c, 0, 57, 63
1, 244173, Note_off_c, 0, 52, 61
1, 244242, Note_on_c, 0, 73, 65
1, 244259, Control_c, 0, 67, 16
1, 244262, Note_on_c, 0, 64, 51
1, 244274, Control_c, 0, 67, 16
1, 244277, Note_off_c, 0, 73, 58
1, 244289, Control_c, 0, 67, 18
1, 244297, Note_off_c, 0, 64, 64
1, 244304, Control_c, 0, 67, 19
1, 244319, Control_c, 0, 64, 101
1, 244319, Control_c, 0, 67, 19
1, 244334, Control_c, 0, 64, 74
1, 244348, Control_c, 0, 64, 55
1, 244348, Control_c, 0, 67, 20
1, 244363, Control_c, 0, 64, 27
1, 244363, Control_c, 0, 67, 20
1, 244366, Note_on_c, 0, 73, 60
1, 244378, Control_c, 0, 64, 14
1, 244381, Note_on_c, 0, 64, 62
1, 244393, Control_c, 0, 64, 36
1, 244393, Control_c, 0, 67, 21
1, 244405, Note_on_c, 0, 42, 51
1, 244408, Control_c, 0, 64, 58
1, 244408, Control_c, 0, 67, 21
1, 244422, Control_c, 0, 64, 71
1, 244422, Control_c, 0, 67, 22
1, 244437, Control_c, 0, 64, 82
1, 244437, Control_c, 0, 67, 23
1, 244452, Note_off_c, 0, 42, 63
1, 244452, Control_c, 0, 64, 96
1, 244452, Control_c, 0, 67, 24
1, 244467, Control_c, 0, 64, 110
1, 244467, Control_c, 0, 67, 25
1, 244482, Control_c, 0, 64, 127
1, 244482, Control_c, 0, 67, 25
1, 244511, Control_c, 0, 67, 26
1, 244526, Control_c, 0, 67, 26
1, 244541, Control_c, 0, 67, 27
1, 244555, Control_c, 0, 67, 28
1, 244570, Control_c, 0, 67, 29
1, 244585, Control_c, 0, 67, 30
1, 244601, Control_c, 0, 67, 31
1, 244631, Control_c, 0, 67, 31
1, 244645, Note_off_c, 0, 64, 58
1, 244660, Control_c, 0, 64, 115
1, 244675, Control_c, 0, 64, 82
1, 244675, Control_c, 0, 67, 32
1, 244687, Note_on_c, 0, 54, 44
1, 244688, Note_on_c, 0, 59, 43
1, 244690, Control_c, 0, 64, 65
1, 244690, Control_c, 0, 67, 33
1, 244698, Note_on_c, 0, 57, 44
1, 244705, Control_c, 0, 64, 41
1, 244705, Control_c, 0, 67, 34
1, 244719, Control_c, 0, 64, 0
1, 244719, Control_c, 0, 67, 36
1, 244724, Note_off_c, 0, 59, 55
1, 244727, Note_off_c, 0, 54, 52
1, 244730, Note_off_c, 0, 57, 55
1, 244734, Control_c, 0, 67, 38
1, 244749, Control_c, 0, 67, 39
1, 244764, Control_c, 0, 67, 40
1, 244778, Control_c, 0, 67, 41
1, 244793, Control_c, 0, 67, 42
1, 244808, Control_c, 0, 67, 44
1, 244823, Control_c, 0, 67, 46
1, 244838, Control_c, 0, 67, 47
1, 244852, Control_c, 0, 67, 48
1, 244867, Control_c, 0, 67, 49
1, 244882, Control_c, 0, 67, 50
1, 244897, Control_c, 0, 67, 51
1, 244912, Control_c, 0, 67, 52
1, 244927, Control_c, 0, 67, 53
1, 244936, Note_on_c, 0, 71, 55
1, 244942, Control_c, 0, 67, 54
1, 244951, Note_on_c, 0, 63, 40
1, 244957, Control_c, 0, 67, 55
1, 244960, Note_on_c, 0, 54, 41
1, 244971, Note_on_c, 0, 59, 29
1, 244978, Control_c, 0, 67, 57
1, 244991, Note_off_c, 0, 73, 39
1, 244993, Control_c, 0, 67, 59
1, 244996, Note_off_c, 0, 59, 53
1, 245008, Control_c, 0, 67, 60
1, 245023, Control_c, 0, 67, 61
1, 245025, Note_off_c, 0, 54, 62
1, 245038, Control_c, 0, 67, 62
1, 245052, Control_c, 0, 67, 62
1, 245067, Control_c, 0, 67, 63
1, 245082, Control_c, 0, 67, 64
1, 245097, Control_c, 0, 67, 65
1, 245112, Control_c, 0, 67, 66
1, 245126, Control_c, 0, 67, 67
1, 245141, Control_c, 0, 67, 67
1, 245156, Control_c, 0, 64, 33
1, 245156, Control_c, 0, 67, 68
1, 245171, Control_c, 0, 64, 56
1, 245186, Control_c, 0, 64, 64
1, 245192, Note_on_c, 0, 42, 56
1, 245201, Control_c, 0, 64, 69
1, 245201, Control_c, 0, 67, 67
1, 245216, Control_c, 0, 64, 75
1, 245216, Control_c, 0, 67, 67
1, 245228, Note_off_c, 0, 42, 64
1, 245231, Control_c, 0, 64, 85
1, 245231, Control_c, 0, 67, 66
1, 245242, Note_off_c, 0, 71, 60
1, 245245, Control_c, 0, 64, 98
1, 245245, Control_c, 0, 67, 66
1, 245260, Control_c, 0, 64, 112
1, 245260, Control_c, 0, 67, 65
1, 245275, Control_c, 0, 64, 127
1, 245308, Note_off_c, 0, 63, 31
1, 245349, Control_c, 0, 67, 66
1, 245378, Control_c, 0, 67, 66
1, 245394, Control_c, 0, 67, 67
1, 245409, Control_c, 0, 67, 67
1, 245423, Note_on_c, 0, 71, 66
1, 245424, Control_c, 0, 67, 68
1, 245433, Note_on_c, 0, 63, 55
1, 245439, Control_c, 0, 64, 96
1, 245439, Control_c, 0, 67, 68
1, 245454, Control_c, 0, 64, 85
1, 245454, Control_c, 0, 67, 69
1, 245457, Note_on_c, 0, 54, 46
1, 245462, Note_on_c, 0, 59, 39
1, 245466, Note_on_c, 0, 57, 40
1, 245468, Control_c, 0, 64, 85
1, 245468, Control_c, 0, 67, 70
1, 245483, Control_c, 0, 67, 73
1, 245487, Note_off_c, 0, 63, 60
1, 245494, Note_off_c, 0, 71, 62
1, 245498, Control_c, 0, 64, 88
1, 245498, Control_c, 0, 67, 74
1, 245513, Control_c, 0, 64, 97
1, 245513, Control_c, 0, 67, 76
1, 245528, Control_c, 0, 64, 111
1, 245528, Control_c, 0, 67, 77
1, 245534, Note_off_c, 0, 57, 50
1, 245538, Note_off_c, 0, 59, 49
1, 245542, Control_c, 0, 64, 127
1, 245542, Control_c, 0, 67, 78
1, 245557, Control_c, 0, 67, 80
1, 245572, Control_c, 0, 67, 82
1, 245573, Note_off_c, 0, 54, 33
1, 245587, Control_c, 0, 67, 85
1, 245601, Control_c, 0, 67, 88
1, 245616, Control_c, 0, 67, 90
1, 245631, Control_c, 0, 67, 93
1, 245646, Control_c, 0, 67, 95
1, 245661, Control_c, 0, 67, 96
1, 245675, Control_c, 0, 67, 97
1, 245690, Control_c, 0, 67, 98
1, 245699, Note_on_c, 0, 54, 52
1, 245699, Note_on_c, 0, 59, 33
1, 245705, Control_c, 0, 67, 98
1, 245724, Note_on_c, 0, 57, 15
1, 245727, Control_c, 0, 67, 99
1, 245742, Control_c, 0, 67, 99
1, 245743, Note_off_c, 0, 59, 40
1, 245746, Note_off_c, 0, 54, 63
1, 245757, Control_c, 0, 67, 100
1, 245764, Note_off_c, 0, 57, 36
1, 245772, Control_c, 0, 67, 100
1, 245787, Control_c, 0, 67, 101
1, 245801, Control_c, 0, 67, 102
1, 245816, Control_c, 0, 67, 103
1, 245821, Note_on_c, 0, 73, 62
1, 245831, Control_c, 0, 67, 105
1, 245833, Note_on_c, 0, 63, 48
1, 245846, Control_c, 0, 67, 106
1, 245861, Control_c, 0, 67, 107
1, 245863, Note_off_c, 0, 63, 62
1, 245869, Note_off_c, 0, 73, 52
1, 245875, Control_c, 0, 64, 108
1, 245875, Control_c, 0, 67, 108
1, 245890, Control_c, 0, 64, 87
1, 245890, Control_c, 0, 67, 109
1, 245905, Control_c, 0, 64, 66
1, 245905, Control_c, 0, 67, 110
1, 245919, Control_c, 0, 64, 43
1, 245919, Control_c, 0, 67, 111
1, 245934, Control_c, 0, 64, 0
1, 245934, Control_c, 0, 67, 111
1, 245945, Note_on_c, 0, 73, 50
1, 245949, Control_c, 0, 67, 112
1, 245962, Note_on_c, 0, 40, 52
1, 245964, Control_c, 0, 64, 12
1, 245966, Note_on_c, 0, 64, 53
1, 245979, Control_c, 0, 64, 42
1, 245994, Control_c, 0, 64, 60
1, 246007, Note_off_c, 0, 40, 61
1, 246009, Control_c, 0, 64, 69
1, 246024, Control_c, 0, 64, 74
1, 246039, Control_c, 0, 64, 80
1, 246054, Control_c, 0, 64, 86
1, 246068, Control_c, 0, 64, 91
1, 246083, Control_c, 0, 64, 96
1, 246098, Control_c, 0, 64, 100
1, 246112, Control_c, 0, 64, 101
1, 246127, Control_c, 0, 64, 101
1, 246157, Control_c, 0, 67, 112
1, 246172, Control_c, 0, 64, 101
1, 246188, Control_c, 0, 64, 100
1, 246188, Control_c, 0, 67, 113
1, 246203, Control_c, 0, 64, 88
1, 246217, Control_c, 0, 64, 72
1, 246232, Control_c, 0, 64, 55
1, 246247, Note_on_c, 0, 56, 52
1, 246247, Control_c, 0, 64, 0
1, 246247, Control_c, 0, 67, 113
1, 246262, Control_c, 0, 67, 114
1, 246262, Note_on_c, 0, 52, 46
1, 246273, Note_off_c, 0, 64, 62
1, 246290, Note_off_c, 0, 56, 64
1, 246291, Control_c, 0, 67, 114
1, 246296, Note_off_c, 0, 52, 64
1, 246306, Control_c, 0, 67, 115
1, 246336, Control_c, 0, 67, 115
1, 246424, Control_c, 0, 67, 116
1, 246523, Note_on_c, 0, 71, 52
1, 246527, Note_on_c, 0, 62, 42
1, 246538, Note_on_c, 0, 56, 42
1, 246552, Note_on_c, 0, 52, 38
1, 246563, Note_off_c, 0, 56, 57
1, 246579, Note_off_c, 0, 52, 58
1, 246602, Note_off_c, 0, 73, 34
1, 246610, Control_c, 0, 67, 116
1, 246713, Control_c, 0, 67, 116
1, 246742, Control_c, 0, 67, 115
1, 246757, Control_c, 0, 67, 115
1, 246772, Control_c, 0, 67, 114
1, 246787, Control_c, 0, 64, 12
1, 246787, Control_c, 0, 67, 112
1, 246802, Control_c, 0, 64, 54
1, 246802, Control_c, 0, 67, 111
1, 246817, Note_on_c, 0, 40, 55
1, 246817, Control_c, 0, 64, 64
1, 246817, Control_c, 0, 67, 109
1, 246832, Control_c, 0, 64, 68
1, 246832, Control_c, 0, 67, 107
1, 246837, Note_off_c, 0, 71, 55
1, 246846, Control_c, 0, 64, 75
1, 246846, Control_c, 0, 67, 105
1, 246859, Note_off_c, 0, 40, 60
1, 246861, Control_c, 0, 64, 88
1, 246861, Control_c, 0, 67, 103
1, 246876, Control_c, 0, 64, 113
1, 246876, Control_c, 0, 67, 102
1, 246881, Note_off_c, 0, 62, 33
1, 246891, Control_c, 0, 64, 127
1, 246891, Control_c, 0, 67, 99
1, 246906, Control_c, 0, 67, 95
1, 246921, Control_c, 0, 67, 91
1, 246936, Control_c, 0, 67, 86
1, 246950, Control_c, 0, 67, 81
1, 246965, Control_c, 0, 67, 77
1, 246980, Control_c, 0, 67, 72
1, 246995, Note_on_c, 0, 71, 57
1, 246995, Control_c, 0, 67, 69
1, 247001, Note_on_c, 0, 62, 52
1, 247010, Control_c, 0, 67, 65
1, 247025, Control_c, 0, 67, 60
1, 247033, Note_off_c, 0, 71, 59
1, 247040, Control_c, 0, 67, 55
1, 247045, Note_off_c, 0, 62, 58
1, 247055, Control_c, 0, 67, 49
1, 247070, Control_c, 0, 67, 42
1, 247085, Control_c, 0, 67, 31
1, 247100, Control_c, 0, 67, 19
1, 247114, Control_c, 0, 67, 0
1, 247134, Note_on_c, 0, 62, 53
1, 247142, Note_on_c, 0, 71, 61
1, 247161, Note_on_c, 0, 56, 34
1, 247173, Note_off_c, 0, 62, 59
1, 247177, Note_on_c, 0, 52, 18
1, 247208, Note_off_c, 0, 56, 47
1, 247229, Note_off_c, 0, 52, 51
1, 247258, Note_off_c, 0, 71, 54
1, 247293, Note_on_c, 0, 74, 65
1, 247305, Note_on_c, 0, 66, 55
1, 247338, Note_off_c, 0, 66, 66
1, 247346, Note_off_c, 0, 74, 61
1, 247416, Note_on_c, 0, 73, 64
1, 247420, Note_on_c, 0, 64, 54
1, 247437, Note_on_c, 0, 52, 42
1, 247442, Note_off_c, 0, 64, 64
1, 247453, Note_off_c, 0, 73, 56
1, 247466, Note_off_c, 0, 52, 57
1, 247526, Note_on_c, 0, 62, 60
1, 247528, Note_on_c, 0, 71, 60
1, 247554, Note_off_c, 0, 62, 66
1, 247566, Control_c, 0, 64, 99
1, 247568, Note_off_c, 0, 71, 58
1, 247581, Control_c, 0, 64, 67
1, 247596, Control_c, 0, 64, 29
1, 247611, Control_c, 0, 64, 0
1, 247648, Note_on_c, 0, 69, 58
1, 247655, Control_c, 0, 64, 21
1, 247656, Note_on_c, 0, 61, 59
1, 247657, Note_on_c, 0, 45, 52
1, 247670, Control_c, 0, 64, 55
1, 247685, Control_c, 0, 64, 70
1, 247696, Note_off_c, 0, 45, 59
1, 247699, Control_c, 0, 64, 83
1, 247714, Control_c, 0, 64, 114
1, 247719, Note_off_c, 0, 61, 59
1, 247728, Note_off_c, 0, 69, 61
1, 247729, Control_c, 0, 64, 127
1, 248029, Note_on_c, 0, 61, 59
1, 248038, Note_on_c, 0, 52, 49
1, 248040, Note_on_c, 0, 57, 57
1, 248126, Note_off_c, 0, 52, 56
1, 248202, Note_off_c, 0, 57, 47
1, 248239, Note_off_c, 0, 61, 35
1, 248313, Note_on_c, 0, 93, 88
1, 248316, Note_on_c, 0, 85, 84
1, 248319, Note_on_c, 0, 81, 77
1, 248333, Note_on_c, 0, 64, 59
1, 248334, Note_on_c, 0, 61, 55
1, 248343, Note_on_c, 0, 57, 66
1, 248361, Note_off_c, 0, 64, 67
1, 248379, Note_off_c, 0, 61, 62
1, 248404, Note_off_c, 0, 57, 62
1, 248522, Control_c, 0, 64, 73
1, 248537, Control_c, 0, 64, 50
1, 248552, Control_c, 0, 64, 40
1, 248555, Note_on_c, 0, 45, 82
1, 248566, Control_c, 0, 64, 57
1, 248581, Control_c, 0, 64, 72
1, 248597, Control_c, 0, 64, 98
1, 248600, Note_off_c, 0, 45, 62
1, 248611, Control_c, 0, 64, 127
1, 248680, Note_off_c, 0, 85, 59
1, 248691, Note_off_c, 0, 81, 48
1, 248751, Note_off_c, 0, 93, 30
1, 248886, Note_on_c, 0, 84, 91
1, 248888, Note_on_c, 0, 93, 92
1, 248889, Note_on_c, 0, 81, 89
1, 248900, Note_on_c, 0, 60, 72
1, 248900, Control_c, 0, 64, 92
1, 248906, Note_on_c, 0, 65, 68
1, 248910, Note_on_c, 0, 57, 69
1, 248915, Control_c, 0, 64, 68
1, 248930, Control_c, 0, 64, 60
1, 248945, Control_c, 0, 64, 67
1, 248960, Control_c, 0, 64, 87
1, 248975, Control_c, 0, 64, 127
1, 248976, Note_off_c, 0, 81, 57
1, 249016, Note_off_c, 0, 93, 62
1, 249020, Note_off_c, 0, 84, 61
1, 249050, Note_off_c, 0, 57, 53
1, 249062, Note_off_c, 0, 65, 54
1, 249063, Note_off_c, 0, 60, 54
1, 249209, Note_on_c, 0, 60, 70
1, 249209, Note_on_c, 0, 65, 69
1, 249210, Note_on_c, 0, 57, 67
1, 249238, Note_off_c, 0, 65, 64
1, 249277, Note_off_c, 0, 60, 63
1, 249301, Note_off_c, 0, 57, 62
1, 249367, Note_on_c, 0, 93, 91
1, 249369, Note_on_c, 0, 84, 81
1, 249371, Note_on_c, 0, 81, 82
1, 249407, Note_off_c, 0, 93, 66
1, 249411, Note_off_c, 0, 84, 63
1, 249417, Note_off_c, 0, 81, 61
1, 249449, Control_c, 0, 64, 75
1, 249471, Poly_aftertouch_c, 0, 81, 0
1, 249472, Control_c, 0, 64, 0
1, 249474, Note_on_c, 0, 93, 93
1, 249476, Note_on_c, 0, 84, 87
1, 249478, Note_on_c, 0, 81, 75
1, 249491, Note_on_c, 0, 46, 82
1, 249531, Control_c, 0, 64, 43
1, 249546, Control_c, 0, 64, 72
1, 249547, Note_off_c, 0, 46, 64
1, 249560, Control_c, 0, 64, 96
1, 249575, Control_c, 0, 64, 127
1, 249668, Note_off_c, 0, 81, 48
1, 249672, Note_off_c, 0, 93, 46
1, 249769, Note_off_c, 0, 84, 54
1, 249829, Note_on_c, 0, 55, 65
1, 249834, Note_on_c, 0, 62, 68
1, 249837, Note_on_c, 0, 65, 65
1, 249900, Note_off_c, 0, 55, 59
1, 249948, Note_off_c, 0, 65, 51
1, 249970, Note_off_c, 0, 62, 59
1, 250103, Note_on_c, 0, 91, 90
1, 250105, Note_on_c, 0, 82, 86
1, 250106, Note_on_c, 0, 65, 60
1, 250106, Note_on_c, 0, 79, 77
1, 250111, Note_on_c, 0, 62, 61
1, 250115, Note_on_c, 0, 55, 64
1, 250131, Note_off_c, 0, 65, 67
1, 250143, Note_off_c, 0, 62, 65
1, 250179, Note_off_c, 0, 55, 62
1, 250251, Control_c, 0, 64, 77
1, 250265, Control_c, 0, 64, 37
1, 250280, Control_c, 0, 64, 0
1, 250323, Note_on_c, 0, 48, 82
1, 250339, Control_c, 0, 64, 60
1, 250343, Note_off_c, 0, 79, 59
1, 250348, Note_off_c, 0, 91, 61
1, 250354, Control_c, 0, 64, 89
1, 250361, Note_off_c, 0, 82, 62
1, 250369, Control_c, 0, 64, 127
1, 250376, Note_off_c, 0, 48, 58
1, 250528, Note_on_c, 0, 82, 87
1, 250529, Note_on_c, 0, 91, 89
1, 250531, Note_on_c, 0, 79, 76
1, 250550, Note_off_c, 0, 91, 66
1, 250555, Note_off_c, 0, 82, 60
1, 250563, Note_off_c, 0, 79, 61
1, 250614, Note_on_c, 0, 91, 97
1, 250617, Note_on_c, 0, 79, 76
1, 250618, Note_on_c, 0, 82, 98
1, 250627, Note_on_c, 0, 64, 67
1, 250628, Note_on_c, 0, 58, 70
1, 250632, Note_on_c, 0, 55, 63
1, 250665, Note_off_c, 0, 79, 63
1, 250688, Note_off_c, 0, 82, 64
1, 250695, Note_off_c, 0, 91, 63
1, 250737, Note_off_c, 0, 55, 51
1, 250802, Note_on_c, 0, 94, 95
1, 250805, Note_on_c, 0, 82, 84
1, 250807, Note_off_c, 0, 64, 25
1, 250811, Note_on_c, 0, 86, 71
1, 250832, Note_off_c, 0, 86, 68
1, 250845, Note_off_c, 0, 82, 64
1, 250848, Note_off_c, 0, 94, 65
1, 250854, Note_off_c, 0, 58, 28
1, 250922, Note_on_c, 0, 93, 88
1, 250927, Note_on_c, 0, 81, 84
1, 250933, Note_on_c, 0, 84, 73
1, 250935, Note_on_c, 0, 64, 52
1, 250936, Note_on_c, 0, 55, 65
1, 250940, Note_on_c, 0, 58, 72
1, 250952, Note_off_c, 0, 84, 71
1, 250966, Note_off_c, 0, 64, 59
1, 250969, Note_off_c, 0, 93, 65
1, 250973, Note_off_c, 0, 81, 65
1, 250978, Note_off_c, 0, 58, 64
1, 250995, Note_off_c, 0, 55, 64
1, 251043, Note_on_c, 0, 82, 90
1, 251043, Note_on_c, 0, 91, 89
1, 251046, Note_on_c, 0, 79, 80
1, 251085, Note_off_c, 0, 91, 62
1, 251087, Note_off_c, 0, 82, 62
1, 251088, Note_off_c, 0, 79, 55
1, 251103, Control_c, 0, 64, 63
1, 251118, Control_c, 0, 64, 0
1, 251150, Note_on_c, 0, 91, 86
1, 251154, Note_on_c, 0, 82, 89
1, 251158, Note_on_c, 0, 79, 77
1, 251168, Note_on_c, 0, 41, 73
1, 251193, Control_c, 0, 64, 58
1, 251194, Note_off_c, 0, 41, 64
1, 251208, Control_c, 0, 64, 82
1, 251222, Control_c, 0, 64, 127
1, 251296, Note_off_c, 0, 91, 57
1, 251376, Note_off_c, 0, 79, 34
1, 251446, Note_on_c, 0, 65, 69
1, 251449, Note_on_c, 0, 60, 69
1, 251452, Note_on_c, 0, 57, 66
1, 251461, Note_off_c, 0, 82, 60
1, 251475, Note_off_c, 0, 65, 65
1, 251479, Note_off_c, 0, 57, 64
1, 251496, Note_off_c, 0, 60, 60
1, 251690, Note_on_c, 0, 89, 82
1, 251692, Note_on_c, 0, 77, 75
1, 251693, Note_on_c, 0, 81, 79
1, 251696, Control_c, 0, 64, 117
1, 251702, Note_on_c, 0, 57, 65
1, 251702, Note_on_c, 0, 65, 66
1, 251711, Note_on_c, 0, 60, 69
1, 251718, Control_c, 0, 64, 67
1, 251732, Control_c, 0, 64, 0
1, 251733, Note_off_c, 0, 65, 66
1, 251751, Note_off_c, 0, 60, 64
1, 251768, Note_off_c, 0, 57, 60
1, 251926, Control_c, 0, 64, 36
1, 251929, Note_on_c, 0, 41, 72
1, 251941, Note_on_c, 0, 43, 57
1, 251941, Control_c, 0, 64, 80
1, 251953, Note_off_c, 0, 41, 68
1, 251956, Control_c, 0, 64, 105
1, 251967, Note_off_c, 0, 43, 53
1, 251970, Note_off_c, 0, 77, 58
1, 251970, Note_off_c, 0, 81, 59
1, 251971, Control_c, 0, 64, 127
1, 251974, Note_off_c, 0, 89, 46
1, 252162, Control_c, 0, 64, 117
1, 252170, Note_on_c, 0, 89, 94
1, 252173, Note_on_c, 0, 80, 85
1, 252176, Note_on_c, 0, 77, 83
1, 252177, Control_c, 0, 64, 66
1, 252185, Note_on_c, 0, 65, 64
1, 252188, Note_on_c, 0, 56, 60
1, 252190, Note_on_c, 0, 53, 61
1, 252192, Control_c, 0, 64, 0
1, 252197, Note_on_c, 0, 61, 62
1, 252237, Note_off_c, 0, 77, 62
1, 252251, Control_c, 0, 64, 58
1, 252266, Note_off_c, 0, 89, 63
1, 252266, Control_c, 0, 64, 86
1, 252277, Note_off_c, 0, 80, 62
1, 252281, Control_c, 0, 64, 127
1, 252289, Note_off_c, 0, 53, 58
1, 252306, Note_off_c, 0, 65, 57
1, 252322, Note_off_c, 0, 56, 55
1, 252333, Note_off_c, 0, 61, 53
1, 252431, Note_on_c, 0, 65, 63
1, 252439, Note_on_c, 0, 53, 58
1, 252441, Note_on_c, 0, 56, 57
1, 252441, Note_on_c, 0, 61, 59
1, 252458, Note_off_c, 0, 65, 65
1, 252483, Note_off_c, 0, 61, 64
1, 252501, Note_off_c, 0, 53, 61
1, 252504, Note_off_c, 0, 56, 56
1, 252573, Note_on_c, 0, 89, 83
1, 252573, Note_on_c, 0, 80, 80
1, 252578, Note_on_c, 0, 77, 71
1, 252592, Note_off_c, 0, 89, 71
1, 252595, Note_off_c, 0, 80, 67
1, 252606, Note_off_c, 0, 77, 64
1, 252629, Control_c, 0, 64, 67
1, 252644, Control_c, 0, 64, 0
1, 252659, Note_on_c, 0, 80, 88
1, 252660, Note_on_c, 0, 89, 89
1, 252665, Note_on_c, 0, 77, 80
1, 252678, Note_on_c, 0, 42, 73
1, 252704, Control_c, 0, 64, 42
1, 252712, Note_off_c, 0, 42, 62
1, 252719, Control_c, 0, 64, 78
1, 252734, Control_c, 0, 64, 114
1, 252749, Control_c, 0, 64, 127
1, 252761, Note_off_c, 0, 89, 60
1, 252775, Note_off_c, 0, 77, 59
1, 252891, Note_off_c, 0, 80, 57
1, 252937, Note_on_c, 0, 54, 59
1, 252939, Note_on_c, 0, 63, 59
1, 252951, Note_on_c, 0, 58, 59
1, 252951, Note_on_c, 0, 61, 61
1, 252981, Note_off_c, 0, 54, 57
1, 253032, Note_off_c, 0, 63, 52
1, 253033, Note_off_c, 0, 61, 53
1, 253086, Note_off_c, 0, 58, 31
1, 253194, Note_on_c, 0, 87, 86
1, 253206, Note_on_c, 0, 78, 79
1, 253207, Note_on_c, 0, 75, 75
1, 253210, Note_on_c, 0, 58, 63
1, 253214, Note_on_c, 0, 63, 58
1, 253214, Note_on_c, 0, 54, 63
1, 253226, Note_on_c, 0, 61, 52
1, 253240, Note_off_c, 0, 63, 67
1, 253256, Note_off_c, 0, 61, 66
1, 253259, Control_c, 0, 64, 76
1, 253271, Note_off_c, 0, 58, 62
1, 253274, Control_c, 0, 64, 47
1, 253278, Note_off_c, 0, 54, 61
1, 253289, Control_c, 0, 64, 0
1, 253451, Note_on_c, 0, 44, 83
1, 253467, Control_c, 0, 64, 58
1, 253482, Control_c, 0, 64, 102
1, 253494, Note_off_c, 0, 44, 63
1, 253497, Control_c, 0, 64, 127
1, 253506, Note_off_c, 0, 75, 60
1, 253515, Note_off_c, 0, 87, 62
1, 253517, Note_off_c, 0, 78, 60
1, 253644, Note_on_c, 0, 78, 82
1, 253644, Note_on_c, 0, 87, 81
1, 253648, Note_on_c, 0, 75, 77
1, 253671, Note_off_c, 0, 87, 60
1, 253680, Note_off_c, 0, 78, 60
1, 253682, Note_off_c, 0, 75, 61
1, 253735, Note_on_c, 0, 87, 92
1, 253740, Note_on_c, 0, 75, 77
1, 253740, Note_on_c, 0, 78, 83
1, 253750, Note_on_c, 0, 54, 58
1, 253752, Note_on_c, 0, 63, 61
1, 253756, Note_on_c, 0, 60, 56
1, 253762, Note_on_c, 0, 56, 52
1, 253790, Note_off_c, 0, 75, 64
1, 253809, Note_off_c, 0, 78, 62
1, 253825, Note_off_c, 0, 87, 63
1, 253894, Note_off_c, 0, 54, 33
1, 253906, Note_off_c, 0, 63, 53
1, 253908, Note_on_c, 0, 90, 90
1, 253909, Note_on_c, 0, 78, 86
1, 253915, Note_on_c, 0, 82, 79
1, 253926, Note_off_c, 0, 56, 53
1, 253937, Note_off_c, 0, 82, 62
1, 253948, Note_off_c, 0, 78, 62
1, 253949, Note_off_c, 0, 90, 66
1, 253981, Note_off_c, 0, 60, 33
1, 254037, Note_on_c, 0, 77, 85
1, 254038, Note_on_c, 0, 89, 91
1, 254039, Note_on_c, 0, 54, 65
1, 254039, Note_on_c, 0, 80, 85
1, 254062, Note_on_c, 0, 56, 58
1, 254062, Note_on_c, 0, 60, 24
1, 254064, Note_off_c, 0, 89, 60
1, 254069, Note_off_c, 0, 80, 62
1, 254069, Note_off_c, 0, 77, 61
1, 254093, Note_off_c, 0, 56, 66
1, 254094, Note_off_c, 0, 60, 31
1, 254097, Note_off_c, 0, 54, 64
1, 254152, Note_on_c, 0, 75, 85
1, 254155, Note_on_c, 0, 87, 87
1, 254156, Note_on_c, 0, 78, 86
1, 254178, Note_off_c, 0, 87, 65
1, 254186, Note_off_c, 0, 78, 56
1, 254199, Note_off_c, 0, 75, 61
1, 254203, Control_c, 0, 64, 94
1, 254217, Control_c, 0, 64, 58
1, 254232, Control_c, 0, 64, 0
1, 254259, Note_on_c, 0, 87, 90
1, 254260, Note_on_c, 0, 75, 74
1, 254263, Note_on_c, 0, 37, 86
1, 254263, Note_on_c, 0, 78, 87
1, 254291, Control_c, 0, 64, 58
1, 254293, Note_off_c, 0, 37, 68
1, 254306, Control_c, 0, 64, 83
1, 254321, Control_c, 0, 64, 127
1, 254592, Note_on_c, 0, 65, 71
1, 254594, Note_on_c, 0, 61, 68
1, 254594, Note_on_c, 0, 56, 63
1, 254596, Note_on_c, 0, 53, 60
1, 254615, Note_off_c, 0, 87, 62
1, 254630, Note_off_c, 0, 53, 62
1, 254648, Note_off_c, 0, 65, 61
1, 254661, Note_off_c, 0, 56, 60
1, 254662, Note_off_c, 0, 61, 58
1, 254671, Note_off_c, 0, 75, 63
1, 254671, Note_off_c, 0, 78, 56
1, 254867, Note_on_c, 0, 85, 72
1, 254871, Note_on_c, 0, 77, 71
1, 254874, Note_on_c, 0, 73, 70
1, 254883, Note_on_c, 0, 53, 65
1, 254883, Note_on_c, 0, 65, 57
1, 254887, Note_on_c, 0, 61, 61
1, 254892, Note_on_c, 0, 56, 56
1, 254905, Note_off_c, 0, 65, 59
1, 254906, Control_c, 0, 64, 82
1, 254921, Control_c, 0, 64, 55
1, 254924, Note_off_c, 0, 61, 65
1, 254935, Control_c, 0, 64, 0
1, 254947, Note_off_c, 0, 56, 59
1, 254952, Note_off_c, 0, 53, 63
1, 255100, Control_c, 0, 64, 15
1, 255104, Note_on_c, 0, 37, 74
1, 255114, Control_c, 0, 64, 66
1, 255129, Control_c, 0, 64, 80
1, 255131, Note_off_c, 0, 37, 67
1, 255144, Control_c, 0, 64, 92
1, 255158, Control_c, 0, 64, 127
1, 255159, Note_off_c, 0, 85, 58
1, 255166, Note_off_c, 0, 77, 58
1, 255173, Note_off_c, 0, 73, 47
1, 255414, Note_on_c, 0, 85, 74
1, 255418, Note_on_c, 0, 76, 71
1, 255419, Note_on_c, 0, 73, 62
1, 255437, Note_on_c, 0, 61, 49
1, 255440, Note_on_c, 0, 52, 43
1, 255440, Control_c, 0, 64, 82
1, 255445, Note_on_c, 0, 57, 49
1, 255462, Control_c, 0, 64, 62
1, 255477, Control_c, 0, 64, 0
1, 255536, Control_c, 0, 64, 35
1, 255551, Control_c, 0, 64, 60
1, 255566, Control_c, 0, 64, 72
1, 255580, Control_c, 0, 64, 89
1, 255588, Note_off_c, 0, 52, 33
1, 255595, Control_c, 0, 64, 127
1, 255607, Note_off_c, 0, 61, 34
1, 255640, Control_c, 0, 67, 8
1, 255649, Note_off_c, 0, 85, 56
1, 255655, Control_c, 0, 67, 9
1, 255661, Note_off_c, 0, 57, 28
1, 255668, Note_off_c, 0, 76, 50
1, 255670, Control_c, 0, 67, 10
1, 255685, Control_c, 0, 67, 12
1, 255691, Note_off_c, 0, 73, 34
1, 255700, Control_c, 0, 67, 13
1, 255714, Control_c, 0, 67, 14
1, 255729, Control_c, 0, 67, 16
1, 255744, Control_c, 0, 67, 17
1, 255758, Control_c, 0, 67, 18
1, 255771, Note_on_c, 0, 61, 38
1, 255773, Control_c, 0, 67, 19
1, 255775, Note_on_c, 0, 52, 36
1, 255783, Note_on_c, 0, 57, 28
1, 255789, Control_c, 0, 67, 20
1, 255804, Note_off_c, 0, 61, 59
1, 255804, Control_c, 0, 67, 21
1, 255813, Note_off_c, 0, 57, 57
1, 255819, Control_c, 0, 67, 22
1, 255829, Note_off_c, 0, 52, 61
1, 255834, Control_c, 0, 67, 24
1, 255849, Control_c, 0, 67, 25
1, 255863, Control_c, 0, 67, 26
1, 255878, Control_c, 0, 67, 27
1, 255893, Control_c, 0, 67, 28
1, 255908, Control_c, 0, 67, 30
1, 255923, Control_c, 0, 67, 31
1, 255926, Note_on_c, 0, 85, 65
1, 255932, Note_on_c, 0, 76, 60
1, 255937, Note_on_c, 0, 73, 55
1, 255937, Control_c, 0, 67, 34
1, 255952, Control_c, 0, 67, 37
1, 255963, Note_off_c, 0, 85, 57
1, 255967, Control_c, 0, 67, 40
1, 255971, Note_off_c, 0, 76, 60
1, 255974, Note_off_c, 0, 73, 59
1, 255981, Control_c, 0, 67, 45
1, 255996, Control_c, 0, 67, 49
1, 256011, Control_c, 0, 64, 82
1, 256011, Control_c, 0, 67, 54
1, 256026, Control_c, 0, 64, 61
1, 256026, Control_c, 0, 67, 59
1, 256041, Control_c, 0, 64, 20
1, 256041, Control_c, 0, 67, 64
1, 256046, Note_on_c, 0, 85, 70
1, 256053, Note_on_c, 0, 76, 59
1, 256054, Note_on_c, 0, 73, 60
1, 256055, Control_c, 0, 64, 0
1, 256055, Control_c, 0, 67, 69
1, 256070, Note_on_c, 0, 42, 58
1, 256070, Control_c, 0, 67, 75
1, 256085, Control_c, 0, 64, 46
1, 256085, Control_c, 0, 67, 80
1, 256100, Control_c, 0, 64, 65
1, 256100, Control_c, 0, 67, 84
1, 256104, Note_off_c, 0, 42, 64
1, 256115, Control_c, 0, 64, 76
1, 256115, Control_c, 0, 67, 88
1, 256129, Control_c, 0, 64, 90
1, 256129, Control_c, 0, 67, 92
1, 256144, Control_c, 0, 64, 124
1, 256144, Control_c, 0, 67, 95
1, 256159, Control_c, 0, 64, 127
1, 256159, Control_c, 0, 67, 98
1, 256174, Control_c, 0, 67, 101
1, 256189, Control_c, 0, 67, 106
1, 256211, Control_c, 0, 67, 110
1, 256226, Control_c, 0, 67, 115
1, 256241, Control_c, 0, 67, 119
1, 256255, Control_c, 0, 67, 124
1, 256270, Control_c, 0, 67, 127
1, 256281, Note_off_c, 0, 85, 62
1, 256380, Note_off_c, 0, 76, 32
1, 256397, Note_on_c, 0, 54, 48
1, 256397, Note_off_c, 0, 73, 59
1, 256405, Note_on_c, 0, 59, 50
1, 256409, Note_on_c, 0, 57, 49
1, 256436, Note_off_c, 0, 54, 63
1, 256436, Note_off_c, 0, 59, 66
1, 256442, Note_off_c, 0, 57, 65
1, 256694, Note_on_c, 0, 83, 56
1, 256701, Note_on_c, 0, 75, 53
1, 256705, Note_on_c, 0, 71, 49
1, 256709, Note_on_c, 0, 54, 43
1, 256710, Note_on_c, 0, 59, 43
1, 256715, Control_c, 0, 64, 107
1, 256722, Note_on_c, 0, 57, 41
1, 256729, Control_c, 0, 64, 79
1, 256739, Note_off_c, 0, 59, 59
1, 256742, Note_off_c, 0, 54, 61
1, 256744, Control_c, 0, 64, 61
1, 256749, Note_off_c, 0, 57, 58
1, 256759, Control_c, 0, 64, 24
1, 256774, Control_c, 0, 64, 0
1, 256959, Control_c, 0, 64, 40
1, 256974, Control_c, 0, 64, 59
1, 256989, Control_c, 0, 64, 66
1, 257003, Control_c, 0, 64, 69
1, 257018, Control_c, 0, 64, 73
1, 257024, Note_off_c, 0, 71, 43
1, 257033, Control_c, 0, 64, 78
1, 257048, Control_c, 0, 64, 86
1, 257063, Control_c, 0, 64, 96
1, 257070, Note_off_c, 0, 83, 57
1, 257074, Note_off_c, 0, 75, 60
1, 257077, Control_c, 0, 64, 110
1, 257092, Control_c, 0, 64, 127
1, 257119, Note_on_c, 0, 54, 32
1, 257123, Note_on_c, 0, 59, 23
1, 257128, Note_on_c, 0, 57, 28
1, 257411, Note_on_c, 0, 93, 56
1, 257434, Note_on_c, 0, 85, 42
1, 257612, Note_off_c, 0, 93, 35
1, 257632, Note_on_c, 0, 90, 57
1, 257634, Note_on_c, 0, 81, 59
1, 257634, Note_off_c, 0, 85, 52
1, 257661, Note_off_c, 0, 90, 67
1, 257665, Note_off_c, 0, 81, 63
1, 257781, Note_on_c, 0, 78, 63
1, 257782, Note_on_c, 0, 87, 56
1, 257839, Note_off_c, 0, 87, 59
1, 257849, Note_off_c, 0, 78, 55
1, 257873, Note_on_c, 0, 83, 68
1, 257881, Note_off_c, 0, 59, 47
1, 257888, Note_off_c, 0, 57, 42
1, 257892, Note_on_c, 0, 75, 58
1, 257896, Note_off_c, 0, 83, 68
1, 257921, Note_off_c, 0, 54, 34
1, 257922, Note_off_c, 0, 75, 66
1, 257984, Note_on_c, 0, 81, 71
1, 257990, Note_on_c, 0, 73, 69
1, 258049, Note_off_c, 0, 81, 54
1, 258070, Note_on_c, 0, 78, 65
1, 258098, Note_on_c, 0, 69, 63
1, 258103, Note_off_c, 0, 73, 33
1, 258107, Note_off_c, 0, 78, 61
1, 258123, Note_off_c, 0, 69, 68
1, 258192, Note_on_c, 0, 75, 65
1, 258197, Note_on_c, 0, 66, 62
1, 258227, Note_off_c, 0, 66, 65
1, 258322, Note_on_c, 0, 71, 68
1, 258343, Note_off_c, 0, 75, 61
1, 258344, Note_on_c, 0, 63, 61
1, 258370, Note_off_c, 0, 71, 65
1, 258372, Note_off_c, 0, 63, 66
1, 258737, Note_on_c, 0, 73, 60
1, 258750, Note_on_c, 0, 63, 52
1, 258768, Note_off_c, 0, 73, 63
1, 258769, Control_c, 0, 64, 86
1, 258782, Note_off_c, 0, 63, 63
1, 258782, Control_c, 0, 64, 63
1, 258797, Control_c, 0, 64, 23
1, 258812, Control_c, 0, 64, 0
1, 258863, Note_on_c, 0, 73, 59
1, 258871, Note_on_c, 0, 64, 54
1, 258882, Note_on_c, 0, 40, 39
1, 258886, Control_c, 0, 64, 37
1, 258900, Control_c, 0, 64, 58
1, 258915, Control_c, 0, 64, 67
1, 258928, Note_off_c, 0, 40, 62
1, 258930, Control_c, 0, 64, 76
1, 258945, Control_c, 0, 64, 90
1, 258960, Control_c, 0, 64, 111
1, 258976, Control_c, 0, 64, 127
1, 259168, Control_c, 0, 64, 112
1, 259183, Control_c, 0, 64, 79
1, 259205, Control_c, 0, 64, 57
1, 259207, Note_on_c, 0, 52, 54
1, 259209, Note_on_c, 0, 56, 48
1, 259220, Control_c, 0, 64, 0
1, 259243, Note_off_c, 0, 56, 63
1, 259244, Note_off_c, 0, 52, 64
1, 259244, Note_off_c, 0, 64, 56
1, 259473, Note_off_c, 0, 73, 56
1, 259481, Note_on_c, 0, 71, 49
1, 259488, Note_on_c, 0, 62, 38
1, 259494, Note_on_c, 0, 52, 39
1, 259497, Note_on_c, 0, 56, 30
1, 259528, Note_off_c, 0, 52, 62
1, 259534, Note_off_c, 0, 56, 59
1, 259694, Control_c, 0, 64, 13
1, 259709, Control_c, 0, 64, 41
1, 259723, Control_c, 0, 64, 56
1, 259735, Note_off_c, 0, 62, 63
1, 259738, Control_c, 0, 64, 62
1, 259753, Control_c, 0, 64, 63
1, 259769, Control_c, 0, 64, 66
1, 259778, Note_off_c, 0, 71, 64
1, 259784, Control_c, 0, 64, 69
1, 259798, Control_c, 0, 64, 75
1, 259813, Control_c, 0, 64, 83
1, 259828, Control_c, 0, 64, 91
1, 259843, Control_c, 0, 64, 102
1, 259858, Control_c, 0, 64, 121
1, 259859, Note_on_c, 0, 56, 35
1, 259872, Control_c, 0, 64, 127
1, 259873, Note_on_c, 0, 52, 36
1, 260119, Note_on_c, 0, 98, 56
1, 260135, Note_on_c, 0, 90, 49
1, 260234, Note_off_c, 0, 56, 37
1, 260332, Note_off_c, 0, 98, 47
1, 260343, Note_off_c, 0, 90, 42
1, 260347, Note_on_c, 0, 95, 52
1, 260349, Note_on_c, 0, 86, 53
1, 260367, Note_off_c, 0, 95, 63
1, 260386, Note_off_c, 0, 86, 61
1, 260454, Note_off_c, 0, 52, 23
1, 260493, Note_on_c, 0, 92, 66
1, 260517, Note_on_c, 0, 83, 47
1, 260568, Note_off_c, 0, 92, 55
1, 260612, Note_on_c, 0, 88, 57
1, 260624, Note_off_c, 0, 83, 62
1, 260628, Note_on_c, 0, 80, 62
1, 260631, Note_off_c, 0, 88, 65
1, 260654, Note_off_c, 0, 80, 67
1, 260743, Note_on_c, 0, 86, 53
1, 260755, Note_on_c, 0, 78, 61
1, 260771, Note_off_c, 0, 86, 49
1, 260832, Note_off_c, 0, 78, 52
1, 260848, Note_on_c, 0, 74, 68
1, 260852, Note_on_c, 0, 83, 56
1, 260869, Note_off_c, 0, 83, 63
1, 260879, Note_off_c, 0, 74, 63
1, 260976, Note_on_c, 0, 80, 69
1, 260989, Note_on_c, 0, 71, 61
1, 261050, Note_off_c, 0, 80, 60
1, 261095, Note_on_c, 0, 76, 59
1, 261113, Note_on_c, 0, 68, 54
1, 261114, Note_off_c, 0, 71, 52
1, 261118, Note_off_c, 0, 76, 65
1, 261143, Note_off_c, 0, 68, 67
1, 261236, Note_on_c, 0, 74, 66
1, 261255, Note_on_c, 0, 66, 54
1, 261302, Note_off_c, 0, 74, 60
1, 261312, Note_off_c, 0, 66, 51
1, 261499, Note_on_c, 0, 71, 59
1, 261520, Note_on_c, 0, 62, 46
1, 261571, Control_c, 0, 64, 111
1, 261586, Control_c, 0, 64, 84
1, 261600, Control_c, 0, 64, 68
1, 261615, Control_c, 0, 64, 50
1, 261630, Control_c, 0, 64, 18
1, 261644, Control_c, 0, 64, 0
1, 261823, Control_c, 0, 64, 33
1, 261837, Control_c, 0, 64, 51
1, 261852, Control_c, 0, 64, 60
1, 261867, Control_c, 0, 64, 63
1, 261882, Control_c, 0, 64, 66
1, 261897, Control_c, 0, 64, 70
1, 261911, Control_c, 0, 64, 75
1, 261926, Control_c, 0, 64, 82
1, 261941, Control_c, 0, 64, 90
1, 261956, Control_c, 0, 64, 97
1, 261971, Control_c, 0, 64, 106
1, 261985, Control_c, 0, 64, 127
1, 262013, Note_off_c, 0, 62, 34
1, 262246, Control_c, 0, 64, 103
1, 262260, Note_on_c, 0, 74, 54
1, 262261, Control_c, 0, 64, 81
1, 262264, Note_on_c, 0, 66, 46
1, 262274, Note_off_c, 0, 71, 58
1, 262275, Control_c, 0, 64, 65
1, 262290, Control_c, 0, 64, 40
1, 262305, Control_c, 0, 64, 0
1, 262453, Control_c, 0, 64, 32
1, 262467, Control_c, 0, 64, 52
1, 262482, Control_c, 0, 64, 61
1, 262497, Control_c, 0, 64, 65
1, 262512, Control_c, 0, 64, 68
1, 262526, Control_c, 0, 64, 73
1, 262541, Control_c, 0, 64, 80
1, 262556, Control_c, 0, 64, 88
1, 262571, Control_c, 0, 64, 94
1, 262586, Control_c, 0, 64, 100
1, 262592, Note_off_c, 0, 74, 54
1, 262600, Control_c, 0, 64, 105
1, 262615, Control_c, 0, 64, 109
1, 262630, Control_c, 0, 64, 113
1, 262645, Control_c, 0, 64, 118
1, 262660, Control_c, 0, 64, 127
1, 262776, Note_off_c, 0, 66, 35
1, 263023, Control_c, 0, 64, 115
1, 263038, Control_c, 0, 64, 96
1, 263053, Control_c, 0, 64, 80
1, 263068, Control_c, 0, 64, 66
1, 263083, Control_c, 0, 64, 49
1, 263091, Note_on_c, 0, 73, 35
1, 263097, Control_c, 0, 64, 32
1, 263101, Note_on_c, 0, 64, 31
1, 263112, Control_c, 0, 64, 30
1, 263127, Control_c, 0, 64, 40
1, 263142, Control_c, 0, 64, 55
1, 263157, Control_c, 0, 64, 66
1, 263171, Control_c, 0, 64, 74
1, 263186, Control_c, 0, 64, 81
1, 263201, Control_c, 0, 64, 86
1, 263209, Note_off_c, 0, 64, 46
1, 263215, Note_off_c, 0, 73, 0
1, 263215, Control_c, 0, 64, 90
1, 263230, Control_c, 0, 64, 94
1, 263245, Control_c, 0, 64, 97
1, 263249, Poly_aftertouch_c, 0, 73, 0
1, 263260, Control_c, 0, 64, 100
1, 263275, Control_c, 0, 64, 103
1, 263289, Control_c, 0, 64, 105
1, 263304, Control_c, 0, 64, 107
1, 263319, Control_c, 0, 64, 108
1, 263334, Control_c, 0, 64, 108
1, 263423, Control_c, 0, 64, 108
1, 263438, Control_c, 0, 64, 103
1, 263453, Control_c, 0, 64, 93
1, 263468, Control_c, 0, 64, 81
1, 263483, Control_c, 0, 64, 69
1, 263497, Control_c, 0, 64, 56
1, 263507, Note_on_c, 0, 71, 29
1, 263512, Control_c, 0, 64, 39
1, 263517, Note_on_c, 0, 62, 28
1, 263527, Control_c, 0, 64, 34
1, 263542, Control_c, 0, 64, 37
1, 263557, Control_c, 0, 64, 49
1, 263571, Control_c, 0, 64, 60
1, 263586, Control_c, 0, 64, 68
1, 263601, Control_c, 0, 64, 74
1, 263615, Control_c, 0, 64, 81
1, 263630, Control_c, 0, 64, 87
1, 263645, Control_c, 0, 64, 91
1, 263660, Control_c, 0, 64, 96
1, 263663, Note_off_c, 0, 62, 28
1, 263675, Control_c, 0, 64, 101
1, 263692, Note_off_c, 0, 71, 43
1, 263697, Control_c, 0, 64, 106
1, 263712, Control_c, 0, 64, 112
1, 263727, Control_c, 0, 64, 116
1, 263741, Control_c, 0, 64, 118
1, 263787, Control_c, 0, 64, 118
1, 263846, Control_c, 0, 64, 118
1, 263891, Control_c, 0, 64, 110
1, 263906, Control_c, 0, 64, 94
1, 263920, Control_c, 0, 64, 76
1, 263935, Control_c, 0, 64, 64
1, 263950, Control_c, 0, 64, 53
1, 263965, Control_c, 0, 64, 47
1, 263980, Control_c, 0, 64, 42
1, 263994, Control_c, 0, 64, 35
1, 264009, Control_c, 0, 64, 23
1, 264025, Control_c, 0, 64, 0
1, 264914, Note_on_c, 0, 72, 40
1, 264925, Note_on_c, 0, 63, 27
1, 264995, Control_c, 0, 64, 26
1, 265010, Control_c, 0, 64, 42
1, 265025, Control_c, 0, 64, 54
1, 265040, Control_c, 0, 64, 59
1, 265055, Control_c, 0, 64, 61
1, 265069, Control_c, 0, 64, 64
1, 265084, Control_c, 0, 64, 66
1, 265099, Control_c, 0, 64, 69
1, 265114, Control_c, 0, 64, 73
1, 265129, Control_c, 0, 64, 78
1, 265143, Control_c, 0, 64, 84
1, 265158, Control_c, 0, 64, 89
1, 265173, Control_c, 0, 64, 94
1, 265195, Control_c, 0, 64, 99
1, 265210, Control_c, 0, 64, 105
1, 265225, Control_c, 0, 64, 111
1, 265240, Control_c, 0, 64, 119
1, 265255, Control_c, 0, 64, 127
1, 265290, Note_off_c, 0, 63, 31
1, 265685, Control_c, 0, 64, 112
1, 265700, Control_c, 0, 64, 96
1, 265715, Control_c, 0, 64, 82
1, 265725, Note_on_c, 0, 74, 46
1, 265729, Control_c, 0, 64, 69
1, 265744, Control_c, 0, 64, 56
1, 265747, Note_on_c, 0, 66, 32
1, 265759, Control_c, 0, 64, 38
1, 265774, Control_c, 0, 64, 19
1, 265784, Note_off_c, 0, 72, 36
1, 265789, Control_c, 0, 64, 0
1, 265878, Control_c, 0, 64, 25
1, 265892, Control_c, 0, 64, 50
1, 265907, Control_c, 0, 64, 63
1, 265922, Control_c, 0, 64, 67
1, 265944, Control_c, 0, 64, 70
1, 265959, Control_c, 0, 64, 76
1, 265974, Control_c, 0, 64, 82
1, 265989, Control_c, 0, 64, 87
1, 266004, Control_c, 0, 64, 90
1, 266018, Control_c, 0, 64, 93
1, 266022, Note_off_c, 0, 74, 56
1, 266033, Control_c, 0, 64, 96
1, 266048, Control_c, 0, 64, 99
1, 266063, Control_c, 0, 64, 102
1, 266078, Control_c, 0, 64, 103
1, 266092, Control_c, 0, 64, 104
1, 266107, Control_c, 0, 64, 105
1, 266130, Note_off_c, 0, 66, 37
1, 266167, Control_c, 0, 64, 105
1, 266597, Control_c, 0, 64, 105
1, 266612, Control_c, 0, 64, 103
1, 266626, Control_c, 0, 64, 97
1, 266641, Control_c, 0, 64, 85
1, 266656, Control_c, 0, 64, 72
1, 266671, Control_c, 0, 64, 58
1, 266674, Note_on_c, 0, 73, 42
1, 266690, Note_on_c, 0, 64, 41
1, 266693, Control_c, 0, 64, 45
1, 266708, Control_c, 0, 64, 39
1, 266723, Control_c, 0, 64, 41
1, 266738, Control_c, 0, 64, 51
1, 266753, Control_c, 0, 64, 63
1, 266767, Control_c, 0, 64, 72
1, 266782, Control_c, 0, 64, 78
1, 266797, Control_c, 0, 64, 83
1, 266801, Note_off_c, 0, 73, 50
1, 266812, Control_c, 0, 64, 85
1, 266827, Control_c, 0, 64, 87
1, 266841, Control_c, 0, 64, 89
1, 266856, Control_c, 0, 64, 91
1, 266871, Control_c, 0, 64, 92
1, 266885, Control_c, 0, 64, 94
1, 266900, Control_c, 0, 64, 95
1, 266915, Control_c, 0, 64, 96
1, 266961, Control_c, 0, 64, 93
1, 266976, Control_c, 0, 64, 82
1, 266990, Control_c, 0, 64, 71
1, 267005, Control_c, 0, 64, 60
1, 267012, Note_on_c, 0, 71, 46
1, 267020, Control_c, 0, 64, 48
1, 267027, Note_on_c, 0, 62, 43
1, 267035, Control_c, 0, 64, 46
1, 267039, Note_off_c, 0, 64, 43
1, 267050, Control_c, 0, 64, 54
1, 267064, Control_c, 0, 64, 64
1, 267079, Control_c, 0, 64, 73
1, 267089, Note_off_c, 0, 62, 55
1, 267094, Control_c, 0, 64, 80
1, 267103, Note_off_c, 0, 71, 60
1, 267109, Control_c, 0, 64, 85
1, 267124, Control_c, 0, 64, 88
1, 267138, Control_c, 0, 64, 91
1, 267153, Control_c, 0, 64, 94
1, 267168, Control_c, 0, 64, 96
1, 267182, Control_c, 0, 64, 100
1, 267197, Control_c, 0, 64, 104
1, 267212, Control_c, 0, 64, 107
1, 267227, Control_c, 0, 64, 108
1, 267242, Control_c, 0, 64, 109
1, 267316, Control_c, 0, 64, 106
1, 267331, Control_c, 0, 64, 94
1, 267346, Control_c, 0, 64, 81
1, 267361, Control_c, 0, 64, 68
1, 267376, Control_c, 0, 64, 55
1, 267390, Control_c, 0, 64, 44
1, 267405, Control_c, 0, 64, 40
1, 267416, Note_on_c, 0, 61, 40
1, 267418, Note_on_c, 0, 69, 40
1, 267420, Control_c, 0, 64, 46
1, 267442, Control_c, 0, 64, 58
1, 267453, Note_on_c, 0, 45, 29
1, 267457, Control_c, 0, 64, 66
1, 267471, Control_c, 0, 64, 73
1, 267483, Note_off_c, 0, 69, 58
1, 267486, Control_c, 0, 64, 84
1, 267501, Note_off_c, 0, 61, 55
1, 267501, Control_c, 0, 64, 94
1, 267504, Note_off_c, 0, 45, 62
1, 267516, Control_c, 0, 64, 101
1, 267531, Control_c, 0, 64, 107
1, 267546, Control_c, 0, 64, 112
1, 267561, Control_c, 0, 64, 127
1, 267813, Control_c, 0, 64, 107
1, 267828, Control_c, 0, 64, 85
1, 267835, Note_on_c, 0, 57, 42
1, 267843, Control_c, 0, 64, 69
1, 267850, Note_on_c, 0, 61, 43
1, 267851, Note_on_c, 0, 52, 41
1, 267858, Control_c, 0, 64, 54
1, 267873, Control_c, 0, 64, 21
1, 267885, Note_off_c, 0, 52, 54
1, 267887, Control_c, 0, 64, 0
1, 267894, Note_off_c, 0, 61, 64
1, 267898, Note_off_c, 0, 57, 59
1, 268153, Note_on_c, 0, 52, 32
1, 268162, Note_on_c, 0, 61, 38
1, 268169, Note_on_c, 0, 57, 25
1, 268199, Note_off_c, 0, 61, 60
1, 268200, Note_off_c, 0, 57, 54
1, 268214, Note_off_c, 0, 52, 61
1, 268398, Control_c, 0, 64, 26
1, 268413, Control_c, 0, 64, 50
1, 268414, Note_on_c, 0, 45, 52
1, 268415, Note_on_c, 0, 85, 55
1, 268428, Control_c, 0, 64, 61
1, 268443, Control_c, 0, 64, 65
1, 268451, Note_off_c, 0, 45, 64
1, 268452, Note_off_c, 0, 85, 62
1, 268457, Control_c, 0, 64, 67
1, 268472, Control_c, 0, 64, 71
1, 268487, Control_c, 0, 64, 75
1, 268496, Note_on_c, 0, 84, 51
1, 268502, Control_c, 0, 64, 80
1, 268517, Control_c, 0, 64, 83
1, 268531, Control_c, 0, 64, 84
1, 268563, Note_off_c, 0, 84, 51
1, 268564, Note_on_c, 0, 85, 59
1, 268592, Control_c, 0, 64, 84
1, 268607, Control_c, 0, 64, 80
1, 268622, Control_c, 0, 64, 71
1, 268633, Note_off_c, 0, 85, 61
1, 268636, Control_c, 0, 64, 57
1, 268651, Control_c, 0, 64, 0
1, 268653, Note_on_c, 0, 88, 59
1, 268666, Note_on_c, 0, 64, 46
1, 268667, Note_on_c, 0, 61, 52
1, 268670, Note_on_c, 0, 55, 47
1, 268696, Note_off_c, 0, 55, 63
1, 268697, Note_off_c, 0, 64, 66
1, 268699, Note_off_c, 0, 61, 66
1, 268713, Note_off_c, 0, 88, 61
1, 268727, Note_on_c, 0, 90, 63
1, 268816, Note_on_c, 0, 88, 61
1, 268844, Note_off_c, 0, 90, 52
1, 268887, Note_off_c, 0, 88, 64
1, 268890, Note_on_c, 0, 87, 59
1, 268893, Note_on_c, 0, 64, 36
1, 268895, Note_on_c, 0, 55, 46
1, 268902, Note_on_c, 0, 61, 42
1, 268917, Note_off_c, 0, 64, 52
1, 268935, Note_off_c, 0, 61, 52
1, 268936, Note_off_c, 0, 55, 65
1, 268953, Note_off_c, 0, 87, 63
1, 268966, Note_on_c, 0, 86, 66
1, 268993, Note_off_c, 0, 86, 62
1, 269041, Note_on_c, 0, 85, 60
1, 269068, Note_off_c, 0, 85, 67
1, 269117, Control_c, 0, 64, 36
1, 269123, Note_on_c, 0, 90, 69
1, 269123, Note_on_c, 0, 45, 64
1, 269132, Control_c, 0, 64, 58
1, 269142, Note_on_c, 0, 85, 55
1, 269147, Control_c, 0, 64, 64
1, 269156, Note_off_c, 0, 45, 65
1, 269161, Control_c, 0, 64, 67
1, 269167, Note_off_c, 0, 85, 60
1, 269176, Control_c, 0, 64, 69
1, 269191, Control_c, 0, 64, 72
1, 269206, Note_on_c, 0, 86, 53
1, 269206, Control_c, 0, 64, 74
1, 269221, Control_c, 0, 64, 75
1, 269270, Note_on_c, 0, 85, 49
1, 269277, Note_off_c, 0, 86, 62
1, 269295, Control_c, 0, 64, 74
1, 269310, Control_c, 0, 64, 68
1, 269325, Control_c, 0, 64, 58
1, 269335, Note_off_c, 0, 85, 63
1, 269340, Control_c, 0, 64, 28
1, 269355, Control_c, 0, 64, 0
1, 269358, Note_on_c, 0, 84, 58
1, 269367, Note_on_c, 0, 54, 51
1, 269368, Note_on_c, 0, 63, 46
1, 269390, Note_on_c, 0, 57, 31
1, 269397, Note_off_c, 0, 54, 65
1, 269398, Note_off_c, 0, 63, 60
1, 269401, Note_off_c, 0, 84, 47
1, 269425, Note_off_c, 0, 57, 31
1, 269433, Note_on_c, 0, 85, 47
1, 269511, Note_off_c, 0, 85, 60
1, 269513, Note_on_c, 0, 84, 51
1, 269584, Note_off_c, 0, 84, 63
1, 269608, Note_on_c, 0, 83, 52
1, 269622, Note_on_c, 0, 54, 47
1, 269631, Note_on_c, 0, 63, 24
1, 269656, Note_off_c, 0, 63, 34
1, 269659, Note_off_c, 0, 54, 65
1, 269866, Control_c, 0, 64, 44
1, 269876, Note_on_c, 0, 45, 55
1, 269881, Control_c, 0, 64, 60
1, 269896, Control_c, 0, 64, 65
1, 269905, Note_off_c, 0, 45, 62
1, 269910, Control_c, 0, 64, 68
1, 269922, Note_off_c, 0, 83, 31
1, 269925, Control_c, 0, 64, 72
1, 269928, Note_off_c, 0, 90, 60
1, 269940, Control_c, 0, 64, 76
1, 269955, Control_c, 0, 64, 80
1, 269958, Note_on_c, 0, 89, 56
1, 269970, Control_c, 0, 64, 82
1, 269984, Control_c, 0, 64, 83
1, 269999, Control_c, 0, 64, 84
1, 270029, Note_off_c, 0, 89, 59
1, 270035, Note_on_c, 0, 90, 61
1, 270044, Control_c, 0, 64, 83
1, 270059, Control_c, 0, 64, 78
1, 270074, Control_c, 0, 64, 67
1, 270089, Control_c, 0, 64, 51
1, 270092, Note_off_c, 0, 90, 63
1, 270102, Note_on_c, 0, 93, 63
1, 270103, Control_c, 0, 64, 0
1, 270122, Note_on_c, 0, 54, 52
1, 270124, Note_on_c, 0, 57, 51
1, 270127, Note_on_c, 0, 83, 41
1, 270131, Note_on_c, 0, 62, 35
1, 270160, Note_off_c, 0, 54, 65
1, 270162, Note_off_c, 0, 62, 54
1, 270163, Note_off_c, 0, 57, 62
1, 270175, Note_off_c, 0, 93, 64
1, 270194, Note_on_c, 0, 95, 63
1, 270254, Note_on_c, 0, 93, 62
1, 270285, Note_off_c, 0, 95, 58
1, 270326, Note_off_c, 0, 93, 64
1, 270336, Note_off_c, 0, 83, 0
1, 270336, Note_on_c, 0, 92, 64
1, 270348, Note_on_c, 0, 62, 33
1, 270350, Note_on_c, 0, 54, 51
1, 270354, Note_on_c, 0, 57, 29
1, 270370, Note_off_c, 0, 62, 54
1, 270377, Note_off_c, 0, 57, 54
1, 270382, Note_off_c, 0, 92, 61
1, 270386, Note_off_c, 0, 54, 65
1, 270388, Poly_aftertouch_c, 0, 83, 0
1, 270408, Note_on_c, 0, 91, 77
1, 270485, Note_on_c, 0, 90, 73
1, 270490, Note_off_c, 0, 91, 64
1, 270527, Note_off_c, 0, 90, 62
1, 270574, Note_on_c, 0, 45, 58
1, 270577, Note_on_c, 0, 88, 64
1, 270586, Control_c, 0, 64, 40
1, 270586, Note_on_c, 0, 83, 53
1, 270601, Control_c, 0, 64, 58
1, 270614, Note_off_c, 0, 45, 58
1, 270615, Note_off_c, 0, 88, 0
1, 270615, Note_on_c, 0, 88, 38
1, 270615, Control_c, 0, 64, 62
1, 270625, Note_off_c, 0, 83, 44
1, 270630, Control_c, 0, 64, 63
1, 270642, Note_on_c, 0, 85, 63
1, 270645, Control_c, 0, 64, 64
1, 270659, Control_c, 0, 64, 65
1, 270674, Control_c, 0, 64, 66
1, 270715, Note_off_c, 0, 85, 63
1, 270732, Note_on_c, 0, 83, 56
1, 270733, Control_c, 0, 64, 65
1, 270748, Control_c, 0, 64, 61
1, 270763, Control_c, 0, 64, 50
1, 270777, Note_off_c, 0, 83, 57
1, 270778, Control_c, 0, 64, 0
1, 270803, Note_on_c, 0, 82, 58
1, 270813, Note_on_c, 0, 52, 51
1, 270817, Note_on_c, 0, 61, 42
1, 270845, Note_off_c, 0, 61, 56
1, 270847, Note_off_c, 0, 52, 62
1, 270854, Note_off_c, 0, 82, 60
1, 270868, Note_on_c, 0, 83, 59
1, 270877, Note_off_c, 0, 88, 42
1, 270930, Note_off_c, 0, 83, 64
1, 270948, Note_on_c, 0, 82, 48
1, 271016, Note_off_c, 0, 82, 60
1, 271031, Note_on_c, 0, 88, 46
1, 271047, Note_on_c, 0, 81, 56
1, 271077, Note_on_c, 0, 52, 46
1, 271078, Note_on_c, 0, 61, 32
1, 271105, Note_off_c, 0, 61, 47
1, 271117, Note_off_c, 0, 52, 63
1, 271320, Control_c, 0, 64, 38
1, 271322, Note_off_c, 0, 88, 63
1, 271333, Note_on_c, 0, 42, 49
1, 271335, Note_off_c, 0, 81, 64
1, 271335, Control_c, 0, 64, 59
1, 271349, Control_c, 0, 64, 68
1, 271364, Control_c, 0, 64, 73
1, 271375, Note_off_c, 0, 42, 62
1, 271379, Control_c, 0, 64, 83
1, 271394, Control_c, 0, 64, 96
1, 271409, Control_c, 0, 64, 111
1, 271424, Control_c, 0, 64, 127
1, 271571, Control_c, 0, 64, 104
1, 271586, Control_c, 0, 64, 79
1, 271595, Note_on_c, 0, 69, 53
1, 271600, Note_on_c, 0, 51, 49
1, 271601, Control_c, 0, 64, 61
1, 271611, Note_on_c, 0, 57, 41
1, 271616, Control_c, 0, 64, 26
1, 271619, Note_on_c, 0, 60, 38
1, 271630, Control_c, 0, 64, 0
1, 271640, Note_off_c, 0, 57, 55
1, 271645, Note_off_c, 0, 51, 62
1, 271646, Note_off_c, 0, 60, 58
1, 271660, Note_off_c, 0, 69, 57
1, 271670, Note_on_c, 0, 72, 56
1, 271735, Note_on_c, 0, 71, 61
1, 271736, Note_off_c, 0, 72, 61
1, 271788, Note_off_c, 0, 71, 65
1, 271803, Note_on_c, 0, 69, 56
1, 271823, Note_on_c, 0, 51, 56
1, 271832, Note_on_c, 0, 60, 8
1, 271839, Note_off_c, 0, 69, 61
1, 271844, Note_off_c, 0, 60, 47
1, 271865, Note_off_c, 0, 51, 62
1, 271877, Note_on_c, 0, 68, 58
1, 271963, Note_off_c, 0, 68, 59
1, 271967, Note_on_c, 0, 66, 54
1, 272015, Note_off_c, 0, 66, 65
1, 272037, Note_on_c, 0, 41, 56
1, 272037, Note_on_c, 0, 62, 58
1, 272038, Control_c, 0, 64, 21
1, 272053, Control_c, 0, 64, 52
1, 272065, Note_off_c, 0, 41, 62
1, 272068, Control_c, 0, 64, 63
1, 272079, Note_off_c, 0, 62, 55
1, 272083, Control_c, 0, 64, 66
1, 272098, Control_c, 0, 64, 68
1, 272109, Note_on_c, 0, 64, 62
1, 272113, Control_c, 0, 64, 71
1, 272127, Control_c, 0, 64, 74
1, 272142, Control_c, 0, 64, 76
1, 272157, Control_c, 0, 64, 77
1, 272172, Control_c, 0, 64, 78
1, 272177, Note_on_c, 0, 65, 61
1, 272187, Note_off_c, 0, 64, 48
1, 272217, Control_c, 0, 64, 77
1, 272232, Control_c, 0, 64, 72
1, 272242, Note_off_c, 0, 65, 61
1, 272247, Control_c, 0, 64, 63
1, 272255, Note_on_c, 0, 68, 67
1, 272257, Note_on_c, 0, 50, 53
1, 272260, Note_on_c, 0, 59, 53
1, 272262, Control_c, 0, 64, 35
1, 272264, Note_on_c, 0, 57, 50
1, 272277, Control_c, 0, 64, 0
1, 272284, Note_off_c, 0, 59, 60
1, 272294, Note_off_c, 0, 50, 64
1, 272297, Note_off_c, 0, 57, 65
1, 272307, Note_off_c, 0, 68, 62
1, 272335, Note_on_c, 0, 69, 59
1, 272378, Note_off_c, 0, 69, 51
1, 272401, Note_on_c, 0, 71, 63
1, 272459, Note_off_c, 0, 71, 61
1, 272461, Note_on_c, 0, 59, 44
1, 272473, Note_on_c, 0, 50, 54
1, 272473, Note_on_c, 0, 57, 39
1, 272473, Note_on_c, 0, 73, 67
1, 272485, Note_off_c, 0, 59, 55
1, 272495, Note_off_c, 0, 57, 51
1, 272505, Note_off_c, 0, 50, 65
1, 272530, Note_off_c, 0, 73, 64
1, 272550, Note_on_c, 0, 74, 69
1, 272583, Note_off_c, 0, 74, 59
1, 272622, Note_on_c, 0, 76, 74
1, 272692, Note_on_c, 0, 40, 63
1, 272697, Note_on_c, 0, 77, 72
1, 272700, Control_c, 0, 64, 50
1, 272703, Note_off_c, 0, 76, 61
1, 272715, Control_c, 0, 64, 68
1, 272724, Note_off_c, 0, 40, 63
1, 272729, Control_c, 0, 64, 73
1, 272744, Control_c, 0, 64, 78
1, 272759, Note_off_c, 0, 77, 65
1, 272759, Control_c, 0, 64, 82
1, 272769, Note_on_c, 0, 80, 75
1, 272774, Control_c, 0, 64, 86
1, 272789, Control_c, 0, 64, 91
1, 272803, Control_c, 0, 64, 95
1, 272818, Control_c, 0, 64, 98
1, 272819, Note_off_c, 0, 80, 63
1, 272833, Control_c, 0, 64, 99
1, 272840, Note_on_c, 0, 81, 73
1, 272877, Control_c, 0, 64, 98
1, 272892, Control_c, 0, 64, 87
1, 272907, Control_c, 0, 64, 71
1, 272908, Note_on_c, 0, 83, 74
1, 272909, Note_off_c, 0, 81, 33
1, 272922, Control_c, 0, 64, 50
1, 272923, Note_on_c, 0, 52, 56
1, 272927, Note_on_c, 0, 62, 52
1, 272929, Note_on_c, 0, 56, 51
1, 272936, Control_c, 0, 64, 0
1, 272948, Note_off_c, 0, 62, 59
1, 272950, Note_off_c, 0, 52, 55
1, 272953, Note_off_c, 0, 56, 61
1, 272967, Note_off_c, 0, 83, 64
1, 272985, Note_on_c, 0, 85, 70
1, 273038, Note_off_c, 0, 85, 65
1, 273062, Note_on_c, 0, 86, 69
1, 273119, Note_off_c, 0, 86, 45
1, 273138, Note_on_c, 0, 95, 80
1, 273153, Note_on_c, 0, 89, 65
1, 273162, Note_on_c, 0, 56, 46
1, 273168, Note_on_c, 0, 52, 48
1, 273187, Note_off_c, 0, 56, 56
1, 273192, Note_off_c, 0, 52, 54
1, 273200, Note_off_c, 0, 89, 46
1, 273224, Note_off_c, 0, 95, 63
1, 273224, Note_on_c, 0, 92, 71
1, 273279, Note_off_c, 0, 92, 61
1, 273299, Note_on_c, 0, 88, 61
1, 273393, Note_on_c, 0, 97, 68
1, 273403, Note_on_c, 0, 45, 54
1, 273406, Note_on_c, 0, 93, 54
1, 273411, Note_off_c, 0, 88, 46
1, 273412, Control_c, 0, 64, 26
1, 273433, Control_c, 0, 64, 58
1, 273438, Note_off_c, 0, 45, 61
1, 273448, Control_c, 0, 64, 65
1, 273463, Control_c, 0, 64, 68
1, 273478, Control_c, 0, 64, 72
1, 273493, Control_c, 0, 64, 78
1, 273494, Note_off_c, 0, 97, 60
1, 273495, Note_off_c, 0, 93, 63
1, 273507, Note_on_c, 0, 90, 54
1, 273508, Control_c, 0, 64, 85
1, 273523, Control_c, 0, 64, 89
1, 273537, Control_c, 0, 64, 93
1, 273550, Note_off_c, 0, 90, 59
1, 273552, Control_c, 0, 64, 96
1, 273567, Control_c, 0, 64, 99
1, 273579, Note_on_c, 0, 88, 52
1, 273582, Control_c, 0, 64, 101
1, 273597, Control_c, 0, 64, 103
1, 273626, Control_c, 0, 64, 103
1, 273690, Note_off_c, 0, 88, 57
1, 273707, Note_on_c, 0, 100, 60
1, 273720, Note_on_c, 0, 97, 47
1, 273722, Note_on_c, 0, 52, 42
1, 273724, Note_on_c, 0, 61, 42
1, 273730, Note_on_c, 0, 57, 39
1, 273732, Note_off_c, 0, 100, 68
1, 273742, Note_off_c, 0, 97, 54
1, 273749, Note_off_c, 0, 52, 61
1, 273754, Note_off_c, 0, 61, 58
1, 273767, Note_off_c, 0, 57, 59
1, 274011, Control_c, 0, 64, 101
1, 274025, Note_on_c, 0, 61, 47
1, 274026, Control_c, 0, 64, 93
1, 274032, Note_on_c, 0, 52, 46
1, 274038, Note_on_c, 0, 57, 33
1, 274041, Control_c, 0, 64, 78
1, 274056, Note_off_c, 0, 61, 64
1, 274056, Control_c, 0, 64, 63
1, 274065, Note_off_c, 0, 57, 57
1, 274071, Control_c, 0, 64, 32
1, 274072, Note_off_c, 0, 52, 64
1, 274086, Control_c, 0, 64, 0
1, 274271, Note_on_c, 0, 45, 58
1, 274274, Note_on_c, 0, 73, 57
1, 274287, Control_c, 0, 64, 53
1, 274292, Note_off_c, 0, 45, 60
1, 274301, Control_c, 0, 64, 65
1, 274309, Note_off_c, 0, 73, 62
1, 274316, Control_c, 0, 64, 68
1, 274331, Control_c, 0, 64, 71
1, 274339, Note_on_c, 0, 72, 61
1, 274346, Control_c, 0, 64, 76
1, 274361, Control_c, 0, 64, 79
1, 274375, Control_c, 0, 64, 81
1, 274390, Control_c, 0, 64, 82
1, 274411, Note_on_c, 0, 73, 64
1, 274435, Control_c, 0, 64, 81
1, 274447, Note_off_c, 0, 72, 30
1, 274450, Control_c, 0, 64, 74
1, 274465, Control_c, 0, 64, 61
1, 274473, Note_off_c, 0, 73, 60
1, 274479, Note_on_c, 0, 76, 63
1, 274479, Control_c, 0, 64, 26
1, 274491, Note_on_c, 0, 64, 51
1, 274494, Control_c, 0, 64, 0
1, 274495, Note_on_c, 0, 61, 55
1, 274496, Note_on_c, 0, 55, 50
1, 274513, Note_off_c, 0, 64, 64
1, 274519, Note_off_c, 0, 55, 63
1, 274527, Note_off_c, 0, 61, 66
1, 274554, Note_on_c, 0, 78, 70
1, 274560, Note_off_c, 0, 76, 63
1, 274637, Note_on_c, 0, 76, 58
1, 274712, Note_on_c, 0, 75, 64
1, 274715, Note_off_c, 0, 76, 63
1, 274717, Note_off_c, 0, 78, 36
1, 274722, Note_on_c, 0, 55, 43
1, 274724, Note_on_c, 0, 61, 42
1, 274730, Note_on_c, 0, 64, 25
1, 274751, Note_off_c, 0, 61, 51
1, 274759, Note_off_c, 0, 55, 64
1, 274769, Note_off_c, 0, 64, 30
1, 274772, Note_off_c, 0, 75, 63
1, 274782, Note_on_c, 0, 74, 69
1, 274843, Note_on_c, 0, 73, 68
1, 274845, Note_off_c, 0, 74, 58
1, 274873, Note_off_c, 0, 73, 65
1, 274927, Note_on_c, 0, 78, 72
1, 274931, Control_c, 0, 64, 53
1, 274941, Note_on_c, 0, 73, 63
1, 274946, Control_c, 0, 64, 65
1, 274949, Note_on_c, 0, 45, 60
1, 274962, Control_c, 0, 64, 67
1, 274970, Note_off_c, 0, 45, 58
1, 274977, Control_c, 0, 64, 67
1, 274983, Note_off_c, 0, 73, 53
1, 274992, Control_c, 0, 64, 69
1, 275006, Control_c, 0, 64, 70
1, 275014, Note_on_c, 0, 74, 53
1, 275021, Control_c, 0, 64, 71
1, 275082, Note_off_c, 0, 74, 65
1, 275091, Note_on_c, 0, 73, 66
1, 275110, Control_c, 0, 64, 70
1, 275124, Control_c, 0, 64, 63
1, 275139, Control_c, 0, 64, 48
1, 275146, Note_off_c, 0, 73, 63
1, 275154, Control_c, 0, 64, 0
1, 275162, Note_on_c, 0, 72, 63
1, 275168, Note_on_c, 0, 63, 50
1, 275171, Note_on_c, 0, 54, 49
1, 275186, Note_on_c, 0, 57, 35
1, 275193, Note_off_c, 0, 63, 61
1, 275202, Note_off_c, 0, 54, 64
1, 275210, Note_off_c, 0, 72, 47
1, 275213, Note_off_c, 0, 57, 45
1, 275222, Note_on_c, 0, 73, 56
1, 275308, Note_on_c, 0, 72, 49
1, 275314, Note_off_c, 0, 73, 61
1, 275374, Note_off_c, 0, 72, 64
1, 275394, Note_on_c, 0, 71, 59
1, 275407, Note_on_c, 0, 63, 19
1, 275411, Note_on_c, 0, 54, 46
1, 275424, Note_off_c, 0, 63, 46
1, 275451, Note_off_c, 0, 54, 65
1, 275642, Note_on_c, 0, 45, 55
1, 275656, Control_c, 0, 64, 14
1, 275678, Control_c, 0, 64, 47
1, 275679, Note_off_c, 0, 45, 61
1, 275693, Control_c, 0, 64, 61
1, 275707, Note_off_c, 0, 78, 60
1, 275708, Control_c, 0, 64, 65
1, 275722, Control_c, 0, 64, 68
1, 275728, Note_on_c, 0, 77, 57
1, 275737, Control_c, 0, 64, 72
1, 275749, Note_off_c, 0, 71, 42
1, 275753, Control_c, 0, 64, 77
1, 275768, Control_c, 0, 64, 82
1, 275783, Control_c, 0, 64, 86
1, 275797, Control_c, 0, 64, 88
1, 275812, Control_c, 0, 64, 90
1, 275816, Note_off_c, 0, 77, 52
1, 275821, Note_on_c, 0, 78, 70
1, 275827, Control_c, 0, 64, 92
1, 275842, Control_c, 0, 64, 93
1, 275848, Note_off_c, 0, 78, 62
1, 275857, Control_c, 0, 64, 93
1, 275916, Control_c, 0, 64, 92
1, 275931, Control_c, 0, 64, 84
1, 275939, Note_on_c, 0, 83, 66
1, 275946, Note_on_c, 0, 62, 43
1, 275946, Control_c, 0, 64, 72
1, 275951, Note_on_c, 0, 71, 62
1, 275953, Note_on_c, 0, 54, 40
1, 275961, Note_on_c, 0, 57, 40
1, 275961, Control_c, 0, 64, 58
1, 275976, Control_c, 0, 64, 27
1, 275985, Note_off_c, 0, 54, 54
1, 275991, Note_off_c, 0, 62, 57
1, 275991, Control_c, 0, 64, 0
1, 275992, Note_off_c, 0, 57, 52
1, 275997, Note_off_c, 0, 83, 46
1, 276032, Note_on_c, 0, 82, 61
1, 276042, Note_off_c, 0, 71, 0
1, 276042, Note_on_c, 0, 71, 10
1, 276065, Note_off_c, 0, 82, 60
1, 276114, Note_on_c, 0, 81, 62
1, 276190, Note_on_c, 0, 80, 64
1, 276202, Note_off_c, 0, 71, 44
1, 276216, Note_off_c, 0, 81, 57
1, 276227, Note_on_c, 0, 62, 39
1, 276240, Note_on_c, 0, 54, 37
1, 276248, Note_on_c, 0, 57, 24
1, 276266, Note_off_c, 0, 62, 64
1, 276271, Control_c, 0, 64, 35
1, 276277, Note_on_c, 0, 79, 57
1, 276281, Note_off_c, 0, 57, 57
1, 276286, Control_c, 0, 64, 56
1, 276287, Note_off_c, 0, 54, 63
1, 276301, Control_c, 0, 64, 64
1, 276304, Note_off_c, 0, 80, 50
1, 276316, Control_c, 0, 64, 68
1, 276331, Control_c, 0, 64, 72
1, 276345, Control_c, 0, 64, 78
1, 276348, Note_off_c, 0, 79, 62
1, 276355, Note_on_c, 0, 78, 63
1, 276360, Control_c, 0, 64, 84
1, 276375, Control_c, 0, 64, 87
1, 276384, Note_off_c, 0, 78, 66
1, 276390, Control_c, 0, 64, 89
1, 276405, Control_c, 0, 64, 89
1, 276457, Control_c, 0, 64, 89
1, 276471, Control_c, 0, 64, 86
1, 276475, Note_on_c, 0, 71, 63
1, 276478, Note_on_c, 0, 45, 55
1, 276480, Note_on_c, 0, 76, 57
1, 276486, Control_c, 0, 64, 76
1, 276501, Control_c, 0, 64, 63
1, 276504, Note_off_c, 0, 71, 59
1, 276516, Control_c, 0, 64, 38
1, 276530, Control_c, 0, 64, 0
1, 276531, Note_off_c, 0, 45, 44
1, 276557, Note_on_c, 0, 73, 55
1, 276602, Note_off_c, 0, 73, 63
1, 276607, Note_on_c, 0, 71, 55
1, 276667, Note_off_c, 0, 71, 52
1, 276692, Note_on_c, 0, 70, 57
1, 276705, Note_on_c, 0, 61, 52
1, 276712, Note_on_c, 0, 52, 48
1, 276730, Note_off_c, 0, 61, 62
1, 276740, Note_off_c, 0, 52, 59
1, 276747, Note_off_c, 0, 70, 58
1, 276759, Note_on_c, 0, 71, 46
1, 276828, Note_off_c, 0, 71, 62
1, 276845, Note_on_c, 0, 70, 49
1, 276905, Note_off_c, 0, 70, 60
1, 276933, Control_c, 0, 64, 28
1, 276939, Note_on_c, 0, 69, 51
1, 276947, Control_c, 0, 64, 51
1, 276957, Note_on_c, 0, 61, 12
1, 276962, Control_c, 0, 64, 59
1, 276973, Note_on_c, 0, 52, 43
1, 276977, Control_c, 0, 64, 63
1, 276979, Note_off_c, 0, 61, 48
1, 276992, Control_c, 0, 64, 66
1, 277000, Note_off_c, 0, 69, 61
1, 277007, Control_c, 0, 64, 69
1, 277009, Note_off_c, 0, 52, 64
1, 277021, Control_c, 0, 64, 74
1, 277031, Note_off_c, 0, 76, 57
1, 277036, Control_c, 0, 64, 81
1, 277051, Control_c, 0, 64, 91
1, 277066, Control_c, 0, 64, 99
1, 277081, Control_c, 0, 64, 110
1, 277095, Control_c, 0, 64, 127
1, 277177, Control_c, 0, 64, 91
1, 277192, Control_c, 0, 64, 68
1, 277207, Control_c, 0, 64, 46
1, 277221, Control_c, 0, 64, 16
1, 277231, Note_on_c, 0, 42, 51
1, 277236, Control_c, 0, 64, 21
1, 277251, Control_c, 0, 64, 47
1, 277266, Control_c, 0, 64, 64
1, 277281, Control_c, 0, 64, 76
1, 277295, Note_off_c, 0, 42, 56
1, 277295, Control_c, 0, 64, 86
1, 277310, Control_c, 0, 64, 98
1, 277325, Control_c, 0, 64, 107
1, 277340, Control_c, 0, 64, 127
1, 277378, Note_on_c, 0, 93, 60
1, 277383, Note_on_c, 0, 84, 53
1, 277415, Note_off_c, 0, 84, 65
1, 277448, Note_off_c, 0, 93, 58
1, 277544, Note_on_c, 0, 94, 60
1, 277560, Note_on_c, 0, 85, 58
1, 277565, Note_on_c, 0, 51, 41
1, 277570, Note_on_c, 0, 60, 40
1, 277594, Note_off_c, 0, 85, 61
1, 277603, Note_on_c, 0, 57, 16
1, 277629, Note_off_c, 0, 51, 52
1, 277645, Note_off_c, 0, 60, 50
1, 277646, Note_off_c, 0, 57, 49
1, 277666, Note_on_c, 0, 95, 74
1, 277676, Note_on_c, 0, 86, 68
1, 277677, Note_off_c, 0, 94, 62
1, 277703, Note_off_c, 0, 86, 64
1, 277732, Note_off_c, 0, 95, 61
1, 277784, Control_c, 0, 67, 127
1, 277789, Note_on_c, 0, 96, 79
1, 277799, Note_on_c, 0, 87, 67
1, 277799, Control_c, 0, 67, 125
1, 277800, Note_on_c, 0, 60, 42
1, 277808, Note_on_c, 0, 51, 48
1, 277814, Control_c, 0, 67, 122
1, 277824, Note_off_c, 0, 60, 58
1, 277829, Control_c, 0, 67, 119
1, 277843, Control_c, 0, 67, 114
1, 277857, Note_off_c, 0, 87, 55
1, 277858, Control_c, 0, 67, 109
1, 277860, Note_off_c, 0, 96, 57
1, 277860, Note_off_c, 0, 51, 60
1, 277873, Control_c, 0, 67, 105
1, 277888, Control_c, 0, 67, 100
1, 277903, Control_c, 0, 67, 96
1, 277919, Note_on_c, 0, 97, 77
1, 277925, Control_c, 0, 67, 93
1, 277940, Note_on_c, 0, 88, 66
1, 277940, Control_c, 0, 67, 90
1, 277955, Control_c, 0, 67, 88
1, 277969, Control_c, 0, 67, 86
1, 277984, Control_c, 0, 67, 82
1, 277991, Note_off_c, 0, 88, 61
1, 277999, Control_c, 0, 67, 79
1, 278014, Control_c, 0, 67, 75
1, 278029, Control_c, 0, 67, 70
1, 278043, Control_c, 0, 67, 65
1, 278058, Control_c, 0, 67, 60
1, 278073, Control_c, 0, 64, 103
1, 278073, Control_c, 0, 67, 54
1, 278088, Control_c, 0, 64, 74
1, 278088, Control_c, 0, 67, 47
1, 278102, Control_c, 0, 64, 58
1, 278102, Control_c, 0, 67, 40
1, 278103, Note_on_c, 0, 98, 69
1, 278115, Note_on_c, 0, 89, 59
1, 278117, Control_c, 0, 64, 48
1, 278117, Control_c, 0, 67, 33
1, 278125, Note_on_c, 0, 41, 47
1, 278132, Control_c, 0, 64, 54
1, 278132, Control_c, 0, 67, 25
1, 278148, Control_c, 0, 64, 65
1, 278148, Control_c, 0, 67, 17
1, 278163, Control_c, 0, 64, 78
1, 278163, Control_c, 0, 67, 11
1, 278170, Note_off_c, 0, 89, 64
1, 278178, Control_c, 0, 64, 115
1, 278178, Control_c, 0, 67, 10
1, 278192, Control_c, 0, 64, 127
1, 278192, Control_c, 0, 67, 9
1, 278196, Note_off_c, 0, 97, 23
1, 278197, Note_off_c, 0, 41, 57
1, 278204, Note_off_c, 0, 98, 59
1, 278207, Control_c, 0, 67, 0
1, 278322, Note_on_c, 0, 94, 63
1, 278331, Note_on_c, 0, 85, 62
1, 278401, Note_off_c, 0, 85, 59
1, 278439, Note_off_c, 0, 94, 53
1, 278480, Note_on_c, 0, 86, 64
1, 278485, Note_on_c, 0, 95, 63
1, 278510, Note_on_c, 0, 50, 43
1, 278522, Note_off_c, 0, 86, 57
1, 278523, Note_on_c, 0, 57, 44
1, 278523, Note_on_c, 0, 59, 35
1, 278548, Note_off_c, 0, 95, 57
1, 278583, Note_off_c, 0, 50, 52
1, 278584, Note_off_c, 0, 57, 54
1, 278585, Note_off_c, 0, 59, 55
1, 278608, Note_on_c, 0, 96, 73
1, 278620, Note_on_c, 0, 87, 63
1, 278654, Note_off_c, 0, 87, 60
1, 278685, Note_off_c, 0, 96, 56
1, 278744, Note_on_c, 0, 97, 71
1, 278748, Note_on_c, 0, 59, 47
1, 278750, Note_on_c, 0, 88, 65
1, 278755, Note_on_c, 0, 50, 45
1, 278756, Note_on_c, 0, 57, 46
1, 278777, Note_off_c, 0, 88, 65
1, 278784, Note_off_c, 0, 97, 56
1, 278796, Note_off_c, 0, 59, 57
1, 278797, Note_off_c, 0, 57, 59
1, 278800, Note_off_c, 0, 50, 57
1, 278849, Note_on_c, 0, 98, 74
1, 278855, Note_on_c, 0, 89, 75
1, 278880, Note_off_c, 0, 89, 65
1, 278893, Note_off_c, 0, 98, 67
1, 278961, Note_on_c, 0, 99, 76
1, 278966, Note_on_c, 0, 90, 70
1, 278977, Note_on_c, 0, 57, 41
1, 278978, Note_on_c, 0, 50, 42
1, 278978, Note_on_c, 0, 59, 49
1, 278990, Note_off_c, 0, 99, 59
1, 279006, Note_off_c, 0, 90, 60
1, 279058, Note_on_c, 0, 100, 80
1, 279065, Note_on_c, 0, 91, 77
1, 279089, Note_off_c, 0, 91, 66
1, 279127, Note_off_c, 0, 100, 48
1, 279151, Note_on_c, 0, 101, 82
1, 279164, Note_on_c, 0, 92, 77
1, 279201, Note_off_c, 0, 101, 65
1, 279208, Note_off_c, 0, 92, 59
1, 279263, Note_on_c, 0, 101, 80
1, 279267, Note_on_c, 0, 93, 78
1, 279303, Note_off_c, 0, 93, 64
1, 279304, Note_off_c, 0, 101, 66
1, 279360, Note_on_c, 0, 101, 65
1, 279361, Note_on_c, 0, 94, 86
1, 279392, Note_off_c, 0, 101, 64
1, 279428, Note_off_c, 0, 94, 64
1, 279442, Note_off_c, 0, 59, 57
1, 279478, Note_on_c, 0, 101, 83
1, 279478, Note_on_c, 0, 95, 75
1, 279526, Note_off_c, 0, 101, 66
1, 279529, Note_off_c, 0, 95, 65
1, 279572, Note_off_c, 0, 50, 60
1, 279599, Note_on_c, 0, 96, 70
1, 279599, Note_on_c, 0, 101, 66
1, 279630, Note_off_c, 0, 96, 63
1, 279631, Note_off_c, 0, 101, 65
1, 279634, Note_off_c, 0, 57, 28
1, 279737, Note_on_c, 0, 101, 72
1, 279741, Note_on_c, 0, 97, 65
1, 279779, Note_off_c, 0, 101, 53
1, 279787, Note_off_c, 0, 97, 56
1, 279887, Note_on_c, 0, 101, 63
1, 279905, Note_on_c, 0, 98, 59
1, 279920, Note_off_c, 0, 101, 64
1, 279989, Note_off_c, 0, 98, 52
1, 280033, Note_on_c, 0, 97, 56
1, 280094, Note_off_c, 0, 97, 56
1, 280118, Note_on_c, 0, 98, 56
1, 280209, Note_on_c, 0, 100, 57
1, 280212, Note_off_c, 0, 98, 57
1, 280274, Note_off_c, 0, 100, 60
1, 280283, Note_on_c, 0, 101, 56
1, 280352, Note_off_c, 0, 101, 58
1, 280364, Note_on_c, 0, 97, 58
1, 280397, Note_off_c, 0, 97, 61
1, 280432, Note_on_c, 0, 98, 53
1, 280482, Note_off_c, 0, 98, 53
1, 280487, Note_on_c, 0, 100, 58
1, 280533, Note_on_c, 0, 101, 59
1, 280548, Note_off_c, 0, 100, 54
1, 280588, Note_on_c, 0, 97, 58
1, 280590, Note_off_c, 0, 101, 64
1, 280644, Note_on_c, 0, 98, 54
1, 280647, Note_off_c, 0, 97, 61
1, 280683, Note_on_c, 0, 100, 56
1, 280712, Note_off_c, 0, 98, 62
1, 280740, Note_on_c, 0, 101, 65
1, 280750, Note_off_c, 0, 100, 63
1, 280785, Note_on_c, 0, 97, 63
1, 280811, Note_off_c, 0, 101, 63
1, 280840, Note_on_c, 0, 98, 62
1, 280851, Note_off_c, 0, 97, 58
1, 280869, Control_c, 0, 67, 8
1, 280880, Note_on_c, 0, 100, 68
1, 280884, Control_c, 0, 67, 10
1, 280899, Control_c, 0, 67, 11
1, 280921, Control_c, 0, 67, 12
1, 280921, Note_off_c, 0, 98, 63
1, 280936, Control_c, 0, 67, 13
1, 280942, Note_on_c, 0, 101, 73
1, 280951, Control_c, 0, 67, 13
1, 280961, Note_off_c, 0, 100, 66
1, 280966, Control_c, 0, 67, 14
1, 280981, Control_c, 0, 67, 14
1, 280992, Note_on_c, 0, 97, 70
1, 280995, Control_c, 0, 67, 15
1, 281008, Note_off_c, 0, 101, 62
1, 281010, Control_c, 0, 67, 15
1, 281040, Control_c, 0, 67, 16
1, 281043, Note_on_c, 0, 98, 67
1, 281055, Control_c, 0, 67, 16
1, 281069, Control_c, 0, 67, 17
1, 281084, Control_c, 0, 67, 18
1, 281092, Note_on_c, 0, 100, 66
1, 281094, Note_off_c, 0, 97, 40
1, 281099, Control_c, 0, 67, 19
1, 281113, Control_c, 0, 67, 19
1, 281128, Control_c, 0, 67, 20
1, 281133, Note_off_c, 0, 98, 59
1, 281143, Control_c, 0, 67, 20
1, 281158, Control_c, 0, 67, 21
1, 281160, Note_on_c, 0, 101, 72
1, 281162, Note_off_c, 0, 100, 65
1, 281173, Control_c, 0, 67, 21
1, 281187, Control_c, 0, 67, 23
1, 281202, Control_c, 0, 67, 24
1, 281203, Note_on_c, 0, 97, 63
1, 281217, Control_c, 0, 67, 25
1, 281232, Control_c, 0, 67, 26
1, 281234, Note_off_c, 0, 101, 55
1, 281246, Control_c, 0, 67, 27
1, 281261, Control_c, 0, 67, 28
1, 281266, Note_on_c, 0, 98, 57
1, 281276, Control_c, 0, 67, 30
1, 281291, Control_c, 0, 67, 31
1, 281297, Note_off_c, 0, 97, 45
1, 281306, Control_c, 0, 67, 33
1, 281320, Control_c, 0, 67, 35
1, 281332, Note_on_c, 0, 100, 56
1, 281335, Control_c, 0, 67, 38
1, 281350, Note_off_c, 0, 98, 59
1, 281350, Control_c, 0, 67, 41
1, 281365, Control_c, 0, 67, 44
1, 281380, Control_c, 0, 67, 48
1, 281395, Control_c, 0, 67, 51
1, 281401, Note_off_c, 0, 100, 62
1, 281407, Note_on_c, 0, 101, 60
1, 281410, Control_c, 0, 67, 55
1, 281425, Control_c, 0, 67, 58
1, 281440, Control_c, 0, 67, 60
1, 281455, Control_c, 0, 67, 63
1, 281460, Note_on_c, 0, 97, 51
1, 281470, Control_c, 0, 67, 65
1, 281484, Control_c, 0, 67, 67
1, 281499, Control_c, 0, 67, 69
1, 281511, Note_off_c, 0, 101, 35
1, 281514, Control_c, 0, 67, 72
1, 281528, Control_c, 0, 67, 74
1, 281539, Note_on_c, 0, 98, 51
1, 281543, Control_c, 0, 67, 76
1, 281555, Note_off_c, 0, 97, 32
1, 281558, Control_c, 0, 67, 78
1, 281573, Control_c, 0, 67, 81
1, 281588, Control_c, 0, 67, 85
1, 281603, Control_c, 0, 67, 89
1, 281614, Note_on_c, 0, 100, 56
1, 281616, Note_off_c, 0, 98, 54
1, 281617, Control_c, 0, 67, 93
1, 281632, Control_c, 0, 67, 97
1, 281647, Control_c, 0, 67, 102
1, 281669, Control_c, 0, 67, 107
1, 281684, Control_c, 0, 67, 113
1, 281692, Note_off_c, 0, 100, 60
1, 281694, Note_on_c, 0, 101, 53
1, 281699, Control_c, 0, 67, 117
1, 281714, Control_c, 0, 67, 121
1, 281729, Control_c, 0, 67, 126
1, 281743, Control_c, 0, 67, 127
1, 281766, Note_on_c, 0, 97, 52
1, 281806, Note_off_c, 0, 101, 35
1, 281860, Note_on_c, 0, 98, 47
1, 281896, Note_off_c, 0, 97, 32
1, 281957, Note_on_c, 0, 100, 55
1, 281993, Note_off_c, 0, 98, 34
1, 282111, Note_on_c, 0, 101, 59
1, 282136, Note_off_c, 0, 100, 47
1, 282144, Control_c, 0, 64, 90
1, 282158, Control_c, 0, 64, 68
1, 282161, Note_on_c, 0, 40, 38
1, 282173, Control_c, 0, 64, 45
1, 282188, Control_c, 0, 64, 0
1, 282218, Control_c, 0, 64, 14
1, 282233, Control_c, 0, 64, 43
1, 282248, Control_c, 0, 64, 61
1, 282263, Control_c, 0, 64, 68
1, 282277, Control_c, 0, 64, 74
1, 282292, Control_c, 0, 64, 84
1, 282307, Control_c, 0, 64, 96
1, 282320, Note_off_c, 0, 40, 62
1, 282322, Control_c, 0, 64, 117
1, 282334, Note_on_c, 0, 97, 41
1, 282337, Control_c, 0, 64, 127
1, 282417, Note_off_c, 0, 101, 55
1, 282457, Note_on_c, 0, 98, 45
1, 282507, Note_off_c, 0, 97, 45
1, 282563, Note_off_c, 0, 98, 51
1, 282575, Note_on_c, 0, 99, 58
1, 282662, Note_off_c, 0, 99, 56
1, 282663, Note_on_c, 0, 100, 56
1, 282714, Note_on_c, 0, 56, 38
1, 282725, Note_on_c, 0, 64, 34
1, 282734, Note_on_c, 0, 62, 30
1, 282753, Note_off_c, 0, 100, 61
1, 282776, Note_off_c, 0, 56, 57
1, 282779, Note_off_c, 0, 62, 62
1, 282784, Note_off_c, 0, 64, 59
1, 282800, Note_on_c, 0, 96, 37
1, 282848, Note_off_c, 0, 96, 51
1, 282861, Note_on_c, 0, 97, 53
1, 282942, Note_off_c, 0, 97, 56
1, 282942, Note_on_c, 0, 98, 50
1, 283008, Note_off_c, 0, 98, 61
1, 283009, Note_on_c, 0, 99, 60
1, 283028, Note_on_c, 0, 56, 36
1, 283037, Note_on_c, 0, 62, 37
1, 283047, Note_on_c, 0, 64, 28
1, 283070, Note_off_c, 0, 56, 60
1, 283076, Note_off_c, 0, 62, 62
1, 283076, Note_off_c, 0, 99, 60
1, 283084, Note_off_c, 0, 64, 53
1, 283100, Note_on_c, 0, 95, 49
1, 283168, Note_off_c, 0, 95, 44
1, 283190, Note_on_c, 0, 96, 52
1, 283237, Note_on_c, 0, 97, 51
1, 283268, Note_off_c, 0, 96, 45
1, 283270, Note_off_c, 0, 97, 59
1, 283294, Note_on_c, 0, 98, 61
1, 283324, Note_on_c, 0, 64, 29
1, 283326, Note_on_c, 0, 56, 37
1, 283326, Note_on_c, 0, 62, 36
1, 283351, Note_off_c, 0, 98, 64
1, 283375, Note_on_c, 0, 94, 56
1, 283418, Note_off_c, 0, 94, 54
1, 283431, Note_on_c, 0, 95, 52
1, 283480, Note_on_c, 0, 96, 56
1, 283515, Note_off_c, 0, 64, 33
1, 283523, Note_on_c, 0, 97, 69
1, 283536, Note_off_c, 0, 95, 32
1, 283547, Note_off_c, 0, 96, 63
1, 283592, Note_off_c, 0, 97, 63
1, 283608, Note_on_c, 0, 93, 59
1, 283628, Note_off_c, 0, 56, 33
1, 283636, Note_off_c, 0, 93, 64
1, 283653, Note_on_c, 0, 94, 67
1, 283653, Note_off_c, 0, 62, 31
1, 283708, Note_on_c, 0, 95, 60
1, 283735, Note_off_c, 0, 94, 55
1, 283743, Note_off_c, 0, 95, 61
1, 283746, Note_on_c, 0, 96, 71
1, 283800, Note_off_c, 0, 96, 64
1, 283807, Note_on_c, 0, 92, 67
1, 283842, Note_off_c, 0, 92, 56
1, 283860, Note_on_c, 0, 93, 67
1, 283920, Note_on_c, 0, 94, 55
1, 283920, Note_off_c, 0, 93, 58
1, 283953, Note_on_c, 0, 95, 61
1, 283971, Note_off_c, 0, 94, 59
1, 283998, Note_off_c, 0, 95, 63
1, 284014, Note_on_c, 0, 91, 63
1, 284044, Note_off_c, 0, 91, 62
1, 284063, Note_on_c, 0, 92, 66
1, 284113, Note_off_c, 0, 92, 0
1, 284120, Note_on_c, 0, 93, 50
1, 284151, Poly_aftertouch_c, 0, 92, 0
1, 284154, Note_off_c, 0, 93, 64
1, 284163, Note_on_c, 0, 94, 64
1, 284214, Note_off_c, 0, 94, 61
1, 284217, Note_on_c, 0, 90, 54
1, 284249, Note_off_c, 0, 90, 60
1, 284263, Note_on_c, 0, 91, 63
1, 284304, Note_on_c, 0, 92, 69
1, 284320, Note_off_c, 0, 91, 56
1, 284361, Note_on_c, 0, 93, 62
1, 284367, Note_off_c, 0, 92, 61
1, 284403, Note_off_c, 0, 93, 61
1, 284415, Note_on_c, 0, 89, 61
1, 284448, Note_off_c, 0, 89, 61
1, 284459, Note_on_c, 0, 90, 65
1, 284511, Note_off_c, 0, 90, 62
1, 284519, Note_on_c, 0, 91, 63
1, 284567, Note_on_c, 0, 92, 69
1, 284568, Note_off_c, 0, 91, 64
1, 284614, Note_off_c, 0, 92, 62
1, 284632, Note_on_c, 0, 87, 66
1, 284671, Note_off_c, 0, 87, 60
1, 284684, Note_on_c, 0, 88, 60
1, 284734, Note_on_c, 0, 89, 61
1, 284762, Note_off_c, 0, 88, 59
1, 284787, Note_on_c, 0, 90, 72
1, 284799, Note_off_c, 0, 89, 63
1, 284847, Note_off_c, 0, 90, 63
1, 284847, Note_on_c, 0, 86, 59
1, 284888, Note_off_c, 0, 86, 59
1, 284889, Note_on_c, 0, 87, 75
1, 284945, Note_on_c, 0, 88, 70
1, 284962, Note_off_c, 0, 87, 63
1, 284986, Note_on_c, 0, 89, 77
1, 284994, Note_off_c, 0, 88, 61
1, 285044, Note_off_c, 0, 89, 61
1, 285047, Note_on_c, 0, 85, 72
1, 285095, Note_on_c, 0, 86, 76
1, 285100, Note_off_c, 0, 85, 59
1, 285146, Note_off_c, 0, 86, 63
1, 285149, Note_on_c, 0, 87, 76
1, 285192, Note_on_c, 0, 88, 73
1, 285207, Note_off_c, 0, 87, 64
1, 285241, Note_off_c, 0, 88, 64
1, 285255, Note_on_c, 0, 84, 64
1, 285283, Note_off_c, 0, 84, 62
1, 285297, Note_on_c, 0, 85, 79
1, 285351, Note_off_c, 0, 85, 63
1, 285360, Note_on_c, 0, 86, 68
1, 285393, Note_on_c, 0, 87, 70
1, 285413, Note_off_c, 0, 86, 63
1, 285461, Note_on_c, 0, 83, 70
1, 285470, Note_off_c, 0, 87, 64
1, 285519, Note_off_c, 0, 83, 59
1, 285521, Note_on_c, 0, 84, 64
1, 285565, Note_on_c, 0, 85, 76
1, 285590, Note_off_c, 0, 84, 64
1, 285611, Note_on_c, 0, 86, 72
1, 285624, Note_off_c, 0, 85, 57
1, 285668, Note_on_c, 0, 82, 69
1, 285668, Note_off_c, 0, 86, 64
1, 285722, Note_on_c, 0, 83, 72
1, 285750, Note_off_c, 0, 82, 36
1, 285754, Control_c, 0, 64, 121
1, 285769, Control_c, 0, 64, 116
1, 285778, Note_on_c, 0, 84, 68
1, 285783, Control_c, 0, 64, 112
1, 285798, Control_c, 0, 64, 108
1, 285801, Note_off_c, 0, 83, 55
1, 285813, Control_c, 0, 64, 104
1, 285821, Note_on_c, 0, 85, 77
1, 285828, Control_c, 0, 64, 100
1, 285840, Note_off_c, 0, 84, 63
1, 285843, Control_c, 0, 64, 98
1, 285858, Control_c, 0, 64, 95
1, 285872, Control_c, 0, 64, 92
1, 285887, Control_c, 0, 64, 90
1, 285890, Note_off_c, 0, 85, 63
1, 285896, Note_on_c, 0, 81, 59
1, 285902, Control_c, 0, 64, 87
1, 285917, Control_c, 0, 64, 85
1, 285932, Control_c, 0, 64, 83
1, 285939, Note_on_c, 0, 82, 71
1, 285946, Note_off_c, 0, 81, 60
1, 285947, Control_c, 0, 64, 81
1, 285961, Control_c, 0, 64, 80
1, 285976, Control_c, 0, 64, 79
1, 285991, Control_c, 0, 64, 78
1, 286001, Note_on_c, 0, 83, 61
1, 286006, Control_c, 0, 64, 78
1, 286021, Control_c, 0, 64, 77
1, 286035, Control_c, 0, 64, 76
1, 286042, Note_on_c, 0, 84, 72
1, 286048, Note_off_c, 0, 82, 51
1, 286050, Control_c, 0, 64, 75
1, 286053, Note_off_c, 0, 83, 62
1, 286065, Control_c, 0, 64, 75
1, 286095, Control_c, 0, 64, 74
1, 286109, Note_off_c, 0, 84, 63
1, 286109, Control_c, 0, 64, 74
1, 286116, Note_on_c, 0, 80, 59
1, 286125, Control_c, 0, 64, 73
1, 286140, Control_c, 0, 64, 73
1, 286162, Control_c, 0, 64, 72
1, 286167, Note_off_c, 0, 80, 56
1, 286176, Note_on_c, 0, 81, 68
1, 286177, Control_c, 0, 64, 70
1, 286192, Control_c, 0, 64, 68
1, 286206, Control_c, 0, 64, 66
1, 286221, Control_c, 0, 64, 64
1, 286230, Note_on_c, 0, 82, 59
1, 286236, Control_c, 0, 64, 63
1, 286251, Control_c, 0, 64, 62
1, 286253, Note_off_c, 0, 81, 41
1, 286266, Control_c, 0, 64, 61
1, 286283, Note_on_c, 0, 83, 62
1, 286284, Note_off_c, 0, 82, 59
1, 286311, Control_c, 0, 64, 61
1, 286326, Control_c, 0, 64, 60
1, 286340, Control_c, 0, 64, 59
1, 286343, Note_off_c, 0, 83, 64
1, 286355, Control_c, 0, 64, 58
1, 286361, Note_on_c, 0, 79, 54
1, 286370, Control_c, 0, 64, 57
1, 286391, Note_off_c, 0, 79, 64
1, 286399, Note_on_c, 0, 80, 61
1, 286399, Control_c, 0, 64, 57
1, 286429, Control_c, 0, 64, 56
1, 286460, Note_off_c, 0, 80, 61
1, 286463, Note_on_c, 0, 81, 61
1, 286473, Control_c, 0, 64, 56
1, 286503, Control_c, 0, 64, 55
1, 286526, Note_on_c, 0, 82, 61
1, 286530, Note_off_c, 0, 81, 60
1, 286591, Control_c, 0, 64, 55
1, 286597, Note_on_c, 0, 78, 59
1, 286597, Note_off_c, 0, 82, 60
1, 286606, Control_c, 0, 64, 54
1, 286621, Control_c, 0, 64, 54
1, 286650, Control_c, 0, 64, 53
1, 286660, Note_off_c, 0, 78, 57
1, 286665, Control_c, 0, 64, 53
1, 286668, Note_on_c, 0, 79, 57
1, 286680, Control_c, 0, 64, 52
1, 286695, Control_c, 0, 64, 52
1, 286710, Control_c, 0, 64, 51
1, 286725, Control_c, 0, 64, 50
1, 286740, Control_c, 0, 64, 49
1, 286740, Note_on_c, 0, 80, 61
1, 286747, Note_off_c, 0, 79, 56
1, 286755, Control_c, 0, 64, 48
1, 286770, Control_c, 0, 64, 48
1, 286784, Control_c, 0, 64, 47
1, 286797, Note_on_c, 0, 81, 58
1, 286799, Control_c, 0, 64, 46
1, 286811, Note_off_c, 0, 80, 58
1, 286814, Control_c, 0, 64, 46
1, 286829, Control_c, 0, 64, 44
1, 286844, Control_c, 0, 64, 43
1, 286858, Control_c, 0, 64, 42
1, 286873, Control_c, 0, 64, 41
1, 286876, Note_off_c, 0, 81, 62
1, 286888, Note_on_c, 0, 77, 55
1, 286888, Control_c, 0, 64, 40
1, 286910, Control_c, 0, 64, 38
1, 286925, Control_c, 0, 64, 35
1, 286941, Control_c, 0, 64, 33
1, 286955, Control_c, 0, 64, 30
1, 286966, Note_on_c, 0, 78, 56
1, 286970, Note_off_c, 0, 77, 61
1, 286970, Control_c, 0, 64, 27
1, 286985, Control_c, 0, 64, 23
1, 287000, Control_c, 0, 64, 16
1, 287014, Control_c, 0, 64, 0
1, 287047, Note_off_c, 0, 78, 61
1, 287051, Note_on_c, 0, 79, 57
1, 287136, Note_on_c, 0, 80, 58
1, 287145, Note_off_c, 0, 79, 59
1, 287234, Note_off_c, 0, 80, 60
1, 287249, Note_on_c, 0, 75, 52
1, 287355, Note_off_c, 0, 75, 57
1, 287360, Note_on_c, 0, 76, 58
1, 287479, Note_on_c, 0, 77, 52
1, 287503, Note_off_c, 0, 76, 38
1, 287607, Note_on_c, 0, 78, 53
1, 287619, Note_off_c, 0, 77, 55
1, 287730, Note_off_c, 0, 78, 57
1, 287744, Note_on_c, 0, 74, 48
1, 287905, Note_on_c, 0, 75, 52
1, 287914, Note_off_c, 0, 74, 53
1, 288051, Note_off_c, 0, 75, 58
1, 288064, Note_on_c, 0, 76, 56
1, 288253, Control_c, 0, 67, 124
1, 288260, Note_on_c, 0, 77, 48
1, 288268, Control_c, 0, 67, 119
1, 288283, Control_c, 0, 67, 114
1, 288297, Control_c, 0, 67, 109
1, 288312, Control_c, 0, 67, 104
1, 288313, Note_off_c, 0, 76, 34
1, 288327, Control_c, 0, 67, 99
1, 288342, Control_c, 0, 67, 94
1, 288356, Control_c, 0, 67, 89
1, 288371, Control_c, 0, 67, 83
1, 288386, Control_c, 0, 67, 76
1, 288409, Control_c, 0, 67, 70
1, 288424, Control_c, 0, 67, 64
1, 288438, Control_c, 0, 67, 59
1, 288453, Control_c, 0, 67, 53
1, 288468, Control_c, 0, 67, 49
1, 288483, Control_c, 0, 67, 45
1, 288498, Control_c, 0, 67, 41
1, 288512, Control_c, 0, 67, 38
1, 288520, Note_on_c, 0, 73, 39
1, 288528, Control_c, 0, 67, 34
1, 288543, Control_c, 0, 67, 30
1, 288548, Note_off_c, 0, 77, 34
1, 288558, Control_c, 0, 67, 26
1, 288573, Control_c, 0, 67, 21
1, 288587, Control_c, 0, 67, 15
1, 288602, Control_c, 0, 67, 13
1, 288632, Control_c, 0, 67, 13
1, 288647, Control_c, 0, 67, 12
1, 288661, Control_c, 0, 67, 12
1, 288676, Control_c, 0, 67, 11
1, 288691, Control_c, 0, 67, 10
1, 288706, Control_c, 0, 67, 9
1, 288721, Control_c, 0, 67, 9
1, 288735, Control_c, 0, 67, 8
1, 288765, Control_c, 0, 67, 0
1, 288824, Note_on_c, 0, 74, 43
1, 288861, Note_off_c, 0, 73, 35
1, 289272, Note_on_c, 0, 75, 36
1, 289309, Note_off_c, 0, 74, 44
1, 289336, Control_c, 0, 64, 10
1, 289351, Control_c, 0, 64, 31
1, 289366, Control_c, 0, 64, 45
1, 289381, Control_c, 0, 64, 52
1, 289396, Control_c, 0, 64, 55
1, 289410, Control_c, 0, 64, 58
1, 289425, Control_c, 0, 64, 60
1, 289440, Control_c, 0, 64, 62
1, 289455, Control_c, 0, 64, 64
1, 289470, Control_c, 0, 64, 67
1, 289483, Control_c, 0, 64, 70
1, 289498, Control_c, 0, 64, 73
1, 289513, Control_c, 0, 64, 77
1, 289527, Control_c, 0, 64, 81
1, 289542, Control_c, 0, 64, 86
1, 289557, Control_c, 0, 64, 91
1, 289572, Control_c, 0, 64, 98
1, 289587, Control_c, 0, 64, 104
1, 289602, Control_c, 0, 64, 112
1, 289616, Control_c, 0, 64, 127
1, 289708, Note_on_c, 0, 45, 30
1, 289728, Note_off_c, 0, 75, 54
1, 289883, Note_on_c, 0, 64, 33
1, 289961, Note_on_c, 0, 69, 41
1, 289969, Note_off_c, 0, 64, 0
1, 289969, Note_on_c, 0, 64, 10
1, 290076, Note_on_c, 0, 76, 57
1, 290098, Control_c, 0, 64, 115
1, 290113, Control_c, 0, 64, 95
1, 290128, Note_on_c, 0, 61, 43
1, 290129, Control_c, 0, 64, 83
1, 290144, Control_c, 0, 64, 77
1, 290158, Control_c, 0, 64, 75
1, 290188, Control_c, 0, 64, 77
1, 290203, Control_c, 0, 64, 82
1, 290218, Control_c, 0, 64, 90
1, 290233, Control_c, 0, 64, 102
1, 290248, Control_c, 0, 64, 113
1, 290248, Note_off_c, 0, 64, 35
1, 290263, Control_c, 0, 64, 127
1, 290301, Note_off_c, 0, 69, 57
1, 290332, Note_off_c, 0, 76, 52
1, 290707, Note_on_c, 0, 78, 55
1, 290815, Note_off_c, 0, 61, 33
1, 290830, Note_off_c, 0, 45, 38
1, 290874, Note_on_c, 0, 76, 62
1, 290919, Note_off_c, 0, 78, 60
1, 290950, Note_off_c, 0, 76, 59
1, 291021, Note_on_c, 0, 76, 66
1, 291070, Control_c, 0, 64, 99
1, 291085, Control_c, 0, 64, 76
1, 291099, Control_c, 0, 64, 59
1, 291114, Control_c, 0, 64, 52
1, 291129, Control_c, 0, 64, 57
1, 291144, Control_c, 0, 64, 67
1, 291159, Control_c, 0, 64, 79
1, 291163, Note_on_c, 0, 81, 65
1, 291173, Control_c, 0, 64, 96
1, 291188, Control_c, 0, 64, 127
1, 291195, Note_on_c, 0, 45, 48
1, 291239, Note_off_c, 0, 81, 59
1, 291247, Note_off_c, 0, 76, 60
1, 291248, Note_off_c, 0, 45, 59
1, 291291, Note_on_c, 0, 59, 49
1, 291325, Note_off_c, 0, 59, 65
1, 291421, Note_on_c, 0, 80, 61
1, 291446, Note_on_c, 0, 68, 48
1, 291500, Note_on_c, 0, 64, 48
1, 291544, Note_off_c, 0, 64, 61
1, 291973, Note_on_c, 0, 76, 52
1, 291981, Control_c, 0, 67, 8
1, 292005, Note_off_c, 0, 80, 58
1, 292025, Control_c, 0, 67, 8
1, 292035, Note_off_c, 0, 76, 62
1, 292055, Control_c, 0, 67, 9
1, 292085, Control_c, 0, 67, 9
1, 292151, Control_c, 0, 67, 10
1, 292181, Control_c, 0, 67, 10
1, 292210, Control_c, 0, 67, 11
1, 292225, Control_c, 0, 67, 11
1, 292255, Control_c, 0, 67, 12
1, 292284, Control_c, 0, 67, 12
1, 292299, Control_c, 0, 67, 13
1, 292314, Control_c, 0, 67, 14
1, 292329, Control_c, 0, 67, 14
1, 292344, Control_c, 0, 67, 15
1, 292359, Control_c, 0, 67, 16
1, 292374, Control_c, 0, 67, 16
1, 292389, Control_c, 0, 67, 17
1, 292403, Control_c, 0, 67, 18
1, 292418, Control_c, 0, 67, 19
1, 292433, Control_c, 0, 67, 20
1, 292446, Note_on_c, 0, 76, 44
1, 292447, Control_c, 0, 67, 21
1, 292462, Control_c, 0, 67, 21
1, 292477, Control_c, 0, 67, 22
1, 292492, Control_c, 0, 67, 23
1, 292500, Note_off_c, 0, 68, 55
1, 292507, Control_c, 0, 67, 24
1, 292523, Control_c, 0, 67, 25
1, 292538, Control_c, 0, 67, 26
1, 292552, Control_c, 0, 67, 27
1, 292567, Control_c, 0, 67, 27
1, 292569, Note_off_c, 0, 76, 31
1, 292582, Control_c, 0, 67, 28
1, 292597, Control_c, 0, 67, 29
1, 292612, Control_c, 0, 67, 30
1, 292626, Control_c, 0, 67, 31
1, 292641, Control_c, 0, 67, 33
1, 292656, Control_c, 0, 67, 35
1, 292670, Control_c, 0, 67, 36
1, 292685, Control_c, 0, 67, 38
1, 292700, Control_c, 0, 67, 41
1, 292715, Control_c, 0, 67, 44
1, 292730, Control_c, 0, 67, 47
1, 292744, Control_c, 0, 67, 50
1, 292759, Control_c, 0, 67, 52
1, 292774, Control_c, 0, 67, 54
1, 292789, Control_c, 0, 67, 56
1, 292804, Note_on_c, 0, 45, 37
1, 292804, Control_c, 0, 67, 57
1, 292864, Note_on_c, 0, 64, 44
1, 292937, Note_on_c, 0, 69, 49
1, 293004, Control_c, 0, 64, 104
1, 293007, Note_on_c, 0, 74, 59
1, 293018, Control_c, 0, 64, 81
1, 293018, Control_c, 0, 67, 57
1, 293033, Control_c, 0, 64, 65
1, 293033, Control_c, 0, 67, 56
1, 293048, Control_c, 0, 64, 56
1, 293048, Control_c, 0, 67, 56
1, 293056, Note_on_c, 0, 54, 39
1, 293063, Control_c, 0, 64, 57
1, 293063, Control_c, 0, 67, 55
1, 293077, Control_c, 0, 64, 65
1, 293077, Control_c, 0, 67, 54
1, 293092, Control_c, 0, 64, 74
1, 293092, Control_c, 0, 67, 52
1, 293107, Control_c, 0, 64, 89
1, 293107, Control_c, 0, 67, 51
1, 293108, Note_off_c, 0, 64, 33
1, 293112, Note_off_c, 0, 69, 60
1, 293122, Control_c, 0, 64, 118
1, 293122, Control_c, 0, 67, 50
1, 293137, Control_c, 0, 64, 127
1, 293137, Control_c, 0, 67, 49
1, 293152, Control_c, 0, 67, 48
1, 293155, Note_off_c, 0, 74, 62
1, 293167, Control_c, 0, 67, 47
1, 293182, Control_c, 0, 67, 46
1, 293197, Control_c, 0, 67, 44
1, 293211, Control_c, 0, 67, 43
1, 293226, Control_c, 0, 67, 40
1, 293241, Control_c, 0, 67, 37
1, 293256, Control_c, 0, 67, 34
1, 293270, Control_c, 0, 67, 29
1, 293285, Control_c, 0, 67, 24
1, 293300, Control_c, 0, 67, 19
1, 293316, Control_c, 0, 67, 14
1, 293331, Control_c, 0, 67, 13
1, 293346, Control_c, 0, 67, 12
1, 293360, Control_c, 0, 67, 11
1, 293375, Control_c, 0, 67, 10
1, 293385, Note_on_c, 0, 76, 39
1, 293390, Control_c, 0, 67, 10
1, 293405, Control_c, 0, 67, 9
1, 293420, Control_c, 0, 67, 8
1, 293435, Control_c, 0, 67, 0
1, 293445, Note_on_c, 0, 74, 60
1, 293458, Note_off_c, 0, 45, 41
1, 293480, Note_off_c, 0, 76, 61
1, 293518, Note_off_c, 0, 54, 33
1, 293622, Note_on_c, 0, 73, 65
1, 293625, Note_off_c, 0, 74, 61
1, 293783, Note_on_c, 0, 74, 66
1, 293820, Note_off_c, 0, 73, 59
1, 293935, Note_on_c, 0, 78, 68
1, 293939, Note_off_c, 0, 74, 61
1, 293995, Note_off_c, 0, 78, 60
1, 294030, Note_on_c, 0, 45, 48
1, 294211, Note_on_c, 0, 78, 64
1, 294225, Note_on_c, 0, 69, 49
1, 294237, Note_on_c, 0, 64, 34
1, 294258, Control_c, 0, 64, 88
1, 294273, Control_c, 0, 64, 71
1, 294288, Control_c, 0, 64, 54
1, 294294, Note_on_c, 0, 61, 27
1, 294302, Control_c, 0, 64, 19
1, 294317, Control_c, 0, 64, 0
1, 294517, Control_c, 0, 64, 21
1, 294532, Control_c, 0, 64, 40
1, 294547, Control_c, 0, 64, 52
1, 294562, Control_c, 0, 64, 58
1, 294577, Control_c, 0, 64, 60
1, 294591, Control_c, 0, 64, 63
1, 294606, Control_c, 0, 64, 65
1, 294621, Control_c, 0, 64, 68
1, 294636, Control_c, 0, 64, 72
1, 294650, Control_c, 0, 64, 77
1, 294665, Control_c, 0, 64, 84
1, 294680, Control_c, 0, 64, 90
1, 294695, Control_c, 0, 64, 95
1, 294710, Control_c, 0, 64, 103
1, 294724, Control_c, 0, 64, 118
1, 294739, Control_c, 0, 64, 127
1, 294740, Note_on_c, 0, 73, 47
1, 294779, Note_off_c, 0, 78, 60
1, 294836, Note_off_c, 0, 73, 59
1, 294857, Note_off_c, 0, 61, 41
1, 294864, Note_off_c, 0, 45, 37
1, 294933, Control_c, 0, 67, 8
1, 294947, Control_c, 0, 67, 8
1, 294962, Control_c, 0, 67, 9
1, 294977, Control_c, 0, 67, 10
1, 294992, Control_c, 0, 67, 11
1, 295007, Control_c, 0, 67, 12
1, 295021, Control_c, 0, 67, 12
1, 295036, Control_c, 0, 67, 13
1, 295051, Control_c, 0, 67, 15
1, 295066, Control_c, 0, 67, 16
1, 295080, Control_c, 0, 67, 17
1, 295095, Control_c, 0, 67, 19
1, 295110, Control_c, 0, 67, 20
1, 295125, Control_c, 0, 67, 21
1, 295147, Control_c, 0, 67, 22
1, 295162, Control_c, 0, 67, 24
1, 295177, Control_c, 0, 67, 25
1, 295192, Control_c, 0, 67, 26
1, 295207, Control_c, 0, 67, 27
1, 295221, Control_c, 0, 67, 29
1, 295227, Note_on_c, 0, 73, 46
1, 295236, Control_c, 0, 67, 30
1, 295251, Control_c, 0, 67, 31
1, 295265, Control_c, 0, 67, 33
1, 295280, Control_c, 0, 67, 35
1, 295292, Note_off_c, 0, 64, 41
1, 295295, Control_c, 0, 67, 37
1, 295300, Note_off_c, 0, 69, 40
1, 295304, Note_off_c, 0, 73, 55
1, 295310, Control_c, 0, 67, 39
1, 295325, Control_c, 0, 67, 41
1, 295340, Control_c, 0, 67, 43
1, 295355, Control_c, 0, 67, 45
1, 295370, Control_c, 0, 67, 47
1, 295384, Control_c, 0, 67, 49
1, 295399, Control_c, 0, 67, 51
1, 295414, Control_c, 0, 67, 53
1, 295429, Control_c, 0, 67, 56
1, 295444, Control_c, 0, 67, 58
1, 295459, Control_c, 0, 67, 61
1, 295473, Control_c, 0, 67, 63
1, 295488, Control_c, 0, 67, 66
1, 295503, Control_c, 0, 67, 69
1, 295518, Control_c, 0, 67, 71
1, 295533, Control_c, 0, 67, 73
1, 295547, Control_c, 0, 67, 75
1, 295562, Control_c, 0, 67, 77
1, 295577, Control_c, 0, 67, 79
1, 295591, Control_c, 0, 67, 81
1, 295606, Control_c, 0, 67, 83
1, 295621, Control_c, 0, 67, 84
1, 295636, Control_c, 0, 67, 85
1, 295641, Note_on_c, 0, 42, 31
1, 295651, Control_c, 0, 67, 85
1, 295665, Control_c, 0, 67, 86
1, 295680, Control_c, 0, 67, 87
1, 295695, Control_c, 0, 67, 87
1, 295726, Control_c, 0, 64, 103
1, 295726, Control_c, 0, 67, 88
1, 295741, Note_on_c, 0, 74, 53
1, 295741, Control_c, 0, 64, 77
1, 295741, Control_c, 0, 67, 88
1, 295756, Control_c, 0, 64, 60
1, 295764, Note_on_c, 0, 64, 33
1, 295770, Control_c, 0, 64, 36
1, 295775, Note_on_c, 0, 69, 33
1, 295785, Control_c, 0, 64, 22
1, 295800, Control_c, 0, 64, 32
1, 295800, Control_c, 0, 67, 88
1, 295805, Note_on_c, 0, 57, 30
1, 295814, Control_c, 0, 64, 52
1, 295829, Control_c, 0, 64, 66
1, 295829, Control_c, 0, 67, 87
1, 295844, Control_c, 0, 64, 76
1, 295844, Control_c, 0, 67, 86
1, 295859, Control_c, 0, 64, 87
1, 295859, Control_c, 0, 67, 84
1, 295873, Note_off_c, 0, 64, 45
1, 295874, Control_c, 0, 64, 101
1, 295874, Control_c, 0, 67, 82
1, 295896, Control_c, 0, 64, 115
1, 295896, Control_c, 0, 67, 80
1, 295898, Note_off_c, 0, 69, 59
1, 295911, Control_c, 0, 64, 127
1, 295911, Control_c, 0, 67, 79
1, 295926, Control_c, 0, 67, 77
1, 295935, Note_off_c, 0, 74, 63
1, 295941, Control_c, 0, 67, 76
1, 295956, Control_c, 0, 67, 75
1, 295970, Control_c, 0, 67, 72
1, 295985, Control_c, 0, 67, 68
1, 296000, Control_c, 0, 67, 64
1, 296014, Control_c, 0, 67, 60
1, 296029, Control_c, 0, 67, 55
1, 296040, Note_off_c, 0, 57, 41
1, 296044, Control_c, 0, 67, 51
1, 296059, Control_c, 0, 67, 47
1, 296074, Control_c, 0, 67, 43
1, 296088, Control_c, 0, 67, 38
1, 296103, Control_c, 0, 67, 33
1, 296118, Control_c, 0, 67, 26
1, 296133, Control_c, 0, 67, 19
1, 296148, Control_c, 0, 67, 12
1, 296157, Note_off_c, 0, 42, 32
1, 296163, Control_c, 0, 67, 9
1, 296168, Note_on_c, 0, 76, 57
1, 296177, Control_c, 0, 67, 0
1, 296320, Note_on_c, 0, 74, 64
1, 296348, Note_off_c, 0, 76, 50
1, 296378, Note_off_c, 0, 74, 51
1, 296478, Note_on_c, 0, 74, 63
1, 296533, Control_c, 0, 64, 93
1, 296548, Control_c, 0, 64, 68
1, 296563, Control_c, 0, 64, 47
1, 296578, Control_c, 0, 64, 34
1, 296592, Control_c, 0, 64, 44
1, 296607, Control_c, 0, 64, 61
1, 296614, Note_on_c, 0, 78, 65
1, 296622, Control_c, 0, 64, 75
1, 296639, Note_off_c, 0, 74, 62
1, 296644, Control_c, 0, 64, 93
1, 296659, Control_c, 0, 64, 127
1, 296666, Note_on_c, 0, 40, 47
1, 296702, Note_off_c, 0, 78, 56
1, 296704, Note_off_c, 0, 40, 64
1, 296851, Note_on_c, 0, 78, 60
1, 296882, Note_on_c, 0, 69, 48
1, 296885, Note_on_c, 0, 64, 47
1, 296902, Note_on_c, 0, 61, 42
1, 296940, Note_off_c, 0, 61, 63
1, 297090, Control_c, 0, 67, 9
1, 297104, Control_c, 0, 67, 10
1, 297119, Control_c, 0, 67, 11
1, 297134, Control_c, 0, 67, 12
1, 297149, Control_c, 0, 67, 13
1, 297163, Control_c, 0, 67, 14
1, 297178, Control_c, 0, 67, 16
1, 297193, Control_c, 0, 67, 17
1, 297208, Control_c, 0, 67, 18
1, 297223, Control_c, 0, 67, 18
1, 297237, Control_c, 0, 67, 19
1, 297252, Control_c, 0, 67, 20
1, 297267, Control_c, 0, 67, 22
1, 297282, Control_c, 0, 67, 23
1, 297297, Control_c, 0, 67, 23
1, 297313, Note_off_c, 0, 64, 26
1, 297313, Control_c, 0, 67, 24
1, 297327, Control_c, 0, 67, 25
1, 297342, Control_c, 0, 67, 25
1, 297348, Note_off_c, 0, 69, 55
1, 297349, Note_on_c, 0, 73, 57
1, 297357, Control_c, 0, 67, 26
1, 297372, Control_c, 0, 67, 27
1, 297394, Control_c, 0, 67, 28
1, 297409, Control_c, 0, 67, 30
1, 297423, Control_c, 0, 67, 32
1, 297429, Note_off_c, 0, 78, 59
1, 297438, Control_c, 0, 67, 33
1, 297453, Control_c, 0, 67, 35
1, 297468, Control_c, 0, 67, 37
1, 297483, Control_c, 0, 67, 40
1, 297494, Note_off_c, 0, 73, 35
1, 297498, Control_c, 0, 67, 43
1, 297513, Control_c, 0, 67, 46
1, 297528, Control_c, 0, 67, 49
1, 297542, Control_c, 0, 67, 51
1, 297557, Control_c, 0, 67, 54
1, 297572, Control_c, 0, 67, 56
1, 297586, Control_c, 0, 67, 59
1, 297601, Control_c, 0, 67, 61
1, 297616, Control_c, 0, 67, 63
1, 297631, Control_c, 0, 67, 65
1, 297646, Control_c, 0, 67, 68
1, 297660, Control_c, 0, 67, 71
1, 297675, Control_c, 0, 67, 73
1, 297690, Control_c, 0, 67, 76
1, 297693, Note_on_c, 0, 73, 59
1, 297705, Control_c, 0, 67, 79
1, 297720, Control_c, 0, 67, 82
1, 297734, Control_c, 0, 67, 85
1, 297749, Control_c, 0, 67, 87
1, 297764, Control_c, 0, 67, 90
1, 297766, Note_off_c, 0, 73, 54
1, 297779, Control_c, 0, 67, 93
1, 297793, Control_c, 0, 67, 96
1, 297808, Control_c, 0, 67, 98
1, 297823, Control_c, 0, 67, 100
1, 297832, Note_on_c, 0, 52, 44
1, 297838, Control_c, 0, 67, 102
1, 297853, Control_c, 0, 67, 103
1, 297868, Control_c, 0, 67, 103
1, 297882, Control_c, 0, 67, 104
1, 297927, Note_on_c, 0, 59, 35
1, 297945, Note_on_c, 0, 74, 58
1, 297988, Note_off_c, 0, 74, 58
1, 298006, Note_on_c, 0, 76, 61
1, 298060, Control_c, 0, 64, 108
1, 298075, Control_c, 0, 64, 83
1, 298079, Note_on_c, 0, 74, 59
1, 298089, Note_off_c, 0, 76, 59
1, 298090, Control_c, 0, 64, 65
1, 298096, Note_on_c, 0, 68, 39
1, 298106, Control_c, 0, 64, 35
1, 298119, Note_on_c, 0, 64, 35
1, 298121, Control_c, 0, 64, 0
1, 298380, Control_c, 0, 67, 103
1, 298436, Note_off_c, 0, 74, 62
1, 298440, Note_on_c, 0, 73, 53
1, 298528, Control_c, 0, 67, 103
1, 298656, Note_on_c, 0, 74, 56
1, 298661, Control_c, 0, 67, 102
1, 298675, Note_off_c, 0, 73, 55
1, 298720, Control_c, 0, 67, 102
1, 298735, Control_c, 0, 67, 101
1, 298750, Control_c, 0, 67, 100
1, 298765, Control_c, 0, 67, 98
1, 298780, Control_c, 0, 67, 96
1, 298795, Control_c, 0, 67, 93
1, 298809, Control_c, 0, 67, 90
1, 298824, Control_c, 0, 64, 24
1, 298824, Control_c, 0, 67, 87
1, 298830, Note_off_c, 0, 74, 59
1, 298839, Note_on_c, 0, 78, 55
1, 298839, Control_c, 0, 64, 48
1, 298839, Control_c, 0, 67, 82
1, 298854, Control_c, 0, 64, 56
1, 298854, Control_c, 0, 67, 75
1, 298869, Control_c, 0, 64, 59
1, 298869, Control_c, 0, 67, 68
1, 298890, Control_c, 0, 64, 61
1, 298890, Control_c, 0, 67, 59
1, 298905, Control_c, 0, 64, 64
1, 298905, Control_c, 0, 67, 51
1, 298921, Control_c, 0, 64, 67
1, 298921, Control_c, 0, 67, 43
1, 298936, Control_c, 0, 64, 71
1, 298936, Control_c, 0, 67, 36
1, 298951, Control_c, 0, 64, 78
1, 298951, Control_c, 0, 67, 29
1, 298966, Control_c, 0, 64, 86
1, 298966, Control_c, 0, 67, 21
1, 298981, Control_c, 0, 64, 94
1, 298981, Control_c, 0, 67, 11
1, 298995, Control_c, 0, 64, 103
1, 298995, Control_c, 0, 67, 8
1, 299010, Control_c, 0, 64, 118
1, 299010, Control_c, 0, 67, 0
1, 299013, Note_off_c, 0, 64, 35
1, 299025, Control_c, 0, 64, 127
1, 299030, Note_off_c, 0, 59, 37
1, 299033, Note_on_c, 0, 76, 54
1, 299070, Note_off_c, 0, 52, 33
1, 299076, Note_off_c, 0, 78, 32
1, 299124, Note_off_c, 0, 68, 33
1, 299188, Control_c, 0, 67, 8
1, 299198, Note_off_c, 0, 76, 50
1, 299203, Control_c, 0, 67, 10
1, 299212, Note_on_c, 0, 74, 54
1, 299218, Control_c, 0, 67, 11
1, 299232, Control_c, 0, 67, 13
1, 299245, Note_off_c, 0, 74, 64
1, 299247, Control_c, 0, 67, 15
1, 299262, Control_c, 0, 67, 17
1, 299277, Control_c, 0, 67, 19
1, 299292, Control_c, 0, 67, 21
1, 299306, Control_c, 0, 67, 23
1, 299321, Control_c, 0, 67, 24
1, 299336, Control_c, 0, 67, 25
1, 299351, Control_c, 0, 67, 27
1, 299365, Control_c, 0, 67, 29
1, 299380, Control_c, 0, 67, 32
1, 299395, Control_c, 0, 67, 34
1, 299410, Control_c, 0, 67, 38
1, 299425, Control_c, 0, 67, 41
1, 299439, Control_c, 0, 67, 45
1, 299454, Control_c, 0, 67, 48
1, 299469, Control_c, 0, 67, 51
1, 299484, Control_c, 0, 67, 54
1, 299499, Control_c, 0, 67, 56
1, 299513, Control_c, 0, 67, 59
1, 299520, Note_on_c, 0, 73, 43
1, 299528, Control_c, 0, 67, 62
1, 299543, Control_c, 0, 64, 105
1, 299543, Control_c, 0, 67, 64
1, 299549, Note_on_c, 0, 69, 34
1, 299549, Note_on_c, 0, 64, 32
1, 299558, Control_c, 0, 64, 83
1, 299558, Control_c, 0, 67, 67
1, 299560, Note_on_c, 0, 45, 31
1, 299573, Control_c, 0, 64, 68
1, 299573, Control_c, 0, 67, 71
1, 299575, Note_on_c, 0, 52, 30
1, 299576, Note_on_c, 0, 57, 31
1, 299588, Control_c, 0, 64, 54
1, 299588, Control_c, 0, 67, 74
1, 299602, Control_c, 0, 64, 32
1, 299602, Control_c, 0, 67, 77
1, 299617, Control_c, 0, 64, 0
1, 299617, Control_c, 0, 67, 79
1, 299639, Control_c, 0, 67, 81
1, 299654, Control_c, 0, 67, 83
1, 299669, Control_c, 0, 67, 85
1, 299684, Control_c, 0, 67, 88
1, 299699, Control_c, 0, 67, 90
1, 299715, Control_c, 0, 67, 92
1, 299730, Control_c, 0, 67, 93
1, 299744, Control_c, 0, 67, 95
1, 299759, Control_c, 0, 67, 96
1, 299774, Control_c, 0, 64, 24
1, 299774, Control_c, 0, 67, 97
1, 299788, Control_c, 0, 64, 47
1, 299788, Control_c, 0, 67, 98
1, 299803, Control_c, 0, 64, 59
1, 299818, Control_c, 0, 64, 64
1, 299818, Control_c, 0, 67, 98
1, 299833, Control_c, 0, 64, 67
1, 299848, Control_c, 0, 64, 70
1, 299862, Control_c, 0, 64, 76
1, 299877, Control_c, 0, 64, 83
1, 299892, Control_c, 0, 64, 88
1, 299907, Control_c, 0, 64, 94
1, 299922, Control_c, 0, 64, 99
1, 299936, Control_c, 0, 64, 106
1, 299951, Control_c, 0, 64, 115
1, 299966, Control_c, 0, 64, 127
1, 299990, Note_off_c, 0, 45, 46
1, 300011, Note_off_c, 0, 57, 32
1, 300037, Note_off_c, 0, 64, 36
1, 300041, Note_off_c, 0, 52, 35
1, 300070, Control_c, 0, 67, 99
1, 300090, Note_off_c, 0, 69, 40
1, 300100, Control_c, 0, 67, 99
1, 300110, Note_off_c, 0, 73, 34
1, 300114, Control_c, 0, 67, 100
1, 300129, Control_c, 0, 67, 101
1, 300144, Control_c, 0, 67, 103
1, 300159, Control_c, 0, 67, 105
1, 300174, Control_c, 0, 67, 107
1, 300188, Control_c, 0, 67, 109
1, 300203, Control_c, 0, 67, 110
1, 300218, Control_c, 0, 67, 112
1, 300233, Control_c, 0, 67, 114
1, 300248, Control_c, 0, 67, 116
1, 300262, Control_c, 0, 67, 118
1, 300277, Control_c, 0, 67, 120
1, 300292, Control_c, 0, 67, 122
1, 300306, Control_c, 0, 67, 123
1, 300321, Control_c, 0, 67, 125
1, 300336, Control_c, 0, 67, 127
1, 300351, Control_c, 0, 67, 127
1, 300582, Control_c, 0, 64, 124
1, 300597, Control_c, 0, 64, 118
1, 300611, Control_c, 0, 64, 113
1, 300626, Control_c, 0, 64, 109
1, 300641, Control_c, 0, 64, 105
1, 300656, Control_c, 0, 64, 101
1, 300671, Control_c, 0, 64, 96
1, 300685, Control_c, 0, 64, 92
1, 300700, Control_c, 0, 64, 87
1, 300715, Control_c, 0, 64, 79
1, 300729, Control_c, 0, 64, 69
1, 300744, Control_c, 0, 64, 58
1, 300759, Control_c, 0, 64, 41
1, 300774, Control_c, 0, 64, 0
1, 300863, Control_c, 0, 64, 13
1, 300878, Control_c, 0, 64, 40
1, 300893, Control_c, 0, 64, 54
1, 300908, Control_c, 0, 64, 59
1, 300917, Note_on_c, 0, 45, 33
1, 300923, Control_c, 0, 64, 60
1, 300937, Control_c, 0, 64, 62
1, 300952, Control_c, 0, 64, 64
1, 300967, Control_c, 0, 64, 66
1, 300982, Control_c, 0, 64, 69
1, 300997, Control_c, 0, 64, 72
1, 301009, Note_off_c, 0, 45, 49
1, 301010, Note_on_c, 0, 64, 31
1, 301011, Control_c, 0, 64, 77
1, 301026, Control_c, 0, 64, 81
1, 301041, Control_c, 0, 64, 85
1, 301056, Control_c, 0, 64, 88
1, 301071, Control_c, 0, 64, 92
1, 301085, Control_c, 0, 64, 96
1, 301100, Control_c, 0, 64, 100
1, 301108, Note_on_c, 0, 69, 31
1, 301115, Control_c, 0, 64, 103
1, 301137, Control_c, 0, 64, 107
1, 301152, Control_c, 0, 64, 111
1, 301167, Control_c, 0, 64, 117
1, 301182, Control_c, 0, 64, 127
1, 301241, Note_off_c, 0, 64, 41
1, 301266, Note_on_c, 0, 76, 43
1, 301325, Note_on_c, 0, 61, 35
1, 301327, Note_off_c, 0, 69, 37
1, 301343, Note_off_c, 0, 76, 57
1, 301775, Note_on_c, 0, 78, 47
1, 301845, Note_off_c, 0, 61, 41
1, 301946, Note_on_c, 0, 76, 51
1, 301962, Note_off_c, 0, 78, 55
1, 301988, Note_off_c, 0, 76, 57
1, 302094, Note_on_c, 0, 76, 56
1, 302124, Control_c, 0, 64, 112
1, 302139, Control_c, 0, 64, 93
1, 302154, Control_c, 0, 64, 77
1, 302169, Control_c, 0, 64, 64
1, 302183, Control_c, 0, 64, 54
1, 302198, Control_c, 0, 64, 57
1, 302213, Control_c, 0, 64, 65
1, 302227, Note_on_c, 0, 81, 58
1, 302228, Control_c, 0, 64, 73
1, 302243, Control_c, 0, 64, 83
1, 302245, Note_on_c, 0, 45, 50
1, 302257, Control_c, 0, 64, 92
1, 302272, Control_c, 0, 64, 96
1, 302275, Note_off_c, 0, 81, 61
1, 302287, Control_c, 0, 64, 100
1, 302301, Control_c, 0, 64, 106
1, 302309, Note_off_c, 0, 45, 59
1, 302316, Note_off_c, 0, 76, 33
1, 302316, Control_c, 0, 64, 115
1, 302331, Control_c, 0, 64, 127
1, 302359, Note_on_c, 0, 59, 42
1, 302384, Note_off_c, 0, 59, 60
1, 302473, Note_on_c, 0, 80, 51
1, 302491, Note_on_c, 0, 68, 44
1, 302554, Note_on_c, 0, 64, 44
1, 302593, Note_off_c, 0, 64, 63
1, 303059, Note_on_c, 0, 76, 45
1, 303078, Note_off_c, 0, 80, 59
1, 303108, Note_off_c, 0, 76, 60
1, 303508, Note_on_c, 0, 76, 45
1, 303549, Note_off_c, 0, 68, 50
1, 303617, Note_off_c, 0, 76, 31
1, 303864, Note_on_c, 0, 45, 37
1, 303913, Note_on_c, 0, 64, 38
1, 303978, Note_on_c, 0, 69, 40
1, 303993, Control_c, 0, 64, 106
1, 304008, Control_c, 0, 64, 83
1, 304022, Control_c, 0, 64, 63
1, 304037, Control_c, 0, 64, 39
1, 304047, Note_on_c, 0, 74, 50
1, 304052, Control_c, 0, 64, 0
1, 304067, Control_c, 0, 64, 12
1, 304081, Control_c, 0, 64, 37
1, 304096, Control_c, 0, 64, 57
1, 304097, Note_on_c, 0, 54, 36
1, 304111, Control_c, 0, 64, 68
1, 304119, Note_off_c, 0, 64, 33
1, 304133, Note_off_c, 0, 69, 60
1, 304133, Control_c, 0, 64, 77
1, 304148, Control_c, 0, 64, 85
1, 304163, Control_c, 0, 64, 92
1, 304178, Control_c, 0, 64, 99
1, 304184, Note_off_c, 0, 74, 60
1, 304193, Control_c, 0, 64, 108
1, 304208, Control_c, 0, 64, 127
1, 304339, Note_off_c, 0, 45, 49
1, 304406, Note_off_c, 0, 54, 34
1, 304430, Note_on_c, 0, 76, 54
1, 304483, Note_on_c, 0, 74, 57
1, 304488, Note_off_c, 0, 76, 52
1, 304652, Note_on_c, 0, 73, 64
1, 304664, Note_off_c, 0, 74, 61
1, 304805, Note_on_c, 0, 74, 64
1, 304832, Note_off_c, 0, 73, 58
1, 304953, Note_off_c, 0, 74, 60
1, 304959, Note_on_c, 0, 78, 64
1, 304992, Note_off_c, 0, 78, 60
1, 305043, Note_on_c, 0, 45, 47
1, 305221, Control_c, 0, 64, 106
1, 305227, Note_on_c, 0, 78, 50
1, 305236, Control_c, 0, 64, 83
1, 305240, Note_on_c, 0, 69, 41
1, 305245, Note_on_c, 0, 64, 33
1, 305251, Control_c, 0, 64, 63
1, 305266, Control_c, 0, 64, 37
1, 305281, Control_c, 0, 64, 0
1, 305302, Note_on_c, 0, 61, 34
1, 305749, Control_c, 0, 64, 37
1, 305764, Control_c, 0, 64, 56
1, 305779, Note_on_c, 0, 73, 44
1, 305779, Control_c, 0, 64, 61
1, 305794, Control_c, 0, 64, 64
1, 305808, Control_c, 0, 64, 67
1, 305813, Note_off_c, 0, 78, 58
1, 305823, Control_c, 0, 64, 70
1, 305838, Control_c, 0, 64, 76
1, 305852, Control_c, 0, 64, 83
1, 305856, Note_off_c, 0, 69, 0
1, 305867, Control_c, 0, 64, 92
1, 305868, Note_off_c, 0, 73, 57
1, 305882, Control_c, 0, 64, 99
1, 305893, Poly_aftertouch_c, 0, 69, 127
1, 305897, Control_c, 0, 64, 106
1, 305912, Control_c, 0, 64, 118
1, 305926, Control_c, 0, 64, 127
1, 305938, Note_off_c, 0, 45, 33
1, 305952, Note_off_c, 0, 61, 34
1, 306287, Note_on_c, 0, 73, 42
1, 306345, Note_off_c, 0, 64, 37
1, 306360, Poly_aftertouch_c, 0, 69, 0
1, 306376, Note_off_c, 0, 73, 49
1, 306757, Note_on_c, 0, 42, 39
1, 306793, Control_c, 0, 64, 98
1, 306798, Note_on_c, 0, 64, 37
1, 306807, Control_c, 0, 64, 80
1, 306822, Control_c, 0, 64, 66
1, 306837, Control_c, 0, 64, 55
1, 306852, Control_c, 0, 64, 52
1, 306855, Note_on_c, 0, 69, 35
1, 306867, Control_c, 0, 64, 58
1, 306882, Control_c, 0, 64, 65
1, 306897, Control_c, 0, 64, 71
1, 306912, Note_on_c, 0, 74, 50
1, 306912, Control_c, 0, 64, 78
1, 306927, Control_c, 0, 64, 85
1, 306942, Control_c, 0, 64, 90
1, 306957, Control_c, 0, 64, 95
1, 306960, Note_on_c, 0, 57, 43
1, 306967, Note_off_c, 0, 69, 56
1, 306969, Note_off_c, 0, 64, 33
1, 306971, Control_c, 0, 64, 102
1, 306986, Control_c, 0, 64, 110
1, 307001, Control_c, 0, 64, 122
1, 307007, Note_off_c, 0, 74, 63
1, 307016, Control_c, 0, 64, 127
1, 307137, Note_off_c, 0, 42, 41
1, 307150, Note_off_c, 0, 57, 32
1, 307342, Note_on_c, 0, 76, 54
1, 307514, Note_on_c, 0, 74, 57
1, 307527, Note_off_c, 0, 76, 54
1, 307551, Note_off_c, 0, 74, 61
1, 307666, Note_on_c, 0, 74, 65
1, 307706, Control_c, 0, 64, 100
1, 307720, Control_c, 0, 64, 75
1, 307735, Control_c, 0, 64, 57
1, 307750, Control_c, 0, 64, 37
1, 307765, Control_c, 0, 64, 37
1, 307780, Control_c, 0, 64, 46
1, 307794, Control_c, 0, 64, 62
1, 307807, Note_on_c, 0, 78, 62
1, 307807, Note_off_c, 0, 74, 61
1, 307809, Control_c, 0, 64, 73
1, 307824, Control_c, 0, 64, 83
1, 307833, Note_on_c, 0, 40, 48
1, 307839, Control_c, 0, 64, 94
1, 307854, Control_c, 0, 64, 98
1, 307871, Note_off_c, 0, 40, 62
1, 307876, Control_c, 0, 64, 100
1, 307877, Note_off_c, 0, 78, 53
1, 307891, Control_c, 0, 64, 104
1, 307906, Control_c, 0, 64, 111
1, 307920, Control_c, 0, 64, 127
1, 308015, Note_on_c, 0, 78, 58
1, 308050, Note_on_c, 0, 69, 45
1, 308056, Note_on_c, 0, 64, 41
1, 308071, Note_on_c, 0, 61, 48
1, 308110, Note_off_c, 0, 61, 64
1, 308370, Note_off_c, 0, 64, 38
1, 308401, Note_off_c, 0, 69, 55
1, 308420, Note_on_c, 0, 73, 53
1, 308457, Note_off_c, 0, 78, 59
1, 308470, Note_off_c, 0, 73, 58
1, 308818, Note_on_c, 0, 73, 52
1, 308855, Note_off_c, 0, 73, 61
1, 309125, Note_on_c, 0, 74, 47
1, 309159, Note_off_c, 0, 74, 64
1, 309200, Note_on_c, 0, 76, 43
1, 309217, Control_c, 0, 64, 106
1, 309232, Control_c, 0, 64, 87
1, 309247, Control_c, 0, 64, 71
1, 309258, Note_on_c, 0, 74, 49
1, 309261, Control_c, 0, 64, 56
1, 309270, Note_on_c, 0, 68, 35
1, 309276, Control_c, 0, 64, 26
1, 309280, Note_off_c, 0, 76, 43
1, 309292, Control_c, 0, 64, 0
1, 309296, Note_on_c, 0, 52, 27
1, 309299, Note_on_c, 0, 64, 29
1, 309308, Note_on_c, 0, 59, 29
1, 309315, Note_off_c, 0, 74, 62
1, 309571, Note_on_c, 0, 73, 50
1, 309633, Note_off_c, 0, 73, 50
1, 309787, Note_on_c, 0, 74, 55
1, 309833, Note_off_c, 0, 74, 61
1, 309878, Control_c, 0, 64, 34
1, 309892, Control_c, 0, 64, 52
1, 309907, Control_c, 0, 64, 61
1, 309922, Control_c, 0, 64, 64
1, 309936, Control_c, 0, 64, 66
1, 309951, Control_c, 0, 64, 70
1, 309956, Note_on_c, 0, 78, 52
1, 309966, Control_c, 0, 64, 75
1, 309981, Control_c, 0, 64, 82
1, 309996, Control_c, 0, 64, 89
1, 310010, Control_c, 0, 64, 94
1, 310025, Control_c, 0, 64, 100
1, 310040, Control_c, 0, 64, 105
1, 310042, Note_off_c, 0, 64, 49
1, 310055, Control_c, 0, 64, 111
1, 310070, Control_c, 0, 64, 118
1, 310080, Note_off_c, 0, 59, 54
1, 310085, Note_off_c, 0, 78, 43
1, 310086, Control_c, 0, 64, 127
1, 310119, Note_off_c, 0, 52, 57
1, 310137, Note_on_c, 0, 76, 55
1, 310159, Note_off_c, 0, 68, 39
1, 310240, Note_off_c, 0, 76, 29
1, 310293, Note_on_c, 0, 74, 55
1, 310315, Note_off_c, 0, 74, 65
1, 310552, Control_c, 0, 64, 101
1, 310566, Note_on_c, 0, 73, 38
1, 310566, Control_c, 0, 64, 84
1, 310581, Control_c, 0, 64, 69
1, 310587, Note_on_c, 0, 64, 34
1, 310591, Note_on_c, 0, 45, 30
1, 310592, Note_on_c, 0, 69, 32
1, 310596, Control_c, 0, 64, 53
1, 310599, Note_on_c, 0, 57, 22
1, 310611, Note_on_c, 0, 52, 14
1, 310611, Control_c, 0, 64, 30
1, 310626, Control_c, 0, 64, 0
1, 310685, Control_c, 0, 64, 8
1, 310700, Control_c, 0, 64, 31
1, 310715, Control_c, 0, 64, 49
1, 310730, Control_c, 0, 64, 61
1, 310745, Control_c, 0, 64, 65
1, 310759, Control_c, 0, 64, 67
1, 310774, Control_c, 0, 64, 70
1, 310789, Control_c, 0, 64, 75
1, 310804, Control_c, 0, 64, 81
1, 310819, Control_c, 0, 64, 87
1, 310827, Note_off_c, 0, 57, 39
1, 310833, Control_c, 0, 64, 94
1, 310848, Control_c, 0, 64, 101
1, 310870, Control_c, 0, 64, 107
1, 310885, Control_c, 0, 64, 113
1, 310901, Control_c, 0, 64, 121
1, 310916, Control_c, 0, 64, 127
1, 310923, Note_off_c, 0, 45, 57
1, 310924, Note_off_c, 0, 52, 45
1, 310975, Note_off_c, 0, 64, 38
1, 311015, Note_off_c, 0, 69, 42
1, 311041, Note_off_c, 0, 73, 35
1, 311109, Control_c, 0, 67, 123
1, 311124, Control_c, 0, 67, 119
1, 311138, Control_c, 0, 67, 115
1, 311153, Control_c, 0, 67, 111
1, 311168, Control_c, 0, 67, 107
1, 311183, Control_c, 0, 67, 101
1, 311197, Control_c, 0, 67, 95
1, 311212, Control_c, 0, 67, 90
1, 311227, Control_c, 0, 67, 84
1, 311242, Control_c, 0, 67, 77
1, 311257, Control_c, 0, 67, 71
1, 311271, Control_c, 0, 67, 64
1, 311286, Control_c, 0, 67, 56
1, 311301, Control_c, 0, 67, 49
1, 311315, Control_c, 0, 67, 42
1, 311330, Control_c, 0, 67, 35
1, 311345, Control_c, 0, 67, 26
1, 311360, Control_c, 0, 67, 17
1, 311375, Control_c, 0, 67, 10
1, 311389, Control_c, 0, 64, 110
1, 311389, Control_c, 0, 67, 10
1, 311404, Control_c, 0, 64, 96
1, 311404, Control_c, 0, 67, 9
1, 311419, Control_c, 0, 64, 82
1, 311419, Control_c, 0, 67, 8
1, 311434, Control_c, 0, 64, 69
1, 311434, Control_c, 0, 67, 0
1, 311449, Control_c, 0, 64, 53
1, 311463, Control_c, 0, 64, 38
1, 311478, Control_c, 0, 64, 24
1, 311493, Control_c, 0, 64, 0
1, 311836, Note_on_c, 0, 64, 56
1, 311842, Control_c, 0, 64, 30
1, 311857, Control_c, 0, 64, 46
1, 311863, Note_on_c, 0, 61, 36
1, 311872, Control_c, 0, 64, 56
1, 311874, Note_on_c, 0, 45, 33
1, 311887, Control_c, 0, 64, 60
1, 311887, Note_on_c, 0, 52, 26
1, 311902, Control_c, 0, 64, 62
1, 311917, Control_c, 0, 64, 64
1, 311931, Control_c, 0, 64, 67
1, 311946, Control_c, 0, 64, 72
1, 311961, Control_c, 0, 64, 80
1, 311976, Control_c, 0, 64, 88
1, 311991, Control_c, 0, 64, 96
1, 312006, Control_c, 0, 64, 105
1, 312020, Control_c, 0, 64, 127
1, 312136, Note_off_c, 0, 64, 34
1, 312309, Note_on_c, 0, 66, 52
1, 312471, Note_on_c, 0, 64, 65
1, 312499, Note_off_c, 0, 66, 60
1, 312539, Note_off_c, 0, 64, 59
1, 312542, Note_off_c, 0, 45, 58
1, 312557, Note_off_c, 0, 52, 56
1, 312591, Control_c, 0, 64, 109
1, 312606, Control_c, 0, 64, 87
1, 312620, Note_on_c, 0, 64, 59
1, 312621, Control_c, 0, 64, 81
1, 312665, Control_c, 0, 64, 84
1, 312680, Control_c, 0, 64, 96
1, 312695, Control_c, 0, 64, 115
1, 312710, Control_c, 0, 64, 127
1, 312752, Note_on_c, 0, 73, 69
1, 312793, Note_off_c, 0, 64, 24
1, 312805, Note_off_c, 0, 61, 51
1, 312822, Note_off_c, 0, 73, 61
1, 312932, Control_c, 0, 64, 107
1, 312942, Note_on_c, 0, 71, 66
1, 312947, Control_c, 0, 64, 84
1, 312953, Note_on_c, 0, 62, 53
1, 312961, Note_on_c, 0, 44, 43
1, 312961, Control_c, 0, 64, 67
1, 312976, Control_c, 0, 64, 45
1, 312984, Note_on_c, 0, 52, 33
1, 312991, Control_c, 0, 64, 0
1, 313377, Note_on_c, 0, 64, 47
1, 313411, Note_off_c, 0, 71, 57
1, 313479, Note_off_c, 0, 64, 59
1, 313756, Control_c, 0, 64, 28
1, 313771, Control_c, 0, 64, 49
1, 313777, Note_on_c, 0, 64, 42
1, 313785, Control_c, 0, 64, 58
1, 313800, Control_c, 0, 64, 63
1, 313802, Note_off_c, 0, 62, 48
1, 313815, Control_c, 0, 64, 65
1, 313830, Note_off_c, 0, 52, 57
1, 313830, Control_c, 0, 64, 69
1, 313845, Control_c, 0, 64, 73
1, 313855, Note_off_c, 0, 64, 52
1, 313866, Note_off_c, 0, 44, 32
1, 313866, Control_c, 0, 64, 80
1, 313881, Control_c, 0, 64, 88
1, 313896, Control_c, 0, 64, 95
1, 313911, Control_c, 0, 64, 102
1, 313926, Control_c, 0, 64, 111
1, 313941, Control_c, 0, 64, 127
1, 314208, Control_c, 0, 64, 115
1, 314211, Note_on_c, 0, 64, 50
1, 314223, Control_c, 0, 64, 88
1, 314227, Note_on_c, 0, 61, 45
1, 314238, Control_c, 0, 64, 72
1, 314243, Note_on_c, 0, 45, 40
1, 314246, Note_on_c, 0, 52, 34
1, 314253, Control_c, 0, 64, 59
1, 314268, Control_c, 0, 64, 40
1, 314283, Control_c, 0, 64, 16
1, 314297, Control_c, 0, 64, 0
1, 314356, Control_c, 0, 64, 15
1, 314371, Control_c, 0, 64, 43
1, 314386, Control_c, 0, 64, 60
1, 314401, Control_c, 0, 64, 67
1, 314415, Control_c, 0, 64, 69
1, 314430, Control_c, 0, 64, 72
1, 314445, Control_c, 0, 64, 78
1, 314459, Control_c, 0, 64, 87
1, 314465, Note_off_c, 0, 64, 54
1, 314474, Control_c, 0, 64, 97
1, 314489, Control_c, 0, 64, 107
1, 314504, Control_c, 0, 64, 127
1, 314698, Note_on_c, 0, 66, 42
1, 314783, Note_off_c, 0, 45, 54
1, 314798, Note_off_c, 0, 52, 56
1, 314880, Note_off_c, 0, 66, 54
1, 314880, Note_on_c, 0, 64, 44
1, 314912, Control_c, 0, 67, 8
1, 314923, Note_off_c, 0, 64, 62
1, 314927, Control_c, 0, 67, 12
1, 314942, Control_c, 0, 67, 15
1, 314956, Control_c, 0, 67, 17
1, 314971, Control_c, 0, 67, 19
1, 314986, Control_c, 0, 67, 21
1, 315001, Control_c, 0, 67, 23
1, 315016, Control_c, 0, 67, 26
1, 315030, Control_c, 0, 67, 28
1, 315038, Note_on_c, 0, 64, 51
1, 315045, Control_c, 0, 67, 31
1, 315060, Control_c, 0, 67, 35
1, 315075, Control_c, 0, 67, 40
1, 315089, Control_c, 0, 67, 45
1, 315098, Note_off_c, 0, 64, 52
1, 315104, Control_c, 0, 67, 50
1, 315119, Control_c, 0, 67, 56
1, 315134, Control_c, 0, 67, 63
1, 315149, Control_c, 0, 67, 69
1, 315163, Control_c, 0, 67, 75
1, 315178, Control_c, 0, 67, 80
1, 315193, Control_c, 0, 67, 85
1, 315208, Control_c, 0, 67, 90
1, 315214, Note_on_c, 0, 73, 49
1, 315223, Control_c, 0, 67, 95
1, 315237, Control_c, 0, 67, 100
1, 315252, Control_c, 0, 67, 106
1, 315267, Control_c, 0, 67, 111
1, 315282, Control_c, 0, 67, 117
1, 315287, Note_off_c, 0, 61, 37
1, 315297, Control_c, 0, 67, 123
1, 315307, Note_off_c, 0, 73, 36
1, 315312, Control_c, 0, 67, 127
1, 315493, Note_on_c, 0, 69, 46
1, 315502, Note_on_c, 0, 61, 35
1, 315512, Control_c, 0, 64, 118
1, 315522, Note_on_c, 0, 57, 33
1, 315526, Control_c, 0, 64, 85
1, 315529, Note_on_c, 0, 42, 33
1, 315541, Control_c, 0, 64, 69
1, 315556, Control_c, 0, 64, 56
1, 315571, Control_c, 0, 64, 37
1, 315586, Control_c, 0, 64, 9
1, 315601, Control_c, 0, 64, 0
1, 316081, Note_on_c, 0, 66, 33
1, 316117, Note_off_c, 0, 69, 35
1, 316142, Control_c, 0, 64, 32
1, 316157, Control_c, 0, 64, 52
1, 316172, Control_c, 0, 64, 60
1, 316186, Control_c, 0, 64, 62
1, 316201, Control_c, 0, 64, 63
1, 316216, Control_c, 0, 64, 65
1, 316231, Control_c, 0, 64, 68
1, 316245, Control_c, 0, 64, 72
1, 316260, Note_off_c, 0, 66, 35
1, 316260, Control_c, 0, 64, 76
1, 316275, Control_c, 0, 64, 79
1, 316290, Control_c, 0, 64, 81
1, 316305, Control_c, 0, 64, 84
1, 316319, Control_c, 0, 64, 85
1, 316334, Control_c, 0, 64, 87
1, 316349, Control_c, 0, 64, 88
1, 316364, Control_c, 0, 64, 88
1, 316409, Control_c, 0, 64, 89
1, 316632, Control_c, 0, 64, 88
1, 316647, Control_c, 0, 64, 87
1, 316661, Control_c, 0, 64, 83
1, 316676, Control_c, 0, 64, 77
1, 316691, Control_c, 0, 64, 69
1, 316706, Control_c, 0, 64, 59
1, 316721, Control_c, 0, 64, 48
1, 316735, Control_c, 0, 64, 46
1, 316749, Note_on_c, 0, 66, 35
1, 316750, Control_c, 0, 64, 51
1, 316765, Control_c, 0, 64, 58
1, 316780, Control_c, 0, 64, 64
1, 316795, Control_c, 0, 64, 67
1, 316809, Control_c, 0, 64, 71
1, 316824, Control_c, 0, 64, 75
1, 316839, Control_c, 0, 64, 81
1, 316861, Control_c, 0, 64, 86
1, 316876, Control_c, 0, 64, 89
1, 316891, Control_c, 0, 64, 92
1, 316895, Note_off_c, 0, 66, 46
1, 316906, Control_c, 0, 64, 96
1, 316911, Note_off_c, 0, 61, 34
1, 316921, Control_c, 0, 64, 100
1, 316935, Control_c, 0, 64, 103
1, 316939, Note_off_c, 0, 57, 35
1, 316950, Control_c, 0, 64, 104
1, 316953, Note_off_c, 0, 42, 49
1, 316965, Control_c, 0, 64, 105
1, 317009, Control_c, 0, 67, 125
1, 317024, Control_c, 0, 67, 121
1, 317039, Control_c, 0, 67, 115
1, 317054, Control_c, 0, 67, 106
1, 317068, Control_c, 0, 67, 97
1, 317083, Control_c, 0, 67, 86
1, 317098, Control_c, 0, 64, 103
1, 317098, Control_c, 0, 67, 78
1, 317113, Control_c, 0, 64, 97
1, 317113, Control_c, 0, 67, 71
1, 317128, Control_c, 0, 64, 86
1, 317128, Control_c, 0, 67, 64
1, 317142, Control_c, 0, 64, 73
1, 317142, Control_c, 0, 67, 56
1, 317157, Control_c, 0, 64, 59
1, 317157, Control_c, 0, 67, 48
1, 317172, Control_c, 0, 64, 46
1, 317172, Control_c, 0, 67, 38
1, 317187, Control_c, 0, 64, 35
1, 317187, Control_c, 0, 67, 23
1, 317202, Control_c, 0, 64, 27
1, 317202, Control_c, 0, 67, 13
1, 317217, Control_c, 0, 64, 19
1, 317217, Control_c, 0, 67, 12
1, 317232, Control_c, 0, 64, 0
1, 317337, Control_c, 0, 67, 12
1, 317351, Control_c, 0, 67, 13
1, 317366, Control_c, 0, 67, 14
1, 317381, Control_c, 0, 67, 15
1, 317396, Control_c, 0, 67, 16
1, 317411, Control_c, 0, 67, 17
1, 317425, Control_c, 0, 67, 19
1, 317440, Control_c, 0, 67, 20
1, 317455, Control_c, 0, 67, 23
1, 317470, Control_c, 0, 67, 25
1, 317485, Control_c, 0, 67, 27
1, 317500, Control_c, 0, 67, 28
1, 317515, Control_c, 0, 67, 29
1, 317530, Control_c, 0, 67, 31
1, 317545, Control_c, 0, 67, 34
1, 317559, Control_c, 0, 67, 39
1, 317574, Control_c, 0, 67, 44
1, 317589, Control_c, 0, 67, 49
1, 317610, Control_c, 0, 67, 53
1, 317625, Control_c, 0, 67, 56
1, 317640, Control_c, 0, 67, 61
1, 317655, Control_c, 0, 67, 67
1, 317670, Control_c, 0, 67, 73
1, 317685, Control_c, 0, 67, 79
1, 317700, Control_c, 0, 67, 82
1, 317714, Control_c, 0, 67, 86
1, 317729, Control_c, 0, 67, 91
1, 317744, Control_c, 0, 67, 95
1, 317759, Control_c, 0, 67, 99
1, 317774, Control_c, 0, 67, 101
1, 317789, Control_c, 0, 67, 104
1, 317803, Control_c, 0, 67, 106
1, 317818, Control_c, 0, 67, 110
1, 317833, Control_c, 0, 67, 115
1, 317848, Control_c, 0, 67, 120
1, 317863, Control_c, 0, 67, 125
1, 317877, Control_c, 0, 64, 21
1, 317877, Control_c, 0, 67, 127
1, 317892, Control_c, 0, 64, 29
1, 317907, Control_c, 0, 64, 35
1, 317922, Control_c, 0, 64, 39
1, 317937, Control_c, 0, 64, 43
1, 317952, Control_c, 0, 64, 47
1, 317966, Control_c, 0, 64, 50
1, 317981, Control_c, 0, 64, 53
1, 317996, Control_c, 0, 64, 54
1, 318010, Control_c, 0, 64, 57
1, 318025, Control_c, 0, 64, 59
1, 318030, Note_on_c, 0, 64, 41
1, 318033, Note_on_c, 0, 61, 30
1, 318040, Control_c, 0, 64, 61
1, 318052, Note_on_c, 0, 52, 15
1, 318055, Control_c, 0, 64, 63
1, 318057, Note_on_c, 0, 45, 34
1, 318070, Control_c, 0, 64, 65
1, 318086, Control_c, 0, 64, 67
1, 318100, Control_c, 0, 64, 70
1, 318115, Control_c, 0, 64, 74
1, 318130, Control_c, 0, 64, 78
1, 318145, Control_c, 0, 64, 82
1, 318156, Note_off_c, 0, 64, 56
1, 318160, Control_c, 0, 64, 86
1, 318174, Control_c, 0, 64, 91
1, 318189, Control_c, 0, 64, 94
1, 318204, Control_c, 0, 64, 97
1, 318219, Control_c, 0, 64, 99
1, 318230, Note_off_c, 0, 52, 59
1, 318233, Control_c, 0, 64, 100
1, 318243, Note_off_c, 0, 45, 58
1, 318248, Control_c, 0, 64, 101
1, 318263, Control_c, 0, 64, 103
1, 318278, Control_c, 0, 64, 103
1, 318293, Control_c, 0, 64, 104
1, 318514, Note_on_c, 0, 66, 40
1, 318671, Note_on_c, 0, 64, 45
1, 318694, Note_off_c, 0, 66, 34
1, 318704, Note_off_c, 0, 64, 65
1, 318714, Control_c, 0, 64, 104
1, 318729, Control_c, 0, 64, 103
1, 318758, Control_c, 0, 64, 102
1, 318773, Control_c, 0, 64, 101
1, 318788, Control_c, 0, 64, 100
1, 318803, Control_c, 0, 64, 98
1, 318805, Note_on_c, 0, 64, 57
1, 318818, Control_c, 0, 64, 95
1, 318832, Control_c, 0, 64, 90
1, 318833, Note_off_c, 0, 64, 67
1, 318847, Control_c, 0, 64, 83
1, 318862, Control_c, 0, 64, 75
1, 318878, Control_c, 0, 64, 67
1, 318893, Control_c, 0, 64, 55
1, 318908, Control_c, 0, 64, 42
1, 318923, Control_c, 0, 64, 29
1, 318937, Control_c, 0, 64, 20
1, 318949, Note_on_c, 0, 73, 54
1, 318952, Control_c, 0, 64, 0
1, 318981, Note_off_c, 0, 61, 37
1, 318984, Note_off_c, 0, 73, 62
1, 319113, Note_on_c, 0, 76, 58
1, 319123, Control_c, 0, 64, 42
1, 319130, Note_on_c, 0, 64, 47
1, 319133, Note_on_c, 0, 37, 41
1, 319136, Note_on_c, 0, 69, 41
1, 319137, Control_c, 0, 64, 59
1, 319139, Note_on_c, 0, 49, 37
1, 319146, Note_off_c, 0, 76, 61
1, 319152, Control_c, 0, 64, 65
1, 319162, Note_off_c, 0, 69, 60
1, 319163, Note_off_c, 0, 64, 65
1, 319167, Control_c, 0, 64, 70
1, 319175, Note_off_c, 0, 37, 63
1, 319181, Note_off_c, 0, 49, 64
1, 319181, Control_c, 0, 64, 76
1, 319196, Control_c, 0, 64, 86
1, 319211, Control_c, 0, 64, 96
1, 319226, Control_c, 0, 64, 104
1, 319241, Control_c, 0, 64, 115
1, 319256, Control_c, 0, 64, 127
1, 319419, Control_c, 0, 64, 92
1, 319425, Note_on_c, 0, 69, 47
1, 319434, Control_c, 0, 64, 73
1, 319436, Note_on_c, 0, 42, 50
1, 319437, Note_on_c, 0, 61, 51
1, 319441, Note_on_c, 0, 66, 48
1, 319448, Control_c, 0, 64, 55
1, 319449, Note_on_c, 0, 54, 44
1, 319463, Control_c, 0, 64, 0
1, 319466, Note_off_c, 0, 66, 60
1, 319474, Note_off_c, 0, 69, 58
1, 319476, Note_off_c, 0, 42, 60
1, 319479, Note_off_c, 0, 61, 57
1, 319479, Note_off_c, 0, 54, 57
1, 319753, Note_on_c, 0, 42, 38
1, 319762, Note_on_c, 0, 69, 43
1, 319767, Note_on_c, 0, 54, 30
1, 319773, Note_on_c, 0, 66, 37
1, 319778, Note_on_c, 0, 61, 31
1, 319804, Note_off_c, 0, 54, 61
1, 319808, Note_off_c, 0, 69, 63
1, 319819, Note_off_c, 0, 66, 58
1, 319834, Note_off_c, 0, 61, 56
1, 319840, Note_off_c, 0, 42, 62
1, 320093, Control_c, 0, 64, 25
1, 320108, Control_c, 0, 64, 48
1, 320120, Note_on_c, 0, 74, 49
1, 320123, Control_c, 0, 64, 57
1, 320137, Note_on_c, 0, 66, 39
1, 320138, Control_c, 0, 64, 60
1, 320147, Note_on_c, 0, 62, 34
1, 320150, Note_on_c, 0, 47, 34
1, 320150, Note_on_c, 0, 35, 32
1, 320153, Control_c, 0, 64, 63
1, 320168, Control_c, 0, 64, 67
1, 320175, Note_off_c, 0, 74, 53
1, 320180, Note_off_c, 0, 66, 65
1, 320183, Note_off_c, 0, 62, 64
1, 320183, Control_c, 0, 64, 72
1, 320198, Control_c, 0, 64, 80
1, 320202, Note_off_c, 0, 35, 51
1, 320205, Note_off_c, 0, 47, 53
1, 320212, Control_c, 0, 64, 92
1, 320227, Control_c, 0, 64, 101
1, 320242, Control_c, 0, 64, 111
1, 320257, Control_c, 0, 64, 127
1, 320510, Control_c, 0, 64, 109
1, 320525, Control_c, 0, 64, 84
1, 320540, Control_c, 0, 64, 66
1, 320546, Note_on_c, 0, 68, 46
1, 320555, Control_c, 0, 64, 49
1, 320562, Note_on_c, 0, 62, 37
1, 320564, Note_on_c, 0, 40, 28
1, 320569, Control_c, 0, 64, 34
1, 320570, Note_on_c, 0, 59, 23
1, 320577, Note_on_c, 0, 52, 16
1, 320584, Control_c, 0, 64, 12
1, 320606, Control_c, 0, 64, 0
1, 320619, Note_off_c, 0, 62, 61
1, 320630, Note_off_c, 0, 59, 59
1, 320631, Note_off_c, 0, 68, 57
1, 320639, Note_off_c, 0, 52, 62
1, 320644, Note_off_c, 0, 40, 59
1, 321035, Control_c, 0, 64, 21
1, 321050, Note_on_c, 0, 68, 38
1, 321050, Control_c, 0, 64, 45
1, 321057, Note_on_c, 0, 59, 14
1, 321065, Note_on_c, 0, 62, 27
1, 321065, Control_c, 0, 64, 56
1, 321080, Note_on_c, 0, 52, 19
1, 321080, Control_c, 0, 64, 61
1, 321083, Note_on_c, 0, 40, 25
1, 321095, Control_c, 0, 64, 63
1, 321110, Control_c, 0, 64, 66
1, 321125, Control_c, 0, 64, 70
1, 321129, Note_off_c, 0, 62, 53
1, 321140, Control_c, 0, 64, 76
1, 321143, Note_off_c, 0, 40, 62
1, 321145, Note_off_c, 0, 52, 61
1, 321154, Control_c, 0, 64, 84
1, 321169, Control_c, 0, 64, 91
1, 321172, Note_off_c, 0, 68, 0
1, 321184, Control_c, 0, 64, 99
1, 321199, Control_c, 0, 64, 107
1, 321207, Note_off_c, 0, 59, 32
1, 321214, Control_c, 0, 64, 124
1, 321218, Poly_aftertouch_c, 0, 68, 0
1, 321228, Control_c, 0, 64, 127
1, 321813, Control_c, 0, 64, 96
1, 321822, Note_on_c, 0, 69, 38
1, 321828, Control_c, 0, 64, 78
1, 321833, Note_on_c, 0, 45, 34
1, 321835, Note_on_c, 0, 61, 39
1, 321843, Control_c, 0, 64, 62
1, 321843, Note_on_c, 0, 52, 36
1, 321857, Control_c, 0, 64, 47
1, 321872, Control_c, 0, 64, 28
1, 321887, Control_c, 0, 64, 0
1, 322020, Control_c, 0, 64, 40
1, 322035, Control_c, 0, 64, 57
1, 322049, Note_off_c, 0, 61, 40
1, 322049, Control_c, 0, 64, 63
1, 322065, Control_c, 0, 64, 65
1, 322080, Control_c, 0, 64, 67
1, 322102, Control_c, 0, 64, 70
1, 322117, Control_c, 0, 64, 73
1, 322132, Control_c, 0, 64, 75
1, 322147, Control_c, 0, 64, 78
1, 322162, Control_c, 0, 64, 79
1, 322162, Note_off_c, 0, 69, 0
1, 322168, Note_on_c, 0, 64, 29
1, 322177, Control_c, 0, 64, 81
1, 322192, Control_c, 0, 64, 82
1, 322206, Control_c, 0, 64, 82
1, 322214, Poly_aftertouch_c, 0, 69, 0
1, 322236, Control_c, 0, 64, 83
1, 322322, Note_off_c, 0, 64, 39
1, 322343, Note_on_c, 0, 62, 41
1, 322400, Note_off_c, 0, 62, 48
1, 322468, Note_on_c, 0, 61, 43
1, 322546, Control_c, 0, 64, 82
1, 322561, Control_c, 0, 64, 81
1, 322576, Control_c, 0, 64, 80
1, 322579, Note_on_c, 0, 64, 51
1, 322591, Control_c, 0, 64, 77
1, 322606, Control_c, 0, 64, 72
1, 322619, Note_off_c, 0, 61, 35
1, 322621, Control_c, 0, 64, 64
1, 322636, Note_off_c, 0, 64, 49
1, 322636, Control_c, 0, 64, 52
1, 322651, Control_c, 0, 64, 34
1, 322660, Note_on_c, 0, 68, 50
1, 322666, Control_c, 0, 64, 0
1, 322736, Note_off_c, 0, 68, 57
1, 322748, Note_on_c, 0, 66, 51
1, 322783, Note_off_c, 0, 66, 65
1, 322784, Control_c, 0, 64, 10
1, 322798, Control_c, 0, 64, 40
1, 322813, Control_c, 0, 64, 52
1, 322824, Note_on_c, 0, 64, 44
1, 322828, Control_c, 0, 64, 57
1, 322851, Control_c, 0, 64, 59
1, 322865, Control_c, 0, 64, 61
1, 322873, Note_off_c, 0, 64, 49
1, 322881, Control_c, 0, 64, 63
1, 322895, Control_c, 0, 64, 64
1, 322910, Control_c, 0, 64, 67
1, 322916, Note_on_c, 0, 69, 53
1, 322925, Control_c, 0, 64, 69
1, 322940, Control_c, 0, 64, 72
1, 322955, Control_c, 0, 64, 76
1, 322970, Note_on_c, 0, 73, 51
1, 322970, Control_c, 0, 64, 81
1, 322973, Note_off_c, 0, 69, 55
1, 322985, Control_c, 0, 64, 85
1, 323000, Control_c, 0, 64, 89
1, 323014, Control_c, 0, 64, 93
1, 323029, Control_c, 0, 64, 97
1, 323044, Control_c, 0, 64, 101
1, 323046, Note_on_c, 0, 71, 56
1, 323053, Note_off_c, 0, 73, 50
1, 323059, Control_c, 0, 64, 107
1, 323074, Control_c, 0, 64, 114
1, 323074, Note_off_c, 0, 71, 67
1, 323087, Note_off_c, 0, 52, 60
1, 323089, Control_c, 0, 64, 127
1, 323092, Note_off_c, 0, 45, 62
1, 323117, Note_on_c, 0, 69, 55
1, 323163, Note_off_c, 0, 69, 55
1, 323183, Note_on_c, 0, 73, 62
1, 323256, Note_off_c, 0, 73, 61
1, 323289, Note_on_c, 0, 77, 31
1, 323293, Note_on_c, 0, 76, 28
1, 323315, Note_on_c, 0, 74, 55
1, 323325, Note_off_c, 0, 77, 43
1, 323329, Note_off_c, 0, 76, 39
1, 323336, Note_off_c, 0, 74, 64
1, 323372, Note_on_c, 0, 73, 68
1, 323422, Note_off_c, 0, 73, 58
1, 323426, Note_on_c, 0, 57, 49
1, 323438, Note_on_c, 0, 76, 59
1, 323485, Note_off_c, 0, 57, 53
1, 323488, Control_c, 0, 64, 102
1, 323497, Note_on_c, 0, 80, 65
1, 323500, Note_off_c, 0, 76, 61
1, 323503, Control_c, 0, 64, 78
1, 323505, Note_on_c, 0, 64, 57
1, 323518, Control_c, 0, 64, 66
1, 323533, Control_c, 0, 64, 64
1, 323548, Control_c, 0, 64, 69
1, 323563, Control_c, 0, 64, 76
1, 323572, Note_on_c, 0, 78, 65
1, 323576, Note_off_c, 0, 80, 61
1, 323578, Control_c, 0, 64, 86
1, 323599, Note_on_c, 0, 73, 57
1, 323600, Control_c, 0, 64, 100
1, 323608, Note_off_c, 0, 78, 66
1, 323615, Control_c, 0, 64, 118
1, 323622, Note_off_c, 0, 64, 61
1, 323623, Note_off_c, 0, 73, 69
1, 323629, Control_c, 0, 64, 127
1, 323642, Note_on_c, 0, 76, 64
1, 323675, Note_off_c, 0, 76, 48
1, 323709, Note_on_c, 0, 81, 63
1, 323749, Note_on_c, 0, 85, 63
1, 323772, Note_off_c, 0, 81, 58
1, 323822, Note_on_c, 0, 83, 62
1, 323834, Note_off_c, 0, 85, 61
1, 323852, Note_off_c, 0, 83, 64
1, 323890, Note_on_c, 0, 81, 71
1, 323930, Note_off_c, 0, 81, 47
1, 323950, Note_on_c, 0, 85, 71
1, 323995, Note_on_c, 0, 88, 66
1, 324011, Note_off_c, 0, 85, 61
1, 324043, Note_off_c, 0, 88, 64
1, 324045, Note_on_c, 0, 86, 68
1, 324070, Note_off_c, 0, 86, 68
1, 324108, Note_on_c, 0, 85, 78
1, 324138, Note_off_c, 0, 85, 59
1, 324173, Note_on_c, 0, 88, 66
1, 324221, Note_on_c, 0, 92, 74
1, 324234, Note_off_c, 0, 88, 62
1, 324287, Note_on_c, 0, 90, 77
1, 324299, Note_off_c, 0, 92, 62
1, 324333, Note_off_c, 0, 90, 65
1, 324358, Note_on_c, 0, 88, 79
1, 324418, Note_off_c, 0, 88, 64
1, 324432, Note_on_c, 0, 93, 72
1, 324492, Note_off_c, 0, 93, 66
1, 324498, Note_on_c, 0, 97, 73
1, 324589, Note_off_c, 0, 97, 65
1, 324592, Note_on_c, 0, 100, 70
1, 324684, Note_on_c, 0, 98, 63
1, 324694, Note_off_c, 0, 100, 63
1, 324791, Note_off_c, 0, 98, 61
1, 324794, Note_on_c, 0, 88, 60
1, 324803, Note_on_c, 0, 97, 61
1, 324808, Note_on_c, 0, 69, 46
1, 324821, Note_on_c, 0, 76, 50
1, 324831, Note_on_c, 0, 81, 29
1, 324831, Note_off_c, 0, 69, 62
1, 324842, Note_off_c, 0, 88, 60
1, 324847, Note_off_c, 0, 76, 64
1, 324856, Note_off_c, 0, 81, 48
1, 324862, Note_off_c, 0, 97, 57
1, 324906, Note_on_c, 0, 100, 54
1, 324999, Note_on_c, 0, 98, 56
1, 325006, Note_off_c, 0, 100, 59
1, 325086, Note_off_c, 0, 98, 63
1, 325107, Note_on_c, 0, 97, 49
1, 325135, Note_on_c, 0, 88, 42
1, 325140, Note_on_c, 0, 81, 40
1, 325143, Note_on_c, 0, 93, 33
1, 325150, Note_off_c, 0, 97, 56
1, 325179, Note_off_c, 0, 93, 48
1, 325191, Note_off_c, 0, 81, 55
1, 325208, Note_on_c, 0, 100, 52
1, 325269, Note_off_c, 0, 88, 36
1, 325283, Note_on_c, 0, 90, 22
1, 325289, Note_on_c, 0, 98, 55
1, 325319, Note_off_c, 0, 100, 34
1, 325323, Note_off_c, 0, 90, 52
1, 325345, Note_off_c, 0, 98, 64
1, 325356, Note_on_c, 0, 97, 52
1, 325363, Note_on_c, 0, 88, 40
1, 325369, Note_on_c, 0, 81, 27
1, 325380, Note_on_c, 0, 93, 38
1, 325408, Note_off_c, 0, 93, 45
1, 325410, Note_off_c, 0, 81, 50
1, 325416, Note_off_c, 0, 97, 61
1, 325418, Note_on_c, 0, 100, 54
1, 325447, Note_off_c, 0, 88, 53
1, 325464, Note_on_c, 0, 90, 36
1, 325489, Note_on_c, 0, 98, 62
1, 325510, Note_off_c, 0, 100, 64
1, 325539, Note_off_c, 0, 90, 58
1, 325545, Note_on_c, 0, 81, 47
1, 325545, Note_on_c, 0, 97, 66
1, 325552, Note_off_c, 0, 98, 64
1, 325571, Note_on_c, 0, 93, 46
1, 325572, Note_on_c, 0, 88, 34
1, 325602, Note_off_c, 0, 93, 51
1, 325606, Note_off_c, 0, 81, 58
1, 325609, Note_off_c, 0, 97, 62
1, 325617, Note_on_c, 0, 100, 65
1, 325653, Note_off_c, 0, 88, 36
1, 325670, Note_on_c, 0, 98, 68
1, 325673, Note_on_c, 0, 90, 44
1, 325697, Note_off_c, 0, 100, 65
1, 325708, Note_off_c, 0, 90, 56
1, 325727, Note_on_c, 0, 97, 68
1, 325733, Note_off_c, 0, 98, 65
1, 325734, Note_on_c, 0, 81, 54
1, 325736, Note_on_c, 0, 88, 42
1, 325755, Note_on_c, 0, 93, 53
1, 325783, Note_off_c, 0, 81, 57
1, 325787, Note_on_c, 0, 100, 69
1, 325787, Note_off_c, 0, 97, 62
1, 325796, Note_off_c, 0, 93, 58
1, 325808, Note_off_c, 0, 88, 61
1, 325810, Note_on_c, 0, 90, 51
1, 325851, Note_on_c, 0, 98, 71
1, 325882, Note_off_c, 0, 100, 66
1, 325905, Note_on_c, 0, 97, 79
1, 325914, Note_off_c, 0, 90, 51
1, 325915, Note_off_c, 0, 98, 65
1, 325917, Note_on_c, 0, 81, 60
1, 325922, Note_on_c, 0, 88, 62
1, 325924, Note_on_c, 0, 93, 58
1, 325969, Note_off_c, 0, 97, 64
1, 325974, Note_on_c, 0, 100, 73
1, 325975, Note_off_c, 0, 81, 61
1, 325980, Note_off_c, 0, 93, 57
1, 325999, Note_off_c, 0, 88, 61
1, 326018, Note_on_c, 0, 90, 51
1, 326027, Note_on_c, 0, 98, 69
1, 326068, Note_off_c, 0, 100, 65
1, 326081, Note_on_c, 0, 97, 76
1, 326088, Note_off_c, 0, 90, 60
1, 326093, Note_off_c, 0, 98, 65
1, 326096, Note_on_c, 0, 88, 55
1, 326103, Note_on_c, 0, 81, 60
1, 326112, Note_on_c, 0, 93, 55
1, 326136, Note_off_c, 0, 81, 61
1, 326139, Note_off_c, 0, 93, 52
1, 326144, Note_off_c, 0, 97, 62
1, 326149, Note_on_c, 0, 100, 71
1, 326164, Note_off_c, 0, 88, 60
1, 326207, Note_on_c, 0, 90, 47
1, 326210, Note_on_c, 0, 98, 66
1, 326225, Note_off_c, 0, 100, 61
1, 326255, Note_off_c, 0, 90, 58
1, 326268, Note_on_c, 0, 97, 70
1, 326270, Note_off_c, 0, 98, 65
1, 326280, Note_on_c, 0, 88, 55
1, 326282, Note_on_c, 0, 81, 48
1, 326314, Note_off_c, 0, 97, 57
1, 326320, Note_on_c, 0, 93, 6
1, 326329, Note_off_c, 0, 81, 58
1, 326334, Note_on_c, 0, 100, 66
1, 326350, Note_off_c, 0, 88, 55
1, 326365, Note_off_c, 0, 93, 28
1, 326377, Note_on_c, 0, 90, 51
1, 326397, Note_on_c, 0, 98, 63
1, 326423, Note_off_c, 0, 100, 61
1, 326432, Note_off_c, 0, 90, 55
1, 326460, Note_off_c, 0, 98, 64
1, 326462, Note_on_c, 0, 97, 54
1, 326470, Note_on_c, 0, 81, 33
1, 326481, Note_on_c, 0, 93, 43
1, 326484, Note_on_c, 0, 88, 39
1, 326511, Note_off_c, 0, 81, 49
1, 326518, Note_off_c, 0, 93, 54
1, 326520, Note_off_c, 0, 97, 64
1, 326529, Note_on_c, 0, 100, 56
1, 326533, Note_off_c, 0, 88, 56
1, 326559, Note_on_c, 0, 90, 43
1, 326606, Note_on_c, 0, 98, 55
1, 326627, Note_off_c, 0, 100, 62
1, 326630, Note_off_c, 0, 90, 41
1, 326666, Note_on_c, 0, 81, 39
1, 326671, Note_off_c, 0, 98, 65
1, 326673, Note_on_c, 0, 97, 57
1, 326674, Note_on_c, 0, 88, 42
1, 326702, Note_on_c, 0, 93, 25
1, 326720, Note_off_c, 0, 97, 54
1, 326733, Note_off_c, 0, 81, 55
1, 326736, Note_off_c, 0, 93, 38
1, 326741, Note_on_c, 0, 100, 52
1, 326777, Note_off_c, 0, 88, 35
1, 326784, Note_on_c, 0, 90, 32
1, 326818, Note_on_c, 0, 98, 58
1, 326832, Note_off_c, 0, 100, 63
1, 326857, Note_off_c, 0, 90, 54
1, 326887, Note_off_c, 0, 98, 63
1, 326894, Note_on_c, 0, 81, 40
1, 326903, Note_on_c, 0, 97, 43
1, 326922, Note_on_c, 0, 88, 31
1, 326939, Note_on_c, 0, 93, 14
1, 326952, Note_off_c, 0, 97, 59
1, 326970, Note_on_c, 0, 100, 51
1, 326978, Note_off_c, 0, 81, 58
1, 326985, Note_off_c, 0, 93, 36
1, 326991, Note_off_c, 0, 88, 38
1, 327019, Note_on_c, 0, 90, 40
1, 327065, Note_on_c, 0, 98, 56
1, 327102, Note_off_c, 0, 100, 47
1, 327106, Note_off_c, 0, 90, 49
1, 327131, Note_off_c, 0, 98, 63
1, 327140, Note_on_c, 0, 81, 37
1, 327140, Note_on_c, 0, 97, 58
1, 327170, Note_on_c, 0, 88, 24
1, 327172, Note_on_c, 0, 93, 33
1, 327232, Note_on_c, 0, 100, 51
1, 327232, Note_off_c, 0, 81, 52
1, 327235, Note_off_c, 0, 93, 36
1, 327253, Note_off_c, 0, 97, 34
1, 327282, Note_off_c, 0, 88, 37
1, 327310, Note_on_c, 0, 90, 29
1, 327349, Note_on_c, 0, 98, 55
1, 327357, Note_off_c, 0, 100, 55
1, 327379, Note_off_c, 0, 90, 46
1, 327432, Note_off_c, 0, 98, 50
1, 327514, Note_on_c, 0, 97, 31
1, 327523, Note_on_c, 0, 93, 39
1, 327539, Note_on_c, 0, 81, 33
1, 327546, Note_on_c, 0, 88, 33
1, 327569, Note_off_c, 0, 93, 63
1, 327588, Note_off_c, 0, 97, 60
1, 327626, Note_off_c, 0, 88, 56
1, 327692, Note_off_c, 0, 81, 28
1, 328290, Note_on_c, 0, 52, 38
1, 328350, Note_off_c, 0, 52, 53
1, 328383, Note_on_c, 0, 57, 38
1, 328461, Note_on_c, 0, 64, 40
1, 328478, Note_on_c, 0, 69, 42
1, 328487, Note_off_c, 0, 64, 58
1, 328511, Note_off_c, 0, 69, 52
1, 328532, Note_off_c, 0, 57, 33
1, 328548, Note_on_c, 0, 76, 53
1, 328625, Note_off_c, 0, 76, 57
1, 328628, Note_on_c, 0, 85, 58
1, 328663, Note_off_c, 0, 85, 59
1, 329526, Note_on_c, 0, 33, 29
1, 329639, Note_on_c, 0, 85, 42
1, 329712, Note_off_c, 0, 33, 25
1, 329727, Note_on_c, 0, 40, 33
1, 329742, Note_on_c, 0, 93, 36
1, 329756, Note_off_c, 0, 85, 33
1, 329833, Note_off_c, 0, 40, 49
1, 329902, Note_off_c, 0, 93, 32
1, 329927, Note_on_c, 0, 100, 48
1, 329964, Note_on_c, 0, 45, 27
1, 330007, Note_off_c, 0, 100, 62
1, 330039, Note_off_c, 0, 45, 49
1, 330562, Control_c, 0, 67, 125
1, 330577, Control_c, 0, 67, 123
1, 330591, Control_c, 0, 67, 120
1, 330606, Control_c, 0, 67, 118
1, 330621, Control_c, 0, 67, 115
1, 330636, Control_c, 0, 67, 111
1, 330651, Control_c, 0, 67, 108
1, 330665, Control_c, 0, 67, 106
1, 330680, Control_c, 0, 67, 102
1, 330695, Control_c, 0, 67, 98
1, 330710, Control_c, 0, 67, 93
1, 330725, Control_c, 0, 67, 88
1, 330739, Control_c, 0, 67, 82
1, 330754, Control_c, 0, 67, 76
1, 330769, Control_c, 0, 67, 69
1, 330783, Control_c, 0, 67, 61
1, 330798, Control_c, 0, 67, 56
1, 330813, Control_c, 0, 67, 50
1, 330828, Control_c, 0, 67, 45
1, 330843, Control_c, 0, 67, 39
1, 330859, Control_c, 0, 67, 34
1, 330874, Control_c, 0, 67, 29
1, 330888, Control_c, 0, 67, 23
1, 330903, Control_c, 0, 67, 17
1, 330918, Control_c, 0, 67, 13
1, 330933, Control_c, 0, 67, 13
1, 330948, Control_c, 0, 67, 12
1, 330962, Control_c, 0, 67, 11
1, 330977, Control_c, 0, 67, 10
1, 330992, Control_c, 0, 67, 10
1, 331006, Control_c, 0, 64, 118
1, 331006, Control_c, 0, 67, 9
1, 331021, Control_c, 0, 64, 110
1, 331021, Control_c, 0, 67, 8
1, 331036, Control_c, 0, 64, 105
1, 331036, Control_c, 0, 67, 8
1, 331051, Control_c, 0, 64, 102
1, 331066, Control_c, 0, 64, 98
1, 331066, Control_c, 0, 67, 0
1, 331088, Control_c, 0, 64, 95
1, 331103, Control_c, 0, 64, 90
1, 331118, Control_c, 0, 64, 86
1, 331133, Control_c, 0, 64, 81
1, 331148, Control_c, 0, 64, 75
1, 331162, Control_c, 0, 64, 69
1, 331177, Control_c, 0, 64, 63
1, 331192, Control_c, 0, 64, 56
1, 331207, Control_c, 0, 64, 50
1, 331221, Control_c, 0, 64, 45
1, 331236, Control_c, 0, 64, 42
1, 331251, Control_c, 0, 64, 39
1, 331266, Control_c, 0, 64, 35
1, 331281, Control_c, 0, 64, 27
1, 331295, Control_c, 0, 64, 8
1, 331310, Control_c, 0, 64, 0
1, 331385, End_track
0, 0, End_of_file
