0, 0, Header, 0, 1, 384
1, 0, Start_track
1, 0, Title_t, "Etude Op. 10/8--Irina Georgieva "
1, 0, Text_t, "2009 Piano-e-Competition audition round"
1, 0, Text_t, "captured January 2009"
1, 0, Text_t, "http://www.piano-e-competition.com/"
1, 0, Text_t, "File processed for distribution by software from Zenph Studios, Inc., http://www.zenph.com"
1, 0, Instrument_name_t, "Yamaha Disklavier Pro Mark IV concert grand piano, model DCFIIISM4PRO"
1, 0, Sequencer_specific, 39, 67, 113, 0, 1, 0, 1, 0, 69, 116, 117, 100, 101, 32, 79, 112, 46, 32, 49, 48, 47, 56, 32, 32, 73, 114, 105, 110, 97, 32, 71, 101, 111, 114, 103, 105, 101, 118, 97, 32
1, 0, Sequencer_specific, 6, 67, 113, 0, 0, 0, 69
1, 0, System_exclusive, 21, 67, 113, 126, 21, 0, 2, 2, 0, 3, 14, 1, 4, 1, 13, 13, 10, 11, 9, 2, 7, 247
1, 0, Sequencer_specific, 5, 67, 123, 12, 2, 1
1, 0, Tempo, 512820
1, 0, Time_signature, 4, 2, 24, 8
1, 0, System_exclusive, 5, 126, 127, 9, 1, 247
1, 1, System_exclusive, 8, 67, 16, 76, 0, 0, 126, 0, 247
1, 2, System_exclusive, 8, 67, 16, 76, 8, 9, 7, 1, 247
1, 3, Control_c, 0, 0, 0
1, 3, Control_c, 1, 0, 0
1, 3, Control_c, 2, 0, 0
1, 3, Control_c, 3, 0, 0
1, 3, Control_c, 4, 0, 0
1, 3, Control_c, 5, 0, 0
1, 3, Control_c, 6, 0, 0
1, 3, Control_c, 7, 0, 0
1, 3, Control_c, 8, 0, 0
1, 3, Control_c, 9, 0, 127
1, 3, Control_c, 10, 0, 0
1, 3, Control_c, 11, 0, 0
1, 3, Control_c, 12, 0, 0
1, 3, Control_c, 13, 0, 0
1, 3, Control_c, 14, 0, 0
1, 3, Control_c, 15, 0, 0
1, 4, Control_c, 0, 32, 0
1, 4, Control_c, 1, 32, 0
1, 4, Control_c, 2, 32, 0
1, 4, Control_c, 3, 32, 0
1, 4, Control_c, 4, 32, 0
1, 4, Control_c, 5, 32, 0
1, 4, Control_c, 6, 32, 0
1, 4, Control_c, 7, 32, 0
1, 4, Control_c, 8, 32, 0
1, 4, Control_c, 9, 32, 0
1, 4, Control_c, 10, 32, 0
1, 4, Control_c, 11, 32, 0
1, 4, Control_c, 12, 32, 0
1, 4, Control_c, 13, 32, 0
1, 4, Control_c, 14, 32, 0
1, 4, Control_c, 15, 32, 0
1, 5, Program_c, 0, 0
1, 5, Program_c, 1, 0
1, 5, Program_c, 2, 0
1, 5, Program_c, 3, 0
1, 5, Program_c, 4, 0
1, 5, Program_c, 5, 0
1, 5, Program_c, 6, 0
1, 5, Program_c, 7, 0
1, 5, Program_c, 8, 0
1, 5, Program_c, 9, 0
1, 5, Program_c, 10, 0
1, 5, Program_c, 11, 0
1, 5, Program_c, 12, 0
1, 5, Program_c, 13, 0
1, 5, Program_c, 14, 0
1, 5, Program_c, 15, 0
1, 6, Control_c, 0, 7, 100
1, 6, Control_c, 1, 7, 100
1, 6, Control_c, 2, 7, 100
1, 6, Control_c, 3, 7, 100
1, 6, Control_c, 4, 7, 100
1, 6, Control_c, 5, 7, 100
1, 6, Control_c, 6, 7, 100
1, 6, Control_c, 7, 7, 100
1, 6, Control_c, 8, 7, 100
1, 6, Control_c, 9, 7, 100
1, 6, Control_c, 10, 7, 100
1, 6, Control_c, 11, 7, 100
1, 6, Control_c, 12, 7, 100
1, 6, Control_c, 13, 7, 100
1, 6, Control_c, 14, 7, 100
1, 6, Control_c, 15, 7, 100
1, 1123, Control_c, 0, 64, 40
1, 1130, Note_on_c, 0, 84, 71
1, 1145, Control_c, 0, 64, 56
1, 1160, Control_c, 0, 64, 63
1, 1174, Control_c, 0, 64, 68
1, 1186, Note_off_c, 0, 84, 62
1, 1189, Control_c, 0, 64, 73
1, 1194, Note_on_c, 0, 86, 68
1, 1204, Control_c, 0, 64, 78
1, 1219, Control_c, 0, 64, 83
1, 1234, Control_c, 0, 64, 89
1, 1248, Control_c, 0, 64, 96
1, 1252, Note_on_c, 0, 84, 69
1, 1254, Note_off_c, 0, 86, 60
1, 1263, Control_c, 0, 64, 104
1, 1278, Control_c, 0, 64, 122
1, 1290, Note_off_c, 0, 84, 61
1, 1293, Note_on_c, 0, 86, 48
1, 1293, Control_c, 0, 64, 127
1, 1325, Note_off_c, 0, 86, 58
1, 1361, Poly_aftertouch_c, 0, 84, 0
1, 1393, Note_on_c, 0, 86, 75
1, 1429, Note_on_c, 0, 84, 82
1, 1452, Note_off_c, 0, 86, 64
1, 1474, Note_off_c, 0, 84, 68
1, 1477, Note_on_c, 0, 83, 74
1, 1516, Note_off_c, 0, 83, 60
1, 1547, Note_on_c, 0, 84, 81
1, 1634, Note_off_c, 0, 84, 64
1, 1643, Note_on_c, 0, 93, 75
1, 1645, Note_on_c, 0, 48, 66
1, 1648, Note_on_c, 0, 41, 65
1, 1650, Control_c, 0, 64, 98
1, 1664, Control_c, 0, 64, 67
1, 1679, Control_c, 0, 64, 47
1, 1694, Control_c, 0, 64, 37
1, 1695, Note_on_c, 0, 91, 75
1, 1709, Control_c, 0, 64, 43
1, 1723, Control_c, 0, 64, 55
1, 1728, Note_off_c, 0, 93, 61
1, 1738, Control_c, 0, 64, 63
1, 1753, Note_on_c, 0, 89, 66
1, 1753, Control_c, 0, 64, 71
1, 1761, Note_off_c, 0, 91, 65
1, 1768, Control_c, 0, 64, 83
1, 1783, Control_c, 0, 64, 101
1, 1789, Note_off_c, 0, 89, 65
1, 1796, Note_on_c, 0, 84, 71
1, 1797, Control_c, 0, 64, 127
1, 1820, Note_off_c, 0, 84, 68
1, 1874, Note_on_c, 0, 81, 70
1, 1927, Note_on_c, 0, 79, 63
1, 1951, Note_off_c, 0, 81, 36
1, 1980, Note_on_c, 0, 77, 62
1, 1986, Note_off_c, 0, 79, 64
1, 2007, Note_off_c, 0, 48, 58
1, 2012, Note_off_c, 0, 77, 68
1, 2026, Note_on_c, 0, 72, 58
1, 2059, Note_off_c, 0, 72, 64
1, 2061, Note_on_c, 0, 47, 68
1, 2086, Control_c, 0, 64, 90
1, 2089, Note_on_c, 0, 48, 73
1, 2101, Control_c, 0, 64, 70
1, 2105, Note_on_c, 0, 69, 71
1, 2108, Note_off_c, 0, 47, 63
1, 2117, Control_c, 0, 64, 53
1, 2121, Note_off_c, 0, 48, 66
1, 2127, Note_off_c, 0, 41, 62
1, 2132, Control_c, 0, 64, 30
1, 2146, Control_c, 0, 64, 0
1, 2150, Note_off_c, 0, 69, 64
1, 2153, Note_on_c, 0, 67, 67
1, 2196, Note_on_c, 0, 65, 57
1, 2212, Note_off_c, 0, 67, 63
1, 2235, Note_off_c, 0, 65, 65
1, 2249, Note_on_c, 0, 60, 64
1, 2284, Note_off_c, 0, 60, 64
1, 2302, Note_on_c, 0, 48, 58
1, 2326, Note_off_c, 0, 48, 65
1, 2348, Note_on_c, 0, 57, 29
1, 2375, Note_on_c, 0, 55, 48
1, 2376, Note_off_c, 0, 57, 0
1, 2391, Poly_aftertouch_c, 0, 57, 0
1, 2410, Note_off_c, 0, 55, 64
1, 2422, Note_on_c, 0, 53, 52
1, 2455, Note_off_c, 0, 53, 64
1, 2468, Note_on_c, 0, 48, 56
1, 2487, Control_c, 0, 64, 10
1, 2502, Control_c, 0, 64, 36
1, 2517, Control_c, 0, 64, 52
1, 2518, Note_off_c, 0, 48, 64
1, 2521, Note_on_c, 0, 41, 63
1, 2529, Note_on_c, 0, 29, 55
1, 2532, Control_c, 0, 64, 59
1, 2533, Note_on_c, 0, 53, 65
1, 2546, Control_c, 0, 64, 62
1, 2556, Note_off_c, 0, 29, 56
1, 2559, Note_off_c, 0, 41, 65
1, 2561, Control_c, 0, 64, 63
1, 2575, Note_off_c, 0, 53, 62
1, 2576, Control_c, 0, 64, 64
1, 2591, Control_c, 0, 64, 65
1, 2601, Note_on_c, 0, 55, 55
1, 2606, Control_c, 0, 64, 67
1, 2620, Control_c, 0, 64, 69
1, 2625, Note_off_c, 0, 55, 65
1, 2628, Note_on_c, 0, 57, 66
1, 2643, Control_c, 0, 64, 72
1, 2655, Note_off_c, 0, 57, 63
1, 2658, Control_c, 0, 64, 74
1, 2673, Control_c, 0, 64, 77
1, 2688, Control_c, 0, 64, 79
1, 2702, Control_c, 0, 64, 80
1, 2706, Note_on_c, 0, 60, 72
1, 2717, Control_c, 0, 64, 80
1, 2746, Control_c, 0, 64, 77
1, 2761, Control_c, 0, 64, 66
1, 2763, Note_on_c, 0, 50, 75
1, 2765, Note_off_c, 0, 60, 60
1, 2776, Control_c, 0, 64, 52
1, 2778, Note_on_c, 0, 65, 61
1, 2791, Control_c, 0, 64, 27
1, 2806, Control_c, 0, 64, 0
1, 2822, Note_on_c, 0, 67, 68
1, 2835, Control_c, 0, 64, 23
1, 2840, Note_off_c, 0, 65, 57
1, 2850, Control_c, 0, 64, 39
1, 2862, Note_off_c, 0, 67, 65
1, 2864, Control_c, 0, 64, 50
1, 2871, Note_on_c, 0, 69, 67
1, 2879, Control_c, 0, 64, 58
1, 2889, Note_off_c, 0, 69, 67
1, 2894, Control_c, 0, 64, 62
1, 2909, Control_c, 0, 64, 64
1, 2922, Note_on_c, 0, 48, 76
1, 2925, Control_c, 0, 64, 64
1, 2941, Note_on_c, 0, 72, 71
1, 2955, Control_c, 0, 64, 63
1, 2965, Note_off_c, 0, 50, 62
1, 2969, Control_c, 0, 64, 56
1, 2984, Control_c, 0, 64, 35
1, 2999, Control_c, 0, 64, 0
1, 3016, Note_off_c, 0, 72, 61
1, 3025, Note_on_c, 0, 57, 80
1, 3035, Note_on_c, 0, 77, 72
1, 3058, Control_c, 0, 64, 40
1, 3073, Control_c, 0, 64, 55
1, 3086, Note_off_c, 0, 77, 63
1, 3087, Control_c, 0, 64, 62
1, 3102, Control_c, 0, 64, 66
1, 3103, Note_on_c, 0, 79, 71
1, 3116, Note_off_c, 0, 57, 64
1, 3117, Control_c, 0, 64, 70
1, 3132, Control_c, 0, 64, 74
1, 3137, Note_off_c, 0, 79, 67
1, 3140, Note_on_c, 0, 81, 57
1, 3147, Control_c, 0, 64, 79
1, 3157, Note_off_c, 0, 81, 63
1, 3159, Note_off_c, 0, 48, 64
1, 3162, Control_c, 0, 64, 85
1, 3176, Control_c, 0, 64, 93
1, 3191, Control_c, 0, 64, 105
1, 3206, Note_on_c, 0, 84, 76
1, 3206, Control_c, 0, 64, 127
1, 3245, Note_off_c, 0, 84, 51
1, 3279, Note_on_c, 0, 89, 70
1, 3283, Note_on_c, 0, 53, 64
1, 3295, Control_c, 0, 64, 96
1, 3310, Control_c, 0, 64, 67
1, 3325, Control_c, 0, 64, 55
1, 3332, Note_on_c, 0, 91, 71
1, 3340, Control_c, 0, 64, 50
1, 3355, Control_c, 0, 64, 52
1, 3358, Note_off_c, 0, 89, 64
1, 3369, Control_c, 0, 64, 58
1, 3391, Control_c, 0, 64, 64
1, 3398, Note_on_c, 0, 93, 77
1, 3402, Note_off_c, 0, 91, 65
1, 3406, Control_c, 0, 64, 71
1, 3421, Control_c, 0, 64, 82
1, 3436, Control_c, 0, 64, 94
1, 3441, Note_on_c, 0, 45, 60
1, 3451, Control_c, 0, 64, 103
1, 3451, Note_off_c, 0, 53, 59
1, 3452, Note_on_c, 0, 91, 85
1, 3466, Control_c, 0, 64, 108
1, 3481, Control_c, 0, 64, 108
1, 3489, Note_off_c, 0, 93, 64
1, 3495, Control_c, 0, 64, 95
1, 3510, Control_c, 0, 64, 76
1, 3513, Note_on_c, 0, 89, 74
1, 3523, Note_on_c, 0, 48, 69
1, 3524, Note_off_c, 0, 45, 62
1, 3525, Control_c, 0, 64, 58
1, 3535, Note_off_c, 0, 91, 66
1, 3536, Note_on_c, 0, 41, 58
1, 3540, Control_c, 0, 64, 40
1, 3555, Control_c, 0, 64, 28
1, 3565, Note_off_c, 0, 89, 65
1, 3569, Control_c, 0, 64, 27
1, 3576, Note_on_c, 0, 83, 58
1, 3584, Control_c, 0, 64, 37
1, 3596, Note_off_c, 0, 83, 62
1, 3599, Control_c, 0, 64, 51
1, 3614, Control_c, 0, 64, 60
1, 3629, Control_c, 0, 64, 65
1, 3636, Note_on_c, 0, 81, 73
1, 3643, Control_c, 0, 64, 68
1, 3658, Control_c, 0, 64, 68
1, 3680, Note_on_c, 0, 79, 73
1, 3702, Control_c, 0, 64, 69
1, 3723, Note_off_c, 0, 81, 63
1, 3739, Note_on_c, 0, 77, 67
1, 3744, Note_off_c, 0, 79, 66
1, 3771, Note_off_c, 0, 77, 67
1, 3785, Note_on_c, 0, 72, 58
1, 3793, Control_c, 0, 64, 69
1, 3814, Note_off_c, 0, 72, 65
1, 3838, Control_c, 0, 64, 70
1, 3851, Note_on_c, 0, 69, 76
1, 3853, Control_c, 0, 64, 70
1, 3866, Note_off_c, 0, 48, 61
1, 3867, Control_c, 0, 64, 70
1, 3882, Control_c, 0, 64, 68
1, 3897, Control_c, 0, 64, 62
1, 3898, Note_on_c, 0, 67, 71
1, 3904, Note_on_c, 0, 47, 61
1, 3911, Control_c, 0, 64, 52
1, 3926, Control_c, 0, 64, 31
1, 3938, Note_off_c, 0, 69, 64
1, 3941, Control_c, 0, 64, 0
1, 3949, Note_on_c, 0, 65, 63
1, 3957, Note_off_c, 0, 67, 64
1, 3965, Note_on_c, 0, 48, 60
1, 3975, Note_off_c, 0, 47, 63
1, 3981, Note_off_c, 0, 65, 66
1, 3985, Control_c, 0, 64, 17
1, 3994, Note_on_c, 0, 60, 62
1, 3994, Note_off_c, 0, 48, 65
1, 4000, Control_c, 0, 64, 31
1, 4015, Control_c, 0, 64, 42
1, 4026, Note_off_c, 0, 60, 64
1, 4030, Control_c, 0, 64, 48
1, 4045, Control_c, 0, 64, 52
1, 4059, Control_c, 0, 64, 54
1, 4074, Control_c, 0, 64, 55
1, 4083, Note_on_c, 0, 57, 52
1, 4089, Control_c, 0, 64, 54
1, 4104, Control_c, 0, 64, 51
1, 4111, Note_off_c, 0, 57, 64
1, 4118, Control_c, 0, 64, 38
1, 4138, Note_on_c, 0, 55, 53
1, 4141, Control_c, 0, 64, 13
1, 4156, Control_c, 0, 64, 0
1, 4166, Note_on_c, 0, 48, 58
1, 4172, Note_on_c, 0, 53, 65
1, 4174, Note_off_c, 0, 55, 63
1, 4189, Note_off_c, 0, 48, 65
1, 4211, Note_off_c, 0, 41, 64
1, 4215, Control_c, 0, 64, 21
1, 4216, Note_off_c, 0, 53, 60
1, 4230, Control_c, 0, 64, 36
1, 4245, Control_c, 0, 64, 46
1, 4253, Note_on_c, 0, 48, 71
1, 4260, Control_c, 0, 64, 53
1, 4274, Control_c, 0, 64, 57
1, 4279, Note_off_c, 0, 48, 66
1, 4289, Control_c, 0, 64, 58
1, 4304, Control_c, 0, 64, 55
1, 4309, Note_on_c, 0, 53, 63
1, 4318, Control_c, 0, 64, 49
1, 4333, Control_c, 0, 64, 46
1, 4339, Note_off_c, 0, 53, 64
1, 4339, Note_on_c, 0, 57, 68
1, 4348, Control_c, 0, 64, 48
1, 4363, Control_c, 0, 64, 54
1, 4378, Control_c, 0, 64, 59
1, 4393, Control_c, 0, 64, 63
1, 4399, Note_off_c, 0, 57, 62
1, 4402, Note_on_c, 0, 28, 62
1, 4406, Note_on_c, 0, 55, 65
1, 4407, Note_on_c, 0, 40, 63
1, 4408, Control_c, 0, 64, 66
1, 4423, Control_c, 0, 64, 71
1, 4437, Control_c, 0, 64, 74
1, 4437, Note_off_c, 0, 55, 62
1, 4442, Note_off_c, 0, 28, 64
1, 4452, Control_c, 0, 64, 78
1, 4460, Note_on_c, 0, 48, 65
1, 4464, Note_off_c, 0, 40, 62
1, 4467, Control_c, 0, 64, 81
1, 4482, Control_c, 0, 64, 84
1, 4496, Note_off_c, 0, 48, 67
1, 4497, Control_c, 0, 64, 86
1, 4516, Note_on_c, 0, 55, 70
1, 4527, Control_c, 0, 64, 86
1, 4580, Note_off_c, 0, 55, 63
1, 4586, Control_c, 0, 64, 84
1, 4592, Note_on_c, 0, 57, 70
1, 4601, Control_c, 0, 64, 74
1, 4616, Control_c, 0, 64, 62
1, 4629, Note_off_c, 0, 57, 64
1, 4631, Control_c, 0, 64, 40
1, 4632, Note_on_c, 0, 58, 70
1, 4646, Control_c, 0, 64, 0
1, 4646, Note_on_c, 0, 50, 79
1, 4653, Note_off_c, 0, 58, 68
1, 4695, Note_on_c, 0, 60, 75
1, 4720, Control_c, 0, 64, 32
1, 4734, Control_c, 0, 64, 43
1, 4735, Note_off_c, 0, 60, 54
1, 4749, Control_c, 0, 64, 52
1, 4762, Note_on_c, 0, 67, 66
1, 4764, Control_c, 0, 64, 57
1, 4779, Control_c, 0, 64, 59
1, 4794, Control_c, 0, 64, 58
1, 4806, Note_off_c, 0, 50, 66
1, 4809, Note_on_c, 0, 48, 82
1, 4809, Control_c, 0, 64, 52
1, 4818, Note_off_c, 0, 67, 64
1, 4820, Note_on_c, 0, 69, 65
1, 4823, Control_c, 0, 64, 27
1, 4838, Control_c, 0, 64, 0
1, 4875, Note_on_c, 0, 70, 76
1, 4879, Note_off_c, 0, 69, 65
1, 4902, Note_off_c, 0, 70, 68
1, 4902, Note_on_c, 0, 55, 84
1, 4905, Control_c, 0, 64, 30
1, 4920, Control_c, 0, 64, 49
1, 4935, Control_c, 0, 64, 60
1, 4941, Note_on_c, 0, 72, 74
1, 4944, Note_off_c, 0, 48, 64
1, 4949, Control_c, 0, 64, 64
1, 4961, Note_off_c, 0, 55, 65
1, 4964, Control_c, 0, 64, 66
1, 4979, Control_c, 0, 64, 68
1, 4993, Note_off_c, 0, 72, 52
1, 4994, Control_c, 0, 64, 69
1, 5004, Note_on_c, 0, 79, 73
1, 5009, Control_c, 0, 64, 71
1, 5023, Control_c, 0, 64, 74
1, 5038, Control_c, 0, 64, 76
1, 5053, Control_c, 0, 64, 78
1, 5059, Note_off_c, 0, 79, 64
1, 5061, Note_on_c, 0, 81, 72
1, 5067, Control_c, 0, 64, 80
1, 5082, Control_c, 0, 64, 82
1, 5097, Control_c, 0, 64, 85
1, 5105, Note_off_c, 0, 81, 65
1, 5110, Note_on_c, 0, 62, 87
1, 5111, Note_on_c, 0, 82, 77
1, 5112, Control_c, 0, 64, 88
1, 5127, Note_off_c, 0, 82, 67
1, 5127, Control_c, 0, 64, 92
1, 5133, Note_off_c, 0, 62, 70
1, 5141, Control_c, 0, 64, 95
1, 5156, Control_c, 0, 64, 97
1, 5162, Note_on_c, 0, 84, 81
1, 5171, Control_c, 0, 64, 100
1, 5186, Control_c, 0, 64, 102
1, 5189, Note_off_c, 0, 84, 63
1, 5201, Control_c, 0, 64, 104
1, 5215, Control_c, 0, 64, 105
1, 5218, Note_on_c, 0, 91, 76
1, 5230, Control_c, 0, 64, 105
1, 5236, Poly_aftertouch_c, 0, 62, 127
1, 5242, Note_on_c, 0, 40, 64
1, 5245, Control_c, 0, 64, 106
1, 5254, Note_on_c, 0, 48, 76
1, 5266, Note_on_c, 0, 93, 73
1, 5268, Note_off_c, 0, 91, 65
1, 5274, Control_c, 0, 64, 106
1, 5278, Note_off_c, 0, 40, 63
1, 5278, Poly_aftertouch_c, 0, 62, 0
1, 5304, Note_off_c, 0, 48, 64
1, 5304, Control_c, 0, 64, 107
1, 5329, Note_off_c, 0, 93, 60
1, 5350, Control_c, 0, 64, 95
1, 5364, Control_c, 0, 64, 73
1, 5379, Note_on_c, 0, 60, 87
1, 5379, Control_c, 0, 64, 57
1, 5394, Control_c, 0, 64, 36
1, 5409, Control_c, 0, 64, 30
1, 5424, Control_c, 0, 64, 39
1, 5438, Note_on_c, 0, 93, 71
1, 5438, Control_c, 0, 64, 52
1, 5453, Control_c, 0, 64, 62
1, 5468, Control_c, 0, 64, 69
1, 5482, Control_c, 0, 64, 78
1, 5485, Note_on_c, 0, 91, 80
1, 5497, Control_c, 0, 64, 88
1, 5511, Note_off_c, 0, 93, 65
1, 5512, Control_c, 0, 64, 98
1, 5514, Note_off_c, 0, 60, 62
1, 5527, Control_c, 0, 64, 113
1, 5529, Note_off_c, 0, 91, 66
1, 5542, Control_c, 0, 64, 127
1, 5555, Note_on_c, 0, 84, 58
1, 5575, Note_off_c, 0, 84, 66
1, 5617, Note_on_c, 0, 82, 83
1, 5683, Note_off_c, 0, 82, 60
1, 5692, Note_on_c, 0, 81, 61
1, 5720, Note_on_c, 0, 79, 62
1, 5746, Note_off_c, 0, 81, 65
1, 5770, Note_off_c, 0, 79, 64
1, 5781, Note_on_c, 0, 72, 68
1, 5814, Note_off_c, 0, 72, 64
1, 5816, Control_c, 0, 64, 95
1, 5831, Control_c, 0, 64, 73
1, 5838, Note_on_c, 0, 48, 76
1, 5845, Note_on_c, 0, 47, 66
1, 5845, Control_c, 0, 64, 62
1, 5860, Note_on_c, 0, 70, 65
1, 5860, Control_c, 0, 64, 50
1, 5868, Note_off_c, 0, 48, 65
1, 5870, Note_off_c, 0, 47, 68
1, 5875, Control_c, 0, 64, 36
1, 5889, Control_c, 0, 64, 19
1, 5900, Note_on_c, 0, 69, 69
1, 5901, Note_off_c, 0, 70, 59
1, 5904, Control_c, 0, 64, 0
1, 5949, Note_on_c, 0, 67, 61
1, 5959, Note_off_c, 0, 69, 64
1, 5987, Note_off_c, 0, 67, 64
1, 5992, Note_on_c, 0, 60, 67
1, 6033, Note_off_c, 0, 60, 57
1, 6071, Note_on_c, 0, 48, 61
1, 6080, Note_on_c, 0, 58, 66
1, 6095, Note_off_c, 0, 48, 63
1, 6128, Note_off_c, 0, 58, 61
1, 6138, Note_on_c, 0, 57, 66
1, 6175, Note_on_c, 0, 55, 62
1, 6190, Note_off_c, 0, 57, 62
1, 6223, Note_off_c, 0, 55, 63
1, 6232, Control_c, 0, 64, 22
1, 6247, Control_c, 0, 64, 35
1, 6261, Control_c, 0, 64, 45
1, 6264, Note_on_c, 0, 48, 52
1, 6267, Note_on_c, 0, 47, 40
1, 6276, Control_c, 0, 64, 52
1, 6291, Control_c, 0, 64, 57
1, 6293, Note_off_c, 0, 48, 64
1, 6295, Note_on_c, 0, 28, 65
1, 6298, Note_on_c, 0, 40, 60
1, 6300, Note_off_c, 0, 47, 33
1, 6305, Control_c, 0, 64, 60
1, 6312, Note_on_c, 0, 55, 59
1, 6320, Control_c, 0, 64, 62
1, 6330, Note_off_c, 0, 28, 65
1, 6335, Control_c, 0, 64, 64
1, 6343, Note_off_c, 0, 40, 63
1, 6350, Control_c, 0, 64, 66
1, 6365, Control_c, 0, 64, 67
1, 6368, Note_off_c, 0, 55, 57
1, 6372, Note_on_c, 0, 57, 61
1, 6387, Control_c, 0, 64, 70
1, 6402, Control_c, 0, 64, 72
1, 6417, Control_c, 0, 64, 74
1, 6429, Note_off_c, 0, 57, 64
1, 6432, Control_c, 0, 64, 76
1, 6434, Note_on_c, 0, 58, 67
1, 6447, Control_c, 0, 64, 77
1, 6454, Note_off_c, 0, 58, 65
1, 6461, Control_c, 0, 64, 78
1, 6486, Note_on_c, 0, 60, 77
1, 6491, Control_c, 0, 64, 78
1, 6520, Control_c, 0, 64, 78
1, 6535, Control_c, 0, 64, 76
1, 6545, Note_off_c, 0, 60, 58
1, 6550, Control_c, 0, 64, 71
1, 6557, Note_on_c, 0, 50, 79
1, 6558, Note_on_c, 0, 67, 66
1, 6565, Control_c, 0, 64, 64
1, 6580, Control_c, 0, 64, 56
1, 6594, Control_c, 0, 64, 48
1, 6609, Control_c, 0, 64, 41
1, 6610, Note_on_c, 0, 69, 62
1, 6612, Note_off_c, 0, 67, 62
1, 6624, Control_c, 0, 64, 36
1, 6639, Control_c, 0, 64, 36
1, 6658, Note_off_c, 0, 69, 67
1, 6659, Note_on_c, 0, 70, 70
1, 6668, Control_c, 0, 64, 35
1, 6681, Note_off_c, 0, 70, 68
1, 6683, Control_c, 0, 64, 31
1, 6698, Control_c, 0, 64, 22
1, 6712, Control_c, 0, 64, 0
1, 6718, Note_on_c, 0, 72, 77
1, 6725, Note_on_c, 0, 48, 78
1, 6754, Note_off_c, 0, 72, 58
1, 6763, Note_off_c, 0, 50, 62
1, 6822, Note_on_c, 0, 58, 81
1, 6822, Note_on_c, 0, 79, 65
1, 6831, Control_c, 0, 64, 28
1, 6846, Control_c, 0, 64, 47
1, 6861, Control_c, 0, 64, 58
1, 6876, Control_c, 0, 64, 63
1, 6891, Control_c, 0, 64, 66
1, 6901, Note_off_c, 0, 79, 65
1, 6906, Note_on_c, 0, 81, 57
1, 6906, Control_c, 0, 64, 69
1, 6909, Note_off_c, 0, 58, 66
1, 6921, Control_c, 0, 64, 73
1, 6936, Control_c, 0, 64, 77
1, 6937, Note_off_c, 0, 81, 66
1, 6938, Note_on_c, 0, 82, 80
1, 6950, Control_c, 0, 64, 82
1, 6961, Note_off_c, 0, 82, 69
1, 6965, Control_c, 0, 64, 87
1, 6974, Note_off_c, 0, 48, 57
1, 6980, Control_c, 0, 64, 92
1, 6995, Control_c, 0, 64, 98
1, 6997, Note_on_c, 0, 84, 81
1, 7010, Control_c, 0, 64, 104
1, 7025, Control_c, 0, 64, 111
1, 7040, Control_c, 0, 64, 122
1, 7043, Note_off_c, 0, 84, 54
1, 7055, Control_c, 0, 64, 127
1, 7057, Note_on_c, 0, 55, 66
1, 7061, Note_on_c, 0, 91, 71
1, 7096, Poly_aftertouch_c, 0, 82, 0
1, 7111, Note_on_c, 0, 93, 76
1, 7119, Note_off_c, 0, 55, 47
1, 7134, Note_off_c, 0, 91, 55
1, 7176, Note_on_c, 0, 94, 80
1, 7189, Note_off_c, 0, 93, 62
1, 7209, Note_on_c, 0, 43, 55
1, 7237, Note_off_c, 0, 94, 61
1, 7251, Note_on_c, 0, 93, 81
1, 7284, Control_c, 0, 64, 84
1, 7286, Note_off_c, 0, 43, 61
1, 7293, Note_on_c, 0, 40, 67
1, 7296, Note_on_c, 0, 91, 77
1, 7297, Note_on_c, 0, 48, 67
1, 7299, Control_c, 0, 64, 64
1, 7307, Note_off_c, 0, 93, 64
1, 7314, Control_c, 0, 64, 48
1, 7329, Control_c, 0, 64, 32
1, 7342, Note_off_c, 0, 91, 64
1, 7343, Control_c, 0, 64, 32
1, 7348, Note_on_c, 0, 84, 68
1, 7358, Control_c, 0, 64, 42
1, 7373, Control_c, 0, 64, 54
1, 7383, Note_off_c, 0, 84, 67
1, 7388, Control_c, 0, 64, 62
1, 7403, Control_c, 0, 64, 66
1, 7417, Control_c, 0, 64, 70
1, 7431, Note_on_c, 0, 82, 73
1, 7432, Control_c, 0, 64, 74
1, 7447, Control_c, 0, 64, 76
1, 7461, Control_c, 0, 64, 79
1, 7476, Control_c, 0, 64, 81
1, 7478, Note_on_c, 0, 81, 64
1, 7488, Note_off_c, 0, 82, 62
1, 7492, Control_c, 0, 64, 82
1, 7526, Note_on_c, 0, 79, 63
1, 7536, Control_c, 0, 64, 82
1, 7541, Note_off_c, 0, 81, 65
1, 7561, Note_off_c, 0, 79, 65
1, 7566, Control_c, 0, 64, 83
1, 7572, Note_on_c, 0, 72, 69
1, 7604, Note_off_c, 0, 72, 65
1, 7610, Control_c, 0, 64, 83
1, 7625, Control_c, 0, 64, 84
1, 7650, Note_on_c, 0, 70, 74
1, 7669, Note_off_c, 0, 48, 59
1, 7669, Control_c, 0, 64, 83
1, 7684, Control_c, 0, 64, 79
1, 7699, Note_on_c, 0, 47, 70
1, 7699, Control_c, 0, 64, 71
1, 7700, Note_on_c, 0, 69, 68
1, 7713, Note_off_c, 0, 70, 60
1, 7715, Control_c, 0, 64, 62
1, 7730, Control_c, 0, 64, 50
1, 7738, Note_on_c, 0, 67, 70
1, 7745, Control_c, 0, 64, 30
1, 7752, Note_off_c, 0, 69, 61
1, 7755, Note_on_c, 0, 48, 74
1, 7759, Control_c, 0, 64, 9
1, 7769, Note_off_c, 0, 47, 63
1, 7774, Control_c, 0, 64, 0
1, 7780, Note_off_c, 0, 67, 64
1, 7788, Note_off_c, 0, 48, 65
1, 7798, Note_on_c, 0, 60, 49
1, 7804, Control_c, 0, 64, 12
1, 7819, Control_c, 0, 64, 19
1, 7833, Control_c, 0, 64, 20
1, 7842, Note_off_c, 0, 60, 64
1, 7863, Control_c, 0, 64, 21
1, 7886, Note_on_c, 0, 58, 67
1, 7886, Control_c, 0, 64, 22
1, 7901, Control_c, 0, 64, 25
1, 7915, Control_c, 0, 64, 28
1, 7930, Control_c, 0, 64, 30
1, 7935, Note_on_c, 0, 57, 71
1, 7959, Control_c, 0, 64, 29
1, 7965, Note_off_c, 0, 58, 62
1, 7969, Note_on_c, 0, 48, 51
1, 7974, Control_c, 0, 64, 28
1, 7986, Note_off_c, 0, 40, 0
1, 7986, Note_on_c, 0, 40, 3
1, 7987, Note_on_c, 0, 55, 60
1, 8003, Note_off_c, 0, 48, 65
1, 8004, Control_c, 0, 64, 27
1, 8009, Note_off_c, 0, 57, 63
1, 8019, Control_c, 0, 64, 27
1, 8026, Note_off_c, 0, 40, 61
1, 8033, Control_c, 0, 64, 24
1, 8039, Note_off_c, 0, 55, 63
1, 8048, Control_c, 0, 64, 19
1, 8054, Note_on_c, 0, 48, 66
1, 8063, Control_c, 0, 64, 12
1, 8078, Control_c, 0, 64, 0
1, 8089, Note_on_c, 0, 50, 33
1, 8098, Note_off_c, 0, 48, 60
1, 8125, Note_on_c, 0, 55, 41
1, 8125, Note_off_c, 0, 50, 43
1, 8155, Note_on_c, 0, 58, 66
1, 8155, Note_off_c, 0, 55, 51
1, 8196, Control_c, 0, 64, 19
1, 8211, Control_c, 0, 64, 40
1, 8212, Note_on_c, 0, 29, 66
1, 8213, Note_on_c, 0, 41, 69
1, 8214, Note_on_c, 0, 57, 67
1, 8226, Control_c, 0, 64, 53
1, 8235, Note_off_c, 0, 58, 61
1, 8241, Control_c, 0, 64, 61
1, 8249, Note_off_c, 0, 29, 65
1, 8255, Note_off_c, 0, 41, 63
1, 8256, Control_c, 0, 64, 64
1, 8268, Note_off_c, 0, 57, 63
1, 8271, Control_c, 0, 64, 66
1, 8272, Note_on_c, 0, 48, 65
1, 8285, Control_c, 0, 64, 67
1, 8300, Control_c, 0, 64, 68
1, 8315, Control_c, 0, 64, 69
1, 8318, Note_off_c, 0, 48, 65
1, 8325, Note_on_c, 0, 53, 72
1, 8330, Control_c, 0, 64, 71
1, 8345, Control_c, 0, 64, 73
1, 8359, Control_c, 0, 64, 76
1, 8374, Control_c, 0, 64, 77
1, 8389, Note_on_c, 0, 55, 70
1, 8389, Control_c, 0, 64, 79
1, 8390, Note_off_c, 0, 53, 62
1, 8404, Control_c, 0, 64, 79
1, 8419, Control_c, 0, 64, 80
1, 8433, Control_c, 0, 64, 77
1, 8443, Note_on_c, 0, 57, 74
1, 8448, Control_c, 0, 64, 67
1, 8459, Note_on_c, 0, 50, 81
1, 8462, Note_off_c, 0, 55, 64
1, 8463, Control_c, 0, 64, 57
1, 8466, Note_off_c, 0, 57, 67
1, 8477, Control_c, 0, 64, 48
1, 8492, Control_c, 0, 64, 47
1, 8508, Control_c, 0, 64, 50
1, 8511, Note_on_c, 0, 60, 81
1, 8523, Control_c, 0, 64, 55
1, 8538, Control_c, 0, 64, 61
1, 8553, Control_c, 0, 64, 65
1, 8562, Note_off_c, 0, 60, 59
1, 8568, Control_c, 0, 64, 67
1, 8569, Note_on_c, 0, 65, 79
1, 8582, Control_c, 0, 64, 69
1, 8597, Control_c, 0, 64, 70
1, 8612, Control_c, 0, 64, 69
1, 8624, Note_on_c, 0, 48, 77
1, 8626, Note_on_c, 0, 67, 79
1, 8626, Note_off_c, 0, 50, 62
1, 8627, Control_c, 0, 64, 65
1, 8643, Note_off_c, 0, 65, 62
1, 8649, Control_c, 0, 64, 52
1, 8664, Control_c, 0, 64, 0
1, 8685, Note_on_c, 0, 69, 72
1, 8694, Note_off_c, 0, 67, 65
1, 8706, Note_off_c, 0, 69, 69
1, 8718, Note_on_c, 0, 53, 86
1, 8723, Control_c, 0, 64, 19
1, 8738, Control_c, 0, 64, 44
1, 8747, Note_off_c, 0, 48, 62
1, 8753, Control_c, 0, 64, 59
1, 8754, Note_on_c, 0, 72, 79
1, 8768, Control_c, 0, 64, 65
1, 8775, Note_off_c, 0, 53, 65
1, 8782, Control_c, 0, 64, 70
1, 8797, Control_c, 0, 64, 74
1, 8808, Note_off_c, 0, 72, 61
1, 8812, Note_on_c, 0, 77, 75
1, 8812, Control_c, 0, 64, 78
1, 8827, Control_c, 0, 64, 80
1, 8842, Control_c, 0, 64, 83
1, 8852, Poly_aftertouch_c, 0, 69, 0
1, 8856, Control_c, 0, 64, 87
1, 8864, Note_on_c, 0, 79, 78
1, 8871, Control_c, 0, 64, 90
1, 8886, Control_c, 0, 64, 95
1, 8891, Note_off_c, 0, 77, 62
1, 8901, Control_c, 0, 64, 100
1, 8910, Note_on_c, 0, 81, 76
1, 8915, Control_c, 0, 64, 108
1, 8923, Note_off_c, 0, 79, 67
1, 8930, Control_c, 0, 64, 127
1, 8931, Note_off_c, 0, 81, 68
1, 8933, Note_on_c, 0, 65, 89
1, 8962, Note_off_c, 0, 65, 65
1, 8982, Note_on_c, 0, 84, 79
1, 9029, Note_on_c, 0, 89, 85
1, 9030, Note_off_c, 0, 84, 64
1, 9095, Note_on_c, 0, 93, 86
1, 9106, Note_off_c, 0, 89, 64
1, 9112, Poly_aftertouch_c, 0, 63, 127
1, 9147, Poly_aftertouch_c, 0, 63, 0
1, 9162, Note_on_c, 0, 91, 88
1, 9167, Control_c, 0, 64, 80
1, 9174, Note_on_c, 0, 65, 71
1, 9175, Note_on_c, 0, 62, 67
1, 9181, Control_c, 0, 64, 60
1, 9191, Note_on_c, 0, 58, 61
1, 9192, Note_off_c, 0, 93, 66
1, 9196, Note_on_c, 0, 53, 46
1, 9196, Control_c, 0, 64, 38
1, 9211, Control_c, 0, 64, 23
1, 9215, Note_on_c, 0, 89, 78
1, 9226, Control_c, 0, 64, 27
1, 9238, Note_off_c, 0, 91, 66
1, 9241, Control_c, 0, 64, 47
1, 9255, Control_c, 0, 64, 59
1, 9266, Note_off_c, 0, 89, 65
1, 9270, Control_c, 0, 64, 68
1, 9272, Note_on_c, 0, 86, 75
1, 9285, Control_c, 0, 64, 76
1, 9297, Note_off_c, 0, 86, 69
1, 9301, Control_c, 0, 64, 86
1, 9302, Note_off_c, 0, 65, 62
1, 9316, Control_c, 0, 64, 91
1, 9329, Note_off_c, 0, 53, 63
1, 9330, Control_c, 0, 64, 94
1, 9336, Note_off_c, 0, 62, 65
1, 9345, Control_c, 0, 64, 96
1, 9352, Note_on_c, 0, 82, 77
1, 9359, Note_off_c, 0, 58, 65
1, 9360, Control_c, 0, 64, 98
1, 9383, Control_c, 0, 64, 102
1, 9398, Control_c, 0, 64, 105
1, 9412, Control_c, 0, 64, 106
1, 9413, Note_on_c, 0, 79, 76
1, 9427, Control_c, 0, 64, 107
1, 9430, Note_off_c, 0, 82, 56
1, 9442, Control_c, 0, 64, 107
1, 9472, Note_on_c, 0, 77, 61
1, 9478, Note_off_c, 0, 79, 65
1, 9486, Control_c, 0, 64, 108
1, 9501, Control_c, 0, 64, 109
1, 9502, Note_off_c, 0, 77, 67
1, 9514, Note_on_c, 0, 74, 74
1, 9516, Control_c, 0, 64, 110
1, 9530, Control_c, 0, 64, 112
1, 9541, Note_off_c, 0, 74, 68
1, 9545, Control_c, 0, 64, 115
1, 9560, Control_c, 0, 64, 115
1, 9575, Note_on_c, 0, 70, 85
1, 9590, Control_c, 0, 64, 105
1, 9605, Control_c, 0, 64, 80
1, 9618, Note_off_c, 0, 70, 62
1, 9619, Control_c, 0, 64, 61
1, 9634, Control_c, 0, 64, 33
1, 9642, Note_on_c, 0, 65, 71
1, 9642, Note_on_c, 0, 72, 81
1, 9649, Control_c, 0, 64, 0
1, 9651, Note_on_c, 0, 53, 57
1, 9651, Note_on_c, 0, 60, 61
1, 9654, Note_on_c, 0, 57, 57
1, 9664, Control_c, 0, 64, 19
1, 9678, Control_c, 0, 64, 42
1, 9693, Control_c, 0, 64, 56
1, 9698, Note_off_c, 0, 72, 59
1, 9703, Note_on_c, 0, 77, 82
1, 9708, Control_c, 0, 64, 65
1, 9717, Note_off_c, 0, 65, 57
1, 9719, Note_off_c, 0, 53, 58
1, 9723, Control_c, 0, 64, 74
1, 9737, Control_c, 0, 64, 84
1, 9740, Note_off_c, 0, 60, 59
1, 9745, Note_off_c, 0, 57, 60
1, 9752, Control_c, 0, 64, 97
1, 9765, Note_on_c, 0, 79, 85
1, 9767, Control_c, 0, 64, 110
1, 9767, Note_off_c, 0, 77, 65
1, 9782, Control_c, 0, 64, 127
1, 9813, Note_on_c, 0, 81, 80
1, 9823, Note_off_c, 0, 79, 64
1, 9837, Note_off_c, 0, 81, 69
1, 9841, Control_c, 0, 64, 85
1, 9855, Control_c, 0, 64, 61
1, 9870, Control_c, 0, 64, 45
1, 9873, Note_on_c, 0, 65, 72
1, 9878, Note_on_c, 0, 53, 61
1, 9881, Note_on_c, 0, 60, 71
1, 9885, Control_c, 0, 64, 45
1, 9889, Note_on_c, 0, 57, 58
1, 9892, Note_on_c, 0, 84, 81
1, 9898, Note_off_c, 0, 65, 67
1, 9900, Control_c, 0, 64, 56
1, 9913, Note_off_c, 0, 53, 63
1, 9915, Control_c, 0, 64, 66
1, 9922, Note_off_c, 0, 60, 60
1, 9926, Note_off_c, 0, 57, 63
1, 9929, Control_c, 0, 64, 78
1, 9938, Note_off_c, 0, 84, 65
1, 9940, Note_on_c, 0, 89, 85
1, 9944, Control_c, 0, 64, 115
1, 9959, Control_c, 0, 64, 127
1, 9994, Note_on_c, 0, 91, 85
1, 10018, Note_off_c, 0, 89, 65
1, 10037, Poly_aftertouch_c, 0, 65, 0
1, 10052, Note_on_c, 0, 93, 84
1, 10077, Note_off_c, 0, 91, 67
1, 10108, Control_c, 0, 64, 82
1, 10130, Note_on_c, 0, 62, 66
1, 10131, Note_on_c, 0, 65, 81
1, 10131, Control_c, 0, 64, 60
1, 10135, Note_on_c, 0, 53, 62
1, 10145, Note_on_c, 0, 91, 93
1, 10146, Note_on_c, 0, 58, 64
1, 10146, Control_c, 0, 64, 13
1, 10160, Control_c, 0, 64, 0
1, 10173, Note_off_c, 0, 93, 66
1, 10191, Note_on_c, 0, 89, 79
1, 10205, Control_c, 0, 64, 37
1, 10214, Note_off_c, 0, 91, 67
1, 10220, Control_c, 0, 64, 56
1, 10234, Control_c, 0, 64, 65
1, 10249, Control_c, 0, 64, 72
1, 10252, Note_off_c, 0, 89, 65
1, 10262, Note_on_c, 0, 86, 63
1, 10264, Control_c, 0, 64, 81
1, 10279, Control_c, 0, 64, 87
1, 10280, Note_off_c, 0, 65, 62
1, 10290, Note_off_c, 0, 86, 68
1, 10291, Note_off_c, 0, 53, 61
1, 10294, Control_c, 0, 64, 93
1, 10308, Control_c, 0, 64, 99
1, 10316, Note_off_c, 0, 62, 66
1, 10323, Control_c, 0, 64, 107
1, 10338, Control_c, 0, 64, 116
1, 10340, Note_off_c, 0, 58, 63
1, 10352, Control_c, 0, 64, 127
1, 10378, Note_on_c, 0, 81, 49
1, 10380, Note_on_c, 0, 79, 79
1, 10402, Note_off_c, 0, 81, 56
1, 10439, Note_off_c, 0, 79, 66
1, 10444, Note_on_c, 0, 77, 73
1, 10473, Note_off_c, 0, 77, 67
1, 10483, Note_on_c, 0, 74, 73
1, 10510, Note_off_c, 0, 74, 68
1, 10549, Note_on_c, 0, 70, 79
1, 10578, Note_off_c, 0, 70, 65
1, 10605, Control_c, 0, 64, 87
1, 10620, Control_c, 0, 64, 63
1, 10621, Note_on_c, 0, 72, 79
1, 10626, Note_on_c, 0, 65, 67
1, 10634, Control_c, 0, 64, 29
1, 10638, Note_on_c, 0, 53, 54
1, 10641, Note_on_c, 0, 60, 55
1, 10646, Note_on_c, 0, 57, 51
1, 10649, Control_c, 0, 64, 0
1, 10665, Note_off_c, 0, 72, 58
1, 10678, Note_on_c, 0, 77, 70
1, 10678, Control_c, 0, 64, 17
1, 10693, Control_c, 0, 64, 48
1, 10708, Control_c, 0, 64, 61
1, 10723, Control_c, 0, 64, 70
1, 10738, Control_c, 0, 64, 78
1, 10743, Note_on_c, 0, 79, 76
1, 10745, Note_off_c, 0, 77, 63
1, 10752, Control_c, 0, 64, 87
1, 10766, Note_off_c, 0, 53, 56
1, 10767, Note_off_c, 0, 65, 59
1, 10767, Control_c, 0, 64, 91
1, 10772, Note_off_c, 0, 60, 59
1, 10778, Note_off_c, 0, 57, 59
1, 10797, Note_on_c, 0, 81, 72
1, 10797, Control_c, 0, 64, 85
1, 10800, Note_off_c, 0, 79, 65
1, 10812, Control_c, 0, 64, 69
1, 10821, Note_off_c, 0, 81, 68
1, 10826, Control_c, 0, 64, 57
1, 10841, Control_c, 0, 64, 51
1, 10856, Control_c, 0, 64, 56
1, 10866, Note_on_c, 0, 84, 76
1, 10878, Control_c, 0, 64, 64
1, 10880, Note_on_c, 0, 65, 57
1, 10884, Note_on_c, 0, 53, 47
1, 10889, Note_on_c, 0, 60, 53
1, 10893, Control_c, 0, 64, 73
1, 10899, Note_on_c, 0, 57, 42
1, 10909, Control_c, 0, 64, 87
1, 10910, Note_off_c, 0, 84, 64
1, 10917, Note_off_c, 0, 53, 63
1, 10924, Control_c, 0, 64, 115
1, 10924, Note_off_c, 0, 65, 63
1, 10928, Note_on_c, 0, 89, 76
1, 10930, Note_off_c, 0, 57, 56
1, 10933, Note_off_c, 0, 60, 62
1, 10939, Control_c, 0, 64, 127
1, 10983, Note_off_c, 0, 89, 66
1, 10988, Note_on_c, 0, 91, 61
1, 11021, Note_on_c, 0, 93, 73
1, 11027, Note_off_c, 0, 91, 65
1, 11057, Control_c, 0, 64, 83
1, 11072, Control_c, 0, 64, 64
1, 11086, Note_off_c, 0, 93, 63
1, 11087, Control_c, 0, 64, 42
1, 11097, Note_on_c, 0, 91, 76
1, 11101, Control_c, 0, 64, 0
1, 11109, Note_on_c, 0, 65, 51
1, 11119, Note_on_c, 0, 55, 38
1, 11125, Note_on_c, 0, 59, 52
1, 11130, Note_off_c, 0, 91, 57
1, 11146, Control_c, 0, 64, 28
1, 11157, Note_on_c, 0, 93, 76
1, 11161, Control_c, 0, 64, 46
1, 11175, Control_c, 0, 64, 54
1, 11190, Control_c, 0, 64, 60
1, 11205, Control_c, 0, 64, 61
1, 11219, Note_on_c, 0, 91, 75
1, 11220, Control_c, 0, 64, 60
1, 11228, Note_off_c, 0, 93, 63
1, 11235, Control_c, 0, 64, 58
1, 11249, Control_c, 0, 64, 54
1, 11262, Note_on_c, 0, 89, 71
1, 11264, Control_c, 0, 64, 50
1, 11276, Note_off_c, 0, 91, 64
1, 11279, Control_c, 0, 64, 49
1, 11294, Note_off_c, 0, 89, 66
1, 11294, Control_c, 0, 64, 48
1, 11320, Note_on_c, 0, 86, 58
1, 11323, Control_c, 0, 64, 49
1, 11338, Note_off_c, 0, 86, 66
1, 11338, Control_c, 0, 64, 50
1, 11353, Control_c, 0, 64, 51
1, 11368, Control_c, 0, 64, 53
1, 11383, Control_c, 0, 64, 54
1, 11384, Note_on_c, 0, 83, 68
1, 11413, Control_c, 0, 64, 54
1, 11418, Note_off_c, 0, 83, 64
1, 11428, Control_c, 0, 64, 52
1, 11431, Note_on_c, 0, 84, 72
1, 11443, Control_c, 0, 64, 49
1, 11457, Control_c, 0, 64, 45
1, 11472, Control_c, 0, 64, 42
1, 11485, Note_on_c, 0, 81, 67
1, 11487, Control_c, 0, 64, 37
1, 11497, Note_off_c, 0, 84, 66
1, 11501, Control_c, 0, 64, 32
1, 11516, Control_c, 0, 64, 27
1, 11531, Control_c, 0, 64, 26
1, 11532, Note_off_c, 0, 81, 62
1, 11540, Note_on_c, 0, 79, 69
1, 11556, Note_on_c, 0, 62, 56
1, 11570, Note_off_c, 0, 79, 67
1, 11575, Control_c, 0, 64, 25
1, 11606, Note_on_c, 0, 81, 64
1, 11633, Note_off_c, 0, 65, 47
1, 11657, Control_c, 0, 64, 26
1, 11665, Note_on_c, 0, 79, 73
1, 11669, Note_off_c, 0, 81, 60
1, 11672, Control_c, 0, 64, 27
1, 11687, Control_c, 0, 64, 28
1, 11702, Control_c, 0, 64, 30
1, 11714, Note_on_c, 0, 77, 63
1, 11717, Control_c, 0, 64, 32
1, 11719, Note_off_c, 0, 79, 65
1, 11732, Control_c, 0, 64, 34
1, 11739, Note_off_c, 0, 77, 66
1, 11747, Control_c, 0, 64, 36
1, 11762, Control_c, 0, 64, 39
1, 11769, Note_on_c, 0, 74, 54
1, 11776, Control_c, 0, 64, 41
1, 11789, Note_off_c, 0, 74, 63
1, 11791, Control_c, 0, 64, 42
1, 11806, Control_c, 0, 64, 43
1, 11839, Note_on_c, 0, 71, 53
1, 11861, Note_off_c, 0, 71, 62
1, 11871, Note_off_c, 0, 62, 57
1, 11874, Note_on_c, 0, 72, 65
1, 11919, Note_on_c, 0, 69, 67
1, 11920, Note_off_c, 0, 59, 61
1, 11939, Control_c, 0, 64, 43
1, 11940, Note_off_c, 0, 55, 55
1, 11940, Note_off_c, 0, 72, 61
1, 11956, Note_off_c, 0, 69, 64
1, 11981, Note_on_c, 0, 67, 68
1, 11984, Control_c, 0, 64, 42
1, 11998, Control_c, 0, 64, 42
1, 12013, Note_off_c, 0, 67, 61
1, 12013, Control_c, 0, 64, 41
1, 12028, Control_c, 0, 64, 41
1, 12043, Note_on_c, 0, 69, 68
1, 12043, Control_c, 0, 64, 40
1, 12058, Control_c, 0, 64, 39
1, 12072, Control_c, 0, 64, 38
1, 12079, Note_on_c, 0, 67, 69
1, 12087, Control_c, 0, 64, 37
1, 12102, Control_c, 0, 64, 36
1, 12117, Control_c, 0, 64, 35
1, 12123, Note_off_c, 0, 69, 64
1, 12135, Note_on_c, 0, 65, 61
1, 12143, Note_off_c, 0, 67, 64
1, 12170, Note_off_c, 0, 65, 65
1, 12185, Note_on_c, 0, 62, 61
1, 12213, Note_off_c, 0, 62, 65
1, 12221, Control_c, 0, 64, 36
1, 12251, Note_on_c, 0, 59, 67
1, 12265, Control_c, 0, 64, 36
1, 12286, Note_off_c, 0, 59, 63
1, 12299, Note_on_c, 0, 60, 61
1, 12352, Note_on_c, 0, 57, 65
1, 12369, Control_c, 0, 64, 37
1, 12378, Note_off_c, 0, 60, 62
1, 12399, Note_off_c, 0, 57, 65
1, 12414, Note_on_c, 0, 55, 62
1, 12435, Control_c, 0, 64, 37
1, 12454, Note_off_c, 0, 55, 57
1, 12474, Note_on_c, 0, 57, 61
1, 12515, Note_off_c, 0, 57, 62
1, 12527, Note_on_c, 0, 55, 69
1, 12554, Control_c, 0, 64, 37
1, 12566, Note_on_c, 0, 53, 58
1, 12582, Note_off_c, 0, 55, 61
1, 12610, Note_off_c, 0, 53, 64
1, 12622, Note_on_c, 0, 50, 70
1, 12632, Note_on_c, 0, 43, 63
1, 12644, Control_c, 0, 64, 36
1, 12653, Note_off_c, 0, 50, 69
1, 12658, Note_off_c, 0, 43, 63
1, 12659, Control_c, 0, 64, 35
1, 12674, Control_c, 0, 64, 33
1, 12689, Control_c, 0, 64, 30
1, 12695, Note_on_c, 0, 53, 59
1, 12703, Control_c, 0, 64, 28
1, 12718, Control_c, 0, 64, 27
1, 12735, Note_off_c, 0, 53, 61
1, 12736, Note_on_c, 0, 52, 64
1, 12772, Note_on_c, 0, 50, 54
1, 12773, Note_off_c, 0, 52, 66
1, 12808, Note_off_c, 0, 50, 65
1, 12828, Note_on_c, 0, 48, 62
1, 12847, Note_on_c, 0, 36, 58
1, 12851, Note_off_c, 0, 48, 66
1, 12852, Note_on_c, 0, 43, 40
1, 12893, Note_on_c, 0, 57, 65
1, 12895, Control_c, 0, 64, 27
1, 12925, Control_c, 0, 64, 26
1, 12943, Note_off_c, 0, 57, 59
1, 12950, Note_on_c, 0, 55, 57
1, 12969, Control_c, 0, 64, 27
1, 12993, Note_off_c, 0, 55, 65
1, 12998, Note_on_c, 0, 59, 66
1, 12999, Control_c, 0, 64, 27
1, 13014, Control_c, 0, 64, 28
1, 13022, Note_off_c, 0, 59, 68
1, 13055, Note_on_c, 0, 60, 65
1, 13086, Note_off_c, 0, 60, 66
1, 13115, Note_on_c, 0, 69, 71
1, 13117, Note_off_c, 0, 36, 63
1, 13154, Control_c, 0, 64, 28
1, 13159, Note_off_c, 0, 43, 55
1, 13182, Note_on_c, 0, 67, 64
1, 13202, Note_off_c, 0, 69, 54
1, 13214, Control_c, 0, 64, 29
1, 13217, Note_on_c, 0, 71, 67
1, 13219, Note_off_c, 0, 67, 65
1, 13228, Control_c, 0, 64, 29
1, 13243, Note_off_c, 0, 71, 67
1, 13243, Control_c, 0, 64, 30
1, 13258, Control_c, 0, 64, 31
1, 13273, Control_c, 0, 64, 32
1, 13280, Note_on_c, 0, 72, 73
1, 13317, Note_off_c, 0, 72, 64
1, 13335, Note_on_c, 0, 81, 72
1, 13389, Note_on_c, 0, 79, 69
1, 13418, Note_off_c, 0, 81, 50
1, 13422, Note_on_c, 0, 83, 70
1, 13425, Note_off_c, 0, 79, 66
1, 13445, Note_off_c, 0, 83, 69
1, 13481, Control_c, 0, 64, 33
1, 13485, Note_on_c, 0, 84, 67
1, 13523, Note_off_c, 0, 84, 61
1, 13541, Control_c, 0, 64, 32
1, 13547, Note_on_c, 0, 93, 72
1, 13570, Control_c, 0, 64, 30
1, 13585, Control_c, 0, 64, 27
1, 13589, Note_on_c, 0, 91, 72
1, 13600, Control_c, 0, 64, 23
1, 13612, Note_on_c, 0, 48, 53
1, 13614, Note_off_c, 0, 93, 55
1, 13615, Control_c, 0, 64, 21
1, 13643, Note_on_c, 0, 95, 65
1, 13652, Note_off_c, 0, 91, 62
1, 13659, Control_c, 0, 64, 22
1, 13664, Note_on_c, 0, 55, 41
1, 13674, Control_c, 0, 64, 25
1, 13689, Control_c, 0, 64, 30
1, 13703, Control_c, 0, 64, 37
1, 13716, Note_off_c, 0, 95, 65
1, 13718, Control_c, 0, 64, 44
1, 13720, Note_on_c, 0, 96, 67
1, 13733, Control_c, 0, 64, 51
1, 13739, Note_on_c, 0, 64, 48
1, 13748, Control_c, 0, 64, 56
1, 13763, Control_c, 0, 64, 59
1, 13777, Control_c, 0, 64, 62
1, 13791, Note_on_c, 0, 89, 65
1, 13792, Control_c, 0, 64, 64
1, 13793, Note_off_c, 0, 96, 64
1, 13807, Control_c, 0, 64, 66
1, 13822, Control_c, 0, 64, 68
1, 13827, Note_off_c, 0, 89, 63
1, 13837, Control_c, 0, 64, 71
1, 13851, Control_c, 0, 64, 74
1, 13853, Note_on_c, 0, 88, 68
1, 13874, Control_c, 0, 64, 78
1, 13889, Control_c, 0, 64, 80
1, 13903, Control_c, 0, 64, 83
1, 13908, Note_off_c, 0, 88, 56
1, 13918, Control_c, 0, 64, 85
1, 13920, Note_on_c, 0, 98, 71
1, 13933, Control_c, 0, 64, 87
1, 13943, Note_off_c, 0, 64, 36
1, 13948, Control_c, 0, 64, 88
1, 13963, Control_c, 0, 64, 89
1, 13977, Control_c, 0, 64, 89
1, 13985, Note_on_c, 0, 96, 71
1, 13986, Note_off_c, 0, 98, 61
1, 14036, Note_off_c, 0, 96, 59
1, 14054, Note_on_c, 0, 89, 63
1, 14070, Note_off_c, 0, 55, 60
1, 14082, Note_off_c, 0, 89, 67
1, 14098, Note_off_c, 0, 48, 34
1, 14110, Note_on_c, 0, 88, 72
1, 14144, Note_off_c, 0, 88, 60
1, 14166, Note_on_c, 0, 98, 69
1, 14186, Control_c, 0, 64, 90
1, 14234, Note_off_c, 0, 98, 59
1, 14235, Note_on_c, 0, 96, 64
1, 14296, Note_on_c, 0, 89, 66
1, 14302, Note_off_c, 0, 96, 64
1, 14320, Control_c, 0, 64, 89
1, 14322, Note_on_c, 0, 48, 59
1, 14334, Control_c, 0, 64, 83
1, 14349, Control_c, 0, 64, 71
1, 14357, Note_off_c, 0, 89, 64
1, 14364, Control_c, 0, 64, 59
1, 14367, Note_on_c, 0, 88, 53
1, 14371, Note_off_c, 0, 48, 57
1, 14379, Control_c, 0, 64, 42
1, 14386, Note_on_c, 0, 55, 44
1, 14394, Control_c, 0, 64, 33
1, 14409, Control_c, 0, 64, 33
1, 14419, Note_off_c, 0, 88, 62
1, 14423, Note_on_c, 0, 98, 61
1, 14423, Control_c, 0, 64, 44
1, 14438, Control_c, 0, 64, 55
1, 14453, Note_on_c, 0, 58, 45
1, 14453, Control_c, 0, 64, 62
1, 14468, Control_c, 0, 64, 68
1, 14482, Note_on_c, 0, 64, 61
1, 14483, Control_c, 0, 64, 72
1, 14498, Note_off_c, 0, 98, 57
1, 14498, Control_c, 0, 64, 76
1, 14504, Note_on_c, 0, 96, 59
1, 14513, Note_off_c, 0, 64, 66
1, 14513, Control_c, 0, 64, 80
1, 14527, Control_c, 0, 64, 84
1, 14534, Note_off_c, 0, 58, 64
1, 14542, Control_c, 0, 64, 89
1, 14546, Note_off_c, 0, 55, 56
1, 14557, Control_c, 0, 64, 94
1, 14572, Control_c, 0, 64, 102
1, 14578, Note_on_c, 0, 93, 65
1, 14578, Note_off_c, 0, 96, 60
1, 14587, Control_c, 0, 64, 109
1, 14601, Control_c, 0, 64, 117
1, 14623, Control_c, 0, 64, 127
1, 14649, Note_off_c, 0, 93, 63
1, 14667, Note_on_c, 0, 94, 64
1, 14683, Note_on_c, 0, 41, 36
1, 14698, Control_c, 0, 64, 94
1, 14707, Note_off_c, 0, 94, 61
1, 14713, Control_c, 0, 64, 70
1, 14714, Note_on_c, 0, 48, 60
1, 14719, Note_on_c, 0, 91, 66
1, 14722, Note_off_c, 0, 41, 46
1, 14727, Control_c, 0, 64, 54
1, 14742, Control_c, 0, 64, 41
1, 14745, Note_off_c, 0, 48, 65
1, 14757, Control_c, 0, 64, 42
1, 14760, Note_on_c, 0, 57, 64
1, 14772, Control_c, 0, 64, 54
1, 14775, Note_off_c, 0, 91, 61
1, 14787, Control_c, 0, 64, 64
1, 14790, Note_off_c, 0, 57, 65
1, 14801, Control_c, 0, 64, 72
1, 14816, Control_c, 0, 64, 83
1, 14831, Control_c, 0, 64, 96
1, 14845, Control_c, 0, 64, 108
1, 14860, Control_c, 0, 64, 115
1, 14866, Note_on_c, 0, 65, 62
1, 14868, Note_on_c, 0, 93, 70
1, 14875, Control_c, 0, 64, 124
1, 14890, Control_c, 0, 64, 127
1, 14894, Note_off_c, 0, 65, 65
1, 14928, Note_on_c, 0, 91, 72
1, 14928, Note_off_c, 0, 93, 62
1, 14978, Note_on_c, 0, 89, 68
1, 14993, Note_off_c, 0, 91, 63
1, 15013, Note_off_c, 0, 89, 65
1, 15036, Note_on_c, 0, 84, 59
1, 15061, Note_off_c, 0, 84, 68
1, 15105, Note_on_c, 0, 81, 72
1, 15157, Note_on_c, 0, 79, 70
1, 15174, Note_off_c, 0, 81, 59
1, 15209, Note_on_c, 0, 77, 65
1, 15222, Note_off_c, 0, 79, 64
1, 15259, Note_off_c, 0, 77, 63
1, 15264, Note_on_c, 0, 72, 66
1, 15297, Note_off_c, 0, 72, 64
1, 15306, Control_c, 0, 64, 115
1, 15321, Control_c, 0, 64, 82
1, 15324, Note_on_c, 0, 48, 72
1, 15333, Note_on_c, 0, 47, 62
1, 15336, Control_c, 0, 64, 64
1, 15350, Control_c, 0, 64, 46
1, 15351, Note_on_c, 0, 69, 63
1, 15353, Note_off_c, 0, 48, 66
1, 15355, Note_off_c, 0, 47, 58
1, 15372, Control_c, 0, 64, 13
1, 15387, Control_c, 0, 64, 0
1, 15400, Note_off_c, 0, 69, 65
1, 15411, Note_on_c, 0, 67, 63
1, 15446, Control_c, 0, 64, 15
1, 15461, Note_on_c, 0, 65, 36
1, 15461, Control_c, 0, 64, 19
1, 15463, Note_off_c, 0, 67, 61
1, 15476, Control_c, 0, 64, 20
1, 15491, Control_c, 0, 64, 22
1, 15495, Note_off_c, 0, 65, 53
1, 15506, Control_c, 0, 64, 24
1, 15513, Note_on_c, 0, 60, 49
1, 15520, Control_c, 0, 64, 27
1, 15535, Control_c, 0, 64, 30
1, 15548, Note_off_c, 0, 60, 63
1, 15550, Control_c, 0, 64, 31
1, 15577, Note_on_c, 0, 48, 58
1, 15605, Note_on_c, 0, 57, 45
1, 15605, Note_off_c, 0, 48, 65
1, 15610, Control_c, 0, 64, 31
1, 15624, Control_c, 0, 64, 30
1, 15639, Control_c, 0, 64, 28
1, 15643, Note_off_c, 0, 57, 57
1, 15654, Control_c, 0, 64, 25
1, 15664, Note_on_c, 0, 55, 58
1, 15668, Control_c, 0, 64, 21
1, 15683, Control_c, 0, 64, 16
1, 15699, Control_c, 0, 64, 13
1, 15702, Note_on_c, 0, 53, 57
1, 15706, Note_off_c, 0, 55, 59
1, 15743, Control_c, 0, 64, 17
1, 15745, Note_off_c, 0, 53, 63
1, 15758, Control_c, 0, 64, 26
1, 15763, Note_on_c, 0, 48, 58
1, 15772, Control_c, 0, 64, 37
1, 15787, Control_c, 0, 64, 49
1, 15802, Control_c, 0, 64, 57
1, 15812, Note_off_c, 0, 48, 60
1, 15817, Control_c, 0, 64, 61
1, 15826, Note_on_c, 0, 29, 58
1, 15832, Note_on_c, 0, 41, 54
1, 15832, Control_c, 0, 64, 64
1, 15833, Note_on_c, 0, 53, 64
1, 15846, Control_c, 0, 64, 65
1, 15857, Note_off_c, 0, 29, 63
1, 15861, Control_c, 0, 64, 66
1, 15866, Note_off_c, 0, 41, 63
1, 15876, Note_off_c, 0, 53, 60
1, 15876, Control_c, 0, 64, 68
1, 15890, Control_c, 0, 64, 71
1, 15900, Note_on_c, 0, 55, 63
1, 15905, Control_c, 0, 64, 73
1, 15920, Control_c, 0, 64, 75
1, 15935, Control_c, 0, 64, 77
1, 15939, Note_off_c, 0, 55, 66
1, 15941, Note_on_c, 0, 57, 64
1, 15950, Control_c, 0, 64, 78
1, 15962, Note_off_c, 0, 57, 61
1, 15965, Control_c, 0, 64, 80
1, 15979, Control_c, 0, 64, 81
1, 15994, Control_c, 0, 64, 81
1, 16009, Control_c, 0, 64, 81
1, 16011, Note_on_c, 0, 60, 68
1, 16024, Control_c, 0, 64, 78
1, 16038, Note_off_c, 0, 60, 65
1, 16039, Control_c, 0, 64, 70
1, 16054, Control_c, 0, 64, 61
1, 16069, Control_c, 0, 64, 51
1, 16074, Note_on_c, 0, 50, 77
1, 16077, Note_on_c, 0, 65, 63
1, 16084, Control_c, 0, 64, 44
1, 16098, Control_c, 0, 64, 43
1, 16113, Control_c, 0, 64, 47
1, 16135, Control_c, 0, 64, 53
1, 16150, Control_c, 0, 64, 59
1, 16155, Note_on_c, 0, 67, 67
1, 16158, Note_off_c, 0, 65, 60
1, 16165, Control_c, 0, 64, 63
1, 16179, Control_c, 0, 64, 66
1, 16182, Note_on_c, 0, 69, 71
1, 16188, Note_off_c, 0, 67, 67
1, 16194, Control_c, 0, 64, 68
1, 16206, Note_off_c, 0, 69, 68
1, 16209, Control_c, 0, 64, 70
1, 16224, Control_c, 0, 64, 71
1, 16255, Note_on_c, 0, 72, 72
1, 16258, Note_on_c, 0, 48, 79
1, 16269, Control_c, 0, 64, 70
1, 16284, Control_c, 0, 64, 66
1, 16298, Control_c, 0, 64, 60
1, 16312, Note_off_c, 0, 50, 61
1, 16313, Control_c, 0, 64, 50
1, 16328, Control_c, 0, 64, 31
1, 16343, Control_c, 0, 64, 0
1, 16351, Note_off_c, 0, 72, 57
1, 16376, Note_on_c, 0, 57, 81
1, 16387, Control_c, 0, 64, 10
1, 16402, Control_c, 0, 64, 32
1, 16409, Note_on_c, 0, 77, 42
1, 16417, Control_c, 0, 64, 45
1, 16432, Control_c, 0, 64, 53
1, 16446, Control_c, 0, 64, 59
1, 16461, Control_c, 0, 64, 62
1, 16462, Note_off_c, 0, 77, 62
1, 16468, Note_on_c, 0, 79, 62
1, 16476, Control_c, 0, 64, 65
1, 16492, Control_c, 0, 64, 69
1, 16507, Note_off_c, 0, 57, 63
1, 16507, Control_c, 0, 64, 73
1, 16510, Note_on_c, 0, 81, 67
1, 16513, Note_off_c, 0, 79, 66
1, 16521, Control_c, 0, 64, 77
1, 16528, Note_off_c, 0, 81, 67
1, 16536, Control_c, 0, 64, 82
1, 16551, Control_c, 0, 64, 87
1, 16563, Note_off_c, 0, 48, 63
1, 16566, Control_c, 0, 64, 91
1, 16581, Control_c, 0, 64, 99
1, 16592, Note_on_c, 0, 84, 52
1, 16595, Control_c, 0, 64, 111
1, 16610, Control_c, 0, 64, 127
1, 16654, Note_off_c, 0, 84, 66
1, 16662, Note_on_c, 0, 89, 71
1, 16674, Note_on_c, 0, 53, 59
1, 16728, Control_c, 0, 64, 103
1, 16734, Note_off_c, 0, 89, 64
1, 16737, Note_on_c, 0, 91, 61
1, 16743, Control_c, 0, 64, 90
1, 16758, Control_c, 0, 64, 86
1, 16787, Control_c, 0, 64, 89
1, 16788, Note_off_c, 0, 91, 65
1, 16793, Note_on_c, 0, 93, 74
1, 16802, Control_c, 0, 64, 95
1, 16817, Control_c, 0, 64, 106
1, 16832, Control_c, 0, 64, 127
1, 16852, Note_on_c, 0, 45, 61
1, 16859, Note_on_c, 0, 91, 81
1, 16889, Note_off_c, 0, 53, 55
1, 16919, Note_on_c, 0, 89, 77
1, 16934, Note_off_c, 0, 93, 59
1, 16943, Control_c, 0, 64, 106
1, 16947, Note_on_c, 0, 48, 63
1, 16949, Note_on_c, 0, 41, 63
1, 16958, Control_c, 0, 64, 76
1, 16960, Note_off_c, 0, 91, 65
1, 16962, Note_off_c, 0, 45, 63
1, 16973, Control_c, 0, 64, 62
1, 16975, Note_on_c, 0, 84, 74
1, 16976, Note_off_c, 0, 89, 65
1, 16988, Control_c, 0, 64, 48
1, 17002, Control_c, 0, 64, 41
1, 17003, Note_off_c, 0, 84, 68
1, 17032, Control_c, 0, 64, 48
1, 17047, Control_c, 0, 64, 57
1, 17062, Control_c, 0, 64, 62
1, 17066, Note_on_c, 0, 81, 51
1, 17076, Control_c, 0, 64, 66
1, 17088, Note_on_c, 0, 79, 58
1, 17091, Control_c, 0, 64, 68
1, 17106, Control_c, 0, 64, 69
1, 17155, Note_off_c, 0, 81, 36
1, 17157, Note_on_c, 0, 77, 67
1, 17166, Control_c, 0, 64, 69
1, 17172, Note_off_c, 0, 79, 64
1, 17192, Note_off_c, 0, 77, 65
1, 17195, Control_c, 0, 64, 69
1, 17211, Note_on_c, 0, 72, 67
1, 17225, Control_c, 0, 64, 68
1, 17240, Note_off_c, 0, 72, 66
1, 17254, Control_c, 0, 64, 68
1, 17269, Control_c, 0, 64, 67
1, 17284, Control_c, 0, 64, 64
1, 17288, Note_on_c, 0, 69, 64
1, 17300, Control_c, 0, 64, 62
1, 17315, Control_c, 0, 64, 59
1, 17330, Control_c, 0, 64, 57
1, 17334, Note_on_c, 0, 67, 69
1, 17335, Note_off_c, 0, 48, 60
1, 17344, Control_c, 0, 64, 54
1, 17359, Control_c, 0, 64, 51
1, 17360, Note_on_c, 0, 47, 61
1, 17365, Note_off_c, 0, 69, 63
1, 17374, Control_c, 0, 64, 48
1, 17386, Note_on_c, 0, 65, 58
1, 17389, Control_c, 0, 64, 44
1, 17401, Note_on_c, 0, 48, 66
1, 17402, Note_off_c, 0, 67, 63
1, 17404, Control_c, 0, 64, 41
1, 17409, Note_off_c, 0, 47, 64
1, 17418, Control_c, 0, 64, 36
1, 17427, Note_off_c, 0, 65, 65
1, 17431, Note_off_c, 0, 48, 66
1, 17432, Note_on_c, 0, 60, 65
1, 17433, Control_c, 0, 64, 33
1, 17448, Control_c, 0, 64, 32
1, 17462, Control_c, 0, 64, 32
1, 17464, Note_off_c, 0, 60, 63
1, 17488, Note_off_c, 0, 41, 0
1, 17520, Note_on_c, 0, 57, 59
1, 17524, Note_on_c, 0, 41, 8
1, 17562, Note_off_c, 0, 57, 64
1, 17579, Note_on_c, 0, 55, 54
1, 17581, Control_c, 0, 64, 32
1, 17596, Control_c, 0, 64, 33
1, 17604, Note_off_c, 0, 41, 0
1, 17604, Note_on_c, 0, 41, 31
1, 17617, Note_on_c, 0, 48, 55
1, 17618, Control_c, 0, 64, 34
1, 17624, Note_on_c, 0, 53, 67
1, 17625, Note_off_c, 0, 55, 64
1, 17633, Control_c, 0, 64, 35
1, 17643, Note_off_c, 0, 48, 58
1, 17648, Control_c, 0, 64, 35
1, 17661, Note_off_c, 0, 41, 63
1, 17664, Note_off_c, 0, 53, 63
1, 17694, Note_on_c, 0, 48, 67
1, 17707, Control_c, 0, 64, 34
1, 17722, Control_c, 0, 64, 33
1, 17725, Note_off_c, 0, 48, 65
1, 17737, Control_c, 0, 64, 32
1, 17750, Note_on_c, 0, 53, 67
1, 17766, Control_c, 0, 64, 33
1, 17781, Control_c, 0, 64, 36
1, 17796, Control_c, 0, 64, 41
1, 17801, Note_off_c, 0, 53, 61
1, 17807, Note_on_c, 0, 57, 61
1, 17811, Control_c, 0, 64, 45
1, 17825, Control_c, 0, 64, 49
1, 17840, Control_c, 0, 64, 52
1, 17855, Control_c, 0, 64, 55
1, 17861, Note_on_c, 0, 40, 59
1, 17866, Note_on_c, 0, 28, 64
1, 17869, Control_c, 0, 64, 58
1, 17871, Note_on_c, 0, 55, 68
1, 17881, Note_off_c, 0, 57, 60
1, 17884, Control_c, 0, 64, 61
1, 17899, Control_c, 0, 64, 63
1, 17908, Note_off_c, 0, 55, 65
1, 17914, Control_c, 0, 64, 65
1, 17918, Note_off_c, 0, 28, 64
1, 17929, Control_c, 0, 64, 67
1, 17935, Note_on_c, 0, 48, 63
1, 17944, Control_c, 0, 64, 69
1, 17945, Note_off_c, 0, 40, 62
1, 17959, Control_c, 0, 64, 72
1, 17974, Note_off_c, 0, 48, 64
1, 17974, Control_c, 0, 64, 74
1, 17989, Control_c, 0, 64, 75
1, 18002, Note_on_c, 0, 55, 68
1, 18004, Control_c, 0, 64, 76
1, 18018, Control_c, 0, 64, 77
1, 18033, Control_c, 0, 64, 78
1, 18048, Control_c, 0, 64, 79
1, 18050, Note_off_c, 0, 55, 60
1, 18063, Note_on_c, 0, 57, 71
1, 18063, Control_c, 0, 64, 79
1, 18094, Control_c, 0, 64, 77
1, 18109, Control_c, 0, 64, 68
1, 18119, Note_on_c, 0, 58, 70
1, 18120, Note_off_c, 0, 57, 65
1, 18123, Control_c, 0, 64, 57
1, 18125, Note_on_c, 0, 50, 78
1, 18138, Control_c, 0, 64, 41
1, 18140, Note_off_c, 0, 58, 69
1, 18153, Control_c, 0, 64, 30
1, 18178, Note_on_c, 0, 60, 78
1, 18182, Control_c, 0, 64, 37
1, 18197, Control_c, 0, 64, 46
1, 18212, Control_c, 0, 64, 53
1, 18227, Control_c, 0, 64, 59
1, 18242, Note_off_c, 0, 60, 57
1, 18242, Control_c, 0, 64, 62
1, 18242, Note_on_c, 0, 67, 73
1, 18257, Control_c, 0, 64, 63
1, 18281, Note_on_c, 0, 48, 85
1, 18286, Note_off_c, 0, 50, 65
1, 18286, Control_c, 0, 64, 63
1, 18301, Control_c, 0, 64, 59
1, 18307, Note_on_c, 0, 69, 72
1, 18312, Note_off_c, 0, 67, 64
1, 18316, Control_c, 0, 64, 51
1, 18331, Control_c, 0, 64, 33
1, 18346, Control_c, 0, 64, 0
1, 18380, Note_on_c, 0, 70, 75
1, 18385, Note_off_c, 0, 69, 66
1, 18387, Note_on_c, 0, 55, 88
1, 18404, Note_off_c, 0, 70, 67
1, 18412, Control_c, 0, 64, 24
1, 18427, Control_c, 0, 64, 42
1, 18441, Note_off_c, 0, 48, 64
1, 18442, Control_c, 0, 64, 55
1, 18445, Note_on_c, 0, 72, 76
1, 18457, Control_c, 0, 64, 62
1, 18466, Note_off_c, 0, 55, 65
1, 18472, Control_c, 0, 64, 66
1, 18486, Control_c, 0, 64, 69
1, 18501, Control_c, 0, 64, 71
1, 18505, Note_on_c, 0, 79, 76
1, 18507, Note_off_c, 0, 72, 61
1, 18516, Control_c, 0, 64, 73
1, 18531, Control_c, 0, 64, 76
1, 18546, Control_c, 0, 64, 78
1, 18561, Control_c, 0, 64, 79
1, 18569, Note_on_c, 0, 81, 74
1, 18575, Control_c, 0, 64, 81
1, 18576, Note_off_c, 0, 79, 62
1, 18590, Control_c, 0, 64, 82
1, 18605, Control_c, 0, 64, 84
1, 18614, Note_on_c, 0, 62, 87
1, 18620, Control_c, 0, 64, 87
1, 18624, Note_on_c, 0, 82, 80
1, 18624, Note_off_c, 0, 81, 65
1, 18635, Control_c, 0, 64, 91
1, 18640, Note_off_c, 0, 62, 69
1, 18644, Note_off_c, 0, 82, 68
1, 18649, Control_c, 0, 64, 95
1, 18664, Control_c, 0, 64, 99
1, 18679, Control_c, 0, 64, 103
1, 18686, Note_on_c, 0, 84, 79
1, 18693, Control_c, 0, 64, 107
1, 18708, Control_c, 0, 64, 109
1, 18717, Note_on_c, 0, 82, 21
1, 18720, Note_off_c, 0, 84, 58
1, 18723, Control_c, 0, 64, 111
1, 18737, Note_on_c, 0, 91, 78
1, 18749, Note_off_c, 0, 82, 42
1, 18755, Note_on_c, 0, 40, 75
1, 18765, Note_on_c, 0, 48, 61
1, 18793, Note_on_c, 0, 93, 79
1, 18793, Note_off_c, 0, 40, 64
1, 18799, Note_off_c, 0, 91, 66
1, 18825, Note_off_c, 0, 48, 64
1, 18856, Note_off_c, 0, 93, 65
1, 18886, Control_c, 0, 64, 110
1, 18902, Note_on_c, 0, 60, 87
1, 18902, Control_c, 0, 64, 91
1, 18912, Note_on_c, 0, 94, 79
1, 18916, Control_c, 0, 64, 72
1, 18931, Control_c, 0, 64, 57
1, 18946, Control_c, 0, 64, 43
1, 18961, Control_c, 0, 64, 41
1, 18975, Note_on_c, 0, 93, 76
1, 18976, Control_c, 0, 64, 48
1, 18984, Note_off_c, 0, 94, 64
1, 18990, Control_c, 0, 64, 58
1, 19005, Control_c, 0, 64, 67
1, 19020, Control_c, 0, 64, 76
1, 19034, Note_on_c, 0, 91, 73
1, 19035, Control_c, 0, 64, 89
1, 19050, Control_c, 0, 64, 101
1, 19053, Note_off_c, 0, 93, 64
1, 19056, Note_off_c, 0, 60, 63
1, 19065, Control_c, 0, 64, 108
1, 19080, Control_c, 0, 64, 115
1, 19081, Note_off_c, 0, 91, 65
1, 19084, Note_on_c, 0, 84, 73
1, 19095, Control_c, 0, 64, 127
1, 19126, Note_off_c, 0, 84, 65
1, 19171, Note_on_c, 0, 82, 76
1, 19220, Note_off_c, 0, 82, 63
1, 19225, Note_on_c, 0, 81, 65
1, 19269, Note_on_c, 0, 79, 72
1, 19288, Note_off_c, 0, 81, 63
1, 19315, Note_off_c, 0, 79, 63
1, 19321, Note_on_c, 0, 72, 70
1, 19339, Control_c, 0, 64, 115
1, 19352, Note_off_c, 0, 72, 64
1, 19354, Control_c, 0, 64, 86
1, 19369, Control_c, 0, 64, 68
1, 19375, Note_on_c, 0, 47, 63
1, 19378, Note_on_c, 0, 48, 63
1, 19384, Control_c, 0, 64, 55
1, 19398, Control_c, 0, 64, 29
1, 19402, Note_off_c, 0, 47, 67
1, 19405, Note_on_c, 0, 70, 68
1, 19408, Note_off_c, 0, 48, 64
1, 19413, Control_c, 0, 64, 0
1, 19446, Note_off_c, 0, 70, 60
1, 19459, Note_on_c, 0, 69, 63
1, 19471, Control_c, 0, 64, 17
1, 19486, Control_c, 0, 64, 23
1, 19501, Control_c, 0, 64, 25
1, 19506, Note_on_c, 0, 67, 60
1, 19514, Note_off_c, 0, 69, 64
1, 19539, Note_off_c, 0, 67, 57
1, 19545, Control_c, 0, 64, 26
1, 19558, Note_on_c, 0, 60, 62
1, 19560, Control_c, 0, 64, 28
1, 19575, Control_c, 0, 64, 29
1, 19589, Control_c, 0, 64, 29
1, 19595, Note_off_c, 0, 60, 63
1, 19619, Control_c, 0, 64, 30
1, 19626, Note_on_c, 0, 48, 53
1, 19634, Control_c, 0, 64, 31
1, 19645, Note_on_c, 0, 58, 60
1, 19649, Control_c, 0, 64, 32
1, 19652, Note_off_c, 0, 48, 62
1, 19664, Control_c, 0, 64, 34
1, 19679, Control_c, 0, 64, 35
1, 19700, Note_off_c, 0, 58, 58
1, 19702, Note_on_c, 0, 57, 59
1, 19709, Control_c, 0, 64, 34
1, 19749, Note_on_c, 0, 55, 55
1, 19759, Note_off_c, 0, 57, 61
1, 19768, Control_c, 0, 64, 35
1, 19783, Control_c, 0, 64, 37
1, 19789, Note_off_c, 0, 55, 65
1, 19798, Control_c, 0, 64, 42
1, 19811, Note_on_c, 0, 48, 62
1, 19813, Control_c, 0, 64, 47
1, 19828, Control_c, 0, 64, 51
1, 19843, Control_c, 0, 64, 55
1, 19858, Control_c, 0, 64, 58
1, 19858, Note_off_c, 0, 48, 61
1, 19878, Note_on_c, 0, 28, 58
1, 19880, Control_c, 0, 64, 61
1, 19884, Note_on_c, 0, 40, 47
1, 19889, Note_on_c, 0, 55, 58
1, 19894, Control_c, 0, 64, 62
1, 19909, Control_c, 0, 64, 64
1, 19910, Note_off_c, 0, 28, 62
1, 19923, Note_off_c, 0, 40, 63
1, 19924, Control_c, 0, 64, 65
1, 19938, Control_c, 0, 64, 67
1, 19949, Note_on_c, 0, 57, 68
1, 19952, Note_off_c, 0, 55, 57
1, 19953, Control_c, 0, 64, 69
1, 19968, Control_c, 0, 64, 72
1, 19983, Control_c, 0, 64, 75
1, 19991, Note_off_c, 0, 57, 64
1, 19996, Note_on_c, 0, 58, 70
1, 19998, Control_c, 0, 64, 77
1, 20013, Control_c, 0, 64, 80
1, 20015, Note_off_c, 0, 58, 62
1, 20028, Control_c, 0, 64, 81
1, 20042, Control_c, 0, 64, 82
1, 20056, Note_on_c, 0, 60, 73
1, 20117, Note_off_c, 0, 60, 60
1, 20117, Control_c, 0, 64, 78
1, 20125, Note_on_c, 0, 67, 65
1, 20132, Note_on_c, 0, 50, 75
1, 20132, Control_c, 0, 64, 72
1, 20146, Control_c, 0, 64, 65
1, 20161, Control_c, 0, 64, 59
1, 20176, Control_c, 0, 64, 52
1, 20184, Note_off_c, 0, 67, 63
1, 20186, Note_on_c, 0, 69, 61
1, 20191, Control_c, 0, 64, 48
1, 20206, Control_c, 0, 64, 45
1, 20220, Control_c, 0, 64, 45
1, 20235, Control_c, 0, 64, 45
1, 20245, Note_off_c, 0, 69, 66
1, 20248, Note_on_c, 0, 70, 69
1, 20264, Control_c, 0, 64, 45
1, 20269, Note_off_c, 0, 70, 68
1, 20279, Control_c, 0, 64, 42
1, 20293, Note_on_c, 0, 48, 66
1, 20294, Control_c, 0, 64, 38
1, 20309, Control_c, 0, 64, 32
1, 20314, Note_on_c, 0, 72, 68
1, 20324, Control_c, 0, 64, 23
1, 20338, Control_c, 0, 64, 8
1, 20340, Note_off_c, 0, 50, 62
1, 20353, Control_c, 0, 64, 0
1, 20407, Note_off_c, 0, 72, 59
1, 20411, Note_on_c, 0, 58, 65
1, 20427, Control_c, 0, 64, 20
1, 20430, Note_on_c, 0, 79, 63
1, 20442, Control_c, 0, 64, 40
1, 20457, Control_c, 0, 64, 53
1, 20472, Control_c, 0, 64, 61
1, 20488, Control_c, 0, 64, 65
1, 20503, Note_off_c, 0, 79, 63
1, 20503, Control_c, 0, 64, 68
1, 20504, Note_off_c, 0, 58, 65
1, 20506, Note_on_c, 0, 81, 61
1, 20517, Control_c, 0, 64, 70
1, 20532, Control_c, 0, 64, 73
1, 20547, Control_c, 0, 64, 77
1, 20550, Note_off_c, 0, 81, 62
1, 20555, Note_on_c, 0, 82, 69
1, 20561, Control_c, 0, 64, 83
1, 20573, Note_off_c, 0, 82, 66
1, 20576, Control_c, 0, 64, 89
1, 20591, Control_c, 0, 64, 95
1, 20597, Note_off_c, 0, 48, 60
1, 20614, Control_c, 0, 64, 102
1, 20629, Note_on_c, 0, 84, 70
1, 20629, Control_c, 0, 64, 108
1, 20643, Control_c, 0, 64, 115
1, 20658, Control_c, 0, 64, 127
1, 20676, Note_on_c, 0, 55, 64
1, 20680, Note_off_c, 0, 84, 49
1, 20687, Note_on_c, 0, 91, 67
1, 20740, Note_on_c, 0, 93, 71
1, 20746, Note_off_c, 0, 91, 65
1, 20749, Note_off_c, 0, 55, 58
1, 20780, Note_off_c, 0, 93, 53
1, 20809, Note_on_c, 0, 94, 67
1, 20825, Note_on_c, 0, 43, 52
1, 20870, Note_off_c, 0, 94, 61
1, 20874, Note_on_c, 0, 93, 69
1, 20916, Note_on_c, 0, 91, 71
1, 20919, Note_off_c, 0, 43, 56
1, 20929, Note_on_c, 0, 40, 59
1, 20934, Note_on_c, 0, 48, 56
1, 20937, Note_off_c, 0, 93, 62
1, 20940, Control_c, 0, 64, 111
1, 20955, Control_c, 0, 64, 82
1, 20969, Control_c, 0, 64, 67
1, 20971, Note_off_c, 0, 91, 63
1, 20984, Control_c, 0, 64, 55
1, 20985, Note_on_c, 0, 84, 65
1, 20999, Control_c, 0, 64, 39
1, 21014, Control_c, 0, 64, 27
1, 21015, Note_off_c, 0, 84, 68
1, 21029, Control_c, 0, 64, 28
1, 21043, Control_c, 0, 64, 38
1, 21058, Control_c, 0, 64, 47
1, 21068, Note_on_c, 0, 82, 64
1, 21073, Control_c, 0, 64, 54
1, 21087, Control_c, 0, 64, 57
1, 21101, Note_off_c, 0, 82, 61
1, 21117, Control_c, 0, 64, 56
1, 21123, Note_on_c, 0, 81, 59
1, 21132, Control_c, 0, 64, 55
1, 21157, Note_on_c, 0, 79, 67
1, 21170, Note_off_c, 0, 81, 62
1, 21204, Note_off_c, 0, 79, 65
1, 21206, Control_c, 0, 64, 55
1, 21212, Note_on_c, 0, 72, 66
1, 21245, Note_off_c, 0, 72, 63
1, 21281, Control_c, 0, 64, 55
1, 21300, Note_on_c, 0, 70, 62
1, 21318, Note_off_c, 0, 48, 48
1, 21327, Note_on_c, 0, 47, 60
1, 21347, Note_on_c, 0, 69, 70
1, 21378, Note_off_c, 0, 70, 52
1, 21397, Note_on_c, 0, 67, 61
1, 21408, Note_on_c, 0, 48, 66
1, 21414, Note_off_c, 0, 47, 61
1, 21420, Note_off_c, 0, 69, 65
1, 21441, Note_off_c, 0, 67, 64
1, 21445, Note_off_c, 0, 48, 63
1, 21450, Note_on_c, 0, 60, 69
1, 21486, Note_off_c, 0, 60, 63
1, 21527, Note_on_c, 0, 58, 71
1, 21577, Note_off_c, 0, 40, 55
1, 21598, Note_on_c, 0, 57, 62
1, 21599, Control_c, 0, 64, 55
1, 21610, Note_off_c, 0, 58, 51
1, 21614, Control_c, 0, 64, 53
1, 21616, Note_on_c, 0, 48, 60
1, 21622, Note_on_c, 0, 40, 50
1, 21629, Control_c, 0, 64, 52
1, 21637, Note_on_c, 0, 55, 72
1, 21644, Note_off_c, 0, 48, 67
1, 21644, Control_c, 0, 64, 51
1, 21652, Note_off_c, 0, 57, 63
1, 21658, Control_c, 0, 64, 50
1, 21671, Note_off_c, 0, 40, 64
1, 21673, Control_c, 0, 64, 48
1, 21679, Note_off_c, 0, 55, 63
1, 21688, Control_c, 0, 64, 47
1, 21703, Control_c, 0, 64, 45
1, 21707, Note_on_c, 0, 48, 70
1, 21717, Control_c, 0, 64, 44
1, 21732, Control_c, 0, 64, 43
1, 21756, Note_off_c, 0, 48, 61
1, 21771, Note_on_c, 0, 55, 60
1, 21807, Note_off_c, 0, 55, 62
1, 21819, Note_on_c, 0, 58, 60
1, 21821, Control_c, 0, 64, 45
1, 21836, Control_c, 0, 64, 49
1, 21851, Control_c, 0, 64, 53
1, 21865, Control_c, 0, 64, 58
1, 21872, Note_on_c, 0, 29, 68
1, 21877, Note_on_c, 0, 41, 66
1, 21880, Control_c, 0, 64, 61
1, 21882, Note_on_c, 0, 57, 64
1, 21895, Control_c, 0, 64, 64
1, 21909, Control_c, 0, 64, 67
1, 21912, Note_off_c, 0, 29, 63
1, 21916, Note_off_c, 0, 58, 64
1, 21924, Control_c, 0, 64, 70
1, 21937, Note_off_c, 0, 41, 62
1, 21937, Note_off_c, 0, 57, 63
1, 21939, Control_c, 0, 64, 73
1, 21944, Note_on_c, 0, 48, 74
1, 21954, Control_c, 0, 64, 75
1, 21969, Control_c, 0, 64, 77
1, 21983, Control_c, 0, 64, 79
1, 21998, Note_on_c, 0, 53, 67
1, 21998, Note_off_c, 0, 48, 64
1, 21998, Control_c, 0, 64, 80
1, 22013, Control_c, 0, 64, 81
1, 22028, Control_c, 0, 64, 82
1, 22043, Control_c, 0, 64, 83
1, 22058, Control_c, 0, 64, 83
1, 22061, Note_on_c, 0, 55, 73
1, 22064, Note_off_c, 0, 53, 61
1, 22088, Control_c, 0, 64, 80
1, 22111, Control_c, 0, 64, 69
1, 22126, Control_c, 0, 64, 55
1, 22131, Note_on_c, 0, 57, 74
1, 22133, Note_on_c, 0, 50, 76
1, 22140, Control_c, 0, 64, 41
1, 22144, Note_off_c, 0, 55, 65
1, 22155, Control_c, 0, 64, 34
1, 22157, Note_off_c, 0, 57, 66
1, 22170, Control_c, 0, 64, 36
1, 22185, Control_c, 0, 64, 44
1, 22194, Note_on_c, 0, 60, 78
1, 22200, Control_c, 0, 64, 53
1, 22214, Control_c, 0, 64, 60
1, 22229, Control_c, 0, 64, 65
1, 22244, Control_c, 0, 64, 68
1, 22246, Note_off_c, 0, 60, 63
1, 22254, Note_on_c, 0, 65, 76
1, 22259, Control_c, 0, 64, 69
1, 22274, Note_on_c, 0, 48, 78
1, 22284, Note_off_c, 0, 50, 59
1, 22288, Control_c, 0, 64, 67
1, 22303, Control_c, 0, 64, 60
1, 22307, Note_on_c, 0, 67, 76
1, 22318, Control_c, 0, 64, 38
1, 22321, Note_off_c, 0, 65, 62
1, 22332, Control_c, 0, 64, 0
1, 22368, Note_on_c, 0, 53, 86
1, 22370, Note_on_c, 0, 69, 74
1, 22377, Control_c, 0, 64, 13
1, 22382, Note_off_c, 0, 67, 65
1, 22392, Note_off_c, 0, 69, 69
1, 22392, Control_c, 0, 64, 39
1, 22403, Note_off_c, 0, 48, 64
1, 22407, Control_c, 0, 64, 53
1, 22421, Control_c, 0, 64, 63
1, 22431, Note_off_c, 0, 53, 63
1, 22436, Control_c, 0, 64, 68
1, 22439, Note_on_c, 0, 72, 78
1, 22451, Control_c, 0, 64, 72
1, 22466, Control_c, 0, 64, 76
1, 22481, Control_c, 0, 64, 79
1, 22484, Note_off_c, 0, 72, 63
1, 22496, Note_on_c, 0, 77, 81
1, 22496, Control_c, 0, 64, 81
1, 22511, Control_c, 0, 64, 83
1, 22526, Control_c, 0, 64, 85
1, 22534, Poly_aftertouch_c, 0, 69, 0
1, 22540, Control_c, 0, 64, 86
1, 22555, Note_on_c, 0, 79, 76
1, 22555, Control_c, 0, 64, 87
1, 22570, Control_c, 0, 64, 88
1, 22577, Note_off_c, 0, 77, 62
1, 22585, Control_c, 0, 64, 90
1, 22600, Control_c, 0, 64, 94
1, 22600, Note_on_c, 0, 65, 83
1, 22606, Note_on_c, 0, 81, 76
1, 22614, Control_c, 0, 64, 100
1, 22617, Note_off_c, 0, 79, 67
1, 22625, Note_off_c, 0, 65, 67
1, 22627, Note_off_c, 0, 81, 68
1, 22629, Control_c, 0, 64, 110
1, 22644, Control_c, 0, 64, 127
1, 22677, Note_on_c, 0, 84, 83
1, 22716, Poly_aftertouch_c, 0, 83, 0
1, 22726, Note_on_c, 0, 81, 3
1, 22727, Note_off_c, 0, 84, 66
1, 22728, Note_on_c, 0, 89, 83
1, 22762, Note_off_c, 0, 81, 27
1, 22791, Note_on_c, 0, 93, 83
1, 22798, Note_off_c, 0, 89, 64
1, 22868, Note_on_c, 0, 91, 87
1, 22873, Control_c, 0, 64, 91
1, 22879, Note_on_c, 0, 65, 67
1, 22881, Note_on_c, 0, 62, 64
1, 22889, Control_c, 0, 64, 67
1, 22893, Note_on_c, 0, 58, 58
1, 22899, Note_on_c, 0, 53, 57
1, 22904, Control_c, 0, 64, 51
1, 22913, Note_off_c, 0, 93, 62
1, 22919, Control_c, 0, 64, 30
1, 22924, Note_on_c, 0, 89, 80
1, 22940, Note_off_c, 0, 91, 66
1, 22949, Control_c, 0, 64, 43
1, 22963, Control_c, 0, 64, 56
1, 22970, Note_off_c, 0, 89, 66
1, 22978, Control_c, 0, 64, 64
1, 22993, Control_c, 0, 64, 72
1, 23002, Note_on_c, 0, 86, 71
1, 23008, Control_c, 0, 64, 80
1, 23020, Note_off_c, 0, 65, 60
1, 23023, Control_c, 0, 64, 88
1, 23028, Note_off_c, 0, 86, 68
1, 23037, Control_c, 0, 64, 92
1, 23052, Note_off_c, 0, 53, 59
1, 23052, Control_c, 0, 64, 94
1, 23066, Note_off_c, 0, 62, 65
1, 23067, Control_c, 0, 64, 97
1, 23074, Note_on_c, 0, 82, 75
1, 23081, Control_c, 0, 64, 101
1, 23096, Control_c, 0, 64, 105
1, 23097, Note_off_c, 0, 58, 64
1, 23111, Control_c, 0, 64, 110
1, 23126, Control_c, 0, 64, 114
1, 23141, Control_c, 0, 64, 115
1, 23152, Note_on_c, 0, 79, 66
1, 23155, Control_c, 0, 64, 116
1, 23163, Note_off_c, 0, 82, 57
1, 23170, Control_c, 0, 64, 117
1, 23185, Control_c, 0, 64, 119
1, 23196, Note_on_c, 0, 77, 62
1, 23200, Control_c, 0, 64, 127
1, 23208, Note_off_c, 0, 79, 65
1, 23247, Note_on_c, 0, 74, 69
1, 23249, Note_off_c, 0, 77, 64
1, 23280, Note_off_c, 0, 74, 63
1, 23313, Note_on_c, 0, 70, 80
1, 23333, Control_c, 0, 64, 106
1, 23345, Note_off_c, 0, 70, 62
1, 23348, Control_c, 0, 64, 77
1, 23363, Control_c, 0, 64, 58
1, 23378, Control_c, 0, 64, 23
1, 23379, Note_on_c, 0, 65, 77
1, 23390, Note_on_c, 0, 72, 82
1, 23390, Note_on_c, 0, 60, 70
1, 23392, Note_on_c, 0, 53, 58
1, 23393, Control_c, 0, 64, 0
1, 23394, Note_on_c, 0, 57, 62
1, 23423, Control_c, 0, 64, 28
1, 23437, Control_c, 0, 64, 47
1, 23441, Note_off_c, 0, 72, 63
1, 23441, Note_on_c, 0, 77, 79
1, 23452, Control_c, 0, 64, 59
1, 23467, Control_c, 0, 64, 65
1, 23481, Control_c, 0, 64, 69
1, 23484, Note_off_c, 0, 53, 53
1, 23486, Note_off_c, 0, 65, 59
1, 23496, Control_c, 0, 64, 72
1, 23507, Note_on_c, 0, 79, 83
1, 23511, Control_c, 0, 64, 75
1, 23513, Note_off_c, 0, 77, 60
1, 23514, Note_off_c, 0, 60, 59
1, 23523, Note_off_c, 0, 57, 63
1, 23526, Control_c, 0, 64, 81
1, 23541, Control_c, 0, 64, 87
1, 23554, Note_on_c, 0, 81, 80
1, 23555, Control_c, 0, 64, 94
1, 23570, Control_c, 0, 64, 100
1, 23575, Note_off_c, 0, 79, 66
1, 23579, Note_off_c, 0, 81, 69
1, 23585, Control_c, 0, 64, 105
1, 23600, Control_c, 0, 64, 109
1, 23623, Control_c, 0, 64, 120
1, 23631, Note_on_c, 0, 65, 87
1, 23637, Control_c, 0, 64, 127
1, 23637, Note_on_c, 0, 53, 72
1, 23640, Note_on_c, 0, 60, 81
1, 23643, Note_on_c, 0, 84, 85
1, 23653, Note_on_c, 0, 57, 66
1, 23664, Note_off_c, 0, 65, 63
1, 23669, Note_off_c, 0, 53, 64
1, 23693, Note_off_c, 0, 57, 62
1, 23694, Note_off_c, 0, 60, 61
1, 23694, Note_off_c, 0, 84, 66
1, 23702, Note_on_c, 0, 89, 87
1, 23766, Note_on_c, 0, 91, 86
1, 23789, Note_off_c, 0, 89, 67
1, 23827, Note_on_c, 0, 93, 90
1, 23851, Note_off_c, 0, 91, 66
1, 23904, Control_c, 0, 64, 97
1, 23909, Note_on_c, 0, 65, 86
1, 23912, Note_on_c, 0, 62, 80
1, 23914, Note_on_c, 0, 53, 73
1, 23917, Note_on_c, 0, 91, 88
1, 23919, Control_c, 0, 64, 68
1, 23925, Note_on_c, 0, 58, 75
1, 23934, Control_c, 0, 64, 48
1, 23949, Note_off_c, 0, 93, 65
1, 23949, Control_c, 0, 64, 0
1, 23989, Note_on_c, 0, 89, 77
1, 24007, Note_off_c, 0, 91, 65
1, 24008, Control_c, 0, 64, 36
1, 24023, Control_c, 0, 64, 53
1, 24038, Control_c, 0, 64, 62
1, 24052, Note_off_c, 0, 89, 65
1, 24052, Control_c, 0, 64, 67
1, 24055, Note_on_c, 0, 86, 75
1, 24067, Control_c, 0, 64, 71
1, 24079, Note_off_c, 0, 86, 68
1, 24082, Control_c, 0, 64, 76
1, 24097, Control_c, 0, 64, 80
1, 24103, Note_off_c, 0, 65, 60
1, 24111, Control_c, 0, 64, 85
1, 24126, Control_c, 0, 64, 90
1, 24130, Note_on_c, 0, 82, 79
1, 24138, Note_off_c, 0, 53, 54
1, 24141, Control_c, 0, 64, 95
1, 24146, Note_off_c, 0, 62, 65
1, 24156, Control_c, 0, 64, 99
1, 24171, Control_c, 0, 64, 101
1, 24184, Note_on_c, 0, 79, 75
1, 24184, Note_off_c, 0, 58, 63
1, 24186, Control_c, 0, 64, 102
1, 24201, Control_c, 0, 64, 103
1, 24222, Note_off_c, 0, 82, 56
1, 24231, Control_c, 0, 64, 103
1, 24246, Control_c, 0, 64, 104
1, 24249, Note_on_c, 0, 77, 71
1, 24253, Note_off_c, 0, 79, 65
1, 24260, Control_c, 0, 64, 104
1, 24275, Control_c, 0, 64, 105
1, 24282, Note_off_c, 0, 77, 65
1, 24290, Control_c, 0, 64, 106
1, 24291, Note_on_c, 0, 74, 72
1, 24304, Control_c, 0, 64, 108
1, 24319, Control_c, 0, 64, 110
1, 24328, Note_off_c, 0, 74, 62
1, 24334, Control_c, 0, 64, 112
1, 24370, Note_on_c, 0, 70, 78
1, 24386, Control_c, 0, 64, 104
1, 24401, Control_c, 0, 64, 85
1, 24402, Note_off_c, 0, 70, 61
1, 24415, Control_c, 0, 64, 66
1, 24430, Control_c, 0, 64, 41
1, 24436, Note_on_c, 0, 65, 64
1, 24436, Note_on_c, 0, 72, 76
1, 24442, Note_on_c, 0, 53, 55
1, 24444, Note_on_c, 0, 60, 54
1, 24445, Control_c, 0, 64, 0
1, 24454, Note_on_c, 0, 57, 55
1, 24490, Control_c, 0, 64, 19
1, 24499, Note_on_c, 0, 77, 78
1, 24499, Note_off_c, 0, 72, 64
1, 24505, Control_c, 0, 64, 43
1, 24520, Control_c, 0, 64, 56
1, 24535, Control_c, 0, 64, 65
1, 24550, Control_c, 0, 64, 70
1, 24564, Note_on_c, 0, 79, 82
1, 24564, Control_c, 0, 64, 77
1, 24565, Note_off_c, 0, 53, 62
1, 24571, Note_off_c, 0, 77, 64
1, 24574, Note_off_c, 0, 65, 63
1, 24579, Control_c, 0, 64, 84
1, 24591, Note_off_c, 0, 60, 62
1, 24594, Control_c, 0, 64, 91
1, 24597, Note_off_c, 0, 57, 59
1, 24609, Control_c, 0, 64, 100
1, 24618, Note_on_c, 0, 81, 80
1, 24624, Control_c, 0, 64, 127
1, 24636, Note_off_c, 0, 79, 66
1, 24642, Note_off_c, 0, 81, 70
1, 24672, Note_on_c, 0, 53, 52
1, 24676, Note_on_c, 0, 65, 52
1, 24681, Note_on_c, 0, 57, 38
1, 24698, Note_off_c, 0, 65, 60
1, 24699, Note_on_c, 0, 84, 81
1, 24705, Note_off_c, 0, 53, 50
1, 24708, Note_off_c, 0, 57, 57
1, 24755, Note_on_c, 0, 89, 70
1, 24755, Note_off_c, 0, 84, 65
1, 24821, Note_on_c, 0, 91, 76
1, 24837, Note_off_c, 0, 89, 60
1, 24840, Note_on_c, 0, 46, 58
1, 24885, Note_on_c, 0, 93, 73
1, 24890, Control_c, 0, 64, 87
1, 24904, Note_off_c, 0, 91, 58
1, 24905, Control_c, 0, 64, 63
1, 24918, Note_on_c, 0, 53, 62
1, 24920, Control_c, 0, 64, 38
1, 24934, Control_c, 0, 64, 0
1, 24964, Control_c, 0, 64, 21
1, 24970, Note_off_c, 0, 46, 64
1, 24979, Control_c, 0, 64, 46
1, 24988, Note_on_c, 0, 55, 65
1, 24994, Control_c, 0, 64, 59
1, 25009, Control_c, 0, 64, 65
1, 25024, Control_c, 0, 64, 70
1, 25028, Note_off_c, 0, 93, 53
1, 25038, Control_c, 0, 64, 71
1, 25052, Note_on_c, 0, 62, 88
1, 25053, Control_c, 0, 64, 73
1, 25059, Note_on_c, 0, 91, 62
1, 25068, Control_c, 0, 64, 75
1, 25083, Control_c, 0, 64, 78
1, 25105, Control_c, 0, 64, 81
1, 25120, Control_c, 0, 64, 83
1, 25134, Control_c, 0, 64, 85
1, 25137, Note_off_c, 0, 91, 62
1, 25147, Note_on_c, 0, 93, 70
1, 25149, Control_c, 0, 64, 85
1, 25164, Control_c, 0, 64, 86
1, 25179, Control_c, 0, 64, 87
1, 25194, Control_c, 0, 64, 88
1, 25208, Control_c, 0, 64, 90
1, 25216, Note_on_c, 0, 91, 70
1, 25223, Control_c, 0, 64, 92
1, 25229, Note_off_c, 0, 93, 59
1, 25238, Control_c, 0, 64, 94
1, 25253, Control_c, 0, 64, 96
1, 25266, Note_off_c, 0, 91, 64
1, 25267, Note_on_c, 0, 89, 61
1, 25268, Control_c, 0, 64, 97
1, 25284, Control_c, 0, 64, 98
1, 25290, Note_off_c, 0, 89, 63
1, 25299, Control_c, 0, 64, 101
1, 25310, Note_on_c, 0, 86, 64
1, 25313, Control_c, 0, 64, 105
1, 25328, Control_c, 0, 64, 110
1, 25337, Note_off_c, 0, 86, 68
1, 25343, Control_c, 0, 64, 114
1, 25357, Control_c, 0, 64, 115
1, 25372, Control_c, 0, 64, 117
1, 25387, Note_on_c, 0, 82, 70
1, 25387, Control_c, 0, 64, 118
1, 25402, Control_c, 0, 64, 119
1, 25417, Control_c, 0, 64, 120
1, 25442, Note_off_c, 0, 82, 47
1, 25450, Note_on_c, 0, 84, 72
1, 25479, Note_off_c, 0, 62, 51
1, 25498, Note_on_c, 0, 81, 65
1, 25524, Note_off_c, 0, 84, 64
1, 25556, Note_off_c, 0, 81, 63
1, 25568, Note_on_c, 0, 79, 73
1, 25598, Note_off_c, 0, 79, 65
1, 25629, Note_on_c, 0, 81, 65
1, 25682, Note_on_c, 0, 79, 65
1, 25694, Note_off_c, 0, 81, 57
1, 25741, Note_on_c, 0, 77, 60
1, 25747, Note_off_c, 0, 79, 65
1, 25772, Note_off_c, 0, 77, 65
1, 25790, Note_off_c, 0, 55, 27
1, 25791, Note_on_c, 0, 74, 64
1, 25792, Note_off_c, 0, 53, 17
1, 25819, Note_off_c, 0, 74, 67
1, 25880, Note_on_c, 0, 70, 61
1, 25922, Note_on_c, 0, 72, 73
1, 25926, Note_off_c, 0, 70, 59
1, 25983, Note_on_c, 0, 69, 53
1, 25986, Note_off_c, 0, 72, 62
1, 25988, Control_c, 0, 64, 118
1, 26003, Control_c, 0, 64, 105
1, 26018, Control_c, 0, 64, 92
1, 26032, Control_c, 0, 64, 75
1, 26046, Note_on_c, 0, 62, 81
1, 26047, Note_off_c, 0, 69, 64
1, 26047, Control_c, 0, 64, 63
1, 26050, Note_on_c, 0, 67, 60
1, 26062, Control_c, 0, 64, 49
1, 26073, Note_on_c, 0, 48, 53
1, 26078, Control_c, 0, 64, 24
1, 26079, Note_on_c, 0, 53, 48
1, 26082, Note_on_c, 0, 55, 51
1, 26089, Note_off_c, 0, 67, 59
1, 26093, Control_c, 0, 64, 0
1, 26121, Note_on_c, 0, 69, 52
1, 26137, Control_c, 0, 64, 25
1, 26151, Note_off_c, 0, 69, 67
1, 26152, Control_c, 0, 64, 41
1, 26166, Note_on_c, 0, 67, 70
1, 26167, Control_c, 0, 64, 52
1, 26181, Control_c, 0, 64, 60
1, 26196, Control_c, 0, 64, 64
1, 26207, Note_off_c, 0, 67, 60
1, 26210, Control_c, 0, 64, 67
1, 26225, Control_c, 0, 64, 69
1, 26231, Note_on_c, 0, 74, 65
1, 26240, Control_c, 0, 64, 71
1, 26255, Control_c, 0, 64, 73
1, 26270, Control_c, 0, 64, 75
1, 26284, Control_c, 0, 64, 78
1, 26290, Note_off_c, 0, 74, 64
1, 26296, Note_on_c, 0, 72, 65
1, 26299, Control_c, 0, 64, 80
1, 26314, Control_c, 0, 64, 82
1, 26329, Control_c, 0, 64, 83
1, 26341, Note_off_c, 0, 72, 58
1, 26344, Control_c, 0, 64, 85
1, 26355, Note_on_c, 0, 74, 61
1, 26359, Control_c, 0, 64, 87
1, 26374, Control_c, 0, 64, 88
1, 26388, Control_c, 0, 64, 90
1, 26391, Note_off_c, 0, 74, 63
1, 26403, Control_c, 0, 64, 92
1, 26418, Control_c, 0, 64, 94
1, 26433, Control_c, 0, 64, 97
1, 26437, Note_off_c, 0, 62, 59
1, 26445, Note_on_c, 0, 72, 37
1, 26448, Control_c, 0, 64, 99
1, 26462, Control_c, 0, 64, 102
1, 26472, Note_off_c, 0, 72, 52
1, 26477, Control_c, 0, 64, 104
1, 26492, Control_c, 0, 64, 105
1, 26502, Note_on_c, 0, 81, 55
1, 26526, Note_off_c, 0, 81, 66
1, 26536, Control_c, 0, 64, 104
1, 26551, Control_c, 0, 64, 104
1, 26648, Control_c, 0, 64, 104
1, 26662, Control_c, 0, 64, 105
1, 26677, Control_c, 0, 64, 106
1, 26688, Note_off_c, 0, 55, 59
1, 26692, Control_c, 0, 64, 106
1, 26695, Poly_aftertouch_c, 0, 84, 0
1, 26714, Note_off_c, 0, 53, 57
1, 26721, Control_c, 0, 64, 106
1, 26733, Note_on_c, 0, 60, 79
1, 26736, Control_c, 0, 64, 90
1, 26739, Note_on_c, 0, 79, 66
1, 26740, Note_on_c, 0, 81, 52
1, 26742, Note_on_c, 0, 52, 69
1, 26751, Control_c, 0, 64, 74
1, 26761, Note_off_c, 0, 81, 61
1, 26766, Control_c, 0, 64, 62
1, 26771, Note_off_c, 0, 79, 63
1, 26780, Control_c, 0, 64, 51
1, 26795, Control_c, 0, 64, 43
1, 26803, Note_on_c, 0, 81, 66
1, 26810, Control_c, 0, 64, 38
1, 26824, Control_c, 0, 64, 40
1, 26834, Note_off_c, 0, 81, 67
1, 26839, Control_c, 0, 64, 51
1, 26854, Control_c, 0, 64, 59
1, 26869, Control_c, 0, 64, 65
1, 26884, Note_on_c, 0, 79, 67
1, 26885, Control_c, 0, 64, 70
1, 26900, Control_c, 0, 64, 75
1, 26915, Control_c, 0, 64, 79
1, 26921, Note_off_c, 0, 79, 62
1, 26925, Note_on_c, 0, 86, 72
1, 26929, Control_c, 0, 64, 81
1, 26974, Control_c, 0, 64, 81
1, 26988, Note_off_c, 0, 86, 63
1, 26988, Note_on_c, 0, 58, 75
1, 26989, Control_c, 0, 64, 82
1, 27000, Note_off_c, 0, 60, 62
1, 27003, Note_on_c, 0, 84, 71
1, 27003, Control_c, 0, 64, 83
1, 27018, Control_c, 0, 64, 85
1, 27021, Note_off_c, 0, 52, 63
1, 27025, Note_off_c, 0, 58, 65
1, 27033, Control_c, 0, 64, 86
1, 27036, Note_off_c, 0, 84, 62
1, 27048, Control_c, 0, 64, 87
1, 27062, Note_off_c, 0, 48, 59
1, 27063, Control_c, 0, 64, 88
1, 27064, Note_on_c, 0, 86, 62
1, 27077, Control_c, 0, 64, 89
1, 27086, Note_off_c, 0, 86, 67
1, 27092, Control_c, 0, 64, 89
1, 27106, Note_on_c, 0, 84, 70
1, 27107, Control_c, 0, 64, 90
1, 27137, Control_c, 0, 64, 90
1, 27157, Note_off_c, 0, 84, 64
1, 27170, Note_on_c, 0, 41, 62
1, 27196, Note_on_c, 0, 98, 72
1, 27242, Note_on_c, 0, 48, 63
1, 27247, Note_off_c, 0, 41, 62
1, 27297, Note_on_c, 0, 52, 60
1, 27298, Note_off_c, 0, 98, 57
1, 27344, Control_c, 0, 64, 88
1, 27356, Note_on_c, 0, 58, 76
1, 27367, Control_c, 0, 64, 81
1, 27379, Note_on_c, 0, 96, 66
1, 27381, Control_c, 0, 64, 69
1, 27396, Control_c, 0, 64, 58
1, 27411, Control_c, 0, 64, 42
1, 27426, Control_c, 0, 64, 27
1, 27441, Control_c, 0, 64, 24
1, 27444, Note_off_c, 0, 96, 63
1, 27453, Note_on_c, 0, 98, 70
1, 27455, Control_c, 0, 64, 35
1, 27470, Control_c, 0, 64, 47
1, 27485, Control_c, 0, 64, 56
1, 27500, Control_c, 0, 64, 62
1, 27515, Control_c, 0, 64, 65
1, 27519, Note_on_c, 0, 96, 68
1, 27529, Control_c, 0, 64, 67
1, 27544, Control_c, 0, 64, 68
1, 27559, Control_c, 0, 64, 70
1, 27562, Note_off_c, 0, 98, 61
1, 27568, Note_on_c, 0, 94, 78
1, 27574, Control_c, 0, 64, 72
1, 27589, Control_c, 0, 64, 75
1, 27603, Control_c, 0, 64, 78
1, 27618, Control_c, 0, 64, 80
1, 27627, Note_on_c, 0, 91, 77
1, 27633, Note_off_c, 0, 96, 65
1, 27633, Control_c, 0, 64, 81
1, 27647, Control_c, 0, 64, 81
1, 27658, Note_off_c, 0, 94, 63
1, 27662, Control_c, 0, 64, 82
1, 27679, Control_c, 0, 64, 82
1, 27689, Note_off_c, 0, 91, 64
1, 27694, Control_c, 0, 64, 83
1, 27703, Note_on_c, 0, 88, 57
1, 27708, Control_c, 0, 64, 83
1, 27728, Note_off_c, 0, 88, 57
1, 27767, Note_on_c, 0, 89, 64
1, 27815, Note_on_c, 0, 86, 76
1, 27835, Note_off_c, 0, 58, 33
1, 27838, Note_off_c, 0, 89, 63
1, 27856, Control_c, 0, 67, 8
1, 27866, Note_off_c, 0, 86, 64
1, 27883, Note_on_c, 0, 84, 64
1, 27911, Note_off_c, 0, 84, 63
1, 27915, Control_c, 0, 67, 8
1, 27938, Note_off_c, 0, 52, 51
1, 27951, Note_on_c, 0, 86, 71
1, 28003, Note_on_c, 0, 84, 71
1, 28008, Note_off_c, 0, 86, 65
1, 28019, Control_c, 0, 67, 8
1, 28034, Control_c, 0, 64, 84
1, 28063, Note_on_c, 0, 82, 73
1, 28064, Control_c, 0, 64, 84
1, 28064, Control_c, 0, 67, 0
1, 28082, Note_off_c, 0, 48, 34
1, 28088, Note_off_c, 0, 84, 66
1, 28093, Control_c, 0, 64, 85
1, 28130, Note_on_c, 0, 79, 61
1, 28146, Note_off_c, 0, 82, 64
1, 28162, Note_on_c, 0, 41, 62
1, 28167, Note_off_c, 0, 79, 65
1, 28175, Note_on_c, 0, 76, 69
1, 28189, Control_c, 0, 64, 79
1, 28202, Note_off_c, 0, 41, 60
1, 28202, Note_off_c, 0, 76, 66
1, 28204, Control_c, 0, 64, 68
1, 28219, Control_c, 0, 64, 58
1, 28223, Note_on_c, 0, 48, 49
1, 28234, Control_c, 0, 64, 46
1, 28242, Note_on_c, 0, 77, 71
1, 28249, Control_c, 0, 64, 33
1, 28264, Control_c, 0, 64, 31
1, 28278, Control_c, 0, 64, 34
1, 28281, Note_on_c, 0, 53, 28
1, 28293, Control_c, 0, 64, 42
1, 28306, Note_on_c, 0, 74, 66
1, 28308, Control_c, 0, 64, 51
1, 28308, Note_off_c, 0, 77, 58
1, 28323, Control_c, 0, 64, 57
1, 28338, Control_c, 0, 64, 61
1, 28338, Control_c, 0, 67, 8
1, 28352, Note_on_c, 0, 57, 57
1, 28352, Control_c, 0, 64, 62
1, 28352, Control_c, 0, 67, 8
1, 28361, Note_off_c, 0, 74, 65
1, 28367, Note_on_c, 0, 72, 62
1, 28367, Control_c, 0, 64, 62
1, 28367, Control_c, 0, 67, 9
1, 28382, Control_c, 0, 64, 59
1, 28382, Control_c, 0, 67, 10
1, 28394, Note_off_c, 0, 72, 66
1, 28397, Control_c, 0, 64, 55
1, 28397, Control_c, 0, 67, 10
1, 28412, Control_c, 0, 64, 51
1, 28412, Control_c, 0, 67, 11
1, 28426, Control_c, 0, 64, 49
1, 28426, Control_c, 0, 67, 13
1, 28441, Note_on_c, 0, 74, 65
1, 28441, Control_c, 0, 67, 14
1, 28457, Control_c, 0, 64, 52
1, 28457, Control_c, 0, 67, 16
1, 28472, Control_c, 0, 64, 55
1, 28472, Control_c, 0, 67, 17
1, 28485, Note_on_c, 0, 72, 58
1, 28487, Note_off_c, 0, 74, 58
1, 28487, Control_c, 0, 64, 58
1, 28487, Control_c, 0, 67, 17
1, 28502, Control_c, 0, 64, 60
1, 28502, Control_c, 0, 67, 18
1, 28517, Control_c, 0, 64, 62
1, 28532, Control_c, 0, 67, 18
1, 28547, Control_c, 0, 64, 61
1, 28547, Control_c, 0, 67, 19
1, 28550, Note_on_c, 0, 69, 63
1, 28562, Control_c, 0, 64, 59
1, 28562, Control_c, 0, 67, 20
1, 28562, Note_off_c, 0, 72, 62
1, 28576, Control_c, 0, 64, 57
1, 28576, Control_c, 0, 67, 21
1, 28591, Control_c, 0, 64, 54
1, 28596, Note_off_c, 0, 69, 67
1, 28606, Note_on_c, 0, 65, 66
1, 28606, Control_c, 0, 64, 50
1, 28621, Control_c, 0, 64, 47
1, 28633, Note_off_c, 0, 65, 66
1, 28636, Control_c, 0, 64, 44
1, 28645, Note_off_c, 0, 57, 34
1, 28650, Control_c, 0, 64, 42
1, 28650, Control_c, 0, 67, 20
1, 28665, Control_c, 0, 64, 39
1, 28665, Control_c, 0, 67, 20
1, 28680, Control_c, 0, 64, 36
1, 28688, Note_on_c, 0, 60, 58
1, 28694, Control_c, 0, 64, 33
1, 28694, Control_c, 0, 67, 19
1, 28699, Note_off_c, 0, 53, 56
1, 28709, Control_c, 0, 64, 32
1, 28710, Note_off_c, 0, 60, 59
1, 28724, Control_c, 0, 67, 19
1, 28733, Note_off_c, 0, 48, 44
1, 28741, Note_on_c, 0, 62, 70
1, 28804, Note_on_c, 0, 58, 61
1, 28807, Note_off_c, 0, 62, 62
1, 28828, Control_c, 0, 64, 33
1, 28838, Note_off_c, 0, 58, 64
1, 28850, Control_c, 0, 64, 33
1, 28850, Control_c, 0, 67, 19
1, 28870, Note_on_c, 0, 57, 56
1, 28880, Control_c, 0, 64, 34
1, 28880, Control_c, 0, 67, 20
1, 28895, Control_c, 0, 64, 34
1, 28896, Note_off_c, 0, 57, 64
1, 28909, Control_c, 0, 64, 36
1, 28924, Control_c, 0, 64, 37
1, 28939, Control_c, 0, 64, 38
1, 28939, Control_c, 0, 67, 20
1, 28948, Note_on_c, 0, 52, 53
1, 28954, Control_c, 0, 64, 39
1, 28976, Note_on_c, 0, 53, 23
1, 28979, Note_off_c, 0, 52, 54
1, 28983, Control_c, 0, 67, 21
1, 29013, Control_c, 0, 67, 21
1, 29043, Note_on_c, 0, 50, 68
1, 29057, Control_c, 0, 64, 40
1, 29061, Note_off_c, 0, 53, 60
1, 29072, Control_c, 0, 67, 22
1, 29078, Note_off_c, 0, 50, 66
1, 29099, Note_on_c, 0, 48, 76
1, 29101, Control_c, 0, 64, 40
1, 29123, Note_off_c, 0, 48, 67
1, 29146, Control_c, 0, 67, 22
1, 29161, Control_c, 0, 67, 23
1, 29176, Control_c, 0, 67, 25
1, 29182, Note_on_c, 0, 43, 53
1, 29191, Control_c, 0, 64, 40
1, 29191, Control_c, 0, 67, 27
1, 29206, Control_c, 0, 67, 28
1, 29221, Control_c, 0, 64, 40
1, 29224, Note_off_c, 0, 43, 62
1, 29237, Note_on_c, 0, 45, 60
1, 29250, Control_c, 0, 64, 41
1, 29265, Control_c, 0, 64, 42
1, 29280, Control_c, 0, 64, 43
1, 29286, Note_off_c, 0, 45, 59
1, 29295, Control_c, 0, 64, 43
1, 29310, Control_c, 0, 64, 44
1, 29317, Note_on_c, 0, 41, 59
1, 29340, Control_c, 0, 67, 28
1, 29355, Control_c, 0, 67, 29
1, 29370, Control_c, 0, 67, 32
1, 29381, Note_off_c, 0, 41, 59
1, 29385, Control_c, 0, 67, 34
1, 29399, Control_c, 0, 67, 34
1, 29429, Control_c, 0, 64, 43
1, 29429, Control_c, 0, 67, 34
1, 29435, Note_on_c, 0, 89, 52
1, 29438, Note_on_c, 0, 38, 53
1, 29439, Note_on_c, 0, 45, 49
1, 29459, Control_c, 0, 67, 33
1, 29471, Note_off_c, 0, 89, 65
1, 29477, Note_on_c, 0, 88, 70
1, 29488, Control_c, 0, 64, 43
1, 29520, Note_off_c, 0, 88, 59
1, 29551, Note_on_c, 0, 86, 46
1, 29563, Note_off_c, 0, 38, 0
1, 29563, Note_on_c, 0, 38, 3
1, 29581, Note_off_c, 0, 86, 57
1, 29582, Note_on_c, 0, 81, 66
1, 29599, Control_c, 0, 67, 34
1, 29619, Note_off_c, 0, 81, 65
1, 29629, Control_c, 0, 67, 35
1, 29644, Control_c, 0, 64, 43
1, 29644, Control_c, 0, 67, 37
1, 29659, Control_c, 0, 67, 40
1, 29673, Control_c, 0, 67, 42
1, 29686, Note_on_c, 0, 77, 57
1, 29688, Control_c, 0, 67, 44
1, 29703, Control_c, 0, 67, 45
1, 29732, Control_c, 0, 67, 44
1, 29734, Note_on_c, 0, 76, 72
1, 29742, Note_off_c, 0, 77, 60
1, 29762, Control_c, 0, 67, 45
1, 29787, Note_on_c, 0, 74, 55
1, 29796, Note_off_c, 0, 76, 63
1, 29806, Control_c, 0, 64, 43
1, 29827, Note_off_c, 0, 74, 63
1, 29842, Note_on_c, 0, 69, 65
1, 29849, Note_off_c, 0, 45, 53
1, 29868, Note_off_c, 0, 69, 68
1, 29896, Note_on_c, 0, 44, 54
1, 29910, Control_c, 0, 67, 44
1, 29924, Control_c, 0, 67, 44
1, 29925, Note_on_c, 0, 65, 56
1, 29933, Note_off_c, 0, 44, 64
1, 29936, Note_on_c, 0, 45, 65
1, 29963, Note_off_c, 0, 45, 66
1, 29966, Note_off_c, 0, 65, 64
1, 29969, Note_off_c, 0, 38, 56
1, 29969, Control_c, 0, 64, 42
1, 29978, Note_on_c, 0, 64, 54
1, 30013, Control_c, 0, 67, 43
1, 30014, Note_on_c, 0, 62, 61
1, 30019, Note_off_c, 0, 64, 66
1, 30057, Control_c, 0, 64, 42
1, 30059, Note_off_c, 0, 62, 64
1, 30073, Control_c, 0, 67, 43
1, 30076, Note_on_c, 0, 57, 61
1, 30115, Note_off_c, 0, 57, 66
1, 30118, Control_c, 0, 67, 42
1, 30147, Control_c, 0, 67, 42
1, 30161, Note_on_c, 0, 45, 57
1, 30162, Control_c, 0, 64, 42
1, 30166, Note_on_c, 0, 38, 39
1, 30170, Note_on_c, 0, 53, 59
1, 30177, Control_c, 0, 64, 43
1, 30184, Note_off_c, 0, 45, 59
1, 30195, Note_off_c, 0, 38, 53
1, 30207, Control_c, 0, 64, 43
1, 30216, Note_off_c, 0, 53, 62
1, 30231, Note_on_c, 0, 52, 50
1, 30253, Note_on_c, 0, 50, 64
1, 30261, Note_off_c, 0, 52, 64
1, 30303, Note_off_c, 0, 50, 63
1, 30325, Note_on_c, 0, 45, 53
1, 30347, Control_c, 0, 64, 44
1, 30362, Control_c, 0, 64, 45
1, 30377, Control_c, 0, 64, 47
1, 30377, Control_c, 0, 67, 41
1, 30389, Note_off_c, 0, 45, 63
1, 30392, Control_c, 0, 64, 50
1, 30392, Control_c, 0, 67, 40
1, 30407, Control_c, 0, 64, 54
1, 30407, Control_c, 0, 67, 39
1, 30409, Note_on_c, 0, 38, 57
1, 30413, Note_on_c, 0, 50, 62
1, 30414, Note_on_c, 0, 26, 57
1, 30421, Control_c, 0, 64, 58
1, 30421, Control_c, 0, 67, 37
1, 30436, Control_c, 0, 64, 62
1, 30436, Control_c, 0, 67, 33
1, 30443, Note_off_c, 0, 26, 58
1, 30451, Control_c, 0, 64, 64
1, 30451, Control_c, 0, 67, 31
1, 30452, Note_off_c, 0, 38, 65
1, 30463, Note_off_c, 0, 50, 59
1, 30466, Control_c, 0, 64, 65
1, 30466, Control_c, 0, 67, 30
1, 30471, Note_on_c, 0, 52, 72
1, 30480, Control_c, 0, 64, 65
1, 30480, Control_c, 0, 67, 28
1, 30510, Control_c, 0, 67, 29
1, 30515, Note_off_c, 0, 52, 63
1, 30520, Note_on_c, 0, 53, 55
1, 30525, Control_c, 0, 64, 66
1, 30525, Control_c, 0, 67, 30
1, 30540, Control_c, 0, 64, 67
1, 30540, Control_c, 0, 67, 32
1, 30544, Note_off_c, 0, 53, 50
1, 30554, Control_c, 0, 64, 69
1, 30569, Control_c, 0, 64, 70
1, 30569, Control_c, 0, 67, 33
1, 30581, Note_on_c, 0, 57, 69
1, 30584, Control_c, 0, 64, 70
1, 30599, Control_c, 0, 64, 71
1, 30643, Control_c, 0, 64, 70
1, 30647, Note_off_c, 0, 57, 63
1, 30651, Note_on_c, 0, 46, 65
1, 30657, Note_on_c, 0, 62, 63
1, 30658, Control_c, 0, 64, 66
1, 30672, Control_c, 0, 64, 59
1, 30687, Control_c, 0, 64, 48
1, 30702, Control_c, 0, 64, 41
1, 30717, Control_c, 0, 64, 38
1, 30721, Note_on_c, 0, 64, 61
1, 30721, Note_off_c, 0, 62, 63
1, 30732, Control_c, 0, 64, 40
1, 30747, Control_c, 0, 64, 45
1, 30759, Note_off_c, 0, 64, 65
1, 30762, Control_c, 0, 64, 51
1, 30765, Note_on_c, 0, 65, 63
1, 30777, Control_c, 0, 64, 55
1, 30784, Note_off_c, 0, 65, 63
1, 30792, Control_c, 0, 64, 59
1, 30792, Control_c, 0, 67, 33
1, 30806, Control_c, 0, 64, 61
1, 30817, Note_on_c, 0, 45, 74
1, 30821, Control_c, 0, 64, 61
1, 30821, Control_c, 0, 67, 34
1, 30833, Note_on_c, 0, 69, 69
1, 30836, Control_c, 0, 64, 60
1, 30851, Control_c, 0, 64, 57
1, 30866, Control_c, 0, 64, 50
1, 30881, Control_c, 0, 64, 39
1, 30896, Control_c, 0, 64, 23
1, 30911, Control_c, 0, 64, 0
1, 30911, Control_c, 0, 67, 33
1, 30923, Note_off_c, 0, 69, 31
1, 30938, Note_on_c, 0, 53, 79
1, 30941, Control_c, 0, 67, 33
1, 30960, Note_on_c, 0, 74, 66
1, 30970, Control_c, 0, 64, 26
1, 30970, Control_c, 0, 67, 32
1, 30985, Control_c, 0, 64, 41
1, 31000, Control_c, 0, 64, 52
1, 31015, Control_c, 0, 64, 60
1, 31017, Note_off_c, 0, 74, 61
1, 31024, Note_on_c, 0, 76, 69
1, 31030, Control_c, 0, 64, 63
1, 31044, Control_c, 0, 64, 65
1, 31048, Note_off_c, 0, 53, 62
1, 31059, Control_c, 0, 64, 66
1, 31069, Note_off_c, 0, 46, 42
1, 31071, Note_on_c, 0, 77, 61
1, 31071, Note_off_c, 0, 76, 62
1, 31074, Control_c, 0, 64, 68
1, 31087, Note_off_c, 0, 45, 65
1, 31089, Note_off_c, 0, 77, 64
1, 31089, Control_c, 0, 64, 71
1, 31111, Control_c, 0, 64, 75
1, 31111, Control_c, 0, 67, 33
1, 31125, Control_c, 0, 64, 78
1, 31140, Control_c, 0, 64, 81
1, 31146, Note_on_c, 0, 81, 69
1, 31155, Control_c, 0, 64, 84
1, 31155, Control_c, 0, 67, 33
1, 31170, Control_c, 0, 64, 87
1, 31170, Control_c, 0, 67, 34
1, 31185, Control_c, 0, 64, 89
1, 31185, Control_c, 0, 67, 34
1, 31186, Note_off_c, 0, 81, 52
1, 31200, Control_c, 0, 67, 35
1, 31209, Note_on_c, 0, 50, 66
1, 31215, Control_c, 0, 67, 36
1, 31218, Note_on_c, 0, 86, 64
1, 31230, Control_c, 0, 64, 87
1, 31230, Control_c, 0, 67, 37
1, 31244, Control_c, 0, 64, 79
1, 31244, Control_c, 0, 67, 37
1, 31259, Control_c, 0, 64, 68
1, 31259, Control_c, 0, 67, 38
1, 31274, Control_c, 0, 64, 56
1, 31274, Control_c, 0, 67, 38
1, 31277, Note_on_c, 0, 88, 65
1, 31282, Note_off_c, 0, 86, 63
1, 31289, Control_c, 0, 64, 46
1, 31289, Control_c, 0, 67, 39
1, 31303, Control_c, 0, 64, 40
1, 31303, Control_c, 0, 67, 40
1, 31318, Control_c, 0, 64, 42
1, 31333, Control_c, 0, 64, 48
1, 31333, Control_c, 0, 67, 40
1, 31335, Note_on_c, 0, 89, 75
1, 31337, Note_off_c, 0, 88, 67
1, 31348, Control_c, 0, 64, 55
1, 31363, Control_c, 0, 64, 60
1, 31371, Note_on_c, 0, 41, 55
1, 31377, Note_off_c, 0, 50, 61
1, 31377, Control_c, 0, 64, 62
1, 31377, Control_c, 0, 67, 41
1, 31392, Control_c, 0, 64, 60
1, 31394, Note_on_c, 0, 88, 69
1, 31407, Control_c, 0, 64, 53
1, 31421, Note_off_c, 0, 89, 63
1, 31422, Control_c, 0, 64, 40
1, 31437, Control_c, 0, 64, 24
1, 31447, Note_on_c, 0, 86, 66
1, 31451, Control_c, 0, 64, 11
1, 31451, Control_c, 0, 67, 40
1, 31456, Note_on_c, 0, 45, 62
1, 31463, Note_off_c, 0, 41, 61
1, 31465, Note_on_c, 0, 38, 64
1, 31466, Control_c, 0, 64, 12
1, 31466, Control_c, 0, 67, 40
1, 31468, Note_off_c, 0, 88, 67
1, 31481, Control_c, 0, 64, 16
1, 31492, Note_off_c, 0, 86, 64
1, 31495, Control_c, 0, 64, 17
1, 31501, Note_on_c, 0, 81, 68
1, 31510, Control_c, 0, 64, 19
1, 31510, Control_c, 0, 67, 39
1, 31525, Control_c, 0, 64, 22
1, 31527, Note_off_c, 0, 81, 67
1, 31540, Control_c, 0, 64, 26
1, 31555, Control_c, 0, 64, 31
1, 31570, Control_c, 0, 64, 35
1, 31570, Control_c, 0, 67, 39
1, 31585, Control_c, 0, 64, 35
1, 31586, Note_on_c, 0, 77, 67
1, 31599, Control_c, 0, 67, 38
1, 31629, Control_c, 0, 67, 38
1, 31637, Note_on_c, 0, 76, 66
1, 31646, Note_off_c, 0, 77, 61
1, 31683, Note_on_c, 0, 74, 58
1, 31686, Note_off_c, 0, 76, 62
1, 31704, Control_c, 0, 67, 37
1, 31719, Control_c, 0, 64, 36
1, 31722, Note_off_c, 0, 74, 64
1, 31730, Note_on_c, 0, 69, 68
1, 31734, Control_c, 0, 64, 36
1, 31748, Control_c, 0, 64, 37
1, 31755, Note_off_c, 0, 69, 68
1, 31763, Control_c, 0, 64, 37
1, 31778, Control_c, 0, 64, 38
1, 31793, Control_c, 0, 64, 39
1, 31808, Control_c, 0, 64, 39
1, 31813, Note_on_c, 0, 65, 67
1, 31823, Control_c, 0, 64, 40
1, 31852, Note_off_c, 0, 45, 62
1, 31860, Control_c, 0, 64, 40
1, 31873, Note_on_c, 0, 64, 65
1, 31874, Note_on_c, 0, 44, 61
1, 31882, Note_off_c, 0, 65, 53
1, 31889, Control_c, 0, 67, 37
1, 31912, Note_on_c, 0, 62, 66
1, 31919, Control_c, 0, 67, 36
1, 31921, Note_off_c, 0, 64, 62
1, 31933, Control_c, 0, 67, 36
1, 31942, Note_on_c, 0, 45, 64
1, 31942, Note_off_c, 0, 44, 62
1, 31948, Control_c, 0, 64, 41
1, 31954, Note_off_c, 0, 62, 66
1, 31963, Note_on_c, 0, 57, 69
1, 31963, Control_c, 0, 64, 41
1, 31968, Note_off_c, 0, 45, 66
1, 31978, Control_c, 0, 64, 42
1, 31996, Note_off_c, 0, 57, 66
1, 32008, Control_c, 0, 64, 42
1, 32023, Control_c, 0, 64, 44
1, 32023, Control_c, 0, 67, 35
1, 32038, Control_c, 0, 64, 46
1, 32038, Control_c, 0, 67, 35
1, 32039, Note_on_c, 0, 53, 69
1, 32053, Control_c, 0, 64, 47
1, 32053, Control_c, 0, 67, 34
1, 32067, Control_c, 0, 64, 49
1, 32067, Control_c, 0, 67, 34
1, 32082, Control_c, 0, 64, 50
1, 32082, Control_c, 0, 67, 33
1, 32097, Control_c, 0, 67, 32
1, 32102, Note_off_c, 0, 53, 62
1, 32103, Note_on_c, 0, 52, 68
1, 32112, Control_c, 0, 67, 31
1, 32126, Control_c, 0, 64, 50
1, 32126, Control_c, 0, 67, 29
1, 32141, Control_c, 0, 67, 27
1, 32142, Note_on_c, 0, 50, 68
1, 32145, Note_off_c, 0, 52, 62
1, 32153, Note_on_c, 0, 45, 54
1, 32156, Control_c, 0, 64, 51
1, 32156, Control_c, 0, 67, 24
1, 32171, Control_c, 0, 67, 16
1, 32177, Note_off_c, 0, 50, 67
1, 32184, Note_off_c, 0, 38, 59
1, 32186, Control_c, 0, 67, 0
1, 32201, Control_c, 0, 64, 50
1, 32208, Note_off_c, 0, 45, 0
1, 32208, Note_on_c, 0, 45, 54
1, 32216, Control_c, 0, 64, 49
1, 32231, Control_c, 0, 64, 47
1, 32237, Note_off_c, 0, 45, 68
1, 32245, Control_c, 0, 64, 44
1, 32260, Control_c, 0, 64, 43
1, 32263, Note_on_c, 0, 50, 67
1, 32290, Control_c, 0, 64, 44
1, 32305, Control_c, 0, 64, 45
1, 32308, Note_off_c, 0, 50, 64
1, 32315, Note_on_c, 0, 53, 57
1, 32319, Control_c, 0, 64, 47
1, 32334, Control_c, 0, 64, 50
1, 32349, Control_c, 0, 64, 52
1, 32364, Control_c, 0, 64, 54
1, 32379, Note_on_c, 0, 52, 68
1, 32379, Control_c, 0, 64, 58
1, 32383, Note_off_c, 0, 53, 54
1, 32386, Note_on_c, 0, 25, 59
1, 32393, Control_c, 0, 64, 60
1, 32398, Note_on_c, 0, 37, 55
1, 32408, Control_c, 0, 64, 63
1, 32423, Control_c, 0, 64, 65
1, 32425, Note_off_c, 0, 52, 62
1, 32437, Control_c, 0, 64, 66
1, 32450, Note_on_c, 0, 45, 58
1, 32452, Control_c, 0, 64, 68
1, 32458, Note_off_c, 0, 25, 62
1, 32469, Control_c, 0, 64, 70
1, 32480, Note_off_c, 0, 45, 66
1, 32484, Note_off_c, 0, 37, 64
1, 32484, Control_c, 0, 64, 72
1, 32498, Control_c, 0, 64, 73
1, 32511, Note_on_c, 0, 52, 75
1, 32513, Control_c, 0, 64, 75
1, 32528, Control_c, 0, 64, 76
1, 32542, Control_c, 0, 64, 77
1, 32557, Control_c, 0, 64, 78
1, 32562, Note_off_c, 0, 52, 60
1, 32572, Control_c, 0, 64, 79
1, 32578, Note_on_c, 0, 53, 65
1, 32595, Control_c, 0, 64, 80
1, 32610, Control_c, 0, 64, 81
1, 32624, Control_c, 0, 64, 82
1, 32625, Note_on_c, 0, 55, 71
1, 32629, Note_off_c, 0, 53, 63
1, 32639, Control_c, 0, 64, 84
1, 32649, Note_off_c, 0, 55, 65
1, 32654, Control_c, 0, 64, 86
1, 32661, Note_on_c, 0, 46, 76
1, 32669, Control_c, 0, 64, 86
1, 32687, Note_on_c, 0, 57, 75
1, 32743, Note_off_c, 0, 57, 62
1, 32759, Note_on_c, 0, 64, 76
1, 32772, Control_c, 0, 64, 85
1, 32787, Control_c, 0, 64, 81
1, 32792, Note_off_c, 0, 46, 64
1, 32802, Control_c, 0, 64, 73
1, 32804, Note_on_c, 0, 45, 79
1, 32817, Control_c, 0, 64, 63
1, 32819, Note_on_c, 0, 65, 73
1, 32820, Note_off_c, 0, 64, 64
1, 32831, Control_c, 0, 64, 49
1, 32846, Control_c, 0, 64, 16
1, 32861, Control_c, 0, 64, 0
1, 32875, Note_on_c, 0, 67, 73
1, 32877, Note_off_c, 0, 65, 63
1, 32896, Note_off_c, 0, 67, 68
1, 32899, Note_on_c, 0, 52, 85
1, 32920, Control_c, 0, 64, 30
1, 32935, Control_c, 0, 64, 44
1, 32938, Note_on_c, 0, 69, 52
1, 32948, Control_c, 0, 64, 53
1, 32951, Note_off_c, 0, 45, 65
1, 32963, Control_c, 0, 64, 59
1, 32964, Note_on_c, 0, 67, 39
1, 32965, Note_off_c, 0, 67, 127
1, 32978, Control_c, 0, 64, 63
1, 32984, Note_off_c, 0, 52, 65
1, 32993, Control_c, 0, 64, 65
1, 33005, Note_on_c, 0, 76, 78
1, 33008, Control_c, 0, 64, 67
1, 33011, Note_off_c, 0, 69, 63
1, 33022, Control_c, 0, 64, 70
1, 33037, Control_c, 0, 64, 73
1, 33052, Control_c, 0, 64, 76
1, 33066, Control_c, 0, 64, 78
1, 33069, Note_off_c, 0, 76, 62
1, 33070, Note_on_c, 0, 77, 75
1, 33081, Control_c, 0, 64, 79
1, 33096, Control_c, 0, 64, 81
1, 33111, Control_c, 0, 64, 84
1, 33113, Note_off_c, 0, 77, 65
1, 33115, Note_on_c, 0, 79, 72
1, 33126, Control_c, 0, 64, 87
1, 33131, Note_off_c, 0, 79, 68
1, 33133, Note_on_c, 0, 58, 82
1, 33141, Control_c, 0, 64, 92
1, 33155, Note_off_c, 0, 58, 69
1, 33155, Control_c, 0, 64, 96
1, 33167, Note_on_c, 0, 81, 73
1, 33170, Control_c, 0, 64, 101
1, 33185, Control_c, 0, 64, 107
1, 33196, Poly_aftertouch_c, 0, 57, 127
1, 33200, Control_c, 0, 64, 118
1, 33215, Control_c, 0, 64, 127
1, 33224, Poly_aftertouch_c, 0, 57, 0
1, 33232, Note_on_c, 0, 88, 79
1, 33239, Note_off_c, 0, 81, 64
1, 33258, Note_on_c, 0, 58, 3
1, 33270, Note_on_c, 0, 37, 66
1, 33295, Note_on_c, 0, 89, 79
1, 33295, Note_off_c, 0, 58, 32
1, 33300, Note_off_c, 0, 88, 66
1, 33317, Note_on_c, 0, 45, 73
1, 33331, Note_off_c, 0, 37, 64
1, 33349, Note_off_c, 0, 45, 67
1, 33389, Note_off_c, 0, 89, 58
1, 33430, Note_on_c, 0, 57, 84
1, 33431, Control_c, 0, 64, 100
1, 33443, Note_on_c, 0, 91, 76
1, 33445, Control_c, 0, 64, 76
1, 33460, Control_c, 0, 64, 61
1, 33475, Control_c, 0, 64, 45
1, 33489, Control_c, 0, 64, 40
1, 33504, Control_c, 0, 64, 45
1, 33507, Note_on_c, 0, 89, 82
1, 33519, Control_c, 0, 64, 55
1, 33534, Control_c, 0, 64, 64
1, 33549, Control_c, 0, 64, 74
1, 33552, Note_off_c, 0, 91, 60
1, 33561, Note_on_c, 0, 88, 75
1, 33564, Control_c, 0, 64, 90
1, 33568, Note_off_c, 0, 57, 65
1, 33579, Control_c, 0, 64, 127
1, 33581, Note_off_c, 0, 89, 65
1, 33613, Note_on_c, 0, 81, 66
1, 33613, Note_off_c, 0, 88, 66
1, 33629, Poly_aftertouch_c, 0, 49, 0
1, 33644, Note_off_c, 0, 81, 66
1, 33668, Poly_aftertouch_c, 0, 49, 0
1, 33683, Note_on_c, 0, 79, 74
1, 33739, Note_on_c, 0, 77, 77
1, 33773, Note_off_c, 0, 79, 65
1, 33781, Note_on_c, 0, 76, 66
1, 33786, Control_c, 0, 64, 113
1, 33801, Note_off_c, 0, 77, 64
1, 33801, Control_c, 0, 64, 97
1, 33816, Control_c, 0, 64, 87
1, 33831, Control_c, 0, 64, 77
1, 33834, Note_off_c, 0, 76, 62
1, 33841, Note_on_c, 0, 69, 70
1, 33846, Control_c, 0, 64, 69
1, 33861, Control_c, 0, 64, 62
1, 33866, Note_on_c, 0, 44, 41
1, 33874, Note_off_c, 0, 69, 67
1, 33876, Control_c, 0, 64, 51
1, 33884, Note_on_c, 0, 45, 73
1, 33890, Control_c, 0, 64, 37
1, 33905, Control_c, 0, 64, 15
1, 33907, Note_off_c, 0, 45, 68
1, 33913, Note_off_c, 0, 44, 63
1, 33920, Control_c, 0, 64, 0
1, 33927, Note_on_c, 0, 67, 60
1, 33973, Note_off_c, 0, 67, 56
1, 33978, Note_on_c, 0, 65, 70
1, 34019, Note_on_c, 0, 64, 63
1, 34036, Note_off_c, 0, 65, 62
1, 34056, Note_off_c, 0, 64, 64
1, 34081, Note_on_c, 0, 57, 65
1, 34121, Control_c, 0, 64, 15
1, 34124, Note_off_c, 0, 57, 64
1, 34136, Control_c, 0, 64, 20
1, 34149, Note_on_c, 0, 45, 63
1, 34151, Control_c, 0, 64, 21
1, 34160, Note_on_c, 0, 55, 66
1, 34166, Control_c, 0, 64, 22
1, 34176, Note_off_c, 0, 45, 67
1, 34181, Control_c, 0, 64, 23
1, 34195, Control_c, 0, 64, 24
1, 34210, Control_c, 0, 64, 25
1, 34228, Note_off_c, 0, 55, 56
1, 34229, Note_on_c, 0, 53, 60
1, 34264, Note_on_c, 0, 52, 62
1, 34270, Note_off_c, 0, 53, 58
1, 34284, Control_c, 0, 64, 25
1, 34299, Control_c, 0, 64, 28
1, 34306, Note_off_c, 0, 52, 63
1, 34313, Control_c, 0, 64, 32
1, 34328, Control_c, 0, 64, 39
1, 34339, Note_on_c, 0, 45, 50
1, 34343, Control_c, 0, 64, 45
1, 34358, Control_c, 0, 64, 50
1, 34373, Control_c, 0, 64, 54
1, 34384, Note_off_c, 0, 45, 64
1, 34387, Control_c, 0, 64, 58
1, 34400, Note_on_c, 0, 52, 63
1, 34402, Note_on_c, 0, 25, 60
1, 34402, Control_c, 0, 64, 60
1, 34417, Control_c, 0, 64, 62
1, 34418, Note_on_c, 0, 37, 54
1, 34432, Control_c, 0, 64, 63
1, 34447, Control_c, 0, 64, 64
1, 34461, Control_c, 0, 64, 65
1, 34467, Note_off_c, 0, 25, 63
1, 34476, Control_c, 0, 64, 66
1, 34480, Note_on_c, 0, 53, 58
1, 34482, Note_off_c, 0, 52, 59
1, 34491, Control_c, 0, 64, 68
1, 34494, Note_off_c, 0, 37, 63
1, 34506, Control_c, 0, 64, 70
1, 34518, Note_on_c, 0, 55, 69
1, 34521, Control_c, 0, 64, 72
1, 34526, Note_off_c, 0, 53, 63
1, 34536, Control_c, 0, 64, 74
1, 34543, Note_off_c, 0, 55, 66
1, 34551, Control_c, 0, 64, 76
1, 34565, Control_c, 0, 64, 77
1, 34597, Note_on_c, 0, 57, 63
1, 34625, Control_c, 0, 64, 76
1, 34639, Control_c, 0, 64, 75
1, 34651, Note_off_c, 0, 57, 63
1, 34654, Control_c, 0, 64, 71
1, 34667, Note_on_c, 0, 64, 61
1, 34669, Note_on_c, 0, 46, 73
1, 34669, Control_c, 0, 64, 65
1, 34684, Control_c, 0, 64, 58
1, 34699, Control_c, 0, 64, 50
1, 34713, Control_c, 0, 64, 43
1, 34716, Note_off_c, 0, 64, 61
1, 34728, Control_c, 0, 64, 37
1, 34731, Note_on_c, 0, 65, 59
1, 34743, Control_c, 0, 64, 35
1, 34758, Control_c, 0, 64, 34
1, 34774, Note_off_c, 0, 65, 65
1, 34778, Note_on_c, 0, 67, 59
1, 34787, Control_c, 0, 64, 33
1, 34798, Note_off_c, 0, 67, 63
1, 34802, Control_c, 0, 64, 30
1, 34817, Control_c, 0, 64, 25
1, 34832, Note_on_c, 0, 45, 71
1, 34832, Control_c, 0, 64, 17
1, 34846, Note_off_c, 0, 46, 55
1, 34851, Note_on_c, 0, 69, 67
1, 34854, Control_c, 0, 64, 11
1, 34870, Control_c, 0, 64, 0
1, 34936, Note_off_c, 0, 69, 37
1, 34953, Note_on_c, 0, 55, 78
1, 34989, Control_c, 0, 64, 31
1, 35001, Note_on_c, 0, 76, 61
1, 35004, Control_c, 0, 64, 45
1, 35018, Control_c, 0, 64, 54
1, 35033, Control_c, 0, 64, 60
1, 35044, Note_off_c, 0, 76, 62
1, 35048, Control_c, 0, 64, 63
1, 35057, Note_on_c, 0, 77, 59
1, 35060, Note_off_c, 0, 55, 63
1, 35063, Control_c, 0, 64, 65
1, 35078, Control_c, 0, 64, 67
1, 35092, Control_c, 0, 64, 69
1, 35096, Note_on_c, 0, 79, 65
1, 35099, Note_off_c, 0, 77, 65
1, 35107, Note_off_c, 0, 45, 65
1, 35107, Control_c, 0, 64, 73
1, 35114, Note_off_c, 0, 79, 66
1, 35122, Control_c, 0, 64, 76
1, 35136, Control_c, 0, 64, 80
1, 35151, Control_c, 0, 64, 83
1, 35161, Note_on_c, 0, 81, 70
1, 35166, Control_c, 0, 64, 86
1, 35181, Control_c, 0, 64, 88
1, 35196, Control_c, 0, 64, 90
1, 35197, Note_off_c, 0, 81, 59
1, 35202, Note_on_c, 0, 52, 62
1, 35210, Control_c, 0, 64, 92
1, 35224, Note_on_c, 0, 88, 65
1, 35255, Control_c, 0, 64, 89
1, 35269, Control_c, 0, 64, 80
1, 35278, Note_on_c, 0, 89, 73
1, 35284, Control_c, 0, 64, 70
1, 35299, Control_c, 0, 64, 64
1, 35311, Note_off_c, 0, 88, 67
1, 35314, Control_c, 0, 64, 61
1, 35340, Note_on_c, 0, 91, 78
1, 35343, Control_c, 0, 64, 63
1, 35351, Note_off_c, 0, 89, 65
1, 35352, Note_on_c, 0, 40, 65
1, 35358, Control_c, 0, 64, 65
1, 35373, Control_c, 0, 64, 69
1, 35375, Note_off_c, 0, 52, 34
1, 35388, Control_c, 0, 64, 72
1, 35403, Control_c, 0, 64, 74
1, 35405, Note_on_c, 0, 89, 76
1, 35433, Control_c, 0, 64, 72
1, 35445, Note_off_c, 0, 91, 64
1, 35448, Control_c, 0, 64, 69
1, 35454, Note_off_c, 0, 40, 61
1, 35455, Note_on_c, 0, 45, 60
1, 35457, Note_on_c, 0, 37, 67
1, 35462, Control_c, 0, 64, 64
1, 35463, Note_on_c, 0, 88, 74
1, 35477, Control_c, 0, 64, 54
1, 35485, Note_off_c, 0, 89, 65
1, 35492, Control_c, 0, 64, 44
1, 35507, Control_c, 0, 64, 33
1, 35516, Note_off_c, 0, 88, 66
1, 35522, Control_c, 0, 64, 30
1, 35531, Note_on_c, 0, 81, 51
1, 35536, Control_c, 0, 64, 30
1, 35551, Control_c, 0, 64, 34
1, 35553, Note_off_c, 0, 81, 63
1, 35566, Control_c, 0, 64, 39
1, 35581, Control_c, 0, 64, 43
1, 35603, Note_on_c, 0, 79, 70
1, 35603, Control_c, 0, 64, 46
1, 35618, Control_c, 0, 64, 48
1, 35633, Control_c, 0, 64, 49
1, 35647, Control_c, 0, 64, 50
1, 35662, Control_c, 0, 64, 51
1, 35668, Note_on_c, 0, 77, 62
1, 35668, Note_off_c, 0, 79, 63
1, 35678, Control_c, 0, 64, 51
1, 35699, Note_on_c, 0, 76, 64
1, 35707, Control_c, 0, 64, 52
1, 35719, Note_off_c, 0, 77, 63
1, 35749, Note_off_c, 0, 76, 61
1, 35760, Note_on_c, 0, 69, 67
1, 35767, Control_c, 0, 64, 52
1, 35782, Control_c, 0, 64, 53
1, 35788, Note_off_c, 0, 69, 68
1, 35797, Control_c, 0, 64, 53
1, 35811, Control_c, 0, 64, 54
1, 35837, Note_on_c, 0, 67, 66
1, 35841, Control_c, 0, 64, 54
1, 35856, Control_c, 0, 64, 55
1, 35858, Note_off_c, 0, 45, 62
1, 35878, Note_on_c, 0, 44, 59
1, 35896, Note_off_c, 0, 67, 60
1, 35897, Note_on_c, 0, 65, 66
1, 35937, Note_on_c, 0, 64, 60
1, 35947, Note_off_c, 0, 65, 62
1, 35951, Note_off_c, 0, 44, 61
1, 35961, Note_on_c, 0, 45, 59
1, 35981, Note_off_c, 0, 64, 63
1, 35990, Control_c, 0, 64, 54
1, 35991, Note_on_c, 0, 57, 70
1, 35999, Note_off_c, 0, 45, 64
1, 36020, Control_c, 0, 64, 54
1, 36022, Note_off_c, 0, 57, 64
1, 36067, Note_on_c, 0, 55, 70
1, 36127, Note_off_c, 0, 55, 61
1, 36129, Note_on_c, 0, 53, 69
1, 36171, Note_on_c, 0, 52, 61
1, 36171, Note_off_c, 0, 53, 62
1, 36183, Note_on_c, 0, 45, 57
1, 36208, Note_off_c, 0, 52, 62
1, 36239, Note_off_c, 0, 45, 0
1, 36239, Note_on_c, 0, 45, 45
1, 36279, Note_off_c, 0, 45, 63
1, 36286, Note_on_c, 0, 52, 76
1, 36300, Control_c, 0, 64, 53
1, 36356, Note_off_c, 0, 52, 64
1, 36365, Note_off_c, 0, 37, 64
1, 36368, Note_on_c, 0, 55, 56
1, 36412, Control_c, 0, 64, 54
1, 36421, Note_on_c, 0, 54, 71
1, 36431, Note_off_c, 0, 55, 58
1, 36439, Note_on_c, 0, 36, 76
1, 36441, Control_c, 0, 64, 54
1, 36456, Control_c, 0, 64, 55
1, 36472, Control_c, 0, 64, 56
1, 36487, Control_c, 0, 64, 57
1, 36493, Note_off_c, 0, 54, 63
1, 36502, Control_c, 0, 64, 58
1, 36507, Note_on_c, 0, 45, 42
1, 36516, Control_c, 0, 64, 59
1, 36531, Control_c, 0, 64, 60
1, 36542, Note_on_c, 0, 47, 31
1, 36546, Control_c, 0, 64, 61
1, 36554, Note_off_c, 0, 45, 49
1, 36554, Note_on_c, 0, 51, 66
1, 36561, Control_c, 0, 64, 62
1, 36576, Control_c, 0, 64, 63
1, 36581, Note_off_c, 0, 47, 39
1, 36590, Control_c, 0, 64, 63
1, 36605, Control_c, 0, 64, 64
1, 36620, Control_c, 0, 64, 65
1, 36623, Note_on_c, 0, 52, 68
1, 36635, Control_c, 0, 64, 66
1, 36644, Note_off_c, 0, 51, 39
1, 36650, Control_c, 0, 64, 67
1, 36664, Control_c, 0, 64, 69
1, 36676, Note_on_c, 0, 54, 69
1, 36679, Control_c, 0, 64, 70
1, 36685, Note_off_c, 0, 52, 65
1, 36692, Note_on_c, 0, 47, 72
1, 36694, Control_c, 0, 64, 70
1, 36695, Note_off_c, 0, 54, 65
1, 36748, Note_on_c, 0, 57, 76
1, 36768, Control_c, 0, 64, 71
1, 36794, Note_off_c, 0, 57, 50
1, 36819, Note_on_c, 0, 63, 67
1, 36832, Note_off_c, 0, 47, 65
1, 36844, Note_on_c, 0, 45, 74
1, 36873, Note_off_c, 0, 63, 63
1, 36875, Note_on_c, 0, 64, 73
1, 36886, Control_c, 0, 64, 70
1, 36901, Control_c, 0, 64, 68
1, 36915, Control_c, 0, 64, 64
1, 36930, Control_c, 0, 64, 55
1, 36939, Note_on_c, 0, 66, 66
1, 36942, Note_on_c, 0, 48, 90
1, 36945, Control_c, 0, 64, 39
1, 36946, Note_off_c, 0, 64, 66
1, 36960, Control_c, 0, 64, 0
1, 36962, Note_off_c, 0, 66, 68
1, 37004, Control_c, 0, 64, 28
1, 37019, Control_c, 0, 64, 44
1, 37021, Note_on_c, 0, 69, 78
1, 37034, Control_c, 0, 64, 54
1, 37047, Note_off_c, 0, 36, 64
1, 37049, Control_c, 0, 64, 60
1, 37063, Note_off_c, 0, 45, 60
1, 37063, Control_c, 0, 64, 63
1, 37066, Note_off_c, 0, 69, 58
1, 37086, Control_c, 0, 64, 64
1, 37096, Note_off_c, 0, 48, 64
1, 37099, Note_on_c, 0, 75, 68
1, 37101, Control_c, 0, 64, 66
1, 37115, Control_c, 0, 64, 69
1, 37130, Control_c, 0, 64, 72
1, 37145, Control_c, 0, 64, 75
1, 37147, Note_on_c, 0, 76, 74
1, 37150, Note_off_c, 0, 75, 59
1, 37160, Control_c, 0, 64, 79
1, 37175, Control_c, 0, 64, 81
1, 37189, Control_c, 0, 64, 85
1, 37195, Note_on_c, 0, 78, 76
1, 37203, Note_off_c, 0, 76, 65
1, 37204, Note_on_c, 0, 60, 88
1, 37204, Control_c, 0, 64, 87
1, 37218, Note_off_c, 0, 78, 68
1, 37219, Control_c, 0, 64, 88
1, 37233, Control_c, 0, 64, 88
1, 37248, Control_c, 0, 64, 81
1, 37265, Control_c, 0, 64, 70
1, 37274, Note_on_c, 0, 81, 73
1, 37280, Control_c, 0, 64, 62
1, 37294, Control_c, 0, 64, 59
1, 37309, Control_c, 0, 64, 60
1, 37314, Note_off_c, 0, 81, 58
1, 37324, Control_c, 0, 64, 63
1, 37338, Control_c, 0, 64, 68
1, 37344, Note_on_c, 0, 87, 52
1, 37345, Note_off_c, 0, 87, 127
1, 37353, Control_c, 0, 64, 73
1, 37368, Control_c, 0, 64, 81
1, 37378, Note_on_c, 0, 88, 77
1, 37383, Control_c, 0, 64, 88
1, 37385, Note_on_c, 0, 86, 35
1, 37396, Note_off_c, 0, 60, 59
1, 37398, Control_c, 0, 64, 95
1, 37412, Control_c, 0, 64, 95
1, 37425, Note_off_c, 0, 86, 54
1, 37427, Control_c, 0, 64, 88
1, 37442, Control_c, 0, 64, 70
1, 37444, Note_off_c, 0, 88, 66
1, 37451, Note_on_c, 0, 90, 79
1, 37457, Control_c, 0, 64, 53
1, 37469, Note_on_c, 0, 59, 77
1, 37471, Note_on_c, 0, 47, 61
1, 37472, Control_c, 0, 64, 30
1, 37487, Control_c, 0, 64, 28
1, 37500, Note_on_c, 0, 88, 61
1, 37502, Control_c, 0, 64, 45
1, 37507, Note_off_c, 0, 47, 67
1, 37517, Control_c, 0, 64, 58
1, 37528, Note_off_c, 0, 59, 66
1, 37531, Control_c, 0, 64, 66
1, 37537, Note_off_c, 0, 90, 63
1, 37546, Control_c, 0, 64, 74
1, 37550, Note_on_c, 0, 87, 76
1, 37558, Note_off_c, 0, 88, 67
1, 37561, Control_c, 0, 64, 82
1, 37576, Control_c, 0, 64, 90
1, 37591, Control_c, 0, 64, 96
1, 37606, Control_c, 0, 64, 107
1, 37618, Note_on_c, 0, 96, 79
1, 37619, Note_off_c, 0, 87, 67
1, 37620, Control_c, 0, 64, 127
1, 37640, Note_off_c, 0, 96, 70
1, 37694, Control_c, 0, 64, 90
1, 37709, Control_c, 0, 64, 72
1, 37724, Control_c, 0, 64, 60
1, 37738, Control_c, 0, 64, 44
1, 37752, Note_on_c, 0, 90, 60
1, 37753, Control_c, 0, 64, 16
1, 37766, Note_on_c, 0, 66, 44
1, 37768, Control_c, 0, 64, 0
1, 37768, Control_c, 0, 67, 8
1, 37782, Note_on_c, 0, 68, 63
1, 37783, Control_c, 0, 67, 8
1, 37804, Note_off_c, 0, 66, 64
1, 37810, Note_on_c, 0, 88, 57
1, 37850, Control_c, 0, 67, 8
1, 37854, Note_off_c, 0, 68, 55
1, 37856, Note_off_c, 0, 88, 67
1, 37858, Note_on_c, 0, 87, 52
1, 37862, Note_off_c, 0, 90, 64
1, 37870, Note_on_c, 0, 78, 53
1, 37895, Note_on_c, 0, 81, 68
1, 37898, Note_off_c, 0, 78, 66
1, 37916, Note_off_c, 0, 87, 61
1, 37924, Control_c, 0, 67, 0
1, 37927, Note_off_c, 0, 81, 62
1, 37937, Note_on_c, 0, 66, 34
1, 37938, Control_c, 0, 64, 13
1, 37953, Control_c, 0, 64, 16
1, 37959, Note_on_c, 0, 65, 59
1, 37960, Note_on_c, 0, 89, 73
1, 37968, Control_c, 0, 64, 17
1, 37979, Note_off_c, 0, 66, 0
1, 38005, Note_on_c, 0, 66, 25
1, 38017, Note_off_c, 0, 65, 60
1, 38029, Note_on_c, 0, 87, 74
1, 38033, Note_off_c, 0, 89, 60
1, 38054, Note_off_c, 0, 66, 62
1, 38064, Note_on_c, 0, 68, 51
1, 38080, Note_on_c, 0, 86, 60
1, 38087, Note_off_c, 0, 68, 60
1, 38103, Control_c, 0, 64, 18
1, 38112, Note_off_c, 0, 87, 54
1, 38117, Note_off_c, 0, 86, 66
1, 38117, Control_c, 0, 64, 22
1, 38122, Note_on_c, 0, 59, 54
1, 38125, Note_on_c, 0, 95, 74
1, 38132, Control_c, 0, 64, 25
1, 38145, Note_off_c, 0, 59, 61
1, 38147, Control_c, 0, 64, 28
1, 38161, Control_c, 0, 64, 29
1, 38176, Control_c, 0, 64, 30
1, 38191, Control_c, 0, 64, 32
1, 38196, Note_on_c, 0, 89, 71
1, 38196, Note_off_c, 0, 95, 64
1, 38206, Control_c, 0, 64, 35
1, 38219, Note_on_c, 0, 65, 50
1, 38221, Control_c, 0, 64, 39
1, 38235, Control_c, 0, 64, 42
1, 38246, Note_on_c, 0, 87, 69
1, 38250, Control_c, 0, 64, 45
1, 38265, Control_c, 0, 64, 47
1, 38277, Note_off_c, 0, 89, 62
1, 38280, Control_c, 0, 64, 49
1, 38281, Note_off_c, 0, 65, 48
1, 38282, Poly_aftertouch_c, 0, 68, 127
1, 38283, Note_on_c, 0, 68, 3
1, 38295, Control_c, 0, 64, 49
1, 38309, Note_off_c, 0, 87, 64
1, 38309, Control_c, 0, 64, 50
1, 38312, Note_on_c, 0, 86, 66
1, 38321, Note_on_c, 0, 77, 40
1, 38324, Control_c, 0, 64, 51
1, 38331, Note_off_c, 0, 68, 61
1, 38339, Note_on_c, 0, 80, 60
1, 38339, Control_c, 0, 64, 52
1, 38349, Note_off_c, 0, 77, 51
1, 38354, Control_c, 0, 64, 54
1, 38369, Control_c, 0, 64, 54
1, 38383, Note_off_c, 0, 80, 61
1, 38392, Note_off_c, 0, 86, 60
1, 38399, Control_c, 0, 64, 50
1, 38408, Note_on_c, 0, 89, 78
1, 38414, Control_c, 0, 64, 37
1, 38421, Note_on_c, 0, 58, 76
1, 38429, Control_c, 0, 64, 0
1, 38453, Note_off_c, 0, 58, 67
1, 38466, Note_on_c, 0, 87, 75
1, 38487, Control_c, 0, 64, 35
1, 38502, Control_c, 0, 64, 51
1, 38514, Note_on_c, 0, 86, 72
1, 38517, Control_c, 0, 64, 59
1, 38532, Control_c, 0, 64, 63
1, 38547, Control_c, 0, 64, 66
1, 38561, Control_c, 0, 64, 69
1, 38576, Control_c, 0, 64, 75
1, 38587, Note_on_c, 0, 94, 82
1, 38594, Note_off_c, 0, 86, 64
1, 38595, Note_off_c, 0, 87, 63
1, 38599, Control_c, 0, 64, 83
1, 38613, Control_c, 0, 64, 98
1, 38628, Control_c, 0, 64, 127
1, 38641, Note_off_c, 0, 89, 0
1, 38652, Note_on_c, 0, 70, 92
1, 38655, Note_on_c, 0, 58, 89
1, 38661, Note_on_c, 0, 89, 35
1, 38673, Note_off_c, 0, 70, 68
1, 38681, Note_off_c, 0, 58, 69
1, 38721, Note_on_c, 0, 87, 65
1, 38742, Note_off_c, 0, 94, 61
1, 38743, Poly_aftertouch_c, 0, 61, 0
1, 38751, Note_on_c, 0, 86, 68
1, 38786, Note_off_c, 0, 86, 64
1, 38792, Note_off_c, 0, 89, 60
1, 38797, Note_off_c, 0, 87, 64
1, 38802, Note_on_c, 0, 80, 44
1, 38804, Note_on_c, 0, 65, 89
1, 38813, Note_on_c, 0, 53, 86
1, 38825, Note_off_c, 0, 65, 69
1, 38828, Note_off_c, 0, 80, 55
1, 38834, Note_off_c, 0, 53, 66
1, 38897, Note_on_c, 0, 65, 27
1, 38915, Note_on_c, 0, 58, 76
1, 38918, Note_on_c, 0, 49, 74
1, 38919, Note_off_c, 0, 49, 127
1, 38919, Note_on_c, 0, 59, 72
1, 38922, Note_off_c, 0, 65, 56
1, 38927, Note_on_c, 0, 47, 61
1, 38929, Note_off_c, 0, 58, 67
1, 38930, Note_on_c, 0, 77, 50
1, 38935, Note_off_c, 0, 59, 66
1, 38950, Note_off_c, 0, 47, 63
1, 38972, Note_off_c, 0, 77, 44
1, 39009, Note_on_c, 0, 75, 60
1, 39037, Note_on_c, 0, 74, 67
1, 39072, Note_off_c, 0, 75, 65
1, 39075, Poly_aftertouch_c, 0, 58, 0
1, 39078, Note_off_c, 0, 74, 64
1, 39096, Note_on_c, 0, 68, 49
1, 39118, Note_off_c, 0, 68, 61
1, 39147, Note_on_c, 0, 53, 84
1, 39147, Note_on_c, 0, 41, 84
1, 39171, Note_off_c, 0, 53, 66
1, 39173, Note_on_c, 0, 65, 70
1, 39184, Note_off_c, 0, 41, 64
1, 39232, Note_off_c, 0, 65, 59
1, 39248, Note_on_c, 0, 63, 44
1, 39260, Note_on_c, 0, 64, 49
1, 39272, Note_on_c, 0, 62, 67
1, 39285, Note_off_c, 0, 63, 51
1, 39287, Note_off_c, 0, 64, 56
1, 39333, Note_on_c, 0, 56, 72
1, 39355, Note_off_c, 0, 62, 65
1, 39361, Note_off_c, 0, 56, 65
1, 39362, Control_c, 0, 64, 80
1, 39377, Control_c, 0, 64, 56
1, 39391, Control_c, 0, 64, 16
1, 39400, Note_on_c, 0, 46, 83
1, 39401, Note_on_c, 0, 34, 85
1, 39406, Control_c, 0, 64, 0
1, 39421, Control_c, 0, 64, 27
1, 39434, Note_off_c, 0, 46, 65
1, 39436, Control_c, 0, 64, 51
1, 39438, Note_off_c, 0, 34, 64
1, 39451, Control_c, 0, 64, 64
1, 39466, Control_c, 0, 64, 73
1, 39481, Control_c, 0, 64, 82
1, 39496, Control_c, 0, 64, 89
1, 39510, Control_c, 0, 64, 93
1, 39525, Control_c, 0, 64, 94
1, 39555, Control_c, 0, 64, 91
1, 39570, Control_c, 0, 64, 81
1, 39584, Control_c, 0, 64, 69
1, 39599, Control_c, 0, 64, 57
1, 39614, Control_c, 0, 64, 20
1, 39629, Control_c, 0, 64, 0
1, 39658, Note_on_c, 0, 89, 72
1, 39664, Note_on_c, 0, 65, 57
1, 39716, Note_on_c, 0, 87, 74
1, 39719, Control_c, 0, 64, 15
1, 39734, Control_c, 0, 64, 19
1, 39734, Note_off_c, 0, 65, 50
1, 39736, Note_off_c, 0, 89, 64
1, 39749, Control_c, 0, 64, 24
1, 39753, Note_on_c, 0, 86, 71
1, 39764, Control_c, 0, 64, 29
1, 39766, Note_on_c, 0, 68, 56
1, 39779, Note_off_c, 0, 87, 64
1, 39779, Control_c, 0, 64, 34
1, 39782, Poly_aftertouch_c, 0, 67, 0
1, 39794, Control_c, 0, 64, 37
1, 39797, Note_off_c, 0, 68, 67
1, 39806, Note_on_c, 0, 77, 29
1, 39808, Note_off_c, 0, 86, 65
1, 39808, Control_c, 0, 64, 38
1, 39817, Note_on_c, 0, 80, 63
1, 39823, Control_c, 0, 64, 38
1, 39838, Control_c, 0, 64, 37
1, 39840, Note_off_c, 0, 77, 43
1, 39842, Note_off_c, 0, 80, 66
1, 39869, Note_on_c, 0, 64, 64
1, 39869, Note_on_c, 0, 88, 73
1, 39922, Note_on_c, 0, 86, 65
1, 39937, Note_off_c, 0, 64, 64
1, 39941, Control_c, 0, 64, 38
1, 39948, Note_on_c, 0, 65, 37
1, 39956, Note_off_c, 0, 88, 59
1, 39956, Control_c, 0, 64, 39
1, 39965, Note_on_c, 0, 67, 47
1, 39970, Note_on_c, 0, 85, 78
1, 39971, Control_c, 0, 64, 42
1, 39973, Note_off_c, 0, 86, 66
1, 39982, Note_off_c, 0, 65, 44
1, 39986, Control_c, 0, 64, 46
1, 39993, Note_off_c, 0, 85, 69
1, 40000, Control_c, 0, 64, 50
1, 40001, Note_off_c, 0, 67, 65
1, 40015, Control_c, 0, 64, 53
1, 40025, Note_on_c, 0, 58, 61
1, 40030, Control_c, 0, 64, 55
1, 40035, Note_on_c, 0, 94, 86
1, 40050, Note_off_c, 0, 58, 68
1, 40064, Note_off_c, 0, 94, 64
1, 40097, Control_c, 0, 64, 55
1, 40112, Control_c, 0, 64, 54
1, 40116, Note_on_c, 0, 64, 57
1, 40116, Note_on_c, 0, 88, 70
1, 40127, Control_c, 0, 64, 52
1, 40141, Control_c, 0, 64, 51
1, 40155, Note_on_c, 0, 65, 32
1, 40156, Control_c, 0, 64, 49
1, 40171, Control_c, 0, 64, 49
1, 40177, Note_on_c, 0, 86, 73
1, 40189, Note_off_c, 0, 64, 64
1, 40196, Note_on_c, 0, 67, 67
1, 40197, Note_off_c, 0, 88, 58
1, 40203, Note_off_c, 0, 65, 48
1, 40226, Note_on_c, 0, 85, 72
1, 40244, Note_off_c, 0, 86, 65
1, 40246, Note_off_c, 0, 67, 60
1, 40274, Note_on_c, 0, 76, 7
1, 40285, Note_on_c, 0, 79, 64
1, 40289, Control_c, 0, 64, 45
1, 40293, Note_off_c, 0, 85, 64
1, 40304, Control_c, 0, 64, 32
1, 40319, Control_c, 0, 64, 0
1, 40329, Note_off_c, 0, 76, 26
1, 40334, Note_off_c, 0, 79, 56
1, 40343, Note_on_c, 0, 57, 80
1, 40348, Control_c, 0, 64, 17
1, 40349, Note_on_c, 0, 88, 67
1, 40363, Control_c, 0, 64, 44
1, 40378, Control_c, 0, 64, 57
1, 40393, Note_off_c, 0, 57, 64
1, 40393, Control_c, 0, 64, 63
1, 40405, Note_on_c, 0, 86, 60
1, 40408, Control_c, 0, 64, 67
1, 40423, Control_c, 0, 64, 71
1, 40437, Control_c, 0, 64, 76
1, 40442, Note_off_c, 0, 88, 64
1, 40453, Control_c, 0, 64, 81
1, 40468, Control_c, 0, 64, 89
1, 40477, Note_on_c, 0, 85, 54
1, 40482, Control_c, 0, 64, 101
1, 40497, Control_c, 0, 64, 127
1, 40504, Note_on_c, 0, 93, 84
1, 40512, Note_off_c, 0, 85, 65
1, 40515, Note_off_c, 0, 86, 64
1, 40573, Note_on_c, 0, 69, 100
1, 40581, Note_on_c, 0, 57, 91
1, 40593, Note_on_c, 0, 88, 76
1, 40600, Note_off_c, 0, 69, 64
1, 40617, Note_off_c, 0, 57, 62
1, 40635, Note_on_c, 0, 86, 73
1, 40658, Note_off_c, 0, 93, 50
1, 40688, Note_on_c, 0, 85, 76
1, 40709, Note_off_c, 0, 88, 60
1, 40721, Note_off_c, 0, 86, 64
1, 40738, Note_on_c, 0, 64, 82
1, 40745, Note_on_c, 0, 52, 85
1, 40750, Note_on_c, 0, 79, 64
1, 40750, Note_off_c, 0, 85, 64
1, 40757, Note_off_c, 0, 64, 70
1, 40772, Note_off_c, 0, 52, 68
1, 40782, Note_off_c, 0, 79, 68
1, 40838, Note_on_c, 0, 64, 29
1, 40843, Note_on_c, 0, 76, 70
1, 40851, Note_on_c, 0, 57, 89
1, 40855, Note_on_c, 0, 45, 88
1, 40864, Note_off_c, 0, 64, 59
1, 40873, Note_off_c, 0, 57, 68
1, 40876, Note_off_c, 0, 45, 69
1, 40904, Note_on_c, 0, 74, 71
1, 40948, Note_on_c, 0, 73, 74
1, 40950, Note_off_c, 0, 76, 58
1, 40977, Note_off_c, 0, 74, 64
1, 41005, Note_on_c, 0, 67, 75
1, 41010, Note_off_c, 0, 73, 65
1, 41035, Note_off_c, 0, 67, 67
1, 41073, Note_on_c, 0, 52, 87
1, 41083, Note_on_c, 0, 40, 76
1, 41085, Note_on_c, 0, 64, 75
1, 41094, Note_off_c, 0, 52, 67
1, 41108, Note_off_c, 0, 40, 65
1, 41139, Note_on_c, 0, 62, 76
1, 41149, Note_off_c, 0, 64, 61
1, 41194, Note_on_c, 0, 61, 70
1, 41210, Note_off_c, 0, 62, 64
1, 41237, Note_on_c, 0, 55, 77
1, 41248, Note_off_c, 0, 61, 64
1, 41268, Note_off_c, 0, 55, 67
1, 41290, Control_c, 0, 64, 73
1, 41305, Control_c, 0, 64, 48
1, 41320, Control_c, 0, 64, 0
1, 41323, Note_on_c, 0, 45, 78
1, 41326, Note_on_c, 0, 33, 77
1, 41350, Control_c, 0, 64, 28
1, 41357, Note_off_c, 0, 33, 66
1, 41365, Control_c, 0, 64, 50
1, 41366, Note_off_c, 0, 45, 64
1, 41379, Control_c, 0, 64, 61
1, 41394, Control_c, 0, 64, 68
1, 41409, Control_c, 0, 64, 71
1, 41424, Control_c, 0, 64, 70
1, 41439, Control_c, 0, 64, 67
1, 41453, Control_c, 0, 64, 63
1, 41468, Control_c, 0, 64, 60
1, 41483, Control_c, 0, 64, 58
1, 41498, Control_c, 0, 64, 55
1, 41512, Control_c, 0, 64, 48
1, 41512, Control_c, 0, 67, 8
1, 41527, Control_c, 0, 64, 38
1, 41527, Control_c, 0, 67, 9
1, 41542, Control_c, 0, 64, 21
1, 41542, Control_c, 0, 67, 10
1, 41557, Control_c, 0, 64, 0
1, 41557, Control_c, 0, 67, 12
1, 41579, Poly_aftertouch_c, 0, 63, 127
1, 41579, Control_c, 0, 67, 15
1, 41594, Control_c, 0, 67, 19
1, 41600, Note_on_c, 0, 88, 56
1, 41609, Control_c, 0, 67, 23
1, 41618, Poly_aftertouch_c, 0, 63, 0
1, 41619, Note_on_c, 0, 64, 55
1, 41624, Control_c, 0, 67, 26
1, 41639, Control_c, 0, 67, 28
1, 41644, Note_on_c, 0, 86, 66
1, 41653, Control_c, 0, 67, 29
1, 41668, Control_c, 0, 67, 29
1, 41669, Note_off_c, 0, 88, 64
1, 41673, Note_on_c, 0, 66, 65
1, 41683, Control_c, 0, 67, 27
1, 41693, Note_off_c, 0, 64, 62
1, 41698, Control_c, 0, 67, 25
1, 41701, Note_on_c, 0, 85, 64
1, 41702, Note_off_c, 0, 86, 64
1, 41712, Control_c, 0, 67, 24
1, 41727, Control_c, 0, 67, 23
1, 41729, Note_off_c, 0, 66, 61
1, 41742, Control_c, 0, 67, 21
1, 41746, Note_off_c, 0, 85, 60
1, 41749, Note_on_c, 0, 79, 62
1, 41757, Control_c, 0, 67, 19
1, 41772, Control_c, 0, 67, 17
1, 41786, Control_c, 0, 67, 14
1, 41791, Note_off_c, 0, 79, 64
1, 41801, Control_c, 0, 67, 8
1, 41807, Note_on_c, 0, 86, 75
1, 41815, Note_on_c, 0, 62, 68
1, 41816, Control_c, 0, 67, 0
1, 41858, Note_off_c, 0, 86, 57
1, 41863, Note_on_c, 0, 85, 73
1, 41888, Note_on_c, 0, 64, 45
1, 41910, Note_on_c, 0, 83, 65
1, 41914, Note_off_c, 0, 62, 65
1, 41919, Control_c, 0, 64, 15
1, 41926, Note_on_c, 0, 66, 70
1, 41928, Note_off_c, 0, 64, 64
1, 41934, Note_off_c, 0, 85, 62
1, 41934, Control_c, 0, 64, 17
1, 41949, Note_off_c, 0, 83, 67
1, 41949, Control_c, 0, 64, 19
1, 41962, Note_off_c, 0, 66, 65
1, 41964, Control_c, 0, 64, 20
1, 41973, Note_on_c, 0, 78, 74
1, 41979, Control_c, 0, 64, 20
1, 41997, Note_off_c, 0, 78, 67
1, 42012, Note_on_c, 0, 74, 9
1, 42024, Control_c, 0, 64, 19
1, 42038, Control_c, 0, 64, 19
1, 42043, Note_on_c, 0, 61, 64
1, 42044, Note_on_c, 0, 85, 73
1, 42054, Control_c, 0, 64, 17
1, 42060, Note_off_c, 0, 74, 28
1, 42069, Control_c, 0, 64, 17
1, 42093, Note_off_c, 0, 85, 58
1, 42096, Note_off_c, 0, 61, 56
1, 42098, Note_on_c, 0, 62, 50
1, 42103, Note_on_c, 0, 83, 70
1, 42141, Note_off_c, 0, 62, 66
1, 42145, Note_on_c, 0, 64, 60
1, 42158, Note_on_c, 0, 81, 55
1, 42164, Note_off_c, 0, 83, 64
1, 42184, Note_off_c, 0, 64, 65
1, 42200, Note_on_c, 0, 76, 69
1, 42203, Note_off_c, 0, 81, 64
1, 42222, Note_on_c, 0, 73, 20
1, 42232, Control_c, 0, 64, 16
1, 42235, Note_off_c, 0, 76, 65
1, 42247, Control_c, 0, 64, 16
1, 42262, Note_off_c, 0, 73, 31
1, 42262, Control_c, 0, 64, 15
1, 42272, Note_on_c, 0, 59, 58
1, 42276, Control_c, 0, 64, 15
1, 42277, Note_on_c, 0, 83, 68
1, 42291, Control_c, 0, 64, 14
1, 42306, Control_c, 0, 64, 13
1, 42321, Control_c, 0, 64, 12
1, 42335, Note_on_c, 0, 81, 68
1, 42343, Control_c, 0, 64, 12
1, 42349, Note_on_c, 0, 61, 60
1, 42369, Note_off_c, 0, 59, 63
1, 42372, Note_off_c, 0, 83, 63
1, 42389, Note_on_c, 0, 62, 38
1, 42389, Note_on_c, 0, 79, 62
1, 42398, Note_off_c, 0, 61, 61
1, 42398, Note_off_c, 0, 81, 63
1, 42421, Note_off_c, 0, 62, 54
1, 42429, Note_off_c, 0, 79, 64
1, 42438, Note_on_c, 0, 71, 55
1, 42444, Note_on_c, 0, 74, 61
1, 42458, Note_off_c, 0, 71, 64
1, 42461, Control_c, 0, 64, 11
1, 42479, Note_off_c, 0, 74, 67
1, 42510, Note_on_c, 0, 57, 69
1, 42512, Note_on_c, 0, 81, 70
1, 42565, Control_c, 0, 64, 12
1, 42577, Note_on_c, 0, 79, 66
1, 42583, Note_off_c, 0, 81, 60
1, 42595, Control_c, 0, 64, 12
1, 42596, Note_on_c, 0, 59, 40
1, 42605, Note_off_c, 0, 57, 63
1, 42609, Control_c, 0, 64, 13
1, 42618, Note_off_c, 0, 79, 64
1, 42623, Note_on_c, 0, 78, 62
1, 42624, Control_c, 0, 64, 13
1, 42630, Note_on_c, 0, 61, 55
1, 42638, Note_off_c, 0, 59, 65
1, 42639, Control_c, 0, 64, 14
1, 42653, Control_c, 0, 64, 15
1, 42658, Note_off_c, 0, 78, 60
1, 42667, Note_off_c, 0, 61, 64
1, 42675, Note_on_c, 0, 69, 54
1, 42678, Note_on_c, 0, 73, 65
1, 42702, Note_off_c, 0, 69, 67
1, 42703, Note_off_c, 0, 73, 68
1, 42744, Note_on_c, 0, 79, 68
1, 42765, Note_on_c, 0, 55, 57
1, 42814, Note_on_c, 0, 78, 68
1, 42822, Note_on_c, 0, 57, 44
1, 42825, Note_off_c, 0, 79, 61
1, 42841, Note_off_c, 0, 55, 62
1, 42855, Note_on_c, 0, 59, 47
1, 42870, Note_off_c, 0, 57, 61
1, 42871, Note_on_c, 0, 76, 60
1, 42886, Note_off_c, 0, 78, 63
1, 42889, Note_off_c, 0, 59, 61
1, 42915, Note_on_c, 0, 67, 52
1, 42917, Note_on_c, 0, 71, 66
1, 42921, Note_off_c, 0, 76, 63
1, 42940, Note_off_c, 0, 67, 58
1, 42963, Note_off_c, 0, 71, 58
1, 42966, Control_c, 0, 64, 15
1, 42979, Note_on_c, 0, 54, 51
1, 42981, Control_c, 0, 64, 16
1, 42995, Note_on_c, 0, 78, 61
1, 42996, Control_c, 0, 64, 17
1, 43005, Note_on_c, 0, 56, 48
1, 43011, Control_c, 0, 64, 19
1, 43025, Control_c, 0, 64, 20
1, 43036, Note_on_c, 0, 76, 66
1, 43040, Control_c, 0, 64, 21
1, 43058, Note_off_c, 0, 54, 59
1, 43085, Note_off_c, 0, 56, 58
1, 43097, Note_on_c, 0, 74, 62
1, 43097, Note_off_c, 0, 78, 60
1, 43100, Note_off_c, 0, 76, 61
1, 43122, Control_c, 0, 64, 21
1, 43133, Note_on_c, 0, 66, 56
1, 43140, Note_off_c, 0, 74, 65
1, 43147, Note_on_c, 0, 69, 66
1, 43155, Note_off_c, 0, 66, 60
1, 43181, Control_c, 0, 64, 21
1, 43193, Note_off_c, 0, 69, 62
1, 43219, Note_on_c, 0, 52, 61
1, 43219, Note_on_c, 0, 76, 71
1, 43240, Control_c, 0, 64, 21
1, 43273, Note_on_c, 0, 54, 61
1, 43273, Note_on_c, 0, 74, 63
1, 43298, Note_off_c, 0, 52, 61
1, 43307, Note_off_c, 0, 76, 58
1, 43329, Note_off_c, 0, 54, 62
1, 43329, Control_c, 0, 64, 21
1, 43332, Note_off_c, 0, 74, 64
1, 43333, Note_on_c, 0, 73, 49
1, 43366, Note_on_c, 0, 64, 53
1, 43368, Note_off_c, 0, 73, 61
1, 43383, Note_on_c, 0, 67, 56
1, 43410, Note_off_c, 0, 64, 58
1, 43416, Note_off_c, 0, 67, 59
1, 43435, Note_on_c, 0, 53, 58
1, 43452, Note_on_c, 0, 74, 65
1, 43477, Control_c, 0, 64, 21
1, 43486, Note_off_c, 0, 53, 58
1, 43499, Note_on_c, 0, 73, 60
1, 43499, Note_on_c, 0, 54, 39
1, 43511, Note_on_c, 0, 56, 62
1, 43515, Note_off_c, 0, 74, 57
1, 43535, Note_off_c, 0, 54, 60
1, 43537, Control_c, 0, 64, 22
1, 43551, Note_off_c, 0, 56, 61
1, 43566, Control_c, 0, 64, 23
1, 43568, Note_off_c, 0, 73, 62
1, 43571, Note_on_c, 0, 71, 53
1, 43581, Control_c, 0, 64, 25
1, 43591, Note_on_c, 0, 62, 44
1, 43596, Control_c, 0, 64, 27
1, 43603, Note_on_c, 0, 68, 74
1, 43611, Note_off_c, 0, 71, 63
1, 43611, Control_c, 0, 64, 29
1, 43625, Control_c, 0, 64, 30
1, 43640, Control_c, 0, 64, 31
1, 43643, Note_off_c, 0, 62, 44
1, 43656, Control_c, 0, 64, 32
1, 43659, Note_on_c, 0, 54, 47
1, 43671, Control_c, 0, 64, 33
1, 43672, Note_off_c, 0, 68, 62
1, 43678, Note_on_c, 0, 74, 53
1, 43686, Control_c, 0, 64, 33
1, 43723, Note_on_c, 0, 56, 49
1, 43744, Note_off_c, 0, 54, 62
1, 43745, Note_on_c, 0, 73, 50
1, 43752, Note_off_c, 0, 74, 60
1, 43756, Note_on_c, 0, 70, 63
1, 43759, Note_on_c, 0, 57, 51
1, 43770, Note_off_c, 0, 56, 54
1, 43789, Note_off_c, 0, 57, 65
1, 43791, Note_off_c, 0, 70, 66
1, 43808, Note_off_c, 0, 73, 60
1, 43832, Note_on_c, 0, 62, 62
1, 43833, Note_on_c, 0, 66, 79
1, 43856, Control_c, 0, 64, 34
1, 43871, Control_c, 0, 64, 34
1, 43886, Control_c, 0, 64, 35
1, 43892, Note_off_c, 0, 62, 45
1, 43897, Note_off_c, 0, 66, 64
1, 43901, Control_c, 0, 64, 37
1, 43909, Note_on_c, 0, 74, 62
1, 43915, Control_c, 0, 64, 39
1, 43920, Note_on_c, 0, 56, 52
1, 43930, Control_c, 0, 64, 41
1, 43945, Control_c, 0, 64, 42
1, 43960, Note_on_c, 0, 73, 53
1, 43960, Control_c, 0, 64, 42
1, 43967, Note_on_c, 0, 57, 43
1, 43987, Note_on_c, 0, 71, 53
1, 43995, Note_off_c, 0, 74, 57
1, 44004, Control_c, 0, 64, 42
1, 44009, Note_off_c, 0, 56, 58
1, 44015, Note_off_c, 0, 57, 61
1, 44021, Note_on_c, 0, 59, 53
1, 44034, Control_c, 0, 64, 41
1, 44035, Note_off_c, 0, 73, 64
1, 44042, Note_off_c, 0, 71, 61
1, 44046, Note_off_c, 0, 59, 64
1, 44049, Control_c, 0, 64, 41
1, 44054, Note_on_c, 0, 65, 77
1, 44063, Control_c, 0, 64, 40
1, 44072, Note_on_c, 0, 62, 64
1, 44078, Control_c, 0, 64, 39
1, 44093, Control_c, 0, 64, 38
1, 44108, Note_off_c, 0, 65, 62
1, 44137, Note_on_c, 0, 73, 55
1, 44150, Note_on_c, 0, 57, 48
1, 44167, Note_off_c, 0, 62, 53
1, 44182, Control_c, 0, 64, 39
1, 44191, Note_on_c, 0, 71, 53
1, 44197, Control_c, 0, 64, 40
1, 44212, Control_c, 0, 64, 41
1, 44215, Note_off_c, 0, 73, 63
1, 44224, Note_on_c, 0, 69, 62
1, 44226, Control_c, 0, 64, 41
1, 44228, Poly_aftertouch_c, 0, 59, 127
1, 44235, Note_on_c, 0, 59, 3
1, 44244, Note_off_c, 0, 57, 61
1, 44247, Note_on_c, 0, 60, 57
1, 44262, Note_off_c, 0, 71, 64
1, 44265, Note_off_c, 0, 59, 55
1, 44271, Note_off_c, 0, 69, 67
1, 44286, Control_c, 0, 64, 41
1, 44287, Note_off_c, 0, 60, 65
1, 44292, Note_on_c, 0, 66, 73
1, 44300, Control_c, 0, 64, 40
1, 44315, Control_c, 0, 64, 40
1, 44330, Control_c, 0, 64, 39
1, 44334, Note_on_c, 0, 61, 46
1, 44346, Note_off_c, 0, 66, 61
1, 44360, Note_off_c, 0, 61, 59
1, 44360, Control_c, 0, 64, 40
1, 44373, Note_on_c, 0, 72, 52
1, 44413, Note_on_c, 0, 51, 54
1, 44419, Control_c, 0, 64, 39
1, 44450, Control_c, 0, 64, 39
1, 44454, Note_on_c, 0, 71, 50
1, 44465, Control_c, 0, 64, 38
1, 44468, Note_on_c, 0, 69, 64
1, 44479, Control_c, 0, 64, 38
1, 44480, Note_on_c, 0, 52, 35
1, 44489, Note_off_c, 0, 72, 46
1, 44504, Note_on_c, 0, 54, 58
1, 44510, Note_off_c, 0, 51, 54
1, 44512, Note_off_c, 0, 71, 53
1, 44516, Note_off_c, 0, 52, 48
1, 44525, Note_off_c, 0, 69, 62
1, 44531, Note_on_c, 0, 66, 76
1, 44538, Note_off_c, 0, 54, 62
1, 44538, Control_c, 0, 64, 39
1, 44553, Control_c, 0, 64, 39
1, 44558, Note_on_c, 0, 60, 60
1, 44575, Control_c, 0, 64, 40
1, 44591, Note_off_c, 0, 66, 65
1, 44617, Note_off_c, 0, 60, 54
1, 44627, Note_on_c, 0, 72, 57
1, 44646, Note_on_c, 0, 52, 43
1, 44679, Control_c, 0, 64, 39
1, 44684, Note_on_c, 0, 71, 55
1, 44694, Control_c, 0, 64, 39
1, 44709, Note_on_c, 0, 54, 43
1, 44709, Control_c, 0, 64, 38
1, 44709, Note_off_c, 0, 72, 48
1, 44721, Note_on_c, 0, 69, 64
1, 44724, Control_c, 0, 64, 37
1, 44730, Note_off_c, 0, 52, 62
1, 44738, Control_c, 0, 64, 36
1, 44748, Note_on_c, 0, 55, 60
1, 44753, Note_off_c, 0, 71, 57
1, 44768, Control_c, 0, 64, 35
1, 44779, Note_off_c, 0, 54, 62
1, 44783, Control_c, 0, 64, 35
1, 44784, Note_off_c, 0, 69, 63
1, 44788, Note_on_c, 0, 64, 69
1, 44791, Note_off_c, 0, 55, 65
1, 44798, Control_c, 0, 64, 34
1, 44812, Control_c, 0, 64, 34
1, 44817, Note_on_c, 0, 60, 65
1, 44839, Note_off_c, 0, 64, 61
1, 44854, Note_on_c, 0, 72, 58
1, 44869, Note_off_c, 0, 60, 50
1, 44886, Control_c, 0, 64, 34
1, 44901, Control_c, 0, 64, 35
1, 44904, Note_on_c, 0, 54, 60
1, 44916, Control_c, 0, 64, 36
1, 44920, Note_on_c, 0, 71, 55
1, 44929, Control_c, 0, 64, 37
1, 44931, Note_on_c, 0, 55, 57
1, 44944, Control_c, 0, 64, 37
1, 44947, Note_off_c, 0, 72, 58
1, 44959, Control_c, 0, 64, 38
1, 44961, Note_on_c, 0, 69, 59
1, 44981, Note_off_c, 0, 54, 57
1, 44985, Note_off_c, 0, 71, 63
1, 44994, Note_on_c, 0, 57, 48
1, 44996, Note_off_c, 0, 69, 66
1, 45001, Note_off_c, 0, 55, 60
1, 45003, Control_c, 0, 64, 37
1, 45018, Control_c, 0, 64, 37
1, 45025, Note_off_c, 0, 57, 59
1, 45027, Note_on_c, 0, 63, 73
1, 45050, Note_on_c, 0, 60, 56
1, 45073, Note_off_c, 0, 63, 63
1, 45107, Note_off_c, 0, 60, 52
1, 45124, Note_on_c, 0, 71, 59
1, 45138, Note_on_c, 0, 55, 58
1, 45180, Note_on_c, 0, 69, 63
1, 45202, Note_on_c, 0, 57, 19
1, 45210, Control_c, 0, 64, 36
1, 45222, Note_off_c, 0, 55, 62
1, 45227, Note_on_c, 0, 67, 54
1, 45232, Note_on_c, 0, 58, 59
1, 45241, Control_c, 0, 64, 35
1, 45246, Note_off_c, 0, 57, 58
1, 45252, Note_off_c, 0, 69, 56
1, 45256, Control_c, 0, 64, 34
1, 45267, Note_off_c, 0, 58, 66
1, 45270, Control_c, 0, 64, 33
1, 45273, Note_off_c, 0, 71, 33
1, 45283, Note_off_c, 0, 67, 63
1, 45285, Control_c, 0, 64, 31
1, 45294, Note_on_c, 0, 64, 64
1, 45297, Note_on_c, 0, 59, 59
1, 45300, Control_c, 0, 64, 31
1, 45323, Control_c, 0, 64, 30
1, 45338, Control_c, 0, 64, 29
1, 45342, Note_off_c, 0, 64, 64
1, 45350, Note_off_c, 0, 59, 60
1, 45352, Control_c, 0, 64, 29
1, 45383, Note_on_c, 0, 70, 62
1, 45391, Note_on_c, 0, 49, 59
1, 45414, Note_off_c, 0, 70, 66
1, 45433, Note_on_c, 0, 69, 45
1, 45437, Note_on_c, 0, 50, 53
1, 45464, Note_off_c, 0, 49, 59
1, 45479, Note_off_c, 0, 50, 65
1, 45482, Note_on_c, 0, 67, 56
1, 45485, Note_on_c, 0, 52, 57
1, 45496, Note_off_c, 0, 69, 63
1, 45516, Note_off_c, 0, 52, 65
1, 45524, Note_off_c, 0, 67, 63
1, 45538, Note_on_c, 0, 64, 66
1, 45544, Note_on_c, 0, 58, 61
1, 45583, Note_off_c, 0, 58, 67
1, 45602, Note_off_c, 0, 64, 61
1, 45617, Note_on_c, 0, 70, 64
1, 45630, Note_on_c, 0, 50, 56
1, 45634, Control_c, 0, 64, 29
1, 45685, Note_on_c, 0, 52, 25
1, 45690, Note_on_c, 0, 69, 47
1, 45693, Control_c, 0, 64, 29
1, 45706, Note_off_c, 0, 50, 63
1, 45711, Note_off_c, 0, 70, 58
1, 45716, Note_on_c, 0, 67, 49
1, 45720, Note_on_c, 0, 53, 54
1, 45729, Note_off_c, 0, 52, 55
1, 45733, Note_off_c, 0, 69, 62
1, 45751, Note_off_c, 0, 53, 64
1, 45752, Control_c, 0, 64, 28
1, 45762, Note_off_c, 0, 67, 49
1, 45771, Note_on_c, 0, 62, 71
1, 45781, Note_on_c, 0, 58, 62
1, 45809, Note_off_c, 0, 58, 66
1, 45815, Note_off_c, 0, 62, 59
1, 45838, Note_on_c, 0, 70, 58
1, 45845, Note_on_c, 0, 52, 56
1, 45900, Control_c, 0, 64, 29
1, 45902, Note_on_c, 0, 69, 47
1, 45909, Note_on_c, 0, 53, 15
1, 45918, Note_off_c, 0, 70, 55
1, 45924, Note_on_c, 0, 67, 56
1, 45927, Note_off_c, 0, 52, 61
1, 45930, Control_c, 0, 64, 29
1, 45935, Note_on_c, 0, 55, 63
1, 45942, Note_off_c, 0, 69, 53
1, 45944, Control_c, 0, 64, 30
1, 45953, Note_off_c, 0, 53, 50
1, 45962, Note_off_c, 0, 67, 63
1, 45974, Control_c, 0, 64, 29
1, 45983, Note_on_c, 0, 61, 75
1, 45989, Control_c, 0, 64, 26
1, 45990, Note_on_c, 0, 58, 63
1, 46003, Note_off_c, 0, 55, 62
1, 46004, Control_c, 0, 64, 14
1, 46015, Note_off_c, 0, 61, 66
1, 46018, Control_c, 0, 64, 0
1, 46023, Note_off_c, 0, 58, 64
1, 46081, Note_on_c, 0, 57, 79
1, 46081, Note_on_c, 0, 62, 86
1, 46087, Control_c, 0, 64, 17
1, 46101, Control_c, 0, 64, 39
1, 46110, Note_off_c, 0, 62, 68
1, 46116, Control_c, 0, 64, 52
1, 46125, Note_off_c, 0, 57, 62
1, 46131, Control_c, 0, 64, 59
1, 46142, Note_on_c, 0, 55, 56
1, 46143, Note_on_c, 0, 64, 67
1, 46146, Control_c, 0, 64, 63
1, 46161, Control_c, 0, 64, 64
1, 46182, Note_on_c, 0, 65, 75
1, 46183, Note_off_c, 0, 55, 60
1, 46186, Note_on_c, 0, 53, 59
1, 46190, Control_c, 0, 64, 63
1, 46205, Control_c, 0, 64, 55
1, 46215, Note_off_c, 0, 64, 64
1, 46220, Control_c, 0, 64, 34
1, 46222, Note_on_c, 0, 45, 66
1, 46222, Note_off_c, 0, 53, 59
1, 46227, Note_off_c, 0, 65, 61
1, 46227, Note_on_c, 0, 74, 64
1, 46235, Control_c, 0, 64, 0
1, 46245, Note_off_c, 0, 74, 66
1, 46274, Note_off_c, 0, 45, 61
1, 46293, Control_c, 0, 64, 30
1, 46308, Control_c, 0, 64, 44
1, 46309, Note_on_c, 0, 55, 52
1, 46317, Note_on_c, 0, 61, 71
1, 46323, Control_c, 0, 64, 52
1, 46338, Control_c, 0, 64, 58
1, 46353, Control_c, 0, 64, 60
1, 46354, Note_off_c, 0, 61, 65
1, 46367, Control_c, 0, 64, 61
1, 46377, Note_on_c, 0, 53, 56
1, 46379, Note_off_c, 0, 55, 60
1, 46383, Note_on_c, 0, 62, 59
1, 46397, Control_c, 0, 64, 57
1, 46400, Note_on_c, 0, 63, 42
1, 46412, Control_c, 0, 64, 47
1, 46420, Note_on_c, 0, 64, 65
1, 46428, Control_c, 0, 64, 32
1, 46431, Note_off_c, 0, 63, 57
1, 46432, Note_off_c, 0, 53, 55
1, 46438, Note_on_c, 0, 52, 49
1, 46439, Note_off_c, 0, 62, 62
1, 46442, Control_c, 0, 64, 0
1, 46459, Note_on_c, 0, 45, 58
1, 46470, Note_off_c, 0, 52, 60
1, 46478, Note_off_c, 0, 64, 65
1, 46494, Note_on_c, 0, 73, 54
1, 46496, Note_off_c, 0, 45, 66
1, 46498, Note_on_c, 0, 68, 30
1, 46501, Control_c, 0, 64, 20
1, 46516, Control_c, 0, 64, 28
1, 46531, Note_off_c, 0, 73, 64
1, 46531, Control_c, 0, 64, 33
1, 46534, Note_off_c, 0, 68, 46
1, 46546, Control_c, 0, 64, 37
1, 46558, Note_on_c, 0, 57, 51
1, 46561, Note_on_c, 0, 62, 74
1, 46561, Control_c, 0, 64, 40
1, 46575, Control_c, 0, 64, 44
1, 46590, Control_c, 0, 64, 47
1, 46605, Control_c, 0, 64, 48
1, 46606, Note_on_c, 0, 55, 60
1, 46606, Note_off_c, 0, 57, 62
1, 46610, Note_off_c, 0, 62, 62
1, 46619, Note_on_c, 0, 64, 71
1, 46620, Control_c, 0, 64, 48
1, 46635, Control_c, 0, 64, 47
1, 46642, Note_off_c, 0, 55, 63
1, 46650, Control_c, 0, 64, 44
1, 46662, Note_on_c, 0, 53, 50
1, 46665, Control_c, 0, 64, 41
1, 46675, Note_off_c, 0, 64, 51
1, 46679, Note_on_c, 0, 65, 52
1, 46680, Control_c, 0, 64, 39
1, 46688, Note_off_c, 0, 53, 60
1, 46694, Control_c, 0, 64, 38
1, 46703, Note_on_c, 0, 45, 53
1, 46719, Note_off_c, 0, 65, 66
1, 46720, Note_on_c, 0, 74, 69
1, 46765, Note_off_c, 0, 74, 59
1, 46769, Note_on_c, 0, 53, 61
1, 46783, Control_c, 0, 64, 39
1, 46794, Note_on_c, 0, 65, 66
1, 46829, Note_off_c, 0, 45, 54
1, 46835, Note_on_c, 0, 52, 47
1, 46835, Control_c, 0, 64, 39
1, 46835, Note_off_c, 0, 53, 52
1, 46838, Note_off_c, 0, 65, 58
1, 46862, Note_on_c, 0, 67, 61
1, 46879, Note_on_c, 0, 50, 56
1, 46879, Note_off_c, 0, 52, 60
1, 46897, Note_on_c, 0, 68, 66
1, 46897, Note_off_c, 0, 67, 63
1, 46921, Note_off_c, 0, 50, 67
1, 46924, Note_off_c, 0, 68, 64
1, 46939, Control_c, 0, 64, 39
1, 46950, Note_on_c, 0, 45, 43
1, 46966, Note_on_c, 0, 77, 66
1, 46999, Control_c, 0, 64, 38
1, 47014, Control_c, 0, 64, 37
1, 47029, Control_c, 0, 64, 34
1, 47043, Control_c, 0, 64, 28
1, 47047, Note_off_c, 0, 77, 63
1, 47058, Control_c, 0, 64, 18
1, 47064, Note_on_c, 0, 69, 45
1, 47073, Control_c, 0, 64, 0
1, 47095, Note_on_c, 0, 52, 42
1, 47104, Note_on_c, 0, 49, 24
1, 47203, Note_on_c, 0, 71, 53
1, 47205, Control_c, 0, 64, 21
1, 47211, Note_off_c, 0, 69, 56
1, 47220, Control_c, 0, 64, 47
1, 47235, Control_c, 0, 64, 61
1, 47249, Control_c, 0, 64, 70
1, 47264, Control_c, 0, 64, 80
1, 47267, Note_off_c, 0, 49, 56
1, 47270, Note_off_c, 0, 45, 64
1, 47271, Note_off_c, 0, 52, 60
1, 47279, Control_c, 0, 64, 90
1, 47294, Control_c, 0, 64, 98
1, 47309, Control_c, 0, 64, 105
1, 47312, Note_off_c, 0, 71, 57
1, 47316, Note_on_c, 0, 73, 50
1, 47324, Control_c, 0, 64, 116
1, 47339, Control_c, 0, 64, 127
1, 47364, Note_off_c, 0, 73, 65
1, 47409, Note_on_c, 0, 81, 28
1, 47444, Note_off_c, 0, 81, 40
1, 47482, Note_on_c, 0, 45, 45
1, 47491, Note_on_c, 0, 33, 50
1, 47496, Note_on_c, 0, 81, 56
1, 47523, Note_off_c, 0, 81, 63
1, 47560, Note_on_c, 0, 83, 51
1, 47589, Note_off_c, 0, 33, 56
1, 47625, Note_off_c, 0, 83, 63
1, 47627, Note_on_c, 0, 85, 58
1, 47686, Note_off_c, 0, 85, 62
1, 47690, Note_on_c, 0, 93, 62
1, 47760, Note_on_c, 0, 85, 60
1, 47787, Note_off_c, 0, 93, 58
1, 47812, Note_on_c, 0, 83, 66
1, 47849, Note_off_c, 0, 85, 63
1, 47864, Note_on_c, 0, 81, 72
1, 47870, Note_off_c, 0, 83, 66
1, 47887, Note_off_c, 0, 81, 67
1, 47941, Note_on_c, 0, 81, 70
1, 48010, Note_off_c, 0, 81, 47
1, 48018, Note_on_c, 0, 52, 51
1, 48020, Note_on_c, 0, 73, 67
1, 48048, Note_on_c, 0, 49, 41
1, 48084, Note_off_c, 0, 73, 64
1, 48087, Note_on_c, 0, 71, 63
1, 48126, Note_off_c, 0, 71, 63
1, 48144, Note_on_c, 0, 69, 64
1, 48169, Note_off_c, 0, 69, 67
1, 48206, Note_on_c, 0, 69, 59
1, 48224, Note_off_c, 0, 69, 66
1, 48265, Note_off_c, 0, 52, 62
1, 48289, Note_on_c, 0, 50, 59
1, 48301, Note_on_c, 0, 53, 53
1, 48301, Note_on_c, 0, 70, 71
1, 48302, Note_off_c, 0, 49, 56
1, 48317, Control_c, 0, 64, 88
1, 48332, Control_c, 0, 64, 69
1, 48346, Control_c, 0, 64, 58
1, 48350, Note_off_c, 0, 70, 58
1, 48361, Control_c, 0, 64, 49
1, 48366, Note_on_c, 0, 72, 67
1, 48376, Control_c, 0, 64, 50
1, 48391, Control_c, 0, 64, 57
1, 48406, Control_c, 0, 64, 63
1, 48421, Control_c, 0, 64, 68
1, 48427, Note_on_c, 0, 74, 65
1, 48435, Note_off_c, 0, 72, 62
1, 48436, Control_c, 0, 64, 73
1, 48451, Control_c, 0, 64, 78
1, 48466, Control_c, 0, 64, 81
1, 48476, Note_off_c, 0, 74, 64
1, 48481, Control_c, 0, 64, 83
1, 48486, Note_on_c, 0, 82, 63
1, 48495, Control_c, 0, 64, 87
1, 48505, Note_off_c, 0, 82, 66
1, 48510, Control_c, 0, 64, 93
1, 48525, Control_c, 0, 64, 101
1, 48540, Control_c, 0, 64, 114
1, 48542, Note_off_c, 0, 53, 60
1, 48555, Control_c, 0, 64, 127
1, 48564, Note_on_c, 0, 55, 55
1, 48571, Note_on_c, 0, 82, 73
1, 48605, Note_off_c, 0, 82, 62
1, 48624, Note_on_c, 0, 84, 71
1, 48684, Note_off_c, 0, 55, 63
1, 48687, Note_off_c, 0, 84, 64
1, 48712, Note_on_c, 0, 86, 24
1, 48733, Note_on_c, 0, 53, 70
1, 48735, Note_on_c, 0, 87, 20
1, 48740, Note_on_c, 0, 94, 74
1, 48746, Note_off_c, 0, 87, 37
1, 48761, Note_off_c, 0, 86, 44
1, 48763, Control_c, 0, 64, 85
1, 48777, Control_c, 0, 64, 68
1, 48792, Control_c, 0, 64, 56
1, 48807, Control_c, 0, 64, 49
1, 48822, Control_c, 0, 64, 48
1, 48825, Note_off_c, 0, 50, 56
1, 48837, Control_c, 0, 64, 53
1, 48840, Note_off_c, 0, 94, 62
1, 48847, Note_on_c, 0, 58, 87
1, 48847, Note_on_c, 0, 86, 13
1, 48851, Control_c, 0, 64, 62
1, 48866, Control_c, 0, 64, 68
1, 48875, Note_off_c, 0, 45, 48
1, 48877, Note_on_c, 0, 84, 71
1, 48881, Control_c, 0, 64, 77
1, 48895, Control_c, 0, 64, 90
1, 48898, Note_on_c, 0, 85, 16
1, 48910, Control_c, 0, 64, 105
1, 48917, Poly_aftertouch_c, 0, 47, 0
1, 48921, Note_off_c, 0, 53, 60
1, 48925, Control_c, 0, 64, 127
1, 48932, Note_off_c, 0, 86, 55
1, 48939, Note_on_c, 0, 82, 67
1, 48945, Note_off_c, 0, 85, 53
1, 48950, Note_off_c, 0, 84, 64
1, 48965, Note_off_c, 0, 58, 63
1, 48967, Note_off_c, 0, 82, 67
1, 49113, Note_on_c, 0, 74, 34
1, 49132, Note_on_c, 0, 62, 87
1, 49194, Note_on_c, 0, 72, 61
1, 49201, Note_off_c, 0, 62, 65
1, 49215, Note_off_c, 0, 74, 63
1, 49232, Note_off_c, 0, 72, 62
1, 49256, Note_on_c, 0, 70, 66
1, 49283, Note_off_c, 0, 70, 0
1, 49320, Poly_aftertouch_c, 0, 70, 127
1, 49340, Poly_aftertouch_c, 0, 70, 0
1, 49400, Note_on_c, 0, 59, 60
1, 49401, Note_on_c, 0, 71, 71
1, 49419, Note_on_c, 0, 54, 65
1, 49419, Note_on_c, 0, 45, 57
1, 49425, Note_on_c, 0, 51, 62
1, 49437, Control_c, 0, 64, 80
1, 49452, Control_c, 0, 64, 59
1, 49467, Control_c, 0, 64, 31
1, 49469, Note_off_c, 0, 71, 54
1, 49479, Note_off_c, 0, 59, 65
1, 49479, Note_on_c, 0, 73, 55
1, 49482, Control_c, 0, 64, 25
1, 49497, Control_c, 0, 64, 39
1, 49509, Note_off_c, 0, 54, 65
1, 49512, Control_c, 0, 64, 57
1, 49519, Note_on_c, 0, 75, 73
1, 49524, Note_off_c, 0, 51, 64
1, 49526, Control_c, 0, 64, 69
1, 49528, Note_off_c, 0, 45, 65
1, 49541, Control_c, 0, 64, 88
1, 49556, Control_c, 0, 64, 127
1, 49572, Note_on_c, 0, 83, 80
1, 49572, Note_off_c, 0, 73, 65
1, 49584, Note_off_c, 0, 75, 66
1, 49597, Note_off_c, 0, 83, 67
1, 49660, Note_on_c, 0, 83, 71
1, 49669, Poly_aftertouch_c, 0, 78, 0
1, 49674, Note_on_c, 0, 39, 9
1, 49676, Note_on_c, 0, 45, 63
1, 49680, Note_on_c, 0, 33, 56
1, 49712, Note_off_c, 0, 83, 63
1, 49723, Note_on_c, 0, 85, 77
1, 49783, Note_on_c, 0, 87, 79
1, 49784, Note_off_c, 0, 85, 61
1, 49839, Note_off_c, 0, 33, 62
1, 49843, Note_on_c, 0, 95, 85
1, 49850, Note_off_c, 0, 87, 67
1, 49889, Note_off_c, 0, 39, 17
1, 49891, Note_off_c, 0, 45, 63
1, 49917, Note_on_c, 0, 87, 83
1, 49937, Note_off_c, 0, 95, 64
1, 49956, Note_on_c, 0, 85, 76
1, 50001, Note_off_c, 0, 87, 64
1, 50015, Note_on_c, 0, 83, 81
1, 50020, Note_off_c, 0, 85, 63
1, 50039, Note_off_c, 0, 83, 70
1, 50090, Note_on_c, 0, 83, 64
1, 50167, Note_off_c, 0, 83, 66
1, 50170, Note_on_c, 0, 75, 73
1, 50176, Note_on_c, 0, 51, 48
1, 50190, Note_on_c, 0, 54, 71
1, 50192, Note_on_c, 0, 45, 56
1, 50223, Note_on_c, 0, 73, 71
1, 50237, Note_off_c, 0, 75, 66
1, 50281, Note_off_c, 0, 73, 65
1, 50285, Note_on_c, 0, 71, 72
1, 50317, Note_off_c, 0, 71, 65
1, 50343, Note_off_c, 0, 54, 63
1, 50355, Note_on_c, 0, 71, 71
1, 50374, Note_off_c, 0, 51, 27
1, 50379, Note_off_c, 0, 71, 67
1, 50424, Control_c, 0, 64, 118
1, 50436, Note_on_c, 0, 52, 82
1, 50437, Note_on_c, 0, 55, 83
1, 50439, Control_c, 0, 64, 76
1, 50439, Note_on_c, 0, 72, 80
1, 50454, Control_c, 0, 64, 59
1, 50468, Control_c, 0, 64, 36
1, 50483, Control_c, 0, 64, 31
1, 50498, Control_c, 0, 64, 39
1, 50503, Note_on_c, 0, 74, 77
1, 50503, Note_off_c, 0, 72, 61
1, 50513, Control_c, 0, 64, 53
1, 50528, Control_c, 0, 64, 63
1, 50542, Control_c, 0, 64, 71
1, 50557, Control_c, 0, 64, 80
1, 50559, Note_on_c, 0, 76, 80
1, 50579, Control_c, 0, 64, 90
1, 50581, Note_off_c, 0, 74, 60
1, 50594, Control_c, 0, 64, 96
1, 50609, Control_c, 0, 64, 102
1, 50612, Note_off_c, 0, 55, 63
1, 50621, Note_off_c, 0, 76, 66
1, 50622, Note_on_c, 0, 84, 80
1, 50624, Control_c, 0, 64, 115
1, 50638, Control_c, 0, 64, 127
1, 50647, Note_off_c, 0, 84, 69
1, 50668, Note_off_c, 0, 52, 62
1, 50682, Note_on_c, 0, 57, 82
1, 50701, Note_on_c, 0, 84, 81
1, 50705, Poly_aftertouch_c, 0, 79, 0
1, 50749, Note_off_c, 0, 84, 66
1, 50753, Note_on_c, 0, 86, 81
1, 50777, Note_off_c, 0, 45, 38
1, 50816, Note_on_c, 0, 88, 75
1, 50822, Note_off_c, 0, 86, 62
1, 50835, Note_off_c, 0, 57, 63
1, 50866, Note_on_c, 0, 55, 82
1, 50871, Note_off_c, 0, 88, 65
1, 50873, Note_on_c, 0, 96, 91
1, 50920, Control_c, 0, 64, 81
1, 50935, Control_c, 0, 64, 64
1, 50950, Control_c, 0, 64, 57
1, 50952, Note_on_c, 0, 88, 74
1, 50964, Control_c, 0, 64, 56
1, 50966, Note_on_c, 0, 60, 90
1, 50975, Note_off_c, 0, 96, 61
1, 50979, Control_c, 0, 64, 60
1, 50994, Control_c, 0, 64, 66
1, 51008, Note_on_c, 0, 86, 80
1, 51009, Control_c, 0, 64, 75
1, 51024, Control_c, 0, 64, 93
1, 51032, Note_off_c, 0, 88, 67
1, 51038, Control_c, 0, 64, 127
1, 51047, Note_off_c, 0, 55, 61
1, 51064, Note_on_c, 0, 84, 77
1, 51068, Note_off_c, 0, 86, 65
1, 51093, Note_off_c, 0, 60, 63
1, 51093, Note_off_c, 0, 84, 68
1, 51096, Poly_aftertouch_c, 0, 51, 0
1, 51156, Note_on_c, 0, 84, 76
1, 51194, Note_off_c, 0, 84, 55
1, 51226, Note_on_c, 0, 76, 69
1, 51229, Note_on_c, 0, 64, 85
1, 51232, Note_on_c, 0, 77, 57
1, 51251, Note_off_c, 0, 77, 63
1, 51265, Note_off_c, 0, 64, 68
1, 51289, Note_on_c, 0, 74, 77
1, 51300, Note_off_c, 0, 76, 63
1, 51352, Note_off_c, 0, 74, 64
1, 51358, Note_on_c, 0, 72, 82
1, 51389, Note_off_c, 0, 72, 64
1, 51417, Note_on_c, 0, 45, 76
1, 51427, Note_on_c, 0, 72, 80
1, 51454, Note_off_c, 0, 72, 66
1, 51460, Note_on_c, 0, 52, 77
1, 51472, Note_off_c, 0, 45, 65
1, 51496, Note_on_c, 0, 55, 76
1, 51561, Note_on_c, 0, 61, 90
1, 51587, Note_on_c, 0, 73, 82
1, 51594, Control_c, 0, 64, 84
1, 51609, Control_c, 0, 64, 65
1, 51623, Control_c, 0, 64, 54
1, 51640, Control_c, 0, 64, 51
1, 51652, Note_on_c, 0, 74, 79
1, 51655, Control_c, 0, 64, 55
1, 51663, Note_off_c, 0, 61, 65
1, 51669, Control_c, 0, 64, 62
1, 51681, Note_off_c, 0, 55, 64
1, 51684, Control_c, 0, 64, 70
1, 51699, Control_c, 0, 64, 81
1, 51700, Note_off_c, 0, 52, 65
1, 51706, Note_off_c, 0, 73, 60
1, 51713, Control_c, 0, 64, 97
1, 51725, Note_on_c, 0, 76, 76
1, 51728, Control_c, 0, 64, 124
1, 51732, Note_off_c, 0, 74, 65
1, 51743, Control_c, 0, 64, 127
1, 51778, Note_off_c, 0, 76, 64
1, 51783, Note_on_c, 0, 85, 76
1, 51868, Note_on_c, 0, 76, 83
1, 51871, Note_off_c, 0, 85, 62
1, 51877, Note_on_c, 0, 45, 78
1, 51879, Note_on_c, 0, 33, 76
1, 51891, Control_c, 0, 64, 77
1, 51905, Control_c, 0, 64, 59
1, 51920, Control_c, 0, 64, 47
1, 51926, Note_off_c, 0, 76, 65
1, 51928, Note_on_c, 0, 77, 80
1, 51950, Control_c, 0, 64, 54
1, 51965, Control_c, 0, 64, 64
1, 51975, Note_on_c, 0, 79, 81
1, 51980, Control_c, 0, 64, 72
1, 51995, Control_c, 0, 64, 83
1, 52005, Note_off_c, 0, 77, 65
1, 52007, Note_off_c, 0, 33, 63
1, 52010, Control_c, 0, 64, 98
1, 52025, Note_off_c, 0, 45, 64
1, 52025, Control_c, 0, 64, 112
1, 52029, Note_on_c, 0, 88, 80
1, 52034, Note_off_c, 0, 79, 67
1, 52039, Control_c, 0, 64, 127
1, 52099, Note_off_c, 0, 88, 63
1, 52111, Note_on_c, 0, 79, 87
1, 52144, Note_on_c, 0, 81, 35
1, 52177, Note_off_c, 0, 79, 66
1, 52230, Note_on_c, 0, 82, 67
1, 52254, Note_off_c, 0, 81, 61
1, 52259, Note_on_c, 0, 83, 72
1, 52272, Note_on_c, 0, 91, 80
1, 52275, Note_off_c, 0, 83, 68
1, 52300, Note_off_c, 0, 91, 63
1, 52303, Note_on_c, 0, 87, 20
1, 52310, Note_off_c, 0, 82, 34
1, 52342, Note_off_c, 0, 87, 45
1, 52352, Note_on_c, 0, 55, 68
1, 52358, Control_c, 0, 64, 81
1, 52362, Note_on_c, 0, 82, 76
1, 52373, Control_c, 0, 64, 59
1, 52387, Control_c, 0, 64, 47
1, 52402, Control_c, 0, 64, 46
1, 52417, Note_on_c, 0, 57, 64
1, 52417, Control_c, 0, 64, 54
1, 52421, Note_on_c, 0, 84, 72
1, 52426, Note_off_c, 0, 82, 64
1, 52432, Control_c, 0, 64, 63
1, 52443, Note_on_c, 0, 85, 53
1, 52448, Control_c, 0, 64, 71
1, 52463, Control_c, 0, 64, 85
1, 52465, Note_off_c, 0, 55, 58
1, 52474, Note_on_c, 0, 58, 68
1, 52478, Control_c, 0, 64, 113
1, 52486, Note_off_c, 0, 85, 0
1, 52486, Note_on_c, 0, 85, 61
1, 52488, Note_off_c, 0, 57, 63
1, 52492, Control_c, 0, 64, 127
1, 52516, Note_off_c, 0, 58, 62
1, 52519, Note_off_c, 0, 84, 66
1, 52529, Note_on_c, 0, 94, 79
1, 52537, Note_on_c, 0, 64, 71
1, 52549, Note_off_c, 0, 85, 64
1, 52574, Note_off_c, 0, 94, 63
1, 52576, Note_off_c, 0, 64, 60
1, 52610, Control_c, 0, 64, 87
1, 52617, Note_on_c, 0, 79, 77
1, 52621, Note_on_c, 0, 58, 69
1, 52625, Control_c, 0, 64, 67
1, 52640, Control_c, 0, 64, 58
1, 52650, Note_on_c, 0, 81, 45
1, 52658, Note_on_c, 0, 60, 57
1, 52669, Control_c, 0, 64, 62
1, 52684, Control_c, 0, 64, 69
1, 52699, Control_c, 0, 64, 80
1, 52704, Note_off_c, 0, 58, 64
1, 52708, Note_off_c, 0, 79, 56
1, 52710, Note_off_c, 0, 60, 61
1, 52714, Control_c, 0, 64, 95
1, 52715, Note_on_c, 0, 61, 71
1, 52728, Control_c, 0, 64, 127
1, 52739, Note_on_c, 0, 82, 79
1, 52748, Note_off_c, 0, 61, 63
1, 52764, Note_off_c, 0, 81, 63
1, 52770, Note_on_c, 0, 67, 68
1, 52798, Note_on_c, 0, 91, 65
1, 52798, Note_off_c, 0, 82, 65
1, 52817, Note_off_c, 0, 67, 57
1, 52828, Note_off_c, 0, 91, 65
1, 52847, Note_on_c, 0, 61, 63
1, 52855, Control_c, 0, 64, 77
1, 52869, Control_c, 0, 64, 59
1, 52874, Note_on_c, 0, 76, 82
1, 52884, Control_c, 0, 64, 45
1, 52899, Control_c, 0, 64, 45
1, 52901, Note_on_c, 0, 62, 59
1, 52914, Control_c, 0, 64, 53
1, 52929, Control_c, 0, 64, 62
1, 52934, Note_on_c, 0, 77, 80
1, 52937, Note_off_c, 0, 61, 63
1, 52940, Note_off_c, 0, 62, 68
1, 52942, Note_off_c, 0, 76, 65
1, 52943, Control_c, 0, 64, 70
1, 52944, Note_on_c, 0, 64, 68
1, 52958, Control_c, 0, 64, 82
1, 52973, Control_c, 0, 64, 103
1, 52984, Note_off_c, 0, 64, 64
1, 52988, Control_c, 0, 64, 127
1, 52999, Note_on_c, 0, 79, 81
1, 53015, Note_on_c, 0, 70, 67
1, 53028, Note_off_c, 0, 77, 65
1, 53048, Note_on_c, 0, 88, 82
1, 53048, Note_off_c, 0, 70, 65
1, 53050, Note_off_c, 0, 79, 68
1, 53085, Note_on_c, 0, 63, 61
1, 53107, Note_off_c, 0, 63, 63
1, 53107, Control_c, 0, 64, 75
1, 53119, Note_on_c, 0, 79, 92
1, 53119, Note_off_c, 0, 88, 63
1, 53120, Note_on_c, 0, 64, 56
1, 53122, Control_c, 0, 64, 60
1, 53136, Control_c, 0, 64, 52
1, 53150, Note_on_c, 0, 65, 67
1, 53151, Control_c, 0, 64, 53
1, 53166, Control_c, 0, 64, 59
1, 53177, Note_on_c, 0, 81, 80
1, 53181, Control_c, 0, 64, 67
1, 53196, Control_c, 0, 64, 77
1, 53199, Note_off_c, 0, 79, 65
1, 53205, Note_off_c, 0, 64, 58
1, 53211, Control_c, 0, 64, 96
1, 53215, Note_off_c, 0, 65, 63
1, 53226, Control_c, 0, 64, 127
1, 53227, Note_on_c, 0, 67, 48
1, 53232, Note_on_c, 0, 82, 76
1, 53250, Note_off_c, 0, 81, 65
1, 53253, Note_off_c, 0, 67, 57
1, 53256, Note_on_c, 0, 73, 68
1, 53284, Note_off_c, 0, 73, 68
1, 53290, Note_on_c, 0, 91, 72
1, 53291, Note_off_c, 0, 82, 65
1, 53316, Note_off_c, 0, 91, 69
1, 53339, Note_on_c, 0, 67, 68
1, 53345, Control_c, 0, 64, 83
1, 53352, Note_on_c, 0, 68, 31
1, 53360, Control_c, 0, 64, 60
1, 53375, Control_c, 0, 64, 34
1, 53381, Note_on_c, 0, 82, 68
1, 53388, Note_on_c, 0, 69, 71
1, 53390, Control_c, 0, 64, 31
1, 53399, Note_off_c, 0, 68, 47
1, 53405, Control_c, 0, 64, 42
1, 53420, Control_c, 0, 64, 58
1, 53431, Note_off_c, 0, 82, 61
1, 53434, Note_off_c, 0, 67, 63
1, 53434, Control_c, 0, 64, 68
1, 53435, Note_on_c, 0, 84, 74
1, 53439, Note_on_c, 0, 70, 63
1, 53441, Note_on_c, 0, 85, 65
1, 53449, Control_c, 0, 64, 81
1, 53464, Control_c, 0, 64, 100
1, 53477, Note_off_c, 0, 69, 65
1, 53479, Control_c, 0, 64, 127
1, 53495, Note_on_c, 0, 76, 68
1, 53501, Note_off_c, 0, 70, 64
1, 53503, Note_off_c, 0, 84, 58
1, 53534, Note_on_c, 0, 94, 76
1, 53535, Note_off_c, 0, 85, 65
1, 53573, Note_off_c, 0, 94, 64
1, 53590, Control_c, 0, 64, 106
1, 53593, Note_on_c, 0, 79, 80
1, 53597, Note_off_c, 0, 76, 63
1, 53604, Control_c, 0, 64, 68
1, 53610, Note_on_c, 0, 88, 78
1, 53619, Control_c, 0, 64, 51
1, 53628, Note_off_c, 0, 79, 66
1, 53634, Control_c, 0, 64, 42
1, 53649, Control_c, 0, 64, 44
1, 53659, Note_on_c, 0, 87, 50
1, 53664, Control_c, 0, 64, 54
1, 53679, Control_c, 0, 64, 64
1, 53681, Note_on_c, 0, 86, 78
1, 53685, Note_off_c, 0, 87, 36
1, 53693, Control_c, 0, 64, 76
1, 53708, Control_c, 0, 64, 98
1, 53723, Control_c, 0, 64, 127
1, 53724, Note_on_c, 0, 85, 83
1, 53736, Note_off_c, 0, 88, 60
1, 53767, Control_c, 0, 64, 93
1, 53775, Note_off_c, 0, 86, 64
1, 53779, Note_on_c, 0, 79, 80
1, 53782, Control_c, 0, 64, 64
1, 53797, Control_c, 0, 64, 44
1, 53810, Note_off_c, 0, 85, 64
1, 53812, Control_c, 0, 64, 15
1, 53826, Note_on_c, 0, 67, 70
1, 53827, Control_c, 0, 64, 0
1, 53835, Note_on_c, 0, 88, 78
1, 53837, Note_off_c, 0, 79, 66
1, 53841, Control_c, 0, 64, 23
1, 53856, Control_c, 0, 64, 47
1, 53871, Control_c, 0, 64, 62
1, 53877, Note_on_c, 0, 69, 58
1, 53886, Control_c, 0, 64, 74
1, 53886, Note_on_c, 0, 86, 79
1, 53888, Note_off_c, 0, 67, 64
1, 53900, Control_c, 0, 64, 88
1, 53904, Note_off_c, 0, 69, 67
1, 53908, Note_on_c, 0, 70, 71
1, 53915, Control_c, 0, 64, 102
1, 53927, Note_off_c, 0, 88, 64
1, 53930, Control_c, 0, 64, 109
1, 53932, Note_on_c, 0, 85, 82
1, 53935, Note_off_c, 0, 70, 67
1, 53938, Note_off_c, 0, 86, 67
1, 53945, Control_c, 0, 64, 114
1, 53958, Note_off_c, 0, 85, 66
1, 53959, Control_c, 0, 64, 127
1, 54054, Note_on_c, 0, 92, 7
1, 54055, Note_on_c, 0, 88, 76
1, 54072, Note_on_c, 0, 67, 67
1, 54094, Control_c, 0, 64, 84
1, 54100, Note_off_c, 0, 92, 38
1, 54108, Control_c, 0, 64, 69
1, 54123, Control_c, 0, 64, 62
1, 54129, Note_on_c, 0, 86, 74
1, 54138, Control_c, 0, 64, 60
1, 54150, Note_off_c, 0, 67, 62
1, 54153, Note_on_c, 0, 69, 49
1, 54153, Control_c, 0, 64, 62
1, 54164, Note_on_c, 0, 70, 69
1, 54168, Control_c, 0, 64, 67
1, 54171, Note_on_c, 0, 85, 75
1, 54176, Note_off_c, 0, 88, 65
1, 54179, Note_off_c, 0, 69, 61
1, 54183, Control_c, 0, 64, 75
1, 54195, Note_off_c, 0, 86, 64
1, 54198, Control_c, 0, 64, 83
1, 54204, Note_off_c, 0, 70, 60
1, 54213, Control_c, 0, 64, 89
1, 54227, Control_c, 0, 64, 90
1, 54230, Note_on_c, 0, 76, 54
1, 54231, Note_on_c, 0, 79, 77
1, 54242, Note_off_c, 0, 85, 64
1, 54257, Note_off_c, 0, 76, 64
1, 54282, Note_off_c, 0, 79, 63
1, 54287, Control_c, 0, 64, 90
1, 54290, Note_on_c, 0, 67, 60
1, 54290, Note_on_c, 0, 88, 74
1, 54302, Control_c, 0, 64, 91
1, 54321, Note_on_c, 0, 69, 57
1, 54323, Control_c, 0, 64, 93
1, 54338, Control_c, 0, 64, 96
1, 54353, Control_c, 0, 64, 102
1, 54356, Note_on_c, 0, 86, 73
1, 54367, Note_off_c, 0, 67, 62
1, 54368, Control_c, 0, 64, 114
1, 54376, Note_off_c, 0, 69, 62
1, 54378, Note_off_c, 0, 88, 67
1, 54383, Control_c, 0, 64, 127
1, 54392, Note_on_c, 0, 70, 65
1, 54399, Note_on_c, 0, 85, 77
1, 54404, Note_off_c, 0, 86, 65
1, 54415, Note_off_c, 0, 70, 65
1, 54424, Note_off_c, 0, 85, 67
1, 54457, Note_on_c, 0, 61, 71
1, 54457, Control_c, 0, 64, 94
1, 54467, Note_on_c, 0, 94, 79
1, 54472, Control_c, 0, 64, 68
1, 54481, Note_off_c, 0, 61, 66
1, 54481, Note_off_c, 0, 94, 43
1, 54487, Control_c, 0, 64, 55
1, 54502, Control_c, 0, 64, 53
1, 54514, Note_on_c, 0, 93, 43
1, 54516, Control_c, 0, 64, 57
1, 54531, Control_c, 0, 64, 63
1, 54543, Note_on_c, 0, 89, 58
1, 54543, Note_off_c, 0, 93, 53
1, 54544, Note_on_c, 0, 88, 72
1, 54545, Note_on_c, 0, 67, 64
1, 54546, Control_c, 0, 64, 70
1, 54561, Control_c, 0, 64, 79
1, 54576, Control_c, 0, 64, 88
1, 54590, Control_c, 0, 64, 92
1, 54603, Note_off_c, 0, 89, 63
1, 54603, Note_on_c, 0, 86, 70
1, 54605, Control_c, 0, 64, 92
1, 54615, Note_off_c, 0, 67, 63
1, 54634, Control_c, 0, 64, 93
1, 54636, Note_on_c, 0, 69, 37
1, 54639, Note_on_c, 0, 85, 74
1, 54639, Note_on_c, 0, 70, 63
1, 54640, Note_off_c, 0, 88, 66
1, 54649, Control_c, 0, 64, 93
1, 54663, Note_off_c, 0, 86, 65
1, 54664, Control_c, 0, 64, 94
1, 54669, Note_off_c, 0, 69, 55
1, 54679, Control_c, 0, 64, 94
1, 54680, Note_off_c, 0, 70, 60
1, 54695, Note_on_c, 0, 76, 65
1, 54707, Note_off_c, 0, 85, 63
1, 54708, Control_c, 0, 64, 95
1, 54709, Note_on_c, 0, 79, 69
1, 54723, Control_c, 0, 64, 96
1, 54738, Control_c, 0, 64, 99
1, 54753, Control_c, 0, 64, 101
1, 54754, Note_off_c, 0, 76, 60
1, 54768, Control_c, 0, 64, 104
1, 54770, Note_off_c, 0, 79, 57
1, 54779, Note_on_c, 0, 85, 69
1, 54782, Control_c, 0, 64, 106
1, 54797, Note_on_c, 0, 69, 50
1, 54797, Note_on_c, 0, 70, 22
1, 54797, Control_c, 0, 64, 109
1, 54812, Control_c, 0, 64, 118
1, 54821, Note_off_c, 0, 85, 61
1, 54828, Control_c, 0, 64, 127
1, 54830, Note_on_c, 0, 86, 65
1, 54830, Note_off_c, 0, 70, 54
1, 54853, Note_off_c, 0, 69, 65
1, 54880, Note_on_c, 0, 88, 56
1, 54882, Note_off_c, 0, 86, 66
1, 54898, Note_on_c, 0, 89, 28
1, 54917, Control_c, 0, 64, 87
1, 54926, Note_on_c, 0, 66, 15
1, 54928, Note_on_c, 0, 61, 69
1, 54931, Control_c, 0, 64, 70
1, 54934, Note_off_c, 0, 89, 45
1, 54935, Note_on_c, 0, 94, 80
1, 54940, Note_off_c, 0, 88, 64
1, 54946, Control_c, 0, 64, 63
1, 54954, Note_off_c, 0, 66, 0
1, 54956, Note_off_c, 0, 94, 70
1, 54961, Poly_aftertouch_c, 0, 67, 0
1, 54961, Control_c, 0, 64, 63
1, 54975, Poly_aftertouch_c, 0, 66, 0
1, 54976, Control_c, 0, 64, 66
1, 54988, Note_off_c, 0, 61, 64
1, 54991, Control_c, 0, 64, 73
1, 55005, Note_on_c, 0, 88, 76
1, 55005, Control_c, 0, 64, 83
1, 55019, Note_on_c, 0, 67, 56
1, 55020, Control_c, 0, 64, 92
1, 55035, Control_c, 0, 64, 96
1, 55050, Control_c, 0, 64, 96
1, 55071, Note_on_c, 0, 69, 57
1, 55084, Note_on_c, 0, 86, 65
1, 55087, Control_c, 0, 64, 97
1, 55102, Control_c, 0, 64, 98
1, 55115, Note_off_c, 0, 69, 62
1, 55117, Note_off_c, 0, 88, 64
1, 55117, Control_c, 0, 64, 99
1, 55126, Note_off_c, 0, 67, 47
1, 55131, Note_on_c, 0, 85, 74
1, 55132, Control_c, 0, 64, 102
1, 55135, Note_on_c, 0, 70, 52
1, 55146, Control_c, 0, 64, 104
1, 55149, Note_off_c, 0, 86, 63
1, 55161, Control_c, 0, 64, 106
1, 55176, Control_c, 0, 64, 108
1, 55187, Note_off_c, 0, 85, 62
1, 55190, Note_off_c, 0, 70, 62
1, 55191, Control_c, 0, 64, 109
1, 55198, Note_on_c, 0, 76, 43
1, 55206, Control_c, 0, 64, 110
1, 55211, Note_on_c, 0, 79, 71
1, 55220, Control_c, 0, 64, 113
1, 55229, Note_off_c, 0, 76, 51
1, 55235, Control_c, 0, 64, 115
1, 55250, Control_c, 0, 64, 118
1, 55251, Note_off_c, 0, 79, 54
1, 55265, Control_c, 0, 64, 122
1, 55273, Note_on_c, 0, 70, 27
1, 55276, Note_on_c, 0, 85, 59
1, 55280, Control_c, 0, 64, 127
1, 55310, Note_off_c, 0, 70, 49
1, 55313, Note_off_c, 0, 85, 65
1, 55324, Note_on_c, 0, 86, 64
1, 55324, Control_c, 0, 64, 122
1, 55330, Note_on_c, 0, 69, 9
1, 55339, Control_c, 0, 64, 93
1, 55351, Note_on_c, 0, 67, 44
1, 55354, Control_c, 0, 64, 71
1, 55369, Note_on_c, 0, 88, 64
1, 55369, Control_c, 0, 64, 54
1, 55375, Note_off_c, 0, 86, 55
1, 55381, Note_off_c, 0, 69, 50
1, 55384, Control_c, 0, 64, 21
1, 55386, Note_off_c, 0, 67, 53
1, 55399, Control_c, 0, 64, 0
1, 55404, Note_on_c, 0, 60, 53
1, 55427, Control_c, 0, 64, 28
1, 55437, Note_off_c, 0, 88, 61
1, 55441, Note_on_c, 0, 94, 69
1, 55442, Control_c, 0, 64, 50
1, 55456, Control_c, 0, 64, 61
1, 55464, Note_off_c, 0, 94, 67
1, 55471, Control_c, 0, 64, 68
1, 55486, Control_c, 0, 64, 73
1, 55501, Control_c, 0, 64, 77
1, 55516, Control_c, 0, 64, 79
1, 55517, Note_on_c, 0, 88, 51
1, 55524, Note_off_c, 0, 60, 33
1, 55528, Note_on_c, 0, 67, 41
1, 55530, Control_c, 0, 64, 82
1, 55545, Control_c, 0, 64, 86
1, 55560, Control_c, 0, 64, 90
1, 55575, Control_c, 0, 64, 94
1, 55590, Control_c, 0, 64, 96
1, 55593, Note_on_c, 0, 86, 63
1, 55605, Control_c, 0, 64, 97
1, 55614, Note_off_c, 0, 88, 58
1, 55620, Control_c, 0, 64, 98
1, 55631, Note_on_c, 0, 69, 21
1, 55635, Control_c, 0, 64, 98
1, 55643, Note_on_c, 0, 84, 62
1, 55650, Control_c, 0, 64, 99
1, 55652, Note_on_c, 0, 70, 50
1, 55658, Note_off_c, 0, 86, 64
1, 55676, Note_off_c, 0, 69, 52
1, 55682, Note_off_c, 0, 70, 56
1, 55686, Note_off_c, 0, 67, 32
1, 55687, Note_off_c, 0, 84, 64
1, 55708, Note_on_c, 0, 79, 56
1, 55715, Note_on_c, 0, 76, 45
1, 55734, Note_off_c, 0, 79, 67
1, 55745, Note_off_c, 0, 76, 55
1, 55751, Note_on_c, 0, 88, 70
1, 55796, Note_on_c, 0, 69, 53
1, 55825, Note_on_c, 0, 86, 59
1, 55827, Note_on_c, 0, 67, 23
1, 55833, Note_off_c, 0, 88, 59
1, 55835, Control_c, 0, 64, 100
1, 55850, Control_c, 0, 64, 100
1, 55854, Note_on_c, 0, 84, 74
1, 55860, Note_off_c, 0, 86, 67
1, 55865, Control_c, 0, 64, 101
1, 55878, Note_off_c, 0, 67, 45
1, 55880, Control_c, 0, 64, 103
1, 55881, Note_off_c, 0, 84, 69
1, 55915, Note_off_c, 0, 69, 36
1, 55916, Note_on_c, 0, 60, 61
1, 55924, Control_c, 0, 64, 89
1, 55929, Note_on_c, 0, 94, 79
1, 55939, Control_c, 0, 64, 73
1, 55950, Note_off_c, 0, 94, 69
1, 55954, Control_c, 0, 64, 62
1, 55968, Control_c, 0, 64, 58
1, 55973, Note_off_c, 0, 60, 48
1, 55983, Control_c, 0, 64, 60
1, 55998, Control_c, 0, 64, 64
1, 56004, Note_on_c, 0, 88, 75
1, 56013, Control_c, 0, 64, 69
1, 56016, Note_on_c, 0, 67, 35
1, 56028, Control_c, 0, 64, 74
1, 56043, Control_c, 0, 64, 78
1, 56058, Control_c, 0, 64, 80
1, 56065, Note_off_c, 0, 88, 66
1, 56073, Control_c, 0, 64, 81
1, 56083, Note_on_c, 0, 86, 53
1, 56085, Note_on_c, 0, 69, 40
1, 56087, Control_c, 0, 64, 81
1, 56102, Control_c, 0, 64, 83
1, 56117, Control_c, 0, 64, 85
1, 56120, Note_off_c, 0, 67, 52
1, 56120, Note_on_c, 0, 84, 66
1, 56128, Note_on_c, 0, 70, 55
1, 56129, Note_off_c, 0, 69, 48
1, 56129, Note_off_c, 0, 86, 63
1, 56132, Control_c, 0, 64, 88
1, 56147, Control_c, 0, 64, 91
1, 56161, Control_c, 0, 64, 92
1, 56167, Note_off_c, 0, 70, 59
1, 56176, Control_c, 0, 64, 92
1, 56177, Note_off_c, 0, 84, 64
1, 56189, Note_on_c, 0, 79, 62
1, 56191, Control_c, 0, 64, 93
1, 56200, Note_on_c, 0, 76, 37
1, 56206, Control_c, 0, 64, 95
1, 56221, Control_c, 0, 64, 96
1, 56229, Note_off_c, 0, 79, 61
1, 56232, Note_off_c, 0, 76, 53
1, 56249, Note_on_c, 0, 88, 62
1, 56256, Note_on_c, 0, 67, 54
1, 56265, Control_c, 0, 64, 96
1, 56279, Control_c, 0, 64, 97
1, 56288, Note_on_c, 0, 69, 46
1, 56294, Control_c, 0, 64, 97
1, 56306, Note_on_c, 0, 86, 57
1, 56308, Note_off_c, 0, 88, 58
1, 56309, Control_c, 0, 64, 98
1, 56324, Control_c, 0, 64, 100
1, 56338, Note_on_c, 0, 70, 37
1, 56339, Control_c, 0, 64, 101
1, 56344, Note_off_c, 0, 69, 49
1, 56345, Note_off_c, 0, 86, 65
1, 56350, Note_on_c, 0, 84, 47
1, 56353, Control_c, 0, 64, 104
1, 56363, Note_off_c, 0, 70, 57
1, 56368, Control_c, 0, 64, 107
1, 56369, Note_off_c, 0, 67, 29
1, 56377, Note_off_c, 0, 84, 57
1, 56383, Control_c, 0, 64, 108
1, 56398, Control_c, 0, 64, 103
1, 56409, Note_on_c, 0, 60, 55
1, 56413, Control_c, 0, 64, 86
1, 56429, Control_c, 0, 64, 71
1, 56444, Control_c, 0, 64, 63
1, 56458, Control_c, 0, 64, 62
1, 56469, Note_off_c, 0, 60, 43
1, 56473, Control_c, 0, 64, 63
1, 56488, Note_on_c, 0, 88, 75
1, 56488, Control_c, 0, 64, 67
1, 56500, Note_on_c, 0, 67, 50
1, 56502, Control_c, 0, 64, 73
1, 56517, Control_c, 0, 64, 80
1, 56532, Control_c, 0, 64, 86
1, 56555, Control_c, 0, 64, 88
1, 56560, Note_on_c, 0, 86, 71
1, 56568, Note_on_c, 0, 69, 48
1, 56575, Note_off_c, 0, 88, 61
1, 56597, Note_off_c, 0, 67, 58
1, 56597, Note_off_c, 0, 86, 62
1, 56601, Note_off_c, 0, 69, 58
1, 56605, Note_on_c, 0, 84, 64
1, 56614, Control_c, 0, 64, 89
1, 56618, Note_on_c, 0, 70, 53
1, 56629, Control_c, 0, 64, 90
1, 56644, Control_c, 0, 64, 90
1, 56658, Control_c, 0, 64, 91
1, 56663, Note_off_c, 0, 84, 66
1, 56669, Note_off_c, 0, 70, 62
1, 56672, Note_on_c, 0, 79, 64
1, 56686, Note_on_c, 0, 76, 56
1, 56688, Control_c, 0, 64, 91
1, 56703, Control_c, 0, 64, 92
1, 56717, Control_c, 0, 64, 93
1, 56720, Note_off_c, 0, 79, 60
1, 56732, Control_c, 0, 64, 94
1, 56733, Note_off_c, 0, 76, 62
1, 56746, Note_on_c, 0, 70, 53
1, 56747, Control_c, 0, 64, 94
1, 56754, Note_on_c, 0, 84, 57
1, 56762, Control_c, 0, 64, 95
1, 56772, Note_off_c, 0, 70, 58
1, 56793, Note_off_c, 0, 84, 62
1, 56800, Note_on_c, 0, 86, 58
1, 56806, Note_on_c, 0, 69, 34
1, 56839, Note_off_c, 0, 69, 53
1, 56842, Note_on_c, 0, 88, 66
1, 56848, Note_on_c, 0, 67, 47
1, 56854, Note_off_c, 0, 86, 62
1, 56885, Note_off_c, 0, 88, 56
1, 56886, Note_off_c, 0, 67, 49
1, 56897, Note_on_c, 0, 60, 49
1, 56945, Note_off_c, 0, 60, 45
1, 56947, Note_on_c, 0, 94, 40
1, 56976, Note_off_c, 0, 94, 51
1, 57000, Note_on_c, 0, 88, 56
1, 57005, Note_on_c, 0, 67, 46
1, 57059, Note_on_c, 0, 69, 36
1, 57073, Note_on_c, 0, 86, 57
1, 57093, Note_on_c, 0, 70, 59
1, 57097, Note_off_c, 0, 88, 59
1, 57099, Note_off_c, 0, 69, 50
1, 57118, Note_on_c, 0, 84, 62
1, 57119, Note_off_c, 0, 86, 64
1, 57124, Note_off_c, 0, 67, 32
1, 57138, Note_off_c, 0, 70, 60
1, 57168, Note_off_c, 0, 84, 64
1, 57183, Note_on_c, 0, 76, 47
1, 57200, Note_on_c, 0, 79, 51
1, 57236, Note_off_c, 0, 76, 57
1, 57238, Note_off_c, 0, 79, 64
1, 57243, Note_on_c, 0, 70, 47
1, 57262, Note_on_c, 0, 84, 54
1, 57268, Note_off_c, 0, 70, 59
1, 57291, Note_on_c, 0, 69, 53
1, 57319, Note_on_c, 0, 86, 58
1, 57325, Note_off_c, 0, 84, 57
1, 57357, Note_off_c, 0, 69, 56
1, 57379, Note_off_c, 0, 86, 52
1, 57380, Note_on_c, 0, 88, 51
1, 57388, Note_on_c, 0, 67, 37
1, 57422, Control_c, 0, 64, 95
1, 57426, Note_on_c, 0, 60, 50
1, 57426, Note_off_c, 0, 67, 50
1, 57444, Note_off_c, 0, 88, 44
1, 57460, Note_on_c, 0, 94, 53
1, 57488, Note_off_c, 0, 94, 65
1, 57515, Note_off_c, 0, 60, 33
1, 57559, Note_on_c, 0, 67, 40
1, 57569, Note_on_c, 0, 88, 47
1, 57614, Control_c, 0, 64, 93
1, 57621, Note_on_c, 0, 69, 38
1, 57629, Control_c, 0, 64, 86
1, 57633, Note_on_c, 0, 86, 46
1, 57644, Control_c, 0, 64, 77
1, 57658, Control_c, 0, 64, 71
1, 57673, Control_c, 0, 64, 67
1, 57683, Note_off_c, 0, 88, 54
1, 57688, Control_c, 0, 64, 67
1, 57688, Note_on_c, 0, 70, 48
1, 57691, Note_off_c, 0, 69, 41
1, 57694, Note_off_c, 0, 67, 38
1, 57703, Control_c, 0, 64, 68
1, 57718, Control_c, 0, 64, 72
1, 57719, Note_on_c, 0, 84, 52
1, 57724, Note_off_c, 0, 86, 64
1, 57727, Note_off_c, 0, 70, 64
1, 57732, Control_c, 0, 64, 77
1, 57747, Control_c, 0, 64, 84
1, 57762, Control_c, 0, 64, 89
1, 57769, Note_off_c, 0, 84, 64
1, 57777, Control_c, 0, 64, 92
1, 57782, Note_on_c, 0, 76, 45
1, 57788, Note_on_c, 0, 79, 45
1, 57792, Control_c, 0, 64, 93
1, 57806, Control_c, 0, 64, 94
1, 57825, Note_off_c, 0, 79, 48
1, 57836, Control_c, 0, 64, 92
1, 57846, Note_off_c, 0, 76, 45
1, 57850, Control_c, 0, 64, 84
1, 57859, Note_on_c, 0, 89, 57
1, 57865, Control_c, 0, 64, 73
1, 57874, Note_on_c, 0, 68, 52
1, 57880, Control_c, 0, 64, 65
1, 57895, Control_c, 0, 64, 61
1, 57904, Note_on_c, 0, 69, 40
1, 57910, Control_c, 0, 64, 61
1, 57913, Note_on_c, 0, 88, 47
1, 57914, Note_off_c, 0, 68, 47
1, 57924, Control_c, 0, 64, 63
1, 57939, Control_c, 0, 64, 66
1, 57947, Note_off_c, 0, 69, 48
1, 57953, Note_off_c, 0, 89, 58
1, 57954, Control_c, 0, 64, 70
1, 57960, Note_on_c, 0, 71, 44
1, 57969, Note_on_c, 0, 86, 51
1, 57969, Control_c, 0, 64, 74
1, 57984, Control_c, 0, 64, 77
1, 57998, Note_off_c, 0, 88, 65
1, 57999, Control_c, 0, 64, 80
1, 58007, Note_off_c, 0, 71, 57
1, 58013, Control_c, 0, 64, 82
1, 58016, Note_on_c, 0, 77, 52
1, 58029, Control_c, 0, 64, 85
1, 58034, Note_on_c, 0, 80, 55
1, 58034, Note_off_c, 0, 86, 62
1, 58044, Control_c, 0, 64, 88
1, 58067, Control_c, 0, 64, 90
1, 58082, Control_c, 0, 64, 90
1, 58090, Note_off_c, 0, 77, 53
1, 58097, Control_c, 0, 64, 87
1, 58098, Note_off_c, 0, 80, 59
1, 58104, Note_on_c, 0, 89, 55
1, 58111, Control_c, 0, 64, 78
1, 58116, Note_on_c, 0, 68, 50
1, 58126, Control_c, 0, 64, 72
1, 58141, Control_c, 0, 64, 69
1, 58155, Note_on_c, 0, 69, 45
1, 58155, Control_c, 0, 64, 68
1, 58159, Note_on_c, 0, 88, 54
1, 58165, Note_off_c, 0, 68, 41
1, 58170, Control_c, 0, 64, 69
1, 58185, Control_c, 0, 64, 72
1, 58195, Note_off_c, 0, 89, 65
1, 58200, Control_c, 0, 64, 75
1, 58203, Note_on_c, 0, 71, 42
1, 58213, Note_off_c, 0, 69, 40
1, 58215, Control_c, 0, 64, 79
1, 58216, Note_on_c, 0, 86, 51
1, 58229, Control_c, 0, 64, 83
1, 58240, Note_off_c, 0, 88, 66
1, 58244, Control_c, 0, 64, 86
1, 58259, Note_off_c, 0, 71, 58
1, 58259, Control_c, 0, 64, 89
1, 58262, Note_off_c, 0, 86, 63
1, 58266, Note_on_c, 0, 77, 46
1, 58273, Control_c, 0, 64, 90
1, 58284, Note_on_c, 0, 80, 57
1, 58288, Control_c, 0, 64, 92
1, 58306, Note_off_c, 0, 77, 49
1, 58311, Note_off_c, 0, 80, 66
1, 58318, Control_c, 0, 64, 88
1, 58333, Control_c, 0, 64, 77
1, 58347, Control_c, 0, 64, 67
1, 58348, Note_on_c, 0, 67, 54
1, 58359, Note_on_c, 0, 88, 61
1, 58362, Control_c, 0, 64, 60
1, 58377, Control_c, 0, 64, 57
1, 58406, Note_on_c, 0, 86, 57
1, 58407, Control_c, 0, 64, 59
1, 58416, Note_on_c, 0, 69, 44
1, 58419, Note_off_c, 0, 88, 51
1, 58422, Control_c, 0, 64, 63
1, 58436, Control_c, 0, 64, 66
1, 58440, Note_off_c, 0, 67, 52
1, 58451, Control_c, 0, 64, 69
1, 58464, Note_on_c, 0, 85, 52
1, 58466, Control_c, 0, 64, 74
1, 58470, Note_on_c, 0, 70, 44
1, 58479, Note_off_c, 0, 69, 55
1, 58481, Control_c, 0, 64, 79
1, 58483, Note_off_c, 0, 86, 63
1, 58496, Control_c, 0, 64, 84
1, 58511, Control_c, 0, 64, 89
1, 58517, Note_on_c, 0, 79, 57
1, 58520, Note_on_c, 0, 76, 51
1, 58526, Control_c, 0, 64, 91
1, 58526, Note_off_c, 0, 85, 54
1, 58531, Note_off_c, 0, 70, 42
1, 58555, Control_c, 0, 64, 90
1, 58570, Control_c, 0, 64, 86
1, 58574, Note_off_c, 0, 79, 61
1, 58575, Note_on_c, 0, 88, 56
1, 58582, Note_off_c, 0, 76, 56
1, 58583, Note_on_c, 0, 67, 55
1, 58585, Control_c, 0, 64, 81
1, 58600, Control_c, 0, 64, 76
1, 58615, Control_c, 0, 64, 73
1, 58643, Note_on_c, 0, 69, 40
1, 58644, Control_c, 0, 64, 74
1, 58649, Note_on_c, 0, 86, 59
1, 58659, Control_c, 0, 64, 75
1, 58663, Note_off_c, 0, 88, 59
1, 58672, Note_off_c, 0, 67, 58
1, 58673, Control_c, 0, 64, 78
1, 58685, Note_on_c, 0, 70, 46
1, 58688, Control_c, 0, 64, 81
1, 58702, Note_on_c, 0, 85, 60
1, 58703, Control_c, 0, 64, 86
1, 58708, Note_off_c, 0, 86, 62
1, 58718, Control_c, 0, 64, 89
1, 58723, Note_off_c, 0, 69, 42
1, 58728, Note_off_c, 0, 70, 62
1, 58733, Control_c, 0, 64, 91
1, 58742, Note_off_c, 0, 85, 62
1, 58747, Control_c, 0, 64, 92
1, 58758, Note_on_c, 0, 79, 57
1, 58764, Note_on_c, 0, 76, 48
1, 58777, Control_c, 0, 64, 90
1, 58792, Control_c, 0, 64, 83
1, 58806, Note_off_c, 0, 76, 51
1, 58806, Note_off_c, 0, 79, 62
1, 58815, Control_c, 0, 64, 71
1, 58830, Control_c, 0, 64, 64
1, 58845, Control_c, 0, 64, 59
1, 58854, Note_on_c, 0, 68, 56
1, 58858, Note_on_c, 0, 89, 58
1, 58860, Control_c, 0, 64, 59
1, 58875, Control_c, 0, 64, 60
1, 58890, Control_c, 0, 64, 63
1, 58895, Note_on_c, 0, 88, 56
1, 58896, Note_on_c, 0, 69, 43
1, 58904, Control_c, 0, 64, 66
1, 58915, Note_off_c, 0, 68, 54
1, 58919, Control_c, 0, 64, 70
1, 58934, Control_c, 0, 64, 72
1, 58942, Note_off_c, 0, 89, 58
1, 58949, Control_c, 0, 64, 74
1, 58953, Note_on_c, 0, 71, 49
1, 58964, Control_c, 0, 64, 77
1, 58975, Note_off_c, 0, 69, 43
1, 58978, Control_c, 0, 64, 80
1, 58980, Note_on_c, 0, 86, 48
1, 58984, Note_off_c, 0, 88, 66
1, 58991, Note_off_c, 0, 71, 61
1, 58993, Control_c, 0, 64, 83
1, 59004, Note_on_c, 0, 77, 56
1, 59008, Control_c, 0, 64, 88
1, 59023, Control_c, 0, 64, 91
1, 59024, Note_off_c, 0, 86, 60
1, 59028, Note_on_c, 0, 80, 59
1, 59038, Control_c, 0, 64, 93
1, 59056, Note_off_c, 0, 77, 56
1, 59067, Note_off_c, 0, 80, 61
1, 59067, Control_c, 0, 64, 90
1, 59068, Note_on_c, 0, 68, 48
1, 59081, Note_on_c, 0, 89, 64
1, 59082, Control_c, 0, 64, 80
1, 59097, Control_c, 0, 64, 70
1, 59108, Note_on_c, 0, 69, 50
1, 59111, Control_c, 0, 64, 64
1, 59126, Control_c, 0, 64, 63
1, 59134, Note_on_c, 0, 88, 63
1, 59141, Control_c, 0, 64, 65
1, 59155, Note_off_c, 0, 68, 61
1, 59155, Note_on_c, 0, 71, 50
1, 59156, Control_c, 0, 64, 68
1, 59158, Note_off_c, 0, 69, 64
1, 59163, Note_off_c, 0, 89, 64
1, 59170, Control_c, 0, 64, 73
1, 59185, Control_c, 0, 64, 79
1, 59197, Note_off_c, 0, 71, 62
1, 59200, Control_c, 0, 64, 86
1, 59203, Note_on_c, 0, 86, 48
1, 59212, Note_off_c, 0, 88, 66
1, 59215, Note_on_c, 0, 77, 62
1, 59215, Control_c, 0, 64, 93
1, 59228, Note_off_c, 0, 86, 61
1, 59230, Control_c, 0, 64, 96
1, 59240, Note_on_c, 0, 80, 65
1, 59245, Control_c, 0, 64, 97
1, 59256, Note_off_c, 0, 77, 54
1, 59259, Control_c, 0, 64, 95
1, 59268, Note_off_c, 0, 80, 63
1, 59274, Control_c, 0, 64, 83
1, 59289, Control_c, 0, 64, 71
1, 59304, Control_c, 0, 64, 63
1, 59313, Note_on_c, 0, 69, 60
1, 59315, Note_on_c, 0, 90, 74
1, 59319, Control_c, 0, 64, 60
1, 59334, Control_c, 0, 64, 61
1, 59349, Control_c, 0, 64, 64
1, 59363, Note_on_c, 0, 70, 42
1, 59364, Control_c, 0, 64, 67
1, 59376, Note_off_c, 0, 69, 63
1, 59378, Control_c, 0, 64, 71
1, 59380, Note_on_c, 0, 72, 40
1, 59390, Note_on_c, 0, 88, 49
1, 59393, Control_c, 0, 64, 75
1, 59395, Note_on_c, 0, 89, 48
1, 59406, Note_off_c, 0, 70, 46
1, 59408, Control_c, 0, 64, 82
1, 59422, Control_c, 0, 64, 89
1, 59423, Note_off_c, 0, 90, 64
1, 59428, Note_on_c, 0, 87, 64
1, 59431, Note_off_c, 0, 89, 54
1, 59432, Note_on_c, 0, 78, 61
1, 59437, Control_c, 0, 64, 96
1, 59441, Note_off_c, 0, 88, 64
1, 59447, Note_off_c, 0, 72, 57
1, 59452, Control_c, 0, 64, 101
1, 59474, Note_on_c, 0, 81, 66
1, 59482, Control_c, 0, 64, 93
1, 59494, Note_off_c, 0, 87, 64
1, 59497, Control_c, 0, 64, 78
1, 59498, Note_off_c, 0, 78, 61
1, 59511, Control_c, 0, 64, 65
1, 59522, Note_on_c, 0, 69, 56
1, 59526, Control_c, 0, 64, 61
1, 59530, Note_off_c, 0, 81, 57
1, 59541, Control_c, 0, 64, 62
1, 59551, Note_on_c, 0, 90, 73
1, 59559, Note_on_c, 0, 70, 54
1, 59563, Control_c, 0, 64, 64
1, 59578, Control_c, 0, 64, 69
1, 59586, Note_on_c, 0, 72, 64
1, 59588, Note_off_c, 0, 69, 61
1, 59593, Control_c, 0, 64, 74
1, 59605, Note_on_c, 0, 88, 72
1, 59608, Control_c, 0, 64, 80
1, 59623, Control_c, 0, 64, 84
1, 59630, Note_off_c, 0, 70, 57
1, 59638, Control_c, 0, 64, 87
1, 59647, Note_on_c, 0, 87, 49
1, 59650, Note_off_c, 0, 72, 63
1, 59653, Control_c, 0, 64, 92
1, 59659, Note_off_c, 0, 90, 64
1, 59668, Control_c, 0, 64, 99
1, 59680, Note_off_c, 0, 88, 66
1, 59682, Note_on_c, 0, 78, 67
1, 59683, Control_c, 0, 64, 111
1, 59697, Control_c, 0, 64, 127
1, 59701, Note_on_c, 0, 81, 70
1, 59712, Note_off_c, 0, 78, 65
1, 59713, Note_off_c, 0, 87, 64
1, 59731, Note_off_c, 0, 81, 65
1, 59742, Control_c, 0, 64, 93
1, 59757, Control_c, 0, 64, 73
1, 59766, Note_on_c, 0, 70, 70
1, 59772, Control_c, 0, 64, 62
1, 59780, Note_on_c, 0, 91, 79
1, 59787, Control_c, 0, 64, 56
1, 59793, Note_on_c, 0, 72, 54
1, 59801, Control_c, 0, 64, 57
1, 59816, Control_c, 0, 64, 61
1, 59826, Note_on_c, 0, 89, 74
1, 59831, Control_c, 0, 64, 66
1, 59846, Control_c, 0, 64, 70
1, 59855, Note_on_c, 0, 73, 59
1, 59855, Note_off_c, 0, 72, 57
1, 59857, Note_off_c, 0, 70, 61
1, 59861, Control_c, 0, 64, 75
1, 59871, Note_off_c, 0, 91, 63
1, 59875, Control_c, 0, 64, 79
1, 59890, Control_c, 0, 64, 83
1, 59893, Note_off_c, 0, 73, 63
1, 59895, Note_on_c, 0, 79, 63
1, 59900, Note_on_c, 0, 88, 55
1, 59902, Note_off_c, 0, 89, 62
1, 59905, Control_c, 0, 64, 87
1, 59920, Control_c, 0, 64, 94
1, 59934, Control_c, 0, 64, 105
1, 59939, Note_on_c, 0, 82, 64
1, 59940, Note_off_c, 0, 88, 60
1, 59949, Control_c, 0, 64, 127
1, 59972, Note_off_c, 0, 79, 56
1, 59993, Note_off_c, 0, 82, 64
1, 59998, Note_on_c, 0, 70, 62
1, 60008, Control_c, 0, 64, 120
1, 60016, Note_on_c, 0, 72, 64
1, 60017, Note_on_c, 0, 91, 71
1, 60023, Control_c, 0, 64, 83
1, 60038, Control_c, 0, 64, 69
1, 60052, Control_c, 0, 64, 63
1, 60060, Note_on_c, 0, 89, 73
1, 60067, Control_c, 0, 64, 62
1, 60082, Control_c, 0, 64, 65
1, 60085, Note_off_c, 0, 70, 62
1, 60095, Note_on_c, 0, 73, 58
1, 60097, Control_c, 0, 64, 69
1, 60100, Note_off_c, 0, 72, 61
1, 60112, Control_c, 0, 64, 77
1, 60114, Note_off_c, 0, 91, 65
1, 60119, Note_on_c, 0, 88, 75
1, 60122, Note_on_c, 0, 79, 63
1, 60127, Control_c, 0, 64, 86
1, 60132, Note_off_c, 0, 73, 64
1, 60142, Control_c, 0, 64, 95
1, 60156, Note_off_c, 0, 89, 63
1, 60156, Control_c, 0, 64, 105
1, 60162, Note_off_c, 0, 79, 60
1, 60171, Control_c, 0, 64, 117
1, 60173, Note_on_c, 0, 82, 74
1, 60174, Note_off_c, 0, 88, 67
1, 60186, Control_c, 0, 64, 127
1, 60207, Note_off_c, 0, 82, 62
1, 60216, Control_c, 0, 64, 107
1, 60225, Note_on_c, 0, 69, 64
1, 60231, Control_c, 0, 64, 83
1, 60246, Control_c, 0, 64, 68
1, 60246, Note_on_c, 0, 90, 83
1, 60260, Control_c, 0, 64, 61
1, 60275, Control_c, 0, 64, 59
1, 60277, Note_on_c, 0, 70, 57
1, 60288, Note_on_c, 0, 88, 70
1, 60290, Control_c, 0, 64, 60
1, 60312, Control_c, 0, 64, 63
1, 60326, Control_c, 0, 64, 67
1, 60328, Note_off_c, 0, 69, 64
1, 60339, Note_on_c, 0, 72, 54
1, 60341, Control_c, 0, 64, 72
1, 60352, Note_off_c, 0, 70, 60
1, 60356, Control_c, 0, 64, 77
1, 60364, Note_on_c, 0, 87, 72
1, 60371, Control_c, 0, 64, 81
1, 60380, Note_off_c, 0, 90, 63
1, 60386, Control_c, 0, 64, 85
1, 60393, Note_on_c, 0, 78, 64
1, 60395, Note_off_c, 0, 88, 67
1, 60401, Control_c, 0, 64, 91
1, 60411, Note_on_c, 0, 81, 73
1, 60416, Control_c, 0, 64, 100
1, 60431, Control_c, 0, 64, 115
1, 60443, Note_off_c, 0, 72, 35
1, 60445, Note_off_c, 0, 78, 58
1, 60446, Control_c, 0, 64, 127
1, 60452, Note_off_c, 0, 87, 65
1, 60461, Control_c, 0, 64, 119
1, 60475, Control_c, 0, 64, 89
1, 60478, Note_off_c, 0, 81, 62
1, 60478, Note_on_c, 0, 69, 65
1, 60485, Note_on_c, 0, 90, 85
1, 60490, Control_c, 0, 64, 72
1, 60499, Note_on_c, 0, 70, 62
1, 60505, Control_c, 0, 64, 63
1, 60520, Control_c, 0, 64, 62
1, 60535, Control_c, 0, 64, 64
1, 60538, Note_on_c, 0, 88, 67
1, 60539, Note_on_c, 0, 72, 52
1, 60543, Note_off_c, 0, 69, 59
1, 60550, Control_c, 0, 64, 68
1, 60565, Control_c, 0, 64, 75
1, 60578, Note_on_c, 0, 87, 77
1, 60580, Control_c, 0, 64, 87
1, 60581, Note_off_c, 0, 70, 61
1, 60583, Note_off_c, 0, 72, 64
1, 60595, Control_c, 0, 64, 99
1, 60601, Note_off_c, 0, 90, 62
1, 60610, Control_c, 0, 64, 111
1, 60612, Note_on_c, 0, 78, 65
1, 60620, Note_off_c, 0, 88, 67
1, 60624, Note_on_c, 0, 81, 73
1, 60624, Control_c, 0, 64, 127
1, 60654, Note_off_c, 0, 78, 61
1, 60655, Note_off_c, 0, 87, 65
1, 60669, Control_c, 0, 64, 104
1, 60674, Note_off_c, 0, 81, 63
1, 60684, Control_c, 0, 64, 79
1, 60699, Control_c, 0, 64, 64
1, 60705, Note_on_c, 0, 70, 66
1, 60711, Note_on_c, 0, 91, 81
1, 60714, Control_c, 0, 64, 54
1, 60729, Control_c, 0, 64, 51
1, 60738, Note_on_c, 0, 72, 65
1, 60744, Control_c, 0, 64, 54
1, 60758, Control_c, 0, 64, 59
1, 60761, Note_on_c, 0, 89, 79
1, 60773, Control_c, 0, 64, 64
1, 60788, Note_off_c, 0, 70, 62
1, 60788, Control_c, 0, 64, 68
1, 60803, Control_c, 0, 64, 73
1, 60803, Note_on_c, 0, 73, 34
1, 60806, Note_off_c, 0, 91, 66
1, 60815, Note_off_c, 0, 72, 60
1, 60818, Control_c, 0, 64, 79
1, 60830, Note_on_c, 0, 79, 65
1, 60832, Control_c, 0, 64, 86
1, 60840, Note_off_c, 0, 73, 55
1, 60847, Control_c, 0, 64, 94
1, 60862, Control_c, 0, 64, 106
1, 60863, Note_on_c, 0, 88, 32
1, 60863, Note_off_c, 0, 89, 47
1, 60876, Control_c, 0, 64, 127
1, 60878, Note_on_c, 0, 82, 77
1, 60893, Note_off_c, 0, 88, 47
1, 60906, Control_c, 0, 64, 119
1, 60907, Note_off_c, 0, 79, 61
1, 60921, Control_c, 0, 64, 83
1, 60925, Note_off_c, 0, 82, 63
1, 60930, Note_on_c, 0, 70, 64
1, 60936, Note_on_c, 0, 91, 65
1, 60936, Control_c, 0, 64, 68
1, 60950, Control_c, 0, 64, 61
1, 60952, Note_on_c, 0, 72, 61
1, 60965, Control_c, 0, 64, 62
1, 60973, Note_on_c, 0, 89, 73
1, 60980, Control_c, 0, 64, 65
1, 60995, Control_c, 0, 64, 71
1, 61001, Note_off_c, 0, 70, 63
1, 61009, Note_on_c, 0, 73, 38
1, 61010, Control_c, 0, 64, 80
1, 61013, Note_on_c, 0, 87, 81
1, 61015, Note_off_c, 0, 91, 66
1, 61024, Control_c, 0, 64, 95
1, 61030, Note_on_c, 0, 79, 71
1, 61039, Control_c, 0, 64, 109
1, 61042, Note_off_c, 0, 89, 65
1, 61053, Note_off_c, 0, 73, 55
1, 61054, Note_off_c, 0, 72, 59
1, 61059, Note_on_c, 0, 88, 56
1, 61062, Control_c, 0, 64, 127
1, 61078, Note_on_c, 0, 82, 79
1, 61084, Note_off_c, 0, 87, 65
1, 61085, Note_off_c, 0, 88, 69
1, 61095, Note_off_c, 0, 79, 64
1, 61121, Note_off_c, 0, 82, 65
1, 61121, Control_c, 0, 64, 80
1, 61136, Note_on_c, 0, 71, 68
1, 61136, Control_c, 0, 64, 57
1, 61150, Control_c, 0, 64, 14
1, 61162, Note_on_c, 0, 92, 81
1, 61165, Control_c, 0, 64, 0
1, 61185, Note_on_c, 0, 72, 56
1, 61192, Note_on_c, 0, 74, 69
1, 61195, Control_c, 0, 64, 40
1, 61201, Note_on_c, 0, 90, 75
1, 61210, Control_c, 0, 64, 58
1, 61219, Note_off_c, 0, 71, 61
1, 61222, Note_off_c, 0, 72, 63
1, 61226, Control_c, 0, 64, 70
1, 61241, Control_c, 0, 64, 81
1, 61253, Note_on_c, 0, 80, 63
1, 61253, Note_off_c, 0, 74, 65
1, 61255, Control_c, 0, 64, 97
1, 61260, Note_off_c, 0, 92, 60
1, 61270, Note_on_c, 0, 91, 61
1, 61270, Control_c, 0, 64, 127
1, 61280, Note_on_c, 0, 89, 74
1, 61282, Note_off_c, 0, 80, 66
1, 61302, Note_off_c, 0, 91, 67
1, 61311, Note_on_c, 0, 83, 81
1, 61311, Note_off_c, 0, 90, 64
1, 61337, Note_on_c, 0, 65, 77
1, 61343, Note_off_c, 0, 89, 64
1, 61373, Control_c, 0, 64, 90
1, 61380, Note_on_c, 0, 72, 51
1, 61388, Note_off_c, 0, 83, 66
1, 61388, Control_c, 0, 64, 62
1, 61393, Note_off_c, 0, 65, 62
1, 61402, Control_c, 0, 64, 34
1, 61417, Control_c, 0, 64, 0
1, 61425, Note_off_c, 0, 72, 63
1, 61431, Note_on_c, 0, 81, 90
1, 61431, Note_on_c, 0, 93, 80
1, 61432, Control_c, 0, 64, 30
1, 61447, Control_c, 0, 64, 54
1, 61454, Note_off_c, 0, 81, 67
1, 61462, Control_c, 0, 64, 68
1, 61475, Note_on_c, 0, 91, 79
1, 61477, Control_c, 0, 64, 83
1, 61492, Control_c, 0, 64, 113
1, 61506, Control_c, 0, 64, 127
1, 61515, Note_on_c, 0, 89, 87
1, 61524, Note_off_c, 0, 93, 64
1, 61551, Note_off_c, 0, 91, 66
1, 61572, Note_off_c, 0, 89, 64
1, 61578, Note_on_c, 0, 84, 76
1, 61604, Note_off_c, 0, 84, 68
1, 61653, Note_on_c, 0, 81, 71
1, 61654, Control_c, 0, 64, 105
1, 61669, Control_c, 0, 64, 92
1, 61684, Control_c, 0, 64, 83
1, 61689, Note_on_c, 0, 79, 77
1, 61698, Control_c, 0, 64, 77
1, 61713, Note_off_c, 0, 81, 63
1, 61713, Control_c, 0, 64, 72
1, 61728, Control_c, 0, 64, 69
1, 61742, Note_on_c, 0, 77, 69
1, 61743, Control_c, 0, 64, 67
1, 61758, Control_c, 0, 64, 65
1, 61760, Note_off_c, 0, 79, 65
1, 61772, Control_c, 0, 64, 62
1, 61787, Control_c, 0, 64, 60
1, 61804, Note_on_c, 0, 72, 70
1, 61804, Note_off_c, 0, 77, 65
1, 61810, Control_c, 0, 64, 57
1, 61824, Control_c, 0, 64, 55
1, 61834, Note_off_c, 0, 72, 64
1, 61839, Control_c, 0, 64, 54
1, 61854, Control_c, 0, 64, 50
1, 61869, Control_c, 0, 64, 44
1, 61879, Note_on_c, 0, 60, 69
1, 61883, Note_on_c, 0, 53, 69
1, 61884, Control_c, 0, 64, 37
1, 61887, Note_on_c, 0, 69, 70
1, 61898, Control_c, 0, 64, 32
1, 61901, Note_off_c, 0, 60, 66
1, 61913, Control_c, 0, 64, 30
1, 61915, Note_off_c, 0, 53, 66
1, 61928, Control_c, 0, 64, 28
1, 61940, Note_on_c, 0, 67, 73
1, 61943, Control_c, 0, 64, 25
1, 61946, Note_off_c, 0, 69, 58
1, 61958, Control_c, 0, 64, 23
1, 61978, Note_on_c, 0, 65, 56
1, 61986, Note_off_c, 0, 67, 61
1, 61987, Control_c, 0, 64, 23
1, 62002, Control_c, 0, 64, 25
1, 62005, Note_off_c, 0, 65, 62
1, 62018, Control_c, 0, 64, 25
1, 62052, Note_on_c, 0, 60, 36
1, 62078, Note_off_c, 0, 60, 51
1, 62118, Note_on_c, 0, 57, 66
1, 62124, Note_on_c, 0, 48, 68
1, 62132, Note_on_c, 0, 41, 62
1, 62136, Control_c, 0, 64, 24
1, 62151, Control_c, 0, 64, 22
1, 62152, Note_off_c, 0, 48, 66
1, 62163, Note_off_c, 0, 41, 64
1, 62166, Control_c, 0, 64, 19
1, 62168, Note_off_c, 0, 57, 58
1, 62179, Note_on_c, 0, 55, 62
1, 62181, Control_c, 0, 64, 15
1, 62195, Control_c, 0, 64, 0
1, 62219, Note_off_c, 0, 55, 62
1, 62222, Note_on_c, 0, 53, 50
1, 62270, Note_off_c, 0, 53, 60
1, 62272, Note_on_c, 0, 48, 53
1, 62285, Control_c, 0, 64, 17
1, 62300, Control_c, 0, 64, 31
1, 62310, Note_off_c, 0, 48, 66
1, 62315, Control_c, 0, 64, 42
1, 62329, Control_c, 0, 64, 52
1, 62344, Control_c, 0, 64, 57
1, 62350, Note_on_c, 0, 53, 67
1, 62353, Note_on_c, 0, 29, 59
1, 62356, Note_on_c, 0, 41, 49
1, 62359, Control_c, 0, 64, 61
1, 62374, Control_c, 0, 64, 63
1, 62383, Note_off_c, 0, 29, 63
1, 62389, Control_c, 0, 64, 64
1, 62395, Note_off_c, 0, 41, 63
1, 62403, Control_c, 0, 64, 65
1, 62408, Note_on_c, 0, 55, 58
1, 62413, Note_off_c, 0, 53, 55
1, 62418, Control_c, 0, 64, 66
1, 62433, Control_c, 0, 64, 68
1, 62441, Note_off_c, 0, 55, 64
1, 62443, Note_on_c, 0, 57, 63
1, 62447, Control_c, 0, 64, 69
1, 62462, Control_c, 0, 64, 70
1, 62465, Note_off_c, 0, 57, 61
1, 62477, Control_c, 0, 64, 72
1, 62492, Control_c, 0, 64, 73
1, 62507, Control_c, 0, 64, 75
1, 62512, Note_on_c, 0, 60, 67
1, 62521, Control_c, 0, 64, 76
1, 62536, Control_c, 0, 64, 76
1, 62556, Note_off_c, 0, 60, 62
1, 62559, Control_c, 0, 64, 76
1, 62574, Control_c, 0, 64, 70
1, 62586, Note_on_c, 0, 65, 64
1, 62589, Control_c, 0, 64, 62
1, 62603, Control_c, 0, 64, 47
1, 62608, Note_on_c, 0, 50, 74
1, 62618, Control_c, 0, 64, 29
1, 62633, Control_c, 0, 64, 22
1, 62647, Control_c, 0, 64, 30
1, 62649, Note_on_c, 0, 67, 62
1, 62662, Control_c, 0, 64, 42
1, 62663, Note_off_c, 0, 65, 60
1, 62677, Control_c, 0, 64, 52
1, 62691, Note_off_c, 0, 67, 65
1, 62692, Control_c, 0, 64, 58
1, 62694, Note_on_c, 0, 69, 57
1, 62707, Control_c, 0, 64, 61
1, 62717, Note_off_c, 0, 69, 63
1, 62721, Control_c, 0, 64, 63
1, 62736, Control_c, 0, 64, 65
1, 62751, Control_c, 0, 64, 66
1, 62754, Note_on_c, 0, 72, 72
1, 62766, Control_c, 0, 64, 67
1, 62773, Note_on_c, 0, 48, 82
1, 62781, Note_off_c, 0, 50, 59
1, 62781, Control_c, 0, 64, 67
1, 62803, Note_on_c, 0, 74, 26
1, 62810, Control_c, 0, 64, 66
1, 62826, Control_c, 0, 64, 63
1, 62841, Note_off_c, 0, 74, 41
1, 62841, Control_c, 0, 64, 55
1, 62842, Note_off_c, 0, 72, 61
1, 62856, Control_c, 0, 64, 43
1, 62871, Control_c, 0, 64, 21
1, 62886, Control_c, 0, 64, 0
1, 62907, Note_on_c, 0, 77, 64
1, 62911, Note_on_c, 0, 57, 78
1, 62944, Control_c, 0, 64, 16
1, 62959, Control_c, 0, 64, 35
1, 62974, Control_c, 0, 64, 47
1, 62976, Note_off_c, 0, 77, 62
1, 62984, Note_on_c, 0, 79, 61
1, 62989, Control_c, 0, 64, 55
1, 63004, Control_c, 0, 64, 60
1, 63018, Control_c, 0, 64, 63
1, 63033, Note_on_c, 0, 81, 66
1, 63033, Control_c, 0, 64, 66
1, 63048, Note_off_c, 0, 79, 65
1, 63048, Control_c, 0, 64, 69
1, 63058, Note_off_c, 0, 81, 68
1, 63062, Note_off_c, 0, 57, 62
1, 63063, Control_c, 0, 64, 72
1, 63078, Control_c, 0, 64, 76
1, 63093, Control_c, 0, 64, 80
1, 63108, Control_c, 0, 64, 85
1, 63122, Control_c, 0, 64, 88
1, 63132, Note_on_c, 0, 84, 59
1, 63134, Note_off_c, 0, 48, 64
1, 63137, Control_c, 0, 64, 92
1, 63152, Control_c, 0, 64, 96
1, 63167, Control_c, 0, 64, 100
1, 63177, Note_off_c, 0, 84, 62
1, 63182, Control_c, 0, 64, 107
1, 63191, Note_on_c, 0, 89, 71
1, 63197, Control_c, 0, 64, 118
1, 63203, Note_on_c, 0, 53, 62
1, 63212, Control_c, 0, 64, 127
1, 63254, Note_off_c, 0, 89, 66
1, 63272, Note_on_c, 0, 91, 56
1, 63316, Note_off_c, 0, 91, 66
1, 63317, Note_on_c, 0, 93, 75
1, 63372, Note_on_c, 0, 45, 60
1, 63372, Note_off_c, 0, 53, 60
1, 63386, Note_on_c, 0, 91, 82
1, 63421, Note_off_c, 0, 93, 64
1, 63438, Note_on_c, 0, 89, 76
1, 63465, Note_on_c, 0, 48, 65
1, 63469, Note_off_c, 0, 45, 62
1, 63470, Note_off_c, 0, 91, 64
1, 63470, Control_c, 0, 64, 104
1, 63484, Note_on_c, 0, 41, 55
1, 63485, Control_c, 0, 64, 83
1, 63490, Note_off_c, 0, 89, 64
1, 63500, Control_c, 0, 64, 69
1, 63502, Note_on_c, 0, 84, 69
1, 63515, Control_c, 0, 64, 58
1, 63530, Control_c, 0, 64, 48
1, 63531, Note_off_c, 0, 84, 68
1, 63544, Control_c, 0, 64, 35
1, 63559, Control_c, 0, 64, 27
1, 63574, Note_on_c, 0, 81, 75
1, 63574, Control_c, 0, 64, 25
1, 63603, Control_c, 0, 64, 27
1, 63620, Control_c, 0, 64, 32
1, 63629, Note_on_c, 0, 79, 66
1, 63635, Control_c, 0, 64, 38
1, 63649, Control_c, 0, 64, 41
1, 63657, Note_off_c, 0, 81, 60
1, 63664, Control_c, 0, 64, 42
1, 63673, Note_on_c, 0, 77, 68
1, 63694, Note_off_c, 0, 79, 65
1, 63694, Control_c, 0, 64, 43
1, 63708, Control_c, 0, 64, 43
1, 63709, Note_off_c, 0, 77, 65
1, 63723, Control_c, 0, 64, 44
1, 63735, Note_on_c, 0, 72, 62
1, 63738, Control_c, 0, 64, 45
1, 63753, Control_c, 0, 64, 46
1, 63762, Note_off_c, 0, 72, 66
1, 63767, Control_c, 0, 64, 47
1, 63782, Control_c, 0, 64, 47
1, 63810, Note_on_c, 0, 69, 67
1, 63827, Control_c, 0, 64, 48
1, 63838, Note_off_c, 0, 48, 60
1, 63841, Control_c, 0, 64, 49
1, 63856, Note_on_c, 0, 47, 65
1, 63858, Note_on_c, 0, 67, 69
1, 63872, Note_off_c, 0, 69, 52
1, 63898, Note_on_c, 0, 65, 64
1, 63904, Note_on_c, 0, 48, 64
1, 63913, Note_off_c, 0, 47, 60
1, 63915, Control_c, 0, 64, 50
1, 63922, Note_off_c, 0, 67, 64
1, 63939, Note_off_c, 0, 48, 66
1, 63953, Note_on_c, 0, 60, 67
1, 63959, Note_off_c, 0, 65, 64
1, 63984, Note_off_c, 0, 60, 64
1, 63990, Control_c, 0, 64, 50
1, 64033, Note_on_c, 0, 57, 73
1, 64035, Control_c, 0, 64, 51
1, 64071, Control_c, 0, 64, 51
1, 64093, Note_off_c, 0, 57, 58
1, 64103, Note_on_c, 0, 55, 61
1, 64115, Control_c, 0, 64, 52
1, 64130, Control_c, 0, 64, 52
1, 64138, Note_on_c, 0, 48, 61
1, 64142, Note_off_c, 0, 55, 65
1, 64143, Note_on_c, 0, 53, 63
1, 64145, Control_c, 0, 64, 53
1, 64166, Note_off_c, 0, 48, 65
1, 64175, Control_c, 0, 64, 54
1, 64181, Note_off_c, 0, 53, 63
1, 64189, Note_off_c, 0, 41, 59
1, 64190, Control_c, 0, 64, 54
1, 64205, Control_c, 0, 64, 56
1, 64208, Note_on_c, 0, 48, 66
1, 64219, Control_c, 0, 64, 57
1, 64234, Control_c, 0, 64, 59
1, 64236, Note_off_c, 0, 48, 67
1, 64249, Control_c, 0, 64, 60
1, 64261, Note_on_c, 0, 53, 64
1, 64264, Control_c, 0, 64, 60
1, 64296, Note_off_c, 0, 53, 64
1, 64304, Note_on_c, 0, 57, 66
1, 64308, Control_c, 0, 64, 58
1, 64323, Control_c, 0, 64, 51
1, 64338, Control_c, 0, 64, 37
1, 64353, Control_c, 0, 64, 24
1, 64367, Control_c, 0, 64, 23
1, 64370, Note_on_c, 0, 55, 66
1, 64374, Note_off_c, 0, 57, 59
1, 64382, Control_c, 0, 64, 36
1, 64383, Note_on_c, 0, 28, 69
1, 64392, Note_on_c, 0, 40, 61
1, 64398, Control_c, 0, 64, 50
1, 64413, Control_c, 0, 64, 59
1, 64418, Note_off_c, 0, 55, 59
1, 64428, Control_c, 0, 64, 63
1, 64438, Note_on_c, 0, 48, 56
1, 64443, Control_c, 0, 64, 66
1, 64450, Note_off_c, 0, 28, 64
1, 64458, Control_c, 0, 64, 67
1, 64470, Note_off_c, 0, 48, 63
1, 64473, Control_c, 0, 64, 68
1, 64479, Note_off_c, 0, 40, 63
1, 64488, Control_c, 0, 64, 70
1, 64503, Control_c, 0, 64, 72
1, 64514, Note_on_c, 0, 55, 65
1, 64517, Control_c, 0, 64, 74
1, 64532, Control_c, 0, 64, 75
1, 64547, Control_c, 0, 64, 76
1, 64553, Note_off_c, 0, 55, 63
1, 64562, Control_c, 0, 64, 76
1, 64575, Note_on_c, 0, 57, 65
1, 64617, Note_off_c, 0, 57, 62
1, 64621, Control_c, 0, 64, 72
1, 64622, Note_on_c, 0, 58, 69
1, 64636, Control_c, 0, 64, 63
1, 64640, Note_on_c, 0, 50, 76
1, 64645, Note_off_c, 0, 58, 69
1, 64651, Control_c, 0, 64, 50
1, 64665, Control_c, 0, 64, 37
1, 64680, Note_on_c, 0, 60, 75
1, 64680, Control_c, 0, 64, 30
1, 64695, Control_c, 0, 64, 34
1, 64710, Control_c, 0, 64, 43
1, 64724, Control_c, 0, 64, 51
1, 64739, Control_c, 0, 64, 57
1, 64742, Note_on_c, 0, 67, 72
1, 64743, Note_off_c, 0, 60, 61
1, 64754, Control_c, 0, 64, 60
1, 64769, Control_c, 0, 64, 61
1, 64784, Control_c, 0, 64, 62
1, 64799, Note_on_c, 0, 48, 82
1, 64805, Note_off_c, 0, 50, 63
1, 64816, Note_on_c, 0, 69, 72
1, 64818, Note_off_c, 0, 67, 64
1, 64836, Control_c, 0, 64, 62
1, 64850, Control_c, 0, 64, 57
1, 64865, Control_c, 0, 64, 45
1, 64875, Note_off_c, 0, 69, 66
1, 64878, Note_on_c, 0, 70, 71
1, 64880, Control_c, 0, 64, 14
1, 64895, Control_c, 0, 64, 0
1, 64896, Note_on_c, 0, 55, 86
1, 64900, Note_off_c, 0, 70, 68
1, 64939, Control_c, 0, 64, 34
1, 64941, Note_on_c, 0, 72, 77
1, 64954, Control_c, 0, 64, 51
1, 64960, Note_off_c, 0, 48, 63
1, 64969, Control_c, 0, 64, 60
1, 64984, Control_c, 0, 64, 65
1, 64986, Note_off_c, 0, 55, 65
1, 64990, Note_off_c, 0, 72, 52
1, 64998, Control_c, 0, 64, 69
1, 65011, Note_on_c, 0, 79, 76
1, 65013, Control_c, 0, 64, 71
1, 65028, Control_c, 0, 64, 74
1, 65042, Control_c, 0, 64, 77
1, 65057, Control_c, 0, 64, 80
1, 65067, Note_on_c, 0, 81, 71
1, 65068, Note_off_c, 0, 79, 65
1, 65072, Control_c, 0, 64, 83
1, 65087, Control_c, 0, 64, 85
1, 65102, Control_c, 0, 64, 86
1, 65117, Control_c, 0, 64, 87
1, 65120, Note_off_c, 0, 81, 65
1, 65124, Note_on_c, 0, 82, 82
1, 65132, Control_c, 0, 64, 91
1, 65135, Note_on_c, 0, 62, 86
1, 65145, Note_off_c, 0, 82, 68
1, 65147, Control_c, 0, 64, 98
1, 65160, Note_off_c, 0, 62, 68
1, 65161, Control_c, 0, 64, 107
1, 65176, Control_c, 0, 64, 116
1, 65190, Note_on_c, 0, 84, 75
1, 65191, Control_c, 0, 64, 127
1, 65228, Note_on_c, 0, 82, 6
1, 65242, Note_on_c, 0, 91, 79
1, 65242, Note_off_c, 0, 84, 52
1, 65270, Note_on_c, 0, 40, 74
1, 65279, Note_on_c, 0, 48, 68
1, 65282, Note_off_c, 0, 82, 32
1, 65296, Note_on_c, 0, 93, 77
1, 65301, Note_off_c, 0, 91, 56
1, 65311, Note_off_c, 0, 40, 63
1, 65334, Note_off_c, 0, 48, 64
1, 65351, Note_off_c, 0, 93, 65
1, 65412, Note_on_c, 0, 60, 87
1, 65413, Note_on_c, 0, 94, 75
1, 65414, Control_c, 0, 64, 91
1, 65429, Control_c, 0, 64, 70
1, 65444, Control_c, 0, 64, 52
1, 65459, Control_c, 0, 64, 43
1, 65473, Control_c, 0, 64, 46
1, 65477, Note_on_c, 0, 93, 77
1, 65484, Note_off_c, 0, 94, 64
1, 65488, Control_c, 0, 64, 57
1, 65503, Control_c, 0, 64, 66
1, 65518, Control_c, 0, 64, 76
1, 65529, Note_on_c, 0, 91, 69
1, 65533, Control_c, 0, 64, 91
1, 65553, Note_off_c, 0, 93, 62
1, 65555, Control_c, 0, 64, 118
1, 65557, Note_off_c, 0, 60, 63
1, 65570, Control_c, 0, 64, 127
1, 65577, Note_off_c, 0, 91, 63
1, 65578, Note_on_c, 0, 84, 76
1, 65613, Note_off_c, 0, 84, 64
1, 65661, Note_on_c, 0, 82, 78
1, 65713, Note_on_c, 0, 81, 68
1, 65722, Note_off_c, 0, 82, 63
1, 65758, Note_on_c, 0, 79, 73
1, 65778, Note_off_c, 0, 81, 63
1, 65802, Note_off_c, 0, 79, 63
1, 65817, Note_on_c, 0, 72, 66
1, 65848, Note_off_c, 0, 72, 65
1, 65851, Control_c, 0, 64, 114
1, 65865, Control_c, 0, 64, 88
1, 65876, Note_on_c, 0, 47, 62
1, 65880, Control_c, 0, 64, 71
1, 65881, Note_on_c, 0, 48, 68
1, 65893, Note_on_c, 0, 70, 71
1, 65895, Control_c, 0, 64, 58
1, 65905, Note_off_c, 0, 47, 66
1, 65910, Control_c, 0, 64, 39
1, 65916, Note_off_c, 0, 48, 67
1, 65925, Control_c, 0, 64, 0
1, 65930, Note_off_c, 0, 70, 63
1, 65946, Note_on_c, 0, 69, 59
1, 65969, Control_c, 0, 64, 10
1, 65984, Control_c, 0, 64, 25
1, 65984, Note_on_c, 0, 67, 65
1, 65995, Note_off_c, 0, 69, 65
1, 65999, Control_c, 0, 64, 32
1, 66014, Control_c, 0, 64, 34
1, 66025, Note_off_c, 0, 67, 64
1, 66044, Note_on_c, 0, 60, 67
1, 66044, Control_c, 0, 64, 35
1, 66059, Control_c, 0, 64, 36
1, 66073, Note_off_c, 0, 60, 65
1, 66074, Control_c, 0, 64, 38
1, 66088, Control_c, 0, 64, 41
1, 66103, Control_c, 0, 64, 43
1, 66115, Note_on_c, 0, 48, 61
1, 66118, Control_c, 0, 64, 45
1, 66130, Note_on_c, 0, 58, 64
1, 66133, Control_c, 0, 64, 46
1, 66145, Note_off_c, 0, 48, 65
1, 66148, Control_c, 0, 64, 47
1, 66187, Note_on_c, 0, 57, 58
1, 66192, Control_c, 0, 64, 46
1, 66203, Note_off_c, 0, 58, 55
1, 66207, Control_c, 0, 64, 46
1, 66215, Note_on_c, 0, 55, 64
1, 66236, Control_c, 0, 64, 45
1, 66238, Note_off_c, 0, 57, 62
1, 66251, Control_c, 0, 64, 45
1, 66276, Note_off_c, 0, 55, 63
1, 66281, Control_c, 0, 64, 46
1, 66303, Control_c, 0, 64, 48
1, 66315, Note_on_c, 0, 48, 50
1, 66318, Control_c, 0, 64, 51
1, 66333, Control_c, 0, 64, 54
1, 66342, Note_on_c, 0, 50, 33
1, 66348, Control_c, 0, 64, 58
1, 66352, Note_off_c, 0, 48, 55
1, 66363, Control_c, 0, 64, 60
1, 66369, Note_on_c, 0, 28, 63
1, 66369, Note_off_c, 0, 50, 46
1, 66374, Note_on_c, 0, 40, 61
1, 66377, Control_c, 0, 64, 62
1, 66384, Note_on_c, 0, 56, 12
1, 66389, Note_on_c, 0, 55, 60
1, 66392, Control_c, 0, 64, 64
1, 66403, Note_off_c, 0, 28, 65
1, 66407, Control_c, 0, 64, 66
1, 66422, Control_c, 0, 64, 68
1, 66425, Note_off_c, 0, 40, 62
1, 66434, Note_off_c, 0, 56, 30
1, 66437, Control_c, 0, 64, 70
1, 66446, Note_on_c, 0, 57, 69
1, 66451, Control_c, 0, 64, 73
1, 66454, Note_off_c, 0, 55, 53
1, 66466, Control_c, 0, 64, 76
1, 66481, Control_c, 0, 64, 78
1, 66491, Note_off_c, 0, 57, 63
1, 66494, Note_on_c, 0, 58, 71
1, 66495, Control_c, 0, 64, 80
1, 66510, Control_c, 0, 64, 82
1, 66512, Note_off_c, 0, 58, 64
1, 66525, Control_c, 0, 64, 84
1, 66540, Control_c, 0, 64, 85
1, 66554, Note_on_c, 0, 60, 70
1, 66555, Control_c, 0, 64, 85
1, 66584, Control_c, 0, 64, 85
1, 66599, Control_c, 0, 64, 80
1, 66610, Note_off_c, 0, 60, 59
1, 66614, Control_c, 0, 64, 70
1, 66622, Note_on_c, 0, 67, 69
1, 66629, Control_c, 0, 64, 60
1, 66634, Note_on_c, 0, 50, 70
1, 66643, Control_c, 0, 64, 47
1, 66658, Control_c, 0, 64, 35
1, 66673, Control_c, 0, 64, 28
1, 66679, Note_off_c, 0, 67, 62
1, 66688, Control_c, 0, 64, 30
1, 66690, Note_on_c, 0, 69, 58
1, 66703, Control_c, 0, 64, 38
1, 66717, Control_c, 0, 64, 46
1, 66729, Note_off_c, 0, 69, 67
1, 66732, Control_c, 0, 64, 52
1, 66735, Note_on_c, 0, 70, 73
1, 66747, Control_c, 0, 64, 55
1, 66755, Note_off_c, 0, 70, 68
1, 66777, Control_c, 0, 64, 54
1, 66794, Note_on_c, 0, 48, 71
1, 66814, Note_on_c, 0, 72, 61
1, 66822, Control_c, 0, 64, 53
1, 66833, Note_off_c, 0, 50, 63
1, 66837, Control_c, 0, 64, 50
1, 66852, Control_c, 0, 64, 42
1, 66866, Control_c, 0, 64, 35
1, 66870, Note_off_c, 0, 72, 56
1, 66881, Control_c, 0, 64, 33
1, 66896, Control_c, 0, 64, 37
1, 66902, Note_on_c, 0, 58, 73
1, 66905, Note_on_c, 0, 79, 65
1, 66911, Control_c, 0, 64, 46
1, 66926, Control_c, 0, 64, 54
1, 66941, Control_c, 0, 64, 61
1, 66956, Control_c, 0, 64, 65
1, 66971, Control_c, 0, 64, 69
1, 66976, Note_on_c, 0, 81, 61
1, 66977, Note_off_c, 0, 79, 64
1, 66985, Control_c, 0, 64, 73
1, 66998, Note_off_c, 0, 58, 62
1, 67000, Control_c, 0, 64, 79
1, 67015, Control_c, 0, 64, 85
1, 67025, Note_off_c, 0, 81, 64
1, 67030, Note_on_c, 0, 82, 71
1, 67030, Control_c, 0, 64, 89
1, 67052, Control_c, 0, 64, 91
1, 67056, Note_off_c, 0, 82, 67
1, 67066, Control_c, 0, 64, 92
1, 67081, Control_c, 0, 64, 93
1, 67087, Note_off_c, 0, 48, 55
1, 67096, Control_c, 0, 64, 96
1, 67101, Note_on_c, 0, 84, 69
1, 67111, Control_c, 0, 64, 99
1, 67125, Note_off_c, 0, 84, 59
1, 67126, Control_c, 0, 64, 104
1, 67141, Control_c, 0, 64, 106
1, 67153, Note_on_c, 0, 55, 66
1, 67156, Control_c, 0, 64, 107
1, 67159, Note_on_c, 0, 91, 73
1, 67171, Control_c, 0, 64, 107
1, 67185, Control_c, 0, 64, 105
1, 67200, Control_c, 0, 64, 98
1, 67215, Control_c, 0, 64, 92
1, 67221, Note_off_c, 0, 55, 59
1, 67223, Note_on_c, 0, 93, 75
1, 67228, Note_off_c, 0, 91, 62
1, 67230, Control_c, 0, 64, 90
1, 67274, Note_off_c, 0, 93, 64
1, 67274, Control_c, 0, 64, 92
1, 67284, Note_on_c, 0, 94, 74
1, 67289, Control_c, 0, 64, 95
1, 67304, Control_c, 0, 64, 99
1, 67312, Note_on_c, 0, 43, 54
1, 67318, Control_c, 0, 64, 102
1, 67332, Poly_aftertouch_c, 0, 42, 0
1, 67333, Control_c, 0, 64, 106
1, 67348, Control_c, 0, 64, 113
1, 67351, Note_on_c, 0, 93, 81
1, 67358, Poly_aftertouch_c, 0, 42, 0
1, 67363, Control_c, 0, 64, 117
1, 67369, Note_off_c, 0, 94, 55
1, 67378, Control_c, 0, 64, 118
1, 67392, Note_off_c, 0, 43, 56
1, 67392, Control_c, 0, 64, 115
1, 67405, Note_on_c, 0, 91, 76
1, 67407, Control_c, 0, 64, 98
1, 67414, Note_on_c, 0, 40, 63
1, 67415, Note_on_c, 0, 48, 61
1, 67422, Control_c, 0, 64, 81
1, 67428, Note_off_c, 0, 93, 64
1, 67436, Control_c, 0, 64, 67
1, 67451, Control_c, 0, 64, 56
1, 67459, Note_off_c, 0, 91, 64
1, 67466, Control_c, 0, 64, 49
1, 67477, Note_on_c, 0, 84, 66
1, 67481, Control_c, 0, 64, 46
1, 67496, Control_c, 0, 64, 48
1, 67507, Note_off_c, 0, 84, 67
1, 67510, Control_c, 0, 64, 55
1, 67525, Control_c, 0, 64, 61
1, 67540, Control_c, 0, 64, 65
1, 67553, Note_on_c, 0, 82, 69
1, 67555, Control_c, 0, 64, 67
1, 67570, Control_c, 0, 64, 68
1, 67593, Note_on_c, 0, 81, 73
1, 67593, Note_off_c, 0, 82, 62
1, 67615, Control_c, 0, 64, 69
1, 67630, Control_c, 0, 64, 70
1, 67645, Control_c, 0, 64, 71
1, 67647, Note_on_c, 0, 79, 69
1, 67659, Control_c, 0, 64, 71
1, 67665, Note_off_c, 0, 81, 63
1, 67688, Note_off_c, 0, 79, 63
1, 67707, Note_on_c, 0, 72, 61
1, 67719, Control_c, 0, 64, 72
1, 67734, Control_c, 0, 64, 73
1, 67740, Note_off_c, 0, 72, 65
1, 67749, Control_c, 0, 64, 74
1, 67764, Control_c, 0, 64, 75
1, 67779, Note_off_c, 0, 48, 60
1, 67779, Control_c, 0, 64, 76
1, 67788, Note_on_c, 0, 70, 73
1, 67823, Note_on_c, 0, 47, 54
1, 67830, Control_c, 0, 64, 73
1, 67838, Note_on_c, 0, 69, 78
1, 67845, Control_c, 0, 64, 66
1, 67860, Control_c, 0, 64, 55
1, 67869, Note_off_c, 0, 70, 61
1, 67874, Control_c, 0, 64, 44
1, 67876, Note_on_c, 0, 67, 67
1, 67889, Note_on_c, 0, 48, 60
1, 67889, Control_c, 0, 64, 34
1, 67902, Note_off_c, 0, 69, 65
1, 67904, Control_c, 0, 64, 30
1, 67913, Note_off_c, 0, 47, 66
1, 67927, Note_off_c, 0, 48, 65
1, 67934, Control_c, 0, 64, 34
1, 67936, Note_on_c, 0, 60, 73
1, 67936, Note_off_c, 0, 67, 64
1, 67949, Control_c, 0, 64, 41
1, 67963, Control_c, 0, 64, 49
1, 67969, Note_off_c, 0, 60, 63
1, 67978, Control_c, 0, 64, 54
1, 67993, Control_c, 0, 64, 57
1, 68008, Control_c, 0, 64, 60
1, 68015, Note_on_c, 0, 58, 75
1, 68023, Control_c, 0, 64, 61
1, 68038, Control_c, 0, 64, 62
1, 68053, Control_c, 0, 64, 63
1, 68066, Note_on_c, 0, 57, 68
1, 68067, Control_c, 0, 64, 63
1, 68090, Note_off_c, 0, 40, 0
1, 68097, Control_c, 0, 64, 63
1, 68102, Note_off_c, 0, 58, 64
1, 68104, Note_on_c, 0, 40, 46
1, 68106, Note_on_c, 0, 48, 56
1, 68109, Note_on_c, 0, 55, 68
1, 68112, Control_c, 0, 64, 61
1, 68127, Control_c, 0, 64, 57
1, 68135, Note_off_c, 0, 57, 62
1, 68142, Control_c, 0, 64, 53
1, 68145, Note_off_c, 0, 48, 65
1, 68160, Note_off_c, 0, 55, 63
1, 68171, Note_off_c, 0, 40, 63
1, 68172, Control_c, 0, 64, 55
1, 68183, Note_on_c, 0, 48, 67
1, 68187, Control_c, 0, 64, 59
1, 68202, Control_c, 0, 64, 62
1, 68216, Control_c, 0, 64, 63
1, 68231, Control_c, 0, 64, 64
1, 68244, Note_on_c, 0, 55, 57
1, 68246, Control_c, 0, 64, 65
1, 68247, Note_off_c, 0, 48, 60
1, 68260, Control_c, 0, 64, 67
1, 68275, Control_c, 0, 64, 69
1, 68287, Note_on_c, 0, 58, 76
1, 68290, Control_c, 0, 64, 71
1, 68291, Note_off_c, 0, 55, 64
1, 68305, Control_c, 0, 64, 73
1, 68334, Control_c, 0, 64, 69
1, 68349, Control_c, 0, 64, 60
1, 68363, Note_on_c, 0, 29, 71
1, 68364, Note_on_c, 0, 41, 76
1, 68364, Control_c, 0, 64, 44
1, 68379, Control_c, 0, 64, 35
1, 68393, Note_off_c, 0, 58, 65
1, 68394, Control_c, 0, 64, 38
1, 68404, Note_on_c, 0, 57, 44
1, 68410, Control_c, 0, 64, 49
1, 68425, Control_c, 0, 64, 58
1, 68425, Note_on_c, 0, 48, 74
1, 68428, Note_off_c, 0, 29, 63
1, 68433, Note_off_c, 0, 57, 53
1, 68439, Control_c, 0, 64, 64
1, 68454, Control_c, 0, 64, 68
1, 68461, Note_off_c, 0, 41, 64
1, 68469, Control_c, 0, 64, 72
1, 68481, Note_off_c, 0, 48, 65
1, 68483, Control_c, 0, 64, 74
1, 68487, Note_on_c, 0, 53, 75
1, 68498, Control_c, 0, 64, 77
1, 68513, Control_c, 0, 64, 80
1, 68528, Control_c, 0, 64, 83
1, 68551, Control_c, 0, 64, 85
1, 68557, Note_on_c, 0, 55, 73
1, 68562, Note_off_c, 0, 53, 61
1, 68565, Control_c, 0, 64, 86
1, 68580, Control_c, 0, 64, 85
1, 68595, Control_c, 0, 64, 76
1, 68610, Control_c, 0, 64, 64
1, 68621, Note_on_c, 0, 57, 67
1, 68625, Control_c, 0, 64, 54
1, 68626, Note_on_c, 0, 50, 79
1, 68630, Note_off_c, 0, 55, 65
1, 68639, Control_c, 0, 64, 47
1, 68641, Note_off_c, 0, 57, 64
1, 68654, Control_c, 0, 64, 48
1, 68669, Control_c, 0, 64, 54
1, 68682, Note_on_c, 0, 60, 77
1, 68684, Control_c, 0, 64, 60
1, 68698, Control_c, 0, 64, 64
1, 68713, Control_c, 0, 64, 68
1, 68728, Control_c, 0, 64, 71
1, 68733, Note_off_c, 0, 60, 53
1, 68741, Note_on_c, 0, 65, 83
1, 68743, Control_c, 0, 64, 73
1, 68757, Control_c, 0, 64, 75
1, 68772, Control_c, 0, 64, 75
1, 68787, Control_c, 0, 64, 74
1, 68789, Note_on_c, 0, 48, 81
1, 68802, Control_c, 0, 64, 67
1, 68805, Note_off_c, 0, 50, 60
1, 68809, Note_on_c, 0, 67, 79
1, 68817, Control_c, 0, 64, 54
1, 68825, Note_off_c, 0, 65, 60
1, 68832, Control_c, 0, 64, 27
1, 68846, Control_c, 0, 64, 0
1, 68864, Note_on_c, 0, 69, 69
1, 68876, Note_off_c, 0, 67, 64
1, 68881, Note_on_c, 0, 53, 87
1, 68887, Note_off_c, 0, 69, 68
1, 68889, Control_c, 0, 64, 16
1, 68904, Control_c, 0, 64, 39
1, 68919, Control_c, 0, 64, 52
1, 68929, Note_off_c, 0, 48, 63
1, 68934, Note_on_c, 0, 72, 78
1, 68934, Control_c, 0, 64, 61
1, 68946, Note_off_c, 0, 53, 63
1, 68949, Control_c, 0, 64, 65
1, 68963, Control_c, 0, 64, 69
1, 68978, Control_c, 0, 64, 73
1, 68986, Note_off_c, 0, 72, 58
1, 68991, Note_on_c, 0, 77, 74
1, 68993, Control_c, 0, 64, 75
1, 69008, Control_c, 0, 64, 78
1, 69023, Control_c, 0, 64, 81
1, 69037, Control_c, 0, 64, 83
1, 69052, Control_c, 0, 64, 85
1, 69054, Note_on_c, 0, 79, 79
1, 69067, Control_c, 0, 64, 87
1, 69076, Note_off_c, 0, 77, 61
1, 69081, Control_c, 0, 64, 89
1, 69096, Control_c, 0, 64, 92
1, 69104, Note_on_c, 0, 81, 76
1, 69111, Control_c, 0, 64, 96
1, 69114, Note_on_c, 0, 65, 88
1, 69117, Note_off_c, 0, 79, 67
1, 69126, Control_c, 0, 64, 103
1, 69128, Note_off_c, 0, 81, 69
1, 69139, Note_off_c, 0, 65, 67
1, 69141, Control_c, 0, 64, 111
1, 69156, Control_c, 0, 64, 127
1, 69184, Note_on_c, 0, 84, 79
1, 69234, Note_off_c, 0, 84, 64
1, 69239, Note_on_c, 0, 89, 78
1, 69316, Note_on_c, 0, 93, 91
1, 69318, Note_off_c, 0, 89, 66
1, 69386, Control_c, 0, 64, 88
1, 69389, Note_on_c, 0, 91, 91
1, 69391, Note_on_c, 0, 65, 70
1, 69396, Note_on_c, 0, 62, 63
1, 69400, Note_on_c, 0, 53, 59
1, 69401, Control_c, 0, 64, 66
1, 69407, Note_on_c, 0, 58, 63
1, 69416, Control_c, 0, 64, 52
1, 69430, Note_off_c, 0, 93, 65
1, 69431, Control_c, 0, 64, 44
1, 69446, Control_c, 0, 64, 46
1, 69451, Note_on_c, 0, 89, 74
1, 69460, Control_c, 0, 64, 55
1, 69475, Note_off_c, 0, 91, 65
1, 69475, Control_c, 0, 64, 63
1, 69490, Control_c, 0, 64, 70
1, 69505, Control_c, 0, 64, 79
1, 69511, Note_on_c, 0, 86, 79
1, 69512, Note_off_c, 0, 89, 66
1, 69519, Control_c, 0, 64, 89
1, 69533, Note_off_c, 0, 65, 60
1, 69533, Note_off_c, 0, 86, 69
1, 69534, Control_c, 0, 64, 96
1, 69549, Control_c, 0, 64, 102
1, 69564, Control_c, 0, 64, 107
1, 69566, Note_off_c, 0, 53, 58
1, 69577, Note_off_c, 0, 62, 65
1, 69579, Control_c, 0, 64, 110
1, 69594, Control_c, 0, 64, 115
1, 69594, Note_on_c, 0, 82, 77
1, 69601, Note_off_c, 0, 58, 64
1, 69609, Control_c, 0, 64, 124
1, 69624, Control_c, 0, 64, 127
1, 69636, Note_on_c, 0, 79, 79
1, 69685, Note_off_c, 0, 82, 60
1, 69702, Note_on_c, 0, 77, 71
1, 69702, Note_off_c, 0, 79, 65
1, 69735, Note_off_c, 0, 77, 66
1, 69741, Note_on_c, 0, 74, 68
1, 69786, Note_off_c, 0, 74, 61
1, 69808, Note_on_c, 0, 70, 78
1, 69838, Note_off_c, 0, 70, 63
1, 69860, Control_c, 0, 64, 91
1, 69875, Control_c, 0, 64, 67
1, 69882, Note_on_c, 0, 72, 78
1, 69886, Note_on_c, 0, 65, 81
1, 69890, Control_c, 0, 64, 50
1, 69895, Note_on_c, 0, 60, 69
1, 69896, Note_on_c, 0, 57, 66
1, 69898, Note_on_c, 0, 53, 63
1, 69904, Control_c, 0, 64, 28
1, 69919, Control_c, 0, 64, 26
1, 69925, Note_on_c, 0, 74, 26
1, 69932, Note_off_c, 0, 72, 63
1, 69934, Control_c, 0, 64, 38
1, 69946, Note_on_c, 0, 77, 79
1, 69949, Control_c, 0, 64, 54
1, 69961, Note_off_c, 0, 74, 44
1, 69964, Control_c, 0, 64, 65
1, 69979, Note_off_c, 0, 65, 61
1, 69979, Control_c, 0, 64, 73
1, 69993, Control_c, 0, 64, 82
1, 70002, Note_off_c, 0, 60, 61
1, 70005, Note_off_c, 0, 53, 41
1, 70009, Control_c, 0, 64, 91
1, 70010, Note_on_c, 0, 79, 78
1, 70011, Note_off_c, 0, 57, 60
1, 70013, Note_off_c, 0, 77, 65
1, 70024, Control_c, 0, 64, 99
1, 70047, Control_c, 0, 64, 114
1, 70061, Control_c, 0, 64, 127
1, 70078, Note_on_c, 0, 81, 77
1, 70089, Note_off_c, 0, 79, 67
1, 70100, Note_off_c, 0, 81, 68
1, 70149, Note_on_c, 0, 65, 79
1, 70150, Control_c, 0, 64, 89
1, 70151, Note_on_c, 0, 60, 69
1, 70154, Note_on_c, 0, 53, 66
1, 70161, Note_on_c, 0, 84, 80
1, 70165, Control_c, 0, 64, 71
1, 70171, Note_on_c, 0, 57, 57
1, 70180, Control_c, 0, 64, 63
1, 70193, Note_off_c, 0, 65, 63
1, 70195, Control_c, 0, 64, 64
1, 70204, Note_off_c, 0, 53, 59
1, 70209, Control_c, 0, 64, 68
1, 70213, Note_on_c, 0, 89, 80
1, 70216, Note_off_c, 0, 57, 61
1, 70222, Note_off_c, 0, 60, 61
1, 70223, Note_off_c, 0, 84, 65
1, 70224, Control_c, 0, 64, 77
1, 70239, Control_c, 0, 64, 96
1, 70254, Control_c, 0, 64, 127
1, 70277, Note_on_c, 0, 91, 79
1, 70283, Note_off_c, 0, 89, 66
1, 70332, Note_on_c, 0, 93, 87
1, 70354, Note_off_c, 0, 91, 66
1, 70386, Note_on_c, 0, 95, 25
1, 70402, Control_c, 0, 64, 94
1, 70412, Note_on_c, 0, 91, 86
1, 70417, Control_c, 0, 64, 68
1, 70417, Note_on_c, 0, 65, 85
1, 70419, Note_on_c, 0, 62, 85
1, 70423, Note_on_c, 0, 53, 73
1, 70423, Note_off_c, 0, 95, 46
1, 70429, Note_on_c, 0, 58, 74
1, 70432, Control_c, 0, 64, 50
1, 70447, Control_c, 0, 64, 23
1, 70448, Note_off_c, 0, 93, 64
1, 70461, Control_c, 0, 64, 0
1, 70476, Control_c, 0, 64, 26
1, 70480, Note_on_c, 0, 89, 61
1, 70491, Control_c, 0, 64, 50
1, 70494, Note_off_c, 0, 91, 64
1, 70506, Control_c, 0, 64, 63
1, 70521, Control_c, 0, 64, 73
1, 70535, Control_c, 0, 64, 85
1, 70538, Note_on_c, 0, 86, 77
1, 70542, Note_off_c, 0, 89, 67
1, 70550, Control_c, 0, 64, 94
1, 70562, Note_off_c, 0, 65, 60
1, 70562, Note_off_c, 0, 86, 69
1, 70565, Control_c, 0, 64, 99
1, 70580, Control_c, 0, 64, 102
1, 70589, Note_off_c, 0, 53, 55
1, 70595, Control_c, 0, 64, 106
1, 70609, Control_c, 0, 64, 118
1, 70615, Note_off_c, 0, 62, 63
1, 70624, Control_c, 0, 64, 127
1, 70629, Note_on_c, 0, 82, 82
1, 70654, Note_off_c, 0, 58, 64
1, 70682, Note_on_c, 0, 79, 72
1, 70706, Note_off_c, 0, 82, 55
1, 70742, Note_on_c, 0, 77, 73
1, 70750, Note_off_c, 0, 79, 65
1, 70781, Note_off_c, 0, 77, 66
1, 70806, Note_on_c, 0, 74, 69
1, 70835, Note_off_c, 0, 74, 67
1, 70864, Note_on_c, 0, 70, 80
1, 70897, Note_off_c, 0, 70, 63
1, 70914, Control_c, 0, 64, 91
1, 70929, Control_c, 0, 64, 65
1, 70937, Note_on_c, 0, 65, 86
1, 70943, Note_on_c, 0, 71, 62
1, 70944, Control_c, 0, 64, 43
1, 70951, Note_on_c, 0, 53, 66
1, 70956, Note_on_c, 0, 60, 64
1, 70956, Note_on_c, 0, 72, 67
1, 70958, Control_c, 0, 64, 0
1, 70961, Note_on_c, 0, 57, 74
1, 70963, Note_off_c, 0, 71, 64
1, 70973, Control_c, 0, 64, 9
1, 70988, Control_c, 0, 64, 41
1, 70989, Note_off_c, 0, 72, 66
1, 71001, Note_on_c, 0, 77, 78
1, 71003, Control_c, 0, 64, 58
1, 71018, Control_c, 0, 64, 69
1, 71032, Control_c, 0, 64, 82
1, 71036, Note_off_c, 0, 53, 60
1, 71047, Control_c, 0, 64, 98
1, 71061, Note_off_c, 0, 77, 65
1, 71062, Note_on_c, 0, 79, 79
1, 71062, Control_c, 0, 64, 117
1, 71070, Note_off_c, 0, 57, 59
1, 71071, Note_off_c, 0, 65, 43
1, 71077, Control_c, 0, 64, 127
1, 71090, Note_off_c, 0, 79, 68
1, 71100, Note_off_c, 0, 60, 33
1, 71117, Note_on_c, 0, 81, 87
1, 71138, Note_on_c, 0, 79, 38
1, 71141, Note_off_c, 0, 79, 39
1, 71156, Note_off_c, 0, 81, 67
1, 71191, Note_on_c, 0, 65, 76
1, 71199, Note_on_c, 0, 53, 61
1, 71201, Note_on_c, 0, 57, 69
1, 71207, Note_on_c, 0, 60, 71
1, 71214, Note_off_c, 0, 65, 67
1, 71220, Note_off_c, 0, 53, 64
1, 71228, Note_off_c, 0, 57, 66
1, 71231, Note_on_c, 0, 84, 64
1, 71231, Note_off_c, 0, 60, 66
1, 71267, Note_on_c, 0, 90, 85
1, 71285, Note_off_c, 0, 84, 66
1, 71285, Note_off_c, 0, 90, 72
1, 71294, Note_on_c, 0, 65, 11
1, 71306, Note_on_c, 0, 91, 54
1, 71314, Note_on_c, 0, 89, 61
1, 71334, Note_off_c, 0, 89, 66
1, 71339, Note_off_c, 0, 65, 37
1, 71344, Note_on_c, 0, 93, 74
1, 71356, Note_on_c, 0, 49, 71
1, 71357, Note_off_c, 0, 93, 69
1, 71374, Poly_aftertouch_c, 0, 60, 0
1, 71375, Note_off_c, 0, 91, 63
1, 71389, Control_c, 0, 64, 96
1, 71403, Control_c, 0, 64, 71
1, 71411, Note_off_c, 0, 49, 65
1, 71416, Note_on_c, 0, 55, 72
1, 71418, Control_c, 0, 64, 55
1, 71430, Note_on_c, 0, 93, 65
1, 71433, Control_c, 0, 64, 24
1, 71438, Note_on_c, 0, 59, 68
1, 71448, Control_c, 0, 64, 0
1, 71460, Note_on_c, 0, 91, 52
1, 71467, Note_on_c, 0, 65, 88
1, 71477, Control_c, 0, 64, 39
1, 71489, Note_off_c, 0, 91, 53
1, 71492, Control_c, 0, 64, 57
1, 71507, Control_c, 0, 64, 67
1, 71517, Note_on_c, 0, 91, 71
1, 71522, Control_c, 0, 64, 76
1, 71534, Note_off_c, 0, 93, 65
1, 71544, Control_c, 0, 64, 86
1, 71558, Control_c, 0, 64, 94
1, 71559, Poly_aftertouch_c, 0, 64, 127
1, 71573, Control_c, 0, 64, 99
1, 71580, Poly_aftertouch_c, 0, 64, 0
1, 71588, Control_c, 0, 64, 105
1, 71597, Note_on_c, 0, 93, 88
1, 71603, Control_c, 0, 64, 115
1, 71618, Note_off_c, 0, 91, 65
1, 71619, Control_c, 0, 64, 127
1, 71659, Note_on_c, 0, 91, 71
1, 71659, Note_off_c, 0, 65, 51
1, 71700, Note_on_c, 0, 89, 83
1, 71700, Note_off_c, 0, 93, 64
1, 71737, Note_off_c, 0, 91, 65
1, 71757, Note_off_c, 0, 89, 65
1, 71771, Note_on_c, 0, 83, 72
1, 71794, Note_off_c, 0, 83, 69
1, 71851, Note_on_c, 0, 79, 75
1, 71863, Note_on_c, 0, 77, 75
1, 71900, Note_off_c, 0, 77, 0
1, 71900, Note_on_c, 0, 77, 47
1, 71923, Note_off_c, 0, 79, 65
1, 71946, Note_off_c, 0, 59, 63
1, 71958, Note_off_c, 0, 77, 66
1, 71975, Note_off_c, 0, 55, 61
1, 71985, Note_on_c, 0, 69, 47
1, 71994, Note_on_c, 0, 71, 13
1, 72011, Note_off_c, 0, 69, 59
1, 72032, Note_on_c, 0, 67, 85
1, 72041, Note_off_c, 0, 71, 34
1, 72089, Note_on_c, 0, 65, 83
1, 72115, Note_off_c, 0, 67, 63
1, 72147, Note_off_c, 0, 65, 64
1, 72170, Note_on_c, 0, 59, 53
1, 72199, Note_off_c, 0, 59, 66
1, 72240, Note_on_c, 0, 55, 83
1, 72303, Note_on_c, 0, 53, 83
1, 72310, Note_off_c, 0, 55, 64
1, 72356, Note_off_c, 0, 53, 64
1, 72360, Note_on_c, 0, 47, 79
1, 72405, Note_on_c, 0, 43, 73
1, 72453, Note_on_c, 0, 41, 83
1, 72467, Note_off_c, 0, 43, 63
1, 72514, Note_off_c, 0, 41, 62
1, 72551, Note_on_c, 0, 35, 94
1, 72604, Control_c, 0, 64, 78
1, 72614, Note_on_c, 0, 49, 82
1, 72619, Control_c, 0, 64, 60
1, 72634, Control_c, 0, 64, 32
1, 72646, Note_off_c, 0, 49, 66
1, 72649, Control_c, 0, 64, 0
1, 72678, Control_c, 0, 64, 31
1, 72693, Control_c, 0, 64, 53
1, 72697, Note_on_c, 0, 53, 74
1, 72708, Control_c, 0, 64, 65
1, 72723, Control_c, 0, 64, 74
1, 72737, Control_c, 0, 64, 84
1, 72748, Note_on_c, 0, 55, 77
1, 72751, Note_off_c, 0, 53, 60
1, 72752, Control_c, 0, 64, 95
1, 72767, Control_c, 0, 64, 106
1, 72782, Control_c, 0, 64, 127
1, 72805, Note_on_c, 0, 61, 77
1, 72807, Note_off_c, 0, 55, 65
1, 72833, Note_off_c, 0, 61, 68
1, 72872, Poly_aftertouch_c, 0, 41, 127
1, 72894, Note_on_c, 0, 65, 86
1, 72942, Note_off_c, 0, 65, 0
1, 72948, Note_on_c, 0, 67, 64
1, 72980, Poly_aftertouch_c, 0, 65, 127
1, 72988, Poly_aftertouch_c, 0, 65, 0
1, 73003, Note_on_c, 0, 72, 69
1, 73004, Note_off_c, 0, 67, 66
1, 73038, Note_off_c, 0, 72, 66
1, 73085, Note_on_c, 0, 77, 87
1, 73138, Note_on_c, 0, 79, 66
1, 73146, Note_off_c, 0, 77, 63
1, 73186, Note_off_c, 0, 79, 62
1, 73198, Note_on_c, 0, 85, 79
1, 73220, Note_off_c, 0, 85, 68
1, 73275, Note_on_c, 0, 89, 81
1, 73279, Poly_aftertouch_c, 0, 41, 0
1, 73322, Note_on_c, 0, 91, 76
1, 73326, Note_off_c, 0, 89, 61
1, 73359, Poly_aftertouch_c, 0, 85, 0
1, 73379, Note_on_c, 0, 97, 82
1, 73392, Note_off_c, 0, 91, 64
1, 73419, Note_on_c, 0, 101, 73
1, 73469, Note_off_c, 0, 97, 66
1, 73473, Note_off_c, 0, 101, 66
1, 73478, Note_off_c, 0, 35, 61
1, 73485, Note_on_c, 0, 89, 81
1, 73498, Note_off_c, 0, 47, 66
1, 73554, Note_on_c, 0, 48, 92
1, 73554, Note_off_c, 0, 89, 64
1, 73564, Note_on_c, 0, 36, 80
1, 73572, Note_on_c, 0, 96, 84
1, 73590, Control_c, 0, 64, 77
1, 73605, Control_c, 0, 64, 58
1, 73620, Control_c, 0, 64, 27
1, 73634, Control_c, 0, 64, 0
1, 73639, Note_on_c, 0, 91, 82
1, 73663, Note_off_c, 0, 96, 63
1, 73664, Control_c, 0, 64, 28
1, 73678, Control_c, 0, 64, 53
1, 73693, Control_c, 0, 64, 68
1, 73699, Note_on_c, 0, 89, 71
1, 73708, Control_c, 0, 64, 80
1, 73720, Note_off_c, 0, 91, 65
1, 73721, Note_on_c, 0, 88, 55
1, 73723, Control_c, 0, 64, 98
1, 73738, Control_c, 0, 64, 127
1, 73746, Note_off_c, 0, 88, 63
1, 73748, Note_off_c, 0, 89, 66
1, 73756, Note_on_c, 0, 84, 82
1, 73788, Note_off_c, 0, 84, 69
1, 73842, Note_on_c, 0, 79, 91
1, 73895, Note_on_c, 0, 77, 73
1, 73913, Note_off_c, 0, 79, 64
1, 73963, Note_on_c, 0, 72, 78
1, 73965, Note_off_c, 0, 77, 64
1, 73989, Note_off_c, 0, 72, 66
1, 74047, Note_on_c, 0, 67, 87
1, 74101, Note_on_c, 0, 65, 71
1, 74107, Note_off_c, 0, 67, 63
1, 74110, Note_off_c, 0, 48, 60
1, 74155, Note_on_c, 0, 60, 78
1, 74164, Note_off_c, 0, 65, 63
1, 74191, Note_off_c, 0, 60, 62
1, 74245, Note_on_c, 0, 55, 85
1, 74284, Note_on_c, 0, 53, 77
1, 74292, Note_off_c, 0, 55, 64
1, 74333, Note_on_c, 0, 48, 83
1, 74338, Note_off_c, 0, 53, 63
1, 74369, Note_off_c, 0, 48, 65
1, 74372, Note_on_c, 0, 41, 74
1, 74409, Note_off_c, 0, 36, 48
1, 74450, Note_on_c, 0, 40, 69
1, 74483, Note_off_c, 0, 41, 62
1, 74501, Note_on_c, 0, 38, 74
1, 74528, Note_off_c, 0, 40, 60
1, 74642, Control_c, 0, 64, 110
1, 74657, Control_c, 0, 64, 83
1, 74669, Note_on_c, 0, 64, 83
1, 74672, Control_c, 0, 64, 68
1, 74684, Note_off_c, 0, 38, 61
1, 74687, Control_c, 0, 64, 55
1, 74690, Note_on_c, 0, 36, 61
1, 74700, Note_on_c, 0, 58, 45
1, 74701, Control_c, 0, 64, 22
1, 74716, Control_c, 0, 64, 0
1, 74749, Note_on_c, 0, 70, 23
1, 74761, Control_c, 0, 64, 11
1, 74775, Control_c, 0, 64, 38
1, 74790, Control_c, 0, 64, 52
1, 74806, Control_c, 0, 64, 61
1, 74818, Note_on_c, 0, 38, 50
1, 74821, Control_c, 0, 64, 66
1, 74836, Note_off_c, 0, 36, 59
1, 74836, Control_c, 0, 64, 69
1, 74837, Note_on_c, 0, 40, 60
1, 74850, Control_c, 0, 64, 71
1, 74865, Control_c, 0, 64, 74
1, 74881, Control_c, 0, 64, 77
1, 74887, Note_off_c, 0, 38, 56
1, 74896, Control_c, 0, 64, 82
1, 74897, Note_on_c, 0, 41, 57
1, 74903, Note_off_c, 0, 40, 54
1, 74911, Control_c, 0, 64, 87
1, 74925, Control_c, 0, 64, 90
1, 74940, Control_c, 0, 64, 91
1, 74954, Note_off_c, 0, 41, 60
1, 74955, Control_c, 0, 64, 91
1, 74968, Note_on_c, 0, 62, 83
1, 74979, Note_on_c, 0, 48, 40
1, 74985, Control_c, 0, 64, 90
1, 74999, Control_c, 0, 64, 81
1, 75014, Control_c, 0, 64, 71
1, 75029, Control_c, 0, 64, 62
1, 75038, Note_off_c, 0, 48, 50
1, 75044, Control_c, 0, 64, 56
1, 75058, Control_c, 0, 64, 55
1, 75064, Note_on_c, 0, 38, 44
1, 75073, Control_c, 0, 64, 59
1, 75078, Note_off_c, 0, 64, 57
1, 75088, Control_c, 0, 64, 64
1, 75103, Control_c, 0, 64, 69
1, 75118, Control_c, 0, 64, 75
1, 75133, Control_c, 0, 64, 81
1, 75136, Note_on_c, 0, 40, 45
1, 75147, Control_c, 0, 64, 87
1, 75162, Control_c, 0, 64, 93
1, 75173, Note_off_c, 0, 38, 51
1, 75177, Control_c, 0, 64, 99
1, 75184, Note_on_c, 0, 41, 52
1, 75192, Control_c, 0, 64, 102
1, 75200, Note_off_c, 0, 40, 46
1, 75207, Control_c, 0, 64, 103
1, 75218, Note_off_c, 0, 62, 64
1, 75237, Control_c, 0, 64, 105
1, 75249, Note_off_c, 0, 41, 53
1, 75251, Control_c, 0, 64, 109
1, 75266, Control_c, 0, 64, 118
1, 75280, Note_on_c, 0, 48, 37
1, 75288, Control_c, 0, 64, 127
1, 75317, Note_on_c, 0, 62, 68
1, 75332, Note_off_c, 0, 48, 48
1, 75332, Control_c, 0, 64, 104
1, 75347, Control_c, 0, 64, 88
1, 75353, Note_on_c, 0, 38, 51
1, 75362, Control_c, 0, 64, 75
1, 75377, Control_c, 0, 64, 67
1, 75377, Control_c, 0, 67, 8
1, 75392, Control_c, 0, 64, 63
1, 75392, Control_c, 0, 67, 9
1, 75396, Poly_aftertouch_c, 0, 64, 127
1, 75407, Control_c, 0, 64, 63
1, 75407, Control_c, 0, 67, 9
1, 75422, Control_c, 0, 64, 65
1, 75422, Control_c, 0, 67, 10
1, 75437, Control_c, 0, 64, 69
1, 75437, Control_c, 0, 67, 11
1, 75444, Note_on_c, 0, 40, 36
1, 75451, Control_c, 0, 64, 75
1, 75451, Control_c, 0, 67, 11
1, 75466, Control_c, 0, 64, 81
1, 75466, Control_c, 0, 67, 13
1, 75481, Control_c, 0, 64, 86
1, 75481, Control_c, 0, 67, 14
1, 75496, Control_c, 0, 64, 90
1, 75496, Control_c, 0, 67, 15
1, 75498, Note_on_c, 0, 41, 43
1, 75511, Control_c, 0, 64, 91
1, 75511, Control_c, 0, 67, 15
1, 75518, Note_off_c, 0, 40, 39
1, 75520, Note_off_c, 0, 38, 39
1, 75524, Note_off_c, 0, 62, 64
1, 75525, Control_c, 0, 64, 92
1, 75525, Control_c, 0, 67, 16
1, 75540, Control_c, 0, 64, 96
1, 75547, Note_off_c, 0, 41, 60
1, 75555, Control_c, 0, 64, 100
1, 75560, Note_off_c, 0, 70, 41
1, 75570, Control_c, 0, 64, 106
1, 75574, Note_on_c, 0, 48, 40
1, 75585, Control_c, 0, 64, 112
1, 75591, Poly_aftertouch_c, 0, 64, 0
1, 75601, Control_c, 0, 64, 122
1, 75615, Control_c, 0, 64, 127
1, 75630, Control_c, 0, 67, 16
1, 75636, Note_off_c, 0, 58, 35
1, 75645, Control_c, 0, 67, 17
1, 75660, Control_c, 0, 67, 18
1, 75666, Note_off_c, 0, 48, 0
1, 75674, Control_c, 0, 67, 20
1, 75689, Control_c, 0, 67, 23
1, 75702, Poly_aftertouch_c, 0, 48, 127
1, 75704, Control_c, 0, 64, 117
1, 75704, Control_c, 0, 67, 26
1, 75719, Control_c, 0, 64, 99
1, 75719, Control_c, 0, 67, 30
1, 75722, Note_on_c, 0, 69, 61
1, 75734, Control_c, 0, 64, 83
1, 75734, Control_c, 0, 67, 35
1, 75747, Note_on_c, 0, 40, 47
1, 75747, Note_on_c, 0, 60, 42
1, 75748, Control_c, 0, 64, 69
1, 75748, Control_c, 0, 67, 40
1, 75751, Note_on_c, 0, 58, 51
1, 75758, Poly_aftertouch_c, 0, 48, 0
1, 75763, Control_c, 0, 64, 58
1, 75763, Control_c, 0, 67, 44
1, 75778, Control_c, 0, 64, 44
1, 75778, Control_c, 0, 67, 47
1, 75793, Control_c, 0, 64, 30
1, 75793, Control_c, 0, 67, 50
1, 75806, Note_off_c, 0, 60, 0
1, 75806, Note_on_c, 0, 60, 16
1, 75808, Control_c, 0, 64, 31
1, 75808, Control_c, 0, 67, 52
1, 75822, Control_c, 0, 64, 42
1, 75822, Control_c, 0, 67, 54
1, 75837, Control_c, 0, 64, 52
1, 75837, Control_c, 0, 67, 55
1, 75842, Note_off_c, 0, 60, 52
1, 75852, Control_c, 0, 64, 60
1, 75852, Control_c, 0, 67, 54
1, 75857, Note_on_c, 0, 41, 47
1, 75860, Note_off_c, 0, 58, 40
1, 75867, Control_c, 0, 64, 64
1, 75867, Control_c, 0, 67, 54
1, 75870, Note_off_c, 0, 40, 52
1, 75881, Control_c, 0, 64, 67
1, 75896, Control_c, 0, 64, 70
1, 75911, Control_c, 0, 64, 73
1, 75913, Note_off_c, 0, 41, 55
1, 75923, Note_on_c, 0, 43, 42
1, 75926, Control_c, 0, 64, 75
1, 75926, Control_c, 0, 67, 53
1, 75941, Control_c, 0, 64, 77
1, 75941, Control_c, 0, 67, 53
1, 75955, Control_c, 0, 64, 79
1, 75970, Note_off_c, 0, 43, 55
1, 75970, Control_c, 0, 64, 80
1, 75970, Control_c, 0, 67, 52
1, 75985, Control_c, 0, 64, 81
1, 76000, Control_c, 0, 64, 82
1, 76010, Note_on_c, 0, 48, 49
1, 76015, Control_c, 0, 64, 82
1, 76037, Control_c, 0, 64, 83
1, 76037, Control_c, 0, 67, 52
1, 76043, Note_on_c, 0, 67, 54
1, 76085, Note_off_c, 0, 69, 32
1, 76094, Note_off_c, 0, 48, 43
1, 76096, Control_c, 0, 64, 83
1, 76111, Control_c, 0, 64, 79
1, 76126, Control_c, 0, 64, 72
1, 76141, Control_c, 0, 64, 65
1, 76141, Control_c, 0, 67, 53
1, 76149, Note_on_c, 0, 65, 56
1, 76153, Note_off_c, 0, 67, 40
1, 76155, Note_on_c, 0, 41, 48
1, 76155, Control_c, 0, 64, 57
1, 76170, Control_c, 0, 64, 48
1, 76170, Control_c, 0, 67, 53
1, 76185, Control_c, 0, 64, 38
1, 76185, Control_c, 0, 67, 54
1, 76200, Note_off_c, 0, 41, 63
1, 76200, Control_c, 0, 64, 29
1, 76200, Control_c, 0, 67, 54
1, 76206, Note_off_c, 0, 65, 59
1, 76215, Note_on_c, 0, 57, 54
1, 76215, Control_c, 0, 64, 25
1, 76244, Control_c, 0, 67, 54
1, 76245, Note_off_c, 0, 57, 65
1, 76259, Control_c, 0, 64, 25
1, 76274, Control_c, 0, 64, 27
1, 76277, Note_on_c, 0, 64, 56
1, 76289, Control_c, 0, 64, 28
1, 76304, Control_c, 0, 64, 31
1, 76304, Control_c, 0, 67, 53
1, 76311, Note_off_c, 0, 64, 65
1, 76319, Control_c, 0, 64, 34
1, 76321, Note_on_c, 0, 67, 58
1, 76334, Control_c, 0, 64, 37
1, 76348, Control_c, 0, 64, 39
1, 76363, Control_c, 0, 64, 40
1, 76377, Control_c, 0, 64, 42
1, 76382, Note_off_c, 0, 67, 60
1, 76386, Note_on_c, 0, 65, 60
1, 76392, Control_c, 0, 64, 43
1, 76407, Note_off_c, 0, 65, 61
1, 76408, Control_c, 0, 64, 45
1, 76423, Control_c, 0, 64, 48
1, 76438, Control_c, 0, 64, 49
1, 76438, Control_c, 0, 67, 53
1, 76452, Note_on_c, 0, 69, 65
1, 76484, Note_off_c, 0, 69, 63
1, 76496, Control_c, 0, 64, 50
1, 76508, Note_on_c, 0, 76, 63
1, 76511, Control_c, 0, 64, 51
1, 76526, Control_c, 0, 64, 51
1, 76550, Note_off_c, 0, 76, 60
1, 76565, Note_on_c, 0, 79, 59
1, 76570, Control_c, 0, 64, 52
1, 76570, Control_c, 0, 67, 52
1, 76585, Control_c, 0, 64, 53
1, 76623, Note_on_c, 0, 60, 50
1, 76626, Note_off_c, 0, 79, 60
1, 76629, Note_on_c, 0, 77, 57
1, 76630, Control_c, 0, 67, 52
1, 76641, Note_on_c, 0, 51, 44
1, 76647, Note_off_c, 0, 60, 61
1, 76659, Control_c, 0, 67, 53
1, 76665, Note_off_c, 0, 77, 65
1, 76670, Note_off_c, 0, 51, 63
1, 76674, Control_c, 0, 67, 53
1, 76688, Note_on_c, 0, 81, 62
1, 76703, Control_c, 0, 64, 52
1, 76703, Control_c, 0, 67, 54
1, 76728, Note_off_c, 0, 81, 61
1, 76733, Control_c, 0, 67, 54
1, 76739, Note_on_c, 0, 79, 69
1, 76763, Control_c, 0, 64, 52
1, 76763, Control_c, 0, 67, 55
1, 76784, Note_off_c, 0, 79, 64
1, 76785, Control_c, 0, 64, 51
1, 76800, Control_c, 0, 64, 50
1, 76800, Control_c, 0, 67, 54
1, 76808, Note_on_c, 0, 74, 58
1, 76815, Control_c, 0, 64, 49
1, 76815, Control_c, 0, 67, 54
1, 76838, Note_off_c, 0, 74, 64
1, 76845, Control_c, 0, 67, 53
1, 76859, Control_c, 0, 64, 50
1, 76859, Control_c, 0, 67, 53
1, 76873, Note_on_c, 0, 41, 51
1, 76874, Note_on_c, 0, 77, 64
1, 76874, Control_c, 0, 67, 52
1, 76889, Control_c, 0, 64, 50
1, 76889, Control_c, 0, 67, 52
1, 76903, Control_c, 0, 64, 51
1, 76903, Control_c, 0, 67, 51
1, 76907, Note_off_c, 0, 77, 65
1, 76914, Note_on_c, 0, 75, 67
1, 76918, Control_c, 0, 64, 52
1, 76918, Control_c, 0, 67, 50
1, 76933, Control_c, 0, 64, 54
1, 76948, Control_c, 0, 64, 54
1, 76948, Control_c, 0, 67, 50
1, 76963, Control_c, 0, 64, 55
1, 76963, Control_c, 0, 67, 49
1, 76971, Note_off_c, 0, 75, 63
1, 76976, Note_on_c, 0, 67, 61
1, 76978, Control_c, 0, 67, 48
1, 76993, Control_c, 0, 67, 46
1, 77008, Control_c, 0, 64, 55
1, 77008, Control_c, 0, 67, 45
1, 77022, Control_c, 0, 64, 56
1, 77022, Note_off_c, 0, 41, 34
1, 77023, Note_off_c, 0, 67, 63
1, 77032, Note_on_c, 0, 69, 65
1, 77037, Control_c, 0, 64, 57
1, 77052, Control_c, 0, 64, 57
1, 77067, Control_c, 0, 64, 58
1, 77079, Note_off_c, 0, 69, 64
1, 77082, Control_c, 0, 67, 45
1, 77096, Control_c, 0, 64, 59
1, 77096, Control_c, 0, 67, 46
1, 77097, Note_on_c, 0, 50, 55
1, 77104, Note_on_c, 0, 58, 53
1, 77109, Note_on_c, 0, 70, 49
1, 77111, Control_c, 0, 64, 60
1, 77111, Control_c, 0, 67, 47
1, 77126, Control_c, 0, 64, 61
1, 77126, Control_c, 0, 67, 48
1, 77127, Note_off_c, 0, 58, 62
1, 77131, Note_off_c, 0, 50, 65
1, 77133, Note_off_c, 0, 70, 58
1, 77141, Control_c, 0, 64, 61
1, 77141, Control_c, 0, 67, 49
1, 77142, Note_on_c, 0, 75, 63
1, 77156, Control_c, 0, 64, 62
1, 77156, Control_c, 0, 67, 50
1, 77170, Control_c, 0, 67, 51
1, 77173, Note_off_c, 0, 75, 63
1, 77185, Control_c, 0, 67, 52
1, 77216, Control_c, 0, 64, 61
1, 77220, Note_on_c, 0, 74, 51
1, 77231, Control_c, 0, 64, 60
1, 77231, Control_c, 0, 67, 51
1, 77246, Control_c, 0, 64, 57
1, 77246, Note_off_c, 0, 74, 62
1, 77261, Control_c, 0, 64, 53
1, 77261, Control_c, 0, 67, 50
1, 77268, Note_on_c, 0, 64, 68
1, 77275, Control_c, 0, 64, 44
1, 77275, Control_c, 0, 67, 48
1, 77290, Control_c, 0, 64, 31
1, 77290, Control_c, 0, 67, 45
1, 77305, Control_c, 0, 64, 14
1, 77305, Control_c, 0, 67, 41
1, 77319, Control_c, 0, 64, 13
1, 77319, Control_c, 0, 67, 35
1, 77321, Note_on_c, 0, 41, 66
1, 77328, Note_off_c, 0, 64, 61
1, 77334, Control_c, 0, 64, 20
1, 77334, Control_c, 0, 67, 25
1, 77336, Note_on_c, 0, 65, 59
1, 77349, Control_c, 0, 64, 29
1, 77349, Control_c, 0, 67, 12
1, 77364, Control_c, 0, 64, 38
1, 77364, Control_c, 0, 67, 0
1, 77379, Control_c, 0, 64, 45
1, 77380, Note_off_c, 0, 65, 64
1, 77390, Note_on_c, 0, 72, 66
1, 77393, Control_c, 0, 64, 51
1, 77408, Control_c, 0, 64, 54
1, 77423, Control_c, 0, 64, 56
1, 77429, Note_off_c, 0, 72, 60
1, 77455, Note_on_c, 0, 70, 57
1, 77476, Note_off_c, 0, 70, 64
1, 77499, Note_on_c, 0, 61, 65
1, 77530, Note_off_c, 0, 61, 66
1, 77549, Control_c, 0, 64, 55
1, 77549, Control_c, 0, 67, 8
1, 77561, Note_on_c, 0, 62, 57
1, 77564, Control_c, 0, 64, 54
1, 77579, Control_c, 0, 64, 53
1, 77594, Control_c, 0, 64, 52
1, 77607, Note_off_c, 0, 62, 63
1, 77623, Control_c, 0, 64, 52
1, 77634, Note_on_c, 0, 69, 61
1, 77667, Control_c, 0, 67, 8
1, 77674, Note_on_c, 0, 67, 64
1, 77682, Control_c, 0, 67, 9
1, 77683, Note_off_c, 0, 69, 57
1, 77697, Control_c, 0, 67, 11
1, 77712, Control_c, 0, 67, 12
1, 77721, Note_off_c, 0, 67, 63
1, 77726, Control_c, 0, 67, 12
1, 77735, Note_on_c, 0, 60, 65
1, 77741, Control_c, 0, 67, 13
1, 77756, Control_c, 0, 67, 14
1, 77771, Control_c, 0, 67, 15
1, 77793, Note_off_c, 0, 60, 60
1, 77800, Note_on_c, 0, 58, 63
1, 77800, Control_c, 0, 64, 52
1, 77803, Note_on_c, 0, 53, 64
1, 77809, Note_on_c, 0, 50, 63
1, 77815, Control_c, 0, 64, 53
1, 77830, Control_c, 0, 64, 53
1, 77845, Note_off_c, 0, 58, 62
1, 77860, Control_c, 0, 64, 54
1, 77875, Control_c, 0, 64, 56
1, 77875, Note_on_c, 0, 63, 62
1, 77890, Control_c, 0, 64, 57
1, 77905, Control_c, 0, 64, 57
1, 77905, Control_c, 0, 67, 15
1, 77917, Note_off_c, 0, 63, 65
1, 77918, Note_on_c, 0, 62, 59
1, 77949, Control_c, 0, 64, 58
1, 77949, Control_c, 0, 67, 14
1, 77973, Note_off_c, 0, 50, 65
1, 77979, Note_on_c, 0, 48, 63
1, 77979, Control_c, 0, 64, 58
1, 77979, Control_c, 0, 67, 13
1, 77980, Note_off_c, 0, 62, 62
1, 77985, Note_on_c, 0, 57, 64
1, 77994, Control_c, 0, 64, 58
1, 77994, Control_c, 0, 67, 13
1, 78009, Control_c, 0, 64, 56
1, 78024, Control_c, 0, 64, 52
1, 78024, Note_off_c, 0, 57, 64
1, 78039, Control_c, 0, 64, 47
1, 78051, Note_on_c, 0, 46, 73
1, 78054, Control_c, 0, 64, 42
1, 78058, Note_off_c, 0, 48, 63
1, 78068, Note_on_c, 0, 55, 61
1, 78068, Control_c, 0, 64, 37
1, 78083, Control_c, 0, 64, 34
1, 78098, Control_c, 0, 64, 33
1, 78098, Control_c, 0, 67, 14
1, 78103, Note_off_c, 0, 55, 64
1, 78110, Note_on_c, 0, 57, 63
1, 78113, Control_c, 0, 67, 14
1, 78128, Control_c, 0, 64, 34
1, 78128, Control_c, 0, 67, 15
1, 78142, Control_c, 0, 64, 35
1, 78145, Note_off_c, 0, 57, 64
1, 78157, Control_c, 0, 64, 36
1, 78172, Control_c, 0, 64, 39
1, 78176, Note_on_c, 0, 55, 71
1, 78187, Control_c, 0, 64, 42
1, 78202, Control_c, 0, 64, 46
1, 78212, Note_off_c, 0, 55, 65
1, 78216, Control_c, 0, 64, 50
1, 78231, Control_c, 0, 64, 52
1, 78231, Control_c, 0, 67, 14
1, 78237, Note_on_c, 0, 62, 73
1, 78246, Control_c, 0, 64, 54
1, 78246, Control_c, 0, 67, 14
1, 78261, Control_c, 0, 64, 55
1, 78283, Control_c, 0, 64, 56
1, 78298, Control_c, 0, 64, 56
1, 78308, Note_on_c, 0, 60, 65
1, 78309, Note_off_c, 0, 53, 61
1, 78309, Note_off_c, 0, 62, 64
1, 78313, Note_on_c, 0, 52, 77
1, 78328, Control_c, 0, 64, 56
1, 78343, Control_c, 0, 64, 54
1, 78347, Note_off_c, 0, 60, 60
1, 78357, Control_c, 0, 64, 51
1, 78365, Note_on_c, 0, 62, 67
1, 78372, Control_c, 0, 64, 48
1, 78387, Control_c, 0, 64, 47
1, 78408, Note_off_c, 0, 62, 63
1, 78431, Note_on_c, 0, 60, 72
1, 78457, Note_off_c, 0, 52, 63
1, 78475, Note_off_c, 0, 60, 54
1, 78475, Control_c, 0, 64, 47
1, 78480, Note_on_c, 0, 50, 70
1, 78499, Note_on_c, 0, 65, 67
1, 78561, Note_off_c, 0, 65, 62
1, 78561, Note_on_c, 0, 64, 57
1, 78564, Control_c, 0, 64, 48
1, 78567, Note_on_c, 0, 48, 76
1, 78567, Note_off_c, 0, 50, 66
1, 78579, Control_c, 0, 64, 49
1, 78594, Control_c, 0, 64, 51
1, 78609, Control_c, 0, 64, 53
1, 78617, Note_off_c, 0, 64, 64
1, 78622, Note_on_c, 0, 65, 60
1, 78624, Control_c, 0, 64, 55
1, 78639, Control_c, 0, 64, 56
1, 78654, Control_c, 0, 64, 57
1, 78659, Note_off_c, 0, 65, 65
1, 78668, Control_c, 0, 64, 58
1, 78669, Note_on_c, 0, 64, 51
1, 78683, Control_c, 0, 64, 59
1, 78698, Control_c, 0, 64, 60
1, 78713, Control_c, 0, 64, 62
1, 78728, Note_off_c, 0, 48, 63
1, 78728, Control_c, 0, 64, 63
1, 78730, Note_off_c, 0, 64, 62
1, 78741, Note_on_c, 0, 69, 72
1, 78742, Control_c, 0, 64, 63
1, 78772, Note_off_c, 0, 46, 57
1, 78772, Control_c, 0, 64, 64
1, 78774, Note_off_c, 0, 41, 61
1, 78778, Note_off_c, 0, 69, 66
1, 78794, Note_on_c, 0, 67, 66
1, 78812, Note_on_c, 0, 48, 50
1, 78832, Note_off_c, 0, 67, 60
1, 78833, Control_c, 0, 67, 14
1, 78847, Control_c, 0, 64, 63
1, 78847, Control_c, 0, 67, 15
1, 78852, Note_on_c, 0, 69, 75
1, 78862, Control_c, 0, 64, 61
1, 78862, Control_c, 0, 67, 15
1, 78863, Note_off_c, 0, 48, 61
1, 78870, Note_on_c, 0, 41, 58
1, 78877, Note_off_c, 0, 69, 69
1, 78877, Control_c, 0, 64, 56
1, 78891, Control_c, 0, 64, 51
1, 78900, Note_on_c, 0, 67, 70
1, 78906, Control_c, 0, 64, 46
1, 78906, Control_c, 0, 67, 16
1, 78918, Note_off_c, 0, 41, 61
1, 78921, Control_c, 0, 64, 42
1, 78921, Control_c, 0, 67, 17
1, 78927, Note_on_c, 0, 48, 60
1, 78930, Note_off_c, 0, 67, 65
1, 78936, Control_c, 0, 64, 41
1, 78936, Control_c, 0, 67, 18
1, 78951, Control_c, 0, 64, 40
1, 78967, Note_on_c, 0, 74, 62
1, 78981, Control_c, 0, 64, 41
1, 78996, Control_c, 0, 64, 42
1, 79008, Note_off_c, 0, 74, 61
1, 79011, Control_c, 0, 64, 43
1, 79011, Control_c, 0, 67, 17
1, 79033, Control_c, 0, 64, 45
1, 79047, Control_c, 0, 64, 46
1, 79047, Control_c, 0, 67, 17
1, 79052, Note_on_c, 0, 72, 71
1, 79062, Control_c, 0, 64, 48
1, 79064, Note_on_c, 0, 57, 50
1, 79077, Control_c, 0, 64, 49
1, 79085, Note_off_c, 0, 72, 60
1, 79092, Control_c, 0, 64, 50
1, 79106, Control_c, 0, 64, 50
1, 79115, Note_on_c, 0, 76, 69
1, 79146, Note_off_c, 0, 76, 64
1, 79170, Note_on_c, 0, 79, 65
1, 79203, Note_off_c, 0, 79, 65
1, 79210, Control_c, 0, 64, 51
1, 79229, Note_on_c, 0, 77, 72
1, 79258, Note_off_c, 0, 77, 64
1, 79270, Control_c, 0, 67, 16
1, 79285, Control_c, 0, 67, 16
1, 79299, Note_on_c, 0, 80, 60
1, 79300, Note_on_c, 0, 53, 45
1, 79314, Control_c, 0, 64, 51
1, 79314, Control_c, 0, 67, 15
1, 79324, Note_off_c, 0, 57, 44
1, 79329, Control_c, 0, 67, 15
1, 79339, Note_off_c, 0, 80, 63
1, 79341, Note_on_c, 0, 82, 71
1, 79344, Control_c, 0, 64, 52
1, 79344, Control_c, 0, 67, 14
1, 79359, Control_c, 0, 67, 12
1, 79371, Note_off_c, 0, 82, 67
1, 79373, Control_c, 0, 64, 52
1, 79373, Control_c, 0, 67, 9
1, 79388, Control_c, 0, 64, 53
1, 79388, Control_c, 0, 67, 0
1, 79403, Control_c, 0, 64, 54
1, 79412, Note_on_c, 0, 81, 64
1, 79417, Control_c, 0, 64, 55
1, 79432, Control_c, 0, 64, 56
1, 79433, Note_off_c, 0, 81, 62
1, 79447, Note_on_c, 0, 83, 74
1, 79447, Control_c, 0, 64, 57
1, 79462, Control_c, 0, 64, 57
1, 79463, Note_off_c, 0, 48, 63
1, 79467, Note_off_c, 0, 53, 63
1, 79477, Control_c, 0, 64, 58
1, 79491, Control_c, 0, 64, 58
1, 79501, Note_off_c, 0, 83, 65
1, 79506, Control_c, 0, 64, 59
1, 79517, Note_on_c, 0, 86, 63
1, 79521, Control_c, 0, 64, 61
1, 79536, Control_c, 0, 64, 61
1, 79541, Note_off_c, 0, 86, 63
1, 79551, Control_c, 0, 64, 62
1, 79565, Control_c, 0, 64, 63
1, 79571, Note_on_c, 0, 84, 77
1, 79580, Control_c, 0, 64, 63
1, 79596, Control_c, 0, 64, 64
1, 79598, Note_off_c, 0, 84, 62
1, 79611, Control_c, 0, 64, 65
1, 79626, Control_c, 0, 64, 65
1, 79640, Note_on_c, 0, 88, 43
1, 79656, Control_c, 0, 64, 66
1, 79666, Note_off_c, 0, 88, 58
1, 79670, Control_c, 0, 64, 67
1, 79672, Note_on_c, 0, 91, 76
1, 79685, Control_c, 0, 64, 69
1, 79700, Control_c, 0, 64, 71
1, 79709, Note_off_c, 0, 91, 59
1, 79714, Control_c, 0, 64, 74
1, 79729, Control_c, 0, 64, 76
1, 79738, Note_on_c, 0, 89, 76
1, 79744, Control_c, 0, 64, 78
1, 79759, Control_c, 0, 64, 81
1, 79770, Note_on_c, 0, 65, 52
1, 79782, Control_c, 0, 64, 83
1, 79783, Note_off_c, 0, 89, 54
1, 79796, Control_c, 0, 64, 86
1, 79811, Control_c, 0, 64, 90
1, 79826, Control_c, 0, 64, 93
1, 79840, Control_c, 0, 64, 95
1, 79848, Note_on_c, 0, 94, 71
1, 79855, Control_c, 0, 64, 96
1, 79866, Note_off_c, 0, 94, 65
1, 79870, Control_c, 0, 64, 97
1, 79885, Control_c, 0, 64, 97
1, 79899, Note_off_c, 0, 65, 56
1, 79900, Control_c, 0, 64, 98
1, 79915, Control_c, 0, 64, 99
1, 79921, Note_on_c, 0, 93, 62
1, 79929, Control_c, 0, 64, 99
1, 79944, Control_c, 0, 64, 100
1, 79962, Note_off_c, 0, 93, 55
1, 79990, Note_on_c, 0, 95, 67
1, 80003, Control_c, 0, 64, 92
1, 80018, Control_c, 0, 64, 75
1, 80024, Note_on_c, 0, 53, 52
1, 80024, Note_on_c, 0, 63, 50
1, 80033, Note_on_c, 0, 65, 49
1, 80033, Control_c, 0, 64, 64
1, 80037, Note_off_c, 0, 95, 65
1, 80048, Control_c, 0, 64, 55
1, 80051, Note_on_c, 0, 96, 58
1, 80063, Control_c, 0, 64, 53
1, 80078, Control_c, 0, 64, 55
1, 80093, Control_c, 0, 64, 61
1, 80099, Note_off_c, 0, 96, 65
1, 80102, Note_on_c, 0, 101, 65
1, 80108, Control_c, 0, 64, 66
1, 80120, Control_c, 0, 64, 72
1, 80134, Note_off_c, 0, 65, 55
1, 80135, Control_c, 0, 64, 77
1, 80135, Control_c, 0, 67, 8
1, 80150, Control_c, 0, 64, 81
1, 80150, Control_c, 0, 67, 9
1, 80165, Control_c, 0, 64, 84
1, 80165, Control_c, 0, 67, 10
1, 80176, Note_on_c, 0, 100, 69
1, 80180, Control_c, 0, 64, 87
1, 80180, Control_c, 0, 67, 12
1, 80194, Control_c, 0, 64, 91
1, 80194, Control_c, 0, 67, 13
1, 80207, Note_off_c, 0, 101, 58
1, 80209, Control_c, 0, 64, 96
1, 80224, Control_c, 0, 64, 104
1, 80237, Note_on_c, 0, 99, 68
1, 80239, Control_c, 0, 64, 111
1, 80254, Note_off_c, 0, 100, 63
1, 80254, Control_c, 0, 64, 115
1, 80254, Control_c, 0, 67, 13
1, 80269, Control_c, 0, 64, 116
1, 80270, Note_on_c, 0, 65, 50
1, 80281, Note_off_c, 0, 99, 64
1, 80284, Control_c, 0, 64, 118
1, 80298, Control_c, 0, 64, 122
1, 80301, Note_on_c, 0, 96, 62
1, 80313, Control_c, 0, 64, 127
1, 80326, Note_off_c, 0, 53, 56
1, 80328, Note_off_c, 0, 96, 67
1, 80354, Note_off_c, 0, 63, 61
1, 80355, Note_off_c, 0, 65, 62
1, 80363, Note_on_c, 0, 98, 64
1, 80412, Note_off_c, 0, 98, 58
1, 80418, Control_c, 0, 67, 14
1, 80424, Note_on_c, 0, 94, 63
1, 80433, Control_c, 0, 64, 107
1, 80433, Control_c, 0, 67, 15
1, 80447, Control_c, 0, 64, 88
1, 80447, Control_c, 0, 67, 17
1, 80462, Control_c, 0, 64, 73
1, 80462, Control_c, 0, 67, 20
1, 80470, Note_off_c, 0, 94, 55
1, 80477, Control_c, 0, 64, 64
1, 80477, Control_c, 0, 67, 22
1, 80479, Note_on_c, 0, 55, 54
1, 80483, Note_on_c, 0, 65, 46
1, 80492, Control_c, 0, 64, 60
1, 80492, Control_c, 0, 67, 23
1, 80495, Note_on_c, 0, 93, 56
1, 80504, Note_on_c, 0, 63, 42
1, 80507, Control_c, 0, 64, 59
1, 80529, Control_c, 0, 64, 63
1, 80529, Control_c, 0, 67, 23
1, 80543, Control_c, 0, 64, 67
1, 80543, Control_c, 0, 67, 22
1, 80545, Note_off_c, 0, 55, 51
1, 80555, Note_off_c, 0, 93, 59
1, 80558, Note_on_c, 0, 98, 63
1, 80558, Control_c, 0, 64, 73
1, 80573, Control_c, 0, 64, 79
1, 80573, Control_c, 0, 67, 21
1, 80588, Control_c, 0, 64, 85
1, 80603, Control_c, 0, 64, 89
1, 80605, Note_off_c, 0, 65, 63
1, 80606, Note_off_c, 0, 63, 63
1, 80617, Control_c, 0, 64, 92
1, 80617, Control_c, 0, 67, 20
1, 80618, Note_on_c, 0, 96, 63
1, 80632, Control_c, 0, 64, 96
1, 80632, Control_c, 0, 67, 20
1, 80647, Control_c, 0, 64, 100
1, 80653, Note_off_c, 0, 98, 46
1, 80662, Control_c, 0, 64, 105
1, 80677, Control_c, 0, 64, 106
1, 80677, Note_on_c, 0, 91, 55
1, 80692, Note_off_c, 0, 96, 65
1, 80692, Control_c, 0, 64, 104
1, 80707, Control_c, 0, 64, 89
1, 80722, Note_on_c, 0, 57, 52
1, 80722, Control_c, 0, 64, 71
1, 80725, Note_off_c, 0, 91, 64
1, 80733, Note_on_c, 0, 63, 44
1, 80733, Note_on_c, 0, 65, 51
1, 80737, Control_c, 0, 64, 62
1, 80740, Note_on_c, 0, 89, 63
1, 80751, Control_c, 0, 64, 58
1, 80766, Control_c, 0, 64, 59
1, 80767, Note_off_c, 0, 89, 67
1, 80781, Control_c, 0, 64, 63
1, 80796, Control_c, 0, 64, 68
1, 80796, Control_c, 0, 67, 19
1, 80798, Note_off_c, 0, 57, 60
1, 80805, Note_on_c, 0, 86, 62
1, 80808, Note_off_c, 0, 65, 61
1, 80811, Control_c, 0, 64, 75
1, 80822, Note_off_c, 0, 86, 66
1, 80825, Control_c, 0, 64, 86
1, 80826, Note_off_c, 0, 63, 58
1, 80840, Control_c, 0, 64, 95
1, 80855, Note_on_c, 0, 87, 76
1, 80855, Control_c, 0, 64, 103
1, 80869, Control_c, 0, 64, 109
1, 80884, Control_c, 0, 64, 111
1, 80899, Control_c, 0, 64, 112
1, 80904, Note_off_c, 0, 87, 64
1, 80910, Note_on_c, 0, 84, 62
1, 80914, Control_c, 0, 67, 20
1, 80929, Control_c, 0, 64, 103
1, 80929, Control_c, 0, 67, 21
1, 80943, Control_c, 0, 64, 82
1, 80943, Control_c, 0, 67, 23
1, 80944, Note_off_c, 0, 84, 65
1, 80958, Control_c, 0, 64, 65
1, 80958, Control_c, 0, 67, 23
1, 80970, Note_on_c, 0, 65, 47
1, 80973, Control_c, 0, 64, 48
1, 80976, Note_on_c, 0, 82, 63
1, 80983, Note_on_c, 0, 62, 52
1, 80986, Note_on_c, 0, 58, 41
1, 80988, Control_c, 0, 64, 34
1, 81003, Control_c, 0, 64, 33
1, 81017, Control_c, 0, 64, 44
1, 81017, Control_c, 0, 67, 23
1, 81023, Note_off_c, 0, 82, 56
1, 81032, Control_c, 0, 64, 57
1, 81032, Control_c, 0, 67, 22
1, 81043, Note_on_c, 0, 87, 67
1, 81047, Control_c, 0, 64, 65
1, 81047, Control_c, 0, 67, 22
1, 81056, Note_off_c, 0, 65, 62
1, 81062, Control_c, 0, 64, 70
1, 81076, Control_c, 0, 64, 76
1, 81091, Control_c, 0, 64, 80
1, 81096, Note_on_c, 0, 86, 72
1, 81104, Note_off_c, 0, 87, 65
1, 81106, Control_c, 0, 64, 84
1, 81121, Control_c, 0, 64, 89
1, 81136, Control_c, 0, 64, 96
1, 81146, Note_off_c, 0, 86, 65
1, 81151, Control_c, 0, 64, 108
1, 81163, Note_on_c, 0, 78, 55
1, 81166, Control_c, 0, 64, 127
1, 81186, Note_off_c, 0, 78, 62
1, 81211, Control_c, 0, 64, 96
1, 81211, Control_c, 0, 67, 21
1, 81217, Note_on_c, 0, 65, 71
1, 81226, Control_c, 0, 64, 81
1, 81240, Control_c, 0, 64, 75
1, 81240, Control_c, 0, 67, 21
1, 81244, Note_on_c, 0, 79, 65
1, 81255, Control_c, 0, 64, 74
1, 81278, Control_c, 0, 64, 75
1, 81292, Control_c, 0, 64, 78
1, 81301, Note_on_c, 0, 84, 64
1, 81301, Note_off_c, 0, 79, 56
1, 81307, Control_c, 0, 64, 81
1, 81322, Control_c, 0, 64, 85
1, 81337, Control_c, 0, 64, 89
1, 81352, Control_c, 0, 64, 92
1, 81352, Control_c, 0, 67, 21
1, 81359, Note_off_c, 0, 84, 66
1, 81366, Control_c, 0, 64, 96
1, 81366, Control_c, 0, 67, 22
1, 81381, Note_on_c, 0, 82, 63
1, 81381, Control_c, 0, 64, 101
1, 81381, Control_c, 0, 67, 23
1, 81396, Control_c, 0, 64, 106
1, 81396, Control_c, 0, 67, 24
1, 81411, Control_c, 0, 64, 108
1, 81411, Control_c, 0, 67, 25
1, 81418, Note_off_c, 0, 82, 61
1, 81422, Note_on_c, 0, 73, 60
1, 81426, Control_c, 0, 64, 101
1, 81426, Control_c, 0, 67, 25
1, 81440, Control_c, 0, 64, 83
1, 81440, Control_c, 0, 67, 26
1, 81455, Note_off_c, 0, 73, 67
1, 81455, Control_c, 0, 64, 70
1, 81455, Control_c, 0, 67, 28
1, 81470, Control_c, 0, 64, 60
1, 81483, Note_on_c, 0, 53, 50
1, 81485, Control_c, 0, 64, 53
1, 81485, Control_c, 0, 67, 27
1, 81500, Control_c, 0, 64, 50
1, 81500, Control_c, 0, 67, 26
1, 81507, Note_on_c, 0, 74, 49
1, 81515, Control_c, 0, 64, 54
1, 81515, Control_c, 0, 67, 25
1, 81530, Control_c, 0, 64, 62
1, 81531, Note_off_c, 0, 74, 62
1, 81537, Note_off_c, 0, 65, 63
1, 81540, Note_off_c, 0, 62, 65
1, 81544, Control_c, 0, 64, 68
1, 81544, Control_c, 0, 67, 25
1, 81556, Note_on_c, 0, 81, 52
1, 81559, Control_c, 0, 64, 74
1, 81559, Control_c, 0, 67, 24
1, 81574, Control_c, 0, 64, 82
1, 81574, Control_c, 0, 67, 23
1, 81577, Note_off_c, 0, 58, 55
1, 81589, Control_c, 0, 64, 89
1, 81589, Control_c, 0, 67, 22
1, 81593, Note_on_c, 0, 79, 69
1, 81604, Control_c, 0, 64, 93
1, 81604, Control_c, 0, 67, 21
1, 81619, Control_c, 0, 64, 98
1, 81626, Note_off_c, 0, 81, 61
1, 81634, Control_c, 0, 64, 103
1, 81634, Note_off_c, 0, 79, 62
1, 81645, Note_on_c, 0, 58, 9
1, 81649, Control_c, 0, 64, 109
1, 81664, Note_on_c, 0, 72, 60
1, 81664, Control_c, 0, 64, 112
1, 81664, Control_c, 0, 67, 21
1, 81679, Control_c, 0, 64, 111
1, 81693, Control_c, 0, 64, 93
1, 81708, Control_c, 0, 64, 75
1, 81715, Note_off_c, 0, 72, 43
1, 81723, Control_c, 0, 64, 63
1, 81724, Note_on_c, 0, 65, 57
1, 81730, Note_on_c, 0, 70, 63
1, 81734, Note_on_c, 0, 62, 54
1, 81738, Control_c, 0, 64, 60
1, 81753, Control_c, 0, 64, 61
1, 81767, Control_c, 0, 64, 64
1, 81771, Note_off_c, 0, 70, 64
1, 81782, Control_c, 0, 64, 69
1, 81797, Control_c, 0, 64, 75
1, 81798, Note_on_c, 0, 75, 70
1, 81811, Control_c, 0, 64, 82
1, 81811, Control_c, 0, 67, 20
1, 81826, Control_c, 0, 64, 88
1, 81831, Note_off_c, 0, 75, 65
1, 81841, Control_c, 0, 64, 92
1, 81849, Note_on_c, 0, 74, 61
1, 81856, Control_c, 0, 64, 97
1, 81870, Note_off_c, 0, 58, 41
1, 81871, Control_c, 0, 64, 101
1, 81886, Control_c, 0, 64, 105
1, 81900, Control_c, 0, 64, 104
1, 81900, Control_c, 0, 67, 20
1, 81906, Note_on_c, 0, 60, 63
1, 81911, Note_off_c, 0, 74, 64
1, 81915, Control_c, 0, 64, 92
1, 81918, Note_on_c, 0, 69, 63
1, 81929, Note_off_c, 0, 62, 59
1, 81930, Control_c, 0, 64, 70
1, 81945, Control_c, 0, 64, 58
1, 81945, Control_c, 0, 67, 19
1, 81948, Note_off_c, 0, 69, 61
1, 81959, Control_c, 0, 64, 47
1, 81974, Control_c, 0, 64, 46
1, 81974, Control_c, 0, 67, 18
1, 81981, Note_on_c, 0, 67, 62
1, 81990, Control_c, 0, 64, 49
1, 81990, Control_c, 0, 67, 18
1, 81992, Note_on_c, 0, 58, 59
1, 82001, Note_off_c, 0, 60, 60
1, 82005, Control_c, 0, 64, 55
1, 82027, Control_c, 0, 64, 61
1, 82034, Note_off_c, 0, 67, 64
1, 82042, Control_c, 0, 64, 66
1, 82050, Note_on_c, 0, 69, 53
1, 82057, Control_c, 0, 64, 70
1, 82087, Control_c, 0, 64, 68
1, 82087, Control_c, 0, 67, 19
1, 82090, Note_off_c, 0, 69, 67
1, 82102, Control_c, 0, 64, 68
1, 82116, Control_c, 0, 64, 68
1, 82119, Note_on_c, 0, 67, 62
1, 82131, Control_c, 0, 64, 71
1, 82146, Control_c, 0, 64, 75
1, 82161, Control_c, 0, 64, 80
1, 82163, Note_off_c, 0, 67, 62
1, 82175, Note_on_c, 0, 74, 67
1, 82176, Control_c, 0, 64, 86
1, 82190, Control_c, 0, 64, 90
1, 82205, Control_c, 0, 64, 93
1, 82220, Control_c, 0, 64, 93
1, 82226, Note_off_c, 0, 65, 58
1, 82235, Control_c, 0, 64, 91
1, 82244, Note_off_c, 0, 74, 64
1, 82245, Note_on_c, 0, 64, 67
1, 82250, Control_c, 0, 64, 80
1, 82253, Note_on_c, 0, 72, 57
1, 82264, Control_c, 0, 64, 69
1, 82279, Control_c, 0, 64, 62
1, 82294, Control_c, 0, 64, 59
1, 82299, Note_off_c, 0, 72, 63
1, 82303, Note_on_c, 0, 74, 56
1, 82309, Control_c, 0, 64, 61
1, 82323, Control_c, 0, 64, 65
1, 82338, Control_c, 0, 64, 70
1, 82338, Control_c, 0, 67, 18
1, 82339, Note_off_c, 0, 74, 62
1, 82353, Control_c, 0, 64, 75
1, 82366, Note_on_c, 0, 72, 68
1, 82367, Control_c, 0, 64, 79
1, 82382, Control_c, 0, 64, 81
1, 82382, Control_c, 0, 67, 18
1, 82397, Control_c, 0, 64, 83
1, 82406, Note_off_c, 0, 64, 59
1, 82407, Note_off_c, 0, 72, 58
1, 82412, Control_c, 0, 64, 85
1, 82418, Note_on_c, 0, 62, 73
1, 82423, Note_on_c, 0, 77, 73
1, 82427, Control_c, 0, 64, 88
1, 82427, Control_c, 0, 67, 17
1, 82441, Control_c, 0, 64, 91
1, 82456, Control_c, 0, 64, 92
1, 82471, Control_c, 0, 64, 91
1, 82475, Note_off_c, 0, 77, 58
1, 82486, Control_c, 0, 64, 83
1, 82497, Note_on_c, 0, 76, 66
1, 82501, Control_c, 0, 64, 71
1, 82504, Note_on_c, 0, 60, 79
1, 82515, Control_c, 0, 64, 61
1, 82528, Note_off_c, 0, 62, 62
1, 82530, Control_c, 0, 64, 49
1, 82541, Note_off_c, 0, 76, 61
1, 82545, Note_on_c, 0, 77, 57
1, 82545, Control_c, 0, 64, 39
1, 82560, Control_c, 0, 64, 37
1, 82575, Control_c, 0, 64, 42
1, 82582, Note_off_c, 0, 77, 66
1, 82589, Control_c, 0, 64, 53
1, 82604, Control_c, 0, 64, 61
1, 82612, Note_on_c, 0, 76, 65
1, 82619, Control_c, 0, 64, 67
1, 82633, Control_c, 0, 64, 75
1, 82647, Note_off_c, 0, 76, 63
1, 82648, Control_c, 0, 64, 81
1, 82648, Control_c, 0, 67, 18
1, 82663, Control_c, 0, 64, 86
1, 82666, Note_on_c, 0, 86, 72
1, 82678, Control_c, 0, 64, 90
1, 82689, Note_off_c, 0, 60, 62
1, 82693, Control_c, 0, 64, 92
1, 82707, Control_c, 0, 64, 94
1, 82715, Note_off_c, 0, 86, 63
1, 82722, Control_c, 0, 64, 97
1, 82737, Control_c, 0, 64, 100
1, 82737, Control_c, 0, 67, 18
1, 82743, Note_off_c, 0, 58, 62
1, 82746, Note_on_c, 0, 84, 74
1, 82752, Control_c, 0, 64, 102
1, 82752, Control_c, 0, 67, 19
1, 82753, Note_on_c, 0, 60, 65
1, 82775, Control_c, 0, 64, 105
1, 82790, Control_c, 0, 64, 109
1, 82790, Control_c, 0, 67, 19
1, 82799, Note_off_c, 0, 84, 60
1, 82805, Control_c, 0, 64, 115
1, 82805, Control_c, 0, 67, 20
1, 82820, Control_c, 0, 64, 127
1, 82820, Control_c, 0, 67, 20
1, 82828, Note_on_c, 0, 86, 69
1, 82838, Note_off_c, 0, 53, 61
1, 82847, Note_off_c, 0, 86, 67
1, 82850, Control_c, 0, 67, 21
1, 82884, Note_on_c, 0, 84, 71
1, 82910, Note_off_c, 0, 84, 66
1, 82950, Note_on_c, 0, 98, 72
1, 83029, Note_off_c, 0, 98, 61
1, 83042, Control_c, 0, 64, 100
1, 83042, Control_c, 0, 67, 22
1, 83048, Note_on_c, 0, 62, 59
1, 83053, Note_on_c, 0, 96, 57
1, 83057, Control_c, 0, 64, 78
1, 83057, Control_c, 0, 67, 23
1, 83059, Note_on_c, 0, 53, 42
1, 83060, Note_on_c, 0, 57, 46
1, 83071, Control_c, 0, 64, 64
1, 83071, Control_c, 0, 67, 23
1, 83081, Note_off_c, 0, 60, 59
1, 83086, Control_c, 0, 64, 52
1, 83086, Control_c, 0, 67, 24
1, 83101, Control_c, 0, 64, 42
1, 83103, Note_off_c, 0, 96, 57
1, 83116, Control_c, 0, 64, 37
1, 83131, Control_c, 0, 64, 39
1, 83131, Control_c, 0, 67, 24
1, 83136, Note_on_c, 0, 98, 63
1, 83145, Control_c, 0, 64, 47
1, 83145, Control_c, 0, 67, 25
1, 83160, Control_c, 0, 64, 53
1, 83160, Control_c, 0, 67, 26
1, 83175, Control_c, 0, 64, 58
1, 83175, Control_c, 0, 67, 26
1, 83181, Note_off_c, 0, 98, 61
1, 83190, Control_c, 0, 64, 61
1, 83192, Note_on_c, 0, 96, 73
1, 83205, Control_c, 0, 64, 62
1, 83205, Control_c, 0, 67, 27
1, 83220, Control_c, 0, 64, 62
1, 83220, Control_c, 0, 67, 28
1, 83235, Control_c, 0, 64, 63
1, 83235, Control_c, 0, 67, 29
1, 83250, Control_c, 0, 64, 64
1, 83250, Control_c, 0, 67, 29
1, 83254, Note_on_c, 0, 91, 64
1, 83264, Control_c, 0, 64, 65
1, 83266, Note_off_c, 0, 96, 64
1, 83279, Control_c, 0, 64, 65
1, 83279, Control_c, 0, 67, 30
1, 83294, Control_c, 0, 67, 30
1, 83306, Note_off_c, 0, 91, 63
1, 83309, Control_c, 0, 67, 31
1, 83329, Note_on_c, 0, 60, 45
1, 83333, Note_off_c, 0, 62, 61
1, 83335, Note_on_c, 0, 89, 44
1, 83338, Control_c, 0, 64, 67
1, 83353, Control_c, 0, 64, 70
1, 83360, Note_off_c, 0, 89, 54
1, 83368, Control_c, 0, 64, 73
1, 83383, Control_c, 0, 64, 76
1, 83383, Control_c, 0, 67, 30
1, 83390, Note_on_c, 0, 91, 69
1, 83398, Control_c, 0, 64, 79
1, 83412, Control_c, 0, 64, 80
1, 83427, Control_c, 0, 64, 81
1, 83427, Control_c, 0, 67, 30
1, 83434, Note_on_c, 0, 89, 66
1, 83442, Control_c, 0, 64, 83
1, 83442, Control_c, 0, 67, 29
1, 83455, Note_off_c, 0, 91, 62
1, 83456, Control_c, 0, 64, 85
1, 83471, Control_c, 0, 64, 88
1, 83486, Control_c, 0, 64, 90
1, 83501, Control_c, 0, 64, 91
1, 83501, Control_c, 0, 67, 29
1, 83518, Note_on_c, 0, 86, 61
1, 83524, Control_c, 0, 64, 92
1, 83539, Control_c, 0, 64, 93
1, 83547, Note_off_c, 0, 89, 63
1, 83553, Control_c, 0, 64, 95
1, 83568, Control_c, 0, 64, 98
1, 83576, Note_off_c, 0, 86, 64
1, 83583, Control_c, 0, 64, 102
1, 83584, Note_on_c, 0, 84, 60
1, 83598, Control_c, 0, 64, 104
1, 83603, Note_off_c, 0, 84, 66
1, 83613, Control_c, 0, 64, 105
1, 83645, Note_on_c, 0, 86, 66
1, 83698, Note_on_c, 0, 84, 51
1, 83714, Note_off_c, 0, 86, 60
1, 83765, Note_on_c, 0, 79, 50
1, 83792, Note_off_c, 0, 84, 65
1, 83821, Control_c, 0, 67, 28
1, 83826, Note_on_c, 0, 65, 65
1, 83832, Note_on_c, 0, 77, 53
1, 83834, Note_off_c, 0, 79, 46
1, 83835, Note_off_c, 0, 57, 61
1, 83835, Control_c, 0, 67, 28
1, 83850, Note_off_c, 0, 60, 60
1, 83853, Note_off_c, 0, 77, 63
1, 83868, Note_off_c, 0, 53, 41
1, 83894, Control_c, 0, 67, 27
1, 83909, Control_c, 0, 67, 27
1, 83941, Note_on_c, 0, 79, 24
1, 83953, Note_on_c, 0, 77, 57
1, 83968, Control_c, 0, 67, 26
1, 83977, Note_off_c, 0, 79, 43
1, 84005, Note_on_c, 0, 74, 53
1, 84023, Note_off_c, 0, 77, 64
1, 84028, Control_c, 0, 64, 104
1, 84042, Control_c, 0, 64, 95
1, 84057, Control_c, 0, 64, 83
1, 84060, Note_on_c, 0, 53, 38
1, 84063, Note_on_c, 0, 55, 57
1, 84063, Note_off_c, 0, 74, 64
1, 84072, Control_c, 0, 64, 71
1, 84074, Note_on_c, 0, 58, 57
1, 84075, Note_on_c, 0, 72, 66
1, 84087, Control_c, 0, 64, 63
1, 84087, Control_c, 0, 67, 26
1, 84102, Control_c, 0, 64, 57
1, 84102, Control_c, 0, 67, 25
1, 84117, Control_c, 0, 64, 56
1, 84117, Note_off_c, 0, 72, 60
1, 84132, Control_c, 0, 64, 58
1, 84132, Control_c, 0, 67, 25
1, 84133, Note_on_c, 0, 74, 51
1, 84147, Control_c, 0, 64, 63
1, 84159, Note_off_c, 0, 65, 35
1, 84161, Control_c, 0, 64, 66
1, 84172, Note_off_c, 0, 55, 63
1, 84176, Control_c, 0, 64, 68
1, 84176, Control_c, 0, 67, 24
1, 84177, Note_off_c, 0, 74, 63
1, 84191, Control_c, 0, 64, 71
1, 84205, Control_c, 0, 64, 74
1, 84206, Note_on_c, 0, 72, 62
1, 84220, Control_c, 0, 64, 77
1, 84234, Note_off_c, 0, 72, 55
1, 84235, Control_c, 0, 64, 83
1, 84250, Control_c, 0, 64, 87
1, 84272, Control_c, 0, 64, 90
1, 84281, Note_on_c, 0, 77, 47
1, 84287, Control_c, 0, 64, 92
1, 84287, Control_c, 0, 67, 24
1, 84302, Control_c, 0, 64, 93
1, 84317, Note_off_c, 0, 77, 62
1, 84317, Control_c, 0, 64, 94
1, 84332, Control_c, 0, 64, 97
1, 84335, Note_on_c, 0, 64, 63
1, 84337, Note_on_c, 0, 76, 52
1, 84347, Control_c, 0, 64, 99
1, 84361, Control_c, 0, 64, 102
1, 84376, Control_c, 0, 64, 103
1, 84383, Note_off_c, 0, 76, 60
1, 84403, Note_on_c, 0, 77, 67
1, 84406, Control_c, 0, 64, 101
1, 84421, Control_c, 0, 64, 92
1, 84436, Note_off_c, 0, 77, 66
1, 84436, Control_c, 0, 64, 82
1, 84436, Control_c, 0, 67, 24
1, 84451, Control_c, 0, 64, 72
1, 84466, Control_c, 0, 64, 68
1, 84466, Control_c, 0, 67, 25
1, 84468, Note_on_c, 0, 76, 70
1, 84481, Control_c, 0, 64, 67
1, 84481, Control_c, 0, 67, 25
1, 84510, Control_c, 0, 64, 68
1, 84510, Control_c, 0, 67, 26
1, 84516, Note_off_c, 0, 76, 56
1, 84525, Control_c, 0, 64, 70
1, 84525, Control_c, 0, 67, 27
1, 84530, Note_on_c, 0, 62, 62
1, 84534, Note_on_c, 0, 86, 60
1, 84540, Control_c, 0, 64, 72
1, 84540, Control_c, 0, 67, 27
1, 84555, Control_c, 0, 64, 70
1, 84555, Control_c, 0, 67, 28
1, 84570, Control_c, 0, 64, 63
1, 84570, Control_c, 0, 67, 28
1, 84584, Control_c, 0, 64, 54
1, 84599, Control_c, 0, 64, 46
1, 84610, Note_off_c, 0, 86, 64
1, 84624, Note_on_c, 0, 84, 62
1, 84625, Note_on_c, 0, 60, 72
1, 84626, Note_off_c, 0, 64, 56
1, 84629, Control_c, 0, 64, 53
1, 84629, Control_c, 0, 67, 28
1, 84644, Control_c, 0, 64, 61
1, 84658, Control_c, 0, 64, 66
1, 84658, Control_c, 0, 67, 27
1, 84663, Note_off_c, 0, 62, 62
1, 84673, Control_c, 0, 64, 70
1, 84685, Note_off_c, 0, 84, 63
1, 84688, Control_c, 0, 64, 72
1, 84696, Note_on_c, 0, 86, 66
1, 84703, Control_c, 0, 64, 74
1, 84717, Control_c, 0, 64, 76
1, 84728, Note_off_c, 0, 86, 66
1, 84732, Control_c, 0, 64, 80
1, 84737, Note_off_c, 0, 58, 30
1, 84747, Control_c, 0, 64, 84
1, 84747, Control_c, 0, 67, 27
1, 84758, Note_on_c, 0, 84, 64
1, 84758, Note_off_c, 0, 60, 62
1, 84762, Control_c, 0, 64, 85
1, 84798, Note_off_c, 0, 84, 61
1, 84815, Note_on_c, 0, 89, 69
1, 84835, Control_c, 0, 64, 86
1, 84850, Control_c, 0, 64, 87
1, 84859, Note_off_c, 0, 89, 55
1, 84883, Note_on_c, 0, 60, 65
1, 84890, Note_on_c, 0, 88, 64
1, 84895, Control_c, 0, 64, 88
1, 84895, Control_c, 0, 67, 27
1, 84910, Control_c, 0, 64, 89
1, 84925, Control_c, 0, 64, 91
1, 84925, Note_off_c, 0, 88, 67
1, 84940, Control_c, 0, 64, 93
1, 84940, Control_c, 0, 67, 28
1, 84943, Note_on_c, 0, 89, 66
1, 84955, Control_c, 0, 64, 95
1, 84955, Control_c, 0, 67, 28
1, 84970, Control_c, 0, 64, 97
1, 84972, Note_off_c, 0, 89, 67
1, 84984, Control_c, 0, 64, 98
1, 84995, Note_off_c, 0, 53, 41
1, 84999, Control_c, 0, 64, 100
1, 85002, Note_on_c, 0, 88, 71
1, 85021, Control_c, 0, 64, 102
1, 85035, Control_c, 0, 64, 104
1, 85035, Control_c, 0, 67, 29
1, 85049, Note_off_c, 0, 88, 60
1, 85050, Control_c, 0, 64, 106
1, 85065, Control_c, 0, 64, 108
1, 85071, Note_on_c, 0, 98, 56
1, 85080, Control_c, 0, 64, 109
1, 85095, Control_c, 0, 64, 110
1, 85095, Control_c, 0, 67, 29
1, 85125, Control_c, 0, 64, 109
1, 85125, Control_c, 0, 67, 30
1, 85125, Note_off_c, 0, 98, 42
1, 85139, Control_c, 0, 64, 97
1, 85139, Control_c, 0, 67, 30
1, 85151, Note_on_c, 0, 96, 42
1, 85154, Control_c, 0, 64, 79
1, 85154, Control_c, 0, 67, 31
1, 85167, Note_on_c, 0, 53, 44
1, 85168, Note_off_c, 0, 60, 60
1, 85169, Control_c, 0, 64, 68
1, 85170, Note_on_c, 0, 62, 57
1, 85177, Note_on_c, 0, 57, 49
1, 85185, Control_c, 0, 64, 61
1, 85200, Control_c, 0, 64, 57
1, 85214, Control_c, 0, 64, 57
1, 85228, Note_off_c, 0, 96, 65
1, 85229, Note_on_c, 0, 98, 72
1, 85229, Control_c, 0, 64, 60
1, 85229, Control_c, 0, 67, 30
1, 85232, Note_off_c, 0, 62, 0
1, 85232, Note_on_c, 0, 62, 28
1, 85244, Control_c, 0, 64, 64
1, 85259, Control_c, 0, 64, 68
1, 85274, Control_c, 0, 64, 74
1, 85288, Control_c, 0, 64, 79
1, 85288, Control_c, 0, 67, 30
1, 85299, Note_off_c, 0, 98, 61
1, 85300, Note_on_c, 0, 96, 62
1, 85303, Control_c, 0, 64, 84
1, 85318, Control_c, 0, 64, 89
1, 85318, Control_c, 0, 67, 30
1, 85333, Control_c, 0, 64, 90
1, 85333, Control_c, 0, 67, 31
1, 85348, Control_c, 0, 64, 87
1, 85348, Control_c, 0, 67, 32
1, 85361, Note_on_c, 0, 91, 63
1, 85363, Control_c, 0, 64, 78
1, 85378, Control_c, 0, 64, 70
1, 85378, Control_c, 0, 67, 33
1, 85379, Note_off_c, 0, 96, 65
1, 85393, Control_c, 0, 64, 65
1, 85393, Control_c, 0, 67, 36
1, 85408, Control_c, 0, 64, 63
1, 85408, Control_c, 0, 67, 39
1, 85415, Note_off_c, 0, 91, 64
1, 85423, Control_c, 0, 64, 64
1, 85423, Control_c, 0, 67, 41
1, 85426, Note_on_c, 0, 60, 52
1, 85428, Note_off_c, 0, 62, 57
1, 85438, Control_c, 0, 64, 68
1, 85438, Note_on_c, 0, 89, 56
1, 85452, Control_c, 0, 64, 73
1, 85452, Control_c, 0, 67, 40
1, 85464, Note_off_c, 0, 89, 67
1, 85467, Control_c, 0, 64, 80
1, 85482, Control_c, 0, 64, 87
1, 85497, Control_c, 0, 64, 92
1, 85497, Control_c, 0, 67, 40
1, 85502, Note_on_c, 0, 91, 74
1, 85512, Control_c, 0, 64, 96
1, 85512, Control_c, 0, 67, 39
1, 85527, Control_c, 0, 64, 98
1, 85527, Control_c, 0, 67, 39
1, 85541, Control_c, 0, 64, 98
1, 85541, Control_c, 0, 67, 38
1, 85551, Note_on_c, 0, 89, 73
1, 85556, Control_c, 0, 64, 100
1, 85560, Note_off_c, 0, 91, 58
1, 85571, Control_c, 0, 64, 103
1, 85586, Control_c, 0, 64, 106
1, 85601, Control_c, 0, 64, 107
1, 85601, Control_c, 0, 67, 38
1, 85606, Note_off_c, 0, 53, 29
1, 85626, Note_on_c, 0, 86, 49
1, 85643, Note_off_c, 0, 89, 60
1, 85645, Control_c, 0, 64, 103
1, 85659, Control_c, 0, 64, 89
1, 85674, Control_c, 0, 64, 73
1, 85684, Note_off_c, 0, 86, 64
1, 85689, Control_c, 0, 64, 62
1, 85698, Note_on_c, 0, 84, 42
1, 85699, Note_on_c, 0, 69, 71
1, 85704, Control_c, 0, 64, 56
1, 85719, Control_c, 0, 64, 56
1, 85719, Control_c, 0, 67, 38
1, 85724, Note_off_c, 0, 84, 62
1, 85733, Control_c, 0, 64, 60
1, 85748, Control_c, 0, 64, 65
1, 85770, Note_on_c, 0, 86, 64
1, 85771, Control_c, 0, 64, 69
1, 85786, Control_c, 0, 64, 73
1, 85786, Control_c, 0, 67, 39
1, 85801, Control_c, 0, 64, 74
1, 85801, Control_c, 0, 67, 39
1, 85810, Note_off_c, 0, 69, 60
1, 85815, Control_c, 0, 64, 75
1, 85815, Control_c, 0, 67, 40
1, 85819, Note_on_c, 0, 84, 68
1, 85830, Control_c, 0, 64, 76
1, 85833, Note_off_c, 0, 86, 63
1, 85845, Control_c, 0, 64, 78
1, 85856, Note_off_c, 0, 57, 31
1, 85859, Control_c, 0, 64, 82
1, 85874, Control_c, 0, 64, 88
1, 85888, Note_on_c, 0, 79, 64
1, 85889, Control_c, 0, 64, 95
1, 85904, Control_c, 0, 64, 101
1, 85911, Note_off_c, 0, 84, 65
1, 85933, Control_c, 0, 64, 96
1, 85933, Control_c, 0, 67, 40
1, 85941, Note_off_c, 0, 79, 65
1, 85948, Control_c, 0, 64, 80
1, 85953, Note_on_c, 0, 67, 71
1, 85960, Note_on_c, 0, 77, 64
1, 85963, Control_c, 0, 64, 69
1, 85973, Note_off_c, 0, 60, 36
1, 85974, Note_on_c, 0, 58, 53
1, 85977, Note_off_c, 0, 77, 65
1, 85978, Control_c, 0, 64, 63
1, 85992, Note_off_c, 0, 67, 61
1, 85994, Control_c, 0, 64, 61
1, 86009, Control_c, 0, 64, 62
1, 86024, Control_c, 0, 64, 65
1, 86029, Note_on_c, 0, 79, 66
1, 86038, Control_c, 0, 64, 69
1, 86040, Note_off_c, 0, 58, 54
1, 86053, Control_c, 0, 64, 76
1, 86061, Note_on_c, 0, 77, 54
1, 86064, Note_off_c, 0, 79, 62
1, 86068, Control_c, 0, 64, 82
1, 86077, Note_on_c, 0, 57, 67
1, 86081, Note_on_c, 0, 65, 72
1, 86082, Control_c, 0, 64, 84
1, 86097, Control_c, 0, 64, 82
1, 86108, Note_off_c, 0, 57, 63
1, 86108, Note_off_c, 0, 65, 66
1, 86112, Control_c, 0, 64, 74
1, 86120, Note_on_c, 0, 74, 62
1, 86127, Control_c, 0, 64, 64
1, 86132, Note_off_c, 0, 77, 65
1, 86142, Control_c, 0, 64, 56
1, 86156, Control_c, 0, 64, 50
1, 86160, Note_off_c, 0, 74, 65
1, 86171, Control_c, 0, 64, 48
1, 86171, Control_c, 0, 67, 41
1, 86182, Note_on_c, 0, 65, 61
1, 86186, Control_c, 0, 64, 50
1, 86189, Note_on_c, 0, 72, 68
1, 86201, Control_c, 0, 64, 55
1, 86213, Note_on_c, 0, 55, 57
1, 86216, Control_c, 0, 64, 60
1, 86216, Control_c, 0, 67, 41
1, 86224, Note_on_c, 0, 53, 43
1, 86230, Note_off_c, 0, 72, 57
1, 86231, Control_c, 0, 64, 63
1, 86236, Note_on_c, 0, 58, 46
1, 86245, Control_c, 0, 64, 66
1, 86245, Control_c, 0, 67, 42
1, 86260, Control_c, 0, 64, 68
1, 86260, Control_c, 0, 67, 41
1, 86269, Note_on_c, 0, 75, 66
1, 86275, Control_c, 0, 64, 71
1, 86290, Control_c, 0, 64, 73
1, 86305, Control_c, 0, 64, 74
1, 86308, Note_off_c, 0, 65, 62
1, 86308, Note_off_c, 0, 75, 58
1, 86313, Note_on_c, 0, 77, 62
1, 86320, Control_c, 0, 64, 75
1, 86322, Note_off_c, 0, 55, 58
1, 86335, Control_c, 0, 64, 76
1, 86350, Control_c, 0, 64, 77
1, 86354, Note_off_c, 0, 77, 62
1, 86364, Control_c, 0, 64, 78
1, 86379, Control_c, 0, 64, 81
1, 86382, Note_on_c, 0, 76, 62
1, 86394, Control_c, 0, 64, 82
1, 86394, Control_c, 0, 67, 41
1, 86409, Control_c, 0, 64, 83
1, 86421, Note_off_c, 0, 76, 60
1, 86424, Control_c, 0, 64, 84
1, 86424, Control_c, 0, 67, 40
1, 86438, Control_c, 0, 64, 84
1, 86439, Note_on_c, 0, 78, 67
1, 86448, Note_off_c, 0, 58, 49
1, 86453, Control_c, 0, 64, 82
1, 86457, Note_on_c, 0, 64, 58
1, 86468, Control_c, 0, 64, 74
1, 86468, Control_c, 0, 67, 41
1, 86482, Control_c, 0, 64, 64
1, 86497, Control_c, 0, 64, 57
1, 86516, Note_off_c, 0, 78, 63
1, 86520, Note_on_c, 0, 81, 58
1, 86520, Control_c, 0, 64, 53
1, 86534, Control_c, 0, 64, 53
1, 86549, Note_off_c, 0, 81, 65
1, 86549, Control_c, 0, 64, 57
1, 86564, Control_c, 0, 64, 61
1, 86578, Note_on_c, 0, 79, 71
1, 86579, Control_c, 0, 64, 63
1, 86594, Control_c, 0, 64, 65
1, 86608, Control_c, 0, 64, 67
1, 86612, Note_off_c, 0, 79, 61
1, 86623, Control_c, 0, 64, 68
1, 86634, Note_on_c, 0, 83, 66
1, 86638, Control_c, 0, 64, 70
1, 86653, Control_c, 0, 64, 71
1, 86653, Control_c, 0, 67, 41
1, 86663, Note_on_c, 0, 62, 53
1, 86668, Control_c, 0, 64, 69
1, 86668, Control_c, 0, 67, 43
1, 86680, Poly_aftertouch_c, 0, 58, 127
1, 86682, Control_c, 0, 64, 65
1, 86682, Control_c, 0, 67, 45
1, 86689, Note_off_c, 0, 83, 66
1, 86696, Note_on_c, 0, 86, 65
1, 86697, Control_c, 0, 64, 60
1, 86697, Control_c, 0, 67, 48
1, 86712, Control_c, 0, 64, 57
1, 86712, Control_c, 0, 67, 51
1, 86714, Note_off_c, 0, 62, 62
1, 86719, Note_off_c, 0, 64, 42
1, 86722, Note_on_c, 0, 60, 66
1, 86727, Control_c, 0, 64, 58
1, 86727, Control_c, 0, 67, 52
1, 86739, Note_off_c, 0, 86, 63
1, 86742, Control_c, 0, 64, 60
1, 86742, Control_c, 0, 67, 53
1, 86756, Control_c, 0, 64, 64
1, 86762, Note_on_c, 0, 84, 69
1, 86771, Control_c, 0, 64, 67
1, 86783, Note_off_c, 0, 60, 58
1, 86784, Poly_aftertouch_c, 0, 58, 0
1, 86787, Control_c, 0, 64, 70
1, 86802, Control_c, 0, 64, 71
1, 86802, Control_c, 0, 67, 52
1, 86806, Note_off_c, 0, 84, 57
1, 86817, Control_c, 0, 64, 72
1, 86817, Control_c, 0, 67, 52
1, 86823, Note_on_c, 0, 87, 67
1, 86832, Control_c, 0, 64, 74
1, 86832, Control_c, 0, 67, 51
1, 86847, Control_c, 0, 64, 75
1, 86847, Control_c, 0, 67, 51
1, 86860, Control_c, 0, 64, 76
1, 86873, Note_off_c, 0, 87, 64
1, 86880, Note_on_c, 0, 89, 64
1, 86890, Control_c, 0, 64, 75
1, 86904, Note_on_c, 0, 60, 63
1, 86909, Note_off_c, 0, 53, 59
1, 86916, Note_off_c, 0, 89, 65
1, 86937, Note_on_c, 0, 88, 65
1, 86951, Note_off_c, 0, 60, 59
1, 86972, Note_off_c, 0, 88, 63
1, 86979, Control_c, 0, 64, 76
1, 86989, Note_on_c, 0, 90, 62
1, 86991, Note_on_c, 0, 53, 54
1, 86994, Control_c, 0, 64, 75
1, 86994, Control_c, 0, 67, 50
1, 87008, Control_c, 0, 64, 72
1, 87023, Control_c, 0, 64, 65
1, 87038, Control_c, 0, 64, 59
1, 87041, Note_off_c, 0, 90, 65
1, 87047, Note_off_c, 0, 53, 57
1, 87047, Note_on_c, 0, 93, 61
1, 87053, Control_c, 0, 64, 56
1, 87068, Control_c, 0, 67, 50
1, 87077, Note_on_c, 0, 60, 39
1, 87083, Control_c, 0, 64, 57
1, 87083, Control_c, 0, 67, 49
1, 87083, Note_off_c, 0, 93, 65
1, 87098, Control_c, 0, 64, 58
1, 87098, Control_c, 0, 67, 48
1, 87104, Note_on_c, 0, 91, 67
1, 87112, Control_c, 0, 64, 60
1, 87127, Control_c, 0, 64, 62
1, 87128, Note_off_c, 0, 60, 0
1, 87128, Note_on_c, 0, 60, 12
1, 87142, Control_c, 0, 64, 63
1, 87157, Control_c, 0, 64, 65
1, 87167, Note_on_c, 0, 64, 62
1, 87167, Note_off_c, 0, 91, 59
1, 87172, Control_c, 0, 64, 65
1, 87181, Note_on_c, 0, 94, 66
1, 87186, Control_c, 0, 64, 65
1, 87201, Control_c, 0, 64, 62
1, 87201, Control_c, 0, 67, 49
1, 87216, Note_off_c, 0, 94, 49
1, 87216, Control_c, 0, 64, 56
1, 87226, Note_on_c, 0, 70, 46
1, 87230, Control_c, 0, 64, 51
1, 87245, Control_c, 0, 64, 50
1, 87249, Note_on_c, 0, 90, 65
1, 87268, Control_c, 0, 64, 50
1, 87283, Control_c, 0, 64, 52
1, 87286, Note_off_c, 0, 90, 67
1, 87298, Control_c, 0, 64, 55
1, 87312, Control_c, 0, 64, 58
1, 87327, Control_c, 0, 64, 60
1, 87340, Note_on_c, 0, 91, 44
1, 87342, Control_c, 0, 64, 61
1, 87342, Control_c, 0, 67, 48
1, 87357, Control_c, 0, 64, 62
1, 87366, Note_off_c, 0, 91, 56
1, 87372, Control_c, 0, 64, 62
1, 87375, Note_on_c, 0, 98, 66
1, 87386, Control_c, 0, 64, 63
1, 87401, Control_c, 0, 64, 63
1, 87431, Note_off_c, 0, 98, 62
1, 87432, Note_on_c, 0, 96, 67
1, 87445, Control_c, 0, 64, 64
1, 87460, Control_c, 0, 64, 65
1, 87475, Control_c, 0, 64, 66
1, 87479, Note_on_c, 0, 93, 64
1, 87490, Control_c, 0, 64, 66
1, 87491, Note_off_c, 0, 96, 64
1, 87505, Control_c, 0, 64, 67
1, 87519, Control_c, 0, 64, 67
1, 87534, Control_c, 0, 67, 48
1, 87539, Note_off_c, 0, 93, 64
1, 87549, Control_c, 0, 67, 47
1, 87571, Note_on_c, 0, 91, 42
1, 87580, Control_c, 0, 64, 67
1, 87590, Note_on_c, 0, 98, 62
1, 87595, Control_c, 0, 64, 66
1, 87595, Control_c, 0, 67, 47
1, 87602, Note_off_c, 0, 91, 52
1, 87609, Control_c, 0, 64, 64
1, 87624, Control_c, 0, 64, 62
1, 87639, Control_c, 0, 64, 59
1, 87646, Note_off_c, 0, 60, 51
1, 87650, Note_off_c, 0, 98, 63
1, 87655, Note_on_c, 0, 94, 73
1, 87660, Note_off_c, 0, 64, 53
1, 87668, Control_c, 0, 64, 61
1, 87675, Note_off_c, 0, 70, 52
1, 87683, Control_c, 0, 64, 63
1, 87683, Control_c, 0, 67, 46
1, 87698, Control_c, 0, 64, 64
1, 87698, Control_c, 0, 67, 46
1, 87713, Control_c, 0, 64, 63
1, 87718, Note_on_c, 0, 90, 61
1, 87727, Note_off_c, 0, 94, 62
1, 87727, Control_c, 0, 64, 60
1, 87727, Control_c, 0, 67, 45
1, 87742, Control_c, 0, 64, 57
1, 87742, Control_c, 0, 67, 44
1, 87749, Note_off_c, 0, 90, 66
1, 87757, Control_c, 0, 64, 55
1, 87757, Control_c, 0, 67, 42
1, 87772, Control_c, 0, 64, 54
1, 87772, Control_c, 0, 67, 41
1, 87780, Note_on_c, 0, 91, 73
1, 87787, Control_c, 0, 64, 53
1, 87787, Control_c, 0, 67, 40
1, 87801, Control_c, 0, 64, 52
1, 87801, Control_c, 0, 67, 40
1, 87810, Note_off_c, 0, 91, 64
1, 87816, Control_c, 0, 64, 52
1, 87816, Control_c, 0, 67, 39
1, 87831, Note_on_c, 0, 98, 62
1, 87831, Control_c, 0, 64, 51
1, 87831, Control_c, 0, 67, 38
1, 87846, Control_c, 0, 64, 51
1, 87846, Control_c, 0, 67, 34
1, 87861, Control_c, 0, 64, 49
1, 87861, Control_c, 0, 67, 30
1, 87876, Control_c, 0, 64, 47
1, 87876, Control_c, 0, 67, 27
1, 87879, Note_on_c, 0, 96, 66
1, 87891, Control_c, 0, 64, 44
1, 87895, Note_off_c, 0, 98, 50
1, 87906, Control_c, 0, 64, 42
1, 87906, Control_c, 0, 67, 28
1, 87917, Note_on_c, 0, 93, 72
1, 87921, Control_c, 0, 64, 39
1, 87921, Control_c, 0, 67, 30
1, 87935, Control_c, 0, 64, 37
1, 87935, Control_c, 0, 67, 32
1, 87936, Note_on_c, 0, 65, 57
1, 87938, Note_off_c, 0, 96, 64
1, 87950, Control_c, 0, 64, 37
1, 87950, Control_c, 0, 67, 33
1, 87965, Control_c, 0, 64, 38
1, 87965, Control_c, 0, 67, 34
1, 87976, Note_off_c, 0, 93, 64
1, 87980, Control_c, 0, 64, 42
1, 87980, Control_c, 0, 67, 35
1, 87981, Note_on_c, 0, 91, 62
1, 87995, Control_c, 0, 64, 48
1, 87995, Control_c, 0, 67, 37
1, 88008, Note_off_c, 0, 65, 59
1, 88016, Control_c, 0, 64, 53
1, 88016, Control_c, 0, 67, 38
1, 88025, Note_on_c, 0, 98, 65
1, 88026, Note_on_c, 0, 72, 57
1, 88031, Control_c, 0, 64, 57
1, 88031, Control_c, 0, 67, 41
1, 88039, Note_off_c, 0, 91, 59
1, 88046, Control_c, 0, 64, 60
1, 88046, Control_c, 0, 67, 45
1, 88061, Control_c, 0, 64, 63
1, 88061, Control_c, 0, 67, 51
1, 88076, Control_c, 0, 64, 65
1, 88076, Control_c, 0, 67, 56
1, 88080, Note_on_c, 0, 76, 46
1, 88091, Control_c, 0, 64, 67
1, 88091, Control_c, 0, 67, 59
1, 88105, Control_c, 0, 64, 70
1, 88105, Control_c, 0, 67, 61
1, 88114, Note_off_c, 0, 98, 64
1, 88120, Control_c, 0, 64, 74
1, 88120, Control_c, 0, 67, 62
1, 88132, Note_on_c, 0, 94, 65
1, 88135, Control_c, 0, 64, 76
1, 88135, Control_c, 0, 67, 63
1, 88144, Note_on_c, 0, 82, 59
1, 88150, Control_c, 0, 64, 78
1, 88150, Control_c, 0, 67, 65
1, 88165, Control_c, 0, 64, 80
1, 88165, Control_c, 0, 67, 68
1, 88179, Control_c, 0, 64, 81
1, 88179, Control_c, 0, 67, 69
1, 88194, Control_c, 0, 64, 82
1, 88201, Note_on_c, 0, 90, 52
1, 88207, Note_off_c, 0, 94, 64
1, 88209, Control_c, 0, 64, 83
1, 88209, Control_c, 0, 67, 69
1, 88218, Note_off_c, 0, 82, 45
1, 88240, Note_off_c, 0, 90, 66
1, 88266, Note_on_c, 0, 91, 61
1, 88304, Note_off_c, 0, 91, 63
1, 88319, Note_on_c, 0, 98, 67
1, 88327, Note_off_c, 0, 76, 32
1, 88372, Control_c, 0, 67, 68
1, 88379, Note_on_c, 0, 96, 72
1, 88382, Note_off_c, 0, 98, 59
1, 88408, Note_off_c, 0, 72, 34
1, 88427, Note_on_c, 0, 93, 62
1, 88432, Control_c, 0, 67, 68
1, 88446, Note_off_c, 0, 96, 61
1, 88447, Control_c, 0, 67, 67
1, 88490, Note_off_c, 0, 93, 64
1, 88505, Note_on_c, 0, 91, 63
1, 88521, Control_c, 0, 67, 67
1, 88530, Note_on_c, 0, 98, 56
1, 88542, Note_off_c, 0, 91, 56
1, 88565, Control_c, 0, 64, 82
1, 88580, Control_c, 0, 64, 78
1, 88580, Control_c, 0, 67, 66
1, 88595, Control_c, 0, 64, 69
1, 88606, Note_off_c, 0, 98, 64
1, 88610, Control_c, 0, 64, 59
1, 88615, Note_on_c, 0, 94, 68
1, 88624, Control_c, 0, 64, 49
1, 88639, Control_c, 0, 64, 42
1, 88654, Control_c, 0, 64, 44
1, 88669, Control_c, 0, 64, 52
1, 88669, Control_c, 0, 67, 66
1, 88684, Control_c, 0, 64, 57
1, 88686, Note_on_c, 0, 90, 51
1, 88693, Note_off_c, 0, 94, 61
1, 88699, Control_c, 0, 64, 62
1, 88714, Control_c, 0, 64, 64
1, 88728, Control_c, 0, 64, 65
1, 88729, Note_off_c, 0, 90, 66
1, 88743, Note_on_c, 0, 91, 71
1, 88743, Control_c, 0, 64, 65
1, 88743, Control_c, 0, 67, 66
1, 88765, Control_c, 0, 64, 67
1, 88780, Control_c, 0, 64, 69
1, 88795, Control_c, 0, 64, 71
1, 88803, Note_off_c, 0, 91, 63
1, 88809, Note_on_c, 0, 98, 68
1, 88810, Control_c, 0, 64, 74
1, 88825, Control_c, 0, 64, 76
1, 88839, Control_c, 0, 64, 78
1, 88869, Note_on_c, 0, 96, 68
1, 88882, Note_off_c, 0, 98, 54
1, 88883, Control_c, 0, 67, 67
1, 88898, Control_c, 0, 64, 78
1, 88927, Note_on_c, 0, 93, 61
1, 88947, Note_off_c, 0, 96, 65
1, 88987, Note_off_c, 0, 93, 65
1, 88988, Control_c, 0, 67, 67
1, 89002, Control_c, 0, 64, 79
1, 89002, Control_c, 0, 67, 68
1, 89004, Note_on_c, 0, 91, 59
1, 89017, Control_c, 0, 67, 69
1, 89032, Control_c, 0, 67, 70
1, 89047, Note_off_c, 0, 91, 62
1, 89047, Control_c, 0, 67, 70
1, 89047, Note_on_c, 0, 98, 63
1, 89062, Control_c, 0, 64, 79
1, 89062, Control_c, 0, 67, 71
1, 89076, Control_c, 0, 67, 71
1, 89091, Control_c, 0, 64, 80
1, 89091, Control_c, 0, 67, 72
1, 89104, Note_off_c, 0, 98, 58
1, 89107, Control_c, 0, 64, 80
1, 89107, Control_c, 0, 67, 76
1, 89107, Note_on_c, 0, 96, 61
1, 89122, Control_c, 0, 64, 81
1, 89122, Control_c, 0, 67, 81
1, 89137, Control_c, 0, 64, 82
1, 89137, Control_c, 0, 67, 85
1, 89151, Control_c, 0, 64, 83
1, 89151, Control_c, 0, 67, 89
1, 89164, Note_on_c, 0, 93, 63
1, 89166, Control_c, 0, 64, 84
1, 89166, Control_c, 0, 67, 89
1, 89182, Control_c, 0, 64, 84
1, 89182, Control_c, 0, 67, 89
1, 89187, Note_off_c, 0, 96, 64
1, 89196, Control_c, 0, 64, 85
1, 89196, Control_c, 0, 67, 88
1, 89211, Control_c, 0, 64, 86
1, 89223, Note_off_c, 0, 93, 62
1, 89226, Control_c, 0, 64, 86
1, 89241, Control_c, 0, 64, 87
1, 89244, Note_on_c, 0, 91, 61
1, 89256, Control_c, 0, 64, 88
1, 89271, Control_c, 0, 64, 88
1, 89283, Note_off_c, 0, 91, 60
1, 89286, Control_c, 0, 64, 89
1, 89295, Note_on_c, 0, 98, 62
1, 89330, Control_c, 0, 64, 89
1, 89330, Control_c, 0, 67, 88
1, 89348, Note_on_c, 0, 96, 57
1, 89360, Control_c, 0, 64, 90
1, 89360, Control_c, 0, 67, 87
1, 89367, Note_off_c, 0, 98, 56
1, 89374, Control_c, 0, 64, 90
1, 89404, Control_c, 0, 67, 88
1, 89416, Note_on_c, 0, 93, 53
1, 89419, Control_c, 0, 64, 91
1, 89419, Control_c, 0, 67, 88
1, 89447, Note_off_c, 0, 96, 59
1, 89448, Control_c, 0, 67, 89
1, 89463, Control_c, 0, 67, 89
1, 89468, Note_off_c, 0, 93, 61
1, 89478, Control_c, 0, 67, 90
1, 89484, Note_on_c, 0, 91, 55
1, 89493, Control_c, 0, 64, 91
1, 89493, Control_c, 0, 67, 92
1, 89515, Control_c, 0, 64, 92
1, 89515, Control_c, 0, 67, 96
1, 89530, Control_c, 0, 67, 99
1, 89534, Note_off_c, 0, 91, 63
1, 89536, Note_on_c, 0, 98, 63
1, 89545, Control_c, 0, 64, 92
1, 89545, Control_c, 0, 67, 101
1, 89560, Control_c, 0, 64, 93
1, 89560, Control_c, 0, 67, 102
1, 89575, Control_c, 0, 64, 94
1, 89575, Control_c, 0, 67, 103
1, 89589, Control_c, 0, 64, 95
1, 89589, Control_c, 0, 67, 104
1, 89590, Note_on_c, 0, 96, 60
1, 89604, Control_c, 0, 64, 95
1, 89604, Control_c, 0, 67, 105
1, 89607, Note_off_c, 0, 98, 57
1, 89619, Control_c, 0, 64, 96
1, 89633, Control_c, 0, 67, 105
1, 89648, Control_c, 0, 64, 96
1, 89648, Control_c, 0, 67, 106
1, 89661, Note_on_c, 0, 93, 53
1, 89663, Control_c, 0, 67, 107
1, 89678, Control_c, 0, 67, 107
1, 89690, Note_off_c, 0, 96, 58
1, 89693, Control_c, 0, 67, 108
1, 89707, Control_c, 0, 64, 97
1, 89722, Control_c, 0, 64, 97
1, 89725, Note_off_c, 0, 93, 64
1, 89737, Control_c, 0, 64, 98
1, 89737, Control_c, 0, 67, 108
1, 89745, Note_on_c, 0, 91, 48
1, 89752, Control_c, 0, 64, 98
1, 89767, Control_c, 0, 64, 99
1, 89781, Control_c, 0, 64, 100
1, 89795, Note_off_c, 0, 91, 59
1, 89796, Control_c, 0, 64, 101
1, 89808, Note_on_c, 0, 98, 52
1, 89811, Control_c, 0, 64, 102
1, 89840, Control_c, 0, 64, 102
1, 89855, Control_c, 0, 64, 103
1, 89885, Control_c, 0, 64, 103
1, 89886, Note_on_c, 0, 96, 52
1, 89890, Note_off_c, 0, 98, 55
1, 89945, Control_c, 0, 67, 108
1, 89954, Note_off_c, 0, 96, 63
1, 89969, Note_on_c, 0, 91, 53
1, 89999, Note_on_c, 0, 65, 37
1, 90025, Note_off_c, 0, 91, 59
1, 90049, Control_c, 0, 67, 108
1, 90082, Note_on_c, 0, 93, 53
1, 90094, Control_c, 0, 67, 108
1, 90139, Note_off_c, 0, 93, 56
1, 90141, Note_on_c, 0, 72, 46
1, 90162, Note_on_c, 0, 91, 55
1, 90169, Note_off_c, 0, 65, 39
1, 90176, Note_off_c, 0, 72, 63
1, 90198, Control_c, 0, 67, 107
1, 90218, Note_off_c, 0, 91, 58
1, 90350, Note_on_c, 0, 81, 45
1, 90421, Note_off_c, 0, 81, 49
1, 90455, Note_on_c, 0, 89, 59
1, 90456, Control_c, 0, 67, 107
1, 90485, Note_off_c, 0, 89, 67
1, 90501, Control_c, 0, 67, 106
1, 90678, Control_c, 0, 64, 103
1, 90678, Control_c, 0, 67, 106
1, 90693, Control_c, 0, 64, 96
1, 90693, Control_c, 0, 67, 105
1, 90708, Control_c, 0, 64, 79
1, 90708, Control_c, 0, 67, 106
1, 90715, Note_on_c, 0, 89, 85
1, 90722, Control_c, 0, 64, 66
1, 90735, Note_on_c, 0, 77, 55
1, 90737, Control_c, 0, 64, 56
1, 90737, Control_c, 0, 67, 105
1, 90752, Control_c, 0, 64, 50
1, 90757, Note_off_c, 0, 77, 61
1, 90761, Note_off_c, 0, 89, 63
1, 90767, Control_c, 0, 64, 52
1, 90767, Control_c, 0, 67, 105
1, 90782, Control_c, 0, 64, 59
1, 90783, Note_on_c, 0, 94, 71
1, 90797, Control_c, 0, 64, 64
1, 90812, Control_c, 0, 64, 69
1, 90812, Control_c, 0, 67, 104
1, 90827, Control_c, 0, 64, 73
1, 90827, Control_c, 0, 67, 105
1, 90831, Note_off_c, 0, 94, 62
1, 90842, Control_c, 0, 64, 75
1, 90853, Note_on_c, 0, 93, 63
1, 90857, Control_c, 0, 64, 77
1, 90862, Note_on_c, 0, 81, 48
1, 90871, Control_c, 0, 64, 78
1, 90886, Control_c, 0, 64, 80
1, 90886, Control_c, 0, 67, 104
1, 90898, Note_off_c, 0, 93, 64
1, 90901, Control_c, 0, 64, 82
1, 90901, Control_c, 0, 67, 104
1, 90908, Note_off_c, 0, 81, 48
1, 90914, Note_on_c, 0, 86, 62
1, 90931, Control_c, 0, 64, 75
1, 90933, Note_on_c, 0, 74, 50
1, 90945, Control_c, 0, 64, 64
1, 90960, Control_c, 0, 64, 56
1, 90961, Note_off_c, 0, 86, 46
1, 90974, Note_on_c, 0, 84, 80
1, 90974, Note_off_c, 0, 74, 64
1, 90975, Control_c, 0, 64, 54
1, 90975, Control_c, 0, 67, 103
1, 90979, Note_on_c, 0, 72, 45
1, 90990, Control_c, 0, 64, 58
1, 90990, Control_c, 0, 67, 102
1, 91009, Note_off_c, 0, 84, 67
1, 91012, Control_c, 0, 64, 63
1, 91012, Control_c, 0, 67, 102
1, 91027, Control_c, 0, 64, 67
1, 91033, Note_off_c, 0, 72, 63
1, 91042, Control_c, 0, 64, 72
1, 91050, Note_on_c, 0, 79, 47
1, 91057, Control_c, 0, 64, 75
1, 91071, Control_c, 0, 64, 77
1, 91072, Note_on_c, 0, 91, 54
1, 91086, Control_c, 0, 64, 78
1, 91101, Control_c, 0, 64, 79
1, 91110, Note_off_c, 0, 91, 61
1, 91113, Note_on_c, 0, 89, 68
1, 91116, Control_c, 0, 64, 80
1, 91116, Control_c, 0, 67, 102
1, 91116, Note_off_c, 0, 79, 54
1, 91131, Control_c, 0, 64, 81
1, 91131, Control_c, 0, 67, 103
1, 91146, Control_c, 0, 64, 84
1, 91158, Note_on_c, 0, 70, 63
1, 91159, Note_off_c, 0, 89, 66
1, 91160, Control_c, 0, 64, 88
1, 91163, Poly_aftertouch_c, 0, 77, 0
1, 91175, Control_c, 0, 64, 88
1, 91186, Note_on_c, 0, 82, 61
1, 91190, Control_c, 0, 64, 78
1, 91205, Control_c, 0, 64, 65
1, 91220, Control_c, 0, 64, 56
1, 91220, Control_c, 0, 67, 102
1, 91220, Note_off_c, 0, 82, 64
1, 91231, Note_on_c, 0, 81, 64
1, 91234, Control_c, 0, 64, 53
1, 91243, Note_off_c, 0, 70, 60
1, 91248, Note_on_c, 0, 69, 54
1, 91249, Note_off_c, 0, 81, 67
1, 91249, Control_c, 0, 64, 57
1, 91249, Control_c, 0, 67, 101
1, 91264, Control_c, 0, 64, 63
1, 91264, Control_c, 0, 67, 101
1, 91271, Note_off_c, 0, 69, 63
1, 91278, Control_c, 0, 64, 68
1, 91278, Control_c, 0, 67, 100
1, 91283, Note_on_c, 0, 74, 47
1, 91293, Control_c, 0, 64, 71
1, 91293, Control_c, 0, 67, 100
1, 91299, Note_on_c, 0, 86, 64
1, 91308, Control_c, 0, 64, 73
1, 91323, Control_c, 0, 64, 74
1, 91328, Note_on_c, 0, 84, 60
1, 91334, Note_off_c, 0, 86, 59
1, 91336, Note_on_c, 0, 72, 52
1, 91336, Note_off_c, 0, 74, 59
1, 91352, Control_c, 0, 64, 74
1, 91363, Note_off_c, 0, 72, 53
1, 91367, Control_c, 0, 64, 76
1, 91382, Control_c, 0, 64, 80
1, 91382, Control_c, 0, 67, 99
1, 91387, Note_on_c, 0, 79, 74
1, 91388, Note_off_c, 0, 84, 65
1, 91396, Control_c, 0, 64, 83
1, 91411, Control_c, 0, 64, 82
1, 91411, Control_c, 0, 67, 99
1, 91426, Note_on_c, 0, 67, 48
1, 91426, Control_c, 0, 64, 74
1, 91426, Control_c, 0, 67, 98
1, 91434, Note_off_c, 0, 79, 63
1, 91441, Control_c, 0, 64, 63
1, 91445, Note_on_c, 0, 65, 68
1, 91456, Control_c, 0, 64, 54
1, 91462, Note_on_c, 0, 77, 78
1, 91466, Note_off_c, 0, 67, 48
1, 91471, Control_c, 0, 64, 54
1, 91471, Control_c, 0, 67, 98
1, 91486, Control_c, 0, 64, 61
1, 91492, Note_off_c, 0, 65, 60
1, 91501, Control_c, 0, 64, 67
1, 91507, Note_on_c, 0, 70, 66
1, 91513, Note_off_c, 0, 77, 63
1, 91514, Note_on_c, 0, 82, 58
1, 91516, Control_c, 0, 64, 75
1, 91530, Control_c, 0, 64, 84
1, 91530, Control_c, 0, 67, 98
1, 91537, Note_off_c, 0, 70, 65
1, 91545, Control_c, 0, 64, 89
1, 91569, Note_on_c, 0, 81, 57
1, 91575, Control_c, 0, 67, 98
1, 91581, Note_on_c, 0, 69, 70
1, 91599, Note_off_c, 0, 82, 63
1, 91605, Control_c, 0, 64, 91
1, 91612, Note_off_c, 0, 81, 61
1, 91620, Control_c, 0, 64, 93
1, 91632, Note_off_c, 0, 69, 59
1, 91635, Control_c, 0, 64, 95
1, 91636, Note_on_c, 0, 74, 65
1, 91662, Note_on_c, 0, 62, 63
1, 91665, Control_c, 0, 64, 89
1, 91665, Control_c, 0, 67, 97
1, 91680, Control_c, 0, 64, 71
1, 91680, Control_c, 0, 67, 97
1, 91683, Note_on_c, 0, 60, 72
1, 91694, Control_c, 0, 64, 60
1, 91694, Control_c, 0, 67, 96
1, 91695, Note_off_c, 0, 74, 58
1, 91702, Note_on_c, 0, 72, 80
1, 91705, Note_off_c, 0, 62, 64
1, 91709, Control_c, 0, 64, 55
1, 91709, Control_c, 0, 67, 95
1, 91724, Control_c, 0, 64, 57
1, 91724, Control_c, 0, 67, 94
1, 91726, Note_off_c, 0, 60, 58
1, 91739, Control_c, 0, 64, 63
1, 91739, Control_c, 0, 67, 94
1, 91760, Note_on_c, 0, 67, 71
1, 91761, Control_c, 0, 64, 69
1, 91767, Note_off_c, 0, 72, 61
1, 91775, Control_c, 0, 64, 79
1, 91790, Note_on_c, 0, 79, 68
1, 91790, Control_c, 0, 64, 90
1, 91794, Note_off_c, 0, 67, 61
1, 91805, Control_c, 0, 64, 93
1, 91847, Note_on_c, 0, 77, 67
1, 91850, Control_c, 0, 64, 94
1, 91850, Control_c, 0, 67, 94
1, 91864, Control_c, 0, 64, 97
1, 91868, Note_off_c, 0, 79, 55
1, 91872, Note_on_c, 0, 58, 66
1, 91873, Poly_aftertouch_c, 0, 65, 0
1, 91879, Control_c, 0, 64, 102
1, 91879, Control_c, 0, 67, 94
1, 91894, Note_off_c, 0, 77, 62
1, 91894, Control_c, 0, 64, 110
1, 91894, Control_c, 0, 67, 93
1, 91895, Poly_aftertouch_c, 0, 65, 0
1, 91909, Control_c, 0, 64, 110
1, 91909, Control_c, 0, 67, 91
1, 91909, Note_on_c, 0, 70, 75
1, 91924, Control_c, 0, 64, 96
1, 91924, Control_c, 0, 67, 88
1, 91939, Control_c, 0, 64, 77
1, 91939, Control_c, 0, 67, 83
1, 91941, Note_on_c, 0, 57, 65
1, 91949, Note_off_c, 0, 58, 65
1, 91951, Note_on_c, 0, 69, 77
1, 91954, Control_c, 0, 64, 66
1, 91954, Control_c, 0, 67, 76
1, 91959, Note_off_c, 0, 70, 59
1, 91969, Control_c, 0, 64, 61
1, 91969, Control_c, 0, 67, 68
1, 91978, Note_on_c, 0, 62, 66
1, 91983, Control_c, 0, 64, 62
1, 91983, Control_c, 0, 67, 60
1, 91996, Note_off_c, 0, 57, 61
1, 91998, Control_c, 0, 64, 66
1, 91998, Control_c, 0, 67, 53
1, 92004, Note_off_c, 0, 69, 66
1, 92013, Control_c, 0, 64, 72
1, 92013, Control_c, 0, 67, 48
1, 92022, Note_on_c, 0, 74, 63
1, 92027, Control_c, 0, 64, 79
1, 92027, Control_c, 0, 67, 47
1, 92038, Note_on_c, 0, 60, 70
1, 92041, Note_on_c, 0, 72, 67
1, 92042, Note_off_c, 0, 62, 45
1, 92042, Control_c, 0, 64, 84
1, 92057, Control_c, 0, 64, 85
1, 92057, Control_c, 0, 67, 48
1, 92061, Note_off_c, 0, 74, 60
1, 92072, Control_c, 0, 64, 86
1, 92087, Control_c, 0, 64, 88
1, 92100, Control_c, 0, 64, 92
1, 92106, Note_off_c, 0, 60, 58
1, 92109, Note_on_c, 0, 67, 73
1, 92114, Note_off_c, 0, 72, 63
1, 92115, Control_c, 0, 64, 97
1, 92115, Control_c, 0, 67, 48
1, 92120, Note_on_c, 0, 55, 57
1, 92130, Control_c, 0, 64, 100
1, 92130, Control_c, 0, 67, 49
1, 92145, Control_c, 0, 64, 97
1, 92145, Control_c, 0, 67, 50
1, 92160, Control_c, 0, 64, 80
1, 92162, Note_on_c, 0, 53, 72
1, 92164, Note_off_c, 0, 67, 61
1, 92174, Note_on_c, 0, 65, 78
1, 92174, Control_c, 0, 64, 67
1, 92189, Control_c, 0, 64, 59
1, 92195, Note_off_c, 0, 55, 60
1, 92204, Control_c, 0, 64, 60
1, 92214, Note_on_c, 0, 58, 78
1, 92219, Control_c, 0, 64, 65
1, 92219, Control_c, 0, 67, 50
1, 92229, Note_on_c, 0, 70, 55
1, 92233, Note_off_c, 0, 65, 62
1, 92234, Note_off_c, 0, 53, 60
1, 92234, Control_c, 0, 64, 72
1, 92249, Control_c, 0, 64, 83
1, 92264, Control_c, 0, 64, 96
1, 92268, Note_off_c, 0, 58, 64
1, 92274, Note_on_c, 0, 69, 67
1, 92279, Control_c, 0, 64, 101
1, 92284, Note_off_c, 0, 70, 0
1, 92284, Note_on_c, 0, 70, 14
1, 92296, Note_on_c, 0, 57, 77
1, 92308, Control_c, 0, 64, 102
1, 92316, Note_off_c, 0, 70, 53
1, 92323, Control_c, 0, 64, 107
1, 92335, Note_off_c, 0, 69, 64
1, 92338, Control_c, 0, 64, 127
1, 92353, Note_on_c, 0, 62, 67
1, 92368, Control_c, 0, 67, 49
1, 92370, Note_off_c, 0, 57, 58
1, 92374, Note_on_c, 0, 50, 68
1, 92383, Control_c, 0, 67, 48
1, 92398, Control_c, 0, 64, 84
1, 92398, Control_c, 0, 67, 47
1, 92408, Note_on_c, 0, 48, 76
1, 92413, Control_c, 0, 64, 68
1, 92413, Control_c, 0, 67, 46
1, 92419, Note_on_c, 0, 60, 83
1, 92422, Note_off_c, 0, 62, 65
1, 92428, Control_c, 0, 64, 61
1, 92428, Control_c, 0, 67, 44
1, 92438, Note_off_c, 0, 50, 65
1, 92442, Control_c, 0, 64, 60
1, 92442, Control_c, 0, 67, 41
1, 92457, Control_c, 0, 64, 64
1, 92457, Control_c, 0, 67, 36
1, 92469, Note_on_c, 0, 55, 74
1, 92472, Control_c, 0, 64, 70
1, 92472, Control_c, 0, 67, 31
1, 92472, Note_off_c, 0, 48, 60
1, 92478, Note_off_c, 0, 60, 60
1, 92487, Control_c, 0, 64, 81
1, 92487, Control_c, 0, 67, 25
1, 92503, Note_on_c, 0, 67, 72
1, 92509, Control_c, 0, 64, 92
1, 92509, Control_c, 0, 67, 20
1, 92523, Control_c, 0, 64, 103
1, 92523, Control_c, 0, 67, 16
1, 92538, Control_c, 0, 64, 109
1, 92538, Control_c, 0, 67, 15
1, 92544, Note_on_c, 0, 53, 51
1, 92550, Note_off_c, 0, 55, 58
1, 92553, Control_c, 0, 64, 113
1, 92553, Control_c, 0, 67, 14
1, 92562, Note_on_c, 0, 65, 72
1, 92568, Control_c, 0, 64, 118
1, 92577, Note_off_c, 0, 53, 60
1, 92578, Note_off_c, 0, 67, 62
1, 92583, Control_c, 0, 64, 127
1, 92605, Note_on_c, 0, 46, 73
1, 92613, Control_c, 0, 64, 102
1, 92616, Note_off_c, 0, 65, 63
1, 92622, Note_on_c, 0, 58, 71
1, 92627, Control_c, 0, 64, 78
1, 92642, Control_c, 0, 64, 65
1, 92642, Control_c, 0, 67, 14
1, 92657, Control_c, 0, 64, 59
1, 92665, Note_on_c, 0, 45, 71
1, 92670, Note_off_c, 0, 46, 65
1, 92672, Control_c, 0, 67, 13
1, 92675, Note_on_c, 0, 57, 81
1, 92684, Note_off_c, 0, 58, 62
1, 92687, Control_c, 0, 64, 65
1, 92687, Control_c, 0, 67, 12
1, 92702, Control_c, 0, 64, 72
1, 92702, Control_c, 0, 67, 12
1, 92714, Note_on_c, 0, 50, 68
1, 92717, Control_c, 0, 64, 85
1, 92721, Note_off_c, 0, 45, 62
1, 92727, Note_off_c, 0, 57, 64
1, 92731, Control_c, 0, 64, 102
1, 92731, Control_c, 0, 67, 11
1, 92746, Control_c, 0, 64, 127
1, 92760, Note_on_c, 0, 62, 60
1, 92761, Control_c, 0, 67, 10
1, 92776, Control_c, 0, 67, 8
1, 92777, Note_on_c, 0, 48, 75
1, 92782, Note_off_c, 0, 50, 62
1, 92791, Note_on_c, 0, 60, 48
1, 92791, Control_c, 0, 67, 0
1, 92832, Note_off_c, 0, 60, 46
1, 92833, Note_off_c, 0, 62, 65
1, 92839, Note_on_c, 0, 55, 73
1, 92841, Note_off_c, 0, 48, 63
1, 92846, Note_on_c, 0, 43, 62
1, 92878, Note_off_c, 0, 55, 64
1, 92879, Control_c, 0, 64, 86
1, 92894, Control_c, 0, 64, 65
1, 92902, Note_on_c, 0, 41, 61
1, 92909, Control_c, 0, 64, 54
1, 92912, Note_on_c, 0, 53, 81
1, 92913, Note_off_c, 0, 43, 62
1, 92923, Control_c, 0, 64, 48
1, 92938, Control_c, 0, 64, 50
1, 92946, Note_off_c, 0, 41, 61
1, 92949, Note_on_c, 0, 50, 76
1, 92952, Note_off_c, 0, 53, 65
1, 92953, Control_c, 0, 64, 58
1, 92968, Control_c, 0, 64, 65
1, 92973, Note_on_c, 0, 62, 58
1, 92983, Control_c, 0, 64, 73
1, 92997, Control_c, 0, 64, 81
1, 93005, Note_on_c, 0, 60, 66
1, 93012, Control_c, 0, 64, 88
1, 93013, Note_on_c, 0, 48, 58
1, 93013, Note_off_c, 0, 50, 60
1, 93027, Control_c, 0, 64, 93
1, 93042, Control_c, 0, 64, 99
1, 93044, Note_off_c, 0, 62, 62
1, 93057, Control_c, 0, 64, 108
1, 93072, Control_c, 0, 64, 127
1, 93072, Note_on_c, 0, 46, 62
1, 93077, Note_on_c, 0, 58, 69
1, 93083, Note_off_c, 0, 48, 64
1, 93100, Note_off_c, 0, 60, 54
1, 93116, Note_off_c, 0, 46, 65
1, 93116, Control_c, 0, 64, 109
1, 93119, Note_on_c, 0, 45, 74
1, 93131, Control_c, 0, 64, 83
1, 93142, Note_on_c, 0, 57, 79
1, 93146, Control_c, 0, 64, 68
1, 93149, Note_off_c, 0, 58, 61
1, 93161, Control_c, 0, 64, 60
1, 93176, Control_c, 0, 64, 58
1, 93183, Note_off_c, 0, 45, 62
1, 93190, Note_on_c, 0, 50, 74
1, 93191, Control_c, 0, 64, 60
1, 93206, Control_c, 0, 64, 65
1, 93213, Note_off_c, 0, 57, 62
1, 93218, Note_on_c, 0, 62, 70
1, 93221, Control_c, 0, 64, 72
1, 93236, Control_c, 0, 64, 81
1, 93255, Note_on_c, 0, 60, 58
1, 93257, Note_off_c, 0, 50, 65
1, 93258, Control_c, 0, 64, 94
1, 93271, Note_on_c, 0, 48, 74
1, 93272, Control_c, 0, 64, 108
1, 93287, Control_c, 0, 64, 127
1, 93296, Note_off_c, 0, 62, 63
1, 93308, Note_on_c, 0, 43, 72
1, 93319, Note_on_c, 0, 55, 68
1, 93319, Note_off_c, 0, 48, 61
1, 93335, Note_off_c, 0, 60, 62
1, 93376, Control_c, 0, 64, 85
1, 93388, Note_off_c, 0, 55, 53
1, 93391, Note_on_c, 0, 41, 83
1, 93391, Control_c, 0, 64, 64
1, 93393, Note_on_c, 0, 53, 82
1, 93399, Note_off_c, 0, 43, 64
1, 93406, Control_c, 0, 64, 52
1, 93420, Control_c, 0, 64, 46
1, 93435, Control_c, 0, 64, 49
1, 93438, Note_on_c, 0, 50, 76
1, 93450, Control_c, 0, 64, 57
1, 93456, Note_off_c, 0, 53, 63
1, 93462, Note_on_c, 0, 62, 64
1, 93465, Control_c, 0, 64, 65
1, 93467, Note_off_c, 0, 41, 60
1, 93480, Control_c, 0, 64, 73
1, 93493, Note_on_c, 0, 60, 67
1, 93495, Control_c, 0, 64, 85
1, 93507, Note_on_c, 0, 48, 79
1, 93510, Control_c, 0, 64, 98
1, 93522, Note_off_c, 0, 50, 64
1, 93525, Control_c, 0, 64, 115
1, 93540, Control_c, 0, 64, 127
1, 93556, Note_on_c, 0, 58, 78
1, 93560, Note_off_c, 0, 62, 65
1, 93568, Note_on_c, 0, 46, 63
1, 93577, Note_off_c, 0, 48, 64
1, 93589, Note_on_c, 0, 45, 75
1, 93595, Note_off_c, 0, 46, 66
1, 93611, Note_off_c, 0, 60, 57
1, 93620, Note_on_c, 0, 57, 81
1, 93628, Control_c, 0, 64, 96
1, 93639, Note_off_c, 0, 58, 64
1, 93643, Control_c, 0, 64, 75
1, 93658, Note_off_c, 0, 45, 63
1, 93658, Control_c, 0, 64, 65
1, 93672, Control_c, 0, 64, 62
1, 93673, Note_on_c, 0, 50, 78
1, 93682, Note_on_c, 0, 62, 75
1, 93687, Control_c, 0, 64, 63
1, 93695, Note_off_c, 0, 57, 62
1, 93702, Control_c, 0, 64, 67
1, 93714, Note_on_c, 0, 60, 73
1, 93717, Control_c, 0, 64, 75
1, 93732, Control_c, 0, 64, 88
1, 93739, Note_on_c, 0, 48, 76
1, 93742, Note_off_c, 0, 50, 63
1, 93746, Control_c, 0, 64, 113
1, 93761, Control_c, 0, 64, 127
1, 93769, Note_off_c, 0, 62, 62
1, 93775, Note_on_c, 0, 43, 78
1, 93775, Note_on_c, 0, 55, 82
1, 93801, Note_off_c, 0, 48, 61
1, 93803, Note_off_c, 0, 60, 61
1, 93850, Control_c, 0, 64, 78
1, 93851, Note_on_c, 0, 53, 85
1, 93853, Note_off_c, 0, 55, 57
1, 93861, Note_on_c, 0, 41, 83
1, 93865, Control_c, 0, 64, 61
1, 93870, Note_off_c, 0, 43, 63
1, 93879, Control_c, 0, 64, 47
1, 93894, Note_on_c, 0, 50, 79
1, 93894, Control_c, 0, 64, 44
1, 93909, Control_c, 0, 64, 51
1, 93910, Note_on_c, 0, 62, 66
1, 93920, Note_off_c, 0, 53, 63
1, 93924, Control_c, 0, 64, 61
1, 93930, Note_off_c, 0, 41, 58
1, 93939, Control_c, 0, 64, 69
1, 93945, Note_on_c, 0, 60, 70
1, 93954, Control_c, 0, 64, 79
1, 93960, Note_on_c, 0, 48, 79
1, 93969, Control_c, 0, 64, 91
1, 93973, Note_off_c, 0, 50, 65
1, 93984, Control_c, 0, 64, 103
1, 94007, Control_c, 0, 64, 122
1, 94008, Note_off_c, 0, 62, 64
1, 94022, Note_on_c, 0, 58, 79
1, 94022, Control_c, 0, 64, 127
1, 94023, Note_on_c, 0, 46, 60
1, 94047, Note_off_c, 0, 46, 55
1, 94055, Note_off_c, 0, 48, 61
1, 94064, Note_on_c, 0, 45, 76
1, 94066, Control_c, 0, 64, 86
1, 94081, Control_c, 0, 64, 66
1, 94082, Note_off_c, 0, 60, 60
1, 94085, Note_on_c, 0, 57, 80
1, 94095, Control_c, 0, 64, 54
1, 94107, Note_off_c, 0, 58, 64
1, 94110, Control_c, 0, 64, 53
1, 94125, Control_c, 0, 64, 58
1, 94128, Note_on_c, 0, 50, 61
1, 94130, Note_off_c, 0, 45, 63
1, 94140, Control_c, 0, 64, 66
1, 94143, Note_on_c, 0, 62, 72
1, 94147, Poly_aftertouch_c, 0, 47, 0
1, 94148, Note_off_c, 0, 57, 64
1, 94155, Control_c, 0, 64, 77
1, 94164, Note_on_c, 0, 60, 79
1, 94169, Control_c, 0, 64, 103
1, 94176, Note_on_c, 0, 48, 76
1, 94178, Note_off_c, 0, 50, 66
1, 94184, Control_c, 0, 64, 127
1, 94202, Note_off_c, 0, 62, 64
1, 94224, Note_on_c, 0, 55, 77
1, 94253, Note_on_c, 0, 45, 64
1, 94255, Note_off_c, 0, 60, 62
1, 94259, Note_off_c, 0, 48, 60
1, 94267, Note_off_c, 0, 55, 64
1, 94303, Control_c, 0, 64, 82
1, 94305, Note_on_c, 0, 53, 89
1, 94309, Note_on_c, 0, 41, 83
1, 94312, Note_off_c, 0, 45, 63
1, 94318, Control_c, 0, 64, 60
1, 94333, Control_c, 0, 64, 25
1, 94347, Control_c, 0, 64, 0
1, 94370, Note_on_c, 0, 45, 65
1, 94371, Note_off_c, 0, 53, 66
1, 94380, Note_on_c, 0, 57, 82
1, 94392, Control_c, 0, 64, 46
1, 94404, Note_off_c, 0, 41, 62
1, 94407, Control_c, 0, 64, 59
1, 94416, Note_on_c, 0, 48, 67
1, 94421, Control_c, 0, 64, 67
1, 94427, Note_off_c, 0, 45, 64
1, 94436, Control_c, 0, 64, 74
1, 94437, Note_on_c, 0, 60, 72
1, 94451, Control_c, 0, 64, 81
1, 94466, Control_c, 0, 64, 87
1, 94470, Note_on_c, 0, 52, 77
1, 94474, Note_off_c, 0, 48, 64
1, 94474, Note_off_c, 0, 57, 61
1, 94476, Note_on_c, 0, 64, 83
1, 94481, Control_c, 0, 64, 89
1, 94493, Note_off_c, 0, 52, 67
1, 94496, Note_on_c, 0, 62, 43
1, 94496, Note_off_c, 0, 60, 63
1, 94500, Note_off_c, 0, 64, 68
1, 94510, Control_c, 0, 64, 84
1, 94525, Control_c, 0, 64, 77
1, 94526, Note_off_c, 0, 62, 55
1, 94540, Control_c, 0, 64, 67
1, 94547, Note_on_c, 0, 65, 87
1, 94555, Control_c, 0, 64, 57
1, 94562, Note_on_c, 0, 53, 72
1, 94569, Control_c, 0, 64, 46
1, 94584, Control_c, 0, 64, 29
1, 94599, Control_c, 0, 64, 0
1, 94601, Note_on_c, 0, 57, 62
1, 94605, Note_off_c, 0, 65, 65
1, 94611, Note_on_c, 0, 69, 73
1, 94643, Note_off_c, 0, 53, 60
1, 94654, Note_on_c, 0, 72, 74
1, 94658, Note_on_c, 0, 60, 67
1, 94669, Note_off_c, 0, 57, 62
1, 94692, Note_off_c, 0, 69, 62
1, 94699, Note_on_c, 0, 64, 62
1, 94702, Note_off_c, 0, 60, 61
1, 94703, Note_on_c, 0, 76, 80
1, 94711, Note_off_c, 0, 72, 65
1, 94725, Note_on_c, 0, 74, 33
1, 94725, Note_off_c, 0, 76, 68
1, 94727, Note_off_c, 0, 64, 67
1, 94732, Control_c, 0, 64, 10
1, 94755, Control_c, 0, 64, 12
1, 94764, Note_off_c, 0, 74, 44
1, 94771, Control_c, 0, 67, 9
1, 94780, Note_on_c, 0, 77, 80
1, 94786, Control_c, 0, 67, 12
1, 94800, Control_c, 0, 67, 16
1, 94804, Note_on_c, 0, 65, 66
1, 94814, Note_on_c, 0, 76, 10
1, 94815, Control_c, 0, 67, 25
1, 94825, Note_on_c, 0, 69, 61
1, 94830, Control_c, 0, 67, 33
1, 94831, Note_off_c, 0, 77, 57
1, 94844, Control_c, 0, 67, 42
1, 94847, Note_on_c, 0, 81, 63
1, 94857, Note_off_c, 0, 65, 60
1, 94859, Control_c, 0, 67, 49
1, 94868, Note_off_c, 0, 76, 27
1, 94874, Control_c, 0, 67, 55
1, 94881, Note_on_c, 0, 72, 61
1, 94884, Note_on_c, 0, 84, 76
1, 94889, Control_c, 0, 64, 13
1, 94889, Control_c, 0, 67, 60
1, 94891, Note_off_c, 0, 69, 62
1, 94904, Control_c, 0, 64, 17
1, 94904, Control_c, 0, 67, 66
1, 94911, Note_off_c, 0, 81, 60
1, 94918, Control_c, 0, 64, 21
1, 94918, Control_c, 0, 67, 74
1, 94923, Note_on_c, 0, 88, 72
1, 94923, Note_off_c, 0, 72, 63
1, 94933, Control_c, 0, 64, 25
1, 94933, Control_c, 0, 67, 82
1, 94936, Note_off_c, 0, 84, 66
1, 94944, Note_on_c, 0, 76, 63
1, 94947, Note_off_c, 0, 88, 70
1, 94948, Control_c, 0, 64, 28
1, 94948, Control_c, 0, 67, 89
1, 94962, Note_off_c, 0, 76, 63
1, 94963, Control_c, 0, 64, 30
1, 94963, Control_c, 0, 67, 96
1, 94978, Control_c, 0, 64, 32
1, 94978, Control_c, 0, 67, 101
1, 94992, Control_c, 0, 64, 34
1, 94992, Control_c, 0, 67, 104
1, 94996, Note_on_c, 0, 89, 74
1, 95007, Control_c, 0, 64, 34
1, 95007, Control_c, 0, 67, 107
1, 95022, Control_c, 0, 67, 108
1, 95026, Note_on_c, 0, 77, 41
1, 95030, Note_off_c, 0, 89, 59
1, 95031, Note_on_c, 0, 81, 56
1, 95037, Control_c, 0, 67, 109
1, 95045, Note_on_c, 0, 93, 60
1, 95051, Control_c, 0, 64, 35
1, 95051, Control_c, 0, 67, 109
1, 95053, Note_off_c, 0, 77, 55
1, 95066, Control_c, 0, 64, 35
1, 95075, Note_off_c, 0, 81, 64
1, 95078, Note_on_c, 0, 84, 65
1, 95081, Control_c, 0, 64, 36
1, 95090, Note_off_c, 0, 93, 63
1, 95096, Control_c, 0, 64, 37
1, 95096, Control_c, 0, 67, 110
1, 95099, Note_on_c, 0, 96, 61
1, 95111, Note_off_c, 0, 84, 65
1, 95111, Control_c, 0, 64, 39
1, 95111, Control_c, 0, 67, 110
1, 95112, Note_on_c, 0, 100, 68
1, 95115, Note_off_c, 0, 96, 65
1, 95122, Note_on_c, 0, 88, 61
1, 95125, Control_c, 0, 64, 44
1, 95125, Control_c, 0, 67, 111
1, 95140, Control_c, 0, 64, 51
1, 95155, Control_c, 0, 64, 59
1, 95163, Note_off_c, 0, 100, 66
1, 95170, Control_c, 0, 64, 65
1, 95182, Note_on_c, 0, 89, 79
1, 95185, Note_on_c, 0, 101, 87
1, 95185, Control_c, 0, 64, 69
1, 95200, Control_c, 0, 64, 74
1, 95203, Note_off_c, 0, 89, 68
1, 95206, Note_off_c, 0, 101, 68
1, 95215, Control_c, 0, 64, 78
1, 95215, Control_c, 0, 67, 110
1, 95230, Control_c, 0, 64, 82
1, 95230, Control_c, 0, 67, 110
1, 95244, Control_c, 0, 64, 88
1, 95244, Control_c, 0, 67, 109
1, 95245, Note_off_c, 0, 88, 29
1, 95259, Control_c, 0, 64, 93
1, 95274, Control_c, 0, 64, 99
1, 95274, Control_c, 0, 67, 110
1, 95289, Control_c, 0, 64, 103
1, 95289, Control_c, 0, 67, 110
1, 95304, Control_c, 0, 64, 106
1, 95304, Control_c, 0, 67, 111
1, 95316, Poly_aftertouch_c, 0, 89, 0
1, 95318, Control_c, 0, 64, 113
1, 95318, Control_c, 0, 67, 113
1, 95333, Control_c, 0, 64, 127
1, 95333, Control_c, 0, 67, 116
1, 95348, Control_c, 0, 67, 119
1, 95363, Control_c, 0, 67, 121
1, 95415, Note_on_c, 0, 49, 54
1, 95433, Note_on_c, 0, 57, 25
1, 95446, Note_on_c, 0, 52, 49
1, 95451, Control_c, 0, 64, 89
1, 95451, Control_c, 0, 67, 121
1, 95461, Note_on_c, 0, 69, 68
1, 95466, Control_c, 0, 64, 69
1, 95466, Control_c, 0, 67, 122
1, 95481, Control_c, 0, 64, 56
1, 95481, Control_c, 0, 67, 123
1, 95503, Note_on_c, 0, 61, 53
1, 95504, Control_c, 0, 64, 39
1, 95518, Control_c, 0, 64, 35
1, 95518, Control_c, 0, 67, 123
1, 95533, Control_c, 0, 64, 43
1, 95534, Note_on_c, 0, 76, 51
1, 95542, Note_off_c, 0, 69, 65
1, 95548, Control_c, 0, 64, 55
1, 95553, Note_on_c, 0, 81, 74
1, 95563, Control_c, 0, 64, 64
1, 95563, Control_c, 0, 67, 123
1, 95579, Note_off_c, 0, 52, 60
1, 95579, Control_c, 0, 64, 71
1, 95587, Note_off_c, 0, 49, 57
1, 95593, Control_c, 0, 64, 83
1, 95599, Note_off_c, 0, 81, 63
1, 95607, Note_off_c, 0, 76, 64
1, 95608, Control_c, 0, 64, 107
1, 95608, Control_c, 0, 67, 122
1, 95614, Note_off_c, 0, 61, 38
1, 95623, Control_c, 0, 64, 127
1, 95623, Control_c, 0, 67, 121
1, 95626, Note_off_c, 0, 57, 45
1, 95638, Control_c, 0, 67, 120
1, 95653, Control_c, 0, 67, 120
1, 95668, Control_c, 0, 67, 119
1, 95682, Control_c, 0, 67, 117
1, 95697, Note_on_c, 0, 53, 54
1, 95697, Control_c, 0, 67, 116
1, 95698, Note_on_c, 0, 50, 58
1, 95712, Control_c, 0, 67, 115
1, 95727, Control_c, 0, 64, 84
1, 95727, Control_c, 0, 67, 114
1, 95734, Note_on_c, 0, 57, 48
1, 95741, Control_c, 0, 64, 66
1, 95741, Control_c, 0, 67, 111
1, 95744, Note_on_c, 0, 69, 70
1, 95754, Note_on_c, 0, 62, 61
1, 95756, Control_c, 0, 64, 52
1, 95756, Control_c, 0, 67, 108
1, 95771, Control_c, 0, 64, 38
1, 95771, Control_c, 0, 67, 102
1, 95779, Note_off_c, 0, 69, 63
1, 95786, Control_c, 0, 67, 97
1, 95793, Note_on_c, 0, 74, 56
1, 95801, Control_c, 0, 64, 54
1, 95801, Control_c, 0, 67, 91
1, 95815, Control_c, 0, 64, 64
1, 95815, Control_c, 0, 67, 85
1, 95818, Note_on_c, 0, 77, 71
1, 95830, Control_c, 0, 64, 75
1, 95830, Control_c, 0, 67, 75
1, 95835, Note_off_c, 0, 50, 49
1, 95837, Note_off_c, 0, 62, 64
1, 95841, Note_off_c, 0, 57, 62
1, 95846, Control_c, 0, 64, 90
1, 95846, Control_c, 0, 67, 65
1, 95861, Control_c, 0, 64, 119
1, 95861, Control_c, 0, 67, 56
1, 95865, Note_on_c, 0, 81, 58
1, 95868, Note_off_c, 0, 53, 57
1, 95875, Note_off_c, 0, 74, 63
1, 95875, Control_c, 0, 64, 127
1, 95875, Control_c, 0, 67, 54
1, 95890, Control_c, 0, 67, 55
1, 95895, Note_off_c, 0, 77, 64
1, 95905, Control_c, 0, 67, 60
1, 95915, Note_off_c, 0, 81, 64
1, 95920, Control_c, 0, 67, 63
1, 95935, Control_c, 0, 64, 91
1, 95935, Control_c, 0, 67, 65
1, 95945, Note_on_c, 0, 48, 68
1, 95949, Control_c, 0, 64, 68
1, 95949, Control_c, 0, 67, 67
1, 95964, Control_c, 0, 64, 57
1, 95964, Control_c, 0, 67, 72
1, 95979, Control_c, 0, 64, 54
1, 95979, Control_c, 0, 67, 78
1, 95994, Control_c, 0, 64, 58
1, 95994, Control_c, 0, 67, 85
1, 96003, Note_on_c, 0, 55, 50
1, 96009, Control_c, 0, 64, 67
1, 96009, Control_c, 0, 67, 92
1, 96020, Note_off_c, 0, 48, 61
1, 96023, Control_c, 0, 64, 79
1, 96023, Control_c, 0, 67, 98
1, 96038, Control_c, 0, 64, 110
1, 96038, Control_c, 0, 67, 100
1, 96053, Control_c, 0, 64, 127
1, 96053, Control_c, 0, 67, 102
1, 96067, Note_on_c, 0, 58, 57
1, 96067, Control_c, 0, 67, 102
1, 96082, Control_c, 0, 67, 105
1, 96097, Control_c, 0, 64, 96
1, 96097, Control_c, 0, 67, 109
1, 96107, Note_on_c, 0, 64, 60
1, 96112, Control_c, 0, 64, 65
1, 96112, Control_c, 0, 67, 112
1, 96127, Control_c, 0, 64, 43
1, 96127, Control_c, 0, 67, 112
1, 96142, Control_c, 0, 64, 17
1, 96146, Note_off_c, 0, 64, 63
1, 96157, Control_c, 0, 64, 20
1, 96172, Control_c, 0, 64, 43
1, 96172, Control_c, 0, 67, 113
1, 96175, Note_on_c, 0, 72, 51
1, 96187, Control_c, 0, 64, 60
1, 96192, Note_off_c, 0, 58, 65
1, 96194, Note_off_c, 0, 55, 61
1, 96202, Control_c, 0, 64, 75
1, 96202, Control_c, 0, 67, 114
1, 96208, Note_on_c, 0, 79, 58
1, 96216, Control_c, 0, 64, 93
1, 96216, Control_c, 0, 67, 115
1, 96228, Note_off_c, 0, 72, 55
1, 96231, Control_c, 0, 64, 127
1, 96231, Control_c, 0, 67, 117
1, 96253, Control_c, 0, 67, 117
1, 96264, Note_on_c, 0, 84, 59
1, 96312, Control_c, 0, 67, 118
1, 96317, Note_off_c, 0, 79, 65
1, 96327, Control_c, 0, 67, 119
1, 96336, Note_off_c, 0, 84, 65
1, 96342, Control_c, 0, 67, 121
1, 96357, Control_c, 0, 67, 123
1, 96365, Note_on_c, 0, 41, 61
1, 96372, Control_c, 0, 64, 73
1, 96372, Control_c, 0, 67, 125
1, 96387, Control_c, 0, 64, 51
1, 96387, Control_c, 0, 67, 126
1, 96402, Control_c, 0, 64, 0
1, 96417, Control_c, 0, 67, 125
1, 96425, Note_on_c, 0, 48, 61
1, 96432, Control_c, 0, 67, 124
1, 96446, Control_c, 0, 64, 46
1, 96446, Control_c, 0, 67, 123
1, 96449, Note_off_c, 0, 41, 61
1, 96461, Control_c, 0, 64, 63
1, 96461, Control_c, 0, 67, 121
1, 96476, Control_c, 0, 64, 76
1, 96476, Control_c, 0, 67, 120
1, 96489, Note_off_c, 0, 48, 63
1, 96491, Control_c, 0, 64, 93
1, 96491, Control_c, 0, 67, 118
1, 96506, Control_c, 0, 64, 127
1, 96506, Control_c, 0, 67, 117
1, 96518, Note_on_c, 0, 57, 58
1, 96521, Control_c, 0, 67, 116
1, 96535, Control_c, 0, 67, 115
1, 96540, Note_off_c, 0, 57, 61
1, 96550, Control_c, 0, 67, 113
1, 96565, Control_c, 0, 67, 111
1, 96580, Control_c, 0, 67, 109
1, 96595, Control_c, 0, 67, 107
1, 96610, Control_c, 0, 67, 106
1, 96625, Control_c, 0, 67, 105
1, 96640, Control_c, 0, 67, 102
1, 96643, Note_on_c, 0, 60, 43
1, 96644, Note_on_c, 0, 59, 42
1, 96654, Control_c, 0, 67, 99
1, 96669, Control_c, 0, 67, 97
1, 96671, Note_on_c, 0, 72, 56
1, 96676, Note_off_c, 0, 59, 63
1, 96684, Control_c, 0, 67, 95
1, 96693, Note_off_c, 0, 60, 44
1, 96698, Control_c, 0, 67, 92
1, 96702, Note_on_c, 0, 65, 13
1, 96703, Note_off_c, 0, 72, 65
1, 96713, Control_c, 0, 67, 89
1, 96728, Note_on_c, 0, 77, 51
1, 96728, Control_c, 0, 67, 86
1, 96743, Control_c, 0, 67, 83
1, 96758, Control_c, 0, 67, 81
1, 96772, Control_c, 0, 67, 77
1, 96780, Note_on_c, 0, 81, 61
1, 96783, Note_off_c, 0, 77, 58
1, 96787, Control_c, 0, 67, 73
1, 96794, Note_off_c, 0, 65, 45
1, 96802, Control_c, 0, 67, 69
1, 96816, Control_c, 0, 67, 66
1, 96831, Control_c, 0, 67, 65
1, 96845, Note_off_c, 0, 81, 64
1, 96846, Control_c, 0, 67, 64
1, 96854, Note_on_c, 0, 84, 59
1, 96861, Control_c, 0, 67, 64
1, 96890, Control_c, 0, 67, 63
1, 96905, Control_c, 0, 67, 59
1, 96920, Control_c, 0, 67, 55
1, 96935, Control_c, 0, 67, 52
1, 96950, Control_c, 0, 67, 50
1, 97031, Control_c, 0, 67, 51
1, 97046, Control_c, 0, 67, 52
1, 97061, Control_c, 0, 67, 53
1, 97076, Control_c, 0, 64, 109
1, 97076, Control_c, 0, 67, 55
1, 97090, Control_c, 0, 64, 94
1, 97090, Control_c, 0, 67, 55
1, 97093, Note_off_c, 0, 84, 56
1, 97105, Note_on_c, 0, 89, 46
1, 97105, Control_c, 0, 64, 83
1, 97105, Control_c, 0, 67, 56
1, 97120, Control_c, 0, 64, 71
1, 97120, Control_c, 0, 67, 58
1, 97135, Control_c, 0, 64, 63
1, 97135, Control_c, 0, 67, 60
1, 97150, Control_c, 0, 64, 60
1, 97150, Control_c, 0, 67, 62
1, 97166, Control_c, 0, 64, 59
1, 97166, Control_c, 0, 67, 62
1, 97181, Control_c, 0, 64, 62
1, 97195, Control_c, 0, 64, 66
1, 97195, Control_c, 0, 67, 63
1, 97210, Control_c, 0, 64, 71
1, 97210, Control_c, 0, 67, 63
1, 97225, Control_c, 0, 64, 76
1, 97225, Control_c, 0, 67, 64
1, 97240, Control_c, 0, 64, 79
1, 97240, Control_c, 0, 67, 65
1, 97255, Control_c, 0, 64, 80
1, 97255, Control_c, 0, 67, 66
1, 97269, Control_c, 0, 64, 77
1, 97269, Control_c, 0, 67, 70
1, 97284, Control_c, 0, 64, 70
1, 97284, Control_c, 0, 67, 74
1, 97299, Control_c, 0, 64, 63
1, 97299, Control_c, 0, 67, 76
1, 97313, Control_c, 0, 64, 59
1, 97313, Control_c, 0, 67, 78
1, 97328, Control_c, 0, 64, 59
1, 97328, Control_c, 0, 67, 79
1, 97343, Control_c, 0, 64, 63
1, 97343, Control_c, 0, 67, 79
1, 97358, Control_c, 0, 64, 69
1, 97358, Control_c, 0, 67, 81
1, 97373, Control_c, 0, 64, 77
1, 97373, Control_c, 0, 67, 82
1, 97387, Control_c, 0, 64, 87
1, 97387, Control_c, 0, 67, 84
1, 97402, Control_c, 0, 64, 98
1, 97402, Control_c, 0, 67, 85
1, 97417, Control_c, 0, 64, 113
1, 97417, Control_c, 0, 67, 86
1, 97432, Control_c, 0, 64, 127
1, 97432, Control_c, 0, 67, 86
1, 97446, Control_c, 0, 67, 87
1, 97461, Control_c, 0, 67, 88
1, 97476, Control_c, 0, 67, 90
1, 97491, Control_c, 0, 67, 92
1, 97506, Control_c, 0, 67, 93
1, 97520, Control_c, 0, 67, 93
1, 97532, Note_off_c, 0, 89, 55
1, 97535, Control_c, 0, 67, 94
1, 97550, Control_c, 0, 67, 96
1, 97565, Control_c, 0, 67, 98
1, 97580, Control_c, 0, 67, 100
1, 97594, Control_c, 0, 67, 102
1, 97624, Control_c, 0, 67, 101
1, 97638, Control_c, 0, 67, 100
1, 97653, Control_c, 0, 64, 113
1, 97653, Control_c, 0, 67, 98
1, 97668, Control_c, 0, 64, 97
1, 97668, Control_c, 0, 67, 96
1, 97683, Control_c, 0, 64, 87
1, 97683, Control_c, 0, 67, 93
1, 97698, Control_c, 0, 64, 81
1, 97698, Control_c, 0, 67, 91
1, 97713, Control_c, 0, 64, 76
1, 97713, Control_c, 0, 67, 88
1, 97728, Control_c, 0, 64, 75
1, 97728, Control_c, 0, 67, 87
1, 97750, Control_c, 0, 64, 74
1, 97780, Control_c, 0, 64, 74
1, 97780, Control_c, 0, 67, 86
1, 97794, Control_c, 0, 64, 73
1, 97794, Control_c, 0, 67, 85
1, 97809, Control_c, 0, 64, 72
1, 97809, Control_c, 0, 67, 84
1, 97824, Control_c, 0, 64, 71
1, 97838, Control_c, 0, 64, 70
1, 97853, Control_c, 0, 64, 69
1, 97868, Control_c, 0, 64, 68
1, 97868, Control_c, 0, 67, 84
1, 97913, Control_c, 0, 67, 83
1, 97927, Control_c, 0, 67, 83
1, 97942, Control_c, 0, 67, 82
1, 97957, Control_c, 0, 64, 68
1, 97973, Control_c, 0, 67, 82
1, 97988, Control_c, 0, 67, 81
1, 98003, Control_c, 0, 64, 67
1, 98003, Control_c, 0, 67, 79
1, 98017, Control_c, 0, 64, 66
1, 98017, Control_c, 0, 67, 77
1, 98032, Control_c, 0, 64, 65
1, 98032, Control_c, 0, 67, 76
1, 98047, Control_c, 0, 64, 65
1, 98047, Control_c, 0, 67, 75
1, 98062, Control_c, 0, 64, 64
1, 98062, Control_c, 0, 67, 73
1, 98077, Control_c, 0, 67, 72
1, 98091, Control_c, 0, 64, 64
1, 98106, Control_c, 0, 64, 63
1, 98106, Control_c, 0, 67, 71
1, 98121, Control_c, 0, 64, 63
1, 98136, Control_c, 0, 64, 62
1, 98136, Control_c, 0, 67, 71
1, 98151, Control_c, 0, 64, 62
1, 98196, Control_c, 0, 67, 70
1, 98210, Control_c, 0, 64, 61
1, 98240, Control_c, 0, 64, 61
1, 98255, Control_c, 0, 64, 60
1, 98269, Control_c, 0, 64, 60
1, 98269, Control_c, 0, 67, 70
1, 98284, Control_c, 0, 64, 59
1, 98299, Control_c, 0, 64, 58
1, 98299, Control_c, 0, 67, 69
1, 98329, Control_c, 0, 64, 58
1, 98329, Control_c, 0, 67, 68
1, 98343, Control_c, 0, 64, 57
1, 98343, Control_c, 0, 67, 66
1, 98358, Control_c, 0, 64, 57
1, 98358, Control_c, 0, 67, 65
1, 98373, Control_c, 0, 64, 56
1, 98403, Control_c, 0, 64, 56
1, 98417, Control_c, 0, 64, 55
1, 98417, Control_c, 0, 67, 65
1, 98432, Control_c, 0, 64, 53
1, 98447, Control_c, 0, 64, 53
1, 98447, Control_c, 0, 67, 65
1, 98461, Control_c, 0, 64, 52
1, 98514, Control_c, 0, 64, 52
1, 98529, Control_c, 0, 64, 51
1, 98543, Control_c, 0, 67, 64
1, 98588, Control_c, 0, 67, 64
1, 98603, Control_c, 0, 64, 51
1, 98617, Control_c, 0, 64, 50
1, 98617, Control_c, 0, 67, 63
1, 98632, Control_c, 0, 67, 61
1, 98662, Control_c, 0, 64, 50
1, 98676, Control_c, 0, 67, 61
1, 98691, Control_c, 0, 64, 49
1, 98721, Control_c, 0, 64, 49
1, 98766, Control_c, 0, 64, 48
1, 98781, Control_c, 0, 64, 48
1, 98796, Control_c, 0, 64, 47
1, 98811, Control_c, 0, 67, 61
1, 98855, Control_c, 0, 64, 47
1, 98870, Control_c, 0, 64, 46
1, 98899, Control_c, 0, 64, 46
1, 98929, Control_c, 0, 64, 45
1, 98929, Control_c, 0, 67, 62
1, 98944, Control_c, 0, 64, 44
1, 98959, Control_c, 0, 64, 43
1, 98974, Control_c, 0, 64, 42
1, 98974, Control_c, 0, 67, 61
1, 99033, Control_c, 0, 64, 41
1, 99048, Control_c, 0, 64, 40
1, 99063, Control_c, 0, 64, 40
1, 99152, Control_c, 0, 64, 39
1, 99166, Control_c, 0, 64, 39
1, 99248, Control_c, 0, 67, 61
1, 99263, Control_c, 0, 67, 60
1, 99292, Control_c, 0, 64, 38
1, 99307, Control_c, 0, 64, 38
1, 99322, Control_c, 0, 67, 60
1, 99337, Control_c, 0, 64, 37
1, 99337, Control_c, 0, 67, 59
1, 99352, Control_c, 0, 67, 58
1, 99366, Control_c, 0, 64, 37
1, 99366, Control_c, 0, 67, 54
1, 99381, Control_c, 0, 64, 36
1, 99381, Control_c, 0, 67, 52
1, 99396, Control_c, 0, 64, 36
1, 99396, Control_c, 0, 67, 50
1, 99411, Control_c, 0, 67, 50
1, 99455, Control_c, 0, 64, 35
1, 99470, Control_c, 0, 64, 35
1, 99484, Control_c, 0, 64, 34
1, 99484, Control_c, 0, 67, 49
1, 99499, Control_c, 0, 64, 33
1, 99499, Control_c, 0, 67, 49
1, 99514, Control_c, 0, 64, 32
1, 99575, Control_c, 0, 67, 48
1, 99590, Control_c, 0, 64, 32
1, 99590, Control_c, 0, 67, 48
1, 99605, Control_c, 0, 64, 31
1, 99605, Control_c, 0, 67, 44
1, 99620, Control_c, 0, 64, 31
1, 99620, Control_c, 0, 67, 40
1, 99635, Control_c, 0, 67, 38
1, 99650, Control_c, 0, 67, 37
1, 99708, Control_c, 0, 67, 37
1, 99753, Control_c, 0, 64, 30
1, 99768, Control_c, 0, 67, 36
1, 99782, Control_c, 0, 64, 30
1, 99782, Control_c, 0, 67, 32
1, 99797, Control_c, 0, 64, 29
1, 99797, Control_c, 0, 67, 28
1, 99812, Control_c, 0, 64, 29
1, 99812, Control_c, 0, 67, 25
1, 99827, Control_c, 0, 67, 24
1, 99841, Control_c, 0, 64, 28
1, 99841, Control_c, 0, 67, 23
1, 99856, Control_c, 0, 64, 26
1, 99856, Control_c, 0, 67, 22
1, 99871, Control_c, 0, 64, 24
1, 99886, Control_c, 0, 64, 23
1, 99886, Control_c, 0, 67, 20
1, 99901, Control_c, 0, 67, 18
1, 99916, Control_c, 0, 67, 17
1, 99931, Control_c, 0, 67, 16
1, 99946, Control_c, 0, 67, 15
1, 99960, Control_c, 0, 64, 23
1, 99975, Control_c, 0, 64, 22
1, 99975, Control_c, 0, 67, 14
1, 99997, Control_c, 0, 64, 21
1, 99997, Control_c, 0, 67, 13
1, 100012, Control_c, 0, 67, 10
1, 100027, Control_c, 0, 67, 0
1, 100145, Control_c, 0, 64, 20
1, 100160, Control_c, 0, 64, 18
1, 100175, Control_c, 0, 64, 12
1, 100190, Control_c, 0, 64, 0
1, 100265, End_track
0, 0, End_of_file
