0, 0, Header, 0, 1, 384
1, 0, Start_track
1, 0, Title_t, "Sonata Op. 57--Pavel Gintov     "
1, 0, Text_t, "2009 Piano-e-Competition audition round"
1, 0, Text_t, "captured January 2009"
1, 0, Text_t, "http://www.piano-e-competition.com/"
1, 0, Text_t, "File processed for distribution by software from Zenph Studios, Inc., http://www.zenph.com"
1, 0, Instrument_name_t, "Yamaha Disklavier Pro Mark IV concert grand piano, model DCFIIISM4PRO"
1, 0, Sequencer_specific, 39, 67, 113, 0, 1, 0, 1, 0, 83, 111, 110, 97, 116, 97, 32, 79, 112, 46, 32, 53, 55, 32, 32, 32, 80, 97, 118, 101, 108, 32, 71, 105, 110, 116, 111, 118, 32, 32, 32, 32
1, 0, Sequencer_specific, 6, 67, 113, 0, 0, 0, 69
1, 0, System_exclusive, 21, 67, 113, 126, 21, 0, 2, 2, 0, 3, 14, 1, 4, 1, 13, 13, 10, 11, 9, 2, 7, 247
1, 0, Sequencer_specific, 5, 67, 123, 12, 2, 1
1, 0, Tempo, 512820
1, 0, Time_signature, 4, 2, 24, 8
1, 0, System_exclusive, 5, 126, 127, 9, 1, 247
1, 1, System_exclusive, 8, 67, 16, 76, 0, 0, 126, 0, 247
1, 2, System_exclusive, 8, 67, 16, 76, 8, 9, 7, 1, 247
1, 3, Control_c, 0, 0, 0
1, 3, Control_c, 1, 0, 0
1, 3, Control_c, 2, 0, 0
1, 3, Control_c, 3, 0, 0
1, 3, Control_c, 4, 0, 0
1, 3, Control_c, 5, 0, 0
1, 3, Control_c, 6, 0, 0
1, 3, Control_c, 7, 0, 0
1, 3, Control_c, 8, 0, 0
1, 3, Control_c, 9, 0, 127
1, 3, Control_c, 10, 0, 0
1, 3, Control_c, 11, 0, 0
1, 3, Control_c, 12, 0, 0
1, 3, Control_c, 13, 0, 0
1, 3, Control_c, 14, 0, 0
1, 3, Control_c, 15, 0, 0
1, 4, Control_c, 0, 32, 0
1, 4, Control_c, 1, 32, 0
1, 4, Control_c, 2, 32, 0
1, 4, Control_c, 3, 32, 0
1, 4, Control_c, 4, 32, 0
1, 4, Control_c, 5, 32, 0
1, 4, Control_c, 6, 32, 0
1, 4, Control_c, 7, 32, 0
1, 4, Control_c, 8, 32, 0
1, 4, Control_c, 9, 32, 0
1, 4, Control_c, 10, 32, 0
1, 4, Control_c, 11, 32, 0
1, 4, Control_c, 12, 32, 0
1, 4, Control_c, 13, 32, 0
1, 4, Control_c, 14, 32, 0
1, 4, Control_c, 15, 32, 0
1, 5, Program_c, 0, 0
1, 5, Program_c, 1, 0
1, 5, Program_c, 2, 0
1, 5, Program_c, 3, 0
1, 5, Program_c, 4, 0
1, 5, Program_c, 5, 0
1, 5, Program_c, 6, 0
1, 5, Program_c, 7, 0
1, 5, Program_c, 8, 0
1, 5, Program_c, 9, 0
1, 5, Program_c, 10, 0
1, 5, Program_c, 11, 0
1, 5, Program_c, 12, 0
1, 5, Program_c, 13, 0
1, 5, Program_c, 14, 0
1, 5, Program_c, 15, 0
1, 6, Control_c, 0, 7, 100
1, 6, Control_c, 1, 7, 100
1, 6, Control_c, 2, 7, 100
1, 6, Control_c, 3, 7, 100
1, 6, Control_c, 4, 7, 100
1, 6, Control_c, 5, 7, 100
1, 6, Control_c, 6, 7, 100
1, 6, Control_c, 7, 7, 100
1, 6, Control_c, 8, 7, 100
1, 6, Control_c, 9, 7, 100
1, 6, Control_c, 10, 7, 100
1, 6, Control_c, 11, 7, 100
1, 6, Control_c, 12, 7, 100
1, 6, Control_c, 13, 7, 100
1, 6, Control_c, 14, 7, 100
1, 6, Control_c, 15, 7, 100
1, 117, Control_c, 0, 64, 15
1, 117, Control_c, 0, 67, 14
1, 229, Control_c, 0, 64, 31
1, 229, Control_c, 0, 67, 28
1, 341, Control_c, 0, 64, 46
1, 341, Control_c, 0, 67, 42
1, 452, Control_c, 0, 64, 63
1, 452, Control_c, 0, 67, 56
1, 564, Control_c, 0, 64, 77
1, 564, Control_c, 0, 67, 70
1, 676, Control_c, 0, 64, 94
1, 676, Control_c, 0, 67, 84
1, 787, Control_c, 0, 64, 108
1, 787, Control_c, 0, 67, 98
1, 899, Control_c, 0, 64, 127
1, 899, Control_c, 0, 67, 112
1, 1134, Note_on_c, 0, 60, 41
1, 1189, Note_on_c, 0, 36, 35
1, 1416, Control_c, 0, 67, 113
1, 1654, Note_on_c, 0, 56, 37
1, 1661, Note_on_c, 0, 32, 34
1, 1757, Control_c, 0, 67, 113
1, 1784, Note_on_c, 0, 29, 38
1, 1785, Note_on_c, 0, 53, 38
1, 1830, Note_off_c, 0, 56, 26
1, 1846, Control_c, 0, 64, 123
1, 1853, Note_off_c, 0, 32, 35
1, 1861, Control_c, 0, 64, 101
1, 1876, Control_c, 0, 64, 88
1, 1876, Control_c, 0, 67, 114
1, 1880, Note_off_c, 0, 36, 20
1, 1883, Note_off_c, 0, 60, 30
1, 1891, Control_c, 0, 64, 78
1, 1905, Control_c, 0, 64, 68
1, 1920, Control_c, 0, 64, 57
1, 1935, Control_c, 0, 64, 28
1, 1949, Control_c, 0, 64, 0
1, 1979, Control_c, 0, 67, 114
1, 2017, Control_c, 0, 67, 115
1, 2046, Control_c, 0, 67, 115
1, 2075, Control_c, 0, 64, 28
1, 2090, Control_c, 0, 64, 54
1, 2105, Control_c, 0, 64, 63
1, 2120, Control_c, 0, 64, 68
1, 2135, Control_c, 0, 64, 77
1, 2135, Control_c, 0, 67, 116
1, 2149, Control_c, 0, 64, 86
1, 2164, Control_c, 0, 64, 96
1, 2179, Control_c, 0, 64, 107
1, 2179, Control_c, 0, 67, 116
1, 2194, Control_c, 0, 64, 127
1, 2194, Control_c, 0, 67, 117
1, 2209, Control_c, 0, 67, 118
1, 2223, Control_c, 0, 67, 120
1, 2238, Control_c, 0, 67, 120
1, 2253, Control_c, 0, 67, 122
1, 2268, Control_c, 0, 67, 123
1, 2283, Control_c, 0, 67, 124
1, 2297, Control_c, 0, 67, 124
1, 2312, Control_c, 0, 67, 125
1, 2328, Control_c, 0, 67, 125
1, 2343, Control_c, 0, 67, 126
1, 2358, Control_c, 0, 67, 127
1, 2372, Control_c, 0, 67, 127
1, 3298, Note_on_c, 0, 56, 37
1, 3320, Note_on_c, 0, 32, 33
1, 3519, Note_off_c, 0, 53, 38
1, 3629, Note_off_c, 0, 29, 29
1, 3642, Note_off_c, 0, 56, 57
1, 3657, Note_on_c, 0, 60, 47
1, 3669, Note_on_c, 0, 36, 39
1, 3737, Note_off_c, 0, 60, 61
1, 3747, Note_off_c, 0, 36, 54
1, 3749, Note_off_c, 0, 32, 36
1, 3775, Note_on_c, 0, 41, 42
1, 3779, Note_on_c, 0, 65, 55
1, 3826, Control_c, 0, 64, 105
1, 3841, Control_c, 0, 64, 89
1, 3855, Control_c, 0, 64, 75
1, 3870, Control_c, 0, 64, 64
1, 3885, Control_c, 0, 64, 47
1, 3900, Control_c, 0, 64, 0
1, 4207, Note_on_c, 0, 68, 43
1, 4208, Note_on_c, 0, 44, 37
1, 4278, Note_off_c, 0, 65, 36
1, 4335, Note_off_c, 0, 41, 39
1, 4526, Note_on_c, 0, 72, 53
1, 4527, Note_off_c, 0, 68, 59
1, 4536, Note_on_c, 0, 48, 38
1, 4624, Note_off_c, 0, 72, 61
1, 4636, Note_on_c, 0, 77, 52
1, 4642, Note_off_c, 0, 44, 39
1, 4642, Note_off_c, 0, 48, 55
1, 4662, Note_on_c, 0, 53, 35
1, 5091, Note_on_c, 0, 65, 35
1, 5100, Note_on_c, 0, 56, 30
1, 5157, Note_off_c, 0, 77, 53
1, 5202, Note_off_c, 0, 53, 47
1, 5205, Control_c, 0, 64, 8
1, 5220, Control_c, 0, 64, 30
1, 5235, Control_c, 0, 64, 44
1, 5249, Control_c, 0, 64, 53
1, 5264, Control_c, 0, 64, 58
1, 5279, Control_c, 0, 64, 63
1, 5294, Control_c, 0, 64, 66
1, 5308, Control_c, 0, 64, 72
1, 5323, Control_c, 0, 64, 80
1, 5338, Control_c, 0, 64, 90
1, 5353, Control_c, 0, 64, 101
1, 5368, Control_c, 0, 64, 118
1, 5383, Control_c, 0, 64, 127
1, 5460, Note_off_c, 0, 65, 35
1, 5717, Note_on_c, 0, 72, 51
1, 5759, Note_on_c, 0, 55, 33
1, 5763, Note_on_c, 0, 60, 29
1, 5771, Note_on_c, 0, 52, 34
1, 5792, Note_off_c, 0, 56, 37
1, 5851, Control_c, 0, 64, 117
1, 5866, Control_c, 0, 64, 103
1, 5880, Control_c, 0, 64, 92
1, 5895, Control_c, 0, 64, 82
1, 5910, Control_c, 0, 64, 71
1, 5924, Control_c, 0, 64, 59
1, 5939, Control_c, 0, 64, 0
1, 6013, Control_c, 0, 64, 34
1, 6028, Control_c, 0, 64, 57
1, 6043, Control_c, 0, 64, 67
1, 6056, Control_c, 0, 64, 76
1, 6071, Control_c, 0, 64, 88
1, 6086, Control_c, 0, 64, 100
1, 6101, Control_c, 0, 64, 113
1, 6116, Control_c, 0, 64, 127
1, 6146, Control_c, 0, 67, 127
1, 6161, Control_c, 0, 67, 126
1, 6176, Control_c, 0, 67, 125
1, 6191, Control_c, 0, 67, 125
1, 6220, Control_c, 0, 67, 124
1, 6279, Control_c, 0, 67, 124
1, 6340, Control_c, 0, 67, 123
1, 6384, Control_c, 0, 67, 122
1, 6397, Note_off_c, 0, 60, 42
1, 6399, Control_c, 0, 67, 121
1, 6413, Control_c, 0, 67, 121
1, 6428, Control_c, 0, 67, 120
1, 6458, Control_c, 0, 67, 120
1, 6510, Control_c, 0, 67, 119
1, 6529, Note_off_c, 0, 52, 42
1, 6533, Note_on_c, 0, 74, 51
1, 6557, Note_off_c, 0, 72, 46
1, 6628, Control_c, 0, 67, 120
1, 6717, Control_c, 0, 67, 120
1, 6759, Note_off_c, 0, 74, 58
1, 6778, Note_on_c, 0, 72, 51
1, 6806, Note_on_c, 0, 56, 33
1, 6816, Note_on_c, 0, 53, 37
1, 6818, Note_on_c, 0, 59, 38
1, 6836, Control_c, 0, 64, 110
1, 6851, Control_c, 0, 64, 92
1, 6851, Control_c, 0, 67, 121
1, 6865, Control_c, 0, 64, 76
1, 6880, Control_c, 0, 64, 59
1, 6895, Control_c, 0, 64, 0
1, 6899, Note_off_c, 0, 55, 39
1, 6909, Note_off_c, 0, 72, 60
1, 6927, Note_on_c, 0, 74, 51
1, 6940, Control_c, 0, 64, 48
1, 6954, Control_c, 0, 64, 64
1, 6969, Control_c, 0, 64, 72
1, 6984, Control_c, 0, 64, 86
1, 6999, Note_off_c, 0, 74, 63
1, 6999, Control_c, 0, 64, 98
1, 7009, Note_on_c, 0, 76, 61
1, 7014, Control_c, 0, 64, 109
1, 7028, Control_c, 0, 64, 119
1, 7043, Control_c, 0, 64, 127
1, 7045, Note_off_c, 0, 76, 61
1, 7070, Note_on_c, 0, 74, 47
1, 7113, Note_off_c, 0, 74, 62
1, 7123, Note_on_c, 0, 76, 68
1, 7172, Note_off_c, 0, 76, 51
1, 7206, Note_on_c, 0, 74, 52
1, 7237, Note_off_c, 0, 74, 60
1, 7237, Control_c, 0, 67, 121
1, 7264, Note_on_c, 0, 76, 57
1, 7298, Note_off_c, 0, 76, 63
1, 7339, Note_on_c, 0, 74, 38
1, 7364, Note_off_c, 0, 74, 58
1, 7378, Note_on_c, 0, 76, 60
1, 7407, Control_c, 0, 67, 122
1, 7413, Note_off_c, 0, 76, 62
1, 7441, Note_on_c, 0, 74, 55
1, 7472, Note_off_c, 0, 74, 64
1, 7481, Control_c, 0, 67, 122
1, 7490, Note_on_c, 0, 76, 62
1, 7508, Note_off_c, 0, 53, 51
1, 7541, Control_c, 0, 67, 123
1, 7562, Note_off_c, 0, 59, 36
1, 7564, Note_on_c, 0, 74, 52
1, 7570, Note_off_c, 0, 76, 54
1, 7570, Control_c, 0, 67, 123
1, 7600, Control_c, 0, 67, 124
1, 7625, Note_off_c, 0, 74, 57
1, 7644, Control_c, 0, 67, 124
1, 7659, Control_c, 0, 67, 125
1, 7664, Note_on_c, 0, 72, 55
1, 7674, Control_c, 0, 67, 125
1, 7688, Control_c, 0, 67, 126
1, 7703, Control_c, 0, 67, 126
1, 7718, Control_c, 0, 67, 127
1, 7723, Note_off_c, 0, 72, 51
1, 7733, Control_c, 0, 67, 127
1, 7753, Note_on_c, 0, 76, 50
1, 7809, Note_off_c, 0, 76, 52
1, 7849, Note_on_c, 0, 74, 46
1, 7881, Control_c, 0, 64, 113
1, 7896, Control_c, 0, 64, 106
1, 7911, Control_c, 0, 64, 101
1, 7926, Control_c, 0, 64, 97
1, 7931, Note_off_c, 0, 74, 51
1, 7941, Control_c, 0, 64, 92
1, 7956, Control_c, 0, 64, 88
1, 7971, Control_c, 0, 64, 84
1, 7973, Note_on_c, 0, 72, 43
1, 7986, Control_c, 0, 64, 80
1, 8008, Note_on_c, 0, 55, 35
1, 8008, Control_c, 0, 64, 75
1, 8010, Note_off_c, 0, 56, 37
1, 8015, Note_on_c, 0, 60, 26
1, 8018, Note_on_c, 0, 52, 30
1, 8023, Control_c, 0, 64, 70
1, 8038, Control_c, 0, 64, 64
1, 8053, Control_c, 0, 64, 58
1, 8067, Control_c, 0, 64, 50
1, 8082, Control_c, 0, 64, 38
1, 8097, Control_c, 0, 64, 22
1, 8112, Control_c, 0, 64, 0
1, 8662, Note_off_c, 0, 55, 40
1, 8671, Note_off_c, 0, 60, 45
1, 8671, Note_off_c, 0, 72, 59
1, 8672, Note_off_c, 0, 52, 50
1, 9038, Control_c, 0, 64, 15
1, 9052, Control_c, 0, 64, 33
1, 9066, Control_c, 0, 64, 43
1, 9081, Control_c, 0, 64, 48
1, 9096, Control_c, 0, 64, 50
1, 9111, Control_c, 0, 64, 53
1, 9126, Control_c, 0, 64, 55
1, 9140, Control_c, 0, 64, 58
1, 9155, Control_c, 0, 64, 61
1, 9170, Control_c, 0, 64, 63
1, 9185, Control_c, 0, 64, 65
1, 9200, Control_c, 0, 64, 67
1, 9214, Control_c, 0, 64, 69
1, 9229, Control_c, 0, 64, 72
1, 9244, Control_c, 0, 64, 76
1, 9259, Control_c, 0, 64, 82
1, 9273, Control_c, 0, 64, 87
1, 9288, Control_c, 0, 64, 92
1, 9303, Control_c, 0, 64, 97
1, 9318, Control_c, 0, 64, 104
1, 9332, Control_c, 0, 64, 113
1, 9347, Control_c, 0, 64, 127
1, 9667, Control_c, 0, 67, 127
1, 9963, Control_c, 0, 67, 127
1, 10069, Note_on_c, 0, 61, 41
1, 10102, Note_on_c, 0, 37, 30
1, 10466, Note_on_c, 0, 34, 40
1, 10474, Note_on_c, 0, 58, 37
1, 10567, Note_off_c, 0, 58, 37
1, 10584, Note_on_c, 0, 54, 39
1, 10603, Note_on_c, 0, 30, 37
1, 10609, Control_c, 0, 64, 113
1, 10624, Control_c, 0, 64, 99
1, 10639, Control_c, 0, 64, 89
1, 10654, Control_c, 0, 64, 80
1, 10665, Note_off_c, 0, 34, 40
1, 10665, Note_off_c, 0, 37, 24
1, 10668, Control_c, 0, 64, 71
1, 10683, Control_c, 0, 64, 64
1, 10698, Control_c, 0, 64, 51
1, 10701, Note_off_c, 0, 61, 37
1, 10713, Control_c, 0, 64, 37
1, 10727, Control_c, 0, 64, 27
1, 10742, Control_c, 0, 64, 24
1, 10757, Control_c, 0, 64, 21
1, 10772, Control_c, 0, 64, 8
1, 10787, Control_c, 0, 64, 0
1, 10980, Control_c, 0, 64, 18
1, 11002, Control_c, 0, 64, 38
1, 11017, Control_c, 0, 64, 48
1, 11032, Control_c, 0, 64, 54
1, 11046, Control_c, 0, 64, 57
1, 11061, Control_c, 0, 64, 59
1, 11076, Control_c, 0, 64, 61
1, 11091, Control_c, 0, 64, 62
1, 11121, Control_c, 0, 64, 63
1, 11151, Control_c, 0, 64, 63
1, 11166, Control_c, 0, 64, 64
1, 11181, Control_c, 0, 64, 65
1, 11195, Control_c, 0, 64, 67
1, 11210, Control_c, 0, 64, 68
1, 11225, Control_c, 0, 64, 70
1, 11240, Control_c, 0, 64, 72
1, 11255, Control_c, 0, 64, 74
1, 11269, Control_c, 0, 64, 78
1, 11284, Control_c, 0, 64, 81
1, 11299, Control_c, 0, 64, 84
1, 11314, Control_c, 0, 64, 87
1, 11329, Control_c, 0, 64, 90
1, 11343, Control_c, 0, 64, 92
1, 11358, Control_c, 0, 64, 96
1, 11373, Control_c, 0, 64, 99
1, 11388, Control_c, 0, 64, 103
1, 11403, Control_c, 0, 64, 108
1, 11417, Control_c, 0, 64, 115
1, 11432, Control_c, 0, 64, 127
1, 12015, Note_on_c, 0, 58, 33
1, 12030, Note_on_c, 0, 34, 27
1, 12213, Note_off_c, 0, 54, 37
1, 12345, Note_on_c, 0, 61, 47
1, 12350, Note_off_c, 0, 30, 35
1, 12356, Note_on_c, 0, 37, 39
1, 12371, Note_off_c, 0, 58, 42
1, 12420, Note_off_c, 0, 61, 54
1, 12422, Note_off_c, 0, 37, 53
1, 12425, Note_off_c, 0, 34, 39
1, 12442, Note_on_c, 0, 66, 51
1, 12445, Note_on_c, 0, 42, 47
1, 12483, Control_c, 0, 64, 107
1, 12498, Control_c, 0, 64, 92
1, 12513, Control_c, 0, 64, 82
1, 12528, Control_c, 0, 64, 72
1, 12543, Control_c, 0, 64, 63
1, 12558, Control_c, 0, 64, 46
1, 12573, Control_c, 0, 64, 26
1, 12588, Control_c, 0, 64, 20
1, 12632, Control_c, 0, 64, 16
1, 12647, Control_c, 0, 64, 0
1, 12860, Note_on_c, 0, 70, 54
1, 12886, Note_on_c, 0, 46, 44
1, 12965, Note_off_c, 0, 66, 38
1, 13100, Note_off_c, 0, 42, 24
1, 13174, Note_on_c, 0, 73, 58
1, 13175, Note_on_c, 0, 49, 47
1, 13211, Note_off_c, 0, 70, 58
1, 13273, Note_on_c, 0, 78, 58
1, 13275, Note_off_c, 0, 46, 47
1, 13276, Note_off_c, 0, 73, 54
1, 13300, Note_off_c, 0, 49, 49
1, 13306, Note_on_c, 0, 54, 40
1, 13440, Control_c, 0, 64, 10
1, 13455, Control_c, 0, 64, 26
1, 13470, Control_c, 0, 64, 41
1, 13485, Control_c, 0, 64, 57
1, 13500, Control_c, 0, 64, 66
1, 13515, Control_c, 0, 64, 73
1, 13530, Control_c, 0, 64, 84
1, 13545, Control_c, 0, 64, 99
1, 13560, Control_c, 0, 64, 112
1, 13575, Control_c, 0, 64, 127
1, 13723, Control_c, 0, 64, 119
1, 13732, Note_on_c, 0, 66, 43
1, 13738, Control_c, 0, 64, 108
1, 13753, Control_c, 0, 64, 99
1, 13755, Note_on_c, 0, 58, 35
1, 13768, Control_c, 0, 64, 90
1, 13783, Control_c, 0, 64, 80
1, 13798, Control_c, 0, 64, 70
1, 13812, Control_c, 0, 64, 59
1, 13813, Note_off_c, 0, 78, 38
1, 13820, Note_off_c, 0, 54, 46
1, 13827, Control_c, 0, 64, 0
1, 13930, Control_c, 0, 64, 48
1, 13945, Control_c, 0, 64, 65
1, 13960, Control_c, 0, 64, 76
1, 13983, Control_c, 0, 64, 93
1, 13998, Control_c, 0, 64, 127
1, 14100, Note_off_c, 0, 66, 37
1, 14325, Note_on_c, 0, 73, 58
1, 14355, Note_on_c, 0, 61, 39
1, 14364, Note_on_c, 0, 56, 41
1, 14375, Note_on_c, 0, 53, 38
1, 14427, Control_c, 0, 64, 109
1, 14442, Control_c, 0, 64, 98
1, 14444, Note_off_c, 0, 58, 41
1, 14457, Control_c, 0, 64, 88
1, 14472, Control_c, 0, 64, 79
1, 14486, Control_c, 0, 64, 66
1, 14501, Control_c, 0, 64, 46
1, 14516, Control_c, 0, 64, 0
1, 14591, Control_c, 0, 64, 48
1, 14606, Control_c, 0, 64, 62
1, 14621, Control_c, 0, 64, 70
1, 14635, Control_c, 0, 64, 79
1, 14650, Control_c, 0, 64, 91
1, 14665, Control_c, 0, 64, 107
1, 14679, Control_c, 0, 64, 127
1, 14865, Control_c, 0, 67, 127
1, 14953, Control_c, 0, 67, 126
1, 14976, Note_off_c, 0, 56, 36
1, 15057, Control_c, 0, 67, 126
1, 15088, Note_off_c, 0, 61, 41
1, 15155, Note_on_c, 0, 75, 60
1, 15162, Note_off_c, 0, 73, 52
1, 15365, Note_off_c, 0, 75, 59
1, 15378, Note_on_c, 0, 73, 60
1, 15422, Note_on_c, 0, 60, 39
1, 15424, Note_on_c, 0, 57, 39
1, 15425, Note_on_c, 0, 54, 37
1, 15443, Control_c, 0, 64, 103
1, 15458, Control_c, 0, 64, 87
1, 15473, Control_c, 0, 64, 72
1, 15495, Control_c, 0, 64, 50
1, 15505, Note_off_c, 0, 53, 42
1, 15509, Control_c, 0, 64, 0
1, 15539, Control_c, 0, 64, 17
1, 15539, Control_c, 0, 67, 125
1, 15541, Note_off_c, 0, 73, 61
1, 15554, Control_c, 0, 64, 58
1, 15557, Note_on_c, 0, 75, 60
1, 15569, Control_c, 0, 64, 69
1, 15583, Control_c, 0, 64, 79
1, 15598, Control_c, 0, 64, 94
1, 15613, Control_c, 0, 64, 109
1, 15618, Note_off_c, 0, 75, 59
1, 15628, Note_on_c, 0, 77, 60
1, 15628, Control_c, 0, 64, 125
1, 15643, Control_c, 0, 64, 127
1, 15686, Note_off_c, 0, 77, 62
1, 15689, Note_on_c, 0, 75, 54
1, 15732, Note_off_c, 0, 75, 61
1, 15742, Note_on_c, 0, 77, 47
1, 15793, Note_off_c, 0, 77, 64
1, 15804, Note_on_c, 0, 75, 63
1, 15860, Note_off_c, 0, 75, 60
1, 15865, Control_c, 0, 67, 126
1, 15873, Note_on_c, 0, 77, 37
1, 15903, Note_off_c, 0, 77, 57
1, 15911, Note_on_c, 0, 75, 50
1, 15954, Note_off_c, 0, 75, 61
1, 15977, Note_on_c, 0, 77, 46
1, 15999, Control_c, 0, 67, 126
1, 16001, Note_off_c, 0, 77, 58
1, 16020, Note_on_c, 0, 75, 49
1, 16045, Note_off_c, 0, 60, 56
1, 16045, Note_off_c, 0, 75, 59
1, 16058, Control_c, 0, 67, 127
1, 16078, Note_on_c, 0, 77, 56
1, 16103, Control_c, 0, 67, 127
1, 16110, Note_off_c, 0, 54, 35
1, 16117, Note_off_c, 0, 57, 51
1, 16134, Note_on_c, 0, 75, 59
1, 16141, Note_off_c, 0, 77, 61
1, 16191, Note_off_c, 0, 75, 56
1, 16230, Note_on_c, 0, 73, 55
1, 16298, Note_off_c, 0, 73, 55
1, 16304, Note_on_c, 0, 77, 54
1, 16388, Note_off_c, 0, 77, 61
1, 16412, Note_on_c, 0, 75, 47
1, 16496, Control_c, 0, 64, 121
1, 16510, Control_c, 0, 64, 110
1, 16525, Control_c, 0, 64, 102
1, 16529, Note_on_c, 0, 73, 45
1, 16533, Note_off_c, 0, 75, 35
1, 16540, Control_c, 0, 64, 95
1, 16553, Note_on_c, 0, 61, 30
1, 16555, Control_c, 0, 64, 88
1, 16564, Note_on_c, 0, 56, 30
1, 16570, Note_on_c, 0, 53, 29
1, 16570, Control_c, 0, 64, 82
1, 16585, Control_c, 0, 64, 75
1, 16600, Control_c, 0, 64, 68
1, 16614, Control_c, 0, 64, 61
1, 16629, Control_c, 0, 64, 49
1, 16644, Control_c, 0, 64, 34
1, 16658, Control_c, 0, 64, 19
1, 16673, Control_c, 0, 64, 0
1, 17193, Note_off_c, 0, 73, 46
1, 17196, Note_off_c, 0, 61, 41
1, 17197, Note_off_c, 0, 56, 41
1, 17204, Note_off_c, 0, 53, 45
1, 17934, Control_c, 0, 64, 17
1, 17949, Control_c, 0, 64, 30
1, 17964, Control_c, 0, 64, 35
1, 17978, Control_c, 0, 64, 39
1, 17993, Control_c, 0, 64, 41
1, 18008, Control_c, 0, 64, 45
1, 18022, Control_c, 0, 64, 49
1, 18037, Control_c, 0, 64, 53
1, 18052, Control_c, 0, 64, 56
1, 18067, Control_c, 0, 64, 58
1, 18082, Control_c, 0, 64, 59
1, 18097, Control_c, 0, 64, 60
1, 18111, Control_c, 0, 64, 61
1, 18126, Control_c, 0, 64, 63
1, 18141, Control_c, 0, 64, 64
1, 18156, Control_c, 0, 64, 66
1, 18171, Control_c, 0, 64, 68
1, 18186, Control_c, 0, 64, 70
1, 18201, Control_c, 0, 64, 73
1, 18216, Control_c, 0, 64, 76
1, 18230, Control_c, 0, 64, 79
1, 18245, Control_c, 0, 64, 83
1, 18260, Control_c, 0, 64, 87
1, 18275, Control_c, 0, 64, 90
1, 18290, Control_c, 0, 64, 95
1, 18305, Control_c, 0, 64, 101
1, 18320, Control_c, 0, 64, 107
1, 18335, Control_c, 0, 64, 118
1, 18350, Control_c, 0, 64, 127
1, 19071, Note_on_c, 0, 67, 39
1, 19073, Note_on_c, 0, 72, 40
1, 19084, Note_on_c, 0, 64, 35
1, 19447, Control_c, 0, 67, 127
1, 19476, Control_c, 0, 67, 126
1, 19491, Control_c, 0, 67, 126
1, 19506, Control_c, 0, 67, 125
1, 19536, Control_c, 0, 67, 125
1, 19550, Control_c, 0, 67, 124
1, 19580, Control_c, 0, 67, 124
1, 19594, Control_c, 0, 67, 123
1, 19609, Control_c, 0, 67, 121
1, 19624, Control_c, 0, 67, 120
1, 19639, Control_c, 0, 67, 119
1, 19816, Control_c, 0, 67, 120
1, 19938, Note_on_c, 0, 74, 45
1, 20001, Note_off_c, 0, 64, 40
1, 20003, Note_off_c, 0, 72, 34
1, 20003, Control_c, 0, 67, 120
1, 20162, Note_off_c, 0, 74, 57
1, 20166, Control_c, 0, 67, 121
1, 20184, Note_on_c, 0, 72, 49
1, 20228, Note_on_c, 0, 68, 36
1, 20231, Note_on_c, 0, 71, 42
1, 20234, Note_on_c, 0, 65, 35
1, 20251, Note_off_c, 0, 67, 40
1, 20254, Control_c, 0, 64, 110
1, 20269, Control_c, 0, 64, 96
1, 20284, Control_c, 0, 64, 82
1, 20299, Control_c, 0, 64, 68
1, 20311, Note_off_c, 0, 72, 61
1, 20314, Control_c, 0, 64, 54
1, 20329, Control_c, 0, 64, 26
1, 20341, Note_on_c, 0, 74, 48
1, 20344, Control_c, 0, 64, 33
1, 20359, Control_c, 0, 64, 54
1, 20373, Control_c, 0, 64, 65
1, 20388, Control_c, 0, 64, 74
1, 20392, Note_off_c, 0, 74, 62
1, 20403, Control_c, 0, 64, 85
1, 20412, Note_on_c, 0, 76, 52
1, 20418, Control_c, 0, 64, 96
1, 20432, Control_c, 0, 64, 104
1, 20438, Note_off_c, 0, 76, 58
1, 20447, Control_c, 0, 64, 108
1, 20462, Control_c, 0, 64, 110
1, 20463, Note_on_c, 0, 74, 44
1, 20477, Control_c, 0, 64, 113
1, 20492, Control_c, 0, 64, 121
1, 20502, Note_off_c, 0, 74, 59
1, 20506, Control_c, 0, 64, 127
1, 20513, Note_on_c, 0, 76, 67
1, 20555, Note_off_c, 0, 76, 57
1, 20594, Note_on_c, 0, 74, 48
1, 20623, Note_off_c, 0, 74, 61
1, 20640, Note_on_c, 0, 76, 52
1, 20669, Note_off_c, 0, 76, 60
1, 20711, Note_on_c, 0, 74, 44
1, 20737, Control_c, 0, 67, 121
1, 20743, Note_off_c, 0, 74, 58
1, 20763, Note_on_c, 0, 76, 60
1, 20767, Control_c, 0, 67, 122
1, 20788, Note_off_c, 0, 76, 60
1, 20821, Note_on_c, 0, 74, 53
1, 20847, Note_off_c, 0, 74, 64
1, 20855, Control_c, 0, 67, 122
1, 20867, Note_on_c, 0, 76, 62
1, 20900, Control_c, 0, 67, 123
1, 20922, Note_off_c, 0, 65, 42
1, 20933, Note_on_c, 0, 74, 52
1, 20940, Note_off_c, 0, 76, 55
1, 20944, Control_c, 0, 67, 123
1, 20959, Control_c, 0, 67, 124
1, 20989, Control_c, 0, 67, 124
1, 20991, Note_off_c, 0, 74, 56
1, 21003, Control_c, 0, 67, 125
1, 21018, Control_c, 0, 67, 125
1, 21032, Note_on_c, 0, 72, 52
1, 21047, Control_c, 0, 67, 126
1, 21062, Control_c, 0, 67, 126
1, 21079, Note_off_c, 0, 72, 59
1, 21091, Note_on_c, 0, 76, 55
1, 21092, Control_c, 0, 67, 127
1, 21121, Control_c, 0, 67, 127
1, 21139, Note_off_c, 0, 76, 53
1, 21166, Control_c, 0, 64, 117
1, 21170, Note_off_c, 0, 68, 36
1, 21181, Control_c, 0, 64, 112
1, 21189, Note_on_c, 0, 74, 44
1, 21195, Control_c, 0, 64, 109
1, 21210, Control_c, 0, 64, 106
1, 21225, Control_c, 0, 64, 103
1, 21238, Note_off_c, 0, 71, 33
1, 21238, Note_off_c, 0, 74, 56
1, 21240, Control_c, 0, 64, 98
1, 21254, Control_c, 0, 64, 92
1, 21269, Control_c, 0, 64, 85
1, 21284, Control_c, 0, 64, 76
1, 21296, Note_on_c, 0, 72, 46
1, 21299, Control_c, 0, 64, 66
1, 21314, Control_c, 0, 64, 50
1, 21318, Note_on_c, 0, 64, 30
1, 21319, Note_on_c, 0, 67, 32
1, 21328, Control_c, 0, 64, 0
1, 21372, Control_c, 0, 64, 37
1, 21387, Control_c, 0, 64, 62
1, 21402, Control_c, 0, 64, 73
1, 21411, Note_off_c, 0, 72, 57
1, 21417, Control_c, 0, 64, 92
1, 21432, Control_c, 0, 64, 127
1, 21437, Note_off_c, 0, 67, 55
1, 21456, Note_off_c, 0, 64, 56
1, 21604, Control_c, 0, 64, 113
1, 21618, Control_c, 0, 64, 99
1, 21633, Control_c, 0, 64, 87
1, 21648, Control_c, 0, 64, 79
1, 21663, Control_c, 0, 64, 72
1, 21677, Control_c, 0, 64, 64
1, 21692, Control_c, 0, 64, 57
1, 21707, Control_c, 0, 64, 48
1, 21722, Control_c, 0, 64, 41
1, 21737, Control_c, 0, 64, 39
1, 21766, Control_c, 0, 64, 38
1, 21781, Control_c, 0, 64, 34
1, 21796, Control_c, 0, 64, 26
1, 21811, Control_c, 0, 64, 12
1, 21825, Control_c, 0, 64, 0
1, 21903, Note_on_c, 0, 37, 52
1, 21948, Note_off_c, 0, 37, 59
1, 22119, Note_on_c, 0, 37, 44
1, 22153, Note_off_c, 0, 37, 53
1, 22327, Note_on_c, 0, 37, 38
1, 22386, Note_off_c, 0, 37, 42
1, 22600, Note_on_c, 0, 36, 28
1, 22618, Control_c, 0, 64, 8
1, 22633, Control_c, 0, 64, 16
1, 22648, Control_c, 0, 64, 23
1, 22663, Control_c, 0, 64, 30
1, 22678, Control_c, 0, 64, 41
1, 22692, Control_c, 0, 64, 49
1, 22707, Control_c, 0, 64, 57
1, 22722, Control_c, 0, 64, 62
1, 22737, Control_c, 0, 64, 65
1, 22752, Control_c, 0, 64, 69
1, 22766, Control_c, 0, 64, 75
1, 22781, Control_c, 0, 64, 82
1, 22796, Control_c, 0, 64, 89
1, 22811, Control_c, 0, 64, 96
1, 22825, Control_c, 0, 64, 101
1, 22840, Control_c, 0, 64, 106
1, 22855, Control_c, 0, 64, 110
1, 22869, Note_off_c, 0, 36, 40
1, 22870, Control_c, 0, 64, 113
1, 22885, Control_c, 0, 64, 116
1, 22899, Control_c, 0, 64, 119
1, 22914, Control_c, 0, 64, 121
1, 23025, Control_c, 0, 64, 120
1, 23040, Control_c, 0, 64, 117
1, 23055, Control_c, 0, 64, 113
1, 23070, Control_c, 0, 64, 110
1, 23085, Control_c, 0, 64, 108
1, 23101, Control_c, 0, 64, 105
1, 23115, Control_c, 0, 64, 101
1, 23130, Control_c, 0, 64, 97
1, 23145, Control_c, 0, 64, 93
1, 23160, Control_c, 0, 64, 89
1, 23175, Control_c, 0, 64, 86
1, 23190, Control_c, 0, 64, 84
1, 23204, Control_c, 0, 64, 81
1, 23219, Control_c, 0, 64, 78
1, 23234, Control_c, 0, 64, 75
1, 23248, Control_c, 0, 64, 70
1, 23263, Control_c, 0, 64, 66
1, 23279, Control_c, 0, 64, 62
1, 23294, Control_c, 0, 64, 57
1, 23309, Control_c, 0, 64, 51
1, 23323, Control_c, 0, 64, 43
1, 23338, Control_c, 0, 64, 30
1, 23353, Control_c, 0, 64, 0
1, 23427, Control_c, 0, 64, 26
1, 23441, Control_c, 0, 64, 53
1, 23456, Control_c, 0, 64, 63
1, 23471, Control_c, 0, 64, 69
1, 23486, Control_c, 0, 64, 76
1, 23501, Control_c, 0, 64, 84
1, 23516, Control_c, 0, 64, 95
1, 23530, Control_c, 0, 64, 103
1, 23545, Control_c, 0, 64, 111
1, 23560, Control_c, 0, 64, 127
1, 23942, Note_on_c, 0, 76, 66
1, 23967, Note_on_c, 0, 73, 45
1, 23969, Note_on_c, 0, 70, 41
1, 23972, Note_on_c, 0, 67, 37
1, 24176, Control_c, 0, 67, 127
1, 24190, Control_c, 0, 67, 126
1, 24205, Control_c, 0, 67, 125
1, 24220, Control_c, 0, 67, 125
1, 24250, Control_c, 0, 67, 124
1, 24383, Control_c, 0, 67, 125
1, 24464, Control_c, 0, 67, 125
1, 24541, Note_off_c, 0, 73, 33
1, 24598, Control_c, 0, 67, 126
1, 24606, Note_off_c, 0, 70, 33
1, 24642, Control_c, 0, 67, 126
1, 24702, Control_c, 0, 67, 127
1, 24747, Control_c, 0, 67, 127
1, 24896, Note_on_c, 0, 77, 53
1, 24955, Note_off_c, 0, 76, 54
1, 25189, Note_off_c, 0, 77, 58
1, 25191, Note_off_c, 0, 67, 41
1, 25192, Note_on_c, 0, 79, 53
1, 25217, Note_on_c, 0, 73, 41
1, 25219, Note_on_c, 0, 70, 34
1, 25224, Note_on_c, 0, 68, 40
1, 25258, Control_c, 0, 64, 122
1, 25273, Control_c, 0, 64, 99
1, 25287, Control_c, 0, 64, 83
1, 25302, Control_c, 0, 64, 68
1, 25317, Control_c, 0, 64, 43
1, 25320, Note_off_c, 0, 79, 59
1, 25332, Control_c, 0, 64, 0
1, 25346, Note_on_c, 0, 77, 48
1, 25346, Control_c, 0, 64, 21
1, 25361, Control_c, 0, 64, 57
1, 25376, Control_c, 0, 64, 69
1, 25391, Control_c, 0, 64, 81
1, 25406, Control_c, 0, 64, 103
1, 25408, Note_off_c, 0, 77, 54
1, 25420, Control_c, 0, 64, 127
1, 25430, Note_on_c, 0, 79, 60
1, 25469, Note_off_c, 0, 79, 58
1, 25508, Note_on_c, 0, 77, 50
1, 25542, Note_off_c, 0, 77, 58
1, 25580, Note_on_c, 0, 79, 48
1, 25605, Note_off_c, 0, 79, 55
1, 25620, Note_on_c, 0, 77, 37
1, 25650, Note_off_c, 0, 77, 56
1, 25668, Note_on_c, 0, 79, 60
1, 25706, Note_off_c, 0, 79, 61
1, 25727, Note_on_c, 0, 77, 59
1, 25760, Note_off_c, 0, 77, 65
1, 25782, Note_on_c, 0, 79, 57
1, 25826, Note_off_c, 0, 79, 57
1, 25838, Note_on_c, 0, 77, 59
1, 25872, Note_off_c, 0, 77, 63
1, 25890, Note_on_c, 0, 79, 49
1, 25971, Note_on_c, 0, 77, 54
1, 25981, Note_off_c, 0, 79, 48
1, 25995, Note_off_c, 0, 70, 38
1, 26037, Note_off_c, 0, 77, 58
1, 26046, Note_off_c, 0, 73, 37
1, 26066, Note_on_c, 0, 76, 56
1, 26125, Note_off_c, 0, 76, 50
1, 26145, Note_on_c, 0, 79, 47
1, 26204, Note_off_c, 0, 79, 52
1, 26243, Note_on_c, 0, 77, 46
1, 26320, Note_off_c, 0, 68, 30
1, 26320, Control_c, 0, 64, 121
1, 26324, Note_off_c, 0, 77, 56
1, 26334, Control_c, 0, 64, 106
1, 26349, Control_c, 0, 64, 96
1, 26364, Control_c, 0, 64, 87
1, 26373, Note_on_c, 0, 76, 47
1, 26379, Control_c, 0, 64, 75
1, 26393, Control_c, 0, 64, 65
1, 26399, Note_on_c, 0, 70, 26
1, 26399, Note_on_c, 0, 73, 26
1, 26408, Note_on_c, 0, 67, 31
1, 26408, Control_c, 0, 64, 43
1, 26423, Control_c, 0, 64, 0
1, 26461, Note_off_c, 0, 73, 0
1, 26461, Note_on_c, 0, 73, 3
1, 26467, Control_c, 0, 64, 22
1, 26482, Control_c, 0, 64, 55
1, 26497, Control_c, 0, 64, 68
1, 26512, Control_c, 0, 64, 82
1, 26527, Control_c, 0, 64, 127
1, 26533, Note_off_c, 0, 73, 56
1, 26542, Note_off_c, 0, 76, 52
1, 26546, Note_off_c, 0, 70, 58
1, 26555, Note_off_c, 0, 67, 53
1, 26690, Control_c, 0, 64, 102
1, 26705, Control_c, 0, 64, 85
1, 26727, Control_c, 0, 64, 71
1, 26741, Control_c, 0, 64, 58
1, 26756, Control_c, 0, 64, 25
1, 26771, Control_c, 0, 64, 0
1, 27009, Note_on_c, 0, 37, 52
1, 27046, Note_off_c, 0, 37, 60
1, 27203, Note_on_c, 0, 37, 42
1, 27237, Note_off_c, 0, 37, 54
1, 27388, Note_on_c, 0, 37, 44
1, 27435, Note_off_c, 0, 37, 58
1, 27519, Control_c, 0, 64, 8
1, 27549, Control_c, 0, 64, 10
1, 27564, Control_c, 0, 64, 12
1, 27579, Control_c, 0, 64, 13
1, 27593, Control_c, 0, 64, 15
1, 27608, Control_c, 0, 64, 17
1, 27623, Control_c, 0, 64, 21
1, 27638, Control_c, 0, 64, 24
1, 27644, Note_on_c, 0, 36, 31
1, 27653, Control_c, 0, 64, 28
1, 27668, Control_c, 0, 64, 35
1, 27683, Control_c, 0, 64, 45
1, 27697, Control_c, 0, 64, 55
1, 27712, Control_c, 0, 64, 62
1, 27727, Control_c, 0, 64, 66
1, 27741, Control_c, 0, 64, 71
1, 27756, Control_c, 0, 64, 79
1, 27771, Control_c, 0, 64, 90
1, 27786, Control_c, 0, 64, 106
1, 27797, Note_off_c, 0, 36, 50
1, 27801, Control_c, 0, 64, 127
1, 27905, Control_c, 0, 67, 127
1, 28009, Control_c, 0, 64, 125
1, 28024, Control_c, 0, 64, 104
1, 28038, Control_c, 0, 64, 91
1, 28053, Control_c, 0, 64, 80
1, 28068, Control_c, 0, 64, 71
1, 28083, Control_c, 0, 64, 62
1, 28098, Control_c, 0, 64, 52
1, 28112, Control_c, 0, 64, 47
1, 28127, Control_c, 0, 64, 46
1, 28209, Control_c, 0, 64, 46
1, 28312, Control_c, 0, 67, 127
1, 28348, Note_on_c, 0, 79, 37
1, 28351, Note_on_c, 0, 76, 40
1, 28383, Note_off_c, 0, 79, 51
1, 28388, Note_off_c, 0, 76, 51
1, 28553, Note_on_c, 0, 79, 47
1, 28561, Note_on_c, 0, 76, 40
1, 28600, Note_off_c, 0, 79, 58
1, 28610, Note_off_c, 0, 76, 49
1, 28758, Note_on_c, 0, 76, 38
1, 28758, Note_on_c, 0, 79, 44
1, 28787, Control_c, 0, 64, 46
1, 28804, Note_off_c, 0, 79, 55
1, 28832, Note_off_c, 0, 76, 41
1, 28876, Control_c, 0, 64, 47
1, 28921, Control_c, 0, 64, 47
1, 28935, Control_c, 0, 64, 48
1, 28987, Control_c, 0, 64, 48
1, 29017, Control_c, 0, 64, 49
1, 29032, Control_c, 0, 64, 50
1, 29047, Control_c, 0, 64, 51
1, 29061, Control_c, 0, 64, 52
1, 29073, Note_on_c, 0, 82, 42
1, 29076, Control_c, 0, 64, 54
1, 29091, Control_c, 0, 64, 57
1, 29098, Note_on_c, 0, 79, 38
1, 29106, Control_c, 0, 64, 59
1, 29121, Control_c, 0, 64, 62
1, 29135, Control_c, 0, 64, 65
1, 29150, Control_c, 0, 64, 67
1, 29165, Control_c, 0, 64, 72
1, 29179, Control_c, 0, 64, 78
1, 29194, Control_c, 0, 64, 86
1, 29208, Note_off_c, 0, 79, 58
1, 29209, Control_c, 0, 64, 96
1, 29221, Note_off_c, 0, 82, 58
1, 29224, Control_c, 0, 64, 106
1, 29239, Control_c, 0, 64, 117
1, 29254, Control_c, 0, 64, 127
1, 29582, Control_c, 0, 64, 121
1, 29597, Control_c, 0, 64, 116
1, 29611, Control_c, 0, 64, 111
1, 29626, Control_c, 0, 64, 107
1, 29641, Control_c, 0, 64, 104
1, 29656, Control_c, 0, 64, 100
1, 29671, Control_c, 0, 64, 96
1, 29685, Control_c, 0, 64, 93
1, 29700, Control_c, 0, 64, 90
1, 29722, Control_c, 0, 64, 88
1, 29737, Control_c, 0, 64, 85
1, 29752, Control_c, 0, 64, 83
1, 29767, Control_c, 0, 64, 81
1, 29781, Control_c, 0, 64, 79
1, 29796, Control_c, 0, 64, 77
1, 29811, Control_c, 0, 64, 75
1, 29826, Control_c, 0, 64, 74
1, 29841, Control_c, 0, 64, 72
1, 29856, Control_c, 0, 64, 70
1, 29871, Control_c, 0, 64, 69
1, 29885, Control_c, 0, 64, 68
1, 29900, Control_c, 0, 64, 67
1, 29915, Control_c, 0, 64, 66
1, 29930, Control_c, 0, 64, 64
1, 29945, Control_c, 0, 64, 63
1, 29959, Control_c, 0, 64, 62
1, 29974, Control_c, 0, 64, 62
1, 29989, Control_c, 0, 64, 60
1, 29990, Note_on_c, 0, 37, 36
1, 30003, Control_c, 0, 64, 57
1, 30018, Control_c, 0, 64, 52
1, 30033, Control_c, 0, 64, 43
1, 30047, Note_off_c, 0, 37, 57
1, 30048, Control_c, 0, 64, 28
1, 30063, Control_c, 0, 64, 0
1, 30282, Note_on_c, 0, 37, 30
1, 30329, Note_off_c, 0, 37, 47
1, 30555, Note_on_c, 0, 37, 30
1, 30628, Note_off_c, 0, 37, 39
1, 30992, Note_on_c, 0, 36, 27
1, 31033, Control_c, 0, 64, 12
1, 31048, Control_c, 0, 64, 20
1, 31063, Control_c, 0, 64, 28
1, 31078, Control_c, 0, 64, 36
1, 31093, Control_c, 0, 64, 42
1, 31108, Control_c, 0, 64, 47
1, 31123, Control_c, 0, 64, 51
1, 31138, Control_c, 0, 64, 54
1, 31153, Control_c, 0, 64, 57
1, 31168, Control_c, 0, 64, 61
1, 31182, Control_c, 0, 64, 63
1, 31197, Control_c, 0, 64, 64
1, 31219, Control_c, 0, 64, 66
1, 31234, Control_c, 0, 64, 68
1, 31249, Control_c, 0, 64, 71
1, 31263, Control_c, 0, 64, 75
1, 31278, Control_c, 0, 64, 79
1, 31293, Control_c, 0, 64, 83
1, 31308, Control_c, 0, 64, 87
1, 31323, Control_c, 0, 64, 90
1, 31337, Control_c, 0, 64, 93
1, 31352, Control_c, 0, 64, 96
1, 31367, Control_c, 0, 64, 100
1, 31382, Control_c, 0, 64, 105
1, 31397, Control_c, 0, 64, 112
1, 31412, Control_c, 0, 64, 127
1, 31862, Note_off_c, 0, 36, 29
1, 32427, Control_c, 0, 64, 108
1, 32442, Control_c, 0, 64, 83
1, 32457, Control_c, 0, 64, 56
1, 32472, Control_c, 0, 64, 0
1, 32486, Control_c, 0, 67, 127
1, 32501, Control_c, 0, 64, 38
1, 32501, Control_c, 0, 67, 126
1, 32516, Control_c, 0, 64, 65
1, 32516, Control_c, 0, 67, 126
1, 32530, Control_c, 0, 64, 83
1, 32530, Control_c, 0, 67, 125
1, 32541, Note_on_c, 0, 82, 102
1, 32545, Control_c, 0, 64, 127
1, 32545, Control_c, 0, 67, 124
1, 32546, Note_on_c, 0, 79, 96
1, 32560, Control_c, 0, 67, 122
1, 32575, Control_c, 0, 67, 118
1, 32583, Note_off_c, 0, 82, 67
1, 32584, Note_off_c, 0, 79, 60
1, 32590, Control_c, 0, 67, 111
1, 32604, Control_c, 0, 67, 98
1, 32619, Control_c, 0, 67, 74
1, 32634, Control_c, 0, 67, 49
1, 32649, Control_c, 0, 67, 25
1, 32664, Control_c, 0, 67, 0
1, 32685, Note_on_c, 0, 82, 106
1, 32691, Note_on_c, 0, 79, 85
1, 32726, Note_off_c, 0, 79, 62
1, 32730, Note_off_c, 0, 82, 67
1, 32822, Note_on_c, 0, 82, 96
1, 32824, Note_on_c, 0, 79, 89
1, 32861, Note_off_c, 0, 82, 66
1, 32955, Note_on_c, 0, 88, 100
1, 32987, Note_off_c, 0, 79, 64
1, 33040, Note_on_c, 0, 82, 96
1, 33057, Note_off_c, 0, 88, 64
1, 33093, Note_off_c, 0, 82, 66
1, 33114, Note_on_c, 0, 91, 72
1, 33135, Note_off_c, 0, 91, 55
1, 33165, Note_on_c, 0, 88, 89
1, 33226, Note_off_c, 0, 88, 66
1, 33227, Note_on_c, 0, 94, 87
1, 33277, Note_on_c, 0, 91, 86
1, 33300, Note_off_c, 0, 94, 65
1, 33327, Note_off_c, 0, 91, 62
1, 33336, Note_on_c, 0, 88, 87
1, 33376, Note_on_c, 0, 91, 82
1, 33381, Note_off_c, 0, 88, 67
1, 33442, Note_off_c, 0, 91, 57
1, 33460, Note_on_c, 0, 82, 84
1, 33485, Note_on_c, 0, 88, 78
1, 33508, Note_off_c, 0, 82, 51
1, 33544, Note_off_c, 0, 88, 67
1, 33555, Note_on_c, 0, 79, 83
1, 33584, Note_off_c, 0, 79, 60
1, 33610, Note_on_c, 0, 82, 94
1, 33656, Note_off_c, 0, 82, 65
1, 33671, Note_on_c, 0, 76, 82
1, 33700, Note_off_c, 0, 76, 66
1, 33713, Note_on_c, 0, 79, 84
1, 33784, Note_off_c, 0, 79, 56
1, 33811, Note_on_c, 0, 76, 72
1, 33843, Note_on_c, 0, 77, 16
1, 33861, Note_off_c, 0, 76, 63
1, 33885, Note_on_c, 0, 67, 77
1, 33886, Note_off_c, 0, 77, 48
1, 33897, Poly_aftertouch_c, 0, 75, 127
1, 33922, Poly_aftertouch_c, 0, 75, 0
1, 33928, Note_on_c, 0, 70, 91
1, 33939, Note_off_c, 0, 67, 56
1, 33976, Note_off_c, 0, 70, 64
1, 34005, Note_on_c, 0, 64, 75
1, 34029, Note_off_c, 0, 64, 70
1, 34038, Note_on_c, 0, 67, 90
1, 34104, Note_on_c, 0, 64, 64
1, 34107, Note_off_c, 0, 67, 57
1, 34124, Note_on_c, 0, 58, 80
1, 34166, Note_off_c, 0, 58, 56
1, 34182, Note_off_c, 0, 64, 65
1, 34214, Poly_aftertouch_c, 0, 63, 127
1, 34220, Note_on_c, 0, 55, 79
1, 34246, Poly_aftertouch_c, 0, 63, 0
1, 34252, Note_off_c, 0, 55, 54
1, 34273, Note_on_c, 0, 58, 81
1, 34300, Note_on_c, 0, 60, 29
1, 34308, Note_off_c, 0, 58, 58
1, 34330, Note_on_c, 0, 52, 76
1, 34336, Note_off_c, 0, 60, 53
1, 34345, Poly_aftertouch_c, 0, 56, 127
1, 34356, Note_off_c, 0, 52, 67
1, 34372, Poly_aftertouch_c, 0, 56, 0
1, 34383, Note_on_c, 0, 55, 56
1, 34396, Note_on_c, 0, 53, 65
1, 34408, Note_on_c, 0, 52, 65
1, 34437, Note_off_c, 0, 55, 63
1, 34443, Note_on_c, 0, 46, 72
1, 34452, Note_on_c, 0, 51, 18
1, 34505, Note_on_c, 0, 31, 72
1, 34508, Note_off_c, 0, 51, 45
1, 34509, Note_off_c, 0, 52, 64
1, 34516, Note_off_c, 0, 53, 34
1, 34518, Note_off_c, 0, 46, 64
1, 34536, Note_on_c, 0, 34, 76
1, 34601, Note_on_c, 0, 40, 91
1, 34622, Note_off_c, 0, 31, 61
1, 34640, Note_off_c, 0, 34, 63
1, 34649, Note_off_c, 0, 40, 62
1, 34684, Note_on_c, 0, 43, 78
1, 34726, Note_on_c, 0, 46, 79
1, 34745, Note_off_c, 0, 43, 61
1, 34748, Note_on_c, 0, 49, 81
1, 34761, Note_off_c, 0, 46, 66
1, 34783, Note_on_c, 0, 52, 72
1, 34789, Note_off_c, 0, 49, 62
1, 34804, Note_on_c, 0, 50, 61
1, 34836, Note_off_c, 0, 50, 68
1, 34840, Note_on_c, 0, 55, 85
1, 34882, Note_off_c, 0, 52, 61
1, 34914, Note_on_c, 0, 58, 122
1, 34921, Note_off_c, 0, 55, 63
1, 34936, Note_off_c, 0, 58, 70
1, 35096, Control_c, 0, 64, 98
1, 35111, Control_c, 0, 64, 70
1, 35126, Control_c, 0, 64, 0
1, 35363, Note_on_c, 0, 61, 93
1, 35365, Note_on_c, 0, 49, 97
1, 35365, Note_on_c, 0, 56, 95
1, 35366, Note_on_c, 0, 41, 105
1, 35372, Note_on_c, 0, 29, 92
1, 35383, Note_off_c, 0, 56, 73
1, 35384, Note_off_c, 0, 49, 71
1, 35389, Note_off_c, 0, 61, 67
1, 35392, Control_c, 0, 64, 67
1, 35393, Note_off_c, 0, 29, 67
1, 35403, Note_off_c, 0, 41, 67
1, 35407, Control_c, 0, 64, 127
1, 35614, Control_c, 0, 64, 102
1, 35629, Control_c, 0, 64, 85
1, 35644, Control_c, 0, 64, 71
1, 35659, Control_c, 0, 64, 56
1, 35674, Control_c, 0, 64, 0
1, 36222, Note_on_c, 0, 60, 40
1, 36226, Note_on_c, 0, 52, 41
1, 36229, Note_on_c, 0, 55, 38
1, 36244, Note_on_c, 0, 48, 33
1, 36259, Note_on_c, 0, 43, 43
1, 36262, Note_on_c, 0, 40, 29
1, 36290, Control_c, 0, 64, 16
1, 36305, Control_c, 0, 64, 25
1, 36319, Control_c, 0, 64, 31
1, 36334, Control_c, 0, 64, 35
1, 36349, Control_c, 0, 64, 39
1, 36364, Control_c, 0, 64, 44
1, 36378, Control_c, 0, 64, 48
1, 36393, Control_c, 0, 64, 53
1, 36408, Control_c, 0, 64, 57
1, 36423, Control_c, 0, 64, 60
1, 36445, Control_c, 0, 64, 62
1, 36460, Control_c, 0, 64, 65
1, 36475, Control_c, 0, 64, 67
1, 36490, Control_c, 0, 64, 69
1, 36505, Control_c, 0, 64, 72
1, 36519, Control_c, 0, 64, 76
1, 36534, Control_c, 0, 64, 80
1, 36549, Control_c, 0, 64, 86
1, 36564, Control_c, 0, 64, 92
1, 36578, Control_c, 0, 64, 98
1, 36593, Control_c, 0, 64, 106
1, 36608, Control_c, 0, 64, 122
1, 36623, Control_c, 0, 64, 127
1, 37846, Control_c, 0, 67, 8
1, 37861, Control_c, 0, 67, 9
1, 37876, Control_c, 0, 67, 11
1, 37890, Control_c, 0, 67, 12
1, 37905, Control_c, 0, 67, 13
1, 37920, Control_c, 0, 67, 15
1, 37935, Control_c, 0, 67, 16
1, 37957, Control_c, 0, 67, 17
1, 37987, Control_c, 0, 67, 17
1, 38002, Control_c, 0, 67, 18
1, 38017, Control_c, 0, 67, 18
1, 38031, Control_c, 0, 67, 20
1, 38046, Control_c, 0, 67, 21
1, 38061, Control_c, 0, 67, 23
1, 38076, Control_c, 0, 67, 25
1, 38091, Control_c, 0, 67, 27
1, 38105, Control_c, 0, 67, 30
1, 38120, Control_c, 0, 67, 32
1, 38135, Control_c, 0, 67, 33
1, 38149, Control_c, 0, 67, 34
1, 38164, Control_c, 0, 67, 34
1, 38179, Control_c, 0, 67, 35
1, 38194, Control_c, 0, 67, 35
1, 38209, Control_c, 0, 67, 37
1, 38223, Control_c, 0, 67, 38
1, 38238, Control_c, 0, 67, 39
1, 38253, Control_c, 0, 67, 39
1, 38372, Control_c, 0, 67, 39
1, 38402, Control_c, 0, 67, 38
1, 38447, Control_c, 0, 67, 38
1, 38595, Control_c, 0, 67, 37
1, 38766, Control_c, 0, 67, 37
1, 38989, Note_off_c, 0, 48, 37
1, 39022, Note_off_c, 0, 55, 36
1, 39062, Control_c, 0, 67, 37
1, 39064, Note_off_c, 0, 43, 36
1, 39102, Note_off_c, 0, 40, 30
1, 39124, Note_off_c, 0, 52, 40
1, 39159, Note_off_c, 0, 60, 52
1, 39196, Control_c, 0, 67, 38
1, 39314, Control_c, 0, 67, 38
1, 39389, Control_c, 0, 67, 39
1, 39470, Control_c, 0, 67, 39
1, 39544, Control_c, 0, 64, 118
1, 39559, Control_c, 0, 64, 111
1, 39574, Control_c, 0, 64, 107
1, 39589, Control_c, 0, 64, 103
1, 39603, Control_c, 0, 64, 102
1, 39618, Control_c, 0, 64, 100
1, 39633, Control_c, 0, 64, 98
1, 39648, Control_c, 0, 64, 96
1, 39663, Control_c, 0, 64, 93
1, 39663, Control_c, 0, 67, 40
1, 39678, Control_c, 0, 64, 90
1, 39693, Control_c, 0, 64, 88
1, 39708, Control_c, 0, 64, 86
1, 39722, Control_c, 0, 64, 84
1, 39737, Control_c, 0, 64, 82
1, 39752, Control_c, 0, 64, 80
1, 39767, Control_c, 0, 64, 77
1, 39782, Control_c, 0, 64, 74
1, 39796, Control_c, 0, 64, 72
1, 39811, Control_c, 0, 64, 69
1, 39826, Control_c, 0, 64, 66
1, 39841, Control_c, 0, 64, 64
1, 39856, Control_c, 0, 64, 63
1, 39872, Control_c, 0, 64, 61
1, 39901, Control_c, 0, 64, 61
1, 39916, Control_c, 0, 64, 60
1, 39931, Control_c, 0, 64, 58
1, 39945, Control_c, 0, 64, 57
1, 39948, Note_on_c, 0, 60, 32
1, 39960, Control_c, 0, 64, 54
1, 39965, Note_on_c, 0, 36, 33
1, 39975, Control_c, 0, 64, 49
1, 39990, Control_c, 0, 64, 43
1, 40005, Control_c, 0, 64, 34
1, 40019, Control_c, 0, 64, 22
1, 40034, Control_c, 0, 64, 8
1, 40049, Control_c, 0, 64, 0
1, 40406, Note_on_c, 0, 32, 57
1, 40408, Note_on_c, 0, 56, 65
1, 40435, Note_off_c, 0, 36, 40
1, 40443, Note_off_c, 0, 60, 45
1, 40446, Note_off_c, 0, 32, 62
1, 40456, Control_c, 0, 67, 39
1, 40471, Note_off_c, 0, 56, 59
1, 40479, Note_on_c, 0, 29, 93
1, 40480, Note_on_c, 0, 53, 95
1, 40486, Control_c, 0, 67, 39
1, 40501, Control_c, 0, 67, 37
1, 40516, Control_c, 0, 67, 35
1, 40531, Control_c, 0, 67, 31
1, 40545, Control_c, 0, 67, 25
1, 40560, Control_c, 0, 64, 54
1, 40560, Control_c, 0, 67, 8
1, 40575, Control_c, 0, 64, 69
1, 40575, Control_c, 0, 67, 0
1, 40590, Control_c, 0, 64, 86
1, 40605, Control_c, 0, 64, 127
1, 40697, Note_off_c, 0, 53, 57
1, 40789, Note_off_c, 0, 29, 58
1, 40822, Note_on_c, 0, 65, 65
1, 40828, Note_on_c, 0, 53, 57
1, 40828, Note_on_c, 0, 60, 51
1, 40835, Note_on_c, 0, 56, 45
1, 40900, Note_off_c, 0, 53, 63
1, 40907, Note_off_c, 0, 56, 63
1, 40918, Note_off_c, 0, 60, 64
1, 40952, Note_off_c, 0, 65, 62
1, 41016, Note_on_c, 0, 41, 62
1, 41019, Note_on_c, 0, 32, 61
1, 41022, Note_on_c, 0, 36, 62
1, 41022, Note_on_c, 0, 29, 66
1, 41167, Note_on_c, 0, 68, 83
1, 41168, Note_on_c, 0, 56, 81
1, 41168, Note_on_c, 0, 65, 70
1, 41177, Note_on_c, 0, 60, 65
1, 41204, Note_off_c, 0, 60, 66
1, 41209, Note_off_c, 0, 41, 61
1, 41211, Note_off_c, 0, 29, 59
1, 41222, Note_off_c, 0, 56, 63
1, 41225, Note_off_c, 0, 65, 62
1, 41228, Note_off_c, 0, 36, 55
1, 41237, Note_off_c, 0, 32, 53
1, 41249, Note_off_c, 0, 68, 65
1, 41297, Note_on_c, 0, 36, 73
1, 41299, Note_on_c, 0, 41, 91
1, 41302, Note_on_c, 0, 32, 59
1, 41304, Note_on_c, 0, 29, 79
1, 41411, Note_on_c, 0, 60, 76
1, 41411, Note_on_c, 0, 72, 93
1, 41413, Note_on_c, 0, 68, 77
1, 41419, Note_off_c, 0, 41, 61
1, 41423, Note_on_c, 0, 65, 43
1, 41428, Note_off_c, 0, 29, 60
1, 41435, Note_off_c, 0, 60, 68
1, 41436, Note_off_c, 0, 68, 70
1, 41452, Note_off_c, 0, 65, 54
1, 41455, Note_off_c, 0, 36, 53
1, 41458, Note_off_c, 0, 32, 56
1, 41464, Note_off_c, 0, 72, 62
1, 41515, Note_on_c, 0, 36, 81
1, 41517, Note_on_c, 0, 41, 98
1, 41524, Note_on_c, 0, 29, 88
1, 41526, Note_on_c, 0, 32, 71
1, 41623, Note_on_c, 0, 68, 90
1, 41625, Note_on_c, 0, 72, 85
1, 41625, Note_on_c, 0, 77, 93
1, 41633, Note_on_c, 0, 65, 78
1, 41642, Note_off_c, 0, 68, 71
1, 41648, Note_off_c, 0, 72, 67
1, 41652, Note_off_c, 0, 41, 58
1, 41654, Note_off_c, 0, 65, 64
1, 41660, Note_off_c, 0, 29, 61
1, 41676, Note_off_c, 0, 77, 66
1, 41690, Note_off_c, 0, 32, 58
1, 41699, Note_off_c, 0, 36, 59
1, 41736, Note_on_c, 0, 36, 78
1, 41738, Note_on_c, 0, 41, 98
1, 41747, Note_on_c, 0, 29, 85
1, 41747, Note_on_c, 0, 32, 67
1, 41815, Note_on_c, 0, 72, 7
1, 41844, Note_on_c, 0, 77, 84
1, 41845, Note_on_c, 0, 68, 96
1, 41845, Note_on_c, 0, 80, 102
1, 41874, Note_off_c, 0, 29, 60
1, 41875, Note_off_c, 0, 41, 60
1, 41877, Note_off_c, 0, 72, 60
1, 41879, Note_off_c, 0, 68, 68
1, 41885, Note_off_c, 0, 77, 66
1, 41913, Note_off_c, 0, 36, 55
1, 41922, Note_off_c, 0, 80, 58
1, 41929, Note_off_c, 0, 32, 39
1, 41964, Note_on_c, 0, 36, 79
1, 41964, Note_on_c, 0, 41, 101
1, 41970, Note_on_c, 0, 29, 91
1, 41973, Note_on_c, 0, 32, 69
1, 42006, Note_on_c, 0, 72, 22
1, 42045, Note_off_c, 0, 72, 0
1, 42060, Note_on_c, 0, 72, 60
1, 42063, Note_on_c, 0, 80, 90
1, 42070, Note_on_c, 0, 84, 94
1, 42079, Note_on_c, 0, 77, 52
1, 42082, Note_on_c, 0, 82, 67
1, 42087, Note_off_c, 0, 72, 68
1, 42096, Note_off_c, 0, 29, 62
1, 42099, Note_off_c, 0, 82, 66
1, 42099, Note_off_c, 0, 41, 52
1, 42100, Note_off_c, 0, 80, 66
1, 42102, Note_off_c, 0, 77, 62
1, 42107, Note_off_c, 0, 32, 53
1, 42108, Note_off_c, 0, 36, 55
1, 42112, Note_off_c, 0, 84, 66
1, 42236, Note_on_c, 0, 80, 97
1, 42239, Note_on_c, 0, 84, 86
1, 42239, Note_on_c, 0, 89, 111
1, 42242, Note_on_c, 0, 77, 97
1, 42243, Note_on_c, 0, 41, 104
1, 42244, Note_on_c, 0, 36, 91
1, 42247, Note_on_c, 0, 29, 99
1, 42251, Note_on_c, 0, 32, 86
1, 42265, Note_on_c, 0, 85, 48
1, 42266, Note_off_c, 0, 85, 127
1, 42414, Note_off_c, 0, 89, 62
1, 42445, Note_off_c, 0, 84, 65
1, 42463, Note_off_c, 0, 80, 66
1, 42471, Note_off_c, 0, 77, 63
1, 42881, Control_c, 0, 67, 8
1, 42895, Control_c, 0, 67, 8
1, 42910, Control_c, 0, 67, 9
1, 42925, Control_c, 0, 67, 10
1, 42939, Control_c, 0, 67, 11
1, 42954, Control_c, 0, 67, 12
1, 42969, Control_c, 0, 67, 12
1, 42999, Control_c, 0, 67, 13
1, 43029, Control_c, 0, 67, 13
1, 43043, Control_c, 0, 67, 14
1, 43059, Control_c, 0, 67, 15
1, 43070, Note_off_c, 0, 41, 23
1, 43074, Control_c, 0, 67, 16
1, 43089, Control_c, 0, 67, 17
1, 43103, Control_c, 0, 67, 17
1, 43133, Control_c, 0, 67, 18
1, 43148, Control_c, 0, 67, 18
1, 43155, Poly_aftertouch_c, 0, 53, 127
1, 43163, Control_c, 0, 67, 19
1, 43185, Control_c, 0, 64, 115
1, 43185, Control_c, 0, 67, 20
1, 43200, Control_c, 0, 64, 109
1, 43200, Control_c, 0, 67, 20
1, 43213, Note_off_c, 0, 32, 21
1, 43215, Control_c, 0, 64, 103
1, 43215, Control_c, 0, 67, 21
1, 43230, Control_c, 0, 64, 100
1, 43244, Control_c, 0, 64, 97
1, 43259, Control_c, 0, 64, 95
1, 43259, Control_c, 0, 67, 21
1, 43274, Control_c, 0, 64, 93
1, 43274, Control_c, 0, 67, 22
1, 43289, Control_c, 0, 64, 90
1, 43289, Control_c, 0, 67, 23
1, 43303, Note_off_c, 0, 36, 22
1, 43304, Control_c, 0, 64, 87
1, 43304, Control_c, 0, 67, 25
1, 43318, Control_c, 0, 64, 85
1, 43318, Control_c, 0, 67, 26
1, 43333, Control_c, 0, 64, 82
1, 43333, Control_c, 0, 67, 26
1, 43348, Control_c, 0, 64, 80
1, 43362, Control_c, 0, 64, 77
1, 43362, Control_c, 0, 67, 27
1, 43377, Control_c, 0, 64, 74
1, 43377, Control_c, 0, 67, 27
1, 43392, Control_c, 0, 64, 71
1, 43392, Control_c, 0, 67, 28
1, 43407, Control_c, 0, 64, 69
1, 43407, Control_c, 0, 67, 30
1, 43422, Control_c, 0, 64, 67
1, 43422, Control_c, 0, 67, 31
1, 43437, Control_c, 0, 64, 65
1, 43437, Control_c, 0, 67, 32
1, 43452, Control_c, 0, 64, 64
1, 43452, Control_c, 0, 67, 33
1, 43467, Control_c, 0, 64, 63
1, 43467, Control_c, 0, 67, 34
1, 43482, Control_c, 0, 64, 62
1, 43482, Control_c, 0, 67, 35
1, 43496, Control_c, 0, 64, 60
1, 43496, Control_c, 0, 67, 37
1, 43511, Control_c, 0, 64, 59
1, 43511, Control_c, 0, 67, 38
1, 43526, Control_c, 0, 64, 57
1, 43526, Control_c, 0, 67, 39
1, 43541, Control_c, 0, 64, 54
1, 43541, Control_c, 0, 67, 41
1, 43556, Control_c, 0, 64, 51
1, 43556, Control_c, 0, 67, 42
1, 43570, Control_c, 0, 64, 48
1, 43570, Control_c, 0, 67, 44
1, 43585, Control_c, 0, 64, 44
1, 43585, Control_c, 0, 67, 46
1, 43600, Control_c, 0, 64, 38
1, 43600, Control_c, 0, 67, 48
1, 43615, Control_c, 0, 64, 26
1, 43615, Control_c, 0, 67, 49
1, 43630, Control_c, 0, 64, 0
1, 43630, Control_c, 0, 67, 51
1, 43644, Control_c, 0, 67, 52
1, 43659, Control_c, 0, 67, 53
1, 43674, Control_c, 0, 67, 54
1, 43688, Control_c, 0, 67, 55
1, 43703, Control_c, 0, 67, 56
1, 43718, Control_c, 0, 67, 57
1, 43725, Note_on_c, 0, 56, 44
1, 43733, Control_c, 0, 67, 58
1, 43748, Control_c, 0, 67, 59
1, 43750, Note_on_c, 0, 32, 37
1, 43762, Control_c, 0, 67, 60
1, 43777, Control_c, 0, 67, 61
1, 43792, Control_c, 0, 67, 61
1, 43807, Control_c, 0, 67, 62
1, 43812, Poly_aftertouch_c, 0, 53, 0
1, 43822, Control_c, 0, 67, 62
1, 43824, Note_off_c, 0, 29, 59
1, 43852, Control_c, 0, 67, 63
1, 44040, Note_on_c, 0, 60, 54
1, 44047, Note_on_c, 0, 36, 46
1, 44048, Note_off_c, 0, 56, 57
1, 44108, Note_off_c, 0, 32, 42
1, 44116, Note_on_c, 0, 65, 63
1, 44117, Note_off_c, 0, 60, 62
1, 44117, Note_off_c, 0, 36, 58
1, 44137, Note_on_c, 0, 41, 54
1, 44307, Note_off_c, 0, 41, 0
1, 44307, Note_on_c, 0, 41, 3
1, 44507, Note_on_c, 0, 68, 55
1, 44519, Note_on_c, 0, 44, 51
1, 44556, Control_c, 0, 67, 62
1, 44571, Control_c, 0, 67, 62
1, 44600, Note_off_c, 0, 65, 35
1, 44600, Control_c, 0, 67, 61
1, 44645, Control_c, 0, 67, 61
1, 44699, Note_off_c, 0, 41, 34
1, 44812, Note_on_c, 0, 48, 47
1, 44814, Note_on_c, 0, 72, 56
1, 44823, Note_off_c, 0, 68, 59
1, 44886, Note_off_c, 0, 48, 57
1, 44889, Note_off_c, 0, 44, 49
1, 44898, Note_off_c, 0, 72, 61
1, 44899, Note_on_c, 0, 77, 59
1, 44912, Note_on_c, 0, 53, 37
1, 44964, Control_c, 0, 67, 60
1, 45008, Control_c, 0, 67, 60
1, 45023, Control_c, 0, 67, 59
1, 45038, Control_c, 0, 67, 59
1, 45068, Control_c, 0, 67, 58
1, 45082, Control_c, 0, 67, 58
1, 45097, Control_c, 0, 67, 57
1, 45112, Control_c, 0, 67, 57
1, 45127, Control_c, 0, 67, 56
1, 45142, Control_c, 0, 67, 56
1, 45172, Control_c, 0, 67, 55
1, 45187, Control_c, 0, 67, 55
1, 45202, Control_c, 0, 67, 54
1, 45231, Control_c, 0, 67, 54
1, 45246, Control_c, 0, 67, 53
1, 45275, Control_c, 0, 67, 53
1, 45291, Note_off_c, 0, 53, 47
1, 45293, Note_on_c, 0, 41, 46
1, 45302, Note_on_c, 0, 65, 45
1, 45305, Control_c, 0, 67, 52
1, 45320, Control_c, 0, 67, 51
1, 45332, Note_off_c, 0, 77, 32
1, 45334, Control_c, 0, 64, 21
1, 45334, Control_c, 0, 67, 48
1, 45349, Control_c, 0, 64, 48
1, 45349, Control_c, 0, 67, 45
1, 45364, Control_c, 0, 64, 61
1, 45364, Control_c, 0, 67, 41
1, 45379, Control_c, 0, 64, 67
1, 45379, Control_c, 0, 67, 36
1, 45394, Control_c, 0, 64, 76
1, 45394, Control_c, 0, 67, 32
1, 45408, Control_c, 0, 64, 89
1, 45408, Control_c, 0, 67, 27
1, 45419, Note_off_c, 0, 41, 62
1, 45423, Control_c, 0, 64, 108
1, 45423, Control_c, 0, 67, 23
1, 45446, Control_c, 0, 64, 127
1, 45446, Control_c, 0, 67, 19
1, 45461, Control_c, 0, 67, 16
1, 45476, Control_c, 0, 67, 12
1, 45491, Control_c, 0, 67, 10
1, 45506, Control_c, 0, 67, 8
1, 45521, Control_c, 0, 67, 0
1, 45526, Note_off_c, 0, 65, 62
1, 45684, Control_c, 0, 64, 90
1, 45699, Control_c, 0, 64, 64
1, 45704, Note_on_c, 0, 60, 103
1, 45706, Note_on_c, 0, 55, 94
1, 45708, Note_on_c, 0, 52, 90
1, 45713, Control_c, 0, 64, 49
1, 45728, Control_c, 0, 64, 69
1, 45743, Control_c, 0, 64, 106
1, 45753, Note_off_c, 0, 60, 68
1, 45757, Control_c, 0, 64, 127
1, 45767, Note_off_c, 0, 55, 66
1, 45788, Note_off_c, 0, 52, 66
1, 45913, Note_on_c, 0, 64, 68
1, 45922, Note_on_c, 0, 55, 58
1, 45924, Note_on_c, 0, 60, 60
1, 45946, Note_off_c, 0, 55, 59
1, 45947, Note_off_c, 0, 60, 66
1, 45964, Note_off_c, 0, 64, 64
1, 46033, Note_on_c, 0, 48, 67
1, 46036, Note_on_c, 0, 43, 69
1, 46041, Note_on_c, 0, 40, 60
1, 46133, Note_off_c, 0, 48, 61
1, 46146, Note_on_c, 0, 60, 68
1, 46148, Note_on_c, 0, 67, 71
1, 46148, Note_off_c, 0, 40, 56
1, 46151, Note_on_c, 0, 64, 65
1, 46171, Note_off_c, 0, 43, 56
1, 46227, Note_off_c, 0, 60, 62
1, 46237, Note_on_c, 0, 48, 81
1, 46239, Note_on_c, 0, 43, 74
1, 46246, Note_on_c, 0, 40, 73
1, 46261, Note_off_c, 0, 64, 56
1, 46282, Note_off_c, 0, 67, 57
1, 46339, Note_off_c, 0, 48, 57
1, 46341, Note_on_c, 0, 67, 79
1, 46342, Note_on_c, 0, 72, 90
1, 46353, Note_on_c, 0, 64, 71
1, 46362, Note_off_c, 0, 40, 57
1, 46378, Note_off_c, 0, 43, 62
1, 46379, Note_off_c, 0, 64, 69
1, 46384, Note_off_c, 0, 67, 64
1, 46402, Note_off_c, 0, 72, 66
1, 46436, Note_on_c, 0, 48, 93
1, 46440, Note_on_c, 0, 43, 84
1, 46442, Note_on_c, 0, 40, 83
1, 46528, Note_on_c, 0, 76, 104
1, 46531, Note_off_c, 0, 48, 60
1, 46533, Note_on_c, 0, 67, 93
1, 46536, Note_on_c, 0, 72, 90
1, 46558, Note_off_c, 0, 40, 57
1, 46564, Note_off_c, 0, 43, 61
1, 46566, Note_off_c, 0, 72, 59
1, 46572, Note_off_c, 0, 67, 62
1, 46598, Note_off_c, 0, 76, 65
1, 46620, Note_on_c, 0, 48, 94
1, 46627, Note_on_c, 0, 43, 81
1, 46629, Note_on_c, 0, 40, 81
1, 46706, Note_on_c, 0, 79, 104
1, 46709, Note_on_c, 0, 76, 98
1, 46710, Note_on_c, 0, 72, 96
1, 46728, Note_off_c, 0, 48, 57
1, 46746, Note_off_c, 0, 72, 59
1, 46749, Note_off_c, 0, 40, 55
1, 46766, Note_off_c, 0, 76, 52
1, 46768, Note_off_c, 0, 43, 57
1, 46808, Note_off_c, 0, 79, 54
1, 46811, Note_on_c, 0, 40, 72
1, 46814, Note_on_c, 0, 48, 98
1, 46814, Note_on_c, 0, 43, 80
1, 46839, Note_off_c, 0, 43, 69
1, 46854, Note_off_c, 0, 48, 65
1, 46862, Note_off_c, 0, 40, 59
1, 46889, Note_on_c, 0, 84, 104
1, 46892, Note_on_c, 0, 79, 99
1, 46902, Note_on_c, 0, 76, 81
1, 46906, Note_off_c, 0, 79, 75
1, 46916, Note_off_c, 0, 76, 72
1, 46921, Note_off_c, 0, 84, 68
1, 47031, Control_c, 0, 64, 117
1, 47046, Control_c, 0, 64, 86
1, 47062, Control_c, 0, 64, 66
1, 47077, Control_c, 0, 64, 0
1, 47262, Note_on_c, 0, 72, 55
1, 47291, Note_on_c, 0, 67, 43
1, 47293, Note_on_c, 0, 64, 45
1, 47402, Control_c, 0, 64, 13
1, 47417, Control_c, 0, 64, 43
1, 47432, Control_c, 0, 64, 56
1, 47447, Control_c, 0, 64, 62
1, 47462, Control_c, 0, 64, 65
1, 47476, Control_c, 0, 64, 68
1, 47491, Control_c, 0, 64, 71
1, 47506, Control_c, 0, 64, 77
1, 47521, Control_c, 0, 64, 86
1, 47536, Control_c, 0, 64, 99
1, 47551, Control_c, 0, 64, 127
1, 47944, Control_c, 0, 67, 8
1, 47959, Control_c, 0, 67, 9
1, 47968, Note_on_c, 0, 74, 51
1, 47974, Control_c, 0, 67, 10
1, 47976, Note_off_c, 0, 64, 42
1, 47986, Note_off_c, 0, 72, 51
1, 47988, Control_c, 0, 67, 11
1, 48003, Control_c, 0, 67, 13
1, 48018, Control_c, 0, 67, 15
1, 48032, Control_c, 0, 67, 17
1, 48047, Control_c, 0, 67, 17
1, 48062, Control_c, 0, 67, 18
1, 48076, Control_c, 0, 67, 20
1, 48091, Control_c, 0, 67, 21
1, 48106, Control_c, 0, 67, 23
1, 48121, Control_c, 0, 67, 24
1, 48136, Control_c, 0, 67, 25
1, 48150, Control_c, 0, 67, 26
1, 48165, Control_c, 0, 67, 27
1, 48180, Control_c, 0, 67, 29
1, 48195, Control_c, 0, 67, 31
1, 48200, Note_off_c, 0, 74, 59
1, 48209, Note_on_c, 0, 68, 36
1, 48210, Control_c, 0, 67, 34
1, 48215, Note_on_c, 0, 76, 54
1, 48219, Note_on_c, 0, 71, 41
1, 48221, Note_on_c, 0, 65, 48
1, 48224, Control_c, 0, 67, 36
1, 48236, Note_off_c, 0, 67, 28
1, 48239, Control_c, 0, 64, 106
1, 48239, Control_c, 0, 67, 38
1, 48254, Control_c, 0, 64, 87
1, 48254, Control_c, 0, 67, 39
1, 48269, Control_c, 0, 64, 71
1, 48269, Control_c, 0, 67, 41
1, 48284, Control_c, 0, 64, 50
1, 48284, Control_c, 0, 67, 42
1, 48299, Control_c, 0, 64, 0
1, 48299, Control_c, 0, 67, 44
1, 48302, Note_off_c, 0, 76, 61
1, 48314, Control_c, 0, 67, 44
1, 48326, Note_on_c, 0, 74, 55
1, 48329, Control_c, 0, 64, 36
1, 48344, Control_c, 0, 64, 61
1, 48344, Control_c, 0, 67, 45
1, 48358, Control_c, 0, 64, 71
1, 48358, Control_c, 0, 67, 46
1, 48373, Control_c, 0, 64, 82
1, 48373, Control_c, 0, 67, 46
1, 48388, Control_c, 0, 64, 99
1, 48389, Note_off_c, 0, 74, 59
1, 48402, Note_on_c, 0, 76, 65
1, 48403, Control_c, 0, 64, 127
1, 48448, Note_off_c, 0, 76, 57
1, 48478, Note_on_c, 0, 74, 54
1, 48484, Control_c, 0, 67, 47
1, 48519, Note_off_c, 0, 74, 64
1, 48531, Note_on_c, 0, 76, 66
1, 48561, Note_off_c, 0, 76, 62
1, 48583, Note_on_c, 0, 74, 48
1, 48617, Note_off_c, 0, 74, 62
1, 48620, Note_on_c, 0, 76, 75
1, 48669, Note_off_c, 0, 76, 53
1, 48692, Note_on_c, 0, 74, 68
1, 48721, Note_off_c, 0, 74, 64
1, 48744, Note_on_c, 0, 76, 60
1, 48754, Note_off_c, 0, 71, 63
1, 48782, Control_c, 0, 67, 47
1, 48788, Note_off_c, 0, 68, 65
1, 48805, Note_off_c, 0, 65, 62
1, 48807, Note_on_c, 0, 74, 62
1, 48814, Note_off_c, 0, 76, 55
1, 48856, Control_c, 0, 67, 48
1, 48863, Note_off_c, 0, 74, 61
1, 48887, Note_on_c, 0, 72, 65
1, 48900, Control_c, 0, 67, 48
1, 48939, Note_off_c, 0, 72, 53
1, 48960, Note_on_c, 0, 76, 66
1, 48989, Control_c, 0, 67, 48
1, 49004, Control_c, 0, 67, 47
1, 49032, Note_off_c, 0, 76, 62
1, 49033, Note_on_c, 0, 74, 67
1, 49034, Control_c, 0, 67, 47
1, 49048, Control_c, 0, 67, 46
1, 49058, Note_off_c, 0, 74, 69
1, 49063, Control_c, 0, 67, 45
1, 49078, Control_c, 0, 67, 44
1, 49093, Control_c, 0, 64, 78
1, 49093, Control_c, 0, 67, 40
1, 49107, Control_c, 0, 64, 0
1, 49107, Control_c, 0, 67, 31
1, 49120, Note_on_c, 0, 55, 103
1, 49120, Note_on_c, 0, 60, 108
1, 49122, Control_c, 0, 67, 11
1, 49124, Note_on_c, 0, 52, 96
1, 49137, Control_c, 0, 67, 0
1, 49152, Control_c, 0, 64, 30
1, 49167, Control_c, 0, 64, 88
1, 49189, Control_c, 0, 64, 127
1, 49209, Note_off_c, 0, 60, 67
1, 49232, Note_off_c, 0, 55, 66
1, 49255, Note_off_c, 0, 52, 64
1, 49367, Note_on_c, 0, 64, 72
1, 49375, Note_on_c, 0, 60, 56
1, 49382, Note_on_c, 0, 55, 60
1, 49402, Note_off_c, 0, 60, 67
1, 49407, Note_off_c, 0, 55, 67
1, 49421, Note_off_c, 0, 64, 65
1, 49482, Note_on_c, 0, 43, 79
1, 49482, Note_on_c, 0, 48, 75
1, 49485, Note_on_c, 0, 40, 71
1, 49584, Note_off_c, 0, 48, 62
1, 49595, Note_on_c, 0, 67, 86
1, 49599, Note_on_c, 0, 64, 74
1, 49600, Note_off_c, 0, 40, 56
1, 49601, Note_on_c, 0, 60, 84
1, 49613, Note_off_c, 0, 43, 61
1, 49679, Note_off_c, 0, 60, 62
1, 49685, Note_on_c, 0, 48, 87
1, 49690, Note_off_c, 0, 64, 58
1, 49694, Note_on_c, 0, 43, 88
1, 49698, Note_on_c, 0, 40, 80
1, 49710, Note_off_c, 0, 67, 60
1, 49782, Note_on_c, 0, 67, 88
1, 49783, Note_on_c, 0, 72, 96
1, 49785, Note_off_c, 0, 48, 61
1, 49790, Note_on_c, 0, 64, 79
1, 49805, Note_off_c, 0, 40, 58
1, 49811, Note_off_c, 0, 43, 61
1, 49812, Note_off_c, 0, 64, 70
1, 49818, Note_off_c, 0, 67, 65
1, 49839, Note_off_c, 0, 72, 66
1, 49870, Note_on_c, 0, 48, 97
1, 49875, Note_on_c, 0, 43, 86
1, 49876, Note_on_c, 0, 40, 79
1, 49968, Note_off_c, 0, 48, 60
1, 49971, Note_on_c, 0, 76, 101
1, 49977, Note_on_c, 0, 67, 95
1, 49979, Note_on_c, 0, 72, 93
1, 49992, Note_off_c, 0, 43, 58
1, 49994, Note_off_c, 0, 40, 55
1, 50007, Note_off_c, 0, 72, 63
1, 50013, Note_off_c, 0, 67, 61
1, 50041, Note_off_c, 0, 76, 62
1, 50059, Note_on_c, 0, 48, 91
1, 50065, Note_on_c, 0, 43, 91
1, 50066, Note_on_c, 0, 40, 79
1, 50149, Note_on_c, 0, 79, 100
1, 50149, Note_off_c, 0, 48, 59
1, 50154, Note_on_c, 0, 76, 99
1, 50156, Note_on_c, 0, 72, 93
1, 50165, Note_off_c, 0, 40, 54
1, 50174, Note_off_c, 0, 43, 62
1, 50182, Note_off_c, 0, 72, 61
1, 50198, Note_off_c, 0, 76, 58
1, 50233, Note_off_c, 0, 79, 59
1, 50237, Note_on_c, 0, 48, 87
1, 50238, Note_on_c, 0, 43, 83
1, 50243, Note_on_c, 0, 40, 67
1, 50261, Poly_aftertouch_c, 0, 71, 0
1, 50267, Note_off_c, 0, 43, 66
1, 50274, Note_off_c, 0, 40, 64
1, 50278, Note_off_c, 0, 48, 66
1, 50320, Note_on_c, 0, 79, 99
1, 50321, Note_on_c, 0, 84, 101
1, 50329, Note_on_c, 0, 76, 91
1, 50337, Note_off_c, 0, 79, 71
1, 50347, Note_off_c, 0, 76, 71
1, 50352, Note_off_c, 0, 84, 67
1, 50409, Poly_aftertouch_c, 0, 74, 0
1, 50442, Control_c, 0, 64, 96
1, 50457, Control_c, 0, 64, 68
1, 50472, Control_c, 0, 64, 0
1, 50663, Note_on_c, 0, 72, 62
1, 50701, Note_on_c, 0, 67, 57
1, 50702, Note_on_c, 0, 64, 50
1, 50879, Control_c, 0, 64, 39
1, 50894, Control_c, 0, 64, 54
1, 50909, Control_c, 0, 64, 61
1, 50924, Control_c, 0, 64, 64
1, 50939, Control_c, 0, 64, 69
1, 50953, Control_c, 0, 64, 77
1, 50968, Control_c, 0, 64, 90
1, 50983, Control_c, 0, 64, 110
1, 50998, Control_c, 0, 64, 127
1, 51199, Note_off_c, 0, 67, 53
1, 51280, Control_c, 0, 67, 8
1, 51295, Control_c, 0, 67, 9
1, 51310, Control_c, 0, 67, 11
1, 51324, Control_c, 0, 67, 15
1, 51339, Control_c, 0, 67, 21
1, 51354, Control_c, 0, 67, 29
1, 51369, Control_c, 0, 67, 37
1, 51384, Control_c, 0, 67, 42
1, 51399, Control_c, 0, 67, 46
1, 51421, Control_c, 0, 67, 50
1, 51433, Note_off_c, 0, 72, 57
1, 51436, Control_c, 0, 67, 54
1, 51445, Note_on_c, 0, 73, 54
1, 51450, Control_c, 0, 67, 59
1, 51465, Control_c, 0, 67, 63
1, 51480, Control_c, 0, 67, 68
1, 51494, Control_c, 0, 67, 71
1, 51509, Control_c, 0, 67, 74
1, 51524, Control_c, 0, 67, 76
1, 51539, Control_c, 0, 67, 78
1, 51554, Control_c, 0, 67, 80
1, 51569, Control_c, 0, 67, 80
1, 51584, Control_c, 0, 67, 81
1, 51599, Control_c, 0, 67, 81
1, 51614, Control_c, 0, 67, 83
1, 51628, Control_c, 0, 67, 84
1, 51643, Control_c, 0, 67, 86
1, 51651, Note_off_c, 0, 73, 59
1, 51658, Control_c, 0, 67, 88
1, 51673, Control_c, 0, 67, 90
1, 51678, Note_on_c, 0, 72, 50
1, 51688, Control_c, 0, 67, 93
1, 51702, Control_c, 0, 67, 97
1, 51714, Note_on_c, 0, 67, 49
1, 51715, Note_on_c, 0, 63, 45
1, 51717, Control_c, 0, 64, 104
1, 51717, Control_c, 0, 67, 102
1, 51732, Control_c, 0, 64, 86
1, 51732, Control_c, 0, 67, 108
1, 51747, Control_c, 0, 64, 69
1, 51747, Control_c, 0, 67, 112
1, 51760, Note_off_c, 0, 64, 32
1, 51762, Control_c, 0, 64, 0
1, 51762, Control_c, 0, 67, 117
1, 51776, Control_c, 0, 67, 122
1, 51784, Note_off_c, 0, 72, 57
1, 51791, Control_c, 0, 67, 126
1, 51806, Control_c, 0, 67, 127
1, 51816, Note_on_c, 0, 73, 45
1, 51835, Control_c, 0, 64, 56
1, 51852, Control_c, 0, 64, 69
1, 51867, Control_c, 0, 64, 82
1, 51881, Control_c, 0, 64, 102
1, 51885, Note_off_c, 0, 73, 61
1, 51896, Control_c, 0, 64, 127
1, 51897, Note_on_c, 0, 75, 57
1, 51931, Note_off_c, 0, 75, 63
1, 51956, Note_on_c, 0, 73, 52
1, 52004, Note_off_c, 0, 73, 59
1, 52011, Note_on_c, 0, 75, 64
1, 52058, Note_off_c, 0, 75, 49
1, 52087, Note_on_c, 0, 73, 58
1, 52108, Note_off_c, 0, 73, 63
1, 52142, Note_on_c, 0, 75, 59
1, 52189, Note_off_c, 0, 75, 58
1, 52196, Note_on_c, 0, 73, 62
1, 52228, Note_off_c, 0, 73, 61
1, 52260, Note_on_c, 0, 75, 48
1, 52293, Note_off_c, 0, 75, 63
1, 52317, Note_on_c, 0, 73, 60
1, 52331, Note_off_c, 0, 67, 56
1, 52352, Note_off_c, 0, 63, 61
1, 52395, Note_off_c, 0, 73, 59
1, 52424, Note_on_c, 0, 72, 60
1, 52497, Note_off_c, 0, 72, 56
1, 52514, Note_on_c, 0, 73, 53
1, 52532, Note_off_c, 0, 73, 62
1, 52673, Note_on_c, 0, 82, 67
1, 52690, Control_c, 0, 64, 115
1, 52696, Note_on_c, 0, 79, 54
1, 52704, Control_c, 0, 64, 87
1, 52719, Control_c, 0, 64, 69
1, 52734, Control_c, 0, 64, 45
1, 52748, Control_c, 0, 64, 0
1, 52796, Note_on_c, 0, 75, 56
1, 52815, Note_off_c, 0, 75, 63
1, 52908, Note_on_c, 0, 75, 55
1, 52908, Note_off_c, 0, 79, 55
1, 52937, Note_off_c, 0, 82, 50
1, 52943, Note_off_c, 0, 75, 56
1, 53029, Note_on_c, 0, 75, 56
1, 53058, Note_off_c, 0, 75, 66
1, 53148, Note_on_c, 0, 75, 56
1, 53170, Note_off_c, 0, 75, 59
1, 53256, Note_on_c, 0, 75, 50
1, 53288, Note_off_c, 0, 75, 52
1, 53376, Note_on_c, 0, 75, 54
1, 53410, Note_off_c, 0, 75, 64
1, 53502, Note_on_c, 0, 75, 52
1, 53529, Note_off_c, 0, 75, 54
1, 53623, Note_on_c, 0, 75, 47
1, 53657, Note_off_c, 0, 75, 55
1, 53753, Note_on_c, 0, 75, 58
1, 53784, Note_off_c, 0, 75, 65
1, 53876, Note_on_c, 0, 75, 55
1, 53890, Control_c, 0, 64, 8
1, 53896, Note_off_c, 0, 75, 60
1, 53904, Control_c, 0, 64, 10
1, 53919, Control_c, 0, 64, 12
1, 53934, Control_c, 0, 64, 13
1, 53949, Control_c, 0, 64, 15
1, 53964, Control_c, 0, 64, 16
1, 53988, Note_on_c, 0, 75, 45
1, 54008, Control_c, 0, 64, 17
1, 54022, Control_c, 0, 64, 18
1, 54031, Note_off_c, 0, 75, 52
1, 54037, Control_c, 0, 64, 19
1, 54082, Control_c, 0, 64, 20
1, 54111, Note_on_c, 0, 83, 54
1, 54112, Control_c, 0, 64, 21
1, 54124, Note_on_c, 0, 80, 52
1, 54186, Control_c, 0, 64, 21
1, 54215, Control_c, 0, 64, 22
1, 54231, Note_on_c, 0, 75, 49
1, 54265, Note_off_c, 0, 75, 62
1, 54305, Control_c, 0, 64, 23
1, 54335, Control_c, 0, 64, 24
1, 54361, Note_on_c, 0, 75, 51
1, 54380, Control_c, 0, 64, 24
1, 54391, Note_off_c, 0, 83, 52
1, 54394, Control_c, 0, 64, 25
1, 54396, Note_off_c, 0, 80, 52
1, 54401, Note_off_c, 0, 75, 59
1, 54409, Control_c, 0, 64, 26
1, 54467, Note_on_c, 0, 68, 63
1, 54467, Note_on_c, 0, 71, 66
1, 54507, Note_off_c, 0, 71, 61
1, 54517, Note_off_c, 0, 68, 62
1, 54597, Note_on_c, 0, 75, 49
1, 54621, Note_off_c, 0, 75, 59
1, 54698, Control_c, 0, 64, 26
1, 54706, Note_on_c, 0, 75, 53
1, 54742, Note_off_c, 0, 75, 62
1, 54787, Control_c, 0, 64, 27
1, 54835, Note_on_c, 0, 75, 55
1, 54863, Note_off_c, 0, 75, 64
1, 54946, Note_on_c, 0, 75, 54
1, 54970, Note_off_c, 0, 75, 59
1, 55009, Control_c, 0, 64, 27
1, 55024, Control_c, 0, 64, 28
1, 55053, Note_on_c, 0, 75, 57
1, 55083, Control_c, 0, 64, 28
1, 55092, Note_off_c, 0, 75, 58
1, 55165, Control_c, 0, 64, 29
1, 55197, Note_on_c, 0, 75, 55
1, 55216, Note_off_c, 0, 75, 61
1, 55290, Note_on_c, 0, 75, 62
1, 55319, Note_off_c, 0, 75, 64
1, 55343, Control_c, 0, 64, 30
1, 55372, Control_c, 0, 64, 30
1, 55412, Note_on_c, 0, 75, 58
1, 55444, Note_off_c, 0, 75, 65
1, 55477, Control_c, 0, 64, 28
1, 55492, Control_c, 0, 64, 23
1, 55503, Note_on_c, 0, 88, 100
1, 55507, Note_on_c, 0, 83, 99
1, 55507, Control_c, 0, 64, 8
1, 55509, Note_on_c, 0, 80, 96
1, 55522, Control_c, 0, 64, 0
1, 55632, Note_on_c, 0, 75, 68
1, 55640, Control_c, 0, 64, 12
1, 55655, Control_c, 0, 64, 18
1, 55664, Note_off_c, 0, 75, 60
1, 55669, Control_c, 0, 64, 23
1, 55684, Control_c, 0, 64, 25
1, 55699, Control_c, 0, 64, 26
1, 55756, Note_on_c, 0, 75, 63
1, 55758, Control_c, 0, 64, 26
1, 55773, Control_c, 0, 64, 27
1, 55777, Note_off_c, 0, 75, 64
1, 55787, Control_c, 0, 64, 28
1, 55802, Control_c, 0, 64, 28
1, 55843, Note_on_c, 0, 71, 87
1, 55849, Note_on_c, 0, 68, 81
1, 55879, Note_off_c, 0, 68, 63
1, 55879, Note_off_c, 0, 71, 66
1, 55982, Note_on_c, 0, 75, 62
1, 56001, Note_off_c, 0, 75, 64
1, 56048, Control_c, 0, 64, 29
1, 56063, Control_c, 0, 64, 30
1, 56078, Control_c, 0, 64, 30
1, 56106, Note_on_c, 0, 75, 38
1, 56137, Note_off_c, 0, 75, 55
1, 56214, Note_on_c, 0, 71, 72
1, 56221, Note_on_c, 0, 68, 66
1, 56247, Note_off_c, 0, 68, 69
1, 56251, Note_off_c, 0, 71, 59
1, 56330, Note_on_c, 0, 75, 63
1, 56358, Note_off_c, 0, 75, 64
1, 56448, Note_on_c, 0, 75, 50
1, 56475, Note_off_c, 0, 75, 55
1, 56553, Note_on_c, 0, 71, 70
1, 56559, Note_on_c, 0, 68, 63
1, 56590, Note_off_c, 0, 71, 61
1, 56599, Note_off_c, 0, 68, 65
1, 56672, Note_off_c, 0, 80, 55
1, 56680, Note_off_c, 0, 83, 54
1, 56681, Note_on_c, 0, 75, 62
1, 56699, Note_off_c, 0, 75, 65
1, 56789, Note_on_c, 0, 75, 48
1, 56819, Note_off_c, 0, 75, 54
1, 56904, Note_on_c, 0, 70, 63
1, 56910, Note_on_c, 0, 87, 63
1, 56915, Note_on_c, 0, 79, 50
1, 56915, Note_on_c, 0, 82, 56
1, 56919, Note_on_c, 0, 67, 48
1, 56928, Note_off_c, 0, 70, 64
1, 56944, Note_off_c, 0, 67, 57
1, 56957, Note_off_c, 0, 88, 55
1, 57033, Control_c, 0, 64, 29
1, 57043, Note_on_c, 0, 63, 52
1, 57048, Control_c, 0, 64, 28
1, 57063, Control_c, 0, 64, 27
1, 57068, Note_off_c, 0, 63, 59
1, 57078, Control_c, 0, 64, 27
1, 57137, Note_on_c, 0, 63, 57
1, 57164, Note_off_c, 0, 63, 59
1, 57197, Note_off_c, 0, 87, 61
1, 57205, Note_off_c, 0, 82, 59
1, 57209, Note_off_c, 0, 79, 58
1, 57211, Control_c, 0, 64, 26
1, 57226, Control_c, 0, 64, 25
1, 57240, Control_c, 0, 64, 23
1, 57248, Note_on_c, 0, 63, 60
1, 57255, Control_c, 0, 64, 21
1, 57270, Control_c, 0, 64, 18
1, 57281, Note_off_c, 0, 63, 65
1, 57285, Control_c, 0, 64, 15
1, 57300, Control_c, 0, 64, 12
1, 57314, Control_c, 0, 64, 10
1, 57329, Control_c, 0, 64, 8
1, 57344, Control_c, 0, 64, 0
1, 57363, Note_on_c, 0, 63, 56
1, 57386, Note_off_c, 0, 63, 60
1, 57470, Note_on_c, 0, 63, 56
1, 57499, Note_off_c, 0, 63, 59
1, 57584, Note_on_c, 0, 63, 58
1, 57615, Note_off_c, 0, 63, 65
1, 57698, Note_on_c, 0, 63, 53
1, 57721, Note_off_c, 0, 63, 61
1, 57798, Note_on_c, 0, 63, 56
1, 57831, Note_off_c, 0, 63, 63
1, 57926, Note_on_c, 0, 63, 53
1, 57928, Note_on_c, 0, 82, 62
1, 57938, Note_on_c, 0, 79, 55
1, 57953, Note_off_c, 0, 63, 63
1, 57972, Note_off_c, 0, 82, 55
1, 57974, Note_off_c, 0, 79, 63
1, 58042, Note_on_c, 0, 63, 56
1, 58072, Note_off_c, 0, 63, 63
1, 58163, Note_on_c, 0, 63, 57
1, 58189, Note_on_c, 0, 82, 73
1, 58193, Note_off_c, 0, 63, 65
1, 58210, Note_on_c, 0, 79, 48
1, 58241, Note_off_c, 0, 79, 53
1, 58266, Note_on_c, 0, 80, 67
1, 58267, Note_on_c, 0, 83, 67
1, 58269, Note_off_c, 0, 82, 61
1, 58271, Note_on_c, 0, 63, 63
1, 58300, Note_off_c, 0, 63, 67
1, 58353, Control_c, 0, 64, 10
1, 58368, Control_c, 0, 64, 12
1, 58383, Control_c, 0, 64, 13
1, 58391, Note_on_c, 0, 63, 56
1, 58413, Note_off_c, 0, 63, 61
1, 58505, Note_on_c, 0, 63, 50
1, 58512, Note_on_c, 0, 79, 63
1, 58512, Note_on_c, 0, 82, 68
1, 58514, Note_off_c, 0, 80, 60
1, 58521, Note_off_c, 0, 83, 62
1, 58534, Note_off_c, 0, 63, 61
1, 58541, Note_off_c, 0, 79, 66
1, 58541, Note_off_c, 0, 82, 67
1, 58559, Control_c, 0, 64, 15
1, 58618, Note_on_c, 0, 63, 63
1, 58648, Note_off_c, 0, 63, 66
1, 58708, Control_c, 0, 64, 13
1, 58735, Note_on_c, 0, 63, 55
1, 58757, Note_off_c, 0, 63, 60
1, 58830, Note_on_c, 0, 63, 59
1, 58835, Note_on_c, 0, 70, 66
1, 58839, Note_on_c, 0, 67, 61
1, 58841, Control_c, 0, 64, 15
1, 58860, Note_off_c, 0, 63, 62
1, 58864, Note_off_c, 0, 70, 66
1, 58869, Note_off_c, 0, 67, 64
1, 58952, Note_on_c, 0, 63, 60
1, 58982, Note_off_c, 0, 63, 66
1, 59042, Control_c, 0, 64, 16
1, 59060, Note_on_c, 0, 63, 58
1, 59072, Control_c, 0, 64, 17
1, 59083, Note_off_c, 0, 63, 62
1, 59161, Note_on_c, 0, 63, 46
1, 59176, Note_on_c, 0, 58, 49
1, 59189, Note_on_c, 0, 55, 28
1, 59190, Note_off_c, 0, 55, 127
1, 59194, Note_off_c, 0, 63, 50
1, 59202, Note_off_c, 0, 58, 58
1, 59234, Control_c, 0, 64, 21
1, 59249, Control_c, 0, 64, 43
1, 59264, Control_c, 0, 64, 64
1, 59269, Note_on_c, 0, 58, 62
1, 59269, Note_on_c, 0, 61, 65
1, 59279, Control_c, 0, 64, 74
1, 59294, Control_c, 0, 64, 94
1, 59308, Control_c, 0, 64, 127
1, 59340, Note_off_c, 0, 58, 60
1, 59351, Note_off_c, 0, 61, 58
1, 59382, Note_on_c, 0, 63, 66
1, 59422, Note_off_c, 0, 63, 56
1, 59487, Note_on_c, 0, 63, 59
1, 59518, Note_off_c, 0, 63, 66
1, 59519, Note_on_c, 0, 82, 79
1, 59530, Note_on_c, 0, 79, 59
1, 59542, Note_off_c, 0, 82, 67
1, 59550, Note_off_c, 0, 79, 63
1, 59590, Control_c, 0, 64, 94
1, 59595, Note_on_c, 0, 85, 82
1, 59599, Note_on_c, 0, 63, 66
1, 59601, Note_on_c, 0, 82, 82
1, 59605, Control_c, 0, 64, 70
1, 59620, Control_c, 0, 64, 0
1, 59628, Note_off_c, 0, 63, 67
1, 59729, Note_on_c, 0, 63, 57
1, 59755, Note_off_c, 0, 63, 59
1, 59835, Note_off_c, 0, 82, 56
1, 59840, Note_on_c, 0, 63, 57
1, 59845, Note_on_c, 0, 83, 53
1, 59849, Note_on_c, 0, 80, 63
1, 59850, Note_off_c, 0, 85, 63
1, 59865, Note_off_c, 0, 83, 62
1, 59871, Note_off_c, 0, 63, 65
1, 59877, Note_off_c, 0, 80, 67
1, 59956, Note_on_c, 0, 63, 64
1, 59987, Note_off_c, 0, 63, 66
1, 60062, Note_on_c, 0, 63, 60
1, 60096, Note_off_c, 0, 63, 65
1, 60175, Note_on_c, 0, 68, 69
1, 60178, Note_on_c, 0, 71, 63
1, 60181, Note_on_c, 0, 63, 49
1, 60201, Note_off_c, 0, 68, 69
1, 60206, Note_off_c, 0, 63, 58
1, 60207, Note_off_c, 0, 71, 67
1, 60282, Note_on_c, 0, 63, 56
1, 60321, Note_off_c, 0, 63, 63
1, 60395, Note_on_c, 0, 63, 36
1, 60434, Note_off_c, 0, 63, 54
1, 60491, Note_on_c, 0, 59, 66
1, 60497, Note_on_c, 0, 56, 55
1, 60512, Note_on_c, 0, 63, 18
1, 60522, Note_off_c, 0, 56, 58
1, 60525, Note_off_c, 0, 59, 65
1, 60550, Note_off_c, 0, 63, 44
1, 60592, Note_on_c, 0, 59, 61
1, 60598, Control_c, 0, 64, 46
1, 60606, Note_on_c, 0, 56, 62
1, 60613, Control_c, 0, 64, 65
1, 60628, Control_c, 0, 64, 77
1, 60643, Control_c, 0, 64, 102
1, 60650, Note_off_c, 0, 56, 58
1, 60658, Control_c, 0, 64, 127
1, 60669, Note_off_c, 0, 59, 60
1, 60727, Note_on_c, 0, 63, 41
1, 60757, Note_off_c, 0, 63, 55
1, 60833, Note_on_c, 0, 63, 57
1, 60846, Note_on_c, 0, 83, 85
1, 60848, Note_on_c, 0, 80, 85
1, 60858, Note_off_c, 0, 63, 61
1, 60867, Note_off_c, 0, 80, 71
1, 60881, Note_off_c, 0, 83, 65
1, 60908, Note_on_c, 0, 88, 104
1, 60909, Note_on_c, 0, 83, 92
1, 60910, Control_c, 0, 64, 119
1, 60915, Note_on_c, 0, 80, 101
1, 60925, Control_c, 0, 64, 78
1, 60940, Control_c, 0, 64, 0
1, 61026, Note_on_c, 0, 63, 70
1, 61053, Note_off_c, 0, 63, 69
1, 61138, Note_on_c, 0, 63, 62
1, 61166, Note_off_c, 0, 63, 64
1, 61184, Control_c, 0, 67, 125
1, 61199, Control_c, 0, 67, 121
1, 61213, Control_c, 0, 67, 118
1, 61222, Note_on_c, 0, 59, 88
1, 61232, Note_on_c, 0, 56, 74
1, 61243, Control_c, 0, 67, 119
1, 61257, Note_off_c, 0, 56, 68
1, 61258, Note_off_c, 0, 59, 63
1, 61258, Control_c, 0, 67, 120
1, 61273, Control_c, 0, 67, 121
1, 61287, Control_c, 0, 67, 121
1, 61332, Control_c, 0, 67, 122
1, 61343, Note_on_c, 0, 63, 70
1, 61372, Note_off_c, 0, 63, 67
1, 61391, Control_c, 0, 67, 122
1, 61406, Control_c, 0, 67, 123
1, 61451, Control_c, 0, 67, 123
1, 61458, Note_on_c, 0, 63, 64
1, 61482, Control_c, 0, 67, 124
1, 61494, Note_off_c, 0, 63, 64
1, 61497, Control_c, 0, 67, 124
1, 61511, Control_c, 0, 67, 125
1, 61526, Control_c, 0, 67, 125
1, 61541, Control_c, 0, 67, 126
1, 61556, Control_c, 0, 67, 127
1, 61571, Control_c, 0, 67, 127
1, 61573, Note_on_c, 0, 59, 85
1, 61576, Note_on_c, 0, 56, 73
1, 61609, Note_off_c, 0, 56, 63
1, 61609, Note_off_c, 0, 59, 65
1, 61695, Note_on_c, 0, 63, 63
1, 61720, Note_off_c, 0, 63, 64
1, 61806, Note_on_c, 0, 63, 52
1, 61837, Note_off_c, 0, 63, 61
1, 61924, Note_on_c, 0, 59, 69
1, 61930, Note_on_c, 0, 56, 63
1, 61957, Note_off_c, 0, 59, 64
1, 61962, Note_off_c, 0, 56, 64
1, 62038, Note_on_c, 0, 63, 58
1, 62039, Note_off_c, 0, 83, 56
1, 62067, Note_off_c, 0, 63, 64
1, 62086, Note_off_c, 0, 80, 56
1, 62156, Note_on_c, 0, 63, 48
1, 62180, Note_off_c, 0, 63, 59
1, 62257, Note_on_c, 0, 87, 62
1, 62263, Note_on_c, 0, 82, 49
1, 62267, Note_on_c, 0, 79, 47
1, 62306, Note_off_c, 0, 88, 53
1, 62371, Note_on_c, 0, 63, 54
1, 62394, Note_off_c, 0, 63, 59
1, 62475, Note_on_c, 0, 63, 45
1, 62503, Note_off_c, 0, 63, 57
1, 62536, Note_off_c, 0, 87, 62
1, 62548, Note_off_c, 0, 82, 63
1, 62556, Note_off_c, 0, 79, 62
1, 62572, Note_on_c, 0, 58, 60
1, 62574, Note_on_c, 0, 55, 58
1, 62603, Note_off_c, 0, 58, 66
1, 62619, Note_off_c, 0, 55, 61
1, 62688, Note_on_c, 0, 63, 66
1, 62719, Note_off_c, 0, 63, 66
1, 62803, Note_on_c, 0, 63, 61
1, 62834, Note_off_c, 0, 63, 61
1, 62929, Note_on_c, 0, 75, 73
1, 62947, Note_on_c, 0, 66, 49
1, 62947, Note_on_c, 0, 69, 63
1, 63036, Note_on_c, 0, 63, 56
1, 63060, Note_off_c, 0, 63, 60
1, 63145, Note_on_c, 0, 63, 54
1, 63198, Note_off_c, 0, 63, 56
1, 63275, Control_c, 0, 64, 54
1, 63287, Note_on_c, 0, 54, 57
1, 63287, Note_on_c, 0, 57, 57
1, 63290, Control_c, 0, 64, 66
1, 63305, Control_c, 0, 64, 75
1, 63320, Control_c, 0, 64, 90
1, 63329, Note_off_c, 0, 57, 63
1, 63334, Control_c, 0, 64, 127
1, 63347, Note_off_c, 0, 54, 55
1, 63389, Note_off_c, 0, 69, 63
1, 63409, Note_on_c, 0, 63, 55
1, 63448, Note_off_c, 0, 63, 63
1, 63451, Note_off_c, 0, 75, 61
1, 63457, Note_off_c, 0, 66, 61
1, 63555, Note_on_c, 0, 63, 28
1, 63583, Note_off_c, 0, 63, 56
1, 63638, Control_c, 0, 64, 107
1, 63653, Control_c, 0, 64, 90
1, 63656, Note_on_c, 0, 74, 55
1, 63667, Note_on_c, 0, 68, 50
1, 63668, Note_on_c, 0, 65, 48
1, 63668, Control_c, 0, 64, 78
1, 63682, Control_c, 0, 64, 66
1, 63697, Control_c, 0, 64, 44
1, 63712, Control_c, 0, 64, 0
1, 63776, Note_on_c, 0, 63, 44
1, 63802, Note_off_c, 0, 63, 56
1, 63887, Note_on_c, 0, 63, 57
1, 63935, Note_off_c, 0, 63, 56
1, 63935, Note_off_c, 0, 74, 58
1, 63974, Note_off_c, 0, 68, 57
1, 63977, Note_off_c, 0, 65, 56
1, 64016, Note_on_c, 0, 56, 59
1, 64020, Note_on_c, 0, 53, 50
1, 64058, Note_off_c, 0, 56, 60
1, 64071, Note_off_c, 0, 53, 62
1, 64118, Note_on_c, 0, 63, 57
1, 64161, Note_off_c, 0, 63, 63
1, 64247, Note_on_c, 0, 63, 55
1, 64282, Note_off_c, 0, 63, 59
1, 64387, Note_on_c, 0, 73, 40
1, 64396, Note_on_c, 0, 64, 38
1, 64396, Note_on_c, 0, 67, 38
1, 64489, Note_on_c, 0, 63, 50
1, 64517, Note_off_c, 0, 63, 59
1, 64610, Note_on_c, 0, 63, 50
1, 64654, Note_off_c, 0, 64, 55
1, 64665, Note_off_c, 0, 63, 57
1, 64673, Note_off_c, 0, 67, 57
1, 64685, Note_off_c, 0, 73, 54
1, 64744, Note_on_c, 0, 52, 48
1, 64745, Note_on_c, 0, 55, 46
1, 64800, Note_off_c, 0, 55, 56
1, 64815, Note_off_c, 0, 52, 54
1, 64867, Note_on_c, 0, 63, 54
1, 64904, Note_off_c, 0, 63, 57
1, 64993, Note_on_c, 0, 63, 54
1, 65025, Note_off_c, 0, 63, 65
1, 65140, Note_on_c, 0, 73, 46
1, 65149, Note_on_c, 0, 63, 33
1, 65152, Note_on_c, 0, 67, 41
1, 65264, Note_on_c, 0, 51, 50
1, 65297, Note_off_c, 0, 51, 62
1, 65377, Note_on_c, 0, 51, 54
1, 65403, Note_off_c, 0, 51, 60
1, 65474, Note_off_c, 0, 67, 58
1, 65476, Note_off_c, 0, 63, 53
1, 65487, Note_on_c, 0, 51, 61
1, 65494, Note_off_c, 0, 73, 53
1, 65520, Note_off_c, 0, 51, 63
1, 65605, Note_on_c, 0, 51, 57
1, 65637, Note_off_c, 0, 51, 64
1, 65721, Note_on_c, 0, 51, 56
1, 65722, Control_c, 0, 67, 123
1, 65737, Control_c, 0, 67, 120
1, 65751, Note_off_c, 0, 51, 62
1, 65752, Control_c, 0, 67, 118
1, 65767, Control_c, 0, 67, 117
1, 65782, Control_c, 0, 67, 117
1, 65826, Control_c, 0, 67, 115
1, 65838, Note_on_c, 0, 51, 55
1, 65841, Control_c, 0, 67, 109
1, 65856, Control_c, 0, 67, 98
1, 65871, Note_off_c, 0, 51, 64
1, 65871, Control_c, 0, 67, 86
1, 65885, Control_c, 0, 67, 77
1, 65900, Control_c, 0, 67, 73
1, 65915, Control_c, 0, 67, 72
1, 65959, Note_on_c, 0, 51, 51
1, 65990, Note_off_c, 0, 51, 55
1, 66033, Control_c, 0, 67, 73
1, 66048, Control_c, 0, 67, 73
1, 66074, Note_on_c, 0, 51, 47
1, 66107, Note_off_c, 0, 51, 55
1, 66107, Control_c, 0, 67, 74
1, 66193, Note_on_c, 0, 51, 54
1, 66227, Note_off_c, 0, 51, 63
1, 66312, Note_on_c, 0, 51, 52
1, 66339, Note_off_c, 0, 51, 57
1, 66432, Note_on_c, 0, 51, 48
1, 66477, Note_off_c, 0, 51, 62
1, 66590, Note_on_c, 0, 61, 39
1, 66592, Note_on_c, 0, 58, 39
1, 66593, Note_on_c, 0, 55, 36
1, 66724, Note_on_c, 0, 39, 42
1, 66756, Note_off_c, 0, 39, 51
1, 66840, Note_on_c, 0, 39, 51
1, 66879, Note_off_c, 0, 39, 54
1, 66900, Control_c, 0, 67, 74
1, 66980, Note_on_c, 0, 39, 42
1, 66989, Note_off_c, 0, 61, 39
1, 66990, Note_off_c, 0, 58, 36
1, 67001, Note_off_c, 0, 55, 34
1, 67013, Note_off_c, 0, 39, 50
1, 67093, Note_on_c, 0, 39, 51
1, 67121, Note_off_c, 0, 39, 53
1, 67123, Control_c, 0, 67, 75
1, 67221, Note_on_c, 0, 39, 44
1, 67253, Note_off_c, 0, 39, 52
1, 67351, Note_on_c, 0, 39, 41
1, 67382, Note_off_c, 0, 39, 52
1, 67412, Control_c, 0, 67, 75
1, 67475, Note_on_c, 0, 39, 40
1, 67508, Note_off_c, 0, 39, 48
1, 67600, Note_on_c, 0, 39, 37
1, 67634, Note_off_c, 0, 39, 49
1, 67727, Note_on_c, 0, 39, 43
1, 67759, Note_off_c, 0, 39, 53
1, 67859, Note_on_c, 0, 39, 41
1, 67901, Note_off_c, 0, 39, 51
1, 68007, Note_on_c, 0, 39, 36
1, 68012, Control_c, 0, 67, 76
1, 68098, Note_off_c, 0, 39, 35
1, 68222, Note_on_c, 0, 32, 34
1, 68250, Control_c, 0, 64, 26
1, 68265, Control_c, 0, 64, 39
1, 68280, Control_c, 0, 64, 50
1, 68295, Control_c, 0, 64, 58
1, 68310, Control_c, 0, 64, 63
1, 68324, Control_c, 0, 64, 66
1, 68339, Control_c, 0, 64, 70
1, 68354, Control_c, 0, 64, 75
1, 68369, Control_c, 0, 64, 81
1, 68384, Control_c, 0, 64, 86
1, 68398, Control_c, 0, 64, 94
1, 68413, Control_c, 0, 64, 101
1, 68428, Control_c, 0, 64, 110
1, 68443, Control_c, 0, 64, 122
1, 68458, Control_c, 0, 64, 127
1, 68496, Note_on_c, 0, 44, 34
1, 68511, Note_on_c, 0, 36, 37
1, 68517, Note_on_c, 0, 39, 26
1, 68595, Note_off_c, 0, 32, 37
1, 68683, Note_off_c, 0, 39, 35
1, 68684, Note_on_c, 0, 32, 33
1, 68691, Note_off_c, 0, 44, 38
1, 68727, Note_off_c, 0, 36, 30
1, 68825, Note_on_c, 0, 36, 23
1, 68839, Note_on_c, 0, 44, 34
1, 68852, Note_on_c, 0, 39, 31
1, 68855, Note_off_c, 0, 32, 40
1, 68933, Note_off_c, 0, 39, 34
1, 68954, Note_off_c, 0, 44, 31
1, 68977, Note_off_c, 0, 36, 37
1, 68980, Note_on_c, 0, 32, 41
1, 69102, Note_on_c, 0, 36, 22
1, 69108, Note_off_c, 0, 32, 36
1, 69124, Note_on_c, 0, 44, 24
1, 69135, Note_on_c, 0, 39, 28
1, 69198, Note_off_c, 0, 39, 40
1, 69231, Note_off_c, 0, 44, 34
1, 69242, Note_on_c, 0, 32, 40
1, 69252, Note_off_c, 0, 36, 37
1, 69365, Note_on_c, 0, 36, 20
1, 69365, Note_off_c, 0, 32, 36
1, 69375, Note_on_c, 0, 44, 30
1, 69398, Note_on_c, 0, 39, 23
1, 69486, Note_off_c, 0, 39, 36
1, 69510, Note_on_c, 0, 32, 40
1, 69517, Note_off_c, 0, 44, 35
1, 69645, Note_off_c, 0, 36, 0
1, 69663, Note_on_c, 0, 60, 53
1, 69682, Poly_aftertouch_c, 0, 36, 127
1, 69690, Note_on_c, 0, 48, 37
1, 69706, Note_off_c, 0, 32, 39
1, 69717, Note_on_c, 0, 39, 17
1, 69749, Poly_aftertouch_c, 0, 44, 127
1, 69777, Control_c, 0, 67, 76
1, 69794, Note_off_c, 0, 48, 54
1, 69811, Poly_aftertouch_c, 0, 44, 0
1, 69827, Note_off_c, 0, 60, 64
1, 69830, Note_off_c, 0, 39, 31
1, 69836, Note_on_c, 0, 32, 43
1, 69866, Control_c, 0, 67, 77
1, 69910, Poly_aftertouch_c, 0, 36, 0
1, 69922, Note_off_c, 0, 32, 49
1, 69925, Control_c, 0, 67, 77
1, 69928, Note_on_c, 0, 36, 14
1, 69941, Note_on_c, 0, 44, 34
1, 69958, Note_on_c, 0, 39, 40
1, 69985, Control_c, 0, 67, 78
1, 70030, Note_on_c, 0, 63, 68
1, 70044, Note_on_c, 0, 51, 35
1, 70063, Note_off_c, 0, 63, 66
1, 70082, Note_off_c, 0, 51, 51
1, 70122, Note_off_c, 0, 44, 34
1, 70152, Note_off_c, 0, 39, 32
1, 70173, Note_on_c, 0, 68, 66
1, 70185, Control_c, 0, 67, 78
1, 70198, Note_off_c, 0, 36, 35
1, 70200, Note_on_c, 0, 56, 37
1, 70212, Note_on_c, 0, 32, 39
1, 70245, Control_c, 0, 64, 100
1, 70245, Control_c, 0, 67, 79
1, 70260, Control_c, 0, 64, 82
1, 70274, Control_c, 0, 64, 69
1, 70289, Control_c, 0, 64, 61
1, 70296, Note_off_c, 0, 32, 53
1, 70299, Note_off_c, 0, 56, 55
1, 70304, Control_c, 0, 64, 64
1, 70319, Control_c, 0, 64, 70
1, 70327, Note_on_c, 0, 36, 25
1, 70334, Control_c, 0, 64, 83
1, 70344, Note_on_c, 0, 44, 29
1, 70349, Control_c, 0, 64, 104
1, 70358, Note_on_c, 0, 39, 16
1, 70363, Control_c, 0, 64, 127
1, 70393, Control_c, 0, 67, 78
1, 70418, Note_off_c, 0, 39, 41
1, 70426, Note_off_c, 0, 44, 37
1, 70436, Note_on_c, 0, 32, 46
1, 70481, Control_c, 0, 67, 78
1, 70482, Note_off_c, 0, 36, 32
1, 70561, Note_on_c, 0, 72, 66
1, 70563, Note_off_c, 0, 32, 50
1, 70565, Note_on_c, 0, 36, 23
1, 70584, Note_on_c, 0, 44, 30
1, 70588, Note_on_c, 0, 60, 44
1, 70601, Note_on_c, 0, 39, 31
1, 70664, Note_off_c, 0, 72, 62
1, 70669, Note_off_c, 0, 68, 38
1, 70670, Note_off_c, 0, 60, 64
1, 70692, Note_off_c, 0, 44, 34
1, 70696, Note_off_c, 0, 39, 36
1, 70702, Note_on_c, 0, 32, 57
1, 70771, Note_off_c, 0, 36, 0
1, 70786, Note_on_c, 0, 36, 27
1, 70793, Note_off_c, 0, 32, 56
1, 70822, Note_on_c, 0, 44, 42
1, 70834, Note_on_c, 0, 39, 38
1, 70837, Control_c, 0, 67, 78
1, 70867, Note_on_c, 0, 68, 69
1, 70880, Note_on_c, 0, 56, 57
1, 70918, Note_off_c, 0, 56, 64
1, 70945, Note_off_c, 0, 44, 36
1, 70946, Note_off_c, 0, 36, 38
1, 70958, Note_off_c, 0, 68, 60
1, 70971, Note_on_c, 0, 67, 73
1, 70977, Note_off_c, 0, 39, 33
1, 70983, Note_on_c, 0, 34, 47
1, 70996, Note_on_c, 0, 55, 50
1, 71007, Control_c, 0, 64, 104
1, 71022, Control_c, 0, 64, 85
1, 71037, Control_c, 0, 64, 68
1, 71052, Control_c, 0, 64, 35
1, 71067, Control_c, 0, 64, 0
1, 71097, Control_c, 0, 64, 50
1, 71102, Note_off_c, 0, 34, 59
1, 71112, Control_c, 0, 64, 67
1, 71124, Note_on_c, 0, 37, 38
1, 71127, Control_c, 0, 64, 80
1, 71128, Note_on_c, 0, 39, 32
1, 71133, Note_on_c, 0, 46, 31
1, 71141, Note_off_c, 0, 55, 60
1, 71141, Control_c, 0, 64, 114
1, 71156, Control_c, 0, 64, 127
1, 71156, Control_c, 0, 67, 78
1, 71178, Note_off_c, 0, 67, 64
1, 71194, Note_off_c, 0, 46, 44
1, 71205, Note_off_c, 0, 37, 50
1, 71222, Note_on_c, 0, 34, 47
1, 71225, Note_off_c, 0, 39, 35
1, 71371, Note_off_c, 0, 34, 56
1, 71384, Note_on_c, 0, 37, 42
1, 71384, Note_on_c, 0, 70, 64
1, 71393, Note_on_c, 0, 46, 37
1, 71401, Note_on_c, 0, 58, 50
1, 71407, Note_on_c, 0, 39, 27
1, 71437, Control_c, 0, 67, 78
1, 71465, Note_off_c, 0, 70, 62
1, 71489, Note_off_c, 0, 58, 56
1, 71495, Note_off_c, 0, 46, 43
1, 71507, Note_on_c, 0, 34, 56
1, 71515, Note_off_c, 0, 37, 35
1, 71520, Note_off_c, 0, 39, 34
1, 71615, Note_on_c, 0, 37, 31
1, 71627, Note_on_c, 0, 39, 42
1, 71627, Note_on_c, 0, 46, 37
1, 71642, Note_off_c, 0, 34, 0
1, 71683, Poly_aftertouch_c, 0, 34, 0
1, 71685, Note_off_c, 0, 46, 61
1, 71690, Note_off_c, 0, 39, 55
1, 71693, Note_off_c, 0, 37, 44
1, 71710, Note_on_c, 0, 67, 65
1, 71711, Control_c, 0, 67, 79
1, 71720, Note_on_c, 0, 55, 43
1, 71748, Note_off_c, 0, 55, 53
1, 71759, Note_off_c, 0, 67, 57
1, 71845, Control_c, 0, 67, 79
1, 71866, Note_on_c, 0, 68, 59
1, 71882, Note_on_c, 0, 36, 49
1, 71892, Note_on_c, 0, 56, 39
1, 71905, Control_c, 0, 64, 110
1, 71919, Control_c, 0, 64, 91
1, 71934, Control_c, 0, 64, 77
1, 71949, Control_c, 0, 64, 63
1, 71964, Control_c, 0, 64, 0
1, 71994, Control_c, 0, 67, 79
1, 72024, Control_c, 0, 64, 24
1, 72038, Control_c, 0, 64, 58
1, 72038, Control_c, 0, 67, 78
1, 72053, Control_c, 0, 64, 70
1, 72062, Note_off_c, 0, 68, 65
1, 72068, Control_c, 0, 64, 85
1, 72072, Note_off_c, 0, 36, 57
1, 72074, Note_on_c, 0, 44, 35
1, 72083, Note_on_c, 0, 48, 27
1, 72083, Control_c, 0, 64, 123
1, 72086, Note_on_c, 0, 39, 33
1, 72098, Control_c, 0, 64, 127
1, 72098, Control_c, 0, 67, 78
1, 72107, Note_off_c, 0, 56, 58
1, 72166, Note_off_c, 0, 44, 37
1, 72166, Note_off_c, 0, 48, 37
1, 72194, Note_on_c, 0, 36, 39
1, 72234, Note_off_c, 0, 39, 32
1, 72320, Note_on_c, 0, 39, 24
1, 72322, Note_on_c, 0, 63, 54
1, 72327, Note_on_c, 0, 44, 33
1, 72346, Note_off_c, 0, 36, 40
1, 72361, Note_on_c, 0, 51, 38
1, 72389, Note_on_c, 0, 48, 3
1, 72430, Note_off_c, 0, 48, 47
1, 72453, Note_off_c, 0, 44, 35
1, 72456, Note_on_c, 0, 36, 46
1, 72505, Control_c, 0, 67, 77
1, 72523, Note_off_c, 0, 39, 0
1, 72534, Control_c, 0, 67, 77
1, 72560, Poly_aftertouch_c, 0, 39, 127
1, 72563, Control_c, 0, 67, 76
1, 72566, Note_on_c, 0, 44, 49
1, 72573, Note_on_c, 0, 48, 31
1, 72593, Control_c, 0, 67, 76
1, 72597, Note_off_c, 0, 36, 35
1, 72624, Control_c, 0, 67, 75
1, 72639, Control_c, 0, 67, 75
1, 72654, Control_c, 0, 67, 74
1, 72657, Note_off_c, 0, 48, 54
1, 72661, Note_off_c, 0, 44, 53
1, 72668, Control_c, 0, 67, 74
1, 72683, Control_c, 0, 67, 73
1, 72698, Control_c, 0, 67, 72
1, 72712, Control_c, 0, 67, 71
1, 72715, Note_on_c, 0, 36, 52
1, 72727, Control_c, 0, 67, 70
1, 72740, Note_off_c, 0, 51, 52
1, 72742, Control_c, 0, 67, 67
1, 72757, Control_c, 0, 67, 62
1, 72772, Control_c, 0, 67, 55
1, 72785, Poly_aftertouch_c, 0, 39, 0
1, 72786, Control_c, 0, 67, 47
1, 72799, Note_on_c, 0, 39, 14
1, 72801, Control_c, 0, 67, 34
1, 72805, Note_off_c, 0, 36, 55
1, 72810, Note_on_c, 0, 44, 45
1, 72816, Control_c, 0, 67, 23
1, 72831, Control_c, 0, 67, 9
1, 72839, Note_on_c, 0, 48, 45
1, 72846, Control_c, 0, 67, 0
1, 72874, Note_off_c, 0, 48, 62
1, 72904, Note_off_c, 0, 44, 58
1, 72930, Note_on_c, 0, 36, 58
1, 72937, Note_off_c, 0, 39, 40
1, 73079, Note_on_c, 0, 65, 66
1, 73091, Note_off_c, 0, 36, 36
1, 73097, Control_c, 0, 64, 104
1, 73098, Note_on_c, 0, 44, 54
1, 73106, Note_on_c, 0, 53, 42
1, 73112, Control_c, 0, 64, 84
1, 73127, Control_c, 0, 64, 68
1, 73129, Note_off_c, 0, 63, 60
1, 73149, Control_c, 0, 64, 48
1, 73164, Control_c, 0, 64, 46
1, 73179, Control_c, 0, 64, 60
1, 73193, Control_c, 0, 64, 71
1, 73208, Control_c, 0, 64, 86
1, 73223, Control_c, 0, 64, 125
1, 73225, Note_on_c, 0, 37, 64
1, 73238, Control_c, 0, 64, 127
1, 73240, Note_off_c, 0, 65, 62
1, 73246, Note_off_c, 0, 44, 55
1, 73264, Note_off_c, 0, 53, 63
1, 73374, Note_on_c, 0, 44, 53
1, 73425, Note_off_c, 0, 37, 58
1, 73437, Note_on_c, 0, 61, 70
1, 73449, Note_on_c, 0, 49, 65
1, 73479, Note_off_c, 0, 49, 65
1, 73532, Note_off_c, 0, 61, 62
1, 73544, Note_on_c, 0, 60, 69
1, 73561, Note_on_c, 0, 39, 54
1, 73566, Note_off_c, 0, 44, 37
1, 73573, Note_on_c, 0, 48, 57
1, 73580, Control_c, 0, 64, 117
1, 73595, Control_c, 0, 64, 93
1, 73609, Control_c, 0, 64, 74
1, 73624, Control_c, 0, 64, 24
1, 73639, Control_c, 0, 64, 0
1, 73683, Note_on_c, 0, 44, 55
1, 73693, Note_off_c, 0, 39, 59
1, 73698, Control_c, 0, 64, 61
1, 73713, Control_c, 0, 64, 78
1, 73714, Note_off_c, 0, 48, 63
1, 73728, Control_c, 0, 64, 105
1, 73742, Control_c, 0, 64, 127
1, 73748, Note_off_c, 0, 60, 65
1, 73781, Note_off_c, 0, 44, 59
1, 73801, Note_on_c, 0, 39, 57
1, 73926, Note_off_c, 0, 39, 53
1, 73929, Note_on_c, 0, 63, 73
1, 73942, Note_on_c, 0, 44, 51
1, 73966, Note_on_c, 0, 51, 37
1, 73989, Note_off_c, 0, 63, 61
1, 74006, Note_off_c, 0, 51, 50
1, 74015, Note_off_c, 0, 44, 57
1, 74042, Note_on_c, 0, 39, 61
1, 74125, Note_on_c, 0, 44, 64
1, 74130, Note_off_c, 0, 39, 58
1, 74193, Note_on_c, 0, 60, 70
1, 74272, Note_off_c, 0, 44, 35
1, 74291, Note_on_c, 0, 58, 75
1, 74298, Note_off_c, 0, 60, 59
1, 74314, Control_c, 0, 64, 100
1, 74318, Note_on_c, 0, 39, 47
1, 74321, Note_on_c, 0, 46, 57
1, 74329, Control_c, 0, 64, 80
1, 74344, Control_c, 0, 64, 62
1, 74358, Control_c, 0, 64, 0
1, 74418, Control_c, 0, 64, 22
1, 74432, Control_c, 0, 64, 57
1, 74435, Note_on_c, 0, 43, 66
1, 74438, Note_off_c, 0, 39, 53
1, 74439, Note_off_c, 0, 46, 64
1, 74447, Control_c, 0, 64, 68
1, 74462, Control_c, 0, 64, 80
1, 74477, Control_c, 0, 64, 105
1, 74486, Note_off_c, 0, 58, 63
1, 74492, Control_c, 0, 64, 127
1, 74554, Note_off_c, 0, 43, 58
1, 74557, Note_on_c, 0, 39, 64
1, 74649, Note_on_c, 0, 63, 74
1, 74671, Note_off_c, 0, 39, 54
1, 74682, Note_on_c, 0, 51, 49
1, 74701, Note_on_c, 0, 43, 65
1, 74757, Note_off_c, 0, 51, 58
1, 74766, Note_off_c, 0, 63, 56
1, 74793, Note_on_c, 0, 39, 63
1, 74795, Note_off_c, 0, 43, 52
1, 74899, Note_on_c, 0, 43, 65
1, 74914, Note_off_c, 0, 39, 48
1, 74925, Note_on_c, 0, 61, 71
1, 74927, Note_off_c, 0, 43, 54
1, 74929, Note_on_c, 0, 49, 62
1, 74954, Note_off_c, 0, 49, 61
1, 75014, Note_off_c, 0, 61, 60
1, 75034, Control_c, 0, 64, 107
1, 75046, Note_on_c, 0, 60, 64
1, 75049, Control_c, 0, 64, 81
1, 75058, Note_on_c, 0, 44, 50
1, 75063, Control_c, 0, 64, 61
1, 75078, Control_c, 0, 64, 0
1, 75181, Control_c, 0, 64, 45
1, 75196, Control_c, 0, 64, 66
1, 75199, Note_on_c, 0, 56, 45
1, 75211, Control_c, 0, 64, 79
1, 75215, Note_on_c, 0, 51, 30
1, 75221, Note_off_c, 0, 44, 58
1, 75224, Note_on_c, 0, 48, 32
1, 75226, Control_c, 0, 64, 104
1, 75241, Control_c, 0, 64, 127
1, 75286, Note_off_c, 0, 56, 54
1, 75311, Note_off_c, 0, 51, 37
1, 75330, Note_on_c, 0, 44, 41
1, 75358, Note_off_c, 0, 48, 28
1, 75446, Note_off_c, 0, 44, 57
1, 75476, Note_on_c, 0, 56, 31
1, 75479, Note_on_c, 0, 63, 59
1, 75482, Note_on_c, 0, 51, 34
1, 75482, Poly_aftertouch_c, 0, 48, 127
1, 75485, Control_c, 0, 64, 106
1, 75500, Control_c, 0, 64, 87
1, 75506, Note_off_c, 0, 60, 62
1, 75515, Control_c, 0, 64, 70
1, 75530, Control_c, 0, 64, 8
1, 75544, Control_c, 0, 64, 0
1, 75552, Note_off_c, 0, 51, 48
1, 75573, Note_on_c, 0, 44, 52
1, 75589, Control_c, 0, 64, 49
1, 75595, Note_off_c, 0, 56, 37
1, 75604, Control_c, 0, 64, 66
1, 75610, Poly_aftertouch_c, 0, 48, 0
1, 75619, Control_c, 0, 64, 80
1, 75634, Control_c, 0, 64, 100
1, 75649, Control_c, 0, 64, 127
1, 75696, Note_off_c, 0, 44, 58
1, 75699, Note_on_c, 0, 48, 37
1, 75707, Note_on_c, 0, 56, 52
1, 75721, Note_on_c, 0, 51, 43
1, 75798, Note_off_c, 0, 56, 55
1, 75810, Note_off_c, 0, 51, 50
1, 75820, Note_on_c, 0, 44, 58
1, 75840, Note_off_c, 0, 63, 64
1, 75866, Note_off_c, 0, 48, 41
1, 75941, Note_on_c, 0, 48, 47
1, 75942, Note_off_c, 0, 44, 56
1, 75953, Note_on_c, 0, 56, 42
1, 75954, Note_on_c, 0, 51, 45
1, 76011, Note_off_c, 0, 56, 56
1, 76012, Note_off_c, 0, 51, 55
1, 76039, Note_on_c, 0, 44, 64
1, 76072, Note_off_c, 0, 48, 35
1, 76168, Note_on_c, 0, 72, 70
1, 76170, Note_on_c, 0, 60, 63
1, 76174, Note_on_c, 0, 48, 40
1, 76180, Note_off_c, 0, 44, 58
1, 76197, Note_on_c, 0, 51, 53
1, 76200, Note_on_c, 0, 56, 41
1, 76213, Note_off_c, 0, 60, 62
1, 76236, Note_off_c, 0, 72, 63
1, 76248, Note_off_c, 0, 56, 57
1, 76258, Note_off_c, 0, 51, 57
1, 76269, Note_on_c, 0, 44, 71
1, 76310, Note_off_c, 0, 48, 35
1, 76400, Note_on_c, 0, 56, 53
1, 76402, Note_on_c, 0, 48, 58
1, 76409, Note_on_c, 0, 51, 50
1, 76410, Note_off_c, 0, 44, 58
1, 76420, Note_on_c, 0, 75, 79
1, 76433, Note_on_c, 0, 63, 59
1, 76439, Note_off_c, 0, 75, 71
1, 76456, Note_off_c, 0, 63, 61
1, 76498, Note_off_c, 0, 51, 55
1, 76501, Note_off_c, 0, 56, 45
1, 76502, Note_off_c, 0, 48, 59
1, 76515, Note_on_c, 0, 44, 69
1, 76516, Note_on_c, 0, 80, 90
1, 76528, Note_on_c, 0, 68, 72
1, 76619, Note_off_c, 0, 68, 64
1, 76629, Note_off_c, 0, 44, 58
1, 76633, Note_on_c, 0, 48, 57
1, 76635, Note_on_c, 0, 56, 53
1, 76641, Note_on_c, 0, 51, 56
1, 76721, Note_off_c, 0, 51, 58
1, 76725, Note_off_c, 0, 56, 53
1, 76733, Note_off_c, 0, 48, 54
1, 76738, Note_on_c, 0, 44, 66
1, 76844, Note_on_c, 0, 84, 90
1, 76848, Note_on_c, 0, 56, 58
1, 76856, Note_on_c, 0, 72, 70
1, 76860, Note_off_c, 0, 44, 59
1, 76868, Note_on_c, 0, 48, 58
1, 76881, Note_off_c, 0, 80, 63
1, 76883, Note_on_c, 0, 51, 50
1, 76912, Note_off_c, 0, 72, 64
1, 76917, Note_off_c, 0, 84, 64
1, 76929, Note_off_c, 0, 56, 59
1, 76948, Note_off_c, 0, 51, 60
1, 76955, Note_on_c, 0, 44, 73
1, 76962, Note_off_c, 0, 48, 53
1, 77056, Note_on_c, 0, 56, 58
1, 77062, Note_on_c, 0, 48, 58
1, 77076, Note_on_c, 0, 51, 60
1, 77077, Note_off_c, 0, 44, 60
1, 77106, Note_on_c, 0, 80, 90
1, 77113, Note_on_c, 0, 68, 78
1, 77135, Note_off_c, 0, 68, 72
1, 77148, Note_off_c, 0, 56, 56
1, 77155, Note_off_c, 0, 48, 55
1, 77163, Note_on_c, 0, 78, 5
1, 77166, Note_off_c, 0, 80, 62
1, 77177, Note_off_c, 0, 51, 58
1, 77187, Note_on_c, 0, 79, 93
1, 77192, Note_on_c, 0, 46, 69
1, 77193, Note_on_c, 0, 67, 84
1, 77220, Control_c, 0, 64, 94
1, 77234, Control_c, 0, 64, 69
1, 77237, Note_off_c, 0, 78, 48
1, 77249, Control_c, 0, 64, 0
1, 77307, Note_on_c, 0, 58, 58
1, 77315, Note_on_c, 0, 49, 64
1, 77323, Control_c, 0, 64, 30
1, 77324, Note_on_c, 0, 51, 51
1, 77327, Note_off_c, 0, 46, 63
1, 77338, Control_c, 0, 64, 65
1, 77345, Note_off_c, 0, 67, 61
1, 77352, Control_c, 0, 64, 79
1, 77367, Control_c, 0, 64, 114
1, 77369, Note_off_c, 0, 79, 63
1, 77382, Control_c, 0, 64, 127
1, 77388, Note_off_c, 0, 58, 60
1, 77409, Note_on_c, 0, 46, 69
1, 77411, Note_off_c, 0, 51, 60
1, 77416, Note_off_c, 0, 49, 61
1, 77526, Poly_aftertouch_c, 0, 78, 127
1, 77538, Note_on_c, 0, 82, 93
1, 77544, Note_on_c, 0, 70, 82
1, 77564, Note_on_c, 0, 49, 58
1, 77565, Note_on_c, 0, 58, 59
1, 77572, Note_off_c, 0, 46, 62
1, 77573, Note_on_c, 0, 51, 51
1, 77597, Poly_aftertouch_c, 0, 78, 0
1, 77598, Note_off_c, 0, 70, 64
1, 77611, Note_off_c, 0, 82, 65
1, 77635, Note_off_c, 0, 58, 61
1, 77657, Note_off_c, 0, 51, 60
1, 77662, Note_on_c, 0, 46, 68
1, 77666, Note_off_c, 0, 49, 60
1, 77753, Note_on_c, 0, 58, 67
1, 77770, Note_on_c, 0, 51, 65
1, 77774, Note_on_c, 0, 49, 56
1, 77786, Note_off_c, 0, 46, 59
1, 77805, Control_c, 0, 67, 9
1, 77809, Note_off_c, 0, 49, 64
1, 77820, Control_c, 0, 67, 11
1, 77822, Note_off_c, 0, 58, 63
1, 77834, Note_off_c, 0, 51, 56
1, 77835, Control_c, 0, 67, 12
1, 77850, Control_c, 0, 67, 14
1, 77859, Note_on_c, 0, 79, 93
1, 77864, Control_c, 0, 67, 15
1, 77868, Note_on_c, 0, 67, 76
1, 77879, Control_c, 0, 67, 17
1, 77892, Note_off_c, 0, 67, 69
1, 77894, Control_c, 0, 67, 19
1, 77908, Control_c, 0, 67, 21
1, 77911, Note_off_c, 0, 79, 58
1, 77923, Control_c, 0, 67, 23
1, 77938, Control_c, 0, 67, 25
1, 77954, Control_c, 0, 67, 27
1, 77969, Control_c, 0, 67, 29
1, 77983, Control_c, 0, 67, 32
1, 77998, Control_c, 0, 67, 34
1, 78013, Control_c, 0, 67, 37
1, 78028, Control_c, 0, 67, 40
1, 78043, Control_c, 0, 67, 42
1, 78057, Control_c, 0, 64, 107
1, 78057, Control_c, 0, 67, 45
1, 78072, Control_c, 0, 64, 90
1, 78072, Control_c, 0, 67, 46
1, 78087, Control_c, 0, 64, 75
1, 78087, Control_c, 0, 67, 48
1, 78102, Control_c, 0, 64, 62
1, 78102, Control_c, 0, 67, 49
1, 78117, Control_c, 0, 64, 0
1, 78117, Control_c, 0, 67, 49
1, 78121, Note_on_c, 0, 80, 59
1, 78131, Note_on_c, 0, 56, 40
1, 78132, Control_c, 0, 67, 50
1, 78139, Note_on_c, 0, 68, 41
1, 78147, Control_c, 0, 67, 51
1, 78147, Note_on_c, 0, 60, 41
1, 78149, Note_on_c, 0, 51, 36
1, 78158, Note_on_c, 0, 48, 32
1, 78161, Control_c, 0, 67, 52
1, 78176, Control_c, 0, 67, 53
1, 78191, Control_c, 0, 67, 54
1, 78206, Control_c, 0, 67, 54
1, 78221, Control_c, 0, 67, 55
1, 78236, Control_c, 0, 67, 56
1, 78251, Control_c, 0, 67, 57
1, 78266, Control_c, 0, 67, 59
1, 78281, Control_c, 0, 67, 61
1, 78296, Control_c, 0, 67, 62
1, 78311, Control_c, 0, 64, 56
1, 78311, Control_c, 0, 67, 63
1, 78325, Control_c, 0, 64, 69
1, 78325, Control_c, 0, 67, 64
1, 78340, Control_c, 0, 64, 82
1, 78340, Control_c, 0, 67, 66
1, 78351, Note_off_c, 0, 80, 65
1, 78355, Control_c, 0, 64, 102
1, 78355, Control_c, 0, 67, 68
1, 78370, Control_c, 0, 64, 127
1, 78370, Control_c, 0, 67, 72
1, 78392, Control_c, 0, 67, 75
1, 78400, Note_off_c, 0, 68, 62
1, 78406, Control_c, 0, 67, 76
1, 78421, Control_c, 0, 67, 78
1, 78436, Control_c, 0, 67, 80
1, 78451, Control_c, 0, 67, 82
1, 78466, Control_c, 0, 67, 83
1, 78480, Control_c, 0, 67, 84
1, 78495, Control_c, 0, 67, 85
1, 78540, Control_c, 0, 67, 86
1, 78689, Note_on_c, 0, 75, 48
1, 78703, Control_c, 0, 64, 111
1, 78704, Note_on_c, 0, 63, 38
1, 78718, Control_c, 0, 64, 102
1, 78732, Control_c, 0, 64, 93
1, 78747, Control_c, 0, 64, 85
1, 78762, Control_c, 0, 64, 76
1, 78777, Control_c, 0, 64, 69
1, 78792, Control_c, 0, 64, 61
1, 78806, Control_c, 0, 64, 46
1, 78821, Control_c, 0, 64, 12
1, 78836, Control_c, 0, 64, 0
1, 79044, Control_c, 0, 67, 85
1, 79059, Control_c, 0, 67, 85
1, 79074, Control_c, 0, 64, 12
1, 79089, Control_c, 0, 64, 39
1, 79103, Control_c, 0, 64, 52
1, 79118, Control_c, 0, 64, 59
1, 79141, Control_c, 0, 64, 63
1, 79141, Control_c, 0, 67, 84
1, 79155, Control_c, 0, 64, 65
1, 79170, Control_c, 0, 64, 67
1, 79185, Control_c, 0, 64, 70
1, 79185, Control_c, 0, 67, 84
1, 79200, Control_c, 0, 64, 73
1, 79215, Control_c, 0, 64, 78
1, 79229, Control_c, 0, 64, 83
1, 79229, Control_c, 0, 67, 83
1, 79244, Control_c, 0, 64, 89
1, 79259, Control_c, 0, 64, 93
1, 79274, Control_c, 0, 64, 96
1, 79274, Control_c, 0, 67, 83
1, 79289, Control_c, 0, 64, 99
1, 79303, Control_c, 0, 64, 103
1, 79303, Control_c, 0, 67, 82
1, 79318, Control_c, 0, 64, 109
1, 79333, Control_c, 0, 64, 125
1, 79348, Control_c, 0, 64, 127
1, 79393, Control_c, 0, 67, 82
1, 79422, Control_c, 0, 67, 81
1, 79541, Control_c, 0, 67, 81
1, 79570, Control_c, 0, 67, 80
1, 79629, Control_c, 0, 67, 80
1, 79659, Control_c, 0, 67, 79
1, 79689, Control_c, 0, 67, 79
1, 79703, Control_c, 0, 67, 78
1, 79753, Note_off_c, 0, 48, 41
1, 79808, Control_c, 0, 67, 78
1, 79828, Note_off_c, 0, 60, 35
1, 79842, Note_off_c, 0, 51, 35
1, 79855, Note_off_c, 0, 56, 60
1, 79946, Note_off_c, 0, 63, 60
1, 79964, Control_c, 0, 67, 78
1, 79983, Note_off_c, 0, 75, 61
1, 79993, Control_c, 0, 67, 79
1, 80023, Control_c, 0, 67, 79
1, 80126, Control_c, 0, 67, 79
1, 80141, Control_c, 0, 67, 78
1, 80171, Control_c, 0, 64, 114
1, 80171, Control_c, 0, 67, 78
1, 80186, Control_c, 0, 64, 99
1, 80200, Control_c, 0, 64, 86
1, 80200, Control_c, 0, 67, 77
1, 80215, Control_c, 0, 64, 69
1, 80215, Control_c, 0, 67, 76
1, 80230, Control_c, 0, 64, 0
1, 80230, Control_c, 0, 67, 74
1, 80236, Note_on_c, 0, 76, 100
1, 80241, Note_on_c, 0, 56, 91
1, 80243, Note_on_c, 0, 52, 86
1, 80244, Note_on_c, 0, 49, 82
1, 80244, Note_on_c, 0, 64, 89
1, 80245, Control_c, 0, 67, 70
1, 80260, Control_c, 0, 67, 64
1, 80275, Control_c, 0, 67, 53
1, 80290, Control_c, 0, 67, 32
1, 80304, Control_c, 0, 67, 10
1, 80319, Control_c, 0, 67, 0
1, 80393, Control_c, 0, 64, 42
1, 80408, Control_c, 0, 64, 63
1, 80423, Control_c, 0, 64, 77
1, 80438, Control_c, 0, 64, 127
1, 80493, Note_off_c, 0, 76, 60
1, 80509, Note_off_c, 0, 64, 63
1, 80711, Note_off_c, 0, 56, 61
1, 80749, Note_on_c, 0, 73, 94
1, 80754, Note_on_c, 0, 61, 89
1, 80755, Note_on_c, 0, 57, 84
1, 80801, Control_c, 0, 64, 119
1, 80816, Control_c, 0, 64, 88
1, 80831, Control_c, 0, 64, 68
1, 80846, Control_c, 0, 64, 0
1, 81127, Control_c, 0, 64, 35
1, 81142, Control_c, 0, 64, 53
1, 81157, Control_c, 0, 64, 60
1, 81172, Control_c, 0, 64, 63
1, 81187, Control_c, 0, 64, 64
1, 81201, Control_c, 0, 64, 66
1, 81216, Control_c, 0, 64, 68
1, 81231, Control_c, 0, 64, 71
1, 81246, Control_c, 0, 64, 74
1, 81261, Control_c, 0, 64, 77
1, 81275, Control_c, 0, 64, 80
1, 81290, Control_c, 0, 64, 84
1, 81305, Control_c, 0, 64, 89
1, 81319, Control_c, 0, 64, 97
1, 81334, Control_c, 0, 64, 105
1, 81349, Control_c, 0, 64, 118
1, 81364, Control_c, 0, 64, 127
1, 81491, Control_c, 0, 67, 8
1, 81521, Control_c, 0, 67, 8
1, 81536, Control_c, 0, 67, 9
1, 81550, Control_c, 0, 67, 10
1, 81565, Control_c, 0, 67, 11
1, 81580, Control_c, 0, 67, 13
1, 81595, Control_c, 0, 67, 14
1, 81610, Control_c, 0, 67, 14
1, 81624, Control_c, 0, 67, 15
1, 81639, Control_c, 0, 67, 16
1, 81654, Control_c, 0, 67, 17
1, 81669, Control_c, 0, 67, 18
1, 81684, Control_c, 0, 67, 20
1, 81698, Control_c, 0, 67, 21
1, 81713, Control_c, 0, 67, 21
1, 81724, Note_off_c, 0, 52, 32
1, 81743, Control_c, 0, 67, 22
1, 81757, Control_c, 0, 67, 23
1, 81772, Control_c, 0, 67, 25
1, 81787, Control_c, 0, 67, 26
1, 81802, Control_c, 0, 67, 27
1, 81836, Note_off_c, 0, 49, 59
1, 81837, Note_off_c, 0, 61, 54
1, 81891, Control_c, 0, 67, 28
1, 81930, Note_off_c, 0, 73, 55
1, 82042, Note_off_c, 0, 57, 39
1, 82284, Control_c, 0, 64, 114
1, 82299, Control_c, 0, 64, 107
1, 82314, Control_c, 0, 64, 102
1, 82329, Control_c, 0, 64, 99
1, 82344, Control_c, 0, 64, 96
1, 82359, Control_c, 0, 64, 94
1, 82373, Control_c, 0, 64, 92
1, 82388, Control_c, 0, 64, 90
1, 82403, Control_c, 0, 64, 88
1, 82418, Control_c, 0, 64, 86
1, 82433, Control_c, 0, 64, 85
1, 82447, Control_c, 0, 64, 84
1, 82462, Control_c, 0, 64, 83
1, 82477, Control_c, 0, 64, 82
1, 82492, Control_c, 0, 64, 81
1, 82507, Control_c, 0, 64, 80
1, 82521, Control_c, 0, 64, 78
1, 82536, Control_c, 0, 64, 77
1, 82536, Control_c, 0, 67, 28
1, 82551, Control_c, 0, 64, 76
1, 82566, Control_c, 0, 64, 74
1, 82580, Control_c, 0, 64, 73
1, 82595, Control_c, 0, 64, 71
1, 82595, Control_c, 0, 67, 29
1, 82610, Control_c, 0, 64, 69
1, 82610, Control_c, 0, 67, 29
1, 82625, Control_c, 0, 64, 68
1, 82640, Control_c, 0, 64, 66
1, 82654, Control_c, 0, 64, 65
1, 82654, Control_c, 0, 67, 30
1, 82669, Control_c, 0, 64, 64
1, 82669, Control_c, 0, 67, 31
1, 82684, Control_c, 0, 64, 62
1, 82684, Control_c, 0, 67, 32
1, 82698, Control_c, 0, 64, 60
1, 82698, Control_c, 0, 67, 33
1, 82713, Control_c, 0, 64, 58
1, 82728, Control_c, 0, 64, 54
1, 82728, Control_c, 0, 67, 33
1, 82743, Control_c, 0, 64, 47
1, 82758, Control_c, 0, 64, 34
1, 82773, Control_c, 0, 64, 0
1, 82778, Note_on_c, 0, 71, 58
1, 82809, Note_on_c, 0, 59, 35
1, 82814, Note_on_c, 0, 56, 30
1, 82825, Note_on_c, 0, 51, 36
1, 83152, Control_c, 0, 64, 31
1, 83166, Control_c, 0, 64, 42
1, 83181, Control_c, 0, 64, 47
1, 83196, Control_c, 0, 64, 49
1, 83211, Control_c, 0, 64, 50
1, 83226, Control_c, 0, 64, 52
1, 83241, Control_c, 0, 64, 53
1, 83256, Control_c, 0, 64, 54
1, 83256, Control_c, 0, 67, 34
1, 83270, Control_c, 0, 64, 55
1, 83270, Control_c, 0, 67, 34
1, 83285, Control_c, 0, 64, 56
1, 83300, Control_c, 0, 64, 57
1, 83300, Control_c, 0, 67, 35
1, 83315, Control_c, 0, 64, 58
1, 83315, Control_c, 0, 67, 37
1, 83329, Control_c, 0, 64, 59
1, 83329, Control_c, 0, 67, 38
1, 83344, Control_c, 0, 64, 60
1, 83344, Control_c, 0, 67, 41
1, 83359, Control_c, 0, 64, 60
1, 83359, Control_c, 0, 67, 44
1, 83374, Control_c, 0, 64, 61
1, 83374, Control_c, 0, 67, 48
1, 83389, Control_c, 0, 64, 61
1, 83389, Control_c, 0, 67, 50
1, 83403, Control_c, 0, 64, 62
1, 83403, Control_c, 0, 67, 51
1, 83418, Control_c, 0, 64, 63
1, 83418, Control_c, 0, 67, 52
1, 83433, Control_c, 0, 64, 63
1, 83433, Control_c, 0, 67, 52
1, 83448, Control_c, 0, 64, 64
1, 83448, Control_c, 0, 67, 53
1, 83463, Control_c, 0, 64, 65
1, 83463, Control_c, 0, 67, 55
1, 83477, Control_c, 0, 64, 66
1, 83477, Control_c, 0, 67, 56
1, 83492, Control_c, 0, 64, 67
1, 83507, Control_c, 0, 64, 69
1, 83507, Control_c, 0, 67, 56
1, 83521, Control_c, 0, 64, 71
1, 83536, Control_c, 0, 64, 73
1, 83551, Control_c, 0, 64, 74
1, 83566, Control_c, 0, 64, 77
1, 83581, Control_c, 0, 64, 79
1, 83596, Control_c, 0, 64, 81
1, 83611, Control_c, 0, 64, 83
1, 83633, Control_c, 0, 64, 86
1, 83648, Control_c, 0, 64, 90
1, 83663, Control_c, 0, 64, 96
1, 83677, Control_c, 0, 64, 102
1, 83692, Control_c, 0, 64, 109
1, 83707, Control_c, 0, 64, 121
1, 83721, Control_c, 0, 64, 127
1, 83721, Control_c, 0, 67, 56
1, 83751, Control_c, 0, 67, 55
1, 83900, Control_c, 0, 67, 55
1, 84177, Note_on_c, 0, 70, 47
1, 84225, Control_c, 0, 67, 55
1, 84240, Control_c, 0, 64, 105
1, 84255, Control_c, 0, 64, 91
1, 84268, Note_off_c, 0, 71, 55
1, 84270, Control_c, 0, 64, 80
1, 84285, Control_c, 0, 64, 73
1, 84299, Control_c, 0, 64, 72
1, 84314, Control_c, 0, 64, 76
1, 84314, Control_c, 0, 67, 56
1, 84329, Control_c, 0, 64, 84
1, 84344, Control_c, 0, 64, 95
1, 84359, Control_c, 0, 64, 110
1, 84359, Control_c, 0, 67, 56
1, 84381, Control_c, 0, 64, 127
1, 84396, Control_c, 0, 67, 57
1, 84425, Control_c, 0, 67, 58
1, 84439, Note_off_c, 0, 59, 36
1, 84455, Control_c, 0, 67, 59
1, 84461, Note_off_c, 0, 51, 42
1, 84469, Control_c, 0, 67, 64
1, 84484, Control_c, 0, 67, 69
1, 84499, Control_c, 0, 67, 73
1, 84514, Control_c, 0, 67, 75
1, 84529, Control_c, 0, 67, 77
1, 84544, Control_c, 0, 67, 79
1, 84558, Control_c, 0, 67, 81
1, 84573, Control_c, 0, 67, 83
1, 84588, Control_c, 0, 67, 85
1, 84591, Note_on_c, 0, 68, 52
1, 84604, Control_c, 0, 67, 87
1, 84619, Control_c, 0, 67, 88
1, 84705, Note_off_c, 0, 68, 59
1, 84722, Note_off_c, 0, 70, 22
1, 84818, Note_on_c, 0, 69, 51
1, 84860, Note_on_c, 0, 61, 29
1, 84879, Note_on_c, 0, 55, 37
1, 84894, Note_on_c, 0, 51, 34
1, 84915, Control_c, 0, 64, 104
1, 84923, Note_off_c, 0, 56, 42
1, 84930, Control_c, 0, 64, 86
1, 84945, Control_c, 0, 64, 72
1, 84960, Control_c, 0, 64, 56
1, 84974, Control_c, 0, 64, 0
1, 85004, Control_c, 0, 64, 12
1, 85005, Note_off_c, 0, 69, 54
1, 85019, Control_c, 0, 64, 53
1, 85023, Note_on_c, 0, 70, 43
1, 85034, Control_c, 0, 64, 66
1, 85048, Control_c, 0, 64, 75
1, 85063, Control_c, 0, 64, 86
1, 85078, Control_c, 0, 64, 96
1, 85079, Note_off_c, 0, 70, 60
1, 85092, Control_c, 0, 64, 104
1, 85107, Control_c, 0, 64, 106
1, 85118, Note_on_c, 0, 71, 54
1, 85130, Control_c, 0, 64, 106
1, 85157, Note_off_c, 0, 71, 63
1, 85189, Control_c, 0, 64, 106
1, 85194, Note_on_c, 0, 70, 44
1, 85204, Control_c, 0, 64, 100
1, 85219, Control_c, 0, 64, 88
1, 85220, Note_off_c, 0, 70, 57
1, 85234, Control_c, 0, 64, 76
1, 85241, Note_on_c, 0, 71, 57
1, 85248, Control_c, 0, 64, 65
1, 85263, Control_c, 0, 64, 57
1, 85278, Note_off_c, 0, 71, 63
1, 85278, Control_c, 0, 64, 59
1, 85292, Control_c, 0, 64, 64
1, 85298, Note_on_c, 0, 70, 57
1, 85307, Control_c, 0, 64, 70
1, 85322, Control_c, 0, 64, 81
1, 85336, Note_off_c, 0, 70, 63
1, 85337, Control_c, 0, 64, 92
1, 85352, Control_c, 0, 64, 102
1, 85360, Note_on_c, 0, 71, 48
1, 85366, Control_c, 0, 64, 112
1, 85381, Control_c, 0, 64, 122
1, 85396, Note_off_c, 0, 71, 61
1, 85397, Control_c, 0, 64, 127
1, 85429, Note_on_c, 0, 70, 48
1, 85458, Note_off_c, 0, 70, 55
1, 85490, Note_on_c, 0, 71, 50
1, 85512, Note_off_c, 0, 71, 61
1, 85540, Note_on_c, 0, 70, 51
1, 85567, Note_off_c, 0, 70, 63
1, 85595, Note_on_c, 0, 71, 58
1, 85633, Note_off_c, 0, 71, 62
1, 85646, Note_on_c, 0, 70, 61
1, 85685, Note_off_c, 0, 70, 62
1, 85703, Note_off_c, 0, 51, 42
1, 85714, Note_on_c, 0, 71, 51
1, 85729, Note_off_c, 0, 55, 57
1, 85745, Note_off_c, 0, 71, 60
1, 85766, Note_off_c, 0, 61, 40
1, 85779, Note_on_c, 0, 70, 49
1, 85799, Note_off_c, 0, 70, 61
1, 85831, Note_on_c, 0, 71, 49
1, 85861, Note_off_c, 0, 71, 61
1, 85878, Note_on_c, 0, 70, 64
1, 85915, Note_off_c, 0, 70, 60
1, 85955, Note_on_c, 0, 71, 57
1, 85991, Note_off_c, 0, 71, 61
1, 86034, Note_on_c, 0, 70, 32
1, 86055, Note_on_c, 0, 71, 48
1, 86089, Note_off_c, 0, 70, 0
1, 86099, Note_off_c, 0, 71, 59
1, 86101, Control_c, 0, 67, 88
1, 86104, Note_on_c, 0, 70, 35
1, 86147, Note_off_c, 0, 70, 61
1, 86162, Note_on_c, 0, 71, 48
1, 86175, Control_c, 0, 67, 89
1, 86220, Control_c, 0, 67, 89
1, 86231, Note_off_c, 0, 71, 58
1, 86243, Note_on_c, 0, 70, 57
1, 86294, Control_c, 0, 67, 90
1, 86307, Note_off_c, 0, 70, 61
1, 86324, Control_c, 0, 67, 91
1, 86338, Control_c, 0, 67, 94
1, 86353, Control_c, 0, 67, 97
1, 86368, Control_c, 0, 67, 99
1, 86383, Control_c, 0, 67, 101
1, 86386, Note_on_c, 0, 76, 56
1, 86398, Control_c, 0, 67, 102
1, 86413, Control_c, 0, 64, 114
1, 86413, Control_c, 0, 67, 104
1, 86428, Control_c, 0, 64, 87
1, 86428, Control_c, 0, 67, 106
1, 86442, Control_c, 0, 64, 67
1, 86442, Control_c, 0, 67, 108
1, 86457, Control_c, 0, 64, 0
1, 86457, Control_c, 0, 67, 109
1, 86487, Control_c, 0, 64, 28
1, 86495, Note_off_c, 0, 76, 61
1, 86502, Control_c, 0, 64, 63
1, 86514, Note_on_c, 0, 75, 41
1, 86517, Control_c, 0, 64, 78
1, 86532, Control_c, 0, 64, 108
1, 86545, Note_off_c, 0, 75, 53
1, 86546, Control_c, 0, 64, 127
1, 86563, Note_on_c, 0, 76, 50
1, 86604, Note_off_c, 0, 76, 56
1, 86638, Note_on_c, 0, 75, 58
1, 86668, Note_off_c, 0, 75, 64
1, 86694, Note_on_c, 0, 76, 50
1, 86723, Note_off_c, 0, 76, 57
1, 86744, Note_on_c, 0, 75, 58
1, 86772, Note_off_c, 0, 75, 62
1, 86797, Note_on_c, 0, 76, 54
1, 86828, Note_off_c, 0, 76, 55
1, 86849, Note_on_c, 0, 75, 57
1, 86881, Note_off_c, 0, 75, 61
1, 86896, Note_on_c, 0, 76, 54
1, 86931, Note_off_c, 0, 76, 60
1, 86958, Note_on_c, 0, 75, 56
1, 86982, Note_off_c, 0, 75, 60
1, 87009, Note_on_c, 0, 76, 53
1, 87042, Note_off_c, 0, 76, 56
1, 87059, Note_on_c, 0, 75, 60
1, 87092, Note_off_c, 0, 75, 63
1, 87113, Note_on_c, 0, 76, 54
1, 87147, Note_off_c, 0, 76, 60
1, 87168, Note_on_c, 0, 75, 61
1, 87198, Note_off_c, 0, 75, 63
1, 87223, Note_on_c, 0, 76, 54
1, 87265, Note_off_c, 0, 76, 52
1, 87286, Note_on_c, 0, 75, 44
1, 87313, Note_on_c, 0, 76, 49
1, 87322, Note_off_c, 0, 75, 47
1, 87352, Note_off_c, 0, 76, 57
1, 87381, Note_on_c, 0, 75, 38
1, 87417, Note_on_c, 0, 76, 44
1, 87435, Note_off_c, 0, 75, 0
1, 87447, Note_off_c, 0, 76, 54
1, 87450, Note_on_c, 0, 75, 43
1, 87495, Note_off_c, 0, 75, 58
1, 87506, Note_on_c, 0, 76, 44
1, 87550, Note_off_c, 0, 76, 48
1, 87567, Note_on_c, 0, 75, 49
1, 87654, Note_off_c, 0, 75, 57
1, 87668, Note_on_c, 0, 74, 51
1, 87777, Note_off_c, 0, 74, 51
1, 87805, Note_on_c, 0, 75, 49
1, 87840, Note_off_c, 0, 75, 64
1, 87964, Note_on_c, 0, 88, 55
1, 87984, Control_c, 0, 64, 108
1, 87999, Control_c, 0, 64, 83
1, 88014, Control_c, 0, 64, 64
1, 88029, Control_c, 0, 64, 0
1, 88044, Control_c, 0, 64, 28
1, 88058, Control_c, 0, 64, 61
1, 88073, Control_c, 0, 64, 79
1, 88081, Note_off_c, 0, 88, 66
1, 88088, Control_c, 0, 64, 118
1, 88094, Note_on_c, 0, 87, 59
1, 88103, Control_c, 0, 64, 127
1, 88132, Note_off_c, 0, 87, 55
1, 88160, Note_on_c, 0, 88, 42
1, 88188, Note_off_c, 0, 88, 59
1, 88223, Note_on_c, 0, 87, 51
1, 88245, Note_off_c, 0, 87, 58
1, 88273, Control_c, 0, 67, 109
1, 88276, Note_on_c, 0, 88, 56
1, 88295, Note_off_c, 0, 88, 64
1, 88303, Control_c, 0, 67, 108
1, 88316, Note_on_c, 0, 87, 66
1, 88338, Note_off_c, 0, 87, 61
1, 88371, Note_on_c, 0, 88, 63
1, 88393, Note_off_c, 0, 88, 62
1, 88407, Control_c, 0, 67, 108
1, 88413, Note_on_c, 0, 87, 67
1, 88437, Control_c, 0, 67, 107
1, 88446, Note_off_c, 0, 87, 62
1, 88473, Note_on_c, 0, 88, 60
1, 88492, Note_off_c, 0, 88, 64
1, 88519, Note_on_c, 0, 87, 65
1, 88552, Note_off_c, 0, 87, 63
1, 88555, Control_c, 0, 67, 107
1, 88564, Note_on_c, 0, 88, 69
1, 88598, Note_off_c, 0, 88, 62
1, 88624, Note_on_c, 0, 87, 68
1, 88656, Note_off_c, 0, 87, 62
1, 88681, Note_on_c, 0, 88, 58
1, 88714, Note_off_c, 0, 88, 66
1, 88729, Note_on_c, 0, 87, 63
1, 88762, Note_off_c, 0, 87, 62
1, 88791, Note_on_c, 0, 88, 60
1, 88811, Note_off_c, 0, 88, 63
1, 88838, Note_on_c, 0, 87, 66
1, 88874, Note_off_c, 0, 87, 62
1, 88893, Note_on_c, 0, 88, 64
1, 88923, Note_off_c, 0, 88, 64
1, 88947, Note_on_c, 0, 87, 67
1, 88970, Note_off_c, 0, 87, 60
1, 88998, Note_on_c, 0, 88, 59
1, 89055, Note_off_c, 0, 88, 62
1, 89059, Note_on_c, 0, 87, 63
1, 89129, Note_off_c, 0, 87, 61
1, 89140, Control_c, 0, 67, 107
1, 89154, Note_on_c, 0, 86, 53
1, 89244, Control_c, 0, 67, 108
1, 89268, Note_on_c, 0, 87, 62
1, 89270, Note_off_c, 0, 86, 60
1, 89289, Control_c, 0, 67, 108
1, 89319, Control_c, 0, 67, 109
1, 89333, Control_c, 0, 67, 109
1, 89348, Control_c, 0, 67, 110
1, 89378, Control_c, 0, 67, 110
1, 89394, Control_c, 0, 67, 111
1, 89421, Note_off_c, 0, 87, 54
1, 89423, Control_c, 0, 67, 112
1, 89429, Note_on_c, 0, 88, 55
1, 89438, Control_c, 0, 67, 115
1, 89453, Control_c, 0, 67, 120
1, 89468, Control_c, 0, 67, 123
1, 89482, Control_c, 0, 67, 125
1, 89497, Control_c, 0, 67, 127
1, 89512, Control_c, 0, 67, 127
1, 89566, Note_on_c, 0, 87, 52
1, 89588, Note_off_c, 0, 88, 54
1, 89699, Note_on_c, 0, 85, 53
1, 89798, Note_off_c, 0, 85, 62
1, 89799, Note_off_c, 0, 87, 39
1, 89827, Note_on_c, 0, 83, 56
1, 89939, Note_off_c, 0, 83, 55
1, 89945, Note_on_c, 0, 82, 55
1, 90060, Note_on_c, 0, 80, 54
1, 90127, Control_c, 0, 64, 121
1, 90142, Control_c, 0, 64, 115
1, 90152, Note_off_c, 0, 80, 60
1, 90156, Control_c, 0, 64, 111
1, 90158, Note_off_c, 0, 82, 37
1, 90171, Control_c, 0, 64, 108
1, 90186, Control_c, 0, 64, 105
1, 90189, Note_on_c, 0, 79, 52
1, 90201, Control_c, 0, 64, 102
1, 90216, Control_c, 0, 64, 99
1, 90231, Control_c, 0, 64, 96
1, 90246, Control_c, 0, 64, 95
1, 90261, Control_c, 0, 64, 94
1, 90276, Note_off_c, 0, 79, 52
1, 90276, Control_c, 0, 64, 93
1, 90291, Control_c, 0, 64, 93
1, 90294, Note_on_c, 0, 78, 55
1, 90305, Control_c, 0, 64, 92
1, 90335, Control_c, 0, 64, 92
1, 90350, Control_c, 0, 64, 91
1, 90372, Control_c, 0, 64, 89
1, 90386, Control_c, 0, 64, 88
1, 90401, Control_c, 0, 64, 87
1, 90402, Note_off_c, 0, 78, 64
1, 90416, Control_c, 0, 64, 86
1, 90428, Note_on_c, 0, 76, 52
1, 90431, Control_c, 0, 64, 86
1, 90446, Control_c, 0, 64, 85
1, 90461, Control_c, 0, 64, 85
1, 90476, Control_c, 0, 64, 84
1, 90490, Control_c, 0, 64, 83
1, 90505, Control_c, 0, 64, 82
1, 90520, Control_c, 0, 64, 81
1, 90535, Control_c, 0, 64, 80
1, 90536, Note_off_c, 0, 76, 59
1, 90550, Control_c, 0, 64, 78
1, 90556, Note_on_c, 0, 75, 48
1, 90565, Control_c, 0, 64, 78
1, 90594, Control_c, 0, 64, 77
1, 90609, Control_c, 0, 64, 76
1, 90624, Control_c, 0, 64, 74
1, 90639, Control_c, 0, 64, 72
1, 90654, Control_c, 0, 64, 71
1, 90668, Control_c, 0, 64, 71
1, 90669, Note_on_c, 0, 73, 50
1, 90684, Control_c, 0, 64, 70
1, 90699, Control_c, 0, 64, 70
1, 90713, Control_c, 0, 64, 69
1, 90728, Control_c, 0, 64, 69
1, 90743, Control_c, 0, 64, 68
1, 90746, Note_off_c, 0, 75, 40
1, 90758, Control_c, 0, 64, 68
1, 90759, Note_off_c, 0, 73, 59
1, 90773, Control_c, 0, 64, 67
1, 90787, Control_c, 0, 64, 67
1, 90792, Note_on_c, 0, 71, 46
1, 90802, Control_c, 0, 64, 66
1, 90817, Control_c, 0, 64, 66
1, 90832, Control_c, 0, 64, 65
1, 90861, Control_c, 0, 64, 65
1, 90876, Control_c, 0, 64, 64
1, 90891, Control_c, 0, 64, 63
1, 90902, Note_off_c, 0, 71, 60
1, 90905, Control_c, 0, 64, 63
1, 90919, Note_on_c, 0, 70, 48
1, 90920, Control_c, 0, 64, 62
1, 90935, Control_c, 0, 64, 61
1, 90950, Control_c, 0, 64, 60
1, 90965, Control_c, 0, 64, 59
1, 90981, Control_c, 0, 64, 58
1, 90996, Control_c, 0, 64, 57
1, 91010, Control_c, 0, 64, 56
1, 91025, Control_c, 0, 64, 53
1, 91038, Note_on_c, 0, 68, 49
1, 91040, Control_c, 0, 64, 51
1, 91055, Control_c, 0, 64, 49
1, 91070, Control_c, 0, 64, 48
1, 91084, Control_c, 0, 64, 47
1, 91099, Control_c, 0, 64, 45
1, 91118, Note_off_c, 0, 70, 41
1, 91122, Control_c, 0, 64, 44
1, 91136, Control_c, 0, 64, 43
1, 91138, Note_off_c, 0, 68, 62
1, 91161, Note_on_c, 0, 67, 48
1, 91166, Control_c, 0, 64, 43
1, 91196, Control_c, 0, 64, 42
1, 91210, Control_c, 0, 64, 42
1, 91225, Control_c, 0, 64, 41
1, 91240, Control_c, 0, 64, 41
1, 91248, Note_off_c, 0, 67, 57
1, 91255, Control_c, 0, 64, 40
1, 91269, Control_c, 0, 64, 40
1, 91275, Note_on_c, 0, 66, 50
1, 91284, Control_c, 0, 64, 39
1, 91358, Control_c, 0, 64, 39
1, 91368, Note_off_c, 0, 66, 63
1, 91388, Note_on_c, 0, 64, 51
1, 91388, Control_c, 0, 64, 38
1, 91403, Control_c, 0, 64, 38
1, 91491, Note_off_c, 0, 64, 61
1, 91513, Note_on_c, 0, 63, 51
1, 91521, Control_c, 0, 64, 37
1, 91641, Note_on_c, 0, 61, 47
1, 91694, Note_off_c, 0, 63, 33
1, 91727, Note_off_c, 0, 61, 60
1, 91754, Note_on_c, 0, 59, 48
1, 91865, Note_off_c, 0, 59, 58
1, 91881, Note_on_c, 0, 58, 51
1, 91929, Control_c, 0, 64, 37
1, 91997, Note_on_c, 0, 56, 51
1, 92018, Control_c, 0, 64, 36
1, 92066, Note_off_c, 0, 58, 46
1, 92082, Note_off_c, 0, 56, 60
1, 92106, Note_on_c, 0, 55, 50
1, 92181, Control_c, 0, 64, 37
1, 92199, Note_off_c, 0, 55, 59
1, 92210, Control_c, 0, 64, 37
1, 92225, Control_c, 0, 64, 38
1, 92225, Note_on_c, 0, 54, 48
1, 92240, Control_c, 0, 64, 39
1, 92255, Control_c, 0, 64, 40
1, 92270, Control_c, 0, 64, 42
1, 92284, Control_c, 0, 64, 43
1, 92299, Control_c, 0, 64, 44
1, 92320, Note_off_c, 0, 54, 62
1, 92371, Note_on_c, 0, 52, 16
1, 92403, Control_c, 0, 64, 44
1, 92432, Control_c, 0, 64, 45
1, 92446, Note_off_c, 0, 52, 53
1, 92447, Control_c, 0, 64, 46
1, 92455, Note_on_c, 0, 51, 53
1, 92476, Control_c, 0, 64, 46
1, 92491, Control_c, 0, 64, 47
1, 92589, Note_on_c, 0, 49, 55
1, 92596, Control_c, 0, 64, 47
1, 92649, Control_c, 0, 64, 47
1, 92667, Note_off_c, 0, 51, 38
1, 92686, Note_off_c, 0, 49, 60
1, 92702, Note_on_c, 0, 47, 52
1, 92737, Control_c, 0, 64, 46
1, 92767, Control_c, 0, 64, 45
1, 92821, Note_off_c, 0, 47, 56
1, 92825, Note_on_c, 0, 46, 52
1, 92826, Control_c, 0, 64, 45
1, 92841, Control_c, 0, 64, 44
1, 92870, Control_c, 0, 64, 44
1, 92900, Control_c, 0, 64, 43
1, 92945, Note_on_c, 0, 44, 52
1, 92959, Control_c, 0, 64, 43
1, 92988, Control_c, 0, 64, 42
1, 93006, Note_off_c, 0, 46, 47
1, 93037, Note_off_c, 0, 44, 58
1, 93058, Note_on_c, 0, 43, 59
1, 93063, Control_c, 0, 64, 42
1, 93078, Control_c, 0, 64, 41
1, 93167, Control_c, 0, 64, 41
1, 93181, Control_c, 0, 64, 40
1, 93187, Note_on_c, 0, 42, 53
1, 93211, Note_off_c, 0, 43, 46
1, 93270, Control_c, 0, 64, 39
1, 93304, Note_on_c, 0, 40, 48
1, 93348, Note_off_c, 0, 42, 32
1, 93367, Control_c, 0, 64, 39
1, 93427, Note_on_c, 0, 39, 44
1, 93427, Control_c, 0, 64, 38
1, 93428, Note_off_c, 0, 40, 52
1, 93442, Control_c, 0, 64, 38
1, 93552, Note_on_c, 0, 37, 51
1, 93620, Note_off_c, 0, 39, 28
1, 93688, Note_on_c, 0, 35, 53
1, 93701, Note_off_c, 0, 37, 48
1, 93823, Note_on_c, 0, 34, 58
1, 93859, Note_off_c, 0, 35, 54
1, 93958, Note_on_c, 0, 35, 67
1, 94005, Control_c, 0, 64, 38
1, 94049, Control_c, 0, 64, 39
1, 94071, Note_on_c, 0, 37, 72
1, 94094, Note_off_c, 0, 34, 36
1, 94130, Control_c, 0, 64, 39
1, 94142, Note_off_c, 0, 35, 59
1, 94145, Control_c, 0, 64, 40
1, 94160, Control_c, 0, 64, 40
1, 94202, Note_on_c, 0, 39, 78
1, 94214, Note_off_c, 0, 37, 62
1, 94250, Control_c, 0, 64, 41
1, 94294, Control_c, 0, 64, 41
1, 94315, Note_on_c, 0, 40, 67
1, 94324, Control_c, 0, 64, 42
1, 94339, Control_c, 0, 64, 42
1, 94348, Note_off_c, 0, 39, 54
1, 94429, Note_off_c, 0, 40, 60
1, 94458, Control_c, 0, 64, 42
1, 94459, Note_on_c, 0, 39, 61
1, 94473, Control_c, 0, 64, 41
1, 94547, Control_c, 0, 64, 41
1, 94595, Note_on_c, 0, 37, 52
1, 94686, Note_off_c, 0, 39, 27
1, 94711, Note_on_c, 0, 35, 53
1, 94724, Note_off_c, 0, 37, 49
1, 94753, Control_c, 0, 64, 40
1, 94798, Control_c, 0, 64, 40
1, 94813, Control_c, 0, 64, 39
1, 94855, Note_on_c, 0, 34, 54
1, 94860, Note_off_c, 0, 35, 57
1, 94924, Control_c, 0, 64, 39
1, 94993, Note_on_c, 0, 39, 46
1, 95008, Note_off_c, 0, 34, 53
1, 95044, Control_c, 0, 64, 38
1, 95088, Control_c, 0, 64, 38
1, 95127, Note_off_c, 0, 39, 55
1, 95130, Note_on_c, 0, 37, 53
1, 95191, Control_c, 0, 64, 37
1, 95221, Control_c, 0, 64, 37
1, 95242, Note_off_c, 0, 37, 59
1, 95251, Note_on_c, 0, 39, 56
1, 95266, Control_c, 0, 64, 36
1, 95281, Control_c, 0, 64, 34
1, 95296, Control_c, 0, 64, 24
1, 95310, Control_c, 0, 64, 0
1, 95340, Control_c, 0, 67, 119
1, 95355, Control_c, 0, 64, 34
1, 95355, Control_c, 0, 67, 89
1, 95370, Control_c, 0, 64, 67
1, 95370, Control_c, 0, 67, 32
1, 95379, Note_off_c, 0, 39, 58
1, 95380, Note_on_c, 0, 32, 83
1, 95380, Note_on_c, 0, 56, 93
1, 95384, Control_c, 0, 64, 94
1, 95384, Control_c, 0, 67, 0
1, 95399, Control_c, 0, 64, 127
1, 95445, Note_on_c, 0, 39, 70
1, 95451, Note_on_c, 0, 51, 65
1, 95476, Note_off_c, 0, 56, 54
1, 95487, Note_off_c, 0, 51, 61
1, 95500, Note_on_c, 0, 47, 73
1, 95515, Note_off_c, 0, 39, 60
1, 95530, Note_on_c, 0, 44, 61
1, 95544, Note_off_c, 0, 32, 57
1, 95573, Note_on_c, 0, 51, 63
1, 95573, Note_off_c, 0, 47, 63
1, 95585, Note_on_c, 0, 39, 66
1, 95590, Note_off_c, 0, 44, 58
1, 95629, Control_c, 0, 64, 117
1, 95636, Note_on_c, 0, 56, 71
1, 95636, Note_off_c, 0, 51, 62
1, 95643, Control_c, 0, 64, 96
1, 95652, Note_off_c, 0, 39, 59
1, 95657, Note_on_c, 0, 32, 73
1, 95658, Control_c, 0, 64, 82
1, 95671, Note_off_c, 0, 56, 65
1, 95673, Control_c, 0, 64, 71
1, 95688, Control_c, 0, 64, 60
1, 95702, Control_c, 0, 64, 48
1, 95706, Note_on_c, 0, 51, 65
1, 95717, Control_c, 0, 64, 43
1, 95725, Note_off_c, 0, 32, 59
1, 95731, Note_on_c, 0, 39, 68
1, 95747, Control_c, 0, 64, 42
1, 95762, Control_c, 0, 64, 39
1, 95770, Note_off_c, 0, 51, 60
1, 95773, Note_off_c, 0, 39, 62
1, 95775, Note_on_c, 0, 59, 79
1, 95778, Control_c, 0, 64, 30
1, 95793, Control_c, 0, 64, 21
1, 95801, Note_on_c, 0, 32, 63
1, 95807, Control_c, 0, 64, 13
1, 95815, Note_off_c, 0, 59, 58
1, 95822, Control_c, 0, 64, 0
1, 95829, Note_on_c, 0, 51, 62
1, 95853, Note_off_c, 0, 32, 58
1, 95862, Note_on_c, 0, 39, 63
1, 95901, Note_on_c, 0, 58, 72
1, 95904, Note_off_c, 0, 39, 63
1, 95904, Note_off_c, 0, 51, 62
1, 95922, Note_on_c, 0, 32, 63
1, 95952, Note_off_c, 0, 58, 61
1, 95962, Note_off_c, 0, 32, 62
1, 95969, Note_on_c, 0, 51, 57
1, 95975, Note_on_c, 0, 39, 64
1, 96017, Note_off_c, 0, 51, 57
1, 96017, Note_off_c, 0, 39, 62
1, 96037, Note_on_c, 0, 56, 78
1, 96041, Note_on_c, 0, 32, 64
1, 96067, Note_off_c, 0, 56, 62
1, 96077, Note_off_c, 0, 32, 63
1, 96088, Note_on_c, 0, 51, 71
1, 96092, Note_on_c, 0, 39, 64
1, 96130, Note_off_c, 0, 51, 63
1, 96147, Note_off_c, 0, 39, 59
1, 96147, Control_c, 0, 64, 60
1, 96153, Note_on_c, 0, 32, 74
1, 96158, Note_on_c, 0, 56, 81
1, 96162, Control_c, 0, 64, 74
1, 96177, Control_c, 0, 64, 99
1, 96192, Control_c, 0, 64, 127
1, 96212, Note_on_c, 0, 39, 74
1, 96229, Note_on_c, 0, 51, 74
1, 96253, Note_off_c, 0, 51, 67
1, 96253, Note_off_c, 0, 56, 58
1, 96268, Note_off_c, 0, 39, 59
1, 96279, Note_on_c, 0, 47, 77
1, 96284, Note_on_c, 0, 44, 74
1, 96322, Note_off_c, 0, 32, 30
1, 96333, Note_on_c, 0, 51, 62
1, 96334, Note_off_c, 0, 47, 63
1, 96349, Note_on_c, 0, 39, 64
1, 96353, Note_off_c, 0, 44, 60
1, 96388, Note_on_c, 0, 56, 74
1, 96399, Note_off_c, 0, 51, 63
1, 96402, Note_off_c, 0, 39, 59
1, 96406, Control_c, 0, 64, 101
1, 96407, Note_on_c, 0, 32, 76
1, 96421, Control_c, 0, 64, 88
1, 96434, Note_off_c, 0, 56, 60
1, 96436, Control_c, 0, 64, 76
1, 96451, Control_c, 0, 64, 67
1, 96453, Note_on_c, 0, 51, 59
1, 96465, Control_c, 0, 64, 60
1, 96472, Note_off_c, 0, 32, 60
1, 96473, Note_on_c, 0, 39, 73
1, 96480, Control_c, 0, 64, 53
1, 96495, Control_c, 0, 64, 48
1, 96510, Control_c, 0, 64, 44
1, 96512, Note_off_c, 0, 51, 62
1, 96520, Note_on_c, 0, 59, 91
1, 96524, Control_c, 0, 64, 40
1, 96530, Note_off_c, 0, 39, 59
1, 96539, Control_c, 0, 64, 36
1, 96542, Note_on_c, 0, 32, 71
1, 96554, Control_c, 0, 64, 31
1, 96569, Control_c, 0, 64, 29
1, 96585, Note_on_c, 0, 51, 70
1, 96585, Note_off_c, 0, 59, 60
1, 96593, Note_on_c, 0, 39, 69
1, 96602, Note_off_c, 0, 32, 59
1, 96615, Control_c, 0, 64, 26
1, 96629, Control_c, 0, 64, 10
1, 96644, Control_c, 0, 64, 0
1, 96653, Note_off_c, 0, 39, 62
1, 96660, Note_on_c, 0, 32, 69
1, 96663, Note_on_c, 0, 58, 78
1, 96664, Note_off_c, 0, 51, 61
1, 96718, Note_on_c, 0, 39, 73
1, 96718, Note_off_c, 0, 58, 64
1, 96725, Note_off_c, 0, 32, 61
1, 96764, Note_on_c, 0, 56, 79
1, 96768, Note_off_c, 0, 39, 59
1, 96785, Note_on_c, 0, 32, 70
1, 96803, Note_off_c, 0, 56, 63
1, 96819, Note_on_c, 0, 51, 68
1, 96831, Note_off_c, 0, 32, 59
1, 96832, Note_on_c, 0, 39, 77
1, 96855, Note_off_c, 0, 51, 64
1, 96881, Control_c, 0, 64, 43
1, 96885, Note_off_c, 0, 39, 59
1, 96893, Note_on_c, 0, 32, 84
1, 96896, Control_c, 0, 64, 69
1, 96899, Note_on_c, 0, 64, 104
1, 96911, Control_c, 0, 64, 102
1, 96926, Control_c, 0, 64, 127
1, 96946, Note_on_c, 0, 40, 81
1, 96967, Note_off_c, 0, 64, 63
1, 96979, Poly_aftertouch_c, 0, 36, 127
1, 97004, Note_on_c, 0, 59, 27
1, 97017, Note_off_c, 0, 32, 49
1, 97018, Note_on_c, 0, 56, 83
1, 97022, Note_on_c, 0, 44, 79
1, 97026, Note_off_c, 0, 40, 60
1, 97047, Note_off_c, 0, 59, 42
1, 97073, Note_off_c, 0, 56, 59
1, 97075, Note_on_c, 0, 40, 59
1, 97081, Note_off_c, 0, 44, 61
1, 97084, Note_on_c, 0, 59, 80
1, 97100, Poly_aftertouch_c, 0, 36, 0
1, 97125, Note_on_c, 0, 36, 15
1, 97132, Note_off_c, 0, 40, 61
1, 97139, Note_on_c, 0, 32, 79
1, 97153, Note_off_c, 0, 59, 64
1, 97155, Note_on_c, 0, 64, 79
1, 97181, Note_off_c, 0, 64, 67
1, 97201, Note_on_c, 0, 40, 76
1, 97201, Note_off_c, 0, 32, 60
1, 97204, Note_on_c, 0, 59, 72
1, 97254, Note_off_c, 0, 40, 60
1, 97264, Note_on_c, 0, 32, 79
1, 97267, Note_off_c, 0, 59, 62
1, 97274, Note_on_c, 0, 68, 92
1, 97303, Control_c, 0, 64, 97
1, 97318, Control_c, 0, 64, 80
1, 97319, Note_off_c, 0, 32, 59
1, 97323, Note_off_c, 0, 68, 64
1, 97326, Note_off_c, 0, 36, 39
1, 97332, Note_on_c, 0, 59, 77
1, 97333, Control_c, 0, 64, 66
1, 97335, Note_on_c, 0, 40, 75
1, 97348, Control_c, 0, 64, 48
1, 97362, Control_c, 0, 64, 0
1, 97370, Note_off_c, 0, 40, 63
1, 97398, Note_on_c, 0, 32, 75
1, 97403, Note_on_c, 0, 66, 86
1, 97411, Note_off_c, 0, 59, 62
1, 97434, Note_off_c, 0, 32, 57
1, 97454, Note_on_c, 0, 40, 74
1, 97454, Note_off_c, 0, 66, 63
1, 97465, Note_on_c, 0, 59, 65
1, 97492, Note_off_c, 0, 40, 63
1, 97516, Note_on_c, 0, 32, 79
1, 97522, Note_on_c, 0, 64, 87
1, 97531, Note_off_c, 0, 59, 63
1, 97559, Note_off_c, 0, 64, 65
1, 97565, Note_off_c, 0, 32, 58
1, 97567, Note_on_c, 0, 40, 75
1, 97580, Note_on_c, 0, 59, 60
1, 97609, Note_off_c, 0, 59, 65
1, 97612, Note_off_c, 0, 40, 57
1, 97621, Note_on_c, 0, 32, 75
1, 97644, Note_on_c, 0, 64, 99
1, 97645, Control_c, 0, 64, 55
1, 97660, Control_c, 0, 64, 75
1, 97674, Control_c, 0, 64, 104
1, 97680, Note_on_c, 0, 40, 83
1, 97689, Control_c, 0, 64, 127
1, 97713, Note_on_c, 0, 59, 63
1, 97735, Note_on_c, 0, 58, 30
1, 97742, Note_off_c, 0, 32, 57
1, 97746, Note_off_c, 0, 59, 65
1, 97759, Note_on_c, 0, 44, 82
1, 97760, Note_off_c, 0, 40, 57
1, 97761, Note_on_c, 0, 56, 84
1, 97761, Poly_aftertouch_c, 0, 36, 127
1, 97770, Note_off_c, 0, 58, 53
1, 97773, Note_off_c, 0, 64, 36
1, 97803, Note_off_c, 0, 56, 64
1, 97814, Poly_aftertouch_c, 0, 36, 0
1, 97819, Note_on_c, 0, 59, 84
1, 97823, Note_on_c, 0, 40, 61
1, 97830, Note_off_c, 0, 44, 60
1, 97882, Note_off_c, 0, 40, 58
1, 97887, Note_on_c, 0, 32, 78
1, 97895, Note_off_c, 0, 59, 64
1, 97901, Note_on_c, 0, 64, 79
1, 97907, Note_on_c, 0, 36, 40
1, 97929, Note_off_c, 0, 64, 66
1, 97935, Poly_aftertouch_c, 0, 37, 127
1, 97955, Note_on_c, 0, 59, 78
1, 97958, Note_off_c, 0, 36, 43
1, 97961, Note_on_c, 0, 40, 85
1, 97964, Note_off_c, 0, 32, 60
1, 97993, Control_c, 0, 64, 100
1, 98008, Control_c, 0, 64, 79
1, 98016, Note_off_c, 0, 59, 62
1, 98020, Note_on_c, 0, 68, 97
1, 98022, Control_c, 0, 64, 58
1, 98023, Note_off_c, 0, 40, 58
1, 98032, Note_on_c, 0, 32, 81
1, 98037, Control_c, 0, 64, 0
1, 98056, Poly_aftertouch_c, 0, 37, 0
1, 98075, Note_off_c, 0, 68, 64
1, 98084, Note_off_c, 0, 32, 54
1, 98085, Note_on_c, 0, 40, 77
1, 98086, Note_on_c, 0, 59, 83
1, 98126, Control_c, 0, 64, 48
1, 98141, Control_c, 0, 64, 67
1, 98147, Note_off_c, 0, 40, 59
1, 98151, Note_on_c, 0, 66, 88
1, 98156, Control_c, 0, 64, 81
1, 98158, Note_on_c, 0, 32, 77
1, 98166, Note_off_c, 0, 59, 62
1, 98170, Control_c, 0, 64, 105
1, 98186, Control_c, 0, 64, 127
1, 98217, Note_off_c, 0, 66, 65
1, 98232, Note_on_c, 0, 40, 74
1, 98232, Note_off_c, 0, 32, 59
1, 98250, Note_on_c, 0, 59, 74
1, 98270, Note_on_c, 0, 64, 93
1, 98273, Note_off_c, 0, 59, 69
1, 98274, Note_on_c, 0, 32, 46
1, 98300, Note_off_c, 0, 40, 57
1, 98303, Note_on_c, 0, 36, 50
1, 98321, Note_on_c, 0, 37, 6
1, 98324, Note_off_c, 0, 64, 56
1, 98342, Note_off_c, 0, 32, 60
1, 98344, Note_on_c, 0, 59, 69
1, 98366, Note_off_c, 0, 59, 62
1, 98378, Note_off_c, 0, 36, 58
1, 98384, Note_off_c, 0, 37, 46
1, 98408, Control_c, 0, 64, 97
1, 98411, Note_on_c, 0, 33, 95
1, 98412, Note_on_c, 0, 45, 111
1, 98423, Control_c, 0, 64, 42
1, 98429, Note_on_c, 0, 73, 93
1, 98438, Control_c, 0, 64, 0
1, 98488, Note_off_c, 0, 73, 62
1, 98496, Note_on_c, 0, 76, 77
1, 98546, Note_off_c, 0, 76, 64
1, 98559, Note_on_c, 0, 73, 80
1, 98610, Note_off_c, 0, 73, 60
1, 98618, Note_on_c, 0, 76, 81
1, 98652, Control_c, 0, 64, 35
1, 98667, Control_c, 0, 64, 46
1, 98673, Note_off_c, 0, 76, 60
1, 98682, Control_c, 0, 64, 49
1, 98685, Note_on_c, 0, 73, 87
1, 98697, Control_c, 0, 64, 50
1, 98712, Control_c, 0, 64, 53
1, 98726, Control_c, 0, 64, 60
1, 98730, Note_off_c, 0, 73, 60
1, 98737, Note_on_c, 0, 76, 81
1, 98741, Control_c, 0, 64, 65
1, 98756, Control_c, 0, 64, 70
1, 98771, Control_c, 0, 64, 75
1, 98786, Control_c, 0, 64, 84
1, 98798, Note_off_c, 0, 76, 60
1, 98800, Note_on_c, 0, 73, 92
1, 98800, Control_c, 0, 64, 102
1, 98815, Control_c, 0, 64, 127
1, 98847, Note_on_c, 0, 76, 82
1, 98856, Note_off_c, 0, 73, 63
1, 98912, Note_off_c, 0, 76, 60
1, 98916, Note_on_c, 0, 73, 81
1, 98964, Note_on_c, 0, 76, 84
1, 98965, Note_off_c, 0, 73, 63
1, 99015, Note_off_c, 0, 76, 62
1, 99037, Note_on_c, 0, 73, 80
1, 99082, Note_off_c, 0, 73, 59
1, 99083, Note_on_c, 0, 76, 82
1, 99138, Note_off_c, 0, 76, 61
1, 99145, Note_on_c, 0, 73, 85
1, 99196, Note_on_c, 0, 76, 81
1, 99198, Note_off_c, 0, 73, 63
1, 99248, Note_off_c, 0, 76, 62
1, 99259, Note_on_c, 0, 73, 77
1, 99305, Note_on_c, 0, 76, 80
1, 99307, Note_off_c, 0, 73, 57
1, 99353, Note_off_c, 0, 33, 56
1, 99374, Note_off_c, 0, 76, 61
1, 99376, Note_off_c, 0, 45, 61
1, 99387, Note_on_c, 0, 73, 81
1, 99437, Note_off_c, 0, 73, 63
1, 99438, Note_on_c, 0, 76, 78
1, 99491, Note_off_c, 0, 76, 63
1, 99520, Control_c, 0, 67, 8
1, 99535, Note_on_c, 0, 73, 75
1, 99535, Control_c, 0, 64, 107
1, 99537, Note_on_c, 0, 34, 82
1, 99538, Note_on_c, 0, 46, 78
1, 99549, Control_c, 0, 64, 89
1, 99564, Control_c, 0, 64, 76
1, 99565, Note_off_c, 0, 46, 68
1, 99570, Note_on_c, 0, 76, 82
1, 99572, Note_off_c, 0, 73, 63
1, 99579, Control_c, 0, 64, 64
1, 99588, Note_off_c, 0, 34, 51
1, 99593, Control_c, 0, 64, 53
1, 99608, Control_c, 0, 64, 47
1, 99623, Control_c, 0, 64, 48
1, 99638, Control_c, 0, 64, 51
1, 99642, Note_off_c, 0, 76, 62
1, 99645, Note_on_c, 0, 70, 76
1, 99653, Control_c, 0, 64, 52
1, 99656, Note_on_c, 0, 37, 66
1, 99667, Control_c, 0, 64, 53
1, 99682, Control_c, 0, 64, 52
1, 99690, Note_off_c, 0, 70, 63
1, 99690, Note_on_c, 0, 73, 79
1, 99697, Control_c, 0, 64, 52
1, 99712, Control_c, 0, 64, 51
1, 99724, Note_off_c, 0, 37, 63
1, 99727, Control_c, 0, 64, 51
1, 99743, Note_off_c, 0, 73, 62
1, 99756, Control_c, 0, 67, 9
1, 99758, Note_on_c, 0, 67, 83
1, 99765, Note_on_c, 0, 40, 83
1, 99772, Control_c, 0, 64, 50
1, 99787, Control_c, 0, 64, 49
1, 99802, Control_c, 0, 64, 49
1, 99802, Control_c, 0, 67, 8
1, 99809, Note_off_c, 0, 67, 59
1, 99817, Control_c, 0, 64, 48
1, 99818, Note_off_c, 0, 40, 56
1, 99818, Note_on_c, 0, 70, 73
1, 99832, Control_c, 0, 64, 47
1, 99832, Control_c, 0, 67, 9
1, 99835, Note_on_c, 0, 72, 40
1, 99849, Note_off_c, 0, 70, 62
1, 99855, Note_on_c, 0, 74, 20
1, 99861, Note_off_c, 0, 72, 54
1, 99861, Control_c, 0, 64, 53
1, 99876, Control_c, 0, 64, 62
1, 99879, Note_on_c, 0, 43, 90
1, 99880, Note_on_c, 0, 64, 84
1, 99890, Control_c, 0, 64, 70
1, 99895, Note_off_c, 0, 74, 30
1, 99905, Control_c, 0, 64, 85
1, 99907, Note_on_c, 0, 65, 28
1, 99907, Note_off_c, 0, 43, 67
1, 99920, Control_c, 0, 64, 127
1, 99932, Note_off_c, 0, 64, 62
1, 99934, Note_on_c, 0, 67, 67
1, 99940, Note_off_c, 0, 65, 0
1, 99940, Note_on_c, 0, 65, 38
1, 99953, Note_off_c, 0, 67, 65
1, 99964, Control_c, 0, 64, 108
1, 99979, Control_c, 0, 64, 89
1, 99994, Control_c, 0, 64, 74
1, 100004, Note_on_c, 0, 47, 70
1, 100009, Control_c, 0, 64, 64
1, 100009, Control_c, 0, 67, 9
1, 100019, Note_off_c, 0, 65, 60
1, 100020, Note_on_c, 0, 61, 63
1, 100023, Control_c, 0, 64, 58
1, 100023, Control_c, 0, 67, 10
1, 100034, Note_off_c, 0, 47, 66
1, 100038, Control_c, 0, 64, 63
1, 100041, Note_off_c, 0, 61, 61
1, 100053, Control_c, 0, 64, 75
1, 100053, Control_c, 0, 67, 9
1, 100068, Control_c, 0, 64, 102
1, 100068, Control_c, 0, 67, 9
1, 100072, Note_on_c, 0, 58, 71
1, 100083, Control_c, 0, 64, 127
1, 100083, Control_c, 0, 67, 8
1, 100101, Note_on_c, 0, 49, 94
1, 100105, Control_c, 0, 67, 0
1, 100122, Note_off_c, 0, 49, 71
1, 100132, Note_on_c, 0, 61, 68
1, 100140, Note_off_c, 0, 58, 62
1, 100217, Note_on_c, 0, 56, 83
1, 100217, Note_on_c, 0, 52, 107
1, 100234, Note_off_c, 0, 61, 38
1, 100244, Note_off_c, 0, 52, 67
1, 100268, Note_on_c, 0, 58, 80
1, 100280, Note_off_c, 0, 56, 61
1, 100298, Control_c, 0, 64, 114
1, 100313, Control_c, 0, 64, 90
1, 100318, Note_off_c, 0, 58, 64
1, 100327, Note_on_c, 0, 61, 79
1, 100327, Control_c, 0, 64, 83
1, 100340, Note_on_c, 0, 52, 96
1, 100342, Control_c, 0, 64, 92
1, 100357, Control_c, 0, 64, 127
1, 100360, Note_off_c, 0, 52, 70
1, 100378, Note_on_c, 0, 58, 86
1, 100393, Note_off_c, 0, 61, 62
1, 100418, Note_on_c, 0, 53, 3
1, 100437, Note_off_c, 0, 58, 65
1, 100453, Note_on_c, 0, 56, 92
1, 100457, Note_off_c, 0, 53, 40
1, 100459, Note_on_c, 0, 52, 104
1, 100485, Note_off_c, 0, 52, 71
1, 100494, Note_on_c, 0, 58, 80
1, 100511, Note_off_c, 0, 56, 63
1, 100561, Note_off_c, 0, 58, 63
1, 100566, Control_c, 0, 64, 93
1, 100581, Control_c, 0, 64, 40
1, 100596, Control_c, 0, 64, 0
1, 100598, Note_on_c, 0, 52, 114
1, 100663, Note_on_c, 0, 56, 77
1, 100685, Control_c, 0, 64, 65
1, 100700, Control_c, 0, 64, 77
1, 100714, Control_c, 0, 64, 127
1, 100716, Note_on_c, 0, 61, 73
1, 100718, Note_off_c, 0, 56, 62
1, 100772, Note_on_c, 0, 58, 67
1, 100781, Note_off_c, 0, 61, 60
1, 100820, Note_off_c, 0, 58, 57
1, 100822, Note_on_c, 0, 56, 78
1, 100877, Note_off_c, 0, 56, 61
1, 100892, Note_on_c, 0, 61, 79
1, 100954, Note_off_c, 0, 61, 60
1, 100987, Note_off_c, 0, 52, 0
1, 101001, Note_on_c, 0, 51, 100
1, 101022, Poly_aftertouch_c, 0, 52, 0
1, 101033, Control_c, 0, 64, 92
1, 101047, Control_c, 0, 64, 66
1, 101055, Note_on_c, 0, 55, 75
1, 101062, Control_c, 0, 64, 0
1, 101107, Control_c, 0, 64, 50
1, 101120, Note_off_c, 0, 55, 60
1, 101121, Control_c, 0, 64, 70
1, 101131, Note_on_c, 0, 61, 77
1, 101136, Control_c, 0, 64, 88
1, 101151, Control_c, 0, 64, 127
1, 101190, Note_off_c, 0, 61, 63
1, 101201, Note_on_c, 0, 58, 65
1, 101243, Note_on_c, 0, 55, 70
1, 101273, Note_off_c, 0, 58, 58
1, 101284, Note_on_c, 0, 61, 67
1, 101291, Note_off_c, 0, 55, 60
1, 101306, Note_off_c, 0, 61, 65
1, 101374, Control_c, 0, 64, 90
1, 101379, Note_off_c, 0, 51, 59
1, 101383, Note_on_c, 0, 44, 84
1, 101385, Note_on_c, 0, 68, 96
1, 101389, Control_c, 0, 64, 54
1, 101404, Control_c, 0, 64, 0
1, 101433, Control_c, 0, 64, 54
1, 101443, Note_on_c, 0, 63, 80
1, 101448, Control_c, 0, 64, 78
1, 101457, Note_on_c, 0, 51, 83
1, 101463, Control_c, 0, 64, 127
1, 101469, Note_off_c, 0, 63, 65
1, 101490, Note_off_c, 0, 68, 62
1, 101496, Note_on_c, 0, 59, 76
1, 101517, Note_off_c, 0, 51, 60
1, 101527, Note_on_c, 0, 56, 75
1, 101551, Note_off_c, 0, 59, 61
1, 101553, Note_off_c, 0, 44, 56
1, 101557, Note_on_c, 0, 63, 71
1, 101576, Note_on_c, 0, 51, 67
1, 101585, Note_off_c, 0, 56, 61
1, 101616, Note_on_c, 0, 68, 72
1, 101619, Note_off_c, 0, 63, 63
1, 101637, Note_off_c, 0, 68, 68
1, 101643, Note_off_c, 0, 51, 62
1, 101652, Note_on_c, 0, 44, 79
1, 101675, Note_on_c, 0, 63, 64
1, 101708, Note_off_c, 0, 44, 59
1, 101713, Note_on_c, 0, 51, 70
1, 101741, Note_on_c, 0, 71, 87
1, 101741, Note_off_c, 0, 63, 59
1, 101750, Note_off_c, 0, 51, 60
1, 101779, Note_on_c, 0, 44, 68
1, 101782, Control_c, 0, 64, 89
1, 101792, Note_off_c, 0, 71, 62
1, 101797, Control_c, 0, 64, 65
1, 101802, Note_on_c, 0, 63, 63
1, 101812, Control_c, 0, 64, 0
1, 101818, Note_off_c, 0, 44, 60
1, 101840, Note_on_c, 0, 51, 68
1, 101874, Note_on_c, 0, 70, 78
1, 101875, Note_off_c, 0, 63, 61
1, 101877, Note_off_c, 0, 51, 60
1, 101900, Note_on_c, 0, 44, 74
1, 101930, Note_off_c, 0, 70, 62
1, 101936, Note_off_c, 0, 44, 61
1, 101949, Note_on_c, 0, 51, 66
1, 101949, Note_on_c, 0, 63, 52
1, 101980, Note_off_c, 0, 51, 65
1, 101994, Note_off_c, 0, 63, 64
1, 102004, Note_on_c, 0, 68, 73
1, 102008, Note_on_c, 0, 44, 73
1, 102031, Note_off_c, 0, 68, 66
1, 102040, Note_off_c, 0, 44, 64
1, 102041, Note_on_c, 0, 51, 75
1, 102059, Note_on_c, 0, 63, 68
1, 102087, Note_off_c, 0, 63, 69
1, 102092, Control_c, 0, 64, 44
1, 102107, Control_c, 0, 64, 90
1, 102110, Note_on_c, 0, 44, 82
1, 102113, Note_on_c, 0, 68, 85
1, 102113, Note_off_c, 0, 51, 58
1, 102122, Control_c, 0, 64, 127
1, 102166, Note_on_c, 0, 51, 66
1, 102173, Note_on_c, 0, 63, 76
1, 102196, Note_off_c, 0, 63, 70
1, 102215, Note_off_c, 0, 68, 64
1, 102229, Note_off_c, 0, 51, 61
1, 102232, Note_on_c, 0, 59, 77
1, 102238, Note_on_c, 0, 56, 78
1, 102254, Note_off_c, 0, 44, 58
1, 102277, Note_off_c, 0, 59, 57
1, 102281, Note_on_c, 0, 51, 61
1, 102284, Note_on_c, 0, 63, 76
1, 102290, Note_off_c, 0, 56, 61
1, 102331, Note_on_c, 0, 68, 74
1, 102343, Note_off_c, 0, 63, 62
1, 102352, Note_off_c, 0, 51, 62
1, 102353, Note_on_c, 0, 44, 81
1, 102363, Note_off_c, 0, 68, 64
1, 102398, Note_on_c, 0, 63, 65
1, 102406, Poly_aftertouch_c, 0, 66, 127
1, 102412, Note_off_c, 0, 44, 58
1, 102413, Note_on_c, 0, 51, 73
1, 102437, Poly_aftertouch_c, 0, 66, 0
1, 102459, Note_off_c, 0, 51, 62
1, 102461, Note_on_c, 0, 71, 90
1, 102462, Note_off_c, 0, 63, 58
1, 102477, Note_on_c, 0, 44, 78
1, 102486, Control_c, 0, 64, 99
1, 102500, Control_c, 0, 64, 73
1, 102506, Note_on_c, 0, 63, 61
1, 102514, Note_off_c, 0, 71, 63
1, 102515, Control_c, 0, 64, 0
1, 102532, Note_off_c, 0, 44, 57
1, 102533, Note_on_c, 0, 51, 77
1, 102574, Control_c, 0, 64, 56
1, 102576, Note_off_c, 0, 51, 61
1, 102581, Note_on_c, 0, 70, 82
1, 102589, Control_c, 0, 64, 68
1, 102591, Note_off_c, 0, 63, 60
1, 102595, Note_on_c, 0, 44, 76
1, 102604, Control_c, 0, 64, 78
1, 102618, Control_c, 0, 64, 95
1, 102632, Note_off_c, 0, 70, 64
1, 102633, Control_c, 0, 64, 127
1, 102647, Note_on_c, 0, 63, 70
1, 102650, Note_on_c, 0, 51, 79
1, 102655, Note_off_c, 0, 44, 59
1, 102691, Note_off_c, 0, 51, 61
1, 102694, Note_on_c, 0, 68, 86
1, 102700, Note_on_c, 0, 48, 46
1, 102706, Note_off_c, 0, 63, 63
1, 102718, Note_on_c, 0, 44, 64
1, 102721, Note_off_c, 0, 68, 66
1, 102748, Note_off_c, 0, 44, 64
1, 102751, Note_on_c, 0, 51, 76
1, 102761, Note_off_c, 0, 48, 53
1, 102766, Control_c, 0, 64, 84
1, 102781, Control_c, 0, 64, 41
1, 102785, Note_off_c, 0, 51, 64
1, 102787, Note_on_c, 0, 63, 2
1, 102796, Control_c, 0, 64, 0
1, 102803, Note_off_c, 0, 63, 42
1, 102804, Note_on_c, 0, 44, 89
1, 102808, Note_on_c, 0, 76, 104
1, 102825, Control_c, 0, 64, 39
1, 102840, Control_c, 0, 64, 78
1, 102855, Control_c, 0, 64, 127
1, 102862, Note_on_c, 0, 52, 85
1, 102880, Note_on_c, 0, 71, 68
1, 102885, Note_on_c, 0, 72, 42
1, 102891, Note_on_c, 0, 48, 5
1, 102894, Note_off_c, 0, 76, 47
1, 102905, Note_off_c, 0, 71, 63
1, 102912, Note_off_c, 0, 72, 54
1, 102921, Note_on_c, 0, 68, 85
1, 102934, Note_on_c, 0, 56, 87
1, 102956, Note_off_c, 0, 44, 39
1, 102964, Note_off_c, 0, 52, 0
1, 102971, Note_off_c, 0, 68, 63
1, 102985, Note_off_c, 0, 56, 62
1, 102991, Note_on_c, 0, 71, 75
1, 102992, Note_on_c, 0, 70, 53
1, 103001, Poly_aftertouch_c, 0, 52, 127
1, 103014, Note_off_c, 0, 70, 60
1, 103037, Note_on_c, 0, 76, 83
1, 103038, Note_off_c, 0, 71, 67
1, 103040, Note_on_c, 0, 44, 81
1, 103043, Poly_aftertouch_c, 0, 52, 0
1, 103064, Note_off_c, 0, 76, 63
1, 103067, Note_off_c, 0, 48, 0
1, 103100, Note_on_c, 0, 71, 79
1, 103106, Note_on_c, 0, 52, 73
1, 103112, Poly_aftertouch_c, 0, 48, 127
1, 103117, Note_off_c, 0, 44, 59
1, 103157, Note_off_c, 0, 52, 63
1, 103161, Note_off_c, 0, 71, 64
1, 103162, Note_on_c, 0, 44, 74
1, 103163, Note_on_c, 0, 80, 97
1, 103206, Note_off_c, 0, 80, 63
1, 103219, Note_on_c, 0, 71, 79
1, 103219, Control_c, 0, 64, 99
1, 103225, Note_on_c, 0, 52, 81
1, 103227, Note_off_c, 0, 44, 60
1, 103227, Poly_aftertouch_c, 0, 48, 0
1, 103234, Control_c, 0, 64, 76
1, 103249, Control_c, 0, 64, 49
1, 103264, Control_c, 0, 64, 0
1, 103285, Note_on_c, 0, 78, 89
1, 103285, Note_off_c, 0, 52, 59
1, 103289, Note_on_c, 0, 44, 76
1, 103295, Note_off_c, 0, 71, 64
1, 103334, Note_off_c, 0, 78, 65
1, 103335, Note_off_c, 0, 44, 59
1, 103341, Note_on_c, 0, 52, 76
1, 103343, Note_on_c, 0, 71, 75
1, 103389, Note_off_c, 0, 52, 60
1, 103407, Note_on_c, 0, 76, 90
1, 103408, Note_on_c, 0, 44, 83
1, 103419, Note_off_c, 0, 71, 66
1, 103445, Note_off_c, 0, 76, 67
1, 103459, Note_on_c, 0, 52, 79
1, 103469, Note_off_c, 0, 44, 57
1, 103470, Note_on_c, 0, 71, 76
1, 103508, Note_on_c, 0, 44, 75
1, 103516, Control_c, 0, 64, 70
1, 103519, Note_off_c, 0, 52, 62
1, 103525, Note_on_c, 0, 76, 102
1, 103531, Control_c, 0, 64, 127
1, 103546, Note_off_c, 0, 71, 67
1, 103550, Note_on_c, 0, 48, 43
1, 103557, Poly_aftertouch_c, 0, 52, 0
1, 103563, Note_on_c, 0, 52, 72
1, 103584, Note_on_c, 0, 71, 56
1, 103613, Note_off_c, 0, 71, 59
1, 103618, Note_off_c, 0, 76, 52
1, 103636, Note_off_c, 0, 44, 55
1, 103638, Note_off_c, 0, 52, 58
1, 103642, Note_on_c, 0, 56, 91
1, 103642, Note_on_c, 0, 68, 88
1, 103696, Note_off_c, 0, 56, 63
1, 103699, Note_on_c, 0, 52, 59
1, 103708, Note_on_c, 0, 71, 73
1, 103709, Note_off_c, 0, 68, 63
1, 103732, Note_off_c, 0, 52, 62
1, 103745, Note_on_c, 0, 44, 80
1, 103761, Note_on_c, 0, 76, 84
1, 103768, Note_off_c, 0, 71, 65
1, 103772, Poly_aftertouch_c, 0, 49, 127
1, 103800, Note_off_c, 0, 76, 60
1, 103809, Note_on_c, 0, 71, 73
1, 103812, Note_on_c, 0, 52, 85
1, 103821, Note_off_c, 0, 44, 61
1, 103869, Note_off_c, 0, 52, 63
1, 103875, Note_on_c, 0, 80, 102
1, 103882, Note_on_c, 0, 44, 80
1, 103884, Note_off_c, 0, 71, 59
1, 103895, Control_c, 0, 64, 100
1, 103910, Control_c, 0, 64, 72
1, 103925, Control_c, 0, 64, 0
1, 103933, Note_off_c, 0, 80, 62
1, 103934, Note_on_c, 0, 71, 76
1, 103942, Note_off_c, 0, 48, 46
1, 103943, Note_on_c, 0, 52, 80
1, 103943, Note_off_c, 0, 44, 61
1, 103969, Control_c, 0, 64, 62
1, 103984, Control_c, 0, 64, 80
1, 103999, Control_c, 0, 64, 127
1, 104001, Note_on_c, 0, 78, 95
1, 104006, Note_off_c, 0, 52, 62
1, 104012, Note_on_c, 0, 44, 80
1, 104014, Note_off_c, 0, 71, 67
1, 104036, Note_on_c, 0, 48, 29
1, 104062, Note_off_c, 0, 78, 67
1, 104086, Note_off_c, 0, 44, 57
1, 104086, Note_on_c, 0, 52, 51
1, 104088, Note_on_c, 0, 71, 70
1, 104110, Note_on_c, 0, 44, 60
1, 104111, Note_off_c, 0, 48, 0
1, 104125, Note_off_c, 0, 52, 0
1, 104126, Note_on_c, 0, 76, 96
1, 104130, Note_on_c, 0, 48, 16
1, 104133, Poly_aftertouch_c, 0, 49, 0
1, 104140, Note_off_c, 0, 71, 65
1, 104152, Note_on_c, 0, 52, 14
1, 104164, Note_off_c, 0, 76, 67
1, 104170, Poly_aftertouch_c, 0, 49, 127
1, 104193, Note_off_c, 0, 52, 54
1, 104195, Note_off_c, 0, 44, 60
1, 104227, Note_off_c, 0, 48, 55
1, 104251, Poly_aftertouch_c, 0, 49, 0
1, 104256, Note_on_c, 0, 57, 114
1, 104259, Note_on_c, 0, 45, 106
1, 104265, Control_c, 0, 64, 91
1, 104268, Note_on_c, 0, 85, 98
1, 104280, Control_c, 0, 64, 0
1, 104323, Note_off_c, 0, 85, 58
1, 104329, Note_on_c, 0, 88, 87
1, 104390, Note_on_c, 0, 85, 86
1, 104393, Note_off_c, 0, 88, 66
1, 104444, Note_on_c, 0, 88, 85
1, 104444, Note_off_c, 0, 85, 64
1, 104504, Note_off_c, 0, 88, 66
1, 104510, Note_on_c, 0, 85, 84
1, 104517, Control_c, 0, 64, 20
1, 104531, Control_c, 0, 64, 50
1, 104546, Control_c, 0, 64, 61
1, 104557, Note_on_c, 0, 88, 80
1, 104562, Control_c, 0, 64, 66
1, 104563, Note_off_c, 0, 85, 63
1, 104577, Control_c, 0, 64, 74
1, 104599, Control_c, 0, 64, 87
1, 104614, Control_c, 0, 64, 125
1, 104627, Note_off_c, 0, 88, 66
1, 104629, Control_c, 0, 64, 127
1, 104633, Note_on_c, 0, 85, 90
1, 104683, Note_on_c, 0, 88, 81
1, 104688, Note_off_c, 0, 85, 64
1, 104748, Note_off_c, 0, 88, 65
1, 104751, Note_on_c, 0, 85, 90
1, 104802, Note_on_c, 0, 88, 80
1, 104802, Note_off_c, 0, 85, 63
1, 104864, Note_off_c, 0, 88, 65
1, 104870, Note_on_c, 0, 85, 88
1, 104917, Note_on_c, 0, 88, 81
1, 104918, Note_off_c, 0, 85, 63
1, 104978, Note_off_c, 0, 88, 64
1, 104984, Note_on_c, 0, 85, 92
1, 105035, Note_on_c, 0, 88, 82
1, 105038, Note_off_c, 0, 85, 63
1, 105098, Note_off_c, 0, 88, 65
1, 105106, Note_on_c, 0, 85, 87
1, 105148, Note_on_c, 0, 88, 79
1, 105154, Note_off_c, 0, 85, 63
1, 105198, Note_off_c, 0, 45, 59
1, 105217, Note_off_c, 0, 88, 66
1, 105226, Note_on_c, 0, 85, 82
1, 105237, Note_off_c, 0, 57, 56
1, 105273, Note_off_c, 0, 85, 65
1, 105285, Note_on_c, 0, 88, 75
1, 105347, Control_c, 0, 64, 109
1, 105363, Control_c, 0, 64, 90
1, 105365, Note_off_c, 0, 88, 65
1, 105374, Note_on_c, 0, 85, 84
1, 105378, Control_c, 0, 64, 76
1, 105387, Note_on_c, 0, 46, 77
1, 105387, Note_on_c, 0, 58, 76
1, 105392, Control_c, 0, 64, 66
1, 105405, Note_off_c, 0, 58, 68
1, 105407, Control_c, 0, 64, 59
1, 105414, Note_off_c, 0, 46, 68
1, 105422, Control_c, 0, 64, 54
1, 105432, Note_on_c, 0, 88, 74
1, 105432, Note_off_c, 0, 85, 64
1, 105467, Control_c, 0, 64, 54
1, 105481, Control_c, 0, 64, 55
1, 105496, Control_c, 0, 64, 57
1, 105501, Note_on_c, 0, 85, 79
1, 105502, Note_off_c, 0, 88, 67
1, 105505, Note_on_c, 0, 49, 80
1, 105506, Note_on_c, 0, 61, 80
1, 105511, Control_c, 0, 64, 59
1, 105526, Control_c, 0, 64, 59
1, 105529, Note_off_c, 0, 61, 68
1, 105530, Note_off_c, 0, 49, 67
1, 105541, Control_c, 0, 64, 58
1, 105544, Note_on_c, 0, 88, 71
1, 105552, Note_off_c, 0, 85, 63
1, 105556, Control_c, 0, 64, 58
1, 105611, Note_on_c, 0, 85, 83
1, 105615, Note_off_c, 0, 88, 67
1, 105625, Note_on_c, 0, 64, 79
1, 105631, Note_on_c, 0, 52, 67
1, 105644, Control_c, 0, 64, 58
1, 105648, Note_off_c, 0, 64, 70
1, 105652, Note_off_c, 0, 52, 39
1, 105659, Control_c, 0, 64, 59
1, 105669, Note_off_c, 0, 85, 65
1, 105672, Note_on_c, 0, 88, 66
1, 105674, Control_c, 0, 64, 60
1, 105689, Control_c, 0, 64, 64
1, 105704, Control_c, 0, 64, 72
1, 105718, Note_off_c, 0, 88, 67
1, 105718, Control_c, 0, 64, 90
1, 105723, Note_on_c, 0, 85, 77
1, 105729, Note_on_c, 0, 67, 89
1, 105729, Note_on_c, 0, 53, 77
1, 105733, Control_c, 0, 64, 127
1, 105744, Note_on_c, 0, 55, 64
1, 105747, Note_off_c, 0, 53, 68
1, 105747, Note_off_c, 0, 67, 72
1, 105758, Note_on_c, 0, 58, 37
1, 105765, Note_on_c, 0, 88, 70
1, 105769, Note_off_c, 0, 55, 62
1, 105784, Note_off_c, 0, 85, 64
1, 105791, Note_off_c, 0, 58, 52
1, 105824, Poly_aftertouch_c, 0, 81, 0
1, 105828, Note_on_c, 0, 70, 101
1, 105832, Note_on_c, 0, 58, 84
1, 105836, Note_on_c, 0, 82, 88
1, 105836, Note_off_c, 0, 88, 66
1, 105842, Note_off_c, 0, 70, 74
1, 105854, Note_off_c, 0, 58, 68
1, 105877, Note_on_c, 0, 68, 13
1, 105878, Note_off_c, 0, 68, 127
1, 105890, Note_on_c, 0, 85, 80
1, 105917, Poly_aftertouch_c, 0, 68, 0
1, 105928, Note_on_c, 0, 61, 85
1, 105929, Note_off_c, 0, 82, 62
1, 105930, Note_on_c, 0, 73, 96
1, 105949, Note_off_c, 0, 73, 67
1, 105954, Note_off_c, 0, 61, 66
1, 105958, Note_on_c, 0, 80, 93
1, 106018, Note_off_c, 0, 80, 64
1, 106018, Poly_aftertouch_c, 0, 60, 127
1, 106020, Note_off_c, 0, 85, 28
1, 106021, Note_on_c, 0, 82, 88
1, 106044, Control_c, 0, 64, 103
1, 106047, Poly_aftertouch_c, 0, 60, 0
1, 106054, Note_on_c, 0, 76, 101
1, 106055, Note_on_c, 0, 64, 100
1, 106059, Control_c, 0, 64, 77
1, 106066, Note_off_c, 0, 82, 59
1, 106071, Note_on_c, 0, 80, 84
1, 106074, Control_c, 0, 64, 64
1, 106093, Note_off_c, 0, 64, 62
1, 106094, Note_off_c, 0, 76, 62
1, 106096, Control_c, 0, 64, 67
1, 106110, Control_c, 0, 64, 83
1, 106125, Control_c, 0, 64, 127
1, 106126, Note_on_c, 0, 82, 85
1, 106151, Note_off_c, 0, 80, 63
1, 106178, Note_on_c, 0, 76, 105
1, 106179, Note_on_c, 0, 85, 83
1, 106181, Note_on_c, 0, 64, 106
1, 106188, Note_off_c, 0, 82, 64
1, 106209, Note_off_c, 0, 76, 69
1, 106217, Note_off_c, 0, 64, 65
1, 106242, Note_on_c, 0, 82, 86
1, 106262, Note_off_c, 0, 85, 60
1, 106291, Note_off_c, 0, 82, 65
1, 106293, Note_on_c, 0, 76, 105
1, 106298, Note_on_c, 0, 64, 98
1, 106301, Note_on_c, 0, 80, 91
1, 106332, Note_off_c, 0, 76, 65
1, 106340, Note_off_c, 0, 64, 61
1, 106354, Note_on_c, 0, 82, 87
1, 106370, Note_off_c, 0, 80, 64
1, 106385, Note_on_c, 0, 68, 23
1, 106408, Control_c, 0, 64, 105
1, 106419, Note_off_c, 0, 82, 57
1, 106423, Control_c, 0, 64, 62
1, 106426, Note_off_c, 0, 68, 50
1, 106438, Control_c, 0, 64, 0
1, 106442, Note_on_c, 0, 64, 104
1, 106442, Note_on_c, 0, 76, 113
1, 106492, Note_on_c, 0, 80, 80
1, 106497, Control_c, 0, 64, 41
1, 106512, Control_c, 0, 64, 77
1, 106527, Control_c, 0, 64, 127
1, 106545, Note_on_c, 0, 85, 80
1, 106561, Note_off_c, 0, 80, 63
1, 106598, Note_on_c, 0, 82, 83
1, 106620, Note_off_c, 0, 85, 61
1, 106645, Note_off_c, 0, 76, 58
1, 106651, Note_off_c, 0, 64, 63
1, 106660, Note_on_c, 0, 80, 85
1, 106664, Note_off_c, 0, 82, 59
1, 106729, Note_on_c, 0, 85, 72
1, 106729, Note_off_c, 0, 80, 62
1, 106794, Note_off_c, 0, 85, 57
1, 106814, Note_on_c, 0, 75, 72
1, 106817, Note_on_c, 0, 63, 73
1, 106845, Control_c, 0, 64, 96
1, 106847, Poly_aftertouch_c, 0, 67, 127
1, 106859, Control_c, 0, 64, 72
1, 106874, Control_c, 0, 64, 22
1, 106887, Note_on_c, 0, 79, 67
1, 106889, Control_c, 0, 64, 0
1, 106891, Poly_aftertouch_c, 0, 67, 0
1, 106919, Control_c, 0, 64, 41
1, 106933, Control_c, 0, 64, 67
1, 106942, Note_on_c, 0, 85, 68
1, 106946, Note_off_c, 0, 79, 61
1, 106948, Control_c, 0, 64, 82
1, 106962, Note_off_c, 0, 75, 64
1, 106964, Control_c, 0, 64, 118
1, 106979, Control_c, 0, 64, 127
1, 106997, Note_on_c, 0, 82, 80
1, 107001, Note_off_c, 0, 85, 64
1, 107003, Note_off_c, 0, 63, 62
1, 107055, Note_on_c, 0, 79, 81
1, 107059, Note_off_c, 0, 82, 62
1, 107095, Note_on_c, 0, 85, 76
1, 107112, Note_off_c, 0, 79, 60
1, 107155, Note_off_c, 0, 85, 63
1, 107165, Note_on_c, 0, 68, 108
1, 107172, Control_c, 0, 64, 103
1, 107187, Control_c, 0, 64, 66
1, 107201, Control_c, 0, 64, 0
1, 107238, Note_on_c, 0, 76, 79
1, 107276, Control_c, 0, 64, 39
1, 107290, Note_on_c, 0, 85, 83
1, 107290, Control_c, 0, 64, 55
1, 107305, Control_c, 0, 64, 63
1, 107313, Note_off_c, 0, 76, 62
1, 107320, Control_c, 0, 64, 69
1, 107335, Control_c, 0, 64, 76
1, 107350, Control_c, 0, 64, 81
1, 107364, Note_on_c, 0, 82, 78
1, 107364, Control_c, 0, 64, 83
1, 107383, Note_off_c, 0, 85, 63
1, 107394, Control_c, 0, 64, 84
1, 107405, Note_on_c, 0, 76, 81
1, 107408, Control_c, 0, 64, 89
1, 107423, Control_c, 0, 64, 98
1, 107438, Control_c, 0, 64, 114
1, 107452, Note_off_c, 0, 82, 57
1, 107453, Control_c, 0, 64, 127
1, 107473, Note_on_c, 0, 85, 84
1, 107482, Note_off_c, 0, 76, 62
1, 107513, Note_off_c, 0, 68, 60
1, 107517, Note_on_c, 0, 67, 87
1, 107553, Note_off_c, 0, 85, 63
1, 107556, Control_c, 0, 64, 88
1, 107571, Control_c, 0, 64, 67
1, 107594, Control_c, 0, 64, 0
1, 107601, Note_on_c, 0, 75, 80
1, 107623, Control_c, 0, 64, 35
1, 107638, Control_c, 0, 64, 65
1, 107653, Control_c, 0, 64, 84
1, 107664, Note_on_c, 0, 85, 84
1, 107668, Control_c, 0, 64, 127
1, 107679, Note_off_c, 0, 75, 61
1, 107685, Note_off_c, 0, 67, 66
1, 107714, Note_on_c, 0, 82, 79
1, 107738, Note_off_c, 0, 85, 63
1, 107767, Note_on_c, 0, 75, 81
1, 107807, Note_off_c, 0, 82, 60
1, 107815, Note_on_c, 0, 85, 86
1, 107825, Note_off_c, 0, 75, 62
1, 107880, Note_on_c, 0, 76, 107
1, 107882, Note_off_c, 0, 85, 62
1, 107891, Control_c, 0, 64, 86
1, 107905, Control_c, 0, 64, 64
1, 107920, Control_c, 0, 64, 0
1, 107944, Note_on_c, 0, 80, 76
1, 107965, Control_c, 0, 64, 52
1, 107979, Control_c, 0, 64, 69
1, 107991, Note_on_c, 0, 85, 80
1, 107994, Control_c, 0, 64, 85
1, 108006, Note_off_c, 0, 80, 64
1, 108009, Control_c, 0, 64, 127
1, 108050, Note_on_c, 0, 82, 79
1, 108078, Note_off_c, 0, 85, 62
1, 108097, Note_on_c, 0, 80, 91
1, 108108, Note_off_c, 0, 82, 61
1, 108168, Note_on_c, 0, 85, 81
1, 108179, Note_off_c, 0, 80, 60
1, 108223, Note_on_c, 0, 75, 98
1, 108231, Control_c, 0, 64, 93
1, 108246, Note_off_c, 0, 85, 62
1, 108246, Control_c, 0, 64, 70
1, 108250, Note_off_c, 0, 76, 67
1, 108261, Control_c, 0, 64, 42
1, 108276, Control_c, 0, 64, 33
1, 108285, Note_on_c, 0, 79, 79
1, 108291, Control_c, 0, 64, 62
1, 108305, Control_c, 0, 64, 79
1, 108320, Control_c, 0, 64, 127
1, 108353, Note_on_c, 0, 85, 86
1, 108365, Note_off_c, 0, 79, 60
1, 108390, Note_off_c, 0, 75, 62
1, 108405, Note_off_c, 0, 85, 64
1, 108406, Note_on_c, 0, 82, 86
1, 108446, Note_on_c, 0, 79, 76
1, 108474, Note_off_c, 0, 82, 61
1, 108494, Note_on_c, 0, 85, 83
1, 108506, Note_off_c, 0, 79, 60
1, 108522, Note_off_c, 0, 85, 64
1, 108577, Note_on_c, 0, 74, 84
1, 108625, Control_c, 0, 64, 89
1, 108640, Control_c, 0, 64, 66
1, 108649, Note_on_c, 0, 77, 76
1, 108654, Control_c, 0, 64, 0
1, 108721, Note_on_c, 0, 80, 92
1, 108758, Control_c, 0, 64, 8
1, 108773, Control_c, 0, 64, 49
1, 108780, Note_on_c, 0, 83, 79
1, 108787, Control_c, 0, 64, 64
1, 108802, Control_c, 0, 64, 76
1, 108817, Control_c, 0, 64, 92
1, 108832, Control_c, 0, 64, 127
1, 108834, Note_on_c, 0, 86, 78
1, 108868, Note_off_c, 0, 83, 58
1, 108886, Note_on_c, 0, 89, 81
1, 108900, Note_off_c, 0, 86, 63
1, 108937, Note_on_c, 0, 92, 83
1, 108957, Note_off_c, 0, 89, 61
1, 109001, Note_on_c, 0, 89, 68
1, 109020, Note_off_c, 0, 92, 64
1, 109032, Note_off_c, 0, 74, 59
1, 109046, Note_on_c, 0, 86, 71
1, 109051, Note_off_c, 0, 89, 59
1, 109073, Note_off_c, 0, 80, 50
1, 109115, Note_on_c, 0, 95, 83
1, 109127, Note_off_c, 0, 86, 62
1, 109187, Note_on_c, 0, 94, 67
1, 109232, Note_off_c, 0, 95, 59
1, 109251, Note_on_c, 0, 92, 70
1, 109264, Note_off_c, 0, 94, 59
1, 109299, Control_c, 0, 64, 101
1, 109305, Note_off_c, 0, 92, 61
1, 109314, Control_c, 0, 64, 84
1, 109315, Note_on_c, 0, 75, 51
1, 109317, Note_on_c, 0, 91, 70
1, 109328, Control_c, 0, 64, 70
1, 109343, Control_c, 0, 64, 51
1, 109357, Note_off_c, 0, 91, 60
1, 109359, Control_c, 0, 64, 0
1, 109370, Note_off_c, 0, 77, 57
1, 109376, Note_on_c, 0, 94, 67
1, 109413, Note_on_c, 0, 79, 51
1, 109429, Note_on_c, 0, 92, 69
1, 109449, Control_c, 0, 64, 34
1, 109464, Control_c, 0, 64, 50
1, 109464, Control_c, 0, 67, 8
1, 109468, Note_off_c, 0, 94, 56
1, 109478, Control_c, 0, 64, 58
1, 109478, Control_c, 0, 67, 9
1, 109481, Note_on_c, 0, 91, 78
1, 109493, Control_c, 0, 64, 63
1, 109493, Control_c, 0, 67, 11
1, 109503, Note_off_c, 0, 92, 62
1, 109508, Control_c, 0, 64, 68
1, 109508, Control_c, 0, 67, 11
1, 109509, Note_off_c, 0, 91, 64
1, 109523, Control_c, 0, 64, 74
1, 109523, Control_c, 0, 67, 12
1, 109538, Control_c, 0, 64, 83
1, 109538, Control_c, 0, 67, 13
1, 109542, Note_on_c, 0, 88, 72
1, 109552, Control_c, 0, 64, 94
1, 109552, Control_c, 0, 67, 14
1, 109567, Control_c, 0, 64, 109
1, 109567, Control_c, 0, 67, 16
1, 109582, Control_c, 0, 64, 127
1, 109582, Control_c, 0, 67, 18
1, 109597, Control_c, 0, 67, 20
1, 109605, Note_on_c, 0, 87, 75
1, 109608, Note_off_c, 0, 88, 59
1, 109611, Control_c, 0, 67, 21
1, 109626, Control_c, 0, 67, 24
1, 109641, Control_c, 0, 67, 28
1, 109656, Control_c, 0, 67, 34
1, 109658, Note_off_c, 0, 87, 61
1, 109661, Note_on_c, 0, 85, 67
1, 109671, Control_c, 0, 67, 41
1, 109682, Note_off_c, 0, 79, 59
1, 109685, Control_c, 0, 67, 48
1, 109695, Note_off_c, 0, 85, 61
1, 109700, Control_c, 0, 67, 55
1, 109715, Control_c, 0, 67, 60
1, 109718, Note_off_c, 0, 75, 63
1, 109721, Note_on_c, 0, 88, 72
1, 109730, Control_c, 0, 67, 64
1, 109745, Control_c, 0, 67, 68
1, 109759, Control_c, 0, 67, 72
1, 109774, Control_c, 0, 67, 75
1, 109789, Control_c, 0, 67, 79
1, 109795, Note_on_c, 0, 87, 67
1, 109801, Note_off_c, 0, 88, 64
1, 109804, Control_c, 0, 67, 81
1, 109819, Control_c, 0, 67, 82
1, 109841, Control_c, 0, 67, 83
1, 109852, Note_on_c, 0, 85, 60
1, 109861, Note_off_c, 0, 87, 63
1, 109871, Control_c, 0, 67, 84
1, 109881, Note_off_c, 0, 85, 67
1, 109885, Control_c, 0, 67, 85
1, 109900, Control_c, 0, 67, 90
1, 109915, Control_c, 0, 67, 94
1, 109921, Note_on_c, 0, 83, 56
1, 109930, Control_c, 0, 67, 99
1, 109945, Control_c, 0, 67, 102
1, 109959, Control_c, 0, 67, 105
1, 109962, Note_off_c, 0, 83, 53
1, 109971, Note_on_c, 0, 82, 70
1, 109974, Control_c, 0, 67, 108
1, 109989, Control_c, 0, 67, 111
1, 109997, Note_off_c, 0, 82, 69
1, 110003, Control_c, 0, 67, 115
1, 110018, Control_c, 0, 67, 121
1, 110033, Control_c, 0, 67, 127
1, 110048, Control_c, 0, 67, 127
1, 110072, Note_on_c, 0, 71, 50
1, 110085, Note_on_c, 0, 68, 43
1, 110093, Control_c, 0, 64, 99
1, 110108, Control_c, 0, 64, 84
1, 110123, Control_c, 0, 64, 71
1, 110137, Control_c, 0, 64, 56
1, 110153, Control_c, 0, 64, 33
1, 110156, Note_on_c, 0, 80, 47
1, 110168, Control_c, 0, 64, 30
1, 110182, Control_c, 0, 64, 45
1, 110197, Control_c, 0, 64, 60
1, 110200, Note_off_c, 0, 80, 53
1, 110203, Note_on_c, 0, 83, 54
1, 110212, Control_c, 0, 64, 67
1, 110227, Note_off_c, 0, 83, 57
1, 110227, Control_c, 0, 64, 76
1, 110242, Control_c, 0, 64, 87
1, 110257, Control_c, 0, 64, 99
1, 110269, Note_on_c, 0, 87, 56
1, 110272, Control_c, 0, 64, 115
1, 110287, Control_c, 0, 64, 127
1, 110337, Note_off_c, 0, 87, 59
1, 110337, Note_on_c, 0, 92, 61
1, 110393, Note_off_c, 0, 92, 63
1, 110409, Note_on_c, 0, 80, 18
1, 110448, Note_off_c, 0, 80, 47
1, 110474, Note_off_c, 0, 71, 41
1, 110481, Note_off_c, 0, 68, 37
1, 110494, Control_c, 0, 64, 113
1, 110497, Note_on_c, 0, 76, 54
1, 110504, Note_on_c, 0, 73, 46
1, 110508, Control_c, 0, 64, 88
1, 110523, Control_c, 0, 64, 72
1, 110538, Control_c, 0, 64, 58
1, 110553, Control_c, 0, 64, 32
1, 110564, Note_off_c, 0, 73, 0
1, 110564, Note_on_c, 0, 73, 12
1, 110568, Control_c, 0, 64, 37
1, 110590, Control_c, 0, 64, 57
1, 110605, Control_c, 0, 64, 68
1, 110620, Control_c, 0, 64, 78
1, 110634, Control_c, 0, 64, 90
1, 110649, Control_c, 0, 64, 103
1, 110664, Control_c, 0, 64, 113
1, 110679, Control_c, 0, 64, 127
1, 110682, Note_off_c, 0, 76, 61
1, 110707, Note_on_c, 0, 92, 60
1, 110743, Note_off_c, 0, 92, 60
1, 110784, Note_on_c, 0, 80, 40
1, 110811, Note_off_c, 0, 80, 55
1, 110831, Note_on_c, 0, 92, 60
1, 110861, Note_off_c, 0, 92, 54
1, 110886, Control_c, 0, 64, 116
1, 110891, Note_on_c, 0, 71, 46
1, 110901, Control_c, 0, 64, 91
1, 110902, Note_on_c, 0, 75, 51
1, 110916, Control_c, 0, 64, 76
1, 110931, Control_c, 0, 64, 64
1, 110945, Control_c, 0, 64, 47
1, 110957, Note_off_c, 0, 73, 42
1, 110961, Control_c, 0, 64, 36
1, 110976, Control_c, 0, 64, 47
1, 110991, Control_c, 0, 64, 61
1, 111005, Control_c, 0, 64, 67
1, 111020, Control_c, 0, 64, 74
1, 111035, Control_c, 0, 64, 83
1, 111050, Control_c, 0, 64, 93
1, 111065, Control_c, 0, 64, 103
1, 111080, Control_c, 0, 64, 113
1, 111095, Note_on_c, 0, 92, 61
1, 111095, Control_c, 0, 64, 127
1, 111127, Note_off_c, 0, 92, 65
1, 111152, Note_off_c, 0, 75, 38
1, 111169, Note_on_c, 0, 80, 51
1, 111201, Note_off_c, 0, 80, 49
1, 111220, Note_on_c, 0, 92, 61
1, 111275, Note_on_c, 0, 75, 80
1, 111291, Note_off_c, 0, 92, 55
1, 111292, Note_on_c, 0, 73, 65
1, 111299, Note_on_c, 0, 70, 69
1, 111339, Control_c, 0, 64, 100
1, 111354, Control_c, 0, 64, 86
1, 111366, Note_off_c, 0, 71, 56
1, 111369, Control_c, 0, 64, 70
1, 111383, Control_c, 0, 64, 55
1, 111398, Control_c, 0, 64, 0
1, 111457, Control_c, 0, 64, 36
1, 111472, Control_c, 0, 64, 59
1, 111487, Control_c, 0, 64, 68
1, 111502, Control_c, 0, 64, 80
1, 111512, Note_on_c, 0, 91, 75
1, 111517, Control_c, 0, 64, 102
1, 111531, Control_c, 0, 64, 127
1, 111539, Note_off_c, 0, 91, 66
1, 111577, Note_on_c, 0, 79, 68
1, 111618, Note_off_c, 0, 79, 61
1, 111619, Note_on_c, 0, 91, 66
1, 111643, Note_off_c, 0, 91, 55
1, 111677, Note_off_c, 0, 70, 56
1, 111679, Control_c, 0, 64, 94
1, 111687, Note_on_c, 0, 71, 61
1, 111694, Control_c, 0, 64, 71
1, 111698, Note_on_c, 0, 68, 55
1, 111709, Control_c, 0, 64, 21
1, 111723, Control_c, 0, 64, 0
1, 111725, Note_off_c, 0, 73, 59
1, 111759, Note_on_c, 0, 80, 58
1, 111769, Control_c, 0, 64, 53
1, 111784, Control_c, 0, 64, 69
1, 111798, Note_off_c, 0, 75, 62
1, 111798, Control_c, 0, 64, 84
1, 111813, Control_c, 0, 64, 117
1, 111822, Note_on_c, 0, 83, 55
1, 111828, Control_c, 0, 64, 127
1, 111831, Note_off_c, 0, 80, 57
1, 111834, Note_off_c, 0, 71, 64
1, 111852, Note_off_c, 0, 83, 58
1, 111859, Note_off_c, 0, 68, 65
1, 111867, Note_on_c, 0, 87, 64
1, 111918, Poly_aftertouch_c, 0, 84, 0
1, 111933, Note_on_c, 0, 92, 72
1, 111973, Note_off_c, 0, 87, 60
1, 111983, Note_on_c, 0, 80, 51
1, 111989, Note_off_c, 0, 92, 64
1, 112002, Note_off_c, 0, 80, 61
1, 112051, Control_c, 0, 64, 119
1, 112066, Control_c, 0, 64, 88
1, 112087, Control_c, 0, 64, 67
1, 112099, Note_on_c, 0, 64, 49
1, 112101, Note_on_c, 0, 61, 45
1, 112102, Control_c, 0, 64, 0
1, 112162, Control_c, 0, 64, 48
1, 112177, Control_c, 0, 64, 64
1, 112191, Control_c, 0, 64, 73
1, 112206, Control_c, 0, 64, 85
1, 112221, Control_c, 0, 64, 103
1, 112236, Control_c, 0, 64, 127
1, 112253, Note_off_c, 0, 64, 61
1, 112292, Note_on_c, 0, 80, 53
1, 112324, Note_off_c, 0, 80, 63
1, 112356, Note_on_c, 0, 68, 34
1, 112400, Note_off_c, 0, 68, 50
1, 112415, Note_on_c, 0, 80, 46
1, 112459, Note_off_c, 0, 80, 48
1, 112469, Note_on_c, 0, 59, 48
1, 112472, Control_c, 0, 64, 114
1, 112475, Note_on_c, 0, 63, 52
1, 112487, Control_c, 0, 64, 94
1, 112501, Control_c, 0, 64, 76
1, 112516, Control_c, 0, 64, 61
1, 112531, Control_c, 0, 64, 0
1, 112537, Note_off_c, 0, 61, 36
1, 112576, Control_c, 0, 64, 43
1, 112591, Control_c, 0, 64, 61
1, 112606, Control_c, 0, 64, 70
1, 112621, Control_c, 0, 64, 79
1, 112636, Control_c, 0, 64, 91
1, 112651, Control_c, 0, 64, 106
1, 112657, Note_on_c, 0, 80, 54
1, 112665, Control_c, 0, 64, 127
1, 112683, Note_off_c, 0, 80, 60
1, 112712, Note_off_c, 0, 63, 50
1, 112714, Note_on_c, 0, 68, 54
1, 112755, Note_on_c, 0, 80, 70
1, 112766, Note_off_c, 0, 68, 59
1, 112845, Note_off_c, 0, 80, 57
1, 112861, Note_on_c, 0, 63, 81
1, 112891, Note_on_c, 0, 61, 64
1, 112898, Note_on_c, 0, 58, 61
1, 112910, Control_c, 0, 64, 109
1, 112925, Control_c, 0, 64, 91
1, 112928, Note_off_c, 0, 59, 60
1, 112940, Control_c, 0, 64, 75
1, 112954, Control_c, 0, 64, 60
1, 112969, Control_c, 0, 64, 0
1, 113014, Control_c, 0, 64, 45
1, 113028, Control_c, 0, 64, 63
1, 113043, Control_c, 0, 64, 72
1, 113058, Control_c, 0, 64, 85
1, 113066, Note_on_c, 0, 79, 59
1, 113073, Control_c, 0, 64, 109
1, 113088, Control_c, 0, 64, 127
1, 113091, Note_off_c, 0, 79, 63
1, 113127, Note_on_c, 0, 67, 64
1, 113159, Note_off_c, 0, 67, 66
1, 113162, Note_on_c, 0, 79, 76
1, 113187, Note_off_c, 0, 79, 67
1, 113202, Note_off_c, 0, 58, 52
1, 113207, Control_c, 0, 64, 118
1, 113222, Control_c, 0, 64, 90
1, 113232, Note_on_c, 0, 59, 59
1, 113236, Control_c, 0, 64, 71
1, 113245, Note_on_c, 0, 56, 54
1, 113251, Control_c, 0, 64, 48
1, 113266, Control_c, 0, 64, 0
1, 113270, Note_off_c, 0, 61, 44
1, 113296, Control_c, 0, 64, 50
1, 113307, Note_on_c, 0, 80, 68
1, 113310, Control_c, 0, 64, 67
1, 113325, Control_c, 0, 64, 80
1, 113333, Note_off_c, 0, 63, 62
1, 113340, Control_c, 0, 64, 103
1, 113356, Control_c, 0, 64, 127
1, 113369, Note_off_c, 0, 59, 63
1, 113373, Note_on_c, 0, 83, 63
1, 113381, Note_off_c, 0, 80, 50
1, 113393, Note_off_c, 0, 83, 61
1, 113396, Note_off_c, 0, 56, 63
1, 113411, Note_on_c, 0, 87, 66
1, 113476, Note_on_c, 0, 92, 67
1, 113478, Note_off_c, 0, 87, 62
1, 113516, Note_on_c, 0, 80, 65
1, 113533, Control_c, 0, 64, 120
1, 113538, Note_off_c, 0, 92, 63
1, 113547, Note_off_c, 0, 80, 64
1, 113548, Control_c, 0, 64, 91
1, 113563, Control_c, 0, 64, 73
1, 113585, Control_c, 0, 64, 56
1, 113600, Control_c, 0, 64, 0
1, 113626, Note_on_c, 0, 49, 44
1, 113637, Note_on_c, 0, 52, 44
1, 113689, Control_c, 0, 64, 49
1, 113704, Control_c, 0, 64, 65
1, 113719, Control_c, 0, 64, 75
1, 113733, Control_c, 0, 64, 88
1, 113748, Control_c, 0, 64, 109
1, 113763, Control_c, 0, 64, 127
1, 113806, Note_off_c, 0, 52, 57
1, 113840, Note_on_c, 0, 92, 41
1, 113864, Note_off_c, 0, 92, 56
1, 113897, Note_on_c, 0, 80, 42
1, 113925, Note_off_c, 0, 80, 54
1, 113951, Note_on_c, 0, 92, 55
1, 113983, Note_off_c, 0, 92, 50
1, 113985, Control_c, 0, 64, 114
1, 114000, Control_c, 0, 64, 93
1, 114015, Control_c, 0, 64, 77
1, 114016, Note_on_c, 0, 51, 41
1, 114018, Note_on_c, 0, 47, 32
1, 114030, Control_c, 0, 64, 59
1, 114045, Control_c, 0, 64, 0
1, 114046, Note_off_c, 0, 49, 35
1, 114104, Control_c, 0, 64, 48
1, 114119, Control_c, 0, 64, 64
1, 114133, Control_c, 0, 64, 71
1, 114149, Control_c, 0, 64, 81
1, 114164, Control_c, 0, 64, 92
1, 114179, Control_c, 0, 64, 104
1, 114193, Control_c, 0, 64, 117
1, 114200, Note_on_c, 0, 92, 52
1, 114208, Control_c, 0, 64, 127
1, 114234, Note_off_c, 0, 92, 50
1, 114270, Note_off_c, 0, 51, 35
1, 114271, Note_on_c, 0, 80, 42
1, 114314, Note_off_c, 0, 80, 46
1, 114332, Note_on_c, 0, 92, 62
1, 114451, Note_on_c, 0, 51, 66
1, 114453, Control_c, 0, 64, 125
1, 114459, Note_on_c, 0, 49, 43
1, 114460, Note_off_c, 0, 92, 33
1, 114464, Note_on_c, 0, 46, 51
1, 114468, Control_c, 0, 64, 107
1, 114482, Control_c, 0, 64, 94
1, 114497, Control_c, 0, 64, 81
1, 114512, Control_c, 0, 64, 65
1, 114522, Note_off_c, 0, 47, 45
1, 114527, Control_c, 0, 64, 28
1, 114542, Control_c, 0, 64, 0
1, 114571, Control_c, 0, 64, 10
1, 114586, Control_c, 0, 64, 51
1, 114600, Control_c, 0, 64, 65
1, 114615, Control_c, 0, 64, 72
1, 114630, Control_c, 0, 64, 81
1, 114645, Control_c, 0, 64, 92
1, 114660, Control_c, 0, 64, 101
1, 114669, Note_on_c, 0, 91, 60
1, 114675, Control_c, 0, 64, 108
1, 114689, Control_c, 0, 64, 115
1, 114704, Control_c, 0, 64, 127
1, 114715, Note_off_c, 0, 91, 55
1, 114744, Note_on_c, 0, 79, 44
1, 114771, Note_off_c, 0, 79, 55
1, 114805, Note_off_c, 0, 51, 53
1, 114829, Note_on_c, 0, 91, 36
1, 114840, Note_off_c, 0, 49, 45
1, 114842, Note_on_c, 0, 44, 54
1, 114859, Note_on_c, 0, 92, 59
1, 114862, Note_off_c, 0, 91, 46
1, 114867, Control_c, 0, 64, 95
1, 114882, Control_c, 0, 64, 72
1, 114892, Note_off_c, 0, 46, 36
1, 114897, Control_c, 0, 64, 50
1, 114912, Control_c, 0, 64, 0
1, 114922, Note_off_c, 0, 92, 58
1, 114943, Note_on_c, 0, 87, 60
1, 114965, Note_off_c, 0, 87, 62
1, 114972, Control_c, 0, 64, 27
1, 114987, Control_c, 0, 64, 56
1, 115002, Control_c, 0, 64, 66
1, 115017, Control_c, 0, 64, 74
1, 115031, Control_c, 0, 64, 85
1, 115046, Control_c, 0, 64, 100
1, 115061, Control_c, 0, 64, 127
1, 115063, Note_on_c, 0, 87, 56
1, 115093, Note_off_c, 0, 87, 61
1, 115119, Note_on_c, 0, 92, 58
1, 115177, Note_on_c, 0, 87, 67
1, 115179, Note_off_c, 0, 92, 50
1, 115207, Note_off_c, 0, 87, 65
1, 115241, Note_on_c, 0, 83, 61
1, 115294, Note_off_c, 0, 83, 52
1, 115318, Note_on_c, 0, 87, 52
1, 115339, Note_off_c, 0, 87, 59
1, 115369, Note_on_c, 0, 92, 52
1, 115404, Note_off_c, 0, 92, 49
1, 115414, Note_on_c, 0, 87, 63
1, 115446, Note_off_c, 0, 87, 63
1, 115489, Note_on_c, 0, 83, 44
1, 115531, Note_off_c, 0, 83, 50
1, 115567, Note_on_c, 0, 87, 40
1, 115595, Note_off_c, 0, 87, 50
1, 115614, Note_on_c, 0, 92, 52
1, 115633, Note_on_c, 0, 39, 44
1, 115646, Control_c, 0, 64, 118
1, 115661, Control_c, 0, 64, 93
1, 115665, Note_off_c, 0, 92, 42
1, 115673, Note_on_c, 0, 87, 63
1, 115676, Control_c, 0, 64, 77
1, 115690, Control_c, 0, 64, 65
1, 115694, Note_off_c, 0, 44, 38
1, 115705, Control_c, 0, 64, 50
1, 115708, Note_off_c, 0, 87, 48
1, 115720, Control_c, 0, 64, 47
1, 115735, Control_c, 0, 64, 60
1, 115748, Note_on_c, 0, 83, 42
1, 115751, Control_c, 0, 64, 67
1, 115765, Control_c, 0, 64, 76
1, 115780, Control_c, 0, 64, 87
1, 115795, Control_c, 0, 64, 100
1, 115798, Note_off_c, 0, 83, 46
1, 115807, Note_on_c, 0, 87, 59
1, 115810, Control_c, 0, 64, 111
1, 115832, Control_c, 0, 64, 118
1, 115846, Control_c, 0, 64, 120
1, 115861, Note_off_c, 0, 87, 59
1, 115861, Control_c, 0, 64, 121
1, 115876, Control_c, 0, 64, 125
1, 115891, Control_c, 0, 64, 127
1, 115906, Note_on_c, 0, 92, 46
1, 115935, Note_off_c, 0, 92, 51
1, 115989, Note_on_c, 0, 87, 51
1, 116025, Note_off_c, 0, 87, 50
1, 116054, Control_c, 0, 64, 119
1, 116067, Note_on_c, 0, 92, 41
1, 116069, Control_c, 0, 64, 111
1, 116081, Note_on_c, 0, 35, 40
1, 116084, Control_c, 0, 64, 102
1, 116099, Control_c, 0, 64, 92
1, 116114, Control_c, 0, 64, 82
1, 116117, Note_off_c, 0, 92, 42
1, 116128, Control_c, 0, 64, 70
1, 116144, Control_c, 0, 64, 60
1, 116159, Control_c, 0, 64, 41
1, 116164, Note_on_c, 0, 87, 35
1, 116170, Note_off_c, 0, 39, 35
1, 116173, Control_c, 0, 64, 31
1, 116188, Control_c, 0, 64, 41
1, 116203, Control_c, 0, 64, 55
1, 116204, Note_off_c, 0, 87, 50
1, 116218, Control_c, 0, 64, 64
1, 116233, Control_c, 0, 64, 69
1, 116240, Note_on_c, 0, 92, 44
1, 116247, Control_c, 0, 64, 76
1, 116262, Control_c, 0, 64, 85
1, 116277, Control_c, 0, 64, 95
1, 116290, Note_off_c, 0, 92, 41
1, 116292, Control_c, 0, 64, 102
1, 116307, Control_c, 0, 64, 108
1, 116311, Note_on_c, 0, 87, 49
1, 116321, Control_c, 0, 64, 110
1, 116336, Control_c, 0, 64, 111
1, 116351, Control_c, 0, 64, 113
1, 116365, Note_off_c, 0, 87, 46
1, 116365, Control_c, 0, 64, 114
1, 116380, Control_c, 0, 64, 115
1, 116395, Control_c, 0, 64, 116
1, 116409, Note_on_c, 0, 92, 45
1, 116454, Note_off_c, 0, 92, 44
1, 116494, Note_on_c, 0, 87, 38
1, 116576, Note_off_c, 0, 87, 34
1, 116656, Control_c, 0, 64, 115
1, 116670, Control_c, 0, 64, 114
1, 116685, Control_c, 0, 64, 113
1, 116700, Control_c, 0, 64, 110
1, 116708, Note_on_c, 0, 92, 37
1, 116715, Control_c, 0, 64, 107
1, 116721, Note_on_c, 0, 32, 35
1, 116730, Control_c, 0, 64, 102
1, 116744, Control_c, 0, 64, 96
1, 116759, Control_c, 0, 64, 88
1, 116774, Control_c, 0, 64, 79
1, 116776, Note_off_c, 0, 35, 32
1, 116789, Control_c, 0, 64, 67
1, 116803, Control_c, 0, 64, 48
1, 116818, Control_c, 0, 64, 0
1, 116907, Control_c, 0, 64, 39
1, 116922, Control_c, 0, 64, 58
1, 116937, Control_c, 0, 64, 65
1, 116951, Control_c, 0, 64, 69
1, 116966, Control_c, 0, 64, 74
1, 116981, Control_c, 0, 64, 81
1, 116995, Control_c, 0, 64, 86
1, 117010, Control_c, 0, 64, 92
1, 117025, Control_c, 0, 64, 96
1, 117040, Control_c, 0, 64, 100
1, 117055, Control_c, 0, 64, 105
1, 117069, Control_c, 0, 64, 112
1, 117084, Control_c, 0, 64, 127
1, 117753, Note_off_c, 0, 92, 42
1, 117933, Note_off_c, 0, 32, 38
1, 118040, Control_c, 0, 64, 115
1, 118055, Control_c, 0, 64, 105
1, 118078, Control_c, 0, 64, 98
1, 118092, Control_c, 0, 64, 91
1, 118107, Control_c, 0, 64, 86
1, 118122, Control_c, 0, 64, 82
1, 118137, Control_c, 0, 64, 78
1, 118153, Control_c, 0, 64, 74
1, 118167, Control_c, 0, 64, 71
1, 118182, Control_c, 0, 64, 68
1, 118197, Control_c, 0, 64, 65
1, 118212, Control_c, 0, 64, 64
1, 118227, Control_c, 0, 64, 64
1, 118241, Control_c, 0, 64, 63
1, 118256, Control_c, 0, 64, 61
1, 118271, Control_c, 0, 64, 58
1, 118286, Control_c, 0, 64, 52
1, 118301, Control_c, 0, 64, 44
1, 118315, Control_c, 0, 64, 30
1, 118330, Control_c, 0, 64, 15
1, 118345, Control_c, 0, 64, 10
1, 118360, Control_c, 0, 64, 21
1, 118374, Control_c, 0, 64, 43
1, 118389, Control_c, 0, 64, 59
1, 118404, Control_c, 0, 64, 67
1, 118419, Control_c, 0, 64, 74
1, 118434, Control_c, 0, 64, 83
1, 118448, Control_c, 0, 64, 92
1, 118463, Control_c, 0, 64, 100
1, 118478, Control_c, 0, 64, 106
1, 118493, Control_c, 0, 64, 110
1, 118508, Control_c, 0, 64, 113
1, 118523, Control_c, 0, 64, 116
1, 118538, Control_c, 0, 64, 121
1, 118553, Control_c, 0, 64, 127
1, 118606, Note_on_c, 0, 59, 44
1, 118619, Note_on_c, 0, 47, 40
1, 118988, Note_on_c, 0, 56, 42
1, 118993, Note_on_c, 0, 44, 40
1, 119051, Note_off_c, 0, 56, 50
1, 119056, Note_off_c, 0, 47, 36
1, 119064, Note_off_c, 0, 59, 30
1, 119086, Note_on_c, 0, 39, 42
1, 119094, Control_c, 0, 64, 108
1, 119095, Note_on_c, 0, 51, 39
1, 119109, Control_c, 0, 64, 96
1, 119124, Control_c, 0, 64, 86
1, 119137, Note_off_c, 0, 44, 31
1, 119139, Control_c, 0, 64, 77
1, 119154, Control_c, 0, 64, 68
1, 119169, Control_c, 0, 64, 56
1, 119184, Control_c, 0, 64, 39
1, 119198, Control_c, 0, 64, 26
1, 119213, Control_c, 0, 64, 20
1, 119228, Control_c, 0, 64, 8
1, 119243, Control_c, 0, 64, 0
1, 119346, Control_c, 0, 64, 22
1, 119361, Control_c, 0, 64, 38
1, 119376, Control_c, 0, 64, 48
1, 119390, Control_c, 0, 64, 56
1, 119405, Control_c, 0, 64, 60
1, 119420, Control_c, 0, 64, 63
1, 119435, Control_c, 0, 64, 65
1, 119450, Control_c, 0, 64, 67
1, 119465, Control_c, 0, 64, 70
1, 119480, Control_c, 0, 64, 73
1, 119495, Control_c, 0, 64, 76
1, 119509, Control_c, 0, 64, 80
1, 119524, Control_c, 0, 64, 85
1, 119539, Control_c, 0, 64, 90
1, 119554, Control_c, 0, 64, 95
1, 119576, Control_c, 0, 64, 99
1, 119591, Control_c, 0, 64, 103
1, 119605, Control_c, 0, 64, 108
1, 119620, Control_c, 0, 64, 113
1, 119635, Control_c, 0, 64, 123
1, 119650, Control_c, 0, 64, 127
1, 120019, Note_off_c, 0, 39, 36
1, 120030, Note_off_c, 0, 51, 41
1, 120273, Control_c, 0, 64, 119
1, 120288, Control_c, 0, 64, 115
1, 120303, Control_c, 0, 64, 112
1, 120325, Control_c, 0, 64, 111
1, 120339, Control_c, 0, 64, 110
1, 120354, Control_c, 0, 64, 108
1, 120369, Control_c, 0, 64, 106
1, 120384, Control_c, 0, 64, 105
1, 120399, Control_c, 0, 64, 104
1, 120413, Control_c, 0, 64, 103
1, 120428, Control_c, 0, 64, 101
1, 120443, Control_c, 0, 64, 100
1, 120458, Control_c, 0, 64, 98
1, 120473, Control_c, 0, 64, 98
1, 120487, Control_c, 0, 64, 97
1, 120502, Control_c, 0, 64, 96
1, 120517, Control_c, 0, 64, 96
1, 120532, Control_c, 0, 64, 94
1, 120548, Control_c, 0, 64, 93
1, 120563, Control_c, 0, 64, 92
1, 120577, Control_c, 0, 64, 91
1, 120592, Control_c, 0, 64, 90
1, 120607, Control_c, 0, 64, 89
1, 120622, Control_c, 0, 64, 88
1, 120636, Control_c, 0, 64, 86
1, 120651, Control_c, 0, 64, 84
1, 120666, Control_c, 0, 64, 82
1, 120681, Control_c, 0, 64, 79
1, 120696, Control_c, 0, 64, 76
1, 120710, Control_c, 0, 64, 74
1, 120725, Control_c, 0, 64, 72
1, 120740, Control_c, 0, 64, 69
1, 120755, Control_c, 0, 64, 68
1, 120769, Control_c, 0, 64, 66
1, 120784, Control_c, 0, 64, 64
1, 120799, Control_c, 0, 64, 64
1, 120814, Control_c, 0, 64, 63
1, 120829, Control_c, 0, 64, 62
1, 120843, Control_c, 0, 64, 61
1, 120858, Control_c, 0, 64, 60
1, 120873, Control_c, 0, 64, 58
1, 120880, Note_on_c, 0, 59, 46
1, 120888, Control_c, 0, 64, 56
1, 120896, Note_on_c, 0, 47, 36
1, 120903, Control_c, 0, 64, 54
1, 120917, Control_c, 0, 64, 50
1, 120932, Control_c, 0, 64, 44
1, 120947, Control_c, 0, 64, 30
1, 120961, Control_c, 0, 64, 0
1, 121021, Control_c, 0, 64, 35
1, 121036, Control_c, 0, 64, 55
1, 121051, Control_c, 0, 64, 65
1, 121073, Control_c, 0, 64, 74
1, 121088, Control_c, 0, 64, 86
1, 121103, Control_c, 0, 64, 101
1, 121117, Control_c, 0, 64, 127
1, 121343, Note_on_c, 0, 56, 36
1, 121346, Note_on_c, 0, 44, 37
1, 121449, Note_on_c, 0, 52, 41
1, 121467, Note_on_c, 0, 40, 41
1, 121470, Note_off_c, 0, 56, 30
1, 121475, Note_off_c, 0, 44, 32
1, 121503, Control_c, 0, 64, 110
1, 121518, Control_c, 0, 64, 97
1, 121519, Note_off_c, 0, 59, 33
1, 121533, Control_c, 0, 64, 86
1, 121547, Control_c, 0, 64, 75
1, 121548, Note_off_c, 0, 47, 36
1, 121562, Control_c, 0, 64, 65
1, 121577, Control_c, 0, 64, 50
1, 121591, Control_c, 0, 64, 0
1, 121695, Control_c, 0, 64, 29
1, 121710, Control_c, 0, 64, 49
1, 121724, Control_c, 0, 64, 57
1, 121739, Control_c, 0, 64, 60
1, 121754, Control_c, 0, 64, 61
1, 121769, Control_c, 0, 64, 62
1, 121784, Control_c, 0, 64, 63
1, 121799, Control_c, 0, 64, 64
1, 121821, Control_c, 0, 64, 66
1, 121836, Control_c, 0, 64, 68
1, 121851, Control_c, 0, 64, 72
1, 121865, Control_c, 0, 64, 76
1, 121880, Control_c, 0, 64, 80
1, 121895, Control_c, 0, 64, 84
1, 121909, Control_c, 0, 64, 87
1, 121924, Control_c, 0, 64, 91
1, 121939, Control_c, 0, 64, 94
1, 121954, Control_c, 0, 64, 97
1, 121969, Control_c, 0, 64, 100
1, 121984, Control_c, 0, 64, 103
1, 121999, Control_c, 0, 64, 107
1, 122014, Control_c, 0, 64, 113
1, 122028, Control_c, 0, 64, 123
1, 122043, Control_c, 0, 64, 127
1, 122718, Note_on_c, 0, 56, 45
1, 122737, Note_on_c, 0, 44, 38
1, 122894, Note_off_c, 0, 52, 40
1, 122974, Note_off_c, 0, 40, 27
1, 123032, Note_off_c, 0, 56, 60
1, 123036, Note_on_c, 0, 59, 60
1, 123046, Note_on_c, 0, 47, 48
1, 123119, Note_on_c, 0, 64, 61
1, 123120, Note_off_c, 0, 44, 39
1, 123128, Note_off_c, 0, 59, 52
1, 123131, Note_off_c, 0, 47, 61
1, 123133, Note_on_c, 0, 52, 55
1, 123163, Control_c, 0, 64, 118
1, 123178, Control_c, 0, 64, 102
1, 123193, Control_c, 0, 64, 91
1, 123208, Control_c, 0, 64, 82
1, 123223, Control_c, 0, 64, 74
1, 123237, Control_c, 0, 64, 66
1, 123252, Control_c, 0, 64, 56
1, 123267, Control_c, 0, 64, 46
1, 123282, Control_c, 0, 64, 39
1, 123297, Control_c, 0, 64, 38
1, 123334, Control_c, 0, 64, 37
1, 123349, Control_c, 0, 64, 33
1, 123363, Control_c, 0, 64, 26
1, 123378, Control_c, 0, 64, 22
1, 123393, Control_c, 0, 64, 21
1, 123408, Control_c, 0, 64, 21
1, 123423, Control_c, 0, 64, 18
1, 123437, Control_c, 0, 64, 12
1, 123452, Control_c, 0, 64, 8
1, 123467, Control_c, 0, 64, 0
1, 123501, Note_on_c, 0, 68, 65
1, 123522, Note_on_c, 0, 56, 51
1, 123573, Note_off_c, 0, 64, 57
1, 123644, Control_c, 0, 64, 8
1, 123659, Control_c, 0, 64, 16
1, 123674, Control_c, 0, 64, 29
1, 123689, Control_c, 0, 64, 46
1, 123704, Control_c, 0, 64, 59
1, 123719, Control_c, 0, 64, 67
1, 123734, Control_c, 0, 64, 73
1, 123749, Control_c, 0, 64, 78
1, 123764, Control_c, 0, 64, 78
1, 123778, Control_c, 0, 64, 77
1, 123793, Control_c, 0, 64, 75
1, 123808, Control_c, 0, 64, 71
1, 123811, Note_on_c, 0, 59, 53
1, 123812, Note_on_c, 0, 71, 62
1, 123812, Note_off_c, 0, 52, 36
1, 123823, Control_c, 0, 64, 66
1, 123838, Note_off_c, 0, 68, 61
1, 123838, Control_c, 0, 64, 62
1, 123853, Control_c, 0, 64, 56
1, 123868, Control_c, 0, 64, 48
1, 123871, Note_off_c, 0, 56, 37
1, 123878, Note_off_c, 0, 59, 51
1, 123883, Control_c, 0, 64, 41
1, 123887, Note_on_c, 0, 76, 66
1, 123888, Note_off_c, 0, 71, 59
1, 123897, Control_c, 0, 64, 28
1, 123907, Note_on_c, 0, 64, 44
1, 123912, Control_c, 0, 64, 0
1, 124016, Control_c, 0, 64, 47
1, 124031, Control_c, 0, 64, 66
1, 124046, Control_c, 0, 64, 78
1, 124067, Control_c, 0, 64, 98
1, 124082, Control_c, 0, 64, 127
1, 124091, Note_off_c, 0, 64, 58
1, 124285, Note_on_c, 0, 64, 47
1, 124299, Note_on_c, 0, 52, 46
1, 124334, Control_c, 0, 64, 97
1, 124349, Control_c, 0, 64, 79
1, 124364, Control_c, 0, 64, 64
1, 124367, Note_off_c, 0, 76, 53
1, 124379, Control_c, 0, 64, 28
1, 124393, Control_c, 0, 64, 0
1, 124423, Control_c, 0, 64, 51
1, 124438, Control_c, 0, 64, 65
1, 124453, Control_c, 0, 64, 74
1, 124467, Control_c, 0, 64, 87
1, 124482, Control_c, 0, 64, 110
1, 124497, Control_c, 0, 64, 127
1, 124521, Note_off_c, 0, 64, 57
1, 124848, Note_on_c, 0, 71, 68
1, 124878, Note_off_c, 0, 52, 32
1, 124893, Note_on_c, 0, 59, 38
1, 124897, Note_on_c, 0, 51, 38
1, 124908, Note_on_c, 0, 54, 35
1, 124994, Control_c, 0, 64, 117
1, 125009, Control_c, 0, 64, 100
1, 125024, Control_c, 0, 64, 86
1, 125039, Control_c, 0, 64, 73
1, 125054, Control_c, 0, 64, 57
1, 125069, Control_c, 0, 64, 0
1, 125157, Control_c, 0, 64, 55
1, 125172, Control_c, 0, 64, 67
1, 125187, Control_c, 0, 64, 77
1, 125202, Control_c, 0, 64, 91
1, 125216, Control_c, 0, 64, 110
1, 125231, Control_c, 0, 64, 127
1, 125354, Note_off_c, 0, 51, 55
1, 125451, Note_off_c, 0, 54, 39
1, 125456, Note_off_c, 0, 59, 37
1, 125656, Note_on_c, 0, 73, 58
1, 125671, Note_off_c, 0, 71, 55
1, 125866, Note_off_c, 0, 73, 59
1, 125888, Note_on_c, 0, 71, 56
1, 125927, Note_on_c, 0, 58, 41
1, 125936, Note_on_c, 0, 52, 41
1, 125936, Note_on_c, 0, 55, 29
1, 125936, Control_c, 0, 64, 109
1, 125951, Control_c, 0, 64, 92
1, 125966, Control_c, 0, 64, 78
1, 125981, Control_c, 0, 64, 64
1, 125996, Note_off_c, 0, 71, 62
1, 125996, Control_c, 0, 64, 18
1, 126011, Control_c, 0, 64, 0
1, 126040, Control_c, 0, 64, 29
1, 126044, Note_on_c, 0, 73, 51
1, 126055, Control_c, 0, 64, 56
1, 126070, Control_c, 0, 64, 66
1, 126084, Control_c, 0, 64, 75
1, 126099, Control_c, 0, 64, 90
1, 126102, Note_off_c, 0, 73, 60
1, 126114, Control_c, 0, 64, 108
1, 126115, Note_on_c, 0, 75, 50
1, 126130, Control_c, 0, 64, 127
1, 126148, Note_off_c, 0, 75, 63
1, 126173, Note_on_c, 0, 73, 44
1, 126212, Note_off_c, 0, 73, 53
1, 126231, Note_on_c, 0, 75, 64
1, 126267, Note_off_c, 0, 75, 58
1, 126308, Note_on_c, 0, 73, 56
1, 126336, Note_off_c, 0, 73, 56
1, 126363, Note_on_c, 0, 75, 49
1, 126384, Note_off_c, 0, 75, 61
1, 126428, Note_on_c, 0, 73, 38
1, 126455, Note_off_c, 0, 73, 56
1, 126462, Note_on_c, 0, 75, 61
1, 126493, Note_off_c, 0, 75, 65
1, 126532, Note_on_c, 0, 73, 42
1, 126539, Note_off_c, 0, 52, 61
1, 126559, Note_off_c, 0, 73, 55
1, 126565, Note_off_c, 0, 55, 39
1, 126580, Note_on_c, 0, 75, 56
1, 126631, Note_off_c, 0, 75, 49
1, 126638, Note_on_c, 0, 73, 62
1, 126687, Note_off_c, 0, 73, 52
1, 126695, Note_off_c, 0, 58, 29
1, 126730, Note_on_c, 0, 71, 56
1, 126804, Note_off_c, 0, 71, 50
1, 126807, Note_on_c, 0, 75, 54
1, 126883, Note_off_c, 0, 75, 53
1, 126905, Note_on_c, 0, 73, 48
1, 126968, Control_c, 0, 64, 116
1, 126983, Control_c, 0, 64, 112
1, 126998, Control_c, 0, 64, 109
1, 127012, Note_off_c, 0, 73, 51
1, 127012, Control_c, 0, 64, 106
1, 127027, Control_c, 0, 64, 103
1, 127039, Note_on_c, 0, 71, 50
1, 127042, Control_c, 0, 64, 100
1, 127064, Control_c, 0, 64, 95
1, 127065, Note_on_c, 0, 59, 35
1, 127072, Note_on_c, 0, 51, 39
1, 127077, Note_on_c, 0, 54, 28
1, 127079, Control_c, 0, 64, 88
1, 127093, Control_c, 0, 64, 82
1, 127108, Control_c, 0, 64, 74
1, 127123, Control_c, 0, 64, 67
1, 127138, Control_c, 0, 64, 59
1, 127153, Control_c, 0, 64, 43
1, 127168, Control_c, 0, 64, 28
1, 127182, Control_c, 0, 64, 16
1, 127197, Control_c, 0, 64, 0
1, 127654, Note_off_c, 0, 54, 44
1, 127656, Note_off_c, 0, 71, 57
1, 127660, Note_off_c, 0, 51, 43
1, 127662, Note_off_c, 0, 59, 42
1, 128152, Control_c, 0, 64, 8
1, 128167, Control_c, 0, 64, 30
1, 128182, Control_c, 0, 64, 42
1, 128197, Control_c, 0, 64, 53
1, 128212, Control_c, 0, 64, 58
1, 128226, Control_c, 0, 64, 61
1, 128241, Control_c, 0, 64, 63
1, 128256, Control_c, 0, 64, 64
1, 128270, Control_c, 0, 64, 65
1, 128285, Control_c, 0, 64, 66
1, 128300, Control_c, 0, 64, 68
1, 128315, Control_c, 0, 64, 70
1, 128330, Control_c, 0, 64, 73
1, 128345, Control_c, 0, 64, 76
1, 128360, Control_c, 0, 64, 79
1, 128375, Control_c, 0, 64, 82
1, 128390, Control_c, 0, 64, 84
1, 128405, Control_c, 0, 64, 86
1, 128419, Control_c, 0, 64, 88
1, 128434, Control_c, 0, 64, 91
1, 128449, Control_c, 0, 64, 94
1, 128464, Control_c, 0, 64, 97
1, 128478, Control_c, 0, 64, 101
1, 128493, Control_c, 0, 64, 104
1, 128508, Control_c, 0, 64, 108
1, 128524, Control_c, 0, 64, 113
1, 128539, Control_c, 0, 64, 119
1, 128561, Control_c, 0, 64, 127
1, 129254, Note_on_c, 0, 78, 55
1, 129277, Note_on_c, 0, 73, 41
1, 129280, Note_on_c, 0, 69, 37
1, 129976, Note_on_c, 0, 80, 63
1, 130080, Note_off_c, 0, 78, 53
1, 130194, Note_on_c, 0, 81, 67
1, 130210, Note_on_c, 0, 77, 50
1, 130214, Note_off_c, 0, 80, 62
1, 130224, Note_on_c, 0, 74, 45
1, 130227, Note_on_c, 0, 71, 48
1, 130248, Note_off_c, 0, 69, 32
1, 130252, Control_c, 0, 64, 115
1, 130267, Control_c, 0, 64, 98
1, 130282, Control_c, 0, 64, 82
1, 130290, Note_off_c, 0, 73, 47
1, 130296, Control_c, 0, 64, 69
1, 130311, Control_c, 0, 64, 52
1, 130313, Note_off_c, 0, 81, 65
1, 130326, Control_c, 0, 64, 0
1, 130330, Note_on_c, 0, 80, 66
1, 130355, Control_c, 0, 64, 42
1, 130370, Control_c, 0, 64, 61
1, 130378, Note_off_c, 0, 80, 65
1, 130385, Control_c, 0, 64, 71
1, 130399, Note_on_c, 0, 81, 60
1, 130400, Control_c, 0, 64, 82
1, 130415, Control_c, 0, 64, 98
1, 130429, Control_c, 0, 64, 127
1, 130447, Note_off_c, 0, 81, 65
1, 130464, Note_on_c, 0, 80, 53
1, 130488, Note_on_c, 0, 81, 54
1, 130488, Note_off_c, 0, 80, 60
1, 130542, Note_off_c, 0, 81, 65
1, 130568, Note_on_c, 0, 80, 52
1, 130590, Note_off_c, 0, 80, 60
1, 130608, Note_on_c, 0, 81, 43
1, 130642, Note_off_c, 0, 81, 52
1, 130694, Note_on_c, 0, 81, 45
1, 130722, Poly_aftertouch_c, 0, 80, 127
1, 130757, Note_off_c, 0, 81, 61
1, 130825, Note_off_c, 0, 77, 37
1, 130846, Poly_aftertouch_c, 0, 80, 0
1, 130855, Note_on_c, 0, 78, 51
1, 130935, Note_off_c, 0, 78, 50
1, 130948, Note_on_c, 0, 81, 51
1, 131019, Note_off_c, 0, 81, 57
1, 131038, Note_on_c, 0, 80, 51
1, 131140, Note_off_c, 0, 80, 56
1, 131163, Control_c, 0, 64, 113
1, 131168, Note_on_c, 0, 78, 44
1, 131177, Control_c, 0, 64, 107
1, 131187, Note_on_c, 0, 73, 38
1, 131192, Control_c, 0, 64, 102
1, 131198, Note_on_c, 0, 69, 36
1, 131207, Control_c, 0, 64, 96
1, 131222, Control_c, 0, 64, 89
1, 131227, Note_off_c, 0, 74, 39
1, 131237, Control_c, 0, 64, 80
1, 131251, Control_c, 0, 64, 72
1, 131259, Note_off_c, 0, 71, 43
1, 131266, Control_c, 0, 64, 64
1, 131281, Control_c, 0, 64, 53
1, 131296, Control_c, 0, 64, 33
1, 131311, Control_c, 0, 64, 0
1, 131793, Note_off_c, 0, 69, 52
1, 131806, Note_off_c, 0, 73, 48
1, 131818, Note_off_c, 0, 78, 55
1, 132268, Control_c, 0, 64, 12
1, 132283, Control_c, 0, 64, 17
1, 132305, Control_c, 0, 64, 21
1, 132319, Control_c, 0, 64, 24
1, 132334, Control_c, 0, 64, 28
1, 132349, Control_c, 0, 64, 33
1, 132364, Control_c, 0, 64, 36
1, 132379, Control_c, 0, 64, 39
1, 132393, Control_c, 0, 64, 42
1, 132408, Control_c, 0, 64, 45
1, 132423, Control_c, 0, 64, 48
1, 132438, Control_c, 0, 64, 51
1, 132453, Control_c, 0, 64, 54
1, 132468, Control_c, 0, 64, 57
1, 132482, Control_c, 0, 64, 59
1, 132497, Control_c, 0, 64, 61
1, 132512, Control_c, 0, 64, 62
1, 132528, Control_c, 0, 64, 63
1, 132542, Control_c, 0, 64, 65
1, 132557, Control_c, 0, 64, 66
1, 132572, Control_c, 0, 64, 69
1, 132587, Control_c, 0, 64, 72
1, 132602, Control_c, 0, 64, 75
1, 132617, Control_c, 0, 64, 78
1, 132632, Control_c, 0, 64, 81
1, 132646, Control_c, 0, 64, 85
1, 132661, Control_c, 0, 64, 88
1, 132676, Control_c, 0, 64, 91
1, 132691, Control_c, 0, 64, 94
1, 132706, Control_c, 0, 64, 98
1, 132721, Control_c, 0, 64, 102
1, 132736, Control_c, 0, 64, 108
1, 132750, Control_c, 0, 64, 117
1, 132765, Control_c, 0, 64, 127
1, 133296, Note_on_c, 0, 64, 56
1, 133319, Note_on_c, 0, 59, 43
1, 133328, Note_on_c, 0, 56, 44
1, 134036, Note_on_c, 0, 66, 58
1, 134043, Note_off_c, 0, 64, 61
1, 134255, Note_on_c, 0, 68, 60
1, 134272, Note_on_c, 0, 63, 48
1, 134275, Note_off_c, 0, 66, 55
1, 134286, Note_on_c, 0, 57, 54
1, 134298, Note_on_c, 0, 60, 52
1, 134306, Control_c, 0, 64, 114
1, 134320, Control_c, 0, 64, 104
1, 134335, Control_c, 0, 64, 96
1, 134350, Control_c, 0, 64, 87
1, 134365, Control_c, 0, 64, 76
1, 134372, Note_off_c, 0, 59, 62
1, 134380, Control_c, 0, 64, 65
1, 134394, Control_c, 0, 64, 47
1, 134399, Note_off_c, 0, 56, 34
1, 134409, Control_c, 0, 64, 10
1, 134410, Note_off_c, 0, 68, 64
1, 134414, Note_on_c, 0, 66, 58
1, 134424, Control_c, 0, 64, 16
1, 134439, Control_c, 0, 64, 43
1, 134454, Control_c, 0, 64, 61
1, 134468, Control_c, 0, 64, 68
1, 134477, Note_off_c, 0, 66, 63
1, 134483, Control_c, 0, 64, 76
1, 134486, Note_on_c, 0, 68, 61
1, 134498, Control_c, 0, 64, 86
1, 134512, Control_c, 0, 64, 99
1, 134527, Control_c, 0, 64, 114
1, 134550, Control_c, 0, 64, 127
1, 134556, Note_off_c, 0, 68, 65
1, 134560, Note_on_c, 0, 66, 57
1, 134603, Note_on_c, 0, 68, 50
1, 134605, Note_off_c, 0, 66, 57
1, 134644, Note_off_c, 0, 68, 64
1, 134650, Note_on_c, 0, 66, 40
1, 134688, Note_off_c, 0, 66, 64
1, 134704, Note_on_c, 0, 68, 55
1, 134767, Note_on_c, 0, 66, 68
1, 134773, Note_off_c, 0, 68, 55
1, 134834, Note_off_c, 0, 66, 61
1, 134839, Note_on_c, 0, 64, 62
1, 134908, Note_on_c, 0, 68, 62
1, 134915, Note_off_c, 0, 64, 59
1, 134960, Note_off_c, 0, 63, 61
1, 134963, Note_on_c, 0, 66, 62
1, 134966, Control_c, 0, 64, 113
1, 134980, Control_c, 0, 64, 105
1, 134995, Control_c, 0, 64, 99
1, 134996, Note_off_c, 0, 68, 53
1, 135010, Control_c, 0, 64, 93
1, 135025, Control_c, 0, 64, 87
1, 135040, Control_c, 0, 64, 77
1, 135047, Note_off_c, 0, 66, 58
1, 135051, Note_on_c, 0, 64, 62
1, 135052, Note_off_c, 0, 60, 37
1, 135055, Control_c, 0, 64, 67
1, 135069, Control_c, 0, 64, 50
1, 135078, Note_on_c, 0, 59, 49
1, 135079, Note_on_c, 0, 56, 45
1, 135084, Control_c, 0, 64, 0
1, 135102, Note_off_c, 0, 57, 38
1, 135188, Control_c, 0, 64, 37
1, 135203, Control_c, 0, 64, 66
1, 135217, Control_c, 0, 64, 79
1, 135232, Control_c, 0, 64, 109
1, 135247, Control_c, 0, 64, 127
1, 135249, Note_off_c, 0, 59, 62
1, 135264, Note_off_c, 0, 64, 63
1, 135290, Note_off_c, 0, 56, 63
1, 135620, Note_on_c, 0, 69, 65
1, 135637, Note_on_c, 0, 61, 52
1, 135642, Note_on_c, 0, 42, 64
1, 135650, Note_on_c, 0, 57, 47
1, 135667, Note_on_c, 0, 54, 47
1, 135804, Control_c, 0, 64, 117
1, 135819, Control_c, 0, 64, 97
1, 135833, Control_c, 0, 64, 82
1, 135848, Control_c, 0, 64, 68
1, 135863, Control_c, 0, 64, 41
1, 135878, Control_c, 0, 64, 0
1, 135922, Control_c, 0, 64, 34
1, 135937, Control_c, 0, 64, 59
1, 135952, Control_c, 0, 64, 68
1, 135967, Control_c, 0, 64, 77
1, 135982, Control_c, 0, 64, 92
1, 135997, Control_c, 0, 64, 110
1, 136012, Control_c, 0, 64, 127
1, 136030, Note_off_c, 0, 54, 56
1, 136128, Note_off_c, 0, 61, 59
1, 136161, Note_off_c, 0, 57, 53
1, 136438, Note_on_c, 0, 66, 59
1, 136467, Note_on_c, 0, 45, 52
1, 136474, Note_on_c, 0, 61, 46
1, 136483, Note_on_c, 0, 57, 48
1, 136507, Note_off_c, 0, 69, 54
1, 136507, Control_c, 0, 64, 108
1, 136523, Control_c, 0, 64, 91
1, 136538, Note_off_c, 0, 42, 45
1, 136538, Control_c, 0, 64, 76
1, 136553, Control_c, 0, 64, 54
1, 136568, Control_c, 0, 64, 0
1, 136627, Control_c, 0, 64, 56
1, 136642, Control_c, 0, 64, 69
1, 136656, Note_off_c, 0, 66, 60
1, 136656, Control_c, 0, 64, 85
1, 136671, Control_c, 0, 64, 121
1, 136686, Control_c, 0, 64, 127
1, 136693, Note_off_c, 0, 57, 49
1, 136743, Note_off_c, 0, 61, 38
1, 136842, Note_on_c, 0, 68, 57
1, 136920, Note_on_c, 0, 64, 59
1, 136938, Note_on_c, 0, 56, 47
1, 136939, Note_off_c, 0, 68, 61
1, 136949, Note_on_c, 0, 47, 48
1, 136998, Note_off_c, 0, 45, 32
1, 137019, Control_c, 0, 67, 127
1, 137034, Control_c, 0, 64, 102
1, 137034, Control_c, 0, 67, 125
1, 137049, Control_c, 0, 64, 89
1, 137049, Control_c, 0, 67, 123
1, 137064, Control_c, 0, 64, 77
1, 137064, Control_c, 0, 67, 121
1, 137079, Control_c, 0, 64, 64
1, 137079, Control_c, 0, 67, 119
1, 137094, Control_c, 0, 64, 32
1, 137094, Control_c, 0, 67, 116
1, 137108, Control_c, 0, 64, 0
1, 137108, Control_c, 0, 67, 111
1, 137123, Control_c, 0, 67, 108
1, 137138, Control_c, 0, 67, 104
1, 137153, Control_c, 0, 67, 99
1, 137168, Control_c, 0, 67, 94
1, 137182, Control_c, 0, 67, 89
1, 137197, Control_c, 0, 67, 83
1, 137212, Control_c, 0, 64, 35
1, 137212, Control_c, 0, 67, 79
1, 137227, Control_c, 0, 64, 61
1, 137227, Control_c, 0, 67, 76
1, 137241, Control_c, 0, 64, 68
1, 137241, Control_c, 0, 67, 72
1, 137256, Control_c, 0, 64, 77
1, 137256, Control_c, 0, 67, 62
1, 137271, Control_c, 0, 64, 89
1, 137271, Control_c, 0, 67, 48
1, 137286, Control_c, 0, 64, 104
1, 137286, Control_c, 0, 67, 32
1, 137301, Control_c, 0, 64, 127
1, 137301, Control_c, 0, 67, 19
1, 137317, Control_c, 0, 67, 14
1, 137332, Control_c, 0, 67, 13
1, 137336, Note_off_c, 0, 56, 48
1, 137406, Control_c, 0, 67, 14
1, 137420, Control_c, 0, 67, 16
1, 137435, Control_c, 0, 67, 17
1, 137450, Control_c, 0, 67, 18
1, 137464, Control_c, 0, 67, 18
1, 137479, Control_c, 0, 67, 19
1, 137494, Control_c, 0, 67, 20
1, 137509, Control_c, 0, 67, 20
1, 137524, Control_c, 0, 67, 21
1, 137561, Control_c, 0, 67, 22
1, 137606, Control_c, 0, 67, 22
1, 137635, Control_c, 0, 67, 23
1, 137679, Control_c, 0, 67, 23
1, 137806, Note_on_c, 0, 63, 38
1, 137848, Note_on_c, 0, 54, 33
1, 137849, Note_on_c, 0, 35, 32
1, 137889, Note_off_c, 0, 47, 38
1, 137901, Control_c, 0, 64, 109
1, 137916, Control_c, 0, 64, 99
1, 137929, Note_off_c, 0, 64, 36
1, 137930, Control_c, 0, 64, 89
1, 137945, Control_c, 0, 64, 79
1, 137960, Control_c, 0, 64, 68
1, 137975, Control_c, 0, 64, 50
1, 137990, Control_c, 0, 64, 0
1, 138063, Control_c, 0, 64, 44
1, 138078, Control_c, 0, 64, 64
1, 138093, Control_c, 0, 64, 73
1, 138109, Control_c, 0, 64, 87
1, 138124, Control_c, 0, 64, 107
1, 138139, Control_c, 0, 64, 127
1, 138152, Note_off_c, 0, 35, 41
1, 138172, Note_off_c, 0, 54, 49
1, 138235, Note_off_c, 0, 63, 56
1, 138428, Control_c, 0, 64, 119
1, 138442, Control_c, 0, 64, 114
1, 138457, Control_c, 0, 64, 111
1, 138472, Control_c, 0, 64, 108
1, 138486, Control_c, 0, 64, 106
1, 138501, Control_c, 0, 64, 104
1, 138516, Control_c, 0, 64, 103
1, 138531, Control_c, 0, 64, 101
1, 138531, Control_c, 0, 67, 24
1, 138546, Control_c, 0, 64, 100
1, 138561, Control_c, 0, 64, 98
1, 138575, Control_c, 0, 64, 97
1, 138590, Control_c, 0, 64, 95
1, 138606, Control_c, 0, 64, 93
1, 138621, Control_c, 0, 64, 91
1, 138635, Control_c, 0, 64, 88
1, 138650, Control_c, 0, 64, 85
1, 138665, Control_c, 0, 64, 83
1, 138680, Control_c, 0, 64, 80
1, 138695, Control_c, 0, 64, 77
1, 138710, Control_c, 0, 64, 74
1, 138710, Control_c, 0, 67, 24
1, 138724, Control_c, 0, 64, 70
1, 138739, Control_c, 0, 64, 67
1, 138754, Control_c, 0, 64, 63
1, 138754, Control_c, 0, 67, 25
1, 138769, Control_c, 0, 64, 59
1, 138769, Control_c, 0, 67, 25
1, 138784, Control_c, 0, 64, 52
1, 138784, Control_c, 0, 67, 28
1, 138799, Control_c, 0, 64, 41
1, 138799, Control_c, 0, 67, 31
1, 138813, Control_c, 0, 64, 23
1, 138813, Control_c, 0, 67, 33
1, 138828, Control_c, 0, 64, 0
1, 138828, Control_c, 0, 67, 35
1, 138843, Control_c, 0, 67, 37
1, 138858, Control_c, 0, 67, 40
1, 138873, Control_c, 0, 67, 42
1, 138887, Control_c, 0, 67, 45
1, 138903, Control_c, 0, 67, 49
1, 138918, Control_c, 0, 67, 51
1, 138933, Control_c, 0, 67, 54
1, 138948, Control_c, 0, 67, 58
1, 138962, Note_on_c, 0, 76, 56
1, 138963, Control_c, 0, 67, 61
1, 138977, Control_c, 0, 67, 64
1, 138980, Note_on_c, 0, 71, 38
1, 138992, Control_c, 0, 67, 67
1, 138998, Note_on_c, 0, 68, 30
1, 139007, Control_c, 0, 67, 68
1, 139022, Control_c, 0, 64, 12
1, 139022, Control_c, 0, 67, 69
1, 139044, Control_c, 0, 64, 44
1, 139058, Control_c, 0, 64, 59
1, 139073, Control_c, 0, 64, 65
1, 139088, Control_c, 0, 64, 70
1, 139103, Control_c, 0, 64, 76
1, 139118, Control_c, 0, 64, 84
1, 139133, Control_c, 0, 64, 94
1, 139133, Control_c, 0, 67, 68
1, 139148, Control_c, 0, 64, 104
1, 139163, Control_c, 0, 64, 118
1, 139163, Control_c, 0, 67, 68
1, 139178, Control_c, 0, 64, 127
1, 139178, Control_c, 0, 67, 67
1, 139192, Control_c, 0, 67, 67
1, 139251, Control_c, 0, 67, 66
1, 139281, Control_c, 0, 67, 66
1, 139310, Control_c, 0, 67, 65
1, 139325, Control_c, 0, 67, 65
1, 139355, Control_c, 0, 67, 64
1, 139370, Control_c, 0, 67, 63
1, 139399, Control_c, 0, 67, 63
1, 139473, Control_c, 0, 67, 62
1, 139577, Control_c, 0, 67, 63
1, 139666, Control_c, 0, 67, 63
1, 139741, Note_on_c, 0, 78, 49
1, 139756, Control_c, 0, 67, 64
1, 139774, Note_off_c, 0, 76, 55
1, 139807, Control_c, 0, 67, 64
1, 139837, Control_c, 0, 67, 65
1, 139866, Control_c, 0, 67, 65
1, 139896, Control_c, 0, 67, 66
1, 139941, Control_c, 0, 67, 66
1, 139985, Control_c, 0, 67, 67
1, 140007, Note_off_c, 0, 78, 55
1, 140012, Note_on_c, 0, 80, 49
1, 140029, Note_on_c, 0, 72, 48
1, 140036, Note_on_c, 0, 75, 37
1, 140045, Control_c, 0, 67, 67
1, 140047, Note_on_c, 0, 69, 42
1, 140059, Control_c, 0, 64, 114
1, 140074, Control_c, 0, 64, 97
1, 140085, Note_off_c, 0, 71, 34
1, 140089, Control_c, 0, 64, 84
1, 140089, Control_c, 0, 67, 68
1, 140104, Control_c, 0, 64, 73
1, 140119, Control_c, 0, 64, 62
1, 140121, Note_off_c, 0, 68, 39
1, 140133, Control_c, 0, 64, 49
1, 140133, Control_c, 0, 67, 68
1, 140148, Control_c, 0, 64, 51
1, 140153, Note_off_c, 0, 80, 61
1, 140163, Control_c, 0, 64, 62
1, 140169, Note_on_c, 0, 78, 53
1, 140178, Control_c, 0, 64, 68
1, 140193, Control_c, 0, 64, 76
1, 140207, Control_c, 0, 64, 87
1, 140222, Control_c, 0, 64, 100
1, 140224, Note_off_c, 0, 78, 61
1, 140237, Control_c, 0, 64, 118
1, 140237, Control_c, 0, 67, 69
1, 140244, Note_on_c, 0, 80, 59
1, 140252, Control_c, 0, 64, 127
1, 140310, Note_off_c, 0, 80, 55
1, 140320, Note_on_c, 0, 78, 55
1, 140345, Note_on_c, 0, 80, 39
1, 140349, Note_off_c, 0, 78, 59
1, 140397, Note_off_c, 0, 80, 63
1, 140418, Note_on_c, 0, 78, 59
1, 140430, Control_c, 0, 67, 69
1, 140450, Note_off_c, 0, 78, 66
1, 140468, Note_on_c, 0, 80, 63
1, 140489, Control_c, 0, 67, 70
1, 140519, Control_c, 0, 67, 70
1, 140542, Control_c, 0, 67, 72
1, 140553, Note_on_c, 0, 78, 64
1, 140555, Note_off_c, 0, 80, 60
1, 140556, Control_c, 0, 67, 74
1, 140571, Control_c, 0, 67, 75
1, 140586, Control_c, 0, 67, 77
1, 140601, Control_c, 0, 67, 78
1, 140616, Control_c, 0, 67, 79
1, 140630, Control_c, 0, 67, 80
1, 140635, Note_off_c, 0, 78, 60
1, 140645, Control_c, 0, 67, 81
1, 140648, Note_on_c, 0, 76, 57
1, 140660, Control_c, 0, 67, 82
1, 140675, Control_c, 0, 67, 83
1, 140689, Control_c, 0, 67, 84
1, 140704, Control_c, 0, 67, 86
1, 140719, Note_off_c, 0, 76, 60
1, 140719, Control_c, 0, 67, 87
1, 140724, Note_on_c, 0, 80, 57
1, 140734, Control_c, 0, 67, 89
1, 140749, Control_c, 0, 67, 90
1, 140763, Control_c, 0, 67, 91
1, 140778, Control_c, 0, 67, 93
1, 140793, Control_c, 0, 67, 95
1, 140798, Note_off_c, 0, 80, 56
1, 140799, Note_on_c, 0, 78, 62
1, 140808, Control_c, 0, 67, 97
1, 140823, Control_c, 0, 67, 98
1, 140826, Note_off_c, 0, 75, 42
1, 140838, Control_c, 0, 67, 100
1, 140853, Control_c, 0, 67, 102
1, 140868, Control_c, 0, 67, 103
1, 140882, Control_c, 0, 67, 105
1, 140897, Control_c, 0, 64, 113
1, 140897, Control_c, 0, 67, 106
1, 140902, Note_off_c, 0, 78, 60
1, 140912, Control_c, 0, 64, 100
1, 140912, Control_c, 0, 67, 107
1, 140914, Note_on_c, 0, 76, 60
1, 140922, Note_off_c, 0, 72, 40
1, 140927, Control_c, 0, 64, 87
1, 140927, Control_c, 0, 67, 107
1, 140934, Note_on_c, 0, 71, 43
1, 140942, Control_c, 0, 64, 75
1, 140942, Control_c, 0, 67, 108
1, 140943, Note_on_c, 0, 68, 38
1, 140956, Control_c, 0, 64, 62
1, 140971, Control_c, 0, 64, 0
1, 140999, Note_off_c, 0, 69, 45
1, 141015, Control_c, 0, 67, 107
1, 141030, Control_c, 0, 67, 107
1, 141045, Control_c, 0, 67, 106
1, 141060, Control_c, 0, 67, 105
1, 141075, Control_c, 0, 64, 38
1, 141075, Control_c, 0, 67, 105
1, 141089, Control_c, 0, 64, 63
1, 141089, Control_c, 0, 67, 104
1, 141104, Control_c, 0, 64, 72
1, 141104, Control_c, 0, 67, 104
1, 141119, Control_c, 0, 64, 88
1, 141134, Note_off_c, 0, 71, 62
1, 141134, Control_c, 0, 64, 108
1, 141134, Control_c, 0, 67, 103
1, 141149, Control_c, 0, 64, 127
1, 141181, Note_off_c, 0, 76, 62
1, 141182, Note_off_c, 0, 68, 63
1, 141667, Note_on_c, 0, 81, 53
1, 141699, Note_on_c, 0, 73, 40
1, 141700, Note_on_c, 0, 69, 46
1, 141705, Control_c, 0, 67, 103
1, 141720, Note_on_c, 0, 54, 36
1, 141779, Control_c, 0, 64, 116
1, 141794, Control_c, 0, 64, 101
1, 141809, Control_c, 0, 64, 90
1, 141824, Control_c, 0, 64, 78
1, 141838, Control_c, 0, 64, 67
1, 141853, Control_c, 0, 64, 50
1, 141868, Control_c, 0, 64, 0
1, 141942, Control_c, 0, 64, 48
1, 141957, Control_c, 0, 64, 64
1, 141972, Control_c, 0, 64, 73
1, 141986, Control_c, 0, 64, 86
1, 142001, Control_c, 0, 64, 103
1, 142016, Control_c, 0, 64, 127
1, 142177, Note_off_c, 0, 73, 45
1, 142197, Note_off_c, 0, 69, 37
1, 142241, Note_off_c, 0, 81, 52
1, 142631, Note_on_c, 0, 78, 48
1, 142650, Note_on_c, 0, 73, 36
1, 142652, Note_on_c, 0, 57, 36
1, 142655, Note_on_c, 0, 69, 32
1, 142706, Control_c, 0, 64, 114
1, 142719, Note_off_c, 0, 54, 32
1, 142721, Control_c, 0, 64, 93
1, 142735, Control_c, 0, 64, 74
1, 142735, Control_c, 0, 67, 103
1, 142750, Control_c, 0, 64, 58
1, 142765, Control_c, 0, 64, 0
1, 142802, Control_c, 0, 64, 49
1, 142817, Control_c, 0, 64, 65
1, 142821, Note_off_c, 0, 78, 50
1, 142832, Control_c, 0, 64, 76
1, 142847, Control_c, 0, 64, 92
1, 142861, Control_c, 0, 64, 122
1, 142876, Control_c, 0, 64, 127
1, 142910, Note_off_c, 0, 69, 44
1, 142934, Note_off_c, 0, 73, 32
1, 142944, Note_off_c, 0, 57, 32
1, 143017, Note_on_c, 0, 80, 49
1, 143092, Note_off_c, 0, 80, 57
1, 143118, Note_on_c, 0, 76, 52
1, 143143, Note_on_c, 0, 68, 45
1, 143148, Note_on_c, 0, 59, 39
1, 143188, Control_c, 0, 64, 118
1, 143203, Control_c, 0, 64, 99
1, 143218, Control_c, 0, 64, 87
1, 143232, Control_c, 0, 64, 75
1, 143247, Control_c, 0, 64, 62
1, 143262, Control_c, 0, 64, 21
1, 143277, Control_c, 0, 64, 0
1, 143366, Control_c, 0, 64, 46
1, 143381, Control_c, 0, 64, 62
1, 143395, Control_c, 0, 64, 70
1, 143410, Control_c, 0, 64, 77
1, 143425, Control_c, 0, 64, 87
1, 143440, Control_c, 0, 64, 97
1, 143455, Control_c, 0, 64, 105
1, 143469, Control_c, 0, 64, 113
1, 143484, Control_c, 0, 64, 120
1, 143499, Control_c, 0, 64, 127
1, 143527, Note_off_c, 0, 68, 56
1, 143774, Control_c, 0, 67, 104
1, 143848, Control_c, 0, 67, 104
1, 144055, Control_c, 0, 67, 105
1, 144093, Note_off_c, 0, 59, 29
1, 144104, Note_on_c, 0, 75, 31
1, 144121, Note_on_c, 0, 66, 29
1, 144126, Note_on_c, 0, 47, 27
1, 144159, Control_c, 0, 64, 105
1, 144174, Control_c, 0, 64, 91
1, 144174, Control_c, 0, 67, 105
1, 144188, Control_c, 0, 64, 77
1, 144200, Note_off_c, 0, 76, 37
1, 144203, Control_c, 0, 64, 64
1, 144218, Control_c, 0, 64, 35
1, 144233, Control_c, 0, 64, 0
1, 144263, Control_c, 0, 64, 38
1, 144285, Control_c, 0, 64, 60
1, 144299, Control_c, 0, 64, 69
1, 144314, Control_c, 0, 64, 81
1, 144329, Control_c, 0, 64, 98
1, 144344, Control_c, 0, 64, 127
1, 144356, Note_off_c, 0, 47, 50
1, 144427, Note_off_c, 0, 66, 42
1, 144435, Note_off_c, 0, 75, 41
1, 144493, Control_c, 0, 67, 106
1, 144785, Note_on_c, 0, 47, 67
1, 144819, Control_c, 0, 64, 109
1, 144834, Control_c, 0, 64, 88
1, 144848, Control_c, 0, 64, 72
1, 144863, Control_c, 0, 64, 56
1, 144878, Control_c, 0, 64, 0
1, 144922, Control_c, 0, 64, 43
1, 144937, Control_c, 0, 64, 62
1, 144952, Control_c, 0, 64, 70
1, 144967, Control_c, 0, 64, 81
1, 144967, Control_c, 0, 67, 105
1, 144982, Control_c, 0, 64, 96
1, 144996, Control_c, 0, 64, 118
1, 145011, Control_c, 0, 64, 127
1, 145230, Note_on_c, 0, 43, 65
1, 145320, Note_on_c, 0, 71, 50
1, 145324, Note_on_c, 0, 40, 64
1, 145331, Control_c, 0, 64, 117
1, 145337, Note_off_c, 0, 43, 55
1, 145346, Control_c, 0, 64, 93
1, 145361, Control_c, 0, 64, 75
1, 145372, Note_off_c, 0, 71, 60
1, 145376, Control_c, 0, 64, 57
1, 145387, Note_off_c, 0, 47, 51
1, 145391, Control_c, 0, 64, 0
1, 145413, Note_on_c, 0, 67, 45
1, 145450, Control_c, 0, 64, 47
1, 145452, Note_off_c, 0, 67, 61
1, 145465, Control_c, 0, 64, 62
1, 145479, Control_c, 0, 64, 68
1, 145494, Control_c, 0, 64, 78
1, 145495, Note_on_c, 0, 71, 41
1, 145509, Control_c, 0, 64, 89
1, 145524, Note_off_c, 0, 71, 55
1, 145524, Control_c, 0, 64, 100
1, 145539, Control_c, 0, 64, 109
1, 145554, Control_c, 0, 64, 116
1, 145556, Note_on_c, 0, 67, 51
1, 145569, Control_c, 0, 64, 120
1, 145584, Control_c, 0, 64, 122
1, 145585, Note_off_c, 0, 67, 61
1, 145605, Note_on_c, 0, 71, 61
1, 145613, Control_c, 0, 64, 125
1, 145628, Control_c, 0, 64, 127
1, 145643, Note_off_c, 0, 71, 62
1, 145666, Note_on_c, 0, 67, 62
1, 145712, Note_off_c, 0, 67, 57
1, 145748, Note_on_c, 0, 71, 60
1, 145761, Control_c, 0, 67, 105
1, 145790, Note_off_c, 0, 71, 65
1, 145828, Note_on_c, 0, 67, 48
1, 145857, Note_off_c, 0, 67, 57
1, 145886, Note_on_c, 0, 71, 57
1, 145922, Note_off_c, 0, 71, 65
1, 145947, Note_on_c, 0, 67, 58
1, 145981, Note_off_c, 0, 67, 60
1, 146029, Note_on_c, 0, 71, 51
1, 146057, Note_off_c, 0, 71, 59
1, 146092, Note_on_c, 0, 67, 57
1, 146109, Control_c, 0, 67, 104
1, 146123, Note_off_c, 0, 67, 63
1, 146139, Note_on_c, 0, 71, 64
1, 146180, Note_off_c, 0, 71, 60
1, 146210, Note_on_c, 0, 67, 60
1, 146245, Note_off_c, 0, 67, 63
1, 146280, Note_on_c, 0, 71, 54
1, 146315, Note_off_c, 0, 71, 64
1, 146343, Note_on_c, 0, 67, 54
1, 146375, Note_off_c, 0, 67, 63
1, 146397, Note_on_c, 0, 71, 60
1, 146436, Note_off_c, 0, 71, 58
1, 146484, Note_on_c, 0, 67, 53
1, 146514, Note_off_c, 0, 67, 63
1, 146515, Note_on_c, 0, 43, 67
1, 146564, Note_on_c, 0, 71, 49
1, 146595, Note_off_c, 0, 71, 56
1, 146615, Note_on_c, 0, 67, 54
1, 146657, Note_off_c, 0, 67, 61
1, 146690, Note_on_c, 0, 71, 57
1, 146730, Note_off_c, 0, 71, 64
1, 146769, Control_c, 0, 67, 104
1, 146770, Note_on_c, 0, 67, 50
1, 146794, Note_off_c, 0, 67, 62
1, 146816, Note_on_c, 0, 71, 61
1, 146827, Control_c, 0, 67, 103
1, 146847, Note_on_c, 0, 47, 66
1, 146852, Note_off_c, 0, 71, 59
1, 146859, Note_off_c, 0, 40, 38
1, 146871, Control_c, 0, 67, 103
1, 146880, Note_on_c, 0, 67, 57
1, 146905, Note_off_c, 0, 43, 60
1, 146916, Control_c, 0, 67, 102
1, 146918, Note_off_c, 0, 67, 61
1, 146926, Note_on_c, 0, 52, 77
1, 146928, Note_off_c, 0, 47, 64
1, 146931, Control_c, 0, 64, 94
1, 146931, Control_c, 0, 67, 102
1, 146946, Control_c, 0, 64, 74
1, 146946, Control_c, 0, 67, 101
1, 146955, Note_on_c, 0, 71, 57
1, 146961, Control_c, 0, 64, 52
1, 146961, Control_c, 0, 67, 101
1, 146976, Control_c, 0, 64, 0
1, 146976, Control_c, 0, 67, 100
1, 146991, Control_c, 0, 67, 98
1, 146992, Note_off_c, 0, 71, 65
1, 147005, Control_c, 0, 64, 34
1, 147005, Control_c, 0, 67, 97
1, 147020, Control_c, 0, 64, 63
1, 147020, Control_c, 0, 67, 96
1, 147029, Note_on_c, 0, 67, 51
1, 147035, Control_c, 0, 64, 74
1, 147035, Control_c, 0, 67, 94
1, 147050, Control_c, 0, 64, 90
1, 147050, Control_c, 0, 67, 90
1, 147053, Note_off_c, 0, 67, 58
1, 147065, Control_c, 0, 64, 127
1, 147065, Control_c, 0, 67, 84
1, 147072, Note_on_c, 0, 71, 63
1, 147080, Control_c, 0, 67, 75
1, 147095, Control_c, 0, 67, 65
1, 147107, Note_off_c, 0, 71, 62
1, 147110, Control_c, 0, 67, 54
1, 147124, Control_c, 0, 67, 45
1, 147131, Note_on_c, 0, 67, 67
1, 147139, Control_c, 0, 67, 38
1, 147154, Control_c, 0, 67, 32
1, 147169, Control_c, 0, 67, 27
1, 147172, Note_off_c, 0, 67, 57
1, 147184, Control_c, 0, 67, 25
1, 147198, Control_c, 0, 67, 23
1, 147205, Note_on_c, 0, 71, 62
1, 147213, Control_c, 0, 67, 20
1, 147228, Control_c, 0, 67, 19
1, 147233, Note_off_c, 0, 71, 65
1, 147242, Control_c, 0, 67, 17
1, 147257, Control_c, 0, 67, 15
1, 147280, Note_on_c, 0, 67, 58
1, 147280, Control_c, 0, 67, 12
1, 147295, Control_c, 0, 67, 10
1, 147310, Control_c, 0, 67, 0
1, 147314, Note_off_c, 0, 67, 64
1, 147336, Note_on_c, 0, 55, 74
1, 147341, Note_on_c, 0, 71, 62
1, 147377, Note_off_c, 0, 71, 65
1, 147399, Note_on_c, 0, 67, 63
1, 147439, Note_off_c, 0, 67, 62
1, 147451, Note_on_c, 0, 71, 65
1, 147500, Note_off_c, 0, 71, 56
1, 147526, Note_on_c, 0, 67, 65
1, 147554, Note_off_c, 0, 67, 65
1, 147560, Note_off_c, 0, 52, 31
1, 147593, Note_on_c, 0, 71, 56
1, 147626, Note_off_c, 0, 71, 66
1, 147655, Note_on_c, 0, 67, 59
1, 147663, Note_on_c, 0, 59, 78
1, 147687, Note_off_c, 0, 67, 65
1, 147696, Note_off_c, 0, 55, 59
1, 147705, Note_on_c, 0, 71, 69
1, 147730, Note_off_c, 0, 59, 62
1, 147733, Note_on_c, 0, 64, 88
1, 147743, Note_off_c, 0, 71, 56
1, 147754, Control_c, 0, 64, 94
1, 147769, Control_c, 0, 64, 73
1, 147775, Note_on_c, 0, 67, 57
1, 147784, Control_c, 0, 64, 65
1, 147799, Control_c, 0, 64, 68
1, 147810, Note_off_c, 0, 67, 62
1, 147813, Control_c, 0, 64, 76
1, 147828, Control_c, 0, 64, 93
1, 147843, Control_c, 0, 64, 127
1, 147846, Note_on_c, 0, 71, 65
1, 147875, Note_off_c, 0, 71, 67
1, 147894, Note_on_c, 0, 67, 63
1, 147930, Note_off_c, 0, 67, 60
1, 147953, Note_on_c, 0, 71, 70
1, 147966, Note_off_c, 0, 64, 52
1, 147999, Note_off_c, 0, 71, 54
1, 148040, Note_on_c, 0, 67, 64
1, 148070, Note_off_c, 0, 67, 65
1, 148095, Note_on_c, 0, 71, 72
1, 148129, Note_off_c, 0, 71, 60
1, 148131, Note_on_c, 0, 64, 96
1, 148148, Note_on_c, 0, 67, 67
1, 148172, Note_off_c, 0, 64, 69
1, 148183, Note_off_c, 0, 67, 59
1, 148204, Note_on_c, 0, 71, 76
1, 148254, Note_off_c, 0, 71, 61
1, 148279, Note_on_c, 0, 67, 61
1, 148303, Note_off_c, 0, 67, 63
1, 148314, Note_on_c, 0, 71, 74
1, 148365, Note_off_c, 0, 71, 62
1, 148377, Note_on_c, 0, 67, 56
1, 148398, Note_off_c, 0, 67, 60
1, 148412, Note_on_c, 0, 71, 69
1, 148465, Note_on_c, 0, 67, 76
1, 148467, Note_off_c, 0, 71, 62
1, 148526, Note_off_c, 0, 67, 61
1, 148590, Note_on_c, 0, 65, 109
1, 148651, Control_c, 0, 64, 97
1, 148666, Control_c, 0, 64, 69
1, 148681, Control_c, 0, 64, 0
1, 148740, Control_c, 0, 64, 50
1, 148755, Control_c, 0, 64, 71
1, 148775, Note_on_c, 0, 67, 69
1, 148777, Control_c, 0, 64, 92
1, 148792, Control_c, 0, 64, 127
1, 148817, Note_off_c, 0, 65, 52
1, 148823, Note_off_c, 0, 67, 60
1, 148842, Note_on_c, 0, 71, 67
1, 148892, Note_off_c, 0, 71, 55
1, 148904, Note_on_c, 0, 67, 57
1, 148962, Note_off_c, 0, 67, 62
1, 148967, Note_on_c, 0, 65, 59
1, 149025, Note_off_c, 0, 65, 58
1, 149028, Note_on_c, 0, 62, 63
1, 149087, Note_on_c, 0, 65, 50
1, 149099, Note_off_c, 0, 62, 59
1, 149135, Note_off_c, 0, 65, 62
1, 149155, Note_on_c, 0, 67, 66
1, 149197, Note_off_c, 0, 67, 58
1, 149226, Note_on_c, 0, 65, 50
1, 149267, Note_off_c, 0, 65, 48
1, 149296, Note_on_c, 0, 62, 67
1, 149350, Note_off_c, 0, 62, 61
1, 149370, Note_on_c, 0, 59, 60
1, 149413, Note_on_c, 0, 62, 65
1, 149432, Note_off_c, 0, 59, 62
1, 149466, Note_off_c, 0, 62, 61
1, 149500, Note_on_c, 0, 65, 61
1, 149546, Note_off_c, 0, 65, 59
1, 149563, Note_on_c, 0, 62, 63
1, 149613, Note_off_c, 0, 62, 60
1, 149632, Note_on_c, 0, 59, 74
1, 149697, Note_off_c, 0, 59, 59
1, 149716, Note_on_c, 0, 55, 66
1, 149717, Note_on_c, 0, 71, 78
1, 149776, Note_on_c, 0, 59, 59
1, 149783, Note_off_c, 0, 55, 57
1, 149809, Note_off_c, 0, 59, 60
1, 149852, Note_on_c, 0, 62, 56
1, 149887, Note_off_c, 0, 62, 64
1, 149903, Note_on_c, 0, 59, 71
1, 149962, Note_off_c, 0, 59, 60
1, 149981, Note_on_c, 0, 55, 69
1, 150031, Note_on_c, 0, 74, 81
1, 150064, Note_off_c, 0, 71, 65
1, 150066, Note_off_c, 0, 55, 56
1, 150077, Note_on_c, 0, 53, 68
1, 150094, Note_on_c, 0, 79, 95
1, 150127, Note_off_c, 0, 74, 63
1, 150142, Note_on_c, 0, 55, 67
1, 150147, Note_off_c, 0, 53, 63
1, 150177, Note_off_c, 0, 55, 59
1, 150202, Note_off_c, 0, 79, 67
1, 150210, Note_on_c, 0, 59, 73
1, 150273, Note_on_c, 0, 55, 78
1, 150274, Note_off_c, 0, 59, 57
1, 150335, Note_off_c, 0, 55, 62
1, 150342, Note_on_c, 0, 53, 75
1, 150427, Note_on_c, 0, 50, 80
1, 150427, Note_off_c, 0, 53, 65
1, 150466, Note_on_c, 0, 83, 100
1, 150482, Note_on_c, 0, 53, 70
1, 150522, Note_off_c, 0, 83, 60
1, 150526, Note_off_c, 0, 50, 60
1, 150537, Note_off_c, 0, 53, 62
1, 150562, Note_on_c, 0, 55, 76
1, 150615, Note_off_c, 0, 55, 60
1, 150616, Note_on_c, 0, 53, 78
1, 150692, Note_on_c, 0, 50, 76
1, 150693, Note_off_c, 0, 53, 62
1, 150740, Note_on_c, 0, 86, 86
1, 150767, Note_on_c, 0, 47, 76
1, 150767, Note_off_c, 0, 86, 63
1, 150769, Note_off_c, 0, 50, 67
1, 150799, Note_on_c, 0, 91, 104
1, 150809, Note_on_c, 0, 79, 91
1, 150814, Note_on_c, 0, 50, 72
1, 150833, Note_off_c, 0, 79, 65
1, 150865, Note_off_c, 0, 91, 62
1, 150878, Note_off_c, 0, 50, 58
1, 150899, Note_on_c, 0, 53, 68
1, 150928, Note_off_c, 0, 53, 66
1, 150941, Note_on_c, 0, 50, 67
1, 150950, Note_off_c, 0, 47, 62
1, 150968, Note_off_c, 0, 50, 67
1, 151018, Note_on_c, 0, 47, 79
1, 151092, Note_on_c, 0, 43, 91
1, 151097, Note_off_c, 0, 47, 64
1, 151176, Note_on_c, 0, 41, 87
1, 151189, Note_on_c, 0, 91, 117
1, 151189, Note_off_c, 0, 43, 62
1, 151197, Note_on_c, 0, 79, 95
1, 151215, Note_off_c, 0, 79, 67
1, 151226, Note_off_c, 0, 91, 68
1, 151266, Note_on_c, 0, 43, 91
1, 151276, Note_off_c, 0, 41, 62
1, 151295, Note_on_c, 0, 47, 79
1, 151321, Note_off_c, 0, 43, 63
1, 151379, Note_on_c, 0, 43, 81
1, 151412, Note_on_c, 0, 41, 80
1, 151417, Note_off_c, 0, 47, 61
1, 151475, Note_off_c, 0, 43, 61
1, 151495, Note_on_c, 0, 38, 84
1, 151519, Note_off_c, 0, 41, 63
1, 151539, Note_on_c, 0, 87, 19
1, 151542, Note_off_c, 0, 38, 61
1, 151581, Note_off_c, 0, 87, 35
1, 151587, Note_on_c, 0, 48, 104
1, 151588, Note_on_c, 0, 36, 105
1, 151593, Note_on_c, 0, 91, 111
1, 151596, Note_on_c, 0, 79, 105
1, 151617, Control_c, 0, 64, 71
1, 151632, Control_c, 0, 64, 0
1, 151706, Control_c, 0, 64, 24
1, 151716, Note_off_c, 0, 91, 63
1, 151721, Control_c, 0, 64, 72
1, 151726, Note_on_c, 0, 87, 88
1, 151736, Control_c, 0, 64, 91
1, 151751, Control_c, 0, 64, 127
1, 151793, Note_off_c, 0, 87, 63
1, 151796, Note_on_c, 0, 91, 91
1, 151857, Note_off_c, 0, 79, 50
1, 151864, Note_on_c, 0, 87, 72
1, 151910, Note_on_c, 0, 84, 83
1, 151947, Note_off_c, 0, 84, 61
1, 151948, Note_off_c, 0, 91, 51
1, 151975, Note_on_c, 0, 79, 76
1, 151999, Note_off_c, 0, 87, 33
1, 152044, Note_on_c, 0, 84, 71
1, 152071, Note_off_c, 0, 84, 68
1, 152096, Note_on_c, 0, 87, 82
1, 152102, Note_off_c, 0, 79, 45
1, 152151, Note_on_c, 0, 84, 72
1, 152179, Note_off_c, 0, 84, 65
1, 152186, Note_off_c, 0, 87, 56
1, 152218, Note_on_c, 0, 79, 71
1, 152281, Note_off_c, 0, 79, 66
1, 152299, Note_on_c, 0, 75, 78
1, 152346, Note_off_c, 0, 75, 58
1, 152382, Note_on_c, 0, 79, 47
1, 152404, Note_on_c, 0, 84, 74
1, 152406, Note_off_c, 0, 79, 58
1, 152470, Note_off_c, 0, 84, 58
1, 152474, Note_on_c, 0, 79, 70
1, 152529, Note_on_c, 0, 75, 73
1, 152539, Note_off_c, 0, 79, 55
1, 152577, Note_off_c, 0, 75, 58
1, 152619, Note_on_c, 0, 72, 67
1, 152651, Note_on_c, 0, 39, 87
1, 152674, Note_off_c, 0, 72, 54
1, 152689, Note_on_c, 0, 75, 64
1, 152720, Note_off_c, 0, 75, 60
1, 152772, Note_on_c, 0, 79, 58
1, 152817, Note_on_c, 0, 75, 61
1, 152863, Note_off_c, 0, 48, 49
1, 152869, Note_off_c, 0, 79, 37
1, 152890, Note_on_c, 0, 72, 75
1, 152904, Note_off_c, 0, 75, 48
1, 152919, Note_on_c, 0, 43, 93
1, 152933, Note_off_c, 0, 72, 58
1, 152962, Note_off_c, 0, 36, 57
1, 152975, Note_off_c, 0, 39, 60
1, 152981, Note_on_c, 0, 67, 69
1, 152984, Note_on_c, 0, 48, 94
1, 153010, Control_c, 0, 64, 96
1, 153014, Note_off_c, 0, 43, 63
1, 153025, Control_c, 0, 64, 67
1, 153040, Control_c, 0, 64, 0
1, 153055, Note_on_c, 0, 72, 65
1, 153086, Note_off_c, 0, 72, 66
1, 153095, Note_off_c, 0, 67, 49
1, 153099, Control_c, 0, 64, 42
1, 153108, Note_on_c, 0, 75, 69
1, 153114, Control_c, 0, 64, 70
1, 153129, Control_c, 0, 64, 88
1, 153143, Control_c, 0, 64, 127
1, 153170, Note_on_c, 0, 72, 70
1, 153200, Note_off_c, 0, 72, 66
1, 153200, Note_off_c, 0, 75, 54
1, 153247, Note_on_c, 0, 67, 66
1, 153331, Note_off_c, 0, 67, 65
1, 153361, Note_on_c, 0, 51, 86
1, 153361, Note_on_c, 0, 63, 64
1, 153393, Note_off_c, 0, 63, 67
1, 153430, Note_on_c, 0, 67, 66
1, 153461, Note_off_c, 0, 67, 65
1, 153474, Note_on_c, 0, 72, 73
1, 153542, Note_off_c, 0, 72, 62
1, 153552, Note_on_c, 0, 67, 72
1, 153625, Note_on_c, 0, 63, 76
1, 153626, Note_on_c, 0, 55, 86
1, 153653, Note_off_c, 0, 63, 68
1, 153660, Note_off_c, 0, 67, 49
1, 153674, Note_off_c, 0, 51, 61
1, 153676, Note_off_c, 0, 48, 61
1, 153692, Note_off_c, 0, 55, 57
1, 153701, Note_on_c, 0, 60, 97
1, 153704, Note_on_c, 0, 63, 89
1, 153730, Control_c, 0, 64, 121
1, 153745, Control_c, 0, 64, 84
1, 153759, Control_c, 0, 64, 55
1, 153769, Note_off_c, 0, 63, 62
1, 153774, Control_c, 0, 64, 0
1, 153778, Note_on_c, 0, 67, 62
1, 153803, Control_c, 0, 64, 60
1, 153818, Control_c, 0, 64, 78
1, 153833, Control_c, 0, 64, 127
1, 153859, Note_on_c, 0, 72, 76
1, 153887, Note_off_c, 0, 67, 0
1, 153893, Note_off_c, 0, 60, 56
1, 153900, Note_on_c, 0, 67, 44
1, 153909, Note_off_c, 0, 72, 60
1, 153960, Note_on_c, 0, 63, 82
1, 153961, Note_off_c, 0, 67, 63
1, 154017, Note_off_c, 0, 63, 63
1, 154055, Note_on_c, 0, 63, 84
1, 154071, Note_on_c, 0, 60, 102
1, 154123, Note_off_c, 0, 63, 64
1, 154134, Note_on_c, 0, 67, 67
1, 154142, Poly_aftertouch_c, 0, 71, 127
1, 154144, Note_off_c, 0, 60, 70
1, 154172, Poly_aftertouch_c, 0, 71, 0
1, 154200, Note_on_c, 0, 72, 76
1, 154207, Note_off_c, 0, 67, 62
1, 154276, Note_off_c, 0, 72, 60
1, 154278, Note_on_c, 0, 67, 56
1, 154343, Note_on_c, 0, 63, 85
1, 154400, Note_off_c, 0, 67, 38
1, 154412, Note_off_c, 0, 63, 65
1, 154452, Note_on_c, 0, 61, 104
1, 154464, Control_c, 0, 64, 104
1, 154479, Control_c, 0, 64, 65
1, 154492, Note_on_c, 0, 60, 21
1, 154494, Control_c, 0, 64, 0
1, 154521, Note_off_c, 0, 60, 31
1, 154568, Control_c, 0, 64, 46
1, 154583, Control_c, 0, 64, 76
1, 154590, Note_on_c, 0, 63, 80
1, 154598, Control_c, 0, 64, 105
1, 154613, Control_c, 0, 64, 127
1, 154635, Note_off_c, 0, 61, 56
1, 154644, Note_off_c, 0, 63, 63
1, 154672, Note_on_c, 0, 67, 69
1, 154707, Note_off_c, 0, 67, 58
1, 154729, Note_on_c, 0, 63, 65
1, 154765, Note_on_c, 0, 61, 61
1, 154779, Note_off_c, 0, 63, 58
1, 154830, Note_off_c, 0, 61, 58
1, 154835, Note_on_c, 0, 58, 68
1, 154895, Note_off_c, 0, 58, 62
1, 154907, Note_on_c, 0, 61, 52
1, 154932, Note_off_c, 0, 61, 62
1, 154956, Note_on_c, 0, 63, 67
1, 154997, Note_off_c, 0, 63, 59
1, 155007, Note_on_c, 0, 61, 68
1, 155041, Note_off_c, 0, 61, 63
1, 155055, Note_on_c, 0, 58, 69
1, 155122, Note_on_c, 0, 55, 68
1, 155122, Note_off_c, 0, 58, 62
1, 155180, Note_off_c, 0, 55, 61
1, 155201, Note_on_c, 0, 58, 61
1, 155232, Note_off_c, 0, 58, 65
1, 155266, Note_on_c, 0, 61, 60
1, 155301, Note_on_c, 0, 58, 74
1, 155304, Note_off_c, 0, 61, 58
1, 155352, Note_off_c, 0, 58, 61
1, 155354, Note_on_c, 0, 55, 69
1, 155425, Note_off_c, 0, 55, 60
1, 155439, Note_on_c, 0, 51, 66
1, 155445, Note_on_c, 0, 67, 88
1, 155523, Note_on_c, 0, 55, 69
1, 155531, Note_off_c, 0, 51, 59
1, 155582, Note_off_c, 0, 55, 62
1, 155596, Note_on_c, 0, 58, 72
1, 155656, Note_off_c, 0, 58, 57
1, 155701, Note_on_c, 0, 51, 73
1, 155756, Note_on_c, 0, 70, 89
1, 155796, Note_on_c, 0, 49, 77
1, 155802, Note_off_c, 0, 51, 60
1, 155812, Note_on_c, 0, 75, 95
1, 155838, Note_off_c, 0, 70, 66
1, 155844, Note_off_c, 0, 67, 58
1, 155868, Note_on_c, 0, 51, 66
1, 155915, Note_off_c, 0, 51, 61
1, 155935, Note_on_c, 0, 55, 67
1, 155954, Note_off_c, 0, 75, 68
1, 155958, Note_off_c, 0, 49, 36
1, 155984, Note_off_c, 0, 55, 44
1, 155987, Note_on_c, 0, 51, 73
1, 156041, Note_on_c, 0, 49, 82
1, 156053, Note_off_c, 0, 51, 61
1, 156128, Note_on_c, 0, 46, 77
1, 156142, Note_off_c, 0, 49, 57
1, 156160, Note_on_c, 0, 79, 97
1, 156192, Note_on_c, 0, 49, 68
1, 156199, Note_off_c, 0, 79, 64
1, 156243, Note_off_c, 0, 49, 61
1, 156264, Note_on_c, 0, 51, 76
1, 156270, Note_off_c, 0, 46, 38
1, 156321, Note_off_c, 0, 51, 60
1, 156323, Note_on_c, 0, 49, 70
1, 156375, Note_on_c, 0, 46, 76
1, 156377, Note_off_c, 0, 49, 63
1, 156422, Note_on_c, 0, 82, 88
1, 156441, Note_on_c, 0, 43, 85
1, 156459, Note_off_c, 0, 46, 52
1, 156480, Note_off_c, 0, 82, 0
1, 156489, Note_on_c, 0, 87, 101
1, 156495, Note_on_c, 0, 75, 95
1, 156497, Note_on_c, 0, 46, 62
1, 156510, Note_off_c, 0, 43, 59
1, 156515, Poly_aftertouch_c, 0, 82, 0
1, 156552, Note_on_c, 0, 49, 80
1, 156553, Note_off_c, 0, 46, 63
1, 156553, Note_off_c, 0, 87, 66
1, 156577, Note_off_c, 0, 75, 38
1, 156581, Note_off_c, 0, 49, 63
1, 156593, Note_on_c, 0, 46, 62
1, 156616, Note_off_c, 0, 46, 67
1, 156665, Note_on_c, 0, 43, 92
1, 156741, Note_on_c, 0, 39, 82
1, 156741, Note_off_c, 0, 43, 58
1, 156830, Note_on_c, 0, 87, 109
1, 156831, Note_on_c, 0, 75, 100
1, 156835, Note_on_c, 0, 37, 79
1, 156844, Note_off_c, 0, 39, 60
1, 156862, Note_on_c, 0, 85, 47
1, 156862, Note_off_c, 0, 75, 68
1, 156881, Note_off_c, 0, 87, 70
1, 156888, Note_off_c, 0, 85, 39
1, 156933, Note_on_c, 0, 39, 82
1, 156933, Note_off_c, 0, 37, 62
1, 156941, Note_on_c, 0, 43, 74
1, 156987, Note_off_c, 0, 39, 55
1, 157036, Note_on_c, 0, 39, 54
1, 157049, Note_on_c, 0, 37, 72
1, 157054, Note_off_c, 0, 43, 62
1, 157098, Note_off_c, 0, 39, 60
1, 157135, Note_on_c, 0, 34, 79
1, 157144, Note_off_c, 0, 37, 61
1, 157191, Note_off_c, 0, 34, 61
1, 157214, Note_on_c, 0, 44, 103
1, 157214, Note_on_c, 0, 87, 107
1, 157217, Note_on_c, 0, 32, 98
1, 157221, Control_c, 0, 64, 110
1, 157227, Poly_aftertouch_c, 0, 34, 0
1, 157230, Note_on_c, 0, 34, 34
1, 157236, Control_c, 0, 64, 66
1, 157251, Control_c, 0, 64, 0
1, 157257, Note_off_c, 0, 34, 58
1, 157336, Note_on_c, 0, 92, 99
1, 157341, Note_off_c, 0, 87, 65
1, 157385, Control_c, 0, 64, 64
1, 157400, Control_c, 0, 64, 83
1, 157415, Control_c, 0, 64, 127
1, 157423, Note_on_c, 0, 96, 98
1, 157435, Note_off_c, 0, 92, 65
1, 157485, Note_on_c, 0, 92, 90
1, 157509, Note_off_c, 0, 96, 64
1, 157549, Note_on_c, 0, 87, 93
1, 157570, Note_off_c, 0, 92, 64
1, 157594, Note_off_c, 0, 87, 62
1, 157603, Note_on_c, 0, 84, 82
1, 157674, Note_on_c, 0, 87, 93
1, 157695, Note_off_c, 0, 84, 62
1, 157720, Note_on_c, 0, 92, 89
1, 157722, Note_off_c, 0, 87, 63
1, 157771, Note_on_c, 0, 94, 27
1, 157805, Note_off_c, 0, 92, 65
1, 157807, Note_off_c, 0, 94, 52
1, 157812, Note_on_c, 0, 87, 56
1, 157832, Note_off_c, 0, 87, 61
1, 157835, Note_on_c, 0, 84, 75
1, 157867, Note_off_c, 0, 84, 55
1, 157899, Note_on_c, 0, 80, 84
1, 157947, Note_on_c, 0, 84, 70
1, 157954, Note_off_c, 0, 80, 63
1, 157984, Note_on_c, 0, 82, 21
1, 158011, Note_off_c, 0, 84, 63
1, 158018, Note_on_c, 0, 87, 82
1, 158023, Note_off_c, 0, 82, 51
1, 158065, Note_on_c, 0, 84, 72
1, 158098, Note_off_c, 0, 87, 63
1, 158124, Note_on_c, 0, 80, 78
1, 158145, Note_off_c, 0, 84, 63
1, 158172, Note_off_c, 0, 80, 62
1, 158192, Note_on_c, 0, 75, 77
1, 158211, Note_on_c, 0, 36, 84
1, 158214, Note_off_c, 0, 75, 69
1, 158221, Note_off_c, 0, 44, 57
1, 158271, Note_on_c, 0, 80, 60
1, 158291, Note_off_c, 0, 32, 0
1, 158295, Note_off_c, 0, 80, 64
1, 158323, Note_on_c, 0, 84, 63
1, 158329, Poly_aftertouch_c, 0, 32, 127
1, 158378, Note_on_c, 0, 80, 70
1, 158393, Note_off_c, 0, 84, 62
1, 158431, Poly_aftertouch_c, 0, 83, 0
1, 158454, Note_on_c, 0, 75, 79
1, 158470, Note_off_c, 0, 80, 54
1, 158473, Note_on_c, 0, 39, 83
1, 158507, Note_off_c, 0, 75, 61
1, 158522, Note_off_c, 0, 36, 60
1, 158537, Note_on_c, 0, 44, 95
1, 158538, Note_on_c, 0, 72, 73
1, 158542, Control_c, 0, 64, 117
1, 158544, Poly_aftertouch_c, 0, 32, 0
1, 158556, Control_c, 0, 64, 76
1, 158568, Note_off_c, 0, 39, 59
1, 158571, Control_c, 0, 64, 0
1, 158598, Note_on_c, 0, 75, 79
1, 158606, Note_off_c, 0, 72, 60
1, 158616, Control_c, 0, 64, 67
1, 158631, Control_c, 0, 64, 96
1, 158633, Note_off_c, 0, 75, 55
1, 158641, Note_on_c, 0, 80, 79
1, 158646, Control_c, 0, 64, 127
1, 158695, Poly_aftertouch_c, 0, 45, 127
1, 158718, Note_on_c, 0, 75, 69
1, 158726, Note_off_c, 0, 80, 61
1, 158729, Poly_aftertouch_c, 0, 45, 0
1, 158742, Note_off_c, 0, 75, 67
1, 158759, Note_on_c, 0, 72, 76
1, 158830, Note_off_c, 0, 72, 38
1, 158840, Note_on_c, 0, 68, 75
1, 158854, Note_on_c, 0, 48, 87
1, 158866, Note_off_c, 0, 44, 54
1, 158897, Note_on_c, 0, 72, 59
1, 158903, Note_off_c, 0, 68, 62
1, 158950, Note_off_c, 0, 72, 65
1, 158962, Note_on_c, 0, 75, 70
1, 159034, Note_on_c, 0, 72, 72
1, 159038, Note_off_c, 0, 75, 56
1, 159085, Note_on_c, 0, 68, 74
1, 159102, Note_off_c, 0, 72, 61
1, 159123, Note_on_c, 0, 51, 89
1, 159137, Note_off_c, 0, 68, 63
1, 159159, Note_on_c, 0, 63, 74
1, 159165, Note_off_c, 0, 48, 62
1, 159184, Note_on_c, 0, 56, 98
1, 159186, Note_off_c, 0, 63, 69
1, 159206, Note_off_c, 0, 51, 63
1, 159237, Control_c, 0, 64, 89
1, 159242, Note_on_c, 0, 68, 50
1, 159260, Control_c, 0, 64, 65
1, 159271, Note_off_c, 0, 68, 60
1, 159275, Control_c, 0, 64, 0
1, 159299, Note_on_c, 0, 72, 63
1, 159319, Control_c, 0, 64, 63
1, 159334, Control_c, 0, 64, 79
1, 159347, Note_on_c, 0, 68, 72
1, 159348, Control_c, 0, 64, 127
1, 159363, Note_off_c, 0, 72, 62
1, 159409, Poly_aftertouch_c, 0, 71, 0
1, 159411, Note_off_c, 0, 56, 52
1, 159421, Note_on_c, 0, 63, 83
1, 159450, Note_off_c, 0, 68, 58
1, 159483, Note_off_c, 0, 63, 63
1, 159501, Note_on_c, 0, 60, 75
1, 159525, Note_on_c, 0, 56, 96
1, 159576, Note_on_c, 0, 63, 76
1, 159610, Note_off_c, 0, 63, 61
1, 159628, Note_on_c, 0, 68, 77
1, 159642, Note_off_c, 0, 60, 62
1, 159685, Note_on_c, 0, 63, 82
1, 159702, Note_off_c, 0, 56, 52
1, 159715, Note_off_c, 0, 68, 61
1, 159756, Note_on_c, 0, 60, 80
1, 159756, Note_off_c, 0, 63, 53
1, 159813, Note_off_c, 0, 60, 62
1, 159874, Note_on_c, 0, 66, 107
1, 159882, Note_on_c, 0, 57, 81
1, 159883, Control_c, 0, 64, 104
1, 159898, Control_c, 0, 64, 71
1, 159913, Control_c, 0, 64, 0
1, 159971, Control_c, 0, 64, 25
1, 159974, Note_on_c, 0, 60, 71
1, 159986, Control_c, 0, 64, 69
1, 160008, Control_c, 0, 64, 92
1, 160022, Note_off_c, 0, 57, 62
1, 160023, Control_c, 0, 64, 127
1, 160028, Note_off_c, 0, 60, 58
1, 160039, Note_on_c, 0, 63, 73
1, 160090, Note_on_c, 0, 60, 57
1, 160101, Note_off_c, 0, 63, 62
1, 160137, Note_on_c, 0, 57, 73
1, 160145, Note_off_c, 0, 60, 62
1, 160199, Note_on_c, 0, 54, 74
1, 160199, Note_off_c, 0, 57, 65
1, 160259, Note_off_c, 0, 54, 61
1, 160270, Note_on_c, 0, 57, 78
1, 160312, Note_off_c, 0, 57, 59
1, 160346, Note_on_c, 0, 60, 62
1, 160384, Note_off_c, 0, 60, 65
1, 160390, Note_on_c, 0, 57, 75
1, 160432, Note_on_c, 0, 54, 72
1, 160446, Note_off_c, 0, 57, 63
1, 160500, Note_off_c, 0, 54, 65
1, 160502, Note_on_c, 0, 51, 81
1, 160578, Note_off_c, 0, 66, 69
1, 160579, Note_on_c, 0, 54, 74
1, 160595, Note_off_c, 0, 51, 49
1, 160603, Note_off_c, 0, 54, 67
1, 160625, Note_on_c, 0, 57, 70
1, 160676, Note_off_c, 0, 57, 56
1, 160678, Note_on_c, 0, 54, 78
1, 160709, Note_on_c, 0, 51, 81
1, 160723, Note_off_c, 0, 54, 64
1, 160801, Note_off_c, 0, 51, 62
1, 160805, Note_on_c, 0, 48, 78
1, 160833, Note_on_c, 0, 72, 97
1, 160868, Note_off_c, 0, 48, 60
1, 160880, Note_on_c, 0, 51, 69
1, 160902, Note_on_c, 0, 81, 12
1, 160908, Note_off_c, 0, 51, 65
1, 160933, Note_on_c, 0, 54, 80
1, 160979, Note_on_c, 0, 51, 64
1, 161035, Note_on_c, 0, 48, 75
1, 161037, Note_off_c, 0, 51, 63
1, 161042, Note_off_c, 0, 54, 38
1, 161072, Note_off_c, 0, 81, 20
1, 161088, Note_on_c, 0, 75, 94
1, 161113, Note_on_c, 0, 45, 81
1, 161116, Note_off_c, 0, 48, 63
1, 161132, Note_off_c, 0, 72, 58
1, 161152, Note_on_c, 0, 78, 105
1, 161178, Note_off_c, 0, 75, 66
1, 161188, Note_off_c, 0, 45, 64
1, 161189, Note_on_c, 0, 48, 75
1, 161211, Note_off_c, 0, 78, 70
1, 161244, Note_on_c, 0, 51, 80
1, 161245, Note_off_c, 0, 48, 62
1, 161285, Note_on_c, 0, 48, 50
1, 161326, Note_on_c, 0, 45, 74
1, 161328, Note_off_c, 0, 51, 54
1, 161356, Note_off_c, 0, 48, 61
1, 161400, Note_on_c, 0, 42, 75
1, 161406, Note_off_c, 0, 45, 64
1, 161464, Note_off_c, 0, 42, 61
1, 161469, Note_on_c, 0, 84, 101
1, 161486, Note_on_c, 0, 45, 66
1, 161523, Note_off_c, 0, 84, 69
1, 161546, Note_off_c, 0, 45, 66
1, 161556, Note_on_c, 0, 48, 75
1, 161616, Note_on_c, 0, 45, 79
1, 161617, Note_off_c, 0, 48, 61
1, 161647, Note_on_c, 0, 42, 77
1, 161663, Note_off_c, 0, 45, 58
1, 161729, Note_off_c, 0, 42, 61
1, 161730, Note_on_c, 0, 87, 90
1, 161731, Note_on_c, 0, 39, 80
1, 161780, Note_off_c, 0, 87, 0
1, 161790, Note_on_c, 0, 90, 103
1, 161799, Note_on_c, 0, 78, 91
1, 161807, Poly_aftertouch_c, 0, 87, 0
1, 161813, Note_off_c, 0, 39, 57
1, 161822, Note_off_c, 0, 78, 65
1, 161823, Note_on_c, 0, 91, 53
1, 161835, Note_on_c, 0, 45, 63
1, 161837, Note_on_c, 0, 42, 23
1, 161846, Note_off_c, 0, 91, 61
1, 161864, Note_off_c, 0, 45, 64
1, 161869, Note_off_c, 0, 90, 64
1, 161892, Note_on_c, 0, 39, 85
1, 161907, Note_off_c, 0, 42, 62
1, 161929, Note_off_c, 0, 39, 60
1, 161987, Note_on_c, 0, 36, 80
1, 162086, Note_on_c, 0, 33, 82
1, 162112, Note_off_c, 0, 36, 56
1, 162120, Note_on_c, 0, 90, 109
1, 162126, Note_on_c, 0, 78, 101
1, 162139, Note_on_c, 0, 36, 46
1, 162163, Note_off_c, 0, 78, 68
1, 162165, Note_off_c, 0, 90, 73
1, 162174, Note_off_c, 0, 33, 58
1, 162214, Note_on_c, 0, 39, 82
1, 162222, Note_off_c, 0, 36, 60
1, 162279, Note_off_c, 0, 39, 56
1, 162307, Note_on_c, 0, 42, 74
1, 162338, Note_on_c, 0, 39, 54
1, 162367, Note_on_c, 0, 36, 56
1, 162372, Note_off_c, 0, 42, 58
1, 162376, Note_on_c, 0, 37, 32
1, 162387, Note_off_c, 0, 39, 60
1, 162411, Note_on_c, 0, 35, 33
1, 162432, Poly_aftertouch_c, 0, 78, 127
1, 162452, Note_off_c, 0, 35, 48
1, 162452, Note_off_c, 0, 36, 59
1, 162455, Note_off_c, 0, 37, 50
1, 162461, Poly_aftertouch_c, 0, 78, 0
1, 162477, Note_on_c, 0, 32, 101
1, 162486, Note_on_c, 0, 90, 117
1, 162492, Note_on_c, 0, 78, 95
1, 162508, Control_c, 0, 64, 114
1, 162522, Control_c, 0, 64, 78
1, 162537, Control_c, 0, 64, 24
1, 162552, Control_c, 0, 64, 0
1, 162575, Note_on_c, 0, 36, 64
1, 162581, Control_c, 0, 64, 44
1, 162596, Control_c, 0, 64, 73
1, 162610, Control_c, 0, 64, 127
1, 162628, Note_on_c, 0, 39, 80
1, 162664, Note_off_c, 0, 32, 52
1, 162682, Note_off_c, 0, 36, 58
1, 162703, Note_on_c, 0, 42, 74
1, 162739, Note_on_c, 0, 36, 51
1, 162751, Note_off_c, 0, 39, 57
1, 162763, Note_off_c, 0, 42, 59
1, 162819, Note_on_c, 0, 33, 97
1, 162833, Control_c, 0, 64, 99
1, 162847, Control_c, 0, 64, 64
1, 162854, Note_off_c, 0, 36, 60
1, 162858, Note_off_c, 0, 90, 63
1, 162863, Control_c, 0, 64, 0
1, 162908, Control_c, 0, 64, 68
1, 162923, Control_c, 0, 64, 95
1, 162937, Control_c, 0, 64, 127
1, 162938, Note_on_c, 0, 36, 60
1, 162965, Note_on_c, 0, 90, 97
1, 162995, Note_on_c, 0, 39, 77
1, 163026, Poly_aftertouch_c, 0, 35, 127
1, 163036, Note_on_c, 0, 87, 92
1, 163040, Note_off_c, 0, 33, 59
1, 163049, Note_off_c, 0, 78, 62
1, 163069, Poly_aftertouch_c, 0, 35, 0
1, 163073, Poly_aftertouch_c, 0, 84, 0
1, 163080, Note_on_c, 0, 42, 58
1, 163082, Note_on_c, 0, 84, 66
1, 163099, Note_off_c, 0, 36, 55
1, 163110, Note_off_c, 0, 90, 67
1, 163141, Note_on_c, 0, 78, 92
1, 163148, Note_off_c, 0, 87, 64
1, 163151, Note_off_c, 0, 42, 59
1, 163153, Note_off_c, 0, 39, 59
1, 163167, Control_c, 0, 64, 102
1, 163182, Control_c, 0, 64, 59
1, 163189, Note_on_c, 0, 32, 91
1, 163195, Note_on_c, 0, 90, 108
1, 163196, Control_c, 0, 64, 0
1, 163225, Note_off_c, 0, 84, 64
1, 163241, Control_c, 0, 64, 41
1, 163245, Poly_aftertouch_c, 0, 36, 0
1, 163251, Note_off_c, 0, 78, 60
1, 163256, Control_c, 0, 64, 80
1, 163270, Control_c, 0, 64, 127
1, 163272, Note_off_c, 0, 90, 71
1, 163278, Note_on_c, 0, 36, 65
1, 163326, Note_on_c, 0, 37, 10
1, 163327, Note_off_c, 0, 37, 127
1, 163329, Note_on_c, 0, 39, 77
1, 163355, Note_on_c, 0, 35, 3
1, 163383, Note_off_c, 0, 36, 57
1, 163385, Note_on_c, 0, 42, 72
1, 163392, Note_off_c, 0, 35, 50
1, 163403, Note_off_c, 0, 32, 56
1, 163426, Note_on_c, 0, 36, 51
1, 163440, Note_off_c, 0, 39, 61
1, 163443, Note_off_c, 0, 42, 60
1, 163505, Note_on_c, 0, 33, 96
1, 163508, Control_c, 0, 64, 103
1, 163522, Control_c, 0, 64, 67
1, 163537, Control_c, 0, 64, 0
1, 163542, Note_off_c, 0, 36, 57
1, 163582, Control_c, 0, 64, 53
1, 163596, Control_c, 0, 64, 80
1, 163598, Note_on_c, 0, 36, 60
1, 163611, Note_on_c, 0, 78, 95
1, 163611, Control_c, 0, 64, 127
1, 163669, Note_on_c, 0, 75, 88
1, 163675, Note_on_c, 0, 39, 73
1, 163698, Poly_aftertouch_c, 0, 35, 127
1, 163707, Note_off_c, 0, 33, 56
1, 163718, Note_on_c, 0, 72, 89
1, 163720, Note_off_c, 0, 36, 59
1, 163743, Poly_aftertouch_c, 0, 35, 0
1, 163746, Note_off_c, 0, 78, 62
1, 163749, Note_on_c, 0, 42, 67
1, 163778, Note_on_c, 0, 66, 88
1, 163794, Note_on_c, 0, 36, 56
1, 163797, Note_off_c, 0, 75, 62
1, 163803, Note_off_c, 0, 39, 58
1, 163807, Note_off_c, 0, 42, 54
1, 163827, Control_c, 0, 64, 101
1, 163842, Control_c, 0, 64, 65
1, 163846, Note_on_c, 0, 78, 107
1, 163856, Control_c, 0, 64, 0
1, 163859, Note_on_c, 0, 32, 90
1, 163874, Note_off_c, 0, 72, 60
1, 163878, Note_off_c, 0, 36, 59
1, 163879, Note_off_c, 0, 66, 66
1, 163898, Note_off_c, 0, 78, 72
1, 163901, Control_c, 0, 64, 51
1, 163916, Control_c, 0, 64, 76
1, 163931, Control_c, 0, 64, 113
1, 163943, Note_on_c, 0, 36, 70
1, 163945, Control_c, 0, 64, 127
1, 163968, Note_on_c, 0, 37, 35
1, 163986, Note_on_c, 0, 39, 77
1, 164008, Note_off_c, 0, 37, 31
1, 164040, Poly_aftertouch_c, 0, 35, 127
1, 164041, Note_on_c, 0, 42, 78
1, 164065, Note_off_c, 0, 32, 57
1, 164086, Poly_aftertouch_c, 0, 35, 0
1, 164098, Note_off_c, 0, 42, 61
1, 164113, Note_off_c, 0, 39, 61
1, 164114, Note_off_c, 0, 36, 0
1, 164114, Note_on_c, 0, 36, 3
1, 164153, Control_c, 0, 64, 108
1, 164155, Note_on_c, 0, 33, 93
1, 164168, Control_c, 0, 64, 73
1, 164183, Control_c, 0, 64, 0
1, 164187, Note_on_c, 0, 35, 33
1, 164188, Note_off_c, 0, 36, 60
1, 164213, Control_c, 0, 64, 15
1, 164224, Note_off_c, 0, 35, 30
1, 164227, Control_c, 0, 64, 68
1, 164242, Control_c, 0, 64, 88
1, 164257, Control_c, 0, 64, 127
1, 164264, Note_on_c, 0, 66, 89
1, 164269, Note_on_c, 0, 36, 65
1, 164286, Note_on_c, 0, 37, 46
1, 164315, Note_off_c, 0, 33, 56
1, 164316, Note_on_c, 0, 39, 75
1, 164323, Note_off_c, 0, 37, 32
1, 164325, Note_on_c, 0, 63, 88
1, 164376, Note_off_c, 0, 36, 55
1, 164382, Note_on_c, 0, 60, 82
1, 164387, Note_off_c, 0, 66, 61
1, 164423, Note_on_c, 0, 42, 50
1, 164428, Note_off_c, 0, 63, 63
1, 164431, Note_on_c, 0, 54, 87
1, 164450, Control_c, 0, 64, 115
1, 164453, Note_on_c, 0, 36, 30
1, 164462, Note_off_c, 0, 42, 49
1, 164465, Control_c, 0, 64, 80
1, 164480, Control_c, 0, 64, 43
1, 164480, Control_c, 0, 67, 8
1, 164483, Note_on_c, 0, 66, 95
1, 164494, Note_off_c, 0, 39, 42
1, 164503, Control_c, 0, 64, 0
1, 164503, Control_c, 0, 67, 9
1, 164507, Note_on_c, 0, 32, 89
1, 164509, Note_off_c, 0, 54, 62
1, 164511, Note_off_c, 0, 60, 64
1, 164518, Control_c, 0, 67, 11
1, 164525, Note_off_c, 0, 36, 59
1, 164532, Control_c, 0, 64, 40
1, 164532, Control_c, 0, 67, 13
1, 164547, Control_c, 0, 64, 70
1, 164547, Control_c, 0, 67, 14
1, 164554, Note_off_c, 0, 66, 63
1, 164562, Control_c, 0, 64, 89
1, 164576, Control_c, 0, 64, 127
1, 164604, Note_on_c, 0, 36, 67
1, 164621, Note_on_c, 0, 37, 44
1, 164630, Note_on_c, 0, 35, 41
1, 164637, Note_on_c, 0, 66, 84
1, 164664, Note_on_c, 0, 39, 72
1, 164676, Note_off_c, 0, 35, 45
1, 164680, Control_c, 0, 67, 13
1, 164684, Note_off_c, 0, 32, 57
1, 164685, Note_on_c, 0, 63, 86
1, 164688, Note_off_c, 0, 37, 34
1, 164710, Control_c, 0, 67, 13
1, 164723, Note_off_c, 0, 66, 58
1, 164736, Note_on_c, 0, 42, 62
1, 164737, Note_on_c, 0, 60, 75
1, 164739, Control_c, 0, 67, 13
1, 164766, Note_off_c, 0, 36, 33
1, 164769, Control_c, 0, 67, 14
1, 164770, Note_off_c, 0, 63, 64
1, 164776, Note_on_c, 0, 54, 88
1, 164784, Control_c, 0, 67, 14
1, 164813, Control_c, 0, 64, 88
1, 164821, Note_off_c, 0, 42, 54
1, 164828, Control_c, 0, 64, 62
1, 164830, Note_on_c, 0, 66, 93
1, 164831, Note_on_c, 0, 36, 60
1, 164841, Note_on_c, 0, 33, 79
1, 164841, Note_off_c, 0, 39, 61
1, 164843, Control_c, 0, 64, 0
1, 164843, Control_c, 0, 67, 16
1, 164846, Note_off_c, 0, 60, 62
1, 164847, Note_off_c, 0, 54, 61
1, 164858, Control_c, 0, 67, 17
1, 164873, Control_c, 0, 64, 40
1, 164873, Control_c, 0, 67, 19
1, 164888, Control_c, 0, 64, 71
1, 164888, Control_c, 0, 67, 21
1, 164893, Note_off_c, 0, 66, 64
1, 164903, Control_c, 0, 64, 92
1, 164903, Control_c, 0, 67, 23
1, 164917, Control_c, 0, 64, 127
1, 164917, Control_c, 0, 67, 25
1, 164932, Control_c, 0, 67, 26
1, 164939, Note_on_c, 0, 39, 79
1, 164947, Control_c, 0, 67, 27
1, 164960, Note_off_c, 0, 33, 58
1, 164973, Note_on_c, 0, 66, 86
1, 165013, Note_on_c, 0, 63, 81
1, 165046, Note_off_c, 0, 66, 63
1, 165067, Note_on_c, 0, 60, 72
1, 165088, Note_off_c, 0, 63, 64
1, 165089, Note_on_c, 0, 54, 80
1, 165094, Control_c, 0, 64, 94
1, 165109, Control_c, 0, 64, 65
1, 165109, Control_c, 0, 67, 27
1, 165111, Note_off_c, 0, 39, 61
1, 165114, Note_off_c, 0, 36, 46
1, 165124, Control_c, 0, 64, 0
1, 165124, Control_c, 0, 67, 29
1, 165139, Note_on_c, 0, 32, 64
1, 165139, Control_c, 0, 67, 33
1, 165142, Note_on_c, 0, 44, 84
1, 165150, Note_off_c, 0, 54, 63
1, 165154, Control_c, 0, 64, 61
1, 165154, Control_c, 0, 67, 42
1, 165156, Note_on_c, 0, 66, 87
1, 165163, Note_off_c, 0, 60, 57
1, 165167, Note_off_c, 0, 44, 68
1, 165168, Note_off_c, 0, 32, 62
1, 165168, Control_c, 0, 64, 96
1, 165168, Control_c, 0, 67, 53
1, 165183, Control_c, 0, 64, 127
1, 165183, Control_c, 0, 67, 64
1, 165198, Control_c, 0, 67, 73
1, 165213, Control_c, 0, 67, 82
1, 165228, Control_c, 0, 67, 86
1, 165246, Note_off_c, 0, 66, 58
1, 165250, Control_c, 0, 64, 97
1, 165250, Control_c, 0, 67, 89
1, 165265, Control_c, 0, 64, 69
1, 165265, Control_c, 0, 67, 89
1, 165281, Control_c, 0, 64, 0
1, 165281, Control_c, 0, 67, 90
1, 165290, Note_on_c, 0, 56, 70
1, 165311, Control_c, 0, 67, 91
1, 165316, Note_off_c, 0, 56, 67
1, 165326, Control_c, 0, 67, 95
1, 165341, Control_c, 0, 67, 99
1, 165355, Control_c, 0, 67, 102
1, 165370, Control_c, 0, 67, 104
1, 165385, Control_c, 0, 67, 107
1, 165399, Control_c, 0, 67, 113
1, 165412, Note_on_c, 0, 56, 46
1, 165414, Control_c, 0, 67, 123
1, 165429, Control_c, 0, 67, 127
1, 165439, Note_off_c, 0, 56, 59
1, 165523, Note_on_c, 0, 56, 64
1, 165553, Note_off_c, 0, 56, 66
1, 165642, Note_on_c, 0, 56, 49
1, 165666, Note_off_c, 0, 56, 59
1, 165741, Note_on_c, 0, 56, 59
1, 165777, Note_off_c, 0, 56, 64
1, 165876, Note_on_c, 0, 56, 52
1, 165901, Note_off_c, 0, 56, 57
1, 165982, Note_on_c, 0, 56, 53
1, 166017, Note_off_c, 0, 56, 58
1, 166104, Note_on_c, 0, 56, 54
1, 166130, Note_off_c, 0, 56, 57
1, 166216, Note_on_c, 0, 56, 53
1, 166244, Note_off_c, 0, 56, 63
1, 166325, Note_on_c, 0, 56, 58
1, 166347, Note_off_c, 0, 56, 61
1, 166425, Note_on_c, 0, 56, 50
1, 166456, Note_off_c, 0, 56, 53
1, 166533, Note_on_c, 0, 63, 56
1, 166538, Note_on_c, 0, 60, 53
1, 166656, Note_on_c, 0, 56, 57
1, 166685, Note_off_c, 0, 56, 64
1, 166714, Note_off_c, 0, 60, 57
1, 166730, Note_off_c, 0, 63, 58
1, 166783, Note_on_c, 0, 56, 50
1, 166808, Note_off_c, 0, 56, 58
1, 166896, Note_on_c, 0, 56, 53
1, 166926, Note_off_c, 0, 56, 65
1, 167016, Note_on_c, 0, 56, 50
1, 167040, Note_off_c, 0, 56, 58
1, 167121, Note_on_c, 0, 56, 33
1, 167155, Note_off_c, 0, 56, 51
1, 167228, Note_on_c, 0, 75, 51
1, 167231, Note_on_c, 0, 72, 55
1, 167238, Note_on_c, 0, 54, 59
1, 167320, Note_off_c, 0, 54, 50
1, 167336, Note_off_c, 0, 72, 59
1, 167345, Note_off_c, 0, 75, 54
1, 167356, Note_on_c, 0, 56, 42
1, 167386, Note_off_c, 0, 56, 51
1, 167460, Note_on_c, 0, 56, 54
1, 167490, Note_off_c, 0, 56, 59
1, 167565, Note_on_c, 0, 56, 60
1, 167601, Note_off_c, 0, 56, 64
1, 167681, Note_on_c, 0, 56, 60
1, 167705, Note_off_c, 0, 56, 60
1, 167785, Note_on_c, 0, 56, 57
1, 167817, Note_off_c, 0, 56, 64
1, 167901, Note_on_c, 0, 65, 58
1, 167911, Note_on_c, 0, 61, 54
1, 168015, Note_on_c, 0, 56, 60
1, 168040, Note_off_c, 0, 56, 64
1, 168103, Note_off_c, 0, 61, 61
1, 168122, Note_on_c, 0, 56, 59
1, 168124, Note_off_c, 0, 65, 61
1, 168154, Note_off_c, 0, 56, 65
1, 168252, Note_on_c, 0, 56, 64
1, 168279, Note_off_c, 0, 56, 66
1, 168359, Note_on_c, 0, 56, 61
1, 168385, Note_off_c, 0, 56, 63
1, 168450, Note_on_c, 0, 56, 60
1, 168479, Note_off_c, 0, 56, 61
1, 168528, Control_c, 0, 67, 127
1, 168542, Control_c, 0, 67, 125
1, 168557, Control_c, 0, 67, 124
1, 168572, Control_c, 0, 67, 124
1, 168576, Note_on_c, 0, 77, 58
1, 168587, Control_c, 0, 67, 123
1, 168588, Note_on_c, 0, 73, 55
1, 168593, Note_on_c, 0, 53, 51
1, 168602, Control_c, 0, 67, 123
1, 168617, Control_c, 0, 67, 122
1, 168632, Control_c, 0, 67, 121
1, 168647, Control_c, 0, 67, 120
1, 168653, Note_off_c, 0, 53, 55
1, 168662, Control_c, 0, 67, 120
1, 168686, Note_on_c, 0, 56, 61
1, 168715, Note_off_c, 0, 56, 66
1, 168731, Note_off_c, 0, 77, 62
1, 168742, Note_off_c, 0, 73, 60
1, 168793, Note_on_c, 0, 56, 57
1, 168809, Control_c, 0, 67, 119
1, 168820, Note_off_c, 0, 56, 61
1, 168904, Note_on_c, 0, 56, 64
1, 168933, Note_off_c, 0, 56, 65
1, 168942, Control_c, 0, 67, 119
1, 169020, Note_on_c, 0, 56, 62
1, 169049, Note_off_c, 0, 56, 64
1, 169068, Control_c, 0, 67, 119
1, 169118, Note_on_c, 0, 56, 64
1, 169154, Note_off_c, 0, 56, 62
1, 169187, Control_c, 0, 67, 119
1, 169202, Control_c, 0, 67, 118
1, 169216, Control_c, 0, 67, 117
1, 169221, Note_on_c, 0, 70, 97
1, 169227, Note_on_c, 0, 65, 90
1, 169231, Control_c, 0, 67, 116
1, 169232, Note_on_c, 0, 61, 89
1, 169246, Control_c, 0, 67, 114
1, 169262, Control_c, 0, 67, 112
1, 169277, Control_c, 0, 67, 111
1, 169292, Control_c, 0, 67, 111
1, 169306, Control_c, 0, 67, 112
1, 169321, Control_c, 0, 67, 113
1, 169336, Control_c, 0, 67, 114
1, 169338, Note_on_c, 0, 56, 63
1, 169371, Note_off_c, 0, 56, 65
1, 169395, Control_c, 0, 67, 114
1, 169470, Note_on_c, 0, 56, 66
1, 169500, Note_off_c, 0, 56, 66
1, 169529, Control_c, 0, 67, 114
1, 169544, Control_c, 0, 67, 114
1, 169557, Note_on_c, 0, 53, 87
1, 169558, Note_on_c, 0, 49, 85
1, 169573, Control_c, 0, 67, 115
1, 169591, Note_off_c, 0, 53, 66
1, 169596, Note_off_c, 0, 49, 63
1, 169603, Control_c, 0, 67, 115
1, 169694, Note_on_c, 0, 56, 62
1, 169720, Note_off_c, 0, 56, 58
1, 169814, Note_on_c, 0, 56, 51
1, 169850, Note_off_c, 0, 56, 64
1, 169862, Control_c, 0, 67, 116
1, 169891, Control_c, 0, 67, 116
1, 169917, Note_on_c, 0, 53, 77
1, 169929, Note_on_c, 0, 49, 67
1, 169936, Control_c, 0, 67, 117
1, 169953, Note_off_c, 0, 53, 64
1, 169965, Control_c, 0, 67, 117
1, 169968, Note_off_c, 0, 49, 61
1, 170032, Note_on_c, 0, 56, 69
1, 170065, Note_off_c, 0, 56, 62
1, 170155, Note_on_c, 0, 56, 55
1, 170184, Note_off_c, 0, 56, 56
1, 170233, Control_c, 0, 67, 118
1, 170256, Note_on_c, 0, 53, 66
1, 170262, Note_on_c, 0, 49, 65
1, 170289, Note_off_c, 0, 53, 67
1, 170316, Note_off_c, 0, 49, 60
1, 170346, Note_off_c, 0, 65, 57
1, 170370, Note_off_c, 0, 61, 58
1, 170372, Note_on_c, 0, 56, 52
1, 170397, Note_off_c, 0, 56, 58
1, 170474, Note_on_c, 0, 56, 54
1, 170507, Control_c, 0, 67, 118
1, 170522, Control_c, 0, 67, 119
1, 170524, Note_off_c, 0, 56, 56
1, 170537, Control_c, 0, 67, 119
1, 170552, Control_c, 0, 67, 120
1, 170567, Control_c, 0, 67, 122
1, 170581, Control_c, 0, 67, 123
1, 170596, Control_c, 0, 67, 127
1, 170597, Note_on_c, 0, 68, 55
1, 170611, Control_c, 0, 67, 127
1, 170613, Note_on_c, 0, 60, 43
1, 170618, Note_on_c, 0, 63, 47
1, 170626, Note_on_c, 0, 51, 53
1, 170632, Note_on_c, 0, 48, 40
1, 170688, Note_off_c, 0, 48, 61
1, 170689, Note_off_c, 0, 70, 47
1, 170690, Note_off_c, 0, 51, 58
1, 170739, Note_on_c, 0, 56, 41
1, 170771, Note_off_c, 0, 56, 52
1, 170841, Note_on_c, 0, 56, 58
1, 170867, Note_off_c, 0, 56, 59
1, 170888, Note_off_c, 0, 68, 61
1, 170905, Note_off_c, 0, 63, 58
1, 170909, Note_off_c, 0, 60, 54
1, 170945, Note_on_c, 0, 56, 61
1, 170976, Note_off_c, 0, 56, 65
1, 171066, Note_on_c, 0, 56, 53
1, 171090, Note_off_c, 0, 56, 59
1, 171165, Note_on_c, 0, 56, 62
1, 171197, Note_off_c, 0, 56, 65
1, 171287, Note_on_c, 0, 56, 61
1, 171317, Note_off_c, 0, 56, 65
1, 171389, Note_on_c, 0, 56, 68
1, 171416, Note_off_c, 0, 56, 66
1, 171499, Note_on_c, 0, 56, 61
1, 171535, Note_off_c, 0, 56, 63
1, 171609, Note_on_c, 0, 63, 63
1, 171613, Note_on_c, 0, 60, 58
1, 171619, Note_on_c, 0, 56, 57
1, 171642, Note_off_c, 0, 56, 61
1, 171646, Note_off_c, 0, 63, 61
1, 171653, Note_off_c, 0, 60, 65
1, 171720, Note_on_c, 0, 56, 58
1, 171753, Note_off_c, 0, 56, 63
1, 171824, Note_on_c, 0, 56, 58
1, 171859, Note_off_c, 0, 56, 65
1, 171872, Note_on_c, 0, 63, 61
1, 171873, Note_on_c, 0, 60, 56
1, 171918, Note_off_c, 0, 60, 56
1, 171938, Note_on_c, 0, 56, 60
1, 171944, Note_off_c, 0, 63, 62
1, 171954, Note_on_c, 0, 61, 59
1, 171959, Note_on_c, 0, 65, 55
1, 171967, Note_off_c, 0, 56, 65
1, 172066, Note_on_c, 0, 56, 48
1, 172096, Note_off_c, 0, 56, 56
1, 172178, Note_off_c, 0, 61, 60
1, 172183, Note_on_c, 0, 56, 55
1, 172183, Note_on_c, 0, 60, 61
1, 172184, Note_on_c, 0, 63, 67
1, 172200, Note_off_c, 0, 65, 60
1, 172212, Note_off_c, 0, 63, 70
1, 172215, Note_off_c, 0, 60, 66
1, 172218, Note_off_c, 0, 56, 65
1, 172294, Note_on_c, 0, 56, 64
1, 172322, Note_off_c, 0, 56, 66
1, 172400, Note_on_c, 0, 56, 61
1, 172430, Note_off_c, 0, 56, 65
1, 172507, Note_on_c, 0, 75, 61
1, 172507, Note_on_c, 0, 72, 64
1, 172515, Note_on_c, 0, 56, 51
1, 172529, Note_off_c, 0, 72, 65
1, 172536, Note_off_c, 0, 75, 65
1, 172541, Note_off_c, 0, 56, 60
1, 172615, Note_on_c, 0, 56, 64
1, 172649, Note_off_c, 0, 56, 63
1, 172732, Note_on_c, 0, 56, 60
1, 172755, Note_off_c, 0, 56, 60
1, 172826, Note_on_c, 0, 87, 71
1, 172829, Note_on_c, 0, 84, 66
1, 172829, Note_on_c, 0, 56, 53
1, 172856, Note_off_c, 0, 84, 68
1, 172862, Note_off_c, 0, 87, 64
1, 172880, Note_off_c, 0, 56, 55
1, 172943, Note_on_c, 0, 51, 50
1, 172945, Control_c, 0, 64, 56
1, 172950, Note_on_c, 0, 54, 50
1, 172960, Control_c, 0, 64, 70
1, 172975, Control_c, 0, 64, 88
1, 172990, Control_c, 0, 64, 127
1, 172993, Note_off_c, 0, 51, 59
1, 173030, Note_off_c, 0, 54, 54
1, 173053, Note_on_c, 0, 56, 57
1, 173091, Note_off_c, 0, 56, 60
1, 173161, Note_on_c, 0, 56, 64
1, 173190, Note_off_c, 0, 56, 66
1, 173191, Note_on_c, 0, 60, 67
1, 173195, Note_on_c, 0, 63, 70
1, 173220, Note_off_c, 0, 60, 67
1, 173225, Note_off_c, 0, 63, 64
1, 173267, Note_on_c, 0, 63, 71
1, 173269, Note_on_c, 0, 66, 80
1, 173271, Note_on_c, 0, 56, 65
1, 173271, Control_c, 0, 64, 103
1, 173286, Control_c, 0, 64, 79
1, 173301, Control_c, 0, 64, 59
1, 173302, Note_off_c, 0, 56, 61
1, 173316, Control_c, 0, 64, 0
1, 173400, Note_on_c, 0, 56, 65
1, 173429, Note_off_c, 0, 56, 65
1, 173513, Note_on_c, 0, 65, 72
1, 173515, Note_on_c, 0, 61, 61
1, 173520, Note_on_c, 0, 56, 55
1, 173524, Note_off_c, 0, 63, 63
1, 173525, Note_off_c, 0, 66, 58
1, 173544, Note_off_c, 0, 61, 65
1, 173544, Note_off_c, 0, 65, 64
1, 173556, Note_off_c, 0, 56, 64
1, 173632, Note_on_c, 0, 56, 74
1, 173658, Note_off_c, 0, 56, 67
1, 173729, Note_on_c, 0, 56, 65
1, 173765, Note_off_c, 0, 56, 63
1, 173858, Note_on_c, 0, 77, 61
1, 173859, Note_on_c, 0, 73, 63
1, 173860, Note_on_c, 0, 56, 51
1, 173881, Note_off_c, 0, 73, 64
1, 173885, Note_off_c, 0, 56, 58
1, 173890, Note_off_c, 0, 77, 66
1, 173959, Note_on_c, 0, 56, 64
1, 173994, Note_off_c, 0, 56, 64
1, 174066, Note_on_c, 0, 56, 61
1, 174088, Note_off_c, 0, 56, 62
1, 174162, Note_on_c, 0, 56, 56
1, 174175, Note_on_c, 0, 89, 76
1, 174185, Note_on_c, 0, 85, 64
1, 174204, Note_off_c, 0, 56, 61
1, 174215, Note_off_c, 0, 85, 67
1, 174227, Note_off_c, 0, 89, 62
1, 174308, Note_on_c, 0, 49, 63
1, 174310, Note_on_c, 0, 53, 63
1, 174325, Control_c, 0, 64, 30
1, 174340, Control_c, 0, 64, 69
1, 174354, Control_c, 0, 64, 86
1, 174369, Control_c, 0, 64, 127
1, 174371, Note_off_c, 0, 53, 56
1, 174384, Control_c, 0, 67, 127
1, 174386, Note_off_c, 0, 49, 56
1, 174399, Control_c, 0, 67, 124
1, 174414, Control_c, 0, 67, 122
1, 174415, Note_on_c, 0, 56, 66
1, 174428, Control_c, 0, 67, 120
1, 174443, Control_c, 0, 67, 118
1, 174448, Note_off_c, 0, 56, 62
1, 174502, Control_c, 0, 67, 118
1, 174514, Note_on_c, 0, 56, 71
1, 174547, Control_c, 0, 67, 117
1, 174557, Note_off_c, 0, 56, 56
1, 174561, Control_c, 0, 67, 117
1, 174568, Note_on_c, 0, 65, 85
1, 174575, Note_on_c, 0, 61, 76
1, 174576, Control_c, 0, 67, 115
1, 174591, Control_c, 0, 67, 112
1, 174600, Note_off_c, 0, 61, 66
1, 174606, Control_c, 0, 67, 107
1, 174609, Note_off_c, 0, 65, 63
1, 174621, Control_c, 0, 67, 101
1, 174635, Control_c, 0, 67, 95
1, 174638, Note_on_c, 0, 65, 82
1, 174641, Note_on_c, 0, 70, 99
1, 174645, Note_on_c, 0, 61, 90
1, 174650, Control_c, 0, 67, 92
1, 174665, Control_c, 0, 64, 118
1, 174665, Control_c, 0, 67, 91
1, 174680, Control_c, 0, 64, 83
1, 174695, Control_c, 0, 64, 63
1, 174710, Control_c, 0, 64, 0
1, 174710, Control_c, 0, 67, 91
1, 174725, Control_c, 0, 67, 92
1, 174740, Control_c, 0, 67, 92
1, 174745, Note_on_c, 0, 56, 76
1, 174769, Control_c, 0, 67, 93
1, 174779, Note_off_c, 0, 56, 57
1, 174862, Note_on_c, 0, 56, 65
1, 174892, Note_off_c, 0, 56, 65
1, 174960, Note_on_c, 0, 53, 87
1, 174964, Note_on_c, 0, 49, 82
1, 174984, Control_c, 0, 67, 93
1, 174998, Note_off_c, 0, 53, 65
1, 174999, Control_c, 0, 67, 94
1, 175023, Note_off_c, 0, 49, 60
1, 175093, Note_on_c, 0, 56, 61
1, 175127, Note_off_c, 0, 56, 65
1, 175214, Note_on_c, 0, 56, 57
1, 175248, Note_off_c, 0, 56, 61
1, 175252, Control_c, 0, 67, 94
1, 175310, Control_c, 0, 67, 95
1, 175322, Note_on_c, 0, 53, 73
1, 175327, Note_on_c, 0, 49, 71
1, 175340, Control_c, 0, 67, 95
1, 175353, Note_off_c, 0, 53, 68
1, 175370, Control_c, 0, 67, 96
1, 175381, Note_off_c, 0, 49, 60
1, 175436, Note_on_c, 0, 56, 58
1, 175462, Note_off_c, 0, 56, 58
1, 175548, Control_c, 0, 67, 96
1, 175551, Note_on_c, 0, 56, 48
1, 175580, Note_off_c, 0, 56, 56
1, 175592, Control_c, 0, 67, 97
1, 175621, Control_c, 0, 67, 97
1, 175636, Control_c, 0, 67, 98
1, 175652, Control_c, 0, 67, 99
1, 175664, Note_on_c, 0, 53, 59
1, 175667, Control_c, 0, 67, 100
1, 175670, Note_on_c, 0, 49, 61
1, 175682, Control_c, 0, 67, 102
1, 175693, Note_off_c, 0, 53, 66
1, 175697, Control_c, 0, 67, 103
1, 175712, Control_c, 0, 67, 106
1, 175725, Note_off_c, 0, 49, 62
1, 175733, Control_c, 0, 67, 108
1, 175748, Control_c, 0, 67, 109
1, 175763, Control_c, 0, 67, 111
1, 175778, Control_c, 0, 67, 112
1, 175788, Note_on_c, 0, 56, 53
1, 175792, Note_off_c, 0, 65, 56
1, 175793, Control_c, 0, 67, 113
1, 175807, Control_c, 0, 67, 114
1, 175816, Note_off_c, 0, 56, 58
1, 175822, Control_c, 0, 67, 115
1, 175828, Note_off_c, 0, 61, 56
1, 175837, Control_c, 0, 67, 117
1, 175852, Control_c, 0, 67, 119
1, 175867, Control_c, 0, 67, 123
1, 175881, Control_c, 0, 67, 127
1, 175902, Note_on_c, 0, 56, 51
1, 175932, Note_off_c, 0, 56, 56
1, 176011, Note_on_c, 0, 68, 56
1, 176022, Note_on_c, 0, 60, 46
1, 176026, Note_on_c, 0, 63, 46
1, 176117, Note_off_c, 0, 70, 53
1, 176120, Note_on_c, 0, 56, 59
1, 176142, Note_off_c, 0, 56, 61
1, 176232, Note_on_c, 0, 56, 46
1, 176264, Note_off_c, 0, 56, 54
1, 176327, Note_off_c, 0, 60, 60
1, 176342, Note_on_c, 0, 51, 51
1, 176345, Note_on_c, 0, 48, 55
1, 176359, Note_off_c, 0, 63, 58
1, 176361, Note_off_c, 0, 68, 56
1, 176380, Note_off_c, 0, 51, 62
1, 176395, Note_off_c, 0, 48, 61
1, 176454, Note_on_c, 0, 56, 53
1, 176486, Note_off_c, 0, 56, 58
1, 176569, Note_on_c, 0, 56, 53
1, 176606, Note_off_c, 0, 56, 62
1, 176680, Note_on_c, 0, 69, 74
1, 176698, Note_on_c, 0, 64, 56
1, 176703, Note_on_c, 0, 61, 53
1, 176787, Note_on_c, 0, 56, 57
1, 176820, Note_off_c, 0, 56, 65
1, 176913, Note_on_c, 0, 56, 48
1, 176945, Note_off_c, 0, 56, 53
1, 177026, Note_on_c, 0, 52, 56
1, 177029, Note_on_c, 0, 49, 55
1, 177031, Control_c, 0, 64, 28
1, 177046, Control_c, 0, 64, 67
1, 177061, Control_c, 0, 64, 77
1, 177074, Note_off_c, 0, 52, 60
1, 177075, Control_c, 0, 64, 92
1, 177090, Control_c, 0, 64, 114
1, 177100, Note_off_c, 0, 49, 51
1, 177105, Control_c, 0, 64, 127
1, 177130, Note_off_c, 0, 64, 61
1, 177142, Note_on_c, 0, 56, 52
1, 177160, Note_off_c, 0, 61, 58
1, 177171, Note_off_c, 0, 56, 56
1, 177271, Note_on_c, 0, 56, 45
1, 177300, Note_off_c, 0, 56, 54
1, 177380, Control_c, 0, 64, 112
1, 177395, Control_c, 0, 64, 95
1, 177398, Note_on_c, 0, 68, 52
1, 177405, Note_on_c, 0, 63, 44
1, 177406, Note_on_c, 0, 60, 46
1, 177410, Control_c, 0, 64, 82
1, 177425, Control_c, 0, 64, 70
1, 177440, Control_c, 0, 64, 54
1, 177446, Note_off_c, 0, 69, 58
1, 177454, Control_c, 0, 64, 0
1, 177517, Note_on_c, 0, 56, 50
1, 177546, Note_off_c, 0, 56, 56
1, 177578, Note_off_c, 0, 60, 60
1, 177602, Note_off_c, 0, 63, 63
1, 177640, Note_on_c, 0, 56, 50
1, 177645, Note_off_c, 0, 68, 64
1, 177682, Note_off_c, 0, 56, 58
1, 177756, Note_on_c, 0, 51, 51
1, 177760, Note_on_c, 0, 48, 47
1, 177798, Note_off_c, 0, 51, 59
1, 177818, Note_off_c, 0, 48, 59
1, 177870, Note_on_c, 0, 56, 44
1, 177897, Note_off_c, 0, 56, 57
1, 177987, Note_on_c, 0, 56, 47
1, 178033, Note_off_c, 0, 56, 54
1, 178118, Note_on_c, 0, 81, 59
1, 178132, Note_on_c, 0, 76, 52
1, 178138, Note_on_c, 0, 73, 43
1, 178217, Control_c, 0, 64, 15
1, 178232, Control_c, 0, 64, 37
1, 178244, Note_on_c, 0, 56, 43
1, 178247, Control_c, 0, 64, 50
1, 178262, Control_c, 0, 64, 59
1, 178271, Note_off_c, 0, 56, 57
1, 178276, Control_c, 0, 64, 64
1, 178291, Control_c, 0, 64, 67
1, 178306, Control_c, 0, 64, 71
1, 178320, Control_c, 0, 64, 76
1, 178335, Control_c, 0, 64, 82
1, 178350, Control_c, 0, 64, 88
1, 178354, Note_on_c, 0, 56, 51
1, 178365, Control_c, 0, 64, 93
1, 178380, Control_c, 0, 64, 97
1, 178394, Control_c, 0, 64, 100
1, 178409, Note_off_c, 0, 56, 55
1, 178409, Control_c, 0, 64, 102
1, 178424, Control_c, 0, 64, 106
1, 178439, Control_c, 0, 64, 113
1, 178454, Control_c, 0, 64, 127
1, 178482, Note_on_c, 0, 52, 47
1, 178486, Note_on_c, 0, 49, 54
1, 178531, Note_off_c, 0, 52, 59
1, 178536, Note_off_c, 0, 76, 51
1, 178561, Note_off_c, 0, 49, 50
1, 178587, Note_off_c, 0, 73, 56
1, 178593, Note_on_c, 0, 56, 47
1, 178621, Note_off_c, 0, 56, 55
1, 178707, Note_on_c, 0, 56, 45
1, 178749, Note_off_c, 0, 56, 50
1, 178817, Control_c, 0, 64, 105
1, 178832, Control_c, 0, 64, 90
1, 178834, Note_on_c, 0, 75, 46
1, 178839, Note_on_c, 0, 72, 45
1, 178839, Note_on_c, 0, 80, 55
1, 178847, Control_c, 0, 64, 77
1, 178862, Control_c, 0, 64, 63
1, 178877, Control_c, 0, 64, 37
1, 178892, Control_c, 0, 64, 0
1, 178910, Note_off_c, 0, 81, 52
1, 178946, Note_on_c, 0, 56, 53
1, 178971, Note_off_c, 0, 56, 58
1, 179044, Note_off_c, 0, 80, 60
1, 179051, Note_on_c, 0, 56, 55
1, 179055, Note_off_c, 0, 75, 59
1, 179066, Note_off_c, 0, 72, 64
1, 179093, Note_off_c, 0, 56, 59
1, 179169, Note_on_c, 0, 51, 56
1, 179175, Note_on_c, 0, 48, 50
1, 179218, Note_off_c, 0, 51, 57
1, 179233, Note_off_c, 0, 48, 59
1, 179271, Note_on_c, 0, 56, 55
1, 179299, Note_off_c, 0, 56, 57
1, 179384, Note_on_c, 0, 56, 52
1, 179424, Note_off_c, 0, 56, 59
1, 179506, Note_on_c, 0, 68, 51
1, 179523, Note_on_c, 0, 62, 44
1, 179526, Note_on_c, 0, 59, 40
1, 179620, Note_on_c, 0, 56, 47
1, 179649, Note_off_c, 0, 56, 57
1, 179730, Note_on_c, 0, 56, 49
1, 179766, Note_off_c, 0, 56, 58
1, 179846, Note_off_c, 0, 62, 59
1, 179849, Note_on_c, 0, 50, 59
1, 179851, Note_off_c, 0, 59, 56
1, 179858, Note_on_c, 0, 47, 51
1, 179868, Note_off_c, 0, 68, 55
1, 179910, Note_off_c, 0, 50, 63
1, 179932, Note_off_c, 0, 47, 55
1, 179966, Note_on_c, 0, 56, 49
1, 180002, Note_off_c, 0, 56, 62
1, 180096, Note_on_c, 0, 56, 46
1, 180127, Note_off_c, 0, 56, 53
1, 180201, Note_on_c, 0, 67, 52
1, 180225, Note_on_c, 0, 58, 41
1, 180225, Note_on_c, 0, 61, 39
1, 180330, Note_on_c, 0, 56, 45
1, 180358, Note_off_c, 0, 56, 53
1, 180441, Note_on_c, 0, 56, 50
1, 180494, Note_off_c, 0, 56, 57
1, 180513, Note_off_c, 0, 67, 59
1, 180553, Note_off_c, 0, 61, 44
1, 180570, Note_on_c, 0, 49, 55
1, 180573, Note_on_c, 0, 46, 55
1, 180574, Note_off_c, 0, 58, 59
1, 180624, Note_off_c, 0, 49, 57
1, 180635, Note_off_c, 0, 46, 58
1, 180671, Note_on_c, 0, 56, 51
1, 180697, Note_off_c, 0, 56, 58
1, 180779, Note_on_c, 0, 56, 45
1, 180817, Note_off_c, 0, 56, 50
1, 180913, Note_on_c, 0, 66, 44
1, 180922, Note_on_c, 0, 60, 41
1, 180928, Note_on_c, 0, 57, 37
1, 181047, Note_on_c, 0, 56, 50
1, 181085, Note_off_c, 0, 56, 57
1, 181143, Note_off_c, 0, 57, 55
1, 181182, Note_on_c, 0, 56, 51
1, 181226, Note_off_c, 0, 60, 52
1, 181229, Note_off_c, 0, 56, 57
1, 181320, Note_off_c, 0, 66, 37
1, 181328, Note_on_c, 0, 45, 48
1, 181329, Note_on_c, 0, 48, 42
1, 181423, Note_off_c, 0, 48, 52
1, 181435, Note_off_c, 0, 45, 52
1, 181458, Note_on_c, 0, 56, 50
1, 181487, Note_off_c, 0, 56, 56
1, 181596, Note_on_c, 0, 56, 32
1, 181631, Note_off_c, 0, 56, 53
1, 181738, Note_on_c, 0, 56, 37
1, 181748, Note_on_c, 0, 66, 45
1, 181752, Note_on_c, 0, 60, 41
1, 181887, Note_on_c, 0, 44, 47
1, 182014, Note_off_c, 0, 44, 55
1, 182020, Note_on_c, 0, 43, 56
1, 182142, Note_off_c, 0, 43, 61
1, 182151, Note_on_c, 0, 44, 55
1, 182155, Note_off_c, 0, 56, 62
1, 182177, Note_off_c, 0, 60, 58
1, 182267, Note_off_c, 0, 66, 64
1, 182270, Note_off_c, 0, 44, 58
1, 182280, Note_on_c, 0, 46, 58
1, 182317, Control_c, 0, 64, 15
1, 182332, Control_c, 0, 64, 26
1, 182347, Control_c, 0, 64, 30
1, 182376, Control_c, 0, 64, 31
1, 182381, Note_off_c, 0, 46, 63
1, 182391, Control_c, 0, 64, 32
1, 182404, Note_on_c, 0, 44, 58
1, 182406, Control_c, 0, 64, 34
1, 182420, Control_c, 0, 64, 36
1, 182435, Control_c, 0, 64, 37
1, 182450, Control_c, 0, 64, 38
1, 182472, Control_c, 0, 64, 39
1, 182487, Control_c, 0, 64, 41
1, 182502, Control_c, 0, 64, 44
1, 182517, Control_c, 0, 64, 47
1, 182532, Control_c, 0, 64, 49
1, 182547, Control_c, 0, 64, 50
1, 182553, Note_off_c, 0, 44, 53
1, 182555, Note_on_c, 0, 75, 51
1, 182570, Note_on_c, 0, 42, 39
1, 182576, Control_c, 0, 64, 51
1, 182591, Control_c, 0, 64, 52
1, 182606, Control_c, 0, 64, 54
1, 182620, Control_c, 0, 64, 57
1, 182635, Control_c, 0, 64, 60
1, 182650, Control_c, 0, 64, 63
1, 182665, Control_c, 0, 64, 66
1, 182672, Note_on_c, 0, 44, 53
1, 182680, Control_c, 0, 64, 70
1, 182687, Note_off_c, 0, 75, 59
1, 182694, Control_c, 0, 64, 75
1, 182696, Note_on_c, 0, 77, 49
1, 182699, Note_off_c, 0, 42, 36
1, 182709, Control_c, 0, 64, 81
1, 182724, Control_c, 0, 64, 87
1, 182739, Control_c, 0, 64, 94
1, 182754, Control_c, 0, 64, 103
1, 182768, Control_c, 0, 64, 114
1, 182783, Control_c, 0, 64, 127
1, 182796, Note_on_c, 0, 42, 59
1, 182801, Note_on_c, 0, 75, 65
1, 182802, Note_off_c, 0, 77, 57
1, 182894, Note_off_c, 0, 42, 55
1, 182901, Note_off_c, 0, 75, 57
1, 182911, Note_on_c, 0, 73, 63
1, 182915, Note_on_c, 0, 41, 46
1, 183012, Note_off_c, 0, 41, 59
1, 183016, Note_on_c, 0, 42, 44
1, 183018, Note_off_c, 0, 73, 61
1, 183026, Note_on_c, 0, 75, 63
1, 183098, Note_off_c, 0, 42, 58
1, 183131, Note_on_c, 0, 41, 54
1, 183134, Note_on_c, 0, 73, 64
1, 183184, Control_c, 0, 64, 112
1, 183199, Control_c, 0, 64, 99
1, 183200, Note_off_c, 0, 75, 35
1, 183221, Control_c, 0, 64, 87
1, 183226, Note_off_c, 0, 73, 57
1, 183236, Control_c, 0, 64, 75
1, 183250, Note_on_c, 0, 72, 55
1, 183250, Control_c, 0, 64, 64
1, 183257, Note_off_c, 0, 41, 54
1, 183261, Note_off_c, 0, 44, 50
1, 183265, Control_c, 0, 64, 36
1, 183268, Note_on_c, 0, 39, 47
1, 183280, Control_c, 0, 64, 0
1, 183369, Control_c, 0, 64, 44
1, 183380, Note_off_c, 0, 39, 60
1, 183382, Note_on_c, 0, 44, 51
1, 183384, Note_on_c, 0, 78, 56
1, 183384, Control_c, 0, 64, 64
1, 183399, Control_c, 0, 64, 74
1, 183406, Note_off_c, 0, 72, 50
1, 183414, Control_c, 0, 64, 87
1, 183429, Control_c, 0, 64, 107
1, 183431, Note_off_c, 0, 44, 60
1, 183443, Control_c, 0, 64, 127
1, 183499, Note_on_c, 0, 43, 64
1, 183502, Note_off_c, 0, 78, 63
1, 183617, Note_off_c, 0, 43, 61
1, 183621, Note_on_c, 0, 44, 69
1, 183734, Note_on_c, 0, 46, 71
1, 183750, Note_off_c, 0, 44, 48
1, 183815, Control_c, 0, 64, 119
1, 183830, Control_c, 0, 64, 110
1, 183837, Note_off_c, 0, 46, 64
1, 183845, Control_c, 0, 64, 103
1, 183847, Note_on_c, 0, 44, 83
1, 183859, Control_c, 0, 64, 96
1, 183874, Control_c, 0, 64, 89
1, 183889, Control_c, 0, 64, 83
1, 183889, Control_c, 0, 67, 126
1, 183904, Control_c, 0, 64, 76
1, 183904, Control_c, 0, 67, 123
1, 183919, Control_c, 0, 64, 70
1, 183919, Control_c, 0, 67, 119
1, 183933, Control_c, 0, 64, 64
1, 183933, Control_c, 0, 67, 116
1, 183948, Control_c, 0, 64, 56
1, 183948, Control_c, 0, 67, 112
1, 183966, Note_on_c, 0, 78, 74
1, 183971, Control_c, 0, 64, 47
1, 183971, Control_c, 0, 67, 108
1, 183976, Note_on_c, 0, 39, 66
1, 183986, Control_c, 0, 64, 41
1, 183986, Control_c, 0, 67, 101
1, 184001, Control_c, 0, 64, 40
1, 184001, Control_c, 0, 67, 90
1, 184015, Control_c, 0, 64, 39
1, 184015, Control_c, 0, 67, 78
1, 184030, Control_c, 0, 64, 39
1, 184030, Control_c, 0, 67, 65
1, 184045, Control_c, 0, 64, 37
1, 184045, Control_c, 0, 67, 51
1, 184060, Control_c, 0, 67, 33
1, 184074, Note_on_c, 0, 80, 79
1, 184074, Control_c, 0, 64, 38
1, 184074, Control_c, 0, 67, 14
1, 184081, Note_on_c, 0, 41, 70
1, 184089, Control_c, 0, 64, 39
1, 184089, Control_c, 0, 67, 0
1, 184090, Note_off_c, 0, 39, 60
1, 184099, Note_off_c, 0, 78, 63
1, 184119, Control_c, 0, 64, 38
1, 184134, Control_c, 0, 64, 38
1, 184187, Note_on_c, 0, 78, 86
1, 184192, Note_off_c, 0, 41, 61
1, 184193, Control_c, 0, 64, 36
1, 184196, Note_on_c, 0, 39, 72
1, 184208, Control_c, 0, 64, 34
1, 184222, Control_c, 0, 64, 33
1, 184233, Note_off_c, 0, 80, 56
1, 184237, Control_c, 0, 64, 32
1, 184252, Control_c, 0, 64, 32
1, 184267, Control_c, 0, 64, 29
1, 184280, Control_c, 0, 64, 27
1, 184297, Note_on_c, 0, 77, 74
1, 184300, Note_on_c, 0, 37, 65
1, 184301, Note_off_c, 0, 39, 61
1, 184310, Control_c, 0, 64, 26
1, 184322, Note_off_c, 0, 78, 61
1, 184325, Control_c, 0, 64, 25
1, 184339, Control_c, 0, 64, 24
1, 184354, Control_c, 0, 64, 22
1, 184369, Control_c, 0, 64, 21
1, 184383, Control_c, 0, 64, 18
1, 184398, Control_c, 0, 64, 0
1, 184409, Note_on_c, 0, 78, 88
1, 184409, Note_off_c, 0, 77, 64
1, 184410, Note_on_c, 0, 39, 73
1, 184413, Note_off_c, 0, 37, 62
1, 184508, Note_on_c, 0, 77, 76
1, 184508, Note_off_c, 0, 78, 63
1, 184520, Note_on_c, 0, 37, 59
1, 184522, Note_off_c, 0, 39, 56
1, 184598, Note_off_c, 0, 77, 62
1, 184638, Note_off_c, 0, 37, 54
1, 184642, Note_off_c, 0, 44, 57
1, 184643, Note_on_c, 0, 36, 67
1, 184643, Note_on_c, 0, 75, 68
1, 184681, Control_c, 0, 64, 39
1, 184696, Control_c, 0, 64, 63
1, 184718, Control_c, 0, 64, 71
1, 184733, Control_c, 0, 64, 81
1, 184748, Control_c, 0, 64, 94
1, 184750, Note_off_c, 0, 36, 60
1, 184758, Note_on_c, 0, 44, 69
1, 184762, Control_c, 0, 64, 125
1, 184768, Note_on_c, 0, 87, 79
1, 184777, Control_c, 0, 64, 127
1, 184785, Note_off_c, 0, 44, 64
1, 184815, Note_off_c, 0, 75, 28
1, 184857, Note_on_c, 0, 43, 78
1, 184881, Note_off_c, 0, 87, 63
1, 184981, Note_on_c, 0, 44, 80
1, 184990, Note_off_c, 0, 43, 62
1, 185088, Control_c, 0, 64, 121
1, 185091, Note_on_c, 0, 46, 87
1, 185094, Note_off_c, 0, 44, 56
1, 185103, Control_c, 0, 64, 113
1, 185118, Control_c, 0, 64, 107
1, 185133, Control_c, 0, 64, 103
1, 185148, Control_c, 0, 64, 100
1, 185162, Control_c, 0, 64, 95
1, 185174, Note_off_c, 0, 46, 64
1, 185177, Control_c, 0, 64, 90
1, 185192, Control_c, 0, 64, 85
1, 185199, Note_on_c, 0, 44, 89
1, 185206, Control_c, 0, 64, 80
1, 185221, Control_c, 0, 64, 75
1, 185237, Control_c, 0, 64, 69
1, 185252, Control_c, 0, 64, 65
1, 185267, Control_c, 0, 64, 61
1, 185282, Control_c, 0, 64, 57
1, 185297, Control_c, 0, 64, 53
1, 185311, Control_c, 0, 64, 49
1, 185326, Control_c, 0, 64, 41
1, 185328, Note_on_c, 0, 36, 70
1, 185334, Note_on_c, 0, 87, 87
1, 185341, Control_c, 0, 64, 28
1, 185356, Control_c, 0, 64, 0
1, 185440, Note_on_c, 0, 37, 73
1, 185444, Note_on_c, 0, 89, 90
1, 185467, Note_off_c, 0, 36, 60
1, 185480, Note_off_c, 0, 87, 64
1, 185561, Note_on_c, 0, 87, 92
1, 185563, Note_on_c, 0, 36, 76
1, 185592, Note_off_c, 0, 37, 56
1, 185611, Note_off_c, 0, 89, 57
1, 185663, Note_on_c, 0, 34, 73
1, 185674, Note_off_c, 0, 36, 60
1, 185678, Note_on_c, 0, 85, 88
1, 185712, Note_off_c, 0, 87, 64
1, 185772, Note_on_c, 0, 36, 75
1, 185779, Note_off_c, 0, 34, 61
1, 185784, Note_on_c, 0, 87, 88
1, 185812, Note_off_c, 0, 85, 63
1, 185886, Note_on_c, 0, 34, 73
1, 185901, Note_on_c, 0, 85, 86
1, 185920, Note_off_c, 0, 36, 54
1, 185933, Note_off_c, 0, 44, 54
1, 185985, Note_off_c, 0, 87, 55
1, 186000, Note_on_c, 0, 32, 63
1, 186008, Note_on_c, 0, 84, 79
1, 186036, Note_off_c, 0, 85, 61
1, 186067, Note_off_c, 0, 34, 36
1, 186105, Note_off_c, 0, 32, 61
1, 186106, Note_on_c, 0, 31, 68
1, 186120, Note_on_c, 0, 85, 80
1, 186121, Note_off_c, 0, 84, 63
1, 186222, Note_on_c, 0, 32, 65
1, 186242, Note_on_c, 0, 84, 76
1, 186258, Note_off_c, 0, 31, 37
1, 186286, Note_off_c, 0, 85, 62
1, 186305, Control_c, 0, 67, 9
1, 186320, Control_c, 0, 67, 11
1, 186334, Control_c, 0, 67, 12
1, 186349, Note_on_c, 0, 34, 63
1, 186349, Control_c, 0, 67, 14
1, 186350, Note_off_c, 0, 32, 57
1, 186358, Note_on_c, 0, 82, 74
1, 186359, Note_off_c, 0, 84, 59
1, 186364, Control_c, 0, 67, 17
1, 186379, Control_c, 0, 67, 19
1, 186394, Control_c, 0, 67, 21
1, 186408, Control_c, 0, 67, 24
1, 186423, Control_c, 0, 67, 28
1, 186438, Control_c, 0, 67, 32
1, 186452, Control_c, 0, 67, 36
1, 186464, Note_on_c, 0, 32, 63
1, 186465, Note_off_c, 0, 82, 63
1, 186466, Note_on_c, 0, 84, 74
1, 186467, Note_off_c, 0, 34, 56
1, 186467, Control_c, 0, 67, 39
1, 186482, Control_c, 0, 67, 43
1, 186497, Control_c, 0, 67, 47
1, 186512, Control_c, 0, 67, 51
1, 186528, Control_c, 0, 67, 54
1, 186542, Control_c, 0, 67, 57
1, 186557, Control_c, 0, 67, 61
1, 186572, Control_c, 0, 67, 64
1, 186579, Note_on_c, 0, 82, 73
1, 186580, Note_off_c, 0, 32, 55
1, 186583, Note_on_c, 0, 34, 63
1, 186587, Control_c, 0, 67, 66
1, 186588, Note_off_c, 0, 84, 55
1, 186602, Control_c, 0, 67, 67
1, 186693, Note_off_c, 0, 34, 58
1, 186702, Note_on_c, 0, 35, 55
1, 186702, Note_on_c, 0, 80, 66
1, 186708, Note_off_c, 0, 82, 61
1, 186750, Control_c, 0, 67, 66
1, 186765, Control_c, 0, 67, 66
1, 186805, Note_off_c, 0, 35, 62
1, 186806, Note_off_c, 0, 80, 61
1, 186811, Note_on_c, 0, 34, 57
1, 186815, Note_on_c, 0, 82, 69
1, 186937, Note_off_c, 0, 34, 53
1, 186938, Note_on_c, 0, 35, 56
1, 186940, Note_on_c, 0, 80, 60
1, 186940, Note_off_c, 0, 82, 62
1, 187030, Note_off_c, 0, 35, 62
1, 187063, Note_off_c, 0, 80, 60
1, 187072, Note_on_c, 0, 36, 49
1, 187073, Note_on_c, 0, 78, 58
1, 187164, Note_off_c, 0, 36, 57
1, 187170, Note_off_c, 0, 78, 60
1, 187179, Note_on_c, 0, 35, 51
1, 187192, Note_on_c, 0, 80, 58
1, 187202, Control_c, 0, 64, 32
1, 187217, Control_c, 0, 64, 58
1, 187232, Control_c, 0, 64, 69
1, 187247, Control_c, 0, 64, 79
1, 187262, Control_c, 0, 64, 92
1, 187276, Control_c, 0, 64, 107
1, 187291, Note_off_c, 0, 35, 56
1, 187291, Control_c, 0, 64, 127
1, 187310, Note_on_c, 0, 36, 47
1, 187310, Note_on_c, 0, 78, 56
1, 187343, Note_off_c, 0, 80, 37
1, 187347, Note_off_c, 0, 36, 54
1, 187510, Note_on_c, 0, 77, 49
1, 187524, Note_on_c, 0, 37, 49
1, 187528, Control_c, 0, 67, 66
1, 187548, Note_off_c, 0, 78, 37
1, 187558, Control_c, 0, 64, 116
1, 187573, Control_c, 0, 64, 100
1, 187587, Control_c, 0, 64, 88
1, 187602, Control_c, 0, 64, 73
1, 187617, Control_c, 0, 64, 59
1, 187632, Control_c, 0, 64, 0
1, 187692, Control_c, 0, 67, 66
1, 187729, Control_c, 0, 64, 37
1, 187731, Note_on_c, 0, 49, 34
1, 187744, Control_c, 0, 64, 63
1, 187745, Note_on_c, 0, 44, 25
1, 187746, Note_off_c, 0, 37, 55
1, 187750, Note_on_c, 0, 41, 12
1, 187759, Control_c, 0, 64, 74
1, 187759, Control_c, 0, 67, 65
1, 187774, Control_c, 0, 64, 90
1, 187788, Control_c, 0, 64, 127
1, 187829, Note_off_c, 0, 44, 36
1, 187841, Note_off_c, 0, 49, 37
1, 187871, Note_on_c, 0, 37, 30
1, 187906, Control_c, 0, 67, 65
1, 187922, Note_off_c, 0, 77, 61
1, 187949, Note_off_c, 0, 41, 0
1, 187964, Note_on_c, 0, 41, 14
1, 187978, Note_on_c, 0, 49, 37
1, 187979, Note_on_c, 0, 44, 35
1, 187982, Note_off_c, 0, 37, 33
1, 188061, Note_off_c, 0, 49, 44
1, 188065, Note_off_c, 0, 44, 38
1, 188097, Note_on_c, 0, 37, 35
1, 188108, Note_off_c, 0, 41, 39
1, 188205, Note_on_c, 0, 41, 37
1, 188210, Note_on_c, 0, 49, 35
1, 188213, Note_on_c, 0, 44, 38
1, 188225, Note_off_c, 0, 37, 38
1, 188282, Note_off_c, 0, 49, 51
1, 188291, Control_c, 0, 67, 64
1, 188306, Control_c, 0, 67, 64
1, 188312, Note_off_c, 0, 44, 37
1, 188321, Control_c, 0, 67, 63
1, 188331, Note_on_c, 0, 37, 39
1, 188336, Control_c, 0, 67, 63
1, 188351, Control_c, 0, 67, 62
1, 188365, Note_off_c, 0, 41, 36
1, 188365, Control_c, 0, 67, 62
1, 188380, Control_c, 0, 67, 60
1, 188395, Control_c, 0, 67, 58
1, 188410, Control_c, 0, 67, 54
1, 188425, Control_c, 0, 67, 46
1, 188440, Control_c, 0, 67, 25
1, 188443, Note_on_c, 0, 41, 26
1, 188462, Control_c, 0, 67, 0
1, 188467, Note_on_c, 0, 44, 40
1, 188467, Note_on_c, 0, 49, 35
1, 188469, Note_off_c, 0, 37, 34
1, 188547, Note_off_c, 0, 49, 49
1, 188576, Note_off_c, 0, 44, 37
1, 188578, Note_on_c, 0, 37, 43
1, 188628, Note_off_c, 0, 41, 31
1, 188726, Note_on_c, 0, 65, 53
1, 188731, Note_on_c, 0, 41, 7
1, 188739, Note_on_c, 0, 53, 36
1, 188744, Note_on_c, 0, 44, 32
1, 188753, Note_on_c, 0, 49, 31
1, 188758, Note_off_c, 0, 37, 39
1, 188802, Note_off_c, 0, 53, 59
1, 188828, Note_off_c, 0, 65, 62
1, 188872, Note_on_c, 0, 37, 57
1, 188896, Note_off_c, 0, 44, 36
1, 188899, Note_off_c, 0, 49, 35
1, 188907, Note_off_c, 0, 41, 37
1, 189006, Note_off_c, 0, 37, 51
1, 189012, Note_on_c, 0, 41, 36
1, 189012, Note_on_c, 0, 44, 45
1, 189028, Note_on_c, 0, 49, 33
1, 189045, Note_on_c, 0, 68, 72
1, 189058, Note_on_c, 0, 56, 40
1, 189070, Note_off_c, 0, 68, 70
1, 189089, Note_off_c, 0, 56, 54
1, 189135, Note_off_c, 0, 49, 33
1, 189164, Note_on_c, 0, 73, 76
1, 189182, Note_off_c, 0, 44, 30
1, 189193, Note_on_c, 0, 61, 49
1, 189203, Note_on_c, 0, 37, 41
1, 189208, Note_off_c, 0, 41, 35
1, 189271, Control_c, 0, 64, 116
1, 189285, Control_c, 0, 64, 91
1, 189300, Control_c, 0, 64, 76
1, 189307, Note_off_c, 0, 37, 55
1, 189315, Control_c, 0, 64, 69
1, 189316, Note_off_c, 0, 61, 59
1, 189326, Note_on_c, 0, 41, 40
1, 189330, Control_c, 0, 64, 73
1, 189331, Note_on_c, 0, 44, 35
1, 189345, Control_c, 0, 64, 83
1, 189346, Note_on_c, 0, 49, 36
1, 189359, Control_c, 0, 64, 105
1, 189374, Control_c, 0, 64, 127
1, 189406, Note_off_c, 0, 49, 45
1, 189416, Note_on_c, 0, 37, 46
1, 189424, Note_off_c, 0, 44, 38
1, 189467, Note_off_c, 0, 41, 32
1, 189540, Note_off_c, 0, 37, 58
1, 189544, Note_on_c, 0, 77, 75
1, 189552, Note_on_c, 0, 41, 40
1, 189567, Note_on_c, 0, 44, 36
1, 189569, Note_on_c, 0, 65, 51
1, 189572, Note_on_c, 0, 49, 26
1, 189625, Note_off_c, 0, 77, 61
1, 189631, Note_off_c, 0, 65, 62
1, 189634, Note_off_c, 0, 49, 50
1, 189639, Note_off_c, 0, 44, 54
1, 189662, Note_on_c, 0, 37, 56
1, 189664, Note_off_c, 0, 73, 26
1, 189713, Note_off_c, 0, 41, 30
1, 189758, Note_on_c, 0, 41, 39
1, 189771, Note_on_c, 0, 49, 43
1, 189778, Note_on_c, 0, 44, 44
1, 189808, Note_off_c, 0, 37, 35
1, 189841, Note_on_c, 0, 73, 74
1, 189850, Note_on_c, 0, 61, 66
1, 189881, Note_off_c, 0, 61, 65
1, 189916, Note_off_c, 0, 44, 50
1, 189919, Note_off_c, 0, 49, 34
1, 189920, Note_off_c, 0, 73, 62
1, 189924, Note_on_c, 0, 72, 77
1, 189928, Note_off_c, 0, 41, 39
1, 189932, Note_on_c, 0, 60, 58
1, 189950, Note_on_c, 0, 39, 50
1, 189959, Control_c, 0, 64, 123
1, 189974, Control_c, 0, 64, 93
1, 189989, Control_c, 0, 64, 71
1, 190003, Control_c, 0, 64, 32
1, 190018, Control_c, 0, 64, 0
1, 190062, Note_off_c, 0, 39, 60
1, 190079, Control_c, 0, 64, 58
1, 190082, Note_on_c, 0, 42, 42
1, 190085, Note_on_c, 0, 44, 35
1, 190085, Note_on_c, 0, 51, 36
1, 190094, Control_c, 0, 64, 72
1, 190104, Note_off_c, 0, 60, 64
1, 190108, Control_c, 0, 64, 92
1, 190123, Control_c, 0, 64, 127
1, 190140, Note_off_c, 0, 72, 63
1, 190151, Note_off_c, 0, 44, 54
1, 190151, Note_off_c, 0, 51, 50
1, 190164, Note_off_c, 0, 42, 53
1, 190174, Note_on_c, 0, 39, 54
1, 190293, Note_off_c, 0, 39, 57
1, 190305, Note_on_c, 0, 42, 47
1, 190305, Note_on_c, 0, 75, 70
1, 190315, Note_on_c, 0, 63, 59
1, 190316, Note_on_c, 0, 51, 38
1, 190327, Note_on_c, 0, 44, 37
1, 190378, Note_off_c, 0, 75, 62
1, 190381, Note_off_c, 0, 63, 59
1, 190395, Note_off_c, 0, 44, 55
1, 190395, Note_off_c, 0, 51, 53
1, 190398, Note_off_c, 0, 42, 56
1, 190421, Note_on_c, 0, 39, 60
1, 190524, Note_on_c, 0, 44, 48
1, 190531, Note_on_c, 0, 51, 46
1, 190539, Note_off_c, 0, 39, 49
1, 190540, Note_on_c, 0, 42, 44
1, 190588, Note_off_c, 0, 42, 52
1, 190592, Note_off_c, 0, 44, 56
1, 190600, Note_off_c, 0, 51, 60
1, 190602, Note_on_c, 0, 72, 72
1, 190620, Note_on_c, 0, 60, 43
1, 190646, Note_off_c, 0, 60, 57
1, 190646, Note_off_c, 0, 72, 49
1, 190743, Note_on_c, 0, 73, 65
1, 190757, Note_on_c, 0, 41, 50
1, 190765, Note_on_c, 0, 61, 44
1, 190768, Control_c, 0, 64, 110
1, 190783, Control_c, 0, 64, 88
1, 190798, Control_c, 0, 64, 70
1, 190813, Control_c, 0, 64, 27
1, 190828, Control_c, 0, 64, 0
1, 190872, Control_c, 0, 64, 26
1, 190887, Control_c, 0, 64, 61
1, 190902, Control_c, 0, 64, 73
1, 190910, Note_off_c, 0, 41, 59
1, 190917, Note_on_c, 0, 49, 44
1, 190917, Control_c, 0, 64, 93
1, 190925, Note_off_c, 0, 73, 64
1, 190927, Note_on_c, 0, 44, 39
1, 190932, Control_c, 0, 64, 127
1, 190938, Note_on_c, 0, 53, 35
1, 190953, Note_off_c, 0, 61, 53
1, 190995, Note_off_c, 0, 53, 51
1, 191001, Note_off_c, 0, 49, 54
1, 191027, Note_off_c, 0, 44, 37
1, 191047, Note_on_c, 0, 41, 45
1, 191174, Note_on_c, 0, 68, 55
1, 191186, Note_on_c, 0, 49, 36
1, 191193, Note_on_c, 0, 44, 36
1, 191198, Note_off_c, 0, 41, 35
1, 191207, Note_on_c, 0, 56, 35
1, 191230, Note_on_c, 0, 53, 10
1, 191282, Note_off_c, 0, 53, 49
1, 191301, Note_off_c, 0, 49, 37
1, 191310, Note_on_c, 0, 41, 55
1, 191337, Note_off_c, 0, 44, 30
1, 191406, Note_off_c, 0, 41, 59
1, 191412, Note_on_c, 0, 53, 40
1, 191412, Note_on_c, 0, 49, 51
1, 191420, Note_on_c, 0, 44, 36
1, 191508, Note_off_c, 0, 53, 57
1, 191513, Note_off_c, 0, 49, 55
1, 191536, Note_off_c, 0, 44, 47
1, 191537, Note_on_c, 0, 41, 57
1, 191564, Note_off_c, 0, 56, 52
1, 191666, Note_on_c, 0, 44, 56
1, 191668, Note_off_c, 0, 41, 59
1, 191670, Note_on_c, 0, 49, 52
1, 191678, Note_on_c, 0, 53, 49
1, 191747, Note_off_c, 0, 53, 59
1, 191774, Note_on_c, 0, 41, 65
1, 191775, Note_off_c, 0, 49, 59
1, 191784, Note_off_c, 0, 44, 50
1, 191796, Note_off_c, 0, 41, 63
1, 191948, Note_on_c, 0, 70, 85
1, 191984, Note_on_c, 0, 51, 43
1, 191986, Note_on_c, 0, 58, 59
1, 191989, Note_on_c, 0, 54, 45
1, 192004, Note_on_c, 0, 49, 53
1, 192044, Note_off_c, 0, 68, 60
1, 192050, Control_c, 0, 64, 123
1, 192065, Control_c, 0, 64, 91
1, 192080, Control_c, 0, 64, 68
1, 192095, Control_c, 0, 64, 33
1, 192107, Note_off_c, 0, 49, 59
1, 192110, Control_c, 0, 64, 0
1, 192113, Note_off_c, 0, 54, 54
1, 192115, Note_on_c, 0, 42, 69
1, 192115, Note_off_c, 0, 51, 55
1, 192124, Control_c, 0, 64, 36
1, 192139, Control_c, 0, 64, 65
1, 192140, Note_off_c, 0, 58, 58
1, 192154, Control_c, 0, 64, 81
1, 192169, Control_c, 0, 64, 127
1, 192247, Note_on_c, 0, 51, 61
1, 192252, Note_on_c, 0, 49, 58
1, 192252, Note_off_c, 0, 42, 59
1, 192260, Note_on_c, 0, 54, 57
1, 192297, Note_on_c, 0, 66, 86
1, 192345, Note_off_c, 0, 51, 53
1, 192392, Note_on_c, 0, 65, 90
1, 192409, Note_off_c, 0, 49, 59
1, 192416, Note_on_c, 0, 44, 66
1, 192428, Note_off_c, 0, 54, 33
1, 192456, Note_off_c, 0, 70, 51
1, 192458, Control_c, 0, 64, 100
1, 192473, Control_c, 0, 64, 76
1, 192488, Control_c, 0, 64, 45
1, 192503, Control_c, 0, 64, 0
1, 192535, Note_on_c, 0, 49, 61
1, 192542, Note_on_c, 0, 56, 64
1, 192542, Note_on_c, 0, 53, 60
1, 192554, Note_off_c, 0, 44, 60
1, 192592, Control_c, 0, 64, 33
1, 192598, Note_off_c, 0, 66, 30
1, 192607, Control_c, 0, 64, 65
1, 192616, Note_off_c, 0, 56, 59
1, 192621, Control_c, 0, 64, 77
1, 192628, Note_off_c, 0, 53, 62
1, 192636, Control_c, 0, 64, 97
1, 192637, Note_on_c, 0, 44, 74
1, 192649, Note_off_c, 0, 49, 55
1, 192651, Control_c, 0, 64, 127
1, 192744, Note_on_c, 0, 68, 89
1, 192768, Note_on_c, 0, 49, 62
1, 192768, Note_on_c, 0, 53, 62
1, 192776, Note_on_c, 0, 56, 57
1, 192795, Note_off_c, 0, 44, 59
1, 192798, Note_off_c, 0, 65, 58
1, 192847, Note_off_c, 0, 56, 58
1, 192865, Note_off_c, 0, 53, 63
1, 192870, Note_on_c, 0, 44, 75
1, 192891, Note_off_c, 0, 49, 53
1, 193001, Note_on_c, 0, 49, 58
1, 193001, Note_on_c, 0, 53, 58
1, 193004, Note_on_c, 0, 56, 54
1, 193031, Note_on_c, 0, 65, 90
1, 193031, Note_off_c, 0, 44, 58
1, 193087, Note_off_c, 0, 68, 64
1, 193096, Note_off_c, 0, 53, 61
1, 193108, Note_on_c, 0, 63, 97
1, 193117, Control_c, 0, 64, 108
1, 193120, Note_on_c, 0, 44, 68
1, 193120, Note_off_c, 0, 56, 38
1, 193128, Note_off_c, 0, 49, 59
1, 193129, Note_off_c, 0, 65, 62
1, 193132, Control_c, 0, 64, 78
1, 193147, Control_c, 0, 64, 20
1, 193162, Control_c, 0, 64, 0
1, 193233, Note_on_c, 0, 56, 64
1, 193237, Note_on_c, 0, 48, 58
1, 193243, Note_on_c, 0, 51, 68
1, 193258, Note_off_c, 0, 44, 58
1, 193282, Control_c, 0, 64, 52
1, 193297, Control_c, 0, 64, 69
1, 193312, Control_c, 0, 64, 86
1, 193320, Note_off_c, 0, 56, 62
1, 193326, Control_c, 0, 64, 115
1, 193335, Note_off_c, 0, 51, 58
1, 193341, Control_c, 0, 64, 127
1, 193348, Note_on_c, 0, 44, 72
1, 193388, Note_off_c, 0, 48, 37
1, 193460, Note_on_c, 0, 66, 99
1, 193479, Note_on_c, 0, 51, 63
1, 193486, Note_on_c, 0, 56, 68
1, 193496, Note_off_c, 0, 44, 60
1, 193497, Note_on_c, 0, 48, 61
1, 193504, Note_off_c, 0, 63, 64
1, 193555, Note_off_c, 0, 56, 61
1, 193580, Note_off_c, 0, 48, 60
1, 193580, Note_off_c, 0, 51, 60
1, 193584, Note_on_c, 0, 44, 81
1, 193706, Note_on_c, 0, 51, 71
1, 193710, Note_on_c, 0, 56, 70
1, 193712, Note_on_c, 0, 48, 61
1, 193761, Note_off_c, 0, 44, 57
1, 193785, Note_off_c, 0, 56, 63
1, 193788, Note_on_c, 0, 63, 97
1, 193857, Note_off_c, 0, 66, 60
1, 193876, Note_off_c, 0, 51, 49
1, 193880, Note_on_c, 0, 60, 97
1, 193901, Note_on_c, 0, 45, 77
1, 193923, Note_off_c, 0, 48, 48
1, 193926, Control_c, 0, 64, 86
1, 193934, Note_off_c, 0, 63, 57
1, 193941, Control_c, 0, 64, 43
1, 193956, Control_c, 0, 64, 0
1, 194035, Note_on_c, 0, 53, 61
1, 194036, Note_on_c, 0, 48, 59
1, 194041, Note_on_c, 0, 57, 57
1, 194061, Control_c, 0, 64, 34
1, 194062, Note_off_c, 0, 45, 61
1, 194075, Control_c, 0, 64, 63
1, 194090, Control_c, 0, 64, 77
1, 194105, Control_c, 0, 64, 117
1, 194120, Control_c, 0, 64, 127
1, 194145, Note_off_c, 0, 53, 58
1, 194148, Note_off_c, 0, 57, 38
1, 194149, Note_on_c, 0, 45, 71
1, 194190, Note_off_c, 0, 48, 34
1, 194279, Note_on_c, 0, 48, 43
1, 194285, Note_on_c, 0, 53, 45
1, 194289, Note_on_c, 0, 65, 85
1, 194298, Note_on_c, 0, 57, 47
1, 194300, Note_off_c, 0, 45, 57
1, 194312, Control_c, 0, 64, 108
1, 194327, Control_c, 0, 64, 83
1, 194342, Control_c, 0, 64, 62
1, 194357, Control_c, 0, 64, 0
1, 194401, Note_off_c, 0, 48, 50
1, 194403, Note_on_c, 0, 45, 72
1, 194411, Note_off_c, 0, 53, 51
1, 194411, Note_off_c, 0, 57, 50
1, 194416, Control_c, 0, 64, 49
1, 194431, Control_c, 0, 64, 67
1, 194450, Note_off_c, 0, 60, 54
1, 194453, Control_c, 0, 64, 84
1, 194468, Control_c, 0, 64, 118
1, 194482, Control_c, 0, 64, 127
1, 194515, Note_on_c, 0, 48, 42
1, 194526, Note_off_c, 0, 45, 62
1, 194527, Note_on_c, 0, 53, 54
1, 194540, Note_on_c, 0, 57, 53
1, 194653, Note_on_c, 0, 45, 68
1, 194656, Note_off_c, 0, 57, 37
1, 194673, Note_off_c, 0, 53, 38
1, 194677, Note_off_c, 0, 48, 36
1, 194688, Note_off_c, 0, 65, 64
1, 194780, Note_off_c, 0, 45, 60
1, 194785, Note_on_c, 0, 48, 45
1, 194787, Note_on_c, 0, 53, 45
1, 194795, Note_on_c, 0, 57, 42
1, 194869, Note_off_c, 0, 48, 58
1, 194876, Note_off_c, 0, 57, 55
1, 194891, Note_on_c, 0, 45, 68
1, 194937, Note_off_c, 0, 45, 63
1, 194965, Note_off_c, 0, 53, 24
1, 195061, Control_c, 0, 64, 103
1, 195076, Control_c, 0, 64, 79
1, 195079, Note_on_c, 0, 73, 64
1, 195091, Control_c, 0, 64, 50
1, 195101, Note_on_c, 0, 61, 41
1, 195105, Control_c, 0, 64, 0
1, 195108, Note_on_c, 0, 53, 18
1, 195114, Note_on_c, 0, 49, 45
1, 195124, Note_on_c, 0, 58, 35
1, 195134, Note_off_c, 0, 61, 53
1, 195165, Control_c, 0, 64, 47
1, 195180, Control_c, 0, 64, 68
1, 195202, Control_c, 0, 64, 85
1, 195207, Note_off_c, 0, 58, 49
1, 195213, Note_off_c, 0, 49, 55
1, 195217, Control_c, 0, 64, 127
1, 195223, Note_on_c, 0, 46, 54
1, 195308, Note_off_c, 0, 53, 0
1, 195325, Note_on_c, 0, 53, 34
1, 195328, Note_off_c, 0, 46, 61
1, 195336, Note_on_c, 0, 49, 44
1, 195336, Note_on_c, 0, 58, 49
1, 195359, Note_off_c, 0, 73, 63
1, 195361, Note_on_c, 0, 77, 70
1, 195386, Note_off_c, 0, 77, 68
1, 195433, Note_off_c, 0, 49, 56
1, 195443, Note_off_c, 0, 58, 37
1, 195457, Note_off_c, 0, 53, 47
1, 195467, Note_on_c, 0, 46, 42
1, 195475, Note_on_c, 0, 82, 78
1, 195481, Note_on_c, 0, 70, 69
1, 195570, Note_off_c, 0, 46, 58
1, 195585, Note_on_c, 0, 53, 42
1, 195589, Note_on_c, 0, 49, 45
1, 195594, Note_off_c, 0, 70, 63
1, 195606, Note_on_c, 0, 58, 41
1, 195661, Note_off_c, 0, 58, 56
1, 195663, Note_off_c, 0, 49, 55
1, 195684, Note_off_c, 0, 53, 62
1, 195686, Note_on_c, 0, 46, 64
1, 195796, Note_on_c, 0, 85, 78
1, 195805, Note_on_c, 0, 49, 53
1, 195807, Note_off_c, 0, 46, 61
1, 195811, Note_on_c, 0, 53, 51
1, 195820, Note_on_c, 0, 58, 46
1, 195823, Note_on_c, 0, 73, 50
1, 195831, Note_off_c, 0, 82, 62
1, 195857, Note_off_c, 0, 73, 54
1, 195868, Note_off_c, 0, 58, 50
1, 195868, Note_off_c, 0, 85, 62
1, 195892, Note_off_c, 0, 53, 63
1, 195913, Note_on_c, 0, 46, 75
1, 195926, Note_off_c, 0, 49, 0
1, 195970, Poly_aftertouch_c, 0, 49, 127
1, 195980, Note_on_c, 0, 49, 7
1, 195992, Note_on_c, 0, 58, 53
1, 196009, Note_off_c, 0, 46, 61
1, 196022, Note_on_c, 0, 53, 42
1, 196046, Note_off_c, 0, 58, 59
1, 196058, Note_on_c, 0, 82, 75
1, 196058, Note_off_c, 0, 49, 54
1, 196062, Note_on_c, 0, 70, 69
1, 196091, Note_off_c, 0, 70, 67
1, 196110, Note_off_c, 0, 53, 41
1, 196128, Control_c, 0, 64, 102
1, 196137, Note_on_c, 0, 48, 56
1, 196143, Control_c, 0, 64, 77
1, 196147, Note_on_c, 0, 81, 77
1, 196152, Note_off_c, 0, 82, 62
1, 196153, Note_on_c, 0, 69, 63
1, 196158, Control_c, 0, 64, 21
1, 196172, Control_c, 0, 64, 0
1, 196217, Control_c, 0, 64, 55
1, 196232, Control_c, 0, 64, 73
1, 196247, Control_c, 0, 64, 99
1, 196253, Note_off_c, 0, 69, 65
1, 196254, Note_off_c, 0, 48, 61
1, 196255, Note_on_c, 0, 60, 53
1, 196256, Note_on_c, 0, 53, 52
1, 196261, Control_c, 0, 64, 127
1, 196264, Note_on_c, 0, 51, 58
1, 196278, Note_off_c, 0, 81, 65
1, 196331, Note_off_c, 0, 60, 57
1, 196343, Note_off_c, 0, 53, 64
1, 196352, Note_off_c, 0, 51, 57
1, 196358, Note_on_c, 0, 48, 65
1, 196478, Note_on_c, 0, 84, 75
1, 196483, Note_off_c, 0, 48, 60
1, 196496, Note_on_c, 0, 60, 51
1, 196496, Note_on_c, 0, 72, 56
1, 196498, Note_on_c, 0, 51, 54
1, 196508, Note_on_c, 0, 53, 42
1, 196534, Note_off_c, 0, 72, 63
1, 196536, Note_off_c, 0, 84, 61
1, 196561, Note_off_c, 0, 53, 58
1, 196577, Note_off_c, 0, 60, 56
1, 196586, Note_off_c, 0, 51, 51
1, 196592, Note_on_c, 0, 48, 67
1, 196664, Note_on_c, 0, 51, 28
1, 196671, Note_on_c, 0, 53, 59
1, 196691, Note_off_c, 0, 48, 61
1, 196712, Note_off_c, 0, 53, 66
1, 196718, Note_off_c, 0, 51, 60
1, 196723, Note_on_c, 0, 60, 33
1, 196749, Note_off_c, 0, 60, 56
1, 196754, Note_on_c, 0, 81, 75
1, 196771, Note_on_c, 0, 69, 45
1, 196797, Note_off_c, 0, 69, 58
1, 196824, Note_off_c, 0, 81, 53
1, 196868, Note_on_c, 0, 82, 75
1, 196875, Note_on_c, 0, 49, 56
1, 196888, Note_on_c, 0, 70, 55
1, 196891, Control_c, 0, 64, 114
1, 196906, Control_c, 0, 64, 86
1, 196921, Control_c, 0, 64, 57
1, 196936, Control_c, 0, 64, 0
1, 197010, Control_c, 0, 64, 58
1, 197025, Control_c, 0, 64, 75
1, 197025, Note_off_c, 0, 49, 61
1, 197030, Note_on_c, 0, 61, 45
1, 197031, Note_on_c, 0, 58, 40
1, 197037, Note_off_c, 0, 82, 65
1, 197040, Control_c, 0, 64, 102
1, 197055, Control_c, 0, 64, 127
1, 197076, Note_off_c, 0, 70, 63
1, 197081, Poly_aftertouch_c, 0, 53, 127
1, 197098, Note_off_c, 0, 61, 54
1, 197134, Poly_aftertouch_c, 0, 53, 0
1, 197148, Note_on_c, 0, 49, 63
1, 197154, Note_off_c, 0, 58, 35
1, 197258, Note_off_c, 0, 49, 60
1, 197259, Note_on_c, 0, 53, 38
1, 197261, Note_on_c, 0, 77, 64
1, 197262, Note_on_c, 0, 58, 56
1, 197263, Note_on_c, 0, 61, 42
1, 197275, Note_on_c, 0, 65, 46
1, 197324, Note_off_c, 0, 61, 55
1, 197346, Note_off_c, 0, 58, 56
1, 197367, Note_on_c, 0, 49, 73
1, 197374, Note_off_c, 0, 53, 0
1, 197411, Poly_aftertouch_c, 0, 53, 0
1, 197470, Note_off_c, 0, 49, 61
1, 197479, Note_on_c, 0, 61, 47
1, 197482, Note_on_c, 0, 58, 61
1, 197484, Note_on_c, 0, 53, 32
1, 197561, Note_off_c, 0, 61, 59
1, 197578, Note_off_c, 0, 58, 58
1, 197581, Note_on_c, 0, 49, 77
1, 197624, Note_off_c, 0, 53, 34
1, 197627, Note_off_c, 0, 65, 61
1, 197657, Note_off_c, 0, 77, 61
1, 197699, Note_on_c, 0, 58, 61
1, 197705, Note_on_c, 0, 61, 62
1, 197714, Note_on_c, 0, 53, 57
1, 197721, Note_off_c, 0, 49, 61
1, 197788, Note_on_c, 0, 49, 73
1, 197788, Note_off_c, 0, 53, 63
1, 197789, Note_off_c, 0, 61, 52
1, 197803, Note_off_c, 0, 58, 58
1, 197867, Note_off_c, 0, 49, 62
1, 197932, Note_on_c, 0, 78, 93
1, 197951, Note_on_c, 0, 66, 72
1, 197970, Note_on_c, 0, 54, 55
1, 197974, Note_on_c, 0, 58, 52
1, 197977, Note_on_c, 0, 63, 52
1, 197981, Control_c, 0, 64, 103
1, 197996, Control_c, 0, 64, 77
1, 198012, Control_c, 0, 64, 39
1, 198027, Control_c, 0, 64, 0
1, 198071, Control_c, 0, 64, 60
1, 198073, Note_off_c, 0, 63, 56
1, 198084, Note_on_c, 0, 51, 75
1, 198084, Note_off_c, 0, 66, 59
1, 198085, Note_off_c, 0, 54, 60
1, 198086, Control_c, 0, 64, 79
1, 198095, Note_off_c, 0, 58, 60
1, 198101, Control_c, 0, 64, 127
1, 198207, Note_on_c, 0, 63, 63
1, 198208, Note_on_c, 0, 54, 66
1, 198208, Note_on_c, 0, 58, 72
1, 198225, Note_off_c, 0, 51, 62
1, 198241, Note_off_c, 0, 54, 64
1, 198248, Note_off_c, 0, 58, 61
1, 198258, Note_on_c, 0, 75, 87
1, 198268, Note_off_c, 0, 63, 62
1, 198288, Note_off_c, 0, 78, 67
1, 198330, Control_c, 0, 64, 75
1, 198338, Note_on_c, 0, 73, 96
1, 198340, Note_on_c, 0, 53, 65
1, 198345, Control_c, 0, 64, 0
1, 198375, Note_off_c, 0, 75, 63
1, 198434, Control_c, 0, 64, 57
1, 198442, Note_off_c, 0, 53, 65
1, 198448, Control_c, 0, 64, 66
1, 198450, Note_on_c, 0, 61, 64
1, 198451, Note_on_c, 0, 58, 60
1, 198453, Note_on_c, 0, 65, 60
1, 198463, Control_c, 0, 64, 76
1, 198478, Control_c, 0, 64, 95
1, 198493, Control_c, 0, 64, 127
1, 198504, Note_off_c, 0, 65, 58
1, 198523, Note_off_c, 0, 61, 60
1, 198535, Note_off_c, 0, 58, 62
1, 198537, Note_on_c, 0, 53, 75
1, 198654, Note_on_c, 0, 61, 66
1, 198655, Note_on_c, 0, 58, 61
1, 198655, Note_off_c, 0, 53, 59
1, 198665, Note_on_c, 0, 77, 90
1, 198667, Note_on_c, 0, 65, 64
1, 198695, Note_off_c, 0, 73, 64
1, 198716, Note_off_c, 0, 65, 58
1, 198729, Note_off_c, 0, 61, 56
1, 198750, Note_off_c, 0, 58, 62
1, 198751, Note_on_c, 0, 53, 78
1, 198872, Note_on_c, 0, 58, 66
1, 198883, Note_on_c, 0, 65, 58
1, 198888, Note_off_c, 0, 53, 63
1, 198888, Note_on_c, 0, 61, 59
1, 198915, Note_on_c, 0, 73, 95
1, 198942, Note_off_c, 0, 65, 60
1, 198957, Note_off_c, 0, 77, 60
1, 198969, Note_off_c, 0, 61, 39
1, 198987, Note_on_c, 0, 53, 80
1, 198989, Note_on_c, 0, 72, 99
1, 199004, Control_c, 0, 64, 109
1, 199017, Note_off_c, 0, 58, 44
1, 199019, Control_c, 0, 64, 73
1, 199029, Note_off_c, 0, 73, 62
1, 199034, Control_c, 0, 64, 0
1, 199097, Note_on_c, 0, 63, 73
1, 199103, Note_on_c, 0, 60, 63
1, 199112, Note_off_c, 0, 53, 60
1, 199118, Note_on_c, 0, 57, 55
1, 199123, Control_c, 0, 64, 59
1, 199137, Control_c, 0, 64, 69
1, 199152, Control_c, 0, 64, 80
1, 199167, Control_c, 0, 64, 94
1, 199169, Note_off_c, 0, 63, 61
1, 199182, Control_c, 0, 64, 114
1, 199196, Control_c, 0, 64, 127
1, 199198, Note_off_c, 0, 57, 59
1, 199199, Note_on_c, 0, 53, 83
1, 199219, Note_off_c, 0, 60, 55
1, 199310, Note_on_c, 0, 75, 98
1, 199331, Note_off_c, 0, 72, 60
1, 199335, Note_on_c, 0, 63, 68
1, 199336, Note_on_c, 0, 60, 66
1, 199345, Note_on_c, 0, 57, 58
1, 199349, Note_off_c, 0, 53, 64
1, 199398, Note_off_c, 0, 63, 63
1, 199425, Note_on_c, 0, 53, 80
1, 199436, Note_off_c, 0, 60, 59
1, 199466, Note_off_c, 0, 57, 59
1, 199548, Note_on_c, 0, 60, 70
1, 199553, Note_on_c, 0, 63, 72
1, 199556, Note_off_c, 0, 53, 62
1, 199560, Note_on_c, 0, 57, 68
1, 199575, Note_on_c, 0, 72, 94
1, 199577, Note_on_c, 0, 73, 49
1, 199590, Note_off_c, 0, 75, 57
1, 199598, Note_off_c, 0, 57, 60
1, 199602, Note_off_c, 0, 73, 62
1, 199617, Note_off_c, 0, 63, 60
1, 199629, Note_off_c, 0, 60, 64
1, 199636, Note_off_c, 0, 72, 0
1, 199647, Note_on_c, 0, 70, 101
1, 199657, Control_c, 0, 64, 93
1, 199662, Note_on_c, 0, 54, 94
1, 199663, Poly_aftertouch_c, 0, 72, 0
1, 199672, Control_c, 0, 64, 38
1, 199694, Control_c, 0, 64, 0
1, 199783, Control_c, 0, 64, 30
1, 199787, Note_on_c, 0, 66, 70
1, 199788, Note_on_c, 0, 61, 70
1, 199796, Note_on_c, 0, 58, 64
1, 199798, Control_c, 0, 64, 70
1, 199812, Control_c, 0, 64, 92
1, 199824, Note_off_c, 0, 54, 61
1, 199827, Control_c, 0, 64, 127
1, 199889, Note_off_c, 0, 66, 52
1, 199892, Note_off_c, 0, 61, 60
1, 199895, Note_on_c, 0, 54, 76
1, 199902, Note_off_c, 0, 58, 60
1, 200024, Note_on_c, 0, 73, 110
1, 200033, Note_off_c, 0, 54, 61
1, 200033, Note_on_c, 0, 66, 64
1, 200036, Note_on_c, 0, 58, 62
1, 200040, Note_on_c, 0, 61, 64
1, 200048, Note_off_c, 0, 70, 67
1, 200109, Note_off_c, 0, 66, 60
1, 200116, Note_off_c, 0, 61, 61
1, 200125, Note_off_c, 0, 58, 62
1, 200127, Note_on_c, 0, 54, 77
1, 200225, Note_on_c, 0, 66, 64
1, 200227, Note_off_c, 0, 54, 61
1, 200241, Note_on_c, 0, 58, 68
1, 200241, Note_on_c, 0, 61, 63
1, 200328, Note_off_c, 0, 61, 59
1, 200329, Note_off_c, 0, 66, 56
1, 200334, Note_on_c, 0, 54, 81
1, 200346, Note_off_c, 0, 58, 58
1, 200438, Note_off_c, 0, 73, 60
1, 200462, Note_on_c, 0, 66, 66
1, 200468, Note_on_c, 0, 58, 64
1, 200470, Note_off_c, 0, 54, 62
1, 200471, Note_on_c, 0, 61, 63
1, 200552, Note_off_c, 0, 66, 52
1, 200554, Note_off_c, 0, 61, 60
1, 200565, Note_on_c, 0, 54, 81
1, 200571, Note_off_c, 0, 58, 58
1, 200677, Note_on_c, 0, 82, 99
1, 200680, Note_on_c, 0, 70, 92
1, 200681, Note_on_c, 0, 66, 66
1, 200684, Note_off_c, 0, 54, 60
1, 200687, Note_on_c, 0, 58, 66
1, 200690, Note_on_c, 0, 61, 66
1, 200718, Note_off_c, 0, 70, 64
1, 200736, Note_off_c, 0, 82, 66
1, 200748, Note_off_c, 0, 66, 61
1, 200770, Note_off_c, 0, 61, 60
1, 200772, Note_on_c, 0, 54, 89
1, 200781, Note_off_c, 0, 58, 59
1, 200904, Note_on_c, 0, 58, 68
1, 200915, Note_on_c, 0, 61, 71
1, 200915, Note_on_c, 0, 66, 68
1, 200922, Note_off_c, 0, 54, 62
1, 200927, Note_on_c, 0, 85, 97
1, 200933, Note_on_c, 0, 73, 86
1, 200943, Note_off_c, 0, 85, 74
1, 200952, Note_off_c, 0, 73, 72
1, 200977, Note_off_c, 0, 66, 58
1, 200999, Note_off_c, 0, 61, 61
1, 201005, Note_on_c, 0, 90, 101
1, 201005, Note_on_c, 0, 54, 89
1, 201016, Note_on_c, 0, 78, 94
1, 201020, Note_off_c, 0, 58, 59
1, 201114, Note_on_c, 0, 66, 69
1, 201122, Note_off_c, 0, 54, 63
1, 201124, Note_on_c, 0, 58, 72
1, 201125, Note_on_c, 0, 61, 67
1, 201125, Note_off_c, 0, 78, 63
1, 201192, Note_off_c, 0, 66, 62
1, 201212, Note_off_c, 0, 61, 62
1, 201217, Note_on_c, 0, 54, 88
1, 201219, Note_off_c, 0, 58, 61
1, 201323, Note_on_c, 0, 58, 72
1, 201323, Note_on_c, 0, 94, 102
1, 201323, Note_on_c, 0, 82, 98
1, 201328, Note_on_c, 0, 66, 69
1, 201331, Note_on_c, 0, 61, 70
1, 201335, Note_off_c, 0, 54, 62
1, 201347, Note_off_c, 0, 90, 66
1, 201362, Note_off_c, 0, 82, 65
1, 201364, Note_off_c, 0, 94, 67
1, 201383, Note_off_c, 0, 66, 61
1, 201402, Note_off_c, 0, 61, 62
1, 201413, Note_on_c, 0, 54, 80
1, 201428, Note_off_c, 0, 58, 60
1, 201499, Note_on_c, 0, 66, 74
1, 201518, Note_on_c, 0, 61, 74
1, 201532, Note_off_c, 0, 54, 62
1, 201543, Note_on_c, 0, 90, 93
1, 201555, Note_on_c, 0, 78, 78
1, 201577, Note_off_c, 0, 66, 60
1, 201577, Note_off_c, 0, 90, 59
1, 201578, Note_off_c, 0, 78, 71
1, 201609, Note_on_c, 0, 77, 97
1, 201609, Note_on_c, 0, 89, 97
1, 201613, Note_off_c, 0, 61, 62
1, 201616, Note_on_c, 0, 56, 81
1, 201636, Control_c, 0, 64, 86
1, 201651, Control_c, 0, 64, 55
1, 201666, Control_c, 0, 64, 0
1, 201725, Note_on_c, 0, 68, 73
1, 201726, Control_c, 0, 64, 19
1, 201740, Control_c, 0, 64, 69
1, 201741, Note_off_c, 0, 56, 63
1, 201742, Note_on_c, 0, 61, 61
1, 201743, Note_on_c, 0, 59, 68
1, 201755, Note_off_c, 0, 77, 61
1, 201755, Control_c, 0, 64, 94
1, 201770, Control_c, 0, 64, 127
1, 201780, Note_off_c, 0, 89, 65
1, 201808, Note_off_c, 0, 68, 55
1, 201820, Note_on_c, 0, 56, 82
1, 201824, Note_off_c, 0, 61, 61
1, 201849, Note_off_c, 0, 59, 39
1, 201936, Note_on_c, 0, 92, 99
1, 201941, Note_on_c, 0, 80, 101
1, 201952, Note_on_c, 0, 68, 70
1, 201965, Note_on_c, 0, 61, 66
1, 201966, Note_off_c, 0, 56, 62
1, 201970, Note_on_c, 0, 59, 66
1, 201971, Note_off_c, 0, 80, 62
1, 201981, Note_off_c, 0, 92, 62
1, 202017, Note_off_c, 0, 68, 59
1, 202045, Note_off_c, 0, 61, 62
1, 202048, Note_on_c, 0, 56, 83
1, 202094, Note_off_c, 0, 59, 0
1, 202112, Note_on_c, 0, 59, 42
1, 202134, Note_on_c, 0, 61, 67
1, 202134, Note_on_c, 0, 68, 61
1, 202159, Note_off_c, 0, 56, 59
1, 202169, Note_off_c, 0, 59, 58
1, 202197, Note_off_c, 0, 61, 63
1, 202200, Note_on_c, 0, 89, 91
1, 202206, Note_on_c, 0, 77, 82
1, 202223, Note_on_c, 0, 88, 55
1, 202224, Note_off_c, 0, 88, 127
1, 202224, Note_off_c, 0, 68, 57
1, 202225, Note_off_c, 0, 77, 72
1, 202238, Note_off_c, 0, 89, 62
1, 202295, Control_c, 0, 64, 95
1, 202310, Control_c, 0, 64, 72
1, 202325, Control_c, 0, 64, 0
1, 202355, Note_on_c, 0, 90, 74
1, 202356, Note_on_c, 0, 78, 73
1, 202378, Note_on_c, 0, 58, 56
1, 202459, Control_c, 0, 64, 24
1, 202474, Control_c, 0, 64, 64
1, 202488, Control_c, 0, 64, 80
1, 202503, Control_c, 0, 64, 127
1, 202506, Note_off_c, 0, 58, 61
1, 202509, Note_on_c, 0, 61, 49
1, 202510, Note_on_c, 0, 70, 47
1, 202515, Note_off_c, 0, 90, 68
1, 202516, Note_on_c, 0, 66, 50
1, 202528, Note_off_c, 0, 78, 61
1, 202568, Note_off_c, 0, 66, 54
1, 202568, Note_off_c, 0, 70, 58
1, 202596, Note_off_c, 0, 61, 59
1, 202628, Note_on_c, 0, 58, 60
1, 202740, Note_off_c, 0, 58, 60
1, 202750, Note_on_c, 0, 85, 70
1, 202754, Note_on_c, 0, 73, 60
1, 202765, Note_on_c, 0, 66, 38
1, 202766, Note_on_c, 0, 61, 33
1, 202771, Note_on_c, 0, 70, 34
1, 202824, Note_off_c, 0, 70, 45
1, 202862, Note_off_c, 0, 66, 37
1, 202864, Note_on_c, 0, 58, 59
1, 202894, Note_off_c, 0, 61, 35
1, 202970, Note_on_c, 0, 70, 45
1, 202972, Note_on_c, 0, 66, 51
1, 202975, Note_off_c, 0, 58, 61
1, 203005, Note_on_c, 0, 61, 40
1, 203040, Note_off_c, 0, 70, 56
1, 203058, Note_off_c, 0, 66, 56
1, 203091, Note_on_c, 0, 58, 69
1, 203118, Note_off_c, 0, 61, 35
1, 203197, Note_on_c, 0, 66, 56
1, 203197, Note_on_c, 0, 70, 56
1, 203202, Note_off_c, 0, 58, 60
1, 203210, Note_on_c, 0, 61, 49
1, 203290, Note_off_c, 0, 70, 58
1, 203303, Note_off_c, 0, 73, 64
1, 203311, Note_on_c, 0, 58, 77
1, 203312, Note_off_c, 0, 66, 59
1, 203356, Note_off_c, 0, 61, 46
1, 203387, Note_off_c, 0, 85, 64
1, 203440, Note_on_c, 0, 66, 65
1, 203440, Note_on_c, 0, 70, 65
1, 203446, Note_off_c, 0, 58, 63
1, 203453, Note_on_c, 0, 61, 62
1, 203505, Note_off_c, 0, 70, 62
1, 203535, Note_off_c, 0, 66, 62
1, 203544, Note_on_c, 0, 58, 88
1, 203547, Note_off_c, 0, 61, 60
1, 203640, Note_on_c, 0, 70, 83
1, 203643, Note_on_c, 0, 66, 77
1, 203658, Note_on_c, 0, 61, 67
1, 203680, Note_off_c, 0, 58, 63
1, 203699, Note_off_c, 0, 70, 63
1, 203718, Note_off_c, 0, 66, 62
1, 203729, Note_off_c, 0, 61, 58
1, 203735, Control_c, 0, 64, 120
1, 203747, Note_on_c, 0, 90, 110
1, 203748, Note_on_c, 0, 78, 112
1, 203750, Control_c, 0, 64, 70
1, 203759, Note_on_c, 0, 59, 92
1, 203764, Note_on_c, 0, 87, 66
1, 203765, Control_c, 0, 64, 0
1, 203780, Note_off_c, 0, 87, 66
1, 203853, Control_c, 0, 64, 66
1, 203868, Control_c, 0, 64, 95
1, 203871, Note_on_c, 0, 66, 82
1, 203871, Note_on_c, 0, 71, 80
1, 203881, Note_on_c, 0, 62, 74
1, 203883, Control_c, 0, 64, 127
1, 203899, Note_off_c, 0, 90, 70
1, 203907, Note_off_c, 0, 59, 61
1, 203930, Note_off_c, 0, 78, 60
1, 203946, Note_off_c, 0, 71, 60
1, 203971, Note_on_c, 0, 59, 84
1, 203976, Note_off_c, 0, 66, 62
1, 203979, Note_off_c, 0, 62, 54
1, 204045, Note_on_c, 0, 82, 35
1, 204077, Note_off_c, 0, 82, 51
1, 204088, Note_on_c, 0, 86, 109
1, 204091, Note_on_c, 0, 74, 101
1, 204098, Note_on_c, 0, 62, 74
1, 204099, Note_on_c, 0, 66, 74
1, 204102, Note_on_c, 0, 71, 74
1, 204109, Note_off_c, 0, 59, 61
1, 204158, Note_off_c, 0, 71, 60
1, 204189, Note_off_c, 0, 66, 60
1, 204201, Note_on_c, 0, 59, 84
1, 204206, Note_off_c, 0, 62, 54
1, 204313, Note_on_c, 0, 66, 70
1, 204323, Note_off_c, 0, 59, 59
1, 204326, Note_on_c, 0, 71, 68
1, 204328, Note_on_c, 0, 62, 58
1, 204389, Note_off_c, 0, 71, 60
1, 204415, Note_off_c, 0, 66, 61
1, 204415, Note_off_c, 0, 62, 58
1, 204422, Note_on_c, 0, 59, 81
1, 204525, Note_on_c, 0, 66, 72
1, 204528, Note_on_c, 0, 71, 70
1, 204538, Note_off_c, 0, 59, 60
1, 204540, Note_on_c, 0, 62, 65
1, 204602, Note_off_c, 0, 71, 60
1, 204617, Note_off_c, 0, 66, 58
1, 204626, Note_off_c, 0, 62, 59
1, 204633, Note_on_c, 0, 59, 83
1, 204676, Note_off_c, 0, 74, 60
1, 204705, Note_off_c, 0, 86, 58
1, 204738, Note_on_c, 0, 66, 68
1, 204740, Note_off_c, 0, 59, 58
1, 204743, Note_on_c, 0, 71, 64
1, 204746, Note_on_c, 0, 62, 61
1, 204811, Note_off_c, 0, 71, 62
1, 204831, Note_off_c, 0, 66, 59
1, 204839, Note_off_c, 0, 62, 57
1, 204840, Note_on_c, 0, 59, 85
1, 204939, Note_on_c, 0, 66, 76
1, 204945, Note_on_c, 0, 71, 69
1, 204959, Note_on_c, 0, 62, 61
1, 204962, Note_off_c, 0, 59, 60
1, 205015, Note_off_c, 0, 66, 57
1, 205031, Note_off_c, 0, 71, 57
1, 205044, Note_off_c, 0, 62, 54
1, 205083, Control_c, 0, 64, 101
1, 205092, Note_on_c, 0, 59, 67
1, 205092, Note_on_c, 0, 91, 89
1, 205097, Note_on_c, 0, 79, 78
1, 205098, Control_c, 0, 64, 73
1, 205113, Control_c, 0, 64, 31
1, 205127, Control_c, 0, 64, 0
1, 205218, Control_c, 0, 64, 63
1, 205225, Note_on_c, 0, 62, 45
1, 205226, Note_off_c, 0, 59, 60
1, 205228, Note_on_c, 0, 67, 46
1, 205232, Control_c, 0, 64, 92
1, 205237, Note_on_c, 0, 71, 44
1, 205247, Control_c, 0, 64, 127
1, 205251, Note_off_c, 0, 91, 66
1, 205270, Note_off_c, 0, 71, 53
1, 205275, Note_off_c, 0, 79, 62
1, 205300, Note_off_c, 0, 62, 52
1, 205316, Note_off_c, 0, 67, 47
1, 205336, Note_on_c, 0, 59, 72
1, 205441, Note_on_c, 0, 62, 50
1, 205446, Note_on_c, 0, 86, 83
1, 205446, Note_off_c, 0, 59, 58
1, 205455, Note_on_c, 0, 74, 73
1, 205467, Note_on_c, 0, 67, 40
1, 205476, Note_on_c, 0, 71, 45
1, 205507, Note_off_c, 0, 71, 50
1, 205563, Note_on_c, 0, 59, 76
1, 205564, Note_off_c, 0, 62, 38
1, 205586, Note_off_c, 0, 67, 37
1, 205677, Note_on_c, 0, 62, 53
1, 205690, Note_on_c, 0, 67, 71
1, 205692, Note_off_c, 0, 59, 57
1, 205694, Note_on_c, 0, 71, 70
1, 205753, Note_off_c, 0, 71, 61
1, 205786, Note_off_c, 0, 67, 53
1, 205792, Note_on_c, 0, 59, 85
1, 205840, Note_off_c, 0, 62, 33
1, 205896, Note_on_c, 0, 67, 68
1, 205900, Note_on_c, 0, 71, 66
1, 205905, Note_on_c, 0, 62, 55
1, 205909, Note_off_c, 0, 59, 58
1, 205957, Note_off_c, 0, 71, 59
1, 205963, Note_off_c, 0, 74, 64
1, 206003, Note_on_c, 0, 59, 87
1, 206006, Note_off_c, 0, 67, 52
1, 206014, Note_off_c, 0, 86, 63
1, 206054, Note_off_c, 0, 62, 31
1, 206106, Note_on_c, 0, 71, 78
1, 206107, Note_on_c, 0, 67, 66
1, 206116, Note_on_c, 0, 62, 63
1, 206127, Note_off_c, 0, 59, 60
1, 206167, Note_off_c, 0, 71, 62
1, 206207, Note_on_c, 0, 59, 91
1, 206276, Note_off_c, 0, 67, 0
1, 206289, Note_on_c, 0, 67, 48
1, 206303, Note_on_c, 0, 71, 81
1, 206313, Note_off_c, 0, 59, 61
1, 206350, Note_off_c, 0, 62, 59
1, 206393, Note_off_c, 0, 71, 58
1, 206412, Note_on_c, 0, 60, 94
1, 206417, Note_on_c, 0, 91, 112
1, 206420, Note_on_c, 0, 79, 111
1, 206434, Control_c, 0, 64, 84
1, 206448, Note_off_c, 0, 67, 54
1, 206449, Control_c, 0, 64, 0
1, 206537, Control_c, 0, 64, 50
1, 206540, Note_on_c, 0, 72, 85
1, 206546, Note_on_c, 0, 67, 81
1, 206552, Control_c, 0, 64, 84
1, 206556, Note_on_c, 0, 64, 73
1, 206567, Control_c, 0, 64, 127
1, 206571, Note_off_c, 0, 60, 65
1, 206575, Note_off_c, 0, 91, 63
1, 206627, Note_off_c, 0, 79, 56
1, 206650, Note_on_c, 0, 60, 95
1, 206656, Note_off_c, 0, 72, 60
1, 206683, Note_off_c, 0, 67, 57
1, 206689, Note_on_c, 0, 85, 38
1, 206698, Note_off_c, 0, 64, 54
1, 206719, Note_off_c, 0, 85, 53
1, 206773, Note_on_c, 0, 76, 107
1, 206773, Note_on_c, 0, 88, 109
1, 206779, Note_on_c, 0, 67, 85
1, 206779, Note_on_c, 0, 72, 88
1, 206779, Note_on_c, 0, 64, 72
1, 206791, Note_off_c, 0, 60, 61
1, 206867, Note_off_c, 0, 72, 55
1, 206877, Note_on_c, 0, 60, 93
1, 206912, Note_off_c, 0, 67, 58
1, 206916, Note_off_c, 0, 64, 55
1, 206990, Note_on_c, 0, 64, 68
1, 206990, Note_on_c, 0, 72, 82
1, 206995, Note_on_c, 0, 67, 80
1, 207005, Note_off_c, 0, 60, 64
1, 207019, Poly_aftertouch_c, 0, 85, 127
1, 207088, Note_off_c, 0, 72, 58
1, 207095, Note_on_c, 0, 60, 96
1, 207123, Note_off_c, 0, 67, 54
1, 207137, Note_off_c, 0, 64, 54
1, 207214, Note_on_c, 0, 64, 61
1, 207215, Note_on_c, 0, 67, 85
1, 207215, Note_on_c, 0, 72, 83
1, 207229, Note_off_c, 0, 60, 66
1, 207312, Note_off_c, 0, 72, 60
1, 207320, Note_on_c, 0, 60, 94
1, 207351, Note_off_c, 0, 67, 55
1, 207396, Note_off_c, 0, 64, 37
1, 207441, Note_on_c, 0, 72, 90
1, 207445, Note_on_c, 0, 67, 84
1, 207449, Note_on_c, 0, 64, 64
1, 207476, Note_off_c, 0, 60, 64
1, 207534, Note_off_c, 0, 72, 60
1, 207555, Note_on_c, 0, 60, 91
1, 207557, Note_off_c, 0, 67, 60
1, 207637, Note_on_c, 0, 67, 82
1, 207649, Note_off_c, 0, 60, 63
1, 207651, Note_on_c, 0, 72, 73
1, 207652, Note_off_c, 0, 64, 64
1, 207659, Note_off_c, 0, 67, 69
1, 207718, Note_off_c, 0, 72, 56
1, 207788, Note_on_c, 0, 61, 96
1, 207805, Control_c, 0, 64, 95
1, 207813, Note_off_c, 0, 76, 52
1, 207819, Control_c, 0, 64, 58
1, 207834, Control_c, 0, 64, 0
1, 207867, Poly_aftertouch_c, 0, 85, 0
1, 207926, Note_on_c, 0, 64, 75
1, 208011, Note_off_c, 0, 88, 58
1, 208014, Note_on_c, 0, 67, 69
1, 208039, Note_on_c, 0, 70, 85
1, 208049, Control_c, 0, 64, 64
1, 208064, Control_c, 0, 64, 87
1, 208079, Control_c, 0, 64, 127
1, 208094, Note_on_c, 0, 73, 95
1, 208242, Note_on_c, 0, 79, 86
1, 208296, Note_on_c, 0, 82, 88
1, 208302, Note_off_c, 0, 61, 60
1, 208303, Note_off_c, 0, 64, 63
1, 208311, Note_off_c, 0, 67, 61
1, 208332, Note_off_c, 0, 70, 62
1, 208339, Note_off_c, 0, 79, 52
1, 208355, Note_off_c, 0, 73, 61
1, 208357, Note_on_c, 0, 85, 74
1, 208377, Note_off_c, 0, 82, 64
1, 208396, Note_on_c, 0, 88, 76
1, 208403, Note_off_c, 0, 85, 65
1, 208426, Note_on_c, 0, 86, 46
1, 208439, Note_on_c, 0, 91, 90
1, 208451, Note_off_c, 0, 86, 58
1, 208466, Note_off_c, 0, 88, 67
1, 208485, Note_on_c, 0, 79, 80
1, 208513, Note_off_c, 0, 91, 61
1, 208527, Note_on_c, 0, 64, 100
1, 208554, Control_c, 0, 64, 80
1, 208568, Control_c, 0, 64, 0
1, 208582, Note_off_c, 0, 79, 59
1, 208606, Note_on_c, 0, 67, 87
1, 208680, Control_c, 0, 64, 38
1, 208695, Note_on_c, 0, 70, 87
1, 208695, Control_c, 0, 64, 64
1, 208709, Control_c, 0, 64, 72
1, 208724, Control_c, 0, 64, 86
1, 208730, Note_on_c, 0, 73, 82
1, 208739, Control_c, 0, 64, 107
1, 208754, Control_c, 0, 64, 127
1, 208786, Note_on_c, 0, 76, 95
1, 208894, Note_on_c, 0, 79, 93
1, 208926, Note_off_c, 0, 64, 60
1, 208939, Note_off_c, 0, 67, 60
1, 208952, Note_on_c, 0, 82, 85
1, 208975, Note_off_c, 0, 70, 59
1, 208988, Note_on_c, 0, 85, 81
1, 208990, Note_off_c, 0, 79, 59
1, 209025, Note_off_c, 0, 82, 64
1, 209032, Note_on_c, 0, 88, 75
1, 209042, Note_off_c, 0, 73, 56
1, 209062, Note_off_c, 0, 85, 64
1, 209074, Note_on_c, 0, 91, 93
1, 209089, Note_on_c, 0, 86, 31
1, 209101, Note_off_c, 0, 88, 67
1, 209122, Note_off_c, 0, 86, 55
1, 209128, Note_on_c, 0, 79, 77
1, 209132, Note_off_c, 0, 76, 57
1, 209147, Note_off_c, 0, 91, 58
1, 209183, Note_on_c, 0, 67, 101
1, 209198, Control_c, 0, 64, 107
1, 209213, Control_c, 0, 64, 68
1, 209214, Note_off_c, 0, 79, 58
1, 209228, Control_c, 0, 64, 0
1, 209235, Note_on_c, 0, 70, 90
1, 209303, Note_on_c, 0, 73, 89
1, 209316, Control_c, 0, 64, 44
1, 209331, Control_c, 0, 64, 63
1, 209346, Control_c, 0, 64, 69
1, 209361, Control_c, 0, 64, 76
1, 209366, Note_on_c, 0, 76, 98
1, 209376, Control_c, 0, 64, 92
1, 209390, Control_c, 0, 64, 127
1, 209533, Note_on_c, 0, 79, 90
1, 209593, Note_on_c, 0, 82, 88
1, 209603, Note_off_c, 0, 70, 56
1, 209627, Note_off_c, 0, 79, 60
1, 209628, Note_on_c, 0, 85, 80
1, 209658, Note_off_c, 0, 82, 65
1, 209670, Note_on_c, 0, 88, 75
1, 209685, Note_off_c, 0, 85, 63
1, 209705, Note_on_c, 0, 91, 95
1, 209707, Note_on_c, 0, 86, 43
1, 209723, Note_off_c, 0, 73, 23
1, 209730, Note_off_c, 0, 88, 68
1, 209733, Note_off_c, 0, 86, 56
1, 209736, Note_off_c, 0, 67, 51
1, 209756, Note_off_c, 0, 76, 62
1, 209759, Note_on_c, 0, 79, 84
1, 209776, Note_off_c, 0, 91, 63
1, 209801, Note_on_c, 0, 70, 99
1, 209828, Control_c, 0, 64, 88
1, 209834, Note_off_c, 0, 79, 55
1, 209843, Control_c, 0, 64, 48
1, 209858, Control_c, 0, 64, 0
1, 209863, Note_on_c, 0, 73, 94
1, 209887, Control_c, 0, 64, 37
1, 209902, Control_c, 0, 64, 73
1, 209917, Control_c, 0, 64, 103
1, 209931, Control_c, 0, 64, 127
1, 209932, Note_on_c, 0, 76, 96
1, 210121, Note_off_c, 0, 70, 60
1, 210131, Note_on_c, 0, 79, 89
1, 210132, Note_off_c, 0, 73, 63
1, 210177, Note_off_c, 0, 76, 53
1, 210190, Note_on_c, 0, 82, 85
1, 210217, Note_off_c, 0, 79, 59
1, 210219, Note_on_c, 0, 85, 80
1, 210264, Note_on_c, 0, 88, 75
1, 210266, Note_off_c, 0, 82, 62
1, 210283, Note_off_c, 0, 85, 63
1, 210302, Note_on_c, 0, 91, 90
1, 210329, Note_off_c, 0, 88, 66
1, 210339, Note_on_c, 0, 79, 84
1, 210375, Poly_aftertouch_c, 0, 86, 0
1, 210378, Note_off_c, 0, 91, 65
1, 210382, Note_off_c, 0, 79, 63
1, 210384, Control_c, 0, 64, 112
1, 210394, Note_on_c, 0, 73, 95
1, 210399, Control_c, 0, 64, 72
1, 210414, Control_c, 0, 64, 0
1, 210443, Control_c, 0, 64, 39
1, 210448, Note_on_c, 0, 76, 91
1, 210458, Control_c, 0, 64, 73
1, 210473, Control_c, 0, 64, 127
1, 210491, Note_off_c, 0, 73, 64
1, 210511, Note_on_c, 0, 79, 89
1, 210523, Note_off_c, 0, 76, 65
1, 210559, Note_off_c, 0, 79, 60
1, 210561, Note_on_c, 0, 82, 78
1, 210597, Note_on_c, 0, 85, 79
1, 210621, Note_on_c, 0, 88, 67
1, 210621, Note_off_c, 0, 82, 62
1, 210653, Note_on_c, 0, 87, 36
1, 210663, Note_off_c, 0, 87, 41
1, 210670, Note_off_c, 0, 85, 64
1, 210671, Note_on_c, 0, 91, 90
1, 210684, Note_off_c, 0, 88, 68
1, 210695, Note_on_c, 0, 76, 85
1, 210704, Note_off_c, 0, 91, 63
1, 210731, Note_on_c, 0, 79, 87
1, 210756, Note_off_c, 0, 76, 64
1, 210791, Note_on_c, 0, 82, 98
1, 210797, Note_off_c, 0, 79, 59
1, 210837, Note_off_c, 0, 82, 63
1, 210838, Note_on_c, 0, 85, 84
1, 210874, Note_on_c, 0, 88, 67
1, 210904, Note_on_c, 0, 91, 71
1, 210922, Note_off_c, 0, 85, 60
1, 210922, Note_on_c, 0, 90, 45
1, 210949, Note_off_c, 0, 88, 65
1, 210954, Note_on_c, 0, 94, 91
1, 210959, Note_off_c, 0, 90, 54
1, 210965, Note_off_c, 0, 91, 64
1, 210990, Note_on_c, 0, 79, 81
1, 211001, Note_off_c, 0, 94, 66
1, 211047, Note_on_c, 0, 82, 92
1, 211074, Note_off_c, 0, 79, 61
1, 211079, Poly_aftertouch_c, 0, 80, 127
1, 211094, Note_on_c, 0, 85, 94
1, 211107, Note_off_c, 0, 82, 67
1, 211119, Poly_aftertouch_c, 0, 80, 0
1, 211134, Note_on_c, 0, 88, 85
1, 211159, Note_off_c, 0, 85, 62
1, 211181, Note_on_c, 0, 91, 86
1, 211196, Note_off_c, 0, 88, 66
1, 211234, Note_on_c, 0, 94, 94
1, 211242, Note_off_c, 0, 91, 65
1, 211281, Note_on_c, 0, 82, 82
1, 211293, Note_off_c, 0, 94, 66
1, 211321, Note_on_c, 0, 85, 91
1, 211375, Note_on_c, 0, 88, 93
1, 211409, Note_off_c, 0, 82, 54
1, 211411, Note_off_c, 0, 88, 65
1, 211422, Note_off_c, 0, 85, 63
1, 211462, Note_on_c, 0, 88, 79
1, 211500, Note_on_c, 0, 91, 91
1, 211517, Note_off_c, 0, 88, 68
1, 211553, Note_on_c, 0, 94, 86
1, 211558, Note_off_c, 0, 91, 66
1, 211600, Note_on_c, 0, 85, 108
1, 211633, Note_off_c, 0, 94, 53
1, 211655, Note_on_c, 0, 88, 90
1, 211659, Note_off_c, 0, 85, 66
1, 211679, Note_off_c, 0, 88, 77
1, 211741, Note_on_c, 0, 88, 96
1, 211787, Note_on_c, 0, 91, 89
1, 211812, Note_off_c, 0, 88, 66
1, 211834, Note_on_c, 0, 94, 87
1, 211841, Note_off_c, 0, 91, 67
1, 211873, Note_off_c, 0, 94, 67
1, 211935, Note_on_c, 0, 82, 96
1, 211986, Note_on_c, 0, 85, 98
1, 211992, Note_off_c, 0, 82, 65
1, 212019, Note_off_c, 0, 85, 69
1, 212063, Note_on_c, 0, 85, 87
1, 212096, Note_on_c, 0, 75, 49
1, 212098, Note_on_c, 0, 88, 82
1, 212118, Note_off_c, 0, 75, 59
1, 212142, Note_on_c, 0, 91, 93
1, 212150, Note_off_c, 0, 85, 62
1, 212159, Note_off_c, 0, 88, 68
1, 212170, Note_on_c, 0, 90, 36
1, 212171, Note_off_c, 0, 90, 127
1, 212191, Note_off_c, 0, 91, 65
1, 212248, Note_on_c, 0, 79, 84
1, 212299, Note_off_c, 0, 79, 56
1, 212300, Note_on_c, 0, 82, 94
1, 212337, Note_off_c, 0, 82, 62
1, 212359, Note_on_c, 0, 82, 76
1, 212403, Note_on_c, 0, 85, 87
1, 212451, Note_on_c, 0, 88, 89
1, 212456, Note_off_c, 0, 82, 60
1, 212472, Note_off_c, 0, 85, 65
1, 212499, Note_off_c, 0, 88, 67
1, 212585, Note_on_c, 0, 76, 101
1, 212635, Note_on_c, 0, 79, 85
1, 212653, Note_off_c, 0, 76, 62
1, 212655, Note_off_c, 0, 79, 68
1, 212714, Note_on_c, 0, 79, 95
1, 212759, Note_on_c, 0, 82, 94
1, 212782, Note_off_c, 0, 79, 58
1, 212809, Note_on_c, 0, 85, 87
1, 212812, Note_off_c, 0, 82, 68
1, 212827, Note_off_c, 0, 85, 71
1, 212919, Note_on_c, 0, 73, 98
1, 212969, Note_on_c, 0, 76, 90
1, 212979, Note_off_c, 0, 73, 68
1, 212990, Note_off_c, 0, 76, 70
1, 213038, Note_on_c, 0, 76, 90
1, 213088, Note_on_c, 0, 79, 87
1, 213089, Note_off_c, 0, 76, 65
1, 213135, Note_on_c, 0, 82, 86
1, 213140, Note_off_c, 0, 79, 66
1, 213181, Note_off_c, 0, 82, 67
1, 213262, Note_on_c, 0, 70, 94
1, 213319, Note_off_c, 0, 70, 63
1, 213323, Note_on_c, 0, 73, 93
1, 213361, Note_off_c, 0, 73, 0
1, 213398, Poly_aftertouch_c, 0, 73, 127
1, 213421, Note_on_c, 0, 76, 82
1, 213468, Poly_aftertouch_c, 0, 73, 0
1, 213471, Note_on_c, 0, 79, 88
1, 213482, Note_off_c, 0, 76, 65
1, 213518, Note_off_c, 0, 79, 63
1, 213575, Note_on_c, 0, 67, 91
1, 213642, Note_on_c, 0, 70, 86
1, 213642, Note_off_c, 0, 67, 56
1, 213661, Note_off_c, 0, 70, 71
1, 213697, Note_on_c, 0, 70, 79
1, 213734, Note_on_c, 0, 73, 86
1, 213759, Note_off_c, 0, 70, 62
1, 213777, Note_on_c, 0, 76, 85
1, 213790, Note_off_c, 0, 73, 65
1, 213825, Note_off_c, 0, 76, 64
1, 213894, Note_on_c, 0, 64, 99
1, 213957, Note_on_c, 0, 67, 82
1, 213961, Note_off_c, 0, 64, 68
1, 213976, Note_off_c, 0, 67, 71
1, 214024, Note_on_c, 0, 67, 86
1, 214074, Note_on_c, 0, 70, 92
1, 214092, Note_off_c, 0, 67, 61
1, 214115, Note_on_c, 0, 73, 86
1, 214120, Note_off_c, 0, 70, 67
1, 214136, Note_off_c, 0, 73, 70
1, 214228, Note_on_c, 0, 61, 101
1, 214287, Note_on_c, 0, 64, 92
1, 214296, Note_off_c, 0, 61, 65
1, 214315, Note_off_c, 0, 64, 65
1, 214350, Note_on_c, 0, 64, 80
1, 214392, Note_off_c, 0, 64, 68
1, 214401, Note_on_c, 0, 67, 86
1, 214440, Note_on_c, 0, 70, 85
1, 214448, Note_off_c, 0, 67, 66
1, 214480, Note_off_c, 0, 70, 67
1, 214547, Note_on_c, 0, 58, 99
1, 214604, Note_off_c, 0, 58, 64
1, 214606, Note_on_c, 0, 61, 89
1, 214641, Note_off_c, 0, 61, 68
1, 214683, Note_on_c, 0, 61, 78
1, 214725, Note_on_c, 0, 64, 73
1, 214744, Note_on_c, 0, 63, 45
1, 214757, Note_off_c, 0, 61, 58
1, 214764, Note_on_c, 0, 67, 88
1, 214773, Note_off_c, 0, 63, 58
1, 214780, Note_off_c, 0, 64, 66
1, 214815, Note_off_c, 0, 67, 63
1, 214858, Note_on_c, 0, 55, 96
1, 214905, Note_off_c, 0, 55, 60
1, 214923, Note_on_c, 0, 58, 89
1, 214946, Note_off_c, 0, 58, 67
1, 214976, Note_on_c, 0, 58, 69
1, 215021, Note_on_c, 0, 61, 81
1, 215060, Note_off_c, 0, 58, 61
1, 215065, Note_on_c, 0, 64, 86
1, 215083, Note_off_c, 0, 61, 64
1, 215115, Note_off_c, 0, 64, 64
1, 215178, Note_on_c, 0, 52, 109
1, 215223, Note_on_c, 0, 55, 87
1, 215246, Note_off_c, 0, 52, 64
1, 215262, Note_off_c, 0, 55, 63
1, 215301, Note_on_c, 0, 55, 79
1, 215352, Note_on_c, 0, 58, 90
1, 215377, Note_off_c, 0, 55, 60
1, 215390, Note_on_c, 0, 61, 80
1, 215415, Note_off_c, 0, 58, 65
1, 215449, Note_off_c, 0, 61, 64
1, 215507, Note_on_c, 0, 49, 108
1, 215577, Note_on_c, 0, 52, 90
1, 215609, Note_off_c, 0, 49, 65
1, 215617, Note_off_c, 0, 52, 62
1, 215668, Note_on_c, 0, 52, 75
1, 215709, Note_on_c, 0, 55, 79
1, 215733, Note_off_c, 0, 52, 62
1, 215758, Note_on_c, 0, 58, 81
1, 215766, Note_off_c, 0, 55, 64
1, 215815, Note_off_c, 0, 58, 64
1, 215856, Note_on_c, 0, 46, 106
1, 215915, Note_on_c, 0, 49, 83
1, 215918, Note_off_c, 0, 46, 67
1, 215962, Note_off_c, 0, 49, 65
1, 216010, Note_on_c, 0, 49, 78
1, 216045, Note_on_c, 0, 52, 74
1, 216090, Note_off_c, 0, 49, 58
1, 216095, Note_on_c, 0, 55, 78
1, 216109, Note_off_c, 0, 52, 64
1, 216150, Note_off_c, 0, 55, 59
1, 216177, Note_on_c, 0, 43, 118
1, 216234, Note_off_c, 0, 43, 0
1, 216250, Note_on_c, 0, 46, 86
1, 216258, Poly_aftertouch_c, 0, 43, 0
1, 216273, Note_off_c, 0, 46, 62
1, 216312, Note_on_c, 0, 46, 57
1, 216366, Note_on_c, 0, 49, 79
1, 216410, Note_off_c, 0, 46, 47
1, 216412, Note_on_c, 0, 52, 80
1, 216435, Note_off_c, 0, 49, 62
1, 216466, Note_off_c, 0, 52, 63
1, 216532, Note_on_c, 0, 40, 106
1, 216587, Note_on_c, 0, 43, 96
1, 216631, Note_off_c, 0, 40, 58
1, 216642, Note_off_c, 0, 43, 62
1, 216696, Note_on_c, 0, 43, 71
1, 216725, Note_on_c, 0, 46, 78
1, 216763, Note_off_c, 0, 43, 61
1, 216793, Note_off_c, 0, 46, 63
1, 216801, Note_on_c, 0, 49, 66
1, 216848, Note_off_c, 0, 49, 57
1, 217029, Note_on_c, 0, 37, 111
1, 217044, Note_on_c, 0, 46, 81
1, 217049, Note_on_c, 0, 43, 84
1, 217064, Control_c, 0, 64, 108
1, 217079, Control_c, 0, 64, 59
1, 217093, Note_off_c, 0, 46, 65
1, 217094, Control_c, 0, 64, 0
1, 217098, Note_off_c, 0, 43, 60
1, 217101, Note_on_c, 0, 52, 72
1, 217153, Control_c, 0, 64, 62
1, 217158, Note_on_c, 0, 49, 2
1, 217168, Control_c, 0, 64, 96
1, 217169, Note_on_c, 0, 46, 72
1, 217172, Note_off_c, 0, 52, 62
1, 217184, Control_c, 0, 64, 127
1, 217189, Note_on_c, 0, 43, 78
1, 217199, Note_off_c, 0, 46, 64
1, 217210, Note_on_c, 0, 38, 38
1, 217219, Note_on_c, 0, 52, 57
1, 217223, Note_off_c, 0, 37, 58
1, 217226, Note_off_c, 0, 43, 61
1, 217236, Note_off_c, 0, 49, 33
1, 217248, Note_off_c, 0, 38, 46
1, 217280, Note_on_c, 0, 46, 70
1, 217282, Note_off_c, 0, 52, 61
1, 217310, Note_off_c, 0, 46, 64
1, 217314, Note_on_c, 0, 43, 60
1, 217333, Note_on_c, 0, 52, 54
1, 217337, Note_off_c, 0, 43, 59
1, 217376, Note_on_c, 0, 46, 79
1, 217388, Note_off_c, 0, 52, 62
1, 217420, Note_on_c, 0, 43, 66
1, 217432, Note_off_c, 0, 46, 62
1, 217438, Note_on_c, 0, 52, 52
1, 217457, Note_off_c, 0, 43, 59
1, 217486, Note_on_c, 0, 46, 68
1, 217504, Note_off_c, 0, 52, 60
1, 217528, Note_on_c, 0, 43, 57
1, 217538, Note_off_c, 0, 46, 63
1, 217544, Note_on_c, 0, 52, 45
1, 217573, Note_off_c, 0, 43, 54
1, 217597, Note_on_c, 0, 46, 70
1, 217611, Note_off_c, 0, 52, 62
1, 217647, Note_off_c, 0, 46, 63
1, 217676, Note_on_c, 0, 73, 97
1, 217677, Note_on_c, 0, 52, 38
1, 217685, Note_on_c, 0, 74, 101
1, 217692, Note_on_c, 0, 43, 38
1, 217714, Note_off_c, 0, 74, 61
1, 217721, Note_off_c, 0, 73, 62
1, 217727, Note_on_c, 0, 46, 70
1, 217730, Note_off_c, 0, 52, 60
1, 217731, Note_off_c, 0, 43, 47
1, 217766, Note_off_c, 0, 46, 60
1, 217793, Note_on_c, 0, 52, 56
1, 217793, Note_on_c, 0, 73, 113
1, 217831, Note_off_c, 0, 73, 67
1, 217838, Note_off_c, 0, 52, 61
1, 217849, Note_on_c, 0, 46, 66
1, 217872, Poly_aftertouch_c, 0, 70, 127
1, 217876, Note_off_c, 0, 46, 67
1, 217893, Note_on_c, 0, 73, 114
1, 217908, Poly_aftertouch_c, 0, 70, 0
1, 217909, Note_on_c, 0, 52, 60
1, 217927, Note_off_c, 0, 73, 68
1, 217954, Note_on_c, 0, 46, 59
1, 217960, Note_off_c, 0, 52, 60
1, 217969, Note_on_c, 0, 73, 106
1, 217993, Note_off_c, 0, 46, 64
1, 217994, Note_off_c, 0, 73, 74
1, 218014, Note_on_c, 0, 52, 56
1, 218064, Note_off_c, 0, 52, 63
1, 218082, Note_on_c, 0, 46, 49
1, 218088, Note_on_c, 0, 43, 72
1, 218104, Note_off_c, 0, 46, 63
1, 218123, Note_off_c, 0, 43, 64
1, 218158, Note_on_c, 0, 52, 28
1, 218164, Note_on_c, 0, 46, 74
1, 218184, Note_off_c, 0, 52, 58
1, 218195, Note_on_c, 0, 43, 76
1, 218216, Note_off_c, 0, 46, 62
1, 218243, Note_off_c, 0, 43, 61
1, 218253, Note_on_c, 0, 52, 59
1, 218287, Note_on_c, 0, 46, 73
1, 218288, Note_off_c, 0, 52, 64
1, 218335, Note_on_c, 0, 43, 61
1, 218344, Note_off_c, 0, 46, 64
1, 218363, Note_on_c, 0, 52, 60
1, 218376, Note_on_c, 0, 37, 109
1, 218377, Note_off_c, 0, 43, 55
1, 218418, Note_on_c, 0, 46, 72
1, 218419, Note_off_c, 0, 37, 67
1, 218422, Note_off_c, 0, 52, 62
1, 218473, Note_off_c, 0, 46, 64
1, 218482, Note_on_c, 0, 43, 8
1, 218483, Note_on_c, 0, 52, 63
1, 218498, Note_on_c, 0, 37, 108
1, 218530, Note_off_c, 0, 37, 69
1, 218536, Note_on_c, 0, 46, 75
1, 218543, Note_off_c, 0, 52, 63
1, 218554, Note_off_c, 0, 43, 0
1, 218554, Note_on_c, 0, 43, 32
1, 218594, Note_off_c, 0, 46, 64
1, 218595, Note_on_c, 0, 37, 106
1, 218597, Note_on_c, 0, 52, 64
1, 218599, Note_off_c, 0, 43, 62
1, 218629, Note_off_c, 0, 37, 69
1, 218674, Note_off_c, 0, 52, 61
1, 218682, Note_on_c, 0, 37, 98
1, 218690, Note_on_c, 0, 46, 80
1, 218702, Note_on_c, 0, 43, 78
1, 218711, Note_off_c, 0, 37, 65
1, 218738, Note_on_c, 0, 52, 67
1, 218739, Note_off_c, 0, 46, 62
1, 218745, Note_off_c, 0, 43, 61
1, 218804, Note_on_c, 0, 46, 78
1, 218806, Note_off_c, 0, 52, 63
1, 218824, Note_on_c, 0, 43, 71
1, 218861, Note_off_c, 0, 46, 64
1, 218867, Note_off_c, 0, 43, 57
1, 218869, Note_on_c, 0, 52, 62
1, 218921, Note_on_c, 0, 46, 72
1, 218928, Note_off_c, 0, 52, 62
1, 218947, Note_on_c, 0, 43, 70
1, 218978, Note_off_c, 0, 46, 64
1, 218995, Note_on_c, 0, 52, 63
1, 219005, Note_off_c, 0, 43, 61
1, 219051, Note_on_c, 0, 46, 75
1, 219063, Note_off_c, 0, 52, 62
1, 219079, Note_on_c, 0, 43, 65
1, 219105, Note_off_c, 0, 46, 64
1, 219115, Note_on_c, 0, 52, 55
1, 219128, Note_off_c, 0, 43, 59
1, 219147, Note_on_c, 0, 73, 116
1, 219191, Note_off_c, 0, 52, 62
1, 219194, Note_on_c, 0, 46, 75
1, 219194, Note_off_c, 0, 73, 68
1, 219242, Note_off_c, 0, 46, 59
1, 219247, Note_on_c, 0, 43, 42
1, 219263, Note_on_c, 0, 73, 106
1, 219271, Note_on_c, 0, 52, 57
1, 219291, Note_off_c, 0, 43, 46
1, 219303, Note_off_c, 0, 73, 67
1, 219316, Note_on_c, 0, 46, 76
1, 219317, Note_off_c, 0, 52, 60
1, 219359, Note_off_c, 0, 46, 61
1, 219360, Note_on_c, 0, 73, 106
1, 219373, Note_on_c, 0, 52, 68
1, 219395, Note_off_c, 0, 73, 69
1, 219446, Note_on_c, 0, 73, 114
1, 219458, Note_on_c, 0, 46, 85
1, 219460, Note_off_c, 0, 52, 63
1, 219471, Note_off_c, 0, 73, 73
1, 219478, Note_on_c, 0, 43, 81
1, 219510, Note_off_c, 0, 43, 64
1, 219519, Note_off_c, 0, 46, 63
1, 219528, Note_on_c, 0, 52, 58
1, 219584, Note_on_c, 0, 46, 75
1, 219586, Note_off_c, 0, 52, 60
1, 219595, Note_on_c, 0, 43, 68
1, 219634, Note_off_c, 0, 46, 63
1, 219635, Note_off_c, 0, 43, 60
1, 219645, Note_on_c, 0, 52, 64
1, 219702, Note_on_c, 0, 46, 76
1, 219705, Note_off_c, 0, 52, 62
1, 219714, Note_on_c, 0, 43, 79
1, 219756, Note_off_c, 0, 46, 64
1, 219763, Note_on_c, 0, 52, 68
1, 219775, Note_off_c, 0, 43, 58
1, 219844, Note_off_c, 0, 52, 63
1, 219849, Note_on_c, 0, 46, 82
1, 219862, Note_on_c, 0, 43, 81
1, 219911, Note_off_c, 0, 46, 64
1, 219920, Note_on_c, 0, 52, 71
1, 219922, Note_on_c, 0, 37, 109
1, 219930, Note_off_c, 0, 43, 60
1, 219963, Note_off_c, 0, 37, 66
1, 219999, Note_off_c, 0, 52, 63
1, 220002, Note_on_c, 0, 46, 79
1, 220014, Note_on_c, 0, 43, 76
1, 220058, Note_off_c, 0, 43, 53
1, 220061, Note_off_c, 0, 46, 64
1, 220065, Note_on_c, 0, 52, 69
1, 220093, Note_on_c, 0, 37, 103
1, 220136, Note_off_c, 0, 37, 64
1, 220138, Note_off_c, 0, 52, 62
1, 220143, Note_on_c, 0, 46, 77
1, 220161, Note_on_c, 0, 43, 82
1, 220198, Note_on_c, 0, 52, 72
1, 220198, Note_off_c, 0, 46, 64
1, 220202, Note_on_c, 0, 37, 98
1, 220206, Note_off_c, 0, 43, 62
1, 220239, Note_off_c, 0, 37, 66
1, 220297, Note_off_c, 0, 52, 59
1, 220304, Note_on_c, 0, 46, 84
1, 220312, Control_c, 0, 64, 84
1, 220315, Note_on_c, 0, 43, 83
1, 220315, Note_on_c, 0, 36, 107
1, 220326, Control_c, 0, 64, 0
1, 220365, Note_off_c, 0, 43, 58
1, 220367, Note_on_c, 0, 52, 66
1, 220370, Note_off_c, 0, 46, 63
1, 220435, Note_on_c, 0, 46, 71
1, 220440, Note_off_c, 0, 52, 62
1, 220444, Note_on_c, 0, 43, 75
1, 220461, Control_c, 0, 64, 50
1, 220475, Control_c, 0, 64, 82
1, 220488, Note_off_c, 0, 43, 60
1, 220490, Control_c, 0, 64, 127
1, 220494, Note_off_c, 0, 36, 61
1, 220495, Note_off_c, 0, 46, 63
1, 220497, Note_on_c, 0, 52, 63
1, 220565, Note_off_c, 0, 52, 62
1, 220567, Note_on_c, 0, 46, 69
1, 220581, Note_on_c, 0, 43, 76
1, 220621, Note_off_c, 0, 46, 62
1, 220634, Note_on_c, 0, 52, 57
1, 220638, Note_off_c, 0, 43, 60
1, 220702, Note_on_c, 0, 46, 77
1, 220702, Note_off_c, 0, 52, 63
1, 220725, Note_on_c, 0, 43, 66
1, 220760, Note_off_c, 0, 46, 63
1, 220783, Note_off_c, 0, 43, 62
1, 220784, Note_on_c, 0, 52, 61
1, 220846, Note_off_c, 0, 52, 62
1, 220848, Note_on_c, 0, 46, 77
1, 220852, Note_on_c, 0, 73, 111
1, 220870, Note_on_c, 0, 43, 66
1, 220891, Note_off_c, 0, 73, 66
1, 220908, Note_off_c, 0, 46, 63
1, 220920, Note_on_c, 0, 52, 59
1, 220922, Note_off_c, 0, 43, 61
1, 220962, Note_on_c, 0, 73, 106
1, 220983, Note_off_c, 0, 52, 62
1, 220990, Note_on_c, 0, 46, 74
1, 221004, Note_off_c, 0, 73, 66
1, 221015, Note_on_c, 0, 43, 62
1, 221036, Note_off_c, 0, 46, 61
1, 221050, Note_on_c, 0, 52, 68
1, 221054, Note_on_c, 0, 73, 96
1, 221057, Note_off_c, 0, 43, 63
1, 221087, Note_off_c, 0, 73, 68
1, 221150, Note_on_c, 0, 72, 112
1, 221156, Note_on_c, 0, 46, 83
1, 221160, Note_off_c, 0, 52, 62
1, 221167, Note_on_c, 0, 43, 80
1, 221177, Note_off_c, 0, 72, 70
1, 221214, Note_on_c, 0, 52, 62
1, 221215, Note_off_c, 0, 46, 64
1, 221223, Note_off_c, 0, 43, 56
1, 221283, Note_on_c, 0, 46, 73
1, 221294, Note_off_c, 0, 52, 61
1, 221302, Note_on_c, 0, 43, 67
1, 221334, Note_off_c, 0, 46, 63
1, 221349, Note_on_c, 0, 52, 55
1, 221352, Note_off_c, 0, 43, 48
1, 221429, Note_on_c, 0, 46, 77
1, 221429, Note_off_c, 0, 52, 61
1, 221442, Note_on_c, 0, 43, 70
1, 221485, Note_off_c, 0, 46, 63
1, 221495, Note_on_c, 0, 52, 65
1, 221508, Note_off_c, 0, 43, 60
1, 221571, Note_off_c, 0, 52, 62
1, 221580, Note_on_c, 0, 46, 75
1, 221588, Note_on_c, 0, 37, 101
1, 221596, Note_on_c, 0, 43, 71
1, 221629, Note_off_c, 0, 37, 64
1, 221636, Note_off_c, 0, 46, 62
1, 221643, Note_on_c, 0, 52, 66
1, 221647, Note_off_c, 0, 43, 56
1, 221707, Note_on_c, 0, 37, 96
1, 221713, Note_off_c, 0, 52, 63
1, 221721, Note_on_c, 0, 46, 74
1, 221733, Note_on_c, 0, 43, 69
1, 221742, Note_off_c, 0, 37, 63
1, 221775, Note_on_c, 0, 52, 67
1, 221776, Note_off_c, 0, 46, 62
1, 221783, Note_off_c, 0, 43, 58
1, 221805, Note_on_c, 0, 37, 85
1, 221827, Note_off_c, 0, 37, 67
1, 221898, Control_c, 0, 64, 78
1, 221900, Note_on_c, 0, 46, 75
1, 221901, Note_off_c, 0, 52, 61
1, 221907, Note_on_c, 0, 36, 103
1, 221908, Note_on_c, 0, 43, 76
1, 221912, Control_c, 0, 64, 0
1, 221959, Note_off_c, 0, 43, 57
1, 221960, Note_off_c, 0, 46, 63
1, 221966, Note_on_c, 0, 52, 57
1, 222002, Control_c, 0, 64, 52
1, 222017, Control_c, 0, 64, 86
1, 222032, Control_c, 0, 64, 127
1, 222032, Note_on_c, 0, 46, 69
1, 222037, Note_off_c, 0, 52, 62
1, 222038, Note_off_c, 0, 36, 61
1, 222048, Note_on_c, 0, 43, 70
1, 222091, Note_off_c, 0, 46, 64
1, 222100, Note_on_c, 0, 52, 61
1, 222103, Note_off_c, 0, 43, 60
1, 222172, Note_on_c, 0, 46, 70
1, 222178, Note_off_c, 0, 52, 62
1, 222196, Note_on_c, 0, 43, 74
1, 222232, Note_off_c, 0, 46, 62
1, 222257, Note_on_c, 0, 52, 61
1, 222258, Note_off_c, 0, 43, 60
1, 222322, Note_off_c, 0, 52, 61
1, 222324, Note_on_c, 0, 46, 74
1, 222346, Note_on_c, 0, 43, 64
1, 222368, Note_on_c, 0, 73, 103
1, 222387, Note_off_c, 0, 46, 63
1, 222393, Note_on_c, 0, 52, 66
1, 222407, Note_off_c, 0, 73, 67
1, 222408, Note_off_c, 0, 43, 59
1, 222470, Note_off_c, 0, 52, 63
1, 222476, Note_on_c, 0, 46, 74
1, 222482, Note_on_c, 0, 73, 101
1, 222515, Note_on_c, 0, 43, 47
1, 222524, Note_off_c, 0, 73, 65
1, 222530, Note_off_c, 0, 46, 64
1, 222543, Note_off_c, 0, 43, 55
1, 222545, Note_on_c, 0, 52, 62
1, 222570, Note_on_c, 0, 73, 95
1, 222607, Note_off_c, 0, 73, 67
1, 222661, Note_off_c, 0, 52, 60
1, 222670, Note_on_c, 0, 46, 74
1, 222673, Note_on_c, 0, 72, 109
1, 222676, Note_on_c, 0, 43, 73
1, 222703, Note_off_c, 0, 72, 70
1, 222725, Note_off_c, 0, 46, 64
1, 222735, Note_on_c, 0, 52, 67
1, 222743, Note_off_c, 0, 43, 60
1, 222802, Note_on_c, 0, 46, 69
1, 222815, Note_off_c, 0, 52, 59
1, 222816, Note_on_c, 0, 43, 56
1, 222852, Note_on_c, 0, 52, 55
1, 222854, Note_off_c, 0, 46, 62
1, 222871, Note_off_c, 0, 43, 60
1, 222934, Note_on_c, 0, 46, 72
1, 222940, Note_off_c, 0, 52, 62
1, 222949, Note_on_c, 0, 43, 67
1, 222993, Note_off_c, 0, 46, 61
1, 222997, Note_on_c, 0, 52, 62
1, 223013, Note_off_c, 0, 43, 61
1, 223089, Note_off_c, 0, 52, 62
1, 223090, Note_on_c, 0, 46, 80
1, 223090, Note_on_c, 0, 37, 99
1, 223095, Note_on_c, 0, 43, 76
1, 223129, Note_off_c, 0, 37, 66
1, 223157, Note_on_c, 0, 52, 71
1, 223160, Note_off_c, 0, 46, 63
1, 223167, Note_off_c, 0, 43, 60
1, 223209, Note_on_c, 0, 37, 94
1, 223244, Note_on_c, 0, 46, 61
1, 223245, Note_on_c, 0, 43, 59
1, 223245, Note_off_c, 0, 37, 64
1, 223249, Note_off_c, 0, 52, 61
1, 223275, Control_c, 0, 67, 8
1, 223291, Note_off_c, 0, 46, 55
1, 223293, Note_off_c, 0, 43, 58
1, 223311, Note_on_c, 0, 37, 85
1, 223341, Note_off_c, 0, 37, 62
1, 223349, Control_c, 0, 67, 0
1, 223409, Control_c, 0, 64, 121
1, 223409, Control_c, 0, 67, 8
1, 223424, Control_c, 0, 64, 82
1, 223424, Control_c, 0, 67, 9
1, 223428, Note_on_c, 0, 52, 78
1, 223436, Note_on_c, 0, 46, 71
1, 223437, Note_on_c, 0, 43, 88
1, 223439, Control_c, 0, 64, 48
1, 223439, Control_c, 0, 67, 10
1, 223442, Note_on_c, 0, 36, 91
1, 223454, Control_c, 0, 64, 0
1, 223468, Control_c, 0, 64, 48
1, 223468, Control_c, 0, 67, 11
1, 223471, Note_off_c, 0, 36, 65
1, 223483, Control_c, 0, 64, 67
1, 223483, Control_c, 0, 67, 12
1, 223498, Control_c, 0, 64, 83
1, 223498, Control_c, 0, 67, 13
1, 223513, Control_c, 0, 64, 93
1, 223513, Control_c, 0, 67, 15
1, 223528, Control_c, 0, 64, 88
1, 223528, Control_c, 0, 67, 18
1, 223542, Control_c, 0, 64, 69
1, 223542, Control_c, 0, 67, 20
1, 223557, Control_c, 0, 64, 30
1, 223557, Control_c, 0, 67, 21
1, 223571, Note_on_c, 0, 36, 71
1, 223573, Control_c, 0, 64, 0
1, 223573, Control_c, 0, 67, 22
1, 223588, Control_c, 0, 67, 23
1, 223602, Note_off_c, 0, 36, 59
1, 223603, Control_c, 0, 67, 24
1, 223618, Control_c, 0, 67, 26
1, 223633, Control_c, 0, 67, 28
1, 223654, Control_c, 0, 67, 30
1, 223669, Control_c, 0, 67, 31
1, 223684, Control_c, 0, 67, 32
1, 223691, Note_on_c, 0, 36, 70
1, 223698, Control_c, 0, 67, 33
1, 223713, Control_c, 0, 67, 35
1, 223719, Note_off_c, 0, 36, 61
1, 223728, Control_c, 0, 67, 36
1, 223743, Control_c, 0, 67, 37
1, 223758, Control_c, 0, 67, 37
1, 223773, Control_c, 0, 67, 39
1, 223788, Control_c, 0, 67, 42
1, 223802, Control_c, 0, 67, 44
1, 223816, Note_on_c, 0, 36, 66
1, 223817, Control_c, 0, 67, 46
1, 223832, Note_off_c, 0, 43, 61
1, 223832, Control_c, 0, 67, 49
1, 223841, Note_off_c, 0, 46, 61
1, 223841, Note_off_c, 0, 52, 58
1, 223847, Note_off_c, 0, 36, 62
1, 223847, Control_c, 0, 67, 51
1, 223862, Control_c, 0, 67, 56
1, 223877, Control_c, 0, 67, 63
1, 223892, Control_c, 0, 67, 70
1, 223906, Control_c, 0, 67, 76
1, 223921, Control_c, 0, 67, 79
1, 223936, Control_c, 0, 67, 81
1, 223937, Note_on_c, 0, 36, 59
1, 223951, Control_c, 0, 67, 82
1, 223962, Note_off_c, 0, 36, 57
1, 223966, Control_c, 0, 67, 83
1, 223980, Control_c, 0, 67, 84
1, 223995, Control_c, 0, 67, 85
1, 224010, Control_c, 0, 67, 86
1, 224024, Control_c, 0, 67, 86
1, 224048, Note_on_c, 0, 36, 59
1, 224054, Control_c, 0, 67, 87
1, 224074, Note_off_c, 0, 36, 55
1, 224154, Note_on_c, 0, 36, 67
1, 224187, Note_off_c, 0, 36, 61
1, 224187, Control_c, 0, 67, 86
1, 224202, Control_c, 0, 67, 86
1, 224276, Note_on_c, 0, 36, 54
1, 224300, Note_off_c, 0, 36, 55
1, 224402, Note_on_c, 0, 36, 53
1, 224418, Control_c, 0, 67, 86
1, 224431, Note_off_c, 0, 36, 54
1, 224433, Control_c, 0, 67, 87
1, 224447, Control_c, 0, 67, 87
1, 224462, Control_c, 0, 67, 88
1, 224477, Control_c, 0, 67, 90
1, 224492, Control_c, 0, 67, 92
1, 224507, Control_c, 0, 67, 94
1, 224518, Note_on_c, 0, 36, 61
1, 224521, Control_c, 0, 67, 95
1, 224543, Note_off_c, 0, 36, 56
1, 224610, Control_c, 0, 67, 94
1, 224625, Control_c, 0, 67, 94
1, 224636, Note_on_c, 0, 36, 58
1, 224640, Control_c, 0, 67, 93
1, 224669, Note_off_c, 0, 36, 61
1, 224750, Note_on_c, 0, 36, 59
1, 224780, Note_off_c, 0, 36, 54
1, 224868, Note_on_c, 0, 36, 59
1, 224877, Control_c, 0, 67, 94
1, 224892, Control_c, 0, 67, 95
1, 224895, Note_off_c, 0, 36, 55
1, 224907, Control_c, 0, 67, 95
1, 224936, Control_c, 0, 67, 97
1, 224951, Control_c, 0, 67, 102
1, 224966, Control_c, 0, 67, 110
1, 224981, Control_c, 0, 67, 118
1, 224987, Note_on_c, 0, 36, 58
1, 224995, Control_c, 0, 67, 126
1, 225010, Control_c, 0, 67, 127
1, 225023, Note_off_c, 0, 36, 61
1, 225114, Note_on_c, 0, 36, 47
1, 225153, Note_off_c, 0, 36, 52
1, 225234, Note_on_c, 0, 36, 57
1, 225263, Note_off_c, 0, 36, 55
1, 225352, Note_on_c, 0, 36, 59
1, 225385, Note_off_c, 0, 36, 60
1, 225472, Note_on_c, 0, 36, 48
1, 225504, Note_off_c, 0, 36, 51
1, 225580, Note_on_c, 0, 36, 60
1, 225607, Note_off_c, 0, 36, 55
1, 225691, Note_on_c, 0, 36, 58
1, 225718, Note_off_c, 0, 36, 55
1, 225800, Note_on_c, 0, 36, 50
1, 225829, Note_off_c, 0, 36, 53
1, 225931, Control_c, 0, 64, 33
1, 225941, Note_on_c, 0, 60, 62
1, 225945, Control_c, 0, 64, 53
1, 225960, Control_c, 0, 64, 63
1, 225965, Note_on_c, 0, 36, 39
1, 225976, Control_c, 0, 64, 69
1, 225986, Note_on_c, 0, 48, 28
1, 225990, Control_c, 0, 64, 78
1, 226001, Note_off_c, 0, 36, 53
1, 226005, Control_c, 0, 64, 92
1, 226020, Control_c, 0, 64, 127
1, 226089, Note_off_c, 0, 60, 63
1, 226096, Note_on_c, 0, 36, 56
1, 226107, Poly_aftertouch_c, 0, 33, 127
1, 226128, Note_off_c, 0, 48, 51
1, 226137, Note_off_c, 0, 36, 57
1, 226229, Note_on_c, 0, 36, 57
1, 226260, Note_off_c, 0, 36, 57
1, 226302, Note_on_c, 0, 56, 65
1, 226318, Note_on_c, 0, 44, 55
1, 226329, Note_off_c, 0, 56, 66
1, 226344, Note_off_c, 0, 44, 58
1, 226429, Note_on_c, 0, 53, 76
1, 226433, Note_on_c, 0, 36, 47
1, 226447, Note_on_c, 0, 41, 59
1, 226470, Note_off_c, 0, 36, 60
1, 226479, Control_c, 0, 64, 114
1, 226480, Poly_aftertouch_c, 0, 33, 0
1, 226494, Control_c, 0, 64, 98
1, 226509, Control_c, 0, 64, 88
1, 226524, Control_c, 0, 64, 78
1, 226539, Control_c, 0, 64, 68
1, 226554, Control_c, 0, 64, 57
1, 226563, Note_on_c, 0, 36, 61
1, 226568, Control_c, 0, 64, 26
1, 226583, Control_c, 0, 64, 0
1, 226596, Note_off_c, 0, 36, 61
1, 226691, Note_on_c, 0, 36, 56
1, 226724, Note_off_c, 0, 36, 58
1, 226810, Note_on_c, 0, 36, 60
1, 226839, Note_off_c, 0, 36, 58
1, 226920, Note_on_c, 0, 36, 63
1, 226956, Note_off_c, 0, 36, 61
1, 227045, Note_on_c, 0, 36, 52
1, 227078, Note_off_c, 0, 36, 57
1, 227169, Note_on_c, 0, 36, 56
1, 227184, Control_c, 0, 64, 49
1, 227198, Control_c, 0, 64, 64
1, 227199, Note_off_c, 0, 36, 57
1, 227213, Control_c, 0, 64, 72
1, 227228, Control_c, 0, 64, 84
1, 227231, Note_off_c, 0, 41, 61
1, 227242, Control_c, 0, 64, 106
1, 227257, Control_c, 0, 64, 127
1, 227263, Note_off_c, 0, 53, 62
1, 227287, Note_on_c, 0, 36, 58
1, 227323, Note_off_c, 0, 36, 59
1, 227439, Note_on_c, 0, 36, 17
1, 227460, Poly_aftertouch_c, 0, 33, 127
1, 227471, Note_off_c, 0, 36, 51
1, 227524, Note_on_c, 0, 56, 66
1, 227541, Note_on_c, 0, 44, 34
1, 227555, Note_on_c, 0, 36, 29
1, 227579, Note_off_c, 0, 44, 49
1, 227601, Note_off_c, 0, 36, 47
1, 227661, Note_on_c, 0, 36, 45
1, 227689, Note_off_c, 0, 36, 55
1, 227725, Poly_aftertouch_c, 0, 33, 0
1, 227762, Poly_aftertouch_c, 0, 33, 127
1, 227768, Note_on_c, 0, 36, 60
1, 227795, Note_off_c, 0, 56, 63
1, 227798, Note_on_c, 0, 60, 70
1, 227806, Note_off_c, 0, 36, 56
1, 227824, Note_off_c, 0, 60, 67
1, 227896, Note_on_c, 0, 36, 58
1, 227904, Note_on_c, 0, 65, 76
1, 227917, Control_c, 0, 64, 95
1, 227932, Control_c, 0, 64, 80
1, 227934, Note_off_c, 0, 36, 61
1, 227935, Note_on_c, 0, 53, 52
1, 227946, Control_c, 0, 64, 70
1, 227961, Control_c, 0, 64, 67
1, 227976, Control_c, 0, 64, 70
1, 227991, Control_c, 0, 64, 76
1, 228006, Control_c, 0, 64, 89
1, 228020, Note_on_c, 0, 36, 66
1, 228020, Control_c, 0, 64, 105
1, 228021, Poly_aftertouch_c, 0, 33, 0
1, 228022, Note_off_c, 0, 53, 64
1, 228035, Control_c, 0, 64, 127
1, 228054, Note_off_c, 0, 36, 59
1, 228059, Poly_aftertouch_c, 0, 33, 127
1, 228151, Note_on_c, 0, 36, 55
1, 228181, Note_off_c, 0, 36, 51
1, 228250, Note_on_c, 0, 68, 79
1, 228256, Note_off_c, 0, 65, 61
1, 228264, Note_on_c, 0, 56, 62
1, 228271, Note_on_c, 0, 36, 58
1, 228292, Note_off_c, 0, 36, 61
1, 228297, Note_off_c, 0, 56, 63
1, 228360, Note_on_c, 0, 36, 73
1, 228396, Note_off_c, 0, 36, 59
1, 228488, Note_on_c, 0, 36, 66
1, 228500, Note_on_c, 0, 72, 81
1, 228505, Note_off_c, 0, 68, 66
1, 228524, Note_off_c, 0, 72, 68
1, 228525, Note_off_c, 0, 36, 59
1, 228593, Note_on_c, 0, 77, 90
1, 228593, Control_c, 0, 64, 91
1, 228605, Note_on_c, 0, 65, 74
1, 228608, Note_on_c, 0, 36, 61
1, 228608, Control_c, 0, 64, 70
1, 228622, Control_c, 0, 64, 29
1, 228637, Control_c, 0, 64, 0
1, 228639, Note_off_c, 0, 36, 62
1, 228667, Control_c, 0, 64, 59
1, 228682, Control_c, 0, 64, 74
1, 228696, Control_c, 0, 64, 96
1, 228710, Note_off_c, 0, 77, 66
1, 228711, Control_c, 0, 64, 127
1, 228722, Note_on_c, 0, 36, 66
1, 228734, Note_off_c, 0, 65, 64
1, 228736, Poly_aftertouch_c, 0, 33, 0
1, 228752, Note_off_c, 0, 36, 63
1, 228772, Poly_aftertouch_c, 0, 33, 127
1, 228828, Note_on_c, 0, 36, 59
1, 228870, Note_off_c, 0, 36, 57
1, 228979, Note_on_c, 0, 65, 70
1, 228981, Note_on_c, 0, 36, 59
1, 228991, Note_on_c, 0, 53, 59
1, 229017, Note_off_c, 0, 36, 61
1, 229024, Note_off_c, 0, 53, 66
1, 229067, Note_off_c, 0, 65, 62
1, 229105, Note_on_c, 0, 36, 68
1, 229135, Note_off_c, 0, 36, 63
1, 229202, Poly_aftertouch_c, 0, 33, 0
1, 229217, Note_on_c, 0, 36, 56
1, 229239, Poly_aftertouch_c, 0, 33, 127
1, 229255, Note_off_c, 0, 36, 56
1, 229370, Note_on_c, 0, 72, 79
1, 229385, Note_on_c, 0, 36, 58
1, 229386, Note_on_c, 0, 64, 63
1, 229386, Control_c, 0, 64, 122
1, 229392, Note_on_c, 0, 67, 65
1, 229401, Control_c, 0, 64, 107
1, 229416, Control_c, 0, 64, 95
1, 229418, Note_off_c, 0, 36, 60
1, 229430, Control_c, 0, 64, 79
1, 229445, Control_c, 0, 64, 64
1, 229460, Control_c, 0, 64, 0
1, 229524, Note_on_c, 0, 36, 41
1, 229534, Control_c, 0, 64, 35
1, 229547, Poly_aftertouch_c, 0, 33, 0
1, 229549, Control_c, 0, 64, 62
1, 229559, Note_off_c, 0, 36, 47
1, 229564, Control_c, 0, 64, 71
1, 229579, Control_c, 0, 64, 85
1, 229593, Control_c, 0, 64, 108
1, 229608, Control_c, 0, 64, 127
1, 229656, Note_on_c, 0, 36, 25
1, 229682, Poly_aftertouch_c, 0, 33, 127
1, 229684, Note_off_c, 0, 67, 63
1, 229698, Note_off_c, 0, 36, 45
1, 229708, Note_off_c, 0, 72, 62
1, 229719, Control_c, 0, 67, 127
1, 229738, Note_on_c, 0, 36, 49
1, 229738, Poly_aftertouch_c, 0, 33, 0
1, 229749, Control_c, 0, 67, 126
1, 229771, Note_off_c, 0, 36, 59
1, 229776, Poly_aftertouch_c, 0, 33, 127
1, 229779, Control_c, 0, 67, 126
1, 229804, Poly_aftertouch_c, 0, 33, 0
1, 229808, Control_c, 0, 67, 125
1, 229841, Poly_aftertouch_c, 0, 33, 127
1, 229849, Note_on_c, 0, 36, 63
1, 229884, Note_off_c, 0, 36, 61
1, 229959, Note_on_c, 0, 36, 59
1, 229975, Note_off_c, 0, 64, 54
1, 229978, Note_on_c, 0, 74, 71
1, 229994, Note_off_c, 0, 36, 59
1, 230090, Control_c, 0, 67, 126
1, 230120, Control_c, 0, 64, 118
1, 230134, Control_c, 0, 64, 91
1, 230135, Note_off_c, 0, 74, 64
1, 230147, Note_on_c, 0, 76, 72
1, 230149, Control_c, 0, 64, 74
1, 230150, Note_on_c, 0, 71, 70
1, 230153, Note_on_c, 0, 36, 51
1, 230164, Control_c, 0, 64, 60
1, 230168, Note_on_c, 0, 65, 54
1, 230179, Control_c, 0, 64, 51
1, 230194, Note_off_c, 0, 36, 61
1, 230194, Control_c, 0, 64, 61
1, 230208, Control_c, 0, 64, 69
1, 230223, Control_c, 0, 64, 80
1, 230232, Note_off_c, 0, 71, 52
1, 230235, Note_off_c, 0, 76, 62
1, 230238, Control_c, 0, 64, 99
1, 230244, Note_on_c, 0, 74, 71
1, 230253, Control_c, 0, 64, 127
1, 230283, Note_off_c, 0, 74, 59
1, 230288, Note_on_c, 0, 36, 60
1, 230295, Note_on_c, 0, 76, 70
1, 230323, Note_off_c, 0, 36, 60
1, 230340, Note_off_c, 0, 65, 30
1, 230351, Note_off_c, 0, 76, 63
1, 230356, Note_on_c, 0, 74, 66
1, 230394, Note_off_c, 0, 74, 60
1, 230409, Note_on_c, 0, 76, 68
1, 230417, Note_on_c, 0, 36, 54
1, 230436, Note_off_c, 0, 36, 62
1, 230438, Control_c, 0, 67, 126
1, 230464, Note_off_c, 0, 76, 64
1, 230475, Note_on_c, 0, 74, 63
1, 230483, Control_c, 0, 67, 127
1, 230513, Note_on_c, 0, 36, 63
1, 230530, Note_on_c, 0, 76, 46
1, 230533, Note_off_c, 0, 74, 58
1, 230548, Note_off_c, 0, 36, 61
1, 230567, Note_off_c, 0, 76, 64
1, 230578, Note_on_c, 0, 72, 77
1, 230635, Note_on_c, 0, 36, 60
1, 230653, Note_off_c, 0, 72, 58
1, 230662, Note_on_c, 0, 76, 59
1, 230665, Note_off_c, 0, 36, 64
1, 230690, Control_c, 0, 67, 127
1, 230716, Note_on_c, 0, 74, 69
1, 230735, Note_off_c, 0, 76, 58
1, 230742, Note_on_c, 0, 36, 57
1, 230772, Note_off_c, 0, 36, 55
1, 230810, Control_c, 0, 64, 121
1, 230825, Control_c, 0, 64, 93
1, 230829, Note_on_c, 0, 72, 76
1, 230833, Note_off_c, 0, 74, 62
1, 230838, Note_on_c, 0, 64, 57
1, 230839, Control_c, 0, 64, 76
1, 230849, Note_on_c, 0, 36, 71
1, 230854, Control_c, 0, 64, 62
1, 230869, Control_c, 0, 64, 0
1, 230877, Note_off_c, 0, 36, 63
1, 230878, Poly_aftertouch_c, 0, 33, 0
1, 230958, Note_on_c, 0, 36, 58
1, 230992, Note_off_c, 0, 36, 60
1, 231078, Note_on_c, 0, 36, 59
1, 231105, Note_off_c, 0, 36, 55
1, 231143, Control_c, 0, 67, 125
1, 231158, Poly_aftertouch_c, 0, 33, 0
1, 231158, Control_c, 0, 67, 120
1, 231172, Control_c, 0, 67, 117
1, 231187, Control_c, 0, 67, 113
1, 231201, Note_on_c, 0, 36, 63
1, 231202, Control_c, 0, 67, 111
1, 231216, Control_c, 0, 67, 110
1, 231232, Note_off_c, 0, 36, 58
1, 231246, Control_c, 0, 67, 111
1, 231255, Note_off_c, 0, 72, 60
1, 231256, Note_off_c, 0, 64, 60
1, 231261, Control_c, 0, 67, 113
1, 231276, Control_c, 0, 67, 114
1, 231290, Control_c, 0, 67, 116
1, 231305, Control_c, 0, 67, 117
1, 231320, Note_on_c, 0, 36, 58
1, 231320, Control_c, 0, 67, 118
1, 231335, Control_c, 0, 67, 118
1, 231346, Note_off_c, 0, 36, 54
1, 231365, Control_c, 0, 67, 119
1, 231380, Control_c, 0, 67, 120
1, 231430, Note_on_c, 0, 36, 60
1, 231454, Control_c, 0, 67, 119
1, 231457, Note_off_c, 0, 36, 57
1, 231469, Control_c, 0, 67, 118
1, 231483, Control_c, 0, 67, 116
1, 231498, Control_c, 0, 67, 115
1, 231528, Control_c, 0, 67, 117
1, 231543, Control_c, 0, 67, 121
1, 231550, Note_on_c, 0, 36, 63
1, 231559, Control_c, 0, 67, 127
1, 231581, Note_off_c, 0, 36, 59
1, 231691, Note_on_c, 0, 37, 37
1, 231724, Note_off_c, 0, 37, 49
1, 231812, Note_on_c, 0, 37, 44
1, 231842, Note_off_c, 0, 37, 51
1, 231936, Control_c, 0, 64, 36
1, 231951, Control_c, 0, 64, 54
1, 231952, Note_on_c, 0, 37, 42
1, 231964, Note_on_c, 0, 61, 49
1, 231966, Control_c, 0, 64, 63
1, 231980, Note_on_c, 0, 49, 38
1, 231981, Control_c, 0, 64, 68
1, 231995, Control_c, 0, 64, 76
1, 231998, Note_off_c, 0, 37, 60
1, 232010, Control_c, 0, 64, 88
1, 232025, Control_c, 0, 64, 105
1, 232039, Control_c, 0, 64, 127
1, 232112, Note_off_c, 0, 61, 52
1, 232114, Note_off_c, 0, 49, 35
1, 232150, Poly_aftertouch_c, 0, 37, 127
1, 232176, Poly_aftertouch_c, 0, 37, 0
1, 232207, Note_on_c, 0, 37, 18
1, 232250, Note_on_c, 0, 58, 59
1, 232259, Note_off_c, 0, 37, 44
1, 232262, Note_on_c, 0, 46, 55
1, 232280, Note_off_c, 0, 58, 66
1, 232299, Note_off_c, 0, 46, 64
1, 232385, Note_on_c, 0, 37, 47
1, 232396, Note_on_c, 0, 54, 67
1, 232422, Note_off_c, 0, 37, 63
1, 232426, Control_c, 0, 64, 119
1, 232441, Control_c, 0, 64, 99
1, 232447, Note_on_c, 0, 42, 44
1, 232455, Control_c, 0, 64, 86
1, 232470, Control_c, 0, 64, 74
1, 232485, Control_c, 0, 64, 63
1, 232500, Control_c, 0, 64, 48
1, 232515, Control_c, 0, 64, 30
1, 232518, Note_on_c, 0, 37, 49
1, 232529, Control_c, 0, 64, 25
1, 232543, Note_off_c, 0, 37, 56
1, 232544, Control_c, 0, 64, 26
1, 232622, Note_on_c, 0, 37, 56
1, 232641, Control_c, 0, 64, 25
1, 232656, Control_c, 0, 64, 24
1, 232662, Note_off_c, 0, 37, 61
1, 232670, Control_c, 0, 64, 21
1, 232744, Control_c, 0, 64, 21
1, 232757, Note_on_c, 0, 37, 52
1, 232759, Control_c, 0, 64, 17
1, 232774, Control_c, 0, 64, 16
1, 232784, Note_off_c, 0, 37, 57
1, 232862, Control_c, 0, 64, 15
1, 232873, Note_on_c, 0, 37, 52
1, 232903, Note_off_c, 0, 37, 55
1, 232989, Note_on_c, 0, 37, 57
1, 233014, Note_off_c, 0, 37, 60
1, 233085, Control_c, 0, 64, 16
1, 233100, Control_c, 0, 64, 22
1, 233112, Note_on_c, 0, 37, 52
1, 233115, Control_c, 0, 64, 35
1, 233130, Control_c, 0, 64, 48
1, 233140, Note_off_c, 0, 37, 58
1, 233144, Control_c, 0, 64, 62
1, 233160, Control_c, 0, 64, 70
1, 233174, Control_c, 0, 64, 80
1, 233189, Control_c, 0, 64, 95
1, 233203, Note_off_c, 0, 42, 60
1, 233204, Control_c, 0, 64, 112
1, 233219, Control_c, 0, 64, 127
1, 233236, Note_on_c, 0, 37, 53
1, 233236, Note_off_c, 0, 54, 62
1, 233266, Note_off_c, 0, 37, 54
1, 233364, Note_on_c, 0, 37, 42
1, 233406, Note_off_c, 0, 37, 50
1, 233490, Note_on_c, 0, 58, 59
1, 233495, Note_on_c, 0, 46, 46
1, 233498, Note_on_c, 0, 37, 51
1, 233522, Note_off_c, 0, 37, 59
1, 233525, Note_off_c, 0, 46, 55
1, 233607, Note_on_c, 0, 37, 55
1, 233639, Note_off_c, 0, 37, 56
1, 233741, Note_on_c, 0, 61, 66
1, 233741, Note_on_c, 0, 37, 40
1, 233741, Note_off_c, 0, 58, 64
1, 233760, Note_off_c, 0, 61, 63
1, 233763, Note_off_c, 0, 37, 60
1, 233793, Poly_aftertouch_c, 0, 49, 127
1, 233833, Poly_aftertouch_c, 0, 49, 0
1, 233845, Note_on_c, 0, 37, 57
1, 233861, Note_on_c, 0, 66, 65
1, 233863, Control_c, 0, 64, 116
1, 233872, Note_on_c, 0, 54, 61
1, 233878, Control_c, 0, 64, 92
1, 233881, Note_off_c, 0, 37, 64
1, 233893, Control_c, 0, 64, 76
1, 233902, Note_off_c, 0, 66, 57
1, 233907, Note_on_c, 0, 65, 59
1, 233908, Control_c, 0, 64, 64
1, 233923, Control_c, 0, 64, 62
1, 233938, Control_c, 0, 64, 67
1, 233952, Note_off_c, 0, 65, 62
1, 233952, Control_c, 0, 64, 76
1, 233965, Note_on_c, 0, 66, 44
1, 233967, Note_on_c, 0, 37, 62
1, 233968, Control_c, 0, 64, 93
1, 233982, Note_off_c, 0, 54, 55
1, 233982, Control_c, 0, 64, 127
1, 233997, Note_off_c, 0, 37, 64
1, 234026, Note_off_c, 0, 66, 63
1, 234074, Note_on_c, 0, 37, 64
1, 234108, Note_off_c, 0, 37, 63
1, 234221, Note_on_c, 0, 37, 57
1, 234225, Note_on_c, 0, 70, 77
1, 234230, Note_on_c, 0, 58, 68
1, 234257, Note_off_c, 0, 37, 60
1, 234257, Note_off_c, 0, 58, 67
1, 234274, Note_off_c, 0, 70, 62
1, 234342, Note_on_c, 0, 37, 55
1, 234364, Note_off_c, 0, 37, 62
1, 234440, Note_on_c, 0, 37, 60
1, 234468, Note_on_c, 0, 73, 80
1, 234479, Note_off_c, 0, 37, 61
1, 234481, Note_on_c, 0, 61, 45
1, 234492, Note_off_c, 0, 73, 66
1, 234508, Note_off_c, 0, 61, 56
1, 234567, Control_c, 0, 64, 95
1, 234572, Note_on_c, 0, 78, 87
1, 234577, Note_on_c, 0, 37, 59
1, 234581, Control_c, 0, 64, 74
1, 234584, Note_on_c, 0, 66, 64
1, 234596, Control_c, 0, 64, 54
1, 234600, Note_off_c, 0, 37, 60
1, 234611, Control_c, 0, 64, 0
1, 234641, Control_c, 0, 64, 53
1, 234656, Control_c, 0, 64, 69
1, 234671, Control_c, 0, 64, 89
1, 234683, Note_on_c, 0, 37, 61
1, 234686, Control_c, 0, 64, 127
1, 234689, Note_off_c, 0, 78, 67
1, 234698, Note_off_c, 0, 66, 64
1, 234717, Note_off_c, 0, 37, 63
1, 234806, Note_on_c, 0, 37, 54
1, 234829, Note_off_c, 0, 37, 60
1, 234933, Note_on_c, 0, 37, 56
1, 234933, Note_on_c, 0, 66, 75
1, 234942, Note_on_c, 0, 54, 65
1, 234967, Note_off_c, 0, 37, 64
1, 234972, Note_off_c, 0, 54, 65
1, 235012, Note_off_c, 0, 66, 63
1, 235062, Note_on_c, 0, 37, 61
1, 235094, Note_off_c, 0, 37, 65
1, 235179, Note_on_c, 0, 37, 57
1, 235217, Note_off_c, 0, 37, 57
1, 235311, Note_on_c, 0, 73, 79
1, 235315, Note_on_c, 0, 68, 65
1, 235321, Note_on_c, 0, 37, 61
1, 235323, Note_on_c, 0, 65, 61
1, 235359, Note_off_c, 0, 37, 63
1, 235360, Control_c, 0, 64, 105
1, 235374, Control_c, 0, 64, 83
1, 235389, Control_c, 0, 64, 63
1, 235404, Control_c, 0, 64, 0
1, 235434, Control_c, 0, 67, 119
1, 235443, Note_on_c, 0, 37, 59
1, 235449, Control_c, 0, 64, 45
1, 235449, Control_c, 0, 67, 108
1, 235464, Control_c, 0, 64, 65
1, 235464, Control_c, 0, 67, 93
1, 235478, Note_off_c, 0, 37, 63
1, 235479, Control_c, 0, 64, 76
1, 235479, Control_c, 0, 67, 73
1, 235494, Control_c, 0, 64, 95
1, 235494, Control_c, 0, 67, 44
1, 235508, Control_c, 0, 64, 127
1, 235508, Control_c, 0, 67, 19
1, 235523, Control_c, 0, 67, 0
1, 235560, Note_on_c, 0, 37, 56
1, 235582, Note_off_c, 0, 37, 62
1, 235592, Note_off_c, 0, 68, 64
1, 235616, Note_off_c, 0, 73, 61
1, 235676, Note_on_c, 0, 37, 60
1, 235711, Note_off_c, 0, 37, 63
1, 235798, Note_on_c, 0, 37, 56
1, 235827, Note_off_c, 0, 37, 54
1, 235895, Note_on_c, 0, 75, 69
1, 235921, Note_on_c, 0, 37, 32
1, 235936, Note_off_c, 0, 65, 45
1, 235968, Note_off_c, 0, 37, 43
1, 236050, Control_c, 0, 64, 95
1, 236065, Control_c, 0, 64, 77
1, 236073, Note_on_c, 0, 77, 67
1, 236075, Note_on_c, 0, 37, 52
1, 236075, Note_off_c, 0, 75, 59
1, 236075, Note_on_c, 0, 72, 54
1, 236079, Control_c, 0, 64, 60
1, 236094, Control_c, 0, 64, 40
1, 236103, Note_on_c, 0, 66, 50
1, 236109, Note_off_c, 0, 37, 62
1, 236109, Control_c, 0, 64, 50
1, 236124, Control_c, 0, 64, 64
1, 236139, Control_c, 0, 64, 75
1, 236153, Control_c, 0, 64, 95
1, 236159, Note_off_c, 0, 72, 58
1, 236168, Control_c, 0, 64, 127
1, 236173, Note_off_c, 0, 77, 62
1, 236190, Note_on_c, 0, 75, 66
1, 236202, Note_on_c, 0, 37, 55
1, 236223, Note_off_c, 0, 75, 58
1, 236237, Note_off_c, 0, 37, 50
1, 236243, Note_on_c, 0, 77, 63
1, 236246, Note_off_c, 0, 66, 37
1, 236298, Note_off_c, 0, 77, 61
1, 236308, Note_on_c, 0, 75, 68
1, 236318, Note_on_c, 0, 37, 49
1, 236339, Note_off_c, 0, 37, 61
1, 236355, Note_off_c, 0, 75, 55
1, 236361, Note_on_c, 0, 77, 65
1, 236427, Note_off_c, 0, 77, 62
1, 236427, Note_on_c, 0, 37, 60
1, 236447, Note_on_c, 0, 75, 34
1, 236450, Note_off_c, 0, 37, 61
1, 236457, Note_on_c, 0, 73, 66
1, 236477, Note_off_c, 0, 75, 54
1, 236527, Note_off_c, 0, 73, 61
1, 236529, Note_on_c, 0, 37, 68
1, 236531, Note_on_c, 0, 77, 62
1, 236574, Note_off_c, 0, 37, 59
1, 236577, Note_on_c, 0, 75, 63
1, 236580, Note_off_c, 0, 77, 55
1, 236653, Note_on_c, 0, 37, 70
1, 236684, Note_on_c, 0, 73, 77
1, 236684, Note_off_c, 0, 37, 65
1, 236687, Note_on_c, 0, 65, 71
1, 236695, Note_off_c, 0, 75, 62
1, 236754, Control_c, 0, 64, 100
1, 236769, Control_c, 0, 64, 81
1, 236781, Note_off_c, 0, 65, 52
1, 236784, Control_c, 0, 64, 64
1, 236788, Note_on_c, 0, 41, 97
1, 236793, Note_on_c, 0, 35, 95
1, 236799, Control_c, 0, 64, 0
1, 236808, Note_off_c, 0, 73, 52
1, 236817, Note_off_c, 0, 41, 65
1, 236819, Note_off_c, 0, 35, 71
1, 236910, Note_on_c, 0, 41, 91
1, 236912, Note_on_c, 0, 35, 91
1, 236939, Note_off_c, 0, 41, 65
1, 236943, Note_off_c, 0, 35, 69
1, 237032, Note_on_c, 0, 35, 84
1, 237035, Note_on_c, 0, 41, 74
1, 237067, Note_off_c, 0, 41, 64
1, 237070, Note_off_c, 0, 35, 66
1, 237163, Note_on_c, 0, 41, 65
1, 237168, Note_on_c, 0, 35, 68
1, 237195, Note_off_c, 0, 41, 63
1, 237202, Note_off_c, 0, 35, 65
1, 237288, Note_on_c, 0, 41, 68
1, 237290, Note_on_c, 0, 35, 67
1, 237321, Note_off_c, 0, 41, 64
1, 237326, Note_off_c, 0, 35, 63
1, 237416, Note_on_c, 0, 35, 60
1, 237419, Note_on_c, 0, 41, 48
1, 237448, Note_off_c, 0, 41, 57
1, 237449, Note_off_c, 0, 35, 64
1, 237547, Note_on_c, 0, 35, 56
1, 237548, Note_on_c, 0, 41, 46
1, 237576, Note_off_c, 0, 35, 58
1, 237579, Note_off_c, 0, 41, 50
1, 237637, Control_c, 0, 67, 8
1, 237651, Control_c, 0, 67, 9
1, 237666, Control_c, 0, 67, 10
1, 237673, Note_on_c, 0, 35, 51
1, 237674, Note_on_c, 0, 41, 48
1, 237681, Control_c, 0, 67, 11
1, 237696, Control_c, 0, 67, 13
1, 237701, Note_off_c, 0, 35, 58
1, 237704, Note_off_c, 0, 41, 54
1, 237711, Control_c, 0, 67, 16
1, 237725, Control_c, 0, 67, 19
1, 237740, Control_c, 0, 67, 21
1, 237755, Control_c, 0, 67, 24
1, 237770, Control_c, 0, 67, 25
1, 237784, Control_c, 0, 67, 26
1, 237798, Note_on_c, 0, 35, 51
1, 237798, Note_on_c, 0, 41, 50
1, 237799, Control_c, 0, 67, 28
1, 237814, Control_c, 0, 67, 31
1, 237828, Note_off_c, 0, 41, 57
1, 237828, Note_off_c, 0, 35, 57
1, 237829, Control_c, 0, 67, 34
1, 237844, Control_c, 0, 67, 37
1, 237858, Control_c, 0, 67, 39
1, 237881, Control_c, 0, 67, 40
1, 237896, Control_c, 0, 67, 41
1, 237911, Control_c, 0, 67, 41
1, 237925, Control_c, 0, 67, 42
1, 237929, Note_on_c, 0, 35, 61
1, 237935, Note_on_c, 0, 41, 49
1, 237940, Control_c, 0, 67, 43
1, 237956, Control_c, 0, 67, 43
1, 237965, Note_off_c, 0, 35, 65
1, 237965, Note_off_c, 0, 41, 54
1, 237986, Control_c, 0, 67, 44
1, 238000, Control_c, 0, 67, 44
1, 238015, Control_c, 0, 67, 46
1, 238030, Control_c, 0, 67, 49
1, 238045, Control_c, 0, 67, 51
1, 238051, Note_on_c, 0, 41, 49
1, 238051, Note_on_c, 0, 35, 53
1, 238060, Control_c, 0, 67, 52
1, 238084, Note_off_c, 0, 35, 61
1, 238089, Control_c, 0, 67, 53
1, 238091, Note_off_c, 0, 41, 53
1, 238134, Control_c, 0, 67, 53
1, 238163, Control_c, 0, 67, 54
1, 238188, Note_on_c, 0, 40, 59
1, 238193, Note_on_c, 0, 72, 60
1, 238281, Control_c, 0, 64, 37
1, 238296, Control_c, 0, 64, 51
1, 238311, Control_c, 0, 64, 59
1, 238318, Note_on_c, 0, 36, 54
1, 238326, Control_c, 0, 64, 63
1, 238341, Control_c, 0, 64, 66
1, 238353, Note_off_c, 0, 36, 61
1, 238355, Control_c, 0, 64, 70
1, 238370, Control_c, 0, 64, 76
1, 238385, Control_c, 0, 64, 83
1, 238400, Control_c, 0, 64, 90
1, 238415, Control_c, 0, 64, 99
1, 238415, Control_c, 0, 67, 54
1, 238430, Control_c, 0, 64, 108
1, 238442, Note_on_c, 0, 36, 62
1, 238445, Control_c, 0, 64, 121
1, 238460, Control_c, 0, 64, 127
1, 238480, Note_off_c, 0, 36, 52
1, 238489, Control_c, 0, 67, 55
1, 238504, Control_c, 0, 67, 55
1, 238518, Control_c, 0, 67, 56
1, 238533, Control_c, 0, 67, 57
1, 238548, Control_c, 0, 67, 58
1, 238571, Note_on_c, 0, 36, 47
1, 238592, Control_c, 0, 67, 58
1, 238603, Note_off_c, 0, 36, 50
1, 238719, Control_c, 0, 67, 58
1, 238759, Note_on_c, 0, 36, 46
1, 238774, Note_off_c, 0, 72, 60
1, 238791, Note_on_c, 0, 74, 63
1, 238877, Note_off_c, 0, 74, 63
1, 238916, Note_on_c, 0, 72, 65
1, 238927, Control_c, 0, 64, 109
1, 238942, Control_c, 0, 64, 85
1, 238946, Note_on_c, 0, 41, 78
1, 238948, Note_off_c, 0, 72, 67
1, 238957, Control_c, 0, 64, 69
1, 238959, Note_on_c, 0, 74, 58
1, 238966, Note_off_c, 0, 36, 58
1, 238971, Control_c, 0, 64, 46
1, 238974, Note_off_c, 0, 40, 47
1, 238986, Control_c, 0, 64, 0
1, 238990, Note_off_c, 0, 74, 66
1, 239004, Note_on_c, 0, 76, 59
1, 239016, Control_c, 0, 64, 48
1, 239025, Note_off_c, 0, 76, 62
1, 239030, Control_c, 0, 64, 65
1, 239045, Control_c, 0, 64, 75
1, 239049, Note_on_c, 0, 74, 64
1, 239060, Control_c, 0, 64, 85
1, 239075, Control_c, 0, 64, 93
1, 239080, Note_off_c, 0, 74, 63
1, 239082, Note_on_c, 0, 36, 67
1, 239089, Note_on_c, 0, 76, 78
1, 239090, Control_c, 0, 64, 98
1, 239104, Control_c, 0, 64, 102
1, 239119, Note_off_c, 0, 76, 60
1, 239119, Control_c, 0, 64, 107
1, 239130, Note_off_c, 0, 36, 56
1, 239134, Control_c, 0, 64, 114
1, 239146, Note_on_c, 0, 74, 67
1, 239148, Control_c, 0, 64, 127
1, 239172, Note_off_c, 0, 74, 66
1, 239184, Note_on_c, 0, 76, 74
1, 239202, Note_off_c, 0, 76, 66
1, 239209, Note_on_c, 0, 36, 63
1, 239238, Note_on_c, 0, 74, 67
1, 239247, Note_off_c, 0, 36, 60
1, 239266, Note_on_c, 0, 76, 78
1, 239267, Note_off_c, 0, 74, 63
1, 239295, Note_off_c, 0, 76, 56
1, 239312, Control_c, 0, 67, 58
1, 239320, Note_on_c, 0, 36, 69
1, 239330, Note_on_c, 0, 74, 64
1, 239350, Note_off_c, 0, 36, 63
1, 239357, Note_off_c, 0, 74, 62
1, 239375, Note_on_c, 0, 76, 79
1, 239408, Note_off_c, 0, 76, 60
1, 239408, Control_c, 0, 67, 59
1, 239431, Note_on_c, 0, 74, 64
1, 239434, Note_on_c, 0, 36, 61
1, 239437, Control_c, 0, 67, 59
1, 239452, Control_c, 0, 67, 60
1, 239470, Note_off_c, 0, 36, 61
1, 239482, Control_c, 0, 67, 60
1, 239491, Note_on_c, 0, 72, 72
1, 239492, Note_off_c, 0, 74, 62
1, 239497, Control_c, 0, 67, 61
1, 239512, Control_c, 0, 67, 62
1, 239526, Note_off_c, 0, 72, 59
1, 239527, Control_c, 0, 67, 64
1, 239542, Control_c, 0, 67, 65
1, 239548, Note_on_c, 0, 76, 69
1, 239554, Note_on_c, 0, 36, 61
1, 239557, Control_c, 0, 67, 66
1, 239571, Control_c, 0, 67, 67
1, 239586, Control_c, 0, 67, 69
1, 239595, Note_off_c, 0, 36, 56
1, 239601, Note_off_c, 0, 76, 58
1, 239601, Control_c, 0, 67, 70
1, 239608, Note_on_c, 0, 74, 66
1, 239616, Control_c, 0, 64, 98
1, 239616, Control_c, 0, 67, 70
1, 239631, Control_c, 0, 64, 78
1, 239631, Control_c, 0, 67, 71
1, 239643, Note_off_c, 0, 41, 37
1, 239646, Control_c, 0, 64, 55
1, 239661, Control_c, 0, 64, 0
1, 239684, Note_off_c, 0, 74, 56
1, 239694, Note_on_c, 0, 72, 72
1, 239706, Note_on_c, 0, 40, 53
1, 239735, Control_c, 0, 64, 44
1, 239750, Control_c, 0, 64, 64
1, 239750, Control_c, 0, 67, 70
1, 239759, Note_off_c, 0, 72, 64
1, 239765, Control_c, 0, 64, 72
1, 239765, Control_c, 0, 67, 70
1, 239779, Control_c, 0, 64, 84
1, 239779, Control_c, 0, 67, 69
1, 239794, Control_c, 0, 64, 101
1, 239809, Control_c, 0, 64, 127
1, 239814, Note_on_c, 0, 36, 51
1, 239824, Control_c, 0, 67, 69
1, 239850, Note_off_c, 0, 36, 57
1, 239957, Control_c, 0, 67, 69
1, 239961, Note_on_c, 0, 36, 48
1, 240001, Control_c, 0, 67, 70
1, 240008, Note_off_c, 0, 36, 44
1, 240016, Control_c, 0, 67, 70
1, 240099, Note_on_c, 0, 49, 70
1, 240125, Note_on_c, 0, 36, 47
1, 240146, Note_off_c, 0, 49, 61
1, 240150, Note_off_c, 0, 36, 56
1, 240186, Control_c, 0, 67, 71
1, 240224, Note_on_c, 0, 49, 71
1, 240239, Note_on_c, 0, 36, 54
1, 240251, Note_off_c, 0, 49, 67
1, 240260, Control_c, 0, 67, 71
1, 240269, Note_off_c, 0, 36, 54
1, 240275, Control_c, 0, 67, 72
1, 240332, Note_on_c, 0, 49, 68
1, 240335, Control_c, 0, 67, 72
1, 240374, Note_off_c, 0, 40, 30
1, 240377, Note_off_c, 0, 49, 62
1, 240380, Control_c, 0, 67, 73
1, 240394, Control_c, 0, 67, 73
1, 240424, Control_c, 0, 64, 111
1, 240424, Control_c, 0, 67, 74
1, 240426, Poly_aftertouch_c, 0, 36, 127
1, 240439, Control_c, 0, 64, 92
1, 240439, Control_c, 0, 67, 74
1, 240454, Control_c, 0, 64, 76
1, 240467, Note_on_c, 0, 48, 64
1, 240469, Control_c, 0, 64, 54
1, 240475, Poly_aftertouch_c, 0, 36, 0
1, 240484, Control_c, 0, 64, 0
1, 240528, Control_c, 0, 64, 36
1, 240541, Poly_aftertouch_c, 0, 36, 0
1, 240543, Control_c, 0, 64, 62
1, 240558, Control_c, 0, 64, 74
1, 240573, Control_c, 0, 64, 88
1, 240588, Control_c, 0, 64, 111
1, 240589, Note_on_c, 0, 36, 56
1, 240594, Note_off_c, 0, 48, 61
1, 240602, Control_c, 0, 64, 127
1, 240622, Note_off_c, 0, 36, 63
1, 240710, Note_on_c, 0, 36, 57
1, 240748, Note_off_c, 0, 36, 60
1, 240780, Control_c, 0, 64, 105
1, 240794, Control_c, 0, 64, 86
1, 240809, Control_c, 0, 64, 73
1, 240824, Control_c, 0, 64, 69
1, 240839, Control_c, 0, 64, 73
1, 240840, Note_on_c, 0, 36, 57
1, 240854, Control_c, 0, 64, 84
1, 240876, Control_c, 0, 64, 103
1, 240876, Control_c, 0, 67, 74
1, 240884, Note_off_c, 0, 36, 61
1, 240891, Control_c, 0, 64, 127
1, 240950, Control_c, 0, 67, 73
1, 240974, Note_on_c, 0, 36, 49
1, 240980, Control_c, 0, 67, 73
1, 241003, Note_off_c, 0, 36, 53
1, 241083, Control_c, 0, 67, 72
1, 241089, Note_on_c, 0, 36, 58
1, 241110, Note_off_c, 0, 36, 60
1, 241204, Control_c, 0, 67, 72
1, 241208, Note_on_c, 0, 43, 89
1, 241208, Note_on_c, 0, 76, 71
1, 241248, Control_c, 0, 67, 71
1, 241292, Control_c, 0, 64, 98
1, 241307, Control_c, 0, 64, 79
1, 241316, Note_on_c, 0, 36, 57
1, 241322, Control_c, 0, 64, 59
1, 241322, Control_c, 0, 67, 71
1, 241337, Control_c, 0, 64, 0
1, 241337, Control_c, 0, 67, 70
1, 241351, Control_c, 0, 67, 70
1, 241354, Note_off_c, 0, 36, 57
1, 241366, Control_c, 0, 67, 69
1, 241381, Control_c, 0, 64, 41
1, 241381, Control_c, 0, 67, 69
1, 241396, Control_c, 0, 64, 63
1, 241396, Control_c, 0, 67, 68
1, 241411, Control_c, 0, 64, 74
1, 241411, Control_c, 0, 67, 67
1, 241426, Control_c, 0, 64, 88
1, 241426, Control_c, 0, 67, 66
1, 241434, Note_on_c, 0, 36, 71
1, 241440, Control_c, 0, 64, 110
1, 241440, Control_c, 0, 67, 65
1, 241455, Control_c, 0, 64, 127
1, 241455, Control_c, 0, 67, 65
1, 241470, Control_c, 0, 67, 64
1, 241478, Note_off_c, 0, 36, 57
1, 241485, Control_c, 0, 67, 63
1, 241500, Control_c, 0, 67, 62
1, 241515, Control_c, 0, 67, 61
1, 241530, Control_c, 0, 67, 59
1, 241544, Control_c, 0, 67, 57
1, 241556, Note_on_c, 0, 36, 70
1, 241559, Control_c, 0, 67, 54
1, 241574, Control_c, 0, 67, 51
1, 241584, Note_off_c, 0, 36, 61
1, 241589, Control_c, 0, 67, 48
1, 241604, Control_c, 0, 67, 44
1, 241625, Control_c, 0, 67, 40
1, 241640, Control_c, 0, 67, 35
1, 241655, Control_c, 0, 67, 31
1, 241670, Control_c, 0, 67, 25
1, 241679, Note_on_c, 0, 36, 68
1, 241685, Control_c, 0, 67, 19
1, 241700, Control_c, 0, 67, 13
1, 241712, Note_off_c, 0, 36, 59
1, 241715, Control_c, 0, 67, 9
1, 241730, Control_c, 0, 67, 0
1, 241783, Note_on_c, 0, 36, 80
1, 241785, Note_off_c, 0, 76, 58
1, 241790, Note_on_c, 0, 77, 75
1, 241828, Note_off_c, 0, 43, 62
1, 241882, Note_off_c, 0, 77, 63
1, 241912, Note_off_c, 0, 36, 60
1, 241917, Note_on_c, 0, 76, 75
1, 241938, Note_on_c, 0, 44, 90
1, 241952, Control_c, 0, 64, 96
1, 241953, Note_off_c, 0, 76, 61
1, 241963, Note_on_c, 0, 77, 71
1, 241966, Control_c, 0, 64, 77
1, 241981, Control_c, 0, 64, 60
1, 241988, Note_off_c, 0, 77, 65
1, 241996, Control_c, 0, 64, 0
1, 242007, Note_on_c, 0, 79, 62
1, 242026, Control_c, 0, 64, 27
1, 242028, Note_off_c, 0, 79, 62
1, 242040, Control_c, 0, 64, 60
1, 242043, Note_on_c, 0, 77, 72
1, 242055, Control_c, 0, 64, 71
1, 242057, Note_on_c, 0, 36, 71
1, 242070, Control_c, 0, 64, 88
1, 242083, Note_off_c, 0, 77, 59
1, 242085, Control_c, 0, 64, 113
1, 242089, Note_on_c, 0, 79, 79
1, 242100, Control_c, 0, 64, 127
1, 242112, Note_off_c, 0, 79, 64
1, 242123, Note_off_c, 0, 36, 58
1, 242141, Note_on_c, 0, 77, 71
1, 242173, Note_off_c, 0, 77, 62
1, 242180, Note_on_c, 0, 36, 64
1, 242181, Note_on_c, 0, 79, 77
1, 242204, Note_off_c, 0, 79, 68
1, 242239, Note_on_c, 0, 77, 71
1, 242244, Note_off_c, 0, 36, 57
1, 242266, Note_off_c, 0, 77, 66
1, 242272, Note_on_c, 0, 79, 82
1, 242305, Note_off_c, 0, 79, 48
1, 242320, Note_on_c, 0, 36, 53
1, 242332, Note_on_c, 0, 77, 66
1, 242345, Note_off_c, 0, 36, 58
1, 242430, Note_on_c, 0, 36, 70
1, 242435, Note_on_c, 0, 76, 75
1, 242437, Note_off_c, 0, 77, 61
1, 242478, Note_off_c, 0, 76, 60
1, 242488, Note_on_c, 0, 79, 73
1, 242494, Note_off_c, 0, 44, 59
1, 242559, Note_off_c, 0, 79, 61
1, 242562, Note_on_c, 0, 77, 67
1, 242581, Control_c, 0, 64, 88
1, 242596, Control_c, 0, 64, 66
1, 242603, Note_off_c, 0, 36, 58
1, 242611, Control_c, 0, 64, 0
1, 242631, Note_on_c, 0, 76, 76
1, 242632, Note_on_c, 0, 43, 77
1, 242654, Note_off_c, 0, 77, 57
1, 242670, Control_c, 0, 64, 22
1, 242685, Control_c, 0, 64, 61
1, 242695, Note_off_c, 0, 76, 63
1, 242699, Control_c, 0, 64, 74
1, 242714, Control_c, 0, 64, 91
1, 242729, Control_c, 0, 64, 127
1, 242731, Note_on_c, 0, 36, 62
1, 242771, Note_off_c, 0, 36, 58
1, 242851, Note_on_c, 0, 36, 63
1, 242895, Note_off_c, 0, 36, 58
1, 242985, Note_on_c, 0, 49, 71
1, 243002, Note_on_c, 0, 36, 44
1, 243020, Note_off_c, 0, 49, 64
1, 243044, Note_off_c, 0, 36, 45
1, 243057, Poly_aftertouch_c, 0, 51, 127
1, 243091, Note_on_c, 0, 49, 82
1, 243094, Poly_aftertouch_c, 0, 51, 0
1, 243130, Note_off_c, 0, 49, 59
1, 243139, Note_on_c, 0, 36, 54
1, 243175, Note_off_c, 0, 36, 61
1, 243197, Note_off_c, 0, 43, 53
1, 243203, Note_on_c, 0, 49, 81
1, 243248, Note_off_c, 0, 49, 64
1, 243271, Control_c, 0, 64, 103
1, 243286, Control_c, 0, 64, 79
1, 243301, Control_c, 0, 64, 54
1, 243312, Note_on_c, 0, 48, 76
1, 243315, Note_on_c, 0, 36, 60
1, 243315, Control_c, 0, 64, 0
1, 243363, Note_off_c, 0, 36, 60
1, 243375, Control_c, 0, 64, 60
1, 243378, Note_off_c, 0, 48, 63
1, 243390, Control_c, 0, 64, 72
1, 243404, Control_c, 0, 64, 86
1, 243419, Control_c, 0, 64, 127
1, 243435, Note_on_c, 0, 36, 69
1, 243470, Note_off_c, 0, 36, 60
1, 243545, Note_on_c, 0, 36, 71
1, 243593, Note_off_c, 0, 36, 54
1, 243594, Poly_aftertouch_c, 0, 33, 127
1, 243598, Control_c, 0, 64, 103
1, 243612, Control_c, 0, 64, 92
1, 243627, Control_c, 0, 64, 91
1, 243642, Control_c, 0, 64, 96
1, 243657, Control_c, 0, 64, 114
1, 243672, Control_c, 0, 64, 127
1, 243673, Note_on_c, 0, 79, 75
1, 243675, Note_on_c, 0, 76, 76
1, 243682, Note_on_c, 0, 36, 59
1, 243706, Note_off_c, 0, 79, 59
1, 243712, Note_off_c, 0, 36, 64
1, 243713, Note_off_c, 0, 76, 61
1, 243776, Note_on_c, 0, 79, 87
1, 243777, Note_on_c, 0, 36, 72
1, 243778, Poly_aftertouch_c, 0, 33, 0
1, 243788, Note_on_c, 0, 76, 71
1, 243815, Poly_aftertouch_c, 0, 33, 127
1, 243816, Note_off_c, 0, 76, 62
1, 243819, Note_off_c, 0, 36, 58
1, 243819, Note_off_c, 0, 79, 64
1, 243885, Note_on_c, 0, 79, 79
1, 243890, Note_on_c, 0, 76, 82
1, 243899, Note_on_c, 0, 36, 63
1, 243931, Note_off_c, 0, 79, 59
1, 243934, Note_off_c, 0, 36, 58
1, 243938, Note_off_c, 0, 76, 57
1, 243960, Control_c, 0, 64, 106
1, 243975, Control_c, 0, 64, 78
1, 243990, Control_c, 0, 64, 47
1, 243993, Note_on_c, 0, 82, 94
1, 243998, Note_on_c, 0, 79, 80
1, 244005, Control_c, 0, 64, 0
1, 244007, Note_on_c, 0, 36, 65
1, 244019, Note_off_c, 0, 79, 70
1, 244019, Control_c, 0, 64, 53
1, 244034, Control_c, 0, 64, 75
1, 244040, Note_off_c, 0, 82, 65
1, 244041, Note_off_c, 0, 36, 62
1, 244049, Control_c, 0, 64, 127
1, 244093, Poly_aftertouch_c, 0, 33, 0
1, 244123, Note_on_c, 0, 36, 71
1, 244132, Poly_aftertouch_c, 0, 33, 127
1, 244153, Note_off_c, 0, 36, 63
1, 244224, Note_on_c, 0, 36, 71
1, 244275, Note_off_c, 0, 36, 56
1, 244362, Note_on_c, 0, 49, 83
1, 244374, Note_on_c, 0, 36, 65
1, 244393, Note_on_c, 0, 51, 26
1, 244403, Note_off_c, 0, 49, 60
1, 244405, Note_off_c, 0, 36, 62
1, 244436, Note_off_c, 0, 51, 49
1, 244449, Poly_aftertouch_c, 0, 33, 0
1, 244469, Note_on_c, 0, 49, 90
1, 244469, Note_on_c, 0, 33, 18
1, 244475, Note_on_c, 0, 36, 69
1, 244515, Note_off_c, 0, 36, 61
1, 244516, Note_off_c, 0, 49, 63
1, 244564, Note_on_c, 0, 49, 82
1, 244591, Note_on_c, 0, 36, 64
1, 244622, Note_off_c, 0, 36, 61
1, 244628, Note_off_c, 0, 49, 64
1, 244666, Control_c, 0, 64, 103
1, 244681, Control_c, 0, 64, 73
1, 244696, Control_c, 0, 64, 0
1, 244697, Note_on_c, 0, 48, 96
1, 244708, Note_on_c, 0, 36, 64
1, 244744, Note_off_c, 0, 36, 60
1, 244755, Control_c, 0, 64, 65
1, 244769, Control_c, 0, 64, 82
1, 244776, Note_off_c, 0, 48, 64
1, 244784, Control_c, 0, 64, 127
1, 244788, Note_off_c, 0, 33, 0
1, 244812, Note_on_c, 0, 33, 9
1, 244819, Note_on_c, 0, 36, 71
1, 244848, Note_off_c, 0, 36, 63
1, 244917, Note_on_c, 0, 36, 74
1, 244932, Note_off_c, 0, 33, 0
1, 244932, Note_on_c, 0, 33, 8
1, 244969, Note_off_c, 0, 36, 56
1, 245035, Control_c, 0, 64, 98
1, 245050, Note_on_c, 0, 82, 98
1, 245050, Control_c, 0, 64, 87
1, 245060, Note_on_c, 0, 79, 77
1, 245062, Note_on_c, 0, 36, 66
1, 245065, Control_c, 0, 64, 88
1, 245080, Control_c, 0, 64, 100
1, 245086, Note_off_c, 0, 36, 68
1, 245089, Note_off_c, 0, 79, 63
1, 245095, Control_c, 0, 64, 127
1, 245095, Note_off_c, 0, 82, 66
1, 245164, Note_on_c, 0, 82, 100
1, 245165, Note_on_c, 0, 36, 75
1, 245176, Note_on_c, 0, 79, 84
1, 245195, Note_off_c, 0, 36, 61
1, 245209, Note_off_c, 0, 82, 65
1, 245220, Note_off_c, 0, 79, 62
1, 245284, Note_on_c, 0, 36, 78
1, 245289, Note_on_c, 0, 82, 92
1, 245292, Note_on_c, 0, 79, 84
1, 245328, Note_off_c, 0, 36, 61
1, 245338, Note_off_c, 0, 82, 63
1, 245385, Control_c, 0, 64, 86
1, 245399, Control_c, 0, 64, 68
1, 245410, Note_on_c, 0, 88, 96
1, 245414, Control_c, 0, 64, 65
1, 245420, Note_on_c, 0, 36, 74
1, 245429, Control_c, 0, 64, 73
1, 245435, Note_off_c, 0, 79, 61
1, 245444, Control_c, 0, 64, 92
1, 245453, Note_off_c, 0, 36, 62
1, 245459, Control_c, 0, 64, 127
1, 245470, Note_on_c, 0, 82, 93
1, 245478, Note_off_c, 0, 88, 66
1, 245519, Note_off_c, 0, 82, 66
1, 245523, Note_on_c, 0, 36, 71
1, 245557, Note_on_c, 0, 91, 47
1, 245559, Note_off_c, 0, 36, 60
1, 245584, Note_off_c, 0, 91, 58
1, 245584, Note_on_c, 0, 88, 89
1, 245632, Note_on_c, 0, 36, 71
1, 245635, Note_on_c, 0, 94, 85
1, 245637, Note_off_c, 0, 88, 66
1, 245670, Note_off_c, 0, 36, 54
1, 245683, Note_on_c, 0, 91, 81
1, 245705, Note_off_c, 0, 94, 64
1, 245731, Note_off_c, 0, 91, 62
1, 245736, Note_on_c, 0, 88, 93
1, 245757, Note_on_c, 0, 36, 74
1, 245777, Note_off_c, 0, 88, 68
1, 245785, Note_off_c, 0, 36, 63
1, 245794, Note_on_c, 0, 91, 78
1, 245842, Note_off_c, 0, 91, 56
1, 245851, Note_on_c, 0, 82, 81
1, 245861, Note_on_c, 0, 88, 79
1, 245864, Note_on_c, 0, 36, 68
1, 245874, Note_off_c, 0, 82, 63
1, 245907, Note_off_c, 0, 36, 61
1, 245921, Note_off_c, 0, 88, 66
1, 245940, Note_on_c, 0, 79, 84
1, 245962, Note_on_c, 0, 36, 67
1, 245966, Note_off_c, 0, 79, 59
1, 245994, Note_off_c, 0, 36, 60
1, 245995, Note_on_c, 0, 82, 80
1, 246036, Note_off_c, 0, 82, 61
1, 246055, Note_on_c, 0, 76, 83
1, 246077, Note_off_c, 0, 76, 71
1, 246078, Note_on_c, 0, 36, 79
1, 246094, Note_on_c, 0, 79, 80
1, 246114, Note_off_c, 0, 36, 63
1, 246153, Note_off_c, 0, 79, 60
1, 246167, Note_on_c, 0, 70, 73
1, 246177, Note_on_c, 0, 75, 38
1, 246186, Note_on_c, 0, 76, 77
1, 246191, Note_on_c, 0, 36, 73
1, 246217, Note_off_c, 0, 70, 63
1, 246222, Note_off_c, 0, 36, 61
1, 246246, Note_off_c, 0, 76, 63
1, 246258, Note_on_c, 0, 67, 88
1, 246261, Note_off_c, 0, 75, 38
1, 246284, Note_off_c, 0, 67, 64
1, 246287, Note_on_c, 0, 36, 76
1, 246320, Note_on_c, 0, 70, 90
1, 246320, Note_off_c, 0, 36, 60
1, 246344, Note_off_c, 0, 70, 56
1, 246376, Note_on_c, 0, 64, 79
1, 246400, Note_off_c, 0, 64, 70
1, 246401, Note_on_c, 0, 36, 75
1, 246421, Note_on_c, 0, 67, 85
1, 246427, Note_off_c, 0, 36, 63
1, 246466, Note_off_c, 0, 67, 61
1, 246490, Note_on_c, 0, 36, 77
1, 246490, Note_on_c, 0, 64, 74
1, 246495, Note_on_c, 0, 58, 67
1, 246525, Note_off_c, 0, 58, 65
1, 246539, Note_off_c, 0, 36, 60
1, 246552, Note_off_c, 0, 64, 63
1, 246569, Note_on_c, 0, 55, 85
1, 246597, Note_on_c, 0, 36, 73
1, 246603, Note_off_c, 0, 55, 60
1, 246633, Note_on_c, 0, 58, 79
1, 246633, Note_off_c, 0, 36, 62
1, 246666, Note_off_c, 0, 58, 58
1, 246693, Note_off_c, 0, 33, 0
1, 246693, Note_on_c, 0, 52, 77
1, 246711, Note_on_c, 0, 36, 80
1, 246719, Note_off_c, 0, 52, 67
1, 246730, Poly_aftertouch_c, 0, 33, 127
1, 246737, Note_on_c, 0, 55, 72
1, 246745, Note_off_c, 0, 36, 61
1, 246777, Note_on_c, 0, 51, 79
1, 246790, Poly_aftertouch_c, 0, 33, 0
1, 246806, Note_on_c, 0, 33, 32
1, 246806, Note_on_c, 0, 36, 81
1, 246816, Note_on_c, 0, 52, 57
1, 246830, Note_off_c, 0, 55, 39
1, 246845, Poly_aftertouch_c, 0, 35, 0
1, 246848, Note_off_c, 0, 36, 61
1, 246869, Note_on_c, 0, 47, 18
1, 246883, Note_off_c, 0, 51, 58
1, 246889, Note_off_c, 0, 52, 63
1, 246896, Note_on_c, 0, 43, 92
1, 246909, Note_off_c, 0, 33, 0
1, 246913, Note_off_c, 0, 47, 48
1, 246919, Note_on_c, 0, 36, 81
1, 246931, Note_on_c, 0, 54, 17
1, 246932, Note_off_c, 0, 54, 127
1, 246933, Note_on_c, 0, 33, 16
1, 246949, Note_off_c, 0, 36, 62
1, 246960, Note_on_c, 0, 46, 88
1, 246973, Poly_aftertouch_c, 0, 54, 0
1, 246976, Note_off_c, 0, 33, 54
1, 246981, Note_off_c, 0, 43, 59
1, 247000, Control_c, 0, 64, 95
1, 247012, Note_on_c, 0, 49, 90
1, 247015, Control_c, 0, 64, 72
1, 247030, Control_c, 0, 64, 57
1, 247038, Note_on_c, 0, 36, 90
1, 247045, Control_c, 0, 64, 62
1, 247059, Control_c, 0, 64, 72
1, 247068, Note_on_c, 0, 52, 73
1, 247071, Note_off_c, 0, 46, 63
1, 247074, Control_c, 0, 64, 95
1, 247082, Note_off_c, 0, 49, 65
1, 247086, Note_off_c, 0, 36, 62
1, 247089, Control_c, 0, 64, 127
1, 247092, Note_off_c, 0, 52, 66
1, 247104, Note_on_c, 0, 53, 15
1, 247134, Note_on_c, 0, 49, 88
1, 247145, Note_off_c, 0, 53, 53
1, 247146, Note_on_c, 0, 36, 82
1, 247181, Note_on_c, 0, 55, 64
1, 247187, Note_off_c, 0, 49, 61
1, 247203, Note_on_c, 0, 54, 47
1, 247232, Note_on_c, 0, 52, 78
1, 247244, Note_off_c, 0, 54, 44
1, 247254, Note_off_c, 0, 55, 60
1, 247280, Note_off_c, 0, 36, 61
1, 247302, Note_on_c, 0, 58, 101
1, 247310, Control_c, 0, 64, 111
1, 247313, Note_on_c, 0, 43, 110
1, 247316, Note_on_c, 0, 31, 92
1, 247325, Control_c, 0, 64, 65
1, 247340, Control_c, 0, 64, 0
1, 247341, Note_off_c, 0, 52, 64
1, 247343, Note_on_c, 0, 56, 53
1, 247378, Note_off_c, 0, 56, 48
1, 247429, Control_c, 0, 64, 55
1, 247444, Control_c, 0, 64, 69
1, 247459, Control_c, 0, 64, 80
1, 247471, Note_off_c, 0, 58, 64
1, 247474, Control_c, 0, 64, 103
1, 247488, Control_c, 0, 64, 127
1, 247489, Note_on_c, 0, 36, 85
1, 247542, Note_off_c, 0, 43, 62
1, 247548, Note_off_c, 0, 36, 60
1, 247629, Note_on_c, 0, 36, 85
1, 247638, Note_off_c, 0, 31, 61
1, 247680, Note_off_c, 0, 36, 60
1, 247733, Control_c, 0, 64, 117
1, 247748, Note_on_c, 0, 61, 102
1, 247748, Control_c, 0, 64, 76
1, 247752, Note_on_c, 0, 41, 99
1, 247752, Note_on_c, 0, 56, 100
1, 247754, Note_on_c, 0, 29, 95
1, 247754, Note_on_c, 0, 49, 102
1, 247763, Control_c, 0, 64, 0
1, 247867, Control_c, 0, 64, 65
1, 247882, Control_c, 0, 64, 77
1, 247897, Control_c, 0, 64, 88
1, 247911, Control_c, 0, 64, 105
1, 247927, Control_c, 0, 64, 127
1, 247945, Note_on_c, 0, 36, 84
1, 247978, Note_off_c, 0, 49, 57
1, 248001, Control_c, 0, 64, 114
1, 248016, Control_c, 0, 64, 116
1, 248019, Note_off_c, 0, 36, 60
1, 248031, Control_c, 0, 64, 127
1, 248041, Note_off_c, 0, 61, 58
1, 248095, Note_off_c, 0, 56, 55
1, 248126, Note_on_c, 0, 36, 82
1, 248133, Note_off_c, 0, 41, 61
1, 248164, Control_c, 0, 67, 11
1, 248168, Note_off_c, 0, 29, 59
1, 248179, Control_c, 0, 67, 21
1, 248193, Note_off_c, 0, 36, 58
1, 248193, Control_c, 0, 67, 33
1, 248208, Control_c, 0, 67, 42
1, 248223, Control_c, 0, 67, 48
1, 248238, Control_c, 0, 67, 53
1, 248253, Control_c, 0, 64, 125
1, 248253, Control_c, 0, 67, 55
1, 248267, Control_c, 0, 64, 104
1, 248267, Control_c, 0, 67, 56
1, 248282, Control_c, 0, 64, 95
1, 248282, Control_c, 0, 67, 57
1, 248297, Control_c, 0, 64, 88
1, 248297, Control_c, 0, 67, 59
1, 248311, Control_c, 0, 64, 82
1, 248311, Control_c, 0, 67, 64
1, 248327, Control_c, 0, 64, 77
1, 248327, Control_c, 0, 67, 69
1, 248342, Control_c, 0, 64, 71
1, 248342, Control_c, 0, 67, 74
1, 248365, Control_c, 0, 64, 65
1, 248365, Control_c, 0, 67, 75
1, 248380, Control_c, 0, 64, 61
1, 248380, Control_c, 0, 67, 77
1, 248395, Control_c, 0, 64, 57
1, 248395, Control_c, 0, 67, 80
1, 248410, Control_c, 0, 64, 54
1, 248410, Control_c, 0, 67, 83
1, 248424, Control_c, 0, 64, 52
1, 248424, Control_c, 0, 67, 85
1, 248439, Control_c, 0, 64, 50
1, 248439, Control_c, 0, 67, 87
1, 248454, Control_c, 0, 64, 43
1, 248469, Control_c, 0, 64, 31
1, 248483, Control_c, 0, 64, 0
1, 248512, Note_on_c, 0, 60, 53
1, 248524, Note_on_c, 0, 52, 49
1, 248532, Note_on_c, 0, 55, 50
1, 248535, Note_on_c, 0, 36, 48
1, 248537, Note_on_c, 0, 40, 41
1, 248779, Control_c, 0, 67, 86
1, 248794, Control_c, 0, 67, 85
1, 248882, Control_c, 0, 67, 84
1, 248897, Control_c, 0, 67, 84
1, 248912, Control_c, 0, 67, 83
1, 248927, Control_c, 0, 67, 83
1, 249015, Control_c, 0, 67, 82
1, 249045, Control_c, 0, 67, 82
1, 250025, Control_c, 0, 67, 81
1, 250261, Control_c, 0, 64, 21
1, 250276, Control_c, 0, 64, 30
1, 250291, Control_c, 0, 64, 35
1, 250306, Control_c, 0, 64, 40
1, 250321, Control_c, 0, 64, 44
1, 250335, Control_c, 0, 64, 48
1, 250350, Control_c, 0, 64, 51
1, 250365, Control_c, 0, 64, 53
1, 250380, Control_c, 0, 64, 55
1, 250395, Control_c, 0, 64, 58
1, 250410, Control_c, 0, 64, 59
1, 250425, Control_c, 0, 64, 61
1, 250440, Control_c, 0, 64, 63
1, 250454, Control_c, 0, 64, 64
1, 250469, Control_c, 0, 64, 65
1, 250484, Control_c, 0, 64, 66
1, 250498, Control_c, 0, 64, 68
1, 250513, Control_c, 0, 64, 71
1, 250528, Control_c, 0, 64, 75
1, 250543, Control_c, 0, 64, 79
1, 250558, Control_c, 0, 64, 82
1, 250572, Control_c, 0, 64, 84
1, 250587, Control_c, 0, 64, 85
1, 250587, Control_c, 0, 67, 81
1, 250610, Control_c, 0, 64, 87
1, 250625, Control_c, 0, 64, 89
1, 250640, Control_c, 0, 64, 92
1, 250654, Control_c, 0, 64, 95
1, 250669, Control_c, 0, 64, 97
1, 250684, Control_c, 0, 64, 100
1, 250699, Control_c, 0, 64, 102
1, 250713, Control_c, 0, 64, 103
1, 250728, Control_c, 0, 64, 104
1, 250759, Control_c, 0, 64, 104
1, 250833, Control_c, 0, 64, 104
1, 250956, Note_off_c, 0, 55, 51
1, 250967, Control_c, 0, 64, 103
1, 250982, Control_c, 0, 64, 103
1, 250997, Control_c, 0, 64, 102
1, 251011, Control_c, 0, 64, 101
1, 251026, Control_c, 0, 64, 101
1, 251041, Control_c, 0, 64, 100
1, 251056, Control_c, 0, 64, 100
1, 251107, Note_off_c, 0, 36, 30
1, 251115, Control_c, 0, 64, 99
1, 251129, Control_c, 0, 64, 98
1, 251144, Control_c, 0, 64, 98
1, 251159, Control_c, 0, 64, 97
1, 251174, Control_c, 0, 64, 96
1, 251189, Control_c, 0, 64, 96
1, 251195, Note_off_c, 0, 52, 39
1, 251231, Note_off_c, 0, 40, 33
1, 251233, Control_c, 0, 64, 95
1, 251248, Control_c, 0, 64, 95
1, 251263, Control_c, 0, 64, 94
1, 251265, Note_off_c, 0, 60, 31
1, 251292, Control_c, 0, 64, 94
1, 251307, Control_c, 0, 64, 93
1, 251322, Control_c, 0, 64, 93
1, 251337, Control_c, 0, 64, 92
1, 251359, Control_c, 0, 64, 91
1, 251374, Control_c, 0, 64, 90
1, 251389, Control_c, 0, 64, 89
1, 251404, Control_c, 0, 64, 88
1, 251418, Control_c, 0, 64, 87
1, 251433, Control_c, 0, 64, 86
1, 251448, Control_c, 0, 64, 85
1, 251463, Control_c, 0, 64, 85
1, 251477, Control_c, 0, 64, 84
1, 251492, Control_c, 0, 64, 83
1, 251507, Control_c, 0, 64, 82
1, 251507, Control_c, 0, 67, 81
1, 251522, Control_c, 0, 64, 82
1, 251538, Control_c, 0, 64, 81
1, 251552, Control_c, 0, 64, 80
1, 251567, Control_c, 0, 64, 79
1, 251582, Control_c, 0, 64, 78
1, 251597, Control_c, 0, 64, 77
1, 251612, Control_c, 0, 64, 76
1, 251626, Control_c, 0, 64, 75
1, 251641, Control_c, 0, 64, 74
1, 251656, Control_c, 0, 64, 73
1, 251671, Control_c, 0, 64, 73
1, 251686, Control_c, 0, 64, 72
1, 251701, Control_c, 0, 64, 71
1, 251701, Control_c, 0, 67, 82
1, 251716, Control_c, 0, 64, 70
1, 251731, Control_c, 0, 64, 69
1, 251745, Control_c, 0, 64, 68
1, 251760, Control_c, 0, 64, 67
1, 251775, Control_c, 0, 64, 66
1, 251790, Control_c, 0, 64, 66
1, 251805, Control_c, 0, 64, 65
1, 251849, Control_c, 0, 64, 65
1, 251864, Control_c, 0, 64, 64
1, 251878, Control_c, 0, 64, 63
1, 251893, Control_c, 0, 64, 62
1, 251908, Control_c, 0, 64, 60
1, 251923, Control_c, 0, 64, 59
1, 251938, Control_c, 0, 64, 57
1, 251938, Control_c, 0, 67, 82
1, 251952, Control_c, 0, 64, 55
1, 251967, Control_c, 0, 64, 54
1, 251982, Control_c, 0, 64, 52
1, 251997, Control_c, 0, 64, 50
1, 252012, Control_c, 0, 64, 48
1, 252026, Control_c, 0, 64, 46
1, 252029, Note_on_c, 0, 60, 37
1, 252041, Control_c, 0, 64, 43
1, 252056, Control_c, 0, 64, 39
1, 252058, Note_on_c, 0, 36, 30
1, 252071, Control_c, 0, 64, 35
1, 252085, Control_c, 0, 64, 28
1, 252108, Control_c, 0, 64, 18
1, 252123, Control_c, 0, 64, 8
1, 252138, Control_c, 0, 64, 0
1, 252390, Control_c, 0, 64, 8
1, 252405, Control_c, 0, 64, 10
1, 252419, Control_c, 0, 64, 13
1, 252434, Control_c, 0, 64, 18
1, 252449, Note_on_c, 0, 57, 67
1, 252449, Control_c, 0, 64, 26
1, 252458, Note_on_c, 0, 33, 63
1, 252464, Control_c, 0, 64, 30
1, 252470, Note_off_c, 0, 60, 58
1, 252472, Note_off_c, 0, 36, 51
1, 252494, Control_c, 0, 64, 0
1, 252508, Control_c, 0, 67, 82
1, 252515, Note_on_c, 0, 53, 99
1, 252520, Note_on_c, 0, 29, 95
1, 252523, Control_c, 0, 67, 81
1, 252526, Note_off_c, 0, 57, 60
1, 252538, Control_c, 0, 67, 77
1, 252541, Note_off_c, 0, 33, 32
1, 252553, Control_c, 0, 67, 71
1, 252568, Control_c, 0, 67, 57
1, 252582, Control_c, 0, 67, 31
1, 252597, Control_c, 0, 64, 48
1, 252597, Control_c, 0, 67, 0
1, 252612, Control_c, 0, 64, 69
1, 252627, Control_c, 0, 64, 85
1, 252642, Control_c, 0, 64, 127
1, 252729, Note_off_c, 0, 53, 55
1, 252879, Note_off_c, 0, 29, 52
1, 252890, Note_on_c, 0, 65, 67
1, 252902, Note_on_c, 0, 60, 52
1, 252914, Note_on_c, 0, 53, 64
1, 252919, Note_on_c, 0, 57, 50
1, 253002, Note_off_c, 0, 57, 62
1, 253016, Note_off_c, 0, 53, 64
1, 253017, Note_off_c, 0, 60, 64
1, 253057, Note_off_c, 0, 65, 61
1, 253082, Note_on_c, 0, 29, 70
1, 253083, Note_on_c, 0, 33, 65
1, 253085, Note_on_c, 0, 41, 70
1, 253086, Note_on_c, 0, 36, 73
1, 253227, Note_on_c, 0, 69, 88
1, 253231, Note_on_c, 0, 57, 85
1, 253236, Note_on_c, 0, 60, 73
1, 253238, Note_on_c, 0, 65, 75
1, 253249, Note_off_c, 0, 41, 61
1, 253262, Note_off_c, 0, 60, 70
1, 253263, Note_off_c, 0, 29, 59
1, 253274, Note_off_c, 0, 36, 57
1, 253278, Note_off_c, 0, 57, 62
1, 253280, Note_off_c, 0, 65, 60
1, 253289, Note_off_c, 0, 33, 58
1, 253306, Note_off_c, 0, 69, 66
1, 253345, Note_on_c, 0, 41, 91
1, 253348, Note_on_c, 0, 36, 76
1, 253349, Note_on_c, 0, 29, 81
1, 253352, Note_on_c, 0, 33, 64
1, 253462, Note_on_c, 0, 72, 95
1, 253464, Note_on_c, 0, 69, 87
1, 253465, Note_on_c, 0, 60, 87
1, 253466, Note_on_c, 0, 65, 78
1, 253471, Note_off_c, 0, 41, 61
1, 253484, Note_off_c, 0, 60, 71
1, 253484, Note_off_c, 0, 29, 60
1, 253486, Note_off_c, 0, 65, 70
1, 253496, Note_off_c, 0, 36, 60
1, 253504, Note_off_c, 0, 69, 63
1, 253508, Note_off_c, 0, 33, 59
1, 253517, Note_off_c, 0, 72, 67
1, 253560, Note_on_c, 0, 41, 100
1, 253563, Note_on_c, 0, 36, 84
1, 253565, Note_on_c, 0, 29, 88
1, 253567, Note_on_c, 0, 33, 65
1, 253674, Note_on_c, 0, 72, 95
1, 253675, Note_on_c, 0, 69, 82
1, 253677, Note_on_c, 0, 77, 95
1, 253681, Note_on_c, 0, 65, 85
1, 253698, Note_off_c, 0, 69, 71
1, 253702, Note_off_c, 0, 41, 60
1, 253702, Note_off_c, 0, 65, 71
1, 253710, Note_off_c, 0, 72, 67
1, 253716, Note_off_c, 0, 29, 61
1, 253732, Note_off_c, 0, 77, 65
1, 253734, Note_off_c, 0, 36, 50
1, 253761, Note_off_c, 0, 33, 38
1, 253781, Note_on_c, 0, 41, 99
1, 253784, Note_on_c, 0, 36, 78
1, 253784, Note_on_c, 0, 29, 85
1, 253791, Note_on_c, 0, 33, 61
1, 253890, Note_on_c, 0, 81, 99
1, 253891, Note_on_c, 0, 69, 95
1, 253891, Note_on_c, 0, 72, 91
1, 253893, Note_on_c, 0, 77, 92
1, 253918, Note_off_c, 0, 69, 67
1, 253927, Note_off_c, 0, 72, 64
1, 253934, Note_off_c, 0, 41, 58
1, 253935, Note_off_c, 0, 29, 59
1, 253936, Note_off_c, 0, 77, 65
1, 253954, Note_off_c, 0, 81, 67
1, 253963, Note_off_c, 0, 36, 57
1, 254004, Note_off_c, 0, 33, 0
1, 254008, Poly_aftertouch_c, 0, 74, 0
1, 254020, Note_on_c, 0, 36, 79
1, 254020, Note_on_c, 0, 41, 96
1, 254020, Note_on_c, 0, 33, 40
1, 254023, Note_on_c, 0, 29, 87
1, 254127, Note_on_c, 0, 81, 94
1, 254130, Note_on_c, 0, 84, 100
1, 254130, Note_on_c, 0, 72, 96
1, 254136, Note_on_c, 0, 77, 77
1, 254145, Note_off_c, 0, 41, 55
1, 254146, Note_off_c, 0, 36, 54
1, 254151, Note_off_c, 0, 72, 68
1, 254157, Note_off_c, 0, 77, 70
1, 254163, Note_off_c, 0, 81, 69
1, 254178, Note_off_c, 0, 29, 57
1, 254181, Note_off_c, 0, 84, 64
1, 254214, Note_off_c, 0, 33, 37
1, 254255, Poly_aftertouch_c, 0, 80, 0
1, 254271, Note_on_c, 0, 80, 27
1, 254327, Note_on_c, 0, 81, 89
1, 254329, Note_on_c, 0, 41, 99
1, 254329, Note_on_c, 0, 89, 107
1, 254330, Note_on_c, 0, 36, 90
1, 254330, Note_on_c, 0, 77, 104
1, 254330, Note_on_c, 0, 84, 93
1, 254333, Note_on_c, 0, 29, 94
1, 254337, Note_on_c, 0, 33, 79
1, 254410, Note_off_c, 0, 89, 67
1, 254416, Note_off_c, 0, 77, 66
1, 254422, Note_off_c, 0, 84, 68
1, 254422, Note_off_c, 0, 81, 69
1, 254425, Note_off_c, 0, 80, 21
1, 255163, Control_c, 0, 67, 8
1, 255177, Control_c, 0, 67, 9
1, 255207, Control_c, 0, 67, 9
1, 255222, Control_c, 0, 67, 10
1, 255237, Control_c, 0, 67, 11
1, 255251, Control_c, 0, 67, 12
1, 255266, Control_c, 0, 67, 13
1, 255311, Control_c, 0, 67, 13
1, 255340, Control_c, 0, 67, 14
1, 255355, Control_c, 0, 67, 15
1, 255359, Note_off_c, 0, 41, 30
1, 255370, Control_c, 0, 67, 16
1, 255385, Control_c, 0, 67, 16
1, 255400, Control_c, 0, 64, 121
1, 255400, Control_c, 0, 67, 17
1, 255401, Note_off_c, 0, 33, 26
1, 255403, Poly_aftertouch_c, 0, 53, 127
1, 255415, Control_c, 0, 64, 111
1, 255415, Control_c, 0, 67, 19
1, 255430, Control_c, 0, 64, 106
1, 255430, Control_c, 0, 67, 20
1, 255445, Control_c, 0, 64, 102
1, 255445, Control_c, 0, 67, 22
1, 255446, Note_off_c, 0, 36, 21
1, 255459, Control_c, 0, 64, 100
1, 255459, Control_c, 0, 67, 23
1, 255474, Control_c, 0, 64, 99
1, 255489, Control_c, 0, 64, 96
1, 255489, Control_c, 0, 67, 24
1, 255503, Control_c, 0, 64, 93
1, 255503, Control_c, 0, 67, 26
1, 255518, Control_c, 0, 64, 90
1, 255518, Control_c, 0, 67, 29
1, 255534, Control_c, 0, 64, 87
1, 255534, Control_c, 0, 67, 32
1, 255549, Control_c, 0, 64, 85
1, 255549, Control_c, 0, 67, 33
1, 255564, Control_c, 0, 64, 82
1, 255564, Control_c, 0, 67, 34
1, 255579, Control_c, 0, 64, 79
1, 255579, Control_c, 0, 67, 34
1, 255594, Control_c, 0, 64, 76
1, 255594, Control_c, 0, 67, 35
1, 255608, Control_c, 0, 64, 72
1, 255608, Control_c, 0, 67, 37
1, 255623, Control_c, 0, 64, 69
1, 255623, Control_c, 0, 67, 39
1, 255638, Control_c, 0, 64, 67
1, 255638, Control_c, 0, 67, 41
1, 255653, Control_c, 0, 64, 64
1, 255653, Control_c, 0, 67, 44
1, 255667, Control_c, 0, 64, 61
1, 255667, Control_c, 0, 67, 46
1, 255682, Control_c, 0, 64, 59
1, 255682, Control_c, 0, 67, 47
1, 255697, Control_c, 0, 64, 58
1, 255697, Control_c, 0, 67, 47
1, 255712, Control_c, 0, 64, 57
1, 255726, Control_c, 0, 64, 54
1, 255726, Control_c, 0, 67, 48
1, 255741, Control_c, 0, 64, 49
1, 255741, Control_c, 0, 67, 48
1, 255756, Control_c, 0, 64, 42
1, 255756, Control_c, 0, 67, 49
1, 255771, Control_c, 0, 64, 30
1, 255786, Control_c, 0, 64, 16
1, 255786, Control_c, 0, 67, 49
1, 255800, Control_c, 0, 64, 0
1, 255800, Control_c, 0, 67, 51
1, 255815, Control_c, 0, 67, 52
1, 255830, Control_c, 0, 67, 55
1, 255853, Control_c, 0, 67, 57
1, 255868, Control_c, 0, 67, 58
1, 255882, Control_c, 0, 67, 59
1, 255897, Control_c, 0, 67, 60
1, 255912, Control_c, 0, 67, 61
1, 255926, Control_c, 0, 67, 62
1, 255941, Control_c, 0, 67, 64
1, 255956, Control_c, 0, 67, 65
1, 255971, Control_c, 0, 67, 66
1, 255975, Note_on_c, 0, 57, 46
1, 255983, Note_on_c, 0, 33, 41
1, 256000, Control_c, 0, 67, 66
1, 256041, Poly_aftertouch_c, 0, 53, 0
1, 256045, Control_c, 0, 67, 67
1, 256075, Note_off_c, 0, 29, 37
1, 256252, Control_c, 0, 67, 66
1, 256279, Note_on_c, 0, 60, 54
1, 256280, Note_off_c, 0, 57, 56
1, 256292, Note_on_c, 0, 36, 48
1, 256354, Note_off_c, 0, 33, 37
1, 256362, Note_on_c, 0, 65, 65
1, 256363, Note_off_c, 0, 60, 59
1, 256375, Note_off_c, 0, 36, 59
1, 256383, Note_on_c, 0, 41, 54
1, 256724, Note_on_c, 0, 69, 60
1, 256753, Note_on_c, 0, 45, 49
1, 256813, Note_off_c, 0, 65, 36
1, 256897, Control_c, 0, 67, 66
1, 256912, Control_c, 0, 67, 65
1, 256941, Control_c, 0, 67, 65
1, 256965, Note_off_c, 0, 41, 25
1, 256986, Control_c, 0, 67, 64
1, 257011, Note_off_c, 0, 69, 65
1, 257016, Control_c, 0, 67, 64
1, 257019, Note_on_c, 0, 72, 60
1, 257025, Note_on_c, 0, 48, 49
1, 257048, Note_off_c, 0, 45, 52
1, 257087, Note_off_c, 0, 72, 62
1, 257102, Note_off_c, 0, 48, 57
1, 257111, Note_on_c, 0, 77, 56
1, 257133, Note_on_c, 0, 53, 40
1, 257239, Control_c, 0, 67, 63
1, 257269, Control_c, 0, 67, 63
1, 257313, Control_c, 0, 67, 62
1, 257328, Control_c, 0, 67, 62
1, 257350, Control_c, 0, 67, 61
1, 257379, Control_c, 0, 67, 61
1, 257394, Control_c, 0, 67, 60
1, 257424, Control_c, 0, 67, 60
1, 257439, Control_c, 0, 64, 30
1, 257439, Control_c, 0, 67, 59
1, 257454, Control_c, 0, 64, 41
1, 257469, Control_c, 0, 64, 48
1, 257469, Control_c, 0, 67, 59
1, 257484, Control_c, 0, 64, 53
1, 257484, Control_c, 0, 67, 58
1, 257498, Control_c, 0, 64, 55
1, 257498, Control_c, 0, 67, 58
1, 257513, Control_c, 0, 64, 58
1, 257522, Note_on_c, 0, 65, 46
1, 257528, Control_c, 0, 64, 62
1, 257528, Control_c, 0, 67, 57
1, 257528, Note_off_c, 0, 53, 36
1, 257539, Note_on_c, 0, 41, 41
1, 257543, Control_c, 0, 64, 66
1, 257543, Control_c, 0, 67, 57
1, 257558, Control_c, 0, 64, 71
1, 257558, Control_c, 0, 67, 56
1, 257572, Control_c, 0, 64, 81
1, 257572, Control_c, 0, 67, 56
1, 257574, Note_off_c, 0, 77, 38
1, 257587, Control_c, 0, 64, 91
1, 257587, Control_c, 0, 67, 55
1, 257602, Control_c, 0, 64, 108
1, 257617, Control_c, 0, 64, 127
1, 257617, Control_c, 0, 67, 55
1, 257653, Note_off_c, 0, 41, 60
1, 257661, Control_c, 0, 67, 54
1, 257676, Control_c, 0, 67, 54
1, 257691, Control_c, 0, 67, 53
1, 257705, Control_c, 0, 67, 53
1, 257720, Control_c, 0, 67, 52
1, 257735, Control_c, 0, 67, 52
1, 257746, Note_off_c, 0, 65, 62
1, 257764, Control_c, 0, 67, 51
1, 257824, Control_c, 0, 67, 51
1, 257868, Control_c, 0, 67, 50
1, 257883, Control_c, 0, 64, 114
1, 257883, Control_c, 0, 67, 49
1, 257898, Control_c, 0, 64, 77
1, 257898, Control_c, 0, 67, 42
1, 257913, Control_c, 0, 64, 29
1, 257913, Control_c, 0, 67, 25
1, 257919, Note_on_c, 0, 55, 93
1, 257919, Note_on_c, 0, 60, 99
1, 257923, Note_on_c, 0, 52, 92
1, 257928, Control_c, 0, 64, 0
1, 257928, Control_c, 0, 67, 0
1, 257943, Control_c, 0, 64, 53
1, 257958, Control_c, 0, 64, 84
1, 257973, Control_c, 0, 64, 127
1, 257998, Note_off_c, 0, 60, 67
1, 258014, Note_off_c, 0, 55, 66
1, 258036, Note_off_c, 0, 52, 66
1, 258141, Note_on_c, 0, 64, 70
1, 258153, Note_on_c, 0, 60, 56
1, 258157, Note_on_c, 0, 55, 58
1, 258183, Note_off_c, 0, 55, 62
1, 258184, Note_off_c, 0, 60, 65
1, 258202, Note_off_c, 0, 64, 64
1, 258259, Note_on_c, 0, 48, 67
1, 258265, Note_on_c, 0, 40, 62
1, 258265, Note_on_c, 0, 43, 68
1, 258366, Note_on_c, 0, 64, 76
1, 258366, Note_on_c, 0, 67, 81
1, 258369, Note_on_c, 0, 60, 74
1, 258372, Note_off_c, 0, 48, 61
1, 258400, Note_off_c, 0, 40, 57
1, 258407, Note_off_c, 0, 43, 60
1, 258455, Note_off_c, 0, 60, 61
1, 258462, Note_on_c, 0, 43, 76
1, 258464, Note_on_c, 0, 48, 85
1, 258465, Note_on_c, 0, 40, 67
1, 258482, Note_off_c, 0, 64, 49
1, 258500, Note_off_c, 0, 67, 59
1, 258556, Note_on_c, 0, 67, 81
1, 258559, Note_on_c, 0, 72, 92
1, 258568, Note_on_c, 0, 64, 76
1, 258568, Note_off_c, 0, 48, 61
1, 258581, Note_off_c, 0, 40, 56
1, 258592, Note_off_c, 0, 64, 68
1, 258604, Note_off_c, 0, 67, 65
1, 258617, Note_off_c, 0, 43, 48
1, 258623, Note_off_c, 0, 72, 66
1, 258653, Note_on_c, 0, 48, 92
1, 258656, Note_on_c, 0, 40, 79
1, 258656, Note_on_c, 0, 43, 77
1, 258744, Note_on_c, 0, 76, 106
1, 258749, Note_on_c, 0, 72, 91
1, 258751, Note_on_c, 0, 67, 92
1, 258762, Note_off_c, 0, 48, 56
1, 258774, Note_off_c, 0, 40, 57
1, 258784, Note_off_c, 0, 43, 59
1, 258790, Note_off_c, 0, 72, 63
1, 258792, Note_off_c, 0, 67, 62
1, 258822, Note_off_c, 0, 76, 61
1, 258853, Note_on_c, 0, 48, 92
1, 258855, Note_on_c, 0, 40, 80
1, 258856, Note_on_c, 0, 43, 86
1, 258947, Note_on_c, 0, 79, 99
1, 258950, Note_on_c, 0, 72, 92
1, 258952, Note_on_c, 0, 76, 87
1, 258961, Note_on_c, 0, 77, 82
1, 258971, Note_off_c, 0, 48, 50
1, 258977, Note_off_c, 0, 77, 66
1, 258978, Note_off_c, 0, 40, 53
1, 258989, Note_off_c, 0, 43, 60
1, 258991, Note_off_c, 0, 72, 59
1, 258994, Note_off_c, 0, 76, 60
1, 259050, Note_on_c, 0, 40, 73
1, 259051, Note_on_c, 0, 43, 87
1, 259053, Note_on_c, 0, 48, 90
1, 259081, Note_off_c, 0, 79, 57
1, 259084, Note_off_c, 0, 40, 63
1, 259089, Note_off_c, 0, 43, 59
1, 259102, Note_off_c, 0, 48, 65
1, 259144, Note_on_c, 0, 84, 102
1, 259149, Note_on_c, 0, 79, 89
1, 259162, Note_on_c, 0, 76, 69
1, 259164, Note_off_c, 0, 79, 72
1, 259176, Note_off_c, 0, 84, 68
1, 259180, Note_off_c, 0, 76, 67
1, 259290, Control_c, 0, 64, 83
1, 259305, Control_c, 0, 64, 59
1, 259320, Control_c, 0, 64, 0
1, 259486, Note_on_c, 0, 72, 57
1, 259512, Note_on_c, 0, 64, 49
1, 259515, Note_on_c, 0, 67, 47
1, 259684, Control_c, 0, 64, 8
1, 259699, Control_c, 0, 64, 45
1, 259713, Control_c, 0, 64, 60
1, 259728, Control_c, 0, 64, 67
1, 259743, Control_c, 0, 64, 73
1, 259758, Control_c, 0, 64, 81
1, 259773, Control_c, 0, 64, 91
1, 259788, Control_c, 0, 64, 112
1, 259803, Control_c, 0, 64, 127
1, 260054, Control_c, 0, 67, 9
1, 260069, Control_c, 0, 67, 12
1, 260084, Control_c, 0, 67, 13
1, 260098, Control_c, 0, 67, 15
1, 260105, Note_off_c, 0, 64, 34
1, 260113, Control_c, 0, 67, 18
1, 260128, Control_c, 0, 67, 22
1, 260143, Control_c, 0, 67, 27
1, 260158, Control_c, 0, 67, 33
1, 260172, Control_c, 0, 67, 38
1, 260181, Note_on_c, 0, 74, 54
1, 260187, Control_c, 0, 67, 43
1, 260200, Note_off_c, 0, 72, 51
1, 260202, Control_c, 0, 67, 48
1, 260217, Control_c, 0, 67, 53
1, 260232, Control_c, 0, 67, 58
1, 260247, Control_c, 0, 67, 61
1, 260262, Control_c, 0, 67, 65
1, 260277, Control_c, 0, 67, 68
1, 260291, Control_c, 0, 67, 71
1, 260307, Control_c, 0, 67, 74
1, 260322, Control_c, 0, 67, 78
1, 260344, Control_c, 0, 67, 82
1, 260359, Control_c, 0, 67, 85
1, 260374, Control_c, 0, 67, 87
1, 260388, Control_c, 0, 67, 89
1, 260403, Control_c, 0, 67, 91
1, 260417, Note_off_c, 0, 74, 58
1, 260418, Control_c, 0, 67, 93
1, 260432, Note_on_c, 0, 76, 53
1, 260433, Control_c, 0, 67, 95
1, 260442, Note_on_c, 0, 71, 45
1, 260446, Note_on_c, 0, 65, 41
1, 260448, Note_on_c, 0, 68, 38
1, 260448, Control_c, 0, 67, 97
1, 260462, Control_c, 0, 64, 101
1, 260462, Control_c, 0, 67, 100
1, 260477, Control_c, 0, 64, 83
1, 260477, Control_c, 0, 67, 102
1, 260492, Control_c, 0, 64, 68
1, 260492, Control_c, 0, 67, 103
1, 260497, Note_off_c, 0, 76, 57
1, 260507, Control_c, 0, 64, 37
1, 260520, Note_off_c, 0, 67, 37
1, 260521, Control_c, 0, 64, 0
1, 260521, Control_c, 0, 67, 104
1, 260531, Note_on_c, 0, 74, 55
1, 260551, Control_c, 0, 64, 15
1, 260566, Control_c, 0, 64, 56
1, 260581, Control_c, 0, 64, 68
1, 260589, Note_off_c, 0, 74, 58
1, 260596, Control_c, 0, 64, 78
1, 260607, Note_on_c, 0, 76, 62
1, 260611, Control_c, 0, 64, 97
1, 260626, Control_c, 0, 64, 127
1, 260640, Note_off_c, 0, 76, 57
1, 260664, Note_on_c, 0, 74, 51
1, 260707, Note_off_c, 0, 74, 64
1, 260723, Note_on_c, 0, 76, 64
1, 260749, Note_off_c, 0, 76, 65
1, 260772, Note_on_c, 0, 74, 52
1, 260804, Note_off_c, 0, 74, 64
1, 260810, Note_on_c, 0, 76, 74
1, 260861, Note_off_c, 0, 76, 52
1, 260874, Note_on_c, 0, 74, 66
1, 260896, Note_off_c, 0, 71, 62
1, 260911, Note_off_c, 0, 74, 61
1, 260930, Note_on_c, 0, 76, 59
1, 260939, Note_off_c, 0, 68, 65
1, 260964, Note_off_c, 0, 65, 61
1, 261005, Note_on_c, 0, 74, 62
1, 261005, Note_off_c, 0, 76, 55
1, 261036, Note_off_c, 0, 74, 62
1, 261077, Note_on_c, 0, 72, 66
1, 261137, Note_off_c, 0, 72, 52
1, 261158, Note_on_c, 0, 76, 66
1, 261183, Control_c, 0, 67, 103
1, 261213, Control_c, 0, 67, 103
1, 261218, Note_on_c, 0, 74, 74
1, 261220, Note_off_c, 0, 76, 64
1, 261227, Control_c, 0, 67, 102
1, 261240, Note_off_c, 0, 74, 70
1, 261242, Control_c, 0, 67, 102
1, 261257, Control_c, 0, 67, 101
1, 261271, Control_c, 0, 67, 100
1, 261286, Control_c, 0, 64, 90
1, 261286, Control_c, 0, 67, 98
1, 261301, Control_c, 0, 64, 57
1, 261301, Control_c, 0, 67, 95
1, 261314, Note_on_c, 0, 55, 99
1, 261316, Control_c, 0, 64, 0
1, 261316, Control_c, 0, 67, 84
1, 261317, Note_on_c, 0, 60, 103
1, 261320, Note_on_c, 0, 52, 93
1, 261331, Control_c, 0, 67, 56
1, 261345, Control_c, 0, 67, 9
1, 261360, Control_c, 0, 64, 45
1, 261360, Control_c, 0, 67, 0
1, 261375, Control_c, 0, 64, 93
1, 261390, Control_c, 0, 64, 127
1, 261398, Note_off_c, 0, 60, 66
1, 261404, Note_on_c, 0, 54, 33
1, 261420, Note_off_c, 0, 55, 66
1, 261442, Note_off_c, 0, 54, 49
1, 261447, Note_off_c, 0, 52, 63
1, 261544, Note_on_c, 0, 64, 71
1, 261556, Note_on_c, 0, 60, 60
1, 261570, Note_on_c, 0, 55, 47
1, 261578, Note_off_c, 0, 60, 71
1, 261594, Note_off_c, 0, 55, 59
1, 261598, Note_off_c, 0, 64, 65
1, 261655, Note_on_c, 0, 43, 79
1, 261656, Note_on_c, 0, 48, 75
1, 261662, Note_on_c, 0, 40, 70
1, 261763, Note_on_c, 0, 64, 76
1, 261764, Note_on_c, 0, 60, 78
1, 261764, Note_off_c, 0, 48, 58
1, 261766, Note_on_c, 0, 67, 80
1, 261776, Note_off_c, 0, 40, 54
1, 261794, Note_off_c, 0, 43, 58
1, 261839, Note_off_c, 0, 60, 61
1, 261853, Note_off_c, 0, 64, 57
1, 261867, Note_on_c, 0, 48, 86
1, 261872, Note_on_c, 0, 43, 82
1, 261873, Note_on_c, 0, 40, 82
1, 261884, Note_off_c, 0, 67, 56
1, 261954, Note_on_c, 0, 67, 84
1, 261956, Note_on_c, 0, 72, 91
1, 261961, Note_on_c, 0, 64, 80
1, 261961, Note_off_c, 0, 48, 60
1, 261981, Note_off_c, 0, 40, 55
1, 261981, Note_off_c, 0, 64, 71
1, 261988, Note_off_c, 0, 43, 61
1, 261993, Note_off_c, 0, 67, 64
1, 262013, Note_off_c, 0, 72, 66
1, 262046, Note_on_c, 0, 48, 94
1, 262048, Note_on_c, 0, 40, 83
1, 262053, Note_on_c, 0, 43, 87
1, 262137, Note_on_c, 0, 76, 96
1, 262141, Note_on_c, 0, 67, 93
1, 262142, Note_on_c, 0, 72, 89
1, 262146, Note_off_c, 0, 48, 59
1, 262167, Note_off_c, 0, 43, 59
1, 262167, Note_off_c, 0, 72, 61
1, 262170, Note_off_c, 0, 40, 58
1, 262170, Note_off_c, 0, 67, 64
1, 262194, Note_off_c, 0, 76, 64
1, 262229, Note_on_c, 0, 48, 93
1, 262230, Note_on_c, 0, 40, 80
1, 262232, Note_on_c, 0, 43, 88
1, 262324, Note_off_c, 0, 48, 54
1, 262329, Note_on_c, 0, 72, 94
1, 262334, Note_on_c, 0, 76, 87
1, 262336, Note_on_c, 0, 79, 80
1, 262341, Note_on_c, 0, 81, 79
1, 262343, Note_on_c, 0, 80, 74
1, 262352, Note_off_c, 0, 40, 51
1, 262363, Note_off_c, 0, 43, 54
1, 262371, Note_off_c, 0, 80, 51
1, 262372, Note_off_c, 0, 72, 59
1, 262390, Note_off_c, 0, 76, 61
1, 262398, Note_off_c, 0, 81, 62
1, 262412, Note_on_c, 0, 40, 63
1, 262419, Note_on_c, 0, 48, 91
1, 262420, Note_on_c, 0, 43, 89
1, 262421, Note_off_c, 0, 79, 58
1, 262454, Note_off_c, 0, 40, 60
1, 262456, Note_off_c, 0, 43, 62
1, 262464, Note_off_c, 0, 48, 65
1, 262516, Note_on_c, 0, 79, 92
1, 262516, Note_on_c, 0, 84, 100
1, 262517, Note_on_c, 0, 76, 92
1, 262533, Note_off_c, 0, 79, 73
1, 262533, Note_off_c, 0, 76, 74
1, 262550, Note_off_c, 0, 84, 67
1, 262635, Control_c, 0, 64, 118
1, 262650, Control_c, 0, 64, 82
1, 262665, Control_c, 0, 64, 55
1, 262679, Control_c, 0, 64, 0
1, 262858, Note_on_c, 0, 72, 62
1, 262864, Note_on_c, 0, 67, 51
1, 262876, Note_on_c, 0, 64, 48
1, 263020, Control_c, 0, 64, 29
1, 263035, Control_c, 0, 64, 58
1, 263050, Control_c, 0, 64, 67
1, 263064, Control_c, 0, 64, 74
1, 263079, Control_c, 0, 64, 81
1, 263094, Control_c, 0, 64, 89
1, 263109, Control_c, 0, 64, 98
1, 263124, Control_c, 0, 64, 121
1, 263138, Control_c, 0, 64, 127
1, 263502, Control_c, 0, 67, 8
1, 263517, Note_off_c, 0, 72, 58
1, 263517, Control_c, 0, 67, 10
1, 263523, Note_on_c, 0, 74, 53
1, 263532, Control_c, 0, 67, 12
1, 263547, Control_c, 0, 67, 13
1, 263562, Control_c, 0, 67, 15
1, 263577, Control_c, 0, 67, 17
1, 263592, Control_c, 0, 67, 19
1, 263606, Control_c, 0, 67, 21
1, 263621, Control_c, 0, 67, 25
1, 263636, Control_c, 0, 67, 28
1, 263651, Control_c, 0, 67, 32
1, 263666, Control_c, 0, 67, 35
1, 263681, Control_c, 0, 67, 38
1, 263696, Control_c, 0, 67, 41
1, 263711, Control_c, 0, 67, 45
1, 263720, Note_off_c, 0, 74, 59
1, 263726, Control_c, 0, 67, 49
1, 263740, Control_c, 0, 67, 54
1, 263751, Note_on_c, 0, 76, 54
1, 263753, Note_on_c, 0, 68, 44
1, 263755, Control_c, 0, 67, 59
1, 263758, Note_on_c, 0, 65, 52
1, 263770, Control_c, 0, 67, 63
1, 263773, Note_off_c, 0, 64, 50
1, 263785, Control_c, 0, 67, 66
1, 263788, Note_off_c, 0, 67, 33
1, 263797, Note_off_c, 0, 76, 60
1, 263800, Control_c, 0, 64, 111
1, 263800, Control_c, 0, 67, 68
1, 263814, Control_c, 0, 64, 95
1, 263814, Control_c, 0, 67, 71
1, 263829, Note_on_c, 0, 74, 64
1, 263829, Control_c, 0, 64, 82
1, 263829, Control_c, 0, 67, 74
1, 263844, Control_c, 0, 64, 68
1, 263844, Control_c, 0, 67, 77
1, 263858, Control_c, 0, 64, 53
1, 263858, Control_c, 0, 67, 80
1, 263873, Control_c, 0, 64, 31
1, 263873, Control_c, 0, 67, 82
1, 263875, Note_off_c, 0, 74, 57
1, 263888, Control_c, 0, 64, 42
1, 263888, Control_c, 0, 67, 83
1, 263891, Note_on_c, 0, 76, 66
1, 263903, Control_c, 0, 64, 61
1, 263903, Control_c, 0, 67, 83
1, 263918, Control_c, 0, 64, 70
1, 263927, Note_off_c, 0, 76, 60
1, 263932, Control_c, 0, 64, 83
1, 263947, Control_c, 0, 64, 110
1, 263951, Note_on_c, 0, 74, 62
1, 263962, Control_c, 0, 64, 127
1, 263981, Note_off_c, 0, 74, 66
1, 263993, Note_on_c, 0, 76, 79
1, 264038, Note_off_c, 0, 76, 48
1, 264063, Note_on_c, 0, 74, 61
1, 264092, Note_off_c, 0, 74, 65
1, 264101, Note_on_c, 0, 76, 68
1, 264140, Note_off_c, 0, 76, 61
1, 264158, Note_on_c, 0, 74, 59
1, 264183, Note_off_c, 0, 74, 57
1, 264192, Note_on_c, 0, 76, 64
1, 264192, Control_c, 0, 67, 84
1, 264218, Note_off_c, 0, 68, 67
1, 264221, Control_c, 0, 67, 84
1, 264223, Note_off_c, 0, 65, 63
1, 264224, Note_off_c, 0, 76, 62
1, 264242, Poly_aftertouch_c, 0, 74, 127
1, 264251, Control_c, 0, 67, 85
1, 264254, Poly_aftertouch_c, 0, 74, 0
1, 264265, Control_c, 0, 67, 85
1, 264289, Note_on_c, 0, 72, 77
1, 264295, Control_c, 0, 67, 86
1, 264311, Control_c, 0, 67, 87
1, 264341, Control_c, 0, 67, 87
1, 264354, Note_on_c, 0, 74, 87
1, 264363, Note_off_c, 0, 72, 63
1, 264382, Note_off_c, 0, 74, 65
1, 264385, Control_c, 0, 67, 87
1, 264400, Control_c, 0, 67, 85
1, 264415, Control_c, 0, 67, 82
1, 264429, Control_c, 0, 64, 98
1, 264429, Control_c, 0, 67, 75
1, 264444, Control_c, 0, 64, 66
1, 264444, Control_c, 0, 67, 57
1, 264457, Note_on_c, 0, 64, 106
1, 264459, Note_on_c, 0, 55, 97
1, 264459, Control_c, 0, 64, 0
1, 264459, Control_c, 0, 67, 17
1, 264462, Note_on_c, 0, 58, 95
1, 264474, Control_c, 0, 64, 34
1, 264474, Control_c, 0, 67, 0
1, 264489, Control_c, 0, 64, 72
1, 264504, Control_c, 0, 64, 127
1, 264516, Note_off_c, 0, 64, 66
1, 264544, Note_off_c, 0, 58, 68
1, 264552, Note_off_c, 0, 55, 64
1, 264650, Note_on_c, 0, 67, 85
1, 264657, Note_on_c, 0, 58, 78
1, 264662, Note_on_c, 0, 64, 67
1, 264676, Note_off_c, 0, 58, 71
1, 264686, Note_off_c, 0, 64, 70
1, 264701, Note_off_c, 0, 67, 64
1, 264766, Note_on_c, 0, 43, 87
1, 264768, Note_on_c, 0, 46, 80
1, 264768, Note_on_c, 0, 52, 78
1, 264871, Note_off_c, 0, 52, 62
1, 264877, Note_on_c, 0, 70, 89
1, 264879, Note_on_c, 0, 64, 83
1, 264880, Note_on_c, 0, 67, 85
1, 264891, Note_off_c, 0, 43, 60
1, 264911, Note_off_c, 0, 46, 60
1, 264960, Note_off_c, 0, 67, 61
1, 264979, Note_on_c, 0, 52, 97
1, 264983, Note_on_c, 0, 43, 96
1, 264989, Note_on_c, 0, 46, 86
1, 264990, Note_off_c, 0, 70, 58
1, 265005, Note_off_c, 0, 64, 61
1, 265069, Note_on_c, 0, 67, 74
1, 265069, Note_on_c, 0, 70, 82
1, 265071, Note_on_c, 0, 76, 94
1, 265083, Note_off_c, 0, 52, 61
1, 265088, Note_off_c, 0, 70, 71
1, 265094, Note_off_c, 0, 67, 67
1, 265098, Note_off_c, 0, 43, 53
1, 265111, Note_off_c, 0, 76, 64
1, 265113, Note_off_c, 0, 46, 62
1, 265167, Note_on_c, 0, 52, 102
1, 265168, Note_on_c, 0, 43, 94
1, 265175, Note_on_c, 0, 46, 80
1, 265262, Note_on_c, 0, 79, 102
1, 265266, Note_on_c, 0, 70, 97
1, 265272, Note_off_c, 0, 52, 57
1, 265274, Note_on_c, 0, 76, 85
1, 265290, Note_off_c, 0, 43, 59
1, 265294, Note_off_c, 0, 46, 57
1, 265300, Note_off_c, 0, 76, 68
1, 265306, Note_off_c, 0, 70, 66
1, 265328, Note_off_c, 0, 79, 63
1, 265365, Note_on_c, 0, 52, 98
1, 265371, Note_on_c, 0, 43, 91
1, 265377, Note_on_c, 0, 46, 88
1, 265467, Note_on_c, 0, 76, 99
1, 265469, Note_on_c, 0, 82, 96
1, 265470, Note_on_c, 0, 79, 94
1, 265483, Note_off_c, 0, 52, 52
1, 265484, Note_off_c, 0, 43, 50
1, 265532, Note_off_c, 0, 46, 54
1, 265552, Note_off_c, 0, 76, 58
1, 265555, Note_off_c, 0, 79, 55
1, 265572, Note_on_c, 0, 43, 86
1, 265582, Note_on_c, 0, 52, 94
1, 265584, Note_on_c, 0, 46, 70
1, 265610, Note_off_c, 0, 82, 50
1, 265613, Note_off_c, 0, 43, 62
1, 265627, Note_off_c, 0, 46, 67
1, 265628, Note_off_c, 0, 52, 66
1, 265678, Note_on_c, 0, 82, 103
1, 265679, Note_on_c, 0, 88, 99
1, 265682, Note_on_c, 0, 79, 88
1, 265702, Note_off_c, 0, 79, 71
1, 265705, Note_off_c, 0, 82, 63
1, 265714, Note_off_c, 0, 88, 68
1, 265837, Control_c, 0, 64, 102
1, 265852, Control_c, 0, 64, 69
1, 265867, Control_c, 0, 64, 0
1, 265998, Note_on_c, 0, 76, 73
1, 266015, Note_on_c, 0, 67, 61
1, 266015, Note_on_c, 0, 70, 65
1, 266194, Control_c, 0, 64, 8
1, 266209, Control_c, 0, 64, 51
1, 266224, Control_c, 0, 64, 65
1, 266239, Control_c, 0, 64, 72
1, 266254, Control_c, 0, 64, 79
1, 266268, Control_c, 0, 64, 88
1, 266283, Control_c, 0, 64, 98
1, 266298, Control_c, 0, 64, 114
1, 266313, Control_c, 0, 64, 127
1, 266722, Note_on_c, 0, 77, 60
1, 266722, Control_c, 0, 67, 8
1, 266736, Control_c, 0, 67, 10
1, 266744, Note_off_c, 0, 76, 57
1, 266751, Control_c, 0, 67, 12
1, 266766, Control_c, 0, 67, 13
1, 266781, Control_c, 0, 67, 15
1, 266796, Control_c, 0, 67, 17
1, 266811, Control_c, 0, 67, 20
1, 266826, Control_c, 0, 67, 24
1, 266840, Control_c, 0, 67, 27
1, 266855, Control_c, 0, 67, 31
1, 266870, Control_c, 0, 67, 34
1, 266884, Control_c, 0, 67, 38
1, 266899, Control_c, 0, 67, 42
1, 266914, Control_c, 0, 67, 45
1, 266929, Control_c, 0, 67, 47
1, 266944, Control_c, 0, 67, 49
1, 266954, Note_off_c, 0, 77, 63
1, 266958, Control_c, 0, 67, 51
1, 266965, Note_on_c, 0, 79, 57
1, 266973, Control_c, 0, 67, 53
1, 266980, Note_on_c, 0, 72, 62
1, 266988, Control_c, 0, 67, 54
1, 267003, Control_c, 0, 67, 56
1, 267013, Note_on_c, 0, 68, 52
1, 267018, Control_c, 0, 67, 57
1, 267032, Control_c, 0, 64, 122
1, 267032, Control_c, 0, 67, 58
1, 267047, Control_c, 0, 64, 98
1, 267047, Control_c, 0, 67, 59
1, 267052, Note_off_c, 0, 67, 56
1, 267057, Note_off_c, 0, 79, 60
1, 267062, Control_c, 0, 64, 82
1, 267062, Control_c, 0, 67, 60
1, 267084, Control_c, 0, 64, 62
1, 267084, Control_c, 0, 67, 60
1, 267089, Note_on_c, 0, 77, 59
1, 267099, Control_c, 0, 64, 0
1, 267121, Note_off_c, 0, 70, 59
1, 267151, Note_off_c, 0, 77, 59
1, 267158, Control_c, 0, 64, 40
1, 267166, Note_on_c, 0, 79, 63
1, 267173, Control_c, 0, 64, 62
1, 267188, Control_c, 0, 64, 73
1, 267200, Note_off_c, 0, 79, 61
1, 267202, Control_c, 0, 64, 86
1, 267217, Control_c, 0, 64, 104
1, 267221, Note_on_c, 0, 77, 58
1, 267232, Control_c, 0, 64, 127
1, 267261, Note_off_c, 0, 77, 63
1, 267262, Control_c, 0, 67, 60
1, 267267, Note_on_c, 0, 79, 72
1, 267302, Note_off_c, 0, 79, 53
1, 267321, Control_c, 0, 67, 59
1, 267330, Note_on_c, 0, 77, 65
1, 267363, Note_off_c, 0, 77, 64
1, 267365, Control_c, 0, 67, 59
1, 267374, Note_on_c, 0, 79, 71
1, 267410, Note_off_c, 0, 79, 54
1, 267437, Note_on_c, 0, 77, 66
1, 267468, Note_off_c, 0, 77, 65
1, 267479, Note_on_c, 0, 79, 71
1, 267533, Note_off_c, 0, 79, 0
1, 267541, Note_on_c, 0, 77, 45
1, 267560, Note_on_c, 0, 79, 33
1, 267561, Note_off_c, 0, 68, 65
1, 267571, Note_off_c, 0, 77, 0
1, 267586, Note_on_c, 0, 77, 59
1, 267590, Note_off_c, 0, 79, 63
1, 267609, Note_off_c, 0, 72, 52
1, 267634, Note_off_c, 0, 77, 64
1, 267652, Note_on_c, 0, 76, 73
1, 267721, Control_c, 0, 67, 58
1, 267724, Note_on_c, 0, 77, 88
1, 267732, Note_off_c, 0, 76, 61
1, 267751, Control_c, 0, 67, 58
1, 267766, Control_c, 0, 67, 57
1, 267780, Control_c, 0, 67, 57
1, 267788, Note_off_c, 0, 77, 65
1, 267795, Control_c, 0, 67, 56
1, 267810, Control_c, 0, 67, 55
1, 267832, Control_c, 0, 67, 54
1, 267847, Control_c, 0, 64, 87
1, 267847, Control_c, 0, 67, 53
1, 267848, Note_on_c, 0, 67, 107
1, 267853, Note_on_c, 0, 64, 97
1, 267862, Control_c, 0, 64, 57
1, 267862, Control_c, 0, 67, 51
1, 267877, Control_c, 0, 64, 0
1, 267877, Control_c, 0, 67, 46
1, 267892, Control_c, 0, 67, 34
1, 267906, Control_c, 0, 67, 0
1, 267921, Control_c, 0, 64, 68
1, 267936, Control_c, 0, 64, 127
1, 267985, Note_off_c, 0, 67, 66
1, 268004, Note_off_c, 0, 64, 67
1, 268082, Note_on_c, 0, 76, 98
1, 268087, Note_on_c, 0, 73, 98
1, 268215, Note_on_c, 0, 46, 90
1, 268221, Note_on_c, 0, 52, 85
1, 268221, Note_on_c, 0, 55, 88
1, 268222, Note_off_c, 0, 76, 59
1, 268226, Note_on_c, 0, 49, 87
1, 268259, Note_off_c, 0, 46, 66
1, 268262, Note_off_c, 0, 55, 65
1, 268263, Note_off_c, 0, 52, 65
1, 268266, Note_off_c, 0, 49, 62
1, 268337, Note_on_c, 0, 76, 99
1, 268338, Note_on_c, 0, 79, 96
1, 268355, Note_off_c, 0, 73, 67
1, 268369, Note_off_c, 0, 76, 64
1, 268382, Note_off_c, 0, 79, 67
1, 268458, Note_on_c, 0, 67, 92
1, 268459, Note_on_c, 0, 58, 79
1, 268461, Note_on_c, 0, 64, 59
1, 268468, Note_on_c, 0, 61, 82
1, 268495, Note_on_c, 0, 63, 27
1, 268496, Note_off_c, 0, 63, 127
1, 268503, Note_on_c, 0, 85, 21
1, 268537, Note_off_c, 0, 85, 51
1, 268561, Note_on_c, 0, 82, 104
1, 268566, Note_on_c, 0, 79, 97
1, 268586, Note_off_c, 0, 67, 57
1, 268587, Note_off_c, 0, 58, 61
1, 268611, Note_off_c, 0, 61, 57
1, 268644, Note_off_c, 0, 64, 33
1, 268675, Note_on_c, 0, 67, 97
1, 268677, Note_on_c, 0, 64, 69
1, 268681, Note_on_c, 0, 58, 86
1, 268683, Note_on_c, 0, 61, 71
1, 268694, Note_off_c, 0, 82, 60
1, 268784, Note_on_c, 0, 85, 101
1, 268784, Note_on_c, 0, 82, 101
1, 268785, Note_off_c, 0, 67, 55
1, 268791, Note_off_c, 0, 58, 59
1, 268804, Note_off_c, 0, 61, 52
1, 268873, Note_off_c, 0, 64, 0
1, 268883, Note_off_c, 0, 85, 62
1, 268886, Note_on_c, 0, 64, 62
1, 268887, Note_on_c, 0, 67, 92
1, 268892, Note_on_c, 0, 58, 85
1, 268895, Note_on_c, 0, 61, 73
1, 268996, Note_off_c, 0, 67, 55
1, 269001, Note_on_c, 0, 88, 104
1, 269004, Note_on_c, 0, 85, 98
1, 269015, Note_off_c, 0, 58, 50
1, 269023, Note_off_c, 0, 79, 60
1, 269027, Note_off_c, 0, 82, 66
1, 269035, Note_off_c, 0, 61, 51
1, 269050, Note_off_c, 0, 85, 66
1, 269062, Note_off_c, 0, 88, 69
1, 269103, Note_off_c, 0, 64, 0
1, 269115, Note_on_c, 0, 64, 64
1, 269118, Note_on_c, 0, 61, 69
1, 269122, Note_on_c, 0, 58, 75
1, 269122, Note_on_c, 0, 67, 87
1, 269171, Note_off_c, 0, 58, 60
1, 269178, Note_off_c, 0, 67, 62
1, 269179, Note_off_c, 0, 64, 65
1, 269181, Note_off_c, 0, 61, 63
1, 269222, Note_on_c, 0, 91, 106
1, 269224, Note_on_c, 0, 88, 102
1, 269247, Note_off_c, 0, 88, 68
1, 269260, Note_off_c, 0, 91, 69
1, 269502, Note_on_c, 0, 79, 99
1, 269509, Note_on_c, 0, 73, 102
1, 269509, Note_on_c, 0, 76, 97
1, 269510, Note_on_c, 0, 70, 94
1, 269523, Control_c, 0, 64, 99
1, 269538, Control_c, 0, 64, 73
1, 269552, Control_c, 0, 64, 0
1, 269563, Note_on_c, 0, 68, 21
1, 269564, Note_off_c, 0, 68, 127
1, 269789, Control_c, 0, 64, 47
1, 269804, Control_c, 0, 64, 65
1, 269819, Control_c, 0, 64, 78
1, 269834, Control_c, 0, 64, 127
1, 270306, Note_on_c, 0, 80, 103
1, 270335, Note_off_c, 0, 79, 54
1, 270364, Note_off_c, 0, 76, 62
1, 270617, Note_on_c, 0, 82, 96
1, 270631, Note_on_c, 0, 77, 87
1, 270634, Note_on_c, 0, 74, 72
1, 270635, Note_on_c, 0, 71, 75
1, 270647, Note_off_c, 0, 80, 60
1, 270671, Note_off_c, 0, 70, 58
1, 270672, Control_c, 0, 64, 114
1, 270687, Control_c, 0, 64, 80
1, 270691, Note_off_c, 0, 73, 61
1, 270703, Control_c, 0, 64, 56
1, 270717, Control_c, 0, 64, 0
1, 270795, Note_off_c, 0, 82, 61
1, 270800, Note_on_c, 0, 80, 84
1, 270806, Control_c, 0, 64, 39
1, 270829, Control_c, 0, 64, 66
1, 270844, Control_c, 0, 64, 80
1, 270858, Control_c, 0, 64, 103
1, 270873, Control_c, 0, 64, 127
1, 270877, Note_off_c, 0, 80, 63
1, 270884, Note_on_c, 0, 82, 88
1, 270943, Note_off_c, 0, 82, 61
1, 270948, Note_on_c, 0, 80, 77
1, 270990, Note_on_c, 0, 82, 79
1, 270995, Note_off_c, 0, 80, 62
1, 271043, Note_on_c, 0, 80, 77
1, 271053, Note_off_c, 0, 82, 64
1, 271083, Note_on_c, 0, 82, 73
1, 271090, Note_off_c, 0, 80, 63
1, 271140, Note_on_c, 0, 80, 69
1, 271148, Note_off_c, 0, 82, 65
1, 271184, Note_off_c, 0, 80, 61
1, 271193, Note_on_c, 0, 82, 71
1, 271239, Note_on_c, 0, 80, 70
1, 271244, Note_off_c, 0, 82, 65
1, 271301, Note_off_c, 0, 80, 63
1, 271303, Note_on_c, 0, 82, 85
1, 271370, Note_on_c, 0, 80, 78
1, 271436, Note_off_c, 0, 82, 56
1, 271464, Note_on_c, 0, 79, 79
1, 271464, Note_off_c, 0, 74, 59
1, 271494, Note_off_c, 0, 71, 63
1, 271530, Note_off_c, 0, 80, 56
1, 271577, Note_on_c, 0, 82, 77
1, 271589, Note_off_c, 0, 79, 60
1, 271638, Note_off_c, 0, 77, 55
1, 271668, Note_on_c, 0, 80, 63
1, 271754, Note_off_c, 0, 82, 31
1, 271784, Control_c, 0, 67, 9
1, 271797, Note_off_c, 0, 80, 57
1, 271798, Control_c, 0, 64, 113
1, 271798, Control_c, 0, 67, 14
1, 271812, Note_on_c, 0, 79, 64
1, 271813, Control_c, 0, 64, 88
1, 271813, Control_c, 0, 67, 20
1, 271818, Note_on_c, 0, 76, 56
1, 271825, Note_on_c, 0, 60, 60
1, 271828, Control_c, 0, 64, 71
1, 271828, Control_c, 0, 67, 27
1, 271843, Control_c, 0, 64, 41
1, 271843, Control_c, 0, 67, 35
1, 271858, Control_c, 0, 64, 0
1, 271858, Control_c, 0, 67, 46
1, 271873, Control_c, 0, 67, 57
1, 271887, Control_c, 0, 67, 67
1, 271890, Note_off_c, 0, 60, 61
1, 271902, Control_c, 0, 67, 72
1, 271917, Control_c, 0, 67, 75
1, 271932, Control_c, 0, 67, 76
1, 271936, Note_on_c, 0, 72, 57
1, 271946, Control_c, 0, 67, 77
1, 271961, Control_c, 0, 67, 82
1, 271972, Note_off_c, 0, 72, 65
1, 271976, Control_c, 0, 67, 90
1, 271990, Control_c, 0, 67, 99
1, 272005, Control_c, 0, 67, 107
1, 272010, Note_off_c, 0, 76, 56
1, 272020, Control_c, 0, 67, 113
1, 272025, Note_off_c, 0, 79, 56
1, 272035, Control_c, 0, 67, 120
1, 272050, Control_c, 0, 67, 127
1, 272059, Note_on_c, 0, 72, 59
1, 272064, Control_c, 0, 67, 127
1, 272078, Note_off_c, 0, 72, 64
1, 272167, Note_on_c, 0, 72, 58
1, 272197, Note_off_c, 0, 72, 66
1, 272286, Note_on_c, 0, 72, 55
1, 272308, Note_off_c, 0, 72, 60
1, 272400, Note_on_c, 0, 72, 55
1, 272435, Note_off_c, 0, 72, 64
1, 272514, Note_on_c, 0, 72, 63
1, 272544, Note_off_c, 0, 72, 67
1, 272636, Note_on_c, 0, 72, 54
1, 272660, Note_off_c, 0, 72, 57
1, 272745, Note_on_c, 0, 72, 55
1, 272780, Note_off_c, 0, 72, 61
1, 272863, Note_on_c, 0, 72, 60
1, 272892, Note_off_c, 0, 72, 68
1, 272972, Note_on_c, 0, 72, 58
1, 272991, Note_off_c, 0, 72, 64
1, 273090, Note_on_c, 0, 72, 47
1, 273117, Note_off_c, 0, 72, 56
1, 273216, Note_on_c, 0, 80, 49
1, 273226, Note_on_c, 0, 77, 43
1, 273327, Note_on_c, 0, 72, 55
1, 273354, Note_off_c, 0, 72, 58
1, 273455, Note_on_c, 0, 72, 46
1, 273456, Note_off_c, 0, 77, 51
1, 273483, Note_off_c, 0, 80, 35
1, 273488, Note_off_c, 0, 72, 54
1, 273558, Note_on_c, 0, 68, 62
1, 273563, Note_on_c, 0, 65, 53
1, 273599, Note_off_c, 0, 65, 64
1, 273609, Note_off_c, 0, 68, 64
1, 273670, Note_on_c, 0, 72, 61
1, 273700, Note_off_c, 0, 72, 65
1, 273771, Note_on_c, 0, 72, 64
1, 273784, Control_c, 0, 64, 8
1, 273801, Note_off_c, 0, 72, 67
1, 273837, Control_c, 0, 64, 10
1, 273905, Note_on_c, 0, 72, 59
1, 273926, Note_off_c, 0, 72, 63
1, 274016, Control_c, 0, 64, 12
1, 274019, Note_on_c, 0, 72, 56
1, 274045, Control_c, 0, 64, 13
1, 274055, Note_off_c, 0, 72, 64
1, 274089, Control_c, 0, 64, 15
1, 274119, Control_c, 0, 64, 16
1, 274134, Control_c, 0, 64, 17
1, 274141, Note_on_c, 0, 72, 61
1, 274148, Control_c, 0, 64, 18
1, 274163, Control_c, 0, 64, 19
1, 274171, Note_off_c, 0, 72, 66
1, 274178, Control_c, 0, 64, 20
1, 274207, Control_c, 0, 64, 21
1, 274222, Control_c, 0, 64, 21
1, 274251, Note_on_c, 0, 72, 64
1, 274252, Control_c, 0, 64, 22
1, 274278, Note_off_c, 0, 72, 68
1, 274366, Note_on_c, 0, 72, 66
1, 274371, Control_c, 0, 64, 23
1, 274388, Note_off_c, 0, 72, 65
1, 274445, Control_c, 0, 64, 24
1, 274470, Note_on_c, 0, 72, 66
1, 274474, Control_c, 0, 64, 24
1, 274517, Note_off_c, 0, 72, 63
1, 274548, Control_c, 0, 64, 22
1, 274570, Control_c, 0, 64, 15
1, 274575, Note_on_c, 0, 85, 99
1, 274577, Note_on_c, 0, 80, 95
1, 274583, Note_on_c, 0, 77, 87
1, 274585, Control_c, 0, 64, 0
1, 274600, Control_c, 0, 67, 125
1, 274615, Control_c, 0, 67, 124
1, 274630, Control_c, 0, 67, 123
1, 274645, Control_c, 0, 67, 122
1, 274660, Control_c, 0, 64, 8
1, 274660, Control_c, 0, 67, 117
1, 274674, Control_c, 0, 64, 12
1, 274674, Control_c, 0, 67, 111
1, 274689, Control_c, 0, 64, 16
1, 274689, Control_c, 0, 67, 108
1, 274704, Note_on_c, 0, 72, 69
1, 274704, Control_c, 0, 64, 19
1, 274704, Control_c, 0, 67, 109
1, 274719, Control_c, 0, 64, 23
1, 274719, Control_c, 0, 67, 109
1, 274734, Note_off_c, 0, 72, 65
1, 274734, Control_c, 0, 64, 29
1, 274734, Control_c, 0, 67, 110
1, 274749, Control_c, 0, 64, 33
1, 274749, Control_c, 0, 67, 110
1, 274764, Control_c, 0, 67, 111
1, 274823, Control_c, 0, 64, 33
1, 274823, Control_c, 0, 67, 111
1, 274827, Note_on_c, 0, 72, 69
1, 274838, Control_c, 0, 64, 34
1, 274838, Control_c, 0, 67, 112
1, 274850, Note_off_c, 0, 72, 64
1, 274853, Control_c, 0, 64, 35
1, 274853, Control_c, 0, 67, 112
1, 274868, Control_c, 0, 64, 35
1, 274897, Control_c, 0, 64, 36
1, 274912, Control_c, 0, 64, 37
1, 274927, Control_c, 0, 64, 38
1, 274939, Note_on_c, 0, 68, 88
1, 274942, Control_c, 0, 67, 113
1, 274943, Note_on_c, 0, 65, 81
1, 274957, Control_c, 0, 64, 37
1, 274970, Note_off_c, 0, 68, 67
1, 274985, Note_off_c, 0, 65, 58
1, 275015, Control_c, 0, 67, 113
1, 275030, Control_c, 0, 64, 37
1, 275055, Note_on_c, 0, 72, 68
1, 275075, Control_c, 0, 67, 114
1, 275085, Note_off_c, 0, 72, 64
1, 275104, Control_c, 0, 64, 38
1, 275119, Control_c, 0, 64, 38
1, 275119, Control_c, 0, 67, 114
1, 275134, Control_c, 0, 64, 39
1, 275134, Control_c, 0, 67, 115
1, 275149, Control_c, 0, 64, 41
1, 275163, Control_c, 0, 64, 42
1, 275163, Control_c, 0, 67, 115
1, 275178, Control_c, 0, 64, 43
1, 275191, Note_on_c, 0, 72, 42
1, 275193, Control_c, 0, 64, 43
1, 275208, Control_c, 0, 67, 116
1, 275216, Note_off_c, 0, 72, 56
1, 275238, Control_c, 0, 64, 44
1, 275290, Note_on_c, 0, 68, 77
1, 275291, Note_on_c, 0, 65, 77
1, 275334, Control_c, 0, 67, 116
1, 275342, Note_off_c, 0, 65, 60
1, 275345, Note_off_c, 0, 68, 64
1, 275378, Control_c, 0, 64, 44
1, 275408, Control_c, 0, 64, 45
1, 275421, Note_on_c, 0, 72, 66
1, 275438, Control_c, 0, 67, 117
1, 275451, Note_off_c, 0, 72, 62
1, 275467, Control_c, 0, 64, 45
1, 275498, Control_c, 0, 64, 46
1, 275512, Control_c, 0, 64, 46
1, 275536, Note_on_c, 0, 72, 60
1, 275542, Control_c, 0, 64, 47
1, 275542, Control_c, 0, 67, 117
1, 275577, Note_off_c, 0, 72, 59
1, 275617, Control_c, 0, 64, 47
1, 275646, Control_c, 0, 64, 48
1, 275653, Note_on_c, 0, 68, 66
1, 275656, Note_on_c, 0, 65, 61
1, 275691, Control_c, 0, 67, 118
1, 275699, Note_off_c, 0, 68, 64
1, 275702, Note_off_c, 0, 65, 61
1, 275706, Control_c, 0, 64, 48
1, 275735, Control_c, 0, 64, 49
1, 275750, Control_c, 0, 64, 49
1, 275774, Note_on_c, 0, 72, 67
1, 275796, Note_off_c, 0, 77, 57
1, 275801, Note_off_c, 0, 72, 68
1, 275868, Control_c, 0, 67, 118
1, 275869, Note_off_c, 0, 80, 33
1, 275891, Note_on_c, 0, 72, 55
1, 275912, Control_c, 0, 67, 119
1, 275935, Note_off_c, 0, 72, 60
1, 275971, Control_c, 0, 67, 119
1, 275986, Note_on_c, 0, 84, 61
1, 275992, Note_on_c, 0, 76, 56
1, 275995, Note_on_c, 0, 79, 50
1, 276000, Note_on_c, 0, 67, 49
1, 276004, Note_on_c, 0, 64, 55
1, 276016, Control_c, 0, 67, 120
1, 276025, Note_off_c, 0, 67, 58
1, 276032, Note_off_c, 0, 64, 65
1, 276046, Control_c, 0, 67, 120
1, 276051, Note_off_c, 0, 85, 62
1, 276083, Control_c, 0, 64, 49
1, 276113, Control_c, 0, 64, 48
1, 276126, Note_on_c, 0, 60, 61
1, 276127, Control_c, 0, 64, 48
1, 276147, Note_off_c, 0, 60, 65
1, 276157, Control_c, 0, 64, 47
1, 276186, Control_c, 0, 64, 47
1, 276216, Control_c, 0, 64, 46
1, 276225, Note_on_c, 0, 60, 61
1, 276246, Control_c, 0, 64, 46
1, 276255, Note_off_c, 0, 60, 67
1, 276264, Note_off_c, 0, 79, 58
1, 276270, Note_off_c, 0, 84, 55
1, 276278, Note_off_c, 0, 76, 57
1, 276335, Control_c, 0, 64, 45
1, 276338, Note_on_c, 0, 60, 62
1, 276350, Control_c, 0, 64, 45
1, 276367, Note_off_c, 0, 60, 67
1, 276396, Control_c, 0, 64, 44
1, 276410, Control_c, 0, 64, 44
1, 276454, Note_on_c, 0, 60, 58
1, 276455, Control_c, 0, 64, 43
1, 276484, Note_off_c, 0, 60, 65
1, 276567, Note_on_c, 0, 60, 56
1, 276600, Note_off_c, 0, 60, 66
1, 276678, Note_on_c, 0, 60, 66
1, 276709, Note_off_c, 0, 60, 66
1, 276736, Control_c, 0, 64, 43
1, 276794, Note_on_c, 0, 60, 60
1, 276832, Note_off_c, 0, 60, 66
1, 276863, Control_c, 0, 67, 121
1, 276912, Note_on_c, 0, 60, 58
1, 276949, Note_off_c, 0, 60, 65
1, 277030, Note_on_c, 0, 60, 58
1, 277030, Note_on_c, 0, 79, 64
1, 277038, Note_on_c, 0, 76, 63
1, 277061, Note_off_c, 0, 60, 65
1, 277063, Note_off_c, 0, 79, 61
1, 277072, Note_off_c, 0, 76, 63
1, 277152, Note_on_c, 0, 60, 56
1, 277182, Note_off_c, 0, 60, 64
1, 277259, Note_on_c, 0, 60, 61
1, 277295, Note_off_c, 0, 60, 64
1, 277305, Note_on_c, 0, 76, 64
1, 277306, Note_on_c, 0, 79, 67
1, 277349, Note_off_c, 0, 76, 60
1, 277363, Note_off_c, 0, 79, 60
1, 277366, Note_on_c, 0, 80, 70
1, 277373, Note_on_c, 0, 60, 63
1, 277381, Note_on_c, 0, 77, 62
1, 277402, Note_off_c, 0, 60, 65
1, 277456, Control_c, 0, 64, 43
1, 277456, Control_c, 0, 67, 121
1, 277471, Control_c, 0, 64, 44
1, 277485, Control_c, 0, 64, 44
1, 277490, Note_on_c, 0, 60, 59
1, 277521, Note_off_c, 0, 60, 66
1, 277617, Note_on_c, 0, 60, 50
1, 277620, Note_off_c, 0, 77, 61
1, 277623, Note_on_c, 0, 76, 62
1, 277627, Note_on_c, 0, 79, 59
1, 277641, Control_c, 0, 67, 121
1, 277642, Note_off_c, 0, 80, 59
1, 277647, Note_off_c, 0, 60, 64
1, 277648, Note_off_c, 0, 79, 63
1, 277658, Note_off_c, 0, 76, 64
1, 277729, Note_on_c, 0, 60, 64
1, 277756, Note_off_c, 0, 60, 65
1, 277774, Control_c, 0, 64, 44
1, 277789, Control_c, 0, 64, 43
1, 277818, Control_c, 0, 64, 43
1, 277833, Control_c, 0, 64, 42
1, 277841, Note_on_c, 0, 60, 54
1, 277848, Control_c, 0, 64, 42
1, 277863, Control_c, 0, 64, 41
1, 277864, Note_off_c, 0, 60, 62
1, 277937, Control_c, 0, 67, 121
1, 277944, Note_on_c, 0, 60, 56
1, 277947, Note_on_c, 0, 64, 62
1, 277950, Note_on_c, 0, 67, 56
1, 277967, Control_c, 0, 64, 42
1, 277967, Control_c, 0, 67, 122
1, 277975, Note_off_c, 0, 60, 65
1, 277978, Note_off_c, 0, 64, 66
1, 277982, Control_c, 0, 64, 42
1, 277986, Note_off_c, 0, 67, 64
1, 278063, Note_on_c, 0, 60, 59
1, 278070, Control_c, 0, 67, 122
1, 278084, Note_off_c, 0, 60, 62
1, 278100, Control_c, 0, 67, 124
1, 278115, Control_c, 0, 64, 43
1, 278115, Control_c, 0, 67, 125
1, 278129, Control_c, 0, 67, 126
1, 278144, Control_c, 0, 64, 43
1, 278144, Control_c, 0, 67, 127
1, 278152, Note_on_c, 0, 60, 63
1, 278159, Control_c, 0, 64, 44
1, 278159, Control_c, 0, 67, 127
1, 278180, Note_off_c, 0, 60, 66
1, 278248, Control_c, 0, 64, 44
1, 278253, Note_on_c, 0, 60, 49
1, 278270, Note_on_c, 0, 55, 66
1, 278277, Note_on_c, 0, 52, 56
1, 278302, Note_off_c, 0, 52, 59
1, 278302, Note_off_c, 0, 55, 62
1, 278329, Control_c, 0, 64, 45
1, 278332, Note_off_c, 0, 60, 62
1, 278344, Control_c, 0, 64, 48
1, 278359, Control_c, 0, 64, 58
1, 278374, Control_c, 0, 64, 66
1, 278377, Note_on_c, 0, 58, 66
1, 278381, Note_on_c, 0, 55, 62
1, 278389, Control_c, 0, 64, 76
1, 278404, Control_c, 0, 64, 100
1, 278419, Control_c, 0, 64, 127
1, 278442, Note_off_c, 0, 55, 59
1, 278446, Note_off_c, 0, 58, 62
1, 278493, Note_on_c, 0, 60, 56
1, 278522, Note_off_c, 0, 60, 65
1, 278585, Note_on_c, 0, 60, 70
1, 278609, Note_off_c, 0, 60, 68
1, 278626, Control_c, 0, 67, 127
1, 278638, Note_on_c, 0, 79, 79
1, 278639, Note_on_c, 0, 76, 75
1, 278640, Control_c, 0, 67, 126
1, 278659, Note_off_c, 0, 79, 69
1, 278666, Note_off_c, 0, 76, 66
1, 278701, Control_c, 0, 64, 95
1, 278701, Control_c, 0, 67, 127
1, 278705, Note_on_c, 0, 82, 93
1, 278710, Note_on_c, 0, 60, 66
1, 278711, Note_on_c, 0, 79, 86
1, 278716, Control_c, 0, 64, 70
1, 278716, Control_c, 0, 67, 127
1, 278731, Control_c, 0, 64, 0
1, 278747, Note_off_c, 0, 60, 64
1, 278837, Note_on_c, 0, 60, 67
1, 278866, Note_off_c, 0, 60, 67
1, 278939, Note_on_c, 0, 60, 65
1, 278951, Note_off_c, 0, 79, 62
1, 278957, Note_on_c, 0, 80, 73
1, 278959, Note_on_c, 0, 77, 71
1, 278973, Note_off_c, 0, 60, 65
1, 278978, Note_off_c, 0, 82, 63
1, 278986, Note_off_c, 0, 80, 64
1, 278988, Note_off_c, 0, 77, 66
1, 279068, Note_on_c, 0, 60, 66
1, 279098, Note_off_c, 0, 60, 67
1, 279179, Note_on_c, 0, 60, 62
1, 279208, Note_off_c, 0, 60, 67
1, 279293, Note_on_c, 0, 60, 46
1, 279296, Note_on_c, 0, 65, 63
1, 279297, Note_on_c, 0, 68, 61
1, 279321, Note_off_c, 0, 60, 58
1, 279326, Note_off_c, 0, 65, 66
1, 279330, Note_off_c, 0, 68, 66
1, 279405, Note_on_c, 0, 60, 56
1, 279427, Note_off_c, 0, 60, 60
1, 279490, Note_on_c, 0, 60, 71
1, 279518, Note_off_c, 0, 60, 68
1, 279596, Note_on_c, 0, 60, 59
1, 279606, Note_on_c, 0, 56, 80
1, 279638, Note_on_c, 0, 53, 36
1, 279646, Note_off_c, 0, 56, 61
1, 279651, Note_off_c, 0, 60, 61
1, 279672, Note_off_c, 0, 53, 34
1, 279717, Control_c, 0, 64, 40
1, 279729, Note_on_c, 0, 53, 67
1, 279732, Control_c, 0, 64, 62
1, 279735, Note_on_c, 0, 56, 64
1, 279747, Control_c, 0, 64, 73
1, 279761, Control_c, 0, 64, 90
1, 279774, Note_off_c, 0, 56, 59
1, 279776, Control_c, 0, 64, 127
1, 279793, Note_off_c, 0, 53, 63
1, 279828, Control_c, 0, 67, 127
1, 279846, Note_on_c, 0, 60, 71
1, 279858, Control_c, 0, 67, 126
1, 279880, Note_off_c, 0, 60, 64
1, 279902, Control_c, 0, 67, 126
1, 279932, Control_c, 0, 67, 125
1, 279947, Control_c, 0, 67, 125
1, 279961, Control_c, 0, 67, 124
1, 279964, Note_on_c, 0, 60, 75
1, 279976, Control_c, 0, 67, 124
1, 279991, Control_c, 0, 67, 123
1, 279995, Note_off_c, 0, 60, 59
1, 280006, Note_on_c, 0, 80, 89
1, 280006, Control_c, 0, 67, 122
1, 280013, Note_on_c, 0, 77, 68
1, 280020, Control_c, 0, 67, 120
1, 280024, Note_off_c, 0, 80, 71
1, 280031, Note_off_c, 0, 77, 68
1, 280035, Control_c, 0, 67, 117
1, 280050, Control_c, 0, 67, 115
1, 280058, Note_on_c, 0, 80, 99
1, 280061, Note_on_c, 0, 85, 111
1, 280065, Note_on_c, 0, 77, 92
1, 280065, Control_c, 0, 64, 113
1, 280065, Control_c, 0, 67, 115
1, 280080, Control_c, 0, 64, 78
1, 280080, Control_c, 0, 67, 114
1, 280094, Control_c, 0, 64, 30
1, 280094, Control_c, 0, 67, 112
1, 280109, Control_c, 0, 64, 0
1, 280109, Control_c, 0, 67, 106
1, 280124, Control_c, 0, 67, 94
1, 280139, Control_c, 0, 67, 81
1, 280153, Control_c, 0, 67, 73
1, 280168, Control_c, 0, 67, 68
1, 280175, Note_on_c, 0, 60, 79
1, 280183, Control_c, 0, 67, 66
1, 280201, Note_off_c, 0, 60, 69
1, 280296, Note_on_c, 0, 60, 64
1, 280303, Control_c, 0, 67, 67
1, 280317, Control_c, 0, 67, 67
1, 280325, Note_off_c, 0, 60, 67
1, 280332, Control_c, 0, 67, 68
1, 280347, Control_c, 0, 67, 68
1, 280362, Control_c, 0, 67, 69
1, 280377, Control_c, 0, 67, 70
1, 280392, Control_c, 0, 67, 70
1, 280398, Note_on_c, 0, 53, 87
1, 280399, Note_on_c, 0, 56, 85
1, 280435, Note_off_c, 0, 56, 66
1, 280438, Note_off_c, 0, 53, 64
1, 280510, Note_on_c, 0, 60, 73
1, 280541, Note_off_c, 0, 60, 65
1, 280641, Note_on_c, 0, 60, 67
1, 280670, Note_off_c, 0, 60, 68
1, 280740, Control_c, 0, 67, 71
1, 280753, Note_on_c, 0, 53, 73
1, 280756, Note_on_c, 0, 56, 75
1, 280789, Note_off_c, 0, 56, 63
1, 280803, Note_off_c, 0, 53, 63
1, 280866, Note_on_c, 0, 60, 65
1, 280897, Note_off_c, 0, 60, 67
1, 280903, Control_c, 0, 67, 71
1, 280917, Control_c, 0, 67, 72
1, 280973, Note_on_c, 0, 60, 63
1, 281006, Note_off_c, 0, 60, 66
1, 281006, Control_c, 0, 67, 72
1, 281051, Control_c, 0, 67, 73
1, 281066, Control_c, 0, 67, 73
1, 281081, Control_c, 0, 67, 74
1, 281086, Note_on_c, 0, 53, 68
1, 281089, Note_on_c, 0, 56, 68
1, 281125, Note_off_c, 0, 56, 62
1, 281125, Control_c, 0, 67, 74
1, 281130, Note_off_c, 0, 53, 66
1, 281202, Note_on_c, 0, 60, 65
1, 281233, Note_off_c, 0, 60, 66
1, 281268, Note_off_c, 0, 77, 55
1, 281282, Note_off_c, 0, 80, 45
1, 281289, Control_c, 0, 67, 75
1, 281319, Note_on_c, 0, 60, 64
1, 281356, Note_off_c, 0, 60, 62
1, 281431, Note_on_c, 0, 84, 61
1, 281440, Note_on_c, 0, 79, 52
1, 281444, Note_on_c, 0, 76, 57
1, 281444, Control_c, 0, 67, 75
1, 281474, Control_c, 0, 67, 76
1, 281501, Note_off_c, 0, 85, 61
1, 281504, Control_c, 0, 67, 76
1, 281533, Control_c, 0, 67, 77
1, 281548, Note_on_c, 0, 60, 58
1, 281563, Control_c, 0, 67, 78
1, 281569, Note_off_c, 0, 60, 62
1, 281578, Control_c, 0, 67, 79
1, 281592, Control_c, 0, 67, 81
1, 281607, Control_c, 0, 67, 83
1, 281621, Control_c, 0, 67, 84
1, 281636, Control_c, 0, 67, 85
1, 281649, Note_on_c, 0, 60, 58
1, 281651, Control_c, 0, 67, 88
1, 281665, Control_c, 0, 67, 90
1, 281680, Control_c, 0, 67, 95
1, 281690, Note_off_c, 0, 60, 62
1, 281690, Note_off_c, 0, 84, 64
1, 281695, Control_c, 0, 67, 99
1, 281703, Note_off_c, 0, 79, 62
1, 281710, Control_c, 0, 67, 102
1, 281725, Control_c, 0, 67, 103
1, 281726, Note_off_c, 0, 76, 62
1, 281766, Note_on_c, 0, 55, 69
1, 281772, Note_on_c, 0, 52, 62
1, 281784, Control_c, 0, 67, 103
1, 281799, Control_c, 0, 67, 102
1, 281805, Note_off_c, 0, 55, 58
1, 281817, Note_off_c, 0, 52, 64
1, 281889, Note_on_c, 0, 60, 57
1, 281918, Note_off_c, 0, 60, 65
1, 282004, Note_on_c, 0, 60, 57
1, 282037, Control_c, 0, 67, 102
1, 282045, Note_off_c, 0, 60, 62
1, 282088, Control_c, 0, 67, 101
1, 282125, Note_on_c, 0, 72, 80
1, 282139, Note_on_c, 0, 66, 59
1, 282147, Note_on_c, 0, 63, 60
1, 282240, Note_on_c, 0, 60, 57
1, 282263, Note_off_c, 0, 60, 62
1, 282348, Note_on_c, 0, 60, 56
1, 282393, Note_off_c, 0, 60, 60
1, 282480, Note_on_c, 0, 54, 68
1, 282487, Note_on_c, 0, 51, 57
1, 282488, Control_c, 0, 64, 48
1, 282503, Control_c, 0, 64, 66
1, 282503, Control_c, 0, 67, 101
1, 282518, Control_c, 0, 64, 78
1, 282527, Note_off_c, 0, 54, 56
1, 282532, Control_c, 0, 64, 100
1, 282547, Note_off_c, 0, 51, 54
1, 282547, Control_c, 0, 64, 127
1, 282592, Note_on_c, 0, 60, 61
1, 282592, Control_c, 0, 67, 100
1, 282622, Control_c, 0, 67, 100
1, 282623, Note_off_c, 0, 60, 66
1, 282632, Note_off_c, 0, 72, 56
1, 282661, Note_off_c, 0, 63, 62
1, 282675, Note_off_c, 0, 66, 51
1, 282709, Note_on_c, 0, 60, 47
1, 282756, Note_off_c, 0, 60, 57
1, 282786, Control_c, 0, 67, 100
1, 282836, Note_on_c, 0, 71, 60
1, 282852, Note_on_c, 0, 65, 52
1, 282861, Note_on_c, 0, 62, 47
1, 282867, Control_c, 0, 64, 105
1, 282882, Control_c, 0, 64, 90
1, 282882, Control_c, 0, 67, 101
1, 282897, Control_c, 0, 64, 77
1, 282911, Control_c, 0, 64, 66
1, 282911, Control_c, 0, 67, 101
1, 282926, Control_c, 0, 64, 52
1, 282941, Control_c, 0, 64, 26
1, 282956, Control_c, 0, 64, 0
1, 282956, Control_c, 0, 67, 101
1, 282966, Note_on_c, 0, 60, 52
1, 282991, Note_off_c, 0, 60, 60
1, 283080, Note_on_c, 0, 60, 53
1, 283133, Note_off_c, 0, 60, 57
1, 283206, Note_on_c, 0, 53, 61
1, 283208, Note_on_c, 0, 50, 61
1, 283215, Note_off_c, 0, 71, 60
1, 283218, Note_off_c, 0, 65, 56
1, 283223, Note_off_c, 0, 62, 54
1, 283242, Note_off_c, 0, 53, 63
1, 283256, Note_off_c, 0, 50, 65
1, 283322, Note_on_c, 0, 60, 55
1, 283349, Note_off_c, 0, 60, 59
1, 283371, Control_c, 0, 67, 101
1, 283432, Note_on_c, 0, 60, 57
1, 283479, Note_off_c, 0, 60, 59
1, 283558, Control_c, 0, 67, 101
1, 283566, Note_on_c, 0, 70, 53
1, 283576, Note_on_c, 0, 65, 46
1, 283586, Note_on_c, 0, 61, 44
1, 283683, Note_on_c, 0, 60, 44
1, 283710, Note_off_c, 0, 60, 57
1, 283765, Control_c, 0, 67, 101
1, 283785, Note_on_c, 0, 60, 54
1, 283831, Note_off_c, 0, 60, 60
1, 283877, Note_off_c, 0, 70, 54
1, 283883, Note_off_c, 0, 65, 38
1, 283902, Note_on_c, 0, 53, 60
1, 283905, Note_off_c, 0, 61, 37
1, 283912, Note_on_c, 0, 49, 54
1, 283951, Note_off_c, 0, 53, 58
1, 283964, Note_off_c, 0, 49, 58
1, 284002, Control_c, 0, 67, 102
1, 284027, Note_on_c, 0, 60, 56
1, 284054, Note_off_c, 0, 60, 62
1, 284061, Control_c, 0, 67, 102
1, 284091, Control_c, 0, 67, 103
1, 284106, Control_c, 0, 67, 103
1, 284120, Control_c, 0, 67, 104
1, 284135, Control_c, 0, 67, 105
1, 284141, Note_on_c, 0, 60, 46
1, 284150, Control_c, 0, 67, 107
1, 284165, Control_c, 0, 67, 112
1, 284170, Note_off_c, 0, 60, 52
1, 284179, Control_c, 0, 67, 117
1, 284194, Control_c, 0, 67, 123
1, 284209, Control_c, 0, 67, 127
1, 284240, Note_on_c, 0, 68, 48
1, 284254, Note_on_c, 0, 65, 43
1, 284267, Note_on_c, 0, 60, 46
1, 284379, Note_on_c, 0, 48, 34
1, 284412, Note_off_c, 0, 48, 47
1, 284484, Note_on_c, 0, 48, 59
1, 284517, Note_off_c, 0, 48, 62
1, 284588, Note_off_c, 0, 60, 52
1, 284595, Note_on_c, 0, 48, 62
1, 284598, Note_off_c, 0, 65, 54
1, 284617, Note_off_c, 0, 68, 53
1, 284625, Note_off_c, 0, 48, 65
1, 284715, Note_on_c, 0, 48, 54
1, 284746, Note_off_c, 0, 48, 64
1, 284829, Note_on_c, 0, 48, 53
1, 284857, Note_off_c, 0, 48, 57
1, 284934, Note_on_c, 0, 48, 60
1, 284965, Note_off_c, 0, 48, 65
1, 285069, Note_on_c, 0, 48, 51
1, 285099, Note_off_c, 0, 48, 62
1, 285190, Note_on_c, 0, 48, 46
1, 285218, Note_off_c, 0, 48, 57
1, 285296, Note_on_c, 0, 48, 58
1, 285326, Note_off_c, 0, 48, 64
1, 285418, Note_on_c, 0, 48, 55
1, 285449, Note_off_c, 0, 48, 63
1, 285533, Note_on_c, 0, 48, 51
1, 285570, Note_off_c, 0, 48, 64
1, 285656, Note_on_c, 0, 55, 48
1, 285671, Note_on_c, 0, 52, 42
1, 285672, Note_on_c, 0, 46, 41
1, 285769, Note_on_c, 0, 36, 58
1, 285810, Note_off_c, 0, 36, 60
1, 285908, Note_on_c, 0, 36, 52
1, 285939, Note_off_c, 0, 36, 54
1, 286032, Note_on_c, 0, 36, 48
1, 286062, Note_off_c, 0, 36, 54
1, 286065, Note_off_c, 0, 55, 50
1, 286069, Note_off_c, 0, 46, 34
1, 286086, Note_off_c, 0, 52, 34
1, 286148, Note_on_c, 0, 36, 57
1, 286177, Note_off_c, 0, 36, 55
1, 286265, Note_on_c, 0, 36, 55
1, 286295, Note_off_c, 0, 36, 54
1, 286388, Note_on_c, 0, 36, 51
1, 286422, Note_off_c, 0, 36, 58
1, 286515, Note_on_c, 0, 36, 54
1, 286561, Note_off_c, 0, 36, 59
1, 286659, Note_on_c, 0, 36, 41
1, 286694, Note_off_c, 0, 36, 48
1, 286786, Note_on_c, 0, 36, 49
1, 286817, Note_off_c, 0, 36, 57
1, 286917, Note_on_c, 0, 36, 46
1, 286956, Note_off_c, 0, 36, 52
1, 287112, Note_on_c, 0, 36, 3
1, 287151, Note_off_c, 0, 36, 46
1, 287203, Control_c, 0, 64, 8
1, 287218, Control_c, 0, 64, 13
1, 287227, Note_on_c, 0, 29, 39
1, 287233, Control_c, 0, 64, 18
1, 287248, Control_c, 0, 64, 23
1, 287263, Control_c, 0, 64, 29
1, 287278, Control_c, 0, 64, 37
1, 287300, Control_c, 0, 64, 45
1, 287315, Control_c, 0, 64, 54
1, 287329, Control_c, 0, 64, 61
1, 287344, Control_c, 0, 64, 64
1, 287359, Control_c, 0, 64, 67
1, 287374, Control_c, 0, 64, 71
1, 287389, Control_c, 0, 64, 78
1, 287403, Control_c, 0, 64, 85
1, 287418, Control_c, 0, 64, 95
1, 287433, Control_c, 0, 64, 108
1, 287448, Control_c, 0, 64, 127
1, 287469, Note_on_c, 0, 41, 39
1, 287485, Note_on_c, 0, 36, 35
1, 287502, Note_on_c, 0, 33, 28
1, 287538, Note_off_c, 0, 29, 38
1, 287615, Note_on_c, 0, 29, 36
1, 287631, Note_off_c, 0, 33, 32
1, 287639, Note_off_c, 0, 36, 31
1, 287639, Note_off_c, 0, 41, 40
1, 287776, Note_off_c, 0, 29, 43
1, 287782, Note_on_c, 0, 36, 35
1, 287787, Note_on_c, 0, 33, 18
1, 287788, Note_on_c, 0, 41, 31
1, 287865, Note_off_c, 0, 36, 38
1, 287872, Note_off_c, 0, 41, 34
1, 287885, Note_off_c, 0, 33, 36
1, 287903, Note_on_c, 0, 29, 44
1, 288044, Note_on_c, 0, 36, 42
1, 288047, Note_on_c, 0, 41, 34
1, 288052, Note_off_c, 0, 29, 34
1, 288059, Note_on_c, 0, 33, 32
1, 288109, Note_off_c, 0, 36, 50
1, 288125, Note_off_c, 0, 41, 40
1, 288131, Note_off_c, 0, 33, 46
1, 288168, Note_on_c, 0, 29, 40
1, 288300, Note_on_c, 0, 41, 28
1, 288300, Note_on_c, 0, 36, 30
1, 288310, Note_off_c, 0, 29, 34
1, 288313, Note_on_c, 0, 33, 33
1, 288431, Note_off_c, 0, 33, 36
1, 288431, Note_off_c, 0, 36, 37
1, 288437, Note_on_c, 0, 29, 46
1, 288440, Note_off_c, 0, 41, 34
1, 288571, Note_on_c, 0, 57, 54
1, 288572, Note_on_c, 0, 45, 47
1, 288586, Note_on_c, 0, 36, 40
1, 288593, Note_off_c, 0, 29, 38
1, 288600, Note_on_c, 0, 41, 26
1, 288616, Note_on_c, 0, 33, 3
1, 288620, Note_off_c, 0, 45, 62
1, 288649, Note_off_c, 0, 57, 63
1, 288680, Note_off_c, 0, 36, 48
1, 288715, Note_on_c, 0, 29, 52
1, 288715, Note_off_c, 0, 33, 34
1, 288721, Note_off_c, 0, 41, 34
1, 288867, Note_on_c, 0, 36, 41
1, 288880, Note_on_c, 0, 41, 34
1, 288882, Note_on_c, 0, 33, 30
1, 288885, Note_off_c, 0, 29, 36
1, 288904, Note_on_c, 0, 60, 63
1, 288940, Note_off_c, 0, 60, 63
1, 289040, Note_off_c, 0, 41, 37
1, 289047, Note_off_c, 0, 36, 27
1, 289057, Note_off_c, 0, 33, 35
1, 289058, Note_on_c, 0, 29, 41
1, 289061, Note_on_c, 0, 65, 62
1, 289085, Note_on_c, 0, 53, 42
1, 289094, Control_c, 0, 64, 98
1, 289110, Control_c, 0, 64, 80
1, 289125, Control_c, 0, 64, 66
1, 289140, Control_c, 0, 64, 51
1, 289154, Control_c, 0, 64, 56
1, 289169, Control_c, 0, 64, 66
1, 289184, Control_c, 0, 64, 78
1, 289198, Control_c, 0, 64, 102
1, 289198, Control_c, 0, 67, 121
1, 289209, Note_on_c, 0, 36, 42
1, 289212, Note_on_c, 0, 33, 39
1, 289213, Control_c, 0, 64, 127
1, 289213, Control_c, 0, 67, 109
1, 289223, Note_on_c, 0, 41, 35
1, 289226, Note_off_c, 0, 29, 36
1, 289226, Note_off_c, 0, 53, 63
1, 289228, Control_c, 0, 67, 92
1, 289243, Control_c, 0, 67, 65
1, 289254, Note_off_c, 0, 65, 61
1, 289258, Control_c, 0, 67, 33
1, 289272, Control_c, 0, 67, 0
1, 289323, Note_off_c, 0, 36, 36
1, 289323, Note_off_c, 0, 41, 38
1, 289326, Note_on_c, 0, 29, 54
1, 289342, Note_off_c, 0, 33, 34
1, 289473, Note_on_c, 0, 69, 63
1, 289487, Note_off_c, 0, 29, 57
1, 289502, Note_on_c, 0, 57, 44
1, 289509, Note_on_c, 0, 33, 33
1, 289513, Note_on_c, 0, 41, 37
1, 289514, Note_on_c, 0, 36, 31
1, 289534, Note_off_c, 0, 69, 64
1, 289570, Note_off_c, 0, 57, 59
1, 289581, Note_off_c, 0, 41, 55
1, 289617, Note_off_c, 0, 36, 36
1, 289624, Note_on_c, 0, 29, 61
1, 289670, Note_off_c, 0, 33, 38
1, 289716, Note_off_c, 0, 29, 56
1, 289735, Note_on_c, 0, 41, 29
1, 289742, Note_on_c, 0, 33, 31
1, 289743, Note_on_c, 0, 36, 47
1, 289783, Note_on_c, 0, 65, 66
1, 289805, Note_on_c, 0, 53, 26
1, 289809, Note_off_c, 0, 41, 51
1, 289833, Note_off_c, 0, 33, 49
1, 289839, Note_off_c, 0, 53, 55
1, 289857, Note_off_c, 0, 36, 35
1, 289886, Note_on_c, 0, 64, 70
1, 289889, Control_c, 0, 64, 121
1, 289891, Note_on_c, 0, 31, 48
1, 289903, Control_c, 0, 64, 93
1, 289918, Control_c, 0, 64, 73
1, 289923, Note_off_c, 0, 65, 39
1, 289933, Control_c, 0, 64, 43
1, 289947, Control_c, 0, 64, 0
1, 289992, Control_c, 0, 64, 38
1, 290006, Note_off_c, 0, 31, 57
1, 290007, Control_c, 0, 64, 65
1, 290014, Note_on_c, 0, 43, 56
1, 290021, Note_on_c, 0, 34, 49
1, 290021, Control_c, 0, 64, 80
1, 290025, Note_on_c, 0, 36, 41
1, 290036, Control_c, 0, 64, 110
1, 290051, Control_c, 0, 64, 127
1, 290111, Note_off_c, 0, 36, 50
1, 290117, Note_off_c, 0, 43, 36
1, 290126, Note_off_c, 0, 34, 53
1, 290141, Note_on_c, 0, 31, 59
1, 290272, Note_off_c, 0, 64, 60
1, 290274, Note_on_c, 0, 67, 66
1, 290276, Note_off_c, 0, 31, 57
1, 290300, Note_on_c, 0, 34, 40
1, 290304, Note_on_c, 0, 55, 39
1, 290318, Note_on_c, 0, 43, 43
1, 290333, Note_on_c, 0, 36, 33
1, 290364, Note_off_c, 0, 67, 60
1, 290385, Note_off_c, 0, 36, 54
1, 290399, Note_off_c, 0, 55, 56
1, 290409, Note_off_c, 0, 43, 47
1, 290417, Note_on_c, 0, 31, 58
1, 290435, Note_off_c, 0, 34, 33
1, 290512, Note_on_c, 0, 34, 40
1, 290526, Note_on_c, 0, 36, 44
1, 290548, Note_off_c, 0, 31, 53
1, 290578, Note_on_c, 0, 43, 48
1, 290584, Note_off_c, 0, 36, 54
1, 290593, Note_off_c, 0, 34, 55
1, 290621, Note_on_c, 0, 64, 60
1, 290628, Note_on_c, 0, 52, 48
1, 290664, Note_off_c, 0, 52, 61
1, 290671, Note_off_c, 0, 43, 38
1, 290783, Note_on_c, 0, 33, 44
1, 290783, Note_on_c, 0, 65, 63
1, 290785, Control_c, 0, 64, 114
1, 290800, Control_c, 0, 64, 97
1, 290815, Control_c, 0, 64, 83
1, 290817, Note_off_c, 0, 64, 49
1, 290827, Note_on_c, 0, 53, 34
1, 290830, Control_c, 0, 64, 68
1, 290844, Control_c, 0, 64, 0
1, 290933, Control_c, 0, 64, 39
1, 290948, Control_c, 0, 64, 66
1, 290962, Control_c, 0, 64, 79
1, 290977, Control_c, 0, 64, 101
1, 290980, Note_on_c, 0, 41, 40
1, 290992, Note_off_c, 0, 65, 62
1, 290992, Control_c, 0, 64, 127
1, 291007, Note_on_c, 0, 45, 39
1, 291016, Note_on_c, 0, 36, 30
1, 291051, Note_off_c, 0, 33, 37
1, 291063, Note_off_c, 0, 53, 44
1, 291096, Note_off_c, 0, 45, 40
1, 291122, Note_on_c, 0, 33, 33
1, 291139, Note_off_c, 0, 41, 32
1, 291155, Note_off_c, 0, 36, 29
1, 291269, Note_on_c, 0, 60, 52
1, 291282, Note_on_c, 0, 41, 36
1, 291291, Note_on_c, 0, 36, 17
1, 291297, Note_on_c, 0, 48, 34
1, 291311, Note_off_c, 0, 33, 39
1, 291322, Note_on_c, 0, 45, 27
1, 291364, Note_off_c, 0, 45, 48
1, 291381, Note_off_c, 0, 41, 48
1, 291409, Note_on_c, 0, 33, 49
1, 291501, Note_off_c, 0, 36, 0
1, 291522, Note_on_c, 0, 36, 6
1, 291523, Note_on_c, 0, 41, 52
1, 291527, Note_off_c, 0, 33, 51
1, 291559, Note_on_c, 0, 45, 37
1, 291609, Note_off_c, 0, 45, 46
1, 291612, Note_off_c, 0, 41, 53
1, 291655, Note_on_c, 0, 33, 54
1, 291681, Note_off_c, 0, 48, 48
1, 291722, Note_off_c, 0, 60, 64
1, 291759, Note_off_c, 0, 36, 0
1, 291770, Note_on_c, 0, 41, 43
1, 291774, Note_off_c, 0, 33, 55
1, 291803, Poly_aftertouch_c, 0, 36, 127
1, 291814, Note_on_c, 0, 45, 24
1, 291845, Note_off_c, 0, 41, 56
1, 291848, Note_off_c, 0, 45, 54
1, 291868, Note_on_c, 0, 33, 47
1, 291873, Poly_aftertouch_c, 0, 36, 0
1, 292009, Note_on_c, 0, 62, 64
1, 292044, Note_on_c, 0, 50, 40
1, 292060, Note_off_c, 0, 33, 50
1, 292060, Control_c, 0, 64, 105
1, 292062, Note_on_c, 0, 41, 52
1, 292074, Control_c, 0, 64, 86
1, 292089, Control_c, 0, 64, 67
1, 292104, Control_c, 0, 64, 27
1, 292119, Control_c, 0, 64, 0
1, 292149, Control_c, 0, 64, 13
1, 292164, Control_c, 0, 64, 58
1, 292178, Control_c, 0, 64, 72
1, 292184, Note_off_c, 0, 62, 62
1, 292190, Note_on_c, 0, 34, 64
1, 292193, Control_c, 0, 64, 87
1, 292208, Control_c, 0, 64, 115
1, 292212, Note_off_c, 0, 50, 63
1, 292214, Note_off_c, 0, 41, 55
1, 292223, Control_c, 0, 64, 127
1, 292336, Note_on_c, 0, 41, 54
1, 292376, Note_off_c, 0, 34, 48
1, 292413, Note_on_c, 0, 58, 63
1, 292421, Note_on_c, 0, 46, 54
1, 292449, Note_off_c, 0, 46, 58
1, 292483, Note_off_c, 0, 58, 59
1, 292518, Note_on_c, 0, 57, 71
1, 292521, Note_off_c, 0, 41, 54
1, 292546, Note_on_c, 0, 45, 49
1, 292555, Poly_aftertouch_c, 0, 56, 127
1, 292557, Note_on_c, 0, 36, 47
1, 292572, Control_c, 0, 64, 101
1, 292587, Control_c, 0, 64, 79
1, 292590, Poly_aftertouch_c, 0, 56, 0
1, 292602, Control_c, 0, 64, 56
1, 292616, Control_c, 0, 64, 0
1, 292661, Control_c, 0, 64, 58
1, 292673, Note_off_c, 0, 36, 56
1, 292674, Note_off_c, 0, 45, 63
1, 292676, Control_c, 0, 64, 73
1, 292679, Note_on_c, 0, 41, 49
1, 292690, Control_c, 0, 64, 96
1, 292702, Note_off_c, 0, 57, 64
1, 292705, Control_c, 0, 64, 127
1, 292794, Note_off_c, 0, 41, 55
1, 292810, Note_on_c, 0, 36, 53
1, 292898, Note_on_c, 0, 60, 74
1, 292906, Note_off_c, 0, 36, 56
1, 292917, Note_on_c, 0, 48, 59
1, 292924, Note_on_c, 0, 41, 55
1, 292954, Note_off_c, 0, 60, 63
1, 292956, Note_off_c, 0, 48, 63
1, 293010, Note_off_c, 0, 41, 60
1, 293036, Note_on_c, 0, 36, 65
1, 293091, Note_off_c, 0, 36, 53
1, 293125, Note_on_c, 0, 41, 61
1, 293158, Note_on_c, 0, 57, 72
1, 293231, Note_off_c, 0, 41, 52
1, 293246, Note_on_c, 0, 55, 76
1, 293269, Control_c, 0, 64, 107
1, 293271, Note_on_c, 0, 43, 64
1, 293291, Control_c, 0, 64, 82
1, 293293, Note_on_c, 0, 36, 53
1, 293302, Note_off_c, 0, 57, 57
1, 293306, Control_c, 0, 64, 61
1, 293320, Control_c, 0, 64, 0
1, 293395, Control_c, 0, 64, 30
1, 293401, Note_off_c, 0, 43, 63
1, 293404, Note_off_c, 0, 36, 52
1, 293410, Control_c, 0, 64, 67
1, 293410, Note_on_c, 0, 40, 62
1, 293424, Control_c, 0, 64, 80
1, 293438, Note_off_c, 0, 55, 63
1, 293439, Control_c, 0, 64, 103
1, 293454, Control_c, 0, 64, 127
1, 293504, Note_off_c, 0, 40, 57
1, 293522, Note_on_c, 0, 36, 56
1, 293627, Note_on_c, 0, 60, 75
1, 293632, Note_off_c, 0, 36, 57
1, 293641, Note_on_c, 0, 40, 54
1, 293649, Note_on_c, 0, 48, 49
1, 293691, Note_off_c, 0, 48, 62
1, 293707, Note_off_c, 0, 60, 59
1, 293728, Note_off_c, 0, 40, 57
1, 293762, Note_on_c, 0, 36, 52
1, 293839, Note_on_c, 0, 40, 71
1, 293854, Note_off_c, 0, 36, 58
1, 293874, Note_off_c, 0, 40, 61
1, 293897, Note_on_c, 0, 58, 74
1, 293923, Note_on_c, 0, 46, 26
1, 293966, Note_off_c, 0, 46, 49
1, 293973, Control_c, 0, 64, 121
1, 293988, Control_c, 0, 64, 83
1, 293997, Note_on_c, 0, 57, 69
1, 294003, Control_c, 0, 64, 61
1, 294018, Control_c, 0, 64, 0
1, 294023, Note_on_c, 0, 41, 52
1, 294132, Note_off_c, 0, 58, 20
1, 294151, Note_on_c, 0, 48, 51
1, 294168, Note_on_c, 0, 45, 47
1, 294168, Note_on_c, 0, 53, 45
1, 294173, Control_c, 0, 64, 41
1, 294175, Note_off_c, 0, 41, 60
1, 294188, Control_c, 0, 64, 69
1, 294202, Control_c, 0, 64, 84
1, 294217, Control_c, 0, 64, 127
1, 294245, Note_off_c, 0, 48, 54
1, 294257, Note_off_c, 0, 53, 55
1, 294262, Note_off_c, 0, 45, 56
1, 294292, Note_on_c, 0, 41, 51
1, 294410, Control_c, 0, 64, 105
1, 294419, Note_on_c, 0, 45, 42
1, 294425, Note_off_c, 0, 41, 55
1, 294425, Control_c, 0, 64, 82
1, 294426, Note_on_c, 0, 48, 35
1, 294428, Note_on_c, 0, 60, 64
1, 294438, Note_on_c, 0, 53, 34
1, 294440, Control_c, 0, 64, 64
1, 294455, Control_c, 0, 64, 0
1, 294474, Note_off_c, 0, 57, 60
1, 294499, Control_c, 0, 64, 59
1, 294513, Control_c, 0, 64, 72
1, 294528, Note_off_c, 0, 53, 52
1, 294528, Control_c, 0, 64, 90
1, 294530, Note_off_c, 0, 45, 49
1, 294543, Control_c, 0, 64, 127
1, 294544, Note_off_c, 0, 48, 41
1, 294548, Note_on_c, 0, 41, 57
1, 294666, Note_off_c, 0, 41, 58
1, 294670, Note_on_c, 0, 53, 53
1, 294676, Note_on_c, 0, 45, 46
1, 294676, Note_on_c, 0, 48, 43
1, 294764, Note_off_c, 0, 60, 65
1, 294765, Note_off_c, 0, 48, 58
1, 294765, Note_off_c, 0, 53, 59
1, 294775, Note_off_c, 0, 45, 55
1, 294794, Note_on_c, 0, 41, 65
1, 294912, Note_on_c, 0, 48, 51
1, 294914, Note_off_c, 0, 41, 58
1, 294918, Note_on_c, 0, 53, 50
1, 294930, Note_on_c, 0, 45, 55
1, 294999, Note_off_c, 0, 48, 58
1, 294999, Note_off_c, 0, 53, 60
1, 295014, Note_off_c, 0, 45, 58
1, 295025, Note_on_c, 0, 41, 66
1, 295127, Note_on_c, 0, 69, 70
1, 295130, Note_on_c, 0, 57, 60
1, 295135, Note_off_c, 0, 41, 59
1, 295144, Note_on_c, 0, 48, 51
1, 295155, Note_on_c, 0, 45, 52
1, 295159, Note_on_c, 0, 53, 41
1, 295163, Note_off_c, 0, 57, 66
1, 295181, Note_off_c, 0, 69, 67
1, 295206, Note_off_c, 0, 53, 61
1, 295225, Note_off_c, 0, 48, 58
1, 295226, Note_off_c, 0, 45, 57
1, 295240, Note_on_c, 0, 41, 73
1, 295362, Note_on_c, 0, 48, 52
1, 295375, Note_on_c, 0, 72, 67
1, 295376, Note_off_c, 0, 41, 59
1, 295377, Note_on_c, 0, 45, 52
1, 295380, Note_on_c, 0, 60, 51
1, 295384, Note_on_c, 0, 53, 50
1, 295402, Note_off_c, 0, 72, 68
1, 295407, Note_off_c, 0, 60, 56
1, 295449, Note_off_c, 0, 53, 58
1, 295456, Note_off_c, 0, 48, 60
1, 295467, Note_off_c, 0, 45, 60
1, 295472, Note_on_c, 0, 77, 85
1, 295484, Note_on_c, 0, 41, 68
1, 295493, Note_on_c, 0, 65, 73
1, 295592, Note_off_c, 0, 65, 62
1, 295598, Note_off_c, 0, 41, 58
1, 295605, Note_on_c, 0, 48, 53
1, 295609, Note_on_c, 0, 45, 55
1, 295614, Note_on_c, 0, 53, 56
1, 295615, Note_off_c, 0, 77, 65
1, 295667, Note_off_c, 0, 53, 61
1, 295675, Note_off_c, 0, 45, 60
1, 295683, Note_off_c, 0, 48, 58
1, 295694, Note_on_c, 0, 41, 70
1, 295818, Note_off_c, 0, 41, 58
1, 295821, Note_on_c, 0, 48, 50
1, 295822, Note_on_c, 0, 81, 89
1, 295826, Note_on_c, 0, 45, 52
1, 295830, Note_on_c, 0, 69, 82
1, 295836, Note_on_c, 0, 53, 51
1, 295876, Note_off_c, 0, 69, 67
1, 295880, Note_off_c, 0, 81, 67
1, 295896, Note_off_c, 0, 53, 57
1, 295913, Note_off_c, 0, 48, 56
1, 295914, Note_off_c, 0, 45, 54
1, 295919, Note_on_c, 0, 41, 74
1, 296024, Note_on_c, 0, 53, 53
1, 296024, Note_off_c, 0, 41, 60
1, 296047, Note_on_c, 0, 45, 58
1, 296049, Note_on_c, 0, 48, 50
1, 296070, Note_on_c, 0, 77, 87
1, 296085, Note_on_c, 0, 65, 63
1, 296098, Note_off_c, 0, 53, 62
1, 296106, Note_off_c, 0, 65, 62
1, 296133, Note_off_c, 0, 77, 58
1, 296134, Note_off_c, 0, 48, 56
1, 296141, Note_off_c, 0, 45, 57
1, 296162, Note_on_c, 0, 76, 92
1, 296167, Note_on_c, 0, 43, 67
1, 296170, Note_on_c, 0, 64, 83
1, 296175, Control_c, 0, 64, 99
1, 296190, Control_c, 0, 64, 75
1, 296205, Control_c, 0, 64, 26
1, 296220, Control_c, 0, 64, 0
1, 296286, Note_on_c, 0, 55, 52
1, 296295, Note_on_c, 0, 46, 60
1, 296295, Note_off_c, 0, 43, 62
1, 296301, Note_on_c, 0, 48, 51
1, 296302, Control_c, 0, 64, 10
1, 296316, Control_c, 0, 64, 66
1, 296331, Control_c, 0, 64, 84
1, 296337, Note_off_c, 0, 64, 62
1, 296346, Control_c, 0, 64, 127
1, 296370, Note_off_c, 0, 55, 55
1, 296373, Note_off_c, 0, 48, 60
1, 296378, Note_on_c, 0, 43, 76
1, 296383, Note_off_c, 0, 46, 58
1, 296516, Note_on_c, 0, 79, 85
1, 296526, Note_off_c, 0, 76, 57
1, 296531, Note_on_c, 0, 67, 71
1, 296534, Note_on_c, 0, 46, 56
1, 296535, Note_on_c, 0, 55, 47
1, 296542, Note_off_c, 0, 43, 61
1, 296544, Note_on_c, 0, 48, 49
1, 296610, Note_off_c, 0, 48, 59
1, 296611, Note_off_c, 0, 55, 54
1, 296621, Note_off_c, 0, 46, 62
1, 296632, Note_on_c, 0, 43, 73
1, 296640, Note_off_c, 0, 67, 62
1, 296647, Note_off_c, 0, 79, 54
1, 296718, Note_on_c, 0, 46, 60
1, 296727, Note_on_c, 0, 48, 56
1, 296735, Note_on_c, 0, 55, 56
1, 296754, Note_off_c, 0, 43, 60
1, 296773, Note_off_c, 0, 48, 62
1, 296780, Note_off_c, 0, 46, 63
1, 296818, Note_off_c, 0, 55, 58
1, 296820, Note_on_c, 0, 76, 83
1, 296829, Note_on_c, 0, 64, 74
1, 296860, Note_off_c, 0, 64, 62
1, 296885, Note_off_c, 0, 76, 61
1, 296953, Control_c, 0, 64, 119
1, 296968, Control_c, 0, 64, 97
1, 296982, Control_c, 0, 64, 81
1, 296997, Control_c, 0, 64, 68
1, 297012, Control_c, 0, 64, 54
1, 297034, Control_c, 0, 64, 0
1, 297085, Note_on_c, 0, 77, 50
1, 297100, Note_on_c, 0, 65, 33
1, 297102, Note_on_c, 0, 53, 32
1, 297112, Note_on_c, 0, 45, 36
1, 297115, Note_on_c, 0, 48, 31
1, 297122, Note_on_c, 0, 57, 40
1, 297243, Control_c, 0, 64, 61
1, 297258, Control_c, 0, 64, 71
1, 297273, Control_c, 0, 64, 82
1, 297285, Note_off_c, 0, 77, 63
1, 297287, Control_c, 0, 64, 100
1, 297302, Control_c, 0, 64, 127
1, 297333, Note_off_c, 0, 65, 51
1, 297620, Note_on_c, 0, 72, 45
1, 297627, Note_on_c, 0, 60, 38
1, 297686, Control_c, 0, 64, 112
1, 297701, Control_c, 0, 64, 100
1, 297716, Control_c, 0, 64, 88
1, 297730, Control_c, 0, 64, 77
1, 297745, Control_c, 0, 64, 68
1, 297760, Control_c, 0, 64, 58
1, 297783, Control_c, 0, 64, 30
1, 297797, Control_c, 0, 64, 0
1, 297946, Control_c, 0, 64, 43
1, 297961, Control_c, 0, 64, 59
1, 297976, Control_c, 0, 64, 66
1, 297991, Control_c, 0, 64, 70
1, 298006, Control_c, 0, 64, 75
1, 298021, Control_c, 0, 64, 80
1, 298035, Control_c, 0, 64, 85
1, 298050, Control_c, 0, 64, 90
1, 298065, Control_c, 0, 64, 98
1, 298079, Control_c, 0, 64, 105
1, 298094, Control_c, 0, 64, 116
1, 298109, Control_c, 0, 64, 127
1, 298546, Note_off_c, 0, 57, 41
1, 298633, Note_off_c, 0, 45, 41
1, 298640, Note_off_c, 0, 53, 61
1, 298671, Note_off_c, 0, 48, 40
1, 298698, Note_off_c, 0, 60, 63
1, 298699, Note_off_c, 0, 72, 57
1, 298976, Note_on_c, 0, 73, 96
1, 298986, Note_on_c, 0, 61, 100
1, 298991, Note_on_c, 0, 53, 92
1, 298991, Control_c, 0, 64, 89
1, 298993, Note_on_c, 0, 46, 88
1, 298993, Note_on_c, 0, 49, 86
1, 299006, Control_c, 0, 64, 64
1, 299021, Control_c, 0, 64, 0
1, 299154, Control_c, 0, 64, 35
1, 299169, Control_c, 0, 64, 54
1, 299184, Control_c, 0, 64, 66
1, 299198, Control_c, 0, 64, 77
1, 299213, Control_c, 0, 64, 104
1, 299228, Control_c, 0, 64, 127
1, 299334, Note_off_c, 0, 61, 60
1, 299362, Note_off_c, 0, 73, 58
1, 299510, Note_on_c, 0, 70, 88
1, 299516, Note_on_c, 0, 58, 83
1, 299523, Note_on_c, 0, 54, 85
1, 299559, Note_off_c, 0, 53, 61
1, 299577, Control_c, 0, 64, 122
1, 299592, Control_c, 0, 64, 86
1, 299607, Control_c, 0, 64, 66
1, 299622, Control_c, 0, 64, 0
1, 300088, Control_c, 0, 64, 12
1, 300103, Control_c, 0, 64, 30
1, 300118, Control_c, 0, 64, 41
1, 300132, Control_c, 0, 64, 49
1, 300147, Control_c, 0, 64, 55
1, 300162, Control_c, 0, 64, 59
1, 300177, Control_c, 0, 64, 61
1, 300192, Control_c, 0, 64, 62
1, 300206, Control_c, 0, 64, 64
1, 300221, Control_c, 0, 64, 65
1, 300236, Control_c, 0, 64, 67
1, 300252, Control_c, 0, 64, 71
1, 300267, Control_c, 0, 64, 76
1, 300282, Control_c, 0, 64, 81
1, 300297, Control_c, 0, 64, 86
1, 300311, Control_c, 0, 64, 91
1, 300326, Control_c, 0, 64, 98
1, 300341, Control_c, 0, 64, 107
1, 300355, Control_c, 0, 64, 127
1, 300400, Control_c, 0, 67, 8
1, 300415, Control_c, 0, 67, 9
1, 300430, Control_c, 0, 67, 10
1, 300444, Control_c, 0, 67, 11
1, 300459, Control_c, 0, 67, 13
1, 300474, Control_c, 0, 67, 14
1, 300489, Control_c, 0, 67, 15
1, 300504, Control_c, 0, 67, 17
1, 300508, Note_off_c, 0, 58, 53
1, 300519, Control_c, 0, 67, 18
1, 300534, Control_c, 0, 67, 19
1, 300543, Note_off_c, 0, 46, 56
1, 300548, Control_c, 0, 67, 20
1, 300563, Control_c, 0, 67, 21
1, 300577, Note_off_c, 0, 49, 38
1, 300578, Control_c, 0, 67, 22
1, 300593, Control_c, 0, 67, 23
1, 300608, Control_c, 0, 67, 24
1, 300620, Note_off_c, 0, 70, 57
1, 300622, Control_c, 0, 67, 25
1, 300637, Control_c, 0, 67, 25
1, 300696, Control_c, 0, 67, 26
1, 300726, Control_c, 0, 67, 26
1, 300740, Control_c, 0, 67, 27
1, 300755, Control_c, 0, 67, 27
1, 300793, Control_c, 0, 67, 28
1, 300867, Control_c, 0, 67, 28
1, 300880, Note_off_c, 0, 54, 25
1, 300941, Control_c, 0, 67, 29
1, 300955, Control_c, 0, 67, 30
1, 300970, Control_c, 0, 67, 32
1, 300985, Control_c, 0, 67, 33
1, 301000, Control_c, 0, 67, 34
1, 301029, Control_c, 0, 67, 34
1, 301044, Control_c, 0, 67, 35
1, 301060, Control_c, 0, 67, 37
1, 301075, Control_c, 0, 64, 118
1, 301075, Control_c, 0, 67, 38
1, 301090, Control_c, 0, 64, 114
1, 301090, Control_c, 0, 67, 38
1, 301104, Control_c, 0, 64, 111
1, 301104, Control_c, 0, 67, 39
1, 301119, Control_c, 0, 64, 106
1, 301119, Control_c, 0, 67, 40
1, 301134, Control_c, 0, 64, 102
1, 301134, Control_c, 0, 67, 41
1, 301149, Control_c, 0, 64, 98
1, 301149, Control_c, 0, 67, 43
1, 301164, Control_c, 0, 64, 95
1, 301164, Control_c, 0, 67, 44
1, 301178, Control_c, 0, 64, 93
1, 301178, Control_c, 0, 67, 44
1, 301193, Control_c, 0, 64, 91
1, 301193, Control_c, 0, 67, 45
1, 301208, Control_c, 0, 64, 90
1, 301223, Control_c, 0, 64, 88
1, 301238, Control_c, 0, 64, 87
1, 301252, Control_c, 0, 64, 85
1, 301252, Control_c, 0, 67, 46
1, 301267, Control_c, 0, 64, 84
1, 301282, Control_c, 0, 64, 82
1, 301297, Control_c, 0, 64, 82
1, 301312, Control_c, 0, 64, 80
1, 301327, Control_c, 0, 64, 79
1, 301342, Control_c, 0, 64, 77
1, 301357, Control_c, 0, 64, 75
1, 301357, Control_c, 0, 67, 46
1, 301371, Control_c, 0, 64, 74
1, 301386, Control_c, 0, 64, 72
1, 301401, Control_c, 0, 64, 69
1, 301416, Control_c, 0, 64, 66
1, 301431, Control_c, 0, 64, 64
1, 301431, Control_c, 0, 67, 47
1, 301445, Control_c, 0, 64, 61
1, 301445, Control_c, 0, 67, 48
1, 301460, Control_c, 0, 64, 60
1, 301460, Control_c, 0, 67, 49
1, 301475, Control_c, 0, 64, 58
1, 301475, Control_c, 0, 67, 50
1, 301489, Note_on_c, 0, 68, 53
1, 301490, Control_c, 0, 64, 55
1, 301504, Control_c, 0, 64, 52
1, 301509, Note_on_c, 0, 56, 38
1, 301510, Note_on_c, 0, 53, 37
1, 301526, Note_on_c, 0, 48, 40
1, 301527, Control_c, 0, 64, 45
1, 301527, Control_c, 0, 67, 50
1, 301541, Control_c, 0, 64, 38
1, 301556, Control_c, 0, 64, 27
1, 301571, Control_c, 0, 64, 0
1, 301869, Control_c, 0, 67, 51
1, 301943, Control_c, 0, 67, 51
1, 301958, Control_c, 0, 67, 52
1, 301973, Control_c, 0, 67, 53
1, 301988, Control_c, 0, 67, 55
1, 302002, Control_c, 0, 67, 58
1, 302017, Control_c, 0, 67, 59
1, 302032, Control_c, 0, 67, 60
1, 302047, Control_c, 0, 67, 61
1, 302062, Control_c, 0, 67, 63
1, 302076, Control_c, 0, 67, 65
1, 302091, Control_c, 0, 67, 67
1, 302106, Control_c, 0, 67, 67
1, 302135, Control_c, 0, 67, 68
1, 302180, Control_c, 0, 67, 68
1, 302224, Control_c, 0, 67, 69
1, 302239, Control_c, 0, 67, 69
1, 302254, Control_c, 0, 64, 10
1, 302254, Control_c, 0, 67, 71
1, 302276, Control_c, 0, 64, 27
1, 302276, Control_c, 0, 67, 73
1, 302291, Control_c, 0, 64, 36
1, 302291, Control_c, 0, 67, 75
1, 302306, Control_c, 0, 64, 43
1, 302306, Control_c, 0, 67, 76
1, 302321, Control_c, 0, 64, 49
1, 302321, Control_c, 0, 67, 76
1, 302335, Control_c, 0, 64, 54
1, 302335, Control_c, 0, 67, 77
1, 302350, Control_c, 0, 64, 59
1, 302350, Control_c, 0, 67, 77
1, 302365, Control_c, 0, 64, 62
1, 302380, Control_c, 0, 64, 64
1, 302395, Control_c, 0, 64, 67
1, 302409, Control_c, 0, 64, 71
1, 302424, Control_c, 0, 64, 77
1, 302439, Control_c, 0, 64, 85
1, 302454, Control_c, 0, 64, 94
1, 302469, Control_c, 0, 64, 103
1, 302469, Control_c, 0, 67, 77
1, 302483, Control_c, 0, 64, 113
1, 302498, Control_c, 0, 64, 127
1, 302854, Note_on_c, 0, 67, 44
1, 302854, Control_c, 0, 64, 117
1, 302868, Control_c, 0, 64, 100
1, 302883, Control_c, 0, 64, 91
1, 302898, Control_c, 0, 64, 87
1, 302913, Control_c, 0, 64, 88
1, 302928, Control_c, 0, 64, 93
1, 302928, Control_c, 0, 67, 77
1, 302938, Note_off_c, 0, 68, 55
1, 302942, Control_c, 0, 64, 102
1, 302942, Control_c, 0, 67, 78
1, 302957, Control_c, 0, 64, 125
1, 302972, Control_c, 0, 64, 127
1, 302972, Control_c, 0, 67, 78
1, 302987, Control_c, 0, 67, 81
1, 303002, Control_c, 0, 67, 86
1, 303024, Control_c, 0, 67, 93
1, 303039, Control_c, 0, 67, 101
1, 303054, Control_c, 0, 67, 107
1, 303069, Control_c, 0, 67, 114
1, 303079, Note_off_c, 0, 48, 40
1, 303083, Control_c, 0, 67, 120
1, 303098, Control_c, 0, 67, 127
1, 303126, Note_off_c, 0, 56, 34
1, 303205, Note_off_c, 0, 67, 58
1, 303236, Note_on_c, 0, 65, 45
1, 303284, Note_off_c, 0, 53, 50
1, 303380, Note_off_c, 0, 65, 53
1, 303435, Note_on_c, 0, 66, 49
1, 303468, Note_on_c, 0, 58, 36
1, 303472, Note_on_c, 0, 52, 42
1, 303479, Note_on_c, 0, 48, 39
1, 303499, Control_c, 0, 64, 112
1, 303514, Control_c, 0, 64, 94
1, 303529, Control_c, 0, 64, 80
1, 303544, Control_c, 0, 64, 67
1, 303559, Control_c, 0, 64, 47
1, 303568, Note_off_c, 0, 66, 58
1, 303573, Control_c, 0, 64, 0
1, 303588, Control_c, 0, 64, 28
1, 303599, Note_on_c, 0, 67, 40
1, 303603, Control_c, 0, 64, 55
1, 303618, Control_c, 0, 64, 66
1, 303633, Control_c, 0, 64, 73
1, 303636, Note_off_c, 0, 67, 53
1, 303647, Control_c, 0, 64, 82
1, 303661, Note_on_c, 0, 68, 50
1, 303662, Control_c, 0, 64, 90
1, 303677, Control_c, 0, 64, 96
1, 303691, Control_c, 0, 64, 97
1, 303695, Note_off_c, 0, 68, 62
1, 303712, Note_on_c, 0, 67, 56
1, 303756, Note_off_c, 0, 67, 58
1, 303773, Control_c, 0, 64, 96
1, 303788, Note_on_c, 0, 68, 51
1, 303788, Control_c, 0, 64, 94
1, 303803, Control_c, 0, 64, 88
1, 303818, Control_c, 0, 64, 78
1, 303819, Note_off_c, 0, 68, 52
1, 303827, Note_on_c, 0, 67, 52
1, 303833, Control_c, 0, 64, 67
1, 303847, Control_c, 0, 64, 55
1, 303862, Control_c, 0, 64, 41
1, 303867, Note_off_c, 0, 67, 61
1, 303877, Control_c, 0, 64, 50
1, 303881, Note_on_c, 0, 68, 50
1, 303892, Control_c, 0, 64, 62
1, 303906, Control_c, 0, 64, 68
1, 303917, Note_off_c, 0, 68, 62
1, 303921, Control_c, 0, 64, 75
1, 303936, Control_c, 0, 64, 85
1, 303938, Note_on_c, 0, 67, 60
1, 303951, Control_c, 0, 64, 95
1, 303966, Control_c, 0, 64, 103
1, 303971, Note_off_c, 0, 67, 61
1, 303980, Control_c, 0, 64, 106
1, 303995, Control_c, 0, 64, 107
1, 304001, Note_on_c, 0, 68, 54
1, 304010, Control_c, 0, 64, 108
1, 304025, Control_c, 0, 64, 109
1, 304036, Note_off_c, 0, 68, 49
1, 304048, Note_on_c, 0, 67, 57
1, 304079, Note_off_c, 0, 67, 55
1, 304096, Note_on_c, 0, 68, 43
1, 304099, Control_c, 0, 64, 105
1, 304114, Control_c, 0, 64, 97
1, 304126, Note_off_c, 0, 68, 55
1, 304129, Control_c, 0, 64, 87
1, 304144, Control_c, 0, 64, 78
1, 304153, Note_on_c, 0, 67, 52
1, 304159, Control_c, 0, 64, 72
1, 304184, Note_off_c, 0, 67, 55
1, 304188, Control_c, 0, 64, 75
1, 304203, Control_c, 0, 64, 81
1, 304206, Note_on_c, 0, 68, 51
1, 304217, Control_c, 0, 64, 88
1, 304232, Control_c, 0, 64, 96
1, 304245, Note_off_c, 0, 68, 60
1, 304248, Control_c, 0, 64, 105
1, 304263, Control_c, 0, 64, 112
1, 304264, Note_on_c, 0, 67, 55
1, 304278, Control_c, 0, 64, 118
1, 304293, Note_off_c, 0, 67, 54
1, 304293, Control_c, 0, 64, 127
1, 304317, Note_on_c, 0, 68, 51
1, 304351, Note_off_c, 0, 68, 61
1, 304379, Note_on_c, 0, 67, 53
1, 304397, Note_off_c, 0, 67, 62
1, 304421, Note_off_c, 0, 48, 40
1, 304427, Note_on_c, 0, 68, 53
1, 304457, Note_off_c, 0, 52, 60
1, 304458, Note_off_c, 0, 68, 60
1, 304469, Note_on_c, 0, 67, 61
1, 304499, Note_off_c, 0, 58, 35
1, 304521, Note_off_c, 0, 67, 58
1, 304546, Note_on_c, 0, 68, 54
1, 304583, Note_off_c, 0, 68, 57
1, 304598, Note_on_c, 0, 67, 54
1, 304636, Note_off_c, 0, 67, 61
1, 304646, Note_on_c, 0, 68, 49
1, 304674, Note_off_c, 0, 68, 63
1, 304713, Note_on_c, 0, 67, 40
1, 304739, Note_off_c, 0, 67, 57
1, 304746, Note_on_c, 0, 68, 63
1, 304784, Note_off_c, 0, 68, 56
1, 304815, Note_on_c, 0, 67, 62
1, 304878, Note_off_c, 0, 67, 52
1, 304960, Note_on_c, 0, 73, 66
1, 304981, Control_c, 0, 64, 112
1, 304996, Control_c, 0, 64, 87
1, 305011, Control_c, 0, 64, 63
1, 305026, Control_c, 0, 64, 0
1, 305077, Note_on_c, 0, 72, 57
1, 305086, Control_c, 0, 64, 58
1, 305101, Control_c, 0, 64, 76
1, 305108, Note_off_c, 0, 72, 63
1, 305116, Control_c, 0, 64, 103
1, 305130, Control_c, 0, 64, 127
1, 305161, Note_off_c, 0, 73, 60
1, 305177, Note_on_c, 0, 72, 69
1, 305210, Note_off_c, 0, 72, 57
1, 305223, Note_on_c, 0, 73, 54
1, 305271, Note_off_c, 0, 73, 59
1, 305296, Note_on_c, 0, 72, 57
1, 305316, Note_off_c, 0, 72, 60
1, 305336, Note_on_c, 0, 73, 57
1, 305376, Note_off_c, 0, 73, 60
1, 305387, Note_on_c, 0, 72, 64
1, 305427, Note_off_c, 0, 72, 58
1, 305448, Note_on_c, 0, 73, 53
1, 305479, Note_off_c, 0, 73, 55
1, 305512, Note_on_c, 0, 72, 56
1, 305539, Note_off_c, 0, 72, 55
1, 305560, Note_on_c, 0, 73, 61
1, 305593, Note_off_c, 0, 73, 63
1, 305620, Note_on_c, 0, 72, 59
1, 305657, Note_off_c, 0, 72, 60
1, 305664, Note_on_c, 0, 73, 63
1, 305705, Note_off_c, 0, 73, 52
1, 305738, Note_on_c, 0, 72, 62
1, 305770, Note_off_c, 0, 72, 60
1, 305804, Note_on_c, 0, 73, 44
1, 305833, Note_off_c, 0, 73, 54
1, 305863, Note_on_c, 0, 72, 51
1, 305888, Note_off_c, 0, 72, 57
1, 305918, Note_on_c, 0, 73, 56
1, 305952, Note_off_c, 0, 73, 50
1, 305964, Note_on_c, 0, 72, 62
1, 306003, Note_off_c, 0, 72, 59
1, 306028, Note_on_c, 0, 73, 52
1, 306062, Note_off_c, 0, 73, 53
1, 306090, Note_on_c, 0, 72, 52
1, 306119, Note_off_c, 0, 72, 53
1, 306132, Note_on_c, 0, 73, 57
1, 306177, Note_off_c, 0, 73, 55
1, 306207, Note_on_c, 0, 72, 54
1, 306258, Note_off_c, 0, 72, 44
1, 306295, Note_on_c, 0, 71, 56
1, 306351, Note_off_c, 0, 71, 56
1, 306382, Note_on_c, 0, 72, 63
1, 306409, Note_off_c, 0, 72, 66
1, 306506, Note_on_c, 0, 85, 68
1, 306524, Control_c, 0, 64, 100
1, 306539, Control_c, 0, 64, 76
1, 306554, Control_c, 0, 64, 47
1, 306568, Control_c, 0, 64, 0
1, 306612, Control_c, 0, 64, 35
1, 306627, Control_c, 0, 64, 67
1, 306644, Control_c, 0, 64, 84
1, 306646, Note_off_c, 0, 85, 62
1, 306659, Control_c, 0, 64, 127
1, 306662, Note_on_c, 0, 84, 50
1, 306690, Note_off_c, 0, 84, 56
1, 306698, Note_on_c, 0, 85, 48
1, 306737, Note_off_c, 0, 85, 58
1, 306766, Note_on_c, 0, 84, 59
1, 306794, Note_off_c, 0, 84, 57
1, 306824, Note_on_c, 0, 85, 54
1, 306844, Note_off_c, 0, 85, 61
1, 306867, Note_on_c, 0, 84, 66
1, 306904, Note_off_c, 0, 84, 57
1, 306918, Note_on_c, 0, 85, 67
1, 306956, Note_off_c, 0, 85, 55
1, 306983, Note_on_c, 0, 84, 60
1, 307021, Note_off_c, 0, 84, 60
1, 307047, Note_on_c, 0, 85, 50
1, 307070, Note_off_c, 0, 85, 60
1, 307095, Note_on_c, 0, 84, 58
1, 307133, Note_off_c, 0, 84, 61
1, 307145, Note_on_c, 0, 85, 65
1, 307178, Note_off_c, 0, 85, 59
1, 307207, Note_on_c, 0, 84, 64
1, 307248, Note_off_c, 0, 84, 59
1, 307276, Note_on_c, 0, 85, 55
1, 307298, Note_off_c, 0, 85, 58
1, 307327, Note_on_c, 0, 84, 52
1, 307364, Note_off_c, 0, 84, 62
1, 307378, Note_on_c, 0, 85, 64
1, 307411, Note_off_c, 0, 85, 63
1, 307444, Note_on_c, 0, 84, 57
1, 307471, Note_off_c, 0, 84, 58
1, 307495, Note_on_c, 0, 85, 61
1, 307536, Note_off_c, 0, 85, 65
1, 307560, Note_on_c, 0, 84, 57
1, 307587, Note_off_c, 0, 84, 55
1, 307614, Note_on_c, 0, 85, 60
1, 307652, Note_off_c, 0, 85, 59
1, 307667, Note_on_c, 0, 84, 58
1, 307754, Note_off_c, 0, 84, 59
1, 307772, Note_on_c, 0, 83, 55
1, 307861, Note_off_c, 0, 83, 61
1, 307885, Note_on_c, 0, 84, 48
1, 307995, Note_off_c, 0, 84, 59
1, 308025, Note_on_c, 0, 85, 51
1, 308124, Note_off_c, 0, 85, 63
1, 308146, Note_on_c, 0, 84, 52
1, 308252, Note_off_c, 0, 84, 59
1, 308270, Note_on_c, 0, 82, 58
1, 308413, Note_on_c, 0, 80, 57
1, 308479, Note_off_c, 0, 82, 44
1, 308505, Note_off_c, 0, 80, 60
1, 308527, Note_on_c, 0, 79, 53
1, 308562, Control_c, 0, 64, 125
1, 308578, Control_c, 0, 64, 118
1, 308593, Control_c, 0, 64, 113
1, 308608, Control_c, 0, 64, 109
1, 308622, Control_c, 0, 64, 104
1, 308637, Control_c, 0, 64, 100
1, 308638, Note_off_c, 0, 79, 57
1, 308648, Note_on_c, 0, 78, 56
1, 308652, Control_c, 0, 64, 95
1, 308667, Control_c, 0, 64, 90
1, 308682, Control_c, 0, 64, 84
1, 308696, Control_c, 0, 64, 78
1, 308711, Control_c, 0, 64, 73
1, 308726, Control_c, 0, 64, 68
1, 308741, Control_c, 0, 64, 64
1, 308756, Control_c, 0, 64, 60
1, 308770, Control_c, 0, 64, 55
1, 308784, Note_on_c, 0, 77, 50
1, 308785, Control_c, 0, 64, 50
1, 308800, Control_c, 0, 64, 48
1, 308860, Control_c, 0, 64, 47
1, 308874, Control_c, 0, 64, 45
1, 308876, Note_off_c, 0, 77, 61
1, 308879, Note_off_c, 0, 78, 42
1, 308889, Control_c, 0, 64, 45
1, 308909, Note_on_c, 0, 76, 50
1, 308934, Control_c, 0, 64, 44
1, 308949, Control_c, 0, 64, 43
1, 308963, Control_c, 0, 64, 41
1, 308978, Control_c, 0, 64, 41
1, 309029, Note_off_c, 0, 76, 59
1, 309032, Note_on_c, 0, 75, 51
1, 309161, Note_on_c, 0, 73, 51
1, 309250, Note_off_c, 0, 75, 38
1, 309263, Note_off_c, 0, 73, 61
1, 309271, Note_on_c, 0, 72, 52
1, 309355, Control_c, 0, 64, 41
1, 309383, Note_off_c, 0, 72, 56
1, 309390, Note_on_c, 0, 70, 55
1, 309516, Note_on_c, 0, 68, 53
1, 309548, Control_c, 0, 64, 42
1, 309589, Note_off_c, 0, 70, 35
1, 309592, Control_c, 0, 64, 42
1, 309613, Note_off_c, 0, 68, 61
1, 309637, Note_on_c, 0, 67, 51
1, 309760, Note_off_c, 0, 67, 57
1, 309762, Note_on_c, 0, 66, 48
1, 309892, Note_on_c, 0, 65, 52
1, 309977, Note_off_c, 0, 66, 37
1, 309980, Note_off_c, 0, 65, 58
1, 310009, Note_on_c, 0, 64, 47
1, 310115, Note_off_c, 0, 64, 59
1, 310123, Note_on_c, 0, 63, 50
1, 310178, Control_c, 0, 64, 43
1, 310254, Note_on_c, 0, 61, 52
1, 310267, Control_c, 0, 64, 43
1, 310314, Note_off_c, 0, 63, 58
1, 310341, Control_c, 0, 64, 44
1, 310353, Note_off_c, 0, 61, 61
1, 310369, Note_on_c, 0, 60, 48
1, 310473, Note_off_c, 0, 60, 59
1, 310483, Note_on_c, 0, 58, 53
1, 310615, Note_on_c, 0, 56, 52
1, 310690, Note_off_c, 0, 58, 41
1, 310712, Note_off_c, 0, 56, 60
1, 310729, Note_on_c, 0, 55, 48
1, 310845, Note_off_c, 0, 55, 58
1, 310848, Note_on_c, 0, 54, 52
1, 310970, Note_on_c, 0, 53, 51
1, 311048, Note_off_c, 0, 54, 43
1, 311059, Note_off_c, 0, 53, 64
1, 311086, Note_on_c, 0, 52, 47
1, 311179, Control_c, 0, 64, 43
1, 311195, Note_off_c, 0, 52, 58
1, 311208, Control_c, 0, 64, 43
1, 311209, Note_on_c, 0, 51, 45
1, 311344, Note_on_c, 0, 49, 54
1, 311364, Control_c, 0, 64, 42
1, 311420, Note_off_c, 0, 51, 44
1, 311444, Note_off_c, 0, 49, 60
1, 311462, Note_on_c, 0, 48, 49
1, 311513, Control_c, 0, 64, 42
1, 311527, Control_c, 0, 64, 41
1, 311542, Control_c, 0, 64, 41
1, 311579, Note_off_c, 0, 48, 54
1, 311587, Note_on_c, 0, 46, 48
1, 311602, Control_c, 0, 64, 40
1, 311617, Control_c, 0, 64, 40
1, 311632, Control_c, 0, 64, 39
1, 311647, Control_c, 0, 64, 39
1, 311710, Note_on_c, 0, 44, 52
1, 311781, Note_off_c, 0, 46, 48
1, 311795, Control_c, 0, 64, 38
1, 311813, Note_off_c, 0, 44, 58
1, 311825, Note_on_c, 0, 43, 62
1, 311954, Note_on_c, 0, 42, 53
1, 311957, Note_off_c, 0, 43, 55
1, 312078, Note_on_c, 0, 41, 53
1, 312161, Note_off_c, 0, 42, 56
1, 312176, Note_off_c, 0, 41, 59
1, 312210, Note_on_c, 0, 40, 50
1, 312329, Note_off_c, 0, 40, 52
1, 312341, Note_on_c, 0, 39, 41
1, 312458, Note_on_c, 0, 37, 41
1, 312502, Note_off_c, 0, 39, 30
1, 312587, Note_on_c, 0, 36, 46
1, 312662, Note_off_c, 0, 37, 35
1, 312720, Note_on_c, 0, 34, 49
1, 312780, Note_off_c, 0, 36, 31
1, 312788, Control_c, 0, 64, 39
1, 312833, Control_c, 0, 64, 39
1, 312864, Note_on_c, 0, 32, 62
1, 312907, Control_c, 0, 64, 40
1, 312908, Note_off_c, 0, 34, 55
1, 312980, Control_c, 0, 64, 41
1, 312981, Note_on_c, 0, 31, 66
1, 312995, Control_c, 0, 64, 42
1, 313010, Control_c, 0, 64, 42
1, 313012, Note_off_c, 0, 32, 57
1, 313056, Control_c, 0, 64, 43
1, 313070, Control_c, 0, 64, 44
1, 313084, Control_c, 0, 64, 44
1, 313084, Control_c, 0, 67, 125
1, 313099, Control_c, 0, 64, 45
1, 313099, Control_c, 0, 67, 124
1, 313106, Note_on_c, 0, 32, 73
1, 313114, Control_c, 0, 64, 45
1, 313114, Control_c, 0, 67, 122
1, 313129, Control_c, 0, 67, 120
1, 313144, Control_c, 0, 64, 46
1, 313144, Control_c, 0, 67, 118
1, 313158, Control_c, 0, 64, 46
1, 313158, Control_c, 0, 67, 116
1, 313173, Control_c, 0, 64, 47
1, 313173, Control_c, 0, 67, 112
1, 313176, Note_off_c, 0, 31, 56
1, 313188, Control_c, 0, 64, 48
1, 313188, Control_c, 0, 67, 106
1, 313203, Control_c, 0, 67, 98
1, 313218, Control_c, 0, 67, 88
1, 313232, Note_on_c, 0, 34, 72
1, 313233, Control_c, 0, 67, 76
1, 313247, Control_c, 0, 67, 62
1, 313262, Control_c, 0, 67, 44
1, 313277, Control_c, 0, 64, 49
1, 313277, Control_c, 0, 67, 23
1, 313292, Control_c, 0, 64, 50
1, 313292, Control_c, 0, 67, 0
1, 313307, Control_c, 0, 64, 51
1, 313329, Note_off_c, 0, 32, 52
1, 313351, Control_c, 0, 64, 52
1, 313364, Note_on_c, 0, 36, 65
1, 313366, Control_c, 0, 64, 53
1, 313367, Note_off_c, 0, 34, 60
1, 313381, Control_c, 0, 64, 54
1, 313396, Control_c, 0, 64, 55
1, 313490, Note_off_c, 0, 36, 56
1, 313492, Note_on_c, 0, 35, 63
1, 313522, Control_c, 0, 64, 54
1, 313581, Control_c, 0, 64, 54
1, 313596, Control_c, 0, 64, 53
1, 313610, Control_c, 0, 64, 52
1, 313625, Control_c, 0, 64, 52
1, 313638, Note_off_c, 0, 35, 62
1, 313640, Control_c, 0, 64, 51
1, 313653, Note_on_c, 0, 36, 53
1, 313655, Control_c, 0, 64, 51
1, 313670, Control_c, 0, 64, 48
1, 313684, Control_c, 0, 64, 46
1, 313699, Control_c, 0, 64, 44
1, 313714, Control_c, 0, 64, 43
1, 313729, Control_c, 0, 64, 39
1, 313744, Control_c, 0, 64, 33
1, 313758, Note_off_c, 0, 36, 59
1, 313758, Control_c, 0, 64, 26
1, 313773, Control_c, 0, 64, 24
1, 313777, Note_on_c, 0, 35, 55
1, 313788, Control_c, 0, 64, 22
1, 313802, Control_c, 0, 64, 17
1, 313817, Control_c, 0, 64, 0
1, 313862, Note_off_c, 0, 35, 57
1, 313886, Note_on_c, 0, 36, 60
1, 314040, Note_on_c, 0, 53, 97
1, 314044, Note_on_c, 0, 29, 84
1, 314050, Note_off_c, 0, 36, 60
1, 314055, Control_c, 0, 64, 58
1, 314070, Control_c, 0, 64, 80
1, 314085, Control_c, 0, 64, 127
1, 314097, Note_on_c, 0, 36, 64
1, 314107, Note_on_c, 0, 48, 66
1, 314160, Note_off_c, 0, 53, 59
1, 314169, Note_off_c, 0, 48, 57
1, 314172, Note_off_c, 0, 36, 59
1, 314175, Note_on_c, 0, 41, 71
1, 314177, Note_on_c, 0, 44, 74
1, 314192, Note_off_c, 0, 29, 56
1, 314230, Note_off_c, 0, 44, 58
1, 314234, Note_on_c, 0, 48, 51
1, 314236, Note_on_c, 0, 36, 68
1, 314254, Note_off_c, 0, 41, 60
1, 314309, Note_on_c, 0, 53, 80
1, 314313, Note_off_c, 0, 48, 63
1, 314315, Control_c, 0, 64, 107
1, 314315, Note_off_c, 0, 36, 57
1, 314316, Note_on_c, 0, 29, 76
1, 314330, Control_c, 0, 64, 92
1, 314337, Note_off_c, 0, 53, 59
1, 314344, Control_c, 0, 64, 81
1, 314359, Control_c, 0, 64, 71
1, 314368, Note_on_c, 0, 48, 64
1, 314374, Control_c, 0, 64, 62
1, 314384, Note_on_c, 0, 36, 70
1, 314384, Note_off_c, 0, 29, 62
1, 314389, Control_c, 0, 64, 48
1, 314404, Control_c, 0, 64, 27
1, 314419, Control_c, 0, 64, 0
1, 314437, Note_off_c, 0, 48, 62
1, 314438, Note_on_c, 0, 56, 86
1, 314444, Note_off_c, 0, 36, 58
1, 314464, Note_on_c, 0, 29, 71
1, 314490, Note_off_c, 0, 56, 63
1, 314496, Note_on_c, 0, 48, 66
1, 314512, Note_off_c, 0, 29, 62
1, 314518, Note_on_c, 0, 36, 69
1, 314571, Note_on_c, 0, 55, 82
1, 314572, Note_off_c, 0, 36, 57
1, 314577, Note_off_c, 0, 48, 62
1, 314583, Note_on_c, 0, 29, 78
1, 314621, Note_off_c, 0, 55, 61
1, 314628, Note_off_c, 0, 29, 59
1, 314639, Note_on_c, 0, 48, 68
1, 314640, Note_on_c, 0, 36, 71
1, 314690, Note_off_c, 0, 36, 58
1, 314698, Note_on_c, 0, 53, 86
1, 314705, Note_off_c, 0, 48, 62
1, 314715, Note_on_c, 0, 29, 73
1, 314729, Note_off_c, 0, 53, 68
1, 314749, Note_off_c, 0, 29, 62
1, 314759, Note_on_c, 0, 36, 76
1, 314765, Note_on_c, 0, 48, 69
1, 314804, Control_c, 0, 64, 49
1, 314816, Note_off_c, 0, 36, 56
1, 314817, Note_on_c, 0, 29, 84
1, 314819, Control_c, 0, 64, 69
1, 314820, Note_on_c, 0, 53, 90
1, 314834, Control_c, 0, 64, 87
1, 314836, Note_off_c, 0, 48, 61
1, 314848, Control_c, 0, 64, 127
1, 314871, Note_on_c, 0, 36, 71
1, 314892, Note_on_c, 0, 48, 65
1, 314919, Note_off_c, 0, 53, 65
1, 314926, Note_off_c, 0, 48, 61
1, 314933, Note_off_c, 0, 36, 60
1, 314944, Note_on_c, 0, 41, 80
1, 314953, Note_on_c, 0, 44, 81
1, 314971, Note_off_c, 0, 29, 33
1, 315006, Note_off_c, 0, 44, 59
1, 315012, Note_on_c, 0, 36, 75
1, 315017, Note_off_c, 0, 41, 60
1, 315025, Note_on_c, 0, 48, 77
1, 315063, Control_c, 0, 64, 105
1, 315069, Note_off_c, 0, 36, 60
1, 315073, Note_off_c, 0, 48, 65
1, 315074, Note_on_c, 0, 29, 84
1, 315078, Note_on_c, 0, 53, 80
1, 315078, Control_c, 0, 64, 92
1, 315093, Control_c, 0, 64, 80
1, 315108, Note_off_c, 0, 53, 69
1, 315108, Control_c, 0, 64, 72
1, 315123, Control_c, 0, 64, 64
1, 315137, Control_c, 0, 64, 57
1, 315139, Note_on_c, 0, 48, 76
1, 315140, Note_on_c, 0, 36, 82
1, 315142, Note_off_c, 0, 29, 62
1, 315152, Control_c, 0, 64, 50
1, 315167, Control_c, 0, 64, 39
1, 315182, Control_c, 0, 64, 0
1, 315193, Note_on_c, 0, 56, 93
1, 315197, Note_off_c, 0, 48, 63
1, 315201, Note_on_c, 0, 29, 78
1, 315203, Note_off_c, 0, 36, 60
1, 315253, Note_off_c, 0, 56, 64
1, 315258, Note_on_c, 0, 48, 68
1, 315260, Note_on_c, 0, 36, 73
1, 315265, Note_off_c, 0, 29, 62
1, 315271, Control_c, 0, 64, 38
1, 315286, Control_c, 0, 64, 66
1, 315301, Control_c, 0, 64, 76
1, 315316, Control_c, 0, 64, 90
1, 315319, Note_off_c, 0, 36, 58
1, 315322, Note_on_c, 0, 29, 79
1, 315327, Note_on_c, 0, 55, 89
1, 315331, Control_c, 0, 64, 100
1, 315342, Note_off_c, 0, 48, 62
1, 315346, Control_c, 0, 64, 103
1, 315379, Note_off_c, 0, 55, 62
1, 315384, Note_on_c, 0, 36, 82
1, 315390, Control_c, 0, 64, 103
1, 315391, Note_off_c, 0, 29, 62
1, 315405, Control_c, 0, 64, 109
1, 315411, Note_on_c, 0, 48, 73
1, 315420, Control_c, 0, 64, 127
1, 315443, Note_off_c, 0, 36, 60
1, 315446, Note_on_c, 0, 29, 76
1, 315453, Note_on_c, 0, 53, 89
1, 315468, Note_on_c, 0, 33, 22
1, 315468, Note_off_c, 0, 48, 61
1, 315483, Note_off_c, 0, 53, 66
1, 315495, Control_c, 0, 64, 97
1, 315496, Note_on_c, 0, 36, 75
1, 315501, Note_off_c, 0, 29, 61
1, 315510, Control_c, 0, 64, 65
1, 315514, Note_off_c, 0, 33, 47
1, 315525, Control_c, 0, 64, 0
1, 315546, Note_off_c, 0, 36, 54
1, 315555, Note_on_c, 0, 29, 89
1, 315558, Note_on_c, 0, 61, 102
1, 315584, Control_c, 0, 64, 58
1, 315598, Control_c, 0, 64, 98
1, 315613, Control_c, 0, 64, 127
1, 315615, Note_on_c, 0, 37, 87
1, 315619, Note_on_c, 0, 56, 91
1, 315655, Note_off_c, 0, 61, 58
1, 315659, Note_on_c, 0, 33, 22
1, 315662, Note_off_c, 0, 29, 58
1, 315676, Note_on_c, 0, 53, 87
1, 315677, Note_off_c, 0, 56, 63
1, 315680, Note_on_c, 0, 41, 87
1, 315690, Note_off_c, 0, 37, 62
1, 315736, Note_off_c, 0, 41, 59
1, 315737, Note_on_c, 0, 56, 70
1, 315741, Note_off_c, 0, 53, 63
1, 315744, Note_on_c, 0, 37, 63
1, 315782, Note_off_c, 0, 33, 0
1, 315788, Note_on_c, 0, 29, 83
1, 315791, Note_off_c, 0, 56, 64
1, 315794, Note_on_c, 0, 61, 84
1, 315797, Note_off_c, 0, 37, 62
1, 315827, Poly_aftertouch_c, 0, 33, 0
1, 315828, Note_off_c, 0, 61, 51
1, 315858, Note_on_c, 0, 37, 80
1, 315860, Note_off_c, 0, 29, 59
1, 315862, Note_on_c, 0, 56, 68
1, 315865, Poly_aftertouch_c, 0, 33, 127
1, 315915, Note_off_c, 0, 56, 60
1, 315916, Note_off_c, 0, 37, 61
1, 315917, Control_c, 0, 64, 101
1, 315921, Note_on_c, 0, 29, 76
1, 315922, Note_on_c, 0, 65, 83
1, 315932, Control_c, 0, 64, 75
1, 315933, Note_on_c, 0, 64, 72
1, 315947, Control_c, 0, 64, 0
1, 315957, Note_off_c, 0, 64, 56
1, 315970, Note_on_c, 0, 56, 79
1, 315973, Note_off_c, 0, 65, 60
1, 315978, Note_on_c, 0, 37, 78
1, 315978, Note_off_c, 0, 29, 60
1, 315987, Poly_aftertouch_c, 0, 33, 0
1, 316036, Note_off_c, 0, 37, 62
1, 316039, Note_on_c, 0, 29, 79
1, 316046, Note_on_c, 0, 63, 82
1, 316058, Note_off_c, 0, 56, 61
1, 316096, Note_on_c, 0, 37, 79
1, 316100, Note_off_c, 0, 63, 63
1, 316103, Note_off_c, 0, 29, 63
1, 316106, Note_on_c, 0, 56, 75
1, 316148, Note_on_c, 0, 33, 24
1, 316150, Note_off_c, 0, 37, 61
1, 316161, Note_on_c, 0, 29, 76
1, 316163, Note_on_c, 0, 61, 86
1, 316171, Note_off_c, 0, 56, 64
1, 316206, Note_off_c, 0, 61, 61
1, 316208, Note_on_c, 0, 37, 75
1, 316211, Note_on_c, 0, 56, 68
1, 316213, Note_off_c, 0, 29, 63
1, 316256, Note_off_c, 0, 56, 64
1, 316259, Note_off_c, 0, 37, 64
1, 316279, Note_on_c, 0, 61, 94
1, 316280, Note_on_c, 0, 29, 84
1, 316288, Control_c, 0, 64, 57
1, 316302, Note_off_c, 0, 33, 27
1, 316303, Control_c, 0, 64, 86
1, 316318, Control_c, 0, 64, 127
1, 316338, Note_on_c, 0, 56, 77
1, 316347, Note_on_c, 0, 37, 82
1, 316357, Note_off_c, 0, 61, 58
1, 316362, Note_off_c, 0, 56, 68
1, 316384, Note_on_c, 0, 33, 22
1, 316387, Note_on_c, 0, 53, 82
1, 316405, Note_on_c, 0, 41, 81
1, 316408, Note_off_c, 0, 37, 57
1, 316413, Note_off_c, 0, 29, 51
1, 316436, Note_off_c, 0, 33, 43
1, 316440, Note_on_c, 0, 56, 66
1, 316446, Note_on_c, 0, 37, 49
1, 316454, Note_off_c, 0, 53, 63
1, 316463, Note_off_c, 0, 41, 62
1, 316491, Note_on_c, 0, 61, 77
1, 316491, Note_off_c, 0, 56, 66
1, 316515, Note_on_c, 0, 29, 83
1, 316517, Note_off_c, 0, 37, 63
1, 316525, Note_off_c, 0, 61, 63
1, 316565, Note_on_c, 0, 56, 74
1, 316582, Note_on_c, 0, 37, 83
1, 316592, Note_off_c, 0, 29, 60
1, 316595, Poly_aftertouch_c, 0, 33, 127
1, 316607, Control_c, 0, 64, 115
1, 316619, Poly_aftertouch_c, 0, 33, 0
1, 316622, Note_on_c, 0, 65, 96
1, 316622, Control_c, 0, 64, 81
1, 316631, Note_off_c, 0, 56, 62
1, 316636, Control_c, 0, 64, 43
1, 316646, Note_off_c, 0, 37, 62
1, 316647, Note_on_c, 0, 29, 73
1, 316651, Control_c, 0, 64, 0
1, 316656, Poly_aftertouch_c, 0, 33, 127
1, 316675, Note_on_c, 0, 56, 74
1, 316678, Note_off_c, 0, 65, 64
1, 316688, Note_on_c, 0, 37, 69
1, 316695, Note_off_c, 0, 29, 60
1, 316710, Control_c, 0, 64, 41
1, 316725, Control_c, 0, 64, 66
1, 316740, Control_c, 0, 64, 80
1, 316754, Note_off_c, 0, 37, 61
1, 316755, Note_on_c, 0, 63, 84
1, 316755, Control_c, 0, 64, 103
1, 316758, Poly_aftertouch_c, 0, 33, 0
1, 316765, Note_off_c, 0, 56, 63
1, 316768, Note_on_c, 0, 29, 84
1, 316770, Control_c, 0, 64, 127
1, 316771, Note_on_c, 0, 33, 15
1, 316822, Note_off_c, 0, 63, 64
1, 316828, Note_on_c, 0, 37, 87
1, 316842, Note_on_c, 0, 56, 80
1, 316856, Note_on_c, 0, 61, 82
1, 316871, Note_off_c, 0, 56, 65
1, 316875, Note_off_c, 0, 29, 61
1, 316882, Note_off_c, 0, 61, 68
1, 316886, Note_off_c, 0, 37, 63
1, 316930, Note_off_c, 0, 33, 20
1, 316977, Control_c, 0, 64, 83
1, 316981, Note_on_c, 0, 42, 122
1, 316983, Note_on_c, 0, 30, 100
1, 316986, Note_on_c, 0, 70, 95
1, 316991, Control_c, 0, 64, 0
1, 317047, Note_off_c, 0, 70, 65
1, 317048, Note_on_c, 0, 73, 91
1, 317111, Note_off_c, 0, 73, 64
1, 317122, Note_on_c, 0, 70, 87
1, 317169, Note_off_c, 0, 70, 62
1, 317174, Note_on_c, 0, 73, 88
1, 317230, Note_off_c, 0, 73, 63
1, 317257, Note_on_c, 0, 70, 93
1, 317307, Note_off_c, 0, 70, 64
1, 317310, Note_on_c, 0, 73, 88
1, 317368, Note_off_c, 0, 73, 63
1, 317374, Note_on_c, 0, 70, 91
1, 317424, Note_on_c, 0, 73, 86
1, 317425, Note_off_c, 0, 70, 65
1, 317489, Note_off_c, 0, 73, 62
1, 317494, Note_on_c, 0, 70, 90
1, 317545, Note_off_c, 0, 70, 64
1, 317546, Note_on_c, 0, 73, 83
1, 317601, Note_off_c, 0, 73, 64
1, 317619, Note_on_c, 0, 70, 93
1, 317668, Note_on_c, 0, 73, 85
1, 317669, Note_off_c, 0, 70, 64
1, 317728, Note_off_c, 0, 73, 63
1, 317734, Note_on_c, 0, 70, 93
1, 317755, Control_c, 0, 64, 74
1, 317769, Control_c, 0, 64, 106
1, 317784, Control_c, 0, 64, 127
1, 317791, Note_on_c, 0, 73, 83
1, 317791, Note_off_c, 0, 70, 63
1, 317850, Note_off_c, 0, 73, 63
1, 317857, Note_on_c, 0, 70, 80
1, 317901, Note_on_c, 0, 73, 75
1, 317902, Note_off_c, 0, 70, 61
1, 317969, Note_off_c, 0, 73, 62
1, 317972, Note_on_c, 0, 70, 83
1, 318027, Note_off_c, 0, 30, 56
1, 318030, Note_off_c, 0, 70, 64
1, 318030, Note_off_c, 0, 42, 58
1, 318040, Note_on_c, 0, 73, 78
1, 318102, Note_off_c, 0, 73, 61
1, 318118, Note_on_c, 0, 31, 73
1, 318118, Control_c, 0, 64, 97
1, 318127, Note_on_c, 0, 43, 80
1, 318129, Note_on_c, 0, 70, 75
1, 318133, Control_c, 0, 64, 79
1, 318148, Control_c, 0, 64, 69
1, 318159, Note_off_c, 0, 31, 62
1, 318159, Note_off_c, 0, 43, 63
1, 318163, Control_c, 0, 64, 60
1, 318172, Note_on_c, 0, 73, 77
1, 318175, Note_off_c, 0, 70, 61
1, 318178, Control_c, 0, 64, 52
1, 318207, Control_c, 0, 64, 54
1, 318222, Control_c, 0, 64, 55
1, 318236, Note_on_c, 0, 34, 77
1, 318237, Control_c, 0, 64, 56
1, 318261, Note_on_c, 0, 67, 58
1, 318267, Control_c, 0, 64, 56
1, 318270, Note_off_c, 0, 73, 59
1, 318277, Note_on_c, 0, 70, 82
1, 318292, Note_off_c, 0, 67, 65
1, 318297, Note_off_c, 0, 34, 59
1, 318312, Control_c, 0, 64, 55
1, 318324, Note_off_c, 0, 70, 62
1, 318327, Control_c, 0, 64, 54
1, 318333, Note_on_c, 0, 64, 81
1, 318342, Control_c, 0, 64, 54
1, 318351, Note_on_c, 0, 37, 80
1, 318371, Control_c, 0, 64, 53
1, 318386, Control_c, 0, 64, 52
1, 318398, Note_off_c, 0, 37, 60
1, 318398, Note_off_c, 0, 64, 64
1, 318398, Note_on_c, 0, 67, 72
1, 318400, Control_c, 0, 64, 50
1, 318415, Control_c, 0, 64, 49
1, 318445, Control_c, 0, 64, 50
1, 318455, Note_off_c, 0, 67, 60
1, 318470, Note_on_c, 0, 61, 80
1, 318473, Note_on_c, 0, 40, 91
1, 318474, Control_c, 0, 64, 49
1, 318489, Control_c, 0, 64, 48
1, 318515, Note_off_c, 0, 61, 63
1, 318519, Control_c, 0, 64, 49
1, 318521, Note_off_c, 0, 40, 62
1, 318529, Note_on_c, 0, 64, 68
1, 318534, Control_c, 0, 64, 50
1, 318560, Note_on_c, 0, 43, 91
1, 318563, Control_c, 0, 64, 50
1, 318589, Note_off_c, 0, 43, 66
1, 318592, Control_c, 0, 64, 51
1, 318607, Control_c, 0, 64, 52
1, 318613, Note_off_c, 0, 64, 64
1, 318618, Note_on_c, 0, 58, 75
1, 318619, Note_on_c, 0, 61, 43
1, 318623, Control_c, 0, 64, 54
1, 318649, Note_off_c, 0, 61, 55
1, 318653, Control_c, 0, 64, 53
1, 318668, Control_c, 0, 64, 52
1, 318678, Note_on_c, 0, 46, 85
1, 318682, Note_on_c, 0, 55, 78
1, 318688, Note_off_c, 0, 58, 63
1, 318701, Note_off_c, 0, 46, 68
1, 318712, Control_c, 0, 64, 52
1, 318727, Control_c, 0, 64, 52
1, 318749, Note_on_c, 0, 60, 63
1, 318750, Control_c, 0, 64, 49
1, 318765, Control_c, 0, 64, 44
1, 318767, Note_on_c, 0, 58, 77
1, 318779, Control_c, 0, 64, 43
1, 318780, Note_off_c, 0, 55, 60
1, 318789, Note_off_c, 0, 60, 65
1, 318794, Control_c, 0, 64, 44
1, 318804, Note_on_c, 0, 49, 108
1, 318809, Control_c, 0, 64, 47
1, 318816, Note_on_c, 0, 53, 79
1, 318823, Control_c, 0, 64, 49
1, 318828, Note_off_c, 0, 58, 58
1, 318831, Note_off_c, 0, 49, 66
1, 318838, Control_c, 0, 64, 49
1, 318853, Control_c, 0, 64, 50
1, 318868, Control_c, 0, 64, 52
1, 318879, Note_on_c, 0, 55, 87
1, 318882, Note_off_c, 0, 53, 59
1, 318883, Control_c, 0, 64, 56
1, 318897, Control_c, 0, 64, 61
1, 318912, Control_c, 0, 64, 68
1, 318927, Control_c, 0, 64, 82
1, 318929, Note_on_c, 0, 49, 117
1, 318930, Note_on_c, 0, 58, 80
1, 318932, Note_off_c, 0, 55, 62
1, 318942, Control_c, 0, 64, 127
1, 318960, Note_off_c, 0, 49, 69
1, 318998, Note_on_c, 0, 55, 88
1, 319012, Note_off_c, 0, 58, 61
1, 319051, Note_on_c, 0, 49, 115
1, 319054, Note_off_c, 0, 55, 58
1, 319056, Note_on_c, 0, 53, 92
1, 319081, Note_off_c, 0, 49, 69
1, 319114, Note_on_c, 0, 55, 77
1, 319120, Note_off_c, 0, 53, 63
1, 319165, Control_c, 0, 64, 74
1, 319167, Note_off_c, 0, 55, 56
1, 319179, Control_c, 0, 64, 0
1, 319197, Note_on_c, 0, 49, 121
1, 319255, Note_on_c, 0, 53, 77
1, 319268, Control_c, 0, 64, 75
1, 319283, Control_c, 0, 64, 127
1, 319315, Note_on_c, 0, 58, 72
1, 319316, Note_off_c, 0, 53, 62
1, 319373, Note_on_c, 0, 55, 67
1, 319395, Note_off_c, 0, 58, 63
1, 319424, Note_on_c, 0, 53, 80
1, 319433, Note_off_c, 0, 55, 61
1, 319484, Note_off_c, 0, 49, 47
1, 319501, Note_on_c, 0, 58, 74
1, 319506, Note_off_c, 0, 53, 63
1, 319573, Note_off_c, 0, 58, 57
1, 319608, Note_on_c, 0, 48, 100
1, 319632, Control_c, 0, 64, 110
1, 319646, Note_on_c, 0, 52, 72
1, 319646, Control_c, 0, 64, 76
1, 319661, Control_c, 0, 64, 0
1, 319702, Note_on_c, 0, 58, 72
1, 319715, Note_off_c, 0, 52, 60
1, 319720, Control_c, 0, 64, 57
1, 319735, Control_c, 0, 64, 77
1, 319750, Control_c, 0, 64, 108
1, 319761, Note_off_c, 0, 58, 63
1, 319765, Control_c, 0, 64, 127
1, 319771, Note_on_c, 0, 55, 70
1, 319816, Note_off_c, 0, 55, 54
1, 319823, Note_on_c, 0, 52, 71
1, 319859, Note_on_c, 0, 58, 79
1, 319874, Note_off_c, 0, 52, 62
1, 319883, Note_off_c, 0, 58, 70
1, 319953, Note_off_c, 0, 48, 55
1, 319957, Control_c, 0, 64, 83
1, 319972, Note_on_c, 0, 41, 93
1, 319972, Control_c, 0, 64, 0
1, 319975, Note_on_c, 0, 65, 96
1, 320006, Note_on_c, 0, 64, 41
1, 320007, Note_off_c, 0, 64, 127
1, 320028, Note_on_c, 0, 60, 73
1, 320032, Control_c, 0, 64, 75
1, 320044, Note_on_c, 0, 48, 80
1, 320046, Control_c, 0, 64, 127
1, 320058, Note_off_c, 0, 60, 65
1, 320076, Note_off_c, 0, 65, 60
1, 320093, Note_on_c, 0, 56, 80
1, 320111, Note_off_c, 0, 48, 63
1, 320112, Note_on_c, 0, 53, 83
1, 320128, Note_off_c, 0, 56, 54
1, 320137, Note_off_c, 0, 41, 55
1, 320145, Note_on_c, 0, 60, 75
1, 320152, Note_on_c, 0, 48, 61
1, 320157, Note_off_c, 0, 53, 63
1, 320201, Note_off_c, 0, 60, 63
1, 320202, Note_on_c, 0, 65, 87
1, 320212, Note_on_c, 0, 41, 80
1, 320220, Note_off_c, 0, 48, 63
1, 320223, Poly_aftertouch_c, 0, 57, 0
1, 320251, Note_off_c, 0, 65, 58
1, 320279, Note_on_c, 0, 60, 73
1, 320288, Note_on_c, 0, 48, 72
1, 320290, Note_off_c, 0, 41, 61
1, 320339, Note_off_c, 0, 60, 64
1, 320341, Note_on_c, 0, 68, 90
1, 320341, Note_off_c, 0, 48, 60
1, 320351, Control_c, 0, 64, 96
1, 320351, Note_on_c, 0, 41, 81
1, 320366, Control_c, 0, 64, 67
1, 320381, Control_c, 0, 64, 0
1, 320387, Note_off_c, 0, 68, 64
1, 320399, Note_off_c, 0, 41, 61
1, 320403, Note_on_c, 0, 60, 72
1, 320412, Note_on_c, 0, 48, 75
1, 320461, Note_off_c, 0, 48, 58
1, 320472, Note_on_c, 0, 67, 87
1, 320476, Note_on_c, 0, 41, 79
1, 320477, Note_off_c, 0, 60, 64
1, 320521, Note_off_c, 0, 41, 61
1, 320521, Note_off_c, 0, 67, 60
1, 320531, Note_on_c, 0, 48, 71
1, 320533, Note_on_c, 0, 60, 74
1, 320572, Note_off_c, 0, 48, 64
1, 320589, Note_on_c, 0, 65, 88
1, 320597, Note_off_c, 0, 60, 65
1, 320601, Note_on_c, 0, 41, 75
1, 320631, Note_off_c, 0, 65, 61
1, 320634, Note_off_c, 0, 41, 62
1, 320650, Note_on_c, 0, 48, 72
1, 320654, Note_on_c, 0, 60, 65
1, 320696, Note_off_c, 0, 48, 55
1, 320707, Note_on_c, 0, 41, 87
1, 320709, Note_on_c, 0, 65, 97
1, 320720, Note_off_c, 0, 60, 62
1, 320721, Control_c, 0, 64, 75
1, 320736, Control_c, 0, 64, 127
1, 320762, Note_on_c, 0, 48, 74
1, 320774, Note_on_c, 0, 60, 77
1, 320817, Note_off_c, 0, 60, 59
1, 320822, Note_off_c, 0, 48, 59
1, 320822, Note_off_c, 0, 65, 60
1, 320833, Note_on_c, 0, 53, 83
1, 320836, Note_on_c, 0, 56, 89
1, 320839, Note_off_c, 0, 41, 46
1, 320885, Note_on_c, 0, 48, 59
1, 320885, Note_off_c, 0, 53, 63
1, 320889, Note_off_c, 0, 56, 63
1, 320892, Note_on_c, 0, 60, 74
1, 320931, Note_on_c, 0, 41, 81
1, 320936, Note_off_c, 0, 48, 61
1, 320944, Note_off_c, 0, 60, 66
1, 320945, Note_on_c, 0, 65, 81
1, 320978, Note_off_c, 0, 65, 64
1, 321004, Note_on_c, 0, 48, 75
1, 321007, Note_off_c, 0, 41, 62
1, 321013, Note_on_c, 0, 60, 75
1, 321059, Note_off_c, 0, 48, 60
1, 321068, Note_on_c, 0, 41, 85
1, 321070, Note_on_c, 0, 68, 91
1, 321070, Control_c, 0, 64, 96
1, 321072, Note_off_c, 0, 60, 64
1, 321085, Control_c, 0, 64, 67
1, 321099, Control_c, 0, 64, 0
1, 321127, Note_off_c, 0, 41, 59
1, 321127, Note_off_c, 0, 68, 65
1, 321130, Note_on_c, 0, 60, 74
1, 321137, Note_on_c, 0, 48, 79
1, 321174, Control_c, 0, 64, 33
1, 321189, Control_c, 0, 64, 64
1, 321192, Note_off_c, 0, 48, 58
1, 321197, Note_on_c, 0, 41, 87
1, 321203, Note_on_c, 0, 67, 88
1, 321203, Control_c, 0, 64, 73
1, 321214, Note_off_c, 0, 60, 64
1, 321218, Control_c, 0, 64, 83
1, 321233, Control_c, 0, 64, 94
1, 321248, Control_c, 0, 64, 108
1, 321261, Note_on_c, 0, 48, 84
1, 321263, Control_c, 0, 64, 127
1, 321263, Note_off_c, 0, 41, 60
1, 321269, Note_off_c, 0, 67, 58
1, 321282, Note_on_c, 0, 60, 78
1, 321311, Note_on_c, 0, 65, 78
1, 321322, Note_off_c, 0, 48, 61
1, 321327, Note_on_c, 0, 41, 81
1, 321336, Note_off_c, 0, 65, 68
1, 321348, Note_off_c, 0, 60, 62
1, 321352, Control_c, 0, 64, 113
1, 321366, Control_c, 0, 64, 72
1, 321376, Note_off_c, 0, 41, 63
1, 321377, Note_on_c, 0, 48, 74
1, 321381, Control_c, 0, 64, 0
1, 321412, Note_on_c, 0, 73, 102
1, 321424, Note_off_c, 0, 48, 60
1, 321425, Control_c, 0, 64, 51
1, 321433, Note_on_c, 0, 41, 84
1, 321440, Control_c, 0, 64, 88
1, 321455, Control_c, 0, 64, 127
1, 321470, Note_on_c, 0, 68, 93
1, 321486, Note_on_c, 0, 49, 95
1, 321494, Note_on_c, 0, 72, 48
1, 321502, Note_off_c, 0, 73, 63
1, 321516, Note_off_c, 0, 68, 57
1, 321518, Note_off_c, 0, 72, 57
1, 321523, Note_on_c, 0, 65, 88
1, 321539, Note_off_c, 0, 49, 63
1, 321546, Note_off_c, 0, 41, 56
1, 321555, Poly_aftertouch_c, 0, 45, 127
1, 321559, Note_on_c, 0, 53, 86
1, 321582, Note_on_c, 0, 68, 74
1, 321591, Note_off_c, 0, 65, 59
1, 321602, Note_off_c, 0, 53, 63
1, 321606, Note_on_c, 0, 49, 49
1, 321611, Poly_aftertouch_c, 0, 45, 0
1, 321624, Note_on_c, 0, 73, 84
1, 321624, Note_off_c, 0, 49, 65
1, 321630, Note_off_c, 0, 68, 66
1, 321632, Note_on_c, 0, 45, 27
1, 321643, Note_on_c, 0, 41, 86
1, 321650, Note_off_c, 0, 73, 64
1, 321694, Note_on_c, 0, 68, 66
1, 321696, Note_off_c, 0, 45, 0
1, 321699, Note_off_c, 0, 41, 61
1, 321704, Note_on_c, 0, 49, 73
1, 321716, Note_on_c, 0, 45, 31
1, 321729, Poly_aftertouch_c, 0, 48, 0
1, 321748, Note_on_c, 0, 77, 92
1, 321760, Note_off_c, 0, 68, 64
1, 321764, Note_off_c, 0, 49, 63
1, 321776, Note_on_c, 0, 41, 86
1, 321788, Control_c, 0, 64, 95
1, 321803, Note_off_c, 0, 77, 63
1, 321803, Note_on_c, 0, 68, 63
1, 321803, Control_c, 0, 64, 71
1, 321819, Control_c, 0, 64, 10
1, 321821, Note_on_c, 0, 49, 77
1, 321833, Note_off_c, 0, 41, 59
1, 321834, Control_c, 0, 64, 0
1, 321868, Note_off_c, 0, 45, 0
1, 321872, Note_on_c, 0, 75, 81
1, 321881, Note_off_c, 0, 49, 62
1, 321883, Note_off_c, 0, 68, 63
1, 321890, Note_on_c, 0, 41, 76
1, 321905, Poly_aftertouch_c, 0, 45, 127
1, 321925, Note_off_c, 0, 75, 61
1, 321932, Note_on_c, 0, 68, 68
1, 321940, Note_on_c, 0, 49, 80
1, 321943, Note_off_c, 0, 41, 61
1, 321988, Note_on_c, 0, 45, 13
1, 321993, Note_off_c, 0, 49, 63
1, 322005, Note_on_c, 0, 73, 93
1, 322007, Note_on_c, 0, 41, 79
1, 322017, Note_off_c, 0, 68, 65
1, 322045, Note_off_c, 0, 73, 65
1, 322052, Note_off_c, 0, 41, 62
1, 322053, Note_on_c, 0, 49, 82
1, 322068, Note_on_c, 0, 68, 53
1, 322086, Note_off_c, 0, 49, 66
1, 322095, Note_off_c, 0, 68, 65
1, 322110, Note_on_c, 0, 73, 91
1, 322114, Control_c, 0, 64, 57
1, 322115, Note_on_c, 0, 41, 90
1, 322129, Control_c, 0, 64, 95
1, 322144, Control_c, 0, 64, 127
1, 322167, Note_on_c, 0, 68, 83
1, 322176, Note_on_c, 0, 49, 88
1, 322199, Note_off_c, 0, 45, 0
1, 322208, Note_off_c, 0, 68, 66
1, 322219, Note_off_c, 0, 73, 56
1, 322227, Note_on_c, 0, 65, 86
1, 322227, Note_off_c, 0, 41, 57
1, 322235, Poly_aftertouch_c, 0, 45, 127
1, 322243, Note_off_c, 0, 49, 58
1, 322244, Note_on_c, 0, 53, 79
1, 322283, Note_off_c, 0, 65, 58
1, 322284, Note_on_c, 0, 49, 65
1, 322289, Note_off_c, 0, 53, 62
1, 322290, Note_on_c, 0, 68, 87
1, 322300, Poly_aftertouch_c, 0, 45, 0
1, 322325, Note_on_c, 0, 45, 16
1, 322325, Note_on_c, 0, 73, 84
1, 322327, Note_on_c, 0, 41, 90
1, 322331, Note_off_c, 0, 68, 69
1, 322332, Note_off_c, 0, 49, 63
1, 322368, Note_off_c, 0, 73, 64
1, 322394, Note_on_c, 0, 68, 77
1, 322399, Note_off_c, 0, 41, 62
1, 322401, Note_on_c, 0, 49, 90
1, 322438, Note_off_c, 0, 45, 0
1, 322450, Note_on_c, 0, 77, 93
1, 322455, Control_c, 0, 64, 100
1, 322461, Note_off_c, 0, 49, 57
1, 322461, Note_on_c, 0, 41, 86
1, 322463, Note_off_c, 0, 68, 63
1, 322470, Control_c, 0, 64, 72
1, 322476, Poly_aftertouch_c, 0, 45, 127
1, 322492, Control_c, 0, 64, 0
1, 322516, Note_on_c, 0, 68, 74
1, 322516, Note_off_c, 0, 77, 64
1, 322521, Control_c, 0, 64, 13
1, 322527, Note_on_c, 0, 49, 84
1, 322531, Poly_aftertouch_c, 0, 45, 0
1, 322533, Note_off_c, 0, 41, 59
1, 322536, Control_c, 0, 64, 64
1, 322551, Control_c, 0, 64, 80
1, 322566, Control_c, 0, 64, 115
1, 322581, Control_c, 0, 64, 127
1, 322586, Note_off_c, 0, 49, 62
1, 322591, Note_on_c, 0, 75, 88
1, 322597, Note_on_c, 0, 41, 83
1, 322605, Note_off_c, 0, 68, 65
1, 322635, Poly_aftertouch_c, 0, 45, 127
1, 322647, Note_off_c, 0, 75, 60
1, 322661, Note_on_c, 0, 49, 90
1, 322663, Note_on_c, 0, 68, 73
1, 322672, Poly_aftertouch_c, 0, 45, 0
1, 322678, Note_off_c, 0, 41, 62
1, 322682, Note_on_c, 0, 73, 87
1, 322700, Note_off_c, 0, 68, 64
1, 322720, Note_off_c, 0, 49, 64
1, 322723, Note_off_c, 0, 73, 64
1, 322804, Control_c, 0, 64, 111
1, 322814, Note_on_c, 0, 54, 109
1, 322818, Note_on_c, 0, 42, 103
1, 322818, Note_on_c, 0, 82, 103
1, 322819, Control_c, 0, 64, 66
1, 322834, Control_c, 0, 64, 0
1, 322834, Note_on_c, 0, 44, 47
1, 322843, Note_on_c, 0, 41, 65
1, 322843, Note_on_c, 0, 53, 55
1, 322844, Note_off_c, 0, 53, 127
1, 322865, Note_off_c, 0, 44, 32
1, 322876, Note_on_c, 0, 85, 87
1, 322877, Note_off_c, 0, 82, 64
1, 322898, Note_off_c, 0, 41, 35
1, 322936, Note_off_c, 0, 85, 64
1, 322948, Note_on_c, 0, 82, 87
1, 322989, Note_on_c, 0, 85, 83
1, 322991, Note_off_c, 0, 82, 62
1, 323046, Note_off_c, 0, 85, 64
1, 323064, Note_on_c, 0, 82, 93
1, 323116, Note_on_c, 0, 85, 86
1, 323116, Note_off_c, 0, 82, 63
1, 323174, Note_off_c, 0, 85, 64
1, 323174, Control_c, 0, 64, 38
1, 323178, Note_on_c, 0, 82, 96
1, 323189, Control_c, 0, 64, 60
1, 323204, Control_c, 0, 64, 68
1, 323219, Control_c, 0, 64, 77
1, 323229, Note_on_c, 0, 85, 84
1, 323241, Control_c, 0, 64, 88
1, 323242, Note_off_c, 0, 82, 64
1, 323256, Control_c, 0, 64, 105
1, 323270, Control_c, 0, 64, 127
1, 323302, Note_on_c, 0, 82, 95
1, 323305, Note_off_c, 0, 85, 63
1, 323354, Note_on_c, 0, 85, 81
1, 323356, Note_off_c, 0, 82, 63
1, 323410, Note_off_c, 0, 85, 61
1, 323427, Note_on_c, 0, 82, 99
1, 323481, Note_off_c, 0, 82, 64
1, 323483, Note_on_c, 0, 85, 86
1, 323539, Note_off_c, 0, 85, 60
1, 323544, Note_on_c, 0, 82, 96
1, 323591, Note_on_c, 0, 85, 82
1, 323594, Note_off_c, 0, 82, 64
1, 323668, Note_on_c, 0, 82, 86
1, 323712, Note_off_c, 0, 82, 61
1, 323726, Note_off_c, 0, 85, 64
1, 323746, Note_off_c, 0, 42, 57
1, 323748, Note_on_c, 0, 82, 62
1, 323758, Note_off_c, 0, 54, 55
1, 323795, Note_on_c, 0, 85, 79
1, 323797, Note_off_c, 0, 82, 62
1, 323872, Note_off_c, 0, 85, 62
1, 323886, Note_on_c, 0, 43, 77
1, 323887, Note_on_c, 0, 55, 74
1, 323890, Note_on_c, 0, 82, 83
1, 323892, Control_c, 0, 64, 121
1, 323907, Control_c, 0, 64, 91
1, 323913, Note_off_c, 0, 55, 66
1, 323918, Note_off_c, 0, 43, 64
1, 323922, Control_c, 0, 64, 71
1, 323937, Control_c, 0, 64, 55
1, 323940, Note_off_c, 0, 82, 60
1, 323946, Note_on_c, 0, 85, 77
1, 323952, Control_c, 0, 64, 0
1, 324014, Note_off_c, 0, 85, 63
1, 324018, Note_on_c, 0, 46, 85
1, 324022, Note_on_c, 0, 58, 82
1, 324027, Note_on_c, 0, 82, 77
1, 324043, Note_off_c, 0, 46, 69
1, 324045, Note_off_c, 0, 58, 70
1, 324066, Note_on_c, 0, 85, 80
1, 324069, Note_off_c, 0, 82, 63
1, 324078, Control_c, 0, 64, 15
1, 324092, Control_c, 0, 64, 22
1, 324107, Control_c, 0, 64, 25
1, 324122, Control_c, 0, 64, 32
1, 324131, Note_on_c, 0, 49, 85
1, 324133, Note_on_c, 0, 61, 86
1, 324137, Control_c, 0, 64, 39
1, 324140, Note_on_c, 0, 82, 87
1, 324143, Note_off_c, 0, 85, 63
1, 324152, Control_c, 0, 64, 45
1, 324153, Note_off_c, 0, 61, 70
1, 324154, Note_off_c, 0, 49, 67
1, 324167, Control_c, 0, 64, 47
1, 324193, Note_on_c, 0, 85, 70
1, 324194, Note_off_c, 0, 82, 63
1, 324196, Control_c, 0, 64, 48
1, 324212, Control_c, 0, 64, 51
1, 324227, Control_c, 0, 64, 55
1, 324241, Control_c, 0, 64, 58
1, 324244, Note_off_c, 0, 85, 65
1, 324249, Note_on_c, 0, 64, 93
1, 324250, Note_on_c, 0, 52, 84
1, 324256, Note_on_c, 0, 82, 69
1, 324256, Control_c, 0, 64, 59
1, 324268, Note_off_c, 0, 64, 73
1, 324271, Control_c, 0, 64, 59
1, 324274, Note_off_c, 0, 52, 70
1, 324286, Control_c, 0, 64, 60
1, 324307, Note_on_c, 0, 85, 78
1, 324316, Note_off_c, 0, 82, 61
1, 324316, Control_c, 0, 64, 60
1, 324331, Control_c, 0, 64, 62
1, 324346, Control_c, 0, 64, 64
1, 324356, Note_on_c, 0, 55, 87
1, 324356, Note_on_c, 0, 67, 88
1, 324360, Control_c, 0, 64, 65
1, 324375, Note_on_c, 0, 79, 82
1, 324375, Note_off_c, 0, 67, 71
1, 324375, Control_c, 0, 64, 67
1, 324376, Note_off_c, 0, 55, 69
1, 324380, Note_off_c, 0, 85, 64
1, 324390, Control_c, 0, 64, 67
1, 324435, Note_on_c, 0, 82, 71
1, 324441, Note_off_c, 0, 79, 59
1, 324462, Note_on_c, 0, 70, 99
1, 324462, Note_on_c, 0, 58, 88
1, 324465, Control_c, 0, 64, 68
1, 324478, Note_on_c, 0, 77, 84
1, 324480, Note_off_c, 0, 70, 69
1, 324483, Note_off_c, 0, 58, 70
1, 324509, Control_c, 0, 64, 67
1, 324539, Control_c, 0, 64, 68
1, 324540, Note_on_c, 0, 79, 87
1, 324546, Note_off_c, 0, 77, 63
1, 324554, Note_off_c, 0, 82, 52
1, 324554, Control_c, 0, 64, 75
1, 324568, Control_c, 0, 64, 91
1, 324576, Note_off_c, 0, 79, 60
1, 324581, Note_on_c, 0, 73, 108
1, 324582, Note_on_c, 0, 61, 103
1, 324583, Control_c, 0, 64, 127
1, 324605, Note_on_c, 0, 77, 86
1, 324611, Note_off_c, 0, 73, 67
1, 324620, Note_off_c, 0, 61, 61
1, 324625, Poly_aftertouch_c, 0, 84, 127
1, 324661, Note_on_c, 0, 79, 88
1, 324667, Poly_aftertouch_c, 0, 84, 0
1, 324677, Note_off_c, 0, 77, 60
1, 324697, Note_on_c, 0, 73, 112
1, 324701, Note_on_c, 0, 61, 103
1, 324711, Note_off_c, 0, 79, 63
1, 324715, Note_on_c, 0, 82, 81
1, 324727, Note_off_c, 0, 73, 67
1, 324745, Note_off_c, 0, 61, 59
1, 324781, Note_on_c, 0, 79, 94
1, 324793, Note_off_c, 0, 82, 62
1, 324831, Note_on_c, 0, 73, 108
1, 324834, Note_on_c, 0, 61, 105
1, 324851, Note_off_c, 0, 79, 54
1, 324862, Note_off_c, 0, 73, 68
1, 324873, Note_off_c, 0, 61, 63
1, 324950, Note_on_c, 0, 73, 117
1, 324954, Note_on_c, 0, 61, 110
1, 324960, Control_c, 0, 64, 78
1, 324975, Control_c, 0, 64, 0
1, 324984, Note_on_c, 0, 77, 80
1, 325007, Note_on_c, 0, 60, 16
1, 325036, Control_c, 0, 64, 63
1, 325038, Note_on_c, 0, 82, 76
1, 325046, Note_off_c, 0, 60, 37
1, 325048, Note_off_c, 0, 77, 63
1, 325051, Control_c, 0, 64, 87
1, 325065, Control_c, 0, 64, 127
1, 325097, Note_on_c, 0, 79, 84
1, 325127, Note_off_c, 0, 82, 63
1, 325160, Note_on_c, 0, 77, 77
1, 325164, Note_off_c, 0, 79, 60
1, 325172, Note_off_c, 0, 73, 60
1, 325186, Note_off_c, 0, 61, 55
1, 325227, Note_on_c, 0, 82, 78
1, 325229, Note_off_c, 0, 77, 60
1, 325305, Note_off_c, 0, 82, 53
1, 325319, Note_on_c, 0, 60, 79
1, 325322, Note_on_c, 0, 72, 83
1, 325332, Control_c, 0, 64, 110
1, 325347, Control_c, 0, 64, 78
1, 325362, Control_c, 0, 64, 16
1, 325363, Note_on_c, 0, 76, 74
1, 325377, Control_c, 0, 64, 0
1, 325406, Control_c, 0, 64, 53
1, 325415, Note_on_c, 0, 82, 77
1, 325421, Control_c, 0, 64, 72
1, 325427, Note_off_c, 0, 76, 61
1, 325436, Control_c, 0, 64, 96
1, 325451, Control_c, 0, 64, 127
1, 325472, Note_off_c, 0, 72, 62
1, 325488, Note_off_c, 0, 82, 63
1, 325496, Note_on_c, 0, 79, 78
1, 325538, Note_on_c, 0, 76, 83
1, 325539, Note_off_c, 0, 79, 56
1, 325578, Note_on_c, 0, 82, 75
1, 325585, Note_off_c, 0, 76, 65
1, 325598, Note_off_c, 0, 82, 71
1, 325609, Note_off_c, 0, 60, 63
1, 325643, Note_on_c, 0, 65, 116
1, 325651, Control_c, 0, 64, 75
1, 325665, Control_c, 0, 64, 0
1, 325726, Note_on_c, 0, 73, 86
1, 325739, Control_c, 0, 64, 64
1, 325754, Control_c, 0, 64, 66
1, 325769, Control_c, 0, 64, 70
1, 325781, Note_on_c, 0, 82, 86
1, 325783, Control_c, 0, 64, 81
1, 325794, Note_off_c, 0, 73, 65
1, 325798, Control_c, 0, 64, 105
1, 325814, Control_c, 0, 64, 127
1, 325838, Note_on_c, 0, 79, 75
1, 325866, Note_off_c, 0, 82, 65
1, 325880, Note_on_c, 0, 73, 85
1, 325940, Note_off_c, 0, 79, 60
1, 325946, Note_on_c, 0, 82, 84
1, 325965, Note_off_c, 0, 73, 61
1, 325994, Note_on_c, 0, 64, 94
1, 326006, Control_c, 0, 64, 91
1, 326015, Note_off_c, 0, 65, 59
1, 326021, Control_c, 0, 64, 60
1, 326028, Note_off_c, 0, 82, 62
1, 326036, Control_c, 0, 64, 0
1, 326054, Note_on_c, 0, 72, 78
1, 326066, Control_c, 0, 64, 36
1, 326080, Control_c, 0, 64, 70
1, 326095, Control_c, 0, 64, 102
1, 326110, Control_c, 0, 64, 127
1, 326114, Note_on_c, 0, 82, 93
1, 326124, Note_off_c, 0, 72, 60
1, 326135, Note_off_c, 0, 64, 68
1, 326174, Note_on_c, 0, 79, 72
1, 326188, Note_off_c, 0, 82, 62
1, 326208, Note_on_c, 0, 72, 87
1, 326265, Note_off_c, 0, 72, 63
1, 326267, Note_on_c, 0, 82, 92
1, 326268, Note_off_c, 0, 79, 63
1, 326334, Note_on_c, 0, 73, 111
1, 326340, Note_off_c, 0, 82, 60
1, 326354, Control_c, 0, 64, 91
1, 326369, Control_c, 0, 64, 67
1, 326384, Control_c, 0, 64, 0
1, 326395, Note_on_c, 0, 77, 71
1, 326399, Control_c, 0, 64, 27
1, 326414, Control_c, 0, 64, 65
1, 326429, Control_c, 0, 64, 87
1, 326438, Note_on_c, 0, 82, 83
1, 326441, Note_off_c, 0, 77, 64
1, 326444, Control_c, 0, 64, 127
1, 326507, Note_on_c, 0, 79, 74
1, 326518, Note_off_c, 0, 82, 62
1, 326545, Note_on_c, 0, 77, 87
1, 326552, Note_off_c, 0, 73, 55
1, 326569, Note_off_c, 0, 79, 59
1, 326615, Note_off_c, 0, 77, 57
1, 326619, Note_on_c, 0, 82, 83
1, 326652, Control_c, 0, 64, 113
1, 326667, Control_c, 0, 64, 81
1, 326670, Note_on_c, 0, 72, 103
1, 326676, Note_off_c, 0, 82, 60
1, 326682, Control_c, 0, 64, 59
1, 326697, Control_c, 0, 64, 51
1, 326711, Control_c, 0, 64, 66
1, 326726, Control_c, 0, 64, 85
1, 326736, Note_on_c, 0, 76, 81
1, 326741, Control_c, 0, 64, 127
1, 326747, Note_off_c, 0, 72, 62
1, 326773, Note_on_c, 0, 82, 83
1, 326787, Note_off_c, 0, 76, 65
1, 326828, Note_off_c, 0, 82, 63
1, 326845, Note_on_c, 0, 79, 73
1, 326873, Note_on_c, 0, 76, 79
1, 326900, Note_off_c, 0, 76, 67
1, 326915, Note_off_c, 0, 79, 61
1, 326917, Note_on_c, 0, 82, 84
1, 326946, Note_off_c, 0, 82, 64
1, 326987, Note_on_c, 0, 71, 85
1, 327043, Note_on_c, 0, 74, 83
1, 327059, Control_c, 0, 64, 89
1, 327074, Control_c, 0, 64, 62
1, 327089, Control_c, 0, 64, 0
1, 327106, Note_on_c, 0, 77, 84
1, 327175, Note_on_c, 0, 80, 93
1, 327192, Control_c, 0, 64, 19
1, 327207, Control_c, 0, 64, 53
1, 327222, Control_c, 0, 64, 64
1, 327237, Control_c, 0, 64, 70
1, 327248, Note_on_c, 0, 83, 77
1, 327252, Control_c, 0, 64, 80
1, 327263, Note_on_c, 0, 86, 76
1, 327267, Control_c, 0, 64, 92
1, 327282, Control_c, 0, 64, 109
1, 327296, Control_c, 0, 64, 127
1, 327302, Note_off_c, 0, 86, 58
1, 327329, Note_off_c, 0, 83, 60
1, 327332, Note_on_c, 0, 89, 90
1, 327392, Note_on_c, 0, 86, 76
1, 327402, Note_off_c, 0, 89, 63
1, 327407, Note_off_c, 0, 86, 71
1, 327418, Note_off_c, 0, 80, 60
1, 327436, Note_off_c, 0, 77, 57
1, 327454, Note_on_c, 0, 83, 55
1, 327463, Note_on_c, 0, 81, 44
1, 327474, Note_off_c, 0, 83, 64
1, 327486, Note_off_c, 0, 81, 60
1, 327517, Note_on_c, 0, 92, 79
1, 327561, Note_on_c, 0, 91, 84
1, 327576, Note_off_c, 0, 92, 64
1, 327583, Note_off_c, 0, 71, 56
1, 327603, Note_off_c, 0, 91, 62
1, 327626, Note_on_c, 0, 89, 77
1, 327651, Note_off_c, 0, 74, 54
1, 327690, Note_on_c, 0, 88, 83
1, 327696, Note_off_c, 0, 89, 55
1, 327699, Note_on_c, 0, 72, 62
1, 327749, Control_c, 0, 64, 101
1, 327758, Note_off_c, 0, 88, 65
1, 327762, Note_on_c, 0, 91, 83
1, 327764, Control_c, 0, 64, 80
1, 327771, Note_on_c, 0, 76, 71
1, 327778, Control_c, 0, 64, 64
1, 327793, Control_c, 0, 64, 0
1, 327827, Note_on_c, 0, 89, 75
1, 327849, Note_on_c, 0, 79, 66
1, 327867, Note_off_c, 0, 91, 62
1, 327899, Note_on_c, 0, 88, 74
1, 327913, Note_off_c, 0, 89, 63
1, 327941, Note_on_c, 0, 85, 73
1, 327951, Note_off_c, 0, 88, 66
1, 327956, Control_c, 0, 64, 13
1, 327971, Control_c, 0, 64, 38
1, 327975, Note_off_c, 0, 85, 60
1, 327985, Control_c, 0, 64, 53
1, 327988, Note_on_c, 0, 84, 74
1, 328000, Control_c, 0, 64, 62
1, 328015, Control_c, 0, 64, 70
1, 328028, Note_off_c, 0, 84, 52
1, 328030, Control_c, 0, 64, 80
1, 328045, Control_c, 0, 64, 100
1, 328057, Note_on_c, 0, 82, 80
1, 328060, Control_c, 0, 64, 127
1, 328099, Note_off_c, 0, 79, 59
1, 328108, Note_on_c, 0, 85, 76
1, 328110, Note_off_c, 0, 82, 63
1, 328110, Note_off_c, 0, 76, 62
1, 328137, Note_off_c, 0, 72, 65
1, 328173, Note_on_c, 0, 84, 70
1, 328175, Note_off_c, 0, 85, 66
1, 328178, Control_c, 0, 67, 8
1, 328193, Control_c, 0, 67, 12
1, 328209, Control_c, 0, 67, 20
1, 328224, Control_c, 0, 67, 26
1, 328238, Control_c, 0, 67, 31
1, 328240, Note_on_c, 0, 82, 71
1, 328253, Control_c, 0, 67, 35
1, 328263, Note_off_c, 0, 84, 61
1, 328268, Control_c, 0, 67, 40
1, 328283, Control_c, 0, 67, 43
1, 328298, Control_c, 0, 67, 47
1, 328298, Note_on_c, 0, 80, 62
1, 328313, Control_c, 0, 67, 51
1, 328328, Control_c, 0, 67, 53
1, 328333, Note_off_c, 0, 82, 59
1, 328340, Note_off_c, 0, 80, 57
1, 328343, Control_c, 0, 67, 55
1, 328355, Note_on_c, 0, 79, 60
1, 328357, Control_c, 0, 67, 56
1, 328372, Control_c, 0, 67, 59
1, 328387, Control_c, 0, 67, 62
1, 328389, Note_off_c, 0, 79, 62
1, 328401, Control_c, 0, 67, 66
1, 328416, Control_c, 0, 67, 70
1, 328431, Control_c, 0, 67, 73
1, 328446, Control_c, 0, 64, 107
1, 328446, Control_c, 0, 67, 76
1, 328447, Note_on_c, 0, 68, 46
1, 328453, Note_on_c, 0, 65, 42
1, 328461, Control_c, 0, 64, 95
1, 328461, Control_c, 0, 67, 80
1, 328483, Control_c, 0, 64, 84
1, 328483, Control_c, 0, 67, 82
1, 328498, Control_c, 0, 64, 72
1, 328498, Control_c, 0, 67, 85
1, 328513, Control_c, 0, 64, 62
1, 328513, Control_c, 0, 67, 86
1, 328528, Control_c, 0, 64, 39
1, 328528, Control_c, 0, 67, 87
1, 328542, Control_c, 0, 64, 0
1, 328542, Control_c, 0, 67, 88
1, 328557, Control_c, 0, 67, 89
1, 328557, Note_on_c, 0, 77, 16
1, 328569, Note_on_c, 0, 80, 47
1, 328572, Control_c, 0, 67, 90
1, 328587, Control_c, 0, 64, 12
1, 328587, Control_c, 0, 67, 91
1, 328595, Note_off_c, 0, 80, 59
1, 328602, Control_c, 0, 64, 45
1, 328613, Note_off_c, 0, 77, 46
1, 328616, Control_c, 0, 64, 61
1, 328618, Note_on_c, 0, 84, 58
1, 328631, Control_c, 0, 64, 70
1, 328646, Control_c, 0, 64, 81
1, 328650, Note_off_c, 0, 65, 56
1, 328658, Note_off_c, 0, 84, 60
1, 328661, Control_c, 0, 64, 99
1, 328676, Control_c, 0, 64, 127
1, 328676, Control_c, 0, 67, 91
1, 328693, Note_on_c, 0, 89, 62
1, 328723, Note_off_c, 0, 68, 38
1, 328751, Note_on_c, 0, 77, 54
1, 328763, Note_off_c, 0, 89, 61
1, 328781, Note_off_c, 0, 77, 55
1, 328838, Control_c, 0, 67, 92
1, 328868, Control_c, 0, 64, 108
1, 328872, Note_on_c, 0, 73, 47
1, 328875, Note_on_c, 0, 70, 51
1, 328882, Control_c, 0, 64, 88
1, 328897, Control_c, 0, 64, 73
1, 328912, Control_c, 0, 64, 61
1, 328927, Control_c, 0, 64, 52
1, 328942, Control_c, 0, 64, 59
1, 328957, Control_c, 0, 64, 66
1, 328972, Control_c, 0, 64, 76
1, 328987, Control_c, 0, 64, 88
1, 329002, Control_c, 0, 64, 102
1, 329017, Control_c, 0, 64, 116
1, 329031, Control_c, 0, 64, 127
1, 329079, Note_on_c, 0, 89, 53
1, 329103, Note_off_c, 0, 89, 57
1, 329130, Note_off_c, 0, 73, 42
1, 329151, Note_on_c, 0, 77, 42
1, 329165, Control_c, 0, 67, 91
1, 329181, Note_on_c, 0, 89, 62
1, 329186, Note_off_c, 0, 77, 50
1, 329216, Note_off_c, 0, 89, 47
1, 329261, Control_c, 0, 64, 101
1, 329268, Note_on_c, 0, 72, 54
1, 329276, Control_c, 0, 64, 84
1, 329281, Note_on_c, 0, 68, 46
1, 329291, Control_c, 0, 64, 70
1, 329306, Control_c, 0, 64, 55
1, 329306, Note_off_c, 0, 70, 38
1, 329320, Control_c, 0, 64, 20
1, 329335, Control_c, 0, 64, 15
1, 329350, Control_c, 0, 64, 44
1, 329365, Control_c, 0, 64, 60
1, 329380, Control_c, 0, 64, 67
1, 329395, Control_c, 0, 64, 73
1, 329410, Control_c, 0, 64, 81
1, 329425, Control_c, 0, 64, 90
1, 329425, Control_c, 0, 67, 91
1, 329439, Control_c, 0, 64, 98
1, 329454, Control_c, 0, 64, 106
1, 329462, Note_on_c, 0, 89, 64
1, 329469, Control_c, 0, 64, 111
1, 329484, Control_c, 0, 64, 119
1, 329493, Note_off_c, 0, 89, 62
1, 329499, Control_c, 0, 64, 127
1, 329537, Note_on_c, 0, 77, 50
1, 329547, Note_off_c, 0, 72, 38
1, 329557, Control_c, 0, 67, 90
1, 329571, Note_off_c, 0, 77, 48
1, 329583, Note_on_c, 0, 89, 63
1, 329661, Control_c, 0, 67, 90
1, 329664, Note_on_c, 0, 72, 83
1, 329679, Note_on_c, 0, 70, 71
1, 329686, Note_on_c, 0, 67, 71
1, 329690, Note_off_c, 0, 89, 37
1, 329691, Control_c, 0, 67, 89
1, 329714, Note_off_c, 0, 68, 63
1, 329720, Control_c, 0, 64, 115
1, 329720, Control_c, 0, 67, 89
1, 329735, Control_c, 0, 64, 93
1, 329750, Control_c, 0, 64, 77
1, 329750, Control_c, 0, 67, 88
1, 329765, Control_c, 0, 64, 63
1, 329765, Control_c, 0, 67, 88
1, 329780, Control_c, 0, 64, 0
1, 329780, Control_c, 0, 67, 87
1, 329794, Control_c, 0, 67, 86
1, 329810, Control_c, 0, 67, 85
1, 329825, Control_c, 0, 67, 84
1, 329840, Control_c, 0, 64, 53
1, 329840, Control_c, 0, 67, 83
1, 329854, Control_c, 0, 64, 67
1, 329854, Control_c, 0, 67, 82
1, 329869, Control_c, 0, 64, 78
1, 329869, Control_c, 0, 67, 82
1, 329875, Note_on_c, 0, 88, 82
1, 329884, Control_c, 0, 64, 98
1, 329899, Control_c, 0, 64, 127
1, 329914, Note_off_c, 0, 88, 64
1, 329941, Note_on_c, 0, 76, 76
1, 329980, Control_c, 0, 67, 82
1, 329998, Note_on_c, 0, 88, 60
1, 330000, Note_off_c, 0, 67, 56
1, 330000, Note_off_c, 0, 76, 55
1, 330017, Note_off_c, 0, 88, 65
1, 330025, Control_c, 0, 67, 83
1, 330063, Note_on_c, 0, 68, 63
1, 330074, Note_on_c, 0, 65, 62
1, 330084, Control_c, 0, 64, 90
1, 330099, Control_c, 0, 64, 68
1, 330110, Note_off_c, 0, 70, 59
1, 330114, Control_c, 0, 64, 0
1, 330114, Control_c, 0, 67, 84
1, 330115, Note_on_c, 0, 77, 56
1, 330128, Control_c, 0, 67, 84
1, 330143, Control_c, 0, 67, 85
1, 330158, Control_c, 0, 64, 19
1, 330158, Control_c, 0, 67, 85
1, 330167, Note_on_c, 0, 80, 57
1, 330168, Note_off_c, 0, 72, 62
1, 330173, Control_c, 0, 64, 60
1, 330173, Control_c, 0, 67, 86
1, 330188, Control_c, 0, 64, 74
1, 330188, Control_c, 0, 67, 86
1, 330193, Note_off_c, 0, 77, 50
1, 330203, Control_c, 0, 64, 100
1, 330203, Control_c, 0, 67, 87
1, 330204, Note_off_c, 0, 80, 64
1, 330209, Note_off_c, 0, 68, 67
1, 330218, Note_off_c, 0, 65, 63
1, 330218, Control_c, 0, 64, 127
1, 330218, Control_c, 0, 67, 88
1, 330219, Note_on_c, 0, 84, 62
1, 330248, Control_c, 0, 67, 89
1, 330262, Control_c, 0, 67, 89
1, 330282, Note_on_c, 0, 89, 64
1, 330292, Note_off_c, 0, 84, 59
1, 330292, Control_c, 0, 67, 90
1, 330306, Control_c, 0, 67, 90
1, 330318, Note_off_c, 0, 89, 61
1, 330321, Control_c, 0, 67, 91
1, 330327, Note_on_c, 0, 77, 39
1, 330351, Control_c, 0, 67, 91
1, 330359, Note_off_c, 0, 77, 53
1, 330380, Control_c, 0, 67, 92
1, 330395, Control_c, 0, 67, 92
1, 330410, Control_c, 0, 67, 93
1, 330425, Control_c, 0, 64, 100
1, 330425, Control_c, 0, 67, 95
1, 330434, Note_on_c, 0, 61, 60
1, 330437, Note_on_c, 0, 58, 63
1, 330440, Control_c, 0, 64, 78
1, 330440, Control_c, 0, 67, 99
1, 330454, Control_c, 0, 64, 60
1, 330454, Control_c, 0, 67, 105
1, 330469, Control_c, 0, 64, 0
1, 330469, Control_c, 0, 67, 111
1, 330484, Control_c, 0, 67, 117
1, 330498, Control_c, 0, 64, 38
1, 330498, Control_c, 0, 67, 121
1, 330513, Control_c, 0, 64, 62
1, 330513, Control_c, 0, 67, 125
1, 330528, Control_c, 0, 64, 72
1, 330528, Control_c, 0, 67, 127
1, 330543, Control_c, 0, 64, 85
1, 330558, Control_c, 0, 64, 104
1, 330572, Control_c, 0, 64, 127
1, 330611, Note_on_c, 0, 77, 56
1, 330625, Note_off_c, 0, 61, 57
1, 330647, Note_off_c, 0, 77, 62
1, 330674, Note_on_c, 0, 65, 50
1, 330708, Note_off_c, 0, 65, 57
1, 330749, Note_on_c, 0, 77, 35
1, 330785, Note_off_c, 0, 77, 53
1, 330803, Note_on_c, 0, 60, 53
1, 330804, Control_c, 0, 64, 102
1, 330804, Note_on_c, 0, 56, 52
1, 330818, Control_c, 0, 64, 83
1, 330833, Control_c, 0, 64, 67
1, 330835, Note_off_c, 0, 58, 38
1, 330848, Control_c, 0, 64, 34
1, 330863, Control_c, 0, 64, 0
1, 330892, Control_c, 0, 64, 16
1, 330907, Control_c, 0, 64, 52
1, 330922, Control_c, 0, 64, 64
1, 330936, Control_c, 0, 64, 71
1, 330951, Control_c, 0, 64, 80
1, 330966, Control_c, 0, 64, 95
1, 330981, Control_c, 0, 64, 110
1, 330994, Note_on_c, 0, 77, 52
1, 330996, Control_c, 0, 64, 127
1, 331023, Note_off_c, 0, 77, 58
1, 331053, Note_on_c, 0, 65, 54
1, 331088, Note_off_c, 0, 65, 59
1, 331111, Note_off_c, 0, 60, 55
1, 331116, Note_on_c, 0, 77, 52
1, 331162, Note_off_c, 0, 77, 56
1, 331180, Note_on_c, 0, 58, 72
1, 331182, Note_on_c, 0, 60, 69
1, 331187, Note_on_c, 0, 55, 68
1, 331204, Control_c, 0, 64, 100
1, 331219, Control_c, 0, 64, 79
1, 331228, Note_off_c, 0, 56, 38
1, 331234, Control_c, 0, 64, 58
1, 331249, Control_c, 0, 64, 0
1, 331293, Control_c, 0, 64, 39
1, 331308, Control_c, 0, 64, 63
1, 331322, Control_c, 0, 64, 74
1, 331337, Control_c, 0, 64, 94
1, 331352, Control_c, 0, 64, 127
1, 331380, Note_on_c, 0, 76, 72
1, 331412, Note_off_c, 0, 76, 64
1, 331449, Note_on_c, 0, 64, 68
1, 331485, Note_off_c, 0, 64, 67
1, 331496, Note_off_c, 0, 55, 59
1, 331505, Note_on_c, 0, 76, 73
1, 331527, Note_off_c, 0, 76, 68
1, 331553, Control_c, 0, 64, 97
1, 331564, Note_on_c, 0, 56, 61
1, 331568, Control_c, 0, 64, 75
1, 331575, Note_on_c, 0, 53, 59
1, 331583, Control_c, 0, 64, 49
1, 331594, Note_off_c, 0, 58, 56
1, 331598, Control_c, 0, 64, 0
1, 331631, Note_on_c, 0, 77, 53
1, 331642, Control_c, 0, 64, 38
1, 331657, Control_c, 0, 64, 63
1, 331662, Note_off_c, 0, 60, 64
1, 331672, Control_c, 0, 64, 74
1, 331678, Note_on_c, 0, 80, 61
1, 331687, Control_c, 0, 64, 91
1, 331694, Note_off_c, 0, 77, 38
1, 331701, Note_off_c, 0, 56, 64
1, 331701, Control_c, 0, 64, 127
1, 331702, Note_off_c, 0, 80, 65
1, 331708, Note_off_c, 0, 53, 65
1, 331733, Note_on_c, 0, 84, 70
1, 331783, Note_off_c, 0, 84, 63
1, 331788, Note_on_c, 0, 89, 70
1, 331854, Note_on_c, 0, 77, 45
1, 331860, Note_off_c, 0, 89, 62
1, 331893, Control_c, 0, 64, 116
1, 331903, Note_off_c, 0, 77, 47
1, 331908, Control_c, 0, 64, 95
1, 331923, Control_c, 0, 64, 76
1, 331938, Control_c, 0, 64, 60
1, 331946, Note_on_c, 0, 46, 51
1, 331946, Note_on_c, 0, 49, 49
1, 331952, Control_c, 0, 64, 0
1, 332012, Control_c, 0, 64, 35
1, 332026, Control_c, 0, 64, 61
1, 332041, Control_c, 0, 64, 69
1, 332056, Control_c, 0, 64, 79
1, 332071, Control_c, 0, 64, 91
1, 332086, Control_c, 0, 64, 103
1, 332100, Control_c, 0, 64, 113
1, 332115, Control_c, 0, 64, 121
1, 332130, Control_c, 0, 64, 125
1, 332131, Note_on_c, 0, 89, 52
1, 332141, Note_off_c, 0, 49, 60
1, 332144, Control_c, 0, 64, 127
1, 332155, Note_off_c, 0, 89, 56
1, 332196, Note_on_c, 0, 77, 49
1, 332233, Note_off_c, 0, 77, 52
1, 332242, Note_on_c, 0, 89, 63
1, 332286, Control_c, 0, 64, 122
1, 332296, Note_off_c, 0, 89, 52
1, 332301, Control_c, 0, 64, 105
1, 332315, Note_on_c, 0, 48, 47
1, 332316, Control_c, 0, 64, 91
1, 332319, Note_on_c, 0, 44, 46
1, 332331, Control_c, 0, 64, 77
1, 332334, Note_off_c, 0, 46, 35
1, 332346, Control_c, 0, 64, 63
1, 332361, Control_c, 0, 64, 21
1, 332375, Control_c, 0, 64, 0
1, 332405, Control_c, 0, 64, 29
1, 332420, Control_c, 0, 64, 54
1, 332435, Control_c, 0, 64, 64
1, 332449, Control_c, 0, 64, 71
1, 332464, Control_c, 0, 64, 79
1, 332479, Control_c, 0, 64, 87
1, 332494, Control_c, 0, 64, 94
1, 332509, Control_c, 0, 64, 98
1, 332521, Note_on_c, 0, 89, 57
1, 332523, Control_c, 0, 64, 99
1, 332538, Control_c, 0, 64, 100
1, 332546, Note_off_c, 0, 89, 55
1, 332553, Control_c, 0, 64, 101
1, 332568, Control_c, 0, 64, 102
1, 332573, Note_off_c, 0, 48, 35
1, 332582, Control_c, 0, 64, 103
1, 332588, Note_on_c, 0, 77, 50
1, 332597, Control_c, 0, 64, 105
1, 332612, Control_c, 0, 64, 106
1, 332620, Note_off_c, 0, 77, 51
1, 332627, Control_c, 0, 64, 107
1, 332635, Note_on_c, 0, 89, 55
1, 332718, Note_off_c, 0, 89, 36
1, 332728, Note_on_c, 0, 48, 72
1, 332743, Note_on_c, 0, 46, 61
1, 332754, Note_on_c, 0, 43, 68
1, 332760, Control_c, 0, 64, 107
1, 332775, Control_c, 0, 64, 104
1, 332790, Control_c, 0, 64, 99
1, 332797, Note_off_c, 0, 44, 46
1, 332805, Control_c, 0, 64, 89
1, 332820, Control_c, 0, 64, 76
1, 332835, Control_c, 0, 64, 62
1, 332849, Control_c, 0, 64, 0
1, 332893, Control_c, 0, 64, 33
1, 332908, Control_c, 0, 64, 58
1, 332923, Control_c, 0, 64, 67
1, 332938, Control_c, 0, 64, 76
1, 332953, Control_c, 0, 64, 89
1, 332958, Note_on_c, 0, 88, 55
1, 332975, Control_c, 0, 64, 100
1, 332985, Note_off_c, 0, 88, 64
1, 332990, Control_c, 0, 64, 109
1, 333005, Control_c, 0, 64, 116
1, 333020, Note_on_c, 0, 76, 58
1, 333020, Control_c, 0, 64, 127
1, 333042, Note_off_c, 0, 76, 62
1, 333066, Note_on_c, 0, 88, 65
1, 333081, Note_off_c, 0, 48, 60
1, 333108, Note_off_c, 0, 88, 62
1, 333118, Note_off_c, 0, 43, 57
1, 333123, Note_on_c, 0, 89, 74
1, 333124, Control_c, 0, 64, 101
1, 333130, Note_off_c, 0, 46, 60
1, 333136, Note_on_c, 0, 41, 55
1, 333139, Control_c, 0, 64, 77
1, 333154, Control_c, 0, 64, 39
1, 333169, Control_c, 0, 64, 0
1, 333188, Note_off_c, 0, 89, 57
1, 333191, Note_on_c, 0, 84, 63
1, 333213, Control_c, 0, 64, 35
1, 333228, Control_c, 0, 64, 62
1, 333237, Note_off_c, 0, 84, 61
1, 333243, Control_c, 0, 64, 73
1, 333258, Control_c, 0, 64, 87
1, 333264, Note_on_c, 0, 80, 56
1, 333272, Control_c, 0, 64, 107
1, 333287, Control_c, 0, 64, 127
1, 333303, Note_off_c, 0, 80, 47
1, 333333, Note_on_c, 0, 84, 47
1, 333359, Note_off_c, 0, 84, 58
1, 333379, Note_on_c, 0, 89, 60
1, 333437, Note_on_c, 0, 84, 64
1, 333466, Note_off_c, 0, 84, 66
1, 333497, Note_on_c, 0, 80, 62
1, 333512, Note_off_c, 0, 89, 29
1, 333545, Note_on_c, 0, 84, 58
1, 333547, Note_off_c, 0, 80, 50
1, 333581, Note_off_c, 0, 84, 63
1, 333612, Note_on_c, 0, 89, 65
1, 333659, Note_on_c, 0, 84, 62
1, 333692, Note_off_c, 0, 84, 63
1, 333743, Note_on_c, 0, 80, 47
1, 333743, Note_off_c, 0, 89, 28
1, 333776, Note_off_c, 0, 80, 50
1, 333788, Note_on_c, 0, 84, 60
1, 333821, Note_off_c, 0, 84, 65
1, 333859, Note_on_c, 0, 89, 58
1, 333890, Note_on_c, 0, 36, 43
1, 333908, Note_on_c, 0, 84, 55
1, 333914, Note_off_c, 0, 89, 52
1, 333932, Control_c, 0, 64, 113
1, 333947, Control_c, 0, 64, 92
1, 333948, Note_off_c, 0, 84, 61
1, 333962, Control_c, 0, 64, 78
1, 333969, Note_off_c, 0, 41, 37
1, 333977, Control_c, 0, 64, 68
1, 333992, Control_c, 0, 64, 63
1, 333998, Note_on_c, 0, 80, 45
1, 334006, Control_c, 0, 64, 64
1, 334021, Control_c, 0, 64, 68
1, 334034, Note_off_c, 0, 80, 50
1, 334036, Control_c, 0, 64, 74
1, 334051, Control_c, 0, 64, 82
1, 334057, Note_on_c, 0, 84, 47
1, 334066, Control_c, 0, 64, 91
1, 334081, Note_off_c, 0, 84, 60
1, 334081, Control_c, 0, 64, 101
1, 334096, Control_c, 0, 64, 108
1, 334111, Control_c, 0, 64, 110
1, 334114, Note_on_c, 0, 89, 53
1, 334141, Control_c, 0, 64, 111
1, 334155, Control_c, 0, 64, 111
1, 334156, Note_off_c, 0, 89, 50
1, 334170, Note_on_c, 0, 84, 53
1, 334170, Control_c, 0, 64, 113
1, 334185, Control_c, 0, 64, 113
1, 334214, Note_off_c, 0, 84, 61
1, 334262, Note_on_c, 0, 89, 54
1, 334289, Control_c, 0, 64, 106
1, 334293, Note_on_c, 0, 32, 48
1, 334300, Note_off_c, 0, 89, 48
1, 334303, Control_c, 0, 64, 97
1, 334318, Control_c, 0, 64, 86
1, 334333, Control_c, 0, 64, 75
1, 334337, Note_on_c, 0, 84, 49
1, 334347, Control_c, 0, 64, 67
1, 334362, Note_off_c, 0, 84, 61
1, 334362, Control_c, 0, 64, 62
1, 334377, Control_c, 0, 64, 63
1, 334390, Note_off_c, 0, 36, 36
1, 334392, Control_c, 0, 64, 68
1, 334400, Note_on_c, 0, 89, 51
1, 334407, Control_c, 0, 64, 73
1, 334421, Control_c, 0, 64, 80
1, 334436, Control_c, 0, 64, 88
1, 334439, Note_off_c, 0, 89, 47
1, 334451, Control_c, 0, 64, 97
1, 334456, Note_on_c, 0, 84, 55
1, 334473, Control_c, 0, 64, 103
1, 334488, Control_c, 0, 64, 107
1, 334503, Control_c, 0, 64, 108
1, 334504, Note_off_c, 0, 84, 64
1, 334518, Control_c, 0, 64, 110
1, 334533, Control_c, 0, 64, 111
1, 334546, Note_on_c, 0, 89, 56
1, 334548, Control_c, 0, 64, 113
1, 334562, Control_c, 0, 64, 115
1, 334575, Note_off_c, 0, 89, 52
1, 334577, Control_c, 0, 64, 117
1, 334592, Control_c, 0, 64, 118
1, 334608, Note_on_c, 0, 84, 52
1, 334608, Control_c, 0, 64, 119
1, 334638, Note_off_c, 0, 84, 62
1, 334652, Control_c, 0, 64, 112
1, 334663, Note_on_c, 0, 89, 58
1, 334667, Control_c, 0, 64, 92
1, 334678, Note_on_c, 0, 29, 50
1, 334682, Control_c, 0, 64, 73
1, 334695, Note_off_c, 0, 32, 35
1, 334697, Control_c, 0, 64, 45
1, 334712, Control_c, 0, 64, 0
1, 334713, Note_off_c, 0, 89, 55
1, 334731, Note_on_c, 0, 84, 46
1, 334755, Note_off_c, 0, 84, 59
1, 334756, Control_c, 0, 64, 42
1, 334771, Control_c, 0, 64, 66
1, 334784, Control_c, 0, 64, 77
1, 334787, Note_on_c, 0, 80, 42
1, 334799, Control_c, 0, 64, 94
1, 334814, Control_c, 0, 64, 125
1, 334828, Note_on_c, 0, 84, 59
1, 334829, Control_c, 0, 64, 127
1, 334830, Note_off_c, 0, 80, 46
1, 334862, Note_off_c, 0, 84, 63
1, 334900, Note_on_c, 0, 89, 58
1, 334953, Note_on_c, 0, 84, 56
1, 334987, Note_off_c, 0, 84, 65
1, 334998, Note_off_c, 0, 89, 35
1, 335027, Note_on_c, 0, 80, 64
1, 335068, Note_off_c, 0, 80, 52
1, 335079, Note_on_c, 0, 84, 54
1, 335115, Note_off_c, 0, 84, 64
1, 335140, Note_on_c, 0, 89, 59
1, 335202, Note_on_c, 0, 84, 56
1, 335204, Note_off_c, 0, 89, 51
1, 335240, Note_off_c, 0, 84, 66
1, 335273, Note_on_c, 0, 80, 57
1, 335311, Note_off_c, 0, 80, 54
1, 335319, Note_on_c, 0, 84, 58
1, 335353, Note_off_c, 0, 84, 64
1, 335378, Note_on_c, 0, 89, 65
1, 335434, Note_on_c, 0, 84, 61
1, 335444, Note_off_c, 0, 89, 55
1, 335470, Note_off_c, 0, 84, 61
1, 335514, Note_on_c, 0, 80, 53
1, 335542, Note_off_c, 0, 80, 53
1, 335568, Note_on_c, 0, 84, 51
1, 335590, Note_off_c, 0, 84, 62
1, 335626, Note_on_c, 0, 89, 54
1, 335655, Note_off_c, 0, 89, 53
1, 335672, Note_on_c, 0, 84, 57
1, 335708, Note_off_c, 0, 84, 63
1, 335737, Note_on_c, 0, 89, 62
1, 335754, Note_on_c, 0, 32, 44
1, 335793, Note_on_c, 0, 84, 54
1, 335803, Note_off_c, 0, 89, 51
1, 335827, Note_off_c, 0, 84, 65
1, 335874, Note_on_c, 0, 80, 45
1, 335905, Note_off_c, 0, 80, 51
1, 335914, Note_on_c, 0, 84, 56
1, 335956, Note_off_c, 0, 84, 61
1, 336010, Note_on_c, 0, 89, 57
1, 336040, Note_off_c, 0, 89, 59
1, 336057, Note_off_c, 0, 29, 37
1, 336060, Note_on_c, 0, 36, 49
1, 336083, Note_on_c, 0, 84, 46
1, 336107, Note_off_c, 0, 84, 58
1, 336111, Note_off_c, 0, 36, 58
1, 336117, Note_off_c, 0, 32, 38
1, 336117, Control_c, 0, 64, 114
1, 336120, Note_on_c, 0, 89, 68
1, 336132, Control_c, 0, 64, 87
1, 336136, Note_on_c, 0, 41, 56
1, 336147, Control_c, 0, 64, 67
1, 336162, Control_c, 0, 64, 22
1, 336171, Note_off_c, 0, 89, 56
1, 336177, Control_c, 0, 64, 0
1, 336181, Note_on_c, 0, 84, 60
1, 336208, Control_c, 0, 64, 41
1, 336213, Note_off_c, 0, 84, 66
1, 336222, Control_c, 0, 64, 64
1, 336237, Control_c, 0, 64, 76
1, 336245, Note_on_c, 0, 80, 44
1, 336252, Control_c, 0, 64, 97
1, 336267, Control_c, 0, 64, 127
1, 336283, Note_off_c, 0, 80, 49
1, 336290, Note_off_c, 0, 41, 0
1, 336290, Note_on_c, 0, 41, 3
1, 336290, Note_on_c, 0, 84, 61
1, 336330, Note_off_c, 0, 84, 60
1, 336378, Note_on_c, 0, 89, 54
1, 336410, Note_off_c, 0, 89, 52
1, 336445, Note_on_c, 0, 84, 55
1, 336471, Note_off_c, 0, 84, 62
1, 336495, Note_on_c, 0, 89, 62
1, 336504, Note_on_c, 0, 44, 52
1, 336558, Note_on_c, 0, 84, 56
1, 336564, Note_off_c, 0, 89, 54
1, 336591, Note_off_c, 0, 84, 66
1, 336629, Note_on_c, 0, 80, 45
1, 336666, Note_off_c, 0, 80, 48
1, 336671, Note_on_c, 0, 84, 57
1, 336724, Note_off_c, 0, 84, 59
1, 336766, Note_on_c, 0, 89, 55
1, 336789, Note_on_c, 0, 48, 45
1, 336800, Note_off_c, 0, 89, 56
1, 336823, Note_off_c, 0, 41, 31
1, 336835, Note_on_c, 0, 84, 58
1, 336847, Note_off_c, 0, 48, 57
1, 336860, Note_off_c, 0, 84, 65
1, 336873, Note_off_c, 0, 44, 28
1, 336881, Control_c, 0, 64, 100
1, 336886, Note_on_c, 0, 53, 51
1, 336888, Note_on_c, 0, 89, 59
1, 336896, Control_c, 0, 64, 78
1, 336911, Control_c, 0, 64, 60
1, 336926, Control_c, 0, 64, 0
1, 336944, Note_off_c, 0, 89, 56
1, 336950, Note_on_c, 0, 84, 49
1, 336970, Control_c, 0, 64, 46
1, 336978, Note_off_c, 0, 84, 60
1, 336985, Control_c, 0, 64, 64
1, 337001, Control_c, 0, 64, 74
1, 337016, Control_c, 0, 64, 89
1, 337020, Note_on_c, 0, 80, 47
1, 337031, Control_c, 0, 64, 111
1, 337045, Control_c, 0, 64, 127
1, 337055, Note_off_c, 0, 80, 49
1, 337070, Note_on_c, 0, 84, 57
1, 337106, Note_off_c, 0, 84, 64
1, 337138, Note_on_c, 0, 89, 55
1, 337172, Note_off_c, 0, 89, 53
1, 337196, Note_on_c, 0, 84, 53
1, 337238, Note_off_c, 0, 84, 62
1, 337264, Note_on_c, 0, 89, 57
1, 337280, Note_on_c, 0, 41, 47
1, 337326, Note_off_c, 0, 89, 51
1, 337330, Note_off_c, 0, 53, 39
1, 337332, Note_on_c, 0, 84, 57
1, 337368, Note_off_c, 0, 84, 64
1, 337424, Note_on_c, 0, 80, 46
1, 337458, Note_off_c, 0, 80, 49
1, 337478, Note_on_c, 0, 84, 54
1, 337522, Note_off_c, 0, 84, 59
1, 337569, Note_on_c, 0, 89, 51
1, 337641, Note_off_c, 0, 89, 44
1, 337664, Note_on_c, 0, 84, 44
1, 337800, Note_off_c, 0, 84, 59
1, 337832, Note_on_c, 0, 87, 53
1, 337846, Note_on_c, 0, 42, 44
1, 337884, Control_c, 0, 64, 113
1, 337899, Control_c, 0, 64, 95
1, 337913, Control_c, 0, 64, 79
1, 337928, Control_c, 0, 64, 62
1, 337938, Note_off_c, 0, 41, 34
1, 337943, Control_c, 0, 64, 0
1, 337957, Note_on_c, 0, 84, 40
1, 337969, Note_off_c, 0, 87, 0
1, 337987, Control_c, 0, 64, 15
1, 338002, Control_c, 0, 64, 61
1, 338007, Poly_aftertouch_c, 0, 87, 0
1, 338010, Note_off_c, 0, 84, 61
1, 338017, Control_c, 0, 64, 73
1, 338032, Control_c, 0, 64, 91
1, 338047, Control_c, 0, 64, 127
1, 338056, Note_on_c, 0, 80, 49
1, 338104, Note_off_c, 0, 80, 54
1, 338126, Note_on_c, 0, 84, 49
1, 338153, Note_off_c, 0, 84, 58
1, 338189, Note_on_c, 0, 87, 51
1, 338247, Note_on_c, 0, 84, 56
1, 338254, Note_off_c, 0, 87, 41
1, 338284, Note_off_c, 0, 84, 62
1, 338323, Note_on_c, 0, 80, 51
1, 338354, Note_off_c, 0, 80, 52
1, 338373, Note_on_c, 0, 84, 61
1, 338407, Note_off_c, 0, 84, 63
1, 338436, Note_on_c, 0, 87, 58
1, 338488, Note_off_c, 0, 87, 52
1, 338497, Note_on_c, 0, 84, 54
1, 338520, Note_off_c, 0, 84, 63
1, 338555, Note_on_c, 0, 80, 40
1, 338579, Note_off_c, 0, 80, 57
1, 338600, Note_on_c, 0, 84, 57
1, 338621, Note_off_c, 0, 84, 63
1, 338645, Note_on_c, 0, 87, 58
1, 338692, Note_off_c, 0, 87, 54
1, 338693, Note_on_c, 0, 84, 66
1, 338725, Note_off_c, 0, 84, 62
1, 338778, Note_on_c, 0, 80, 36
1, 338808, Note_off_c, 0, 80, 51
1, 338810, Note_on_c, 0, 84, 60
1, 338844, Note_off_c, 0, 84, 64
1, 338868, Note_on_c, 0, 87, 54
1, 338892, Note_off_c, 0, 87, 57
1, 338916, Note_on_c, 0, 84, 64
1, 338949, Note_off_c, 0, 84, 62
1, 338979, Note_on_c, 0, 87, 65
1, 339004, Note_on_c, 0, 48, 47
1, 339049, Note_on_c, 0, 84, 60
1, 339062, Note_off_c, 0, 87, 45
1, 339080, Note_off_c, 0, 84, 66
1, 339118, Note_on_c, 0, 80, 46
1, 339134, Note_off_c, 0, 42, 31
1, 339144, Note_off_c, 0, 80, 55
1, 339148, Note_on_c, 0, 84, 66
1, 339185, Note_off_c, 0, 84, 59
1, 339211, Note_on_c, 0, 87, 56
1, 339250, Note_off_c, 0, 87, 61
1, 339278, Note_on_c, 0, 84, 62
1, 339280, Note_on_c, 0, 51, 55
1, 339310, Note_off_c, 0, 84, 63
1, 339329, Note_off_c, 0, 48, 36
1, 339330, Note_on_c, 0, 87, 75
1, 339350, Control_c, 0, 64, 100
1, 339351, Note_off_c, 0, 51, 61
1, 339357, Note_on_c, 0, 54, 66
1, 339365, Control_c, 0, 64, 77
1, 339380, Control_c, 0, 64, 57
1, 339388, Note_off_c, 0, 87, 49
1, 339396, Control_c, 0, 64, 0
1, 339396, Note_on_c, 0, 84, 63
1, 339426, Control_c, 0, 64, 49
1, 339428, Note_off_c, 0, 84, 66
1, 339440, Control_c, 0, 64, 69
1, 339453, Note_on_c, 0, 80, 56
1, 339455, Control_c, 0, 64, 88
1, 339470, Control_c, 0, 64, 127
1, 339501, Note_off_c, 0, 80, 53
1, 339504, Note_on_c, 0, 84, 71
1, 339560, Note_off_c, 0, 84, 58
1, 339570, Note_on_c, 0, 87, 66
1, 339613, Note_off_c, 0, 87, 53
1, 339635, Note_on_c, 0, 84, 63
1, 339673, Note_off_c, 0, 84, 58
1, 339702, Note_on_c, 0, 60, 63
1, 339704, Note_on_c, 0, 87, 69
1, 339772, Note_on_c, 0, 84, 62
1, 339775, Note_off_c, 0, 87, 47
1, 339802, Note_off_c, 0, 84, 66
1, 339827, Note_on_c, 0, 80, 63
1, 339842, Note_off_c, 0, 54, 40
1, 339871, Note_on_c, 0, 84, 68
1, 339873, Note_off_c, 0, 80, 49
1, 339925, Note_off_c, 0, 84, 61
1, 339933, Note_on_c, 0, 87, 67
1, 339978, Note_off_c, 0, 87, 55
1, 339980, Note_on_c, 0, 63, 56
1, 339996, Note_on_c, 0, 84, 65
1, 340033, Note_off_c, 0, 84, 59
1, 340041, Note_off_c, 0, 60, 53
1, 340053, Note_off_c, 0, 63, 61
1, 340057, Note_on_c, 0, 87, 66
1, 340069, Note_on_c, 0, 66, 62
1, 340070, Control_c, 0, 64, 121
1, 340084, Control_c, 0, 64, 85
1, 340099, Control_c, 0, 64, 66
1, 340108, Note_on_c, 0, 84, 57
1, 340114, Control_c, 0, 64, 21
1, 340115, Note_off_c, 0, 87, 49
1, 340129, Control_c, 0, 64, 0
1, 340144, Control_c, 0, 64, 29
1, 340145, Note_off_c, 0, 84, 63
1, 340159, Control_c, 0, 64, 61
1, 340173, Control_c, 0, 64, 72
1, 340175, Note_on_c, 0, 80, 55
1, 340189, Control_c, 0, 64, 93
1, 340204, Control_c, 0, 64, 127
1, 340206, Note_off_c, 0, 80, 51
1, 340219, Note_on_c, 0, 84, 68
1, 340256, Note_off_c, 0, 84, 57
1, 340278, Note_on_c, 0, 87, 68
1, 340323, Note_off_c, 0, 87, 55
1, 340354, Note_on_c, 0, 84, 64
1, 340384, Note_off_c, 0, 84, 65
1, 340411, Note_on_c, 0, 87, 64
1, 340426, Note_on_c, 0, 54, 53
1, 340466, Note_on_c, 0, 84, 61
1, 340486, Note_off_c, 0, 87, 47
1, 340499, Note_off_c, 0, 84, 63
1, 340523, Note_off_c, 0, 66, 33
1, 340535, Note_on_c, 0, 80, 59
1, 340576, Note_off_c, 0, 80, 55
1, 340584, Note_on_c, 0, 84, 69
1, 340639, Note_off_c, 0, 84, 45
1, 340650, Note_on_c, 0, 87, 58
1, 340685, Note_off_c, 0, 54, 36
1, 340705, Note_off_c, 0, 87, 54
1, 340735, Note_on_c, 0, 84, 36
1, 340762, Note_on_c, 0, 89, 41
1, 340770, Note_off_c, 0, 84, 55
1, 340814, Note_on_c, 0, 53, 52
1, 340819, Control_c, 0, 64, 90
1, 340833, Control_c, 0, 64, 69
1, 340848, Control_c, 0, 64, 0
1, 340854, Note_off_c, 0, 89, 56
1, 340862, Note_on_c, 0, 85, 47
1, 340878, Control_c, 0, 64, 28
1, 340889, Note_off_c, 0, 85, 55
1, 340893, Control_c, 0, 64, 60
1, 340907, Control_c, 0, 64, 72
1, 340922, Control_c, 0, 64, 91
1, 340924, Note_on_c, 0, 80, 60
1, 340937, Control_c, 0, 64, 127
1, 340961, Note_off_c, 0, 80, 48
1, 340967, Control_c, 0, 67, 123
1, 340973, Note_on_c, 0, 85, 63
1, 340983, Control_c, 0, 67, 119
1, 340998, Control_c, 0, 67, 117
1, 341012, Control_c, 0, 67, 116
1, 341037, Note_off_c, 0, 85, 62
1, 341042, Control_c, 0, 67, 116
1, 341053, Note_on_c, 0, 89, 65
1, 341086, Control_c, 0, 67, 115
1, 341095, Note_off_c, 0, 89, 60
1, 341101, Control_c, 0, 67, 115
1, 341109, Note_on_c, 0, 85, 65
1, 341116, Control_c, 0, 67, 114
1, 341131, Control_c, 0, 67, 114
1, 341153, Note_on_c, 0, 56, 48
1, 341161, Note_off_c, 0, 85, 56
1, 341161, Control_c, 0, 67, 114
1, 341177, Note_on_c, 0, 89, 61
1, 341190, Control_c, 0, 67, 115
1, 341234, Note_on_c, 0, 85, 59
1, 341258, Note_off_c, 0, 89, 49
1, 341268, Note_off_c, 0, 85, 63
1, 341297, Note_on_c, 0, 80, 56
1, 341341, Note_off_c, 0, 80, 58
1, 341351, Note_on_c, 0, 85, 68
1, 341399, Note_off_c, 0, 85, 56
1, 341410, Note_on_c, 0, 61, 57
1, 341413, Note_on_c, 0, 89, 68
1, 341420, Control_c, 0, 67, 115
1, 341457, Note_off_c, 0, 89, 58
1, 341471, Note_on_c, 0, 85, 70
1, 341483, Note_off_c, 0, 61, 55
1, 341494, Control_c, 0, 64, 111
1, 341494, Control_c, 0, 67, 115
1, 341498, Note_on_c, 0, 65, 59
1, 341504, Note_off_c, 0, 56, 30
1, 341509, Control_c, 0, 64, 86
1, 341512, Note_off_c, 0, 53, 36
1, 341519, Note_on_c, 0, 89, 62
1, 341519, Note_off_c, 0, 85, 61
1, 341524, Control_c, 0, 64, 67
1, 341538, Control_c, 0, 64, 56
1, 341538, Control_c, 0, 67, 114
1, 341553, Control_c, 0, 64, 60
1, 341553, Control_c, 0, 67, 114
1, 341568, Control_c, 0, 64, 67
1, 341568, Control_c, 0, 67, 113
1, 341581, Note_on_c, 0, 85, 64
1, 341583, Control_c, 0, 64, 79
1, 341583, Control_c, 0, 67, 111
1, 341598, Control_c, 0, 64, 103
1, 341598, Control_c, 0, 67, 108
1, 341612, Control_c, 0, 64, 127
1, 341612, Control_c, 0, 67, 103
1, 341619, Note_off_c, 0, 85, 60
1, 341626, Note_on_c, 0, 80, 62
1, 341627, Control_c, 0, 67, 97
1, 341632, Note_off_c, 0, 89, 49
1, 341642, Control_c, 0, 67, 88
1, 341657, Control_c, 0, 67, 78
1, 341671, Control_c, 0, 67, 67
1, 341686, Control_c, 0, 67, 58
1, 341687, Note_off_c, 0, 80, 59
1, 341691, Note_on_c, 0, 85, 71
1, 341701, Control_c, 0, 67, 52
1, 341716, Control_c, 0, 67, 47
1, 341730, Control_c, 0, 67, 43
1, 341736, Note_off_c, 0, 85, 58
1, 341745, Control_c, 0, 67, 38
1, 341748, Note_on_c, 0, 89, 75
1, 341760, Control_c, 0, 67, 29
1, 341776, Control_c, 0, 67, 18
1, 341791, Control_c, 0, 67, 8
1, 341806, Note_off_c, 0, 89, 61
1, 341806, Control_c, 0, 67, 0
1, 341819, Note_on_c, 0, 85, 65
1, 341826, Note_on_c, 0, 53, 64
1, 341848, Note_off_c, 0, 65, 54
1, 341849, Note_off_c, 0, 85, 65
1, 341866, Note_on_c, 0, 89, 63
1, 341927, Note_off_c, 0, 53, 64
1, 341930, Note_on_c, 0, 85, 60
1, 341951, Note_off_c, 0, 85, 59
1, 341968, Note_off_c, 0, 89, 61
1, 342031, Note_on_c, 0, 85, 73
1, 342103, Poly_aftertouch_c, 0, 80, 0
1, 342174, Note_off_c, 0, 85, 32
1, 342203, Note_on_c, 0, 51, 56
1, 342228, Control_c, 0, 64, 109
1, 342243, Control_c, 0, 64, 85
1, 342258, Control_c, 0, 64, 67
1, 342272, Control_c, 0, 64, 46
1, 342286, Control_c, 0, 64, 54
1, 342301, Control_c, 0, 64, 67
1, 342305, Note_on_c, 0, 84, 62
1, 342316, Control_c, 0, 64, 84
1, 342331, Control_c, 0, 64, 127
1, 342337, Note_off_c, 0, 84, 65
1, 342373, Note_on_c, 0, 80, 60
1, 342400, Note_off_c, 0, 80, 58
1, 342421, Note_on_c, 0, 84, 65
1, 342453, Note_off_c, 0, 84, 63
1, 342490, Note_on_c, 0, 90, 56
1, 342499, Note_on_c, 0, 54, 55
1, 342515, Note_off_c, 0, 90, 64
1, 342533, Note_on_c, 0, 84, 58
1, 342567, Note_off_c, 0, 84, 60
1, 342579, Note_on_c, 0, 56, 65
1, 342588, Note_on_c, 0, 90, 70
1, 342606, Note_off_c, 0, 54, 38
1, 342625, Note_off_c, 0, 51, 29
1, 342628, Note_off_c, 0, 90, 58
1, 342650, Note_on_c, 0, 84, 54
1, 342669, Note_off_c, 0, 84, 63
1, 342764, Note_on_c, 0, 84, 57
1, 342793, Note_off_c, 0, 56, 59
1, 342805, Note_off_c, 0, 84, 61
1, 342829, Note_on_c, 0, 60, 54
1, 342839, Note_on_c, 0, 90, 62
1, 342877, Note_off_c, 0, 90, 63
1, 342884, Note_off_c, 0, 60, 49
1, 342901, Note_on_c, 0, 84, 53
1, 342925, Note_off_c, 0, 84, 60
1, 342941, Note_on_c, 0, 90, 66
1, 342946, Control_c, 0, 64, 90
1, 342953, Note_on_c, 0, 63, 55
1, 342961, Control_c, 0, 64, 69
1, 342976, Control_c, 0, 64, 33
1, 342991, Control_c, 0, 64, 0
1, 343013, Note_off_c, 0, 90, 62
1, 343015, Note_on_c, 0, 84, 51
1, 343021, Control_c, 0, 64, 59
1, 343036, Control_c, 0, 64, 77
1, 343037, Note_off_c, 0, 84, 60
1, 343051, Control_c, 0, 64, 105
1, 343065, Control_c, 0, 64, 127
1, 343072, Note_on_c, 0, 80, 56
1, 343109, Note_on_c, 0, 84, 62
1, 343109, Note_off_c, 0, 80, 54
1, 343157, Note_off_c, 0, 84, 59
1, 343197, Note_on_c, 0, 90, 53
1, 343222, Note_on_c, 0, 66, 52
1, 343231, Note_off_c, 0, 90, 59
1, 343264, Note_on_c, 0, 84, 56
1, 343271, Note_off_c, 0, 63, 32
1, 343320, Note_off_c, 0, 84, 51
1, 343349, Note_off_c, 0, 66, 58
1, 343376, Note_on_c, 0, 90, 61
1, 343377, Control_c, 0, 64, 122
1, 343380, Note_on_c, 0, 68, 48
1, 343392, Control_c, 0, 64, 89
1, 343406, Control_c, 0, 64, 69
1, 343421, Control_c, 0, 64, 22
1, 343436, Control_c, 0, 64, 0
1, 343459, Control_c, 0, 64, 13
1, 343474, Control_c, 0, 64, 56
1, 343477, Note_off_c, 0, 90, 55
1, 343481, Note_on_c, 0, 87, 63
1, 343488, Control_c, 0, 64, 68
1, 343503, Control_c, 0, 64, 80
1, 343518, Control_c, 0, 64, 101
1, 343525, Note_off_c, 0, 87, 55
1, 343532, Control_c, 0, 64, 127
1, 343532, Control_c, 0, 67, 8
1, 343547, Control_c, 0, 67, 10
1, 343562, Control_c, 0, 67, 12
1, 343573, Note_on_c, 0, 80, 49
1, 343577, Control_c, 0, 67, 16
1, 343592, Control_c, 0, 67, 21
1, 343606, Control_c, 0, 67, 29
1, 343621, Control_c, 0, 67, 38
1, 343636, Control_c, 0, 67, 47
1, 343640, Note_on_c, 0, 87, 62
1, 343643, Note_off_c, 0, 80, 43
1, 343650, Control_c, 0, 67, 53
1, 343657, Note_off_c, 0, 68, 39
1, 343665, Control_c, 0, 67, 61
1, 343680, Control_c, 0, 67, 67
1, 343695, Control_c, 0, 67, 72
1, 343707, Note_off_c, 0, 87, 57
1, 343710, Control_c, 0, 67, 77
1, 343725, Control_c, 0, 67, 81
1, 343739, Control_c, 0, 67, 85
1, 343740, Note_on_c, 0, 90, 52
1, 343749, Note_on_c, 0, 72, 49
1, 343754, Control_c, 0, 67, 87
1, 343770, Control_c, 0, 67, 89
1, 343783, Note_off_c, 0, 72, 63
1, 343785, Control_c, 0, 67, 90
1, 343800, Control_c, 0, 67, 91
1, 343806, Note_on_c, 0, 87, 63
1, 343814, Control_c, 0, 67, 92
1, 343826, Note_off_c, 0, 90, 59
1, 343829, Control_c, 0, 67, 93
1, 343844, Control_c, 0, 67, 94
1, 343847, Note_off_c, 0, 87, 57
1, 343858, Control_c, 0, 67, 94
1, 343873, Control_c, 0, 67, 95
1, 343903, Control_c, 0, 67, 95
1, 343933, Control_c, 0, 67, 96
1, 343948, Control_c, 0, 67, 98
1, 343963, Control_c, 0, 67, 100
1, 343978, Control_c, 0, 67, 102
1, 343993, Control_c, 0, 67, 104
1, 344001, Note_on_c, 0, 89, 62
1, 344007, Control_c, 0, 67, 107
1, 344022, Control_c, 0, 67, 110
1, 344025, Note_on_c, 0, 61, 39
1, 344037, Control_c, 0, 67, 113
1, 344051, Control_c, 0, 64, 117
1, 344051, Control_c, 0, 67, 116
1, 344066, Control_c, 0, 64, 102
1, 344066, Control_c, 0, 67, 120
1, 344081, Control_c, 0, 64, 88
1, 344081, Control_c, 0, 67, 123
1, 344096, Control_c, 0, 64, 76
1, 344096, Control_c, 0, 67, 125
1, 344111, Control_c, 0, 64, 62
1, 344111, Control_c, 0, 67, 126
1, 344125, Control_c, 0, 64, 0
1, 344125, Control_c, 0, 67, 127
1, 344208, Control_c, 0, 64, 55
1, 344223, Control_c, 0, 64, 68
1, 344237, Note_on_c, 0, 73, 36
1, 344237, Control_c, 0, 64, 82
1, 344252, Control_c, 0, 64, 106
1, 344256, Note_on_c, 0, 68, 33
1, 344267, Note_on_c, 0, 65, 18
1, 344267, Control_c, 0, 64, 127
1, 344293, Note_off_c, 0, 61, 40
1, 344326, Note_off_c, 0, 68, 44
1, 344349, Note_off_c, 0, 73, 42
1, 344383, Note_on_c, 0, 61, 38
1, 344392, Note_off_c, 0, 65, 35
1, 344502, Note_on_c, 0, 65, 30
1, 344514, Note_on_c, 0, 68, 35
1, 344517, Note_on_c, 0, 73, 17
1, 344535, Note_off_c, 0, 61, 37
1, 344569, Note_off_c, 0, 68, 55
1, 344586, Note_off_c, 0, 73, 42
1, 344624, Note_off_c, 0, 65, 40
1, 344632, Note_on_c, 0, 61, 36
1, 344657, Note_off_c, 0, 89, 36
1, 344738, Note_off_c, 0, 61, 37
1, 344741, Note_on_c, 0, 65, 37
1, 344750, Note_on_c, 0, 73, 18
1, 344752, Note_on_c, 0, 68, 28
1, 344800, Note_off_c, 0, 68, 45
1, 344821, Note_off_c, 0, 73, 42
1, 344848, Note_on_c, 0, 61, 40
1, 344868, Note_off_c, 0, 65, 35
1, 344970, Note_on_c, 0, 65, 21
1, 344982, Note_on_c, 0, 68, 33
1, 344984, Note_on_c, 0, 73, 20
1, 345004, Note_off_c, 0, 61, 32
1, 345048, Note_off_c, 0, 68, 44
1, 345053, Note_off_c, 0, 73, 42
1, 345075, Note_on_c, 0, 61, 32
1, 345108, Note_off_c, 0, 65, 38
1, 345221, Note_off_c, 0, 61, 43
1, 345222, Note_on_c, 0, 65, 25
1, 345233, Note_on_c, 0, 77, 47
1, 345236, Note_on_c, 0, 68, 31
1, 345253, Note_on_c, 0, 73, 10
1, 345325, Note_off_c, 0, 73, 42
1, 345335, Note_off_c, 0, 68, 36
1, 345337, Note_on_c, 0, 61, 43
1, 345460, Note_off_c, 0, 65, 0
1, 345483, Note_on_c, 0, 65, 8
1, 345488, Note_on_c, 0, 68, 39
1, 345494, Note_off_c, 0, 61, 39
1, 345518, Note_on_c, 0, 73, 7
1, 345525, Note_on_c, 0, 80, 56
1, 345549, Note_off_c, 0, 77, 34
1, 345560, Note_off_c, 0, 68, 53
1, 345588, Note_off_c, 0, 73, 44
1, 345595, Note_off_c, 0, 80, 63
1, 345613, Note_on_c, 0, 61, 47
1, 345613, Note_on_c, 0, 85, 65
1, 345626, Note_off_c, 0, 65, 38
1, 345697, Note_off_c, 0, 61, 54
1, 345735, Note_on_c, 0, 65, 29
1, 345745, Note_on_c, 0, 73, 24
1, 345754, Note_on_c, 0, 68, 32
1, 345814, Note_off_c, 0, 68, 48
1, 345856, Note_on_c, 0, 61, 44
1, 345859, Note_off_c, 0, 73, 43
1, 345885, Note_off_c, 0, 65, 37
1, 345898, Control_c, 0, 67, 127
1, 345942, Control_c, 0, 67, 126
1, 345948, Note_on_c, 0, 89, 71
1, 345957, Control_c, 0, 67, 126
1, 345972, Control_c, 0, 67, 125
1, 345986, Note_off_c, 0, 61, 54
1, 345993, Note_off_c, 0, 85, 61
1, 345999, Note_on_c, 0, 65, 33
1, 346011, Note_on_c, 0, 73, 20
1, 346031, Note_on_c, 0, 68, 26
1, 346031, Control_c, 0, 67, 125
1, 346057, Note_off_c, 0, 73, 47
1, 346061, Control_c, 0, 67, 124
1, 346073, Note_off_c, 0, 68, 48
1, 346076, Control_c, 0, 67, 124
1, 346091, Control_c, 0, 67, 123
1, 346099, Note_on_c, 0, 61, 56
1, 346106, Control_c, 0, 67, 123
1, 346135, Control_c, 0, 67, 122
1, 346150, Control_c, 0, 67, 121
1, 346155, Note_off_c, 0, 65, 0
1, 346165, Control_c, 0, 67, 120
1, 346180, Control_c, 0, 67, 119
1, 346189, Note_on_c, 0, 65, 9
1, 346194, Note_off_c, 0, 61, 60
1, 346195, Control_c, 0, 67, 119
1, 346209, Control_c, 0, 67, 118
1, 346224, Control_c, 0, 67, 118
1, 346231, Note_on_c, 0, 85, 75
1, 346232, Note_on_c, 0, 68, 17
1, 346235, Note_on_c, 0, 73, 27
1, 346239, Control_c, 0, 67, 116
1, 346253, Control_c, 0, 67, 115
1, 346268, Control_c, 0, 67, 114
1, 346283, Control_c, 0, 67, 112
1, 346298, Control_c, 0, 67, 109
1, 346300, Note_off_c, 0, 65, 36
1, 346302, Note_off_c, 0, 68, 43
1, 346310, Note_on_c, 0, 84, 77
1, 346313, Control_c, 0, 67, 104
1, 346327, Control_c, 0, 67, 97
1, 346338, Note_off_c, 0, 73, 43
1, 346339, Note_on_c, 0, 63, 55
1, 346342, Control_c, 0, 64, 102
1, 346342, Control_c, 0, 67, 87
1, 346357, Control_c, 0, 64, 77
1, 346357, Control_c, 0, 67, 73
1, 346358, Note_off_c, 0, 85, 58
1, 346362, Note_off_c, 0, 89, 51
1, 346372, Control_c, 0, 64, 58
1, 346372, Control_c, 0, 67, 57
1, 346387, Control_c, 0, 64, 0
1, 346387, Control_c, 0, 67, 40
1, 346401, Control_c, 0, 67, 23
1, 346416, Control_c, 0, 64, 37
1, 346416, Control_c, 0, 67, 0
1, 346431, Control_c, 0, 64, 64
1, 346445, Note_off_c, 0, 63, 62
1, 346453, Control_c, 0, 64, 78
1, 346459, Note_on_c, 0, 75, 46
1, 346468, Control_c, 0, 64, 113
1, 346476, Note_on_c, 0, 66, 36
1, 346483, Control_c, 0, 64, 127
1, 346484, Note_on_c, 0, 68, 29
1, 346532, Note_off_c, 0, 68, 55
1, 346535, Note_off_c, 0, 66, 50
1, 346547, Note_off_c, 0, 75, 39
1, 346568, Note_on_c, 0, 63, 54
1, 346674, Note_on_c, 0, 87, 74
1, 346678, Note_on_c, 0, 75, 47
1, 346695, Note_off_c, 0, 63, 59
1, 346710, Note_on_c, 0, 66, 38
1, 346720, Note_off_c, 0, 84, 58
1, 346738, Note_off_c, 0, 75, 55
1, 346741, Note_on_c, 0, 68, 32
1, 346774, Note_off_c, 0, 68, 52
1, 346801, Note_on_c, 0, 63, 56
1, 346864, Note_off_c, 0, 66, 0
1, 346884, Note_on_c, 0, 75, 46
1, 346885, Note_on_c, 0, 68, 43
1, 346899, Note_off_c, 0, 63, 61
1, 346901, Poly_aftertouch_c, 0, 66, 127
1, 346927, Note_off_c, 0, 68, 65
1, 346931, Note_off_c, 0, 75, 62
1, 346939, Poly_aftertouch_c, 0, 66, 0
1, 346952, Note_on_c, 0, 84, 68
1, 346973, Note_off_c, 0, 87, 56
1, 347073, Note_on_c, 0, 85, 72
1, 347076, Note_off_c, 0, 84, 60
1, 347094, Note_on_c, 0, 65, 50
1, 347135, Control_c, 0, 64, 99
1, 347149, Control_c, 0, 64, 78
1, 347164, Control_c, 0, 64, 58
1, 347179, Control_c, 0, 64, 0
1, 347231, Control_c, 0, 64, 42
1, 347246, Control_c, 0, 64, 64
1, 347261, Control_c, 0, 64, 77
1, 347262, Note_off_c, 0, 65, 55
1, 347271, Note_on_c, 0, 77, 27
1, 347272, Note_on_c, 0, 73, 35
1, 347275, Control_c, 0, 64, 98
1, 347289, Note_on_c, 0, 68, 28
1, 347290, Control_c, 0, 64, 127
1, 347336, Note_off_c, 0, 77, 43
1, 347340, Note_off_c, 0, 73, 43
1, 347342, Note_off_c, 0, 68, 46
1, 347378, Note_on_c, 0, 65, 51
1, 347493, Note_on_c, 0, 80, 57
1, 347495, Note_off_c, 0, 65, 56
1, 347511, Note_on_c, 0, 73, 38
1, 347537, Note_off_c, 0, 85, 60
1, 347538, Note_on_c, 0, 68, 19
1, 347584, Poly_aftertouch_c, 0, 77, 127
1, 347596, Note_off_c, 0, 68, 45
1, 347599, Note_off_c, 0, 73, 39
1, 347619, Poly_aftertouch_c, 0, 77, 0
1, 347620, Note_on_c, 0, 65, 58
1, 347722, Note_on_c, 0, 73, 50
1, 347728, Note_off_c, 0, 65, 57
1, 347737, Note_on_c, 0, 77, 41
1, 347745, Note_on_c, 0, 68, 35
1, 347803, Note_off_c, 0, 77, 56
1, 347819, Note_off_c, 0, 73, 60
1, 347846, Note_on_c, 0, 65, 64
1, 347856, Note_off_c, 0, 68, 0
1, 347893, Poly_aftertouch_c, 0, 68, 0
1, 347917, Note_off_c, 0, 80, 57
1, 347962, Note_off_c, 0, 65, 59
1, 347968, Note_on_c, 0, 73, 52
1, 347978, Note_on_c, 0, 77, 45
1, 348005, Note_off_c, 0, 77, 58
1, 348033, Note_off_c, 0, 73, 61
1, 348041, Note_on_c, 0, 68, 35
1, 348068, Note_on_c, 0, 65, 56
1, 348073, Note_off_c, 0, 68, 53
1, 348189, Note_off_c, 0, 65, 59
1, 348192, Note_on_c, 0, 77, 74
1, 348210, Note_on_c, 0, 68, 45
1, 348216, Note_on_c, 0, 73, 54
1, 348261, Note_off_c, 0, 73, 55
1, 348284, Note_off_c, 0, 68, 62
1, 348305, Note_on_c, 0, 65, 65
1, 348392, Note_off_c, 0, 65, 61
1, 348398, Note_on_c, 0, 73, 53
1, 348405, Note_on_c, 0, 68, 58
1, 348441, Note_off_c, 0, 73, 62
1, 348448, Note_on_c, 0, 80, 83
1, 348474, Note_off_c, 0, 77, 56
1, 348499, Note_off_c, 0, 68, 58
1, 348518, Note_on_c, 0, 85, 93
1, 348529, Note_off_c, 0, 80, 65
1, 348529, Note_on_c, 0, 65, 61
1, 348629, Note_off_c, 0, 65, 60
1, 348635, Note_on_c, 0, 68, 49
1, 348646, Note_on_c, 0, 77, 54
1, 348648, Note_on_c, 0, 73, 60
1, 348693, Note_off_c, 0, 77, 59
1, 348725, Note_off_c, 0, 73, 57
1, 348733, Note_off_c, 0, 68, 62
1, 348745, Note_on_c, 0, 65, 72
1, 348851, Note_on_c, 0, 89, 91
1, 348866, Note_off_c, 0, 65, 60
1, 348867, Note_on_c, 0, 73, 57
1, 348878, Note_on_c, 0, 77, 60
1, 348884, Note_on_c, 0, 68, 45
1, 348896, Note_off_c, 0, 85, 63
1, 348923, Note_off_c, 0, 77, 58
1, 348958, Note_off_c, 0, 73, 60
1, 348964, Note_on_c, 0, 65, 82
1, 348988, Note_off_c, 0, 68, 55
1, 349059, Note_on_c, 0, 77, 64
1, 349060, Note_off_c, 0, 65, 63
1, 349072, Note_on_c, 0, 73, 66
1, 349091, Note_off_c, 0, 77, 62
1, 349093, Note_on_c, 0, 68, 31
1, 349100, Note_on_c, 0, 85, 95
1, 349123, Note_off_c, 0, 68, 54
1, 349154, Note_off_c, 0, 89, 58
1, 349161, Note_off_c, 0, 73, 60
1, 349172, Note_on_c, 0, 84, 98
1, 349183, Note_on_c, 0, 66, 69
1, 349203, Control_c, 0, 64, 100
1, 349218, Control_c, 0, 64, 71
1, 349224, Note_off_c, 0, 85, 61
1, 349233, Control_c, 0, 64, 0
1, 349273, Note_on_c, 0, 75, 64
1, 349284, Note_off_c, 0, 66, 63
1, 349288, Note_on_c, 0, 69, 56
1, 349289, Note_on_c, 0, 72, 62
1, 349307, Control_c, 0, 64, 63
1, 349322, Control_c, 0, 64, 78
1, 349337, Control_c, 0, 64, 106
1, 349342, Note_off_c, 0, 75, 57
1, 349351, Control_c, 0, 64, 127
1, 349361, Note_off_c, 0, 72, 63
1, 349365, Note_on_c, 0, 66, 70
1, 349393, Note_off_c, 0, 69, 50
1, 349495, Note_on_c, 0, 75, 60
1, 349495, Note_on_c, 0, 87, 94
1, 349498, Note_off_c, 0, 66, 62
1, 349516, Note_on_c, 0, 72, 56
1, 349518, Note_on_c, 0, 69, 58
1, 349556, Note_off_c, 0, 84, 61
1, 349558, Note_off_c, 0, 75, 54
1, 349585, Note_off_c, 0, 72, 64
1, 349594, Note_on_c, 0, 66, 77
1, 349633, Note_off_c, 0, 69, 38
1, 349681, Note_on_c, 0, 75, 64
1, 349693, Note_on_c, 0, 69, 49
1, 349704, Note_on_c, 0, 72, 64
1, 349704, Note_off_c, 0, 66, 58
1, 349761, Note_off_c, 0, 75, 56
1, 349764, Note_on_c, 0, 84, 91
1, 349765, Note_off_c, 0, 72, 57
1, 349778, Note_off_c, 0, 69, 60
1, 349820, Note_off_c, 0, 87, 60
1, 349839, Note_on_c, 0, 83, 89
1, 349845, Note_on_c, 0, 65, 62
1, 349862, Note_off_c, 0, 84, 63
1, 349878, Control_c, 0, 64, 108
1, 349892, Control_c, 0, 64, 82
1, 349907, Control_c, 0, 64, 59
1, 349922, Control_c, 0, 64, 0
1, 349969, Note_on_c, 0, 68, 50
1, 349980, Note_on_c, 0, 71, 60
1, 349987, Note_on_c, 0, 74, 41
1, 349987, Note_off_c, 0, 65, 58
1, 349996, Control_c, 0, 64, 59
1, 350011, Control_c, 0, 64, 74
1, 350026, Control_c, 0, 64, 96
1, 350041, Control_c, 0, 64, 127
1, 350041, Note_off_c, 0, 71, 53
1, 350043, Note_off_c, 0, 74, 58
1, 350066, Note_off_c, 0, 68, 62
1, 350072, Note_on_c, 0, 65, 55
1, 350182, Note_on_c, 0, 86, 86
1, 350185, Note_off_c, 0, 65, 60
1, 350204, Note_on_c, 0, 68, 58
1, 350217, Note_on_c, 0, 71, 49
1, 350219, Note_on_c, 0, 74, 50
1, 350263, Note_off_c, 0, 71, 59
1, 350265, Note_off_c, 0, 83, 60
1, 350276, Note_off_c, 0, 74, 56
1, 350281, Note_off_c, 0, 68, 62
1, 350300, Note_on_c, 0, 65, 65
1, 350401, Note_off_c, 0, 65, 60
1, 350404, Note_on_c, 0, 74, 55
1, 350410, Note_on_c, 0, 68, 57
1, 350425, Note_on_c, 0, 71, 53
1, 350486, Note_off_c, 0, 74, 62
1, 350491, Note_off_c, 0, 71, 59
1, 350506, Note_off_c, 0, 68, 62
1, 350512, Note_on_c, 0, 65, 72
1, 350616, Note_on_c, 0, 74, 63
1, 350616, Note_on_c, 0, 68, 66
1, 350622, Note_off_c, 0, 65, 62
1, 350625, Note_on_c, 0, 71, 63
1, 350660, Note_off_c, 0, 86, 48
1, 350697, Note_off_c, 0, 74, 59
1, 350703, Note_off_c, 0, 71, 62
1, 350709, Note_off_c, 0, 68, 62
1, 350718, Note_on_c, 0, 65, 78
1, 350822, Note_on_c, 0, 86, 91
1, 350837, Note_on_c, 0, 74, 61
1, 350840, Note_on_c, 0, 68, 60
1, 350846, Note_on_c, 0, 71, 64
1, 350858, Note_off_c, 0, 65, 61
1, 350885, Note_off_c, 0, 86, 67
1, 350909, Note_off_c, 0, 74, 62
1, 350914, Note_off_c, 0, 71, 63
1, 350921, Note_on_c, 0, 65, 73
1, 350929, Note_off_c, 0, 68, 63
1, 351036, Note_on_c, 0, 74, 64
1, 351040, Note_on_c, 0, 71, 69
1, 351042, Note_on_c, 0, 68, 71
1, 351048, Note_off_c, 0, 65, 61
1, 351072, Note_on_c, 0, 83, 102
1, 351108, Note_off_c, 0, 71, 62
1, 351111, Note_off_c, 0, 74, 61
1, 351138, Note_on_c, 0, 84, 101
1, 351143, Note_off_c, 0, 68, 63
1, 351150, Note_on_c, 0, 64, 82
1, 351167, Note_off_c, 0, 83, 63
1, 351168, Control_c, 0, 64, 103
1, 351183, Control_c, 0, 64, 76
1, 351197, Control_c, 0, 64, 36
1, 351212, Control_c, 0, 64, 0
1, 351245, Note_on_c, 0, 72, 70
1, 351256, Note_on_c, 0, 76, 70
1, 351260, Note_off_c, 0, 64, 63
1, 351266, Note_on_c, 0, 67, 54
1, 351287, Control_c, 0, 64, 58
1, 351302, Control_c, 0, 64, 77
1, 351317, Control_c, 0, 64, 127
1, 351317, Note_off_c, 0, 76, 54
1, 351349, Note_on_c, 0, 64, 84
1, 351367, Note_off_c, 0, 72, 54
1, 351459, Note_off_c, 0, 67, 0
1, 351471, Note_on_c, 0, 67, 44
1, 351477, Note_on_c, 0, 72, 73
1, 351478, Note_on_c, 0, 88, 102
1, 351490, Note_on_c, 0, 76, 71
1, 351497, Note_off_c, 0, 84, 55
1, 351504, Note_off_c, 0, 64, 62
1, 351561, Note_off_c, 0, 76, 57
1, 351585, Note_on_c, 0, 64, 83
1, 351597, Note_off_c, 0, 72, 57
1, 351610, Note_off_c, 0, 67, 38
1, 351707, Note_on_c, 0, 72, 78
1, 351709, Note_on_c, 0, 67, 60
1, 351710, Note_on_c, 0, 76, 74
1, 351721, Note_off_c, 0, 64, 61
1, 351786, Note_off_c, 0, 76, 58
1, 351808, Note_off_c, 0, 88, 66
1, 351814, Note_on_c, 0, 64, 86
1, 351821, Note_off_c, 0, 72, 60
1, 351858, Note_off_c, 0, 67, 34
1, 351922, Note_on_c, 0, 72, 81
1, 351925, Note_on_c, 0, 76, 76
1, 351926, Note_on_c, 0, 67, 58
1, 351937, Note_off_c, 0, 64, 61
1, 351981, Note_off_c, 0, 76, 61
1, 352010, Note_on_c, 0, 64, 87
1, 352023, Note_off_c, 0, 72, 58
1, 352043, Note_off_c, 0, 67, 57
1, 352130, Note_on_c, 0, 72, 81
1, 352133, Note_on_c, 0, 91, 105
1, 352138, Note_on_c, 0, 79, 95
1, 352142, Note_on_c, 0, 76, 84
1, 352142, Note_on_c, 0, 67, 66
1, 352150, Note_off_c, 0, 64, 62
1, 352174, Note_on_c, 0, 81, 42
1, 352175, Note_off_c, 0, 81, 127
1, 352177, Note_off_c, 0, 79, 65
1, 352181, Note_off_c, 0, 91, 65
1, 352193, Note_off_c, 0, 76, 59
1, 352227, Note_off_c, 0, 72, 63
1, 352236, Note_on_c, 0, 64, 80
1, 352314, Note_on_c, 0, 72, 80
1, 352318, Note_on_c, 0, 76, 68
1, 352334, Note_off_c, 0, 72, 72
1, 352336, Note_off_c, 0, 76, 67
1, 352345, Note_off_c, 0, 64, 64
1, 352356, Note_off_c, 0, 67, 54
1, 352366, Note_on_c, 0, 89, 97
1, 352369, Note_on_c, 0, 77, 87
1, 352384, Note_off_c, 0, 89, 69
1, 352387, Note_off_c, 0, 77, 73
1, 352431, Note_on_c, 0, 88, 103
1, 352432, Note_on_c, 0, 76, 81
1, 352458, Control_c, 0, 64, 101
1, 352461, Note_on_c, 0, 58, 82
1, 352466, Note_on_c, 0, 77, 48
1, 352473, Control_c, 0, 64, 71
1, 352488, Control_c, 0, 64, 0
1, 352491, Note_off_c, 0, 77, 38
1, 352548, Control_c, 0, 64, 42
1, 352563, Control_c, 0, 64, 70
1, 352577, Note_on_c, 0, 67, 69
1, 352577, Control_c, 0, 64, 96
1, 352582, Note_on_c, 0, 64, 59
1, 352585, Note_on_c, 0, 61, 71
1, 352592, Control_c, 0, 64, 127
1, 352592, Note_off_c, 0, 76, 64
1, 352608, Note_off_c, 0, 58, 62
1, 352620, Note_off_c, 0, 88, 68
1, 352668, Note_on_c, 0, 58, 81
1, 352674, Note_off_c, 0, 67, 60
1, 352691, Note_off_c, 0, 64, 50
1, 352700, Note_off_c, 0, 61, 61
1, 352799, Note_on_c, 0, 91, 111
1, 352801, Note_on_c, 0, 79, 101
1, 352807, Note_on_c, 0, 67, 68
1, 352810, Note_on_c, 0, 64, 73
1, 352813, Note_on_c, 0, 61, 69
1, 352820, Note_off_c, 0, 58, 63
1, 352835, Note_on_c, 0, 81, 44
1, 352836, Note_off_c, 0, 81, 127
1, 352883, Note_off_c, 0, 67, 58
1, 352893, Note_on_c, 0, 58, 85
1, 352901, Note_off_c, 0, 61, 59
1, 352917, Note_off_c, 0, 64, 45
1, 353007, Note_on_c, 0, 67, 70
1, 353022, Note_on_c, 0, 61, 68
1, 353027, Note_on_c, 0, 64, 73
1, 353028, Note_off_c, 0, 58, 61
1, 353112, Note_off_c, 0, 67, 59
1, 353123, Note_on_c, 0, 58, 92
1, 353125, Note_off_c, 0, 64, 60
1, 353136, Note_off_c, 0, 61, 59
1, 353218, Note_off_c, 0, 79, 52
1, 353235, Note_on_c, 0, 67, 80
1, 353236, Note_on_c, 0, 64, 82
1, 353239, Note_on_c, 0, 61, 75
1, 353245, Note_off_c, 0, 58, 61
1, 353246, Note_off_c, 0, 91, 51
1, 353319, Note_off_c, 0, 67, 60
1, 353329, Note_on_c, 0, 58, 89
1, 353332, Note_off_c, 0, 64, 56
1, 353361, Note_off_c, 0, 61, 58
1, 353440, Note_on_c, 0, 64, 76
1, 353443, Note_on_c, 0, 91, 104
1, 353445, Note_on_c, 0, 67, 78
1, 353446, Note_on_c, 0, 79, 101
1, 353450, Note_on_c, 0, 61, 70
1, 353454, Note_off_c, 0, 58, 61
1, 353537, Note_off_c, 0, 79, 60
1, 353540, Note_off_c, 0, 67, 62
1, 353546, Note_on_c, 0, 58, 95
1, 353549, Note_off_c, 0, 91, 64
1, 353572, Note_off_c, 0, 64, 38
1, 353581, Note_off_c, 0, 61, 62
1, 353665, Note_on_c, 0, 67, 75
1, 353671, Note_on_c, 0, 61, 68
1, 353681, Note_off_c, 0, 58, 61
1, 353683, Note_on_c, 0, 64, 77
1, 353700, Note_on_c, 0, 88, 103
1, 353703, Note_on_c, 0, 76, 101
1, 353725, Note_off_c, 0, 76, 66
1, 353732, Note_off_c, 0, 88, 67
1, 353738, Note_off_c, 0, 67, 54
1, 353757, Note_off_c, 0, 64, 57
1, 353764, Note_off_c, 0, 61, 58
1, 353780, Note_on_c, 0, 56, 89
1, 353782, Note_on_c, 0, 89, 108
1, 353788, Note_on_c, 0, 77, 102
1, 353801, Control_c, 0, 64, 93
1, 353815, Control_c, 0, 64, 66
1, 353830, Control_c, 0, 64, 0
1, 353907, Note_on_c, 0, 65, 77
1, 353907, Note_on_c, 0, 60, 62
1, 353910, Note_on_c, 0, 68, 74
1, 353919, Control_c, 0, 64, 67
1, 353920, Note_off_c, 0, 77, 62
1, 353941, Control_c, 0, 64, 91
1, 353943, Note_off_c, 0, 56, 62
1, 353956, Control_c, 0, 64, 127
1, 353993, Note_off_c, 0, 68, 60
1, 354017, Note_on_c, 0, 56, 89
1, 354050, Note_off_c, 0, 65, 56
1, 354057, Note_off_c, 0, 60, 59
1, 354146, Note_on_c, 0, 92, 102
1, 354150, Note_on_c, 0, 65, 81
1, 354151, Note_on_c, 0, 80, 104
1, 354154, Note_on_c, 0, 60, 62
1, 354160, Note_on_c, 0, 68, 74
1, 354171, Note_off_c, 0, 89, 59
1, 354176, Note_off_c, 0, 56, 61
1, 354229, Note_off_c, 0, 68, 58
1, 354263, Note_on_c, 0, 56, 91
1, 354280, Note_off_c, 0, 65, 60
1, 354284, Note_off_c, 0, 60, 48
1, 354383, Note_on_c, 0, 60, 50
1, 354384, Note_on_c, 0, 65, 80
1, 354388, Note_on_c, 0, 68, 77
1, 354410, Note_off_c, 0, 56, 62
1, 354464, Note_off_c, 0, 68, 61
1, 354494, Note_on_c, 0, 56, 91
1, 354508, Note_off_c, 0, 65, 58
1, 354545, Note_off_c, 0, 92, 62
1, 354573, Note_off_c, 0, 60, 0
1, 354586, Note_off_c, 0, 80, 39
1, 354591, Note_on_c, 0, 60, 39
1, 354600, Note_on_c, 0, 65, 85
1, 354602, Note_on_c, 0, 68, 83
1, 354622, Note_off_c, 0, 56, 57
1, 354671, Note_off_c, 0, 68, 62
1, 354709, Note_on_c, 0, 56, 96
1, 354724, Note_off_c, 0, 65, 58
1, 354805, Note_off_c, 0, 60, 0
1, 354805, Note_on_c, 0, 60, 30
1, 354817, Note_on_c, 0, 65, 86
1, 354823, Note_on_c, 0, 92, 101
1, 354824, Note_on_c, 0, 68, 82
1, 354826, Note_on_c, 0, 80, 98
1, 354836, Note_off_c, 0, 56, 61
1, 354868, Note_off_c, 0, 92, 66
1, 354889, Note_off_c, 0, 68, 61
1, 354904, Note_off_c, 0, 80, 58
1, 354921, Note_on_c, 0, 56, 91
1, 354932, Note_off_c, 0, 65, 60
1, 354975, Poly_aftertouch_c, 0, 62, 127
1, 354990, Note_on_c, 0, 65, 81
1, 355010, Note_off_c, 0, 65, 69
1, 355012, Note_on_c, 0, 68, 45
1, 355022, Note_on_c, 0, 87, 12
1, 355036, Note_off_c, 0, 60, 53
1, 355037, Note_off_c, 0, 68, 59
1, 355043, Note_off_c, 0, 56, 66
1, 355052, Poly_aftertouch_c, 0, 62, 0
1, 355073, Note_off_c, 0, 87, 49
1, 355094, Note_on_c, 0, 89, 102
1, 355096, Note_on_c, 0, 77, 97
1, 355134, Note_off_c, 0, 89, 66
1, 355146, Note_off_c, 0, 77, 67
1, 355223, Control_c, 0, 64, 109
1, 355233, Note_on_c, 0, 46, 101
1, 355237, Note_on_c, 0, 34, 94
1, 355238, Control_c, 0, 64, 67
1, 355253, Control_c, 0, 64, 0
1, 355327, Control_c, 0, 64, 63
1, 355342, Control_c, 0, 64, 95
1, 355344, Note_off_c, 0, 34, 65
1, 355358, Control_c, 0, 64, 127
1, 355368, Note_on_c, 0, 61, 73
1, 355374, Note_off_c, 0, 46, 66
1, 355426, Note_on_c, 0, 58, 69
1, 355453, Note_off_c, 0, 61, 61
1, 355466, Note_on_c, 0, 66, 73
1, 355484, Note_off_c, 0, 58, 62
1, 355495, Note_off_c, 0, 66, 65
1, 355536, Note_on_c, 0, 49, 62
1, 355573, Note_on_c, 0, 54, 74
1, 355624, Note_off_c, 0, 49, 61
1, 355633, Note_off_c, 0, 54, 60
1, 355633, Note_on_c, 0, 58, 75
1, 355683, Note_off_c, 0, 58, 50
1, 355704, Note_on_c, 0, 66, 69
1, 355751, Note_on_c, 0, 61, 72
1, 355788, Note_off_c, 0, 66, 63
1, 355793, Note_on_c, 0, 70, 66
1, 355797, Note_off_c, 0, 61, 57
1, 355823, Note_off_c, 0, 70, 67
1, 355852, Note_on_c, 0, 54, 83
1, 355914, Note_on_c, 0, 58, 90
1, 355980, Note_on_c, 0, 61, 106
1, 356022, Note_off_c, 0, 54, 62
1, 356043, Note_off_c, 0, 58, 64
1, 356056, Note_on_c, 0, 70, 78
1, 356116, Note_off_c, 0, 61, 59
1, 356118, Note_on_c, 0, 66, 69
1, 356126, Note_off_c, 0, 70, 60
1, 356154, Note_off_c, 0, 66, 63
1, 356163, Note_on_c, 0, 73, 72
1, 356194, Note_off_c, 0, 73, 69
1, 356235, Note_on_c, 0, 58, 64
1, 356288, Note_on_c, 0, 61, 72
1, 356322, Note_off_c, 0, 58, 61
1, 356341, Note_on_c, 0, 66, 76
1, 356343, Note_off_c, 0, 61, 59
1, 356377, Note_off_c, 0, 66, 53
1, 356397, Note_on_c, 0, 73, 75
1, 356456, Note_on_c, 0, 70, 75
1, 356484, Note_on_c, 0, 78, 81
1, 356485, Note_off_c, 0, 73, 60
1, 356502, Note_off_c, 0, 70, 63
1, 356533, Note_off_c, 0, 78, 64
1, 356551, Note_on_c, 0, 61, 82
1, 356606, Note_on_c, 0, 66, 89
1, 356670, Note_on_c, 0, 70, 104
1, 356702, Note_off_c, 0, 66, 67
1, 356703, Note_off_c, 0, 61, 58
1, 356742, Note_on_c, 0, 78, 87
1, 356795, Note_on_c, 0, 73, 84
1, 356813, Note_off_c, 0, 78, 59
1, 356845, Note_on_c, 0, 82, 89
1, 356859, Note_off_c, 0, 70, 31
1, 356860, Note_off_c, 0, 73, 62
1, 356886, Note_off_c, 0, 82, 66
1, 356911, Note_on_c, 0, 66, 77
1, 356965, Note_on_c, 0, 70, 90
1, 356998, Note_off_c, 0, 66, 64
1, 357018, Note_on_c, 0, 73, 93
1, 357032, Note_off_c, 0, 70, 63
1, 357079, Note_on_c, 0, 82, 83
1, 357100, Note_off_c, 0, 73, 62
1, 357120, Note_on_c, 0, 78, 81
1, 357136, Note_off_c, 0, 82, 62
1, 357166, Note_on_c, 0, 85, 84
1, 357178, Note_off_c, 0, 78, 62
1, 357204, Note_off_c, 0, 85, 60
1, 357219, Note_on_c, 0, 70, 78
1, 357262, Note_on_c, 0, 73, 92
1, 357302, Note_off_c, 0, 70, 65
1, 357326, Note_on_c, 0, 78, 98
1, 357335, Note_off_c, 0, 73, 66
1, 357383, Note_on_c, 0, 85, 88
1, 357436, Note_on_c, 0, 82, 81
1, 357474, Note_off_c, 0, 78, 57
1, 357479, Note_on_c, 0, 90, 90
1, 357489, Note_off_c, 0, 85, 62
1, 357501, Note_off_c, 0, 82, 65
1, 357508, Poly_aftertouch_c, 0, 76, 127
1, 357529, Note_off_c, 0, 90, 67
1, 357534, Note_on_c, 0, 73, 79
1, 357571, Note_on_c, 0, 78, 87
1, 357609, Note_off_c, 0, 73, 64
1, 357612, Poly_aftertouch_c, 0, 76, 0
1, 357618, Note_on_c, 0, 82, 99
1, 357630, Note_off_c, 0, 78, 68
1, 357651, Note_off_c, 0, 82, 68
1, 357779, Note_on_c, 0, 90, 97
1, 357830, Note_on_c, 0, 85, 92
1, 357884, Note_on_c, 0, 94, 105
1, 357903, Note_off_c, 0, 90, 65
1, 357918, Note_off_c, 0, 85, 64
1, 357920, Note_off_c, 0, 94, 70
1, 358080, Note_on_c, 0, 48, 98
1, 358084, Note_on_c, 0, 36, 93
1, 358086, Control_c, 0, 64, 93
1, 358101, Control_c, 0, 64, 47
1, 358115, Control_c, 0, 64, 0
1, 358160, Control_c, 0, 64, 42
1, 358161, Note_off_c, 0, 36, 63
1, 358171, Note_on_c, 0, 63, 81
1, 358175, Control_c, 0, 64, 95
1, 358183, Note_off_c, 0, 48, 67
1, 358189, Control_c, 0, 64, 127
1, 358219, Note_on_c, 0, 60, 77
1, 358254, Note_off_c, 0, 63, 63
1, 358264, Note_on_c, 0, 69, 74
1, 358266, Note_off_c, 0, 60, 60
1, 358288, Note_off_c, 0, 69, 70
1, 358331, Note_on_c, 0, 51, 66
1, 358360, Note_on_c, 0, 57, 71
1, 358417, Note_on_c, 0, 60, 75
1, 358417, Note_off_c, 0, 51, 60
1, 358419, Note_off_c, 0, 57, 64
1, 358450, Note_off_c, 0, 60, 67
1, 358492, Note_on_c, 0, 69, 69
1, 358520, Note_on_c, 0, 63, 78
1, 358566, Note_on_c, 0, 72, 81
1, 358569, Note_off_c, 0, 69, 65
1, 358571, Note_off_c, 0, 63, 64
1, 358608, Note_off_c, 0, 72, 63
1, 358624, Note_on_c, 0, 57, 84
1, 358653, Note_on_c, 0, 60, 83
1, 358739, Note_on_c, 0, 63, 110
1, 358748, Note_off_c, 0, 57, 52
1, 358763, Note_off_c, 0, 60, 66
1, 358804, Note_off_c, 0, 63, 63
1, 358820, Note_on_c, 0, 72, 81
1, 358870, Note_on_c, 0, 69, 77
1, 358882, Note_off_c, 0, 72, 62
1, 358916, Note_on_c, 0, 75, 74
1, 358918, Note_off_c, 0, 69, 64
1, 358938, Note_off_c, 0, 75, 69
1, 358968, Note_on_c, 0, 60, 66
1, 359029, Note_on_c, 0, 63, 74
1, 359088, Note_on_c, 0, 69, 83
1, 359093, Note_off_c, 0, 60, 62
1, 359103, Note_off_c, 0, 63, 64
1, 359141, Note_on_c, 0, 75, 81
1, 359162, Note_off_c, 0, 69, 38
1, 359193, Note_on_c, 0, 72, 80
1, 359224, Note_off_c, 0, 75, 61
1, 359246, Note_on_c, 0, 81, 77
1, 359252, Note_off_c, 0, 72, 61
1, 359276, Note_off_c, 0, 81, 59
1, 359293, Note_on_c, 0, 63, 81
1, 359337, Note_on_c, 0, 69, 89
1, 359410, Note_on_c, 0, 72, 103
1, 359434, Note_off_c, 0, 63, 62
1, 359436, Note_off_c, 0, 69, 67
1, 359472, Note_on_c, 0, 81, 85
1, 359476, Note_off_c, 0, 72, 60
1, 359505, Note_on_c, 0, 80, 24
1, 359519, Note_on_c, 0, 75, 81
1, 359541, Note_off_c, 0, 80, 37
1, 359568, Note_on_c, 0, 84, 85
1, 359569, Note_off_c, 0, 81, 64
1, 359575, Note_off_c, 0, 75, 64
1, 359579, Poly_aftertouch_c, 0, 72, 127
1, 359607, Poly_aftertouch_c, 0, 72, 0
1, 359609, Note_off_c, 0, 84, 66
1, 359624, Note_on_c, 0, 69, 66
1, 359655, Note_on_c, 0, 72, 75
1, 359717, Note_off_c, 0, 69, 57
1, 359720, Note_on_c, 0, 75, 95
1, 359727, Note_off_c, 0, 72, 65
1, 359765, Note_off_c, 0, 75, 56
1, 359782, Note_on_c, 0, 84, 88
1, 359820, Note_on_c, 0, 81, 73
1, 359853, Note_off_c, 0, 84, 62
1, 359874, Note_on_c, 0, 87, 90
1, 359887, Note_off_c, 0, 81, 65
1, 359914, Note_off_c, 0, 87, 63
1, 359933, Note_on_c, 0, 72, 70
1, 359979, Note_on_c, 0, 75, 85
1, 360021, Note_off_c, 0, 72, 65
1, 360043, Note_on_c, 0, 81, 96
1, 360054, Note_off_c, 0, 75, 67
1, 360095, Note_on_c, 0, 87, 92
1, 360140, Note_on_c, 0, 84, 85
1, 360149, Note_off_c, 0, 81, 65
1, 360179, Note_off_c, 0, 87, 63
1, 360188, Note_on_c, 0, 93, 87
1, 360207, Note_off_c, 0, 84, 64
1, 360230, Note_off_c, 0, 93, 64
1, 360239, Note_on_c, 0, 75, 77
1, 360280, Note_on_c, 0, 81, 82
1, 360332, Note_on_c, 0, 84, 99
1, 360341, Note_off_c, 0, 75, 64
1, 360361, Note_off_c, 0, 84, 71
1, 360362, Note_off_c, 0, 81, 69
1, 360462, Note_on_c, 0, 93, 90
1, 360505, Note_on_c, 0, 87, 84
1, 360565, Note_on_c, 0, 96, 101
1, 360584, Note_off_c, 0, 93, 64
1, 360596, Note_off_c, 0, 87, 65
1, 360603, Note_off_c, 0, 96, 69
1, 360704, Note_on_c, 0, 39, 52
1, 360709, Note_on_c, 0, 42, 43
1, 360748, Note_off_c, 0, 39, 43
1, 360784, Note_off_c, 0, 42, 57
1, 360798, Control_c, 0, 64, 84
1, 360807, Note_on_c, 0, 49, 97
1, 360812, Note_on_c, 0, 37, 89
1, 360813, Control_c, 0, 64, 0
1, 360858, Note_off_c, 0, 37, 65
1, 360873, Note_on_c, 0, 65, 77
1, 360882, Note_off_c, 0, 49, 64
1, 360887, Control_c, 0, 64, 74
1, 360902, Control_c, 0, 64, 127
1, 360916, Note_on_c, 0, 61, 75
1, 360957, Note_on_c, 0, 70, 85
1, 360958, Note_off_c, 0, 65, 61
1, 360973, Note_off_c, 0, 61, 63
1, 361001, Note_off_c, 0, 70, 59
1, 361045, Note_on_c, 0, 53, 69
1, 361082, Note_on_c, 0, 58, 77
1, 361124, Note_on_c, 0, 61, 91
1, 361136, Note_off_c, 0, 53, 60
1, 361145, Note_off_c, 0, 58, 65
1, 361145, Note_off_c, 0, 61, 71
1, 361233, Note_on_c, 0, 70, 89
1, 361288, Note_on_c, 0, 65, 82
1, 361308, Note_off_c, 0, 70, 59
1, 361328, Note_on_c, 0, 73, 90
1, 361348, Note_off_c, 0, 65, 62
1, 361391, Control_c, 0, 64, 103
1, 361406, Control_c, 0, 64, 65
1, 361414, Note_off_c, 0, 73, 61
1, 361428, Control_c, 0, 64, 0
1, 361466, Note_on_c, 0, 52, 103
1, 361471, Note_on_c, 0, 40, 91
1, 361499, Note_off_c, 0, 40, 64
1, 361517, Control_c, 0, 64, 64
1, 361526, Note_off_c, 0, 52, 65
1, 361526, Note_on_c, 0, 67, 86
1, 361532, Control_c, 0, 64, 127
1, 361574, Note_on_c, 0, 64, 82
1, 361602, Poly_aftertouch_c, 0, 41, 0
1, 361603, Note_off_c, 0, 67, 61
1, 361617, Note_on_c, 0, 72, 80
1, 361625, Note_off_c, 0, 64, 64
1, 361646, Note_off_c, 0, 72, 63
1, 361693, Note_on_c, 0, 55, 73
1, 361726, Note_on_c, 0, 60, 80
1, 361778, Note_on_c, 0, 64, 94
1, 361793, Note_on_c, 0, 59, 51
1, 361797, Note_off_c, 0, 64, 71
1, 361809, Note_off_c, 0, 60, 58
1, 361815, Note_off_c, 0, 55, 63
1, 361824, Note_off_c, 0, 59, 64
1, 361888, Note_on_c, 0, 72, 85
1, 361949, Note_on_c, 0, 67, 82
1, 361959, Note_off_c, 0, 72, 62
1, 361963, Note_on_c, 0, 76, 85
1, 362000, Note_off_c, 0, 67, 60
1, 362041, Note_off_c, 0, 76, 54
1, 362066, Control_c, 0, 64, 78
1, 362081, Control_c, 0, 64, 0
1, 362096, Note_on_c, 0, 53, 103
1, 362099, Note_on_c, 0, 41, 81
1, 362107, Poly_aftertouch_c, 0, 44, 0
1, 362127, Note_off_c, 0, 41, 65
1, 362128, Note_on_c, 0, 43, 66
1, 362133, Note_off_c, 0, 53, 71
1, 362140, Control_c, 0, 64, 61
1, 362155, Control_c, 0, 64, 106
1, 362158, Note_on_c, 0, 68, 85
1, 362160, Note_off_c, 0, 43, 55
1, 362177, Control_c, 0, 64, 127
1, 362201, Note_on_c, 0, 65, 84
1, 362233, Note_off_c, 0, 68, 65
1, 362245, Note_on_c, 0, 73, 83
1, 362253, Note_off_c, 0, 65, 63
1, 362278, Note_off_c, 0, 73, 61
1, 362324, Note_on_c, 0, 56, 81
1, 362355, Note_on_c, 0, 61, 70
1, 362409, Note_on_c, 0, 65, 98
1, 362433, Note_off_c, 0, 65, 65
1, 362447, Note_off_c, 0, 56, 65
1, 362466, Note_off_c, 0, 61, 63
1, 362487, Poly_aftertouch_c, 0, 60, 127
1, 362524, Poly_aftertouch_c, 0, 60, 0
1, 362535, Note_on_c, 0, 73, 85
1, 362568, Note_on_c, 0, 68, 82
1, 362629, Note_on_c, 0, 77, 90
1, 362632, Note_off_c, 0, 73, 66
1, 362659, Note_off_c, 0, 68, 64
1, 362693, Note_off_c, 0, 77, 59
1, 362711, Control_c, 0, 64, 88
1, 362726, Control_c, 0, 64, 0
1, 362754, Note_on_c, 0, 55, 102
1, 362755, Note_on_c, 0, 43, 99
1, 362791, Note_off_c, 0, 43, 66
1, 362811, Note_off_c, 0, 55, 67
1, 362815, Control_c, 0, 64, 92
1, 362829, Control_c, 0, 64, 127
1, 362840, Note_on_c, 0, 70, 89
1, 362885, Note_on_c, 0, 67, 81
1, 362906, Note_off_c, 0, 70, 66
1, 362937, Note_on_c, 0, 76, 79
1, 362948, Note_off_c, 0, 67, 63
1, 362966, Note_off_c, 0, 76, 63
1, 363002, Note_on_c, 0, 58, 77
1, 363042, Note_on_c, 0, 64, 85
1, 363087, Note_on_c, 0, 67, 91
1, 363104, Note_off_c, 0, 58, 64
1, 363106, Note_off_c, 0, 67, 69
1, 363111, Note_off_c, 0, 64, 67
1, 363210, Note_on_c, 0, 76, 82
1, 363276, Note_on_c, 0, 70, 81
1, 363304, Note_off_c, 0, 76, 62
1, 363313, Note_on_c, 0, 79, 78
1, 363332, Note_off_c, 0, 70, 64
1, 363347, Note_off_c, 0, 79, 58
1, 363371, Control_c, 0, 64, 102
1, 363371, Control_c, 0, 67, 8
1, 363386, Control_c, 0, 64, 66
1, 363386, Control_c, 0, 67, 10
1, 363401, Control_c, 0, 64, 0
1, 363401, Control_c, 0, 67, 11
1, 363416, Control_c, 0, 67, 12
1, 363431, Control_c, 0, 67, 13
1, 363446, Control_c, 0, 67, 14
1, 363460, Control_c, 0, 67, 16
1, 363461, Note_on_c, 0, 44, 75
1, 363475, Control_c, 0, 67, 17
1, 363490, Control_c, 0, 67, 18
1, 363520, Control_c, 0, 64, 50
1, 363521, Note_off_c, 0, 44, 61
1, 363534, Control_c, 0, 64, 90
1, 363534, Control_c, 0, 67, 18
1, 363538, Note_on_c, 0, 72, 72
1, 363549, Control_c, 0, 64, 127
1, 363549, Control_c, 0, 67, 19
1, 363564, Control_c, 0, 67, 19
1, 363598, Note_on_c, 0, 68, 71
1, 363598, Note_off_c, 0, 72, 61
1, 363623, Control_c, 0, 67, 19
1, 363633, Note_on_c, 0, 77, 61
1, 363637, Note_off_c, 0, 68, 60
1, 363638, Control_c, 0, 67, 18
1, 363681, Note_off_c, 0, 77, 60
1, 363687, Note_on_c, 0, 56, 76
1, 363736, Note_off_c, 0, 56, 63
1, 363743, Note_on_c, 0, 60, 73
1, 363749, Control_c, 0, 67, 17
1, 363764, Control_c, 0, 64, 110
1, 363764, Control_c, 0, 67, 17
1, 363768, Note_off_c, 0, 60, 68
1, 363778, Control_c, 0, 64, 74
1, 363793, Control_c, 0, 64, 0
1, 363806, Note_on_c, 0, 46, 95
1, 363808, Control_c, 0, 67, 16
1, 363823, Control_c, 0, 67, 15
1, 363838, Control_c, 0, 67, 14
1, 363852, Control_c, 0, 64, 49
1, 363852, Control_c, 0, 67, 13
1, 363858, Note_off_c, 0, 46, 66
1, 363867, Control_c, 0, 64, 85
1, 363874, Note_on_c, 0, 73, 81
1, 363882, Control_c, 0, 64, 127
1, 363882, Control_c, 0, 67, 13
1, 363929, Note_on_c, 0, 70, 87
1, 363951, Note_off_c, 0, 73, 56
1, 363980, Note_on_c, 0, 79, 75
1, 363990, Note_off_c, 0, 70, 63
1, 364000, Control_c, 0, 67, 12
1, 364001, Note_on_c, 0, 58, 72
1, 364040, Note_off_c, 0, 58, 63
1, 364044, Note_on_c, 0, 61, 85
1, 364067, Note_off_c, 0, 61, 69
1, 364067, Note_off_c, 0, 79, 55
1, 364075, Control_c, 0, 67, 12
1, 364105, Control_c, 0, 67, 11
1, 364119, Note_on_c, 0, 48, 99
1, 364119, Control_c, 0, 64, 82
1, 364119, Control_c, 0, 67, 10
1, 364134, Control_c, 0, 64, 0
1, 364134, Control_c, 0, 67, 0
1, 364179, Control_c, 0, 64, 47
1, 364183, Note_off_c, 0, 48, 63
1, 364189, Note_on_c, 0, 75, 84
1, 364194, Control_c, 0, 64, 80
1, 364209, Control_c, 0, 64, 127
1, 364239, Note_on_c, 0, 72, 85
1, 364260, Note_off_c, 0, 75, 62
1, 364299, Note_on_c, 0, 81, 78
1, 364301, Note_on_c, 0, 60, 65
1, 364313, Note_off_c, 0, 72, 58
1, 364362, Note_off_c, 0, 60, 66
1, 364364, Note_on_c, 0, 63, 89
1, 364379, Note_off_c, 0, 81, 63
1, 364399, Note_off_c, 0, 63, 62
1, 364416, Control_c, 0, 64, 93
1, 364436, Note_on_c, 0, 49, 101
1, 364439, Control_c, 0, 64, 53
1, 364453, Control_c, 0, 64, 0
1, 364492, Note_on_c, 0, 77, 84
1, 364498, Control_c, 0, 64, 61
1, 364508, Note_off_c, 0, 49, 64
1, 364513, Control_c, 0, 64, 90
1, 364528, Control_c, 0, 64, 127
1, 364559, Note_on_c, 0, 73, 93
1, 364592, Note_off_c, 0, 77, 59
1, 364600, Note_on_c, 0, 82, 92
1, 364635, Note_off_c, 0, 73, 63
1, 364642, Note_on_c, 0, 61, 81
1, 364655, Note_on_c, 0, 58, 17
1, 364670, Note_off_c, 0, 82, 63
1, 364689, Note_on_c, 0, 65, 85
1, 364695, Note_off_c, 0, 58, 52
1, 364695, Note_off_c, 0, 61, 64
1, 364716, Note_off_c, 0, 65, 65
1, 364749, Control_c, 0, 64, 82
1, 364756, Note_on_c, 0, 52, 104
1, 364764, Control_c, 0, 64, 0
1, 364808, Control_c, 0, 64, 61
1, 364823, Note_on_c, 0, 79, 85
1, 364823, Note_off_c, 0, 52, 64
1, 364823, Control_c, 0, 64, 88
1, 364838, Control_c, 0, 64, 127
1, 364872, Note_on_c, 0, 76, 89
1, 364882, Note_off_c, 0, 79, 59
1, 364927, Note_on_c, 0, 84, 75
1, 364933, Note_on_c, 0, 64, 77
1, 364935, Note_off_c, 0, 76, 63
1, 364975, Note_off_c, 0, 84, 49
1, 364982, Note_off_c, 0, 64, 66
1, 364989, Note_on_c, 0, 67, 83
1, 365016, Note_off_c, 0, 67, 63
1, 365047, Control_c, 0, 64, 79
1, 365059, Note_on_c, 0, 53, 104
1, 365062, Control_c, 0, 64, 0
1, 365106, Control_c, 0, 64, 56
1, 365120, Note_off_c, 0, 53, 66
1, 365121, Control_c, 0, 64, 85
1, 365127, Note_on_c, 0, 80, 85
1, 365136, Control_c, 0, 64, 127
1, 365174, Note_on_c, 0, 77, 88
1, 365202, Note_off_c, 0, 80, 62
1, 365243, Note_on_c, 0, 66, 47
1, 365244, Note_on_c, 0, 85, 84
1, 365246, Note_off_c, 0, 77, 55
1, 365246, Note_on_c, 0, 65, 80
1, 365269, Note_off_c, 0, 66, 60
1, 365277, Note_off_c, 0, 65, 63
1, 365297, Note_on_c, 0, 68, 86
1, 365315, Note_off_c, 0, 85, 54
1, 365320, Note_off_c, 0, 68, 69
1, 365361, Note_on_c, 0, 55, 113
1, 365365, Control_c, 0, 64, 116
1, 365380, Control_c, 0, 64, 69
1, 365395, Control_c, 0, 64, 0
1, 365424, Control_c, 0, 64, 42
1, 365425, Note_off_c, 0, 55, 63
1, 365437, Note_on_c, 0, 82, 96
1, 365439, Control_c, 0, 64, 76
1, 365454, Control_c, 0, 64, 127
1, 365473, Note_on_c, 0, 84, 30
1, 365488, Note_on_c, 0, 79, 83
1, 365509, Note_off_c, 0, 82, 64
1, 365509, Note_off_c, 0, 84, 53
1, 365522, Note_on_c, 0, 66, 37
1, 365541, Note_on_c, 0, 88, 85
1, 365554, Note_on_c, 0, 67, 60
1, 365556, Note_off_c, 0, 79, 56
1, 365603, Note_on_c, 0, 70, 82
1, 365604, Note_off_c, 0, 67, 62
1, 365615, Note_off_c, 0, 88, 60
1, 365638, Note_off_c, 0, 70, 62
1, 365651, Note_off_c, 0, 66, 37
1, 365661, Control_c, 0, 64, 104
1, 365666, Note_on_c, 0, 56, 107
1, 365671, Note_on_c, 0, 87, 36
1, 365676, Control_c, 0, 64, 66
1, 365690, Control_c, 0, 64, 0
1, 365730, Note_on_c, 0, 55, 11
1, 365735, Control_c, 0, 64, 72
1, 365738, Note_on_c, 0, 84, 85
1, 365747, Note_off_c, 0, 56, 64
1, 365750, Note_off_c, 0, 87, 39
1, 365751, Control_c, 0, 64, 127
1, 365779, Note_off_c, 0, 55, 29
1, 365795, Note_on_c, 0, 80, 89
1, 365811, Note_off_c, 0, 84, 65
1, 365840, Note_on_c, 0, 89, 82
1, 365876, Note_on_c, 0, 68, 89
1, 365877, Note_off_c, 0, 80, 61
1, 365926, Note_off_c, 0, 68, 64
1, 365926, Note_on_c, 0, 72, 91
1, 365928, Note_off_c, 0, 89, 60
1, 365935, Poly_aftertouch_c, 0, 65, 127
1, 365951, Note_off_c, 0, 72, 64
1, 365966, Control_c, 0, 64, 121
1, 365979, Poly_aftertouch_c, 0, 65, 0
1, 365980, Control_c, 0, 64, 76
1, 365989, Note_on_c, 0, 58, 103
1, 365995, Control_c, 0, 64, 0
1, 366025, Control_c, 0, 64, 37
1, 366027, Note_on_c, 0, 60, 32
1, 366028, Note_off_c, 0, 60, 127
1, 366040, Control_c, 0, 64, 78
1, 366045, Note_off_c, 0, 58, 67
1, 366048, Note_on_c, 0, 85, 95
1, 366054, Control_c, 0, 64, 127
1, 366076, Note_on_c, 0, 88, 14
1, 366112, Note_on_c, 0, 82, 103
1, 366136, Note_off_c, 0, 85, 63
1, 366146, Note_off_c, 0, 88, 0
1, 366160, Note_on_c, 0, 91, 97
1, 366169, Note_on_c, 0, 66, 35
1, 366178, Note_on_c, 0, 70, 85
1, 366178, Note_off_c, 0, 82, 63
1, 366183, Poly_aftertouch_c, 0, 88, 127
1, 366215, Poly_aftertouch_c, 0, 88, 0
1, 366232, Note_off_c, 0, 70, 65
1, 366233, Note_off_c, 0, 66, 42
1, 366242, Note_on_c, 0, 73, 78
1, 366260, Note_off_c, 0, 91, 56
1, 366260, Note_off_c, 0, 73, 66
1, 366278, Control_c, 0, 64, 103
1, 366293, Control_c, 0, 64, 70
1, 366294, Note_on_c, 0, 60, 114
1, 366308, Control_c, 0, 64, 0
1, 366337, Control_c, 0, 64, 52
1, 366352, Control_c, 0, 64, 75
1, 366361, Note_off_c, 0, 60, 66
1, 366366, Note_on_c, 0, 87, 99
1, 366367, Control_c, 0, 64, 123
1, 366381, Control_c, 0, 64, 127
1, 366422, Note_on_c, 0, 84, 89
1, 366448, Note_off_c, 0, 87, 63
1, 366477, Note_on_c, 0, 93, 87
1, 366491, Note_off_c, 0, 84, 64
1, 366506, Note_on_c, 0, 72, 77
1, 366541, Note_on_c, 0, 73, 14
1, 366552, Note_off_c, 0, 72, 62
1, 366555, Note_on_c, 0, 75, 90
1, 366561, Note_off_c, 0, 93, 57
1, 366586, Note_off_c, 0, 75, 62
1, 366592, Note_off_c, 0, 73, 53
1, 366604, Control_c, 0, 64, 101
1, 366616, Note_on_c, 0, 61, 109
1, 366619, Control_c, 0, 64, 62
1, 366634, Control_c, 0, 64, 0
1, 366650, Note_on_c, 0, 60, 59
1, 366683, Note_off_c, 0, 60, 58
1, 366686, Control_c, 0, 64, 60
1, 366692, Note_on_c, 0, 89, 95
1, 366696, Note_off_c, 0, 61, 64
1, 366701, Control_c, 0, 64, 82
1, 366716, Control_c, 0, 64, 127
1, 366758, Note_on_c, 0, 85, 104
1, 366780, Poly_aftertouch_c, 0, 91, 0
1, 366788, Note_off_c, 0, 89, 64
1, 366817, Note_on_c, 0, 94, 99
1, 366861, Note_on_c, 0, 73, 89
1, 366871, Note_off_c, 0, 85, 56
1, 366876, Note_on_c, 0, 70, 19
1, 366908, Note_on_c, 0, 77, 83
1, 366913, Note_off_c, 0, 73, 63
1, 366916, Note_off_c, 0, 70, 43
1, 366928, Note_off_c, 0, 77, 71
1, 366960, Note_off_c, 0, 94, 58
1, 366973, Note_on_c, 0, 76, 8
1, 366977, Note_on_c, 0, 61, 107
1, 367011, Note_off_c, 0, 76, 0
1, 367014, Note_off_c, 0, 61, 65
1, 367034, Note_on_c, 0, 89, 95
1, 367035, Poly_aftertouch_c, 0, 76, 0
1, 367078, Note_on_c, 0, 91, 28
1, 367103, Note_on_c, 0, 85, 103
1, 367116, Note_off_c, 0, 91, 45
1, 367121, Note_off_c, 0, 89, 61
1, 367157, Note_on_c, 0, 94, 101
1, 367197, Note_off_c, 0, 85, 60
1, 367226, Note_on_c, 0, 73, 85
1, 367273, Note_on_c, 0, 77, 83
1, 367295, Note_off_c, 0, 73, 61
1, 367310, Note_off_c, 0, 77, 62
1, 367375, Note_on_c, 0, 61, 93
1, 367383, Control_c, 0, 64, 80
1, 367388, Note_on_c, 0, 60, 83
1, 367395, Note_on_c, 0, 59, 76
1, 367398, Control_c, 0, 64, 22
1, 367418, Note_off_c, 0, 60, 71
1, 367419, Note_off_c, 0, 59, 66
1, 367419, Control_c, 0, 64, 0
1, 367434, Control_c, 0, 64, 61
1, 367441, Note_off_c, 0, 61, 63
1, 367449, Control_c, 0, 64, 84
1, 367464, Control_c, 0, 64, 127
1, 367501, Note_off_c, 0, 94, 18
1, 367519, Note_on_c, 0, 73, 81
1, 367538, Note_on_c, 0, 72, 77
1, 367546, Note_on_c, 0, 70, 42
1, 367575, Note_off_c, 0, 70, 55
1, 367577, Note_off_c, 0, 73, 61
1, 367591, Note_off_c, 0, 72, 62
1, 367602, Note_on_c, 0, 77, 86
1, 367625, Note_off_c, 0, 77, 67
1, 367661, Note_on_c, 0, 89, 88
1, 367679, Note_on_c, 0, 85, 92
1, 367728, Note_on_c, 0, 94, 99
1, 367737, Note_off_c, 0, 85, 64
1, 367744, Note_off_c, 0, 89, 64
1, 367757, Note_on_c, 0, 92, 44
1, 367759, Note_on_c, 0, 80, 44
1, 367761, Note_off_c, 0, 94, 68
1, 367784, Note_off_c, 0, 92, 37
1, 367785, Note_off_c, 0, 80, 55
1, 367805, Note_on_c, 0, 89, 79
1, 367819, Note_on_c, 0, 91, 60
1, 367834, Note_on_c, 0, 85, 83
1, 367839, Note_off_c, 0, 91, 39
1, 367868, Note_off_c, 0, 89, 61
1, 367901, Note_on_c, 0, 82, 59
1, 367911, Note_off_c, 0, 85, 65
1, 367922, Note_off_c, 0, 82, 62
1, 367928, Note_on_c, 0, 83, 54
1, 367948, Note_off_c, 0, 83, 60
1, 367962, Note_on_c, 0, 77, 82
1, 367990, Note_on_c, 0, 73, 91
1, 368036, Note_on_c, 0, 82, 92
1, 368051, Note_off_c, 0, 77, 63
1, 368054, Note_off_c, 0, 73, 64
1, 368076, Note_off_c, 0, 82, 67
1, 368078, Note_on_c, 0, 77, 67
1, 368125, Note_on_c, 0, 73, 85
1, 368175, Note_off_c, 0, 77, 58
1, 368191, Note_on_c, 0, 70, 85
1, 368211, Note_off_c, 0, 73, 65
1, 368224, Note_off_c, 0, 70, 65
1, 368272, Note_on_c, 0, 65, 79
1, 368292, Note_on_c, 0, 61, 88
1, 368335, Note_on_c, 0, 70, 87
1, 368361, Note_off_c, 0, 65, 60
1, 368362, Note_off_c, 0, 61, 57
1, 368375, Note_off_c, 0, 70, 67
1, 368382, Note_on_c, 0, 65, 69
1, 368424, Note_on_c, 0, 61, 76
1, 368456, Note_off_c, 0, 65, 64
1, 368487, Note_off_c, 0, 61, 64
1, 368487, Note_on_c, 0, 58, 83
1, 368509, Note_off_c, 0, 58, 69
1, 368532, Note_on_c, 0, 59, 20
1, 368548, Note_on_c, 0, 53, 69
1, 368556, Poly_aftertouch_c, 0, 60, 127
1, 368571, Note_on_c, 0, 49, 90
1, 368573, Note_off_c, 0, 59, 42
1, 368594, Poly_aftertouch_c, 0, 60, 0
1, 368609, Note_on_c, 0, 58, 73
1, 368627, Note_off_c, 0, 53, 64
1, 368628, Note_off_c, 0, 49, 63
1, 368642, Poly_aftertouch_c, 0, 54, 127
1, 368660, Note_off_c, 0, 58, 64
1, 368673, Note_on_c, 0, 53, 88
1, 368681, Poly_aftertouch_c, 0, 54, 0
1, 368728, Note_on_c, 0, 49, 77
1, 368765, Note_off_c, 0, 53, 63
1, 368773, Note_on_c, 0, 46, 87
1, 368785, Note_off_c, 0, 49, 64
1, 368834, Note_on_c, 0, 49, 82
1, 368895, Note_on_c, 0, 53, 85
1, 368922, Note_on_c, 0, 58, 83
1, 368964, Note_off_c, 0, 58, 66
1, 368976, Note_on_c, 0, 61, 78
1, 368997, Note_off_c, 0, 61, 67
1, 369006, Note_on_c, 0, 63, 28
1, 369044, Note_off_c, 0, 63, 51
1, 369046, Note_on_c, 0, 65, 93
1, 369110, Poly_aftertouch_c, 0, 61, 127
1, 369113, Note_on_c, 0, 70, 83
1, 369139, Poly_aftertouch_c, 0, 61, 0
1, 369150, Note_on_c, 0, 73, 88
1, 369172, Note_off_c, 0, 70, 64
1, 369201, Note_off_c, 0, 65, 54
1, 369213, Note_on_c, 0, 77, 91
1, 369221, Note_off_c, 0, 73, 65
1, 369292, Note_on_c, 0, 73, 93
1, 369332, Note_off_c, 0, 77, 59
1, 369351, Note_on_c, 0, 70, 91
1, 369352, Note_off_c, 0, 73, 65
1, 369399, Note_off_c, 0, 70, 67
1, 369402, Note_on_c, 0, 73, 88
1, 369422, Note_off_c, 0, 73, 72
1, 369470, Note_off_c, 0, 46, 63
1, 369475, Note_on_c, 0, 77, 91
1, 369488, Note_off_c, 0, 49, 62
1, 369506, Note_off_c, 0, 53, 62
1, 369537, Note_on_c, 0, 82, 96
1, 369612, Note_on_c, 0, 85, 97
1, 369618, Note_off_c, 0, 77, 36
1, 369619, Note_off_c, 0, 82, 65
1, 369687, Note_on_c, 0, 82, 98
1, 369733, Note_off_c, 0, 85, 60
1, 369771, Note_off_c, 0, 82, 65
1, 369772, Note_on_c, 0, 89, 100
1, 369801, Note_on_c, 0, 87, 49
1, 369824, Note_off_c, 0, 87, 58
1, 369837, Note_off_c, 0, 89, 58
1, 369861, Note_on_c, 0, 85, 92
1, 369898, Note_on_c, 0, 84, 52
1, 369920, Note_off_c, 0, 84, 61
1, 369929, Note_on_c, 0, 87, 10
1, 369972, Note_on_c, 0, 94, 101
1, 369976, Note_off_c, 0, 87, 38
1, 369986, Note_off_c, 0, 85, 66
1, 370056, Note_on_c, 0, 89, 90
1, 370079, Note_on_c, 0, 92, 49
1, 370083, Note_on_c, 0, 90, 28
1, 370098, Note_off_c, 0, 92, 59
1, 370099, Note_off_c, 0, 90, 36
1, 370111, Note_off_c, 0, 94, 63
1, 370141, Note_on_c, 0, 85, 99
1, 370198, Note_off_c, 0, 89, 60
1, 370207, Note_on_c, 0, 82, 101
1, 370237, Note_off_c, 0, 85, 65
1, 370259, Control_c, 0, 64, 100
1, 370269, Note_off_c, 0, 82, 64
1, 370274, Control_c, 0, 64, 59
1, 370281, Note_on_c, 0, 62, 101
1, 370288, Control_c, 0, 64, 0
1, 370332, Control_c, 0, 64, 66
1, 370347, Control_c, 0, 64, 105
1, 370357, Note_off_c, 0, 62, 66
1, 370362, Control_c, 0, 64, 127
1, 370448, Note_on_c, 0, 74, 95
1, 370522, Note_on_c, 0, 77, 95
1, 370540, Note_off_c, 0, 74, 63
1, 370587, Note_on_c, 0, 92, 86
1, 370609, Note_off_c, 0, 77, 56
1, 370654, Note_on_c, 0, 89, 93
1, 370675, Note_off_c, 0, 92, 64
1, 370700, Note_on_c, 0, 95, 96
1, 370718, Note_off_c, 0, 89, 64
1, 370770, Note_on_c, 0, 92, 87
1, 370814, Note_off_c, 0, 95, 63
1, 370821, Note_on_c, 0, 89, 86
1, 370863, Note_off_c, 0, 92, 63
1, 370875, Note_on_c, 0, 86, 77
1, 370894, Note_off_c, 0, 89, 62
1, 370911, Note_off_c, 0, 86, 60
1, 370913, Note_on_c, 0, 83, 86
1, 370952, Note_off_c, 0, 83, 59
1, 370986, Note_on_c, 0, 80, 81
1, 371039, Note_on_c, 0, 77, 86
1, 371051, Note_off_c, 0, 80, 63
1, 371083, Note_on_c, 0, 83, 91
1, 371101, Note_off_c, 0, 77, 64
1, 371151, Note_on_c, 0, 80, 86
1, 371191, Note_off_c, 0, 83, 62
1, 371197, Note_on_c, 0, 77, 85
1, 371222, Note_off_c, 0, 80, 64
1, 371252, Note_on_c, 0, 74, 74
1, 371274, Note_off_c, 0, 74, 70
1, 371276, Note_off_c, 0, 77, 59
1, 371296, Note_on_c, 0, 71, 82
1, 371365, Note_off_c, 0, 71, 61
1, 371366, Note_on_c, 0, 68, 83
1, 371420, Note_on_c, 0, 74, 86
1, 371432, Note_off_c, 0, 68, 64
1, 371478, Note_on_c, 0, 71, 74
1, 371509, Note_off_c, 0, 74, 60
1, 371532, Note_on_c, 0, 68, 87
1, 371550, Note_off_c, 0, 71, 56
1, 371594, Note_off_c, 0, 68, 64
1, 371663, Note_on_c, 0, 62, 20
1, 371680, Note_on_c, 0, 59, 69
1, 371681, Note_on_c, 0, 60, 63
1, 371692, Note_on_c, 0, 63, 63
1, 371706, Note_off_c, 0, 59, 63
1, 371707, Note_off_c, 0, 62, 43
1, 371760, Note_on_c, 0, 68, 79
1, 371793, Note_on_c, 0, 69, 48
1, 371799, Note_on_c, 0, 65, 63
1, 371802, Note_on_c, 0, 64, 73
1, 371815, Note_on_c, 0, 62, 55
1, 371818, Note_off_c, 0, 69, 61
1, 371841, Note_off_c, 0, 60, 36
1, 371870, Note_off_c, 0, 68, 61
1, 371870, Note_off_c, 0, 62, 0
1, 371870, Note_on_c, 0, 62, 34
1, 371883, Note_off_c, 0, 64, 61
1, 371891, Note_off_c, 0, 65, 61
1, 371905, Note_off_c, 0, 62, 64
1, 371919, Note_on_c, 0, 59, 84
1, 371946, Note_off_c, 0, 63, 39
1, 372015, Note_on_c, 0, 56, 83
1, 372015, Note_off_c, 0, 59, 60
1, 372052, Note_on_c, 0, 53, 75
1, 372091, Note_off_c, 0, 56, 65
1, 372102, Note_on_c, 0, 50, 86
1, 372110, Note_off_c, 0, 53, 65
1, 372163, Note_on_c, 0, 47, 84
1, 372186, Note_off_c, 0, 50, 0
1, 372222, Poly_aftertouch_c, 0, 50, 127
1, 372253, Note_off_c, 0, 47, 62
1, 372267, Note_on_c, 0, 53, 89
1, 372278, Poly_aftertouch_c, 0, 50, 0
1, 372303, Note_off_c, 0, 53, 68
1, 372337, Note_on_c, 0, 56, 96
1, 372377, Note_off_c, 0, 56, 64
1, 372386, Note_on_c, 0, 59, 88
1, 372431, Note_on_c, 0, 62, 84
1, 372435, Note_off_c, 0, 59, 64
1, 372482, Note_on_c, 0, 65, 84
1, 372483, Poly_aftertouch_c, 0, 60, 127
1, 372502, Note_off_c, 0, 62, 60
1, 372517, Poly_aftertouch_c, 0, 60, 0
1, 372519, Note_on_c, 0, 68, 81
1, 372536, Note_off_c, 0, 65, 64
1, 372553, Note_off_c, 0, 68, 65
1, 372592, Note_on_c, 0, 71, 88
1, 372616, Note_on_c, 0, 72, 59
1, 372663, Note_on_c, 0, 74, 92
1, 372666, Note_off_c, 0, 72, 56
1, 372669, Note_off_c, 0, 71, 62
1, 372716, Note_on_c, 0, 77, 80
1, 372734, Note_off_c, 0, 74, 64
1, 372758, Note_on_c, 0, 80, 87
1, 372772, Note_off_c, 0, 77, 67
1, 372793, Note_off_c, 0, 80, 65
1, 372823, Note_on_c, 0, 83, 95
1, 372887, Note_on_c, 0, 86, 90
1, 372935, Note_off_c, 0, 83, 57
1, 372946, Note_on_c, 0, 89, 89
1, 372961, Note_off_c, 0, 86, 65
1, 372996, Note_on_c, 0, 92, 92
1, 373018, Note_off_c, 0, 89, 62
1, 373050, Note_on_c, 0, 95, 104
1, 373092, Note_off_c, 0, 92, 65
1, 373095, Poly_aftertouch_c, 0, 42, 127
1, 373113, Note_off_c, 0, 95, 69
1, 373120, Note_on_c, 0, 36, 114
1, 373132, Poly_aftertouch_c, 0, 42, 0
1, 373145, Note_on_c, 0, 38, 54
1, 373146, Note_off_c, 0, 38, 127
1, 373150, Control_c, 0, 64, 109
1, 373164, Control_c, 0, 64, 46
1, 373179, Control_c, 0, 64, 0
1, 373283, Control_c, 0, 64, 38
1, 373298, Control_c, 0, 64, 80
1, 373313, Control_c, 0, 64, 107
1, 373328, Control_c, 0, 64, 127
1, 373536, Note_on_c, 0, 92, 103
1, 373661, Note_on_c, 0, 89, 106
1, 373698, Note_off_c, 0, 92, 64
1, 373748, Note_on_c, 0, 96, 104
1, 373767, Note_off_c, 0, 89, 65
1, 373840, Note_on_c, 0, 92, 105
1, 373869, Note_on_c, 0, 94, 57
1, 373893, Note_off_c, 0, 94, 56
1, 373900, Note_off_c, 0, 96, 61
1, 373914, Note_on_c, 0, 89, 89
1, 373945, Note_off_c, 0, 92, 65
1, 373965, Note_off_c, 0, 89, 63
1, 373970, Note_on_c, 0, 84, 88
1, 374026, Note_off_c, 0, 84, 64
1, 374049, Note_on_c, 0, 80, 90
1, 374081, Poly_aftertouch_c, 0, 39, 127
1, 374112, Note_on_c, 0, 77, 86
1, 374123, Note_off_c, 0, 80, 61
1, 374171, Note_on_c, 0, 84, 96
1, 374181, Note_off_c, 0, 77, 64
1, 374234, Note_on_c, 0, 80, 92
1, 374283, Note_on_c, 0, 77, 88
1, 374286, Note_off_c, 0, 84, 61
1, 374311, Note_off_c, 0, 80, 66
1, 374323, Note_off_c, 0, 77, 58
1, 374335, Note_on_c, 0, 72, 81
1, 374381, Note_off_c, 0, 72, 59
1, 374413, Note_on_c, 0, 68, 81
1, 374472, Note_on_c, 0, 65, 82
1, 374490, Note_off_c, 0, 68, 63
1, 374499, Poly_aftertouch_c, 0, 39, 0
1, 374528, Note_on_c, 0, 72, 88
1, 374535, Note_off_c, 0, 65, 62
1, 374538, Poly_aftertouch_c, 0, 39, 127
1, 374597, Note_on_c, 0, 68, 83
1, 374638, Note_on_c, 0, 65, 84
1, 374646, Note_off_c, 0, 72, 59
1, 374674, Note_off_c, 0, 68, 65
1, 374687, Note_off_c, 0, 65, 59
1, 374693, Note_on_c, 0, 60, 84
1, 374744, Note_off_c, 0, 60, 64
1, 374776, Note_on_c, 0, 56, 82
1, 374835, Note_on_c, 0, 53, 78
1, 374861, Note_off_c, 0, 56, 62
1, 374906, Note_on_c, 0, 60, 90
1, 374914, Note_off_c, 0, 53, 64
1, 374928, Note_off_c, 0, 36, 53
1, 374961, Poly_aftertouch_c, 0, 39, 0
1, 374980, Note_on_c, 0, 56, 85
1, 375037, Note_on_c, 0, 53, 83
1, 375058, Note_off_c, 0, 60, 54
1, 375129, Note_on_c, 0, 44, 72
1, 375135, Note_on_c, 0, 47, 68
1, 375137, Note_on_c, 0, 48, 59
1, 375179, Note_off_c, 0, 53, 61
1, 375186, Note_on_c, 0, 41, 75
1, 375189, Note_off_c, 0, 44, 61
1, 375200, Note_off_c, 0, 47, 61
1, 375204, Poly_aftertouch_c, 0, 59, 127
1, 375222, Note_off_c, 0, 56, 55
1, 375229, Note_off_c, 0, 48, 57
1, 375242, Note_on_c, 0, 36, 88
1, 375259, Note_off_c, 0, 41, 60
1, 375313, Note_on_c, 0, 41, 69
1, 375364, Poly_aftertouch_c, 0, 59, 0
1, 375381, Note_on_c, 0, 44, 90
1, 375408, Poly_aftertouch_c, 0, 42, 127
1, 375443, Note_on_c, 0, 48, 77
1, 375474, Note_off_c, 0, 44, 59
1, 375489, Note_off_c, 0, 48, 62
1, 375500, Note_on_c, 0, 53, 75
1, 375535, Poly_aftertouch_c, 0, 42, 0
1, 375536, Note_off_c, 0, 53, 66
1, 375538, Note_on_c, 0, 56, 81
1, 375562, Note_off_c, 0, 56, 69
1, 375613, Note_on_c, 0, 60, 84
1, 375688, Note_off_c, 0, 60, 62
1, 375701, Note_on_c, 0, 65, 82
1, 375744, Note_on_c, 0, 68, 81
1, 375745, Note_off_c, 0, 65, 61
1, 375766, Note_off_c, 0, 68, 72
1, 375822, Note_on_c, 0, 72, 87
1, 375892, Note_on_c, 0, 77, 86
1, 375898, Note_off_c, 0, 72, 62
1, 375942, Note_on_c, 0, 80, 83
1, 375944, Note_off_c, 0, 77, 65
1, 375972, Note_off_c, 0, 80, 65
1, 376018, Note_on_c, 0, 84, 91
1, 376094, Note_on_c, 0, 89, 97
1, 376168, Note_on_c, 0, 92, 100
1, 376191, Note_off_c, 0, 89, 62
1, 376251, Note_on_c, 0, 96, 102
1, 376272, Note_off_c, 0, 92, 65
1, 376278, Note_off_c, 0, 36, 53
1, 376303, Note_off_c, 0, 41, 58
1, 376334, Note_on_c, 0, 92, 94
1, 376387, Note_off_c, 0, 84, 63
1, 376410, Note_on_c, 0, 89, 99
1, 376443, Note_off_c, 0, 96, 42
1, 376481, Note_on_c, 0, 84, 92
1, 376512, Note_off_c, 0, 89, 62
1, 376553, Control_c, 0, 64, 118
1, 376556, Note_on_c, 0, 36, 102
1, 376567, Note_off_c, 0, 92, 60
1, 376568, Control_c, 0, 64, 72
1, 376571, Note_on_c, 0, 96, 10
1, 376571, Note_off_c, 0, 84, 56
1, 376582, Control_c, 0, 64, 0
1, 376642, Control_c, 0, 64, 59
1, 376656, Control_c, 0, 64, 88
1, 376671, Control_c, 0, 64, 127
1, 376681, Note_on_c, 0, 48, 85
1, 376685, Note_off_c, 0, 36, 59
1, 376709, Note_off_c, 0, 48, 67
1, 376788, Note_on_c, 0, 52, 79
1, 376879, Note_on_c, 0, 55, 73
1, 376887, Note_on_c, 0, 91, 97
1, 376991, Note_on_c, 0, 88, 96
1, 376997, Note_off_c, 0, 96, 44
1, 377000, Note_off_c, 0, 91, 65
1, 377003, Note_on_c, 0, 58, 94
1, 377082, Note_on_c, 0, 94, 94
1, 377111, Note_off_c, 0, 88, 64
1, 377187, Note_on_c, 0, 91, 100
1, 377213, Note_off_c, 0, 58, 54
1, 377213, Note_off_c, 0, 94, 64
1, 377262, Note_on_c, 0, 88, 87
1, 377280, Note_off_c, 0, 91, 65
1, 377305, Note_off_c, 0, 88, 64
1, 377315, Note_on_c, 0, 84, 82
1, 377362, Note_off_c, 0, 84, 66
1, 377387, Note_on_c, 0, 82, 81
1, 377435, Note_on_c, 0, 81, 60
1, 377451, Note_off_c, 0, 55, 53
1, 377456, Note_on_c, 0, 79, 84
1, 377483, Note_off_c, 0, 82, 46
1, 377492, Note_off_c, 0, 52, 48
1, 377492, Note_off_c, 0, 81, 53
1, 377509, Note_on_c, 0, 76, 79
1, 377533, Note_off_c, 0, 79, 61
1, 377537, Note_off_c, 0, 76, 64
1, 377567, Note_on_c, 0, 72, 81
1, 377617, Note_off_c, 0, 72, 64
1, 377634, Note_on_c, 0, 70, 73
1, 377699, Note_on_c, 0, 67, 81
1, 377715, Note_off_c, 0, 70, 65
1, 377759, Note_on_c, 0, 64, 74
1, 377781, Note_off_c, 0, 67, 60
1, 377790, Note_off_c, 0, 64, 64
1, 377809, Note_on_c, 0, 60, 76
1, 377864, Note_off_c, 0, 60, 63
1, 377882, Note_on_c, 0, 58, 76
1, 377951, Note_on_c, 0, 55, 73
1, 377972, Note_off_c, 0, 58, 61
1, 378003, Note_on_c, 0, 52, 75
1, 378054, Note_on_c, 0, 48, 79
1, 378094, Note_off_c, 0, 52, 55
1, 378123, Note_on_c, 0, 46, 72
1, 378124, Note_off_c, 0, 55, 56
1, 378185, Note_on_c, 0, 43, 83
1, 378210, Note_off_c, 0, 48, 50
1, 378218, Note_off_c, 0, 46, 50
1, 378249, Note_on_c, 0, 40, 79
1, 378345, Note_on_c, 0, 36, 91
1, 378375, Control_c, 0, 64, 118
1, 378379, Note_off_c, 0, 40, 59
1, 378390, Control_c, 0, 64, 81
1, 378398, Note_off_c, 0, 43, 30
1, 378405, Control_c, 0, 64, 49
1, 378420, Control_c, 0, 64, 0
1, 378434, Control_c, 0, 64, 45
1, 378448, Note_on_c, 0, 40, 71
1, 378449, Control_c, 0, 64, 67
1, 378464, Control_c, 0, 64, 87
1, 378479, Control_c, 0, 64, 127
1, 378506, Note_on_c, 0, 43, 80
1, 378577, Note_on_c, 0, 46, 82
1, 378598, Note_off_c, 0, 40, 0
1, 378604, Note_off_c, 0, 43, 61
1, 378632, Note_on_c, 0, 48, 66
1, 378635, Poly_aftertouch_c, 0, 40, 127
1, 378637, Note_off_c, 0, 46, 61
1, 378681, Note_off_c, 0, 48, 64
1, 378689, Note_on_c, 0, 52, 73
1, 378753, Note_on_c, 0, 55, 64
1, 378762, Note_off_c, 0, 52, 60
1, 378795, Note_on_c, 0, 58, 70
1, 378803, Note_off_c, 0, 55, 62
1, 378827, Note_off_c, 0, 58, 66
1, 378872, Note_on_c, 0, 60, 78
1, 378944, Note_off_c, 0, 60, 62
1, 378947, Note_on_c, 0, 64, 75
1, 379015, Note_off_c, 0, 64, 61
1, 379024, Note_on_c, 0, 67, 65
1, 379054, Note_on_c, 0, 70, 73
1, 379056, Note_off_c, 0, 67, 66
1, 379057, Poly_aftertouch_c, 0, 66, 127
1, 379081, Note_off_c, 0, 70, 67
1, 379098, Poly_aftertouch_c, 0, 66, 0
1, 379132, Note_on_c, 0, 72, 75
1, 379207, Note_on_c, 0, 76, 78
1, 379245, Note_off_c, 0, 72, 55
1, 379275, Note_off_c, 0, 76, 61
1, 379291, Note_on_c, 0, 79, 78
1, 379370, Note_on_c, 0, 76, 75
1, 379413, Note_off_c, 0, 76, 62
1, 379421, Note_off_c, 0, 79, 57
1, 379442, Note_on_c, 0, 72, 74
1, 379519, Note_on_c, 0, 76, 80
1, 379524, Note_off_c, 0, 72, 62
1, 379605, Note_on_c, 0, 79, 79
1, 379610, Note_off_c, 0, 76, 61
1, 379680, Note_off_c, 0, 79, 60
1, 379699, Note_on_c, 0, 76, 80
1, 379793, Note_on_c, 0, 82, 77
1, 379799, Control_c, 0, 67, 8
1, 379814, Control_c, 0, 67, 9
1, 379829, Control_c, 0, 67, 10
1, 379830, Note_off_c, 0, 76, 54
1, 379844, Control_c, 0, 67, 11
1, 379859, Control_c, 0, 67, 12
1, 379874, Control_c, 0, 67, 12
1, 379883, Note_on_c, 0, 79, 81
1, 379889, Control_c, 0, 67, 13
1, 379903, Control_c, 0, 67, 14
1, 379918, Control_c, 0, 67, 16
1, 379933, Control_c, 0, 67, 17
1, 379948, Control_c, 0, 67, 17
1, 379950, Note_off_c, 0, 79, 61
1, 379963, Control_c, 0, 67, 18
1, 379963, Note_on_c, 0, 76, 76
1, 379975, Note_off_c, 0, 82, 35
1, 379978, Control_c, 0, 67, 19
1, 379992, Control_c, 0, 67, 20
1, 380007, Control_c, 0, 67, 22
1, 380022, Control_c, 0, 67, 25
1, 380037, Control_c, 0, 67, 28
1, 380051, Control_c, 0, 67, 30
1, 380059, Note_on_c, 0, 79, 76
1, 380066, Control_c, 0, 67, 33
1, 380081, Control_c, 0, 67, 35
1, 380096, Control_c, 0, 67, 37
1, 380111, Control_c, 0, 67, 40
1, 380127, Control_c, 0, 67, 42
1, 380142, Control_c, 0, 67, 44
1, 380151, Poly_aftertouch_c, 0, 40, 0
1, 380158, Note_off_c, 0, 76, 53
1, 380163, Control_c, 0, 67, 46
1, 380178, Control_c, 0, 67, 47
1, 380193, Control_c, 0, 67, 48
1, 380208, Control_c, 0, 67, 48
1, 380223, Control_c, 0, 67, 49
1, 380237, Control_c, 0, 67, 49
1, 380251, Note_on_c, 0, 82, 79
1, 380252, Control_c, 0, 67, 50
1, 380267, Control_c, 0, 67, 50
1, 380282, Control_c, 0, 67, 51
1, 380371, Note_off_c, 0, 79, 51
1, 380490, Control_c, 0, 67, 51
1, 380681, Control_c, 0, 67, 52
1, 380756, Control_c, 0, 67, 52
1, 380801, Control_c, 0, 67, 54
1, 380813, Note_on_c, 0, 49, 59
1, 380816, Control_c, 0, 67, 55
1, 380830, Control_c, 0, 67, 57
1, 380845, Control_c, 0, 67, 59
1, 380860, Control_c, 0, 67, 61
1, 380874, Control_c, 0, 67, 62
1, 380885, Note_off_c, 0, 49, 57
1, 380896, Control_c, 0, 67, 64
1, 380911, Control_c, 0, 67, 65
1, 380927, Control_c, 0, 67, 66
1, 380942, Control_c, 0, 67, 67
1, 380986, Control_c, 0, 67, 67
1, 381018, Note_on_c, 0, 49, 55
1, 381057, Note_off_c, 0, 49, 59
1, 381142, Note_on_c, 0, 49, 58
1, 381268, Note_off_c, 0, 49, 36
1, 381344, Note_off_c, 0, 82, 55
1, 381347, Note_on_c, 0, 48, 47
1, 381371, Control_c, 0, 67, 68
1, 381416, Control_c, 0, 67, 68
1, 381431, Control_c, 0, 67, 69
1, 381445, Control_c, 0, 67, 72
1, 381460, Control_c, 0, 64, 111
1, 381460, Control_c, 0, 67, 74
1, 381475, Control_c, 0, 64, 93
1, 381475, Control_c, 0, 67, 76
1, 381489, Control_c, 0, 64, 78
1, 381489, Control_c, 0, 67, 78
1, 381504, Control_c, 0, 64, 64
1, 381504, Control_c, 0, 67, 79
1, 381519, Control_c, 0, 64, 24
1, 381519, Control_c, 0, 67, 80
1, 381534, Control_c, 0, 64, 0
1, 381534, Control_c, 0, 67, 81
1, 381549, Control_c, 0, 67, 81
1, 381594, Control_c, 0, 64, 38
1, 381609, Control_c, 0, 64, 60
1, 381623, Control_c, 0, 64, 68
1, 381645, Control_c, 0, 64, 79
1, 381660, Control_c, 0, 64, 93
1, 381675, Control_c, 0, 64, 112
1, 381690, Control_c, 0, 64, 127
1, 381704, Control_c, 0, 67, 81
1, 381735, Control_c, 0, 67, 80
1, 381765, Control_c, 0, 67, 80
1, 381794, Control_c, 0, 67, 79
1, 381824, Control_c, 0, 67, 79
1, 381839, Control_c, 0, 67, 78
1, 381895, Note_on_c, 0, 79, 44
1, 381898, Note_on_c, 0, 76, 49
1, 381927, Control_c, 0, 67, 78
1, 381937, Note_off_c, 0, 79, 56
1, 381956, Note_off_c, 0, 76, 53
1, 381987, Control_c, 0, 67, 77
1, 382068, Note_on_c, 0, 79, 55
1, 382086, Note_on_c, 0, 76, 52
1, 382121, Note_off_c, 0, 76, 59
1, 382121, Note_off_c, 0, 79, 51
1, 382180, Control_c, 0, 67, 77
1, 382226, Note_on_c, 0, 76, 46
1, 382227, Note_on_c, 0, 79, 55
1, 382269, Note_off_c, 0, 79, 56
1, 382279, Note_off_c, 0, 76, 44
1, 382387, Control_c, 0, 67, 76
1, 382428, Note_on_c, 0, 82, 62
1, 382447, Note_on_c, 0, 79, 47
1, 382558, Note_off_c, 0, 48, 40
1, 382558, Control_c, 0, 67, 76
1, 382780, Control_c, 0, 67, 75
1, 383108, Note_on_c, 0, 49, 47
1, 383179, Note_off_c, 0, 49, 55
1, 383319, Note_on_c, 0, 49, 51
1, 383373, Note_off_c, 0, 49, 54
1, 383436, Note_off_c, 0, 79, 54
1, 383442, Note_off_c, 0, 82, 55
1, 383504, Note_on_c, 0, 49, 50
1, 383639, Note_off_c, 0, 49, 56
1, 383747, Note_on_c, 0, 48, 43
1, 383811, Control_c, 0, 67, 76
1, 383826, Control_c, 0, 64, 113
1, 383840, Control_c, 0, 64, 104
1, 383855, Control_c, 0, 64, 95
1, 383870, Control_c, 0, 64, 86
1, 383885, Control_c, 0, 64, 76
1, 383907, Control_c, 0, 64, 65
1, 383922, Control_c, 0, 64, 38
1, 383937, Control_c, 0, 64, 0
1, 384011, Control_c, 0, 64, 45
1, 384026, Control_c, 0, 64, 63
1, 384041, Control_c, 0, 64, 70
1, 384055, Control_c, 0, 64, 79
1, 384070, Control_c, 0, 64, 91
1, 384085, Control_c, 0, 64, 105
1, 384099, Control_c, 0, 64, 127
1, 384204, Control_c, 0, 67, 75
1, 384382, Control_c, 0, 67, 75
1, 384465, Note_on_c, 0, 67, 34
1, 384470, Note_on_c, 0, 64, 38
1, 384535, Note_off_c, 0, 67, 51
1, 384562, Note_off_c, 0, 64, 38
1, 384690, Note_on_c, 0, 67, 49
1, 384703, Note_on_c, 0, 64, 44
1, 384737, Note_off_c, 0, 67, 58
1, 384744, Control_c, 0, 67, 74
1, 384745, Note_off_c, 0, 64, 48
1, 384875, Note_on_c, 0, 64, 43
1, 384876, Note_on_c, 0, 67, 46
1, 384924, Note_off_c, 0, 67, 58
1, 384930, Note_off_c, 0, 64, 57
1, 385150, Note_on_c, 0, 70, 48
1, 385168, Note_on_c, 0, 67, 46
1, 385233, Control_c, 0, 64, 113
1, 385248, Control_c, 0, 64, 96
1, 385262, Control_c, 0, 64, 84
1, 385277, Control_c, 0, 64, 74
1, 385292, Control_c, 0, 64, 65
1, 385307, Control_c, 0, 64, 62
1, 385322, Control_c, 0, 64, 65
1, 385336, Control_c, 0, 64, 72
1, 385351, Control_c, 0, 64, 82
1, 385366, Control_c, 0, 64, 95
1, 385388, Control_c, 0, 64, 114
1, 385403, Control_c, 0, 64, 127
1, 385448, Note_off_c, 0, 36, 51
1, 385566, Control_c, 0, 67, 74
1, 385949, Note_on_c, 0, 37, 43
1, 386014, Note_off_c, 0, 37, 49
1, 386186, Note_on_c, 0, 37, 47
1, 386247, Note_off_c, 0, 37, 49
1, 386386, Note_on_c, 0, 37, 44
1, 386443, Note_off_c, 0, 37, 54
1, 386613, Control_c, 0, 67, 74
1, 386659, Note_on_c, 0, 36, 44
1, 386687, Control_c, 0, 64, 115
1, 386702, Control_c, 0, 64, 104
1, 386711, Note_off_c, 0, 48, 36
1, 386716, Control_c, 0, 64, 95
1, 386731, Control_c, 0, 64, 88
1, 386746, Control_c, 0, 64, 79
1, 386761, Control_c, 0, 64, 68
1, 386776, Control_c, 0, 64, 56
1, 386790, Control_c, 0, 64, 0
1, 386834, Control_c, 0, 67, 75
1, 386879, Control_c, 0, 64, 44
1, 386902, Control_c, 0, 64, 61
1, 386916, Control_c, 0, 64, 67
1, 386931, Control_c, 0, 64, 74
1, 386946, Control_c, 0, 64, 82
1, 386961, Control_c, 0, 64, 93
1, 386976, Control_c, 0, 64, 102
1, 386990, Control_c, 0, 64, 113
1, 387005, Control_c, 0, 64, 127
1, 387123, Control_c, 0, 67, 74
1, 387124, Note_off_c, 0, 36, 36
1, 387153, Control_c, 0, 67, 74
1, 387242, Control_c, 0, 67, 73
1, 387272, Control_c, 0, 67, 73
1, 387287, Control_c, 0, 67, 72
1, 387302, Control_c, 0, 67, 72
1, 387317, Control_c, 0, 67, 71
1, 387332, Control_c, 0, 67, 71
1, 387347, Control_c, 0, 67, 70
1, 387362, Control_c, 0, 67, 70
1, 387377, Control_c, 0, 67, 69
1, 387391, Control_c, 0, 67, 67
1, 387406, Control_c, 0, 67, 66
1, 387421, Control_c, 0, 67, 65
1, 387613, Control_c, 0, 67, 65
1, 387754, Control_c, 0, 67, 66
1, 387858, Control_c, 0, 67, 66
1, 387929, Note_on_c, 0, 37, 37
1, 387931, Control_c, 0, 67, 67
1, 387946, Control_c, 0, 64, 109
1, 387961, Control_c, 0, 64, 95
1, 387976, Control_c, 0, 64, 81
1, 387991, Control_c, 0, 64, 68
1, 388006, Control_c, 0, 64, 46
1, 388020, Control_c, 0, 64, 0
1, 388050, Control_c, 0, 64, 37
1, 388065, Control_c, 0, 64, 59
1, 388080, Control_c, 0, 64, 68
1, 388080, Control_c, 0, 67, 67
1, 388095, Control_c, 0, 64, 78
1, 388110, Control_c, 0, 64, 92
1, 388112, Note_off_c, 0, 37, 38
1, 388125, Control_c, 0, 64, 110
1, 388140, Control_c, 0, 64, 127
1, 388140, Control_c, 0, 67, 67
1, 388282, Note_on_c, 0, 37, 33
1, 388348, Control_c, 0, 67, 67
1, 388408, Note_off_c, 0, 37, 39
1, 388568, Note_on_c, 0, 37, 37
1, 388695, Note_off_c, 0, 37, 31
1, 388710, Control_c, 0, 67, 68
1, 388769, Control_c, 0, 67, 68
1, 388799, Control_c, 0, 67, 69
1, 388813, Control_c, 0, 67, 69
1, 388843, Control_c, 0, 67, 70
1, 388858, Control_c, 0, 67, 70
1, 388888, Control_c, 0, 67, 71
1, 388903, Control_c, 0, 67, 72
1, 388918, Control_c, 0, 67, 72
1, 388963, Control_c, 0, 67, 73
1, 388992, Control_c, 0, 67, 73
1, 389022, Control_c, 0, 67, 74
1, 389052, Note_on_c, 0, 36, 33
1, 389052, Control_c, 0, 67, 74
1, 389069, Note_off_c, 0, 67, 36
1, 389082, Control_c, 0, 67, 75
1, 389108, Note_off_c, 0, 70, 32
1, 389111, Control_c, 0, 67, 75
1, 389133, Control_c, 0, 64, 121
1, 389148, Control_c, 0, 64, 108
1, 389148, Control_c, 0, 67, 77
1, 389163, Control_c, 0, 64, 102
1, 389163, Control_c, 0, 67, 78
1, 389178, Control_c, 0, 64, 96
1, 389178, Control_c, 0, 67, 78
1, 389192, Control_c, 0, 64, 90
1, 389192, Control_c, 0, 67, 79
1, 389207, Control_c, 0, 64, 84
1, 389222, Control_c, 0, 64, 78
1, 389222, Control_c, 0, 67, 80
1, 389237, Control_c, 0, 64, 70
1, 389237, Control_c, 0, 67, 80
1, 389252, Control_c, 0, 64, 64
1, 389252, Control_c, 0, 67, 81
1, 389266, Control_c, 0, 64, 58
1, 389266, Control_c, 0, 67, 82
1, 389281, Control_c, 0, 64, 52
1, 389281, Control_c, 0, 67, 83
1, 389296, Control_c, 0, 64, 48
1, 389296, Control_c, 0, 67, 84
1, 389311, Control_c, 0, 64, 45
1, 389311, Control_c, 0, 67, 86
1, 389326, Control_c, 0, 64, 39
1, 389326, Control_c, 0, 67, 87
1, 389341, Control_c, 0, 64, 20
1, 389341, Control_c, 0, 67, 88
1, 389356, Control_c, 0, 64, 0
1, 389356, Control_c, 0, 67, 89
1, 389371, Control_c, 0, 67, 91
1, 389385, Control_c, 0, 67, 91
1, 389400, Control_c, 0, 67, 92
1, 389415, Control_c, 0, 67, 93
1, 389430, Control_c, 0, 67, 94
1, 389444, Control_c, 0, 67, 95
1, 389459, Control_c, 0, 67, 96
1, 389474, Control_c, 0, 64, 15
1, 389474, Control_c, 0, 67, 96
1, 389489, Control_c, 0, 64, 36
1, 389489, Control_c, 0, 67, 97
1, 389504, Control_c, 0, 64, 50
1, 389504, Control_c, 0, 67, 98
1, 389518, Control_c, 0, 64, 61
1, 389518, Control_c, 0, 67, 98
1, 389533, Control_c, 0, 64, 66
1, 389548, Control_c, 0, 64, 71
1, 389563, Control_c, 0, 64, 78
1, 389578, Control_c, 0, 64, 86
1, 389592, Control_c, 0, 64, 93
1, 389607, Control_c, 0, 64, 102
1, 389622, Control_c, 0, 64, 117
1, 389636, Control_c, 0, 64, 127
1, 389666, Control_c, 0, 67, 98
1, 389681, Control_c, 0, 67, 97
1, 389696, Control_c, 0, 67, 96
1, 389712, Control_c, 0, 67, 95
1, 389726, Control_c, 0, 67, 95
1, 389741, Control_c, 0, 67, 94
1, 389756, Control_c, 0, 67, 94
1, 389771, Control_c, 0, 67, 93
1, 389786, Control_c, 0, 67, 92
1, 389800, Control_c, 0, 67, 91
1, 389815, Control_c, 0, 67, 90
1, 389845, Control_c, 0, 67, 89
1, 389855, Note_off_c, 0, 36, 29
1, 389860, Control_c, 0, 67, 88
1, 389882, Control_c, 0, 67, 88
1, 389897, Control_c, 0, 67, 87
1, 389912, Control_c, 0, 67, 86
1, 389927, Control_c, 0, 67, 84
1, 389941, Control_c, 0, 67, 82
1, 389956, Control_c, 0, 67, 81
1, 389971, Control_c, 0, 67, 80
1, 389986, Control_c, 0, 67, 79
1, 390001, Control_c, 0, 67, 78
1, 390015, Control_c, 0, 67, 77
1, 390030, Control_c, 0, 67, 75
1, 390045, Control_c, 0, 67, 73
1, 390059, Control_c, 0, 67, 69
1, 390074, Control_c, 0, 67, 66
1, 390089, Control_c, 0, 67, 61
1, 390104, Control_c, 0, 67, 55
1, 390119, Control_c, 0, 67, 47
1, 390134, Control_c, 0, 67, 40
1, 390149, Control_c, 0, 67, 35
1, 390164, Control_c, 0, 67, 31
1, 390179, Control_c, 0, 67, 28
1, 390194, Control_c, 0, 67, 27
1, 390223, Control_c, 0, 67, 27
1, 390297, Control_c, 0, 67, 27
1, 390312, Control_c, 0, 67, 28
1, 390326, Control_c, 0, 67, 29
1, 390341, Control_c, 0, 67, 29
1, 390356, Control_c, 0, 67, 30
1, 390371, Control_c, 0, 67, 31
1, 390385, Control_c, 0, 67, 31
1, 390400, Control_c, 0, 67, 32
1, 390415, Control_c, 0, 67, 32
1, 390445, Control_c, 0, 67, 33
1, 390489, Control_c, 0, 67, 33
1, 390564, Control_c, 0, 67, 34
1, 391207, Note_on_c, 0, 76, 42
1, 391227, Note_on_c, 0, 67, 33
1, 391231, Note_on_c, 0, 70, 35
1, 391246, Note_on_c, 0, 37, 29
1, 391328, Control_c, 0, 64, 122
1, 391343, Control_c, 0, 64, 101
1, 391358, Control_c, 0, 64, 88
1, 391373, Control_c, 0, 64, 75
1, 391395, Control_c, 0, 64, 63
1, 391410, Control_c, 0, 64, 45
1, 391425, Control_c, 0, 64, 37
1, 391440, Control_c, 0, 64, 52
1, 391454, Control_c, 0, 64, 64
1, 391469, Control_c, 0, 64, 72
1, 391484, Control_c, 0, 64, 85
1, 391499, Control_c, 0, 64, 105
1, 391513, Control_c, 0, 64, 127
1, 391542, Note_off_c, 0, 37, 38
1, 391551, Note_off_c, 0, 70, 42
1, 391558, Control_c, 0, 67, 33
1, 391571, Note_off_c, 0, 76, 42
1, 391578, Note_off_c, 0, 67, 39
1, 391795, Control_c, 0, 67, 33
1, 391827, Note_on_c, 0, 76, 55
1, 391839, Note_on_c, 0, 70, 43
1, 391851, Note_on_c, 0, 67, 38
1, 391857, Note_on_c, 0, 37, 37
1, 392033, Note_off_c, 0, 70, 56
1, 392036, Note_off_c, 0, 67, 54
1, 392038, Note_off_c, 0, 37, 36
1, 392054, Note_off_c, 0, 76, 60
1, 392370, Note_on_c, 0, 76, 62
1, 392390, Note_on_c, 0, 70, 48
1, 392393, Note_on_c, 0, 67, 47
1, 392408, Note_on_c, 0, 37, 39
1, 392499, Control_c, 0, 67, 33
1, 392528, Control_c, 0, 67, 34
1, 392558, Control_c, 0, 67, 34
1, 392573, Control_c, 0, 67, 35
1, 392588, Control_c, 0, 67, 35
1, 392602, Control_c, 0, 67, 36
1, 392617, Control_c, 0, 67, 36
1, 392632, Control_c, 0, 67, 37
1, 392633, Note_off_c, 0, 70, 48
1, 392647, Control_c, 0, 67, 37
1, 392662, Control_c, 0, 67, 38
1, 392665, Note_off_c, 0, 76, 57
1, 392671, Note_off_c, 0, 67, 35
1, 392677, Control_c, 0, 67, 41
1, 392692, Control_c, 0, 67, 45
1, 392706, Control_c, 0, 67, 48
1, 392720, Note_off_c, 0, 37, 33
1, 392721, Control_c, 0, 67, 51
1, 392736, Control_c, 0, 67, 51
1, 392781, Control_c, 0, 67, 52
1, 392795, Control_c, 0, 67, 52
1, 392810, Control_c, 0, 67, 54
1, 392825, Control_c, 0, 67, 58
1, 392840, Control_c, 0, 67, 62
1, 392854, Control_c, 0, 67, 66
1, 392876, Control_c, 0, 67, 70
1, 392891, Control_c, 0, 67, 74
1, 392907, Control_c, 0, 67, 78
1, 392922, Control_c, 0, 67, 81
1, 392937, Control_c, 0, 67, 84
1, 392951, Control_c, 0, 67, 88
1, 392966, Control_c, 0, 67, 91
1, 392981, Control_c, 0, 67, 94
1, 392996, Control_c, 0, 67, 97
1, 393011, Control_c, 0, 67, 100
1, 393025, Control_c, 0, 67, 101
1, 393040, Control_c, 0, 67, 102
1, 393115, Control_c, 0, 67, 102
1, 393461, Note_on_c, 0, 76, 37
1, 393483, Note_on_c, 0, 36, 28
1, 393488, Note_on_c, 0, 70, 33
1, 393494, Note_on_c, 0, 67, 31
1, 393603, Control_c, 0, 64, 104
1, 393618, Control_c, 0, 64, 89
1, 393640, Control_c, 0, 64, 76
1, 393655, Control_c, 0, 64, 64
1, 393670, Control_c, 0, 64, 40
1, 393684, Control_c, 0, 64, 0
1, 393893, Control_c, 0, 67, 102
1, 393908, Control_c, 0, 67, 101
1, 393967, Control_c, 0, 67, 101
1, 393997, Control_c, 0, 67, 100
1, 394012, Control_c, 0, 67, 100
1, 394026, Control_c, 0, 67, 99
1, 394041, Control_c, 0, 67, 99
1, 394071, Control_c, 0, 67, 98
1, 394100, Control_c, 0, 67, 98
1, 394130, Control_c, 0, 64, 15
1, 394130, Control_c, 0, 67, 97
1, 394145, Control_c, 0, 64, 40
1, 394145, Control_c, 0, 67, 97
1, 394160, Control_c, 0, 64, 53
1, 394174, Control_c, 0, 64, 60
1, 394189, Control_c, 0, 64, 63
1, 394204, Control_c, 0, 64, 65
1, 394204, Control_c, 0, 67, 96
1, 394219, Control_c, 0, 64, 66
1, 394233, Control_c, 0, 64, 68
1, 394233, Control_c, 0, 67, 96
1, 394248, Control_c, 0, 64, 70
1, 394263, Control_c, 0, 64, 73
1, 394263, Control_c, 0, 67, 95
1, 394278, Control_c, 0, 64, 77
1, 394293, Control_c, 0, 64, 81
1, 394307, Control_c, 0, 64, 85
1, 394322, Control_c, 0, 64, 89
1, 394322, Control_c, 0, 67, 95
1, 394337, Control_c, 0, 64, 93
1, 394352, Control_c, 0, 64, 98
1, 394374, Control_c, 0, 64, 103
1, 394389, Control_c, 0, 64, 108
1, 394389, Control_c, 0, 67, 94
1, 394404, Control_c, 0, 64, 118
1, 394419, Control_c, 0, 64, 127
1, 394463, Control_c, 0, 67, 94
1, 394553, Control_c, 0, 67, 93
1, 394716, Control_c, 0, 67, 92
1, 394745, Control_c, 0, 67, 92
1, 394775, Control_c, 0, 67, 91
1, 394835, Control_c, 0, 67, 91
1, 394849, Control_c, 0, 67, 90
1, 394879, Control_c, 0, 67, 90
1, 394894, Control_c, 0, 67, 89
1, 394909, Control_c, 0, 67, 88
1, 394923, Control_c, 0, 67, 87
1, 394938, Control_c, 0, 67, 86
1, 394953, Control_c, 0, 67, 85
1, 394968, Control_c, 0, 67, 83
1, 394983, Control_c, 0, 67, 82
1, 394997, Control_c, 0, 67, 80
1, 395027, Control_c, 0, 67, 80
1, 395286, Control_c, 0, 67, 79
1, 395361, Control_c, 0, 67, 79
1, 395391, Control_c, 0, 67, 78
1, 395436, Control_c, 0, 67, 77
1, 395451, Control_c, 0, 67, 77
1, 395466, Control_c, 0, 67, 76
1, 395480, Control_c, 0, 67, 75
1, 395495, Control_c, 0, 67, 74
1, 395510, Control_c, 0, 67, 73
1, 395525, Control_c, 0, 67, 72
1, 395540, Control_c, 0, 67, 71
1, 395554, Control_c, 0, 67, 70
1, 395569, Control_c, 0, 67, 69
1, 395584, Control_c, 0, 67, 68
1, 395599, Control_c, 0, 67, 67
1, 395614, Control_c, 0, 67, 66
1, 395628, Control_c, 0, 67, 65
1, 395643, Control_c, 0, 67, 64
1, 395658, Control_c, 0, 67, 62
1, 395672, Control_c, 0, 67, 61
1, 395687, Control_c, 0, 67, 60
1, 395702, Control_c, 0, 67, 59
1, 395717, Control_c, 0, 67, 57
1, 395732, Control_c, 0, 67, 56
1, 395747, Control_c, 0, 67, 55
1, 395762, Control_c, 0, 67, 54
1, 395777, Control_c, 0, 67, 54
1, 395791, Control_c, 0, 67, 53
1, 395806, Control_c, 0, 67, 52
1, 395836, Control_c, 0, 67, 52
1, 395851, Control_c, 0, 67, 51
1, 395962, Control_c, 0, 67, 51
1, 396200, Control_c, 0, 67, 50
1, 396274, Control_c, 0, 67, 50
1, 396333, Control_c, 0, 67, 49
1, 396363, Control_c, 0, 67, 47
1, 396377, Control_c, 0, 67, 43
1, 396392, Control_c, 0, 67, 40
1, 396407, Control_c, 0, 67, 38
1, 396421, Control_c, 0, 67, 36
1, 396436, Control_c, 0, 67, 35
1, 396451, Control_c, 0, 67, 34
1, 396466, Control_c, 0, 67, 33
1, 396481, Control_c, 0, 67, 31
1, 396495, Control_c, 0, 67, 29
1, 396510, Control_c, 0, 67, 27
1, 396525, Control_c, 0, 67, 26
1, 396540, Control_c, 0, 67, 25
1, 396555, Control_c, 0, 67, 24
1, 396570, Control_c, 0, 67, 23
1, 396585, Control_c, 0, 67, 23
1, 396599, Control_c, 0, 67, 22
1, 396621, Control_c, 0, 67, 22
1, 396636, Control_c, 0, 67, 21
1, 396651, Control_c, 0, 67, 20
1, 396666, Control_c, 0, 67, 20
1, 396681, Control_c, 0, 67, 19
1, 396695, Control_c, 0, 67, 18
1, 396710, Control_c, 0, 67, 16
1, 396725, Control_c, 0, 67, 15
1, 396740, Control_c, 0, 67, 13
1, 396755, Control_c, 0, 67, 10
1, 396769, Control_c, 0, 67, 0
1, 396823, Note_off_c, 0, 70, 57
1, 396824, Note_off_c, 0, 67, 55
1, 396852, Note_off_c, 0, 76, 54
1, 396955, Note_on_c, 0, 39, 8
1, 396959, Note_off_c, 0, 36, 38
1, 397010, Note_off_c, 0, 39, 34
1, 397080, Note_on_c, 0, 79, 95
1, 397081, Note_on_c, 0, 88, 106
1, 397082, Note_on_c, 0, 82, 100
1, 397083, Note_on_c, 0, 76, 100
1, 397088, Note_on_c, 0, 48, 103
1, 397089, Note_on_c, 0, 36, 97
1, 397103, Note_off_c, 0, 76, 67
1, 397109, Note_off_c, 0, 82, 61
1, 397112, Note_off_c, 0, 79, 64
1, 397115, Note_off_c, 0, 48, 66
1, 397116, Note_off_c, 0, 88, 64
1, 397118, Note_off_c, 0, 36, 65
1, 397181, Poly_aftertouch_c, 0, 39, 0
1, 397186, Note_on_c, 0, 79, 94
1, 397186, Note_on_c, 0, 88, 97
1, 397187, Note_on_c, 0, 76, 92
1, 397187, Note_on_c, 0, 82, 93
1, 397188, Note_on_c, 0, 48, 99
1, 397191, Note_on_c, 0, 36, 95
1, 397205, Note_off_c, 0, 79, 64
1, 397205, Note_off_c, 0, 82, 69
1, 397208, Note_off_c, 0, 76, 63
1, 397210, Poly_aftertouch_c, 0, 39, 0
1, 397218, Note_off_c, 0, 48, 52
1, 397219, Note_off_c, 0, 88, 61
1, 397223, Note_off_c, 0, 36, 62
1, 397255, Note_on_c, 0, 48, 77
1, 397259, Note_on_c, 0, 36, 73
1, 397263, Note_on_c, 0, 76, 89
1, 397264, Note_on_c, 0, 88, 79
1, 397272, Note_on_c, 0, 82, 93
1, 397291, Note_off_c, 0, 48, 62
1, 397295, Note_on_c, 0, 79, 47
1, 397295, Note_off_c, 0, 76, 60
1, 397305, Note_off_c, 0, 36, 60
1, 397306, Note_off_c, 0, 88, 69
1, 397313, Note_off_c, 0, 82, 60
1, 397321, Note_off_c, 0, 79, 59
1, 397369, Control_c, 0, 64, 78
1, 397372, Note_on_c, 0, 89, 113
1, 397376, Note_on_c, 0, 77, 93
1, 397376, Note_on_c, 0, 79, 98
1, 397378, Note_on_c, 0, 29, 93
1, 397378, Note_on_c, 0, 41, 105
1, 397384, Control_c, 0, 64, 57
1, 397388, Note_on_c, 0, 81, 69
1, 397392, Note_off_c, 0, 79, 73
1, 397392, Note_off_c, 0, 77, 74
1, 397392, Note_off_c, 0, 89, 69
1, 397393, Note_on_c, 0, 85, 60
1, 397394, Note_off_c, 0, 85, 127
1, 397398, Control_c, 0, 64, 61
1, 397399, Note_off_c, 0, 41, 69
1, 397401, Note_off_c, 0, 29, 72
1, 397401, Note_off_c, 0, 81, 71
1, 397403, Note_on_c, 0, 40, 44
1, 397404, Note_off_c, 0, 40, 127
1, 397413, Control_c, 0, 64, 82
1, 397417, Note_on_c, 0, 91, 25
1, 397418, Note_off_c, 0, 91, 127
1, 397428, Control_c, 0, 64, 127
1, 397443, Poly_aftertouch_c, 0, 40, 0
1, 397520, Note_on_c, 0, 65, 62
1, 397523, Note_on_c, 0, 60, 59
1, 397536, Note_on_c, 0, 54, 41
1, 397554, Note_off_c, 0, 65, 45
1, 397567, Note_off_c, 0, 54, 59
1, 397597, Note_off_c, 0, 60, 60
1, 397599, Note_on_c, 0, 56, 66
1, 397649, Note_off_c, 0, 56, 59
1, 397656, Note_on_c, 0, 60, 53
1, 397670, Note_on_c, 0, 65, 69
1, 397720, Note_off_c, 0, 60, 64
1, 397731, Note_off_c, 0, 65, 59
1, 397738, Note_on_c, 0, 56, 70
1, 397799, Note_off_c, 0, 56, 61
1, 397821, Note_on_c, 0, 60, 66
1, 397831, Note_on_c, 0, 65, 64
1, 397851, Note_off_c, 0, 60, 62
1, 397860, Note_off_c, 0, 65, 65
1, 397888, Control_c, 0, 64, 79
1, 397890, Note_on_c, 0, 56, 71
1, 397903, Control_c, 0, 64, 49
1, 397918, Control_c, 0, 64, 0
1, 397933, Note_off_c, 0, 56, 59
1, 397933, Control_c, 0, 64, 21
1, 397947, Control_c, 0, 64, 64
1, 397959, Note_on_c, 0, 60, 62
1, 397962, Control_c, 0, 64, 83
1, 397964, Note_on_c, 0, 65, 62
1, 397977, Control_c, 0, 64, 127
1, 398012, Note_off_c, 0, 65, 54
1, 398015, Note_off_c, 0, 60, 59
1, 398046, Note_on_c, 0, 56, 69
1, 398112, Note_off_c, 0, 56, 62
1, 398139, Note_on_c, 0, 60, 61
1, 398145, Note_on_c, 0, 68, 67
1, 398147, Note_on_c, 0, 65, 54
1, 398196, Note_off_c, 0, 65, 56
1, 398200, Note_off_c, 0, 60, 61
1, 398214, Note_off_c, 0, 68, 63
1, 398233, Note_on_c, 0, 56, 64
1, 398269, Note_off_c, 0, 56, 61
1, 398314, Note_on_c, 0, 65, 49
1, 398328, Note_on_c, 0, 72, 72
1, 398328, Note_on_c, 0, 60, 40
1, 398348, Note_off_c, 0, 65, 54
1, 398362, Note_off_c, 0, 60, 57
1, 398376, Note_on_c, 0, 56, 65
1, 398390, Note_off_c, 0, 72, 62
1, 398391, Note_on_c, 0, 77, 83
1, 398429, Note_off_c, 0, 56, 59
1, 398448, Note_on_c, 0, 65, 56
1, 398451, Note_on_c, 0, 60, 63
1, 398510, Note_off_c, 0, 65, 56
1, 398521, Note_off_c, 0, 60, 64
1, 398538, Note_on_c, 0, 56, 70
1, 398578, Note_off_c, 0, 56, 63
1, 398616, Note_on_c, 0, 60, 42
1, 398629, Note_on_c, 0, 65, 41
1, 398637, Note_on_c, 0, 80, 72
1, 398650, Note_off_c, 0, 60, 53
1, 398652, Note_off_c, 0, 77, 60
1, 398664, Note_off_c, 0, 65, 51
1, 398666, Note_on_c, 0, 56, 69
1, 398737, Note_off_c, 0, 56, 62
1, 398745, Note_on_c, 0, 65, 60
1, 398748, Note_on_c, 0, 60, 54
1, 398788, Note_off_c, 0, 65, 58
1, 398799, Note_on_c, 0, 77, 74
1, 398818, Note_off_c, 0, 60, 62
1, 398823, Note_off_c, 0, 80, 61
1, 398832, Note_on_c, 0, 58, 65
1, 398845, Control_c, 0, 64, 91
1, 398847, Note_off_c, 0, 77, 58
1, 398854, Note_on_c, 0, 76, 85
1, 398860, Control_c, 0, 64, 64
1, 398883, Control_c, 0, 64, 0
1, 398907, Note_off_c, 0, 58, 63
1, 398918, Note_on_c, 0, 67, 49
1, 398922, Note_on_c, 0, 60, 52
1, 398927, Control_c, 0, 64, 58
1, 398942, Control_c, 0, 64, 81
1, 398948, Note_off_c, 0, 67, 54
1, 398957, Control_c, 0, 64, 127
1, 398972, Note_on_c, 0, 58, 66
1, 398978, Note_off_c, 0, 60, 62
1, 399053, Note_on_c, 0, 67, 55
1, 399053, Note_off_c, 0, 58, 62
1, 399090, Note_on_c, 0, 60, 37
1, 399092, Note_off_c, 0, 67, 61
1, 399096, Note_on_c, 0, 79, 79
1, 399120, Note_off_c, 0, 76, 63
1, 399128, Note_off_c, 0, 60, 65
1, 399130, Note_on_c, 0, 58, 60
1, 399188, Note_on_c, 0, 67, 62
1, 399205, Note_off_c, 0, 58, 60
1, 399223, Note_on_c, 0, 60, 56
1, 399226, Note_off_c, 0, 67, 56
1, 399273, Note_off_c, 0, 79, 59
1, 399280, Note_on_c, 0, 76, 75
1, 399297, Note_off_c, 0, 60, 62
1, 399322, Note_on_c, 0, 56, 53
1, 399327, Control_c, 0, 64, 115
1, 399339, Note_off_c, 0, 76, 62
1, 399340, Note_on_c, 0, 77, 72
1, 399342, Control_c, 0, 64, 87
1, 399357, Control_c, 0, 64, 64
1, 399372, Control_c, 0, 64, 0
1, 399390, Note_off_c, 0, 56, 58
1, 399416, Note_on_c, 0, 65, 44
1, 399417, Note_on_c, 0, 60, 59
1, 399445, Control_c, 0, 64, 57
1, 399460, Control_c, 0, 64, 69
1, 399463, Note_off_c, 0, 65, 60
1, 399464, Note_off_c, 0, 60, 63
1, 399475, Control_c, 0, 64, 80
1, 399490, Control_c, 0, 64, 97
1, 399498, Note_on_c, 0, 56, 55
1, 399505, Control_c, 0, 64, 127
1, 399541, Note_off_c, 0, 56, 61
1, 399583, Note_on_c, 0, 65, 51
1, 399587, Note_on_c, 0, 72, 66
1, 399592, Note_on_c, 0, 60, 46
1, 399648, Note_off_c, 0, 65, 59
1, 399649, Note_off_c, 0, 60, 63
1, 399659, Note_off_c, 0, 77, 62
1, 399670, Note_on_c, 0, 56, 57
1, 399724, Note_off_c, 0, 56, 60
1, 399749, Note_on_c, 0, 60, 57
1, 399760, Note_on_c, 0, 65, 62
1, 399791, Note_off_c, 0, 60, 57
1, 399796, Note_off_c, 0, 65, 63
1, 399796, Note_off_c, 0, 72, 64
1, 399828, Note_on_c, 0, 56, 68
1, 399864, Note_off_c, 0, 56, 58
1, 399891, Note_on_c, 0, 60, 67
1, 399899, Note_on_c, 0, 65, 65
1, 399957, Note_off_c, 0, 60, 60
1, 399961, Note_off_c, 0, 65, 54
1, 399971, Note_on_c, 0, 56, 72
1, 400042, Note_off_c, 0, 56, 62
1, 400054, Note_on_c, 0, 68, 72
1, 400054, Note_on_c, 0, 80, 81
1, 400060, Note_on_c, 0, 60, 66
1, 400073, Note_on_c, 0, 65, 63
1, 400084, Note_off_c, 0, 68, 63
1, 400105, Note_on_c, 0, 70, 16
1, 400111, Note_off_c, 0, 65, 57
1, 400121, Note_off_c, 0, 60, 62
1, 400137, Note_on_c, 0, 56, 70
1, 400150, Note_off_c, 0, 70, 41
1, 400197, Note_off_c, 0, 80, 62
1, 400205, Note_off_c, 0, 56, 61
1, 400218, Note_on_c, 0, 65, 62
1, 400218, Note_on_c, 0, 84, 72
1, 400233, Note_on_c, 0, 60, 61
1, 400236, Note_off_c, 0, 84, 68
1, 400275, Note_on_c, 0, 88, 85
1, 400299, Note_off_c, 0, 60, 63
1, 400311, Note_on_c, 0, 56, 71
1, 400341, Note_off_c, 0, 65, 0
1, 400355, Note_off_c, 0, 56, 60
1, 400370, Note_on_c, 0, 60, 57
1, 400370, Note_on_c, 0, 65, 20
1, 400372, Note_off_c, 0, 88, 65
1, 400442, Note_off_c, 0, 65, 58
1, 400446, Note_off_c, 0, 60, 62
1, 400466, Note_on_c, 0, 56, 67
1, 400515, Note_on_c, 0, 92, 95
1, 400523, Note_on_c, 0, 80, 85
1, 400539, Note_off_c, 0, 56, 62
1, 400543, Note_off_c, 0, 92, 56
1, 400545, Note_on_c, 0, 60, 67
1, 400545, Note_off_c, 0, 80, 68
1, 400555, Note_on_c, 0, 65, 59
1, 400588, Note_off_c, 0, 65, 64
1, 400590, Note_off_c, 0, 60, 57
1, 400624, Note_on_c, 0, 56, 69
1, 400666, Note_on_c, 0, 65, 69
1, 400667, Note_off_c, 0, 56, 61
1, 400668, Poly_aftertouch_c, 0, 60, 0
1, 400671, Note_on_c, 0, 89, 103
1, 400679, Note_on_c, 0, 77, 83
1, 400695, Note_off_c, 0, 89, 65
1, 400698, Note_off_c, 0, 77, 72
1, 400722, Note_off_c, 0, 65, 58
1, 400745, Note_on_c, 0, 58, 83
1, 400747, Note_on_c, 0, 88, 100
1, 400749, Control_c, 0, 64, 83
1, 400752, Note_on_c, 0, 76, 100
1, 400764, Control_c, 0, 64, 45
1, 400779, Control_c, 0, 64, 0
1, 400809, Control_c, 0, 64, 35
1, 400817, Note_on_c, 0, 60, 48
1, 400823, Note_off_c, 0, 76, 63
1, 400823, Control_c, 0, 64, 72
1, 400828, Note_off_c, 0, 58, 62
1, 400833, Note_on_c, 0, 64, 79
1, 400838, Control_c, 0, 64, 127
1, 400847, Note_off_c, 0, 88, 70
1, 400851, Note_on_c, 0, 67, 75
1, 400854, Note_on_c, 0, 61, 5
1, 400902, Note_off_c, 0, 64, 63
1, 400904, Note_off_c, 0, 67, 59
1, 400913, Note_on_c, 0, 58, 83
1, 400922, Note_off_c, 0, 61, 38
1, 400992, Note_on_c, 0, 91, 108
1, 400996, Note_on_c, 0, 79, 101
1, 401002, Note_on_c, 0, 64, 82
1, 401011, Note_on_c, 0, 67, 73
1, 401017, Note_off_c, 0, 58, 60
1, 401023, Note_off_c, 0, 91, 69
1, 401024, Note_off_c, 0, 79, 62
1, 401026, Note_off_c, 0, 60, 0
1, 401026, Note_on_c, 0, 60, 3
1, 401038, Note_off_c, 0, 67, 61
1, 401077, Note_off_c, 0, 64, 60
1, 401078, Note_on_c, 0, 58, 58
1, 401155, Note_on_c, 0, 64, 69
1, 401160, Note_on_c, 0, 67, 63
1, 401169, Note_off_c, 0, 58, 63
1, 401188, Note_on_c, 0, 88, 74
1, 401188, Note_off_c, 0, 67, 63
1, 401193, Note_on_c, 0, 76, 59
1, 401203, Note_off_c, 0, 88, 69
1, 401214, Note_off_c, 0, 64, 65
1, 401215, Note_off_c, 0, 76, 62
1, 401233, Note_on_c, 0, 57, 84
1, 401244, Note_on_c, 0, 90, 99
1, 401247, Control_c, 0, 64, 100
1, 401250, Note_on_c, 0, 78, 101
1, 401262, Control_c, 0, 64, 67
1, 401266, Note_off_c, 0, 60, 42
1, 401277, Control_c, 0, 64, 0
1, 401336, Control_c, 0, 64, 50
1, 401339, Note_on_c, 0, 60, 50
1, 401348, Note_on_c, 0, 66, 68
1, 401351, Control_c, 0, 64, 77
1, 401357, Note_off_c, 0, 57, 62
1, 401362, Note_on_c, 0, 63, 66
1, 401365, Control_c, 0, 64, 127
1, 401387, Note_off_c, 0, 90, 70
1, 401396, Note_off_c, 0, 78, 66
1, 401409, Note_off_c, 0, 66, 61
1, 401419, Note_off_c, 0, 63, 59
1, 401432, Note_on_c, 0, 57, 76
1, 401435, Note_off_c, 0, 60, 64
1, 401524, Note_off_c, 0, 57, 62
1, 401548, Note_on_c, 0, 60, 55
1, 401552, Note_on_c, 0, 66, 57
1, 401556, Note_on_c, 0, 63, 61
1, 401562, Note_on_c, 0, 84, 82
1, 401570, Note_on_c, 0, 72, 73
1, 401594, Note_off_c, 0, 66, 57
1, 401611, Note_off_c, 0, 63, 57
1, 401629, Note_off_c, 0, 60, 59
1, 401634, Note_on_c, 0, 57, 76
1, 401718, Note_off_c, 0, 57, 62
1, 401724, Note_on_c, 0, 66, 63
1, 401730, Note_on_c, 0, 60, 59
1, 401731, Note_on_c, 0, 63, 64
1, 401762, Note_off_c, 0, 66, 56
1, 401763, Note_off_c, 0, 72, 63
1, 401792, Note_off_c, 0, 84, 66
1, 401792, Note_off_c, 0, 63, 61
1, 401800, Note_on_c, 0, 57, 80
1, 401804, Note_off_c, 0, 60, 64
1, 401873, Note_on_c, 0, 66, 73
1, 401882, Note_off_c, 0, 57, 63
1, 401892, Note_on_c, 0, 63, 68
1, 401897, Note_on_c, 0, 60, 56
1, 401903, Note_off_c, 0, 66, 61
1, 401941, Note_off_c, 0, 63, 59
1, 401944, Note_on_c, 0, 57, 73
1, 401965, Note_off_c, 0, 60, 61
1, 402031, Note_on_c, 0, 66, 78
1, 402040, Note_off_c, 0, 57, 64
1, 402047, Note_on_c, 0, 63, 73
1, 402047, Note_on_c, 0, 87, 93
1, 402050, Note_on_c, 0, 75, 92
1, 402065, Note_on_c, 0, 60, 56
1, 402090, Note_off_c, 0, 75, 63
1, 402096, Note_off_c, 0, 66, 58
1, 402096, Note_off_c, 0, 87, 63
1, 402121, Note_off_c, 0, 63, 63
1, 402132, Note_on_c, 0, 57, 84
1, 402161, Note_off_c, 0, 60, 54
1, 402192, Note_on_c, 0, 84, 94
1, 402195, Note_on_c, 0, 72, 82
1, 402210, Note_off_c, 0, 84, 72
1, 402216, Note_off_c, 0, 72, 71
1, 402219, Note_off_c, 0, 57, 62
1, 402241, Note_on_c, 0, 60, 26
1, 402246, Note_on_c, 0, 63, 47
1, 402248, Control_c, 0, 64, 104
1, 402257, Note_on_c, 0, 57, 71
1, 402263, Control_c, 0, 64, 71
1, 402269, Note_on_c, 0, 89, 104
1, 402275, Note_on_c, 0, 77, 90
1, 402277, Note_off_c, 0, 63, 53
1, 402278, Control_c, 0, 64, 0
1, 402287, Note_off_c, 0, 60, 58
1, 402307, Control_c, 0, 64, 59
1, 402322, Control_c, 0, 64, 82
1, 402337, Control_c, 0, 64, 127
1, 402347, Note_off_c, 0, 89, 64
1, 402356, Note_off_c, 0, 77, 63
1, 402356, Note_on_c, 0, 65, 79
1, 402357, Note_on_c, 0, 63, 71
1, 402359, Note_off_c, 0, 57, 64
1, 402395, Note_on_c, 0, 60, 45
1, 402421, Note_off_c, 0, 65, 59
1, 402428, Note_off_c, 0, 63, 62
1, 402437, Note_on_c, 0, 57, 82
1, 402457, Note_off_c, 0, 60, 62
1, 402526, Note_off_c, 0, 57, 58
1, 402531, Control_c, 0, 64, 100
1, 402540, Note_on_c, 0, 82, 94
1, 402545, Control_c, 0, 64, 64
1, 402546, Note_on_c, 0, 70, 85
1, 402554, Note_on_c, 0, 65, 60
1, 402556, Note_on_c, 0, 61, 65
1, 402560, Control_c, 0, 64, 0
1, 402599, Note_off_c, 0, 65, 63
1, 402620, Note_off_c, 0, 61, 60
1, 402627, Note_on_c, 0, 58, 76
1, 402642, Control_c, 0, 64, 69
1, 402657, Control_c, 0, 64, 89
1, 402671, Control_c, 0, 64, 127
1, 402675, Note_off_c, 0, 70, 63
1, 402688, Note_off_c, 0, 58, 62
1, 402700, Note_on_c, 0, 65, 71
1, 402707, Note_on_c, 0, 61, 65
1, 402757, Note_off_c, 0, 65, 61
1, 402774, Note_off_c, 0, 61, 63
1, 402781, Note_on_c, 0, 58, 74
1, 402853, Note_on_c, 0, 61, 64
1, 402853, Note_off_c, 0, 58, 62
1, 402862, Note_on_c, 0, 65, 77
1, 402910, Note_off_c, 0, 61, 62
1, 402922, Note_off_c, 0, 65, 58
1, 402928, Note_on_c, 0, 58, 70
1, 402981, Control_c, 0, 64, 104
1, 402996, Control_c, 0, 64, 79
1, 403000, Note_off_c, 0, 58, 59
1, 403011, Control_c, 0, 64, 66
1, 403020, Note_on_c, 0, 85, 86
1, 403029, Note_off_c, 0, 82, 61
1, 403030, Note_on_c, 0, 73, 78
1, 403034, Note_on_c, 0, 64, 66
1, 403036, Note_on_c, 0, 67, 71
1, 403041, Control_c, 0, 64, 74
1, 403055, Control_c, 0, 64, 95
1, 403070, Note_off_c, 0, 67, 61
1, 403070, Control_c, 0, 64, 127
1, 403074, Note_off_c, 0, 64, 63
1, 403093, Note_off_c, 0, 73, 64
1, 403104, Note_on_c, 0, 58, 77
1, 403110, Note_off_c, 0, 85, 63
1, 403177, Note_off_c, 0, 58, 61
1, 403180, Note_on_c, 0, 67, 58
1, 403181, Note_on_c, 0, 64, 57
1, 403202, Note_on_c, 0, 82, 77
1, 403203, Note_off_c, 0, 64, 61
1, 403207, Note_off_c, 0, 67, 56
1, 403214, Note_on_c, 0, 70, 61
1, 403223, Note_off_c, 0, 82, 65
1, 403235, Note_off_c, 0, 70, 43
1, 403266, Note_on_c, 0, 80, 92
1, 403272, Note_on_c, 0, 68, 86
1, 403277, Control_c, 0, 64, 92
1, 403281, Note_on_c, 0, 48, 76
1, 403293, Control_c, 0, 64, 64
1, 403308, Control_c, 0, 64, 0
1, 403351, Note_off_c, 0, 48, 61
1, 403353, Control_c, 0, 64, 59
1, 403365, Note_off_c, 0, 68, 63
1, 403372, Note_on_c, 0, 60, 74
1, 403375, Note_on_c, 0, 56, 72
1, 403375, Control_c, 0, 64, 78
1, 403378, Note_on_c, 0, 53, 49
1, 403390, Control_c, 0, 64, 127
1, 403428, Note_off_c, 0, 60, 61
1, 403449, Note_off_c, 0, 56, 62
1, 403451, Note_on_c, 0, 48, 87
1, 403467, Note_off_c, 0, 53, 63
1, 403493, Note_on_c, 0, 84, 92
1, 403497, Note_on_c, 0, 72, 92
1, 403516, Note_off_c, 0, 80, 65
1, 403531, Note_on_c, 0, 60, 76
1, 403531, Note_off_c, 0, 72, 63
1, 403537, Note_off_c, 0, 84, 62
1, 403539, Note_off_c, 0, 48, 62
1, 403554, Note_on_c, 0, 56, 72
1, 403555, Note_on_c, 0, 53, 56
1, 403569, Note_off_c, 0, 60, 58
1, 403594, Note_on_c, 0, 48, 59
1, 403599, Note_off_c, 0, 56, 62
1, 403647, Note_on_c, 0, 56, 55
1, 403652, Note_off_c, 0, 48, 60
1, 403660, Note_on_c, 0, 60, 50
1, 403667, Note_on_c, 0, 80, 84
1, 403669, Note_off_c, 0, 53, 63
1, 403673, Note_off_c, 0, 56, 68
1, 403678, Note_on_c, 0, 68, 74
1, 403679, Note_off_c, 0, 60, 66
1, 403687, Note_off_c, 0, 80, 69
1, 403691, Note_on_c, 0, 78, 56
1, 403700, Note_off_c, 0, 68, 72
1, 403715, Control_c, 0, 64, 106
1, 403724, Note_on_c, 0, 67, 102
1, 403724, Note_on_c, 0, 79, 101
1, 403730, Control_c, 0, 64, 71
1, 403735, Note_on_c, 0, 46, 91
1, 403745, Control_c, 0, 64, 0
1, 403748, Note_off_c, 0, 78, 0
1, 403748, Note_on_c, 0, 78, 32
1, 403779, Note_off_c, 0, 78, 55
1, 403789, Control_c, 0, 64, 71
1, 403794, Note_off_c, 0, 67, 65
1, 403804, Control_c, 0, 64, 117
1, 403818, Note_on_c, 0, 52, 73
1, 403819, Control_c, 0, 64, 127
1, 403821, Note_off_c, 0, 79, 67
1, 403822, Note_on_c, 0, 55, 84
1, 403844, Note_off_c, 0, 46, 62
1, 403849, Note_on_c, 0, 48, 61
1, 403897, Note_off_c, 0, 55, 62
1, 403908, Note_on_c, 0, 46, 87
1, 403912, Note_off_c, 0, 52, 62
1, 403938, Note_off_c, 0, 48, 62
1, 403985, Note_on_c, 0, 91, 112
1, 403987, Note_on_c, 0, 79, 104
1, 403992, Note_on_c, 0, 52, 76
1, 403997, Note_on_c, 0, 55, 80
1, 404004, Note_on_c, 0, 48, 55
1, 404014, Note_off_c, 0, 46, 63
1, 404015, Note_off_c, 0, 79, 68
1, 404016, Note_off_c, 0, 91, 69
1, 404065, Note_off_c, 0, 55, 60
1, 404074, Note_on_c, 0, 46, 85
1, 404088, Note_off_c, 0, 52, 62
1, 404095, Poly_aftertouch_c, 0, 50, 127
1, 404149, Poly_aftertouch_c, 0, 50, 0
1, 404174, Note_on_c, 0, 52, 79
1, 404177, Note_on_c, 0, 55, 76
1, 404187, Note_on_c, 0, 76, 99
1, 404188, Note_on_c, 0, 88, 97
1, 404195, Note_off_c, 0, 46, 64
1, 404206, Note_off_c, 0, 76, 70
1, 404206, Note_off_c, 0, 88, 68
1, 404228, Note_off_c, 0, 55, 54
1, 404251, Note_off_c, 0, 48, 36
1, 404251, Note_on_c, 0, 90, 111
1, 404255, Note_on_c, 0, 78, 106
1, 404257, Note_on_c, 0, 45, 96
1, 404270, Note_off_c, 0, 52, 43
1, 404272, Control_c, 0, 64, 85
1, 404287, Control_c, 0, 64, 32
1, 404302, Control_c, 0, 64, 0
1, 404354, Note_on_c, 0, 51, 75
1, 404360, Control_c, 0, 64, 70
1, 404362, Note_off_c, 0, 45, 60
1, 404363, Note_on_c, 0, 54, 75
1, 404365, Note_on_c, 0, 57, 73
1, 404375, Control_c, 0, 64, 116
1, 404390, Control_c, 0, 64, 127
1, 404401, Note_off_c, 0, 90, 66
1, 404406, Note_off_c, 0, 78, 64
1, 404424, Note_off_c, 0, 57, 60
1, 404426, Note_off_c, 0, 54, 58
1, 404450, Note_on_c, 0, 45, 87
1, 404458, Note_off_c, 0, 51, 61
1, 404540, Note_off_c, 0, 45, 60
1, 404553, Note_on_c, 0, 84, 86
1, 404556, Note_on_c, 0, 57, 74
1, 404556, Note_on_c, 0, 72, 92
1, 404558, Note_on_c, 0, 54, 71
1, 404571, Note_on_c, 0, 51, 59
1, 404606, Note_off_c, 0, 51, 60
1, 404606, Note_off_c, 0, 57, 61
1, 404607, Note_off_c, 0, 54, 54
1, 404633, Note_on_c, 0, 45, 83
1, 404710, Note_on_c, 0, 54, 73
1, 404710, Note_off_c, 0, 45, 58
1, 404713, Note_on_c, 0, 57, 74
1, 404721, Note_on_c, 0, 51, 54
1, 404755, Note_off_c, 0, 57, 63
1, 404772, Note_off_c, 0, 54, 61
1, 404787, Note_on_c, 0, 45, 84
1, 404791, Note_off_c, 0, 51, 58
1, 404795, Note_off_c, 0, 72, 61
1, 404821, Note_off_c, 0, 84, 61
1, 404871, Note_on_c, 0, 57, 69
1, 404871, Note_off_c, 0, 45, 60
1, 404873, Note_on_c, 0, 54, 75
1, 404883, Note_on_c, 0, 51, 55
1, 404906, Note_off_c, 0, 57, 62
1, 404929, Note_off_c, 0, 54, 60
1, 404946, Note_on_c, 0, 45, 82
1, 404947, Note_off_c, 0, 51, 55
1, 405027, Note_on_c, 0, 54, 76
1, 405030, Note_on_c, 0, 57, 66
1, 405031, Note_off_c, 0, 45, 60
1, 405034, Note_on_c, 0, 87, 99
1, 405041, Note_on_c, 0, 75, 93
1, 405046, Note_on_c, 0, 51, 56
1, 405080, Note_off_c, 0, 75, 61
1, 405081, Note_off_c, 0, 57, 62
1, 405084, Note_off_c, 0, 87, 64
1, 405109, Note_off_c, 0, 54, 60
1, 405112, Note_on_c, 0, 45, 77
1, 405117, Note_off_c, 0, 51, 60
1, 405196, Note_on_c, 0, 84, 85
1, 405196, Note_off_c, 0, 45, 62
1, 405202, Note_on_c, 0, 72, 73
1, 405209, Note_on_c, 0, 57, 59
1, 405215, Note_on_c, 0, 51, 54
1, 405215, Note_off_c, 0, 84, 72
1, 405218, Note_off_c, 0, 72, 67
1, 405223, Note_on_c, 0, 54, 51
1, 405229, Note_on_c, 0, 83, 23
1, 405242, Note_off_c, 0, 57, 66
1, 405257, Note_off_c, 0, 54, 51
1, 405258, Control_c, 0, 64, 81
1, 405265, Note_off_c, 0, 83, 54
1, 405271, Note_on_c, 0, 45, 86
1, 405272, Note_on_c, 0, 89, 103
1, 405273, Control_c, 0, 64, 48
1, 405280, Note_on_c, 0, 77, 99
1, 405288, Control_c, 0, 64, 0
1, 405301, Note_off_c, 0, 51, 57
1, 405303, Control_c, 0, 64, 37
1, 405318, Control_c, 0, 64, 70
1, 405332, Control_c, 0, 64, 104
1, 405347, Control_c, 0, 64, 127
1, 405349, Note_off_c, 0, 89, 61
1, 405361, Note_off_c, 0, 77, 60
1, 405366, Note_on_c, 0, 53, 70
1, 405370, Note_on_c, 0, 57, 59
1, 405376, Note_off_c, 0, 45, 61
1, 405382, Note_on_c, 0, 51, 35
1, 405431, Note_on_c, 0, 45, 53
1, 405443, Note_off_c, 0, 57, 63
1, 405456, Note_on_c, 0, 49, 61
1, 405467, Note_off_c, 0, 53, 60
1, 405469, Note_on_c, 0, 47, 32
1, 405491, Note_off_c, 0, 45, 63
1, 405507, Note_off_c, 0, 47, 56
1, 405530, Note_off_c, 0, 51, 41
1, 405539, Control_c, 0, 64, 119
1, 405541, Note_on_c, 0, 53, 43
1, 405548, Note_on_c, 0, 82, 94
1, 405553, Note_on_c, 0, 70, 99
1, 405554, Control_c, 0, 64, 76
1, 405557, Note_on_c, 0, 58, 85
1, 405569, Control_c, 0, 64, 0
1, 405584, Note_off_c, 0, 49, 0
1, 405584, Note_on_c, 0, 49, 3
1, 405623, Note_off_c, 0, 58, 63
1, 405636, Control_c, 0, 64, 31
1, 405651, Control_c, 0, 64, 71
1, 405652, Note_on_c, 0, 46, 81
1, 405652, Note_off_c, 0, 53, 65
1, 405664, Note_off_c, 0, 49, 59
1, 405665, Control_c, 0, 64, 92
1, 405677, Note_off_c, 0, 70, 59
1, 405681, Control_c, 0, 64, 127
1, 405732, Note_on_c, 0, 58, 73
1, 405733, Note_on_c, 0, 53, 60
1, 405736, Note_off_c, 0, 46, 64
1, 405772, Note_on_c, 0, 49, 52
1, 405785, Note_off_c, 0, 58, 61
1, 405813, Note_off_c, 0, 53, 65
1, 405829, Note_on_c, 0, 46, 84
1, 405843, Note_off_c, 0, 49, 60
1, 405888, Note_on_c, 0, 53, 60
1, 405904, Note_on_c, 0, 58, 73
1, 405906, Note_off_c, 0, 46, 61
1, 405922, Note_off_c, 0, 82, 55
1, 405955, Note_off_c, 0, 58, 61
1, 405961, Note_off_c, 0, 53, 65
1, 405984, Note_on_c, 0, 46, 81
1, 405992, Poly_aftertouch_c, 0, 49, 127
1, 406022, Control_c, 0, 64, 119
1, 406027, Poly_aftertouch_c, 0, 49, 0
1, 406037, Control_c, 0, 64, 84
1, 406052, Control_c, 0, 64, 64
1, 406060, Note_on_c, 0, 85, 84
1, 406064, Note_on_c, 0, 73, 82
1, 406067, Control_c, 0, 64, 46
1, 406081, Control_c, 0, 64, 61
1, 406088, Note_on_c, 0, 55, 67
1, 406090, Note_on_c, 0, 58, 74
1, 406096, Control_c, 0, 64, 73
1, 406097, Note_off_c, 0, 46, 64
1, 406098, Note_on_c, 0, 52, 41
1, 406111, Control_c, 0, 64, 87
1, 406112, Note_off_c, 0, 73, 63
1, 406118, Note_off_c, 0, 85, 64
1, 406126, Control_c, 0, 64, 127
1, 406150, Note_off_c, 0, 58, 60
1, 406160, Note_off_c, 0, 55, 58
1, 406169, Note_on_c, 0, 46, 78
1, 406223, Note_off_c, 0, 52, 0
1, 406223, Note_on_c, 0, 52, 27
1, 406247, Note_on_c, 0, 82, 82
1, 406247, Note_off_c, 0, 46, 65
1, 406251, Note_on_c, 0, 58, 71
1, 406252, Note_on_c, 0, 55, 60
1, 406259, Note_on_c, 0, 70, 72
1, 406268, Note_off_c, 0, 82, 71
1, 406275, Note_off_c, 0, 58, 68
1, 406275, Note_off_c, 0, 70, 67
1, 406284, Note_off_c, 0, 55, 61
1, 406290, Note_off_c, 0, 52, 62
1, 406303, Control_c, 0, 64, 107
1, 406316, Note_on_c, 0, 80, 94
1, 406318, Control_c, 0, 64, 71
1, 406323, Note_on_c, 0, 68, 84
1, 406331, Note_on_c, 0, 48, 78
1, 406332, Control_c, 0, 64, 0
1, 406345, Note_on_c, 0, 70, 50
1, 406362, Note_on_c, 0, 81, 49
1, 406392, Note_off_c, 0, 68, 65
1, 406400, Note_off_c, 0, 81, 46
1, 406400, Control_c, 0, 64, 57
1, 406412, Note_off_c, 0, 48, 61
1, 406414, Control_c, 0, 64, 80
1, 406417, Note_on_c, 0, 60, 73
1, 406424, Note_on_c, 0, 53, 42
1, 406429, Note_on_c, 0, 56, 73
1, 406429, Control_c, 0, 64, 127
1, 406442, Note_off_c, 0, 70, 29
1, 406479, Note_off_c, 0, 60, 62
1, 406498, Note_off_c, 0, 56, 61
1, 406508, Note_on_c, 0, 48, 80
1, 406514, Note_off_c, 0, 53, 65
1, 406557, Note_on_c, 0, 84, 91
1, 406559, Note_on_c, 0, 72, 91
1, 406572, Note_off_c, 0, 80, 65
1, 406586, Note_off_c, 0, 48, 58
1, 406590, Note_on_c, 0, 60, 75
1, 406596, Note_off_c, 0, 72, 62
1, 406597, Note_off_c, 0, 84, 64
1, 406599, Note_on_c, 0, 56, 75
1, 406612, Note_on_c, 0, 53, 47
1, 406647, Note_off_c, 0, 60, 58
1, 406671, Note_off_c, 0, 56, 61
1, 406678, Note_on_c, 0, 48, 80
1, 406746, Note_on_c, 0, 80, 86
1, 406752, Note_off_c, 0, 48, 62
1, 406755, Note_on_c, 0, 68, 76
1, 406763, Note_on_c, 0, 60, 70
1, 406766, Note_on_c, 0, 56, 67
1, 406766, Note_off_c, 0, 80, 68
1, 406777, Note_off_c, 0, 68, 72
1, 406785, Note_on_c, 0, 78, 33
1, 406796, Note_off_c, 0, 53, 58
1, 406800, Note_off_c, 0, 60, 62
1, 406805, Note_off_c, 0, 56, 59
1, 406808, Note_on_c, 0, 79, 94
1, 406812, Note_on_c, 0, 67, 96
1, 406815, Control_c, 0, 64, 90
1, 406827, Note_on_c, 0, 48, 84
1, 406830, Control_c, 0, 64, 54
1, 406845, Control_c, 0, 64, 0
1, 406848, Note_off_c, 0, 78, 42
1, 406890, Control_c, 0, 64, 55
1, 406904, Control_c, 0, 64, 76
1, 406908, Note_off_c, 0, 67, 64
1, 406919, Control_c, 0, 64, 127
1, 406924, Note_on_c, 0, 55, 80
1, 406926, Note_on_c, 0, 52, 77
1, 406929, Note_on_c, 0, 60, 79
1, 406931, Note_off_c, 0, 79, 64
1, 406937, Note_off_c, 0, 48, 61
1, 406979, Note_off_c, 0, 60, 63
1, 407002, Note_on_c, 0, 48, 83
1, 407005, Note_off_c, 0, 55, 61
1, 407009, Note_off_c, 0, 52, 62
1, 407019, Note_on_c, 0, 82, 45
1, 407047, Note_off_c, 0, 82, 53
1, 407106, Note_on_c, 0, 84, 102
1, 407107, Note_on_c, 0, 72, 96
1, 407126, Note_on_c, 0, 55, 73
1, 407128, Note_on_c, 0, 60, 82
1, 407134, Note_on_c, 0, 52, 75
1, 407156, Note_off_c, 0, 48, 52
1, 407157, Note_off_c, 0, 72, 60
1, 407190, Note_off_c, 0, 60, 58
1, 407198, Note_on_c, 0, 53, 31
1, 407200, Note_off_c, 0, 84, 61
1, 407213, Note_on_c, 0, 48, 57
1, 407214, Note_off_c, 0, 55, 63
1, 407229, Note_off_c, 0, 52, 64
1, 407232, Note_off_c, 0, 53, 54
1, 407245, Note_off_c, 0, 48, 60
1, 407337, Note_on_c, 0, 72, 96
1, 407337, Note_on_c, 0, 84, 96
1, 407372, Note_off_c, 0, 72, 62
1, 407372, Note_off_c, 0, 84, 69
1, 407401, Control_c, 0, 64, 72
1, 407415, Control_c, 0, 64, 0
1, 407431, Poly_aftertouch_c, 0, 44, 0
1, 407438, Note_on_c, 0, 48, 80
1, 407440, Note_on_c, 0, 53, 97
1, 407441, Note_on_c, 0, 41, 87
1, 407444, Note_on_c, 0, 44, 67
1, 407445, Note_on_c, 0, 84, 99
1, 407446, Note_on_c, 0, 72, 105
1, 407459, Control_c, 0, 64, 71
1, 407467, Note_off_c, 0, 41, 66
1, 407468, Note_off_c, 0, 84, 66
1, 407470, Note_off_c, 0, 48, 64
1, 407471, Note_off_c, 0, 44, 63
1, 407474, Control_c, 0, 64, 127
1, 407477, Note_off_c, 0, 72, 68
1, 407477, Note_off_c, 0, 53, 66
1, 407539, Poly_aftertouch_c, 0, 45, 127
1, 407545, Note_on_c, 0, 45, 2
1, 407584, Note_off_c, 0, 45, 47
1, 407589, Note_on_c, 0, 68, 74
1, 407589, Note_on_c, 0, 72, 81
1, 407590, Note_on_c, 0, 60, 82
1, 407593, Note_on_c, 0, 65, 74
1, 407608, Control_c, 0, 64, 95
1, 407612, Note_off_c, 0, 60, 71
1, 407613, Note_off_c, 0, 68, 71
1, 407619, Note_off_c, 0, 65, 67
1, 407621, Note_off_c, 0, 72, 52
1, 407623, Control_c, 0, 64, 73
1, 407638, Control_c, 0, 64, 47
1, 407652, Control_c, 0, 64, 0
1, 407682, Note_on_c, 0, 68, 72
1, 407685, Note_on_c, 0, 60, 74
1, 407685, Note_on_c, 0, 65, 73
1, 407687, Note_on_c, 0, 72, 70
1, 407709, Note_off_c, 0, 60, 70
1, 407709, Note_off_c, 0, 68, 67
1, 407711, Note_off_c, 0, 65, 68
1, 407715, Note_off_c, 0, 72, 68
1, 407775, Note_on_c, 0, 68, 87
1, 407776, Note_on_c, 0, 60, 77
1, 407778, Note_on_c, 0, 65, 77
1, 407779, Note_on_c, 0, 72, 80
1, 407870, Note_on_c, 0, 56, 82
1, 407878, Note_on_c, 0, 53, 71
1, 407894, Note_off_c, 0, 56, 69
1, 407915, Note_off_c, 0, 53, 68
1, 407932, Note_off_c, 0, 65, 60
1, 407944, Note_off_c, 0, 68, 62
1, 407955, Note_on_c, 0, 56, 88
1, 407979, Note_on_c, 0, 53, 51
1, 407988, Note_off_c, 0, 56, 66
1, 407990, Note_off_c, 0, 72, 35
1, 408006, Note_off_c, 0, 60, 58
1, 408007, Note_off_c, 0, 53, 57
1, 408055, Note_on_c, 0, 55, 91
1, 408056, Note_on_c, 0, 52, 87
1, 408101, Note_off_c, 0, 55, 63
1, 408107, Note_off_c, 0, 52, 64
1, 408126, Note_on_c, 0, 60, 83
1, 408129, Note_on_c, 0, 64, 80
1, 408133, Note_on_c, 0, 67, 77
1, 408144, Note_on_c, 0, 72, 51
1, 408158, Note_on_c, 0, 71, 46
1, 408160, Note_off_c, 0, 64, 64
1, 408165, Note_off_c, 0, 72, 62
1, 408170, Note_off_c, 0, 67, 65
1, 408183, Note_off_c, 0, 71, 58
1, 408203, Note_off_c, 0, 60, 0
1, 408209, Note_on_c, 0, 67, 76
1, 408213, Note_on_c, 0, 64, 75
1, 408222, Note_on_c, 0, 60, 37
1, 408238, Note_off_c, 0, 64, 68
1, 408243, Note_off_c, 0, 60, 64
1, 408243, Note_off_c, 0, 67, 64
1, 408296, Note_on_c, 0, 60, 100
1, 408296, Note_on_c, 0, 72, 95
1, 408300, Note_on_c, 0, 70, 96
1, 408308, Note_on_c, 0, 67, 87
1, 408328, Control_c, 0, 64, 60
1, 408343, Control_c, 0, 64, 112
1, 408357, Control_c, 0, 64, 127
1, 408389, Note_on_c, 0, 58, 77
1, 408392, Note_on_c, 0, 55, 79
1, 408413, Note_off_c, 0, 58, 68
1, 408425, Note_off_c, 0, 55, 60
1, 408467, Note_on_c, 0, 58, 82
1, 408469, Note_on_c, 0, 55, 69
1, 408479, Note_off_c, 0, 67, 55
1, 408490, Note_off_c, 0, 58, 68
1, 408490, Note_off_c, 0, 70, 58
1, 408508, Note_off_c, 0, 55, 61
1, 408541, Note_off_c, 0, 60, 57
1, 408547, Note_off_c, 0, 72, 58
1, 408553, Note_on_c, 0, 53, 83
1, 408558, Note_on_c, 0, 56, 83
1, 408580, Control_c, 0, 64, 107
1, 408601, Control_c, 0, 64, 82
1, 408616, Control_c, 0, 64, 64
1, 408620, Note_off_c, 0, 56, 57
1, 408623, Note_off_c, 0, 53, 60
1, 408631, Control_c, 0, 64, 0
1, 408648, Note_on_c, 0, 60, 84
1, 408651, Note_on_c, 0, 68, 72
1, 408654, Note_on_c, 0, 65, 69
1, 408656, Note_on_c, 0, 72, 73
1, 408675, Note_off_c, 0, 68, 70
1, 408678, Note_off_c, 0, 60, 67
1, 408680, Note_off_c, 0, 72, 69
1, 408681, Note_off_c, 0, 65, 67
1, 408735, Note_on_c, 0, 68, 73
1, 408737, Note_on_c, 0, 72, 63
1, 408738, Note_on_c, 0, 60, 73
1, 408744, Note_on_c, 0, 65, 66
1, 408759, Note_off_c, 0, 68, 70
1, 408759, Note_off_c, 0, 72, 60
1, 408759, Note_off_c, 0, 60, 72
1, 408765, Note_off_c, 0, 65, 64
1, 408809, Note_on_c, 0, 72, 86
1, 408813, Note_on_c, 0, 68, 81
1, 408817, Note_on_c, 0, 60, 84
1, 408818, Note_on_c, 0, 65, 87
1, 408878, Note_on_c, 0, 56, 85
1, 408887, Note_on_c, 0, 53, 74
1, 408905, Note_off_c, 0, 56, 63
1, 408914, Control_c, 0, 64, 24
1, 408920, Note_off_c, 0, 53, 63
1, 408929, Control_c, 0, 64, 31
1, 408943, Control_c, 0, 64, 32
1, 408950, Note_off_c, 0, 65, 62
1, 408962, Note_on_c, 0, 53, 66
1, 408964, Note_on_c, 0, 56, 79
1, 408973, Note_off_c, 0, 68, 63
1, 408973, Control_c, 0, 64, 33
1, 408988, Control_c, 0, 64, 37
1, 408989, Note_off_c, 0, 56, 66
1, 408993, Note_off_c, 0, 72, 55
1, 408994, Note_off_c, 0, 53, 68
1, 409003, Control_c, 0, 64, 46
1, 409018, Control_c, 0, 64, 52
1, 409032, Control_c, 0, 64, 54
1, 409033, Note_off_c, 0, 60, 55
1, 409049, Note_on_c, 0, 52, 92
1, 409050, Note_on_c, 0, 55, 93
1, 409077, Control_c, 0, 64, 53
1, 409127, Note_on_c, 0, 60, 80
1, 409131, Note_on_c, 0, 64, 72
1, 409134, Note_off_c, 0, 52, 60
1, 409136, Note_on_c, 0, 67, 73
1, 409136, Control_c, 0, 64, 53
1, 409141, Note_off_c, 0, 55, 59
1, 409150, Control_c, 0, 64, 53
1, 409158, Note_off_c, 0, 64, 67
1, 409160, Note_on_c, 0, 72, 10
1, 409163, Note_off_c, 0, 67, 67
1, 409169, Note_off_c, 0, 60, 59
1, 409195, Control_c, 0, 64, 52
1, 409205, Note_off_c, 0, 72, 39
1, 409210, Control_c, 0, 64, 49
1, 409225, Control_c, 0, 64, 41
1, 409234, Note_on_c, 0, 67, 55
1, 409239, Control_c, 0, 64, 21
1, 409252, Note_on_c, 0, 65, 30
1, 409253, Note_off_c, 0, 65, 127
1, 409254, Note_off_c, 0, 67, 63
1, 409254, Control_c, 0, 64, 0
1, 409269, Control_c, 0, 64, 45
1, 409284, Control_c, 0, 64, 65
1, 409298, Control_c, 0, 64, 91
1, 409307, Note_on_c, 0, 72, 93
1, 409313, Note_on_c, 0, 70, 96
1, 409313, Control_c, 0, 64, 127
1, 409316, Note_on_c, 0, 67, 90
1, 409318, Note_on_c, 0, 60, 98
1, 409346, Note_on_c, 0, 62, 50
1, 409347, Note_off_c, 0, 62, 127
1, 409442, Note_on_c, 0, 58, 90
1, 409447, Note_on_c, 0, 55, 76
1, 409469, Note_off_c, 0, 58, 65
1, 409493, Note_off_c, 0, 55, 60
1, 409528, Note_on_c, 0, 58, 85
1, 409537, Note_on_c, 0, 55, 67
1, 409540, Note_off_c, 0, 67, 59
1, 409554, Note_off_c, 0, 58, 59
1, 409572, Note_off_c, 0, 55, 57
1, 409578, Note_off_c, 0, 70, 57
1, 409597, Note_off_c, 0, 60, 48
1, 409600, Note_on_c, 0, 56, 93
1, 409601, Note_on_c, 0, 53, 89
1, 409614, Note_off_c, 0, 72, 56
1, 409632, Control_c, 0, 64, 99
1, 409647, Control_c, 0, 64, 79
1, 409654, Note_off_c, 0, 56, 62
1, 409660, Control_c, 0, 64, 61
1, 409676, Control_c, 0, 64, 0
1, 409680, Note_off_c, 0, 53, 57
1, 409695, Note_on_c, 0, 72, 93
1, 409695, Note_on_c, 0, 60, 93
1, 409700, Note_on_c, 0, 68, 74
1, 409706, Note_on_c, 0, 65, 71
1, 409739, Note_off_c, 0, 65, 58
1, 409756, Note_off_c, 0, 60, 61
1, 409758, Note_off_c, 0, 68, 58
1, 409765, Note_on_c, 0, 56, 99
1, 409769, Note_on_c, 0, 53, 91
1, 409769, Note_off_c, 0, 72, 62
1, 409794, Control_c, 0, 64, 56
1, 409805, Note_on_c, 0, 54, 23
1, 409806, Note_off_c, 0, 54, 127
1, 409806, Note_off_c, 0, 53, 68
1, 409809, Control_c, 0, 64, 74
1, 409811, Note_off_c, 0, 56, 64
1, 409824, Control_c, 0, 64, 106
1, 409839, Control_c, 0, 64, 127
1, 409856, Note_on_c, 0, 73, 97
1, 409858, Note_on_c, 0, 67, 92
1, 409859, Note_on_c, 0, 65, 86
1, 409862, Note_on_c, 0, 61, 102
1, 409868, Control_c, 0, 64, 96
1, 409883, Control_c, 0, 64, 66
1, 409898, Control_c, 0, 64, 0
1, 409941, Note_on_c, 0, 46, 86
1, 409942, Note_on_c, 0, 55, 86
1, 409945, Note_on_c, 0, 53, 76
1, 409948, Note_off_c, 0, 73, 62
1, 409953, Note_off_c, 0, 61, 61
1, 409957, Control_c, 0, 64, 70
1, 409972, Control_c, 0, 64, 96
1, 409976, Note_off_c, 0, 55, 58
1, 409978, Note_off_c, 0, 65, 51
1, 409984, Note_off_c, 0, 67, 54
1, 409987, Control_c, 0, 64, 127
1, 410005, Note_off_c, 0, 46, 61
1, 410018, Note_on_c, 0, 61, 88
1, 410020, Note_on_c, 0, 73, 83
1, 410022, Note_on_c, 0, 65, 43
1, 410039, Note_off_c, 0, 53, 54
1, 410046, Control_c, 0, 64, 91
1, 410059, Note_off_c, 0, 65, 61
1, 410061, Control_c, 0, 64, 67
1, 410073, Note_off_c, 0, 61, 63
1, 410076, Control_c, 0, 64, 0
1, 410085, Poly_aftertouch_c, 0, 67, 0
1, 410088, Note_on_c, 0, 56, 94
1, 410090, Note_off_c, 0, 73, 57
1, 410091, Note_on_c, 0, 48, 78
1, 410108, Note_on_c, 0, 53, 67
1, 410143, Note_off_c, 0, 56, 63
1, 410154, Note_off_c, 0, 53, 57
1, 410157, Control_c, 0, 64, 62
1, 410169, Note_off_c, 0, 48, 59
1, 410172, Control_c, 0, 64, 72
1, 410178, Note_on_c, 0, 60, 93
1, 410179, Note_on_c, 0, 68, 80
1, 410180, Note_on_c, 0, 72, 84
1, 410186, Control_c, 0, 64, 87
1, 410189, Note_on_c, 0, 65, 66
1, 410200, Note_off_c, 0, 68, 70
1, 410201, Control_c, 0, 64, 127
1, 410220, Note_off_c, 0, 65, 62
1, 410245, Note_on_c, 0, 48, 69
1, 410245, Note_on_c, 0, 56, 91
1, 410246, Control_c, 0, 64, 112
1, 410248, Note_on_c, 0, 53, 90
1, 410249, Note_off_c, 0, 60, 61
1, 410249, Note_off_c, 0, 72, 62
1, 410261, Control_c, 0, 64, 79
1, 410276, Control_c, 0, 64, 0
1, 410306, Note_off_c, 0, 56, 59
1, 410330, Note_on_c, 0, 60, 105
1, 410330, Note_on_c, 0, 72, 97
1, 410331, Note_on_c, 0, 64, 94
1, 410331, Note_off_c, 0, 48, 54
1, 410332, Note_off_c, 0, 53, 50
1, 410333, Note_on_c, 0, 67, 90
1, 410350, Control_c, 0, 64, 35
1, 410365, Control_c, 0, 64, 76
1, 410379, Control_c, 0, 64, 127
1, 410409, Note_off_c, 0, 72, 59
1, 410416, Note_off_c, 0, 60, 62
1, 410419, Note_on_c, 0, 52, 83
1, 410420, Note_on_c, 0, 55, 84
1, 410421, Note_on_c, 0, 48, 69
1, 410429, Note_off_c, 0, 64, 61
1, 410443, Note_off_c, 0, 52, 67
1, 410447, Note_off_c, 0, 55, 63
1, 410450, Note_off_c, 0, 67, 60
1, 410457, Note_off_c, 0, 48, 62
1, 410495, Note_on_c, 0, 67, 72
1, 410497, Note_on_c, 0, 60, 92
1, 410501, Note_on_c, 0, 72, 83
1, 410502, Note_on_c, 0, 64, 68
1, 410531, Note_off_c, 0, 64, 65
1, 410537, Note_on_c, 0, 71, 39
1, 410540, Note_on_c, 0, 66, 9
1, 410541, Note_off_c, 0, 66, 127
1, 410542, Note_off_c, 0, 60, 65
1, 410544, Control_c, 0, 64, 101
1, 410544, Note_off_c, 0, 72, 62
1, 410546, Note_on_c, 0, 49, 55
1, 410547, Note_off_c, 0, 67, 63
1, 410558, Control_c, 0, 64, 67
1, 410565, Note_off_c, 0, 71, 39
1, 410573, Note_off_c, 0, 49, 55
1, 410573, Control_c, 0, 64, 0
1, 410608, Note_on_c, 0, 41, 90
1, 410609, Note_on_c, 0, 48, 92
1, 410612, Note_on_c, 0, 53, 96
1, 410617, Note_on_c, 0, 44, 85
1, 410617, Control_c, 0, 64, 80
1, 410619, Note_on_c, 0, 60, 105
1, 410621, Note_on_c, 0, 68, 89
1, 410625, Note_on_c, 0, 72, 82
1, 410630, Note_on_c, 0, 65, 72
1, 410631, Note_off_c, 0, 53, 74
1, 410632, Control_c, 0, 64, 127
1, 410638, Note_off_c, 0, 68, 76
1, 410638, Note_off_c, 0, 72, 71
1, 410643, Note_off_c, 0, 48, 64
1, 410648, Note_off_c, 0, 65, 67
1, 410651, Note_off_c, 0, 60, 66
1, 410658, Note_off_c, 0, 44, 64
1, 410667, Note_off_c, 0, 41, 62
1, 410726, Poly_aftertouch_c, 0, 71, 0
1, 410754, Poly_aftertouch_c, 0, 72, 127
1, 410764, Note_on_c, 0, 56, 80
1, 410765, Note_on_c, 0, 60, 81
1, 410765, Control_c, 0, 64, 103
1, 410776, Note_on_c, 0, 48, 63
1, 410780, Note_on_c, 0, 50, 60
1, 410780, Poly_aftertouch_c, 0, 72, 0
1, 410780, Control_c, 0, 64, 83
1, 410783, Note_off_c, 0, 60, 69
1, 410788, Note_on_c, 0, 53, 51
1, 410789, Note_off_c, 0, 56, 68
1, 410790, Note_off_c, 0, 48, 70
1, 410795, Control_c, 0, 64, 66
1, 410803, Note_off_c, 0, 53, 72
1, 410803, Note_off_c, 0, 50, 61
1, 410809, Control_c, 0, 64, 0
1, 410855, Note_on_c, 0, 48, 62
1, 410855, Note_on_c, 0, 53, 75
1, 410857, Note_on_c, 0, 56, 81
1, 410863, Note_on_c, 0, 60, 74
1, 410879, Note_off_c, 0, 53, 70
1, 410882, Note_off_c, 0, 48, 64
1, 410888, Note_off_c, 0, 60, 69
1, 410889, Note_off_c, 0, 56, 65
1, 410947, Note_on_c, 0, 60, 91
1, 410949, Note_on_c, 0, 56, 87
1, 410950, Note_on_c, 0, 48, 81
1, 410954, Note_on_c, 0, 53, 71
1, 411020, Note_on_c, 0, 44, 84
1, 411024, Control_c, 0, 64, 25
1, 411026, Note_on_c, 0, 41, 67
1, 411039, Control_c, 0, 64, 53
1, 411048, Note_off_c, 0, 44, 66
1, 411054, Control_c, 0, 64, 68
1, 411069, Control_c, 0, 64, 84
1, 411072, Note_off_c, 0, 41, 60
1, 411084, Control_c, 0, 64, 127
1, 411102, Note_off_c, 0, 53, 59
1, 411108, Note_off_c, 0, 56, 56
1, 411111, Note_on_c, 0, 41, 50
1, 411111, Note_on_c, 0, 44, 79
1, 411114, Control_c, 0, 64, 95
1, 411128, Control_c, 0, 64, 68
1, 411130, Note_off_c, 0, 44, 70
1, 411140, Note_off_c, 0, 41, 56
1, 411143, Control_c, 0, 64, 0
1, 411167, Note_off_c, 0, 60, 41
1, 411167, Note_off_c, 0, 48, 52
1, 411173, Control_c, 0, 64, 38
1, 411188, Control_c, 0, 64, 68
1, 411189, Note_on_c, 0, 40, 88
1, 411189, Note_on_c, 0, 43, 97
1, 411203, Control_c, 0, 64, 91
1, 411205, Note_on_c, 0, 41, 46
1, 411218, Control_c, 0, 64, 127
1, 411244, Note_off_c, 0, 41, 49
1, 411271, Note_on_c, 0, 55, 77
1, 411272, Note_on_c, 0, 48, 82
1, 411274, Note_off_c, 0, 43, 56
1, 411276, Note_on_c, 0, 52, 73
1, 411280, Note_off_c, 0, 40, 54
1, 411286, Note_on_c, 0, 60, 49
1, 411308, Note_off_c, 0, 52, 64
1, 411311, Note_off_c, 0, 60, 58
1, 411316, Note_off_c, 0, 55, 60
1, 411323, Note_on_c, 0, 59, 14
1, 411338, Note_off_c, 0, 48, 62
1, 411344, Note_on_c, 0, 55, 60
1, 411369, Note_off_c, 0, 59, 40
1, 411372, Note_off_c, 0, 55, 64
1, 411412, Control_c, 0, 64, 92
1, 411425, Note_on_c, 0, 60, 96
1, 411426, Control_c, 0, 64, 59
1, 411428, Note_on_c, 0, 58, 97
1, 411429, Note_on_c, 0, 48, 102
1, 411429, Note_on_c, 0, 55, 86
1, 411441, Control_c, 0, 64, 0
1, 411486, Control_c, 0, 64, 27
1, 411500, Control_c, 0, 64, 69
1, 411515, Control_c, 0, 64, 86
1, 411517, Note_on_c, 0, 46, 78
1, 411520, Note_on_c, 0, 43, 86
1, 411530, Control_c, 0, 64, 127
1, 411542, Note_off_c, 0, 46, 68
1, 411560, Note_off_c, 0, 43, 61
1, 411589, Note_on_c, 0, 46, 87
1, 411602, Note_off_c, 0, 55, 60
1, 411602, Note_on_c, 0, 43, 70
1, 411623, Note_off_c, 0, 58, 60
1, 411626, Note_off_c, 0, 46, 66
1, 411644, Note_off_c, 0, 43, 58
1, 411656, Note_off_c, 0, 48, 46
1, 411665, Note_off_c, 0, 60, 47
1, 411671, Control_c, 0, 64, 92
1, 411683, Note_on_c, 0, 41, 85
1, 411686, Note_on_c, 0, 44, 78
1, 411686, Control_c, 0, 64, 67
1, 411700, Control_c, 0, 64, 0
1, 411710, Note_on_c, 0, 42, 42
1, 411723, Note_off_c, 0, 42, 43
1, 411746, Note_off_c, 0, 44, 53
1, 411754, Note_off_c, 0, 41, 55
1, 411769, Note_on_c, 0, 48, 82
1, 411769, Note_on_c, 0, 56, 80
1, 411775, Note_on_c, 0, 60, 70
1, 411776, Note_on_c, 0, 53, 70
1, 411794, Note_off_c, 0, 48, 65
1, 411796, Note_off_c, 0, 56, 66
1, 411804, Note_off_c, 0, 53, 68
1, 411805, Note_off_c, 0, 60, 65
1, 411854, Note_on_c, 0, 56, 86
1, 411856, Note_on_c, 0, 60, 74
1, 411856, Note_on_c, 0, 53, 72
1, 411869, Note_on_c, 0, 48, 60
1, 411881, Note_off_c, 0, 56, 65
1, 411881, Note_off_c, 0, 60, 70
1, 411881, Note_off_c, 0, 53, 69
1, 411894, Note_off_c, 0, 48, 57
1, 411929, Note_on_c, 0, 60, 91
1, 411931, Note_on_c, 0, 53, 82
1, 411933, Note_on_c, 0, 56, 88
1, 411939, Note_on_c, 0, 48, 89
1, 412010, Note_on_c, 0, 44, 83
1, 412011, Note_on_c, 0, 41, 79
1, 412036, Note_off_c, 0, 44, 66
1, 412056, Note_off_c, 0, 41, 57
1, 412087, Note_on_c, 0, 41, 58
1, 412093, Note_off_c, 0, 53, 63
1, 412097, Note_on_c, 0, 44, 78
1, 412102, Note_off_c, 0, 56, 61
1, 412122, Note_off_c, 0, 44, 64
1, 412137, Note_off_c, 0, 41, 61
1, 412164, Note_off_c, 0, 48, 55
1, 412165, Note_off_c, 0, 60, 51
1, 412171, Note_on_c, 0, 40, 88
1, 412171, Note_on_c, 0, 43, 100
1, 412205, Control_c, 0, 64, 31
1, 412219, Control_c, 0, 64, 51
1, 412234, Control_c, 0, 64, 63
1, 412249, Control_c, 0, 64, 73
1, 412255, Note_on_c, 0, 48, 82
1, 412257, Note_on_c, 0, 55, 81
1, 412260, Note_on_c, 0, 52, 76
1, 412264, Control_c, 0, 64, 88
1, 412269, Note_on_c, 0, 60, 58
1, 412272, Note_off_c, 0, 43, 55
1, 412274, Note_off_c, 0, 40, 57
1, 412279, Control_c, 0, 64, 125
1, 412291, Note_off_c, 0, 52, 65
1, 412293, Note_off_c, 0, 60, 62
1, 412294, Control_c, 0, 64, 127
1, 412297, Note_off_c, 0, 55, 60
1, 412310, Note_off_c, 0, 48, 57
1, 412351, Note_on_c, 0, 52, 58
1, 412353, Note_on_c, 0, 55, 50
1, 412353, Poly_aftertouch_c, 0, 59, 127
1, 412363, Note_on_c, 0, 48, 18
1, 412369, Note_off_c, 0, 52, 67
1, 412380, Note_on_c, 0, 53, 26
1, 412383, Note_off_c, 0, 55, 63
1, 412383, Poly_aftertouch_c, 0, 59, 0
1, 412393, Note_off_c, 0, 48, 54
1, 412404, Control_c, 0, 64, 103
1, 412416, Note_on_c, 0, 60, 85
1, 412419, Note_off_c, 0, 53, 51
1, 412419, Control_c, 0, 64, 71
1, 412422, Note_on_c, 0, 58, 79
1, 412425, Note_on_c, 0, 48, 82
1, 412426, Note_on_c, 0, 55, 90
1, 412434, Control_c, 0, 64, 0
1, 412440, Note_on_c, 0, 59, 81
1, 412449, Note_on_c, 0, 50, 49
1, 412485, Note_off_c, 0, 50, 33
1, 412494, Control_c, 0, 64, 48
1, 412506, Note_on_c, 0, 46, 79
1, 412509, Control_c, 0, 64, 72
1, 412510, Note_on_c, 0, 43, 84
1, 412523, Control_c, 0, 64, 88
1, 412523, Note_off_c, 0, 59, 56
1, 412530, Note_off_c, 0, 46, 68
1, 412536, Note_off_c, 0, 58, 62
1, 412538, Control_c, 0, 64, 127
1, 412553, Note_off_c, 0, 43, 54
1, 412567, Note_off_c, 0, 55, 58
1, 412574, Note_on_c, 0, 46, 87
1, 412577, Note_on_c, 0, 43, 67
1, 412613, Note_off_c, 0, 48, 54
1, 412616, Note_off_c, 0, 46, 63
1, 412622, Note_off_c, 0, 43, 63
1, 412626, Note_off_c, 0, 60, 42
1, 412627, Control_c, 0, 64, 91
1, 412642, Control_c, 0, 64, 67
1, 412656, Control_c, 0, 64, 0
1, 412664, Note_on_c, 0, 41, 77
1, 412666, Note_on_c, 0, 44, 77
1, 412700, Control_c, 0, 64, 27
1, 412715, Control_c, 0, 64, 67
1, 412725, Note_off_c, 0, 44, 56
1, 412730, Control_c, 0, 64, 78
1, 412738, Note_off_c, 0, 41, 57
1, 412741, Note_on_c, 0, 60, 76
1, 412744, Note_on_c, 0, 48, 78
1, 412745, Control_c, 0, 64, 82
1, 412749, Note_on_c, 0, 56, 70
1, 412760, Control_c, 0, 64, 75
1, 412771, Note_on_c, 0, 53, 45
1, 412774, Control_c, 0, 64, 56
1, 412780, Note_off_c, 0, 48, 63
1, 412789, Note_off_c, 0, 60, 64
1, 412789, Control_c, 0, 64, 0
1, 412807, Note_off_c, 0, 56, 62
1, 412808, Note_off_c, 0, 53, 52
1, 412822, Note_on_c, 0, 44, 83
1, 412826, Note_on_c, 0, 41, 78
1, 412862, Note_off_c, 0, 44, 61
1, 412863, Control_c, 0, 64, 40
1, 412871, Note_off_c, 0, 41, 62
1, 412879, Control_c, 0, 64, 74
1, 412887, Note_on_c, 0, 61, 90
1, 412887, Note_on_c, 0, 49, 95
1, 412887, Note_on_c, 0, 53, 76
1, 412891, Note_on_c, 0, 55, 80
1, 412894, Control_c, 0, 64, 102
1, 412909, Control_c, 0, 64, 127
1, 412924, Note_on_c, 0, 58, 37
1, 412953, Note_off_c, 0, 58, 55
1, 412971, Note_off_c, 0, 61, 62
1, 412973, Note_on_c, 0, 34, 86
1, 412975, Note_off_c, 0, 49, 62
1, 412980, Note_on_c, 0, 43, 81
1, 412990, Note_off_c, 0, 53, 62
1, 412997, Note_off_c, 0, 55, 58
1, 413001, Note_on_c, 0, 41, 47
1, 413011, Note_off_c, 0, 43, 63
1, 413027, Control_c, 0, 64, 88
1, 413032, Note_off_c, 0, 34, 55
1, 413036, Note_on_c, 0, 61, 75
1, 413036, Note_off_c, 0, 41, 48
1, 413042, Control_c, 0, 64, 64
1, 413045, Note_on_c, 0, 49, 83
1, 413057, Control_c, 0, 64, 0
1, 413060, Note_on_c, 0, 55, 30
1, 413069, Note_on_c, 0, 53, 18
1, 413099, Note_off_c, 0, 55, 48
1, 413099, Note_off_c, 0, 49, 61
1, 413109, Note_off_c, 0, 61, 59
1, 413109, Note_off_c, 0, 53, 53
1, 413123, Control_c, 0, 64, 52
1, 413131, Note_on_c, 0, 41, 79
1, 413131, Note_on_c, 0, 44, 90
1, 413135, Note_on_c, 0, 36, 80
1, 413138, Control_c, 0, 64, 68
1, 413153, Control_c, 0, 64, 80
1, 413168, Control_c, 0, 64, 103
1, 413183, Control_c, 0, 64, 127
1, 413185, Note_off_c, 0, 44, 58
1, 413193, Note_on_c, 0, 60, 84
1, 413197, Note_on_c, 0, 48, 88
1, 413199, Note_on_c, 0, 56, 75
1, 413202, Note_on_c, 0, 53, 60
1, 413212, Note_off_c, 0, 36, 57
1, 413242, Note_off_c, 0, 53, 61
1, 413248, Note_off_c, 0, 41, 0
1, 413256, Note_off_c, 0, 48, 57
1, 413260, Note_on_c, 0, 41, 57
1, 413263, Note_on_c, 0, 36, 66
1, 413268, Note_on_c, 0, 44, 93
1, 413272, Control_c, 0, 64, 100
1, 413273, Note_off_c, 0, 56, 53
1, 413278, Note_off_c, 0, 60, 61
1, 413287, Control_c, 0, 64, 64
1, 413301, Control_c, 0, 64, 0
1, 413304, Note_off_c, 0, 41, 64
1, 413316, Note_off_c, 0, 36, 61
1, 413342, Note_on_c, 0, 52, 91
1, 413344, Note_on_c, 0, 60, 87
1, 413346, Note_off_c, 0, 44, 58
1, 413346, Note_on_c, 0, 48, 98
1, 413349, Note_on_c, 0, 55, 83
1, 413376, Control_c, 0, 64, 63
1, 413390, Control_c, 0, 64, 99
1, 413404, Control_c, 0, 64, 127
1, 413414, Note_on_c, 0, 40, 86
1, 413418, Note_on_c, 0, 43, 102
1, 413421, Note_off_c, 0, 60, 65
1, 413423, Note_on_c, 0, 34, 86
1, 413424, Note_off_c, 0, 48, 63
1, 413454, Note_off_c, 0, 52, 59
1, 413458, Note_off_c, 0, 55, 61
1, 413462, Note_off_c, 0, 43, 64
1, 413485, Note_off_c, 0, 34, 56
1, 413486, Note_off_c, 0, 40, 55
1, 413492, Note_on_c, 0, 60, 90
1, 413493, Note_on_c, 0, 48, 82
1, 413515, Note_off_c, 0, 48, 68
1, 413522, Control_c, 0, 64, 110
1, 413537, Control_c, 0, 64, 76
1, 413538, Note_off_c, 0, 60, 68
1, 413552, Control_c, 0, 64, 0
1, 413579, Note_on_c, 0, 44, 95
1, 413583, Note_on_c, 0, 41, 82
1, 413588, Note_on_c, 0, 32, 86
1, 413588, Note_on_c, 0, 36, 71
1, 413591, Note_on_c, 0, 40, 78
1, 413641, Control_c, 0, 64, 58
1, 413643, Poly_aftertouch_c, 0, 38, 0
1, 413651, Note_off_c, 0, 44, 61
1, 413654, Note_on_c, 0, 60, 97
1, 413654, Note_on_c, 0, 72, 95
1, 413656, Control_c, 0, 64, 80
1, 413662, Note_on_c, 0, 68, 77
1, 413668, Note_off_c, 0, 32, 60
1, 413672, Control_c, 0, 64, 127
1, 413675, Note_on_c, 0, 65, 66
1, 413677, Note_off_c, 0, 40, 54
1, 413681, Poly_aftertouch_c, 0, 38, 127
1, 413688, Note_off_c, 0, 41, 59
1, 413693, Note_off_c, 0, 72, 64
1, 413695, Note_off_c, 0, 65, 61
1, 413696, Note_off_c, 0, 60, 65
1, 413722, Note_on_c, 0, 41, 65
1, 413722, Note_off_c, 0, 68, 55
1, 413728, Note_on_c, 0, 32, 69
1, 413734, Note_on_c, 0, 44, 96
1, 413746, Control_c, 0, 64, 108
1, 413755, Note_off_c, 0, 32, 65
1, 413758, Note_off_c, 0, 36, 31
1, 413760, Note_off_c, 0, 41, 64
1, 413761, Note_on_c, 0, 34, 54
1, 413761, Control_c, 0, 64, 61
1, 413763, Poly_aftertouch_c, 0, 38, 0
1, 413775, Control_c, 0, 64, 0
1, 413794, Note_off_c, 0, 44, 56
1, 413799, Note_on_c, 0, 65, 91
1, 413800, Note_on_c, 0, 73, 105
1, 413802, Note_on_c, 0, 61, 104
1, 413802, Note_on_c, 0, 67, 98
1, 413803, Note_off_c, 0, 34, 47
1, 413835, Control_c, 0, 64, 83
1, 413857, Control_c, 0, 64, 127
1, 413881, Note_on_c, 0, 41, 68
1, 413887, Note_on_c, 0, 43, 97
1, 413889, Note_on_c, 0, 34, 80
1, 413894, Note_on_c, 0, 46, 97
1, 413899, Note_off_c, 0, 73, 63
1, 413904, Note_off_c, 0, 61, 61
1, 413920, Note_off_c, 0, 34, 66
1, 413954, Note_off_c, 0, 46, 65
1, 413957, Note_off_c, 0, 43, 60
1, 413957, Note_off_c, 0, 65, 0
1, 413968, Note_on_c, 0, 61, 98
1, 413968, Note_on_c, 0, 73, 89
1, 413975, Note_on_c, 0, 65, 53
1, 413984, Note_off_c, 0, 67, 57
1, 413991, Note_off_c, 0, 41, 54
1, 414005, Control_c, 0, 64, 85
1, 414007, Note_off_c, 0, 65, 62
1, 414017, Note_off_c, 0, 61, 64
1, 414020, Control_c, 0, 64, 0
1, 414035, Note_off_c, 0, 73, 58
1, 414044, Note_on_c, 0, 48, 103
1, 414047, Note_on_c, 0, 36, 87
1, 414049, Note_on_c, 0, 41, 72
1, 414051, Note_on_c, 0, 44, 89
1, 414107, Note_off_c, 0, 48, 57
1, 414109, Control_c, 0, 64, 75
1, 414115, Note_on_c, 0, 60, 100
1, 414115, Note_on_c, 0, 72, 94
1, 414115, Note_off_c, 0, 36, 60
1, 414116, Note_on_c, 0, 68, 83
1, 414120, Note_on_c, 0, 65, 78
1, 414124, Control_c, 0, 64, 115
1, 414139, Control_c, 0, 64, 127
1, 414145, Note_off_c, 0, 44, 59
1, 414154, Note_off_c, 0, 41, 60
1, 414155, Note_off_c, 0, 65, 57
1, 414180, Note_off_c, 0, 60, 60
1, 414192, Poly_aftertouch_c, 0, 44, 0
1, 414193, Note_on_c, 0, 48, 103
1, 414196, Note_on_c, 0, 44, 79
1, 414199, Note_off_c, 0, 72, 58
1, 414201, Note_on_c, 0, 41, 69
1, 414206, Note_on_c, 0, 36, 68
1, 414211, Note_off_c, 0, 68, 55
1, 414225, Note_off_c, 0, 48, 65
1, 414232, Note_off_c, 0, 36, 56
1, 414234, Note_off_c, 0, 41, 61
1, 414243, Control_c, 0, 64, 97
1, 414247, Note_off_c, 0, 44, 62
1, 414258, Control_c, 0, 64, 61
1, 414273, Control_c, 0, 64, 0
1, 414273, Note_on_c, 0, 64, 96
1, 414273, Note_on_c, 0, 72, 102
1, 414275, Note_on_c, 0, 60, 107
1, 414276, Note_on_c, 0, 67, 91
1, 414307, Note_on_c, 0, 66, 35
1, 414308, Note_off_c, 0, 66, 127
1, 414332, Control_c, 0, 64, 63
1, 414334, Note_on_c, 0, 43, 106
1, 414336, Note_on_c, 0, 46, 99
1, 414343, Note_on_c, 0, 40, 85
1, 414346, Note_on_c, 0, 34, 82
1, 414346, Control_c, 0, 64, 120
1, 414352, Note_off_c, 0, 72, 62
1, 414354, Note_off_c, 0, 60, 65
1, 414361, Control_c, 0, 64, 127
1, 414372, Note_off_c, 0, 43, 62
1, 414373, Note_off_c, 0, 40, 63
1, 414381, Note_off_c, 0, 46, 63
1, 414389, Note_off_c, 0, 64, 59
1, 414392, Note_off_c, 0, 34, 63
1, 414425, Note_on_c, 0, 60, 96
1, 414426, Note_on_c, 0, 72, 95
1, 414435, Note_off_c, 0, 67, 0
1, 414436, Note_on_c, 0, 64, 53
1, 414437, Note_off_c, 0, 64, 127
1, 414446, Note_off_c, 0, 60, 69
1, 414455, Note_on_c, 0, 68, 37
1, 414467, Note_off_c, 0, 72, 69
1, 414473, Poly_aftertouch_c, 0, 67, 127
1, 414487, Note_off_c, 0, 68, 57
1, 414496, Control_c, 0, 64, 121
1, 414508, Note_on_c, 0, 44, 114
1, 414509, Note_on_c, 0, 32, 107
1, 414511, Poly_aftertouch_c, 0, 67, 0
1, 414511, Control_c, 0, 64, 68
1, 414525, Control_c, 0, 64, 0
1, 414584, Note_on_c, 0, 34, 18
1, 414584, Control_c, 0, 64, 68
1, 414601, Note_off_c, 0, 32, 61
1, 414607, Control_c, 0, 64, 127
1, 414615, Note_on_c, 0, 72, 109
1, 414616, Note_on_c, 0, 84, 103
1, 414616, Note_on_c, 0, 80, 92
1, 414622, Note_on_c, 0, 77, 79
1, 414625, Note_off_c, 0, 44, 59
1, 414629, Note_off_c, 0, 34, 58
1, 414642, Note_off_c, 0, 77, 66
1, 414652, Note_on_c, 0, 39, 30
1, 414657, Note_off_c, 0, 84, 62
1, 414660, Note_off_c, 0, 72, 64
1, 414686, Note_off_c, 0, 80, 62
1, 414687, Note_on_c, 0, 44, 105
1, 414691, Note_off_c, 0, 39, 44
1, 414693, Note_on_c, 0, 32, 91
1, 414721, Note_on_c, 0, 34, 54
1, 414722, Note_off_c, 0, 32, 65
1, 414761, Note_off_c, 0, 34, 62
1, 414767, Note_off_c, 0, 44, 0
1, 414769, Control_c, 0, 64, 79
1, 414772, Note_on_c, 0, 77, 89
1, 414774, Note_on_c, 0, 73, 126
1, 414776, Note_on_c, 0, 85, 109
1, 414777, Note_on_c, 0, 79, 99
1, 414784, Control_c, 0, 64, 0
1, 414801, Note_on_c, 0, 82, 58
1, 414806, Poly_aftertouch_c, 0, 44, 0
1, 414822, Note_off_c, 0, 82, 59
1, 414829, Control_c, 0, 64, 51
1, 414843, Control_c, 0, 64, 127
1, 414850, Note_on_c, 0, 41, 5
1, 414856, Note_on_c, 0, 34, 74
1, 414856, Note_on_c, 0, 43, 102
1, 414859, Note_on_c, 0, 46, 99
1, 414863, Note_off_c, 0, 73, 63
1, 414872, Note_off_c, 0, 85, 62
1, 414895, Note_off_c, 0, 34, 63
1, 414896, Note_off_c, 0, 77, 61
1, 414911, Note_off_c, 0, 79, 56
1, 414930, Note_off_c, 0, 46, 65
1, 414937, Note_off_c, 0, 43, 61
1, 414938, Note_on_c, 0, 73, 105
1, 414939, Note_on_c, 0, 79, 75
1, 414941, Note_on_c, 0, 85, 101
1, 414942, Note_on_c, 0, 77, 73
1, 414979, Note_off_c, 0, 79, 62
1, 414989, Note_off_c, 0, 77, 51
1, 414998, Note_off_c, 0, 73, 66
1, 415001, Note_off_c, 0, 41, 39
1, 415007, Control_c, 0, 64, 103
1, 415015, Note_off_c, 0, 85, 58
1, 415021, Control_c, 0, 64, 58
1, 415025, Note_on_c, 0, 48, 115
1, 415027, Note_on_c, 0, 41, 82
1, 415029, Note_on_c, 0, 36, 96
1, 415029, Note_on_c, 0, 44, 94
1, 415036, Control_c, 0, 64, 0
1, 415101, Note_on_c, 0, 80, 92
1, 415101, Note_on_c, 0, 84, 100
1, 415103, Note_on_c, 0, 72, 108
1, 415110, Control_c, 0, 64, 67
1, 415111, Note_on_c, 0, 77, 82
1, 415115, Note_off_c, 0, 48, 60
1, 415117, Note_off_c, 0, 36, 58
1, 415125, Control_c, 0, 64, 127
1, 415128, Note_on_c, 0, 78, 54
1, 415129, Note_off_c, 0, 78, 48
1, 415144, Note_off_c, 0, 77, 58
1, 415149, Note_on_c, 0, 82, 25
1, 415150, Note_off_c, 0, 44, 60
1, 415158, Note_off_c, 0, 41, 61
1, 415168, Note_off_c, 0, 80, 65
1, 415185, Note_off_c, 0, 82, 52
1, 415194, Note_on_c, 0, 44, 85
1, 415195, Note_on_c, 0, 48, 112
1, 415197, Note_off_c, 0, 72, 58
1, 415200, Note_on_c, 0, 41, 68
1, 415200, Note_off_c, 0, 84, 58
1, 415202, Note_on_c, 0, 36, 93
1, 415242, Note_on_c, 0, 38, 32
1, 415259, Control_c, 0, 64, 113
1, 415260, Note_off_c, 0, 41, 58
1, 415274, Control_c, 0, 64, 80
1, 415278, Note_off_c, 0, 48, 61
1, 415281, Note_off_c, 0, 38, 50
1, 415282, Note_off_c, 0, 36, 59
1, 415289, Control_c, 0, 64, 0
1, 415296, Note_off_c, 0, 44, 60
1, 415317, Note_on_c, 0, 76, 102
1, 415319, Note_on_c, 0, 72, 109
1, 415320, Note_on_c, 0, 84, 103
1, 415322, Note_on_c, 0, 79, 91
1, 415385, Control_c, 0, 64, 45
1, 415400, Control_c, 0, 64, 127
1, 415405, Note_on_c, 0, 43, 93
1, 415406, Note_on_c, 0, 40, 82
1, 415406, Note_on_c, 0, 48, 100
1, 415409, Note_on_c, 0, 36, 83
1, 415431, Note_off_c, 0, 84, 59
1, 415439, Note_off_c, 0, 48, 64
1, 415442, Note_off_c, 0, 72, 63
1, 415450, Note_off_c, 0, 43, 66
1, 415451, Note_on_c, 0, 47, 25
1, 415452, Note_off_c, 0, 47, 127
1, 415456, Note_on_c, 0, 39, 27
1, 415460, Note_off_c, 0, 40, 61
1, 415477, Note_off_c, 0, 36, 63
1, 415478, Note_off_c, 0, 79, 58
1, 415485, Note_off_c, 0, 76, 54
1, 415492, Poly_aftertouch_c, 0, 47, 0
1, 415495, Note_off_c, 0, 39, 42
1, 415521, Note_on_c, 0, 72, 103
1, 415553, Note_off_c, 0, 72, 65
1, 415585, Note_on_c, 0, 32, 29
1, 415610, Note_off_c, 0, 32, 57
1, 415619, Poly_aftertouch_c, 0, 84, 0
1, 415637, Control_c, 0, 64, 76
1, 415652, Control_c, 0, 64, 0
1, 415665, Note_on_c, 0, 41, 114
1, 415670, Note_on_c, 0, 29, 105
1, 415683, Note_on_c, 0, 59, 88
1, 415686, Note_on_c, 0, 32, 71
1, 415693, Note_on_c, 0, 60, 66
1, 415693, Note_off_c, 0, 29, 72
1, 415711, Control_c, 0, 64, 85
1, 415713, Note_off_c, 0, 32, 40
1, 415713, Note_off_c, 0, 41, 69
1, 415716, Note_off_c, 0, 60, 60
1, 415725, Control_c, 0, 64, 127
1, 415734, Note_off_c, 0, 59, 61
1, 415785, Note_on_c, 0, 55, 16
1, 415790, Note_on_c, 0, 60, 50
1, 415810, Note_on_c, 0, 59, 55
1, 415819, Note_off_c, 0, 55, 0
1, 415827, Note_off_c, 0, 59, 64
1, 415843, Poly_aftertouch_c, 0, 55, 0
1, 415859, Note_off_c, 0, 60, 41
1, 415860, Note_on_c, 0, 56, 65
1, 415890, Note_off_c, 0, 56, 64
1, 415921, Note_on_c, 0, 60, 56
1, 415952, Note_on_c, 0, 56, 70
1, 415954, Note_off_c, 0, 60, 67
1, 415990, Note_off_c, 0, 56, 54
1, 416024, Note_on_c, 0, 60, 65
1, 416053, Note_off_c, 0, 60, 67
1, 416095, Note_on_c, 0, 56, 68
1, 416119, Note_on_c, 0, 68, 79
1, 416124, Note_off_c, 0, 56, 66
1, 416144, Note_on_c, 0, 60, 54
1, 416176, Note_off_c, 0, 60, 64
1, 416192, Note_on_c, 0, 56, 68
1, 416234, Note_off_c, 0, 56, 62
1, 416258, Note_on_c, 0, 60, 59
1, 416294, Note_off_c, 0, 60, 65
1, 416321, Note_on_c, 0, 56, 59
1, 416351, Note_off_c, 0, 56, 65
1, 416352, Note_on_c, 0, 72, 72
1, 416369, Note_on_c, 0, 60, 68
1, 416402, Note_off_c, 0, 60, 59
1, 416411, Note_on_c, 0, 77, 87
1, 416425, Note_off_c, 0, 68, 62
1, 416427, Note_on_c, 0, 56, 65
1, 416436, Note_off_c, 0, 72, 64
1, 416465, Note_off_c, 0, 56, 63
1, 416473, Note_off_c, 0, 77, 64
1, 416490, Note_on_c, 0, 60, 71
1, 416529, Note_off_c, 0, 60, 58
1, 416559, Note_on_c, 0, 56, 66
1, 416592, Note_off_c, 0, 56, 63
1, 416611, Note_on_c, 0, 80, 30
1, 416613, Note_on_c, 0, 60, 62
1, 416644, Note_off_c, 0, 80, 53
1, 416655, Note_off_c, 0, 60, 63
1, 416677, Note_on_c, 0, 56, 65
1, 416704, Note_on_c, 0, 80, 85
1, 416721, Note_off_c, 0, 56, 63
1, 416739, Note_on_c, 0, 60, 69
1, 416778, Note_off_c, 0, 60, 58
1, 416808, Note_on_c, 0, 56, 58
1, 416846, Note_off_c, 0, 56, 66
1, 416870, Note_on_c, 0, 60, 66
1, 416906, Note_off_c, 0, 60, 65
1, 416922, Note_on_c, 0, 84, 75
1, 416923, Note_on_c, 0, 56, 64
1, 416974, Note_off_c, 0, 56, 63
1, 416981, Note_on_c, 0, 60, 66
1, 416995, Note_on_c, 0, 89, 90
1, 417037, Note_off_c, 0, 60, 54
1, 417041, Note_off_c, 0, 84, 61
1, 417061, Note_off_c, 0, 80, 54
1, 417064, Note_on_c, 0, 56, 60
1, 417096, Note_off_c, 0, 56, 64
1, 417121, Note_on_c, 0, 60, 59
1, 417156, Note_off_c, 0, 60, 64
1, 417177, Note_on_c, 0, 56, 54
1, 417215, Note_off_c, 0, 56, 62
1, 417235, Note_on_c, 0, 60, 61
1, 417287, Note_off_c, 0, 60, 62
1, 417302, Note_off_c, 0, 89, 52
1, 417306, Note_on_c, 0, 56, 60
1, 417312, Note_on_c, 0, 84, 71
1, 417340, Note_off_c, 0, 56, 63
1, 417361, Note_on_c, 0, 60, 40
1, 417393, Note_off_c, 0, 60, 59
1, 417427, Note_on_c, 0, 56, 55
1, 417455, Note_off_c, 0, 56, 57
1, 417489, Note_on_c, 0, 60, 48
1, 417490, Control_c, 0, 67, 8
1, 417505, Control_c, 0, 67, 9
1, 417519, Control_c, 0, 67, 10
1, 417522, Note_off_c, 0, 60, 53
1, 417524, Note_on_c, 0, 80, 59
1, 417534, Note_on_c, 0, 56, 61
1, 417534, Control_c, 0, 67, 11
1, 417549, Control_c, 0, 67, 14
1, 417561, Note_off_c, 0, 84, 58
1, 417564, Control_c, 0, 67, 18
1, 417566, Note_off_c, 0, 56, 64
1, 417575, Note_on_c, 0, 77, 73
1, 417579, Control_c, 0, 67, 24
1, 417601, Control_c, 0, 67, 29
1, 417611, Note_on_c, 0, 60, 55
1, 417616, Control_c, 0, 67, 33
1, 417627, Note_off_c, 0, 80, 64
1, 417631, Control_c, 0, 67, 36
1, 417642, Note_off_c, 0, 60, 65
1, 417645, Note_off_c, 0, 77, 65
1, 417645, Control_c, 0, 67, 37
1, 417661, Note_on_c, 0, 56, 56
1, 417691, Control_c, 0, 67, 37
1, 417695, Note_off_c, 0, 56, 63
1, 417706, Control_c, 0, 67, 35
1, 417721, Control_c, 0, 67, 34
1, 417728, Note_on_c, 0, 60, 60
1, 417736, Control_c, 0, 67, 32
1, 417759, Note_off_c, 0, 60, 66
1, 417798, Note_on_c, 0, 56, 56
1, 417827, Note_off_c, 0, 56, 65
1, 417838, Note_on_c, 0, 60, 54
1, 417839, Control_c, 0, 67, 31
1, 417854, Control_c, 0, 67, 31
1, 417887, Note_off_c, 0, 60, 60
1, 417898, Control_c, 0, 67, 30
1, 417907, Note_on_c, 0, 56, 58
1, 417924, Note_on_c, 0, 72, 68
1, 417928, Control_c, 0, 67, 31
1, 417943, Control_c, 0, 67, 32
1, 417947, Note_off_c, 0, 56, 61
1, 417958, Control_c, 0, 67, 33
1, 417973, Control_c, 0, 67, 34
1, 417993, Note_on_c, 0, 60, 46
1, 418002, Control_c, 0, 67, 35
1, 418013, Note_off_c, 0, 60, 64
1, 418017, Control_c, 0, 67, 36
1, 418032, Control_c, 0, 67, 38
1, 418047, Control_c, 0, 67, 39
1, 418047, Note_on_c, 0, 56, 59
1, 418061, Control_c, 0, 67, 42
1, 418076, Control_c, 0, 67, 46
1, 418079, Note_off_c, 0, 56, 64
1, 418089, Note_on_c, 0, 60, 58
1, 418091, Control_c, 0, 67, 49
1, 418105, Control_c, 0, 67, 51
1, 418119, Note_on_c, 0, 68, 66
1, 418120, Control_c, 0, 67, 53
1, 418131, Note_off_c, 0, 60, 54
1, 418135, Control_c, 0, 67, 56
1, 418150, Control_c, 0, 67, 60
1, 418153, Note_on_c, 0, 56, 62
1, 418165, Control_c, 0, 67, 64
1, 418169, Note_off_c, 0, 72, 56
1, 418179, Control_c, 0, 67, 68
1, 418190, Note_off_c, 0, 56, 63
1, 418194, Control_c, 0, 67, 72
1, 418196, Note_on_c, 0, 65, 69
1, 418206, Note_off_c, 0, 68, 65
1, 418209, Control_c, 0, 67, 75
1, 418223, Note_on_c, 0, 60, 49
1, 418224, Note_off_c, 0, 65, 67
1, 418224, Control_c, 0, 67, 79
1, 418239, Control_c, 0, 67, 84
1, 418250, Note_off_c, 0, 60, 58
1, 418254, Control_c, 0, 67, 87
1, 418268, Control_c, 0, 67, 89
1, 418281, Note_on_c, 0, 56, 63
1, 418283, Control_c, 0, 67, 91
1, 418298, Control_c, 0, 67, 94
1, 418312, Control_c, 0, 67, 96
1, 418327, Control_c, 0, 67, 98
1, 418344, Note_on_c, 0, 60, 35
1, 418345, Note_off_c, 0, 56, 64
1, 418350, Control_c, 0, 67, 99
1, 418365, Control_c, 0, 67, 100
1, 418372, Note_off_c, 0, 60, 55
1, 418380, Control_c, 0, 67, 101
1, 418409, Control_c, 0, 67, 101
1, 418424, Control_c, 0, 67, 102
1, 418439, Control_c, 0, 67, 102
1, 418480, Note_on_c, 0, 60, 60
1, 418482, Note_on_c, 0, 68, 61
1, 418485, Control_c, 0, 67, 103
1, 418499, Control_c, 0, 67, 103
1, 418511, Note_off_c, 0, 68, 66
1, 418514, Control_c, 0, 67, 104
1, 418529, Control_c, 0, 67, 106
1, 418543, Control_c, 0, 67, 108
1, 418558, Control_c, 0, 67, 109
1, 418560, Note_on_c, 0, 65, 23
1, 418573, Control_c, 0, 67, 110
1, 418582, Note_on_c, 0, 68, 69
1, 418588, Control_c, 0, 67, 110
1, 418602, Note_off_c, 0, 65, 43
1, 418603, Control_c, 0, 67, 111
1, 418605, Note_off_c, 0, 68, 69
1, 418606, Poly_aftertouch_c, 0, 67, 127
1, 418617, Control_c, 0, 67, 112
1, 418632, Control_c, 0, 67, 112
1, 418639, Poly_aftertouch_c, 0, 67, 0
1, 418647, Control_c, 0, 67, 113
1, 418648, Note_on_c, 0, 65, 55
1, 418700, Note_on_c, 0, 56, 62
1, 418739, Note_on_c, 0, 68, 38
1, 418762, Note_off_c, 0, 60, 55
1, 418762, Note_off_c, 0, 68, 59
1, 418764, Note_on_c, 0, 72, 65
1, 418765, Control_c, 0, 64, 89
1, 418765, Control_c, 0, 67, 113
1, 418775, Note_on_c, 0, 53, 71
1, 418780, Control_c, 0, 64, 68
1, 418791, Note_off_c, 0, 65, 30
1, 418793, Note_off_c, 0, 56, 61
1, 418795, Control_c, 0, 64, 46
1, 418810, Control_c, 0, 64, 58
1, 418818, Note_off_c, 0, 72, 55
1, 418825, Control_c, 0, 64, 69
1, 418831, Note_on_c, 0, 68, 66
1, 418840, Control_c, 0, 64, 86
1, 418855, Control_c, 0, 64, 127
1, 418863, Note_off_c, 0, 68, 65
1, 418864, Note_off_c, 0, 53, 66
1, 418903, Note_on_c, 0, 72, 49
1, 418935, Note_off_c, 0, 72, 59
1, 418968, Note_on_c, 0, 68, 56
1, 418988, Note_off_c, 0, 68, 65
1, 419022, Note_on_c, 0, 72, 61
1, 419054, Note_off_c, 0, 72, 65
1, 419065, Note_on_c, 0, 48, 67
1, 419073, Note_on_c, 0, 68, 58
1, 419119, Note_off_c, 0, 68, 60
1, 419167, Note_on_c, 0, 72, 51
1, 419189, Note_off_c, 0, 72, 62
1, 419225, Note_on_c, 0, 68, 54
1, 419251, Note_off_c, 0, 68, 60
1, 419270, Note_on_c, 0, 72, 60
1, 419300, Note_on_c, 0, 44, 64
1, 419308, Note_off_c, 0, 72, 62
1, 419335, Note_on_c, 0, 68, 60
1, 419341, Note_off_c, 0, 48, 62
1, 419366, Control_c, 0, 64, 95
1, 419371, Note_on_c, 0, 41, 68
1, 419375, Note_off_c, 0, 68, 64
1, 419381, Control_c, 0, 64, 74
1, 419390, Note_off_c, 0, 44, 60
1, 419396, Control_c, 0, 64, 62
1, 419403, Note_on_c, 0, 72, 57
1, 419411, Control_c, 0, 64, 62
1, 419426, Control_c, 0, 64, 68
1, 419436, Note_off_c, 0, 72, 62
1, 419440, Control_c, 0, 64, 77
1, 419455, Control_c, 0, 64, 92
1, 419470, Note_on_c, 0, 68, 61
1, 419470, Control_c, 0, 64, 127
1, 419508, Note_off_c, 0, 68, 65
1, 419545, Note_on_c, 0, 72, 52
1, 419572, Note_off_c, 0, 72, 59
1, 419603, Control_c, 0, 67, 114
1, 419615, Note_on_c, 0, 68, 51
1, 419633, Control_c, 0, 67, 114
1, 419639, Note_off_c, 0, 68, 59
1, 419657, Note_on_c, 0, 72, 60
1, 419680, Note_on_c, 0, 36, 63
1, 419691, Note_off_c, 0, 72, 63
1, 419692, Control_c, 0, 67, 115
1, 419707, Control_c, 0, 67, 116
1, 419719, Note_on_c, 0, 68, 61
1, 419722, Control_c, 0, 67, 117
1, 419737, Control_c, 0, 67, 120
1, 419752, Control_c, 0, 67, 122
1, 419752, Note_off_c, 0, 68, 65
1, 419766, Control_c, 0, 67, 123
1, 419781, Control_c, 0, 67, 125
1, 419796, Control_c, 0, 67, 126
1, 419797, Note_on_c, 0, 72, 48
1, 419811, Control_c, 0, 67, 127
1, 419822, Note_off_c, 0, 72, 59
1, 419870, Note_on_c, 0, 68, 50
1, 419889, Note_off_c, 0, 68, 63
1, 419917, Note_on_c, 0, 32, 59
1, 419924, Note_on_c, 0, 72, 48
1, 419941, Note_off_c, 0, 36, 51
1, 419946, Note_off_c, 0, 72, 60
1, 419965, Note_on_c, 0, 68, 59
1, 420008, Note_off_c, 0, 68, 62
1, 420017, Note_on_c, 0, 29, 62
1, 420026, Note_on_c, 0, 72, 60
1, 420031, Note_off_c, 0, 41, 33
1, 420040, Control_c, 0, 64, 123
1, 420055, Control_c, 0, 64, 92
1, 420066, Note_off_c, 0, 32, 32
1, 420071, Control_c, 0, 64, 73
1, 420074, Note_off_c, 0, 72, 57
1, 420086, Control_c, 0, 64, 56
1, 420101, Control_c, 0, 64, 0
1, 420121, Note_on_c, 0, 68, 46
1, 420130, Control_c, 0, 64, 32
1, 420145, Control_c, 0, 64, 61
1, 420146, Note_off_c, 0, 68, 58
1, 420160, Control_c, 0, 64, 70
1, 420175, Control_c, 0, 64, 82
1, 420183, Note_on_c, 0, 72, 51
1, 420189, Control_c, 0, 64, 98
1, 420204, Control_c, 0, 64, 127
1, 420208, Note_off_c, 0, 72, 59
1, 420226, Note_on_c, 0, 68, 55
1, 420244, Note_off_c, 0, 29, 51
1, 420264, Note_off_c, 0, 68, 64
1, 420295, Note_on_c, 0, 72, 58
1, 420327, Note_off_c, 0, 72, 66
1, 420372, Note_on_c, 0, 68, 50
1, 420393, Note_off_c, 0, 68, 64
1, 420417, Note_on_c, 0, 29, 52
1, 420433, Note_on_c, 0, 72, 51
1, 420462, Note_off_c, 0, 72, 57
1, 420480, Note_on_c, 0, 68, 48
1, 420523, Note_off_c, 0, 68, 63
1, 420562, Note_on_c, 0, 72, 50
1, 420600, Note_off_c, 0, 29, 43
1, 420602, Note_off_c, 0, 72, 59
1, 420640, Note_on_c, 0, 68, 51
1, 420670, Note_off_c, 0, 68, 63
1, 420694, Note_on_c, 0, 72, 52
1, 420724, Note_off_c, 0, 72, 62
1, 420766, Note_on_c, 0, 68, 50
1, 420798, Note_off_c, 0, 68, 64
1, 420816, Note_on_c, 0, 72, 54
1, 420834, Control_c, 0, 64, 105
1, 420840, Note_on_c, 0, 29, 52
1, 420849, Control_c, 0, 64, 85
1, 420864, Control_c, 0, 64, 72
1, 420867, Note_off_c, 0, 72, 56
1, 420879, Control_c, 0, 64, 65
1, 420894, Control_c, 0, 64, 67
1, 420906, Note_on_c, 0, 68, 39
1, 420909, Control_c, 0, 64, 72
1, 420924, Control_c, 0, 64, 82
1, 420939, Control_c, 0, 64, 95
1, 420947, Note_off_c, 0, 68, 64
1, 420953, Control_c, 0, 64, 119
1, 420968, Control_c, 0, 64, 127
1, 420995, Note_on_c, 0, 72, 45
1, 421022, Note_off_c, 0, 72, 57
1, 421053, Note_on_c, 0, 68, 50
1, 421090, Note_off_c, 0, 68, 64
1, 421123, Note_on_c, 0, 72, 47
1, 421169, Note_off_c, 0, 72, 60
1, 421201, Note_on_c, 0, 68, 44
1, 421207, Note_off_c, 0, 29, 25
1, 421242, Note_off_c, 0, 68, 63
1, 421284, Note_on_c, 0, 72, 42
1, 421313, Note_off_c, 0, 72, 55
1, 421351, Note_on_c, 0, 68, 47
1, 421396, Note_off_c, 0, 68, 62
1, 421418, Note_on_c, 0, 72, 45
1, 421465, Note_off_c, 0, 72, 56
1, 421500, Note_on_c, 0, 68, 47
1, 421541, Note_off_c, 0, 68, 64
1, 421575, Note_on_c, 0, 72, 46
1, 421603, Note_off_c, 0, 72, 56
1, 421652, Note_on_c, 0, 68, 45
1, 421691, Note_off_c, 0, 68, 60
1, 421711, Note_on_c, 0, 72, 41
1, 421746, Note_on_c, 0, 29, 42
1, 421779, Note_off_c, 0, 72, 58
1, 421824, Note_on_c, 0, 68, 38
1, 421862, Note_off_c, 0, 68, 63
1, 421936, Note_on_c, 0, 72, 21
1, 421974, Note_off_c, 0, 72, 48
1, 421979, Note_on_c, 0, 68, 39
1, 422032, Note_off_c, 0, 68, 60
1, 422090, Note_on_c, 0, 72, 45
1, 422138, Note_off_c, 0, 72, 57
1, 422184, Note_on_c, 0, 68, 33
1, 422223, Note_off_c, 0, 29, 31
1, 422232, Note_off_c, 0, 68, 52
1, 422275, Note_on_c, 0, 72, 38
1, 422318, Note_off_c, 0, 72, 47
1, 422358, Note_on_c, 0, 68, 38
1, 422414, Note_off_c, 0, 68, 56
1, 422460, Note_on_c, 0, 72, 36
1, 422529, Note_off_c, 0, 72, 41
1, 422572, Note_on_c, 0, 68, 30
1, 422661, Note_off_c, 0, 68, 51
1, 422697, Note_on_c, 0, 72, 35
1, 422829, Note_on_c, 0, 68, 32
1, 422834, Note_off_c, 0, 72, 32
1, 422932, Note_off_c, 0, 68, 38
1, 423242, Note_on_c, 0, 68, 32
1, 423243, Note_on_c, 0, 72, 31
1, 423276, Note_on_c, 0, 29, 32
1, 427721, Control_c, 0, 64, 122
1, 427736, Control_c, 0, 64, 117
1, 427751, Control_c, 0, 64, 114
1, 427766, Control_c, 0, 64, 112
1, 427780, Control_c, 0, 64, 110
1, 427795, Control_c, 0, 64, 108
1, 427810, Control_c, 0, 64, 106
1, 427825, Control_c, 0, 64, 105
1, 427840, Control_c, 0, 64, 104
1, 427854, Control_c, 0, 64, 103
1, 427869, Control_c, 0, 64, 102
1, 427884, Control_c, 0, 64, 101
1, 427899, Control_c, 0, 64, 100
1, 427914, Control_c, 0, 64, 99
1, 427929, Control_c, 0, 64, 99
1, 427944, Control_c, 0, 64, 98
1, 427959, Control_c, 0, 64, 98
1, 427973, Control_c, 0, 64, 97
1, 427988, Control_c, 0, 64, 96
1, 428003, Control_c, 0, 64, 96
1, 428017, Control_c, 0, 64, 95
1, 428032, Control_c, 0, 64, 94
1, 428048, Control_c, 0, 64, 93
1, 428063, Control_c, 0, 64, 92
1, 428085, Control_c, 0, 64, 92
1, 428100, Control_c, 0, 64, 91
1, 428115, Control_c, 0, 64, 91
1, 428129, Control_c, 0, 64, 90
1, 428144, Control_c, 0, 64, 89
1, 428159, Control_c, 0, 64, 88
1, 428174, Control_c, 0, 64, 86
1, 428189, Control_c, 0, 64, 85
1, 428203, Control_c, 0, 64, 84
1, 428218, Control_c, 0, 64, 82
1, 428233, Control_c, 0, 64, 81
1, 428248, Control_c, 0, 64, 80
1, 428263, Control_c, 0, 64, 79
1, 428278, Control_c, 0, 64, 79
1, 428307, Control_c, 0, 64, 78
1, 428352, Control_c, 0, 64, 78
1, 428381, Control_c, 0, 64, 77
1, 428425, Control_c, 0, 64, 77
1, 428440, Control_c, 0, 64, 76
1, 428454, Control_c, 0, 64, 76
1, 428484, Control_c, 0, 64, 75
1, 428528, Control_c, 0, 64, 74
1, 428543, Control_c, 0, 64, 73
1, 428558, Control_c, 0, 64, 72
1, 428573, Control_c, 0, 64, 71
1, 428588, Control_c, 0, 64, 71
1, 428632, Control_c, 0, 64, 70
1, 428662, Control_c, 0, 64, 70
1, 428677, Control_c, 0, 64, 69
1, 428692, Control_c, 0, 64, 69
1, 428707, Control_c, 0, 64, 68
1, 428721, Control_c, 0, 64, 68
1, 428736, Control_c, 0, 64, 67
1, 428748, Note_off_c, 0, 29, 1
1, 428781, Control_c, 0, 64, 67
1, 428795, Control_c, 0, 64, 66
1, 428848, Control_c, 0, 64, 66
1, 428863, Control_c, 0, 64, 65
1, 428877, Control_c, 0, 64, 65
1, 428907, Control_c, 0, 64, 64
1, 428922, Control_c, 0, 64, 64
1, 428937, Control_c, 0, 64, 63
1, 428942, Note_off_c, 0, 68, 34
1, 428962, Note_off_c, 0, 72, 28
1, 428996, Control_c, 0, 64, 63
1, 429011, Control_c, 0, 64, 62
1, 429041, Control_c, 0, 64, 62
1, 429070, Control_c, 0, 64, 61
1, 429085, Control_c, 0, 64, 61
1, 429100, Control_c, 0, 64, 60
1, 429115, Control_c, 0, 64, 59
1, 429130, Control_c, 0, 64, 58
1, 429144, Control_c, 0, 64, 57
1, 429159, Control_c, 0, 64, 57
1, 429189, Control_c, 0, 64, 56
1, 429204, Control_c, 0, 64, 55
1, 429218, Control_c, 0, 64, 54
1, 429233, Control_c, 0, 64, 53
1, 429248, Control_c, 0, 64, 53
1, 429262, Control_c, 0, 64, 51
1, 429277, Control_c, 0, 64, 48
1, 429292, Control_c, 0, 64, 45
1, 429307, Control_c, 0, 64, 43
1, 429322, Control_c, 0, 64, 42
1, 429336, Control_c, 0, 64, 41
1, 429381, Control_c, 0, 64, 40
1, 429396, Control_c, 0, 64, 37
1, 429411, Control_c, 0, 64, 32
1, 429425, Control_c, 0, 64, 28
1, 429440, Control_c, 0, 64, 26
1, 429485, Control_c, 0, 64, 24
1, 429500, Control_c, 0, 64, 22
1, 429515, Control_c, 0, 64, 21
1, 429530, Control_c, 0, 64, 20
1, 429559, Control_c, 0, 64, 10
1, 429581, Control_c, 0, 64, 0
1, 432287, Control_c, 0, 64, 8
1, 432317, Control_c, 0, 64, 10
1, 433022, Control_c, 0, 64, 12
1, 433244, Control_c, 0, 64, 13
1, 433548, Control_c, 0, 64, 15
1, 433592, Control_c, 0, 64, 16
1, 433756, Control_c, 0, 64, 17
1, 433905, Control_c, 0, 64, 18
1, 434267, Control_c, 0, 64, 19
1, 434370, Control_c, 0, 64, 20
1, 434429, Control_c, 0, 64, 21
1, 434475, Control_c, 0, 64, 21
1, 434608, Control_c, 0, 64, 22
1, 434681, Control_c, 0, 64, 23
1, 434755, Control_c, 0, 64, 24
1, 434755, Control_c, 0, 67, 127
1, 434770, Control_c, 0, 67, 125
1, 434785, Control_c, 0, 67, 122
1, 434807, Control_c, 0, 64, 24
1, 434807, Control_c, 0, 67, 120
1, 434822, Control_c, 0, 64, 25
1, 434822, Control_c, 0, 67, 117
1, 434837, Control_c, 0, 64, 26
1, 434837, Control_c, 0, 67, 115
1, 434852, Control_c, 0, 64, 26
1, 434852, Control_c, 0, 67, 111
1, 434867, Control_c, 0, 64, 27
1, 434867, Control_c, 0, 67, 107
1, 434881, Control_c, 0, 64, 27
1, 434881, Control_c, 0, 67, 101
1, 434896, Control_c, 0, 64, 28
1, 434896, Control_c, 0, 67, 95
1, 434911, Control_c, 0, 64, 28
1, 434911, Control_c, 0, 67, 88
1, 434926, Control_c, 0, 64, 30
1, 434926, Control_c, 0, 67, 80
1, 434941, Control_c, 0, 64, 32
1, 434941, Control_c, 0, 67, 72
1, 434956, Control_c, 0, 64, 34
1, 434956, Control_c, 0, 67, 63
1, 434970, Control_c, 0, 64, 37
1, 434970, Control_c, 0, 67, 57
1, 434985, Control_c, 0, 64, 38
1, 434985, Control_c, 0, 67, 51
1, 435000, Control_c, 0, 64, 39
1, 435000, Control_c, 0, 67, 47
1, 435014, Control_c, 0, 64, 40
1, 435014, Control_c, 0, 67, 43
1, 435029, Control_c, 0, 64, 41
1, 435029, Control_c, 0, 67, 38
1, 435044, Control_c, 0, 64, 43
1, 435044, Control_c, 0, 67, 32
1, 435059, Control_c, 0, 64, 44
1, 435059, Control_c, 0, 67, 25
1, 435074, Control_c, 0, 64, 45
1, 435074, Control_c, 0, 67, 18
1, 435089, Control_c, 0, 64, 45
1, 435089, Control_c, 0, 67, 8
1, 435104, Control_c, 0, 64, 46
1, 435104, Control_c, 0, 67, 0
1, 435119, Control_c, 0, 64, 47
1, 435134, Control_c, 0, 64, 48
1, 435149, Control_c, 0, 64, 49
1, 435163, Control_c, 0, 64, 49
1, 435268, Control_c, 0, 64, 49
1, 435549, Control_c, 0, 64, 49
1, 435749, Control_c, 0, 64, 49
1, 435793, Control_c, 0, 64, 48
1, 435867, Control_c, 0, 64, 48
1, 435882, Control_c, 0, 64, 47
1, 435897, Control_c, 0, 64, 47
1, 435912, Control_c, 0, 64, 45
1, 435927, Control_c, 0, 64, 45
1, 435971, Control_c, 0, 64, 43
1, 435986, Control_c, 0, 64, 41
1, 436001, Control_c, 0, 64, 37
1, 436016, Control_c, 0, 64, 28
1, 436031, Control_c, 0, 64, 0
1, 436106, End_track
0, 0, End_of_file
