0, 0, Header, 0, 1, 384
1, 0, Start_track
1, 0, Title_t, "Sonata Op. 110--Aysedeniz Gokcin"
1, 0, Text_t, "2009 Piano-e-Competition audition round"
1, 0, Text_t, "captured January 2009"
1, 0, Text_t, "http://www.piano-e-competition.com/"
1, 0, Text_t, "File processed for distribution by software from Zenph Studios, Inc., http://www.zenph.com"
1, 0, Instrument_name_t, "Yamaha Disklavier Pro Mark IV concert grand piano, model DCFIIISM4PRO"
1, 0, Sequencer_specific, 39, 67, 113, 0, 1, 0, 1, 0, 83, 111, 110, 97, 116, 97, 32, 79, 112, 46, 32, 49, 49, 48, 32, 32, 65, 121, 115, 101, 100, 101, 110, 105, 122, 32, 71, 111, 107, 99, 105, 110
1, 0, Sequencer_specific, 6, 67, 113, 0, 0, 0, 69
1, 0, System_exclusive, 21, 67, 113, 126, 21, 0, 2, 2, 0, 3, 14, 1, 4, 1, 13, 13, 10, 11, 9, 2, 7, 247
1, 0, Sequencer_specific, 5, 67, 123, 12, 2, 1
1, 0, Tempo, 512820
1, 0, Time_signature, 4, 2, 24, 8
1, 0, System_exclusive, 5, 126, 127, 9, 1, 247
1, 1, System_exclusive, 8, 67, 16, 76, 0, 0, 126, 0, 247
1, 2, System_exclusive, 8, 67, 16, 76, 8, 9, 7, 1, 247
1, 3, Control_c, 0, 0, 0
1, 3, Control_c, 1, 0, 0
1, 3, Control_c, 2, 0, 0
1, 3, Control_c, 3, 0, 0
1, 3, Control_c, 4, 0, 0
1, 3, Control_c, 5, 0, 0
1, 3, Control_c, 6, 0, 0
1, 3, Control_c, 7, 0, 0
1, 3, Control_c, 8, 0, 0
1, 3, Control_c, 9, 0, 127
1, 3, Control_c, 10, 0, 0
1, 3, Control_c, 11, 0, 0
1, 3, Control_c, 12, 0, 0
1, 3, Control_c, 13, 0, 0
1, 3, Control_c, 14, 0, 0
1, 3, Control_c, 15, 0, 0
1, 4, Control_c, 0, 32, 0
1, 4, Control_c, 1, 32, 0
1, 4, Control_c, 2, 32, 0
1, 4, Control_c, 3, 32, 0
1, 4, Control_c, 4, 32, 0
1, 4, Control_c, 5, 32, 0
1, 4, Control_c, 6, 32, 0
1, 4, Control_c, 7, 32, 0
1, 4, Control_c, 8, 32, 0
1, 4, Control_c, 9, 32, 0
1, 4, Control_c, 10, 32, 0
1, 4, Control_c, 11, 32, 0
1, 4, Control_c, 12, 32, 0
1, 4, Control_c, 13, 32, 0
1, 4, Control_c, 14, 32, 0
1, 4, Control_c, 15, 32, 0
1, 5, Program_c, 0, 0
1, 5, Program_c, 1, 0
1, 5, Program_c, 2, 0
1, 5, Program_c, 3, 0
1, 5, Program_c, 4, 0
1, 5, Program_c, 5, 0
1, 5, Program_c, 6, 0
1, 5, Program_c, 7, 0
1, 5, Program_c, 8, 0
1, 5, Program_c, 9, 0
1, 5, Program_c, 10, 0
1, 5, Program_c, 11, 0
1, 5, Program_c, 12, 0
1, 5, Program_c, 13, 0
1, 5, Program_c, 14, 0
1, 5, Program_c, 15, 0
1, 6, Control_c, 0, 7, 100
1, 6, Control_c, 1, 7, 100
1, 6, Control_c, 2, 7, 100
1, 6, Control_c, 3, 7, 100
1, 6, Control_c, 4, 7, 100
1, 6, Control_c, 5, 7, 100
1, 6, Control_c, 6, 7, 100
1, 6, Control_c, 7, 7, 100
1, 6, Control_c, 8, 7, 100
1, 6, Control_c, 9, 7, 100
1, 6, Control_c, 10, 7, 100
1, 6, Control_c, 11, 7, 100
1, 6, Control_c, 12, 7, 100
1, 6, Control_c, 13, 7, 100
1, 6, Control_c, 14, 7, 100
1, 6, Control_c, 15, 7, 100
1, 117, Control_c, 0, 64, 15
1, 117, Control_c, 0, 67, 15
1, 229, Control_c, 0, 64, 31
1, 229, Control_c, 0, 67, 31
1, 341, Control_c, 0, 64, 46
1, 341, Control_c, 0, 67, 46
1, 452, Control_c, 0, 64, 63
1, 452, Control_c, 0, 67, 63
1, 564, Control_c, 0, 64, 77
1, 564, Control_c, 0, 67, 77
1, 676, Control_c, 0, 64, 94
1, 676, Control_c, 0, 67, 94
1, 787, Control_c, 0, 64, 108
1, 787, Control_c, 0, 67, 108
1, 899, Control_c, 0, 64, 127
1, 899, Control_c, 0, 67, 127
1, 1137, Note_on_c, 0, 77, 37
1, 1138, Note_on_c, 0, 34, 33
1, 1139, Note_on_c, 0, 46, 33
1, 1153, Note_on_c, 0, 73, 37
1, 1821, Note_off_c, 0, 46, 29
1, 1988, Note_off_c, 0, 34, 30
1, 2235, Note_off_c, 0, 73, 32
1, 2257, Note_off_c, 0, 77, 33
1, 2864, Note_on_c, 0, 77, 50
1, 2876, Note_on_c, 0, 34, 37
1, 2886, Note_on_c, 0, 73, 44
1, 2890, Note_on_c, 0, 46, 27
1, 2925, Note_off_c, 0, 34, 56
1, 2937, Note_off_c, 0, 46, 49
1, 3056, Note_on_c, 0, 78, 70
1, 3064, Note_on_c, 0, 46, 38
1, 3065, Note_off_c, 0, 73, 58
1, 3070, Control_c, 0, 64, 103
1, 3073, Note_on_c, 0, 34, 29
1, 3076, Note_on_c, 0, 75, 54
1, 3081, Note_off_c, 0, 77, 53
1, 3085, Control_c, 0, 64, 79
1, 3100, Control_c, 0, 64, 60
1, 3115, Control_c, 0, 64, 0
1, 3174, Control_c, 0, 64, 40
1, 3189, Control_c, 0, 64, 58
1, 3210, Control_c, 0, 64, 67
1, 3225, Control_c, 0, 64, 78
1, 3240, Control_c, 0, 64, 92
1, 3243, Note_off_c, 0, 75, 52
1, 3249, Note_off_c, 0, 34, 0
1, 3249, Note_off_c, 0, 46, 0
1, 3255, Control_c, 0, 64, 114
1, 3270, Control_c, 0, 64, 127
1, 3275, Note_off_c, 0, 78, 60
1, 3286, Poly_aftertouch_c, 0, 34, 127
1, 3286, Poly_aftertouch_c, 0, 46, 127
1, 3752, Poly_aftertouch_c, 0, 46, 0
1, 3774, Poly_aftertouch_c, 0, 34, 0
1, 4115, Note_on_c, 0, 69, 62
1, 4119, Note_on_c, 0, 60, 51
1, 4132, Note_on_c, 0, 46, 37
1, 4134, Note_on_c, 0, 66, 43
1, 4136, Note_on_c, 0, 34, 34
1, 4136, Note_on_c, 0, 63, 44
1, 4443, Note_off_c, 0, 69, 37
1, 4447, Note_off_c, 0, 46, 32
1, 4492, Note_off_c, 0, 34, 30
1, 4560, Note_off_c, 0, 63, 44
1, 4566, Note_off_c, 0, 60, 40
1, 5228, Note_on_c, 0, 70, 50
1, 5237, Note_on_c, 0, 34, 34
1, 5242, Note_on_c, 0, 65, 45
1, 5247, Note_on_c, 0, 46, 31
1, 5253, Note_on_c, 0, 61, 31
1, 5272, Control_c, 0, 64, 112
1, 5287, Control_c, 0, 64, 96
1, 5290, Note_off_c, 0, 66, 43
1, 5302, Control_c, 0, 64, 83
1, 5316, Control_c, 0, 64, 71
1, 5331, Control_c, 0, 64, 58
1, 5345, Control_c, 0, 64, 0
1, 5486, Control_c, 0, 64, 33
1, 5501, Control_c, 0, 64, 53
1, 5516, Control_c, 0, 64, 62
1, 5530, Control_c, 0, 64, 67
1, 5545, Control_c, 0, 64, 72
1, 5560, Control_c, 0, 64, 78
1, 5575, Control_c, 0, 64, 85
1, 5590, Control_c, 0, 64, 92
1, 5604, Control_c, 0, 64, 99
1, 5615, Note_off_c, 0, 61, 38
1, 5619, Control_c, 0, 64, 105
1, 5634, Control_c, 0, 64, 114
1, 5649, Control_c, 0, 64, 127
1, 5650, Note_off_c, 0, 65, 34
1, 5674, Note_off_c, 0, 70, 24
1, 6309, Control_c, 0, 64, 114
1, 6319, Note_on_c, 0, 77, 66
1, 6322, Note_on_c, 0, 74, 49
1, 6324, Control_c, 0, 64, 103
1, 6339, Control_c, 0, 64, 92
1, 6353, Control_c, 0, 64, 80
1, 6368, Control_c, 0, 64, 67
1, 6383, Control_c, 0, 64, 45
1, 6398, Control_c, 0, 64, 0
1, 6457, Control_c, 0, 64, 34
1, 6472, Control_c, 0, 64, 54
1, 6487, Control_c, 0, 64, 64
1, 6501, Control_c, 0, 64, 71
1, 6516, Control_c, 0, 64, 79
1, 6516, Control_c, 0, 67, 124
1, 6531, Control_c, 0, 64, 87
1, 6531, Control_c, 0, 67, 120
1, 6546, Control_c, 0, 64, 94
1, 6546, Control_c, 0, 67, 115
1, 6560, Control_c, 0, 64, 101
1, 6560, Control_c, 0, 67, 108
1, 6575, Control_c, 0, 64, 109
1, 6575, Control_c, 0, 67, 102
1, 6590, Control_c, 0, 64, 119
1, 6590, Control_c, 0, 67, 94
1, 6605, Control_c, 0, 64, 127
1, 6605, Control_c, 0, 67, 85
1, 6620, Control_c, 0, 67, 75
1, 6636, Control_c, 0, 67, 66
1, 6650, Control_c, 0, 67, 59
1, 6665, Control_c, 0, 67, 55
1, 6680, Control_c, 0, 67, 53
1, 6695, Control_c, 0, 67, 51
1, 6710, Control_c, 0, 67, 49
1, 6724, Control_c, 0, 67, 47
1, 6739, Control_c, 0, 67, 46
1, 6754, Control_c, 0, 67, 46
1, 6769, Control_c, 0, 67, 45
1, 7196, Note_on_c, 0, 80, 68
1, 7206, Control_c, 0, 64, 120
1, 7211, Note_on_c, 0, 75, 54
1, 7221, Control_c, 0, 64, 107
1, 7236, Control_c, 0, 64, 97
1, 7250, Control_c, 0, 64, 86
1, 7257, Note_off_c, 0, 77, 51
1, 7264, Note_off_c, 0, 74, 32
1, 7265, Control_c, 0, 64, 76
1, 7280, Control_c, 0, 64, 68
1, 7280, Control_c, 0, 67, 46
1, 7295, Control_c, 0, 64, 59
1, 7309, Control_c, 0, 64, 42
1, 7324, Control_c, 0, 64, 0
1, 7444, Control_c, 0, 64, 21
1, 7444, Control_c, 0, 67, 46
1, 7459, Control_c, 0, 64, 46
1, 7473, Control_c, 0, 64, 58
1, 7488, Control_c, 0, 64, 63
1, 7503, Control_c, 0, 64, 67
1, 7518, Control_c, 0, 64, 71
1, 7533, Control_c, 0, 64, 78
1, 7547, Control_c, 0, 64, 84
1, 7563, Control_c, 0, 64, 91
1, 7563, Control_c, 0, 67, 47
1, 7578, Control_c, 0, 64, 97
1, 7578, Control_c, 0, 67, 47
1, 7593, Control_c, 0, 64, 103
1, 7593, Control_c, 0, 67, 48
1, 7607, Control_c, 0, 64, 110
1, 7607, Control_c, 0, 67, 49
1, 7622, Control_c, 0, 64, 127
1, 7622, Control_c, 0, 67, 49
1, 7637, Control_c, 0, 67, 50
1, 7652, Control_c, 0, 67, 51
1, 7667, Control_c, 0, 67, 52
1, 7681, Control_c, 0, 67, 53
1, 7704, Control_c, 0, 67, 54
1, 7719, Control_c, 0, 67, 55
1, 7733, Control_c, 0, 67, 56
1, 7748, Control_c, 0, 67, 59
1, 7763, Control_c, 0, 67, 64
1, 7778, Control_c, 0, 67, 68
1, 7793, Control_c, 0, 67, 73
1, 7807, Control_c, 0, 67, 78
1, 7822, Control_c, 0, 67, 83
1, 7837, Control_c, 0, 67, 88
1, 7852, Control_c, 0, 67, 94
1, 7867, Control_c, 0, 67, 99
1, 7881, Control_c, 0, 67, 105
1, 7896, Control_c, 0, 67, 108
1, 7911, Control_c, 0, 67, 112
1, 7926, Control_c, 0, 67, 115
1, 7941, Control_c, 0, 67, 118
1, 7956, Control_c, 0, 67, 122
1, 7970, Control_c, 0, 67, 125
1, 7985, Control_c, 0, 67, 127
1, 8138, Note_on_c, 0, 78, 52
1, 8148, Control_c, 0, 64, 114
1, 8163, Control_c, 0, 64, 102
1, 8178, Control_c, 0, 64, 94
1, 8192, Control_c, 0, 64, 86
1, 8207, Control_c, 0, 64, 78
1, 8223, Control_c, 0, 64, 70
1, 8233, Note_off_c, 0, 80, 60
1, 8238, Control_c, 0, 64, 60
1, 8253, Control_c, 0, 64, 40
1, 8268, Control_c, 0, 64, 0
1, 8342, Control_c, 0, 64, 19
1, 8356, Control_c, 0, 64, 41
1, 8371, Control_c, 0, 64, 55
1, 8386, Control_c, 0, 64, 63
1, 8401, Control_c, 0, 64, 67
1, 8416, Control_c, 0, 64, 72
1, 8430, Control_c, 0, 64, 78
1, 8453, Control_c, 0, 64, 85
1, 8468, Control_c, 0, 64, 91
1, 8483, Control_c, 0, 64, 98
1, 8498, Control_c, 0, 64, 103
1, 8512, Control_c, 0, 64, 108
1, 8527, Control_c, 0, 64, 114
1, 8542, Control_c, 0, 64, 127
1, 8593, Note_off_c, 0, 75, 35
1, 8599, Note_off_c, 0, 78, 36
1, 8765, Note_off_c, 0, 46, 37
1, 8767, Note_off_c, 0, 34, 34
1, 9276, Note_on_c, 0, 78, 67
1, 9293, Note_on_c, 0, 75, 55
1, 9306, Control_c, 0, 64, 121
1, 9314, Note_on_c, 0, 47, 35
1, 9316, Note_on_c, 0, 35, 36
1, 9321, Control_c, 0, 64, 107
1, 9335, Control_c, 0, 64, 95
1, 9350, Control_c, 0, 64, 85
1, 9365, Control_c, 0, 64, 74
1, 9379, Control_c, 0, 64, 63
1, 9394, Control_c, 0, 64, 40
1, 9409, Control_c, 0, 64, 0
1, 9468, Control_c, 0, 64, 28
1, 9483, Control_c, 0, 64, 46
1, 9497, Control_c, 0, 64, 58
1, 9512, Control_c, 0, 64, 64
1, 9527, Control_c, 0, 64, 69
1, 9542, Control_c, 0, 64, 74
1, 9557, Control_c, 0, 64, 81
1, 9571, Control_c, 0, 64, 88
1, 9586, Control_c, 0, 64, 95
1, 9601, Control_c, 0, 64, 102
1, 9616, Control_c, 0, 64, 114
1, 9631, Control_c, 0, 64, 127
1, 9940, Note_off_c, 0, 35, 37
1, 9991, Note_off_c, 0, 47, 42
1, 10759, Note_on_c, 0, 80, 68
1, 10765, Note_on_c, 0, 71, 49
1, 10780, Note_on_c, 0, 40, 37
1, 10781, Note_on_c, 0, 52, 36
1, 10818, Control_c, 0, 64, 109
1, 10828, Note_off_c, 0, 78, 50
1, 10832, Control_c, 0, 64, 94
1, 10839, Note_off_c, 0, 75, 41
1, 10847, Control_c, 0, 64, 81
1, 10862, Control_c, 0, 64, 67
1, 10877, Control_c, 0, 64, 49
1, 10892, Control_c, 0, 64, 0
1, 10981, Control_c, 0, 64, 23
1, 10996, Control_c, 0, 64, 51
1, 11011, Control_c, 0, 64, 62
1, 11025, Control_c, 0, 64, 68
1, 11040, Control_c, 0, 64, 76
1, 11055, Control_c, 0, 64, 85
1, 11070, Control_c, 0, 64, 92
1, 11085, Control_c, 0, 64, 99
1, 11099, Control_c, 0, 64, 106
1, 11114, Control_c, 0, 64, 115
1, 11129, Control_c, 0, 64, 127
1, 11355, Note_off_c, 0, 80, 59
1, 11377, Note_off_c, 0, 71, 35
1, 11431, Note_off_c, 0, 40, 39
1, 11518, Note_off_c, 0, 52, 38
1, 12109, Note_on_c, 0, 61, 61
1, 12123, Note_on_c, 0, 59, 52
1, 12128, Note_on_c, 0, 54, 43
1, 12135, Note_on_c, 0, 42, 43
1, 12188, Control_c, 0, 64, 110
1, 12211, Control_c, 0, 64, 95
1, 12227, Control_c, 0, 64, 82
1, 12242, Control_c, 0, 64, 70
1, 12257, Control_c, 0, 64, 56
1, 12271, Control_c, 0, 64, 0
1, 12390, Control_c, 0, 64, 35
1, 12404, Control_c, 0, 64, 56
1, 12419, Control_c, 0, 64, 64
1, 12434, Control_c, 0, 64, 70
1, 12449, Control_c, 0, 64, 78
1, 12464, Control_c, 0, 64, 86
1, 12478, Control_c, 0, 64, 96
1, 12493, Control_c, 0, 64, 105
1, 12508, Control_c, 0, 64, 118
1, 12522, Control_c, 0, 64, 127
1, 12878, Note_off_c, 0, 61, 36
1, 13428, Note_on_c, 0, 64, 60
1, 13443, Note_on_c, 0, 58, 49
1, 13447, Note_on_c, 0, 61, 45
1, 13479, Control_c, 0, 64, 109
1, 13494, Control_c, 0, 64, 95
1, 13500, Note_off_c, 0, 59, 53
1, 13509, Control_c, 0, 64, 84
1, 13524, Control_c, 0, 64, 72
1, 13538, Control_c, 0, 64, 62
1, 13553, Control_c, 0, 64, 42
1, 13568, Control_c, 0, 64, 0
1, 13709, Control_c, 0, 64, 36
1, 13724, Control_c, 0, 64, 56
1, 13739, Control_c, 0, 64, 64
1, 13753, Control_c, 0, 64, 70
1, 13768, Control_c, 0, 64, 76
1, 13783, Control_c, 0, 64, 82
1, 13798, Control_c, 0, 64, 88
1, 13813, Control_c, 0, 64, 93
1, 13828, Control_c, 0, 64, 98
1, 13843, Control_c, 0, 64, 104
1, 13858, Control_c, 0, 64, 113
1, 13873, Control_c, 0, 64, 127
1, 13986, Note_off_c, 0, 64, 47
1, 14150, Note_off_c, 0, 61, 56
1, 14153, Note_off_c, 0, 58, 36
1, 14330, Note_off_c, 0, 42, 36
1, 14369, Note_off_c, 0, 54, 35
1, 14829, Note_on_c, 0, 63, 61
1, 14830, Note_on_c, 0, 58, 55
1, 14834, Note_on_c, 0, 61, 57
1, 14850, Note_on_c, 0, 43, 50
1, 14854, Note_on_c, 0, 55, 40
1, 14873, Control_c, 0, 64, 104
1, 14888, Control_c, 0, 64, 86
1, 14903, Control_c, 0, 64, 71
1, 14917, Control_c, 0, 64, 53
1, 14932, Control_c, 0, 64, 0
1, 14977, Control_c, 0, 64, 24
1, 14991, Control_c, 0, 64, 45
1, 15006, Control_c, 0, 64, 57
1, 15021, Control_c, 0, 64, 64
1, 15036, Control_c, 0, 64, 71
1, 15051, Control_c, 0, 64, 78
1, 15065, Control_c, 0, 64, 86
1, 15080, Control_c, 0, 64, 91
1, 15095, Control_c, 0, 64, 95
1, 15110, Control_c, 0, 64, 99
1, 15125, Control_c, 0, 64, 102
1, 15140, Control_c, 0, 64, 105
1, 15154, Control_c, 0, 64, 108
1, 15169, Control_c, 0, 64, 111
1, 15191, Control_c, 0, 64, 112
1, 15206, Control_c, 0, 64, 113
1, 15217, Note_off_c, 0, 55, 53
1, 15221, Control_c, 0, 64, 113
1, 15236, Control_c, 0, 64, 115
1, 15251, Control_c, 0, 64, 116
1, 15258, Note_off_c, 0, 43, 38
1, 15265, Control_c, 0, 64, 118
1, 15280, Control_c, 0, 64, 119
1, 15295, Control_c, 0, 64, 120
1, 15310, Control_c, 0, 64, 120
1, 15324, Control_c, 0, 64, 121
1, 15339, Control_c, 0, 64, 122
1, 15354, Control_c, 0, 64, 123
1, 15369, Control_c, 0, 64, 125
1, 15384, Control_c, 0, 64, 127
1, 15563, Control_c, 0, 64, 121
1, 15578, Control_c, 0, 64, 112
1, 15593, Control_c, 0, 64, 102
1, 15601, Note_off_c, 0, 58, 56
1, 15608, Control_c, 0, 64, 87
1, 15609, Note_on_c, 0, 59, 48
1, 15614, Note_on_c, 0, 44, 40
1, 15620, Note_on_c, 0, 56, 35
1, 15622, Control_c, 0, 64, 73
1, 15637, Control_c, 0, 64, 56
1, 15652, Control_c, 0, 64, 0
1, 15770, Control_c, 0, 64, 49
1, 15777, Note_off_c, 0, 63, 35
1, 15785, Control_c, 0, 64, 62
1, 15800, Control_c, 0, 64, 71
1, 15814, Control_c, 0, 64, 81
1, 15829, Control_c, 0, 64, 92
1, 15844, Control_c, 0, 64, 101
1, 15858, Control_c, 0, 64, 108
1, 15873, Control_c, 0, 64, 118
1, 15888, Control_c, 0, 64, 127
1, 15895, Note_off_c, 0, 56, 47
1, 15956, Note_off_c, 0, 44, 55
1, 15957, Note_off_c, 0, 59, 55
1, 16374, Note_on_c, 0, 64, 56
1, 16389, Note_on_c, 0, 56, 42
1, 16389, Note_on_c, 0, 58, 48
1, 16406, Note_on_c, 0, 49, 39
1, 16412, Note_on_c, 0, 37, 32
1, 16415, Control_c, 0, 64, 112
1, 16424, Note_off_c, 0, 61, 37
1, 16430, Control_c, 0, 64, 97
1, 16445, Control_c, 0, 64, 84
1, 16460, Control_c, 0, 64, 71
1, 16475, Control_c, 0, 64, 52
1, 16489, Control_c, 0, 64, 0
1, 16594, Control_c, 0, 64, 34
1, 16609, Control_c, 0, 64, 55
1, 16624, Control_c, 0, 64, 63
1, 16638, Control_c, 0, 64, 67
1, 16653, Control_c, 0, 64, 72
1, 16668, Control_c, 0, 64, 77
1, 16683, Control_c, 0, 64, 81
1, 16705, Control_c, 0, 64, 85
1, 16719, Note_off_c, 0, 64, 29
1, 16719, Control_c, 0, 64, 88
1, 16734, Control_c, 0, 64, 90
1, 16749, Control_c, 0, 64, 92
1, 16759, Note_off_c, 0, 58, 35
1, 16764, Control_c, 0, 64, 95
1, 16776, Note_off_c, 0, 56, 31
1, 16779, Control_c, 0, 64, 97
1, 16794, Control_c, 0, 64, 99
1, 16809, Control_c, 0, 64, 99
1, 16839, Control_c, 0, 64, 100
1, 17135, Control_c, 0, 64, 99
1, 17180, Control_c, 0, 64, 99
1, 17209, Control_c, 0, 64, 98
1, 17224, Control_c, 0, 64, 98
1, 17239, Control_c, 0, 64, 97
1, 17254, Control_c, 0, 64, 96
1, 17268, Control_c, 0, 64, 95
1, 17283, Control_c, 0, 64, 93
1, 17297, Control_c, 0, 64, 91
1, 17300, Note_on_c, 0, 76, 52
1, 17311, Control_c, 0, 64, 86
1, 17326, Control_c, 0, 64, 80
1, 17341, Control_c, 0, 64, 73
1, 17356, Control_c, 0, 64, 65
1, 17371, Control_c, 0, 64, 54
1, 17385, Control_c, 0, 64, 28
1, 17400, Control_c, 0, 64, 0
1, 17497, Control_c, 0, 64, 31
1, 17511, Control_c, 0, 64, 50
1, 17526, Control_c, 0, 64, 59
1, 17541, Control_c, 0, 64, 64
1, 17556, Control_c, 0, 64, 67
1, 17571, Control_c, 0, 64, 71
1, 17585, Control_c, 0, 64, 76
1, 17600, Control_c, 0, 64, 81
1, 17615, Control_c, 0, 64, 86
1, 17630, Control_c, 0, 64, 90
1, 17645, Control_c, 0, 64, 92
1, 17659, Control_c, 0, 64, 95
1, 17674, Control_c, 0, 64, 97
1, 17689, Control_c, 0, 64, 99
1, 17704, Control_c, 0, 64, 101
1, 17718, Control_c, 0, 64, 102
1, 17733, Control_c, 0, 64, 103
1, 17736, Note_off_c, 0, 37, 36
1, 17748, Control_c, 0, 64, 104
1, 17763, Control_c, 0, 64, 104
1, 17778, Control_c, 0, 64, 105
1, 17793, Control_c, 0, 64, 105
1, 17808, Control_c, 0, 64, 106
1, 17843, Note_off_c, 0, 76, 32
1, 17847, Note_off_c, 0, 49, 44
1, 18164, Control_c, 0, 64, 105
1, 18186, Control_c, 0, 64, 103
1, 18201, Control_c, 0, 64, 98
1, 18216, Control_c, 0, 64, 91
1, 18221, Note_on_c, 0, 51, 42
1, 18231, Control_c, 0, 64, 82
1, 18233, Note_on_c, 0, 39, 35
1, 18246, Control_c, 0, 64, 73
1, 18260, Control_c, 0, 64, 64
1, 18275, Control_c, 0, 64, 47
1, 18290, Control_c, 0, 64, 0
1, 19056, Note_on_c, 0, 58, 46
1, 19065, Note_on_c, 0, 56, 37
1, 19217, Control_c, 0, 64, 12
1, 19231, Control_c, 0, 64, 36
1, 19246, Control_c, 0, 64, 47
1, 19261, Control_c, 0, 64, 55
1, 19276, Control_c, 0, 64, 59
1, 19290, Control_c, 0, 64, 62
1, 19305, Control_c, 0, 64, 65
1, 19320, Control_c, 0, 64, 68
1, 19335, Control_c, 0, 64, 71
1, 19350, Control_c, 0, 64, 74
1, 19364, Control_c, 0, 64, 77
1, 19379, Control_c, 0, 64, 79
1, 19394, Control_c, 0, 64, 82
1, 19410, Control_c, 0, 64, 85
1, 19425, Control_c, 0, 64, 88
1, 19440, Control_c, 0, 64, 90
1, 19447, Note_off_c, 0, 51, 36
1, 19449, Note_off_c, 0, 39, 39
1, 19454, Control_c, 0, 64, 93
1, 19469, Control_c, 0, 64, 94
1, 19484, Control_c, 0, 64, 96
1, 19499, Control_c, 0, 64, 97
1, 19513, Control_c, 0, 64, 98
1, 19528, Control_c, 0, 64, 99
1, 19543, Control_c, 0, 64, 101
1, 19558, Control_c, 0, 64, 102
1, 19573, Control_c, 0, 64, 103
1, 19587, Control_c, 0, 64, 103
1, 19602, Control_c, 0, 64, 104
1, 19632, Control_c, 0, 64, 105
1, 19662, Control_c, 0, 64, 105
1, 19980, Control_c, 0, 64, 105
1, 19995, Control_c, 0, 64, 103
1, 20010, Control_c, 0, 64, 99
1, 20010, Note_on_c, 0, 51, 36
1, 20025, Note_on_c, 0, 39, 35
1, 20025, Control_c, 0, 64, 92
1, 20037, Note_off_c, 0, 56, 55
1, 20039, Control_c, 0, 64, 83
1, 20045, Note_off_c, 0, 58, 62
1, 20054, Control_c, 0, 64, 74
1, 20069, Control_c, 0, 64, 64
1, 20084, Control_c, 0, 64, 37
1, 20099, Control_c, 0, 64, 0
1, 20714, Control_c, 0, 64, 24
1, 20729, Control_c, 0, 64, 40
1, 20744, Control_c, 0, 64, 50
1, 20759, Control_c, 0, 64, 55
1, 20773, Control_c, 0, 64, 59
1, 20788, Control_c, 0, 64, 61
1, 20803, Control_c, 0, 64, 63
1, 20818, Control_c, 0, 64, 65
1, 20833, Control_c, 0, 64, 68
1, 20848, Control_c, 0, 64, 71
1, 20862, Control_c, 0, 64, 73
1, 20877, Control_c, 0, 64, 76
1, 20892, Control_c, 0, 64, 77
1, 20907, Control_c, 0, 64, 79
1, 20922, Control_c, 0, 64, 80
1, 20936, Control_c, 0, 64, 81
1, 20951, Control_c, 0, 64, 82
1, 20966, Control_c, 0, 64, 83
1, 20981, Control_c, 0, 64, 84
1, 20996, Control_c, 0, 64, 84
1, 21012, Control_c, 0, 64, 85
1, 21026, Control_c, 0, 64, 86
1, 21032, Note_on_c, 0, 63, 41
1, 21036, Note_on_c, 0, 58, 37
1, 21040, Note_on_c, 0, 55, 37
1, 21041, Control_c, 0, 64, 86
1, 21056, Control_c, 0, 64, 87
1, 21115, Control_c, 0, 64, 87
1, 21315, Control_c, 0, 64, 88
1, 21345, Control_c, 0, 64, 88
1, 21359, Control_c, 0, 64, 89
1, 21374, Control_c, 0, 64, 89
1, 21389, Control_c, 0, 64, 90
1, 21404, Control_c, 0, 64, 91
1, 21419, Control_c, 0, 64, 92
1, 21432, Note_off_c, 0, 39, 35
1, 21433, Control_c, 0, 64, 92
1, 21448, Control_c, 0, 64, 93
1, 21450, Note_off_c, 0, 51, 41
1, 21463, Control_c, 0, 64, 94
1, 21477, Control_c, 0, 64, 95
1, 21492, Control_c, 0, 64, 96
1, 21507, Control_c, 0, 64, 97
1, 21522, Control_c, 0, 64, 97
1, 21566, Control_c, 0, 64, 98
1, 21700, Control_c, 0, 64, 98
1, 22113, Note_off_c, 0, 55, 36
1, 22123, Control_c, 0, 64, 98
1, 22168, Control_c, 0, 64, 97
1, 22182, Control_c, 0, 64, 96
1, 22192, Note_off_c, 0, 63, 27
1, 22197, Control_c, 0, 64, 95
1, 22204, Note_on_c, 0, 39, 37
1, 22212, Control_c, 0, 64, 92
1, 22220, Note_off_c, 0, 58, 39
1, 22227, Control_c, 0, 64, 90
1, 22242, Control_c, 0, 64, 86
1, 22256, Control_c, 0, 64, 82
1, 22271, Control_c, 0, 64, 76
1, 22286, Control_c, 0, 64, 68
1, 22300, Control_c, 0, 64, 59
1, 22315, Control_c, 0, 64, 38
1, 22330, Control_c, 0, 64, 0
1, 22419, Control_c, 0, 64, 23
1, 22434, Control_c, 0, 64, 42
1, 22449, Control_c, 0, 64, 54
1, 22464, Control_c, 0, 64, 60
1, 22479, Control_c, 0, 64, 63
1, 22493, Control_c, 0, 64, 65
1, 22508, Control_c, 0, 64, 67
1, 22519, Note_on_c, 0, 43, 43
1, 22523, Control_c, 0, 64, 70
1, 22538, Control_c, 0, 64, 74
1, 22553, Control_c, 0, 64, 79
1, 22568, Control_c, 0, 64, 83
1, 22582, Control_c, 0, 64, 86
1, 22598, Control_c, 0, 64, 89
1, 22613, Control_c, 0, 64, 92
1, 22628, Control_c, 0, 64, 95
1, 22642, Control_c, 0, 64, 99
1, 22657, Control_c, 0, 64, 102
1, 22666, Note_on_c, 0, 46, 51
1, 22679, Control_c, 0, 64, 105
1, 22694, Control_c, 0, 64, 109
1, 22709, Control_c, 0, 64, 113
1, 22715, Note_off_c, 0, 39, 32
1, 22724, Control_c, 0, 64, 120
1, 22738, Control_c, 0, 64, 127
1, 22741, Note_off_c, 0, 43, 38
1, 22759, Note_off_c, 0, 46, 61
1, 22795, Note_on_c, 0, 49, 53
1, 22876, Note_off_c, 0, 49, 58
1, 22893, Note_on_c, 0, 51, 51
1, 22974, Note_on_c, 0, 55, 56
1, 22991, Control_c, 0, 67, 127
1, 23000, Note_off_c, 0, 51, 0
1, 23005, Control_c, 0, 67, 124
1, 23020, Control_c, 0, 67, 122
1, 23035, Control_c, 0, 67, 120
1, 23037, Poly_aftertouch_c, 0, 51, 127
1, 23048, Note_off_c, 0, 55, 55
1, 23049, Control_c, 0, 67, 117
1, 23064, Control_c, 0, 67, 114
1, 23066, Note_on_c, 0, 58, 57
1, 23079, Control_c, 0, 67, 109
1, 23094, Control_c, 0, 67, 104
1, 23109, Control_c, 0, 67, 98
1, 23123, Control_c, 0, 67, 93
1, 23138, Control_c, 0, 67, 88
1, 23153, Control_c, 0, 67, 83
1, 23154, Note_on_c, 0, 61, 60
1, 23163, Note_off_c, 0, 58, 61
1, 23168, Control_c, 0, 67, 78
1, 23183, Control_c, 0, 67, 73
1, 23197, Control_c, 0, 67, 70
1, 23212, Control_c, 0, 67, 67
1, 23227, Control_c, 0, 67, 66
1, 23242, Control_c, 0, 67, 65
1, 23243, Note_off_c, 0, 61, 62
1, 23257, Control_c, 0, 67, 63
1, 23263, Note_on_c, 0, 63, 62
1, 23271, Control_c, 0, 67, 62
1, 23287, Control_c, 0, 67, 60
1, 23296, Note_off_c, 0, 63, 65
1, 23302, Control_c, 0, 67, 58
1, 23317, Control_c, 0, 67, 56
1, 23331, Control_c, 0, 67, 55
1, 23346, Control_c, 0, 67, 55
1, 23361, Control_c, 0, 67, 54
1, 23380, Note_on_c, 0, 67, 66
1, 23391, Control_c, 0, 67, 54
1, 23459, Control_c, 0, 67, 53
1, 23474, Control_c, 0, 67, 53
1, 23488, Control_c, 0, 67, 52
1, 23503, Control_c, 0, 67, 50
1, 23516, Note_off_c, 0, 67, 56
1, 23518, Control_c, 0, 67, 46
1, 23524, Note_on_c, 0, 70, 69
1, 23533, Control_c, 0, 67, 43
1, 23548, Control_c, 0, 67, 41
1, 23562, Control_c, 0, 67, 39
1, 23577, Control_c, 0, 67, 37
1, 23592, Control_c, 0, 67, 35
1, 23607, Control_c, 0, 67, 32
1, 23622, Control_c, 0, 67, 30
1, 23636, Control_c, 0, 67, 28
1, 23651, Control_c, 0, 67, 27
1, 23666, Control_c, 0, 67, 25
1, 23680, Control_c, 0, 67, 24
1, 23695, Control_c, 0, 67, 23
1, 23710, Control_c, 0, 67, 21
1, 23725, Control_c, 0, 67, 20
1, 23740, Control_c, 0, 67, 19
1, 23754, Control_c, 0, 67, 19
1, 23769, Control_c, 0, 67, 18
1, 23784, Control_c, 0, 67, 17
1, 23799, Control_c, 0, 67, 17
1, 23814, Control_c, 0, 67, 16
1, 23829, Control_c, 0, 67, 15
1, 23844, Control_c, 0, 67, 14
1, 23859, Control_c, 0, 67, 13
1, 23873, Control_c, 0, 67, 12
1, 23874, Poly_aftertouch_c, 0, 51, 0
1, 23888, Control_c, 0, 67, 11
1, 23903, Control_c, 0, 67, 9
1, 23918, Control_c, 0, 67, 9
1, 23933, Control_c, 0, 67, 8
1, 23947, Control_c, 0, 67, 8
1, 23962, Control_c, 0, 67, 0
1, 23970, Note_on_c, 0, 73, 69
1, 24065, Note_off_c, 0, 70, 57
1, 25163, Control_c, 0, 67, 8
1, 25178, Control_c, 0, 67, 9
1, 25193, Control_c, 0, 67, 11
1, 25207, Control_c, 0, 67, 13
1, 25222, Control_c, 0, 67, 16
1, 25237, Control_c, 0, 67, 20
1, 25251, Control_c, 0, 67, 26
1, 25266, Control_c, 0, 67, 31
1, 25281, Control_c, 0, 67, 36
1, 25296, Control_c, 0, 67, 40
1, 25311, Control_c, 0, 67, 42
1, 25325, Control_c, 0, 67, 43
1, 25340, Control_c, 0, 67, 43
1, 25355, Control_c, 0, 67, 44
1, 25370, Control_c, 0, 67, 44
1, 25400, Control_c, 0, 67, 45
1, 25430, Control_c, 0, 67, 46
1, 25444, Control_c, 0, 67, 47
1, 25459, Control_c, 0, 67, 50
1, 25474, Control_c, 0, 67, 52
1, 25489, Control_c, 0, 67, 55
1, 25504, Control_c, 0, 67, 58
1, 25518, Control_c, 0, 67, 59
1, 25533, Control_c, 0, 67, 62
1, 25548, Control_c, 0, 67, 66
1, 25563, Control_c, 0, 67, 70
1, 25578, Control_c, 0, 67, 74
1, 25592, Control_c, 0, 67, 77
1, 25607, Control_c, 0, 67, 79
1, 25622, Control_c, 0, 67, 81
1, 25637, Control_c, 0, 67, 83
1, 25651, Control_c, 0, 67, 85
1, 25674, Control_c, 0, 67, 87
1, 25689, Control_c, 0, 67, 88
1, 26035, Note_on_c, 0, 70, 54
1, 26357, Control_c, 0, 67, 87
1, 26401, Control_c, 0, 67, 87
1, 26512, Control_c, 0, 67, 86
1, 26571, Control_c, 0, 67, 86
1, 26586, Note_on_c, 0, 68, 64
1, 26705, Control_c, 0, 67, 85
1, 27002, Control_c, 0, 67, 85
1, 27217, Control_c, 0, 67, 84
1, 27588, Control_c, 0, 67, 84
1, 27625, Note_on_c, 0, 67, 44
1, 27692, Note_off_c, 0, 68, 54
1, 27970, Note_off_c, 0, 73, 37
1, 28019, Note_off_c, 0, 70, 35
1, 28248, Control_c, 0, 67, 84
1, 28322, Control_c, 0, 67, 85
1, 28351, Control_c, 0, 67, 85
1, 28396, Control_c, 0, 67, 86
1, 28425, Control_c, 0, 67, 87
1, 28580, Note_on_c, 0, 70, 50
1, 28588, Control_c, 0, 67, 87
1, 28647, Control_c, 0, 67, 88
1, 28831, Note_on_c, 0, 73, 71
1, 28846, Note_off_c, 0, 67, 31
1, 28950, Control_c, 0, 67, 88
1, 29136, Note_on_c, 0, 76, 66
1, 29178, Note_off_c, 0, 73, 62
1, 29203, Note_off_c, 0, 70, 42
1, 29263, Control_c, 0, 67, 89
1, 29566, Control_c, 0, 67, 89
1, 29578, Note_on_c, 0, 75, 52
1, 29596, Control_c, 0, 67, 90
1, 29611, Control_c, 0, 67, 90
1, 29619, Note_off_c, 0, 76, 58
1, 29625, Control_c, 0, 67, 93
1, 29640, Control_c, 0, 67, 96
1, 29655, Control_c, 0, 67, 99
1, 29670, Control_c, 0, 67, 101
1, 29685, Control_c, 0, 67, 104
1, 29699, Control_c, 0, 67, 107
1, 29714, Control_c, 0, 67, 108
1, 29729, Control_c, 0, 67, 110
1, 29744, Control_c, 0, 67, 112
1, 29746, Note_off_c, 0, 75, 62
1, 29759, Control_c, 0, 67, 114
1, 29773, Control_c, 0, 67, 115
1, 29789, Control_c, 0, 67, 117
1, 29804, Control_c, 0, 67, 118
1, 29819, Control_c, 0, 67, 120
1, 29834, Control_c, 0, 67, 122
1, 29849, Control_c, 0, 67, 123
1, 29863, Control_c, 0, 67, 125
1, 29878, Control_c, 0, 67, 126
1, 29893, Control_c, 0, 67, 127
1, 30184, Note_on_c, 0, 70, 55
1, 30645, Note_on_c, 0, 73, 51
1, 30658, Note_on_c, 0, 56, 38
1, 30658, Note_on_c, 0, 59, 35
1, 30701, Control_c, 0, 64, 111
1, 30716, Control_c, 0, 64, 96
1, 30720, Note_off_c, 0, 70, 54
1, 30731, Control_c, 0, 64, 80
1, 30745, Control_c, 0, 64, 68
1, 30760, Control_c, 0, 64, 51
1, 30774, Control_c, 0, 64, 0
1, 30915, Control_c, 0, 64, 16
1, 30930, Control_c, 0, 64, 46
1, 30944, Control_c, 0, 64, 59
1, 30959, Control_c, 0, 64, 64
1, 30974, Control_c, 0, 64, 67
1, 30989, Control_c, 0, 64, 71
1, 31004, Control_c, 0, 64, 75
1, 31019, Control_c, 0, 64, 80
1, 31034, Control_c, 0, 64, 85
1, 31049, Control_c, 0, 64, 89
1, 31063, Control_c, 0, 64, 92
1, 31078, Control_c, 0, 64, 96
1, 31093, Control_c, 0, 64, 99
1, 31108, Control_c, 0, 64, 102
1, 31123, Control_c, 0, 64, 105
1, 31137, Control_c, 0, 64, 109
1, 31152, Control_c, 0, 64, 113
1, 31167, Control_c, 0, 64, 117
1, 31182, Control_c, 0, 64, 123
1, 31196, Control_c, 0, 64, 127
1, 31252, Note_on_c, 0, 71, 41
1, 31331, Note_off_c, 0, 73, 48
1, 31341, Note_off_c, 0, 59, 40
1, 31350, Note_off_c, 0, 71, 60
1, 31365, Note_off_c, 0, 56, 42
1, 31859, Note_on_c, 0, 59, 63
1, 31862, Note_on_c, 0, 56, 56
1, 31874, Note_on_c, 0, 40, 42
1, 31879, Note_on_c, 0, 52, 39
1, 31886, Control_c, 0, 64, 106
1, 31901, Control_c, 0, 64, 87
1, 31916, Control_c, 0, 64, 73
1, 31931, Control_c, 0, 64, 66
1, 31946, Control_c, 0, 64, 65
1, 31960, Control_c, 0, 64, 67
1, 31960, Control_c, 0, 67, 125
1, 31975, Control_c, 0, 64, 69
1, 31975, Control_c, 0, 67, 122
1, 31990, Control_c, 0, 64, 73
1, 31990, Control_c, 0, 67, 118
1, 32005, Control_c, 0, 64, 79
1, 32005, Control_c, 0, 67, 113
1, 32019, Control_c, 0, 64, 86
1, 32019, Control_c, 0, 67, 105
1, 32034, Control_c, 0, 64, 94
1, 32034, Control_c, 0, 67, 96
1, 32049, Control_c, 0, 64, 105
1, 32049, Control_c, 0, 67, 86
1, 32064, Control_c, 0, 64, 121
1, 32064, Control_c, 0, 67, 76
1, 32079, Control_c, 0, 64, 127
1, 32079, Control_c, 0, 67, 64
1, 32083, Note_off_c, 0, 40, 39
1, 32093, Control_c, 0, 67, 54
1, 32108, Control_c, 0, 67, 44
1, 32117, Note_off_c, 0, 52, 40
1, 32123, Control_c, 0, 67, 36
1, 32138, Control_c, 0, 67, 30
1, 32153, Control_c, 0, 67, 25
1, 32167, Control_c, 0, 67, 21
1, 32183, Control_c, 0, 67, 17
1, 32198, Control_c, 0, 67, 12
1, 32213, Control_c, 0, 67, 8
1, 32228, Control_c, 0, 67, 0
1, 32557, Note_on_c, 0, 57, 69
1, 32572, Note_on_c, 0, 37, 44
1, 32582, Note_on_c, 0, 49, 45
1, 32584, Note_on_c, 0, 52, 51
1, 32605, Control_c, 0, 64, 109
1, 32606, Note_off_c, 0, 56, 56
1, 32620, Control_c, 0, 64, 87
1, 32634, Control_c, 0, 64, 69
1, 32649, Note_off_c, 0, 59, 47
1, 32649, Control_c, 0, 64, 54
1, 32664, Control_c, 0, 64, 46
1, 32679, Control_c, 0, 64, 50
1, 32694, Control_c, 0, 64, 55
1, 32709, Control_c, 0, 64, 60
1, 32724, Control_c, 0, 64, 65
1, 32739, Control_c, 0, 64, 71
1, 32754, Control_c, 0, 64, 78
1, 32754, Control_c, 0, 67, 8
1, 32769, Control_c, 0, 64, 88
1, 32769, Control_c, 0, 67, 8
1, 32783, Control_c, 0, 64, 98
1, 32783, Control_c, 0, 67, 9
1, 32798, Control_c, 0, 64, 107
1, 32798, Control_c, 0, 67, 10
1, 32813, Control_c, 0, 64, 120
1, 32813, Control_c, 0, 67, 12
1, 32828, Control_c, 0, 64, 127
1, 32828, Control_c, 0, 67, 13
1, 32842, Control_c, 0, 67, 15
1, 32857, Control_c, 0, 67, 19
1, 32872, Control_c, 0, 67, 24
1, 32876, Note_off_c, 0, 57, 59
1, 32887, Control_c, 0, 67, 28
1, 32902, Control_c, 0, 67, 33
1, 32910, Note_off_c, 0, 37, 37
1, 32916, Control_c, 0, 67, 38
1, 32931, Control_c, 0, 67, 41
1, 32946, Control_c, 0, 67, 44
1, 32947, Note_off_c, 0, 49, 42
1, 32961, Control_c, 0, 67, 47
1, 32976, Control_c, 0, 67, 51
1, 32992, Control_c, 0, 67, 54
1, 33006, Control_c, 0, 67, 56
1, 33022, Control_c, 0, 67, 58
1, 33037, Control_c, 0, 67, 59
1, 33052, Control_c, 0, 67, 60
1, 33052, Note_off_c, 0, 52, 35
1, 33066, Control_c, 0, 67, 62
1, 33081, Control_c, 0, 67, 64
1, 33096, Control_c, 0, 67, 66
1, 33111, Control_c, 0, 67, 67
1, 33126, Control_c, 0, 67, 67
1, 33140, Control_c, 0, 67, 68
1, 33162, Control_c, 0, 67, 69
1, 33177, Control_c, 0, 67, 70
1, 33192, Control_c, 0, 67, 72
1, 33207, Control_c, 0, 67, 73
1, 33222, Control_c, 0, 67, 74
1, 33237, Control_c, 0, 67, 75
1, 33252, Control_c, 0, 67, 76
1, 33266, Control_c, 0, 67, 77
1, 33281, Control_c, 0, 67, 80
1, 33296, Control_c, 0, 67, 81
1, 33311, Control_c, 0, 67, 83
1, 33326, Control_c, 0, 67, 84
1, 33340, Control_c, 0, 67, 86
1, 33355, Control_c, 0, 67, 87
1, 33370, Control_c, 0, 67, 88
1, 33384, Control_c, 0, 67, 90
1, 33399, Control_c, 0, 67, 91
1, 33414, Control_c, 0, 67, 92
1, 33429, Control_c, 0, 67, 93
1, 33432, Note_on_c, 0, 57, 69
1, 33444, Control_c, 0, 67, 94
1, 33445, Note_on_c, 0, 51, 55
1, 33448, Note_on_c, 0, 54, 60
1, 33450, Note_on_c, 0, 47, 44
1, 33454, Note_on_c, 0, 35, 43
1, 33458, Control_c, 0, 64, 108
1, 33458, Control_c, 0, 67, 95
1, 33473, Control_c, 0, 64, 92
1, 33473, Control_c, 0, 67, 97
1, 33488, Control_c, 0, 64, 76
1, 33488, Control_c, 0, 67, 100
1, 33503, Control_c, 0, 64, 63
1, 33503, Control_c, 0, 67, 103
1, 33518, Control_c, 0, 64, 37
1, 33518, Control_c, 0, 67, 105
1, 33533, Control_c, 0, 64, 0
1, 33533, Control_c, 0, 67, 107
1, 33547, Control_c, 0, 67, 107
1, 33562, Control_c, 0, 67, 108
1, 33577, Control_c, 0, 67, 109
1, 33591, Control_c, 0, 67, 110
1, 33606, Control_c, 0, 64, 27
1, 33606, Control_c, 0, 67, 111
1, 33621, Control_c, 0, 64, 52
1, 33621, Control_c, 0, 67, 113
1, 33636, Control_c, 0, 64, 63
1, 33636, Control_c, 0, 67, 114
1, 33651, Control_c, 0, 64, 69
1, 33651, Control_c, 0, 67, 116
1, 33666, Control_c, 0, 64, 76
1, 33666, Control_c, 0, 67, 118
1, 33681, Control_c, 0, 64, 86
1, 33681, Control_c, 0, 67, 121
1, 33696, Control_c, 0, 64, 94
1, 33696, Control_c, 0, 67, 123
1, 33711, Control_c, 0, 64, 101
1, 33711, Control_c, 0, 67, 125
1, 33725, Control_c, 0, 64, 109
1, 33725, Control_c, 0, 67, 127
1, 33740, Note_off_c, 0, 35, 41
1, 33740, Control_c, 0, 64, 122
1, 33755, Control_c, 0, 64, 127
1, 33833, Note_off_c, 0, 57, 52
1, 33847, Note_off_c, 0, 47, 43
1, 33898, Note_off_c, 0, 51, 33
1, 33962, Note_off_c, 0, 54, 54
1, 34598, Note_on_c, 0, 47, 36
1, 34599, Note_on_c, 0, 57, 28
1, 34602, Note_on_c, 0, 54, 34
1, 34609, Note_on_c, 0, 51, 35
1, 34632, Note_on_c, 0, 69, 51
1, 34849, Note_off_c, 0, 69, 41
1, 34992, Note_on_c, 0, 81, 75
1, 35832, Note_off_c, 0, 81, 33
1, 36379, Note_on_c, 0, 81, 65
1, 36826, Note_off_c, 0, 81, 39
1, 37070, Note_on_c, 0, 81, 36
1, 37325, Note_off_c, 0, 81, 44
1, 37428, Note_on_c, 0, 81, 68
1, 37568, Note_off_c, 0, 81, 60
1, 37800, Note_on_c, 0, 81, 27
1, 37986, Note_off_c, 0, 81, 41
1, 38313, Note_on_c, 0, 81, 54
1, 39338, Note_off_c, 0, 81, 36
1, 39845, Note_on_c, 0, 81, 29
1, 40112, Note_off_c, 0, 81, 44
1, 40279, Note_on_c, 0, 81, 63
1, 40496, Note_off_c, 0, 81, 50
1, 40746, Note_on_c, 0, 81, 34
1, 40880, Note_off_c, 0, 81, 44
1, 41008, Note_on_c, 0, 81, 66
1, 41119, Note_off_c, 0, 81, 58
1, 41269, Note_on_c, 0, 81, 29
1, 41315, Note_off_c, 0, 81, 48
1, 41464, Note_on_c, 0, 81, 75
1, 41544, Note_off_c, 0, 81, 62
1, 41674, Note_on_c, 0, 81, 49
1, 41703, Note_off_c, 0, 81, 58
1, 41857, Note_on_c, 0, 81, 80
1, 41929, Note_off_c, 0, 81, 64
1, 41980, Note_off_c, 0, 47, 41
1, 42012, Note_off_c, 0, 57, 40
1, 42017, Note_off_c, 0, 54, 48
1, 42030, Note_off_c, 0, 51, 42
1, 42061, Note_on_c, 0, 81, 55
1, 42095, Note_off_c, 0, 81, 66
1, 42274, Note_on_c, 0, 81, 80
1, 42283, Note_on_c, 0, 59, 54
1, 42288, Note_on_c, 0, 54, 45
1, 42294, Note_on_c, 0, 51, 43
1, 42302, Note_on_c, 0, 47, 41
1, 42364, Note_off_c, 0, 81, 63
1, 42528, Note_on_c, 0, 81, 38
1, 42580, Note_off_c, 0, 81, 54
1, 42751, Note_on_c, 0, 81, 69
1, 42814, Note_off_c, 0, 81, 62
1, 42993, Note_on_c, 0, 81, 29
1, 43086, Note_off_c, 0, 81, 42
1, 43235, Note_on_c, 0, 81, 54
1, 43312, Note_off_c, 0, 81, 57
1, 43574, Note_on_c, 0, 81, 12
1, 43715, Note_off_c, 0, 81, 44
1, 43908, Note_on_c, 0, 81, 44
1, 44120, Note_off_c, 0, 81, 33
1, 44360, Note_on_c, 0, 81, 24
1, 44755, Note_off_c, 0, 81, 40
1, 45190, Note_on_c, 0, 81, 26
1, 46749, Note_on_c, 0, 78, 51
1, 47390, Note_on_c, 0, 75, 56
1, 47539, Note_off_c, 0, 81, 42
1, 47561, Note_off_c, 0, 78, 51
1, 47896, Note_on_c, 0, 69, 61
1, 47966, Note_off_c, 0, 75, 57
1, 48410, Note_on_c, 0, 73, 64
1, 48505, Note_off_c, 0, 69, 60
1, 48508, Control_c, 0, 64, 110
1, 48523, Control_c, 0, 64, 91
1, 48538, Control_c, 0, 64, 75
1, 48552, Control_c, 0, 64, 62
1, 48567, Control_c, 0, 64, 44
1, 48582, Control_c, 0, 64, 40
1, 48597, Control_c, 0, 64, 44
1, 48612, Control_c, 0, 64, 50
1, 48627, Control_c, 0, 64, 55
1, 48642, Control_c, 0, 64, 60
1, 48656, Control_c, 0, 64, 64
1, 48671, Control_c, 0, 64, 69
1, 48686, Control_c, 0, 64, 75
1, 48701, Control_c, 0, 64, 83
1, 48716, Control_c, 0, 64, 89
1, 48730, Control_c, 0, 64, 93
1, 48746, Control_c, 0, 64, 97
1, 48761, Control_c, 0, 64, 100
1, 48776, Control_c, 0, 64, 103
1, 48790, Control_c, 0, 64, 107
1, 48805, Control_c, 0, 64, 110
1, 48820, Control_c, 0, 64, 113
1, 48835, Control_c, 0, 64, 115
1, 48850, Control_c, 0, 64, 118
1, 48864, Control_c, 0, 64, 120
1, 48886, Control_c, 0, 64, 127
1, 48986, Note_on_c, 0, 71, 52
1, 49065, Control_c, 0, 64, 111
1, 49066, Note_off_c, 0, 73, 49
1, 49080, Control_c, 0, 64, 96
1, 49095, Control_c, 0, 64, 82
1, 49110, Control_c, 0, 64, 69
1, 49125, Control_c, 0, 64, 57
1, 49139, Control_c, 0, 64, 45
1, 49154, Control_c, 0, 64, 47
1, 49169, Control_c, 0, 64, 53
1, 49184, Control_c, 0, 64, 59
1, 49199, Control_c, 0, 64, 62
1, 49213, Control_c, 0, 64, 65
1, 49228, Control_c, 0, 64, 69
1, 49243, Control_c, 0, 64, 74
1, 49258, Control_c, 0, 64, 80
1, 49273, Control_c, 0, 64, 86
1, 49287, Control_c, 0, 64, 90
1, 49302, Control_c, 0, 64, 94
1, 49317, Control_c, 0, 64, 98
1, 49331, Control_c, 0, 64, 101
1, 49344, Note_off_c, 0, 71, 58
1, 49346, Control_c, 0, 64, 104
1, 49361, Control_c, 0, 64, 106
1, 49376, Control_c, 0, 64, 108
1, 49391, Control_c, 0, 64, 110
1, 49405, Control_c, 0, 64, 111
1, 49420, Control_c, 0, 64, 112
1, 49435, Control_c, 0, 64, 113
1, 49465, Control_c, 0, 64, 114
1, 49480, Control_c, 0, 64, 115
1, 49494, Control_c, 0, 64, 116
1, 49509, Control_c, 0, 64, 118
1, 49524, Control_c, 0, 64, 121
1, 49538, Control_c, 0, 64, 127
1, 49587, Note_on_c, 0, 69, 47
1, 49748, Note_off_c, 0, 47, 40
1, 49785, Note_off_c, 0, 51, 35
1, 49789, Note_off_c, 0, 54, 31
1, 49852, Note_off_c, 0, 69, 36
1, 49930, Note_off_c, 0, 59, 37
1, 50278, Note_on_c, 0, 68, 50
1, 50287, Control_c, 0, 64, 120
1, 50293, Note_on_c, 0, 59, 39
1, 50296, Note_on_c, 0, 52, 34
1, 50296, Note_on_c, 0, 56, 35
1, 50302, Control_c, 0, 64, 106
1, 50317, Control_c, 0, 64, 92
1, 50332, Control_c, 0, 64, 80
1, 50347, Control_c, 0, 64, 68
1, 50361, Control_c, 0, 64, 55
1, 50376, Control_c, 0, 64, 23
1, 50398, Control_c, 0, 64, 0
1, 50457, Control_c, 0, 64, 27
1, 50472, Control_c, 0, 64, 44
1, 50487, Control_c, 0, 64, 56
1, 50502, Control_c, 0, 64, 63
1, 50517, Control_c, 0, 64, 67
1, 50532, Control_c, 0, 64, 71
1, 50547, Control_c, 0, 64, 76
1, 50562, Control_c, 0, 64, 82
1, 50577, Control_c, 0, 64, 86
1, 50591, Control_c, 0, 64, 90
1, 50606, Control_c, 0, 64, 93
1, 50621, Control_c, 0, 64, 96
1, 50636, Control_c, 0, 64, 99
1, 50651, Control_c, 0, 64, 101
1, 50666, Control_c, 0, 64, 105
1, 50681, Control_c, 0, 64, 108
1, 50696, Control_c, 0, 64, 112
1, 50711, Control_c, 0, 64, 115
1, 50714, Note_off_c, 0, 68, 59
1, 50726, Control_c, 0, 64, 119
1, 50740, Control_c, 0, 64, 123
1, 50743, Note_off_c, 0, 52, 35
1, 50755, Control_c, 0, 64, 127
1, 50884, Note_off_c, 0, 59, 39
1, 51036, Note_on_c, 0, 76, 77
1, 51100, Note_off_c, 0, 56, 39
1, 51548, Control_c, 0, 64, 107
1, 51563, Control_c, 0, 64, 87
1, 51578, Control_c, 0, 64, 71
1, 51578, Control_c, 0, 67, 127
1, 51593, Note_on_c, 0, 58, 74
1, 51593, Control_c, 0, 64, 53
1, 51593, Control_c, 0, 67, 121
1, 51603, Note_on_c, 0, 49, 61
1, 51603, Note_on_c, 0, 55, 66
1, 51607, Control_c, 0, 64, 19
1, 51607, Control_c, 0, 67, 114
1, 51608, Note_on_c, 0, 52, 61
1, 51622, Control_c, 0, 64, 25
1, 51622, Control_c, 0, 67, 103
1, 51637, Control_c, 0, 64, 45
1, 51637, Control_c, 0, 67, 89
1, 51652, Control_c, 0, 64, 58
1, 51652, Control_c, 0, 67, 71
1, 51667, Control_c, 0, 64, 63
1, 51667, Control_c, 0, 67, 52
1, 51681, Control_c, 0, 64, 68
1, 51681, Control_c, 0, 67, 35
1, 51696, Control_c, 0, 64, 76
1, 51696, Control_c, 0, 67, 23
1, 51711, Control_c, 0, 64, 86
1, 51711, Control_c, 0, 67, 17
1, 51725, Control_c, 0, 64, 98
1, 51725, Control_c, 0, 67, 16
1, 51740, Control_c, 0, 64, 113
1, 51740, Control_c, 0, 67, 15
1, 51755, Control_c, 0, 64, 127
1, 51755, Control_c, 0, 67, 13
1, 51770, Control_c, 0, 67, 10
1, 51772, Note_off_c, 0, 49, 52
1, 51785, Control_c, 0, 67, 0
1, 51798, Note_off_c, 0, 58, 59
1, 51823, Note_off_c, 0, 55, 60
1, 51827, Note_off_c, 0, 52, 59
1, 52084, Note_on_c, 0, 67, 78
1, 52133, Control_c, 0, 67, 8
1, 52147, Control_c, 0, 67, 9
1, 52163, Control_c, 0, 67, 9
1, 52178, Control_c, 0, 67, 10
1, 52183, Note_off_c, 0, 76, 56
1, 52208, Control_c, 0, 67, 10
1, 52223, Control_c, 0, 67, 11
1, 52297, Control_c, 0, 67, 11
1, 52403, Note_off_c, 0, 67, 53
1, 52579, Control_c, 0, 67, 11
1, 52639, Note_on_c, 0, 71, 78
1, 52645, Note_on_c, 0, 59, 70
1, 52645, Control_c, 0, 64, 121
1, 52647, Note_on_c, 0, 53, 60
1, 52648, Note_on_c, 0, 56, 64
1, 52656, Note_on_c, 0, 50, 60
1, 52660, Control_c, 0, 64, 89
1, 52675, Control_c, 0, 64, 68
1, 52675, Control_c, 0, 67, 12
1, 52690, Control_c, 0, 64, 0
1, 52690, Control_c, 0, 67, 13
1, 52705, Control_c, 0, 67, 14
1, 52720, Control_c, 0, 67, 16
1, 52735, Control_c, 0, 67, 18
1, 52750, Control_c, 0, 67, 22
1, 52764, Control_c, 0, 67, 28
1, 52779, Control_c, 0, 64, 12
1, 52779, Control_c, 0, 67, 36
1, 52794, Control_c, 0, 64, 54
1, 52794, Control_c, 0, 67, 44
1, 52809, Control_c, 0, 64, 64
1, 52809, Control_c, 0, 67, 52
1, 52824, Control_c, 0, 64, 72
1, 52824, Control_c, 0, 67, 61
1, 52838, Control_c, 0, 64, 81
1, 52838, Control_c, 0, 67, 67
1, 52853, Control_c, 0, 64, 90
1, 52853, Control_c, 0, 67, 72
1, 52868, Control_c, 0, 64, 100
1, 52868, Control_c, 0, 67, 75
1, 52882, Control_c, 0, 64, 113
1, 52882, Control_c, 0, 67, 79
1, 52897, Control_c, 0, 64, 127
1, 52897, Control_c, 0, 67, 83
1, 52912, Control_c, 0, 67, 87
1, 52927, Control_c, 0, 67, 91
1, 52942, Control_c, 0, 67, 95
1, 52958, Control_c, 0, 67, 98
1, 52973, Control_c, 0, 67, 101
1, 52987, Control_c, 0, 67, 104
1, 53002, Control_c, 0, 67, 107
1, 53017, Control_c, 0, 67, 112
1, 53032, Control_c, 0, 67, 116
1, 53047, Control_c, 0, 67, 120
1, 53061, Control_c, 0, 67, 124
1, 53076, Control_c, 0, 67, 127
1, 53091, Control_c, 0, 67, 127
1, 53230, Note_off_c, 0, 71, 55
1, 53925, Note_off_c, 0, 59, 23
1, 53964, Note_off_c, 0, 53, 32
1, 53986, Note_off_c, 0, 56, 36
1, 54025, Note_off_c, 0, 50, 39
1, 54242, Note_on_c, 0, 70, 65
1, 54291, Control_c, 0, 64, 107
1, 54306, Control_c, 0, 64, 85
1, 54321, Control_c, 0, 64, 69
1, 54335, Control_c, 0, 64, 48
1, 54350, Control_c, 0, 64, 0
1, 54424, Control_c, 0, 64, 23
1, 54439, Control_c, 0, 64, 55
1, 54454, Control_c, 0, 64, 66
1, 54469, Control_c, 0, 64, 73
1, 54483, Control_c, 0, 64, 83
1, 54498, Control_c, 0, 64, 95
1, 54513, Control_c, 0, 64, 108
1, 54527, Control_c, 0, 64, 127
1, 54722, Note_off_c, 0, 70, 58
1, 55071, Note_on_c, 0, 68, 66
1, 55157, Control_c, 0, 64, 109
1, 55172, Control_c, 0, 64, 88
1, 55187, Control_c, 0, 64, 74
1, 55202, Control_c, 0, 64, 61
1, 55217, Control_c, 0, 64, 30
1, 55231, Control_c, 0, 64, 0
1, 55246, Control_c, 0, 64, 16
1, 55261, Control_c, 0, 64, 38
1, 55275, Control_c, 0, 64, 51
1, 55290, Control_c, 0, 64, 59
1, 55305, Control_c, 0, 64, 65
1, 55320, Control_c, 0, 64, 70
1, 55335, Control_c, 0, 64, 78
1, 55351, Control_c, 0, 64, 88
1, 55366, Control_c, 0, 64, 96
1, 55380, Control_c, 0, 64, 104
1, 55395, Control_c, 0, 64, 111
1, 55410, Control_c, 0, 64, 127
1, 55981, Note_on_c, 0, 67, 52
1, 56049, Note_off_c, 0, 68, 53
1, 56054, Control_c, 0, 64, 117
1, 56069, Control_c, 0, 64, 100
1, 56084, Control_c, 0, 64, 87
1, 56098, Control_c, 0, 64, 74
1, 56113, Control_c, 0, 64, 59
1, 56128, Control_c, 0, 64, 19
1, 56144, Control_c, 0, 64, 0
1, 56321, Control_c, 0, 64, 30
1, 56336, Control_c, 0, 64, 51
1, 56351, Control_c, 0, 64, 60
1, 56374, Control_c, 0, 64, 64
1, 56389, Control_c, 0, 64, 66
1, 56403, Control_c, 0, 64, 70
1, 56418, Control_c, 0, 64, 74
1, 56433, Control_c, 0, 64, 79
1, 56448, Control_c, 0, 64, 85
1, 56463, Control_c, 0, 64, 89
1, 56477, Control_c, 0, 64, 93
1, 56492, Control_c, 0, 64, 97
1, 56507, Control_c, 0, 64, 100
1, 56521, Control_c, 0, 64, 104
1, 56536, Control_c, 0, 64, 109
1, 56551, Control_c, 0, 64, 115
1, 56566, Control_c, 0, 64, 125
1, 56581, Control_c, 0, 64, 127
1, 57245, Note_on_c, 0, 68, 47
1, 57291, Note_off_c, 0, 67, 53
1, 57330, Control_c, 0, 64, 113
1, 57344, Control_c, 0, 64, 93
1, 57359, Control_c, 0, 64, 74
1, 57374, Control_c, 0, 64, 59
1, 57389, Control_c, 0, 64, 23
1, 57404, Control_c, 0, 64, 0
1, 57418, Control_c, 0, 64, 24
1, 57433, Control_c, 0, 64, 42
1, 57448, Control_c, 0, 64, 55
1, 57463, Control_c, 0, 64, 62
1, 57477, Control_c, 0, 64, 67
1, 57492, Control_c, 0, 64, 73
1, 57507, Control_c, 0, 64, 80
1, 57522, Control_c, 0, 64, 87
1, 57537, Control_c, 0, 64, 94
1, 57552, Control_c, 0, 64, 98
1, 57567, Control_c, 0, 64, 102
1, 57582, Control_c, 0, 64, 106
1, 57590, Note_off_c, 0, 68, 58
1, 57597, Control_c, 0, 64, 109
1, 57611, Control_c, 0, 64, 113
1, 57626, Control_c, 0, 64, 115
1, 57641, Control_c, 0, 64, 118
1, 57656, Control_c, 0, 64, 121
1, 57670, Control_c, 0, 64, 127
1, 57922, Note_on_c, 0, 68, 43
1, 57960, Control_c, 0, 64, 125
1, 57975, Control_c, 0, 64, 116
1, 57990, Control_c, 0, 64, 110
1, 58005, Control_c, 0, 64, 103
1, 58020, Control_c, 0, 64, 96
1, 58035, Control_c, 0, 64, 90
1, 58049, Control_c, 0, 64, 84
1, 58064, Control_c, 0, 64, 77
1, 58079, Control_c, 0, 64, 70
1, 58093, Control_c, 0, 64, 63
1, 58108, Control_c, 0, 64, 53
1, 58123, Control_c, 0, 64, 47
1, 58138, Control_c, 0, 64, 45
1, 58167, Control_c, 0, 64, 46
1, 58182, Control_c, 0, 64, 49
1, 58197, Control_c, 0, 64, 52
1, 58212, Control_c, 0, 64, 56
1, 58227, Control_c, 0, 64, 60
1, 58241, Control_c, 0, 64, 62
1, 58256, Control_c, 0, 64, 65
1, 58271, Control_c, 0, 64, 67
1, 58286, Control_c, 0, 64, 70
1, 58300, Control_c, 0, 64, 73
1, 58315, Control_c, 0, 64, 77
1, 58330, Control_c, 0, 64, 80
1, 58345, Control_c, 0, 64, 82
1, 58360, Control_c, 0, 64, 84
1, 58375, Control_c, 0, 64, 87
1, 58389, Control_c, 0, 64, 89
1, 58404, Control_c, 0, 64, 92
1, 58419, Control_c, 0, 64, 95
1, 58434, Control_c, 0, 64, 97
1, 58449, Control_c, 0, 64, 98
1, 58464, Control_c, 0, 64, 99
1, 58479, Control_c, 0, 64, 101
1, 58494, Control_c, 0, 64, 103
1, 58509, Control_c, 0, 64, 105
1, 58524, Control_c, 0, 64, 107
1, 58539, Control_c, 0, 64, 108
1, 58554, Control_c, 0, 64, 110
1, 58569, Control_c, 0, 64, 111
1, 58584, Control_c, 0, 64, 113
1, 58598, Control_c, 0, 64, 113
1, 58613, Control_c, 0, 64, 114
1, 58636, Control_c, 0, 64, 114
1, 58651, Control_c, 0, 64, 115
1, 58680, Control_c, 0, 64, 116
1, 58695, Control_c, 0, 64, 117
1, 58710, Control_c, 0, 64, 118
1, 58724, Control_c, 0, 64, 118
1, 58784, Control_c, 0, 64, 119
1, 59535, Note_on_c, 0, 63, 38
1, 59562, Control_c, 0, 64, 118
1, 59621, Control_c, 0, 64, 118
1, 59636, Control_c, 0, 64, 116
1, 59651, Control_c, 0, 64, 114
1, 59666, Control_c, 0, 64, 111
1, 59680, Control_c, 0, 64, 108
1, 59695, Control_c, 0, 64, 103
1, 59710, Control_c, 0, 64, 99
1, 59725, Control_c, 0, 64, 93
1, 59740, Control_c, 0, 64, 88
1, 59755, Control_c, 0, 64, 81
1, 59770, Control_c, 0, 64, 74
1, 59784, Note_off_c, 0, 68, 41
1, 59785, Control_c, 0, 64, 67
1, 59799, Control_c, 0, 64, 59
1, 59814, Control_c, 0, 64, 47
1, 59829, Control_c, 0, 64, 41
1, 59873, Control_c, 0, 64, 42
1, 59888, Control_c, 0, 64, 45
1, 59903, Control_c, 0, 64, 49
1, 59918, Control_c, 0, 64, 54
1, 59933, Control_c, 0, 64, 58
1, 59947, Control_c, 0, 64, 61
1, 59962, Control_c, 0, 64, 64
1, 59976, Control_c, 0, 64, 67
1, 59991, Control_c, 0, 64, 70
1, 60006, Control_c, 0, 64, 75
1, 60020, Control_c, 0, 64, 79
1, 60035, Control_c, 0, 64, 83
1, 60050, Control_c, 0, 64, 87
1, 60065, Control_c, 0, 64, 90
1, 60080, Control_c, 0, 64, 92
1, 60095, Control_c, 0, 64, 95
1, 60117, Control_c, 0, 64, 98
1, 60132, Control_c, 0, 64, 100
1, 60148, Control_c, 0, 64, 102
1, 60163, Control_c, 0, 64, 103
1, 60177, Control_c, 0, 64, 105
1, 60192, Control_c, 0, 64, 106
1, 60207, Control_c, 0, 64, 107
1, 60222, Control_c, 0, 64, 109
1, 60226, Note_off_c, 0, 63, 36
1, 60237, Control_c, 0, 64, 110
1, 60251, Control_c, 0, 64, 111
1, 60266, Control_c, 0, 64, 112
1, 60281, Control_c, 0, 64, 113
1, 60295, Control_c, 0, 64, 113
1, 60310, Control_c, 0, 64, 114
1, 60325, Control_c, 0, 64, 115
1, 60340, Control_c, 0, 64, 115
1, 60369, Control_c, 0, 64, 116
1, 60384, Control_c, 0, 64, 116
1, 60399, Control_c, 0, 64, 117
1, 60414, Control_c, 0, 64, 117
1, 60488, Control_c, 0, 64, 118
1, 61283, Note_on_c, 0, 63, 31
1, 61309, Note_on_c, 0, 51, 21
1, 61550, Note_off_c, 0, 51, 40
1, 61557, Note_off_c, 0, 63, 40
1, 61819, Note_on_c, 0, 63, 28
1, 61825, Note_on_c, 0, 51, 30
1, 61993, Note_off_c, 0, 63, 39
1, 62007, Note_off_c, 0, 51, 38
1, 62223, Note_on_c, 0, 63, 35
1, 62224, Note_on_c, 0, 51, 29
1, 62375, Note_off_c, 0, 63, 36
1, 62385, Note_off_c, 0, 51, 35
1, 62611, Note_on_c, 0, 51, 34
1, 62620, Note_on_c, 0, 63, 35
1, 62742, Note_off_c, 0, 63, 36
1, 62751, Control_c, 0, 64, 118
1, 62770, Note_off_c, 0, 51, 35
1, 62795, Control_c, 0, 64, 119
1, 62825, Control_c, 0, 64, 120
1, 62869, Control_c, 0, 64, 120
1, 62972, Control_c, 0, 64, 121
1, 63001, Note_on_c, 0, 51, 33
1, 63003, Note_on_c, 0, 63, 43
1, 63017, Control_c, 0, 64, 122
1, 63031, Control_c, 0, 64, 125
1, 63046, Control_c, 0, 64, 127
1, 63102, Note_off_c, 0, 63, 38
1, 63139, Note_off_c, 0, 51, 33
1, 63368, Note_on_c, 0, 51, 44
1, 63381, Note_on_c, 0, 63, 45
1, 63447, Note_off_c, 0, 51, 53
1, 63466, Note_off_c, 0, 63, 52
1, 63761, Note_on_c, 0, 47, 45
1, 63761, Note_on_c, 0, 63, 51
1, 63771, Note_on_c, 0, 59, 42
1, 63780, Note_on_c, 0, 51, 32
1, 63908, Note_off_c, 0, 47, 35
1, 63913, Note_off_c, 0, 59, 31
1, 63940, Note_off_c, 0, 51, 36
1, 63952, Note_off_c, 0, 63, 35
1, 64138, Note_on_c, 0, 63, 47
1, 64146, Note_on_c, 0, 47, 47
1, 64149, Note_on_c, 0, 59, 39
1, 64156, Note_on_c, 0, 51, 36
1, 64244, Note_off_c, 0, 47, 52
1, 64244, Note_off_c, 0, 59, 39
1, 64250, Note_off_c, 0, 63, 53
1, 64286, Note_off_c, 0, 51, 31
1, 64501, Note_on_c, 0, 63, 51
1, 64506, Note_on_c, 0, 47, 44
1, 64507, Note_on_c, 0, 59, 44
1, 64520, Note_on_c, 0, 51, 38
1, 64584, Note_off_c, 0, 59, 50
1, 64620, Note_off_c, 0, 51, 37
1, 64621, Note_off_c, 0, 63, 56
1, 64636, Note_off_c, 0, 47, 35
1, 64887, Note_on_c, 0, 47, 46
1, 64887, Note_on_c, 0, 59, 54
1, 64888, Note_on_c, 0, 63, 57
1, 64892, Note_on_c, 0, 51, 42
1, 65032, Note_off_c, 0, 47, 33
1, 65041, Note_off_c, 0, 51, 30
1, 65044, Note_off_c, 0, 59, 29
1, 65069, Note_off_c, 0, 63, 32
1, 65159, Control_c, 0, 67, 124
1, 65174, Control_c, 0, 67, 119
1, 65189, Control_c, 0, 67, 112
1, 65204, Control_c, 0, 67, 103
1, 65219, Control_c, 0, 67, 93
1, 65234, Control_c, 0, 67, 83
1, 65249, Control_c, 0, 67, 73
1, 65255, Note_on_c, 0, 63, 57
1, 65256, Note_on_c, 0, 59, 59
1, 65263, Control_c, 0, 67, 64
1, 65264, Note_on_c, 0, 47, 50
1, 65271, Note_on_c, 0, 51, 45
1, 65278, Control_c, 0, 67, 56
1, 65293, Control_c, 0, 67, 50
1, 65308, Control_c, 0, 67, 44
1, 65323, Control_c, 0, 67, 40
1, 65338, Control_c, 0, 67, 36
1, 65359, Control_c, 0, 67, 35
1, 65374, Control_c, 0, 67, 34
1, 65389, Control_c, 0, 67, 34
1, 65394, Note_off_c, 0, 47, 47
1, 65404, Control_c, 0, 67, 33
1, 65419, Control_c, 0, 67, 32
1, 65422, Note_off_c, 0, 63, 53
1, 65433, Control_c, 0, 67, 31
1, 65439, Note_off_c, 0, 51, 39
1, 65439, Note_off_c, 0, 59, 37
1, 65448, Control_c, 0, 67, 28
1, 65463, Control_c, 0, 67, 26
1, 65478, Control_c, 0, 67, 24
1, 65493, Control_c, 0, 67, 22
1, 65508, Control_c, 0, 67, 19
1, 65523, Control_c, 0, 67, 15
1, 65538, Control_c, 0, 67, 12
1, 65553, Control_c, 0, 67, 8
1, 65567, Control_c, 0, 67, 0
1, 65650, Note_on_c, 0, 63, 59
1, 65651, Note_on_c, 0, 59, 63
1, 65654, Note_on_c, 0, 51, 49
1, 65656, Note_on_c, 0, 47, 51
1, 65847, Note_off_c, 0, 63, 55
1, 65849, Note_off_c, 0, 47, 41
1, 65849, Note_off_c, 0, 59, 38
1, 65858, Note_off_c, 0, 51, 41
1, 66092, Note_on_c, 0, 63, 60
1, 66094, Note_on_c, 0, 51, 54
1, 66112, Note_on_c, 0, 47, 50
1, 66113, Note_on_c, 0, 56, 55
1, 66117, Note_on_c, 0, 44, 45
1, 66117, Note_on_c, 0, 59, 56
1, 66301, Control_c, 0, 67, 8
1, 66316, Control_c, 0, 67, 8
1, 66331, Control_c, 0, 67, 9
1, 66345, Control_c, 0, 67, 9
1, 66347, Note_off_c, 0, 44, 37
1, 66356, Note_off_c, 0, 59, 38
1, 66356, Note_off_c, 0, 63, 53
1, 66358, Note_off_c, 0, 47, 32
1, 66366, Note_off_c, 0, 56, 37
1, 66375, Control_c, 0, 67, 10
1, 66379, Note_off_c, 0, 51, 31
1, 66420, Control_c, 0, 67, 10
1, 66449, Control_c, 0, 67, 11
1, 66464, Control_c, 0, 67, 11
1, 66479, Control_c, 0, 67, 12
1, 66508, Control_c, 0, 67, 12
1, 66523, Control_c, 0, 67, 13
1, 66539, Control_c, 0, 67, 14
1, 66554, Control_c, 0, 67, 15
1, 66557, Note_on_c, 0, 63, 53
1, 66569, Control_c, 0, 67, 17
1, 66575, Note_on_c, 0, 56, 43
1, 66581, Note_on_c, 0, 59, 53
1, 66582, Note_on_c, 0, 51, 36
1, 66584, Control_c, 0, 67, 18
1, 66596, Note_on_c, 0, 44, 28
1, 66596, Note_on_c, 0, 47, 40
1, 66599, Control_c, 0, 67, 21
1, 66613, Control_c, 0, 67, 23
1, 66628, Control_c, 0, 67, 26
1, 66643, Control_c, 0, 67, 30
1, 66658, Control_c, 0, 67, 34
1, 66673, Control_c, 0, 67, 39
1, 66687, Control_c, 0, 67, 42
1, 66702, Control_c, 0, 67, 45
1, 66717, Control_c, 0, 67, 49
1, 66719, Note_off_c, 0, 59, 36
1, 66727, Note_off_c, 0, 63, 48
1, 66731, Control_c, 0, 67, 53
1, 66745, Note_off_c, 0, 44, 28
1, 66746, Control_c, 0, 67, 57
1, 66751, Note_off_c, 0, 56, 41
1, 66757, Note_off_c, 0, 51, 40
1, 66761, Control_c, 0, 67, 61
1, 66762, Note_off_c, 0, 47, 25
1, 66776, Control_c, 0, 67, 64
1, 66791, Control_c, 0, 67, 66
1, 66805, Control_c, 0, 67, 68
1, 66820, Control_c, 0, 67, 70
1, 66835, Control_c, 0, 67, 73
1, 66857, Control_c, 0, 67, 76
1, 66872, Control_c, 0, 67, 78
1, 66887, Control_c, 0, 67, 80
1, 66902, Control_c, 0, 67, 82
1, 66917, Control_c, 0, 67, 85
1, 66931, Control_c, 0, 67, 87
1, 66946, Control_c, 0, 67, 90
1, 66961, Control_c, 0, 67, 93
1, 66971, Note_on_c, 0, 63, 46
1, 66976, Control_c, 0, 67, 97
1, 66989, Note_on_c, 0, 56, 39
1, 66991, Control_c, 0, 67, 102
1, 66995, Note_on_c, 0, 59, 51
1, 67001, Note_on_c, 0, 51, 20
1, 67006, Control_c, 0, 67, 107
1, 67020, Note_on_c, 0, 47, 23
1, 67020, Control_c, 0, 67, 111
1, 67026, Note_on_c, 0, 44, 12
1, 67035, Control_c, 0, 67, 115
1, 67050, Control_c, 0, 67, 120
1, 67064, Control_c, 0, 67, 125
1, 67079, Control_c, 0, 67, 127
1, 67087, Note_off_c, 0, 47, 40
1, 67093, Note_off_c, 0, 59, 38
1, 67099, Note_off_c, 0, 44, 37
1, 67109, Note_off_c, 0, 56, 32
1, 67109, Note_off_c, 0, 63, 54
1, 67117, Note_off_c, 0, 51, 28
1, 67368, Note_on_c, 0, 63, 41
1, 67383, Note_on_c, 0, 56, 33
1, 67386, Note_on_c, 0, 51, 26
1, 67389, Note_on_c, 0, 59, 41
1, 67402, Note_on_c, 0, 47, 31
1, 67407, Note_on_c, 0, 44, 23
1, 67468, Note_off_c, 0, 59, 47
1, 67497, Note_off_c, 0, 47, 34
1, 67505, Note_off_c, 0, 56, 31
1, 67524, Note_off_c, 0, 63, 36
1, 67533, Note_off_c, 0, 51, 37
1, 67536, Note_off_c, 0, 44, 27
1, 67778, Note_on_c, 0, 63, 34
1, 67781, Note_on_c, 0, 51, 21
1, 67787, Note_on_c, 0, 56, 22
1, 67797, Note_on_c, 0, 44, 20
1, 67799, Note_on_c, 0, 59, 35
1, 67816, Note_on_c, 0, 47, 25
1, 67878, Note_off_c, 0, 47, 43
1, 67883, Note_off_c, 0, 59, 37
1, 67886, Note_off_c, 0, 56, 36
1, 67906, Note_off_c, 0, 44, 29
1, 67931, Note_off_c, 0, 63, 31
1, 67955, Note_off_c, 0, 51, 37
1, 68180, Note_on_c, 0, 51, 22
1, 68221, Note_on_c, 0, 63, 25
1, 68232, Note_on_c, 0, 47, 21
1, 68235, Note_on_c, 0, 44, 10
1, 68239, Note_on_c, 0, 56, 24
1, 68247, Note_on_c, 0, 59, 16
1, 68289, Note_off_c, 0, 56, 48
1, 68292, Note_off_c, 0, 59, 50
1, 68302, Note_off_c, 0, 47, 42
1, 68314, Note_off_c, 0, 63, 38
1, 68323, Note_off_c, 0, 44, 34
1, 68381, Note_off_c, 0, 51, 39
1, 68708, Note_on_c, 0, 75, 72
1, 68757, Note_on_c, 0, 47, 30
1, 68763, Note_on_c, 0, 51, 22
1, 68763, Note_on_c, 0, 44, 22
1, 68769, Control_c, 0, 64, 97
1, 68784, Control_c, 0, 64, 78
1, 68799, Control_c, 0, 64, 60
1, 68814, Control_c, 0, 64, 0
1, 68917, Control_c, 0, 64, 39
1, 68933, Control_c, 0, 64, 59
1, 68948, Control_c, 0, 64, 67
1, 68963, Control_c, 0, 64, 74
1, 68978, Control_c, 0, 64, 81
1, 68993, Control_c, 0, 64, 88
1, 69007, Control_c, 0, 64, 96
1, 69021, Note_off_c, 0, 47, 39
1, 69022, Control_c, 0, 64, 104
1, 69034, Note_off_c, 0, 51, 38
1, 69037, Control_c, 0, 64, 113
1, 69043, Note_off_c, 0, 44, 34
1, 69051, Control_c, 0, 64, 127
1, 69273, Note_on_c, 0, 51, 30
1, 69275, Note_on_c, 0, 47, 33
1, 69289, Note_on_c, 0, 44, 21
1, 69347, Note_off_c, 0, 47, 50
1, 69390, Note_off_c, 0, 44, 34
1, 69394, Note_off_c, 0, 51, 31
1, 69670, Note_on_c, 0, 44, 25
1, 69673, Note_on_c, 0, 47, 30
1, 69673, Note_on_c, 0, 51, 24
1, 69756, Note_off_c, 0, 47, 40
1, 69791, Note_off_c, 0, 44, 31
1, 69791, Note_off_c, 0, 51, 33
1, 70052, Note_on_c, 0, 47, 36
1, 70055, Note_on_c, 0, 51, 29
1, 70061, Note_on_c, 0, 44, 28
1, 70109, Note_off_c, 0, 47, 55
1, 70127, Note_off_c, 0, 44, 39
1, 70154, Note_off_c, 0, 51, 34
1, 70427, Note_on_c, 0, 51, 33
1, 70440, Note_on_c, 0, 47, 36
1, 70441, Note_on_c, 0, 44, 30
1, 70497, Note_off_c, 0, 47, 53
1, 70526, Note_off_c, 0, 51, 36
1, 70531, Note_off_c, 0, 44, 34
1, 70809, Note_on_c, 0, 73, 71
1, 70825, Note_on_c, 0, 44, 31
1, 70841, Note_on_c, 0, 47, 33
1, 70843, Note_on_c, 0, 51, 22
1, 70904, Note_off_c, 0, 47, 51
1, 70912, Note_off_c, 0, 75, 50
1, 70942, Note_off_c, 0, 51, 32
1, 70954, Note_off_c, 0, 44, 30
1, 71148, Control_c, 0, 64, 103
1, 71163, Control_c, 0, 64, 81
1, 71178, Control_c, 0, 64, 63
1, 71192, Control_c, 0, 64, 0
1, 71207, Note_on_c, 0, 47, 35
1, 71213, Note_on_c, 0, 44, 28
1, 71213, Note_on_c, 0, 51, 28
1, 71267, Control_c, 0, 64, 33
1, 71282, Control_c, 0, 64, 53
1, 71297, Control_c, 0, 64, 63
1, 71312, Control_c, 0, 64, 70
1, 71327, Control_c, 0, 64, 80
1, 71350, Control_c, 0, 64, 89
1, 71365, Control_c, 0, 64, 96
1, 71380, Control_c, 0, 64, 102
1, 71395, Control_c, 0, 64, 108
1, 71405, Note_off_c, 0, 47, 32
1, 71407, Note_off_c, 0, 44, 37
1, 71409, Control_c, 0, 64, 115
1, 71416, Note_off_c, 0, 51, 40
1, 71424, Control_c, 0, 64, 127
1, 71580, Note_on_c, 0, 51, 30
1, 71586, Note_on_c, 0, 47, 31
1, 71596, Note_on_c, 0, 44, 26
1, 71654, Note_off_c, 0, 47, 49
1, 71667, Note_off_c, 0, 44, 39
1, 71678, Note_off_c, 0, 51, 37
1, 71917, Note_on_c, 0, 71, 65
1, 71934, Note_on_c, 0, 51, 32
1, 71941, Note_on_c, 0, 44, 28
1, 71944, Note_on_c, 0, 47, 30
1, 72000, Note_off_c, 0, 73, 57
1, 72061, Note_off_c, 0, 44, 31
1, 72072, Note_off_c, 0, 47, 30
1, 72102, Note_off_c, 0, 51, 27
1, 72340, Note_on_c, 0, 70, 65
1, 72350, Control_c, 0, 64, 100
1, 72365, Control_c, 0, 64, 84
1, 72370, Note_on_c, 0, 51, 28
1, 72376, Note_on_c, 0, 47, 31
1, 72380, Control_c, 0, 64, 65
1, 72392, Note_on_c, 0, 44, 18
1, 72395, Control_c, 0, 64, 28
1, 72397, Note_off_c, 0, 71, 63
1, 72410, Control_c, 0, 64, 0
1, 72483, Control_c, 0, 64, 27
1, 72498, Control_c, 0, 64, 53
1, 72513, Control_c, 0, 64, 63
1, 72528, Control_c, 0, 64, 68
1, 72543, Control_c, 0, 64, 74
1, 72558, Control_c, 0, 64, 79
1, 72573, Control_c, 0, 64, 86
1, 72575, Note_off_c, 0, 47, 40
1, 72588, Control_c, 0, 64, 90
1, 72602, Control_c, 0, 64, 95
1, 72603, Note_off_c, 0, 44, 38
1, 72603, Note_off_c, 0, 51, 40
1, 72617, Control_c, 0, 64, 99
1, 72632, Control_c, 0, 64, 102
1, 72647, Control_c, 0, 64, 107
1, 72662, Control_c, 0, 64, 112
1, 72676, Control_c, 0, 64, 116
1, 72691, Control_c, 0, 64, 120
1, 72706, Control_c, 0, 64, 125
1, 72721, Control_c, 0, 64, 127
1, 72781, Note_on_c, 0, 71, 66
1, 72796, Note_on_c, 0, 51, 26
1, 72798, Note_on_c, 0, 44, 30
1, 72804, Note_on_c, 0, 47, 34
1, 72831, Note_off_c, 0, 70, 56
1, 72932, Note_off_c, 0, 47, 31
1, 72935, Note_off_c, 0, 51, 30
1, 72942, Note_off_c, 0, 44, 27
1, 73114, Control_c, 0, 64, 125
1, 73129, Control_c, 0, 64, 95
1, 73144, Control_c, 0, 64, 72
1, 73154, Note_on_c, 0, 68, 60
1, 73159, Control_c, 0, 64, 52
1, 73160, Note_on_c, 0, 47, 31
1, 73166, Note_on_c, 0, 51, 29
1, 73172, Note_on_c, 0, 44, 26
1, 73173, Control_c, 0, 64, 12
1, 73188, Control_c, 0, 64, 18
1, 73203, Control_c, 0, 64, 33
1, 73211, Note_off_c, 0, 71, 60
1, 73217, Control_c, 0, 64, 46
1, 73232, Control_c, 0, 64, 59
1, 73247, Control_c, 0, 64, 66
1, 73262, Control_c, 0, 64, 74
1, 73277, Control_c, 0, 64, 83
1, 73291, Control_c, 0, 64, 93
1, 73306, Control_c, 0, 64, 100
1, 73321, Control_c, 0, 64, 106
1, 73325, Note_off_c, 0, 44, 39
1, 73336, Note_off_c, 0, 47, 46
1, 73336, Control_c, 0, 64, 112
1, 73351, Control_c, 0, 64, 125
1, 73366, Control_c, 0, 64, 127
1, 73409, Note_off_c, 0, 68, 59
1, 73430, Note_off_c, 0, 51, 39
1, 73640, Control_c, 0, 64, 119
1, 73646, Note_on_c, 0, 68, 62
1, 73655, Control_c, 0, 64, 102
1, 73660, Note_on_c, 0, 49, 39
1, 73670, Control_c, 0, 64, 88
1, 73678, Note_on_c, 0, 46, 31
1, 73681, Note_on_c, 0, 51, 33
1, 73684, Control_c, 0, 64, 74
1, 73699, Control_c, 0, 64, 60
1, 73714, Control_c, 0, 64, 0
1, 73804, Control_c, 0, 64, 47
1, 73819, Control_c, 0, 64, 61
1, 73834, Control_c, 0, 64, 68
1, 73848, Control_c, 0, 64, 74
1, 73863, Control_c, 0, 64, 81
1, 73878, Control_c, 0, 64, 87
1, 73889, Note_off_c, 0, 46, 44
1, 73893, Control_c, 0, 64, 93
1, 73904, Note_off_c, 0, 51, 42
1, 73908, Control_c, 0, 64, 97
1, 73918, Note_off_c, 0, 49, 38
1, 73922, Control_c, 0, 64, 101
1, 73937, Control_c, 0, 64, 104
1, 73952, Control_c, 0, 64, 108
1, 73967, Control_c, 0, 64, 112
1, 73982, Control_c, 0, 64, 117
1, 73996, Control_c, 0, 64, 127
1, 74092, Note_on_c, 0, 49, 42
1, 74104, Note_on_c, 0, 51, 32
1, 74121, Note_on_c, 0, 46, 31
1, 74151, Note_off_c, 0, 49, 56
1, 74155, Note_off_c, 0, 51, 55
1, 74161, Note_off_c, 0, 46, 51
1, 74477, Note_on_c, 0, 49, 35
1, 74484, Note_on_c, 0, 51, 33
1, 74507, Note_on_c, 0, 46, 26
1, 74547, Note_off_c, 0, 49, 51
1, 74548, Note_off_c, 0, 46, 50
1, 74568, Note_off_c, 0, 51, 40
1, 74878, Control_c, 0, 64, 113
1, 74893, Control_c, 0, 64, 103
1, 74898, Note_on_c, 0, 67, 51
1, 74908, Control_c, 0, 64, 93
1, 74918, Note_on_c, 0, 49, 35
1, 74923, Control_c, 0, 64, 81
1, 74937, Note_on_c, 0, 51, 24
1, 74937, Control_c, 0, 64, 65
1, 74946, Note_off_c, 0, 68, 60
1, 74948, Note_on_c, 0, 46, 20
1, 74952, Control_c, 0, 64, 34
1, 74967, Control_c, 0, 64, 0
1, 75056, Control_c, 0, 64, 42
1, 75071, Control_c, 0, 64, 58
1, 75093, Control_c, 0, 64, 64
1, 75108, Control_c, 0, 64, 69
1, 75123, Control_c, 0, 64, 74
1, 75138, Control_c, 0, 64, 81
1, 75152, Control_c, 0, 64, 86
1, 75167, Control_c, 0, 64, 91
1, 75177, Note_off_c, 0, 46, 44
1, 75180, Note_off_c, 0, 51, 41
1, 75182, Control_c, 0, 64, 94
1, 75183, Note_off_c, 0, 49, 40
1, 75196, Control_c, 0, 64, 97
1, 75211, Control_c, 0, 64, 99
1, 75226, Control_c, 0, 64, 102
1, 75241, Control_c, 0, 64, 104
1, 75256, Control_c, 0, 64, 107
1, 75270, Control_c, 0, 64, 110
1, 75285, Control_c, 0, 64, 113
1, 75300, Control_c, 0, 64, 115
1, 75315, Control_c, 0, 64, 117
1, 75331, Control_c, 0, 64, 119
1, 75340, Note_on_c, 0, 49, 32
1, 75346, Control_c, 0, 64, 121
1, 75350, Note_on_c, 0, 51, 26
1, 75361, Control_c, 0, 64, 123
1, 75369, Note_on_c, 0, 46, 15
1, 75375, Control_c, 0, 64, 127
1, 75409, Note_off_c, 0, 49, 50
1, 75430, Note_off_c, 0, 46, 45
1, 75433, Note_off_c, 0, 51, 38
1, 75703, Note_on_c, 0, 49, 40
1, 75712, Note_on_c, 0, 51, 30
1, 75737, Note_on_c, 0, 46, 21
1, 75762, Note_off_c, 0, 49, 53
1, 75780, Note_off_c, 0, 46, 52
1, 75797, Note_off_c, 0, 51, 35
1, 76084, Note_on_c, 0, 49, 37
1, 76094, Note_on_c, 0, 51, 31
1, 76108, Note_on_c, 0, 46, 36
1, 76151, Note_off_c, 0, 49, 54
1, 76161, Note_off_c, 0, 46, 45
1, 76182, Note_off_c, 0, 51, 39
1, 76460, Note_on_c, 0, 49, 41
1, 76469, Note_on_c, 0, 51, 38
1, 76478, Note_on_c, 0, 46, 33
1, 76502, Note_off_c, 0, 49, 59
1, 76509, Note_off_c, 0, 51, 52
1, 76521, Note_off_c, 0, 46, 50
1, 76823, Note_on_c, 0, 76, 75
1, 76839, Note_off_c, 0, 67, 57
1, 76842, Control_c, 0, 64, 116
1, 76856, Note_on_c, 0, 49, 43
1, 76857, Note_on_c, 0, 51, 39
1, 76857, Control_c, 0, 64, 93
1, 76872, Control_c, 0, 64, 75
1, 76874, Note_on_c, 0, 46, 34
1, 76887, Control_c, 0, 64, 61
1, 76902, Control_c, 0, 64, 44
1, 76918, Control_c, 0, 64, 44
1, 76933, Control_c, 0, 64, 52
1, 76947, Control_c, 0, 64, 59
1, 76962, Control_c, 0, 64, 63
1, 76977, Control_c, 0, 64, 67
1, 76992, Control_c, 0, 64, 73
1, 77007, Control_c, 0, 64, 80
1, 77021, Control_c, 0, 64, 87
1, 77036, Control_c, 0, 64, 94
1, 77041, Note_off_c, 0, 46, 43
1, 77041, Note_off_c, 0, 51, 42
1, 77047, Note_off_c, 0, 49, 39
1, 77051, Control_c, 0, 64, 98
1, 77065, Control_c, 0, 64, 103
1, 77080, Control_c, 0, 64, 110
1, 77095, Control_c, 0, 64, 123
1, 77110, Control_c, 0, 64, 127
1, 77224, Note_on_c, 0, 49, 39
1, 77241, Note_on_c, 0, 51, 46
1, 77248, Note_on_c, 0, 46, 38
1, 77281, Note_off_c, 0, 51, 59
1, 77288, Note_off_c, 0, 49, 54
1, 77297, Note_off_c, 0, 46, 47
1, 77581, Note_on_c, 0, 46, 41
1, 77584, Note_on_c, 0, 51, 44
1, 77610, Note_off_c, 0, 51, 59
1, 77639, Note_off_c, 0, 46, 50
1, 77649, Poly_aftertouch_c, 0, 49, 127
1, 77687, Poly_aftertouch_c, 0, 49, 0
1, 77912, Note_on_c, 0, 75, 75
1, 77929, Note_on_c, 0, 55, 49
1, 77951, Note_on_c, 0, 49, 31
1, 77951, Note_on_c, 0, 51, 36
1, 77956, Note_off_c, 0, 76, 58
1, 77963, Note_on_c, 0, 46, 20
1, 78006, Note_off_c, 0, 46, 52
1, 78023, Note_off_c, 0, 49, 41
1, 78028, Note_off_c, 0, 55, 55
1, 78105, Note_off_c, 0, 75, 61
1, 78120, Note_off_c, 0, 51, 36
1, 78400, Control_c, 0, 64, 112
1, 78415, Control_c, 0, 64, 96
1, 78424, Note_on_c, 0, 75, 63
1, 78428, Note_on_c, 0, 56, 44
1, 78430, Control_c, 0, 64, 81
1, 78439, Note_on_c, 0, 47, 37
1, 78440, Note_on_c, 0, 51, 40
1, 78445, Control_c, 0, 64, 67
1, 78460, Control_c, 0, 64, 23
1, 78475, Control_c, 0, 64, 0
1, 78579, Control_c, 0, 64, 48
1, 78594, Control_c, 0, 64, 62
1, 78609, Control_c, 0, 64, 68
1, 78624, Control_c, 0, 64, 76
1, 78638, Control_c, 0, 64, 85
1, 78653, Control_c, 0, 64, 95
1, 78668, Control_c, 0, 64, 104
1, 78677, Note_off_c, 0, 56, 33
1, 78683, Note_off_c, 0, 51, 40
1, 78683, Control_c, 0, 64, 115
1, 78689, Note_off_c, 0, 47, 37
1, 78697, Control_c, 0, 64, 127
1, 78726, Control_c, 0, 67, 126
1, 78741, Control_c, 0, 67, 120
1, 78756, Control_c, 0, 67, 114
1, 78771, Control_c, 0, 67, 107
1, 78785, Control_c, 0, 67, 100
1, 78800, Control_c, 0, 67, 92
1, 78815, Control_c, 0, 67, 82
1, 78837, Control_c, 0, 67, 71
1, 78852, Control_c, 0, 67, 61
1, 78867, Control_c, 0, 67, 51
1, 78882, Control_c, 0, 67, 42
1, 78897, Control_c, 0, 67, 35
1, 78903, Note_on_c, 0, 56, 39
1, 78911, Control_c, 0, 67, 30
1, 78914, Note_on_c, 0, 51, 38
1, 78918, Note_on_c, 0, 47, 35
1, 78926, Control_c, 0, 67, 25
1, 78941, Control_c, 0, 67, 21
1, 78955, Note_off_c, 0, 56, 55
1, 78956, Control_c, 0, 67, 18
1, 78959, Note_off_c, 0, 51, 58
1, 78971, Control_c, 0, 67, 16
1, 78972, Note_off_c, 0, 47, 45
1, 78983, Note_off_c, 0, 75, 55
1, 78986, Control_c, 0, 67, 14
1, 79000, Control_c, 0, 67, 12
1, 79015, Control_c, 0, 67, 10
1, 79030, Control_c, 0, 67, 8
1, 79044, Control_c, 0, 67, 0
1, 79246, Note_on_c, 0, 80, 73
1, 79281, Note_on_c, 0, 51, 40
1, 79284, Note_on_c, 0, 47, 30
1, 79290, Note_on_c, 0, 56, 27
1, 79331, Note_off_c, 0, 47, 48
1, 79338, Note_off_c, 0, 51, 54
1, 79366, Note_off_c, 0, 56, 37
1, 79601, Control_c, 0, 67, 8
1, 79615, Control_c, 0, 67, 8
1, 79630, Control_c, 0, 64, 108
1, 79630, Control_c, 0, 67, 9
1, 79645, Control_c, 0, 64, 84
1, 79645, Control_c, 0, 67, 10
1, 79659, Control_c, 0, 64, 65
1, 79659, Control_c, 0, 67, 11
1, 79668, Note_on_c, 0, 48, 45
1, 79674, Control_c, 0, 64, 0
1, 79674, Control_c, 0, 67, 13
1, 79680, Note_on_c, 0, 56, 28
1, 79682, Note_on_c, 0, 51, 37
1, 79689, Control_c, 0, 67, 14
1, 79704, Control_c, 0, 67, 15
1, 79719, Control_c, 0, 67, 16
1, 79733, Control_c, 0, 64, 21
1, 79733, Control_c, 0, 67, 18
1, 79748, Control_c, 0, 64, 49
1, 79748, Control_c, 0, 67, 21
1, 79763, Control_c, 0, 64, 62
1, 79763, Control_c, 0, 67, 26
1, 79778, Control_c, 0, 64, 69
1, 79778, Control_c, 0, 67, 32
1, 79792, Control_c, 0, 64, 79
1, 79792, Control_c, 0, 67, 40
1, 79807, Control_c, 0, 64, 87
1, 79807, Control_c, 0, 67, 48
1, 79822, Control_c, 0, 64, 94
1, 79822, Control_c, 0, 67, 56
1, 79837, Control_c, 0, 64, 100
1, 79837, Control_c, 0, 67, 65
1, 79840, Note_off_c, 0, 51, 29
1, 79852, Control_c, 0, 64, 105
1, 79852, Control_c, 0, 67, 72
1, 79862, Note_off_c, 0, 56, 39
1, 79867, Control_c, 0, 64, 112
1, 79867, Control_c, 0, 67, 77
1, 79882, Control_c, 0, 64, 123
1, 79882, Control_c, 0, 67, 82
1, 79897, Control_c, 0, 64, 127
1, 79897, Control_c, 0, 67, 86
1, 79911, Note_off_c, 0, 48, 37
1, 79912, Control_c, 0, 67, 90
1, 79926, Control_c, 0, 67, 93
1, 79941, Control_c, 0, 67, 97
1, 79956, Control_c, 0, 67, 99
1, 79971, Control_c, 0, 67, 101
1, 79985, Control_c, 0, 67, 103
1, 80000, Control_c, 0, 67, 104
1, 80015, Control_c, 0, 67, 106
1, 80030, Control_c, 0, 67, 108
1, 80045, Control_c, 0, 67, 109
1, 80048, Note_on_c, 0, 48, 42
1, 80059, Control_c, 0, 67, 111
1, 80060, Note_on_c, 0, 56, 40
1, 80065, Note_on_c, 0, 51, 34
1, 80074, Control_c, 0, 67, 112
1, 80089, Control_c, 0, 67, 112
1, 80104, Control_c, 0, 67, 113
1, 80111, Note_off_c, 0, 56, 49
1, 80114, Note_off_c, 0, 51, 45
1, 80119, Note_off_c, 0, 48, 52
1, 80378, Note_on_c, 0, 78, 80
1, 80381, Note_on_c, 0, 48, 37
1, 80420, Note_on_c, 0, 51, 34
1, 80429, Note_on_c, 0, 56, 42
1, 80450, Note_off_c, 0, 48, 59
1, 80453, Control_c, 0, 67, 112
1, 80466, Note_off_c, 0, 51, 46
1, 80466, Note_off_c, 0, 80, 52
1, 80468, Control_c, 0, 67, 112
1, 80482, Control_c, 0, 67, 111
1, 80488, Note_off_c, 0, 56, 45
1, 80497, Control_c, 0, 67, 111
1, 80512, Control_c, 0, 67, 110
1, 80527, Control_c, 0, 67, 109
1, 80542, Control_c, 0, 67, 108
1, 80556, Control_c, 0, 67, 107
1, 80571, Control_c, 0, 67, 106
1, 80586, Control_c, 0, 67, 105
1, 80601, Control_c, 0, 67, 104
1, 80615, Control_c, 0, 67, 103
1, 80630, Control_c, 0, 67, 101
1, 80645, Control_c, 0, 67, 99
1, 80660, Control_c, 0, 67, 94
1, 80675, Control_c, 0, 67, 85
1, 80690, Control_c, 0, 67, 74
1, 80705, Control_c, 0, 67, 63
1, 80719, Control_c, 0, 64, 106
1, 80719, Control_c, 0, 67, 52
1, 80734, Control_c, 0, 64, 80
1, 80734, Control_c, 0, 67, 43
1, 80749, Control_c, 0, 64, 61
1, 80749, Control_c, 0, 67, 36
1, 80764, Note_on_c, 0, 49, 56
1, 80764, Control_c, 0, 64, 0
1, 80764, Control_c, 0, 67, 30
1, 80771, Note_on_c, 0, 52, 51
1, 80776, Note_on_c, 0, 56, 43
1, 80779, Control_c, 0, 67, 24
1, 80794, Control_c, 0, 67, 16
1, 80808, Control_c, 0, 67, 10
1, 80823, Control_c, 0, 67, 0
1, 80838, Control_c, 0, 64, 16
1, 80853, Control_c, 0, 64, 50
1, 80868, Control_c, 0, 64, 63
1, 80882, Control_c, 0, 64, 70
1, 80889, Note_off_c, 0, 52, 52
1, 80897, Control_c, 0, 64, 78
1, 80913, Control_c, 0, 64, 86
1, 80928, Control_c, 0, 64, 93
1, 80943, Control_c, 0, 64, 99
1, 80958, Control_c, 0, 64, 103
1, 80964, Note_off_c, 0, 56, 40
1, 80973, Control_c, 0, 64, 107
1, 80987, Control_c, 0, 64, 113
1, 81002, Control_c, 0, 64, 123
1, 81010, Note_off_c, 0, 49, 37
1, 81017, Control_c, 0, 64, 127
1, 81140, Note_on_c, 0, 49, 49
1, 81155, Note_on_c, 0, 56, 43
1, 81173, Note_on_c, 0, 52, 33
1, 81212, Note_off_c, 0, 56, 53
1, 81224, Note_off_c, 0, 52, 45
1, 81265, Note_off_c, 0, 49, 35
1, 81450, Note_on_c, 0, 49, 42
1, 81450, Note_on_c, 0, 76, 73
1, 81468, Note_on_c, 0, 56, 45
1, 81506, Note_off_c, 0, 56, 59
1, 81509, Poly_aftertouch_c, 0, 52, 127
1, 81510, Note_off_c, 0, 49, 43
1, 81516, Note_off_c, 0, 78, 60
1, 81544, Poly_aftertouch_c, 0, 52, 0
1, 81825, Control_c, 0, 64, 93
1, 81837, Note_on_c, 0, 75, 75
1, 81845, Note_on_c, 0, 56, 48
1, 81847, Control_c, 0, 64, 73
1, 81849, Note_on_c, 0, 52, 43
1, 81850, Note_on_c, 0, 61, 42
1, 81861, Control_c, 0, 64, 52
1, 81876, Control_c, 0, 64, 0
1, 81901, Note_off_c, 0, 76, 61
1, 81906, Control_c, 0, 64, 27
1, 81921, Control_c, 0, 64, 47
1, 81936, Control_c, 0, 64, 59
1, 81951, Control_c, 0, 64, 66
1, 81965, Control_c, 0, 64, 74
1, 81980, Control_c, 0, 64, 88
1, 81995, Control_c, 0, 64, 105
1, 82010, Control_c, 0, 64, 127
1, 82060, Note_off_c, 0, 61, 37
1, 82064, Note_off_c, 0, 56, 36
1, 82085, Note_off_c, 0, 52, 42
1, 82209, Note_on_c, 0, 52, 45
1, 82210, Note_on_c, 0, 56, 44
1, 82216, Note_on_c, 0, 61, 41
1, 82272, Note_off_c, 0, 61, 53
1, 82276, Note_off_c, 0, 56, 54
1, 82290, Note_off_c, 0, 52, 52
1, 82424, Control_c, 0, 67, 9
1, 82439, Control_c, 0, 67, 13
1, 82454, Control_c, 0, 67, 17
1, 82469, Control_c, 0, 67, 22
1, 82484, Control_c, 0, 67, 27
1, 82499, Control_c, 0, 67, 33
1, 82514, Control_c, 0, 67, 38
1, 82529, Control_c, 0, 67, 42
1, 82544, Control_c, 0, 67, 45
1, 82559, Control_c, 0, 67, 49
1, 82581, Control_c, 0, 67, 52
1, 82596, Note_on_c, 0, 73, 67
1, 82596, Control_c, 0, 67, 57
1, 82601, Note_on_c, 0, 61, 36
1, 82605, Note_on_c, 0, 52, 38
1, 82606, Note_on_c, 0, 56, 40
1, 82610, Control_c, 0, 67, 62
1, 82625, Control_c, 0, 67, 67
1, 82640, Control_c, 0, 67, 71
1, 82655, Control_c, 0, 67, 74
1, 82667, Note_off_c, 0, 56, 55
1, 82670, Control_c, 0, 67, 78
1, 82684, Control_c, 0, 67, 82
1, 82697, Note_off_c, 0, 52, 47
1, 82699, Control_c, 0, 67, 87
1, 82702, Note_off_c, 0, 61, 37
1, 82714, Control_c, 0, 67, 90
1, 82724, Note_off_c, 0, 75, 38
1, 82729, Control_c, 0, 67, 95
1, 82744, Control_c, 0, 67, 98
1, 82758, Control_c, 0, 67, 101
1, 82773, Control_c, 0, 67, 105
1, 82788, Control_c, 0, 67, 110
1, 82803, Control_c, 0, 67, 115
1, 82818, Control_c, 0, 67, 120
1, 82833, Control_c, 0, 67, 127
1, 82848, Control_c, 0, 67, 127
1, 83173, Control_c, 0, 64, 110
1, 83178, Note_on_c, 0, 59, 42
1, 83180, Note_on_c, 0, 71, 50
1, 83188, Control_c, 0, 64, 92
1, 83194, Note_on_c, 0, 56, 40
1, 83203, Control_c, 0, 64, 75
1, 83208, Note_on_c, 0, 51, 30
1, 83214, Note_off_c, 0, 73, 56
1, 83217, Control_c, 0, 64, 60
1, 83232, Control_c, 0, 64, 0
1, 83375, Control_c, 0, 64, 43
1, 83389, Control_c, 0, 64, 61
1, 83404, Control_c, 0, 64, 70
1, 83419, Control_c, 0, 64, 79
1, 83433, Control_c, 0, 64, 89
1, 83448, Control_c, 0, 64, 99
1, 83463, Control_c, 0, 64, 110
1, 83478, Control_c, 0, 64, 127
1, 83525, Note_off_c, 0, 59, 49
1, 83545, Note_off_c, 0, 56, 43
1, 83554, Note_off_c, 0, 51, 42
1, 83700, Note_on_c, 0, 51, 28
1, 83709, Note_on_c, 0, 56, 25
1, 83713, Note_on_c, 0, 59, 33
1, 83777, Note_off_c, 0, 56, 42
1, 83795, Note_off_c, 0, 51, 35
1, 83802, Note_off_c, 0, 59, 37
1, 84061, Note_on_c, 0, 59, 30
1, 84083, Note_on_c, 0, 51, 21
1, 84091, Note_on_c, 0, 56, 23
1, 84142, Note_off_c, 0, 56, 47
1, 84144, Note_off_c, 0, 51, 44
1, 84174, Note_off_c, 0, 59, 34
1, 84417, Note_on_c, 0, 59, 33
1, 84426, Note_on_c, 0, 51, 23
1, 84426, Note_on_c, 0, 56, 28
1, 84490, Note_off_c, 0, 51, 41
1, 84491, Note_off_c, 0, 56, 42
1, 84511, Note_off_c, 0, 59, 38
1, 84756, Note_on_c, 0, 73, 49
1, 84774, Note_on_c, 0, 59, 30
1, 84794, Note_on_c, 0, 56, 30
1, 84805, Note_off_c, 0, 71, 56
1, 84809, Note_on_c, 0, 51, 21
1, 84879, Note_off_c, 0, 56, 40
1, 84888, Note_off_c, 0, 51, 40
1, 84925, Note_off_c, 0, 59, 34
1, 85181, Note_on_c, 0, 75, 47
1, 85190, Note_on_c, 0, 59, 28
1, 85191, Note_on_c, 0, 56, 30
1, 85213, Note_on_c, 0, 51, 22
1, 85260, Note_off_c, 0, 73, 35
1, 85385, Note_off_c, 0, 51, 39
1, 85416, Note_off_c, 0, 59, 40
1, 85419, Note_off_c, 0, 56, 41
1, 85450, Note_on_c, 0, 73, 51
1, 85530, Note_off_c, 0, 75, 35
1, 85553, Note_off_c, 0, 73, 61
1, 85589, Note_on_c, 0, 71, 45
1, 85724, Control_c, 0, 64, 112
1, 85739, Control_c, 0, 64, 102
1, 85754, Control_c, 0, 64, 94
1, 85769, Control_c, 0, 64, 84
1, 85773, Note_on_c, 0, 70, 41
1, 85781, Note_on_c, 0, 58, 26
1, 85783, Note_off_c, 0, 71, 38
1, 85784, Control_c, 0, 64, 71
1, 85787, Note_on_c, 0, 55, 34
1, 85793, Note_on_c, 0, 51, 22
1, 85799, Control_c, 0, 64, 56
1, 85814, Control_c, 0, 64, 0
1, 85902, Control_c, 0, 64, 42
1, 85917, Control_c, 0, 64, 58
1, 85932, Control_c, 0, 64, 64
1, 85947, Control_c, 0, 64, 69
1, 85962, Control_c, 0, 64, 74
1, 85976, Control_c, 0, 64, 79
1, 85991, Control_c, 0, 64, 83
1, 86006, Control_c, 0, 64, 86
1, 86013, Note_off_c, 0, 58, 42
1, 86014, Note_off_c, 0, 55, 41
1, 86015, Note_off_c, 0, 51, 42
1, 86020, Control_c, 0, 64, 89
1, 86035, Control_c, 0, 64, 92
1, 86050, Control_c, 0, 64, 94
1, 86065, Control_c, 0, 64, 97
1, 86080, Control_c, 0, 64, 99
1, 86094, Control_c, 0, 64, 101
1, 86109, Control_c, 0, 64, 102
1, 86124, Control_c, 0, 64, 103
1, 86139, Control_c, 0, 64, 104
1, 86154, Control_c, 0, 64, 106
1, 86161, Note_on_c, 0, 55, 36
1, 86163, Note_on_c, 0, 51, 32
1, 86169, Control_c, 0, 64, 108
1, 86173, Note_on_c, 0, 58, 32
1, 86183, Control_c, 0, 64, 110
1, 86198, Control_c, 0, 64, 111
1, 86213, Control_c, 0, 64, 112
1, 86228, Control_c, 0, 64, 113
1, 86234, Note_off_c, 0, 55, 55
1, 86243, Control_c, 0, 64, 114
1, 86252, Note_off_c, 0, 58, 39
1, 86256, Note_off_c, 0, 51, 36
1, 86258, Control_c, 0, 64, 116
1, 86273, Control_c, 0, 64, 118
1, 86288, Control_c, 0, 64, 120
1, 86302, Control_c, 0, 64, 123
1, 86324, Control_c, 0, 64, 127
1, 86526, Note_on_c, 0, 51, 35
1, 86526, Note_on_c, 0, 55, 37
1, 86541, Note_on_c, 0, 58, 33
1, 86575, Note_off_c, 0, 55, 59
1, 86581, Note_off_c, 0, 51, 54
1, 86593, Note_off_c, 0, 58, 46
1, 86888, Control_c, 0, 64, 109
1, 86903, Control_c, 0, 64, 89
1, 86905, Note_on_c, 0, 58, 42
1, 86917, Note_on_c, 0, 49, 37
1, 86917, Control_c, 0, 64, 70
1, 86922, Note_on_c, 0, 55, 42
1, 86926, Note_on_c, 0, 51, 38
1, 86932, Control_c, 0, 64, 58
1, 86947, Control_c, 0, 64, 51
1, 86962, Control_c, 0, 64, 54
1, 86976, Control_c, 0, 64, 59
1, 86991, Control_c, 0, 64, 62
1, 87006, Control_c, 0, 64, 65
1, 87021, Control_c, 0, 64, 70
1, 87036, Control_c, 0, 64, 77
1, 87047, Note_off_c, 0, 55, 54
1, 87051, Control_c, 0, 64, 84
1, 87053, Note_off_c, 0, 58, 43
1, 87073, Control_c, 0, 64, 93
1, 87078, Note_off_c, 0, 49, 0
1, 87088, Control_c, 0, 64, 100
1, 87091, Note_off_c, 0, 51, 35
1, 87099, Poly_aftertouch_c, 0, 49, 0
1, 87103, Control_c, 0, 64, 108
1, 87118, Control_c, 0, 64, 121
1, 87132, Control_c, 0, 64, 127
1, 87326, Control_c, 0, 64, 104
1, 87327, Note_on_c, 0, 71, 62
1, 87337, Note_on_c, 0, 51, 41
1, 87341, Control_c, 0, 64, 85
1, 87347, Note_on_c, 0, 47, 39
1, 87350, Note_on_c, 0, 56, 39
1, 87355, Control_c, 0, 64, 70
1, 87370, Control_c, 0, 64, 58
1, 87385, Control_c, 0, 64, 51
1, 87400, Control_c, 0, 64, 55
1, 87415, Control_c, 0, 64, 59
1, 87429, Control_c, 0, 64, 62
1, 87437, Note_off_c, 0, 70, 54
1, 87444, Control_c, 0, 64, 65
1, 87459, Control_c, 0, 64, 69
1, 87474, Control_c, 0, 64, 75
1, 87484, Note_off_c, 0, 47, 45
1, 87489, Control_c, 0, 64, 84
1, 87497, Note_off_c, 0, 56, 33
1, 87504, Control_c, 0, 64, 91
1, 87519, Control_c, 0, 64, 96
1, 87534, Control_c, 0, 64, 99
1, 87537, Note_off_c, 0, 51, 29
1, 87548, Control_c, 0, 64, 103
1, 87563, Control_c, 0, 64, 107
1, 87578, Control_c, 0, 64, 113
1, 87593, Control_c, 0, 64, 118
1, 87607, Control_c, 0, 64, 121
1, 87622, Control_c, 0, 64, 125
1, 87637, Control_c, 0, 64, 127
1, 87771, Control_c, 0, 64, 112
1, 87786, Control_c, 0, 64, 98
1, 87789, Note_on_c, 0, 73, 58
1, 87800, Control_c, 0, 64, 82
1, 87809, Note_on_c, 0, 46, 31
1, 87823, Control_c, 0, 64, 67
1, 87823, Note_on_c, 0, 55, 25
1, 87829, Note_on_c, 0, 51, 22
1, 87838, Control_c, 0, 64, 43
1, 87853, Control_c, 0, 64, 0
1, 87890, Note_off_c, 0, 71, 51
1, 87926, Control_c, 0, 64, 25
1, 87941, Control_c, 0, 64, 53
1, 87956, Control_c, 0, 64, 64
1, 87966, Note_off_c, 0, 55, 42
1, 87971, Control_c, 0, 64, 71
1, 87986, Control_c, 0, 64, 78
1, 87987, Note_off_c, 0, 51, 43
1, 88000, Control_c, 0, 64, 84
1, 88002, Note_off_c, 0, 46, 39
1, 88015, Control_c, 0, 64, 90
1, 88030, Control_c, 0, 64, 94
1, 88045, Control_c, 0, 64, 99
1, 88060, Control_c, 0, 64, 104
1, 88074, Control_c, 0, 64, 109
1, 88089, Control_c, 0, 64, 116
1, 88105, Control_c, 0, 64, 127
1, 88253, Control_c, 0, 64, 111
1, 88268, Control_c, 0, 64, 93
1, 88269, Note_on_c, 0, 71, 49
1, 88283, Note_on_c, 0, 44, 37
1, 88283, Control_c, 0, 64, 77
1, 88288, Note_on_c, 0, 56, 32
1, 88297, Control_c, 0, 64, 63
1, 88309, Note_on_c, 0, 51, 19
1, 88312, Control_c, 0, 64, 19
1, 88319, Note_off_c, 0, 73, 56
1, 88327, Control_c, 0, 64, 0
1, 88386, Control_c, 0, 64, 25
1, 88401, Control_c, 0, 64, 49
1, 88416, Control_c, 0, 64, 61
1, 88431, Control_c, 0, 64, 66
1, 88432, Note_off_c, 0, 56, 51
1, 88446, Control_c, 0, 64, 72
1, 88452, Note_off_c, 0, 44, 39
1, 88461, Control_c, 0, 64, 78
1, 88476, Control_c, 0, 64, 82
1, 88491, Note_off_c, 0, 51, 36
1, 88491, Control_c, 0, 64, 85
1, 88505, Control_c, 0, 64, 88
1, 88520, Control_c, 0, 64, 91
1, 88535, Control_c, 0, 64, 93
1, 88549, Control_c, 0, 64, 96
1, 88564, Control_c, 0, 64, 98
1, 88586, Control_c, 0, 64, 99
1, 88601, Control_c, 0, 64, 100
1, 88616, Control_c, 0, 64, 100
1, 88631, Control_c, 0, 64, 101
1, 88646, Control_c, 0, 64, 103
1, 88661, Control_c, 0, 64, 104
1, 88675, Control_c, 0, 64, 105
1, 88681, Note_on_c, 0, 51, 28
1, 88690, Control_c, 0, 64, 106
1, 88693, Note_on_c, 0, 47, 37
1, 88705, Control_c, 0, 64, 107
1, 88707, Note_on_c, 0, 44, 15
1, 88720, Control_c, 0, 64, 109
1, 88735, Control_c, 0, 64, 112
1, 88745, Note_off_c, 0, 51, 41
1, 88749, Note_off_c, 0, 47, 43
1, 88749, Control_c, 0, 64, 115
1, 88757, Note_off_c, 0, 44, 44
1, 88764, Control_c, 0, 64, 120
1, 88779, Control_c, 0, 64, 125
1, 88794, Control_c, 0, 64, 127
1, 89024, Note_on_c, 0, 47, 34
1, 89027, Note_on_c, 0, 44, 28
1, 89034, Note_on_c, 0, 51, 32
1, 89090, Note_off_c, 0, 51, 44
1, 89096, Note_off_c, 0, 44, 40
1, 89123, Note_off_c, 0, 47, 35
1, 89373, Note_on_c, 0, 47, 38
1, 89374, Note_on_c, 0, 51, 32
1, 89381, Note_on_c, 0, 44, 31
1, 89427, Note_off_c, 0, 44, 44
1, 89444, Note_off_c, 0, 47, 42
1, 89447, Note_off_c, 0, 51, 40
1, 89717, Note_on_c, 0, 51, 39
1, 89722, Note_on_c, 0, 47, 34
1, 89735, Note_on_c, 0, 44, 34
1, 89778, Note_off_c, 0, 51, 52
1, 89778, Note_off_c, 0, 47, 52
1, 89796, Note_off_c, 0, 44, 42
1, 90075, Note_on_c, 0, 47, 37
1, 90083, Note_on_c, 0, 44, 33
1, 90085, Note_on_c, 0, 51, 29
1, 90118, Note_off_c, 0, 47, 62
1, 90130, Note_off_c, 0, 51, 48
1, 90139, Note_off_c, 0, 44, 56
1, 90424, Control_c, 0, 67, 127
1, 90438, Note_on_c, 0, 73, 73
1, 90439, Control_c, 0, 64, 101
1, 90439, Control_c, 0, 67, 125
1, 90454, Control_c, 0, 64, 84
1, 90454, Control_c, 0, 67, 124
1, 90462, Note_on_c, 0, 47, 43
1, 90464, Note_on_c, 0, 52, 37
1, 90468, Control_c, 0, 64, 68
1, 90468, Control_c, 0, 67, 121
1, 90473, Note_on_c, 0, 42, 35
1, 90483, Control_c, 0, 64, 44
1, 90483, Control_c, 0, 67, 119
1, 90499, Control_c, 0, 64, 0
1, 90499, Control_c, 0, 67, 115
1, 90514, Control_c, 0, 67, 110
1, 90516, Note_off_c, 0, 71, 61
1, 90529, Control_c, 0, 67, 104
1, 90544, Control_c, 0, 67, 97
1, 90559, Control_c, 0, 64, 32
1, 90559, Control_c, 0, 67, 89
1, 90573, Control_c, 0, 64, 53
1, 90573, Control_c, 0, 67, 81
1, 90588, Control_c, 0, 64, 63
1, 90588, Control_c, 0, 67, 72
1, 90603, Control_c, 0, 64, 69
1, 90603, Control_c, 0, 67, 64
1, 90617, Control_c, 0, 64, 76
1, 90617, Control_c, 0, 67, 57
1, 90632, Control_c, 0, 64, 84
1, 90632, Control_c, 0, 67, 51
1, 90647, Control_c, 0, 64, 91
1, 90647, Control_c, 0, 67, 45
1, 90652, Note_off_c, 0, 42, 42
1, 90662, Control_c, 0, 64, 97
1, 90662, Control_c, 0, 67, 40
1, 90670, Note_off_c, 0, 52, 38
1, 90678, Control_c, 0, 64, 103
1, 90678, Control_c, 0, 67, 35
1, 90690, Note_off_c, 0, 47, 32
1, 90692, Control_c, 0, 64, 110
1, 90692, Control_c, 0, 67, 31
1, 90707, Control_c, 0, 64, 125
1, 90707, Control_c, 0, 67, 26
1, 90722, Control_c, 0, 64, 127
1, 90722, Control_c, 0, 67, 22
1, 90736, Control_c, 0, 67, 17
1, 90751, Control_c, 0, 67, 13
1, 90766, Control_c, 0, 67, 9
1, 90781, Control_c, 0, 67, 0
1, 90843, Note_on_c, 0, 52, 32
1, 90846, Note_on_c, 0, 47, 42
1, 90861, Note_on_c, 0, 42, 33
1, 90912, Note_off_c, 0, 47, 55
1, 90941, Note_off_c, 0, 42, 37
1, 90945, Note_off_c, 0, 52, 37
1, 91188, Note_on_c, 0, 52, 41
1, 91206, Note_on_c, 0, 47, 39
1, 91208, Note_on_c, 0, 42, 27
1, 91250, Note_off_c, 0, 47, 59
1, 91253, Note_off_c, 0, 52, 53
1, 91263, Note_off_c, 0, 42, 44
1, 91515, Control_c, 0, 64, 116
1, 91528, Note_on_c, 0, 46, 50
1, 91530, Control_c, 0, 64, 93
1, 91542, Note_on_c, 0, 52, 48
1, 91545, Control_c, 0, 64, 76
1, 91546, Note_on_c, 0, 42, 45
1, 91560, Control_c, 0, 64, 63
1, 91582, Control_c, 0, 64, 38
1, 91597, Control_c, 0, 64, 33
1, 91612, Control_c, 0, 64, 41
1, 91627, Control_c, 0, 64, 49
1, 91641, Control_c, 0, 64, 54
1, 91656, Control_c, 0, 64, 59
1, 91671, Control_c, 0, 64, 63
1, 91686, Control_c, 0, 64, 68
1, 91691, Note_off_c, 0, 46, 51
1, 91701, Control_c, 0, 64, 73
1, 91715, Control_c, 0, 64, 78
1, 91723, Note_off_c, 0, 52, 36
1, 91724, Note_off_c, 0, 42, 44
1, 91730, Control_c, 0, 64, 83
1, 91745, Control_c, 0, 64, 88
1, 91760, Control_c, 0, 64, 92
1, 91774, Control_c, 0, 64, 96
1, 91789, Control_c, 0, 64, 99
1, 91804, Control_c, 0, 64, 102
1, 91819, Control_c, 0, 64, 105
1, 91834, Control_c, 0, 64, 107
1, 91848, Control_c, 0, 64, 110
1, 91863, Control_c, 0, 64, 114
1, 91877, Note_on_c, 0, 42, 42
1, 91878, Control_c, 0, 64, 117
1, 91880, Note_on_c, 0, 46, 41
1, 91884, Note_on_c, 0, 52, 41
1, 91893, Control_c, 0, 64, 121
1, 91908, Control_c, 0, 64, 127
1, 91951, Note_off_c, 0, 52, 53
1, 91952, Note_off_c, 0, 46, 55
1, 92017, Note_off_c, 0, 42, 32
1, 92197, Note_on_c, 0, 42, 48
1, 92217, Note_on_c, 0, 52, 43
1, 92228, Note_on_c, 0, 46, 36
1, 92254, Note_off_c, 0, 52, 56
1, 92262, Note_off_c, 0, 46, 53
1, 92265, Note_off_c, 0, 42, 40
1, 92584, Note_on_c, 0, 75, 79
1, 92595, Control_c, 0, 64, 97
1, 92598, Note_on_c, 0, 47, 50
1, 92610, Control_c, 0, 64, 78
1, 92611, Note_on_c, 0, 51, 43
1, 92622, Note_on_c, 0, 42, 37
1, 92625, Control_c, 0, 64, 57
1, 92640, Note_off_c, 0, 73, 60
1, 92640, Control_c, 0, 64, 0
1, 92729, Control_c, 0, 64, 37
1, 92744, Control_c, 0, 64, 57
1, 92759, Control_c, 0, 64, 64
1, 92774, Control_c, 0, 64, 70
1, 92783, Note_off_c, 0, 47, 51
1, 92788, Control_c, 0, 64, 76
1, 92790, Note_off_c, 0, 42, 39
1, 92803, Control_c, 0, 64, 82
1, 92818, Control_c, 0, 64, 89
1, 92819, Note_off_c, 0, 51, 33
1, 92833, Control_c, 0, 64, 95
1, 92848, Control_c, 0, 64, 100
1, 92862, Control_c, 0, 64, 105
1, 92877, Control_c, 0, 64, 111
1, 92893, Control_c, 0, 64, 120
1, 92908, Control_c, 0, 64, 127
1, 92962, Note_on_c, 0, 47, 47
1, 92963, Note_on_c, 0, 51, 52
1, 92992, Note_on_c, 0, 42, 31
1, 93028, Note_off_c, 0, 51, 49
1, 93042, Note_off_c, 0, 42, 45
1, 93044, Note_off_c, 0, 47, 52
1, 93292, Note_on_c, 0, 51, 62
1, 93296, Note_on_c, 0, 47, 54
1, 93300, Note_on_c, 0, 42, 51
1, 93326, Note_off_c, 0, 47, 64
1, 93329, Note_off_c, 0, 51, 62
1, 93334, Note_off_c, 0, 42, 51
1, 93582, Control_c, 0, 64, 97
1, 93597, Control_c, 0, 64, 78
1, 93611, Control_c, 0, 64, 60
1, 93612, Note_on_c, 0, 59, 66
1, 93625, Note_on_c, 0, 54, 62
1, 93626, Control_c, 0, 64, 0
1, 93631, Note_on_c, 0, 47, 50
1, 93687, Control_c, 0, 64, 40
1, 93702, Control_c, 0, 64, 56
1, 93716, Control_c, 0, 64, 64
1, 93731, Control_c, 0, 64, 70
1, 93746, Control_c, 0, 64, 79
1, 93761, Control_c, 0, 64, 89
1, 93776, Control_c, 0, 64, 97
1, 93791, Control_c, 0, 64, 106
1, 93803, Note_off_c, 0, 59, 50
1, 93806, Control_c, 0, 64, 117
1, 93817, Note_off_c, 0, 54, 37
1, 93820, Note_off_c, 0, 47, 30
1, 93828, Control_c, 0, 64, 127
1, 93943, Note_on_c, 0, 59, 56
1, 93945, Note_on_c, 0, 54, 54
1, 93947, Note_on_c, 0, 47, 54
1, 94000, Note_off_c, 0, 54, 56
1, 94001, Note_off_c, 0, 47, 55
1, 94026, Note_off_c, 0, 59, 39
1, 94262, Note_on_c, 0, 47, 54
1, 94265, Note_on_c, 0, 59, 62
1, 94270, Note_on_c, 0, 54, 62
1, 94290, Note_off_c, 0, 47, 58
1, 94298, Note_off_c, 0, 59, 62
1, 94306, Note_off_c, 0, 54, 62
1, 94604, Note_on_c, 0, 52, 54
1, 94606, Control_c, 0, 64, 96
1, 94607, Note_on_c, 0, 76, 78
1, 94607, Note_on_c, 0, 59, 65
1, 94618, Note_on_c, 0, 49, 55
1, 94621, Control_c, 0, 64, 72
1, 94636, Control_c, 0, 64, 51
1, 94651, Control_c, 0, 64, 0
1, 94656, Note_off_c, 0, 75, 57
1, 94710, Control_c, 0, 64, 45
1, 94725, Control_c, 0, 64, 62
1, 94739, Control_c, 0, 64, 69
1, 94754, Control_c, 0, 64, 78
1, 94769, Control_c, 0, 64, 89
1, 94783, Control_c, 0, 64, 100
1, 94798, Control_c, 0, 64, 110
1, 94813, Control_c, 0, 64, 127
1, 94816, Note_off_c, 0, 52, 35
1, 94830, Note_off_c, 0, 49, 41
1, 94852, Note_off_c, 0, 59, 32
1, 94952, Note_on_c, 0, 52, 51
1, 94953, Note_on_c, 0, 49, 52
1, 94956, Note_on_c, 0, 59, 64
1, 95023, Note_off_c, 0, 49, 50
1, 95030, Note_off_c, 0, 52, 51
1, 95071, Note_off_c, 0, 59, 34
1, 95257, Note_on_c, 0, 59, 71
1, 95263, Note_on_c, 0, 49, 60
1, 95264, Note_on_c, 0, 52, 59
1, 95299, Note_off_c, 0, 49, 62
1, 95314, Note_off_c, 0, 59, 53
1, 95323, Note_off_c, 0, 52, 55
1, 95577, Control_c, 0, 64, 120
1, 95579, Note_on_c, 0, 58, 70
1, 95584, Note_on_c, 0, 80, 84
1, 95590, Note_on_c, 0, 52, 59
1, 95592, Control_c, 0, 64, 88
1, 95596, Note_on_c, 0, 49, 58
1, 95606, Control_c, 0, 64, 68
1, 95615, Note_off_c, 0, 76, 63
1, 95621, Control_c, 0, 64, 46
1, 95636, Control_c, 0, 64, 30
1, 95651, Control_c, 0, 64, 42
1, 95666, Control_c, 0, 64, 56
1, 95681, Control_c, 0, 64, 63
1, 95695, Control_c, 0, 64, 68
1, 95710, Control_c, 0, 64, 77
1, 95725, Control_c, 0, 64, 90
1, 95740, Control_c, 0, 64, 105
1, 95755, Control_c, 0, 64, 127
1, 95802, Note_off_c, 0, 49, 40
1, 95804, Note_off_c, 0, 58, 56
1, 95809, Note_off_c, 0, 52, 37
1, 95922, Note_on_c, 0, 49, 57
1, 95925, Note_on_c, 0, 58, 68
1, 95931, Note_on_c, 0, 52, 61
1, 96019, Note_off_c, 0, 52, 56
1, 96023, Note_off_c, 0, 58, 46
1, 96075, Note_off_c, 0, 49, 31
1, 96248, Note_on_c, 0, 58, 73
1, 96259, Note_on_c, 0, 49, 48
1, 96259, Note_on_c, 0, 52, 56
1, 96288, Note_off_c, 0, 49, 57
1, 96307, Note_off_c, 0, 52, 58
1, 96313, Note_off_c, 0, 58, 59
1, 96581, Note_on_c, 0, 59, 66
1, 96584, Note_on_c, 0, 78, 87
1, 96588, Note_on_c, 0, 54, 62
1, 96592, Note_on_c, 0, 51, 56
1, 96593, Control_c, 0, 64, 94
1, 96608, Control_c, 0, 64, 72
1, 96623, Control_c, 0, 64, 33
1, 96637, Control_c, 0, 64, 0
1, 96647, Note_off_c, 0, 80, 51
1, 96712, Control_c, 0, 64, 42
1, 96727, Control_c, 0, 64, 60
1, 96742, Control_c, 0, 64, 68
1, 96756, Control_c, 0, 64, 77
1, 96771, Control_c, 0, 64, 88
1, 96786, Control_c, 0, 64, 97
1, 96798, Note_off_c, 0, 51, 49
1, 96801, Control_c, 0, 64, 105
1, 96813, Note_off_c, 0, 59, 34
1, 96821, Note_off_c, 0, 54, 37
1, 96823, Control_c, 0, 64, 123
1, 96837, Control_c, 0, 64, 127
1, 96927, Note_on_c, 0, 59, 60
1, 96933, Note_on_c, 0, 54, 60
1, 96937, Note_on_c, 0, 51, 52
1, 96992, Note_off_c, 0, 51, 54
1, 96994, Note_off_c, 0, 54, 42
1, 96995, Note_off_c, 0, 59, 48
1, 97224, Note_on_c, 0, 83, 80
1, 97233, Note_on_c, 0, 54, 53
1, 97238, Note_on_c, 0, 59, 57
1, 97243, Note_on_c, 0, 51, 48
1, 97263, Note_off_c, 0, 54, 65
1, 97269, Note_off_c, 0, 59, 65
1, 97272, Note_off_c, 0, 78, 62
1, 97277, Note_off_c, 0, 51, 62
1, 97314, Note_off_c, 0, 83, 63
1, 97573, Note_on_c, 0, 59, 64
1, 97576, Note_on_c, 0, 64, 65
1, 97581, Note_on_c, 0, 80, 85
1, 97586, Control_c, 0, 64, 104
1, 97597, Note_on_c, 0, 52, 54
1, 97601, Control_c, 0, 64, 79
1, 97616, Control_c, 0, 64, 58
1, 97631, Control_c, 0, 64, 0
1, 97691, Control_c, 0, 64, 27
1, 97706, Control_c, 0, 64, 54
1, 97721, Control_c, 0, 64, 65
1, 97735, Control_c, 0, 64, 74
1, 97750, Control_c, 0, 64, 88
1, 97765, Control_c, 0, 64, 110
1, 97780, Control_c, 0, 64, 127
1, 97818, Note_off_c, 0, 64, 49
1, 97819, Note_off_c, 0, 52, 37
1, 97827, Note_off_c, 0, 59, 50
1, 97937, Note_on_c, 0, 64, 73
1, 97940, Note_on_c, 0, 52, 58
1, 97943, Note_on_c, 0, 59, 73
1, 98053, Note_off_c, 0, 64, 49
1, 98061, Note_off_c, 0, 59, 49
1, 98072, Note_off_c, 0, 52, 32
1, 98165, Note_off_c, 0, 80, 61
1, 98376, Note_on_c, 0, 92, 90
1, 98393, Note_on_c, 0, 52, 48
1, 98396, Note_on_c, 0, 64, 56
1, 98403, Note_on_c, 0, 59, 54
1, 98442, Note_off_c, 0, 52, 47
1, 98474, Note_off_c, 0, 64, 60
1, 98488, Note_off_c, 0, 59, 57
1, 98864, Note_on_c, 0, 63, 72
1, 98879, Note_on_c, 0, 59, 61
1, 98890, Note_on_c, 0, 54, 54
1, 98900, Control_c, 0, 64, 91
1, 98914, Control_c, 0, 64, 68
1, 98929, Control_c, 0, 64, 0
1, 99018, Control_c, 0, 64, 51
1, 99032, Control_c, 0, 64, 66
1, 99047, Control_c, 0, 64, 79
1, 99070, Control_c, 0, 64, 100
1, 99084, Control_c, 0, 64, 127
1, 99190, Note_off_c, 0, 54, 43
1, 99196, Note_off_c, 0, 59, 53
1, 99202, Note_off_c, 0, 63, 56
1, 99328, Note_on_c, 0, 54, 39
1, 99330, Note_on_c, 0, 63, 53
1, 99335, Note_on_c, 0, 59, 59
1, 99368, Note_off_c, 0, 54, 57
1, 99374, Note_off_c, 0, 59, 59
1, 99374, Note_off_c, 0, 63, 61
1, 99604, Note_on_c, 0, 90, 85
1, 99633, Note_on_c, 0, 63, 59
1, 99642, Note_on_c, 0, 59, 48
1, 99645, Note_on_c, 0, 54, 46
1, 99666, Note_off_c, 0, 92, 59
1, 99675, Note_off_c, 0, 59, 64
1, 99687, Note_off_c, 0, 63, 45
1, 99696, Note_off_c, 0, 54, 54
1, 99960, Note_on_c, 0, 64, 64
1, 99964, Note_on_c, 0, 58, 60
1, 99966, Control_c, 0, 64, 102
1, 99967, Note_on_c, 0, 61, 60
1, 99968, Note_on_c, 0, 54, 57
1, 99980, Control_c, 0, 64, 76
1, 99995, Control_c, 0, 64, 55
1, 100010, Control_c, 0, 64, 0
1, 100054, Control_c, 0, 64, 36
1, 100069, Control_c, 0, 64, 53
1, 100085, Control_c, 0, 64, 63
1, 100100, Control_c, 0, 64, 70
1, 100115, Control_c, 0, 64, 80
1, 100129, Control_c, 0, 64, 93
1, 100144, Control_c, 0, 64, 112
1, 100159, Control_c, 0, 64, 127
1, 100161, Note_off_c, 0, 61, 37
1, 100164, Note_off_c, 0, 58, 33
1, 100166, Note_off_c, 0, 54, 38
1, 100166, Note_off_c, 0, 64, 43
1, 100301, Note_on_c, 0, 87, 87
1, 100302, Note_on_c, 0, 58, 53
1, 100304, Note_on_c, 0, 64, 57
1, 100316, Note_on_c, 0, 61, 46
1, 100322, Note_on_c, 0, 54, 39
1, 100351, Note_off_c, 0, 90, 64
1, 100373, Note_off_c, 0, 54, 54
1, 100375, Note_off_c, 0, 61, 52
1, 100396, Note_off_c, 0, 64, 49
1, 100418, Note_off_c, 0, 58, 36
1, 100712, Note_on_c, 0, 88, 86
1, 100724, Note_on_c, 0, 58, 50
1, 100726, Note_on_c, 0, 54, 47
1, 100730, Note_on_c, 0, 64, 44
1, 100740, Note_on_c, 0, 61, 43
1, 100849, Note_off_c, 0, 54, 33
1, 100885, Note_off_c, 0, 58, 32
1, 100902, Note_off_c, 0, 64, 39
1, 100928, Note_off_c, 0, 61, 22
1, 100942, Note_on_c, 0, 82, 84
1, 100978, Note_off_c, 0, 87, 16
1, 100993, Note_off_c, 0, 88, 60
1, 101279, Note_on_c, 0, 64, 47
1, 101281, Note_on_c, 0, 58, 49
1, 101281, Note_on_c, 0, 85, 78
1, 101301, Control_c, 0, 64, 122
1, 101307, Note_on_c, 0, 61, 42
1, 101316, Control_c, 0, 64, 94
1, 101323, Note_on_c, 0, 55, 40
1, 101331, Control_c, 0, 64, 75
1, 101346, Control_c, 0, 64, 57
1, 101353, Note_off_c, 0, 82, 58
1, 101360, Control_c, 0, 64, 0
1, 101449, Control_c, 0, 64, 27
1, 101464, Control_c, 0, 64, 56
1, 101478, Control_c, 0, 64, 67
1, 101493, Control_c, 0, 64, 75
1, 101508, Control_c, 0, 64, 85
1, 101523, Control_c, 0, 64, 94
1, 101538, Control_c, 0, 64, 103
1, 101553, Control_c, 0, 64, 112
1, 101568, Control_c, 0, 64, 127
1, 101598, Note_off_c, 0, 61, 41
1, 101603, Note_off_c, 0, 55, 40
1, 101616, Note_off_c, 0, 64, 37
1, 101616, Note_off_c, 0, 58, 30
1, 101642, Control_c, 0, 67, 8
1, 101657, Control_c, 0, 67, 9
1, 101672, Control_c, 0, 67, 11
1, 101687, Control_c, 0, 67, 12
1, 101702, Control_c, 0, 67, 14
1, 101717, Control_c, 0, 67, 16
1, 101732, Control_c, 0, 67, 18
1, 101747, Control_c, 0, 67, 21
1, 101754, Note_on_c, 0, 64, 46
1, 101757, Note_on_c, 0, 58, 43
1, 101762, Control_c, 0, 67, 26
1, 101776, Control_c, 0, 67, 30
1, 101778, Note_on_c, 0, 61, 29
1, 101779, Note_on_c, 0, 55, 34
1, 101791, Control_c, 0, 67, 34
1, 101806, Note_off_c, 0, 58, 57
1, 101806, Control_c, 0, 67, 38
1, 101821, Control_c, 0, 67, 41
1, 101824, Note_off_c, 0, 64, 53
1, 101826, Note_off_c, 0, 55, 58
1, 101829, Note_off_c, 0, 61, 46
1, 101836, Control_c, 0, 67, 46
1, 101850, Control_c, 0, 67, 50
1, 101865, Control_c, 0, 67, 55
1, 101880, Control_c, 0, 67, 58
1, 101894, Control_c, 0, 67, 62
1, 101909, Control_c, 0, 67, 65
1, 101924, Control_c, 0, 67, 68
1, 101939, Control_c, 0, 67, 71
1, 101954, Control_c, 0, 67, 75
1, 101968, Control_c, 0, 67, 79
1, 101983, Control_c, 0, 67, 83
1, 101998, Control_c, 0, 67, 86
1, 102013, Control_c, 0, 67, 89
1, 102028, Control_c, 0, 67, 91
1, 102050, Control_c, 0, 67, 92
1, 102065, Control_c, 0, 67, 94
1, 102080, Control_c, 0, 67, 96
1, 102095, Control_c, 0, 67, 97
1, 102109, Control_c, 0, 67, 100
1, 102124, Control_c, 0, 67, 103
1, 102139, Control_c, 0, 67, 107
1, 102144, Note_on_c, 0, 64, 41
1, 102154, Control_c, 0, 67, 110
1, 102155, Note_on_c, 0, 55, 41
1, 102169, Control_c, 0, 67, 113
1, 102175, Note_on_c, 0, 58, 14
1, 102183, Control_c, 0, 67, 116
1, 102186, Note_on_c, 0, 61, 11
1, 102198, Control_c, 0, 67, 119
1, 102207, Note_off_c, 0, 55, 57
1, 102213, Control_c, 0, 67, 122
1, 102217, Note_off_c, 0, 64, 52
1, 102226, Note_off_c, 0, 58, 50
1, 102228, Control_c, 0, 67, 125
1, 102243, Note_off_c, 0, 61, 49
1, 102243, Control_c, 0, 67, 127
1, 102480, Control_c, 0, 64, 110
1, 102495, Control_c, 0, 64, 86
1, 102510, Control_c, 0, 64, 64
1, 102514, Note_on_c, 0, 54, 41
1, 102515, Note_on_c, 0, 64, 37
1, 102523, Note_on_c, 0, 61, 33
1, 102524, Note_on_c, 0, 58, 31
1, 102525, Control_c, 0, 64, 12
1, 102540, Control_c, 0, 64, 0
1, 102584, Control_c, 0, 64, 30
1, 102599, Control_c, 0, 64, 48
1, 102614, Control_c, 0, 64, 60
1, 102629, Control_c, 0, 64, 65
1, 102644, Control_c, 0, 64, 70
1, 102648, Note_off_c, 0, 58, 31
1, 102659, Control_c, 0, 64, 76
1, 102673, Control_c, 0, 64, 82
1, 102683, Note_off_c, 0, 64, 43
1, 102686, Note_off_c, 0, 54, 36
1, 102688, Control_c, 0, 64, 87
1, 102691, Note_off_c, 0, 61, 41
1, 102703, Control_c, 0, 64, 92
1, 102718, Control_c, 0, 64, 96
1, 102732, Control_c, 0, 64, 99
1, 102747, Control_c, 0, 64, 103
1, 102762, Control_c, 0, 64, 106
1, 102777, Control_c, 0, 64, 109
1, 102792, Control_c, 0, 64, 111
1, 102814, Control_c, 0, 64, 114
1, 102829, Control_c, 0, 64, 115
1, 102844, Control_c, 0, 64, 119
1, 102859, Control_c, 0, 64, 127
1, 102875, Note_on_c, 0, 64, 28
1, 102890, Note_on_c, 0, 61, 36
1, 102896, Note_on_c, 0, 54, 29
1, 102917, Note_on_c, 0, 58, 22
1, 102946, Note_off_c, 0, 54, 56
1, 102960, Note_off_c, 0, 64, 39
1, 102963, Note_off_c, 0, 58, 50
1, 102972, Note_off_c, 0, 61, 39
1, 103255, Note_on_c, 0, 66, 36
1, 103264, Note_on_c, 0, 54, 31
1, 103265, Note_on_c, 0, 58, 36
1, 103297, Note_on_c, 0, 61, 17
1, 103306, Note_off_c, 0, 54, 50
1, 103312, Note_off_c, 0, 58, 51
1, 103341, Note_off_c, 0, 61, 51
1, 103402, Note_off_c, 0, 66, 30
1, 103681, Control_c, 0, 64, 113
1, 103696, Control_c, 0, 64, 101
1, 103711, Control_c, 0, 64, 89
1, 103721, Note_on_c, 0, 59, 34
1, 103721, Note_on_c, 0, 66, 30
1, 103721, Note_on_c, 0, 83, 44
1, 103723, Note_on_c, 0, 63, 32
1, 103726, Control_c, 0, 64, 76
1, 103741, Control_c, 0, 64, 64
1, 103755, Control_c, 0, 64, 0
1, 103795, Note_off_c, 0, 85, 57
1, 103859, Control_c, 0, 64, 36
1, 103873, Control_c, 0, 64, 57
1, 103888, Control_c, 0, 64, 64
1, 103903, Control_c, 0, 64, 69
1, 103918, Control_c, 0, 64, 75
1, 103933, Control_c, 0, 64, 82
1, 103935, Note_off_c, 0, 63, 44
1, 103947, Control_c, 0, 64, 91
1, 103949, Note_off_c, 0, 66, 43
1, 103950, Note_off_c, 0, 59, 41
1, 103962, Control_c, 0, 64, 99
1, 103977, Control_c, 0, 64, 105
1, 103992, Control_c, 0, 64, 111
1, 104007, Control_c, 0, 64, 119
1, 104021, Control_c, 0, 64, 127
1, 104110, Note_on_c, 0, 66, 31
1, 104114, Note_off_c, 0, 83, 57
1, 104117, Note_on_c, 0, 59, 25
1, 104131, Note_on_c, 0, 63, 26
1, 104183, Note_off_c, 0, 63, 46
1, 104197, Note_off_c, 0, 59, 40
1, 104218, Note_off_c, 0, 66, 35
1, 104462, Note_on_c, 0, 66, 27
1, 104472, Note_on_c, 0, 59, 27
1, 104483, Note_on_c, 0, 63, 24
1, 104540, Note_off_c, 0, 63, 43
1, 104548, Note_off_c, 0, 66, 38
1, 104563, Note_off_c, 0, 59, 36
1, 104824, Note_on_c, 0, 75, 55
1, 104857, Note_on_c, 0, 59, 31
1, 104857, Note_on_c, 0, 66, 27
1, 104860, Note_on_c, 0, 63, 25
1, 104945, Note_off_c, 0, 63, 37
1, 104949, Note_off_c, 0, 66, 35
1, 104956, Note_off_c, 0, 59, 38
1, 105215, Note_on_c, 0, 66, 23
1, 105221, Note_on_c, 0, 63, 25
1, 105222, Note_on_c, 0, 59, 29
1, 105264, Note_off_c, 0, 66, 46
1, 105270, Note_off_c, 0, 63, 46
1, 105276, Note_off_c, 0, 59, 44
1, 105555, Note_on_c, 0, 66, 34
1, 105559, Note_on_c, 0, 59, 36
1, 105574, Note_on_c, 0, 63, 22
1, 105613, Note_off_c, 0, 59, 55
1, 105631, Note_off_c, 0, 63, 44
1, 105644, Note_off_c, 0, 66, 36
1, 106019, Note_on_c, 0, 66, 40
1, 106020, Note_on_c, 0, 60, 50
1, 106030, Control_c, 0, 64, 106
1, 106045, Control_c, 0, 64, 88
1, 106048, Note_on_c, 0, 63, 31
1, 106060, Control_c, 0, 64, 72
1, 106074, Control_c, 0, 64, 54
1, 106089, Control_c, 0, 64, 0
1, 106099, Note_off_c, 0, 63, 43
1, 106163, Control_c, 0, 64, 21
1, 106178, Control_c, 0, 64, 52
1, 106193, Control_c, 0, 64, 64
1, 106208, Control_c, 0, 64, 70
1, 106222, Control_c, 0, 64, 80
1, 106237, Control_c, 0, 64, 87
1, 106252, Control_c, 0, 64, 92
1, 106266, Control_c, 0, 64, 97
1, 106281, Note_off_c, 0, 66, 40
1, 106281, Control_c, 0, 64, 102
1, 106291, Note_off_c, 0, 60, 38
1, 106296, Control_c, 0, 64, 108
1, 106311, Control_c, 0, 64, 115
1, 106326, Control_c, 0, 64, 127
1, 106491, Note_on_c, 0, 66, 27
1, 106497, Note_on_c, 0, 63, 31
1, 106498, Note_on_c, 0, 60, 30
1, 106567, Note_off_c, 0, 63, 41
1, 106570, Note_off_c, 0, 60, 47
1, 106570, Note_off_c, 0, 66, 42
1, 106821, Note_on_c, 0, 63, 36
1, 106825, Note_on_c, 0, 66, 39
1, 106849, Note_on_c, 0, 60, 33
1, 106880, Note_off_c, 0, 66, 53
1, 106880, Note_off_c, 0, 63, 49
1, 106892, Note_off_c, 0, 60, 48
1, 107152, Note_on_c, 0, 69, 60
1, 107157, Note_on_c, 0, 63, 34
1, 107180, Note_on_c, 0, 66, 32
1, 107194, Note_on_c, 0, 60, 30
1, 107321, Note_off_c, 0, 66, 31
1, 107324, Note_off_c, 0, 63, 42
1, 107345, Note_off_c, 0, 60, 32
1, 107397, Note_off_c, 0, 75, 34
1, 107518, Note_on_c, 0, 63, 34
1, 107527, Note_on_c, 0, 66, 36
1, 107541, Note_on_c, 0, 60, 28
1, 107603, Note_off_c, 0, 66, 53
1, 107617, Note_off_c, 0, 60, 49
1, 107620, Note_off_c, 0, 63, 38
1, 107851, Note_on_c, 0, 63, 39
1, 107852, Note_on_c, 0, 66, 41
1, 107876, Note_on_c, 0, 60, 29
1, 107908, Note_off_c, 0, 66, 57
1, 107910, Note_off_c, 0, 63, 54
1, 107930, Note_off_c, 0, 60, 44
1, 108049, Poly_aftertouch_c, 0, 73, 127
1, 108188, Control_c, 0, 64, 107
1, 108195, Note_on_c, 0, 68, 60
1, 108197, Poly_aftertouch_c, 0, 73, 0
1, 108203, Control_c, 0, 64, 89
1, 108216, Note_on_c, 0, 63, 35
1, 108218, Control_c, 0, 64, 70
1, 108222, Note_on_c, 0, 66, 36
1, 108233, Control_c, 0, 64, 47
1, 108248, Control_c, 0, 64, 0
1, 108255, Note_on_c, 0, 60, 22
1, 108280, Note_off_c, 0, 69, 63
1, 108337, Control_c, 0, 64, 49
1, 108351, Control_c, 0, 64, 63
1, 108366, Control_c, 0, 64, 70
1, 108381, Control_c, 0, 64, 78
1, 108396, Control_c, 0, 64, 87
1, 108411, Control_c, 0, 64, 96
1, 108425, Control_c, 0, 64, 103
1, 108430, Note_off_c, 0, 66, 37
1, 108435, Note_off_c, 0, 60, 44
1, 108436, Note_off_c, 0, 63, 36
1, 108440, Control_c, 0, 64, 112
1, 108455, Control_c, 0, 64, 127
1, 108552, Note_on_c, 0, 66, 46
1, 108564, Note_on_c, 0, 63, 43
1, 108569, Note_on_c, 0, 60, 34
1, 108617, Note_off_c, 0, 63, 55
1, 108621, Note_off_c, 0, 60, 50
1, 108641, Note_off_c, 0, 66, 38
1, 108880, Note_on_c, 0, 63, 47
1, 108882, Note_on_c, 0, 66, 48
1, 108912, Note_on_c, 0, 60, 30
1, 108945, Note_off_c, 0, 66, 53
1, 108952, Note_off_c, 0, 63, 46
1, 108960, Note_off_c, 0, 60, 47
1, 109083, Note_off_c, 0, 68, 52
1, 109208, Note_on_c, 0, 78, 69
1, 109227, Note_on_c, 0, 68, 45
1, 109233, Note_on_c, 0, 60, 34
1, 109235, Note_on_c, 0, 66, 43
1, 109250, Note_on_c, 0, 63, 25
1, 109296, Note_off_c, 0, 68, 50
1, 109302, Note_off_c, 0, 66, 54
1, 109326, Note_off_c, 0, 63, 38
1, 109351, Note_off_c, 0, 60, 36
1, 109569, Note_on_c, 0, 63, 42
1, 109581, Note_on_c, 0, 60, 37
1, 109583, Note_on_c, 0, 68, 36
1, 109587, Note_on_c, 0, 66, 36
1, 109628, Note_off_c, 0, 68, 49
1, 109631, Note_off_c, 0, 63, 54
1, 109632, Note_off_c, 0, 66, 47
1, 109641, Note_off_c, 0, 60, 51
1, 109862, Note_on_c, 0, 60, 45
1, 109864, Note_on_c, 0, 75, 71
1, 109870, Note_on_c, 0, 63, 39
1, 109903, Note_on_c, 0, 68, 33
1, 109911, Note_on_c, 0, 66, 31
1, 109913, Note_off_c, 0, 60, 57
1, 109913, Note_off_c, 0, 78, 60
1, 109923, Note_off_c, 0, 63, 56
1, 109984, Note_off_c, 0, 68, 42
1, 110049, Note_off_c, 0, 66, 25
1, 110280, Note_on_c, 0, 78, 71
1, 110293, Note_on_c, 0, 64, 46
1, 110301, Control_c, 0, 64, 108
1, 110305, Note_on_c, 0, 61, 40
1, 110305, Note_on_c, 0, 68, 43
1, 110314, Note_off_c, 0, 75, 58
1, 110315, Control_c, 0, 64, 86
1, 110330, Control_c, 0, 64, 69
1, 110345, Control_c, 0, 64, 42
1, 110360, Control_c, 0, 64, 0
1, 110448, Control_c, 0, 64, 22
1, 110465, Control_c, 0, 64, 52
1, 110480, Control_c, 0, 64, 63
1, 110494, Control_c, 0, 64, 69
1, 110504, Note_off_c, 0, 64, 58
1, 110505, Note_off_c, 0, 68, 50
1, 110509, Control_c, 0, 64, 77
1, 110524, Control_c, 0, 64, 84
1, 110531, Note_off_c, 0, 61, 41
1, 110538, Control_c, 0, 64, 90
1, 110553, Control_c, 0, 64, 95
1, 110568, Control_c, 0, 64, 100
1, 110583, Control_c, 0, 64, 106
1, 110598, Control_c, 0, 64, 113
1, 110612, Control_c, 0, 64, 127
1, 110669, Note_on_c, 0, 61, 39
1, 110678, Note_on_c, 0, 64, 36
1, 110678, Note_on_c, 0, 68, 36
1, 110733, Note_off_c, 0, 68, 56
1, 110743, Note_off_c, 0, 61, 41
1, 110743, Note_off_c, 0, 64, 56
1, 110988, Note_on_c, 0, 64, 40
1, 110997, Note_on_c, 0, 61, 37
1, 111009, Note_on_c, 0, 68, 29
1, 111058, Note_off_c, 0, 64, 56
1, 111065, Note_off_c, 0, 68, 46
1, 111100, Note_off_c, 0, 61, 38
1, 111321, Note_on_c, 0, 76, 54
1, 111345, Note_on_c, 0, 64, 39
1, 111348, Note_on_c, 0, 68, 35
1, 111355, Note_off_c, 0, 78, 54
1, 111365, Note_on_c, 0, 61, 38
1, 111384, Note_off_c, 0, 68, 53
1, 111403, Note_off_c, 0, 64, 59
1, 111423, Note_off_c, 0, 61, 59
1, 111702, Control_c, 0, 64, 108
1, 111717, Control_c, 0, 64, 87
1, 111726, Note_on_c, 0, 68, 41
1, 111732, Control_c, 0, 64, 70
1, 111735, Note_on_c, 0, 61, 28
1, 111736, Note_on_c, 0, 56, 35
1, 111740, Note_on_c, 0, 49, 33
1, 111747, Control_c, 0, 64, 49
1, 111761, Control_c, 0, 64, 0
1, 111798, Control_c, 0, 64, 9
1, 111813, Control_c, 0, 64, 32
1, 111828, Control_c, 0, 64, 47
1, 111843, Control_c, 0, 64, 59
1, 111849, Note_off_c, 0, 56, 36
1, 111858, Control_c, 0, 64, 65
1, 111873, Control_c, 0, 64, 70
1, 111873, Note_off_c, 0, 49, 32
1, 111876, Note_off_c, 0, 68, 35
1, 111887, Control_c, 0, 64, 76
1, 111888, Note_off_c, 0, 61, 41
1, 111902, Control_c, 0, 64, 83
1, 111917, Control_c, 0, 64, 88
1, 111932, Control_c, 0, 64, 94
1, 111947, Control_c, 0, 64, 98
1, 111961, Control_c, 0, 64, 102
1, 111976, Control_c, 0, 64, 105
1, 111991, Control_c, 0, 64, 108
1, 112006, Control_c, 0, 64, 110
1, 112020, Control_c, 0, 64, 113
1, 112035, Control_c, 0, 64, 115
1, 112050, Control_c, 0, 64, 120
1, 112061, Note_on_c, 0, 68, 40
1, 112066, Control_c, 0, 64, 127
1, 112069, Note_on_c, 0, 49, 39
1, 112070, Note_on_c, 0, 61, 27
1, 112082, Note_on_c, 0, 56, 38
1, 112124, Note_off_c, 0, 68, 56
1, 112133, Note_off_c, 0, 56, 55
1, 112134, Note_off_c, 0, 49, 47
1, 112162, Note_off_c, 0, 61, 35
1, 112383, Note_on_c, 0, 68, 45
1, 112389, Note_on_c, 0, 49, 42
1, 112400, Note_on_c, 0, 56, 29
1, 112406, Note_on_c, 0, 61, 22
1, 112439, Note_off_c, 0, 68, 58
1, 112467, Note_off_c, 0, 56, 41
1, 112471, Note_off_c, 0, 49, 47
1, 112473, Note_off_c, 0, 61, 39
1, 112720, Note_on_c, 0, 68, 40
1, 112743, Note_on_c, 0, 49, 39
1, 112756, Note_on_c, 0, 61, 26
1, 112757, Note_on_c, 0, 56, 20
1, 112761, Note_off_c, 0, 68, 50
1, 112815, Note_off_c, 0, 56, 44
1, 112825, Note_off_c, 0, 49, 48
1, 112838, Note_off_c, 0, 61, 36
1, 113047, Note_on_c, 0, 49, 31
1, 113047, Note_on_c, 0, 68, 43
1, 113061, Note_on_c, 0, 56, 38
1, 113077, Note_on_c, 0, 61, 17
1, 113104, Note_off_c, 0, 49, 42
1, 113115, Note_off_c, 0, 56, 55
1, 113116, Note_off_c, 0, 68, 52
1, 113120, Note_off_c, 0, 61, 49
1, 113430, Control_c, 0, 64, 101
1, 113435, Note_on_c, 0, 75, 70
1, 113441, Note_on_c, 0, 59, 43
1, 113444, Note_on_c, 0, 56, 41
1, 113445, Control_c, 0, 64, 84
1, 113456, Note_on_c, 0, 68, 43
1, 113459, Control_c, 0, 64, 66
1, 113464, Note_on_c, 0, 51, 32
1, 113474, Control_c, 0, 64, 28
1, 113484, Note_off_c, 0, 76, 59
1, 113489, Control_c, 0, 64, 0
1, 113563, Control_c, 0, 64, 36
1, 113578, Control_c, 0, 64, 56
1, 113593, Control_c, 0, 64, 64
1, 113608, Control_c, 0, 64, 70
1, 113623, Control_c, 0, 64, 76
1, 113638, Control_c, 0, 64, 84
1, 113652, Control_c, 0, 64, 90
1, 113668, Control_c, 0, 64, 95
1, 113675, Note_off_c, 0, 68, 31
1, 113682, Control_c, 0, 64, 99
1, 113697, Control_c, 0, 64, 103
1, 113703, Note_off_c, 0, 59, 41
1, 113710, Note_off_c, 0, 56, 29
1, 113712, Control_c, 0, 64, 108
1, 113723, Note_off_c, 0, 51, 42
1, 113727, Control_c, 0, 64, 115
1, 113742, Control_c, 0, 64, 127
1, 113883, Note_on_c, 0, 51, 33
1, 113885, Note_on_c, 0, 56, 38
1, 113891, Note_on_c, 0, 68, 40
1, 113899, Note_on_c, 0, 59, 36
1, 113940, Note_off_c, 0, 68, 45
1, 113968, Note_off_c, 0, 59, 48
1, 113979, Note_off_c, 0, 56, 45
1, 113985, Note_off_c, 0, 51, 0
1, 114049, Poly_aftertouch_c, 0, 51, 0
1, 114191, Note_on_c, 0, 56, 38
1, 114207, Note_on_c, 0, 59, 50
1, 114210, Note_on_c, 0, 68, 46
1, 114236, Note_off_c, 0, 56, 59
1, 114243, Poly_aftertouch_c, 0, 51, 127
1, 114244, Note_off_c, 0, 59, 63
1, 114257, Note_off_c, 0, 68, 57
1, 114281, Poly_aftertouch_c, 0, 51, 0
1, 114565, Control_c, 0, 64, 118
1, 114573, Note_on_c, 0, 61, 62
1, 114579, Control_c, 0, 64, 102
1, 114587, Note_on_c, 0, 56, 50
1, 114594, Control_c, 0, 64, 87
1, 114609, Control_c, 0, 64, 74
1, 114610, Note_on_c, 0, 52, 42
1, 114624, Control_c, 0, 64, 60
1, 114624, Note_on_c, 0, 68, 30
1, 114639, Control_c, 0, 64, 0
1, 114727, Control_c, 0, 64, 45
1, 114742, Control_c, 0, 64, 59
1, 114757, Control_c, 0, 64, 66
1, 114772, Control_c, 0, 64, 73
1, 114794, Control_c, 0, 64, 81
1, 114809, Control_c, 0, 64, 89
1, 114824, Control_c, 0, 64, 95
1, 114833, Note_off_c, 0, 68, 40
1, 114838, Control_c, 0, 64, 100
1, 114852, Note_off_c, 0, 52, 38
1, 114853, Control_c, 0, 64, 105
1, 114868, Control_c, 0, 64, 110
1, 114883, Control_c, 0, 64, 117
1, 114890, Note_off_c, 0, 56, 25
1, 114898, Control_c, 0, 64, 127
1, 114916, Note_off_c, 0, 61, 37
1, 115068, Note_on_c, 0, 61, 43
1, 115084, Note_on_c, 0, 56, 28
1, 115097, Note_on_c, 0, 68, 37
1, 115114, Note_on_c, 0, 52, 18
1, 115151, Note_off_c, 0, 56, 41
1, 115160, Note_off_c, 0, 52, 48
1, 115160, Note_off_c, 0, 61, 40
1, 115370, Note_on_c, 0, 73, 71
1, 115381, Note_on_c, 0, 61, 47
1, 115401, Note_on_c, 0, 56, 39
1, 115402, Note_on_c, 0, 52, 21
1, 115408, Note_off_c, 0, 68, 43
1, 115423, Note_off_c, 0, 61, 60
1, 115430, Note_off_c, 0, 75, 54
1, 115435, Note_off_c, 0, 56, 54
1, 115445, Note_off_c, 0, 52, 52
1, 115751, Note_on_c, 0, 59, 63
1, 115765, Control_c, 0, 64, 105
1, 115775, Note_on_c, 0, 56, 52
1, 115776, Note_on_c, 0, 68, 41
1, 115780, Control_c, 0, 64, 85
1, 115795, Control_c, 0, 64, 68
1, 115809, Note_on_c, 0, 51, 31
1, 115809, Control_c, 0, 64, 41
1, 115824, Control_c, 0, 64, 0
1, 115898, Control_c, 0, 64, 43
1, 115913, Control_c, 0, 64, 60
1, 115927, Control_c, 0, 64, 68
1, 115942, Control_c, 0, 64, 76
1, 115945, Note_off_c, 0, 51, 27
1, 115957, Control_c, 0, 64, 84
1, 115968, Note_off_c, 0, 56, 40
1, 115971, Note_off_c, 0, 68, 44
1, 115972, Control_c, 0, 64, 91
1, 115987, Control_c, 0, 64, 97
1, 116001, Control_c, 0, 64, 102
1, 116016, Control_c, 0, 64, 107
1, 116022, Note_off_c, 0, 59, 36
1, 116031, Control_c, 0, 64, 112
1, 116047, Control_c, 0, 64, 118
1, 116062, Control_c, 0, 64, 127
1, 116134, Note_on_c, 0, 59, 48
1, 116152, Note_on_c, 0, 68, 35
1, 116162, Note_on_c, 0, 56, 23
1, 116240, Note_off_c, 0, 56, 37
1, 116299, Note_off_c, 0, 59, 40
1, 116428, Note_on_c, 0, 71, 71
1, 116437, Note_off_c, 0, 68, 47
1, 116452, Note_on_c, 0, 59, 55
1, 116460, Note_on_c, 0, 56, 34
1, 116479, Note_on_c, 0, 51, 25
1, 116502, Note_off_c, 0, 56, 55
1, 116514, Note_off_c, 0, 59, 58
1, 116521, Note_off_c, 0, 51, 52
1, 116529, Note_off_c, 0, 73, 55
1, 116781, Control_c, 0, 64, 113
1, 116785, Note_on_c, 0, 58, 64
1, 116796, Control_c, 0, 64, 89
1, 116797, Note_on_c, 0, 52, 57
1, 116810, Control_c, 0, 64, 69
1, 116825, Control_c, 0, 64, 43
1, 116839, Note_on_c, 0, 49, 32
1, 116840, Control_c, 0, 64, 0
1, 116900, Control_c, 0, 64, 15
1, 116915, Control_c, 0, 64, 44
1, 116930, Control_c, 0, 64, 58
1, 116945, Control_c, 0, 64, 64
1, 116960, Control_c, 0, 64, 69
1, 116974, Control_c, 0, 64, 76
1, 116989, Control_c, 0, 64, 81
1, 116992, Note_off_c, 0, 49, 30
1, 117004, Control_c, 0, 64, 86
1, 117026, Control_c, 0, 64, 90
1, 117041, Control_c, 0, 64, 93
1, 117053, Note_off_c, 0, 52, 36
1, 117056, Control_c, 0, 64, 97
1, 117071, Control_c, 0, 64, 100
1, 117086, Control_c, 0, 64, 103
1, 117096, Note_off_c, 0, 58, 35
1, 117101, Control_c, 0, 64, 106
1, 117115, Control_c, 0, 64, 109
1, 117130, Control_c, 0, 64, 112
1, 117145, Control_c, 0, 64, 113
1, 117160, Control_c, 0, 64, 114
1, 117175, Control_c, 0, 64, 115
1, 117189, Control_c, 0, 64, 117
1, 117200, Note_on_c, 0, 58, 41
1, 117204, Control_c, 0, 64, 118
1, 117211, Note_on_c, 0, 52, 41
1, 117219, Control_c, 0, 64, 120
1, 117233, Control_c, 0, 64, 121
1, 117248, Control_c, 0, 64, 123
1, 117258, Note_on_c, 0, 49, 16
1, 117263, Control_c, 0, 64, 125
1, 117278, Control_c, 0, 64, 127
1, 117288, Note_off_c, 0, 52, 41
1, 117314, Note_off_c, 0, 49, 45
1, 117327, Note_off_c, 0, 58, 32
1, 117493, Note_on_c, 0, 70, 72
1, 117500, Note_on_c, 0, 58, 42
1, 117507, Note_on_c, 0, 52, 39
1, 117534, Note_off_c, 0, 71, 63
1, 117545, Note_off_c, 0, 52, 57
1, 117692, Note_off_c, 0, 58, 36
1, 117803, Control_c, 0, 64, 118
1, 117818, Control_c, 0, 64, 94
1, 117833, Control_c, 0, 64, 71
1, 117845, Note_on_c, 0, 53, 40
1, 117847, Control_c, 0, 64, 45
1, 117849, Note_on_c, 0, 58, 44
1, 117862, Control_c, 0, 64, 0
1, 117879, Note_on_c, 0, 50, 34
1, 117907, Control_c, 0, 64, 21
1, 117921, Control_c, 0, 64, 50
1, 117936, Control_c, 0, 64, 61
1, 117951, Control_c, 0, 64, 67
1, 117966, Control_c, 0, 64, 73
1, 117981, Control_c, 0, 64, 81
1, 117996, Control_c, 0, 64, 86
1, 117999, Note_off_c, 0, 58, 58
1, 118011, Control_c, 0, 64, 92
1, 118025, Control_c, 0, 64, 96
1, 118034, Note_off_c, 0, 50, 41
1, 118039, Note_off_c, 0, 53, 31
1, 118040, Control_c, 0, 64, 100
1, 118055, Control_c, 0, 64, 104
1, 118070, Control_c, 0, 64, 107
1, 118085, Control_c, 0, 64, 109
1, 118100, Control_c, 0, 64, 111
1, 118115, Control_c, 0, 64, 112
1, 118129, Control_c, 0, 64, 113
1, 118144, Control_c, 0, 64, 113
1, 118159, Control_c, 0, 64, 114
1, 118174, Control_c, 0, 64, 115
1, 118189, Control_c, 0, 64, 115
1, 118203, Control_c, 0, 64, 117
1, 118218, Control_c, 0, 64, 118
1, 118233, Control_c, 0, 64, 119
1, 118241, Note_on_c, 0, 59, 43
1, 118243, Note_on_c, 0, 71, 70
1, 118247, Control_c, 0, 64, 120
1, 118252, Note_on_c, 0, 56, 41
1, 118262, Control_c, 0, 64, 122
1, 118273, Note_on_c, 0, 50, 31
1, 118277, Control_c, 0, 64, 127
1, 118340, Note_off_c, 0, 56, 46
1, 118415, Note_off_c, 0, 50, 41
1, 118425, Note_off_c, 0, 59, 31
1, 118434, Note_off_c, 0, 70, 38
1, 118641, Control_c, 0, 64, 110
1, 118656, Control_c, 0, 64, 89
1, 118671, Control_c, 0, 64, 69
1, 118685, Control_c, 0, 64, 0
1, 118689, Note_on_c, 0, 59, 40
1, 118696, Note_on_c, 0, 56, 39
1, 118699, Note_on_c, 0, 68, 64
1, 118702, Note_on_c, 0, 50, 36
1, 118745, Note_off_c, 0, 71, 62
1, 118759, Control_c, 0, 64, 20
1, 118774, Control_c, 0, 64, 56
1, 118789, Control_c, 0, 64, 66
1, 118804, Control_c, 0, 64, 74
1, 118818, Control_c, 0, 64, 84
1, 118825, Note_off_c, 0, 50, 46
1, 118833, Control_c, 0, 64, 93
1, 118848, Control_c, 0, 64, 101
1, 118863, Control_c, 0, 64, 109
1, 118878, Control_c, 0, 64, 119
1, 118880, Note_off_c, 0, 68, 64
1, 118893, Control_c, 0, 64, 127
1, 118895, Note_off_c, 0, 59, 52
1, 118940, Note_off_c, 0, 56, 28
1, 119123, Note_on_c, 0, 68, 58
1, 119131, Control_c, 0, 64, 113
1, 119145, Control_c, 0, 64, 90
1, 119150, Note_on_c, 0, 59, 37
1, 119153, Note_on_c, 0, 56, 36
1, 119160, Control_c, 0, 64, 68
1, 119175, Control_c, 0, 64, 38
1, 119190, Control_c, 0, 64, 0
1, 119192, Note_on_c, 0, 51, 10
1, 119250, Control_c, 0, 64, 39
1, 119265, Control_c, 0, 64, 56
1, 119287, Control_c, 0, 64, 64
1, 119301, Control_c, 0, 64, 70
1, 119316, Control_c, 0, 64, 76
1, 119331, Control_c, 0, 64, 83
1, 119346, Control_c, 0, 64, 88
1, 119355, Note_off_c, 0, 51, 39
1, 119361, Control_c, 0, 64, 92
1, 119363, Note_off_c, 0, 59, 41
1, 119370, Note_off_c, 0, 56, 40
1, 119376, Control_c, 0, 64, 95
1, 119391, Control_c, 0, 64, 99
1, 119406, Control_c, 0, 64, 102
1, 119420, Control_c, 0, 64, 106
1, 119435, Control_c, 0, 64, 112
1, 119450, Control_c, 0, 64, 117
1, 119465, Control_c, 0, 64, 121
1, 119480, Control_c, 0, 64, 127
1, 119502, Note_on_c, 0, 56, 43
1, 119505, Note_on_c, 0, 59, 38
1, 119522, Note_on_c, 0, 51, 29
1, 119558, Note_off_c, 0, 56, 57
1, 119558, Note_off_c, 0, 59, 56
1, 119567, Note_off_c, 0, 51, 47
1, 119842, Note_on_c, 0, 59, 28
1, 119849, Note_on_c, 0, 56, 30
1, 119864, Note_on_c, 0, 51, 11
1, 119909, Note_off_c, 0, 56, 48
1, 119927, Note_off_c, 0, 59, 37
1, 119928, Note_off_c, 0, 51, 43
1, 120157, Note_on_c, 0, 62, 50
1, 120174, Note_on_c, 0, 51, 33
1, 120176, Note_on_c, 0, 59, 34
1, 120267, Note_off_c, 0, 51, 35
1, 120288, Note_off_c, 0, 59, 33
1, 120291, Note_off_c, 0, 62, 29
1, 120494, Note_on_c, 0, 62, 33
1, 120506, Note_on_c, 0, 59, 22
1, 120520, Note_on_c, 0, 51, 28
1, 120577, Note_off_c, 0, 51, 42
1, 120601, Note_off_c, 0, 59, 35
1, 120605, Note_off_c, 0, 62, 29
1, 120833, Note_on_c, 0, 51, 32
1, 120836, Note_on_c, 0, 62, 28
1, 120867, Note_on_c, 0, 59, 18
1, 120904, Note_off_c, 0, 51, 42
1, 120930, Note_off_c, 0, 59, 43
1, 121057, Note_off_c, 0, 62, 31
1, 121169, Control_c, 0, 64, 116
1, 121184, Control_c, 0, 64, 97
1, 121188, Note_on_c, 0, 67, 47
1, 121197, Note_on_c, 0, 58, 39
1, 121198, Control_c, 0, 64, 81
1, 121203, Note_on_c, 0, 63, 31
1, 121213, Control_c, 0, 64, 67
1, 121218, Note_on_c, 0, 51, 24
1, 121228, Control_c, 0, 64, 43
1, 121243, Control_c, 0, 64, 0
1, 121306, Note_off_c, 0, 68, 44
1, 121346, Control_c, 0, 64, 37
1, 121361, Control_c, 0, 64, 57
1, 121368, Note_off_c, 0, 51, 45
1, 121376, Control_c, 0, 64, 64
1, 121391, Control_c, 0, 64, 68
1, 121406, Control_c, 0, 64, 73
1, 121421, Control_c, 0, 64, 79
1, 121436, Control_c, 0, 64, 85
1, 121450, Control_c, 0, 64, 89
1, 121465, Control_c, 0, 64, 92
1, 121480, Control_c, 0, 64, 95
1, 121495, Control_c, 0, 64, 97
1, 121510, Control_c, 0, 64, 100
1, 121527, Note_on_c, 0, 51, 38
1, 121532, Control_c, 0, 64, 102
1, 121538, Note_off_c, 0, 63, 42
1, 121546, Control_c, 0, 64, 105
1, 121561, Control_c, 0, 64, 108
1, 121576, Control_c, 0, 64, 110
1, 121591, Control_c, 0, 64, 112
1, 121605, Control_c, 0, 64, 114
1, 121620, Control_c, 0, 64, 117
1, 121630, Note_off_c, 0, 51, 37
1, 121635, Control_c, 0, 64, 120
1, 121651, Control_c, 0, 64, 122
1, 121666, Control_c, 0, 64, 127
1, 121839, Note_on_c, 0, 51, 47
1, 121882, Note_off_c, 0, 58, 44
1, 121920, Note_off_c, 0, 51, 58
1, 122162, Note_on_c, 0, 63, 42
1, 122176, Note_on_c, 0, 51, 33
1, 122300, Note_off_c, 0, 51, 36
1, 122497, Note_on_c, 0, 51, 42
1, 122575, Note_off_c, 0, 51, 49
1, 122862, Note_on_c, 0, 51, 38
1, 122866, Note_on_c, 0, 49, 45
1, 123192, Note_off_c, 0, 51, 11
1, 123233, Note_off_c, 0, 49, 36
1, 123433, Note_on_c, 0, 68, 63
1, 123446, Control_c, 0, 64, 109
1, 123460, Control_c, 0, 64, 98
1, 123470, Note_off_c, 0, 63, 42
1, 123472, Note_on_c, 0, 51, 37
1, 123475, Note_on_c, 0, 47, 37
1, 123475, Control_c, 0, 64, 86
1, 123490, Control_c, 0, 64, 73
1, 123500, Note_off_c, 0, 67, 42
1, 123505, Control_c, 0, 64, 61
1, 123520, Control_c, 0, 64, 30
1, 123534, Control_c, 0, 64, 0
1, 123594, Control_c, 0, 64, 19
1, 123609, Control_c, 0, 64, 46
1, 123624, Control_c, 0, 64, 62
1, 123638, Control_c, 0, 64, 67
1, 123653, Control_c, 0, 64, 73
1, 123668, Control_c, 0, 64, 79
1, 123683, Control_c, 0, 64, 85
1, 123698, Control_c, 0, 64, 90
1, 123713, Control_c, 0, 64, 95
1, 123718, Note_off_c, 0, 47, 40
1, 123728, Control_c, 0, 64, 100
1, 123742, Control_c, 0, 64, 104
1, 123757, Control_c, 0, 64, 109
1, 123776, Note_off_c, 0, 51, 39
1, 123779, Control_c, 0, 64, 114
1, 123793, Control_c, 0, 64, 121
1, 123808, Control_c, 0, 64, 127
1, 123974, Note_on_c, 0, 62, 38
1, 123977, Note_on_c, 0, 51, 21
1, 123978, Note_on_c, 0, 47, 35
1, 124029, Note_off_c, 0, 62, 57
1, 124043, Note_off_c, 0, 47, 53
1, 124088, Note_off_c, 0, 51, 33
1, 124287, Note_on_c, 0, 62, 48
1, 124291, Note_on_c, 0, 47, 37
1, 124296, Note_on_c, 0, 51, 28
1, 124348, Note_off_c, 0, 62, 55
1, 124372, Note_off_c, 0, 51, 39
1, 124378, Note_off_c, 0, 47, 38
1, 124608, Note_on_c, 0, 47, 41
1, 124610, Note_on_c, 0, 62, 54
1, 124622, Note_on_c, 0, 51, 34
1, 124799, Note_off_c, 0, 47, 43
1, 124810, Note_off_c, 0, 51, 42
1, 124920, Note_on_c, 0, 63, 68
1, 124936, Note_on_c, 0, 51, 43
1, 124937, Note_on_c, 0, 47, 42
1, 124956, Note_off_c, 0, 62, 58
1, 124998, Note_off_c, 0, 51, 51
1, 125018, Note_off_c, 0, 63, 60
1, 125083, Note_off_c, 0, 47, 30
1, 125245, Note_on_c, 0, 63, 68
1, 125247, Note_on_c, 0, 47, 41
1, 125275, Note_on_c, 0, 51, 40
1, 125367, Note_off_c, 0, 47, 53
1, 125412, Note_off_c, 0, 51, 28
1, 125637, Note_on_c, 0, 46, 43
1, 125642, Note_on_c, 0, 67, 66
1, 125645, Note_on_c, 0, 51, 39
1, 125650, Note_on_c, 0, 64, 61
1, 125662, Control_c, 0, 64, 100
1, 125677, Control_c, 0, 64, 81
1, 125692, Control_c, 0, 64, 64
1, 125701, Note_off_c, 0, 63, 48
1, 125707, Control_c, 0, 64, 0
1, 125716, Note_off_c, 0, 68, 54
1, 125796, Control_c, 0, 67, 123
1, 125810, Control_c, 0, 64, 20
1, 125810, Control_c, 0, 67, 119
1, 125825, Control_c, 0, 64, 51
1, 125825, Control_c, 0, 67, 113
1, 125840, Control_c, 0, 64, 62
1, 125840, Control_c, 0, 67, 107
1, 125855, Control_c, 0, 64, 67
1, 125855, Control_c, 0, 67, 98
1, 125870, Control_c, 0, 64, 73
1, 125870, Control_c, 0, 67, 87
1, 125885, Control_c, 0, 64, 79
1, 125885, Control_c, 0, 67, 72
1, 125900, Control_c, 0, 64, 89
1, 125900, Control_c, 0, 67, 63
1, 125915, Control_c, 0, 64, 101
1, 125915, Control_c, 0, 67, 58
1, 125930, Control_c, 0, 64, 118
1, 125930, Control_c, 0, 67, 55
1, 125944, Control_c, 0, 64, 127
1, 125944, Control_c, 0, 67, 54
1, 125959, Control_c, 0, 67, 54
1, 125961, Note_off_c, 0, 51, 40
1, 125972, Note_off_c, 0, 46, 43
1, 126070, Control_c, 0, 67, 54
1, 126085, Control_c, 0, 67, 55
1, 126100, Control_c, 0, 67, 56
1, 126115, Control_c, 0, 67, 57
1, 126130, Control_c, 0, 67, 57
1, 126135, Note_on_c, 0, 46, 29
1, 126144, Control_c, 0, 67, 58
1, 126155, Note_on_c, 0, 51, 28
1, 126159, Control_c, 0, 67, 59
1, 126174, Control_c, 0, 67, 59
1, 126188, Control_c, 0, 67, 60
1, 126203, Control_c, 0, 67, 61
1, 126218, Control_c, 0, 67, 61
1, 126231, Note_off_c, 0, 51, 39
1, 126233, Control_c, 0, 67, 62
1, 126248, Control_c, 0, 67, 63
1, 126262, Control_c, 0, 67, 63
1, 126264, Note_off_c, 0, 46, 41
1, 126277, Control_c, 0, 67, 64
1, 126292, Control_c, 0, 67, 65
1, 126307, Control_c, 0, 67, 66
1, 126322, Control_c, 0, 67, 68
1, 126336, Control_c, 0, 67, 71
1, 126351, Control_c, 0, 67, 73
1, 126366, Control_c, 0, 67, 75
1, 126381, Control_c, 0, 67, 77
1, 126396, Control_c, 0, 67, 80
1, 126411, Control_c, 0, 67, 82
1, 126426, Control_c, 0, 67, 84
1, 126441, Control_c, 0, 67, 87
1, 126456, Control_c, 0, 67, 90
1, 126471, Control_c, 0, 67, 93
1, 126479, Note_on_c, 0, 46, 34
1, 126485, Control_c, 0, 67, 98
1, 126489, Note_on_c, 0, 51, 23
1, 126500, Control_c, 0, 67, 101
1, 126515, Control_c, 0, 67, 105
1, 126530, Control_c, 0, 67, 109
1, 126545, Control_c, 0, 67, 112
1, 126560, Control_c, 0, 67, 116
1, 126563, Note_off_c, 0, 51, 39
1, 126575, Control_c, 0, 67, 119
1, 126577, Note_off_c, 0, 46, 35
1, 126590, Control_c, 0, 67, 122
1, 126604, Control_c, 0, 67, 125
1, 126619, Control_c, 0, 67, 127
1, 126819, Control_c, 0, 64, 113
1, 126834, Control_c, 0, 64, 100
1, 126838, Note_on_c, 0, 63, 48
1, 126849, Control_c, 0, 64, 87
1, 126849, Note_on_c, 0, 46, 33
1, 126858, Note_off_c, 0, 64, 55
1, 126864, Control_c, 0, 64, 71
1, 126867, Note_on_c, 0, 51, 23
1, 126879, Control_c, 0, 64, 53
1, 126893, Control_c, 0, 64, 0
1, 126982, Control_c, 0, 64, 43
1, 126997, Control_c, 0, 64, 59
1, 127011, Control_c, 0, 64, 65
1, 127026, Control_c, 0, 64, 70
1, 127041, Control_c, 0, 64, 75
1, 127055, Note_off_c, 0, 46, 44
1, 127056, Control_c, 0, 64, 81
1, 127057, Note_off_c, 0, 51, 42
1, 127071, Control_c, 0, 64, 85
1, 127085, Control_c, 0, 64, 88
1, 127100, Control_c, 0, 64, 92
1, 127115, Control_c, 0, 64, 95
1, 127130, Control_c, 0, 64, 97
1, 127144, Control_c, 0, 64, 99
1, 127159, Control_c, 0, 64, 101
1, 127174, Control_c, 0, 64, 102
1, 127189, Control_c, 0, 64, 103
1, 127195, Note_on_c, 0, 46, 33
1, 127204, Control_c, 0, 64, 104
1, 127219, Control_c, 0, 64, 105
1, 127227, Note_on_c, 0, 51, 15
1, 127234, Control_c, 0, 64, 106
1, 127249, Control_c, 0, 64, 107
1, 127251, Note_off_c, 0, 46, 45
1, 127264, Control_c, 0, 64, 108
1, 127279, Control_c, 0, 64, 110
1, 127283, Note_off_c, 0, 51, 47
1, 127294, Control_c, 0, 64, 111
1, 127308, Control_c, 0, 64, 113
1, 127323, Control_c, 0, 64, 114
1, 127338, Control_c, 0, 64, 116
1, 127353, Control_c, 0, 64, 117
1, 127368, Control_c, 0, 64, 118
1, 127382, Control_c, 0, 64, 118
1, 127397, Control_c, 0, 64, 119
1, 127412, Control_c, 0, 64, 120
1, 127427, Control_c, 0, 64, 120
1, 127502, Control_c, 0, 64, 121
1, 127511, Note_on_c, 0, 46, 38
1, 127513, Note_on_c, 0, 51, 37
1, 127579, Note_off_c, 0, 51, 48
1, 127591, Note_off_c, 0, 46, 40
1, 127879, Control_c, 0, 64, 120
1, 127892, Note_off_c, 0, 63, 25
1, 127894, Control_c, 0, 64, 113
1, 127907, Note_on_c, 0, 71, 68
1, 127908, Control_c, 0, 64, 99
1, 127912, Note_on_c, 0, 51, 39
1, 127923, Control_c, 0, 64, 84
1, 127937, Note_on_c, 0, 44, 26
1, 127938, Control_c, 0, 64, 69
1, 127942, Note_off_c, 0, 67, 54
1, 127953, Control_c, 0, 64, 51
1, 127967, Control_c, 0, 64, 0
1, 128028, Control_c, 0, 64, 26
1, 128043, Control_c, 0, 64, 46
1, 128057, Control_c, 0, 64, 57
1, 128072, Control_c, 0, 64, 63
1, 128087, Control_c, 0, 64, 67
1, 128102, Control_c, 0, 64, 70
1, 128117, Control_c, 0, 64, 75
1, 128131, Control_c, 0, 64, 80
1, 128142, Note_off_c, 0, 51, 39
1, 128146, Control_c, 0, 64, 84
1, 128160, Note_off_c, 0, 44, 40
1, 128161, Control_c, 0, 64, 86
1, 128175, Control_c, 0, 64, 89
1, 128190, Control_c, 0, 64, 92
1, 128205, Control_c, 0, 64, 95
1, 128220, Control_c, 0, 64, 97
1, 128235, Control_c, 0, 64, 99
1, 128257, Control_c, 0, 64, 100
1, 128272, Control_c, 0, 64, 100
1, 128287, Control_c, 0, 64, 101
1, 128302, Control_c, 0, 64, 102
1, 128317, Control_c, 0, 64, 103
1, 128332, Control_c, 0, 64, 104
1, 128334, Note_on_c, 0, 62, 46
1, 128338, Note_on_c, 0, 44, 22
1, 128339, Note_on_c, 0, 51, 35
1, 128346, Control_c, 0, 64, 104
1, 128361, Control_c, 0, 64, 105
1, 128376, Control_c, 0, 64, 105
1, 128380, Note_off_c, 0, 62, 59
1, 128390, Control_c, 0, 64, 106
1, 128420, Control_c, 0, 64, 106
1, 128435, Control_c, 0, 64, 107
1, 128436, Note_off_c, 0, 51, 37
1, 128441, Note_off_c, 0, 44, 37
1, 128450, Control_c, 0, 64, 108
1, 128465, Control_c, 0, 64, 108
1, 128494, Control_c, 0, 64, 109
1, 128509, Control_c, 0, 64, 109
1, 128539, Control_c, 0, 64, 110
1, 128569, Control_c, 0, 64, 110
1, 128644, Note_on_c, 0, 62, 58
1, 128653, Note_on_c, 0, 44, 36
1, 128654, Note_on_c, 0, 51, 35
1, 128672, Control_c, 0, 64, 111
1, 128706, Note_off_c, 0, 62, 45
1, 128733, Note_off_c, 0, 51, 39
1, 128761, Control_c, 0, 64, 111
1, 128769, Note_off_c, 0, 44, 31
1, 128776, Control_c, 0, 64, 112
1, 128805, Control_c, 0, 64, 113
1, 128836, Control_c, 0, 64, 114
1, 128866, Control_c, 0, 64, 114
1, 128880, Control_c, 0, 64, 115
1, 128895, Control_c, 0, 64, 115
1, 128925, Control_c, 0, 64, 116
1, 128940, Control_c, 0, 64, 116
1, 128963, Note_on_c, 0, 62, 55
1, 128969, Control_c, 0, 64, 117
1, 128971, Note_on_c, 0, 44, 36
1, 128982, Note_on_c, 0, 51, 33
1, 128984, Control_c, 0, 64, 118
1, 129006, Control_c, 0, 64, 118
1, 129021, Control_c, 0, 64, 120
1, 129036, Control_c, 0, 64, 121
1, 129051, Control_c, 0, 64, 122
1, 129066, Control_c, 0, 64, 123
1, 129080, Control_c, 0, 64, 125
1, 129095, Control_c, 0, 64, 127
1, 129147, Note_off_c, 0, 51, 30
1, 129155, Note_off_c, 0, 44, 41
1, 129270, Note_on_c, 0, 63, 68
1, 129279, Note_on_c, 0, 44, 39
1, 129287, Note_on_c, 0, 51, 40
1, 129300, Note_off_c, 0, 62, 55
1, 129335, Note_off_c, 0, 63, 63
1, 129345, Note_off_c, 0, 51, 53
1, 129399, Note_off_c, 0, 44, 34
1, 129570, Note_on_c, 0, 63, 73
1, 129594, Note_on_c, 0, 44, 40
1, 129609, Note_on_c, 0, 51, 38
1, 129665, Note_off_c, 0, 51, 51
1, 129676, Note_off_c, 0, 44, 39
1, 129684, Note_off_c, 0, 71, 50
1, 129922, Note_on_c, 0, 70, 77
1, 129927, Note_on_c, 0, 64, 71
1, 129934, Note_on_c, 0, 51, 52
1, 129937, Note_on_c, 0, 43, 60
1, 129937, Note_off_c, 0, 63, 57
1, 129947, Control_c, 0, 64, 104
1, 129961, Control_c, 0, 64, 83
1, 129976, Control_c, 0, 64, 65
1, 129991, Control_c, 0, 64, 9
1, 130006, Control_c, 0, 64, 0
1, 130050, Control_c, 0, 64, 9
1, 130065, Control_c, 0, 64, 39
1, 130080, Control_c, 0, 64, 55
1, 130095, Control_c, 0, 64, 64
1, 130097, Note_off_c, 0, 43, 52
1, 130110, Control_c, 0, 64, 69
1, 130125, Control_c, 0, 64, 76
1, 130130, Note_off_c, 0, 51, 42
1, 130140, Control_c, 0, 64, 82
1, 130154, Control_c, 0, 64, 88
1, 130154, Control_c, 0, 67, 126
1, 130169, Control_c, 0, 64, 94
1, 130169, Control_c, 0, 67, 124
1, 130184, Control_c, 0, 64, 100
1, 130184, Control_c, 0, 67, 121
1, 130199, Control_c, 0, 64, 105
1, 130199, Control_c, 0, 67, 117
1, 130214, Control_c, 0, 64, 110
1, 130214, Control_c, 0, 67, 113
1, 130228, Control_c, 0, 64, 116
1, 130228, Control_c, 0, 67, 108
1, 130243, Control_c, 0, 64, 127
1, 130243, Control_c, 0, 67, 103
1, 130257, Note_on_c, 0, 51, 49
1, 130258, Control_c, 0, 67, 95
1, 130265, Note_on_c, 0, 43, 57
1, 130273, Control_c, 0, 67, 83
1, 130288, Control_c, 0, 67, 74
1, 130302, Control_c, 0, 67, 65
1, 130317, Control_c, 0, 67, 58
1, 130323, Note_off_c, 0, 43, 54
1, 130332, Control_c, 0, 67, 51
1, 130347, Control_c, 0, 67, 46
1, 130361, Control_c, 0, 67, 41
1, 130376, Control_c, 0, 67, 35
1, 130391, Control_c, 0, 67, 33
1, 130406, Control_c, 0, 67, 31
1, 130408, Note_off_c, 0, 51, 27
1, 130421, Control_c, 0, 67, 30
1, 130437, Control_c, 0, 67, 28
1, 130451, Control_c, 0, 67, 25
1, 130466, Control_c, 0, 67, 21
1, 130481, Control_c, 0, 67, 19
1, 130496, Control_c, 0, 67, 17
1, 130518, Control_c, 0, 67, 16
1, 130533, Control_c, 0, 67, 15
1, 130548, Control_c, 0, 67, 12
1, 130563, Control_c, 0, 67, 9
1, 130572, Note_on_c, 0, 51, 47
1, 130578, Note_on_c, 0, 63, 66
1, 130578, Control_c, 0, 67, 0
1, 130581, Note_on_c, 0, 43, 59
1, 130619, Note_off_c, 0, 64, 61
1, 130630, Note_off_c, 0, 51, 52
1, 130635, Note_off_c, 0, 43, 57
1, 130876, Note_off_c, 0, 70, 56
1, 130880, Note_off_c, 0, 63, 32
1, 130918, Note_on_c, 0, 72, 79
1, 130918, Control_c, 0, 64, 119
1, 130921, Note_on_c, 0, 68, 71
1, 130927, Note_on_c, 0, 42, 63
1, 130931, Note_on_c, 0, 51, 56
1, 130933, Control_c, 0, 64, 87
1, 130948, Control_c, 0, 64, 64
1, 130963, Control_c, 0, 64, 0
1, 131051, Control_c, 0, 64, 37
1, 131066, Control_c, 0, 64, 60
1, 131074, Note_off_c, 0, 42, 51
1, 131081, Control_c, 0, 64, 68
1, 131096, Control_c, 0, 64, 76
1, 131111, Control_c, 0, 64, 85
1, 131125, Control_c, 0, 64, 96
1, 131132, Note_off_c, 0, 51, 38
1, 131140, Control_c, 0, 64, 107
1, 131155, Control_c, 0, 64, 127
1, 131239, Note_on_c, 0, 42, 57
1, 131266, Note_on_c, 0, 51, 54
1, 131284, Note_off_c, 0, 42, 61
1, 131294, Note_off_c, 0, 51, 65
1, 131401, Control_c, 0, 67, 8
1, 131430, Control_c, 0, 67, 9
1, 131504, Control_c, 0, 67, 9
1, 131519, Control_c, 0, 67, 10
1, 131545, Note_off_c, 0, 72, 58
1, 131559, Note_on_c, 0, 56, 60
1, 131561, Note_on_c, 0, 63, 68
1, 131564, Note_on_c, 0, 54, 56
1, 131578, Control_c, 0, 67, 10
1, 131596, Poly_aftertouch_c, 0, 70, 127
1, 131603, Note_off_c, 0, 54, 59
1, 131606, Note_off_c, 0, 56, 56
1, 131607, Control_c, 0, 67, 11
1, 131627, Poly_aftertouch_c, 0, 70, 0
1, 131652, Control_c, 0, 67, 11
1, 131700, Note_off_c, 0, 63, 57
1, 131890, Control_c, 0, 67, 12
1, 131905, Control_c, 0, 64, 125
1, 131905, Control_c, 0, 67, 13
1, 131917, Note_on_c, 0, 52, 63
1, 131917, Note_on_c, 0, 73, 81
1, 131919, Control_c, 0, 64, 86
1, 131919, Control_c, 0, 67, 15
1, 131934, Control_c, 0, 64, 64
1, 131934, Control_c, 0, 67, 20
1, 131942, Note_on_c, 0, 56, 34
1, 131946, Note_off_c, 0, 68, 64
1, 131949, Control_c, 0, 64, 0
1, 131949, Control_c, 0, 67, 27
1, 131964, Control_c, 0, 67, 35
1, 131979, Control_c, 0, 67, 45
1, 131994, Control_c, 0, 64, 20
1, 131994, Control_c, 0, 67, 53
1, 132010, Note_off_c, 0, 56, 45
1, 132015, Control_c, 0, 64, 50
1, 132015, Control_c, 0, 67, 60
1, 132031, Control_c, 0, 64, 62
1, 132031, Control_c, 0, 67, 65
1, 132046, Control_c, 0, 64, 69
1, 132046, Control_c, 0, 67, 70
1, 132061, Control_c, 0, 64, 79
1, 132061, Control_c, 0, 67, 73
1, 132076, Control_c, 0, 64, 90
1, 132076, Control_c, 0, 67, 77
1, 132091, Control_c, 0, 64, 102
1, 132091, Control_c, 0, 67, 80
1, 132105, Control_c, 0, 64, 110
1, 132105, Control_c, 0, 67, 83
1, 132120, Control_c, 0, 64, 118
1, 132120, Control_c, 0, 67, 86
1, 132135, Control_c, 0, 64, 127
1, 132135, Control_c, 0, 67, 88
1, 132150, Control_c, 0, 67, 89
1, 132158, Note_off_c, 0, 52, 54
1, 132165, Control_c, 0, 67, 90
1, 132179, Control_c, 0, 67, 91
1, 132194, Control_c, 0, 67, 93
1, 132209, Control_c, 0, 67, 95
1, 132224, Control_c, 0, 67, 97
1, 132238, Control_c, 0, 67, 100
1, 132253, Control_c, 0, 67, 102
1, 132268, Control_c, 0, 67, 106
1, 132283, Control_c, 0, 67, 109
1, 132298, Control_c, 0, 67, 112
1, 132301, Note_on_c, 0, 68, 54
1, 132309, Note_on_c, 0, 61, 49
1, 132311, Note_on_c, 0, 52, 33
1, 132313, Control_c, 0, 67, 115
1, 132313, Note_on_c, 0, 56, 48
1, 132328, Control_c, 0, 67, 117
1, 132343, Control_c, 0, 67, 118
1, 132357, Control_c, 0, 67, 119
1, 132358, Note_off_c, 0, 61, 58
1, 132364, Note_off_c, 0, 52, 53
1, 132364, Note_off_c, 0, 56, 58
1, 132370, Note_off_c, 0, 68, 56
1, 132372, Control_c, 0, 67, 120
1, 132387, Control_c, 0, 67, 120
1, 132402, Control_c, 0, 67, 121
1, 132614, Note_on_c, 0, 68, 58
1, 132624, Note_on_c, 0, 56, 48
1, 132630, Note_on_c, 0, 61, 45
1, 132640, Note_on_c, 0, 52, 42
1, 132668, Control_c, 0, 67, 120
1, 132691, Note_off_c, 0, 61, 51
1, 132697, Control_c, 0, 67, 120
1, 132700, Note_off_c, 0, 68, 53
1, 132742, Control_c, 0, 67, 119
1, 132787, Note_off_c, 0, 52, 30
1, 132797, Note_off_c, 0, 56, 28
1, 132809, Control_c, 0, 67, 119
1, 132854, Control_c, 0, 67, 118
1, 132928, Note_on_c, 0, 68, 66
1, 132929, Note_on_c, 0, 52, 55
1, 132936, Note_on_c, 0, 56, 51
1, 132948, Note_on_c, 0, 61, 51
1, 132974, Note_off_c, 0, 52, 61
1, 132988, Note_off_c, 0, 61, 60
1, 132989, Note_off_c, 0, 56, 53
1, 132997, Note_off_c, 0, 68, 61
1, 133013, Note_off_c, 0, 73, 62
1, 133121, Control_c, 0, 67, 118
1, 133136, Control_c, 0, 67, 117
1, 133165, Control_c, 0, 67, 117
1, 133195, Control_c, 0, 67, 116
1, 133210, Control_c, 0, 67, 116
1, 133225, Control_c, 0, 67, 115
1, 133254, Control_c, 0, 67, 115
1, 133261, Note_on_c, 0, 75, 79
1, 133267, Note_on_c, 0, 60, 60
1, 133268, Note_on_c, 0, 56, 55
1, 133269, Control_c, 0, 67, 114
1, 133271, Note_on_c, 0, 68, 74
1, 133274, Note_on_c, 0, 51, 53
1, 133284, Control_c, 0, 64, 89
1, 133299, Control_c, 0, 64, 69
1, 133299, Control_c, 0, 67, 114
1, 133314, Control_c, 0, 64, 46
1, 133314, Control_c, 0, 67, 113
1, 133328, Control_c, 0, 64, 32
1, 133328, Control_c, 0, 67, 112
1, 133343, Control_c, 0, 64, 48
1, 133343, Control_c, 0, 67, 111
1, 133358, Control_c, 0, 64, 59
1, 133358, Control_c, 0, 67, 109
1, 133372, Control_c, 0, 64, 65
1, 133372, Control_c, 0, 67, 107
1, 133387, Control_c, 0, 64, 72
1, 133387, Control_c, 0, 67, 103
1, 133402, Control_c, 0, 64, 84
1, 133402, Control_c, 0, 67, 98
1, 133403, Note_off_c, 0, 51, 57
1, 133417, Control_c, 0, 64, 108
1, 133417, Control_c, 0, 67, 92
1, 133432, Control_c, 0, 64, 127
1, 133432, Control_c, 0, 67, 84
1, 133434, Note_off_c, 0, 60, 62
1, 133445, Note_off_c, 0, 56, 48
1, 133446, Control_c, 0, 67, 76
1, 133461, Control_c, 0, 67, 68
1, 133465, Note_off_c, 0, 68, 52
1, 133476, Control_c, 0, 67, 63
1, 133491, Control_c, 0, 67, 59
1, 133514, Control_c, 0, 67, 55
1, 133528, Control_c, 0, 67, 52
1, 133543, Control_c, 0, 67, 48
1, 133558, Control_c, 0, 67, 43
1, 133573, Control_c, 0, 67, 39
1, 133587, Control_c, 0, 67, 35
1, 133602, Control_c, 0, 67, 33
1, 133617, Control_c, 0, 67, 31
1, 133633, Control_c, 0, 67, 30
1, 133648, Control_c, 0, 67, 29
1, 133663, Control_c, 0, 67, 28
1, 133670, Note_on_c, 0, 76, 83
1, 133677, Control_c, 0, 67, 27
1, 133679, Note_on_c, 0, 68, 61
1, 133680, Note_on_c, 0, 56, 56
1, 133680, Note_on_c, 0, 61, 53
1, 133692, Control_c, 0, 64, 92
1, 133692, Control_c, 0, 67, 26
1, 133694, Note_on_c, 0, 49, 50
1, 133695, Note_off_c, 0, 75, 60
1, 133707, Control_c, 0, 64, 65
1, 133707, Control_c, 0, 67, 25
1, 133722, Control_c, 0, 64, 0
1, 133722, Control_c, 0, 67, 24
1, 133737, Control_c, 0, 67, 22
1, 133751, Control_c, 0, 67, 20
1, 133766, Control_c, 0, 67, 18
1, 133781, Control_c, 0, 64, 20
1, 133781, Control_c, 0, 67, 15
1, 133795, Note_off_c, 0, 49, 54
1, 133795, Control_c, 0, 64, 53
1, 133795, Control_c, 0, 67, 12
1, 133810, Control_c, 0, 64, 65
1, 133810, Control_c, 0, 67, 10
1, 133825, Control_c, 0, 64, 74
1, 133825, Control_c, 0, 67, 8
1, 133840, Control_c, 0, 64, 89
1, 133840, Control_c, 0, 67, 0
1, 133855, Control_c, 0, 64, 109
1, 133869, Note_off_c, 0, 61, 55
1, 133870, Control_c, 0, 64, 127
1, 133890, Note_off_c, 0, 56, 32
1, 133942, Note_off_c, 0, 76, 53
1, 133976, Note_off_c, 0, 68, 60
1, 134129, Note_on_c, 0, 59, 52
1, 134131, Note_on_c, 0, 56, 48
1, 134136, Control_c, 0, 64, 102
1, 134138, Note_on_c, 0, 76, 77
1, 134150, Note_on_c, 0, 51, 38
1, 134151, Control_c, 0, 64, 78
1, 134166, Control_c, 0, 64, 54
1, 134181, Control_c, 0, 64, 0
1, 134240, Control_c, 0, 64, 40
1, 134262, Control_c, 0, 64, 58
1, 134277, Control_c, 0, 64, 68
1, 134292, Control_c, 0, 64, 79
1, 134307, Control_c, 0, 64, 94
1, 134322, Control_c, 0, 64, 111
1, 134336, Control_c, 0, 64, 127
1, 134424, Note_off_c, 0, 51, 40
1, 134434, Note_off_c, 0, 56, 37
1, 134446, Note_off_c, 0, 59, 37
1, 134564, Note_on_c, 0, 56, 44
1, 134566, Note_on_c, 0, 51, 35
1, 134574, Note_on_c, 0, 59, 44
1, 134620, Note_off_c, 0, 51, 52
1, 134620, Note_off_c, 0, 56, 56
1, 134637, Note_off_c, 0, 59, 53
1, 134853, Note_on_c, 0, 75, 70
1, 134855, Note_on_c, 0, 51, 41
1, 134859, Note_on_c, 0, 59, 39
1, 134866, Note_on_c, 0, 56, 36
1, 134882, Note_off_c, 0, 76, 62
1, 134913, Note_off_c, 0, 51, 54
1, 134921, Note_off_c, 0, 59, 57
1, 134922, Note_off_c, 0, 56, 56
1, 135158, Control_c, 0, 64, 112
1, 135173, Control_c, 0, 64, 85
1, 135188, Control_c, 0, 64, 65
1, 135200, Note_on_c, 0, 61, 50
1, 135203, Control_c, 0, 64, 0
1, 135209, Note_on_c, 0, 51, 48
1, 135210, Note_on_c, 0, 58, 49
1, 135278, Control_c, 0, 64, 38
1, 135293, Control_c, 0, 64, 57
1, 135308, Control_c, 0, 64, 66
1, 135323, Control_c, 0, 64, 75
1, 135337, Control_c, 0, 64, 85
1, 135352, Control_c, 0, 64, 95
1, 135352, Control_c, 0, 67, 8
1, 135367, Control_c, 0, 64, 103
1, 135367, Control_c, 0, 67, 10
1, 135381, Control_c, 0, 64, 111
1, 135381, Control_c, 0, 67, 12
1, 135396, Control_c, 0, 64, 127
1, 135396, Control_c, 0, 67, 14
1, 135404, Note_off_c, 0, 58, 32
1, 135408, Note_off_c, 0, 51, 34
1, 135411, Control_c, 0, 67, 16
1, 135426, Control_c, 0, 67, 18
1, 135428, Note_off_c, 0, 61, 29
1, 135441, Control_c, 0, 67, 21
1, 135455, Control_c, 0, 67, 24
1, 135470, Control_c, 0, 67, 29
1, 135485, Control_c, 0, 67, 35
1, 135500, Control_c, 0, 67, 40
1, 135515, Control_c, 0, 67, 45
1, 135529, Control_c, 0, 67, 50
1, 135544, Control_c, 0, 67, 54
1, 135552, Note_on_c, 0, 51, 36
1, 135559, Control_c, 0, 67, 59
1, 135564, Note_on_c, 0, 58, 39
1, 135568, Note_on_c, 0, 61, 28
1, 135574, Control_c, 0, 67, 63
1, 135589, Control_c, 0, 67, 67
1, 135604, Control_c, 0, 67, 70
1, 135615, Note_off_c, 0, 61, 45
1, 135619, Note_off_c, 0, 51, 42
1, 135619, Control_c, 0, 67, 73
1, 135625, Note_off_c, 0, 58, 42
1, 135634, Control_c, 0, 67, 75
1, 135649, Control_c, 0, 67, 77
1, 135663, Control_c, 0, 67, 79
1, 135678, Control_c, 0, 67, 81
1, 135693, Control_c, 0, 67, 82
1, 135708, Control_c, 0, 67, 84
1, 135723, Control_c, 0, 67, 85
1, 135738, Control_c, 0, 67, 87
1, 135760, Control_c, 0, 67, 87
1, 135774, Control_c, 0, 67, 88
1, 135789, Control_c, 0, 67, 89
1, 135804, Control_c, 0, 67, 89
1, 135819, Control_c, 0, 67, 90
1, 135834, Control_c, 0, 67, 90
1, 135848, Control_c, 0, 67, 91
1, 135863, Control_c, 0, 67, 92
1, 135882, Note_on_c, 0, 67, 65
1, 135893, Control_c, 0, 67, 92
1, 135896, Note_on_c, 0, 51, 36
1, 135908, Note_on_c, 0, 58, 35
1, 135908, Note_on_c, 0, 61, 29
1, 135923, Control_c, 0, 67, 93
1, 135938, Control_c, 0, 67, 94
1, 135953, Control_c, 0, 67, 95
1, 135955, Note_off_c, 0, 51, 41
1, 135967, Control_c, 0, 67, 96
1, 135979, Note_off_c, 0, 58, 39
1, 135982, Control_c, 0, 67, 97
1, 135997, Control_c, 0, 67, 97
1, 136003, Note_off_c, 0, 61, 32
1, 136012, Control_c, 0, 67, 99
1, 136027, Control_c, 0, 67, 100
1, 136042, Control_c, 0, 67, 103
1, 136057, Control_c, 0, 67, 104
1, 136072, Control_c, 0, 67, 105
1, 136087, Control_c, 0, 67, 106
1, 136102, Control_c, 0, 67, 106
1, 136117, Control_c, 0, 67, 107
1, 136131, Control_c, 0, 67, 108
1, 136146, Control_c, 0, 67, 110
1, 136161, Control_c, 0, 67, 112
1, 136176, Control_c, 0, 67, 113
1, 136191, Control_c, 0, 67, 115
1, 136205, Control_c, 0, 67, 116
1, 136220, Control_c, 0, 67, 117
1, 136235, Control_c, 0, 67, 118
1, 136250, Control_c, 0, 67, 119
1, 136265, Control_c, 0, 67, 121
1, 136279, Control_c, 0, 67, 122
1, 136294, Control_c, 0, 67, 122
1, 136323, Control_c, 0, 64, 110
1, 136323, Control_c, 0, 67, 123
1, 136330, Note_off_c, 0, 75, 55
1, 136332, Note_on_c, 0, 70, 65
1, 136338, Control_c, 0, 64, 89
1, 136338, Control_c, 0, 67, 123
1, 136339, Note_on_c, 0, 61, 42
1, 136342, Note_on_c, 0, 58, 45
1, 136353, Control_c, 0, 64, 71
1, 136353, Control_c, 0, 67, 124
1, 136355, Note_on_c, 0, 52, 35
1, 136359, Note_off_c, 0, 67, 55
1, 136368, Control_c, 0, 64, 40
1, 136368, Control_c, 0, 67, 125
1, 136383, Control_c, 0, 64, 0
1, 136383, Control_c, 0, 67, 127
1, 136397, Control_c, 0, 67, 127
1, 136457, Control_c, 0, 64, 40
1, 136471, Control_c, 0, 64, 58
1, 136486, Control_c, 0, 64, 65
1, 136509, Control_c, 0, 64, 71
1, 136523, Control_c, 0, 64, 78
1, 136538, Control_c, 0, 64, 84
1, 136553, Control_c, 0, 64, 90
1, 136564, Note_off_c, 0, 61, 38
1, 136568, Control_c, 0, 64, 95
1, 136570, Note_off_c, 0, 52, 42
1, 136583, Control_c, 0, 64, 97
1, 136585, Note_off_c, 0, 58, 29
1, 136597, Control_c, 0, 64, 100
1, 136612, Control_c, 0, 64, 102
1, 136627, Control_c, 0, 64, 105
1, 136642, Control_c, 0, 64, 108
1, 136657, Control_c, 0, 64, 113
1, 136671, Control_c, 0, 64, 117
1, 136686, Control_c, 0, 64, 122
1, 136701, Control_c, 0, 64, 127
1, 136743, Note_on_c, 0, 58, 41
1, 136747, Note_on_c, 0, 61, 30
1, 136749, Note_on_c, 0, 52, 26
1, 136802, Note_off_c, 0, 58, 53
1, 136803, Note_off_c, 0, 61, 41
1, 136832, Note_off_c, 0, 52, 38
1, 137072, Note_on_c, 0, 58, 37
1, 137073, Note_on_c, 0, 52, 33
1, 137082, Note_on_c, 0, 61, 30
1, 137116, Note_off_c, 0, 52, 58
1, 137141, Note_off_c, 0, 61, 41
1, 137151, Note_off_c, 0, 58, 39
1, 137450, Control_c, 0, 64, 99
1, 137461, Note_on_c, 0, 63, 41
1, 137465, Control_c, 0, 64, 82
1, 137470, Note_on_c, 0, 61, 32
1, 137476, Note_on_c, 0, 51, 35
1, 137480, Control_c, 0, 64, 68
1, 137489, Note_on_c, 0, 58, 29
1, 137494, Control_c, 0, 64, 52
1, 137509, Control_c, 0, 64, 10
1, 137524, Control_c, 0, 64, 0
1, 137538, Control_c, 0, 64, 32
1, 137553, Control_c, 0, 64, 49
1, 137568, Control_c, 0, 64, 58
1, 137583, Control_c, 0, 64, 63
1, 137598, Control_c, 0, 64, 68
1, 137613, Control_c, 0, 64, 73
1, 137619, Note_off_c, 0, 58, 40
1, 137629, Control_c, 0, 64, 79
1, 137640, Note_off_c, 0, 61, 39
1, 137641, Note_off_c, 0, 51, 39
1, 137643, Control_c, 0, 64, 84
1, 137658, Control_c, 0, 64, 89
1, 137659, Note_off_c, 0, 63, 40
1, 137673, Control_c, 0, 64, 93
1, 137688, Control_c, 0, 64, 96
1, 137703, Control_c, 0, 64, 99
1, 137717, Control_c, 0, 64, 102
1, 137732, Control_c, 0, 64, 105
1, 137747, Control_c, 0, 64, 106
1, 137762, Control_c, 0, 64, 108
1, 137777, Control_c, 0, 64, 109
1, 137792, Control_c, 0, 64, 111
1, 137807, Control_c, 0, 64, 112
1, 137822, Control_c, 0, 64, 113
1, 137845, Note_on_c, 0, 63, 32
1, 137866, Control_c, 0, 64, 113
1, 137881, Control_c, 0, 64, 114
1, 137890, Note_on_c, 0, 51, 9
1, 137911, Control_c, 0, 64, 114
1, 137913, Poly_aftertouch_c, 0, 61, 127
1, 137923, Poly_aftertouch_c, 0, 58, 127
1, 137937, Note_off_c, 0, 63, 35
1, 137960, Note_off_c, 0, 51, 40
1, 137971, Poly_aftertouch_c, 0, 61, 0
1, 137977, Poly_aftertouch_c, 0, 58, 0
1, 138218, Note_on_c, 0, 61, 5
1, 138222, Note_on_c, 0, 51, 21
1, 138222, Note_on_c, 0, 63, 29
1, 138299, Poly_aftertouch_c, 0, 58, 127
1, 138325, Note_off_c, 0, 51, 33
1, 138352, Note_off_c, 0, 61, 33
1, 138385, Poly_aftertouch_c, 0, 58, 0
1, 138555, Control_c, 0, 64, 114
1, 138615, Control_c, 0, 64, 113
1, 138630, Control_c, 0, 64, 112
1, 138645, Control_c, 0, 64, 111
1, 138660, Control_c, 0, 64, 110
1, 138674, Control_c, 0, 64, 109
1, 138689, Control_c, 0, 64, 107
1, 138704, Control_c, 0, 64, 105
1, 138710, Note_off_c, 0, 63, 23
1, 138719, Control_c, 0, 64, 102
1, 138722, Note_on_c, 0, 68, 40
1, 138732, Note_on_c, 0, 56, 33
1, 138734, Control_c, 0, 64, 98
1, 138756, Control_c, 0, 64, 94
1, 138761, Note_on_c, 0, 59, 31
1, 138771, Control_c, 0, 64, 88
1, 138786, Control_c, 0, 64, 81
1, 138800, Control_c, 0, 64, 73
1, 138815, Control_c, 0, 64, 64
1, 138817, Note_off_c, 0, 70, 37
1, 138830, Control_c, 0, 64, 49
1, 138845, Control_c, 0, 64, 0
1, 138948, Control_c, 0, 64, 36
1, 138963, Control_c, 0, 64, 53
1, 138978, Control_c, 0, 64, 61
1, 138993, Control_c, 0, 64, 64
1, 139008, Control_c, 0, 64, 67
1, 139023, Control_c, 0, 64, 71
1, 139038, Control_c, 0, 64, 76
1, 139053, Control_c, 0, 64, 81
1, 139067, Control_c, 0, 64, 85
1, 139082, Control_c, 0, 64, 87
1, 139097, Control_c, 0, 64, 89
1, 139112, Control_c, 0, 64, 90
1, 139126, Control_c, 0, 64, 91
1, 139140, Note_off_c, 0, 68, 29
1, 139141, Control_c, 0, 64, 91
1, 139143, Note_off_c, 0, 59, 37
1, 139155, Note_off_c, 0, 56, 34
1, 139290, Control_c, 0, 64, 91
1, 139320, Control_c, 0, 64, 90
1, 139348, Control_c, 0, 64, 89
1, 139363, Control_c, 0, 64, 88
1, 139378, Control_c, 0, 64, 88
1, 139393, Control_c, 0, 64, 87
1, 139407, Control_c, 0, 64, 86
1, 139422, Control_c, 0, 64, 85
1, 139437, Control_c, 0, 64, 84
1, 139452, Control_c, 0, 64, 83
1, 139467, Control_c, 0, 64, 82
1, 139482, Control_c, 0, 64, 80
1, 139504, Control_c, 0, 64, 79
1, 139519, Control_c, 0, 64, 78
1, 139534, Control_c, 0, 64, 76
1, 139548, Control_c, 0, 64, 75
1, 139563, Control_c, 0, 64, 73
1, 139578, Control_c, 0, 64, 72
1, 139593, Control_c, 0, 64, 70
1, 139608, Control_c, 0, 64, 68
1, 139622, Control_c, 0, 64, 67
1, 139637, Control_c, 0, 64, 65
1, 139652, Control_c, 0, 64, 63
1, 139667, Control_c, 0, 64, 62
1, 139682, Control_c, 0, 64, 61
1, 139697, Control_c, 0, 64, 59
1, 139711, Control_c, 0, 64, 57
1, 139726, Control_c, 0, 64, 53
1, 139741, Control_c, 0, 64, 47
1, 139756, Control_c, 0, 64, 37
1, 139771, Control_c, 0, 64, 23
1, 139786, Control_c, 0, 64, 0
1, 139934, Control_c, 0, 64, 10
1, 139948, Control_c, 0, 64, 31
1, 139963, Control_c, 0, 64, 46
1, 139978, Control_c, 0, 64, 57
1, 139983, Note_on_c, 0, 59, 32
1, 139991, Note_on_c, 0, 47, 22
1, 139993, Control_c, 0, 64, 62
1, 139998, Note_on_c, 0, 35, 24
1, 140008, Control_c, 0, 64, 65
1, 140024, Control_c, 0, 64, 69
1, 140038, Control_c, 0, 64, 73
1, 140053, Control_c, 0, 64, 79
1, 140068, Control_c, 0, 64, 85
1, 140083, Control_c, 0, 64, 90
1, 140098, Control_c, 0, 64, 94
1, 140112, Control_c, 0, 64, 97
1, 140127, Control_c, 0, 64, 101
1, 140142, Control_c, 0, 64, 105
1, 140157, Control_c, 0, 64, 110
1, 140171, Control_c, 0, 64, 118
1, 140186, Control_c, 0, 64, 127
1, 140320, Note_off_c, 0, 35, 41
1, 140338, Note_off_c, 0, 47, 43
1, 140969, Note_on_c, 0, 58, 42
1, 140975, Note_on_c, 0, 46, 34
1, 140978, Note_on_c, 0, 34, 34
1, 141017, Control_c, 0, 64, 109
1, 141032, Control_c, 0, 64, 94
1, 141047, Control_c, 0, 64, 82
1, 141062, Control_c, 0, 64, 70
1, 141076, Control_c, 0, 64, 57
1, 141080, Note_off_c, 0, 59, 42
1, 141091, Control_c, 0, 64, 21
1, 141106, Control_c, 0, 64, 0
1, 141180, Control_c, 0, 64, 27
1, 141194, Control_c, 0, 64, 49
1, 141209, Control_c, 0, 64, 61
1, 141224, Control_c, 0, 64, 65
1, 141239, Control_c, 0, 64, 69
1, 141254, Control_c, 0, 64, 73
1, 141268, Control_c, 0, 64, 78
1, 141283, Control_c, 0, 64, 83
1, 141298, Control_c, 0, 64, 87
1, 141306, Note_off_c, 0, 34, 38
1, 141312, Control_c, 0, 64, 91
1, 141327, Control_c, 0, 64, 94
1, 141342, Control_c, 0, 64, 97
1, 141357, Control_c, 0, 64, 100
1, 141361, Note_off_c, 0, 46, 34
1, 141372, Control_c, 0, 64, 104
1, 141387, Control_c, 0, 64, 108
1, 141402, Control_c, 0, 64, 111
1, 141417, Control_c, 0, 64, 114
1, 141431, Control_c, 0, 64, 115
1, 141446, Control_c, 0, 64, 117
1, 141461, Control_c, 0, 64, 120
1, 141476, Control_c, 0, 64, 127
1, 141979, Note_on_c, 0, 39, 37
1, 141982, Note_on_c, 0, 63, 39
1, 141989, Control_c, 0, 64, 121
1, 142004, Control_c, 0, 64, 114
1, 142010, Note_on_c, 0, 51, 28
1, 142018, Control_c, 0, 64, 109
1, 142033, Control_c, 0, 64, 103
1, 142048, Control_c, 0, 64, 98
1, 142063, Control_c, 0, 64, 91
1, 142078, Control_c, 0, 64, 82
1, 142092, Control_c, 0, 64, 72
1, 142107, Control_c, 0, 64, 61
1, 142116, Note_off_c, 0, 58, 32
1, 142122, Control_c, 0, 64, 38
1, 142136, Control_c, 0, 64, 0
1, 142225, Control_c, 0, 64, 25
1, 142240, Control_c, 0, 64, 48
1, 142255, Control_c, 0, 64, 60
1, 142270, Control_c, 0, 64, 65
1, 142284, Control_c, 0, 64, 68
1, 142299, Control_c, 0, 64, 71
1, 142314, Control_c, 0, 64, 75
1, 142326, Note_off_c, 0, 51, 42
1, 142329, Control_c, 0, 64, 79
1, 142344, Control_c, 0, 64, 83
1, 142357, Control_c, 0, 64, 88
1, 142362, Note_off_c, 0, 39, 38
1, 142372, Control_c, 0, 64, 90
1, 142387, Control_c, 0, 64, 93
1, 142402, Control_c, 0, 64, 95
1, 142418, Control_c, 0, 64, 97
1, 142432, Control_c, 0, 64, 98
1, 142447, Control_c, 0, 64, 99
1, 142462, Control_c, 0, 64, 100
1, 142477, Control_c, 0, 64, 101
1, 142499, Control_c, 0, 64, 101
1, 142514, Control_c, 0, 64, 102
1, 142528, Control_c, 0, 64, 102
1, 142558, Control_c, 0, 64, 103
1, 143032, Control_c, 0, 64, 102
1, 143047, Control_c, 0, 64, 101
1, 143062, Control_c, 0, 64, 100
1, 143073, Note_on_c, 0, 56, 34
1, 143077, Control_c, 0, 64, 99
1, 143080, Note_on_c, 0, 32, 27
1, 143084, Note_on_c, 0, 44, 30
1, 143091, Control_c, 0, 64, 98
1, 143106, Control_c, 0, 64, 95
1, 143121, Control_c, 0, 64, 90
1, 143130, Note_off_c, 0, 63, 39
1, 143136, Control_c, 0, 64, 85
1, 143151, Control_c, 0, 64, 78
1, 143165, Control_c, 0, 64, 70
1, 143180, Control_c, 0, 64, 61
1, 143195, Control_c, 0, 64, 44
1, 143211, Control_c, 0, 64, 0
1, 143277, Control_c, 0, 64, 14
1, 143292, Control_c, 0, 64, 32
1, 143307, Control_c, 0, 64, 48
1, 143322, Control_c, 0, 64, 57
1, 143336, Control_c, 0, 64, 62
1, 143351, Control_c, 0, 64, 65
1, 143366, Control_c, 0, 64, 68
1, 143381, Control_c, 0, 64, 70
1, 143396, Control_c, 0, 64, 74
1, 143411, Control_c, 0, 64, 77
1, 143426, Control_c, 0, 64, 80
1, 143441, Note_off_c, 0, 56, 31
1, 143441, Control_c, 0, 64, 81
1, 143456, Control_c, 0, 64, 82
1, 143470, Control_c, 0, 64, 83
1, 143485, Control_c, 0, 64, 84
1, 143514, Control_c, 0, 64, 84
1, 143530, Note_off_c, 0, 32, 39
1, 143530, Note_off_c, 0, 44, 37
1, 143589, Control_c, 0, 64, 84
1, 143618, Control_c, 0, 64, 83
1, 143633, Control_c, 0, 64, 83
1, 143648, Control_c, 0, 64, 82
1, 143662, Control_c, 0, 64, 81
1, 143677, Control_c, 0, 64, 80
1, 143692, Control_c, 0, 64, 78
1, 143706, Control_c, 0, 64, 76
1, 143721, Control_c, 0, 64, 74
1, 143736, Control_c, 0, 64, 71
1, 143751, Control_c, 0, 64, 67
1, 143766, Control_c, 0, 64, 64
1, 143780, Control_c, 0, 64, 60
1, 143795, Control_c, 0, 64, 54
1, 143810, Control_c, 0, 64, 47
1, 143825, Control_c, 0, 64, 37
1, 143840, Control_c, 0, 64, 13
1, 143855, Control_c, 0, 64, 0
1, 144071, Control_c, 0, 64, 13
1, 144085, Control_c, 0, 64, 22
1, 144100, Control_c, 0, 64, 29
1, 144115, Control_c, 0, 64, 37
1, 144130, Control_c, 0, 64, 44
1, 144144, Control_c, 0, 64, 50
1, 144159, Control_c, 0, 64, 54
1, 144174, Control_c, 0, 64, 57
1, 144189, Control_c, 0, 64, 60
1, 144204, Control_c, 0, 64, 62
1, 144219, Control_c, 0, 64, 64
1, 144234, Control_c, 0, 64, 66
1, 144237, Note_on_c, 0, 56, 20
1, 144245, Note_on_c, 0, 32, 17
1, 144248, Control_c, 0, 64, 69
1, 144250, Note_on_c, 0, 44, 13
1, 144263, Control_c, 0, 64, 73
1, 144278, Control_c, 0, 64, 77
1, 144293, Control_c, 0, 64, 81
1, 144308, Control_c, 0, 64, 85
1, 144323, Control_c, 0, 64, 89
1, 144337, Control_c, 0, 64, 92
1, 144352, Control_c, 0, 64, 95
1, 144367, Control_c, 0, 64, 98
1, 144382, Control_c, 0, 64, 101
1, 144397, Control_c, 0, 64, 103
1, 144411, Control_c, 0, 64, 106
1, 144426, Control_c, 0, 64, 110
1, 144441, Control_c, 0, 64, 115
1, 144455, Control_c, 0, 64, 120
1, 144470, Control_c, 0, 64, 127
1, 144547, Note_off_c, 0, 44, 37
1, 144557, Note_off_c, 0, 32, 37
1, 144590, Note_off_c, 0, 56, 38
1, 145757, Note_on_c, 0, 56, 23
1, 145763, Note_on_c, 0, 44, 23
1, 145776, Note_on_c, 0, 32, 21
1, 148085, Note_off_c, 0, 32, 35
1, 148261, Note_off_c, 0, 44, 37
1, 148855, Note_off_c, 0, 56, 42
1, 149697, Note_on_c, 0, 56, 37
1, 150402, Note_on_c, 0, 61, 45
1, 150432, Control_c, 0, 64, 118
1, 150446, Control_c, 0, 64, 113
1, 150461, Control_c, 0, 64, 110
1, 150476, Control_c, 0, 64, 107
1, 150490, Control_c, 0, 64, 104
1, 150505, Control_c, 0, 64, 101
1, 150520, Control_c, 0, 64, 98
1, 150535, Control_c, 0, 64, 93
1, 150549, Note_off_c, 0, 56, 40
1, 150550, Control_c, 0, 64, 88
1, 150565, Control_c, 0, 64, 83
1, 150580, Control_c, 0, 64, 79
1, 150595, Control_c, 0, 64, 76
1, 150610, Control_c, 0, 64, 76
1, 150735, Control_c, 0, 64, 76
1, 150750, Control_c, 0, 64, 77
1, 150765, Control_c, 0, 64, 77
1, 150780, Control_c, 0, 64, 78
1, 150794, Control_c, 0, 64, 78
1, 150809, Control_c, 0, 64, 79
1, 150958, Control_c, 0, 64, 78
1, 150987, Control_c, 0, 64, 78
1, 151002, Control_c, 0, 64, 77
1, 151017, Control_c, 0, 64, 76
1, 151029, Note_on_c, 0, 58, 47
1, 151032, Control_c, 0, 64, 75
1, 151046, Control_c, 0, 64, 74
1, 151061, Control_c, 0, 64, 72
1, 151076, Control_c, 0, 64, 68
1, 151091, Control_c, 0, 64, 64
1, 151105, Control_c, 0, 64, 58
1, 151120, Control_c, 0, 64, 50
1, 151135, Control_c, 0, 64, 44
1, 151150, Control_c, 0, 64, 42
1, 151165, Note_off_c, 0, 61, 32
1, 151179, Control_c, 0, 64, 43
1, 151195, Control_c, 0, 64, 45
1, 151210, Control_c, 0, 64, 48
1, 151225, Control_c, 0, 64, 52
1, 151240, Control_c, 0, 64, 56
1, 151255, Control_c, 0, 64, 59
1, 151269, Control_c, 0, 64, 62
1, 151284, Control_c, 0, 64, 64
1, 151299, Control_c, 0, 64, 66
1, 151314, Control_c, 0, 64, 69
1, 151329, Control_c, 0, 64, 72
1, 151344, Control_c, 0, 64, 75
1, 151359, Control_c, 0, 64, 77
1, 151374, Control_c, 0, 64, 79
1, 151389, Control_c, 0, 64, 81
1, 151403, Control_c, 0, 64, 82
1, 151418, Control_c, 0, 64, 83
1, 151433, Control_c, 0, 64, 84
1, 151448, Control_c, 0, 64, 85
1, 151618, Control_c, 0, 64, 84
1, 151626, Note_on_c, 0, 63, 54
1, 151633, Control_c, 0, 64, 83
1, 151647, Control_c, 0, 64, 82
1, 151662, Control_c, 0, 64, 80
1, 151677, Control_c, 0, 64, 76
1, 151692, Control_c, 0, 64, 71
1, 151699, Note_off_c, 0, 58, 34
1, 151707, Control_c, 0, 64, 66
1, 151722, Control_c, 0, 64, 59
1, 151736, Control_c, 0, 64, 49
1, 151751, Control_c, 0, 64, 33
1, 151766, Control_c, 0, 64, 0
1, 151811, Control_c, 0, 67, 126
1, 151826, Control_c, 0, 64, 15
1, 151826, Control_c, 0, 67, 124
1, 151841, Control_c, 0, 64, 28
1, 151841, Control_c, 0, 67, 122
1, 151855, Control_c, 0, 64, 39
1, 151855, Control_c, 0, 67, 120
1, 151870, Control_c, 0, 64, 51
1, 151870, Control_c, 0, 67, 117
1, 151885, Control_c, 0, 64, 58
1, 151885, Control_c, 0, 67, 114
1, 151900, Control_c, 0, 64, 62
1, 151900, Control_c, 0, 67, 111
1, 151915, Control_c, 0, 64, 64
1, 151915, Control_c, 0, 67, 107
1, 151929, Control_c, 0, 64, 65
1, 151929, Control_c, 0, 67, 103
1, 151944, Control_c, 0, 64, 67
1, 151944, Control_c, 0, 67, 99
1, 151959, Control_c, 0, 64, 69
1, 151959, Control_c, 0, 67, 95
1, 151974, Control_c, 0, 64, 71
1, 151974, Control_c, 0, 67, 91
1, 151989, Control_c, 0, 64, 73
1, 151989, Control_c, 0, 67, 87
1, 152005, Control_c, 0, 64, 75
1, 152005, Control_c, 0, 67, 83
1, 152019, Control_c, 0, 64, 76
1, 152019, Control_c, 0, 67, 79
1, 152034, Control_c, 0, 64, 77
1, 152034, Control_c, 0, 67, 76
1, 152049, Control_c, 0, 64, 78
1, 152049, Control_c, 0, 67, 74
1, 152064, Control_c, 0, 64, 79
1, 152064, Control_c, 0, 67, 73
1, 152078, Control_c, 0, 67, 72
1, 152093, Control_c, 0, 67, 71
1, 152108, Control_c, 0, 67, 70
1, 152123, Control_c, 0, 64, 79
1, 152123, Control_c, 0, 67, 69
1, 152138, Control_c, 0, 67, 68
1, 152152, Control_c, 0, 67, 68
1, 152197, Control_c, 0, 67, 67
1, 152246, Note_on_c, 0, 60, 52
1, 152264, Control_c, 0, 64, 79
1, 152293, Control_c, 0, 64, 78
1, 152293, Control_c, 0, 67, 67
1, 152315, Note_off_c, 0, 63, 50
1, 152323, Control_c, 0, 64, 78
1, 152338, Control_c, 0, 64, 77
1, 152352, Control_c, 0, 64, 77
1, 152367, Control_c, 0, 64, 76
1, 152382, Control_c, 0, 64, 76
1, 152382, Control_c, 0, 67, 66
1, 152397, Control_c, 0, 64, 75
1, 152412, Control_c, 0, 64, 74
1, 152426, Control_c, 0, 64, 73
1, 152441, Control_c, 0, 64, 72
1, 152456, Control_c, 0, 64, 72
1, 152456, Control_c, 0, 67, 66
1, 152470, Control_c, 0, 64, 71
1, 152485, Control_c, 0, 64, 70
1, 152485, Control_c, 0, 67, 65
1, 152500, Control_c, 0, 64, 70
1, 152515, Control_c, 0, 64, 69
1, 152544, Control_c, 0, 64, 69
1, 152544, Control_c, 0, 67, 65
1, 152559, Control_c, 0, 64, 68
1, 152574, Control_c, 0, 64, 67
1, 152604, Control_c, 0, 64, 67
1, 152619, Control_c, 0, 64, 66
1, 152649, Control_c, 0, 64, 66
1, 152664, Control_c, 0, 64, 65
1, 152693, Control_c, 0, 64, 65
1, 152723, Control_c, 0, 64, 64
1, 152752, Control_c, 0, 64, 64
1, 152782, Control_c, 0, 64, 63
1, 152798, Control_c, 0, 64, 63
1, 152813, Control_c, 0, 64, 62
1, 152827, Control_c, 0, 64, 62
1, 152842, Control_c, 0, 64, 61
1, 152851, Note_on_c, 0, 65, 58
1, 152857, Control_c, 0, 64, 60
1, 152872, Control_c, 0, 64, 59
1, 152872, Control_c, 0, 67, 65
1, 152887, Control_c, 0, 64, 58
1, 152898, Note_off_c, 0, 60, 54
1, 152901, Control_c, 0, 64, 57
1, 152916, Control_c, 0, 64, 55
1, 152916, Control_c, 0, 67, 66
1, 152931, Control_c, 0, 64, 53
1, 152946, Control_c, 0, 64, 51
1, 152946, Control_c, 0, 67, 66
1, 152961, Control_c, 0, 64, 50
1, 152982, Control_c, 0, 64, 48
1, 152982, Control_c, 0, 67, 67
1, 152997, Control_c, 0, 64, 47
1, 152997, Control_c, 0, 67, 67
1, 153012, Control_c, 0, 64, 44
1, 153012, Control_c, 0, 67, 68
1, 153027, Control_c, 0, 64, 43
1, 153042, Control_c, 0, 64, 41
1, 153042, Control_c, 0, 67, 68
1, 153057, Control_c, 0, 64, 40
1, 153057, Control_c, 0, 67, 69
1, 153072, Control_c, 0, 64, 39
1, 153072, Control_c, 0, 67, 70
1, 153087, Control_c, 0, 64, 38
1, 153087, Control_c, 0, 67, 70
1, 153101, Control_c, 0, 64, 37
1, 153101, Control_c, 0, 67, 71
1, 153116, Control_c, 0, 64, 36
1, 153116, Control_c, 0, 67, 72
1, 153131, Control_c, 0, 64, 36
1, 153131, Control_c, 0, 67, 72
1, 153146, Control_c, 0, 64, 35
1, 153146, Control_c, 0, 67, 73
1, 153161, Control_c, 0, 67, 73
1, 153175, Control_c, 0, 67, 74
1, 153190, Control_c, 0, 64, 35
1, 153205, Control_c, 0, 67, 74
1, 153220, Control_c, 0, 67, 75
1, 153235, Control_c, 0, 67, 75
1, 153249, Control_c, 0, 67, 76
1, 153279, Control_c, 0, 67, 76
1, 153293, Control_c, 0, 67, 77
1, 153308, Control_c, 0, 67, 78
1, 153323, Control_c, 0, 67, 80
1, 153338, Control_c, 0, 67, 81
1, 153353, Control_c, 0, 67, 84
1, 153367, Control_c, 0, 67, 87
1, 153382, Control_c, 0, 67, 90
1, 153397, Control_c, 0, 67, 93
1, 153412, Control_c, 0, 67, 96
1, 153427, Control_c, 0, 67, 98
1, 153442, Control_c, 0, 67, 101
1, 153456, Control_c, 0, 67, 105
1, 153471, Control_c, 0, 67, 109
1, 153486, Control_c, 0, 67, 113
1, 153494, Note_on_c, 0, 63, 44
1, 153501, Control_c, 0, 67, 117
1, 153516, Control_c, 0, 67, 119
1, 153531, Control_c, 0, 64, 35
1, 153531, Control_c, 0, 67, 121
1, 153537, Note_off_c, 0, 65, 55
1, 153546, Control_c, 0, 67, 124
1, 153561, Control_c, 0, 64, 36
1, 153561, Control_c, 0, 67, 127
1, 153574, Control_c, 0, 64, 36
1, 153590, Control_c, 0, 64, 37
1, 153635, Control_c, 0, 64, 37
1, 153664, Control_c, 0, 64, 38
1, 153709, Control_c, 0, 64, 38
1, 153746, Control_c, 0, 64, 39
1, 153760, Control_c, 0, 64, 39
1, 153790, Control_c, 0, 64, 40
1, 153914, Note_on_c, 0, 61, 41
1, 153967, Note_off_c, 0, 63, 53
1, 154056, Control_c, 0, 64, 39
1, 154071, Control_c, 0, 64, 39
1, 154130, Control_c, 0, 64, 38
1, 154154, Note_on_c, 0, 60, 45
1, 154175, Control_c, 0, 64, 38
1, 154198, Note_off_c, 0, 61, 36
1, 154789, Note_on_c, 0, 63, 55
1, 154792, Control_c, 0, 64, 37
1, 155001, Note_off_c, 0, 60, 46
1, 155007, Note_on_c, 0, 56, 44
1, 155194, Note_off_c, 0, 56, 50
1, 155204, Note_on_c, 0, 55, 46
1, 155229, Control_c, 0, 64, 38
1, 155302, Control_c, 0, 64, 38
1, 155347, Control_c, 0, 64, 39
1, 155411, Note_on_c, 0, 68, 61
1, 155422, Note_off_c, 0, 55, 49
1, 155425, Note_on_c, 0, 53, 41
1, 155448, Note_off_c, 0, 63, 59
1, 155451, Control_c, 0, 64, 39
1, 155574, Note_off_c, 0, 53, 61
1, 155612, Note_on_c, 0, 55, 43
1, 155797, Note_off_c, 0, 55, 55
1, 155817, Note_on_c, 0, 51, 40
1, 156007, Note_on_c, 0, 65, 56
1, 156025, Note_off_c, 0, 51, 51
1, 156026, Note_on_c, 0, 50, 44
1, 156041, Note_off_c, 0, 68, 59
1, 156201, Note_off_c, 0, 50, 54
1, 156217, Note_on_c, 0, 51, 41
1, 156347, Control_c, 0, 64, 39
1, 156412, Note_on_c, 0, 53, 50
1, 156421, Control_c, 0, 64, 38
1, 156450, Control_c, 0, 64, 38
1, 156459, Note_off_c, 0, 51, 35
1, 156480, Control_c, 0, 64, 37
1, 156509, Control_c, 0, 64, 37
1, 156539, Control_c, 0, 64, 36
1, 156554, Control_c, 0, 64, 36
1, 156569, Control_c, 0, 64, 35
1, 156580, Note_off_c, 0, 53, 63
1, 156598, Control_c, 0, 64, 34
1, 156603, Note_on_c, 0, 70, 65
1, 156613, Control_c, 0, 64, 32
1, 156614, Note_on_c, 0, 55, 51
1, 156628, Control_c, 0, 64, 31
1, 156643, Control_c, 0, 64, 29
1, 156645, Note_off_c, 0, 65, 54
1, 156658, Control_c, 0, 64, 27
1, 156673, Control_c, 0, 64, 25
1, 156688, Control_c, 0, 64, 22
1, 156703, Control_c, 0, 64, 19
1, 156724, Control_c, 0, 64, 14
1, 156739, Control_c, 0, 64, 9
1, 156754, Control_c, 0, 64, 0
1, 156812, Note_off_c, 0, 55, 56
1, 156821, Note_on_c, 0, 56, 50
1, 156998, Note_off_c, 0, 56, 55
1, 157016, Note_on_c, 0, 53, 50
1, 157194, Note_on_c, 0, 67, 60
1, 157197, Note_off_c, 0, 53, 53
1, 157206, Note_on_c, 0, 52, 44
1, 157254, Note_off_c, 0, 70, 57
1, 157396, Note_on_c, 0, 53, 48
1, 157397, Note_off_c, 0, 52, 56
1, 157556, Note_off_c, 0, 53, 65
1, 157593, Note_on_c, 0, 55, 56
1, 157780, Note_on_c, 0, 72, 69
1, 157782, Note_off_c, 0, 55, 53
1, 157789, Note_on_c, 0, 56, 51
1, 157812, Note_off_c, 0, 67, 57
1, 157975, Note_off_c, 0, 56, 59
1, 157984, Note_on_c, 0, 55, 51
1, 158149, Note_off_c, 0, 55, 57
1, 158162, Note_on_c, 0, 56, 55
1, 158355, Note_off_c, 0, 56, 55
1, 158358, Note_on_c, 0, 70, 61
1, 158361, Note_on_c, 0, 58, 50
1, 158404, Note_off_c, 0, 72, 56
1, 158507, Note_off_c, 0, 58, 59
1, 158546, Note_on_c, 0, 60, 54
1, 158706, Note_off_c, 0, 60, 61
1, 158719, Note_on_c, 0, 62, 52
1, 158721, Note_on_c, 0, 68, 63
1, 158751, Note_off_c, 0, 70, 54
1, 158899, Note_off_c, 0, 62, 59
1, 158914, Note_on_c, 0, 67, 59
1, 158928, Note_on_c, 0, 63, 47
1, 158932, Note_off_c, 0, 68, 56
1, 159078, Note_off_c, 0, 63, 56
1, 159110, Note_on_c, 0, 65, 56
1, 159299, Note_on_c, 0, 62, 54
1, 159305, Note_off_c, 0, 65, 53
1, 159510, Note_off_c, 0, 62, 58
1, 159511, Note_on_c, 0, 70, 66
1, 159517, Note_on_c, 0, 63, 51
1, 159527, Note_off_c, 0, 67, 56
1, 159719, Note_off_c, 0, 63, 54
1, 159725, Note_on_c, 0, 65, 43
1, 159899, Note_on_c, 0, 61, 47
1, 159902, Note_off_c, 0, 65, 50
1, 160089, Note_on_c, 0, 60, 49
1, 160143, Note_off_c, 0, 61, 35
1, 160253, Note_off_c, 0, 60, 61
1, 160280, Note_on_c, 0, 63, 49
1, 160461, Note_off_c, 0, 63, 50
1, 160468, Note_on_c, 0, 61, 45
1, 160631, Note_off_c, 0, 61, 56
1, 160648, Note_on_c, 0, 68, 49
1, 160653, Note_on_c, 0, 60, 45
1, 160746, Note_off_c, 0, 70, 45
1, 160810, Note_off_c, 0, 60, 57
1, 160828, Note_on_c, 0, 61, 43
1, 160986, Note_off_c, 0, 61, 53
1, 161012, Note_on_c, 0, 63, 39
1, 161019, Note_on_c, 0, 66, 44
1, 161207, Note_off_c, 0, 66, 54
1, 161215, Note_on_c, 0, 65, 53
1, 161237, Note_off_c, 0, 68, 34
1, 161377, Note_off_c, 0, 63, 56
1, 161401, Note_on_c, 0, 60, 40
1, 161571, Note_off_c, 0, 60, 61
1, 161609, Note_on_c, 0, 61, 37
1, 161678, Control_c, 0, 64, 13
1, 161693, Control_c, 0, 64, 35
1, 161708, Control_c, 0, 64, 47
1, 161722, Control_c, 0, 64, 55
1, 161737, Control_c, 0, 64, 58
1, 161752, Control_c, 0, 64, 60
1, 161767, Control_c, 0, 64, 62
1, 161782, Control_c, 0, 64, 62
1, 161790, Note_on_c, 0, 68, 65
1, 161797, Control_c, 0, 64, 63
1, 161812, Control_c, 0, 64, 64
1, 161813, Note_off_c, 0, 65, 59
1, 161827, Control_c, 0, 64, 65
1, 161842, Control_c, 0, 64, 65
1, 161856, Control_c, 0, 64, 66
1, 161886, Control_c, 0, 64, 67
1, 161916, Control_c, 0, 64, 66
1, 161991, Note_off_c, 0, 61, 41
1, 161992, Note_on_c, 0, 59, 42
1, 161997, Control_c, 0, 64, 67
1, 162000, Note_on_c, 0, 62, 40
1, 162012, Control_c, 0, 64, 69
1, 162027, Control_c, 0, 64, 71
1, 162041, Control_c, 0, 64, 73
1, 162056, Control_c, 0, 64, 75
1, 162071, Control_c, 0, 64, 77
1, 162086, Control_c, 0, 64, 78
1, 162101, Control_c, 0, 64, 80
1, 162116, Control_c, 0, 64, 81
1, 162127, Note_off_c, 0, 62, 45
1, 162130, Control_c, 0, 64, 82
1, 162164, Note_on_c, 0, 63, 53
1, 162170, Note_on_c, 0, 60, 35
1, 162202, Note_off_c, 0, 59, 27
1, 162230, Note_off_c, 0, 63, 61
1, 162254, Note_off_c, 0, 68, 60
1, 162371, Note_on_c, 0, 73, 73
1, 162383, Control_c, 0, 64, 81
1, 162398, Control_c, 0, 64, 80
1, 162400, Note_on_c, 0, 65, 45
1, 162413, Control_c, 0, 64, 76
1, 162427, Control_c, 0, 64, 71
1, 162442, Control_c, 0, 64, 65
1, 162457, Control_c, 0, 64, 59
1, 162472, Control_c, 0, 64, 50
1, 162486, Control_c, 0, 64, 39
1, 162501, Control_c, 0, 64, 24
1, 162516, Control_c, 0, 64, 0
1, 162567, Note_off_c, 0, 60, 48
1, 162575, Note_on_c, 0, 58, 42
1, 162575, Note_on_c, 0, 70, 54
1, 162584, Note_off_c, 0, 65, 43
1, 162694, Control_c, 0, 64, 25
1, 162716, Control_c, 0, 64, 40
1, 162731, Control_c, 0, 64, 50
1, 162746, Control_c, 0, 64, 55
1, 162758, Note_off_c, 0, 70, 50
1, 162760, Control_c, 0, 64, 58
1, 162763, Note_off_c, 0, 58, 51
1, 162764, Note_on_c, 0, 61, 39
1, 162766, Note_on_c, 0, 68, 52
1, 162775, Control_c, 0, 64, 59
1, 162790, Control_c, 0, 64, 60
1, 162805, Control_c, 0, 64, 61
1, 162819, Control_c, 0, 64, 62
1, 162828, Note_off_c, 0, 73, 56
1, 162834, Control_c, 0, 64, 62
1, 162849, Control_c, 0, 64, 63
1, 162894, Control_c, 0, 64, 63
1, 162937, Note_off_c, 0, 61, 49
1, 162948, Note_on_c, 0, 70, 71
1, 162962, Note_on_c, 0, 63, 49
1, 163027, Control_c, 0, 64, 64
1, 163054, Note_off_c, 0, 68, 33
1, 163057, Control_c, 0, 64, 64
1, 163072, Control_c, 0, 64, 65
1, 163086, Control_c, 0, 64, 66
1, 163101, Control_c, 0, 64, 67
1, 163116, Control_c, 0, 64, 68
1, 163131, Control_c, 0, 64, 70
1, 163141, Note_on_c, 0, 65, 42
1, 163146, Control_c, 0, 64, 71
1, 163160, Control_c, 0, 64, 71
1, 163251, Note_off_c, 0, 63, 45
1, 163259, Note_off_c, 0, 65, 50
1, 163313, Note_on_c, 0, 61, 45
1, 163321, Note_on_c, 0, 67, 54
1, 163324, Control_c, 0, 64, 72
1, 163465, Control_c, 0, 64, 71
1, 163480, Control_c, 0, 64, 70
1, 163495, Control_c, 0, 64, 67
1, 163499, Note_off_c, 0, 61, 55
1, 163509, Control_c, 0, 64, 61
1, 163511, Note_on_c, 0, 75, 69
1, 163513, Note_off_c, 0, 70, 59
1, 163524, Control_c, 0, 64, 46
1, 163536, Note_on_c, 0, 60, 43
1, 163539, Control_c, 0, 64, 0
1, 163613, Control_c, 0, 67, 126
1, 163627, Control_c, 0, 64, 21
1, 163627, Control_c, 0, 67, 123
1, 163642, Control_c, 0, 64, 47
1, 163642, Control_c, 0, 67, 119
1, 163657, Control_c, 0, 64, 61
1, 163657, Control_c, 0, 67, 114
1, 163672, Control_c, 0, 64, 65
1, 163672, Control_c, 0, 67, 108
1, 163687, Control_c, 0, 64, 68
1, 163687, Control_c, 0, 67, 101
1, 163702, Control_c, 0, 64, 72
1, 163702, Control_c, 0, 67, 95
1, 163717, Control_c, 0, 64, 76
1, 163717, Control_c, 0, 67, 87
1, 163718, Note_on_c, 0, 72, 51
1, 163732, Control_c, 0, 64, 80
1, 163732, Control_c, 0, 67, 80
1, 163747, Control_c, 0, 64, 84
1, 163747, Control_c, 0, 67, 72
1, 163761, Control_c, 0, 64, 86
1, 163761, Control_c, 0, 67, 65
1, 163776, Control_c, 0, 64, 88
1, 163776, Control_c, 0, 67, 58
1, 163791, Control_c, 0, 64, 89
1, 163791, Control_c, 0, 67, 54
1, 163806, Control_c, 0, 64, 91
1, 163806, Control_c, 0, 67, 50
1, 163811, Note_off_c, 0, 60, 44
1, 163819, Note_off_c, 0, 67, 35
1, 163821, Control_c, 0, 64, 93
1, 163821, Control_c, 0, 67, 47
1, 163835, Control_c, 0, 64, 94
1, 163835, Control_c, 0, 67, 44
1, 163850, Control_c, 0, 64, 95
1, 163850, Control_c, 0, 67, 41
1, 163865, Control_c, 0, 67, 38
1, 163872, Note_on_c, 0, 48, 48
1, 163875, Note_on_c, 0, 70, 52
1, 163880, Control_c, 0, 64, 96
1, 163880, Control_c, 0, 67, 35
1, 163895, Control_c, 0, 64, 96
1, 163895, Control_c, 0, 67, 33
1, 163902, Note_off_c, 0, 72, 31
1, 163909, Control_c, 0, 64, 97
1, 163909, Control_c, 0, 67, 31
1, 163924, Control_c, 0, 64, 97
1, 163924, Control_c, 0, 67, 29
1, 163931, Note_off_c, 0, 75, 29
1, 163939, Control_c, 0, 64, 98
1, 163939, Control_c, 0, 67, 27
1, 163954, Control_c, 0, 64, 99
1, 163954, Control_c, 0, 67, 25
1, 163969, Control_c, 0, 67, 22
1, 163985, Control_c, 0, 67, 19
1, 163999, Control_c, 0, 67, 16
1, 164014, Control_c, 0, 67, 14
1, 164021, Note_off_c, 0, 48, 33
1, 164029, Control_c, 0, 67, 11
1, 164044, Control_c, 0, 67, 8
1, 164058, Control_c, 0, 64, 96
1, 164058, Control_c, 0, 67, 0
1, 164067, Note_on_c, 0, 72, 70
1, 164073, Control_c, 0, 64, 89
1, 164074, Note_on_c, 0, 53, 54
1, 164088, Control_c, 0, 64, 78
1, 164103, Control_c, 0, 64, 66
1, 164118, Control_c, 0, 64, 48
1, 164129, Note_off_c, 0, 70, 30
1, 164132, Control_c, 0, 64, 0
1, 164162, Control_c, 0, 64, 22
1, 164177, Control_c, 0, 64, 38
1, 164192, Control_c, 0, 64, 47
1, 164214, Control_c, 0, 64, 54
1, 164229, Control_c, 0, 64, 60
1, 164244, Control_c, 0, 64, 63
1, 164258, Control_c, 0, 64, 66
1, 164269, Note_on_c, 0, 67, 49
1, 164273, Control_c, 0, 64, 68
1, 164288, Control_c, 0, 64, 71
1, 164303, Control_c, 0, 64, 74
1, 164318, Control_c, 0, 64, 76
1, 164332, Control_c, 0, 64, 78
1, 164347, Control_c, 0, 64, 80
1, 164362, Control_c, 0, 64, 81
1, 164377, Control_c, 0, 64, 83
1, 164381, Note_off_c, 0, 67, 53
1, 164392, Control_c, 0, 64, 85
1, 164406, Control_c, 0, 64, 87
1, 164421, Control_c, 0, 64, 88
1, 164430, Note_off_c, 0, 53, 44
1, 164436, Control_c, 0, 64, 89
1, 164440, Note_on_c, 0, 51, 49
1, 164450, Control_c, 0, 64, 90
1, 164454, Note_on_c, 0, 69, 51
1, 164465, Control_c, 0, 64, 91
1, 164480, Control_c, 0, 64, 92
1, 164495, Control_c, 0, 64, 94
1, 164510, Control_c, 0, 64, 96
1, 164525, Control_c, 0, 64, 97
1, 164539, Control_c, 0, 64, 98
1, 164569, Control_c, 0, 64, 97
1, 164584, Control_c, 0, 64, 93
1, 164584, Control_c, 0, 67, 8
1, 164599, Control_c, 0, 64, 81
1, 164599, Control_c, 0, 67, 10
1, 164614, Control_c, 0, 64, 68
1, 164614, Control_c, 0, 67, 14
1, 164620, Note_off_c, 0, 51, 58
1, 164629, Control_c, 0, 64, 49
1, 164629, Control_c, 0, 67, 19
1, 164631, Note_on_c, 0, 77, 71
1, 164639, Note_on_c, 0, 49, 58
1, 164644, Control_c, 0, 64, 0
1, 164644, Control_c, 0, 67, 28
1, 164658, Control_c, 0, 67, 38
1, 164673, Control_c, 0, 64, 19
1, 164673, Control_c, 0, 67, 50
1, 164688, Control_c, 0, 64, 40
1, 164688, Control_c, 0, 67, 58
1, 164700, Note_off_c, 0, 69, 34
1, 164703, Control_c, 0, 64, 54
1, 164703, Control_c, 0, 67, 65
1, 164718, Control_c, 0, 64, 59
1, 164718, Control_c, 0, 67, 70
1, 164732, Control_c, 0, 64, 63
1, 164732, Control_c, 0, 67, 74
1, 164747, Control_c, 0, 64, 66
1, 164747, Control_c, 0, 67, 79
1, 164762, Control_c, 0, 64, 70
1, 164762, Control_c, 0, 67, 84
1, 164778, Control_c, 0, 64, 74
1, 164778, Control_c, 0, 67, 90
1, 164782, Note_off_c, 0, 77, 52
1, 164784, Note_off_c, 0, 72, 31
1, 164793, Control_c, 0, 64, 78
1, 164793, Control_c, 0, 67, 95
1, 164808, Control_c, 0, 64, 81
1, 164808, Control_c, 0, 67, 99
1, 164818, Note_on_c, 0, 70, 60
1, 164822, Control_c, 0, 64, 84
1, 164822, Control_c, 0, 67, 102
1, 164837, Control_c, 0, 64, 87
1, 164837, Control_c, 0, 67, 106
1, 164852, Control_c, 0, 64, 90
1, 164852, Control_c, 0, 67, 109
1, 164867, Control_c, 0, 64, 92
1, 164867, Control_c, 0, 67, 113
1, 164881, Control_c, 0, 64, 94
1, 164881, Control_c, 0, 67, 117
1, 164896, Control_c, 0, 64, 95
1, 164896, Control_c, 0, 67, 121
1, 164911, Control_c, 0, 64, 96
1, 164911, Control_c, 0, 67, 124
1, 164926, Control_c, 0, 64, 96
1, 164926, Control_c, 0, 67, 127
1, 164938, Note_off_c, 0, 49, 59
1, 164941, Control_c, 0, 64, 97
1, 164941, Control_c, 0, 67, 127
1, 164963, Control_c, 0, 64, 99
1, 164978, Control_c, 0, 64, 101
1, 164993, Control_c, 0, 64, 102
1, 164996, Note_on_c, 0, 50, 52
1, 165003, Note_on_c, 0, 68, 57
1, 165007, Control_c, 0, 64, 103
1, 165022, Control_c, 0, 64, 103
1, 165037, Control_c, 0, 64, 104
1, 165052, Control_c, 0, 64, 105
1, 165067, Control_c, 0, 64, 107
1, 165077, Note_off_c, 0, 70, 52
1, 165081, Control_c, 0, 64, 110
1, 165096, Control_c, 0, 64, 112
1, 165111, Control_c, 0, 64, 112
1, 165155, Control_c, 0, 64, 107
1, 165170, Note_off_c, 0, 50, 37
1, 165170, Control_c, 0, 64, 95
1, 165183, Note_off_c, 0, 68, 54
1, 165185, Control_c, 0, 64, 78
1, 165187, Note_on_c, 0, 75, 64
1, 165189, Note_on_c, 0, 51, 49
1, 165195, Note_on_c, 0, 67, 56
1, 165199, Control_c, 0, 64, 65
1, 165214, Control_c, 0, 64, 42
1, 165229, Control_c, 0, 64, 0
1, 165259, Control_c, 0, 64, 23
1, 165273, Control_c, 0, 64, 44
1, 165288, Control_c, 0, 64, 53
1, 165303, Control_c, 0, 64, 60
1, 165318, Control_c, 0, 64, 64
1, 165319, Note_off_c, 0, 67, 38
1, 165333, Control_c, 0, 64, 67
1, 165347, Control_c, 0, 64, 70
1, 165362, Control_c, 0, 64, 74
1, 165364, Note_off_c, 0, 51, 56
1, 165372, Note_on_c, 0, 68, 49
1, 165377, Control_c, 0, 64, 77
1, 165379, Note_on_c, 0, 53, 49
1, 165392, Control_c, 0, 64, 79
1, 165407, Control_c, 0, 64, 81
1, 165422, Control_c, 0, 64, 82
1, 165437, Control_c, 0, 64, 83
1, 165452, Control_c, 0, 64, 83
1, 165481, Control_c, 0, 64, 84
1, 165496, Control_c, 0, 64, 84
1, 165498, Note_off_c, 0, 53, 38
1, 165505, Note_off_c, 0, 68, 57
1, 165511, Control_c, 0, 64, 85
1, 165535, Note_on_c, 0, 55, 52
1, 165541, Control_c, 0, 64, 85
1, 165542, Note_on_c, 0, 73, 60
1, 165544, Note_on_c, 0, 70, 57
1, 165616, Control_c, 0, 64, 86
1, 165690, Control_c, 0, 64, 85
1, 165705, Note_off_c, 0, 70, 37
1, 165708, Note_off_c, 0, 55, 50
1, 165711, Control_c, 0, 64, 82
1, 165721, Note_off_c, 0, 75, 20
1, 165726, Control_c, 0, 64, 76
1, 165741, Control_c, 0, 64, 66
1, 165746, Note_on_c, 0, 72, 57
1, 165746, Note_off_c, 0, 73, 54
1, 165750, Note_on_c, 0, 56, 46
1, 165756, Control_c, 0, 64, 44
1, 165767, Note_on_c, 0, 63, 50
1, 165771, Control_c, 0, 64, 0
1, 165875, Control_c, 0, 64, 45
1, 165890, Control_c, 0, 64, 59
1, 165904, Control_c, 0, 64, 64
1, 165918, Note_off_c, 0, 63, 61
1, 165919, Control_c, 0, 64, 67
1, 165927, Note_on_c, 0, 60, 53
1, 165934, Control_c, 0, 64, 72
1, 165949, Control_c, 0, 64, 76
1, 165949, Note_off_c, 0, 56, 34
1, 165964, Control_c, 0, 64, 81
1, 165964, Control_c, 0, 67, 126
1, 165978, Control_c, 0, 64, 85
1, 165978, Control_c, 0, 67, 124
1, 165993, Control_c, 0, 64, 87
1, 165993, Control_c, 0, 67, 122
1, 166008, Control_c, 0, 64, 89
1, 166008, Control_c, 0, 67, 120
1, 166009, Note_off_c, 0, 72, 55
1, 166022, Control_c, 0, 64, 91
1, 166022, Control_c, 0, 67, 116
1, 166037, Control_c, 0, 64, 92
1, 166037, Control_c, 0, 67, 112
1, 166052, Control_c, 0, 64, 94
1, 166052, Control_c, 0, 67, 106
1, 166067, Control_c, 0, 64, 96
1, 166067, Control_c, 0, 67, 96
1, 166075, Note_off_c, 0, 60, 56
1, 166082, Control_c, 0, 64, 97
1, 166082, Control_c, 0, 67, 85
1, 166096, Control_c, 0, 67, 74
1, 166099, Note_on_c, 0, 58, 60
1, 166111, Control_c, 0, 67, 63
1, 166126, Control_c, 0, 67, 52
1, 166141, Control_c, 0, 67, 44
1, 166156, Control_c, 0, 67, 36
1, 166170, Control_c, 0, 67, 28
1, 166185, Control_c, 0, 67, 22
1, 166200, Control_c, 0, 67, 18
1, 166215, Control_c, 0, 67, 15
1, 166230, Control_c, 0, 67, 14
1, 166245, Control_c, 0, 67, 13
1, 166259, Control_c, 0, 64, 96
1, 166274, Control_c, 0, 64, 95
1, 166289, Control_c, 0, 64, 93
1, 166295, Note_off_c, 0, 58, 59
1, 166304, Control_c, 0, 64, 91
1, 166305, Note_on_c, 0, 75, 69
1, 166316, Note_on_c, 0, 56, 55
1, 166317, Note_on_c, 0, 72, 61
1, 166319, Control_c, 0, 64, 87
1, 166334, Control_c, 0, 64, 83
1, 166348, Control_c, 0, 64, 80
1, 166348, Control_c, 0, 67, 14
1, 166364, Control_c, 0, 64, 77
1, 166364, Control_c, 0, 67, 15
1, 166379, Control_c, 0, 64, 74
1, 166379, Control_c, 0, 67, 16
1, 166394, Control_c, 0, 64, 71
1, 166394, Control_c, 0, 67, 17
1, 166408, Control_c, 0, 64, 67
1, 166408, Control_c, 0, 67, 18
1, 166423, Control_c, 0, 64, 64
1, 166423, Control_c, 0, 67, 18
1, 166438, Control_c, 0, 64, 62
1, 166438, Control_c, 0, 67, 19
1, 166460, Control_c, 0, 64, 61
1, 166460, Control_c, 0, 67, 20
1, 166475, Control_c, 0, 64, 59
1, 166475, Control_c, 0, 67, 22
1, 166483, Note_off_c, 0, 56, 61
1, 166488, Note_off_c, 0, 72, 59
1, 166490, Control_c, 0, 64, 57
1, 166490, Control_c, 0, 67, 22
1, 166505, Control_c, 0, 64, 54
1, 166505, Control_c, 0, 67, 23
1, 166520, Control_c, 0, 64, 53
1, 166520, Control_c, 0, 67, 25
1, 166526, Note_on_c, 0, 58, 49
1, 166528, Note_on_c, 0, 73, 50
1, 166534, Control_c, 0, 64, 52
1, 166534, Control_c, 0, 67, 30
1, 166549, Control_c, 0, 64, 51
1, 166549, Control_c, 0, 67, 35
1, 166564, Control_c, 0, 64, 51
1, 166564, Control_c, 0, 67, 44
1, 166579, Control_c, 0, 64, 50
1, 166579, Control_c, 0, 67, 54
1, 166594, Control_c, 0, 64, 49
1, 166594, Control_c, 0, 67, 62
1, 166608, Control_c, 0, 64, 48
1, 166608, Control_c, 0, 67, 70
1, 166623, Control_c, 0, 64, 48
1, 166623, Control_c, 0, 67, 77
1, 166638, Control_c, 0, 64, 47
1, 166638, Control_c, 0, 67, 83
1, 166653, Control_c, 0, 64, 47
1, 166653, Control_c, 0, 67, 89
1, 166668, Control_c, 0, 64, 46
1, 166668, Control_c, 0, 67, 95
1, 166668, Note_off_c, 0, 58, 55
1, 166683, Control_c, 0, 64, 46
1, 166683, Control_c, 0, 67, 99
1, 166698, Control_c, 0, 64, 45
1, 166698, Control_c, 0, 67, 102
1, 166701, Note_on_c, 0, 55, 47
1, 166701, Note_on_c, 0, 70, 48
1, 166713, Control_c, 0, 64, 44
1, 166713, Control_c, 0, 67, 106
1, 166727, Control_c, 0, 64, 44
1, 166727, Control_c, 0, 67, 109
1, 166742, Control_c, 0, 64, 43
1, 166742, Control_c, 0, 67, 112
1, 166757, Control_c, 0, 64, 41
1, 166757, Control_c, 0, 67, 115
1, 166771, Control_c, 0, 64, 39
1, 166771, Control_c, 0, 67, 117
1, 166786, Control_c, 0, 64, 33
1, 166786, Control_c, 0, 67, 117
1, 166801, Control_c, 0, 64, 22
1, 166801, Control_c, 0, 67, 118
1, 166816, Control_c, 0, 64, 0
1, 166831, Control_c, 0, 67, 118
1, 166865, Note_off_c, 0, 55, 58
1, 166891, Note_off_c, 0, 70, 54
1, 166894, Note_on_c, 0, 53, 47
1, 166894, Note_on_c, 0, 68, 50
1, 166934, Control_c, 0, 64, 13
1, 166949, Control_c, 0, 64, 32
1, 166964, Control_c, 0, 64, 44
1, 166978, Control_c, 0, 64, 54
1, 166993, Note_off_c, 0, 73, 10
1, 166993, Control_c, 0, 64, 59
1, 167008, Control_c, 0, 64, 62
1, 167023, Control_c, 0, 64, 64
1, 167038, Control_c, 0, 64, 66
1, 167052, Control_c, 0, 64, 68
1, 167057, Note_off_c, 0, 68, 61
1, 167066, Control_c, 0, 64, 72
1, 167071, Note_on_c, 0, 56, 46
1, 167076, Note_on_c, 0, 72, 55
1, 167081, Control_c, 0, 64, 75
1, 167096, Control_c, 0, 64, 78
1, 167111, Control_c, 0, 64, 79
1, 167125, Control_c, 0, 64, 81
1, 167125, Control_c, 0, 67, 118
1, 167140, Control_c, 0, 64, 82
1, 167155, Control_c, 0, 64, 84
1, 167155, Control_c, 0, 67, 117
1, 167171, Control_c, 0, 64, 86
1, 167186, Control_c, 0, 64, 87
1, 167208, Control_c, 0, 64, 87
1, 167222, Control_c, 0, 64, 88
1, 167237, Control_c, 0, 64, 88
1, 167245, Note_off_c, 0, 72, 60
1, 167246, Note_off_c, 0, 56, 37
1, 167267, Control_c, 0, 64, 89
1, 167270, Note_off_c, 0, 53, 14
1, 167271, Note_on_c, 0, 55, 50
1, 167274, Note_on_c, 0, 70, 56
1, 167282, Control_c, 0, 64, 90
1, 167282, Control_c, 0, 67, 117
1, 167297, Control_c, 0, 64, 91
1, 167327, Control_c, 0, 64, 91
1, 167341, Control_c, 0, 64, 92
1, 167371, Control_c, 0, 64, 92
1, 167371, Control_c, 0, 67, 116
1, 167386, Control_c, 0, 64, 92
1, 167400, Control_c, 0, 64, 91
1, 167408, Note_off_c, 0, 70, 57
1, 167415, Control_c, 0, 64, 87
1, 167430, Control_c, 0, 64, 79
1, 167433, Note_off_c, 0, 55, 53
1, 167445, Control_c, 0, 64, 67
1, 167447, Note_on_c, 0, 73, 66
1, 167457, Note_on_c, 0, 68, 59
1, 167459, Note_on_c, 0, 53, 47
1, 167460, Control_c, 0, 64, 49
1, 167474, Control_c, 0, 64, 25
1, 167489, Control_c, 0, 64, 26
1, 167504, Control_c, 0, 64, 35
1, 167504, Control_c, 0, 67, 116
1, 167519, Control_c, 0, 64, 44
1, 167534, Control_c, 0, 64, 50
1, 167534, Control_c, 0, 67, 115
1, 167548, Control_c, 0, 64, 56
1, 167563, Control_c, 0, 64, 60
1, 167578, Control_c, 0, 64, 63
1, 167578, Control_c, 0, 67, 115
1, 167592, Control_c, 0, 64, 66
1, 167607, Control_c, 0, 64, 69
1, 167612, Note_off_c, 0, 68, 58
1, 167621, Note_off_c, 0, 75, 32
1, 167622, Control_c, 0, 64, 72
1, 167629, Note_off_c, 0, 53, 56
1, 167630, Note_off_c, 0, 73, 58
1, 167637, Control_c, 0, 64, 74
1, 167637, Control_c, 0, 67, 114
1, 167652, Control_c, 0, 64, 77
1, 167653, Note_on_c, 0, 52, 38
1, 167654, Note_on_c, 0, 67, 54
1, 167666, Control_c, 0, 64, 79
1, 167681, Control_c, 0, 64, 80
1, 167696, Control_c, 0, 64, 81
1, 167741, Control_c, 0, 64, 81
1, 167756, Control_c, 0, 64, 82
1, 167756, Control_c, 0, 67, 114
1, 167771, Control_c, 0, 64, 83
1, 167786, Control_c, 0, 64, 84
1, 167794, Note_off_c, 0, 67, 36
1, 167800, Control_c, 0, 64, 84
1, 167818, Note_on_c, 0, 53, 42
1, 167818, Note_on_c, 0, 72, 62
1, 167821, Note_on_c, 0, 68, 55
1, 167830, Control_c, 0, 64, 85
1, 167845, Control_c, 0, 64, 85
1, 167847, Note_off_c, 0, 52, 39
1, 167860, Control_c, 0, 64, 86
1, 167875, Control_c, 0, 64, 86
1, 167890, Control_c, 0, 64, 87
1, 167905, Control_c, 0, 67, 113
1, 167956, Control_c, 0, 64, 86
1, 167972, Control_c, 0, 64, 82
1, 167987, Control_c, 0, 64, 75
1, 167989, Note_off_c, 0, 68, 58
1, 168002, Control_c, 0, 64, 65
1, 168010, Note_off_c, 0, 53, 62
1, 168017, Control_c, 0, 64, 44
1, 168019, Note_off_c, 0, 72, 56
1, 168022, Note_on_c, 0, 70, 59
1, 168030, Note_on_c, 0, 55, 49
1, 168031, Control_c, 0, 64, 0
1, 168040, Note_on_c, 0, 64, 46
1, 168061, Control_c, 0, 67, 113
1, 168091, Control_c, 0, 67, 112
1, 168105, Control_c, 0, 64, 13
1, 168105, Control_c, 0, 67, 112
1, 168120, Control_c, 0, 64, 44
1, 168130, Note_off_c, 0, 64, 54
1, 168135, Control_c, 0, 64, 56
1, 168135, Control_c, 0, 67, 111
1, 168143, Note_off_c, 0, 55, 56
1, 168150, Control_c, 0, 64, 61
1, 168150, Control_c, 0, 67, 111
1, 168165, Control_c, 0, 64, 64
1, 168165, Control_c, 0, 67, 110
1, 168179, Control_c, 0, 64, 66
1, 168179, Control_c, 0, 67, 109
1, 168194, Control_c, 0, 64, 68
1, 168194, Control_c, 0, 67, 108
1, 168206, Note_on_c, 0, 58, 46
1, 168209, Control_c, 0, 64, 73
1, 168209, Control_c, 0, 67, 108
1, 168216, Note_on_c, 0, 67, 44
1, 168224, Control_c, 0, 64, 77
1, 168224, Control_c, 0, 67, 107
1, 168239, Control_c, 0, 64, 81
1, 168239, Control_c, 0, 67, 105
1, 168254, Control_c, 0, 64, 83
1, 168254, Control_c, 0, 67, 101
1, 168269, Control_c, 0, 64, 85
1, 168269, Control_c, 0, 67, 93
1, 168283, Control_c, 0, 64, 87
1, 168283, Control_c, 0, 67, 84
1, 168298, Control_c, 0, 64, 89
1, 168298, Control_c, 0, 67, 75
1, 168313, Control_c, 0, 64, 91
1, 168313, Control_c, 0, 67, 67
1, 168328, Control_c, 0, 64, 92
1, 168328, Control_c, 0, 67, 58
1, 168343, Control_c, 0, 64, 93
1, 168343, Control_c, 0, 67, 48
1, 168348, Note_off_c, 0, 67, 56
1, 168358, Control_c, 0, 67, 38
1, 168366, Note_off_c, 0, 58, 35
1, 168372, Note_off_c, 0, 70, 62
1, 168372, Control_c, 0, 67, 30
1, 168378, Note_on_c, 0, 56, 49
1, 168386, Note_on_c, 0, 65, 58
1, 168387, Control_c, 0, 67, 25
1, 168402, Control_c, 0, 67, 22
1, 168416, Control_c, 0, 67, 21
1, 168446, Control_c, 0, 67, 21
1, 168520, Control_c, 0, 64, 92
1, 168535, Control_c, 0, 64, 92
1, 168549, Control_c, 0, 64, 91
1, 168549, Control_c, 0, 67, 21
1, 168564, Control_c, 0, 64, 90
1, 168564, Control_c, 0, 67, 22
1, 168579, Control_c, 0, 64, 88
1, 168579, Control_c, 0, 67, 23
1, 168583, Note_off_c, 0, 56, 54
1, 168594, Control_c, 0, 64, 85
1, 168594, Control_c, 0, 67, 24
1, 168595, Note_on_c, 0, 73, 67
1, 168608, Note_on_c, 0, 55, 52
1, 168609, Control_c, 0, 64, 82
1, 168609, Control_c, 0, 67, 25
1, 168613, Note_off_c, 0, 65, 40
1, 168616, Note_on_c, 0, 70, 52
1, 168623, Control_c, 0, 64, 80
1, 168623, Control_c, 0, 67, 26
1, 168638, Control_c, 0, 64, 77
1, 168638, Control_c, 0, 67, 27
1, 168653, Control_c, 0, 64, 74
1, 168653, Control_c, 0, 67, 28
1, 168668, Control_c, 0, 64, 71
1, 168668, Control_c, 0, 67, 30
1, 168683, Control_c, 0, 64, 68
1, 168683, Control_c, 0, 67, 31
1, 168705, Control_c, 0, 64, 65
1, 168705, Control_c, 0, 67, 32
1, 168720, Control_c, 0, 64, 63
1, 168720, Control_c, 0, 67, 34
1, 168735, Control_c, 0, 64, 62
1, 168735, Control_c, 0, 67, 38
1, 168749, Control_c, 0, 64, 61
1, 168749, Control_c, 0, 67, 42
1, 168752, Note_off_c, 0, 55, 60
1, 168764, Control_c, 0, 64, 59
1, 168764, Control_c, 0, 67, 48
1, 168781, Control_c, 0, 64, 57
1, 168781, Control_c, 0, 67, 54
1, 168795, Control_c, 0, 64, 53
1, 168795, Control_c, 0, 67, 61
1, 168796, Note_on_c, 0, 72, 49
1, 168805, Note_on_c, 0, 56, 49
1, 168810, Control_c, 0, 64, 50
1, 168810, Control_c, 0, 67, 67
1, 168825, Control_c, 0, 64, 48
1, 168825, Control_c, 0, 67, 73
1, 168840, Control_c, 0, 64, 45
1, 168840, Control_c, 0, 67, 79
1, 168854, Control_c, 0, 64, 41
1, 168854, Control_c, 0, 67, 83
1, 168869, Control_c, 0, 64, 34
1, 168869, Control_c, 0, 67, 88
1, 168884, Control_c, 0, 64, 23
1, 168884, Control_c, 0, 67, 92
1, 168899, Control_c, 0, 64, 13
1, 168899, Control_c, 0, 67, 96
1, 168914, Control_c, 0, 64, 0
1, 168914, Control_c, 0, 67, 100
1, 168928, Control_c, 0, 67, 104
1, 168943, Control_c, 0, 67, 107
1, 168951, Note_off_c, 0, 56, 56
1, 168958, Note_off_c, 0, 72, 55
1, 168958, Control_c, 0, 67, 111
1, 168973, Control_c, 0, 67, 114
1, 168975, Note_on_c, 0, 68, 49
1, 168980, Note_on_c, 0, 53, 43
1, 168987, Control_c, 0, 67, 118
1, 168993, Note_off_c, 0, 70, 12
1, 169002, Control_c, 0, 67, 122
1, 169017, Control_c, 0, 67, 124
1, 169032, Control_c, 0, 67, 126
1, 169047, Control_c, 0, 67, 126
1, 169061, Control_c, 0, 67, 127
1, 169133, Note_off_c, 0, 53, 61
1, 169133, Note_off_c, 0, 68, 58
1, 169162, Note_on_c, 0, 67, 46
1, 169163, Note_on_c, 0, 52, 48
1, 169225, Control_c, 0, 64, 38
1, 169239, Control_c, 0, 64, 53
1, 169239, Control_c, 0, 67, 126
1, 169254, Control_c, 0, 64, 61
1, 169254, Control_c, 0, 67, 125
1, 169269, Control_c, 0, 64, 64
1, 169269, Control_c, 0, 67, 125
1, 169284, Control_c, 0, 64, 67
1, 169299, Control_c, 0, 64, 69
1, 169299, Control_c, 0, 67, 124
1, 169313, Control_c, 0, 64, 73
1, 169313, Control_c, 0, 67, 124
1, 169328, Control_c, 0, 64, 76
1, 169340, Note_on_c, 0, 55, 47
1, 169343, Control_c, 0, 64, 79
1, 169345, Note_on_c, 0, 70, 52
1, 169351, Note_off_c, 0, 52, 37
1, 169358, Control_c, 0, 64, 81
1, 169358, Control_c, 0, 67, 123
1, 169372, Control_c, 0, 64, 83
1, 169387, Control_c, 0, 64, 84
1, 169402, Control_c, 0, 64, 86
1, 169415, Note_off_c, 0, 73, 34
1, 169417, Control_c, 0, 64, 88
1, 169432, Control_c, 0, 64, 90
1, 169432, Control_c, 0, 67, 123
1, 169454, Control_c, 0, 64, 91
1, 169469, Control_c, 0, 64, 92
1, 169484, Control_c, 0, 64, 93
1, 169484, Control_c, 0, 67, 122
1, 169499, Control_c, 0, 64, 94
1, 169501, Note_off_c, 0, 55, 50
1, 169514, Control_c, 0, 64, 95
1, 169514, Control_c, 0, 67, 122
1, 169518, Note_on_c, 0, 68, 55
1, 169520, Note_off_c, 0, 67, 36
1, 169528, Control_c, 0, 64, 97
1, 169529, Note_on_c, 0, 53, 49
1, 169543, Control_c, 0, 64, 99
1, 169558, Control_c, 0, 64, 100
1, 169558, Control_c, 0, 67, 121
1, 169574, Control_c, 0, 64, 100
1, 169604, Control_c, 0, 67, 121
1, 169677, Control_c, 0, 67, 120
1, 169690, Note_off_c, 0, 53, 52
1, 169692, Note_off_c, 0, 68, 50
1, 169701, Note_on_c, 0, 72, 59
1, 169708, Note_on_c, 0, 67, 52
1, 169709, Note_on_c, 0, 52, 48
1, 169737, Control_c, 0, 64, 100
1, 169751, Control_c, 0, 64, 98
1, 169766, Control_c, 0, 64, 95
1, 169781, Control_c, 0, 64, 88
1, 169795, Control_c, 0, 64, 79
1, 169810, Control_c, 0, 64, 68
1, 169822, Note_off_c, 0, 70, 8
1, 169825, Control_c, 0, 64, 57
1, 169840, Control_c, 0, 64, 47
1, 169855, Control_c, 0, 64, 49
1, 169855, Control_c, 0, 67, 120
1, 169858, Note_off_c, 0, 67, 52
1, 169869, Control_c, 0, 64, 54
1, 169882, Note_off_c, 0, 52, 53
1, 169884, Control_c, 0, 64, 57
1, 169884, Control_c, 0, 67, 119
1, 169887, Note_on_c, 0, 65, 42
1, 169893, Note_on_c, 0, 50, 50
1, 169899, Control_c, 0, 64, 60
1, 169914, Control_c, 0, 64, 63
1, 169929, Control_c, 0, 64, 66
1, 169944, Control_c, 0, 64, 69
1, 169959, Control_c, 0, 64, 72
1, 169959, Control_c, 0, 67, 119
1, 169974, Control_c, 0, 64, 76
1, 169988, Control_c, 0, 64, 79
1, 170003, Control_c, 0, 64, 81
1, 170018, Control_c, 0, 64, 84
1, 170033, Control_c, 0, 64, 85
1, 170048, Control_c, 0, 64, 86
1, 170048, Control_c, 0, 67, 118
1, 170048, Note_off_c, 0, 65, 57
1, 170062, Control_c, 0, 64, 87
1, 170070, Note_on_c, 0, 52, 50
1, 170077, Note_on_c, 0, 67, 54
1, 170078, Note_on_c, 0, 70, 57
1, 170092, Control_c, 0, 64, 87
1, 170102, Note_off_c, 0, 50, 32
1, 170107, Control_c, 0, 64, 88
1, 170107, Control_c, 0, 67, 118
1, 170120, Note_off_c, 0, 72, 30
1, 170123, Note_off_c, 0, 52, 59
1, 170136, Control_c, 0, 64, 88
1, 170246, Note_off_c, 0, 67, 58
1, 170248, Control_c, 0, 64, 88
1, 170263, Control_c, 0, 64, 85
1, 170277, Control_c, 0, 64, 79
1, 170287, Note_on_c, 0, 68, 57
1, 170292, Control_c, 0, 64, 69
1, 170292, Control_c, 0, 67, 117
1, 170296, Note_on_c, 0, 53, 46
1, 170307, Control_c, 0, 64, 54
1, 170322, Control_c, 0, 64, 27
1, 170337, Control_c, 0, 64, 16
1, 170337, Control_c, 0, 67, 117
1, 170351, Control_c, 0, 64, 26
1, 170351, Control_c, 0, 67, 116
1, 170367, Control_c, 0, 64, 37
1, 170367, Control_c, 0, 67, 116
1, 170382, Control_c, 0, 64, 45
1, 170382, Control_c, 0, 67, 115
1, 170397, Control_c, 0, 64, 51
1, 170397, Control_c, 0, 67, 113
1, 170412, Control_c, 0, 64, 58
1, 170412, Control_c, 0, 67, 110
1, 170419, Note_off_c, 0, 70, 37
1, 170426, Control_c, 0, 64, 63
1, 170426, Control_c, 0, 67, 107
1, 170441, Control_c, 0, 64, 65
1, 170441, Control_c, 0, 67, 103
1, 170445, Note_off_c, 0, 53, 54
1, 170456, Note_on_c, 0, 60, 59
1, 170456, Control_c, 0, 64, 68
1, 170456, Control_c, 0, 67, 96
1, 170467, Note_on_c, 0, 51, 49
1, 170471, Control_c, 0, 64, 72
1, 170471, Control_c, 0, 67, 89
1, 170486, Control_c, 0, 64, 75
1, 170486, Control_c, 0, 67, 81
1, 170500, Control_c, 0, 64, 78
1, 170500, Control_c, 0, 67, 73
1, 170515, Control_c, 0, 64, 79
1, 170515, Control_c, 0, 67, 64
1, 170530, Control_c, 0, 64, 80
1, 170530, Control_c, 0, 67, 56
1, 170545, Control_c, 0, 64, 82
1, 170545, Control_c, 0, 67, 50
1, 170560, Control_c, 0, 64, 84
1, 170560, Control_c, 0, 67, 45
1, 170574, Control_c, 0, 64, 86
1, 170574, Control_c, 0, 67, 41
1, 170589, Control_c, 0, 64, 88
1, 170589, Control_c, 0, 67, 38
1, 170604, Control_c, 0, 64, 89
1, 170604, Control_c, 0, 67, 35
1, 170618, Control_c, 0, 64, 90
1, 170618, Control_c, 0, 67, 33
1, 170633, Control_c, 0, 64, 91
1, 170633, Control_c, 0, 67, 32
1, 170646, Note_off_c, 0, 60, 53
1, 170648, Control_c, 0, 64, 92
1, 170653, Note_off_c, 0, 51, 46
1, 170659, Note_on_c, 0, 70, 74
1, 170663, Control_c, 0, 64, 93
1, 170667, Note_on_c, 0, 50, 56
1, 170670, Note_off_c, 0, 68, 59
1, 170671, Note_on_c, 0, 65, 56
1, 170678, Control_c, 0, 64, 94
1, 170692, Control_c, 0, 64, 96
1, 170707, Control_c, 0, 64, 96
1, 170722, Control_c, 0, 64, 97
1, 170733, Note_off_c, 0, 50, 62
1, 170737, Control_c, 0, 64, 98
1, 170767, Control_c, 0, 64, 98
1, 170796, Control_c, 0, 64, 99
1, 170796, Control_c, 0, 67, 33
1, 170826, Control_c, 0, 67, 34
1, 170841, Control_c, 0, 67, 34
1, 170856, Control_c, 0, 67, 35
1, 170871, Control_c, 0, 67, 35
1, 170883, Note_on_c, 0, 51, 54
1, 170885, Control_c, 0, 67, 36
1, 170900, Control_c, 0, 64, 98
1, 170900, Control_c, 0, 67, 37
1, 170914, Note_on_c, 0, 67, 75
1, 170915, Control_c, 0, 64, 94
1, 170915, Control_c, 0, 67, 38
1, 170930, Control_c, 0, 64, 86
1, 170930, Control_c, 0, 67, 39
1, 170935, Note_off_c, 0, 70, 50
1, 170951, Control_c, 0, 64, 74
1, 170951, Control_c, 0, 67, 39
1, 170966, Control_c, 0, 64, 63
1, 170966, Control_c, 0, 67, 40
1, 170981, Control_c, 0, 64, 46
1, 170996, Control_c, 0, 67, 41
1, 171001, Note_off_c, 0, 65, 38
1, 171011, Control_c, 0, 64, 52
1, 171026, Control_c, 0, 64, 56
1, 171026, Control_c, 0, 67, 42
1, 171041, Control_c, 0, 64, 59
1, 171041, Control_c, 0, 67, 42
1, 171056, Control_c, 0, 64, 63
1, 171056, Control_c, 0, 67, 43
1, 171071, Control_c, 0, 64, 67
1, 171071, Control_c, 0, 67, 43
1, 171078, Note_off_c, 0, 51, 51
1, 171086, Control_c, 0, 64, 72
1, 171086, Control_c, 0, 67, 44
1, 171088, Note_on_c, 0, 48, 49
1, 171100, Control_c, 0, 64, 78
1, 171100, Control_c, 0, 67, 44
1, 171115, Control_c, 0, 64, 82
1, 171115, Control_c, 0, 67, 45
1, 171122, Note_on_c, 0, 63, 58
1, 171130, Control_c, 0, 64, 85
1, 171144, Control_c, 0, 64, 88
1, 171144, Control_c, 0, 67, 46
1, 171159, Control_c, 0, 64, 91
1, 171159, Control_c, 0, 67, 47
1, 171175, Control_c, 0, 64, 95
1, 171175, Control_c, 0, 67, 49
1, 171190, Control_c, 0, 64, 97
1, 171190, Control_c, 0, 67, 52
1, 171205, Control_c, 0, 64, 98
1, 171205, Control_c, 0, 67, 54
1, 171220, Control_c, 0, 67, 56
1, 171235, Control_c, 0, 67, 59
1, 171249, Control_c, 0, 67, 62
1, 171257, Note_off_c, 0, 48, 57
1, 171264, Control_c, 0, 67, 64
1, 171279, Control_c, 0, 67, 67
1, 171286, Note_off_c, 0, 63, 38
1, 171287, Note_on_c, 0, 44, 53
1, 171293, Note_on_c, 0, 68, 68
1, 171294, Control_c, 0, 67, 70
1, 171303, Note_on_c, 0, 65, 69
1, 171309, Control_c, 0, 67, 75
1, 171322, Note_off_c, 0, 67, 52
1, 171323, Control_c, 0, 64, 99
1, 171323, Control_c, 0, 67, 80
1, 171338, Control_c, 0, 67, 84
1, 171353, Control_c, 0, 64, 100
1, 171353, Control_c, 0, 67, 88
1, 171368, Control_c, 0, 64, 101
1, 171368, Control_c, 0, 67, 91
1, 171383, Control_c, 0, 64, 102
1, 171383, Control_c, 0, 67, 93
1, 171397, Control_c, 0, 64, 102
1, 171397, Control_c, 0, 67, 94
1, 171412, Control_c, 0, 67, 95
1, 171427, Control_c, 0, 64, 100
1, 171427, Control_c, 0, 67, 96
1, 171441, Control_c, 0, 64, 90
1, 171441, Control_c, 0, 67, 97
1, 171456, Control_c, 0, 64, 76
1, 171456, Control_c, 0, 67, 98
1, 171471, Control_c, 0, 64, 64
1, 171471, Control_c, 0, 67, 98
1, 171482, Note_off_c, 0, 44, 31
1, 171486, Control_c, 0, 64, 51
1, 171488, Note_off_c, 0, 65, 40
1, 171496, Note_on_c, 0, 45, 60
1, 171501, Control_c, 0, 64, 49
1, 171506, Note_on_c, 0, 63, 68
1, 171513, Note_on_c, 0, 67, 60
1, 171515, Control_c, 0, 64, 55
1, 171530, Control_c, 0, 64, 59
1, 171545, Control_c, 0, 64, 62
1, 171559, Control_c, 0, 64, 65
1, 171571, Note_off_c, 0, 68, 30
1, 171574, Control_c, 0, 64, 69
1, 171574, Control_c, 0, 67, 98
1, 171589, Control_c, 0, 64, 73
1, 171604, Control_c, 0, 64, 78
1, 171604, Control_c, 0, 67, 97
1, 171613, Note_off_c, 0, 67, 58
1, 171619, Control_c, 0, 64, 82
1, 171619, Control_c, 0, 67, 97
1, 171622, Note_on_c, 0, 65, 52
1, 171634, Control_c, 0, 64, 86
1, 171634, Control_c, 0, 67, 96
1, 171649, Control_c, 0, 64, 89
1, 171649, Control_c, 0, 67, 96
1, 171664, Note_off_c, 0, 65, 62
1, 171664, Control_c, 0, 64, 92
1, 171664, Control_c, 0, 67, 95
1, 171679, Control_c, 0, 64, 95
1, 171679, Control_c, 0, 67, 95
1, 171682, Note_off_c, 0, 63, 64
1, 171701, Control_c, 0, 64, 98
1, 171701, Control_c, 0, 67, 94
1, 171706, Note_on_c, 0, 67, 56
1, 171715, Control_c, 0, 64, 102
1, 171715, Control_c, 0, 67, 93
1, 171730, Control_c, 0, 64, 106
1, 171730, Control_c, 0, 67, 92
1, 171738, Note_on_c, 0, 46, 72
1, 171741, Note_off_c, 0, 45, 60
1, 171745, Control_c, 0, 64, 109
1, 171745, Control_c, 0, 67, 91
1, 171760, Control_c, 0, 64, 115
1, 171760, Control_c, 0, 67, 90
1, 171768, Note_on_c, 0, 62, 24
1, 171770, Note_on_c, 0, 65, 59
1, 171774, Control_c, 0, 64, 127
1, 171774, Control_c, 0, 67, 88
1, 171789, Control_c, 0, 67, 85
1, 171804, Control_c, 0, 67, 81
1, 171819, Note_off_c, 0, 46, 62
1, 171819, Note_off_c, 0, 62, 0
1, 171819, Control_c, 0, 67, 76
1, 171834, Note_on_c, 0, 62, 49
1, 171834, Control_c, 0, 67, 70
1, 171837, Note_off_c, 0, 67, 51
1, 171843, Note_off_c, 0, 65, 61
1, 171849, Control_c, 0, 67, 60
1, 171864, Control_c, 0, 67, 52
1, 171878, Control_c, 0, 67, 43
1, 171893, Control_c, 0, 67, 37
1, 171908, Control_c, 0, 67, 35
1, 171938, Control_c, 0, 67, 34
1, 171946, Note_on_c, 0, 56, 79
1, 171965, Note_off_c, 0, 62, 60
1, 171974, Note_on_c, 0, 63, 61
1, 171977, Note_off_c, 0, 56, 63
1, 172013, Control_c, 0, 67, 35
1, 172027, Control_c, 0, 67, 36
1, 172042, Control_c, 0, 67, 38
1, 172054, Note_off_c, 0, 63, 61
1, 172057, Control_c, 0, 67, 40
1, 172063, Note_on_c, 0, 65, 69
1, 172072, Control_c, 0, 67, 41
1, 172087, Control_c, 0, 67, 43
1, 172102, Control_c, 0, 67, 45
1, 172117, Control_c, 0, 67, 48
1, 172132, Control_c, 0, 67, 52
1, 172146, Control_c, 0, 67, 59
1, 172161, Control_c, 0, 67, 66
1, 172176, Control_c, 0, 67, 71
1, 172190, Control_c, 0, 67, 73
1, 172279, Control_c, 0, 64, 104
1, 172279, Control_c, 0, 67, 72
1, 172293, Note_on_c, 0, 55, 60
1, 172293, Note_on_c, 0, 39, 77
1, 172294, Note_on_c, 0, 51, 79
1, 172294, Control_c, 0, 64, 81
1, 172294, Control_c, 0, 67, 72
1, 172308, Note_off_c, 0, 65, 30
1, 172309, Control_c, 0, 64, 58
1, 172309, Control_c, 0, 67, 71
1, 172324, Control_c, 0, 64, 0
1, 172324, Control_c, 0, 67, 70
1, 172338, Control_c, 0, 67, 68
1, 172353, Control_c, 0, 67, 67
1, 172368, Control_c, 0, 67, 66
1, 172382, Control_c, 0, 64, 32
1, 172382, Control_c, 0, 67, 65
1, 172397, Control_c, 0, 64, 55
1, 172397, Control_c, 0, 67, 63
1, 172412, Control_c, 0, 64, 64
1, 172412, Control_c, 0, 67, 62
1, 172427, Control_c, 0, 64, 72
1, 172427, Control_c, 0, 67, 58
1, 172450, Control_c, 0, 64, 82
1, 172450, Control_c, 0, 67, 53
1, 172464, Control_c, 0, 64, 93
1, 172464, Control_c, 0, 67, 47
1, 172479, Control_c, 0, 64, 104
1, 172479, Control_c, 0, 67, 41
1, 172494, Control_c, 0, 64, 117
1, 172494, Control_c, 0, 67, 35
1, 172509, Control_c, 0, 64, 127
1, 172509, Control_c, 0, 67, 29
1, 172524, Control_c, 0, 67, 24
1, 172538, Control_c, 0, 67, 19
1, 172553, Control_c, 0, 67, 14
1, 172561, Note_on_c, 0, 63, 59
1, 172566, Note_off_c, 0, 39, 56
1, 172568, Control_c, 0, 67, 9
1, 172583, Control_c, 0, 67, 0
1, 172585, Note_off_c, 0, 51, 59
1, 172663, Note_off_c, 0, 55, 46
1, 172735, Note_on_c, 0, 61, 57
1, 172780, Note_off_c, 0, 63, 55
1, 172938, Note_on_c, 0, 56, 82
1, 172948, Note_on_c, 0, 44, 65
1, 172951, Note_off_c, 0, 61, 53
1, 172955, Note_on_c, 0, 60, 57
1, 172969, Control_c, 0, 64, 96
1, 172984, Control_c, 0, 64, 75
1, 172999, Control_c, 0, 64, 56
1, 173013, Control_c, 0, 64, 0
1, 173058, Control_c, 0, 64, 21
1, 173073, Control_c, 0, 64, 48
1, 173087, Control_c, 0, 64, 61
1, 173102, Control_c, 0, 64, 68
1, 173117, Control_c, 0, 64, 77
1, 173120, Note_off_c, 0, 60, 53
1, 173132, Control_c, 0, 64, 88
1, 173139, Note_on_c, 0, 70, 64
1, 173142, Note_on_c, 0, 61, 54
1, 173146, Control_c, 0, 64, 99
1, 173161, Control_c, 0, 64, 113
1, 173176, Control_c, 0, 64, 127
1, 173248, Note_off_c, 0, 70, 53
1, 173265, Note_off_c, 0, 56, 56
1, 173281, Note_off_c, 0, 44, 51
1, 173323, Note_on_c, 0, 67, 61
1, 173324, Note_on_c, 0, 58, 68
1, 173333, Note_off_c, 0, 61, 31
1, 173362, Note_off_c, 0, 67, 60
1, 173397, Note_off_c, 0, 58, 55
1, 173507, Note_on_c, 0, 53, 80
1, 173509, Control_c, 0, 64, 102
1, 173513, Note_on_c, 0, 41, 71
1, 173524, Control_c, 0, 64, 79
1, 173533, Note_on_c, 0, 56, 62
1, 173534, Note_on_c, 0, 68, 61
1, 173539, Control_c, 0, 64, 59
1, 173554, Control_c, 0, 64, 36
1, 173570, Control_c, 0, 64, 41
1, 173584, Control_c, 0, 64, 51
1, 173599, Control_c, 0, 64, 57
1, 173614, Control_c, 0, 64, 62
1, 173629, Control_c, 0, 64, 67
1, 173634, Note_off_c, 0, 56, 61
1, 173643, Control_c, 0, 64, 74
1, 173658, Control_c, 0, 64, 83
1, 173673, Control_c, 0, 64, 93
1, 173688, Control_c, 0, 64, 103
1, 173703, Control_c, 0, 64, 112
1, 173718, Control_c, 0, 64, 127
1, 173719, Poly_aftertouch_c, 0, 66, 127
1, 173721, Note_off_c, 0, 53, 61
1, 173721, Note_on_c, 0, 58, 68
1, 173736, Note_off_c, 0, 41, 59
1, 173848, Poly_aftertouch_c, 0, 66, 0
1, 173895, Note_off_c, 0, 58, 59
1, 173911, Note_on_c, 0, 60, 70
1, 173920, Note_off_c, 0, 68, 64
1, 174106, Note_on_c, 0, 58, 83
1, 174111, Note_on_c, 0, 46, 77
1, 174111, Control_c, 0, 64, 106
1, 174123, Note_on_c, 0, 67, 61
1, 174126, Control_c, 0, 64, 81
1, 174134, Note_off_c, 0, 60, 36
1, 174135, Note_on_c, 0, 61, 51
1, 174141, Control_c, 0, 64, 63
1, 174156, Control_c, 0, 64, 30
1, 174170, Control_c, 0, 64, 21
1, 174185, Control_c, 0, 64, 42
1, 174200, Control_c, 0, 64, 56
1, 174215, Control_c, 0, 64, 63
1, 174230, Control_c, 0, 64, 68
1, 174244, Control_c, 0, 64, 75
1, 174259, Control_c, 0, 64, 84
1, 174274, Control_c, 0, 64, 93
1, 174289, Control_c, 0, 64, 100
1, 174300, Note_off_c, 0, 61, 43
1, 174304, Control_c, 0, 64, 108
1, 174318, Note_on_c, 0, 63, 64
1, 174318, Control_c, 0, 64, 116
1, 174333, Control_c, 0, 64, 127
1, 174349, Note_off_c, 0, 67, 54
1, 174412, Note_off_c, 0, 58, 61
1, 174432, Note_off_c, 0, 46, 59
1, 174481, Note_on_c, 0, 60, 67
1, 174512, Note_off_c, 0, 60, 66
1, 174545, Note_off_c, 0, 63, 36
1, 174672, Note_on_c, 0, 55, 84
1, 174674, Control_c, 0, 64, 88
1, 174689, Note_on_c, 0, 43, 76
1, 174696, Control_c, 0, 64, 68
1, 174700, Note_on_c, 0, 70, 56
1, 174704, Note_on_c, 0, 58, 56
1, 174711, Control_c, 0, 64, 43
1, 174726, Control_c, 0, 64, 0
1, 174740, Control_c, 0, 64, 28
1, 174755, Control_c, 0, 64, 48
1, 174770, Note_off_c, 0, 58, 60
1, 174770, Control_c, 0, 64, 58
1, 174785, Control_c, 0, 64, 65
1, 174800, Control_c, 0, 64, 70
1, 174815, Control_c, 0, 64, 77
1, 174830, Control_c, 0, 64, 85
1, 174844, Control_c, 0, 64, 93
1, 174859, Control_c, 0, 64, 101
1, 174872, Note_on_c, 0, 60, 73
1, 174874, Control_c, 0, 64, 109
1, 174879, Note_off_c, 0, 43, 60
1, 174880, Note_off_c, 0, 55, 58
1, 174889, Control_c, 0, 64, 119
1, 174904, Control_c, 0, 64, 127
1, 175035, Note_off_c, 0, 60, 62
1, 175038, Note_on_c, 0, 61, 72
1, 175073, Note_off_c, 0, 61, 63
1, 175082, Note_off_c, 0, 70, 62
1, 175245, Control_c, 0, 64, 102
1, 175248, Note_on_c, 0, 60, 85
1, 175255, Note_on_c, 0, 48, 73
1, 175259, Note_on_c, 0, 63, 65
1, 175260, Control_c, 0, 64, 75
1, 175275, Control_c, 0, 64, 57
1, 175289, Control_c, 0, 64, 27
1, 175304, Control_c, 0, 64, 34
1, 175319, Control_c, 0, 64, 49
1, 175334, Control_c, 0, 64, 58
1, 175349, Control_c, 0, 64, 64
1, 175358, Note_off_c, 0, 63, 58
1, 175363, Control_c, 0, 64, 70
1, 175378, Control_c, 0, 64, 79
1, 175393, Control_c, 0, 64, 90
1, 175408, Control_c, 0, 64, 104
1, 175423, Control_c, 0, 64, 127
1, 175497, Note_on_c, 0, 67, 64
1, 175505, Note_off_c, 0, 48, 53
1, 175509, Note_on_c, 0, 63, 51
1, 175555, Note_off_c, 0, 60, 63
1, 175672, Note_on_c, 0, 68, 64
1, 175706, Note_off_c, 0, 63, 34
1, 175830, Control_c, 0, 64, 101
1, 175837, Note_off_c, 0, 67, 56
1, 175845, Control_c, 0, 64, 78
1, 175852, Note_off_c, 0, 68, 60
1, 175855, Note_on_c, 0, 58, 81
1, 175860, Control_c, 0, 64, 61
1, 175863, Note_on_c, 0, 46, 69
1, 175870, Note_on_c, 0, 62, 58
1, 175875, Control_c, 0, 64, 39
1, 175889, Control_c, 0, 64, 41
1, 175904, Control_c, 0, 64, 51
1, 175919, Control_c, 0, 64, 59
1, 175933, Control_c, 0, 64, 64
1, 175948, Control_c, 0, 64, 70
1, 175965, Control_c, 0, 64, 78
1, 175979, Control_c, 0, 64, 89
1, 175994, Control_c, 0, 64, 100
1, 176009, Control_c, 0, 64, 112
1, 176024, Control_c, 0, 64, 127
1, 176043, Note_on_c, 0, 70, 57
1, 176051, Note_off_c, 0, 58, 57
1, 176060, Note_off_c, 0, 46, 58
1, 176221, Note_off_c, 0, 62, 59
1, 176231, Note_on_c, 0, 56, 78
1, 176239, Note_on_c, 0, 44, 63
1, 176242, Note_on_c, 0, 72, 58
1, 176282, Note_off_c, 0, 44, 60
1, 176283, Note_off_c, 0, 70, 32
1, 176296, Note_off_c, 0, 56, 60
1, 176401, Control_c, 0, 64, 97
1, 176416, Control_c, 0, 64, 74
1, 176429, Note_on_c, 0, 55, 73
1, 176430, Control_c, 0, 64, 52
1, 176433, Note_on_c, 0, 63, 53
1, 176440, Note_on_c, 0, 43, 73
1, 176445, Control_c, 0, 64, 0
1, 176505, Control_c, 0, 64, 38
1, 176520, Control_c, 0, 64, 56
1, 176535, Control_c, 0, 64, 64
1, 176550, Control_c, 0, 64, 71
1, 176564, Control_c, 0, 64, 79
1, 176565, Note_off_c, 0, 43, 62
1, 176573, Note_off_c, 0, 72, 47
1, 176577, Note_off_c, 0, 55, 59
1, 176579, Control_c, 0, 64, 88
1, 176594, Control_c, 0, 64, 94
1, 176609, Control_c, 0, 64, 99
1, 176610, Note_on_c, 0, 69, 59
1, 176624, Control_c, 0, 64, 103
1, 176638, Control_c, 0, 64, 109
1, 176653, Control_c, 0, 64, 119
1, 176668, Control_c, 0, 64, 127
1, 176785, Note_on_c, 0, 70, 67
1, 176796, Note_off_c, 0, 69, 65
1, 176815, Note_off_c, 0, 70, 67
1, 176822, Note_off_c, 0, 63, 61
1, 177009, Note_on_c, 0, 58, 76
1, 177012, Note_on_c, 0, 46, 67
1, 177015, Note_on_c, 0, 63, 68
1, 177019, Note_on_c, 0, 61, 63
1, 177032, Control_c, 0, 64, 99
1, 177047, Control_c, 0, 64, 81
1, 177062, Control_c, 0, 64, 63
1, 177077, Control_c, 0, 64, 0
1, 177166, Control_c, 0, 64, 15
1, 177180, Control_c, 0, 64, 48
1, 177195, Control_c, 0, 64, 61
1, 177210, Control_c, 0, 64, 66
1, 177214, Note_on_c, 0, 65, 59
1, 177225, Control_c, 0, 64, 70
1, 177240, Control_c, 0, 64, 75
1, 177254, Control_c, 0, 64, 79
1, 177269, Control_c, 0, 64, 83
1, 177269, Control_c, 0, 67, 8
1, 177284, Control_c, 0, 64, 87
1, 177284, Control_c, 0, 67, 8
1, 177299, Control_c, 0, 64, 89
1, 177299, Control_c, 0, 67, 9
1, 177314, Control_c, 0, 64, 90
1, 177328, Control_c, 0, 64, 91
1, 177328, Control_c, 0, 67, 9
1, 177343, Control_c, 0, 64, 93
1, 177358, Control_c, 0, 64, 94
1, 177358, Control_c, 0, 67, 10
1, 177373, Control_c, 0, 64, 94
1, 177373, Control_c, 0, 67, 10
1, 177387, Control_c, 0, 67, 11
1, 177402, Note_on_c, 0, 67, 62
1, 177402, Control_c, 0, 64, 95
1, 177402, Control_c, 0, 67, 11
1, 177405, Note_off_c, 0, 65, 55
1, 177432, Control_c, 0, 64, 95
1, 177447, Control_c, 0, 64, 96
1, 177447, Control_c, 0, 67, 12
1, 177462, Control_c, 0, 64, 96
1, 177477, Control_c, 0, 64, 97
1, 177477, Control_c, 0, 67, 12
1, 177491, Control_c, 0, 64, 97
1, 177506, Control_c, 0, 64, 98
1, 177521, Control_c, 0, 64, 99
1, 177551, Control_c, 0, 64, 95
1, 177551, Control_c, 0, 67, 13
1, 177566, Control_c, 0, 64, 84
1, 177566, Control_c, 0, 67, 13
1, 177581, Control_c, 0, 64, 70
1, 177581, Control_c, 0, 67, 14
1, 177589, Note_off_c, 0, 67, 60
1, 177590, Note_on_c, 0, 68, 58
1, 177596, Note_off_c, 0, 63, 45
1, 177596, Control_c, 0, 64, 53
1, 177596, Control_c, 0, 67, 15
1, 177611, Control_c, 0, 64, 0
1, 177611, Control_c, 0, 67, 17
1, 177626, Control_c, 0, 67, 19
1, 177641, Control_c, 0, 64, 26
1, 177641, Control_c, 0, 67, 21
1, 177655, Control_c, 0, 64, 42
1, 177655, Control_c, 0, 67, 22
1, 177670, Control_c, 0, 64, 53
1, 177670, Control_c, 0, 67, 23
1, 177692, Control_c, 0, 64, 60
1, 177692, Control_c, 0, 67, 24
1, 177707, Control_c, 0, 64, 65
1, 177707, Control_c, 0, 67, 26
1, 177722, Control_c, 0, 64, 70
1, 177722, Control_c, 0, 67, 28
1, 177737, Control_c, 0, 64, 76
1, 177737, Control_c, 0, 67, 31
1, 177752, Control_c, 0, 64, 82
1, 177752, Control_c, 0, 67, 34
1, 177759, Note_on_c, 0, 65, 57
1, 177766, Control_c, 0, 64, 88
1, 177766, Control_c, 0, 67, 37
1, 177781, Control_c, 0, 64, 93
1, 177781, Control_c, 0, 67, 40
1, 177788, Note_off_c, 0, 68, 39
1, 177796, Control_c, 0, 64, 96
1, 177796, Control_c, 0, 67, 43
1, 177810, Control_c, 0, 64, 100
1, 177810, Control_c, 0, 67, 47
1, 177825, Control_c, 0, 64, 104
1, 177825, Control_c, 0, 67, 52
1, 177840, Control_c, 0, 64, 108
1, 177840, Control_c, 0, 67, 56
1, 177855, Control_c, 0, 64, 112
1, 177855, Control_c, 0, 67, 59
1, 177870, Control_c, 0, 64, 116
1, 177870, Control_c, 0, 67, 61
1, 177885, Control_c, 0, 64, 119
1, 177885, Control_c, 0, 67, 64
1, 177900, Control_c, 0, 64, 122
1, 177900, Control_c, 0, 67, 66
1, 177915, Control_c, 0, 64, 127
1, 177915, Control_c, 0, 67, 69
1, 177929, Note_on_c, 0, 67, 58
1, 177929, Control_c, 0, 67, 72
1, 177933, Note_off_c, 0, 58, 58
1, 177944, Control_c, 0, 67, 75
1, 177959, Control_c, 0, 67, 78
1, 177964, Note_off_c, 0, 46, 49
1, 177974, Control_c, 0, 67, 81
1, 177989, Control_c, 0, 67, 83
1, 178003, Control_c, 0, 67, 85
1, 178018, Control_c, 0, 67, 87
1, 178028, Note_off_c, 0, 65, 0
1, 178033, Control_c, 0, 67, 89
1, 178042, Note_off_c, 0, 61, 31
1, 178048, Control_c, 0, 67, 91
1, 178063, Control_c, 0, 67, 92
1, 178077, Control_c, 0, 67, 94
1, 178092, Control_c, 0, 67, 96
1, 178107, Control_c, 0, 67, 97
1, 178122, Control_c, 0, 64, 95
1, 178122, Control_c, 0, 67, 98
1, 178123, Note_on_c, 0, 56, 66
1, 178124, Note_off_c, 0, 67, 55
1, 178129, Note_on_c, 0, 60, 55
1, 178131, Poly_aftertouch_c, 0, 65, 0
1, 178134, Note_on_c, 0, 44, 55
1, 178136, Control_c, 0, 64, 75
1, 178136, Control_c, 0, 67, 101
1, 178151, Control_c, 0, 64, 60
1, 178151, Control_c, 0, 67, 103
1, 178166, Control_c, 0, 64, 39
1, 178166, Control_c, 0, 67, 105
1, 178181, Control_c, 0, 64, 41
1, 178181, Control_c, 0, 67, 107
1, 178196, Control_c, 0, 64, 52
1, 178196, Control_c, 0, 67, 109
1, 178210, Control_c, 0, 64, 58
1, 178210, Control_c, 0, 67, 110
1, 178225, Control_c, 0, 64, 61
1, 178225, Control_c, 0, 67, 112
1, 178240, Control_c, 0, 64, 64
1, 178240, Control_c, 0, 67, 114
1, 178255, Control_c, 0, 64, 68
1, 178255, Control_c, 0, 67, 116
1, 178270, Control_c, 0, 64, 72
1, 178270, Control_c, 0, 67, 117
1, 178284, Control_c, 0, 64, 77
1, 178284, Control_c, 0, 67, 119
1, 178299, Control_c, 0, 64, 82
1, 178299, Control_c, 0, 67, 120
1, 178311, Note_off_c, 0, 56, 57
1, 178314, Control_c, 0, 64, 84
1, 178314, Control_c, 0, 67, 121
1, 178329, Control_c, 0, 64, 86
1, 178329, Control_c, 0, 67, 123
1, 178330, Note_on_c, 0, 68, 50
1, 178332, Note_off_c, 0, 44, 54
1, 178344, Control_c, 0, 64, 87
1, 178344, Control_c, 0, 67, 124
1, 178359, Control_c, 0, 64, 89
1, 178359, Control_c, 0, 67, 125
1, 178374, Control_c, 0, 64, 90
1, 178374, Control_c, 0, 67, 126
1, 178389, Control_c, 0, 64, 91
1, 178389, Control_c, 0, 67, 127
1, 178404, Control_c, 0, 64, 92
1, 178498, Note_off_c, 0, 60, 61
1, 178499, Note_on_c, 0, 42, 61
1, 178499, Note_on_c, 0, 54, 62
1, 178514, Note_on_c, 0, 70, 53
1, 178560, Note_off_c, 0, 42, 54
1, 178571, Note_off_c, 0, 54, 55
1, 178589, Note_off_c, 0, 68, 22
1, 178648, Control_c, 0, 64, 90
1, 178663, Control_c, 0, 64, 85
1, 178678, Control_c, 0, 64, 74
1, 178693, Control_c, 0, 64, 61
1, 178704, Note_on_c, 0, 53, 49
1, 178704, Note_on_c, 0, 61, 46
1, 178705, Note_on_c, 0, 41, 45
1, 178708, Control_c, 0, 64, 14
1, 178723, Control_c, 0, 64, 0
1, 178812, Control_c, 0, 64, 41
1, 178826, Control_c, 0, 64, 57
1, 178832, Note_off_c, 0, 70, 55
1, 178841, Control_c, 0, 64, 62
1, 178856, Control_c, 0, 64, 65
1, 178871, Control_c, 0, 64, 68
1, 178881, Note_on_c, 0, 67, 44
1, 178886, Control_c, 0, 64, 71
1, 178901, Control_c, 0, 64, 75
1, 178915, Control_c, 0, 64, 79
1, 178930, Control_c, 0, 64, 82
1, 178945, Control_c, 0, 64, 83
1, 178959, Control_c, 0, 64, 85
1, 178974, Control_c, 0, 64, 86
1, 178989, Control_c, 0, 64, 87
1, 179004, Control_c, 0, 64, 89
1, 179006, Note_off_c, 0, 41, 40
1, 179019, Control_c, 0, 64, 91
1, 179033, Control_c, 0, 64, 92
1, 179048, Control_c, 0, 64, 92
1, 179049, Note_on_c, 0, 68, 51
1, 179077, Control_c, 0, 64, 93
1, 179092, Control_c, 0, 64, 93
1, 179122, Control_c, 0, 64, 94
1, 179128, Note_off_c, 0, 61, 27
1, 179241, Note_on_c, 0, 62, 61
1, 179249, Control_c, 0, 64, 93
1, 179263, Note_off_c, 0, 67, 41
1, 179263, Control_c, 0, 64, 91
1, 179278, Control_c, 0, 64, 89
1, 179293, Control_c, 0, 64, 87
1, 179295, Note_off_c, 0, 53, 18
1, 179308, Control_c, 0, 64, 86
1, 179323, Control_c, 0, 64, 84
1, 179329, Note_off_c, 0, 68, 29
1, 179337, Control_c, 0, 64, 82
1, 179352, Control_c, 0, 64, 78
1, 179367, Control_c, 0, 64, 73
1, 179381, Control_c, 0, 64, 69
1, 179396, Control_c, 0, 64, 65
1, 179411, Control_c, 0, 64, 63
1, 179426, Control_c, 0, 64, 62
1, 179435, Note_on_c, 0, 54, 42
1, 179439, Note_on_c, 0, 70, 48
1, 179441, Control_c, 0, 64, 58
1, 179456, Control_c, 0, 64, 52
1, 179471, Control_c, 0, 64, 48
1, 179486, Control_c, 0, 64, 49
1, 179501, Control_c, 0, 64, 52
1, 179516, Control_c, 0, 64, 54
1, 179530, Control_c, 0, 64, 56
1, 179545, Control_c, 0, 64, 58
1, 179560, Control_c, 0, 64, 60
1, 179574, Control_c, 0, 64, 63
1, 179584, Note_off_c, 0, 54, 51
1, 179589, Control_c, 0, 64, 65
1, 179604, Control_c, 0, 64, 67
1, 179617, Note_on_c, 0, 68, 47
1, 179619, Control_c, 0, 64, 70
1, 179620, Note_on_c, 0, 53, 39
1, 179634, Control_c, 0, 64, 72
1, 179649, Control_c, 0, 64, 73
1, 179663, Control_c, 0, 64, 74
1, 179678, Control_c, 0, 64, 75
1, 179693, Control_c, 0, 64, 75
1, 179752, Control_c, 0, 64, 75
1, 179781, Control_c, 0, 64, 74
1, 179796, Control_c, 0, 64, 74
1, 179801, Note_on_c, 0, 63, 61
1, 179810, Note_off_c, 0, 70, 52
1, 179811, Control_c, 0, 64, 73
1, 179823, Note_off_c, 0, 68, 55
1, 179826, Control_c, 0, 64, 73
1, 179836, Note_off_c, 0, 62, 53
1, 179840, Control_c, 0, 64, 72
1, 179855, Control_c, 0, 64, 71
1, 179870, Control_c, 0, 64, 69
1, 179885, Control_c, 0, 64, 66
1, 179899, Control_c, 0, 64, 63
1, 179914, Control_c, 0, 64, 54
1, 179936, Control_c, 0, 64, 41
1, 179952, Control_c, 0, 64, 22
1, 179967, Control_c, 0, 64, 17
1, 179981, Note_off_c, 0, 53, 44
1, 179982, Control_c, 0, 64, 19
1, 179997, Control_c, 0, 64, 26
1, 179998, Note_on_c, 0, 50, 41
1, 180002, Note_on_c, 0, 65, 48
1, 180011, Control_c, 0, 64, 34
1, 180026, Control_c, 0, 64, 41
1, 180041, Control_c, 0, 64, 49
1, 180056, Control_c, 0, 64, 55
1, 180071, Control_c, 0, 64, 60
1, 180085, Control_c, 0, 64, 62
1, 180100, Control_c, 0, 64, 64
1, 180115, Control_c, 0, 64, 65
1, 180130, Control_c, 0, 64, 66
1, 180145, Control_c, 0, 64, 67
1, 180159, Control_c, 0, 64, 68
1, 180160, Note_off_c, 0, 50, 56
1, 180174, Control_c, 0, 64, 69
1, 180177, Note_on_c, 0, 51, 41
1, 180183, Note_on_c, 0, 66, 51
1, 180189, Control_c, 0, 64, 70
1, 180204, Control_c, 0, 64, 71
1, 180216, Note_off_c, 0, 65, 35
1, 180219, Control_c, 0, 64, 71
1, 180234, Control_c, 0, 64, 70
1, 180249, Control_c, 0, 64, 68
1, 180264, Control_c, 0, 64, 65
1, 180278, Control_c, 0, 64, 61
1, 180293, Control_c, 0, 64, 55
1, 180308, Control_c, 0, 64, 54
1, 180322, Control_c, 0, 64, 57
1, 180337, Control_c, 0, 64, 60
1, 180352, Control_c, 0, 64, 62
1, 180354, Note_on_c, 0, 58, 67
1, 180367, Control_c, 0, 64, 63
1, 180382, Control_c, 0, 64, 65
1, 180396, Control_c, 0, 64, 67
1, 180411, Control_c, 0, 64, 69
1, 180426, Control_c, 0, 64, 71
1, 180441, Control_c, 0, 64, 72
1, 180456, Control_c, 0, 64, 73
1, 180464, Note_off_c, 0, 66, 36
1, 180470, Control_c, 0, 64, 74
1, 180485, Control_c, 0, 64, 76
1, 180500, Control_c, 0, 64, 76
1, 180515, Control_c, 0, 64, 77
1, 180529, Control_c, 0, 64, 77
1, 180538, Note_on_c, 0, 68, 57
1, 180539, Note_off_c, 0, 58, 56
1, 180545, Control_c, 0, 64, 78
1, 180546, Note_on_c, 0, 53, 43
1, 180560, Control_c, 0, 64, 78
1, 180563, Note_off_c, 0, 51, 34
1, 180575, Control_c, 0, 64, 79
1, 180650, Note_off_c, 0, 63, 23
1, 180686, Control_c, 0, 64, 79
1, 180701, Control_c, 0, 64, 78
1, 180716, Control_c, 0, 64, 78
1, 180718, Note_off_c, 0, 53, 32
1, 180721, Note_on_c, 0, 60, 59
1, 180730, Control_c, 0, 64, 77
1, 180734, Note_on_c, 0, 66, 47
1, 180736, Note_on_c, 0, 51, 37
1, 180745, Control_c, 0, 64, 76
1, 180761, Control_c, 0, 64, 76
1, 180776, Control_c, 0, 64, 75
1, 180791, Control_c, 0, 64, 74
1, 180806, Control_c, 0, 64, 73
1, 180821, Control_c, 0, 64, 72
1, 180835, Control_c, 0, 64, 70
1, 180850, Control_c, 0, 64, 68
1, 180865, Control_c, 0, 64, 65
1, 180880, Control_c, 0, 64, 61
1, 180890, Note_off_c, 0, 68, 42
1, 180895, Control_c, 0, 64, 53
1, 180905, Note_off_c, 0, 66, 54
1, 180906, Note_on_c, 0, 61, 57
1, 180908, Note_off_c, 0, 60, 59
1, 180909, Control_c, 0, 64, 37
1, 180924, Control_c, 0, 64, 0
1, 181057, Control_c, 0, 64, 28
1, 181069, Note_off_c, 0, 51, 53
1, 181072, Control_c, 0, 64, 47
1, 181087, Control_c, 0, 64, 56
1, 181088, Note_on_c, 0, 64, 46
1, 181092, Note_on_c, 0, 48, 45
1, 181101, Control_c, 0, 64, 60
1, 181116, Control_c, 0, 64, 62
1, 181131, Control_c, 0, 64, 64
1, 181146, Control_c, 0, 64, 65
1, 181161, Control_c, 0, 64, 67
1, 181176, Control_c, 0, 64, 68
1, 181191, Control_c, 0, 64, 70
1, 181194, Note_off_c, 0, 48, 46
1, 181206, Control_c, 0, 64, 72
1, 181220, Control_c, 0, 64, 74
1, 181235, Control_c, 0, 64, 76
1, 181250, Control_c, 0, 64, 78
1, 181263, Note_on_c, 0, 65, 50
1, 181265, Control_c, 0, 64, 79
1, 181274, Note_on_c, 0, 49, 45
1, 181280, Control_c, 0, 64, 80
1, 181293, Control_c, 0, 64, 80
1, 181300, Note_off_c, 0, 64, 0
1, 181323, Control_c, 0, 64, 81
1, 181337, Poly_aftertouch_c, 0, 64, 127
1, 181338, Control_c, 0, 64, 82
1, 181352, Control_c, 0, 64, 83
1, 181367, Control_c, 0, 64, 84
1, 181382, Control_c, 0, 64, 84
1, 181412, Control_c, 0, 64, 84
1, 181434, Control_c, 0, 64, 82
1, 181449, Control_c, 0, 64, 78
1, 181453, Note_on_c, 0, 56, 64
1, 181464, Control_c, 0, 64, 71
1, 181468, Note_off_c, 0, 61, 33
1, 181479, Control_c, 0, 64, 62
1, 181494, Control_c, 0, 64, 45
1, 181498, Poly_aftertouch_c, 0, 64, 0
1, 181508, Control_c, 0, 64, 9
1, 181523, Control_c, 0, 64, 0
1, 181554, Control_c, 0, 64, 28
1, 181569, Control_c, 0, 64, 40
1, 181583, Control_c, 0, 64, 50
1, 181598, Control_c, 0, 64, 57
1, 181613, Control_c, 0, 64, 62
1, 181627, Note_off_c, 0, 49, 53
1, 181628, Control_c, 0, 64, 65
1, 181629, Note_off_c, 0, 65, 31
1, 181635, Note_on_c, 0, 62, 49
1, 181643, Control_c, 0, 64, 67
1, 181652, Note_on_c, 0, 47, 41
1, 181657, Control_c, 0, 64, 70
1, 181672, Control_c, 0, 64, 73
1, 181687, Control_c, 0, 64, 76
1, 181702, Control_c, 0, 64, 79
1, 181708, Note_off_c, 0, 56, 37
1, 181717, Control_c, 0, 64, 82
1, 181731, Control_c, 0, 64, 84
1, 181746, Control_c, 0, 64, 85
1, 181761, Control_c, 0, 64, 87
1, 181775, Control_c, 0, 64, 89
1, 181790, Control_c, 0, 64, 90
1, 181805, Control_c, 0, 64, 92
1, 181811, Note_off_c, 0, 47, 42
1, 181817, Note_on_c, 0, 63, 55
1, 181820, Control_c, 0, 64, 93
1, 181826, Note_on_c, 0, 48, 41
1, 181835, Control_c, 0, 64, 94
1, 181850, Control_c, 0, 64, 96
1, 181864, Control_c, 0, 64, 97
1, 181879, Control_c, 0, 64, 99
1, 181894, Control_c, 0, 64, 101
1, 181909, Control_c, 0, 64, 102
1, 181910, Note_off_c, 0, 62, 23
1, 181924, Control_c, 0, 64, 103
1, 181939, Control_c, 0, 64, 103
1, 181983, Note_off_c, 0, 63, 61
1, 181983, Control_c, 0, 64, 103
1, 181996, Note_on_c, 0, 61, 66
1, 181998, Control_c, 0, 64, 94
1, 182009, Note_on_c, 0, 67, 63
1, 182013, Control_c, 0, 64, 82
1, 182014, Note_on_c, 0, 46, 50
1, 182020, Note_off_c, 0, 48, 41
1, 182028, Control_c, 0, 64, 69
1, 182042, Control_c, 0, 64, 54
1, 182057, Control_c, 0, 64, 23
1, 182072, Control_c, 0, 64, 24
1, 182087, Control_c, 0, 64, 44
1, 182101, Control_c, 0, 64, 53
1, 182116, Control_c, 0, 64, 58
1, 182131, Control_c, 0, 64, 62
1, 182146, Control_c, 0, 64, 65
1, 182161, Control_c, 0, 64, 69
1, 182183, Control_c, 0, 64, 74
1, 182194, Note_off_c, 0, 46, 43
1, 182195, Note_on_c, 0, 48, 37
1, 182198, Control_c, 0, 64, 79
1, 182199, Note_on_c, 0, 68, 54
1, 182213, Control_c, 0, 64, 83
1, 182228, Control_c, 0, 64, 86
1, 182243, Control_c, 0, 64, 88
1, 182257, Control_c, 0, 64, 92
1, 182272, Control_c, 0, 64, 96
1, 182287, Control_c, 0, 64, 100
1, 182301, Control_c, 0, 64, 103
1, 182316, Control_c, 0, 64, 106
1, 182331, Control_c, 0, 64, 108
1, 182346, Control_c, 0, 64, 112
1, 182361, Note_off_c, 0, 67, 17
1, 182362, Control_c, 0, 64, 118
1, 182376, Note_on_c, 0, 44, 44
1, 182377, Note_on_c, 0, 65, 63
1, 182377, Control_c, 0, 64, 127
1, 182377, Control_c, 0, 67, 124
1, 182386, Note_off_c, 0, 68, 39
1, 182392, Control_c, 0, 67, 119
1, 182395, Note_off_c, 0, 48, 40
1, 182402, Note_off_c, 0, 61, 57
1, 182406, Control_c, 0, 67, 113
1, 182421, Control_c, 0, 67, 105
1, 182436, Control_c, 0, 67, 97
1, 182451, Control_c, 0, 67, 89
1, 182466, Control_c, 0, 67, 80
1, 182480, Control_c, 0, 67, 70
1, 182495, Control_c, 0, 67, 60
1, 182510, Control_c, 0, 67, 54
1, 182525, Control_c, 0, 67, 50
1, 182540, Control_c, 0, 67, 47
1, 182553, Note_on_c, 0, 58, 77
1, 182554, Control_c, 0, 64, 123
1, 182554, Control_c, 0, 67, 46
1, 182564, Note_on_c, 0, 43, 60
1, 182565, Note_on_c, 0, 63, 65
1, 182569, Control_c, 0, 64, 91
1, 182569, Control_c, 0, 67, 45
1, 182580, Note_off_c, 0, 65, 53
1, 182584, Control_c, 0, 64, 74
1, 182584, Control_c, 0, 67, 44
1, 182598, Control_c, 0, 64, 60
1, 182598, Control_c, 0, 67, 43
1, 182600, Note_off_c, 0, 44, 31
1, 182613, Control_c, 0, 64, 45
1, 182613, Control_c, 0, 67, 43
1, 182628, Control_c, 0, 64, 48
1, 182643, Control_c, 0, 64, 55
1, 182643, Control_c, 0, 67, 42
1, 182658, Control_c, 0, 64, 59
1, 182672, Control_c, 0, 64, 62
1, 182672, Control_c, 0, 67, 42
1, 182687, Control_c, 0, 64, 65
1, 182687, Control_c, 0, 67, 41
1, 182702, Control_c, 0, 64, 69
1, 182702, Control_c, 0, 67, 39
1, 182717, Control_c, 0, 64, 74
1, 182717, Control_c, 0, 67, 38
1, 182732, Control_c, 0, 64, 80
1, 182732, Control_c, 0, 67, 36
1, 182738, Note_on_c, 0, 65, 53
1, 182739, Note_off_c, 0, 43, 50
1, 182747, Control_c, 0, 64, 85
1, 182747, Control_c, 0, 67, 35
1, 182754, Note_on_c, 0, 44, 40
1, 182762, Control_c, 0, 64, 90
1, 182762, Control_c, 0, 67, 33
1, 182777, Control_c, 0, 64, 93
1, 182777, Control_c, 0, 67, 32
1, 182791, Control_c, 0, 64, 96
1, 182791, Control_c, 0, 67, 30
1, 182806, Control_c, 0, 64, 100
1, 182806, Control_c, 0, 67, 28
1, 182821, Control_c, 0, 64, 104
1, 182821, Control_c, 0, 67, 27
1, 182836, Control_c, 0, 64, 108
1, 182836, Control_c, 0, 67, 25
1, 182851, Control_c, 0, 64, 113
1, 182851, Control_c, 0, 67, 25
1, 182865, Control_c, 0, 64, 117
1, 182865, Control_c, 0, 67, 24
1, 182880, Control_c, 0, 64, 122
1, 182895, Control_c, 0, 64, 127
1, 182900, Note_off_c, 0, 58, 59
1, 182902, Note_on_c, 0, 67, 66
1, 182931, Note_off_c, 0, 65, 49
1, 182935, Note_on_c, 0, 46, 49
1, 182936, Note_off_c, 0, 63, 56
1, 182950, Note_off_c, 0, 67, 58
1, 183018, Note_off_c, 0, 44, 33
1, 183051, Control_c, 0, 67, 25
1, 183066, Note_off_c, 0, 46, 60
1, 183066, Control_c, 0, 67, 26
1, 183080, Control_c, 0, 64, 103
1, 183080, Control_c, 0, 67, 27
1, 183095, Control_c, 0, 64, 84
1, 183095, Control_c, 0, 67, 29
1, 183101, Note_on_c, 0, 63, 76
1, 183107, Note_on_c, 0, 48, 55
1, 183107, Note_on_c, 0, 68, 63
1, 183110, Control_c, 0, 64, 67
1, 183110, Control_c, 0, 67, 31
1, 183124, Control_c, 0, 64, 40
1, 183124, Control_c, 0, 67, 32
1, 183139, Control_c, 0, 64, 0
1, 183139, Control_c, 0, 67, 34
1, 183155, Control_c, 0, 67, 35
1, 183170, Control_c, 0, 67, 36
1, 183185, Control_c, 0, 67, 39
1, 183200, Control_c, 0, 64, 12
1, 183200, Control_c, 0, 67, 44
1, 183215, Control_c, 0, 64, 40
1, 183215, Control_c, 0, 67, 51
1, 183229, Control_c, 0, 64, 56
1, 183229, Control_c, 0, 67, 57
1, 183244, Control_c, 0, 64, 65
1, 183244, Control_c, 0, 67, 62
1, 183259, Control_c, 0, 64, 70
1, 183259, Control_c, 0, 67, 64
1, 183271, Note_off_c, 0, 48, 53
1, 183274, Control_c, 0, 64, 75
1, 183274, Control_c, 0, 67, 65
1, 183289, Control_c, 0, 64, 82
1, 183289, Note_on_c, 0, 49, 50
1, 183301, Note_on_c, 0, 70, 52
1, 183303, Control_c, 0, 64, 88
1, 183318, Control_c, 0, 64, 95
1, 183333, Control_c, 0, 64, 103
1, 183347, Control_c, 0, 64, 109
1, 183362, Control_c, 0, 64, 119
1, 183362, Control_c, 0, 67, 64
1, 183377, Control_c, 0, 64, 127
1, 183392, Control_c, 0, 67, 64
1, 183407, Control_c, 0, 67, 63
1, 183421, Control_c, 0, 67, 63
1, 183436, Control_c, 0, 67, 62
1, 183451, Control_c, 0, 67, 62
1, 183453, Note_on_c, 0, 66, 60
1, 183455, Note_off_c, 0, 49, 56
1, 183460, Note_on_c, 0, 46, 58
1, 183466, Control_c, 0, 67, 61
1, 183477, Note_off_c, 0, 63, 58
1, 183480, Note_off_c, 0, 70, 37
1, 183481, Control_c, 0, 67, 60
1, 183495, Control_c, 0, 67, 60
1, 183510, Control_c, 0, 67, 59
1, 183525, Control_c, 0, 67, 59
1, 183540, Control_c, 0, 67, 58
1, 183555, Control_c, 0, 67, 58
1, 183570, Control_c, 0, 67, 57
1, 183585, Control_c, 0, 67, 56
1, 183600, Control_c, 0, 67, 56
1, 183614, Control_c, 0, 67, 55
1, 183629, Control_c, 0, 64, 97
1, 183632, Note_on_c, 0, 60, 76
1, 183642, Note_on_c, 0, 45, 54
1, 183644, Control_c, 0, 64, 77
1, 183644, Control_c, 0, 67, 54
1, 183652, Note_on_c, 0, 65, 66
1, 183656, Note_off_c, 0, 46, 33
1, 183659, Control_c, 0, 64, 62
1, 183659, Control_c, 0, 67, 52
1, 183679, Note_off_c, 0, 68, 41
1, 183682, Control_c, 0, 64, 46
1, 183682, Control_c, 0, 67, 51
1, 183684, Note_off_c, 0, 66, 56
1, 183696, Control_c, 0, 64, 48
1, 183696, Control_c, 0, 67, 49
1, 183711, Control_c, 0, 64, 57
1, 183711, Control_c, 0, 67, 46
1, 183726, Control_c, 0, 64, 61
1, 183726, Control_c, 0, 67, 43
1, 183741, Control_c, 0, 64, 64
1, 183741, Control_c, 0, 67, 40
1, 183755, Control_c, 0, 64, 67
1, 183755, Control_c, 0, 67, 36
1, 183770, Control_c, 0, 64, 72
1, 183770, Control_c, 0, 67, 33
1, 183785, Control_c, 0, 64, 78
1, 183785, Control_c, 0, 67, 30
1, 183800, Control_c, 0, 64, 84
1, 183800, Control_c, 0, 67, 27
1, 183815, Control_c, 0, 64, 89
1, 183815, Control_c, 0, 67, 24
1, 183817, Note_on_c, 0, 67, 66
1, 183820, Note_on_c, 0, 46, 48
1, 183829, Control_c, 0, 64, 93
1, 183829, Control_c, 0, 67, 20
1, 183844, Note_off_c, 0, 45, 37
1, 183844, Control_c, 0, 64, 97
1, 183844, Control_c, 0, 67, 17
1, 183859, Control_c, 0, 64, 102
1, 183859, Control_c, 0, 67, 14
1, 183874, Control_c, 0, 64, 108
1, 183874, Control_c, 0, 67, 11
1, 183888, Control_c, 0, 64, 117
1, 183888, Control_c, 0, 67, 9
1, 183903, Control_c, 0, 64, 127
1, 183903, Control_c, 0, 67, 8
1, 183918, Control_c, 0, 67, 0
1, 183944, Note_off_c, 0, 46, 61
1, 183963, Note_off_c, 0, 60, 56
1, 183976, Note_on_c, 0, 69, 71
1, 183983, Note_off_c, 0, 67, 58
1, 183984, Note_on_c, 0, 48, 56
1, 183999, Note_off_c, 0, 65, 60
1, 184030, Note_off_c, 0, 69, 64
1, 184142, Control_c, 0, 64, 118
1, 184148, Note_off_c, 0, 48, 53
1, 184157, Control_c, 0, 64, 90
1, 184167, Note_on_c, 0, 65, 82
1, 184171, Control_c, 0, 64, 71
1, 184178, Note_on_c, 0, 49, 60
1, 184178, Note_on_c, 0, 70, 65
1, 184186, Control_c, 0, 64, 46
1, 184201, Control_c, 0, 64, 0
1, 184231, Control_c, 0, 64, 24
1, 184245, Control_c, 0, 64, 42
1, 184260, Control_c, 0, 64, 51
1, 184275, Control_c, 0, 64, 58
1, 184290, Control_c, 0, 64, 64
1, 184305, Control_c, 0, 64, 68
1, 184313, Note_off_c, 0, 49, 58
1, 184319, Control_c, 0, 64, 73
1, 184334, Control_c, 0, 64, 78
1, 184349, Control_c, 0, 64, 83
1, 184356, Note_on_c, 0, 48, 43
1, 184364, Control_c, 0, 64, 88
1, 184378, Control_c, 0, 64, 93
1, 184393, Control_c, 0, 64, 96
1, 184408, Control_c, 0, 64, 99
1, 184431, Control_c, 0, 64, 102
1, 184445, Control_c, 0, 64, 105
1, 184460, Control_c, 0, 64, 109
1, 184475, Control_c, 0, 64, 116
1, 184490, Control_c, 0, 64, 127
1, 184523, Note_on_c, 0, 50, 59
1, 184544, Note_on_c, 0, 68, 60
1, 184547, Note_off_c, 0, 48, 33
1, 184557, Note_off_c, 0, 65, 59
1, 184615, Note_off_c, 0, 70, 36
1, 184702, Note_on_c, 0, 67, 62
1, 184703, Note_off_c, 0, 68, 49
1, 184706, Note_on_c, 0, 63, 73
1, 184711, Control_c, 0, 64, 108
1, 184721, Note_off_c, 0, 50, 52
1, 184726, Note_on_c, 0, 51, 52
1, 184726, Control_c, 0, 64, 82
1, 184742, Control_c, 0, 64, 63
1, 184757, Control_c, 0, 64, 25
1, 184772, Control_c, 0, 64, 26
1, 184787, Control_c, 0, 64, 44
1, 184801, Control_c, 0, 64, 55
1, 184816, Control_c, 0, 64, 61
1, 184831, Control_c, 0, 64, 65
1, 184846, Control_c, 0, 64, 69
1, 184851, Note_off_c, 0, 51, 59
1, 184861, Control_c, 0, 64, 75
1, 184875, Control_c, 0, 64, 81
1, 184890, Control_c, 0, 64, 87
1, 184896, Note_on_c, 0, 68, 54
1, 184899, Note_on_c, 0, 53, 44
1, 184905, Control_c, 0, 64, 92
1, 184918, Note_off_c, 0, 63, 59
1, 184920, Control_c, 0, 64, 95
1, 184935, Control_c, 0, 64, 99
1, 184950, Control_c, 0, 64, 103
1, 184965, Control_c, 0, 64, 107
1, 184979, Control_c, 0, 64, 109
1, 184991, Note_off_c, 0, 53, 52
1, 185051, Note_on_c, 0, 61, 66
1, 185053, Control_c, 0, 64, 109
1, 185064, Note_on_c, 0, 55, 57
1, 185072, Note_on_c, 0, 70, 62
1, 185111, Control_c, 0, 64, 110
1, 185126, Control_c, 0, 64, 110
1, 185141, Control_c, 0, 64, 111
1, 185156, Control_c, 0, 64, 112
1, 185177, Note_off_c, 0, 61, 59
1, 185208, Control_c, 0, 64, 111
1, 185223, Control_c, 0, 64, 105
1, 185238, Control_c, 0, 64, 91
1, 185241, Note_off_c, 0, 67, 41
1, 185253, Control_c, 0, 64, 75
1, 185259, Note_on_c, 0, 60, 64
1, 185266, Note_on_c, 0, 56, 55
1, 185268, Control_c, 0, 64, 61
1, 185268, Control_c, 0, 67, 8
1, 185269, Note_off_c, 0, 55, 50
1, 185282, Control_c, 0, 64, 19
1, 185282, Control_c, 0, 67, 9
1, 185297, Control_c, 0, 64, 0
1, 185297, Control_c, 0, 67, 10
1, 185309, Note_off_c, 0, 68, 39
1, 185312, Control_c, 0, 67, 10
1, 185326, Control_c, 0, 64, 19
1, 185326, Control_c, 0, 67, 11
1, 185341, Control_c, 0, 64, 38
1, 185341, Control_c, 0, 67, 12
1, 185356, Control_c, 0, 64, 50
1, 185356, Control_c, 0, 67, 13
1, 185363, Note_off_c, 0, 70, 50
1, 185371, Control_c, 0, 64, 58
1, 185371, Control_c, 0, 67, 15
1, 185386, Control_c, 0, 64, 63
1, 185386, Control_c, 0, 67, 16
1, 185400, Control_c, 0, 64, 66
1, 185400, Control_c, 0, 67, 18
1, 185415, Control_c, 0, 64, 69
1, 185415, Control_c, 0, 67, 20
1, 185429, Note_off_c, 0, 56, 61
1, 185430, Control_c, 0, 64, 73
1, 185430, Control_c, 0, 67, 23
1, 185445, Note_on_c, 0, 58, 63
1, 185445, Control_c, 0, 64, 77
1, 185445, Control_c, 0, 67, 25
1, 185460, Control_c, 0, 64, 80
1, 185460, Control_c, 0, 67, 26
1, 185474, Control_c, 0, 64, 83
1, 185474, Control_c, 0, 67, 28
1, 185489, Control_c, 0, 64, 85
1, 185489, Control_c, 0, 67, 29
1, 185504, Control_c, 0, 64, 86
1, 185504, Control_c, 0, 67, 31
1, 185519, Control_c, 0, 67, 33
1, 185534, Control_c, 0, 64, 87
1, 185534, Control_c, 0, 67, 35
1, 185549, Control_c, 0, 64, 87
1, 185549, Control_c, 0, 67, 36
1, 185564, Control_c, 0, 64, 88
1, 185564, Control_c, 0, 67, 38
1, 185579, Control_c, 0, 64, 89
1, 185579, Control_c, 0, 67, 40
1, 185594, Control_c, 0, 67, 41
1, 185609, Control_c, 0, 67, 43
1, 185614, Note_on_c, 0, 55, 56
1, 185615, Note_off_c, 0, 58, 47
1, 185623, Control_c, 0, 64, 89
1, 185623, Control_c, 0, 67, 44
1, 185638, Control_c, 0, 67, 46
1, 185653, Control_c, 0, 67, 47
1, 185668, Control_c, 0, 67, 48
1, 185683, Control_c, 0, 67, 48
1, 185698, Control_c, 0, 67, 49
1, 185713, Control_c, 0, 67, 50
1, 185728, Control_c, 0, 67, 51
1, 185742, Control_c, 0, 67, 52
1, 185757, Control_c, 0, 67, 53
1, 185772, Control_c, 0, 64, 88
1, 185772, Control_c, 0, 67, 54
1, 185787, Control_c, 0, 64, 87
1, 185787, Control_c, 0, 67, 56
1, 185802, Control_c, 0, 64, 84
1, 185802, Control_c, 0, 67, 57
1, 185802, Note_on_c, 0, 68, 62
1, 185806, Note_on_c, 0, 61, 67
1, 185809, Note_off_c, 0, 55, 53
1, 185816, Control_c, 0, 64, 82
1, 185816, Control_c, 0, 67, 60
1, 185825, Note_on_c, 0, 53, 44
1, 185831, Control_c, 0, 64, 78
1, 185831, Control_c, 0, 67, 61
1, 185846, Control_c, 0, 64, 73
1, 185846, Control_c, 0, 67, 62
1, 185861, Note_off_c, 0, 60, 34
1, 185861, Control_c, 0, 64, 66
1, 185861, Control_c, 0, 67, 64
1, 185876, Control_c, 0, 64, 58
1, 185876, Control_c, 0, 67, 64
1, 185890, Control_c, 0, 64, 39
1, 185890, Control_c, 0, 67, 65
1, 185905, Control_c, 0, 64, 0
1, 185927, Control_c, 0, 67, 65
1, 185957, Control_c, 0, 64, 21
1, 185972, Control_c, 0, 64, 35
1, 185987, Control_c, 0, 64, 46
1, 185987, Control_c, 0, 67, 66
1, 186001, Note_on_c, 0, 52, 52
1, 186002, Control_c, 0, 64, 56
1, 186008, Note_off_c, 0, 53, 56
1, 186016, Control_c, 0, 64, 62
1, 186031, Control_c, 0, 64, 64
1, 186046, Control_c, 0, 64, 67
1, 186061, Control_c, 0, 64, 69
1, 186076, Control_c, 0, 64, 70
1, 186090, Control_c, 0, 64, 72
1, 186105, Control_c, 0, 64, 73
1, 186120, Control_c, 0, 64, 74
1, 186135, Control_c, 0, 64, 75
1, 186149, Control_c, 0, 64, 75
1, 186154, Note_off_c, 0, 52, 54
1, 186164, Control_c, 0, 64, 76
1, 186165, Note_off_c, 0, 61, 62
1, 186166, Note_on_c, 0, 53, 45
1, 186166, Note_on_c, 0, 60, 67
1, 186179, Control_c, 0, 64, 76
1, 186194, Control_c, 0, 64, 77
1, 186209, Control_c, 0, 64, 77
1, 186312, Control_c, 0, 64, 77
1, 186327, Control_c, 0, 64, 75
1, 186343, Control_c, 0, 64, 72
1, 186348, Note_off_c, 0, 60, 65
1, 186358, Control_c, 0, 64, 66
1, 186362, Note_on_c, 0, 58, 60
1, 186365, Note_off_c, 0, 53, 59
1, 186372, Control_c, 0, 64, 55
1, 186384, Note_on_c, 0, 55, 45
1, 186387, Control_c, 0, 64, 30
1, 186402, Control_c, 0, 64, 0
1, 186402, Control_c, 0, 67, 66
1, 186432, Control_c, 0, 67, 67
1, 186446, Control_c, 0, 67, 68
1, 186461, Control_c, 0, 67, 71
1, 186476, Control_c, 0, 67, 74
1, 186491, Control_c, 0, 67, 76
1, 186506, Control_c, 0, 67, 79
1, 186512, Note_off_c, 0, 55, 62
1, 186521, Control_c, 0, 64, 32
1, 186521, Control_c, 0, 67, 82
1, 186536, Control_c, 0, 64, 50
1, 186536, Control_c, 0, 67, 84
1, 186549, Note_on_c, 0, 56, 50
1, 186551, Control_c, 0, 64, 59
1, 186551, Control_c, 0, 67, 87
1, 186565, Control_c, 0, 64, 64
1, 186565, Control_c, 0, 67, 89
1, 186580, Control_c, 0, 64, 66
1, 186580, Control_c, 0, 67, 92
1, 186595, Control_c, 0, 64, 68
1, 186595, Control_c, 0, 67, 95
1, 186610, Control_c, 0, 64, 71
1, 186610, Control_c, 0, 67, 97
1, 186625, Control_c, 0, 64, 73
1, 186625, Control_c, 0, 67, 99
1, 186640, Control_c, 0, 64, 76
1, 186640, Control_c, 0, 67, 101
1, 186649, Note_off_c, 0, 68, 35
1, 186655, Control_c, 0, 64, 78
1, 186655, Control_c, 0, 67, 102
1, 186677, Control_c, 0, 64, 80
1, 186677, Control_c, 0, 67, 103
1, 186691, Control_c, 0, 64, 82
1, 186691, Control_c, 0, 67, 104
1, 186704, Note_off_c, 0, 56, 50
1, 186706, Control_c, 0, 64, 83
1, 186721, Control_c, 0, 64, 85
1, 186726, Note_on_c, 0, 53, 52
1, 186736, Control_c, 0, 64, 86
1, 186751, Control_c, 0, 64, 87
1, 186765, Control_c, 0, 64, 88
1, 186780, Control_c, 0, 64, 89
1, 186795, Control_c, 0, 64, 89
1, 186810, Control_c, 0, 64, 90
1, 186863, Note_off_c, 0, 53, 56
1, 186884, Control_c, 0, 64, 87
1, 186892, Note_on_c, 0, 60, 62
1, 186899, Control_c, 0, 64, 82
1, 186904, Note_on_c, 0, 67, 52
1, 186905, Note_on_c, 0, 52, 47
1, 186914, Control_c, 0, 64, 75
1, 186929, Note_off_c, 0, 58, 38
1, 186929, Control_c, 0, 64, 66
1, 186944, Control_c, 0, 64, 51
1, 186959, Control_c, 0, 64, 24
1, 186973, Control_c, 0, 64, 0
1, 187003, Control_c, 0, 64, 23
1, 187018, Control_c, 0, 64, 36
1, 187033, Control_c, 0, 64, 46
1, 187033, Control_c, 0, 67, 103
1, 187047, Control_c, 0, 64, 55
1, 187047, Control_c, 0, 67, 103
1, 187060, Note_off_c, 0, 52, 54
1, 187062, Control_c, 0, 64, 60
1, 187077, Control_c, 0, 64, 63
1, 187077, Control_c, 0, 67, 102
1, 187085, Note_on_c, 0, 50, 48
1, 187091, Control_c, 0, 64, 66
1, 187106, Control_c, 0, 64, 68
1, 187121, Control_c, 0, 64, 72
1, 187121, Control_c, 0, 67, 102
1, 187136, Control_c, 0, 64, 76
1, 187136, Control_c, 0, 67, 101
1, 187152, Control_c, 0, 64, 79
1, 187167, Control_c, 0, 64, 81
1, 187182, Control_c, 0, 64, 83
1, 187196, Control_c, 0, 64, 85
1, 187196, Control_c, 0, 67, 101
1, 187211, Control_c, 0, 64, 88
1, 187226, Control_c, 0, 64, 91
1, 187233, Note_off_c, 0, 60, 61
1, 187235, Note_off_c, 0, 50, 49
1, 187237, Note_on_c, 0, 58, 69
1, 187241, Control_c, 0, 64, 93
1, 187251, Note_on_c, 0, 52, 49
1, 187256, Control_c, 0, 64, 95
1, 187270, Control_c, 0, 64, 97
1, 187285, Control_c, 0, 64, 98
1, 187300, Control_c, 0, 64, 99
1, 187300, Control_c, 0, 67, 100
1, 187310, Note_off_c, 0, 67, 31
1, 187311, Note_off_c, 0, 58, 63
1, 187314, Control_c, 0, 64, 100
1, 187329, Control_c, 0, 64, 101
1, 187344, Control_c, 0, 64, 101
1, 187359, Control_c, 0, 67, 100
1, 187374, Control_c, 0, 64, 102
1, 187393, Note_off_c, 0, 52, 36
1, 187403, Control_c, 0, 67, 99
1, 187456, Control_c, 0, 64, 100
1, 187456, Control_c, 0, 67, 99
1, 187468, Note_on_c, 0, 56, 60
1, 187470, Control_c, 0, 64, 94
1, 187472, Note_on_c, 0, 53, 54
1, 187485, Control_c, 0, 64, 82
1, 187485, Control_c, 0, 67, 98
1, 187500, Control_c, 0, 64, 69
1, 187500, Control_c, 0, 67, 98
1, 187514, Control_c, 0, 64, 48
1, 187514, Control_c, 0, 67, 97
1, 187529, Control_c, 0, 64, 0
1, 187529, Control_c, 0, 67, 96
1, 187544, Control_c, 0, 67, 95
1, 187559, Control_c, 0, 64, 28
1, 187559, Control_c, 0, 67, 94
1, 187574, Control_c, 0, 64, 42
1, 187574, Control_c, 0, 67, 93
1, 187588, Control_c, 0, 64, 51
1, 187588, Control_c, 0, 67, 90
1, 187603, Control_c, 0, 64, 57
1, 187603, Control_c, 0, 67, 83
1, 187618, Control_c, 0, 64, 63
1, 187618, Control_c, 0, 67, 76
1, 187633, Control_c, 0, 64, 66
1, 187633, Control_c, 0, 67, 68
1, 187648, Control_c, 0, 64, 70
1, 187648, Control_c, 0, 67, 61
1, 187649, Note_on_c, 0, 68, 56
1, 187662, Control_c, 0, 64, 74
1, 187662, Control_c, 0, 67, 54
1, 187677, Control_c, 0, 64, 78
1, 187677, Control_c, 0, 67, 47
1, 187692, Control_c, 0, 64, 82
1, 187692, Control_c, 0, 67, 41
1, 187707, Control_c, 0, 64, 85
1, 187707, Control_c, 0, 67, 34
1, 187722, Control_c, 0, 64, 88
1, 187722, Control_c, 0, 67, 29
1, 187737, Control_c, 0, 64, 90
1, 187737, Control_c, 0, 67, 25
1, 187752, Control_c, 0, 64, 92
1, 187752, Control_c, 0, 67, 22
1, 187767, Control_c, 0, 64, 95
1, 187767, Control_c, 0, 67, 20
1, 187782, Control_c, 0, 64, 97
1, 187782, Control_c, 0, 67, 18
1, 187796, Control_c, 0, 64, 100
1, 187796, Control_c, 0, 67, 17
1, 187811, Control_c, 0, 64, 103
1, 187811, Control_c, 0, 67, 15
1, 187823, Note_on_c, 0, 51, 59
1, 187823, Note_on_c, 0, 67, 63
1, 187826, Control_c, 0, 64, 106
1, 187826, Control_c, 0, 67, 14
1, 187835, Note_off_c, 0, 56, 56
1, 187841, Control_c, 0, 64, 108
1, 187841, Control_c, 0, 67, 13
1, 187856, Control_c, 0, 64, 110
1, 187856, Control_c, 0, 67, 12
1, 187870, Control_c, 0, 64, 113
1, 187870, Control_c, 0, 67, 11
1, 187878, Note_off_c, 0, 68, 35
1, 187885, Note_off_c, 0, 53, 29
1, 187885, Control_c, 0, 64, 115
1, 187885, Control_c, 0, 67, 9
1, 187900, Control_c, 0, 64, 119
1, 187900, Control_c, 0, 67, 8
1, 187914, Control_c, 0, 64, 127
1, 187914, Control_c, 0, 67, 0
1, 187990, Control_c, 0, 64, 102
1, 188005, Control_c, 0, 64, 84
1, 188007, Note_on_c, 0, 58, 76
1, 188014, Note_off_c, 0, 67, 58
1, 188019, Control_c, 0, 64, 69
1, 188025, Note_on_c, 0, 49, 60
1, 188034, Control_c, 0, 64, 54
1, 188044, Note_on_c, 0, 65, 53
1, 188049, Control_c, 0, 64, 46
1, 188064, Control_c, 0, 64, 52
1, 188079, Control_c, 0, 64, 58
1, 188086, Note_off_c, 0, 51, 41
1, 188093, Control_c, 0, 64, 62
1, 188108, Control_c, 0, 64, 64
1, 188123, Control_c, 0, 64, 68
1, 188137, Control_c, 0, 64, 72
1, 188149, Note_off_c, 0, 49, 49
1, 188152, Control_c, 0, 64, 78
1, 188175, Control_c, 0, 64, 83
1, 188190, Control_c, 0, 64, 87
1, 188196, Note_off_c, 0, 65, 60
1, 188204, Note_on_c, 0, 64, 62
1, 188205, Control_c, 0, 64, 88
1, 188219, Control_c, 0, 64, 90
1, 188234, Control_c, 0, 64, 92
1, 188247, Note_off_c, 0, 58, 58
1, 188249, Control_c, 0, 64, 95
1, 188264, Control_c, 0, 64, 98
1, 188279, Control_c, 0, 64, 100
1, 188293, Control_c, 0, 64, 101
1, 188308, Control_c, 0, 64, 102
1, 188323, Control_c, 0, 64, 103
1, 188337, Control_c, 0, 64, 104
1, 188345, Note_off_c, 0, 64, 60
1, 188352, Control_c, 0, 64, 106
1, 188354, Note_on_c, 0, 56, 77
1, 188367, Control_c, 0, 64, 109
1, 188369, Note_on_c, 0, 48, 59
1, 188371, Note_on_c, 0, 65, 67
1, 188382, Control_c, 0, 64, 111
1, 188397, Control_c, 0, 64, 112
1, 188411, Control_c, 0, 64, 113
1, 188426, Control_c, 0, 64, 115
1, 188441, Control_c, 0, 64, 118
1, 188456, Control_c, 0, 64, 127
1, 188482, Note_off_c, 0, 56, 59
1, 188500, Note_off_c, 0, 48, 52
1, 188515, Control_c, 0, 64, 120
1, 188530, Control_c, 0, 64, 101
1, 188545, Control_c, 0, 64, 82
1, 188551, Note_on_c, 0, 55, 72
1, 188560, Control_c, 0, 64, 62
1, 188563, Note_on_c, 0, 46, 59
1, 188563, Note_on_c, 0, 67, 58
1, 188569, Note_off_c, 0, 65, 53
1, 188574, Control_c, 0, 64, 20
1, 188589, Control_c, 0, 64, 0
1, 188619, Control_c, 0, 64, 38
1, 188634, Control_c, 0, 64, 51
1, 188649, Control_c, 0, 64, 58
1, 188663, Control_c, 0, 64, 64
1, 188678, Control_c, 0, 64, 69
1, 188693, Control_c, 0, 64, 76
1, 188708, Control_c, 0, 64, 83
1, 188723, Control_c, 0, 64, 89
1, 188728, Note_off_c, 0, 46, 62
1, 188732, Note_on_c, 0, 68, 66
1, 188738, Control_c, 0, 64, 93
1, 188753, Control_c, 0, 64, 97
1, 188768, Control_c, 0, 64, 100
1, 188783, Control_c, 0, 64, 104
1, 188798, Control_c, 0, 64, 109
1, 188800, Note_off_c, 0, 67, 32
1, 188813, Control_c, 0, 64, 115
1, 188828, Control_c, 0, 64, 127
1, 188889, Note_on_c, 0, 47, 68
1, 188894, Note_on_c, 0, 65, 70
1, 188926, Note_off_c, 0, 55, 60
1, 188942, Note_off_c, 0, 47, 58
1, 188947, Note_off_c, 0, 68, 48
1, 189072, Control_c, 0, 64, 110
1, 189082, Note_on_c, 0, 56, 79
1, 189086, Control_c, 0, 64, 84
1, 189101, Control_c, 0, 64, 65
1, 189109, Note_on_c, 0, 48, 49
1, 189116, Control_c, 0, 64, 36
1, 189131, Control_c, 0, 64, 14
1, 189146, Control_c, 0, 64, 36
1, 189160, Control_c, 0, 64, 51
1, 189175, Control_c, 0, 64, 59
1, 189190, Control_c, 0, 64, 64
1, 189205, Control_c, 0, 64, 69
1, 189220, Control_c, 0, 64, 76
1, 189234, Control_c, 0, 64, 86
1, 189249, Control_c, 0, 64, 95
1, 189264, Note_off_c, 0, 65, 60
1, 189264, Control_c, 0, 64, 101
1, 189266, Note_on_c, 0, 62, 73
1, 189279, Control_c, 0, 64, 107
1, 189293, Control_c, 0, 64, 113
1, 189308, Control_c, 0, 64, 127
1, 189335, Note_off_c, 0, 56, 61
1, 189450, Note_on_c, 0, 55, 72
1, 189454, Note_off_c, 0, 48, 56
1, 189463, Note_on_c, 0, 46, 57
1, 189466, Note_on_c, 0, 64, 64
1, 189493, Note_off_c, 0, 62, 58
1, 189498, Note_off_c, 0, 46, 64
1, 189556, Note_off_c, 0, 55, 58
1, 189772, Note_on_c, 0, 44, 52
1, 189776, Note_on_c, 0, 60, 76
1, 189777, Note_off_c, 0, 64, 65
1, 189790, Control_c, 0, 64, 101
1, 189794, Note_on_c, 0, 65, 68
1, 189805, Control_c, 0, 64, 75
1, 189820, Control_c, 0, 64, 53
1, 189835, Control_c, 0, 64, 0
1, 189835, Control_c, 0, 67, 8
1, 189850, Control_c, 0, 67, 10
1, 189864, Control_c, 0, 67, 13
1, 189879, Control_c, 0, 67, 16
1, 189894, Control_c, 0, 67, 18
1, 189909, Control_c, 0, 67, 23
1, 189923, Control_c, 0, 67, 27
1, 189938, Control_c, 0, 67, 33
1, 189953, Control_c, 0, 67, 39
1, 189968, Control_c, 0, 67, 45
1, 189983, Control_c, 0, 64, 28
1, 189983, Control_c, 0, 67, 51
1, 189997, Control_c, 0, 64, 53
1, 189997, Control_c, 0, 67, 58
1, 190012, Control_c, 0, 64, 61
1, 190012, Control_c, 0, 67, 63
1, 190027, Control_c, 0, 64, 66
1, 190027, Control_c, 0, 67, 67
1, 190042, Control_c, 0, 64, 69
1, 190042, Control_c, 0, 67, 71
1, 190050, Note_off_c, 0, 65, 55
1, 190056, Control_c, 0, 64, 73
1, 190056, Control_c, 0, 67, 73
1, 190066, Note_on_c, 0, 66, 44
1, 190071, Control_c, 0, 64, 76
1, 190071, Control_c, 0, 67, 76
1, 190086, Control_c, 0, 64, 81
1, 190086, Control_c, 0, 67, 80
1, 190101, Control_c, 0, 64, 84
1, 190101, Control_c, 0, 67, 84
1, 190116, Control_c, 0, 64, 87
1, 190116, Control_c, 0, 67, 87
1, 190131, Control_c, 0, 64, 90
1, 190131, Control_c, 0, 67, 90
1, 190145, Control_c, 0, 64, 93
1, 190145, Control_c, 0, 67, 91
1, 190160, Control_c, 0, 64, 96
1, 190160, Control_c, 0, 67, 92
1, 190175, Control_c, 0, 64, 99
1, 190175, Control_c, 0, 67, 92
1, 190190, Control_c, 0, 64, 102
1, 190190, Control_c, 0, 67, 94
1, 190205, Control_c, 0, 64, 105
1, 190205, Control_c, 0, 67, 96
1, 190220, Control_c, 0, 64, 108
1, 190220, Control_c, 0, 67, 97
1, 190223, Note_on_c, 0, 45, 52
1, 190232, Note_on_c, 0, 63, 54
1, 190234, Control_c, 0, 64, 112
1, 190234, Control_c, 0, 67, 97
1, 190247, Note_off_c, 0, 44, 36
1, 190249, Control_c, 0, 64, 115
1, 190264, Control_c, 0, 64, 122
1, 190280, Control_c, 0, 64, 127
1, 190369, Control_c, 0, 67, 98
1, 190382, Note_off_c, 0, 60, 38
1, 190384, Control_c, 0, 67, 98
1, 190387, Note_off_c, 0, 45, 57
1, 190399, Control_c, 0, 67, 99
1, 190421, Control_c, 0, 64, 109
1, 190421, Control_c, 0, 67, 103
1, 190423, Note_on_c, 0, 46, 55
1, 190424, Note_on_c, 0, 53, 57
1, 190436, Control_c, 0, 64, 84
1, 190436, Control_c, 0, 67, 107
1, 190447, Note_on_c, 0, 61, 44
1, 190451, Control_c, 0, 64, 65
1, 190451, Control_c, 0, 67, 111
1, 190466, Control_c, 0, 64, 0
1, 190466, Control_c, 0, 67, 114
1, 190471, Note_off_c, 0, 63, 49
1, 190481, Control_c, 0, 67, 117
1, 190495, Control_c, 0, 67, 120
1, 190510, Control_c, 0, 67, 122
1, 190525, Control_c, 0, 64, 21
1, 190525, Control_c, 0, 67, 123
1, 190539, Control_c, 0, 64, 45
1, 190539, Control_c, 0, 67, 124
1, 190554, Control_c, 0, 64, 58
1, 190569, Control_c, 0, 64, 65
1, 190584, Control_c, 0, 64, 70
1, 190599, Control_c, 0, 64, 76
1, 190606, Note_off_c, 0, 61, 56
1, 190613, Control_c, 0, 64, 81
1, 190616, Note_on_c, 0, 60, 43
1, 190628, Control_c, 0, 64, 84
1, 190643, Control_c, 0, 64, 87
1, 190658, Control_c, 0, 64, 92
1, 190673, Control_c, 0, 64, 96
1, 190673, Control_c, 0, 67, 124
1, 190688, Control_c, 0, 64, 101
1, 190703, Control_c, 0, 64, 106
1, 190718, Control_c, 0, 64, 110
1, 190733, Control_c, 0, 64, 114
1, 190747, Control_c, 0, 64, 125
1, 190762, Control_c, 0, 64, 127
1, 190768, Note_off_c, 0, 60, 50
1, 190782, Note_on_c, 0, 44, 50
1, 190799, Note_on_c, 0, 61, 50
1, 190819, Note_off_c, 0, 53, 34
1, 190827, Note_off_c, 0, 46, 33
1, 190858, Note_off_c, 0, 44, 45
1, 190925, Control_c, 0, 67, 125
1, 190939, Control_c, 0, 67, 125
1, 190954, Control_c, 0, 64, 98
1, 190969, Control_c, 0, 64, 76
1, 190969, Control_c, 0, 67, 126
1, 190979, Note_on_c, 0, 51, 49
1, 190980, Note_on_c, 0, 43, 58
1, 190984, Control_c, 0, 64, 58
1, 190984, Control_c, 0, 67, 127
1, 190999, Control_c, 0, 64, 37
1, 191013, Control_c, 0, 64, 43
1, 191028, Control_c, 0, 64, 53
1, 191043, Control_c, 0, 64, 57
1, 191058, Control_c, 0, 64, 61
1, 191072, Control_c, 0, 64, 64
1, 191087, Control_c, 0, 64, 67
1, 191102, Control_c, 0, 64, 71
1, 191117, Control_c, 0, 64, 77
1, 191124, Note_off_c, 0, 51, 35
1, 191133, Control_c, 0, 64, 82
1, 191141, Note_off_c, 0, 43, 41
1, 191145, Note_on_c, 0, 44, 48
1, 191148, Control_c, 0, 64, 86
1, 191163, Note_off_c, 0, 61, 60
1, 191164, Note_off_c, 0, 66, 43
1, 191166, Note_on_c, 0, 60, 52
1, 191170, Control_c, 0, 64, 88
1, 191185, Control_c, 0, 64, 91
1, 191200, Control_c, 0, 64, 93
1, 191215, Control_c, 0, 64, 96
1, 191230, Control_c, 0, 64, 100
1, 191244, Control_c, 0, 64, 101
1, 191288, Control_c, 0, 64, 101
1, 191302, Note_off_c, 0, 44, 53
1, 191303, Control_c, 0, 64, 102
1, 191315, Note_off_c, 0, 60, 60
1, 191318, Control_c, 0, 64, 102
1, 191328, Note_on_c, 0, 43, 58
1, 191349, Note_on_c, 0, 58, 51
1, 191356, Note_on_c, 0, 63, 47
1, 191359, Note_off_c, 0, 43, 54
1, 191391, Note_off_c, 0, 58, 60
1, 191393, Note_off_c, 0, 63, 49
1, 191481, Control_c, 0, 64, 101
1, 191496, Control_c, 0, 64, 97
1, 191511, Control_c, 0, 64, 86
1, 191520, Note_on_c, 0, 63, 54
1, 191526, Control_c, 0, 64, 72
1, 191537, Note_on_c, 0, 41, 41
1, 191540, Control_c, 0, 64, 53
1, 191550, Note_on_c, 0, 56, 46
1, 191555, Control_c, 0, 64, 0
1, 191678, Note_off_c, 0, 56, 49
1, 191704, Note_on_c, 0, 55, 46
1, 191706, Note_off_c, 0, 41, 34
1, 191718, Control_c, 0, 64, 26
1, 191729, Note_on_c, 0, 39, 33
1, 191733, Control_c, 0, 64, 52
1, 191748, Control_c, 0, 64, 62
1, 191762, Control_c, 0, 64, 67
1, 191777, Control_c, 0, 64, 74
1, 191792, Control_c, 0, 64, 81
1, 191807, Control_c, 0, 64, 86
1, 191822, Control_c, 0, 64, 90
1, 191829, Note_off_c, 0, 55, 49
1, 191836, Control_c, 0, 64, 94
1, 191851, Control_c, 0, 64, 98
1, 191866, Control_c, 0, 64, 103
1, 191880, Control_c, 0, 64, 108
1, 191885, Note_on_c, 0, 58, 50
1, 191895, Control_c, 0, 64, 114
1, 191907, Note_off_c, 0, 63, 59
1, 191910, Note_on_c, 0, 37, 38
1, 191917, Note_off_c, 0, 58, 59
1, 191918, Control_c, 0, 64, 120
1, 191918, Control_c, 0, 67, 125
1, 191921, Note_off_c, 0, 39, 34
1, 191934, Control_c, 0, 64, 127
1, 191934, Control_c, 0, 67, 123
1, 191949, Control_c, 0, 67, 120
1, 191964, Control_c, 0, 67, 116
1, 191979, Control_c, 0, 67, 111
1, 191993, Control_c, 0, 67, 103
1, 192008, Control_c, 0, 67, 94
1, 192023, Control_c, 0, 67, 86
1, 192038, Control_c, 0, 67, 77
1, 192053, Control_c, 0, 67, 67
1, 192067, Control_c, 0, 64, 116
1, 192067, Control_c, 0, 67, 59
1, 192077, Note_on_c, 0, 68, 68
1, 192081, Note_on_c, 0, 36, 48
1, 192082, Control_c, 0, 64, 89
1, 192082, Control_c, 0, 67, 53
1, 192094, Note_off_c, 0, 37, 38
1, 192097, Control_c, 0, 64, 71
1, 192097, Control_c, 0, 67, 49
1, 192109, Note_on_c, 0, 63, 39
1, 192111, Control_c, 0, 64, 53
1, 192111, Control_c, 0, 67, 47
1, 192126, Control_c, 0, 64, 14
1, 192126, Control_c, 0, 67, 44
1, 192141, Control_c, 0, 64, 25
1, 192141, Control_c, 0, 67, 41
1, 192156, Control_c, 0, 64, 44
1, 192156, Control_c, 0, 67, 37
1, 192171, Control_c, 0, 64, 55
1, 192171, Control_c, 0, 67, 32
1, 192185, Control_c, 0, 64, 60
1, 192185, Control_c, 0, 67, 26
1, 192200, Control_c, 0, 64, 63
1, 192200, Control_c, 0, 67, 23
1, 192215, Control_c, 0, 64, 66
1, 192215, Control_c, 0, 67, 20
1, 192219, Note_off_c, 0, 36, 52
1, 192230, Control_c, 0, 64, 71
1, 192230, Control_c, 0, 67, 17
1, 192245, Control_c, 0, 64, 76
1, 192245, Control_c, 0, 67, 16
1, 192259, Control_c, 0, 64, 82
1, 192259, Control_c, 0, 67, 15
1, 192265, Note_on_c, 0, 37, 36
1, 192269, Note_on_c, 0, 65, 60
1, 192274, Control_c, 0, 64, 87
1, 192274, Control_c, 0, 67, 13
1, 192281, Note_off_c, 0, 63, 52
1, 192289, Control_c, 0, 64, 90
1, 192289, Control_c, 0, 67, 10
1, 192304, Control_c, 0, 64, 92
1, 192304, Control_c, 0, 67, 8
1, 192318, Control_c, 0, 64, 94
1, 192318, Control_c, 0, 67, 0
1, 192333, Control_c, 0, 64, 96
1, 192348, Control_c, 0, 64, 99
1, 192363, Control_c, 0, 64, 102
1, 192378, Control_c, 0, 64, 103
1, 192410, Note_off_c, 0, 65, 60
1, 192423, Control_c, 0, 64, 104
1, 192438, Control_c, 0, 64, 105
1, 192451, Note_on_c, 0, 61, 55
1, 192453, Control_c, 0, 64, 106
1, 192456, Note_on_c, 0, 34, 40
1, 192467, Control_c, 0, 64, 108
1, 192471, Note_off_c, 0, 37, 35
1, 192497, Control_c, 0, 64, 108
1, 192511, Control_c, 0, 64, 109
1, 192524, Control_c, 0, 64, 109
1, 192569, Control_c, 0, 64, 109
1, 192584, Control_c, 0, 64, 102
1, 192599, Control_c, 0, 64, 91
1, 192600, Note_off_c, 0, 61, 57
1, 192611, Note_on_c, 0, 65, 68
1, 192614, Control_c, 0, 64, 76
1, 192626, Note_on_c, 0, 33, 48
1, 192628, Control_c, 0, 64, 61
1, 192631, Note_off_c, 0, 34, 42
1, 192638, Note_on_c, 0, 60, 44
1, 192643, Control_c, 0, 64, 0
1, 192724, Control_c, 0, 64, 37
1, 192740, Control_c, 0, 64, 53
1, 192755, Control_c, 0, 64, 63
1, 192770, Control_c, 0, 64, 67
1, 192784, Note_off_c, 0, 60, 52
1, 192785, Control_c, 0, 64, 72
1, 192792, Note_off_c, 0, 33, 54
1, 192798, Note_on_c, 0, 61, 54
1, 192800, Control_c, 0, 64, 77
1, 192807, Note_on_c, 0, 34, 39
1, 192814, Control_c, 0, 64, 82
1, 192829, Control_c, 0, 64, 86
1, 192844, Control_c, 0, 64, 90
1, 192859, Control_c, 0, 64, 94
1, 192874, Control_c, 0, 64, 96
1, 192888, Control_c, 0, 64, 98
1, 192903, Control_c, 0, 64, 100
1, 192918, Control_c, 0, 64, 104
1, 192933, Control_c, 0, 64, 109
1, 192947, Control_c, 0, 64, 113
1, 192962, Control_c, 0, 64, 115
1, 192974, Note_on_c, 0, 63, 70
1, 192977, Note_off_c, 0, 34, 39
1, 192977, Control_c, 0, 64, 117
1, 192985, Note_off_c, 0, 61, 62
1, 192990, Note_on_c, 0, 36, 45
1, 192992, Control_c, 0, 64, 118
1, 192993, Note_off_c, 0, 68, 53
1, 193002, Note_off_c, 0, 65, 35
1, 193004, Note_off_c, 0, 63, 65
1, 193007, Control_c, 0, 64, 125
1, 193022, Control_c, 0, 64, 127
1, 193111, Control_c, 0, 64, 121
1, 193125, Control_c, 0, 64, 95
1, 193140, Control_c, 0, 64, 77
1, 193145, Note_on_c, 0, 70, 71
1, 193155, Control_c, 0, 64, 61
1, 193161, Note_on_c, 0, 37, 51
1, 193164, Note_on_c, 0, 65, 57
1, 193165, Note_off_c, 0, 36, 35
1, 193170, Control_c, 0, 64, 18
1, 193185, Control_c, 0, 64, 0
1, 193214, Control_c, 0, 64, 30
1, 193229, Control_c, 0, 64, 46
1, 193244, Control_c, 0, 64, 56
1, 193258, Control_c, 0, 64, 63
1, 193274, Control_c, 0, 64, 68
1, 193288, Note_off_c, 0, 65, 53
1, 193289, Control_c, 0, 64, 74
1, 193299, Note_off_c, 0, 37, 56
1, 193304, Control_c, 0, 64, 81
1, 193319, Control_c, 0, 64, 87
1, 193323, Note_on_c, 0, 39, 46
1, 193333, Control_c, 0, 64, 91
1, 193334, Note_on_c, 0, 66, 59
1, 193348, Control_c, 0, 64, 95
1, 193363, Control_c, 0, 64, 99
1, 193378, Control_c, 0, 64, 103
1, 193393, Control_c, 0, 64, 107
1, 193415, Control_c, 0, 64, 111
1, 193430, Control_c, 0, 64, 114
1, 193445, Control_c, 0, 64, 117
1, 193459, Control_c, 0, 64, 127
1, 193502, Note_off_c, 0, 66, 37
1, 193508, Note_on_c, 0, 36, 46
1, 193508, Note_on_c, 0, 63, 60
1, 193531, Note_off_c, 0, 39, 28
1, 193646, Note_off_c, 0, 63, 56
1, 193668, Control_c, 0, 64, 95
1, 193672, Note_on_c, 0, 67, 64
1, 193682, Control_c, 0, 64, 76
1, 193684, Note_on_c, 0, 34, 51
1, 193687, Note_on_c, 0, 61, 57
1, 193692, Note_off_c, 0, 36, 42
1, 193697, Control_c, 0, 64, 56
1, 193712, Control_c, 0, 64, 0
1, 193742, Control_c, 0, 64, 30
1, 193756, Control_c, 0, 64, 48
1, 193771, Control_c, 0, 64, 56
1, 193786, Control_c, 0, 64, 61
1, 193788, Note_off_c, 0, 61, 57
1, 193801, Control_c, 0, 64, 65
1, 193816, Control_c, 0, 64, 68
1, 193830, Control_c, 0, 64, 73
1, 193845, Control_c, 0, 64, 78
1, 193849, Note_on_c, 0, 36, 44
1, 193857, Note_on_c, 0, 63, 60
1, 193860, Control_c, 0, 64, 83
1, 193875, Control_c, 0, 64, 86
1, 193889, Control_c, 0, 64, 90
1, 193902, Note_off_c, 0, 34, 31
1, 193904, Control_c, 0, 64, 93
1, 193919, Control_c, 0, 64, 96
1, 193934, Control_c, 0, 64, 99
1, 193949, Control_c, 0, 64, 101
1, 193964, Control_c, 0, 64, 103
1, 193979, Control_c, 0, 64, 106
1, 193994, Control_c, 0, 64, 109
1, 193996, Note_off_c, 0, 67, 34
1, 194006, Note_off_c, 0, 63, 57
1, 194008, Note_off_c, 0, 36, 51
1, 194008, Note_off_c, 0, 70, 55
1, 194009, Control_c, 0, 64, 112
1, 194021, Note_on_c, 0, 65, 63
1, 194023, Control_c, 0, 64, 116
1, 194024, Note_on_c, 0, 37, 51
1, 194038, Control_c, 0, 64, 120
1, 194053, Control_c, 0, 64, 122
1, 194068, Control_c, 0, 64, 123
1, 194082, Control_c, 0, 64, 127
1, 194192, Note_on_c, 0, 72, 73
1, 194193, Control_c, 0, 64, 117
1, 194196, Note_on_c, 0, 63, 67
1, 194200, Note_off_c, 0, 65, 53
1, 194208, Control_c, 0, 64, 102
1, 194223, Control_c, 0, 64, 87
1, 194238, Control_c, 0, 64, 72
1, 194253, Control_c, 0, 64, 56
1, 194268, Control_c, 0, 64, 0
1, 194312, Control_c, 0, 64, 24
1, 194328, Control_c, 0, 64, 45
1, 194343, Control_c, 0, 64, 56
1, 194357, Control_c, 0, 64, 62
1, 194372, Control_c, 0, 64, 67
1, 194375, Note_off_c, 0, 37, 47
1, 194377, Note_on_c, 0, 36, 48
1, 194377, Note_on_c, 0, 68, 58
1, 194387, Control_c, 0, 64, 72
1, 194392, Note_off_c, 0, 72, 56
1, 194402, Control_c, 0, 64, 77
1, 194417, Control_c, 0, 64, 81
1, 194432, Control_c, 0, 64, 85
1, 194447, Control_c, 0, 64, 87
1, 194461, Control_c, 0, 64, 89
1, 194476, Control_c, 0, 64, 91
1, 194483, Note_off_c, 0, 36, 58
1, 194491, Control_c, 0, 64, 93
1, 194505, Control_c, 0, 64, 95
1, 194520, Control_c, 0, 64, 96
1, 194535, Control_c, 0, 64, 98
1, 194538, Note_on_c, 0, 39, 52
1, 194550, Control_c, 0, 64, 100
1, 194565, Control_c, 0, 64, 103
1, 194579, Control_c, 0, 64, 107
1, 194594, Control_c, 0, 64, 113
1, 194609, Control_c, 0, 64, 120
1, 194624, Control_c, 0, 64, 127
1, 194712, Note_off_c, 0, 39, 33
1, 194712, Control_c, 0, 64, 114
1, 194721, Note_on_c, 0, 70, 76
1, 194722, Note_on_c, 0, 37, 55
1, 194727, Control_c, 0, 64, 91
1, 194733, Note_off_c, 0, 68, 57
1, 194742, Control_c, 0, 64, 68
1, 194757, Control_c, 0, 64, 38
1, 194772, Control_c, 0, 64, 0
1, 194816, Control_c, 0, 64, 24
1, 194831, Control_c, 0, 64, 47
1, 194846, Control_c, 0, 64, 56
1, 194861, Control_c, 0, 64, 63
1, 194869, Note_off_c, 0, 63, 32
1, 194876, Control_c, 0, 64, 67
1, 194891, Control_c, 0, 64, 72
1, 194891, Note_on_c, 0, 41, 52
1, 194904, Note_on_c, 0, 62, 54
1, 194912, Control_c, 0, 64, 77
1, 194927, Control_c, 0, 64, 82
1, 194942, Control_c, 0, 64, 85
1, 194957, Control_c, 0, 64, 87
1, 194972, Control_c, 0, 64, 89
1, 194986, Control_c, 0, 64, 92
1, 195001, Control_c, 0, 64, 94
1, 195016, Control_c, 0, 64, 95
1, 195021, Note_off_c, 0, 37, 20
1, 195022, Note_off_c, 0, 41, 52
1, 195031, Control_c, 0, 64, 96
1, 195035, Note_off_c, 0, 62, 61
1, 195046, Control_c, 0, 64, 97
1, 195053, Note_on_c, 0, 38, 59
1, 195061, Note_on_c, 0, 68, 66
1, 195061, Control_c, 0, 64, 98
1, 195070, Note_on_c, 0, 65, 59
1, 195076, Control_c, 0, 64, 100
1, 195091, Control_c, 0, 64, 103
1, 195105, Control_c, 0, 64, 106
1, 195120, Control_c, 0, 64, 109
1, 195131, Note_off_c, 0, 70, 34
1, 195135, Control_c, 0, 64, 110
1, 195150, Control_c, 0, 64, 111
1, 195165, Control_c, 0, 64, 112
1, 195195, Control_c, 0, 64, 109
1, 195210, Control_c, 0, 64, 96
1, 195213, Note_off_c, 0, 65, 33
1, 195225, Control_c, 0, 64, 76
1, 195235, Note_off_c, 0, 68, 53
1, 195238, Note_off_c, 0, 38, 58
1, 195240, Control_c, 0, 64, 57
1, 195246, Note_on_c, 0, 67, 59
1, 195254, Control_c, 0, 64, 0
1, 195258, Note_on_c, 0, 39, 47
1, 195263, Note_on_c, 0, 58, 54
1, 195358, Control_c, 0, 64, 39
1, 195373, Control_c, 0, 64, 58
1, 195383, Note_off_c, 0, 58, 61
1, 195388, Control_c, 0, 64, 64
1, 195389, Note_off_c, 0, 39, 59
1, 195402, Control_c, 0, 64, 70
1, 195409, Note_on_c, 0, 43, 68
1, 195417, Control_c, 0, 64, 74
1, 195432, Control_c, 0, 64, 79
1, 195447, Control_c, 0, 64, 83
1, 195461, Control_c, 0, 64, 87
1, 195462, Note_off_c, 0, 67, 62
1, 195476, Control_c, 0, 64, 92
1, 195491, Control_c, 0, 64, 95
1, 195506, Control_c, 0, 64, 98
1, 195520, Control_c, 0, 64, 101
1, 195535, Control_c, 0, 64, 104
1, 195550, Control_c, 0, 64, 109
1, 195554, Note_on_c, 0, 41, 70
1, 195563, Note_off_c, 0, 43, 56
1, 195565, Control_c, 0, 64, 115
1, 195580, Control_c, 0, 64, 120
1, 195594, Control_c, 0, 64, 120
1, 195750, Control_c, 0, 64, 116
1, 195759, Note_on_c, 0, 73, 80
1, 195764, Control_c, 0, 64, 109
1, 195767, Note_on_c, 0, 70, 71
1, 195772, Note_on_c, 0, 39, 58
1, 195774, Note_off_c, 0, 41, 57
1, 195779, Control_c, 0, 64, 101
1, 195794, Control_c, 0, 64, 92
1, 195809, Control_c, 0, 64, 85
1, 195824, Control_c, 0, 64, 80
1, 195839, Control_c, 0, 64, 76
1, 195853, Control_c, 0, 64, 71
1, 195868, Control_c, 0, 64, 66
1, 195868, Control_c, 0, 67, 10
1, 195883, Control_c, 0, 64, 60
1, 195883, Control_c, 0, 67, 12
1, 195898, Control_c, 0, 64, 56
1, 195898, Control_c, 0, 67, 15
1, 195913, Control_c, 0, 64, 55
1, 195913, Control_c, 0, 67, 18
1, 195928, Control_c, 0, 64, 54
1, 195928, Control_c, 0, 67, 23
1, 195943, Control_c, 0, 64, 52
1, 195943, Control_c, 0, 67, 30
1, 195958, Control_c, 0, 64, 49
1, 195958, Control_c, 0, 67, 38
1, 195966, Note_on_c, 0, 38, 57
1, 195973, Control_c, 0, 64, 45
1, 195973, Control_c, 0, 67, 49
1, 195982, Note_off_c, 0, 39, 52
1, 195988, Control_c, 0, 64, 44
1, 195988, Control_c, 0, 67, 59
1, 196003, Control_c, 0, 67, 67
1, 196018, Control_c, 0, 67, 74
1, 196032, Control_c, 0, 67, 82
1, 196047, Control_c, 0, 64, 43
1, 196047, Control_c, 0, 67, 89
1, 196062, Control_c, 0, 64, 41
1, 196062, Control_c, 0, 67, 95
1, 196076, Control_c, 0, 64, 38
1, 196076, Control_c, 0, 67, 101
1, 196091, Control_c, 0, 64, 35
1, 196091, Control_c, 0, 67, 104
1, 196106, Control_c, 0, 64, 29
1, 196106, Control_c, 0, 67, 106
1, 196120, Note_on_c, 0, 39, 52
1, 196121, Control_c, 0, 64, 19
1, 196121, Control_c, 0, 67, 107
1, 196136, Control_c, 0, 64, 0
1, 196156, Note_off_c, 0, 38, 36
1, 196269, Control_c, 0, 67, 105
1, 196284, Control_c, 0, 67, 104
1, 196299, Control_c, 0, 67, 103
1, 196304, Note_on_c, 0, 67, 58
1, 196305, Note_off_c, 0, 70, 59
1, 196310, Note_on_c, 0, 40, 52
1, 196314, Control_c, 0, 67, 102
1, 196320, Note_off_c, 0, 39, 49
1, 196329, Control_c, 0, 64, 43
1, 196329, Control_c, 0, 67, 101
1, 196344, Control_c, 0, 64, 58
1, 196344, Control_c, 0, 67, 99
1, 196358, Control_c, 0, 64, 64
1, 196358, Control_c, 0, 67, 98
1, 196373, Control_c, 0, 64, 67
1, 196373, Control_c, 0, 67, 97
1, 196388, Control_c, 0, 64, 71
1, 196388, Control_c, 0, 67, 95
1, 196411, Control_c, 0, 64, 76
1, 196411, Control_c, 0, 67, 92
1, 196426, Control_c, 0, 64, 81
1, 196426, Control_c, 0, 67, 88
1, 196440, Control_c, 0, 64, 87
1, 196440, Control_c, 0, 67, 82
1, 196455, Control_c, 0, 64, 92
1, 196455, Control_c, 0, 67, 74
1, 196465, Note_off_c, 0, 40, 54
1, 196470, Control_c, 0, 64, 95
1, 196470, Control_c, 0, 67, 65
1, 196484, Control_c, 0, 64, 99
1, 196484, Control_c, 0, 67, 54
1, 196492, Note_on_c, 0, 43, 67
1, 196497, Note_on_c, 0, 70, 68
1, 196499, Control_c, 0, 64, 103
1, 196499, Control_c, 0, 67, 44
1, 196514, Control_c, 0, 64, 107
1, 196514, Control_c, 0, 67, 36
1, 196529, Control_c, 0, 64, 112
1, 196529, Control_c, 0, 67, 29
1, 196544, Control_c, 0, 64, 118
1, 196544, Control_c, 0, 67, 24
1, 196558, Control_c, 0, 64, 127
1, 196558, Control_c, 0, 67, 19
1, 196573, Control_c, 0, 67, 15
1, 196588, Control_c, 0, 67, 11
1, 196603, Control_c, 0, 67, 8
1, 196618, Control_c, 0, 67, 0
1, 196641, Note_off_c, 0, 43, 55
1, 196653, Note_on_c, 0, 68, 65
1, 196658, Note_on_c, 0, 41, 55
1, 196677, Note_off_c, 0, 67, 35
1, 196679, Note_off_c, 0, 73, 36
1, 196813, Note_off_c, 0, 41, 54
1, 196819, Note_off_c, 0, 68, 57
1, 196830, Note_on_c, 0, 72, 66
1, 196840, Note_on_c, 0, 40, 51
1, 196841, Control_c, 0, 64, 116
1, 196843, Note_off_c, 0, 70, 23
1, 196853, Note_on_c, 0, 67, 51
1, 196855, Control_c, 0, 64, 94
1, 196870, Control_c, 0, 64, 76
1, 196885, Control_c, 0, 64, 60
1, 196900, Control_c, 0, 64, 0
1, 196930, Control_c, 0, 64, 25
1, 196945, Control_c, 0, 64, 43
1, 196960, Control_c, 0, 64, 52
1, 196967, Note_off_c, 0, 67, 52
1, 196974, Control_c, 0, 64, 57
1, 196978, Note_off_c, 0, 40, 52
1, 196989, Control_c, 0, 64, 61
1, 197004, Control_c, 0, 64, 64
1, 197019, Control_c, 0, 64, 69
1, 197021, Note_on_c, 0, 38, 49
1, 197021, Note_on_c, 0, 65, 58
1, 197034, Control_c, 0, 64, 73
1, 197048, Control_c, 0, 64, 76
1, 197063, Control_c, 0, 64, 78
1, 197078, Control_c, 0, 64, 79
1, 197137, Control_c, 0, 64, 79
1, 197138, Note_off_c, 0, 65, 53
1, 197159, Control_c, 0, 64, 80
1, 197174, Control_c, 0, 64, 81
1, 197175, Note_on_c, 0, 40, 53
1, 197183, Note_on_c, 0, 70, 66
1, 197185, Note_off_c, 0, 38, 34
1, 197189, Control_c, 0, 64, 82
1, 197189, Note_off_c, 0, 72, 35
1, 197201, Note_on_c, 0, 67, 55
1, 197204, Control_c, 0, 64, 84
1, 197219, Control_c, 0, 64, 88
1, 197233, Control_c, 0, 64, 92
1, 197248, Control_c, 0, 64, 95
1, 197263, Control_c, 0, 64, 98
1, 197278, Control_c, 0, 64, 98
1, 197307, Control_c, 0, 64, 98
1, 197322, Control_c, 0, 64, 93
1, 197337, Control_c, 0, 64, 81
1, 197350, Note_off_c, 0, 70, 38
1, 197352, Control_c, 0, 64, 66
1, 197359, Note_on_c, 0, 69, 65
1, 197367, Control_c, 0, 64, 27
1, 197377, Note_off_c, 0, 40, 31
1, 197379, Note_on_c, 0, 41, 52
1, 197379, Note_on_c, 0, 60, 63
1, 197381, Control_c, 0, 64, 0
1, 197425, Control_c, 0, 64, 23
1, 197440, Control_c, 0, 64, 44
1, 197455, Control_c, 0, 64, 55
1, 197470, Control_c, 0, 64, 62
1, 197482, Note_off_c, 0, 60, 61
1, 197485, Control_c, 0, 64, 67
1, 197499, Control_c, 0, 64, 73
1, 197514, Control_c, 0, 64, 79
1, 197525, Note_on_c, 0, 45, 65
1, 197530, Control_c, 0, 64, 84
1, 197532, Note_on_c, 0, 72, 79
1, 197535, Note_off_c, 0, 69, 63
1, 197540, Note_off_c, 0, 67, 27
1, 197545, Control_c, 0, 64, 88
1, 197560, Control_c, 0, 64, 92
1, 197575, Control_c, 0, 64, 96
1, 197590, Control_c, 0, 64, 100
1, 197604, Control_c, 0, 64, 104
1, 197619, Control_c, 0, 64, 106
1, 197634, Control_c, 0, 64, 108
1, 197649, Control_c, 0, 64, 109
1, 197664, Control_c, 0, 64, 113
1, 197667, Note_off_c, 0, 41, 37
1, 197678, Control_c, 0, 64, 121
1, 197691, Note_on_c, 0, 43, 74
1, 197693, Control_c, 0, 64, 127
1, 197699, Note_off_c, 0, 45, 54
1, 197713, Note_on_c, 0, 69, 69
1, 197714, Note_off_c, 0, 72, 60
1, 197723, Note_on_c, 0, 70, 47
1, 197742, Note_off_c, 0, 69, 66
1, 197750, Note_off_c, 0, 70, 54
1, 197892, Note_on_c, 0, 41, 62
1, 197907, Note_on_c, 0, 75, 83
1, 197909, Note_off_c, 0, 43, 47
1, 197919, Note_on_c, 0, 69, 70
1, 197952, Control_c, 0, 64, 113
1, 197967, Control_c, 0, 64, 104
1, 197982, Control_c, 0, 64, 94
1, 197997, Control_c, 0, 64, 83
1, 198012, Control_c, 0, 64, 72
1, 198027, Control_c, 0, 64, 59
1, 198042, Control_c, 0, 64, 0
1, 198086, Control_c, 0, 64, 19
1, 198087, Note_on_c, 0, 43, 60
1, 198087, Note_on_c, 0, 70, 66
1, 198101, Control_c, 0, 64, 47
1, 198116, Control_c, 0, 64, 58
1, 198120, Note_off_c, 0, 41, 46
1, 198123, Note_off_c, 0, 69, 37
1, 198130, Control_c, 0, 64, 64
1, 198145, Control_c, 0, 64, 69
1, 198160, Control_c, 0, 64, 76
1, 198175, Control_c, 0, 64, 84
1, 198190, Control_c, 0, 64, 90
1, 198204, Control_c, 0, 64, 95
1, 198219, Control_c, 0, 64, 99
1, 198234, Control_c, 0, 64, 104
1, 198248, Note_off_c, 0, 43, 56
1, 198248, Control_c, 0, 64, 110
1, 198251, Note_on_c, 0, 72, 73
1, 198256, Note_on_c, 0, 45, 57
1, 198263, Control_c, 0, 64, 127
1, 198283, Note_off_c, 0, 70, 53
1, 198413, Control_c, 0, 64, 109
1, 198423, Note_on_c, 0, 69, 71
1, 198427, Control_c, 0, 64, 85
1, 198431, Note_on_c, 0, 42, 68
1, 198439, Note_off_c, 0, 45, 57
1, 198442, Note_off_c, 0, 72, 57
1, 198442, Control_c, 0, 64, 67
1, 198457, Control_c, 0, 64, 48
1, 198471, Control_c, 0, 64, 47
1, 198486, Control_c, 0, 64, 56
1, 198501, Control_c, 0, 64, 62
1, 198516, Control_c, 0, 64, 65
1, 198531, Control_c, 0, 64, 69
1, 198546, Control_c, 0, 64, 74
1, 198560, Control_c, 0, 64, 81
1, 198575, Control_c, 0, 64, 89
1, 198583, Note_on_c, 0, 72, 69
1, 198584, Note_on_c, 0, 45, 64
1, 198590, Control_c, 0, 64, 96
1, 198605, Control_c, 0, 64, 103
1, 198620, Control_c, 0, 64, 109
1, 198635, Control_c, 0, 64, 120
1, 198657, Control_c, 0, 64, 127
1, 198751, Note_on_c, 0, 70, 74
1, 198754, Note_off_c, 0, 45, 55
1, 198756, Note_on_c, 0, 43, 70
1, 198774, Note_off_c, 0, 72, 61
1, 198779, Note_off_c, 0, 75, 23
1, 198796, Note_off_c, 0, 69, 30
1, 198808, Note_off_c, 0, 70, 63
1, 198811, Note_off_c, 0, 42, 37
1, 198879, Control_c, 0, 64, 106
1, 198894, Control_c, 0, 64, 83
1, 198909, Control_c, 0, 64, 67
1, 198915, Note_on_c, 0, 42, 63
1, 198915, Note_off_c, 0, 43, 33
1, 198924, Control_c, 0, 64, 50
1, 198929, Note_on_c, 0, 74, 72
1, 198930, Note_on_c, 0, 69, 72
1, 198939, Control_c, 0, 64, 51
1, 198953, Control_c, 0, 64, 57
1, 198968, Control_c, 0, 64, 61
1, 198983, Control_c, 0, 64, 64
1, 198998, Control_c, 0, 64, 67
1, 199013, Control_c, 0, 64, 72
1, 199027, Control_c, 0, 64, 80
1, 199042, Note_off_c, 0, 69, 59
1, 199042, Control_c, 0, 64, 87
1, 199057, Control_c, 0, 64, 93
1, 199063, Note_off_c, 0, 74, 58
1, 199071, Control_c, 0, 64, 98
1, 199086, Control_c, 0, 64, 103
1, 199093, Note_on_c, 0, 70, 70
1, 199094, Note_on_c, 0, 43, 73
1, 199101, Control_c, 0, 64, 110
1, 199116, Control_c, 0, 64, 127
1, 199216, Note_off_c, 0, 42, 26
1, 199222, Note_off_c, 0, 43, 61
1, 199236, Note_off_c, 0, 70, 62
1, 199253, Note_on_c, 0, 72, 78
1, 199254, Note_on_c, 0, 45, 65
1, 199263, Note_on_c, 0, 66, 68
1, 199299, Note_off_c, 0, 45, 59
1, 199313, Note_off_c, 0, 66, 61
1, 199335, Note_off_c, 0, 72, 60
1, 199384, Control_c, 0, 64, 91
1, 199407, Control_c, 0, 64, 65
1, 199422, Control_c, 0, 64, 27
1, 199437, Control_c, 0, 64, 26
1, 199449, Note_on_c, 0, 43, 83
1, 199450, Note_on_c, 0, 71, 79
1, 199451, Control_c, 0, 64, 53
1, 199456, Note_on_c, 0, 62, 72
1, 199466, Control_c, 0, 64, 62
1, 199481, Control_c, 0, 64, 66
1, 199485, Note_off_c, 0, 62, 67
1, 199495, Control_c, 0, 64, 74
1, 199510, Control_c, 0, 64, 82
1, 199513, Note_off_c, 0, 71, 65
1, 199525, Control_c, 0, 64, 93
1, 199540, Control_c, 0, 64, 104
1, 199555, Control_c, 0, 64, 115
1, 199569, Control_c, 0, 64, 127
1, 199628, Note_on_c, 0, 50, 80
1, 199631, Note_on_c, 0, 77, 85
1, 199816, Note_on_c, 0, 75, 87
1, 199817, Note_off_c, 0, 77, 59
1, 199821, Note_on_c, 0, 48, 76
1, 199824, Note_off_c, 0, 50, 62
1, 199858, Note_off_c, 0, 75, 65
1, 199926, Note_off_c, 0, 48, 60
1, 199941, Note_off_c, 0, 43, 33
1, 200029, Control_c, 0, 64, 106
1, 200043, Control_c, 0, 64, 77
1, 200055, Note_on_c, 0, 80, 92
1, 200058, Control_c, 0, 64, 54
1, 200064, Note_on_c, 0, 47, 76
1, 200066, Note_on_c, 0, 74, 75
1, 200073, Control_c, 0, 64, 12
1, 200088, Control_c, 0, 64, 42
1, 200103, Control_c, 0, 64, 56
1, 200117, Control_c, 0, 64, 62
1, 200132, Control_c, 0, 64, 67
1, 200155, Control_c, 0, 64, 73
1, 200170, Control_c, 0, 64, 86
1, 200185, Control_c, 0, 64, 100
1, 200199, Control_c, 0, 64, 118
1, 200214, Control_c, 0, 64, 127
1, 200270, Note_off_c, 0, 74, 59
1, 200298, Note_on_c, 0, 75, 67
1, 200299, Note_on_c, 0, 48, 61
1, 200301, Note_off_c, 0, 47, 60
1, 200410, Note_off_c, 0, 48, 62
1, 200448, Note_on_c, 0, 77, 66
1, 200453, Note_on_c, 0, 50, 69
1, 200470, Note_off_c, 0, 75, 59
1, 200507, Note_off_c, 0, 50, 47
1, 200584, Note_off_c, 0, 77, 61
1, 200599, Control_c, 0, 64, 98
1, 200612, Note_on_c, 0, 71, 70
1, 200614, Control_c, 0, 64, 72
1, 200620, Note_on_c, 0, 50, 63
1, 200629, Control_c, 0, 64, 44
1, 200643, Control_c, 0, 64, 0
1, 200673, Control_c, 0, 64, 36
1, 200688, Control_c, 0, 64, 49
1, 200688, Control_c, 0, 67, 9
1, 200703, Control_c, 0, 64, 57
1, 200703, Control_c, 0, 67, 12
1, 200719, Control_c, 0, 64, 63
1, 200719, Control_c, 0, 67, 17
1, 200734, Control_c, 0, 64, 70
1, 200734, Control_c, 0, 67, 23
1, 200748, Control_c, 0, 64, 78
1, 200748, Control_c, 0, 67, 30
1, 200763, Control_c, 0, 64, 87
1, 200763, Control_c, 0, 67, 38
1, 200774, Note_off_c, 0, 50, 64
1, 200778, Control_c, 0, 64, 94
1, 200778, Control_c, 0, 67, 44
1, 200784, Note_on_c, 0, 72, 67
1, 200784, Note_on_c, 0, 51, 60
1, 200784, Note_off_c, 0, 71, 57
1, 200793, Control_c, 0, 64, 100
1, 200793, Control_c, 0, 67, 51
1, 200808, Control_c, 0, 64, 105
1, 200808, Control_c, 0, 67, 60
1, 200822, Control_c, 0, 64, 113
1, 200822, Control_c, 0, 67, 68
1, 200837, Control_c, 0, 64, 127
1, 200837, Control_c, 0, 67, 77
1, 200852, Control_c, 0, 67, 85
1, 200866, Control_c, 0, 67, 92
1, 200881, Control_c, 0, 67, 97
1, 200903, Control_c, 0, 67, 102
1, 200909, Note_off_c, 0, 72, 55
1, 200918, Control_c, 0, 67, 108
1, 200932, Note_off_c, 0, 51, 56
1, 200933, Control_c, 0, 67, 114
1, 200948, Control_c, 0, 67, 120
1, 200954, Note_on_c, 0, 53, 51
1, 200963, Control_c, 0, 67, 127
1, 200966, Note_on_c, 0, 74, 61
1, 200976, Note_off_c, 0, 80, 58
1, 200978, Control_c, 0, 67, 127
1, 200981, Note_off_c, 0, 53, 59
1, 201016, Note_off_c, 0, 74, 52
1, 201096, Control_c, 0, 64, 96
1, 201111, Control_c, 0, 64, 74
1, 201126, Control_c, 0, 64, 40
1, 201132, Note_on_c, 0, 79, 65
1, 201141, Note_on_c, 0, 75, 62
1, 201141, Control_c, 0, 64, 0
1, 201185, Control_c, 0, 64, 31
1, 201200, Control_c, 0, 64, 50
1, 201215, Control_c, 0, 64, 62
1, 201229, Control_c, 0, 64, 68
1, 201244, Control_c, 0, 64, 75
1, 201259, Control_c, 0, 64, 84
1, 201273, Control_c, 0, 64, 91
1, 201288, Control_c, 0, 64, 96
1, 201303, Control_c, 0, 64, 99
1, 201309, Note_off_c, 0, 75, 56
1, 201311, Note_on_c, 0, 77, 54
1, 201318, Control_c, 0, 64, 99
1, 201324, Note_off_c, 0, 79, 56
1, 201331, Note_off_c, 0, 77, 63
1, 201407, Control_c, 0, 64, 99
1, 201422, Control_c, 0, 64, 98
1, 201437, Control_c, 0, 64, 98
1, 201452, Control_c, 0, 64, 97
1, 201466, Control_c, 0, 64, 95
1, 201481, Control_c, 0, 64, 93
1, 201483, Note_on_c, 0, 77, 39
1, 201496, Control_c, 0, 64, 91
1, 201503, Note_on_c, 0, 74, 22
1, 201512, Control_c, 0, 64, 89
1, 201526, Control_c, 0, 64, 87
1, 201541, Control_c, 0, 64, 86
1, 201556, Control_c, 0, 64, 83
1, 201571, Control_c, 0, 64, 79
1, 201586, Control_c, 0, 64, 74
1, 201601, Control_c, 0, 64, 70
1, 201616, Control_c, 0, 64, 67
1, 201631, Control_c, 0, 64, 64
1, 201652, Control_c, 0, 64, 61
1, 201667, Control_c, 0, 64, 52
1, 201682, Note_on_c, 0, 75, 43
1, 201682, Note_off_c, 0, 74, 46
1, 201682, Control_c, 0, 64, 35
1, 201687, Note_on_c, 0, 67, 34
1, 201696, Control_c, 0, 64, 0
1, 201741, Note_off_c, 0, 77, 35
1, 201869, Note_on_c, 0, 72, 37
1, 201902, Note_off_c, 0, 67, 34
1, 201919, Control_c, 0, 64, 31
1, 201934, Control_c, 0, 64, 46
1, 201949, Control_c, 0, 64, 52
1, 201964, Control_c, 0, 64, 55
1, 201978, Control_c, 0, 64, 57
1, 201993, Control_c, 0, 64, 59
1, 202008, Control_c, 0, 64, 60
1, 202022, Control_c, 0, 64, 61
1, 202027, Note_on_c, 0, 70, 45
1, 202033, Note_off_c, 0, 72, 43
1, 202037, Control_c, 0, 64, 62
1, 202052, Control_c, 0, 64, 63
1, 202067, Control_c, 0, 64, 63
1, 202082, Control_c, 0, 64, 64
1, 202096, Control_c, 0, 64, 65
1, 202111, Control_c, 0, 64, 66
1, 202126, Control_c, 0, 64, 68
1, 202141, Control_c, 0, 64, 70
1, 202156, Control_c, 0, 64, 72
1, 202170, Control_c, 0, 64, 75
1, 202185, Control_c, 0, 64, 77
1, 202200, Control_c, 0, 64, 79
1, 202213, Note_on_c, 0, 68, 43
1, 202215, Control_c, 0, 64, 81
1, 202216, Note_off_c, 0, 70, 36
1, 202217, Note_on_c, 0, 77, 45
1, 202222, Note_off_c, 0, 75, 58
1, 202230, Control_c, 0, 64, 84
1, 202245, Control_c, 0, 64, 88
1, 202260, Control_c, 0, 64, 91
1, 202275, Control_c, 0, 64, 93
1, 202289, Control_c, 0, 64, 96
1, 202300, Note_off_c, 0, 68, 58
1, 202304, Control_c, 0, 64, 98
1, 202319, Control_c, 0, 64, 101
1, 202334, Control_c, 0, 64, 104
1, 202349, Control_c, 0, 64, 107
1, 202364, Control_c, 0, 64, 110
1, 202379, Control_c, 0, 64, 113
1, 202401, Control_c, 0, 64, 116
1, 202407, Note_on_c, 0, 67, 44
1, 202416, Control_c, 0, 64, 122
1, 202431, Control_c, 0, 64, 127
1, 202465, Note_off_c, 0, 67, 57
1, 202490, Control_c, 0, 67, 123
1, 202505, Control_c, 0, 67, 119
1, 202519, Control_c, 0, 67, 113
1, 202534, Control_c, 0, 67, 106
1, 202549, Control_c, 0, 67, 99
1, 202564, Control_c, 0, 67, 89
1, 202579, Control_c, 0, 67, 79
1, 202594, Control_c, 0, 67, 69
1, 202609, Control_c, 0, 67, 60
1, 202623, Control_c, 0, 67, 52
1, 202625, Note_on_c, 0, 65, 50
1, 202625, Note_on_c, 0, 74, 51
1, 202632, Note_off_c, 0, 77, 58
1, 202638, Control_c, 0, 67, 47
1, 202653, Control_c, 0, 67, 43
1, 202653, Note_off_c, 0, 65, 62
1, 202668, Control_c, 0, 67, 39
1, 202683, Control_c, 0, 67, 36
1, 202698, Control_c, 0, 67, 32
1, 202712, Control_c, 0, 67, 28
1, 202727, Control_c, 0, 67, 25
1, 202742, Control_c, 0, 67, 23
1, 202757, Control_c, 0, 67, 22
1, 202772, Control_c, 0, 67, 21
1, 202786, Control_c, 0, 67, 20
1, 202801, Control_c, 0, 67, 18
1, 202816, Control_c, 0, 67, 16
1, 202831, Control_c, 0, 67, 14
1, 202845, Control_c, 0, 67, 13
1, 202860, Control_c, 0, 67, 13
1, 202875, Control_c, 0, 67, 12
1, 202890, Control_c, 0, 67, 12
1, 202905, Control_c, 0, 67, 11
1, 202919, Control_c, 0, 67, 10
1, 202934, Control_c, 0, 67, 9
1, 202949, Control_c, 0, 67, 8
1, 202964, Control_c, 0, 67, 0
1, 202985, Note_off_c, 0, 74, 65
1, 202989, Note_on_c, 0, 43, 105
1, 202991, Note_on_c, 0, 75, 84
1, 202994, Note_on_c, 0, 31, 93
1, 202999, Note_on_c, 0, 67, 84
1, 203053, Control_c, 0, 64, 95
1, 203068, Control_c, 0, 64, 70
1, 203083, Control_c, 0, 64, 28
1, 203098, Control_c, 0, 64, 0
1, 203151, Control_c, 0, 64, 38
1, 203166, Control_c, 0, 64, 56
1, 203181, Control_c, 0, 64, 66
1, 203196, Control_c, 0, 64, 75
1, 203211, Control_c, 0, 64, 93
1, 203225, Control_c, 0, 64, 115
1, 203240, Control_c, 0, 64, 127
1, 203358, Note_on_c, 0, 71, 64
1, 203495, Note_off_c, 0, 75, 53
1, 203516, Note_on_c, 0, 72, 71
1, 203547, Note_off_c, 0, 71, 61
1, 203690, Note_on_c, 0, 74, 72
1, 203694, Note_off_c, 0, 72, 60
1, 203729, Control_c, 0, 64, 92
1, 203743, Control_c, 0, 64, 71
1, 203757, Control_c, 0, 64, 49
1, 203772, Control_c, 0, 64, 20
1, 203786, Control_c, 0, 64, 36
1, 203801, Control_c, 0, 64, 50
1, 203816, Control_c, 0, 64, 57
1, 203831, Control_c, 0, 64, 62
1, 203846, Control_c, 0, 64, 67
1, 203861, Control_c, 0, 64, 76
1, 203861, Note_on_c, 0, 69, 58
1, 203875, Control_c, 0, 64, 87
1, 203898, Control_c, 0, 64, 99
1, 203913, Control_c, 0, 64, 111
1, 203926, Note_off_c, 0, 31, 55
1, 203929, Control_c, 0, 64, 127
1, 203963, Note_off_c, 0, 43, 59
1, 204010, Note_off_c, 0, 67, 52
1, 204016, Note_off_c, 0, 74, 62
1, 204041, Note_on_c, 0, 71, 66
1, 204106, Note_off_c, 0, 69, 0
1, 204144, Poly_aftertouch_c, 0, 69, 127
1, 204162, Note_on_c, 0, 69, 3
1, 204245, Note_on_c, 0, 48, 99
1, 204247, Note_off_c, 0, 71, 59
1, 204248, Note_on_c, 0, 63, 76
1, 204251, Note_on_c, 0, 36, 83
1, 204254, Control_c, 0, 64, 81
1, 204269, Note_off_c, 0, 69, 47
1, 204269, Control_c, 0, 64, 59
1, 204284, Control_c, 0, 64, 0
1, 204299, Control_c, 0, 64, 20
1, 204314, Control_c, 0, 64, 50
1, 204329, Control_c, 0, 64, 60
1, 204343, Control_c, 0, 64, 66
1, 204358, Control_c, 0, 64, 73
1, 204373, Control_c, 0, 64, 84
1, 204388, Control_c, 0, 64, 98
1, 204403, Control_c, 0, 64, 120
1, 204417, Control_c, 0, 64, 127
1, 204472, Note_on_c, 0, 75, 67
1, 204483, Note_off_c, 0, 48, 58
1, 204493, Note_off_c, 0, 36, 52
1, 204627, Note_on_c, 0, 72, 72
1, 204639, Note_off_c, 0, 63, 61
1, 204794, Note_off_c, 0, 75, 29
1, 204800, Note_off_c, 0, 72, 62
1, 204810, Control_c, 0, 64, 115
1, 204812, Note_on_c, 0, 45, 95
1, 204820, Note_on_c, 0, 33, 81
1, 204821, Note_on_c, 0, 65, 77
1, 204825, Control_c, 0, 64, 75
1, 204839, Control_c, 0, 64, 49
1, 204854, Control_c, 0, 64, 0
1, 204869, Control_c, 0, 64, 42
1, 204884, Control_c, 0, 64, 59
1, 204899, Control_c, 0, 64, 66
1, 204913, Control_c, 0, 64, 75
1, 204928, Control_c, 0, 64, 89
1, 204943, Control_c, 0, 64, 113
1, 204958, Control_c, 0, 64, 127
1, 204982, Note_off_c, 0, 33, 56
1, 204995, Note_on_c, 0, 74, 73
1, 204995, Note_off_c, 0, 45, 61
1, 205163, Note_on_c, 0, 75, 75
1, 205241, Note_off_c, 0, 74, 51
1, 205343, Control_c, 0, 64, 101
1, 205346, Note_on_c, 0, 50, 101
1, 205354, Note_on_c, 0, 38, 86
1, 205358, Control_c, 0, 64, 72
1, 205373, Control_c, 0, 64, 33
1, 205395, Control_c, 0, 64, 0
1, 205425, Control_c, 0, 64, 33
1, 205439, Control_c, 0, 64, 54
1, 205454, Control_c, 0, 64, 63
1, 205469, Control_c, 0, 64, 71
1, 205484, Control_c, 0, 64, 82
1, 205499, Control_c, 0, 64, 103
1, 205515, Control_c, 0, 64, 127
1, 205538, Note_on_c, 0, 77, 75
1, 205551, Note_off_c, 0, 75, 57
1, 205634, Note_off_c, 0, 50, 39
1, 205691, Note_off_c, 0, 38, 58
1, 205704, Note_on_c, 0, 75, 76
1, 205705, Note_off_c, 0, 65, 59
1, 205870, Note_on_c, 0, 74, 82
1, 205870, Control_c, 0, 64, 79
1, 205871, Note_off_c, 0, 77, 42
1, 205873, Note_on_c, 0, 47, 89
1, 205875, Note_on_c, 0, 67, 78
1, 205881, Note_on_c, 0, 35, 75
1, 205885, Control_c, 0, 64, 57
1, 205899, Control_c, 0, 64, 41
1, 205903, Note_off_c, 0, 75, 57
1, 205914, Control_c, 0, 64, 58
1, 205929, Control_c, 0, 64, 66
1, 205944, Control_c, 0, 64, 74
1, 205959, Control_c, 0, 64, 92
1, 205974, Control_c, 0, 64, 127
1, 206017, Note_off_c, 0, 35, 63
1, 206022, Note_off_c, 0, 47, 61
1, 206046, Note_on_c, 0, 75, 82
1, 206155, Note_off_c, 0, 74, 52
1, 206221, Note_on_c, 0, 77, 80
1, 206249, Note_off_c, 0, 75, 60
1, 206382, Control_c, 0, 64, 97
1, 206397, Control_c, 0, 64, 65
1, 206412, Control_c, 0, 64, 0
1, 206412, Note_on_c, 0, 51, 91
1, 206412, Note_on_c, 0, 79, 80
1, 206419, Note_on_c, 0, 39, 78
1, 206427, Control_c, 0, 64, 33
1, 206440, Note_off_c, 0, 77, 57
1, 206441, Control_c, 0, 64, 62
1, 206456, Control_c, 0, 64, 71
1, 206471, Control_c, 0, 64, 84
1, 206472, Note_off_c, 0, 79, 63
1, 206485, Control_c, 0, 64, 112
1, 206500, Control_c, 0, 64, 127
1, 206621, Note_on_c, 0, 68, 71
1, 206635, Note_off_c, 0, 67, 41
1, 206639, Note_off_c, 0, 51, 60
1, 206665, Note_off_c, 0, 39, 56
1, 206756, Note_off_c, 0, 68, 63
1, 206771, Note_on_c, 0, 65, 72
1, 206937, Control_c, 0, 64, 90
1, 206944, Note_on_c, 0, 48, 88
1, 206947, Note_on_c, 0, 63, 79
1, 206948, Note_off_c, 0, 65, 61
1, 206952, Control_c, 0, 64, 63
1, 206953, Note_on_c, 0, 36, 72
1, 206967, Control_c, 0, 64, 35
1, 206982, Control_c, 0, 64, 47
1, 206996, Control_c, 0, 64, 57
1, 207011, Control_c, 0, 64, 62
1, 207026, Control_c, 0, 64, 68
1, 207041, Control_c, 0, 64, 80
1, 207056, Control_c, 0, 64, 103
1, 207071, Control_c, 0, 64, 127
1, 207117, Note_on_c, 0, 65, 82
1, 207119, Note_off_c, 0, 36, 59
1, 207131, Note_off_c, 0, 48, 57
1, 207161, Note_off_c, 0, 63, 57
1, 207277, Note_off_c, 0, 65, 61
1, 207286, Note_on_c, 0, 67, 85
1, 207426, Control_c, 0, 64, 111
1, 207441, Control_c, 0, 64, 74
1, 207443, Note_on_c, 0, 53, 95
1, 207447, Note_on_c, 0, 41, 84
1, 207456, Control_c, 0, 64, 28
1, 207471, Control_c, 0, 64, 0
1, 207486, Control_c, 0, 64, 25
1, 207501, Control_c, 0, 64, 54
1, 207515, Control_c, 0, 64, 64
1, 207530, Control_c, 0, 64, 72
1, 207545, Control_c, 0, 64, 85
1, 207560, Control_c, 0, 64, 109
1, 207575, Control_c, 0, 64, 127
1, 207640, Note_on_c, 0, 68, 78
1, 207654, Note_off_c, 0, 53, 58
1, 207670, Note_off_c, 0, 67, 60
1, 207703, Note_off_c, 0, 41, 60
1, 207811, Note_on_c, 0, 67, 84
1, 207855, Note_off_c, 0, 68, 58
1, 207968, Control_c, 0, 64, 108
1, 207983, Control_c, 0, 64, 77
1, 207986, Note_on_c, 0, 50, 93
1, 207994, Note_on_c, 0, 38, 79
1, 207997, Note_on_c, 0, 65, 82
1, 207998, Control_c, 0, 64, 60
1, 208013, Control_c, 0, 64, 56
1, 208028, Control_c, 0, 64, 63
1, 208031, Note_off_c, 0, 67, 54
1, 208043, Control_c, 0, 64, 69
1, 208057, Control_c, 0, 64, 79
1, 208072, Control_c, 0, 64, 93
1, 208087, Control_c, 0, 64, 127
1, 208093, Note_off_c, 0, 38, 61
1, 208095, Note_off_c, 0, 50, 65
1, 208170, Note_on_c, 0, 67, 76
1, 208172, Note_off_c, 0, 65, 61
1, 208287, Note_off_c, 0, 67, 54
1, 208318, Note_on_c, 0, 68, 78
1, 208341, Note_off_c, 0, 68, 71
1, 208509, Control_c, 0, 64, 95
1, 208520, Note_on_c, 0, 55, 97
1, 208524, Control_c, 0, 64, 66
1, 208526, Note_on_c, 0, 80, 82
1, 208527, Note_on_c, 0, 70, 83
1, 208527, Note_on_c, 0, 43, 84
1, 208538, Control_c, 0, 64, 0
1, 208568, Control_c, 0, 64, 25
1, 208582, Control_c, 0, 64, 53
1, 208597, Control_c, 0, 64, 63
1, 208612, Control_c, 0, 64, 71
1, 208627, Control_c, 0, 64, 87
1, 208642, Control_c, 0, 64, 112
1, 208657, Control_c, 0, 64, 127
1, 208678, Note_off_c, 0, 55, 59
1, 208698, Note_off_c, 0, 43, 61
1, 208713, Note_on_c, 0, 82, 88
1, 208850, Note_off_c, 0, 80, 0
1, 208869, Note_on_c, 0, 79, 83
1, 208871, Note_off_c, 0, 70, 63
1, 208886, Poly_aftertouch_c, 0, 80, 127
1, 208898, Note_off_c, 0, 82, 61
1, 209020, Poly_aftertouch_c, 0, 80, 0
1, 209029, Control_c, 0, 64, 96
1, 209032, Note_off_c, 0, 79, 58
1, 209040, Note_on_c, 0, 52, 97
1, 209043, Note_on_c, 0, 72, 82
1, 209044, Note_on_c, 0, 40, 85
1, 209044, Control_c, 0, 64, 67
1, 209059, Control_c, 0, 64, 0
1, 209088, Control_c, 0, 64, 50
1, 209103, Control_c, 0, 64, 63
1, 209118, Control_c, 0, 64, 70
1, 209140, Control_c, 0, 64, 81
1, 209155, Control_c, 0, 64, 97
1, 209170, Control_c, 0, 64, 127
1, 209208, Note_off_c, 0, 52, 60
1, 209212, Note_on_c, 0, 81, 81
1, 209213, Note_off_c, 0, 40, 58
1, 209378, Note_on_c, 0, 82, 85
1, 209396, Note_off_c, 0, 81, 59
1, 209541, Control_c, 0, 64, 92
1, 209556, Control_c, 0, 64, 66
1, 209568, Note_on_c, 0, 57, 96
1, 209571, Control_c, 0, 64, 12
1, 209573, Note_on_c, 0, 45, 86
1, 209585, Control_c, 0, 64, 40
1, 209600, Control_c, 0, 64, 59
1, 209615, Control_c, 0, 64, 65
1, 209629, Control_c, 0, 64, 71
1, 209644, Control_c, 0, 64, 79
1, 209659, Control_c, 0, 64, 91
1, 209674, Control_c, 0, 64, 108
1, 209689, Control_c, 0, 64, 127
1, 209712, Note_off_c, 0, 45, 58
1, 209713, Note_off_c, 0, 57, 58
1, 209739, Note_on_c, 0, 84, 77
1, 209757, Note_off_c, 0, 82, 59
1, 209907, Note_off_c, 0, 72, 58
1, 209910, Note_on_c, 0, 55, 88
1, 209915, Note_on_c, 0, 43, 83
1, 209918, Note_on_c, 0, 82, 85
1, 209951, Note_off_c, 0, 43, 65
1, 209953, Note_off_c, 0, 55, 58
1, 209955, Note_off_c, 0, 84, 62
1, 210082, Control_c, 0, 64, 82
1, 210097, Control_c, 0, 64, 48
1, 210111, Control_c, 0, 64, 0
1, 210120, Note_on_c, 0, 81, 83
1, 210123, Note_on_c, 0, 75, 91
1, 210132, Note_on_c, 0, 53, 88
1, 210133, Note_on_c, 0, 41, 85
1, 210141, Control_c, 0, 64, 20
1, 210155, Control_c, 0, 64, 57
1, 210166, Note_off_c, 0, 82, 46
1, 210170, Control_c, 0, 64, 65
1, 210185, Control_c, 0, 64, 72
1, 210186, Note_off_c, 0, 53, 65
1, 210189, Note_off_c, 0, 41, 61
1, 210200, Control_c, 0, 64, 84
1, 210215, Control_c, 0, 64, 100
1, 210229, Control_c, 0, 64, 122
1, 210244, Control_c, 0, 64, 127
1, 210322, Note_on_c, 0, 55, 85
1, 210324, Note_on_c, 0, 82, 84
1, 210326, Note_on_c, 0, 43, 90
1, 210360, Note_off_c, 0, 43, 65
1, 210368, Note_off_c, 0, 55, 59
1, 210502, Note_on_c, 0, 84, 83
1, 210506, Note_on_c, 0, 57, 94
1, 210511, Note_on_c, 0, 45, 77
1, 210518, Note_off_c, 0, 81, 59
1, 210527, Note_off_c, 0, 57, 70
1, 210534, Note_off_c, 0, 45, 66
1, 210556, Note_off_c, 0, 82, 50
1, 210740, Control_c, 0, 64, 100
1, 210755, Control_c, 0, 64, 69
1, 210770, Control_c, 0, 64, 0
1, 210775, Note_on_c, 0, 85, 93
1, 210776, Note_off_c, 0, 75, 59
1, 210779, Note_on_c, 0, 58, 93
1, 210781, Note_on_c, 0, 46, 89
1, 210830, Control_c, 0, 64, 35
1, 210845, Control_c, 0, 64, 56
1, 210859, Control_c, 0, 64, 66
1, 210874, Control_c, 0, 64, 77
1, 210889, Control_c, 0, 64, 93
1, 210904, Control_c, 0, 64, 115
1, 210919, Control_c, 0, 64, 127
1, 211020, Note_off_c, 0, 85, 62
1, 211023, Note_off_c, 0, 84, 44
1, 211024, Note_on_c, 0, 73, 92
1, 211214, Note_on_c, 0, 70, 85
1, 211235, Note_off_c, 0, 46, 59
1, 211241, Note_off_c, 0, 58, 61
1, 211250, Note_off_c, 0, 73, 62
1, 211363, Control_c, 0, 64, 103
1, 211386, Control_c, 0, 64, 71
1, 211396, Note_on_c, 0, 77, 76
1, 211400, Note_on_c, 0, 60, 89
1, 211401, Control_c, 0, 64, 36
1, 211408, Note_on_c, 0, 48, 76
1, 211415, Control_c, 0, 64, 0
1, 211430, Control_c, 0, 64, 16
1, 211445, Control_c, 0, 64, 51
1, 211460, Control_c, 0, 64, 62
1, 211475, Control_c, 0, 64, 69
1, 211489, Control_c, 0, 64, 77
1, 211504, Control_c, 0, 64, 88
1, 211519, Control_c, 0, 64, 99
1, 211534, Control_c, 0, 64, 111
1, 211549, Control_c, 0, 64, 127
1, 211564, Note_on_c, 0, 69, 85
1, 211581, Note_off_c, 0, 70, 53
1, 211614, Note_off_c, 0, 48, 54
1, 211703, Note_off_c, 0, 60, 60
1, 211717, Note_off_c, 0, 77, 55
1, 211741, Note_on_c, 0, 72, 80
1, 211874, Control_c, 0, 64, 110
1, 211889, Control_c, 0, 64, 77
1, 211905, Control_c, 0, 64, 48
1, 211906, Note_on_c, 0, 61, 90
1, 211912, Note_on_c, 0, 49, 78
1, 211920, Control_c, 0, 64, 0
1, 211979, Control_c, 0, 67, 9
1, 211995, Control_c, 0, 64, 42
1, 211995, Control_c, 0, 67, 11
1, 212010, Control_c, 0, 64, 63
1, 212010, Control_c, 0, 67, 14
1, 212024, Control_c, 0, 64, 74
1, 212024, Control_c, 0, 67, 21
1, 212039, Control_c, 0, 64, 92
1, 212039, Control_c, 0, 67, 31
1, 212054, Control_c, 0, 64, 127
1, 212054, Control_c, 0, 67, 41
1, 212067, Note_on_c, 0, 70, 80
1, 212069, Control_c, 0, 67, 50
1, 212084, Control_c, 0, 67, 60
1, 212097, Note_off_c, 0, 72, 56
1, 212098, Control_c, 0, 67, 70
1, 212106, Note_off_c, 0, 49, 59
1, 212113, Control_c, 0, 67, 81
1, 212136, Control_c, 0, 67, 93
1, 212150, Control_c, 0, 67, 103
1, 212165, Control_c, 0, 67, 111
1, 212180, Control_c, 0, 67, 119
1, 212189, Note_off_c, 0, 61, 54
1, 212195, Control_c, 0, 67, 127
1, 212250, Note_on_c, 0, 73, 69
1, 212250, Note_off_c, 0, 69, 62
1, 212289, Note_off_c, 0, 70, 62
1, 212387, Control_c, 0, 64, 110
1, 212391, Note_off_c, 0, 73, 58
1, 212402, Control_c, 0, 64, 90
1, 212417, Control_c, 0, 64, 74
1, 212431, Control_c, 0, 64, 58
1, 212446, Control_c, 0, 64, 0
1, 212457, Note_on_c, 0, 60, 48
1, 212457, Note_on_c, 0, 69, 41
1, 212463, Note_on_c, 0, 65, 38
1, 212610, Note_off_c, 0, 60, 59
1, 212623, Note_on_c, 0, 61, 46
1, 212771, Note_off_c, 0, 61, 53
1, 212781, Note_off_c, 0, 69, 59
1, 212791, Note_on_c, 0, 72, 49
1, 212795, Note_on_c, 0, 63, 39
1, 212979, Note_on_c, 0, 70, 52
1, 212990, Note_off_c, 0, 72, 47
1, 213143, Note_off_c, 0, 63, 51
1, 213148, Note_on_c, 0, 61, 43
1, 213171, Note_off_c, 0, 70, 37
1, 213313, Note_on_c, 0, 73, 48
1, 213321, Note_on_c, 0, 58, 48
1, 213380, Note_off_c, 0, 61, 36
1, 213489, Note_on_c, 0, 72, 51
1, 213541, Note_off_c, 0, 73, 37
1, 213657, Note_on_c, 0, 57, 54
1, 213718, Note_off_c, 0, 58, 32
1, 213729, Note_off_c, 0, 72, 35
1, 213805, Note_off_c, 0, 57, 57
1, 213833, Note_on_c, 0, 60, 45
1, 213844, Note_on_c, 0, 75, 44
1, 214016, Note_on_c, 0, 73, 53
1, 214046, Note_off_c, 0, 75, 34
1, 214048, Control_c, 0, 64, 34
1, 214063, Control_c, 0, 64, 51
1, 214077, Control_c, 0, 64, 58
1, 214092, Control_c, 0, 64, 62
1, 214107, Control_c, 0, 64, 64
1, 214122, Control_c, 0, 64, 67
1, 214126, Note_off_c, 0, 65, 42
1, 214137, Control_c, 0, 64, 72
1, 214140, Note_off_c, 0, 60, 60
1, 214151, Control_c, 0, 64, 77
1, 214166, Control_c, 0, 64, 82
1, 214167, Note_on_c, 0, 58, 51
1, 214181, Control_c, 0, 64, 87
1, 214181, Control_c, 0, 67, 124
1, 214195, Control_c, 0, 64, 91
1, 214195, Control_c, 0, 67, 118
1, 214210, Control_c, 0, 64, 95
1, 214210, Control_c, 0, 67, 111
1, 214225, Control_c, 0, 64, 99
1, 214225, Control_c, 0, 67, 100
1, 214240, Control_c, 0, 64, 103
1, 214240, Control_c, 0, 67, 88
1, 214255, Control_c, 0, 64, 107
1, 214255, Control_c, 0, 67, 74
1, 214269, Control_c, 0, 64, 110
1, 214269, Control_c, 0, 67, 60
1, 214284, Control_c, 0, 64, 112
1, 214284, Control_c, 0, 67, 48
1, 214300, Control_c, 0, 64, 113
1, 214300, Control_c, 0, 67, 39
1, 214315, Control_c, 0, 64, 115
1, 214315, Control_c, 0, 67, 30
1, 214329, Control_c, 0, 64, 123
1, 214329, Control_c, 0, 67, 24
1, 214341, Note_on_c, 0, 77, 48
1, 214344, Control_c, 0, 64, 127
1, 214344, Control_c, 0, 67, 18
1, 214346, Note_off_c, 0, 73, 62
1, 214353, Note_on_c, 0, 61, 47
1, 214353, Note_off_c, 0, 58, 48
1, 214359, Control_c, 0, 67, 14
1, 214372, Note_off_c, 0, 77, 60
1, 214381, Control_c, 0, 67, 9
1, 214396, Control_c, 0, 67, 0
1, 214400, Note_off_c, 0, 61, 55
1, 214548, Note_on_c, 0, 55, 71
1, 214550, Note_on_c, 0, 75, 79
1, 214558, Note_on_c, 0, 70, 70
1, 214589, Control_c, 0, 64, 122
1, 214604, Control_c, 0, 64, 111
1, 214618, Control_c, 0, 64, 103
1, 214633, Control_c, 0, 64, 99
1, 214648, Control_c, 0, 64, 96
1, 214663, Control_c, 0, 64, 93
1, 214678, Control_c, 0, 64, 89
1, 214692, Control_c, 0, 64, 86
1, 214707, Note_off_c, 0, 70, 62
1, 214707, Control_c, 0, 64, 82
1, 214722, Control_c, 0, 64, 80
1, 214725, Note_on_c, 0, 72, 71
1, 214736, Note_on_c, 0, 56, 67
1, 214737, Control_c, 0, 64, 77
1, 214751, Control_c, 0, 64, 75
1, 214766, Control_c, 0, 64, 72
1, 214771, Note_off_c, 0, 55, 46
1, 214781, Control_c, 0, 64, 70
1, 214796, Control_c, 0, 64, 68
1, 214811, Control_c, 0, 64, 67
1, 214825, Control_c, 0, 64, 67
1, 214840, Control_c, 0, 64, 66
1, 214855, Control_c, 0, 64, 65
1, 214870, Control_c, 0, 64, 63
1, 214885, Control_c, 0, 64, 62
1, 214894, Note_on_c, 0, 58, 73
1, 214895, Note_on_c, 0, 73, 68
1, 214899, Control_c, 0, 64, 62
1, 214910, Note_off_c, 0, 72, 55
1, 214919, Note_off_c, 0, 56, 56
1, 214929, Control_c, 0, 64, 61
1, 214944, Control_c, 0, 64, 61
1, 214958, Control_c, 0, 64, 60
1, 214973, Control_c, 0, 64, 59
1, 214988, Control_c, 0, 64, 59
1, 215033, Control_c, 0, 64, 58
1, 215048, Control_c, 0, 64, 58
1, 215063, Control_c, 0, 64, 57
1, 215073, Note_on_c, 0, 72, 61
1, 215142, Note_off_c, 0, 73, 51
1, 215145, Control_c, 0, 64, 57
1, 215175, Control_c, 0, 64, 56
1, 215190, Control_c, 0, 64, 56
1, 215204, Control_c, 0, 64, 55
1, 215219, Control_c, 0, 64, 55
1, 215236, Note_on_c, 0, 56, 73
1, 215248, Control_c, 0, 64, 54
1, 215268, Note_off_c, 0, 58, 60
1, 215322, Control_c, 0, 64, 54
1, 215337, Control_c, 0, 64, 53
1, 215403, Note_off_c, 0, 56, 61
1, 215410, Note_on_c, 0, 68, 62
1, 215412, Note_on_c, 0, 60, 71
1, 215492, Note_off_c, 0, 72, 56
1, 215590, Note_on_c, 0, 67, 71
1, 215619, Control_c, 0, 64, 54
1, 215623, Note_off_c, 0, 68, 58
1, 215634, Control_c, 0, 64, 54
1, 215693, Control_c, 0, 64, 55
1, 215756, Note_on_c, 0, 58, 73
1, 215764, Note_off_c, 0, 60, 63
1, 215841, Control_c, 0, 64, 54
1, 215879, Control_c, 0, 64, 53
1, 215894, Control_c, 0, 64, 52
1, 215909, Control_c, 0, 64, 51
1, 215920, Note_off_c, 0, 58, 58
1, 215924, Note_off_c, 0, 67, 57
1, 215924, Control_c, 0, 64, 49
1, 215932, Note_on_c, 0, 61, 74
1, 215936, Note_on_c, 0, 70, 68
1, 215939, Control_c, 0, 64, 45
1, 215954, Control_c, 0, 64, 40
1, 215969, Control_c, 0, 64, 32
1, 215984, Control_c, 0, 64, 15
1, 215998, Control_c, 0, 64, 0
1, 216043, Control_c, 0, 67, 9
1, 216058, Control_c, 0, 67, 11
1, 216072, Control_c, 0, 67, 14
1, 216087, Control_c, 0, 67, 18
1, 216102, Control_c, 0, 67, 24
1, 216110, Note_on_c, 0, 68, 64
1, 216117, Control_c, 0, 67, 32
1, 216132, Control_c, 0, 67, 39
1, 216135, Note_off_c, 0, 70, 58
1, 216146, Control_c, 0, 67, 46
1, 216161, Control_c, 0, 67, 53
1, 216176, Control_c, 0, 64, 22
1, 216176, Control_c, 0, 67, 60
1, 216190, Control_c, 0, 64, 48
1, 216190, Control_c, 0, 67, 66
1, 216205, Control_c, 0, 64, 59
1, 216205, Control_c, 0, 67, 72
1, 216220, Control_c, 0, 64, 64
1, 216220, Control_c, 0, 67, 77
1, 216235, Control_c, 0, 64, 69
1, 216235, Control_c, 0, 67, 81
1, 216250, Control_c, 0, 64, 77
1, 216250, Control_c, 0, 67, 83
1, 216265, Note_on_c, 0, 60, 69
1, 216265, Control_c, 0, 64, 86
1, 216265, Control_c, 0, 67, 84
1, 216267, Note_off_c, 0, 61, 59
1, 216279, Control_c, 0, 64, 95
1, 216279, Control_c, 0, 67, 85
1, 216294, Control_c, 0, 64, 103
1, 216309, Control_c, 0, 64, 108
1, 216324, Control_c, 0, 64, 113
1, 216339, Control_c, 0, 64, 117
1, 216354, Control_c, 0, 64, 120
1, 216368, Control_c, 0, 64, 122
1, 216383, Control_c, 0, 67, 85
1, 216398, Control_c, 0, 67, 86
1, 216413, Control_c, 0, 67, 86
1, 216419, Note_off_c, 0, 60, 59
1, 216425, Note_on_c, 0, 63, 56
1, 216428, Control_c, 0, 64, 121
1, 216428, Control_c, 0, 67, 87
1, 216434, Note_on_c, 0, 72, 55
1, 216443, Control_c, 0, 67, 89
1, 216446, Note_off_c, 0, 68, 62
1, 216458, Control_c, 0, 64, 118
1, 216458, Control_c, 0, 67, 92
1, 216464, Note_off_c, 0, 63, 63
1, 216465, Note_off_c, 0, 75, 38
1, 216472, Control_c, 0, 64, 113
1, 216472, Control_c, 0, 67, 96
1, 216484, Note_off_c, 0, 72, 53
1, 216487, Control_c, 0, 64, 107
1, 216487, Control_c, 0, 67, 99
1, 216502, Control_c, 0, 64, 101
1, 216502, Control_c, 0, 67, 103
1, 216516, Control_c, 0, 64, 93
1, 216516, Control_c, 0, 67, 108
1, 216531, Control_c, 0, 64, 86
1, 216531, Control_c, 0, 67, 112
1, 216546, Control_c, 0, 64, 79
1, 216546, Control_c, 0, 67, 116
1, 216561, Control_c, 0, 64, 70
1, 216561, Control_c, 0, 67, 121
1, 216576, Control_c, 0, 64, 61
1, 216576, Control_c, 0, 67, 125
1, 216590, Control_c, 0, 64, 41
1, 216590, Control_c, 0, 67, 127
1, 216605, Control_c, 0, 64, 0
1, 216613, Note_on_c, 0, 67, 49
1, 216625, Note_on_c, 0, 58, 51
1, 216633, Note_on_c, 0, 63, 38
1, 216774, Note_off_c, 0, 58, 57
1, 216789, Note_on_c, 0, 60, 48
1, 216920, Note_off_c, 0, 60, 59
1, 216936, Note_off_c, 0, 67, 60
1, 216946, Note_on_c, 0, 61, 53
1, 216955, Note_on_c, 0, 70, 50
1, 217137, Note_on_c, 0, 68, 53
1, 217143, Note_off_c, 0, 70, 54
1, 217305, Note_on_c, 0, 60, 48
1, 217332, Note_off_c, 0, 61, 35
1, 217450, Note_off_c, 0, 68, 59
1, 217458, Note_off_c, 0, 60, 56
1, 217474, Note_on_c, 0, 56, 49
1, 217474, Note_on_c, 0, 72, 55
1, 217636, Note_off_c, 0, 72, 60
1, 217653, Note_on_c, 0, 70, 59
1, 217687, Control_c, 0, 64, 27
1, 217702, Control_c, 0, 64, 44
1, 217716, Control_c, 0, 64, 55
1, 217731, Control_c, 0, 64, 61
1, 217746, Control_c, 0, 64, 64
1, 217761, Control_c, 0, 64, 67
1, 217775, Control_c, 0, 64, 71
1, 217790, Control_c, 0, 64, 74
1, 217805, Control_c, 0, 64, 78
1, 217808, Note_on_c, 0, 55, 56
1, 217820, Control_c, 0, 64, 82
1, 217820, Control_c, 0, 67, 125
1, 217835, Control_c, 0, 64, 87
1, 217835, Control_c, 0, 67, 121
1, 217850, Control_c, 0, 64, 91
1, 217850, Control_c, 0, 67, 117
1, 217859, Note_off_c, 0, 55, 55
1, 217865, Control_c, 0, 64, 95
1, 217865, Control_c, 0, 67, 113
1, 217872, Note_off_c, 0, 56, 28
1, 217880, Control_c, 0, 64, 98
1, 217880, Control_c, 0, 67, 108
1, 217895, Control_c, 0, 64, 101
1, 217895, Control_c, 0, 67, 103
1, 217910, Control_c, 0, 64, 105
1, 217910, Control_c, 0, 67, 96
1, 217924, Control_c, 0, 64, 108
1, 217924, Control_c, 0, 67, 90
1, 217939, Control_c, 0, 64, 111
1, 217939, Control_c, 0, 67, 83
1, 217954, Control_c, 0, 64, 113
1, 217954, Control_c, 0, 67, 77
1, 217968, Control_c, 0, 64, 115
1, 217968, Control_c, 0, 67, 70
1, 217983, Note_on_c, 0, 58, 53
1, 217983, Note_on_c, 0, 73, 59
1, 217983, Control_c, 0, 64, 119
1, 217983, Control_c, 0, 67, 64
1, 217998, Control_c, 0, 64, 127
1, 217998, Control_c, 0, 67, 57
1, 218013, Control_c, 0, 67, 51
1, 218027, Note_off_c, 0, 70, 57
1, 218028, Control_c, 0, 67, 47
1, 218037, Note_off_c, 0, 63, 56
1, 218042, Control_c, 0, 67, 44
1, 218057, Control_c, 0, 67, 42
1, 218066, Note_off_c, 0, 73, 53
1, 218072, Control_c, 0, 67, 40
1, 218087, Control_c, 0, 67, 40
1, 218102, Control_c, 0, 67, 39
1, 218156, Note_on_c, 0, 72, 68
1, 218213, Control_c, 0, 67, 41
1, 218228, Control_c, 0, 64, 117
1, 218228, Control_c, 0, 67, 41
1, 218242, Control_c, 0, 64, 103
1, 218242, Control_c, 0, 67, 42
1, 218257, Control_c, 0, 64, 90
1, 218257, Control_c, 0, 67, 43
1, 218268, Note_off_c, 0, 72, 50
1, 218272, Control_c, 0, 64, 80
1, 218272, Control_c, 0, 67, 43
1, 218288, Control_c, 0, 64, 75
1, 218288, Control_c, 0, 67, 44
1, 218303, Control_c, 0, 64, 74
1, 218303, Control_c, 0, 67, 45
1, 218309, Note_off_c, 0, 58, 40
1, 218312, Note_on_c, 0, 56, 52
1, 218318, Control_c, 0, 64, 75
1, 218318, Control_c, 0, 67, 46
1, 218323, Note_on_c, 0, 70, 53
1, 218327, Note_on_c, 0, 73, 60
1, 218333, Control_c, 0, 64, 76
1, 218333, Control_c, 0, 67, 48
1, 218347, Control_c, 0, 64, 77
1, 218347, Control_c, 0, 67, 49
1, 218362, Control_c, 0, 64, 77
1, 218362, Control_c, 0, 67, 51
1, 218364, Note_off_c, 0, 70, 64
1, 218377, Control_c, 0, 64, 78
1, 218377, Control_c, 0, 67, 55
1, 218391, Control_c, 0, 64, 79
1, 218391, Control_c, 0, 67, 60
1, 218406, Control_c, 0, 64, 80
1, 218406, Control_c, 0, 67, 66
1, 218421, Control_c, 0, 64, 81
1, 218421, Control_c, 0, 67, 73
1, 218436, Control_c, 0, 64, 82
1, 218436, Control_c, 0, 67, 81
1, 218451, Control_c, 0, 64, 82
1, 218451, Control_c, 0, 67, 89
1, 218465, Control_c, 0, 67, 96
1, 218473, Note_off_c, 0, 73, 34
1, 218480, Control_c, 0, 64, 83
1, 218480, Control_c, 0, 67, 102
1, 218493, Note_on_c, 0, 54, 56
1, 218495, Control_c, 0, 64, 83
1, 218495, Control_c, 0, 67, 107
1, 218503, Note_on_c, 0, 72, 50
1, 218503, Note_on_c, 0, 75, 55
1, 218510, Control_c, 0, 64, 84
1, 218510, Control_c, 0, 67, 112
1, 218525, Control_c, 0, 64, 85
1, 218525, Control_c, 0, 67, 116
1, 218539, Control_c, 0, 64, 85
1, 218539, Control_c, 0, 67, 118
1, 218541, Note_off_c, 0, 56, 34
1, 218554, Control_c, 0, 67, 120
1, 218569, Control_c, 0, 64, 86
1, 218569, Control_c, 0, 67, 121
1, 218586, Note_off_c, 0, 54, 47
1, 218598, Control_c, 0, 64, 86
1, 218612, Note_off_c, 0, 72, 37
1, 218613, Control_c, 0, 64, 87
1, 218628, Control_c, 0, 64, 88
1, 218643, Control_c, 0, 64, 89
1, 218658, Control_c, 0, 64, 89
1, 218684, Note_off_c, 0, 75, 49
1, 218688, Control_c, 0, 64, 88
1, 218702, Control_c, 0, 64, 80
1, 218717, Note_on_c, 0, 53, 66
1, 218717, Note_on_c, 0, 61, 62
1, 218717, Control_c, 0, 64, 70
1, 218729, Note_on_c, 0, 77, 56
1, 218731, Note_on_c, 0, 73, 52
1, 218733, Control_c, 0, 64, 57
1, 218747, Control_c, 0, 64, 39
1, 218762, Control_c, 0, 64, 39
1, 218762, Control_c, 0, 67, 121
1, 218777, Control_c, 0, 64, 49
1, 218777, Control_c, 0, 67, 120
1, 218792, Control_c, 0, 64, 59
1, 218807, Control_c, 0, 64, 63
1, 218807, Control_c, 0, 67, 120
1, 218822, Control_c, 0, 64, 67
1, 218822, Control_c, 0, 67, 119
1, 218834, Note_off_c, 0, 77, 59
1, 218837, Control_c, 0, 64, 72
1, 218837, Control_c, 0, 67, 119
1, 218852, Control_c, 0, 64, 79
1, 218852, Control_c, 0, 67, 118
1, 218873, Control_c, 0, 64, 84
1, 218873, Control_c, 0, 67, 118
1, 218888, Control_c, 0, 64, 89
1, 218888, Control_c, 0, 67, 117
1, 218903, Control_c, 0, 64, 92
1, 218903, Control_c, 0, 67, 117
1, 218907, Note_off_c, 0, 73, 56
1, 218918, Control_c, 0, 64, 95
1, 218918, Control_c, 0, 67, 116
1, 218933, Control_c, 0, 64, 97
1, 218933, Control_c, 0, 67, 115
1, 218947, Control_c, 0, 64, 101
1, 218947, Control_c, 0, 67, 114
1, 218962, Control_c, 0, 64, 106
1, 218962, Control_c, 0, 67, 113
1, 218966, Note_off_c, 0, 53, 39
1, 218977, Control_c, 0, 64, 110
1, 218977, Control_c, 0, 67, 112
1, 218982, Note_on_c, 0, 52, 56
1, 218992, Control_c, 0, 64, 113
1, 218992, Control_c, 0, 67, 111
1, 219007, Control_c, 0, 64, 114
1, 219007, Control_c, 0, 67, 109
1, 219021, Control_c, 0, 64, 114
1, 219021, Control_c, 0, 67, 107
1, 219036, Control_c, 0, 64, 115
1, 219036, Control_c, 0, 67, 104
1, 219051, Control_c, 0, 64, 116
1, 219051, Control_c, 0, 67, 100
1, 219057, Note_off_c, 0, 61, 50
1, 219066, Control_c, 0, 64, 116
1, 219066, Control_c, 0, 67, 95
1, 219081, Control_c, 0, 64, 117
1, 219081, Control_c, 0, 67, 89
1, 219096, Control_c, 0, 67, 84
1, 219111, Control_c, 0, 67, 78
1, 219126, Control_c, 0, 67, 73
1, 219141, Control_c, 0, 67, 67
1, 219147, Note_off_c, 0, 52, 53
1, 219156, Note_on_c, 0, 53, 57
1, 219156, Control_c, 0, 67, 62
1, 219170, Control_c, 0, 67, 57
1, 219185, Control_c, 0, 67, 52
1, 219200, Control_c, 0, 67, 47
1, 219215, Control_c, 0, 67, 42
1, 219230, Control_c, 0, 67, 38
1, 219245, Control_c, 0, 67, 34
1, 219260, Control_c, 0, 67, 31
1, 219275, Control_c, 0, 67, 28
1, 219289, Control_c, 0, 67, 26
1, 219303, Note_off_c, 0, 53, 55
1, 219304, Control_c, 0, 67, 24
1, 219319, Control_c, 0, 64, 116
1, 219319, Control_c, 0, 67, 23
1, 219334, Control_c, 0, 64, 113
1, 219334, Control_c, 0, 67, 22
1, 219338, Note_on_c, 0, 66, 69
1, 219349, Control_c, 0, 64, 108
1, 219349, Control_c, 0, 67, 21
1, 219355, Note_on_c, 0, 51, 49
1, 219363, Control_c, 0, 64, 102
1, 219363, Control_c, 0, 67, 20
1, 219378, Control_c, 0, 64, 96
1, 219378, Control_c, 0, 67, 19
1, 219393, Control_c, 0, 64, 90
1, 219393, Control_c, 0, 67, 19
1, 219407, Control_c, 0, 64, 84
1, 219407, Control_c, 0, 67, 17
1, 219422, Control_c, 0, 64, 79
1, 219422, Control_c, 0, 67, 16
1, 219437, Control_c, 0, 64, 74
1, 219437, Control_c, 0, 67, 15
1, 219452, Control_c, 0, 64, 69
1, 219452, Control_c, 0, 67, 14
1, 219467, Control_c, 0, 64, 62
1, 219467, Control_c, 0, 67, 12
1, 219481, Control_c, 0, 64, 56
1, 219481, Control_c, 0, 67, 11
1, 219491, Note_off_c, 0, 51, 54
1, 219496, Control_c, 0, 64, 52
1, 219496, Control_c, 0, 67, 10
1, 219511, Control_c, 0, 64, 49
1, 219511, Control_c, 0, 67, 8
1, 219526, Control_c, 0, 64, 48
1, 219526, Control_c, 0, 67, 0
1, 219532, Note_on_c, 0, 53, 41
1, 219540, Control_c, 0, 64, 47
1, 219570, Control_c, 0, 64, 48
1, 219585, Control_c, 0, 64, 50
1, 219600, Control_c, 0, 64, 51
1, 219622, Control_c, 0, 64, 53
1, 219637, Control_c, 0, 64, 55
1, 219652, Control_c, 0, 64, 58
1, 219665, Note_off_c, 0, 53, 53
1, 219667, Control_c, 0, 64, 60
1, 219682, Control_c, 0, 64, 62
1, 219696, Control_c, 0, 64, 64
1, 219702, Note_on_c, 0, 49, 41
1, 219706, Note_on_c, 0, 58, 49
1, 219711, Control_c, 0, 64, 66
1, 219726, Control_c, 0, 64, 67
1, 219740, Control_c, 0, 64, 69
1, 219755, Control_c, 0, 64, 71
1, 219770, Control_c, 0, 64, 73
1, 219785, Control_c, 0, 64, 75
1, 219800, Control_c, 0, 64, 77
1, 219814, Control_c, 0, 64, 79
1, 219829, Control_c, 0, 64, 80
1, 219844, Control_c, 0, 64, 80
1, 219859, Control_c, 0, 64, 81
1, 219881, Note_on_c, 0, 63, 70
1, 219882, Note_off_c, 0, 58, 54
1, 219963, Control_c, 0, 64, 80
1, 219978, Control_c, 0, 64, 80
1, 219993, Control_c, 0, 64, 78
1, 220008, Control_c, 0, 64, 77
1, 220023, Control_c, 0, 64, 75
1, 220038, Control_c, 0, 64, 73
1, 220050, Note_on_c, 0, 48, 41
1, 220053, Control_c, 0, 64, 72
1, 220056, Note_on_c, 0, 56, 62
1, 220066, Note_off_c, 0, 66, 38
1, 220068, Control_c, 0, 64, 71
1, 220081, Note_off_c, 0, 49, 0
1, 220083, Control_c, 0, 64, 71
1, 220098, Control_c, 0, 64, 70
1, 220112, Control_c, 0, 64, 69
1, 220127, Control_c, 0, 64, 68
1, 220142, Control_c, 0, 64, 68
1, 220156, Control_c, 0, 64, 67
1, 220186, Control_c, 0, 64, 66
1, 220189, Poly_aftertouch_c, 0, 49, 0
1, 220192, Note_off_c, 0, 56, 61
1, 220201, Control_c, 0, 64, 66
1, 220216, Control_c, 0, 64, 65
1, 220228, Note_on_c, 0, 54, 57
1, 220228, Note_on_c, 0, 60, 63
1, 220230, Control_c, 0, 64, 64
1, 220245, Control_c, 0, 64, 64
1, 220250, Note_off_c, 0, 48, 39
1, 220260, Control_c, 0, 64, 63
1, 220275, Control_c, 0, 64, 63
1, 220290, Control_c, 0, 64, 62
1, 220304, Control_c, 0, 64, 61
1, 220319, Control_c, 0, 64, 60
1, 220334, Control_c, 0, 64, 60
1, 220349, Control_c, 0, 64, 59
1, 220371, Control_c, 0, 64, 59
1, 220386, Control_c, 0, 64, 58
1, 220401, Control_c, 0, 64, 57
1, 220409, Note_on_c, 0, 68, 73
1, 220416, Control_c, 0, 64, 56
1, 220416, Control_c, 0, 67, 8
1, 220431, Control_c, 0, 64, 56
1, 220431, Control_c, 0, 67, 8
1, 220440, Note_off_c, 0, 63, 55
1, 220445, Control_c, 0, 64, 55
1, 220445, Control_c, 0, 67, 9
1, 220460, Control_c, 0, 64, 54
1, 220460, Control_c, 0, 67, 9
1, 220475, Control_c, 0, 64, 53
1, 220475, Control_c, 0, 67, 10
1, 220490, Control_c, 0, 64, 52
1, 220490, Control_c, 0, 67, 12
1, 220505, Control_c, 0, 64, 51
1, 220505, Control_c, 0, 67, 14
1, 220519, Control_c, 0, 64, 50
1, 220519, Control_c, 0, 67, 16
1, 220534, Control_c, 0, 64, 48
1, 220534, Control_c, 0, 67, 17
1, 220549, Control_c, 0, 64, 47
1, 220549, Control_c, 0, 67, 18
1, 220563, Note_off_c, 0, 54, 54
1, 220563, Control_c, 0, 64, 46
1, 220563, Control_c, 0, 67, 20
1, 220574, Note_off_c, 0, 60, 62
1, 220578, Control_c, 0, 64, 45
1, 220578, Control_c, 0, 67, 23
1, 220593, Control_c, 0, 64, 44
1, 220593, Control_c, 0, 67, 26
1, 220601, Note_on_c, 0, 53, 43
1, 220604, Note_on_c, 0, 61, 47
1, 220608, Control_c, 0, 64, 44
1, 220608, Control_c, 0, 67, 30
1, 220623, Control_c, 0, 67, 33
1, 220637, Control_c, 0, 64, 43
1, 220637, Control_c, 0, 67, 35
1, 220652, Control_c, 0, 64, 42
1, 220652, Control_c, 0, 67, 37
1, 220667, Control_c, 0, 64, 41
1, 220667, Control_c, 0, 67, 38
1, 220683, Control_c, 0, 64, 40
1, 220728, Control_c, 0, 64, 42
1, 220742, Control_c, 0, 64, 45
1, 220757, Control_c, 0, 64, 48
1, 220757, Control_c, 0, 67, 38
1, 220772, Note_off_c, 0, 53, 57
1, 220772, Control_c, 0, 64, 51
1, 220772, Control_c, 0, 67, 37
1, 220784, Note_on_c, 0, 51, 46
1, 220786, Note_on_c, 0, 63, 59
1, 220786, Control_c, 0, 64, 55
1, 220786, Control_c, 0, 67, 36
1, 220801, Control_c, 0, 64, 58
1, 220801, Control_c, 0, 67, 35
1, 220816, Control_c, 0, 64, 60
1, 220816, Control_c, 0, 67, 35
1, 220831, Control_c, 0, 64, 62
1, 220831, Control_c, 0, 67, 34
1, 220846, Control_c, 0, 64, 63
1, 220846, Control_c, 0, 67, 34
1, 220861, Control_c, 0, 64, 64
1, 220861, Control_c, 0, 67, 33
1, 220876, Control_c, 0, 64, 65
1, 220876, Control_c, 0, 67, 33
1, 220877, Note_off_c, 0, 68, 60
1, 220890, Control_c, 0, 64, 66
1, 220890, Control_c, 0, 67, 32
1, 220905, Control_c, 0, 64, 67
1, 220905, Control_c, 0, 67, 31
1, 220920, Control_c, 0, 64, 66
1, 220920, Control_c, 0, 67, 31
1, 220935, Control_c, 0, 64, 64
1, 220935, Control_c, 0, 67, 30
1, 220947, Note_off_c, 0, 51, 55
1, 220950, Control_c, 0, 64, 57
1, 220959, Note_on_c, 0, 65, 75
1, 220965, Control_c, 0, 64, 37
1, 220965, Control_c, 0, 67, 29
1, 220967, Note_off_c, 0, 61, 33
1, 220971, Note_on_c, 0, 49, 55
1, 220978, Control_c, 0, 64, 0
1, 220978, Control_c, 0, 67, 28
1, 220993, Control_c, 0, 67, 27
1, 221008, Control_c, 0, 67, 24
1, 221023, Control_c, 0, 67, 20
1, 221038, Control_c, 0, 64, 13
1, 221038, Control_c, 0, 67, 15
1, 221052, Control_c, 0, 64, 44
1, 221052, Control_c, 0, 67, 10
1, 221067, Control_c, 0, 64, 58
1, 221067, Control_c, 0, 67, 0
1, 221082, Control_c, 0, 64, 65
1, 221097, Control_c, 0, 64, 69
1, 221119, Control_c, 0, 64, 74
1, 221126, Note_off_c, 0, 63, 0
1, 221133, Note_on_c, 0, 58, 57
1, 221134, Control_c, 0, 64, 80
1, 221143, Note_on_c, 0, 61, 57
1, 221149, Control_c, 0, 64, 85
1, 221164, Poly_aftertouch_c, 0, 63, 127
1, 221164, Control_c, 0, 64, 90
1, 221179, Control_c, 0, 64, 94
1, 221193, Control_c, 0, 64, 97
1, 221208, Control_c, 0, 64, 98
1, 221223, Control_c, 0, 64, 99
1, 221238, Control_c, 0, 64, 100
1, 221253, Control_c, 0, 64, 101
1, 221267, Control_c, 0, 64, 103
1, 221282, Control_c, 0, 64, 106
1, 221292, Note_off_c, 0, 58, 58
1, 221297, Control_c, 0, 64, 108
1, 221300, Note_on_c, 0, 56, 67
1, 221305, Note_on_c, 0, 62, 60
1, 221311, Control_c, 0, 64, 110
1, 221317, Note_off_c, 0, 61, 59
1, 221326, Control_c, 0, 64, 111
1, 221327, Note_off_c, 0, 49, 58
1, 221332, Note_off_c, 0, 56, 65
1, 221341, Control_c, 0, 64, 113
1, 221342, Note_off_c, 0, 62, 62
1, 221349, Note_off_c, 0, 65, 58
1, 221356, Control_c, 0, 64, 114
1, 221371, Poly_aftertouch_c, 0, 63, 0
1, 221371, Control_c, 0, 64, 117
1, 221385, Control_c, 0, 64, 122
1, 221400, Control_c, 0, 64, 127
1, 221475, Control_c, 0, 64, 122
1, 221490, Control_c, 0, 64, 105
1, 221500, Note_on_c, 0, 54, 61
1, 221505, Note_on_c, 0, 70, 80
1, 221505, Control_c, 0, 64, 88
1, 221520, Control_c, 0, 64, 73
1, 221534, Note_on_c, 0, 63, 43
1, 221535, Control_c, 0, 64, 59
1, 221550, Control_c, 0, 64, 37
1, 221579, Control_c, 0, 64, 50
1, 221594, Control_c, 0, 64, 58
1, 221609, Control_c, 0, 64, 62
1, 221609, Control_c, 0, 67, 8
1, 221624, Control_c, 0, 64, 65
1, 221624, Control_c, 0, 67, 9
1, 221639, Control_c, 0, 64, 69
1, 221639, Control_c, 0, 67, 10
1, 221654, Control_c, 0, 64, 74
1, 221654, Control_c, 0, 67, 12
1, 221668, Control_c, 0, 64, 78
1, 221668, Control_c, 0, 67, 13
1, 221683, Control_c, 0, 64, 82
1, 221683, Control_c, 0, 67, 15
1, 221698, Note_off_c, 0, 54, 37
1, 221698, Control_c, 0, 64, 84
1, 221698, Control_c, 0, 67, 18
1, 221701, Note_on_c, 0, 51, 47
1, 221706, Note_on_c, 0, 66, 56
1, 221713, Control_c, 0, 64, 87
1, 221713, Control_c, 0, 67, 22
1, 221728, Control_c, 0, 64, 90
1, 221728, Control_c, 0, 67, 26
1, 221743, Control_c, 0, 64, 93
1, 221743, Control_c, 0, 67, 30
1, 221754, Note_off_c, 0, 70, 51
1, 221758, Control_c, 0, 64, 96
1, 221758, Control_c, 0, 67, 35
1, 221761, Note_off_c, 0, 63, 40
1, 221773, Control_c, 0, 64, 98
1, 221773, Control_c, 0, 67, 38
1, 221788, Control_c, 0, 64, 100
1, 221788, Control_c, 0, 67, 41
1, 221803, Control_c, 0, 64, 101
1, 221803, Control_c, 0, 67, 43
1, 221817, Control_c, 0, 64, 102
1, 221817, Control_c, 0, 67, 45
1, 221832, Control_c, 0, 64, 103
1, 221832, Control_c, 0, 67, 45
1, 221847, Control_c, 0, 64, 106
1, 221847, Control_c, 0, 67, 46
1, 221850, Note_on_c, 0, 65, 61
1, 221865, Note_on_c, 0, 49, 53
1, 221869, Control_c, 0, 64, 111
1, 221869, Control_c, 0, 67, 47
1, 221884, Control_c, 0, 64, 120
1, 221884, Control_c, 0, 67, 47
1, 221892, Note_off_c, 0, 66, 33
1, 221892, Note_off_c, 0, 51, 31
1, 221898, Control_c, 0, 64, 127
1, 221913, Control_c, 0, 67, 48
1, 221928, Control_c, 0, 67, 48
1, 221943, Control_c, 0, 67, 49
1, 221958, Control_c, 0, 64, 113
1, 221958, Control_c, 0, 67, 50
1, 221973, Control_c, 0, 64, 95
1, 221973, Control_c, 0, 67, 52
1, 221987, Control_c, 0, 64, 78
1, 221987, Control_c, 0, 67, 54
1, 221999, Note_off_c, 0, 49, 53
1, 222002, Control_c, 0, 64, 66
1, 222002, Control_c, 0, 67, 56
1, 222012, Note_off_c, 0, 65, 58
1, 222017, Control_c, 0, 64, 59
1, 222017, Control_c, 0, 67, 57
1, 222022, Note_on_c, 0, 68, 67
1, 222026, Note_on_c, 0, 48, 56
1, 222027, Note_on_c, 0, 63, 61
1, 222032, Control_c, 0, 64, 62
1, 222032, Control_c, 0, 67, 59
1, 222047, Control_c, 0, 64, 65
1, 222047, Control_c, 0, 67, 60
1, 222062, Control_c, 0, 64, 67
1, 222062, Control_c, 0, 67, 61
1, 222077, Control_c, 0, 64, 69
1, 222077, Control_c, 0, 67, 63
1, 222091, Control_c, 0, 64, 72
1, 222091, Control_c, 0, 67, 64
1, 222106, Control_c, 0, 64, 74
1, 222106, Control_c, 0, 67, 65
1, 222121, Control_c, 0, 64, 77
1, 222121, Control_c, 0, 67, 66
1, 222135, Control_c, 0, 64, 79
1, 222135, Control_c, 0, 67, 66
1, 222148, Note_off_c, 0, 63, 36
1, 222150, Control_c, 0, 64, 80
1, 222150, Control_c, 0, 67, 67
1, 222165, Control_c, 0, 64, 81
1, 222165, Control_c, 0, 67, 69
1, 222180, Control_c, 0, 64, 83
1, 222180, Control_c, 0, 67, 71
1, 222184, Note_off_c, 0, 48, 58
1, 222195, Control_c, 0, 64, 84
1, 222195, Control_c, 0, 67, 73
1, 222196, Note_off_c, 0, 68, 62
1, 222205, Note_on_c, 0, 65, 52
1, 222205, Note_on_c, 0, 49, 50
1, 222209, Control_c, 0, 64, 85
1, 222209, Control_c, 0, 67, 74
1, 222224, Control_c, 0, 64, 87
1, 222224, Control_c, 0, 67, 74
1, 222239, Control_c, 0, 64, 88
1, 222239, Control_c, 0, 67, 75
1, 222254, Control_c, 0, 64, 89
1, 222254, Control_c, 0, 67, 76
1, 222256, Note_off_c, 0, 49, 56
1, 222269, Control_c, 0, 64, 90
1, 222269, Control_c, 0, 67, 78
1, 222285, Control_c, 0, 67, 80
1, 222300, Control_c, 0, 67, 82
1, 222314, Control_c, 0, 64, 88
1, 222314, Control_c, 0, 67, 82
1, 222329, Control_c, 0, 64, 85
1, 222329, Control_c, 0, 67, 83
1, 222344, Control_c, 0, 64, 82
1, 222344, Control_c, 0, 67, 84
1, 222358, Control_c, 0, 64, 79
1, 222358, Control_c, 0, 67, 85
1, 222359, Note_off_c, 0, 65, 31
1, 222365, Note_on_c, 0, 66, 62
1, 222367, Note_on_c, 0, 51, 51
1, 222373, Control_c, 0, 64, 78
1, 222373, Control_c, 0, 67, 86
1, 222388, Control_c, 0, 67, 88
1, 222390, Note_on_c, 0, 60, 47
1, 222403, Control_c, 0, 67, 88
1, 222418, Control_c, 0, 67, 89
1, 222447, Control_c, 0, 67, 89
1, 222462, Control_c, 0, 64, 77
1, 222462, Control_c, 0, 67, 90
1, 222476, Note_off_c, 0, 60, 56
1, 222477, Control_c, 0, 64, 75
1, 222477, Control_c, 0, 67, 91
1, 222492, Control_c, 0, 64, 70
1, 222492, Control_c, 0, 67, 92
1, 222502, Note_off_c, 0, 51, 31
1, 222506, Control_c, 0, 64, 61
1, 222506, Control_c, 0, 67, 93
1, 222521, Control_c, 0, 64, 43
1, 222521, Control_c, 0, 67, 95
1, 222536, Control_c, 0, 64, 0
1, 222536, Control_c, 0, 67, 95
1, 222544, Note_on_c, 0, 49, 50
1, 222551, Control_c, 0, 67, 96
1, 222553, Note_on_c, 0, 61, 49
1, 222557, Note_on_c, 0, 65, 56
1, 222581, Control_c, 0, 64, 23
1, 222581, Control_c, 0, 67, 96
1, 222596, Control_c, 0, 64, 33
1, 222596, Control_c, 0, 67, 97
1, 222611, Note_off_c, 0, 66, 52
1, 222618, Control_c, 0, 64, 42
1, 222618, Control_c, 0, 67, 97
1, 222633, Control_c, 0, 64, 51
1, 222633, Control_c, 0, 67, 98
1, 222647, Control_c, 0, 64, 58
1, 222647, Control_c, 0, 67, 99
1, 222662, Control_c, 0, 64, 61
1, 222662, Control_c, 0, 67, 101
1, 222677, Control_c, 0, 64, 63
1, 222677, Control_c, 0, 67, 102
1, 222692, Control_c, 0, 64, 64
1, 222692, Control_c, 0, 67, 104
1, 222702, Note_off_c, 0, 65, 59
1, 222707, Control_c, 0, 64, 66
1, 222707, Control_c, 0, 67, 105
1, 222721, Control_c, 0, 64, 68
1, 222721, Control_c, 0, 67, 107
1, 222728, Note_on_c, 0, 66, 51
1, 222731, Note_off_c, 0, 49, 46
1, 222733, Note_on_c, 0, 51, 43
1, 222736, Control_c, 0, 64, 70
1, 222736, Control_c, 0, 67, 109
1, 222751, Control_c, 0, 64, 72
1, 222751, Control_c, 0, 67, 111
1, 222765, Control_c, 0, 64, 74
1, 222765, Control_c, 0, 67, 113
1, 222780, Control_c, 0, 64, 75
1, 222780, Control_c, 0, 67, 114
1, 222795, Control_c, 0, 64, 75
1, 222795, Control_c, 0, 67, 115
1, 222810, Control_c, 0, 64, 76
1, 222810, Control_c, 0, 67, 116
1, 222825, Control_c, 0, 67, 116
1, 222840, Note_off_c, 0, 61, 39
1, 222840, Control_c, 0, 67, 117
1, 222855, Control_c, 0, 64, 74
1, 222855, Control_c, 0, 67, 118
1, 222870, Control_c, 0, 64, 72
1, 222870, Control_c, 0, 67, 118
1, 222884, Note_off_c, 0, 51, 30
1, 222885, Control_c, 0, 64, 66
1, 222885, Control_c, 0, 67, 119
1, 222897, Note_on_c, 0, 65, 56
1, 222900, Control_c, 0, 64, 59
1, 222900, Control_c, 0, 67, 120
1, 222904, Note_on_c, 0, 49, 43
1, 222914, Control_c, 0, 64, 50
1, 222914, Control_c, 0, 67, 120
1, 222914, Note_on_c, 0, 56, 45
1, 222929, Control_c, 0, 64, 44
1, 222944, Control_c, 0, 64, 41
1, 222944, Control_c, 0, 67, 121
1, 222958, Control_c, 0, 64, 37
1, 222973, Control_c, 0, 64, 30
1, 222980, Note_off_c, 0, 56, 61
1, 222988, Control_c, 0, 64, 25
1, 223003, Control_c, 0, 64, 25
1, 223018, Control_c, 0, 64, 30
1, 223022, Note_off_c, 0, 66, 17
1, 223032, Control_c, 0, 64, 35
1, 223047, Control_c, 0, 64, 39
1, 223062, Control_c, 0, 64, 45
1, 223078, Note_on_c, 0, 68, 71
1, 223078, Control_c, 0, 64, 52
1, 223093, Control_c, 0, 64, 58
1, 223108, Control_c, 0, 64, 62
1, 223123, Control_c, 0, 64, 64
1, 223137, Control_c, 0, 64, 67
1, 223137, Control_c, 0, 67, 120
1, 223152, Control_c, 0, 64, 69
1, 223152, Control_c, 0, 67, 120
1, 223167, Control_c, 0, 64, 73
1, 223167, Control_c, 0, 67, 119
1, 223171, Note_off_c, 0, 65, 33
1, 223181, Control_c, 0, 64, 76
1, 223181, Control_c, 0, 67, 117
1, 223196, Control_c, 0, 64, 80
1, 223196, Control_c, 0, 67, 116
1, 223211, Control_c, 0, 64, 83
1, 223211, Control_c, 0, 67, 115
1, 223226, Control_c, 0, 64, 85
1, 223226, Control_c, 0, 67, 114
1, 223241, Control_c, 0, 64, 87
1, 223241, Control_c, 0, 67, 113
1, 223248, Note_on_c, 0, 47, 54
1, 223255, Control_c, 0, 64, 88
1, 223255, Control_c, 0, 67, 112
1, 223267, Note_on_c, 0, 62, 40
1, 223270, Note_off_c, 0, 49, 41
1, 223270, Control_c, 0, 64, 91
1, 223270, Control_c, 0, 67, 111
1, 223285, Control_c, 0, 64, 92
1, 223285, Control_c, 0, 67, 109
1, 223300, Control_c, 0, 64, 94
1, 223300, Control_c, 0, 67, 108
1, 223315, Control_c, 0, 64, 95
1, 223315, Control_c, 0, 67, 107
1, 223329, Control_c, 0, 67, 105
1, 223344, Control_c, 0, 67, 101
1, 223367, Control_c, 0, 64, 95
1, 223367, Control_c, 0, 67, 95
1, 223382, Control_c, 0, 64, 96
1, 223382, Control_c, 0, 67, 89
1, 223391, Note_off_c, 0, 47, 62
1, 223396, Control_c, 0, 64, 97
1, 223396, Control_c, 0, 67, 81
1, 223411, Control_c, 0, 67, 75
1, 223417, Note_off_c, 0, 62, 43
1, 223426, Control_c, 0, 64, 97
1, 223426, Control_c, 0, 67, 69
1, 223427, Note_on_c, 0, 48, 51
1, 223427, Note_on_c, 0, 63, 69
1, 223441, Control_c, 0, 67, 62
1, 223456, Control_c, 0, 67, 55
1, 223458, Note_off_c, 0, 63, 66
1, 223460, Note_off_c, 0, 68, 57
1, 223470, Control_c, 0, 67, 48
1, 223485, Control_c, 0, 67, 41
1, 223500, Control_c, 0, 67, 37
1, 223514, Control_c, 0, 64, 97
1, 223514, Control_c, 0, 67, 34
1, 223529, Control_c, 0, 67, 32
1, 223544, Control_c, 0, 67, 29
1, 223559, Control_c, 0, 64, 96
1, 223559, Control_c, 0, 67, 26
1, 223574, Control_c, 0, 64, 95
1, 223574, Control_c, 0, 67, 24
1, 223588, Control_c, 0, 64, 95
1, 223588, Control_c, 0, 67, 23
1, 223603, Control_c, 0, 64, 93
1, 223603, Control_c, 0, 67, 22
1, 223618, Control_c, 0, 64, 90
1, 223630, Note_on_c, 0, 73, 80
1, 223633, Control_c, 0, 64, 87
1, 223643, Note_on_c, 0, 65, 62
1, 223648, Control_c, 0, 64, 83
1, 223663, Control_c, 0, 64, 80
1, 223663, Control_c, 0, 67, 22
1, 223678, Control_c, 0, 64, 76
1, 223678, Control_c, 0, 67, 21
1, 223692, Control_c, 0, 64, 72
1, 223692, Control_c, 0, 67, 20
1, 223707, Control_c, 0, 64, 67
1, 223722, Control_c, 0, 64, 62
1, 223722, Control_c, 0, 67, 20
1, 223737, Control_c, 0, 64, 58
1, 223737, Control_c, 0, 67, 19
1, 223752, Control_c, 0, 64, 56
1, 223752, Control_c, 0, 67, 19
1, 223767, Control_c, 0, 64, 54
1, 223767, Control_c, 0, 67, 18
1, 223774, Note_off_c, 0, 48, 51
1, 223781, Control_c, 0, 64, 52
1, 223781, Control_c, 0, 67, 17
1, 223796, Control_c, 0, 64, 48
1, 223796, Control_c, 0, 67, 16
1, 223808, Note_on_c, 0, 46, 57
1, 223811, Control_c, 0, 64, 44
1, 223811, Control_c, 0, 67, 15
1, 223826, Control_c, 0, 64, 41
1, 223826, Control_c, 0, 67, 15
1, 223841, Control_c, 0, 67, 14
1, 223855, Control_c, 0, 67, 14
1, 223886, Control_c, 0, 67, 13
1, 223901, Control_c, 0, 67, 13
1, 223916, Control_c, 0, 67, 12
1, 223931, Control_c, 0, 67, 11
1, 223946, Control_c, 0, 67, 11
1, 223960, Control_c, 0, 67, 10
1, 223975, Control_c, 0, 67, 9
1, 223978, Note_on_c, 0, 49, 64
1, 223990, Control_c, 0, 67, 8
1, 224004, Control_c, 0, 67, 8
1, 224019, Control_c, 0, 67, 0
1, 224072, Note_off_c, 0, 46, 36
1, 224093, Control_c, 0, 64, 41
1, 224155, Note_on_c, 0, 70, 77
1, 224159, Note_off_c, 0, 65, 62
1, 224175, Note_on_c, 0, 51, 55
1, 224175, Note_on_c, 0, 67, 61
1, 224175, Note_off_c, 0, 49, 55
1, 224175, Control_c, 0, 64, 42
1, 224190, Control_c, 0, 64, 43
1, 224204, Note_off_c, 0, 73, 62
1, 224205, Control_c, 0, 64, 45
1, 224219, Control_c, 0, 64, 48
1, 224234, Control_c, 0, 64, 51
1, 224249, Control_c, 0, 64, 54
1, 224264, Control_c, 0, 64, 57
1, 224279, Control_c, 0, 64, 59
1, 224293, Control_c, 0, 64, 61
1, 224308, Control_c, 0, 64, 63
1, 224323, Control_c, 0, 64, 65
1, 224327, Note_off_c, 0, 51, 51
1, 224337, Control_c, 0, 64, 68
1, 224342, Note_on_c, 0, 53, 59
1, 224352, Control_c, 0, 64, 71
1, 224367, Control_c, 0, 64, 74
1, 224382, Control_c, 0, 64, 76
1, 224397, Control_c, 0, 64, 78
1, 224411, Control_c, 0, 64, 80
1, 224426, Control_c, 0, 64, 81
1, 224441, Control_c, 0, 64, 82
1, 224456, Control_c, 0, 64, 84
1, 224471, Control_c, 0, 64, 85
1, 224485, Control_c, 0, 64, 86
1, 224500, Control_c, 0, 64, 88
1, 224502, Note_off_c, 0, 53, 58
1, 224503, Note_on_c, 0, 49, 66
1, 224515, Control_c, 0, 64, 88
1, 224530, Control_c, 0, 64, 90
1, 224545, Control_c, 0, 64, 91
1, 224560, Control_c, 0, 64, 93
1, 224575, Control_c, 0, 64, 95
1, 224587, Note_off_c, 0, 67, 37
1, 224590, Control_c, 0, 64, 96
1, 224604, Control_c, 0, 64, 97
1, 224619, Control_c, 0, 64, 98
1, 224634, Control_c, 0, 64, 98
1, 224664, Control_c, 0, 64, 98
1, 224676, Note_on_c, 0, 75, 72
1, 224679, Control_c, 0, 64, 96
1, 224689, Note_on_c, 0, 48, 62
1, 224694, Control_c, 0, 64, 87
1, 224701, Note_on_c, 0, 68, 55
1, 224703, Note_off_c, 0, 70, 62
1, 224709, Control_c, 0, 64, 75
1, 224723, Control_c, 0, 64, 62
1, 224738, Control_c, 0, 64, 36
1, 224745, Note_off_c, 0, 49, 32
1, 224752, Control_c, 0, 64, 0
1, 224782, Control_c, 0, 64, 9
1, 224797, Control_c, 0, 64, 33
1, 224812, Control_c, 0, 64, 46
1, 224826, Control_c, 0, 64, 56
1, 224841, Control_c, 0, 64, 62
1, 224864, Control_c, 0, 64, 66
1, 224879, Control_c, 0, 64, 71
1, 224885, Note_on_c, 0, 44, 60
1, 224886, Note_on_c, 0, 72, 57
1, 224894, Note_off_c, 0, 48, 56
1, 224894, Control_c, 0, 64, 76
1, 224908, Control_c, 0, 64, 81
1, 224923, Control_c, 0, 64, 85
1, 224938, Control_c, 0, 64, 88
1, 224952, Control_c, 0, 64, 91
1, 224966, Note_off_c, 0, 44, 60
1, 224966, Note_off_c, 0, 68, 36
1, 224967, Control_c, 0, 64, 93
1, 224982, Control_c, 0, 64, 95
1, 224997, Control_c, 0, 64, 97
1, 225012, Control_c, 0, 64, 99
1, 225026, Control_c, 0, 64, 101
1, 225041, Control_c, 0, 64, 103
1, 225045, Note_on_c, 0, 70, 67
1, 225056, Control_c, 0, 64, 106
1, 225071, Note_off_c, 0, 75, 40
1, 225071, Control_c, 0, 64, 110
1, 225086, Control_c, 0, 64, 114
1, 225100, Control_c, 0, 64, 120
1, 225115, Control_c, 0, 64, 127
1, 225124, Note_off_c, 0, 72, 31
1, 225234, Note_on_c, 0, 72, 66
1, 225236, Note_on_c, 0, 56, 87
1, 225249, Control_c, 0, 64, 106
1, 225263, Control_c, 0, 64, 83
1, 225278, Control_c, 0, 64, 67
1, 225280, Note_off_c, 0, 70, 34
1, 225293, Control_c, 0, 64, 40
1, 225308, Control_c, 0, 64, 0
1, 225352, Control_c, 0, 64, 34
1, 225367, Control_c, 0, 64, 51
1, 225382, Control_c, 0, 64, 60
1, 225397, Control_c, 0, 64, 66
1, 225404, Note_on_c, 0, 68, 60
1, 225412, Control_c, 0, 64, 73
1, 225427, Control_c, 0, 64, 82
1, 225441, Control_c, 0, 64, 91
1, 225456, Control_c, 0, 64, 99
1, 225472, Control_c, 0, 64, 106
1, 225487, Control_c, 0, 64, 113
1, 225502, Control_c, 0, 64, 127
1, 225568, Note_off_c, 0, 68, 54
1, 225578, Note_on_c, 0, 66, 57
1, 225588, Note_off_c, 0, 72, 58
1, 225624, Note_off_c, 0, 66, 63
1, 225688, Note_off_c, 0, 56, 57
1, 225761, Control_c, 0, 64, 111
1, 225767, Note_on_c, 0, 61, 84
1, 225768, Note_on_c, 0, 77, 72
1, 225776, Control_c, 0, 64, 85
1, 225788, Note_on_c, 0, 65, 50
1, 225791, Control_c, 0, 64, 67
1, 225806, Control_c, 0, 64, 50
1, 225821, Control_c, 0, 64, 48
1, 225836, Control_c, 0, 64, 58
1, 225850, Control_c, 0, 64, 64
1, 225862, Note_off_c, 0, 77, 55
1, 225865, Control_c, 0, 64, 68
1, 225880, Control_c, 0, 64, 74
1, 225895, Control_c, 0, 64, 82
1, 225909, Control_c, 0, 64, 90
1, 225924, Control_c, 0, 64, 97
1, 225939, Control_c, 0, 64, 106
1, 225941, Note_on_c, 0, 70, 68
1, 225954, Control_c, 0, 64, 116
1, 225960, Note_off_c, 0, 65, 35
1, 225969, Control_c, 0, 64, 127
1, 226108, Note_on_c, 0, 68, 66
1, 226115, Note_off_c, 0, 70, 56
1, 226265, Control_c, 0, 64, 99
1, 226279, Note_off_c, 0, 68, 54
1, 226280, Control_c, 0, 64, 77
1, 226281, Note_on_c, 0, 58, 78
1, 226284, Note_off_c, 0, 61, 61
1, 226285, Note_on_c, 0, 75, 72
1, 226295, Control_c, 0, 64, 59
1, 226299, Note_on_c, 0, 67, 62
1, 226310, Control_c, 0, 64, 0
1, 226340, Control_c, 0, 64, 33
1, 226362, Control_c, 0, 64, 54
1, 226377, Control_c, 0, 64, 61
1, 226392, Control_c, 0, 64, 65
1, 226406, Control_c, 0, 64, 70
1, 226421, Control_c, 0, 64, 75
1, 226436, Control_c, 0, 64, 81
1, 226451, Note_off_c, 0, 67, 58
1, 226451, Control_c, 0, 64, 86
1, 226466, Control_c, 0, 64, 90
1, 226476, Note_on_c, 0, 68, 66
1, 226480, Control_c, 0, 64, 94
1, 226495, Control_c, 0, 64, 98
1, 226509, Note_off_c, 0, 68, 63
1, 226510, Control_c, 0, 64, 102
1, 226522, Note_off_c, 0, 75, 53
1, 226525, Control_c, 0, 64, 105
1, 226539, Control_c, 0, 64, 109
1, 226554, Control_c, 0, 64, 114
1, 226569, Control_c, 0, 64, 120
1, 226584, Control_c, 0, 64, 127
1, 226637, Note_on_c, 0, 70, 74
1, 226637, Note_on_c, 0, 73, 70
1, 226821, Control_c, 0, 64, 110
1, 226822, Note_on_c, 0, 72, 72
1, 226826, Note_on_c, 0, 63, 83
1, 226836, Control_c, 0, 64, 83
1, 226839, Note_off_c, 0, 58, 56
1, 226851, Control_c, 0, 64, 63
1, 226855, Note_off_c, 0, 70, 55
1, 226857, Note_off_c, 0, 73, 45
1, 226866, Control_c, 0, 64, 0
1, 226910, Control_c, 0, 64, 28
1, 226924, Control_c, 0, 64, 54
1, 226939, Control_c, 0, 64, 63
1, 226954, Control_c, 0, 64, 68
1, 226969, Control_c, 0, 64, 75
1, 226984, Control_c, 0, 64, 84
1, 226986, Note_on_c, 0, 68, 64
1, 226995, Note_off_c, 0, 72, 56
1, 226998, Control_c, 0, 64, 90
1, 227013, Control_c, 0, 64, 96
1, 227028, Control_c, 0, 64, 102
1, 227043, Control_c, 0, 64, 110
1, 227058, Control_c, 0, 64, 127
1, 227162, Note_off_c, 0, 63, 57
1, 227165, Note_on_c, 0, 75, 74
1, 227171, Note_on_c, 0, 60, 66
1, 227195, Note_off_c, 0, 68, 61
1, 227375, Note_on_c, 0, 65, 79
1, 227377, Control_c, 0, 64, 110
1, 227383, Note_on_c, 0, 73, 76
1, 227385, Note_off_c, 0, 60, 55
1, 227392, Control_c, 0, 64, 82
1, 227407, Control_c, 0, 64, 62
1, 227422, Control_c, 0, 64, 0
1, 227466, Control_c, 0, 64, 44
1, 227481, Control_c, 0, 64, 56
1, 227496, Control_c, 0, 64, 62
1, 227511, Control_c, 0, 64, 66
1, 227526, Control_c, 0, 64, 71
1, 227541, Control_c, 0, 64, 78
1, 227555, Control_c, 0, 64, 85
1, 227565, Note_off_c, 0, 75, 34
1, 227570, Control_c, 0, 64, 90
1, 227578, Note_off_c, 0, 73, 58
1, 227585, Control_c, 0, 64, 94
1, 227600, Control_c, 0, 64, 96
1, 227601, Note_on_c, 0, 67, 63
1, 227602, Note_off_c, 0, 65, 48
1, 227608, Note_on_c, 0, 58, 59
1, 227615, Control_c, 0, 64, 99
1, 227629, Control_c, 0, 64, 103
1, 227644, Control_c, 0, 64, 109
1, 227659, Control_c, 0, 64, 114
1, 227673, Control_c, 0, 64, 121
1, 227688, Control_c, 0, 64, 127
1, 227749, Note_on_c, 0, 72, 70
1, 227755, Note_off_c, 0, 67, 53
1, 227758, Note_on_c, 0, 68, 60
1, 227764, Note_on_c, 0, 56, 61
1, 227825, Note_off_c, 0, 58, 37
1, 227907, Note_off_c, 0, 56, 58
1, 227907, Note_off_c, 0, 72, 59
1, 227928, Note_on_c, 0, 70, 71
1, 227934, Control_c, 0, 64, 97
1, 227937, Note_on_c, 0, 55, 60
1, 227945, Note_off_c, 0, 68, 0
1, 227949, Control_c, 0, 64, 75
1, 227964, Control_c, 0, 64, 53
1, 227978, Control_c, 0, 64, 0
1, 227982, Poly_aftertouch_c, 0, 68, 127
1, 228008, Control_c, 0, 64, 28
1, 228010, Poly_aftertouch_c, 0, 68, 0
1, 228023, Control_c, 0, 64, 52
1, 228038, Control_c, 0, 64, 60
1, 228052, Control_c, 0, 64, 64
1, 228067, Control_c, 0, 64, 69
1, 228082, Control_c, 0, 64, 75
1, 228095, Note_on_c, 0, 67, 71
1, 228097, Control_c, 0, 64, 83
1, 228098, Note_on_c, 0, 56, 56
1, 228112, Control_c, 0, 64, 90
1, 228126, Control_c, 0, 64, 97
1, 228141, Control_c, 0, 64, 102
1, 228143, Note_off_c, 0, 55, 35
1, 228156, Control_c, 0, 64, 106
1, 228171, Control_c, 0, 64, 112
1, 228177, Note_off_c, 0, 70, 31
1, 228185, Control_c, 0, 64, 125
1, 228200, Control_c, 0, 64, 127
1, 228252, Note_on_c, 0, 73, 78
1, 228254, Note_on_c, 0, 58, 67
1, 228262, Note_off_c, 0, 56, 54
1, 228262, Note_on_c, 0, 65, 72
1, 228268, Note_off_c, 0, 67, 61
1, 228328, Note_off_c, 0, 58, 58
1, 228332, Note_off_c, 0, 73, 60
1, 228342, Note_off_c, 0, 65, 56
1, 228455, Note_on_c, 0, 72, 74
1, 228465, Note_on_c, 0, 64, 65
1, 228468, Control_c, 0, 64, 98
1, 228468, Note_on_c, 0, 60, 57
1, 228483, Control_c, 0, 64, 77
1, 228497, Control_c, 0, 64, 55
1, 228512, Control_c, 0, 64, 0
1, 228557, Control_c, 0, 64, 36
1, 228571, Control_c, 0, 64, 51
1, 228586, Control_c, 0, 64, 60
1, 228608, Control_c, 0, 64, 65
1, 228612, Note_off_c, 0, 60, 60
1, 228614, Note_off_c, 0, 64, 62
1, 228623, Control_c, 0, 64, 71
1, 228638, Control_c, 0, 64, 78
1, 228648, Note_on_c, 0, 65, 66
1, 228653, Control_c, 0, 64, 86
1, 228662, Note_on_c, 0, 50, 59
1, 228668, Control_c, 0, 64, 92
1, 228683, Control_c, 0, 64, 98
1, 228698, Control_c, 0, 64, 101
1, 228713, Control_c, 0, 64, 103
1, 228727, Control_c, 0, 64, 105
1, 228742, Control_c, 0, 64, 108
1, 228757, Control_c, 0, 64, 112
1, 228772, Control_c, 0, 64, 116
1, 228787, Control_c, 0, 64, 120
1, 228794, Note_off_c, 0, 65, 47
1, 228802, Control_c, 0, 64, 127
1, 228804, Note_on_c, 0, 70, 75
1, 228812, Note_on_c, 0, 52, 64
1, 228817, Note_on_c, 0, 67, 68
1, 228882, Note_off_c, 0, 50, 35
1, 228942, Note_off_c, 0, 72, 24
1, 228965, Control_c, 0, 64, 106
1, 228978, Note_on_c, 0, 68, 74
1, 228980, Note_on_c, 0, 53, 71
1, 228980, Control_c, 0, 64, 79
1, 228995, Control_c, 0, 64, 62
1, 229009, Control_c, 0, 64, 38
1, 229015, Note_off_c, 0, 52, 53
1, 229024, Control_c, 0, 64, 39
1, 229034, Note_off_c, 0, 67, 37
1, 229039, Control_c, 0, 64, 52
1, 229054, Control_c, 0, 64, 59
1, 229069, Control_c, 0, 64, 64
1, 229083, Control_c, 0, 64, 69
1, 229098, Control_c, 0, 64, 75
1, 229113, Control_c, 0, 64, 82
1, 229127, Control_c, 0, 64, 89
1, 229141, Note_on_c, 0, 55, 69
1, 229142, Control_c, 0, 64, 95
1, 229144, Note_on_c, 0, 65, 76
1, 229146, Note_off_c, 0, 70, 0
1, 229157, Control_c, 0, 64, 99
1, 229171, Note_off_c, 0, 68, 61
1, 229172, Control_c, 0, 64, 102
1, 229187, Control_c, 0, 64, 105
1, 229188, Note_off_c, 0, 53, 60
1, 229201, Control_c, 0, 64, 110
1, 229205, Poly_aftertouch_c, 0, 70, 0
1, 229216, Control_c, 0, 64, 113
1, 229219, Note_off_c, 0, 65, 59
1, 229229, Note_off_c, 0, 55, 58
1, 229231, Control_c, 0, 64, 116
1, 229246, Control_c, 0, 64, 122
1, 229261, Control_c, 0, 64, 127
1, 229294, Note_on_c, 0, 72, 78
1, 229302, Note_on_c, 0, 63, 71
1, 229303, Note_on_c, 0, 56, 77
1, 229336, Note_off_c, 0, 56, 61
1, 229357, Note_off_c, 0, 72, 62
1, 229371, Note_off_c, 0, 63, 61
1, 229476, Control_c, 0, 64, 111
1, 229491, Control_c, 0, 64, 83
1, 229505, Control_c, 0, 64, 64
1, 229513, Note_on_c, 0, 58, 72
1, 229515, Note_on_c, 0, 70, 73
1, 229520, Control_c, 0, 64, 22
1, 229521, Note_on_c, 0, 62, 65
1, 229535, Control_c, 0, 64, 0
1, 229550, Control_c, 0, 64, 36
1, 229565, Control_c, 0, 64, 55
1, 229580, Control_c, 0, 64, 62
1, 229595, Control_c, 0, 64, 67
1, 229610, Control_c, 0, 64, 74
1, 229624, Control_c, 0, 64, 82
1, 229639, Control_c, 0, 64, 92
1, 229654, Control_c, 0, 64, 99
1, 229654, Note_off_c, 0, 62, 54
1, 229657, Note_off_c, 0, 58, 54
1, 229669, Control_c, 0, 64, 108
1, 229675, Note_on_c, 0, 63, 73
1, 229676, Note_on_c, 0, 48, 68
1, 229684, Control_c, 0, 64, 127
1, 229744, Note_off_c, 0, 70, 57
1, 229749, Note_off_c, 0, 48, 60
1, 229774, Note_off_c, 0, 63, 54
1, 229827, Note_on_c, 0, 50, 74
1, 229829, Note_on_c, 0, 65, 68
1, 229829, Note_on_c, 0, 68, 69
1, 229860, Note_off_c, 0, 50, 69
1, 229860, Note_off_c, 0, 65, 65
1, 229917, Note_off_c, 0, 68, 59
1, 229979, Control_c, 0, 64, 101
1, 229994, Control_c, 0, 64, 77
1, 230006, Note_on_c, 0, 67, 59
1, 230009, Control_c, 0, 64, 53
1, 230013, Note_on_c, 0, 51, 68
1, 230014, Note_on_c, 0, 39, 63
1, 230019, Note_on_c, 0, 58, 69
1, 230023, Control_c, 0, 64, 32
1, 230038, Control_c, 0, 64, 49
1, 230051, Note_off_c, 0, 58, 65
1, 230053, Control_c, 0, 64, 61
1, 230056, Note_off_c, 0, 67, 61
1, 230067, Control_c, 0, 64, 66
1, 230082, Control_c, 0, 64, 72
1, 230104, Control_c, 0, 64, 80
1, 230119, Control_c, 0, 64, 90
1, 230134, Control_c, 0, 64, 99
1, 230135, Note_off_c, 0, 51, 60
1, 230141, Note_off_c, 0, 39, 59
1, 230149, Control_c, 0, 64, 106
1, 230164, Control_c, 0, 64, 114
1, 230179, Control_c, 0, 64, 127
1, 230179, Note_on_c, 0, 63, 75
1, 230182, Note_on_c, 0, 72, 67
1, 230355, Note_off_c, 0, 63, 57
1, 230381, Note_on_c, 0, 70, 75
1, 230383, Note_on_c, 0, 67, 78
1, 230384, Note_on_c, 0, 51, 80
1, 230391, Note_on_c, 0, 39, 68
1, 230402, Control_c, 0, 64, 85
1, 230417, Control_c, 0, 64, 65
1, 230432, Control_c, 0, 64, 24
1, 230446, Control_c, 0, 64, 0
1, 230461, Control_c, 0, 64, 28
1, 230476, Control_c, 0, 64, 54
1, 230490, Control_c, 0, 64, 64
1, 230505, Control_c, 0, 64, 69
1, 230520, Control_c, 0, 64, 76
1, 230535, Control_c, 0, 64, 85
1, 230549, Note_off_c, 0, 72, 36
1, 230550, Control_c, 0, 64, 94
1, 230555, Note_on_c, 0, 68, 79
1, 230563, Note_on_c, 0, 65, 77
1, 230565, Control_c, 0, 64, 103
1, 230579, Control_c, 0, 64, 112
1, 230589, Note_off_c, 0, 67, 52
1, 230594, Control_c, 0, 64, 127
1, 230608, Note_off_c, 0, 70, 51
1, 230684, Note_off_c, 0, 65, 57
1, 230710, Note_on_c, 0, 67, 69
1, 230721, Note_on_c, 0, 70, 69
1, 230783, Note_off_c, 0, 68, 38
1, 230881, Note_on_c, 0, 63, 77
1, 230883, Control_c, 0, 64, 115
1, 230888, Note_on_c, 0, 72, 79
1, 230897, Control_c, 0, 64, 85
1, 230912, Control_c, 0, 64, 64
1, 230927, Control_c, 0, 64, 0
1, 230983, Note_off_c, 0, 63, 59
1, 231002, Control_c, 0, 64, 33
1, 231017, Control_c, 0, 64, 56
1, 231031, Note_off_c, 0, 67, 61
1, 231031, Control_c, 0, 64, 65
1, 231046, Control_c, 0, 64, 73
1, 231051, Note_off_c, 0, 72, 58
1, 231061, Control_c, 0, 64, 85
1, 231061, Note_on_c, 0, 62, 77
1, 231076, Control_c, 0, 64, 96
1, 231091, Control_c, 0, 64, 109
1, 231106, Control_c, 0, 64, 127
1, 231107, Note_off_c, 0, 70, 38
1, 231204, Note_off_c, 0, 62, 61
1, 231219, Note_on_c, 0, 70, 77
1, 231246, Note_off_c, 0, 51, 59
1, 231251, Note_off_c, 0, 39, 55
1, 231398, Note_on_c, 0, 65, 84
1, 231400, Note_on_c, 0, 51, 70
1, 231401, Note_on_c, 0, 39, 65
1, 231401, Note_on_c, 0, 68, 74
1, 231402, Control_c, 0, 64, 95
1, 231417, Control_c, 0, 64, 72
1, 231429, Note_off_c, 0, 70, 0
1, 231429, Note_on_c, 0, 70, 4
1, 231432, Control_c, 0, 64, 51
1, 231447, Control_c, 0, 64, 30
1, 231461, Control_c, 0, 64, 46
1, 231476, Control_c, 0, 64, 57
1, 231491, Control_c, 0, 64, 62
1, 231506, Control_c, 0, 64, 66
1, 231520, Control_c, 0, 64, 72
1, 231535, Control_c, 0, 64, 80
1, 231550, Control_c, 0, 64, 89
1, 231564, Note_on_c, 0, 63, 85
1, 231564, Note_off_c, 0, 70, 45
1, 231565, Control_c, 0, 64, 96
1, 231566, Note_on_c, 0, 67, 73
1, 231580, Control_c, 0, 64, 101
1, 231602, Control_c, 0, 64, 105
1, 231613, Note_off_c, 0, 68, 55
1, 231616, Note_off_c, 0, 65, 28
1, 231617, Control_c, 0, 64, 109
1, 231632, Control_c, 0, 64, 118
1, 231647, Control_c, 0, 64, 127
1, 231738, Note_on_c, 0, 68, 64
1, 231870, Control_c, 0, 64, 118
1, 231885, Control_c, 0, 64, 86
1, 231893, Note_on_c, 0, 61, 83
1, 231899, Control_c, 0, 64, 66
1, 231900, Note_on_c, 0, 70, 72
1, 231914, Control_c, 0, 64, 30
1, 231929, Control_c, 0, 64, 0
1, 231944, Control_c, 0, 64, 38
1, 231959, Control_c, 0, 64, 54
1, 231973, Control_c, 0, 64, 61
1, 231988, Note_off_c, 0, 67, 25
1, 231988, Control_c, 0, 64, 66
1, 232003, Control_c, 0, 64, 70
1, 232015, Note_off_c, 0, 61, 58
1, 232018, Control_c, 0, 64, 77
1, 232033, Control_c, 0, 64, 84
1, 232048, Control_c, 0, 64, 91
1, 232059, Note_off_c, 0, 63, 57
1, 232063, Control_c, 0, 64, 97
1, 232071, Note_off_c, 0, 68, 60
1, 232077, Note_on_c, 0, 60, 80
1, 232078, Control_c, 0, 64, 104
1, 232081, Note_off_c, 0, 70, 55
1, 232092, Control_c, 0, 64, 112
1, 232107, Control_c, 0, 64, 127
1, 232149, Note_off_c, 0, 39, 55
1, 232161, Note_off_c, 0, 51, 58
1, 232209, Note_off_c, 0, 60, 59
1, 232230, Note_on_c, 0, 68, 70
1, 232411, Control_c, 0, 64, 102
1, 232412, Note_on_c, 0, 51, 81
1, 232415, Note_on_c, 0, 39, 76
1, 232417, Note_on_c, 0, 58, 89
1, 232425, Control_c, 0, 64, 77
1, 232430, Note_on_c, 0, 66, 63
1, 232440, Control_c, 0, 64, 56
1, 232455, Control_c, 0, 64, 0
1, 232499, Control_c, 0, 64, 29
1, 232514, Control_c, 0, 64, 48
1, 232529, Control_c, 0, 64, 59
1, 232543, Control_c, 0, 64, 64
1, 232558, Control_c, 0, 64, 70
1, 232573, Control_c, 0, 64, 77
1, 232576, Note_off_c, 0, 58, 58
1, 232588, Control_c, 0, 64, 86
1, 232603, Control_c, 0, 64, 93
1, 232617, Control_c, 0, 64, 98
1, 232632, Control_c, 0, 64, 103
1, 232647, Control_c, 0, 64, 110
1, 232659, Note_off_c, 0, 51, 59
1, 232662, Control_c, 0, 64, 120
1, 232664, Note_on_c, 0, 57, 88
1, 232669, Note_off_c, 0, 39, 57
1, 232678, Control_c, 0, 64, 127
1, 232698, Note_off_c, 0, 68, 39
1, 232715, Note_off_c, 0, 66, 53
1, 232834, Note_on_c, 0, 49, 87
1, 232843, Note_on_c, 0, 37, 66
1, 232878, Note_off_c, 0, 37, 63
1, 232886, Note_off_c, 0, 49, 56
1, 232998, Note_on_c, 0, 48, 81
1, 232999, Note_on_c, 0, 66, 84
1, 233009, Note_on_c, 0, 36, 66
1, 233025, Note_off_c, 0, 48, 66
1, 233042, Note_off_c, 0, 36, 60
1, 233130, Control_c, 0, 64, 100
1, 233145, Control_c, 0, 64, 75
1, 233160, Control_c, 0, 64, 46
1, 233174, Control_c, 0, 64, 27
1, 233177, Note_on_c, 0, 46, 88
1, 233182, Note_on_c, 0, 61, 85
1, 233183, Note_on_c, 0, 34, 78
1, 233184, Note_off_c, 0, 57, 62
1, 233189, Control_c, 0, 64, 44
1, 233204, Control_c, 0, 64, 57
1, 233219, Control_c, 0, 64, 62
1, 233224, Note_off_c, 0, 46, 57
1, 233226, Note_off_c, 0, 34, 59
1, 233234, Control_c, 0, 64, 66
1, 233248, Control_c, 0, 64, 72
1, 233263, Control_c, 0, 64, 80
1, 233278, Control_c, 0, 64, 87
1, 233292, Control_c, 0, 64, 93
1, 233307, Control_c, 0, 64, 97
1, 233322, Control_c, 0, 64, 101
1, 233337, Control_c, 0, 64, 105
1, 233352, Control_c, 0, 64, 101
1, 233354, Note_on_c, 0, 48, 81
1, 233363, Note_on_c, 0, 36, 69
1, 233366, Control_c, 0, 64, 83
1, 233379, Note_off_c, 0, 48, 68
1, 233381, Control_c, 0, 64, 59
1, 233386, Note_off_c, 0, 36, 57
1, 233396, Control_c, 0, 64, 0
1, 233458, Note_off_c, 0, 66, 35
1, 233486, Control_c, 0, 64, 47
1, 233501, Control_c, 0, 64, 66
1, 233515, Control_c, 0, 64, 79
1, 233530, Control_c, 0, 64, 104
1, 233538, Note_on_c, 0, 49, 93
1, 233543, Note_on_c, 0, 37, 80
1, 233544, Note_on_c, 0, 65, 77
1, 233545, Control_c, 0, 64, 127
1, 233559, Note_off_c, 0, 49, 70
1, 233571, Note_off_c, 0, 37, 67
1, 233580, Note_off_c, 0, 61, 53
1, 233693, Control_c, 0, 64, 108
1, 233708, Control_c, 0, 64, 77
1, 233723, Control_c, 0, 64, 55
1, 233738, Control_c, 0, 64, 54
1, 233753, Control_c, 0, 64, 63
1, 233758, Note_on_c, 0, 27, 94
1, 233758, Note_on_c, 0, 39, 90
1, 233764, Note_on_c, 0, 55, 83
1, 233768, Control_c, 0, 64, 69
1, 233783, Control_c, 0, 64, 80
1, 233785, Note_off_c, 0, 27, 69
1, 233785, Note_off_c, 0, 39, 68
1, 233797, Control_c, 0, 64, 98
1, 233812, Control_c, 0, 64, 127
1, 233866, Poly_aftertouch_c, 0, 66, 127
1, 233896, Poly_aftertouch_c, 0, 63, 0
1, 234006, Note_on_c, 0, 63, 75
1, 234037, Note_off_c, 0, 55, 53
1, 234059, Poly_aftertouch_c, 0, 66, 0
1, 234124, Note_off_c, 0, 65, 51
1, 234198, Note_on_c, 0, 61, 77
1, 234299, Note_off_c, 0, 61, 61
1, 234489, Note_on_c, 0, 44, 98
1, 234496, Note_on_c, 0, 51, 84
1, 234497, Note_on_c, 0, 32, 82
1, 234502, Control_c, 0, 64, 105
1, 234517, Control_c, 0, 64, 71
1, 234532, Control_c, 0, 64, 0
1, 234576, Control_c, 0, 64, 45
1, 234599, Control_c, 0, 64, 61
1, 234614, Control_c, 0, 64, 69
1, 234628, Control_c, 0, 64, 79
1, 234643, Control_c, 0, 64, 93
1, 234658, Control_c, 0, 64, 114
1, 234672, Control_c, 0, 64, 127
1, 234770, Note_off_c, 0, 51, 60
1, 234773, Note_on_c, 0, 59, 72
1, 234817, Note_off_c, 0, 44, 58
1, 234847, Note_off_c, 0, 32, 58
1, 234926, Note_off_c, 0, 63, 55
1, 234928, Note_on_c, 0, 60, 81
1, 234981, Note_off_c, 0, 59, 50
1, 235088, Control_c, 0, 64, 107
1, 235095, Note_on_c, 0, 57, 70
1, 235101, Note_on_c, 0, 41, 93
1, 235103, Control_c, 0, 64, 78
1, 235109, Note_on_c, 0, 29, 75
1, 235118, Control_c, 0, 64, 56
1, 235133, Control_c, 0, 64, 0
1, 235148, Control_c, 0, 64, 30
1, 235162, Control_c, 0, 64, 55
1, 235177, Control_c, 0, 64, 63
1, 235192, Control_c, 0, 64, 68
1, 235206, Control_c, 0, 64, 76
1, 235221, Control_c, 0, 64, 87
1, 235229, Note_off_c, 0, 29, 61
1, 235235, Note_off_c, 0, 41, 58
1, 235235, Control_c, 0, 64, 98
1, 235250, Control_c, 0, 64, 115
1, 235263, Note_off_c, 0, 57, 52
1, 235265, Control_c, 0, 64, 127
1, 235270, Note_on_c, 0, 61, 76
1, 235283, Note_on_c, 0, 58, 71
1, 235310, Note_off_c, 0, 60, 61
1, 235445, Note_on_c, 0, 60, 67
1, 235447, Note_on_c, 0, 63, 79
1, 235554, Note_off_c, 0, 58, 30
1, 235554, Note_off_c, 0, 60, 57
1, 235640, Note_on_c, 0, 46, 91
1, 235646, Note_on_c, 0, 34, 83
1, 235658, Control_c, 0, 64, 100
1, 235673, Control_c, 0, 64, 73
1, 235687, Control_c, 0, 64, 43
1, 235702, Note_off_c, 0, 61, 16
1, 235702, Control_c, 0, 64, 0
1, 235732, Control_c, 0, 64, 41
1, 235747, Control_c, 0, 64, 56
1, 235761, Control_c, 0, 64, 64
1, 235776, Control_c, 0, 64, 71
1, 235791, Control_c, 0, 64, 84
1, 235806, Control_c, 0, 64, 105
1, 235821, Control_c, 0, 64, 127
1, 235832, Note_on_c, 0, 60, 72
1, 235833, Note_on_c, 0, 57, 68
1, 235869, Note_off_c, 0, 63, 52
1, 235925, Note_off_c, 0, 46, 62
1, 235948, Note_off_c, 0, 34, 58
1, 235967, Note_off_c, 0, 57, 61
1, 235999, Note_on_c, 0, 61, 73
1, 236009, Note_on_c, 0, 58, 67
1, 236028, Note_off_c, 0, 60, 63
1, 236045, Note_off_c, 0, 58, 62
1, 236218, Note_on_c, 0, 51, 88
1, 236224, Note_on_c, 0, 43, 86
1, 236233, Note_on_c, 0, 31, 67
1, 236244, Control_c, 0, 64, 105
1, 236258, Control_c, 0, 64, 76
1, 236273, Control_c, 0, 64, 50
1, 236288, Control_c, 0, 64, 0
1, 236317, Control_c, 0, 64, 35
1, 236332, Control_c, 0, 64, 56
1, 236347, Control_c, 0, 64, 65
1, 236362, Control_c, 0, 64, 74
1, 236375, Note_off_c, 0, 31, 58
1, 236377, Control_c, 0, 64, 88
1, 236387, Note_off_c, 0, 43, 59
1, 236391, Control_c, 0, 64, 115
1, 236406, Control_c, 0, 64, 127
1, 236436, Note_on_c, 0, 58, 68
1, 236597, Note_on_c, 0, 63, 72
1, 236602, Note_off_c, 0, 51, 61
1, 236635, Note_off_c, 0, 58, 61
1, 236660, Note_off_c, 0, 63, 61
1, 236666, Note_off_c, 0, 61, 36
1, 236782, Note_on_c, 0, 56, 98
1, 236787, Note_on_c, 0, 48, 88
1, 236793, Control_c, 0, 64, 90
1, 236796, Note_on_c, 0, 36, 76
1, 236807, Control_c, 0, 64, 67
1, 236822, Control_c, 0, 64, 29
1, 236844, Control_c, 0, 64, 25
1, 236859, Control_c, 0, 64, 52
1, 236874, Control_c, 0, 64, 63
1, 236889, Control_c, 0, 64, 68
1, 236904, Control_c, 0, 64, 75
1, 236919, Control_c, 0, 64, 85
1, 236933, Control_c, 0, 64, 100
1, 236948, Control_c, 0, 64, 127
1, 236973, Note_off_c, 0, 36, 53
1, 236984, Note_off_c, 0, 48, 59
1, 236992, Note_on_c, 0, 62, 59
1, 237150, Note_off_c, 0, 62, 52
1, 237163, Note_on_c, 0, 60, 63
1, 237168, Note_off_c, 0, 56, 58
1, 237285, Note_off_c, 0, 60, 56
1, 237318, Control_c, 0, 64, 83
1, 237333, Control_c, 0, 64, 56
1, 237336, Note_on_c, 0, 53, 82
1, 237341, Note_on_c, 0, 46, 86
1, 237345, Note_on_c, 0, 34, 76
1, 237345, Note_on_c, 0, 62, 67
1, 237348, Control_c, 0, 64, 0
1, 237378, Control_c, 0, 64, 49
1, 237379, Note_off_c, 0, 46, 63
1, 237382, Note_off_c, 0, 34, 64
1, 237393, Control_c, 0, 64, 62
1, 237407, Control_c, 0, 64, 68
1, 237422, Control_c, 0, 64, 77
1, 237437, Control_c, 0, 64, 91
1, 237437, Poly_aftertouch_c, 0, 60, 127
1, 237452, Control_c, 0, 64, 106
1, 237467, Control_c, 0, 64, 127
1, 237582, Note_on_c, 0, 63, 54
1, 237700, Note_on_c, 0, 44, 74
1, 237702, Note_on_c, 0, 32, 72
1, 237703, Note_off_c, 0, 53, 62
1, 237717, Note_on_c, 0, 65, 74
1, 237729, Note_off_c, 0, 44, 63
1, 237733, Note_off_c, 0, 32, 63
1, 237744, Note_on_c, 0, 42, 17
1, 237748, Note_off_c, 0, 62, 52
1, 237768, Poly_aftertouch_c, 0, 60, 0
1, 237790, Note_off_c, 0, 42, 49
1, 237802, Note_off_c, 0, 63, 33
1, 237830, Control_c, 0, 64, 102
1, 237845, Control_c, 0, 64, 70
1, 237860, Control_c, 0, 64, 0
1, 237890, Note_on_c, 0, 43, 91
1, 237892, Note_on_c, 0, 58, 75
1, 237899, Note_on_c, 0, 31, 72
1, 237904, Control_c, 0, 64, 42
1, 237919, Control_c, 0, 64, 61
1, 237934, Control_c, 0, 64, 71
1, 237949, Control_c, 0, 64, 88
1, 237961, Note_off_c, 0, 31, 0
1, 237963, Control_c, 0, 64, 127
1, 237972, Note_off_c, 0, 65, 34
1, 237998, Poly_aftertouch_c, 0, 31, 127
1, 238052, Note_on_c, 0, 63, 31
1, 238052, Poly_aftertouch_c, 0, 31, 0
1, 238067, Note_off_c, 0, 43, 57
1, 238230, Control_c, 0, 67, 10
1, 238239, Note_on_c, 0, 61, 55
1, 238245, Control_c, 0, 67, 17
1, 238261, Control_c, 0, 67, 27
1, 238276, Control_c, 0, 67, 40
1, 238291, Control_c, 0, 67, 53
1, 238305, Control_c, 0, 67, 66
1, 238320, Control_c, 0, 67, 79
1, 238343, Control_c, 0, 67, 95
1, 238358, Control_c, 0, 67, 112
1, 238373, Control_c, 0, 67, 124
1, 238375, Note_off_c, 0, 58, 37
1, 238387, Control_c, 0, 64, 82
1, 238387, Control_c, 0, 67, 127
1, 238402, Control_c, 0, 64, 55
1, 238417, Control_c, 0, 64, 0
1, 238445, Note_off_c, 0, 63, 32
1, 238462, Note_on_c, 0, 42, 48
1, 238463, Note_on_c, 0, 30, 44
1, 238467, Note_on_c, 0, 68, 56
1, 238489, Note_off_c, 0, 61, 49
1, 238594, Control_c, 0, 64, 52
1, 238609, Control_c, 0, 64, 66
1, 238624, Control_c, 0, 64, 75
1, 238633, Note_on_c, 0, 60, 46
1, 238639, Control_c, 0, 64, 90
1, 238654, Control_c, 0, 64, 109
1, 238669, Control_c, 0, 64, 127
1, 238749, Note_off_c, 0, 60, 55
1, 238809, Note_off_c, 0, 30, 34
1, 238813, Note_on_c, 0, 63, 48
1, 238818, Note_off_c, 0, 68, 62
1, 238820, Note_off_c, 0, 42, 38
1, 238837, Note_off_c, 0, 63, 60
1, 238950, Control_c, 0, 64, 102
1, 238965, Control_c, 0, 64, 75
1, 238974, Note_on_c, 0, 73, 71
1, 238979, Control_c, 0, 64, 51
1, 238982, Note_on_c, 0, 41, 55
1, 238988, Note_on_c, 0, 61, 52
1, 238993, Note_on_c, 0, 29, 46
1, 238994, Control_c, 0, 64, 28
1, 239009, Control_c, 0, 64, 50
1, 239024, Control_c, 0, 64, 61
1, 239038, Control_c, 0, 64, 66
1, 239055, Control_c, 0, 64, 74
1, 239070, Control_c, 0, 64, 83
1, 239092, Control_c, 0, 64, 94
1, 239107, Control_c, 0, 64, 106
1, 239107, Control_c, 0, 67, 126
1, 239122, Control_c, 0, 64, 127
1, 239122, Control_c, 0, 67, 122
1, 239136, Control_c, 0, 67, 117
1, 239142, Note_off_c, 0, 41, 35
1, 239144, Note_off_c, 0, 61, 55
1, 239151, Control_c, 0, 67, 112
1, 239166, Control_c, 0, 67, 106
1, 239172, Note_on_c, 0, 70, 57
1, 239179, Note_off_c, 0, 29, 39
1, 239181, Control_c, 0, 67, 99
1, 239196, Control_c, 0, 67, 91
1, 239210, Control_c, 0, 67, 83
1, 239225, Control_c, 0, 67, 77
1, 239240, Control_c, 0, 67, 70
1, 239255, Control_c, 0, 67, 62
1, 239269, Control_c, 0, 67, 56
1, 239284, Control_c, 0, 67, 52
1, 239289, Note_off_c, 0, 70, 54
1, 239299, Control_c, 0, 67, 48
1, 239314, Control_c, 0, 67, 44
1, 239329, Control_c, 0, 67, 40
1, 239331, Note_on_c, 0, 40, 67
1, 239334, Note_on_c, 0, 28, 61
1, 239342, Note_on_c, 0, 68, 69
1, 239343, Control_c, 0, 67, 34
1, 239358, Control_c, 0, 67, 31
1, 239363, Note_off_c, 0, 40, 60
1, 239370, Note_off_c, 0, 28, 59
1, 239373, Control_c, 0, 67, 28
1, 239388, Control_c, 0, 67, 27
1, 239393, Note_off_c, 0, 73, 53
1, 239403, Control_c, 0, 67, 26
1, 239417, Control_c, 0, 67, 26
1, 239432, Control_c, 0, 67, 25
1, 239447, Control_c, 0, 67, 25
1, 239461, Control_c, 0, 67, 24
1, 239476, Control_c, 0, 64, 88
1, 239476, Control_c, 0, 67, 24
1, 239491, Control_c, 0, 64, 67
1, 239491, Control_c, 0, 67, 23
1, 239506, Control_c, 0, 64, 32
1, 239512, Note_on_c, 0, 70, 80
1, 239521, Control_c, 0, 64, 30
1, 239523, Note_on_c, 0, 27, 71
1, 239526, Note_on_c, 0, 39, 68
1, 239527, Note_on_c, 0, 67, 71
1, 239536, Control_c, 0, 64, 54
1, 239544, Note_off_c, 0, 68, 37
1, 239551, Control_c, 0, 64, 64
1, 239551, Control_c, 0, 67, 22
1, 239566, Control_c, 0, 64, 70
1, 239581, Control_c, 0, 64, 79
1, 239596, Control_c, 0, 64, 89
1, 239610, Control_c, 0, 64, 101
1, 239625, Control_c, 0, 64, 120
1, 239640, Control_c, 0, 64, 127
1, 239652, Note_off_c, 0, 27, 53
1, 239692, Note_on_c, 0, 65, 65
1, 239700, Note_off_c, 0, 67, 38
1, 239703, Note_off_c, 0, 39, 30
1, 239816, Control_c, 0, 67, 21
1, 239839, Control_c, 0, 67, 20
1, 239840, Note_off_c, 0, 65, 59
1, 239851, Note_on_c, 0, 37, 70
1, 239854, Control_c, 0, 67, 17
1, 239857, Note_on_c, 0, 25, 64
1, 239861, Note_on_c, 0, 67, 74
1, 239870, Control_c, 0, 67, 12
1, 239884, Control_c, 0, 67, 8
1, 239899, Control_c, 0, 67, 0
1, 239900, Note_off_c, 0, 70, 60
1, 239923, Note_off_c, 0, 37, 58
1, 239925, Note_off_c, 0, 25, 59
1, 240003, Control_c, 0, 64, 79
1, 240018, Control_c, 0, 64, 49
1, 240032, Control_c, 0, 64, 0
1, 240034, Note_on_c, 0, 36, 90
1, 240035, Note_on_c, 0, 75, 83
1, 240039, Note_on_c, 0, 24, 74
1, 240062, Control_c, 0, 64, 49
1, 240076, Note_off_c, 0, 24, 61
1, 240077, Control_c, 0, 64, 63
1, 240082, Note_off_c, 0, 36, 61
1, 240091, Control_c, 0, 64, 72
1, 240106, Control_c, 0, 64, 84
1, 240121, Control_c, 0, 64, 103
1, 240136, Control_c, 0, 64, 127
1, 240198, Note_on_c, 0, 70, 71
1, 240243, Note_off_c, 0, 75, 57
1, 240266, Note_off_c, 0, 67, 52
1, 240338, Note_off_c, 0, 70, 62
1, 240359, Note_on_c, 0, 56, 90
1, 240365, Note_on_c, 0, 44, 73
1, 240365, Note_on_c, 0, 68, 78
1, 240366, Note_on_c, 0, 72, 77
1, 240397, Note_off_c, 0, 44, 64
1, 240405, Note_off_c, 0, 56, 60
1, 240417, Note_off_c, 0, 68, 64
1, 240424, Note_off_c, 0, 72, 62
1, 240491, Control_c, 0, 64, 107
1, 240506, Control_c, 0, 64, 74
1, 240521, Control_c, 0, 64, 34
1, 240536, Control_c, 0, 64, 0
1, 240550, Control_c, 0, 64, 14
1, 240552, Note_on_c, 0, 77, 91
1, 240555, Note_on_c, 0, 67, 88
1, 240555, Note_on_c, 0, 61, 89
1, 240558, Note_on_c, 0, 49, 85
1, 240565, Control_c, 0, 64, 60
1, 240588, Control_c, 0, 64, 70
1, 240603, Control_c, 0, 64, 82
1, 240617, Control_c, 0, 64, 100
1, 240618, Note_off_c, 0, 61, 63
1, 240624, Note_off_c, 0, 67, 54
1, 240627, Note_off_c, 0, 49, 59
1, 240632, Control_c, 0, 64, 127
1, 240699, Poly_aftertouch_c, 0, 76, 0
1, 240728, Note_on_c, 0, 65, 80
1, 240857, Note_off_c, 0, 65, 57
1, 240879, Note_off_c, 0, 77, 56
1, 240888, Note_on_c, 0, 58, 92
1, 240890, Note_on_c, 0, 70, 78
1, 240890, Note_on_c, 0, 73, 82
1, 240892, Note_on_c, 0, 46, 81
1, 240913, Note_off_c, 0, 70, 70
1, 240928, Note_off_c, 0, 46, 64
1, 240931, Note_off_c, 0, 58, 64
1, 240936, Note_off_c, 0, 73, 65
1, 241033, Control_c, 0, 64, 96
1, 241048, Control_c, 0, 64, 64
1, 241062, Control_c, 0, 64, 0
1, 241077, Control_c, 0, 64, 18
1, 241080, Note_on_c, 0, 79, 87
1, 241081, Note_on_c, 0, 68, 88
1, 241090, Note_on_c, 0, 63, 93
1, 241092, Note_on_c, 0, 51, 83
1, 241092, Control_c, 0, 64, 55
1, 241107, Control_c, 0, 64, 65
1, 241122, Control_c, 0, 64, 74
1, 241137, Control_c, 0, 64, 88
1, 241152, Control_c, 0, 64, 118
1, 241167, Control_c, 0, 64, 127
1, 241187, Note_off_c, 0, 51, 58
1, 241187, Note_off_c, 0, 68, 61
1, 241191, Note_off_c, 0, 63, 61
1, 241247, Note_on_c, 0, 67, 83
1, 241311, Poly_aftertouch_c, 0, 77, 127
1, 241378, Note_off_c, 0, 67, 59
1, 241378, Poly_aftertouch_c, 0, 77, 0
1, 241382, Note_off_c, 0, 79, 52
1, 241411, Note_on_c, 0, 72, 81
1, 241418, Note_on_c, 0, 60, 86
1, 241418, Note_on_c, 0, 75, 75
1, 241423, Note_on_c, 0, 48, 70
1, 241456, Note_off_c, 0, 48, 64
1, 241456, Note_off_c, 0, 60, 61
1, 241590, Control_c, 0, 64, 102
1, 241591, Note_off_c, 0, 72, 0
1, 241605, Control_c, 0, 64, 72
1, 241611, Note_off_c, 0, 75, 62
1, 241618, Note_on_c, 0, 80, 85
1, 241620, Control_c, 0, 64, 0
1, 241623, Note_on_c, 0, 65, 95
1, 241625, Note_on_c, 0, 53, 82
1, 241628, Poly_aftertouch_c, 0, 72, 127
1, 241649, Control_c, 0, 64, 17
1, 241664, Control_c, 0, 64, 54
1, 241679, Control_c, 0, 64, 64
1, 241694, Control_c, 0, 64, 70
1, 241709, Control_c, 0, 64, 83
1, 241723, Control_c, 0, 64, 96
1, 241738, Control_c, 0, 64, 112
1, 241753, Control_c, 0, 64, 127
1, 241785, Poly_aftertouch_c, 0, 72, 0
1, 241796, Note_off_c, 0, 53, 60
1, 241799, Note_on_c, 0, 79, 80
1, 241805, Note_on_c, 0, 75, 74
1, 241822, Note_off_c, 0, 65, 59
1, 241885, Note_off_c, 0, 80, 39
1, 241965, Note_on_c, 0, 77, 78
1, 241968, Note_on_c, 0, 73, 84
1, 241971, Note_off_c, 0, 79, 59
1, 241975, Note_on_c, 0, 67, 86
1, 241980, Note_on_c, 0, 55, 72
1, 241980, Note_off_c, 0, 75, 57
1, 242017, Note_off_c, 0, 55, 60
1, 242022, Note_off_c, 0, 67, 60
1, 242145, Control_c, 0, 64, 98
1, 242160, Control_c, 0, 64, 71
1, 242174, Note_on_c, 0, 68, 88
1, 242175, Control_c, 0, 64, 37
1, 242177, Note_on_c, 0, 56, 78
1, 242190, Control_c, 0, 64, 0
1, 242204, Control_c, 0, 64, 22
1, 242219, Control_c, 0, 64, 53
1, 242234, Control_c, 0, 64, 63
1, 242249, Control_c, 0, 64, 69
1, 242265, Control_c, 0, 64, 76
1, 242279, Control_c, 0, 64, 87
1, 242287, Note_off_c, 0, 68, 62
1, 242294, Control_c, 0, 64, 99
1, 242309, Control_c, 0, 64, 111
1, 242317, Note_off_c, 0, 73, 39
1, 242324, Control_c, 0, 64, 127
1, 242328, Note_off_c, 0, 56, 59
1, 242335, Note_on_c, 0, 75, 77
1, 242340, Note_on_c, 0, 72, 69
1, 242387, Note_off_c, 0, 72, 53
1, 242493, Note_on_c, 0, 52, 80
1, 242495, Note_on_c, 0, 64, 82
1, 242500, Note_on_c, 0, 70, 81
1, 242504, Note_on_c, 0, 73, 75
1, 242527, Note_off_c, 0, 64, 61
1, 242532, Note_off_c, 0, 52, 61
1, 242536, Note_off_c, 0, 77, 26
1, 242582, Note_off_c, 0, 75, 37
1, 242586, Note_off_c, 0, 73, 48
1, 242588, Note_off_c, 0, 70, 57
1, 242668, Note_on_c, 0, 65, 95
1, 242672, Note_on_c, 0, 53, 76
1, 242681, Note_on_c, 0, 72, 76
1, 242687, Note_on_c, 0, 68, 71
1, 242709, Note_off_c, 0, 53, 65
1, 242710, Note_off_c, 0, 65, 61
1, 242761, Note_off_c, 0, 68, 60
1, 242767, Control_c, 0, 64, 107
1, 242782, Control_c, 0, 64, 77
1, 242797, Control_c, 0, 64, 56
1, 242812, Control_c, 0, 64, 45
1, 242833, Control_c, 0, 64, 57
1, 242834, Note_off_c, 0, 72, 46
1, 242836, Note_on_c, 0, 73, 78
1, 242839, Note_on_c, 0, 61, 88
1, 242844, Note_on_c, 0, 49, 75
1, 242848, Control_c, 0, 64, 64
1, 242850, Note_on_c, 0, 68, 65
1, 242863, Control_c, 0, 64, 69
1, 242878, Control_c, 0, 64, 78
1, 242878, Note_on_c, 0, 51, 36
1, 242883, Note_off_c, 0, 49, 63
1, 242891, Note_off_c, 0, 61, 61
1, 242892, Control_c, 0, 64, 91
1, 242907, Control_c, 0, 64, 108
1, 242915, Note_off_c, 0, 51, 55
1, 242922, Control_c, 0, 64, 127
1, 242927, Note_off_c, 0, 68, 54
1, 242931, Note_off_c, 0, 73, 60
1, 242998, Note_on_c, 0, 62, 80
1, 243008, Note_on_c, 0, 70, 82
1, 243011, Note_on_c, 0, 50, 55
1, 243034, Note_on_c, 0, 68, 45
1, 243038, Note_off_c, 0, 50, 60
1, 243046, Note_off_c, 0, 62, 60
1, 243060, Note_off_c, 0, 70, 63
1, 243068, Note_off_c, 0, 68, 53
1, 243105, Note_on_c, 0, 51, 89
1, 243144, Note_on_c, 0, 50, 27
1, 243185, Note_off_c, 0, 50, 52
1, 243220, Control_c, 0, 64, 111
1, 243235, Control_c, 0, 64, 75
1, 243248, Note_on_c, 0, 63, 87
1, 243249, Control_c, 0, 64, 46
1, 243261, Note_on_c, 0, 67, 95
1, 243263, Note_on_c, 0, 72, 87
1, 243264, Control_c, 0, 64, 0
1, 243279, Control_c, 0, 64, 16
1, 243294, Control_c, 0, 64, 52
1, 243297, Poly_aftertouch_c, 0, 57, 127
1, 243308, Control_c, 0, 64, 62
1, 243323, Control_c, 0, 64, 69
1, 243338, Control_c, 0, 64, 78
1, 243352, Poly_aftertouch_c, 0, 57, 0
1, 243353, Control_c, 0, 64, 89
1, 243368, Control_c, 0, 64, 104
1, 243382, Control_c, 0, 64, 127
1, 243384, Note_off_c, 0, 72, 54
1, 243427, Note_on_c, 0, 70, 76
1, 243485, Note_off_c, 0, 70, 63
1, 243498, Note_on_c, 0, 72, 73
1, 243548, Note_off_c, 0, 72, 59
1, 243550, Note_on_c, 0, 70, 71
1, 243556, Note_off_c, 0, 63, 61
1, 243585, Note_off_c, 0, 67, 38
1, 243599, Note_off_c, 0, 70, 62
1, 243617, Note_on_c, 0, 72, 67
1, 243640, Note_off_c, 0, 51, 62
1, 243661, Note_on_c, 0, 70, 78
1, 243668, Note_off_c, 0, 72, 63
1, 243712, Note_off_c, 0, 70, 64
1, 243725, Note_on_c, 0, 69, 72
1, 243772, Note_on_c, 0, 70, 82
1, 243783, Note_off_c, 0, 69, 65
1, 243882, Note_off_c, 0, 70, 59
1, 243889, Note_on_c, 0, 73, 96
1, 243890, Note_on_c, 0, 51, 89
1, 243891, Note_on_c, 0, 67, 82
1, 243893, Note_on_c, 0, 39, 82
1, 243894, Control_c, 0, 64, 123
1, 243909, Control_c, 0, 64, 83
1, 243924, Control_c, 0, 64, 57
1, 243939, Control_c, 0, 64, 0
1, 243998, Control_c, 0, 67, 8
1, 244013, Control_c, 0, 67, 9
1, 244028, Control_c, 0, 67, 9
1, 244043, Control_c, 0, 64, 38
1, 244043, Control_c, 0, 67, 10
1, 244057, Control_c, 0, 64, 62
1, 244057, Control_c, 0, 67, 11
1, 244072, Control_c, 0, 64, 72
1, 244087, Control_c, 0, 64, 91
1, 244102, Control_c, 0, 64, 125
1, 244117, Control_c, 0, 64, 127
1, 244146, Control_c, 0, 67, 12
1, 244176, Control_c, 0, 67, 13
1, 244192, Control_c, 0, 67, 15
1, 244206, Control_c, 0, 67, 17
1, 244210, Note_off_c, 0, 67, 59
1, 244210, Note_on_c, 0, 70, 77
1, 244221, Control_c, 0, 67, 22
1, 244236, Control_c, 0, 67, 26
1, 244250, Control_c, 0, 67, 31
1, 244256, Note_off_c, 0, 73, 62
1, 244265, Control_c, 0, 67, 35
1, 244280, Control_c, 0, 67, 37
1, 244295, Control_c, 0, 67, 39
1, 244310, Control_c, 0, 67, 39
1, 244347, Control_c, 0, 67, 40
1, 244384, Note_on_c, 0, 67, 73
1, 244392, Control_c, 0, 67, 40
1, 244406, Control_c, 0, 67, 41
1, 244421, Control_c, 0, 67, 42
1, 244436, Control_c, 0, 67, 42
1, 244450, Control_c, 0, 67, 43
1, 244474, Note_off_c, 0, 70, 34
1, 244523, Note_off_c, 0, 67, 61
1, 244543, Note_on_c, 0, 61, 75
1, 244720, Note_on_c, 0, 58, 71
1, 244731, Note_off_c, 0, 61, 59
1, 244807, Control_c, 0, 67, 42
1, 244815, Note_off_c, 0, 51, 34
1, 244836, Control_c, 0, 67, 42
1, 244866, Control_c, 0, 67, 41
1, 244881, Note_on_c, 0, 55, 69
1, 244911, Control_c, 0, 67, 41
1, 244920, Note_off_c, 0, 58, 63
1, 245054, Note_on_c, 0, 49, 72
1, 245059, Control_c, 0, 67, 40
1, 245079, Note_off_c, 0, 55, 54
1, 245140, Control_c, 0, 67, 40
1, 245213, Note_on_c, 0, 46, 72
1, 245214, Control_c, 0, 67, 39
1, 245288, Control_c, 0, 67, 39
1, 245299, Note_off_c, 0, 49, 37
1, 245333, Control_c, 0, 67, 38
1, 245371, Note_on_c, 0, 43, 78
1, 245391, Control_c, 0, 67, 38
1, 245397, Note_off_c, 0, 39, 55
1, 245421, Control_c, 0, 67, 37
1, 245448, Note_off_c, 0, 46, 55
1, 245467, Control_c, 0, 67, 37
1, 245496, Control_c, 0, 67, 36
1, 245541, Note_on_c, 0, 39, 67
1, 245584, Note_off_c, 0, 43, 57
1, 245600, Control_c, 0, 67, 37
1, 245615, Control_c, 0, 67, 37
1, 245644, Control_c, 0, 64, 94
1, 245659, Control_c, 0, 64, 75
1, 245674, Control_c, 0, 64, 62
1, 245674, Control_c, 0, 67, 38
1, 245689, Control_c, 0, 64, 52
1, 245702, Note_on_c, 0, 43, 77
1, 245703, Control_c, 0, 64, 54
1, 245718, Control_c, 0, 64, 56
1, 245733, Control_c, 0, 64, 60
1, 245748, Control_c, 0, 64, 64
1, 245763, Control_c, 0, 64, 70
1, 245763, Control_c, 0, 67, 37
1, 245777, Control_c, 0, 64, 79
1, 245792, Control_c, 0, 64, 94
1, 245807, Control_c, 0, 64, 111
1, 245829, Control_c, 0, 64, 127
1, 245863, Note_on_c, 0, 46, 74
1, 245933, Control_c, 0, 67, 38
1, 246026, Note_on_c, 0, 49, 75
1, 246051, Control_c, 0, 67, 38
1, 246140, Control_c, 0, 67, 39
1, 246170, Note_off_c, 0, 49, 60
1, 246172, Note_on_c, 0, 55, 72
1, 246259, Control_c, 0, 67, 38
1, 246289, Control_c, 0, 67, 38
1, 246304, Control_c, 0, 67, 37
1, 246333, Control_c, 0, 67, 37
1, 246341, Note_on_c, 0, 58, 75
1, 246348, Control_c, 0, 67, 36
1, 246353, Note_off_c, 0, 55, 59
1, 246363, Control_c, 0, 67, 36
1, 246380, Note_off_c, 0, 58, 63
1, 246407, Control_c, 0, 67, 35
1, 246422, Control_c, 0, 67, 35
1, 246496, Control_c, 0, 67, 34
1, 246523, Note_on_c, 0, 61, 74
1, 246526, Control_c, 0, 67, 33
1, 246541, Control_c, 0, 67, 32
1, 246556, Control_c, 0, 67, 31
1, 246578, Control_c, 0, 67, 29
1, 246593, Control_c, 0, 67, 27
1, 246607, Control_c, 0, 67, 25
1, 246622, Control_c, 0, 67, 24
1, 246637, Control_c, 0, 67, 21
1, 246651, Control_c, 0, 67, 17
1, 246666, Control_c, 0, 67, 11
1, 246681, Control_c, 0, 67, 0
1, 246692, Note_on_c, 0, 67, 84
1, 246872, Note_on_c, 0, 70, 83
1, 246962, Note_off_c, 0, 67, 59
1, 246976, Note_off_c, 0, 61, 40
1, 246996, Note_off_c, 0, 39, 35
1, 246996, Note_off_c, 0, 70, 59
1, 247028, Note_off_c, 0, 46, 32
1, 247035, Note_off_c, 0, 43, 49
1, 247179, Note_on_c, 0, 73, 84
1, 247191, Note_on_c, 0, 61, 58
1, 247191, Note_on_c, 0, 70, 71
1, 247197, Note_on_c, 0, 51, 53
1, 247197, Note_on_c, 0, 67, 65
1, 247200, Note_on_c, 0, 39, 50
1, 247564, Control_c, 0, 67, 9
1, 247578, Control_c, 0, 67, 9
1, 247593, Control_c, 0, 67, 10
1, 247667, Control_c, 0, 67, 10
1, 247712, Control_c, 0, 67, 11
1, 247727, Control_c, 0, 67, 11
1, 247741, Control_c, 0, 67, 12
1, 247756, Control_c, 0, 67, 14
1, 247771, Control_c, 0, 67, 16
1, 247786, Control_c, 0, 67, 17
1, 247800, Control_c, 0, 67, 20
1, 247815, Control_c, 0, 67, 23
1, 247830, Control_c, 0, 67, 26
1, 247846, Control_c, 0, 67, 29
1, 247847, Note_off_c, 0, 61, 38
1, 247861, Control_c, 0, 67, 33
1, 247876, Control_c, 0, 67, 37
1, 247890, Control_c, 0, 67, 41
1, 247905, Control_c, 0, 67, 45
1, 247920, Control_c, 0, 67, 51
1, 247936, Control_c, 0, 67, 55
1, 247951, Control_c, 0, 67, 60
1, 247965, Control_c, 0, 67, 64
1, 247980, Control_c, 0, 67, 67
1, 247995, Control_c, 0, 67, 70
1, 248010, Control_c, 0, 67, 73
1, 248024, Control_c, 0, 67, 76
1, 248039, Control_c, 0, 67, 79
1, 248054, Control_c, 0, 67, 82
1, 248076, Control_c, 0, 67, 86
1, 248091, Control_c, 0, 67, 90
1, 248106, Control_c, 0, 67, 94
1, 248121, Control_c, 0, 67, 98
1, 248136, Control_c, 0, 67, 103
1, 248151, Control_c, 0, 67, 107
1, 248165, Control_c, 0, 67, 111
1, 248180, Control_c, 0, 67, 114
1, 248195, Control_c, 0, 67, 118
1, 248210, Control_c, 0, 67, 122
1, 248224, Control_c, 0, 67, 127
1, 248239, Control_c, 0, 67, 127
1, 248427, Note_off_c, 0, 51, 38
1, 248500, Note_off_c, 0, 67, 35
1, 248518, Note_off_c, 0, 70, 38
1, 248529, Note_off_c, 0, 73, 29
1, 248710, Note_off_c, 0, 39, 28
1, 250385, Note_on_c, 0, 74, 41
1, 250396, Control_c, 0, 64, 110
1, 250398, Note_on_c, 0, 38, 30
1, 250401, Note_on_c, 0, 50, 34
1, 250404, Note_on_c, 0, 62, 27
1, 250411, Control_c, 0, 64, 91
1, 250412, Note_on_c, 0, 67, 38
1, 250416, Note_on_c, 0, 70, 35
1, 250425, Control_c, 0, 64, 74
1, 250440, Control_c, 0, 64, 57
1, 250455, Control_c, 0, 64, 0
1, 250589, Control_c, 0, 64, 21
1, 250604, Control_c, 0, 64, 48
1, 250618, Control_c, 0, 64, 61
1, 250619, Note_off_c, 0, 70, 16
1, 250633, Control_c, 0, 64, 67
1, 250648, Control_c, 0, 64, 75
1, 250663, Control_c, 0, 64, 82
1, 250678, Control_c, 0, 64, 88
1, 250692, Control_c, 0, 64, 93
1, 250707, Control_c, 0, 64, 97
1, 250722, Control_c, 0, 64, 102
1, 250737, Control_c, 0, 64, 107
1, 250752, Control_c, 0, 64, 115
1, 250766, Control_c, 0, 64, 127
1, 250811, Note_on_c, 0, 70, 47
1, 250881, Note_off_c, 0, 67, 41
1, 251021, Note_off_c, 0, 62, 34
1, 251043, Note_on_c, 0, 67, 44
1, 251167, Note_off_c, 0, 74, 45
1, 251225, Note_off_c, 0, 67, 59
1, 251250, Note_off_c, 0, 70, 18
1, 251298, Note_on_c, 0, 62, 45
1, 251553, Note_on_c, 0, 58, 46
1, 251665, Note_off_c, 0, 62, 33
1, 251720, Note_off_c, 0, 50, 40
1, 251797, Note_on_c, 0, 55, 42
1, 251867, Note_off_c, 0, 58, 59
1, 252012, Note_off_c, 0, 55, 47
1, 252056, Note_off_c, 0, 38, 26
1, 252070, Note_on_c, 0, 50, 38
1, 252357, Note_on_c, 0, 46, 41
1, 252659, Note_on_c, 0, 43, 49
1, 252988, Note_on_c, 0, 38, 39
1, 253049, Note_off_c, 0, 38, 55
1, 253057, Note_off_c, 0, 50, 46
1, 253060, Note_off_c, 0, 43, 40
1, 253073, Note_off_c, 0, 46, 44
1, 253330, Note_on_c, 0, 62, 40
1, 253336, Note_on_c, 0, 46, 36
1, 253338, Note_on_c, 0, 38, 35
1, 253341, Note_on_c, 0, 58, 35
1, 253350, Note_on_c, 0, 55, 27
1, 253357, Note_on_c, 0, 34, 34
1, 253449, Note_off_c, 0, 34, 38
1, 253484, Note_off_c, 0, 46, 32
1, 253494, Note_off_c, 0, 58, 42
1, 253497, Note_off_c, 0, 55, 33
1, 253499, Note_off_c, 0, 38, 37
1, 253507, Note_off_c, 0, 62, 32
1, 253641, Note_on_c, 0, 62, 45
1, 253657, Note_on_c, 0, 38, 48
1, 253659, Note_on_c, 0, 55, 38
1, 253661, Note_on_c, 0, 58, 43
1, 253662, Note_on_c, 0, 46, 43
1, 253680, Note_on_c, 0, 34, 40
1, 253716, Note_off_c, 0, 55, 56
1, 253716, Note_off_c, 0, 58, 56
1, 253720, Note_off_c, 0, 46, 56
1, 253730, Note_off_c, 0, 34, 53
1, 253735, Note_off_c, 0, 38, 55
1, 253746, Note_off_c, 0, 62, 51
1, 253953, Note_on_c, 0, 62, 52
1, 253956, Note_on_c, 0, 46, 62
1, 253962, Note_on_c, 0, 38, 58
1, 253965, Note_on_c, 0, 58, 54
1, 253970, Note_on_c, 0, 55, 49
1, 253981, Note_on_c, 0, 34, 44
1, 254032, Note_off_c, 0, 46, 62
1, 254035, Note_off_c, 0, 38, 60
1, 254041, Note_off_c, 0, 55, 52
1, 254059, Note_off_c, 0, 58, 54
1, 254072, Note_off_c, 0, 34, 53
1, 254109, Note_off_c, 0, 62, 37
1, 254267, Note_on_c, 0, 31, 64
1, 254273, Note_on_c, 0, 43, 67
1, 254289, Note_on_c, 0, 62, 48
1, 254297, Note_on_c, 0, 58, 52
1, 254305, Note_on_c, 0, 55, 41
1, 254313, Note_off_c, 0, 43, 63
1, 254317, Note_off_c, 0, 31, 60
1, 254351, Note_off_c, 0, 55, 54
1, 254360, Note_off_c, 0, 58, 55
1, 254390, Note_off_c, 0, 62, 51
1, 254585, Control_c, 0, 64, 115
1, 254590, Note_on_c, 0, 62, 50
1, 254593, Note_on_c, 0, 50, 56
1, 254593, Note_on_c, 0, 46, 49
1, 254594, Note_on_c, 0, 58, 50
1, 254599, Note_on_c, 0, 55, 47
1, 254600, Control_c, 0, 64, 86
1, 254608, Note_on_c, 0, 43, 52
1, 254615, Control_c, 0, 64, 69
1, 254630, Control_c, 0, 64, 56
1, 254645, Control_c, 0, 64, 52
1, 254659, Control_c, 0, 64, 59
1, 254673, Control_c, 0, 64, 64
1, 254688, Control_c, 0, 64, 70
1, 254703, Control_c, 0, 64, 77
1, 254718, Control_c, 0, 64, 88
1, 254733, Control_c, 0, 64, 102
1, 254748, Control_c, 0, 64, 114
1, 254759, Note_off_c, 0, 46, 37
1, 254762, Control_c, 0, 64, 127
1, 254780, Note_off_c, 0, 43, 42
1, 254784, Note_off_c, 0, 55, 44
1, 254786, Note_off_c, 0, 50, 36
1, 254786, Note_off_c, 0, 58, 36
1, 254798, Note_off_c, 0, 62, 34
1, 254932, Control_c, 0, 64, 117
1, 254947, Control_c, 0, 64, 89
1, 254950, Note_on_c, 0, 62, 46
1, 254953, Note_on_c, 0, 46, 35
1, 254955, Note_on_c, 0, 58, 27
1, 254961, Note_on_c, 0, 50, 33
1, 254962, Control_c, 0, 64, 71
1, 254965, Note_on_c, 0, 55, 29
1, 254974, Note_on_c, 0, 43, 31
1, 254977, Control_c, 0, 64, 55
1, 254992, Control_c, 0, 64, 45
1, 255007, Control_c, 0, 64, 53
1, 255022, Control_c, 0, 64, 62
1, 255037, Control_c, 0, 64, 67
1, 255052, Control_c, 0, 64, 74
1, 255067, Control_c, 0, 64, 85
1, 255081, Control_c, 0, 64, 97
1, 255096, Control_c, 0, 64, 109
1, 255111, Control_c, 0, 64, 127
1, 255144, Note_off_c, 0, 46, 40
1, 255152, Note_off_c, 0, 50, 46
1, 255153, Note_off_c, 0, 58, 42
1, 255156, Note_off_c, 0, 55, 40
1, 255159, Note_off_c, 0, 43, 39
1, 255186, Note_off_c, 0, 62, 37
1, 255314, Note_on_c, 0, 62, 21
1, 255321, Note_on_c, 0, 46, 26
1, 255327, Note_on_c, 0, 55, 19
1, 255329, Note_on_c, 0, 50, 26
1, 255344, Note_on_c, 0, 58, 16
1, 255348, Note_on_c, 0, 43, 29
1, 255397, Note_off_c, 0, 58, 45
1, 255436, Note_off_c, 0, 46, 33
1, 255439, Note_off_c, 0, 55, 32
1, 255449, Note_off_c, 0, 43, 32
1, 255449, Note_off_c, 0, 50, 34
1, 255469, Note_off_c, 0, 62, 39
1, 255677, Note_on_c, 0, 62, 30
1, 255695, Note_on_c, 0, 55, 25
1, 255700, Note_on_c, 0, 58, 30
1, 255716, Note_on_c, 0, 50, 18
1, 255737, Note_off_c, 0, 55, 49
1, 255743, Note_off_c, 0, 58, 49
1, 255757, Poly_aftertouch_c, 0, 46, 127
1, 255789, Poly_aftertouch_c, 0, 43, 127
1, 255799, Note_off_c, 0, 50, 41
1, 255806, Note_off_c, 0, 62, 35
1, 255815, Poly_aftertouch_c, 0, 46, 0
1, 255836, Poly_aftertouch_c, 0, 43, 0
1, 255943, Note_on_c, 0, 62, 45
1, 255976, Note_off_c, 0, 62, 59
1, 256247, Note_on_c, 0, 74, 68
1, 256259, Control_c, 0, 64, 121
1, 256271, Note_on_c, 0, 50, 35
1, 256273, Note_on_c, 0, 46, 28
1, 256274, Control_c, 0, 64, 94
1, 256289, Control_c, 0, 64, 76
1, 256292, Note_on_c, 0, 43, 34
1, 256311, Control_c, 0, 64, 57
1, 256326, Control_c, 0, 64, 0
1, 256429, Control_c, 0, 64, 37
1, 256444, Control_c, 0, 64, 59
1, 256459, Control_c, 0, 64, 69
1, 256474, Control_c, 0, 64, 79
1, 256489, Control_c, 0, 64, 90
1, 256503, Control_c, 0, 64, 98
1, 256518, Control_c, 0, 64, 104
1, 256533, Control_c, 0, 64, 109
1, 256535, Note_off_c, 0, 46, 41
1, 256548, Control_c, 0, 64, 112
1, 256557, Note_off_c, 0, 50, 47
1, 256557, Note_off_c, 0, 43, 38
1, 256563, Control_c, 0, 64, 116
1, 256578, Control_c, 0, 64, 127
1, 256712, Control_c, 0, 64, 94
1, 256727, Control_c, 0, 64, 73
1, 256742, Control_c, 0, 64, 51
1, 256754, Note_on_c, 0, 50, 29
1, 256757, Control_c, 0, 64, 42
1, 256760, Note_on_c, 0, 43, 16
1, 256761, Note_on_c, 0, 46, 15
1, 256772, Control_c, 0, 64, 51
1, 256786, Control_c, 0, 64, 59
1, 256801, Control_c, 0, 64, 64
1, 256816, Control_c, 0, 64, 70
1, 256831, Control_c, 0, 64, 81
1, 256846, Control_c, 0, 64, 91
1, 256860, Control_c, 0, 64, 101
1, 256875, Control_c, 0, 64, 108
1, 256890, Control_c, 0, 64, 113
1, 256905, Control_c, 0, 64, 116
1, 256913, Note_off_c, 0, 46, 38
1, 256921, Control_c, 0, 64, 127
1, 256924, Note_off_c, 0, 43, 39
1, 256924, Note_off_c, 0, 50, 47
1, 257067, Note_on_c, 0, 50, 33
1, 257087, Note_on_c, 0, 46, 22
1, 257102, Note_on_c, 0, 43, 17
1, 257119, Note_off_c, 0, 50, 48
1, 257132, Note_off_c, 0, 46, 51
1, 257159, Note_off_c, 0, 43, 46
1, 257349, Note_on_c, 0, 46, 36
1, 257372, Note_on_c, 0, 50, 31
1, 257376, Note_on_c, 0, 43, 32
1, 257408, Note_off_c, 0, 46, 52
1, 257415, Note_off_c, 0, 50, 52
1, 257424, Note_off_c, 0, 43, 46
1, 257645, Note_on_c, 0, 46, 40
1, 257654, Note_on_c, 0, 50, 36
1, 257658, Note_on_c, 0, 43, 37
1, 257684, Note_off_c, 0, 46, 55
1, 257688, Note_off_c, 0, 50, 56
1, 257705, Note_off_c, 0, 43, 46
1, 257908, Note_on_c, 0, 72, 65
1, 257943, Note_off_c, 0, 74, 60
1, 257946, Note_on_c, 0, 46, 27
1, 257948, Note_on_c, 0, 50, 34
1, 257961, Note_on_c, 0, 43, 31
1, 257968, Note_off_c, 0, 72, 62
1, 257992, Note_off_c, 0, 50, 54
1, 257994, Note_off_c, 0, 46, 47
1, 258014, Note_off_c, 0, 43, 44
1, 258235, Note_on_c, 0, 72, 70
1, 258255, Control_c, 0, 64, 109
1, 258256, Note_on_c, 0, 50, 36
1, 258261, Note_on_c, 0, 46, 36
1, 258270, Control_c, 0, 64, 86
1, 258279, Note_on_c, 0, 43, 37
1, 258285, Control_c, 0, 64, 69
1, 258299, Control_c, 0, 64, 52
1, 258314, Control_c, 0, 64, 34
1, 258329, Control_c, 0, 64, 40
1, 258344, Control_c, 0, 64, 53
1, 258359, Control_c, 0, 64, 62
1, 258373, Control_c, 0, 64, 66
1, 258388, Control_c, 0, 64, 72
1, 258403, Control_c, 0, 64, 79
1, 258417, Control_c, 0, 64, 86
1, 258432, Control_c, 0, 64, 92
1, 258447, Control_c, 0, 64, 95
1, 258462, Control_c, 0, 64, 97
1, 258474, Note_off_c, 0, 50, 46
1, 258477, Control_c, 0, 64, 100
1, 258482, Note_off_c, 0, 46, 26
1, 258492, Note_off_c, 0, 43, 35
1, 258492, Control_c, 0, 64, 105
1, 258506, Control_c, 0, 64, 110
1, 258521, Control_c, 0, 64, 115
1, 258536, Control_c, 0, 64, 118
1, 258573, Control_c, 0, 64, 117
1, 258588, Control_c, 0, 64, 115
1, 258603, Control_c, 0, 64, 103
1, 258618, Control_c, 0, 64, 87
1, 258632, Control_c, 0, 64, 70
1, 258634, Note_off_c, 0, 72, 58
1, 258640, Note_on_c, 0, 70, 49
1, 258647, Control_c, 0, 64, 41
1, 258662, Control_c, 0, 64, 0
1, 258668, Note_on_c, 0, 46, 14
1, 258681, Note_on_c, 0, 43, 18
1, 258700, Note_on_c, 0, 50, 19
1, 258706, Control_c, 0, 64, 36
1, 258721, Control_c, 0, 64, 55
1, 258736, Control_c, 0, 64, 64
1, 258741, Note_off_c, 0, 70, 59
1, 258751, Control_c, 0, 64, 71
1, 258766, Control_c, 0, 64, 79
1, 258781, Control_c, 0, 64, 88
1, 258796, Control_c, 0, 64, 96
1, 258811, Control_c, 0, 64, 102
1, 258825, Note_off_c, 0, 46, 43
1, 258825, Control_c, 0, 64, 109
1, 258828, Note_off_c, 0, 43, 40
1, 258840, Control_c, 0, 64, 115
1, 258845, Note_off_c, 0, 50, 45
1, 258855, Control_c, 0, 64, 119
1, 258922, Note_on_c, 0, 46, 32
1, 258929, Control_c, 0, 64, 116
1, 258933, Note_on_c, 0, 50, 27
1, 258940, Note_on_c, 0, 43, 35
1, 258944, Control_c, 0, 64, 102
1, 258958, Control_c, 0, 64, 84
1, 258973, Control_c, 0, 64, 65
1, 258988, Control_c, 0, 64, 0
1, 259025, Note_off_c, 0, 46, 0
1, 259033, Note_on_c, 0, 69, 64
1, 259034, Control_c, 0, 64, 9
1, 259048, Control_c, 0, 64, 53
1, 259062, Poly_aftertouch_c, 0, 46, 127
1, 259063, Control_c, 0, 64, 65
1, 259078, Control_c, 0, 64, 74
1, 259093, Control_c, 0, 64, 88
1, 259108, Control_c, 0, 64, 106
1, 259115, Note_off_c, 0, 69, 59
1, 259122, Control_c, 0, 64, 127
1, 259127, Note_off_c, 0, 50, 47
1, 259132, Note_off_c, 0, 43, 38
1, 259201, Poly_aftertouch_c, 0, 46, 0
1, 259212, Note_on_c, 0, 43, 44
1, 259214, Note_on_c, 0, 69, 75
1, 259217, Note_on_c, 0, 50, 41
1, 259220, Note_on_c, 0, 46, 24
1, 259287, Note_off_c, 0, 50, 56
1, 259310, Note_off_c, 0, 46, 40
1, 259336, Note_off_c, 0, 43, 35
1, 259553, Note_on_c, 0, 50, 45
1, 259567, Note_on_c, 0, 70, 65
1, 259568, Note_on_c, 0, 46, 39
1, 259571, Note_on_c, 0, 43, 44
1, 259574, Control_c, 0, 64, 117
1, 259574, Note_off_c, 0, 69, 65
1, 259589, Control_c, 0, 64, 83
1, 259603, Control_c, 0, 64, 62
1, 259618, Control_c, 0, 64, 0
1, 259693, Control_c, 0, 64, 20
1, 259708, Control_c, 0, 64, 55
1, 259722, Control_c, 0, 64, 67
1, 259725, Note_off_c, 0, 70, 63
1, 259737, Control_c, 0, 64, 78
1, 259743, Note_off_c, 0, 50, 49
1, 259745, Note_off_c, 0, 46, 45
1, 259750, Note_off_c, 0, 43, 38
1, 259752, Control_c, 0, 64, 92
1, 259767, Control_c, 0, 64, 106
1, 259781, Control_c, 0, 64, 127
1, 259811, Control_c, 0, 64, 119
1, 259827, Control_c, 0, 64, 95
1, 259835, Note_on_c, 0, 43, 46
1, 259842, Control_c, 0, 64, 75
1, 259847, Note_on_c, 0, 46, 41
1, 259850, Note_on_c, 0, 50, 44
1, 259857, Control_c, 0, 64, 56
1, 259871, Control_c, 0, 64, 0
1, 259886, Control_c, 0, 64, 19
1, 259901, Control_c, 0, 64, 33
1, 259916, Control_c, 0, 64, 47
1, 259931, Control_c, 0, 64, 61
1, 259945, Control_c, 0, 64, 71
1, 259956, Note_off_c, 0, 43, 50
1, 259960, Control_c, 0, 64, 91
1, 259963, Note_off_c, 0, 46, 61
1, 259967, Note_on_c, 0, 67, 68
1, 259975, Control_c, 0, 64, 127
1, 260004, Control_c, 0, 67, 126
1, 260019, Control_c, 0, 67, 125
1, 260034, Control_c, 0, 67, 123
1, 260057, Control_c, 0, 67, 122
1, 260069, Note_off_c, 0, 50, 33
1, 260071, Control_c, 0, 67, 121
1, 260076, Note_off_c, 0, 67, 59
1, 260086, Control_c, 0, 67, 121
1, 260101, Control_c, 0, 67, 120
1, 260116, Control_c, 0, 67, 120
1, 260175, Control_c, 0, 64, 102
1, 260190, Control_c, 0, 64, 74
1, 260190, Control_c, 0, 67, 120
1, 260204, Control_c, 0, 64, 35
1, 260207, Note_on_c, 0, 50, 42
1, 260215, Note_on_c, 0, 67, 58
1, 260219, Control_c, 0, 64, 0
1, 260236, Note_on_c, 0, 48, 31
1, 260247, Note_on_c, 0, 45, 30
1, 260278, Control_c, 0, 64, 42
1, 260293, Control_c, 0, 64, 59
1, 260300, Note_off_c, 0, 48, 53
1, 260308, Control_c, 0, 64, 67
1, 260312, Note_off_c, 0, 50, 62
1, 260319, Note_off_c, 0, 45, 41
1, 260322, Control_c, 0, 64, 76
1, 260337, Control_c, 0, 64, 85
1, 260352, Control_c, 0, 64, 94
1, 260367, Control_c, 0, 64, 100
1, 260382, Control_c, 0, 64, 107
1, 260396, Control_c, 0, 64, 115
1, 260396, Control_c, 0, 67, 120
1, 260411, Control_c, 0, 64, 127
1, 260545, Control_c, 0, 64, 101
1, 260560, Control_c, 0, 64, 81
1, 260575, Control_c, 0, 64, 71
1, 260576, Note_on_c, 0, 48, 35
1, 260581, Note_on_c, 0, 54, 32
1, 260587, Note_on_c, 0, 45, 30
1, 260590, Control_c, 0, 64, 69
1, 260598, Note_on_c, 0, 50, 33
1, 260604, Control_c, 0, 64, 73
1, 260620, Control_c, 0, 64, 79
1, 260635, Control_c, 0, 64, 85
1, 260650, Control_c, 0, 64, 90
1, 260657, Note_off_c, 0, 54, 41
1, 260665, Note_off_c, 0, 50, 44
1, 260665, Control_c, 0, 64, 97
1, 260671, Note_off_c, 0, 45, 36
1, 260674, Note_off_c, 0, 48, 37
1, 260680, Control_c, 0, 64, 104
1, 260680, Control_c, 0, 67, 119
1, 260694, Control_c, 0, 64, 114
1, 260709, Control_c, 0, 64, 127
1, 260783, Control_c, 0, 67, 120
1, 260820, Control_c, 0, 64, 102
1, 260835, Control_c, 0, 64, 77
1, 260837, Note_on_c, 0, 66, 54
1, 260849, Control_c, 0, 64, 58
1, 260857, Note_on_c, 0, 48, 17
1, 260858, Note_on_c, 0, 54, 21
1, 260861, Note_on_c, 0, 45, 26
1, 260864, Control_c, 0, 64, 0
1, 260864, Control_c, 0, 67, 120
1, 260866, Note_off_c, 0, 67, 55
1, 260877, Note_on_c, 0, 50, 24
1, 260924, Control_c, 0, 67, 121
1, 260939, Control_c, 0, 64, 40
1, 260953, Control_c, 0, 64, 58
1, 260963, Note_off_c, 0, 48, 34
1, 260968, Control_c, 0, 64, 65
1, 260968, Control_c, 0, 67, 121
1, 260969, Note_off_c, 0, 54, 34
1, 260983, Control_c, 0, 64, 72
1, 260993, Note_off_c, 0, 45, 41
1, 260994, Note_off_c, 0, 50, 37
1, 260998, Control_c, 0, 64, 79
1, 261013, Control_c, 0, 64, 86
1, 261027, Control_c, 0, 64, 92
1, 261042, Control_c, 0, 64, 97
1, 261057, Control_c, 0, 64, 103
1, 261057, Control_c, 0, 67, 122
1, 261072, Control_c, 0, 64, 108
1, 261087, Control_c, 0, 64, 111
1, 261092, Note_off_c, 0, 66, 52
1, 261101, Control_c, 0, 64, 114
1, 261105, Note_on_c, 0, 54, 44
1, 261109, Note_on_c, 0, 50, 46
1, 261116, Control_c, 0, 64, 116
1, 261119, Note_on_c, 0, 45, 41
1, 261130, Note_on_c, 0, 48, 25
1, 261131, Control_c, 0, 64, 125
1, 261145, Control_c, 0, 64, 127
1, 261174, Note_off_c, 0, 50, 59
1, 261180, Note_off_c, 0, 54, 48
1, 261180, Note_off_c, 0, 48, 46
1, 261185, Note_off_c, 0, 45, 46
1, 261390, Note_on_c, 0, 54, 40
1, 261402, Note_on_c, 0, 45, 33
1, 261404, Note_on_c, 0, 50, 43
1, 261407, Note_on_c, 0, 48, 32
1, 261447, Note_off_c, 0, 54, 55
1, 261450, Note_off_c, 0, 50, 62
1, 261458, Note_off_c, 0, 48, 45
1, 261499, Note_off_c, 0, 45, 35
1, 261628, Control_c, 0, 67, 121
1, 261699, Note_on_c, 0, 75, 75
1, 261712, Note_on_c, 0, 45, 25
1, 261714, Note_on_c, 0, 54, 32
1, 261717, Control_c, 0, 67, 122
1, 261720, Note_on_c, 0, 50, 34
1, 261733, Note_on_c, 0, 48, 10
1, 261765, Note_off_c, 0, 54, 55
1, 261770, Note_off_c, 0, 50, 57
1, 261776, Note_off_c, 0, 45, 41
1, 261784, Note_off_c, 0, 48, 46
1, 261821, Control_c, 0, 67, 122
1, 261895, Control_c, 0, 67, 123
1, 261910, Control_c, 0, 67, 123
1, 261924, Control_c, 0, 67, 124
1, 261939, Control_c, 0, 67, 124
1, 261954, Control_c, 0, 67, 125
1, 261968, Control_c, 0, 64, 125
1, 261982, Note_off_c, 0, 75, 62
1, 261983, Control_c, 0, 64, 88
1, 261983, Control_c, 0, 67, 125
1, 261994, Note_on_c, 0, 54, 54
1, 261998, Control_c, 0, 64, 67
1, 262008, Note_on_c, 0, 50, 46
1, 262011, Note_on_c, 0, 48, 37
1, 262013, Control_c, 0, 64, 17
1, 262024, Note_on_c, 0, 45, 36
1, 262028, Control_c, 0, 64, 0
1, 262087, Control_c, 0, 64, 10
1, 262102, Control_c, 0, 64, 52
1, 262116, Control_c, 0, 64, 66
1, 262131, Note_off_c, 0, 48, 56
1, 262131, Control_c, 0, 64, 76
1, 262146, Note_off_c, 0, 54, 53
1, 262146, Control_c, 0, 64, 89
1, 262161, Control_c, 0, 64, 106
1, 262161, Control_c, 0, 67, 125
1, 262174, Note_off_c, 0, 45, 39
1, 262176, Control_c, 0, 64, 127
1, 262186, Note_off_c, 0, 50, 33
1, 262236, Control_c, 0, 67, 124
1, 262265, Note_on_c, 0, 75, 70
1, 262297, Note_on_c, 0, 54, 46
1, 262301, Note_on_c, 0, 50, 36
1, 262320, Note_on_c, 0, 45, 31
1, 262324, Note_on_c, 0, 48, 16
1, 262333, Control_c, 0, 67, 124
1, 262349, Note_off_c, 0, 50, 60
1, 262349, Note_off_c, 0, 54, 53
1, 262358, Note_off_c, 0, 45, 49
1, 262369, Note_off_c, 0, 48, 47
1, 262495, Control_c, 0, 67, 123
1, 262595, Note_on_c, 0, 77, 70
1, 262608, Note_on_c, 0, 54, 36
1, 262615, Note_on_c, 0, 45, 31
1, 262617, Note_on_c, 0, 50, 38
1, 262626, Note_on_c, 0, 48, 22
1, 262640, Note_off_c, 0, 75, 59
1, 262663, Note_off_c, 0, 54, 52
1, 262669, Note_off_c, 0, 45, 43
1, 262674, Note_off_c, 0, 50, 54
1, 262686, Note_off_c, 0, 48, 43
1, 262703, Control_c, 0, 67, 124
1, 262787, Note_on_c, 0, 75, 49
1, 262829, Note_off_c, 0, 77, 56
1, 262895, Control_c, 0, 64, 103
1, 262895, Control_c, 0, 67, 124
1, 262910, Control_c, 0, 64, 76
1, 262924, Control_c, 0, 64, 54
1, 262926, Note_off_c, 0, 75, 60
1, 262939, Control_c, 0, 64, 0
1, 262948, Note_on_c, 0, 54, 39
1, 262965, Note_on_c, 0, 50, 41
1, 262967, Note_on_c, 0, 48, 33
1, 262969, Note_on_c, 0, 45, 35
1, 263014, Control_c, 0, 64, 46
1, 263029, Control_c, 0, 64, 64
1, 263052, Control_c, 0, 64, 73
1, 263067, Control_c, 0, 64, 85
1, 263067, Control_c, 0, 67, 124
1, 263082, Control_c, 0, 64, 99
1, 263082, Control_c, 0, 67, 123
1, 263095, Note_off_c, 0, 50, 56
1, 263096, Control_c, 0, 64, 113
1, 263102, Note_off_c, 0, 54, 48
1, 263105, Note_off_c, 0, 45, 0
1, 263111, Control_c, 0, 64, 127
1, 263111, Control_c, 0, 67, 123
1, 263130, Note_off_c, 0, 48, 37
1, 263141, Control_c, 0, 67, 122
1, 263146, Poly_aftertouch_c, 0, 45, 0
1, 263156, Control_c, 0, 67, 122
1, 263170, Control_c, 0, 67, 121
1, 263200, Control_c, 0, 67, 121
1, 263229, Control_c, 0, 67, 120
1, 263242, Note_on_c, 0, 74, 66
1, 263244, Control_c, 0, 67, 120
1, 263245, Note_on_c, 0, 45, 38
1, 263250, Note_on_c, 0, 48, 36
1, 263253, Note_on_c, 0, 54, 39
1, 263259, Control_c, 0, 67, 119
1, 263260, Note_on_c, 0, 50, 44
1, 263274, Control_c, 0, 67, 119
1, 263289, Control_c, 0, 67, 118
1, 263303, Control_c, 0, 67, 117
1, 263318, Note_off_c, 0, 50, 56
1, 263318, Control_c, 0, 67, 116
1, 263324, Note_off_c, 0, 48, 49
1, 263333, Control_c, 0, 67, 112
1, 263334, Note_off_c, 0, 45, 48
1, 263347, Note_off_c, 0, 54, 38
1, 263347, Control_c, 0, 67, 109
1, 263362, Control_c, 0, 67, 105
1, 263377, Control_c, 0, 67, 100
1, 263392, Control_c, 0, 67, 95
1, 263407, Control_c, 0, 67, 90
1, 263422, Control_c, 0, 67, 84
1, 263437, Control_c, 0, 67, 79
1, 263452, Control_c, 0, 67, 74
1, 263467, Control_c, 0, 67, 68
1, 263482, Control_c, 0, 67, 63
1, 263496, Control_c, 0, 67, 58
1, 263511, Control_c, 0, 67, 55
1, 263526, Control_c, 0, 67, 52
1, 263532, Note_on_c, 0, 75, 73
1, 263540, Control_c, 0, 67, 49
1, 263544, Note_on_c, 0, 45, 32
1, 263549, Note_on_c, 0, 48, 28
1, 263555, Control_c, 0, 67, 47
1, 263559, Note_on_c, 0, 50, 38
1, 263562, Note_on_c, 0, 54, 31
1, 263570, Note_off_c, 0, 74, 62
1, 263570, Control_c, 0, 67, 46
1, 263583, Note_off_c, 0, 48, 53
1, 263585, Control_c, 0, 67, 45
1, 263591, Note_off_c, 0, 45, 47
1, 263594, Note_off_c, 0, 50, 57
1, 263600, Control_c, 0, 67, 45
1, 263631, Note_off_c, 0, 54, 43
1, 263695, Note_on_c, 0, 74, 78
1, 263769, Note_off_c, 0, 75, 36
1, 263804, Note_off_c, 0, 74, 54
1, 263964, Control_c, 0, 64, 99
1, 263964, Control_c, 0, 67, 46
1, 263974, Note_on_c, 0, 50, 48
1, 263976, Note_on_c, 0, 46, 42
1, 263978, Note_on_c, 0, 55, 38
1, 263979, Control_c, 0, 64, 81
1, 263979, Control_c, 0, 67, 46
1, 263983, Note_on_c, 0, 74, 49
1, 263994, Control_c, 0, 64, 65
1, 264009, Control_c, 0, 64, 0
1, 264009, Control_c, 0, 67, 47
1, 264038, Control_c, 0, 67, 47
1, 264053, Control_c, 0, 67, 48
1, 264083, Control_c, 0, 67, 48
1, 264098, Control_c, 0, 67, 49
1, 264112, Control_c, 0, 64, 26
1, 264127, Control_c, 0, 64, 55
1, 264127, Control_c, 0, 67, 50
1, 264142, Control_c, 0, 64, 64
1, 264157, Control_c, 0, 64, 72
1, 264157, Control_c, 0, 67, 50
1, 264171, Control_c, 0, 64, 81
1, 264171, Control_c, 0, 67, 51
1, 264186, Control_c, 0, 64, 90
1, 264186, Control_c, 0, 67, 51
1, 264201, Control_c, 0, 64, 99
1, 264201, Control_c, 0, 67, 52
1, 264216, Control_c, 0, 64, 107
1, 264216, Control_c, 0, 67, 53
1, 264227, Note_off_c, 0, 50, 37
1, 264231, Control_c, 0, 64, 114
1, 264231, Control_c, 0, 67, 54
1, 264241, Note_off_c, 0, 46, 45
1, 264245, Control_c, 0, 64, 120
1, 264245, Control_c, 0, 67, 55
1, 264251, Note_off_c, 0, 55, 33
1, 264260, Control_c, 0, 64, 127
1, 264260, Control_c, 0, 67, 56
1, 264275, Control_c, 0, 67, 57
1, 264290, Control_c, 0, 67, 58
1, 264305, Control_c, 0, 67, 61
1, 264319, Control_c, 0, 67, 64
1, 264334, Control_c, 0, 67, 67
1, 264349, Control_c, 0, 67, 72
1, 264364, Control_c, 0, 67, 81
1, 264379, Control_c, 0, 67, 92
1, 264389, Note_on_c, 0, 46, 37
1, 264392, Note_on_c, 0, 50, 40
1, 264394, Control_c, 0, 67, 104
1, 264403, Note_on_c, 0, 55, 38
1, 264408, Control_c, 0, 67, 116
1, 264423, Control_c, 0, 67, 123
1, 264437, Control_c, 0, 67, 127
1, 264453, Note_off_c, 0, 50, 58
1, 264456, Note_off_c, 0, 46, 54
1, 264456, Note_off_c, 0, 55, 55
1, 264731, Note_on_c, 0, 79, 74
1, 264748, Note_on_c, 0, 46, 37
1, 264753, Note_on_c, 0, 50, 34
1, 264762, Note_off_c, 0, 74, 63
1, 264781, Note_on_c, 0, 55, 12
1, 264844, Note_off_c, 0, 50, 39
1, 264847, Note_off_c, 0, 55, 40
1, 264909, Note_off_c, 0, 46, 26
1, 265067, Control_c, 0, 64, 119
1, 265082, Control_c, 0, 64, 108
1, 265097, Control_c, 0, 64, 95
1, 265112, Control_c, 0, 64, 82
1, 265127, Control_c, 0, 64, 68
1, 265142, Control_c, 0, 64, 32
1, 265143, Note_on_c, 0, 50, 39
1, 265145, Note_on_c, 0, 47, 33
1, 265151, Note_on_c, 0, 55, 27
1, 265157, Control_c, 0, 64, 0
1, 265246, Control_c, 0, 64, 9
1, 265260, Control_c, 0, 64, 48
1, 265275, Control_c, 0, 64, 60
1, 265297, Control_c, 0, 64, 66
1, 265312, Control_c, 0, 64, 71
1, 265327, Control_c, 0, 64, 77
1, 265333, Note_off_c, 0, 79, 53
1, 265342, Control_c, 0, 64, 82
1, 265357, Control_c, 0, 64, 87
1, 265371, Control_c, 0, 64, 92
1, 265386, Control_c, 0, 64, 96
1, 265399, Note_off_c, 0, 47, 42
1, 265401, Control_c, 0, 64, 98
1, 265407, Note_off_c, 0, 50, 45
1, 265416, Control_c, 0, 64, 99
1, 265424, Note_off_c, 0, 55, 39
1, 265431, Control_c, 0, 64, 101
1, 265446, Control_c, 0, 64, 102
1, 265461, Control_c, 0, 64, 103
1, 265476, Control_c, 0, 64, 103
1, 265491, Control_c, 0, 64, 104
1, 265526, Note_on_c, 0, 79, 69
1, 265546, Note_on_c, 0, 50, 44
1, 265552, Note_on_c, 0, 47, 26
1, 265552, Note_on_c, 0, 55, 29
1, 265619, Note_off_c, 0, 50, 50
1, 265655, Note_off_c, 0, 55, 31
1, 265699, Note_off_c, 0, 47, 25
1, 265950, Note_on_c, 0, 77, 48
1, 265965, Note_on_c, 0, 47, 24
1, 265971, Note_on_c, 0, 50, 22
1, 265999, Note_off_c, 0, 79, 51
1, 266004, Note_on_c, 0, 55, 3
1, 266015, Note_off_c, 0, 50, 52
1, 266019, Note_off_c, 0, 47, 46
1, 266024, Control_c, 0, 64, 103
1, 266076, Control_c, 0, 64, 103
1, 266084, Note_off_c, 0, 55, 37
1, 266105, Control_c, 0, 64, 102
1, 266120, Control_c, 0, 64, 102
1, 266150, Control_c, 0, 64, 101
1, 266164, Control_c, 0, 64, 99
1, 266172, Note_off_c, 0, 77, 54
1, 266179, Control_c, 0, 64, 96
1, 266194, Control_c, 0, 64, 89
1, 266209, Control_c, 0, 64, 78
1, 266225, Control_c, 0, 64, 65
1, 266239, Control_c, 0, 64, 0
1, 266263, Note_on_c, 0, 51, 48
1, 266266, Note_on_c, 0, 55, 42
1, 266281, Note_on_c, 0, 48, 41
1, 266313, Control_c, 0, 64, 43
1, 266328, Control_c, 0, 64, 59
1, 266343, Control_c, 0, 64, 67
1, 266358, Control_c, 0, 64, 74
1, 266373, Control_c, 0, 64, 82
1, 266388, Control_c, 0, 64, 90
1, 266391, Note_off_c, 0, 51, 54
1, 266403, Control_c, 0, 64, 96
1, 266417, Note_off_c, 0, 48, 56
1, 266418, Control_c, 0, 64, 103
1, 266421, Note_off_c, 0, 55, 49
1, 266433, Control_c, 0, 64, 110
1, 266447, Control_c, 0, 64, 118
1, 266447, Control_c, 0, 67, 125
1, 266462, Control_c, 0, 64, 127
1, 266462, Control_c, 0, 67, 122
1, 266477, Control_c, 0, 67, 120
1, 266492, Control_c, 0, 67, 115
1, 266507, Control_c, 0, 67, 108
1, 266521, Control_c, 0, 67, 99
1, 266536, Control_c, 0, 67, 92
1, 266537, Note_on_c, 0, 77, 75
1, 266551, Control_c, 0, 67, 86
1, 266553, Note_on_c, 0, 51, 34
1, 266560, Note_on_c, 0, 55, 41
1, 266565, Control_c, 0, 67, 77
1, 266572, Note_on_c, 0, 48, 38
1, 266580, Control_c, 0, 67, 69
1, 266595, Control_c, 0, 67, 61
1, 266610, Control_c, 0, 67, 55
1, 266625, Control_c, 0, 67, 52
1, 266629, Note_off_c, 0, 48, 53
1, 266629, Note_off_c, 0, 55, 44
1, 266639, Control_c, 0, 67, 49
1, 266652, Note_off_c, 0, 51, 36
1, 266655, Control_c, 0, 67, 44
1, 266670, Control_c, 0, 67, 42
1, 266685, Control_c, 0, 67, 41
1, 266872, Note_on_c, 0, 51, 15
1, 266897, Note_on_c, 0, 75, 54
1, 266925, Note_off_c, 0, 51, 49
1, 266925, Note_off_c, 0, 77, 57
1, 266927, Poly_aftertouch_c, 0, 55, 127
1, 266929, Poly_aftertouch_c, 0, 48, 127
1, 266966, Poly_aftertouch_c, 0, 48, 0
1, 266966, Poly_aftertouch_c, 0, 55, 0
1, 266990, Note_off_c, 0, 75, 61
1, 267034, Control_c, 0, 67, 42
1, 267049, Control_c, 0, 67, 43
1, 267063, Control_c, 0, 67, 43
1, 267078, Control_c, 0, 67, 44
1, 267093, Control_c, 0, 67, 45
1, 267108, Control_c, 0, 67, 46
1, 267123, Control_c, 0, 64, 119
1, 267123, Control_c, 0, 67, 47
1, 267137, Control_c, 0, 64, 93
1, 267137, Control_c, 0, 67, 48
1, 267149, Note_on_c, 0, 60, 56
1, 267152, Control_c, 0, 64, 73
1, 267152, Control_c, 0, 67, 48
1, 267157, Note_on_c, 0, 55, 44
1, 267160, Note_on_c, 0, 51, 49
1, 267167, Control_c, 0, 64, 52
1, 267167, Control_c, 0, 67, 49
1, 267182, Control_c, 0, 64, 0
1, 267182, Control_c, 0, 67, 49
1, 267196, Control_c, 0, 67, 50
1, 267211, Control_c, 0, 64, 16
1, 267226, Control_c, 0, 64, 47
1, 267241, Control_c, 0, 64, 59
1, 267256, Control_c, 0, 64, 65
1, 267256, Control_c, 0, 67, 50
1, 267270, Control_c, 0, 64, 72
1, 267270, Control_c, 0, 67, 51
1, 267285, Control_c, 0, 64, 82
1, 267285, Control_c, 0, 67, 52
1, 267300, Control_c, 0, 64, 90
1, 267300, Control_c, 0, 67, 54
1, 267314, Note_off_c, 0, 55, 56
1, 267315, Control_c, 0, 64, 96
1, 267315, Control_c, 0, 67, 54
1, 267317, Note_off_c, 0, 60, 55
1, 267330, Note_off_c, 0, 51, 52
1, 267330, Control_c, 0, 64, 100
1, 267330, Control_c, 0, 67, 55
1, 267345, Control_c, 0, 64, 104
1, 267345, Control_c, 0, 67, 56
1, 267360, Control_c, 0, 64, 110
1, 267360, Control_c, 0, 67, 57
1, 267375, Control_c, 0, 64, 118
1, 267375, Control_c, 0, 67, 60
1, 267389, Control_c, 0, 64, 127
1, 267389, Control_c, 0, 67, 63
1, 267402, Control_c, 0, 67, 66
1, 267413, Note_on_c, 0, 74, 68
1, 267417, Control_c, 0, 67, 68
1, 267432, Control_c, 0, 67, 70
1, 267434, Note_on_c, 0, 51, 34
1, 267435, Note_on_c, 0, 60, 41
1, 267447, Control_c, 0, 67, 72
1, 267452, Note_on_c, 0, 55, 46
1, 267461, Control_c, 0, 67, 75
1, 267476, Control_c, 0, 67, 77
1, 267491, Control_c, 0, 67, 79
1, 267506, Control_c, 0, 67, 81
1, 267516, Note_off_c, 0, 55, 48
1, 267521, Control_c, 0, 67, 82
1, 267523, Note_off_c, 0, 60, 42
1, 267543, Control_c, 0, 67, 83
1, 267558, Control_c, 0, 67, 84
1, 267573, Control_c, 0, 67, 85
1, 267579, Note_off_c, 0, 51, 40
1, 267587, Control_c, 0, 67, 87
1, 267602, Control_c, 0, 67, 88
1, 267617, Control_c, 0, 67, 89
1, 267632, Control_c, 0, 67, 89
1, 267676, Control_c, 0, 67, 90
1, 267691, Control_c, 0, 67, 90
1, 267706, Control_c, 0, 67, 91
1, 267709, Note_on_c, 0, 51, 37
1, 267713, Note_on_c, 0, 60, 41
1, 267720, Control_c, 0, 67, 92
1, 267723, Note_on_c, 0, 72, 73
1, 267735, Control_c, 0, 67, 93
1, 267738, Note_on_c, 0, 55, 36
1, 267762, Note_off_c, 0, 51, 56
1, 267765, Control_c, 0, 67, 93
1, 267768, Note_off_c, 0, 74, 63
1, 267780, Note_off_c, 0, 60, 59
1, 267793, Note_off_c, 0, 55, 54
1, 267795, Control_c, 0, 67, 94
1, 267810, Control_c, 0, 67, 95
1, 267825, Control_c, 0, 67, 96
1, 267840, Control_c, 0, 67, 97
1, 267852, Note_off_c, 0, 72, 60
1, 267855, Control_c, 0, 67, 98
1, 267870, Control_c, 0, 67, 99
1, 267884, Control_c, 0, 67, 100
1, 267899, Control_c, 0, 67, 101
1, 267914, Control_c, 0, 67, 102
1, 267929, Control_c, 0, 67, 103
1, 267944, Control_c, 0, 67, 103
1, 267974, Control_c, 0, 67, 103
1, 268018, Control_c, 0, 67, 102
1, 268048, Control_c, 0, 67, 102
1, 268053, Note_on_c, 0, 55, 45
1, 268063, Control_c, 0, 64, 105
1, 268063, Control_c, 0, 67, 101
1, 268066, Note_on_c, 0, 58, 46
1, 268075, Note_on_c, 0, 72, 68
1, 268076, Note_on_c, 0, 50, 42
1, 268078, Control_c, 0, 64, 86
1, 268092, Control_c, 0, 64, 70
1, 268107, Control_c, 0, 64, 54
1, 268122, Control_c, 0, 64, 0
1, 268122, Control_c, 0, 67, 101
1, 268151, Control_c, 0, 67, 100
1, 268166, Control_c, 0, 67, 99
1, 268181, Control_c, 0, 64, 25
1, 268181, Control_c, 0, 67, 99
1, 268196, Control_c, 0, 64, 48
1, 268196, Control_c, 0, 67, 98
1, 268210, Control_c, 0, 64, 60
1, 268225, Control_c, 0, 64, 67
1, 268225, Control_c, 0, 67, 98
1, 268240, Control_c, 0, 64, 75
1, 268240, Control_c, 0, 67, 97
1, 268247, Note_off_c, 0, 55, 56
1, 268248, Note_off_c, 0, 50, 57
1, 268255, Control_c, 0, 64, 84
1, 268255, Control_c, 0, 67, 96
1, 268256, Note_off_c, 0, 58, 53
1, 268270, Control_c, 0, 64, 92
1, 268270, Control_c, 0, 67, 96
1, 268292, Control_c, 0, 64, 98
1, 268307, Control_c, 0, 64, 103
1, 268322, Control_c, 0, 64, 107
1, 268322, Control_c, 0, 67, 95
1, 268336, Control_c, 0, 64, 112
1, 268351, Control_c, 0, 64, 115
1, 268351, Control_c, 0, 67, 95
1, 268366, Control_c, 0, 64, 118
1, 268366, Control_c, 0, 67, 94
1, 268381, Control_c, 0, 64, 120
1, 268396, Control_c, 0, 64, 122
1, 268396, Control_c, 0, 67, 93
1, 268401, Note_on_c, 0, 55, 47
1, 268407, Note_on_c, 0, 70, 77
1, 268409, Note_on_c, 0, 50, 40
1, 268409, Note_on_c, 0, 58, 48
1, 268410, Control_c, 0, 64, 127
1, 268424, Note_off_c, 0, 72, 62
1, 268425, Control_c, 0, 67, 93
1, 268562, Note_off_c, 0, 50, 56
1, 268565, Note_off_c, 0, 55, 52
1, 268571, Note_off_c, 0, 58, 50
1, 268588, Control_c, 0, 67, 93
1, 268633, Control_c, 0, 67, 94
1, 268663, Control_c, 0, 67, 95
1, 268678, Control_c, 0, 64, 99
1, 268678, Control_c, 0, 67, 96
1, 268693, Control_c, 0, 64, 75
1, 268707, Control_c, 0, 64, 56
1, 268707, Control_c, 0, 67, 96
1, 268720, Note_on_c, 0, 50, 36
1, 268721, Note_on_c, 0, 72, 64
1, 268722, Control_c, 0, 64, 45
1, 268733, Note_on_c, 0, 55, 44
1, 268733, Note_on_c, 0, 58, 41
1, 268737, Control_c, 0, 64, 57
1, 268737, Control_c, 0, 67, 96
1, 268752, Control_c, 0, 64, 63
1, 268767, Control_c, 0, 64, 67
1, 268772, Note_off_c, 0, 70, 60
1, 268782, Control_c, 0, 64, 73
1, 268782, Control_c, 0, 67, 96
1, 268797, Control_c, 0, 64, 83
1, 268811, Control_c, 0, 64, 95
1, 268826, Control_c, 0, 64, 105
1, 268826, Control_c, 0, 67, 97
1, 268841, Control_c, 0, 64, 117
1, 268841, Control_c, 0, 67, 97
1, 268850, Note_off_c, 0, 55, 51
1, 268856, Control_c, 0, 64, 127
1, 268871, Control_c, 0, 67, 98
1, 268894, Note_off_c, 0, 58, 42
1, 268894, Note_off_c, 0, 50, 46
1, 268901, Note_on_c, 0, 74, 61
1, 268901, Control_c, 0, 67, 99
1, 268915, Control_c, 0, 67, 99
1, 268934, Note_off_c, 0, 72, 62
1, 268945, Control_c, 0, 67, 100
1, 268959, Control_c, 0, 67, 100
1, 268974, Control_c, 0, 67, 101
1, 268989, Control_c, 0, 67, 102
1, 269004, Control_c, 0, 67, 103
1, 269019, Control_c, 0, 67, 103
1, 269041, Control_c, 0, 67, 104
1, 269056, Control_c, 0, 64, 106
1, 269056, Control_c, 0, 67, 108
1, 269062, Note_off_c, 0, 74, 61
1, 269071, Control_c, 0, 64, 82
1, 269071, Control_c, 0, 67, 113
1, 269086, Control_c, 0, 64, 61
1, 269086, Control_c, 0, 67, 116
1, 269098, Note_on_c, 0, 55, 51
1, 269099, Note_on_c, 0, 58, 51
1, 269101, Control_c, 0, 64, 0
1, 269101, Control_c, 0, 67, 118
1, 269110, Note_on_c, 0, 50, 36
1, 269115, Control_c, 0, 67, 119
1, 269174, Control_c, 0, 64, 42
1, 269189, Control_c, 0, 64, 64
1, 269204, Control_c, 0, 64, 74
1, 269219, Control_c, 0, 64, 86
1, 269233, Control_c, 0, 64, 98
1, 269248, Control_c, 0, 64, 106
1, 269263, Control_c, 0, 64, 113
1, 269263, Control_c, 0, 67, 118
1, 269271, Note_off_c, 0, 55, 57
1, 269276, Note_off_c, 0, 58, 53
1, 269278, Control_c, 0, 64, 122
1, 269290, Note_off_c, 0, 50, 50
1, 269292, Control_c, 0, 64, 127
1, 269307, Control_c, 0, 67, 118
1, 269390, Note_on_c, 0, 74, 68
1, 269396, Note_on_c, 0, 50, 42
1, 269421, Note_on_c, 0, 55, 44
1, 269424, Note_on_c, 0, 58, 40
1, 269471, Control_c, 0, 67, 118
1, 269476, Note_off_c, 0, 55, 53
1, 269486, Control_c, 0, 67, 119
1, 269491, Note_off_c, 0, 58, 41
1, 269495, Note_off_c, 0, 50, 40
1, 269516, Control_c, 0, 67, 119
1, 269530, Control_c, 0, 67, 120
1, 269545, Control_c, 0, 67, 121
1, 269560, Control_c, 0, 67, 124
1, 269575, Control_c, 0, 67, 127
1, 269887, Note_on_c, 0, 72, 61
1, 269898, Note_on_c, 0, 50, 35
1, 269907, Note_on_c, 0, 58, 21
1, 269915, Note_on_c, 0, 55, 27
1, 269924, Note_off_c, 0, 74, 54
1, 270040, Note_on_c, 0, 70, 60
1, 270045, Note_off_c, 0, 55, 35
1, 270045, Note_off_c, 0, 72, 56
1, 270051, Note_off_c, 0, 58, 42
1, 270071, Note_off_c, 0, 50, 45
1, 270102, Note_off_c, 0, 70, 57
1, 270189, Control_c, 0, 64, 114
1, 270205, Control_c, 0, 64, 93
1, 270220, Control_c, 0, 64, 76
1, 270223, Note_on_c, 0, 55, 32
1, 270224, Note_on_c, 0, 50, 25
1, 270235, Control_c, 0, 64, 59
1, 270241, Note_on_c, 0, 58, 20
1, 270247, Note_on_c, 0, 70, 36
1, 270250, Control_c, 0, 64, 14
1, 270265, Control_c, 0, 64, 0
1, 270294, Control_c, 0, 64, 16
1, 270309, Control_c, 0, 64, 42
1, 270324, Control_c, 0, 64, 55
1, 270338, Control_c, 0, 64, 64
1, 270353, Control_c, 0, 64, 69
1, 270368, Control_c, 0, 64, 75
1, 270383, Control_c, 0, 64, 81
1, 270384, Note_off_c, 0, 55, 41
1, 270397, Note_off_c, 0, 58, 40
1, 270398, Control_c, 0, 64, 85
1, 270401, Note_off_c, 0, 50, 48
1, 270413, Control_c, 0, 64, 87
1, 270428, Control_c, 0, 64, 90
1, 270443, Control_c, 0, 64, 92
1, 270458, Control_c, 0, 64, 94
1, 270473, Control_c, 0, 64, 95
1, 270487, Control_c, 0, 64, 97
1, 270502, Control_c, 0, 64, 99
1, 270517, Control_c, 0, 64, 102
1, 270539, Control_c, 0, 64, 103
1, 270543, Note_on_c, 0, 50, 39
1, 270554, Control_c, 0, 64, 105
1, 270555, Note_on_c, 0, 58, 40
1, 270558, Note_on_c, 0, 55, 34
1, 270569, Control_c, 0, 64, 108
1, 270584, Control_c, 0, 64, 111
1, 270599, Control_c, 0, 64, 114
1, 270613, Note_off_c, 0, 58, 43
1, 270613, Control_c, 0, 64, 118
1, 270621, Note_off_c, 0, 55, 53
1, 270628, Control_c, 0, 64, 120
1, 270643, Control_c, 0, 64, 122
1, 270658, Control_c, 0, 64, 125
1, 270665, Note_off_c, 0, 50, 36
1, 270673, Control_c, 0, 64, 127
1, 270833, Note_on_c, 0, 50, 38
1, 270852, Note_on_c, 0, 58, 33
1, 270860, Note_on_c, 0, 55, 24
1, 270898, Note_off_c, 0, 58, 47
1, 270900, Note_off_c, 0, 55, 48
1, 270905, Note_off_c, 0, 50, 52
1, 271103, Control_c, 0, 64, 122
1, 271118, Control_c, 0, 64, 114
1, 271133, Control_c, 0, 64, 105
1, 271147, Control_c, 0, 64, 94
1, 271161, Control_c, 0, 64, 81
1, 271176, Control_c, 0, 64, 66
1, 271188, Note_on_c, 0, 69, 40
1, 271191, Control_c, 0, 64, 0
1, 271205, Note_on_c, 0, 50, 25
1, 271210, Note_on_c, 0, 57, 15
1, 271214, Note_on_c, 0, 54, 21
1, 271215, Note_off_c, 0, 70, 44
1, 271303, Control_c, 0, 64, 44
1, 271317, Control_c, 0, 64, 59
1, 271332, Control_c, 0, 64, 65
1, 271347, Control_c, 0, 64, 70
1, 271361, Control_c, 0, 64, 75
1, 271376, Control_c, 0, 64, 81
1, 271383, Note_off_c, 0, 54, 43
1, 271389, Note_off_c, 0, 50, 46
1, 271391, Control_c, 0, 64, 86
1, 271394, Note_off_c, 0, 57, 41
1, 271406, Control_c, 0, 64, 90
1, 271421, Control_c, 0, 64, 93
1, 271435, Control_c, 0, 64, 95
1, 271450, Control_c, 0, 64, 97
1, 271465, Control_c, 0, 64, 99
1, 271480, Control_c, 0, 64, 102
1, 271495, Control_c, 0, 64, 105
1, 271509, Control_c, 0, 64, 109
1, 271515, Note_on_c, 0, 50, 36
1, 271524, Control_c, 0, 64, 111
1, 271532, Note_on_c, 0, 54, 14
1, 271534, Note_on_c, 0, 57, 34
1, 271539, Control_c, 0, 64, 114
1, 271554, Control_c, 0, 64, 117
1, 271569, Control_c, 0, 64, 123
1, 271576, Note_off_c, 0, 57, 47
1, 271581, Note_off_c, 0, 54, 48
1, 271584, Control_c, 0, 64, 127
1, 271596, Note_off_c, 0, 50, 41
1, 271841, Note_on_c, 0, 50, 25
1, 271853, Note_on_c, 0, 57, 19
1, 271859, Note_on_c, 0, 54, 28
1, 271894, Note_off_c, 0, 57, 50
1, 271905, Note_off_c, 0, 54, 49
1, 271917, Note_off_c, 0, 50, 44
1, 271950, Note_off_c, 0, 69, 37
1, 272229, Control_c, 0, 64, 104
1, 272244, Control_c, 0, 64, 86
1, 272258, Control_c, 0, 64, 71
1, 272266, Note_on_c, 0, 70, 49
1, 272272, Note_on_c, 0, 46, 36
1, 272273, Control_c, 0, 64, 53
1, 272274, Note_on_c, 0, 55, 34
1, 272288, Control_c, 0, 64, 0
1, 272301, Note_on_c, 0, 43, 25
1, 272332, Control_c, 0, 64, 9
1, 272347, Control_c, 0, 64, 40
1, 272362, Control_c, 0, 64, 55
1, 272377, Control_c, 0, 64, 63
1, 272392, Control_c, 0, 64, 67
1, 272406, Control_c, 0, 64, 73
1, 272421, Control_c, 0, 64, 80
1, 272436, Control_c, 0, 64, 86
1, 272437, Note_off_c, 0, 46, 43
1, 272442, Note_off_c, 0, 43, 33
1, 272446, Note_off_c, 0, 55, 36
1, 272451, Control_c, 0, 64, 90
1, 272466, Control_c, 0, 64, 94
1, 272481, Control_c, 0, 64, 97
1, 272496, Control_c, 0, 64, 100
1, 272510, Control_c, 0, 64, 103
1, 272525, Control_c, 0, 64, 104
1, 272540, Control_c, 0, 64, 106
1, 272555, Control_c, 0, 64, 107
1, 272570, Control_c, 0, 64, 108
1, 272584, Control_c, 0, 64, 110
1, 272600, Note_on_c, 0, 46, 24
1, 272600, Control_c, 0, 64, 111
1, 272606, Note_on_c, 0, 55, 34
1, 272615, Control_c, 0, 64, 113
1, 272630, Control_c, 0, 64, 114
1, 272631, Note_on_c, 0, 43, 31
1, 272645, Control_c, 0, 64, 115
1, 272660, Control_c, 0, 64, 116
1, 272674, Note_off_c, 0, 55, 52
1, 272674, Control_c, 0, 64, 117
1, 272689, Control_c, 0, 64, 119
1, 272704, Note_off_c, 0, 43, 37
1, 272704, Control_c, 0, 64, 121
1, 272705, Note_off_c, 0, 46, 39
1, 272719, Control_c, 0, 64, 123
1, 272733, Control_c, 0, 64, 127
1, 272891, Note_on_c, 0, 46, 30
1, 272912, Note_on_c, 0, 43, 30
1, 272912, Note_on_c, 0, 55, 30
1, 272952, Note_off_c, 0, 55, 56
1, 272955, Note_off_c, 0, 46, 44
1, 273015, Note_off_c, 0, 43, 31
1, 273133, Note_off_c, 0, 70, 62
1, 273170, Control_c, 0, 64, 116
1, 273184, Note_on_c, 0, 51, 46
1, 273184, Note_on_c, 0, 46, 39
1, 273185, Control_c, 0, 64, 92
1, 273199, Control_c, 0, 64, 74
1, 273200, Note_on_c, 0, 43, 40
1, 273214, Control_c, 0, 64, 58
1, 273229, Control_c, 0, 64, 0
1, 273259, Control_c, 0, 64, 10
1, 273274, Control_c, 0, 64, 40
1, 273289, Control_c, 0, 64, 55
1, 273304, Control_c, 0, 64, 63
1, 273319, Control_c, 0, 64, 69
1, 273333, Control_c, 0, 64, 76
1, 273348, Control_c, 0, 64, 85
1, 273363, Control_c, 0, 64, 93
1, 273363, Note_off_c, 0, 51, 50
1, 273378, Control_c, 0, 64, 99
1, 273393, Note_off_c, 0, 43, 40
1, 273393, Control_c, 0, 64, 104
1, 273409, Control_c, 0, 64, 108
1, 273423, Control_c, 0, 64, 113
1, 273438, Control_c, 0, 64, 119
1, 273453, Control_c, 0, 64, 127
1, 273457, Note_on_c, 0, 69, 59
1, 273461, Note_off_c, 0, 46, 0
1, 273474, Note_on_c, 0, 51, 45
1, 273480, Note_on_c, 0, 46, 26
1, 273494, Note_on_c, 0, 43, 36
1, 273615, Note_off_c, 0, 46, 30
1, 273631, Note_off_c, 0, 51, 29
1, 273653, Control_c, 0, 67, 127
1, 273668, Control_c, 0, 67, 124
1, 273672, Note_off_c, 0, 43, 23
1, 273683, Control_c, 0, 67, 119
1, 273698, Control_c, 0, 67, 111
1, 273712, Control_c, 0, 67, 102
1, 273727, Control_c, 0, 67, 93
1, 273742, Control_c, 0, 67, 86
1, 273748, Note_on_c, 0, 70, 75
1, 273755, Note_on_c, 0, 43, 35
1, 273757, Control_c, 0, 67, 80
1, 273763, Note_on_c, 0, 51, 45
1, 273772, Control_c, 0, 67, 73
1, 273784, Note_on_c, 0, 46, 41
1, 273787, Control_c, 0, 67, 66
1, 273801, Control_c, 0, 67, 62
1, 273824, Note_off_c, 0, 69, 61
1, 273839, Note_off_c, 0, 46, 58
1, 273860, Note_off_c, 0, 43, 36
1, 273872, Note_off_c, 0, 51, 35
1, 273921, Note_off_c, 0, 70, 56
1, 274068, Control_c, 0, 64, 110
1, 274082, Control_c, 0, 64, 93
1, 274089, Note_on_c, 0, 46, 48
1, 274094, Note_on_c, 0, 51, 46
1, 274097, Control_c, 0, 64, 77
1, 274100, Note_on_c, 0, 72, 68
1, 274112, Control_c, 0, 64, 61
1, 274113, Note_on_c, 0, 41, 33
1, 274127, Control_c, 0, 64, 0
1, 274202, Control_c, 0, 64, 27
1, 274217, Control_c, 0, 64, 52
1, 274232, Control_c, 0, 64, 64
1, 274232, Control_c, 0, 67, 62
1, 274246, Control_c, 0, 64, 70
1, 274246, Control_c, 0, 67, 61
1, 274261, Control_c, 0, 64, 78
1, 274261, Control_c, 0, 67, 61
1, 274282, Note_off_c, 0, 46, 40
1, 274283, Note_off_c, 0, 51, 36
1, 274284, Control_c, 0, 64, 85
1, 274286, Note_off_c, 0, 41, 41
1, 274298, Control_c, 0, 64, 91
1, 274313, Control_c, 0, 64, 96
1, 274328, Control_c, 0, 64, 101
1, 274343, Control_c, 0, 64, 104
1, 274343, Control_c, 0, 67, 60
1, 274358, Control_c, 0, 64, 108
1, 274358, Control_c, 0, 67, 60
1, 274372, Control_c, 0, 64, 112
1, 274372, Control_c, 0, 67, 58
1, 274387, Control_c, 0, 64, 116
1, 274387, Control_c, 0, 67, 56
1, 274402, Control_c, 0, 64, 120
1, 274402, Control_c, 0, 67, 54
1, 274410, Note_on_c, 0, 46, 43
1, 274417, Control_c, 0, 64, 122
1, 274417, Control_c, 0, 67, 52
1, 274420, Note_on_c, 0, 51, 42
1, 274424, Note_on_c, 0, 41, 33
1, 274432, Control_c, 0, 64, 125
1, 274432, Control_c, 0, 67, 51
1, 274447, Control_c, 0, 64, 127
1, 274447, Control_c, 0, 67, 50
1, 274461, Control_c, 0, 67, 50
1, 274469, Note_off_c, 0, 51, 55
1, 274476, Control_c, 0, 67, 49
1, 274491, Control_c, 0, 67, 48
1, 274502, Note_off_c, 0, 46, 38
1, 274505, Control_c, 0, 67, 47
1, 274520, Control_c, 0, 67, 47
1, 274535, Control_c, 0, 67, 46
1, 274574, Note_off_c, 0, 41, 22
1, 274703, Note_on_c, 0, 51, 40
1, 274704, Note_on_c, 0, 46, 43
1, 274756, Note_off_c, 0, 46, 57
1, 274756, Note_off_c, 0, 51, 52
1, 274964, Control_c, 0, 64, 102
1, 274972, Note_on_c, 0, 45, 51
1, 274979, Control_c, 0, 64, 77
1, 274987, Note_on_c, 0, 51, 42
1, 274994, Control_c, 0, 64, 60
1, 275009, Control_c, 0, 64, 19
1, 275026, Note_on_c, 0, 41, 29
1, 275032, Control_c, 0, 64, 0
1, 275047, Control_c, 0, 64, 17
1, 275062, Control_c, 0, 64, 43
1, 275076, Control_c, 0, 64, 57
1, 275091, Control_c, 0, 64, 65
1, 275091, Control_c, 0, 67, 46
1, 275106, Control_c, 0, 64, 72
1, 275121, Control_c, 0, 64, 80
1, 275135, Note_off_c, 0, 72, 60
1, 275135, Control_c, 0, 64, 88
1, 275150, Control_c, 0, 64, 93
1, 275165, Note_off_c, 0, 45, 56
1, 275165, Control_c, 0, 64, 96
1, 275165, Control_c, 0, 67, 45
1, 275180, Note_off_c, 0, 51, 43
1, 275180, Control_c, 0, 64, 98
1, 275194, Control_c, 0, 64, 100
1, 275194, Control_c, 0, 67, 45
1, 275206, Note_off_c, 0, 41, 35
1, 275209, Control_c, 0, 64, 103
1, 275224, Control_c, 0, 64, 107
1, 275239, Control_c, 0, 64, 110
1, 275239, Control_c, 0, 67, 43
1, 275253, Note_on_c, 0, 71, 71
1, 275254, Control_c, 0, 64, 113
1, 275254, Control_c, 0, 67, 40
1, 275268, Control_c, 0, 64, 121
1, 275268, Control_c, 0, 67, 38
1, 275283, Control_c, 0, 64, 127
1, 275283, Control_c, 0, 67, 36
1, 275285, Note_on_c, 0, 41, 34
1, 275286, Note_on_c, 0, 45, 47
1, 275296, Note_on_c, 0, 51, 47
1, 275298, Control_c, 0, 67, 35
1, 275313, Control_c, 0, 67, 34
1, 275328, Control_c, 0, 67, 33
1, 275343, Control_c, 0, 67, 32
1, 275358, Control_c, 0, 67, 31
1, 275372, Control_c, 0, 67, 30
1, 275387, Control_c, 0, 67, 28
1, 275402, Control_c, 0, 67, 26
1, 275417, Control_c, 0, 67, 25
1, 275417, Note_off_c, 0, 45, 34
1, 275420, Note_off_c, 0, 51, 34
1, 275432, Control_c, 0, 67, 23
1, 275447, Control_c, 0, 67, 22
1, 275462, Control_c, 0, 67, 21
1, 275476, Control_c, 0, 67, 20
1, 275491, Control_c, 0, 67, 20
1, 275506, Control_c, 0, 67, 19
1, 275533, Note_off_c, 0, 41, 0
1, 275551, Note_on_c, 0, 41, 16
1, 275557, Note_on_c, 0, 72, 81
1, 275569, Note_on_c, 0, 51, 50
1, 275571, Note_on_c, 0, 45, 49
1, 275599, Note_off_c, 0, 71, 63
1, 275636, Note_off_c, 0, 51, 57
1, 275647, Note_off_c, 0, 72, 61
1, 275653, Note_off_c, 0, 45, 60
1, 275717, Note_off_c, 0, 41, 37
1, 275885, Control_c, 0, 64, 110
1, 275899, Control_c, 0, 64, 89
1, 275914, Control_c, 0, 64, 70
1, 275918, Note_on_c, 0, 74, 69
1, 275927, Note_on_c, 0, 50, 48
1, 275929, Control_c, 0, 64, 37
1, 275933, Note_on_c, 0, 41, 34
1, 275944, Control_c, 0, 64, 0
1, 275955, Note_on_c, 0, 46, 37
1, 276003, Control_c, 0, 67, 19
1, 276032, Control_c, 0, 64, 43
1, 276032, Control_c, 0, 67, 18
1, 276047, Control_c, 0, 64, 63
1, 276062, Control_c, 0, 64, 70
1, 276062, Control_c, 0, 67, 18
1, 276077, Control_c, 0, 64, 78
1, 276077, Control_c, 0, 67, 17
1, 276092, Control_c, 0, 64, 86
1, 276092, Control_c, 0, 67, 16
1, 276106, Control_c, 0, 64, 92
1, 276106, Control_c, 0, 67, 15
1, 276121, Control_c, 0, 64, 98
1, 276121, Control_c, 0, 67, 13
1, 276127, Note_off_c, 0, 46, 45
1, 276130, Note_off_c, 0, 50, 37
1, 276136, Control_c, 0, 64, 106
1, 276136, Control_c, 0, 67, 12
1, 276141, Note_off_c, 0, 41, 40
1, 276150, Control_c, 0, 64, 114
1, 276150, Control_c, 0, 67, 11
1, 276165, Control_c, 0, 64, 127
1, 276165, Control_c, 0, 67, 11
1, 276180, Control_c, 0, 67, 10
1, 276195, Control_c, 0, 67, 10
1, 276210, Control_c, 0, 67, 9
1, 276225, Control_c, 0, 67, 9
1, 276236, Note_on_c, 0, 50, 57
1, 276237, Note_on_c, 0, 46, 47
1, 276240, Control_c, 0, 67, 8
1, 276248, Note_on_c, 0, 41, 57
1, 276255, Control_c, 0, 67, 8
1, 276269, Control_c, 0, 67, 0
1, 276304, Note_off_c, 0, 41, 50
1, 276326, Note_off_c, 0, 46, 38
1, 276333, Note_off_c, 0, 50, 38
1, 276528, Note_on_c, 0, 50, 49
1, 276533, Note_on_c, 0, 41, 37
1, 276534, Note_on_c, 0, 46, 43
1, 276577, Note_off_c, 0, 41, 46
1, 276578, Note_off_c, 0, 46, 61
1, 276589, Note_off_c, 0, 50, 59
1, 276753, Control_c, 0, 64, 95
1, 276767, Control_c, 0, 64, 73
1, 276782, Control_c, 0, 64, 51
1, 276794, Note_on_c, 0, 50, 52
1, 276795, Note_on_c, 0, 46, 50
1, 276797, Control_c, 0, 64, 0
1, 276798, Note_on_c, 0, 44, 48
1, 276802, Note_on_c, 0, 41, 45
1, 276827, Control_c, 0, 64, 17
1, 276842, Control_c, 0, 64, 45
1, 276856, Control_c, 0, 64, 58
1, 276871, Control_c, 0, 64, 64
1, 276886, Control_c, 0, 64, 70
1, 276900, Control_c, 0, 64, 77
1, 276915, Control_c, 0, 64, 83
1, 276930, Control_c, 0, 64, 86
1, 276937, Note_off_c, 0, 46, 0
1, 276945, Control_c, 0, 64, 88
1, 276951, Note_off_c, 0, 41, 53
1, 276955, Note_off_c, 0, 50, 30
1, 276957, Poly_aftertouch_c, 0, 46, 0
1, 276960, Control_c, 0, 64, 90
1, 276969, Note_off_c, 0, 44, 32
1, 276974, Control_c, 0, 64, 92
1, 276989, Control_c, 0, 64, 95
1, 277004, Control_c, 0, 64, 98
1, 277019, Control_c, 0, 64, 99
1, 277034, Control_c, 0, 64, 100
1, 277048, Control_c, 0, 64, 101
1, 277063, Control_c, 0, 64, 102
1, 277071, Note_on_c, 0, 73, 79
1, 277073, Note_on_c, 0, 50, 60
1, 277078, Control_c, 0, 64, 103
1, 277087, Note_off_c, 0, 74, 63
1, 277092, Note_on_c, 0, 46, 44
1, 277092, Control_c, 0, 64, 106
1, 277095, Note_on_c, 0, 44, 47
1, 277104, Note_on_c, 0, 41, 48
1, 277107, Control_c, 0, 64, 108
1, 277122, Control_c, 0, 64, 110
1, 277137, Control_c, 0, 64, 111
1, 277152, Control_c, 0, 64, 113
1, 277167, Control_c, 0, 64, 114
1, 277167, Note_off_c, 0, 46, 46
1, 277176, Note_off_c, 0, 41, 39
1, 277182, Control_c, 0, 64, 115
1, 277197, Control_c, 0, 64, 116
1, 277212, Control_c, 0, 64, 118
1, 277227, Control_c, 0, 64, 120
1, 277241, Control_c, 0, 64, 127
1, 277241, Control_c, 0, 67, 8
1, 277252, Note_off_c, 0, 50, 46
1, 277293, Control_c, 0, 67, 8
1, 277322, Control_c, 0, 67, 9
1, 277352, Control_c, 0, 67, 9
1, 277382, Control_c, 0, 67, 10
1, 277397, Control_c, 0, 67, 10
1, 277409, Note_on_c, 0, 74, 56
1, 277412, Control_c, 0, 64, 120
1, 277412, Control_c, 0, 67, 11
1, 277414, Note_off_c, 0, 73, 60
1, 277427, Control_c, 0, 64, 99
1, 277427, Control_c, 0, 67, 11
1, 277441, Note_on_c, 0, 50, 41
1, 277442, Control_c, 0, 64, 79
1, 277450, Note_on_c, 0, 41, 35
1, 277457, Control_c, 0, 64, 65
1, 277457, Control_c, 0, 67, 12
1, 277471, Control_c, 0, 64, 59
1, 277486, Control_c, 0, 64, 63
1, 277486, Control_c, 0, 67, 12
1, 277491, Note_on_c, 0, 46, 14
1, 277501, Control_c, 0, 64, 66
1, 277516, Control_c, 0, 64, 69
1, 277516, Control_c, 0, 67, 13
1, 277521, Note_off_c, 0, 41, 58
1, 277531, Control_c, 0, 64, 73
1, 277531, Control_c, 0, 67, 14
1, 277533, Note_off_c, 0, 50, 62
1, 277543, Note_off_c, 0, 46, 47
1, 277545, Control_c, 0, 64, 79
1, 277545, Control_c, 0, 67, 14
1, 277548, Note_off_c, 0, 44, 40
1, 277560, Control_c, 0, 64, 86
1, 277575, Control_c, 0, 64, 90
1, 277590, Control_c, 0, 64, 92
1, 277598, Note_off_c, 0, 74, 59
1, 277635, Control_c, 0, 64, 92
1, 277650, Control_c, 0, 64, 88
1, 277665, Control_c, 0, 64, 78
1, 277679, Control_c, 0, 64, 64
1, 277694, Control_c, 0, 64, 0
1, 277706, Note_on_c, 0, 51, 56
1, 277709, Note_on_c, 0, 43, 64
1, 277711, Note_on_c, 0, 46, 53
1, 277738, Control_c, 0, 67, 13
1, 277753, Control_c, 0, 67, 12
1, 277768, Control_c, 0, 64, 34
1, 277768, Control_c, 0, 67, 12
1, 277783, Control_c, 0, 64, 55
1, 277783, Control_c, 0, 67, 11
1, 277797, Control_c, 0, 64, 64
1, 277812, Control_c, 0, 64, 69
1, 277812, Control_c, 0, 67, 11
1, 277827, Control_c, 0, 64, 74
1, 277827, Control_c, 0, 67, 10
1, 277841, Control_c, 0, 64, 78
1, 277848, Note_off_c, 0, 46, 58
1, 277856, Control_c, 0, 64, 82
1, 277856, Control_c, 0, 67, 10
1, 277863, Note_off_c, 0, 43, 53
1, 277866, Note_off_c, 0, 51, 36
1, 277871, Control_c, 0, 64, 86
1, 277871, Control_c, 0, 67, 9
1, 277886, Control_c, 0, 64, 90
1, 277901, Control_c, 0, 64, 94
1, 277915, Control_c, 0, 64, 99
1, 277915, Control_c, 0, 67, 9
1, 277930, Control_c, 0, 64, 103
1, 277945, Control_c, 0, 64, 106
1, 277960, Control_c, 0, 64, 108
1, 277975, Control_c, 0, 64, 110
1, 277976, Note_on_c, 0, 74, 80
1, 277981, Note_on_c, 0, 51, 56
1, 277990, Control_c, 0, 64, 114
1, 277993, Note_on_c, 0, 46, 50
1, 277999, Note_on_c, 0, 43, 60
1, 278005, Control_c, 0, 64, 119
1, 278005, Control_c, 0, 67, 8
1, 278027, Control_c, 0, 64, 127
1, 278103, Note_off_c, 0, 46, 36
1, 278121, Note_off_c, 0, 51, 30
1, 278128, Note_off_c, 0, 43, 32
1, 278130, Control_c, 0, 67, 8
1, 278328, Note_on_c, 0, 75, 63
1, 278335, Note_on_c, 0, 51, 41
1, 278349, Note_on_c, 0, 43, 46
1, 278358, Note_on_c, 0, 46, 37
1, 278366, Note_off_c, 0, 74, 61
1, 278394, Note_off_c, 0, 43, 62
1, 278435, Note_off_c, 0, 46, 57
1, 278505, Note_off_c, 0, 51, 24
1, 278519, Note_off_c, 0, 75, 59
1, 278576, Control_c, 0, 64, 106
1, 278591, Control_c, 0, 64, 83
1, 278606, Control_c, 0, 64, 60
1, 278615, Note_on_c, 0, 51, 65
1, 278616, Note_on_c, 0, 39, 58
1, 278616, Note_on_c, 0, 46, 61
1, 278620, Control_c, 0, 64, 0
1, 278679, Control_c, 0, 64, 13
1, 278694, Control_c, 0, 64, 52
1, 278694, Control_c, 0, 67, 0
1, 278709, Control_c, 0, 64, 64
1, 278724, Control_c, 0, 64, 71
1, 278739, Control_c, 0, 64, 82
1, 278753, Control_c, 0, 64, 92
1, 278769, Note_off_c, 0, 39, 56
1, 278776, Control_c, 0, 64, 100
1, 278790, Note_off_c, 0, 46, 60
1, 278791, Control_c, 0, 64, 106
1, 278802, Note_off_c, 0, 51, 55
1, 278806, Control_c, 0, 64, 113
1, 278820, Control_c, 0, 64, 122
1, 278835, Control_c, 0, 64, 127
1, 278882, Note_on_c, 0, 78, 84
1, 278901, Note_on_c, 0, 39, 51
1, 278907, Note_on_c, 0, 51, 43
1, 278914, Note_on_c, 0, 46, 57
1, 279063, Note_off_c, 0, 39, 31
1, 279072, Note_off_c, 0, 51, 43
1, 279074, Note_off_c, 0, 46, 32
1, 279201, Note_on_c, 0, 46, 45
1, 279203, Note_on_c, 0, 39, 46
1, 279209, Note_on_c, 0, 79, 73
1, 279211, Note_on_c, 0, 51, 43
1, 279218, Note_off_c, 0, 78, 62
1, 279283, Note_off_c, 0, 51, 51
1, 279286, Note_off_c, 0, 79, 61
1, 279362, Note_off_c, 0, 46, 40
1, 279389, Note_off_c, 0, 39, 35
1, 279458, Control_c, 0, 64, 119
1, 279473, Control_c, 0, 64, 87
1, 279486, Note_on_c, 0, 46, 62
1, 279487, Control_c, 0, 64, 68
1, 279491, Note_on_c, 0, 50, 74
1, 279498, Note_on_c, 0, 38, 64
1, 279502, Control_c, 0, 64, 44
1, 279525, Control_c, 0, 64, 26
1, 279540, Control_c, 0, 64, 35
1, 279555, Control_c, 0, 64, 52
1, 279569, Control_c, 0, 64, 60
1, 279584, Control_c, 0, 64, 66
1, 279599, Control_c, 0, 64, 73
1, 279614, Control_c, 0, 64, 82
1, 279629, Control_c, 0, 64, 91
1, 279643, Control_c, 0, 64, 98
1, 279658, Control_c, 0, 64, 103
1, 279673, Control_c, 0, 64, 107
1, 279688, Control_c, 0, 64, 111
1, 279702, Control_c, 0, 64, 125
1, 279711, Note_off_c, 0, 38, 34
1, 279717, Control_c, 0, 64, 127
1, 279731, Note_off_c, 0, 50, 35
1, 279733, Note_off_c, 0, 46, 29
1, 279784, Note_on_c, 0, 79, 78
1, 279800, Note_on_c, 0, 46, 45
1, 279805, Note_on_c, 0, 50, 55
1, 279807, Note_on_c, 0, 38, 52
1, 279936, Note_on_c, 0, 77, 79
1, 279950, Note_off_c, 0, 79, 56
1, 279960, Note_off_c, 0, 50, 37
1, 279961, Note_off_c, 0, 38, 35
1, 279962, Note_off_c, 0, 46, 43
1, 280104, Note_on_c, 0, 38, 42
1, 280109, Note_on_c, 0, 50, 57
1, 280109, Note_on_c, 0, 82, 92
1, 280115, Note_on_c, 0, 46, 54
1, 280120, Note_off_c, 0, 77, 62
1, 280136, Note_off_c, 0, 38, 50
1, 280163, Note_off_c, 0, 50, 63
1, 280200, Note_off_c, 0, 46, 60
1, 280391, Control_c, 0, 64, 102
1, 280406, Control_c, 0, 64, 78
1, 280408, Note_on_c, 0, 51, 68
1, 280416, Note_on_c, 0, 39, 53
1, 280419, Note_on_c, 0, 46, 59
1, 280421, Control_c, 0, 64, 52
1, 280436, Control_c, 0, 64, 0
1, 280510, Control_c, 0, 64, 51
1, 280524, Control_c, 0, 64, 63
1, 280539, Control_c, 0, 64, 71
1, 280554, Control_c, 0, 64, 80
1, 280569, Control_c, 0, 64, 90
1, 280584, Control_c, 0, 64, 97
1, 280600, Control_c, 0, 64, 105
1, 280608, Note_off_c, 0, 39, 49
1, 280611, Note_off_c, 0, 46, 56
1, 280614, Control_c, 0, 64, 113
1, 280619, Note_off_c, 0, 51, 52
1, 280629, Control_c, 0, 64, 127
1, 280708, Note_on_c, 0, 81, 80
1, 280739, Note_on_c, 0, 51, 49
1, 280747, Note_on_c, 0, 46, 52
1, 280748, Note_on_c, 0, 39, 47
1, 280780, Note_off_c, 0, 82, 60
1, 280891, Note_off_c, 0, 39, 0
1, 280921, Note_on_c, 0, 79, 85
1, 280944, Note_off_c, 0, 51, 30
1, 280948, Note_off_c, 0, 46, 34
1, 280952, Poly_aftertouch_c, 0, 39, 0
1, 280953, Note_off_c, 0, 81, 64
1, 281028, Note_off_c, 0, 79, 61
1, 281229, Control_c, 0, 64, 110
1, 281236, Note_on_c, 0, 91, 85
1, 281244, Control_c, 0, 64, 81
1, 281246, Note_on_c, 0, 39, 44
1, 281249, Note_on_c, 0, 46, 49
1, 281249, Note_on_c, 0, 51, 43
1, 281259, Control_c, 0, 64, 60
1, 281273, Control_c, 0, 64, 0
1, 281318, Control_c, 0, 64, 42
1, 281333, Control_c, 0, 64, 57
1, 281347, Control_c, 0, 64, 65
1, 281362, Control_c, 0, 64, 73
1, 281377, Control_c, 0, 64, 83
1, 281393, Control_c, 0, 64, 93
1, 281408, Control_c, 0, 64, 101
1, 281423, Control_c, 0, 64, 110
1, 281437, Control_c, 0, 64, 125
1, 281452, Control_c, 0, 64, 127
1, 281468, Note_off_c, 0, 39, 36
1, 281483, Note_off_c, 0, 46, 34
1, 281511, Control_c, 0, 67, 8
1, 281515, Note_off_c, 0, 51, 32
1, 281526, Control_c, 0, 67, 9
1, 281541, Control_c, 0, 67, 10
1, 281556, Control_c, 0, 67, 11
1, 281570, Control_c, 0, 67, 12
1, 281585, Control_c, 0, 67, 15
1, 281600, Control_c, 0, 67, 17
1, 281615, Control_c, 0, 67, 19
1, 281629, Control_c, 0, 67, 22
1, 281644, Control_c, 0, 67, 26
1, 281659, Control_c, 0, 67, 30
1, 281674, Control_c, 0, 67, 34
1, 281688, Control_c, 0, 67, 38
1, 281703, Control_c, 0, 67, 43
1, 281718, Control_c, 0, 67, 48
1, 281733, Control_c, 0, 67, 53
1, 281748, Control_c, 0, 64, 115
1, 281748, Control_c, 0, 67, 59
1, 281764, Note_on_c, 0, 50, 47
1, 281769, Control_c, 0, 64, 86
1, 281769, Control_c, 0, 67, 66
1, 281782, Note_on_c, 0, 41, 38
1, 281784, Control_c, 0, 64, 65
1, 281784, Control_c, 0, 67, 73
1, 281789, Note_on_c, 0, 46, 35
1, 281799, Control_c, 0, 64, 0
1, 281799, Control_c, 0, 67, 80
1, 281814, Control_c, 0, 67, 89
1, 281829, Control_c, 0, 67, 96
1, 281844, Control_c, 0, 67, 103
1, 281859, Control_c, 0, 67, 111
1, 281874, Control_c, 0, 67, 119
1, 281888, Control_c, 0, 67, 127
1, 281903, Control_c, 0, 64, 26
1, 281918, Control_c, 0, 64, 56
1, 281933, Control_c, 0, 64, 67
1, 281948, Control_c, 0, 64, 75
1, 281963, Control_c, 0, 64, 84
1, 281977, Control_c, 0, 64, 92
1, 281992, Control_c, 0, 64, 99
1, 282007, Control_c, 0, 64, 104
1, 282021, Control_c, 0, 64, 110
1, 282036, Control_c, 0, 64, 115
1, 282051, Control_c, 0, 64, 122
1, 282066, Control_c, 0, 64, 127
1, 282070, Note_off_c, 0, 41, 36
1, 282092, Note_off_c, 0, 46, 43
1, 282099, Note_off_c, 0, 50, 41
1, 282299, Note_on_c, 0, 89, 63
1, 282310, Note_on_c, 0, 50, 28
1, 282315, Note_on_c, 0, 41, 27
1, 282333, Note_on_c, 0, 46, 27
1, 282387, Note_off_c, 0, 91, 55
1, 282514, Note_off_c, 0, 41, 37
1, 282579, Note_off_c, 0, 46, 37
1, 282601, Note_off_c, 0, 89, 56
1, 282634, Note_off_c, 0, 50, 41
1, 282906, Note_on_c, 0, 41, 23
1, 282908, Note_on_c, 0, 50, 32
1, 282913, Note_on_c, 0, 74, 45
1, 282920, Note_on_c, 0, 46, 29
1, 283052, Note_off_c, 0, 41, 40
1, 283080, Note_off_c, 0, 50, 46
1, 283134, Note_off_c, 0, 46, 43
1, 283279, Note_on_c, 0, 51, 45
1, 283283, Control_c, 0, 64, 112
1, 283294, Note_on_c, 0, 48, 43
1, 283298, Control_c, 0, 64, 87
1, 283313, Control_c, 0, 64, 67
1, 283321, Note_on_c, 0, 42, 33
1, 283328, Control_c, 0, 64, 0
1, 283338, Note_off_c, 0, 74, 28
1, 283416, Control_c, 0, 64, 21
1, 283431, Control_c, 0, 64, 55
1, 283446, Control_c, 0, 64, 66
1, 283460, Control_c, 0, 64, 75
1, 283470, Note_off_c, 0, 42, 48
1, 283474, Note_off_c, 0, 51, 51
1, 283475, Control_c, 0, 64, 84
1, 283490, Control_c, 0, 64, 93
1, 283505, Control_c, 0, 64, 100
1, 283509, Note_off_c, 0, 48, 32
1, 283520, Control_c, 0, 64, 109
1, 283534, Control_c, 0, 64, 127
1, 283586, Note_on_c, 0, 42, 44
1, 283586, Note_on_c, 0, 48, 21
1, 283617, Note_on_c, 0, 51, 30
1, 283644, Note_off_c, 0, 48, 60
1, 283669, Note_off_c, 0, 51, 53
1, 283671, Note_off_c, 0, 42, 37
1, 283768, Note_on_c, 0, 77, 50
1, 283957, Note_on_c, 0, 54, 30
1, 283975, Note_on_c, 0, 42, 26
1, 283976, Note_on_c, 0, 51, 32
1, 283981, Note_on_c, 0, 48, 21
1, 284016, Note_on_c, 0, 75, 55
1, 284162, Note_off_c, 0, 51, 41
1, 284166, Note_off_c, 0, 42, 35
1, 284169, Note_off_c, 0, 48, 37
1, 284172, Note_on_c, 0, 69, 67
1, 284173, Note_off_c, 0, 75, 60
1, 284175, Note_off_c, 0, 77, 39
1, 284227, Note_off_c, 0, 69, 58
1, 284228, Note_off_c, 0, 54, 38
1, 284326, Note_on_c, 0, 69, 59
1, 284521, Control_c, 0, 64, 103
1, 284536, Control_c, 0, 64, 82
1, 284545, Note_on_c, 0, 42, 38
1, 284547, Note_on_c, 0, 54, 31
1, 284551, Control_c, 0, 64, 64
1, 284560, Note_on_c, 0, 51, 34
1, 284562, Note_on_c, 0, 48, 26
1, 284565, Note_on_c, 0, 72, 58
1, 284565, Note_off_c, 0, 69, 58
1, 284565, Control_c, 0, 64, 0
1, 284592, Poly_aftertouch_c, 0, 76, 127
1, 284655, Control_c, 0, 64, 44
1, 284656, Poly_aftertouch_c, 0, 76, 0
1, 284670, Control_c, 0, 64, 60
1, 284685, Control_c, 0, 64, 68
1, 284700, Control_c, 0, 64, 75
1, 284714, Control_c, 0, 64, 82
1, 284729, Control_c, 0, 64, 87
1, 284744, Control_c, 0, 64, 92
1, 284764, Note_off_c, 0, 48, 37
1, 284766, Control_c, 0, 64, 95
1, 284772, Note_off_c, 0, 42, 37
1, 284780, Note_off_c, 0, 51, 39
1, 284781, Control_c, 0, 64, 98
1, 284795, Control_c, 0, 64, 101
1, 284804, Note_off_c, 0, 54, 44
1, 284810, Control_c, 0, 64, 103
1, 284825, Control_c, 0, 64, 106
1, 284840, Control_c, 0, 64, 108
1, 284855, Control_c, 0, 64, 111
1, 284870, Control_c, 0, 64, 113
1, 284884, Control_c, 0, 64, 115
1, 284899, Control_c, 0, 64, 116
1, 284914, Control_c, 0, 64, 117
1, 284919, Note_on_c, 0, 42, 35
1, 284923, Note_on_c, 0, 54, 43
1, 284929, Control_c, 0, 64, 119
1, 284940, Note_on_c, 0, 51, 24
1, 284944, Control_c, 0, 64, 123
1, 284959, Control_c, 0, 64, 127
1, 284982, Note_off_c, 0, 54, 51
1, 284984, Poly_aftertouch_c, 0, 48, 127
1, 284995, Note_off_c, 0, 51, 45
1, 285024, Poly_aftertouch_c, 0, 48, 0
1, 285031, Note_off_c, 0, 42, 32
1, 285180, Control_c, 0, 64, 111
1, 285195, Control_c, 0, 64, 90
1, 285210, Control_c, 0, 64, 72
1, 285225, Control_c, 0, 64, 54
1, 285239, Control_c, 0, 64, 24
1, 285240, Note_on_c, 0, 41, 6
1, 285242, Note_on_c, 0, 53, 29
1, 285245, Note_on_c, 0, 51, 30
1, 285254, Control_c, 0, 64, 30
1, 285269, Control_c, 0, 64, 45
1, 285280, Poly_aftertouch_c, 0, 48, 127
1, 285284, Control_c, 0, 64, 55
1, 285299, Control_c, 0, 64, 62
1, 285314, Control_c, 0, 64, 67
1, 285329, Control_c, 0, 64, 73
1, 285338, Poly_aftertouch_c, 0, 48, 0
1, 285344, Control_c, 0, 64, 82
1, 285358, Control_c, 0, 64, 88
1, 285373, Control_c, 0, 64, 93
1, 285385, Note_off_c, 0, 51, 40
1, 285387, Note_off_c, 0, 53, 40
1, 285388, Control_c, 0, 64, 95
1, 285393, Note_off_c, 0, 41, 36
1, 285403, Control_c, 0, 64, 99
1, 285418, Control_c, 0, 64, 103
1, 285433, Control_c, 0, 64, 111
1, 285447, Control_c, 0, 64, 127
1, 285514, Control_c, 0, 64, 106
1, 285529, Control_c, 0, 64, 86
1, 285541, Note_on_c, 0, 53, 31
1, 285543, Control_c, 0, 64, 68
1, 285545, Note_on_c, 0, 51, 30
1, 285549, Note_on_c, 0, 41, 24
1, 285558, Control_c, 0, 64, 59
1, 285573, Control_c, 0, 64, 61
1, 285588, Control_c, 0, 64, 66
1, 285603, Note_off_c, 0, 53, 47
1, 285603, Control_c, 0, 64, 70
1, 285618, Control_c, 0, 64, 75
1, 285624, Note_off_c, 0, 41, 35
1, 285633, Control_c, 0, 64, 82
1, 285648, Control_c, 0, 64, 91
1, 285662, Control_c, 0, 64, 99
1, 285677, Control_c, 0, 64, 107
1, 285686, Note_off_c, 0, 51, 31
1, 285692, Control_c, 0, 64, 115
1, 285707, Control_c, 0, 64, 127
1, 285781, Control_c, 0, 64, 117
1, 285796, Control_c, 0, 64, 91
1, 285810, Control_c, 0, 64, 72
1, 285823, Note_on_c, 0, 51, 31
1, 285825, Control_c, 0, 64, 55
1, 285840, Control_c, 0, 64, 52
1, 285853, Note_on_c, 0, 48, 22
1, 285854, Control_c, 0, 64, 58
1, 285869, Control_c, 0, 64, 63
1, 285884, Control_c, 0, 64, 67
1, 285899, Control_c, 0, 64, 71
1, 285914, Control_c, 0, 64, 77
1, 285927, Note_off_c, 0, 48, 39
1, 285928, Control_c, 0, 64, 84
1, 285943, Control_c, 0, 64, 88
1, 285958, Control_c, 0, 64, 91
1, 285973, Poly_aftertouch_c, 0, 41, 0
1, 285973, Control_c, 0, 64, 93
1, 285979, Note_off_c, 0, 51, 39
1, 285988, Control_c, 0, 64, 95
1, 286002, Control_c, 0, 64, 98
1, 286017, Control_c, 0, 64, 101
1, 286032, Control_c, 0, 64, 104
1, 286047, Control_c, 0, 64, 105
1, 286062, Control_c, 0, 64, 106
1, 286077, Control_c, 0, 64, 107
1, 286092, Control_c, 0, 64, 108
1, 286107, Control_c, 0, 64, 110
1, 286122, Control_c, 0, 64, 113
1, 286136, Control_c, 0, 64, 117
1, 286140, Note_on_c, 0, 51, 28
1, 286151, Control_c, 0, 64, 123
1, 286163, Note_on_c, 0, 41, 27
1, 286166, Control_c, 0, 64, 127
1, 286180, Note_on_c, 0, 48, 26
1, 286214, Note_off_c, 0, 41, 45
1, 286220, Note_off_c, 0, 48, 44
1, 286228, Note_off_c, 0, 51, 38
1, 286412, Control_c, 0, 64, 117
1, 286426, Control_c, 0, 64, 100
1, 286441, Control_c, 0, 64, 83
1, 286456, Control_c, 0, 64, 67
1, 286471, Control_c, 0, 64, 41
1, 286485, Control_c, 0, 64, 0
1, 286487, Note_on_c, 0, 70, 44
1, 286494, Note_on_c, 0, 50, 34
1, 286500, Note_on_c, 0, 46, 29
1, 286545, Control_c, 0, 64, 18
1, 286560, Control_c, 0, 64, 47
1, 286565, Poly_aftertouch_c, 0, 41, 127
1, 286568, Note_off_c, 0, 46, 57
1, 286575, Control_c, 0, 64, 61
1, 286579, Note_off_c, 0, 72, 53
1, 286584, Note_off_c, 0, 50, 59
1, 286590, Control_c, 0, 64, 68
1, 286594, Poly_aftertouch_c, 0, 41, 0
1, 286604, Control_c, 0, 64, 75
1, 286619, Control_c, 0, 64, 81
1, 286634, Control_c, 0, 64, 86
1, 286649, Control_c, 0, 64, 90
1, 286664, Control_c, 0, 64, 94
1, 286678, Control_c, 0, 64, 98
1, 286693, Control_c, 0, 64, 101
1, 286708, Control_c, 0, 64, 105
1, 286723, Control_c, 0, 64, 109
1, 286738, Control_c, 0, 64, 112
1, 286752, Control_c, 0, 64, 114
1, 286782, Control_c, 0, 64, 112
1, 286797, Control_c, 0, 64, 102
1, 286811, Control_c, 0, 64, 87
1, 286824, Note_on_c, 0, 50, 34
1, 286826, Control_c, 0, 64, 72
1, 286841, Control_c, 0, 64, 59
1, 286844, Note_on_c, 0, 53, 27
1, 286846, Note_on_c, 0, 46, 29
1, 286856, Control_c, 0, 64, 51
1, 286871, Control_c, 0, 64, 57
1, 286885, Control_c, 0, 64, 62
1, 286900, Control_c, 0, 64, 64
1, 286915, Control_c, 0, 64, 68
1, 286930, Control_c, 0, 64, 74
1, 286940, Note_off_c, 0, 53, 39
1, 286945, Control_c, 0, 64, 80
1, 286951, Note_off_c, 0, 46, 37
1, 286951, Note_off_c, 0, 50, 37
1, 286959, Control_c, 0, 64, 86
1, 286975, Control_c, 0, 64, 90
1, 286990, Control_c, 0, 64, 91
1, 287013, Control_c, 0, 64, 92
1, 287028, Control_c, 0, 64, 93
1, 287043, Control_c, 0, 64, 94
1, 287057, Control_c, 0, 64, 96
1, 287072, Control_c, 0, 64, 97
1, 287087, Control_c, 0, 64, 98
1, 287102, Control_c, 0, 64, 98
1, 287122, Note_on_c, 0, 50, 35
1, 287131, Control_c, 0, 64, 99
1, 287141, Note_on_c, 0, 46, 29
1, 287144, Note_on_c, 0, 53, 23
1, 287146, Control_c, 0, 64, 99
1, 287161, Control_c, 0, 64, 101
1, 287176, Control_c, 0, 64, 102
1, 287190, Control_c, 0, 64, 102
1, 287200, Note_off_c, 0, 53, 46
1, 287203, Note_off_c, 0, 50, 56
1, 287205, Control_c, 0, 64, 103
1, 287248, Note_off_c, 0, 46, 36
1, 287249, Control_c, 0, 64, 103
1, 287264, Control_c, 0, 64, 104
1, 287279, Control_c, 0, 64, 104
1, 287294, Control_c, 0, 64, 105
1, 287308, Control_c, 0, 64, 105
1, 287368, Control_c, 0, 64, 105
1, 287382, Control_c, 0, 64, 100
1, 287397, Control_c, 0, 64, 90
1, 287412, Control_c, 0, 64, 76
1, 287426, Note_on_c, 0, 46, 15
1, 287427, Control_c, 0, 64, 62
1, 287439, Note_on_c, 0, 74, 45
1, 287442, Control_c, 0, 64, 12
1, 287450, Note_on_c, 0, 50, 21
1, 287457, Control_c, 0, 64, 0
1, 287461, Note_off_c, 0, 70, 48
1, 287476, Poly_aftertouch_c, 0, 53, 127
1, 287487, Control_c, 0, 64, 19
1, 287502, Control_c, 0, 64, 39
1, 287517, Control_c, 0, 64, 53
1, 287532, Control_c, 0, 64, 62
1, 287546, Control_c, 0, 64, 68
1, 287555, Poly_aftertouch_c, 0, 53, 0
1, 287561, Control_c, 0, 64, 74
1, 287576, Note_off_c, 0, 50, 37
1, 287576, Control_c, 0, 64, 81
1, 287591, Control_c, 0, 64, 86
1, 287606, Control_c, 0, 64, 89
1, 287606, Note_off_c, 0, 46, 41
1, 287621, Control_c, 0, 64, 91
1, 287635, Control_c, 0, 64, 92
1, 287650, Control_c, 0, 64, 94
1, 287665, Control_c, 0, 64, 96
1, 287680, Control_c, 0, 64, 98
1, 287681, Note_off_c, 0, 74, 56
1, 287695, Control_c, 0, 64, 99
1, 287724, Control_c, 0, 64, 99
1, 287740, Note_on_c, 0, 46, 44
1, 287743, Note_on_c, 0, 50, 35
1, 287754, Control_c, 0, 64, 100
1, 287776, Control_c, 0, 64, 100
1, 287779, Note_on_c, 0, 53, 22
1, 287812, Note_off_c, 0, 46, 53
1, 287818, Note_off_c, 0, 50, 45
1, 287827, Note_off_c, 0, 53, 49
1, 288037, Note_on_c, 0, 50, 43
1, 288044, Note_on_c, 0, 46, 36
1, 288059, Note_on_c, 0, 53, 25
1, 288083, Note_off_c, 0, 46, 51
1, 288088, Note_off_c, 0, 50, 52
1, 288102, Note_off_c, 0, 53, 50
1, 288384, Control_c, 0, 64, 99
1, 288388, Note_on_c, 0, 53, 33
1, 288394, Note_on_c, 0, 74, 60
1, 288399, Control_c, 0, 64, 91
1, 288400, Note_on_c, 0, 50, 39
1, 288405, Note_on_c, 0, 47, 43
1, 288414, Control_c, 0, 64, 80
1, 288420, Note_on_c, 0, 44, 25
1, 288429, Control_c, 0, 64, 67
1, 288444, Control_c, 0, 64, 48
1, 288458, Control_c, 0, 64, 0
1, 288510, Control_c, 0, 64, 15
1, 288525, Control_c, 0, 64, 40
1, 288539, Control_c, 0, 64, 56
1, 288554, Control_c, 0, 64, 64
1, 288569, Control_c, 0, 64, 69
1, 288585, Control_c, 0, 64, 75
1, 288600, Control_c, 0, 64, 83
1, 288615, Control_c, 0, 64, 88
1, 288629, Control_c, 0, 64, 93
1, 288644, Control_c, 0, 64, 97
1, 288659, Control_c, 0, 64, 100
1, 288674, Control_c, 0, 64, 103
1, 288688, Control_c, 0, 64, 109
1, 288691, Note_off_c, 0, 47, 38
1, 288697, Note_off_c, 0, 44, 38
1, 288700, Note_off_c, 0, 50, 43
1, 288703, Control_c, 0, 64, 115
1, 288708, Note_off_c, 0, 53, 41
1, 288718, Control_c, 0, 64, 127
1, 288855, Note_on_c, 0, 53, 34
1, 288859, Note_on_c, 0, 47, 30
1, 288866, Note_on_c, 0, 44, 29
1, 288868, Note_off_c, 0, 74, 59
1, 288872, Note_on_c, 0, 50, 30
1, 288943, Note_off_c, 0, 50, 49
1, 288958, Note_off_c, 0, 47, 35
1, 288981, Note_off_c, 0, 44, 33
1, 288989, Note_off_c, 0, 53, 35
1, 289133, Note_on_c, 0, 74, 62
1, 289134, Control_c, 0, 67, 127
1, 289141, Note_on_c, 0, 53, 35
1, 289148, Control_c, 0, 67, 126
1, 289163, Control_c, 0, 67, 125
1, 289168, Note_on_c, 0, 47, 33
1, 289169, Note_on_c, 0, 50, 39
1, 289178, Note_on_c, 0, 44, 30
1, 289178, Control_c, 0, 67, 124
1, 289193, Control_c, 0, 67, 123
1, 289207, Control_c, 0, 67, 123
1, 289222, Control_c, 0, 67, 121
1, 289237, Control_c, 0, 67, 120
1, 289240, Note_off_c, 0, 47, 41
1, 289244, Note_off_c, 0, 50, 41
1, 289260, Control_c, 0, 67, 119
1, 289272, Note_off_c, 0, 44, 34
1, 289275, Control_c, 0, 67, 118
1, 289289, Control_c, 0, 67, 116
1, 289304, Control_c, 0, 67, 114
1, 289319, Control_c, 0, 67, 112
1, 289323, Note_off_c, 0, 53, 28
1, 289334, Control_c, 0, 67, 108
1, 289349, Control_c, 0, 67, 104
1, 289363, Control_c, 0, 67, 99
1, 289379, Control_c, 0, 67, 94
1, 289394, Control_c, 0, 67, 89
1, 289409, Control_c, 0, 67, 85
1, 289424, Control_c, 0, 67, 81
1, 289439, Control_c, 0, 64, 101
1, 289439, Control_c, 0, 67, 77
1, 289453, Control_c, 0, 64, 75
1, 289453, Control_c, 0, 67, 73
1, 289468, Control_c, 0, 64, 57
1, 289468, Control_c, 0, 67, 70
1, 289483, Control_c, 0, 64, 24
1, 289483, Control_c, 0, 67, 67
1, 289484, Note_on_c, 0, 50, 45
1, 289486, Note_on_c, 0, 47, 41
1, 289487, Note_on_c, 0, 43, 50
1, 289498, Control_c, 0, 64, 22
1, 289498, Control_c, 0, 67, 65
1, 289499, Note_on_c, 0, 53, 20
1, 289512, Control_c, 0, 64, 35
1, 289512, Control_c, 0, 67, 63
1, 289527, Control_c, 0, 64, 48
1, 289527, Control_c, 0, 67, 60
1, 289542, Control_c, 0, 64, 58
1, 289542, Control_c, 0, 67, 57
1, 289557, Control_c, 0, 64, 64
1, 289557, Control_c, 0, 67, 55
1, 289572, Control_c, 0, 64, 70
1, 289572, Control_c, 0, 67, 53
1, 289586, Control_c, 0, 64, 77
1, 289586, Control_c, 0, 67, 51
1, 289594, Note_off_c, 0, 47, 55
1, 289601, Control_c, 0, 64, 85
1, 289601, Control_c, 0, 67, 49
1, 289616, Control_c, 0, 64, 91
1, 289616, Control_c, 0, 67, 47
1, 289630, Control_c, 0, 64, 95
1, 289630, Control_c, 0, 67, 45
1, 289631, Note_off_c, 0, 53, 35
1, 289644, Note_off_c, 0, 43, 43
1, 289645, Note_off_c, 0, 50, 37
1, 289645, Control_c, 0, 64, 98
1, 289645, Control_c, 0, 67, 42
1, 289660, Control_c, 0, 64, 101
1, 289660, Control_c, 0, 67, 40
1, 289675, Control_c, 0, 64, 104
1, 289675, Control_c, 0, 67, 38
1, 289690, Control_c, 0, 64, 108
1, 289690, Control_c, 0, 67, 34
1, 289705, Control_c, 0, 64, 111
1, 289705, Control_c, 0, 67, 30
1, 289720, Control_c, 0, 64, 114
1, 289720, Control_c, 0, 67, 26
1, 289734, Control_c, 0, 64, 115
1, 289734, Control_c, 0, 67, 22
1, 289749, Control_c, 0, 64, 118
1, 289749, Control_c, 0, 67, 19
1, 289764, Control_c, 0, 64, 123
1, 289764, Control_c, 0, 67, 16
1, 289766, Note_on_c, 0, 43, 59
1, 289775, Note_on_c, 0, 50, 41
1, 289779, Control_c, 0, 64, 127
1, 289779, Control_c, 0, 67, 13
1, 289779, Note_on_c, 0, 53, 41
1, 289794, Control_c, 0, 67, 9
1, 289809, Control_c, 0, 67, 0
1, 289809, Note_off_c, 0, 43, 59
1, 289813, Note_off_c, 0, 50, 54
1, 289815, Note_off_c, 0, 53, 56
1, 289832, Poly_aftertouch_c, 0, 47, 127
1, 289865, Poly_aftertouch_c, 0, 47, 0
1, 290088, Note_on_c, 0, 68, 68
1, 290091, Note_on_c, 0, 56, 59
1, 290102, Note_on_c, 0, 53, 47
1, 290104, Note_on_c, 0, 50, 48
1, 290112, Note_on_c, 0, 47, 44
1, 290115, Note_off_c, 0, 74, 65
1, 290249, Note_off_c, 0, 50, 32
1, 290278, Note_off_c, 0, 47, 35
1, 290295, Note_off_c, 0, 53, 29
1, 290303, Note_off_c, 0, 56, 53
1, 290483, Control_c, 0, 64, 106
1, 290498, Control_c, 0, 64, 81
1, 290512, Control_c, 0, 64, 63
1, 290512, Control_c, 0, 67, 8
1, 290523, Note_on_c, 0, 55, 47
1, 290527, Control_c, 0, 64, 0
1, 290527, Control_c, 0, 67, 8
1, 290537, Note_on_c, 0, 53, 39
1, 290542, Control_c, 0, 67, 9
1, 290548, Note_on_c, 0, 50, 39
1, 290557, Control_c, 0, 67, 9
1, 290559, Note_on_c, 0, 47, 33
1, 290587, Control_c, 0, 67, 10
1, 290631, Control_c, 0, 64, 24
1, 290645, Control_c, 0, 64, 53
1, 290660, Control_c, 0, 64, 63
1, 290675, Control_c, 0, 64, 70
1, 290690, Control_c, 0, 64, 78
1, 290705, Control_c, 0, 64, 85
1, 290705, Control_c, 0, 67, 9
1, 290706, Note_off_c, 0, 53, 59
1, 290719, Note_off_c, 0, 47, 42
1, 290719, Control_c, 0, 64, 92
1, 290721, Note_off_c, 0, 55, 55
1, 290734, Note_off_c, 0, 50, 35
1, 290734, Control_c, 0, 64, 97
1, 290757, Control_c, 0, 64, 101
1, 290772, Control_c, 0, 64, 104
1, 290772, Control_c, 0, 67, 9
1, 290787, Control_c, 0, 64, 107
1, 290801, Control_c, 0, 64, 109
1, 290816, Control_c, 0, 64, 111
1, 290816, Control_c, 0, 67, 8
1, 290831, Control_c, 0, 64, 114
1, 290846, Control_c, 0, 64, 117
1, 290852, Note_on_c, 0, 47, 38
1, 290860, Note_on_c, 0, 53, 43
1, 290860, Control_c, 0, 64, 120
1, 290873, Note_on_c, 0, 55, 43
1, 290875, Control_c, 0, 64, 127
1, 290879, Note_on_c, 0, 50, 41
1, 290919, Note_off_c, 0, 53, 58
1, 290924, Note_off_c, 0, 55, 56
1, 290926, Note_off_c, 0, 50, 54
1, 290960, Note_off_c, 0, 47, 37
1, 291096, Note_on_c, 0, 67, 72
1, 291116, Note_on_c, 0, 53, 39
1, 291118, Note_off_c, 0, 68, 60
1, 291124, Note_on_c, 0, 50, 37
1, 291125, Note_on_c, 0, 55, 36
1, 291126, Note_on_c, 0, 47, 37
1, 291172, Control_c, 0, 67, 9
1, 291183, Note_off_c, 0, 50, 57
1, 291187, Note_off_c, 0, 55, 52
1, 291197, Note_off_c, 0, 53, 55
1, 291217, Control_c, 0, 67, 9
1, 291230, Note_off_c, 0, 47, 33
1, 291276, Control_c, 0, 67, 10
1, 291409, Control_c, 0, 67, 10
1, 291424, Control_c, 0, 64, 121
1, 291439, Control_c, 0, 64, 91
1, 291439, Control_c, 0, 67, 11
1, 291445, Note_on_c, 0, 50, 41
1, 291454, Control_c, 0, 64, 73
1, 291454, Control_c, 0, 67, 12
1, 291457, Note_on_c, 0, 53, 35
1, 291457, Note_on_c, 0, 55, 34
1, 291468, Control_c, 0, 64, 55
1, 291468, Control_c, 0, 67, 13
1, 291479, Note_on_c, 0, 77, 65
1, 291483, Control_c, 0, 64, 0
1, 291483, Control_c, 0, 67, 15
1, 291485, Note_on_c, 0, 47, 21
1, 291505, Control_c, 0, 67, 16
1, 291507, Note_off_c, 0, 67, 56
1, 291520, Control_c, 0, 67, 18
1, 291535, Control_c, 0, 64, 23
1, 291535, Control_c, 0, 67, 20
1, 291550, Control_c, 0, 64, 45
1, 291550, Control_c, 0, 67, 22
1, 291565, Control_c, 0, 64, 58
1, 291565, Control_c, 0, 67, 24
1, 291580, Control_c, 0, 64, 65
1, 291580, Control_c, 0, 67, 27
1, 291594, Control_c, 0, 64, 71
1, 291594, Control_c, 0, 67, 32
1, 291609, Control_c, 0, 64, 79
1, 291609, Control_c, 0, 67, 39
1, 291624, Control_c, 0, 64, 86
1, 291624, Control_c, 0, 67, 46
1, 291639, Control_c, 0, 64, 93
1, 291639, Control_c, 0, 67, 53
1, 291654, Control_c, 0, 64, 96
1, 291654, Control_c, 0, 67, 58
1, 291657, Note_off_c, 0, 55, 38
1, 291660, Note_off_c, 0, 47, 43
1, 291668, Note_off_c, 0, 53, 41
1, 291669, Control_c, 0, 64, 100
1, 291669, Control_c, 0, 67, 63
1, 291676, Note_off_c, 0, 50, 34
1, 291683, Control_c, 0, 64, 103
1, 291683, Control_c, 0, 67, 68
1, 291698, Control_c, 0, 64, 106
1, 291698, Control_c, 0, 67, 72
1, 291713, Control_c, 0, 64, 109
1, 291713, Control_c, 0, 67, 75
1, 291728, Control_c, 0, 64, 110
1, 291728, Control_c, 0, 67, 79
1, 291743, Control_c, 0, 64, 111
1, 291743, Control_c, 0, 67, 83
1, 291757, Control_c, 0, 64, 113
1, 291757, Control_c, 0, 67, 87
1, 291773, Control_c, 0, 64, 116
1, 291773, Control_c, 0, 67, 91
1, 291788, Control_c, 0, 64, 122
1, 291788, Control_c, 0, 67, 95
1, 291789, Note_on_c, 0, 55, 41
1, 291792, Note_on_c, 0, 50, 30
1, 291800, Note_on_c, 0, 53, 35
1, 291803, Control_c, 0, 64, 127
1, 291803, Control_c, 0, 67, 98
1, 291806, Note_on_c, 0, 47, 35
1, 291818, Control_c, 0, 67, 101
1, 291833, Control_c, 0, 67, 103
1, 291847, Control_c, 0, 67, 106
1, 291851, Note_off_c, 0, 50, 51
1, 291852, Note_off_c, 0, 55, 51
1, 291853, Note_off_c, 0, 47, 47
1, 291862, Note_off_c, 0, 53, 44
1, 291862, Control_c, 0, 67, 109
1, 291877, Control_c, 0, 67, 112
1, 291892, Control_c, 0, 67, 114
1, 291906, Control_c, 0, 67, 115
1, 291921, Control_c, 0, 67, 116
1, 291936, Control_c, 0, 67, 116
1, 292022, Note_on_c, 0, 50, 37
1, 292024, Control_c, 0, 67, 117
1, 292027, Note_on_c, 0, 74, 64
1, 292033, Note_on_c, 0, 55, 36
1, 292036, Note_on_c, 0, 53, 31
1, 292065, Note_on_c, 0, 47, 6
1, 292071, Note_off_c, 0, 50, 65
1, 292095, Note_off_c, 0, 77, 57
1, 292095, Note_off_c, 0, 53, 56
1, 292107, Note_off_c, 0, 55, 51
1, 292111, Note_off_c, 0, 74, 59
1, 292116, Note_off_c, 0, 47, 52
1, 292343, Control_c, 0, 64, 104
1, 292358, Control_c, 0, 64, 86
1, 292372, Control_c, 0, 64, 69
1, 292373, Note_on_c, 0, 51, 40
1, 292382, Note_on_c, 0, 55, 35
1, 292387, Control_c, 0, 64, 32
1, 292401, Note_on_c, 0, 48, 28
1, 292402, Control_c, 0, 64, 0
1, 292411, Note_on_c, 0, 74, 45
1, 292417, Control_c, 0, 67, 116
1, 292446, Control_c, 0, 67, 116
1, 292476, Control_c, 0, 64, 28
1, 292491, Control_c, 0, 64, 56
1, 292505, Control_c, 0, 64, 64
1, 292520, Control_c, 0, 64, 70
1, 292535, Control_c, 0, 64, 75
1, 292550, Control_c, 0, 64, 79
1, 292565, Control_c, 0, 64, 84
1, 292565, Control_c, 0, 67, 115
1, 292581, Control_c, 0, 64, 88
1, 292587, Note_off_c, 0, 48, 40
1, 292595, Control_c, 0, 64, 91
1, 292597, Note_on_c, 0, 77, 62
1, 292597, Note_off_c, 0, 55, 37
1, 292600, Note_off_c, 0, 51, 41
1, 292610, Control_c, 0, 64, 94
1, 292625, Control_c, 0, 64, 96
1, 292640, Control_c, 0, 64, 99
1, 292654, Control_c, 0, 64, 101
1, 292657, Note_off_c, 0, 74, 51
1, 292669, Control_c, 0, 64, 103
1, 292684, Control_c, 0, 64, 106
1, 292699, Control_c, 0, 64, 109
1, 292714, Control_c, 0, 64, 111
1, 292728, Note_on_c, 0, 48, 37
1, 292728, Control_c, 0, 64, 112
1, 292743, Note_on_c, 0, 55, 38
1, 292743, Control_c, 0, 64, 114
1, 292748, Note_on_c, 0, 51, 40
1, 292758, Control_c, 0, 64, 115
1, 292773, Control_c, 0, 64, 117
1, 292787, Note_off_c, 0, 51, 53
1, 292788, Control_c, 0, 64, 120
1, 292792, Note_off_c, 0, 55, 46
1, 292802, Note_off_c, 0, 48, 49
1, 292802, Control_c, 0, 64, 123
1, 292817, Control_c, 0, 64, 125
1, 292832, Control_c, 0, 64, 127
1, 292876, Control_c, 0, 67, 115
1, 293026, Note_on_c, 0, 55, 28
1, 293030, Note_on_c, 0, 48, 19
1, 293030, Note_on_c, 0, 51, 34
1, 293037, Note_on_c, 0, 75, 60
1, 293090, Note_off_c, 0, 77, 60
1, 293123, Note_off_c, 0, 75, 61
1, 293165, Control_c, 0, 67, 114
1, 293195, Note_off_c, 0, 51, 32
1, 293201, Note_off_c, 0, 48, 38
1, 293206, Note_off_c, 0, 55, 28
1, 293269, Control_c, 0, 67, 114
1, 293374, Control_c, 0, 64, 116
1, 293375, Note_on_c, 0, 55, 22
1, 293378, Note_on_c, 0, 48, 18
1, 293380, Note_on_c, 0, 51, 28
1, 293389, Control_c, 0, 64, 103
1, 293395, Note_on_c, 0, 75, 47
1, 293404, Control_c, 0, 64, 89
1, 293418, Control_c, 0, 64, 75
1, 293433, Control_c, 0, 64, 60
1, 293448, Control_c, 0, 64, 45
1, 293463, Control_c, 0, 64, 47
1, 293477, Control_c, 0, 64, 53
1, 293477, Control_c, 0, 67, 113
1, 293492, Control_c, 0, 64, 58
1, 293507, Control_c, 0, 64, 62
1, 293507, Control_c, 0, 67, 113
1, 293522, Control_c, 0, 64, 65
1, 293537, Control_c, 0, 64, 72
1, 293551, Control_c, 0, 64, 79
1, 293561, Note_off_c, 0, 51, 42
1, 293566, Control_c, 0, 64, 87
1, 293566, Control_c, 0, 67, 112
1, 293572, Note_off_c, 0, 48, 39
1, 293580, Note_off_c, 0, 55, 40
1, 293581, Control_c, 0, 64, 94
1, 293596, Control_c, 0, 64, 99
1, 293611, Control_c, 0, 64, 105
1, 293625, Control_c, 0, 64, 113
1, 293640, Control_c, 0, 64, 127
1, 293684, Control_c, 0, 64, 101
1, 293699, Control_c, 0, 64, 81
1, 293714, Control_c, 0, 64, 60
1, 293715, Note_on_c, 0, 57, 46
1, 293719, Note_on_c, 0, 48, 26
1, 293723, Note_on_c, 0, 54, 36
1, 293729, Control_c, 0, 64, 0
1, 293781, Control_c, 0, 64, 31
1, 293795, Control_c, 0, 64, 52
1, 293795, Control_c, 0, 67, 113
1, 293810, Control_c, 0, 64, 63
1, 293825, Control_c, 0, 64, 71
1, 293840, Control_c, 0, 64, 80
1, 293853, Note_off_c, 0, 54, 50
1, 293855, Control_c, 0, 64, 92
1, 293869, Control_c, 0, 64, 104
1, 293881, Note_off_c, 0, 48, 37
1, 293884, Control_c, 0, 64, 116
1, 293886, Note_off_c, 0, 57, 47
1, 293899, Control_c, 0, 64, 127
1, 293943, Control_c, 0, 64, 107
1, 293943, Control_c, 0, 67, 113
1, 293946, Note_off_c, 0, 75, 42
1, 293958, Control_c, 0, 64, 86
1, 293973, Control_c, 0, 64, 67
1, 293988, Control_c, 0, 64, 28
1, 294003, Control_c, 0, 64, 0
1, 294011, Note_on_c, 0, 48, 35
1, 294011, Note_on_c, 0, 54, 42
1, 294017, Note_on_c, 0, 57, 49
1, 294018, Control_c, 0, 64, 26
1, 294033, Control_c, 0, 64, 51
1, 294048, Control_c, 0, 64, 61
1, 294063, Control_c, 0, 64, 67
1, 294077, Control_c, 0, 64, 74
1, 294092, Control_c, 0, 64, 82
1, 294107, Control_c, 0, 64, 92
1, 294122, Control_c, 0, 64, 99
1, 294137, Control_c, 0, 64, 101
1, 294138, Note_off_c, 0, 54, 48
1, 294151, Control_c, 0, 64, 103
1, 294167, Control_c, 0, 64, 104
1, 294169, Note_off_c, 0, 48, 40
1, 294176, Note_off_c, 0, 57, 36
1, 294182, Control_c, 0, 64, 107
1, 294197, Control_c, 0, 64, 112
1, 294212, Control_c, 0, 64, 115
1, 294226, Control_c, 0, 64, 117
1, 294241, Control_c, 0, 64, 120
1, 294256, Control_c, 0, 64, 123
1, 294271, Control_c, 0, 64, 127
1, 294279, Note_on_c, 0, 54, 46
1, 294282, Note_on_c, 0, 57, 42
1, 294283, Note_on_c, 0, 48, 47
1, 294355, Note_off_c, 0, 57, 48
1, 294357, Note_off_c, 0, 48, 49
1, 294371, Note_off_c, 0, 54, 36
1, 294463, Control_c, 0, 67, 113
1, 294560, Control_c, 0, 64, 101
1, 294574, Control_c, 0, 64, 83
1, 294576, Note_on_c, 0, 75, 67
1, 294587, Note_on_c, 0, 57, 39
1, 294589, Control_c, 0, 64, 73
1, 294591, Note_on_c, 0, 54, 42
1, 294604, Control_c, 0, 64, 65
1, 294606, Note_on_c, 0, 48, 34
1, 294618, Control_c, 0, 64, 62
1, 294633, Control_c, 0, 64, 64
1, 294633, Control_c, 0, 67, 113
1, 294648, Control_c, 0, 64, 67
1, 294663, Control_c, 0, 64, 71
1, 294663, Control_c, 0, 67, 114
1, 294678, Control_c, 0, 64, 76
1, 294678, Control_c, 0, 67, 114
1, 294692, Control_c, 0, 64, 82
1, 294692, Control_c, 0, 67, 115
1, 294707, Control_c, 0, 64, 86
1, 294707, Control_c, 0, 67, 116
1, 294722, Control_c, 0, 64, 90
1, 294722, Control_c, 0, 67, 116
1, 294737, Control_c, 0, 64, 93
1, 294737, Control_c, 0, 67, 117
1, 294752, Control_c, 0, 64, 96
1, 294752, Control_c, 0, 67, 118
1, 294766, Control_c, 0, 64, 100
1, 294766, Control_c, 0, 67, 121
1, 294781, Control_c, 0, 64, 103
1, 294781, Control_c, 0, 67, 127
1, 294796, Control_c, 0, 64, 105
1, 294801, Note_off_c, 0, 75, 58
1, 294811, Control_c, 0, 64, 107
1, 294821, Note_off_c, 0, 54, 38
1, 294826, Control_c, 0, 64, 109
1, 294838, Note_off_c, 0, 57, 36
1, 294841, Control_c, 0, 64, 112
1, 294844, Note_off_c, 0, 48, 33
1, 294856, Control_c, 0, 64, 114
1, 294871, Control_c, 0, 64, 116
1, 294885, Control_c, 0, 64, 117
1, 295003, Note_on_c, 0, 48, 20
1, 295014, Note_on_c, 0, 57, 29
1, 295027, Note_on_c, 0, 54, 34
1, 295029, Note_on_c, 0, 75, 38
1, 295048, Note_off_c, 0, 48, 46
1, 295061, Note_off_c, 0, 57, 57
1, 295065, Note_off_c, 0, 54, 51
1, 295109, Control_c, 0, 64, 118
1, 295123, Control_c, 0, 64, 119
1, 295138, Control_c, 0, 64, 121
1, 295153, Control_c, 0, 64, 127
1, 295210, Note_off_c, 0, 75, 44
1, 295279, Control_c, 0, 64, 121
1, 295294, Control_c, 0, 64, 98
1, 295309, Control_c, 0, 64, 78
1, 295317, Note_on_c, 0, 55, 51
1, 295318, Note_on_c, 0, 58, 54
1, 295321, Note_on_c, 0, 46, 46
1, 295323, Control_c, 0, 64, 60
1, 295338, Control_c, 0, 64, 0
1, 295397, Control_c, 0, 64, 45
1, 295412, Control_c, 0, 64, 59
1, 295427, Control_c, 0, 64, 67
1, 295441, Control_c, 0, 64, 74
1, 295456, Control_c, 0, 64, 83
1, 295471, Control_c, 0, 64, 90
1, 295486, Control_c, 0, 64, 96
1, 295501, Control_c, 0, 64, 99
1, 295505, Note_off_c, 0, 55, 46
1, 295513, Note_off_c, 0, 46, 37
1, 295515, Control_c, 0, 64, 103
1, 295530, Control_c, 0, 64, 107
1, 295534, Note_off_c, 0, 58, 34
1, 295545, Control_c, 0, 64, 113
1, 295560, Control_c, 0, 64, 118
1, 295574, Control_c, 0, 64, 127
1, 295608, Note_on_c, 0, 74, 72
1, 295631, Note_on_c, 0, 46, 52
1, 295631, Note_on_c, 0, 58, 38
1, 295633, Note_on_c, 0, 55, 43
1, 295771, Note_off_c, 0, 55, 36
1, 295780, Note_off_c, 0, 46, 48
1, 295781, Note_off_c, 0, 74, 58
1, 295812, Note_off_c, 0, 58, 43
1, 295933, Note_on_c, 0, 74, 45
1, 295937, Note_on_c, 0, 58, 42
1, 295940, Note_on_c, 0, 46, 50
1, 295984, Poly_aftertouch_c, 0, 55, 127
1, 295997, Note_off_c, 0, 58, 52
1, 296015, Note_off_c, 0, 46, 58
1, 296028, Poly_aftertouch_c, 0, 55, 0
1, 296146, Note_off_c, 0, 74, 33
1, 296205, Control_c, 0, 64, 103
1, 296220, Control_c, 0, 64, 78
1, 296224, Note_on_c, 0, 57, 50
1, 296233, Note_on_c, 0, 54, 50
1, 296235, Control_c, 0, 64, 59
1, 296236, Note_on_c, 0, 45, 40
1, 296250, Control_c, 0, 64, 19
1, 296264, Control_c, 0, 64, 17
1, 296279, Control_c, 0, 64, 37
1, 296294, Control_c, 0, 64, 52
1, 296309, Control_c, 0, 64, 60
1, 296324, Control_c, 0, 64, 66
1, 296338, Control_c, 0, 64, 72
1, 296353, Control_c, 0, 64, 79
1, 296368, Control_c, 0, 64, 87
1, 296383, Control_c, 0, 64, 93
1, 296397, Control_c, 0, 64, 98
1, 296400, Note_off_c, 0, 45, 39
1, 296401, Note_off_c, 0, 54, 38
1, 296403, Note_off_c, 0, 57, 50
1, 296412, Control_c, 0, 64, 103
1, 296427, Control_c, 0, 64, 110
1, 296442, Control_c, 0, 64, 118
1, 296457, Control_c, 0, 64, 127
1, 296505, Note_on_c, 0, 72, 71
1, 296515, Note_on_c, 0, 45, 43
1, 296516, Note_on_c, 0, 54, 45
1, 296523, Note_on_c, 0, 57, 39
1, 296568, Note_off_c, 0, 54, 55
1, 296579, Note_off_c, 0, 45, 38
1, 296586, Note_off_c, 0, 57, 53
1, 296641, Note_off_c, 0, 72, 57
1, 296802, Note_on_c, 0, 72, 44
1, 296808, Note_on_c, 0, 57, 29
1, 296820, Note_on_c, 0, 54, 40
1, 296829, Note_on_c, 0, 45, 19
1, 296841, Note_off_c, 0, 57, 53
1, 296845, Note_off_c, 0, 54, 60
1, 296882, Note_off_c, 0, 45, 46
1, 297021, Note_off_c, 0, 72, 29
1, 297058, Control_c, 0, 64, 101
1, 297073, Control_c, 0, 64, 78
1, 297087, Control_c, 0, 64, 59
1, 297091, Note_on_c, 0, 55, 49
1, 297100, Note_on_c, 0, 50, 44
1, 297102, Control_c, 0, 64, 0
1, 297120, Note_on_c, 0, 43, 35
1, 297161, Control_c, 0, 64, 26
1, 297176, Control_c, 0, 64, 49
1, 297191, Control_c, 0, 64, 61
1, 297206, Control_c, 0, 64, 68
1, 297220, Control_c, 0, 64, 75
1, 297235, Control_c, 0, 64, 85
1, 297250, Control_c, 0, 64, 92
1, 297265, Control_c, 0, 64, 98
1, 297280, Control_c, 0, 64, 103
1, 297294, Control_c, 0, 64, 108
1, 297303, Note_off_c, 0, 43, 39
1, 297309, Control_c, 0, 64, 112
1, 297323, Note_off_c, 0, 55, 36
1, 297324, Control_c, 0, 64, 118
1, 297328, Note_off_c, 0, 50, 37
1, 297339, Control_c, 0, 64, 127
1, 297398, Note_on_c, 0, 70, 63
1, 297407, Note_on_c, 0, 55, 32
1, 297423, Note_on_c, 0, 50, 38
1, 297438, Note_on_c, 0, 43, 39
1, 297492, Note_off_c, 0, 50, 56
1, 297502, Note_off_c, 0, 43, 43
1, 297502, Note_off_c, 0, 70, 56
1, 297544, Note_off_c, 0, 55, 30
1, 297725, Note_on_c, 0, 70, 47
1, 297741, Note_on_c, 0, 55, 13
1, 297780, Poly_aftertouch_c, 0, 50, 127
1, 297795, Note_off_c, 0, 55, 47
1, 297817, Poly_aftertouch_c, 0, 50, 0
1, 297871, Note_off_c, 0, 70, 44
1, 298029, Control_c, 0, 64, 102
1, 298031, Note_on_c, 0, 56, 48
1, 298036, Note_on_c, 0, 51, 43
1, 298043, Control_c, 0, 64, 81
1, 298058, Control_c, 0, 64, 64
1, 298073, Control_c, 0, 64, 37
1, 298088, Control_c, 0, 64, 0
1, 298102, Note_on_c, 0, 48, 22
1, 298103, Control_c, 0, 64, 12
1, 298117, Control_c, 0, 64, 34
1, 298132, Control_c, 0, 64, 48
1, 298147, Control_c, 0, 64, 58
1, 298163, Control_c, 0, 64, 64
1, 298178, Control_c, 0, 64, 70
1, 298193, Control_c, 0, 64, 78
1, 298207, Control_c, 0, 64, 85
1, 298222, Control_c, 0, 64, 90
1, 298245, Control_c, 0, 64, 94
1, 298260, Control_c, 0, 64, 97
1, 298274, Control_c, 0, 64, 100
1, 298281, Note_off_c, 0, 48, 40
1, 298289, Control_c, 0, 64, 103
1, 298304, Control_c, 0, 64, 106
1, 298319, Control_c, 0, 64, 109
1, 298334, Control_c, 0, 64, 111
1, 298334, Note_off_c, 0, 51, 0
1, 298348, Control_c, 0, 64, 113
1, 298351, Note_off_c, 0, 56, 0
1, 298352, Note_on_c, 0, 68, 63
1, 298363, Control_c, 0, 64, 115
1, 298366, Note_on_c, 0, 56, 33
1, 298371, Poly_aftertouch_c, 0, 51, 127
1, 298378, Control_c, 0, 64, 119
1, 298392, Control_c, 0, 64, 127
1, 298409, Note_on_c, 0, 48, 20
1, 298421, Note_off_c, 0, 68, 58
1, 298457, Note_off_c, 0, 48, 46
1, 298519, Note_off_c, 0, 56, 30
1, 298528, Poly_aftertouch_c, 0, 51, 0
1, 298632, Note_on_c, 0, 51, 21
1, 298656, Note_on_c, 0, 68, 37
1, 298660, Note_on_c, 0, 56, 34
1, 298674, Poly_aftertouch_c, 0, 48, 127
1, 298675, Note_on_c, 0, 48, 3
1, 298681, Note_off_c, 0, 51, 54
1, 298713, Note_off_c, 0, 48, 51
1, 298764, Note_off_c, 0, 56, 35
1, 298873, Note_off_c, 0, 68, 42
1, 298927, Control_c, 0, 64, 109
1, 298941, Control_c, 0, 64, 88
1, 298944, Note_on_c, 0, 58, 50
1, 298956, Note_on_c, 0, 52, 47
1, 298957, Control_c, 0, 64, 67
1, 298966, Note_on_c, 0, 49, 41
1, 298972, Control_c, 0, 64, 35
1, 298994, Control_c, 0, 64, 0
1, 299053, Control_c, 0, 64, 30
1, 299068, Control_c, 0, 64, 52
1, 299083, Control_c, 0, 64, 63
1, 299097, Control_c, 0, 64, 68
1, 299112, Control_c, 0, 64, 75
1, 299127, Control_c, 0, 64, 82
1, 299136, Note_off_c, 0, 52, 53
1, 299140, Note_off_c, 0, 49, 53
1, 299142, Control_c, 0, 64, 90
1, 299157, Control_c, 0, 64, 95
1, 299172, Control_c, 0, 64, 100
1, 299187, Control_c, 0, 64, 103
1, 299202, Control_c, 0, 64, 107
1, 299216, Control_c, 0, 64, 110
1, 299231, Control_c, 0, 64, 114
1, 299234, Note_off_c, 0, 58, 0
1, 299246, Control_c, 0, 64, 117
1, 299254, Note_on_c, 0, 58, 20
1, 299261, Control_c, 0, 64, 120
1, 299261, Note_on_c, 0, 67, 52
1, 299276, Control_c, 0, 64, 127
1, 299288, Note_on_c, 0, 49, 44
1, 299305, Note_on_c, 0, 52, 37
1, 299316, Note_off_c, 0, 67, 55
1, 299365, Note_off_c, 0, 49, 44
1, 299385, Note_off_c, 0, 52, 39
1, 299420, Note_off_c, 0, 58, 40
1, 299575, Note_on_c, 0, 49, 28
1, 299577, Note_on_c, 0, 58, 41
1, 299595, Note_on_c, 0, 67, 43
1, 299628, Note_on_c, 0, 52, 16
1, 299674, Note_off_c, 0, 52, 51
1, 299679, Note_off_c, 0, 67, 47
1, 299718, Note_off_c, 0, 49, 33
1, 299774, Note_off_c, 0, 58, 39
1, 299920, Control_c, 0, 64, 118
1, 299935, Control_c, 0, 64, 108
1, 299950, Control_c, 0, 64, 96
1, 299965, Control_c, 0, 64, 83
1, 299980, Control_c, 0, 64, 70
1, 299981, Note_on_c, 0, 55, 39
1, 299983, Note_on_c, 0, 58, 36
1, 299995, Control_c, 0, 64, 51
1, 300000, Note_on_c, 0, 50, 33
1, 300010, Control_c, 0, 64, 0
1, 300030, Note_on_c, 0, 67, 51
1, 300099, Control_c, 0, 64, 35
1, 300113, Control_c, 0, 64, 56
1, 300128, Control_c, 0, 64, 64
1, 300143, Control_c, 0, 64, 69
1, 300157, Control_c, 0, 64, 76
1, 300172, Control_c, 0, 64, 83
1, 300187, Control_c, 0, 64, 90
1, 300202, Control_c, 0, 64, 96
1, 300206, Note_off_c, 0, 50, 45
1, 300217, Control_c, 0, 64, 101
1, 300223, Note_off_c, 0, 58, 32
1, 300226, Note_off_c, 0, 55, 32
1, 300231, Control_c, 0, 64, 106
1, 300246, Control_c, 0, 64, 110
1, 300261, Control_c, 0, 64, 116
1, 300276, Control_c, 0, 64, 127
1, 300276, Control_c, 0, 67, 127
1, 300291, Control_c, 0, 67, 125
1, 300305, Control_c, 0, 67, 123
1, 300320, Control_c, 0, 67, 121
1, 300335, Control_c, 0, 67, 119
1, 300337, Note_on_c, 0, 50, 39
1, 300349, Control_c, 0, 67, 115
1, 300353, Note_on_c, 0, 55, 37
1, 300354, Note_on_c, 0, 58, 43
1, 300364, Control_c, 0, 67, 111
1, 300379, Control_c, 0, 67, 108
1, 300394, Control_c, 0, 67, 104
1, 300406, Note_off_c, 0, 58, 46
1, 300409, Control_c, 0, 67, 100
1, 300410, Note_off_c, 0, 55, 49
1, 300424, Control_c, 0, 67, 96
1, 300430, Note_off_c, 0, 50, 38
1, 300438, Control_c, 0, 67, 91
1, 300453, Control_c, 0, 67, 86
1, 300468, Control_c, 0, 67, 82
1, 300490, Control_c, 0, 67, 78
1, 300505, Control_c, 0, 67, 74
1, 300519, Control_c, 0, 67, 70
1, 300534, Control_c, 0, 67, 66
1, 300549, Control_c, 0, 67, 63
1, 300565, Control_c, 0, 67, 60
1, 300580, Control_c, 0, 67, 58
1, 300594, Control_c, 0, 67, 56
1, 300609, Control_c, 0, 67, 53
1, 300612, Note_on_c, 0, 70, 74
1, 300624, Control_c, 0, 67, 50
1, 300639, Note_on_c, 0, 55, 33
1, 300639, Control_c, 0, 67, 48
1, 300641, Note_on_c, 0, 58, 41
1, 300654, Control_c, 0, 67, 45
1, 300668, Control_c, 0, 67, 43
1, 300683, Note_off_c, 0, 67, 59
1, 300683, Control_c, 0, 67, 41
1, 300689, Poly_aftertouch_c, 0, 50, 127
1, 300698, Note_off_c, 0, 58, 56
1, 300698, Control_c, 0, 67, 40
1, 300713, Control_c, 0, 67, 38
1, 300719, Note_off_c, 0, 55, 48
1, 300728, Control_c, 0, 67, 36
1, 300739, Poly_aftertouch_c, 0, 50, 0
1, 300743, Control_c, 0, 67, 34
1, 300758, Control_c, 0, 67, 32
1, 300773, Control_c, 0, 67, 30
1, 300787, Control_c, 0, 67, 29
1, 300802, Control_c, 0, 67, 28
1, 300817, Control_c, 0, 67, 27
1, 300832, Control_c, 0, 67, 27
1, 300935, Control_c, 0, 64, 99
1, 300950, Control_c, 0, 64, 77
1, 300952, Note_on_c, 0, 61, 54
1, 300959, Note_on_c, 0, 55, 51
1, 300965, Control_c, 0, 64, 62
1, 300976, Note_on_c, 0, 52, 39
1, 300979, Control_c, 0, 64, 46
1, 300994, Control_c, 0, 64, 45
1, 301009, Note_on_c, 0, 50, 14
1, 301009, Control_c, 0, 64, 47
1, 301024, Control_c, 0, 64, 51
1, 301039, Control_c, 0, 64, 56
1, 301053, Control_c, 0, 64, 61
1, 301068, Control_c, 0, 64, 65
1, 301083, Control_c, 0, 64, 70
1, 301098, Control_c, 0, 64, 77
1, 301113, Control_c, 0, 64, 83
1, 301127, Control_c, 0, 64, 89
1, 301142, Control_c, 0, 64, 93
1, 301151, Note_off_c, 0, 50, 40
1, 301157, Control_c, 0, 64, 96
1, 301163, Note_off_c, 0, 55, 35
1, 301171, Note_off_c, 0, 52, 41
1, 301172, Control_c, 0, 64, 99
1, 301187, Control_c, 0, 64, 102
1, 301202, Note_off_c, 0, 61, 0
1, 301202, Control_c, 0, 64, 106
1, 301217, Control_c, 0, 64, 111
1, 301220, Note_on_c, 0, 61, 29
1, 301238, Note_on_c, 0, 69, 71
1, 301239, Control_c, 0, 64, 118
1, 301254, Control_c, 0, 64, 127
1, 301254, Control_c, 0, 67, 26
1, 301256, Note_on_c, 0, 55, 30
1, 301268, Control_c, 0, 67, 24
1, 301283, Control_c, 0, 67, 21
1, 301288, Note_on_c, 0, 50, 27
1, 301298, Control_c, 0, 67, 16
1, 301313, Control_c, 0, 67, 11
1, 301328, Control_c, 0, 67, 0
1, 301335, Note_on_c, 0, 52, 6
1, 301347, Note_off_c, 0, 50, 47
1, 301369, Note_off_c, 0, 55, 50
1, 301382, Note_off_c, 0, 61, 44
1, 301401, Note_off_c, 0, 52, 45
1, 301440, Note_off_c, 0, 70, 34
1, 301504, Note_on_c, 0, 67, 76
1, 301518, Note_on_c, 0, 55, 39
1, 301519, Note_on_c, 0, 61, 46
1, 301542, Note_on_c, 0, 52, 37
1, 301554, Note_on_c, 0, 50, 34
1, 301570, Note_off_c, 0, 69, 59
1, 301593, Note_off_c, 0, 55, 59
1, 301604, Note_off_c, 0, 52, 52
1, 301610, Note_off_c, 0, 50, 50
1, 301622, Poly_aftertouch_c, 0, 70, 127
1, 301658, Note_off_c, 0, 67, 54
1, 301671, Note_off_c, 0, 61, 31
1, 301756, Poly_aftertouch_c, 0, 70, 0
1, 301802, Control_c, 0, 64, 100
1, 301817, Control_c, 0, 64, 77
1, 301825, Note_on_c, 0, 61, 40
1, 301832, Control_c, 0, 64, 58
1, 301838, Note_on_c, 0, 52, 37
1, 301842, Note_on_c, 0, 58, 46
1, 301848, Control_c, 0, 64, 0
1, 301848, Control_c, 0, 67, 10
1, 301849, Note_on_c, 0, 67, 54
1, 301854, Note_on_c, 0, 50, 38
1, 301863, Control_c, 0, 67, 12
1, 301877, Control_c, 0, 67, 14
1, 301892, Control_c, 0, 64, 33
1, 301892, Control_c, 0, 67, 16
1, 301907, Control_c, 0, 64, 49
1, 301907, Control_c, 0, 67, 19
1, 301922, Control_c, 0, 64, 59
1, 301922, Control_c, 0, 67, 24
1, 301937, Control_c, 0, 64, 65
1, 301937, Control_c, 0, 67, 30
1, 301951, Control_c, 0, 64, 71
1, 301951, Control_c, 0, 67, 37
1, 301962, Note_off_c, 0, 58, 49
1, 301966, Control_c, 0, 64, 79
1, 301966, Control_c, 0, 67, 44
1, 301989, Control_c, 0, 64, 86
1, 301989, Control_c, 0, 67, 50
1, 302004, Control_c, 0, 64, 91
1, 302004, Control_c, 0, 67, 56
1, 302004, Note_off_c, 0, 61, 39
1, 302018, Control_c, 0, 64, 95
1, 302018, Control_c, 0, 67, 63
1, 302033, Control_c, 0, 64, 98
1, 302033, Control_c, 0, 67, 69
1, 302043, Note_off_c, 0, 50, 41
1, 302048, Control_c, 0, 64, 101
1, 302048, Control_c, 0, 67, 77
1, 302063, Control_c, 0, 64, 104
1, 302063, Control_c, 0, 67, 84
1, 302078, Control_c, 0, 64, 107
1, 302078, Control_c, 0, 67, 89
1, 302092, Control_c, 0, 64, 110
1, 302092, Control_c, 0, 67, 94
1, 302107, Control_c, 0, 64, 112
1, 302107, Control_c, 0, 67, 100
1, 302122, Control_c, 0, 64, 115
1, 302122, Control_c, 0, 67, 106
1, 302127, Note_on_c, 0, 50, 35
1, 302136, Note_on_c, 0, 58, 42
1, 302136, Note_on_c, 0, 61, 42
1, 302136, Control_c, 0, 64, 121
1, 302136, Control_c, 0, 67, 112
1, 302139, Note_off_c, 0, 52, 0
1, 302151, Control_c, 0, 64, 127
1, 302151, Control_c, 0, 67, 120
1, 302168, Control_c, 0, 67, 125
1, 302178, Poly_aftertouch_c, 0, 52, 127
1, 302182, Control_c, 0, 67, 127
1, 302189, Note_off_c, 0, 58, 56
1, 302196, Note_off_c, 0, 61, 57
1, 302211, Note_off_c, 0, 50, 51
1, 302252, Poly_aftertouch_c, 0, 52, 0
1, 302375, Control_c, 0, 64, 98
1, 302389, Control_c, 0, 64, 75
1, 302404, Control_c, 0, 64, 54
1, 302415, Note_on_c, 0, 66, 57
1, 302419, Control_c, 0, 64, 0
1, 302424, Note_on_c, 0, 50, 42
1, 302433, Note_on_c, 0, 54, 37
1, 302448, Note_on_c, 0, 62, 15
1, 302448, Note_off_c, 0, 67, 58
1, 302448, Control_c, 0, 64, 22
1, 302463, Control_c, 0, 64, 50
1, 302475, Poly_aftertouch_c, 0, 57, 127
1, 302478, Control_c, 0, 64, 61
1, 302493, Control_c, 0, 64, 68
1, 302508, Control_c, 0, 64, 77
1, 302522, Control_c, 0, 64, 90
1, 302537, Control_c, 0, 64, 104
1, 302552, Control_c, 0, 64, 127
1, 302584, Poly_aftertouch_c, 0, 57, 0
1, 302602, Note_off_c, 0, 50, 45
1, 302620, Note_off_c, 0, 54, 29
1, 302620, Note_off_c, 0, 62, 40
1, 302700, Control_c, 0, 64, 97
1, 302715, Control_c, 0, 64, 71
1, 302737, Control_c, 0, 64, 45
1, 302752, Control_c, 0, 64, 35
1, 302756, Note_on_c, 0, 62, 40
1, 302757, Note_on_c, 0, 50, 40
1, 302767, Control_c, 0, 64, 52
1, 302773, Note_on_c, 0, 54, 33
1, 302782, Control_c, 0, 64, 60
1, 302788, Note_off_c, 0, 62, 57
1, 302797, Control_c, 0, 64, 65
1, 302812, Control_c, 0, 64, 71
1, 302824, Note_off_c, 0, 54, 60
1, 302827, Control_c, 0, 64, 79
1, 302833, Note_off_c, 0, 50, 62
1, 302841, Control_c, 0, 64, 90
1, 302856, Control_c, 0, 64, 101
1, 302871, Control_c, 0, 64, 110
1, 302886, Control_c, 0, 64, 117
1, 302901, Control_c, 0, 64, 127
1, 302974, Note_off_c, 0, 66, 62
1, 303094, Control_c, 0, 64, 112
1, 303109, Control_c, 0, 64, 90
1, 303124, Control_c, 0, 64, 72
1, 303138, Control_c, 0, 64, 43
1, 303146, Note_on_c, 0, 50, 39
1, 303153, Control_c, 0, 64, 0
1, 303242, Control_c, 0, 64, 49
1, 303256, Control_c, 0, 64, 62
1, 303271, Control_c, 0, 64, 68
1, 303286, Control_c, 0, 64, 74
1, 303301, Control_c, 0, 64, 80
1, 303316, Control_c, 0, 64, 85
1, 303330, Control_c, 0, 64, 91
1, 303345, Control_c, 0, 64, 96
1, 303360, Control_c, 0, 64, 100
1, 303375, Control_c, 0, 64, 103
1, 303384, Note_off_c, 0, 50, 47
1, 303390, Control_c, 0, 64, 106
1, 303405, Control_c, 0, 64, 110
1, 303420, Control_c, 0, 64, 113
1, 303435, Control_c, 0, 64, 117
1, 303450, Control_c, 0, 64, 121
1, 303464, Control_c, 0, 64, 125
1, 303486, Control_c, 0, 64, 127
1, 303516, Note_on_c, 0, 62, 47
1, 303534, Note_on_c, 0, 50, 39
1, 303551, Note_on_c, 0, 48, 30
1, 303629, Note_off_c, 0, 48, 38
1, 303707, Note_off_c, 0, 50, 26
1, 304035, Control_c, 0, 64, 122
1, 304050, Control_c, 0, 64, 111
1, 304065, Control_c, 0, 64, 101
1, 304079, Control_c, 0, 64, 88
1, 304084, Note_off_c, 0, 62, 58
1, 304093, Control_c, 0, 64, 75
1, 304096, Note_on_c, 0, 67, 49
1, 304102, Note_on_c, 0, 46, 24
1, 304105, Note_on_c, 0, 50, 28
1, 304108, Control_c, 0, 64, 59
1, 304123, Control_c, 0, 64, 0
1, 304264, Control_c, 0, 64, 34
1, 304278, Control_c, 0, 64, 62
1, 304293, Control_c, 0, 64, 71
1, 304308, Control_c, 0, 64, 82
1, 304323, Control_c, 0, 64, 97
1, 304338, Control_c, 0, 64, 114
1, 304353, Control_c, 0, 64, 127
1, 304393, Note_off_c, 0, 46, 45
1, 304415, Note_off_c, 0, 50, 49
1, 304603, Note_on_c, 0, 51, 45
1, 304616, Note_on_c, 0, 46, 39
1, 304665, Note_off_c, 0, 46, 58
1, 304681, Note_off_c, 0, 51, 49
1, 304905, Note_on_c, 0, 51, 56
1, 304926, Note_on_c, 0, 46, 46
1, 304976, Note_off_c, 0, 46, 63
1, 304988, Note_off_c, 0, 51, 57
1, 305160, Control_c, 0, 64, 121
1, 305175, Control_c, 0, 64, 88
1, 305190, Control_c, 0, 64, 69
1, 305205, Note_on_c, 0, 51, 44
1, 305205, Control_c, 0, 64, 45
1, 305220, Control_c, 0, 64, 10
1, 305231, Note_on_c, 0, 46, 36
1, 305234, Control_c, 0, 64, 25
1, 305249, Control_c, 0, 64, 38
1, 305264, Control_c, 0, 64, 49
1, 305279, Control_c, 0, 64, 57
1, 305294, Control_c, 0, 64, 63
1, 305298, Note_off_c, 0, 46, 50
1, 305308, Control_c, 0, 64, 68
1, 305323, Control_c, 0, 64, 76
1, 305338, Control_c, 0, 64, 83
1, 305354, Control_c, 0, 64, 89
1, 305369, Control_c, 0, 64, 93
1, 305383, Control_c, 0, 64, 97
1, 305398, Control_c, 0, 64, 101
1, 305413, Control_c, 0, 64, 108
1, 305428, Control_c, 0, 64, 114
1, 305443, Control_c, 0, 64, 121
1, 305457, Control_c, 0, 64, 127
1, 305458, Note_on_c, 0, 50, 58
1, 305466, Note_on_c, 0, 46, 48
1, 305471, Note_off_c, 0, 51, 36
1, 305507, Note_off_c, 0, 50, 64
1, 305515, Note_off_c, 0, 46, 59
1, 305579, Note_off_c, 0, 67, 52
1, 305695, Control_c, 0, 64, 120
1, 305710, Control_c, 0, 64, 90
1, 305732, Control_c, 0, 64, 71
1, 305742, Note_on_c, 0, 67, 53
1, 305747, Control_c, 0, 64, 53
1, 305754, Note_on_c, 0, 50, 37
1, 305755, Note_on_c, 0, 46, 33
1, 305762, Control_c, 0, 64, 26
1, 305777, Control_c, 0, 64, 35
1, 305791, Control_c, 0, 64, 48
1, 305806, Control_c, 0, 64, 57
1, 305821, Control_c, 0, 64, 63
1, 305836, Control_c, 0, 64, 68
1, 305850, Control_c, 0, 64, 75
1, 305865, Control_c, 0, 64, 82
1, 305880, Control_c, 0, 64, 89
1, 305895, Control_c, 0, 64, 95
1, 305910, Control_c, 0, 64, 99
1, 305923, Note_off_c, 0, 50, 48
1, 305924, Control_c, 0, 64, 101
1, 305939, Control_c, 0, 64, 104
1, 305954, Control_c, 0, 64, 106
1, 305969, Control_c, 0, 64, 108
1, 306028, Note_off_c, 0, 46, 27
1, 306058, Control_c, 0, 64, 105
1, 306073, Control_c, 0, 64, 96
1, 306088, Control_c, 0, 64, 78
1, 306097, Note_on_c, 0, 66, 50
1, 306102, Control_c, 0, 64, 62
1, 306113, Note_on_c, 0, 50, 31
1, 306117, Control_c, 0, 64, 0
1, 306124, Note_off_c, 0, 67, 52
1, 306126, Note_on_c, 0, 45, 26
1, 306222, Control_c, 0, 64, 37
1, 306237, Control_c, 0, 64, 58
1, 306252, Control_c, 0, 64, 66
1, 306267, Control_c, 0, 64, 71
1, 306281, Control_c, 0, 64, 79
1, 306289, Note_off_c, 0, 45, 41
1, 306293, Note_off_c, 0, 50, 43
1, 306296, Control_c, 0, 64, 84
1, 306311, Control_c, 0, 64, 90
1, 306326, Control_c, 0, 64, 95
1, 306340, Control_c, 0, 64, 99
1, 306354, Control_c, 0, 64, 101
1, 306369, Control_c, 0, 64, 104
1, 306384, Control_c, 0, 64, 107
1, 306398, Control_c, 0, 64, 110
1, 306413, Control_c, 0, 64, 114
1, 306426, Note_off_c, 0, 66, 35
1, 306428, Control_c, 0, 64, 118
1, 306434, Note_on_c, 0, 50, 35
1, 306442, Note_on_c, 0, 45, 34
1, 306443, Control_c, 0, 64, 127
1, 306509, Note_off_c, 0, 45, 56
1, 306514, Note_off_c, 0, 50, 57
1, 306702, Control_c, 0, 64, 125
1, 306717, Note_on_c, 0, 66, 49
1, 306717, Control_c, 0, 64, 95
1, 306732, Control_c, 0, 64, 76
1, 306735, Note_on_c, 0, 50, 34
1, 306737, Note_on_c, 0, 45, 28
1, 306746, Control_c, 0, 64, 57
1, 306761, Control_c, 0, 64, 24
1, 306776, Control_c, 0, 64, 27
1, 306791, Control_c, 0, 64, 45
1, 306806, Control_c, 0, 64, 56
1, 306821, Control_c, 0, 64, 62
1, 306836, Control_c, 0, 64, 66
1, 306851, Control_c, 0, 64, 73
1, 306865, Note_off_c, 0, 45, 34
1, 306866, Control_c, 0, 64, 80
1, 306878, Note_off_c, 0, 50, 44
1, 306880, Control_c, 0, 64, 86
1, 306895, Control_c, 0, 64, 90
1, 306910, Control_c, 0, 64, 92
1, 306924, Control_c, 0, 64, 95
1, 306939, Control_c, 0, 64, 100
1, 306955, Control_c, 0, 64, 107
1, 306970, Control_c, 0, 64, 111
1, 306985, Control_c, 0, 64, 111
1, 307000, Control_c, 0, 64, 101
1, 307015, Control_c, 0, 64, 86
1, 307016, Note_on_c, 0, 50, 39
1, 307029, Control_c, 0, 64, 68
1, 307039, Note_on_c, 0, 45, 27
1, 307044, Control_c, 0, 64, 50
1, 307059, Control_c, 0, 64, 13
1, 307074, Control_c, 0, 64, 0
1, 307103, Control_c, 0, 64, 29
1, 307118, Control_c, 0, 64, 49
1, 307133, Control_c, 0, 64, 61
1, 307147, Control_c, 0, 64, 67
1, 307152, Note_off_c, 0, 66, 58
1, 307162, Control_c, 0, 64, 75
1, 307177, Control_c, 0, 64, 83
1, 307192, Control_c, 0, 64, 90
1, 307200, Note_off_c, 0, 45, 42
1, 307207, Control_c, 0, 64, 95
1, 307209, Note_off_c, 0, 50, 47
1, 307229, Control_c, 0, 64, 99
1, 307244, Control_c, 0, 64, 98
1, 307259, Control_c, 0, 64, 89
1, 307274, Control_c, 0, 64, 74
1, 307289, Control_c, 0, 64, 57
1, 307303, Control_c, 0, 64, 21
1, 307318, Control_c, 0, 64, 29
1, 307322, Note_on_c, 0, 50, 42
1, 307326, Note_on_c, 0, 45, 48
1, 307333, Control_c, 0, 64, 46
1, 307347, Control_c, 0, 64, 57
1, 307362, Control_c, 0, 64, 63
1, 307377, Control_c, 0, 64, 69
1, 307392, Control_c, 0, 64, 78
1, 307407, Control_c, 0, 64, 87
1, 307421, Control_c, 0, 64, 99
1, 307436, Control_c, 0, 64, 107
1, 307451, Control_c, 0, 64, 115
1, 307462, Note_off_c, 0, 45, 35
1, 307466, Control_c, 0, 64, 127
1, 307506, Note_off_c, 0, 50, 48
1, 307590, Note_on_c, 0, 45, 48
1, 307593, Note_on_c, 0, 62, 67
1, 307629, Control_c, 0, 67, 125
1, 307632, Note_on_c, 0, 50, 38
1, 307644, Control_c, 0, 67, 123
1, 307659, Control_c, 0, 67, 121
1, 307664, Note_off_c, 0, 45, 55
1, 307673, Control_c, 0, 67, 118
1, 307688, Control_c, 0, 67, 115
1, 307699, Note_off_c, 0, 50, 55
1, 307703, Control_c, 0, 67, 109
1, 307718, Control_c, 0, 67, 103
1, 307733, Control_c, 0, 67, 94
1, 307748, Control_c, 0, 67, 89
1, 307763, Control_c, 0, 67, 85
1, 307778, Control_c, 0, 67, 81
1, 307793, Control_c, 0, 67, 78
1, 307808, Control_c, 0, 67, 74
1, 307823, Control_c, 0, 67, 70
1, 307837, Control_c, 0, 67, 66
1, 307852, Control_c, 0, 67, 63
1, 307867, Control_c, 0, 67, 60
1, 307882, Control_c, 0, 67, 57
1, 307897, Control_c, 0, 67, 54
1, 307912, Control_c, 0, 67, 52
1, 307926, Control_c, 0, 67, 49
1, 307941, Control_c, 0, 67, 48
1, 307956, Control_c, 0, 67, 46
1, 307978, Control_c, 0, 67, 44
1, 307980, Note_on_c, 0, 50, 47
1, 307992, Control_c, 0, 67, 43
1, 308004, Note_on_c, 0, 43, 46
1, 308007, Control_c, 0, 64, 110
1, 308007, Control_c, 0, 67, 42
1, 308010, Note_on_c, 0, 70, 74
1, 308022, Control_c, 0, 64, 87
1, 308022, Control_c, 0, 67, 42
1, 308034, Note_off_c, 0, 62, 56
1, 308037, Control_c, 0, 64, 69
1, 308037, Control_c, 0, 67, 41
1, 308052, Control_c, 0, 64, 43
1, 308052, Control_c, 0, 67, 41
1, 308067, Control_c, 0, 64, 0
1, 308082, Control_c, 0, 67, 40
1, 308097, Control_c, 0, 67, 38
1, 308112, Control_c, 0, 67, 35
1, 308124, Note_off_c, 0, 43, 0
1, 308124, Note_on_c, 0, 43, 5
1, 308126, Control_c, 0, 64, 39
1, 308126, Control_c, 0, 67, 33
1, 308141, Control_c, 0, 64, 57
1, 308141, Control_c, 0, 67, 31
1, 308156, Control_c, 0, 64, 65
1, 308156, Control_c, 0, 67, 30
1, 308170, Control_c, 0, 64, 74
1, 308170, Control_c, 0, 67, 30
1, 308185, Control_c, 0, 64, 83
1, 308185, Control_c, 0, 67, 29
1, 308200, Control_c, 0, 64, 92
1, 308200, Control_c, 0, 67, 28
1, 308215, Control_c, 0, 64, 99
1, 308215, Control_c, 0, 67, 26
1, 308230, Control_c, 0, 64, 104
1, 308230, Control_c, 0, 67, 25
1, 308244, Control_c, 0, 64, 109
1, 308244, Control_c, 0, 67, 24
1, 308259, Control_c, 0, 64, 115
1, 308263, Note_off_c, 0, 43, 41
1, 308274, Control_c, 0, 64, 127
1, 308304, Control_c, 0, 67, 23
1, 308348, Note_off_c, 0, 50, 51
1, 308363, Note_on_c, 0, 51, 55
1, 308376, Note_on_c, 0, 43, 62
1, 308392, Control_c, 0, 67, 23
1, 308477, Note_off_c, 0, 43, 37
1, 308481, Control_c, 0, 67, 22
1, 308501, Note_off_c, 0, 51, 35
1, 308601, Control_c, 0, 67, 22
1, 308630, Note_on_c, 0, 51, 62
1, 308640, Note_on_c, 0, 43, 65
1, 308682, Note_off_c, 0, 43, 59
1, 308756, Note_off_c, 0, 51, 32
1, 308920, Control_c, 0, 64, 91
1, 308920, Note_on_c, 0, 51, 58
1, 308934, Control_c, 0, 64, 67
1, 308937, Note_on_c, 0, 43, 57
1, 308949, Control_c, 0, 64, 39
1, 308964, Control_c, 0, 64, 0
1, 309024, Control_c, 0, 64, 34
1, 309039, Control_c, 0, 64, 54
1, 309050, Note_off_c, 0, 43, 50
1, 309054, Control_c, 0, 64, 63
1, 309069, Control_c, 0, 64, 68
1, 309083, Control_c, 0, 64, 74
1, 309098, Control_c, 0, 64, 80
1, 309113, Control_c, 0, 64, 85
1, 309127, Control_c, 0, 64, 90
1, 309142, Control_c, 0, 64, 94
1, 309157, Control_c, 0, 64, 98
1, 309172, Control_c, 0, 64, 102
1, 309183, Note_on_c, 0, 50, 71
1, 309187, Note_on_c, 0, 43, 69
1, 309187, Control_c, 0, 64, 106
1, 309192, Note_off_c, 0, 51, 56
1, 309201, Control_c, 0, 64, 111
1, 309216, Control_c, 0, 64, 119
1, 309231, Control_c, 0, 64, 127
1, 309308, Note_off_c, 0, 70, 50
1, 309319, Note_off_c, 0, 50, 38
1, 309353, Note_off_c, 0, 43, 31
1, 309410, Control_c, 0, 64, 100
1, 309423, Note_on_c, 0, 70, 72
1, 309424, Control_c, 0, 64, 87
1, 309429, Note_on_c, 0, 50, 58
1, 309439, Control_c, 0, 64, 81
1, 309444, Note_on_c, 0, 43, 50
1, 309477, Control_c, 0, 64, 82
1, 309492, Control_c, 0, 64, 84
1, 309506, Control_c, 0, 64, 87
1, 309521, Control_c, 0, 64, 92
1, 309536, Control_c, 0, 64, 98
1, 309550, Control_c, 0, 64, 104
1, 309565, Control_c, 0, 64, 112
1, 309574, Note_off_c, 0, 50, 37
1, 309580, Control_c, 0, 64, 121
1, 309588, Note_off_c, 0, 43, 41
1, 309595, Control_c, 0, 64, 127
1, 309610, Control_c, 0, 67, 21
1, 309669, Control_c, 0, 67, 21
1, 309698, Control_c, 0, 67, 20
1, 309728, Control_c, 0, 67, 19
1, 309743, Control_c, 0, 64, 92
1, 309743, Control_c, 0, 67, 18
1, 309745, Note_on_c, 0, 69, 70
1, 309750, Note_on_c, 0, 43, 55
1, 309751, Note_on_c, 0, 50, 59
1, 309757, Control_c, 0, 64, 71
1, 309757, Control_c, 0, 67, 17
1, 309772, Control_c, 0, 64, 43
1, 309772, Control_c, 0, 67, 16
1, 309784, Note_off_c, 0, 70, 57
1, 309787, Control_c, 0, 64, 0
1, 309787, Control_c, 0, 67, 16
1, 309802, Control_c, 0, 67, 15
1, 309817, Control_c, 0, 64, 28
1, 309817, Control_c, 0, 67, 14
1, 309832, Control_c, 0, 64, 49
1, 309832, Control_c, 0, 67, 14
1, 309847, Control_c, 0, 64, 60
1, 309861, Control_c, 0, 64, 66
1, 309876, Control_c, 0, 64, 72
1, 309876, Control_c, 0, 67, 13
1, 309891, Control_c, 0, 64, 82
1, 309906, Control_c, 0, 64, 90
1, 309910, Note_off_c, 0, 50, 47
1, 309921, Control_c, 0, 64, 97
1, 309936, Control_c, 0, 64, 101
1, 309945, Note_off_c, 0, 43, 40
1, 309950, Control_c, 0, 64, 101
1, 309965, Control_c, 0, 64, 93
1, 309980, Control_c, 0, 64, 79
1, 309995, Control_c, 0, 64, 69
1, 310010, Control_c, 0, 64, 68
1, 310021, Note_off_c, 0, 69, 63
1, 310022, Note_on_c, 0, 42, 65
1, 310022, Note_on_c, 0, 50, 65
1, 310024, Control_c, 0, 64, 72
1, 310039, Control_c, 0, 64, 79
1, 310054, Control_c, 0, 64, 86
1, 310069, Control_c, 0, 64, 95
1, 310084, Control_c, 0, 64, 107
1, 310098, Control_c, 0, 64, 127
1, 310148, Note_off_c, 0, 42, 56
1, 310171, Note_off_c, 0, 50, 38
1, 310255, Control_c, 0, 64, 104
1, 310270, Control_c, 0, 64, 76
1, 310285, Control_c, 0, 64, 58
1, 310285, Note_on_c, 0, 69, 73
1, 310287, Note_on_c, 0, 42, 51
1, 310292, Note_on_c, 0, 50, 51
1, 310300, Control_c, 0, 64, 40
1, 310315, Control_c, 0, 64, 50
1, 310329, Control_c, 0, 64, 60
1, 310344, Control_c, 0, 64, 64
1, 310359, Control_c, 0, 64, 69
1, 310373, Control_c, 0, 64, 78
1, 310388, Control_c, 0, 64, 88
1, 310403, Control_c, 0, 64, 100
1, 310418, Control_c, 0, 64, 112
1, 310422, Note_off_c, 0, 42, 52
1, 310433, Control_c, 0, 64, 127
1, 310450, Note_off_c, 0, 50, 37
1, 310536, Control_c, 0, 64, 94
1, 310551, Control_c, 0, 64, 66
1, 310554, Note_on_c, 0, 42, 60
1, 310565, Note_on_c, 0, 50, 66
1, 310566, Control_c, 0, 64, 14
1, 310580, Control_c, 0, 64, 0
1, 310595, Control_c, 0, 64, 39
1, 310610, Control_c, 0, 64, 56
1, 310625, Control_c, 0, 64, 63
1, 310639, Control_c, 0, 64, 69
1, 310654, Control_c, 0, 64, 80
1, 310666, Note_off_c, 0, 42, 60
1, 310669, Control_c, 0, 64, 95
1, 310684, Control_c, 0, 64, 127
1, 310729, Note_off_c, 0, 50, 60
1, 310756, Note_off_c, 0, 69, 60
1, 310803, Control_c, 0, 64, 91
1, 310818, Control_c, 0, 64, 67
1, 310823, Note_on_c, 0, 43, 75
1, 310828, Note_on_c, 0, 50, 78
1, 310832, Control_c, 0, 64, 0
1, 310833, Note_on_c, 0, 41, 64
1, 310861, Control_c, 0, 64, 24
1, 310876, Control_c, 0, 64, 52
1, 310890, Control_c, 0, 64, 63
1, 310905, Control_c, 0, 64, 70
1, 310920, Control_c, 0, 64, 80
1, 310936, Control_c, 0, 64, 95
1, 310951, Control_c, 0, 64, 110
1, 310973, Control_c, 0, 64, 127
1, 310988, Control_c, 0, 67, 13
1, 311004, Note_off_c, 0, 41, 51
1, 311014, Note_off_c, 0, 43, 56
1, 311018, Control_c, 0, 67, 12
1, 311024, Note_off_c, 0, 50, 55
1, 311107, Control_c, 0, 64, 100
1, 311122, Control_c, 0, 64, 71
1, 311125, Note_on_c, 0, 71, 83
1, 311137, Note_on_c, 0, 50, 59
1, 311137, Control_c, 0, 64, 48
1, 311140, Note_on_c, 0, 43, 64
1, 311145, Note_on_c, 0, 41, 58
1, 311151, Control_c, 0, 64, 30
1, 311166, Control_c, 0, 64, 45
1, 311181, Control_c, 0, 64, 57
1, 311195, Control_c, 0, 64, 63
1, 311195, Control_c, 0, 67, 12
1, 311210, Control_c, 0, 64, 69
1, 311225, Control_c, 0, 64, 81
1, 311240, Control_c, 0, 64, 95
1, 311255, Control_c, 0, 64, 120
1, 311269, Control_c, 0, 64, 127
1, 311308, Note_off_c, 0, 50, 56
1, 311334, Note_off_c, 0, 41, 36
1, 311342, Note_off_c, 0, 43, 36
1, 311403, Control_c, 0, 64, 91
1, 311418, Control_c, 0, 64, 67
1, 311420, Note_on_c, 0, 50, 73
1, 311429, Note_on_c, 0, 43, 67
1, 311432, Note_on_c, 0, 41, 60
1, 311432, Control_c, 0, 64, 33
1, 311447, Control_c, 0, 64, 24
1, 311462, Control_c, 0, 64, 48
1, 311477, Control_c, 0, 64, 60
1, 311492, Control_c, 0, 64, 66
1, 311507, Control_c, 0, 64, 75
1, 311512, Note_off_c, 0, 41, 61
1, 311513, Note_off_c, 0, 43, 62
1, 311514, Note_off_c, 0, 50, 60
1, 311521, Control_c, 0, 64, 87
1, 311536, Control_c, 0, 64, 105
1, 311551, Control_c, 0, 64, 127
1, 311669, Note_off_c, 0, 71, 54
1, 311683, Poly_aftertouch_c, 0, 73, 127
1, 311736, Control_c, 0, 64, 94
1, 311743, Poly_aftertouch_c, 0, 73, 0
1, 311751, Note_on_c, 0, 48, 75
1, 311752, Control_c, 0, 64, 70
1, 311755, Note_on_c, 0, 39, 63
1, 311756, Note_on_c, 0, 43, 77
1, 311767, Control_c, 0, 64, 42
1, 311782, Control_c, 0, 64, 33
1, 311797, Control_c, 0, 64, 54
1, 311812, Control_c, 0, 64, 63
1, 311826, Control_c, 0, 64, 68
1, 311841, Control_c, 0, 64, 77
1, 311856, Control_c, 0, 64, 90
1, 311871, Control_c, 0, 64, 110
1, 311886, Control_c, 0, 64, 127
1, 311931, Note_off_c, 0, 43, 53
1, 311942, Note_off_c, 0, 39, 47
1, 311954, Note_off_c, 0, 48, 53
1, 312097, Note_on_c, 0, 48, 68
1, 312097, Note_on_c, 0, 71, 84
1, 312098, Note_on_c, 0, 43, 70
1, 312099, Note_on_c, 0, 39, 58
1, 312240, Note_off_c, 0, 43, 34
1, 312243, Note_off_c, 0, 39, 28
1, 312290, Note_off_c, 0, 71, 61
1, 312291, Note_off_c, 0, 48, 23
1, 312302, Note_on_c, 0, 72, 77
1, 312404, Control_c, 0, 64, 97
1, 312419, Control_c, 0, 64, 69
1, 312434, Control_c, 0, 64, 0
1, 312449, Control_c, 0, 67, 12
1, 312470, Note_on_c, 0, 48, 73
1, 312470, Note_on_c, 0, 39, 67
1, 312486, Control_c, 0, 64, 29
1, 312488, Note_on_c, 0, 43, 55
1, 312493, Note_off_c, 0, 72, 62
1, 312500, Control_c, 0, 64, 57
1, 312509, Note_off_c, 0, 39, 60
1, 312514, Note_off_c, 0, 48, 63
1, 312515, Control_c, 0, 64, 67
1, 312517, Note_off_c, 0, 43, 53
1, 312530, Control_c, 0, 64, 78
1, 312546, Control_c, 0, 64, 101
1, 312561, Control_c, 0, 64, 127
1, 312679, Control_c, 0, 67, 12
1, 312754, Note_on_c, 0, 60, 75
1, 312761, Note_on_c, 0, 55, 68
1, 312767, Note_on_c, 0, 48, 60
1, 312835, Note_off_c, 0, 48, 45
1, 312857, Note_off_c, 0, 55, 55
1, 312874, Note_off_c, 0, 60, 49
1, 312916, Control_c, 0, 67, 11
1, 312931, Control_c, 0, 67, 11
1, 312975, Control_c, 0, 67, 10
1, 313034, Control_c, 0, 67, 10
1, 313063, Note_on_c, 0, 77, 78
1, 313069, Note_on_c, 0, 48, 61
1, 313073, Note_on_c, 0, 55, 60
1, 313074, Note_on_c, 0, 60, 60
1, 313093, Control_c, 0, 67, 9
1, 313108, Control_c, 0, 67, 9
1, 313123, Control_c, 0, 67, 8
1, 313138, Control_c, 0, 67, 8
1, 313164, Note_off_c, 0, 48, 50
1, 313167, Control_c, 0, 67, 0
1, 313209, Note_off_c, 0, 55, 36
1, 313242, Note_off_c, 0, 60, 27
1, 313287, Note_on_c, 0, 75, 64
1, 313301, Note_off_c, 0, 77, 55
1, 313413, Control_c, 0, 64, 92
1, 313428, Control_c, 0, 64, 67
1, 313443, Control_c, 0, 64, 29
1, 313445, Note_on_c, 0, 48, 58
1, 313449, Note_on_c, 0, 60, 70
1, 313452, Note_on_c, 0, 55, 65
1, 313458, Control_c, 0, 64, 0
1, 313472, Control_c, 0, 64, 29
1, 313487, Control_c, 0, 64, 48
1, 313502, Note_off_c, 0, 48, 57
1, 313502, Control_c, 0, 64, 62
1, 313516, Control_c, 0, 64, 71
1, 313531, Control_c, 0, 64, 86
1, 313532, Note_off_c, 0, 75, 36
1, 313546, Control_c, 0, 64, 117
1, 313561, Control_c, 0, 64, 127
1, 313583, Note_off_c, 0, 60, 57
1, 313617, Note_off_c, 0, 55, 35
1, 313695, Control_c, 0, 64, 119
1, 313710, Control_c, 0, 64, 81
1, 313724, Control_c, 0, 64, 53
1, 313734, Note_on_c, 0, 58, 74
1, 313739, Control_c, 0, 64, 0
1, 313740, Note_on_c, 0, 55, 63
1, 313752, Note_on_c, 0, 50, 50
1, 313784, Control_c, 0, 64, 44
1, 313798, Control_c, 0, 64, 60
1, 313813, Control_c, 0, 64, 69
1, 313828, Control_c, 0, 64, 80
1, 313843, Control_c, 0, 64, 95
1, 313857, Control_c, 0, 64, 121
1, 313872, Control_c, 0, 64, 127
1, 313897, Note_off_c, 0, 50, 37
1, 313912, Note_off_c, 0, 58, 37
1, 313917, Note_off_c, 0, 55, 37
1, 314011, Note_on_c, 0, 75, 74
1, 314021, Note_on_c, 0, 50, 53
1, 314035, Note_on_c, 0, 58, 52
1, 314043, Note_on_c, 0, 55, 58
1, 314145, Note_off_c, 0, 58, 0
1, 314147, Note_off_c, 0, 55, 51
1, 314148, Note_off_c, 0, 50, 36
1, 314189, Note_on_c, 0, 74, 70
1, 314199, Poly_aftertouch_c, 0, 58, 0
1, 314232, Note_off_c, 0, 75, 53
1, 314295, Control_c, 0, 64, 106
1, 314310, Control_c, 0, 64, 76
1, 314325, Control_c, 0, 64, 51
1, 314339, Control_c, 0, 64, 0
1, 314357, Note_on_c, 0, 55, 66
1, 314357, Note_on_c, 0, 58, 73
1, 314361, Note_on_c, 0, 50, 65
1, 314369, Control_c, 0, 64, 46
1, 314384, Control_c, 0, 64, 59
1, 314386, Note_off_c, 0, 74, 59
1, 314399, Control_c, 0, 64, 66
1, 314413, Control_c, 0, 64, 74
1, 314428, Control_c, 0, 64, 85
1, 314438, Note_off_c, 0, 55, 62
1, 314443, Control_c, 0, 64, 100
1, 314458, Control_c, 0, 64, 127
1, 314470, Note_off_c, 0, 58, 61
1, 314483, Note_off_c, 0, 50, 58
1, 314666, Control_c, 0, 64, 100
1, 314681, Control_c, 0, 64, 75
1, 314685, Note_on_c, 0, 57, 70
1, 314685, Note_on_c, 0, 60, 71
1, 314691, Note_on_c, 0, 50, 67
1, 314695, Control_c, 0, 64, 56
1, 314717, Control_c, 0, 64, 45
1, 314732, Control_c, 0, 64, 54
1, 314747, Control_c, 0, 64, 62
1, 314762, Control_c, 0, 64, 67
1, 314777, Control_c, 0, 64, 73
1, 314792, Control_c, 0, 64, 83
1, 314807, Control_c, 0, 64, 95
1, 314821, Control_c, 0, 64, 108
1, 314836, Control_c, 0, 64, 127
1, 314840, Note_off_c, 0, 50, 61
1, 314887, Note_off_c, 0, 60, 57
1, 314921, Note_off_c, 0, 57, 54
1, 315105, Note_on_c, 0, 57, 56
1, 315107, Note_on_c, 0, 67, 79
1, 315110, Note_on_c, 0, 51, 53
1, 315111, Note_on_c, 0, 60, 57
1, 315118, Control_c, 0, 64, 115
1, 315133, Control_c, 0, 64, 85
1, 315148, Control_c, 0, 64, 65
1, 315162, Control_c, 0, 64, 0
1, 315222, Control_c, 0, 64, 24
1, 315236, Control_c, 0, 64, 48
1, 315251, Control_c, 0, 64, 61
1, 315266, Control_c, 0, 64, 69
1, 315281, Control_c, 0, 64, 79
1, 315296, Control_c, 0, 64, 91
1, 315311, Control_c, 0, 64, 105
1, 315325, Control_c, 0, 64, 121
1, 315325, Control_c, 0, 67, 8
1, 315340, Control_c, 0, 64, 127
1, 315340, Control_c, 0, 67, 8
1, 315355, Control_c, 0, 67, 9
1, 315385, Control_c, 0, 67, 9
1, 315391, Note_on_c, 0, 66, 77
1, 315392, Note_off_c, 0, 51, 35
1, 315398, Note_off_c, 0, 57, 53
1, 315407, Note_off_c, 0, 60, 39
1, 315415, Control_c, 0, 67, 10
1, 315444, Control_c, 0, 67, 10
1, 315452, Note_off_c, 0, 67, 60
1, 315481, Control_c, 0, 67, 11
1, 315525, Control_c, 0, 67, 11
1, 315570, Control_c, 0, 67, 12
1, 315585, Control_c, 0, 67, 12
1, 315612, Note_off_c, 0, 66, 62
1, 315615, Control_c, 0, 67, 13
1, 315624, Note_on_c, 0, 60, 60
1, 315625, Note_on_c, 0, 57, 62
1, 315630, Control_c, 0, 64, 112
1, 315630, Control_c, 0, 67, 15
1, 315633, Note_on_c, 0, 51, 56
1, 315644, Control_c, 0, 64, 79
1, 315644, Control_c, 0, 67, 17
1, 315659, Control_c, 0, 64, 49
1, 315659, Control_c, 0, 67, 20
1, 315674, Control_c, 0, 64, 0
1, 315674, Control_c, 0, 67, 22
1, 315688, Control_c, 0, 67, 23
1, 315703, Control_c, 0, 67, 24
1, 315734, Control_c, 0, 67, 25
1, 315749, Control_c, 0, 64, 54
1, 315764, Control_c, 0, 64, 67
1, 315764, Control_c, 0, 67, 26
1, 315779, Control_c, 0, 64, 83
1, 315779, Control_c, 0, 67, 27
1, 315793, Control_c, 0, 64, 109
1, 315793, Control_c, 0, 67, 29
1, 315808, Control_c, 0, 64, 127
1, 315808, Control_c, 0, 67, 31
1, 315823, Control_c, 0, 67, 32
1, 315838, Control_c, 0, 67, 34
1, 315846, Note_off_c, 0, 60, 54
1, 315853, Control_c, 0, 67, 35
1, 315856, Note_off_c, 0, 51, 36
1, 315857, Note_off_c, 0, 57, 55
1, 315867, Control_c, 0, 67, 37
1, 315882, Control_c, 0, 67, 38
1, 315897, Control_c, 0, 67, 39
1, 315911, Control_c, 0, 67, 40
1, 315926, Control_c, 0, 67, 41
1, 315941, Control_c, 0, 67, 43
1, 315956, Control_c, 0, 67, 45
1, 315967, Note_on_c, 0, 51, 56
1, 315971, Control_c, 0, 67, 48
1, 315978, Note_on_c, 0, 60, 54
1, 315979, Note_on_c, 0, 57, 46
1, 315985, Control_c, 0, 67, 50
1, 316000, Control_c, 0, 67, 52
1, 316015, Control_c, 0, 67, 55
1, 316030, Control_c, 0, 67, 58
1, 316042, Note_off_c, 0, 60, 42
1, 316045, Control_c, 0, 67, 60
1, 316059, Control_c, 0, 67, 63
1, 316074, Control_c, 0, 67, 66
1, 316084, Note_off_c, 0, 51, 35
1, 316089, Control_c, 0, 67, 68
1, 316103, Control_c, 0, 67, 70
1, 316118, Control_c, 0, 67, 71
1, 316124, Note_off_c, 0, 57, 29
1, 316133, Control_c, 0, 67, 72
1, 316148, Control_c, 0, 67, 73
1, 316163, Control_c, 0, 67, 74
1, 316178, Control_c, 0, 67, 75
1, 316193, Control_c, 0, 67, 76
1, 316215, Control_c, 0, 67, 77
1, 316230, Control_c, 0, 67, 79
1, 316245, Control_c, 0, 67, 80
1, 316254, Note_on_c, 0, 66, 68
1, 316259, Control_c, 0, 67, 80
1, 316274, Note_on_c, 0, 57, 51
1, 316274, Note_on_c, 0, 60, 44
1, 316280, Note_on_c, 0, 51, 41
1, 316304, Control_c, 0, 67, 81
1, 316318, Control_c, 0, 67, 81
1, 316333, Control_c, 0, 67, 82
1, 316348, Control_c, 0, 67, 83
1, 316363, Control_c, 0, 67, 83
1, 316405, Note_off_c, 0, 51, 33
1, 316410, Note_off_c, 0, 57, 37
1, 316422, Control_c, 0, 67, 84
1, 316433, Note_off_c, 0, 60, 40
1, 316452, Control_c, 0, 67, 84
1, 316467, Control_c, 0, 67, 85
1, 316482, Control_c, 0, 67, 87
1, 316497, Control_c, 0, 67, 88
1, 316511, Control_c, 0, 67, 89
1, 316526, Control_c, 0, 67, 90
1, 316542, Control_c, 0, 67, 90
1, 316557, Control_c, 0, 67, 91
1, 316586, Control_c, 0, 67, 91
1, 316691, Note_on_c, 0, 69, 72
1, 316694, Note_on_c, 0, 57, 48
1, 316705, Note_on_c, 0, 60, 49
1, 316705, Control_c, 0, 64, 117
1, 316706, Note_on_c, 0, 50, 46
1, 316720, Control_c, 0, 64, 85
1, 316730, Note_off_c, 0, 66, 61
1, 316734, Control_c, 0, 64, 61
1, 316734, Control_c, 0, 67, 92
1, 316749, Control_c, 0, 64, 0
1, 316749, Control_c, 0, 67, 92
1, 316764, Control_c, 0, 67, 93
1, 316779, Control_c, 0, 67, 96
1, 316794, Control_c, 0, 67, 97
1, 316808, Control_c, 0, 67, 99
1, 316823, Control_c, 0, 67, 100
1, 316838, Control_c, 0, 64, 44
1, 316838, Control_c, 0, 67, 102
1, 316853, Control_c, 0, 64, 62
1, 316853, Control_c, 0, 67, 104
1, 316868, Control_c, 0, 64, 70
1, 316868, Control_c, 0, 67, 106
1, 316882, Control_c, 0, 64, 79
1, 316882, Control_c, 0, 67, 107
1, 316897, Control_c, 0, 64, 89
1, 316897, Control_c, 0, 67, 108
1, 316912, Control_c, 0, 64, 97
1, 316912, Control_c, 0, 67, 109
1, 316926, Control_c, 0, 64, 108
1, 316926, Control_c, 0, 67, 111
1, 316941, Control_c, 0, 64, 127
1, 316941, Control_c, 0, 67, 113
1, 316964, Control_c, 0, 67, 115
1, 316979, Control_c, 0, 67, 116
1, 316994, Control_c, 0, 67, 117
1, 317008, Control_c, 0, 67, 119
1, 317009, Note_off_c, 0, 60, 28
1, 317012, Note_off_c, 0, 57, 32
1, 317023, Control_c, 0, 67, 120
1, 317038, Control_c, 0, 67, 121
1, 317048, Note_off_c, 0, 50, 41
1, 317053, Control_c, 0, 67, 122
1, 317068, Control_c, 0, 67, 124
1, 317082, Control_c, 0, 67, 124
1, 317097, Control_c, 0, 67, 125
1, 317112, Control_c, 0, 67, 125
1, 317211, Note_on_c, 0, 50, 42
1, 317214, Note_on_c, 0, 62, 48
1, 317244, Note_on_c, 0, 57, 35
1, 317244, Note_on_c, 0, 60, 33
1, 317296, Note_off_c, 0, 60, 52
1, 317312, Note_off_c, 0, 57, 40
1, 317318, Note_off_c, 0, 50, 38
1, 317546, Note_off_c, 0, 62, 36
1, 317549, Note_on_c, 0, 50, 35
1, 317562, Note_on_c, 0, 63, 44
1, 317569, Note_on_c, 0, 60, 26
1, 317603, Note_off_c, 0, 50, 55
1, 317620, Poly_aftertouch_c, 0, 57, 127
1, 317656, Note_off_c, 0, 60, 40
1, 317677, Poly_aftertouch_c, 0, 57, 0
1, 317721, Note_off_c, 0, 63, 55
1, 317735, Note_on_c, 0, 62, 41
1, 317815, Control_c, 0, 67, 126
1, 318052, Control_c, 0, 64, 115
1, 318055, Note_on_c, 0, 67, 45
1, 318063, Note_on_c, 0, 58, 38
1, 318065, Note_on_c, 0, 55, 38
1, 318067, Control_c, 0, 64, 99
1, 318072, Note_off_c, 0, 69, 38
1, 318081, Control_c, 0, 64, 88
1, 318096, Control_c, 0, 64, 77
1, 318111, Control_c, 0, 64, 66
1, 318127, Control_c, 0, 64, 46
1, 318142, Control_c, 0, 64, 0
1, 318142, Control_c, 0, 67, 126
1, 318172, Control_c, 0, 67, 127
1, 318201, Control_c, 0, 67, 127
1, 318275, Control_c, 0, 64, 41
1, 318290, Control_c, 0, 64, 56
1, 318304, Control_c, 0, 64, 63
1, 318320, Control_c, 0, 64, 66
1, 318335, Control_c, 0, 64, 71
1, 318350, Control_c, 0, 64, 76
1, 318365, Control_c, 0, 64, 81
1, 318379, Control_c, 0, 64, 84
1, 318394, Control_c, 0, 64, 86
1, 318409, Control_c, 0, 64, 88
1, 318424, Control_c, 0, 64, 89
1, 318439, Control_c, 0, 64, 91
1, 318447, Note_off_c, 0, 62, 30
1, 318461, Control_c, 0, 64, 92
1, 318476, Control_c, 0, 64, 93
1, 318506, Control_c, 0, 64, 94
1, 318514, Note_off_c, 0, 58, 36
1, 318535, Control_c, 0, 64, 94
1, 318555, Note_off_c, 0, 55, 36
1, 318555, Note_off_c, 0, 67, 37
1, 318579, Control_c, 0, 64, 95
1, 318772, Control_c, 0, 64, 94
1, 318801, Control_c, 0, 64, 93
1, 318816, Control_c, 0, 64, 92
1, 318831, Control_c, 0, 64, 91
1, 318846, Control_c, 0, 64, 89
1, 318861, Control_c, 0, 64, 86
1, 318876, Control_c, 0, 64, 82
1, 318891, Control_c, 0, 64, 77
1, 318905, Control_c, 0, 64, 73
1, 318920, Control_c, 0, 64, 68
1, 318935, Control_c, 0, 64, 64
1, 318950, Control_c, 0, 64, 59
1, 318965, Control_c, 0, 64, 55
1, 318980, Control_c, 0, 64, 52
1, 318995, Control_c, 0, 64, 51
1, 319010, Control_c, 0, 64, 48
1, 319025, Control_c, 0, 64, 45
1, 319040, Control_c, 0, 64, 41
1, 319055, Control_c, 0, 64, 36
1, 319069, Control_c, 0, 64, 34
1, 319158, Control_c, 0, 64, 35
1, 319173, Control_c, 0, 64, 37
1, 319188, Control_c, 0, 64, 39
1, 319210, Control_c, 0, 64, 41
1, 319224, Control_c, 0, 64, 43
1, 319239, Control_c, 0, 64, 45
1, 319254, Control_c, 0, 64, 47
1, 319269, Control_c, 0, 64, 49
1, 319284, Control_c, 0, 64, 50
1, 319299, Control_c, 0, 64, 52
1, 319314, Control_c, 0, 64, 54
1, 319329, Control_c, 0, 64, 57
1, 319343, Control_c, 0, 64, 58
1, 319358, Control_c, 0, 64, 60
1, 319373, Control_c, 0, 64, 62
1, 319388, Control_c, 0, 64, 63
1, 319402, Control_c, 0, 64, 66
1, 319417, Control_c, 0, 64, 68
1, 319432, Control_c, 0, 64, 71
1, 319447, Control_c, 0, 64, 74
1, 319459, Note_on_c, 0, 58, 40
1, 319461, Control_c, 0, 64, 78
1, 319472, Note_on_c, 0, 34, 29
1, 319473, Note_on_c, 0, 46, 28
1, 319476, Control_c, 0, 64, 82
1, 319491, Control_c, 0, 64, 86
1, 319506, Control_c, 0, 64, 89
1, 319521, Control_c, 0, 64, 91
1, 319535, Control_c, 0, 64, 94
1, 319550, Control_c, 0, 64, 96
1, 319565, Control_c, 0, 64, 98
1, 319580, Control_c, 0, 64, 101
1, 319595, Control_c, 0, 64, 103
1, 319609, Control_c, 0, 64, 106
1, 319624, Control_c, 0, 64, 110
1, 319639, Control_c, 0, 64, 114
1, 319654, Control_c, 0, 64, 118
1, 319657, Note_off_c, 0, 34, 27
1, 319658, Note_off_c, 0, 46, 41
1, 319669, Control_c, 0, 64, 121
1, 319684, Control_c, 0, 64, 125
1, 319698, Control_c, 0, 64, 127
1, 319765, Note_off_c, 0, 58, 41
1, 319877, Control_c, 0, 64, 116
1, 319892, Control_c, 0, 64, 111
1, 319907, Control_c, 0, 64, 106
1, 319922, Control_c, 0, 64, 103
1, 319937, Control_c, 0, 64, 101
1, 319958, Control_c, 0, 64, 99
1, 319973, Control_c, 0, 64, 95
1, 319988, Control_c, 0, 64, 92
1, 320003, Control_c, 0, 64, 90
1, 320018, Control_c, 0, 64, 88
1, 320032, Control_c, 0, 64, 87
1, 320047, Control_c, 0, 64, 86
1, 320062, Control_c, 0, 64, 86
1, 320077, Control_c, 0, 64, 85
1, 320092, Control_c, 0, 64, 84
1, 320107, Control_c, 0, 64, 83
1, 320137, Control_c, 0, 64, 82
1, 320152, Control_c, 0, 64, 81
1, 320166, Control_c, 0, 64, 79
1, 320181, Control_c, 0, 64, 77
1, 320196, Control_c, 0, 64, 73
1, 320211, Control_c, 0, 64, 69
1, 320226, Control_c, 0, 64, 64
1, 320240, Control_c, 0, 64, 59
1, 320255, Control_c, 0, 64, 51
1, 320270, Control_c, 0, 64, 43
1, 320284, Control_c, 0, 64, 29
1, 320299, Control_c, 0, 64, 0
1, 320418, Control_c, 0, 64, 29
1, 320432, Control_c, 0, 64, 44
1, 320447, Control_c, 0, 64, 55
1, 320462, Control_c, 0, 64, 61
1, 320476, Control_c, 0, 64, 64
1, 320491, Control_c, 0, 64, 68
1, 320497, Note_on_c, 0, 45, 34
1, 320499, Note_on_c, 0, 57, 31
1, 320506, Note_on_c, 0, 33, 26
1, 320506, Control_c, 0, 64, 72
1, 320522, Control_c, 0, 64, 78
1, 320537, Control_c, 0, 64, 84
1, 320552, Control_c, 0, 64, 90
1, 320567, Control_c, 0, 64, 95
1, 320581, Control_c, 0, 64, 100
1, 320596, Control_c, 0, 64, 105
1, 320611, Control_c, 0, 64, 111
1, 320626, Control_c, 0, 64, 127
1, 320700, Note_off_c, 0, 45, 42
1, 320763, Note_off_c, 0, 33, 34
1, 321117, Note_off_c, 0, 57, 37
1, 321330, Control_c, 0, 64, 120
1, 321345, Control_c, 0, 64, 114
1, 321360, Control_c, 0, 64, 110
1, 321375, Control_c, 0, 64, 109
1, 321390, Control_c, 0, 64, 107
1, 321404, Control_c, 0, 64, 106
1, 321419, Control_c, 0, 64, 104
1, 321434, Control_c, 0, 64, 101
1, 321457, Control_c, 0, 64, 98
1, 321472, Control_c, 0, 64, 94
1, 321486, Control_c, 0, 64, 87
1, 321501, Control_c, 0, 64, 78
1, 321516, Control_c, 0, 64, 68
1, 321530, Control_c, 0, 64, 53
1, 321545, Control_c, 0, 64, 0
1, 321547, Note_on_c, 0, 62, 34
1, 321559, Note_on_c, 0, 50, 34
1, 321562, Note_on_c, 0, 38, 32
1, 321604, Control_c, 0, 64, 29
1, 321619, Control_c, 0, 64, 46
1, 321634, Control_c, 0, 64, 57
1, 321648, Control_c, 0, 64, 63
1, 321663, Control_c, 0, 64, 67
1, 321678, Control_c, 0, 64, 73
1, 321693, Control_c, 0, 64, 78
1, 321708, Control_c, 0, 64, 82
1, 321722, Control_c, 0, 64, 86
1, 321735, Note_off_c, 0, 38, 39
1, 321737, Control_c, 0, 64, 89
1, 321739, Note_off_c, 0, 50, 48
1, 321752, Control_c, 0, 64, 92
1, 321767, Control_c, 0, 64, 95
1, 321782, Control_c, 0, 64, 98
1, 321797, Control_c, 0, 64, 100
1, 321812, Control_c, 0, 64, 101
1, 321821, Note_off_c, 0, 62, 41
1, 321827, Control_c, 0, 64, 102
1, 322019, Control_c, 0, 64, 101
1, 322034, Control_c, 0, 64, 100
1, 322048, Control_c, 0, 64, 99
1, 322063, Control_c, 0, 64, 99
1, 322078, Control_c, 0, 64, 98
1, 322093, Control_c, 0, 64, 97
1, 322108, Control_c, 0, 64, 97
1, 322124, Control_c, 0, 64, 96
1, 322139, Control_c, 0, 64, 95
1, 322153, Control_c, 0, 64, 94
1, 322168, Control_c, 0, 64, 93
1, 322183, Control_c, 0, 64, 93
1, 322205, Control_c, 0, 64, 92
1, 322220, Control_c, 0, 64, 91
1, 322235, Control_c, 0, 64, 89
1, 322250, Control_c, 0, 64, 87
1, 322265, Control_c, 0, 64, 86
1, 322279, Control_c, 0, 64, 85
1, 322294, Control_c, 0, 64, 83
1, 322309, Control_c, 0, 64, 82
1, 322324, Control_c, 0, 64, 80
1, 322339, Control_c, 0, 64, 77
1, 322353, Control_c, 0, 64, 75
1, 322368, Control_c, 0, 64, 74
1, 322383, Control_c, 0, 64, 74
1, 322398, Control_c, 0, 64, 73
1, 322413, Control_c, 0, 64, 72
1, 322427, Control_c, 0, 64, 70
1, 322442, Control_c, 0, 64, 68
1, 322457, Control_c, 0, 64, 66
1, 322471, Control_c, 0, 64, 64
1, 322486, Control_c, 0, 64, 62
1, 322501, Control_c, 0, 64, 58
1, 322516, Control_c, 0, 64, 52
1, 322531, Control_c, 0, 64, 38
1, 322545, Control_c, 0, 64, 0
1, 322554, Note_on_c, 0, 55, 37
1, 322556, Note_on_c, 0, 59, 36
1, 322571, Note_on_c, 0, 43, 38
1, 322577, Note_on_c, 0, 31, 30
1, 322650, Control_c, 0, 64, 33
1, 322664, Control_c, 0, 64, 50
1, 322679, Control_c, 0, 64, 59
1, 322694, Control_c, 0, 64, 63
1, 322709, Control_c, 0, 64, 66
1, 322724, Control_c, 0, 64, 70
1, 322727, Note_off_c, 0, 59, 44
1, 322734, Note_off_c, 0, 43, 42
1, 322738, Note_off_c, 0, 31, 45
1, 322739, Control_c, 0, 64, 74
1, 322748, Note_off_c, 0, 55, 41
1, 322753, Control_c, 0, 64, 79
1, 322768, Control_c, 0, 64, 84
1, 322783, Control_c, 0, 64, 87
1, 322798, Control_c, 0, 64, 90
1, 322813, Control_c, 0, 64, 92
1, 322827, Control_c, 0, 64, 93
1, 322842, Control_c, 0, 64, 94
1, 322857, Control_c, 0, 64, 95
1, 322871, Control_c, 0, 64, 96
1, 322901, Control_c, 0, 64, 97
1, 323028, Control_c, 0, 64, 97
1, 323043, Control_c, 0, 64, 99
1, 323058, Control_c, 0, 64, 100
1, 323073, Control_c, 0, 64, 100
1, 323088, Control_c, 0, 64, 101
1, 323102, Control_c, 0, 64, 101
1, 323117, Control_c, 0, 64, 102
1, 323132, Control_c, 0, 64, 103
1, 323147, Control_c, 0, 64, 104
1, 323162, Control_c, 0, 64, 106
1, 323176, Control_c, 0, 64, 107
1, 323191, Control_c, 0, 64, 109
1, 323206, Control_c, 0, 64, 113
1, 323221, Control_c, 0, 64, 115
1, 323236, Control_c, 0, 64, 120
1, 323250, Control_c, 0, 64, 127
1, 323618, Note_on_c, 0, 59, 56
1, 323630, Note_on_c, 0, 50, 46
1, 323630, Note_on_c, 0, 55, 44
1, 323633, Note_on_c, 0, 43, 50
1, 323635, Control_c, 0, 67, 121
1, 323642, Note_on_c, 0, 31, 40
1, 323650, Control_c, 0, 67, 115
1, 323665, Control_c, 0, 67, 108
1, 323680, Control_c, 0, 67, 98
1, 323696, Note_off_c, 0, 31, 55
1, 323698, Note_off_c, 0, 43, 47
1, 323702, Control_c, 0, 67, 87
1, 323717, Control_c, 0, 67, 74
1, 323724, Note_off_c, 0, 50, 48
1, 323732, Control_c, 0, 67, 63
1, 323733, Note_off_c, 0, 59, 59
1, 323737, Note_off_c, 0, 55, 53
1, 323747, Control_c, 0, 67, 55
1, 323762, Control_c, 0, 67, 50
1, 323777, Control_c, 0, 67, 46
1, 323792, Control_c, 0, 67, 38
1, 323806, Control_c, 0, 67, 26
1, 323821, Control_c, 0, 67, 11
1, 323836, Control_c, 0, 67, 0
1, 324833, Note_on_c, 0, 59, 74
1, 324837, Note_on_c, 0, 31, 57
1, 324837, Note_on_c, 0, 43, 68
1, 324837, Note_on_c, 0, 50, 69
1, 324838, Note_on_c, 0, 55, 64
1, 324882, Note_off_c, 0, 43, 62
1, 324888, Note_off_c, 0, 31, 58
1, 324908, Note_off_c, 0, 50, 58
1, 324949, Note_off_c, 0, 59, 60
1, 324961, Note_off_c, 0, 55, 50
1, 326092, Note_on_c, 0, 59, 80
1, 326092, Note_on_c, 0, 31, 73
1, 326093, Note_on_c, 0, 50, 77
1, 326093, Note_on_c, 0, 55, 75
1, 326094, Note_on_c, 0, 43, 83
1, 326098, Note_on_c, 0, 38, 71
1, 326136, Note_off_c, 0, 31, 57
1, 326136, Note_off_c, 0, 43, 62
1, 326143, Note_off_c, 0, 38, 62
1, 326161, Note_off_c, 0, 50, 64
1, 326206, Note_off_c, 0, 55, 58
1, 326242, Note_off_c, 0, 59, 54
1, 327449, Note_on_c, 0, 31, 80
1, 327451, Note_on_c, 0, 43, 89
1, 327453, Note_on_c, 0, 50, 84
1, 327455, Note_on_c, 0, 38, 84
1, 327455, Note_on_c, 0, 59, 81
1, 327456, Note_on_c, 0, 55, 77
1, 327498, Note_off_c, 0, 43, 58
1, 327506, Note_off_c, 0, 31, 59
1, 327510, Note_off_c, 0, 50, 65
1, 327526, Note_off_c, 0, 38, 60
1, 327571, Note_off_c, 0, 55, 55
1, 327571, Note_off_c, 0, 59, 59
1, 328800, Note_on_c, 0, 43, 92
1, 328801, Note_on_c, 0, 31, 78
1, 328804, Note_on_c, 0, 59, 85
1, 328805, Note_on_c, 0, 50, 91
1, 328806, Note_on_c, 0, 55, 78
1, 328808, Note_on_c, 0, 38, 82
1, 328841, Note_off_c, 0, 43, 61
1, 328848, Note_off_c, 0, 31, 60
1, 328859, Note_off_c, 0, 50, 66
1, 328863, Note_off_c, 0, 38, 62
1, 328899, Note_off_c, 0, 59, 60
1, 328901, Note_off_c, 0, 55, 59
1, 330138, Note_on_c, 0, 43, 90
1, 330142, Note_on_c, 0, 31, 68
1, 330146, Note_on_c, 0, 35, 75
1, 330147, Note_on_c, 0, 38, 77
1, 330147, Note_on_c, 0, 50, 83
1, 330147, Note_on_c, 0, 62, 80
1, 330149, Note_on_c, 0, 59, 80
1, 330151, Note_on_c, 0, 55, 72
1, 330182, Note_off_c, 0, 43, 61
1, 330191, Note_off_c, 0, 50, 67
1, 330191, Note_off_c, 0, 31, 61
1, 330212, Note_off_c, 0, 38, 61
1, 330219, Note_off_c, 0, 35, 61
1, 330227, Note_off_c, 0, 62, 59
1, 330239, Note_off_c, 0, 55, 61
1, 330255, Note_off_c, 0, 59, 61
1, 331449, Note_on_c, 0, 43, 91
1, 331451, Note_on_c, 0, 31, 75
1, 331454, Note_on_c, 0, 50, 87
1, 331455, Note_on_c, 0, 62, 82
1, 331460, Note_on_c, 0, 59, 82
1, 331461, Note_on_c, 0, 35, 69
1, 331462, Note_on_c, 0, 38, 79
1, 331466, Note_on_c, 0, 55, 73
1, 331494, Note_off_c, 0, 43, 59
1, 331500, Note_off_c, 0, 31, 62
1, 331506, Note_off_c, 0, 50, 66
1, 331527, Note_off_c, 0, 38, 60
1, 331534, Note_off_c, 0, 35, 60
1, 331541, Note_off_c, 0, 62, 60
1, 331545, Note_off_c, 0, 55, 60
1, 331566, Note_off_c, 0, 59, 60
1, 332882, Note_on_c, 0, 62, 84
1, 332884, Note_on_c, 0, 43, 91
1, 332885, Note_on_c, 0, 31, 79
1, 332887, Note_on_c, 0, 50, 87
1, 332890, Note_on_c, 0, 55, 79
1, 332892, Note_on_c, 0, 59, 81
1, 332894, Note_on_c, 0, 38, 79
1, 332897, Note_on_c, 0, 35, 68
1, 332945, Note_off_c, 0, 43, 62
1, 332949, Note_off_c, 0, 50, 67
1, 332952, Note_off_c, 0, 31, 60
1, 332969, Note_off_c, 0, 62, 60
1, 332979, Note_off_c, 0, 38, 59
1, 332982, Note_off_c, 0, 35, 60
1, 332984, Poly_aftertouch_c, 0, 57, 127
1, 332996, Note_off_c, 0, 55, 59
1, 333009, Note_off_c, 0, 59, 59
1, 333023, Poly_aftertouch_c, 0, 57, 0
1, 334430, Note_on_c, 0, 43, 90
1, 334430, Note_on_c, 0, 31, 74
1, 334431, Note_on_c, 0, 50, 92
1, 334433, Note_on_c, 0, 62, 81
1, 334436, Note_on_c, 0, 55, 74
1, 334439, Note_on_c, 0, 38, 77
1, 334441, Note_on_c, 0, 35, 71
1, 334441, Note_on_c, 0, 59, 78
1, 334478, Note_off_c, 0, 43, 62
1, 334489, Note_off_c, 0, 50, 65
1, 334496, Note_off_c, 0, 31, 59
1, 334511, Note_off_c, 0, 35, 60
1, 334520, Note_off_c, 0, 38, 54
1, 334561, Note_off_c, 0, 62, 54
1, 334572, Note_off_c, 0, 55, 55
1, 334604, Note_off_c, 0, 59, 54
1, 334675, Control_c, 0, 67, 8
1, 334689, Control_c, 0, 67, 10
1, 334704, Control_c, 0, 67, 12
1, 334719, Control_c, 0, 67, 16
1, 334734, Control_c, 0, 67, 20
1, 334749, Control_c, 0, 67, 28
1, 334764, Control_c, 0, 67, 33
1, 334778, Control_c, 0, 67, 35
1, 334793, Control_c, 0, 67, 36
1, 334808, Control_c, 0, 67, 36
1, 334838, Control_c, 0, 67, 37
1, 334852, Control_c, 0, 67, 39
1, 334867, Control_c, 0, 67, 41
1, 334882, Control_c, 0, 67, 43
1, 334897, Control_c, 0, 67, 46
1, 334913, Control_c, 0, 67, 47
1, 334935, Control_c, 0, 67, 49
1, 334950, Control_c, 0, 67, 51
1, 334964, Control_c, 0, 67, 53
1, 334979, Control_c, 0, 67, 56
1, 334994, Control_c, 0, 67, 58
1, 335009, Control_c, 0, 67, 60
1, 335024, Control_c, 0, 67, 62
1, 335038, Control_c, 0, 67, 64
1, 335053, Control_c, 0, 67, 67
1, 335068, Control_c, 0, 67, 70
1, 335083, Control_c, 0, 67, 73
1, 335098, Control_c, 0, 67, 77
1, 335113, Control_c, 0, 67, 80
1, 335128, Control_c, 0, 67, 83
1, 335143, Control_c, 0, 67, 85
1, 335157, Control_c, 0, 67, 87
1, 335172, Control_c, 0, 67, 89
1, 335187, Control_c, 0, 67, 93
1, 335202, Control_c, 0, 67, 97
1, 335216, Control_c, 0, 67, 100
1, 335231, Control_c, 0, 67, 103
1, 335246, Control_c, 0, 67, 105
1, 335261, Control_c, 0, 67, 107
1, 335275, Control_c, 0, 67, 109
1, 335290, Control_c, 0, 67, 111
1, 335305, Control_c, 0, 67, 113
1, 335320, Control_c, 0, 67, 115
1, 335335, Control_c, 0, 67, 117
1, 335349, Control_c, 0, 67, 119
1, 335364, Control_c, 0, 67, 121
1, 335379, Control_c, 0, 67, 123
1, 335394, Control_c, 0, 67, 124
1, 335408, Control_c, 0, 67, 125
1, 335423, Control_c, 0, 67, 126
1, 335438, Control_c, 0, 67, 127
1, 336028, Note_on_c, 0, 31, 47
1, 336496, Note_on_c, 0, 35, 52
1, 336565, Control_c, 0, 64, 112
1, 336580, Control_c, 0, 64, 89
1, 336595, Control_c, 0, 64, 75
1, 336609, Control_c, 0, 64, 64
1, 336624, Control_c, 0, 64, 60
1, 336639, Control_c, 0, 64, 64
1, 336654, Control_c, 0, 64, 70
1, 336669, Control_c, 0, 64, 81
1, 336684, Control_c, 0, 64, 98
1, 336699, Control_c, 0, 64, 127
1, 336825, Note_off_c, 0, 31, 10
1, 337091, Note_on_c, 0, 38, 54
1, 337123, Note_off_c, 0, 35, 36
1, 337404, Control_c, 0, 64, 114
1, 337419, Control_c, 0, 64, 90
1, 337431, Note_off_c, 0, 38, 40
1, 337433, Control_c, 0, 64, 75
1, 337440, Note_on_c, 0, 43, 57
1, 337448, Control_c, 0, 64, 67
1, 337463, Control_c, 0, 64, 65
1, 337477, Control_c, 0, 64, 68
1, 337492, Control_c, 0, 64, 72
1, 337507, Control_c, 0, 64, 77
1, 337522, Control_c, 0, 64, 83
1, 337537, Control_c, 0, 64, 89
1, 337551, Control_c, 0, 64, 97
1, 337566, Control_c, 0, 64, 104
1, 337581, Control_c, 0, 64, 109
1, 337596, Control_c, 0, 64, 112
1, 337611, Control_c, 0, 64, 113
1, 337626, Control_c, 0, 64, 113
1, 337641, Control_c, 0, 64, 115
1, 337655, Control_c, 0, 64, 120
1, 337670, Control_c, 0, 64, 127
1, 337948, Note_off_c, 0, 43, 41
1, 337965, Note_on_c, 0, 47, 55
1, 338300, Control_c, 0, 64, 113
1, 338308, Note_on_c, 0, 50, 53
1, 338315, Control_c, 0, 64, 89
1, 338330, Control_c, 0, 64, 76
1, 338342, Note_off_c, 0, 47, 50
1, 338345, Control_c, 0, 64, 68
1, 338360, Control_c, 0, 64, 64
1, 338389, Control_c, 0, 64, 69
1, 338404, Control_c, 0, 64, 76
1, 338419, Control_c, 0, 64, 91
1, 338433, Control_c, 0, 64, 111
1, 338448, Control_c, 0, 64, 127
1, 338797, Control_c, 0, 64, 108
1, 338812, Control_c, 0, 64, 97
1, 338821, Note_off_c, 0, 50, 60
1, 338826, Control_c, 0, 64, 93
1, 338856, Control_c, 0, 64, 95
1, 338857, Note_on_c, 0, 55, 52
1, 338871, Control_c, 0, 64, 99
1, 338886, Control_c, 0, 64, 104
1, 338901, Control_c, 0, 64, 110
1, 338916, Control_c, 0, 64, 117
1, 338931, Control_c, 0, 64, 127
1, 339172, Note_off_c, 0, 55, 56
1, 339197, Control_c, 0, 64, 112
1, 339205, Note_on_c, 0, 59, 46
1, 339212, Control_c, 0, 64, 99
1, 339227, Control_c, 0, 64, 87
1, 339241, Control_c, 0, 64, 75
1, 339256, Control_c, 0, 64, 65
1, 339271, Control_c, 0, 64, 58
1, 339286, Control_c, 0, 64, 60
1, 339301, Control_c, 0, 64, 62
1, 339316, Control_c, 0, 64, 64
1, 339331, Control_c, 0, 64, 67
1, 339346, Control_c, 0, 64, 73
1, 339360, Control_c, 0, 64, 82
1, 339375, Control_c, 0, 64, 92
1, 339390, Control_c, 0, 64, 102
1, 339405, Control_c, 0, 64, 113
1, 339427, Control_c, 0, 64, 127
1, 339770, Note_on_c, 0, 62, 44
1, 339885, Note_off_c, 0, 59, 30
1, 340085, Note_off_c, 0, 62, 52
1, 340106, Note_on_c, 0, 67, 47
1, 340710, Note_on_c, 0, 71, 47
1, 340754, Note_off_c, 0, 67, 35
1, 341161, Control_c, 0, 64, 115
1, 341170, Note_on_c, 0, 74, 46
1, 341176, Control_c, 0, 64, 105
1, 341191, Control_c, 0, 64, 96
1, 341206, Control_c, 0, 64, 87
1, 341213, Note_off_c, 0, 71, 55
1, 341221, Control_c, 0, 64, 78
1, 341235, Control_c, 0, 64, 69
1, 341250, Control_c, 0, 64, 60
1, 341265, Control_c, 0, 64, 39
1, 341280, Control_c, 0, 64, 14
1, 341296, Control_c, 0, 64, 0
1, 341875, Note_on_c, 0, 69, 47
1, 342004, Note_off_c, 0, 74, 53
1, 342506, Note_on_c, 0, 72, 47
1, 342565, Note_off_c, 0, 69, 58
1, 343096, Note_on_c, 0, 67, 49
1, 343257, Note_off_c, 0, 72, 57
1, 343748, Note_on_c, 0, 71, 46
1, 343849, Note_off_c, 0, 67, 55
1, 344356, Note_on_c, 0, 66, 44
1, 344425, Note_off_c, 0, 71, 56
1, 344978, Note_on_c, 0, 67, 44
1, 345028, Note_off_c, 0, 66, 57
1, 345398, Note_on_c, 0, 69, 50
1, 345507, Note_off_c, 0, 67, 48
1, 345647, Note_on_c, 0, 71, 54
1, 345692, Note_off_c, 0, 69, 48
1, 346009, Control_c, 0, 64, 37
1, 346023, Control_c, 0, 64, 51
1, 346038, Control_c, 0, 64, 57
1, 346053, Control_c, 0, 64, 60
1, 346068, Control_c, 0, 64, 62
1, 346084, Control_c, 0, 64, 64
1, 346099, Control_c, 0, 64, 66
1, 346113, Control_c, 0, 64, 68
1, 346128, Control_c, 0, 64, 70
1, 346143, Control_c, 0, 64, 71
1, 346165, Control_c, 0, 64, 71
1, 346180, Control_c, 0, 64, 72
1, 346195, Control_c, 0, 64, 73
1, 346300, Note_on_c, 0, 79, 55
1, 346358, Control_c, 0, 64, 73
1, 346417, Control_c, 0, 64, 72
1, 346461, Control_c, 0, 64, 72
1, 346476, Control_c, 0, 64, 71
1, 346491, Control_c, 0, 64, 71
1, 346506, Control_c, 0, 64, 70
1, 346509, Note_off_c, 0, 71, 51
1, 346517, Note_on_c, 0, 72, 41
1, 346521, Control_c, 0, 64, 70
1, 346536, Control_c, 0, 64, 69
1, 346550, Control_c, 0, 64, 69
1, 346565, Control_c, 0, 64, 68
1, 346580, Control_c, 0, 64, 68
1, 346595, Control_c, 0, 64, 67
1, 346610, Control_c, 0, 64, 67
1, 346625, Control_c, 0, 64, 66
1, 346654, Control_c, 0, 64, 66
1, 346669, Control_c, 0, 64, 65
1, 346684, Control_c, 0, 64, 65
1, 346688, Note_off_c, 0, 72, 57
1, 346711, Note_on_c, 0, 71, 46
1, 346713, Control_c, 0, 64, 64
1, 346728, Control_c, 0, 64, 64
1, 346743, Control_c, 0, 64, 63
1, 346773, Control_c, 0, 64, 63
1, 346803, Control_c, 0, 64, 62
1, 346832, Control_c, 0, 64, 62
1, 346847, Control_c, 0, 64, 61
1, 346878, Control_c, 0, 64, 61
1, 346893, Control_c, 0, 64, 60
1, 346912, Note_on_c, 0, 74, 60
1, 346915, Control_c, 0, 64, 60
1, 346930, Control_c, 0, 64, 59
1, 346944, Control_c, 0, 64, 58
1, 346959, Control_c, 0, 64, 57
1, 346974, Control_c, 0, 64, 56
1, 346989, Control_c, 0, 64, 55
1, 347004, Control_c, 0, 64, 55
1, 347018, Control_c, 0, 64, 54
1, 347033, Control_c, 0, 64, 52
1, 347048, Control_c, 0, 64, 51
1, 347053, Note_off_c, 0, 71, 58
1, 347063, Control_c, 0, 64, 49
1, 347078, Control_c, 0, 64, 48
1, 347090, Note_off_c, 0, 79, 54
1, 347093, Control_c, 0, 64, 47
1, 347101, Note_on_c, 0, 69, 39
1, 347108, Control_c, 0, 64, 47
1, 347123, Control_c, 0, 64, 46
1, 347137, Control_c, 0, 64, 45
1, 347152, Control_c, 0, 64, 45
1, 347167, Control_c, 0, 64, 44
1, 347196, Control_c, 0, 64, 44
1, 347226, Control_c, 0, 64, 43
1, 347285, Control_c, 0, 64, 43
1, 347289, Note_on_c, 0, 68, 45
1, 347294, Note_off_c, 0, 69, 43
1, 347315, Control_c, 0, 64, 42
1, 347344, Control_c, 0, 64, 42
1, 347418, Control_c, 0, 64, 41
1, 347488, Note_on_c, 0, 78, 64
1, 347492, Control_c, 0, 64, 41
1, 347497, Note_on_c, 0, 69, 47
1, 347504, Note_off_c, 0, 68, 50
1, 347507, Control_c, 0, 64, 40
1, 347523, Note_off_c, 0, 74, 62
1, 347537, Control_c, 0, 64, 40
1, 347552, Control_c, 0, 64, 39
1, 347581, Control_c, 0, 64, 39
1, 347611, Control_c, 0, 64, 38
1, 347626, Control_c, 0, 64, 38
1, 347641, Control_c, 0, 64, 37
1, 347662, Control_c, 0, 64, 37
1, 347677, Control_c, 0, 64, 36
1, 347698, Note_on_c, 0, 71, 44
1, 347703, Note_off_c, 0, 69, 37
1, 347708, Control_c, 0, 64, 35
1, 347753, Control_c, 0, 64, 35
1, 347767, Control_c, 0, 64, 34
1, 347811, Control_c, 0, 64, 34
1, 347856, Control_c, 0, 64, 33
1, 347858, Note_off_c, 0, 71, 59
1, 347888, Note_on_c, 0, 69, 44
1, 347916, Control_c, 0, 64, 33
1, 347931, Control_c, 0, 64, 32
1, 347960, Control_c, 0, 64, 31
1, 347975, Control_c, 0, 64, 31
1, 347990, Control_c, 0, 64, 30
1, 348004, Control_c, 0, 64, 29
1, 348019, Control_c, 0, 64, 28
1, 348034, Control_c, 0, 64, 28
1, 348062, Note_on_c, 0, 73, 62
1, 348064, Control_c, 0, 64, 27
1, 348079, Control_c, 0, 64, 27
1, 348089, Note_off_c, 0, 78, 63
1, 348093, Control_c, 0, 64, 26
1, 348108, Control_c, 0, 64, 26
1, 348137, Control_c, 0, 64, 25
1, 348211, Control_c, 0, 64, 25
1, 348222, Note_off_c, 0, 69, 60
1, 348241, Control_c, 0, 64, 24
1, 348255, Note_on_c, 0, 67, 46
1, 348285, Control_c, 0, 64, 24
1, 348315, Control_c, 0, 64, 23
1, 348330, Control_c, 0, 64, 23
1, 348345, Control_c, 0, 64, 22
1, 348375, Control_c, 0, 64, 21
1, 348390, Control_c, 0, 64, 20
1, 348411, Control_c, 0, 64, 19
1, 348426, Control_c, 0, 64, 19
1, 348429, Note_off_c, 0, 67, 58
1, 348441, Control_c, 0, 64, 18
1, 348452, Note_on_c, 0, 66, 50
1, 348456, Control_c, 0, 64, 17
1, 348471, Control_c, 0, 64, 15
1, 348487, Control_c, 0, 64, 12
1, 348502, Control_c, 0, 64, 9
1, 348516, Control_c, 0, 64, 0
1, 348645, Note_off_c, 0, 66, 53
1, 348646, Note_on_c, 0, 76, 60
1, 348661, Note_on_c, 0, 67, 43
1, 348667, Note_off_c, 0, 73, 60
1, 348830, Note_off_c, 0, 67, 51
1, 348846, Note_on_c, 0, 69, 47
1, 349007, Note_off_c, 0, 69, 60
1, 349031, Note_on_c, 0, 67, 47
1, 349226, Note_on_c, 0, 69, 55
1, 349380, Note_off_c, 0, 76, 34
1, 349389, Note_off_c, 0, 67, 53
1, 349421, Note_on_c, 0, 64, 44
1, 349487, Control_c, 0, 64, 9
1, 349502, Control_c, 0, 64, 26
1, 349517, Control_c, 0, 64, 36
1, 349531, Control_c, 0, 64, 43
1, 349546, Control_c, 0, 64, 48
1, 349561, Control_c, 0, 64, 53
1, 349576, Control_c, 0, 64, 56
1, 349591, Control_c, 0, 64, 58
1, 349606, Control_c, 0, 64, 60
1, 349615, Note_on_c, 0, 66, 41
1, 349621, Control_c, 0, 64, 61
1, 349636, Control_c, 0, 64, 63
1, 349650, Control_c, 0, 64, 64
1, 349665, Control_c, 0, 64, 64
1, 349667, Note_off_c, 0, 64, 36
1, 349680, Control_c, 0, 64, 65
1, 349695, Control_c, 0, 64, 66
1, 349710, Control_c, 0, 64, 67
1, 349724, Control_c, 0, 64, 68
1, 349739, Control_c, 0, 64, 69
1, 349783, Note_off_c, 0, 66, 52
1, 349783, Control_c, 0, 64, 68
1, 349798, Control_c, 0, 64, 68
1, 349804, Note_on_c, 0, 71, 57
1, 349813, Control_c, 0, 64, 67
1, 349820, Note_on_c, 0, 67, 39
1, 349828, Control_c, 0, 64, 65
1, 349838, Note_off_c, 0, 69, 52
1, 349843, Control_c, 0, 64, 61
1, 349857, Control_c, 0, 64, 55
1, 349872, Control_c, 0, 64, 45
1, 349887, Control_c, 0, 64, 33
1, 349909, Control_c, 0, 64, 29
1, 349924, Control_c, 0, 64, 29
1, 349924, Control_c, 0, 67, 127
1, 349939, Control_c, 0, 64, 32
1, 349954, Control_c, 0, 64, 36
1, 349954, Control_c, 0, 67, 126
1, 349969, Control_c, 0, 64, 41
1, 349969, Control_c, 0, 67, 125
1, 349983, Control_c, 0, 64, 48
1, 349983, Control_c, 0, 67, 125
1, 349998, Control_c, 0, 64, 54
1, 349998, Control_c, 0, 67, 124
1, 349999, Note_off_c, 0, 67, 45
1, 350002, Note_on_c, 0, 66, 44
1, 350013, Control_c, 0, 64, 59
1, 350013, Control_c, 0, 67, 122
1, 350028, Control_c, 0, 64, 61
1, 350028, Control_c, 0, 67, 120
1, 350043, Control_c, 0, 64, 63
1, 350043, Control_c, 0, 67, 117
1, 350057, Control_c, 0, 64, 64
1, 350057, Control_c, 0, 67, 114
1, 350072, Control_c, 0, 64, 66
1, 350072, Control_c, 0, 67, 109
1, 350088, Control_c, 0, 64, 69
1, 350088, Control_c, 0, 67, 103
1, 350103, Control_c, 0, 64, 72
1, 350103, Control_c, 0, 67, 95
1, 350118, Control_c, 0, 64, 75
1, 350118, Control_c, 0, 67, 88
1, 350133, Control_c, 0, 64, 77
1, 350133, Control_c, 0, 67, 81
1, 350148, Control_c, 0, 64, 78
1, 350148, Control_c, 0, 67, 75
1, 350154, Note_off_c, 0, 66, 55
1, 350162, Control_c, 0, 64, 79
1, 350162, Control_c, 0, 67, 71
1, 350177, Control_c, 0, 64, 80
1, 350177, Control_c, 0, 67, 70
1, 350182, Note_on_c, 0, 64, 45
1, 350187, Note_on_c, 0, 73, 61
1, 350192, Control_c, 0, 64, 81
1, 350192, Control_c, 0, 67, 69
1, 350196, Note_off_c, 0, 71, 62
1, 350206, Control_c, 0, 64, 82
1, 350221, Control_c, 0, 64, 83
1, 350236, Control_c, 0, 67, 70
1, 350251, Control_c, 0, 64, 84
1, 350266, Control_c, 0, 67, 70
1, 350280, Control_c, 0, 67, 71
1, 350295, Control_c, 0, 67, 72
1, 350297, Note_off_c, 0, 64, 35
1, 350310, Control_c, 0, 64, 84
1, 350310, Control_c, 0, 67, 72
1, 350325, Control_c, 0, 67, 73
1, 350340, Control_c, 0, 67, 73
1, 350354, Control_c, 0, 64, 83
1, 350354, Control_c, 0, 67, 74
1, 350369, Control_c, 0, 64, 79
1, 350369, Control_c, 0, 67, 75
1, 350384, Control_c, 0, 64, 71
1, 350384, Control_c, 0, 67, 77
1, 350387, Note_off_c, 0, 73, 63
1, 350399, Control_c, 0, 64, 61
1, 350399, Control_c, 0, 67, 79
1, 350411, Note_on_c, 0, 74, 58
1, 350414, Control_c, 0, 64, 43
1, 350414, Control_c, 0, 67, 80
1, 350417, Note_on_c, 0, 66, 43
1, 350429, Control_c, 0, 64, 33
1, 350429, Control_c, 0, 67, 83
1, 350443, Control_c, 0, 64, 37
1, 350443, Control_c, 0, 67, 86
1, 350458, Control_c, 0, 64, 45
1, 350458, Control_c, 0, 67, 90
1, 350473, Control_c, 0, 64, 50
1, 350473, Control_c, 0, 67, 95
1, 350488, Control_c, 0, 64, 54
1, 350488, Control_c, 0, 67, 100
1, 350503, Control_c, 0, 64, 57
1, 350503, Control_c, 0, 67, 105
1, 350518, Control_c, 0, 64, 60
1, 350518, Control_c, 0, 67, 110
1, 350532, Control_c, 0, 64, 61
1, 350532, Control_c, 0, 67, 114
1, 350547, Control_c, 0, 64, 63
1, 350547, Control_c, 0, 67, 117
1, 350562, Control_c, 0, 64, 64
1, 350562, Control_c, 0, 67, 119
1, 350577, Control_c, 0, 64, 67
1, 350577, Control_c, 0, 67, 120
1, 350592, Control_c, 0, 64, 69
1, 350592, Control_c, 0, 67, 121
1, 350593, Note_off_c, 0, 66, 59
1, 350606, Control_c, 0, 64, 71
1, 350606, Control_c, 0, 67, 122
1, 350613, Note_on_c, 0, 72, 57
1, 350621, Control_c, 0, 64, 73
1, 350634, Note_on_c, 0, 69, 36
1, 350636, Control_c, 0, 64, 74
1, 350636, Control_c, 0, 67, 123
1, 350658, Control_c, 0, 64, 75
1, 350658, Control_c, 0, 67, 124
1, 350673, Control_c, 0, 64, 75
1, 350673, Control_c, 0, 67, 126
1, 350688, Control_c, 0, 67, 127
1, 350703, Control_c, 0, 64, 76
1, 350788, Note_off_c, 0, 69, 51
1, 350796, Note_on_c, 0, 71, 57
1, 350805, Note_off_c, 0, 74, 39
1, 350817, Note_on_c, 0, 67, 41
1, 350846, Note_off_c, 0, 72, 31
1, 350941, Control_c, 0, 64, 75
1, 350965, Note_off_c, 0, 67, 27
1, 350970, Control_c, 0, 64, 75
1, 350985, Control_c, 0, 64, 74
1, 351000, Control_c, 0, 64, 73
1, 351015, Control_c, 0, 64, 71
1, 351027, Note_on_c, 0, 62, 68
1, 351029, Control_c, 0, 64, 67
1, 351038, Note_off_c, 0, 71, 59
1, 351044, Control_c, 0, 64, 62
1, 351052, Note_on_c, 0, 69, 49
1, 351059, Control_c, 0, 64, 49
1, 351074, Control_c, 0, 64, 21
1, 351089, Control_c, 0, 64, 0
1, 351192, Control_c, 0, 64, 31
1, 351207, Control_c, 0, 64, 47
1, 351222, Control_c, 0, 64, 56
1, 351236, Control_c, 0, 64, 60
1, 351251, Control_c, 0, 64, 62
1, 351266, Control_c, 0, 64, 64
1, 351281, Control_c, 0, 64, 65
1, 351293, Note_on_c, 0, 65, 39
1, 351296, Control_c, 0, 64, 68
1, 351311, Control_c, 0, 64, 71
1, 351326, Control_c, 0, 64, 74
1, 351341, Control_c, 0, 64, 76
1, 351355, Note_off_c, 0, 65, 49
1, 351355, Control_c, 0, 64, 78
1, 351370, Control_c, 0, 64, 79
1, 351385, Control_c, 0, 64, 81
1, 351407, Control_c, 0, 64, 82
1, 351422, Control_c, 0, 64, 83
1, 351436, Control_c, 0, 64, 84
1, 351451, Control_c, 0, 64, 84
1, 351465, Note_on_c, 0, 71, 49
1, 351466, Control_c, 0, 64, 85
1, 351481, Control_c, 0, 64, 86
1, 351496, Control_c, 0, 64, 87
1, 351511, Control_c, 0, 64, 88
1, 351649, Note_off_c, 0, 62, 60
1, 351659, Control_c, 0, 64, 87
1, 351665, Note_off_c, 0, 71, 54
1, 351671, Note_on_c, 0, 57, 67
1, 351674, Control_c, 0, 64, 85
1, 351690, Control_c, 0, 64, 81
1, 351698, Note_on_c, 0, 72, 53
1, 351704, Note_off_c, 0, 69, 39
1, 351704, Control_c, 0, 64, 75
1, 351719, Control_c, 0, 64, 66
1, 351721, Note_on_c, 0, 64, 35
1, 351734, Control_c, 0, 64, 53
1, 351749, Control_c, 0, 64, 15
1, 351764, Control_c, 0, 64, 0
1, 351852, Control_c, 0, 64, 37
1, 351867, Control_c, 0, 64, 54
1, 351882, Control_c, 0, 64, 61
1, 351897, Control_c, 0, 64, 64
1, 351910, Note_on_c, 0, 71, 42
1, 351912, Control_c, 0, 64, 67
1, 351926, Control_c, 0, 64, 69
1, 351941, Control_c, 0, 64, 73
1, 351956, Control_c, 0, 64, 77
1, 351971, Control_c, 0, 64, 81
1, 351985, Control_c, 0, 64, 83
1, 352000, Control_c, 0, 64, 85
1, 352015, Control_c, 0, 64, 87
1, 352030, Control_c, 0, 64, 90
1, 352045, Control_c, 0, 64, 92
1, 352059, Control_c, 0, 64, 95
1, 352074, Control_c, 0, 64, 97
1, 352082, Note_on_c, 0, 69, 55
1, 352089, Control_c, 0, 64, 99
1, 352091, Note_off_c, 0, 71, 34
1, 352104, Control_c, 0, 64, 100
1, 352119, Control_c, 0, 64, 100
1, 352129, Note_off_c, 0, 72, 36
1, 352134, Control_c, 0, 64, 101
1, 352156, Control_c, 0, 64, 102
1, 352171, Control_c, 0, 64, 102
1, 352185, Control_c, 0, 64, 103
1, 352205, Note_off_c, 0, 69, 62
1, 352215, Control_c, 0, 64, 103
1, 352263, Note_off_c, 0, 57, 61
1, 352276, Note_on_c, 0, 60, 67
1, 352286, Note_on_c, 0, 63, 54
1, 352289, Control_c, 0, 64, 100
1, 352304, Control_c, 0, 64, 93
1, 352318, Control_c, 0, 64, 81
1, 352333, Control_c, 0, 64, 69
1, 352348, Control_c, 0, 64, 57
1, 352363, Control_c, 0, 64, 38
1, 352378, Control_c, 0, 64, 39
1, 352393, Control_c, 0, 64, 49
1, 352408, Control_c, 0, 64, 55
1, 352423, Control_c, 0, 64, 59
1, 352438, Control_c, 0, 64, 63
1, 352452, Control_c, 0, 64, 66
1, 352467, Control_c, 0, 64, 71
1, 352477, Note_on_c, 0, 67, 52
1, 352482, Control_c, 0, 64, 78
1, 352497, Control_c, 0, 64, 84
1, 352507, Note_off_c, 0, 64, 38
1, 352512, Control_c, 0, 64, 87
1, 352527, Control_c, 0, 64, 90
1, 352540, Note_off_c, 0, 63, 0
1, 352542, Control_c, 0, 64, 92
1, 352557, Control_c, 0, 64, 94
1, 352572, Control_c, 0, 64, 97
1, 352577, Poly_aftertouch_c, 0, 63, 127
1, 352587, Control_c, 0, 64, 99
1, 352601, Control_c, 0, 64, 101
1, 352616, Control_c, 0, 64, 101
1, 352621, Poly_aftertouch_c, 0, 63, 0
1, 352628, Note_off_c, 0, 67, 54
1, 352631, Control_c, 0, 64, 102
1, 352646, Control_c, 0, 64, 103
1, 352654, Note_on_c, 0, 69, 53
1, 352661, Control_c, 0, 64, 105
1, 352671, Note_on_c, 0, 66, 36
1, 352675, Control_c, 0, 64, 107
1, 352690, Control_c, 0, 64, 109
1, 352720, Control_c, 0, 64, 109
1, 352823, Control_c, 0, 64, 107
1, 352838, Control_c, 0, 64, 100
1, 352840, Note_on_c, 0, 55, 65
1, 352853, Control_c, 0, 64, 87
1, 352856, Note_on_c, 0, 71, 54
1, 352868, Control_c, 0, 64, 74
1, 352869, Note_off_c, 0, 60, 59
1, 352874, Note_on_c, 0, 62, 33
1, 352879, Note_off_c, 0, 69, 32
1, 352879, Note_off_c, 0, 66, 41
1, 352882, Control_c, 0, 64, 62
1, 352905, Control_c, 0, 64, 37
1, 352920, Control_c, 0, 64, 9
1, 352934, Control_c, 0, 64, 17
1, 352949, Control_c, 0, 64, 31
1, 352964, Control_c, 0, 64, 43
1, 352979, Control_c, 0, 64, 51
1, 352994, Control_c, 0, 64, 57
1, 353008, Control_c, 0, 64, 62
1, 353023, Control_c, 0, 64, 65
1, 353037, Note_on_c, 0, 69, 45
1, 353038, Control_c, 0, 64, 68
1, 353053, Control_c, 0, 64, 72
1, 353068, Control_c, 0, 64, 76
1, 353082, Control_c, 0, 64, 79
1, 353088, Note_off_c, 0, 71, 31
1, 353097, Control_c, 0, 64, 82
1, 353112, Control_c, 0, 64, 85
1, 353126, Control_c, 0, 64, 87
1, 353141, Control_c, 0, 64, 90
1, 353156, Control_c, 0, 64, 93
1, 353171, Control_c, 0, 64, 96
1, 353186, Control_c, 0, 64, 97
1, 353201, Control_c, 0, 64, 99
1, 353216, Control_c, 0, 64, 100
1, 353216, Note_off_c, 0, 69, 50
1, 353218, Note_on_c, 0, 67, 56
1, 353231, Control_c, 0, 64, 101
1, 353246, Control_c, 0, 64, 103
1, 353260, Control_c, 0, 64, 105
1, 353276, Control_c, 0, 64, 107
1, 353291, Control_c, 0, 64, 108
1, 353305, Control_c, 0, 64, 109
1, 353320, Control_c, 0, 64, 110
1, 353335, Control_c, 0, 64, 111
1, 353350, Control_c, 0, 64, 112
1, 353365, Control_c, 0, 64, 113
1, 353405, Note_on_c, 0, 59, 60
1, 353424, Control_c, 0, 64, 105
1, 353439, Control_c, 0, 64, 95
1, 353454, Control_c, 0, 64, 82
1, 353467, Note_off_c, 0, 55, 54
1, 353469, Control_c, 0, 64, 70
1, 353484, Control_c, 0, 64, 57
1, 353498, Control_c, 0, 64, 31
1, 353514, Control_c, 0, 64, 22
1, 353529, Control_c, 0, 64, 33
1, 353544, Control_c, 0, 64, 45
1, 353556, Note_off_c, 0, 62, 49
1, 353558, Control_c, 0, 64, 53
1, 353573, Control_c, 0, 64, 58
1, 353579, Note_on_c, 0, 61, 54
1, 353588, Control_c, 0, 64, 62
1, 353603, Control_c, 0, 64, 66
1, 353618, Control_c, 0, 64, 70
1, 353632, Control_c, 0, 64, 73
1, 353654, Control_c, 0, 64, 77
1, 353669, Control_c, 0, 64, 81
1, 353684, Control_c, 0, 64, 84
1, 353699, Control_c, 0, 64, 88
1, 353714, Control_c, 0, 64, 91
1, 353728, Control_c, 0, 64, 94
1, 353735, Note_off_c, 0, 61, 60
1, 353743, Control_c, 0, 64, 95
1, 353755, Note_off_c, 0, 67, 53
1, 353758, Control_c, 0, 64, 96
1, 353771, Note_on_c, 0, 62, 54
1, 353773, Control_c, 0, 64, 96
1, 353788, Control_c, 0, 64, 97
1, 353803, Control_c, 0, 64, 99
1, 353818, Control_c, 0, 64, 100
1, 353832, Control_c, 0, 64, 101
1, 353921, Control_c, 0, 64, 98
1, 353936, Note_off_c, 0, 59, 51
1, 353936, Control_c, 0, 64, 92
1, 353948, Note_on_c, 0, 54, 56
1, 353950, Control_c, 0, 64, 81
1, 353965, Control_c, 0, 64, 69
1, 353967, Note_on_c, 0, 69, 49
1, 353980, Control_c, 0, 64, 56
1, 353995, Control_c, 0, 64, 33
1, 354010, Control_c, 0, 64, 30
1, 354024, Control_c, 0, 64, 40
1, 354039, Control_c, 0, 64, 48
1, 354054, Control_c, 0, 64, 54
1, 354070, Control_c, 0, 64, 59
1, 354085, Control_c, 0, 64, 63
1, 354100, Control_c, 0, 64, 68
1, 354115, Control_c, 0, 64, 72
1, 354129, Control_c, 0, 64, 77
1, 354131, Note_off_c, 0, 69, 62
1, 354144, Control_c, 0, 64, 81
1, 354146, Note_on_c, 0, 71, 55
1, 354159, Control_c, 0, 64, 84
1, 354173, Control_c, 0, 64, 87
1, 354188, Control_c, 0, 64, 91
1, 354203, Control_c, 0, 64, 94
1, 354218, Control_c, 0, 64, 97
1, 354233, Control_c, 0, 64, 100
1, 354247, Control_c, 0, 64, 101
1, 354262, Control_c, 0, 64, 102
1, 354277, Control_c, 0, 64, 103
1, 354292, Control_c, 0, 64, 106
1, 354295, Note_off_c, 0, 71, 39
1, 354307, Control_c, 0, 64, 110
1, 354320, Note_on_c, 0, 69, 58
1, 354321, Control_c, 0, 64, 114
1, 354336, Control_c, 0, 64, 118
1, 354351, Control_c, 0, 64, 122
1, 354365, Control_c, 0, 64, 125
1, 354380, Control_c, 0, 64, 127
1, 354447, Control_c, 0, 64, 118
1, 354462, Control_c, 0, 64, 99
1, 354477, Control_c, 0, 64, 78
1, 354484, Note_off_c, 0, 54, 54
1, 354492, Control_c, 0, 64, 61
1, 354499, Note_on_c, 0, 55, 43
1, 354502, Note_off_c, 0, 62, 42
1, 354506, Control_c, 0, 64, 0
1, 354509, Note_on_c, 0, 71, 56
1, 354515, Note_off_c, 0, 69, 50
1, 354610, Control_c, 0, 64, 25
1, 354625, Control_c, 0, 64, 54
1, 354640, Control_c, 0, 64, 64
1, 354649, Note_off_c, 0, 55, 57
1, 354654, Control_c, 0, 64, 69
1, 354669, Control_c, 0, 64, 75
1, 354673, Note_on_c, 0, 53, 52
1, 354684, Control_c, 0, 64, 80
1, 354685, Note_off_c, 0, 71, 63
1, 354694, Note_on_c, 0, 67, 55
1, 354698, Control_c, 0, 64, 86
1, 354713, Control_c, 0, 64, 91
1, 354728, Control_c, 0, 64, 96
1, 354743, Control_c, 0, 64, 101
1, 354758, Control_c, 0, 64, 105
1, 354772, Control_c, 0, 64, 109
1, 354787, Control_c, 0, 64, 114
1, 354802, Control_c, 0, 64, 121
1, 354817, Control_c, 0, 64, 127
1, 354834, Note_off_c, 0, 53, 57
1, 354858, Note_on_c, 0, 51, 46
1, 354861, Note_on_c, 0, 72, 54
1, 355010, Control_c, 0, 64, 92
1, 355022, Note_off_c, 0, 67, 60
1, 355025, Control_c, 0, 64, 68
1, 355040, Control_c, 0, 64, 0
1, 355058, Note_on_c, 0, 65, 56
1, 355083, Note_off_c, 0, 72, 52
1, 355113, Control_c, 0, 64, 21
1, 355128, Control_c, 0, 64, 49
1, 355150, Control_c, 0, 64, 63
1, 355165, Control_c, 0, 64, 69
1, 355180, Control_c, 0, 64, 75
1, 355195, Control_c, 0, 64, 80
1, 355210, Control_c, 0, 64, 85
1, 355215, Note_off_c, 0, 51, 54
1, 355225, Control_c, 0, 64, 90
1, 355234, Note_on_c, 0, 50, 51
1, 355239, Note_on_c, 0, 71, 55
1, 355240, Control_c, 0, 64, 98
1, 355243, Note_off_c, 0, 65, 52
1, 355255, Control_c, 0, 64, 106
1, 355269, Control_c, 0, 64, 114
1, 355284, Control_c, 0, 64, 127
1, 355379, Note_off_c, 0, 50, 35
1, 355381, Note_off_c, 0, 71, 29
1, 355405, Note_on_c, 0, 62, 59
1, 355413, Note_on_c, 0, 47, 47
1, 355413, Note_on_c, 0, 74, 60
1, 355437, Note_off_c, 0, 62, 65
1, 355480, Note_off_c, 0, 74, 61
1, 355648, Note_on_c, 0, 79, 77
1, 355685, Control_c, 0, 64, 103
1, 355699, Control_c, 0, 64, 87
1, 355714, Control_c, 0, 64, 72
1, 355729, Control_c, 0, 64, 59
1, 355744, Control_c, 0, 64, 0
1, 355833, Note_off_c, 0, 47, 43
1, 355880, Note_on_c, 0, 75, 46
1, 355883, Note_on_c, 0, 48, 37
1, 355943, Control_c, 0, 64, 36
1, 355958, Control_c, 0, 64, 57
1, 355973, Control_c, 0, 64, 64
1, 355988, Control_c, 0, 64, 68
1, 356003, Control_c, 0, 64, 73
1, 356018, Control_c, 0, 64, 78
1, 356033, Control_c, 0, 64, 83
1, 356048, Control_c, 0, 64, 88
1, 356058, Note_off_c, 0, 75, 58
1, 356062, Control_c, 0, 64, 93
1, 356066, Note_on_c, 0, 72, 51
1, 356071, Note_on_c, 0, 51, 41
1, 356077, Control_c, 0, 64, 97
1, 356092, Control_c, 0, 64, 100
1, 356107, Control_c, 0, 64, 102
1, 356119, Note_off_c, 0, 48, 35
1, 356122, Control_c, 0, 64, 106
1, 356137, Control_c, 0, 64, 109
1, 356151, Control_c, 0, 64, 113
1, 356166, Control_c, 0, 64, 116
1, 356181, Control_c, 0, 64, 118
1, 356196, Control_c, 0, 64, 119
1, 356230, Note_off_c, 0, 72, 37
1, 356240, Control_c, 0, 64, 117
1, 356254, Note_on_c, 0, 74, 66
1, 356254, Note_off_c, 0, 51, 46
1, 356255, Control_c, 0, 64, 104
1, 356259, Note_on_c, 0, 55, 50
1, 356262, Note_on_c, 0, 71, 60
1, 356270, Control_c, 0, 64, 88
1, 356285, Note_off_c, 0, 79, 57
1, 356285, Control_c, 0, 64, 69
1, 356299, Control_c, 0, 64, 48
1, 356314, Control_c, 0, 64, 0
1, 356343, Control_c, 0, 64, 34
1, 356358, Control_c, 0, 64, 47
1, 356373, Control_c, 0, 64, 56
1, 356388, Control_c, 0, 64, 62
1, 356403, Control_c, 0, 64, 66
1, 356411, Note_off_c, 0, 71, 55
1, 356417, Control_c, 0, 64, 70
1, 356432, Control_c, 0, 64, 76
1, 356436, Note_off_c, 0, 55, 56
1, 356447, Control_c, 0, 64, 80
1, 356456, Note_on_c, 0, 53, 52
1, 356462, Control_c, 0, 64, 84
1, 356478, Control_c, 0, 64, 87
1, 356493, Control_c, 0, 64, 89
1, 356508, Control_c, 0, 64, 91
1, 356522, Control_c, 0, 64, 93
1, 356537, Control_c, 0, 64, 95
1, 356552, Control_c, 0, 64, 97
1, 356566, Control_c, 0, 64, 98
1, 356581, Control_c, 0, 64, 98
1, 356596, Control_c, 0, 64, 99
1, 356611, Control_c, 0, 64, 100
1, 356626, Control_c, 0, 64, 100
1, 356627, Note_on_c, 0, 51, 51
1, 356648, Control_c, 0, 64, 101
1, 356651, Note_off_c, 0, 53, 37
1, 356693, Control_c, 0, 64, 101
1, 356693, Control_c, 0, 67, 126
1, 356708, Control_c, 0, 67, 125
1, 356722, Control_c, 0, 64, 102
1, 356722, Control_c, 0, 67, 124
1, 356737, Control_c, 0, 67, 123
1, 356752, Control_c, 0, 67, 122
1, 356766, Control_c, 0, 64, 96
1, 356766, Control_c, 0, 67, 120
1, 356781, Control_c, 0, 64, 86
1, 356781, Control_c, 0, 67, 118
1, 356796, Control_c, 0, 64, 72
1, 356796, Control_c, 0, 67, 117
1, 356811, Control_c, 0, 64, 57
1, 356811, Control_c, 0, 67, 115
1, 356813, Note_off_c, 0, 51, 55
1, 356815, Note_on_c, 0, 77, 64
1, 356821, Note_off_c, 0, 74, 62
1, 356826, Control_c, 0, 64, 0
1, 356826, Control_c, 0, 67, 114
1, 356827, Note_on_c, 0, 50, 50
1, 356840, Note_on_c, 0, 71, 37
1, 356841, Control_c, 0, 67, 111
1, 356855, Control_c, 0, 67, 108
1, 356870, Control_c, 0, 64, 23
1, 356870, Control_c, 0, 67, 104
1, 356885, Control_c, 0, 64, 42
1, 356885, Control_c, 0, 67, 99
1, 356900, Control_c, 0, 64, 54
1, 356900, Control_c, 0, 67, 94
1, 356915, Control_c, 0, 64, 61
1, 356915, Control_c, 0, 67, 89
1, 356930, Control_c, 0, 64, 65
1, 356930, Control_c, 0, 67, 83
1, 356945, Control_c, 0, 64, 69
1, 356945, Control_c, 0, 67, 77
1, 356960, Control_c, 0, 64, 75
1, 356960, Control_c, 0, 67, 72
1, 356974, Control_c, 0, 64, 79
1, 356974, Control_c, 0, 67, 68
1, 356977, Note_off_c, 0, 50, 58
1, 356989, Control_c, 0, 64, 83
1, 356989, Control_c, 0, 67, 64
1, 357004, Control_c, 0, 64, 86
1, 357004, Control_c, 0, 67, 62
1, 357007, Note_on_c, 0, 48, 50
1, 357019, Control_c, 0, 64, 89
1, 357019, Control_c, 0, 67, 60
1, 357034, Control_c, 0, 64, 91
1, 357034, Control_c, 0, 67, 58
1, 357048, Control_c, 0, 64, 94
1, 357048, Control_c, 0, 67, 56
1, 357063, Control_c, 0, 64, 95
1, 357063, Control_c, 0, 67, 54
1, 357065, Note_off_c, 0, 71, 39
1, 357078, Control_c, 0, 64, 97
1, 357078, Control_c, 0, 67, 50
1, 357092, Control_c, 0, 64, 99
1, 357092, Control_c, 0, 67, 48
1, 357107, Control_c, 0, 64, 100
1, 357107, Control_c, 0, 67, 46
1, 357122, Control_c, 0, 64, 101
1, 357122, Control_c, 0, 67, 44
1, 357137, Control_c, 0, 64, 103
1, 357137, Control_c, 0, 67, 43
1, 357152, Control_c, 0, 64, 104
1, 357152, Control_c, 0, 67, 42
1, 357166, Control_c, 0, 64, 106
1, 357166, Control_c, 0, 67, 41
1, 357181, Control_c, 0, 64, 107
1, 357181, Control_c, 0, 67, 39
1, 357189, Note_on_c, 0, 50, 54
1, 357196, Control_c, 0, 64, 108
1, 357196, Control_c, 0, 67, 38
1, 357211, Control_c, 0, 64, 109
1, 357211, Control_c, 0, 67, 36
1, 357215, Note_off_c, 0, 48, 30
1, 357226, Control_c, 0, 64, 110
1, 357226, Control_c, 0, 67, 35
1, 357240, Control_c, 0, 64, 110
1, 357255, Control_c, 0, 64, 112
1, 357255, Control_c, 0, 67, 35
1, 357271, Control_c, 0, 64, 113
1, 357286, Control_c, 0, 64, 113
1, 357286, Control_c, 0, 67, 34
1, 357315, Control_c, 0, 64, 112
1, 357330, Note_off_c, 0, 50, 52
1, 357330, Control_c, 0, 64, 100
1, 357345, Control_c, 0, 64, 85
1, 357360, Control_c, 0, 64, 70
1, 357365, Note_on_c, 0, 72, 68
1, 357374, Note_on_c, 0, 69, 57
1, 357375, Control_c, 0, 64, 54
1, 357382, Note_on_c, 0, 53, 49
1, 357397, Note_off_c, 0, 77, 37
1, 357397, Control_c, 0, 64, 31
1, 357412, Control_c, 0, 64, 36
1, 357427, Control_c, 0, 64, 49
1, 357442, Control_c, 0, 64, 55
1, 357457, Control_c, 0, 64, 60
1, 357471, Control_c, 0, 64, 63
1, 357486, Control_c, 0, 64, 67
1, 357501, Control_c, 0, 64, 71
1, 357516, Control_c, 0, 64, 75
1, 357516, Control_c, 0, 67, 36
1, 357530, Control_c, 0, 64, 80
1, 357530, Control_c, 0, 67, 36
1, 357545, Control_c, 0, 64, 82
1, 357545, Control_c, 0, 67, 38
1, 357549, Note_off_c, 0, 53, 57
1, 357560, Control_c, 0, 64, 84
1, 357560, Control_c, 0, 67, 39
1, 357562, Note_on_c, 0, 51, 56
1, 357575, Control_c, 0, 64, 86
1, 357575, Control_c, 0, 67, 40
1, 357590, Control_c, 0, 64, 87
1, 357590, Control_c, 0, 67, 42
1, 357604, Control_c, 0, 64, 89
1, 357604, Control_c, 0, 67, 43
1, 357619, Control_c, 0, 64, 90
1, 357619, Control_c, 0, 67, 44
1, 357634, Control_c, 0, 67, 45
1, 357649, Control_c, 0, 67, 48
1, 357664, Control_c, 0, 67, 52
1, 357678, Control_c, 0, 64, 91
1, 357678, Control_c, 0, 67, 59
1, 357693, Control_c, 0, 67, 66
1, 357697, Note_off_c, 0, 69, 63
1, 357708, Control_c, 0, 67, 75
1, 357722, Note_on_c, 0, 74, 70
1, 357722, Note_off_c, 0, 51, 52
1, 357723, Control_c, 0, 67, 84
1, 357725, Note_on_c, 0, 71, 60
1, 357732, Note_off_c, 0, 72, 58
1, 357735, Note_on_c, 0, 50, 55
1, 357738, Control_c, 0, 67, 93
1, 357753, Control_c, 0, 64, 91
1, 357753, Control_c, 0, 67, 102
1, 357768, Control_c, 0, 67, 108
1, 357782, Control_c, 0, 67, 114
1, 357797, Control_c, 0, 67, 119
1, 357812, Control_c, 0, 67, 122
1, 357827, Control_c, 0, 67, 125
1, 357842, Control_c, 0, 67, 127
1, 357857, Control_c, 0, 67, 127
1, 357871, Control_c, 0, 64, 90
1, 357886, Control_c, 0, 64, 86
1, 357896, Note_off_c, 0, 71, 59
1, 357901, Control_c, 0, 64, 77
1, 357915, Control_c, 0, 64, 67
1, 357921, Note_on_c, 0, 75, 60
1, 357921, Note_off_c, 0, 50, 55
1, 357929, Note_off_c, 0, 74, 56
1, 357930, Control_c, 0, 64, 52
1, 357937, Note_on_c, 0, 67, 48
1, 357942, Note_on_c, 0, 48, 45
1, 357945, Control_c, 0, 64, 0
1, 358065, Control_c, 0, 64, 36
1, 358068, Note_off_c, 0, 48, 59
1, 358080, Control_c, 0, 64, 56
1, 358094, Control_c, 0, 64, 64
1, 358095, Note_off_c, 0, 67, 55
1, 358109, Control_c, 0, 64, 68
1, 358115, Note_on_c, 0, 47, 53
1, 358124, Control_c, 0, 64, 72
1, 358146, Control_c, 0, 64, 76
1, 358161, Control_c, 0, 64, 79
1, 358176, Control_c, 0, 64, 82
1, 358191, Control_c, 0, 64, 85
1, 358206, Control_c, 0, 64, 87
1, 358220, Control_c, 0, 64, 90
1, 358235, Control_c, 0, 64, 93
1, 358250, Control_c, 0, 64, 95
1, 358265, Control_c, 0, 64, 97
1, 358274, Note_off_c, 0, 47, 37
1, 358280, Control_c, 0, 64, 99
1, 358283, Note_on_c, 0, 48, 57
1, 358294, Control_c, 0, 64, 101
1, 358309, Control_c, 0, 64, 102
1, 358324, Control_c, 0, 64, 104
1, 358339, Control_c, 0, 64, 106
1, 358353, Control_c, 0, 64, 108
1, 358368, Control_c, 0, 64, 110
1, 358383, Control_c, 0, 64, 110
1, 358398, Control_c, 0, 64, 110
1, 358413, Control_c, 0, 64, 104
1, 358427, Control_c, 0, 64, 91
1, 358442, Control_c, 0, 64, 75
1, 358457, Control_c, 0, 64, 57
1, 358461, Note_on_c, 0, 69, 62
1, 358464, Note_off_c, 0, 48, 55
1, 358468, Note_on_c, 0, 65, 48
1, 358472, Control_c, 0, 64, 0
1, 358474, Note_on_c, 0, 51, 52
1, 358476, Note_off_c, 0, 75, 50
1, 358501, Control_c, 0, 64, 9
1, 358501, Control_c, 0, 67, 127
1, 358516, Control_c, 0, 64, 43
1, 358516, Control_c, 0, 67, 126
1, 358531, Control_c, 0, 64, 56
1, 358531, Control_c, 0, 67, 125
1, 358546, Control_c, 0, 64, 62
1, 358546, Control_c, 0, 67, 123
1, 358560, Control_c, 0, 64, 67
1, 358560, Control_c, 0, 67, 122
1, 358575, Control_c, 0, 64, 72
1, 358575, Control_c, 0, 67, 121
1, 358590, Control_c, 0, 64, 78
1, 358590, Control_c, 0, 67, 120
1, 358605, Control_c, 0, 64, 84
1, 358605, Control_c, 0, 67, 118
1, 358613, Note_off_c, 0, 51, 57
1, 358620, Control_c, 0, 64, 88
1, 358620, Control_c, 0, 67, 116
1, 358627, Note_off_c, 0, 65, 37
1, 358635, Control_c, 0, 64, 91
1, 358635, Control_c, 0, 67, 112
1, 358635, Note_on_c, 0, 50, 61
1, 358650, Control_c, 0, 64, 94
1, 358650, Control_c, 0, 67, 109
1, 358664, Control_c, 0, 64, 97
1, 358664, Control_c, 0, 67, 105
1, 358679, Control_c, 0, 64, 99
1, 358679, Control_c, 0, 67, 100
1, 358694, Control_c, 0, 64, 102
1, 358694, Control_c, 0, 67, 95
1, 358709, Control_c, 0, 64, 103
1, 358709, Control_c, 0, 67, 89
1, 358724, Control_c, 0, 64, 104
1, 358724, Control_c, 0, 67, 83
1, 358738, Control_c, 0, 64, 105
1, 358738, Control_c, 0, 67, 76
1, 358753, Control_c, 0, 64, 105
1, 358753, Control_c, 0, 67, 72
1, 358768, Control_c, 0, 64, 106
1, 358768, Control_c, 0, 67, 67
1, 358783, Control_c, 0, 67, 63
1, 358798, Control_c, 0, 64, 105
1, 358798, Control_c, 0, 67, 59
1, 358812, Control_c, 0, 64, 99
1, 358812, Control_c, 0, 67, 54
1, 358820, Note_on_c, 0, 74, 71
1, 358823, Note_off_c, 0, 50, 58
1, 358827, Control_c, 0, 64, 88
1, 358827, Control_c, 0, 67, 49
1, 358832, Note_on_c, 0, 65, 56
1, 358834, Note_on_c, 0, 48, 58
1, 358842, Control_c, 0, 64, 75
1, 358842, Control_c, 0, 67, 45
1, 358858, Control_c, 0, 64, 62
1, 358858, Control_c, 0, 67, 42
1, 358873, Control_c, 0, 64, 45
1, 358873, Control_c, 0, 67, 38
1, 358895, Control_c, 0, 64, 35
1, 358895, Control_c, 0, 67, 33
1, 358899, Note_off_c, 0, 69, 56
1, 358910, Control_c, 0, 64, 43
1, 358910, Control_c, 0, 67, 27
1, 358924, Control_c, 0, 64, 54
1, 358924, Control_c, 0, 67, 20
1, 358939, Control_c, 0, 64, 59
1, 358939, Control_c, 0, 67, 15
1, 358954, Control_c, 0, 64, 63
1, 358954, Control_c, 0, 67, 10
1, 358969, Control_c, 0, 64, 66
1, 358969, Control_c, 0, 67, 0
1, 358984, Control_c, 0, 64, 69
1, 358999, Control_c, 0, 64, 74
1, 359014, Control_c, 0, 64, 78
1, 359028, Control_c, 0, 64, 82
1, 359032, Note_on_c, 0, 47, 66
1, 359043, Control_c, 0, 64, 85
1, 359058, Control_c, 0, 64, 87
1, 359073, Note_off_c, 0, 48, 57
1, 359073, Control_c, 0, 64, 90
1, 359088, Control_c, 0, 64, 92
1, 359103, Control_c, 0, 64, 94
1, 359109, Note_off_c, 0, 65, 55
1, 359117, Control_c, 0, 64, 94
1, 359162, Control_c, 0, 64, 95
1, 359191, Control_c, 0, 64, 95
1, 359216, Note_off_c, 0, 47, 64
1, 359236, Note_on_c, 0, 48, 67
1, 359398, Control_c, 0, 64, 95
1, 359413, Control_c, 0, 64, 93
1, 359428, Control_c, 0, 64, 89
1, 359443, Control_c, 0, 64, 83
1, 359446, Note_off_c, 0, 48, 56
1, 359448, Note_on_c, 0, 42, 69
1, 359458, Control_c, 0, 64, 75
1, 359458, Note_on_c, 0, 72, 58
1, 359473, Control_c, 0, 64, 67
1, 359475, Note_on_c, 0, 63, 43
1, 359487, Control_c, 0, 64, 59
1, 359487, Control_c, 0, 67, 9
1, 359502, Control_c, 0, 64, 53
1, 359502, Control_c, 0, 67, 10
1, 359517, Control_c, 0, 64, 51
1, 359517, Control_c, 0, 67, 12
1, 359532, Control_c, 0, 64, 50
1, 359532, Control_c, 0, 67, 14
1, 359547, Control_c, 0, 64, 46
1, 359547, Control_c, 0, 67, 17
1, 359562, Control_c, 0, 64, 40
1, 359562, Control_c, 0, 67, 21
1, 359577, Control_c, 0, 64, 32
1, 359577, Control_c, 0, 67, 27
1, 359592, Control_c, 0, 64, 31
1, 359592, Control_c, 0, 67, 31
1, 359607, Control_c, 0, 64, 31
1, 359607, Control_c, 0, 67, 36
1, 359622, Control_c, 0, 67, 41
1, 359643, Control_c, 0, 67, 46
1, 359658, Control_c, 0, 67, 50
1, 359674, Control_c, 0, 67, 55
1, 359678, Note_off_c, 0, 63, 59
1, 359678, Note_off_c, 0, 74, 37
1, 359689, Control_c, 0, 67, 59
1, 359704, Control_c, 0, 67, 63
1, 359718, Control_c, 0, 64, 28
1, 359718, Control_c, 0, 67, 67
1, 359733, Control_c, 0, 64, 23
1, 359733, Control_c, 0, 67, 71
1, 359748, Control_c, 0, 64, 15
1, 359748, Control_c, 0, 67, 76
1, 359763, Control_c, 0, 64, 0
1, 359763, Control_c, 0, 67, 81
1, 359774, Note_on_c, 0, 71, 60
1, 359778, Note_off_c, 0, 42, 60
1, 359778, Control_c, 0, 67, 86
1, 359786, Note_on_c, 0, 62, 46
1, 359788, Note_on_c, 0, 43, 63
1, 359792, Control_c, 0, 67, 91
1, 359807, Control_c, 0, 67, 96
1, 359808, Note_off_c, 0, 72, 57
1, 359822, Control_c, 0, 67, 100
1, 359837, Control_c, 0, 67, 105
1, 359852, Control_c, 0, 67, 109
1, 359866, Control_c, 0, 67, 114
1, 359881, Control_c, 0, 67, 119
1, 359896, Control_c, 0, 67, 122
1, 359911, Control_c, 0, 67, 124
1, 359926, Control_c, 0, 67, 125
1, 359956, Control_c, 0, 67, 126
1, 359970, Control_c, 0, 67, 126
1, 359982, Note_on_c, 0, 48, 47
1, 359985, Control_c, 0, 67, 127
1, 360008, Note_off_c, 0, 43, 35
1, 360127, Note_off_c, 0, 48, 59
1, 360152, Note_on_c, 0, 45, 55
1, 360163, Note_off_c, 0, 71, 59
1, 360287, Note_off_c, 0, 45, 62
1, 360294, Note_off_c, 0, 62, 43
1, 360326, Note_on_c, 0, 50, 60
1, 360483, Note_off_c, 0, 50, 62
1, 360506, Note_on_c, 0, 47, 54
1, 360679, Note_on_c, 0, 67, 73
1, 360687, Note_off_c, 0, 47, 56
1, 360699, Note_on_c, 0, 51, 49
1, 360865, Note_off_c, 0, 51, 59
1, 360883, Note_on_c, 0, 50, 56
1, 360892, Note_on_c, 0, 59, 47
1, 360937, Note_off_c, 0, 59, 48
1, 360950, Note_off_c, 0, 50, 60
1, 360970, Note_on_c, 0, 48, 56
1, 361041, Note_on_c, 0, 62, 43
1, 361045, Note_off_c, 0, 48, 62
1, 361068, Note_on_c, 0, 47, 59
1, 361074, Control_c, 0, 64, 14
1, 361089, Control_c, 0, 64, 46
1, 361104, Control_c, 0, 64, 58
1, 361104, Control_c, 0, 67, 126
1, 361119, Control_c, 0, 64, 64
1, 361119, Control_c, 0, 67, 123
1, 361141, Control_c, 0, 64, 69
1, 361141, Control_c, 0, 67, 120
1, 361156, Control_c, 0, 64, 75
1, 361156, Control_c, 0, 67, 114
1, 361171, Control_c, 0, 64, 80
1, 361171, Control_c, 0, 67, 105
1, 361186, Control_c, 0, 64, 85
1, 361186, Control_c, 0, 67, 95
1, 361200, Note_off_c, 0, 67, 59
1, 361201, Control_c, 0, 64, 90
1, 361201, Control_c, 0, 67, 85
1, 361208, Note_off_c, 0, 62, 55
1, 361215, Control_c, 0, 64, 94
1, 361215, Control_c, 0, 67, 76
1, 361230, Control_c, 0, 64, 98
1, 361230, Control_c, 0, 67, 67
1, 361245, Control_c, 0, 64, 103
1, 361245, Control_c, 0, 67, 58
1, 361254, Note_on_c, 0, 60, 49
1, 361261, Control_c, 0, 64, 108
1, 361261, Control_c, 0, 67, 51
1, 361276, Control_c, 0, 64, 113
1, 361276, Control_c, 0, 67, 46
1, 361291, Control_c, 0, 64, 120
1, 361291, Control_c, 0, 67, 43
1, 361306, Control_c, 0, 64, 127
1, 361306, Control_c, 0, 67, 41
1, 361320, Control_c, 0, 67, 40
1, 361335, Control_c, 0, 67, 39
1, 361350, Control_c, 0, 67, 38
1, 361364, Control_c, 0, 67, 37
1, 361379, Control_c, 0, 67, 36
1, 361407, Note_off_c, 0, 60, 57
1, 361409, Control_c, 0, 67, 35
1, 361431, Note_on_c, 0, 72, 71
1, 361438, Note_on_c, 0, 63, 58
1, 361455, Note_off_c, 0, 47, 51
1, 361468, Control_c, 0, 67, 36
1, 361483, Control_c, 0, 67, 38
1, 361497, Control_c, 0, 67, 39
1, 361512, Control_c, 0, 67, 41
1, 361527, Control_c, 0, 67, 42
1, 361542, Control_c, 0, 64, 108
1, 361542, Control_c, 0, 67, 44
1, 361556, Control_c, 0, 64, 93
1, 361556, Control_c, 0, 67, 46
1, 361571, Control_c, 0, 64, 77
1, 361571, Control_c, 0, 67, 49
1, 361586, Control_c, 0, 64, 61
1, 361586, Control_c, 0, 67, 52
1, 361589, Note_off_c, 0, 63, 50
1, 361601, Control_c, 0, 64, 0
1, 361601, Control_c, 0, 67, 57
1, 361616, Control_c, 0, 67, 63
1, 361618, Note_on_c, 0, 62, 56
1, 361631, Control_c, 0, 67, 68
1, 361646, Control_c, 0, 67, 73
1, 361661, Control_c, 0, 67, 75
1, 361676, Control_c, 0, 67, 77
1, 361690, Control_c, 0, 67, 77
1, 361735, Control_c, 0, 67, 77
1, 361764, Control_c, 0, 67, 76
1, 361790, Note_on_c, 0, 65, 47
1, 361907, Note_off_c, 0, 62, 34
1, 361980, Note_on_c, 0, 63, 51
1, 361987, Note_on_c, 0, 48, 46
1, 361999, Note_off_c, 0, 65, 38
1, 362009, Control_c, 0, 67, 77
1, 362038, Control_c, 0, 67, 77
1, 362053, Control_c, 0, 67, 78
1, 362056, Note_on_c, 0, 62, 52
1, 362067, Note_off_c, 0, 63, 60
1, 362069, Control_c, 0, 67, 79
1, 362084, Control_c, 0, 67, 81
1, 362099, Control_c, 0, 67, 87
1, 362099, Note_off_c, 0, 62, 61
1, 362113, Control_c, 0, 67, 93
1, 362115, Note_off_c, 0, 48, 46
1, 362128, Control_c, 0, 67, 98
1, 362143, Control_c, 0, 67, 101
1, 362145, Note_on_c, 0, 60, 55
1, 362158, Control_c, 0, 67, 103
1, 362164, Note_on_c, 0, 53, 51
1, 362173, Control_c, 0, 67, 104
1, 362340, Note_on_c, 0, 51, 55
1, 362357, Note_off_c, 0, 60, 37
1, 362373, Note_off_c, 0, 53, 38
1, 362439, Control_c, 0, 67, 104
1, 362454, Control_c, 0, 67, 103
1, 362468, Control_c, 0, 67, 103
1, 362483, Control_c, 0, 67, 102
1, 362498, Control_c, 0, 67, 101
1, 362511, Note_on_c, 0, 69, 76
1, 362511, Note_off_c, 0, 51, 55
1, 362513, Control_c, 0, 67, 100
1, 362519, Note_on_c, 0, 55, 59
1, 362528, Control_c, 0, 67, 99
1, 362543, Control_c, 0, 67, 99
1, 362543, Note_off_c, 0, 72, 55
1, 362558, Control_c, 0, 67, 98
1, 362587, Control_c, 0, 67, 97
1, 362602, Control_c, 0, 67, 96
1, 362617, Control_c, 0, 67, 96
1, 362639, Control_c, 0, 67, 95
1, 362654, Control_c, 0, 67, 93
1, 362668, Control_c, 0, 67, 91
1, 362678, Note_off_c, 0, 55, 60
1, 362683, Control_c, 0, 67, 88
1, 362698, Control_c, 0, 67, 84
1, 362703, Note_on_c, 0, 54, 66
1, 362713, Control_c, 0, 67, 79
1, 362728, Control_c, 0, 67, 73
1, 362743, Control_c, 0, 67, 66
1, 362758, Control_c, 0, 67, 58
1, 362773, Control_c, 0, 67, 51
1, 362787, Control_c, 0, 67, 45
1, 362802, Control_c, 0, 67, 40
1, 362817, Control_c, 0, 67, 36
1, 362832, Control_c, 0, 67, 33
1, 362846, Note_off_c, 0, 54, 61
1, 362846, Control_c, 0, 67, 30
1, 362862, Control_c, 0, 67, 28
1, 362874, Note_on_c, 0, 60, 62
1, 362877, Control_c, 0, 67, 26
1, 362892, Control_c, 0, 67, 24
1, 362907, Control_c, 0, 67, 23
1, 362922, Control_c, 0, 67, 23
1, 362936, Control_c, 0, 67, 22
1, 362951, Control_c, 0, 67, 22
1, 363047, Note_off_c, 0, 60, 62
1, 363059, Note_on_c, 0, 58, 62
1, 363065, Note_on_c, 0, 62, 45
1, 363122, Note_off_c, 0, 58, 60
1, 363133, Note_off_c, 0, 62, 49
1, 363139, Note_on_c, 0, 57, 58
1, 363158, Control_c, 0, 67, 22
1, 363188, Note_off_c, 0, 57, 61
1, 363188, Control_c, 0, 67, 23
1, 363211, Note_on_c, 0, 55, 62
1, 363217, Note_on_c, 0, 67, 64
1, 363292, Control_c, 0, 64, 21
1, 363307, Control_c, 0, 64, 46
1, 363322, Control_c, 0, 64, 60
1, 363322, Control_c, 0, 67, 22
1, 363336, Control_c, 0, 64, 65
1, 363336, Control_c, 0, 67, 21
1, 363351, Control_c, 0, 64, 69
1, 363351, Control_c, 0, 67, 21
1, 363366, Control_c, 0, 64, 74
1, 363366, Control_c, 0, 67, 20
1, 363371, Note_off_c, 0, 67, 61
1, 363375, Note_off_c, 0, 55, 61
1, 363389, Control_c, 0, 64, 78
1, 363389, Control_c, 0, 67, 18
1, 363399, Note_off_c, 0, 69, 63
1, 363404, Note_on_c, 0, 66, 68
1, 363404, Control_c, 0, 64, 82
1, 363404, Control_c, 0, 67, 15
1, 363418, Control_c, 0, 64, 85
1, 363418, Control_c, 0, 67, 12
1, 363433, Control_c, 0, 64, 88
1, 363433, Control_c, 0, 67, 12
1, 363448, Control_c, 0, 64, 92
1, 363462, Control_c, 0, 64, 95
1, 363477, Control_c, 0, 64, 99
1, 363492, Control_c, 0, 64, 100
1, 363589, Note_on_c, 0, 74, 76
1, 363596, Control_c, 0, 64, 98
1, 363601, Note_on_c, 0, 69, 56
1, 363604, Note_on_c, 0, 54, 58
1, 363610, Control_c, 0, 64, 93
1, 363619, Note_off_c, 0, 66, 29
1, 363625, Control_c, 0, 64, 86
1, 363640, Control_c, 0, 64, 79
1, 363656, Control_c, 0, 64, 73
1, 363656, Control_c, 0, 67, 12
1, 363671, Control_c, 0, 64, 66
1, 363671, Control_c, 0, 67, 13
1, 363686, Control_c, 0, 64, 58
1, 363701, Control_c, 0, 64, 36
1, 363701, Control_c, 0, 67, 14
1, 363715, Control_c, 0, 64, 0
1, 363730, Control_c, 0, 67, 14
1, 363741, Note_off_c, 0, 69, 63
1, 363745, Control_c, 0, 67, 15
1, 363777, Note_on_c, 0, 67, 63
1, 363783, Note_on_c, 0, 58, 51
1, 363789, Control_c, 0, 67, 15
1, 363819, Control_c, 0, 67, 16
1, 363834, Control_c, 0, 67, 16
1, 363841, Note_off_c, 0, 54, 35
1, 363923, Note_off_c, 0, 67, 55
1, 363928, Note_off_c, 0, 58, 58
1, 363949, Note_on_c, 0, 72, 60
1, 363955, Note_on_c, 0, 57, 52
1, 364123, Note_on_c, 0, 70, 63
1, 364123, Note_off_c, 0, 57, 52
1, 364138, Note_on_c, 0, 55, 51
1, 364215, Note_off_c, 0, 72, 32
1, 364222, Note_on_c, 0, 69, 60
1, 364231, Note_off_c, 0, 70, 54
1, 364279, Note_off_c, 0, 69, 65
1, 364287, Note_off_c, 0, 55, 56
1, 364294, Note_on_c, 0, 67, 63
1, 364308, Note_on_c, 0, 60, 56
1, 364456, Note_off_c, 0, 67, 54
1, 364478, Note_off_c, 0, 60, 56
1, 364480, Note_on_c, 0, 57, 72
1, 364629, Note_off_c, 0, 57, 64
1, 364656, Note_off_c, 0, 74, 64
1, 364658, Note_on_c, 0, 70, 82
1, 364663, Note_on_c, 0, 62, 69
1, 364819, Control_c, 0, 64, 31
1, 364819, Control_c, 0, 67, 16
1, 364832, Note_off_c, 0, 62, 53
1, 364834, Control_c, 0, 64, 48
1, 364834, Control_c, 0, 67, 15
1, 364838, Note_on_c, 0, 58, 63
1, 364849, Control_c, 0, 64, 55
1, 364849, Control_c, 0, 67, 15
1, 364863, Control_c, 0, 64, 59
1, 364863, Control_c, 0, 67, 14
1, 364886, Control_c, 0, 64, 62
1, 364886, Control_c, 0, 67, 14
1, 364901, Control_c, 0, 64, 64
1, 364915, Control_c, 0, 64, 66
1, 364915, Control_c, 0, 67, 13
1, 364930, Control_c, 0, 64, 68
1, 364930, Control_c, 0, 67, 13
1, 364945, Control_c, 0, 64, 72
1, 364945, Control_c, 0, 67, 12
1, 364960, Control_c, 0, 64, 74
1, 364960, Control_c, 0, 67, 12
1, 364975, Control_c, 0, 64, 77
1, 364989, Control_c, 0, 64, 80
1, 365004, Note_on_c, 0, 63, 70
1, 365004, Control_c, 0, 64, 84
1, 365004, Control_c, 0, 67, 11
1, 365011, Note_off_c, 0, 58, 37
1, 365019, Control_c, 0, 64, 88
1, 365019, Control_c, 0, 67, 11
1, 365034, Control_c, 0, 64, 93
1, 365034, Control_c, 0, 67, 10
1, 365038, Note_off_c, 0, 63, 63
1, 365049, Control_c, 0, 64, 96
1, 365049, Control_c, 0, 67, 0
1, 365063, Control_c, 0, 64, 99
1, 365078, Control_c, 0, 64, 102
1, 365093, Control_c, 0, 64, 105
1, 365107, Control_c, 0, 64, 110
1, 365122, Control_c, 0, 64, 117
1, 365137, Control_c, 0, 64, 121
1, 365180, Note_on_c, 0, 62, 72
1, 365196, Control_c, 0, 64, 120
1, 365211, Control_c, 0, 64, 115
1, 365226, Note_off_c, 0, 62, 50
1, 365226, Control_c, 0, 64, 103
1, 365241, Control_c, 0, 64, 91
1, 365257, Control_c, 0, 64, 77
1, 365258, Note_on_c, 0, 60, 70
1, 365272, Control_c, 0, 64, 63
1, 365286, Control_c, 0, 64, 0
1, 365317, Note_off_c, 0, 60, 61
1, 365337, Note_on_c, 0, 58, 67
1, 365347, Note_on_c, 0, 62, 59
1, 365375, Control_c, 0, 67, 8
1, 365387, Note_off_c, 0, 62, 59
1, 365390, Control_c, 0, 67, 9
1, 365405, Control_c, 0, 67, 9
1, 365509, Control_c, 0, 64, 39
1, 365523, Control_c, 0, 64, 52
1, 365532, Note_on_c, 0, 67, 65
1, 365538, Control_c, 0, 64, 59
1, 365553, Control_c, 0, 64, 62
1, 365553, Control_c, 0, 67, 9
1, 365568, Control_c, 0, 64, 65
1, 365583, Control_c, 0, 64, 68
1, 365583, Control_c, 0, 67, 8
1, 365597, Control_c, 0, 64, 74
1, 365612, Control_c, 0, 64, 80
1, 365634, Control_c, 0, 64, 84
1, 365634, Control_c, 0, 67, 8
1, 365649, Control_c, 0, 64, 87
1, 365649, Control_c, 0, 67, 0
1, 365652, Note_off_c, 0, 70, 58
1, 365664, Control_c, 0, 64, 90
1, 365679, Control_c, 0, 64, 93
1, 365694, Control_c, 0, 64, 97
1, 365702, Note_off_c, 0, 67, 37
1, 365709, Control_c, 0, 64, 104
1, 365717, Note_on_c, 0, 75, 79
1, 365724, Control_c, 0, 64, 110
1, 365731, Note_off_c, 0, 58, 54
1, 365738, Control_c, 0, 64, 118
1, 365753, Control_c, 0, 64, 127
1, 365792, Note_on_c, 0, 65, 74
1, 365825, Note_off_c, 0, 65, 59
1, 365884, Note_on_c, 0, 63, 83
1, 365891, Note_on_c, 0, 55, 71
1, 365944, Note_off_c, 0, 63, 61
1, 365954, Note_off_c, 0, 55, 51
1, 366049, Control_c, 0, 64, 97
1, 366065, Control_c, 0, 64, 75
1, 366073, Note_on_c, 0, 60, 82
1, 366080, Control_c, 0, 64, 47
1, 366095, Control_c, 0, 64, 0
1, 366139, Control_c, 0, 64, 38
1, 366153, Control_c, 0, 64, 54
1, 366168, Control_c, 0, 64, 61
1, 366183, Control_c, 0, 64, 65
1, 366198, Control_c, 0, 64, 69
1, 366213, Control_c, 0, 64, 74
1, 366227, Control_c, 0, 64, 78
1, 366243, Control_c, 0, 64, 82
1, 366258, Control_c, 0, 64, 85
1, 366272, Control_c, 0, 64, 86
1, 366302, Control_c, 0, 64, 86
1, 366313, Note_off_c, 0, 60, 58
1, 366317, Control_c, 0, 64, 86
1, 366320, Note_on_c, 0, 58, 67
1, 366347, Control_c, 0, 64, 84
1, 366362, Control_c, 0, 64, 79
1, 366367, Note_off_c, 0, 58, 57
1, 366384, Control_c, 0, 64, 71
1, 366399, Control_c, 0, 64, 61
1, 366414, Control_c, 0, 64, 38
1, 366419, Note_on_c, 0, 57, 61
1, 366424, Note_on_c, 0, 66, 50
1, 366428, Control_c, 0, 64, 0
1, 366565, Note_off_c, 0, 75, 55
1, 366594, Note_on_c, 0, 72, 54
1, 366660, Note_on_c, 0, 55, 55
1, 366685, Note_off_c, 0, 57, 51
1, 366756, Note_on_c, 0, 74, 71
1, 366756, Note_off_c, 0, 55, 62
1, 366758, Note_off_c, 0, 66, 61
1, 366768, Note_on_c, 0, 54, 60
1, 366775, Note_off_c, 0, 72, 50
1, 366851, Note_on_c, 0, 70, 59
1, 366931, Note_off_c, 0, 70, 59
1, 366937, Note_on_c, 0, 69, 60
1, 366939, Note_on_c, 0, 60, 55
1, 367020, Note_off_c, 0, 54, 25
1, 367037, Control_c, 0, 64, 26
1, 367051, Control_c, 0, 64, 40
1, 367066, Control_c, 0, 64, 51
1, 367081, Control_c, 0, 64, 57
1, 367088, Note_off_c, 0, 60, 61
1, 367095, Control_c, 0, 64, 60
1, 367109, Note_on_c, 0, 57, 66
1, 367110, Note_off_c, 0, 69, 59
1, 367110, Control_c, 0, 64, 61
1, 367122, Note_on_c, 0, 72, 68
1, 367133, Control_c, 0, 64, 63
1, 367148, Control_c, 0, 64, 64
1, 367163, Control_c, 0, 64, 65
1, 367177, Control_c, 0, 64, 67
1, 367192, Control_c, 0, 64, 68
1, 367207, Control_c, 0, 64, 69
1, 367222, Control_c, 0, 64, 68
1, 367237, Control_c, 0, 64, 65
1, 367251, Control_c, 0, 64, 58
1, 367262, Note_off_c, 0, 57, 63
1, 367266, Control_c, 0, 64, 43
1, 367281, Control_c, 0, 64, 9
1, 367286, Note_on_c, 0, 62, 69
1, 367287, Note_on_c, 0, 71, 66
1, 367296, Control_c, 0, 64, 0
1, 367310, Control_c, 0, 64, 13
1, 367325, Control_c, 0, 64, 32
1, 367340, Control_c, 0, 64, 42
1, 367355, Control_c, 0, 64, 51
1, 367363, Note_on_c, 0, 69, 72
1, 367370, Control_c, 0, 64, 57
1, 367384, Control_c, 0, 64, 61
1, 367399, Control_c, 0, 64, 63
1, 367414, Control_c, 0, 64, 66
1, 367429, Control_c, 0, 64, 68
1, 367444, Control_c, 0, 64, 72
1, 367456, Note_on_c, 0, 59, 80
1, 367457, Note_off_c, 0, 62, 60
1, 367458, Note_on_c, 0, 67, 70
1, 367458, Control_c, 0, 64, 76
1, 367473, Control_c, 0, 64, 80
1, 367488, Control_c, 0, 64, 82
1, 367503, Control_c, 0, 64, 83
1, 367509, Note_off_c, 0, 59, 64
1, 367518, Control_c, 0, 64, 84
1, 367533, Control_c, 0, 64, 86
1, 367548, Control_c, 0, 64, 88
1, 367559, Note_off_c, 0, 67, 53
1, 367563, Control_c, 0, 64, 91
1, 367577, Control_c, 0, 64, 92
1, 367592, Control_c, 0, 64, 93
1, 367647, Note_off_c, 0, 71, 14
1, 367671, Note_off_c, 0, 69, 56
1, 367686, Note_on_c, 0, 65, 86
1, 367688, Note_off_c, 0, 72, 60
1, 367693, Note_on_c, 0, 67, 68
1, 367697, Control_c, 0, 64, 93
1, 367699, Note_off_c, 0, 74, 62
1, 367739, Control_c, 0, 64, 93
1, 367769, Control_c, 0, 64, 89
1, 367784, Control_c, 0, 64, 80
1, 367784, Control_c, 0, 67, 8
1, 367798, Control_c, 0, 64, 70
1, 367813, Control_c, 0, 64, 58
1, 367828, Control_c, 0, 64, 24
1, 367843, Control_c, 0, 64, 0
1, 367880, Control_c, 0, 64, 23
1, 367895, Control_c, 0, 64, 39
1, 367906, Note_on_c, 0, 72, 75
1, 367908, Note_on_c, 0, 63, 71
1, 367909, Note_off_c, 0, 65, 56
1, 367910, Control_c, 0, 64, 49
1, 367910, Control_c, 0, 67, 0
1, 367913, Note_off_c, 0, 67, 61
1, 367925, Control_c, 0, 64, 56
1, 367939, Control_c, 0, 64, 61
1, 367954, Control_c, 0, 64, 64
1, 367969, Control_c, 0, 64, 66
1, 367984, Control_c, 0, 64, 68
1, 367994, Note_on_c, 0, 62, 72
1, 367998, Control_c, 0, 64, 69
1, 368004, Note_off_c, 0, 63, 62
1, 368013, Control_c, 0, 64, 71
1, 368023, Note_off_c, 0, 62, 68
1, 368028, Control_c, 0, 64, 73
1, 368043, Control_c, 0, 64, 74
1, 368058, Control_c, 0, 64, 75
1, 368073, Note_on_c, 0, 60, 79
1, 368117, Control_c, 0, 64, 75
1, 368168, Note_on_c, 0, 65, 64
1, 368192, Control_c, 0, 64, 76
1, 368206, Control_c, 0, 64, 77
1, 368221, Control_c, 0, 64, 80
1, 368236, Control_c, 0, 64, 82
1, 368243, Note_on_c, 0, 63, 69
1, 368246, Note_off_c, 0, 65, 61
1, 368250, Control_c, 0, 64, 84
1, 368265, Control_c, 0, 64, 86
1, 368295, Control_c, 0, 67, 8
1, 368306, Note_off_c, 0, 60, 56
1, 368310, Control_c, 0, 64, 84
1, 368310, Control_c, 0, 67, 10
1, 368324, Control_c, 0, 64, 75
1, 368324, Control_c, 0, 67, 11
1, 368329, Note_on_c, 0, 58, 71
1, 368339, Control_c, 0, 64, 61
1, 368339, Control_c, 0, 67, 13
1, 368354, Control_c, 0, 64, 0
1, 368354, Control_c, 0, 67, 15
1, 368369, Control_c, 0, 67, 20
1, 368384, Control_c, 0, 67, 27
1, 368398, Control_c, 0, 67, 36
1, 368413, Control_c, 0, 64, 23
1, 368413, Control_c, 0, 67, 43
1, 368418, Note_on_c, 0, 56, 71
1, 368428, Control_c, 0, 64, 48
1, 368428, Control_c, 0, 67, 50
1, 368442, Note_off_c, 0, 58, 61
1, 368443, Control_c, 0, 64, 58
1, 368443, Control_c, 0, 67, 55
1, 368459, Control_c, 0, 64, 65
1, 368459, Control_c, 0, 67, 57
1, 368465, Note_off_c, 0, 63, 62
1, 368473, Control_c, 0, 64, 71
1, 368473, Control_c, 0, 67, 58
1, 368488, Control_c, 0, 64, 80
1, 368488, Control_c, 0, 67, 58
1, 368492, Note_on_c, 0, 62, 57
1, 368503, Control_c, 0, 64, 88
1, 368518, Control_c, 0, 64, 95
1, 368519, Note_off_c, 0, 56, 60
1, 368533, Control_c, 0, 64, 98
1, 368533, Control_c, 0, 67, 59
1, 368547, Control_c, 0, 64, 97
1, 368547, Control_c, 0, 67, 62
1, 368560, Note_on_c, 0, 60, 72
1, 368562, Control_c, 0, 64, 88
1, 368562, Control_c, 0, 67, 69
1, 368563, Note_off_c, 0, 62, 55
1, 368577, Control_c, 0, 64, 74
1, 368577, Control_c, 0, 67, 76
1, 368592, Control_c, 0, 64, 60
1, 368592, Control_c, 0, 67, 81
1, 368607, Control_c, 0, 64, 47
1, 368607, Control_c, 0, 67, 86
1, 368629, Control_c, 0, 64, 56
1, 368629, Control_c, 0, 67, 90
1, 368644, Control_c, 0, 64, 63
1, 368644, Control_c, 0, 67, 95
1, 368645, Note_off_c, 0, 60, 59
1, 368656, Note_on_c, 0, 55, 63
1, 368659, Control_c, 0, 64, 68
1, 368659, Control_c, 0, 67, 100
1, 368674, Control_c, 0, 64, 74
1, 368674, Control_c, 0, 67, 105
1, 368688, Control_c, 0, 64, 81
1, 368688, Control_c, 0, 67, 111
1, 368703, Control_c, 0, 64, 86
1, 368703, Control_c, 0, 67, 117
1, 368707, Note_off_c, 0, 72, 54
1, 368718, Control_c, 0, 64, 88
1, 368718, Control_c, 0, 67, 124
1, 368729, Note_off_c, 0, 55, 59
1, 368733, Control_c, 0, 64, 89
1, 368733, Control_c, 0, 67, 127
1, 368748, Control_c, 0, 64, 90
1, 368750, Note_on_c, 0, 53, 62
1, 368751, Note_on_c, 0, 71, 62
1, 368762, Note_on_c, 0, 62, 55
1, 368762, Control_c, 0, 64, 91
1, 368777, Control_c, 0, 64, 93
1, 368791, Note_off_c, 0, 62, 56
1, 368792, Control_c, 0, 64, 93
1, 368807, Control_c, 0, 64, 94
1, 368822, Control_c, 0, 64, 95
1, 368836, Control_c, 0, 64, 96
1, 368837, Note_on_c, 0, 55, 68
1, 368847, Note_off_c, 0, 53, 61
1, 368851, Control_c, 0, 64, 97
1, 368866, Control_c, 0, 64, 98
1, 368868, Note_off_c, 0, 55, 62
1, 368880, Control_c, 0, 64, 100
1, 368895, Control_c, 0, 64, 103
1, 368910, Control_c, 0, 64, 106
1, 368925, Control_c, 0, 64, 106
1, 368940, Control_c, 0, 64, 105
1, 368955, Control_c, 0, 64, 95
1, 368970, Control_c, 0, 64, 79
1, 368985, Control_c, 0, 64, 61
1, 369000, Control_c, 0, 64, 0
1, 369014, Note_off_c, 0, 71, 62
1, 369033, Note_on_c, 0, 48, 66
1, 369035, Note_on_c, 0, 36, 63
1, 369035, Note_on_c, 0, 72, 60
1, 369044, Control_c, 0, 64, 35
1, 369045, Note_on_c, 0, 63, 53
1, 369059, Control_c, 0, 64, 54
1, 369073, Control_c, 0, 64, 63
1, 369085, Note_off_c, 0, 63, 65
1, 369088, Control_c, 0, 64, 69
1, 369091, Note_off_c, 0, 72, 61
1, 369103, Control_c, 0, 64, 75
1, 369118, Control_c, 0, 64, 84
1, 369133, Control_c, 0, 64, 91
1, 369147, Control_c, 0, 64, 97
1, 369162, Control_c, 0, 64, 102
1, 369177, Control_c, 0, 64, 106
1, 369192, Control_c, 0, 64, 112
1, 369207, Control_c, 0, 64, 127
1, 369227, Note_on_c, 0, 68, 65
1, 369232, Note_on_c, 0, 77, 63
1, 369297, Control_c, 0, 64, 112
1, 369310, Note_off_c, 0, 68, 60
1, 369312, Control_c, 0, 64, 83
1, 369327, Control_c, 0, 64, 67
1, 369342, Control_c, 0, 64, 60
1, 369357, Control_c, 0, 64, 63
1, 369374, Note_off_c, 0, 77, 39
1, 369378, Control_c, 0, 64, 67
1, 369393, Control_c, 0, 64, 71
1, 369405, Note_on_c, 0, 74, 65
1, 369408, Control_c, 0, 64, 77
1, 369411, Note_on_c, 0, 65, 66
1, 369423, Control_c, 0, 64, 84
1, 369438, Control_c, 0, 64, 92
1, 369441, Note_off_c, 0, 65, 66
1, 369453, Control_c, 0, 64, 100
1, 369458, Note_off_c, 0, 74, 62
1, 369468, Control_c, 0, 64, 111
1, 369483, Control_c, 0, 64, 127
1, 369572, Note_on_c, 0, 79, 76
1, 369580, Note_on_c, 0, 70, 73
1, 369601, Control_c, 0, 64, 97
1, 369616, Control_c, 0, 64, 77
1, 369631, Control_c, 0, 64, 62
1, 369646, Control_c, 0, 64, 54
1, 369649, Note_off_c, 0, 70, 59
1, 369660, Control_c, 0, 64, 59
1, 369675, Control_c, 0, 64, 63
1, 369675, Control_c, 0, 67, 127
1, 369690, Control_c, 0, 64, 67
1, 369690, Control_c, 0, 67, 125
1, 369701, Note_off_c, 0, 79, 45
1, 369704, Control_c, 0, 64, 71
1, 369704, Control_c, 0, 67, 123
1, 369719, Control_c, 0, 64, 77
1, 369719, Control_c, 0, 67, 122
1, 369734, Control_c, 0, 64, 84
1, 369734, Control_c, 0, 67, 120
1, 369739, Note_on_c, 0, 76, 74
1, 369744, Note_on_c, 0, 67, 76
1, 369749, Control_c, 0, 64, 92
1, 369749, Control_c, 0, 67, 119
1, 369764, Control_c, 0, 64, 99
1, 369764, Control_c, 0, 67, 118
1, 369769, Note_off_c, 0, 67, 68
1, 369778, Control_c, 0, 64, 106
1, 369778, Control_c, 0, 67, 117
1, 369793, Control_c, 0, 64, 115
1, 369793, Control_c, 0, 67, 115
1, 369802, Note_off_c, 0, 76, 62
1, 369808, Control_c, 0, 64, 127
1, 369808, Control_c, 0, 67, 112
1, 369822, Control_c, 0, 67, 108
1, 369837, Control_c, 0, 67, 101
1, 369852, Control_c, 0, 67, 95
1, 369867, Control_c, 0, 67, 87
1, 369882, Control_c, 0, 67, 79
1, 369897, Control_c, 0, 67, 72
1, 369912, Control_c, 0, 67, 66
1, 369912, Note_on_c, 0, 80, 84
1, 369917, Note_off_c, 0, 36, 59
1, 369918, Note_on_c, 0, 72, 76
1, 369927, Control_c, 0, 67, 59
1, 369927, Note_off_c, 0, 48, 63
1, 369942, Control_c, 0, 67, 52
1, 369956, Control_c, 0, 67, 46
1, 369971, Control_c, 0, 67, 43
1, 369986, Control_c, 0, 67, 42
1, 370004, Note_off_c, 0, 72, 55
1, 370046, Control_c, 0, 67, 43
1, 370061, Control_c, 0, 67, 44
1, 370076, Control_c, 0, 67, 45
1, 370079, Note_on_c, 0, 53, 80
1, 370086, Note_on_c, 0, 41, 69
1, 370091, Control_c, 0, 67, 46
1, 370106, Control_c, 0, 67, 47
1, 370127, Control_c, 0, 67, 48
1, 370142, Control_c, 0, 67, 50
1, 370157, Control_c, 0, 67, 51
1, 370167, Note_on_c, 0, 70, 65
1, 370172, Control_c, 0, 67, 54
1, 370177, Note_on_c, 0, 79, 65
1, 370187, Control_c, 0, 67, 59
1, 370195, Note_off_c, 0, 70, 65
1, 370201, Control_c, 0, 67, 67
1, 370216, Control_c, 0, 67, 77
1, 370228, Note_off_c, 0, 80, 59
1, 370231, Control_c, 0, 67, 90
1, 370246, Control_c, 0, 67, 102
1, 370252, Note_on_c, 0, 77, 72
1, 370261, Note_off_c, 0, 79, 36
1, 370261, Control_c, 0, 67, 110
1, 370264, Note_on_c, 0, 68, 73
1, 370275, Control_c, 0, 67, 118
1, 370281, Note_off_c, 0, 77, 64
1, 370290, Control_c, 0, 67, 124
1, 370298, Note_off_c, 0, 68, 58
1, 370305, Control_c, 0, 67, 126
1, 370320, Control_c, 0, 67, 127
1, 370380, Control_c, 0, 64, 113
1, 370380, Control_c, 0, 67, 126
1, 370395, Control_c, 0, 64, 101
1, 370395, Control_c, 0, 67, 125
1, 370409, Control_c, 0, 64, 89
1, 370409, Control_c, 0, 67, 125
1, 370424, Control_c, 0, 64, 75
1, 370424, Control_c, 0, 67, 124
1, 370439, Control_c, 0, 64, 60
1, 370439, Control_c, 0, 67, 123
1, 370445, Note_on_c, 0, 72, 67
1, 370449, Note_on_c, 0, 68, 61
1, 370453, Control_c, 0, 64, 0
1, 370453, Control_c, 0, 67, 122
1, 370468, Control_c, 0, 67, 121
1, 370483, Control_c, 0, 67, 120
1, 370498, Control_c, 0, 67, 119
1, 370513, Control_c, 0, 64, 29
1, 370513, Control_c, 0, 67, 117
1, 370527, Control_c, 0, 64, 50
1, 370527, Control_c, 0, 67, 116
1, 370542, Control_c, 0, 64, 63
1, 370542, Control_c, 0, 67, 114
1, 370557, Control_c, 0, 64, 69
1, 370557, Control_c, 0, 67, 113
1, 370572, Control_c, 0, 64, 76
1, 370572, Control_c, 0, 67, 110
1, 370587, Control_c, 0, 64, 85
1, 370587, Control_c, 0, 67, 106
1, 370601, Control_c, 0, 64, 94
1, 370601, Control_c, 0, 67, 101
1, 370616, Control_c, 0, 64, 102
1, 370616, Control_c, 0, 67, 92
1, 370631, Control_c, 0, 64, 110
1, 370631, Control_c, 0, 67, 81
1, 370645, Control_c, 0, 64, 123
1, 370645, Control_c, 0, 67, 67
1, 370653, Note_off_c, 0, 68, 39
1, 370660, Control_c, 0, 64, 127
1, 370660, Control_c, 0, 67, 56
1, 370675, Control_c, 0, 67, 44
1, 370690, Control_c, 0, 67, 33
1, 370705, Control_c, 0, 67, 22
1, 370720, Control_c, 0, 67, 9
1, 370735, Control_c, 0, 67, 0
1, 370761, Note_on_c, 0, 68, 75
1, 370767, Note_on_c, 0, 65, 71
1, 370786, Note_off_c, 0, 72, 29
1, 370797, Note_off_c, 0, 65, 64
1, 370827, Note_off_c, 0, 68, 62
1, 370851, Note_off_c, 0, 53, 51
1, 370940, Note_off_c, 0, 41, 31
1, 370946, Note_on_c, 0, 72, 72
1, 370946, Note_on_c, 0, 69, 76
1, 371072, Note_off_c, 0, 69, 57
1, 371123, Note_on_c, 0, 50, 90
1, 371128, Control_c, 0, 64, 99
1, 371131, Note_on_c, 0, 38, 83
1, 371143, Control_c, 0, 64, 74
1, 371158, Control_c, 0, 64, 49
1, 371173, Control_c, 0, 64, 0
1, 371187, Note_on_c, 0, 67, 71
1, 371195, Note_on_c, 0, 70, 63
1, 371217, Control_c, 0, 64, 28
1, 371232, Control_c, 0, 64, 52
1, 371247, Control_c, 0, 64, 64
1, 371261, Note_off_c, 0, 72, 51
1, 371262, Control_c, 0, 64, 72
1, 371273, Note_on_c, 0, 69, 72
1, 371275, Note_on_c, 0, 66, 74
1, 371276, Control_c, 0, 64, 84
1, 371281, Note_off_c, 0, 67, 56
1, 371291, Control_c, 0, 64, 101
1, 371304, Note_off_c, 0, 66, 65
1, 371306, Control_c, 0, 64, 127
1, 371316, Note_off_c, 0, 69, 64
1, 371317, Note_off_c, 0, 70, 50
1, 371460, Note_on_c, 0, 72, 84
1, 371464, Note_on_c, 0, 81, 79
1, 371468, Control_c, 0, 64, 100
1, 371483, Control_c, 0, 64, 74
1, 371498, Control_c, 0, 64, 44
1, 371513, Control_c, 0, 64, 23
1, 371527, Control_c, 0, 64, 44
1, 371542, Control_c, 0, 64, 57
1, 371557, Control_c, 0, 64, 63
1, 371572, Control_c, 0, 64, 68
1, 371587, Control_c, 0, 64, 76
1, 371601, Control_c, 0, 64, 86
1, 371623, Control_c, 0, 64, 96
1, 371638, Control_c, 0, 64, 107
1, 371654, Control_c, 0, 64, 116
1, 371669, Control_c, 0, 64, 127
1, 371682, Note_off_c, 0, 72, 59
1, 371724, Note_off_c, 0, 81, 56
1, 371790, Note_on_c, 0, 69, 83
1, 371790, Note_on_c, 0, 78, 77
1, 371823, Note_off_c, 0, 69, 59
1, 371870, Note_off_c, 0, 78, 62
1, 371952, Note_off_c, 0, 38, 58
1, 371969, Note_off_c, 0, 50, 64
1, 371991, Note_on_c, 0, 82, 90
1, 371998, Note_on_c, 0, 74, 76
1, 372138, Note_off_c, 0, 74, 55
1, 372143, Control_c, 0, 64, 115
1, 372158, Control_c, 0, 64, 79
1, 372172, Control_c, 0, 64, 59
1, 372175, Note_on_c, 0, 55, 82
1, 372185, Note_on_c, 0, 43, 76
1, 372187, Control_c, 0, 64, 38
1, 372202, Control_c, 0, 64, 49
1, 372203, Note_off_c, 0, 82, 50
1, 372216, Control_c, 0, 64, 60
1, 372232, Control_c, 0, 64, 65
1, 372243, Note_on_c, 0, 72, 66
1, 372245, Note_on_c, 0, 82, 42
1, 372247, Control_c, 0, 64, 71
1, 372253, Note_on_c, 0, 81, 64
1, 372260, Note_off_c, 0, 72, 66
1, 372262, Control_c, 0, 64, 82
1, 372277, Control_c, 0, 64, 95
1, 372291, Control_c, 0, 64, 116
1, 372294, Note_off_c, 0, 82, 47
1, 372306, Control_c, 0, 64, 127
1, 372318, Note_on_c, 0, 79, 71
1, 372322, Note_on_c, 0, 70, 81
1, 372338, Note_off_c, 0, 81, 64
1, 372343, Note_off_c, 0, 79, 68
1, 372373, Note_off_c, 0, 70, 62
1, 372516, Note_on_c, 0, 62, 76
1, 372522, Control_c, 0, 64, 94
1, 372537, Control_c, 0, 64, 70
1, 372552, Control_c, 0, 64, 0
1, 372611, Control_c, 0, 64, 15
1, 372626, Control_c, 0, 64, 47
1, 372641, Control_c, 0, 64, 63
1, 372655, Control_c, 0, 64, 71
1, 372670, Control_c, 0, 64, 82
1, 372685, Control_c, 0, 64, 94
1, 372700, Control_c, 0, 64, 106
1, 372715, Control_c, 0, 64, 120
1, 372729, Control_c, 0, 64, 127
1, 372839, Note_on_c, 0, 59, 81
1, 372863, Note_off_c, 0, 55, 53
1, 372866, Note_off_c, 0, 62, 52
1, 372869, Note_off_c, 0, 43, 32
1, 372914, Note_off_c, 0, 59, 58
1, 373021, Note_on_c, 0, 67, 80
1, 373229, Note_on_c, 0, 51, 83
1, 373232, Note_on_c, 0, 39, 75
1, 373241, Control_c, 0, 64, 109
1, 373256, Control_c, 0, 64, 82
1, 373271, Control_c, 0, 64, 63
1, 373286, Control_c, 0, 64, 29
1, 373299, Note_off_c, 0, 67, 58
1, 373301, Control_c, 0, 64, 35
1, 373306, Note_on_c, 0, 65, 69
1, 373316, Control_c, 0, 64, 57
1, 373331, Control_c, 0, 64, 65
1, 373345, Control_c, 0, 64, 71
1, 373360, Control_c, 0, 64, 80
1, 373361, Note_off_c, 0, 65, 63
1, 373375, Control_c, 0, 64, 91
1, 373387, Note_on_c, 0, 63, 77
1, 373390, Control_c, 0, 64, 104
1, 373405, Control_c, 0, 64, 127
1, 373487, Note_off_c, 0, 63, 49
1, 373574, Note_on_c, 0, 70, 85
1, 373579, Note_on_c, 0, 67, 79
1, 373582, Control_c, 0, 64, 98
1, 373597, Control_c, 0, 64, 69
1, 373612, Control_c, 0, 64, 34
1, 373626, Control_c, 0, 64, 0
1, 373656, Control_c, 0, 64, 40
1, 373671, Control_c, 0, 64, 57
1, 373686, Control_c, 0, 64, 65
1, 373701, Control_c, 0, 64, 72
1, 373715, Control_c, 0, 64, 81
1, 373722, Note_off_c, 0, 67, 54
1, 373730, Control_c, 0, 64, 93
1, 373745, Control_c, 0, 64, 106
1, 373760, Control_c, 0, 64, 127
1, 373924, Note_on_c, 0, 67, 75
1, 373930, Note_on_c, 0, 63, 68
1, 373960, Note_off_c, 0, 63, 67
1, 373974, Note_off_c, 0, 67, 60
1, 373999, Note_off_c, 0, 70, 62
1, 374106, Note_on_c, 0, 75, 81
1, 374109, Note_off_c, 0, 39, 58
1, 374111, Note_on_c, 0, 72, 78
1, 374118, Note_off_c, 0, 51, 62
1, 374300, Note_off_c, 0, 72, 58
1, 374310, Note_on_c, 0, 56, 91
1, 374314, Note_on_c, 0, 44, 81
1, 374346, Control_c, 0, 64, 109
1, 374361, Control_c, 0, 64, 80
1, 374375, Control_c, 0, 64, 61
1, 374377, Note_on_c, 0, 70, 58
1, 374380, Note_on_c, 0, 73, 63
1, 374390, Control_c, 0, 64, 34
1, 374405, Control_c, 0, 64, 46
1, 374419, Control_c, 0, 64, 59
1, 374434, Note_off_c, 0, 70, 54
1, 374434, Control_c, 0, 64, 65
1, 374449, Note_on_c, 0, 72, 64
1, 374449, Control_c, 0, 64, 74
1, 374455, Note_off_c, 0, 75, 58
1, 374464, Control_c, 0, 64, 87
1, 374465, Note_on_c, 0, 68, 74
1, 374479, Control_c, 0, 64, 107
1, 374486, Note_off_c, 0, 73, 62
1, 374493, Control_c, 0, 64, 127
1, 374506, Note_off_c, 0, 72, 63
1, 374526, Note_off_c, 0, 68, 61
1, 374679, Control_c, 0, 64, 97
1, 374680, Note_on_c, 0, 64, 72
1, 374681, Note_on_c, 0, 65, 73
1, 374693, Control_c, 0, 64, 73
1, 374708, Control_c, 0, 64, 52
1, 374723, Control_c, 0, 64, 21
1, 374738, Control_c, 0, 64, 39
1, 374753, Control_c, 0, 64, 54
1, 374768, Control_c, 0, 64, 61
1, 374783, Control_c, 0, 64, 65
1, 374785, Note_off_c, 0, 64, 58
1, 374797, Control_c, 0, 64, 71
1, 374812, Control_c, 0, 64, 78
1, 374827, Control_c, 0, 64, 87
1, 374842, Control_c, 0, 64, 93
1, 374857, Control_c, 0, 64, 97
1, 374872, Control_c, 0, 64, 99
1, 374887, Control_c, 0, 64, 99
1, 374902, Control_c, 0, 64, 101
1, 374917, Control_c, 0, 64, 104
1, 374932, Control_c, 0, 64, 107
1, 374947, Control_c, 0, 64, 109
1, 374976, Control_c, 0, 64, 109
1, 374991, Control_c, 0, 64, 113
1, 374995, Note_on_c, 0, 60, 76
1, 375006, Control_c, 0, 64, 127
1, 375022, Note_off_c, 0, 60, 68
1, 375036, Note_off_c, 0, 65, 61
1, 375150, Note_off_c, 0, 56, 60
1, 375157, Note_off_c, 0, 44, 59
1, 375182, Note_on_c, 0, 70, 88
1, 375331, Control_c, 0, 64, 112
1, 375346, Control_c, 0, 64, 80
1, 375356, Note_on_c, 0, 55, 86
1, 375368, Control_c, 0, 64, 56
1, 375371, Note_on_c, 0, 43, 80
1, 375383, Control_c, 0, 64, 0
1, 375456, Control_c, 0, 64, 42
1, 375471, Control_c, 0, 64, 59
1, 375486, Control_c, 0, 64, 67
1, 375494, Note_off_c, 0, 43, 0
1, 375494, Note_on_c, 0, 43, 3
1, 375501, Control_c, 0, 64, 75
1, 375516, Control_c, 0, 64, 83
1, 375524, Note_on_c, 0, 75, 69
1, 375531, Control_c, 0, 64, 91
1, 375539, Note_off_c, 0, 70, 60
1, 375546, Control_c, 0, 64, 97
1, 375554, Note_off_c, 0, 75, 62
1, 375561, Control_c, 0, 64, 106
1, 375575, Control_c, 0, 64, 127
1, 375710, Control_c, 0, 64, 105
1, 375717, Note_on_c, 0, 63, 85
1, 375725, Control_c, 0, 64, 79
1, 375739, Control_c, 0, 64, 62
1, 375754, Control_c, 0, 64, 55
1, 375769, Control_c, 0, 64, 61
1, 375784, Control_c, 0, 64, 66
1, 375799, Control_c, 0, 64, 69
1, 375813, Control_c, 0, 64, 75
1, 375828, Control_c, 0, 64, 83
1, 375843, Control_c, 0, 64, 92
1, 375857, Control_c, 0, 64, 100
1, 375872, Control_c, 0, 64, 106
1, 375887, Control_c, 0, 64, 108
1, 375902, Control_c, 0, 64, 111
1, 375917, Control_c, 0, 64, 115
1, 375917, Control_c, 0, 67, 8
1, 375932, Control_c, 0, 64, 121
1, 375932, Control_c, 0, 67, 8
1, 375946, Control_c, 0, 64, 127
1, 375946, Control_c, 0, 67, 9
1, 375961, Control_c, 0, 67, 10
1, 375977, Control_c, 0, 67, 11
1, 375992, Control_c, 0, 67, 12
1, 376007, Control_c, 0, 67, 13
1, 376021, Control_c, 0, 67, 14
1, 376036, Control_c, 0, 67, 15
1, 376041, Note_on_c, 0, 58, 66
1, 376051, Control_c, 0, 67, 17
1, 376065, Control_c, 0, 67, 21
1, 376070, Note_off_c, 0, 58, 66
1, 376080, Control_c, 0, 67, 26
1, 376082, Note_off_c, 0, 63, 61
1, 376095, Control_c, 0, 67, 30
1, 376118, Control_c, 0, 67, 34
1, 376133, Control_c, 0, 67, 38
1, 376147, Control_c, 0, 67, 40
1, 376162, Control_c, 0, 67, 43
1, 376163, Note_off_c, 0, 55, 50
1, 376177, Control_c, 0, 67, 45
1, 376191, Control_c, 0, 67, 47
1, 376206, Control_c, 0, 67, 49
1, 376214, Note_off_c, 0, 43, 40
1, 376221, Control_c, 0, 67, 50
1, 376226, Note_on_c, 0, 68, 73
1, 376236, Control_c, 0, 67, 52
1, 376251, Control_c, 0, 67, 54
1, 376265, Control_c, 0, 67, 57
1, 376280, Control_c, 0, 67, 60
1, 376295, Control_c, 0, 67, 63
1, 376310, Control_c, 0, 67, 65
1, 376325, Control_c, 0, 67, 68
1, 376339, Control_c, 0, 67, 71
1, 376354, Control_c, 0, 67, 75
1, 376369, Control_c, 0, 64, 99
1, 376369, Control_c, 0, 67, 79
1, 376384, Control_c, 0, 64, 75
1, 376384, Control_c, 0, 67, 84
1, 376395, Note_on_c, 0, 53, 72
1, 376398, Control_c, 0, 64, 51
1, 376398, Control_c, 0, 67, 90
1, 376401, Note_on_c, 0, 41, 63
1, 376413, Control_c, 0, 64, 0
1, 376413, Control_c, 0, 67, 97
1, 376428, Control_c, 0, 67, 106
1, 376444, Control_c, 0, 67, 114
1, 376459, Control_c, 0, 64, 18
1, 376459, Control_c, 0, 67, 121
1, 376474, Control_c, 0, 64, 46
1, 376474, Control_c, 0, 67, 127
1, 376488, Control_c, 0, 64, 59
1, 376503, Control_c, 0, 64, 66
1, 376518, Control_c, 0, 64, 72
1, 376533, Control_c, 0, 64, 83
1, 376548, Control_c, 0, 64, 92
1, 376549, Note_on_c, 0, 74, 59
1, 376562, Control_c, 0, 64, 100
1, 376563, Note_off_c, 0, 68, 62
1, 376577, Control_c, 0, 64, 108
1, 376579, Note_off_c, 0, 74, 66
1, 376592, Control_c, 0, 64, 118
1, 376607, Control_c, 0, 64, 127
1, 376735, Note_on_c, 0, 62, 66
1, 376741, Control_c, 0, 64, 99
1, 376756, Control_c, 0, 64, 76
1, 376770, Control_c, 0, 64, 59
1, 376785, Control_c, 0, 64, 45
1, 376800, Control_c, 0, 64, 53
1, 376814, Control_c, 0, 64, 60
1, 376829, Control_c, 0, 64, 64
1, 376844, Control_c, 0, 64, 68
1, 376866, Control_c, 0, 64, 72
1, 376881, Control_c, 0, 64, 78
1, 376896, Control_c, 0, 64, 84
1, 376911, Control_c, 0, 64, 89
1, 376926, Control_c, 0, 64, 94
1, 376941, Control_c, 0, 64, 97
1, 376956, Control_c, 0, 64, 98
1, 376970, Control_c, 0, 64, 99
1, 376985, Control_c, 0, 64, 102
1, 377000, Control_c, 0, 64, 104
1, 377014, Control_c, 0, 64, 105
1, 377029, Control_c, 0, 64, 106
1, 377038, Note_on_c, 0, 56, 58
1, 377072, Note_off_c, 0, 56, 65
1, 377073, Note_off_c, 0, 62, 33
1, 377074, Control_c, 0, 64, 107
1, 377088, Control_c, 0, 64, 109
1, 377093, Note_off_c, 0, 53, 44
1, 377103, Control_c, 0, 64, 109
1, 377127, Note_off_c, 0, 41, 37
1, 377162, Control_c, 0, 64, 110
1, 377192, Control_c, 0, 64, 110
1, 377232, Note_on_c, 0, 63, 59
1, 377267, Control_c, 0, 64, 111
1, 377339, Note_off_c, 0, 63, 55
1, 377384, Note_on_c, 0, 68, 53
1, 377385, Control_c, 0, 64, 111
1, 377400, Control_c, 0, 64, 114
1, 377415, Control_c, 0, 64, 119
1, 377430, Control_c, 0, 64, 127
1, 377489, Control_c, 0, 64, 100
1, 377504, Control_c, 0, 64, 78
1, 377519, Control_c, 0, 64, 52
1, 377525, Note_off_c, 0, 68, 46
1, 377527, Note_on_c, 0, 67, 60
1, 377531, Note_on_c, 0, 51, 51
1, 377534, Note_on_c, 0, 39, 47
1, 377534, Control_c, 0, 64, 0
1, 377644, Control_c, 0, 64, 9
1, 377659, Control_c, 0, 64, 47
1, 377674, Control_c, 0, 64, 59
1, 377681, Note_off_c, 0, 39, 60
1, 377682, Note_off_c, 0, 67, 56
1, 377689, Note_on_c, 0, 72, 51
1, 377689, Control_c, 0, 64, 64
1, 377694, Note_off_c, 0, 51, 61
1, 377704, Control_c, 0, 64, 66
1, 377719, Control_c, 0, 64, 68
1, 377734, Control_c, 0, 64, 70
1, 377749, Control_c, 0, 64, 76
1, 377763, Control_c, 0, 64, 82
1, 377778, Control_c, 0, 64, 87
1, 377793, Control_c, 0, 64, 87
1, 377823, Note_on_c, 0, 70, 57
1, 377823, Control_c, 0, 64, 87
1, 377837, Control_c, 0, 64, 86
1, 377852, Control_c, 0, 64, 83
1, 377859, Note_off_c, 0, 72, 35
1, 377867, Control_c, 0, 64, 74
1, 377882, Control_c, 0, 64, 62
1, 377885, Note_on_c, 0, 68, 54
1, 377889, Note_off_c, 0, 70, 51
1, 377897, Control_c, 0, 64, 0
1, 377936, Note_off_c, 0, 68, 54
1, 377971, Note_on_c, 0, 67, 51
1, 378089, Note_off_c, 0, 67, 63
1, 378097, Note_on_c, 0, 58, 53
1, 378234, Note_off_c, 0, 58, 56
1, 378243, Note_on_c, 0, 63, 52
1, 378384, Note_off_c, 0, 63, 63
1, 378388, Note_on_c, 0, 68, 62
1, 378403, Note_on_c, 0, 62, 48
1, 378467, Note_off_c, 0, 62, 50
1, 378545, Note_on_c, 0, 67, 55
1, 378642, Note_off_c, 0, 67, 57
1, 378666, Note_on_c, 0, 65, 51
1, 378726, Note_off_c, 0, 65, 57
1, 378730, Note_on_c, 0, 63, 56
1, 378774, Note_off_c, 0, 63, 63
1, 378801, Note_on_c, 0, 62, 45
1, 378937, Note_off_c, 0, 62, 42
1, 378950, Note_on_c, 0, 46, 56
1, 378991, Note_off_c, 0, 68, 61
1, 379102, Note_on_c, 0, 53, 55
1, 379123, Note_off_c, 0, 46, 49
1, 379221, Note_off_c, 0, 53, 60
1, 379232, Note_on_c, 0, 67, 58
1, 379234, Note_on_c, 0, 51, 49
1, 379331, Note_off_c, 0, 51, 60
1, 379374, Note_on_c, 0, 56, 60
1, 379376, Note_off_c, 0, 67, 54
1, 379379, Note_on_c, 0, 72, 58
1, 379468, Note_off_c, 0, 56, 59
1, 379501, Note_on_c, 0, 55, 54
1, 379510, Note_off_c, 0, 72, 36
1, 379520, Note_on_c, 0, 70, 52
1, 379552, Note_off_c, 0, 55, 59
1, 379554, Note_on_c, 0, 53, 66
1, 379556, Note_on_c, 0, 68, 65
1, 379576, Note_off_c, 0, 70, 50
1, 379619, Note_on_c, 0, 67, 72
1, 379637, Note_on_c, 0, 51, 66
1, 379638, Note_off_c, 0, 53, 64
1, 379639, Note_off_c, 0, 68, 62
1, 379645, Note_off_c, 0, 67, 68
1, 379731, Note_off_c, 0, 51, 61
1, 379775, Note_on_c, 0, 75, 67
1, 379907, Note_off_c, 0, 75, 56
1, 379923, Note_on_c, 0, 80, 60
1, 380061, Note_on_c, 0, 63, 54
1, 380078, Note_on_c, 0, 79, 49
1, 380114, Note_off_c, 0, 80, 54
1, 380206, Note_off_c, 0, 79, 45
1, 380208, Note_on_c, 0, 84, 57
1, 380211, Note_on_c, 0, 68, 58
1, 380279, Note_off_c, 0, 63, 42
1, 380308, Note_off_c, 0, 68, 61
1, 380332, Note_on_c, 0, 67, 58
1, 380342, Note_on_c, 0, 82, 54
1, 380348, Note_off_c, 0, 84, 47
1, 380386, Note_on_c, 0, 80, 58
1, 380393, Note_off_c, 0, 82, 54
1, 380411, Note_off_c, 0, 67, 62
1, 380455, Note_off_c, 0, 80, 61
1, 380459, Note_on_c, 0, 79, 66
1, 380473, Note_on_c, 0, 72, 55
1, 380532, Note_off_c, 0, 79, 58
1, 380578, Note_off_c, 0, 72, 54
1, 380604, Note_on_c, 0, 70, 57
1, 380662, Note_on_c, 0, 68, 66
1, 380668, Note_off_c, 0, 70, 60
1, 380723, Note_on_c, 0, 67, 79
1, 380734, Note_off_c, 0, 68, 62
1, 380745, Note_off_c, 0, 67, 69
1, 380861, Control_c, 0, 64, 19
1, 380876, Control_c, 0, 64, 58
1, 380876, Control_c, 0, 67, 124
1, 380891, Control_c, 0, 64, 66
1, 380891, Control_c, 0, 67, 118
1, 380904, Note_on_c, 0, 75, 93
1, 380906, Control_c, 0, 64, 74
1, 380906, Control_c, 0, 67, 111
1, 380908, Note_on_c, 0, 78, 73
1, 380921, Control_c, 0, 64, 89
1, 380921, Control_c, 0, 67, 102
1, 380935, Control_c, 0, 64, 105
1, 380935, Control_c, 0, 67, 90
1, 380944, Note_off_c, 0, 75, 65
1, 380950, Control_c, 0, 64, 127
1, 380950, Control_c, 0, 67, 75
1, 380965, Control_c, 0, 67, 57
1, 380980, Control_c, 0, 67, 41
1, 380995, Control_c, 0, 67, 30
1, 381010, Control_c, 0, 67, 23
1, 381025, Control_c, 0, 67, 19
1, 381039, Control_c, 0, 67, 16
1, 381054, Control_c, 0, 67, 13
1, 381064, Note_on_c, 0, 87, 63
1, 381069, Control_c, 0, 67, 10
1, 381084, Control_c, 0, 67, 0
1, 381130, Note_off_c, 0, 78, 57
1, 381194, Note_on_c, 0, 84, 62
1, 381209, Note_off_c, 0, 87, 48
1, 381327, Note_on_c, 0, 89, 66
1, 381342, Note_off_c, 0, 84, 58
1, 381432, Note_off_c, 0, 89, 38
1, 381460, Note_on_c, 0, 87, 73
1, 381516, Note_on_c, 0, 85, 70
1, 381552, Note_off_c, 0, 87, 53
1, 381568, Note_on_c, 0, 84, 70
1, 381571, Note_off_c, 0, 85, 64
1, 381592, Note_off_c, 0, 84, 69
1, 381722, Note_on_c, 0, 60, 63
1, 381729, Note_on_c, 0, 69, 88
1, 381729, Control_c, 0, 64, 86
1, 381744, Control_c, 0, 64, 64
1, 381758, Control_c, 0, 64, 0
1, 381788, Control_c, 0, 64, 15
1, 381803, Control_c, 0, 64, 50
1, 381818, Control_c, 0, 64, 62
1, 381832, Control_c, 0, 64, 68
1, 381847, Control_c, 0, 64, 76
1, 381849, Note_off_c, 0, 60, 62
1, 381859, Note_on_c, 0, 53, 60
1, 381862, Control_c, 0, 64, 89
1, 381877, Control_c, 0, 64, 101
1, 381892, Control_c, 0, 64, 116
1, 381907, Control_c, 0, 64, 127
1, 381940, Note_off_c, 0, 53, 43
1, 382003, Note_on_c, 0, 58, 69
1, 382062, Note_off_c, 0, 58, 61
1, 382089, Note_off_c, 0, 69, 60
1, 382145, Note_on_c, 0, 53, 64
1, 382214, Note_off_c, 0, 53, 44
1, 382273, Note_on_c, 0, 57, 66
1, 382341, Note_on_c, 0, 55, 70
1, 382346, Note_off_c, 0, 57, 61
1, 382398, Note_off_c, 0, 55, 64
1, 382402, Note_on_c, 0, 53, 72
1, 382427, Note_off_c, 0, 53, 70
1, 382522, Control_c, 0, 64, 83
1, 382537, Control_c, 0, 64, 55
1, 382552, Control_c, 0, 64, 0
1, 382566, Note_on_c, 0, 77, 67
1, 382573, Note_on_c, 0, 73, 96
1, 382611, Control_c, 0, 64, 19
1, 382625, Control_c, 0, 64, 59
1, 382640, Control_c, 0, 64, 71
1, 382655, Control_c, 0, 64, 90
1, 382670, Control_c, 0, 64, 127
1, 382730, Note_on_c, 0, 84, 61
1, 382789, Note_off_c, 0, 77, 47
1, 382858, Note_on_c, 0, 82, 68
1, 382874, Note_off_c, 0, 84, 51
1, 382892, Note_off_c, 0, 73, 56
1, 382992, Note_on_c, 0, 87, 66
1, 383018, Note_off_c, 0, 82, 49
1, 383100, Note_on_c, 0, 85, 64
1, 383140, Note_off_c, 0, 87, 59
1, 383155, Note_on_c, 0, 84, 61
1, 383204, Note_off_c, 0, 85, 61
1, 383207, Note_on_c, 0, 82, 81
1, 383223, Note_off_c, 0, 84, 64
1, 383240, Note_off_c, 0, 82, 62
1, 383365, Note_on_c, 0, 58, 59
1, 383366, Note_on_c, 0, 67, 89
1, 383389, Control_c, 0, 64, 95
1, 383404, Control_c, 0, 64, 68
1, 383419, Control_c, 0, 64, 0
1, 383478, Control_c, 0, 64, 54
1, 383490, Note_off_c, 0, 58, 58
1, 383493, Control_c, 0, 64, 65
1, 383496, Note_on_c, 0, 51, 53
1, 383508, Control_c, 0, 64, 75
1, 383523, Control_c, 0, 64, 93
1, 383537, Control_c, 0, 64, 127
1, 383612, Note_off_c, 0, 51, 58
1, 383646, Note_on_c, 0, 56, 59
1, 383718, Note_off_c, 0, 56, 51
1, 383762, Note_off_c, 0, 67, 59
1, 383772, Note_on_c, 0, 51, 58
1, 383897, Note_off_c, 0, 51, 35
1, 383904, Note_on_c, 0, 55, 70
1, 383976, Note_on_c, 0, 53, 67
1, 383988, Note_off_c, 0, 55, 56
1, 384039, Note_on_c, 0, 51, 75
1, 384050, Note_off_c, 0, 53, 66
1, 384071, Note_off_c, 0, 51, 64
1, 384153, Control_c, 0, 64, 82
1, 384168, Control_c, 0, 64, 48
1, 384183, Control_c, 0, 64, 0
1, 384192, Note_on_c, 0, 72, 94
1, 384192, Note_on_c, 0, 75, 75
1, 384227, Control_c, 0, 64, 22
1, 384242, Control_c, 0, 64, 54
1, 384257, Control_c, 0, 64, 67
1, 384271, Control_c, 0, 64, 81
1, 384286, Control_c, 0, 64, 112
1, 384301, Control_c, 0, 64, 127
1, 384364, Note_on_c, 0, 82, 67
1, 384435, Note_off_c, 0, 75, 54
1, 384484, Note_on_c, 0, 80, 69
1, 384485, Note_off_c, 0, 72, 62
1, 384508, Note_off_c, 0, 82, 53
1, 384610, Note_on_c, 0, 85, 74
1, 384625, Note_off_c, 0, 80, 56
1, 384729, Note_on_c, 0, 84, 68
1, 384760, Note_off_c, 0, 85, 58
1, 384772, Note_on_c, 0, 82, 78
1, 384805, Note_off_c, 0, 84, 56
1, 384833, Note_on_c, 0, 80, 78
1, 384841, Note_off_c, 0, 82, 63
1, 384855, Note_off_c, 0, 80, 72
1, 384991, Note_on_c, 0, 65, 90
1, 384991, Control_c, 0, 64, 114
1, 384996, Note_on_c, 0, 56, 63
1, 385006, Control_c, 0, 64, 80
1, 385020, Control_c, 0, 64, 56
1, 385035, Control_c, 0, 64, 0
1, 385080, Control_c, 0, 64, 17
1, 385102, Control_c, 0, 64, 49
1, 385114, Note_off_c, 0, 56, 57
1, 385117, Control_c, 0, 64, 61
1, 385132, Control_c, 0, 64, 67
1, 385133, Note_on_c, 0, 49, 57
1, 385147, Control_c, 0, 64, 75
1, 385161, Control_c, 0, 64, 85
1, 385176, Control_c, 0, 64, 96
1, 385191, Control_c, 0, 64, 108
1, 385206, Control_c, 0, 64, 123
1, 385221, Control_c, 0, 64, 127
1, 385239, Note_off_c, 0, 49, 54
1, 385270, Note_on_c, 0, 54, 65
1, 385332, Note_off_c, 0, 54, 56
1, 385383, Note_on_c, 0, 49, 64
1, 385457, Note_off_c, 0, 65, 60
1, 385485, Note_off_c, 0, 49, 58
1, 385503, Note_on_c, 0, 53, 63
1, 385573, Note_on_c, 0, 51, 68
1, 385591, Note_off_c, 0, 53, 59
1, 385635, Note_on_c, 0, 49, 71
1, 385651, Note_off_c, 0, 51, 61
1, 385663, Note_off_c, 0, 49, 65
1, 385754, Note_on_c, 0, 67, 89
1, 385755, Control_c, 0, 64, 92
1, 385760, Note_on_c, 0, 63, 77
1, 385769, Control_c, 0, 64, 67
1, 385784, Control_c, 0, 64, 0
1, 385829, Control_c, 0, 64, 44
1, 385851, Control_c, 0, 64, 61
1, 385855, Note_off_c, 0, 63, 57
1, 385866, Control_c, 0, 64, 70
1, 385880, Control_c, 0, 64, 81
1, 385895, Control_c, 0, 64, 97
1, 385898, Note_on_c, 0, 58, 73
1, 385910, Control_c, 0, 64, 120
1, 385925, Control_c, 0, 64, 127
1, 385991, Note_off_c, 0, 58, 55
1, 386018, Note_on_c, 0, 61, 76
1, 386122, Note_on_c, 0, 58, 75
1, 386132, Note_off_c, 0, 61, 33
1, 386179, Note_off_c, 0, 58, 63
1, 386220, Note_on_c, 0, 60, 78
1, 386229, Note_on_c, 0, 68, 83
1, 386238, Note_off_c, 0, 67, 60
1, 386261, Note_off_c, 0, 68, 64
1, 386271, Note_off_c, 0, 60, 65
1, 386290, Note_on_c, 0, 58, 77
1, 386371, Note_on_c, 0, 56, 82
1, 386374, Note_off_c, 0, 58, 64
1, 386416, Note_off_c, 0, 56, 61
1, 386459, Note_on_c, 0, 70, 93
1, 386459, Control_c, 0, 64, 86
1, 386467, Note_on_c, 0, 79, 79
1, 386474, Control_c, 0, 64, 57
1, 386489, Control_c, 0, 64, 0
1, 386518, Control_c, 0, 64, 30
1, 386533, Control_c, 0, 64, 56
1, 386548, Control_c, 0, 64, 65
1, 386563, Control_c, 0, 64, 74
1, 386578, Control_c, 0, 64, 88
1, 386599, Control_c, 0, 64, 110
1, 386602, Note_on_c, 0, 74, 77
1, 386614, Control_c, 0, 64, 127
1, 386645, Note_off_c, 0, 79, 60
1, 386710, Note_on_c, 0, 77, 81
1, 386720, Note_off_c, 0, 74, 62
1, 386816, Note_on_c, 0, 73, 81
1, 386820, Note_off_c, 0, 77, 59
1, 386850, Note_off_c, 0, 70, 63
1, 386891, Note_off_c, 0, 73, 50
1, 386925, Note_on_c, 0, 77, 78
1, 386987, Note_on_c, 0, 75, 69
1, 387020, Note_off_c, 0, 77, 60
1, 387028, Note_on_c, 0, 73, 80
1, 387058, Note_off_c, 0, 75, 62
1, 387076, Note_off_c, 0, 73, 62
1, 387155, Note_on_c, 0, 44, 94
1, 387159, Note_on_c, 0, 32, 82
1, 387163, Control_c, 0, 64, 86
1, 387169, Note_on_c, 0, 63, 89
1, 387169, Note_on_c, 0, 72, 83
1, 387178, Control_c, 0, 64, 58
1, 387193, Control_c, 0, 64, 0
1, 387208, Control_c, 0, 64, 48
1, 387222, Control_c, 0, 64, 61
1, 387237, Control_c, 0, 64, 68
1, 387248, Note_off_c, 0, 32, 59
1, 387252, Control_c, 0, 64, 81
1, 387267, Control_c, 0, 64, 110
1, 387278, Note_off_c, 0, 44, 56
1, 387282, Control_c, 0, 64, 127
1, 387351, Note_on_c, 0, 70, 75
1, 387445, Note_on_c, 0, 67, 75
1, 387457, Note_off_c, 0, 72, 36
1, 387470, Note_off_c, 0, 63, 59
1, 387533, Note_on_c, 0, 68, 74
1, 387544, Note_off_c, 0, 67, 54
1, 387595, Note_off_c, 0, 70, 63
1, 387603, Note_off_c, 0, 68, 63
1, 387632, Note_on_c, 0, 60, 74
1, 387686, Note_off_c, 0, 60, 60
1, 387717, Note_on_c, 0, 66, 74
1, 387805, Note_on_c, 0, 49, 100
1, 387812, Note_on_c, 0, 37, 81
1, 387815, Note_on_c, 0, 56, 84
1, 387824, Control_c, 0, 64, 89
1, 387830, Note_off_c, 0, 66, 59
1, 387838, Control_c, 0, 64, 62
1, 387853, Control_c, 0, 64, 0
1, 387883, Control_c, 0, 64, 36
1, 387898, Control_c, 0, 64, 57
1, 387899, Note_on_c, 0, 66, 68
1, 387899, Note_off_c, 0, 56, 59
1, 387912, Control_c, 0, 64, 65
1, 387927, Control_c, 0, 64, 74
1, 387942, Control_c, 0, 64, 90
1, 387957, Control_c, 0, 64, 109
1, 387971, Control_c, 0, 64, 127
1, 387988, Note_on_c, 0, 56, 73
1, 388024, Note_off_c, 0, 49, 60
1, 388069, Note_off_c, 0, 37, 36
1, 388071, Note_off_c, 0, 56, 59
1, 388077, Note_on_c, 0, 64, 70
1, 388096, Note_off_c, 0, 66, 53
1, 388165, Note_on_c, 0, 56, 73
1, 388239, Note_off_c, 0, 56, 62
1, 388250, Note_on_c, 0, 65, 70
1, 388263, Note_off_c, 0, 64, 60
1, 388288, Note_off_c, 0, 65, 60
1, 388319, Control_c, 0, 64, 106
1, 388334, Control_c, 0, 64, 71
1, 388340, Note_on_c, 0, 46, 89
1, 388346, Note_on_c, 0, 34, 76
1, 388347, Note_on_c, 0, 61, 77
1, 388349, Control_c, 0, 64, 39
1, 388364, Control_c, 0, 64, 31
1, 388378, Control_c, 0, 64, 57
1, 388393, Control_c, 0, 64, 65
1, 388408, Control_c, 0, 64, 73
1, 388424, Note_off_c, 0, 61, 62
1, 388424, Control_c, 0, 64, 90
1, 388429, Note_on_c, 0, 65, 76
1, 388439, Control_c, 0, 64, 123
1, 388449, Note_off_c, 0, 34, 59
1, 388453, Note_off_c, 0, 46, 62
1, 388454, Control_c, 0, 64, 127
1, 388504, Note_on_c, 0, 61, 75
1, 388520, Note_off_c, 0, 65, 58
1, 388584, Note_off_c, 0, 61, 56
1, 388587, Note_on_c, 0, 72, 80
1, 388669, Note_on_c, 0, 61, 71
1, 388682, Note_off_c, 0, 72, 54
1, 388743, Note_on_c, 0, 70, 73
1, 388760, Note_off_c, 0, 61, 59
1, 388811, Note_off_c, 0, 70, 62
1, 388825, Control_c, 0, 64, 86
1, 388840, Control_c, 0, 64, 59
1, 388849, Note_on_c, 0, 51, 92
1, 388852, Note_on_c, 0, 39, 79
1, 388856, Note_on_c, 0, 58, 80
1, 388862, Control_c, 0, 64, 0
1, 388876, Control_c, 0, 64, 35
1, 388891, Control_c, 0, 64, 57
1, 388906, Control_c, 0, 64, 66
1, 388921, Control_c, 0, 64, 73
1, 388936, Note_off_c, 0, 58, 61
1, 388936, Control_c, 0, 64, 87
1, 388941, Note_on_c, 0, 68, 75
1, 388951, Control_c, 0, 64, 108
1, 388966, Control_c, 0, 64, 127
1, 389004, Note_on_c, 0, 69, 10
1, 389020, Note_on_c, 0, 58, 76
1, 389054, Note_off_c, 0, 69, 54
1, 389077, Note_off_c, 0, 51, 61
1, 389095, Note_off_c, 0, 58, 57
1, 389108, Note_off_c, 0, 39, 56
1, 389115, Note_on_c, 0, 66, 65
1, 389143, Note_off_c, 0, 68, 52
1, 389178, Note_on_c, 0, 58, 74
1, 389258, Note_off_c, 0, 58, 60
1, 389277, Note_on_c, 0, 67, 65
1, 389310, Note_off_c, 0, 67, 63
1, 389321, Note_off_c, 0, 66, 38
1, 389362, Note_on_c, 0, 48, 89
1, 389366, Control_c, 0, 64, 82
1, 389367, Note_on_c, 0, 63, 84
1, 389371, Note_on_c, 0, 36, 73
1, 389381, Control_c, 0, 64, 53
1, 389396, Control_c, 0, 64, 0
1, 389411, Control_c, 0, 64, 35
1, 389425, Control_c, 0, 64, 57
1, 389440, Control_c, 0, 64, 64
1, 389449, Note_off_c, 0, 63, 62
1, 389455, Control_c, 0, 64, 71
1, 389464, Note_on_c, 0, 67, 57
1, 389470, Control_c, 0, 64, 84
1, 389485, Control_c, 0, 64, 103
1, 389499, Control_c, 0, 64, 127
1, 389525, Note_off_c, 0, 36, 57
1, 389529, Note_on_c, 0, 63, 73
1, 389549, Note_off_c, 0, 67, 57
1, 389554, Note_off_c, 0, 48, 51
1, 389612, Note_off_c, 0, 63, 61
1, 389622, Note_on_c, 0, 70, 67
1, 389699, Note_on_c, 0, 63, 66
1, 389715, Note_off_c, 0, 70, 55
1, 389769, Note_on_c, 0, 68, 67
1, 389772, Note_off_c, 0, 63, 60
1, 389843, Note_off_c, 0, 68, 64
1, 389848, Control_c, 0, 64, 89
1, 389863, Control_c, 0, 64, 66
1, 389864, Note_on_c, 0, 62, 82
1, 389865, Note_on_c, 0, 53, 84
1, 389873, Note_on_c, 0, 41, 68
1, 389878, Control_c, 0, 64, 44
1, 389892, Control_c, 0, 64, 53
1, 389907, Control_c, 0, 64, 63
1, 389922, Control_c, 0, 64, 68
1, 389937, Control_c, 0, 64, 76
1, 389951, Control_c, 0, 64, 89
1, 389962, Note_on_c, 0, 68, 63
1, 389966, Control_c, 0, 64, 104
1, 389979, Note_off_c, 0, 62, 44
1, 389981, Control_c, 0, 64, 127
1, 390036, Note_on_c, 0, 67, 67
1, 390060, Note_off_c, 0, 68, 61
1, 390113, Note_on_c, 0, 70, 74
1, 390119, Note_off_c, 0, 67, 61
1, 390120, Note_off_c, 0, 53, 46
1, 390129, Note_off_c, 0, 41, 60
1, 390169, Note_on_c, 0, 61, 76
1, 390174, Note_off_c, 0, 70, 63
1, 390235, Note_off_c, 0, 61, 61
1, 390253, Note_on_c, 0, 68, 73
1, 390277, Control_c, 0, 64, 112
1, 390292, Control_c, 0, 64, 78
1, 390307, Control_c, 0, 64, 56
1, 390309, Note_on_c, 0, 51, 83
1, 390316, Note_on_c, 0, 39, 73
1, 390322, Control_c, 0, 64, 43
1, 390344, Note_on_c, 0, 60, 69
1, 390344, Control_c, 0, 64, 56
1, 390352, Note_off_c, 0, 68, 63
1, 390359, Control_c, 0, 64, 63
1, 390373, Control_c, 0, 64, 66
1, 390388, Control_c, 0, 64, 72
1, 390403, Note_off_c, 0, 60, 61
1, 390403, Control_c, 0, 64, 82
1, 390418, Control_c, 0, 64, 97
1, 390420, Note_on_c, 0, 68, 66
1, 390433, Control_c, 0, 64, 127
1, 390453, Note_off_c, 0, 51, 49
1, 390481, Note_on_c, 0, 58, 83
1, 390487, Note_off_c, 0, 39, 52
1, 390498, Note_off_c, 0, 68, 63
1, 390508, Poly_aftertouch_c, 0, 69, 127
1, 390545, Poly_aftertouch_c, 0, 69, 0
1, 390549, Note_on_c, 0, 68, 67
1, 390557, Note_off_c, 0, 58, 61
1, 390623, Note_on_c, 0, 49, 86
1, 390632, Note_on_c, 0, 37, 68
1, 390635, Note_on_c, 0, 65, 71
1, 390638, Note_off_c, 0, 68, 64
1, 390666, Note_off_c, 0, 37, 63
1, 390673, Note_off_c, 0, 49, 59
1, 390718, Note_on_c, 0, 67, 68
1, 390727, Note_off_c, 0, 65, 58
1, 390729, Control_c, 0, 64, 100
1, 390744, Control_c, 0, 64, 72
1, 390756, Note_off_c, 0, 67, 64
1, 390759, Control_c, 0, 64, 53
1, 390773, Control_c, 0, 64, 56
1, 390787, Note_on_c, 0, 48, 85
1, 390787, Note_on_c, 0, 63, 79
1, 390788, Control_c, 0, 64, 65
1, 390796, Note_on_c, 0, 36, 72
1, 390803, Control_c, 0, 64, 74
1, 390819, Control_c, 0, 64, 86
1, 390821, Note_off_c, 0, 48, 62
1, 390830, Note_off_c, 0, 36, 60
1, 390834, Control_c, 0, 64, 102
1, 390849, Control_c, 0, 64, 107
1, 390862, Note_off_c, 0, 63, 54
1, 390863, Control_c, 0, 64, 90
1, 390878, Control_c, 0, 64, 65
1, 390880, Note_on_c, 0, 68, 70
1, 390893, Control_c, 0, 64, 0
1, 390923, Control_c, 0, 64, 17
1, 390937, Note_on_c, 0, 46, 84
1, 390937, Control_c, 0, 64, 55
1, 390941, Note_on_c, 0, 34, 78
1, 390949, Note_on_c, 0, 63, 78
1, 390949, Note_off_c, 0, 68, 59
1, 390952, Control_c, 0, 64, 67
1, 390967, Control_c, 0, 64, 79
1, 390975, Note_off_c, 0, 46, 62
1, 390980, Note_off_c, 0, 34, 61
1, 390982, Control_c, 0, 64, 98
1, 390996, Control_c, 0, 64, 127
1, 391021, Note_on_c, 0, 70, 81
1, 391021, Note_off_c, 0, 63, 62
1, 391097, Note_on_c, 0, 63, 74
1, 391098, Note_on_c, 0, 44, 82
1, 391103, Note_on_c, 0, 32, 79
1, 391117, Note_off_c, 0, 70, 60
1, 391151, Note_off_c, 0, 32, 57
1, 391158, Note_off_c, 0, 44, 59
1, 391175, Note_on_c, 0, 72, 77
1, 391180, Note_off_c, 0, 63, 63
1, 391226, Control_c, 0, 64, 93
1, 391241, Control_c, 0, 64, 64
1, 391254, Note_off_c, 0, 72, 53
1, 391256, Control_c, 0, 64, 0
1, 391268, Note_on_c, 0, 43, 99
1, 391270, Note_on_c, 0, 63, 78
1, 391273, Note_on_c, 0, 31, 80
1, 391284, Note_on_c, 0, 70, 66
1, 391285, Control_c, 0, 64, 52
1, 391300, Control_c, 0, 64, 64
1, 391307, Note_off_c, 0, 31, 67
1, 391315, Control_c, 0, 64, 74
1, 391321, Note_off_c, 0, 43, 63
1, 391330, Control_c, 0, 64, 93
1, 391332, Note_off_c, 0, 63, 60
1, 391344, Control_c, 0, 64, 127
1, 391375, Note_on_c, 0, 75, 74
1, 391383, Note_off_c, 0, 70, 61
1, 391452, Note_off_c, 0, 75, 60
1, 391458, Note_on_c, 0, 70, 59
1, 391517, Note_off_c, 0, 70, 62
1, 391523, Note_on_c, 0, 73, 65
1, 391608, Note_on_c, 0, 70, 70
1, 391610, Note_off_c, 0, 73, 55
1, 391675, Note_off_c, 0, 70, 61
1, 391678, Note_on_c, 0, 72, 68
1, 391747, Control_c, 0, 64, 78
1, 391749, Note_on_c, 0, 68, 89
1, 391761, Control_c, 0, 64, 51
1, 391768, Note_off_c, 0, 72, 60
1, 391776, Control_c, 0, 64, 0
1, 391777, Note_on_c, 0, 70, 70
1, 391806, Control_c, 0, 64, 36
1, 391820, Control_c, 0, 64, 57
1, 391842, Control_c, 0, 64, 66
1, 391851, Note_on_c, 0, 73, 73
1, 391857, Control_c, 0, 64, 77
1, 391863, Note_off_c, 0, 70, 57
1, 391872, Control_c, 0, 64, 95
1, 391887, Control_c, 0, 64, 127
1, 391926, Note_off_c, 0, 73, 62
1, 391931, Note_on_c, 0, 71, 75
1, 392001, Note_on_c, 0, 73, 68
1, 392002, Note_off_c, 0, 71, 61
1, 392037, Note_off_c, 0, 68, 65
1, 392088, Note_off_c, 0, 73, 61
1, 392090, Note_on_c, 0, 71, 73
1, 392143, Note_off_c, 0, 71, 65
1, 392152, Note_on_c, 0, 72, 64
1, 392182, Note_off_c, 0, 72, 67
1, 392198, Control_c, 0, 64, 104
1, 392212, Control_c, 0, 64, 72
1, 392219, Note_on_c, 0, 65, 93
1, 392227, Control_c, 0, 64, 0
1, 392245, Note_on_c, 0, 72, 78
1, 392272, Control_c, 0, 64, 47
1, 392286, Control_c, 0, 64, 61
1, 392292, Note_off_c, 0, 72, 59
1, 392301, Control_c, 0, 64, 68
1, 392311, Note_on_c, 0, 80, 74
1, 392316, Control_c, 0, 64, 81
1, 392331, Control_c, 0, 64, 99
1, 392346, Control_c, 0, 64, 127
1, 392382, Note_on_c, 0, 72, 80
1, 392398, Note_off_c, 0, 80, 60
1, 392444, Note_off_c, 0, 72, 61
1, 392448, Note_on_c, 0, 82, 80
1, 392473, Note_off_c, 0, 65, 60
1, 392518, Note_on_c, 0, 72, 76
1, 392544, Note_off_c, 0, 82, 58
1, 392594, Note_off_c, 0, 72, 61
1, 392599, Note_on_c, 0, 80, 80
1, 392635, Note_on_c, 0, 82, 23
1, 392674, Note_off_c, 0, 82, 47
1, 392679, Control_c, 0, 64, 87
1, 392680, Note_off_c, 0, 80, 60
1, 392694, Control_c, 0, 64, 63
1, 392701, Note_on_c, 0, 70, 98
1, 392709, Control_c, 0, 64, 21
1, 392712, Note_on_c, 0, 74, 79
1, 392723, Control_c, 0, 64, 49
1, 392738, Control_c, 0, 64, 62
1, 392753, Control_c, 0, 64, 69
1, 392767, Control_c, 0, 64, 81
1, 392782, Control_c, 0, 64, 107
1, 392793, Note_off_c, 0, 74, 56
1, 392797, Control_c, 0, 64, 127
1, 392801, Note_on_c, 0, 79, 75
1, 392867, Note_on_c, 0, 74, 68
1, 392873, Note_off_c, 0, 79, 59
1, 392934, Note_off_c, 0, 74, 65
1, 392938, Note_on_c, 0, 76, 76
1, 393007, Note_on_c, 0, 74, 64
1, 393019, Note_off_c, 0, 76, 56
1, 393058, Note_off_c, 0, 70, 59
1, 393076, Note_on_c, 0, 77, 71
1, 393077, Note_off_c, 0, 74, 65
1, 393109, Note_off_c, 0, 77, 63
1, 393167, Control_c, 0, 64, 108
1, 393171, Note_on_c, 0, 67, 92
1, 393181, Note_on_c, 0, 75, 81
1, 393182, Control_c, 0, 64, 72
1, 393197, Control_c, 0, 64, 49
1, 393213, Control_c, 0, 64, 49
1, 393228, Control_c, 0, 64, 62
1, 393243, Control_c, 0, 64, 67
1, 393255, Note_off_c, 0, 75, 61
1, 393256, Note_on_c, 0, 82, 76
1, 393257, Control_c, 0, 64, 74
1, 393272, Control_c, 0, 64, 88
1, 393287, Control_c, 0, 64, 109
1, 393302, Control_c, 0, 64, 127
1, 393336, Note_on_c, 0, 75, 69
1, 393359, Note_off_c, 0, 82, 59
1, 393398, Note_off_c, 0, 75, 58
1, 393417, Note_on_c, 0, 84, 65
1, 393449, Note_off_c, 0, 67, 61
1, 393479, Note_on_c, 0, 75, 75
1, 393492, Note_off_c, 0, 84, 62
1, 393550, Note_off_c, 0, 75, 60
1, 393556, Note_on_c, 0, 82, 74
1, 393620, Control_c, 0, 64, 112
1, 393623, Note_off_c, 0, 82, 62
1, 393635, Control_c, 0, 64, 78
1, 393643, Note_on_c, 0, 72, 92
1, 393646, Note_on_c, 0, 75, 67
1, 393650, Control_c, 0, 64, 48
1, 393664, Control_c, 0, 64, 33
1, 393679, Control_c, 0, 64, 53
1, 393694, Note_off_c, 0, 75, 55
1, 393694, Control_c, 0, 64, 62
1, 393703, Note_on_c, 0, 82, 81
1, 393709, Control_c, 0, 64, 67
1, 393724, Control_c, 0, 64, 75
1, 393738, Control_c, 0, 64, 88
1, 393753, Control_c, 0, 64, 125
1, 393768, Control_c, 0, 64, 127
1, 393783, Note_on_c, 0, 75, 75
1, 393816, Note_off_c, 0, 82, 57
1, 393851, Note_off_c, 0, 75, 63
1, 393857, Note_on_c, 0, 79, 72
1, 393931, Note_on_c, 0, 75, 68
1, 393934, Note_off_c, 0, 72, 59
1, 394008, Note_off_c, 0, 75, 60
1, 394012, Note_on_c, 0, 80, 62
1, 394065, Note_off_c, 0, 79, 23
1, 394086, Note_off_c, 0, 80, 61
1, 394102, Note_on_c, 0, 74, 74
1, 394102, Control_c, 0, 64, 95
1, 394106, Note_on_c, 0, 70, 92
1, 394117, Control_c, 0, 64, 71
1, 394132, Control_c, 0, 64, 49
1, 394147, Control_c, 0, 64, 50
1, 394157, Note_off_c, 0, 74, 61
1, 394162, Control_c, 0, 64, 59
1, 394176, Control_c, 0, 64, 64
1, 394186, Note_on_c, 0, 80, 68
1, 394191, Control_c, 0, 64, 68
1, 394206, Control_c, 0, 64, 76
1, 394221, Control_c, 0, 64, 92
1, 394236, Control_c, 0, 64, 121
1, 394251, Control_c, 0, 64, 127
1, 394257, Note_on_c, 0, 74, 71
1, 394261, Note_off_c, 0, 80, 59
1, 394310, Note_off_c, 0, 74, 63
1, 394319, Note_off_c, 0, 70, 58
1, 394326, Note_on_c, 0, 82, 70
1, 394398, Note_on_c, 0, 68, 82
1, 394406, Note_on_c, 0, 74, 70
1, 394416, Note_off_c, 0, 82, 58
1, 394460, Note_off_c, 0, 74, 64
1, 394461, Note_off_c, 0, 68, 63
1, 394480, Note_on_c, 0, 84, 70
1, 394531, Control_c, 0, 64, 97
1, 394535, Note_off_c, 0, 84, 62
1, 394546, Control_c, 0, 64, 73
1, 394550, Note_on_c, 0, 67, 80
1, 394556, Note_on_c, 0, 73, 80
1, 394561, Control_c, 0, 64, 51
1, 394576, Control_c, 0, 64, 36
1, 394591, Control_c, 0, 64, 51
1, 394600, Note_off_c, 0, 73, 58
1, 394606, Control_c, 0, 64, 62
1, 394620, Control_c, 0, 64, 66
1, 394633, Note_on_c, 0, 84, 68
1, 394635, Control_c, 0, 64, 71
1, 394650, Control_c, 0, 64, 79
1, 394665, Control_c, 0, 64, 91
1, 394680, Control_c, 0, 64, 108
1, 394695, Control_c, 0, 64, 127
1, 394712, Note_on_c, 0, 73, 78
1, 394716, Poly_aftertouch_c, 0, 82, 127
1, 394729, Note_off_c, 0, 84, 52
1, 394753, Poly_aftertouch_c, 0, 82, 0
1, 394791, Note_on_c, 0, 81, 53
1, 394799, Note_off_c, 0, 73, 63
1, 394877, Note_on_c, 0, 73, 75
1, 394885, Note_off_c, 0, 67, 64
1, 394891, Note_off_c, 0, 81, 59
1, 394892, Note_on_c, 0, 82, 72
1, 394916, Note_off_c, 0, 73, 59
1, 394959, Note_off_c, 0, 82, 62
1, 395015, Note_on_c, 0, 73, 57
1, 395015, Control_c, 0, 64, 110
1, 395026, Note_on_c, 0, 70, 93
1, 395030, Control_c, 0, 64, 78
1, 395044, Control_c, 0, 64, 56
1, 395059, Control_c, 0, 64, 38
1, 395074, Control_c, 0, 64, 51
1, 395083, Note_off_c, 0, 73, 62
1, 395089, Control_c, 0, 64, 62
1, 395092, Note_on_c, 0, 80, 76
1, 395103, Control_c, 0, 64, 67
1, 395118, Control_c, 0, 64, 74
1, 395133, Control_c, 0, 64, 87
1, 395148, Control_c, 0, 64, 107
1, 395163, Control_c, 0, 64, 127
1, 395186, Note_on_c, 0, 73, 70
1, 395240, Note_off_c, 0, 80, 46
1, 395242, Note_off_c, 0, 73, 62
1, 395246, Note_on_c, 0, 77, 66
1, 395333, Note_on_c, 0, 73, 64
1, 395347, Note_off_c, 0, 77, 53
1, 395378, Note_off_c, 0, 73, 61
1, 395386, Note_on_c, 0, 79, 63
1, 395423, Note_off_c, 0, 79, 58
1, 395443, Note_on_c, 0, 73, 71
1, 395475, Note_off_c, 0, 73, 64
1, 395527, Note_on_c, 0, 79, 77
1, 395601, Note_on_c, 0, 73, 69
1, 395628, Note_off_c, 0, 79, 52
1, 395679, Note_on_c, 0, 75, 69
1, 395682, Note_off_c, 0, 73, 62
1, 395746, Note_on_c, 0, 73, 66
1, 395751, Note_off_c, 0, 75, 61
1, 395804, Note_off_c, 0, 73, 62
1, 395814, Note_on_c, 0, 77, 66
1, 395879, Note_on_c, 0, 73, 75
1, 395883, Note_off_c, 0, 77, 58
1, 395899, Note_off_c, 0, 70, 56
1, 395947, Note_on_c, 0, 79, 66
1, 395960, Note_off_c, 0, 73, 56
1, 395980, Note_off_c, 0, 79, 63
1, 396015, Note_on_c, 0, 72, 69
1, 396026, Note_on_c, 0, 68, 74
1, 396059, Note_off_c, 0, 68, 61
1, 396068, Note_off_c, 0, 72, 61
1, 396091, Note_on_c, 0, 80, 72
1, 396145, Note_off_c, 0, 80, 62
1, 396167, Note_on_c, 0, 66, 81
1, 396172, Note_on_c, 0, 72, 74
1, 396198, Note_off_c, 0, 66, 60
1, 396218, Note_off_c, 0, 72, 61
1, 396245, Note_on_c, 0, 82, 75
1, 396281, Control_c, 0, 64, 100
1, 396296, Control_c, 0, 64, 76
1, 396297, Note_off_c, 0, 82, 62
1, 396311, Control_c, 0, 64, 62
1, 396313, Note_on_c, 0, 65, 87
1, 396317, Note_on_c, 0, 73, 80
1, 396333, Control_c, 0, 64, 63
1, 396348, Control_c, 0, 64, 69
1, 396363, Control_c, 0, 64, 75
1, 396378, Control_c, 0, 64, 83
1, 396380, Note_off_c, 0, 73, 59
1, 396392, Control_c, 0, 64, 93
1, 396408, Control_c, 0, 64, 116
1, 396409, Note_on_c, 0, 82, 73
1, 396423, Control_c, 0, 64, 127
1, 396477, Note_on_c, 0, 80, 77
1, 396490, Note_off_c, 0, 82, 60
1, 396492, Note_off_c, 0, 65, 50
1, 396546, Note_on_c, 0, 84, 72
1, 396551, Note_off_c, 0, 80, 64
1, 396618, Note_on_c, 0, 82, 84
1, 396624, Note_on_c, 0, 67, 70
1, 396632, Note_off_c, 0, 84, 61
1, 396641, Note_off_c, 0, 67, 66
1, 396682, Note_on_c, 0, 87, 80
1, 396700, Note_off_c, 0, 82, 61
1, 396712, Note_off_c, 0, 87, 60
1, 396823, Control_c, 0, 64, 82
1, 396832, Note_on_c, 0, 48, 82
1, 396838, Control_c, 0, 64, 52
1, 396850, Note_on_c, 0, 68, 90
1, 396853, Control_c, 0, 64, 0
1, 396853, Note_on_c, 0, 80, 87
1, 396858, Note_on_c, 0, 75, 73
1, 396868, Control_c, 0, 64, 29
1, 396882, Control_c, 0, 64, 59
1, 396897, Control_c, 0, 64, 66
1, 396912, Control_c, 0, 64, 74
1, 396926, Control_c, 0, 64, 92
1, 396941, Control_c, 0, 64, 127
1, 396978, Note_on_c, 0, 53, 65
1, 397029, Note_off_c, 0, 48, 62
1, 397041, Note_off_c, 0, 68, 62
1, 397053, Note_off_c, 0, 53, 65
1, 397070, Note_on_c, 0, 51, 54
1, 397093, Note_off_c, 0, 75, 60
1, 397098, Note_on_c, 0, 56, 76
1, 397109, Note_off_c, 0, 80, 61
1, 397118, Note_off_c, 0, 51, 60
1, 397170, Note_off_c, 0, 56, 62
1, 397178, Note_on_c, 0, 55, 78
1, 397244, Note_off_c, 0, 55, 62
1, 397247, Note_on_c, 0, 56, 87
1, 397304, Note_off_c, 0, 56, 62
1, 397341, Note_on_c, 0, 46, 92
1, 397350, Control_c, 0, 64, 76
1, 397352, Note_on_c, 0, 85, 89
1, 397354, Note_on_c, 0, 73, 89
1, 397358, Note_on_c, 0, 79, 76
1, 397364, Control_c, 0, 64, 0
1, 397409, Control_c, 0, 64, 52
1, 397424, Control_c, 0, 64, 65
1, 397437, Note_on_c, 0, 55, 73
1, 397438, Control_c, 0, 64, 75
1, 397453, Control_c, 0, 64, 103
1, 397468, Control_c, 0, 64, 127
1, 397515, Note_off_c, 0, 55, 60
1, 397518, Note_on_c, 0, 51, 72
1, 397583, Note_off_c, 0, 51, 62
1, 397591, Note_on_c, 0, 55, 69
1, 397618, Note_off_c, 0, 79, 50
1, 397622, Note_off_c, 0, 73, 62
1, 397629, Note_off_c, 0, 85, 59
1, 397643, Note_off_c, 0, 55, 60
1, 397662, Note_on_c, 0, 51, 73
1, 397678, Note_off_c, 0, 46, 55
1, 397727, Note_on_c, 0, 55, 73
1, 397739, Note_off_c, 0, 51, 61
1, 397789, Note_off_c, 0, 55, 58
1, 397809, Control_c, 0, 64, 103
1, 397819, Note_on_c, 0, 49, 82
1, 397829, Note_on_c, 0, 82, 85
1, 397831, Note_on_c, 0, 79, 71
1, 397831, Control_c, 0, 64, 73
1, 397831, Note_on_c, 0, 70, 82
1, 397846, Control_c, 0, 64, 60
1, 397861, Control_c, 0, 64, 56
1, 397876, Control_c, 0, 64, 60
1, 397890, Control_c, 0, 64, 66
1, 397905, Control_c, 0, 64, 74
1, 397920, Control_c, 0, 64, 87
1, 397920, Note_on_c, 0, 58, 80
1, 397921, Note_off_c, 0, 70, 65
1, 397935, Control_c, 0, 64, 123
1, 397950, Control_c, 0, 64, 127
1, 397972, Note_off_c, 0, 79, 60
1, 397990, Note_off_c, 0, 82, 60
1, 397997, Note_on_c, 0, 51, 82
1, 397998, Note_off_c, 0, 58, 62
1, 398063, Note_on_c, 0, 58, 78
1, 398075, Note_off_c, 0, 51, 61
1, 398102, Note_off_c, 0, 49, 54
1, 398135, Note_off_c, 0, 58, 62
1, 398140, Note_on_c, 0, 51, 75
1, 398204, Note_on_c, 0, 58, 77
1, 398261, Control_c, 0, 64, 96
1, 398270, Note_off_c, 0, 58, 64
1, 398276, Control_c, 0, 64, 64
1, 398288, Note_on_c, 0, 48, 83
1, 398291, Control_c, 0, 64, 0
1, 398299, Note_on_c, 0, 87, 89
1, 398303, Note_on_c, 0, 75, 89
1, 398303, Note_on_c, 0, 80, 84
1, 398306, Note_off_c, 0, 51, 31
1, 398321, Control_c, 0, 64, 46
1, 398335, Control_c, 0, 64, 63
1, 398350, Control_c, 0, 64, 74
1, 398365, Control_c, 0, 64, 98
1, 398379, Control_c, 0, 64, 127
1, 398407, Note_on_c, 0, 53, 66
1, 398424, Note_off_c, 0, 75, 63
1, 398448, Note_off_c, 0, 87, 62
1, 398471, Note_off_c, 0, 80, 58
1, 398493, Note_off_c, 0, 48, 61
1, 398499, Note_on_c, 0, 51, 57
1, 398501, Note_off_c, 0, 53, 64
1, 398516, Note_on_c, 0, 56, 78
1, 398537, Note_off_c, 0, 51, 61
1, 398605, Note_off_c, 0, 56, 62
1, 398610, Note_on_c, 0, 55, 74
1, 398677, Note_on_c, 0, 56, 87
1, 398680, Note_off_c, 0, 55, 62
1, 398731, Note_off_c, 0, 56, 62
1, 398755, Note_on_c, 0, 51, 85
1, 398758, Note_on_c, 0, 78, 82
1, 398758, Note_on_c, 0, 84, 87
1, 398758, Control_c, 0, 64, 93
1, 398761, Note_on_c, 0, 72, 88
1, 398773, Control_c, 0, 64, 68
1, 398788, Control_c, 0, 64, 56
1, 398803, Control_c, 0, 64, 63
1, 398818, Control_c, 0, 64, 68
1, 398833, Control_c, 0, 64, 73
1, 398835, Note_on_c, 0, 56, 78
1, 398848, Control_c, 0, 64, 81
1, 398863, Control_c, 0, 64, 94
1, 398877, Control_c, 0, 64, 127
1, 398904, Note_on_c, 0, 54, 84
1, 398908, Note_off_c, 0, 56, 63
1, 398943, Note_off_c, 0, 51, 52
1, 398953, Note_off_c, 0, 84, 54
1, 398967, Note_on_c, 0, 56, 79
1, 398990, Note_off_c, 0, 54, 60
1, 398996, Note_off_c, 0, 72, 48
1, 399038, Note_off_c, 0, 56, 64
1, 399040, Note_on_c, 0, 55, 78
1, 399053, Note_on_c, 0, 75, 86
1, 399083, Note_off_c, 0, 78, 64
1, 399099, Note_off_c, 0, 75, 65
1, 399125, Note_on_c, 0, 56, 90
1, 399130, Note_off_c, 0, 55, 62
1, 399187, Note_off_c, 0, 56, 62
1, 399233, Control_c, 0, 64, 104
1, 399248, Control_c, 0, 64, 69
1, 399258, Note_on_c, 0, 49, 90
1, 399263, Control_c, 0, 64, 24
1, 399265, Note_on_c, 0, 89, 95
1, 399268, Note_on_c, 0, 77, 92
1, 399277, Control_c, 0, 64, 50
1, 399292, Control_c, 0, 64, 64
1, 399298, Note_on_c, 0, 87, 49
1, 399307, Control_c, 0, 64, 70
1, 399314, Note_on_c, 0, 85, 11
1, 399329, Control_c, 0, 64, 82
1, 399344, Control_c, 0, 64, 106
1, 399348, Note_on_c, 0, 56, 78
1, 399359, Control_c, 0, 64, 127
1, 399365, Note_off_c, 0, 87, 0
1, 399394, Note_off_c, 0, 85, 43
1, 399402, Poly_aftertouch_c, 0, 87, 127
1, 399417, Note_on_c, 0, 55, 67
1, 399422, Note_off_c, 0, 49, 0
1, 399444, Note_off_c, 0, 77, 43
1, 399468, Note_off_c, 0, 56, 0
1, 399472, Note_on_c, 0, 54, 12
1, 399481, Note_on_c, 0, 56, 59
1, 399499, Poly_aftertouch_c, 0, 49, 0
1, 399502, Note_off_c, 0, 54, 0
1, 399525, Poly_aftertouch_c, 0, 54, 0
1, 399545, Note_off_c, 0, 56, 63
1, 399554, Note_off_c, 0, 89, 58
1, 399557, Note_on_c, 0, 77, 74
1, 399558, Note_on_c, 0, 82, 81
1, 399564, Note_off_c, 0, 55, 37
1, 399568, Note_on_c, 0, 50, 83
1, 399605, Poly_aftertouch_c, 0, 87, 0
1, 399620, Note_off_c, 0, 77, 61
1, 399628, Note_off_c, 0, 50, 66
1, 399643, Note_on_c, 0, 55, 69
1, 399651, Note_off_c, 0, 82, 62
1, 399686, Control_c, 0, 64, 87
1, 399700, Control_c, 0, 64, 65
1, 399715, Control_c, 0, 64, 58
1, 399720, Note_on_c, 0, 51, 83
1, 399730, Note_on_c, 0, 87, 93
1, 399730, Control_c, 0, 64, 67
1, 399734, Note_off_c, 0, 55, 57
1, 399736, Note_on_c, 0, 75, 86
1, 399743, Note_on_c, 0, 82, 77
1, 399745, Control_c, 0, 64, 72
1, 399750, Note_on_c, 0, 50, 58
1, 399760, Control_c, 0, 64, 81
1, 399774, Note_on_c, 0, 85, 35
1, 399774, Control_c, 0, 64, 94
1, 399789, Note_off_c, 0, 50, 52
1, 399789, Control_c, 0, 64, 127
1, 399807, Note_off_c, 0, 51, 59
1, 399807, Note_off_c, 0, 85, 53
1, 399810, Note_on_c, 0, 55, 19
1, 399812, Note_on_c, 0, 58, 74
1, 399840, Note_off_c, 0, 75, 60
1, 399845, Note_off_c, 0, 82, 52
1, 399852, Note_off_c, 0, 58, 56
1, 399876, Note_on_c, 0, 51, 80
1, 399925, Note_off_c, 0, 87, 35
1, 399951, Note_on_c, 0, 58, 82
1, 399957, Note_off_c, 0, 55, 21
1, 399965, Note_off_c, 0, 51, 63
1, 400001, Note_off_c, 0, 58, 63
1, 400025, Note_on_c, 0, 85, 84
1, 400027, Note_on_c, 0, 73, 91
1, 400031, Note_on_c, 0, 52, 90
1, 400060, Note_on_c, 0, 82, 36
1, 400093, Note_off_c, 0, 85, 64
1, 400094, Note_off_c, 0, 73, 62
1, 400100, Note_off_c, 0, 82, 51
1, 400115, Note_off_c, 0, 52, 64
1, 400124, Note_on_c, 0, 58, 73
1, 400153, Note_off_c, 0, 58, 66
1, 400212, Control_c, 0, 64, 96
1, 400226, Control_c, 0, 64, 69
1, 400228, Note_on_c, 0, 53, 77
1, 400238, Note_on_c, 0, 84, 72
1, 400241, Control_c, 0, 64, 0
1, 400242, Note_on_c, 0, 72, 78
1, 400243, Note_on_c, 0, 80, 74
1, 400314, Note_off_c, 0, 72, 59
1, 400315, Control_c, 0, 64, 49
1, 400327, Note_on_c, 0, 60, 75
1, 400330, Control_c, 0, 64, 64
1, 400345, Control_c, 0, 64, 76
1, 400347, Note_off_c, 0, 84, 63
1, 400359, Control_c, 0, 64, 96
1, 400374, Control_c, 0, 64, 127
1, 400383, Note_off_c, 0, 80, 64
1, 400386, Note_on_c, 0, 56, 80
1, 400409, Note_off_c, 0, 60, 57
1, 400459, Note_off_c, 0, 53, 57
1, 400475, Note_on_c, 0, 60, 74
1, 400535, Note_on_c, 0, 59, 82
1, 400552, Note_off_c, 0, 60, 64
1, 400612, Note_on_c, 0, 60, 80
1, 400636, Note_off_c, 0, 59, 61
1, 400650, Note_off_c, 0, 56, 42
1, 400682, Note_off_c, 0, 60, 59
1, 400745, Control_c, 0, 64, 93
1, 400749, Note_on_c, 0, 80, 91
1, 400754, Note_on_c, 0, 53, 74
1, 400760, Control_c, 0, 64, 63
1, 400761, Note_on_c, 0, 77, 76
1, 400774, Control_c, 0, 64, 0
1, 400827, Control_c, 0, 64, 51
1, 400842, Control_c, 0, 64, 64
1, 400856, Control_c, 0, 64, 73
1, 400871, Control_c, 0, 64, 90
1, 400876, Note_on_c, 0, 61, 70
1, 400877, Note_off_c, 0, 53, 62
1, 400886, Control_c, 0, 64, 127
1, 400944, Note_on_c, 0, 56, 66
1, 400944, Note_off_c, 0, 61, 61
1, 401015, Note_on_c, 0, 61, 71
1, 401042, Note_off_c, 0, 56, 56
1, 401076, Note_off_c, 0, 61, 63
1, 401083, Note_on_c, 0, 60, 71
1, 401144, Note_off_c, 0, 60, 65
1, 401149, Note_on_c, 0, 61, 74
1, 401181, Control_c, 0, 64, 97
1, 401197, Control_c, 0, 64, 71
1, 401206, Note_off_c, 0, 61, 61
1, 401212, Control_c, 0, 64, 51
1, 401226, Note_on_c, 0, 49, 81
1, 401227, Control_c, 0, 64, 55
1, 401242, Control_c, 0, 64, 64
1, 401257, Control_c, 0, 64, 69
1, 401271, Control_c, 0, 64, 75
1, 401286, Control_c, 0, 64, 86
1, 401295, Note_off_c, 0, 49, 61
1, 401301, Control_c, 0, 64, 104
1, 401304, Note_on_c, 0, 61, 73
1, 401316, Control_c, 0, 64, 127
1, 401330, Note_off_c, 0, 80, 65
1, 401378, Note_off_c, 0, 61, 60
1, 401378, Note_on_c, 0, 56, 72
1, 401446, Note_on_c, 0, 61, 76
1, 401466, Note_off_c, 0, 56, 60
1, 401524, Note_on_c, 0, 60, 72
1, 401542, Note_off_c, 0, 61, 57
1, 401595, Note_on_c, 0, 61, 64
1, 401610, Note_off_c, 0, 60, 63
1, 401620, Control_c, 0, 64, 109
1, 401635, Control_c, 0, 64, 79
1, 401650, Control_c, 0, 64, 60
1, 401657, Note_off_c, 0, 61, 61
1, 401663, Note_on_c, 0, 75, 79
1, 401665, Control_c, 0, 64, 61
1, 401667, Note_on_c, 0, 79, 75
1, 401675, Note_on_c, 0, 53, 74
1, 401679, Control_c, 0, 64, 68
1, 401694, Control_c, 0, 64, 74
1, 401697, Note_off_c, 0, 77, 59
1, 401709, Control_c, 0, 64, 83
1, 401724, Control_c, 0, 64, 95
1, 401734, Note_on_c, 0, 61, 80
1, 401739, Control_c, 0, 64, 127
1, 401801, Note_off_c, 0, 61, 61
1, 401802, Note_on_c, 0, 56, 77
1, 401845, Note_off_c, 0, 79, 55
1, 401852, Note_off_c, 0, 53, 60
1, 401874, Note_on_c, 0, 61, 77
1, 401945, Note_off_c, 0, 61, 62
1, 401949, Note_on_c, 0, 60, 75
1, 401949, Note_on_c, 0, 77, 81
1, 401956, Note_on_c, 0, 73, 85
1, 401960, Note_off_c, 0, 75, 62
1, 401967, Note_off_c, 0, 56, 34
1, 402007, Note_off_c, 0, 60, 64
1, 402037, Note_on_c, 0, 61, 77
1, 402083, Note_off_c, 0, 61, 55
1, 402110, Control_c, 0, 64, 86
1, 402125, Control_c, 0, 64, 64
1, 402140, Control_c, 0, 64, 0
1, 402141, Note_on_c, 0, 56, 66
1, 402153, Note_on_c, 0, 75, 76
1, 402155, Note_on_c, 0, 72, 74
1, 402169, Control_c, 0, 64, 34
1, 402183, Note_off_c, 0, 73, 51
1, 402184, Control_c, 0, 64, 56
1, 402199, Note_off_c, 0, 77, 55
1, 402199, Control_c, 0, 64, 64
1, 402214, Control_c, 0, 64, 71
1, 402219, Note_on_c, 0, 63, 72
1, 402228, Control_c, 0, 64, 81
1, 402240, Note_off_c, 0, 72, 62
1, 402243, Control_c, 0, 64, 95
1, 402258, Control_c, 0, 64, 127
1, 402275, Note_off_c, 0, 75, 63
1, 402294, Note_on_c, 0, 60, 76
1, 402294, Note_off_c, 0, 63, 64
1, 402361, Note_off_c, 0, 56, 30
1, 402372, Note_on_c, 0, 63, 81
1, 402427, Note_on_c, 0, 62, 77
1, 402436, Note_off_c, 0, 63, 64
1, 402460, Note_off_c, 0, 60, 57
1, 402507, Note_on_c, 0, 63, 88
1, 402526, Note_off_c, 0, 62, 61
1, 402600, Note_off_c, 0, 63, 60
1, 402621, Control_c, 0, 64, 97
1, 402630, Note_on_c, 0, 75, 82
1, 402632, Note_on_c, 0, 56, 84
1, 402632, Note_on_c, 0, 84, 84
1, 402636, Note_on_c, 0, 72, 87
1, 402636, Control_c, 0, 64, 68
1, 402651, Control_c, 0, 64, 28
1, 402666, Control_c, 0, 64, 37
1, 402680, Control_c, 0, 64, 61
1, 402695, Control_c, 0, 64, 68
1, 402707, Note_off_c, 0, 56, 61
1, 402710, Control_c, 0, 64, 77
1, 402725, Control_c, 0, 64, 94
1, 402740, Control_c, 0, 64, 127
1, 402748, Note_on_c, 0, 60, 71
1, 402749, Poly_aftertouch_c, 0, 81, 127
1, 402788, Note_off_c, 0, 60, 57
1, 402807, Note_on_c, 0, 58, 79
1, 402866, Note_off_c, 0, 58, 66
1, 402896, Note_on_c, 0, 60, 76
1, 402924, Note_off_c, 0, 75, 58
1, 402949, Note_off_c, 0, 60, 63
1, 402954, Note_on_c, 0, 56, 76
1, 403015, Note_off_c, 0, 56, 60
1, 403029, Note_on_c, 0, 60, 77
1, 403079, Note_off_c, 0, 60, 60
1, 403103, Control_c, 0, 64, 107
1, 403113, Note_on_c, 0, 49, 89
1, 403118, Control_c, 0, 64, 69
1, 403125, Note_on_c, 0, 77, 78
1, 403133, Control_c, 0, 64, 0
1, 403177, Control_c, 0, 64, 27
1, 403192, Control_c, 0, 64, 58
1, 403200, Note_on_c, 0, 58, 75
1, 403207, Control_c, 0, 64, 70
1, 403222, Control_c, 0, 64, 91
1, 403237, Control_c, 0, 64, 127
1, 403247, Note_off_c, 0, 49, 57
1, 403259, Poly_aftertouch_c, 0, 81, 0
1, 403263, Note_off_c, 0, 58, 63
1, 403269, Note_on_c, 0, 53, 69
1, 403296, Poly_aftertouch_c, 0, 81, 127
1, 403300, Note_off_c, 0, 84, 57
1, 403331, Note_on_c, 0, 58, 83
1, 403337, Note_off_c, 0, 72, 62
1, 403351, Note_off_c, 0, 77, 56
1, 403351, Poly_aftertouch_c, 0, 81, 0
1, 403375, Note_off_c, 0, 53, 59
1, 403393, Note_off_c, 0, 58, 63
1, 403402, Note_on_c, 0, 57, 75
1, 403477, Note_on_c, 0, 58, 88
1, 403491, Note_off_c, 0, 57, 62
1, 403532, Note_off_c, 0, 58, 64
1, 403548, Control_c, 0, 64, 102
1, 403563, Control_c, 0, 64, 77
1, 403563, Note_on_c, 0, 50, 83
1, 403572, Note_on_c, 0, 82, 85
1, 403574, Note_on_c, 0, 70, 90
1, 403577, Control_c, 0, 64, 65
1, 403582, Note_on_c, 0, 77, 74
1, 403593, Control_c, 0, 64, 65
1, 403608, Control_c, 0, 64, 70
1, 403623, Control_c, 0, 64, 75
1, 403632, Note_on_c, 0, 58, 82
1, 403638, Control_c, 0, 64, 82
1, 403653, Control_c, 0, 64, 90
1, 403667, Control_c, 0, 64, 102
1, 403682, Control_c, 0, 64, 127
1, 403706, Note_off_c, 0, 58, 64
1, 403714, Note_on_c, 0, 53, 79
1, 403714, Note_off_c, 0, 82, 57
1, 403732, Note_off_c, 0, 70, 60
1, 403756, Note_off_c, 0, 77, 30
1, 403793, Note_on_c, 0, 58, 86
1, 403828, Note_off_c, 0, 53, 58
1, 403831, Poly_aftertouch_c, 0, 52, 127
1, 403846, Note_on_c, 0, 80, 83
1, 403854, Note_on_c, 0, 68, 88
1, 403857, Note_off_c, 0, 58, 63
1, 403891, Poly_aftertouch_c, 0, 52, 0
1, 403891, Note_on_c, 0, 77, 19
1, 403905, Note_off_c, 0, 50, 66
1, 403912, Note_off_c, 0, 80, 65
1, 403923, Note_on_c, 0, 58, 79
1, 403927, Note_off_c, 0, 68, 65
1, 403930, Note_off_c, 0, 77, 52
1, 403971, Control_c, 0, 64, 108
1, 403986, Control_c, 0, 64, 76
1, 403988, Note_off_c, 0, 58, 58
1, 404000, Control_c, 0, 64, 45
1, 404015, Control_c, 0, 64, 0
1, 404023, Note_on_c, 0, 51, 84
1, 404030, Control_c, 0, 64, 27
1, 404031, Note_on_c, 0, 75, 80
1, 404034, Note_on_c, 0, 67, 86
1, 404034, Note_on_c, 0, 79, 79
1, 404045, Control_c, 0, 64, 57
1, 404060, Control_c, 0, 64, 67
1, 404074, Control_c, 0, 64, 77
1, 404089, Control_c, 0, 64, 95
1, 404091, Note_off_c, 0, 67, 62
1, 404104, Note_on_c, 0, 58, 84
1, 404104, Control_c, 0, 64, 127
1, 404111, Note_off_c, 0, 79, 62
1, 404124, Poly_aftertouch_c, 0, 73, 127
1, 404136, Note_off_c, 0, 75, 63
1, 404164, Note_on_c, 0, 55, 78
1, 404164, Poly_aftertouch_c, 0, 73, 0
1, 404177, Note_off_c, 0, 58, 63
1, 404233, Note_on_c, 0, 58, 76
1, 404247, Note_off_c, 0, 51, 30
1, 404314, Note_on_c, 0, 57, 78
1, 404317, Note_off_c, 0, 58, 62
1, 404368, Note_off_c, 0, 55, 59
1, 404392, Note_on_c, 0, 58, 89
1, 404404, Note_off_c, 0, 57, 64
1, 404446, Note_off_c, 0, 58, 63
1, 404542, Note_on_c, 0, 51, 91
1, 404550, Control_c, 0, 64, 83
1, 404556, Note_on_c, 0, 85, 93
1, 404556, Note_on_c, 0, 89, 93
1, 404558, Note_on_c, 0, 77, 97
1, 404572, Control_c, 0, 64, 50
1, 404587, Control_c, 0, 64, 0
1, 404602, Control_c, 0, 64, 45
1, 404617, Control_c, 0, 64, 60
1, 404631, Control_c, 0, 64, 67
1, 404646, Control_c, 0, 64, 78
1, 404661, Control_c, 0, 64, 102
1, 404667, Note_on_c, 0, 58, 70
1, 404676, Control_c, 0, 64, 127
1, 404702, Note_off_c, 0, 51, 55
1, 404717, Note_on_c, 0, 55, 68
1, 404719, Note_off_c, 0, 58, 64
1, 404793, Note_off_c, 0, 55, 61
1, 404796, Note_on_c, 0, 58, 73
1, 404836, Note_off_c, 0, 58, 59
1, 404871, Note_on_c, 0, 51, 74
1, 404940, Note_on_c, 0, 55, 75
1, 404941, Note_off_c, 0, 51, 61
1, 404987, Control_c, 0, 64, 94
1, 405002, Control_c, 0, 64, 71
1, 405011, Note_off_c, 0, 55, 62
1, 405012, Note_on_c, 0, 51, 75
1, 405016, Control_c, 0, 64, 62
1, 405031, Control_c, 0, 64, 67
1, 405046, Control_c, 0, 64, 74
1, 405061, Control_c, 0, 64, 83
1, 405075, Control_c, 0, 64, 94
1, 405086, Note_off_c, 0, 51, 60
1, 405090, Control_c, 0, 64, 112
1, 405095, Note_on_c, 0, 55, 67
1, 405098, Note_off_c, 0, 89, 58
1, 405105, Control_c, 0, 64, 127
1, 405117, Note_off_c, 0, 85, 63
1, 405132, Note_off_c, 0, 55, 56
1, 405162, Note_on_c, 0, 53, 67
1, 405163, Note_off_c, 0, 77, 56
1, 405249, Note_on_c, 0, 56, 72
1, 405261, Note_off_c, 0, 53, 64
1, 405330, Note_on_c, 0, 55, 59
1, 405361, Note_off_c, 0, 56, 53
1, 405365, Note_off_c, 0, 55, 63
1, 405367, Note_on_c, 0, 58, 86
1, 405409, Note_off_c, 0, 58, 64
1, 405424, Control_c, 0, 64, 99
1, 405439, Control_c, 0, 64, 72
1, 405453, Control_c, 0, 64, 60
1, 405462, Note_on_c, 0, 87, 90
1, 405464, Note_on_c, 0, 75, 85
1, 405465, Note_on_c, 0, 84, 77
1, 405466, Note_on_c, 0, 57, 69
1, 405468, Control_c, 0, 64, 65
1, 405481, Note_on_c, 0, 55, 62
1, 405483, Control_c, 0, 64, 71
1, 405498, Control_c, 0, 64, 77
1, 405513, Control_c, 0, 64, 86
1, 405515, Note_off_c, 0, 55, 47
1, 405528, Control_c, 0, 64, 98
1, 405542, Note_on_c, 0, 58, 72
1, 405543, Control_c, 0, 64, 127
1, 405553, Note_off_c, 0, 57, 57
1, 405573, Note_off_c, 0, 87, 56
1, 405589, Note_off_c, 0, 75, 53
1, 405613, Note_on_c, 0, 56, 76
1, 405635, Note_off_c, 0, 58, 63
1, 405665, Note_off_c, 0, 56, 65
1, 405678, Note_on_c, 0, 60, 72
1, 405681, Note_off_c, 0, 84, 57
1, 405733, Note_on_c, 0, 85, 84
1, 405734, Note_on_c, 0, 56, 62
1, 405739, Note_on_c, 0, 73, 87
1, 405749, Note_off_c, 0, 60, 55
1, 405754, Note_on_c, 0, 82, 59
1, 405772, Note_off_c, 0, 56, 63
1, 405780, Note_off_c, 0, 82, 65
1, 405796, Note_off_c, 0, 85, 55
1, 405808, Note_off_c, 0, 73, 64
1, 405868, Control_c, 0, 64, 96
1, 405883, Control_c, 0, 64, 66
1, 405897, Control_c, 0, 64, 0
1, 405906, Note_on_c, 0, 80, 85
1, 405908, Note_on_c, 0, 84, 83
1, 405909, Note_on_c, 0, 72, 89
1, 405912, Control_c, 0, 64, 21
1, 405914, Note_on_c, 0, 59, 65
1, 405914, Note_on_c, 0, 60, 64
1, 405927, Control_c, 0, 64, 57
1, 405942, Control_c, 0, 64, 67
1, 405951, Note_off_c, 0, 72, 64
1, 405957, Control_c, 0, 64, 78
1, 405961, Note_off_c, 0, 59, 54
1, 405963, Note_off_c, 0, 60, 54
1, 405972, Control_c, 0, 64, 97
1, 405976, Note_off_c, 0, 84, 62
1, 405980, Note_on_c, 0, 63, 84
1, 405987, Control_c, 0, 64, 127
1, 405999, Note_off_c, 0, 80, 63
1, 406057, Note_off_c, 0, 63, 63
1, 406068, Note_on_c, 0, 61, 65
1, 406106, Note_on_c, 0, 65, 81
1, 406110, Note_off_c, 0, 61, 62
1, 406178, Note_on_c, 0, 60, 82
1, 406187, Note_off_c, 0, 65, 56
1, 406249, Note_on_c, 0, 63, 87
1, 406268, Note_off_c, 0, 60, 63
1, 406291, Note_off_c, 0, 63, 65
1, 406395, Control_c, 0, 64, 108
1, 406410, Control_c, 0, 64, 69
1, 406413, Note_on_c, 0, 59, 98
1, 406413, Note_on_c, 0, 92, 98
1, 406417, Note_on_c, 0, 80, 96
1, 406420, Note_on_c, 0, 86, 80
1, 406425, Control_c, 0, 64, 0
1, 406469, Control_c, 0, 64, 55
1, 406484, Control_c, 0, 64, 71
1, 406490, Note_on_c, 0, 90, 3
1, 406499, Control_c, 0, 64, 91
1, 406513, Control_c, 0, 64, 127
1, 406549, Note_off_c, 0, 90, 41
1, 406562, Note_on_c, 0, 65, 67
1, 406631, Note_off_c, 0, 65, 60
1, 406636, Note_on_c, 0, 62, 69
1, 406662, Note_off_c, 0, 59, 53
1, 406700, Note_off_c, 0, 62, 64
1, 406708, Note_on_c, 0, 65, 70
1, 406780, Note_on_c, 0, 64, 77
1, 406782, Note_off_c, 0, 65, 61
1, 406849, Note_off_c, 0, 64, 59
1, 406857, Note_on_c, 0, 65, 72
1, 406906, Control_c, 0, 64, 86
1, 406921, Control_c, 0, 64, 68
1, 406927, Note_on_c, 0, 59, 90
1, 406936, Control_c, 0, 64, 64
1, 406939, Note_off_c, 0, 65, 57
1, 406950, Control_c, 0, 64, 72
1, 406965, Control_c, 0, 64, 85
1, 406980, Control_c, 0, 64, 105
1, 406995, Control_c, 0, 64, 127
1, 407014, Note_on_c, 0, 65, 77
1, 407080, Note_on_c, 0, 62, 77
1, 407085, Note_off_c, 0, 65, 59
1, 407093, Note_off_c, 0, 86, 54
1, 407115, Note_off_c, 0, 92, 55
1, 407134, Note_off_c, 0, 80, 53
1, 407157, Note_off_c, 0, 59, 34
1, 407163, Note_on_c, 0, 65, 76
1, 407214, Note_on_c, 0, 64, 76
1, 407221, Note_off_c, 0, 65, 61
1, 407255, Note_off_c, 0, 62, 32
1, 407280, Note_on_c, 0, 65, 75
1, 407291, Control_c, 0, 64, 110
1, 407306, Control_c, 0, 64, 79
1, 407310, Note_off_c, 0, 64, 62
1, 407321, Control_c, 0, 64, 65
1, 407334, Note_off_c, 0, 65, 63
1, 407335, Control_c, 0, 64, 66
1, 407346, Note_on_c, 0, 91, 92
1, 407350, Control_c, 0, 64, 75
1, 407351, Note_on_c, 0, 80, 93
1, 407352, Note_on_c, 0, 86, 85
1, 407355, Note_on_c, 0, 59, 80
1, 407365, Control_c, 0, 64, 83
1, 407380, Control_c, 0, 64, 95
1, 407395, Control_c, 0, 64, 127
1, 407429, Note_off_c, 0, 86, 63
1, 407434, Note_off_c, 0, 91, 62
1, 407459, Note_on_c, 0, 68, 79
1, 407511, Note_off_c, 0, 80, 39
1, 407516, Note_off_c, 0, 68, 64
1, 407519, Note_on_c, 0, 62, 75
1, 407584, Note_on_c, 0, 60, 29
1, 407595, Note_on_c, 0, 68, 81
1, 407597, Note_off_c, 0, 59, 59
1, 407622, Note_off_c, 0, 60, 54
1, 407659, Note_on_c, 0, 89, 92
1, 407665, Note_on_c, 0, 86, 82
1, 407666, Note_on_c, 0, 80, 92
1, 407680, Note_on_c, 0, 59, 87
1, 407697, Note_off_c, 0, 68, 59
1, 407731, Note_off_c, 0, 62, 59
1, 407748, Note_off_c, 0, 59, 61
1, 407754, Note_off_c, 0, 89, 60
1, 407766, Note_on_c, 0, 68, 48
1, 407773, Note_off_c, 0, 80, 57
1, 407805, Note_off_c, 0, 68, 63
1, 407833, Note_off_c, 0, 86, 55
1, 407833, Control_c, 0, 64, 116
1, 407847, Control_c, 0, 64, 82
1, 407862, Control_c, 0, 64, 61
1, 407863, Note_on_c, 0, 60, 75
1, 407869, Note_on_c, 0, 84, 80
1, 407869, Note_on_c, 0, 87, 81
1, 407872, Note_on_c, 0, 80, 90
1, 407877, Control_c, 0, 64, 44
1, 407889, Note_on_c, 0, 86, 32
1, 407891, Control_c, 0, 64, 55
1, 407906, Control_c, 0, 64, 64
1, 407921, Control_c, 0, 64, 69
1, 407926, Note_off_c, 0, 86, 51
1, 407936, Control_c, 0, 64, 76
1, 407951, Control_c, 0, 64, 86
1, 407963, Note_on_c, 0, 68, 77
1, 407966, Control_c, 0, 64, 99
1, 407974, Note_off_c, 0, 60, 61
1, 407981, Control_c, 0, 64, 123
1, 407996, Control_c, 0, 64, 127
1, 408021, Note_off_c, 0, 84, 61
1, 408023, Note_off_c, 0, 80, 56
1, 408024, Note_on_c, 0, 63, 66
1, 408032, Note_off_c, 0, 68, 64
1, 408098, Note_on_c, 0, 68, 73
1, 408125, Note_off_c, 0, 63, 61
1, 408139, Note_on_c, 0, 67, 70
1, 408146, Note_off_c, 0, 68, 64
1, 408219, Control_c, 0, 64, 113
1, 408232, Note_off_c, 0, 67, 63
1, 408233, Note_on_c, 0, 68, 81
1, 408233, Control_c, 0, 64, 79
1, 408248, Control_c, 0, 64, 58
1, 408263, Control_c, 0, 64, 46
1, 408278, Control_c, 0, 64, 59
1, 408283, Note_off_c, 0, 68, 65
1, 408292, Control_c, 0, 64, 68
1, 408302, Note_on_c, 0, 61, 84
1, 408302, Note_on_c, 0, 89, 85
1, 408306, Note_on_c, 0, 80, 89
1, 408307, Control_c, 0, 64, 77
1, 408316, Note_on_c, 0, 82, 84
1, 408330, Control_c, 0, 64, 92
1, 408341, Note_off_c, 0, 87, 0
1, 408345, Control_c, 0, 64, 127
1, 408365, Note_off_c, 0, 89, 62
1, 408372, Note_off_c, 0, 82, 62
1, 408386, Note_on_c, 0, 68, 82
1, 408392, Note_off_c, 0, 80, 63
1, 408396, Note_off_c, 0, 61, 61
1, 408398, Poly_aftertouch_c, 0, 87, 0
1, 408443, Note_off_c, 0, 68, 61
1, 408455, Note_on_c, 0, 65, 78
1, 408535, Note_off_c, 0, 65, 62
1, 408568, Note_on_c, 0, 67, 35
1, 408597, Note_on_c, 0, 62, 68
1, 408601, Note_off_c, 0, 67, 52
1, 408611, Note_on_c, 0, 82, 87
1, 408624, Note_on_c, 0, 77, 71
1, 408630, Note_on_c, 0, 80, 65
1, 408660, Note_off_c, 0, 80, 60
1, 408661, Note_off_c, 0, 77, 57
1, 408697, Note_on_c, 0, 65, 81
1, 408711, Note_off_c, 0, 62, 62
1, 408760, Control_c, 0, 64, 83
1, 408775, Control_c, 0, 64, 54
1, 408783, Note_on_c, 0, 84, 84
1, 408786, Note_on_c, 0, 75, 88
1, 408786, Note_off_c, 0, 82, 51
1, 408789, Note_on_c, 0, 80, 70
1, 408789, Control_c, 0, 64, 0
1, 408819, Control_c, 0, 64, 42
1, 408834, Control_c, 0, 64, 56
1, 408849, Control_c, 0, 64, 63
1, 408860, Note_off_c, 0, 65, 57
1, 408863, Control_c, 0, 64, 70
1, 408878, Control_c, 0, 64, 80
1, 408883, Note_on_c, 0, 63, 70
1, 408893, Control_c, 0, 64, 95
1, 408908, Control_c, 0, 64, 127
1, 408939, Note_on_c, 0, 61, 77
1, 408950, Note_off_c, 0, 63, 63
1, 408973, Note_off_c, 0, 61, 63
1, 408982, Control_c, 0, 67, 8
1, 409009, Note_on_c, 0, 60, 78
1, 409012, Control_c, 0, 67, 8
1, 409064, Note_off_c, 0, 75, 33
1, 409092, Note_off_c, 0, 60, 62
1, 409093, Note_on_c, 0, 58, 80
1, 409123, Control_c, 0, 67, 9
1, 409153, Note_off_c, 0, 84, 58
1, 409163, Note_on_c, 0, 56, 83
1, 409190, Note_off_c, 0, 58, 60
1, 409206, Note_off_c, 0, 80, 61
1, 409212, Control_c, 0, 64, 96
1, 409227, Control_c, 0, 64, 71
1, 409234, Note_on_c, 0, 82, 82
1, 409235, Note_on_c, 0, 75, 78
1, 409242, Control_c, 0, 64, 53
1, 409242, Control_c, 0, 67, 9
1, 409257, Control_c, 0, 64, 50
1, 409272, Control_c, 0, 64, 57
1, 409276, Note_off_c, 0, 56, 61
1, 409287, Control_c, 0, 64, 62
1, 409287, Control_c, 0, 67, 9
1, 409301, Control_c, 0, 64, 66
1, 409303, Note_on_c, 0, 55, 74
1, 409316, Control_c, 0, 64, 71
1, 409331, Control_c, 0, 64, 78
1, 409331, Control_c, 0, 67, 8
1, 409346, Control_c, 0, 64, 89
1, 409361, Control_c, 0, 64, 98
1, 409376, Control_c, 0, 64, 105
1, 409387, Note_off_c, 0, 55, 57
1, 409391, Control_c, 0, 64, 111
1, 409393, Note_on_c, 0, 53, 81
1, 409394, Note_on_c, 0, 79, 84
1, 409406, Control_c, 0, 64, 120
1, 409420, Control_c, 0, 64, 127
1, 409420, Control_c, 0, 67, 8
1, 409450, Control_c, 0, 67, 8
1, 409467, Note_on_c, 0, 51, 70
1, 409495, Note_off_c, 0, 53, 62
1, 409507, Note_on_c, 0, 50, 70
1, 409524, Note_off_c, 0, 51, 58
1, 409547, Note_on_c, 0, 87, 85
1, 409553, Note_off_c, 0, 82, 32
1, 409559, Note_off_c, 0, 79, 60
1, 409583, Control_c, 0, 67, 8
1, 409595, Note_on_c, 0, 51, 68
1, 409597, Note_off_c, 0, 75, 56
1, 409607, Note_off_c, 0, 50, 65
1, 409620, Note_off_c, 0, 51, 68
1, 409635, Note_off_c, 0, 87, 58
1, 409642, Control_c, 0, 67, 8
1, 409686, Control_c, 0, 64, 97
1, 409686, Control_c, 0, 67, 8
1, 409701, Control_c, 0, 64, 71
1, 409716, Control_c, 0, 64, 32
1, 409716, Control_c, 0, 67, 0
1, 409722, Note_on_c, 0, 41, 69
1, 409725, Note_on_c, 0, 86, 73
1, 409731, Control_c, 0, 64, 24
1, 409732, Note_on_c, 0, 74, 68
1, 409733, Note_on_c, 0, 80, 64
1, 409746, Control_c, 0, 64, 48
1, 409760, Control_c, 0, 64, 60
1, 409775, Control_c, 0, 64, 65
1, 409778, Note_off_c, 0, 41, 46
1, 409790, Note_on_c, 0, 53, 64
1, 409790, Control_c, 0, 64, 71
1, 409812, Control_c, 0, 64, 81
1, 409827, Control_c, 0, 64, 98
1, 409842, Control_c, 0, 64, 127
1, 409866, Note_on_c, 0, 46, 71
1, 409872, Note_off_c, 0, 53, 63
1, 409930, Note_off_c, 0, 46, 63
1, 409945, Note_off_c, 0, 86, 57
1, 409951, Note_on_c, 0, 53, 61
1, 410006, Note_off_c, 0, 53, 58
1, 410009, Note_off_c, 0, 74, 62
1, 410020, Note_on_c, 0, 46, 77
1, 410084, Note_off_c, 0, 46, 59
1, 410100, Note_on_c, 0, 53, 65
1, 410133, Note_off_c, 0, 53, 66
1, 410169, Control_c, 0, 64, 92
1, 410175, Note_on_c, 0, 43, 85
1, 410184, Control_c, 0, 64, 67
1, 410190, Note_on_c, 0, 85, 76
1, 410191, Note_on_c, 0, 82, 73
1, 410192, Note_on_c, 0, 73, 78
1, 410199, Control_c, 0, 64, 0
1, 410214, Control_c, 0, 64, 10
1, 410228, Control_c, 0, 64, 50
1, 410243, Control_c, 0, 64, 62
1, 410248, Note_off_c, 0, 80, 56
1, 410251, Note_on_c, 0, 55, 74
1, 410258, Control_c, 0, 64, 68
1, 410273, Control_c, 0, 64, 78
1, 410287, Note_off_c, 0, 85, 59
1, 410287, Control_c, 0, 64, 97
1, 410289, Note_off_c, 0, 73, 59
1, 410297, Note_off_c, 0, 82, 60
1, 410302, Control_c, 0, 64, 127
1, 410322, Note_off_c, 0, 55, 59
1, 410323, Note_on_c, 0, 51, 77
1, 410397, Note_off_c, 0, 51, 60
1, 410407, Note_on_c, 0, 55, 73
1, 410413, Note_off_c, 0, 43, 16
1, 410470, Note_off_c, 0, 55, 61
1, 410470, Note_on_c, 0, 51, 71
1, 410539, Note_on_c, 0, 55, 60
1, 410541, Note_off_c, 0, 51, 61
1, 410579, Note_off_c, 0, 55, 62
1, 410591, Control_c, 0, 64, 89
1, 410606, Control_c, 0, 64, 68
1, 410621, Control_c, 0, 64, 54
1, 410625, Note_on_c, 0, 84, 84
1, 410626, Note_on_c, 0, 75, 83
1, 410628, Note_on_c, 0, 72, 85
1, 410635, Control_c, 0, 64, 60
1, 410650, Control_c, 0, 64, 67
1, 410655, Note_on_c, 0, 44, 73
1, 410665, Control_c, 0, 64, 74
1, 410680, Control_c, 0, 64, 86
1, 410694, Control_c, 0, 64, 99
1, 410709, Control_c, 0, 64, 120
1, 410711, Note_on_c, 0, 46, 78
1, 410722, Note_off_c, 0, 44, 59
1, 410724, Control_c, 0, 64, 127
1, 410792, Note_on_c, 0, 44, 71
1, 410837, Note_off_c, 0, 46, 58
1, 410859, Note_on_c, 0, 42, 74
1, 410863, Note_off_c, 0, 84, 59
1, 410876, Note_off_c, 0, 44, 61
1, 410886, Note_off_c, 0, 72, 53
1, 410887, Note_off_c, 0, 42, 64
1, 410917, Note_on_c, 0, 80, 86
1, 410920, Note_off_c, 0, 75, 62
1, 410932, Note_on_c, 0, 41, 81
1, 410982, Note_off_c, 0, 80, 64
1, 411007, Note_on_c, 0, 39, 51
1, 411008, Note_off_c, 0, 41, 61
1, 411021, Control_c, 0, 64, 111
1, 411036, Control_c, 0, 64, 77
1, 411040, Note_off_c, 0, 39, 51
1, 411051, Control_c, 0, 64, 50
1, 411066, Control_c, 0, 64, 41
1, 411081, Control_c, 0, 64, 59
1, 411081, Note_on_c, 0, 85, 93
1, 411084, Note_on_c, 0, 77, 89
1, 411087, Note_on_c, 0, 37, 63
1, 411090, Note_on_c, 0, 80, 72
1, 411096, Control_c, 0, 64, 69
1, 411110, Control_c, 0, 64, 82
1, 411115, Note_on_c, 0, 36, 52
1, 411125, Control_c, 0, 64, 104
1, 411135, Note_off_c, 0, 37, 0
1, 411135, Note_on_c, 0, 37, 9
1, 411140, Control_c, 0, 64, 127
1, 411147, Note_off_c, 0, 36, 51
1, 411166, Note_off_c, 0, 80, 52
1, 411169, Note_off_c, 0, 37, 52
1, 411170, Note_on_c, 0, 44, 72
1, 411215, Note_off_c, 0, 44, 60
1, 411224, Note_on_c, 0, 41, 70
1, 411238, Note_off_c, 0, 77, 33
1, 411287, Note_on_c, 0, 44, 79
1, 411316, Note_on_c, 0, 39, 7
1, 411338, Note_off_c, 0, 85, 56
1, 411340, Note_off_c, 0, 39, 0
1, 411349, Note_off_c, 0, 41, 0
1, 411356, Note_off_c, 0, 44, 58
1, 411379, Note_on_c, 0, 38, 78
1, 411380, Note_on_c, 0, 82, 81
1, 411385, Poly_aftertouch_c, 0, 41, 127
1, 411388, Note_on_c, 0, 77, 72
1, 411388, Poly_aftertouch_c, 0, 39, 0
1, 411398, Note_on_c, 0, 80, 59
1, 411426, Poly_aftertouch_c, 0, 39, 127
1, 411442, Note_off_c, 0, 38, 63
1, 411448, Note_off_c, 0, 77, 53
1, 411454, Note_on_c, 0, 44, 66
1, 411469, Poly_aftertouch_c, 0, 41, 0
1, 411472, Poly_aftertouch_c, 0, 39, 0
1, 411481, Note_off_c, 0, 44, 66
1, 411482, Note_off_c, 0, 80, 45
1, 411488, Control_c, 0, 64, 105
1, 411500, Note_off_c, 0, 82, 55
1, 411503, Control_c, 0, 64, 103
1, 411517, Control_c, 0, 64, 110
1, 411532, Control_c, 0, 64, 127
1, 411543, Note_on_c, 0, 39, 82
1, 411549, Note_on_c, 0, 84, 86
1, 411551, Note_on_c, 0, 75, 90
1, 411555, Note_on_c, 0, 80, 56
1, 411610, Note_on_c, 0, 51, 70
1, 411614, Note_off_c, 0, 39, 52
1, 411622, Note_off_c, 0, 75, 56
1, 411632, Note_on_c, 0, 44, 25
1, 411638, Note_off_c, 0, 80, 58
1, 411642, Note_off_c, 0, 51, 64
1, 411660, Note_off_c, 0, 44, 52
1, 411665, Note_off_c, 0, 84, 59
1, 411681, Control_c, 0, 64, 120
1, 411696, Control_c, 0, 64, 82
1, 411711, Control_c, 0, 64, 58
1, 411726, Control_c, 0, 64, 54
1, 411728, Note_on_c, 0, 82, 93
1, 411729, Note_on_c, 0, 37, 82
1, 411731, Note_on_c, 0, 77, 91
1, 411740, Control_c, 0, 64, 64
1, 411743, Note_on_c, 0, 80, 71
1, 411748, Note_on_c, 0, 36, 70
1, 411755, Control_c, 0, 64, 72
1, 411770, Control_c, 0, 64, 83
1, 411773, Note_off_c, 0, 36, 58
1, 411785, Control_c, 0, 64, 99
1, 411790, Note_off_c, 0, 37, 63
1, 411795, Note_off_c, 0, 80, 58
1, 411800, Control_c, 0, 64, 127
1, 411807, Note_on_c, 0, 49, 78
1, 411812, Note_off_c, 0, 77, 58
1, 411850, Note_off_c, 0, 49, 60
1, 411897, Note_off_c, 0, 82, 63
1, 411902, Note_on_c, 0, 39, 78
1, 411913, Note_on_c, 0, 79, 84
1, 411921, Note_on_c, 0, 73, 92
1, 411945, Note_on_c, 0, 38, 42
1, 411973, Note_on_c, 0, 51, 78
1, 411992, Note_off_c, 0, 38, 43
1, 411992, Note_off_c, 0, 39, 57
1, 412002, Note_off_c, 0, 51, 65
1, 412032, Note_off_c, 0, 73, 58
1, 412133, Control_c, 0, 64, 82
1, 412147, Note_on_c, 0, 32, 83
1, 412148, Control_c, 0, 64, 56
1, 412162, Note_on_c, 0, 72, 89
1, 412162, Note_on_c, 0, 80, 91
1, 412163, Control_c, 0, 64, 0
1, 412168, Note_on_c, 0, 75, 79
1, 412193, Control_c, 0, 64, 56
1, 412205, Note_off_c, 0, 79, 57
1, 412207, Control_c, 0, 64, 66
1, 412222, Control_c, 0, 64, 76
1, 412237, Control_c, 0, 64, 97
1, 412247, Note_off_c, 0, 72, 60
1, 412252, Control_c, 0, 64, 127
1, 412264, Note_on_c, 0, 44, 76
1, 412264, Note_off_c, 0, 32, 0
1, 412300, Note_off_c, 0, 75, 60
1, 412302, Poly_aftertouch_c, 0, 32, 127
1, 412306, Note_off_c, 0, 80, 61
1, 412335, Note_on_c, 0, 36, 70
1, 412336, Note_off_c, 0, 44, 59
1, 412349, Note_on_c, 0, 32, 3
1, 412394, Note_off_c, 0, 32, 54
1, 412406, Note_on_c, 0, 44, 73
1, 412419, Poly_aftertouch_c, 0, 34, 127
1, 412473, Note_off_c, 0, 44, 61
1, 412478, Note_on_c, 0, 39, 74
1, 412519, Poly_aftertouch_c, 0, 34, 0
1, 412557, Note_on_c, 0, 44, 79
1, 412568, Note_off_c, 0, 36, 37
1, 412586, Note_off_c, 0, 39, 55
1, 412631, Note_off_c, 0, 44, 61
1, 412637, Control_c, 0, 64, 79
1, 412649, Note_on_c, 0, 85, 98
1, 412650, Note_on_c, 0, 32, 82
1, 412652, Control_c, 0, 64, 38
1, 412656, Note_on_c, 0, 77, 83
1, 412658, Note_on_c, 0, 80, 77
1, 412667, Control_c, 0, 64, 0
1, 412682, Control_c, 0, 64, 51
1, 412697, Control_c, 0, 64, 65
1, 412712, Control_c, 0, 64, 78
1, 412726, Control_c, 0, 64, 111
1, 412741, Control_c, 0, 64, 127
1, 412743, Note_on_c, 0, 44, 74
1, 412754, Note_off_c, 0, 77, 58
1, 412778, Note_off_c, 0, 80, 59
1, 412819, Note_off_c, 0, 44, 59
1, 412823, Note_on_c, 0, 37, 72
1, 412884, Note_on_c, 0, 44, 71
1, 412902, Note_off_c, 0, 32, 30
1, 412941, Poly_aftertouch_c, 0, 34, 0
1, 412947, Note_on_c, 0, 41, 69
1, 412949, Note_off_c, 0, 44, 61
1, 412955, Note_off_c, 0, 37, 55
1, 413033, Note_on_c, 0, 44, 75
1, 413036, Note_off_c, 0, 41, 61
1, 413099, Note_off_c, 0, 44, 57
1, 413119, Control_c, 0, 64, 90
1, 413121, Note_on_c, 0, 82, 82
1, 413128, Note_on_c, 0, 32, 75
1, 413131, Note_on_c, 0, 79, 73
1, 413134, Note_on_c, 0, 73, 78
1, 413134, Control_c, 0, 64, 70
1, 413149, Control_c, 0, 64, 61
1, 413157, Note_off_c, 0, 85, 60
1, 413163, Control_c, 0, 64, 65
1, 413179, Control_c, 0, 64, 71
1, 413194, Control_c, 0, 64, 79
1, 413207, Note_on_c, 0, 44, 78
1, 413209, Control_c, 0, 64, 90
1, 413224, Control_c, 0, 64, 110
1, 413239, Control_c, 0, 64, 127
1, 413261, Note_off_c, 0, 73, 60
1, 413278, Note_on_c, 0, 37, 75
1, 413281, Note_off_c, 0, 44, 60
1, 413281, Note_off_c, 0, 79, 59
1, 413338, Note_off_c, 0, 32, 58
1, 413354, Note_on_c, 0, 44, 79
1, 413414, Note_on_c, 0, 40, 79
1, 413423, Note_off_c, 0, 44, 61
1, 413487, Note_off_c, 0, 37, 59
1, 413498, Note_on_c, 0, 44, 86
1, 413521, Note_off_c, 0, 40, 58
1, 413584, Note_off_c, 0, 44, 59
1, 413594, Note_off_c, 0, 82, 52
1, 413616, Control_c, 0, 64, 95
1, 413617, Note_on_c, 0, 87, 97
1, 413618, Note_on_c, 0, 80, 80
1, 413620, Note_on_c, 0, 32, 83
1, 413622, Note_on_c, 0, 75, 91
1, 413630, Control_c, 0, 64, 63
1, 413636, Note_on_c, 0, 34, 60
1, 413645, Control_c, 0, 64, 0
1, 413660, Control_c, 0, 64, 44
1, 413675, Control_c, 0, 64, 63
1, 413690, Note_off_c, 0, 34, 50
1, 413690, Control_c, 0, 64, 74
1, 413704, Control_c, 0, 64, 98
1, 413710, Note_on_c, 0, 44, 71
1, 413719, Control_c, 0, 64, 127
1, 413784, Note_off_c, 0, 44, 60
1, 413800, Note_on_c, 0, 36, 60
1, 413804, Note_off_c, 0, 80, 59
1, 413838, Note_off_c, 0, 32, 56
1, 413848, Note_off_c, 0, 75, 54
1, 413851, Note_on_c, 0, 37, 3
1, 413852, Note_on_c, 0, 44, 78
1, 413857, Note_on_c, 0, 34, 5
1, 413882, Note_off_c, 0, 37, 46
1, 413908, Note_off_c, 0, 34, 45
1, 413922, Note_off_c, 0, 36, 37
1, 413931, Note_on_c, 0, 39, 77
1, 413933, Note_off_c, 0, 44, 61
1, 413996, Note_off_c, 0, 39, 62
1, 414009, Note_on_c, 0, 44, 77
1, 414027, Note_off_c, 0, 87, 61
1, 414060, Note_off_c, 0, 44, 60
1, 414061, Note_on_c, 0, 84, 67
1, 414068, Note_on_c, 0, 78, 90
1, 414071, Note_on_c, 0, 75, 87
1, 414077, Note_on_c, 0, 32, 77
1, 414081, Note_on_c, 0, 87, 53
1, 414112, Note_off_c, 0, 87, 64
1, 414117, Note_off_c, 0, 75, 63
1, 414145, Note_off_c, 0, 78, 63
1, 414145, Note_off_c, 0, 32, 59
1, 414148, Note_on_c, 0, 44, 77
1, 414151, Note_off_c, 0, 84, 65
1, 414228, Note_on_c, 0, 39, 76
1, 414228, Note_off_c, 0, 44, 60
1, 414289, Note_on_c, 0, 44, 77
1, 414327, Note_off_c, 0, 39, 50
1, 414360, Note_on_c, 0, 42, 86
1, 414361, Note_off_c, 0, 44, 62
1, 414423, Note_on_c, 0, 43, 66
1, 414438, Note_on_c, 0, 44, 88
1, 414452, Note_off_c, 0, 43, 62
1, 414457, Note_off_c, 0, 42, 59
1, 414507, Note_off_c, 0, 44, 57
1, 414543, Control_c, 0, 64, 100
1, 414546, Note_on_c, 0, 85, 88
1, 414553, Note_on_c, 0, 32, 88
1, 414553, Note_on_c, 0, 77, 98
1, 414553, Note_on_c, 0, 89, 101
1, 414558, Control_c, 0, 64, 67
1, 414573, Control_c, 0, 64, 37
1, 414579, Note_on_c, 0, 34, 49
1, 414588, Control_c, 0, 64, 57
1, 414602, Control_c, 0, 64, 67
1, 414611, Note_off_c, 0, 34, 58
1, 414617, Control_c, 0, 64, 81
1, 414632, Control_c, 0, 64, 125
1, 414647, Control_c, 0, 64, 127
1, 414651, Note_on_c, 0, 44, 77
1, 414726, Note_on_c, 0, 37, 74
1, 414726, Note_off_c, 0, 44, 59
1, 414789, Note_on_c, 0, 44, 79
1, 414810, Note_off_c, 0, 77, 54
1, 414812, Note_off_c, 0, 32, 34
1, 414822, Note_off_c, 0, 37, 59
1, 414849, Note_on_c, 0, 41, 75
1, 414859, Note_off_c, 0, 44, 60
1, 414936, Note_on_c, 0, 44, 78
1, 414960, Note_off_c, 0, 41, 60
1, 414974, Note_off_c, 0, 89, 59
1, 414986, Note_off_c, 0, 85, 63
1, 414988, Control_c, 0, 64, 106
1, 415003, Control_c, 0, 64, 79
1, 415014, Note_on_c, 0, 86, 85
1, 415018, Control_c, 0, 64, 69
1, 415019, Note_on_c, 0, 32, 77
1, 415019, Note_on_c, 0, 83, 83
1, 415020, Note_on_c, 0, 77, 81
1, 415027, Note_off_c, 0, 44, 56
1, 415032, Control_c, 0, 64, 71
1, 415047, Control_c, 0, 64, 78
1, 415069, Control_c, 0, 64, 87
1, 415084, Control_c, 0, 64, 103
1, 415099, Control_c, 0, 64, 127
1, 415105, Note_on_c, 0, 44, 81
1, 415126, Note_off_c, 0, 77, 62
1, 415157, Note_off_c, 0, 86, 62
1, 415158, Note_off_c, 0, 83, 62
1, 415174, Note_on_c, 0, 38, 75
1, 415180, Note_off_c, 0, 32, 32
1, 415192, Note_off_c, 0, 44, 56
1, 415260, Note_on_c, 0, 44, 76
1, 415316, Note_on_c, 0, 41, 80
1, 415331, Note_off_c, 0, 44, 58
1, 415335, Note_off_c, 0, 38, 60
1, 415406, Note_on_c, 0, 44, 84
1, 415428, Note_off_c, 0, 41, 59
1, 415470, Note_off_c, 0, 44, 61
1, 415528, Note_on_c, 0, 32, 92
1, 415529, Control_c, 0, 64, 103
1, 415532, Note_on_c, 0, 90, 99
1, 415533, Note_on_c, 0, 78, 98
1, 415536, Note_on_c, 0, 84, 88
1, 415543, Control_c, 0, 64, 67
1, 415558, Control_c, 0, 64, 0
1, 415566, Note_on_c, 0, 34, 41
1, 415567, Note_off_c, 0, 34, 127
1, 415573, Control_c, 0, 64, 25
1, 415574, Note_on_c, 0, 31, 35
1, 415588, Control_c, 0, 64, 55
1, 415603, Control_c, 0, 64, 65
1, 415617, Note_off_c, 0, 31, 45
1, 415618, Control_c, 0, 64, 81
1, 415633, Control_c, 0, 64, 122
1, 415641, Note_off_c, 0, 32, 58
1, 415648, Control_c, 0, 64, 127
1, 415672, Note_on_c, 0, 44, 74
1, 415758, Note_on_c, 0, 39, 73
1, 415765, Note_off_c, 0, 44, 57
1, 415830, Note_on_c, 0, 44, 74
1, 415853, Note_off_c, 0, 39, 58
1, 415921, Note_on_c, 0, 41, 61
1, 415927, Note_off_c, 0, 44, 49
1, 415948, Note_off_c, 0, 90, 62
1, 415970, Note_off_c, 0, 41, 62
1, 415999, Note_on_c, 0, 44, 55
1, 416027, Note_on_c, 0, 89, 94
1, 416027, Note_off_c, 0, 44, 64
1, 416030, Poly_aftertouch_c, 0, 42, 0
1, 416036, Note_on_c, 0, 32, 79
1, 416044, Note_off_c, 0, 84, 61
1, 416093, Note_on_c, 0, 31, 25
1, 416104, Note_on_c, 0, 44, 77
1, 416112, Note_off_c, 0, 32, 58
1, 416131, Note_off_c, 0, 31, 48
1, 416199, Note_off_c, 0, 44, 59
1, 416203, Note_on_c, 0, 40, 69
1, 416251, Note_on_c, 0, 44, 72
1, 416267, Note_off_c, 0, 40, 56
1, 416302, Note_on_c, 0, 87, 94
1, 416320, Note_on_c, 0, 42, 82
1, 416327, Note_off_c, 0, 44, 61
1, 416333, Note_off_c, 0, 89, 53
1, 416356, Note_on_c, 0, 88, 24
1, 416378, Note_off_c, 0, 78, 29
1, 416390, Note_on_c, 0, 44, 79
1, 416390, Note_off_c, 0, 42, 62
1, 416429, Note_off_c, 0, 88, 37
1, 416463, Note_off_c, 0, 44, 58
1, 416485, Control_c, 0, 64, 97
1, 416492, Note_on_c, 0, 89, 95
1, 416494, Note_on_c, 0, 77, 91
1, 416494, Note_on_c, 0, 85, 90
1, 416497, Note_on_c, 0, 32, 86
1, 416500, Control_c, 0, 64, 65
1, 416515, Control_c, 0, 64, 0
1, 416532, Note_on_c, 0, 34, 39
1, 416552, Control_c, 0, 64, 50
1, 416567, Control_c, 0, 64, 65
1, 416582, Control_c, 0, 64, 76
1, 416584, Note_off_c, 0, 34, 41
1, 416597, Control_c, 0, 64, 100
1, 416599, Note_on_c, 0, 44, 73
1, 416604, Note_off_c, 0, 87, 25
1, 416611, Control_c, 0, 64, 127
1, 416667, Note_off_c, 0, 44, 59
1, 416670, Note_on_c, 0, 37, 69
1, 416714, Note_off_c, 0, 77, 54
1, 416728, Note_off_c, 0, 32, 20
1, 416729, Note_on_c, 0, 44, 75
1, 416751, Note_off_c, 0, 37, 60
1, 416789, Note_off_c, 0, 44, 61
1, 416792, Note_on_c, 0, 41, 78
1, 416879, Note_on_c, 0, 44, 76
1, 416897, Note_off_c, 0, 41, 60
1, 416908, Control_c, 0, 64, 101
1, 416917, Note_off_c, 0, 85, 62
1, 416920, Note_off_c, 0, 89, 57
1, 416923, Control_c, 0, 64, 73
1, 416930, Note_off_c, 0, 44, 59
1, 416937, Control_c, 0, 64, 63
1, 416940, Note_on_c, 0, 86, 89
1, 416944, Note_on_c, 0, 77, 91
1, 416948, Note_on_c, 0, 32, 76
1, 416952, Control_c, 0, 64, 67
1, 416967, Control_c, 0, 64, 74
1, 416982, Control_c, 0, 64, 85
1, 416996, Control_c, 0, 64, 103
1, 417008, Note_off_c, 0, 77, 62
1, 417011, Control_c, 0, 64, 127
1, 417028, Note_on_c, 0, 44, 85
1, 417049, Note_off_c, 0, 86, 66
1, 417093, Note_on_c, 0, 38, 77
1, 417096, Note_off_c, 0, 32, 33
1, 417117, Note_off_c, 0, 44, 60
1, 417175, Note_on_c, 0, 44, 76
1, 417184, Note_on_c, 0, 35, 11
1, 417231, Note_off_c, 0, 35, 52
1, 417232, Note_on_c, 0, 41, 76
1, 417263, Note_off_c, 0, 44, 61
1, 417263, Note_off_c, 0, 38, 48
1, 417338, Note_on_c, 0, 44, 74
1, 417359, Control_c, 0, 64, 83
1, 417360, Note_off_c, 0, 41, 56
1, 417374, Control_c, 0, 64, 71
1, 417375, Note_on_c, 0, 92, 105
1, 417379, Note_on_c, 0, 83, 92
1, 417381, Note_on_c, 0, 86, 84
1, 417389, Note_on_c, 0, 32, 76
1, 417389, Control_c, 0, 64, 75
1, 417400, Note_off_c, 0, 44, 61
1, 417404, Control_c, 0, 64, 90
1, 417419, Control_c, 0, 64, 127
1, 417469, Note_on_c, 0, 44, 87
1, 417469, Poly_aftertouch_c, 0, 90, 127
1, 417490, Note_off_c, 0, 32, 60
1, 417492, Poly_aftertouch_c, 0, 34, 127
1, 417521, Note_on_c, 0, 38, 47
1, 417522, Poly_aftertouch_c, 0, 90, 0
1, 417523, Note_off_c, 0, 44, 61
1, 417532, Poly_aftertouch_c, 0, 34, 0
1, 417597, Note_on_c, 0, 44, 91
1, 417642, Note_off_c, 0, 38, 60
1, 417661, Note_on_c, 0, 41, 81
1, 417664, Note_off_c, 0, 86, 49
1, 417666, Note_off_c, 0, 44, 61
1, 417720, Note_off_c, 0, 92, 61
1, 417744, Note_on_c, 0, 44, 73
1, 417756, Note_off_c, 0, 41, 60
1, 417773, Note_off_c, 0, 44, 0
1, 417786, Note_on_c, 0, 90, 99
1, 417789, Note_on_c, 0, 32, 81
1, 417799, Poly_aftertouch_c, 0, 44, 0
1, 417864, Note_on_c, 0, 44, 83
1, 417896, Note_off_c, 0, 32, 54
1, 417898, Note_off_c, 0, 90, 59
1, 417925, Note_on_c, 0, 38, 68
1, 417941, Note_off_c, 0, 44, 59
1, 418025, Note_on_c, 0, 44, 77
1, 418062, Note_off_c, 0, 83, 33
1, 418072, Note_on_c, 0, 41, 74
1, 418095, Note_off_c, 0, 44, 59
1, 418097, Note_on_c, 0, 89, 98
1, 418110, Note_off_c, 0, 38, 56
1, 418144, Note_on_c, 0, 44, 72
1, 418161, Note_off_c, 0, 41, 62
1, 418188, Note_off_c, 0, 44, 59
1, 418308, Note_on_c, 0, 32, 95
1, 418329, Note_on_c, 0, 91, 101
1, 418330, Note_on_c, 0, 82, 103
1, 418330, Note_on_c, 0, 88, 87
1, 418334, Note_on_c, 0, 85, 84
1, 418345, Control_c, 0, 64, 113
1, 418360, Control_c, 0, 64, 71
1, 418369, Note_off_c, 0, 89, 56
1, 418375, Control_c, 0, 64, 0
1, 418419, Control_c, 0, 64, 43
1, 418434, Control_c, 0, 64, 60
1, 418449, Control_c, 0, 64, 70
1, 418458, Note_off_c, 0, 32, 58
1, 418464, Control_c, 0, 64, 89
1, 418479, Control_c, 0, 64, 127
1, 418490, Note_on_c, 0, 43, 79
1, 418533, Note_off_c, 0, 43, 61
1, 418560, Note_on_c, 0, 34, 73
1, 418619, Note_on_c, 0, 43, 90
1, 418638, Note_off_c, 0, 34, 60
1, 418689, Note_on_c, 0, 37, 78
1, 418694, Note_off_c, 0, 43, 62
1, 418756, Note_on_c, 0, 43, 80
1, 418799, Note_off_c, 0, 37, 56
1, 418823, Note_on_c, 0, 40, 79
1, 418842, Note_off_c, 0, 43, 62
1, 418853, Note_off_c, 0, 91, 60
1, 418863, Note_off_c, 0, 82, 60
1, 418883, Note_off_c, 0, 85, 60
1, 418885, Note_off_c, 0, 88, 61
1, 418921, Note_on_c, 0, 43, 83
1, 418928, Note_off_c, 0, 40, 59
1, 418974, Note_on_c, 0, 37, 71
1, 418983, Note_off_c, 0, 43, 62
1, 419061, Note_on_c, 0, 43, 91
1, 419071, Note_off_c, 0, 37, 61
1, 419127, Note_off_c, 0, 43, 62
1, 419129, Note_on_c, 0, 34, 77
1, 419195, Note_on_c, 0, 43, 85
1, 419222, Note_on_c, 0, 39, 50
1, 419231, Note_off_c, 0, 34, 60
1, 419255, Note_off_c, 0, 39, 49
1, 419261, Note_off_c, 0, 43, 62
1, 419302, Control_c, 0, 64, 106
1, 419316, Control_c, 0, 64, 60
1, 419317, Note_on_c, 0, 32, 97
1, 419331, Note_on_c, 0, 94, 105
1, 419331, Control_c, 0, 64, 0
1, 419334, Note_on_c, 0, 85, 96
1, 419335, Note_on_c, 0, 88, 94
1, 419336, Note_on_c, 0, 91, 88
1, 419346, Control_c, 0, 64, 39
1, 419348, Note_on_c, 0, 34, 50
1, 419361, Control_c, 0, 64, 61
1, 419376, Control_c, 0, 64, 70
1, 419380, Note_off_c, 0, 34, 54
1, 419390, Control_c, 0, 64, 86
1, 419405, Control_c, 0, 64, 127
1, 419445, Note_off_c, 0, 32, 58
1, 419469, Note_on_c, 0, 43, 89
1, 419515, Note_off_c, 0, 91, 57
1, 419555, Note_on_c, 0, 34, 76
1, 419566, Note_off_c, 0, 43, 40
1, 419597, Note_on_c, 0, 32, 29
1, 419609, Note_on_c, 0, 43, 63
1, 419620, Note_off_c, 0, 32, 56
1, 419621, Note_off_c, 0, 88, 59
1, 419637, Note_off_c, 0, 34, 57
1, 419684, Note_on_c, 0, 37, 77
1, 419693, Note_off_c, 0, 43, 62
1, 419735, Note_off_c, 0, 94, 59
1, 419743, Note_on_c, 0, 34, 16
1, 419761, Note_on_c, 0, 43, 86
1, 419765, Note_off_c, 0, 34, 60
1, 419793, Note_off_c, 0, 85, 61
1, 419797, Note_on_c, 0, 92, 99
1, 419820, Note_on_c, 0, 40, 81
1, 419834, Note_off_c, 0, 37, 0
1, 419846, Note_off_c, 0, 43, 61
1, 419871, Poly_aftertouch_c, 0, 37, 127
1, 419913, Poly_aftertouch_c, 0, 37, 0
1, 419916, Note_on_c, 0, 43, 84
1, 419925, Note_off_c, 0, 40, 59
1, 419981, Note_on_c, 0, 37, 69
1, 419990, Note_off_c, 0, 43, 60
1, 420068, Note_on_c, 0, 43, 86
1, 420106, Note_on_c, 0, 91, 98
1, 420113, Note_off_c, 0, 37, 0
1, 420137, Note_on_c, 0, 34, 78
1, 420139, Note_off_c, 0, 43, 57
1, 420141, Note_on_c, 0, 37, 25
1, 420152, Note_off_c, 0, 92, 62
1, 420168, Note_off_c, 0, 91, 68
1, 420181, Note_off_c, 0, 37, 52
1, 420215, Note_on_c, 0, 43, 86
1, 420240, Note_off_c, 0, 34, 60
1, 420265, Note_off_c, 0, 43, 59
1, 420354, Control_c, 0, 64, 73
1, 420370, Note_on_c, 0, 36, 23
1, 420370, Control_c, 0, 64, 0
1, 420378, Note_on_c, 0, 39, 73
1, 420384, Note_on_c, 0, 32, 88
1, 420384, Note_on_c, 0, 44, 94
1, 420386, Note_on_c, 0, 96, 96
1, 420387, Note_on_c, 0, 87, 92
1, 420388, Note_on_c, 0, 84, 94
1, 420400, Note_on_c, 0, 92, 80
1, 420414, Control_c, 0, 64, 51
1, 420422, Note_on_c, 0, 34, 24
1, 420423, Note_on_c, 0, 95, 43
1, 420429, Control_c, 0, 64, 69
1, 420444, Control_c, 0, 64, 87
1, 420449, Note_on_c, 0, 90, 24
1, 420450, Note_off_c, 0, 34, 33
1, 420453, Note_off_c, 0, 95, 38
1, 420459, Control_c, 0, 64, 127
1, 420486, Note_off_c, 0, 92, 61
1, 420487, Note_off_c, 0, 96, 65
1, 420496, Note_off_c, 0, 90, 50
1, 420513, Note_off_c, 0, 87, 62
1, 420563, Note_on_c, 0, 92, 91
1, 420569, Note_off_c, 0, 84, 50
1, 420650, Note_off_c, 0, 92, 60
1, 420651, Note_on_c, 0, 87, 92
1, 420726, Note_on_c, 0, 92, 84
1, 420739, Note_off_c, 0, 87, 61
1, 420808, Note_on_c, 0, 87, 84
1, 420878, Note_on_c, 0, 84, 83
1, 420888, Note_off_c, 0, 87, 62
1, 420950, Note_on_c, 0, 87, 86
1, 420951, Note_off_c, 0, 84, 61
1, 420975, Note_off_c, 0, 92, 58
1, 421025, Note_off_c, 0, 87, 62
1, 421031, Note_on_c, 0, 84, 73
1, 421063, Note_off_c, 0, 84, 69
1, 421118, Note_on_c, 0, 80, 76
1, 421183, Note_off_c, 0, 80, 62
1, 421200, Note_on_c, 0, 83, 61
1, 421203, Note_on_c, 0, 84, 65
1, 421232, Note_off_c, 0, 84, 66
1, 421246, Note_off_c, 0, 83, 61
1, 421250, Note_on_c, 0, 80, 69
1, 421283, Note_off_c, 0, 80, 66
1, 421319, Note_on_c, 0, 75, 81
1, 421392, Note_off_c, 0, 75, 56
1, 421398, Note_on_c, 0, 72, 77
1, 421424, Note_on_c, 0, 74, 26
1, 421436, Note_off_c, 0, 72, 55
1, 421460, Note_off_c, 0, 74, 53
1, 421493, Note_on_c, 0, 69, 54
1, 421496, Note_on_c, 0, 68, 34
1, 421501, Note_on_c, 0, 70, 28
1, 421523, Note_off_c, 0, 69, 50
1, 421532, Note_off_c, 0, 68, 50
1, 421538, Note_off_c, 0, 70, 51
1, 421542, Note_on_c, 0, 63, 86
1, 421601, Note_off_c, 0, 63, 58
1, 421608, Note_on_c, 0, 68, 74
1, 421687, Note_on_c, 0, 63, 74
1, 421720, Note_off_c, 0, 68, 62
1, 421741, Note_off_c, 0, 63, 58
1, 421752, Note_on_c, 0, 60, 73
1, 421788, Note_off_c, 0, 60, 66
1, 421830, Note_on_c, 0, 56, 83
1, 421881, Note_off_c, 0, 44, 59
1, 421899, Note_off_c, 0, 39, 59
1, 421902, Note_on_c, 0, 51, 78
1, 421926, Note_off_c, 0, 36, 39
1, 421930, Note_off_c, 0, 32, 40
1, 421947, Poly_aftertouch_c, 0, 55, 127
1, 421960, Note_off_c, 0, 51, 62
1, 421964, Note_on_c, 0, 48, 79
1, 422003, Poly_aftertouch_c, 0, 55, 0
1, 422039, Note_off_c, 0, 48, 57
1, 422045, Note_on_c, 0, 51, 79
1, 422054, Note_off_c, 0, 56, 57
1, 422104, Note_off_c, 0, 51, 62
1, 422110, Note_on_c, 0, 48, 74
1, 422185, Note_off_c, 0, 48, 34
1, 422188, Note_on_c, 0, 44, 82
1, 422214, Note_off_c, 0, 44, 65
1, 422249, Note_on_c, 0, 32, 85
1, 422267, Control_c, 0, 64, 76
1, 422282, Control_c, 0, 64, 36
1, 422297, Control_c, 0, 64, 0
1, 422312, Control_c, 0, 64, 40
1, 422323, Note_on_c, 0, 36, 74
1, 422327, Control_c, 0, 64, 59
1, 422341, Control_c, 0, 64, 67
1, 422356, Control_c, 0, 64, 77
1, 422367, Note_off_c, 0, 32, 61
1, 422371, Control_c, 0, 64, 97
1, 422385, Control_c, 0, 64, 127
1, 422393, Note_on_c, 0, 39, 80
1, 422401, Note_off_c, 0, 36, 60
1, 422420, Note_off_c, 0, 39, 64
1, 422480, Note_on_c, 0, 44, 77
1, 422514, Note_off_c, 0, 44, 64
1, 422546, Note_on_c, 0, 48, 82
1, 422614, Note_on_c, 0, 51, 78
1, 422623, Note_off_c, 0, 48, 61
1, 422659, Note_off_c, 0, 51, 64
1, 422690, Note_on_c, 0, 44, 77
1, 422742, Note_on_c, 0, 48, 70
1, 422796, Note_off_c, 0, 44, 60
1, 422816, Note_on_c, 0, 51, 81
1, 422820, Note_off_c, 0, 48, 59
1, 422840, Note_off_c, 0, 51, 66
1, 422889, Note_on_c, 0, 56, 83
1, 422943, Note_off_c, 0, 56, 64
1, 422950, Note_on_c, 0, 60, 83
1, 423016, Note_on_c, 0, 63, 69
1, 423035, Note_off_c, 0, 60, 65
1, 423069, Note_off_c, 0, 63, 66
1, 423103, Note_on_c, 0, 56, 95
1, 423181, Note_on_c, 0, 58, 21
1, 423181, Note_on_c, 0, 60, 78
1, 423225, Note_off_c, 0, 56, 62
1, 423252, Note_on_c, 0, 63, 88
1, 423268, Note_off_c, 0, 60, 65
1, 423279, Note_off_c, 0, 63, 69
1, 423291, Note_off_c, 0, 58, 47
1, 423340, Note_on_c, 0, 68, 89
1, 423406, Note_on_c, 0, 72, 86
1, 423407, Note_off_c, 0, 68, 65
1, 423481, Note_on_c, 0, 75, 84
1, 423492, Note_off_c, 0, 72, 64
1, 423523, Note_off_c, 0, 75, 65
1, 423558, Note_on_c, 0, 68, 82
1, 423633, Note_on_c, 0, 72, 81
1, 423663, Note_off_c, 0, 68, 64
1, 423703, Note_off_c, 0, 72, 0
1, 423710, Note_on_c, 0, 75, 94
1, 423724, Poly_aftertouch_c, 0, 72, 0
1, 423750, Note_off_c, 0, 75, 65
1, 423795, Note_on_c, 0, 80, 88
1, 423871, Note_on_c, 0, 84, 83
1, 423884, Note_off_c, 0, 80, 61
1, 423954, Note_on_c, 0, 87, 96
1, 423982, Note_off_c, 0, 84, 64
1, 424042, Note_off_c, 0, 87, 55
1, 424153, Note_on_c, 0, 87, 89
1, 424154, Note_on_c, 0, 44, 96
1, 424154, Note_on_c, 0, 84, 78
1, 424155, Note_on_c, 0, 92, 96
1, 424155, Note_on_c, 0, 80, 93
1, 424158, Note_on_c, 0, 32, 82
1, 424158, Note_on_c, 0, 39, 87
1, 424162, Note_on_c, 0, 36, 78
1, 424175, Note_on_c, 0, 90, 63
1, 424192, Note_off_c, 0, 90, 65
1, 424195, Note_on_c, 0, 34, 37
1, 424234, Note_off_c, 0, 34, 35
1, 425687, Note_off_c, 0, 92, 65
1, 425738, Note_off_c, 0, 32, 57
1, 425738, Note_off_c, 0, 80, 60
1, 425738, Note_off_c, 0, 84, 62
1, 425744, Note_off_c, 0, 87, 61
1, 425759, Note_off_c, 0, 36, 57
1, 425772, Note_off_c, 0, 44, 53
1, 425775, Note_off_c, 0, 39, 57
1, 425804, Control_c, 0, 64, 115
1, 425818, Control_c, 0, 64, 76
1, 425833, Control_c, 0, 64, 0
1, 425908, End_track
0, 0, End_of_file
